0, 0, Header, 0, 1, 384
1, 0, Start_track
1, 0, Copyright_t, "(C) John Sankey 1998"
1, 0, Program_c, 0, 6
1, 0, Pitch_bend_c, 0, 8192
1, 0, Program_c, 1, 6
1, 0, Pitch_bend_c, 1, 7792
1, 0, Program_c, 2, 6
1, 0, Pitch_bend_c, 2, 7876
1, 0, Program_c, 3, 6
1, 0, Pitch_bend_c, 3, 7952
1, 0, Program_c, 4, 6
1, 0, Pitch_bend_c, 4, 7792
1, 0, Program_c, 5, 6
1, 0, Pitch_bend_c, 5, 8112
1, 0, Program_c, 6, 6
1, 0, Pitch_bend_c, 6, 7712
1, 0, Program_c, 7, 6
1, 0, Pitch_bend_c, 7, 8037
1, 0, Program_c, 8, 6
1, 0, Pitch_bend_c, 8, 7872
1, 0, Program_c, 10, 6
1, 0, Pitch_bend_c, 10, 7712
1, 0, Program_c, 11, 6
1, 0, Pitch_bend_c, 11, 8032
1, 0, Program_c, 12, 6
1, 0, Pitch_bend_c, 12, 7872
1, 0, Tempo, 500000
1, 48, Note_on_c, 4, 40, 127
1, 276, Note_on_c, 7, 79, 127
1, 460, Note_off_c, 4, 40, 127
1, 469, Note_on_c, 4, 76, 127
1, 469, Note_on_c, 7, 55, 127
1, 469, Note_on_c, 4, 52, 127
1, 473, Note_off_c, 7, 79, 127
1, 659, Note_on_c, 12, 71, 127
1, 843, Note_off_c, 4, 76, 127
1, 847, Note_off_c, 12, 71, 127
1, 847, Note_off_c, 4, 52, 127
1, 847, Note_off_c, 7, 55, 127
1, 848, Note_on_c, 0, 72, 127
1, 848, Note_on_c, 3, 51, 127
1, 848, Note_on_c, 6, 54, 127
1, 1038, Note_on_c, 10, 81, 127
1, 1222, Note_off_c, 0, 72, 127
1, 1226, Note_off_c, 10, 81, 127
1, 1226, Note_off_c, 6, 54, 127
1, 1226, Note_off_c, 3, 51, 127
1, 1227, Note_on_c, 12, 71, 127
1, 1227, Note_on_c, 4, 52, 127
1, 1227, Note_on_c, 7, 55, 127
1, 1417, Note_on_c, 7, 79, 127
1, 1601, Note_off_c, 12, 71, 127
1, 1605, Note_off_c, 7, 79, 127
1, 1605, Note_off_c, 7, 55, 127
1, 1605, Note_off_c, 4, 52, 127
1, 1606, Note_on_c, 10, 69, 127
1, 1606, Note_on_c, 10, 57, 127
1, 1606, Note_on_c, 6, 54, 127
1, 1796, Note_on_c, 6, 78, 127
1, 1984, Note_off_c, 6, 78, 127
1, 1985, Note_on_c, 3, 75, 127
1, 2079, Note_off_c, 10, 69, 127
1, 2173, Note_off_c, 3, 75, 127
1, 2173, Note_off_c, 6, 54, 127
1, 2173, Note_off_c, 10, 57, 127
1, 2175, Note_on_c, 10, 69, 127
1, 2363, Note_off_c, 10, 69, 127
1, 2364, Note_on_c, 12, 71, 127
1, 2364, Note_on_c, 4, 52, 127
1, 2364, Note_on_c, 7, 55, 127
1, 2554, Note_on_c, 7, 79, 127
1, 2738, Note_off_c, 12, 71, 127
1, 2742, Note_off_c, 7, 79, 127
1, 2742, Note_off_c, 7, 55, 127
1, 2742, Note_off_c, 4, 52, 127
1, 2743, Note_on_c, 10, 69, 127
1, 2743, Note_on_c, 10, 57, 127
1, 2743, Note_on_c, 6, 54, 127
1, 2933, Note_on_c, 6, 78, 127
1, 3117, Note_off_c, 10, 69, 127
1, 3121, Note_off_c, 6, 78, 127
1, 3121, Note_off_c, 10, 57, 127
1, 3122, Note_on_c, 7, 67, 127
1, 3122, Note_on_c, 12, 59, 127
1, 3310, Note_off_c, 12, 59, 127
1, 3310, Note_off_c, 6, 54, 127
1, 3312, Note_on_c, 4, 52, 127
1, 3500, Note_off_c, 4, 52, 127
1, 3502, Note_on_c, 4, 76, 127
1, 3502, Note_on_c, 7, 55, 127
1, 3690, Note_off_c, 7, 55, 127
1, 3691, Note_on_c, 0, 60, 127
1, 3879, Note_off_c, 0, 60, 127
1, 3879, Note_off_c, 7, 67, 127
1, 3880, Note_off_c, 4, 76, 127
1, 3881, Note_on_c, 6, 78, 127
1, 3881, Note_on_c, 10, 69, 127
1, 3881, Note_on_c, 12, 59, 127
1, 4069, Note_off_c, 12, 59, 127
1, 4070, Note_on_c, 3, 51, 127
1, 4258, Note_off_c, 3, 51, 127
1, 4259, Note_off_c, 10, 69, 127
1, 4259, Note_off_c, 6, 78, 127
1, 4260, Note_on_c, 7, 67, 127
1, 4260, Note_on_c, 4, 76, 127
1, 4260, Note_on_c, 1, 61, 127
1, 4448, Note_off_c, 1, 61, 127
1, 4449, Note_on_c, 4, 52, 127
1, 4637, Note_off_c, 4, 52, 127
1, 4638, Note_off_c, 4, 76, 127
1, 4638, Note_off_c, 7, 67, 127
1, 4639, Note_on_c, 10, 69, 127
1, 4639, Note_on_c, 6, 66, 127
1, 4639, Note_on_c, 3, 63, 127
1, 4827, Note_off_c, 3, 63, 127
1, 4828, Note_on_c, 6, 54, 127
1, 5016, Note_off_c, 6, 54, 127
1, 5018, Note_on_c, 10, 57, 127
1, 5206, Note_off_c, 10, 57, 127
1, 5207, Note_on_c, 3, 63, 127
1, 5308, Note_off_c, 6, 66, 127
1, 5308, Note_off_c, 10, 69, 127
1, 5395, Note_off_c, 3, 63, 127
1, 5397, Note_on_c, 7, 67, 127
1, 5397, Note_on_c, 12, 71, 127
1, 5397, Note_on_c, 1, 61, 127
1, 5585, Note_off_c, 1, 61, 127
1, 5586, Note_on_c, 4, 52, 127
1, 5774, Note_off_c, 4, 52, 127
1, 5775, Note_off_c, 12, 71, 127
1, 5775, Note_off_c, 7, 67, 127
1, 5776, Note_on_c, 10, 69, 127
1, 5776, Note_on_c, 6, 66, 127
1, 5776, Note_on_c, 3, 63, 127
1, 5965, Note_on_c, 6, 54, 127
1, 5972, Note_off_c, 3, 63, 127
1, 6153, Note_off_c, 6, 54, 127
1, 6157, Note_off_c, 6, 66, 127
1, 6164, Note_on_c, 4, 64, 127
1, 6249, Note_off_c, 10, 69, 127
1, 6361, Note_on_c, 6, 66, 127
1, 6542, Note_off_c, 4, 64, 127
1, 6549, Note_off_c, 6, 66, 127
1, 6550, Note_on_c, 2, 62, 127
1, 6550, Note_on_c, 7, 67, 127
1, 6738, Note_off_c, 7, 67, 127
1, 6740, Note_on_c, 12, 71, 127
1, 6928, Note_off_c, 12, 71, 127
1, 6928, Note_off_c, 2, 62, 127
1, 6929, Note_on_c, 0, 60, 127
1, 6929, Note_on_c, 4, 76, 127
1, 7119, Note_on_c, 10, 69, 127
1, 7186, Note_off_c, 4, 76, 127
1, 7307, Note_off_c, 0, 60, 127
1, 7308, Note_on_c, 10, 57, 127
1, 7308, Note_on_c, 0, 72, 127
1, 7493, Note_off_c, 10, 69, 127
1, 7496, Note_off_c, 0, 72, 127
1, 7498, Note_on_c, 7, 67, 127
1, 7686, Note_off_c, 10, 57, 127
1, 7687, Note_on_c, 2, 62, 127
1, 7774, Note_off_c, 7, 67, 127
1, 7877, Note_on_c, 4, 64, 127
1, 8065, Note_off_c, 4, 64, 127
1, 8065, Note_off_c, 2, 62, 127
1, 8066, Note_on_c, 0, 60, 127
1, 8066, Note_on_c, 6, 66, 127
1, 8254, Note_off_c, 6, 66, 127
1, 8256, Note_on_c, 10, 69, 127
1, 8444, Note_off_c, 10, 69, 127
1, 8444, Note_off_c, 0, 60, 127
1, 8446, Note_on_c, 12, 59, 127
1, 8446, Note_on_c, 2, 74, 127
1, 8635, Note_on_c, 7, 67, 127
1, 8703, Note_off_c, 2, 74, 127
1, 8824, Note_off_c, 12, 59, 127
1, 8825, Note_on_c, 7, 55, 127
1, 8825, Note_on_c, 12, 71, 127
1, 9009, Note_off_c, 7, 67, 127
1, 9013, Note_off_c, 12, 71, 127
1, 9014, Note_on_c, 5, 65, 127
1, 9203, Note_off_c, 7, 55, 127
1, 9204, Note_on_c, 0, 60, 127
1, 9290, Note_off_c, 5, 65, 127
1, 9393, Note_on_c, 2, 62, 127
1, 9581, Note_off_c, 2, 62, 127
1, 9582, Note_off_c, 0, 60, 127
1, 9583, Note_on_c, 12, 59, 127
1, 9583, Note_on_c, 4, 64, 127
1, 9771, Note_off_c, 4, 64, 127
1, 9772, Note_on_c, 7, 67, 127
1, 9960, Note_off_c, 7, 67, 127
1, 9961, Note_off_c, 12, 59, 127
1, 9962, Note_on_c, 10, 57, 127
1, 9962, Note_on_c, 0, 72, 127
1, 10150, Note_off_c, 0, 72, 127
1, 10151, Note_on_c, 10, 69, 127
1, 10339, Note_off_c, 10, 69, 127
1, 10340, Note_off_c, 10, 57, 127
1, 10341, Note_on_c, 7, 55, 127
1, 10341, Note_on_c, 0, 72, 127
1, 10530, Note_on_c, 4, 64, 127
1, 10715, Note_off_c, 0, 72, 127
1, 10718, Note_off_c, 4, 64, 127
1, 10719, Note_off_c, 7, 55, 127
1, 10720, Note_on_c, 6, 54, 127
1, 10720, Note_on_c, 2, 62, 127
1, 10908, Note_off_c, 2, 62, 127
1, 10909, Note_on_c, 6, 66, 127
1, 11097, Note_off_c, 6, 66, 127
1, 11098, Note_off_c, 6, 54, 127
1, 11099, Note_on_c, 4, 52, 127
1, 11099, Note_on_c, 10, 69, 127
1, 11287, Note_off_c, 10, 69, 127
1, 11288, Note_on_c, 0, 72, 127
1, 11476, Note_off_c, 0, 72, 127
1, 11477, Note_off_c, 4, 52, 127
1, 11478, Note_on_c, 2, 50, 127
1, 11478, Note_on_c, 6, 78, 127
1, 11666, Note_off_c, 6, 78, 127
1, 11667, Note_on_c, 0, 72, 127
1, 11855, Note_off_c, 0, 72, 127
1, 11856, Note_off_c, 2, 50, 127
1, 11857, Note_on_c, 6, 54, 127
1, 11857, Note_on_c, 10, 81, 127
1, 12045, Note_off_c, 10, 81, 127
1, 12046, Note_on_c, 0, 72, 127
1, 12235, Note_off_c, 6, 54, 127
1, 12242, Note_off_c, 0, 72, 127
1, 12244, Note_on_c, 7, 43, 127
1, 12244, Note_on_c, 12, 71, 127
1, 12432, Note_off_c, 12, 71, 127
1, 12434, Note_on_c, 7, 67, 127
1, 12622, Note_off_c, 7, 67, 127
1, 12622, Note_off_c, 7, 43, 127
1, 12623, Note_on_c, 6, 54, 127
1, 12623, Note_on_c, 12, 71, 127
1, 12813, Note_on_c, 3, 63, 127
1, 12899, Note_off_c, 12, 71, 127
1, 13001, Note_off_c, 3, 63, 127
1, 13001, Note_off_c, 6, 54, 127
1, 13002, Note_on_c, 0, 48, 127
1, 13002, Note_on_c, 4, 64, 127
1, 13190, Note_off_c, 4, 64, 127
1, 13192, Note_on_c, 12, 71, 127
1, 13380, Note_off_c, 12, 71, 127
1, 13380, Note_off_c, 0, 48, 127
1, 13381, Note_on_c, 4, 52, 127
1, 13381, Note_on_c, 0, 60, 127
1, 13569, Note_off_c, 0, 60, 127
1, 13571, Note_on_c, 12, 71, 127
1, 13759, Note_off_c, 12, 71, 127
1, 13759, Note_off_c, 4, 52, 127
1, 13760, Note_on_c, 6, 42, 127
1, 13760, Note_on_c, 10, 69, 127
1, 13948, Note_off_c, 10, 69, 127
1, 13950, Note_on_c, 6, 66, 127
1, 14138, Note_off_c, 6, 66, 127
1, 14138, Note_off_c, 6, 42, 127
1, 14139, Note_on_c, 4, 52, 127
1, 14139, Note_on_c, 10, 69, 127
1, 14329, Note_on_c, 1, 61, 127
1, 14415, Note_off_c, 10, 69, 127
1, 14517, Note_off_c, 1, 61, 127
1, 14517, Note_off_c, 4, 52, 127
1, 14518, Note_on_c, 12, 47, 127
1, 14518, Note_on_c, 3, 63, 127
1, 14706, Note_off_c, 3, 63, 127
1, 14708, Note_on_c, 10, 69, 127
1, 14896, Note_off_c, 10, 69, 127
1, 14896, Note_off_c, 12, 47, 127
1, 14897, Note_on_c, 3, 51, 127
1, 14897, Note_on_c, 12, 59, 127
1, 15085, Note_off_c, 12, 59, 127
1, 15087, Note_on_c, 10, 69, 127
1, 15275, Note_off_c, 10, 69, 127
1, 15275, Note_off_c, 3, 51, 127
1, 15276, Note_on_c, 4, 40, 127
1, 15276, Note_on_c, 7, 67, 127
1, 15371, Note_off_c, 7, 67, 127
1, 15373, Note_on_c, 6, 66, 127
1, 15468, Note_off_c, 6, 66, 127
1, 15470, Note_on_c, 4, 64, 127
1, 15565, Note_off_c, 4, 64, 127
1, 15567, Note_on_c, 6, 66, 127
1, 15654, Note_off_c, 4, 40, 127
1, 15662, Note_off_c, 6, 66, 127
1, 15664, Note_on_c, 4, 52, 127
1, 15664, Note_on_c, 7, 67, 127
1, 15759, Note_off_c, 7, 67, 127
1, 15761, Note_on_c, 10, 69, 127
1, 15856, Note_off_c, 10, 69, 127
1, 15857, Note_on_c, 12, 71, 127
1, 15952, Note_off_c, 12, 71, 127
1, 15954, Note_on_c, 0, 72, 127
1, 16042, Note_off_c, 4, 52, 127
1, 16049, Note_off_c, 0, 72, 127
1, 16051, Note_on_c, 3, 51, 127
1, 16051, Note_on_c, 6, 66, 127
1, 16146, Note_off_c, 6, 66, 127
1, 16148, Note_on_c, 0, 72, 127
1, 16243, Note_off_c, 0, 72, 127
1, 16245, Note_on_c, 12, 71, 127
1, 16340, Note_off_c, 12, 71, 127
1, 16341, Note_on_c, 10, 69, 127
1, 16429, Note_off_c, 3, 51, 127
1, 16436, Note_off_c, 10, 69, 127
1, 16438, Note_on_c, 12, 47, 127
1, 16438, Note_on_c, 3, 75, 127
1, 16533, Note_off_c, 3, 75, 127
1, 16535, Note_on_c, 0, 72, 127
1, 16630, Note_off_c, 0, 72, 127
1, 16632, Note_on_c, 12, 71, 127
1, 16727, Note_off_c, 12, 71, 127
1, 16729, Note_on_c, 10, 69, 127
1, 16816, Note_off_c, 12, 47, 127
1, 16824, Note_off_c, 10, 69, 127
1, 16826, Note_on_c, 4, 52, 127
1, 16826, Note_on_c, 7, 67, 127
1, 16921, Note_off_c, 7, 67, 127
1, 16922, Note_on_c, 12, 71, 127
1, 17017, Note_off_c, 12, 71, 127
1, 17019, Note_on_c, 0, 72, 127
1, 17114, Note_off_c, 0, 72, 127
1, 17116, Note_on_c, 2, 74, 127
1, 17204, Note_off_c, 4, 52, 127
1, 17211, Note_off_c, 2, 74, 127
1, 17213, Note_on_c, 2, 50, 127
1, 17213, Note_on_c, 4, 76, 127
1, 17308, Note_off_c, 4, 76, 127
1, 17310, Note_on_c, 12, 71, 127
1, 17405, Note_off_c, 12, 71, 127
1, 17407, Note_on_c, 10, 69, 127
1, 17502, Note_off_c, 10, 69, 127
1, 17503, Note_on_c, 7, 67, 127
1, 17591, Note_off_c, 2, 50, 127
1, 17598, Note_off_c, 7, 67, 127
1, 17600, Note_on_c, 2, 50, 127
1, 17600, Note_on_c, 10, 69, 127
1, 17681, Note_off_c, 2, 50, 127
1, 17688, Note_on_c, 0, 48, 127
1, 17698, Note_off_c, 10, 69, 127
1, 17700, Note_on_c, 12, 71, 127
1, 17769, Note_off_c, 0, 48, 127
1, 17775, Note_on_c, 2, 50, 127
1, 17799, Note_off_c, 12, 71, 127
1, 17801, Note_on_c, 0, 72, 127
1, 17856, Note_off_c, 2, 50, 127
1, 17864, Note_on_c, 0, 48, 127
1, 17900, Note_off_c, 0, 72, 127
1, 17902, Note_on_c, 12, 71, 127
1, 17945, Note_off_c, 0, 48, 127
1, 17952, Note_on_c, 2, 50, 127
1, 18001, Note_off_c, 12, 71, 127
1, 18003, Note_on_c, 10, 69, 127
1, 18023, Note_on_c, 0, 48, 127
1, 18033, Note_off_c, 2, 50, 127
1, 18101, Note_off_c, 10, 69, 127
1, 18103, Note_on_c, 7, 67, 127
1, 18104, Note_off_c, 0, 48, 127
1, 18111, Note_on_c, 2, 50, 127
1, 18192, Note_off_c, 2, 50, 127
1, 18199, Note_on_c, 0, 48, 127
1, 18202, Note_off_c, 7, 67, 127
1, 18204, Note_on_c, 6, 66, 127
1, 18303, Note_off_c, 6, 66, 127
1, 18305, Note_on_c, 4, 64, 127
1, 18399, Note_off_c, 0, 48, 127
1, 18404, Note_off_c, 4, 64, 127
1, 18414, Note_on_c, 12, 47, 127
1, 18414, Note_on_c, 4, 76, 127
1, 18603, Note_off_c, 12, 47, 127
1, 18603, Note_on_c, 6, 54, 127
1, 18791, Note_off_c, 6, 54, 127
1, 18792, Note_off_c, 4, 76, 127
1, 18793, Note_on_c, 12, 59, 127
1, 18793, Note_on_c, 3, 75, 127
1, 18981, Note_off_c, 12, 59, 127
1, 18982, Note_on_c, 6, 54, 127
1, 19170, Note_off_c, 6, 54, 127
1, 19171, Note_off_c, 3, 75, 127
1, 19172, Note_on_c, 7, 55, 127
1, 19172, Note_on_c, 4, 76, 127
1, 19360, Note_off_c, 7, 55, 127
1, 19361, Note_on_c, 4, 64, 127
1, 19361, Note_on_c, 12, 71, 127
1, 19448, Note_off_c, 4, 76, 127
1, 19549, Note_off_c, 12, 71, 127
1, 19549, Note_off_c, 4, 64, 127
1, 19551, Note_on_c, 6, 54, 127
1, 19551, Note_on_c, 6, 78, 127
1, 19739, Note_off_c, 6, 54, 127
1, 19740, Note_on_c, 2, 62, 127
1, 19740, Note_on_c, 12, 71, 127
1, 19827, Note_off_c, 6, 78, 127
1, 19928, Note_off_c, 12, 71, 127
1, 19928, Note_off_c, 2, 62, 127
1, 19930, Note_on_c, 4, 52, 127
1, 19930, Note_on_c, 7, 79, 127
1, 20118, Note_off_c, 4, 52, 127
1, 20120, Note_on_c, 1, 61, 127
1, 20120, Note_on_c, 11, 70, 127
1, 20304, Note_off_c, 7, 79, 127
1, 20308, Note_off_c, 11, 70, 127
1, 20308, Note_off_c, 1, 61, 127
1, 20309, Note_on_c, 11, 58, 127
1, 20309, Note_on_c, 1, 73, 127
1, 20497, Note_off_c, 1, 73, 127
1, 20497, Note_off_c, 11, 58, 127
1, 20499, Note_on_c, 4, 52, 127
1, 20499, Note_on_c, 7, 79, 127
1, 20687, Note_off_c, 7, 79, 127
1, 20687, Note_off_c, 4, 52, 127
1, 20688, Note_on_c, 6, 54, 127
1, 20688, Note_on_c, 12, 71, 127
1, 20876, Note_off_c, 6, 54, 127
1, 20878, Note_on_c, 2, 62, 127
1, 20878, Note_on_c, 6, 78, 127
1, 20964, Note_off_c, 12, 71, 127
1, 21066, Note_off_c, 6, 78, 127
1, 21066, Note_off_c, 2, 62, 127
1, 21067, Note_on_c, 4, 52, 127
1, 21067, Note_on_c, 11, 70, 127
1, 21255, Note_off_c, 4, 52, 127
1, 21257, Note_on_c, 1, 61, 127
1, 21257, Note_on_c, 6, 78, 127
1, 21343, Note_off_c, 11, 70, 127
1, 21445, Note_off_c, 6, 78, 127
1, 21445, Note_off_c, 1, 61, 127
1, 21446, Note_on_c, 2, 50, 127
1, 21446, Note_on_c, 6, 66, 127
1, 21634, Note_off_c, 6, 66, 127
1, 21636, Note_on_c, 12, 71, 127
1, 21824, Note_off_c, 12, 71, 127
1, 21824, Note_off_c, 2, 50, 127
1, 21825, Note_on_c, 6, 54, 127
1, 21825, Note_on_c, 2, 74, 127
1, 22013, Note_off_c, 2, 74, 127
1, 22015, Note_on_c, 4, 76, 127
1, 22203, Note_off_c, 4, 76, 127
1, 22203, Note_off_c, 6, 54, 127
1, 22204, Note_on_c, 4, 52, 127
1, 22204, Note_on_c, 6, 78, 127
1, 22394, Note_on_c, 11, 70, 127
1, 22578, Note_off_c, 6, 78, 127
1, 22582, Note_off_c, 11, 70, 127
1, 22582, Note_off_c, 4, 52, 127
1, 22583, Note_on_c, 2, 50, 127
1, 22583, Note_on_c, 8, 80, 127
1, 22773, Note_on_c, 12, 71, 127
1, 22957, Note_off_c, 8, 80, 127
1, 22961, Note_off_c, 12, 71, 127
1, 22961, Note_off_c, 2, 50, 127
1, 22962, Note_on_c, 1, 49, 127
1, 22962, Note_on_c, 11, 82, 127
1, 23152, Note_on_c, 1, 73, 127
1, 23340, Note_off_c, 1, 73, 127
1, 23340, Note_off_c, 1, 49, 127
1, 23341, Note_on_c, 7, 55, 127
1, 23341, Note_on_c, 4, 76, 127
1, 23435, Note_off_c, 11, 82, 127
1, 23529, Note_off_c, 4, 76, 127
1, 23531, Note_on_c, 11, 82, 127
1, 23719, Note_off_c, 11, 82, 127
1, 23719, Note_off_c, 7, 55, 127
1, 23720, Note_on_c, 6, 54, 127
1, 23720, Note_on_c, 8, 80, 127
1, 23910, Note_on_c, 12, 71, 127
1, 24094, Note_off_c, 8, 80, 127
1, 24098, Note_off_c, 12, 71, 127
1, 24098, Note_off_c, 6, 54, 127
1, 24099, Note_on_c, 4, 52, 127
1, 24099, Note_on_c, 11, 82, 127
1, 24289, Note_on_c, 1, 73, 127
1, 24434, Note_off_c, 11, 82, 127
1, 24477, Note_off_c, 1, 73, 127
1, 24477, Note_off_c, 4, 52, 127
1, 24478, Note_on_c, 2, 50, 127
1, 24478, Note_on_c, 12, 83, 127
1, 24666, Note_off_c, 2, 50, 127
1, 24668, Note_on_c, 1, 49, 127
1, 24856, Note_off_c, 1, 49, 127
1, 24856, Note_off_c, 12, 83, 127
1, 24858, Note_on_c, 2, 50, 127
1, 24858, Note_on_c, 6, 78, 127
1, 25046, Note_off_c, 2, 50, 127
1, 25047, Note_on_c, 6, 54, 127
1, 25235, Note_off_c, 6, 54, 127
1, 25236, Note_off_c, 6, 78, 127
1, 25237, Note_on_c, 12, 59, 127
1, 25237, Note_on_c, 7, 79, 127
1, 25425, Note_off_c, 12, 59, 127
1, 25426, Note_on_c, 4, 52, 127
1, 25614, Note_off_c, 4, 52, 127
1, 25616, Note_on_c, 7, 55, 127
1, 25616, Note_on_c, 12, 71, 127
1, 25804, Note_off_c, 7, 55, 127
1, 25805, Note_on_c, 2, 50, 127
1, 25994, Note_off_c, 12, 71, 127
1, 25995, Note_on_c, 4, 76, 127
1, 26155, Note_off_c, 2, 50, 127
1, 26184, Note_on_c, 12, 47, 127
1, 26372, Note_off_c, 12, 47, 127
1, 26373, Note_off_c, 4, 76, 127
1, 26374, Note_on_c, 1, 49, 127
1, 26374, Note_on_c, 10, 69, 127
1, 26562, Note_off_c, 1, 49, 127
1, 26563, Note_on_c, 4, 52, 127
1, 26748, Note_off_c, 7, 79, 127
1, 26752, Note_off_c, 4, 52, 127
1, 26753, Note_off_c, 10, 69, 127
1, 26754, Note_on_c, 10, 57, 127
1, 26754, Note_on_c, 6, 78, 127
1, 26942, Note_off_c, 10, 57, 127
1, 26943, Note_on_c, 2, 50, 127
1, 27131, Note_off_c, 2, 50, 127
1, 27133, Note_on_c, 6, 54, 127
1, 27133, Note_on_c, 10, 69, 127
1, 27321, Note_off_c, 6, 54, 127
1, 27322, Note_on_c, 0, 48, 127
1, 27511, Note_off_c, 10, 69, 127
1, 27512, Note_on_c, 2, 74, 127
1, 27677, Note_off_c, 0, 48, 127
1, 27701, Note_on_c, 10, 45, 127
1, 27889, Note_off_c, 10, 45, 127
1, 27890, Note_off_c, 2, 74, 127
1, 27891, Note_on_c, 12, 47, 127
1, 27891, Note_on_c, 7, 67, 127
1, 28079, Note_off_c, 12, 47, 127
1, 28080, Note_on_c, 2, 50, 127
1, 28265, Note_off_c, 6, 78, 127
1, 28269, Note_off_c, 2, 50, 127
1, 28270, Note_off_c, 7, 67, 127
1, 28271, Note_on_c, 7, 55, 127
1, 28271, Note_on_c, 4, 76, 127
1, 28459, Note_off_c, 7, 55, 127
1, 28460, Note_on_c, 4, 52, 127
1, 28648, Note_off_c, 4, 52, 127
1, 28649, Note_off_c, 4, 76, 127
1, 28650, Note_on_c, 7, 55, 127
1, 28650, Note_on_c, 12, 71, 127
1, 28650, Note_on_c, 2, 74, 127
1, 28838, Note_off_c, 7, 55, 127
1, 28840, Note_on_c, 12, 47, 127
1, 29028, Note_off_c, 12, 47, 127
1, 29028, Note_off_c, 2, 74, 127
1, 29029, Note_on_c, 10, 45, 127
1, 29029, Note_on_c, 1, 73, 127
1, 29217, Note_off_c, 10, 45, 127
1, 29219, Note_on_c, 1, 49, 127
1, 29407, Note_off_c, 1, 49, 127
1, 29407, Note_off_c, 12, 71, 127
1, 29408, Note_on_c, 4, 52, 127
1, 29408, Note_on_c, 10, 69, 127
1, 29596, Note_off_c, 4, 52, 127
1, 29596, Note_off_c, 1, 73, 127
1, 29598, Note_on_c, 7, 55, 127
1, 29598, Note_on_c, 1, 73, 127
1, 29782, Note_off_c, 10, 69, 127
1, 29786, Note_off_c, 1, 73, 127
1, 29786, Note_off_c, 7, 55, 127
1, 29787, Note_on_c, 1, 61, 127
1, 29787, Note_on_c, 4, 76, 127
1, 29975, Note_off_c, 1, 61, 127
1, 29977, Note_on_c, 7, 55, 127
1, 30165, Note_off_c, 7, 55, 127
1, 30166, Note_on_c, 4, 64, 127
1, 30166, Note_on_c, 1, 73, 127
1, 30354, Note_off_c, 4, 64, 127
1, 30356, Note_on_c, 7, 55, 127
1, 30544, Note_off_c, 7, 55, 127
1, 30544, Note_off_c, 1, 73, 127
1, 30545, Note_on_c, 6, 54, 127
1, 30545, Note_on_c, 10, 69, 127
1, 30733, Note_off_c, 6, 54, 127
1, 30735, Note_on_c, 2, 50, 127
1, 30872, Note_off_c, 4, 76, 127
1, 30923, Note_off_c, 2, 50, 127
1, 30923, Note_off_c, 10, 69, 127
1, 30924, Note_on_c, 6, 54, 127
1, 30924, Note_on_c, 2, 74, 127
1, 30924, Note_on_c, 6, 66, 127
1, 31112, Note_off_c, 2, 74, 127
1, 31112, Note_off_c, 6, 54, 127
1, 31114, Note_on_c, 11, 46, 127
1, 31114, Note_on_c, 1, 73, 127
1, 31298, Note_off_c, 6, 66, 127
1, 31302, Note_off_c, 1, 73, 127
1, 31302, Note_off_c, 11, 46, 127
1, 31303, Note_on_c, 12, 47, 127
1, 31303, Note_on_c, 2, 74, 127
1, 31491, Note_off_c, 12, 47, 127
1, 31493, Note_on_c, 6, 54, 127
1, 31681, Note_off_c, 6, 54, 127
1, 31682, Note_on_c, 7, 43, 127
1, 31682, Note_on_c, 12, 71, 127
1, 31870, Note_off_c, 7, 43, 127
1, 31872, Note_on_c, 6, 54, 127
1, 32060, Note_off_c, 6, 54, 127
1, 32060, Note_off_c, 12, 71, 127
1, 32061, Note_on_c, 4, 52, 127
1, 32061, Note_on_c, 7, 67, 127
1, 32249, Note_off_c, 4, 52, 127
1, 32251, Note_on_c, 1, 49, 127
1, 32438, Note_off_c, 2, 74, 127
1, 32439, Note_off_c, 1, 49, 127
1, 32439, Note_off_c, 7, 67, 127
1, 32440, Note_on_c, 4, 52, 127
1, 32440, Note_on_c, 1, 73, 127
1, 32440, Note_on_c, 4, 64, 127
1, 32628, Note_off_c, 1, 73, 127
1, 32628, Note_off_c, 4, 52, 127
1, 32630, Note_on_c, 8, 44, 127
1, 32630, Note_on_c, 12, 71, 127
1, 32814, Note_off_c, 4, 64, 127
1, 32818, Note_off_c, 12, 71, 127
1, 32818, Note_off_c, 8, 44, 127
1, 32819, Note_on_c, 11, 46, 127
1, 32819, Note_on_c, 1, 73, 127
1, 33007, Note_off_c, 11, 46, 127
1, 33009, Note_on_c, 4, 52, 127
1, 33197, Note_off_c, 4, 52, 127
1, 33198, Note_on_c, 6, 42, 127
1, 33198, Note_on_c, 11, 70, 127
1, 33386, Note_off_c, 6, 42, 127
1, 33388, Note_on_c, 4, 52, 127
1, 33576, Note_off_c, 4, 52, 127
1, 33576, Note_off_c, 11, 70, 127
1, 33578, Note_on_c, 2, 50, 127
1, 33578, Note_on_c, 6, 66, 127
1, 33673, Note_off_c, 2, 50, 127
1, 33674, Note_on_c, 1, 49, 127
1, 33769, Note_off_c, 1, 49, 127
1, 33771, Note_on_c, 12, 47, 127
1, 33866, Note_off_c, 12, 47, 127
1, 33868, Note_on_c, 1, 49, 127
1, 33962, Note_off_c, 1, 73, 127
1, 33963, Note_off_c, 1, 49, 127
1, 33965, Note_on_c, 2, 50, 127
1, 33965, Note_on_c, 12, 71, 127
1, 34060, Note_off_c, 2, 50, 127
1, 34062, Note_on_c, 4, 52, 127
1, 34146, Note_off_c, 12, 71, 127
1, 34157, Note_off_c, 4, 52, 127
1, 34158, Note_on_c, 6, 54, 127
1, 34158, Note_on_c, 10, 69, 127
1, 34253, Note_off_c, 6, 54, 127
1, 34255, Note_on_c, 7, 55, 127
1, 34334, Note_off_c, 6, 66, 127
1, 34339, Note_off_c, 10, 69, 127
1, 34350, Note_off_c, 7, 55, 127
1, 34352, Note_on_c, 10, 57, 127
1, 34352, Note_on_c, 6, 78, 127
1, 34447, Note_off_c, 10, 57, 127
1, 34449, Note_on_c, 6, 54, 127
1, 34544, Note_off_c, 6, 54, 127
1, 34546, Note_on_c, 7, 55, 127
1, 34641, Note_off_c, 7, 55, 127
1, 34643, Note_on_c, 10, 57, 127
1, 34714, Note_off_c, 6, 78, 127
1, 34737, Note_off_c, 10, 57, 127
1, 34738, Note_on_c, 3, 51, 127
1, 34738, Note_on_c, 10, 69, 127
1, 34738, Note_on_c, 12, 59, 127
1, 34738, Note_on_c, 3, 63, 127
1, 34738, Note_on_c, 6, 66, 127
1, 34833, Note_off_c, 3, 51, 127
1, 34835, Note_on_c, 10, 57, 127
1, 34930, Note_off_c, 10, 57, 127
1, 34932, Note_on_c, 7, 55, 127
1, 35027, Note_off_c, 7, 55, 127
1, 35029, Note_on_c, 6, 54, 127
1, 35124, Note_off_c, 6, 54, 127
1, 35124, Note_off_c, 6, 66, 127
1, 35124, Note_off_c, 3, 63, 127
1, 35124, Note_off_c, 12, 59, 127
1, 35124, Note_off_c, 10, 69, 127
1, 35126, Note_on_c, 4, 52, 127
1, 35126, Note_on_c, 7, 67, 127
1, 35126, Note_on_c, 4, 64, 127
1, 35126, Note_on_c, 12, 59, 127
1, 35221, Note_off_c, 12, 59, 127
1, 35221, Note_off_c, 4, 64, 127
1, 35221, Note_off_c, 7, 67, 127
1, 35222, Note_on_c, 6, 66, 127
1, 35317, Note_off_c, 6, 66, 127
1, 35319, Note_on_c, 4, 64, 127
1, 35414, Note_off_c, 4, 64, 127
1, 35416, Note_on_c, 6, 66, 127
1, 35498, Note_off_c, 4, 52, 127
1, 35511, Note_off_c, 6, 66, 127
1, 35513, Note_on_c, 12, 59, 127
1, 35513, Note_on_c, 7, 67, 127
1, 35608, Note_off_c, 7, 67, 127
1, 35610, Note_on_c, 10, 69, 127
1, 35705, Note_off_c, 10, 69, 127
1, 35707, Note_on_c, 12, 71, 127
1, 35802, Note_off_c, 12, 71, 127
1, 35803, Note_on_c, 1, 73, 127
1, 35885, Note_off_c, 12, 59, 127
1, 35898, Note_off_c, 1, 73, 127
1, 35900, Note_on_c, 8, 56, 127
1, 35900, Note_on_c, 2, 74, 127
1, 35995, Note_off_c, 2, 74, 127
1, 35997, Note_on_c, 12, 71, 127
1, 36092, Note_off_c, 12, 71, 127
1, 36094, Note_on_c, 1, 73, 127
1, 36189, Note_off_c, 1, 73, 127
1, 36191, Note_on_c, 2, 74, 127
1, 36272, Note_off_c, 8, 56, 127
1, 36286, Note_off_c, 2, 74, 127
1, 36287, Note_on_c, 4, 52, 127
1, 36287, Note_on_c, 8, 68, 127
1, 36382, Note_off_c, 8, 68, 127
1, 36384, Note_on_c, 2, 74, 127
1, 36479, Note_off_c, 2, 74, 127
1, 36481, Note_on_c, 1, 73, 127
1, 36576, Note_off_c, 1, 73, 127
1, 36578, Note_on_c, 12, 71, 127
1, 36659, Note_off_c, 4, 52, 127
1, 36673, Note_off_c, 12, 71, 127
1, 36675, Note_on_c, 10, 57, 127
1, 36675, Note_on_c, 1, 73, 127
1, 36770, Note_off_c, 1, 73, 127
1, 36772, Note_on_c, 12, 71, 127
1, 36867, Note_off_c, 12, 71, 127
1, 36868, Note_on_c, 10, 69, 127
1, 36963, Note_off_c, 10, 69, 127
1, 36965, Note_on_c, 12, 71, 127
1, 37047, Note_off_c, 10, 57, 127
1, 37060, Note_off_c, 12, 71, 127
1, 37062, Note_on_c, 4, 52, 127
1, 37062, Note_on_c, 1, 73, 127
1, 37157, Note_off_c, 1, 73, 127
1, 37159, Note_on_c, 2, 74, 127
1, 37254, Note_off_c, 2, 74, 127
1, 37256, Note_on_c, 4, 76, 127
1, 37351, Note_off_c, 4, 76, 127
1, 37352, Note_on_c, 6, 78, 127
1, 37434, Note_off_c, 4, 52, 127
1, 37447, Note_off_c, 6, 78, 127
1, 37449, Note_on_c, 1, 49, 127
1, 37449, Note_on_c, 7, 79, 127
1, 37544, Note_off_c, 7, 79, 127
1, 37546, Note_on_c, 4, 76, 127
1, 37641, Note_off_c, 4, 76, 127
1, 37643, Note_on_c, 6, 78, 127
1, 37738, Note_off_c, 6, 78, 127
1, 37740, Note_on_c, 7, 79, 127
1, 37821, Note_off_c, 1, 49, 127
1, 37835, Note_off_c, 7, 79, 127
1, 37837, Note_on_c, 10, 45, 127
1, 37837, Note_on_c, 1, 73, 127
1, 37932, Note_off_c, 1, 73, 127
1, 37933, Note_on_c, 7, 79, 127
1, 38028, Note_off_c, 7, 79, 127
1, 38030, Note_on_c, 6, 78, 127
1, 38125, Note_off_c, 6, 78, 127
1, 38127, Note_on_c, 4, 76, 127
1, 38209, Note_off_c, 10, 45, 127
1, 38222, Note_off_c, 4, 76, 127
1, 38224, Note_on_c, 2, 50, 127
1, 38224, Note_on_c, 6, 78, 127
1, 38319, Note_off_c, 2, 50, 127
1, 38321, Note_on_c, 1, 49, 127
1, 38416, Note_off_c, 1, 49, 127
1, 38417, Note_on_c, 2, 50, 127
1, 38512, Note_off_c, 2, 50, 127
1, 38514, Note_on_c, 4, 52, 127
1, 38576, Note_off_c, 6, 78, 127
1, 38608, Note_off_c, 4, 52, 127
1, 38610, Note_on_c, 6, 54, 127
1, 38610, Note_on_c, 10, 81, 127
1, 38705, Note_off_c, 6, 54, 127
1, 38707, Note_on_c, 7, 55, 127
1, 38802, Note_off_c, 7, 55, 127
1, 38804, Note_on_c, 10, 57, 127
1, 38899, Note_off_c, 10, 57, 127
1, 38901, Note_on_c, 12, 59, 127
1, 38962, Note_off_c, 10, 81, 127
1, 38995, Note_off_c, 12, 59, 127
1, 38996, Note_on_c, 0, 60, 127
1, 38996, Note_on_c, 6, 78, 127
1, 39091, Note_off_c, 0, 60, 127
1, 39093, Note_on_c, 10, 57, 127
1, 39188, Note_off_c, 10, 57, 127
1, 39190, Note_on_c, 12, 59, 127
1, 39285, Note_off_c, 12, 59, 127
1, 39287, Note_on_c, 0, 60, 127
1, 39348, Note_off_c, 6, 78, 127
1, 39381, Note_off_c, 0, 60, 127
1, 39383, Note_on_c, 6, 54, 127
1, 39383, Note_on_c, 2, 74, 127
1, 39478, Note_off_c, 6, 54, 127
1, 39479, Note_on_c, 0, 60, 127
1, 39574, Note_off_c, 0, 60, 127
1, 39576, Note_on_c, 12, 59, 127
1, 39671, Note_off_c, 12, 59, 127
1, 39673, Note_on_c, 10, 57, 127
1, 39735, Note_off_c, 2, 74, 127
1, 39767, Note_off_c, 10, 57, 127
1, 39769, Note_on_c, 12, 59, 127
1, 39769, Note_on_c, 7, 79, 127
1, 39960, Note_on_c, 12, 83, 127
1, 40007, Note_off_c, 7, 79, 127
1, 40147, Note_off_c, 12, 59, 127
1, 40149, Note_off_c, 12, 83, 127
1, 40151, Note_on_c, 7, 79, 127
1, 40341, Note_off_c, 7, 79, 127
1, 40343, Note_on_c, 2, 74, 127
1, 40533, Note_off_c, 2, 74, 127
1, 40534, Note_on_c, 0, 60, 127
1, 40534, Note_on_c, 4, 76, 127
1, 40726, Note_on_c, 0, 84, 127
1, 40813, Note_off_c, 4, 76, 127
1, 40916, Note_off_c, 0, 84, 127
1, 40916, Note_off_c, 0, 60, 127
1, 40917, Note_on_c, 7, 55, 127
1, 40917, Note_on_c, 2, 74, 127
1, 41109, Note_on_c, 12, 83, 127
1, 41196, Note_off_c, 2, 74, 127
1, 41299, Note_off_c, 12, 83, 127
1, 41299, Note_off_c, 7, 55, 127
1, 41300, Note_on_c, 10, 57, 127
1, 41300, Note_on_c, 0, 72, 127
1, 41490, Note_on_c, 10, 81, 127
1, 41678, Note_off_c, 10, 81, 127
1, 41678, Note_off_c, 10, 57, 127
1, 41679, Note_on_c, 2, 50, 127
1, 41679, Note_on_c, 6, 78, 127
1, 41773, Note_off_c, 0, 72, 127
1, 41867, Note_off_c, 6, 78, 127
1, 41869, Note_on_c, 0, 72, 127
1, 42057, Note_off_c, 0, 72, 127
1, 42057, Note_off_c, 2, 50, 127
1, 42059, Note_on_c, 12, 47, 127
1, 42059, Note_on_c, 2, 74, 127
1, 42248, Note_on_c, 12, 83, 127
1, 42335, Note_off_c, 2, 74, 127
1, 42436, Note_off_c, 12, 83, 127
1, 42437, Note_off_c, 12, 47, 127
1, 42438, Note_on_c, 2, 50, 127
1, 42438, Note_on_c, 0, 72, 127
1, 42627, Note_on_c, 10, 81, 127
1, 42714, Note_off_c, 0, 72, 127
1, 42815, Note_off_c, 10, 81, 127
1, 42816, Note_off_c, 2, 50, 127
1, 42817, Note_on_c, 7, 43, 127
1, 42817, Note_on_c, 12, 71, 127
1, 43005, Note_off_c, 7, 43, 127
1, 43006, Note_on_c, 12, 59, 127
1, 43006, Note_on_c, 7, 79, 127
1, 43191, Note_off_c, 12, 71, 127
1, 43194, Note_off_c, 7, 79, 127
1, 43194, Note_off_c, 12, 59, 127
1, 43196, Note_on_c, 7, 55, 127
1, 43196, Note_on_c, 4, 76, 127
1, 43384, Note_off_c, 4, 76, 127
1, 43384, Note_off_c, 7, 55, 127
1, 43385, Note_on_c, 2, 50, 127
1, 43385, Note_on_c, 12, 71, 127
1, 43573, Note_off_c, 12, 71, 127
1, 43573, Note_off_c, 2, 50, 127
1, 43575, Note_on_c, 4, 52, 127
1, 43575, Note_on_c, 0, 72, 127
1, 43763, Note_off_c, 4, 52, 127
1, 43764, Note_on_c, 0, 60, 127
1, 43764, Note_on_c, 10, 81, 127
1, 43851, Note_off_c, 0, 72, 127
1, 43952, Note_off_c, 10, 81, 127
1, 43952, Note_off_c, 0, 60, 127
1, 43954, Note_on_c, 2, 50, 127
1, 43954, Note_on_c, 12, 71, 127
1, 44142, Note_off_c, 2, 50, 127
1, 44143, Note_on_c, 12, 59, 127
1, 44143, Note_on_c, 7, 79, 127
1, 44230, Note_off_c, 12, 71, 127
1, 44331, Note_off_c, 7, 79, 127
1, 44331, Note_off_c, 12, 59, 127
1, 44333, Note_on_c, 0, 48, 127
1, 44333, Note_on_c, 10, 69, 127
1, 44521, Note_off_c, 0, 48, 127
1, 44522, Note_on_c, 10, 57, 127
1, 44522, Note_on_c, 6, 78, 127
1, 44609, Note_off_c, 10, 69, 127
1, 44710, Note_off_c, 6, 78, 127
1, 44710, Note_off_c, 10, 57, 127
1, 44712, Note_on_c, 6, 54, 127
1, 44712, Note_on_c, 2, 74, 127
1, 44900, Note_off_c, 2, 74, 127
1, 44900, Note_off_c, 6, 54, 127
1, 44901, Note_on_c, 0, 48, 127
1, 44901, Note_on_c, 10, 69, 127
1, 45089, Note_off_c, 10, 69, 127
1, 45089, Note_off_c, 0, 48, 127
1, 45091, Note_on_c, 2, 50, 127
1, 45091, Note_on_c, 12, 71, 127
1, 45279, Note_off_c, 12, 71, 127
1, 45279, Note_off_c, 2, 50, 127
1, 45280, Note_on_c, 12, 59, 127
1, 45280, Note_on_c, 7, 79, 127
1, 45468, Note_off_c, 12, 59, 127
1, 45470, Note_on_c, 0, 48, 127
1, 45470, Note_on_c, 10, 69, 127
1, 45556, Note_off_c, 7, 79, 127
1, 45658, Note_off_c, 10, 69, 127
1, 45658, Note_off_c, 0, 48, 127
1, 45659, Note_on_c, 10, 57, 127
1, 45659, Note_on_c, 6, 78, 127
1, 45847, Note_off_c, 6, 78, 127
1, 45847, Note_off_c, 10, 57, 127
1, 45849, Note_on_c, 12, 47, 127
1, 45849, Note_on_c, 7, 67, 127
1, 46037, Note_off_c, 12, 47, 127
1, 46038, Note_on_c, 4, 52, 127
1, 46204, Note_off_c, 7, 67, 127
1, 46226, Note_off_c, 4, 52, 127
1, 46228, Note_on_c, 7, 55, 127
1, 46228, Note_on_c, 4, 76, 127
1, 46228, Note_on_c, 7, 79, 127
1, 46416, Note_off_c, 7, 55, 127
1, 46417, Note_on_c, 0, 60, 127
1, 46605, Note_off_c, 0, 60, 127
1, 46606, Note_off_c, 7, 79, 127
1, 46606, Note_off_c, 4, 76, 127
1, 46607, Note_on_c, 12, 59, 127
1, 46607, Note_on_c, 6, 78, 127
1, 46607, Note_on_c, 10, 81, 127
1, 46795, Note_off_c, 12, 59, 127
1, 46797, Note_on_c, 3, 51, 127
1, 46985, Note_off_c, 3, 51, 127
1, 46985, Note_off_c, 10, 81, 127
1, 46985, Note_off_c, 6, 78, 127
1, 46986, Note_on_c, 1, 61, 127
1, 46986, Note_on_c, 4, 76, 127
1, 46986, Note_on_c, 7, 79, 127
1, 47174, Note_off_c, 1, 61, 127
1, 47176, Note_on_c, 4, 52, 127
1, 47364, Note_off_c, 4, 52, 127
1, 47364, Note_off_c, 7, 79, 127
1, 47364, Note_off_c, 4, 76, 127
1, 47365, Note_on_c, 3, 63, 127
1, 47365, Note_on_c, 10, 69, 127
1, 47365, Note_on_c, 6, 78, 127
1, 47553, Note_off_c, 3, 63, 127
1, 47555, Note_on_c, 6, 54, 127
1, 47743, Note_off_c, 6, 54, 127
1, 47744, Note_on_c, 10, 57, 127
1, 47932, Note_off_c, 10, 57, 127
1, 47934, Note_on_c, 3, 63, 127
1, 48034, Note_off_c, 6, 78, 127
1, 48034, Note_off_c, 10, 69, 127
1, 48122, Note_off_c, 3, 63, 127
1, 48123, Note_on_c, 1, 61, 127
1, 48123, Note_on_c, 7, 79, 127
1, 48123, Note_on_c, 12, 71, 127
1, 48311, Note_off_c, 1, 61, 127
1, 48313, Note_on_c, 4, 52, 127
1, 48501, Note_off_c, 4, 52, 127
1, 48501, Note_off_c, 12, 71, 127
1, 48501, Note_off_c, 7, 79, 127
1, 48502, Note_on_c, 3, 63, 127
1, 48502, Note_on_c, 6, 78, 127
1, 48502, Note_on_c, 10, 69, 127
1, 48690, Note_off_c, 3, 63, 127
1, 48692, Note_on_c, 6, 54, 127
1, 48880, Note_off_c, 6, 54, 127
1, 48880, Note_off_c, 10, 69, 127
1, 48880, Note_off_c, 6, 78, 127
1, 48881, Note_on_c, 4, 64, 127
1, 48881, Note_on_c, 4, 76, 127
1, 48881, Note_on_c, 7, 67, 127
1, 49069, Note_off_c, 7, 67, 127
1, 49069, Note_off_c, 4, 64, 127
1, 49071, Note_on_c, 7, 55, 127
1, 49071, Note_on_c, 4, 64, 127
1, 49255, Note_off_c, 4, 76, 127
1, 49259, Note_off_c, 4, 64, 127
1, 49259, Note_off_c, 7, 55, 127
1, 49260, Note_on_c, 12, 59, 127
1, 49260, Note_on_c, 7, 67, 127
1, 49448, Note_off_c, 7, 67, 127
1, 49448, Note_off_c, 12, 59, 127
1, 49450, Note_on_c, 4, 64, 127
1, 49450, Note_on_c, 0, 72, 127
1, 49638, Note_off_c, 0, 72, 127
1, 49638, Note_off_c, 4, 64, 127
1, 49639, Note_on_c, 3, 63, 127
1, 49639, Note_on_c, 12, 71, 127
1, 49827, Note_off_c, 3, 63, 127
1, 49829, Note_on_c, 6, 54, 127
1, 49829, Note_on_c, 3, 63, 127
1, 49915, Note_off_c, 12, 71, 127
1, 50017, Note_off_c, 3, 63, 127
1, 50017, Note_off_c, 6, 54, 127
1, 50018, Note_on_c, 4, 64, 127
1, 50018, Note_on_c, 1, 73, 127
1, 50206, Note_off_c, 4, 64, 127
1, 50208, Note_on_c, 7, 55, 127
1, 50208, Note_on_c, 4, 64, 127
1, 50294, Note_off_c, 1, 73, 127
1, 50396, Note_off_c, 4, 64, 127
1, 50396, Note_off_c, 7, 55, 127
1, 50397, Note_on_c, 6, 66, 127
1, 50397, Note_on_c, 3, 75, 127
1, 50585, Note_off_c, 6, 66, 127
1, 50587, Note_on_c, 10, 57, 127
1, 50587, Note_on_c, 6, 66, 127
1, 50771, Note_off_c, 3, 75, 127
1, 50775, Note_off_c, 6, 66, 127
1, 50775, Note_off_c, 10, 57, 127
1, 50776, Note_on_c, 3, 63, 127
1, 50776, Note_on_c, 10, 69, 127
1, 50964, Note_off_c, 10, 69, 127
1, 50964, Note_off_c, 3, 63, 127
1, 50966, Note_on_c, 6, 66, 127
1, 50966, Note_on_c, 3, 75, 127
1, 51154, Note_off_c, 3, 75, 127
1, 51154, Note_off_c, 6, 66, 127
1, 51155, Note_on_c, 4, 64, 127
1, 51155, Note_on_c, 1, 73, 127
1, 51343, Note_off_c, 4, 64, 127
1, 51345, Note_on_c, 7, 55, 127
1, 51345, Note_on_c, 4, 64, 127
1, 51431, Note_off_c, 1, 73, 127
1, 51533, Note_off_c, 4, 64, 127
1, 51533, Note_off_c, 7, 55, 127
1, 51543, Note_on_c, 6, 66, 127
1, 51543, Note_on_c, 3, 75, 127
1, 51731, Note_off_c, 6, 66, 127
1, 51741, Note_on_c, 10, 57, 127
1, 51741, Note_on_c, 6, 66, 127
1, 51843, Note_off_c, 3, 75, 127
1, 51929, Note_off_c, 6, 66, 127
1, 51929, Note_off_c, 10, 57, 127
1, 51932, Note_on_c, 4, 76, 127
1, 51932, Note_on_c, 7, 67, 127
1, 52056, Note_on_c, 2, 74, 127
1, 52065, Note_off_c, 4, 76, 127
1, 52163, Note_off_c, 2, 74, 127
1, 52163, Note_on_c, 0, 72, 127
1, 52261, Note_off_c, 0, 72, 127
1, 52263, Note_on_c, 12, 71, 127
1, 52330, Note_off_c, 7, 67, 127
1, 52361, Note_off_c, 12, 71, 127
1, 52363, Note_on_c, 10, 57, 127
1, 52363, Note_on_c, 10, 69, 127
1, 52461, Note_off_c, 10, 69, 127
1, 52463, Note_on_c, 7, 67, 127
1, 52561, Note_off_c, 7, 67, 127
1, 52562, Note_on_c, 6, 66, 127
1, 52660, Note_off_c, 6, 66, 127
1, 52662, Note_on_c, 4, 64, 127
1, 52760, Note_off_c, 4, 64, 127
1, 52761, Note_off_c, 10, 57, 127
1, 52762, Note_on_c, 12, 59, 127
1, 52762, Note_on_c, 3, 63, 127
1, 52860, Note_off_c, 3, 63, 127
1, 52862, Note_on_c, 1, 61, 127
1, 52959, Note_off_c, 12, 59, 127
1, 52960, Note_off_c, 1, 61, 127
1, 52962, Note_on_c, 12, 59, 127
1, 53060, Note_off_c, 12, 59, 127
1, 53062, Note_on_c, 10, 57, 127
1, 53160, Note_off_c, 10, 57, 127
1, 53162, Note_on_c, 12, 47, 127
1, 53162, Note_on_c, 7, 55, 127
1, 53260, Note_off_c, 7, 55, 127
1, 53262, Note_on_c, 6, 54, 127
1, 53360, Note_off_c, 6, 54, 127
1, 53362, Note_on_c, 4, 52, 127
1, 53460, Note_off_c, 4, 52, 127
1, 53462, Note_on_c, 3, 51, 127
1, 53557, Note_off_c, 12, 47, 127
1, 53560, Note_off_c, 3, 51, 127
1, 53562, Note_on_c, 4, 52, 127
1, 53893, Note_on_c, 2, 50, 127
1, 53895, Note_off_c, 4, 52, 127
1, 53991, Note_off_c, 2, 50, 127
1, 53993, Note_on_c, 0, 48, 127
1, 54091, Note_off_c, 0, 48, 127
1, 54093, Note_on_c, 12, 47, 127
1, 54191, Note_off_c, 12, 47, 127
1, 54197, Note_on_c, 10, 45, 127
1, 54295, Note_off_c, 10, 45, 127
1, 54301, Note_on_c, 7, 43, 127
1, 54399, Note_off_c, 7, 43, 127
1, 54405, Note_on_c, 6, 42, 127
1, 54512, Note_off_c, 6, 42, 127
1, 54531, Note_on_c, 4, 40, 127
1, 55870, Note_off_c, 4, 40, 127
1, 55957, Note_on_c, 4, 64, 127
1, 56155, Note_off_c, 4, 64, 127
1, 56157, Note_on_c, 3, 63, 127
1, 56355, Note_off_c, 3, 63, 127
1, 56357, Note_on_c, 4, 64, 127
1, 56555, Note_off_c, 4, 64, 127
1, 56557, Note_on_c, 12, 59, 127
1, 56755, Note_off_c, 12, 59, 127
1, 56757, Note_on_c, 6, 66, 127
1, 56955, Note_off_c, 6, 66, 127
1, 56956, Note_on_c, 12, 59, 127
1, 57154, Note_off_c, 12, 59, 127
1, 57156, Note_on_c, 7, 67, 127
1, 57753, Note_off_c, 7, 67, 127
1, 58353, Note_on_c, 6, 66, 127
1, 58551, Note_off_c, 6, 66, 127
1, 58553, Note_on_c, 4, 64, 127
1, 58751, Note_off_c, 4, 64, 127
1, 58753, Note_on_c, 6, 66, 127
1, 58951, Note_off_c, 6, 66, 127
1, 58953, Note_on_c, 12, 59, 127
1, 59151, Note_off_c, 12, 59, 127
1, 59152, Note_on_c, 7, 67, 127
1, 59350, Note_off_c, 7, 67, 127
1, 59352, Note_on_c, 12, 59, 127
1, 59550, Note_off_c, 12, 59, 127
1, 59552, Note_on_c, 10, 69, 127
1, 60348, Note_off_c, 10, 69, 127
1, 60748, Note_on_c, 7, 67, 127
1, 60946, Note_off_c, 7, 67, 127
1, 60948, Note_on_c, 6, 66, 127
1, 61146, Note_off_c, 6, 66, 127
1, 61148, Note_on_c, 7, 67, 127
1, 61346, Note_off_c, 7, 67, 127
1, 61347, Note_on_c, 4, 64, 127
1, 61545, Note_off_c, 4, 64, 127
1, 61547, Note_on_c, 10, 69, 127
1, 61745, Note_off_c, 10, 69, 127
1, 61747, Note_on_c, 6, 66, 127
1, 61945, Note_off_c, 6, 66, 127
1, 61947, Note_on_c, 12, 71, 127
1, 62145, Note_off_c, 12, 71, 127
1, 62147, Note_on_c, 7, 67, 127
1, 62345, Note_off_c, 7, 67, 127
1, 62346, Note_on_c, 12, 71, 127
1, 62544, Note_off_c, 12, 71, 127
1, 62546, Note_on_c, 6, 66, 127
1, 62744, Note_off_c, 6, 66, 127
1, 62746, Note_on_c, 4, 64, 127
1, 62944, Note_off_c, 4, 64, 127
1, 62946, Note_on_c, 0, 72, 127
1, 63144, Note_off_c, 0, 72, 127
1, 63146, Note_on_c, 10, 69, 127
1, 63344, Note_off_c, 10, 69, 127
1, 63346, Note_on_c, 6, 66, 127
1, 63544, Note_off_c, 6, 66, 127
1, 63545, Note_on_c, 10, 69, 127
1, 63743, Note_off_c, 10, 69, 127
1, 63745, Note_on_c, 4, 64, 127
1, 63943, Note_off_c, 4, 64, 127
1, 63945, Note_on_c, 3, 63, 127
1, 64143, Note_off_c, 3, 63, 127
1, 64145, Note_on_c, 12, 71, 127
1, 64343, Note_off_c, 12, 71, 127
1, 64345, Note_on_c, 7, 67, 127
1, 64543, Note_off_c, 7, 67, 127
1, 64544, Note_on_c, 4, 64, 127
1, 64742, Note_off_c, 4, 64, 127
1, 64744, Note_on_c, 10, 69, 127
1, 64942, Note_off_c, 10, 69, 127
1, 64944, Note_on_c, 7, 67, 127
1, 65142, Note_off_c, 7, 67, 127
1, 65144, Note_on_c, 6, 66, 127
1, 65342, Note_off_c, 6, 66, 127
1, 65344, Note_on_c, 4, 64, 127
1, 65542, Note_off_c, 4, 64, 127
1, 65544, Note_on_c, 3, 63, 127
1, 65742, Note_off_c, 3, 63, 127
1, 65743, Note_on_c, 4, 64, 127
1, 65941, Note_off_c, 4, 64, 127
1, 65943, Note_on_c, 6, 66, 127
1, 66141, Note_off_c, 6, 66, 127
1, 66143, Note_on_c, 3, 63, 127
1, 66341, Note_off_c, 3, 63, 127
1, 66343, Note_on_c, 12, 59, 127
1, 66541, Note_off_c, 12, 59, 127
1, 66543, Note_on_c, 10, 57, 127
1, 66741, Note_off_c, 10, 57, 127
1, 66742, Note_on_c, 7, 55, 127
1, 66742, Note_on_c, 12, 71, 127
1, 66940, Note_off_c, 12, 71, 127
1, 66942, Note_on_c, 11, 70, 127
1, 67123, Note_off_c, 7, 55, 127
1, 67140, Note_off_c, 11, 70, 127
1, 67142, Note_on_c, 8, 56, 127
1, 67142, Note_on_c, 12, 71, 127
1, 67340, Note_off_c, 12, 71, 127
1, 67342, Note_on_c, 4, 64, 127
1, 67523, Note_off_c, 8, 56, 127
1, 67540, Note_off_c, 4, 64, 127
1, 67542, Note_on_c, 11, 58, 127
1, 67542, Note_on_c, 1, 73, 127
1, 67740, Note_off_c, 1, 73, 127
1, 67742, Note_on_c, 4, 64, 127
1, 67923, Note_off_c, 11, 58, 127
1, 67940, Note_off_c, 4, 64, 127
1, 67941, Note_on_c, 12, 59, 127
1, 67941, Note_on_c, 2, 74, 127
1, 68139, Note_off_c, 12, 59, 127
1, 68141, Note_on_c, 1, 61, 127
1, 68239, Note_off_c, 1, 61, 127
1, 68241, Note_on_c, 2, 62, 127
1, 68339, Note_off_c, 2, 62, 127
1, 68341, Note_on_c, 4, 64, 127
1, 68439, Note_off_c, 4, 64, 127
1, 68440, Note_off_c, 2, 74, 127
1, 68441, Note_on_c, 2, 62, 127
1, 68539, Note_off_c, 2, 62, 127
1, 68541, Note_on_c, 1, 61, 127
1, 68639, Note_off_c, 1, 61, 127
1, 68641, Note_on_c, 12, 59, 127
1, 68739, Note_off_c, 12, 59, 127
1, 68741, Note_on_c, 4, 64, 127
1, 68839, Note_off_c, 4, 64, 127
1, 68841, Note_on_c, 2, 62, 127
1, 68939, Note_off_c, 2, 62, 127
1, 68940, Note_on_c, 1, 61, 127
1, 69038, Note_off_c, 1, 61, 127
1, 69040, Note_on_c, 12, 59, 127
1, 69138, Note_off_c, 12, 59, 127
1, 69140, Note_on_c, 7, 67, 127
1, 69140, Note_on_c, 1, 73, 127
1, 69338, Note_off_c, 1, 73, 127
1, 69340, Note_on_c, 12, 71, 127
1, 69538, Note_off_c, 12, 71, 127
1, 69538, Note_off_c, 7, 67, 127
1, 69540, Note_on_c, 11, 58, 127
1, 69540, Note_on_c, 1, 73, 127
1, 69738, Note_off_c, 1, 73, 127
1, 69740, Note_on_c, 6, 66, 127
1, 69938, Note_off_c, 6, 66, 127
1, 69938, Note_off_c, 11, 58, 127
1, 69940, Note_on_c, 12, 59, 127
1, 69940, Note_on_c, 2, 74, 127
1, 70138, Note_off_c, 2, 74, 127
1, 70139, Note_on_c, 6, 66, 127
1, 70337, Note_off_c, 6, 66, 127
1, 70338, Note_off_c, 12, 59, 127
1, 70339, Note_on_c, 1, 61, 127
1, 70339, Note_on_c, 4, 76, 127
1, 70537, Note_off_c, 1, 61, 127
1, 70539, Note_on_c, 2, 62, 127
1, 70637, Note_off_c, 2, 62, 127
1, 70639, Note_on_c, 4, 64, 127
1, 70737, Note_off_c, 4, 64, 127
1, 70739, Note_on_c, 6, 66, 127
1, 70837, Note_off_c, 6, 66, 127
1, 70839, Note_on_c, 4, 64, 127
1, 70937, Note_off_c, 4, 64, 127
1, 70937, Note_off_c, 4, 76, 127
1, 70939, Note_on_c, 2, 62, 127
1, 71037, Note_off_c, 2, 62, 127
1, 71039, Note_on_c, 1, 61, 127
1, 71137, Note_off_c, 1, 61, 127
1, 71139, Note_on_c, 6, 66, 127
1, 71237, Note_off_c, 6, 66, 127
1, 71238, Note_on_c, 4, 64, 127
1, 71336, Note_off_c, 4, 64, 127
1, 71338, Note_on_c, 2, 62, 127
1, 71436, Note_off_c, 2, 62, 127
1, 71438, Note_on_c, 1, 61, 127
1, 71536, Note_off_c, 1, 61, 127
1, 71538, Note_on_c, 12, 59, 127
1, 71538, Note_on_c, 2, 74, 127
1, 71736, Note_off_c, 2, 74, 127
1, 71738, Note_on_c, 1, 73, 127
1, 71936, Note_off_c, 1, 73, 127
1, 71938, Note_on_c, 6, 66, 127
1, 71938, Note_on_c, 2, 74, 127
1, 72136, Note_off_c, 2, 74, 127
1, 72138, Note_on_c, 12, 71, 127
1, 72336, Note_off_c, 12, 71, 127
1, 72336, Note_off_c, 6, 66, 127
1, 72336, Note_off_c, 12, 59, 127
1, 72337, Note_on_c, 7, 67, 127
1, 72337, Note_on_c, 4, 76, 127
1, 72535, Note_off_c, 4, 76, 127
1, 72537, Note_on_c, 1, 73, 127
1, 72735, Note_off_c, 1, 73, 127
1, 72735, Note_off_c, 7, 67, 127
1, 72737, Note_on_c, 12, 59, 127
1, 72737, Note_on_c, 6, 78, 127
1, 72935, Note_off_c, 6, 78, 127
1, 72937, Note_on_c, 2, 74, 127
1, 73135, Note_off_c, 2, 74, 127
1, 73137, Note_on_c, 10, 69, 127
1, 73137, Note_on_c, 6, 78, 127
1, 73335, Note_off_c, 6, 78, 127
1, 73337, Note_on_c, 1, 73, 127
1, 73535, Note_off_c, 1, 73, 127
1, 73535, Note_off_c, 10, 69, 127
1, 73535, Note_off_c, 12, 59, 127
1, 73536, Note_on_c, 7, 67, 127
1, 73536, Note_on_c, 12, 71, 127
1, 73734, Note_off_c, 12, 71, 127
1, 73736, Note_on_c, 7, 79, 127
1, 73934, Note_off_c, 7, 79, 127
1, 73934, Note_off_c, 7, 67, 127
1, 73936, Note_on_c, 12, 59, 127
1, 73936, Note_on_c, 4, 76, 127
1, 74134, Note_off_c, 4, 76, 127
1, 74136, Note_on_c, 1, 73, 127
1, 74334, Note_off_c, 1, 73, 127
1, 74336, Note_on_c, 7, 67, 127
1, 74336, Note_on_c, 4, 76, 127
1, 74534, Note_off_c, 4, 76, 127
1, 74535, Note_on_c, 12, 71, 127
1, 74733, Note_off_c, 12, 71, 127
1, 74734, Note_off_c, 7, 67, 127
1, 74734, Note_off_c, 12, 59, 127
1, 74735, Note_on_c, 6, 66, 127
1, 74735, Note_on_c, 11, 70, 127
1, 74933, Note_off_c, 11, 70, 127
1, 74935, Note_on_c, 6, 78, 127
1, 75133, Note_off_c, 6, 78, 127
1, 75133, Note_off_c, 6, 66, 127
1, 75135, Note_on_c, 12, 59, 127
1, 75135, Note_on_c, 2, 74, 127
1, 75333, Note_off_c, 2, 74, 127
1, 75335, Note_on_c, 12, 71, 127
1, 75533, Note_off_c, 12, 71, 127
1, 75533, Note_off_c, 12, 59, 127
1, 75535, Note_on_c, 6, 66, 127
1, 75535, Note_on_c, 4, 76, 127
1, 75733, Note_off_c, 4, 76, 127
1, 75734, Note_on_c, 2, 74, 127
1, 75932, Note_off_c, 2, 74, 127
1, 75933, Note_off_c, 6, 66, 127
1, 75934, Note_on_c, 5, 65, 127
1, 75934, Note_on_c, 1, 73, 127
1, 76132, Note_off_c, 1, 73, 127
1, 76134, Note_on_c, 12, 71, 127
1, 76332, Note_off_c, 12, 71, 127
1, 76332, Note_off_c, 5, 65, 127
1, 76334, Note_on_c, 6, 66, 127
1, 76334, Note_on_c, 11, 70, 127
1, 76532, Note_off_c, 11, 70, 127
1, 76534, Note_on_c, 12, 71, 127
1, 76732, Note_off_c, 12, 71, 127
1, 76733, Note_on_c, 6, 54, 127
1, 76733, Note_on_c, 1, 73, 127
1, 76931, Note_off_c, 1, 73, 127
1, 76933, Note_on_c, 11, 70, 127
1, 77131, Note_off_c, 11, 70, 127
1, 77131, Note_off_c, 6, 54, 127
1, 77132, Note_off_c, 6, 66, 127
1, 77133, Note_on_c, 11, 58, 127
1, 77133, Note_on_c, 6, 66, 127
1, 77331, Note_off_c, 6, 66, 127
1, 77333, Note_on_c, 4, 64, 127
1, 77531, Note_off_c, 4, 64, 127
1, 77531, Note_off_c, 11, 58, 127
1, 77533, Note_on_c, 12, 59, 127
1, 77533, Note_on_c, 2, 62, 127
1, 77731, Note_off_c, 12, 59, 127
1, 77733, Note_on_c, 1, 61, 127
1, 77931, Note_off_c, 1, 61, 127
1, 77931, Note_off_c, 2, 62, 127
1, 77932, Note_on_c, 2, 62, 127
1, 77932, Note_on_c, 12, 71, 127
1, 78130, Note_off_c, 2, 62, 127
1, 78132, Note_on_c, 12, 59, 127
1, 78330, Note_off_c, 12, 59, 127
1, 78332, Note_on_c, 3, 63, 127
1, 78530, Note_off_c, 3, 63, 127
1, 78532, Note_on_c, 10, 57, 127
1, 78730, Note_off_c, 10, 57, 127
1, 78732, Note_on_c, 7, 55, 127
1, 78930, Note_off_c, 12, 71, 127
1, 78931, Note_on_c, 0, 72, 127
1, 79029, Note_off_c, 0, 72, 127
1, 79031, Note_on_c, 2, 74, 127
1, 79129, Note_off_c, 2, 74, 127
1, 79131, Note_on_c, 4, 76, 127
1, 79229, Note_off_c, 4, 76, 127
1, 79231, Note_on_c, 2, 74, 127
1, 79329, Note_off_c, 2, 74, 127
1, 79330, Note_off_c, 7, 55, 127
1, 79331, Note_on_c, 0, 72, 127
1, 79429, Note_off_c, 0, 72, 127
1, 79431, Note_on_c, 12, 71, 127
1, 79529, Note_off_c, 12, 71, 127
1, 79531, Note_on_c, 8, 56, 127
1, 79531, Note_on_c, 4, 76, 127
1, 79629, Note_off_c, 4, 76, 127
1, 79631, Note_on_c, 2, 74, 127
1, 79729, Note_off_c, 2, 74, 127
1, 79731, Note_on_c, 0, 72, 127
1, 79829, Note_off_c, 0, 72, 127
1, 79831, Note_on_c, 12, 71, 127
1, 79929, Note_off_c, 12, 71, 127
1, 79929, Note_off_c, 8, 56, 127
1, 79931, Note_on_c, 10, 57, 127
1, 79931, Note_on_c, 0, 72, 127
1, 80129, Note_off_c, 10, 57, 127
1, 80130, Note_on_c, 12, 59, 127
1, 80328, Note_off_c, 12, 59, 127
1, 80329, Note_off_c, 0, 72, 127
1, 80330, Note_on_c, 0, 60, 127
1, 80330, Note_on_c, 10, 69, 127
1, 80528, Note_off_c, 0, 60, 127
1, 80530, Note_on_c, 10, 57, 127
1, 80728, Note_off_c, 10, 57, 127
1, 80730, Note_on_c, 1, 61, 127
1, 80928, Note_off_c, 1, 61, 127
1, 80930, Note_on_c, 7, 55, 127
1, 81128, Note_off_c, 7, 55, 127
1, 81130, Note_on_c, 6, 54, 127
1, 81328, Note_off_c, 10, 69, 127
1, 81329, Note_on_c, 12, 71, 127
1, 81427, Note_off_c, 12, 71, 127
1, 81429, Note_on_c, 0, 72, 127
1, 81527, Note_off_c, 0, 72, 127
1, 81529, Note_on_c, 2, 74, 127
1, 81627, Note_off_c, 2, 74, 127
1, 81629, Note_on_c, 0, 72, 127
1, 81727, Note_off_c, 0, 72, 127
1, 81728, Note_off_c, 6, 54, 127
1, 81729, Note_on_c, 12, 71, 127
1, 81827, Note_off_c, 12, 71, 127
1, 81829, Note_on_c, 10, 69, 127
1, 81927, Note_off_c, 10, 69, 127
1, 81929, Note_on_c, 6, 66, 127
1, 81929, Note_on_c, 2, 74, 127
1, 82027, Note_off_c, 2, 74, 127
1, 82029, Note_on_c, 0, 72, 127
1, 82127, Note_off_c, 0, 72, 127
1, 82129, Note_on_c, 12, 71, 127
1, 82227, Note_off_c, 12, 71, 127
1, 82229, Note_on_c, 10, 69, 127
1, 82327, Note_off_c, 10, 69, 127
1, 82327, Note_off_c, 6, 66, 127
1, 82328, Note_on_c, 4, 52, 127
1, 82328, Note_on_c, 7, 67, 127
1, 82328, Note_on_c, 12, 71, 127
1, 82526, Note_off_c, 4, 52, 127
1, 82528, Note_on_c, 3, 51, 127
1, 82726, Note_off_c, 3, 51, 127
1, 82726, Note_off_c, 12, 71, 127
1, 82726, Note_off_c, 7, 67, 127
1, 82728, Note_on_c, 4, 52, 127
1, 82728, Note_on_c, 7, 67, 127
1, 82728, Note_on_c, 1, 73, 127
1, 82926, Note_off_c, 4, 52, 127
1, 82928, Note_on_c, 12, 47, 127
1, 83126, Note_off_c, 12, 47, 127
1, 83126, Note_off_c, 1, 73, 127
1, 83126, Note_off_c, 7, 67, 127
1, 83128, Note_on_c, 6, 54, 127
1, 83128, Note_on_c, 10, 69, 127
1, 83128, Note_on_c, 3, 75, 127
1, 83326, Note_off_c, 6, 54, 127
1, 83328, Note_on_c, 12, 47, 127
1, 83526, Note_off_c, 12, 47, 127
1, 83526, Note_off_c, 3, 75, 127
1, 83526, Note_off_c, 10, 69, 127
1, 83527, Note_on_c, 7, 55, 127
1, 83527, Note_on_c, 12, 71, 127
1, 83527, Note_on_c, 4, 76, 127
1, 83725, Note_off_c, 4, 76, 127
1, 83727, Note_on_c, 6, 78, 127
1, 83825, Note_off_c, 6, 78, 127
1, 83827, Note_on_c, 7, 79, 127
1, 83925, Note_off_c, 7, 79, 127
1, 83927, Note_on_c, 10, 81, 127
1, 84025, Note_off_c, 10, 81, 127
1, 84026, Note_off_c, 12, 71, 127
1, 84026, Note_off_c, 7, 55, 127
1, 84027, Note_on_c, 7, 79, 127
1, 84125, Note_off_c, 7, 79, 127
1, 84127, Note_on_c, 6, 78, 127
1, 84225, Note_off_c, 6, 78, 127
1, 84227, Note_on_c, 4, 76, 127
1, 84325, Note_off_c, 4, 76, 127
1, 84327, Note_on_c, 10, 81, 127
1, 84425, Note_off_c, 10, 81, 127
1, 84427, Note_on_c, 7, 79, 127
1, 84525, Note_off_c, 7, 79, 127
1, 84526, Note_on_c, 6, 78, 127
1, 84624, Note_off_c, 6, 78, 127
1, 84626, Note_on_c, 4, 76, 127
1, 84724, Note_off_c, 4, 76, 127
1, 84726, Note_on_c, 6, 54, 127
1, 84726, Note_on_c, 0, 84, 127
1, 84924, Note_off_c, 6, 54, 127
1, 84926, Note_on_c, 4, 52, 127
1, 85124, Note_off_c, 4, 52, 127
1, 85124, Note_off_c, 0, 84, 127
1, 85126, Note_on_c, 6, 54, 127
1, 85126, Note_on_c, 10, 69, 127
1, 85126, Note_on_c, 3, 75, 127
1, 85324, Note_off_c, 6, 54, 127
1, 85326, Note_on_c, 12, 47, 127
1, 85524, Note_off_c, 12, 47, 127
1, 85524, Note_off_c, 3, 75, 127
1, 85524, Note_off_c, 10, 69, 127
1, 85526, Note_on_c, 7, 55, 127
1, 85526, Note_on_c, 12, 71, 127
1, 85526, Note_on_c, 4, 76, 127
1, 85724, Note_off_c, 7, 55, 127
1, 85725, Note_on_c, 12, 47, 127
1, 85923, Note_off_c, 12, 47, 127
1, 85924, Note_off_c, 4, 76, 127
1, 85924, Note_off_c, 12, 71, 127
1, 85925, Note_on_c, 10, 57, 127
1, 85925, Note_on_c, 3, 63, 127
1, 85925, Note_on_c, 6, 78, 127
1, 86123, Note_off_c, 6, 78, 127
1, 86125, Note_on_c, 7, 79, 127
1, 86223, Note_off_c, 7, 79, 127
1, 86225, Note_on_c, 10, 81, 127
1, 86323, Note_off_c, 10, 81, 127
1, 86325, Note_on_c, 12, 83, 127
1, 86423, Note_off_c, 12, 83, 127
1, 86425, Note_on_c, 10, 81, 127
1, 86523, Note_off_c, 10, 81, 127
1, 86523, Note_off_c, 3, 63, 127
1, 86523, Note_off_c, 10, 57, 127
1, 86525, Note_on_c, 7, 79, 127
1, 86623, Note_off_c, 7, 79, 127
1, 86625, Note_on_c, 6, 78, 127
1, 86723, Note_off_c, 6, 78, 127
1, 86724, Note_on_c, 12, 83, 127
1, 86822, Note_off_c, 12, 83, 127
1, 86824, Note_on_c, 10, 81, 127
1, 86922, Note_off_c, 10, 81, 127
1, 86924, Note_on_c, 7, 79, 127
1, 87022, Note_off_c, 7, 79, 127
1, 87024, Note_on_c, 6, 78, 127
1, 87122, Note_off_c, 6, 78, 127
1, 87124, Note_on_c, 7, 55, 127
1, 87124, Note_on_c, 4, 76, 127
1, 87322, Note_off_c, 7, 55, 127
1, 87324, Note_on_c, 6, 54, 127
1, 87522, Note_off_c, 6, 54, 127
1, 87524, Note_on_c, 7, 55, 127
1, 87524, Note_on_c, 12, 71, 127
1, 87722, Note_off_c, 7, 55, 127
1, 87724, Note_on_c, 4, 52, 127
1, 87922, Note_off_c, 4, 52, 127
1, 87922, Note_off_c, 12, 71, 127
1, 87923, Note_on_c, 10, 57, 127
1, 87923, Note_on_c, 0, 72, 127
1, 88121, Note_off_c, 10, 57, 127
1, 88123, Note_on_c, 6, 54, 127
1, 88321, Note_off_c, 6, 54, 127
1, 88321, Note_off_c, 0, 72, 127
1, 88323, Note_on_c, 12, 59, 127
1, 88323, Note_on_c, 7, 67, 127
1, 88521, Note_off_c, 12, 59, 127
1, 88523, Note_on_c, 7, 55, 127
1, 88721, Note_off_c, 7, 55, 127
1, 88721, Note_off_c, 4, 76, 127
1, 88723, Note_on_c, 12, 59, 127
1, 88723, Note_on_c, 2, 74, 127
1, 88921, Note_off_c, 12, 59, 127
1, 88922, Note_on_c, 6, 54, 127
1, 89120, Note_off_c, 6, 54, 127
1, 89121, Note_off_c, 2, 74, 127
1, 89122, Note_on_c, 4, 52, 127
1, 89122, Note_on_c, 0, 72, 127
1, 89320, Note_off_c, 4, 52, 127
1, 89322, Note_on_c, 0, 60, 127
1, 89520, Note_off_c, 0, 60, 127
1, 89520, Note_off_c, 7, 67, 127
1, 89522, Note_on_c, 10, 57, 127
1, 89522, Note_on_c, 6, 66, 127
1, 89720, Note_off_c, 10, 57, 127
1, 89722, Note_on_c, 6, 54, 127
1, 89920, Note_off_c, 6, 54, 127
1, 89920, Note_off_c, 0, 72, 127
1, 89922, Note_on_c, 10, 57, 127
1, 89922, Note_on_c, 0, 72, 127
1, 90120, Note_off_c, 10, 57, 127
1, 90121, Note_on_c, 4, 52, 127
1, 90319, Note_off_c, 4, 52, 127
1, 90320, Note_off_c, 0, 72, 127
1, 90321, Note_on_c, 3, 51, 127
1, 90321, Note_on_c, 12, 71, 127
1, 90519, Note_off_c, 3, 51, 127
1, 90521, Note_on_c, 12, 59, 127
1, 90719, Note_off_c, 12, 59, 127
1, 90719, Note_off_c, 6, 66, 127
1, 90721, Note_on_c, 7, 55, 127
1, 90721, Note_on_c, 4, 64, 127
1, 90919, Note_off_c, 7, 55, 127
1, 90921, Note_on_c, 4, 52, 127
1, 91119, Note_off_c, 4, 52, 127
1, 91119, Note_off_c, 4, 64, 127
1, 91119, Note_off_c, 12, 71, 127
1, 91121, Note_on_c, 10, 57, 127
1, 91121, Note_on_c, 3, 63, 127
1, 91121, Note_on_c, 6, 66, 127
1, 91319, Note_off_c, 10, 57, 127
1, 91320, Note_on_c, 7, 55, 127
1, 91518, Note_off_c, 7, 55, 127
1, 91519, Note_off_c, 6, 66, 127
1, 91519, Note_off_c, 3, 63, 127
1, 91520, Note_on_c, 6, 54, 127
1, 91520, Note_on_c, 4, 64, 127
1, 91520, Note_on_c, 7, 67, 127
1, 91718, Note_off_c, 6, 54, 127
1, 91720, Note_on_c, 4, 52, 127
1, 91918, Note_off_c, 4, 52, 127
1, 91918, Note_off_c, 7, 67, 127
1, 91918, Note_off_c, 4, 64, 127
1, 91920, Note_on_c, 3, 51, 127
1, 91920, Note_on_c, 6, 66, 127
1, 91920, Note_on_c, 10, 69, 127
1, 92118, Note_off_c, 3, 51, 127
1, 92120, Note_on_c, 4, 52, 127
1, 92318, Note_off_c, 4, 52, 127
1, 92318, Note_off_c, 10, 69, 127
1, 92318, Note_off_c, 6, 66, 127
1, 92319, Note_on_c, 6, 54, 127
1, 92319, Note_on_c, 3, 63, 127
1, 92319, Note_on_c, 0, 72, 127
1, 92517, Note_off_c, 6, 54, 127
1, 92519, Note_on_c, 3, 51, 127
1, 92717, Note_off_c, 3, 51, 127
1, 92717, Note_off_c, 0, 72, 127
1, 92717, Note_off_c, 3, 63, 127
1, 92719, Note_on_c, 12, 47, 127
1, 92719, Note_on_c, 6, 66, 127
1, 92719, Note_on_c, 12, 71, 127
1, 92917, Note_off_c, 12, 47, 127
1, 92919, Note_on_c, 3, 51, 127
1, 93117, Note_off_c, 3, 51, 127
1, 93117, Note_off_c, 12, 71, 127
1, 93119, Note_on_c, 4, 52, 127
1, 93119, Note_on_c, 7, 67, 127
1, 93317, Note_off_c, 4, 52, 127
1, 93317, Note_off_c, 6, 66, 127
1, 93319, Note_on_c, 6, 54, 127
1, 93319, Note_on_c, 12, 59, 127
1, 93517, Note_off_c, 12, 59, 127
1, 93517, Note_off_c, 6, 54, 127
1, 93518, Note_on_c, 7, 55, 127
1, 93518, Note_on_c, 4, 64, 127
1, 93616, Note_off_c, 4, 64, 127
1, 93618, Note_on_c, 2, 62, 127
1, 93716, Note_off_c, 2, 62, 127
1, 93716, Note_off_c, 7, 55, 127
1, 93718, Note_on_c, 4, 52, 127
1, 93718, Note_on_c, 0, 60, 127
1, 93816, Note_off_c, 0, 60, 127
1, 93818, Note_on_c, 12, 59, 127
1, 93916, Note_off_c, 12, 59, 127
1, 93916, Note_off_c, 4, 52, 127
1, 93918, Note_on_c, 12, 47, 127
1, 93918, Note_on_c, 4, 64, 127
1, 94016, Note_off_c, 4, 64, 127
1, 94018, Note_on_c, 2, 62, 127
1, 94116, Note_off_c, 2, 62, 127
1, 94116, Note_off_c, 12, 47, 127
1, 94118, Note_on_c, 2, 50, 127
1, 94118, Note_on_c, 0, 60, 127
1, 94216, Note_off_c, 0, 60, 127
1, 94218, Note_on_c, 12, 59, 127
1, 94316, Note_off_c, 12, 59, 127
1, 94316, Note_off_c, 2, 50, 127
1, 94318, Note_on_c, 0, 48, 127
1, 94318, Note_on_c, 10, 57, 127
1, 94416, Note_off_c, 7, 67, 127
1, 94418, Note_on_c, 7, 67, 127
1, 94515, Note_off_c, 10, 57, 127
1, 94516, Note_off_c, 7, 67, 127
1, 94516, Note_off_c, 0, 48, 127
1, 94517, Note_on_c, 12, 47, 127
1, 94517, Note_on_c, 10, 69, 127
1, 94615, Note_off_c, 10, 69, 127
1, 94617, Note_on_c, 12, 71, 127
1, 94715, Note_off_c, 12, 71, 127
1, 94715, Note_off_c, 12, 47, 127
1, 94717, Note_on_c, 10, 45, 127
1, 94717, Note_on_c, 0, 72, 127
1, 94815, Note_off_c, 0, 72, 127
1, 94817, Note_on_c, 12, 71, 127
1, 94915, Note_off_c, 12, 71, 127
1, 94915, Note_off_c, 10, 45, 127
1, 94917, Note_on_c, 0, 48, 127
1, 94917, Note_on_c, 10, 69, 127
1, 95015, Note_off_c, 10, 69, 127
1, 95017, Note_on_c, 7, 67, 127
1, 95115, Note_off_c, 7, 67, 127
1, 95115, Note_off_c, 0, 48, 127
1, 95117, Note_on_c, 4, 52, 127
1, 95117, Note_on_c, 0, 72, 127
1, 95215, Note_off_c, 0, 72, 127
1, 95217, Note_on_c, 12, 71, 127
1, 95315, Note_off_c, 12, 71, 127
1, 95315, Note_off_c, 4, 52, 127
1, 95317, Note_on_c, 0, 48, 127
1, 95317, Note_on_c, 10, 69, 127
1, 95415, Note_off_c, 10, 69, 127
1, 95417, Note_on_c, 7, 67, 127
1, 95515, Note_off_c, 7, 67, 127
1, 95515, Note_off_c, 0, 48, 127
1, 95517, Note_on_c, 2, 50, 127
1, 95517, Note_on_c, 6, 66, 127
1, 95616, Note_on_c, 4, 64, 127
1, 95714, Note_off_c, 4, 64, 127
1, 95715, Note_off_c, 2, 50, 127
1, 95716, Note_on_c, 4, 52, 127
1, 95716, Note_on_c, 2, 62, 127
1, 95814, Note_off_c, 2, 62, 127
1, 95816, Note_on_c, 0, 60, 127
1, 95914, Note_off_c, 0, 60, 127
1, 95914, Note_off_c, 4, 52, 127
1, 95916, Note_on_c, 6, 54, 127
1, 95916, Note_on_c, 2, 62, 127
1, 96014, Note_off_c, 2, 62, 127
1, 96016, Note_on_c, 0, 60, 127
1, 96114, Note_off_c, 0, 60, 127
1, 96114, Note_off_c, 6, 54, 127
1, 96116, Note_on_c, 2, 50, 127
1, 96116, Note_on_c, 12, 59, 127
1, 96214, Note_off_c, 12, 59, 127
1, 96216, Note_on_c, 10, 57, 127
1, 96314, Note_off_c, 10, 57, 127
1, 96314, Note_off_c, 2, 50, 127
1, 96316, Note_on_c, 10, 45, 127
1, 96316, Note_on_c, 2, 62, 127
1, 96414, Note_off_c, 2, 62, 127
1, 96416, Note_on_c, 0, 60, 127
1, 96514, Note_off_c, 0, 60, 127
1, 96514, Note_off_c, 10, 45, 127
1, 96516, Note_on_c, 0, 48, 127
1, 96516, Note_on_c, 12, 59, 127
1, 96614, Note_off_c, 12, 59, 127
1, 96616, Note_on_c, 10, 57, 127
1, 96714, Note_off_c, 10, 57, 127
1, 96714, Note_off_c, 0, 48, 127
1, 96715, Note_on_c, 12, 47, 127
1, 96715, Note_on_c, 7, 55, 127
1, 96814, Note_off_c, 6, 66, 127
1, 96815, Note_on_c, 6, 66, 127
1, 96912, Note_off_c, 7, 55, 127
1, 96913, Note_off_c, 6, 66, 127
1, 96913, Note_off_c, 12, 47, 127
1, 96915, Note_on_c, 10, 45, 127
1, 96915, Note_on_c, 7, 67, 127
1, 97013, Note_off_c, 7, 67, 127
1, 97015, Note_on_c, 10, 69, 127
1, 97113, Note_off_c, 10, 69, 127
1, 97113, Note_off_c, 10, 45, 127
1, 97115, Note_on_c, 7, 43, 127
1, 97115, Note_on_c, 12, 71, 127
1, 97213, Note_off_c, 12, 71, 127
1, 97215, Note_on_c, 10, 69, 127
1, 97313, Note_off_c, 10, 69, 127
1, 97313, Note_off_c, 7, 43, 127
1, 97315, Note_on_c, 12, 47, 127
1, 97315, Note_on_c, 7, 67, 127
1, 97413, Note_off_c, 7, 67, 127
1, 97415, Note_on_c, 6, 66, 127
1, 97513, Note_off_c, 6, 66, 127
1, 97513, Note_off_c, 12, 47, 127
1, 97515, Note_on_c, 2, 50, 127
1, 97515, Note_on_c, 12, 71, 127
1, 97613, Note_off_c, 12, 71, 127
1, 97615, Note_on_c, 10, 69, 127
1, 97713, Note_off_c, 10, 69, 127
1, 97713, Note_off_c, 2, 50, 127
1, 97715, Note_on_c, 12, 47, 127
1, 97715, Note_on_c, 7, 67, 127
1, 97813, Note_off_c, 7, 67, 127
1, 97814, Note_on_c, 6, 66, 127
1, 97912, Note_off_c, 6, 66, 127
1, 97913, Note_off_c, 12, 47, 127
1, 97914, Note_on_c, 0, 48, 127
1, 97914, Note_on_c, 4, 64, 127
1, 98012, Note_off_c, 4, 64, 127
1, 98014, Note_on_c, 7, 67, 127
1, 98112, Note_off_c, 7, 67, 127
1, 98112, Note_off_c, 0, 48, 127
1, 98114, Note_on_c, 4, 52, 127
1, 98114, Note_on_c, 10, 69, 127
1, 98212, Note_off_c, 10, 69, 127
1, 98214, Note_on_c, 12, 71, 127
1, 98312, Note_off_c, 12, 71, 127
1, 98312, Note_off_c, 4, 52, 127
1, 98314, Note_on_c, 10, 57, 127
1, 98314, Note_on_c, 0, 72, 127
1, 98412, Note_off_c, 0, 72, 127
1, 98414, Note_on_c, 12, 71, 127
1, 98512, Note_off_c, 12, 71, 127
1, 98512, Note_off_c, 10, 57, 127
1, 98514, Note_on_c, 4, 52, 127
1, 98514, Note_on_c, 10, 69, 127
1, 98612, Note_off_c, 10, 69, 127
1, 98614, Note_on_c, 7, 67, 127
1, 98712, Note_off_c, 7, 67, 127
1, 98712, Note_off_c, 4, 52, 127
1, 98714, Note_on_c, 0, 48, 127
1, 98714, Note_on_c, 10, 69, 127
1, 98812, Note_off_c, 10, 69, 127
1, 98814, Note_on_c, 7, 67, 127
1, 98912, Note_off_c, 7, 67, 127
1, 98912, Note_off_c, 0, 48, 127
1, 98913, Note_on_c, 10, 45, 127
1, 98913, Note_on_c, 6, 66, 127
1, 99011, Note_off_c, 6, 66, 127
1, 99013, Note_on_c, 4, 64, 127
1, 99111, Note_off_c, 4, 64, 127
1, 99111, Note_off_c, 10, 45, 127
1, 99113, Note_on_c, 2, 50, 127
1, 99113, Note_on_c, 6, 66, 127
1, 99211, Note_off_c, 6, 66, 127
1, 99213, Note_on_c, 10, 69, 127
1, 99311, Note_off_c, 10, 69, 127
1, 99311, Note_off_c, 2, 50, 127
1, 99313, Note_on_c, 6, 54, 127
1, 99313, Note_on_c, 12, 71, 127
1, 99411, Note_off_c, 12, 71, 127
1, 99413, Note_on_c, 0, 72, 127
1, 99511, Note_off_c, 0, 72, 127
1, 99511, Note_off_c, 6, 54, 127
1, 99513, Note_on_c, 12, 59, 127
1, 99513, Note_on_c, 2, 74, 127
1, 99611, Note_off_c, 2, 74, 127
1, 99613, Note_on_c, 0, 72, 127
1, 99711, Note_off_c, 0, 72, 127
1, 99711, Note_off_c, 12, 59, 127
1, 99713, Note_on_c, 6, 54, 127
1, 99713, Note_on_c, 12, 71, 127
1, 99811, Note_off_c, 12, 71, 127
1, 99813, Note_on_c, 10, 69, 127
1, 99911, Note_off_c, 10, 69, 127
1, 99911, Note_off_c, 6, 54, 127
1, 99913, Note_on_c, 2, 50, 127
1, 99913, Note_on_c, 12, 71, 127
1, 100011, Note_off_c, 12, 71, 127
1, 100013, Note_on_c, 10, 69, 127
1, 100111, Note_off_c, 10, 69, 127
1, 100111, Note_off_c, 2, 50, 127
1, 100112, Note_on_c, 12, 47, 127
1, 100112, Note_on_c, 7, 67, 127
1, 100210, Note_off_c, 7, 67, 127
1, 100212, Note_on_c, 6, 66, 127
1, 100310, Note_off_c, 6, 66, 127
1, 100310, Note_off_c, 12, 47, 127
1, 100312, Note_on_c, 4, 52, 127
1, 100312, Note_on_c, 7, 67, 127
1, 100410, Note_off_c, 7, 67, 127
1, 100412, Note_on_c, 12, 71, 127
1, 100510, Note_off_c, 12, 71, 127
1, 100510, Note_off_c, 4, 52, 127
1, 100512, Note_on_c, 7, 55, 127
1, 100512, Note_on_c, 0, 72, 127
1, 100610, Note_off_c, 0, 72, 127
1, 100612, Note_on_c, 2, 74, 127
1, 100710, Note_off_c, 2, 74, 127
1, 100710, Note_off_c, 7, 55, 127
1, 100712, Note_on_c, 0, 60, 127
1, 100712, Note_on_c, 4, 76, 127
1, 100810, Note_off_c, 4, 76, 127
1, 100812, Note_on_c, 2, 74, 127
1, 100910, Note_off_c, 2, 74, 127
1, 100910, Note_off_c, 0, 60, 127
1, 100912, Note_on_c, 7, 55, 127
1, 100912, Note_on_c, 0, 72, 127
1, 101010, Note_off_c, 0, 72, 127
1, 101012, Note_on_c, 12, 71, 127
1, 101110, Note_off_c, 12, 71, 127
1, 101110, Note_off_c, 7, 55, 127
1, 101112, Note_on_c, 4, 52, 127
1, 101112, Note_on_c, 0, 72, 127
1, 101210, Note_off_c, 0, 72, 127
1, 101211, Note_on_c, 12, 71, 127
1, 101309, Note_off_c, 12, 71, 127
1, 101310, Note_off_c, 4, 52, 127
1, 101311, Note_on_c, 0, 48, 127
1, 101311, Note_on_c, 10, 69, 127
1, 101409, Note_off_c, 10, 69, 127
1, 101411, Note_on_c, 7, 67, 127
1, 101509, Note_off_c, 7, 67, 127
1, 101509, Note_off_c, 0, 48, 127
1, 101511, Note_on_c, 6, 54, 127
1, 101511, Note_on_c, 10, 69, 127
1, 101609, Note_off_c, 6, 54, 127
1, 101611, Note_on_c, 7, 55, 127
1, 101709, Note_off_c, 7, 55, 127
1, 101709, Note_off_c, 10, 69, 127
1, 101711, Note_on_c, 6, 54, 127
1, 101711, Note_on_c, 12, 71, 127
1, 101809, Note_off_c, 12, 71, 127
1, 101809, Note_off_c, 6, 54, 127
1, 101811, Note_on_c, 4, 52, 127
1, 101811, Note_on_c, 0, 72, 127
1, 101909, Note_off_c, 0, 72, 127
1, 101909, Note_off_c, 4, 52, 127
1, 101911, Note_on_c, 2, 50, 127
1, 101911, Note_on_c, 2, 74, 127
1, 102009, Note_off_c, 2, 74, 127
1, 102009, Note_off_c, 2, 50, 127
1, 102011, Note_on_c, 0, 48, 127
1, 102011, Note_on_c, 4, 76, 127
1, 102109, Note_off_c, 4, 76, 127
1, 102109, Note_off_c, 0, 48, 127
1, 102111, Note_on_c, 12, 47, 127
1, 102111, Note_on_c, 6, 78, 127
1, 102209, Note_off_c, 6, 78, 127
1, 102209, Note_off_c, 12, 47, 127
1, 102211, Note_on_c, 10, 45, 127
1, 102211, Note_on_c, 7, 79, 127
1, 102309, Note_off_c, 7, 79, 127
1, 102309, Note_off_c, 10, 45, 127
1, 102310, Note_on_c, 7, 43, 127
1, 102310, Note_on_c, 10, 81, 127
1, 102408, Note_off_c, 7, 43, 127
1, 102410, Note_on_c, 6, 42, 127
1, 102492, Note_off_c, 10, 81, 127
1, 102508, Note_off_c, 6, 42, 127
1, 102510, Note_on_c, 4, 40, 127
1, 102510, Note_on_c, 0, 72, 127
1, 102608, Note_off_c, 4, 40, 127
1, 102610, Note_on_c, 2, 38, 127
1, 102692, Note_off_c, 0, 72, 127
1, 102708, Note_off_c, 2, 38, 127
1, 102710, Note_on_c, 7, 43, 127
1, 102710, Note_on_c, 7, 67, 127
1, 102710, Note_on_c, 12, 71, 127
1, 102908, Note_off_c, 7, 67, 127
1, 102910, Note_on_c, 6, 66, 127
1, 103108, Note_off_c, 6, 66, 127
1, 103108, Note_off_c, 12, 71, 127
1, 103108, Note_off_c, 7, 43, 127
1, 103110, Note_on_c, 12, 47, 127
1, 103110, Note_on_c, 7, 67, 127
1, 103110, Note_on_c, 2, 74, 127
1, 103308, Note_off_c, 7, 67, 127
1, 103310, Note_on_c, 2, 62, 127
1, 103508, Note_off_c, 2, 62, 127
1, 103508, Note_off_c, 2, 74, 127
1, 103508, Note_off_c, 12, 47, 127
1, 103509, Note_on_c, 2, 50, 127
1, 103509, Note_on_c, 10, 69, 127
1, 103509, Note_on_c, 6, 66, 127
1, 103707, Note_off_c, 10, 69, 127
1, 103709, Note_on_c, 2, 62, 127
1, 103907, Note_off_c, 2, 62, 127
1, 103907, Note_off_c, 6, 66, 127
1, 103907, Note_off_c, 2, 50, 127
1, 103909, Note_on_c, 7, 55, 127
1, 103909, Note_on_c, 12, 71, 127
1, 103909, Note_on_c, 7, 67, 127
1, 104007, Note_off_c, 7, 67, 127
1, 104009, Note_on_c, 6, 66, 127
1, 104107, Note_off_c, 6, 66, 127
1, 104107, Note_off_c, 7, 55, 127
1, 104109, Note_on_c, 6, 54, 127
1, 104109, Note_on_c, 7, 67, 127
1, 104207, Note_off_c, 7, 67, 127
1, 104209, Note_on_c, 10, 69, 127
1, 104304, Note_off_c, 12, 71, 127
1, 104307, Note_off_c, 10, 69, 127
1, 104307, Note_off_c, 6, 54, 127
1, 104309, Note_on_c, 7, 55, 127
1, 104309, Note_on_c, 12, 71, 127
1, 104407, Note_off_c, 12, 71, 127
1, 104409, Note_on_c, 10, 69, 127
1, 104507, Note_off_c, 10, 69, 127
1, 104507, Note_off_c, 7, 55, 127
1, 104508, Note_on_c, 2, 50, 127
1, 104508, Note_on_c, 12, 71, 127
1, 104606, Note_off_c, 12, 71, 127
1, 104608, Note_on_c, 0, 72, 127
1, 104706, Note_off_c, 0, 72, 127
1, 104706, Note_off_c, 2, 50, 127
1, 104708, Note_on_c, 12, 59, 127
1, 104708, Note_on_c, 2, 74, 127
1, 104806, Note_off_c, 2, 74, 127
1, 104808, Note_on_c, 0, 72, 127
1, 104906, Note_off_c, 0, 72, 127
1, 104906, Note_off_c, 12, 59, 127
1, 104908, Note_on_c, 7, 55, 127
1, 104908, Note_on_c, 2, 74, 127
1, 105006, Note_off_c, 2, 74, 127
1, 105008, Note_on_c, 4, 76, 127
1, 105106, Note_off_c, 4, 76, 127
1, 105106, Note_off_c, 7, 55, 127
1, 105108, Note_on_c, 2, 62, 127
1, 105108, Note_on_c, 10, 69, 127
1, 105108, Note_on_c, 6, 78, 127
1, 105306, Note_off_c, 10, 69, 127
1, 105308, Note_on_c, 7, 67, 127
1, 105506, Note_off_c, 7, 67, 127
1, 105506, Note_off_c, 2, 62, 127
1, 105508, Note_on_c, 0, 60, 127
1, 105508, Note_on_c, 10, 69, 127
1, 105706, Note_off_c, 10, 69, 127
1, 105707, Note_on_c, 2, 62, 127
1, 105905, Note_off_c, 2, 62, 127
1, 105906, Note_off_c, 0, 60, 127
1, 105906, Note_off_c, 6, 78, 127
1, 105907, Note_on_c, 12, 59, 127
1, 105907, Note_on_c, 12, 71, 127
1, 105907, Note_on_c, 7, 79, 127
1, 106105, Note_off_c, 12, 71, 127
1, 106107, Note_on_c, 2, 62, 127
1, 106305, Note_off_c, 2, 62, 127
1, 106305, Note_off_c, 12, 59, 127
1, 106307, Note_on_c, 10, 57, 127
1, 106307, Note_on_c, 0, 72, 127
1, 106505, Note_off_c, 10, 57, 127
1, 106505, Note_off_c, 7, 79, 127
1, 106507, Note_on_c, 12, 59, 127
1, 106507, Note_on_c, 6, 78, 127
1, 106605, Note_off_c, 6, 78, 127
1, 106605, Note_off_c, 12, 59, 127
1, 106607, Note_on_c, 0, 60, 127
1, 106607, Note_on_c, 4, 76, 127
1, 106702, Note_off_c, 0, 72, 127
1, 106705, Note_off_c, 4, 76, 127
1, 106705, Note_off_c, 0, 60, 127
1, 106706, Note_on_c, 2, 62, 127
1, 106706, Note_on_c, 6, 78, 127
1, 106804, Note_off_c, 2, 62, 127
1, 106806, Note_on_c, 0, 60, 127
1, 106904, Note_off_c, 0, 60, 127
1, 106904, Note_off_c, 6, 78, 127
1, 106906, Note_on_c, 12, 59, 127
1, 106906, Note_on_c, 10, 81, 127
1, 107004, Note_off_c, 12, 59, 127
1, 107006, Note_on_c, 10, 57, 127
1, 107104, Note_off_c, 10, 57, 127
1, 107104, Note_off_c, 10, 81, 127
1, 107106, Note_on_c, 2, 62, 127
1, 107106, Note_on_c, 6, 78, 127
1, 107204, Note_off_c, 2, 62, 127
1, 107206, Note_on_c, 0, 60, 127
1, 107304, Note_off_c, 0, 60, 127
1, 107304, Note_off_c, 6, 78, 127
1, 107306, Note_on_c, 12, 59, 127
1, 107306, Note_on_c, 2, 74, 127
1, 107404, Note_off_c, 12, 59, 127
1, 107406, Note_on_c, 10, 57, 127
1, 107504, Note_off_c, 10, 57, 127
1, 107504, Note_off_c, 2, 74, 127
1, 107506, Note_on_c, 7, 55, 127
1, 107506, Note_on_c, 12, 71, 127
1, 107506, Note_on_c, 7, 79, 127
1, 107604, Note_off_c, 7, 55, 127
1, 107606, Note_on_c, 10, 57, 127
1, 107704, Note_off_c, 10, 57, 127
1, 107704, Note_off_c, 12, 71, 127
1, 107706, Note_on_c, 12, 59, 127
1, 107706, Note_on_c, 10, 69, 127
1, 107804, Note_off_c, 12, 59, 127
1, 107805, Note_on_c, 0, 60, 127
1, 107903, Note_off_c, 0, 60, 127
1, 107904, Note_off_c, 10, 69, 127
1, 107905, Note_on_c, 2, 62, 127
1, 107905, Note_on_c, 12, 71, 127
1, 108003, Note_off_c, 2, 62, 127
1, 108005, Note_on_c, 0, 60, 127
1, 108103, Note_off_c, 0, 60, 127
1, 108103, Note_off_c, 12, 71, 127
1, 108105, Note_on_c, 2, 62, 127
1, 108105, Note_on_c, 7, 67, 127
1, 108203, Note_off_c, 2, 62, 127
1, 108205, Note_on_c, 7, 55, 127
1, 108303, Note_off_c, 7, 55, 127
1, 108303, Note_off_c, 7, 67, 127
1, 108305, Note_on_c, 4, 64, 127
1, 108305, Note_on_c, 0, 72, 127
1, 108403, Note_off_c, 4, 64, 127
1, 108405, Note_on_c, 2, 62, 127
1, 108503, Note_off_c, 2, 62, 127
1, 108503, Note_off_c, 0, 72, 127
1, 108505, Note_on_c, 4, 64, 127
1, 108505, Note_on_c, 10, 69, 127
1, 108603, Note_off_c, 4, 64, 127
1, 108605, Note_on_c, 7, 55, 127
1, 108703, Note_off_c, 7, 55, 127
1, 108703, Note_off_c, 10, 69, 127
1, 108705, Note_on_c, 5, 65, 127
1, 108705, Note_on_c, 2, 74, 127
1, 108903, Note_off_c, 2, 74, 127
1, 108904, Note_on_c, 12, 71, 127
1, 109102, Note_off_c, 12, 71, 127
1, 109103, Note_off_c, 5, 65, 127
1, 109104, Note_on_c, 12, 59, 127
1, 109104, Note_on_c, 2, 74, 127
1, 109302, Note_off_c, 2, 74, 127
1, 109304, Note_on_c, 10, 69, 127
1, 109502, Note_off_c, 10, 69, 127
1, 109502, Note_off_c, 12, 59, 127
1, 109504, Note_on_c, 0, 60, 127
1, 109504, Note_on_c, 7, 67, 127
1, 109702, Note_off_c, 7, 67, 127
1, 109704, Note_on_c, 4, 76, 127
1, 109902, Note_off_c, 4, 76, 127
1, 109902, Note_off_c, 0, 60, 127
1, 109904, Note_on_c, 10, 57, 127
1, 109904, Note_on_c, 0, 72, 127
1, 110102, Note_off_c, 0, 72, 127
1, 110103, Note_on_c, 10, 69, 127
1, 110301, Note_off_c, 10, 69, 127
1, 110302, Note_off_c, 10, 57, 127
1, 110302, Note_off_c, 7, 79, 127
1, 110303, Note_on_c, 2, 62, 127
1, 110303, Note_on_c, 0, 72, 127
1, 110303, Note_on_c, 6, 78, 127
1, 110501, Note_off_c, 0, 72, 127
1, 110503, Note_on_c, 7, 67, 127
1, 110698, Note_off_c, 6, 78, 127
1, 110701, Note_off_c, 7, 67, 127
1, 110701, Note_off_c, 2, 62, 127
1, 110703, Note_on_c, 2, 50, 127
1, 110703, Note_on_c, 6, 66, 127
1, 110901, Note_off_c, 6, 66, 127
1, 110903, Note_on_c, 2, 74, 127
1, 111101, Note_off_c, 2, 74, 127
1, 111101, Note_off_c, 2, 50, 127
1, 111103, Note_on_c, 7, 55, 127
1, 111103, Note_on_c, 12, 71, 127
1, 111103, Note_on_c, 7, 79, 127
1, 111301, Note_off_c, 7, 79, 127
1, 111301, Note_off_c, 12, 71, 127
1, 111302, Note_on_c, 7, 67, 127
1, 111302, Note_on_c, 2, 74, 127
1, 111500, Note_off_c, 2, 74, 127
1, 111500, Note_off_c, 7, 67, 127
1, 111501, Note_off_c, 7, 55, 127
1, 111502, Note_on_c, 6, 54, 127
1, 111502, Note_on_c, 0, 72, 127
1, 111502, Note_on_c, 4, 76, 127
1, 111700, Note_off_c, 4, 76, 127
1, 111700, Note_off_c, 0, 72, 127
1, 111702, Note_on_c, 12, 71, 127
1, 111702, Note_on_c, 2, 74, 127
1, 111900, Note_off_c, 2, 74, 127
1, 111900, Note_off_c, 12, 71, 127
1, 111900, Note_off_c, 6, 54, 127
1, 111902, Note_on_c, 7, 55, 127
1, 111902, Note_on_c, 10, 69, 127
1, 111902, Note_on_c, 0, 72, 127
1, 112100, Note_off_c, 0, 72, 127
1, 112100, Note_off_c, 10, 69, 127
1, 112102, Note_on_c, 7, 67, 127
1, 112102, Note_on_c, 12, 71, 127
1, 112300, Note_off_c, 12, 71, 127
1, 112300, Note_off_c, 7, 55, 127
1, 112301, Note_on_c, 2, 50, 127
1, 112301, Note_on_c, 10, 69, 127
1, 112400, Note_off_c, 7, 67, 127
1, 112401, Note_on_c, 6, 66, 127
1, 112499, Note_off_c, 6, 66, 127
1, 112499, Note_off_c, 2, 50, 127
1, 112501, Note_on_c, 1, 49, 127
1, 112501, Note_on_c, 4, 64, 127
1, 112599, Note_off_c, 4, 64, 127
1, 112601, Note_on_c, 6, 66, 127
1, 112699, Note_off_c, 6, 66, 127
1, 112699, Note_off_c, 1, 49, 127
1, 112699, Note_off_c, 10, 69, 127
1, 112701, Note_on_c, 2, 50, 127
1, 112701, Note_on_c, 12, 71, 127
1, 112801, Note_on_c, 6, 66, 127
1, 112899, Note_off_c, 6, 66, 127
1, 112899, Note_off_c, 2, 50, 127
1, 112901, Note_on_c, 10, 45, 127
1, 112901, Note_on_c, 4, 64, 127
1, 112999, Note_off_c, 4, 64, 127
1, 113001, Note_on_c, 6, 66, 127
1, 113099, Note_off_c, 6, 66, 127
1, 113099, Note_off_c, 10, 45, 127
1, 113099, Note_off_c, 12, 71, 127
1, 113101, Note_on_c, 4, 52, 127
1, 113101, Note_on_c, 1, 73, 127
1, 113201, Note_on_c, 7, 67, 127
1, 113299, Note_off_c, 7, 67, 127
1, 113299, Note_off_c, 4, 52, 127
1, 113301, Note_on_c, 10, 45, 127
1, 113301, Note_on_c, 6, 66, 127
1, 113399, Note_off_c, 6, 66, 127
1, 113400, Note_on_c, 7, 67, 127
1, 113498, Note_off_c, 7, 67, 127
1, 113499, Note_off_c, 10, 45, 127
1, 113499, Note_off_c, 1, 73, 127
1, 113500, Note_on_c, 6, 54, 127
1, 113500, Note_on_c, 2, 74, 127
1, 113600, Note_on_c, 10, 69, 127
1, 113697, Note_off_c, 2, 74, 127
1, 113698, Note_off_c, 10, 69, 127
1, 113700, Note_on_c, 2, 62, 127
1, 113798, Note_off_c, 2, 62, 127
1, 113800, Note_on_c, 4, 64, 127
1, 113898, Note_off_c, 4, 64, 127
1, 113900, Note_on_c, 6, 66, 127
1, 113998, Note_off_c, 6, 66, 127
1, 114000, Note_on_c, 7, 67, 127
1, 114098, Note_off_c, 7, 67, 127
1, 114098, Note_off_c, 6, 54, 127
1, 114100, Note_on_c, 10, 69, 127
1, 114198, Note_off_c, 10, 69, 127
1, 114200, Note_on_c, 12, 71, 127
1, 114298, Note_off_c, 12, 71, 127
1, 114300, Note_on_c, 1, 73, 127
1, 114398, Note_off_c, 1, 73, 127
1, 114400, Note_on_c, 2, 74, 127
1, 114498, Note_off_c, 2, 74, 127
1, 114499, Note_on_c, 4, 76, 127
1, 114597, Note_off_c, 4, 76, 127
1, 114599, Note_on_c, 6, 78, 127
1, 114697, Note_off_c, 6, 78, 127
1, 114699, Note_on_c, 4, 52, 127
1, 114699, Note_on_c, 7, 79, 127
1, 114797, Note_off_c, 7, 79, 127
1, 114799, Note_on_c, 6, 78, 127
1, 114897, Note_off_c, 6, 78, 127
1, 114897, Note_off_c, 4, 52, 127
1, 114899, Note_on_c, 2, 50, 127
1, 114899, Note_on_c, 4, 76, 127
1, 114997, Note_off_c, 4, 76, 127
1, 114999, Note_on_c, 6, 78, 127
1, 115097, Note_off_c, 6, 78, 127
1, 115097, Note_off_c, 2, 50, 127
1, 115099, Note_on_c, 4, 52, 127
1, 115099, Note_on_c, 7, 79, 127
1, 115197, Note_off_c, 7, 79, 127
1, 115199, Note_on_c, 6, 78, 127
1, 115297, Note_off_c, 6, 78, 127
1, 115297, Note_off_c, 4, 52, 127
1, 115299, Note_on_c, 10, 45, 127
1, 115299, Note_on_c, 4, 76, 127
1, 115397, Note_off_c, 4, 76, 127
1, 115399, Note_on_c, 2, 74, 127
1, 115497, Note_off_c, 2, 74, 127
1, 115497, Note_off_c, 10, 45, 127
1, 115499, Note_on_c, 6, 54, 127
1, 115499, Note_on_c, 4, 76, 127
1, 115597, Note_off_c, 4, 76, 127
1, 115598, Note_on_c, 2, 74, 127
1, 115696, Note_off_c, 2, 74, 127
1, 115697, Note_off_c, 6, 54, 127
1, 115698, Note_on_c, 10, 45, 127
1, 115698, Note_on_c, 1, 73, 127
1, 115796, Note_off_c, 1, 73, 127
1, 115798, Note_on_c, 12, 71, 127
1, 115896, Note_off_c, 12, 71, 127
1, 115896, Note_off_c, 10, 45, 127
1, 115898, Note_on_c, 7, 55, 127
1, 115898, Note_on_c, 1, 73, 127
1, 115996, Note_off_c, 1, 73, 127
1, 115998, Note_on_c, 12, 71, 127
1, 116096, Note_off_c, 12, 71, 127
1, 116098, Note_on_c, 10, 69, 127
1, 116196, Note_off_c, 10, 69, 127
1, 116198, Note_on_c, 12, 71, 127
1, 116296, Note_off_c, 12, 71, 127
1, 116298, Note_on_c, 1, 73, 127
1, 116396, Note_off_c, 1, 73, 127
1, 116398, Note_on_c, 12, 71, 127
1, 116496, Note_off_c, 12, 71, 127
1, 116496, Note_off_c, 7, 55, 127
1, 116498, Note_on_c, 10, 69, 127
1, 116596, Note_off_c, 10, 69, 127
1, 116598, Note_on_c, 7, 67, 127
1, 116696, Note_off_c, 7, 67, 127
1, 116697, Note_on_c, 10, 69, 127
1, 116795, Note_off_c, 10, 69, 127
1, 116797, Note_on_c, 7, 67, 127
1, 116895, Note_off_c, 7, 67, 127
1, 116897, Note_on_c, 6, 66, 127
1, 116995, Note_off_c, 6, 66, 127
1, 116997, Note_on_c, 4, 64, 127
1, 117095, Note_off_c, 4, 64, 127
1, 117097, Note_on_c, 6, 54, 127
1, 117097, Note_on_c, 2, 62, 127
1, 117197, Note_on_c, 4, 64, 127
1, 117295, Note_off_c, 4, 64, 127
1, 117295, Note_off_c, 6, 54, 127
1, 117297, Note_on_c, 4, 52, 127
1, 117297, Note_on_c, 6, 66, 127
1, 117395, Note_off_c, 6, 66, 127
1, 117397, Note_on_c, 7, 67, 127
1, 117495, Note_off_c, 7, 67, 127
1, 117495, Note_off_c, 4, 52, 127
1, 117497, Note_on_c, 6, 54, 127
1, 117497, Note_on_c, 10, 69, 127
1, 117695, Note_off_c, 10, 69, 127
1, 117695, Note_off_c, 6, 54, 127
1, 117697, Note_on_c, 2, 50, 127
1, 117697, Note_on_c, 2, 74, 127
1, 117895, Note_off_c, 2, 74, 127
1, 117895, Note_off_c, 2, 50, 127
1, 117896, Note_on_c, 7, 55, 127
1, 117896, Note_on_c, 12, 71, 127
1, 118094, Note_off_c, 12, 71, 127
1, 118094, Note_off_c, 7, 55, 127
1, 118096, Note_on_c, 4, 52, 127
1, 118096, Note_on_c, 7, 67, 127
1, 118294, Note_off_c, 7, 67, 127
1, 118294, Note_off_c, 4, 52, 127
1, 118296, Note_on_c, 10, 57, 127
1, 118296, Note_on_c, 6, 66, 127
1, 118493, Note_off_c, 6, 66, 127
1, 118494, Note_off_c, 10, 57, 127
1, 118494, Note_off_c, 2, 62, 127
1, 118496, Note_on_c, 6, 54, 127
1, 118496, Note_on_c, 2, 62, 127
1, 118594, Note_off_c, 2, 62, 127
1, 118596, Note_on_c, 4, 64, 127
1, 118694, Note_off_c, 4, 64, 127
1, 118694, Note_off_c, 6, 54, 127
1, 118696, Note_on_c, 10, 57, 127
1, 118696, Note_on_c, 6, 66, 127
1, 118794, Note_off_c, 6, 66, 127
1, 118796, Note_on_c, 7, 67, 127
1, 118894, Note_off_c, 7, 67, 127
1, 118894, Note_off_c, 10, 57, 127
1, 118895, Note_on_c, 4, 52, 127
1, 118895, Note_on_c, 10, 69, 127
1, 119093, Note_off_c, 4, 52, 127
1, 119095, Note_on_c, 2, 50, 127
1, 119176, Note_off_c, 10, 69, 127
1, 119195, Note_on_c, 12, 71, 127
1, 119293, Note_off_c, 12, 71, 127
1, 119293, Note_off_c, 2, 50, 127
1, 119295, Note_on_c, 12, 59, 127
1, 119295, Note_on_c, 1, 73, 127
1, 119393, Note_off_c, 1, 73, 127
1, 119395, Note_on_c, 2, 74, 127
1, 119493, Note_off_c, 2, 74, 127
1, 119493, Note_off_c, 12, 59, 127
1, 119495, Note_on_c, 7, 55, 127
1, 119495, Note_on_c, 4, 64, 127
1, 119693, Note_off_c, 4, 64, 127
1, 119693, Note_off_c, 7, 55, 127
1, 119695, Note_on_c, 4, 52, 127
1, 119695, Note_on_c, 2, 74, 127
1, 119893, Note_off_c, 4, 52, 127
1, 119895, Note_on_c, 7, 55, 127
1, 120037, Note_off_c, 2, 74, 127
1, 120092, Note_off_c, 7, 55, 127
1, 120093, Note_on_c, 2, 50, 127
1, 120093, Note_on_c, 1, 73, 127
1, 120191, Note_off_c, 1, 73, 127
1, 120193, Note_on_c, 12, 71, 127
1, 120291, Note_off_c, 12, 71, 127
1, 120291, Note_off_c, 2, 50, 127
1, 120293, Note_on_c, 1, 49, 127
1, 120293, Note_on_c, 10, 69, 127
1, 120391, Note_off_c, 10, 69, 127
1, 120393, Note_on_c, 7, 67, 127
1, 120491, Note_off_c, 7, 67, 127
1, 120491, Note_off_c, 1, 49, 127
1, 120493, Note_on_c, 10, 57, 127
1, 120493, Note_on_c, 6, 66, 127
1, 120591, Note_off_c, 6, 66, 127
1, 120593, Note_on_c, 4, 64, 127
1, 120691, Note_off_c, 4, 64, 127
1, 120691, Note_off_c, 10, 57, 127
1, 120693, Note_on_c, 6, 54, 127
1, 120693, Note_on_c, 2, 62, 127
1, 120791, Note_off_c, 2, 62, 127
1, 120793, Note_on_c, 4, 64, 127
1, 120891, Note_off_c, 4, 64, 127
1, 120891, Note_off_c, 6, 54, 127
1, 120893, Note_on_c, 2, 50, 127
1, 120893, Note_on_c, 6, 66, 127
1, 121091, Note_off_c, 2, 50, 127
1, 121092, Note_on_c, 7, 55, 127
1, 121246, Note_off_c, 6, 66, 127
1, 121289, Note_off_c, 7, 55, 127
1, 121291, Note_on_c, 6, 54, 127
1, 121291, Note_on_c, 4, 64, 127
1, 121389, Note_off_c, 4, 64, 127
1, 121391, Note_on_c, 2, 62, 127
1, 121489, Note_off_c, 2, 62, 127
1, 121489, Note_off_c, 6, 54, 127
1, 121491, Note_on_c, 4, 52, 127
1, 121491, Note_on_c, 1, 61, 127
1, 121689, Note_off_c, 1, 61, 127
1, 121689, Note_off_c, 4, 52, 127
1, 121691, Note_on_c, 2, 50, 127
1, 121691, Note_on_c, 4, 64, 127
1, 121789, Note_off_c, 4, 64, 127
1, 121791, Note_on_c, 2, 62, 127
1, 121889, Note_off_c, 2, 62, 127
1, 121889, Note_off_c, 2, 50, 127
1, 121891, Note_on_c, 1, 49, 127
1, 121891, Note_on_c, 4, 64, 127
1, 122089, Note_off_c, 4, 64, 127
1, 122089, Note_off_c, 1, 49, 127
1, 122091, Note_on_c, 10, 45, 127
1, 122091, Note_on_c, 6, 66, 127
1, 122189, Note_off_c, 6, 66, 127
1, 122190, Note_on_c, 7, 67, 127
1, 122288, Note_off_c, 7, 67, 127
1, 122289, Note_off_c, 10, 45, 127
1, 122290, Note_on_c, 1, 49, 127
1, 122290, Note_on_c, 10, 69, 127
1, 122388, Note_off_c, 10, 69, 127
1, 122390, Note_on_c, 7, 67, 127
1, 122488, Note_off_c, 7, 67, 127
1, 122488, Note_off_c, 1, 49, 127
1, 122490, Note_on_c, 4, 52, 127
1, 122490, Note_on_c, 6, 66, 127
1, 122588, Note_off_c, 6, 66, 127
1, 122590, Note_on_c, 4, 64, 127
1, 122688, Note_off_c, 4, 64, 127
1, 122688, Note_off_c, 4, 52, 127
1, 122690, Note_on_c, 1, 49, 127
1, 122690, Note_on_c, 10, 69, 127
1, 122788, Note_off_c, 10, 69, 127
1, 122790, Note_on_c, 7, 67, 127
1, 122888, Note_off_c, 7, 67, 127
1, 122888, Note_off_c, 1, 49, 127
1, 122890, Note_on_c, 10, 45, 127
1, 122890, Note_on_c, 6, 66, 127
1, 122988, Note_off_c, 6, 66, 127
1, 122990, Note_on_c, 4, 64, 127
1, 123088, Note_off_c, 4, 64, 127
1, 123088, Note_off_c, 10, 45, 127
1, 123090, Note_on_c, 2, 50, 127
1, 123090, Note_on_c, 6, 66, 127
1, 123188, Note_off_c, 2, 50, 127
1, 123190, Note_on_c, 10, 57, 127
1, 123288, Note_off_c, 10, 57, 127
1, 123288, Note_off_c, 6, 66, 127
1, 123289, Note_on_c, 12, 59, 127
1, 123289, Note_on_c, 2, 62, 127
1, 123387, Note_off_c, 12, 59, 127
1, 123389, Note_on_c, 0, 60, 127
1, 123487, Note_off_c, 0, 60, 127
1, 123487, Note_off_c, 2, 62, 127
1, 123489, Note_on_c, 2, 62, 127
1, 123489, Note_on_c, 6, 66, 127
1, 123587, Note_off_c, 2, 62, 127
1, 123589, Note_on_c, 0, 60, 127
1, 123687, Note_off_c, 0, 60, 127
1, 123687, Note_off_c, 6, 66, 127
1, 123689, Note_on_c, 12, 59, 127
1, 123689, Note_on_c, 10, 69, 127
1, 123787, Note_off_c, 12, 59, 127
1, 123789, Note_on_c, 10, 57, 127
1, 123887, Note_off_c, 10, 57, 127
1, 123887, Note_off_c, 10, 69, 127
1, 123889, Note_on_c, 2, 62, 127
1, 123889, Note_on_c, 6, 66, 127
1, 123987, Note_off_c, 2, 62, 127
1, 123989, Note_on_c, 0, 60, 127
1, 124087, Note_off_c, 0, 60, 127
1, 124087, Note_off_c, 6, 66, 127
1, 124089, Note_on_c, 12, 59, 127
1, 124089, Note_on_c, 2, 62, 127
1, 124187, Note_off_c, 12, 59, 127
1, 124189, Note_on_c, 10, 57, 127
1, 124287, Note_off_c, 10, 57, 127
1, 124287, Note_off_c, 2, 62, 127
1, 124289, Note_on_c, 12, 59, 127
1, 124289, Note_on_c, 7, 67, 127
1, 124387, Note_off_c, 7, 67, 127
1, 124388, Note_on_c, 10, 69, 127
1, 124486, Note_off_c, 10, 69, 127
1, 124487, Note_off_c, 12, 59, 127
1, 124488, Note_on_c, 2, 50, 127
1, 124488, Note_on_c, 12, 71, 127
1, 124586, Note_off_c, 12, 71, 127
1, 124588, Note_on_c, 0, 72, 127
1, 124686, Note_off_c, 0, 72, 127
1, 124686, Note_off_c, 2, 50, 127
1, 124688, Note_on_c, 6, 54, 127
1, 124688, Note_on_c, 2, 74, 127
1, 124786, Note_off_c, 2, 74, 127
1, 124788, Note_on_c, 0, 72, 127
1, 124886, Note_off_c, 0, 72, 127
1, 124886, Note_off_c, 6, 54, 127
1, 124888, Note_on_c, 10, 57, 127
1, 124888, Note_on_c, 12, 71, 127
1, 124986, Note_off_c, 12, 71, 127
1, 124988, Note_on_c, 10, 69, 127
1, 125086, Note_off_c, 10, 69, 127
1, 125086, Note_off_c, 10, 57, 127
1, 125088, Note_on_c, 6, 54, 127
1, 125088, Note_on_c, 2, 74, 127
1, 125186, Note_off_c, 2, 74, 127
1, 125188, Note_on_c, 0, 72, 127
1, 125286, Note_off_c, 0, 72, 127
1, 125286, Note_off_c, 6, 54, 127
1, 125288, Note_on_c, 2, 50, 127
1, 125288, Note_on_c, 12, 71, 127
1, 125386, Note_off_c, 12, 71, 127
1, 125388, Note_on_c, 10, 69, 127
1, 125486, Note_off_c, 10, 69, 127
1, 125486, Note_off_c, 2, 50, 127
1, 125487, Note_on_c, 7, 55, 127
1, 125487, Note_on_c, 12, 71, 127
1, 125585, Note_off_c, 7, 55, 127
1, 125587, Note_on_c, 2, 62, 127
1, 125685, Note_off_c, 2, 62, 127
1, 125685, Note_off_c, 12, 71, 127
1, 125687, Note_on_c, 4, 64, 127
1, 125687, Note_on_c, 7, 67, 127
1, 125785, Note_off_c, 4, 64, 127
1, 125787, Note_on_c, 5, 65, 127
1, 125885, Note_off_c, 5, 65, 127
1, 125885, Note_off_c, 7, 67, 127
1, 125887, Note_on_c, 7, 67, 127
1, 125887, Note_on_c, 12, 71, 127
1, 125985, Note_off_c, 7, 67, 127
1, 125987, Note_on_c, 5, 65, 127
1, 126085, Note_off_c, 5, 65, 127
1, 126085, Note_off_c, 12, 71, 127
1, 126087, Note_on_c, 4, 64, 127
1, 126087, Note_on_c, 2, 74, 127
1, 126185, Note_off_c, 4, 64, 127
1, 126187, Note_on_c, 2, 62, 127
1, 126285, Note_off_c, 2, 62, 127
1, 126285, Note_off_c, 2, 74, 127
1, 126287, Note_on_c, 7, 67, 127
1, 126287, Note_on_c, 12, 71, 127
1, 126385, Note_off_c, 7, 67, 127
1, 126387, Note_on_c, 5, 65, 127
1, 126485, Note_off_c, 5, 65, 127
1, 126485, Note_off_c, 12, 71, 127
1, 126487, Note_on_c, 4, 64, 127
1, 126487, Note_on_c, 7, 67, 127
1, 126585, Note_off_c, 4, 64, 127
1, 126587, Note_on_c, 2, 62, 127
1, 126685, Note_off_c, 2, 62, 127
1, 126685, Note_off_c, 7, 67, 127
1, 126686, Note_on_c, 4, 64, 127
1, 126686, Note_on_c, 0, 72, 127
1, 126784, Note_off_c, 0, 72, 127
1, 126784, Note_off_c, 4, 64, 127
1, 126786, Note_on_c, 12, 59, 127
1, 126786, Note_on_c, 7, 67, 127
1, 126884, Note_off_c, 7, 67, 127
1, 126884, Note_off_c, 12, 59, 127
1, 126886, Note_on_c, 0, 60, 127
1, 126886, Note_on_c, 10, 69, 127
1, 126984, Note_off_c, 10, 69, 127
1, 126984, Note_off_c, 0, 60, 127
1, 126986, Note_on_c, 2, 62, 127
1, 126986, Note_on_c, 12, 71, 127
1, 127084, Note_off_c, 12, 71, 127
1, 127084, Note_off_c, 2, 62, 127
1, 127086, Note_on_c, 4, 64, 127
1, 127086, Note_on_c, 0, 72, 127
1, 127184, Note_off_c, 0, 72, 127
1, 127184, Note_off_c, 4, 64, 127
1, 127186, Note_on_c, 2, 62, 127
1, 127186, Note_on_c, 12, 71, 127
1, 127284, Note_off_c, 12, 71, 127
1, 127284, Note_off_c, 2, 62, 127
1, 127286, Note_on_c, 0, 60, 127
1, 127286, Note_on_c, 10, 69, 127
1, 127384, Note_off_c, 10, 69, 127
1, 127384, Note_off_c, 0, 60, 127
1, 127386, Note_on_c, 12, 59, 127
1, 127386, Note_on_c, 8, 68, 127
1, 127484, Note_off_c, 8, 68, 127
1, 127484, Note_off_c, 12, 59, 127
1, 127486, Note_on_c, 4, 64, 127
1, 127486, Note_on_c, 0, 72, 127
1, 127584, Note_off_c, 0, 72, 127
1, 127584, Note_off_c, 4, 64, 127
1, 127586, Note_on_c, 2, 62, 127
1, 127586, Note_on_c, 12, 71, 127
1, 127684, Note_off_c, 12, 71, 127
1, 127684, Note_off_c, 2, 62, 127
1, 127686, Note_on_c, 0, 60, 127
1, 127686, Note_on_c, 10, 69, 127
1, 127784, Note_off_c, 10, 69, 127
1, 127784, Note_off_c, 0, 60, 127
1, 127785, Note_on_c, 12, 59, 127
1, 127785, Note_on_c, 8, 68, 127
1, 127883, Note_off_c, 8, 68, 127
1, 127883, Note_off_c, 12, 59, 127
1, 127885, Note_on_c, 0, 60, 127
1, 127885, Note_on_c, 10, 69, 127
1, 127983, Note_off_c, 10, 69, 127
1, 127985, Note_on_c, 4, 64, 127
1, 128083, Note_off_c, 4, 64, 127
1, 128083, Note_off_c, 0, 60, 127
1, 128085, Note_on_c, 0, 48, 127
1, 128085, Note_on_c, 6, 66, 127
1, 128183, Note_off_c, 6, 66, 127
1, 128185, Note_on_c, 8, 68, 127
1, 128283, Note_off_c, 8, 68, 127
1, 128283, Note_off_c, 0, 48, 127
1, 128285, Note_on_c, 0, 60, 127
1, 128285, Note_on_c, 10, 69, 127
1, 128383, Note_off_c, 10, 69, 127
1, 128385, Note_on_c, 8, 68, 127
1, 128483, Note_off_c, 8, 68, 127
1, 128485, Note_on_c, 6, 66, 127
1, 128583, Note_off_c, 6, 66, 127
1, 128585, Note_on_c, 4, 64, 127
1, 128683, Note_off_c, 4, 64, 127
1, 128685, Note_on_c, 10, 69, 127
1, 128783, Note_off_c, 10, 69, 127
1, 128785, Note_on_c, 7, 67, 127
1, 128883, Note_off_c, 7, 67, 127
1, 128884, Note_on_c, 5, 65, 127
1, 128982, Note_off_c, 5, 65, 127
1, 128984, Note_on_c, 4, 64, 127
1, 129082, Note_off_c, 4, 64, 127
1, 129084, Note_on_c, 2, 62, 127
1, 129159, Note_off_c, 0, 60, 127
1, 129184, Note_on_c, 0, 60, 127
1, 129282, Note_off_c, 0, 60, 127
1, 129282, Note_off_c, 2, 62, 127
1, 129284, Note_on_c, 12, 59, 127
1, 129284, Note_on_c, 8, 68, 127
1, 129382, Note_off_c, 8, 68, 127
1, 129382, Note_off_c, 12, 59, 127
1, 129384, Note_on_c, 10, 57, 127
1, 129384, Note_on_c, 10, 69, 127
1, 129482, Note_off_c, 10, 69, 127
1, 129482, Note_off_c, 10, 57, 127
1, 129484, Note_on_c, 8, 56, 127
1, 129484, Note_on_c, 12, 71, 127
1, 129582, Note_off_c, 8, 56, 127
1, 129584, Note_on_c, 10, 57, 127
1, 129682, Note_off_c, 10, 57, 127
1, 129684, Note_on_c, 12, 59, 127
1, 129782, Note_off_c, 12, 59, 127
1, 129784, Note_on_c, 10, 57, 127
1, 129882, Note_off_c, 10, 57, 127
1, 129884, Note_on_c, 8, 56, 127
1, 129982, Note_off_c, 8, 56, 127
1, 129983, Note_on_c, 6, 54, 127
1, 130081, Note_off_c, 6, 54, 127
1, 130083, Note_on_c, 4, 52, 127
1, 130181, Note_off_c, 4, 52, 127
1, 130183, Note_on_c, 2, 50, 127
1, 130281, Note_off_c, 2, 50, 127
1, 130283, Note_on_c, 0, 48, 127
1, 130358, Note_off_c, 12, 71, 127
1, 130381, Note_off_c, 0, 48, 127
1, 130383, Note_on_c, 4, 52, 127
1, 130383, Note_on_c, 10, 69, 127
1, 130481, Note_off_c, 10, 69, 127
1, 130481, Note_off_c, 4, 52, 127
1, 130483, Note_on_c, 2, 50, 127
1, 130483, Note_on_c, 12, 71, 127
1, 130581, Note_off_c, 12, 71, 127
1, 130581, Note_off_c, 2, 50, 127
1, 130583, Note_on_c, 0, 48, 127
1, 130583, Note_on_c, 0, 72, 127
1, 130681, Note_off_c, 0, 72, 127
1, 130681, Note_off_c, 0, 48, 127
1, 130683, Note_on_c, 12, 47, 127
1, 130683, Note_on_c, 2, 74, 127
1, 130781, Note_off_c, 12, 47, 127
1, 130783, Note_on_c, 0, 48, 127
1, 130881, Note_off_c, 0, 48, 127
1, 130883, Note_on_c, 2, 50, 127
1, 130981, Note_off_c, 2, 50, 127
1, 130983, Note_on_c, 0, 48, 127
1, 131081, Note_off_c, 0, 48, 127
1, 131082, Note_on_c, 12, 47, 127
1, 131180, Note_off_c, 12, 47, 127
1, 131182, Note_on_c, 10, 45, 127
1, 131280, Note_off_c, 10, 45, 127
1, 131282, Note_on_c, 8, 44, 127
1, 131380, Note_off_c, 8, 44, 127
1, 131382, Note_on_c, 6, 42, 127
1, 131480, Note_off_c, 6, 42, 127
1, 131482, Note_on_c, 4, 40, 127
1, 131557, Note_off_c, 2, 74, 127
1, 131582, Note_on_c, 0, 72, 127
1, 131680, Note_off_c, 0, 72, 127
1, 131680, Note_off_c, 4, 40, 127
1, 131682, Note_on_c, 8, 44, 127
1, 131682, Note_on_c, 12, 71, 127
1, 131780, Note_off_c, 12, 71, 127
1, 131782, Note_on_c, 10, 69, 127
1, 131880, Note_off_c, 10, 69, 127
1, 131880, Note_off_c, 8, 44, 127
1, 131882, Note_on_c, 12, 47, 127
1, 131882, Note_on_c, 8, 68, 127
1, 131980, Note_off_c, 8, 68, 127
1, 131982, Note_on_c, 10, 69, 127
1, 132080, Note_off_c, 10, 69, 127
1, 132080, Note_off_c, 12, 47, 127
1, 132082, Note_on_c, 2, 50, 127
1, 132082, Note_on_c, 12, 71, 127
1, 132180, Note_off_c, 12, 71, 127
1, 132181, Note_on_c, 10, 69, 127
1, 132279, Note_off_c, 10, 69, 127
1, 132280, Note_off_c, 2, 50, 127
1, 132281, Note_on_c, 4, 52, 127
1, 132281, Note_on_c, 8, 68, 127
1, 132379, Note_off_c, 8, 68, 127
1, 132381, Note_on_c, 5, 65, 127
1, 132479, Note_off_c, 5, 65, 127
1, 132479, Note_off_c, 4, 52, 127
1, 132481, Note_on_c, 8, 56, 127
1, 132481, Note_on_c, 4, 64, 127
1, 132579, Note_off_c, 4, 64, 127
1, 132581, Note_on_c, 2, 62, 127
1, 132679, Note_off_c, 2, 62, 127
1, 132679, Note_off_c, 8, 56, 127
1, 132681, Note_on_c, 10, 57, 127
1, 132681, Note_on_c, 0, 60, 127
1, 132681, Note_on_c, 10, 69, 127
1, 132879, Note_off_c, 10, 69, 127
1, 132881, Note_on_c, 8, 68, 127
1, 133079, Note_off_c, 8, 68, 127
1, 133079, Note_off_c, 0, 60, 127
1, 133079, Note_off_c, 10, 57, 127
1, 133081, Note_on_c, 0, 48, 127
1, 133081, Note_on_c, 10, 57, 127
1, 133081, Note_on_c, 10, 69, 127
1, 133279, Note_off_c, 10, 69, 127
1, 133280, Note_on_c, 4, 64, 127
1, 133478, Note_off_c, 4, 64, 127
1, 133479, Note_off_c, 10, 57, 127
1, 133479, Note_off_c, 0, 48, 127
1, 133480, Note_on_c, 4, 52, 127
1, 133480, Note_on_c, 8, 56, 127
1, 133480, Note_on_c, 12, 71, 127
1, 133678, Note_off_c, 12, 71, 127
1, 133680, Note_on_c, 4, 64, 127
1, 133878, Note_off_c, 4, 64, 127
1, 133878, Note_off_c, 8, 56, 127
1, 133878, Note_off_c, 4, 52, 127
1, 133880, Note_on_c, 10, 45, 127
1, 133880, Note_on_c, 10, 57, 127
1, 133880, Note_on_c, 0, 72, 127
1, 133978, Note_off_c, 10, 57, 127
1, 133980, Note_on_c, 4, 52, 127
1, 134078, Note_off_c, 4, 52, 127
1, 134080, Note_on_c, 6, 54, 127
1, 134178, Note_off_c, 6, 54, 127
1, 134180, Note_on_c, 8, 56, 127
1, 134278, Note_off_c, 8, 56, 127
1, 134280, Note_on_c, 10, 57, 127
1, 134378, Note_off_c, 10, 57, 127
1, 134379, Note_off_c, 0, 72, 127
1, 134379, Note_off_c, 10, 45, 127
1, 134379, Note_on_c, 4, 52, 127
1, 134477, Note_off_c, 4, 52, 127
1, 134479, Note_on_c, 6, 54, 127
1, 134577, Note_off_c, 6, 54, 127
1, 134579, Note_on_c, 8, 56, 127
1, 134677, Note_off_c, 8, 56, 127
1, 134679, Note_on_c, 10, 57, 127
1, 134777, Note_off_c, 10, 57, 127
1, 134779, Note_on_c, 12, 59, 127
1, 134877, Note_off_c, 12, 59, 127
1, 134879, Note_on_c, 0, 60, 127
1, 134977, Note_off_c, 0, 60, 127
1, 134979, Note_on_c, 2, 62, 127
1, 135077, Note_off_c, 2, 62, 127
1, 135079, Note_on_c, 4, 64, 127
1, 135079, Note_on_c, 12, 71, 127
1, 135277, Note_off_c, 12, 71, 127
1, 135279, Note_on_c, 10, 69, 127
1, 135477, Note_off_c, 10, 69, 127
1, 135477, Note_off_c, 4, 64, 127
1, 135478, Note_on_c, 8, 56, 127
1, 135478, Note_on_c, 2, 62, 127
1, 135478, Note_on_c, 12, 71, 127
1, 135676, Note_off_c, 12, 71, 127
1, 135678, Note_on_c, 4, 64, 127
1, 135876, Note_off_c, 4, 64, 127
1, 135876, Note_off_c, 2, 62, 127
1, 135876, Note_off_c, 8, 56, 127
1, 135878, Note_on_c, 10, 57, 127
1, 135878, Note_on_c, 0, 60, 127
1, 135878, Note_on_c, 0, 72, 127
1, 136076, Note_off_c, 0, 72, 127
1, 136078, Note_on_c, 4, 64, 127
1, 136276, Note_off_c, 4, 64, 127
1, 136276, Note_off_c, 0, 60, 127
1, 136278, Note_on_c, 12, 59, 127
1, 136278, Note_on_c, 2, 74, 127
1, 136376, Note_off_c, 12, 59, 127
1, 136378, Note_on_c, 10, 69, 127
1, 136476, Note_off_c, 10, 69, 127
1, 136476, Note_off_c, 10, 57, 127
1, 136478, Note_on_c, 12, 59, 127
1, 136478, Note_on_c, 8, 68, 127
1, 136576, Note_off_c, 8, 68, 127
1, 136576, Note_off_c, 12, 59, 127
1, 136578, Note_on_c, 10, 57, 127
1, 136578, Note_on_c, 6, 66, 127
1, 136676, Note_off_c, 6, 66, 127
1, 136676, Note_off_c, 10, 57, 127
1, 136677, Note_on_c, 8, 56, 127
1, 136677, Note_on_c, 4, 64, 127
1, 136775, Note_off_c, 4, 64, 127
1, 136777, Note_off_c, 2, 74, 127
1, 136777, Note_on_c, 10, 69, 127
1, 136875, Note_off_c, 10, 69, 127
1, 136875, Note_off_c, 8, 56, 127
1, 136877, Note_on_c, 12, 59, 127
1, 136877, Note_on_c, 8, 68, 127
1, 136975, Note_off_c, 8, 68, 127
1, 136977, Note_on_c, 6, 66, 127
1, 137075, Note_off_c, 6, 66, 127
1, 137075, Note_off_c, 12, 59, 127
1, 137077, Note_on_c, 8, 56, 127
1, 137077, Note_on_c, 4, 64, 127
1, 137175, Note_off_c, 4, 64, 127
1, 137177, Note_on_c, 2, 62, 127
1, 137275, Note_off_c, 2, 62, 127
1, 137275, Note_off_c, 8, 56, 127
1, 137277, Note_on_c, 4, 52, 127
1, 137277, Note_on_c, 0, 60, 127
1, 137375, Note_off_c, 0, 60, 127
1, 137377, Note_on_c, 12, 59, 127
1, 137475, Note_off_c, 12, 59, 127
1, 137475, Note_off_c, 4, 52, 127
1, 137477, Note_on_c, 10, 57, 127
1, 137477, Note_on_c, 0, 72, 127
1, 137675, Note_off_c, 0, 72, 127
1, 137675, Note_off_c, 10, 57, 127
1, 137677, Note_on_c, 8, 56, 127
1, 137677, Note_on_c, 12, 71, 127
1, 137775, Note_off_c, 8, 56, 127
1, 137776, Note_on_c, 6, 54, 127
1, 137874, Note_off_c, 6, 54, 127
1, 137875, Note_off_c, 12, 71, 127
1, 137876, Note_on_c, 4, 52, 127
1, 137876, Note_on_c, 0, 72, 127
1, 137974, Note_off_c, 4, 52, 127
1, 137976, Note_on_c, 10, 57, 127
1, 138074, Note_off_c, 10, 57, 127
1, 138074, Note_off_c, 0, 72, 127
1, 138076, Note_on_c, 8, 56, 127
1, 138076, Note_on_c, 10, 69, 127
1, 138174, Note_off_c, 8, 56, 127
1, 138176, Note_on_c, 6, 54, 127
1, 138274, Note_off_c, 6, 54, 127
1, 138274, Note_off_c, 10, 69, 127
1, 138276, Note_on_c, 4, 52, 127
1, 138276, Note_on_c, 2, 74, 127
1, 138374, Note_off_c, 4, 52, 127
1, 138376, Note_on_c, 2, 50, 127
1, 138474, Note_off_c, 2, 50, 127
1, 138474, Note_off_c, 2, 74, 127
1, 138476, Note_on_c, 0, 48, 127
1, 138476, Note_on_c, 10, 69, 127
1, 138574, Note_off_c, 0, 48, 127
1, 138576, Note_on_c, 12, 47, 127
1, 138674, Note_off_c, 12, 47, 127
1, 138674, Note_off_c, 10, 69, 127
1, 138676, Note_on_c, 10, 45, 127
1, 138676, Note_on_c, 4, 76, 127
1, 138874, Note_off_c, 4, 76, 127
1, 138875, Note_on_c, 10, 57, 127
1, 138875, Note_on_c, 0, 72, 127
1, 139046, Note_off_c, 10, 45, 127
1, 139073, Note_off_c, 0, 72, 127
1, 139073, Note_off_c, 10, 57, 127
1, 139075, Note_on_c, 0, 60, 127
1, 139075, Note_on_c, 4, 76, 127
1, 139273, Note_off_c, 4, 76, 127
1, 139273, Note_off_c, 0, 60, 127
1, 139275, Note_on_c, 4, 64, 127
1, 139275, Note_on_c, 12, 71, 127
1, 139473, Note_off_c, 12, 71, 127
1, 139473, Note_off_c, 4, 64, 127
1, 139475, Note_on_c, 5, 65, 127
1, 139475, Note_on_c, 10, 69, 127
1, 139673, Note_off_c, 10, 69, 127
1, 139675, Note_on_c, 10, 57, 127
1, 139675, Note_on_c, 5, 77, 127
1, 139766, Note_off_c, 5, 65, 127
1, 139873, Note_off_c, 5, 77, 127
1, 139873, Note_off_c, 10, 57, 127
1, 139875, Note_on_c, 12, 59, 127
1, 139875, Note_on_c, 2, 74, 127
1, 140073, Note_off_c, 2, 74, 127
1, 140074, Note_on_c, 2, 62, 127
1, 140074, Note_on_c, 12, 71, 127
1, 140166, Note_off_c, 12, 59, 127
1, 140272, Note_off_c, 12, 71, 127
1, 140272, Note_off_c, 2, 62, 127
1, 140274, Note_on_c, 5, 65, 127
1, 140274, Note_on_c, 2, 74, 127
1, 140472, Note_off_c, 2, 74, 127
1, 140472, Note_off_c, 5, 65, 127
1, 140474, Note_on_c, 2, 62, 127
1, 140474, Note_on_c, 10, 69, 127
1, 140672, Note_off_c, 10, 69, 127
1, 140672, Note_off_c, 2, 62, 127
1, 140674, Note_on_c, 12, 59, 127
1, 140674, Note_on_c, 8, 68, 127
1, 140872, Note_off_c, 8, 68, 127
1, 140874, Note_on_c, 8, 56, 127
1, 140874, Note_on_c, 4, 76, 127
1, 140965, Note_off_c, 12, 59, 127
1, 141072, Note_off_c, 4, 76, 127
1, 141072, Note_off_c, 8, 56, 127
1, 141073, Note_on_c, 10, 57, 127
1, 141073, Note_on_c, 0, 72, 127
1, 141271, Note_off_c, 0, 72, 127
1, 141273, Note_on_c, 0, 60, 127
1, 141273, Note_on_c, 10, 69, 127
1, 141364, Note_off_c, 10, 57, 127
1, 141471, Note_off_c, 10, 69, 127
1, 141471, Note_off_c, 0, 60, 127
1, 141473, Note_on_c, 12, 59, 127
1, 141473, Note_on_c, 2, 74, 127
1, 141671, Note_off_c, 2, 74, 127
1, 141671, Note_off_c, 12, 59, 127
1, 141673, Note_on_c, 4, 64, 127
1, 141673, Note_on_c, 0, 72, 127
1, 141871, Note_off_c, 0, 72, 127
1, 141871, Note_off_c, 4, 64, 127
1, 141873, Note_on_c, 2, 62, 127
1, 141873, Note_on_c, 12, 71, 127
1, 142071, Note_off_c, 12, 71, 127
1, 142071, Note_off_c, 2, 62, 127
1, 142073, Note_on_c, 2, 50, 127
1, 142073, Note_on_c, 5, 65, 127
1, 142073, Note_on_c, 10, 69, 127
1, 142271, Note_off_c, 10, 69, 127
1, 142271, Note_off_c, 5, 65, 127
1, 142271, Note_off_c, 2, 50, 127
1, 142272, Note_on_c, 4, 52, 127
1, 142272, Note_on_c, 4, 64, 127
1, 142272, Note_on_c, 8, 68, 127
1, 142370, Note_off_c, 4, 52, 127
1, 142372, Note_on_c, 12, 59, 127
1, 142469, Note_off_c, 8, 68, 127
1, 142470, Note_off_c, 12, 59, 127
1, 142470, Note_off_c, 4, 64, 127
1, 142472, Note_on_c, 0, 60, 127
1, 142472, Note_on_c, 12, 71, 127
1, 142570, Note_off_c, 0, 60, 127
1, 142572, Note_on_c, 2, 62, 127
1, 142670, Note_off_c, 2, 62, 127
1, 142670, Note_off_c, 12, 71, 127
1, 142672, Note_on_c, 4, 64, 127
1, 142672, Note_on_c, 8, 68, 127
1, 142770, Note_off_c, 4, 64, 127
1, 142772, Note_on_c, 2, 62, 127
1, 142870, Note_off_c, 2, 62, 127
1, 142870, Note_off_c, 8, 68, 127
1, 142872, Note_on_c, 0, 60, 127
1, 142872, Note_on_c, 4, 64, 127
1, 142970, Note_off_c, 0, 60, 127
1, 142972, Note_on_c, 12, 59, 127
1, 143070, Note_off_c, 12, 59, 127
1, 143070, Note_off_c, 4, 64, 127
1, 143072, Note_on_c, 0, 60, 127
1, 143072, Note_on_c, 4, 76, 127
1, 143170, Note_off_c, 0, 60, 127
1, 143172, Note_on_c, 12, 59, 127
1, 143270, Note_off_c, 12, 59, 127
1, 143270, Note_off_c, 4, 76, 127
1, 143271, Note_on_c, 10, 57, 127
1, 143271, Note_on_c, 12, 71, 127
1, 143369, Note_off_c, 10, 57, 127
1, 143371, Note_on_c, 8, 56, 127
1, 143469, Note_off_c, 8, 56, 127
1, 143469, Note_off_c, 12, 71, 127
1, 143471, Note_on_c, 10, 57, 127
1, 143471, Note_on_c, 0, 72, 127
1, 143569, Note_off_c, 10, 57, 127
1, 143571, Note_on_c, 4, 52, 127
1, 143669, Note_off_c, 4, 52, 127
1, 143671, Note_on_c, 6, 54, 127
1, 143671, Note_on_c, 4, 76, 127
1, 143762, Note_off_c, 0, 72, 127
1, 143769, Note_off_c, 6, 54, 127
1, 143771, Note_on_c, 8, 56, 127
1, 143869, Note_off_c, 8, 56, 127
1, 143869, Note_off_c, 4, 76, 127
1, 143871, Note_on_c, 10, 57, 127
1, 143871, Note_on_c, 0, 72, 127
1, 143969, Note_off_c, 10, 57, 127
1, 143971, Note_on_c, 7, 55, 127
1, 144069, Note_off_c, 7, 55, 127
1, 144069, Note_off_c, 0, 72, 127
1, 144071, Note_on_c, 5, 53, 127
1, 144071, Note_on_c, 10, 69, 127
1, 144169, Note_off_c, 5, 53, 127
1, 144171, Note_on_c, 4, 52, 127
1, 144269, Note_off_c, 4, 52, 127
1, 144269, Note_off_c, 10, 69, 127
1, 144271, Note_on_c, 5, 53, 127
1, 144271, Note_on_c, 10, 81, 127
1, 144369, Note_off_c, 5, 53, 127
1, 144370, Note_on_c, 4, 52, 127
1, 144468, Note_off_c, 4, 52, 127
1, 144469, Note_off_c, 10, 81, 127
1, 144470, Note_on_c, 2, 50, 127
1, 144470, Note_on_c, 4, 76, 127
1, 144568, Note_off_c, 2, 50, 127
1, 144570, Note_on_c, 1, 49, 127
1, 144668, Note_off_c, 1, 49, 127
1, 144668, Note_off_c, 4, 76, 127
1, 144670, Note_on_c, 2, 50, 127
1, 144670, Note_on_c, 5, 77, 127
1, 144768, Note_off_c, 2, 50, 127
1, 144770, Note_on_c, 10, 57, 127
1, 144868, Note_off_c, 10, 57, 127
1, 144870, Note_on_c, 12, 59, 127
1, 144870, Note_on_c, 10, 69, 127
1, 144961, Note_off_c, 5, 77, 127
1, 144968, Note_off_c, 12, 59, 127
1, 144970, Note_on_c, 0, 60, 127
1, 145068, Note_off_c, 0, 60, 127
1, 145068, Note_off_c, 10, 69, 127
1, 145070, Note_on_c, 2, 62, 127
1, 145070, Note_on_c, 5, 65, 127
1, 145168, Note_off_c, 2, 62, 127
1, 145170, Note_on_c, 0, 60, 127
1, 145268, Note_off_c, 0, 60, 127
1, 145268, Note_off_c, 5, 65, 127
1, 145270, Note_on_c, 12, 59, 127
1, 145270, Note_on_c, 2, 62, 127
1, 145368, Note_off_c, 12, 59, 127
1, 145370, Note_on_c, 10, 57, 127
1, 145468, Note_off_c, 10, 57, 127
1, 145468, Note_off_c, 2, 62, 127
1, 145469, Note_on_c, 12, 59, 127
1, 145469, Note_on_c, 2, 74, 127
1, 145567, Note_off_c, 12, 59, 127
1, 145569, Note_on_c, 10, 57, 127
1, 145667, Note_off_c, 10, 57, 127
1, 145667, Note_off_c, 2, 74, 127
1, 145669, Note_on_c, 7, 55, 127
1, 145669, Note_on_c, 10, 69, 127
1, 145767, Note_off_c, 7, 55, 127
1, 145769, Note_on_c, 6, 54, 127
1, 145867, Note_off_c, 6, 54, 127
1, 145867, Note_off_c, 10, 69, 127
1, 145869, Note_on_c, 7, 55, 127
1, 145869, Note_on_c, 12, 71, 127
1, 145967, Note_off_c, 7, 55, 127
1, 145969, Note_on_c, 2, 50, 127
1, 146067, Note_off_c, 2, 50, 127
1, 146069, Note_on_c, 4, 52, 127
1, 146069, Note_on_c, 2, 74, 127
1, 146160, Note_off_c, 12, 71, 127
1, 146167, Note_off_c, 4, 52, 127
1, 146169, Note_on_c, 6, 54, 127
1, 146267, Note_off_c, 6, 54, 127
1, 146267, Note_off_c, 2, 74, 127
1, 146269, Note_on_c, 7, 55, 127
1, 146269, Note_on_c, 12, 71, 127
1, 146367, Note_off_c, 7, 55, 127
1, 146369, Note_on_c, 5, 53, 127
1, 146467, Note_off_c, 5, 53, 127
1, 146467, Note_off_c, 12, 71, 127
1, 146469, Note_on_c, 4, 52, 127
1, 146469, Note_on_c, 7, 67, 127
1, 146567, Note_off_c, 4, 52, 127
1, 146569, Note_on_c, 2, 50, 127
1, 146667, Note_off_c, 2, 50, 127
1, 146667, Note_off_c, 7, 67, 127
1, 146668, Note_on_c, 4, 52, 127
1, 146668, Note_on_c, 7, 79, 127
1, 146766, Note_off_c, 4, 52, 127
1, 146768, Note_on_c, 2, 50, 127
1, 146866, Note_off_c, 2, 50, 127
1, 146866, Note_off_c, 7, 79, 127
1, 146868, Note_on_c, 0, 48, 127
1, 146868, Note_on_c, 2, 74, 127
1, 146966, Note_off_c, 0, 48, 127
1, 146968, Note_on_c, 12, 47, 127
1, 147066, Note_off_c, 12, 47, 127
1, 147066, Note_off_c, 2, 74, 127
1, 147068, Note_on_c, 0, 48, 127
1, 147068, Note_on_c, 4, 76, 127
1, 147166, Note_off_c, 4, 76, 127
1, 147168, Note_on_c, 7, 79, 127
1, 147266, Note_off_c, 0, 48, 127
1, 147268, Note_on_c, 12, 47, 127
1, 147268, Note_on_c, 10, 81, 127
1, 147271, Note_off_c, 7, 79, 127
1, 147368, Note_on_c, 7, 79, 127
1, 147371, Note_off_c, 10, 81, 127
1, 147452, Note_off_c, 12, 47, 127
1, 147468, Note_on_c, 0, 48, 127
1, 147468, Note_on_c, 5, 77, 127
1, 147471, Note_off_c, 7, 79, 127
1, 147568, Note_on_c, 4, 76, 127
1, 147571, Note_off_c, 5, 77, 127
1, 147652, Note_off_c, 0, 48, 127
1, 147668, Note_on_c, 7, 43, 127
1, 147668, Note_on_c, 2, 74, 127
1, 147671, Note_off_c, 4, 76, 127
1, 147767, Note_on_c, 0, 72, 127
1, 147771, Note_off_c, 2, 74, 127
1, 147852, Note_off_c, 7, 43, 127
1, 147867, Note_on_c, 2, 50, 127
1, 147867, Note_on_c, 12, 71, 127
1, 147870, Note_off_c, 0, 72, 127
1, 147967, Note_on_c, 2, 74, 127
1, 147970, Note_off_c, 12, 71, 127
1, 148051, Note_off_c, 2, 50, 127
1, 148067, Note_on_c, 7, 43, 127
1, 148067, Note_on_c, 0, 72, 127
1, 148070, Note_off_c, 2, 74, 127
1, 148167, Note_on_c, 12, 71, 127
1, 148170, Note_off_c, 0, 72, 127
1, 148251, Note_off_c, 7, 43, 127
1, 148267, Note_on_c, 4, 52, 127
1, 148267, Note_on_c, 0, 72, 127
1, 148270, Note_off_c, 12, 71, 127
1, 148367, Note_on_c, 2, 74, 127
1, 148370, Note_off_c, 0, 72, 127
1, 148451, Note_off_c, 4, 52, 127
1, 148467, Note_on_c, 7, 55, 127
1, 148467, Note_on_c, 4, 76, 127
1, 148470, Note_off_c, 2, 74, 127
1, 148567, Note_on_c, 2, 74, 127
1, 148570, Note_off_c, 4, 76, 127
1, 148651, Note_off_c, 7, 55, 127
1, 148667, Note_on_c, 4, 52, 127
1, 148667, Note_on_c, 0, 72, 127
1, 148670, Note_off_c, 2, 74, 127
1, 148767, Note_on_c, 12, 71, 127
1, 148770, Note_off_c, 0, 72, 127
1, 148851, Note_off_c, 4, 52, 127
1, 148866, Note_on_c, 0, 48, 127
1, 148866, Note_on_c, 10, 69, 127
1, 148870, Note_off_c, 12, 71, 127
1, 148966, Note_on_c, 7, 67, 127
1, 148969, Note_off_c, 10, 69, 127
1, 149050, Note_off_c, 0, 48, 127
1, 149066, Note_on_c, 10, 45, 127
1, 149066, Note_on_c, 6, 66, 127
1, 149069, Note_off_c, 7, 67, 127
1, 149166, Note_on_c, 4, 64, 127
1, 149169, Note_off_c, 6, 66, 127
1, 149250, Note_off_c, 10, 45, 127
1, 149266, Note_on_c, 6, 54, 127
1, 149266, Note_on_c, 2, 62, 127
1, 149269, Note_off_c, 4, 64, 127
1, 149366, Note_on_c, 0, 60, 127
1, 149369, Note_off_c, 2, 62, 127
1, 149450, Note_off_c, 6, 54, 127
1, 149466, Note_on_c, 7, 55, 127
1, 149466, Note_on_c, 12, 59, 127
1, 149469, Note_off_c, 0, 60, 127
1, 149566, Note_on_c, 10, 57, 127
1, 149569, Note_off_c, 12, 59, 127
1, 149650, Note_off_c, 7, 55, 127
1, 149666, Note_on_c, 6, 54, 127
1, 149666, Note_on_c, 7, 55, 127
1, 149669, Note_off_c, 10, 57, 127
1, 149766, Note_on_c, 10, 57, 127
1, 149769, Note_off_c, 7, 55, 127
1, 149850, Note_off_c, 6, 54, 127
1, 149866, Note_on_c, 7, 55, 127
1, 149866, Note_on_c, 12, 59, 127
1, 149869, Note_off_c, 10, 57, 127
1, 149965, Note_on_c, 0, 60, 127
1, 149969, Note_off_c, 12, 59, 127
1, 150050, Note_off_c, 7, 55, 127
1, 150065, Note_on_c, 2, 50, 127
1, 150065, Note_on_c, 2, 62, 127
1, 150068, Note_off_c, 0, 60, 127
1, 150165, Note_on_c, 4, 64, 127
1, 150168, Note_off_c, 2, 62, 127
1, 150249, Note_off_c, 2, 50, 127
1, 150265, Note_on_c, 10, 57, 127
1, 150265, Note_on_c, 6, 66, 127
1, 150268, Note_off_c, 4, 64, 127
1, 150365, Note_on_c, 10, 69, 127
1, 150368, Note_off_c, 6, 66, 127
1, 150449, Note_off_c, 10, 57, 127
1, 150465, Note_on_c, 2, 50, 127
1, 150465, Note_on_c, 7, 67, 127
1, 150468, Note_off_c, 10, 69, 127
1, 150565, Note_on_c, 6, 66, 127
1, 150568, Note_off_c, 7, 67, 127
1, 150649, Note_off_c, 2, 50, 127
1, 150665, Note_on_c, 12, 59, 127
1, 150665, Note_on_c, 7, 67, 127
1, 150668, Note_off_c, 6, 66, 127
1, 150765, Note_on_c, 10, 69, 127
1, 150768, Note_off_c, 7, 67, 127
1, 150849, Note_off_c, 12, 59, 127
1, 150865, Note_on_c, 2, 62, 127
1, 150865, Note_on_c, 12, 71, 127
1, 150868, Note_off_c, 10, 69, 127
1, 150965, Note_on_c, 0, 72, 127
1, 150968, Note_off_c, 12, 71, 127
1, 151049, Note_off_c, 2, 62, 127
1, 151064, Note_on_c, 12, 59, 127
1, 151064, Note_on_c, 2, 74, 127
1, 151068, Note_off_c, 0, 72, 127
1, 151164, Note_on_c, 4, 76, 127
1, 151167, Note_off_c, 2, 74, 127
1, 151248, Note_off_c, 12, 59, 127
1, 151264, Note_on_c, 7, 55, 127
1, 151264, Note_on_c, 5, 77, 127
1, 151267, Note_off_c, 4, 76, 127
1, 151364, Note_on_c, 7, 79, 127
1, 151367, Note_off_c, 5, 77, 127
1, 151448, Note_off_c, 7, 55, 127
1, 151464, Note_on_c, 4, 52, 127
1, 151464, Note_on_c, 1, 73, 127
1, 151467, Note_off_c, 7, 79, 127
1, 151564, Note_on_c, 7, 79, 127
1, 151567, Note_off_c, 1, 73, 127
1, 151648, Note_off_c, 4, 52, 127
1, 151664, Note_on_c, 1, 61, 127
1, 151664, Note_on_c, 5, 77, 127
1, 151667, Note_off_c, 7, 79, 127
1, 151764, Note_on_c, 4, 76, 127
1, 151767, Note_off_c, 5, 77, 127
1, 151848, Note_off_c, 1, 61, 127
1, 151864, Note_on_c, 2, 50, 127
1, 151864, Note_on_c, 5, 77, 127
1, 151867, Note_off_c, 4, 76, 127
1, 151964, Note_on_c, 10, 81, 127
1, 151967, Note_off_c, 5, 77, 127
1, 152048, Note_off_c, 2, 50, 127
1, 152056, Note_off_c, 10, 81, 127
1, 152064, Note_on_c, 1, 49, 127
1, 152064, Note_on_c, 11, 82, 127
1, 152156, Note_off_c, 11, 82, 127
1, 152163, Note_on_c, 10, 81, 127
1, 152255, Note_off_c, 10, 81, 127
1, 152263, Note_on_c, 2, 50, 127
1, 152263, Note_on_c, 7, 79, 127
1, 152264, Note_off_c, 1, 49, 127
1, 152355, Note_off_c, 7, 79, 127
1, 152363, Note_on_c, 5, 77, 127
1, 152455, Note_off_c, 5, 77, 127
1, 152463, Note_off_c, 2, 50, 127
1, 152463, Note_on_c, 10, 45, 127
1, 152463, Note_on_c, 4, 76, 127
1, 152555, Note_off_c, 4, 76, 127
1, 152563, Note_on_c, 2, 74, 127
1, 152655, Note_off_c, 2, 74, 127
1, 152663, Note_off_c, 10, 45, 127
1, 152663, Note_on_c, 4, 52, 127
1, 152663, Note_on_c, 1, 73, 127
1, 152755, Note_off_c, 1, 73, 127
1, 152763, Note_on_c, 4, 76, 127
1, 152855, Note_off_c, 4, 76, 127
1, 152863, Note_off_c, 4, 52, 127
1, 152863, Note_on_c, 10, 45, 127
1, 152863, Note_on_c, 2, 74, 127
1, 152955, Note_off_c, 2, 74, 127
1, 152963, Note_on_c, 1, 73, 127
1, 153055, Note_off_c, 1, 73, 127
1, 153063, Note_off_c, 10, 45, 127
1, 153063, Note_on_c, 5, 53, 127
1, 153063, Note_on_c, 2, 74, 127
1, 153155, Note_off_c, 2, 74, 127
1, 153163, Note_on_c, 4, 76, 127
1, 153255, Note_off_c, 4, 76, 127
1, 153262, Note_on_c, 10, 57, 127
1, 153262, Note_on_c, 5, 77, 127
1, 153263, Note_off_c, 5, 53, 127
1, 153354, Note_off_c, 5, 77, 127
1, 153362, Note_on_c, 4, 76, 127
1, 153454, Note_off_c, 4, 76, 127
1, 153462, Note_off_c, 10, 57, 127
1, 153462, Note_on_c, 5, 53, 127
1, 153462, Note_on_c, 2, 74, 127
1, 153554, Note_off_c, 2, 74, 127
1, 153562, Note_on_c, 0, 72, 127
1, 153654, Note_off_c, 0, 72, 127
1, 153662, Note_off_c, 5, 53, 127
1, 153662, Note_on_c, 2, 50, 127
1, 153662, Note_on_c, 12, 71, 127
1, 153754, Note_off_c, 12, 71, 127
1, 153762, Note_on_c, 10, 69, 127
1, 153854, Note_off_c, 10, 69, 127
1, 153862, Note_off_c, 2, 50, 127
1, 153862, Note_on_c, 12, 47, 127
1, 153862, Note_on_c, 8, 68, 127
1, 153954, Note_off_c, 8, 68, 127
1, 153962, Note_on_c, 6, 66, 127
1, 154054, Note_off_c, 6, 66, 127
1, 154062, Note_off_c, 12, 47, 127
1, 154062, Note_on_c, 8, 56, 127
1, 154062, Note_on_c, 4, 64, 127
1, 154154, Note_off_c, 4, 64, 127
1, 154162, Note_on_c, 2, 62, 127
1, 154254, Note_off_c, 2, 62, 127
1, 154262, Note_off_c, 8, 56, 127
1, 154262, Note_on_c, 10, 57, 127
1, 154262, Note_on_c, 0, 60, 127
1, 154354, Note_off_c, 0, 60, 127
1, 154361, Note_on_c, 12, 59, 127
1, 154453, Note_off_c, 12, 59, 127
1, 154458, Note_off_c, 10, 57, 127
1, 154461, Note_on_c, 8, 56, 127
1, 154461, Note_on_c, 10, 57, 127
1, 154553, Note_off_c, 10, 57, 127
1, 154561, Note_on_c, 12, 59, 127
1, 154653, Note_off_c, 12, 59, 127
1, 154661, Note_off_c, 8, 56, 127
1, 154661, Note_on_c, 10, 57, 127
1, 154661, Note_on_c, 0, 60, 127
1, 154753, Note_off_c, 0, 60, 127
1, 154761, Note_on_c, 2, 62, 127
1, 154853, Note_off_c, 2, 62, 127
1, 154861, Note_off_c, 10, 57, 127
1, 154861, Note_on_c, 4, 52, 127
1, 154861, Note_on_c, 4, 64, 127
1, 154953, Note_off_c, 4, 64, 127
1, 154961, Note_on_c, 6, 66, 127
1, 155053, Note_off_c, 6, 66, 127
1, 155061, Note_off_c, 4, 52, 127
1, 155061, Note_on_c, 12, 59, 127
1, 155061, Note_on_c, 8, 68, 127
1, 155153, Note_off_c, 8, 68, 127
1, 155161, Note_on_c, 12, 71, 127
1, 155253, Note_off_c, 12, 71, 127
1, 155261, Note_off_c, 12, 59, 127
1, 155261, Note_on_c, 4, 52, 127
1, 155261, Note_on_c, 10, 69, 127
1, 155353, Note_off_c, 10, 69, 127
1, 155361, Note_on_c, 8, 68, 127
1, 155453, Note_off_c, 8, 68, 127
1, 155460, Note_on_c, 0, 60, 127
1, 155460, Note_on_c, 10, 69, 127
1, 155461, Note_off_c, 4, 52, 127
1, 155552, Note_off_c, 10, 69, 127
1, 155560, Note_on_c, 12, 71, 127
1, 155652, Note_off_c, 12, 71, 127
1, 155660, Note_off_c, 0, 60, 127
1, 155660, Note_on_c, 4, 64, 127
1, 155660, Note_on_c, 0, 72, 127
1, 155752, Note_off_c, 0, 72, 127
1, 155760, Note_on_c, 2, 74, 127
1, 155852, Note_off_c, 2, 74, 127
1, 155860, Note_off_c, 4, 64, 127
1, 155860, Note_on_c, 0, 60, 127
1, 155860, Note_on_c, 4, 76, 127
1, 155952, Note_off_c, 4, 76, 127
1, 155960, Note_on_c, 6, 78, 127
1, 156052, Note_off_c, 6, 78, 127
1, 156060, Note_off_c, 0, 60, 127
1, 156060, Note_on_c, 10, 57, 127
1, 156060, Note_on_c, 7, 79, 127
1, 156152, Note_off_c, 7, 79, 127
1, 156160, Note_on_c, 10, 81, 127
1, 156252, Note_off_c, 10, 81, 127
1, 156260, Note_off_c, 10, 57, 127
1, 156260, Note_on_c, 6, 54, 127
1, 156260, Note_on_c, 3, 75, 127
1, 156352, Note_off_c, 3, 75, 127
1, 156360, Note_on_c, 10, 81, 127
1, 156452, Note_off_c, 10, 81, 127
1, 156460, Note_off_c, 6, 54, 127
1, 156460, Note_on_c, 3, 63, 127
1, 156460, Note_on_c, 7, 79, 127
1, 156552, Note_off_c, 7, 79, 127
1, 156560, Note_on_c, 6, 78, 127
1, 156652, Note_off_c, 6, 78, 127
1, 156659, Note_on_c, 4, 52, 127
1, 156659, Note_on_c, 7, 79, 127
1, 156660, Note_off_c, 3, 63, 127
1, 156757, Note_off_c, 7, 79, 127
1, 156759, Note_on_c, 12, 83, 127
1, 156857, Note_off_c, 12, 83, 127
1, 156857, Note_off_c, 4, 52, 127
1, 156859, Note_on_c, 3, 51, 127
1, 156859, Note_on_c, 0, 84, 127
1, 156957, Note_off_c, 0, 84, 127
1, 156959, Note_on_c, 12, 83, 127
1, 157057, Note_off_c, 12, 83, 127
1, 157057, Note_off_c, 3, 51, 127
1, 157059, Note_on_c, 4, 52, 127
1, 157059, Note_on_c, 10, 81, 127
1, 157157, Note_off_c, 10, 81, 127
1, 157159, Note_on_c, 7, 79, 127
1, 157257, Note_off_c, 7, 79, 127
1, 157257, Note_off_c, 4, 52, 127
1, 157259, Note_on_c, 12, 47, 127
1, 157259, Note_on_c, 6, 78, 127
1, 157357, Note_off_c, 6, 78, 127
1, 157359, Note_on_c, 4, 76, 127
1, 157457, Note_off_c, 4, 76, 127
1, 157457, Note_off_c, 12, 47, 127
1, 157459, Note_on_c, 6, 54, 127
1, 157459, Note_on_c, 3, 75, 127
1, 157557, Note_off_c, 3, 75, 127
1, 157559, Note_on_c, 6, 78, 127
1, 157657, Note_off_c, 6, 78, 127
1, 157657, Note_off_c, 6, 54, 127
1, 157659, Note_on_c, 12, 47, 127
1, 157659, Note_on_c, 4, 76, 127
1, 157757, Note_off_c, 4, 76, 127
1, 157758, Note_on_c, 3, 75, 127
1, 157856, Note_off_c, 3, 75, 127
1, 157857, Note_off_c, 12, 47, 127
1, 157858, Note_on_c, 7, 55, 127
1, 157858, Note_on_c, 4, 76, 127
1, 157956, Note_off_c, 4, 76, 127
1, 157958, Note_on_c, 6, 78, 127
1, 158056, Note_off_c, 6, 78, 127
1, 158058, Note_on_c, 7, 79, 127
1, 158156, Note_off_c, 7, 79, 127
1, 158158, Note_on_c, 6, 78, 127
1, 158256, Note_off_c, 6, 78, 127
1, 158258, Note_on_c, 4, 76, 127
1, 158356, Note_off_c, 4, 76, 127
1, 158358, Note_on_c, 2, 74, 127
1, 158456, Note_off_c, 2, 74, 127
1, 158458, Note_on_c, 0, 72, 127
1, 158556, Note_off_c, 0, 72, 127
1, 158558, Note_on_c, 12, 71, 127
1, 158656, Note_off_c, 12, 71, 127
1, 158656, Note_off_c, 7, 55, 127
1, 158658, Note_on_c, 10, 69, 127
1, 158756, Note_off_c, 10, 69, 127
1, 158758, Note_on_c, 7, 67, 127
1, 158856, Note_off_c, 7, 67, 127
1, 158857, Note_on_c, 6, 66, 127
1, 158955, Note_off_c, 6, 66, 127
1, 158957, Note_on_c, 4, 64, 127
1, 159055, Note_off_c, 4, 64, 127
1, 159057, Note_on_c, 6, 54, 127
1, 159057, Note_on_c, 3, 75, 127
1, 159157, Note_on_c, 10, 69, 127
1, 159255, Note_off_c, 10, 69, 127
1, 159255, Note_off_c, 6, 54, 127
1, 159257, Note_on_c, 4, 52, 127
1, 159257, Note_on_c, 12, 71, 127
1, 159355, Note_off_c, 12, 71, 127
1, 159357, Note_on_c, 0, 72, 127
1, 159455, Note_off_c, 0, 72, 127
1, 159455, Note_off_c, 4, 52, 127
1, 159457, Note_on_c, 6, 54, 127
1, 159457, Note_on_c, 12, 71, 127
1, 159555, Note_off_c, 12, 71, 127
1, 159557, Note_on_c, 10, 69, 127
1, 159655, Note_off_c, 10, 69, 127
1, 159655, Note_off_c, 6, 54, 127
1, 159657, Note_on_c, 12, 47, 127
1, 159657, Note_on_c, 12, 71, 127
1, 159755, Note_off_c, 12, 71, 127
1, 159757, Note_on_c, 0, 72, 127
1, 159855, Note_off_c, 0, 72, 127
1, 159855, Note_off_c, 12, 47, 127
1, 159857, Note_on_c, 7, 55, 127
1, 159857, Note_on_c, 12, 71, 127
1, 159955, Note_off_c, 12, 71, 127
1, 159956, Note_on_c, 10, 69, 127
1, 160054, Note_off_c, 10, 69, 127
1, 160055, Note_off_c, 7, 55, 127
1, 160056, Note_on_c, 12, 47, 127
1, 160056, Note_on_c, 12, 71, 127
1, 160154, Note_off_c, 12, 71, 127
1, 160156, Note_on_c, 0, 72, 127
1, 160254, Note_off_c, 0, 72, 127
1, 160254, Note_off_c, 12, 47, 127
1, 160256, Note_on_c, 10, 57, 127
1, 160256, Note_on_c, 6, 66, 127
1, 160354, Note_off_c, 3, 75, 127
1, 160356, Note_on_c, 1, 73, 127
1, 160454, Note_off_c, 1, 73, 127
1, 160456, Note_on_c, 3, 75, 127
1, 160554, Note_off_c, 3, 75, 127
1, 160556, Note_on_c, 4, 76, 127
1, 160654, Note_off_c, 4, 76, 127
1, 160656, Note_on_c, 3, 75, 127
1, 160754, Note_off_c, 3, 75, 127
1, 160756, Note_on_c, 1, 73, 127
1, 160854, Note_off_c, 1, 73, 127
1, 160856, Note_on_c, 3, 75, 127
1, 160954, Note_off_c, 3, 75, 127
1, 160956, Note_on_c, 4, 76, 127
1, 161054, Note_off_c, 4, 76, 127
1, 161054, Note_off_c, 10, 57, 127
1, 161055, Note_on_c, 3, 75, 127
1, 161153, Note_off_c, 3, 75, 127
1, 161155, Note_on_c, 1, 73, 127
1, 161253, Note_off_c, 1, 73, 127
1, 161255, Note_on_c, 3, 75, 127
1, 161353, Note_off_c, 3, 75, 127
1, 161355, Note_on_c, 6, 78, 127
1, 161453, Note_off_c, 6, 78, 127
1, 161455, Note_on_c, 7, 55, 127
1, 161455, Note_on_c, 12, 71, 127
1, 161653, Note_off_c, 7, 55, 127
1, 161655, Note_on_c, 6, 54, 127
1, 161853, Note_off_c, 6, 54, 127
1, 161853, Note_off_c, 12, 71, 127
1, 161853, Note_off_c, 6, 66, 127
1, 161855, Note_on_c, 7, 55, 127
1, 161855, Note_on_c, 4, 64, 127
1, 161855, Note_on_c, 4, 76, 127
1, 162053, Note_off_c, 7, 55, 127
1, 162055, Note_on_c, 4, 52, 127
1, 162253, Note_off_c, 4, 52, 127
1, 162253, Note_off_c, 4, 76, 127
1, 162253, Note_off_c, 4, 64, 127
1, 162254, Note_on_c, 10, 57, 127
1, 162254, Note_on_c, 6, 66, 127
1, 162254, Note_on_c, 3, 75, 127
1, 162452, Note_off_c, 10, 57, 127
1, 162454, Note_on_c, 6, 54, 127
1, 162652, Note_off_c, 6, 54, 127
1, 162652, Note_off_c, 3, 75, 127
1, 162652, Note_off_c, 6, 66, 127
1, 162654, Note_on_c, 12, 59, 127
1, 162654, Note_on_c, 7, 67, 127
1, 162654, Note_on_c, 4, 76, 127
1, 162752, Note_off_c, 7, 67, 127
1, 162754, Note_on_c, 10, 69, 127
1, 162852, Note_off_c, 10, 69, 127
1, 162852, Note_off_c, 12, 59, 127
1, 162854, Note_on_c, 7, 55, 127
1, 162854, Note_on_c, 12, 71, 127
1, 162952, Note_off_c, 12, 71, 127
1, 162954, Note_on_c, 10, 69, 127
1, 163052, Note_off_c, 10, 69, 127
1, 163052, Note_off_c, 7, 55, 127
1, 163054, Note_on_c, 12, 59, 127
1, 163054, Note_on_c, 7, 67, 127
1, 163152, Note_off_c, 7, 67, 127
1, 163154, Note_on_c, 10, 69, 127
1, 163252, Note_off_c, 10, 69, 127
1, 163252, Note_off_c, 12, 59, 127
1, 163253, Note_on_c, 6, 54, 127
1, 163253, Note_on_c, 12, 71, 127
1, 163351, Note_off_c, 12, 71, 127
1, 163353, Note_on_c, 10, 69, 127
1, 163451, Note_off_c, 10, 69, 127
1, 163451, Note_off_c, 6, 54, 127
1, 163453, Note_on_c, 4, 52, 127
1, 163453, Note_on_c, 7, 67, 127
1, 163551, Note_off_c, 7, 67, 127
1, 163553, Note_on_c, 12, 71, 127
1, 163651, Note_off_c, 12, 71, 127
1, 163651, Note_off_c, 4, 52, 127
1, 163653, Note_on_c, 0, 60, 127
1, 163653, Note_on_c, 10, 69, 127
1, 163751, Note_off_c, 10, 69, 127
1, 163753, Note_on_c, 7, 67, 127
1, 163851, Note_off_c, 7, 67, 127
1, 163851, Note_off_c, 0, 60, 127
1, 163853, Note_on_c, 10, 57, 127
1, 163853, Note_on_c, 6, 66, 127
1, 163951, Note_off_c, 6, 66, 127
1, 163953, Note_on_c, 7, 67, 127
1, 164051, Note_off_c, 7, 67, 127
1, 164051, Note_off_c, 10, 57, 127
1, 164053, Note_on_c, 6, 54, 127
1, 164053, Note_on_c, 10, 69, 127
1, 164151, Note_off_c, 10, 69, 127
1, 164153, Note_on_c, 7, 67, 127
1, 164215, Note_off_c, 4, 76, 127
1, 164251, Note_off_c, 7, 67, 127
1, 164251, Note_off_c, 6, 54, 127
1, 164253, Note_on_c, 10, 57, 127
1, 164253, Note_on_c, 6, 66, 127
1, 164253, Note_on_c, 2, 74, 127
1, 164351, Note_off_c, 6, 66, 127
1, 164352, Note_on_c, 7, 67, 127
1, 164450, Note_off_c, 7, 67, 127
1, 164451, Note_off_c, 10, 57, 127
1, 164452, Note_on_c, 4, 52, 127
1, 164452, Note_on_c, 10, 69, 127
1, 164550, Note_off_c, 10, 69, 127
1, 164552, Note_on_c, 7, 67, 127
1, 164650, Note_off_c, 7, 67, 127
1, 164650, Note_off_c, 4, 52, 127
1, 164652, Note_on_c, 2, 50, 127
1, 164652, Note_on_c, 6, 66, 127
1, 164750, Note_off_c, 6, 66, 127
1, 164752, Note_on_c, 10, 69, 127
1, 164850, Note_off_c, 10, 69, 127
1, 164850, Note_off_c, 2, 50, 127
1, 164852, Note_on_c, 12, 59, 127
1, 164852, Note_on_c, 7, 67, 127
1, 164950, Note_off_c, 7, 67, 127
1, 164952, Note_on_c, 6, 66, 127
1, 165050, Note_off_c, 6, 66, 127
1, 165050, Note_off_c, 12, 59, 127
1, 165052, Note_on_c, 7, 55, 127
1, 165052, Note_on_c, 4, 64, 127
1, 165150, Note_off_c, 4, 64, 127
1, 165152, Note_on_c, 6, 66, 127
1, 165250, Note_off_c, 6, 66, 127
1, 165250, Note_off_c, 7, 55, 127
1, 165252, Note_on_c, 4, 52, 127
1, 165252, Note_on_c, 7, 67, 127
1, 165350, Note_off_c, 7, 67, 127
1, 165352, Note_on_c, 6, 66, 127
1, 165397, Note_off_c, 2, 74, 127
1, 165449, Note_off_c, 6, 66, 127
1, 165449, Note_off_c, 4, 52, 127
1, 165450, Note_on_c, 10, 57, 127
1, 165450, Note_on_c, 4, 64, 127
1, 165450, Note_on_c, 0, 72, 127
1, 165548, Note_off_c, 4, 64, 127
1, 165550, Note_on_c, 7, 67, 127
1, 165648, Note_off_c, 7, 67, 127
1, 165648, Note_off_c, 10, 57, 127
1, 165650, Note_on_c, 7, 55, 127
1, 165650, Note_on_c, 6, 66, 127
1, 165748, Note_off_c, 6, 66, 127
1, 165750, Note_on_c, 4, 64, 127
1, 165848, Note_off_c, 4, 64, 127
1, 165848, Note_off_c, 7, 55, 127
1, 165850, Note_on_c, 6, 54, 127
1, 165850, Note_on_c, 10, 69, 127
1, 165948, Note_off_c, 0, 72, 127
1, 165950, Note_on_c, 12, 71, 127
1, 166048, Note_off_c, 12, 71, 127
1, 166048, Note_off_c, 6, 54, 127
1, 166050, Note_on_c, 4, 52, 127
1, 166050, Note_on_c, 0, 72, 127
1, 166141, Note_off_c, 10, 69, 127
1, 166148, Note_off_c, 0, 72, 127
1, 166150, Note_on_c, 10, 69, 127
1, 166248, Note_off_c, 4, 52, 127
1, 166250, Note_on_c, 3, 51, 127
1, 166250, Note_on_c, 12, 71, 127
1, 166347, Note_off_c, 10, 69, 127
1, 166350, Note_on_c, 7, 67, 127
1, 166448, Note_off_c, 7, 67, 127
1, 166448, Note_off_c, 3, 51, 127
1, 166450, Note_on_c, 4, 52, 127
1, 166450, Note_on_c, 6, 66, 127
1, 166548, Note_off_c, 6, 66, 127
1, 166549, Note_on_c, 4, 64, 127
1, 166647, Note_off_c, 4, 64, 127
1, 166648, Note_off_c, 4, 52, 127
1, 166649, Note_on_c, 6, 54, 127
1, 166649, Note_on_c, 3, 63, 127
1, 166747, Note_off_c, 3, 63, 127
1, 166749, Note_on_c, 4, 64, 127
1, 166847, Note_off_c, 4, 64, 127
1, 166847, Note_off_c, 6, 54, 127
1, 166849, Note_on_c, 3, 51, 127
1, 166849, Note_on_c, 6, 66, 127
1, 166947, Note_off_c, 6, 66, 127
1, 166949, Note_on_c, 7, 67, 127
1, 167047, Note_off_c, 7, 67, 127
1, 167047, Note_off_c, 3, 51, 127
1, 167049, Note_on_c, 12, 47, 127
1, 167049, Note_on_c, 10, 69, 127
1, 167141, Note_off_c, 12, 71, 127
1, 167147, Note_off_c, 10, 69, 127
1, 167149, Note_on_c, 12, 71, 127
1, 167247, Note_off_c, 12, 71, 127
1, 167247, Note_off_c, 12, 47, 127
1, 167249, Note_on_c, 10, 45, 127
1, 167249, Note_on_c, 1, 73, 127
1, 167347, Note_off_c, 1, 73, 127
1, 167349, Note_on_c, 3, 75, 127
1, 167447, Note_off_c, 3, 75, 127
1, 167447, Note_off_c, 10, 45, 127
1, 167449, Note_on_c, 7, 43, 127
1, 167449, Note_on_c, 4, 76, 127
1, 167647, Note_off_c, 4, 76, 127
1, 167648, Note_on_c, 3, 75, 127
1, 167846, Note_off_c, 3, 75, 127
1, 167847, Note_off_c, 7, 43, 127
1, 167848, Note_on_c, 7, 55, 127
1, 167848, Note_on_c, 12, 59, 127
1, 167848, Note_on_c, 4, 76, 127
1, 168046, Note_off_c, 4, 76, 127
1, 168048, Note_on_c, 12, 71, 127
1, 168246, Note_off_c, 12, 71, 127
1, 168246, Note_off_c, 12, 59, 127
1, 168246, Note_off_c, 7, 55, 127
1, 168248, Note_on_c, 12, 59, 127
1, 168248, Note_on_c, 3, 63, 127
1, 168248, Note_on_c, 6, 78, 127
1, 168446, Note_off_c, 6, 78, 127
1, 168448, Note_on_c, 12, 71, 127
1, 168643, Note_off_c, 3, 63, 127
1, 168646, Note_off_c, 12, 71, 127
1, 168646, Note_off_c, 12, 59, 127
1, 168648, Note_on_c, 4, 52, 127
1, 168648, Note_on_c, 7, 79, 127
1, 168847, Note_on_c, 4, 64, 127
1, 168945, Note_off_c, 4, 64, 127
1, 168947, Note_on_c, 3, 63, 127
1, 169043, Note_off_c, 7, 79, 127
1, 169043, Note_off_c, 4, 52, 127
1, 169045, Note_off_c, 3, 63, 127
1, 169047, Note_on_c, 4, 64, 127
1, 169145, Note_off_c, 4, 64, 127
1, 169147, Note_on_c, 6, 66, 127
1, 169245, Note_off_c, 6, 66, 127
1, 169247, Note_on_c, 4, 52, 127
1, 169247, Note_on_c, 7, 67, 127
1, 169345, Note_off_c, 7, 67, 127
1, 169345, Note_off_c, 4, 52, 127
1, 169347, Note_on_c, 6, 54, 127
1, 169347, Note_on_c, 10, 69, 127
1, 169445, Note_off_c, 10, 69, 127
1, 169445, Note_off_c, 6, 54, 127
1, 169447, Note_on_c, 7, 55, 127
1, 169447, Note_on_c, 12, 71, 127
1, 169545, Note_off_c, 12, 71, 127
1, 169545, Note_off_c, 7, 55, 127
1, 169547, Note_on_c, 10, 57, 127
1, 169547, Note_on_c, 1, 73, 127
1, 169645, Note_off_c, 1, 73, 127
1, 169645, Note_off_c, 10, 57, 127
1, 169647, Note_on_c, 12, 59, 127
1, 169647, Note_on_c, 3, 75, 127
1, 169745, Note_off_c, 3, 75, 127
1, 169745, Note_off_c, 12, 59, 127
1, 169747, Note_on_c, 1, 61, 127
1, 169747, Note_on_c, 4, 76, 127
1, 169845, Note_off_c, 4, 76, 127
1, 169845, Note_off_c, 1, 61, 127
1, 169847, Note_on_c, 3, 63, 127
1, 169847, Note_on_c, 6, 78, 127
1, 170045, Note_off_c, 6, 78, 127
1, 170046, Note_on_c, 4, 76, 127
1, 170244, Note_off_c, 4, 76, 127
1, 170245, Note_off_c, 3, 63, 127
1, 170246, Note_on_c, 10, 57, 127
1, 170246, Note_on_c, 3, 63, 127
1, 170246, Note_on_c, 6, 78, 127
1, 170444, Note_off_c, 6, 78, 127
1, 170446, Note_on_c, 12, 71, 127
1, 170644, Note_off_c, 12, 71, 127
1, 170644, Note_off_c, 3, 63, 127
1, 170644, Note_off_c, 10, 57, 127
1, 170646, Note_on_c, 7, 55, 127
1, 170646, Note_on_c, 4, 64, 127
1, 170646, Note_on_c, 7, 79, 127
1, 170844, Note_off_c, 7, 79, 127
1, 170846, Note_on_c, 12, 71, 127
1, 171044, Note_off_c, 12, 71, 127
1, 171044, Note_off_c, 7, 55, 127
1, 171045, Note_on_c, 6, 54, 127
1, 171045, Note_on_c, 10, 81, 127
1, 171244, Note_off_c, 4, 64, 127
1, 171245, Note_on_c, 3, 63, 127
1, 171343, Note_off_c, 3, 63, 127
1, 171345, Note_on_c, 4, 64, 127
1, 171440, Note_off_c, 10, 81, 127
1, 171440, Note_off_c, 6, 54, 127
1, 171443, Note_off_c, 4, 64, 127
1, 171445, Note_on_c, 6, 66, 127
1, 171543, Note_off_c, 6, 66, 127
1, 171545, Note_on_c, 7, 67, 127
1, 171643, Note_off_c, 7, 67, 127
1, 171645, Note_on_c, 6, 54, 127
1, 171645, Note_on_c, 10, 69, 127
1, 171743, Note_off_c, 10, 69, 127
1, 171743, Note_off_c, 6, 54, 127
1, 171745, Note_on_c, 7, 55, 127
1, 171745, Note_on_c, 12, 71, 127
1, 171843, Note_off_c, 12, 71, 127
1, 171843, Note_off_c, 7, 55, 127
1, 171845, Note_on_c, 10, 57, 127
1, 171845, Note_on_c, 1, 73, 127
1, 171943, Note_off_c, 1, 73, 127
1, 171943, Note_off_c, 10, 57, 127
1, 171945, Note_on_c, 12, 59, 127
1, 171945, Note_on_c, 3, 75, 127
1, 172043, Note_off_c, 3, 75, 127
1, 172043, Note_off_c, 12, 59, 127
1, 172045, Note_on_c, 1, 61, 127
1, 172045, Note_on_c, 4, 76, 127
1, 172143, Note_off_c, 4, 76, 127
1, 172143, Note_off_c, 1, 61, 127
1, 172144, Note_on_c, 3, 63, 127
1, 172144, Note_on_c, 6, 78, 127
1, 172242, Note_off_c, 6, 78, 127
1, 172242, Note_off_c, 3, 63, 127
1, 172244, Note_on_c, 4, 64, 127
1, 172244, Note_on_c, 7, 79, 127
1, 172343, Note_off_c, 7, 79, 127
1, 172345, Note_on_c, 10, 81, 127
1, 172444, Note_off_c, 10, 81, 127
1, 172444, Note_off_c, 4, 64, 127
1, 172446, Note_on_c, 3, 63, 127
1, 172446, Note_on_c, 7, 79, 127
1, 172545, Note_off_c, 7, 79, 127
1, 172547, Note_on_c, 6, 78, 127
1, 172646, Note_off_c, 6, 78, 127
1, 172646, Note_off_c, 3, 63, 127
1, 172648, Note_on_c, 4, 64, 127
1, 172648, Note_on_c, 7, 79, 127
1, 172747, Note_off_c, 7, 79, 127
1, 172749, Note_on_c, 4, 76, 127
1, 172848, Note_off_c, 4, 76, 127
1, 172848, Note_off_c, 4, 64, 127
1, 172850, Note_on_c, 12, 59, 127
1, 172850, Note_on_c, 3, 75, 127
1, 172949, Note_off_c, 3, 75, 127
1, 172951, Note_on_c, 4, 76, 127
1, 173050, Note_off_c, 4, 76, 127
1, 173050, Note_off_c, 12, 59, 127
1, 173052, Note_on_c, 6, 66, 127
1, 173052, Note_on_c, 10, 81, 127
1, 173151, Note_off_c, 10, 81, 127
1, 173153, Note_on_c, 4, 76, 127
1, 173252, Note_off_c, 4, 76, 127
1, 173252, Note_off_c, 6, 66, 127
1, 173254, Note_on_c, 12, 59, 127
1, 173254, Note_on_c, 3, 75, 127
1, 173353, Note_off_c, 3, 75, 127
1, 173355, Note_on_c, 4, 76, 127
1, 173454, Note_off_c, 4, 76, 127
1, 173454, Note_off_c, 12, 59, 127
1, 173456, Note_on_c, 7, 67, 127
1, 173456, Note_on_c, 12, 83, 127
1, 173555, Note_off_c, 12, 83, 127
1, 173557, Note_on_c, 0, 84, 127
1, 173656, Note_off_c, 0, 84, 127
1, 173658, Note_on_c, 12, 71, 127
1, 173658, Note_on_c, 12, 83, 127
1, 173757, Note_off_c, 12, 83, 127
1, 173758, Note_on_c, 10, 81, 127
1, 173857, Note_off_c, 10, 81, 127
1, 173858, Note_off_c, 12, 71, 127
1, 173859, Note_on_c, 4, 76, 127
1, 173859, Note_on_c, 12, 83, 127
1, 173958, Note_off_c, 12, 83, 127
1, 173960, Note_on_c, 7, 79, 127
1, 174059, Note_off_c, 7, 79, 127
1, 174059, Note_off_c, 4, 76, 127
1, 174061, Note_on_c, 3, 75, 127
1, 174061, Note_on_c, 6, 78, 127
1, 174160, Note_off_c, 6, 78, 127
1, 174162, Note_on_c, 7, 79, 127
1, 174261, Note_off_c, 7, 79, 127
1, 174261, Note_off_c, 3, 75, 127
1, 174263, Note_on_c, 4, 76, 127
1, 174263, Note_on_c, 0, 84, 127
1, 174362, Note_off_c, 0, 84, 127
1, 174364, Note_on_c, 7, 79, 127
1, 174462, Note_off_c, 4, 76, 127
1, 174463, Note_off_c, 7, 79, 127
1, 174464, Note_off_c, 7, 67, 127
1, 174465, Note_on_c, 10, 69, 127
1, 174465, Note_on_c, 6, 78, 127
1, 174564, Note_off_c, 6, 78, 127
1, 174564, Note_off_c, 10, 69, 127
1, 174566, Note_on_c, 7, 67, 127
1, 174566, Note_on_c, 7, 79, 127
1, 174665, Note_off_c, 7, 79, 127
1, 174665, Note_off_c, 7, 67, 127
1, 174667, Note_on_c, 6, 66, 127
1, 174667, Note_on_c, 10, 81, 127
1, 174766, Note_off_c, 10, 81, 127
1, 174768, Note_on_c, 12, 83, 127
1, 174867, Note_off_c, 12, 83, 127
1, 174869, Note_on_c, 4, 76, 127
1, 174869, Note_on_c, 10, 81, 127
1, 174968, Note_off_c, 10, 81, 127
1, 174970, Note_on_c, 7, 79, 127
1, 175069, Note_off_c, 7, 79, 127
1, 175069, Note_off_c, 4, 76, 127
1, 175071, Note_on_c, 3, 75, 127
1, 175071, Note_on_c, 10, 81, 127
1, 175170, Note_off_c, 10, 81, 127
1, 175172, Note_on_c, 6, 78, 127
1, 175271, Note_off_c, 6, 78, 127
1, 175271, Note_off_c, 3, 75, 127
1, 175273, Note_on_c, 1, 73, 127
1, 175273, Note_on_c, 4, 76, 127
1, 175372, Note_off_c, 4, 76, 127
1, 175373, Note_on_c, 6, 78, 127
1, 175472, Note_off_c, 6, 78, 127
1, 175473, Note_off_c, 1, 73, 127
1, 175474, Note_on_c, 3, 75, 127
1, 175474, Note_on_c, 12, 83, 127
1, 175573, Note_off_c, 12, 83, 127
1, 175575, Note_on_c, 6, 78, 127
1, 175673, Note_off_c, 3, 75, 127
1, 175674, Note_off_c, 6, 78, 127
1, 175675, Note_off_c, 6, 66, 127
1, 175676, Note_on_c, 7, 67, 127
1, 175676, Note_on_c, 3, 75, 127
1, 175775, Note_off_c, 3, 75, 127
1, 175775, Note_off_c, 7, 67, 127
1, 175777, Note_on_c, 6, 66, 127
1, 175777, Note_on_c, 6, 78, 127
1, 175876, Note_off_c, 6, 78, 127
1, 175876, Note_off_c, 6, 66, 127
1, 175878, Note_on_c, 4, 64, 127
1, 175878, Note_on_c, 7, 79, 127
1, 175979, Note_off_c, 7, 79, 127
1, 175981, Note_on_c, 10, 81, 127
1, 176082, Note_off_c, 10, 81, 127
1, 176082, Note_off_c, 4, 64, 127
1, 176084, Note_on_c, 12, 59, 127
1, 176084, Note_on_c, 7, 79, 127
1, 176185, Note_off_c, 7, 79, 127
1, 176187, Note_on_c, 6, 78, 127
1, 176288, Note_off_c, 6, 78, 127
1, 176288, Note_off_c, 12, 59, 127
1, 176290, Note_on_c, 0, 60, 127
1, 176290, Note_on_c, 4, 64, 127
1, 176290, Note_on_c, 7, 79, 127
1, 176391, Note_off_c, 7, 79, 127
1, 176393, Note_on_c, 4, 76, 127
1, 176494, Note_off_c, 4, 76, 127
1, 176494, Note_off_c, 4, 64, 127
1, 176494, Note_off_c, 0, 60, 127
1, 176496, Note_on_c, 12, 59, 127
1, 176496, Note_on_c, 7, 67, 127
1, 176496, Note_on_c, 3, 75, 127
1, 176597, Note_off_c, 3, 75, 127
1, 176599, Note_on_c, 4, 76, 127
1, 176700, Note_off_c, 4, 76, 127
1, 176700, Note_off_c, 7, 67, 127
1, 176700, Note_off_c, 12, 59, 127
1, 176702, Note_on_c, 0, 60, 127
1, 176702, Note_on_c, 6, 66, 127
1, 176702, Note_on_c, 10, 81, 127
1, 176803, Note_off_c, 10, 81, 127
1, 176805, Note_on_c, 7, 79, 127
1, 176906, Note_off_c, 7, 79, 127
1, 176906, Note_off_c, 6, 66, 127
1, 176906, Note_off_c, 0, 60, 127
1, 176908, Note_on_c, 10, 57, 127
1, 176908, Note_on_c, 10, 69, 127
1, 176908, Note_on_c, 6, 78, 127
1, 177009, Note_off_c, 6, 78, 127
1, 177011, Note_on_c, 4, 76, 127
1, 177112, Note_off_c, 4, 76, 127
1, 177112, Note_off_c, 10, 57, 127
1, 177114, Note_on_c, 12, 59, 127
1, 177114, Note_on_c, 3, 75, 127
1, 177221, Note_off_c, 10, 69, 127
1, 177222, Note_on_c, 0, 72, 127
1, 177329, Note_off_c, 0, 72, 127
1, 177330, Note_on_c, 10, 69, 127
1, 177437, Note_off_c, 10, 69, 127
1, 177439, Note_on_c, 6, 66, 127
1, 177541, Note_off_c, 3, 75, 127
1, 177541, Note_off_c, 12, 59, 127
1, 177545, Note_off_c, 6, 66, 127
1, 177546, Note_on_c, 3, 63, 127
1, 177654, Note_on_c, 10, 69, 127
1, 177760, Note_off_c, 3, 63, 127
1, 177761, Note_off_c, 10, 69, 127
1, 177762, Note_on_c, 6, 66, 127
1, 177869, Note_off_c, 6, 66, 127
1, 177870, Note_on_c, 3, 63, 127
1, 177977, Note_off_c, 3, 63, 127
1, 177978, Note_on_c, 12, 59, 127
1, 178085, Note_off_c, 12, 59, 127
1, 178087, Note_on_c, 10, 57, 127
1, 178194, Note_off_c, 10, 57, 127
1, 178195, Note_on_c, 7, 55, 127
1, 178302, Note_off_c, 7, 55, 127
1, 178303, Note_on_c, 6, 54, 127
1, 178410, Note_off_c, 6, 54, 127
1, 178411, Note_on_c, 4, 52, 127
1, 178528, Note_off_c, 4, 52, 127
1, 178529, Note_on_c, 7, 55, 127
1, 178646, Note_off_c, 7, 55, 127
1, 178648, Note_on_c, 6, 54, 127
1, 178648, Note_on_c, 11, 70, 127
1, 178648, Note_on_c, 1, 73, 127
1, 178648, Note_on_c, 4, 76, 127
1, 178648, Note_on_c, 7, 67, 127
1, 178765, Note_off_c, 6, 54, 127
1, 178766, Note_on_c, 4, 52, 127
1, 178883, Note_off_c, 4, 52, 127
1, 178883, Note_off_c, 7, 67, 127
1, 178883, Note_off_c, 4, 76, 127
1, 178883, Note_off_c, 1, 73, 127
1, 178883, Note_off_c, 11, 70, 127
1, 178885, Note_on_c, 12, 59, 127
1, 178885, Note_on_c, 6, 66, 127
1, 178885, Note_on_c, 12, 71, 127
1, 178885, Note_on_c, 4, 76, 127
1, 179358, Note_off_c, 4, 76, 127
1, 179358, Note_off_c, 12, 59, 127
1, 179376, Note_on_c, 3, 75, 127
1, 179376, Note_on_c, 12, 47, 127
1, 179730, Note_off_c, 3, 75, 127
1, 179731, Note_on_c, 4, 76, 127
1, 179832, Note_off_c, 12, 71, 127
1, 179832, Note_off_c, 6, 66, 127
1, 179848, Note_off_c, 4, 76, 127
1, 179848, Note_off_c, 12, 47, 127
1, 179883, Note_on_c, 4, 76, 127
1, 179883, Note_on_c, 12, 71, 127
1, 179883, Note_on_c, 7, 67, 127
1, 179883, Note_on_c, 4, 40, 127
1, 182149, Note_off_c, 4, 40, 127
1, 182149, Note_off_c, 7, 67, 127
1, 182149, Note_off_c, 12, 71, 127
1, 182149, Note_off_c, 4, 76, 127
1, 187392, End_track
0, 0, End_of_file
