0, 0, Header, 1, 21, 120
1, 0, Start_track
1, 0, Time_signature, 4, 2, 24, 8
1, 0, Key_signature, -3, "major"
1, 0, Tempo, 705882
1, 0, Marker_t, "Allegro"
1, 51960, Tempo, 759494
1, 52080, Tempo, 810811
1, 52200, Tempo, 882353
1, 52320, Tempo, 967742
1, 52440, Tempo, 1052632
1, 52560, Tempo, 1176471
1, 52680, Tempo, 1304348
1, 52800, Time_signature, 1, 3, 12, 8
1, 52800, Tempo, 4285714
1, 52801, Marker_t, "Adagio"
1, 52860, Time_signature, 12, 3, 12, 8
1, 52860, Tempo, 1578947
1, 79480, Tempo, 1578947
1, 79490, Tempo, 1558442
1, 79500, Tempo, 1538462
1, 79530, Tempo, 1363636
1, 79630, Tempo, 1224490
1, 79730, Tempo, 1090909
1, 79760, Tempo, 983607
1, 79800, Tempo, 952381
1, 79830, Tempo, 882353
1, 79860, Tempo, 821918
1, 79880, Tempo, 800000
1, 79900, Tempo, 779221
1, 79920, Tempo, 764331
1, 79940, Tempo, 745342
1, 79960, Tempo, 731707
1, 79970, Tempo, 714286
1, 79990, Tempo, 701754
1, 80000, Tempo, 697674
1, 80010, Tempo, 689655
1, 80020, Tempo, 681818
1, 80040, Tempo, 674157
1, 80060, Tempo, 666667
1, 80080, Tempo, 662983
1, 80090, Tempo, 652174
1, 80100, Tempo, 648649
1, 80120, Tempo, 645161
1, 80130, Tempo, 638298
1, 80140, Tempo, 631579
1, 80150, Tempo, 628272
1, 80170, Tempo, 625000
1, 80180, Tempo, 621762
1, 80190, Tempo, 618557
1, 80200, Tempo, 612245
1, 80210, Tempo, 606061
1, 80220, Time_signature, 2, 2, 24, 8
1, 80221, Tempo, 600000
1, 80221, Marker_t, "Allegro"
1, 80221, End_track
2, 0, Start_track
2, 0, MIDI_port, 0
2, 0, Title_t, "violin i"
2, 0, Program_c, 0, 48
2, 0, Note_on_c, 0, 67, 127
2, 60, Note_on_c, 0, 67, 0
2, 60, Note_on_c, 0, 72, 127
2, 120, Note_on_c, 0, 72, 0
2, 120, Note_on_c, 0, 75, 127
2, 180, Note_on_c, 0, 75, 0
2, 180, Note_on_c, 0, 74, 127
2, 240, Note_on_c, 0, 74, 0
2, 240, Note_on_c, 0, 67, 127
2, 300, Note_on_c, 0, 67, 0
2, 300, Note_on_c, 0, 72, 127
2, 330, Note_on_c, 0, 72, 0
2, 330, Note_on_c, 0, 74, 127
2, 360, Note_on_c, 0, 74, 0
2, 360, Note_on_c, 0, 75, 127
2, 390, Note_on_c, 0, 75, 0
2, 390, Note_on_c, 0, 74, 127
2, 420, Note_on_c, 0, 74, 0
2, 420, Note_on_c, 0, 75, 127
2, 450, Note_on_c, 0, 75, 0
2, 450, Note_on_c, 0, 74, 127
2, 480, Note_on_c, 0, 74, 0
2, 480, Note_on_c, 0, 72, 127
2, 540, Note_on_c, 0, 72, 0
2, 540, Note_on_c, 0, 74, 127
2, 570, Note_on_c, 0, 74, 0
2, 570, Note_on_c, 0, 75, 127
2, 600, Note_on_c, 0, 75, 0
2, 600, Note_on_c, 0, 77, 127
2, 630, Note_on_c, 0, 77, 0
2, 630, Note_on_c, 0, 79, 127
2, 660, Note_on_c, 0, 79, 0
2, 660, Note_on_c, 0, 80, 127
2, 720, Note_on_c, 0, 80, 0
2, 720, Note_on_c, 0, 80, 127
2, 780, Note_on_c, 0, 80, 0
2, 780, Note_on_c, 0, 74, 127
2, 840, Note_on_c, 0, 74, 0
2, 960, Note_on_c, 0, 65, 127
2, 1020, Note_on_c, 0, 65, 0
2, 1020, Note_on_c, 0, 70, 127
2, 1080, Note_on_c, 0, 70, 0
2, 1080, Note_on_c, 0, 74, 127
2, 1140, Note_on_c, 0, 74, 0
2, 1140, Note_on_c, 0, 72, 127
2, 1200, Note_on_c, 0, 72, 0
2, 1200, Note_on_c, 0, 65, 127
2, 1260, Note_on_c, 0, 65, 0
2, 1260, Note_on_c, 0, 70, 127
2, 1290, Note_on_c, 0, 70, 0
2, 1290, Note_on_c, 0, 72, 127
2, 1320, Note_on_c, 0, 72, 0
2, 1320, Note_on_c, 0, 74, 127
2, 1350, Note_on_c, 0, 74, 0
2, 1350, Note_on_c, 0, 72, 127
2, 1380, Note_on_c, 0, 72, 0
2, 1380, Note_on_c, 0, 74, 127
2, 1410, Note_on_c, 0, 74, 0
2, 1410, Note_on_c, 0, 72, 127
2, 1440, Note_on_c, 0, 72, 0
2, 1440, Note_on_c, 0, 70, 127
2, 1500, Note_on_c, 0, 70, 0
2, 1500, Note_on_c, 0, 72, 127
2, 1530, Note_on_c, 0, 72, 0
2, 1530, Note_on_c, 0, 74, 127
2, 1560, Note_on_c, 0, 74, 0
2, 1560, Note_on_c, 0, 75, 127
2, 1590, Note_on_c, 0, 75, 0
2, 1590, Note_on_c, 0, 77, 127
2, 1620, Note_on_c, 0, 77, 0
2, 1620, Note_on_c, 0, 79, 127
2, 1680, Note_on_c, 0, 79, 0
2, 1680, Note_on_c, 0, 79, 127
2, 1740, Note_on_c, 0, 79, 0
2, 1740, Note_on_c, 0, 72, 127
2, 1800, Note_on_c, 0, 72, 0
2, 1920, Note_on_c, 0, 84, 127
2, 1950, Note_on_c, 0, 84, 0
2, 1950, Note_on_c, 0, 82, 127
2, 1980, Note_on_c, 0, 82, 0
2, 1980, Note_on_c, 0, 80, 127
2, 2010, Note_on_c, 0, 80, 0
2, 2010, Note_on_c, 0, 79, 127
2, 2040, Note_on_c, 0, 79, 0
2, 2040, Note_on_c, 0, 77, 127
2, 2100, Note_on_c, 0, 77, 0
2, 2100, Note_on_c, 0, 77, 127
2, 2160, Note_on_c, 0, 77, 0
2, 2160, Note_on_c, 0, 77, 127
2, 2310, Note_on_c, 0, 77, 0
2, 2310, Note_on_c, 0, 72, 127
2, 2340, Note_on_c, 0, 72, 0
2, 2340, Note_on_c, 0, 77, 127
2, 2370, Note_on_c, 0, 77, 0
2, 2370, Note_on_c, 0, 79, 127
2, 2400, Note_on_c, 0, 79, 0
2, 2400, Note_on_c, 0, 80, 127
2, 2430, Note_on_c, 0, 80, 0
2, 2430, Note_on_c, 0, 79, 127
2, 2460, Note_on_c, 0, 79, 0
2, 2460, Note_on_c, 0, 77, 127
2, 2490, Note_on_c, 0, 77, 0
2, 2490, Note_on_c, 0, 75, 127
2, 2520, Note_on_c, 0, 75, 0
2, 2520, Note_on_c, 0, 73, 127
2, 2580, Note_on_c, 0, 73, 0
2, 2580, Note_on_c, 0, 73, 127
2, 2640, Note_on_c, 0, 73, 0
2, 2640, Note_on_c, 0, 73, 127
2, 2790, Note_on_c, 0, 73, 0
2, 2790, Note_on_c, 0, 68, 127
2, 2820, Note_on_c, 0, 68, 0
2, 2820, Note_on_c, 0, 73, 127
2, 2850, Note_on_c, 0, 73, 0
2, 2850, Note_on_c, 0, 75, 127
2, 2880, Note_on_c, 0, 75, 0
2, 2880, Note_on_c, 0, 77, 127
2, 2910, Note_on_c, 0, 77, 0
2, 2910, Note_on_c, 0, 79, 127
2, 2940, Note_on_c, 0, 79, 0
2, 2940, Note_on_c, 0, 80, 127
2, 2970, Note_on_c, 0, 80, 0
2, 2970, Note_on_c, 0, 79, 127
2, 3000, Note_on_c, 0, 79, 0
2, 3000, Note_on_c, 0, 77, 127
2, 3030, Note_on_c, 0, 77, 0
2, 3030, Note_on_c, 0, 75, 127
2, 3060, Note_on_c, 0, 75, 0
2, 3060, Note_on_c, 0, 74, 127
2, 3090, Note_on_c, 0, 74, 0
2, 3090, Note_on_c, 0, 72, 127
2, 3120, Note_on_c, 0, 72, 0
2, 3120, Note_on_c, 0, 71, 127
2, 3180, Note_on_c, 0, 71, 0
2, 3180, Note_on_c, 0, 79, 127
2, 3240, Note_on_c, 0, 79, 0
2, 3240, Note_on_c, 0, 72, 127
2, 3300, Note_on_c, 0, 72, 0
2, 3300, Note_on_c, 0, 77, 127
2, 3360, Note_on_c, 0, 77, 0
2, 3360, Note_on_c, 0, 75, 127
2, 3450, Note_on_c, 0, 75, 0
2, 3450, Note_on_c, 0, 74, 127
2, 3480, Note_on_c, 0, 74, 0
2, 3480, Note_on_c, 0, 74, 127
2, 3510, Note_on_c, 0, 74, 0
2, 3510, Note_on_c, 0, 72, 127
2, 3540, Note_on_c, 0, 72, 0
2, 3540, Note_on_c, 0, 74, 127
2, 3570, Note_on_c, 0, 74, 0
2, 3570, Note_on_c, 0, 72, 127
2, 3600, Note_on_c, 0, 72, 0
2, 3600, Note_on_c, 0, 72, 127
2, 3720, Note_on_c, 0, 72, 0
2, 3960, Note_on_c, 0, 60, 127
2, 4080, Note_on_c, 0, 60, 0
2, 4200, Note_on_c, 0, 60, 127
2, 4320, Note_on_c, 0, 60, 0
2, 4440, Note_on_c, 0, 60, 127
2, 4560, Note_on_c, 0, 60, 0
2, 4620, Note_on_c, 0, 79, 127
2, 4650, Note_on_c, 0, 79, 0
2, 4680, Note_on_c, 0, 75, 127
2, 4710, Note_on_c, 0, 75, 0
2, 4920, Note_on_c, 0, 67, 127
2, 5040, Note_on_c, 0, 67, 0
2, 5160, Note_on_c, 0, 67, 127
2, 5280, Note_on_c, 0, 67, 0
2, 5400, Note_on_c, 0, 67, 127
2, 5520, Note_on_c, 0, 67, 0
2, 5580, Note_on_c, 0, 71, 127
2, 5610, Note_on_c, 0, 71, 0
2, 5640, Note_on_c, 0, 72, 127
2, 5670, Note_on_c, 0, 72, 0
2, 5700, Note_on_c, 0, 62, 127
2, 5730, Note_on_c, 0, 62, 0
2, 5760, Note_on_c, 0, 67, 127
2, 5820, Note_on_c, 0, 67, 0
2, 5820, Note_on_c, 0, 72, 127
2, 5880, Note_on_c, 0, 72, 0
2, 5880, Note_on_c, 0, 75, 127
2, 5940, Note_on_c, 0, 75, 0
2, 5940, Note_on_c, 0, 74, 127
2, 6000, Note_on_c, 0, 74, 0
2, 6000, Note_on_c, 0, 67, 127
2, 6060, Note_on_c, 0, 67, 0
2, 6060, Note_on_c, 0, 72, 127
2, 6090, Note_on_c, 0, 72, 0
2, 6090, Note_on_c, 0, 74, 127
2, 6120, Note_on_c, 0, 74, 0
2, 6120, Note_on_c, 0, 75, 127
2, 6150, Note_on_c, 0, 75, 0
2, 6150, Note_on_c, 0, 74, 127
2, 6180, Note_on_c, 0, 74, 0
2, 6180, Note_on_c, 0, 75, 127
2, 6210, Note_on_c, 0, 75, 0
2, 6210, Note_on_c, 0, 74, 127
2, 6240, Note_on_c, 0, 74, 0
2, 6240, Note_on_c, 0, 72, 127
2, 6300, Note_on_c, 0, 72, 0
2, 6300, Note_on_c, 0, 74, 127
2, 6330, Note_on_c, 0, 74, 0
2, 6330, Note_on_c, 0, 75, 127
2, 6360, Note_on_c, 0, 75, 0
2, 6360, Note_on_c, 0, 77, 127
2, 6390, Note_on_c, 0, 77, 0
2, 6390, Note_on_c, 0, 79, 127
2, 6420, Note_on_c, 0, 79, 0
2, 6420, Note_on_c, 0, 80, 127
2, 6480, Note_on_c, 0, 80, 0
2, 6480, Note_on_c, 0, 80, 127
2, 6540, Note_on_c, 0, 80, 0
2, 6540, Note_on_c, 0, 74, 127
2, 6600, Note_on_c, 0, 74, 0
2, 6600, Note_on_c, 0, 77, 127
2, 6660, Note_on_c, 0, 77, 0
2, 6660, Note_on_c, 0, 70, 127
2, 6720, Note_on_c, 0, 70, 0
2, 6720, Note_on_c, 0, 74, 127
2, 6780, Note_on_c, 0, 74, 0
2, 7200, Note_on_c, 0, 65, 127
2, 7260, Note_on_c, 0, 65, 0
2, 7260, Note_on_c, 0, 70, 127
2, 7320, Note_on_c, 0, 70, 0
2, 7320, Note_on_c, 0, 74, 127
2, 7380, Note_on_c, 0, 74, 0
2, 7380, Note_on_c, 0, 72, 127
2, 7440, Note_on_c, 0, 72, 0
2, 7440, Note_on_c, 0, 65, 127
2, 7500, Note_on_c, 0, 65, 0
2, 7500, Note_on_c, 0, 70, 127
2, 7530, Note_on_c, 0, 70, 0
2, 7530, Note_on_c, 0, 72, 127
2, 7560, Note_on_c, 0, 72, 0
2, 7560, Note_on_c, 0, 74, 127
2, 7590, Note_on_c, 0, 74, 0
2, 7590, Note_on_c, 0, 72, 127
2, 7620, Note_on_c, 0, 72, 0
2, 7620, Note_on_c, 0, 74, 127
2, 7650, Note_on_c, 0, 74, 0
2, 7650, Note_on_c, 0, 72, 127
2, 7680, Note_on_c, 0, 72, 0
2, 7680, Note_on_c, 0, 70, 127
2, 7740, Note_on_c, 0, 70, 0
2, 7740, Note_on_c, 0, 72, 127
2, 7770, Note_on_c, 0, 72, 0
2, 7770, Note_on_c, 0, 74, 127
2, 7800, Note_on_c, 0, 74, 0
2, 7800, Note_on_c, 0, 75, 127
2, 7830, Note_on_c, 0, 75, 0
2, 7830, Note_on_c, 0, 77, 127
2, 7860, Note_on_c, 0, 77, 0
2, 7860, Note_on_c, 0, 79, 127
2, 7920, Note_on_c, 0, 79, 0
2, 7920, Note_on_c, 0, 79, 127
2, 7980, Note_on_c, 0, 79, 0
2, 7980, Note_on_c, 0, 72, 127
2, 8040, Note_on_c, 0, 72, 0
2, 8040, Note_on_c, 0, 75, 127
2, 8100, Note_on_c, 0, 75, 0
2, 8100, Note_on_c, 0, 67, 127
2, 8160, Note_on_c, 0, 67, 0
2, 8160, Note_on_c, 0, 72, 127
2, 8220, Note_on_c, 0, 72, 0
2, 8640, Note_on_c, 0, 72, 127
2, 8670, Note_on_c, 0, 72, 0
2, 8670, Note_on_c, 0, 70, 127
2, 8700, Note_on_c, 0, 70, 0
2, 8700, Note_on_c, 0, 68, 127
2, 8730, Note_on_c, 0, 68, 0
2, 8730, Note_on_c, 0, 67, 127
2, 8760, Note_on_c, 0, 67, 0
2, 8760, Note_on_c, 0, 65, 127
2, 8820, Note_on_c, 0, 65, 0
2, 8820, Note_on_c, 0, 65, 127
2, 8880, Note_on_c, 0, 65, 0
2, 8880, Note_on_c, 0, 65, 127
2, 9000, Note_on_c, 0, 65, 0
2, 9120, Note_on_c, 0, 70, 127
2, 9150, Note_on_c, 0, 70, 0
2, 9150, Note_on_c, 0, 68, 127
2, 9180, Note_on_c, 0, 68, 0
2, 9180, Note_on_c, 0, 67, 127
2, 9210, Note_on_c, 0, 67, 0
2, 9210, Note_on_c, 0, 65, 127
2, 9240, Note_on_c, 0, 65, 0
2, 9240, Note_on_c, 0, 63, 127
2, 9300, Note_on_c, 0, 63, 0
2, 9300, Note_on_c, 0, 63, 127
2, 9360, Note_on_c, 0, 63, 0
2, 9360, Note_on_c, 0, 63, 127
2, 9480, Note_on_c, 0, 63, 0
2, 10350, Note_on_c, 0, 77, 127
2, 10380, Note_on_c, 0, 77, 0
2, 10380, Note_on_c, 0, 80, 127
2, 10410, Note_on_c, 0, 80, 0
2, 10410, Note_on_c, 0, 79, 127
2, 10440, Note_on_c, 0, 79, 0
2, 10440, Note_on_c, 0, 77, 127
2, 10470, Note_on_c, 0, 77, 0
2, 10470, Note_on_c, 0, 75, 127
2, 10500, Note_on_c, 0, 75, 0
2, 10500, Note_on_c, 0, 74, 127
2, 10530, Note_on_c, 0, 74, 0
2, 10530, Note_on_c, 0, 72, 127
2, 10560, Note_on_c, 0, 72, 0
2, 10560, Note_on_c, 0, 70, 127
2, 10620, Note_on_c, 0, 70, 0
2, 10620, Note_on_c, 0, 75, 127
2, 10680, Note_on_c, 0, 75, 0
2, 10680, Note_on_c, 0, 79, 127
2, 10740, Note_on_c, 0, 79, 0
2, 10740, Note_on_c, 0, 77, 127
2, 10800, Note_on_c, 0, 77, 0
2, 10800, Note_on_c, 0, 70, 127
2, 10860, Note_on_c, 0, 70, 0
2, 10860, Note_on_c, 0, 75, 127
2, 10890, Note_on_c, 0, 75, 0
2, 10890, Note_on_c, 0, 77, 127
2, 10920, Note_on_c, 0, 77, 0
2, 10920, Note_on_c, 0, 79, 127
2, 10950, Note_on_c, 0, 79, 0
2, 10950, Note_on_c, 0, 77, 127
2, 10980, Note_on_c, 0, 77, 0
2, 10980, Note_on_c, 0, 79, 127
2, 11010, Note_on_c, 0, 79, 0
2, 11010, Note_on_c, 0, 77, 127
2, 11040, Note_on_c, 0, 77, 0
2, 11040, Note_on_c, 0, 75, 127
2, 11100, Note_on_c, 0, 75, 0
2, 11100, Note_on_c, 0, 77, 127
2, 11130, Note_on_c, 0, 77, 0
2, 11130, Note_on_c, 0, 79, 127
2, 11160, Note_on_c, 0, 79, 0
2, 11160, Note_on_c, 0, 80, 127
2, 11190, Note_on_c, 0, 80, 0
2, 11190, Note_on_c, 0, 82, 127
2, 11220, Note_on_c, 0, 82, 0
2, 11220, Note_on_c, 0, 84, 127
2, 11280, Note_on_c, 0, 84, 0
2, 11280, Note_on_c, 0, 84, 127
2, 11340, Note_on_c, 0, 84, 0
2, 11340, Note_on_c, 0, 74, 127
2, 11400, Note_on_c, 0, 74, 0
2, 11520, Note_on_c, 0, 74, 127
2, 11580, Note_on_c, 0, 74, 0
2, 11580, Note_on_c, 0, 75, 127
2, 11610, Note_on_c, 0, 75, 0
2, 11610, Note_on_c, 0, 77, 127
2, 11640, Note_on_c, 0, 77, 0
2, 11640, Note_on_c, 0, 79, 127
2, 11670, Note_on_c, 0, 79, 0
2, 11670, Note_on_c, 0, 80, 127
2, 11700, Note_on_c, 0, 80, 0
2, 11700, Note_on_c, 0, 82, 127
2, 11760, Note_on_c, 0, 82, 0
2, 11760, Note_on_c, 0, 82, 127
2, 11820, Note_on_c, 0, 82, 0
2, 11820, Note_on_c, 0, 72, 127
2, 11880, Note_on_c, 0, 72, 0
2, 12000, Note_on_c, 0, 72, 127
2, 12060, Note_on_c, 0, 72, 0
2, 12060, Note_on_c, 0, 74, 127
2, 12090, Note_on_c, 0, 74, 0
2, 12090, Note_on_c, 0, 75, 127
2, 12120, Note_on_c, 0, 75, 0
2, 12120, Note_on_c, 0, 77, 127
2, 12150, Note_on_c, 0, 77, 0
2, 12150, Note_on_c, 0, 79, 127
2, 12180, Note_on_c, 0, 79, 0
2, 12180, Note_on_c, 0, 80, 127
2, 12240, Note_on_c, 0, 80, 0
2, 12240, Note_on_c, 0, 80, 127
2, 12300, Note_on_c, 0, 80, 0
2, 12300, Note_on_c, 0, 70, 127
2, 12360, Note_on_c, 0, 70, 0
2, 12600, Note_on_c, 0, 67, 127
2, 12720, Note_on_c, 0, 67, 0
2, 12840, Note_on_c, 0, 68, 127
2, 12960, Note_on_c, 0, 68, 0
2, 13080, Note_on_c, 0, 70, 127
2, 13200, Note_on_c, 0, 70, 0
2, 13320, Note_on_c, 0, 75, 127
2, 13350, Note_on_c, 0, 75, 0
2, 13350, Note_on_c, 0, 74, 127
2, 13380, Note_on_c, 0, 74, 0
2, 13380, Note_on_c, 0, 72, 127
2, 13410, Note_on_c, 0, 72, 0
2, 13410, Note_on_c, 0, 70, 127
2, 13440, Note_on_c, 0, 70, 0
2, 13440, Note_on_c, 0, 68, 127
2, 13500, Note_on_c, 0, 68, 0
2, 13500, Note_on_c, 0, 68, 127
2, 13560, Note_on_c, 0, 68, 0
2, 13560, Note_on_c, 0, 68, 127
2, 13740, Note_on_c, 0, 68, 0
2, 13740, Note_on_c, 0, 68, 127
2, 13770, Note_on_c, 0, 68, 0
2, 13770, Note_on_c, 0, 67, 127
2, 13800, Note_on_c, 0, 67, 0
2, 13800, Note_on_c, 0, 65, 127
2, 13830, Note_on_c, 0, 65, 0
2, 13830, Note_on_c, 0, 63, 127
2, 13860, Note_on_c, 0, 63, 0
2, 13860, Note_on_c, 0, 62, 127
2, 13890, Note_on_c, 0, 62, 0
2, 13890, Note_on_c, 0, 60, 127
2, 13920, Note_on_c, 0, 60, 0
2, 13920, Note_on_c, 0, 58, 127
2, 13950, Note_on_c, 0, 58, 0
2, 13980, Note_on_c, 0, 58, 127
2, 14010, Note_on_c, 0, 58, 0
2, 14040, Note_on_c, 0, 58, 127
2, 14070, Note_on_c, 0, 58, 0
2, 15360, Note_on_c, 0, 58, 127
2, 15420, Note_on_c, 0, 58, 0
2, 15420, Note_on_c, 0, 63, 127
2, 15480, Note_on_c, 0, 63, 0
2, 15480, Note_on_c, 0, 67, 127
2, 15540, Note_on_c, 0, 67, 0
2, 15540, Note_on_c, 0, 65, 127
2, 15600, Note_on_c, 0, 65, 0
2, 15600, Note_on_c, 0, 58, 127
2, 15660, Note_on_c, 0, 58, 0
2, 15660, Note_on_c, 0, 63, 127
2, 15690, Note_on_c, 0, 63, 0
2, 15690, Note_on_c, 0, 65, 127
2, 15720, Note_on_c, 0, 65, 0
2, 15720, Note_on_c, 0, 67, 127
2, 15750, Note_on_c, 0, 67, 0
2, 15750, Note_on_c, 0, 65, 127
2, 15780, Note_on_c, 0, 65, 0
2, 15780, Note_on_c, 0, 67, 127
2, 15810, Note_on_c, 0, 67, 0
2, 15810, Note_on_c, 0, 65, 127
2, 15840, Note_on_c, 0, 65, 0
2, 15840, Note_on_c, 0, 63, 127
2, 15900, Note_on_c, 0, 63, 0
2, 15900, Note_on_c, 0, 65, 127
2, 15930, Note_on_c, 0, 65, 0
2, 15930, Note_on_c, 0, 67, 127
2, 15960, Note_on_c, 0, 67, 0
2, 15960, Note_on_c, 0, 68, 127
2, 15990, Note_on_c, 0, 68, 0
2, 15990, Note_on_c, 0, 70, 127
2, 16020, Note_on_c, 0, 70, 0
2, 16020, Note_on_c, 0, 72, 127
2, 16080, Note_on_c, 0, 72, 0
2, 16080, Note_on_c, 0, 72, 127
2, 16140, Note_on_c, 0, 72, 0
2, 16140, Note_on_c, 0, 65, 127
2, 16200, Note_on_c, 0, 65, 0
2, 16320, Note_on_c, 0, 56, 127
2, 16380, Note_on_c, 0, 56, 0
2, 16380, Note_on_c, 0, 62, 127
2, 16440, Note_on_c, 0, 62, 0
2, 16440, Note_on_c, 0, 65, 127
2, 16500, Note_on_c, 0, 65, 0
2, 16500, Note_on_c, 0, 63, 127
2, 16560, Note_on_c, 0, 63, 0
2, 16560, Note_on_c, 0, 56, 127
2, 16620, Note_on_c, 0, 56, 0
2, 16620, Note_on_c, 0, 62, 127
2, 16650, Note_on_c, 0, 62, 0
2, 16650, Note_on_c, 0, 63, 127
2, 16680, Note_on_c, 0, 63, 0
2, 16680, Note_on_c, 0, 65, 127
2, 16710, Note_on_c, 0, 65, 0
2, 16710, Note_on_c, 0, 63, 127
2, 16740, Note_on_c, 0, 63, 0
2, 16740, Note_on_c, 0, 65, 127
2, 16770, Note_on_c, 0, 65, 0
2, 16770, Note_on_c, 0, 63, 127
2, 16800, Note_on_c, 0, 63, 0
2, 16800, Note_on_c, 0, 62, 127
2, 16860, Note_on_c, 0, 62, 0
2, 16860, Note_on_c, 0, 63, 127
2, 16890, Note_on_c, 0, 63, 0
2, 16890, Note_on_c, 0, 65, 127
2, 16920, Note_on_c, 0, 65, 0
2, 16920, Note_on_c, 0, 67, 127
2, 16950, Note_on_c, 0, 67, 0
2, 16950, Note_on_c, 0, 68, 127
2, 16980, Note_on_c, 0, 68, 0
2, 16980, Note_on_c, 0, 70, 127
2, 17040, Note_on_c, 0, 70, 0
2, 17040, Note_on_c, 0, 70, 127
2, 17100, Note_on_c, 0, 70, 0
2, 17100, Note_on_c, 0, 63, 127
2, 17160, Note_on_c, 0, 63, 0
2, 17400, Note_on_c, 0, 60, 127
2, 17520, Note_on_c, 0, 60, 0
2, 17640, Note_on_c, 0, 58, 127
2, 17760, Note_on_c, 0, 58, 0
2, 17820, Note_on_c, 0, 72, 127
2, 17850, Note_on_c, 0, 72, 0
2, 17880, Note_on_c, 0, 69, 127
2, 17910, Note_on_c, 0, 69, 0
2, 17940, Note_on_c, 0, 72, 127
2, 17970, Note_on_c, 0, 72, 0
2, 18000, Note_on_c, 0, 74, 127
2, 18120, Note_on_c, 0, 74, 0
2, 18120, Note_on_c, 0, 58, 127
2, 18240, Note_on_c, 0, 58, 0
2, 18360, Note_on_c, 0, 57, 127
2, 18480, Note_on_c, 0, 57, 0
2, 18600, Note_on_c, 0, 55, 127
2, 18720, Note_on_c, 0, 55, 0
2, 18780, Note_on_c, 0, 69, 127
2, 18810, Note_on_c, 0, 69, 0
2, 18840, Note_on_c, 0, 66, 127
2, 18870, Note_on_c, 0, 66, 0
2, 18900, Note_on_c, 0, 69, 127
2, 18930, Note_on_c, 0, 69, 0
2, 18960, Note_on_c, 0, 70, 127
2, 19080, Note_on_c, 0, 70, 0
2, 20160, Note_on_c, 0, 62, 127
2, 20220, Note_on_c, 0, 62, 0
2, 20220, Note_on_c, 0, 67, 127
2, 20280, Note_on_c, 0, 67, 0
2, 20280, Note_on_c, 0, 70, 127
2, 20340, Note_on_c, 0, 70, 0
2, 20340, Note_on_c, 0, 69, 127
2, 20400, Note_on_c, 0, 69, 0
2, 20400, Note_on_c, 0, 62, 127
2, 20460, Note_on_c, 0, 62, 0
2, 20460, Note_on_c, 0, 67, 127
2, 20490, Note_on_c, 0, 67, 0
2, 20490, Note_on_c, 0, 69, 127
2, 20520, Note_on_c, 0, 69, 0
2, 20520, Note_on_c, 0, 70, 127
2, 20550, Note_on_c, 0, 70, 0
2, 20550, Note_on_c, 0, 69, 127
2, 20580, Note_on_c, 0, 69, 0
2, 20580, Note_on_c, 0, 70, 127
2, 20610, Note_on_c, 0, 70, 0
2, 20610, Note_on_c, 0, 69, 127
2, 20640, Note_on_c, 0, 69, 0
2, 20640, Note_on_c, 0, 67, 127
2, 20700, Note_on_c, 0, 67, 0
2, 20700, Note_on_c, 0, 69, 127
2, 20730, Note_on_c, 0, 69, 0
2, 20730, Note_on_c, 0, 70, 127
2, 20760, Note_on_c, 0, 70, 0
2, 20760, Note_on_c, 0, 72, 127
2, 20790, Note_on_c, 0, 72, 0
2, 20790, Note_on_c, 0, 74, 127
2, 20820, Note_on_c, 0, 74, 0
2, 20820, Note_on_c, 0, 75, 127
2, 20880, Note_on_c, 0, 75, 0
2, 20880, Note_on_c, 0, 75, 127
2, 20940, Note_on_c, 0, 75, 0
2, 20940, Note_on_c, 0, 69, 127
2, 21000, Note_on_c, 0, 69, 0
2, 21120, Note_on_c, 0, 60, 127
2, 21180, Note_on_c, 0, 60, 0
2, 21180, Note_on_c, 0, 65, 127
2, 21240, Note_on_c, 0, 65, 0
2, 21240, Note_on_c, 0, 69, 127
2, 21300, Note_on_c, 0, 69, 0
2, 21300, Note_on_c, 0, 67, 127
2, 21360, Note_on_c, 0, 67, 0
2, 21360, Note_on_c, 0, 60, 127
2, 21420, Note_on_c, 0, 60, 0
2, 21420, Note_on_c, 0, 65, 127
2, 21450, Note_on_c, 0, 65, 0
2, 21450, Note_on_c, 0, 67, 127
2, 21480, Note_on_c, 0, 67, 0
2, 21480, Note_on_c, 0, 69, 127
2, 21510, Note_on_c, 0, 69, 0
2, 21510, Note_on_c, 0, 67, 127
2, 21540, Note_on_c, 0, 67, 0
2, 21540, Note_on_c, 0, 69, 127
2, 21570, Note_on_c, 0, 69, 0
2, 21570, Note_on_c, 0, 67, 127
2, 21600, Note_on_c, 0, 67, 0
2, 21600, Note_on_c, 0, 65, 127
2, 21660, Note_on_c, 0, 65, 0
2, 21660, Note_on_c, 0, 67, 127
2, 21690, Note_on_c, 0, 67, 0
2, 21690, Note_on_c, 0, 69, 127
2, 21720, Note_on_c, 0, 69, 0
2, 21720, Note_on_c, 0, 70, 127
2, 21750, Note_on_c, 0, 70, 0
2, 21750, Note_on_c, 0, 72, 127
2, 21780, Note_on_c, 0, 72, 0
2, 21780, Note_on_c, 0, 74, 127
2, 21840, Note_on_c, 0, 74, 0
2, 21840, Note_on_c, 0, 74, 127
2, 21900, Note_on_c, 0, 74, 0
2, 21900, Note_on_c, 0, 67, 127
2, 21960, Note_on_c, 0, 67, 0
2, 22080, Note_on_c, 0, 79, 127
2, 22110, Note_on_c, 0, 79, 0
2, 22110, Note_on_c, 0, 77, 127
2, 22140, Note_on_c, 0, 77, 0
2, 22140, Note_on_c, 0, 75, 127
2, 22170, Note_on_c, 0, 75, 0
2, 22170, Note_on_c, 0, 74, 127
2, 22200, Note_on_c, 0, 74, 0
2, 22200, Note_on_c, 0, 72, 127
2, 22260, Note_on_c, 0, 72, 0
2, 22260, Note_on_c, 0, 72, 127
2, 22320, Note_on_c, 0, 72, 0
2, 22320, Note_on_c, 0, 72, 127
2, 22470, Note_on_c, 0, 72, 0
2, 22470, Note_on_c, 0, 67, 127
2, 22500, Note_on_c, 0, 67, 0
2, 22500, Note_on_c, 0, 72, 127
2, 22530, Note_on_c, 0, 72, 0
2, 22530, Note_on_c, 0, 74, 127
2, 22560, Note_on_c, 0, 74, 0
2, 22560, Note_on_c, 0, 75, 127
2, 22590, Note_on_c, 0, 75, 0
2, 22590, Note_on_c, 0, 74, 127
2, 22620, Note_on_c, 0, 74, 0
2, 22620, Note_on_c, 0, 72, 127
2, 22650, Note_on_c, 0, 72, 0
2, 22650, Note_on_c, 0, 70, 127
2, 22680, Note_on_c, 0, 70, 0
2, 22680, Note_on_c, 0, 68, 127
2, 22740, Note_on_c, 0, 68, 0
2, 22740, Note_on_c, 0, 68, 127
2, 22800, Note_on_c, 0, 68, 0
2, 22800, Note_on_c, 0, 68, 127
2, 22920, Note_on_c, 0, 68, 0
2, 23340, Note_on_c, 0, 74, 127
2, 23400, Note_on_c, 0, 74, 0
2, 23400, Note_on_c, 0, 67, 127
2, 23460, Note_on_c, 0, 67, 0
2, 23460, Note_on_c, 0, 72, 127
2, 23520, Note_on_c, 0, 72, 0
2, 23520, Note_on_c, 0, 70, 127
2, 23610, Note_on_c, 0, 70, 0
2, 23610, Note_on_c, 0, 69, 127
2, 23640, Note_on_c, 0, 69, 0
2, 23640, Note_on_c, 0, 69, 127
2, 23730, Note_on_c, 0, 69, 0
2, 23730, Note_on_c, 0, 67, 127
2, 23760, Note_on_c, 0, 67, 0
2, 23760, Note_on_c, 0, 67, 127
2, 23880, Note_on_c, 0, 67, 0
2, 23940, Note_on_c, 0, 67, 127
2, 23970, Note_on_c, 0, 67, 0
2, 23970, Note_on_c, 0, 69, 127
2, 24000, Note_on_c, 0, 69, 0
2, 24000, Note_on_c, 0, 71, 127
2, 24030, Note_on_c, 0, 71, 0
2, 24030, Note_on_c, 0, 72, 127
2, 24060, Note_on_c, 0, 72, 0
2, 24060, Note_on_c, 0, 74, 127
2, 24090, Note_on_c, 0, 74, 0
2, 24090, Note_on_c, 0, 75, 127
2, 24120, Note_on_c, 0, 75, 0
2, 24120, Note_on_c, 0, 77, 127
2, 24180, Note_on_c, 0, 77, 0
2, 24180, Note_on_c, 0, 71, 127
2, 24240, Note_on_c, 0, 71, 0
2, 24420, Note_on_c, 0, 71, 127
2, 24450, Note_on_c, 0, 71, 0
2, 24450, Note_on_c, 0, 72, 127
2, 24480, Note_on_c, 0, 72, 0
2, 24480, Note_on_c, 0, 74, 127
2, 24510, Note_on_c, 0, 74, 0
2, 24510, Note_on_c, 0, 75, 127
2, 24540, Note_on_c, 0, 75, 0
2, 24540, Note_on_c, 0, 77, 127
2, 24570, Note_on_c, 0, 77, 0
2, 24570, Note_on_c, 0, 79, 127
2, 24600, Note_on_c, 0, 79, 0
2, 24600, Note_on_c, 0, 80, 127
2, 24660, Note_on_c, 0, 80, 0
2, 24660, Note_on_c, 0, 74, 127
2, 24720, Note_on_c, 0, 74, 0
2, 24960, Note_on_c, 0, 67, 127
2, 25020, Note_on_c, 0, 67, 0
2, 25020, Note_on_c, 0, 72, 127
2, 25080, Note_on_c, 0, 72, 0
2, 25080, Note_on_c, 0, 75, 127
2, 25140, Note_on_c, 0, 75, 0
2, 25140, Note_on_c, 0, 74, 127
2, 25200, Note_on_c, 0, 74, 0
2, 25200, Note_on_c, 0, 67, 127
2, 25260, Note_on_c, 0, 67, 0
2, 25260, Note_on_c, 0, 72, 127
2, 25290, Note_on_c, 0, 72, 0
2, 25290, Note_on_c, 0, 74, 127
2, 25320, Note_on_c, 0, 74, 0
2, 25320, Note_on_c, 0, 75, 127
2, 25350, Note_on_c, 0, 75, 0
2, 25350, Note_on_c, 0, 74, 127
2, 25380, Note_on_c, 0, 74, 0
2, 25380, Note_on_c, 0, 75, 127
2, 25410, Note_on_c, 0, 75, 0
2, 25410, Note_on_c, 0, 74, 127
2, 25440, Note_on_c, 0, 74, 0
2, 25440, Note_on_c, 0, 72, 127
2, 25470, Note_on_c, 0, 72, 0
2, 25470, Note_on_c, 0, 74, 127
2, 25500, Note_on_c, 0, 74, 0
2, 25500, Note_on_c, 0, 75, 127
2, 25530, Note_on_c, 0, 75, 0
2, 25530, Note_on_c, 0, 77, 127
2, 25560, Note_on_c, 0, 77, 0
2, 25560, Note_on_c, 0, 79, 127
2, 25590, Note_on_c, 0, 79, 0
2, 25590, Note_on_c, 0, 81, 127
2, 25620, Note_on_c, 0, 81, 0
2, 25620, Note_on_c, 0, 82, 127
2, 25650, Note_on_c, 0, 82, 0
2, 25650, Note_on_c, 0, 84, 127
2, 25680, Note_on_c, 0, 84, 0
2, 25680, Note_on_c, 0, 78, 127
2, 25740, Note_on_c, 0, 78, 0
2, 25740, Note_on_c, 0, 74, 127
2, 25800, Note_on_c, 0, 74, 0
2, 25860, Note_on_c, 0, 62, 127
2, 25890, Note_on_c, 0, 62, 0
2, 25890, Note_on_c, 0, 64, 127
2, 25920, Note_on_c, 0, 64, 0
2, 25920, Note_on_c, 0, 66, 127
2, 25950, Note_on_c, 0, 66, 0
2, 25950, Note_on_c, 0, 67, 127
2, 25980, Note_on_c, 0, 67, 0
2, 25980, Note_on_c, 0, 69, 127
2, 26010, Note_on_c, 0, 69, 0
2, 26010, Note_on_c, 0, 70, 127
2, 26040, Note_on_c, 0, 70, 0
2, 26040, Note_on_c, 0, 72, 127
2, 26100, Note_on_c, 0, 72, 0
2, 26100, Note_on_c, 0, 66, 127
2, 26160, Note_on_c, 0, 66, 0
2, 26340, Note_on_c, 0, 66, 127
2, 26370, Note_on_c, 0, 66, 0
2, 26370, Note_on_c, 0, 67, 127
2, 26400, Note_on_c, 0, 67, 0
2, 26400, Note_on_c, 0, 69, 127
2, 26430, Note_on_c, 0, 69, 0
2, 26430, Note_on_c, 0, 70, 127
2, 26460, Note_on_c, 0, 70, 0
2, 26460, Note_on_c, 0, 72, 127
2, 26490, Note_on_c, 0, 72, 0
2, 26490, Note_on_c, 0, 74, 127
2, 26520, Note_on_c, 0, 74, 0
2, 26520, Note_on_c, 0, 75, 127
2, 26580, Note_on_c, 0, 75, 0
2, 26580, Note_on_c, 0, 69, 127
2, 26640, Note_on_c, 0, 69, 0
2, 27000, Note_on_c, 0, 74, 127
2, 27030, Note_on_c, 0, 74, 0
2, 27030, Note_on_c, 0, 72, 127
2, 27060, Note_on_c, 0, 72, 0
2, 27060, Note_on_c, 0, 70, 127
2, 27090, Note_on_c, 0, 70, 0
2, 27090, Note_on_c, 0, 69, 127
2, 27120, Note_on_c, 0, 69, 0
2, 27120, Note_on_c, 0, 67, 127
2, 27150, Note_on_c, 0, 67, 0
2, 27150, Note_on_c, 0, 62, 127
2, 27180, Note_on_c, 0, 62, 0
2, 27180, Note_on_c, 0, 67, 127
2, 27210, Note_on_c, 0, 67, 0
2, 27210, Note_on_c, 0, 66, 127
2, 27240, Note_on_c, 0, 66, 0
2, 27240, Note_on_c, 0, 67, 127
2, 27300, Note_on_c, 0, 67, 0
2, 27480, Note_on_c, 0, 70, 127
2, 27510, Note_on_c, 0, 70, 0
2, 27510, Note_on_c, 0, 68, 127
2, 27540, Note_on_c, 0, 68, 0
2, 27540, Note_on_c, 0, 67, 127
2, 27570, Note_on_c, 0, 67, 0
2, 27570, Note_on_c, 0, 65, 127
2, 27600, Note_on_c, 0, 65, 0
2, 27600, Note_on_c, 0, 63, 127
2, 27630, Note_on_c, 0, 63, 0
2, 27630, Note_on_c, 0, 58, 127
2, 27660, Note_on_c, 0, 58, 0
2, 27660, Note_on_c, 0, 63, 127
2, 27690, Note_on_c, 0, 63, 0
2, 27690, Note_on_c, 0, 62, 127
2, 27720, Note_on_c, 0, 62, 0
2, 27720, Note_on_c, 0, 63, 127
2, 27780, Note_on_c, 0, 63, 0
2, 27960, Note_on_c, 0, 79, 127
2, 27990, Note_on_c, 0, 79, 0
2, 27990, Note_on_c, 0, 77, 127
2, 28020, Note_on_c, 0, 77, 0
2, 28020, Note_on_c, 0, 75, 127
2, 28050, Note_on_c, 0, 75, 0
2, 28050, Note_on_c, 0, 74, 127
2, 28080, Note_on_c, 0, 74, 0
2, 28080, Note_on_c, 0, 72, 127
2, 28110, Note_on_c, 0, 72, 0
2, 28110, Note_on_c, 0, 67, 127
2, 28140, Note_on_c, 0, 67, 0
2, 28140, Note_on_c, 0, 72, 127
2, 28170, Note_on_c, 0, 72, 0
2, 28170, Note_on_c, 0, 71, 127
2, 28200, Note_on_c, 0, 71, 0
2, 28200, Note_on_c, 0, 72, 127
2, 28260, Note_on_c, 0, 72, 0
2, 28590, Note_on_c, 0, 72, 127
2, 28620, Note_on_c, 0, 72, 0
2, 28620, Note_on_c, 0, 75, 127
2, 28650, Note_on_c, 0, 75, 0
2, 28650, Note_on_c, 0, 74, 127
2, 28680, Note_on_c, 0, 74, 0
2, 28680, Note_on_c, 0, 72, 127
2, 28710, Note_on_c, 0, 72, 0
2, 28710, Note_on_c, 0, 70, 127
2, 28740, Note_on_c, 0, 70, 0
2, 28740, Note_on_c, 0, 69, 127
2, 28770, Note_on_c, 0, 69, 0
2, 28770, Note_on_c, 0, 67, 127
2, 28800, Note_on_c, 0, 67, 0
2, 28800, Note_on_c, 0, 65, 127
2, 28860, Note_on_c, 0, 65, 0
2, 28860, Note_on_c, 0, 70, 127
2, 28920, Note_on_c, 0, 70, 0
2, 28920, Note_on_c, 0, 74, 127
2, 28980, Note_on_c, 0, 74, 0
2, 28980, Note_on_c, 0, 72, 127
2, 29040, Note_on_c, 0, 72, 0
2, 29040, Note_on_c, 0, 65, 127
2, 29100, Note_on_c, 0, 65, 0
2, 29100, Note_on_c, 0, 70, 127
2, 29130, Note_on_c, 0, 70, 0
2, 29130, Note_on_c, 0, 72, 127
2, 29160, Note_on_c, 0, 72, 0
2, 29160, Note_on_c, 0, 74, 127
2, 29190, Note_on_c, 0, 74, 0
2, 29190, Note_on_c, 0, 72, 127
2, 29220, Note_on_c, 0, 72, 0
2, 29220, Note_on_c, 0, 74, 127
2, 29250, Note_on_c, 0, 74, 0
2, 29250, Note_on_c, 0, 72, 127
2, 29280, Note_on_c, 0, 72, 0
2, 29280, Note_on_c, 0, 70, 127
2, 29340, Note_on_c, 0, 70, 0
2, 29340, Note_on_c, 0, 72, 127
2, 29370, Note_on_c, 0, 72, 0
2, 29370, Note_on_c, 0, 74, 127
2, 29400, Note_on_c, 0, 74, 0
2, 29400, Note_on_c, 0, 75, 127
2, 29430, Note_on_c, 0, 75, 0
2, 29430, Note_on_c, 0, 77, 127
2, 29460, Note_on_c, 0, 77, 0
2, 29460, Note_on_c, 0, 79, 127
2, 29520, Note_on_c, 0, 79, 0
2, 29520, Note_on_c, 0, 79, 127
2, 29580, Note_on_c, 0, 79, 0
2, 29580, Note_on_c, 0, 69, 127
2, 29640, Note_on_c, 0, 69, 0
2, 29760, Note_on_c, 0, 69, 127
2, 29820, Note_on_c, 0, 69, 0
2, 29820, Note_on_c, 0, 70, 127
2, 29850, Note_on_c, 0, 70, 0
2, 29850, Note_on_c, 0, 72, 127
2, 29880, Note_on_c, 0, 72, 0
2, 29880, Note_on_c, 0, 74, 127
2, 29910, Note_on_c, 0, 74, 0
2, 29910, Note_on_c, 0, 75, 127
2, 29940, Note_on_c, 0, 75, 0
2, 29940, Note_on_c, 0, 77, 127
2, 30000, Note_on_c, 0, 77, 0
2, 30000, Note_on_c, 0, 77, 127
2, 30060, Note_on_c, 0, 77, 0
2, 30060, Note_on_c, 0, 67, 127
2, 30120, Note_on_c, 0, 67, 0
2, 30240, Note_on_c, 0, 67, 127
2, 30300, Note_on_c, 0, 67, 0
2, 30300, Note_on_c, 0, 69, 127
2, 30330, Note_on_c, 0, 69, 0
2, 30330, Note_on_c, 0, 70, 127
2, 30360, Note_on_c, 0, 70, 0
2, 30360, Note_on_c, 0, 72, 127
2, 30390, Note_on_c, 0, 72, 0
2, 30390, Note_on_c, 0, 74, 127
2, 30420, Note_on_c, 0, 74, 0
2, 30420, Note_on_c, 0, 75, 127
2, 30480, Note_on_c, 0, 75, 0
2, 30480, Note_on_c, 0, 75, 127
2, 30540, Note_on_c, 0, 75, 0
2, 30540, Note_on_c, 0, 65, 127
2, 30600, Note_on_c, 0, 65, 0
2, 30840, Note_on_c, 0, 62, 127
2, 30870, Note_on_c, 0, 62, 0
2, 31080, Note_on_c, 0, 63, 127
2, 31200, Note_on_c, 0, 63, 0
2, 31320, Note_on_c, 0, 65, 127
2, 31440, Note_on_c, 0, 65, 0
2, 31560, Note_on_c, 0, 82, 127
2, 31590, Note_on_c, 0, 82, 0
2, 31590, Note_on_c, 0, 80, 127
2, 31620, Note_on_c, 0, 80, 0
2, 31620, Note_on_c, 0, 79, 127
2, 31650, Note_on_c, 0, 79, 0
2, 31650, Note_on_c, 0, 77, 127
2, 31680, Note_on_c, 0, 77, 0
2, 31680, Note_on_c, 0, 75, 127
2, 31740, Note_on_c, 0, 75, 0
2, 31740, Note_on_c, 0, 75, 127
2, 31800, Note_on_c, 0, 75, 0
2, 31800, Note_on_c, 0, 75, 127
2, 31950, Note_on_c, 0, 75, 0
2, 31950, Note_on_c, 0, 65, 127
2, 31980, Note_on_c, 0, 65, 0
2, 31980, Note_on_c, 0, 63, 127
2, 32010, Note_on_c, 0, 63, 0
2, 32010, Note_on_c, 0, 62, 127
2, 32040, Note_on_c, 0, 62, 0
2, 32040, Note_on_c, 0, 60, 127
2, 32070, Note_on_c, 0, 60, 0
2, 32070, Note_on_c, 0, 63, 127
2, 32100, Note_on_c, 0, 63, 0
2, 32100, Note_on_c, 0, 65, 127
2, 32130, Note_on_c, 0, 65, 0
2, 32130, Note_on_c, 0, 67, 127
2, 32160, Note_on_c, 0, 67, 0
2, 32160, Note_on_c, 0, 65, 127
2, 32190, Note_on_c, 0, 65, 0
2, 32190, Note_on_c, 0, 67, 127
2, 32220, Note_on_c, 0, 67, 0
2, 32220, Note_on_c, 0, 69, 127
2, 32250, Note_on_c, 0, 69, 0
2, 32250, Note_on_c, 0, 70, 127
2, 32280, Note_on_c, 0, 70, 0
2, 32280, Note_on_c, 0, 72, 127
2, 32340, Note_on_c, 0, 72, 0
2, 32340, Note_on_c, 0, 63, 127
2, 32400, Note_on_c, 0, 63, 0
2, 33600, Note_on_c, 0, 65, 127
2, 33660, Note_on_c, 0, 65, 0
2, 33660, Note_on_c, 0, 70, 127
2, 33720, Note_on_c, 0, 70, 0
2, 33720, Note_on_c, 0, 74, 127
2, 33780, Note_on_c, 0, 74, 0
2, 33780, Note_on_c, 0, 72, 127
2, 33840, Note_on_c, 0, 72, 0
2, 33840, Note_on_c, 0, 65, 127
2, 33900, Note_on_c, 0, 65, 0
2, 33900, Note_on_c, 0, 70, 127
2, 33930, Note_on_c, 0, 70, 0
2, 33930, Note_on_c, 0, 72, 127
2, 33960, Note_on_c, 0, 72, 0
2, 33960, Note_on_c, 0, 74, 127
2, 33990, Note_on_c, 0, 74, 0
2, 33990, Note_on_c, 0, 72, 127
2, 34020, Note_on_c, 0, 72, 0
2, 34020, Note_on_c, 0, 74, 127
2, 34050, Note_on_c, 0, 74, 0
2, 34050, Note_on_c, 0, 72, 127
2, 34080, Note_on_c, 0, 72, 0
2, 34080, Note_on_c, 0, 70, 127
2, 34140, Note_on_c, 0, 70, 0
2, 34140, Note_on_c, 0, 72, 127
2, 34170, Note_on_c, 0, 72, 0
2, 34170, Note_on_c, 0, 74, 127
2, 34200, Note_on_c, 0, 74, 0
2, 34200, Note_on_c, 0, 75, 127
2, 34230, Note_on_c, 0, 75, 0
2, 34230, Note_on_c, 0, 77, 127
2, 34260, Note_on_c, 0, 77, 0
2, 34260, Note_on_c, 0, 79, 127
2, 34320, Note_on_c, 0, 79, 0
2, 34320, Note_on_c, 0, 79, 127
2, 34380, Note_on_c, 0, 79, 0
2, 34380, Note_on_c, 0, 72, 127
2, 34440, Note_on_c, 0, 72, 0
2, 34560, Note_on_c, 0, 63, 127
2, 34620, Note_on_c, 0, 63, 0
2, 34620, Note_on_c, 0, 69, 127
2, 34680, Note_on_c, 0, 69, 0
2, 34680, Note_on_c, 0, 72, 127
2, 34740, Note_on_c, 0, 72, 0
2, 34740, Note_on_c, 0, 70, 127
2, 34800, Note_on_c, 0, 70, 0
2, 34800, Note_on_c, 0, 63, 127
2, 34860, Note_on_c, 0, 63, 0
2, 34860, Note_on_c, 0, 69, 127
2, 34890, Note_on_c, 0, 69, 0
2, 34890, Note_on_c, 0, 70, 127
2, 34920, Note_on_c, 0, 70, 0
2, 34920, Note_on_c, 0, 72, 127
2, 34950, Note_on_c, 0, 72, 0
2, 34950, Note_on_c, 0, 70, 127
2, 34980, Note_on_c, 0, 70, 0
2, 34980, Note_on_c, 0, 72, 127
2, 35010, Note_on_c, 0, 72, 0
2, 35010, Note_on_c, 0, 70, 127
2, 35040, Note_on_c, 0, 70, 0
2, 35040, Note_on_c, 0, 69, 127
2, 35100, Note_on_c, 0, 69, 0
2, 35100, Note_on_c, 0, 70, 127
2, 35130, Note_on_c, 0, 70, 0
2, 35130, Note_on_c, 0, 72, 127
2, 35160, Note_on_c, 0, 72, 0
2, 35160, Note_on_c, 0, 74, 127
2, 35190, Note_on_c, 0, 74, 0
2, 35190, Note_on_c, 0, 75, 127
2, 35220, Note_on_c, 0, 75, 0
2, 35220, Note_on_c, 0, 77, 127
2, 35280, Note_on_c, 0, 77, 0
2, 35280, Note_on_c, 0, 77, 127
2, 35340, Note_on_c, 0, 77, 0
2, 35340, Note_on_c, 0, 70, 127
2, 35400, Note_on_c, 0, 70, 0
2, 35640, Note_on_c, 0, 55, 127
2, 35760, Note_on_c, 0, 55, 0
2, 35880, Note_on_c, 0, 56, 127
2, 36000, Note_on_c, 0, 56, 0
2, 36120, Note_on_c, 0, 58, 127
2, 36240, Note_on_c, 0, 58, 0
2, 36360, Note_on_c, 0, 60, 127
2, 36480, Note_on_c, 0, 60, 0
2, 36600, Note_on_c, 0, 62, 127
2, 36720, Note_on_c, 0, 62, 0
2, 36840, Note_on_c, 0, 64, 127
2, 36960, Note_on_c, 0, 64, 0
2, 37020, Note_on_c, 0, 84, 127
2, 37140, Note_on_c, 0, 84, 0
2, 37140, Note_on_c, 0, 82, 127
2, 37170, Note_on_c, 0, 82, 0
2, 37170, Note_on_c, 0, 84, 127
2, 37200, Note_on_c, 0, 84, 0
2, 37200, Note_on_c, 0, 82, 127
2, 37230, Note_on_c, 0, 82, 0
2, 37230, Note_on_c, 0, 84, 127
2, 37320, Note_on_c, 0, 84, 0
2, 37560, Note_on_c, 0, 65, 127
2, 37680, Note_on_c, 0, 65, 0
2, 37800, Note_on_c, 0, 65, 127
2, 37920, Note_on_c, 0, 65, 0
2, 38040, Note_on_c, 0, 65, 127
2, 38160, Note_on_c, 0, 65, 0
2, 38220, Note_on_c, 0, 72, 127
2, 38250, Note_on_c, 0, 72, 0
2, 38280, Note_on_c, 0, 68, 127
2, 38310, Note_on_c, 0, 68, 0
2, 38520, Note_on_c, 0, 60, 127
2, 38640, Note_on_c, 0, 60, 0
2, 38760, Note_on_c, 0, 60, 127
2, 38880, Note_on_c, 0, 60, 0
2, 39000, Note_on_c, 0, 60, 127
2, 39120, Note_on_c, 0, 60, 0
2, 39180, Note_on_c, 0, 76, 127
2, 39210, Note_on_c, 0, 76, 0
2, 39240, Note_on_c, 0, 77, 127
2, 39270, Note_on_c, 0, 77, 0
2, 39300, Note_on_c, 0, 79, 127
2, 39330, Note_on_c, 0, 79, 0
2, 39360, Note_on_c, 0, 68, 127
2, 39480, Note_on_c, 0, 68, 0
2, 39480, Note_on_c, 0, 65, 127
2, 39600, Note_on_c, 0, 65, 0
2, 39720, Note_on_c, 0, 63, 127
2, 39840, Note_on_c, 0, 63, 0
2, 39900, Note_on_c, 0, 65, 127
2, 39930, Note_on_c, 0, 65, 0
2, 39960, Note_on_c, 0, 62, 127
2, 39990, Note_on_c, 0, 62, 0
2, 40020, Note_on_c, 0, 65, 127
2, 40050, Note_on_c, 0, 65, 0
2, 40080, Note_on_c, 0, 67, 127
2, 40200, Note_on_c, 0, 67, 0
2, 40200, Note_on_c, 0, 63, 127
2, 40320, Note_on_c, 0, 63, 0
2, 40440, Note_on_c, 0, 62, 127
2, 40560, Note_on_c, 0, 62, 0
2, 40680, Note_on_c, 0, 60, 127
2, 40800, Note_on_c, 0, 60, 0
2, 40860, Note_on_c, 0, 62, 127
2, 40890, Note_on_c, 0, 62, 0
2, 40920, Note_on_c, 0, 59, 127
2, 40950, Note_on_c, 0, 59, 0
2, 40980, Note_on_c, 0, 62, 127
2, 41010, Note_on_c, 0, 62, 0
2, 41040, Note_on_c, 0, 63, 127
2, 41160, Note_on_c, 0, 63, 0
2, 42240, Note_on_c, 0, 67, 127
2, 42300, Note_on_c, 0, 67, 0
2, 42300, Note_on_c, 0, 72, 127
2, 42360, Note_on_c, 0, 72, 0
2, 42360, Note_on_c, 0, 75, 127
2, 42420, Note_on_c, 0, 75, 0
2, 42420, Note_on_c, 0, 74, 127
2, 42480, Note_on_c, 0, 74, 0
2, 42480, Note_on_c, 0, 67, 127
2, 42540, Note_on_c, 0, 67, 0
2, 42540, Note_on_c, 0, 72, 127
2, 42570, Note_on_c, 0, 72, 0
2, 42570, Note_on_c, 0, 74, 127
2, 42600, Note_on_c, 0, 74, 0
2, 42600, Note_on_c, 0, 75, 127
2, 42630, Note_on_c, 0, 75, 0
2, 42630, Note_on_c, 0, 74, 127
2, 42660, Note_on_c, 0, 74, 0
2, 42660, Note_on_c, 0, 75, 127
2, 42690, Note_on_c, 0, 75, 0
2, 42690, Note_on_c, 0, 74, 127
2, 42720, Note_on_c, 0, 74, 0
2, 42720, Note_on_c, 0, 72, 127
2, 42780, Note_on_c, 0, 72, 0
2, 42780, Note_on_c, 0, 74, 127
2, 42810, Note_on_c, 0, 74, 0
2, 42810, Note_on_c, 0, 75, 127
2, 42840, Note_on_c, 0, 75, 0
2, 42840, Note_on_c, 0, 77, 127
2, 42870, Note_on_c, 0, 77, 0
2, 42870, Note_on_c, 0, 79, 127
2, 42900, Note_on_c, 0, 79, 0
2, 42900, Note_on_c, 0, 80, 127
2, 42960, Note_on_c, 0, 80, 0
2, 42960, Note_on_c, 0, 80, 127
2, 43020, Note_on_c, 0, 80, 0
2, 43020, Note_on_c, 0, 74, 127
2, 43080, Note_on_c, 0, 74, 0
2, 43200, Note_on_c, 0, 65, 127
2, 43260, Note_on_c, 0, 65, 0
2, 43260, Note_on_c, 0, 70, 127
2, 43320, Note_on_c, 0, 70, 0
2, 43320, Note_on_c, 0, 74, 127
2, 43380, Note_on_c, 0, 74, 0
2, 43380, Note_on_c, 0, 72, 127
2, 43440, Note_on_c, 0, 72, 0
2, 43440, Note_on_c, 0, 65, 127
2, 43500, Note_on_c, 0, 65, 0
2, 43500, Note_on_c, 0, 70, 127
2, 43530, Note_on_c, 0, 70, 0
2, 43530, Note_on_c, 0, 72, 127
2, 43560, Note_on_c, 0, 72, 0
2, 43560, Note_on_c, 0, 74, 127
2, 43590, Note_on_c, 0, 74, 0
2, 43590, Note_on_c, 0, 72, 127
2, 43620, Note_on_c, 0, 72, 0
2, 43620, Note_on_c, 0, 74, 127
2, 43650, Note_on_c, 0, 74, 0
2, 43650, Note_on_c, 0, 72, 127
2, 43680, Note_on_c, 0, 72, 0
2, 43680, Note_on_c, 0, 70, 127
2, 43740, Note_on_c, 0, 70, 0
2, 43740, Note_on_c, 0, 72, 127
2, 43770, Note_on_c, 0, 72, 0
2, 43770, Note_on_c, 0, 74, 127
2, 43800, Note_on_c, 0, 74, 0
2, 43800, Note_on_c, 0, 75, 127
2, 43830, Note_on_c, 0, 75, 0
2, 43830, Note_on_c, 0, 77, 127
2, 43860, Note_on_c, 0, 77, 0
2, 43860, Note_on_c, 0, 79, 127
2, 43920, Note_on_c, 0, 79, 0
2, 43920, Note_on_c, 0, 79, 127
2, 43980, Note_on_c, 0, 79, 0
2, 43980, Note_on_c, 0, 72, 127
2, 44040, Note_on_c, 0, 72, 0
2, 44160, Note_on_c, 0, 84, 127
2, 44190, Note_on_c, 0, 84, 0
2, 44190, Note_on_c, 0, 82, 127
2, 44220, Note_on_c, 0, 82, 0
2, 44220, Note_on_c, 0, 80, 127
2, 44250, Note_on_c, 0, 80, 0
2, 44250, Note_on_c, 0, 79, 127
2, 44280, Note_on_c, 0, 79, 0
2, 44280, Note_on_c, 0, 77, 127
2, 44340, Note_on_c, 0, 77, 0
2, 44340, Note_on_c, 0, 77, 127
2, 44400, Note_on_c, 0, 77, 0
2, 44400, Note_on_c, 0, 77, 127
2, 44550, Note_on_c, 0, 77, 0
2, 44550, Note_on_c, 0, 72, 127
2, 44580, Note_on_c, 0, 72, 0
2, 44580, Note_on_c, 0, 77, 127
2, 44610, Note_on_c, 0, 77, 0
2, 44610, Note_on_c, 0, 79, 127
2, 44640, Note_on_c, 0, 79, 0
2, 44640, Note_on_c, 0, 80, 127
2, 44670, Note_on_c, 0, 80, 0
2, 44670, Note_on_c, 0, 79, 127
2, 44700, Note_on_c, 0, 79, 0
2, 44700, Note_on_c, 0, 77, 127
2, 44730, Note_on_c, 0, 77, 0
2, 44730, Note_on_c, 0, 75, 127
2, 44760, Note_on_c, 0, 75, 0
2, 44760, Note_on_c, 0, 73, 127
2, 44820, Note_on_c, 0, 73, 0
2, 44820, Note_on_c, 0, 73, 127
2, 44880, Note_on_c, 0, 73, 0
2, 44880, Note_on_c, 0, 73, 127
2, 45000, Note_on_c, 0, 73, 0
2, 45420, Note_on_c, 0, 79, 127
2, 45480, Note_on_c, 0, 79, 0
2, 45480, Note_on_c, 0, 72, 127
2, 45540, Note_on_c, 0, 72, 0
2, 45540, Note_on_c, 0, 77, 127
2, 45600, Note_on_c, 0, 77, 0
2, 45600, Note_on_c, 0, 75, 127
2, 45690, Note_on_c, 0, 75, 0
2, 45690, Note_on_c, 0, 74, 127
2, 45720, Note_on_c, 0, 74, 0
2, 45720, Note_on_c, 0, 74, 127
2, 45810, Note_on_c, 0, 74, 0
2, 45810, Note_on_c, 0, 72, 127
2, 45840, Note_on_c, 0, 72, 0
2, 45840, Note_on_c, 0, 72, 127
2, 45960, Note_on_c, 0, 72, 0
2, 46020, Note_on_c, 0, 62, 127
2, 46050, Note_on_c, 0, 62, 0
2, 46050, Note_on_c, 0, 64, 127
2, 46080, Note_on_c, 0, 64, 0
2, 46080, Note_on_c, 0, 66, 127
2, 46110, Note_on_c, 0, 66, 0
2, 46110, Note_on_c, 0, 67, 127
2, 46140, Note_on_c, 0, 67, 0
2, 46140, Note_on_c, 0, 69, 127
2, 46170, Note_on_c, 0, 69, 0
2, 46170, Note_on_c, 0, 70, 127
2, 46200, Note_on_c, 0, 70, 0
2, 46200, Note_on_c, 0, 72, 127
2, 46260, Note_on_c, 0, 72, 0
2, 46260, Note_on_c, 0, 66, 127
2, 46320, Note_on_c, 0, 66, 0
2, 46500, Note_on_c, 0, 66, 127
2, 46530, Note_on_c, 0, 66, 0
2, 46530, Note_on_c, 0, 67, 127
2, 46560, Note_on_c, 0, 67, 0
2, 46560, Note_on_c, 0, 69, 127
2, 46590, Note_on_c, 0, 69, 0
2, 46590, Note_on_c, 0, 70, 127
2, 46620, Note_on_c, 0, 70, 0
2, 46620, Note_on_c, 0, 72, 127
2, 46650, Note_on_c, 0, 72, 0
2, 46650, Note_on_c, 0, 74, 127
2, 46680, Note_on_c, 0, 74, 0
2, 46680, Note_on_c, 0, 75, 127
2, 46740, Note_on_c, 0, 75, 0
2, 46740, Note_on_c, 0, 69, 127
2, 46800, Note_on_c, 0, 69, 0
2, 47040, Note_on_c, 0, 67, 127
2, 47100, Note_on_c, 0, 67, 0
2, 47100, Note_on_c, 0, 74, 127
2, 47160, Note_on_c, 0, 74, 0
2, 47160, Note_on_c, 0, 77, 127
2, 47220, Note_on_c, 0, 77, 0
2, 47220, Note_on_c, 0, 75, 127
2, 47280, Note_on_c, 0, 75, 0
2, 47280, Note_on_c, 0, 67, 127
2, 47340, Note_on_c, 0, 67, 0
2, 47340, Note_on_c, 0, 74, 127
2, 47370, Note_on_c, 0, 74, 0
2, 47370, Note_on_c, 0, 75, 127
2, 47400, Note_on_c, 0, 75, 0
2, 47400, Note_on_c, 0, 77, 127
2, 47430, Note_on_c, 0, 77, 0
2, 47430, Note_on_c, 0, 75, 127
2, 47460, Note_on_c, 0, 75, 0
2, 47460, Note_on_c, 0, 77, 127
2, 47490, Note_on_c, 0, 77, 0
2, 47490, Note_on_c, 0, 75, 127
2, 47520, Note_on_c, 0, 75, 0
2, 47520, Note_on_c, 0, 74, 127
2, 47550, Note_on_c, 0, 74, 0
2, 47550, Note_on_c, 0, 72, 127
2, 47580, Note_on_c, 0, 72, 0
2, 47580, Note_on_c, 0, 74, 127
2, 47610, Note_on_c, 0, 74, 0
2, 47610, Note_on_c, 0, 75, 127
2, 47640, Note_on_c, 0, 75, 0
2, 47640, Note_on_c, 0, 77, 127
2, 47670, Note_on_c, 0, 77, 0
2, 47670, Note_on_c, 0, 79, 127
2, 47700, Note_on_c, 0, 79, 0
2, 47700, Note_on_c, 0, 80, 127
2, 47760, Note_on_c, 0, 80, 0
2, 47760, Note_on_c, 0, 71, 127
2, 47820, Note_on_c, 0, 71, 0
2, 47820, Note_on_c, 0, 62, 127
2, 47880, Note_on_c, 0, 62, 0
2, 47940, Note_on_c, 0, 67, 127
2, 47970, Note_on_c, 0, 67, 0
2, 47970, Note_on_c, 0, 69, 127
2, 48000, Note_on_c, 0, 69, 0
2, 48000, Note_on_c, 0, 71, 127
2, 48030, Note_on_c, 0, 71, 0
2, 48030, Note_on_c, 0, 72, 127
2, 48060, Note_on_c, 0, 72, 0
2, 48060, Note_on_c, 0, 74, 127
2, 48090, Note_on_c, 0, 74, 0
2, 48090, Note_on_c, 0, 75, 127
2, 48120, Note_on_c, 0, 75, 0
2, 48120, Note_on_c, 0, 77, 127
2, 48180, Note_on_c, 0, 77, 0
2, 48180, Note_on_c, 0, 71, 127
2, 48240, Note_on_c, 0, 71, 0
2, 48420, Note_on_c, 0, 71, 127
2, 48450, Note_on_c, 0, 71, 0
2, 48450, Note_on_c, 0, 72, 127
2, 48480, Note_on_c, 0, 72, 0
2, 48480, Note_on_c, 0, 74, 127
2, 48510, Note_on_c, 0, 74, 0
2, 48510, Note_on_c, 0, 75, 127
2, 48540, Note_on_c, 0, 75, 0
2, 48540, Note_on_c, 0, 77, 127
2, 48570, Note_on_c, 0, 77, 0
2, 48570, Note_on_c, 0, 79, 127
2, 48600, Note_on_c, 0, 79, 0
2, 48600, Note_on_c, 0, 80, 127
2, 48660, Note_on_c, 0, 80, 0
2, 48660, Note_on_c, 0, 74, 127
2, 48720, Note_on_c, 0, 74, 0
2, 48960, Note_on_c, 0, 67, 127
2, 49020, Note_on_c, 0, 67, 0
2, 49020, Note_on_c, 0, 72, 127
2, 49080, Note_on_c, 0, 72, 0
2, 49080, Note_on_c, 0, 75, 127
2, 49140, Note_on_c, 0, 75, 0
2, 49140, Note_on_c, 0, 74, 127
2, 49200, Note_on_c, 0, 74, 0
2, 49200, Note_on_c, 0, 67, 127
2, 49260, Note_on_c, 0, 67, 0
2, 49260, Note_on_c, 0, 72, 127
2, 49290, Note_on_c, 0, 72, 0
2, 49290, Note_on_c, 0, 74, 127
2, 49320, Note_on_c, 0, 74, 0
2, 49320, Note_on_c, 0, 75, 127
2, 49350, Note_on_c, 0, 75, 0
2, 49350, Note_on_c, 0, 74, 127
2, 49380, Note_on_c, 0, 74, 0
2, 49380, Note_on_c, 0, 75, 127
2, 49410, Note_on_c, 0, 75, 0
2, 49410, Note_on_c, 0, 74, 127
2, 49440, Note_on_c, 0, 74, 0
2, 49440, Note_on_c, 0, 72, 127
2, 49500, Note_on_c, 0, 72, 0
2, 49500, Note_on_c, 0, 74, 127
2, 49530, Note_on_c, 0, 74, 0
2, 49530, Note_on_c, 0, 75, 127
2, 49560, Note_on_c, 0, 75, 0
2, 49560, Note_on_c, 0, 77, 127
2, 49590, Note_on_c, 0, 77, 0
2, 49590, Note_on_c, 0, 79, 127
2, 49620, Note_on_c, 0, 79, 0
2, 49620, Note_on_c, 0, 80, 127
2, 49680, Note_on_c, 0, 80, 0
2, 49680, Note_on_c, 0, 80, 127
2, 49740, Note_on_c, 0, 80, 0
2, 49740, Note_on_c, 0, 74, 127
2, 49800, Note_on_c, 0, 74, 0
2, 49920, Note_on_c, 0, 65, 127
2, 49980, Note_on_c, 0, 65, 0
2, 49980, Note_on_c, 0, 70, 127
2, 50040, Note_on_c, 0, 70, 0
2, 50040, Note_on_c, 0, 74, 127
2, 50100, Note_on_c, 0, 74, 0
2, 50100, Note_on_c, 0, 72, 127
2, 50160, Note_on_c, 0, 72, 0
2, 50160, Note_on_c, 0, 65, 127
2, 50220, Note_on_c, 0, 65, 0
2, 50220, Note_on_c, 0, 70, 127
2, 50250, Note_on_c, 0, 70, 0
2, 50250, Note_on_c, 0, 72, 127
2, 50280, Note_on_c, 0, 72, 0
2, 50280, Note_on_c, 0, 74, 127
2, 50310, Note_on_c, 0, 74, 0
2, 50310, Note_on_c, 0, 72, 127
2, 50340, Note_on_c, 0, 72, 0
2, 50340, Note_on_c, 0, 74, 127
2, 50370, Note_on_c, 0, 74, 0
2, 50370, Note_on_c, 0, 72, 127
2, 50400, Note_on_c, 0, 72, 0
2, 50400, Note_on_c, 0, 70, 127
2, 50460, Note_on_c, 0, 70, 0
2, 50460, Note_on_c, 0, 72, 127
2, 50490, Note_on_c, 0, 72, 0
2, 50490, Note_on_c, 0, 74, 127
2, 50520, Note_on_c, 0, 74, 0
2, 50520, Note_on_c, 0, 75, 127
2, 50550, Note_on_c, 0, 75, 0
2, 50550, Note_on_c, 0, 77, 127
2, 50580, Note_on_c, 0, 77, 0
2, 50580, Note_on_c, 0, 79, 127
2, 50640, Note_on_c, 0, 79, 0
2, 50640, Note_on_c, 0, 79, 127
2, 50700, Note_on_c, 0, 79, 0
2, 50700, Note_on_c, 0, 72, 127
2, 50760, Note_on_c, 0, 72, 0
2, 50880, Note_on_c, 0, 84, 127
2, 50910, Note_on_c, 0, 84, 0
2, 50910, Note_on_c, 0, 82, 127
2, 50940, Note_on_c, 0, 82, 0
2, 50940, Note_on_c, 0, 80, 127
2, 50970, Note_on_c, 0, 80, 0
2, 50970, Note_on_c, 0, 79, 127
2, 51000, Note_on_c, 0, 79, 0
2, 51000, Note_on_c, 0, 77, 127
2, 51060, Note_on_c, 0, 77, 0
2, 51060, Note_on_c, 0, 77, 127
2, 51120, Note_on_c, 0, 77, 0
2, 51120, Note_on_c, 0, 77, 127
2, 51270, Note_on_c, 0, 77, 0
2, 51270, Note_on_c, 0, 72, 127
2, 51300, Note_on_c, 0, 72, 0
2, 51300, Note_on_c, 0, 77, 127
2, 51330, Note_on_c, 0, 77, 0
2, 51330, Note_on_c, 0, 79, 127
2, 51360, Note_on_c, 0, 79, 0
2, 51360, Note_on_c, 0, 80, 127
2, 51390, Note_on_c, 0, 80, 0
2, 51390, Note_on_c, 0, 79, 127
2, 51420, Note_on_c, 0, 79, 0
2, 51420, Note_on_c, 0, 77, 127
2, 51450, Note_on_c, 0, 77, 0
2, 51450, Note_on_c, 0, 75, 127
2, 51480, Note_on_c, 0, 75, 0
2, 51480, Note_on_c, 0, 73, 127
2, 51540, Note_on_c, 0, 73, 0
2, 51540, Note_on_c, 0, 73, 127
2, 51600, Note_on_c, 0, 73, 0
2, 51600, Note_on_c, 0, 73, 127
2, 51750, Note_on_c, 0, 73, 0
2, 51750, Note_on_c, 0, 68, 127
2, 51780, Note_on_c, 0, 68, 0
2, 51780, Note_on_c, 0, 73, 127
2, 51810, Note_on_c, 0, 73, 0
2, 51810, Note_on_c, 0, 75, 127
2, 51840, Note_on_c, 0, 75, 0
2, 51840, Note_on_c, 0, 77, 127
2, 51870, Note_on_c, 0, 77, 0
2, 51870, Note_on_c, 0, 79, 127
2, 51900, Note_on_c, 0, 79, 0
2, 51900, Note_on_c, 0, 80, 127
2, 51930, Note_on_c, 0, 80, 0
2, 51930, Note_on_c, 0, 79, 127
2, 51960, Note_on_c, 0, 79, 0
2, 51960, Note_on_c, 0, 77, 127
2, 51990, Note_on_c, 0, 77, 0
2, 51990, Note_on_c, 0, 75, 127
2, 52020, Note_on_c, 0, 75, 0
2, 52020, Note_on_c, 0, 74, 127
2, 52050, Note_on_c, 0, 74, 0
2, 52050, Note_on_c, 0, 72, 127
2, 52080, Note_on_c, 0, 72, 0
2, 52080, Note_on_c, 0, 71, 127
2, 52140, Note_on_c, 0, 71, 0
2, 52140, Note_on_c, 0, 79, 127
2, 52200, Note_on_c, 0, 79, 0
2, 52200, Note_on_c, 0, 72, 127
2, 52260, Note_on_c, 0, 72, 0
2, 52260, Note_on_c, 0, 77, 127
2, 52320, Note_on_c, 0, 77, 0
2, 52320, Note_on_c, 0, 75, 127
2, 52410, Note_on_c, 0, 75, 0
2, 52410, Note_on_c, 0, 74, 127
2, 52440, Note_on_c, 0, 74, 0
2, 52440, Note_on_c, 0, 74, 127
2, 52530, Note_on_c, 0, 74, 0
2, 52530, Note_on_c, 0, 72, 127
2, 52560, Note_on_c, 0, 72, 0
2, 52560, Note_on_c, 0, 72, 127
2, 52800, Note_on_c, 0, 72, 0
2, 80400, Note_on_c, 0, 72, 90
2, 80459, Note_on_c, 0, 72, 0
2, 80460, Note_on_c, 0, 67, 90
2, 80519, Note_on_c, 0, 67, 0
2, 80520, Note_on_c, 0, 72, 90
2, 80579, Note_on_c, 0, 72, 0
2, 80580, Note_on_c, 0, 65, 90
2, 80639, Note_on_c, 0, 65, 0
2, 80640, Note_on_c, 0, 72, 90
2, 80699, Note_on_c, 0, 72, 0
2, 80700, Note_on_c, 0, 63, 90
2, 80729, Note_on_c, 0, 63, 0
2, 80730, Note_on_c, 0, 62, 90
2, 80759, Note_on_c, 0, 62, 0
2, 80760, Note_on_c, 0, 63, 90
2, 80789, Note_on_c, 0, 63, 0
2, 80790, Note_on_c, 0, 62, 90
2, 80819, Note_on_c, 0, 62, 0
2, 80820, Note_on_c, 0, 60, 90
2, 80879, Note_on_c, 0, 60, 0
2, 80880, Note_on_c, 0, 75, 90
2, 80939, Note_on_c, 0, 75, 0
2, 80940, Note_on_c, 0, 74, 90
2, 80999, Note_on_c, 0, 74, 0
2, 81000, Note_on_c, 0, 79, 90
2, 81119, Note_on_c, 0, 79, 0
2, 81120, Note_on_c, 0, 72, 90
2, 81179, Note_on_c, 0, 72, 0
2, 81180, Note_on_c, 0, 71, 90
2, 81209, Note_on_c, 0, 71, 0
2, 81210, Note_on_c, 0, 69, 90
2, 81239, Note_on_c, 0, 69, 0
2, 81240, Note_on_c, 0, 71, 90
2, 81269, Note_on_c, 0, 71, 0
2, 81270, Note_on_c, 0, 69, 90
2, 81299, Note_on_c, 0, 69, 0
2, 81300, Note_on_c, 0, 67, 90
2, 81329, Note_on_c, 0, 67, 0
2, 81330, Note_on_c, 0, 69, 90
2, 81359, Note_on_c, 0, 69, 0
2, 81360, Note_on_c, 0, 71, 90
2, 81389, Note_on_c, 0, 71, 0
2, 81390, Note_on_c, 0, 67, 90
2, 81419, Note_on_c, 0, 67, 0
2, 81420, Note_on_c, 0, 72, 90
2, 81479, Note_on_c, 0, 72, 0
2, 81480, Note_on_c, 0, 67, 90
2, 81539, Note_on_c, 0, 67, 0
2, 81540, Note_on_c, 0, 74, 90
2, 81599, Note_on_c, 0, 74, 0
2, 81600, Note_on_c, 0, 67, 90
2, 81659, Note_on_c, 0, 67, 0
2, 81660, Note_on_c, 0, 77, 90
2, 81719, Note_on_c, 0, 77, 0
2, 81720, Note_on_c, 0, 75, 90
2, 81809, Note_on_c, 0, 75, 0
2, 81810, Note_on_c, 0, 72, 90
2, 81839, Note_on_c, 0, 72, 0
2, 81840, Note_on_c, 0, 74, 90
2, 81869, Note_on_c, 0, 74, 0
2, 81870, Note_on_c, 0, 76, 90
2, 81899, Note_on_c, 0, 76, 0
2, 81900, Note_on_c, 0, 77, 90
2, 81959, Note_on_c, 0, 77, 0
2, 81960, Note_on_c, 0, 72, 90
2, 82019, Note_on_c, 0, 72, 0
2, 82020, Note_on_c, 0, 79, 90
2, 82079, Note_on_c, 0, 79, 0
2, 82080, Note_on_c, 0, 72, 90
2, 82139, Note_on_c, 0, 72, 0
2, 82140, Note_on_c, 0, 82, 90
2, 82199, Note_on_c, 0, 82, 0
2, 82200, Note_on_c, 0, 80, 90
2, 82289, Note_on_c, 0, 80, 0
2, 82290, Note_on_c, 0, 79, 90
2, 82319, Note_on_c, 0, 79, 0
2, 82320, Note_on_c, 0, 80, 90
2, 82349, Note_on_c, 0, 80, 0
2, 82350, Note_on_c, 0, 77, 90
2, 82379, Note_on_c, 0, 77, 0
2, 82380, Note_on_c, 0, 72, 90
2, 82409, Note_on_c, 0, 72, 0
2, 82410, Note_on_c, 0, 71, 90
2, 82439, Note_on_c, 0, 71, 0
2, 82440, Note_on_c, 0, 72, 90
2, 82469, Note_on_c, 0, 72, 0
2, 82470, Note_on_c, 0, 74, 90
2, 82499, Note_on_c, 0, 74, 0
2, 82500, Note_on_c, 0, 76, 90
2, 82529, Note_on_c, 0, 76, 0
2, 82530, Note_on_c, 0, 77, 90
2, 82559, Note_on_c, 0, 77, 0
2, 82560, Note_on_c, 0, 79, 90
2, 82589, Note_on_c, 0, 79, 0
2, 82590, Note_on_c, 0, 80, 90
2, 82619, Note_on_c, 0, 80, 0
2, 82620, Note_on_c, 0, 82, 90
2, 82649, Note_on_c, 0, 82, 0
2, 82650, Note_on_c, 0, 79, 90
2, 82679, Note_on_c, 0, 79, 0
2, 82680, Note_on_c, 0, 80, 90
2, 82709, Note_on_c, 0, 80, 0
2, 82710, Note_on_c, 0, 77, 90
2, 82739, Note_on_c, 0, 77, 0
2, 82740, Note_on_c, 0, 72, 90
2, 82769, Note_on_c, 0, 72, 0
2, 82770, Note_on_c, 0, 77, 90
2, 82799, Note_on_c, 0, 77, 0
2, 82800, Note_on_c, 0, 80, 90
2, 82829, Note_on_c, 0, 80, 0
2, 82830, Note_on_c, 0, 77, 90
2, 82859, Note_on_c, 0, 77, 0
2, 82860, Note_on_c, 0, 72, 90
2, 82889, Note_on_c, 0, 72, 0
2, 82890, Note_on_c, 0, 71, 90
2, 82919, Note_on_c, 0, 71, 0
2, 82920, Note_on_c, 0, 72, 90
2, 82949, Note_on_c, 0, 72, 0
2, 82950, Note_on_c, 0, 74, 90
2, 82979, Note_on_c, 0, 74, 0
2, 82980, Note_on_c, 0, 76, 90
2, 83009, Note_on_c, 0, 76, 0
2, 83010, Note_on_c, 0, 77, 90
2, 83039, Note_on_c, 0, 77, 0
2, 83040, Note_on_c, 0, 79, 90
2, 83069, Note_on_c, 0, 79, 0
2, 83070, Note_on_c, 0, 80, 90
2, 83099, Note_on_c, 0, 80, 0
2, 83100, Note_on_c, 0, 82, 90
2, 83129, Note_on_c, 0, 82, 0
2, 83130, Note_on_c, 0, 79, 90
2, 83159, Note_on_c, 0, 79, 0
2, 83160, Note_on_c, 0, 80, 90
2, 83189, Note_on_c, 0, 80, 0
2, 83190, Note_on_c, 0, 77, 90
2, 83219, Note_on_c, 0, 77, 0
2, 83220, Note_on_c, 0, 72, 90
2, 83249, Note_on_c, 0, 72, 0
2, 83250, Note_on_c, 0, 77, 90
2, 83279, Note_on_c, 0, 77, 0
2, 83280, Note_on_c, 0, 80, 90
2, 83309, Note_on_c, 0, 80, 0
2, 83310, Note_on_c, 0, 77, 90
2, 83339, Note_on_c, 0, 77, 0
2, 83340, Note_on_c, 0, 70, 90
2, 83369, Note_on_c, 0, 70, 0
2, 83370, Note_on_c, 0, 69, 90
2, 83399, Note_on_c, 0, 69, 0
2, 83400, Note_on_c, 0, 70, 90
2, 83429, Note_on_c, 0, 70, 0
2, 83430, Note_on_c, 0, 72, 90
2, 83459, Note_on_c, 0, 72, 0
2, 83460, Note_on_c, 0, 74, 90
2, 83489, Note_on_c, 0, 74, 0
2, 83490, Note_on_c, 0, 75, 90
2, 83519, Note_on_c, 0, 75, 0
2, 83520, Note_on_c, 0, 77, 90
2, 83549, Note_on_c, 0, 77, 0
2, 83550, Note_on_c, 0, 79, 90
2, 83579, Note_on_c, 0, 79, 0
2, 83580, Note_on_c, 0, 80, 90
2, 83609, Note_on_c, 0, 80, 0
2, 83610, Note_on_c, 0, 77, 90
2, 83639, Note_on_c, 0, 77, 0
2, 83640, Note_on_c, 0, 79, 90
2, 83669, Note_on_c, 0, 79, 0
2, 83670, Note_on_c, 0, 75, 90
2, 83699, Note_on_c, 0, 75, 0
2, 83700, Note_on_c, 0, 70, 90
2, 83729, Note_on_c, 0, 70, 0
2, 83730, Note_on_c, 0, 75, 90
2, 83759, Note_on_c, 0, 75, 0
2, 83760, Note_on_c, 0, 79, 90
2, 83789, Note_on_c, 0, 79, 0
2, 83790, Note_on_c, 0, 75, 90
2, 83819, Note_on_c, 0, 75, 0
2, 83820, Note_on_c, 0, 70, 90
2, 83849, Note_on_c, 0, 70, 0
2, 83850, Note_on_c, 0, 69, 90
2, 83879, Note_on_c, 0, 69, 0
2, 83880, Note_on_c, 0, 70, 90
2, 83909, Note_on_c, 0, 70, 0
2, 83910, Note_on_c, 0, 72, 90
2, 83939, Note_on_c, 0, 72, 0
2, 83940, Note_on_c, 0, 74, 90
2, 83969, Note_on_c, 0, 74, 0
2, 83970, Note_on_c, 0, 75, 90
2, 83999, Note_on_c, 0, 75, 0
2, 84000, Note_on_c, 0, 77, 90
2, 84029, Note_on_c, 0, 77, 0
2, 84030, Note_on_c, 0, 79, 90
2, 84059, Note_on_c, 0, 79, 0
2, 84060, Note_on_c, 0, 80, 90
2, 84089, Note_on_c, 0, 80, 0
2, 84090, Note_on_c, 0, 77, 90
2, 84119, Note_on_c, 0, 77, 0
2, 84120, Note_on_c, 0, 79, 90
2, 84149, Note_on_c, 0, 79, 0
2, 84150, Note_on_c, 0, 75, 90
2, 84179, Note_on_c, 0, 75, 0
2, 84180, Note_on_c, 0, 70, 90
2, 84209, Note_on_c, 0, 70, 0
2, 84210, Note_on_c, 0, 75, 90
2, 84239, Note_on_c, 0, 75, 0
2, 84240, Note_on_c, 0, 79, 90
2, 84269, Note_on_c, 0, 79, 0
2, 84270, Note_on_c, 0, 75, 90
2, 84299, Note_on_c, 0, 75, 0
2, 84300, Note_on_c, 0, 77, 90
2, 84359, Note_on_c, 0, 77, 0
2, 84420, Note_on_c, 0, 77, 90
2, 84479, Note_on_c, 0, 77, 0
2, 84540, Note_on_c, 0, 77, 90
2, 84659, Note_on_c, 0, 77, 0
2, 84690, Note_on_c, 0, 75, 90
2, 84719, Note_on_c, 0, 75, 0
2, 84720, Note_on_c, 0, 74, 90
2, 84749, Note_on_c, 0, 74, 0
2, 84750, Note_on_c, 0, 77, 90
2, 84779, Note_on_c, 0, 77, 0
2, 84780, Note_on_c, 0, 75, 90
2, 84809, Note_on_c, 0, 75, 0
2, 84810, Note_on_c, 0, 74, 90
2, 84839, Note_on_c, 0, 74, 0
2, 84840, Note_on_c, 0, 75, 90
2, 84929, Note_on_c, 0, 75, 0
2, 84930, Note_on_c, 0, 74, 90
2, 84959, Note_on_c, 0, 74, 0
2, 84960, Note_on_c, 0, 75, 90
2, 85049, Note_on_c, 0, 75, 0
2, 85050, Note_on_c, 0, 72, 90
2, 85079, Note_on_c, 0, 72, 0
2, 85080, Note_on_c, 0, 75, 90
2, 85199, Note_on_c, 0, 75, 0
2, 85200, Note_on_c, 0, 74, 90
2, 85229, Note_on_c, 0, 74, 0
2, 85230, Note_on_c, 0, 72, 90
2, 85259, Note_on_c, 0, 72, 0
2, 85260, Note_on_c, 0, 71, 90
2, 85319, Note_on_c, 0, 71, 0
2, 85320, Note_on_c, 0, 74, 90
2, 85379, Note_on_c, 0, 74, 0
2, 85380, Note_on_c, 0, 65, 90
2, 85439, Note_on_c, 0, 65, 0
2, 85440, Note_on_c, 0, 74, 90
2, 85499, Note_on_c, 0, 74, 0
2, 85500, Note_on_c, 0, 63, 90
2, 85529, Note_on_c, 0, 63, 0
2, 85530, Note_on_c, 0, 62, 90
2, 85559, Note_on_c, 0, 62, 0
2, 85560, Note_on_c, 0, 63, 90
2, 85589, Note_on_c, 0, 63, 0
2, 85590, Note_on_c, 0, 62, 90
2, 85619, Note_on_c, 0, 62, 0
2, 85620, Note_on_c, 0, 60, 90
2, 85679, Note_on_c, 0, 60, 0
2, 85680, Note_on_c, 0, 75, 90
2, 85709, Note_on_c, 0, 75, 0
2, 85710, Note_on_c, 0, 77, 90
2, 85739, Note_on_c, 0, 77, 0
2, 85740, Note_on_c, 0, 79, 90
2, 85799, Note_on_c, 0, 79, 0
2, 85800, Note_on_c, 0, 72, 90
2, 85859, Note_on_c, 0, 72, 0
2, 85860, Note_on_c, 0, 67, 90
2, 85919, Note_on_c, 0, 67, 0
2, 85920, Note_on_c, 0, 71, 90
2, 85979, Note_on_c, 0, 71, 0
2, 85980, Note_on_c, 0, 72, 90
2, 86099, Note_on_c, 0, 72, 0
2, 86640, Note_on_c, 0, 72, 90
2, 86699, Note_on_c, 0, 72, 0
2, 86700, Note_on_c, 0, 67, 90
2, 86729, Note_on_c, 0, 67, 0
2, 86760, Note_on_c, 0, 72, 90
2, 86789, Note_on_c, 0, 72, 0
2, 86820, Note_on_c, 0, 65, 90
2, 86849, Note_on_c, 0, 65, 0
2, 86880, Note_on_c, 0, 74, 90
2, 86909, Note_on_c, 0, 74, 0
2, 86940, Note_on_c, 0, 63, 90
2, 86969, Note_on_c, 0, 63, 0
2, 86970, Note_on_c, 0, 62, 90
2, 86999, Note_on_c, 0, 62, 0
2, 87000, Note_on_c, 0, 63, 90
2, 87029, Note_on_c, 0, 63, 0
2, 87030, Note_on_c, 0, 62, 90
2, 87059, Note_on_c, 0, 62, 0
2, 87060, Note_on_c, 0, 60, 90
2, 87119, Note_on_c, 0, 60, 0
2, 87600, Note_on_c, 0, 75, 90
2, 87659, Note_on_c, 0, 75, 0
2, 87660, Note_on_c, 0, 70, 90
2, 87719, Note_on_c, 0, 70, 0
2, 87720, Note_on_c, 0, 75, 90
2, 87779, Note_on_c, 0, 75, 0
2, 87780, Note_on_c, 0, 68, 90
2, 87839, Note_on_c, 0, 68, 0
2, 87840, Note_on_c, 0, 77, 90
2, 87899, Note_on_c, 0, 77, 0
2, 87900, Note_on_c, 0, 67, 90
2, 87929, Note_on_c, 0, 67, 0
2, 87930, Note_on_c, 0, 65, 90
2, 87959, Note_on_c, 0, 65, 0
2, 87960, Note_on_c, 0, 67, 90
2, 87989, Note_on_c, 0, 67, 0
2, 87990, Note_on_c, 0, 65, 90
2, 88019, Note_on_c, 0, 65, 0
2, 88020, Note_on_c, 0, 63, 90
2, 88079, Note_on_c, 0, 63, 0
2, 89520, Note_on_c, 0, 62, 90
2, 89579, Note_on_c, 0, 62, 0
2, 89580, Note_on_c, 0, 60, 90
2, 89639, Note_on_c, 0, 60, 0
2, 89640, Note_on_c, 0, 69, 90
2, 89699, Note_on_c, 0, 69, 0
2, 89700, Note_on_c, 0, 58, 90
2, 89759, Note_on_c, 0, 58, 0
2, 89760, Note_on_c, 0, 67, 90
2, 89819, Note_on_c, 0, 67, 0
2, 89820, Note_on_c, 0, 57, 90
2, 89849, Note_on_c, 0, 57, 0
2, 89850, Note_on_c, 0, 55, 90
2, 89879, Note_on_c, 0, 55, 0
2, 89880, Note_on_c, 0, 57, 90
2, 89909, Note_on_c, 0, 57, 0
2, 89910, Note_on_c, 0, 55, 90
2, 89939, Note_on_c, 0, 55, 0
2, 89940, Note_on_c, 0, 57, 90
2, 89999, Note_on_c, 0, 57, 0
2, 90000, Note_on_c, 0, 79, 90
2, 90059, Note_on_c, 0, 79, 0
2, 90060, Note_on_c, 0, 74, 90
2, 90119, Note_on_c, 0, 74, 0
2, 90120, Note_on_c, 0, 79, 90
2, 90179, Note_on_c, 0, 79, 0
2, 90180, Note_on_c, 0, 72, 90
2, 90239, Note_on_c, 0, 72, 0
2, 90240, Note_on_c, 0, 79, 90
2, 90299, Note_on_c, 0, 79, 0
2, 90300, Note_on_c, 0, 70, 90
2, 90329, Note_on_c, 0, 70, 0
2, 90330, Note_on_c, 0, 69, 90
2, 90359, Note_on_c, 0, 69, 0
2, 90360, Note_on_c, 0, 70, 90
2, 90389, Note_on_c, 0, 70, 0
2, 90390, Note_on_c, 0, 69, 90
2, 90419, Note_on_c, 0, 69, 0
2, 90420, Note_on_c, 0, 67, 90
2, 90479, Note_on_c, 0, 67, 0
2, 90480, Note_on_c, 0, 82, 90
2, 90539, Note_on_c, 0, 82, 0
2, 90540, Note_on_c, 0, 81, 90
2, 90599, Note_on_c, 0, 81, 0
2, 90600, Note_on_c, 0, 86, 90
2, 90719, Note_on_c, 0, 86, 0
2, 90720, Note_on_c, 0, 79, 90
2, 90779, Note_on_c, 0, 79, 0
2, 90780, Note_on_c, 0, 78, 90
2, 90809, Note_on_c, 0, 78, 0
2, 90810, Note_on_c, 0, 76, 90
2, 90839, Note_on_c, 0, 76, 0
2, 90840, Note_on_c, 0, 78, 90
2, 90869, Note_on_c, 0, 78, 0
2, 90870, Note_on_c, 0, 76, 90
2, 90899, Note_on_c, 0, 76, 0
2, 90900, Note_on_c, 0, 74, 90
2, 90959, Note_on_c, 0, 74, 0
2, 91440, Note_on_c, 0, 66, 90
2, 91499, Note_on_c, 0, 66, 0
2, 91500, Note_on_c, 0, 67, 90
2, 91559, Note_on_c, 0, 67, 0
2, 91560, Note_on_c, 0, 62, 90
2, 91619, Note_on_c, 0, 62, 0
2, 91620, Note_on_c, 0, 69, 90
2, 91679, Note_on_c, 0, 69, 0
2, 91680, Note_on_c, 0, 62, 90
2, 91739, Note_on_c, 0, 62, 0
2, 91740, Note_on_c, 0, 70, 90
2, 91769, Note_on_c, 0, 70, 0
2, 91770, Note_on_c, 0, 69, 90
2, 91799, Note_on_c, 0, 69, 0
2, 91800, Note_on_c, 0, 70, 90
2, 91829, Note_on_c, 0, 70, 0
2, 91830, Note_on_c, 0, 69, 90
2, 91859, Note_on_c, 0, 69, 0
2, 91860, Note_on_c, 0, 67, 90
2, 91919, Note_on_c, 0, 67, 0
2, 92400, Note_on_c, 0, 71, 90
2, 92459, Note_on_c, 0, 71, 0
2, 92460, Note_on_c, 0, 72, 90
2, 92519, Note_on_c, 0, 72, 0
2, 92520, Note_on_c, 0, 67, 90
2, 92579, Note_on_c, 0, 67, 0
2, 92580, Note_on_c, 0, 74, 90
2, 92639, Note_on_c, 0, 74, 0
2, 92640, Note_on_c, 0, 67, 90
2, 92699, Note_on_c, 0, 67, 0
2, 92700, Note_on_c, 0, 75, 90
2, 92729, Note_on_c, 0, 75, 0
2, 92730, Note_on_c, 0, 74, 90
2, 92759, Note_on_c, 0, 74, 0
2, 92760, Note_on_c, 0, 75, 90
2, 92789, Note_on_c, 0, 75, 0
2, 92790, Note_on_c, 0, 74, 90
2, 92819, Note_on_c, 0, 74, 0
2, 92820, Note_on_c, 0, 72, 90
2, 92879, Note_on_c, 0, 72, 0
2, 93360, Note_on_c, 0, 72, 90
2, 93419, Note_on_c, 0, 72, 0
2, 93420, Note_on_c, 0, 71, 90
2, 93479, Note_on_c, 0, 71, 0
2, 93480, Note_on_c, 0, 74, 90
2, 93539, Note_on_c, 0, 74, 0
2, 93540, Note_on_c, 0, 67, 90
2, 93599, Note_on_c, 0, 67, 0
2, 93600, Note_on_c, 0, 71, 90
2, 93659, Note_on_c, 0, 71, 0
2, 93660, Note_on_c, 0, 72, 90
2, 93719, Note_on_c, 0, 72, 0
2, 93720, Note_on_c, 0, 67, 90
2, 93779, Note_on_c, 0, 67, 0
2, 93780, Note_on_c, 0, 60, 90
2, 93839, Note_on_c, 0, 60, 0
2, 94320, Note_on_c, 0, 70, 90
2, 94379, Note_on_c, 0, 70, 0
2, 94380, Note_on_c, 0, 69, 90
2, 94439, Note_on_c, 0, 69, 0
2, 94440, Note_on_c, 0, 72, 90
2, 94499, Note_on_c, 0, 72, 0
2, 94500, Note_on_c, 0, 65, 90
2, 94559, Note_on_c, 0, 65, 0
2, 94560, Note_on_c, 0, 69, 90
2, 94619, Note_on_c, 0, 69, 0
2, 94620, Note_on_c, 0, 70, 90
2, 94679, Note_on_c, 0, 70, 0
2, 94680, Note_on_c, 0, 65, 90
2, 94739, Note_on_c, 0, 65, 0
2, 94740, Note_on_c, 0, 58, 90
2, 94799, Note_on_c, 0, 58, 0
2, 94800, Note_on_c, 0, 67, 90
2, 94859, Note_on_c, 0, 67, 0
2, 94860, Note_on_c, 0, 72, 90
2, 94919, Note_on_c, 0, 72, 0
2, 94980, Note_on_c, 0, 72, 90
2, 95039, Note_on_c, 0, 72, 0
2, 95100, Note_on_c, 0, 72, 90
2, 95219, Note_on_c, 0, 72, 0
2, 95250, Note_on_c, 0, 70, 90
2, 95279, Note_on_c, 0, 70, 0
2, 95280, Note_on_c, 0, 69, 90
2, 95309, Note_on_c, 0, 69, 0
2, 95310, Note_on_c, 0, 72, 90
2, 95339, Note_on_c, 0, 72, 0
2, 95340, Note_on_c, 0, 70, 90
2, 95369, Note_on_c, 0, 70, 0
2, 95370, Note_on_c, 0, 69, 90
2, 95399, Note_on_c, 0, 69, 0
2, 95400, Note_on_c, 0, 70, 90
2, 95489, Note_on_c, 0, 70, 0
2, 95490, Note_on_c, 0, 69, 90
2, 95519, Note_on_c, 0, 69, 0
2, 95520, Note_on_c, 0, 70, 90
2, 95609, Note_on_c, 0, 70, 0
2, 95610, Note_on_c, 0, 67, 90
2, 95639, Note_on_c, 0, 67, 0
2, 95640, Note_on_c, 0, 70, 90
2, 95759, Note_on_c, 0, 70, 0
2, 95760, Note_on_c, 0, 69, 90
2, 95789, Note_on_c, 0, 69, 0
2, 95790, Note_on_c, 0, 67, 90
2, 95819, Note_on_c, 0, 67, 0
2, 95820, Note_on_c, 0, 66, 90
2, 95879, Note_on_c, 0, 66, 0
2, 95880, Note_on_c, 0, 69, 90
2, 95939, Note_on_c, 0, 69, 0
2, 95940, Note_on_c, 0, 72, 90
2, 95999, Note_on_c, 0, 72, 0
2, 96000, Note_on_c, 0, 81, 90
2, 96059, Note_on_c, 0, 81, 0
2, 96060, Note_on_c, 0, 70, 90
2, 96089, Note_on_c, 0, 70, 0
2, 96090, Note_on_c, 0, 69, 90
2, 96119, Note_on_c, 0, 69, 0
2, 96120, Note_on_c, 0, 70, 90
2, 96149, Note_on_c, 0, 70, 0
2, 96150, Note_on_c, 0, 69, 90
2, 96179, Note_on_c, 0, 69, 0
2, 96180, Note_on_c, 0, 67, 90
2, 96209, Note_on_c, 0, 67, 0
2, 96210, Note_on_c, 0, 69, 90
2, 96239, Note_on_c, 0, 69, 0
2, 96240, Note_on_c, 0, 70, 90
2, 96269, Note_on_c, 0, 70, 0
2, 96270, Note_on_c, 0, 72, 90
2, 96299, Note_on_c, 0, 72, 0
2, 96300, Note_on_c, 0, 74, 90
2, 96359, Note_on_c, 0, 74, 0
2, 96360, Note_on_c, 0, 67, 90
2, 96419, Note_on_c, 0, 67, 0
2, 96420, Note_on_c, 0, 62, 90
2, 96479, Note_on_c, 0, 62, 0
2, 96480, Note_on_c, 0, 66, 90
2, 96539, Note_on_c, 0, 66, 0
2, 96540, Note_on_c, 0, 67, 90
2, 96659, Note_on_c, 0, 67, 0
2, 96780, Note_on_c, 0, 74, 100
2, 97860, Note_on_c, 0, 74, 0
2, 97860, Note_on_c, 0, 75, 100
2, 97980, Note_on_c, 0, 75, 0
2, 97980, Note_on_c, 0, 77, 100
2, 99180, Note_on_c, 0, 77, 0
2, 99180, Note_on_c, 0, 75, 100
2, 99660, Note_on_c, 0, 75, 0
2, 100560, Note_on_c, 0, 77, 90
2, 100619, Note_on_c, 0, 77, 0
2, 100620, Note_on_c, 0, 72, 90
2, 100679, Note_on_c, 0, 72, 0
2, 100680, Note_on_c, 0, 77, 90
2, 100739, Note_on_c, 0, 77, 0
2, 100740, Note_on_c, 0, 70, 90
2, 100799, Note_on_c, 0, 70, 0
2, 100800, Note_on_c, 0, 77, 90
2, 100859, Note_on_c, 0, 77, 0
2, 100860, Note_on_c, 0, 68, 90
2, 100889, Note_on_c, 0, 68, 0
2, 100890, Note_on_c, 0, 67, 90
2, 100919, Note_on_c, 0, 67, 0
2, 100920, Note_on_c, 0, 68, 90
2, 100949, Note_on_c, 0, 68, 0
2, 100950, Note_on_c, 0, 67, 90
2, 100979, Note_on_c, 0, 67, 0
2, 100980, Note_on_c, 0, 65, 90
2, 101039, Note_on_c, 0, 65, 0
2, 101040, Note_on_c, 0, 80, 90
2, 101099, Note_on_c, 0, 80, 0
2, 101100, Note_on_c, 0, 79, 90
2, 101159, Note_on_c, 0, 79, 0
2, 101160, Note_on_c, 0, 84, 90
2, 101279, Note_on_c, 0, 84, 0
2, 101280, Note_on_c, 0, 77, 90
2, 101339, Note_on_c, 0, 77, 0
2, 101340, Note_on_c, 0, 76, 90
2, 101369, Note_on_c, 0, 76, 0
2, 101370, Note_on_c, 0, 74, 90
2, 101399, Note_on_c, 0, 74, 0
2, 101400, Note_on_c, 0, 76, 90
2, 101429, Note_on_c, 0, 76, 0
2, 101430, Note_on_c, 0, 74, 90
2, 101459, Note_on_c, 0, 74, 0
2, 101460, Note_on_c, 0, 72, 90
2, 101519, Note_on_c, 0, 72, 0
2, 101520, Note_on_c, 0, 79, 90
2, 101579, Note_on_c, 0, 79, 0
2, 101580, Note_on_c, 0, 80, 90
2, 101639, Note_on_c, 0, 80, 0
2, 101640, Note_on_c, 0, 77, 90
2, 101699, Note_on_c, 0, 77, 0
2, 101700, Note_on_c, 0, 72, 90
2, 101759, Note_on_c, 0, 72, 0
2, 101760, Note_on_c, 0, 79, 90
2, 101819, Note_on_c, 0, 79, 0
2, 101820, Note_on_c, 0, 80, 90
2, 101879, Note_on_c, 0, 80, 0
2, 101880, Note_on_c, 0, 77, 90
2, 101939, Note_on_c, 0, 77, 0
2, 101940, Note_on_c, 0, 68, 90
2, 101999, Note_on_c, 0, 68, 0
2, 102000, Note_on_c, 0, 79, 90
2, 102059, Note_on_c, 0, 79, 0
2, 102060, Note_on_c, 0, 80, 90
2, 102119, Note_on_c, 0, 80, 0
2, 102120, Note_on_c, 0, 77, 90
2, 102179, Note_on_c, 0, 77, 0
2, 102180, Note_on_c, 0, 70, 90
2, 102239, Note_on_c, 0, 70, 0
2, 102240, Note_on_c, 0, 77, 90
2, 102299, Note_on_c, 0, 77, 0
2, 102300, Note_on_c, 0, 80, 90
2, 102359, Note_on_c, 0, 80, 0
2, 102360, Note_on_c, 0, 77, 90
2, 102419, Note_on_c, 0, 77, 0
2, 102420, Note_on_c, 0, 74, 90
2, 102479, Note_on_c, 0, 74, 0
2, 102480, Note_on_c, 0, 77, 90
2, 102539, Note_on_c, 0, 77, 0
2, 102540, Note_on_c, 0, 79, 90
2, 102599, Note_on_c, 0, 79, 0
2, 102600, Note_on_c, 0, 75, 90
2, 102659, Note_on_c, 0, 75, 0
2, 102660, Note_on_c, 0, 70, 90
2, 102719, Note_on_c, 0, 70, 0
2, 102720, Note_on_c, 0, 77, 90
2, 102779, Note_on_c, 0, 77, 0
2, 102780, Note_on_c, 0, 79, 90
2, 102839, Note_on_c, 0, 79, 0
2, 102840, Note_on_c, 0, 75, 90
2, 102899, Note_on_c, 0, 75, 0
2, 102900, Note_on_c, 0, 67, 90
2, 102959, Note_on_c, 0, 67, 0
2, 102960, Note_on_c, 0, 77, 90
2, 103019, Note_on_c, 0, 77, 0
2, 103020, Note_on_c, 0, 79, 90
2, 103079, Note_on_c, 0, 79, 0
2, 103080, Note_on_c, 0, 75, 90
2, 103139, Note_on_c, 0, 75, 0
2, 103140, Note_on_c, 0, 68, 90
2, 103199, Note_on_c, 0, 68, 0
2, 103200, Note_on_c, 0, 75, 90
2, 103259, Note_on_c, 0, 75, 0
2, 103260, Note_on_c, 0, 79, 90
2, 103319, Note_on_c, 0, 79, 0
2, 103320, Note_on_c, 0, 75, 90
2, 103379, Note_on_c, 0, 75, 0
2, 103380, Note_on_c, 0, 72, 90
2, 103439, Note_on_c, 0, 72, 0
2, 103440, Note_on_c, 0, 75, 90
2, 103499, Note_on_c, 0, 75, 0
2, 103500, Note_on_c, 0, 77, 90
2, 103559, Note_on_c, 0, 77, 0
2, 103560, Note_on_c, 0, 74, 90
2, 103619, Note_on_c, 0, 74, 0
2, 103620, Note_on_c, 0, 68, 90
2, 103679, Note_on_c, 0, 68, 0
2, 103680, Note_on_c, 0, 75, 90
2, 103739, Note_on_c, 0, 75, 0
2, 103740, Note_on_c, 0, 77, 90
2, 103799, Note_on_c, 0, 77, 0
2, 103800, Note_on_c, 0, 74, 90
2, 103859, Note_on_c, 0, 74, 0
2, 103860, Note_on_c, 0, 65, 90
2, 103919, Note_on_c, 0, 65, 0
2, 103920, Note_on_c, 0, 75, 90
2, 103979, Note_on_c, 0, 75, 0
2, 103980, Note_on_c, 0, 77, 90
2, 104039, Note_on_c, 0, 77, 0
2, 104040, Note_on_c, 0, 74, 90
2, 104099, Note_on_c, 0, 74, 0
2, 104100, Note_on_c, 0, 67, 90
2, 104159, Note_on_c, 0, 67, 0
2, 104160, Note_on_c, 0, 74, 90
2, 104219, Note_on_c, 0, 74, 0
2, 104220, Note_on_c, 0, 77, 90
2, 104279, Note_on_c, 0, 77, 0
2, 104280, Note_on_c, 0, 74, 90
2, 104339, Note_on_c, 0, 74, 0
2, 104340, Note_on_c, 0, 71, 90
2, 104399, Note_on_c, 0, 71, 0
2, 104400, Note_on_c, 0, 74, 90
2, 104459, Note_on_c, 0, 74, 0
2, 104460, Note_on_c, 0, 75, 90
2, 104519, Note_on_c, 0, 75, 0
2, 104880, Note_on_c, 0, 72, 90
2, 104939, Note_on_c, 0, 72, 0
2, 104940, Note_on_c, 0, 67, 90
2, 104999, Note_on_c, 0, 67, 0
2, 105000, Note_on_c, 0, 72, 90
2, 105059, Note_on_c, 0, 72, 0
2, 105060, Note_on_c, 0, 65, 90
2, 105119, Note_on_c, 0, 65, 0
2, 105120, Note_on_c, 0, 74, 90
2, 105179, Note_on_c, 0, 74, 0
2, 105180, Note_on_c, 0, 63, 90
2, 105209, Note_on_c, 0, 63, 0
2, 105210, Note_on_c, 0, 62, 90
2, 105239, Note_on_c, 0, 62, 0
2, 105240, Note_on_c, 0, 63, 90
2, 105269, Note_on_c, 0, 63, 0
2, 105270, Note_on_c, 0, 62, 90
2, 105299, Note_on_c, 0, 62, 0
2, 105300, Note_on_c, 0, 60, 90
2, 105359, Note_on_c, 0, 60, 0
2, 105840, Note_on_c, 0, 75, 90
2, 105899, Note_on_c, 0, 75, 0
2, 105900, Note_on_c, 0, 70, 90
2, 105959, Note_on_c, 0, 70, 0
2, 105960, Note_on_c, 0, 75, 90
2, 106019, Note_on_c, 0, 75, 0
2, 106020, Note_on_c, 0, 68, 90
2, 106079, Note_on_c, 0, 68, 0
2, 106080, Note_on_c, 0, 77, 90
2, 106139, Note_on_c, 0, 77, 0
2, 106140, Note_on_c, 0, 67, 90
2, 106169, Note_on_c, 0, 67, 0
2, 106170, Note_on_c, 0, 65, 90
2, 106199, Note_on_c, 0, 65, 0
2, 106200, Note_on_c, 0, 67, 90
2, 106229, Note_on_c, 0, 67, 0
2, 106230, Note_on_c, 0, 65, 90
2, 106259, Note_on_c, 0, 65, 0
2, 106260, Note_on_c, 0, 63, 90
2, 106319, Note_on_c, 0, 63, 0
2, 106800, Note_on_c, 0, 68, 90
2, 106859, Note_on_c, 0, 68, 0
2, 106860, Note_on_c, 0, 67, 90
2, 106919, Note_on_c, 0, 67, 0
2, 106920, Note_on_c, 0, 70, 90
2, 106979, Note_on_c, 0, 70, 0
2, 106980, Note_on_c, 0, 63, 90
2, 107039, Note_on_c, 0, 63, 0
2, 107040, Note_on_c, 0, 67, 90
2, 107099, Note_on_c, 0, 67, 0
2, 107100, Note_on_c, 0, 68, 90
2, 107159, Note_on_c, 0, 68, 0
2, 107160, Note_on_c, 0, 63, 90
2, 107219, Note_on_c, 0, 63, 0
2, 107220, Note_on_c, 0, 56, 90
2, 107279, Note_on_c, 0, 56, 0
2, 107760, Note_on_c, 0, 70, 90
2, 107819, Note_on_c, 0, 70, 0
2, 107820, Note_on_c, 0, 69, 90
2, 107879, Note_on_c, 0, 69, 0
2, 107880, Note_on_c, 0, 72, 90
2, 107939, Note_on_c, 0, 72, 0
2, 107940, Note_on_c, 0, 65, 90
2, 107999, Note_on_c, 0, 65, 0
2, 108000, Note_on_c, 0, 69, 90
2, 108059, Note_on_c, 0, 69, 0
2, 108060, Note_on_c, 0, 70, 90
2, 108119, Note_on_c, 0, 70, 0
2, 108120, Note_on_c, 0, 65, 90
2, 108179, Note_on_c, 0, 65, 0
2, 108180, Note_on_c, 0, 58, 90
2, 108239, Note_on_c, 0, 58, 0
2, 108720, Note_on_c, 0, 72, 90
2, 108779, Note_on_c, 0, 72, 0
2, 108780, Note_on_c, 0, 71, 90
2, 108839, Note_on_c, 0, 71, 0
2, 108840, Note_on_c, 0, 74, 90
2, 108899, Note_on_c, 0, 74, 0
2, 108900, Note_on_c, 0, 67, 90
2, 108959, Note_on_c, 0, 67, 0
2, 108960, Note_on_c, 0, 71, 90
2, 109019, Note_on_c, 0, 71, 0
2, 109020, Note_on_c, 0, 72, 90
2, 109079, Note_on_c, 0, 72, 0
2, 109080, Note_on_c, 0, 67, 90
2, 109139, Note_on_c, 0, 67, 0
2, 109140, Note_on_c, 0, 60, 90
2, 109199, Note_on_c, 0, 60, 0
2, 109200, Note_on_c, 0, 72, 90
2, 109259, Note_on_c, 0, 72, 0
2, 109260, Note_on_c, 0, 77, 90
2, 109319, Note_on_c, 0, 77, 0
2, 109380, Note_on_c, 0, 77, 90
2, 109439, Note_on_c, 0, 77, 0
2, 109500, Note_on_c, 0, 77, 90
2, 109619, Note_on_c, 0, 77, 0
2, 109650, Note_on_c, 0, 75, 90
2, 109679, Note_on_c, 0, 75, 0
2, 109680, Note_on_c, 0, 74, 90
2, 109709, Note_on_c, 0, 74, 0
2, 109710, Note_on_c, 0, 77, 90
2, 109739, Note_on_c, 0, 77, 0
2, 109740, Note_on_c, 0, 75, 90
2, 109769, Note_on_c, 0, 75, 0
2, 109770, Note_on_c, 0, 74, 90
2, 109799, Note_on_c, 0, 74, 0
2, 109800, Note_on_c, 0, 75, 90
2, 109889, Note_on_c, 0, 75, 0
2, 109890, Note_on_c, 0, 74, 90
2, 109919, Note_on_c, 0, 74, 0
2, 109920, Note_on_c, 0, 75, 90
2, 110009, Note_on_c, 0, 75, 0
2, 110010, Note_on_c, 0, 72, 90
2, 110039, Note_on_c, 0, 72, 0
2, 110040, Note_on_c, 0, 75, 90
2, 110159, Note_on_c, 0, 75, 0
2, 110160, Note_on_c, 0, 74, 90
2, 110189, Note_on_c, 0, 74, 0
2, 110190, Note_on_c, 0, 72, 90
2, 110219, Note_on_c, 0, 72, 0
2, 110220, Note_on_c, 0, 71, 90
2, 110699, Note_on_c, 0, 71, 0
2, 110700, Note_on_c, 0, 72, 90
2, 111179, Note_on_c, 0, 72, 0
2, 111180, Note_on_c, 0, 74, 90
2, 111899, Note_on_c, 0, 74, 0
2, 111900, Note_on_c, 0, 72, 90
2, 112379, Note_on_c, 0, 72, 0
2, 112380, Note_on_c, 0, 71, 90
2, 112619, Note_on_c, 0, 71, 0
2, 112620, Note_on_c, 0, 72, 90
2, 112679, Note_on_c, 0, 72, 0
2, 112680, Note_on_c, 0, 72, 90
2, 112739, Note_on_c, 0, 72, 0
2, 112740, Note_on_c, 0, 65, 90
2, 112799, Note_on_c, 0, 65, 0
2, 112800, Note_on_c, 0, 72, 90
2, 112859, Note_on_c, 0, 72, 0
2, 112860, Note_on_c, 0, 63, 90
2, 112889, Note_on_c, 0, 63, 0
2, 112890, Note_on_c, 0, 62, 90
2, 112919, Note_on_c, 0, 62, 0
2, 112920, Note_on_c, 0, 63, 90
2, 112949, Note_on_c, 0, 63, 0
2, 112950, Note_on_c, 0, 62, 90
2, 112979, Note_on_c, 0, 62, 0
2, 112980, Note_on_c, 0, 60, 90
2, 113039, Note_on_c, 0, 60, 0
2, 113040, Note_on_c, 0, 75, 90
2, 113099, Note_on_c, 0, 75, 0
2, 113100, Note_on_c, 0, 74, 90
2, 113159, Note_on_c, 0, 74, 0
2, 113160, Note_on_c, 0, 79, 90
2, 113279, Note_on_c, 0, 79, 0
2, 113280, Note_on_c, 0, 72, 90
2, 113339, Note_on_c, 0, 72, 0
2, 113340, Note_on_c, 0, 71, 90
2, 113369, Note_on_c, 0, 71, 0
2, 113370, Note_on_c, 0, 69, 90
2, 113399, Note_on_c, 0, 69, 0
2, 113400, Note_on_c, 0, 71, 90
2, 113429, Note_on_c, 0, 71, 0
2, 113430, Note_on_c, 0, 69, 90
2, 113459, Note_on_c, 0, 69, 0
2, 113460, Note_on_c, 0, 67, 90
2, 113519, Note_on_c, 0, 67, 0
2, 114000, Note_on_c, 0, 59, 90
2, 114059, Note_on_c, 0, 59, 0
2, 114060, Note_on_c, 0, 60, 90
2, 114119, Note_on_c, 0, 60, 0
2, 114120, Note_on_c, 0, 55, 90
2, 114179, Note_on_c, 0, 55, 0
2, 114180, Note_on_c, 0, 62, 90
2, 114239, Note_on_c, 0, 62, 0
2, 114240, Note_on_c, 0, 55, 90
2, 114299, Note_on_c, 0, 55, 0
2, 114300, Note_on_c, 0, 63, 90
2, 114329, Note_on_c, 0, 63, 0
2, 114330, Note_on_c, 0, 62, 90
2, 114359, Note_on_c, 0, 62, 0
2, 114360, Note_on_c, 0, 63, 90
2, 114389, Note_on_c, 0, 63, 0
2, 114390, Note_on_c, 0, 62, 90
2, 114419, Note_on_c, 0, 62, 0
2, 114420, Note_on_c, 0, 60, 90
2, 114479, Note_on_c, 0, 60, 0
2, 114960, Note_on_c, 0, 64, 90
2, 115019, Note_on_c, 0, 64, 0
2, 115020, Note_on_c, 0, 65, 90
2, 115079, Note_on_c, 0, 65, 0
2, 115080, Note_on_c, 0, 60, 90
2, 115139, Note_on_c, 0, 60, 0
2, 115140, Note_on_c, 0, 67, 90
2, 115199, Note_on_c, 0, 67, 0
2, 115200, Note_on_c, 0, 60, 90
2, 115259, Note_on_c, 0, 60, 0
2, 115260, Note_on_c, 0, 68, 90
2, 115289, Note_on_c, 0, 68, 0
2, 115290, Note_on_c, 0, 67, 90
2, 115319, Note_on_c, 0, 67, 0
2, 115320, Note_on_c, 0, 68, 90
2, 115349, Note_on_c, 0, 68, 0
2, 115350, Note_on_c, 0, 67, 90
2, 115379, Note_on_c, 0, 67, 0
2, 115380, Note_on_c, 0, 65, 90
2, 115439, Note_on_c, 0, 65, 0
2, 116880, Note_on_c, 0, 67, 90
2, 116939, Note_on_c, 0, 67, 0
2, 116940, Note_on_c, 0, 65, 90
2, 116999, Note_on_c, 0, 65, 0
2, 117000, Note_on_c, 0, 74, 90
2, 117059, Note_on_c, 0, 74, 0
2, 117060, Note_on_c, 0, 63, 90
2, 117119, Note_on_c, 0, 63, 0
2, 117120, Note_on_c, 0, 72, 90
2, 117179, Note_on_c, 0, 72, 0
2, 117180, Note_on_c, 0, 62, 90
2, 117209, Note_on_c, 0, 62, 0
2, 117210, Note_on_c, 0, 60, 90
2, 117239, Note_on_c, 0, 60, 0
2, 117240, Note_on_c, 0, 62, 90
2, 117269, Note_on_c, 0, 62, 0
2, 117270, Note_on_c, 0, 60, 90
2, 117299, Note_on_c, 0, 60, 0
2, 117300, Note_on_c, 0, 59, 90
2, 117359, Note_on_c, 0, 59, 0
2, 117360, Note_on_c, 0, 72, 90
2, 117419, Note_on_c, 0, 72, 0
2, 117420, Note_on_c, 0, 67, 90
2, 117479, Note_on_c, 0, 67, 0
2, 117480, Note_on_c, 0, 72, 90
2, 117539, Note_on_c, 0, 72, 0
2, 117540, Note_on_c, 0, 65, 90
2, 117599, Note_on_c, 0, 65, 0
2, 117600, Note_on_c, 0, 72, 90
2, 117659, Note_on_c, 0, 72, 0
2, 117660, Note_on_c, 0, 63, 90
2, 117689, Note_on_c, 0, 63, 0
2, 117690, Note_on_c, 0, 62, 90
2, 117719, Note_on_c, 0, 62, 0
2, 117720, Note_on_c, 0, 63, 90
2, 117749, Note_on_c, 0, 63, 0
2, 117750, Note_on_c, 0, 62, 90
2, 117779, Note_on_c, 0, 62, 0
2, 117780, Note_on_c, 0, 60, 90
2, 117839, Note_on_c, 0, 60, 0
2, 117840, Note_on_c, 0, 75, 90
2, 117899, Note_on_c, 0, 75, 0
2, 117900, Note_on_c, 0, 74, 90
2, 117959, Note_on_c, 0, 74, 0
2, 117960, Note_on_c, 0, 79, 90
2, 118079, Note_on_c, 0, 79, 0
2, 118080, Note_on_c, 0, 72, 90
2, 118139, Note_on_c, 0, 72, 0
2, 118140, Note_on_c, 0, 71, 90
2, 118169, Note_on_c, 0, 71, 0
2, 118170, Note_on_c, 0, 69, 90
2, 118199, Note_on_c, 0, 69, 0
2, 118200, Note_on_c, 0, 71, 90
2, 118229, Note_on_c, 0, 71, 0
2, 118230, Note_on_c, 0, 69, 90
2, 118259, Note_on_c, 0, 69, 0
2, 118260, Note_on_c, 0, 67, 90
2, 118289, Note_on_c, 0, 67, 0
2, 118290, Note_on_c, 0, 69, 90
2, 118319, Note_on_c, 0, 69, 0
2, 118320, Note_on_c, 0, 71, 90
2, 118349, Note_on_c, 0, 71, 0
2, 118350, Note_on_c, 0, 67, 90
2, 118379, Note_on_c, 0, 67, 0
2, 118380, Note_on_c, 0, 72, 90
2, 118439, Note_on_c, 0, 72, 0
2, 118440, Note_on_c, 0, 67, 90
2, 118499, Note_on_c, 0, 67, 0
2, 118500, Note_on_c, 0, 74, 90
2, 118559, Note_on_c, 0, 74, 0
2, 118560, Note_on_c, 0, 67, 90
2, 118619, Note_on_c, 0, 67, 0
2, 118620, Note_on_c, 0, 77, 90
2, 118679, Note_on_c, 0, 77, 0
2, 118680, Note_on_c, 0, 75, 90
2, 118769, Note_on_c, 0, 75, 0
2, 118770, Note_on_c, 0, 72, 90
2, 118799, Note_on_c, 0, 72, 0
2, 118800, Note_on_c, 0, 74, 90
2, 118829, Note_on_c, 0, 74, 0
2, 118830, Note_on_c, 0, 76, 90
2, 118859, Note_on_c, 0, 76, 0
2, 118860, Note_on_c, 0, 77, 90
2, 118919, Note_on_c, 0, 77, 0
2, 118920, Note_on_c, 0, 72, 90
2, 118979, Note_on_c, 0, 72, 0
2, 118980, Note_on_c, 0, 79, 90
2, 119039, Note_on_c, 0, 79, 0
2, 119040, Note_on_c, 0, 72, 90
2, 119099, Note_on_c, 0, 72, 0
2, 119100, Note_on_c, 0, 82, 90
2, 119159, Note_on_c, 0, 82, 0
2, 119160, Note_on_c, 0, 80, 90
2, 119250, Note_on_c, 0, 80, 0
2, 119250, Note_on_c, 0, 79, 90
2, 119279, Note_on_c, 0, 79, 0
2, 119280, Note_on_c, 0, 80, 90
2, 119309, Note_on_c, 0, 80, 0
2, 119310, Note_on_c, 0, 77, 90
2, 119339, Note_on_c, 0, 77, 0
2, 119340, Note_on_c, 0, 72, 90
2, 119369, Note_on_c, 0, 72, 0
2, 119370, Note_on_c, 0, 71, 90
2, 119399, Note_on_c, 0, 71, 0
2, 119400, Note_on_c, 0, 72, 90
2, 119429, Note_on_c, 0, 72, 0
2, 119430, Note_on_c, 0, 74, 90
2, 119459, Note_on_c, 0, 74, 0
2, 119460, Note_on_c, 0, 76, 90
2, 119489, Note_on_c, 0, 76, 0
2, 119490, Note_on_c, 0, 77, 90
2, 119519, Note_on_c, 0, 77, 0
2, 119520, Note_on_c, 0, 79, 90
2, 119549, Note_on_c, 0, 79, 0
2, 119550, Note_on_c, 0, 80, 90
2, 119579, Note_on_c, 0, 80, 0
2, 119580, Note_on_c, 0, 82, 90
2, 119609, Note_on_c, 0, 82, 0
2, 119610, Note_on_c, 0, 79, 90
2, 119639, Note_on_c, 0, 79, 0
2, 119640, Note_on_c, 0, 80, 90
2, 119669, Note_on_c, 0, 80, 0
2, 119670, Note_on_c, 0, 77, 90
2, 119699, Note_on_c, 0, 77, 0
2, 119700, Note_on_c, 0, 72, 90
2, 119729, Note_on_c, 0, 72, 0
2, 119730, Note_on_c, 0, 77, 90
2, 119759, Note_on_c, 0, 77, 0
2, 119760, Note_on_c, 0, 80, 90
2, 119789, Note_on_c, 0, 80, 0
2, 119790, Note_on_c, 0, 77, 90
2, 119819, Note_on_c, 0, 77, 0
2, 119820, Note_on_c, 0, 72, 90
2, 119849, Note_on_c, 0, 72, 0
2, 119850, Note_on_c, 0, 71, 90
2, 119879, Note_on_c, 0, 71, 0
2, 119880, Note_on_c, 0, 72, 90
2, 119909, Note_on_c, 0, 72, 0
2, 119910, Note_on_c, 0, 74, 90
2, 119939, Note_on_c, 0, 74, 0
2, 119940, Note_on_c, 0, 76, 90
2, 119969, Note_on_c, 0, 76, 0
2, 119970, Note_on_c, 0, 77, 90
2, 119999, Note_on_c, 0, 77, 0
2, 120000, Note_on_c, 0, 79, 90
2, 120029, Note_on_c, 0, 79, 0
2, 120030, Note_on_c, 0, 80, 90
2, 120059, Note_on_c, 0, 80, 0
2, 120060, Note_on_c, 0, 82, 90
2, 120089, Note_on_c, 0, 82, 0
2, 120090, Note_on_c, 0, 79, 90
2, 120119, Note_on_c, 0, 79, 0
2, 120120, Note_on_c, 0, 80, 90
2, 120149, Note_on_c, 0, 80, 0
2, 120150, Note_on_c, 0, 77, 90
2, 120179, Note_on_c, 0, 77, 0
2, 120180, Note_on_c, 0, 72, 90
2, 120209, Note_on_c, 0, 72, 0
2, 120210, Note_on_c, 0, 77, 90
2, 120239, Note_on_c, 0, 77, 0
2, 120240, Note_on_c, 0, 80, 90
2, 120269, Note_on_c, 0, 80, 0
2, 120270, Note_on_c, 0, 77, 90
2, 120299, Note_on_c, 0, 77, 0
2, 120300, Note_on_c, 0, 70, 90
2, 120329, Note_on_c, 0, 70, 0
2, 120330, Note_on_c, 0, 69, 90
2, 120359, Note_on_c, 0, 69, 0
2, 120360, Note_on_c, 0, 70, 90
2, 120389, Note_on_c, 0, 70, 0
2, 120390, Note_on_c, 0, 72, 90
2, 120419, Note_on_c, 0, 72, 0
2, 120420, Note_on_c, 0, 74, 90
2, 120449, Note_on_c, 0, 74, 0
2, 120450, Note_on_c, 0, 75, 90
2, 120479, Note_on_c, 0, 75, 0
2, 120480, Note_on_c, 0, 77, 90
2, 120509, Note_on_c, 0, 77, 0
2, 120510, Note_on_c, 0, 79, 90
2, 120539, Note_on_c, 0, 79, 0
2, 120540, Note_on_c, 0, 80, 90
2, 120569, Note_on_c, 0, 80, 0
2, 120570, Note_on_c, 0, 77, 90
2, 120599, Note_on_c, 0, 77, 0
2, 120600, Note_on_c, 0, 79, 90
2, 120629, Note_on_c, 0, 79, 0
2, 120630, Note_on_c, 0, 75, 90
2, 120659, Note_on_c, 0, 75, 0
2, 120660, Note_on_c, 0, 70, 90
2, 120689, Note_on_c, 0, 70, 0
2, 120690, Note_on_c, 0, 75, 90
2, 120719, Note_on_c, 0, 75, 0
2, 120720, Note_on_c, 0, 79, 90
2, 120749, Note_on_c, 0, 79, 0
2, 120750, Note_on_c, 0, 75, 90
2, 120779, Note_on_c, 0, 75, 0
2, 120780, Note_on_c, 0, 70, 90
2, 120809, Note_on_c, 0, 70, 0
2, 120810, Note_on_c, 0, 69, 90
2, 120839, Note_on_c, 0, 69, 0
2, 120840, Note_on_c, 0, 70, 90
2, 120869, Note_on_c, 0, 70, 0
2, 120870, Note_on_c, 0, 72, 90
2, 120899, Note_on_c, 0, 72, 0
2, 120900, Note_on_c, 0, 74, 90
2, 120929, Note_on_c, 0, 74, 0
2, 120930, Note_on_c, 0, 75, 90
2, 120959, Note_on_c, 0, 75, 0
2, 120960, Note_on_c, 0, 77, 90
2, 120989, Note_on_c, 0, 77, 0
2, 120990, Note_on_c, 0, 79, 90
2, 121019, Note_on_c, 0, 79, 0
2, 121020, Note_on_c, 0, 80, 90
2, 121049, Note_on_c, 0, 80, 0
2, 121050, Note_on_c, 0, 77, 90
2, 121079, Note_on_c, 0, 77, 0
2, 121080, Note_on_c, 0, 79, 90
2, 121109, Note_on_c, 0, 79, 0
2, 121110, Note_on_c, 0, 75, 90
2, 121139, Note_on_c, 0, 75, 0
2, 121140, Note_on_c, 0, 70, 90
2, 121169, Note_on_c, 0, 70, 0
2, 121170, Note_on_c, 0, 75, 90
2, 121199, Note_on_c, 0, 75, 0
2, 121200, Note_on_c, 0, 79, 90
2, 121229, Note_on_c, 0, 79, 0
2, 121230, Note_on_c, 0, 75, 90
2, 121259, Note_on_c, 0, 75, 0
2, 121260, Note_on_c, 0, 77, 90
2, 121319, Note_on_c, 0, 77, 0
2, 121380, Note_on_c, 0, 77, 90
2, 121439, Note_on_c, 0, 77, 0
2, 121500, Note_on_c, 0, 77, 90
2, 121619, Note_on_c, 0, 77, 0
2, 121650, Note_on_c, 0, 75, 90
2, 121679, Note_on_c, 0, 75, 0
2, 121680, Note_on_c, 0, 74, 90
2, 121709, Note_on_c, 0, 74, 0
2, 121710, Note_on_c, 0, 77, 90
2, 121739, Note_on_c, 0, 77, 0
2, 121740, Note_on_c, 0, 75, 90
2, 121769, Note_on_c, 0, 75, 0
2, 121770, Note_on_c, 0, 74, 90
2, 121799, Note_on_c, 0, 74, 0
2, 121800, Note_on_c, 0, 75, 90
2, 121889, Note_on_c, 0, 75, 0
2, 121890, Note_on_c, 0, 74, 90
2, 121919, Note_on_c, 0, 74, 0
2, 121920, Note_on_c, 0, 75, 90
2, 122009, Note_on_c, 0, 75, 0
2, 122010, Note_on_c, 0, 72, 90
2, 122039, Note_on_c, 0, 72, 0
2, 122040, Note_on_c, 0, 75, 90
2, 122159, Note_on_c, 0, 75, 0
2, 122160, Note_on_c, 0, 74, 90
2, 122189, Note_on_c, 0, 74, 0
2, 122190, Note_on_c, 0, 72, 90
2, 122219, Note_on_c, 0, 72, 0
2, 122220, Note_on_c, 0, 71, 90
2, 122279, Note_on_c, 0, 71, 0
2, 122280, Note_on_c, 0, 74, 90
2, 122339, Note_on_c, 0, 74, 0
2, 122340, Note_on_c, 0, 65, 90
2, 122399, Note_on_c, 0, 65, 0
2, 122400, Note_on_c, 0, 74, 90
2, 122459, Note_on_c, 0, 74, 0
2, 122460, Note_on_c, 0, 63, 90
2, 122489, Note_on_c, 0, 63, 0
2, 122490, Note_on_c, 0, 62, 90
2, 122519, Note_on_c, 0, 62, 0
2, 122520, Note_on_c, 0, 63, 90
2, 122549, Note_on_c, 0, 63, 0
2, 122550, Note_on_c, 0, 62, 90
2, 122579, Note_on_c, 0, 62, 0
2, 122580, Note_on_c, 0, 60, 90
2, 122639, Note_on_c, 0, 60, 0
2, 122640, Note_on_c, 0, 75, 90
2, 122669, Note_on_c, 0, 75, 0
2, 122670, Note_on_c, 0, 77, 90
2, 122699, Note_on_c, 0, 77, 0
2, 122700, Note_on_c, 0, 79, 90
2, 122759, Note_on_c, 0, 79, 0
2, 122760, Note_on_c, 0, 72, 90
2, 122819, Note_on_c, 0, 72, 0
2, 122820, Note_on_c, 0, 67, 90
2, 122879, Note_on_c, 0, 67, 0
2, 122880, Note_on_c, 0, 71, 90
2, 122939, Note_on_c, 0, 71, 0
2, 122940, Note_on_c, 0, 72, 90
2, 123059, Note_on_c, 0, 72, 0
2, 123059, End_track
3, 0, Start_track
3, 0, MIDI_port, 0
3, 0, Title_t, "violin ii"
3, 0, Program_c, 1, 48
3, 0, Note_on_c, 1, 60, 127
3, 60, Note_on_c, 1, 60, 0
3, 60, Note_on_c, 1, 63, 127
3, 120, Note_on_c, 1, 63, 0
3, 120, Note_on_c, 1, 67, 127
3, 180, Note_on_c, 1, 67, 0
3, 180, Note_on_c, 1, 65, 127
3, 240, Note_on_c, 1, 65, 0
3, 240, Note_on_c, 1, 63, 127
3, 300, Note_on_c, 1, 63, 0
3, 300, Note_on_c, 1, 63, 127
3, 330, Note_on_c, 1, 63, 0
3, 330, Note_on_c, 1, 65, 127
3, 360, Note_on_c, 1, 65, 0
3, 360, Note_on_c, 1, 67, 127
3, 390, Note_on_c, 1, 67, 0
3, 390, Note_on_c, 1, 65, 127
3, 420, Note_on_c, 1, 65, 0
3, 420, Note_on_c, 1, 67, 127
3, 450, Note_on_c, 1, 67, 0
3, 450, Note_on_c, 1, 65, 127
3, 480, Note_on_c, 1, 65, 0
3, 480, Note_on_c, 1, 63, 127
3, 540, Note_on_c, 1, 63, 0
3, 540, Note_on_c, 1, 65, 127
3, 570, Note_on_c, 1, 65, 0
3, 570, Note_on_c, 1, 67, 127
3, 600, Note_on_c, 1, 67, 0
3, 600, Note_on_c, 1, 60, 127
3, 660, Note_on_c, 1, 60, 0
3, 660, Note_on_c, 1, 72, 127
3, 720, Note_on_c, 1, 72, 0
3, 720, Note_on_c, 1, 74, 127
3, 780, Note_on_c, 1, 74, 0
3, 780, Note_on_c, 1, 65, 127
3, 840, Note_on_c, 1, 65, 0
3, 960, Note_on_c, 1, 58, 127
3, 1020, Note_on_c, 1, 58, 0
3, 1020, Note_on_c, 1, 62, 127
3, 1080, Note_on_c, 1, 62, 0
3, 1080, Note_on_c, 1, 65, 127
3, 1140, Note_on_c, 1, 65, 0
3, 1140, Note_on_c, 1, 63, 127
3, 1200, Note_on_c, 1, 63, 0
3, 1200, Note_on_c, 1, 62, 127
3, 1260, Note_on_c, 1, 62, 0
3, 1260, Note_on_c, 1, 62, 127
3, 1290, Note_on_c, 1, 62, 0
3, 1290, Note_on_c, 1, 63, 127
3, 1320, Note_on_c, 1, 63, 0
3, 1320, Note_on_c, 1, 65, 127
3, 1350, Note_on_c, 1, 65, 0
3, 1350, Note_on_c, 1, 63, 127
3, 1380, Note_on_c, 1, 63, 0
3, 1380, Note_on_c, 1, 65, 127
3, 1410, Note_on_c, 1, 65, 0
3, 1410, Note_on_c, 1, 63, 127
3, 1440, Note_on_c, 1, 63, 0
3, 1440, Note_on_c, 1, 62, 127
3, 1500, Note_on_c, 1, 62, 0
3, 1500, Note_on_c, 1, 63, 127
3, 1530, Note_on_c, 1, 63, 0
3, 1530, Note_on_c, 1, 65, 127
3, 1560, Note_on_c, 1, 65, 0
3, 1560, Note_on_c, 1, 58, 127
3, 1620, Note_on_c, 1, 58, 0
3, 1620, Note_on_c, 1, 70, 127
3, 1680, Note_on_c, 1, 70, 0
3, 1680, Note_on_c, 1, 72, 127
3, 1740, Note_on_c, 1, 72, 0
3, 1740, Note_on_c, 1, 63, 127
3, 1800, Note_on_c, 1, 63, 0
3, 2040, Note_on_c, 1, 72, 127
3, 2070, Note_on_c, 1, 72, 0
3, 2070, Note_on_c, 1, 70, 127
3, 2100, Note_on_c, 1, 70, 0
3, 2100, Note_on_c, 1, 68, 127
3, 2130, Note_on_c, 1, 68, 0
3, 2130, Note_on_c, 1, 67, 127
3, 2160, Note_on_c, 1, 67, 0
3, 2160, Note_on_c, 1, 65, 127
3, 2220, Note_on_c, 1, 65, 0
3, 2220, Note_on_c, 1, 60, 127
3, 2280, Note_on_c, 1, 60, 0
3, 2520, Note_on_c, 1, 68, 127
3, 2550, Note_on_c, 1, 68, 0
3, 2550, Note_on_c, 1, 67, 127
3, 2580, Note_on_c, 1, 67, 0
3, 2580, Note_on_c, 1, 65, 127
3, 2610, Note_on_c, 1, 65, 0
3, 2610, Note_on_c, 1, 63, 127
3, 2640, Note_on_c, 1, 63, 0
3, 2640, Note_on_c, 1, 61, 127
3, 2700, Note_on_c, 1, 61, 0
3, 2700, Note_on_c, 1, 56, 127
3, 2760, Note_on_c, 1, 56, 0
3, 2940, Note_on_c, 1, 62, 127
3, 2970, Note_on_c, 1, 62, 0
3, 2970, Note_on_c, 1, 63, 127
3, 3000, Note_on_c, 1, 63, 0
3, 3000, Note_on_c, 1, 65, 127
3, 3030, Note_on_c, 1, 65, 0
3, 3030, Note_on_c, 1, 67, 127
3, 3060, Note_on_c, 1, 67, 0
3, 3060, Note_on_c, 1, 68, 127
3, 3120, Note_on_c, 1, 68, 0
3, 3120, Note_on_c, 1, 67, 127
3, 3180, Note_on_c, 1, 67, 0
3, 3180, Note_on_c, 1, 67, 127
3, 3240, Note_on_c, 1, 67, 0
3, 3240, Note_on_c, 1, 72, 127
3, 3300, Note_on_c, 1, 72, 0
3, 3300, Note_on_c, 1, 72, 127
3, 3360, Note_on_c, 1, 72, 0
3, 3360, Note_on_c, 1, 72, 127
3, 3450, Note_on_c, 1, 72, 0
3, 3450, Note_on_c, 1, 74, 127
3, 3480, Note_on_c, 1, 74, 0
3, 3480, Note_on_c, 1, 71, 127
3, 3510, Note_on_c, 1, 71, 0
3, 3510, Note_on_c, 1, 69, 127
3, 3540, Note_on_c, 1, 69, 0
3, 3540, Note_on_c, 1, 71, 127
3, 3570, Note_on_c, 1, 71, 0
3, 3570, Note_on_c, 1, 69, 127
3, 3600, Note_on_c, 1, 69, 0
3, 3600, Note_on_c, 1, 67, 127
3, 3720, Note_on_c, 1, 67, 0
3, 3960, Note_on_c, 1, 60, 127
3, 4080, Note_on_c, 1, 60, 0
3, 4200, Note_on_c, 1, 60, 127
3, 4320, Note_on_c, 1, 60, 0
3, 4440, Note_on_c, 1, 60, 127
3, 4560, Note_on_c, 1, 60, 0
3, 4620, Note_on_c, 1, 67, 127
3, 4650, Note_on_c, 1, 67, 0
3, 4680, Note_on_c, 1, 72, 127
3, 4710, Note_on_c, 1, 72, 0
3, 4920, Note_on_c, 1, 67, 127
3, 5040, Note_on_c, 1, 67, 0
3, 5160, Note_on_c, 1, 67, 127
3, 5280, Note_on_c, 1, 67, 0
3, 5400, Note_on_c, 1, 67, 127
3, 5520, Note_on_c, 1, 67, 0
3, 5580, Note_on_c, 1, 67, 127
3, 5610, Note_on_c, 1, 67, 0
3, 5640, Note_on_c, 1, 72, 127
3, 5670, Note_on_c, 1, 72, 0
3, 5700, Note_on_c, 1, 67, 127
3, 5730, Note_on_c, 1, 67, 0
3, 5760, Note_on_c, 1, 60, 127
3, 5820, Note_on_c, 1, 60, 0
3, 5820, Note_on_c, 1, 63, 127
3, 5880, Note_on_c, 1, 63, 0
3, 5880, Note_on_c, 1, 67, 127
3, 5940, Note_on_c, 1, 67, 0
3, 5940, Note_on_c, 1, 65, 127
3, 6000, Note_on_c, 1, 65, 0
3, 6000, Note_on_c, 1, 63, 127
3, 6060, Note_on_c, 1, 63, 0
3, 6060, Note_on_c, 1, 63, 127
3, 6090, Note_on_c, 1, 63, 0
3, 6090, Note_on_c, 1, 65, 127
3, 6120, Note_on_c, 1, 65, 0
3, 6120, Note_on_c, 1, 67, 127
3, 6150, Note_on_c, 1, 67, 0
3, 6150, Note_on_c, 1, 65, 127
3, 6180, Note_on_c, 1, 65, 0
3, 6180, Note_on_c, 1, 67, 127
3, 6210, Note_on_c, 1, 67, 0
3, 6210, Note_on_c, 1, 65, 127
3, 6240, Note_on_c, 1, 65, 0
3, 6240, Note_on_c, 1, 63, 127
3, 6300, Note_on_c, 1, 63, 0
3, 6300, Note_on_c, 1, 65, 127
3, 6330, Note_on_c, 1, 65, 0
3, 6330, Note_on_c, 1, 67, 127
3, 6360, Note_on_c, 1, 67, 0
3, 6360, Note_on_c, 1, 60, 127
3, 6420, Note_on_c, 1, 60, 0
3, 6420, Note_on_c, 1, 72, 127
3, 6480, Note_on_c, 1, 72, 0
3, 6480, Note_on_c, 1, 74, 127
3, 6540, Note_on_c, 1, 74, 0
3, 6540, Note_on_c, 1, 65, 127
3, 6600, Note_on_c, 1, 65, 0
3, 7200, Note_on_c, 1, 58, 127
3, 7260, Note_on_c, 1, 58, 0
3, 7260, Note_on_c, 1, 62, 127
3, 7320, Note_on_c, 1, 62, 0
3, 7320, Note_on_c, 1, 65, 127
3, 7380, Note_on_c, 1, 65, 0
3, 7380, Note_on_c, 1, 63, 127
3, 7440, Note_on_c, 1, 63, 0
3, 7440, Note_on_c, 1, 62, 127
3, 7500, Note_on_c, 1, 62, 0
3, 7500, Note_on_c, 1, 62, 127
3, 7530, Note_on_c, 1, 62, 0
3, 7530, Note_on_c, 1, 63, 127
3, 7560, Note_on_c, 1, 63, 0
3, 7560, Note_on_c, 1, 65, 127
3, 7590, Note_on_c, 1, 65, 0
3, 7590, Note_on_c, 1, 63, 127
3, 7620, Note_on_c, 1, 63, 0
3, 7620, Note_on_c, 1, 65, 127
3, 7650, Note_on_c, 1, 65, 0
3, 7650, Note_on_c, 1, 63, 127
3, 7680, Note_on_c, 1, 63, 0
3, 7680, Note_on_c, 1, 62, 127
3, 7740, Note_on_c, 1, 62, 0
3, 7740, Note_on_c, 1, 63, 127
3, 7770, Note_on_c, 1, 63, 0
3, 7770, Note_on_c, 1, 65, 127
3, 7800, Note_on_c, 1, 65, 0
3, 7800, Note_on_c, 1, 58, 127
3, 7860, Note_on_c, 1, 58, 0
3, 7860, Note_on_c, 1, 70, 127
3, 7920, Note_on_c, 1, 70, 0
3, 7920, Note_on_c, 1, 72, 127
3, 7980, Note_on_c, 1, 72, 0
3, 7980, Note_on_c, 1, 63, 127
3, 8040, Note_on_c, 1, 63, 0
3, 8880, Note_on_c, 1, 62, 127
3, 8940, Note_on_c, 1, 62, 0
3, 8940, Note_on_c, 1, 65, 127
3, 8970, Note_on_c, 1, 65, 0
3, 8970, Note_on_c, 1, 63, 127
3, 9000, Note_on_c, 1, 63, 0
3, 9000, Note_on_c, 1, 62, 127
3, 9030, Note_on_c, 1, 62, 0
3, 9030, Note_on_c, 1, 60, 127
3, 9060, Note_on_c, 1, 60, 0
3, 9060, Note_on_c, 1, 58, 127
3, 9090, Note_on_c, 1, 58, 0
3, 9090, Note_on_c, 1, 56, 127
3, 9120, Note_on_c, 1, 56, 0
3, 9120, Note_on_c, 1, 55, 127
3, 9150, Note_on_c, 1, 55, 0
3, 9180, Note_on_c, 1, 62, 127
3, 9210, Note_on_c, 1, 62, 0
3, 9360, Note_on_c, 1, 60, 127
3, 9420, Note_on_c, 1, 60, 0
3, 9420, Note_on_c, 1, 63, 127
3, 9450, Note_on_c, 1, 63, 0
3, 9450, Note_on_c, 1, 62, 127
3, 9480, Note_on_c, 1, 62, 0
3, 9480, Note_on_c, 1, 60, 127
3, 9510, Note_on_c, 1, 60, 0
3, 9510, Note_on_c, 1, 58, 127
3, 9540, Note_on_c, 1, 58, 0
3, 9540, Note_on_c, 1, 56, 127
3, 9570, Note_on_c, 1, 56, 0
3, 9570, Note_on_c, 1, 55, 127
3, 9600, Note_on_c, 1, 55, 0
3, 9600, Note_on_c, 1, 56, 127
3, 9660, Note_on_c, 1, 56, 0
3, 10350, Note_on_c, 1, 74, 127
3, 10380, Note_on_c, 1, 74, 0
3, 10380, Note_on_c, 1, 77, 127
3, 10410, Note_on_c, 1, 77, 0
3, 10410, Note_on_c, 1, 75, 127
3, 10440, Note_on_c, 1, 75, 0
3, 10440, Note_on_c, 1, 74, 127
3, 10470, Note_on_c, 1, 74, 0
3, 10470, Note_on_c, 1, 72, 127
3, 10500, Note_on_c, 1, 72, 0
3, 10500, Note_on_c, 1, 70, 127
3, 10530, Note_on_c, 1, 70, 0
3, 10530, Note_on_c, 1, 68, 127
3, 10560, Note_on_c, 1, 68, 0
3, 10560, Note_on_c, 1, 67, 127
3, 10620, Note_on_c, 1, 67, 0
3, 10620, Note_on_c, 1, 70, 127
3, 10680, Note_on_c, 1, 70, 0
3, 10680, Note_on_c, 1, 75, 127
3, 10740, Note_on_c, 1, 75, 0
3, 10740, Note_on_c, 1, 74, 127
3, 10800, Note_on_c, 1, 74, 0
3, 10800, Note_on_c, 1, 63, 127
3, 10860, Note_on_c, 1, 63, 0
3, 10860, Note_on_c, 1, 67, 127
3, 10890, Note_on_c, 1, 67, 0
3, 10890, Note_on_c, 1, 68, 127
3, 10920, Note_on_c, 1, 68, 0
3, 10920, Note_on_c, 1, 70, 127
3, 10950, Note_on_c, 1, 70, 0
3, 10950, Note_on_c, 1, 68, 127
3, 10980, Note_on_c, 1, 68, 0
3, 10980, Note_on_c, 1, 70, 127
3, 11010, Note_on_c, 1, 70, 0
3, 11010, Note_on_c, 1, 68, 127
3, 11040, Note_on_c, 1, 68, 0
3, 11040, Note_on_c, 1, 67, 127
3, 11100, Note_on_c, 1, 67, 0
3, 11340, Note_on_c, 1, 72, 127
3, 11400, Note_on_c, 1, 72, 0
3, 11400, Note_on_c, 1, 72, 127
3, 11460, Note_on_c, 1, 72, 0
3, 11460, Note_on_c, 1, 77, 127
3, 11520, Note_on_c, 1, 77, 0
3, 11520, Note_on_c, 1, 77, 127
3, 11550, Note_on_c, 1, 77, 0
3, 11820, Note_on_c, 1, 70, 127
3, 11850, Note_on_c, 1, 70, 0
3, 11880, Note_on_c, 1, 70, 127
3, 11910, Note_on_c, 1, 70, 0
3, 11940, Note_on_c, 1, 75, 127
3, 11970, Note_on_c, 1, 75, 0
3, 12000, Note_on_c, 1, 75, 127
3, 12030, Note_on_c, 1, 75, 0
3, 12300, Note_on_c, 1, 68, 127
3, 12330, Note_on_c, 1, 68, 0
3, 12330, Note_on_c, 1, 67, 127
3, 12360, Note_on_c, 1, 67, 0
3, 12360, Note_on_c, 1, 65, 127
3, 12390, Note_on_c, 1, 65, 0
3, 12390, Note_on_c, 1, 63, 127
3, 12420, Note_on_c, 1, 63, 0
3, 12420, Note_on_c, 1, 62, 127
3, 12450, Note_on_c, 1, 62, 0
3, 12450, Note_on_c, 1, 60, 127
3, 12480, Note_on_c, 1, 60, 0
3, 12480, Note_on_c, 1, 58, 127
3, 12510, Note_on_c, 1, 58, 0
3, 12540, Note_on_c, 1, 70, 127
3, 12570, Note_on_c, 1, 70, 0
3, 12720, Note_on_c, 1, 60, 127
3, 12750, Note_on_c, 1, 60, 0
3, 12780, Note_on_c, 1, 68, 127
3, 12810, Note_on_c, 1, 68, 0
3, 12960, Note_on_c, 1, 58, 127
3, 12990, Note_on_c, 1, 58, 0
3, 13020, Note_on_c, 1, 67, 127
3, 13050, Note_on_c, 1, 67, 0
3, 13200, Note_on_c, 1, 56, 127
3, 13230, Note_on_c, 1, 56, 0
3, 13260, Note_on_c, 1, 63, 127
3, 13290, Note_on_c, 1, 63, 0
3, 13440, Note_on_c, 1, 63, 127
3, 13470, Note_on_c, 1, 63, 0
3, 13470, Note_on_c, 1, 62, 127
3, 13500, Note_on_c, 1, 62, 0
3, 13500, Note_on_c, 1, 60, 127
3, 13530, Note_on_c, 1, 60, 0
3, 13530, Note_on_c, 1, 58, 127
3, 13560, Note_on_c, 1, 58, 0
3, 13560, Note_on_c, 1, 56, 127
3, 13620, Note_on_c, 1, 56, 0
3, 13680, Note_on_c, 1, 65, 127
3, 13710, Note_on_c, 1, 65, 0
3, 13740, Note_on_c, 1, 58, 127
3, 13770, Note_on_c, 1, 58, 0
3, 13920, Note_on_c, 1, 65, 127
3, 13950, Note_on_c, 1, 65, 0
3, 13950, Note_on_c, 1, 63, 127
3, 13980, Note_on_c, 1, 63, 0
3, 13980, Note_on_c, 1, 62, 127
3, 14010, Note_on_c, 1, 62, 0
3, 14010, Note_on_c, 1, 60, 127
3, 14040, Note_on_c, 1, 60, 0
3, 14040, Note_on_c, 1, 58, 127
3, 14100, Note_on_c, 1, 58, 0
3, 15360, Note_on_c, 1, 55, 127
3, 15420, Note_on_c, 1, 55, 0
3, 15420, Note_on_c, 1, 58, 127
3, 15480, Note_on_c, 1, 58, 0
3, 15480, Note_on_c, 1, 63, 127
3, 15540, Note_on_c, 1, 63, 0
3, 15540, Note_on_c, 1, 62, 127
3, 15600, Note_on_c, 1, 62, 0
3, 15600, Note_on_c, 1, 58, 127
3, 15660, Note_on_c, 1, 58, 0
3, 15660, Note_on_c, 1, 55, 127
3, 15690, Note_on_c, 1, 55, 0
3, 15690, Note_on_c, 1, 56, 127
3, 15720, Note_on_c, 1, 56, 0
3, 15720, Note_on_c, 1, 58, 127
3, 15750, Note_on_c, 1, 58, 0
3, 15750, Note_on_c, 1, 56, 127
3, 15780, Note_on_c, 1, 56, 0
3, 15780, Note_on_c, 1, 58, 127
3, 15810, Note_on_c, 1, 58, 0
3, 15810, Note_on_c, 1, 56, 127
3, 15840, Note_on_c, 1, 56, 0
3, 15840, Note_on_c, 1, 55, 127
3, 15900, Note_on_c, 1, 55, 0
3, 15900, Note_on_c, 1, 56, 127
3, 15930, Note_on_c, 1, 56, 0
3, 15930, Note_on_c, 1, 58, 127
3, 15960, Note_on_c, 1, 58, 0
3, 15960, Note_on_c, 1, 60, 127
3, 15990, Note_on_c, 1, 60, 0
3, 15990, Note_on_c, 1, 62, 127
3, 16020, Note_on_c, 1, 62, 0
3, 16020, Note_on_c, 1, 63, 127
3, 16080, Note_on_c, 1, 63, 0
3, 16080, Note_on_c, 1, 65, 127
3, 16140, Note_on_c, 1, 65, 0
3, 16140, Note_on_c, 1, 68, 127
3, 16200, Note_on_c, 1, 68, 0
3, 16320, Note_on_c, 1, 62, 127
3, 16380, Note_on_c, 1, 62, 0
3, 16380, Note_on_c, 1, 58, 127
3, 16440, Note_on_c, 1, 58, 0
3, 16440, Note_on_c, 1, 62, 127
3, 16500, Note_on_c, 1, 62, 0
3, 16500, Note_on_c, 1, 58, 127
3, 16560, Note_on_c, 1, 58, 0
3, 16560, Note_on_c, 1, 62, 127
3, 16620, Note_on_c, 1, 62, 0
3, 16620, Note_on_c, 1, 58, 127
3, 16650, Note_on_c, 1, 58, 0
3, 16650, Note_on_c, 1, 60, 127
3, 16680, Note_on_c, 1, 60, 0
3, 16680, Note_on_c, 1, 62, 127
3, 16710, Note_on_c, 1, 62, 0
3, 16710, Note_on_c, 1, 60, 127
3, 16740, Note_on_c, 1, 60, 0
3, 16740, Note_on_c, 1, 62, 127
3, 16770, Note_on_c, 1, 62, 0
3, 16770, Note_on_c, 1, 60, 127
3, 16800, Note_on_c, 1, 60, 0
3, 16800, Note_on_c, 1, 58, 127
3, 16860, Note_on_c, 1, 58, 0
3, 16860, Note_on_c, 1, 68, 127
3, 16920, Note_on_c, 1, 68, 0
3, 16920, Note_on_c, 1, 67, 127
3, 16980, Note_on_c, 1, 67, 0
3, 16980, Note_on_c, 1, 65, 127
3, 17040, Note_on_c, 1, 65, 0
3, 17040, Note_on_c, 1, 63, 127
3, 17100, Note_on_c, 1, 63, 0
3, 17100, Note_on_c, 1, 58, 127
3, 17160, Note_on_c, 1, 58, 0
3, 17400, Note_on_c, 1, 60, 127
3, 17520, Note_on_c, 1, 60, 0
3, 17640, Note_on_c, 1, 58, 127
3, 17760, Note_on_c, 1, 58, 0
3, 17820, Note_on_c, 1, 69, 127
3, 17880, Note_on_c, 1, 69, 0
3, 17880, Note_on_c, 1, 72, 127
3, 17940, Note_on_c, 1, 72, 0
3, 17940, Note_on_c, 1, 69, 127
3, 18000, Note_on_c, 1, 69, 0
3, 18000, Note_on_c, 1, 70, 127
3, 18120, Note_on_c, 1, 70, 0
3, 18120, Note_on_c, 1, 58, 127
3, 18240, Note_on_c, 1, 58, 0
3, 18360, Note_on_c, 1, 57, 127
3, 18480, Note_on_c, 1, 57, 0
3, 18600, Note_on_c, 1, 55, 127
3, 18720, Note_on_c, 1, 55, 0
3, 18780, Note_on_c, 1, 72, 127
3, 18810, Note_on_c, 1, 72, 0
3, 18840, Note_on_c, 1, 69, 127
3, 18870, Note_on_c, 1, 69, 0
3, 18900, Note_on_c, 1, 66, 127
3, 18930, Note_on_c, 1, 66, 0
3, 18960, Note_on_c, 1, 67, 127
3, 19080, Note_on_c, 1, 67, 0
3, 20280, Note_on_c, 1, 67, 127
3, 20310, Note_on_c, 1, 67, 0
3, 20340, Note_on_c, 1, 62, 127
3, 20370, Note_on_c, 1, 62, 0
3, 20520, Note_on_c, 1, 74, 127
3, 20550, Note_on_c, 1, 74, 0
3, 20580, Note_on_c, 1, 70, 127
3, 20610, Note_on_c, 1, 70, 0
3, 20640, Note_on_c, 1, 67, 127
3, 20700, Note_on_c, 1, 67, 0
3, 20700, Note_on_c, 1, 69, 127
3, 20730, Note_on_c, 1, 69, 0
3, 20730, Note_on_c, 1, 70, 127
3, 20760, Note_on_c, 1, 70, 0
3, 20760, Note_on_c, 1, 72, 127
3, 20790, Note_on_c, 1, 72, 0
3, 20790, Note_on_c, 1, 74, 127
3, 20820, Note_on_c, 1, 74, 0
3, 20820, Note_on_c, 1, 75, 127
3, 20880, Note_on_c, 1, 75, 0
3, 20880, Note_on_c, 1, 75, 127
3, 20940, Note_on_c, 1, 75, 0
3, 20940, Note_on_c, 1, 69, 127
3, 21000, Note_on_c, 1, 69, 0
3, 21240, Note_on_c, 1, 65, 127
3, 21270, Note_on_c, 1, 65, 0
3, 21300, Note_on_c, 1, 60, 127
3, 21330, Note_on_c, 1, 60, 0
3, 21480, Note_on_c, 1, 72, 127
3, 21510, Note_on_c, 1, 72, 0
3, 21540, Note_on_c, 1, 69, 127
3, 21570, Note_on_c, 1, 69, 0
3, 21600, Note_on_c, 1, 65, 127
3, 21660, Note_on_c, 1, 65, 0
3, 21660, Note_on_c, 1, 67, 127
3, 21690, Note_on_c, 1, 67, 0
3, 21690, Note_on_c, 1, 69, 127
3, 21720, Note_on_c, 1, 69, 0
3, 21720, Note_on_c, 1, 70, 127
3, 21750, Note_on_c, 1, 70, 0
3, 21750, Note_on_c, 1, 72, 127
3, 21780, Note_on_c, 1, 72, 0
3, 21780, Note_on_c, 1, 74, 127
3, 21840, Note_on_c, 1, 74, 0
3, 21840, Note_on_c, 1, 74, 127
3, 21900, Note_on_c, 1, 74, 0
3, 21900, Note_on_c, 1, 67, 127
3, 21960, Note_on_c, 1, 67, 0
3, 22200, Note_on_c, 1, 67, 127
3, 22230, Note_on_c, 1, 67, 0
3, 22230, Note_on_c, 1, 65, 127
3, 22260, Note_on_c, 1, 65, 0
3, 22260, Note_on_c, 1, 63, 127
3, 22290, Note_on_c, 1, 63, 0
3, 22290, Note_on_c, 1, 62, 127
3, 22320, Note_on_c, 1, 62, 0
3, 22320, Note_on_c, 1, 60, 127
3, 22380, Note_on_c, 1, 60, 0
3, 22680, Note_on_c, 1, 63, 127
3, 22710, Note_on_c, 1, 63, 0
3, 22710, Note_on_c, 1, 61, 127
3, 22740, Note_on_c, 1, 61, 0
3, 22740, Note_on_c, 1, 60, 127
3, 22770, Note_on_c, 1, 60, 0
3, 22770, Note_on_c, 1, 58, 127
3, 22800, Note_on_c, 1, 58, 0
3, 22800, Note_on_c, 1, 56, 127
3, 22860, Note_on_c, 1, 56, 0
3, 23160, Note_on_c, 1, 63, 127
3, 23190, Note_on_c, 1, 63, 0
3, 23190, Note_on_c, 1, 62, 127
3, 23220, Note_on_c, 1, 62, 0
3, 23220, Note_on_c, 1, 60, 127
3, 23250, Note_on_c, 1, 60, 0
3, 23250, Note_on_c, 1, 58, 127
3, 23280, Note_on_c, 1, 58, 0
3, 23280, Note_on_c, 1, 60, 127
3, 23340, Note_on_c, 1, 60, 0
3, 23340, Note_on_c, 1, 69, 127
3, 23400, Note_on_c, 1, 69, 0
3, 23400, Note_on_c, 1, 70, 127
3, 23460, Note_on_c, 1, 70, 0
3, 23460, Note_on_c, 1, 72, 127
3, 23520, Note_on_c, 1, 72, 0
3, 23520, Note_on_c, 1, 74, 127
3, 23580, Note_on_c, 1, 74, 0
3, 23580, Note_on_c, 1, 75, 127
3, 23640, Note_on_c, 1, 75, 0
3, 23640, Note_on_c, 1, 74, 127
3, 23700, Note_on_c, 1, 74, 0
3, 23700, Note_on_c, 1, 72, 127
3, 23760, Note_on_c, 1, 72, 0
3, 23760, Note_on_c, 1, 71, 127
3, 23820, Note_on_c, 1, 71, 0
3, 23820, Note_on_c, 1, 55, 127
3, 23850, Note_on_c, 1, 55, 0
3, 23850, Note_on_c, 1, 57, 127
3, 23880, Note_on_c, 1, 57, 0
3, 23880, Note_on_c, 1, 59, 127
3, 23910, Note_on_c, 1, 59, 0
3, 23910, Note_on_c, 1, 60, 127
3, 23940, Note_on_c, 1, 60, 0
3, 23940, Note_on_c, 1, 62, 127
3, 24000, Note_on_c, 1, 62, 0
3, 24120, Note_on_c, 1, 59, 127
3, 24150, Note_on_c, 1, 59, 0
3, 24150, Note_on_c, 1, 60, 127
3, 24180, Note_on_c, 1, 60, 0
3, 24180, Note_on_c, 1, 62, 127
3, 24210, Note_on_c, 1, 62, 0
3, 24210, Note_on_c, 1, 63, 127
3, 24240, Note_on_c, 1, 63, 0
3, 24240, Note_on_c, 1, 65, 127
3, 24300, Note_on_c, 1, 65, 0
3, 24360, Note_on_c, 1, 59, 127
3, 24390, Note_on_c, 1, 59, 0
3, 24390, Note_on_c, 1, 60, 127
3, 24420, Note_on_c, 1, 60, 0
3, 24420, Note_on_c, 1, 62, 127
3, 24450, Note_on_c, 1, 62, 0
3, 24450, Note_on_c, 1, 63, 127
3, 24480, Note_on_c, 1, 63, 0
3, 24480, Note_on_c, 1, 65, 127
3, 24540, Note_on_c, 1, 65, 0
3, 24780, Note_on_c, 1, 62, 127
3, 24810, Note_on_c, 1, 62, 0
3, 24840, Note_on_c, 1, 59, 127
3, 24870, Note_on_c, 1, 59, 0
3, 24900, Note_on_c, 1, 67, 127
3, 24930, Note_on_c, 1, 67, 0
3, 24960, Note_on_c, 1, 67, 127
3, 25020, Note_on_c, 1, 67, 0
3, 25020, Note_on_c, 1, 63, 127
3, 25080, Note_on_c, 1, 63, 0
3, 25080, Note_on_c, 1, 67, 127
3, 25140, Note_on_c, 1, 67, 0
3, 25140, Note_on_c, 1, 65, 127
3, 25200, Note_on_c, 1, 65, 0
3, 25200, Note_on_c, 1, 63, 127
3, 25260, Note_on_c, 1, 63, 0
3, 25260, Note_on_c, 1, 67, 127
3, 25320, Note_on_c, 1, 67, 0
3, 25320, Note_on_c, 1, 72, 127
3, 25350, Note_on_c, 1, 72, 0
3, 25350, Note_on_c, 1, 71, 127
3, 25380, Note_on_c, 1, 71, 0
3, 25380, Note_on_c, 1, 72, 127
3, 25410, Note_on_c, 1, 72, 0
3, 25410, Note_on_c, 1, 71, 127
3, 25440, Note_on_c, 1, 71, 0
3, 25440, Note_on_c, 1, 72, 127
3, 25500, Note_on_c, 1, 72, 0
3, 25500, Note_on_c, 1, 67, 127
3, 25560, Note_on_c, 1, 67, 0
3, 25560, Note_on_c, 1, 72, 127
3, 25620, Note_on_c, 1, 72, 0
3, 25620, Note_on_c, 1, 74, 127
3, 25650, Note_on_c, 1, 74, 0
3, 25650, Note_on_c, 1, 75, 127
3, 25680, Note_on_c, 1, 75, 0
3, 25680, Note_on_c, 1, 69, 127
3, 25740, Note_on_c, 1, 69, 0
3, 25740, Note_on_c, 1, 62, 127
3, 25770, Note_on_c, 1, 62, 0
3, 25770, Note_on_c, 1, 64, 127
3, 25800, Note_on_c, 1, 64, 0
3, 25800, Note_on_c, 1, 66, 127
3, 25830, Note_on_c, 1, 66, 0
3, 25830, Note_on_c, 1, 67, 127
3, 25860, Note_on_c, 1, 67, 0
3, 25860, Note_on_c, 1, 69, 127
3, 25920, Note_on_c, 1, 69, 0
3, 26040, Note_on_c, 1, 66, 127
3, 26070, Note_on_c, 1, 66, 0
3, 26070, Note_on_c, 1, 67, 127
3, 26100, Note_on_c, 1, 67, 0
3, 26100, Note_on_c, 1, 69, 127
3, 26130, Note_on_c, 1, 69, 0
3, 26130, Note_on_c, 1, 70, 127
3, 26160, Note_on_c, 1, 70, 0
3, 26160, Note_on_c, 1, 72, 127
3, 26220, Note_on_c, 1, 72, 0
3, 26280, Note_on_c, 1, 66, 127
3, 26310, Note_on_c, 1, 66, 0
3, 26310, Note_on_c, 1, 67, 127
3, 26340, Note_on_c, 1, 67, 0
3, 26340, Note_on_c, 1, 69, 127
3, 26370, Note_on_c, 1, 69, 0
3, 26370, Note_on_c, 1, 70, 127
3, 26400, Note_on_c, 1, 70, 0
3, 26400, Note_on_c, 1, 72, 127
3, 26460, Note_on_c, 1, 72, 0
3, 26700, Note_on_c, 1, 69, 127
3, 26730, Note_on_c, 1, 69, 0
3, 26760, Note_on_c, 1, 66, 127
3, 26790, Note_on_c, 1, 66, 0
3, 26820, Note_on_c, 1, 74, 127
3, 26850, Note_on_c, 1, 74, 0
3, 26880, Note_on_c, 1, 74, 127
3, 26910, Note_on_c, 1, 74, 0
3, 26940, Note_on_c, 1, 79, 127
3, 26970, Note_on_c, 1, 79, 0
3, 26970, Note_on_c, 1, 78, 127
3, 27000, Note_on_c, 1, 78, 0
3, 27000, Note_on_c, 1, 79, 127
3, 27060, Note_on_c, 1, 79, 0
3, 27120, Note_on_c, 1, 62, 127
3, 27150, Note_on_c, 1, 62, 0
3, 27150, Note_on_c, 1, 60, 127
3, 27180, Note_on_c, 1, 60, 0
3, 27180, Note_on_c, 1, 58, 127
3, 27210, Note_on_c, 1, 58, 0
3, 27210, Note_on_c, 1, 57, 127
3, 27240, Note_on_c, 1, 57, 0
3, 27240, Note_on_c, 1, 55, 127
3, 27300, Note_on_c, 1, 55, 0
3, 27420, Note_on_c, 1, 75, 127
3, 27450, Note_on_c, 1, 75, 0
3, 27450, Note_on_c, 1, 74, 127
3, 27480, Note_on_c, 1, 74, 0
3, 27480, Note_on_c, 1, 75, 127
3, 27540, Note_on_c, 1, 75, 0
3, 27600, Note_on_c, 1, 70, 127
3, 27630, Note_on_c, 1, 70, 0
3, 27630, Note_on_c, 1, 68, 127
3, 27660, Note_on_c, 1, 68, 0
3, 27660, Note_on_c, 1, 67, 127
3, 27690, Note_on_c, 1, 67, 0
3, 27690, Note_on_c, 1, 65, 127
3, 27720, Note_on_c, 1, 65, 0
3, 27720, Note_on_c, 1, 63, 127
3, 27780, Note_on_c, 1, 63, 0
3, 27900, Note_on_c, 1, 72, 127
3, 27930, Note_on_c, 1, 72, 0
3, 27930, Note_on_c, 1, 71, 127
3, 27960, Note_on_c, 1, 71, 0
3, 27960, Note_on_c, 1, 72, 127
3, 28020, Note_on_c, 1, 72, 0
3, 28080, Note_on_c, 1, 67, 127
3, 28110, Note_on_c, 1, 67, 0
3, 28110, Note_on_c, 1, 65, 127
3, 28140, Note_on_c, 1, 65, 0
3, 28140, Note_on_c, 1, 63, 127
3, 28170, Note_on_c, 1, 63, 0
3, 28170, Note_on_c, 1, 62, 127
3, 28200, Note_on_c, 1, 62, 0
3, 28200, Note_on_c, 1, 60, 127
3, 28260, Note_on_c, 1, 60, 0
3, 28590, Note_on_c, 1, 69, 127
3, 28620, Note_on_c, 1, 69, 0
3, 28620, Note_on_c, 1, 72, 127
3, 28650, Note_on_c, 1, 72, 0
3, 28650, Note_on_c, 1, 70, 127
3, 28680, Note_on_c, 1, 70, 0
3, 28680, Note_on_c, 1, 69, 127
3, 28710, Note_on_c, 1, 69, 0
3, 28710, Note_on_c, 1, 67, 127
3, 28740, Note_on_c, 1, 67, 0
3, 28740, Note_on_c, 1, 65, 127
3, 28770, Note_on_c, 1, 65, 0
3, 28770, Note_on_c, 1, 63, 127
3, 28800, Note_on_c, 1, 63, 0
3, 28800, Note_on_c, 1, 62, 127
3, 28860, Note_on_c, 1, 62, 0
3, 28860, Note_on_c, 1, 65, 127
3, 28920, Note_on_c, 1, 65, 0
3, 28920, Note_on_c, 1, 70, 127
3, 28980, Note_on_c, 1, 70, 0
3, 28980, Note_on_c, 1, 69, 127
3, 29040, Note_on_c, 1, 69, 0
3, 29040, Note_on_c, 1, 58, 127
3, 29100, Note_on_c, 1, 58, 0
3, 29100, Note_on_c, 1, 62, 127
3, 29130, Note_on_c, 1, 62, 0
3, 29130, Note_on_c, 1, 63, 127
3, 29160, Note_on_c, 1, 63, 0
3, 29160, Note_on_c, 1, 65, 127
3, 29190, Note_on_c, 1, 65, 0
3, 29190, Note_on_c, 1, 63, 127
3, 29220, Note_on_c, 1, 63, 0
3, 29220, Note_on_c, 1, 65, 127
3, 29250, Note_on_c, 1, 65, 0
3, 29250, Note_on_c, 1, 63, 127
3, 29280, Note_on_c, 1, 63, 0
3, 29280, Note_on_c, 1, 62, 127
3, 29340, Note_on_c, 1, 62, 0
3, 29580, Note_on_c, 1, 69, 127
3, 29610, Note_on_c, 1, 69, 0
3, 29640, Note_on_c, 1, 69, 127
3, 29670, Note_on_c, 1, 69, 0
3, 29700, Note_on_c, 1, 72, 127
3, 29730, Note_on_c, 1, 72, 0
3, 29760, Note_on_c, 1, 72, 127
3, 29790, Note_on_c, 1, 72, 0
3, 30060, Note_on_c, 1, 65, 127
3, 30090, Note_on_c, 1, 65, 0
3, 30120, Note_on_c, 1, 65, 127
3, 30150, Note_on_c, 1, 65, 0
3, 30180, Note_on_c, 1, 70, 127
3, 30210, Note_on_c, 1, 70, 0
3, 30240, Note_on_c, 1, 70, 127
3, 30270, Note_on_c, 1, 70, 0
3, 30540, Note_on_c, 1, 75, 127
3, 30570, Note_on_c, 1, 75, 0
3, 30570, Note_on_c, 1, 74, 127
3, 30600, Note_on_c, 1, 74, 0
3, 30600, Note_on_c, 1, 72, 127
3, 30630, Note_on_c, 1, 72, 0
3, 30630, Note_on_c, 1, 70, 127
3, 30660, Note_on_c, 1, 70, 0
3, 30660, Note_on_c, 1, 69, 127
3, 30690, Note_on_c, 1, 69, 0
3, 30690, Note_on_c, 1, 67, 127
3, 30720, Note_on_c, 1, 67, 0
3, 30720, Note_on_c, 1, 65, 127
3, 30750, Note_on_c, 1, 65, 0
3, 30780, Note_on_c, 1, 77, 127
3, 30810, Note_on_c, 1, 77, 0
3, 30960, Note_on_c, 1, 67, 127
3, 30990, Note_on_c, 1, 67, 0
3, 31020, Note_on_c, 1, 75, 127
3, 31050, Note_on_c, 1, 75, 0
3, 31200, Note_on_c, 1, 65, 127
3, 31230, Note_on_c, 1, 65, 0
3, 31260, Note_on_c, 1, 74, 127
3, 31290, Note_on_c, 1, 74, 0
3, 31440, Note_on_c, 1, 63, 127
3, 31470, Note_on_c, 1, 63, 0
3, 31500, Note_on_c, 1, 70, 127
3, 31530, Note_on_c, 1, 70, 0
3, 31680, Note_on_c, 1, 70, 127
3, 31710, Note_on_c, 1, 70, 0
3, 31710, Note_on_c, 1, 68, 127
3, 31740, Note_on_c, 1, 68, 0
3, 31740, Note_on_c, 1, 67, 127
3, 31770, Note_on_c, 1, 67, 0
3, 31770, Note_on_c, 1, 65, 127
3, 31800, Note_on_c, 1, 65, 0
3, 31800, Note_on_c, 1, 63, 127
3, 31860, Note_on_c, 1, 63, 0
3, 31920, Note_on_c, 1, 72, 127
3, 31950, Note_on_c, 1, 72, 0
3, 31980, Note_on_c, 1, 65, 127
3, 32010, Note_on_c, 1, 65, 0
3, 32160, Note_on_c, 1, 72, 127
3, 32190, Note_on_c, 1, 72, 0
3, 32190, Note_on_c, 1, 70, 127
3, 32220, Note_on_c, 1, 70, 0
3, 32220, Note_on_c, 1, 69, 127
3, 32250, Note_on_c, 1, 69, 0
3, 32250, Note_on_c, 1, 67, 127
3, 32280, Note_on_c, 1, 67, 0
3, 32280, Note_on_c, 1, 65, 127
3, 32340, Note_on_c, 1, 65, 0
3, 33600, Note_on_c, 1, 62, 127
3, 33660, Note_on_c, 1, 62, 0
3, 33660, Note_on_c, 1, 65, 127
3, 33720, Note_on_c, 1, 65, 0
3, 33720, Note_on_c, 1, 70, 127
3, 33780, Note_on_c, 1, 70, 0
3, 33780, Note_on_c, 1, 69, 127
3, 33840, Note_on_c, 1, 69, 0
3, 33840, Note_on_c, 1, 70, 127
3, 33900, Note_on_c, 1, 70, 0
3, 33900, Note_on_c, 1, 62, 127
3, 33930, Note_on_c, 1, 62, 0
3, 33930, Note_on_c, 1, 63, 127
3, 33960, Note_on_c, 1, 63, 0
3, 33960, Note_on_c, 1, 65, 127
3, 33990, Note_on_c, 1, 65, 0
3, 33990, Note_on_c, 1, 63, 127
3, 34020, Note_on_c, 1, 63, 0
3, 34020, Note_on_c, 1, 65, 127
3, 34050, Note_on_c, 1, 65, 0
3, 34050, Note_on_c, 1, 63, 127
3, 34080, Note_on_c, 1, 63, 0
3, 34080, Note_on_c, 1, 62, 127
3, 34140, Note_on_c, 1, 62, 0
3, 34140, Note_on_c, 1, 63, 127
3, 34170, Note_on_c, 1, 63, 0
3, 34170, Note_on_c, 1, 65, 127
3, 34200, Note_on_c, 1, 65, 0
3, 34200, Note_on_c, 1, 67, 127
3, 34230, Note_on_c, 1, 67, 0
3, 34230, Note_on_c, 1, 69, 127
3, 34260, Note_on_c, 1, 69, 0
3, 34260, Note_on_c, 1, 70, 127
3, 34320, Note_on_c, 1, 70, 0
3, 34320, Note_on_c, 1, 70, 127
3, 34380, Note_on_c, 1, 70, 0
3, 34380, Note_on_c, 1, 63, 127
3, 34440, Note_on_c, 1, 63, 0
3, 34560, Note_on_c, 1, 69, 127
3, 34620, Note_on_c, 1, 69, 0
3, 34620, Note_on_c, 1, 65, 127
3, 34680, Note_on_c, 1, 65, 0
3, 34680, Note_on_c, 1, 69, 127
3, 34740, Note_on_c, 1, 69, 0
3, 34740, Note_on_c, 1, 65, 127
3, 34800, Note_on_c, 1, 65, 0
3, 34800, Note_on_c, 1, 69, 127
3, 34860, Note_on_c, 1, 69, 0
3, 34860, Note_on_c, 1, 65, 127
3, 34890, Note_on_c, 1, 65, 0
3, 34890, Note_on_c, 1, 67, 127
3, 34920, Note_on_c, 1, 67, 0
3, 34920, Note_on_c, 1, 69, 127
3, 34950, Note_on_c, 1, 69, 0
3, 34950, Note_on_c, 1, 67, 127
3, 34980, Note_on_c, 1, 67, 0
3, 34980, Note_on_c, 1, 69, 127
3, 35010, Note_on_c, 1, 69, 0
3, 35010, Note_on_c, 1, 67, 127
3, 35040, Note_on_c, 1, 67, 0
3, 35040, Note_on_c, 1, 65, 127
3, 35100, Note_on_c, 1, 65, 0
3, 35100, Note_on_c, 1, 75, 127
3, 35160, Note_on_c, 1, 75, 0
3, 35160, Note_on_c, 1, 74, 127
3, 35220, Note_on_c, 1, 74, 0
3, 35220, Note_on_c, 1, 72, 127
3, 35280, Note_on_c, 1, 72, 0
3, 35280, Note_on_c, 1, 70, 127
3, 35340, Note_on_c, 1, 70, 0
3, 35340, Note_on_c, 1, 65, 127
3, 35400, Note_on_c, 1, 65, 0
3, 35640, Note_on_c, 1, 76, 127
3, 35760, Note_on_c, 1, 76, 0
3, 35880, Note_on_c, 1, 77, 127
3, 36000, Note_on_c, 1, 77, 0
3, 36120, Note_on_c, 1, 73, 127
3, 36240, Note_on_c, 1, 73, 0
3, 36360, Note_on_c, 1, 72, 127
3, 36480, Note_on_c, 1, 72, 0
3, 36600, Note_on_c, 1, 70, 127
3, 36720, Note_on_c, 1, 70, 0
3, 36840, Note_on_c, 1, 79, 127
3, 36960, Note_on_c, 1, 79, 0
3, 37020, Note_on_c, 1, 68, 127
3, 37080, Note_on_c, 1, 68, 0
3, 37080, Note_on_c, 1, 70, 127
3, 37140, Note_on_c, 1, 70, 0
3, 37140, Note_on_c, 1, 64, 127
3, 37200, Note_on_c, 1, 64, 0
3, 37200, Note_on_c, 1, 70, 127
3, 37320, Note_on_c, 1, 70, 0
3, 37560, Note_on_c, 1, 65, 127
3, 37680, Note_on_c, 1, 65, 0
3, 37800, Note_on_c, 1, 65, 127
3, 37920, Note_on_c, 1, 65, 0
3, 38040, Note_on_c, 1, 65, 127
3, 38160, Note_on_c, 1, 65, 0
3, 38220, Note_on_c, 1, 72, 127
3, 38250, Note_on_c, 1, 72, 0
3, 38280, Note_on_c, 1, 77, 127
3, 38310, Note_on_c, 1, 77, 0
3, 38520, Note_on_c, 1, 60, 127
3, 38640, Note_on_c, 1, 60, 0
3, 38760, Note_on_c, 1, 60, 127
3, 38880, Note_on_c, 1, 60, 0
3, 39000, Note_on_c, 1, 60, 127
3, 39120, Note_on_c, 1, 60, 0
3, 39180, Note_on_c, 1, 60, 127
3, 39210, Note_on_c, 1, 60, 0
3, 39240, Note_on_c, 1, 65, 127
3, 39270, Note_on_c, 1, 65, 0
3, 39300, Note_on_c, 1, 60, 127
3, 39330, Note_on_c, 1, 60, 0
3, 39360, Note_on_c, 1, 65, 127
3, 39480, Note_on_c, 1, 65, 0
3, 39480, Note_on_c, 1, 65, 127
3, 39600, Note_on_c, 1, 65, 0
3, 39720, Note_on_c, 1, 63, 127
3, 39840, Note_on_c, 1, 63, 0
3, 39900, Note_on_c, 1, 74, 127
3, 39930, Note_on_c, 1, 74, 0
3, 39960, Note_on_c, 1, 77, 127
3, 39990, Note_on_c, 1, 77, 0
3, 40020, Note_on_c, 1, 74, 127
3, 40050, Note_on_c, 1, 74, 0
3, 40080, Note_on_c, 1, 75, 127
3, 40200, Note_on_c, 1, 75, 0
3, 40200, Note_on_c, 1, 63, 127
3, 40320, Note_on_c, 1, 63, 0
3, 40440, Note_on_c, 1, 62, 127
3, 40560, Note_on_c, 1, 62, 0
3, 40680, Note_on_c, 1, 60, 127
3, 40800, Note_on_c, 1, 60, 0
3, 40860, Note_on_c, 1, 77, 127
3, 40890, Note_on_c, 1, 77, 0
3, 40920, Note_on_c, 1, 74, 127
3, 40950, Note_on_c, 1, 74, 0
3, 40980, Note_on_c, 1, 71, 127
3, 41010, Note_on_c, 1, 71, 0
3, 41040, Note_on_c, 1, 72, 127
3, 41160, Note_on_c, 1, 72, 0
3, 42240, Note_on_c, 1, 79, 127
3, 42750, Note_on_c, 1, 79, 0
3, 42750, Note_on_c, 1, 72, 127
3, 42780, Note_on_c, 1, 72, 0
3, 42780, Note_on_c, 1, 74, 127
3, 42810, Note_on_c, 1, 74, 0
3, 42810, Note_on_c, 1, 75, 127
3, 42840, Note_on_c, 1, 75, 0
3, 42840, Note_on_c, 1, 77, 127
3, 42870, Note_on_c, 1, 77, 0
3, 42870, Note_on_c, 1, 79, 127
3, 42900, Note_on_c, 1, 79, 0
3, 42900, Note_on_c, 1, 80, 127
3, 42960, Note_on_c, 1, 80, 0
3, 42960, Note_on_c, 1, 80, 127
3, 43020, Note_on_c, 1, 80, 0
3, 43020, Note_on_c, 1, 74, 127
3, 43080, Note_on_c, 1, 74, 0
3, 43200, Note_on_c, 1, 77, 127
3, 43710, Note_on_c, 1, 77, 0
3, 43710, Note_on_c, 1, 70, 127
3, 43740, Note_on_c, 1, 70, 0
3, 43740, Note_on_c, 1, 72, 127
3, 43770, Note_on_c, 1, 72, 0
3, 43770, Note_on_c, 1, 74, 127
3, 43800, Note_on_c, 1, 74, 0
3, 43800, Note_on_c, 1, 75, 127
3, 43830, Note_on_c, 1, 75, 0
3, 43830, Note_on_c, 1, 77, 127
3, 43860, Note_on_c, 1, 77, 0
3, 43860, Note_on_c, 1, 79, 127
3, 43920, Note_on_c, 1, 79, 0
3, 43920, Note_on_c, 1, 79, 127
3, 43980, Note_on_c, 1, 79, 0
3, 43980, Note_on_c, 1, 72, 127
3, 44040, Note_on_c, 1, 72, 0
3, 44280, Note_on_c, 1, 72, 127
3, 44310, Note_on_c, 1, 72, 0
3, 44310, Note_on_c, 1, 70, 127
3, 44340, Note_on_c, 1, 70, 0
3, 44340, Note_on_c, 1, 68, 127
3, 44370, Note_on_c, 1, 68, 0
3, 44370, Note_on_c, 1, 67, 127
3, 44400, Note_on_c, 1, 67, 0
3, 44400, Note_on_c, 1, 65, 127
3, 44460, Note_on_c, 1, 65, 0
3, 44760, Note_on_c, 1, 68, 127
3, 44790, Note_on_c, 1, 68, 0
3, 44790, Note_on_c, 1, 66, 127
3, 44820, Note_on_c, 1, 66, 0
3, 44820, Note_on_c, 1, 65, 127
3, 44850, Note_on_c, 1, 65, 0
3, 44850, Note_on_c, 1, 63, 127
3, 44880, Note_on_c, 1, 63, 0
3, 44880, Note_on_c, 1, 61, 127
3, 44940, Note_on_c, 1, 61, 0
3, 45240, Note_on_c, 1, 68, 127
3, 45270, Note_on_c, 1, 68, 0
3, 45270, Note_on_c, 1, 67, 127
3, 45300, Note_on_c, 1, 67, 0
3, 45300, Note_on_c, 1, 65, 127
3, 45330, Note_on_c, 1, 65, 0
3, 45330, Note_on_c, 1, 63, 127
3, 45360, Note_on_c, 1, 63, 0
3, 45360, Note_on_c, 1, 65, 127
3, 45420, Note_on_c, 1, 65, 0
3, 45420, Note_on_c, 1, 62, 127
3, 45480, Note_on_c, 1, 62, 0
3, 45480, Note_on_c, 1, 63, 127
3, 45540, Note_on_c, 1, 63, 0
3, 45540, Note_on_c, 1, 65, 127
3, 45600, Note_on_c, 1, 65, 0
3, 45600, Note_on_c, 1, 67, 127
3, 45660, Note_on_c, 1, 67, 0
3, 45660, Note_on_c, 1, 68, 127
3, 45720, Note_on_c, 1, 68, 0
3, 45720, Note_on_c, 1, 67, 127
3, 45780, Note_on_c, 1, 67, 0
3, 45780, Note_on_c, 1, 62, 127
3, 45900, Note_on_c, 1, 62, 0
3, 45900, Note_on_c, 1, 62, 127
3, 45930, Note_on_c, 1, 62, 0
3, 45930, Note_on_c, 1, 64, 127
3, 45960, Note_on_c, 1, 64, 0
3, 45960, Note_on_c, 1, 66, 127
3, 45990, Note_on_c, 1, 66, 0
3, 45990, Note_on_c, 1, 67, 127
3, 46020, Note_on_c, 1, 67, 0
3, 46020, Note_on_c, 1, 69, 127
3, 46080, Note_on_c, 1, 69, 0
3, 46200, Note_on_c, 1, 66, 127
3, 46230, Note_on_c, 1, 66, 0
3, 46230, Note_on_c, 1, 67, 127
3, 46260, Note_on_c, 1, 67, 0
3, 46260, Note_on_c, 1, 69, 127
3, 46290, Note_on_c, 1, 69, 0
3, 46290, Note_on_c, 1, 70, 127
3, 46320, Note_on_c, 1, 70, 0
3, 46320, Note_on_c, 1, 72, 127
3, 46380, Note_on_c, 1, 72, 0
3, 46440, Note_on_c, 1, 66, 127
3, 46470, Note_on_c, 1, 66, 0
3, 46470, Note_on_c, 1, 67, 127
3, 46500, Note_on_c, 1, 67, 0
3, 46500, Note_on_c, 1, 69, 127
3, 46530, Note_on_c, 1, 69, 0
3, 46530, Note_on_c, 1, 70, 127
3, 46560, Note_on_c, 1, 70, 0
3, 46560, Note_on_c, 1, 72, 127
3, 46620, Note_on_c, 1, 72, 0
3, 46860, Note_on_c, 1, 69, 127
3, 46890, Note_on_c, 1, 69, 0
3, 46920, Note_on_c, 1, 66, 127
3, 46950, Note_on_c, 1, 66, 0
3, 46980, Note_on_c, 1, 74, 127
3, 47010, Note_on_c, 1, 74, 0
3, 47040, Note_on_c, 1, 71, 127
3, 47100, Note_on_c, 1, 71, 0
3, 47100, Note_on_c, 1, 71, 127
3, 47160, Note_on_c, 1, 71, 0
3, 47160, Note_on_c, 1, 74, 127
3, 47220, Note_on_c, 1, 74, 0
3, 47220, Note_on_c, 1, 72, 127
3, 47280, Note_on_c, 1, 72, 0
3, 47280, Note_on_c, 1, 62, 127
3, 47340, Note_on_c, 1, 62, 0
3, 47340, Note_on_c, 1, 71, 127
3, 47370, Note_on_c, 1, 71, 0
3, 47370, Note_on_c, 1, 72, 127
3, 47400, Note_on_c, 1, 72, 0
3, 47400, Note_on_c, 1, 74, 127
3, 47430, Note_on_c, 1, 74, 0
3, 47430, Note_on_c, 1, 72, 127
3, 47460, Note_on_c, 1, 72, 0
3, 47460, Note_on_c, 1, 74, 127
3, 47490, Note_on_c, 1, 74, 0
3, 47490, Note_on_c, 1, 72, 127
3, 47520, Note_on_c, 1, 72, 0
3, 47520, Note_on_c, 1, 71, 127
3, 47550, Note_on_c, 1, 71, 0
3, 47550, Note_on_c, 1, 69, 127
3, 47580, Note_on_c, 1, 69, 0
3, 47580, Note_on_c, 1, 71, 127
3, 47610, Note_on_c, 1, 71, 0
3, 47610, Note_on_c, 1, 72, 127
3, 47640, Note_on_c, 1, 72, 0
3, 47640, Note_on_c, 1, 74, 127
3, 47670, Note_on_c, 1, 74, 0
3, 47670, Note_on_c, 1, 75, 127
3, 47700, Note_on_c, 1, 75, 0
3, 47700, Note_on_c, 1, 77, 127
3, 47820, Note_on_c, 1, 77, 0
3, 47820, Note_on_c, 1, 67, 127
3, 47850, Note_on_c, 1, 67, 0
3, 47850, Note_on_c, 1, 69, 127
3, 47880, Note_on_c, 1, 69, 0
3, 47880, Note_on_c, 1, 71, 127
3, 47910, Note_on_c, 1, 71, 0
3, 47910, Note_on_c, 1, 72, 127
3, 47940, Note_on_c, 1, 72, 0
3, 47940, Note_on_c, 1, 74, 127
3, 48000, Note_on_c, 1, 74, 0
3, 48120, Note_on_c, 1, 71, 127
3, 48150, Note_on_c, 1, 71, 0
3, 48150, Note_on_c, 1, 72, 127
3, 48180, Note_on_c, 1, 72, 0
3, 48180, Note_on_c, 1, 74, 127
3, 48210, Note_on_c, 1, 74, 0
3, 48210, Note_on_c, 1, 75, 127
3, 48240, Note_on_c, 1, 75, 0
3, 48240, Note_on_c, 1, 77, 127
3, 48300, Note_on_c, 1, 77, 0
3, 48360, Note_on_c, 1, 71, 127
3, 48390, Note_on_c, 1, 71, 0
3, 48390, Note_on_c, 1, 72, 127
3, 48420, Note_on_c, 1, 72, 0
3, 48420, Note_on_c, 1, 74, 127
3, 48450, Note_on_c, 1, 74, 0
3, 48450, Note_on_c, 1, 75, 127
3, 48480, Note_on_c, 1, 75, 0
3, 48480, Note_on_c, 1, 77, 127
3, 48540, Note_on_c, 1, 77, 0
3, 48780, Note_on_c, 1, 74, 127
3, 48810, Note_on_c, 1, 74, 0
3, 48840, Note_on_c, 1, 71, 127
3, 48870, Note_on_c, 1, 71, 0
3, 48900, Note_on_c, 1, 74, 127
3, 48930, Note_on_c, 1, 74, 0
3, 48960, Note_on_c, 1, 72, 127
3, 49020, Note_on_c, 1, 72, 0
3, 49020, Note_on_c, 1, 63, 127
3, 49080, Note_on_c, 1, 63, 0
3, 49080, Note_on_c, 1, 67, 127
3, 49140, Note_on_c, 1, 67, 0
3, 49140, Note_on_c, 1, 65, 127
3, 49200, Note_on_c, 1, 65, 0
3, 49200, Note_on_c, 1, 63, 127
3, 49260, Note_on_c, 1, 63, 0
3, 49260, Note_on_c, 1, 67, 127
3, 49320, Note_on_c, 1, 67, 0
3, 49320, Note_on_c, 1, 72, 127
3, 49350, Note_on_c, 1, 72, 0
3, 49350, Note_on_c, 1, 71, 127
3, 49380, Note_on_c, 1, 71, 0
3, 49380, Note_on_c, 1, 72, 127
3, 49410, Note_on_c, 1, 72, 0
3, 49410, Note_on_c, 1, 71, 127
3, 49440, Note_on_c, 1, 71, 0
3, 49440, Note_on_c, 1, 72, 127
3, 49500, Note_on_c, 1, 72, 0
3, 49500, Note_on_c, 1, 72, 127
3, 49560, Note_on_c, 1, 72, 0
3, 49560, Note_on_c, 1, 72, 127
3, 49620, Note_on_c, 1, 72, 0
3, 49620, Note_on_c, 1, 77, 127
3, 49680, Note_on_c, 1, 77, 0
3, 49680, Note_on_c, 1, 77, 127
3, 49740, Note_on_c, 1, 77, 0
3, 49740, Note_on_c, 1, 70, 127
3, 49800, Note_on_c, 1, 70, 0
3, 49920, Note_on_c, 1, 58, 127
3, 49980, Note_on_c, 1, 58, 0
3, 49980, Note_on_c, 1, 62, 127
3, 50040, Note_on_c, 1, 62, 0
3, 50040, Note_on_c, 1, 65, 127
3, 50100, Note_on_c, 1, 65, 0
3, 50100, Note_on_c, 1, 63, 127
3, 50160, Note_on_c, 1, 63, 0
3, 50160, Note_on_c, 1, 62, 127
3, 50220, Note_on_c, 1, 62, 0
3, 50220, Note_on_c, 1, 65, 127
3, 50280, Note_on_c, 1, 65, 0
3, 50280, Note_on_c, 1, 70, 127
3, 50310, Note_on_c, 1, 70, 0
3, 50310, Note_on_c, 1, 69, 127
3, 50340, Note_on_c, 1, 69, 0
3, 50340, Note_on_c, 1, 70, 127
3, 50370, Note_on_c, 1, 70, 0
3, 50370, Note_on_c, 1, 69, 127
3, 50400, Note_on_c, 1, 69, 0
3, 50400, Note_on_c, 1, 70, 127
3, 50460, Note_on_c, 1, 70, 0
3, 50460, Note_on_c, 1, 70, 127
3, 50520, Note_on_c, 1, 70, 0
3, 50520, Note_on_c, 1, 70, 127
3, 50580, Note_on_c, 1, 70, 0
3, 50580, Note_on_c, 1, 75, 127
3, 50640, Note_on_c, 1, 75, 0
3, 50640, Note_on_c, 1, 75, 127
3, 50700, Note_on_c, 1, 75, 0
3, 50700, Note_on_c, 1, 63, 127
3, 50760, Note_on_c, 1, 63, 0
3, 51000, Note_on_c, 1, 72, 127
3, 51030, Note_on_c, 1, 72, 0
3, 51030, Note_on_c, 1, 70, 127
3, 51060, Note_on_c, 1, 70, 0
3, 51060, Note_on_c, 1, 68, 127
3, 51090, Note_on_c, 1, 68, 0
3, 51090, Note_on_c, 1, 67, 127
3, 51120, Note_on_c, 1, 67, 0
3, 51120, Note_on_c, 1, 65, 127
3, 51180, Note_on_c, 1, 65, 0
3, 51180, Note_on_c, 1, 60, 127
3, 51240, Note_on_c, 1, 60, 0
3, 51480, Note_on_c, 1, 68, 127
3, 51510, Note_on_c, 1, 68, 0
3, 51510, Note_on_c, 1, 67, 127
3, 51540, Note_on_c, 1, 67, 0
3, 51540, Note_on_c, 1, 65, 127
3, 51570, Note_on_c, 1, 65, 0
3, 51570, Note_on_c, 1, 63, 127
3, 51600, Note_on_c, 1, 63, 0
3, 51600, Note_on_c, 1, 61, 127
3, 51660, Note_on_c, 1, 61, 0
3, 51660, Note_on_c, 1, 56, 127
3, 51720, Note_on_c, 1, 56, 0
3, 51900, Note_on_c, 1, 62, 127
3, 51930, Note_on_c, 1, 62, 0
3, 51930, Note_on_c, 1, 63, 127
3, 51960, Note_on_c, 1, 63, 0
3, 51960, Note_on_c, 1, 65, 127
3, 51990, Note_on_c, 1, 65, 0
3, 51990, Note_on_c, 1, 67, 127
3, 52020, Note_on_c, 1, 67, 0
3, 52020, Note_on_c, 1, 68, 127
3, 52080, Note_on_c, 1, 68, 0
3, 52080, Note_on_c, 1, 67, 127
3, 52140, Note_on_c, 1, 67, 0
3, 52140, Note_on_c, 1, 67, 127
3, 52200, Note_on_c, 1, 67, 0
3, 52200, Note_on_c, 1, 72, 127
3, 52260, Note_on_c, 1, 72, 0
3, 52260, Note_on_c, 1, 72, 127
3, 52320, Note_on_c, 1, 72, 0
3, 52320, Note_on_c, 1, 72, 127
3, 52410, Note_on_c, 1, 72, 0
3, 52410, Note_on_c, 1, 74, 127
3, 52440, Note_on_c, 1, 74, 0
3, 52440, Note_on_c, 1, 71, 127
3, 52530, Note_on_c, 1, 71, 0
3, 52530, Note_on_c, 1, 67, 127
3, 52560, Note_on_c, 1, 67, 0
3, 52560, Note_on_c, 1, 67, 127
3, 52800, Note_on_c, 1, 67, 0
3, 80880, Note_on_c, 1, 72, 90
3, 80939, Note_on_c, 1, 72, 0
3, 80940, Note_on_c, 1, 74, 90
3, 80999, Note_on_c, 1, 74, 0
3, 81000, Note_on_c, 1, 62, 90
3, 81059, Note_on_c, 1, 62, 0
3, 81060, Note_on_c, 1, 63, 90
3, 81119, Note_on_c, 1, 63, 0
3, 81120, Note_on_c, 1, 65, 90
3, 81179, Note_on_c, 1, 65, 0
3, 81180, Note_on_c, 1, 67, 90
3, 81209, Note_on_c, 1, 67, 0
3, 81210, Note_on_c, 1, 69, 90
3, 81239, Note_on_c, 1, 69, 0
3, 81240, Note_on_c, 1, 67, 90
3, 81269, Note_on_c, 1, 67, 0
3, 81270, Note_on_c, 1, 69, 90
3, 81299, Note_on_c, 1, 69, 0
3, 81300, Note_on_c, 1, 71, 90
3, 81329, Note_on_c, 1, 71, 0
3, 81330, Note_on_c, 1, 72, 90
3, 81359, Note_on_c, 1, 72, 0
3, 81360, Note_on_c, 1, 74, 90
3, 81389, Note_on_c, 1, 74, 0
3, 81390, Note_on_c, 1, 71, 90
3, 81419, Note_on_c, 1, 71, 0
3, 81420, Note_on_c, 1, 67, 90
3, 81479, Note_on_c, 1, 67, 0
3, 81480, Note_on_c, 1, 72, 90
3, 81599, Note_on_c, 1, 72, 0
3, 81600, Note_on_c, 1, 71, 90
3, 81659, Note_on_c, 1, 71, 0
3, 81660, Note_on_c, 1, 72, 90
3, 81719, Note_on_c, 1, 72, 0
3, 81720, Note_on_c, 1, 67, 90
3, 81779, Note_on_c, 1, 67, 0
3, 81780, Note_on_c, 1, 72, 90
3, 81839, Note_on_c, 1, 72, 0
3, 81840, Note_on_c, 1, 67, 90
3, 81899, Note_on_c, 1, 67, 0
3, 81900, Note_on_c, 1, 72, 90
3, 81959, Note_on_c, 1, 72, 0
3, 81960, Note_on_c, 1, 77, 90
3, 82079, Note_on_c, 1, 77, 0
3, 82080, Note_on_c, 1, 76, 90
3, 82139, Note_on_c, 1, 76, 0
3, 82140, Note_on_c, 1, 77, 90
3, 82199, Note_on_c, 1, 77, 0
3, 82200, Note_on_c, 1, 72, 90
3, 82259, Note_on_c, 1, 72, 0
3, 82260, Note_on_c, 1, 77, 90
3, 82319, Note_on_c, 1, 77, 0
3, 82320, Note_on_c, 1, 72, 90
3, 82379, Note_on_c, 1, 72, 0
3, 82380, Note_on_c, 1, 79, 90
3, 82439, Note_on_c, 1, 79, 0
3, 82440, Note_on_c, 1, 72, 90
3, 82499, Note_on_c, 1, 72, 0
3, 82500, Note_on_c, 1, 79, 90
3, 82559, Note_on_c, 1, 79, 0
3, 82560, Note_on_c, 1, 72, 90
3, 82619, Note_on_c, 1, 72, 0
3, 82620, Note_on_c, 1, 77, 90
3, 82679, Note_on_c, 1, 77, 0
3, 82680, Note_on_c, 1, 72, 90
3, 82739, Note_on_c, 1, 72, 0
3, 82740, Note_on_c, 1, 77, 90
3, 82799, Note_on_c, 1, 77, 0
3, 82800, Note_on_c, 1, 72, 90
3, 82859, Note_on_c, 1, 72, 0
3, 82860, Note_on_c, 1, 79, 90
3, 82919, Note_on_c, 1, 79, 0
3, 82920, Note_on_c, 1, 72, 90
3, 82979, Note_on_c, 1, 72, 0
3, 82980, Note_on_c, 1, 79, 90
3, 83039, Note_on_c, 1, 79, 0
3, 83040, Note_on_c, 1, 72, 90
3, 83099, Note_on_c, 1, 72, 0
3, 83100, Note_on_c, 1, 77, 90
3, 83159, Note_on_c, 1, 77, 0
3, 83160, Note_on_c, 1, 72, 90
3, 83219, Note_on_c, 1, 72, 0
3, 83220, Note_on_c, 1, 77, 90
3, 83279, Note_on_c, 1, 77, 0
3, 83280, Note_on_c, 1, 72, 90
3, 83339, Note_on_c, 1, 72, 0
3, 83340, Note_on_c, 1, 77, 90
3, 83399, Note_on_c, 1, 77, 0
3, 83400, Note_on_c, 1, 70, 90
3, 83459, Note_on_c, 1, 70, 0
3, 83460, Note_on_c, 1, 77, 90
3, 83519, Note_on_c, 1, 77, 0
3, 83520, Note_on_c, 1, 70, 90
3, 83579, Note_on_c, 1, 70, 0
3, 83580, Note_on_c, 1, 75, 90
3, 83639, Note_on_c, 1, 75, 0
3, 83640, Note_on_c, 1, 70, 90
3, 83699, Note_on_c, 1, 70, 0
3, 83700, Note_on_c, 1, 75, 90
3, 83759, Note_on_c, 1, 75, 0
3, 83760, Note_on_c, 1, 70, 90
3, 83819, Note_on_c, 1, 70, 0
3, 83820, Note_on_c, 1, 77, 90
3, 83879, Note_on_c, 1, 77, 0
3, 83880, Note_on_c, 1, 70, 90
3, 83939, Note_on_c, 1, 70, 0
3, 83940, Note_on_c, 1, 77, 90
3, 83999, Note_on_c, 1, 77, 0
3, 84000, Note_on_c, 1, 70, 90
3, 84059, Note_on_c, 1, 70, 0
3, 84060, Note_on_c, 1, 75, 90
3, 84119, Note_on_c, 1, 75, 0
3, 84120, Note_on_c, 1, 70, 90
3, 84179, Note_on_c, 1, 70, 0
3, 84180, Note_on_c, 1, 75, 90
3, 84239, Note_on_c, 1, 75, 0
3, 84240, Note_on_c, 1, 70, 90
3, 84299, Note_on_c, 1, 70, 0
3, 84300, Note_on_c, 1, 71, 90
3, 84359, Note_on_c, 1, 71, 0
3, 84360, Note_on_c, 1, 72, 90
3, 84479, Note_on_c, 1, 72, 0
3, 84480, Note_on_c, 1, 74, 90
3, 84539, Note_on_c, 1, 74, 0
3, 84540, Note_on_c, 1, 74, 90
3, 84659, Note_on_c, 1, 74, 0
3, 84690, Note_on_c, 1, 72, 90
3, 84719, Note_on_c, 1, 72, 0
3, 84720, Note_on_c, 1, 75, 90
3, 84749, Note_on_c, 1, 75, 0
3, 84750, Note_on_c, 1, 71, 90
3, 84779, Note_on_c, 1, 71, 0
3, 84780, Note_on_c, 1, 72, 90
3, 84839, Note_on_c, 1, 72, 0
3, 84900, Note_on_c, 1, 72, 90
3, 84959, Note_on_c, 1, 72, 0
3, 85020, Note_on_c, 1, 72, 90
3, 85199, Note_on_c, 1, 72, 0
3, 85200, Note_on_c, 1, 62, 90
3, 85259, Note_on_c, 1, 62, 0
3, 85260, Note_on_c, 1, 67, 90
3, 85319, Note_on_c, 1, 67, 0
3, 85320, Note_on_c, 1, 71, 90
3, 85379, Note_on_c, 1, 71, 0
3, 85380, Note_on_c, 1, 74, 90
3, 85559, Note_on_c, 1, 74, 0
3, 85560, Note_on_c, 1, 72, 90
3, 85589, Note_on_c, 1, 72, 0
3, 85590, Note_on_c, 1, 71, 90
3, 85619, Note_on_c, 1, 71, 0
3, 85620, Note_on_c, 1, 72, 90
3, 85679, Note_on_c, 1, 72, 0
3, 85680, Note_on_c, 1, 60, 90
3, 85709, Note_on_c, 1, 60, 0
3, 85710, Note_on_c, 1, 62, 90
3, 85739, Note_on_c, 1, 62, 0
3, 85740, Note_on_c, 1, 63, 90
3, 85799, Note_on_c, 1, 63, 0
3, 85800, Note_on_c, 1, 68, 90
3, 85859, Note_on_c, 1, 68, 0
3, 85860, Note_on_c, 1, 67, 90
3, 85919, Note_on_c, 1, 67, 0
3, 85920, Note_on_c, 1, 67, 90
3, 85979, Note_on_c, 1, 67, 0
3, 85980, Note_on_c, 1, 67, 90
3, 86099, Note_on_c, 1, 67, 0
3, 86640, Note_on_c, 1, 67, 90
3, 86669, Note_on_c, 1, 67, 0
3, 86670, Note_on_c, 1, 65, 90
3, 86699, Note_on_c, 1, 65, 0
3, 86700, Note_on_c, 1, 67, 90
3, 86729, Note_on_c, 1, 67, 0
3, 86730, Note_on_c, 1, 68, 90
3, 86759, Note_on_c, 1, 68, 0
3, 86760, Note_on_c, 1, 67, 90
3, 86789, Note_on_c, 1, 67, 0
3, 86790, Note_on_c, 1, 68, 90
3, 86819, Note_on_c, 1, 68, 0
3, 86820, Note_on_c, 1, 65, 90
3, 86849, Note_on_c, 1, 65, 0
3, 86850, Note_on_c, 1, 67, 90
3, 86879, Note_on_c, 1, 67, 0
3, 86880, Note_on_c, 1, 65, 90
3, 86909, Note_on_c, 1, 65, 0
3, 86910, Note_on_c, 1, 67, 90
3, 86939, Note_on_c, 1, 67, 0
3, 86940, Note_on_c, 1, 63, 90
3, 86969, Note_on_c, 1, 63, 0
3, 86970, Note_on_c, 1, 65, 90
3, 86999, Note_on_c, 1, 65, 0
3, 87000, Note_on_c, 1, 63, 90
3, 87029, Note_on_c, 1, 63, 0
3, 87030, Note_on_c, 1, 65, 90
3, 87059, Note_on_c, 1, 65, 0
3, 87060, Note_on_c, 1, 67, 90
3, 87119, Note_on_c, 1, 67, 0
3, 87600, Note_on_c, 1, 70, 90
3, 87629, Note_on_c, 1, 70, 0
3, 87630, Note_on_c, 1, 68, 90
3, 87659, Note_on_c, 1, 68, 0
3, 87660, Note_on_c, 1, 70, 90
3, 87689, Note_on_c, 1, 70, 0
3, 87690, Note_on_c, 1, 72, 90
3, 87719, Note_on_c, 1, 72, 0
3, 87720, Note_on_c, 1, 70, 90
3, 87749, Note_on_c, 1, 70, 0
3, 87750, Note_on_c, 1, 72, 90
3, 87779, Note_on_c, 1, 72, 0
3, 87780, Note_on_c, 1, 68, 90
3, 87809, Note_on_c, 1, 68, 0
3, 87810, Note_on_c, 1, 70, 90
3, 87839, Note_on_c, 1, 70, 0
3, 87840, Note_on_c, 1, 68, 90
3, 87869, Note_on_c, 1, 68, 0
3, 87870, Note_on_c, 1, 70, 90
3, 87899, Note_on_c, 1, 70, 0
3, 87900, Note_on_c, 1, 67, 90
3, 87929, Note_on_c, 1, 67, 0
3, 87930, Note_on_c, 1, 68, 90
3, 87959, Note_on_c, 1, 68, 0
3, 87960, Note_on_c, 1, 67, 90
3, 87989, Note_on_c, 1, 67, 0
3, 87990, Note_on_c, 1, 68, 90
3, 88019, Note_on_c, 1, 68, 0
3, 88020, Note_on_c, 1, 70, 90
3, 88079, Note_on_c, 1, 70, 0
3, 89520, Note_on_c, 1, 62, 90
3, 89579, Note_on_c, 1, 62, 0
3, 89580, Note_on_c, 1, 60, 90
3, 89639, Note_on_c, 1, 60, 0
3, 89640, Note_on_c, 1, 69, 90
3, 89699, Note_on_c, 1, 69, 0
3, 89700, Note_on_c, 1, 58, 90
3, 89759, Note_on_c, 1, 58, 0
3, 89760, Note_on_c, 1, 67, 90
3, 89819, Note_on_c, 1, 67, 0
3, 89820, Note_on_c, 1, 57, 90
3, 89849, Note_on_c, 1, 57, 0
3, 89850, Note_on_c, 1, 55, 90
3, 89879, Note_on_c, 1, 55, 0
3, 89880, Note_on_c, 1, 57, 90
3, 89909, Note_on_c, 1, 57, 0
3, 89910, Note_on_c, 1, 55, 90
3, 89939, Note_on_c, 1, 55, 0
3, 89940, Note_on_c, 1, 57, 90
3, 89999, Note_on_c, 1, 57, 0
3, 90480, Note_on_c, 1, 79, 90
3, 90539, Note_on_c, 1, 79, 0
3, 90540, Note_on_c, 1, 81, 90
3, 90599, Note_on_c, 1, 81, 0
3, 90600, Note_on_c, 1, 69, 90
3, 90659, Note_on_c, 1, 69, 0
3, 90660, Note_on_c, 1, 70, 90
3, 90719, Note_on_c, 1, 70, 0
3, 90720, Note_on_c, 1, 72, 90
3, 90779, Note_on_c, 1, 72, 0
3, 90780, Note_on_c, 1, 74, 90
3, 90809, Note_on_c, 1, 74, 0
3, 90810, Note_on_c, 1, 76, 90
3, 90839, Note_on_c, 1, 76, 0
3, 90840, Note_on_c, 1, 74, 90
3, 90869, Note_on_c, 1, 74, 0
3, 90870, Note_on_c, 1, 76, 90
3, 90899, Note_on_c, 1, 76, 0
3, 90900, Note_on_c, 1, 78, 90
3, 90959, Note_on_c, 1, 78, 0
3, 91440, Note_on_c, 1, 66, 90
3, 91499, Note_on_c, 1, 66, 0
3, 91500, Note_on_c, 1, 67, 90
3, 91559, Note_on_c, 1, 67, 0
3, 91560, Note_on_c, 1, 62, 90
3, 91619, Note_on_c, 1, 62, 0
3, 91620, Note_on_c, 1, 69, 90
3, 91679, Note_on_c, 1, 69, 0
3, 91680, Note_on_c, 1, 62, 90
3, 91739, Note_on_c, 1, 62, 0
3, 91740, Note_on_c, 1, 70, 90
3, 91769, Note_on_c, 1, 70, 0
3, 91770, Note_on_c, 1, 69, 90
3, 91799, Note_on_c, 1, 69, 0
3, 91800, Note_on_c, 1, 70, 90
3, 91829, Note_on_c, 1, 70, 0
3, 91830, Note_on_c, 1, 69, 90
3, 91859, Note_on_c, 1, 69, 0
3, 91860, Note_on_c, 1, 67, 90
3, 91919, Note_on_c, 1, 67, 0
3, 92400, Note_on_c, 1, 71, 90
3, 92459, Note_on_c, 1, 71, 0
3, 92460, Note_on_c, 1, 72, 90
3, 92519, Note_on_c, 1, 72, 0
3, 92520, Note_on_c, 1, 67, 90
3, 92579, Note_on_c, 1, 67, 0
3, 92580, Note_on_c, 1, 74, 90
3, 92639, Note_on_c, 1, 74, 0
3, 92640, Note_on_c, 1, 67, 90
3, 92699, Note_on_c, 1, 67, 0
3, 92700, Note_on_c, 1, 75, 90
3, 92730, Note_on_c, 1, 75, 0
3, 92730, Note_on_c, 1, 74, 90
3, 92760, Note_on_c, 1, 74, 0
3, 92760, Note_on_c, 1, 75, 90
3, 92790, Note_on_c, 1, 75, 0
3, 92790, Note_on_c, 1, 74, 90
3, 92820, Note_on_c, 1, 74, 0
3, 92820, Note_on_c, 1, 72, 90
3, 92879, Note_on_c, 1, 72, 0
3, 93360, Note_on_c, 1, 72, 90
3, 93419, Note_on_c, 1, 72, 0
3, 93420, Note_on_c, 1, 71, 90
3, 93479, Note_on_c, 1, 71, 0
3, 93480, Note_on_c, 1, 74, 90
3, 93539, Note_on_c, 1, 74, 0
3, 93540, Note_on_c, 1, 67, 90
3, 93599, Note_on_c, 1, 67, 0
3, 93600, Note_on_c, 1, 71, 90
3, 93659, Note_on_c, 1, 71, 0
3, 93660, Note_on_c, 1, 72, 90
3, 93719, Note_on_c, 1, 72, 0
3, 93720, Note_on_c, 1, 67, 90
3, 93779, Note_on_c, 1, 67, 0
3, 93780, Note_on_c, 1, 60, 90
3, 93839, Note_on_c, 1, 60, 0
3, 94320, Note_on_c, 1, 70, 90
3, 94379, Note_on_c, 1, 70, 0
3, 94380, Note_on_c, 1, 69, 90
3, 94439, Note_on_c, 1, 69, 0
3, 94440, Note_on_c, 1, 72, 90
3, 94499, Note_on_c, 1, 72, 0
3, 94500, Note_on_c, 1, 65, 90
3, 94559, Note_on_c, 1, 65, 0
3, 94560, Note_on_c, 1, 69, 90
3, 94619, Note_on_c, 1, 69, 0
3, 94620, Note_on_c, 1, 70, 90
3, 94679, Note_on_c, 1, 70, 0
3, 94680, Note_on_c, 1, 65, 90
3, 94739, Note_on_c, 1, 65, 0
3, 94740, Note_on_c, 1, 58, 90
3, 94799, Note_on_c, 1, 58, 0
3, 94800, Note_on_c, 1, 67, 90
3, 94859, Note_on_c, 1, 67, 0
3, 94860, Note_on_c, 1, 66, 90
3, 94919, Note_on_c, 1, 66, 0
3, 94920, Note_on_c, 1, 67, 90
3, 95039, Note_on_c, 1, 67, 0
3, 95040, Note_on_c, 1, 69, 90
3, 95099, Note_on_c, 1, 69, 0
3, 95100, Note_on_c, 1, 69, 90
3, 95219, Note_on_c, 1, 69, 0
3, 95250, Note_on_c, 1, 67, 90
3, 95279, Note_on_c, 1, 67, 0
3, 95280, Note_on_c, 1, 69, 90
3, 95309, Note_on_c, 1, 69, 0
3, 95310, Note_on_c, 1, 66, 90
3, 95339, Note_on_c, 1, 66, 0
3, 95340, Note_on_c, 1, 67, 90
3, 95399, Note_on_c, 1, 67, 0
3, 95460, Note_on_c, 1, 67, 90
3, 95519, Note_on_c, 1, 67, 0
3, 95580, Note_on_c, 1, 67, 90
3, 95759, Note_on_c, 1, 67, 0
3, 95760, Note_on_c, 1, 57, 90
3, 95819, Note_on_c, 1, 57, 0
3, 95820, Note_on_c, 1, 62, 90
3, 95879, Note_on_c, 1, 62, 0
3, 95880, Note_on_c, 1, 66, 90
3, 95939, Note_on_c, 1, 66, 0
3, 95940, Note_on_c, 1, 69, 90
3, 96119, Note_on_c, 1, 69, 0
3, 96120, Note_on_c, 1, 67, 90
3, 96149, Note_on_c, 1, 67, 0
3, 96150, Note_on_c, 1, 66, 90
3, 96179, Note_on_c, 1, 66, 0
3, 96180, Note_on_c, 1, 67, 90
3, 96239, Note_on_c, 1, 67, 0
3, 96240, Note_on_c, 1, 55, 90
3, 96269, Note_on_c, 1, 55, 0
3, 96270, Note_on_c, 1, 57, 90
3, 96299, Note_on_c, 1, 57, 0
3, 96300, Note_on_c, 1, 58, 90
3, 96359, Note_on_c, 1, 58, 0
3, 96360, Note_on_c, 1, 63, 90
3, 96419, Note_on_c, 1, 63, 0
3, 96420, Note_on_c, 1, 62, 90
3, 96479, Note_on_c, 1, 62, 0
3, 96480, Note_on_c, 1, 62, 90
3, 96539, Note_on_c, 1, 62, 0
3, 96540, Note_on_c, 1, 62, 90
3, 96659, Note_on_c, 1, 62, 0
3, 96780, Note_on_c, 1, 67, 90
3, 97019, Note_on_c, 1, 67, 0
3, 97020, Note_on_c, 1, 69, 90
3, 97259, Note_on_c, 1, 69, 0
3, 97260, Note_on_c, 1, 70, 90
3, 97499, Note_on_c, 1, 70, 0
3, 97500, Note_on_c, 1, 69, 90
3, 97679, Note_on_c, 1, 69, 0
3, 97680, Note_on_c, 1, 72, 90
3, 97739, Note_on_c, 1, 72, 0
3, 97740, Note_on_c, 1, 70, 90
3, 97979, Note_on_c, 1, 70, 0
3, 97980, Note_on_c, 1, 72, 90
3, 98219, Note_on_c, 1, 72, 0
3, 98220, Note_on_c, 1, 74, 90
3, 98459, Note_on_c, 1, 74, 0
3, 98460, Note_on_c, 1, 72, 90
3, 98579, Note_on_c, 1, 72, 0
3, 98580, Note_on_c, 1, 69, 90
3, 98819, Note_on_c, 1, 69, 0
3, 98820, Note_on_c, 1, 68, 90
3, 98939, Note_on_c, 1, 68, 0
3, 98940, Note_on_c, 1, 67, 90
3, 99419, Note_on_c, 1, 67, 0
3, 99420, Note_on_c, 1, 65, 90
3, 99659, Note_on_c, 1, 65, 0
3, 101040, Note_on_c, 1, 77, 90
3, 101099, Note_on_c, 1, 77, 0
3, 101100, Note_on_c, 1, 79, 90
3, 101159, Note_on_c, 1, 79, 0
3, 101160, Note_on_c, 1, 67, 90
3, 101219, Note_on_c, 1, 67, 0
3, 101220, Note_on_c, 1, 68, 90
3, 101279, Note_on_c, 1, 68, 0
3, 101280, Note_on_c, 1, 70, 90
3, 101339, Note_on_c, 1, 70, 0
3, 101340, Note_on_c, 1, 72, 90
3, 101369, Note_on_c, 1, 72, 0
3, 101370, Note_on_c, 1, 74, 90
3, 101399, Note_on_c, 1, 74, 0
3, 101400, Note_on_c, 1, 72, 90
3, 101429, Note_on_c, 1, 72, 0
3, 101430, Note_on_c, 1, 74, 90
3, 101459, Note_on_c, 1, 74, 0
3, 101460, Note_on_c, 1, 76, 90
3, 101519, Note_on_c, 1, 76, 0
3, 101520, Note_on_c, 1, 72, 90
3, 101579, Note_on_c, 1, 72, 0
3, 101580, Note_on_c, 1, 72, 90
3, 101639, Note_on_c, 1, 72, 0
3, 101700, Note_on_c, 1, 75, 90
3, 101759, Note_on_c, 1, 75, 0
3, 101820, Note_on_c, 1, 77, 90
3, 101879, Note_on_c, 1, 77, 0
3, 102000, Note_on_c, 1, 63, 90
3, 102059, Note_on_c, 1, 63, 0
3, 102060, Note_on_c, 1, 70, 90
3, 102089, Note_on_c, 1, 70, 0
3, 102090, Note_on_c, 1, 72, 90
3, 102119, Note_on_c, 1, 72, 0
3, 102120, Note_on_c, 1, 70, 90
3, 102149, Note_on_c, 1, 70, 0
3, 102150, Note_on_c, 1, 72, 90
3, 102179, Note_on_c, 1, 72, 0
3, 102180, Note_on_c, 1, 68, 90
3, 102209, Note_on_c, 1, 68, 0
3, 102210, Note_on_c, 1, 70, 90
3, 102239, Note_on_c, 1, 70, 0
3, 102240, Note_on_c, 1, 68, 90
3, 102269, Note_on_c, 1, 68, 0
3, 102270, Note_on_c, 1, 70, 90
3, 102299, Note_on_c, 1, 70, 0
3, 102300, Note_on_c, 1, 67, 90
3, 102329, Note_on_c, 1, 67, 0
3, 102330, Note_on_c, 1, 68, 90
3, 102359, Note_on_c, 1, 68, 0
3, 102360, Note_on_c, 1, 67, 90
3, 102389, Note_on_c, 1, 67, 0
3, 102390, Note_on_c, 1, 68, 90
3, 102419, Note_on_c, 1, 68, 0
3, 102420, Note_on_c, 1, 65, 90
3, 102449, Note_on_c, 1, 65, 0
3, 102450, Note_on_c, 1, 67, 90
3, 102479, Note_on_c, 1, 67, 0
3, 102480, Note_on_c, 1, 65, 90
3, 102509, Note_on_c, 1, 65, 0
3, 102510, Note_on_c, 1, 67, 90
3, 102539, Note_on_c, 1, 67, 0
3, 102540, Note_on_c, 1, 63, 90
3, 102599, Note_on_c, 1, 63, 0
3, 102660, Note_on_c, 1, 70, 90
3, 102719, Note_on_c, 1, 70, 0
3, 102780, Note_on_c, 1, 75, 90
3, 102839, Note_on_c, 1, 75, 0
3, 102960, Note_on_c, 1, 62, 90
3, 103019, Note_on_c, 1, 62, 0
3, 103020, Note_on_c, 1, 68, 90
3, 103049, Note_on_c, 1, 68, 0
3, 103050, Note_on_c, 1, 70, 90
3, 103079, Note_on_c, 1, 70, 0
3, 103080, Note_on_c, 1, 68, 90
3, 103109, Note_on_c, 1, 68, 0
3, 103110, Note_on_c, 1, 70, 90
3, 103139, Note_on_c, 1, 70, 0
3, 103140, Note_on_c, 1, 67, 90
3, 103169, Note_on_c, 1, 67, 0
3, 103170, Note_on_c, 1, 68, 90
3, 103199, Note_on_c, 1, 68, 0
3, 103200, Note_on_c, 1, 67, 90
3, 103229, Note_on_c, 1, 67, 0
3, 103230, Note_on_c, 1, 68, 90
3, 103259, Note_on_c, 1, 68, 0
3, 103260, Note_on_c, 1, 65, 90
3, 103289, Note_on_c, 1, 65, 0
3, 103290, Note_on_c, 1, 67, 90
3, 103319, Note_on_c, 1, 67, 0
3, 103320, Note_on_c, 1, 65, 90
3, 103349, Note_on_c, 1, 65, 0
3, 103350, Note_on_c, 1, 67, 90
3, 103379, Note_on_c, 1, 67, 0
3, 103380, Note_on_c, 1, 63, 90
3, 103409, Note_on_c, 1, 63, 0
3, 103410, Note_on_c, 1, 65, 90
3, 103439, Note_on_c, 1, 65, 0
3, 103440, Note_on_c, 1, 63, 90
3, 103469, Note_on_c, 1, 63, 0
3, 103470, Note_on_c, 1, 65, 90
3, 103499, Note_on_c, 1, 65, 0
3, 103500, Note_on_c, 1, 62, 90
3, 103559, Note_on_c, 1, 62, 0
3, 103620, Note_on_c, 1, 65, 90
3, 103679, Note_on_c, 1, 65, 0
3, 103740, Note_on_c, 1, 67, 90
3, 103799, Note_on_c, 1, 67, 0
3, 103920, Note_on_c, 1, 60, 90
3, 103979, Note_on_c, 1, 60, 0
3, 103980, Note_on_c, 1, 67, 90
3, 104009, Note_on_c, 1, 67, 0
3, 104010, Note_on_c, 1, 68, 90
3, 104039, Note_on_c, 1, 68, 0
3, 104040, Note_on_c, 1, 67, 90
3, 104069, Note_on_c, 1, 67, 0
3, 104070, Note_on_c, 1, 68, 90
3, 104099, Note_on_c, 1, 68, 0
3, 104100, Note_on_c, 1, 65, 90
3, 104129, Note_on_c, 1, 65, 0
3, 104130, Note_on_c, 1, 67, 90
3, 104159, Note_on_c, 1, 67, 0
3, 104160, Note_on_c, 1, 65, 90
3, 104189, Note_on_c, 1, 65, 0
3, 104190, Note_on_c, 1, 67, 90
3, 104219, Note_on_c, 1, 67, 0
3, 104220, Note_on_c, 1, 63, 90
3, 104249, Note_on_c, 1, 63, 0
3, 104250, Note_on_c, 1, 65, 90
3, 104279, Note_on_c, 1, 65, 0
3, 104280, Note_on_c, 1, 63, 90
3, 104309, Note_on_c, 1, 63, 0
3, 104310, Note_on_c, 1, 65, 90
3, 104339, Note_on_c, 1, 65, 0
3, 104340, Note_on_c, 1, 62, 90
3, 104369, Note_on_c, 1, 62, 0
3, 104370, Note_on_c, 1, 63, 90
3, 104399, Note_on_c, 1, 63, 0
3, 104400, Note_on_c, 1, 62, 90
3, 104429, Note_on_c, 1, 62, 0
3, 104430, Note_on_c, 1, 63, 90
3, 104459, Note_on_c, 1, 63, 0
3, 104460, Note_on_c, 1, 60, 90
3, 104519, Note_on_c, 1, 60, 0
3, 104880, Note_on_c, 1, 67, 90
3, 104909, Note_on_c, 1, 67, 0
3, 104910, Note_on_c, 1, 65, 90
3, 104939, Note_on_c, 1, 65, 0
3, 104940, Note_on_c, 1, 67, 90
3, 104969, Note_on_c, 1, 67, 0
3, 104970, Note_on_c, 1, 68, 90
3, 104999, Note_on_c, 1, 68, 0
3, 105000, Note_on_c, 1, 67, 90
3, 105029, Note_on_c, 1, 67, 0
3, 105030, Note_on_c, 1, 68, 90
3, 105059, Note_on_c, 1, 68, 0
3, 105060, Note_on_c, 1, 65, 90
3, 105089, Note_on_c, 1, 65, 0
3, 105090, Note_on_c, 1, 67, 90
3, 105119, Note_on_c, 1, 67, 0
3, 105120, Note_on_c, 1, 65, 90
3, 105149, Note_on_c, 1, 65, 0
3, 105150, Note_on_c, 1, 67, 90
3, 105179, Note_on_c, 1, 67, 0
3, 105180, Note_on_c, 1, 63, 90
3, 105209, Note_on_c, 1, 63, 0
3, 105210, Note_on_c, 1, 65, 90
3, 105239, Note_on_c, 1, 65, 0
3, 105240, Note_on_c, 1, 63, 90
3, 105269, Note_on_c, 1, 63, 0
3, 105270, Note_on_c, 1, 65, 90
3, 105299, Note_on_c, 1, 65, 0
3, 105300, Note_on_c, 1, 67, 90
3, 105359, Note_on_c, 1, 67, 0
3, 105840, Note_on_c, 1, 70, 90
3, 105869, Note_on_c, 1, 70, 0
3, 105870, Note_on_c, 1, 69, 90
3, 105899, Note_on_c, 1, 69, 0
3, 105900, Note_on_c, 1, 70, 90
3, 105929, Note_on_c, 1, 70, 0
3, 105930, Note_on_c, 1, 72, 90
3, 105959, Note_on_c, 1, 72, 0
3, 105960, Note_on_c, 1, 70, 90
3, 105989, Note_on_c, 1, 70, 0
3, 105990, Note_on_c, 1, 72, 90
3, 106019, Note_on_c, 1, 72, 0
3, 106020, Note_on_c, 1, 68, 90
3, 106049, Note_on_c, 1, 68, 0
3, 106050, Note_on_c, 1, 70, 90
3, 106079, Note_on_c, 1, 70, 0
3, 106080, Note_on_c, 1, 68, 90
3, 106109, Note_on_c, 1, 68, 0
3, 106110, Note_on_c, 1, 70, 90
3, 106139, Note_on_c, 1, 70, 0
3, 106140, Note_on_c, 1, 67, 90
3, 106169, Note_on_c, 1, 67, 0
3, 106170, Note_on_c, 1, 68, 90
3, 106199, Note_on_c, 1, 68, 0
3, 106200, Note_on_c, 1, 67, 90
3, 106229, Note_on_c, 1, 67, 0
3, 106230, Note_on_c, 1, 68, 90
3, 106259, Note_on_c, 1, 68, 0
3, 106260, Note_on_c, 1, 70, 90
3, 106319, Note_on_c, 1, 70, 0
3, 106800, Note_on_c, 1, 68, 90
3, 106859, Note_on_c, 1, 68, 0
3, 106860, Note_on_c, 1, 67, 90
3, 106919, Note_on_c, 1, 67, 0
3, 106920, Note_on_c, 1, 70, 90
3, 106979, Note_on_c, 1, 70, 0
3, 106980, Note_on_c, 1, 63, 90
3, 107039, Note_on_c, 1, 63, 0
3, 107040, Note_on_c, 1, 67, 90
3, 107099, Note_on_c, 1, 67, 0
3, 107100, Note_on_c, 1, 68, 90
3, 107159, Note_on_c, 1, 68, 0
3, 107160, Note_on_c, 1, 63, 90
3, 107219, Note_on_c, 1, 63, 0
3, 107220, Note_on_c, 1, 56, 90
3, 107279, Note_on_c, 1, 56, 0
3, 107760, Note_on_c, 1, 70, 90
3, 107819, Note_on_c, 1, 70, 0
3, 107820, Note_on_c, 1, 69, 90
3, 107879, Note_on_c, 1, 69, 0
3, 107880, Note_on_c, 1, 72, 90
3, 107939, Note_on_c, 1, 72, 0
3, 107940, Note_on_c, 1, 65, 90
3, 107999, Note_on_c, 1, 65, 0
3, 108000, Note_on_c, 1, 69, 90
3, 108059, Note_on_c, 1, 69, 0
3, 108060, Note_on_c, 1, 70, 90
3, 108119, Note_on_c, 1, 70, 0
3, 108120, Note_on_c, 1, 65, 90
3, 108179, Note_on_c, 1, 65, 0
3, 108180, Note_on_c, 1, 58, 90
3, 108239, Note_on_c, 1, 58, 0
3, 108720, Note_on_c, 1, 72, 90
3, 108779, Note_on_c, 1, 72, 0
3, 108780, Note_on_c, 1, 71, 90
3, 108839, Note_on_c, 1, 71, 0
3, 108840, Note_on_c, 1, 74, 90
3, 108899, Note_on_c, 1, 74, 0
3, 108900, Note_on_c, 1, 67, 90
3, 108959, Note_on_c, 1, 67, 0
3, 108960, Note_on_c, 1, 71, 90
3, 109019, Note_on_c, 1, 71, 0
3, 109020, Note_on_c, 1, 72, 90
3, 109079, Note_on_c, 1, 72, 0
3, 109080, Note_on_c, 1, 67, 90
3, 109139, Note_on_c, 1, 67, 0
3, 109140, Note_on_c, 1, 60, 90
3, 109199, Note_on_c, 1, 60, 0
3, 109200, Note_on_c, 1, 72, 90
3, 109259, Note_on_c, 1, 72, 0
3, 109260, Note_on_c, 1, 71, 90
3, 109319, Note_on_c, 1, 71, 0
3, 109320, Note_on_c, 1, 72, 90
3, 109439, Note_on_c, 1, 72, 0
3, 109440, Note_on_c, 1, 74, 90
3, 109499, Note_on_c, 1, 74, 0
3, 109500, Note_on_c, 1, 74, 90
3, 109619, Note_on_c, 1, 74, 0
3, 109650, Note_on_c, 1, 72, 90
3, 109679, Note_on_c, 1, 72, 0
3, 109680, Note_on_c, 1, 74, 90
3, 109709, Note_on_c, 1, 74, 0
3, 109710, Note_on_c, 1, 71, 90
3, 109739, Note_on_c, 1, 71, 0
3, 109740, Note_on_c, 1, 72, 90
3, 109799, Note_on_c, 1, 72, 0
3, 109860, Note_on_c, 1, 72, 90
3, 109919, Note_on_c, 1, 72, 0
3, 109980, Note_on_c, 1, 72, 90
3, 110159, Note_on_c, 1, 72, 0
3, 110160, Note_on_c, 1, 62, 90
3, 110219, Note_on_c, 1, 62, 0
3, 110220, Note_on_c, 1, 67, 90
3, 111180, Note_on_c, 1, 67, 0
3, 111180, Note_on_c, 1, 71, 90
3, 111900, Note_on_c, 1, 71, 0
3, 111900, Note_on_c, 1, 67, 90
3, 112530, Note_on_c, 1, 67, 0
3, 112530, Note_on_c, 1, 68, 90
3, 112559, Note_on_c, 1, 68, 0
3, 112560, Note_on_c, 1, 65, 90
3, 112589, Note_on_c, 1, 65, 0
3, 112590, Note_on_c, 1, 67, 90
3, 112619, Note_on_c, 1, 67, 0
3, 112620, Note_on_c, 1, 63, 90
3, 112649, Note_on_c, 1, 63, 0
3, 112650, Note_on_c, 1, 65, 90
3, 112679, Note_on_c, 1, 65, 0
3, 112680, Note_on_c, 1, 63, 90
3, 112709, Note_on_c, 1, 63, 0
3, 112710, Note_on_c, 1, 65, 90
3, 112739, Note_on_c, 1, 65, 0
3, 112740, Note_on_c, 1, 62, 90
3, 112769, Note_on_c, 1, 62, 0
3, 112770, Note_on_c, 1, 63, 90
3, 112799, Note_on_c, 1, 63, 0
3, 112800, Note_on_c, 1, 62, 90
3, 112829, Note_on_c, 1, 62, 0
3, 112830, Note_on_c, 1, 63, 90
3, 112859, Note_on_c, 1, 63, 0
3, 112860, Note_on_c, 1, 60, 90
3, 112919, Note_on_c, 1, 60, 0
3, 112920, Note_on_c, 1, 63, 90
3, 112979, Note_on_c, 1, 63, 0
3, 112980, Note_on_c, 1, 67, 90
3, 113039, Note_on_c, 1, 67, 0
3, 113040, Note_on_c, 1, 72, 90
3, 113099, Note_on_c, 1, 72, 0
3, 113100, Note_on_c, 1, 74, 90
3, 113159, Note_on_c, 1, 74, 0
3, 113160, Note_on_c, 1, 62, 90
3, 113219, Note_on_c, 1, 62, 0
3, 113220, Note_on_c, 1, 63, 90
3, 113279, Note_on_c, 1, 63, 0
3, 113280, Note_on_c, 1, 65, 90
3, 113339, Note_on_c, 1, 65, 0
3, 113340, Note_on_c, 1, 67, 90
3, 113369, Note_on_c, 1, 67, 0
3, 113370, Note_on_c, 1, 69, 90
3, 113399, Note_on_c, 1, 69, 0
3, 113400, Note_on_c, 1, 67, 90
3, 113429, Note_on_c, 1, 67, 0
3, 113430, Note_on_c, 1, 69, 90
3, 113459, Note_on_c, 1, 69, 0
3, 113460, Note_on_c, 1, 71, 90
3, 113519, Note_on_c, 1, 71, 0
3, 114000, Note_on_c, 1, 59, 90
3, 114059, Note_on_c, 1, 59, 0
3, 114060, Note_on_c, 1, 60, 90
3, 114119, Note_on_c, 1, 60, 0
3, 114120, Note_on_c, 1, 55, 90
3, 114179, Note_on_c, 1, 55, 0
3, 114180, Note_on_c, 1, 62, 90
3, 114239, Note_on_c, 1, 62, 0
3, 114240, Note_on_c, 1, 55, 90
3, 114299, Note_on_c, 1, 55, 0
3, 114300, Note_on_c, 1, 63, 90
3, 114329, Note_on_c, 1, 63, 0
3, 114330, Note_on_c, 1, 62, 90
3, 114359, Note_on_c, 1, 62, 0
3, 114360, Note_on_c, 1, 63, 90
3, 114389, Note_on_c, 1, 63, 0
3, 114390, Note_on_c, 1, 62, 90
3, 114419, Note_on_c, 1, 62, 0
3, 114420, Note_on_c, 1, 60, 90
3, 114479, Note_on_c, 1, 60, 0
3, 114960, Note_on_c, 1, 64, 90
3, 115019, Note_on_c, 1, 64, 0
3, 115020, Note_on_c, 1, 65, 90
3, 115079, Note_on_c, 1, 65, 0
3, 115080, Note_on_c, 1, 60, 90
3, 115139, Note_on_c, 1, 60, 0
3, 115140, Note_on_c, 1, 67, 90
3, 115199, Note_on_c, 1, 67, 0
3, 115200, Note_on_c, 1, 60, 90
3, 115259, Note_on_c, 1, 60, 0
3, 115260, Note_on_c, 1, 68, 90
3, 115289, Note_on_c, 1, 68, 0
3, 115290, Note_on_c, 1, 67, 90
3, 115319, Note_on_c, 1, 67, 0
3, 115320, Note_on_c, 1, 68, 90
3, 115349, Note_on_c, 1, 68, 0
3, 115350, Note_on_c, 1, 67, 90
3, 115379, Note_on_c, 1, 67, 0
3, 115380, Note_on_c, 1, 65, 90
3, 115439, Note_on_c, 1, 65, 0
3, 116880, Note_on_c, 1, 67, 90
3, 116939, Note_on_c, 1, 67, 0
3, 116940, Note_on_c, 1, 65, 90
3, 116999, Note_on_c, 1, 65, 0
3, 117000, Note_on_c, 1, 74, 90
3, 117059, Note_on_c, 1, 74, 0
3, 117060, Note_on_c, 1, 63, 90
3, 117119, Note_on_c, 1, 63, 0
3, 117120, Note_on_c, 1, 72, 90
3, 117179, Note_on_c, 1, 72, 0
3, 117180, Note_on_c, 1, 62, 90
3, 117209, Note_on_c, 1, 62, 0
3, 117210, Note_on_c, 1, 60, 90
3, 117239, Note_on_c, 1, 60, 0
3, 117240, Note_on_c, 1, 62, 90
3, 117269, Note_on_c, 1, 62, 0
3, 117270, Note_on_c, 1, 60, 90
3, 117299, Note_on_c, 1, 60, 0
3, 117300, Note_on_c, 1, 59, 90
3, 117359, Note_on_c, 1, 59, 0
3, 117840, Note_on_c, 1, 72, 90
3, 117899, Note_on_c, 1, 72, 0
3, 117900, Note_on_c, 1, 74, 90
3, 117959, Note_on_c, 1, 74, 0
3, 117960, Note_on_c, 1, 62, 90
3, 118019, Note_on_c, 1, 62, 0
3, 118020, Note_on_c, 1, 63, 90
3, 118079, Note_on_c, 1, 63, 0
3, 118080, Note_on_c, 1, 65, 90
3, 118139, Note_on_c, 1, 65, 0
3, 118140, Note_on_c, 1, 67, 90
3, 118169, Note_on_c, 1, 67, 0
3, 118170, Note_on_c, 1, 69, 90
3, 118199, Note_on_c, 1, 69, 0
3, 118200, Note_on_c, 1, 67, 90
3, 118229, Note_on_c, 1, 67, 0
3, 118230, Note_on_c, 1, 69, 90
3, 118259, Note_on_c, 1, 69, 0
3, 118260, Note_on_c, 1, 71, 90
3, 118289, Note_on_c, 1, 71, 0
3, 118290, Note_on_c, 1, 72, 90
3, 118319, Note_on_c, 1, 72, 0
3, 118320, Note_on_c, 1, 74, 90
3, 118349, Note_on_c, 1, 74, 0
3, 118350, Note_on_c, 1, 71, 90
3, 118379, Note_on_c, 1, 71, 0
3, 118380, Note_on_c, 1, 67, 90
3, 118439, Note_on_c, 1, 67, 0
3, 118440, Note_on_c, 1, 72, 90
3, 118559, Note_on_c, 1, 72, 0
3, 118560, Note_on_c, 1, 71, 90
3, 118619, Note_on_c, 1, 71, 0
3, 118620, Note_on_c, 1, 72, 90
3, 118679, Note_on_c, 1, 72, 0
3, 118680, Note_on_c, 1, 67, 90
3, 118739, Note_on_c, 1, 67, 0
3, 118740, Note_on_c, 1, 72, 90
3, 118799, Note_on_c, 1, 72, 0
3, 118800, Note_on_c, 1, 67, 90
3, 118859, Note_on_c, 1, 67, 0
3, 118860, Note_on_c, 1, 72, 90
3, 118919, Note_on_c, 1, 72, 0
3, 118920, Note_on_c, 1, 77, 90
3, 119039, Note_on_c, 1, 77, 0
3, 119040, Note_on_c, 1, 76, 90
3, 119099, Note_on_c, 1, 76, 0
3, 119100, Note_on_c, 1, 77, 90
3, 119159, Note_on_c, 1, 77, 0
3, 119160, Note_on_c, 1, 72, 90
3, 119219, Note_on_c, 1, 72, 0
3, 119220, Note_on_c, 1, 77, 90
3, 119279, Note_on_c, 1, 77, 0
3, 119280, Note_on_c, 1, 72, 90
3, 119339, Note_on_c, 1, 72, 0
3, 119340, Note_on_c, 1, 79, 90
3, 119399, Note_on_c, 1, 79, 0
3, 119400, Note_on_c, 1, 72, 90
3, 119459, Note_on_c, 1, 72, 0
3, 119460, Note_on_c, 1, 79, 90
3, 119519, Note_on_c, 1, 79, 0
3, 119520, Note_on_c, 1, 72, 90
3, 119579, Note_on_c, 1, 72, 0
3, 119580, Note_on_c, 1, 77, 90
3, 119639, Note_on_c, 1, 77, 0
3, 119640, Note_on_c, 1, 72, 90
3, 119699, Note_on_c, 1, 72, 0
3, 119700, Note_on_c, 1, 77, 90
3, 119759, Note_on_c, 1, 77, 0
3, 119760, Note_on_c, 1, 72, 90
3, 119819, Note_on_c, 1, 72, 0
3, 119820, Note_on_c, 1, 79, 90
3, 119879, Note_on_c, 1, 79, 0
3, 119880, Note_on_c, 1, 72, 90
3, 119939, Note_on_c, 1, 72, 0
3, 119940, Note_on_c, 1, 79, 90
3, 119999, Note_on_c, 1, 79, 0
3, 120000, Note_on_c, 1, 72, 90
3, 120059, Note_on_c, 1, 72, 0
3, 120060, Note_on_c, 1, 77, 90
3, 120119, Note_on_c, 1, 77, 0
3, 120120, Note_on_c, 1, 72, 90
3, 120179, Note_on_c, 1, 72, 0
3, 120180, Note_on_c, 1, 77, 90
3, 120239, Note_on_c, 1, 77, 0
3, 120240, Note_on_c, 1, 72, 90
3, 120299, Note_on_c, 1, 72, 0
3, 120300, Note_on_c, 1, 77, 90
3, 120359, Note_on_c, 1, 77, 0
3, 120360, Note_on_c, 1, 70, 90
3, 120419, Note_on_c, 1, 70, 0
3, 120420, Note_on_c, 1, 77, 90
3, 120479, Note_on_c, 1, 77, 0
3, 120480, Note_on_c, 1, 70, 90
3, 120539, Note_on_c, 1, 70, 0
3, 120540, Note_on_c, 1, 75, 90
3, 120599, Note_on_c, 1, 75, 0
3, 120600, Note_on_c, 1, 70, 90
3, 120659, Note_on_c, 1, 70, 0
3, 120660, Note_on_c, 1, 75, 90
3, 120719, Note_on_c, 1, 75, 0
3, 120720, Note_on_c, 1, 70, 90
3, 120779, Note_on_c, 1, 70, 0
3, 120780, Note_on_c, 1, 77, 90
3, 120839, Note_on_c, 1, 77, 0
3, 120840, Note_on_c, 1, 70, 90
3, 120899, Note_on_c, 1, 70, 0
3, 120900, Note_on_c, 1, 77, 90
3, 120959, Note_on_c, 1, 77, 0
3, 120960, Note_on_c, 1, 70, 90
3, 121019, Note_on_c, 1, 70, 0
3, 121020, Note_on_c, 1, 75, 90
3, 121079, Note_on_c, 1, 75, 0
3, 121080, Note_on_c, 1, 70, 90
3, 121139, Note_on_c, 1, 70, 0
3, 121140, Note_on_c, 1, 75, 90
3, 121199, Note_on_c, 1, 75, 0
3, 121200, Note_on_c, 1, 70, 90
3, 121259, Note_on_c, 1, 70, 0
3, 121260, Note_on_c, 1, 71, 90
3, 121319, Note_on_c, 1, 71, 0
3, 121320, Note_on_c, 1, 72, 90
3, 121439, Note_on_c, 1, 72, 0
3, 121440, Note_on_c, 1, 74, 90
3, 121499, Note_on_c, 1, 74, 0
3, 121500, Note_on_c, 1, 74, 90
3, 121619, Note_on_c, 1, 74, 0
3, 121650, Note_on_c, 1, 72, 90
3, 121679, Note_on_c, 1, 72, 0
3, 121680, Note_on_c, 1, 74, 90
3, 121709, Note_on_c, 1, 74, 0
3, 121710, Note_on_c, 1, 71, 90
3, 121739, Note_on_c, 1, 71, 0
3, 121740, Note_on_c, 1, 72, 90
3, 121799, Note_on_c, 1, 72, 0
3, 121860, Note_on_c, 1, 72, 90
3, 121919, Note_on_c, 1, 72, 0
3, 121980, Note_on_c, 1, 72, 90
3, 122159, Note_on_c, 1, 72, 0
3, 122160, Note_on_c, 1, 62, 90
3, 122219, Note_on_c, 1, 62, 0
3, 122220, Note_on_c, 1, 67, 90
3, 122279, Note_on_c, 1, 67, 0
3, 122280, Note_on_c, 1, 71, 90
3, 122339, Note_on_c, 1, 71, 0
3, 122340, Note_on_c, 1, 74, 90
3, 122519, Note_on_c, 1, 74, 0
3, 122520, Note_on_c, 1, 72, 90
3, 122549, Note_on_c, 1, 72, 0
3, 122550, Note_on_c, 1, 71, 90
3, 122579, Note_on_c, 1, 71, 0
3, 122580, Note_on_c, 1, 72, 90
3, 122639, Note_on_c, 1, 72, 0
3, 122640, Note_on_c, 1, 60, 90
3, 122669, Note_on_c, 1, 60, 0
3, 122670, Note_on_c, 1, 62, 90
3, 122699, Note_on_c, 1, 62, 0
3, 122700, Note_on_c, 1, 63, 90
3, 122759, Note_on_c, 1, 63, 0
3, 122760, Note_on_c, 1, 68, 90
3, 122819, Note_on_c, 1, 68, 0
3, 122820, Note_on_c, 1, 67, 90
3, 122879, Note_on_c, 1, 67, 0
3, 122880, Note_on_c, 1, 67, 90
3, 122939, Note_on_c, 1, 67, 0
3, 122940, Note_on_c, 1, 67, 90
3, 123059, Note_on_c, 1, 67, 0
3, 123059, End_track
4, 0, Start_track
4, 0, MIDI_port, 0
4, 0, Title_t, "viola"
4, 0, Program_c, 2, 48
4, 0, Note_on_c, 2, 67, 127
4, 120, Note_on_c, 2, 67, 0
4, 240, Note_on_c, 2, 60, 127
4, 360, Note_on_c, 2, 60, 0
4, 480, Note_on_c, 2, 55, 127
4, 540, Note_on_c, 2, 55, 0
4, 540, Note_on_c, 2, 60, 127
4, 600, Note_on_c, 2, 60, 0
4, 600, Note_on_c, 2, 60, 127
4, 660, Note_on_c, 2, 60, 0
4, 660, Note_on_c, 2, 68, 127
4, 720, Note_on_c, 2, 68, 0
4, 720, Note_on_c, 2, 68, 127
4, 780, Note_on_c, 2, 68, 0
4, 780, Note_on_c, 2, 58, 127
4, 840, Note_on_c, 2, 58, 0
4, 960, Note_on_c, 2, 62, 127
4, 1080, Note_on_c, 2, 62, 0
4, 1200, Note_on_c, 2, 58, 127
4, 1320, Note_on_c, 2, 58, 0
4, 1440, Note_on_c, 2, 53, 127
4, 1500, Note_on_c, 2, 53, 0
4, 1500, Note_on_c, 2, 58, 127
4, 1560, Note_on_c, 2, 58, 0
4, 1560, Note_on_c, 2, 58, 127
4, 1620, Note_on_c, 2, 58, 0
4, 1620, Note_on_c, 2, 63, 127
4, 1680, Note_on_c, 2, 63, 0
4, 1680, Note_on_c, 2, 63, 127
4, 1740, Note_on_c, 2, 63, 0
4, 1740, Note_on_c, 2, 56, 127
4, 1800, Note_on_c, 2, 56, 0
4, 1920, Note_on_c, 2, 65, 127
4, 2040, Note_on_c, 2, 65, 0
4, 2160, Note_on_c, 2, 60, 127
4, 2190, Note_on_c, 2, 60, 0
4, 2190, Note_on_c, 2, 58, 127
4, 2220, Note_on_c, 2, 58, 0
4, 2220, Note_on_c, 2, 56, 127
4, 2250, Note_on_c, 2, 56, 0
4, 2250, Note_on_c, 2, 55, 127
4, 2280, Note_on_c, 2, 55, 0
4, 2280, Note_on_c, 2, 53, 127
4, 2340, Note_on_c, 2, 53, 0
4, 2400, Note_on_c, 2, 61, 127
4, 2520, Note_on_c, 2, 61, 0
4, 2640, Note_on_c, 2, 56, 127
4, 2670, Note_on_c, 2, 56, 0
4, 2670, Note_on_c, 2, 55, 127
4, 2700, Note_on_c, 2, 55, 0
4, 2700, Note_on_c, 2, 53, 127
4, 2730, Note_on_c, 2, 53, 0
4, 2730, Note_on_c, 2, 51, 127
4, 2760, Note_on_c, 2, 51, 0
4, 2760, Note_on_c, 2, 49, 127
4, 2820, Note_on_c, 2, 49, 0
4, 3420, Note_on_c, 2, 65, 127
4, 3450, Note_on_c, 2, 65, 0
4, 3450, Note_on_c, 2, 63, 127
4, 3480, Note_on_c, 2, 63, 0
4, 3480, Note_on_c, 2, 62, 127
4, 3510, Note_on_c, 2, 62, 0
4, 3510, Note_on_c, 2, 60, 127
4, 3540, Note_on_c, 2, 60, 0
4, 3540, Note_on_c, 2, 59, 127
4, 3570, Note_on_c, 2, 59, 0
4, 3570, Note_on_c, 2, 60, 127
4, 3600, Note_on_c, 2, 60, 0
4, 3600, Note_on_c, 2, 62, 127
4, 3660, Note_on_c, 2, 62, 0
4, 3660, Note_on_c, 2, 60, 127
4, 3720, Note_on_c, 2, 60, 0
4, 3720, Note_on_c, 2, 63, 127
4, 3780, Note_on_c, 2, 63, 0
4, 3780, Note_on_c, 2, 68, 127
4, 3840, Note_on_c, 2, 68, 0
4, 3840, Note_on_c, 2, 67, 127
4, 3900, Note_on_c, 2, 67, 0
4, 3900, Note_on_c, 2, 68, 127
4, 3960, Note_on_c, 2, 68, 0
4, 3960, Note_on_c, 2, 67, 127
4, 4020, Note_on_c, 2, 67, 0
4, 4020, Note_on_c, 2, 65, 127
4, 4080, Note_on_c, 2, 65, 0
4, 4080, Note_on_c, 2, 63, 127
4, 4200, Note_on_c, 2, 63, 0
4, 4620, Note_on_c, 2, 63, 127
4, 4650, Note_on_c, 2, 63, 0
4, 4680, Note_on_c, 2, 67, 127
4, 4710, Note_on_c, 2, 67, 0
4, 4920, Note_on_c, 2, 67, 127
4, 5040, Note_on_c, 2, 67, 0
4, 5160, Note_on_c, 2, 67, 127
4, 5280, Note_on_c, 2, 67, 0
4, 5400, Note_on_c, 2, 67, 127
4, 5490, Note_on_c, 2, 67, 0
4, 5580, Note_on_c, 2, 62, 127
4, 5610, Note_on_c, 2, 62, 0
4, 5640, Note_on_c, 2, 63, 127
4, 5670, Note_on_c, 2, 63, 0
4, 5700, Note_on_c, 2, 67, 127
4, 5730, Note_on_c, 2, 67, 0
4, 5760, Note_on_c, 2, 63, 127
4, 5880, Note_on_c, 2, 63, 0
4, 6000, Note_on_c, 2, 60, 127
4, 6120, Note_on_c, 2, 60, 0
4, 6240, Note_on_c, 2, 55, 127
4, 6300, Note_on_c, 2, 55, 0
4, 6300, Note_on_c, 2, 60, 127
4, 6360, Note_on_c, 2, 60, 0
4, 6360, Note_on_c, 2, 60, 127
4, 6420, Note_on_c, 2, 60, 0
4, 6420, Note_on_c, 2, 68, 127
4, 6480, Note_on_c, 2, 68, 0
4, 6480, Note_on_c, 2, 68, 127
4, 6540, Note_on_c, 2, 68, 0
4, 6540, Note_on_c, 2, 58, 127
4, 6600, Note_on_c, 2, 58, 0
4, 7200, Note_on_c, 2, 62, 127
4, 7320, Note_on_c, 2, 62, 0
4, 7440, Note_on_c, 2, 58, 127
4, 7560, Note_on_c, 2, 58, 0
4, 7680, Note_on_c, 2, 53, 127
4, 7740, Note_on_c, 2, 53, 0
4, 7740, Note_on_c, 2, 58, 127
4, 7800, Note_on_c, 2, 58, 0
4, 7800, Note_on_c, 2, 58, 127
4, 7860, Note_on_c, 2, 58, 0
4, 7860, Note_on_c, 2, 63, 127
4, 7920, Note_on_c, 2, 63, 0
4, 7920, Note_on_c, 2, 63, 127
4, 7980, Note_on_c, 2, 63, 0
4, 7980, Note_on_c, 2, 56, 127
4, 8040, Note_on_c, 2, 56, 0
4, 8880, Note_on_c, 2, 62, 127
4, 8940, Note_on_c, 2, 62, 0
4, 8940, Note_on_c, 2, 65, 127
4, 8970, Note_on_c, 2, 65, 0
4, 8970, Note_on_c, 2, 63, 127
4, 9000, Note_on_c, 2, 63, 0
4, 9000, Note_on_c, 2, 62, 127
4, 9030, Note_on_c, 2, 62, 0
4, 9030, Note_on_c, 2, 60, 127
4, 9060, Note_on_c, 2, 60, 0
4, 9060, Note_on_c, 2, 58, 127
4, 9090, Note_on_c, 2, 58, 0
4, 9090, Note_on_c, 2, 56, 127
4, 9120, Note_on_c, 2, 56, 0
4, 9120, Note_on_c, 2, 55, 127
4, 9150, Note_on_c, 2, 55, 0
4, 9180, Note_on_c, 2, 62, 127
4, 9210, Note_on_c, 2, 62, 0
4, 9360, Note_on_c, 2, 60, 127
4, 9420, Note_on_c, 2, 60, 0
4, 9420, Note_on_c, 2, 63, 127
4, 9450, Note_on_c, 2, 63, 0
4, 9450, Note_on_c, 2, 62, 127
4, 9480, Note_on_c, 2, 62, 0
4, 9480, Note_on_c, 2, 60, 127
4, 9510, Note_on_c, 2, 60, 0
4, 9510, Note_on_c, 2, 58, 127
4, 9540, Note_on_c, 2, 58, 0
4, 9540, Note_on_c, 2, 56, 127
4, 9570, Note_on_c, 2, 56, 0
4, 9570, Note_on_c, 2, 55, 127
4, 9600, Note_on_c, 2, 55, 0
4, 9600, Note_on_c, 2, 56, 127
4, 9660, Note_on_c, 2, 56, 0
4, 10560, Note_on_c, 2, 63, 127
4, 10620, Note_on_c, 2, 63, 0
4, 10620, Note_on_c, 2, 67, 127
4, 10680, Note_on_c, 2, 67, 0
4, 10680, Note_on_c, 2, 70, 127
4, 10740, Note_on_c, 2, 70, 0
4, 10740, Note_on_c, 2, 68, 127
4, 10800, Note_on_c, 2, 68, 0
4, 10800, Note_on_c, 2, 67, 127
4, 10860, Note_on_c, 2, 67, 0
4, 10860, Note_on_c, 2, 70, 127
4, 10920, Note_on_c, 2, 70, 0
4, 10920, Note_on_c, 2, 75, 127
4, 10950, Note_on_c, 2, 75, 0
4, 10950, Note_on_c, 2, 74, 127
4, 10980, Note_on_c, 2, 74, 0
4, 10980, Note_on_c, 2, 75, 127
4, 11010, Note_on_c, 2, 75, 0
4, 11010, Note_on_c, 2, 74, 127
4, 11040, Note_on_c, 2, 74, 0
4, 11040, Note_on_c, 2, 70, 127
4, 11100, Note_on_c, 2, 70, 0
4, 11340, Note_on_c, 2, 65, 127
4, 11400, Note_on_c, 2, 65, 0
4, 11400, Note_on_c, 2, 65, 127
4, 11460, Note_on_c, 2, 65, 0
4, 11460, Note_on_c, 2, 68, 127
4, 11520, Note_on_c, 2, 68, 0
4, 11520, Note_on_c, 2, 68, 127
4, 11580, Note_on_c, 2, 68, 0
4, 11820, Note_on_c, 2, 63, 127
4, 11850, Note_on_c, 2, 63, 0
4, 11880, Note_on_c, 2, 63, 127
4, 11910, Note_on_c, 2, 63, 0
4, 11940, Note_on_c, 2, 67, 127
4, 11970, Note_on_c, 2, 67, 0
4, 12000, Note_on_c, 2, 67, 127
4, 12030, Note_on_c, 2, 67, 0
4, 12300, Note_on_c, 2, 58, 127
4, 12330, Note_on_c, 2, 58, 0
4, 12330, Note_on_c, 2, 60, 127
4, 12360, Note_on_c, 2, 60, 0
4, 12360, Note_on_c, 2, 62, 127
4, 12390, Note_on_c, 2, 62, 0
4, 12390, Note_on_c, 2, 63, 127
4, 12420, Note_on_c, 2, 63, 0
4, 12420, Note_on_c, 2, 65, 127
4, 12540, Note_on_c, 2, 65, 0
4, 12540, Note_on_c, 2, 63, 127
4, 12570, Note_on_c, 2, 63, 0
4, 12720, Note_on_c, 2, 65, 127
4, 12750, Note_on_c, 2, 65, 0
4, 12780, Note_on_c, 2, 60, 127
4, 12810, Note_on_c, 2, 60, 0
4, 12960, Note_on_c, 2, 67, 127
4, 12990, Note_on_c, 2, 67, 0
4, 13020, Note_on_c, 2, 58, 127
4, 13050, Note_on_c, 2, 58, 0
4, 13200, Note_on_c, 2, 68, 127
4, 13230, Note_on_c, 2, 68, 0
4, 13260, Note_on_c, 2, 56, 127
4, 13290, Note_on_c, 2, 56, 0
4, 13440, Note_on_c, 2, 63, 127
4, 13470, Note_on_c, 2, 63, 0
4, 13470, Note_on_c, 2, 62, 127
4, 13500, Note_on_c, 2, 62, 0
4, 13500, Note_on_c, 2, 60, 127
4, 13530, Note_on_c, 2, 60, 0
4, 13530, Note_on_c, 2, 58, 127
4, 13560, Note_on_c, 2, 58, 0
4, 13560, Note_on_c, 2, 56, 127
4, 13620, Note_on_c, 2, 56, 0
4, 13680, Note_on_c, 2, 58, 127
4, 13710, Note_on_c, 2, 58, 0
4, 13740, Note_on_c, 2, 65, 127
4, 13770, Note_on_c, 2, 65, 0
4, 13920, Note_on_c, 2, 65, 127
4, 13950, Note_on_c, 2, 65, 0
4, 13950, Note_on_c, 2, 63, 127
4, 13980, Note_on_c, 2, 63, 0
4, 13980, Note_on_c, 2, 62, 127
4, 14010, Note_on_c, 2, 62, 0
4, 14010, Note_on_c, 2, 60, 127
4, 14040, Note_on_c, 2, 60, 0
4, 14040, Note_on_c, 2, 58, 127
4, 14100, Note_on_c, 2, 58, 0
4, 15360, Note_on_c, 2, 51, 127
4, 15420, Note_on_c, 2, 51, 0
4, 15420, Note_on_c, 2, 55, 127
4, 15480, Note_on_c, 2, 55, 0
4, 15480, Note_on_c, 2, 58, 127
4, 15540, Note_on_c, 2, 58, 0
4, 15540, Note_on_c, 2, 56, 127
4, 15600, Note_on_c, 2, 56, 0
4, 15600, Note_on_c, 2, 55, 127
4, 15660, Note_on_c, 2, 55, 0
4, 15660, Note_on_c, 2, 58, 127
4, 15720, Note_on_c, 2, 58, 0
4, 15720, Note_on_c, 2, 63, 127
4, 15750, Note_on_c, 2, 63, 0
4, 15750, Note_on_c, 2, 62, 127
4, 15780, Note_on_c, 2, 62, 0
4, 15780, Note_on_c, 2, 63, 127
4, 15810, Note_on_c, 2, 63, 0
4, 15810, Note_on_c, 2, 62, 127
4, 15840, Note_on_c, 2, 62, 0
4, 15840, Note_on_c, 2, 63, 127
4, 15900, Note_on_c, 2, 63, 0
4, 15900, Note_on_c, 2, 60, 127
4, 15960, Note_on_c, 2, 60, 0
4, 15960, Note_on_c, 2, 51, 127
4, 16020, Note_on_c, 2, 51, 0
4, 16020, Note_on_c, 2, 56, 127
4, 16080, Note_on_c, 2, 56, 0
4, 16080, Note_on_c, 2, 56, 127
4, 16140, Note_on_c, 2, 56, 0
4, 16140, Note_on_c, 2, 58, 127
4, 16200, Note_on_c, 2, 58, 0
4, 16320, Note_on_c, 2, 65, 127
4, 16380, Note_on_c, 2, 65, 0
4, 16380, Note_on_c, 2, 53, 127
4, 16440, Note_on_c, 2, 53, 0
4, 16440, Note_on_c, 2, 56, 127
4, 16500, Note_on_c, 2, 56, 0
4, 16500, Note_on_c, 2, 55, 127
4, 16560, Note_on_c, 2, 55, 0
4, 16560, Note_on_c, 2, 65, 127
4, 16620, Note_on_c, 2, 65, 0
4, 16620, Note_on_c, 2, 53, 127
4, 16650, Note_on_c, 2, 53, 0
4, 16650, Note_on_c, 2, 55, 127
4, 16680, Note_on_c, 2, 55, 0
4, 16680, Note_on_c, 2, 56, 127
4, 16710, Note_on_c, 2, 56, 0
4, 16710, Note_on_c, 2, 55, 127
4, 16740, Note_on_c, 2, 55, 0
4, 16740, Note_on_c, 2, 56, 127
4, 16770, Note_on_c, 2, 56, 0
4, 16770, Note_on_c, 2, 55, 127
4, 16800, Note_on_c, 2, 55, 0
4, 16800, Note_on_c, 2, 53, 127
4, 16860, Note_on_c, 2, 53, 0
4, 16860, Note_on_c, 2, 63, 127
4, 16920, Note_on_c, 2, 63, 0
4, 16920, Note_on_c, 2, 63, 127
4, 16980, Note_on_c, 2, 63, 0
4, 16980, Note_on_c, 2, 62, 127
4, 17040, Note_on_c, 2, 62, 0
4, 17040, Note_on_c, 2, 63, 127
4, 17100, Note_on_c, 2, 63, 0
4, 17100, Note_on_c, 2, 55, 127
4, 17160, Note_on_c, 2, 55, 0
4, 17400, Note_on_c, 2, 60, 127
4, 17520, Note_on_c, 2, 60, 0
4, 17640, Note_on_c, 2, 58, 127
4, 17760, Note_on_c, 2, 58, 0
4, 17820, Note_on_c, 2, 63, 127
4, 17850, Note_on_c, 2, 63, 0
4, 17880, Note_on_c, 2, 60, 127
4, 17910, Note_on_c, 2, 60, 0
4, 17940, Note_on_c, 2, 65, 127
4, 17970, Note_on_c, 2, 65, 0
4, 18000, Note_on_c, 2, 65, 127
4, 18120, Note_on_c, 2, 65, 0
4, 18120, Note_on_c, 2, 58, 127
4, 18240, Note_on_c, 2, 58, 0
4, 18360, Note_on_c, 2, 57, 127
4, 18480, Note_on_c, 2, 57, 0
4, 18600, Note_on_c, 2, 55, 127
4, 18720, Note_on_c, 2, 55, 0
4, 18780, Note_on_c, 2, 57, 127
4, 18810, Note_on_c, 2, 57, 0
4, 18840, Note_on_c, 2, 57, 127
4, 18870, Note_on_c, 2, 57, 0
4, 18900, Note_on_c, 2, 62, 127
4, 18930, Note_on_c, 2, 62, 0
4, 18960, Note_on_c, 2, 62, 127
4, 19080, Note_on_c, 2, 62, 0
4, 20160, Note_on_c, 2, 62, 127
4, 20700, Note_on_c, 2, 62, 0
4, 20700, Note_on_c, 2, 58, 127
4, 20760, Note_on_c, 2, 58, 0
4, 20760, Note_on_c, 2, 55, 127
4, 20820, Note_on_c, 2, 55, 0
4, 20820, Note_on_c, 2, 67, 127
4, 20880, Note_on_c, 2, 67, 0
4, 20880, Note_on_c, 2, 69, 127
4, 20940, Note_on_c, 2, 69, 0
4, 20940, Note_on_c, 2, 72, 127
4, 21000, Note_on_c, 2, 72, 0
4, 21000, Note_on_c, 2, 69, 127
4, 21060, Note_on_c, 2, 69, 0
4, 21060, Note_on_c, 2, 65, 127
4, 21120, Note_on_c, 2, 65, 0
4, 21120, Note_on_c, 2, 60, 127
4, 21660, Note_on_c, 2, 60, 0
4, 21660, Note_on_c, 2, 57, 127
4, 21720, Note_on_c, 2, 57, 0
4, 21720, Note_on_c, 2, 53, 127
4, 21780, Note_on_c, 2, 53, 0
4, 21780, Note_on_c, 2, 65, 127
4, 21840, Note_on_c, 2, 65, 0
4, 21840, Note_on_c, 2, 67, 127
4, 21900, Note_on_c, 2, 67, 0
4, 21900, Note_on_c, 2, 70, 127
4, 21960, Note_on_c, 2, 70, 0
4, 21960, Note_on_c, 2, 67, 127
4, 22020, Note_on_c, 2, 67, 0
4, 22020, Note_on_c, 2, 63, 127
4, 22080, Note_on_c, 2, 63, 0
4, 22320, Note_on_c, 2, 67, 127
4, 22350, Note_on_c, 2, 67, 0
4, 22350, Note_on_c, 2, 65, 127
4, 22380, Note_on_c, 2, 65, 0
4, 22380, Note_on_c, 2, 63, 127
4, 22410, Note_on_c, 2, 63, 0
4, 22410, Note_on_c, 2, 62, 127
4, 22440, Note_on_c, 2, 62, 0
4, 22440, Note_on_c, 2, 60, 127
4, 22500, Note_on_c, 2, 60, 0
4, 22800, Note_on_c, 2, 63, 127
4, 22830, Note_on_c, 2, 63, 0
4, 22830, Note_on_c, 2, 61, 127
4, 22860, Note_on_c, 2, 61, 0
4, 22860, Note_on_c, 2, 60, 127
4, 22890, Note_on_c, 2, 60, 0
4, 22890, Note_on_c, 2, 58, 127
4, 22920, Note_on_c, 2, 58, 0
4, 22920, Note_on_c, 2, 56, 127
4, 22980, Note_on_c, 2, 56, 0
4, 23280, Note_on_c, 2, 69, 127
4, 23310, Note_on_c, 2, 69, 0
4, 23310, Note_on_c, 2, 67, 127
4, 23340, Note_on_c, 2, 67, 0
4, 23340, Note_on_c, 2, 66, 127
4, 23370, Note_on_c, 2, 66, 0
4, 23370, Note_on_c, 2, 64, 127
4, 23400, Note_on_c, 2, 64, 0
4, 23400, Note_on_c, 2, 62, 127
4, 23460, Note_on_c, 2, 62, 0
4, 23460, Note_on_c, 2, 63, 127
4, 23520, Note_on_c, 2, 63, 0
4, 23520, Note_on_c, 2, 58, 127
4, 23580, Note_on_c, 2, 58, 0
4, 23580, Note_on_c, 2, 55, 127
4, 23640, Note_on_c, 2, 55, 0
4, 23640, Note_on_c, 2, 62, 127
4, 23700, Note_on_c, 2, 62, 0
4, 23700, Note_on_c, 2, 62, 127
4, 23760, Note_on_c, 2, 62, 0
4, 23760, Note_on_c, 2, 62, 127
4, 23880, Note_on_c, 2, 62, 0
4, 24000, Note_on_c, 2, 55, 127
4, 24030, Note_on_c, 2, 55, 0
4, 24030, Note_on_c, 2, 57, 127
4, 24060, Note_on_c, 2, 57, 0
4, 24060, Note_on_c, 2, 59, 127
4, 24090, Note_on_c, 2, 59, 0
4, 24090, Note_on_c, 2, 60, 127
4, 24120, Note_on_c, 2, 60, 0
4, 24120, Note_on_c, 2, 62, 127
4, 24180, Note_on_c, 2, 62, 0
4, 24240, Note_on_c, 2, 57, 127
4, 24270, Note_on_c, 2, 57, 0
4, 24270, Note_on_c, 2, 59, 127
4, 24300, Note_on_c, 2, 59, 0
4, 24300, Note_on_c, 2, 60, 127
4, 24330, Note_on_c, 2, 60, 0
4, 24330, Note_on_c, 2, 62, 127
4, 24360, Note_on_c, 2, 62, 0
4, 24360, Note_on_c, 2, 63, 127
4, 24420, Note_on_c, 2, 63, 0
4, 24780, Note_on_c, 2, 65, 127
4, 24810, Note_on_c, 2, 65, 0
4, 24840, Note_on_c, 2, 62, 127
4, 24870, Note_on_c, 2, 62, 0
4, 24900, Note_on_c, 2, 55, 127
4, 24930, Note_on_c, 2, 55, 0
4, 24960, Note_on_c, 2, 60, 127
4, 25080, Note_on_c, 2, 60, 0
4, 25200, Note_on_c, 2, 60, 127
4, 25260, Note_on_c, 2, 60, 0
4, 25260, Note_on_c, 2, 63, 127
4, 25290, Note_on_c, 2, 63, 0
4, 25290, Note_on_c, 2, 65, 127
4, 25320, Note_on_c, 2, 65, 0
4, 25320, Note_on_c, 2, 67, 127
4, 25350, Note_on_c, 2, 67, 0
4, 25350, Note_on_c, 2, 65, 127
4, 25380, Note_on_c, 2, 65, 0
4, 25380, Note_on_c, 2, 67, 127
4, 25410, Note_on_c, 2, 67, 0
4, 25410, Note_on_c, 2, 65, 127
4, 25440, Note_on_c, 2, 65, 0
4, 25440, Note_on_c, 2, 63, 127
4, 25470, Note_on_c, 2, 63, 0
4, 25470, Note_on_c, 2, 65, 127
4, 25500, Note_on_c, 2, 65, 0
4, 25500, Note_on_c, 2, 63, 127
4, 25530, Note_on_c, 2, 63, 0
4, 25530, Note_on_c, 2, 62, 127
4, 25560, Note_on_c, 2, 62, 0
4, 25560, Note_on_c, 2, 60, 127
4, 25620, Note_on_c, 2, 60, 0
4, 25620, Note_on_c, 2, 55, 127
4, 25680, Note_on_c, 2, 55, 0
4, 25680, Note_on_c, 2, 62, 127
4, 25800, Note_on_c, 2, 62, 0
4, 25920, Note_on_c, 2, 50, 127
4, 25950, Note_on_c, 2, 50, 0
4, 25950, Note_on_c, 2, 52, 127
4, 25980, Note_on_c, 2, 52, 0
4, 25980, Note_on_c, 2, 54, 127
4, 26010, Note_on_c, 2, 54, 0
4, 26010, Note_on_c, 2, 55, 127
4, 26040, Note_on_c, 2, 55, 0
4, 26040, Note_on_c, 2, 57, 127
4, 26100, Note_on_c, 2, 57, 0
4, 26160, Note_on_c, 2, 50, 127
4, 26190, Note_on_c, 2, 50, 0
4, 26190, Note_on_c, 2, 52, 127
4, 26220, Note_on_c, 2, 52, 0
4, 26220, Note_on_c, 2, 54, 127
4, 26250, Note_on_c, 2, 54, 0
4, 26250, Note_on_c, 2, 55, 127
4, 26280, Note_on_c, 2, 55, 0
4, 26280, Note_on_c, 2, 57, 127
4, 26340, Note_on_c, 2, 57, 0
4, 26700, Note_on_c, 2, 60, 127
4, 26730, Note_on_c, 2, 60, 0
4, 26760, Note_on_c, 2, 57, 127
4, 26790, Note_on_c, 2, 57, 0
4, 26820, Note_on_c, 2, 50, 127
4, 26850, Note_on_c, 2, 50, 0
4, 26880, Note_on_c, 2, 55, 127
4, 26910, Note_on_c, 2, 55, 0
4, 27060, Note_on_c, 2, 67, 127
4, 27090, Note_on_c, 2, 67, 0
4, 27090, Note_on_c, 2, 66, 127
4, 27120, Note_on_c, 2, 66, 0
4, 27120, Note_on_c, 2, 67, 127
4, 27180, Note_on_c, 2, 67, 0
4, 27180, Note_on_c, 2, 62, 127
4, 27270, Note_on_c, 2, 62, 0
4, 27270, Note_on_c, 2, 60, 127
4, 27300, Note_on_c, 2, 60, 0
4, 27300, Note_on_c, 2, 58, 127
4, 27330, Note_on_c, 2, 58, 0
4, 27330, Note_on_c, 2, 60, 127
4, 27360, Note_on_c, 2, 60, 0
4, 27360, Note_on_c, 2, 62, 127
4, 27420, Note_on_c, 2, 62, 0
4, 27540, Note_on_c, 2, 63, 127
4, 27570, Note_on_c, 2, 63, 0
4, 27570, Note_on_c, 2, 62, 127
4, 27600, Note_on_c, 2, 62, 0
4, 27600, Note_on_c, 2, 63, 127
4, 27660, Note_on_c, 2, 63, 0
4, 27660, Note_on_c, 2, 58, 127
4, 27750, Note_on_c, 2, 58, 0
4, 27750, Note_on_c, 2, 56, 127
4, 27780, Note_on_c, 2, 56, 0
4, 27780, Note_on_c, 2, 55, 127
4, 27810, Note_on_c, 2, 55, 0
4, 27810, Note_on_c, 2, 56, 127
4, 27840, Note_on_c, 2, 56, 0
4, 27840, Note_on_c, 2, 58, 127
4, 27900, Note_on_c, 2, 58, 0
4, 28020, Note_on_c, 2, 72, 127
4, 28050, Note_on_c, 2, 72, 0
4, 28050, Note_on_c, 2, 71, 127
4, 28080, Note_on_c, 2, 71, 0
4, 28080, Note_on_c, 2, 72, 127
4, 28140, Note_on_c, 2, 72, 0
4, 28140, Note_on_c, 2, 67, 127
4, 28230, Note_on_c, 2, 67, 0
4, 28230, Note_on_c, 2, 65, 127
4, 28260, Note_on_c, 2, 65, 0
4, 28260, Note_on_c, 2, 63, 127
4, 28290, Note_on_c, 2, 63, 0
4, 28290, Note_on_c, 2, 65, 127
4, 28320, Note_on_c, 2, 65, 0
4, 28320, Note_on_c, 2, 67, 127
4, 28350, Note_on_c, 2, 67, 0
4, 28350, Note_on_c, 2, 65, 127
4, 28380, Note_on_c, 2, 65, 0
4, 28380, Note_on_c, 2, 63, 127
4, 28410, Note_on_c, 2, 63, 0
4, 28410, Note_on_c, 2, 62, 127
4, 28440, Note_on_c, 2, 62, 0
4, 28440, Note_on_c, 2, 60, 127
4, 28470, Note_on_c, 2, 60, 0
4, 28470, Note_on_c, 2, 62, 127
4, 28500, Note_on_c, 2, 62, 0
4, 28500, Note_on_c, 2, 63, 127
4, 28620, Note_on_c, 2, 63, 0
4, 28620, Note_on_c, 2, 57, 127
4, 28680, Note_on_c, 2, 57, 0
4, 28680, Note_on_c, 2, 58, 127
4, 28740, Note_on_c, 2, 58, 0
4, 28740, Note_on_c, 2, 60, 127
4, 28800, Note_on_c, 2, 60, 0
4, 28800, Note_on_c, 2, 62, 127
4, 28860, Note_on_c, 2, 62, 0
4, 28860, Note_on_c, 2, 62, 127
4, 28920, Note_on_c, 2, 62, 0
4, 28920, Note_on_c, 2, 67, 127
4, 28980, Note_on_c, 2, 67, 0
4, 28980, Note_on_c, 2, 65, 127
4, 29040, Note_on_c, 2, 65, 0
4, 29040, Note_on_c, 2, 62, 127
4, 29100, Note_on_c, 2, 62, 0
4, 29100, Note_on_c, 2, 65, 127
4, 29160, Note_on_c, 2, 65, 0
4, 29160, Note_on_c, 2, 70, 127
4, 29190, Note_on_c, 2, 70, 0
4, 29190, Note_on_c, 2, 69, 127
4, 29220, Note_on_c, 2, 69, 0
4, 29220, Note_on_c, 2, 70, 127
4, 29250, Note_on_c, 2, 70, 0
4, 29250, Note_on_c, 2, 69, 127
4, 29280, Note_on_c, 2, 69, 0
4, 29280, Note_on_c, 2, 65, 127
4, 29340, Note_on_c, 2, 65, 0
4, 29580, Note_on_c, 2, 60, 127
4, 29610, Note_on_c, 2, 60, 0
4, 29640, Note_on_c, 2, 60, 127
4, 29670, Note_on_c, 2, 60, 0
4, 29700, Note_on_c, 2, 63, 127
4, 29730, Note_on_c, 2, 63, 0
4, 29760, Note_on_c, 2, 63, 127
4, 29790, Note_on_c, 2, 63, 0
4, 30060, Note_on_c, 2, 58, 127
4, 30090, Note_on_c, 2, 58, 0
4, 30120, Note_on_c, 2, 58, 127
4, 30150, Note_on_c, 2, 58, 0
4, 30180, Note_on_c, 2, 62, 127
4, 30210, Note_on_c, 2, 62, 0
4, 30240, Note_on_c, 2, 62, 127
4, 30270, Note_on_c, 2, 62, 0
4, 30540, Note_on_c, 2, 53, 127
4, 30570, Note_on_c, 2, 53, 0
4, 30570, Note_on_c, 2, 55, 127
4, 30600, Note_on_c, 2, 55, 0
4, 30600, Note_on_c, 2, 57, 127
4, 30630, Note_on_c, 2, 57, 0
4, 30630, Note_on_c, 2, 58, 127
4, 30660, Note_on_c, 2, 58, 0
4, 30660, Note_on_c, 2, 60, 127
4, 30780, Note_on_c, 2, 60, 0
4, 30780, Note_on_c, 2, 58, 127
4, 30840, Note_on_c, 2, 58, 0
4, 30960, Note_on_c, 2, 70, 127
4, 30990, Note_on_c, 2, 70, 0
4, 31020, Note_on_c, 2, 65, 127
4, 31050, Note_on_c, 2, 65, 0
4, 31200, Note_on_c, 2, 72, 127
4, 31230, Note_on_c, 2, 72, 0
4, 31260, Note_on_c, 2, 63, 127
4, 31290, Note_on_c, 2, 63, 0
4, 31440, Note_on_c, 2, 74, 127
4, 31470, Note_on_c, 2, 74, 0
4, 31500, Note_on_c, 2, 62, 127
4, 31530, Note_on_c, 2, 62, 0
4, 31680, Note_on_c, 2, 70, 127
4, 31710, Note_on_c, 2, 70, 0
4, 31710, Note_on_c, 2, 68, 127
4, 31740, Note_on_c, 2, 68, 0
4, 31740, Note_on_c, 2, 67, 127
4, 31770, Note_on_c, 2, 67, 0
4, 31770, Note_on_c, 2, 65, 127
4, 31800, Note_on_c, 2, 65, 0
4, 31800, Note_on_c, 2, 63, 127
4, 31860, Note_on_c, 2, 63, 0
4, 31920, Note_on_c, 2, 65, 127
4, 31950, Note_on_c, 2, 65, 0
4, 31980, Note_on_c, 2, 72, 127
4, 32010, Note_on_c, 2, 72, 0
4, 32160, Note_on_c, 2, 72, 127
4, 32190, Note_on_c, 2, 72, 0
4, 32190, Note_on_c, 2, 70, 127
4, 32220, Note_on_c, 2, 70, 0
4, 32220, Note_on_c, 2, 69, 127
4, 32250, Note_on_c, 2, 69, 0
4, 32250, Note_on_c, 2, 67, 127
4, 32280, Note_on_c, 2, 67, 0
4, 32280, Note_on_c, 2, 65, 127
4, 32340, Note_on_c, 2, 65, 0
4, 33600, Note_on_c, 2, 58, 127
4, 33660, Note_on_c, 2, 58, 0
4, 33660, Note_on_c, 2, 62, 127
4, 33720, Note_on_c, 2, 62, 0
4, 33720, Note_on_c, 2, 65, 127
4, 33780, Note_on_c, 2, 65, 0
4, 33780, Note_on_c, 2, 63, 127
4, 33840, Note_on_c, 2, 63, 0
4, 33840, Note_on_c, 2, 62, 127
4, 33900, Note_on_c, 2, 62, 0
4, 33900, Note_on_c, 2, 65, 127
4, 33960, Note_on_c, 2, 65, 0
4, 33960, Note_on_c, 2, 70, 127
4, 33990, Note_on_c, 2, 70, 0
4, 33990, Note_on_c, 2, 69, 127
4, 34020, Note_on_c, 2, 69, 0
4, 34020, Note_on_c, 2, 70, 127
4, 34050, Note_on_c, 2, 70, 0
4, 34050, Note_on_c, 2, 69, 127
4, 34080, Note_on_c, 2, 69, 0
4, 34080, Note_on_c, 2, 70, 127
4, 34140, Note_on_c, 2, 70, 0
4, 34140, Note_on_c, 2, 67, 127
4, 34200, Note_on_c, 2, 67, 0
4, 34200, Note_on_c, 2, 58, 127
4, 34260, Note_on_c, 2, 58, 0
4, 34260, Note_on_c, 2, 63, 127
4, 34320, Note_on_c, 2, 63, 0
4, 34320, Note_on_c, 2, 63, 127
4, 34380, Note_on_c, 2, 63, 0
4, 34380, Note_on_c, 2, 65, 127
4, 34440, Note_on_c, 2, 65, 0
4, 34560, Note_on_c, 2, 72, 127
4, 34620, Note_on_c, 2, 72, 0
4, 34620, Note_on_c, 2, 60, 127
4, 34680, Note_on_c, 2, 60, 0
4, 34680, Note_on_c, 2, 65, 127
4, 34740, Note_on_c, 2, 65, 0
4, 34740, Note_on_c, 2, 65, 127
4, 34800, Note_on_c, 2, 65, 0
4, 34800, Note_on_c, 2, 72, 127
4, 34860, Note_on_c, 2, 72, 0
4, 34860, Note_on_c, 2, 60, 127
4, 34890, Note_on_c, 2, 60, 0
4, 34890, Note_on_c, 2, 62, 127
4, 34920, Note_on_c, 2, 62, 0
4, 34920, Note_on_c, 2, 63, 127
4, 34950, Note_on_c, 2, 63, 0
4, 34950, Note_on_c, 2, 62, 127
4, 34980, Note_on_c, 2, 62, 0
4, 34980, Note_on_c, 2, 63, 127
4, 35010, Note_on_c, 2, 63, 0
4, 35010, Note_on_c, 2, 62, 127
4, 35040, Note_on_c, 2, 62, 0
4, 35040, Note_on_c, 2, 60, 127
4, 35100, Note_on_c, 2, 60, 0
4, 35100, Note_on_c, 2, 70, 127
4, 35160, Note_on_c, 2, 70, 0
4, 35160, Note_on_c, 2, 70, 127
4, 35220, Note_on_c, 2, 70, 0
4, 35220, Note_on_c, 2, 69, 127
4, 35280, Note_on_c, 2, 69, 0
4, 35280, Note_on_c, 2, 70, 127
4, 35340, Note_on_c, 2, 70, 0
4, 35340, Note_on_c, 2, 62, 127
4, 35400, Note_on_c, 2, 62, 0
4, 35640, Note_on_c, 2, 67, 127
4, 35760, Note_on_c, 2, 67, 0
4, 35880, Note_on_c, 2, 65, 127
4, 36000, Note_on_c, 2, 65, 0
4, 36120, Note_on_c, 2, 64, 127
4, 36240, Note_on_c, 2, 64, 0
4, 36360, Note_on_c, 2, 60, 127
4, 36480, Note_on_c, 2, 60, 0
4, 36600, Note_on_c, 2, 65, 127
4, 36720, Note_on_c, 2, 65, 0
4, 36840, Note_on_c, 2, 64, 127
4, 36960, Note_on_c, 2, 64, 0
4, 37020, Note_on_c, 2, 60, 127
4, 37080, Note_on_c, 2, 60, 0
4, 37080, Note_on_c, 2, 61, 127
4, 37140, Note_on_c, 2, 61, 0
4, 37140, Note_on_c, 2, 55, 127
4, 37200, Note_on_c, 2, 55, 0
4, 37200, Note_on_c, 2, 60, 127
4, 37320, Note_on_c, 2, 60, 0
4, 37560, Note_on_c, 2, 65, 127
4, 37680, Note_on_c, 2, 65, 0
4, 37800, Note_on_c, 2, 65, 127
4, 37920, Note_on_c, 2, 65, 0
4, 38040, Note_on_c, 2, 65, 127
4, 38160, Note_on_c, 2, 65, 0
4, 38220, Note_on_c, 2, 68, 127
4, 38250, Note_on_c, 2, 68, 0
4, 38280, Note_on_c, 2, 72, 127
4, 38310, Note_on_c, 2, 72, 0
4, 38520, Note_on_c, 2, 60, 127
4, 38640, Note_on_c, 2, 60, 0
4, 38760, Note_on_c, 2, 60, 127
4, 38880, Note_on_c, 2, 60, 0
4, 39000, Note_on_c, 2, 60, 127
4, 39120, Note_on_c, 2, 60, 0
4, 39180, Note_on_c, 2, 55, 127
4, 39210, Note_on_c, 2, 55, 0
4, 39240, Note_on_c, 2, 56, 127
4, 39270, Note_on_c, 2, 56, 0
4, 39300, Note_on_c, 2, 60, 127
4, 39330, Note_on_c, 2, 60, 0
4, 39360, Note_on_c, 2, 60, 127
4, 39480, Note_on_c, 2, 60, 0
4, 39480, Note_on_c, 2, 65, 127
4, 39600, Note_on_c, 2, 65, 0
4, 39720, Note_on_c, 2, 63, 127
4, 39840, Note_on_c, 2, 63, 0
4, 39900, Note_on_c, 2, 68, 127
4, 39930, Note_on_c, 2, 68, 0
4, 39960, Note_on_c, 2, 65, 127
4, 39990, Note_on_c, 2, 65, 0
4, 40020, Note_on_c, 2, 70, 127
4, 40050, Note_on_c, 2, 70, 0
4, 40080, Note_on_c, 2, 70, 127
4, 40200, Note_on_c, 2, 70, 0
4, 40200, Note_on_c, 2, 63, 127
4, 40320, Note_on_c, 2, 63, 0
4, 40440, Note_on_c, 2, 62, 127
4, 40560, Note_on_c, 2, 62, 0
4, 40680, Note_on_c, 2, 60, 127
4, 40800, Note_on_c, 2, 60, 0
4, 40860, Note_on_c, 2, 62, 127
4, 40890, Note_on_c, 2, 62, 0
4, 40920, Note_on_c, 2, 62, 127
4, 40950, Note_on_c, 2, 62, 0
4, 40980, Note_on_c, 2, 67, 127
4, 41010, Note_on_c, 2, 67, 0
4, 41040, Note_on_c, 2, 67, 127
4, 41160, Note_on_c, 2, 67, 0
4, 42360, Note_on_c, 2, 60, 127
4, 42390, Note_on_c, 2, 60, 0
4, 42420, Note_on_c, 2, 55, 127
4, 42450, Note_on_c, 2, 55, 0
4, 42600, Note_on_c, 2, 67, 127
4, 42630, Note_on_c, 2, 67, 0
4, 42660, Note_on_c, 2, 63, 127
4, 42690, Note_on_c, 2, 63, 0
4, 42780, Note_on_c, 2, 55, 127
4, 42810, Note_on_c, 2, 55, 0
4, 42840, Note_on_c, 2, 58, 127
4, 42870, Note_on_c, 2, 58, 0
4, 42900, Note_on_c, 2, 60, 127
4, 42930, Note_on_c, 2, 60, 0
4, 42960, Note_on_c, 2, 62, 127
4, 43020, Note_on_c, 2, 62, 0
4, 43020, Note_on_c, 2, 65, 127
4, 43080, Note_on_c, 2, 65, 0
4, 43080, Note_on_c, 2, 62, 127
4, 43140, Note_on_c, 2, 62, 0
4, 43140, Note_on_c, 2, 58, 127
4, 43200, Note_on_c, 2, 58, 0
4, 43320, Note_on_c, 2, 58, 127
4, 43350, Note_on_c, 2, 58, 0
4, 43380, Note_on_c, 2, 53, 127
4, 43410, Note_on_c, 2, 53, 0
4, 43560, Note_on_c, 2, 65, 127
4, 43590, Note_on_c, 2, 65, 0
4, 43620, Note_on_c, 2, 62, 127
4, 43650, Note_on_c, 2, 62, 0
4, 43740, Note_on_c, 2, 53, 127
4, 43770, Note_on_c, 2, 53, 0
4, 43800, Note_on_c, 2, 55, 127
4, 43830, Note_on_c, 2, 55, 0
4, 43860, Note_on_c, 2, 58, 127
4, 43890, Note_on_c, 2, 58, 0
4, 43920, Note_on_c, 2, 60, 127
4, 43980, Note_on_c, 2, 60, 0
4, 43980, Note_on_c, 2, 63, 127
4, 44040, Note_on_c, 2, 63, 0
4, 44040, Note_on_c, 2, 60, 127
4, 44100, Note_on_c, 2, 60, 0
4, 44100, Note_on_c, 2, 56, 127
4, 44160, Note_on_c, 2, 56, 0
4, 44400, Note_on_c, 2, 60, 127
4, 44430, Note_on_c, 2, 60, 0
4, 44430, Note_on_c, 2, 58, 127
4, 44460, Note_on_c, 2, 58, 0
4, 44460, Note_on_c, 2, 56, 127
4, 44490, Note_on_c, 2, 56, 0
4, 44490, Note_on_c, 2, 55, 127
4, 44520, Note_on_c, 2, 55, 0
4, 44520, Note_on_c, 2, 53, 127
4, 44580, Note_on_c, 2, 53, 0
4, 44880, Note_on_c, 2, 56, 127
4, 44910, Note_on_c, 2, 56, 0
4, 44910, Note_on_c, 2, 54, 127
4, 44940, Note_on_c, 2, 54, 0
4, 44940, Note_on_c, 2, 53, 127
4, 44970, Note_on_c, 2, 53, 0
4, 44970, Note_on_c, 2, 51, 127
4, 45000, Note_on_c, 2, 51, 0
4, 45000, Note_on_c, 2, 49, 127
4, 45060, Note_on_c, 2, 49, 0
4, 45360, Note_on_c, 2, 62, 127
4, 45390, Note_on_c, 2, 62, 0
4, 45390, Note_on_c, 2, 60, 127
4, 45420, Note_on_c, 2, 60, 0
4, 45420, Note_on_c, 2, 59, 127
4, 45450, Note_on_c, 2, 59, 0
4, 45450, Note_on_c, 2, 57, 127
4, 45480, Note_on_c, 2, 57, 0
4, 45480, Note_on_c, 2, 55, 127
4, 45540, Note_on_c, 2, 55, 0
4, 45540, Note_on_c, 2, 48, 127
4, 45600, Note_on_c, 2, 48, 0
4, 45600, Note_on_c, 2, 51, 127
4, 45660, Note_on_c, 2, 51, 0
4, 45660, Note_on_c, 2, 48, 127
4, 45720, Note_on_c, 2, 48, 0
4, 45720, Note_on_c, 2, 55, 127
4, 45780, Note_on_c, 2, 55, 0
4, 45780, Note_on_c, 2, 67, 127
4, 45840, Note_on_c, 2, 67, 0
4, 45840, Note_on_c, 2, 66, 127
4, 45960, Note_on_c, 2, 66, 0
4, 46080, Note_on_c, 2, 62, 127
4, 46110, Note_on_c, 2, 62, 0
4, 46110, Note_on_c, 2, 64, 127
4, 46140, Note_on_c, 2, 64, 0
4, 46140, Note_on_c, 2, 66, 127
4, 46170, Note_on_c, 2, 66, 0
4, 46170, Note_on_c, 2, 67, 127
4, 46200, Note_on_c, 2, 67, 0
4, 46200, Note_on_c, 2, 69, 127
4, 46260, Note_on_c, 2, 69, 0
4, 46320, Note_on_c, 2, 62, 127
4, 46350, Note_on_c, 2, 62, 0
4, 46350, Note_on_c, 2, 64, 127
4, 46380, Note_on_c, 2, 64, 0
4, 46380, Note_on_c, 2, 66, 127
4, 46410, Note_on_c, 2, 66, 0
4, 46410, Note_on_c, 2, 67, 127
4, 46440, Note_on_c, 2, 67, 0
4, 46440, Note_on_c, 2, 69, 127
4, 46500, Note_on_c, 2, 69, 0
4, 46860, Note_on_c, 2, 72, 127
4, 46890, Note_on_c, 2, 72, 0
4, 46920, Note_on_c, 2, 69, 127
4, 46950, Note_on_c, 2, 69, 0
4, 46980, Note_on_c, 2, 62, 127
4, 47010, Note_on_c, 2, 62, 0
4, 47040, Note_on_c, 2, 62, 127
4, 47100, Note_on_c, 2, 62, 0
4, 47100, Note_on_c, 2, 65, 127
4, 47160, Note_on_c, 2, 65, 0
4, 47160, Note_on_c, 2, 68, 127
4, 47220, Note_on_c, 2, 68, 0
4, 47220, Note_on_c, 2, 67, 127
4, 47280, Note_on_c, 2, 67, 0
4, 47280, Note_on_c, 2, 59, 127
4, 47340, Note_on_c, 2, 59, 0
4, 47340, Note_on_c, 2, 65, 127
4, 47370, Note_on_c, 2, 65, 0
4, 47370, Note_on_c, 2, 67, 127
4, 47400, Note_on_c, 2, 67, 0
4, 47400, Note_on_c, 2, 68, 127
4, 47430, Note_on_c, 2, 68, 0
4, 47430, Note_on_c, 2, 67, 127
4, 47460, Note_on_c, 2, 67, 0
4, 47460, Note_on_c, 2, 68, 127
4, 47490, Note_on_c, 2, 68, 0
4, 47490, Note_on_c, 2, 67, 127
4, 47520, Note_on_c, 2, 67, 0
4, 47520, Note_on_c, 2, 65, 127
4, 47550, Note_on_c, 2, 65, 0
4, 47550, Note_on_c, 2, 63, 127
4, 47580, Note_on_c, 2, 63, 0
4, 47580, Note_on_c, 2, 62, 127
4, 47610, Note_on_c, 2, 62, 0
4, 47610, Note_on_c, 2, 60, 127
4, 47640, Note_on_c, 2, 60, 0
4, 47640, Note_on_c, 2, 59, 127
4, 47700, Note_on_c, 2, 59, 0
4, 47700, Note_on_c, 2, 62, 127
4, 47760, Note_on_c, 2, 62, 0
4, 47760, Note_on_c, 2, 62, 127
4, 47880, Note_on_c, 2, 62, 0
4, 48000, Note_on_c, 2, 55, 127
4, 48030, Note_on_c, 2, 55, 0
4, 48030, Note_on_c, 2, 57, 127
4, 48060, Note_on_c, 2, 57, 0
4, 48060, Note_on_c, 2, 59, 127
4, 48090, Note_on_c, 2, 59, 0
4, 48090, Note_on_c, 2, 60, 127
4, 48120, Note_on_c, 2, 60, 0
4, 48120, Note_on_c, 2, 62, 127
4, 48180, Note_on_c, 2, 62, 0
4, 48240, Note_on_c, 2, 55, 127
4, 48270, Note_on_c, 2, 55, 0
4, 48270, Note_on_c, 2, 57, 127
4, 48300, Note_on_c, 2, 57, 0
4, 48300, Note_on_c, 2, 59, 127
4, 48330, Note_on_c, 2, 59, 0
4, 48330, Note_on_c, 2, 60, 127
4, 48360, Note_on_c, 2, 60, 0
4, 48360, Note_on_c, 2, 62, 127
4, 48420, Note_on_c, 2, 62, 0
4, 48780, Note_on_c, 2, 65, 127
4, 48810, Note_on_c, 2, 65, 0
4, 48840, Note_on_c, 2, 62, 127
4, 48870, Note_on_c, 2, 62, 0
4, 48900, Note_on_c, 2, 55, 127
4, 48930, Note_on_c, 2, 55, 0
4, 48960, Note_on_c, 2, 55, 127
4, 49020, Note_on_c, 2, 55, 0
4, 49020, Note_on_c, 2, 67, 127
4, 49080, Note_on_c, 2, 67, 0
4, 49080, Note_on_c, 2, 72, 127
4, 49140, Note_on_c, 2, 72, 0
4, 49140, Note_on_c, 2, 71, 127
4, 49200, Note_on_c, 2, 71, 0
4, 49200, Note_on_c, 2, 72, 127
4, 49260, Note_on_c, 2, 72, 0
4, 49260, Note_on_c, 2, 63, 127
4, 49290, Note_on_c, 2, 63, 0
4, 49290, Note_on_c, 2, 65, 127
4, 49320, Note_on_c, 2, 65, 0
4, 49320, Note_on_c, 2, 67, 127
4, 49350, Note_on_c, 2, 67, 0
4, 49350, Note_on_c, 2, 65, 127
4, 49380, Note_on_c, 2, 65, 0
4, 49380, Note_on_c, 2, 67, 127
4, 49410, Note_on_c, 2, 67, 0
4, 49410, Note_on_c, 2, 65, 127
4, 49440, Note_on_c, 2, 65, 0
4, 49440, Note_on_c, 2, 63, 127
4, 49500, Note_on_c, 2, 63, 0
4, 49500, Note_on_c, 2, 65, 127
4, 49530, Note_on_c, 2, 65, 0
4, 49530, Note_on_c, 2, 67, 127
4, 49560, Note_on_c, 2, 67, 0
4, 49560, Note_on_c, 2, 68, 127
4, 49590, Note_on_c, 2, 68, 0
4, 49590, Note_on_c, 2, 70, 127
4, 49620, Note_on_c, 2, 70, 0
4, 49620, Note_on_c, 2, 72, 127
4, 49680, Note_on_c, 2, 72, 0
4, 49680, Note_on_c, 2, 70, 127
4, 49740, Note_on_c, 2, 70, 0
4, 49740, Note_on_c, 2, 65, 127
4, 49800, Note_on_c, 2, 65, 0
4, 49920, Note_on_c, 2, 62, 127
4, 49980, Note_on_c, 2, 62, 0
4, 49980, Note_on_c, 2, 65, 127
4, 50040, Note_on_c, 2, 65, 0
4, 50040, Note_on_c, 2, 70, 127
4, 50100, Note_on_c, 2, 70, 0
4, 50100, Note_on_c, 2, 69, 127
4, 50160, Note_on_c, 2, 69, 0
4, 50160, Note_on_c, 2, 70, 127
4, 50220, Note_on_c, 2, 70, 0
4, 50220, Note_on_c, 2, 62, 127
4, 50250, Note_on_c, 2, 62, 0
4, 50250, Note_on_c, 2, 63, 127
4, 50280, Note_on_c, 2, 63, 0
4, 50280, Note_on_c, 2, 65, 127
4, 50310, Note_on_c, 2, 65, 0
4, 50310, Note_on_c, 2, 63, 127
4, 50340, Note_on_c, 2, 63, 0
4, 50340, Note_on_c, 2, 65, 127
4, 50370, Note_on_c, 2, 65, 0
4, 50370, Note_on_c, 2, 63, 127
4, 50400, Note_on_c, 2, 63, 0
4, 50400, Note_on_c, 2, 62, 127
4, 50460, Note_on_c, 2, 62, 0
4, 50460, Note_on_c, 2, 63, 127
4, 50490, Note_on_c, 2, 63, 0
4, 50490, Note_on_c, 2, 65, 127
4, 50520, Note_on_c, 2, 65, 0
4, 50520, Note_on_c, 2, 67, 127
4, 50550, Note_on_c, 2, 67, 0
4, 50550, Note_on_c, 2, 68, 127
4, 50580, Note_on_c, 2, 68, 0
4, 50580, Note_on_c, 2, 70, 127
4, 50640, Note_on_c, 2, 70, 0
4, 50640, Note_on_c, 2, 72, 127
4, 50700, Note_on_c, 2, 72, 0
4, 50700, Note_on_c, 2, 68, 127
4, 50760, Note_on_c, 2, 68, 0
4, 50880, Note_on_c, 2, 65, 127
4, 51000, Note_on_c, 2, 65, 0
4, 51120, Note_on_c, 2, 60, 127
4, 51150, Note_on_c, 2, 60, 0
4, 51150, Note_on_c, 2, 58, 127
4, 51180, Note_on_c, 2, 58, 0
4, 51180, Note_on_c, 2, 56, 127
4, 51210, Note_on_c, 2, 56, 0
4, 51210, Note_on_c, 2, 55, 127
4, 51240, Note_on_c, 2, 55, 0
4, 51240, Note_on_c, 2, 53, 127
4, 51300, Note_on_c, 2, 53, 0
4, 51360, Note_on_c, 2, 61, 127
4, 51480, Note_on_c, 2, 61, 0
4, 51600, Note_on_c, 2, 56, 127
4, 51630, Note_on_c, 2, 56, 0
4, 51630, Note_on_c, 2, 55, 127
4, 51660, Note_on_c, 2, 55, 0
4, 51660, Note_on_c, 2, 53, 127
4, 51690, Note_on_c, 2, 53, 0
4, 51690, Note_on_c, 2, 51, 127
4, 51720, Note_on_c, 2, 51, 0
4, 51720, Note_on_c, 2, 49, 127
4, 51780, Note_on_c, 2, 49, 0
4, 51900, Note_on_c, 2, 65, 127
4, 51930, Note_on_c, 2, 65, 0
4, 51930, Note_on_c, 2, 63, 127
4, 51960, Note_on_c, 2, 63, 0
4, 51960, Note_on_c, 2, 62, 127
4, 51990, Note_on_c, 2, 62, 0
4, 51990, Note_on_c, 2, 60, 127
4, 52020, Note_on_c, 2, 60, 0
4, 52020, Note_on_c, 2, 59, 127
4, 52050, Note_on_c, 2, 59, 0
4, 52050, Note_on_c, 2, 60, 127
4, 52080, Note_on_c, 2, 60, 0
4, 52080, Note_on_c, 2, 62, 127
4, 52140, Note_on_c, 2, 62, 0
4, 52140, Note_on_c, 2, 60, 127
4, 52200, Note_on_c, 2, 60, 0
4, 52200, Note_on_c, 2, 63, 127
4, 52260, Note_on_c, 2, 63, 0
4, 52260, Note_on_c, 2, 68, 127
4, 52320, Note_on_c, 2, 68, 0
4, 52320, Note_on_c, 2, 67, 127
4, 52380, Note_on_c, 2, 67, 0
4, 52380, Note_on_c, 2, 68, 127
4, 52440, Note_on_c, 2, 68, 0
4, 52440, Note_on_c, 2, 67, 127
4, 52500, Note_on_c, 2, 67, 0
4, 52500, Note_on_c, 2, 65, 127
4, 52560, Note_on_c, 2, 65, 0
4, 52560, Note_on_c, 2, 63, 127
4, 52800, Note_on_c, 2, 63, 0
4, 80880, Note_on_c, 2, 67, 90
4, 80939, Note_on_c, 2, 67, 0
4, 80940, Note_on_c, 2, 55, 90
4, 80999, Note_on_c, 2, 55, 0
4, 81000, Note_on_c, 2, 55, 90
4, 81059, Note_on_c, 2, 55, 0
4, 81060, Note_on_c, 2, 60, 90
4, 81119, Note_on_c, 2, 60, 0
4, 81120, Note_on_c, 2, 60, 90
4, 81179, Note_on_c, 2, 60, 0
4, 81180, Note_on_c, 2, 62, 90
4, 81239, Note_on_c, 2, 62, 0
4, 81240, Note_on_c, 2, 62, 90
4, 81299, Note_on_c, 2, 62, 0
4, 81300, Note_on_c, 2, 62, 90
4, 81359, Note_on_c, 2, 62, 0
4, 81360, Note_on_c, 2, 62, 90
4, 81419, Note_on_c, 2, 62, 0
4, 81420, Note_on_c, 2, 63, 90
4, 81479, Note_on_c, 2, 63, 0
4, 81480, Note_on_c, 2, 63, 90
4, 81539, Note_on_c, 2, 63, 0
4, 81540, Note_on_c, 2, 65, 90
4, 81599, Note_on_c, 2, 65, 0
4, 81600, Note_on_c, 2, 65, 90
4, 81659, Note_on_c, 2, 65, 0
4, 81660, Note_on_c, 2, 67, 90
4, 81839, Note_on_c, 2, 67, 0
4, 81840, Note_on_c, 2, 67, 90
4, 81899, Note_on_c, 2, 67, 0
4, 81900, Note_on_c, 2, 68, 90
4, 81959, Note_on_c, 2, 68, 0
4, 81960, Note_on_c, 2, 68, 90
4, 82019, Note_on_c, 2, 68, 0
4, 82020, Note_on_c, 2, 70, 90
4, 82079, Note_on_c, 2, 70, 0
4, 82080, Note_on_c, 2, 70, 90
4, 82139, Note_on_c, 2, 70, 0
4, 82140, Note_on_c, 2, 72, 90
4, 82319, Note_on_c, 2, 72, 0
4, 82320, Note_on_c, 2, 65, 90
4, 82379, Note_on_c, 2, 65, 0
4, 82380, Note_on_c, 2, 67, 90
4, 82439, Note_on_c, 2, 67, 0
4, 82440, Note_on_c, 2, 67, 90
4, 82499, Note_on_c, 2, 67, 0
4, 82500, Note_on_c, 2, 72, 90
4, 82559, Note_on_c, 2, 72, 0
4, 82560, Note_on_c, 2, 72, 90
4, 82619, Note_on_c, 2, 72, 0
4, 82620, Note_on_c, 2, 72, 90
4, 82679, Note_on_c, 2, 72, 0
4, 82680, Note_on_c, 2, 68, 90
4, 82739, Note_on_c, 2, 68, 0
4, 82740, Note_on_c, 2, 65, 90
4, 82799, Note_on_c, 2, 65, 0
4, 82800, Note_on_c, 2, 65, 90
4, 82859, Note_on_c, 2, 65, 0
4, 82860, Note_on_c, 2, 67, 90
4, 82919, Note_on_c, 2, 67, 0
4, 82920, Note_on_c, 2, 67, 90
4, 82979, Note_on_c, 2, 67, 0
4, 82980, Note_on_c, 2, 72, 90
4, 83039, Note_on_c, 2, 72, 0
4, 83040, Note_on_c, 2, 72, 90
4, 83099, Note_on_c, 2, 72, 0
4, 83100, Note_on_c, 2, 72, 90
4, 83159, Note_on_c, 2, 72, 0
4, 83160, Note_on_c, 2, 68, 90
4, 83219, Note_on_c, 2, 68, 0
4, 83220, Note_on_c, 2, 65, 90
4, 83279, Note_on_c, 2, 65, 0
4, 83280, Note_on_c, 2, 65, 90
4, 83339, Note_on_c, 2, 65, 0
4, 83340, Note_on_c, 2, 65, 90
4, 83399, Note_on_c, 2, 65, 0
4, 83400, Note_on_c, 2, 65, 90
4, 83459, Note_on_c, 2, 65, 0
4, 83460, Note_on_c, 2, 70, 90
4, 83519, Note_on_c, 2, 70, 0
4, 83520, Note_on_c, 2, 70, 90
4, 83579, Note_on_c, 2, 70, 0
4, 83580, Note_on_c, 2, 70, 90
4, 83639, Note_on_c, 2, 70, 0
4, 83640, Note_on_c, 2, 65, 90
4, 83699, Note_on_c, 2, 65, 0
4, 83700, Note_on_c, 2, 63, 90
4, 83759, Note_on_c, 2, 63, 0
4, 83760, Note_on_c, 2, 63, 90
4, 83819, Note_on_c, 2, 63, 0
4, 83820, Note_on_c, 2, 65, 90
4, 83879, Note_on_c, 2, 65, 0
4, 83880, Note_on_c, 2, 65, 90
4, 83939, Note_on_c, 2, 65, 0
4, 83940, Note_on_c, 2, 70, 90
4, 83999, Note_on_c, 2, 70, 0
4, 84000, Note_on_c, 2, 70, 90
4, 84059, Note_on_c, 2, 70, 0
4, 84060, Note_on_c, 2, 70, 90
4, 84119, Note_on_c, 2, 70, 0
4, 84120, Note_on_c, 2, 67, 90
4, 84179, Note_on_c, 2, 67, 0
4, 84180, Note_on_c, 2, 63, 90
4, 84239, Note_on_c, 2, 63, 0
4, 84240, Note_on_c, 2, 63, 90
4, 84299, Note_on_c, 2, 63, 0
4, 84300, Note_on_c, 2, 68, 90
4, 84329, Note_on_c, 2, 68, 0
4, 84330, Note_on_c, 2, 70, 90
4, 84359, Note_on_c, 2, 70, 0
4, 84360, Note_on_c, 2, 68, 90
4, 84389, Note_on_c, 2, 68, 0
4, 84390, Note_on_c, 2, 70, 90
4, 84419, Note_on_c, 2, 70, 0
4, 84420, Note_on_c, 2, 68, 90
4, 84449, Note_on_c, 2, 68, 0
4, 84450, Note_on_c, 2, 70, 90
4, 84479, Note_on_c, 2, 70, 0
4, 84480, Note_on_c, 2, 68, 90
4, 84509, Note_on_c, 2, 68, 0
4, 84510, Note_on_c, 2, 70, 90
4, 84539, Note_on_c, 2, 70, 0
4, 84540, Note_on_c, 2, 67, 90
4, 84569, Note_on_c, 2, 67, 0
4, 84570, Note_on_c, 2, 65, 90
4, 84599, Note_on_c, 2, 65, 0
4, 84600, Note_on_c, 2, 67, 90
4, 84629, Note_on_c, 2, 67, 0
4, 84630, Note_on_c, 2, 65, 90
4, 84659, Note_on_c, 2, 65, 0
4, 84660, Note_on_c, 2, 67, 90
4, 84779, Note_on_c, 2, 67, 0
4, 84810, Note_on_c, 2, 68, 90
4, 84839, Note_on_c, 2, 68, 0
4, 84840, Note_on_c, 2, 67, 90
4, 84869, Note_on_c, 2, 67, 0
4, 84870, Note_on_c, 2, 68, 90
4, 84899, Note_on_c, 2, 68, 0
4, 84900, Note_on_c, 2, 67, 90
4, 84929, Note_on_c, 2, 67, 0
4, 84930, Note_on_c, 2, 68, 90
4, 84959, Note_on_c, 2, 68, 0
4, 84960, Note_on_c, 2, 67, 90
4, 84989, Note_on_c, 2, 67, 0
4, 84990, Note_on_c, 2, 68, 90
4, 85019, Note_on_c, 2, 68, 0
4, 85020, Note_on_c, 2, 66, 90
4, 85049, Note_on_c, 2, 66, 0
4, 85050, Note_on_c, 2, 67, 90
4, 85079, Note_on_c, 2, 67, 0
4, 85080, Note_on_c, 2, 66, 90
4, 85109, Note_on_c, 2, 66, 0
4, 85110, Note_on_c, 2, 67, 90
4, 85139, Note_on_c, 2, 67, 0
4, 85140, Note_on_c, 2, 69, 90
4, 85199, Note_on_c, 2, 69, 0
4, 85200, Note_on_c, 2, 66, 90
4, 85259, Note_on_c, 2, 66, 0
4, 85260, Note_on_c, 2, 62, 90
4, 85319, Note_on_c, 2, 62, 0
4, 85320, Note_on_c, 2, 67, 90
4, 85379, Note_on_c, 2, 67, 0
4, 85380, Note_on_c, 2, 71, 90
4, 85439, Note_on_c, 2, 71, 0
4, 85440, Note_on_c, 2, 59, 90
4, 85499, Note_on_c, 2, 59, 0
4, 85500, Note_on_c, 2, 60, 90
4, 85619, Note_on_c, 2, 60, 0
4, 85650, Note_on_c, 2, 65, 90
4, 85679, Note_on_c, 2, 65, 0
4, 85680, Note_on_c, 2, 63, 90
4, 85709, Note_on_c, 2, 63, 0
4, 85710, Note_on_c, 2, 62, 90
4, 85739, Note_on_c, 2, 62, 0
4, 85740, Note_on_c, 2, 60, 90
4, 85799, Note_on_c, 2, 60, 0
4, 85800, Note_on_c, 2, 62, 90
4, 85859, Note_on_c, 2, 62, 0
4, 85860, Note_on_c, 2, 63, 90
4, 85919, Note_on_c, 2, 63, 0
4, 85920, Note_on_c, 2, 62, 90
4, 85979, Note_on_c, 2, 62, 0
4, 85980, Note_on_c, 2, 63, 90
4, 86099, Note_on_c, 2, 63, 0
4, 86640, Note_on_c, 2, 63, 90
4, 86669, Note_on_c, 2, 63, 0
4, 86670, Note_on_c, 2, 65, 90
4, 86699, Note_on_c, 2, 65, 0
4, 86700, Note_on_c, 2, 63, 90
4, 86729, Note_on_c, 2, 63, 0
4, 86730, Note_on_c, 2, 65, 90
4, 86759, Note_on_c, 2, 65, 0
4, 86760, Note_on_c, 2, 63, 90
4, 86789, Note_on_c, 2, 63, 0
4, 86790, Note_on_c, 2, 65, 90
4, 86819, Note_on_c, 2, 65, 0
4, 86820, Note_on_c, 2, 62, 90
4, 86849, Note_on_c, 2, 62, 0
4, 86850, Note_on_c, 2, 63, 90
4, 86879, Note_on_c, 2, 63, 0
4, 86880, Note_on_c, 2, 62, 90
4, 86909, Note_on_c, 2, 62, 0
4, 86910, Note_on_c, 2, 63, 90
4, 86939, Note_on_c, 2, 63, 0
4, 86940, Note_on_c, 2, 60, 90
4, 86969, Note_on_c, 2, 60, 0
4, 86970, Note_on_c, 2, 59, 90
4, 86999, Note_on_c, 2, 59, 0
4, 87000, Note_on_c, 2, 60, 90
4, 87029, Note_on_c, 2, 60, 0
4, 87030, Note_on_c, 2, 59, 90
4, 87059, Note_on_c, 2, 59, 0
4, 87060, Note_on_c, 2, 60, 90
4, 87119, Note_on_c, 2, 60, 0
4, 87600, Note_on_c, 2, 67, 90
4, 87629, Note_on_c, 2, 67, 0
4, 87630, Note_on_c, 2, 68, 90
4, 87659, Note_on_c, 2, 68, 0
4, 87660, Note_on_c, 2, 67, 90
4, 87689, Note_on_c, 2, 67, 0
4, 87690, Note_on_c, 2, 68, 90
4, 87719, Note_on_c, 2, 68, 0
4, 87720, Note_on_c, 2, 67, 90
4, 87749, Note_on_c, 2, 67, 0
4, 87750, Note_on_c, 2, 68, 90
4, 87779, Note_on_c, 2, 68, 0
4, 87780, Note_on_c, 2, 65, 90
4, 87809, Note_on_c, 2, 65, 0
4, 87810, Note_on_c, 2, 67, 90
4, 87839, Note_on_c, 2, 67, 0
4, 87840, Note_on_c, 2, 65, 90
4, 87869, Note_on_c, 2, 65, 0
4, 87870, Note_on_c, 2, 67, 90
4, 87899, Note_on_c, 2, 67, 0
4, 87900, Note_on_c, 2, 63, 90
4, 87929, Note_on_c, 2, 63, 0
4, 87930, Note_on_c, 2, 62, 90
4, 87959, Note_on_c, 2, 62, 0
4, 87960, Note_on_c, 2, 63, 90
4, 87989, Note_on_c, 2, 63, 0
4, 87990, Note_on_c, 2, 62, 90
4, 88019, Note_on_c, 2, 62, 0
4, 88020, Note_on_c, 2, 63, 90
4, 88079, Note_on_c, 2, 63, 0
4, 88140, Note_on_c, 2, 68, 90
4, 88379, Note_on_c, 2, 68, 0
4, 88380, Note_on_c, 2, 67, 90
4, 88619, Note_on_c, 2, 67, 0
4, 88620, Note_on_c, 2, 65, 90
4, 88859, Note_on_c, 2, 65, 0
4, 88860, Note_on_c, 2, 63, 90
4, 89099, Note_on_c, 2, 63, 0
4, 89160, Note_on_c, 2, 62, 90
4, 89219, Note_on_c, 2, 62, 0
4, 89220, Note_on_c, 2, 62, 90
4, 89279, Note_on_c, 2, 62, 0
4, 89280, Note_on_c, 2, 67, 90
4, 89339, Note_on_c, 2, 67, 0
4, 89340, Note_on_c, 2, 62, 90
4, 89459, Note_on_c, 2, 62, 0
4, 89520, Note_on_c, 2, 62, 90
4, 89579, Note_on_c, 2, 62, 0
4, 89580, Note_on_c, 2, 60, 90
4, 89639, Note_on_c, 2, 60, 0
4, 89640, Note_on_c, 2, 69, 90
4, 89699, Note_on_c, 2, 69, 0
4, 89700, Note_on_c, 2, 58, 90
4, 89759, Note_on_c, 2, 58, 0
4, 89760, Note_on_c, 2, 67, 90
4, 89819, Note_on_c, 2, 67, 0
4, 89820, Note_on_c, 2, 66, 90
4, 89849, Note_on_c, 2, 66, 0
4, 89850, Note_on_c, 2, 64, 90
4, 89879, Note_on_c, 2, 64, 0
4, 89880, Note_on_c, 2, 66, 90
4, 89909, Note_on_c, 2, 66, 0
4, 89910, Note_on_c, 2, 64, 90
4, 89939, Note_on_c, 2, 64, 0
4, 89940, Note_on_c, 2, 62, 90
4, 89999, Note_on_c, 2, 62, 0
4, 90480, Note_on_c, 2, 74, 90
4, 90539, Note_on_c, 2, 74, 0
4, 90540, Note_on_c, 2, 62, 90
4, 90599, Note_on_c, 2, 62, 0
4, 90600, Note_on_c, 2, 62, 90
4, 90659, Note_on_c, 2, 62, 0
4, 90660, Note_on_c, 2, 67, 90
4, 90719, Note_on_c, 2, 67, 0
4, 90720, Note_on_c, 2, 67, 90
4, 90779, Note_on_c, 2, 67, 0
4, 90780, Note_on_c, 2, 69, 90
4, 90809, Note_on_c, 2, 69, 0
4, 90810, Note_on_c, 2, 67, 90
4, 90839, Note_on_c, 2, 67, 0
4, 90840, Note_on_c, 2, 69, 90
4, 90869, Note_on_c, 2, 69, 0
4, 90870, Note_on_c, 2, 67, 90
4, 90899, Note_on_c, 2, 67, 0
4, 90900, Note_on_c, 2, 69, 90
4, 90959, Note_on_c, 2, 69, 0
4, 91440, Note_on_c, 2, 66, 90
4, 91499, Note_on_c, 2, 66, 0
4, 91500, Note_on_c, 2, 67, 90
4, 91559, Note_on_c, 2, 67, 0
4, 91560, Note_on_c, 2, 62, 90
4, 91619, Note_on_c, 2, 62, 0
4, 91620, Note_on_c, 2, 69, 90
4, 91679, Note_on_c, 2, 69, 0
4, 91680, Note_on_c, 2, 62, 90
4, 91739, Note_on_c, 2, 62, 0
4, 91740, Note_on_c, 2, 70, 90
4, 91769, Note_on_c, 2, 70, 0
4, 91770, Note_on_c, 2, 69, 90
4, 91799, Note_on_c, 2, 69, 0
4, 91800, Note_on_c, 2, 70, 90
4, 91829, Note_on_c, 2, 70, 0
4, 91830, Note_on_c, 2, 69, 90
4, 91859, Note_on_c, 2, 69, 0
4, 91860, Note_on_c, 2, 67, 90
4, 91919, Note_on_c, 2, 67, 0
4, 92400, Note_on_c, 2, 71, 90
4, 92459, Note_on_c, 2, 71, 0
4, 92460, Note_on_c, 2, 72, 90
4, 92519, Note_on_c, 2, 72, 0
4, 92520, Note_on_c, 2, 67, 90
4, 92579, Note_on_c, 2, 67, 0
4, 92580, Note_on_c, 2, 74, 90
4, 92639, Note_on_c, 2, 74, 0
4, 92640, Note_on_c, 2, 67, 90
4, 92699, Note_on_c, 2, 67, 0
4, 92700, Note_on_c, 2, 75, 90
4, 92729, Note_on_c, 2, 75, 0
4, 92730, Note_on_c, 2, 74, 90
4, 92759, Note_on_c, 2, 74, 0
4, 92760, Note_on_c, 2, 75, 90
4, 92789, Note_on_c, 2, 75, 0
4, 92790, Note_on_c, 2, 74, 90
4, 92819, Note_on_c, 2, 74, 0
4, 92820, Note_on_c, 2, 72, 90
4, 92879, Note_on_c, 2, 72, 0
4, 93360, Note_on_c, 2, 72, 90
4, 93419, Note_on_c, 2, 72, 0
4, 93420, Note_on_c, 2, 71, 90
4, 93479, Note_on_c, 2, 71, 0
4, 93480, Note_on_c, 2, 74, 90
4, 93539, Note_on_c, 2, 74, 0
4, 93540, Note_on_c, 2, 67, 90
4, 93599, Note_on_c, 2, 67, 0
4, 93600, Note_on_c, 2, 71, 90
4, 93659, Note_on_c, 2, 71, 0
4, 93660, Note_on_c, 2, 72, 90
4, 93719, Note_on_c, 2, 72, 0
4, 93720, Note_on_c, 2, 67, 90
4, 93779, Note_on_c, 2, 67, 0
4, 93780, Note_on_c, 2, 60, 90
4, 93839, Note_on_c, 2, 60, 0
4, 94320, Note_on_c, 2, 70, 90
4, 94379, Note_on_c, 2, 70, 0
4, 94380, Note_on_c, 2, 69, 90
4, 94439, Note_on_c, 2, 69, 0
4, 94440, Note_on_c, 2, 72, 90
4, 94499, Note_on_c, 2, 72, 0
4, 94500, Note_on_c, 2, 65, 90
4, 94559, Note_on_c, 2, 65, 0
4, 94560, Note_on_c, 2, 69, 90
4, 94619, Note_on_c, 2, 69, 0
4, 94620, Note_on_c, 2, 70, 90
4, 94679, Note_on_c, 2, 70, 0
4, 94680, Note_on_c, 2, 65, 90
4, 94739, Note_on_c, 2, 65, 0
4, 94740, Note_on_c, 2, 58, 90
4, 94799, Note_on_c, 2, 58, 0
4, 94800, Note_on_c, 2, 58, 90
4, 94859, Note_on_c, 2, 58, 0
4, 94860, Note_on_c, 2, 57, 90
4, 94889, Note_on_c, 2, 57, 0
4, 94890, Note_on_c, 2, 58, 90
4, 94919, Note_on_c, 2, 58, 0
4, 94920, Note_on_c, 2, 60, 90
4, 94949, Note_on_c, 2, 60, 0
4, 94950, Note_on_c, 2, 62, 90
4, 94979, Note_on_c, 2, 62, 0
4, 94980, Note_on_c, 2, 63, 90
4, 95009, Note_on_c, 2, 63, 0
4, 95010, Note_on_c, 2, 65, 90
4, 95039, Note_on_c, 2, 65, 0
4, 95040, Note_on_c, 2, 63, 90
4, 95069, Note_on_c, 2, 63, 0
4, 95070, Note_on_c, 2, 65, 90
4, 95099, Note_on_c, 2, 65, 0
4, 95100, Note_on_c, 2, 62, 90
4, 95129, Note_on_c, 2, 62, 0
4, 95130, Note_on_c, 2, 60, 90
4, 95159, Note_on_c, 2, 60, 0
4, 95160, Note_on_c, 2, 62, 90
4, 95189, Note_on_c, 2, 62, 0
4, 95190, Note_on_c, 2, 60, 90
4, 95219, Note_on_c, 2, 60, 0
4, 95220, Note_on_c, 2, 62, 90
4, 95339, Note_on_c, 2, 62, 0
4, 95370, Note_on_c, 2, 63, 90
4, 95399, Note_on_c, 2, 63, 0
4, 95400, Note_on_c, 2, 62, 90
4, 95429, Note_on_c, 2, 62, 0
4, 95430, Note_on_c, 2, 63, 90
4, 95459, Note_on_c, 2, 63, 0
4, 95460, Note_on_c, 2, 62, 90
4, 95489, Note_on_c, 2, 62, 0
4, 95490, Note_on_c, 2, 63, 90
4, 95519, Note_on_c, 2, 63, 0
4, 95520, Note_on_c, 2, 62, 90
4, 95549, Note_on_c, 2, 62, 0
4, 95550, Note_on_c, 2, 63, 90
4, 95579, Note_on_c, 2, 63, 0
4, 95580, Note_on_c, 2, 61, 90
4, 95609, Note_on_c, 2, 61, 0
4, 95610, Note_on_c, 2, 62, 90
4, 95639, Note_on_c, 2, 62, 0
4, 95640, Note_on_c, 2, 61, 90
4, 95669, Note_on_c, 2, 61, 0
4, 95670, Note_on_c, 2, 62, 90
4, 95699, Note_on_c, 2, 62, 0
4, 95700, Note_on_c, 2, 64, 90
4, 95759, Note_on_c, 2, 64, 0
4, 95760, Note_on_c, 2, 61, 90
4, 95819, Note_on_c, 2, 61, 0
4, 95820, Note_on_c, 2, 57, 90
4, 95879, Note_on_c, 2, 57, 0
4, 95880, Note_on_c, 2, 62, 90
4, 95939, Note_on_c, 2, 62, 0
4, 95940, Note_on_c, 2, 66, 90
4, 95999, Note_on_c, 2, 66, 0
4, 96000, Note_on_c, 2, 54, 90
4, 96059, Note_on_c, 2, 54, 0
4, 96060, Note_on_c, 2, 55, 90
4, 96179, Note_on_c, 2, 55, 0
4, 96210, Note_on_c, 2, 60, 90
4, 96239, Note_on_c, 2, 60, 0
4, 96240, Note_on_c, 2, 58, 90
4, 96269, Note_on_c, 2, 58, 0
4, 96270, Note_on_c, 2, 57, 90
4, 96299, Note_on_c, 2, 57, 0
4, 96300, Note_on_c, 2, 55, 90
4, 96359, Note_on_c, 2, 55, 0
4, 96360, Note_on_c, 2, 57, 90
4, 96419, Note_on_c, 2, 57, 0
4, 96420, Note_on_c, 2, 58, 90
4, 96479, Note_on_c, 2, 58, 0
4, 96480, Note_on_c, 2, 57, 90
4, 96539, Note_on_c, 2, 57, 0
4, 96540, Note_on_c, 2, 58, 90
4, 96659, Note_on_c, 2, 58, 0
4, 96780, Note_on_c, 2, 62, 90
4, 97620, Note_on_c, 2, 62, 0
4, 97620, Note_on_c, 2, 66, 90
4, 97739, Note_on_c, 2, 66, 0
4, 97740, Note_on_c, 2, 67, 90
4, 97979, Note_on_c, 2, 67, 0
4, 97980, Note_on_c, 2, 65, 90
4, 98219, Note_on_c, 2, 65, 0
4, 98220, Note_on_c, 2, 70, 90
4, 98459, Note_on_c, 2, 70, 0
4, 98460, Note_on_c, 2, 65, 90
4, 98639, Note_on_c, 2, 65, 0
4, 98640, Note_on_c, 2, 63, 90
4, 98699, Note_on_c, 2, 63, 0
4, 98700, Note_on_c, 2, 62, 90
4, 98759, Note_on_c, 2, 62, 0
4, 98880, Note_on_c, 2, 62, 90
4, 98939, Note_on_c, 2, 62, 0
4, 98940, Note_on_c, 2, 67, 90
4, 98999, Note_on_c, 2, 67, 0
4, 99120, Note_on_c, 2, 67, 90
4, 99179, Note_on_c, 2, 67, 0
4, 99180, Note_on_c, 2, 60, 90
4, 99239, Note_on_c, 2, 60, 0
4, 99360, Note_on_c, 2, 60, 90
4, 99419, Note_on_c, 2, 60, 0
4, 99420, Note_on_c, 2, 65, 90
4, 99479, Note_on_c, 2, 65, 0
4, 101040, Note_on_c, 2, 72, 90
4, 101099, Note_on_c, 2, 72, 0
4, 101100, Note_on_c, 2, 60, 90
4, 101159, Note_on_c, 2, 60, 0
4, 101160, Note_on_c, 2, 60, 90
4, 101219, Note_on_c, 2, 60, 0
4, 101220, Note_on_c, 2, 65, 90
4, 101279, Note_on_c, 2, 65, 0
4, 101280, Note_on_c, 2, 65, 90
4, 101339, Note_on_c, 2, 65, 0
4, 101340, Note_on_c, 2, 67, 90
4, 101399, Note_on_c, 2, 67, 0
4, 101400, Note_on_c, 2, 67, 90
4, 101459, Note_on_c, 2, 67, 0
4, 101460, Note_on_c, 2, 67, 90
4, 101519, Note_on_c, 2, 67, 0
4, 101520, Note_on_c, 2, 67, 90
4, 101579, Note_on_c, 2, 67, 0
4, 101580, Note_on_c, 2, 65, 90
4, 101639, Note_on_c, 2, 65, 0
4, 101700, Note_on_c, 2, 72, 90
4, 101759, Note_on_c, 2, 72, 0
4, 101820, Note_on_c, 2, 65, 90
4, 101879, Note_on_c, 2, 65, 0
4, 102000, Note_on_c, 2, 63, 90
4, 102059, Note_on_c, 2, 63, 0
4, 102060, Note_on_c, 2, 70, 90
4, 102089, Note_on_c, 2, 70, 0
4, 102090, Note_on_c, 2, 72, 90
4, 102119, Note_on_c, 2, 72, 0
4, 102120, Note_on_c, 2, 70, 90
4, 102149, Note_on_c, 2, 70, 0
4, 102150, Note_on_c, 2, 72, 90
4, 102179, Note_on_c, 2, 72, 0
4, 102180, Note_on_c, 2, 68, 90
4, 102209, Note_on_c, 2, 68, 0
4, 102210, Note_on_c, 2, 70, 90
4, 102239, Note_on_c, 2, 70, 0
4, 102240, Note_on_c, 2, 68, 90
4, 102269, Note_on_c, 2, 68, 0
4, 102270, Note_on_c, 2, 70, 90
4, 102299, Note_on_c, 2, 70, 0
4, 102300, Note_on_c, 2, 67, 90
4, 102329, Note_on_c, 2, 67, 0
4, 102330, Note_on_c, 2, 68, 90
4, 102359, Note_on_c, 2, 68, 0
4, 102360, Note_on_c, 2, 67, 90
4, 102389, Note_on_c, 2, 67, 0
4, 102390, Note_on_c, 2, 68, 90
4, 102419, Note_on_c, 2, 68, 0
4, 102420, Note_on_c, 2, 65, 90
4, 102449, Note_on_c, 2, 65, 0
4, 102450, Note_on_c, 2, 67, 90
4, 102479, Note_on_c, 2, 67, 0
4, 102480, Note_on_c, 2, 65, 90
4, 102509, Note_on_c, 2, 65, 0
4, 102510, Note_on_c, 2, 67, 90
4, 102539, Note_on_c, 2, 67, 0
4, 102540, Note_on_c, 2, 63, 90
4, 102599, Note_on_c, 2, 63, 0
4, 102660, Note_on_c, 2, 58, 90
4, 102719, Note_on_c, 2, 58, 0
4, 102780, Note_on_c, 2, 51, 90
4, 102839, Note_on_c, 2, 51, 0
4, 102960, Note_on_c, 2, 62, 90
4, 103019, Note_on_c, 2, 62, 0
4, 103020, Note_on_c, 2, 68, 90
4, 103049, Note_on_c, 2, 68, 0
4, 103050, Note_on_c, 2, 70, 90
4, 103079, Note_on_c, 2, 70, 0
4, 103080, Note_on_c, 2, 68, 90
4, 103109, Note_on_c, 2, 68, 0
4, 103110, Note_on_c, 2, 70, 90
4, 103139, Note_on_c, 2, 70, 0
4, 103140, Note_on_c, 2, 67, 90
4, 103169, Note_on_c, 2, 67, 0
4, 103170, Note_on_c, 2, 68, 90
4, 103199, Note_on_c, 2, 68, 0
4, 103200, Note_on_c, 2, 67, 90
4, 103229, Note_on_c, 2, 67, 0
4, 103230, Note_on_c, 2, 68, 90
4, 103259, Note_on_c, 2, 68, 0
4, 103260, Note_on_c, 2, 65, 90
4, 103289, Note_on_c, 2, 65, 0
4, 103290, Note_on_c, 2, 67, 90
4, 103319, Note_on_c, 2, 67, 0
4, 103320, Note_on_c, 2, 65, 90
4, 103349, Note_on_c, 2, 65, 0
4, 103350, Note_on_c, 2, 67, 90
4, 103379, Note_on_c, 2, 67, 0
4, 103380, Note_on_c, 2, 63, 90
4, 103409, Note_on_c, 2, 63, 0
4, 103410, Note_on_c, 2, 65, 90
4, 103439, Note_on_c, 2, 65, 0
4, 103440, Note_on_c, 2, 63, 90
4, 103469, Note_on_c, 2, 63, 0
4, 103470, Note_on_c, 2, 65, 90
4, 103499, Note_on_c, 2, 65, 0
4, 103500, Note_on_c, 2, 62, 90
4, 103559, Note_on_c, 2, 62, 0
4, 103620, Note_on_c, 2, 68, 90
4, 103679, Note_on_c, 2, 68, 0
4, 103740, Note_on_c, 2, 62, 90
4, 103799, Note_on_c, 2, 62, 0
4, 103920, Note_on_c, 2, 60, 90
4, 103979, Note_on_c, 2, 60, 0
4, 103980, Note_on_c, 2, 67, 90
4, 104009, Note_on_c, 2, 67, 0
4, 104010, Note_on_c, 2, 68, 90
4, 104039, Note_on_c, 2, 68, 0
4, 104040, Note_on_c, 2, 67, 90
4, 104069, Note_on_c, 2, 67, 0
4, 104070, Note_on_c, 2, 68, 90
4, 104099, Note_on_c, 2, 68, 0
4, 104100, Note_on_c, 2, 65, 90
4, 104129, Note_on_c, 2, 65, 0
4, 104130, Note_on_c, 2, 67, 90
4, 104159, Note_on_c, 2, 67, 0
4, 104160, Note_on_c, 2, 65, 90
4, 104189, Note_on_c, 2, 65, 0
4, 104190, Note_on_c, 2, 67, 90
4, 104219, Note_on_c, 2, 67, 0
4, 104220, Note_on_c, 2, 63, 90
4, 104249, Note_on_c, 2, 63, 0
4, 104250, Note_on_c, 2, 65, 90
4, 104279, Note_on_c, 2, 65, 0
4, 104280, Note_on_c, 2, 63, 90
4, 104309, Note_on_c, 2, 63, 0
4, 104310, Note_on_c, 2, 65, 90
4, 104339, Note_on_c, 2, 65, 0
4, 104340, Note_on_c, 2, 62, 90
4, 104369, Note_on_c, 2, 62, 0
4, 104370, Note_on_c, 2, 63, 90
4, 104399, Note_on_c, 2, 63, 0
4, 104400, Note_on_c, 2, 62, 90
4, 104429, Note_on_c, 2, 62, 0
4, 104430, Note_on_c, 2, 63, 90
4, 104459, Note_on_c, 2, 63, 0
4, 104460, Note_on_c, 2, 60, 90
4, 104519, Note_on_c, 2, 60, 0
4, 104880, Note_on_c, 2, 63, 90
4, 104909, Note_on_c, 2, 63, 0
4, 104910, Note_on_c, 2, 65, 90
4, 104939, Note_on_c, 2, 65, 0
4, 104940, Note_on_c, 2, 63, 90
4, 104969, Note_on_c, 2, 63, 0
4, 104970, Note_on_c, 2, 65, 90
4, 104999, Note_on_c, 2, 65, 0
4, 105000, Note_on_c, 2, 63, 90
4, 105029, Note_on_c, 2, 63, 0
4, 105030, Note_on_c, 2, 65, 90
4, 105059, Note_on_c, 2, 65, 0
4, 105060, Note_on_c, 2, 62, 90
4, 105089, Note_on_c, 2, 62, 0
4, 105090, Note_on_c, 2, 63, 90
4, 105119, Note_on_c, 2, 63, 0
4, 105120, Note_on_c, 2, 62, 90
4, 105149, Note_on_c, 2, 62, 0
4, 105150, Note_on_c, 2, 63, 90
4, 105179, Note_on_c, 2, 63, 0
4, 105180, Note_on_c, 2, 60, 90
4, 105209, Note_on_c, 2, 60, 0
4, 105210, Note_on_c, 2, 59, 90
4, 105239, Note_on_c, 2, 59, 0
4, 105240, Note_on_c, 2, 60, 90
4, 105269, Note_on_c, 2, 60, 0
4, 105270, Note_on_c, 2, 59, 90
4, 105299, Note_on_c, 2, 59, 0
4, 105300, Note_on_c, 2, 60, 90
4, 105359, Note_on_c, 2, 60, 0
4, 105840, Note_on_c, 2, 67, 90
4, 105869, Note_on_c, 2, 67, 0
4, 105870, Note_on_c, 2, 68, 90
4, 105899, Note_on_c, 2, 68, 0
4, 105900, Note_on_c, 2, 67, 90
4, 105929, Note_on_c, 2, 67, 0
4, 105930, Note_on_c, 2, 68, 90
4, 105959, Note_on_c, 2, 68, 0
4, 105960, Note_on_c, 2, 67, 90
4, 105989, Note_on_c, 2, 67, 0
4, 105990, Note_on_c, 2, 68, 90
4, 106019, Note_on_c, 2, 68, 0
4, 106020, Note_on_c, 2, 65, 90
4, 106049, Note_on_c, 2, 65, 0
4, 106050, Note_on_c, 2, 67, 90
4, 106079, Note_on_c, 2, 67, 0
4, 106080, Note_on_c, 2, 65, 90
4, 106109, Note_on_c, 2, 65, 0
4, 106110, Note_on_c, 2, 67, 90
4, 106139, Note_on_c, 2, 67, 0
4, 106140, Note_on_c, 2, 63, 90
4, 106169, Note_on_c, 2, 63, 0
4, 106170, Note_on_c, 2, 62, 90
4, 106199, Note_on_c, 2, 62, 0
4, 106200, Note_on_c, 2, 63, 90
4, 106229, Note_on_c, 2, 63, 0
4, 106230, Note_on_c, 2, 62, 90
4, 106259, Note_on_c, 2, 62, 0
4, 106260, Note_on_c, 2, 63, 90
4, 106319, Note_on_c, 2, 63, 0
4, 106800, Note_on_c, 2, 68, 90
4, 106859, Note_on_c, 2, 68, 0
4, 106860, Note_on_c, 2, 67, 90
4, 106919, Note_on_c, 2, 67, 0
4, 106920, Note_on_c, 2, 70, 90
4, 106979, Note_on_c, 2, 70, 0
4, 106980, Note_on_c, 2, 63, 90
4, 107039, Note_on_c, 2, 63, 0
4, 107040, Note_on_c, 2, 67, 90
4, 107099, Note_on_c, 2, 67, 0
4, 107100, Note_on_c, 2, 68, 90
4, 107159, Note_on_c, 2, 68, 0
4, 107160, Note_on_c, 2, 63, 90
4, 107219, Note_on_c, 2, 63, 0
4, 107220, Note_on_c, 2, 56, 90
4, 107279, Note_on_c, 2, 56, 0
4, 107760, Note_on_c, 2, 70, 90
4, 107819, Note_on_c, 2, 70, 0
4, 107820, Note_on_c, 2, 69, 90
4, 107879, Note_on_c, 2, 69, 0
4, 107880, Note_on_c, 2, 72, 90
4, 107939, Note_on_c, 2, 72, 0
4, 107940, Note_on_c, 2, 65, 90
4, 107999, Note_on_c, 2, 65, 0
4, 108000, Note_on_c, 2, 69, 90
4, 108059, Note_on_c, 2, 69, 0
4, 108060, Note_on_c, 2, 70, 90
4, 108119, Note_on_c, 2, 70, 0
4, 108120, Note_on_c, 2, 65, 90
4, 108179, Note_on_c, 2, 65, 0
4, 108180, Note_on_c, 2, 58, 90
4, 108239, Note_on_c, 2, 58, 0
4, 108720, Note_on_c, 2, 72, 90
4, 108779, Note_on_c, 2, 72, 0
4, 108780, Note_on_c, 2, 71, 90
4, 108839, Note_on_c, 2, 71, 0
4, 108840, Note_on_c, 2, 74, 90
4, 108899, Note_on_c, 2, 74, 0
4, 108900, Note_on_c, 2, 67, 90
4, 108959, Note_on_c, 2, 67, 0
4, 108960, Note_on_c, 2, 71, 90
4, 109019, Note_on_c, 2, 71, 0
4, 109020, Note_on_c, 2, 72, 90
4, 109079, Note_on_c, 2, 72, 0
4, 109080, Note_on_c, 2, 67, 90
4, 109139, Note_on_c, 2, 67, 0
4, 109140, Note_on_c, 2, 60, 90
4, 109199, Note_on_c, 2, 60, 0
4, 109200, Note_on_c, 2, 67, 90
4, 109259, Note_on_c, 2, 67, 0
4, 109260, Note_on_c, 2, 68, 90
4, 109289, Note_on_c, 2, 68, 0
4, 109290, Note_on_c, 2, 70, 90
4, 109319, Note_on_c, 2, 70, 0
4, 109320, Note_on_c, 2, 68, 90
4, 109349, Note_on_c, 2, 68, 0
4, 109350, Note_on_c, 2, 70, 90
4, 109379, Note_on_c, 2, 70, 0
4, 109380, Note_on_c, 2, 68, 90
4, 109409, Note_on_c, 2, 68, 0
4, 109410, Note_on_c, 2, 70, 90
4, 109439, Note_on_c, 2, 70, 0
4, 109440, Note_on_c, 2, 68, 90
4, 109469, Note_on_c, 2, 68, 0
4, 109470, Note_on_c, 2, 70, 90
4, 109499, Note_on_c, 2, 70, 0
4, 109500, Note_on_c, 2, 67, 90
4, 109529, Note_on_c, 2, 67, 0
4, 109530, Note_on_c, 2, 65, 90
4, 109559, Note_on_c, 2, 65, 0
4, 109560, Note_on_c, 2, 67, 90
4, 109589, Note_on_c, 2, 67, 0
4, 109590, Note_on_c, 2, 65, 90
4, 109619, Note_on_c, 2, 65, 0
4, 109620, Note_on_c, 2, 67, 90
4, 109739, Note_on_c, 2, 67, 0
4, 109770, Note_on_c, 2, 68, 90
4, 109799, Note_on_c, 2, 68, 0
4, 109800, Note_on_c, 2, 67, 90
4, 109829, Note_on_c, 2, 67, 0
4, 109830, Note_on_c, 2, 68, 90
4, 109859, Note_on_c, 2, 68, 0
4, 109860, Note_on_c, 2, 67, 90
4, 109889, Note_on_c, 2, 67, 0
4, 109890, Note_on_c, 2, 68, 90
4, 109919, Note_on_c, 2, 68, 0
4, 109920, Note_on_c, 2, 67, 90
4, 109949, Note_on_c, 2, 67, 0
4, 109950, Note_on_c, 2, 68, 90
4, 109979, Note_on_c, 2, 68, 0
4, 109980, Note_on_c, 2, 67, 90
4, 110009, Note_on_c, 2, 67, 0
4, 110010, Note_on_c, 2, 66, 90
4, 110039, Note_on_c, 2, 66, 0
4, 110040, Note_on_c, 2, 67, 90
4, 110069, Note_on_c, 2, 67, 0
4, 110070, Note_on_c, 2, 66, 90
4, 110099, Note_on_c, 2, 66, 0
4, 110100, Note_on_c, 2, 69, 90
4, 110159, Note_on_c, 2, 69, 0
4, 110160, Note_on_c, 2, 66, 90
4, 110219, Note_on_c, 2, 66, 0
4, 110220, Note_on_c, 2, 62, 90
4, 110699, Note_on_c, 2, 62, 0
4, 110700, Note_on_c, 2, 63, 90
4, 111179, Note_on_c, 2, 63, 0
4, 111180, Note_on_c, 2, 65, 90
4, 111659, Note_on_c, 2, 65, 0
4, 111660, Note_on_c, 2, 63, 90
4, 112139, Note_on_c, 2, 63, 0
4, 112140, Note_on_c, 2, 62, 90
4, 112619, Note_on_c, 2, 62, 0
4, 112620, Note_on_c, 2, 63, 90
4, 112649, Note_on_c, 2, 63, 0
4, 112650, Note_on_c, 2, 65, 90
4, 112679, Note_on_c, 2, 65, 0
4, 112680, Note_on_c, 2, 63, 90
4, 112709, Note_on_c, 2, 63, 0
4, 112710, Note_on_c, 2, 65, 90
4, 112739, Note_on_c, 2, 65, 0
4, 112740, Note_on_c, 2, 62, 90
4, 112769, Note_on_c, 2, 62, 0
4, 112770, Note_on_c, 2, 63, 90
4, 112799, Note_on_c, 2, 63, 0
4, 112800, Note_on_c, 2, 62, 90
4, 112829, Note_on_c, 2, 62, 0
4, 112830, Note_on_c, 2, 63, 90
4, 112859, Note_on_c, 2, 63, 0
4, 112860, Note_on_c, 2, 60, 90
4, 112919, Note_on_c, 2, 60, 0
4, 112920, Note_on_c, 2, 60, 90
4, 112979, Note_on_c, 2, 60, 0
4, 112980, Note_on_c, 2, 63, 90
4, 113039, Note_on_c, 2, 63, 0
4, 113040, Note_on_c, 2, 67, 90
4, 113099, Note_on_c, 2, 67, 0
4, 113100, Note_on_c, 2, 55, 90
4, 113159, Note_on_c, 2, 55, 0
4, 113160, Note_on_c, 2, 55, 90
4, 113219, Note_on_c, 2, 55, 0
4, 113220, Note_on_c, 2, 60, 90
4, 113279, Note_on_c, 2, 60, 0
4, 113280, Note_on_c, 2, 60, 90
4, 113339, Note_on_c, 2, 60, 0
4, 113340, Note_on_c, 2, 62, 90
4, 113369, Note_on_c, 2, 62, 0
4, 113370, Note_on_c, 2, 60, 90
4, 113399, Note_on_c, 2, 60, 0
4, 113400, Note_on_c, 2, 62, 90
4, 113429, Note_on_c, 2, 62, 0
4, 113430, Note_on_c, 2, 60, 90
4, 113459, Note_on_c, 2, 60, 0
4, 113460, Note_on_c, 2, 62, 90
4, 113519, Note_on_c, 2, 62, 0
4, 114000, Note_on_c, 2, 59, 90
4, 114059, Note_on_c, 2, 59, 0
4, 114060, Note_on_c, 2, 60, 90
4, 114119, Note_on_c, 2, 60, 0
4, 114120, Note_on_c, 2, 55, 90
4, 114179, Note_on_c, 2, 55, 0
4, 114180, Note_on_c, 2, 62, 90
4, 114239, Note_on_c, 2, 62, 0
4, 114240, Note_on_c, 2, 55, 90
4, 114299, Note_on_c, 2, 55, 0
4, 114300, Note_on_c, 2, 63, 90
4, 114329, Note_on_c, 2, 63, 0
4, 114330, Note_on_c, 2, 62, 90
4, 114359, Note_on_c, 2, 62, 0
4, 114360, Note_on_c, 2, 63, 90
4, 114389, Note_on_c, 2, 63, 0
4, 114390, Note_on_c, 2, 62, 90
4, 114419, Note_on_c, 2, 62, 0
4, 114420, Note_on_c, 2, 60, 90
4, 114479, Note_on_c, 2, 60, 0
4, 114960, Note_on_c, 2, 64, 90
4, 115019, Note_on_c, 2, 64, 0
4, 115020, Note_on_c, 2, 65, 90
4, 115079, Note_on_c, 2, 65, 0
4, 115080, Note_on_c, 2, 60, 90
4, 115139, Note_on_c, 2, 60, 0
4, 115140, Note_on_c, 2, 67, 90
4, 115199, Note_on_c, 2, 67, 0
4, 115200, Note_on_c, 2, 60, 90
4, 115259, Note_on_c, 2, 60, 0
4, 115260, Note_on_c, 2, 68, 90
4, 115289, Note_on_c, 2, 68, 0
4, 115290, Note_on_c, 2, 67, 90
4, 115319, Note_on_c, 2, 67, 0
4, 115320, Note_on_c, 2, 68, 90
4, 115320, Pitch_bend_c, 2, 8794
4, 115320, Pitch_bend_c, 2, 8576
4, 115320, Pitch_bend_c, 2, 8666
4, 115349, Note_on_c, 2, 68, 0
4, 115350, Note_on_c, 2, 67, 90
4, 115379, Note_on_c, 2, 67, 0
4, 115380, Note_on_c, 2, 65, 90
4, 115439, Note_on_c, 2, 65, 0
4, 115500, Note_on_c, 2, 73, 90
4, 115739, Note_on_c, 2, 73, 0
4, 115740, Note_on_c, 2, 72, 90
4, 115979, Note_on_c, 2, 72, 0
4, 115980, Note_on_c, 2, 70, 90
4, 116219, Note_on_c, 2, 70, 0
4, 116220, Note_on_c, 2, 68, 90
4, 116459, Note_on_c, 2, 68, 0
4, 116520, Note_on_c, 2, 67, 90
4, 116579, Note_on_c, 2, 67, 0
4, 116580, Note_on_c, 2, 67, 90
4, 116639, Note_on_c, 2, 67, 0
4, 116640, Note_on_c, 2, 72, 90
4, 116699, Note_on_c, 2, 72, 0
4, 116700, Note_on_c, 2, 67, 90
4, 116819, Note_on_c, 2, 67, 0
4, 116880, Note_on_c, 2, 67, 90
4, 116939, Note_on_c, 2, 67, 0
4, 116940, Note_on_c, 2, 65, 90
4, 116999, Note_on_c, 2, 65, 0
4, 117000, Note_on_c, 2, 74, 90
4, 117059, Note_on_c, 2, 74, 0
4, 117060, Note_on_c, 2, 63, 90
4, 117119, Note_on_c, 2, 63, 0
4, 117120, Note_on_c, 2, 72, 90
4, 117179, Note_on_c, 2, 72, 0
4, 117180, Note_on_c, 2, 62, 90
4, 117209, Note_on_c, 2, 62, 0
4, 117210, Note_on_c, 2, 60, 90
4, 117239, Note_on_c, 2, 60, 0
4, 117240, Note_on_c, 2, 62, 90
4, 117269, Note_on_c, 2, 62, 0
4, 117270, Note_on_c, 2, 60, 90
4, 117299, Note_on_c, 2, 60, 0
4, 117300, Note_on_c, 2, 59, 90
4, 117359, Note_on_c, 2, 59, 0
4, 117840, Note_on_c, 2, 67, 90
4, 117899, Note_on_c, 2, 67, 0
4, 117900, Note_on_c, 2, 55, 90
4, 117959, Note_on_c, 2, 55, 0
4, 117960, Note_on_c, 2, 55, 90
4, 118019, Note_on_c, 2, 55, 0
4, 118020, Note_on_c, 2, 60, 90
4, 118079, Note_on_c, 2, 60, 0
4, 118080, Note_on_c, 2, 60, 90
4, 118139, Note_on_c, 2, 60, 0
4, 118140, Note_on_c, 2, 62, 90
4, 118199, Note_on_c, 2, 62, 0
4, 118200, Note_on_c, 2, 62, 90
4, 118259, Note_on_c, 2, 62, 0
4, 118260, Note_on_c, 2, 62, 90
4, 118319, Note_on_c, 2, 62, 0
4, 118320, Note_on_c, 2, 62, 90
4, 118379, Note_on_c, 2, 62, 0
4, 118380, Note_on_c, 2, 63, 90
4, 118439, Note_on_c, 2, 63, 0
4, 118440, Note_on_c, 2, 63, 90
4, 118499, Note_on_c, 2, 63, 0
4, 118500, Note_on_c, 2, 65, 90
4, 118559, Note_on_c, 2, 65, 0
4, 118560, Note_on_c, 2, 65, 90
4, 118619, Note_on_c, 2, 65, 0
4, 118620, Note_on_c, 2, 67, 90
4, 118799, Note_on_c, 2, 67, 0
4, 118800, Note_on_c, 2, 67, 90
4, 118859, Note_on_c, 2, 67, 0
4, 118860, Note_on_c, 2, 68, 90
4, 118919, Note_on_c, 2, 68, 0
4, 118920, Note_on_c, 2, 68, 90
4, 118979, Note_on_c, 2, 68, 0
4, 118980, Note_on_c, 2, 70, 90
4, 119039, Note_on_c, 2, 70, 0
4, 119040, Note_on_c, 2, 70, 90
4, 119099, Note_on_c, 2, 70, 0
4, 119100, Note_on_c, 2, 72, 90
4, 119279, Note_on_c, 2, 72, 0
4, 119280, Note_on_c, 2, 65, 90
4, 119339, Note_on_c, 2, 65, 0
4, 119340, Note_on_c, 2, 67, 90
4, 119399, Note_on_c, 2, 67, 0
4, 119400, Note_on_c, 2, 67, 90
4, 119459, Note_on_c, 2, 67, 0
4, 119460, Note_on_c, 2, 72, 90
4, 119519, Note_on_c, 2, 72, 0
4, 119520, Note_on_c, 2, 72, 90
4, 119579, Note_on_c, 2, 72, 0
4, 119580, Note_on_c, 2, 72, 90
4, 119639, Note_on_c, 2, 72, 0
4, 119640, Note_on_c, 2, 68, 90
4, 119699, Note_on_c, 2, 68, 0
4, 119700, Note_on_c, 2, 65, 90
4, 119759, Note_on_c, 2, 65, 0
4, 119760, Note_on_c, 2, 65, 90
4, 119819, Note_on_c, 2, 65, 0
4, 119820, Note_on_c, 2, 67, 90
4, 119879, Note_on_c, 2, 67, 0
4, 119880, Note_on_c, 2, 67, 90
4, 119939, Note_on_c, 2, 67, 0
4, 119940, Note_on_c, 2, 72, 90
4, 119999, Note_on_c, 2, 72, 0
4, 120000, Note_on_c, 2, 72, 90
4, 120059, Note_on_c, 2, 72, 0
4, 120060, Note_on_c, 2, 72, 90
4, 120119, Note_on_c, 2, 72, 0
4, 120120, Note_on_c, 2, 68, 90
4, 120179, Note_on_c, 2, 68, 0
4, 120180, Note_on_c, 2, 65, 90
4, 120239, Note_on_c, 2, 65, 0
4, 120240, Note_on_c, 2, 65, 90
4, 120299, Note_on_c, 2, 65, 0
4, 120300, Note_on_c, 2, 65, 90
4, 120359, Note_on_c, 2, 65, 0
4, 120360, Note_on_c, 2, 65, 90
4, 120419, Note_on_c, 2, 65, 0
4, 120420, Note_on_c, 2, 70, 90
4, 120479, Note_on_c, 2, 70, 0
4, 120480, Note_on_c, 2, 70, 90
4, 120539, Note_on_c, 2, 70, 0
4, 120540, Note_on_c, 2, 70, 90
4, 120599, Note_on_c, 2, 70, 0
4, 120600, Note_on_c, 2, 67, 90
4, 120659, Note_on_c, 2, 67, 0
4, 120660, Note_on_c, 2, 63, 90
4, 120719, Note_on_c, 2, 63, 0
4, 120720, Note_on_c, 2, 63, 90
4, 120779, Note_on_c, 2, 63, 0
4, 120780, Note_on_c, 2, 65, 90
4, 120839, Note_on_c, 2, 65, 0
4, 120840, Note_on_c, 2, 65, 90
4, 120899, Note_on_c, 2, 65, 0
4, 120900, Note_on_c, 2, 70, 90
4, 120959, Note_on_c, 2, 70, 0
4, 120960, Note_on_c, 2, 70, 90
4, 121019, Note_on_c, 2, 70, 0
4, 121020, Note_on_c, 2, 70, 90
4, 121079, Note_on_c, 2, 70, 0
4, 121080, Note_on_c, 2, 67, 90
4, 121139, Note_on_c, 2, 67, 0
4, 121140, Note_on_c, 2, 63, 90
4, 121199, Note_on_c, 2, 63, 0
4, 121200, Note_on_c, 2, 63, 90
4, 121259, Note_on_c, 2, 63, 0
4, 121260, Note_on_c, 2, 68, 90
4, 121289, Note_on_c, 2, 68, 0
4, 121290, Note_on_c, 2, 70, 90
4, 121319, Note_on_c, 2, 70, 0
4, 121320, Note_on_c, 2, 68, 90
4, 121349, Note_on_c, 2, 68, 0
4, 121350, Note_on_c, 2, 70, 90
4, 121379, Note_on_c, 2, 70, 0
4, 121380, Note_on_c, 2, 68, 90
4, 121409, Note_on_c, 2, 68, 0
4, 121410, Note_on_c, 2, 70, 90
4, 121439, Note_on_c, 2, 70, 0
4, 121440, Note_on_c, 2, 68, 90
4, 121469, Note_on_c, 2, 68, 0
4, 121470, Note_on_c, 2, 70, 90
4, 121499, Note_on_c, 2, 70, 0
4, 121500, Note_on_c, 2, 67, 90
4, 121529, Note_on_c, 2, 67, 0
4, 121530, Note_on_c, 2, 65, 90
4, 121559, Note_on_c, 2, 65, 0
4, 121560, Note_on_c, 2, 67, 90
4, 121589, Note_on_c, 2, 67, 0
4, 121590, Note_on_c, 2, 65, 90
4, 121619, Note_on_c, 2, 65, 0
4, 121620, Note_on_c, 2, 67, 90
4, 121739, Note_on_c, 2, 67, 0
4, 121770, Note_on_c, 2, 68, 90
4, 121799, Note_on_c, 2, 68, 0
4, 121800, Note_on_c, 2, 67, 90
4, 121829, Note_on_c, 2, 67, 0
4, 121830, Note_on_c, 2, 68, 90
4, 121859, Note_on_c, 2, 68, 0
4, 121860, Note_on_c, 2, 67, 90
4, 121889, Note_on_c, 2, 67, 0
4, 121890, Note_on_c, 2, 68, 90
4, 121919, Note_on_c, 2, 68, 0
4, 121920, Note_on_c, 2, 67, 90
4, 121949, Note_on_c, 2, 67, 0
4, 121950, Note_on_c, 2, 68, 90
4, 121979, Note_on_c, 2, 68, 0
4, 121980, Note_on_c, 2, 66, 90
4, 122009, Note_on_c, 2, 66, 0
4, 122010, Note_on_c, 2, 67, 90
4, 122039, Note_on_c, 2, 67, 0
4, 122040, Note_on_c, 2, 66, 90
4, 122069, Note_on_c, 2, 66, 0
4, 122070, Note_on_c, 2, 67, 90
4, 122099, Note_on_c, 2, 67, 0
4, 122100, Note_on_c, 2, 69, 90
4, 122159, Note_on_c, 2, 69, 0
4, 122160, Note_on_c, 2, 66, 90
4, 122219, Note_on_c, 2, 66, 0
4, 122220, Note_on_c, 2, 62, 90
4, 122279, Note_on_c, 2, 62, 0
4, 122280, Note_on_c, 2, 67, 90
4, 122339, Note_on_c, 2, 67, 0
4, 122340, Note_on_c, 2, 71, 90
4, 122399, Note_on_c, 2, 71, 0
4, 122400, Note_on_c, 2, 59, 90
4, 122459, Note_on_c, 2, 59, 0
4, 122460, Note_on_c, 2, 60, 90
4, 122579, Note_on_c, 2, 60, 0
4, 122610, Note_on_c, 2, 65, 90
4, 122639, Note_on_c, 2, 65, 0
4, 122640, Note_on_c, 2, 63, 90
4, 122669, Note_on_c, 2, 63, 0
4, 122670, Note_on_c, 2, 62, 90
4, 122699, Note_on_c, 2, 62, 0
4, 122700, Note_on_c, 2, 60, 90
4, 122759, Note_on_c, 2, 60, 0
4, 122760, Note_on_c, 2, 62, 90
4, 122819, Note_on_c, 2, 62, 0
4, 122820, Note_on_c, 2, 63, 90
4, 122879, Note_on_c, 2, 63, 0
4, 122880, Note_on_c, 2, 62, 90
4, 122939, Note_on_c, 2, 62, 0
4, 122940, Note_on_c, 2, 63, 90
4, 123059, Note_on_c, 2, 63, 0
4, 123059, End_track
5, 0, Start_track
5, 0, MIDI_port, 0
5, 0, Title_t, "cello"
5, 0, Program_c, 3, 42
5, 0, Note_on_c, 3, 48, 100
5, 120, Note_on_c, 3, 48, 0
5, 240, Note_on_c, 3, 48, 100
5, 360, Note_on_c, 3, 48, 0
5, 480, Note_on_c, 3, 48, 100
5, 540, Note_on_c, 3, 48, 0
5, 540, Note_on_c, 3, 60, 100
5, 600, Note_on_c, 3, 60, 0
5, 600, Note_on_c, 3, 56, 100
5, 660, Note_on_c, 3, 56, 0
5, 660, Note_on_c, 3, 53, 100
5, 720, Note_on_c, 3, 53, 0
5, 720, Note_on_c, 3, 46, 100
5, 780, Note_on_c, 3, 46, 0
5, 780, Note_on_c, 3, 58, 100
5, 840, Note_on_c, 3, 58, 0
5, 960, Note_on_c, 3, 46, 100
5, 1080, Note_on_c, 3, 46, 0
5, 1200, Note_on_c, 3, 46, 100
5, 1320, Note_on_c, 3, 46, 0
5, 1440, Note_on_c, 3, 46, 100
5, 1500, Note_on_c, 3, 46, 0
5, 1500, Note_on_c, 3, 58, 100
5, 1560, Note_on_c, 3, 58, 0
5, 1560, Note_on_c, 3, 55, 100
5, 1620, Note_on_c, 3, 55, 0
5, 1620, Note_on_c, 3, 51, 100
5, 1680, Note_on_c, 3, 51, 0
5, 1680, Note_on_c, 3, 44, 100
5, 1740, Note_on_c, 3, 44, 0
5, 1740, Note_on_c, 3, 56, 100
5, 1800, Note_on_c, 3, 56, 0
5, 1920, Note_on_c, 3, 56, 100
5, 1980, Note_on_c, 3, 56, 0
5, 1980, Note_on_c, 3, 60, 100
5, 2010, Note_on_c, 3, 60, 0
5, 2010, Note_on_c, 3, 58, 100
5, 2040, Note_on_c, 3, 58, 0
5, 2040, Note_on_c, 3, 56, 100
5, 2100, Note_on_c, 3, 56, 0
5, 2100, Note_on_c, 3, 60, 100
5, 2130, Note_on_c, 3, 60, 0
5, 2130, Note_on_c, 3, 58, 100
5, 2160, Note_on_c, 3, 58, 0
5, 2160, Note_on_c, 3, 56, 100
5, 2220, Note_on_c, 3, 56, 0
5, 2220, Note_on_c, 3, 60, 100
5, 2250, Note_on_c, 3, 60, 0
5, 2250, Note_on_c, 3, 58, 100
5, 2280, Note_on_c, 3, 58, 0
5, 2280, Note_on_c, 3, 56, 100
5, 2340, Note_on_c, 3, 56, 0
5, 2340, Note_on_c, 3, 55, 100
5, 2370, Note_on_c, 3, 55, 0
5, 2400, Note_on_c, 3, 53, 100
5, 2430, Note_on_c, 3, 53, 0
5, 2460, Note_on_c, 3, 56, 100
5, 2490, Note_on_c, 3, 56, 0
5, 2490, Note_on_c, 3, 55, 100
5, 2520, Note_on_c, 3, 55, 0
5, 2520, Note_on_c, 3, 53, 100
5, 2580, Note_on_c, 3, 53, 0
5, 2580, Note_on_c, 3, 56, 100
5, 2610, Note_on_c, 3, 56, 0
5, 2610, Note_on_c, 3, 55, 100
5, 2640, Note_on_c, 3, 55, 0
5, 2640, Note_on_c, 3, 53, 100
5, 2700, Note_on_c, 3, 53, 0
5, 2700, Note_on_c, 3, 56, 100
5, 2730, Note_on_c, 3, 56, 0
5, 2730, Note_on_c, 3, 55, 100
5, 2760, Note_on_c, 3, 55, 0
5, 2760, Note_on_c, 3, 53, 100
5, 2820, Note_on_c, 3, 53, 0
5, 2820, Note_on_c, 3, 51, 100
5, 2850, Note_on_c, 3, 51, 0
5, 2880, Note_on_c, 3, 49, 100
5, 2910, Note_on_c, 3, 49, 0
5, 2910, Note_on_c, 3, 48, 100
5, 2940, Note_on_c, 3, 48, 0
5, 2940, Note_on_c, 3, 47, 100
5, 2970, Note_on_c, 3, 47, 0
5, 2970, Note_on_c, 3, 48, 100
5, 3000, Note_on_c, 3, 48, 0
5, 3000, Note_on_c, 3, 50, 100
5, 3030, Note_on_c, 3, 50, 0
5, 3030, Note_on_c, 3, 51, 100
5, 3060, Note_on_c, 3, 51, 0
5, 3060, Note_on_c, 3, 53, 100
5, 3180, Note_on_c, 3, 53, 0
5, 3180, Note_on_c, 3, 51, 100
5, 3240, Note_on_c, 3, 51, 0
5, 3240, Note_on_c, 3, 56, 100
5, 3300, Note_on_c, 3, 56, 0
5, 3300, Note_on_c, 3, 53, 100
5, 3360, Note_on_c, 3, 53, 0
5, 3360, Note_on_c, 3, 55, 100
5, 3420, Note_on_c, 3, 55, 0
5, 3420, Note_on_c, 3, 53, 100
5, 3480, Note_on_c, 3, 53, 0
5, 3480, Note_on_c, 3, 55, 100
5, 3540, Note_on_c, 3, 55, 0
5, 3540, Note_on_c, 3, 43, 100
5, 3600, Note_on_c, 3, 43, 0
5, 3600, Note_on_c, 3, 48, 100
5, 3660, Note_on_c, 3, 48, 0
5, 3660, Note_on_c, 3, 43, 100
5, 3720, Note_on_c, 3, 43, 0
5, 3720, Note_on_c, 3, 39, 100
5, 3780, Note_on_c, 3, 39, 0
5, 3780, Note_on_c, 3, 43, 100
5, 3840, Note_on_c, 3, 43, 0
5, 3840, Note_on_c, 3, 36, 100
5, 3960, Note_on_c, 3, 36, 0
5, 4080, Note_on_c, 3, 36, 100
5, 4200, Note_on_c, 3, 36, 0
5, 4320, Note_on_c, 3, 36, 100
5, 4440, Note_on_c, 3, 36, 0
5, 4560, Note_on_c, 3, 36, 100
5, 4620, Note_on_c, 3, 36, 0
5, 4620, Note_on_c, 3, 48, 100
5, 4650, Note_on_c, 3, 48, 0
5, 4650, Note_on_c, 3, 47, 100
5, 4680, Note_on_c, 3, 47, 0
5, 4680, Note_on_c, 3, 48, 100
5, 4710, Note_on_c, 3, 48, 0
5, 4710, Note_on_c, 3, 50, 100
5, 4740, Note_on_c, 3, 50, 0
5, 4740, Note_on_c, 3, 51, 100
5, 4770, Note_on_c, 3, 51, 0
5, 4770, Note_on_c, 3, 53, 100
5, 4800, Note_on_c, 3, 53, 0
5, 4800, Note_on_c, 3, 55, 100
5, 4920, Note_on_c, 3, 55, 0
5, 5040, Note_on_c, 3, 55, 100
5, 5160, Note_on_c, 3, 55, 0
5, 5280, Note_on_c, 3, 55, 100
5, 5400, Note_on_c, 3, 55, 0
5, 5520, Note_on_c, 3, 43, 100
5, 5580, Note_on_c, 3, 43, 0
5, 5580, Note_on_c, 3, 55, 100
5, 5610, Note_on_c, 3, 55, 0
5, 5610, Note_on_c, 3, 53, 100
5, 5640, Note_on_c, 3, 53, 0
5, 5640, Note_on_c, 3, 51, 100
5, 5670, Note_on_c, 3, 51, 0
5, 5670, Note_on_c, 3, 50, 100
5, 5700, Note_on_c, 3, 50, 0
5, 5700, Note_on_c, 3, 48, 100
5, 5730, Note_on_c, 3, 48, 0
5, 5730, Note_on_c, 3, 47, 100
5, 5760, Note_on_c, 3, 47, 0
5, 5760, Note_on_c, 3, 48, 100
5, 5880, Note_on_c, 3, 48, 0
5, 6000, Note_on_c, 3, 48, 100
5, 6120, Note_on_c, 3, 48, 0
5, 6240, Note_on_c, 3, 48, 100
5, 6300, Note_on_c, 3, 48, 0
5, 6300, Note_on_c, 3, 60, 100
5, 6360, Note_on_c, 3, 60, 0
5, 6360, Note_on_c, 3, 56, 100
5, 6420, Note_on_c, 3, 56, 0
5, 6420, Note_on_c, 3, 53, 100
5, 6480, Note_on_c, 3, 53, 0
5, 6480, Note_on_c, 3, 46, 100
5, 6540, Note_on_c, 3, 46, 0
5, 6540, Note_on_c, 3, 58, 100
5, 6600, Note_on_c, 3, 58, 0
5, 7200, Note_on_c, 3, 46, 100
5, 7320, Note_on_c, 3, 46, 0
5, 7440, Note_on_c, 3, 46, 100
5, 7560, Note_on_c, 3, 46, 0
5, 7680, Note_on_c, 3, 46, 100
5, 7740, Note_on_c, 3, 46, 0
5, 7740, Note_on_c, 3, 58, 100
5, 7800, Note_on_c, 3, 58, 0
5, 7800, Note_on_c, 3, 55, 100
5, 7860, Note_on_c, 3, 55, 0
5, 7860, Note_on_c, 3, 51, 100
5, 7920, Note_on_c, 3, 51, 0
5, 7920, Note_on_c, 3, 44, 100
5, 7980, Note_on_c, 3, 44, 0
5, 7980, Note_on_c, 3, 56, 100
5, 8040, Note_on_c, 3, 56, 0
5, 8640, Note_on_c, 3, 56, 100
5, 8700, Note_on_c, 3, 56, 0
5, 8700, Note_on_c, 3, 60, 100
5, 8730, Note_on_c, 3, 60, 0
5, 8730, Note_on_c, 3, 58, 100
5, 8760, Note_on_c, 3, 58, 0
5, 8760, Note_on_c, 3, 56, 100
5, 8790, Note_on_c, 3, 56, 0
5, 8790, Note_on_c, 3, 55, 100
5, 8820, Note_on_c, 3, 55, 0
5, 8820, Note_on_c, 3, 53, 100
5, 8850, Note_on_c, 3, 53, 0
5, 8850, Note_on_c, 3, 51, 100
5, 8880, Note_on_c, 3, 51, 0
5, 8880, Note_on_c, 3, 50, 100
5, 8940, Note_on_c, 3, 50, 0
5, 8940, Note_on_c, 3, 46, 100
5, 9000, Note_on_c, 3, 46, 0
5, 9120, Note_on_c, 3, 55, 100
5, 9180, Note_on_c, 3, 55, 0
5, 9180, Note_on_c, 3, 58, 100
5, 9210, Note_on_c, 3, 58, 0
5, 9210, Note_on_c, 3, 56, 100
5, 9240, Note_on_c, 3, 56, 0
5, 9240, Note_on_c, 3, 55, 100
5, 9270, Note_on_c, 3, 55, 0
5, 9270, Note_on_c, 3, 53, 100
5, 9300, Note_on_c, 3, 53, 0
5, 9300, Note_on_c, 3, 51, 100
5, 9330, Note_on_c, 3, 51, 0
5, 9330, Note_on_c, 3, 50, 100
5, 9360, Note_on_c, 3, 50, 0
5, 9360, Note_on_c, 3, 48, 100
5, 9420, Note_on_c, 3, 48, 0
5, 9420, Note_on_c, 3, 44, 100
5, 9480, Note_on_c, 3, 44, 0
5, 9600, Note_on_c, 3, 53, 100
5, 9660, Note_on_c, 3, 53, 0
5, 9660, Note_on_c, 3, 56, 100
5, 9690, Note_on_c, 3, 56, 0
5, 9690, Note_on_c, 3, 55, 100
5, 9720, Note_on_c, 3, 55, 0
5, 9720, Note_on_c, 3, 53, 100
5, 9780, Note_on_c, 3, 53, 0
5, 9780, Note_on_c, 3, 51, 100
5, 9810, Note_on_c, 3, 51, 0
5, 9840, Note_on_c, 3, 50, 100
5, 9870, Note_on_c, 3, 50, 0
5, 9900, Note_on_c, 3, 53, 100
5, 9930, Note_on_c, 3, 53, 0
5, 9930, Note_on_c, 3, 51, 100
5, 9960, Note_on_c, 3, 51, 0
5, 9960, Note_on_c, 3, 50, 100
5, 10020, Note_on_c, 3, 50, 0
5, 10020, Note_on_c, 3, 46, 100
5, 10050, Note_on_c, 3, 46, 0
5, 10080, Note_on_c, 3, 51, 100
5, 10140, Note_on_c, 3, 51, 0
5, 10140, Note_on_c, 3, 55, 100
5, 10200, Note_on_c, 3, 55, 0
5, 10200, Note_on_c, 3, 60, 100
5, 10260, Note_on_c, 3, 60, 0
5, 10260, Note_on_c, 3, 56, 100
5, 10320, Note_on_c, 3, 56, 0
5, 10320, Note_on_c, 3, 50, 100
5, 10380, Note_on_c, 3, 50, 0
5, 10380, Note_on_c, 3, 46, 100
5, 10440, Note_on_c, 3, 46, 0
5, 10440, Note_on_c, 3, 48, 100
5, 10500, Note_on_c, 3, 48, 0
5, 10500, Note_on_c, 3, 50, 100
5, 10560, Note_on_c, 3, 50, 0
5, 10560, Note_on_c, 3, 51, 100
5, 10680, Note_on_c, 3, 51, 0
5, 10800, Note_on_c, 3, 39, 100
5, 10920, Note_on_c, 3, 39, 0
5, 11040, Note_on_c, 3, 51, 100
5, 11100, Note_on_c, 3, 51, 0
5, 11100, Note_on_c, 3, 63, 100
5, 11160, Note_on_c, 3, 63, 0
5, 11160, Note_on_c, 3, 60, 100
5, 11220, Note_on_c, 3, 60, 0
5, 11220, Note_on_c, 3, 56, 100
5, 11280, Note_on_c, 3, 56, 0
5, 11280, Note_on_c, 3, 53, 100
5, 11340, Note_on_c, 3, 53, 0
5, 11340, Note_on_c, 3, 56, 100
5, 11370, Note_on_c, 3, 56, 0
5, 11370, Note_on_c, 3, 55, 100
5, 11400, Note_on_c, 3, 55, 0
5, 11400, Note_on_c, 3, 53, 100
5, 11430, Note_on_c, 3, 53, 0
5, 11430, Note_on_c, 3, 51, 100
5, 11460, Note_on_c, 3, 51, 0
5, 11460, Note_on_c, 3, 50, 100
5, 11490, Note_on_c, 3, 50, 0
5, 11490, Note_on_c, 3, 48, 100
5, 11520, Note_on_c, 3, 48, 0
5, 11520, Note_on_c, 3, 50, 100
5, 11580, Note_on_c, 3, 50, 0
5, 11580, Note_on_c, 3, 62, 100
5, 11640, Note_on_c, 3, 62, 0
5, 11640, Note_on_c, 3, 58, 100
5, 11700, Note_on_c, 3, 58, 0
5, 11700, Note_on_c, 3, 55, 100
5, 11760, Note_on_c, 3, 55, 0
5, 11760, Note_on_c, 3, 51, 100
5, 11820, Note_on_c, 3, 51, 0
5, 11820, Note_on_c, 3, 55, 100
5, 11850, Note_on_c, 3, 55, 0
5, 11850, Note_on_c, 3, 53, 100
5, 11880, Note_on_c, 3, 53, 0
5, 11880, Note_on_c, 3, 51, 100
5, 11910, Note_on_c, 3, 51, 0
5, 11910, Note_on_c, 3, 50, 100
5, 11940, Note_on_c, 3, 50, 0
5, 11940, Note_on_c, 3, 48, 100
5, 11970, Note_on_c, 3, 48, 0
5, 11970, Note_on_c, 3, 46, 100
5, 12000, Note_on_c, 3, 46, 0
5, 12000, Note_on_c, 3, 48, 100
5, 12060, Note_on_c, 3, 48, 0
5, 12060, Note_on_c, 3, 60, 100
5, 12120, Note_on_c, 3, 60, 0
5, 12120, Note_on_c, 3, 56, 100
5, 12180, Note_on_c, 3, 56, 0
5, 12180, Note_on_c, 3, 53, 100
5, 12240, Note_on_c, 3, 53, 0
5, 12240, Note_on_c, 3, 50, 100
5, 12300, Note_on_c, 3, 50, 0
5, 12300, Note_on_c, 3, 53, 100
5, 12330, Note_on_c, 3, 53, 0
5, 12330, Note_on_c, 3, 51, 100
5, 12360, Note_on_c, 3, 51, 0
5, 12360, Note_on_c, 3, 50, 100
5, 12390, Note_on_c, 3, 50, 0
5, 12390, Note_on_c, 3, 48, 100
5, 12420, Note_on_c, 3, 48, 0
5, 12420, Note_on_c, 3, 46, 100
5, 12450, Note_on_c, 3, 46, 0
5, 12450, Note_on_c, 3, 44, 100
5, 12480, Note_on_c, 3, 44, 0
5, 12480, Note_on_c, 3, 43, 100
5, 12600, Note_on_c, 3, 43, 0
5, 12720, Note_on_c, 3, 44, 100
5, 12840, Note_on_c, 3, 44, 0
5, 12960, Note_on_c, 3, 46, 100
5, 13080, Note_on_c, 3, 46, 0
5, 13200, Note_on_c, 3, 48, 100
5, 13260, Note_on_c, 3, 48, 0
5, 13260, Note_on_c, 3, 51, 100
5, 13290, Note_on_c, 3, 51, 0
5, 13290, Note_on_c, 3, 50, 100
5, 13320, Note_on_c, 3, 50, 0
5, 13320, Note_on_c, 3, 48, 100
5, 13380, Note_on_c, 3, 48, 0
5, 13380, Note_on_c, 3, 51, 100
5, 13410, Note_on_c, 3, 51, 0
5, 13410, Note_on_c, 3, 50, 100
5, 13440, Note_on_c, 3, 50, 0
5, 13440, Note_on_c, 3, 48, 90
5, 13499, Note_on_c, 3, 48, 0
5, 13500, Note_on_c, 3, 51, 90
5, 13529, Note_on_c, 3, 51, 0
5, 13530, Note_on_c, 3, 50, 90
5, 13559, Note_on_c, 3, 50, 0
5, 13560, Note_on_c, 3, 48, 90
5, 13619, Note_on_c, 3, 48, 0
5, 13620, Note_on_c, 3, 53, 90
5, 13649, Note_on_c, 3, 53, 0
5, 13650, Note_on_c, 3, 51, 90
5, 13679, Note_on_c, 3, 51, 0
5, 13680, Note_on_c, 3, 50, 90
5, 13739, Note_on_c, 3, 50, 0
5, 13740, Note_on_c, 3, 53, 90
5, 13769, Note_on_c, 3, 53, 0
5, 13770, Note_on_c, 3, 51, 90
5, 13799, Note_on_c, 3, 51, 0
5, 13800, Note_on_c, 3, 50, 90
5, 13859, Note_on_c, 3, 50, 0
5, 13860, Note_on_c, 3, 53, 90
5, 13889, Note_on_c, 3, 53, 0
5, 13890, Note_on_c, 3, 51, 90
5, 13919, Note_on_c, 3, 51, 0
5, 13920, Note_on_c, 3, 50, 90
5, 13979, Note_on_c, 3, 50, 0
5, 13980, Note_on_c, 3, 53, 90
5, 14009, Note_on_c, 3, 53, 0
5, 14010, Note_on_c, 3, 51, 90
5, 14039, Note_on_c, 3, 51, 0
5, 14040, Note_on_c, 3, 50, 90
5, 14099, Note_on_c, 3, 50, 0
5, 14100, Note_on_c, 3, 46, 90
5, 14159, Note_on_c, 3, 46, 0
5, 14160, Note_on_c, 3, 51, 90
5, 14219, Note_on_c, 3, 51, 0
5, 14220, Note_on_c, 3, 48, 90
5, 14279, Note_on_c, 3, 48, 0
5, 14280, Note_on_c, 3, 44, 90
5, 14339, Note_on_c, 3, 44, 0
5, 14340, Note_on_c, 3, 53, 90
5, 14399, Note_on_c, 3, 53, 0
5, 14400, Note_on_c, 3, 50, 90
5, 14459, Note_on_c, 3, 50, 0
5, 14460, Note_on_c, 3, 46, 90
5, 14519, Note_on_c, 3, 46, 0
5, 14520, Note_on_c, 3, 55, 90
5, 14579, Note_on_c, 3, 55, 0
5, 14580, Note_on_c, 3, 51, 90
5, 14639, Note_on_c, 3, 51, 0
5, 14640, Note_on_c, 3, 48, 90
5, 14699, Note_on_c, 3, 48, 0
5, 14700, Note_on_c, 3, 60, 90
5, 14729, Note_on_c, 3, 60, 0
5, 14730, Note_on_c, 3, 58, 90
5, 14759, Note_on_c, 3, 58, 0
5, 14760, Note_on_c, 3, 56, 90
5, 14789, Note_on_c, 3, 56, 0
5, 14790, Note_on_c, 3, 55, 90
5, 14819, Note_on_c, 3, 55, 0
5, 14820, Note_on_c, 3, 53, 90
5, 14849, Note_on_c, 3, 53, 0
5, 14850, Note_on_c, 3, 56, 90
5, 14879, Note_on_c, 3, 56, 0
5, 14880, Note_on_c, 3, 55, 90
5, 14909, Note_on_c, 3, 55, 0
5, 14910, Note_on_c, 3, 53, 90
5, 14939, Note_on_c, 3, 53, 0
5, 14940, Note_on_c, 3, 51, 90
5, 14969, Note_on_c, 3, 51, 0
5, 14970, Note_on_c, 3, 50, 90
5, 14999, Note_on_c, 3, 50, 0
5, 15000, Note_on_c, 3, 48, 90
5, 15029, Note_on_c, 3, 48, 0
5, 15030, Note_on_c, 3, 46, 90
5, 15059, Note_on_c, 3, 46, 0
5, 15060, Note_on_c, 3, 45, 90
5, 15089, Note_on_c, 3, 45, 0
5, 15090, Note_on_c, 3, 48, 90
5, 15119, Note_on_c, 3, 48, 0
5, 15120, Note_on_c, 3, 46, 90
5, 15179, Note_on_c, 3, 46, 0
5, 15180, Note_on_c, 3, 57, 90
5, 15239, Note_on_c, 3, 57, 0
5, 15240, Note_on_c, 3, 58, 90
5, 15299, Note_on_c, 3, 58, 0
5, 15300, Note_on_c, 3, 46, 90
5, 15359, Note_on_c, 3, 46, 0
5, 15360, Note_on_c, 3, 39, 90
5, 15479, Note_on_c, 3, 39, 0
5, 15600, Note_on_c, 3, 39, 90
5, 15719, Note_on_c, 3, 39, 0
5, 15840, Note_on_c, 3, 39, 90
5, 15899, Note_on_c, 3, 39, 0
5, 15900, Note_on_c, 3, 51, 90
5, 15959, Note_on_c, 3, 51, 0
5, 15960, Note_on_c, 3, 48, 90
5, 16019, Note_on_c, 3, 48, 0
5, 16020, Note_on_c, 3, 44, 90
5, 16079, Note_on_c, 3, 44, 0
5, 16080, Note_on_c, 3, 38, 90
5, 16139, Note_on_c, 3, 38, 0
5, 16140, Note_on_c, 3, 50, 90
5, 16169, Note_on_c, 3, 50, 0
5, 16170, Note_on_c, 3, 51, 90
5, 16199, Note_on_c, 3, 51, 0
5, 16200, Note_on_c, 3, 53, 90
5, 16229, Note_on_c, 3, 53, 0
5, 16230, Note_on_c, 3, 55, 90
5, 16259, Note_on_c, 3, 55, 0
5, 16260, Note_on_c, 3, 56, 90
5, 16319, Note_on_c, 3, 56, 0
5, 16320, Note_on_c, 3, 46, 90
5, 16439, Note_on_c, 3, 46, 0
5, 16560, Note_on_c, 3, 46, 90
5, 16679, Note_on_c, 3, 46, 0
5, 16800, Note_on_c, 3, 46, 90
5, 16859, Note_on_c, 3, 46, 0
5, 16860, Note_on_c, 3, 48, 90
5, 16919, Note_on_c, 3, 48, 0
5, 16920, Note_on_c, 3, 46, 90
5, 16979, Note_on_c, 3, 46, 0
5, 16980, Note_on_c, 3, 44, 90
5, 17039, Note_on_c, 3, 44, 0
5, 17040, Note_on_c, 3, 43, 90
5, 17099, Note_on_c, 3, 43, 0
5, 17100, Note_on_c, 3, 55, 90
5, 17129, Note_on_c, 3, 55, 0
5, 17130, Note_on_c, 3, 56, 90
5, 17159, Note_on_c, 3, 56, 0
5, 17160, Note_on_c, 3, 58, 90
5, 17189, Note_on_c, 3, 58, 0
5, 17190, Note_on_c, 3, 60, 90
5, 17219, Note_on_c, 3, 60, 0
5, 17220, Note_on_c, 3, 61, 90
5, 17279, Note_on_c, 3, 61, 0
5, 17280, Note_on_c, 3, 48, 90
5, 17399, Note_on_c, 3, 48, 0
5, 17520, Note_on_c, 3, 46, 90
5, 17639, Note_on_c, 3, 46, 0
5, 17760, Note_on_c, 3, 45, 90
5, 17819, Note_on_c, 3, 45, 0
5, 17820, Note_on_c, 3, 48, 90
5, 17879, Note_on_c, 3, 48, 0
5, 17880, Note_on_c, 3, 53, 90
5, 17939, Note_on_c, 3, 53, 0
5, 17940, Note_on_c, 3, 41, 90
5, 17999, Note_on_c, 3, 41, 0
5, 18000, Note_on_c, 3, 46, 90
5, 18119, Note_on_c, 3, 46, 0
5, 18240, Note_on_c, 3, 45, 90
5, 18359, Note_on_c, 3, 45, 0
5, 18480, Note_on_c, 3, 43, 90
5, 18599, Note_on_c, 3, 43, 0
5, 18720, Note_on_c, 3, 42, 90
5, 18779, Note_on_c, 3, 42, 0
5, 18780, Note_on_c, 3, 45, 90
5, 18839, Note_on_c, 3, 45, 0
5, 18840, Note_on_c, 3, 50, 90
5, 18899, Note_on_c, 3, 50, 0
5, 18900, Note_on_c, 3, 38, 90
5, 18959, Note_on_c, 3, 38, 0
5, 18960, Note_on_c, 3, 43, 90
5, 19019, Note_on_c, 3, 43, 0
5, 19020, Note_on_c, 3, 46, 90
5, 19079, Note_on_c, 3, 46, 0
5, 19080, Note_on_c, 3, 51, 90
5, 19139, Note_on_c, 3, 51, 0
5, 19140, Note_on_c, 3, 39, 90
5, 19199, Note_on_c, 3, 39, 0
5, 19200, Note_on_c, 3, 45, 90
5, 19259, Note_on_c, 3, 45, 0
5, 19260, Note_on_c, 3, 48, 90
5, 19319, Note_on_c, 3, 48, 0
5, 19320, Note_on_c, 3, 53, 90
5, 19379, Note_on_c, 3, 53, 0
5, 19380, Note_on_c, 3, 41, 90
5, 19439, Note_on_c, 3, 41, 0
5, 19440, Note_on_c, 3, 46, 90
5, 19499, Note_on_c, 3, 46, 0
5, 19500, Note_on_c, 3, 50, 90
5, 19559, Note_on_c, 3, 50, 0
5, 19560, Note_on_c, 3, 55, 90
5, 19619, Note_on_c, 3, 55, 0
5, 19620, Note_on_c, 3, 43, 90
5, 19679, Note_on_c, 3, 43, 0
5, 19680, Note_on_c, 3, 48, 90
5, 19739, Note_on_c, 3, 48, 0
5, 19740, Note_on_c, 3, 51, 90
5, 19799, Note_on_c, 3, 51, 0
5, 19800, Note_on_c, 3, 57, 90
5, 19859, Note_on_c, 3, 57, 0
5, 19860, Note_on_c, 3, 60, 90
5, 19919, Note_on_c, 3, 60, 0
5, 19920, Note_on_c, 3, 50, 90
5, 19979, Note_on_c, 3, 50, 0
5, 19980, Note_on_c, 3, 51, 90
5, 20039, Note_on_c, 3, 51, 0
5, 20040, Note_on_c, 3, 50, 90
5, 20099, Note_on_c, 3, 50, 0
5, 20100, Note_on_c, 3, 48, 90
5, 20159, Note_on_c, 3, 48, 0
5, 20160, Note_on_c, 3, 46, 90
5, 20189, Note_on_c, 3, 46, 0
5, 20220, Note_on_c, 3, 43, 90
5, 20249, Note_on_c, 3, 43, 0
5, 20400, Note_on_c, 3, 55, 90
5, 20429, Note_on_c, 3, 55, 0
5, 20460, Note_on_c, 3, 46, 90
5, 20489, Note_on_c, 3, 46, 0
5, 20640, Note_on_c, 3, 58, 90
5, 20699, Note_on_c, 3, 58, 0
5, 20700, Note_on_c, 3, 55, 90
5, 20759, Note_on_c, 3, 55, 0
5, 20760, Note_on_c, 3, 51, 90
5, 20819, Note_on_c, 3, 51, 0
5, 20820, Note_on_c, 3, 48, 90
5, 20879, Note_on_c, 3, 48, 0
5, 20880, Note_on_c, 3, 41, 90
5, 20909, Note_on_c, 3, 41, 0
5, 20940, Note_on_c, 3, 53, 90
5, 20969, Note_on_c, 3, 53, 0
5, 21120, Note_on_c, 3, 45, 90
5, 21149, Note_on_c, 3, 45, 0
5, 21180, Note_on_c, 3, 41, 90
5, 21209, Note_on_c, 3, 41, 0
5, 21360, Note_on_c, 3, 53, 90
5, 21389, Note_on_c, 3, 53, 0
5, 21420, Note_on_c, 3, 45, 90
5, 21449, Note_on_c, 3, 45, 0
5, 21600, Note_on_c, 3, 57, 90
5, 21659, Note_on_c, 3, 57, 0
5, 21660, Note_on_c, 3, 53, 90
5, 21719, Note_on_c, 3, 53, 0
5, 21720, Note_on_c, 3, 50, 90
5, 21779, Note_on_c, 3, 50, 0
5, 21780, Note_on_c, 3, 46, 90
5, 21839, Note_on_c, 3, 46, 0
5, 21840, Note_on_c, 3, 39, 90
5, 21869, Note_on_c, 3, 39, 0
5, 21900, Note_on_c, 3, 51, 90
5, 21929, Note_on_c, 3, 51, 0
5, 22320, Note_on_c, 3, 51, 90
5, 22349, Note_on_c, 3, 51, 0
5, 22380, Note_on_c, 3, 60, 90
5, 22409, Note_on_c, 3, 60, 0
5, 22800, Note_on_c, 3, 48, 90
5, 22829, Note_on_c, 3, 48, 0
5, 22860, Note_on_c, 3, 56, 90
5, 22889, Note_on_c, 3, 56, 0
5, 23280, Note_on_c, 3, 45, 90
5, 23339, Note_on_c, 3, 45, 0
5, 23340, Note_on_c, 3, 54, 90
5, 23369, Note_on_c, 3, 54, 0
5, 23400, Note_on_c, 3, 55, 90
5, 23429, Note_on_c, 3, 55, 0
5, 23460, Note_on_c, 3, 51, 90
5, 23489, Note_on_c, 3, 51, 0
5, 23520, Note_on_c, 3, 50, 90
5, 23579, Note_on_c, 3, 50, 0
5, 23580, Note_on_c, 3, 48, 90
5, 23639, Note_on_c, 3, 48, 0
5, 23640, Note_on_c, 3, 50, 90
5, 23699, Note_on_c, 3, 50, 0
5, 23700, Note_on_c, 3, 38, 90
5, 23759, Note_on_c, 3, 38, 0
5, 23760, Note_on_c, 3, 43, 90
5, 23789, Note_on_c, 3, 43, 0
5, 23820, Note_on_c, 3, 55, 90
5, 23849, Note_on_c, 3, 55, 0
5, 24000, Note_on_c, 3, 43, 90
5, 24029, Note_on_c, 3, 43, 0
5, 24060, Note_on_c, 3, 55, 90
5, 24089, Note_on_c, 3, 55, 0
5, 24240, Note_on_c, 3, 43, 90
5, 24269, Note_on_c, 3, 43, 0
5, 24300, Note_on_c, 3, 55, 90
5, 24329, Note_on_c, 3, 55, 0
5, 24480, Note_on_c, 3, 43, 90
5, 24509, Note_on_c, 3, 43, 0
5, 24540, Note_on_c, 3, 55, 90
5, 24569, Note_on_c, 3, 55, 0
5, 24600, Note_on_c, 3, 50, 90
5, 24659, Note_on_c, 3, 50, 0
5, 24660, Note_on_c, 3, 53, 90
5, 24719, Note_on_c, 3, 53, 0
5, 24720, Note_on_c, 3, 47, 90
5, 24779, Note_on_c, 3, 47, 0
5, 24780, Note_on_c, 3, 50, 90
5, 24839, Note_on_c, 3, 50, 0
5, 24840, Note_on_c, 3, 43, 90
5, 24899, Note_on_c, 3, 43, 0
5, 24900, Note_on_c, 3, 47, 90
5, 24959, Note_on_c, 3, 47, 0
5, 24960, Note_on_c, 3, 48, 90
5, 25079, Note_on_c, 3, 48, 0
5, 25200, Note_on_c, 3, 48, 90
5, 25319, Note_on_c, 3, 48, 0
5, 25440, Note_on_c, 3, 48, 90
5, 25499, Note_on_c, 3, 48, 0
5, 25500, Note_on_c, 3, 50, 90
5, 25559, Note_on_c, 3, 50, 0
5, 25560, Note_on_c, 3, 51, 90
5, 25619, Note_on_c, 3, 51, 0
5, 25620, Note_on_c, 3, 48, 90
5, 25679, Note_on_c, 3, 48, 0
5, 25680, Note_on_c, 3, 50, 90
5, 25710, Note_on_c, 3, 50, 0
5, 25740, Note_on_c, 3, 38, 90
5, 25770, Note_on_c, 3, 38, 0
5, 25920, Note_on_c, 3, 50, 90
5, 25950, Note_on_c, 3, 50, 0
5, 25980, Note_on_c, 3, 38, 90
5, 26010, Note_on_c, 3, 38, 0
5, 26160, Note_on_c, 3, 50, 90
5, 26190, Note_on_c, 3, 50, 0
5, 26220, Note_on_c, 3, 38, 90
5, 26250, Note_on_c, 3, 38, 0
5, 26400, Note_on_c, 3, 50, 90
5, 26430, Note_on_c, 3, 50, 0
5, 26460, Note_on_c, 3, 62, 90
5, 26490, Note_on_c, 3, 62, 0
5, 26520, Note_on_c, 3, 57, 90
5, 26579, Note_on_c, 3, 57, 0
5, 26580, Note_on_c, 3, 60, 90
5, 26639, Note_on_c, 3, 60, 0
5, 26640, Note_on_c, 3, 54, 90
5, 26699, Note_on_c, 3, 54, 0
5, 26700, Note_on_c, 3, 57, 90
5, 26759, Note_on_c, 3, 57, 0
5, 26760, Note_on_c, 3, 50, 90
5, 26819, Note_on_c, 3, 50, 0
5, 26820, Note_on_c, 3, 54, 90
5, 26879, Note_on_c, 3, 54, 0
5, 26880, Note_on_c, 3, 46, 90
5, 26939, Note_on_c, 3, 46, 0
5, 26940, Note_on_c, 3, 62, 90
5, 26969, Note_on_c, 3, 62, 0
5, 26970, Note_on_c, 3, 60, 90
5, 26999, Note_on_c, 3, 60, 0
5, 27000, Note_on_c, 3, 58, 90
5, 27059, Note_on_c, 3, 58, 0
5, 27060, Note_on_c, 3, 62, 90
5, 27089, Note_on_c, 3, 62, 0
5, 27090, Note_on_c, 3, 60, 90
5, 27119, Note_on_c, 3, 60, 0
5, 27120, Note_on_c, 3, 58, 90
5, 27179, Note_on_c, 3, 58, 0
5, 27180, Note_on_c, 3, 62, 90
5, 27209, Note_on_c, 3, 62, 0
5, 27210, Note_on_c, 3, 60, 90
5, 27239, Note_on_c, 3, 60, 0
5, 27240, Note_on_c, 3, 58, 90
5, 27299, Note_on_c, 3, 58, 0
5, 27300, Note_on_c, 3, 57, 90
5, 27330, Note_on_c, 3, 57, 0
5, 27360, Note_on_c, 3, 55, 90
5, 27390, Note_on_c, 3, 55, 0
5, 27420, Note_on_c, 3, 58, 90
5, 27449, Note_on_c, 3, 58, 0
5, 27450, Note_on_c, 3, 56, 90
5, 27479, Note_on_c, 3, 56, 0
5, 27480, Note_on_c, 3, 55, 90
5, 27539, Note_on_c, 3, 55, 0
5, 27540, Note_on_c, 3, 58, 90
5, 27569, Note_on_c, 3, 58, 0
5, 27570, Note_on_c, 3, 56, 90
5, 27599, Note_on_c, 3, 56, 0
5, 27600, Note_on_c, 3, 55, 90
5, 27659, Note_on_c, 3, 55, 0
5, 27660, Note_on_c, 3, 58, 90
5, 27689, Note_on_c, 3, 58, 0
5, 27690, Note_on_c, 3, 56, 90
5, 27719, Note_on_c, 3, 56, 0
5, 27720, Note_on_c, 3, 55, 90
5, 27779, Note_on_c, 3, 55, 0
5, 27780, Note_on_c, 3, 53, 90
5, 27810, Note_on_c, 3, 53, 0
5, 27840, Note_on_c, 3, 51, 90
5, 27870, Note_on_c, 3, 51, 0
5, 27900, Note_on_c, 3, 55, 90
5, 27929, Note_on_c, 3, 55, 0
5, 27930, Note_on_c, 3, 53, 90
5, 27959, Note_on_c, 3, 53, 0
5, 27960, Note_on_c, 3, 51, 90
5, 28019, Note_on_c, 3, 51, 0
5, 28020, Note_on_c, 3, 55, 90
5, 28049, Note_on_c, 3, 55, 0
5, 28050, Note_on_c, 3, 53, 90
5, 28079, Note_on_c, 3, 53, 0
5, 28080, Note_on_c, 3, 51, 90
5, 28139, Note_on_c, 3, 51, 0
5, 28140, Note_on_c, 3, 55, 90
5, 28169, Note_on_c, 3, 55, 0
5, 28170, Note_on_c, 3, 53, 90
5, 28199, Note_on_c, 3, 53, 0
5, 28200, Note_on_c, 3, 51, 90
5, 28259, Note_on_c, 3, 51, 0
5, 28260, Note_on_c, 3, 50, 90
5, 28290, Note_on_c, 3, 50, 0
5, 28320, Note_on_c, 3, 48, 90
5, 28350, Note_on_c, 3, 48, 0
5, 28380, Note_on_c, 3, 51, 90
5, 28410, Note_on_c, 3, 51, 0
5, 28440, Note_on_c, 3, 55, 90
5, 28470, Note_on_c, 3, 55, 0
5, 28500, Note_on_c, 3, 58, 90
5, 28530, Note_on_c, 3, 58, 0
5, 28560, Note_on_c, 3, 57, 90
5, 28619, Note_on_c, 3, 57, 0
5, 28620, Note_on_c, 3, 53, 90
5, 28679, Note_on_c, 3, 53, 0
5, 28680, Note_on_c, 3, 55, 90
5, 28739, Note_on_c, 3, 55, 0
5, 28740, Note_on_c, 3, 57, 90
5, 28799, Note_on_c, 3, 57, 0
5, 28800, Note_on_c, 3, 58, 90
5, 28919, Note_on_c, 3, 58, 0
5, 29040, Note_on_c, 3, 46, 90
5, 29159, Note_on_c, 3, 46, 0
5, 29280, Note_on_c, 3, 46, 90
5, 29310, Note_on_c, 3, 46, 0
5, 29340, Note_on_c, 3, 58, 90
5, 29370, Note_on_c, 3, 58, 0
5, 29400, Note_on_c, 3, 55, 90
5, 29430, Note_on_c, 3, 55, 0
5, 29460, Note_on_c, 3, 51, 90
5, 29490, Note_on_c, 3, 51, 0
5, 29520, Note_on_c, 3, 48, 90
5, 29579, Note_on_c, 3, 48, 0
5, 29580, Note_on_c, 3, 51, 90
5, 29609, Note_on_c, 3, 51, 0
5, 29610, Note_on_c, 3, 50, 90
5, 29639, Note_on_c, 3, 50, 0
5, 29640, Note_on_c, 3, 48, 90
5, 29669, Note_on_c, 3, 48, 0
5, 29670, Note_on_c, 3, 46, 90
5, 29699, Note_on_c, 3, 46, 0
5, 29700, Note_on_c, 3, 45, 90
5, 29729, Note_on_c, 3, 45, 0
5, 29730, Note_on_c, 3, 43, 90
5, 29759, Note_on_c, 3, 43, 0
5, 29760, Note_on_c, 3, 45, 90
5, 29790, Note_on_c, 3, 45, 0
5, 29820, Note_on_c, 3, 57, 90
5, 29850, Note_on_c, 3, 57, 0
5, 29880, Note_on_c, 3, 53, 90
5, 29910, Note_on_c, 3, 53, 0
5, 29940, Note_on_c, 3, 50, 90
5, 29970, Note_on_c, 3, 50, 0
5, 30000, Note_on_c, 3, 46, 90
5, 30059, Note_on_c, 3, 46, 0
5, 30060, Note_on_c, 3, 50, 90
5, 30089, Note_on_c, 3, 50, 0
5, 30090, Note_on_c, 3, 48, 90
5, 30119, Note_on_c, 3, 48, 0
5, 30120, Note_on_c, 3, 46, 90
5, 30149, Note_on_c, 3, 46, 0
5, 30150, Note_on_c, 3, 45, 90
5, 30179, Note_on_c, 3, 45, 0
5, 30180, Note_on_c, 3, 43, 90
5, 30209, Note_on_c, 3, 43, 0
5, 30210, Note_on_c, 3, 41, 90
5, 30239, Note_on_c, 3, 41, 0
5, 30240, Note_on_c, 3, 43, 90
5, 30270, Note_on_c, 3, 43, 0
5, 30300, Note_on_c, 3, 55, 90
5, 30330, Note_on_c, 3, 55, 0
5, 30360, Note_on_c, 3, 51, 90
5, 30390, Note_on_c, 3, 51, 0
5, 30420, Note_on_c, 3, 48, 90
5, 30450, Note_on_c, 3, 48, 0
5, 30480, Note_on_c, 3, 45, 90
5, 30539, Note_on_c, 3, 45, 0
5, 30540, Note_on_c, 3, 48, 90
5, 30569, Note_on_c, 3, 48, 0
5, 30570, Note_on_c, 3, 46, 90
5, 30599, Note_on_c, 3, 46, 0
5, 30600, Note_on_c, 3, 45, 90
5, 30629, Note_on_c, 3, 45, 0
5, 30630, Note_on_c, 3, 43, 90
5, 30659, Note_on_c, 3, 43, 0
5, 30660, Note_on_c, 3, 41, 90
5, 30689, Note_on_c, 3, 41, 0
5, 30690, Note_on_c, 3, 39, 90
5, 30719, Note_on_c, 3, 39, 0
5, 30720, Note_on_c, 3, 38, 90
5, 30839, Note_on_c, 3, 38, 0
5, 30960, Note_on_c, 3, 39, 90
5, 31079, Note_on_c, 3, 39, 0
5, 31200, Note_on_c, 3, 41, 90
5, 31319, Note_on_c, 3, 41, 0
5, 31440, Note_on_c, 3, 43, 90
5, 31499, Note_on_c, 3, 43, 0
5, 31500, Note_on_c, 3, 46, 90
5, 31529, Note_on_c, 3, 46, 0
5, 31530, Note_on_c, 3, 44, 90
5, 31559, Note_on_c, 3, 44, 0
5, 31560, Note_on_c, 3, 43, 90
5, 31619, Note_on_c, 3, 43, 0
5, 31620, Note_on_c, 3, 46, 90
5, 31649, Note_on_c, 3, 46, 0
5, 31650, Note_on_c, 3, 44, 90
5, 31679, Note_on_c, 3, 44, 0
5, 31680, Note_on_c, 3, 43, 90
5, 31739, Note_on_c, 3, 43, 0
5, 31740, Note_on_c, 3, 46, 90
5, 31769, Note_on_c, 3, 46, 0
5, 31770, Note_on_c, 3, 44, 90
5, 31799, Note_on_c, 3, 44, 0
5, 31800, Note_on_c, 3, 43, 90
5, 31859, Note_on_c, 3, 43, 0
5, 31860, Note_on_c, 3, 48, 90
5, 31889, Note_on_c, 3, 48, 0
5, 31890, Note_on_c, 3, 46, 90
5, 31919, Note_on_c, 3, 46, 0
5, 31920, Note_on_c, 3, 45, 90
5, 31979, Note_on_c, 3, 45, 0
5, 31980, Note_on_c, 3, 48, 90
5, 32009, Note_on_c, 3, 48, 0
5, 32010, Note_on_c, 3, 46, 90
5, 32039, Note_on_c, 3, 46, 0
5, 32040, Note_on_c, 3, 45, 90
5, 32099, Note_on_c, 3, 45, 0
5, 32100, Note_on_c, 3, 48, 90
5, 32129, Note_on_c, 3, 48, 0
5, 32130, Note_on_c, 3, 46, 90
5, 32159, Note_on_c, 3, 46, 0
5, 32160, Note_on_c, 3, 45, 90
5, 32219, Note_on_c, 3, 45, 0
5, 32220, Note_on_c, 3, 48, 90
5, 32249, Note_on_c, 3, 48, 0
5, 32250, Note_on_c, 3, 46, 90
5, 32279, Note_on_c, 3, 46, 0
5, 32280, Note_on_c, 3, 45, 90
5, 32339, Note_on_c, 3, 45, 0
5, 32340, Note_on_c, 3, 41, 90
5, 32399, Note_on_c, 3, 41, 0
5, 32400, Note_on_c, 3, 46, 90
5, 32430, Note_on_c, 3, 46, 0
5, 32460, Note_on_c, 3, 43, 90
5, 32490, Note_on_c, 3, 43, 0
5, 32520, Note_on_c, 3, 39, 90
5, 32550, Note_on_c, 3, 39, 0
5, 32580, Note_on_c, 3, 48, 90
5, 32610, Note_on_c, 3, 48, 0
5, 32640, Note_on_c, 3, 45, 90
5, 32670, Note_on_c, 3, 45, 0
5, 32700, Note_on_c, 3, 41, 90
5, 32730, Note_on_c, 3, 41, 0
5, 32760, Note_on_c, 3, 50, 90
5, 32790, Note_on_c, 3, 50, 0
5, 32820, Note_on_c, 3, 46, 90
5, 32850, Note_on_c, 3, 46, 0
5, 32880, Note_on_c, 3, 43, 90
5, 32939, Note_on_c, 3, 43, 0
5, 32940, Note_on_c, 3, 55, 90
5, 32969, Note_on_c, 3, 55, 0
5, 32970, Note_on_c, 3, 53, 90
5, 32999, Note_on_c, 3, 53, 0
5, 33000, Note_on_c, 3, 51, 90
5, 33029, Note_on_c, 3, 51, 0
5, 33030, Note_on_c, 3, 50, 90
5, 33059, Note_on_c, 3, 50, 0
5, 33060, Note_on_c, 3, 48, 90
5, 33089, Note_on_c, 3, 48, 0
5, 33090, Note_on_c, 3, 51, 90
5, 33119, Note_on_c, 3, 51, 0
5, 33120, Note_on_c, 3, 50, 90
5, 33149, Note_on_c, 3, 50, 0
5, 33150, Note_on_c, 3, 48, 90
5, 33179, Note_on_c, 3, 48, 0
5, 33180, Note_on_c, 3, 46, 90
5, 33209, Note_on_c, 3, 46, 0
5, 33210, Note_on_c, 3, 45, 90
5, 33239, Note_on_c, 3, 45, 0
5, 33240, Note_on_c, 3, 43, 90
5, 33269, Note_on_c, 3, 43, 0
5, 33270, Note_on_c, 3, 41, 90
5, 33299, Note_on_c, 3, 41, 0
5, 33300, Note_on_c, 3, 40, 90
5, 33329, Note_on_c, 3, 40, 0
5, 33330, Note_on_c, 3, 43, 90
5, 33359, Note_on_c, 3, 43, 0
5, 33360, Note_on_c, 3, 41, 90
5, 33419, Note_on_c, 3, 41, 0
5, 33420, Note_on_c, 3, 52, 90
5, 33479, Note_on_c, 3, 52, 0
5, 33480, Note_on_c, 3, 53, 90
5, 33539, Note_on_c, 3, 53, 0
5, 33540, Note_on_c, 3, 41, 90
5, 33599, Note_on_c, 3, 41, 0
5, 33600, Note_on_c, 3, 46, 90
5, 33719, Note_on_c, 3, 46, 0
5, 33840, Note_on_c, 3, 46, 90
5, 33959, Note_on_c, 3, 46, 0
5, 34080, Note_on_c, 3, 46, 90
5, 34110, Note_on_c, 3, 46, 0
5, 34140, Note_on_c, 3, 58, 90
5, 34170, Note_on_c, 3, 58, 0
5, 34200, Note_on_c, 3, 55, 90
5, 34230, Note_on_c, 3, 55, 0
5, 34260, Note_on_c, 3, 51, 90
5, 34290, Note_on_c, 3, 51, 0
5, 34320, Note_on_c, 3, 45, 90
5, 34379, Note_on_c, 3, 45, 0
5, 34380, Note_on_c, 3, 57, 90
5, 34409, Note_on_c, 3, 57, 0
5, 34410, Note_on_c, 3, 58, 90
5, 34439, Note_on_c, 3, 58, 0
5, 34440, Note_on_c, 3, 60, 90
5, 34469, Note_on_c, 3, 60, 0
5, 34470, Note_on_c, 3, 62, 90
5, 34499, Note_on_c, 3, 62, 0
5, 34500, Note_on_c, 3, 63, 90
5, 34559, Note_on_c, 3, 63, 0
5, 34560, Note_on_c, 3, 53, 90
5, 34679, Note_on_c, 3, 53, 0
5, 34800, Note_on_c, 3, 41, 90
5, 34919, Note_on_c, 3, 41, 0
5, 35040, Note_on_c, 3, 53, 90
5, 35099, Note_on_c, 3, 53, 0
5, 35100, Note_on_c, 3, 55, 90
5, 35159, Note_on_c, 3, 55, 0
5, 35160, Note_on_c, 3, 53, 90
5, 35219, Note_on_c, 3, 53, 0
5, 35220, Note_on_c, 3, 51, 90
5, 35279, Note_on_c, 3, 51, 0
5, 35280, Note_on_c, 3, 50, 90
5, 35309, Note_on_c, 3, 50, 0
5, 35310, Note_on_c, 3, 48, 90
5, 35339, Note_on_c, 3, 48, 0
5, 35340, Note_on_c, 3, 50, 90
5, 35369, Note_on_c, 3, 50, 0
5, 35370, Note_on_c, 3, 51, 90
5, 35399, Note_on_c, 3, 51, 0
5, 35400, Note_on_c, 3, 53, 90
5, 35429, Note_on_c, 3, 53, 0
5, 35430, Note_on_c, 3, 55, 90
5, 35459, Note_on_c, 3, 55, 0
5, 35460, Note_on_c, 3, 56, 90
5, 35519, Note_on_c, 3, 56, 0
5, 35520, Note_on_c, 3, 43, 90
5, 35639, Note_on_c, 3, 43, 0
5, 35760, Note_on_c, 3, 44, 90
5, 35879, Note_on_c, 3, 44, 0
5, 36000, Note_on_c, 3, 46, 90
5, 36119, Note_on_c, 3, 46, 0
5, 36240, Note_on_c, 3, 48, 90
5, 36359, Note_on_c, 3, 48, 0
5, 36480, Note_on_c, 3, 50, 90
5, 36599, Note_on_c, 3, 50, 0
5, 36720, Note_on_c, 3, 52, 90
5, 36839, Note_on_c, 3, 52, 0
5, 36960, Note_on_c, 3, 53, 90
5, 37019, Note_on_c, 3, 53, 0
5, 37020, Note_on_c, 3, 51, 90
5, 37079, Note_on_c, 3, 51, 0
5, 37080, Note_on_c, 3, 49, 90
5, 37139, Note_on_c, 3, 49, 0
5, 37140, Note_on_c, 3, 61, 90
5, 37199, Note_on_c, 3, 61, 0
5, 37200, Note_on_c, 3, 60, 90
5, 37259, Note_on_c, 3, 60, 0
5, 37260, Note_on_c, 3, 58, 90
5, 37319, Note_on_c, 3, 58, 0
5, 37320, Note_on_c, 3, 56, 90
5, 37379, Note_on_c, 3, 56, 0
5, 37380, Note_on_c, 3, 55, 90
5, 37439, Note_on_c, 3, 55, 0
5, 37440, Note_on_c, 3, 53, 90
5, 37559, Note_on_c, 3, 53, 0
5, 37680, Note_on_c, 3, 53, 90
5, 37799, Note_on_c, 3, 53, 0
5, 37920, Note_on_c, 3, 53, 90
5, 38039, Note_on_c, 3, 53, 0
5, 38160, Note_on_c, 3, 53, 90
5, 38219, Note_on_c, 3, 53, 0
5, 38220, Note_on_c, 3, 41, 90
5, 38249, Note_on_c, 3, 41, 0
5, 38250, Note_on_c, 3, 40, 90
5, 38279, Note_on_c, 3, 40, 0
5, 38280, Note_on_c, 3, 41, 90
5, 38309, Note_on_c, 3, 41, 0
5, 38310, Note_on_c, 3, 43, 90
5, 38339, Note_on_c, 3, 43, 0
5, 38340, Note_on_c, 3, 44, 90
5, 38369, Note_on_c, 3, 44, 0
5, 38370, Note_on_c, 3, 46, 90
5, 38399, Note_on_c, 3, 46, 0
5, 38400, Note_on_c, 3, 48, 90
5, 38519, Note_on_c, 3, 48, 0
5, 38640, Note_on_c, 3, 48, 90
5, 38759, Note_on_c, 3, 48, 0
5, 38880, Note_on_c, 3, 48, 90
5, 38999, Note_on_c, 3, 48, 0
5, 39120, Note_on_c, 3, 48, 90
5, 39179, Note_on_c, 3, 48, 0
5, 39180, Note_on_c, 3, 60, 90
5, 39209, Note_on_c, 3, 60, 0
5, 39210, Note_on_c, 3, 58, 90
5, 39239, Note_on_c, 3, 58, 0
5, 39240, Note_on_c, 3, 56, 90
5, 39269, Note_on_c, 3, 56, 0
5, 39270, Note_on_c, 3, 55, 90
5, 39299, Note_on_c, 3, 55, 0
5, 39300, Note_on_c, 3, 53, 90
5, 39329, Note_on_c, 3, 53, 0
5, 39330, Note_on_c, 3, 52, 90
5, 39359, Note_on_c, 3, 52, 0
5, 39360, Note_on_c, 3, 53, 90
5, 39479, Note_on_c, 3, 53, 0
5, 39600, Note_on_c, 3, 51, 90
5, 39719, Note_on_c, 3, 51, 0
5, 39840, Note_on_c, 3, 50, 90
5, 39899, Note_on_c, 3, 50, 0
5, 39900, Note_on_c, 3, 53, 90
5, 39959, Note_on_c, 3, 53, 0
5, 39960, Note_on_c, 3, 58, 90
5, 40019, Note_on_c, 3, 58, 0
5, 40020, Note_on_c, 3, 46, 90
5, 40079, Note_on_c, 3, 46, 0
5, 40080, Note_on_c, 3, 51, 90
5, 40199, Note_on_c, 3, 51, 0
5, 40320, Note_on_c, 3, 50, 90
5, 40439, Note_on_c, 3, 50, 0
5, 40560, Note_on_c, 3, 48, 90
5, 40679, Note_on_c, 3, 48, 0
5, 40800, Note_on_c, 3, 47, 90
5, 40859, Note_on_c, 3, 47, 0
5, 40860, Note_on_c, 3, 50, 90
5, 40919, Note_on_c, 3, 50, 0
5, 40920, Note_on_c, 3, 55, 90
5, 40979, Note_on_c, 3, 55, 0
5, 40980, Note_on_c, 3, 43, 90
5, 41039, Note_on_c, 3, 43, 0
5, 41040, Note_on_c, 3, 48, 90
5, 41099, Note_on_c, 3, 48, 0
5, 41100, Note_on_c, 3, 51, 90
5, 41159, Note_on_c, 3, 51, 0
5, 41160, Note_on_c, 3, 56, 90
5, 41219, Note_on_c, 3, 56, 0
5, 41220, Note_on_c, 3, 44, 90
5, 41279, Note_on_c, 3, 44, 0
5, 41280, Note_on_c, 3, 50, 90
5, 41339, Note_on_c, 3, 50, 0
5, 41340, Note_on_c, 3, 53, 90
5, 41399, Note_on_c, 3, 53, 0
5, 41400, Note_on_c, 3, 58, 90
5, 41459, Note_on_c, 3, 58, 0
5, 41460, Note_on_c, 3, 46, 90
5, 41519, Note_on_c, 3, 46, 0
5, 41520, Note_on_c, 3, 51, 90
5, 41579, Note_on_c, 3, 51, 0
5, 41580, Note_on_c, 3, 55, 90
5, 41639, Note_on_c, 3, 55, 0
5, 41640, Note_on_c, 3, 60, 90
5, 41699, Note_on_c, 3, 60, 0
5, 41700, Note_on_c, 3, 48, 90
5, 41759, Note_on_c, 3, 48, 0
5, 41760, Note_on_c, 3, 53, 90
5, 41819, Note_on_c, 3, 53, 0
5, 41820, Note_on_c, 3, 56, 90
5, 41879, Note_on_c, 3, 56, 0
5, 41880, Note_on_c, 3, 50, 90
5, 41939, Note_on_c, 3, 50, 0
5, 41940, Note_on_c, 3, 53, 90
5, 41999, Note_on_c, 3, 53, 0
5, 42000, Note_on_c, 3, 55, 90
5, 42059, Note_on_c, 3, 55, 0
5, 42060, Note_on_c, 3, 56, 90
5, 42119, Note_on_c, 3, 56, 0
5, 42120, Note_on_c, 3, 55, 90
5, 42179, Note_on_c, 3, 55, 0
5, 42180, Note_on_c, 3, 53, 90
5, 42239, Note_on_c, 3, 53, 0
5, 42240, Note_on_c, 3, 51, 90
5, 42270, Note_on_c, 3, 51, 0
5, 42300, Note_on_c, 3, 48, 90
5, 42330, Note_on_c, 3, 48, 0
5, 42480, Note_on_c, 3, 60, 90
5, 42510, Note_on_c, 3, 60, 0
5, 42540, Note_on_c, 3, 51, 90
5, 42570, Note_on_c, 3, 51, 0
5, 42720, Note_on_c, 3, 63, 90
5, 42779, Note_on_c, 3, 63, 0
5, 42780, Note_on_c, 3, 60, 90
5, 42839, Note_on_c, 3, 60, 0
5, 42840, Note_on_c, 3, 56, 90
5, 42899, Note_on_c, 3, 56, 0
5, 42900, Note_on_c, 3, 53, 90
5, 42959, Note_on_c, 3, 53, 0
5, 42960, Note_on_c, 3, 46, 90
5, 42990, Note_on_c, 3, 46, 0
5, 43020, Note_on_c, 3, 58, 90
5, 43050, Note_on_c, 3, 58, 0
5, 43200, Note_on_c, 3, 50, 90
5, 43230, Note_on_c, 3, 50, 0
5, 43260, Note_on_c, 3, 46, 90
5, 43290, Note_on_c, 3, 46, 0
5, 43440, Note_on_c, 3, 58, 90
5, 43470, Note_on_c, 3, 58, 0
5, 43500, Note_on_c, 3, 50, 90
5, 43530, Note_on_c, 3, 50, 0
5, 43680, Note_on_c, 3, 62, 90
5, 43739, Note_on_c, 3, 62, 0
5, 43740, Note_on_c, 3, 58, 90
5, 43799, Note_on_c, 3, 58, 0
5, 43800, Note_on_c, 3, 55, 90
5, 43859, Note_on_c, 3, 55, 0
5, 43860, Note_on_c, 3, 51, 90
5, 43919, Note_on_c, 3, 51, 0
5, 43920, Note_on_c, 3, 44, 90
5, 43950, Note_on_c, 3, 44, 0
5, 43980, Note_on_c, 3, 56, 90
5, 44010, Note_on_c, 3, 56, 0
5, 44400, Note_on_c, 3, 44, 90
5, 44430, Note_on_c, 3, 44, 0
5, 44460, Note_on_c, 3, 53, 90
5, 44490, Note_on_c, 3, 53, 0
5, 44880, Note_on_c, 3, 41, 90
5, 44910, Note_on_c, 3, 41, 0
5, 44940, Note_on_c, 3, 49, 90
5, 44970, Note_on_c, 3, 49, 0
5, 45360, Note_on_c, 3, 38, 90
5, 45419, Note_on_c, 3, 38, 0
5, 45420, Note_on_c, 3, 47, 90
5, 45479, Note_on_c, 3, 47, 0
5, 45480, Note_on_c, 3, 48, 90
5, 45539, Note_on_c, 3, 48, 0
5, 45540, Note_on_c, 3, 56, 90
5, 45599, Note_on_c, 3, 56, 0
5, 45600, Note_on_c, 3, 55, 90
5, 45659, Note_on_c, 3, 55, 0
5, 45660, Note_on_c, 3, 53, 90
5, 45719, Note_on_c, 3, 53, 0
5, 45720, Note_on_c, 3, 55, 90
5, 45779, Note_on_c, 3, 55, 0
5, 45780, Note_on_c, 3, 43, 90
5, 45839, Note_on_c, 3, 43, 0
5, 45840, Note_on_c, 3, 38, 90
5, 45870, Note_on_c, 3, 38, 0
5, 45900, Note_on_c, 3, 50, 90
5, 45930, Note_on_c, 3, 50, 0
5, 46080, Note_on_c, 3, 38, 90
5, 46110, Note_on_c, 3, 38, 0
5, 46140, Note_on_c, 3, 50, 90
5, 46170, Note_on_c, 3, 50, 0
5, 46320, Note_on_c, 3, 38, 90
5, 46350, Note_on_c, 3, 38, 0
5, 46380, Note_on_c, 3, 50, 90
5, 46410, Note_on_c, 3, 50, 0
5, 46560, Note_on_c, 3, 50, 90
5, 46590, Note_on_c, 3, 50, 0
5, 46620, Note_on_c, 3, 62, 90
5, 46650, Note_on_c, 3, 62, 0
5, 46680, Note_on_c, 3, 57, 90
5, 46739, Note_on_c, 3, 57, 0
5, 46740, Note_on_c, 3, 60, 90
5, 46799, Note_on_c, 3, 60, 0
5, 46800, Note_on_c, 3, 54, 90
5, 46859, Note_on_c, 3, 54, 0
5, 46860, Note_on_c, 3, 57, 90
5, 46919, Note_on_c, 3, 57, 0
5, 46920, Note_on_c, 3, 50, 90
5, 46979, Note_on_c, 3, 50, 0
5, 46980, Note_on_c, 3, 54, 90
5, 47039, Note_on_c, 3, 54, 0
5, 47040, Note_on_c, 3, 55, 90
5, 47099, Note_on_c, 3, 55, 0
5, 47100, Note_on_c, 3, 50, 90
5, 47159, Note_on_c, 3, 50, 0
5, 47160, Note_on_c, 3, 47, 90
5, 47219, Note_on_c, 3, 47, 0
5, 47220, Note_on_c, 3, 48, 90
5, 47279, Note_on_c, 3, 48, 0
5, 47280, Note_on_c, 3, 53, 90
5, 47309, Note_on_c, 3, 53, 0
5, 47310, Note_on_c, 3, 51, 90
5, 47339, Note_on_c, 3, 51, 0
5, 47340, Note_on_c, 3, 50, 90
5, 47369, Note_on_c, 3, 50, 0
5, 47370, Note_on_c, 3, 48, 90
5, 47399, Note_on_c, 3, 48, 0
5, 47400, Note_on_c, 3, 47, 90
5, 47459, Note_on_c, 3, 47, 0
5, 47460, Note_on_c, 3, 48, 90
5, 47519, Note_on_c, 3, 48, 0
5, 47520, Note_on_c, 3, 43, 90
5, 47579, Note_on_c, 3, 43, 0
5, 47580, Note_on_c, 3, 55, 90
5, 47639, Note_on_c, 3, 55, 0
5, 47640, Note_on_c, 3, 50, 90
5, 47699, Note_on_c, 3, 50, 0
5, 47700, Note_on_c, 3, 47, 90
5, 47759, Note_on_c, 3, 47, 0
5, 47760, Note_on_c, 3, 43, 90
5, 47790, Note_on_c, 3, 43, 0
5, 47820, Note_on_c, 3, 55, 90
5, 47850, Note_on_c, 3, 55, 0
5, 48000, Note_on_c, 3, 43, 90
5, 48030, Note_on_c, 3, 43, 0
5, 48060, Note_on_c, 3, 55, 90
5, 48090, Note_on_c, 3, 55, 0
5, 48240, Note_on_c, 3, 43, 90
5, 48270, Note_on_c, 3, 43, 0
5, 48300, Note_on_c, 3, 55, 90
5, 48330, Note_on_c, 3, 55, 0
5, 48480, Note_on_c, 3, 43, 90
5, 48510, Note_on_c, 3, 43, 0
5, 48540, Note_on_c, 3, 55, 90
5, 48570, Note_on_c, 3, 55, 0
5, 48600, Note_on_c, 3, 50, 90
5, 48659, Note_on_c, 3, 50, 0
5, 48660, Note_on_c, 3, 53, 90
5, 48719, Note_on_c, 3, 53, 0
5, 48720, Note_on_c, 3, 47, 90
5, 48779, Note_on_c, 3, 47, 0
5, 48780, Note_on_c, 3, 50, 90
5, 48839, Note_on_c, 3, 50, 0
5, 48840, Note_on_c, 3, 43, 90
5, 48899, Note_on_c, 3, 43, 0
5, 48900, Note_on_c, 3, 47, 90
5, 48959, Note_on_c, 3, 47, 0
5, 48960, Note_on_c, 3, 36, 90
5, 49079, Note_on_c, 3, 36, 0
5, 49200, Note_on_c, 3, 36, 90
5, 49319, Note_on_c, 3, 36, 0
5, 49440, Note_on_c, 3, 48, 90
5, 49499, Note_on_c, 3, 48, 0
5, 49500, Note_on_c, 3, 60, 90
5, 49559, Note_on_c, 3, 60, 0
5, 49560, Note_on_c, 3, 56, 90
5, 49619, Note_on_c, 3, 56, 0
5, 49620, Note_on_c, 3, 53, 90
5, 49679, Note_on_c, 3, 53, 0
5, 49680, Note_on_c, 3, 46, 90
5, 49739, Note_on_c, 3, 46, 0
5, 49740, Note_on_c, 3, 58, 90
5, 49799, Note_on_c, 3, 58, 0
5, 49920, Note_on_c, 3, 46, 90
5, 50039, Note_on_c, 3, 46, 0
5, 50160, Note_on_c, 3, 46, 90
5, 50279, Note_on_c, 3, 46, 0
5, 50400, Note_on_c, 3, 46, 90
5, 50459, Note_on_c, 3, 46, 0
5, 50460, Note_on_c, 3, 58, 90
5, 50519, Note_on_c, 3, 58, 0
5, 50520, Note_on_c, 3, 55, 90
5, 50579, Note_on_c, 3, 55, 0
5, 50580, Note_on_c, 3, 51, 90
5, 50639, Note_on_c, 3, 51, 0
5, 50640, Note_on_c, 3, 44, 90
5, 50699, Note_on_c, 3, 44, 0
5, 50700, Note_on_c, 3, 56, 90
5, 50759, Note_on_c, 3, 56, 0
5, 50880, Note_on_c, 3, 56, 90
5, 50939, Note_on_c, 3, 56, 0
5, 50940, Note_on_c, 3, 60, 90
5, 50969, Note_on_c, 3, 60, 0
5, 50970, Note_on_c, 3, 58, 90
5, 50999, Note_on_c, 3, 58, 0
5, 51000, Note_on_c, 3, 56, 90
5, 51059, Note_on_c, 3, 56, 0
5, 51060, Note_on_c, 3, 60, 90
5, 51089, Note_on_c, 3, 60, 0
5, 51090, Note_on_c, 3, 58, 90
5, 51119, Note_on_c, 3, 58, 0
5, 51120, Note_on_c, 3, 56, 90
5, 51179, Note_on_c, 3, 56, 0
5, 51180, Note_on_c, 3, 60, 90
5, 51209, Note_on_c, 3, 60, 0
5, 51210, Note_on_c, 3, 58, 90
5, 51239, Note_on_c, 3, 58, 0
5, 51240, Note_on_c, 3, 56, 90
5, 51299, Note_on_c, 3, 56, 0
5, 51300, Note_on_c, 3, 55, 90
5, 51330, Note_on_c, 3, 55, 0
5, 51360, Note_on_c, 3, 53, 90
5, 51390, Note_on_c, 3, 53, 0
5, 51420, Note_on_c, 3, 56, 90
5, 51449, Note_on_c, 3, 56, 0
5, 51450, Note_on_c, 3, 55, 90
5, 51479, Note_on_c, 3, 55, 0
5, 51480, Note_on_c, 3, 53, 90
5, 51539, Note_on_c, 3, 53, 0
5, 51540, Note_on_c, 3, 56, 90
5, 51569, Note_on_c, 3, 56, 0
5, 51570, Note_on_c, 3, 55, 90
5, 51599, Note_on_c, 3, 55, 0
5, 51600, Note_on_c, 3, 53, 90
5, 51659, Note_on_c, 3, 53, 0
5, 51660, Note_on_c, 3, 56, 90
5, 51689, Note_on_c, 3, 56, 0
5, 51690, Note_on_c, 3, 55, 90
5, 51719, Note_on_c, 3, 55, 0
5, 51720, Note_on_c, 3, 53, 90
5, 51779, Note_on_c, 3, 53, 0
5, 51780, Note_on_c, 3, 51, 90
5, 51810, Note_on_c, 3, 51, 0
5, 51840, Note_on_c, 3, 49, 90
5, 51869, Note_on_c, 3, 49, 0
5, 51870, Note_on_c, 3, 48, 90
5, 51899, Note_on_c, 3, 48, 0
5, 51900, Note_on_c, 3, 47, 90
5, 51929, Note_on_c, 3, 47, 0
5, 51930, Note_on_c, 3, 48, 90
5, 51959, Note_on_c, 3, 48, 0
5, 51960, Note_on_c, 3, 50, 90
5, 51989, Note_on_c, 3, 50, 0
5, 51990, Note_on_c, 3, 51, 90
5, 52019, Note_on_c, 3, 51, 0
5, 52020, Note_on_c, 3, 53, 90
5, 52139, Note_on_c, 3, 53, 0
5, 52140, Note_on_c, 3, 51, 90
5, 52199, Note_on_c, 3, 51, 0
5, 52200, Note_on_c, 3, 56, 90
5, 52259, Note_on_c, 3, 56, 0
5, 52260, Note_on_c, 3, 53, 90
5, 52319, Note_on_c, 3, 53, 0
5, 52320, Note_on_c, 3, 55, 90
5, 52379, Note_on_c, 3, 55, 0
5, 52380, Note_on_c, 3, 53, 90
5, 52439, Note_on_c, 3, 53, 0
5, 52440, Note_on_c, 3, 55, 90
5, 52499, Note_on_c, 3, 55, 0
5, 52500, Note_on_c, 3, 43, 90
5, 52559, Note_on_c, 3, 43, 0
5, 52560, Note_on_c, 3, 36, 90
5, 52799, Note_on_c, 3, 36, 0
5, 80880, Note_on_c, 3, 60, 90
5, 80939, Note_on_c, 3, 60, 0
5, 80940, Note_on_c, 3, 58, 90
5, 80969, Note_on_c, 3, 58, 0
5, 80970, Note_on_c, 3, 60, 90
5, 80999, Note_on_c, 3, 60, 0
5, 81000, Note_on_c, 3, 58, 90
5, 81029, Note_on_c, 3, 58, 0
5, 81030, Note_on_c, 3, 60, 90
5, 81059, Note_on_c, 3, 60, 0
5, 81060, Note_on_c, 3, 56, 90
5, 81089, Note_on_c, 3, 56, 0
5, 81090, Note_on_c, 3, 58, 90
5, 81119, Note_on_c, 3, 58, 0
5, 81120, Note_on_c, 3, 56, 90
5, 81149, Note_on_c, 3, 56, 0
5, 81150, Note_on_c, 3, 58, 90
5, 81179, Note_on_c, 3, 58, 0
5, 81180, Note_on_c, 3, 55, 90
5, 81239, Note_on_c, 3, 55, 0
5, 81240, Note_on_c, 3, 50, 90
5, 81299, Note_on_c, 3, 50, 0
5, 81300, Note_on_c, 3, 43, 90
5, 81359, Note_on_c, 3, 43, 0
5, 81360, Note_on_c, 3, 53, 90
5, 81419, Note_on_c, 3, 53, 0
5, 81420, Note_on_c, 3, 51, 90
5, 81449, Note_on_c, 3, 51, 0
5, 81450, Note_on_c, 3, 53, 90
5, 81479, Note_on_c, 3, 53, 0
5, 81480, Note_on_c, 3, 51, 90
5, 81509, Note_on_c, 3, 51, 0
5, 81510, Note_on_c, 3, 53, 90
5, 81539, Note_on_c, 3, 53, 0
5, 81540, Note_on_c, 3, 50, 90
5, 81569, Note_on_c, 3, 50, 0
5, 81570, Note_on_c, 3, 51, 90
5, 81599, Note_on_c, 3, 51, 0
5, 81600, Note_on_c, 3, 50, 90
5, 81629, Note_on_c, 3, 50, 0
5, 81630, Note_on_c, 3, 51, 90
5, 81659, Note_on_c, 3, 51, 0
5, 81660, Note_on_c, 3, 48, 90
5, 81689, Note_on_c, 3, 48, 0
5, 81690, Note_on_c, 3, 50, 90
5, 81719, Note_on_c, 3, 50, 0
5, 81720, Note_on_c, 3, 48, 90
5, 81749, Note_on_c, 3, 48, 0
5, 81750, Note_on_c, 3, 50, 90
5, 81779, Note_on_c, 3, 50, 0
5, 81780, Note_on_c, 3, 46, 90
5, 81809, Note_on_c, 3, 46, 0
5, 81810, Note_on_c, 3, 48, 90
5, 81839, Note_on_c, 3, 48, 0
5, 81840, Note_on_c, 3, 46, 90
5, 81869, Note_on_c, 3, 46, 0
5, 81870, Note_on_c, 3, 48, 90
5, 81899, Note_on_c, 3, 48, 0
5, 81900, Note_on_c, 3, 44, 90
5, 81929, Note_on_c, 3, 44, 0
5, 81930, Note_on_c, 3, 46, 90
5, 81959, Note_on_c, 3, 46, 0
5, 81960, Note_on_c, 3, 44, 90
5, 81989, Note_on_c, 3, 44, 0
5, 81990, Note_on_c, 3, 46, 90
5, 82019, Note_on_c, 3, 46, 0
5, 82020, Note_on_c, 3, 43, 90
5, 82049, Note_on_c, 3, 43, 0
5, 82050, Note_on_c, 3, 44, 90
5, 82079, Note_on_c, 3, 44, 0
5, 82080, Note_on_c, 3, 43, 90
5, 82109, Note_on_c, 3, 43, 0
5, 82110, Note_on_c, 3, 44, 90
5, 82139, Note_on_c, 3, 44, 0
5, 82140, Note_on_c, 3, 41, 90
5, 82169, Note_on_c, 3, 41, 0
5, 82170, Note_on_c, 3, 40, 90
5, 82199, Note_on_c, 3, 40, 0
5, 82200, Note_on_c, 3, 41, 90
5, 82229, Note_on_c, 3, 41, 0
5, 82230, Note_on_c, 3, 43, 90
5, 82259, Note_on_c, 3, 43, 0
5, 82260, Note_on_c, 3, 44, 90
5, 82289, Note_on_c, 3, 44, 0
5, 82290, Note_on_c, 3, 46, 90
5, 82319, Note_on_c, 3, 46, 0
5, 82320, Note_on_c, 3, 48, 90
5, 82349, Note_on_c, 3, 48, 0
5, 82350, Note_on_c, 3, 50, 90
5, 82379, Note_on_c, 3, 50, 0
5, 82380, Note_on_c, 3, 52, 90
5, 82439, Note_on_c, 3, 52, 0
5, 82440, Note_on_c, 3, 55, 90
5, 82499, Note_on_c, 3, 55, 0
5, 82500, Note_on_c, 3, 48, 90
5, 82559, Note_on_c, 3, 48, 0
5, 82560, Note_on_c, 3, 52, 90
5, 82619, Note_on_c, 3, 52, 0
5, 82620, Note_on_c, 3, 53, 90
5, 82679, Note_on_c, 3, 53, 0
5, 82680, Note_on_c, 3, 41, 90
5, 82739, Note_on_c, 3, 41, 0
5, 82740, Note_on_c, 3, 44, 90
5, 82799, Note_on_c, 3, 44, 0
5, 82800, Note_on_c, 3, 48, 90
5, 82859, Note_on_c, 3, 48, 0
5, 82860, Note_on_c, 3, 52, 90
5, 82919, Note_on_c, 3, 52, 0
5, 82920, Note_on_c, 3, 55, 90
5, 82979, Note_on_c, 3, 55, 0
5, 82980, Note_on_c, 3, 48, 90
5, 83039, Note_on_c, 3, 48, 0
5, 83040, Note_on_c, 3, 52, 90
5, 83099, Note_on_c, 3, 52, 0
5, 83100, Note_on_c, 3, 53, 90
5, 83159, Note_on_c, 3, 53, 0
5, 83160, Note_on_c, 3, 41, 90
5, 83219, Note_on_c, 3, 41, 0
5, 83220, Note_on_c, 3, 44, 90
5, 83279, Note_on_c, 3, 44, 0
5, 83280, Note_on_c, 3, 48, 90
5, 83339, Note_on_c, 3, 48, 0
5, 83340, Note_on_c, 3, 50, 90
5, 83399, Note_on_c, 3, 50, 0
5, 83400, Note_on_c, 3, 53, 90
5, 83459, Note_on_c, 3, 53, 0
5, 83460, Note_on_c, 3, 46, 90
5, 83519, Note_on_c, 3, 46, 0
5, 83520, Note_on_c, 3, 50, 90
5, 83579, Note_on_c, 3, 50, 0
5, 83580, Note_on_c, 3, 51, 90
5, 83639, Note_on_c, 3, 51, 0
5, 83640, Note_on_c, 3, 39, 90
5, 83699, Note_on_c, 3, 39, 0
5, 83700, Note_on_c, 3, 43, 90
5, 83759, Note_on_c, 3, 43, 0
5, 83760, Note_on_c, 3, 46, 90
5, 83819, Note_on_c, 3, 46, 0
5, 83820, Note_on_c, 3, 50, 90
5, 83879, Note_on_c, 3, 50, 0
5, 83880, Note_on_c, 3, 53, 90
5, 83939, Note_on_c, 3, 53, 0
5, 83940, Note_on_c, 3, 46, 90
5, 83999, Note_on_c, 3, 46, 0
5, 84000, Note_on_c, 3, 50, 90
5, 84059, Note_on_c, 3, 50, 0
5, 84060, Note_on_c, 3, 39, 90
5, 84119, Note_on_c, 3, 39, 0
5, 84120, Note_on_c, 3, 51, 90
5, 84179, Note_on_c, 3, 51, 0
5, 84180, Note_on_c, 3, 55, 90
5, 84239, Note_on_c, 3, 55, 0
5, 84240, Note_on_c, 3, 51, 90
5, 84299, Note_on_c, 3, 51, 0
5, 84300, Note_on_c, 3, 50, 90
5, 84359, Note_on_c, 3, 50, 0
5, 84360, Note_on_c, 3, 56, 90
5, 84419, Note_on_c, 3, 56, 0
5, 84420, Note_on_c, 3, 48, 90
5, 84479, Note_on_c, 3, 48, 0
5, 84480, Note_on_c, 3, 56, 90
5, 84539, Note_on_c, 3, 56, 0
5, 84540, Note_on_c, 3, 47, 90
5, 84569, Note_on_c, 3, 47, 0
5, 84570, Note_on_c, 3, 45, 90
5, 84599, Note_on_c, 3, 45, 0
5, 84600, Note_on_c, 3, 47, 90
5, 84629, Note_on_c, 3, 47, 0
5, 84630, Note_on_c, 3, 45, 90
5, 84659, Note_on_c, 3, 45, 0
5, 84660, Note_on_c, 3, 43, 90
5, 84689, Note_on_c, 3, 43, 0
5, 84690, Note_on_c, 3, 45, 90
5, 84719, Note_on_c, 3, 45, 0
5, 84720, Note_on_c, 3, 47, 90
5, 84749, Note_on_c, 3, 47, 0
5, 84750, Note_on_c, 3, 43, 90
5, 84779, Note_on_c, 3, 43, 0
5, 84780, Note_on_c, 3, 48, 90
5, 84839, Note_on_c, 3, 48, 0
5, 84840, Note_on_c, 3, 55, 90
5, 84899, Note_on_c, 3, 55, 0
5, 84900, Note_on_c, 3, 46, 90
5, 84959, Note_on_c, 3, 46, 0
5, 84960, Note_on_c, 3, 55, 90
5, 85019, Note_on_c, 3, 55, 0
5, 85020, Note_on_c, 3, 45, 90
5, 85049, Note_on_c, 3, 45, 0
5, 85050, Note_on_c, 3, 43, 90
5, 85079, Note_on_c, 3, 43, 0
5, 85080, Note_on_c, 3, 45, 90
5, 85109, Note_on_c, 3, 45, 0
5, 85110, Note_on_c, 3, 43, 90
5, 85139, Note_on_c, 3, 43, 0
5, 85140, Note_on_c, 3, 42, 90
5, 85169, Note_on_c, 3, 42, 0
5, 85170, Note_on_c, 3, 43, 90
5, 85199, Note_on_c, 3, 43, 0
5, 85200, Note_on_c, 3, 45, 90
5, 85229, Note_on_c, 3, 45, 0
5, 85230, Note_on_c, 3, 42, 90
5, 85259, Note_on_c, 3, 42, 0
5, 85260, Note_on_c, 3, 43, 90
5, 85289, Note_on_c, 3, 43, 0
5, 85290, Note_on_c, 3, 44, 90
5, 85319, Note_on_c, 3, 44, 0
5, 85320, Note_on_c, 3, 43, 90
5, 85349, Note_on_c, 3, 43, 0
5, 85350, Note_on_c, 3, 44, 90
5, 85379, Note_on_c, 3, 44, 0
5, 85380, Note_on_c, 3, 43, 90
5, 85409, Note_on_c, 3, 43, 0
5, 85410, Note_on_c, 3, 44, 90
5, 85439, Note_on_c, 3, 44, 0
5, 85440, Note_on_c, 3, 41, 90
5, 85469, Note_on_c, 3, 41, 0
5, 85470, Note_on_c, 3, 43, 90
5, 85499, Note_on_c, 3, 43, 0
5, 85500, Note_on_c, 3, 44, 90
5, 85529, Note_on_c, 3, 44, 0
5, 85530, Note_on_c, 3, 56, 90
5, 85559, Note_on_c, 3, 56, 0
5, 85560, Note_on_c, 3, 55, 90
5, 85589, Note_on_c, 3, 55, 0
5, 85590, Note_on_c, 3, 53, 90
5, 85619, Note_on_c, 3, 53, 0
5, 85620, Note_on_c, 3, 51, 90
5, 85649, Note_on_c, 3, 51, 0
5, 85650, Note_on_c, 3, 56, 90
5, 85679, Note_on_c, 3, 56, 0
5, 85680, Note_on_c, 3, 55, 90
5, 85709, Note_on_c, 3, 55, 0
5, 85710, Note_on_c, 3, 53, 90
5, 85739, Note_on_c, 3, 53, 0
5, 85740, Note_on_c, 3, 51, 90
5, 85769, Note_on_c, 3, 51, 0
5, 85770, Note_on_c, 3, 56, 90
5, 85799, Note_on_c, 3, 56, 0
5, 85800, Note_on_c, 3, 55, 90
5, 85829, Note_on_c, 3, 55, 0
5, 85830, Note_on_c, 3, 53, 90
5, 85859, Note_on_c, 3, 53, 0
5, 85860, Note_on_c, 3, 55, 90
5, 85919, Note_on_c, 3, 55, 0
5, 85920, Note_on_c, 3, 43, 90
5, 85979, Note_on_c, 3, 43, 0
5, 85980, Note_on_c, 3, 48, 90
5, 86039, Note_on_c, 3, 48, 0
5, 86040, Note_on_c, 3, 43, 90
5, 86099, Note_on_c, 3, 43, 0
5, 86100, Note_on_c, 3, 36, 90
5, 86159, Note_on_c, 3, 36, 0
5, 86640, Note_on_c, 3, 48, 90
5, 86669, Note_on_c, 3, 48, 0
5, 86670, Note_on_c, 3, 50, 90
5, 86699, Note_on_c, 3, 50, 0
5, 86700, Note_on_c, 3, 51, 90
5, 86759, Note_on_c, 3, 51, 0
5, 86760, Note_on_c, 3, 48, 90
5, 86819, Note_on_c, 3, 48, 0
5, 86820, Note_on_c, 3, 55, 90
5, 86879, Note_on_c, 3, 55, 0
5, 86880, Note_on_c, 3, 43, 90
5, 86939, Note_on_c, 3, 43, 0
5, 86940, Note_on_c, 3, 48, 90
5, 86999, Note_on_c, 3, 48, 0
5, 87000, Note_on_c, 3, 43, 90
5, 87059, Note_on_c, 3, 43, 0
5, 87060, Note_on_c, 3, 36, 90
5, 87119, Note_on_c, 3, 36, 0
5, 87600, Note_on_c, 3, 51, 90
5, 87629, Note_on_c, 3, 51, 0
5, 87630, Note_on_c, 3, 53, 90
5, 87659, Note_on_c, 3, 53, 0
5, 87660, Note_on_c, 3, 55, 90
5, 87719, Note_on_c, 3, 55, 0
5, 87720, Note_on_c, 3, 51, 90
5, 87779, Note_on_c, 3, 51, 0
5, 87780, Note_on_c, 3, 58, 90
5, 87839, Note_on_c, 3, 58, 0
5, 87840, Note_on_c, 3, 46, 90
5, 87899, Note_on_c, 3, 46, 0
5, 87900, Note_on_c, 3, 51, 90
5, 87959, Note_on_c, 3, 51, 0
5, 87960, Note_on_c, 3, 46, 90
5, 88019, Note_on_c, 3, 46, 0
5, 88020, Note_on_c, 3, 39, 90
5, 88079, Note_on_c, 3, 39, 0
5, 88080, Note_on_c, 3, 51, 90
5, 88139, Note_on_c, 3, 51, 0
5, 88140, Note_on_c, 3, 56, 90
5, 88199, Note_on_c, 3, 56, 0
5, 88200, Note_on_c, 3, 53, 90
5, 88259, Note_on_c, 3, 53, 0
5, 88260, Note_on_c, 3, 50, 90
5, 88319, Note_on_c, 3, 50, 0
5, 88320, Note_on_c, 3, 46, 90
5, 88379, Note_on_c, 3, 46, 0
5, 88440, Note_on_c, 3, 51, 90
5, 88469, Note_on_c, 3, 51, 0
5, 88470, Note_on_c, 3, 50, 90
5, 88499, Note_on_c, 3, 50, 0
5, 88500, Note_on_c, 3, 48, 90
5, 88559, Note_on_c, 3, 48, 0
5, 88560, Note_on_c, 3, 44, 90
5, 88590, Note_on_c, 3, 44, 0
5, 88620, Note_on_c, 3, 50, 90
5, 88679, Note_on_c, 3, 50, 0
5, 88680, Note_on_c, 3, 48, 90
5, 88739, Note_on_c, 3, 48, 0
5, 88740, Note_on_c, 3, 47, 90
5, 88799, Note_on_c, 3, 47, 0
5, 88800, Note_on_c, 3, 43, 90
5, 88859, Note_on_c, 3, 43, 0
5, 88920, Note_on_c, 3, 48, 90
5, 88949, Note_on_c, 3, 48, 0
5, 88950, Note_on_c, 3, 46, 90
5, 88979, Note_on_c, 3, 46, 0
5, 88980, Note_on_c, 3, 45, 90
5, 89039, Note_on_c, 3, 45, 0
5, 89040, Note_on_c, 3, 43, 90
5, 89070, Note_on_c, 3, 43, 0
5, 89100, Note_on_c, 3, 42, 90
5, 89159, Note_on_c, 3, 42, 0
5, 89160, Note_on_c, 3, 54, 90
5, 89219, Note_on_c, 3, 54, 0
5, 89220, Note_on_c, 3, 55, 90
5, 89279, Note_on_c, 3, 55, 0
5, 89280, Note_on_c, 3, 51, 90
5, 89339, Note_on_c, 3, 51, 0
5, 89340, Note_on_c, 3, 50, 90
5, 89970, Note_on_c, 3, 50, 0
5, 89970, Note_on_c, 3, 51, 90
5, 89999, Note_on_c, 3, 51, 0
5, 90000, Note_on_c, 3, 48, 90
5, 90029, Note_on_c, 3, 48, 0
5, 90030, Note_on_c, 3, 50, 90
5, 90059, Note_on_c, 3, 50, 0
5, 90060, Note_on_c, 3, 46, 90
5, 90089, Note_on_c, 3, 46, 0
5, 90090, Note_on_c, 3, 48, 90
5, 90119, Note_on_c, 3, 48, 0
5, 90120, Note_on_c, 3, 46, 90
5, 90149, Note_on_c, 3, 46, 0
5, 90150, Note_on_c, 3, 48, 90
5, 90179, Note_on_c, 3, 48, 0
5, 90180, Note_on_c, 3, 45, 90
5, 90209, Note_on_c, 3, 45, 0
5, 90210, Note_on_c, 3, 46, 90
5, 90239, Note_on_c, 3, 46, 0
5, 90240, Note_on_c, 3, 45, 90
5, 90269, Note_on_c, 3, 45, 0
5, 90270, Note_on_c, 3, 46, 90
5, 90299, Note_on_c, 3, 46, 0
5, 90300, Note_on_c, 3, 43, 90
5, 90359, Note_on_c, 3, 43, 0
5, 90360, Note_on_c, 3, 62, 90
5, 90419, Note_on_c, 3, 62, 0
5, 90420, Note_on_c, 3, 58, 90
5, 90479, Note_on_c, 3, 58, 0
5, 90480, Note_on_c, 3, 55, 90
5, 90539, Note_on_c, 3, 55, 0
5, 90540, Note_on_c, 3, 53, 90
5, 90569, Note_on_c, 3, 53, 0
5, 90570, Note_on_c, 3, 55, 90
5, 90599, Note_on_c, 3, 55, 0
5, 90600, Note_on_c, 3, 53, 90
5, 90629, Note_on_c, 3, 53, 0
5, 90630, Note_on_c, 3, 55, 90
5, 90659, Note_on_c, 3, 55, 0
5, 90660, Note_on_c, 3, 51, 90
5, 90689, Note_on_c, 3, 51, 0
5, 90690, Note_on_c, 3, 53, 90
5, 90719, Note_on_c, 3, 53, 0
5, 90720, Note_on_c, 3, 51, 90
5, 90749, Note_on_c, 3, 51, 0
5, 90750, Note_on_c, 3, 53, 90
5, 90779, Note_on_c, 3, 53, 0
5, 90780, Note_on_c, 3, 50, 90
5, 90839, Note_on_c, 3, 50, 0
5, 90840, Note_on_c, 3, 45, 90
5, 90899, Note_on_c, 3, 45, 0
5, 90900, Note_on_c, 3, 38, 90
5, 90959, Note_on_c, 3, 38, 0
5, 91440, Note_on_c, 3, 50, 90
5, 91499, Note_on_c, 3, 50, 0
5, 91500, Note_on_c, 3, 55, 90
5, 91559, Note_on_c, 3, 55, 0
5, 91560, Note_on_c, 3, 46, 90
5, 91619, Note_on_c, 3, 46, 0
5, 91620, Note_on_c, 3, 48, 90
5, 91679, Note_on_c, 3, 48, 0
5, 91680, Note_on_c, 3, 50, 90
5, 91739, Note_on_c, 3, 50, 0
5, 91740, Note_on_c, 3, 43, 90
5, 91799, Note_on_c, 3, 43, 0
5, 91800, Note_on_c, 3, 50, 90
5, 91859, Note_on_c, 3, 50, 0
5, 91860, Note_on_c, 3, 55, 90
5, 91919, Note_on_c, 3, 55, 0
5, 92400, Note_on_c, 3, 55, 90
5, 92459, Note_on_c, 3, 55, 0
5, 92460, Note_on_c, 3, 60, 90
5, 92519, Note_on_c, 3, 60, 0
5, 92520, Note_on_c, 3, 51, 90
5, 92579, Note_on_c, 3, 51, 0
5, 92580, Note_on_c, 3, 53, 90
5, 92639, Note_on_c, 3, 53, 0
5, 92640, Note_on_c, 3, 55, 90
5, 92699, Note_on_c, 3, 55, 0
5, 92700, Note_on_c, 3, 48, 90
5, 92759, Note_on_c, 3, 48, 0
5, 92760, Note_on_c, 3, 43, 90
5, 92819, Note_on_c, 3, 43, 0
5, 92820, Note_on_c, 3, 36, 90
5, 92879, Note_on_c, 3, 36, 0
5, 92880, Note_on_c, 3, 60, 90
5, 92939, Note_on_c, 3, 60, 0
5, 92940, Note_on_c, 3, 59, 90
5, 92999, Note_on_c, 3, 59, 0
5, 93000, Note_on_c, 3, 62, 90
5, 93059, Note_on_c, 3, 62, 0
5, 93060, Note_on_c, 3, 55, 90
5, 93119, Note_on_c, 3, 55, 0
5, 93120, Note_on_c, 3, 59, 90
5, 93179, Note_on_c, 3, 59, 0
5, 93180, Note_on_c, 3, 60, 90
5, 93239, Note_on_c, 3, 60, 0
5, 93240, Note_on_c, 3, 48, 90
5, 93299, Note_on_c, 3, 48, 0
5, 93300, Note_on_c, 3, 60, 90
5, 93359, Note_on_c, 3, 60, 0
5, 93600, Note_on_c, 3, 55, 90
5, 93659, Note_on_c, 3, 55, 0
5, 93660, Note_on_c, 3, 60, 90
5, 93719, Note_on_c, 3, 60, 0
5, 93720, Note_on_c, 3, 48, 90
5, 93779, Note_on_c, 3, 48, 0
5, 93780, Note_on_c, 3, 60, 90
5, 93839, Note_on_c, 3, 60, 0
5, 93840, Note_on_c, 3, 58, 90
5, 93899, Note_on_c, 3, 58, 0
5, 93900, Note_on_c, 3, 57, 90
5, 93959, Note_on_c, 3, 57, 0
5, 93960, Note_on_c, 3, 60, 90
5, 94019, Note_on_c, 3, 60, 0
5, 94020, Note_on_c, 3, 53, 90
5, 94079, Note_on_c, 3, 53, 0
5, 94080, Note_on_c, 3, 57, 90
5, 94139, Note_on_c, 3, 57, 0
5, 94140, Note_on_c, 3, 58, 90
5, 94199, Note_on_c, 3, 58, 0
5, 94200, Note_on_c, 3, 46, 90
5, 94259, Note_on_c, 3, 46, 0
5, 94260, Note_on_c, 3, 58, 90
5, 94319, Note_on_c, 3, 58, 0
5, 94560, Note_on_c, 3, 53, 90
5, 94619, Note_on_c, 3, 53, 0
5, 94620, Note_on_c, 3, 58, 90
5, 94679, Note_on_c, 3, 58, 0
5, 94680, Note_on_c, 3, 46, 90
5, 94739, Note_on_c, 3, 46, 0
5, 94740, Note_on_c, 3, 58, 90
5, 94799, Note_on_c, 3, 58, 0
5, 94800, Note_on_c, 3, 63, 90
5, 94859, Note_on_c, 3, 63, 0
5, 94860, Note_on_c, 3, 57, 90
5, 94890, Note_on_c, 3, 57, 0
5, 94920, Note_on_c, 3, 63, 90
5, 94950, Note_on_c, 3, 63, 0
5, 94980, Note_on_c, 3, 55, 90
5, 95010, Note_on_c, 3, 55, 0
5, 95040, Note_on_c, 3, 63, 90
5, 95070, Note_on_c, 3, 63, 0
5, 95100, Note_on_c, 3, 54, 90
5, 95129, Note_on_c, 3, 54, 0
5, 95130, Note_on_c, 3, 52, 90
5, 95159, Note_on_c, 3, 52, 0
5, 95160, Note_on_c, 3, 54, 90
5, 95189, Note_on_c, 3, 54, 0
5, 95190, Note_on_c, 3, 52, 90
5, 95219, Note_on_c, 3, 52, 0
5, 95220, Note_on_c, 3, 50, 90
5, 95249, Note_on_c, 3, 50, 0
5, 95250, Note_on_c, 3, 52, 90
5, 95279, Note_on_c, 3, 52, 0
5, 95280, Note_on_c, 3, 54, 90
5, 95309, Note_on_c, 3, 54, 0
5, 95310, Note_on_c, 3, 50, 90
5, 95339, Note_on_c, 3, 50, 0
5, 95340, Note_on_c, 3, 55, 90
5, 95370, Note_on_c, 3, 55, 0
5, 95400, Note_on_c, 3, 62, 90
5, 95430, Note_on_c, 3, 62, 0
5, 95460, Note_on_c, 3, 53, 90
5, 95490, Note_on_c, 3, 53, 0
5, 95520, Note_on_c, 3, 62, 90
5, 95550, Note_on_c, 3, 62, 0
5, 95580, Note_on_c, 3, 52, 90
5, 95609, Note_on_c, 3, 52, 0
5, 95610, Note_on_c, 3, 50, 90
5, 95639, Note_on_c, 3, 50, 0
5, 95640, Note_on_c, 3, 52, 90
5, 95669, Note_on_c, 3, 52, 0
5, 95670, Note_on_c, 3, 50, 90
5, 95699, Note_on_c, 3, 50, 0
5, 95700, Note_on_c, 3, 49, 90
5, 95729, Note_on_c, 3, 49, 0
5, 95730, Note_on_c, 3, 50, 90
5, 95759, Note_on_c, 3, 50, 0
5, 95760, Note_on_c, 3, 52, 90
5, 95789, Note_on_c, 3, 52, 0
5, 95790, Note_on_c, 3, 49, 90
5, 95819, Note_on_c, 3, 49, 0
5, 95820, Note_on_c, 3, 50, 90
5, 95849, Note_on_c, 3, 50, 0
5, 95850, Note_on_c, 3, 51, 90
5, 95879, Note_on_c, 3, 51, 0
5, 95880, Note_on_c, 3, 50, 90
5, 95909, Note_on_c, 3, 50, 0
5, 95910, Note_on_c, 3, 51, 90
5, 95939, Note_on_c, 3, 51, 0
5, 95940, Note_on_c, 3, 50, 90
5, 95969, Note_on_c, 3, 50, 0
5, 95970, Note_on_c, 3, 51, 90
5, 95999, Note_on_c, 3, 51, 0
5, 96000, Note_on_c, 3, 48, 90
5, 96029, Note_on_c, 3, 48, 0
5, 96030, Note_on_c, 3, 50, 90
5, 96059, Note_on_c, 3, 50, 0
5, 96060, Note_on_c, 3, 51, 90
5, 96119, Note_on_c, 3, 51, 0
5, 96120, Note_on_c, 3, 50, 90
5, 96149, Note_on_c, 3, 50, 0
5, 96150, Note_on_c, 3, 48, 90
5, 96179, Note_on_c, 3, 48, 0
5, 96180, Note_on_c, 3, 46, 90
5, 96209, Note_on_c, 3, 46, 0
5, 96210, Note_on_c, 3, 51, 90
5, 96239, Note_on_c, 3, 51, 0
5, 96240, Note_on_c, 3, 50, 90
5, 96269, Note_on_c, 3, 50, 0
5, 96270, Note_on_c, 3, 48, 90
5, 96299, Note_on_c, 3, 48, 0
5, 96300, Note_on_c, 3, 46, 90
5, 96329, Note_on_c, 3, 46, 0
5, 96330, Note_on_c, 3, 51, 90
5, 96359, Note_on_c, 3, 51, 0
5, 96360, Note_on_c, 3, 50, 90
5, 96389, Note_on_c, 3, 50, 0
5, 96390, Note_on_c, 3, 48, 90
5, 96419, Note_on_c, 3, 48, 0
5, 96420, Note_on_c, 3, 50, 90
5, 96479, Note_on_c, 3, 50, 0
5, 96480, Note_on_c, 3, 38, 90
5, 96539, Note_on_c, 3, 38, 0
5, 96540, Note_on_c, 3, 43, 90
5, 96659, Note_on_c, 3, 43, 0
5, 96780, Note_on_c, 3, 55, 90
5, 96899, Note_on_c, 3, 55, 0
5, 96900, Note_on_c, 3, 58, 90
5, 97019, Note_on_c, 3, 58, 0
5, 97020, Note_on_c, 3, 62, 90
5, 97139, Note_on_c, 3, 62, 0
5, 97200, Note_on_c, 3, 60, 90
5, 97259, Note_on_c, 3, 60, 0
5, 97260, Note_on_c, 3, 58, 90
5, 97290, Note_on_c, 3, 58, 0
5, 97320, Note_on_c, 3, 62, 90
5, 97350, Note_on_c, 3, 62, 0
5, 97380, Note_on_c, 3, 55, 90
5, 97410, Note_on_c, 3, 55, 0
5, 97440, Note_on_c, 3, 62, 90
5, 97470, Note_on_c, 3, 62, 0
5, 97500, Note_on_c, 3, 54, 90
5, 97529, Note_on_c, 3, 54, 0
5, 97530, Note_on_c, 3, 52, 90
5, 97559, Note_on_c, 3, 52, 0
5, 97560, Note_on_c, 3, 54, 90
5, 97589, Note_on_c, 3, 54, 0
5, 97590, Note_on_c, 3, 52, 90
5, 97619, Note_on_c, 3, 52, 0
5, 97620, Note_on_c, 3, 50, 90
5, 97679, Note_on_c, 3, 50, 0
5, 97740, Note_on_c, 3, 55, 90
5, 97799, Note_on_c, 3, 55, 0
5, 97860, Note_on_c, 3, 43, 90
5, 97919, Note_on_c, 3, 43, 0
5, 97980, Note_on_c, 3, 45, 90
5, 98099, Note_on_c, 3, 45, 0
5, 98160, Note_on_c, 3, 53, 90
5, 98219, Note_on_c, 3, 53, 0
5, 98220, Note_on_c, 3, 50, 90
5, 98250, Note_on_c, 3, 50, 0
5, 98280, Note_on_c, 3, 53, 90
5, 98310, Note_on_c, 3, 53, 0
5, 98340, Note_on_c, 3, 46, 90
5, 98370, Note_on_c, 3, 46, 0
5, 98400, Note_on_c, 3, 50, 90
5, 98430, Note_on_c, 3, 50, 0
5, 98460, Note_on_c, 3, 45, 90
5, 98489, Note_on_c, 3, 45, 0
5, 98490, Note_on_c, 3, 43, 90
5, 98519, Note_on_c, 3, 43, 0
5, 98520, Note_on_c, 3, 45, 90
5, 98549, Note_on_c, 3, 45, 0
5, 98550, Note_on_c, 3, 43, 90
5, 98579, Note_on_c, 3, 43, 0
5, 98580, Note_on_c, 3, 41, 90
5, 98639, Note_on_c, 3, 41, 0
5, 98760, Note_on_c, 3, 50, 90
5, 98790, Note_on_c, 3, 50, 0
5, 98820, Note_on_c, 3, 38, 90
5, 98850, Note_on_c, 3, 38, 0
5, 99000, Note_on_c, 3, 55, 90
5, 99030, Note_on_c, 3, 55, 0
5, 99060, Note_on_c, 3, 43, 90
5, 99090, Note_on_c, 3, 43, 0
5, 99240, Note_on_c, 3, 48, 90
5, 99270, Note_on_c, 3, 48, 0
5, 99300, Note_on_c, 3, 36, 90
5, 99330, Note_on_c, 3, 36, 0
5, 99480, Note_on_c, 3, 53, 90
5, 99510, Note_on_c, 3, 53, 0
5, 99540, Note_on_c, 3, 41, 90
5, 99570, Note_on_c, 3, 41, 0
5, 99600, Note_on_c, 3, 53, 90
5, 99659, Note_on_c, 3, 53, 0
5, 99660, Note_on_c, 3, 58, 90
5, 99719, Note_on_c, 3, 58, 0
5, 99720, Note_on_c, 3, 55, 90
5, 99779, Note_on_c, 3, 55, 0
5, 99780, Note_on_c, 3, 62, 90
5, 99839, Note_on_c, 3, 62, 0
5, 99840, Note_on_c, 3, 53, 90
5, 99899, Note_on_c, 3, 53, 0
5, 99900, Note_on_c, 3, 55, 90
5, 99959, Note_on_c, 3, 55, 0
5, 99960, Note_on_c, 3, 58, 90
5, 100019, Note_on_c, 3, 58, 0
5, 100020, Note_on_c, 3, 55, 90
5, 100079, Note_on_c, 3, 55, 0
5, 100080, Note_on_c, 3, 52, 90
5, 100139, Note_on_c, 3, 52, 0
5, 100140, Note_on_c, 3, 53, 90
5, 100199, Note_on_c, 3, 53, 0
5, 100200, Note_on_c, 3, 49, 90
5, 100259, Note_on_c, 3, 49, 0
5, 100260, Note_on_c, 3, 46, 90
5, 100319, Note_on_c, 3, 46, 0
5, 100320, Note_on_c, 3, 43, 90
5, 100379, Note_on_c, 3, 43, 0
5, 100380, Note_on_c, 3, 48, 90
5, 100439, Note_on_c, 3, 48, 0
5, 100440, Note_on_c, 3, 43, 90
5, 100499, Note_on_c, 3, 43, 0
5, 100500, Note_on_c, 3, 36, 90
5, 100559, Note_on_c, 3, 36, 0
5, 101040, Note_on_c, 3, 53, 90
5, 101099, Note_on_c, 3, 53, 0
5, 101100, Note_on_c, 3, 51, 90
5, 101129, Note_on_c, 3, 51, 0
5, 101130, Note_on_c, 3, 53, 90
5, 101159, Note_on_c, 3, 53, 0
5, 101160, Note_on_c, 3, 51, 90
5, 101189, Note_on_c, 3, 51, 0
5, 101190, Note_on_c, 3, 53, 90
5, 101219, Note_on_c, 3, 53, 0
5, 101220, Note_on_c, 3, 49, 90
5, 101249, Note_on_c, 3, 49, 0
5, 101250, Note_on_c, 3, 51, 90
5, 101279, Note_on_c, 3, 51, 0
5, 101280, Note_on_c, 3, 49, 90
5, 101309, Note_on_c, 3, 49, 0
5, 101310, Note_on_c, 3, 51, 90
5, 101339, Note_on_c, 3, 51, 0
5, 101340, Note_on_c, 3, 48, 90
5, 101399, Note_on_c, 3, 48, 0
5, 101400, Note_on_c, 3, 43, 90
5, 101459, Note_on_c, 3, 43, 0
5, 101460, Note_on_c, 3, 36, 90
5, 101519, Note_on_c, 3, 36, 0
5, 101520, Note_on_c, 3, 52, 90
5, 101579, Note_on_c, 3, 52, 0
5, 101580, Note_on_c, 3, 53, 90
5, 101609, Note_on_c, 3, 53, 0
5, 101610, Note_on_c, 3, 55, 90
5, 101639, Note_on_c, 3, 55, 0
5, 101640, Note_on_c, 3, 53, 90
5, 101669, Note_on_c, 3, 53, 0
5, 101670, Note_on_c, 3, 55, 90
5, 101699, Note_on_c, 3, 55, 0
5, 101700, Note_on_c, 3, 51, 90
5, 101729, Note_on_c, 3, 51, 0
5, 101730, Note_on_c, 3, 53, 90
5, 101759, Note_on_c, 3, 53, 0
5, 101760, Note_on_c, 3, 51, 90
5, 101789, Note_on_c, 3, 51, 0
5, 101790, Note_on_c, 3, 53, 90
5, 101819, Note_on_c, 3, 53, 0
5, 101820, Note_on_c, 3, 50, 90
5, 101849, Note_on_c, 3, 50, 0
5, 101850, Note_on_c, 3, 51, 90
5, 101879, Note_on_c, 3, 51, 0
5, 101880, Note_on_c, 3, 50, 90
5, 101909, Note_on_c, 3, 50, 0
5, 101910, Note_on_c, 3, 51, 90
5, 101939, Note_on_c, 3, 51, 0
5, 101940, Note_on_c, 3, 48, 90
5, 101969, Note_on_c, 3, 48, 0
5, 101970, Note_on_c, 3, 50, 90
5, 101999, Note_on_c, 3, 50, 0
5, 102000, Note_on_c, 3, 48, 90
5, 102029, Note_on_c, 3, 48, 0
5, 102030, Note_on_c, 3, 50, 90
5, 102059, Note_on_c, 3, 50, 0
5, 102060, Note_on_c, 3, 58, 90
5, 102089, Note_on_c, 3, 58, 0
5, 102090, Note_on_c, 3, 60, 90
5, 102119, Note_on_c, 3, 60, 0
5, 102120, Note_on_c, 3, 58, 90
5, 102149, Note_on_c, 3, 58, 0
5, 102150, Note_on_c, 3, 60, 90
5, 102179, Note_on_c, 3, 60, 0
5, 102180, Note_on_c, 3, 56, 90
5, 102209, Note_on_c, 3, 56, 0
5, 102210, Note_on_c, 3, 58, 90
5, 102239, Note_on_c, 3, 58, 0
5, 102240, Note_on_c, 3, 56, 90
5, 102269, Note_on_c, 3, 56, 0
5, 102270, Note_on_c, 3, 58, 90
5, 102299, Note_on_c, 3, 58, 0
5, 102300, Note_on_c, 3, 55, 90
5, 102329, Note_on_c, 3, 55, 0
5, 102330, Note_on_c, 3, 56, 90
5, 102359, Note_on_c, 3, 56, 0
5, 102360, Note_on_c, 3, 55, 90
5, 102389, Note_on_c, 3, 55, 0
5, 102390, Note_on_c, 3, 56, 90
5, 102419, Note_on_c, 3, 56, 0
5, 102420, Note_on_c, 3, 53, 90
5, 102449, Note_on_c, 3, 53, 0
5, 102450, Note_on_c, 3, 55, 90
5, 102479, Note_on_c, 3, 55, 0
5, 102480, Note_on_c, 3, 53, 90
5, 102509, Note_on_c, 3, 53, 0
5, 102510, Note_on_c, 3, 55, 90
5, 102539, Note_on_c, 3, 55, 0
5, 102540, Note_on_c, 3, 51, 90
5, 102569, Note_on_c, 3, 51, 0
5, 102570, Note_on_c, 3, 53, 90
5, 102599, Note_on_c, 3, 53, 0
5, 102600, Note_on_c, 3, 51, 90
5, 102629, Note_on_c, 3, 51, 0
5, 102630, Note_on_c, 3, 53, 90
5, 102659, Note_on_c, 3, 53, 0
5, 102660, Note_on_c, 3, 50, 90
5, 102689, Note_on_c, 3, 50, 0
5, 102690, Note_on_c, 3, 51, 90
5, 102719, Note_on_c, 3, 51, 0
5, 102720, Note_on_c, 3, 50, 90
5, 102749, Note_on_c, 3, 50, 0
5, 102750, Note_on_c, 3, 51, 90
5, 102779, Note_on_c, 3, 51, 0
5, 102780, Note_on_c, 3, 48, 90
5, 102809, Note_on_c, 3, 48, 0
5, 102810, Note_on_c, 3, 50, 90
5, 102839, Note_on_c, 3, 50, 0
5, 102840, Note_on_c, 3, 48, 90
5, 102869, Note_on_c, 3, 48, 0
5, 102870, Note_on_c, 3, 50, 90
5, 102899, Note_on_c, 3, 50, 0
5, 102900, Note_on_c, 3, 46, 90
5, 102929, Note_on_c, 3, 46, 0
5, 102930, Note_on_c, 3, 48, 90
5, 102959, Note_on_c, 3, 48, 0
5, 102960, Note_on_c, 3, 46, 90
5, 102989, Note_on_c, 3, 46, 0
5, 102990, Note_on_c, 3, 48, 90
5, 103019, Note_on_c, 3, 48, 0
5, 103020, Note_on_c, 3, 56, 90
5, 103049, Note_on_c, 3, 56, 0
5, 103050, Note_on_c, 3, 58, 90
5, 103079, Note_on_c, 3, 58, 0
5, 103080, Note_on_c, 3, 56, 90
5, 103109, Note_on_c, 3, 56, 0
5, 103110, Note_on_c, 3, 58, 90
5, 103139, Note_on_c, 3, 58, 0
5, 103140, Note_on_c, 3, 55, 90
5, 103169, Note_on_c, 3, 55, 0
5, 103170, Note_on_c, 3, 56, 90
5, 103199, Note_on_c, 3, 56, 0
5, 103200, Note_on_c, 3, 55, 90
5, 103229, Note_on_c, 3, 55, 0
5, 103230, Note_on_c, 3, 56, 90
5, 103259, Note_on_c, 3, 56, 0
5, 103260, Note_on_c, 3, 53, 90
5, 103289, Note_on_c, 3, 53, 0
5, 103290, Note_on_c, 3, 55, 90
5, 103319, Note_on_c, 3, 55, 0
5, 103320, Note_on_c, 3, 53, 90
5, 103349, Note_on_c, 3, 53, 0
5, 103350, Note_on_c, 3, 55, 90
5, 103379, Note_on_c, 3, 55, 0
5, 103380, Note_on_c, 3, 51, 90
5, 103409, Note_on_c, 3, 51, 0
5, 103410, Note_on_c, 3, 53, 90
5, 103439, Note_on_c, 3, 53, 0
5, 103440, Note_on_c, 3, 51, 90
5, 103469, Note_on_c, 3, 51, 0
5, 103470, Note_on_c, 3, 53, 90
5, 103499, Note_on_c, 3, 53, 0
5, 103500, Note_on_c, 3, 50, 90
5, 103529, Note_on_c, 3, 50, 0
5, 103530, Note_on_c, 3, 51, 90
5, 103559, Note_on_c, 3, 51, 0
5, 103560, Note_on_c, 3, 50, 90
5, 103589, Note_on_c, 3, 50, 0
5, 103590, Note_on_c, 3, 51, 90
5, 103619, Note_on_c, 3, 51, 0
5, 103620, Note_on_c, 3, 48, 90
5, 103649, Note_on_c, 3, 48, 0
5, 103650, Note_on_c, 3, 50, 90
5, 103679, Note_on_c, 3, 50, 0
5, 103680, Note_on_c, 3, 48, 90
5, 103709, Note_on_c, 3, 48, 0
5, 103710, Note_on_c, 3, 50, 90
5, 103739, Note_on_c, 3, 50, 0
5, 103740, Note_on_c, 3, 47, 90
5, 103769, Note_on_c, 3, 47, 0
5, 103770, Note_on_c, 3, 48, 90
5, 103799, Note_on_c, 3, 48, 0
5, 103800, Note_on_c, 3, 47, 90
5, 103829, Note_on_c, 3, 47, 0
5, 103830, Note_on_c, 3, 48, 90
5, 103859, Note_on_c, 3, 48, 0
5, 103860, Note_on_c, 3, 45, 90
5, 103889, Note_on_c, 3, 45, 0
5, 103890, Note_on_c, 3, 47, 90
5, 103919, Note_on_c, 3, 47, 0
5, 103920, Note_on_c, 3, 45, 90
5, 103949, Note_on_c, 3, 45, 0
5, 103950, Note_on_c, 3, 47, 90
5, 103979, Note_on_c, 3, 47, 0
5, 103980, Note_on_c, 3, 55, 90
5, 104009, Note_on_c, 3, 55, 0
5, 104010, Note_on_c, 3, 56, 90
5, 104039, Note_on_c, 3, 56, 0
5, 104040, Note_on_c, 3, 55, 90
5, 104069, Note_on_c, 3, 55, 0
5, 104070, Note_on_c, 3, 56, 90
5, 104099, Note_on_c, 3, 56, 0
5, 104100, Note_on_c, 3, 53, 90
5, 104129, Note_on_c, 3, 53, 0
5, 104130, Note_on_c, 3, 55, 90
5, 104159, Note_on_c, 3, 55, 0
5, 104160, Note_on_c, 3, 53, 90
5, 104189, Note_on_c, 3, 53, 0
5, 104190, Note_on_c, 3, 55, 90
5, 104219, Note_on_c, 3, 55, 0
5, 104220, Note_on_c, 3, 51, 90
5, 104249, Note_on_c, 3, 51, 0
5, 104250, Note_on_c, 3, 53, 90
5, 104279, Note_on_c, 3, 53, 0
5, 104280, Note_on_c, 3, 51, 90
5, 104309, Note_on_c, 3, 51, 0
5, 104310, Note_on_c, 3, 53, 90
5, 104339, Note_on_c, 3, 53, 0
5, 104340, Note_on_c, 3, 50, 90
5, 104369, Note_on_c, 3, 50, 0
5, 104370, Note_on_c, 3, 51, 90
5, 104399, Note_on_c, 3, 51, 0
5, 104400, Note_on_c, 3, 50, 90
5, 104429, Note_on_c, 3, 50, 0
5, 104430, Note_on_c, 3, 51, 90
5, 104459, Note_on_c, 3, 51, 0
5, 104460, Note_on_c, 3, 48, 90
5, 104519, Note_on_c, 3, 48, 0
5, 104880, Note_on_c, 3, 48, 90
5, 104909, Note_on_c, 3, 48, 0
5, 104910, Note_on_c, 3, 50, 90
5, 104939, Note_on_c, 3, 50, 0
5, 104940, Note_on_c, 3, 51, 90
5, 104999, Note_on_c, 3, 51, 0
5, 105000, Note_on_c, 3, 48, 90
5, 105059, Note_on_c, 3, 48, 0
5, 105060, Note_on_c, 3, 55, 90
5, 105119, Note_on_c, 3, 55, 0
5, 105120, Note_on_c, 3, 43, 90
5, 105179, Note_on_c, 3, 43, 0
5, 105180, Note_on_c, 3, 48, 90
5, 105239, Note_on_c, 3, 48, 0
5, 105240, Note_on_c, 3, 43, 90
5, 105299, Note_on_c, 3, 43, 0
5, 105300, Note_on_c, 3, 36, 90
5, 105359, Note_on_c, 3, 36, 0
5, 105840, Note_on_c, 3, 51, 90
5, 105869, Note_on_c, 3, 51, 0
5, 105870, Note_on_c, 3, 53, 90
5, 105899, Note_on_c, 3, 53, 0
5, 105900, Note_on_c, 3, 55, 90
5, 105959, Note_on_c, 3, 55, 0
5, 105960, Note_on_c, 3, 51, 90
5, 106019, Note_on_c, 3, 51, 0
5, 106020, Note_on_c, 3, 58, 90
5, 106079, Note_on_c, 3, 58, 0
5, 106080, Note_on_c, 3, 46, 90
5, 106139, Note_on_c, 3, 46, 0
5, 106140, Note_on_c, 3, 51, 90
5, 106199, Note_on_c, 3, 51, 0
5, 106200, Note_on_c, 3, 46, 90
5, 106259, Note_on_c, 3, 46, 0
5, 106260, Note_on_c, 3, 39, 90
5, 106319, Note_on_c, 3, 39, 0
5, 106320, Note_on_c, 3, 51, 90
5, 106349, Note_on_c, 3, 51, 0
5, 106350, Note_on_c, 3, 53, 90
5, 106379, Note_on_c, 3, 53, 0
5, 106380, Note_on_c, 3, 55, 90
5, 106439, Note_on_c, 3, 55, 0
5, 106440, Note_on_c, 3, 58, 90
5, 106499, Note_on_c, 3, 58, 0
5, 106500, Note_on_c, 3, 51, 90
5, 106559, Note_on_c, 3, 51, 0
5, 106560, Note_on_c, 3, 55, 90
5, 106619, Note_on_c, 3, 55, 0
5, 106620, Note_on_c, 3, 56, 90
5, 106679, Note_on_c, 3, 56, 0
5, 106680, Note_on_c, 3, 44, 90
5, 106739, Note_on_c, 3, 44, 0
5, 106740, Note_on_c, 3, 56, 90
5, 106799, Note_on_c, 3, 56, 0
5, 107040, Note_on_c, 3, 51, 90
5, 107099, Note_on_c, 3, 51, 0
5, 107100, Note_on_c, 3, 56, 90
5, 107159, Note_on_c, 3, 56, 0
5, 107160, Note_on_c, 3, 44, 90
5, 107219, Note_on_c, 3, 44, 0
5, 107220, Note_on_c, 3, 56, 90
5, 107279, Note_on_c, 3, 56, 0
5, 107280, Note_on_c, 3, 53, 90
5, 107309, Note_on_c, 3, 53, 0
5, 107310, Note_on_c, 3, 55, 90
5, 107339, Note_on_c, 3, 55, 0
5, 107340, Note_on_c, 3, 57, 90
5, 107399, Note_on_c, 3, 57, 0
5, 107400, Note_on_c, 3, 60, 90
5, 107459, Note_on_c, 3, 60, 0
5, 107460, Note_on_c, 3, 53, 90
5, 107519, Note_on_c, 3, 53, 0
5, 107520, Note_on_c, 3, 57, 90
5, 107579, Note_on_c, 3, 57, 0
5, 107580, Note_on_c, 3, 58, 90
5, 107639, Note_on_c, 3, 58, 0
5, 107640, Note_on_c, 3, 46, 90
5, 107699, Note_on_c, 3, 46, 0
5, 107700, Note_on_c, 3, 58, 90
5, 107759, Note_on_c, 3, 58, 0
5, 108000, Note_on_c, 3, 53, 90
5, 108059, Note_on_c, 3, 53, 0
5, 108060, Note_on_c, 3, 58, 90
5, 108119, Note_on_c, 3, 58, 0
5, 108120, Note_on_c, 3, 46, 90
5, 108179, Note_on_c, 3, 46, 0
5, 108180, Note_on_c, 3, 58, 90
5, 108239, Note_on_c, 3, 58, 0
5, 108240, Note_on_c, 3, 55, 90
5, 108269, Note_on_c, 3, 55, 0
5, 108270, Note_on_c, 3, 57, 90
5, 108299, Note_on_c, 3, 57, 0
5, 108300, Note_on_c, 3, 58, 90
5, 108359, Note_on_c, 3, 58, 0
5, 108360, Note_on_c, 3, 62, 90
5, 108419, Note_on_c, 3, 62, 0
5, 108420, Note_on_c, 3, 55, 90
5, 108479, Note_on_c, 3, 55, 0
5, 108480, Note_on_c, 3, 58, 90
5, 108539, Note_on_c, 3, 58, 0
5, 108540, Note_on_c, 3, 60, 90
5, 108599, Note_on_c, 3, 60, 0
5, 108600, Note_on_c, 3, 48, 90
5, 108659, Note_on_c, 3, 48, 0
5, 108660, Note_on_c, 3, 60, 90
5, 108719, Note_on_c, 3, 60, 0
5, 108960, Note_on_c, 3, 55, 90
5, 109019, Note_on_c, 3, 55, 0
5, 109020, Note_on_c, 3, 60, 90
5, 109079, Note_on_c, 3, 60, 0
5, 109080, Note_on_c, 3, 48, 90
5, 109139, Note_on_c, 3, 48, 0
5, 109140, Note_on_c, 3, 60, 90
5, 109199, Note_on_c, 3, 60, 0
5, 109200, Note_on_c, 3, 51, 90
5, 109259, Note_on_c, 3, 51, 0
5, 109260, Note_on_c, 3, 50, 90
5, 109319, Note_on_c, 3, 50, 0
5, 109320, Note_on_c, 3, 56, 90
5, 109379, Note_on_c, 3, 56, 0
5, 109380, Note_on_c, 3, 48, 90
5, 109439, Note_on_c, 3, 48, 0
5, 109440, Note_on_c, 3, 56, 90
5, 109499, Note_on_c, 3, 56, 0
5, 109500, Note_on_c, 3, 47, 90
5, 109529, Note_on_c, 3, 47, 0
5, 109530, Note_on_c, 3, 45, 90
5, 109559, Note_on_c, 3, 45, 0
5, 109560, Note_on_c, 3, 47, 90
5, 109589, Note_on_c, 3, 47, 0
5, 109590, Note_on_c, 3, 45, 90
5, 109619, Note_on_c, 3, 45, 0
5, 109620, Note_on_c, 3, 43, 90
5, 109649, Note_on_c, 3, 43, 0
5, 109650, Note_on_c, 3, 45, 90
5, 109679, Note_on_c, 3, 45, 0
5, 109680, Note_on_c, 3, 47, 90
5, 109709, Note_on_c, 3, 47, 0
5, 109710, Note_on_c, 3, 43, 90
5, 109739, Note_on_c, 3, 43, 0
5, 109740, Note_on_c, 3, 48, 90
5, 109799, Note_on_c, 3, 48, 0
5, 109800, Note_on_c, 3, 55, 90
5, 109859, Note_on_c, 3, 55, 0
5, 109860, Note_on_c, 3, 46, 90
5, 109919, Note_on_c, 3, 46, 0
5, 109920, Note_on_c, 3, 55, 90
5, 109979, Note_on_c, 3, 55, 0
5, 109980, Note_on_c, 3, 45, 90
5, 110009, Note_on_c, 3, 45, 0
5, 110010, Note_on_c, 3, 43, 90
5, 110039, Note_on_c, 3, 43, 0
5, 110040, Note_on_c, 3, 45, 90
5, 110069, Note_on_c, 3, 45, 0
5, 110070, Note_on_c, 3, 43, 90
5, 110099, Note_on_c, 3, 43, 0
5, 110100, Note_on_c, 3, 42, 90
5, 110129, Note_on_c, 3, 42, 0
5, 110130, Note_on_c, 3, 43, 90
5, 110159, Note_on_c, 3, 43, 0
5, 110160, Note_on_c, 3, 45, 90
5, 110189, Note_on_c, 3, 45, 0
5, 110190, Note_on_c, 3, 42, 90
5, 110219, Note_on_c, 3, 42, 0
5, 110220, Note_on_c, 3, 43, 90
5, 112620, Note_on_c, 3, 43, 0
5, 112620, Note_on_c, 3, 36, 90
5, 112739, Note_on_c, 3, 36, 0
5, 113040, Note_on_c, 3, 60, 90
5, 113099, Note_on_c, 3, 60, 0
5, 113100, Note_on_c, 3, 58, 90
5, 113129, Note_on_c, 3, 58, 0
5, 113130, Note_on_c, 3, 60, 90
5, 113159, Note_on_c, 3, 60, 0
5, 113160, Note_on_c, 3, 58, 90
5, 113189, Note_on_c, 3, 58, 0
5, 113190, Note_on_c, 3, 60, 90
5, 113219, Note_on_c, 3, 60, 0
5, 113220, Note_on_c, 3, 56, 90
5, 113249, Note_on_c, 3, 56, 0
5, 113250, Note_on_c, 3, 58, 90
5, 113279, Note_on_c, 3, 58, 0
5, 113280, Note_on_c, 3, 56, 90
5, 113309, Note_on_c, 3, 56, 0
5, 113310, Note_on_c, 3, 58, 90
5, 113339, Note_on_c, 3, 58, 0
5, 113340, Note_on_c, 3, 55, 90
5, 113399, Note_on_c, 3, 55, 0
5, 113400, Note_on_c, 3, 50, 90
5, 113459, Note_on_c, 3, 50, 0
5, 113460, Note_on_c, 3, 43, 90
5, 113519, Note_on_c, 3, 43, 0
5, 114000, Note_on_c, 3, 43, 90
5, 114059, Note_on_c, 3, 43, 0
5, 114060, Note_on_c, 3, 48, 90
5, 114119, Note_on_c, 3, 48, 0
5, 114120, Note_on_c, 3, 39, 90
5, 114179, Note_on_c, 3, 39, 0
5, 114180, Note_on_c, 3, 41, 90
5, 114239, Note_on_c, 3, 41, 0
5, 114240, Note_on_c, 3, 43, 90
5, 114299, Note_on_c, 3, 43, 0
5, 114300, Note_on_c, 3, 36, 90
5, 114359, Note_on_c, 3, 36, 0
5, 114360, Note_on_c, 3, 43, 90
5, 114419, Note_on_c, 3, 43, 0
5, 114420, Note_on_c, 3, 48, 90
5, 114479, Note_on_c, 3, 48, 0
5, 114960, Note_on_c, 3, 48, 90
5, 115019, Note_on_c, 3, 48, 0
5, 115020, Note_on_c, 3, 53, 90
5, 115079, Note_on_c, 3, 53, 0
5, 115080, Note_on_c, 3, 44, 90
5, 115139, Note_on_c, 3, 44, 0
5, 115140, Note_on_c, 3, 46, 90
5, 115199, Note_on_c, 3, 46, 0
5, 115200, Note_on_c, 3, 48, 90
5, 115259, Note_on_c, 3, 48, 0
5, 115260, Note_on_c, 3, 41, 90
5, 115319, Note_on_c, 3, 41, 0
5, 115320, Note_on_c, 3, 48, 90
5, 115379, Note_on_c, 3, 48, 0
5, 115380, Note_on_c, 3, 53, 90
5, 115439, Note_on_c, 3, 53, 0
5, 115440, Note_on_c, 3, 56, 90
5, 115499, Note_on_c, 3, 56, 0
5, 115500, Note_on_c, 3, 58, 90
5, 115559, Note_on_c, 3, 58, 0
5, 115560, Note_on_c, 3, 56, 90
5, 115619, Note_on_c, 3, 56, 0
5, 115620, Note_on_c, 3, 55, 90
5, 115679, Note_on_c, 3, 55, 0
5, 115680, Note_on_c, 3, 51, 90
5, 115739, Note_on_c, 3, 51, 0
5, 115800, Note_on_c, 3, 56, 90
5, 115829, Note_on_c, 3, 56, 0
5, 115830, Note_on_c, 3, 55, 90
5, 115859, Note_on_c, 3, 55, 0
5, 115860, Note_on_c, 3, 53, 90
5, 115919, Note_on_c, 3, 53, 0
5, 115920, Note_on_c, 3, 49, 90
5, 115949, Note_on_c, 3, 49, 0
5, 115980, Note_on_c, 3, 55, 90
5, 116039, Note_on_c, 3, 55, 0
5, 116040, Note_on_c, 3, 53, 90
5, 116099, Note_on_c, 3, 53, 0
5, 116100, Note_on_c, 3, 52, 90
5, 116159, Note_on_c, 3, 52, 0
5, 116160, Note_on_c, 3, 48, 90
5, 116219, Note_on_c, 3, 48, 0
5, 116280, Note_on_c, 3, 53, 90
5, 116309, Note_on_c, 3, 53, 0
5, 116310, Note_on_c, 3, 51, 90
5, 116339, Note_on_c, 3, 51, 0
5, 116340, Note_on_c, 3, 50, 90
5, 116399, Note_on_c, 3, 50, 0
5, 116400, Note_on_c, 3, 48, 90
5, 116429, Note_on_c, 3, 48, 0
5, 116460, Note_on_c, 3, 47, 90
5, 116519, Note_on_c, 3, 47, 0
5, 116520, Note_on_c, 3, 59, 90
5, 116579, Note_on_c, 3, 59, 0
5, 116580, Note_on_c, 3, 60, 90
5, 116639, Note_on_c, 3, 60, 0
5, 116640, Note_on_c, 3, 53, 90
5, 116699, Note_on_c, 3, 53, 0
5, 116700, Note_on_c, 3, 55, 90
5, 117330, Note_on_c, 3, 55, 0
5, 117330, Note_on_c, 3, 56, 90
5, 117359, Note_on_c, 3, 56, 0
5, 117360, Note_on_c, 3, 53, 90
5, 117389, Note_on_c, 3, 53, 0
5, 117390, Note_on_c, 3, 55, 90
5, 117419, Note_on_c, 3, 55, 0
5, 117420, Note_on_c, 3, 51, 90
5, 117449, Note_on_c, 3, 51, 0
5, 117450, Note_on_c, 3, 53, 90
5, 117479, Note_on_c, 3, 53, 0
5, 117480, Note_on_c, 3, 51, 90
5, 117509, Note_on_c, 3, 51, 0
5, 117510, Note_on_c, 3, 53, 90
5, 117539, Note_on_c, 3, 53, 0
5, 117540, Note_on_c, 3, 50, 90
5, 117569, Note_on_c, 3, 50, 0
5, 117570, Note_on_c, 3, 51, 90
5, 117599, Note_on_c, 3, 51, 0
5, 117600, Note_on_c, 3, 50, 90
5, 117629, Note_on_c, 3, 50, 0
5, 117630, Note_on_c, 3, 51, 90
5, 117659, Note_on_c, 3, 51, 0
5, 117660, Note_on_c, 3, 48, 90
5, 117719, Note_on_c, 3, 48, 0
5, 117720, Note_on_c, 3, 55, 90
5, 117779, Note_on_c, 3, 55, 0
5, 117780, Note_on_c, 3, 51, 90
5, 117839, Note_on_c, 3, 51, 0
5, 117840, Note_on_c, 3, 48, 90
5, 117899, Note_on_c, 3, 48, 0
5, 117900, Note_on_c, 3, 46, 90
5, 117929, Note_on_c, 3, 46, 0
5, 117930, Note_on_c, 3, 48, 90
5, 117959, Note_on_c, 3, 48, 0
5, 117960, Note_on_c, 3, 46, 90
5, 117989, Note_on_c, 3, 46, 0
5, 117990, Note_on_c, 3, 48, 90
5, 118019, Note_on_c, 3, 48, 0
5, 118020, Note_on_c, 3, 44, 90
5, 118049, Note_on_c, 3, 44, 0
5, 118050, Note_on_c, 3, 46, 90
5, 118079, Note_on_c, 3, 46, 0
5, 118080, Note_on_c, 3, 44, 90
5, 118109, Note_on_c, 3, 44, 0
5, 118110, Note_on_c, 3, 46, 90
5, 118139, Note_on_c, 3, 46, 0
5, 118140, Note_on_c, 3, 43, 90
5, 118199, Note_on_c, 3, 43, 0
5, 118200, Note_on_c, 3, 50, 90
5, 118259, Note_on_c, 3, 50, 0
5, 118260, Note_on_c, 3, 55, 90
5, 118319, Note_on_c, 3, 55, 0
5, 118320, Note_on_c, 3, 53, 90
5, 118379, Note_on_c, 3, 53, 0
5, 118380, Note_on_c, 3, 51, 90
5, 118409, Note_on_c, 3, 51, 0
5, 118410, Note_on_c, 3, 53, 90
5, 118439, Note_on_c, 3, 53, 0
5, 118440, Note_on_c, 3, 51, 90
5, 118469, Note_on_c, 3, 51, 0
5, 118470, Note_on_c, 3, 53, 90
5, 118499, Note_on_c, 3, 53, 0
5, 118500, Note_on_c, 3, 50, 90
5, 118529, Note_on_c, 3, 50, 0
5, 118530, Note_on_c, 3, 51, 90
5, 118559, Note_on_c, 3, 51, 0
5, 118560, Note_on_c, 3, 50, 90
5, 118589, Note_on_c, 3, 50, 0
5, 118590, Note_on_c, 3, 51, 90
5, 118619, Note_on_c, 3, 51, 0
5, 118620, Note_on_c, 3, 48, 90
5, 118649, Note_on_c, 3, 48, 0
5, 118650, Note_on_c, 3, 50, 90
5, 118679, Note_on_c, 3, 50, 0
5, 118680, Note_on_c, 3, 48, 90
5, 118709, Note_on_c, 3, 48, 0
5, 118710, Note_on_c, 3, 50, 90
5, 118739, Note_on_c, 3, 50, 0
5, 118740, Note_on_c, 3, 46, 90
5, 118769, Note_on_c, 3, 46, 0
5, 118770, Note_on_c, 3, 48, 90
5, 118799, Note_on_c, 3, 48, 0
5, 118800, Note_on_c, 3, 46, 90
5, 118829, Note_on_c, 3, 46, 0
5, 118830, Note_on_c, 3, 48, 90
5, 118859, Note_on_c, 3, 48, 0
5, 118860, Note_on_c, 3, 44, 90
5, 118889, Note_on_c, 3, 44, 0
5, 118890, Note_on_c, 3, 46, 90
5, 118919, Note_on_c, 3, 46, 0
5, 118920, Note_on_c, 3, 44, 90
5, 118949, Note_on_c, 3, 44, 0
5, 118950, Note_on_c, 3, 46, 90
5, 118979, Note_on_c, 3, 46, 0
5, 118980, Note_on_c, 3, 43, 90
5, 119009, Note_on_c, 3, 43, 0
5, 119010, Note_on_c, 3, 44, 90
5, 119039, Note_on_c, 3, 44, 0
5, 119040, Note_on_c, 3, 43, 90
5, 119069, Note_on_c, 3, 43, 0
5, 119070, Note_on_c, 3, 44, 90
5, 119099, Note_on_c, 3, 44, 0
5, 119100, Note_on_c, 3, 41, 90
5, 119129, Note_on_c, 3, 41, 0
5, 119130, Note_on_c, 3, 40, 90
5, 119159, Note_on_c, 3, 40, 0
5, 119160, Note_on_c, 3, 41, 90
5, 119189, Note_on_c, 3, 41, 0
5, 119190, Note_on_c, 3, 43, 90
5, 119219, Note_on_c, 3, 43, 0
5, 119220, Note_on_c, 3, 44, 90
5, 119249, Note_on_c, 3, 44, 0
5, 119250, Note_on_c, 3, 46, 90
5, 119279, Note_on_c, 3, 46, 0
5, 119280, Note_on_c, 3, 48, 90
5, 119309, Note_on_c, 3, 48, 0
5, 119310, Note_on_c, 3, 50, 90
5, 119339, Note_on_c, 3, 50, 0
5, 119340, Note_on_c, 3, 52, 90
5, 119399, Note_on_c, 3, 52, 0
5, 119400, Note_on_c, 3, 55, 90
5, 119459, Note_on_c, 3, 55, 0
5, 119460, Note_on_c, 3, 48, 90
5, 119519, Note_on_c, 3, 48, 0
5, 119520, Note_on_c, 3, 52, 90
5, 119579, Note_on_c, 3, 52, 0
5, 119580, Note_on_c, 3, 53, 90
5, 119639, Note_on_c, 3, 53, 0
5, 119640, Note_on_c, 3, 41, 90
5, 119699, Note_on_c, 3, 41, 0
5, 119700, Note_on_c, 3, 44, 90
5, 119759, Note_on_c, 3, 44, 0
5, 119760, Note_on_c, 3, 48, 90
5, 119819, Note_on_c, 3, 48, 0
5, 119820, Note_on_c, 3, 52, 90
5, 119879, Note_on_c, 3, 52, 0
5, 119880, Note_on_c, 3, 55, 90
5, 119939, Note_on_c, 3, 55, 0
5, 119940, Note_on_c, 3, 48, 90
5, 119999, Note_on_c, 3, 48, 0
5, 120000, Note_on_c, 3, 52, 90
5, 120059, Note_on_c, 3, 52, 0
5, 120060, Note_on_c, 3, 53, 90
5, 120119, Note_on_c, 3, 53, 0
5, 120120, Note_on_c, 3, 41, 90
5, 120179, Note_on_c, 3, 41, 0
5, 120180, Note_on_c, 3, 44, 90
5, 120239, Note_on_c, 3, 44, 0
5, 120240, Note_on_c, 3, 48, 90
5, 120299, Note_on_c, 3, 48, 0
5, 120300, Note_on_c, 3, 50, 90
5, 120359, Note_on_c, 3, 50, 0
5, 120360, Note_on_c, 3, 53, 90
5, 120419, Note_on_c, 3, 53, 0
5, 120420, Note_on_c, 3, 46, 90
5, 120479, Note_on_c, 3, 46, 0
5, 120480, Note_on_c, 3, 50, 90
5, 120539, Note_on_c, 3, 50, 0
5, 120540, Note_on_c, 3, 51, 90
5, 120599, Note_on_c, 3, 51, 0
5, 120600, Note_on_c, 3, 39, 90
5, 120659, Note_on_c, 3, 39, 0
5, 120660, Note_on_c, 3, 43, 90
5, 120719, Note_on_c, 3, 43, 0
5, 120720, Note_on_c, 3, 46, 90
5, 120779, Note_on_c, 3, 46, 0
5, 120780, Note_on_c, 3, 50, 90
5, 120839, Note_on_c, 3, 50, 0
5, 120840, Note_on_c, 3, 53, 90
5, 120899, Note_on_c, 3, 53, 0
5, 120900, Note_on_c, 3, 46, 90
5, 120959, Note_on_c, 3, 46, 0
5, 120960, Note_on_c, 3, 50, 90
5, 121019, Note_on_c, 3, 50, 0
5, 121020, Note_on_c, 3, 39, 90
5, 121079, Note_on_c, 3, 39, 0
5, 121080, Note_on_c, 3, 51, 90
5, 121139, Note_on_c, 3, 51, 0
5, 121140, Note_on_c, 3, 55, 90
5, 121199, Note_on_c, 3, 55, 0
5, 121200, Note_on_c, 3, 51, 90
5, 121259, Note_on_c, 3, 51, 0
5, 121260, Note_on_c, 3, 50, 90
5, 121319, Note_on_c, 3, 50, 0
5, 121320, Note_on_c, 3, 56, 90
5, 121379, Note_on_c, 3, 56, 0
5, 121380, Note_on_c, 3, 48, 90
5, 121439, Note_on_c, 3, 48, 0
5, 121440, Note_on_c, 3, 56, 90
5, 121499, Note_on_c, 3, 56, 0
5, 121500, Note_on_c, 3, 47, 90
5, 121529, Note_on_c, 3, 47, 0
5, 121530, Note_on_c, 3, 45, 90
5, 121559, Note_on_c, 3, 45, 0
5, 121560, Note_on_c, 3, 47, 90
5, 121589, Note_on_c, 3, 47, 0
5, 121590, Note_on_c, 3, 45, 90
5, 121619, Note_on_c, 3, 45, 0
5, 121620, Note_on_c, 3, 43, 90
5, 121649, Note_on_c, 3, 43, 0
5, 121650, Note_on_c, 3, 45, 90
5, 121679, Note_on_c, 3, 45, 0
5, 121680, Note_on_c, 3, 47, 90
5, 121709, Note_on_c, 3, 47, 0
5, 121710, Note_on_c, 3, 43, 90
5, 121739, Note_on_c, 3, 43, 0
5, 121740, Note_on_c, 3, 48, 90
5, 121799, Note_on_c, 3, 48, 0
5, 121800, Note_on_c, 3, 55, 90
5, 121859, Note_on_c, 3, 55, 0
5, 121860, Note_on_c, 3, 46, 90
5, 121919, Note_on_c, 3, 46, 0
5, 121920, Note_on_c, 3, 55, 90
5, 121979, Note_on_c, 3, 55, 0
5, 121980, Note_on_c, 3, 45, 90
5, 122009, Note_on_c, 3, 45, 0
5, 122010, Note_on_c, 3, 43, 90
5, 122039, Note_on_c, 3, 43, 0
5, 122040, Note_on_c, 3, 45, 90
5, 122069, Note_on_c, 3, 45, 0
5, 122070, Note_on_c, 3, 43, 90
5, 122099, Note_on_c, 3, 43, 0
5, 122100, Note_on_c, 3, 42, 90
5, 122129, Note_on_c, 3, 42, 0
5, 122130, Note_on_c, 3, 43, 90
5, 122159, Note_on_c, 3, 43, 0
5, 122160, Note_on_c, 3, 45, 90
5, 122189, Note_on_c, 3, 45, 0
5, 122190, Note_on_c, 3, 42, 90
5, 122219, Note_on_c, 3, 42, 0
5, 122220, Note_on_c, 3, 43, 90
5, 122249, Note_on_c, 3, 43, 0
5, 122250, Note_on_c, 3, 44, 90
5, 122279, Note_on_c, 3, 44, 0
5, 122280, Note_on_c, 3, 43, 90
5, 122309, Note_on_c, 3, 43, 0
5, 122310, Note_on_c, 3, 44, 90
5, 122339, Note_on_c, 3, 44, 0
5, 122340, Note_on_c, 3, 43, 90
5, 122369, Note_on_c, 3, 43, 0
5, 122370, Note_on_c, 3, 44, 90
5, 122399, Note_on_c, 3, 44, 0
5, 122400, Note_on_c, 3, 41, 90
5, 122429, Note_on_c, 3, 41, 0
5, 122430, Note_on_c, 3, 43, 90
5, 122459, Note_on_c, 3, 43, 0
5, 122460, Note_on_c, 3, 44, 90
5, 122489, Note_on_c, 3, 44, 0
5, 122490, Note_on_c, 3, 56, 90
5, 122519, Note_on_c, 3, 56, 0
5, 122520, Note_on_c, 3, 55, 90
5, 122549, Note_on_c, 3, 55, 0
5, 122550, Note_on_c, 3, 53, 90
5, 122579, Note_on_c, 3, 53, 0
5, 122580, Note_on_c, 3, 51, 90
5, 122609, Note_on_c, 3, 51, 0
5, 122610, Note_on_c, 3, 56, 90
5, 122639, Note_on_c, 3, 56, 0
5, 122640, Note_on_c, 3, 55, 90
5, 122669, Note_on_c, 3, 55, 0
5, 122670, Note_on_c, 3, 53, 90
5, 122699, Note_on_c, 3, 53, 0
5, 122700, Note_on_c, 3, 51, 90
5, 122729, Note_on_c, 3, 51, 0
5, 122730, Note_on_c, 3, 56, 90
5, 122759, Note_on_c, 3, 56, 0
5, 122760, Note_on_c, 3, 55, 90
5, 122789, Note_on_c, 3, 55, 0
5, 122790, Note_on_c, 3, 53, 90
5, 122819, Note_on_c, 3, 53, 0
5, 122820, Note_on_c, 3, 55, 90
5, 122879, Note_on_c, 3, 55, 0
5, 122880, Note_on_c, 3, 43, 90
5, 122939, Note_on_c, 3, 43, 0
5, 122940, Note_on_c, 3, 36, 90
5, 123059, Note_on_c, 3, 36, 0
5, 123059, End_track
6, 0, Start_track
6, 0, MIDI_port, 0
6, 0, Title_t, "clave i h"
6, 0, Program_c, 4, 6
6, 0, Note_on_c, 4, 63, 120
6, 0, Note_on_c, 4, 67, 120
6, 60, Note_on_c, 4, 67, 0
6, 60, Note_on_c, 4, 72, 120
6, 120, Note_on_c, 4, 72, 0
6, 120, Note_on_c, 4, 63, 0
6, 120, Note_on_c, 4, 67, 120
6, 120, Note_on_c, 4, 75, 120
6, 180, Note_on_c, 4, 75, 0
6, 180, Note_on_c, 4, 67, 0
6, 180, Note_on_c, 4, 65, 120
6, 180, Note_on_c, 4, 74, 120
6, 240, Note_on_c, 4, 74, 0
6, 240, Note_on_c, 4, 65, 0
6, 240, Note_on_c, 4, 63, 120
6, 240, Note_on_c, 4, 67, 120
6, 270, Note_on_c, 4, 63, 0
6, 270, Note_on_c, 4, 62, 120
6, 300, Note_on_c, 4, 62, 0
6, 300, Note_on_c, 4, 67, 0
6, 300, Note_on_c, 4, 63, 120
6, 300, Note_on_c, 4, 72, 120
6, 330, Note_on_c, 4, 72, 0
6, 330, Note_on_c, 4, 63, 0
6, 330, Note_on_c, 4, 65, 120
6, 330, Note_on_c, 4, 74, 120
6, 360, Note_on_c, 4, 74, 0
6, 360, Note_on_c, 4, 65, 0
6, 360, Note_on_c, 4, 67, 120
6, 360, Note_on_c, 4, 75, 120
6, 390, Note_on_c, 4, 75, 0
6, 390, Note_on_c, 4, 67, 0
6, 390, Note_on_c, 4, 65, 120
6, 390, Note_on_c, 4, 74, 120
6, 420, Note_on_c, 4, 74, 0
6, 420, Note_on_c, 4, 65, 0
6, 420, Note_on_c, 4, 67, 120
6, 420, Note_on_c, 4, 75, 120
6, 450, Note_on_c, 4, 75, 0
6, 450, Note_on_c, 4, 67, 0
6, 450, Note_on_c, 4, 65, 120
6, 450, Note_on_c, 4, 74, 120
6, 480, Note_on_c, 4, 74, 0
6, 480, Note_on_c, 4, 65, 0
6, 480, Note_on_c, 4, 63, 120
6, 480, Note_on_c, 4, 72, 120
6, 540, Note_on_c, 4, 72, 0
6, 540, Note_on_c, 4, 63, 0
6, 540, Note_on_c, 4, 74, 120
6, 570, Note_on_c, 4, 74, 0
6, 570, Note_on_c, 4, 75, 120
6, 600, Note_on_c, 4, 75, 0
6, 600, Note_on_c, 4, 77, 120
6, 630, Note_on_c, 4, 77, 0
6, 630, Note_on_c, 4, 79, 120
6, 660, Note_on_c, 4, 79, 0
6, 660, Note_on_c, 4, 80, 120
6, 720, Note_on_c, 4, 80, 0
6, 720, Note_on_c, 4, 80, 120
6, 780, Note_on_c, 4, 80, 0
6, 780, Note_on_c, 4, 74, 120
6, 840, Note_on_c, 4, 74, 0
6, 840, Note_on_c, 4, 80, 120
6, 900, Note_on_c, 4, 80, 0
6, 900, Note_on_c, 4, 74, 120
6, 960, Note_on_c, 4, 74, 0
6, 960, Note_on_c, 4, 62, 120
6, 960, Note_on_c, 4, 65, 120
6, 1020, Note_on_c, 4, 65, 0
6, 1020, Note_on_c, 4, 70, 120
6, 1080, Note_on_c, 4, 70, 0
6, 1080, Note_on_c, 4, 62, 0
6, 1080, Note_on_c, 4, 65, 120
6, 1080, Note_on_c, 4, 74, 120
6, 1140, Note_on_c, 4, 74, 0
6, 1140, Note_on_c, 4, 65, 0
6, 1140, Note_on_c, 4, 63, 120
6, 1140, Note_on_c, 4, 72, 120
6, 1200, Note_on_c, 4, 72, 0
6, 1200, Note_on_c, 4, 63, 0
6, 1200, Note_on_c, 4, 62, 120
6, 1200, Note_on_c, 4, 65, 120
6, 1230, Note_on_c, 4, 62, 0
6, 1230, Note_on_c, 4, 60, 120
6, 1260, Note_on_c, 4, 60, 0
6, 1260, Note_on_c, 4, 65, 0
6, 1260, Note_on_c, 4, 62, 120
6, 1260, Note_on_c, 4, 70, 120
6, 1290, Note_on_c, 4, 70, 0
6, 1290, Note_on_c, 4, 62, 0
6, 1290, Note_on_c, 4, 63, 120
6, 1290, Note_on_c, 4, 72, 120
6, 1320, Note_on_c, 4, 72, 0
6, 1320, Note_on_c, 4, 63, 0
6, 1320, Note_on_c, 4, 65, 120
6, 1320, Note_on_c, 4, 74, 120
6, 1350, Note_on_c, 4, 74, 0
6, 1350, Note_on_c, 4, 65, 0
6, 1350, Note_on_c, 4, 63, 120
6, 1350, Note_on_c, 4, 72, 120
6, 1380, Note_on_c, 4, 72, 0
6, 1380, Note_on_c, 4, 63, 0
6, 1380, Note_on_c, 4, 65, 120
6, 1380, Note_on_c, 4, 74, 120
6, 1410, Note_on_c, 4, 74, 0
6, 1410, Note_on_c, 4, 65, 0
6, 1410, Note_on_c, 4, 63, 120
6, 1410, Note_on_c, 4, 72, 120
6, 1440, Note_on_c, 4, 72, 0
6, 1440, Note_on_c, 4, 63, 0
6, 1440, Note_on_c, 4, 58, 120
6, 1440, Note_on_c, 4, 62, 120
6, 1440, Note_on_c, 4, 70, 120
6, 1500, Note_on_c, 4, 70, 0
6, 1500, Note_on_c, 4, 62, 0
6, 1500, Note_on_c, 4, 58, 0
6, 1500, Note_on_c, 4, 72, 120
6, 1530, Note_on_c, 4, 72, 0
6, 1530, Note_on_c, 4, 74, 120
6, 1560, Note_on_c, 4, 74, 0
6, 1560, Note_on_c, 4, 75, 120
6, 1590, Note_on_c, 4, 75, 0
6, 1590, Note_on_c, 4, 77, 120
6, 1620, Note_on_c, 4, 77, 0
6, 1620, Note_on_c, 4, 79, 120
6, 1680, Note_on_c, 4, 79, 0
6, 1680, Note_on_c, 4, 79, 120
6, 1740, Note_on_c, 4, 79, 0
6, 1740, Note_on_c, 4, 72, 120
6, 1800, Note_on_c, 4, 72, 0
6, 1800, Note_on_c, 4, 79, 120
6, 1860, Note_on_c, 4, 79, 0
6, 1860, Note_on_c, 4, 72, 120
6, 1920, Note_on_c, 4, 72, 0
6, 1920, Note_on_c, 4, 84, 120
6, 1950, Note_on_c, 4, 84, 0
6, 1950, Note_on_c, 4, 82, 120
6, 1980, Note_on_c, 4, 82, 0
6, 1980, Note_on_c, 4, 80, 120
6, 2010, Note_on_c, 4, 80, 0
6, 2010, Note_on_c, 4, 79, 120
6, 2040, Note_on_c, 4, 79, 0
6, 2040, Note_on_c, 4, 77, 120
6, 2100, Note_on_c, 4, 77, 0
6, 2100, Note_on_c, 4, 77, 120
6, 2160, Note_on_c, 4, 77, 0
6, 2160, Note_on_c, 4, 79, 120
6, 2175, Note_on_c, 4, 79, 0
6, 2175, Note_on_c, 4, 77, 120
6, 2190, Note_on_c, 4, 77, 0
6, 2190, Note_on_c, 4, 79, 120
6, 2205, Note_on_c, 4, 79, 0
6, 2205, Note_on_c, 4, 77, 120
6, 2220, Note_on_c, 4, 77, 0
6, 2220, Note_on_c, 4, 79, 120
6, 2235, Note_on_c, 4, 79, 0
6, 2235, Note_on_c, 4, 77, 120
6, 2250, Note_on_c, 4, 77, 0
6, 2250, Note_on_c, 4, 79, 120
6, 2265, Note_on_c, 4, 79, 0
6, 2265, Note_on_c, 4, 77, 120
6, 2280, Note_on_c, 4, 77, 0
6, 2280, Note_on_c, 4, 79, 120
6, 2295, Note_on_c, 4, 79, 0
6, 2295, Note_on_c, 4, 77, 120
6, 2310, Note_on_c, 4, 77, 0
6, 2310, Note_on_c, 4, 72, 120
6, 2340, Note_on_c, 4, 72, 0
6, 2340, Note_on_c, 4, 77, 120
6, 2370, Note_on_c, 4, 77, 0
6, 2370, Note_on_c, 4, 79, 120
6, 2400, Note_on_c, 4, 79, 0
6, 2400, Note_on_c, 4, 80, 120
6, 2430, Note_on_c, 4, 80, 0
6, 2430, Note_on_c, 4, 79, 120
6, 2460, Note_on_c, 4, 79, 0
6, 2460, Note_on_c, 4, 77, 120
6, 2490, Note_on_c, 4, 77, 0
6, 2490, Note_on_c, 4, 75, 120
6, 2520, Note_on_c, 4, 75, 0
6, 2520, Note_on_c, 4, 73, 120
6, 2580, Note_on_c, 4, 73, 0
6, 2580, Note_on_c, 4, 73, 120
6, 2640, Note_on_c, 4, 73, 0
6, 2640, Note_on_c, 4, 75, 120
6, 2655, Note_on_c, 4, 75, 0
6, 2655, Note_on_c, 4, 73, 120
6, 2670, Note_on_c, 4, 73, 0
6, 2670, Note_on_c, 4, 75, 120
6, 2685, Note_on_c, 4, 75, 0
6, 2685, Note_on_c, 4, 73, 120
6, 2700, Note_on_c, 4, 73, 0
6, 2700, Note_on_c, 4, 75, 120
6, 2715, Note_on_c, 4, 75, 0
6, 2715, Note_on_c, 4, 73, 120
6, 2730, Note_on_c, 4, 73, 0
6, 2730, Note_on_c, 4, 75, 120
6, 2745, Note_on_c, 4, 75, 0
6, 2745, Note_on_c, 4, 73, 120
6, 2760, Note_on_c, 4, 73, 0
6, 2760, Note_on_c, 4, 75, 120
6, 2775, Note_on_c, 4, 75, 0
6, 2775, Note_on_c, 4, 73, 120
6, 2790, Note_on_c, 4, 73, 0
6, 2790, Note_on_c, 4, 68, 120
6, 2820, Note_on_c, 4, 68, 0
6, 2820, Note_on_c, 4, 73, 120
6, 2850, Note_on_c, 4, 73, 0
6, 2850, Note_on_c, 4, 75, 120
6, 2880, Note_on_c, 4, 75, 0
6, 2880, Note_on_c, 4, 77, 120
6, 2910, Note_on_c, 4, 77, 0
6, 2910, Note_on_c, 4, 79, 120
6, 2940, Note_on_c, 4, 79, 0
6, 2940, Note_on_c, 4, 80, 120
6, 2970, Note_on_c, 4, 80, 0
6, 2970, Note_on_c, 4, 79, 120
6, 3000, Note_on_c, 4, 79, 0
6, 3000, Note_on_c, 4, 77, 120
6, 3030, Note_on_c, 4, 77, 0
6, 3030, Note_on_c, 4, 75, 120
6, 3060, Note_on_c, 4, 75, 0
6, 3060, Note_on_c, 4, 74, 120
6, 3090, Note_on_c, 4, 74, 0
6, 3090, Note_on_c, 4, 72, 120
6, 3120, Note_on_c, 4, 72, 0
6, 3120, Note_on_c, 4, 71, 120
6, 3180, Note_on_c, 4, 71, 0
6, 3180, Note_on_c, 4, 79, 120
6, 3240, Note_on_c, 4, 79, 0
6, 3240, Note_on_c, 4, 72, 120
6, 3300, Note_on_c, 4, 72, 0
6, 3300, Note_on_c, 4, 72, 120
6, 3300, Note_on_c, 4, 77, 120
6, 3360, Note_on_c, 4, 77, 0
6, 3360, Note_on_c, 4, 72, 0
6, 3360, Note_on_c, 4, 72, 120
6, 3360, Note_on_c, 4, 75, 120
6, 3450, Note_on_c, 4, 75, 0
6, 3450, Note_on_c, 4, 74, 120
6, 3480, Note_on_c, 4, 74, 0
6, 3480, Note_on_c, 4, 72, 0
6, 3480, Note_on_c, 4, 71, 120
6, 3480, Note_on_c, 4, 75, 120
6, 3495, Note_on_c, 4, 75, 0
6, 3495, Note_on_c, 4, 74, 120
6, 3510, Note_on_c, 4, 74, 0
6, 3510, Note_on_c, 4, 75, 120
6, 3525, Note_on_c, 4, 75, 0
6, 3525, Note_on_c, 4, 74, 120
6, 3540, Note_on_c, 4, 74, 0
6, 3540, Note_on_c, 4, 75, 120
6, 3555, Note_on_c, 4, 75, 0
6, 3555, Note_on_c, 4, 74, 120
6, 3570, Note_on_c, 4, 74, 0
6, 3570, Note_on_c, 4, 72, 120
6, 3600, Note_on_c, 4, 72, 0
6, 3600, Note_on_c, 4, 71, 0
6, 3600, Note_on_c, 4, 63, 120
6, 3600, Note_on_c, 4, 67, 120
6, 3600, Note_on_c, 4, 72, 120
6, 3720, Note_on_c, 4, 72, 0
6, 3720, Note_on_c, 4, 67, 0
6, 3720, Note_on_c, 4, 63, 0
6, 3750, Note_on_c, 4, 68, 120
6, 3780, Note_on_c, 4, 68, 0
6, 3780, Note_on_c, 4, 67, 120
6, 3810, Note_on_c, 4, 67, 0
6, 3810, Note_on_c, 4, 65, 120
6, 3840, Note_on_c, 4, 65, 0
6, 3840, Note_on_c, 4, 63, 120
6, 3870, Note_on_c, 4, 63, 0
6, 3870, Note_on_c, 4, 72, 120
6, 3900, Note_on_c, 4, 72, 0
6, 3900, Note_on_c, 4, 65, 120
6, 3930, Note_on_c, 4, 65, 0
6, 3930, Note_on_c, 4, 72, 120
6, 3960, Note_on_c, 4, 72, 0
6, 3960, Note_on_c, 4, 63, 120
6, 3990, Note_on_c, 4, 63, 0
6, 3990, Note_on_c, 4, 72, 120
6, 4020, Note_on_c, 4, 72, 0
6, 4020, Note_on_c, 4, 62, 120
6, 4050, Note_on_c, 4, 62, 0
6, 4050, Note_on_c, 4, 72, 120
6, 4080, Note_on_c, 4, 72, 0
6, 4080, Note_on_c, 4, 63, 120
6, 4110, Note_on_c, 4, 63, 0
6, 4110, Note_on_c, 4, 72, 120
6, 4140, Note_on_c, 4, 72, 0
6, 4140, Note_on_c, 4, 68, 120
6, 4170, Note_on_c, 4, 68, 0
6, 4170, Note_on_c, 4, 72, 120
6, 4200, Note_on_c, 4, 72, 0
6, 4200, Note_on_c, 4, 67, 120
6, 4230, Note_on_c, 4, 67, 0
6, 4230, Note_on_c, 4, 72, 120
6, 4260, Note_on_c, 4, 72, 0
6, 4260, Note_on_c, 4, 65, 120
6, 4290, Note_on_c, 4, 65, 0
6, 4290, Note_on_c, 4, 72, 120
6, 4320, Note_on_c, 4, 72, 0
6, 4320, Note_on_c, 4, 67, 120
6, 4350, Note_on_c, 4, 67, 0
6, 4350, Note_on_c, 4, 72, 120
6, 4380, Note_on_c, 4, 72, 0
6, 4380, Note_on_c, 4, 65, 120
6, 4410, Note_on_c, 4, 65, 0
6, 4410, Note_on_c, 4, 72, 120
6, 4440, Note_on_c, 4, 72, 0
6, 4440, Note_on_c, 4, 63, 120
6, 4470, Note_on_c, 4, 63, 0
6, 4470, Note_on_c, 4, 72, 120
6, 4500, Note_on_c, 4, 72, 0
6, 4500, Note_on_c, 4, 62, 120
6, 4530, Note_on_c, 4, 62, 0
6, 4530, Note_on_c, 4, 72, 120
6, 4560, Note_on_c, 4, 72, 0
6, 4560, Note_on_c, 4, 63, 120
6, 4590, Note_on_c, 4, 63, 0
6, 4590, Note_on_c, 4, 62, 120
6, 4620, Note_on_c, 4, 62, 0
6, 4620, Note_on_c, 4, 60, 120
6, 4650, Note_on_c, 4, 60, 0
6, 4650, Note_on_c, 4, 62, 120
6, 4680, Note_on_c, 4, 62, 0
6, 4680, Note_on_c, 4, 63, 120
6, 4710, Note_on_c, 4, 63, 0
6, 4710, Note_on_c, 4, 65, 120
6, 4740, Note_on_c, 4, 65, 0
6, 4740, Note_on_c, 4, 67, 120
6, 4770, Note_on_c, 4, 67, 0
6, 4770, Note_on_c, 4, 69, 120
6, 4800, Note_on_c, 4, 69, 0
6, 4800, Note_on_c, 4, 71, 120
6, 4830, Note_on_c, 4, 71, 0
6, 4830, Note_on_c, 4, 67, 120
6, 4860, Note_on_c, 4, 67, 0
6, 4860, Note_on_c, 4, 72, 120
6, 4890, Note_on_c, 4, 72, 0
6, 4890, Note_on_c, 4, 67, 120
6, 4920, Note_on_c, 4, 67, 0
6, 4920, Note_on_c, 4, 74, 120
6, 4950, Note_on_c, 4, 74, 0
6, 4950, Note_on_c, 4, 67, 120
6, 4980, Note_on_c, 4, 67, 0
6, 4980, Note_on_c, 4, 72, 120
6, 5010, Note_on_c, 4, 72, 0
6, 5010, Note_on_c, 4, 67, 120
6, 5040, Note_on_c, 4, 67, 0
6, 5040, Note_on_c, 4, 71, 120
6, 5070, Note_on_c, 4, 71, 0
6, 5070, Note_on_c, 4, 67, 120
6, 5100, Note_on_c, 4, 67, 0
6, 5100, Note_on_c, 4, 65, 120
6, 5130, Note_on_c, 4, 65, 0
6, 5130, Note_on_c, 4, 62, 120
6, 5160, Note_on_c, 4, 62, 0
6, 5160, Note_on_c, 4, 63, 120
6, 5190, Note_on_c, 4, 63, 0
6, 5190, Note_on_c, 4, 67, 120
6, 5220, Note_on_c, 4, 67, 0
6, 5220, Note_on_c, 4, 72, 120
6, 5250, Note_on_c, 4, 72, 0
6, 5250, Note_on_c, 4, 75, 120
6, 5280, Note_on_c, 4, 75, 0
6, 5280, Note_on_c, 4, 80, 120
6, 5310, Note_on_c, 4, 80, 0
6, 5310, Note_on_c, 4, 77, 120
6, 5340, Note_on_c, 4, 77, 0
6, 5340, Note_on_c, 4, 74, 120
6, 5370, Note_on_c, 4, 74, 0
6, 5370, Note_on_c, 4, 71, 120
6, 5400, Note_on_c, 4, 71, 0
6, 5400, Note_on_c, 4, 72, 120
6, 5430, Note_on_c, 4, 72, 0
6, 5430, Note_on_c, 4, 75, 120
6, 5460, Note_on_c, 4, 75, 0
6, 5460, Note_on_c, 4, 78, 120
6, 5490, Note_on_c, 4, 78, 0
6, 5490, Note_on_c, 4, 81, 120
6, 5520, Note_on_c, 4, 81, 0
6, 5520, Note_on_c, 4, 84, 120
6, 5550, Note_on_c, 4, 84, 0
6, 5550, Note_on_c, 4, 81, 120
6, 5580, Note_on_c, 4, 81, 0
6, 5580, Note_on_c, 4, 83, 120
6, 5610, Note_on_c, 4, 83, 0
6, 5610, Note_on_c, 4, 86, 120
6, 5640, Note_on_c, 4, 86, 0
6, 5640, Note_on_c, 4, 79, 120
6, 5670, Note_on_c, 4, 79, 0
6, 5670, Note_on_c, 4, 77, 120
6, 5700, Note_on_c, 4, 77, 0
6, 5700, Note_on_c, 4, 75, 120
6, 5730, Note_on_c, 4, 75, 0
6, 5730, Note_on_c, 4, 74, 120
6, 5760, Note_on_c, 4, 74, 0
6, 5760, Note_on_c, 4, 63, 120
6, 5760, Note_on_c, 4, 67, 120
6, 5820, Note_on_c, 4, 67, 0
6, 5820, Note_on_c, 4, 72, 120
6, 5880, Note_on_c, 4, 72, 0
6, 5880, Note_on_c, 4, 63, 0
6, 5880, Note_on_c, 4, 67, 120
6, 5880, Note_on_c, 4, 75, 120
6, 5940, Note_on_c, 4, 75, 0
6, 5940, Note_on_c, 4, 67, 0
6, 5940, Note_on_c, 4, 65, 120
6, 5940, Note_on_c, 4, 74, 120
6, 6000, Note_on_c, 4, 74, 0
6, 6000, Note_on_c, 4, 65, 0
6, 6000, Note_on_c, 4, 63, 120
6, 6000, Note_on_c, 4, 67, 120
6, 6030, Note_on_c, 4, 63, 0
6, 6030, Note_on_c, 4, 62, 120
6, 6060, Note_on_c, 4, 62, 0
6, 6060, Note_on_c, 4, 67, 0
6, 6060, Note_on_c, 4, 63, 120
6, 6060, Note_on_c, 4, 72, 120
6, 6090, Note_on_c, 4, 72, 0
6, 6090, Note_on_c, 4, 63, 0
6, 6090, Note_on_c, 4, 65, 120
6, 6090, Note_on_c, 4, 74, 120
6, 6120, Note_on_c, 4, 74, 0
6, 6120, Note_on_c, 4, 65, 0
6, 6120, Note_on_c, 4, 67, 120
6, 6120, Note_on_c, 4, 75, 120
6, 6150, Note_on_c, 4, 75, 0
6, 6150, Note_on_c, 4, 67, 0
6, 6150, Note_on_c, 4, 65, 120
6, 6150, Note_on_c, 4, 74, 120
6, 6180, Note_on_c, 4, 74, 0
6, 6180, Note_on_c, 4, 65, 0
6, 6180, Note_on_c, 4, 67, 120
6, 6180, Note_on_c, 4, 75, 120
6, 6210, Note_on_c, 4, 75, 0
6, 6210, Note_on_c, 4, 67, 0
6, 6210, Note_on_c, 4, 65, 120
6, 6210, Note_on_c, 4, 74, 120
6, 6240, Note_on_c, 4, 74, 0
6, 6240, Note_on_c, 4, 65, 0
6, 6240, Note_on_c, 4, 60, 120
6, 6240, Note_on_c, 4, 63, 120
6, 6240, Note_on_c, 4, 72, 120
6, 6300, Note_on_c, 4, 72, 0
6, 6300, Note_on_c, 4, 63, 0
6, 6300, Note_on_c, 4, 60, 0
6, 6300, Note_on_c, 4, 74, 120
6, 6330, Note_on_c, 4, 74, 0
6, 6330, Note_on_c, 4, 75, 120
6, 6360, Note_on_c, 4, 75, 0
6, 6360, Note_on_c, 4, 77, 120
6, 6390, Note_on_c, 4, 77, 0
6, 6390, Note_on_c, 4, 79, 120
6, 6420, Note_on_c, 4, 79, 0
6, 6420, Note_on_c, 4, 80, 120
6, 6480, Note_on_c, 4, 80, 0
6, 6480, Note_on_c, 4, 80, 120
6, 6540, Note_on_c, 4, 80, 0
6, 6540, Note_on_c, 4, 74, 120
6, 6600, Note_on_c, 4, 74, 0
6, 6600, Note_on_c, 4, 58, 120
6, 6630, Note_on_c, 4, 58, 0
6, 6630, Note_on_c, 4, 60, 120
6, 6660, Note_on_c, 4, 60, 0
6, 6660, Note_on_c, 4, 62, 120
6, 6690, Note_on_c, 4, 62, 0
6, 6690, Note_on_c, 4, 63, 120
6, 6720, Note_on_c, 4, 63, 0
6, 6720, Note_on_c, 4, 65, 120
6, 6750, Note_on_c, 4, 65, 0
6, 6750, Note_on_c, 4, 58, 120
6, 6780, Note_on_c, 4, 58, 0
6, 6780, Note_on_c, 4, 63, 120
6, 6810, Note_on_c, 4, 63, 0
6, 6810, Note_on_c, 4, 58, 120
6, 6840, Note_on_c, 4, 58, 0
6, 6840, Note_on_c, 4, 68, 120
6, 6870, Note_on_c, 4, 68, 0
6, 6870, Note_on_c, 4, 58, 120
6, 6900, Note_on_c, 4, 58, 0
6, 6900, Note_on_c, 4, 67, 120
6, 6930, Note_on_c, 4, 67, 0
6, 6930, Note_on_c, 4, 58, 120
6, 6960, Note_on_c, 4, 58, 0
6, 6960, Note_on_c, 4, 65, 120
6, 6990, Note_on_c, 4, 65, 0
6, 6990, Note_on_c, 4, 58, 120
6, 7020, Note_on_c, 4, 58, 0
6, 7020, Note_on_c, 4, 63, 120
6, 7050, Note_on_c, 4, 63, 0
6, 7050, Note_on_c, 4, 58, 120
6, 7080, Note_on_c, 4, 58, 0
6, 7080, Note_on_c, 4, 62, 120
6, 7110, Note_on_c, 4, 62, 0
6, 7110, Note_on_c, 4, 58, 120
6, 7140, Note_on_c, 4, 58, 0
6, 7140, Note_on_c, 4, 60, 120
6, 7170, Note_on_c, 4, 60, 0
6, 7170, Note_on_c, 4, 58, 120
6, 7200, Note_on_c, 4, 58, 0
6, 7200, Note_on_c, 4, 62, 120
6, 7200, Note_on_c, 4, 65, 120
6, 7260, Note_on_c, 4, 65, 0
6, 7260, Note_on_c, 4, 70, 120
6, 7320, Note_on_c, 4, 70, 0
6, 7320, Note_on_c, 4, 62, 0
6, 7320, Note_on_c, 4, 65, 120
6, 7320, Note_on_c, 4, 74, 120
6, 7380, Note_on_c, 4, 74, 0
6, 7380, Note_on_c, 4, 65, 0
6, 7380, Note_on_c, 4, 63, 120
6, 7380, Note_on_c, 4, 72, 120
6, 7440, Note_on_c, 4, 72, 0
6, 7440, Note_on_c, 4, 63, 0
6, 7440, Note_on_c, 4, 62, 120
6, 7440, Note_on_c, 4, 65, 120
6, 7470, Note_on_c, 4, 62, 0
6, 7470, Note_on_c, 4, 60, 120
6, 7500, Note_on_c, 4, 60, 0
6, 7500, Note_on_c, 4, 65, 0
6, 7500, Note_on_c, 4, 62, 120
6, 7500, Note_on_c, 4, 70, 120
6, 7530, Note_on_c, 4, 70, 0
6, 7530, Note_on_c, 4, 62, 0
6, 7530, Note_on_c, 4, 63, 120
6, 7530, Note_on_c, 4, 72, 120
6, 7560, Note_on_c, 4, 72, 0
6, 7560, Note_on_c, 4, 63, 0
6, 7560, Note_on_c, 4, 65, 120
6, 7560, Note_on_c, 4, 74, 120
6, 7590, Note_on_c, 4, 74, 0
6, 7590, Note_on_c, 4, 65, 0
6, 7590, Note_on_c, 4, 63, 120
6, 7590, Note_on_c, 4, 72, 120
6, 7620, Note_on_c, 4, 72, 0
6, 7620, Note_on_c, 4, 63, 0
6, 7620, Note_on_c, 4, 65, 120
6, 7620, Note_on_c, 4, 74, 120
6, 7650, Note_on_c, 4, 74, 0
6, 7650, Note_on_c, 4, 65, 0
6, 7650, Note_on_c, 4, 63, 120
6, 7650, Note_on_c, 4, 72, 120
6, 7680, Note_on_c, 4, 72, 0
6, 7680, Note_on_c, 4, 63, 0
6, 7680, Note_on_c, 4, 58, 120
6, 7680, Note_on_c, 4, 62, 120
6, 7680, Note_on_c, 4, 70, 120
6, 7740, Note_on_c, 4, 70, 0
6, 7740, Note_on_c, 4, 62, 0
6, 7740, Note_on_c, 4, 58, 0
6, 7740, Note_on_c, 4, 72, 120
6, 7770, Note_on_c, 4, 72, 0
6, 7770, Note_on_c, 4, 74, 120
6, 7800, Note_on_c, 4, 74, 0
6, 7800, Note_on_c, 4, 75, 120
6, 7830, Note_on_c, 4, 75, 0
6, 7830, Note_on_c, 4, 77, 120
6, 7860, Note_on_c, 4, 77, 0
6, 7860, Note_on_c, 4, 79, 120
6, 7920, Note_on_c, 4, 79, 0
6, 7920, Note_on_c, 4, 79, 120
6, 7980, Note_on_c, 4, 79, 0
6, 7980, Note_on_c, 4, 72, 120
6, 8040, Note_on_c, 4, 72, 0
6, 8040, Note_on_c, 4, 60, 120
6, 8070, Note_on_c, 4, 60, 0
6, 8070, Note_on_c, 4, 59, 120
6, 8100, Note_on_c, 4, 59, 0
6, 8100, Note_on_c, 4, 60, 120
6, 8130, Note_on_c, 4, 60, 0
6, 8130, Note_on_c, 4, 62, 120
6, 8160, Note_on_c, 4, 62, 0
6, 8160, Note_on_c, 4, 63, 120
6, 8190, Note_on_c, 4, 63, 0
6, 8190, Note_on_c, 4, 60, 120
6, 8220, Note_on_c, 4, 60, 0
6, 8220, Note_on_c, 4, 65, 120
6, 8250, Note_on_c, 4, 65, 0
6, 8250, Note_on_c, 4, 60, 120
6, 8280, Note_on_c, 4, 60, 0
6, 8280, Note_on_c, 4, 63, 120
6, 8310, Note_on_c, 4, 63, 0
6, 8310, Note_on_c, 4, 60, 120
6, 8340, Note_on_c, 4, 60, 0
6, 8340, Note_on_c, 4, 68, 120
6, 8370, Note_on_c, 4, 68, 0
6, 8370, Note_on_c, 4, 60, 120
6, 8400, Note_on_c, 4, 60, 0
6, 8400, Note_on_c, 4, 67, 120
6, 8430, Note_on_c, 4, 67, 0
6, 8430, Note_on_c, 4, 60, 120
6, 8460, Note_on_c, 4, 60, 0
6, 8460, Note_on_c, 4, 65, 120
6, 8490, Note_on_c, 4, 65, 0
6, 8490, Note_on_c, 4, 60, 120
6, 8520, Note_on_c, 4, 60, 0
6, 8520, Note_on_c, 4, 63, 120
6, 8550, Note_on_c, 4, 63, 0
6, 8550, Note_on_c, 4, 60, 120
6, 8580, Note_on_c, 4, 60, 0
6, 8580, Note_on_c, 4, 62, 120
6, 8610, Note_on_c, 4, 62, 0
6, 8610, Note_on_c, 4, 60, 120
6, 8640, Note_on_c, 4, 60, 0
6, 8640, Note_on_c, 4, 72, 120
6, 8670, Note_on_c, 4, 72, 0
6, 8670, Note_on_c, 4, 70, 120
6, 8700, Note_on_c, 4, 70, 0
6, 8700, Note_on_c, 4, 68, 120
6, 8730, Note_on_c, 4, 68, 0
6, 8730, Note_on_c, 4, 67, 120
6, 8760, Note_on_c, 4, 67, 0
6, 8760, Note_on_c, 4, 65, 120
6, 8820, Note_on_c, 4, 65, 0
6, 8820, Note_on_c, 4, 65, 120
6, 8880, Note_on_c, 4, 65, 0
6, 8880, Note_on_c, 4, 65, 120
6, 9000, Note_on_c, 4, 65, 0
6, 9120, Note_on_c, 4, 70, 120
6, 9150, Note_on_c, 4, 70, 0
6, 9150, Note_on_c, 4, 68, 120
6, 9180, Note_on_c, 4, 68, 0
6, 9180, Note_on_c, 4, 67, 120
6, 9210, Note_on_c, 4, 67, 0
6, 9210, Note_on_c, 4, 65, 120
6, 9240, Note_on_c, 4, 65, 0
6, 9240, Note_on_c, 4, 63, 120
6, 9300, Note_on_c, 4, 63, 0
6, 9300, Note_on_c, 4, 63, 120
6, 9360, Note_on_c, 4, 63, 0
6, 9360, Note_on_c, 4, 63, 120
6, 9480, Note_on_c, 4, 63, 0
6, 10350, Note_on_c, 4, 77, 120
6, 10380, Note_on_c, 4, 77, 0
6, 10380, Note_on_c, 4, 80, 120
6, 10410, Note_on_c, 4, 80, 0
6, 10410, Note_on_c, 4, 79, 120
6, 10440, Note_on_c, 4, 79, 0
6, 10440, Note_on_c, 4, 77, 120
6, 10470, Note_on_c, 4, 77, 0
6, 10470, Note_on_c, 4, 75, 120
6, 10500, Note_on_c, 4, 75, 0
6, 10500, Note_on_c, 4, 74, 120
6, 10530, Note_on_c, 4, 74, 0
6, 10530, Note_on_c, 4, 72, 120
6, 10560, Note_on_c, 4, 72, 0
6, 10560, Note_on_c, 4, 70, 120
6, 10560, Note_on_c, 4, 67, 120
6, 10560, Note_on_c, 4, 63, 120
6, 10620, Note_on_c, 4, 70, 0
6, 10620, Note_on_c, 4, 75, 120
6, 10680, Note_on_c, 4, 75, 0
6, 10680, Note_on_c, 4, 63, 0
6, 10680, Note_on_c, 4, 67, 0
6, 10680, Note_on_c, 4, 70, 120
6, 10680, Note_on_c, 4, 79, 120
6, 10740, Note_on_c, 4, 79, 0
6, 10740, Note_on_c, 4, 70, 0
6, 10740, Note_on_c, 4, 68, 120
6, 10740, Note_on_c, 4, 77, 120
6, 10800, Note_on_c, 4, 77, 0
6, 10800, Note_on_c, 4, 68, 0
6, 10800, Note_on_c, 4, 67, 120
6, 10800, Note_on_c, 4, 70, 120
6, 10830, Note_on_c, 4, 67, 0
6, 10830, Note_on_c, 4, 65, 120
6, 10860, Note_on_c, 4, 65, 0
6, 10860, Note_on_c, 4, 70, 0
6, 10860, Note_on_c, 4, 75, 120
6, 10860, Note_on_c, 4, 67, 120
6, 10890, Note_on_c, 4, 67, 0
6, 10890, Note_on_c, 4, 75, 0
6, 10890, Note_on_c, 4, 77, 120
6, 10890, Note_on_c, 4, 68, 120
6, 10920, Note_on_c, 4, 68, 0
6, 10920, Note_on_c, 4, 77, 0
6, 10920, Note_on_c, 4, 79, 120
6, 10920, Note_on_c, 4, 70, 120
6, 10950, Note_on_c, 4, 70, 0
6, 10950, Note_on_c, 4, 79, 0
6, 10950, Note_on_c, 4, 77, 120
6, 10950, Note_on_c, 4, 68, 120
6, 10980, Note_on_c, 4, 68, 0
6, 10980, Note_on_c, 4, 77, 0
6, 10980, Note_on_c, 4, 79, 120
6, 10980, Note_on_c, 4, 70, 120
6, 11010, Note_on_c, 4, 70, 0
6, 11010, Note_on_c, 4, 79, 0
6, 11010, Note_on_c, 4, 77, 120
6, 11010, Note_on_c, 4, 68, 120
6, 11040, Note_on_c, 4, 68, 0
6, 11040, Note_on_c, 4, 77, 0
6, 11040, Note_on_c, 4, 63, 120
6, 11040, Note_on_c, 4, 67, 120
6, 11040, Note_on_c, 4, 75, 120
6, 11100, Note_on_c, 4, 75, 0
6, 11100, Note_on_c, 4, 67, 0
6, 11100, Note_on_c, 4, 63, 0
6, 11100, Note_on_c, 4, 77, 120
6, 11130, Note_on_c, 4, 77, 0
6, 11130, Note_on_c, 4, 79, 120
6, 11160, Note_on_c, 4, 79, 0
6, 11160, Note_on_c, 4, 80, 120
6, 11190, Note_on_c, 4, 80, 0
6, 11190, Note_on_c, 4, 82, 120
6, 11220, Note_on_c, 4, 82, 0
6, 11220, Note_on_c, 4, 84, 120
6, 11280, Note_on_c, 4, 84, 0
6, 11280, Note_on_c, 4, 84, 120
6, 11340, Note_on_c, 4, 84, 0
6, 11340, Note_on_c, 4, 74, 120
6, 11400, Note_on_c, 4, 74, 0
6, 11520, Note_on_c, 4, 74, 120
6, 11580, Note_on_c, 4, 74, 0
6, 11580, Note_on_c, 4, 75, 120
6, 11610, Note_on_c, 4, 75, 0
6, 11610, Note_on_c, 4, 77, 120
6, 11640, Note_on_c, 4, 77, 0
6, 11640, Note_on_c, 4, 79, 120
6, 11670, Note_on_c, 4, 79, 0
6, 11670, Note_on_c, 4, 80, 120
6, 11700, Note_on_c, 4, 80, 0
6, 11700, Note_on_c, 4, 82, 120
6, 11760, Note_on_c, 4, 82, 0
6, 11760, Note_on_c, 4, 82, 120
6, 11820, Note_on_c, 4, 82, 0
6, 11820, Note_on_c, 4, 72, 120
6, 11880, Note_on_c, 4, 72, 0
6, 12000, Note_on_c, 4, 72, 120
6, 12060, Note_on_c, 4, 72, 0
6, 12060, Note_on_c, 4, 74, 120
6, 12090, Note_on_c, 4, 74, 0
6, 12090, Note_on_c, 4, 75, 120
6, 12120, Note_on_c, 4, 75, 0
6, 12120, Note_on_c, 4, 77, 120
6, 12150, Note_on_c, 4, 77, 0
6, 12150, Note_on_c, 4, 79, 120
6, 12180, Note_on_c, 4, 79, 0
6, 12180, Note_on_c, 4, 80, 120
6, 12240, Note_on_c, 4, 80, 0
6, 12240, Note_on_c, 4, 80, 120
6, 12300, Note_on_c, 4, 80, 0
6, 12300, Note_on_c, 4, 70, 120
6, 12360, Note_on_c, 4, 70, 0
6, 12600, Note_on_c, 4, 70, 120
6, 12600, Note_on_c, 4, 67, 120
6, 12600, Note_on_c, 4, 75, 120
6, 12660, Note_on_c, 4, 75, 0
6, 12660, Note_on_c, 4, 67, 0
6, 12660, Note_on_c, 4, 70, 0
6, 12660, Note_on_c, 4, 63, 120
6, 12660, Note_on_c, 4, 67, 120
6, 12660, Note_on_c, 4, 70, 120
6, 12720, Note_on_c, 4, 70, 0
6, 12720, Note_on_c, 4, 67, 0
6, 12720, Note_on_c, 4, 63, 0
6, 12840, Note_on_c, 4, 67, 120
6, 12840, Note_on_c, 4, 70, 120
6, 12840, Note_on_c, 4, 75, 120
6, 12900, Note_on_c, 4, 75, 0
6, 12900, Note_on_c, 4, 70, 0
6, 12900, Note_on_c, 4, 67, 0
6, 12900, Note_on_c, 4, 63, 120
6, 12900, Note_on_c, 4, 67, 120
6, 12900, Note_on_c, 4, 70, 120
6, 12960, Note_on_c, 4, 70, 0
6, 12960, Note_on_c, 4, 67, 0
6, 12960, Note_on_c, 4, 63, 0
6, 13080, Note_on_c, 4, 67, 120
6, 13080, Note_on_c, 4, 70, 120
6, 13080, Note_on_c, 4, 75, 120
6, 13140, Note_on_c, 4, 75, 0
6, 13140, Note_on_c, 4, 70, 0
6, 13140, Note_on_c, 4, 67, 0
6, 13140, Note_on_c, 4, 63, 120
6, 13140, Note_on_c, 4, 67, 120
6, 13140, Note_on_c, 4, 70, 120
6, 13200, Note_on_c, 4, 70, 0
6, 13200, Note_on_c, 4, 67, 0
6, 13200, Note_on_c, 4, 63, 0
6, 13320, Note_on_c, 4, 75, 120
6, 13350, Note_on_c, 4, 75, 0
6, 13350, Note_on_c, 4, 74, 120
6, 13380, Note_on_c, 4, 74, 0
6, 13380, Note_on_c, 4, 72, 120
6, 13410, Note_on_c, 4, 72, 0
6, 13410, Note_on_c, 4, 70, 120
6, 13440, Note_on_c, 4, 70, 0
6, 13440, Note_on_c, 4, 68, 120
6, 13500, Note_on_c, 4, 68, 0
6, 13500, Note_on_c, 4, 68, 120
6, 13560, Note_on_c, 4, 68, 0
6, 13560, Note_on_c, 4, 68, 120
6, 13740, Note_on_c, 4, 68, 0
6, 13740, Note_on_c, 4, 68, 120
6, 13770, Note_on_c, 4, 68, 0
6, 13770, Note_on_c, 4, 67, 120
6, 13800, Note_on_c, 4, 67, 0
6, 13800, Note_on_c, 4, 65, 120
6, 13830, Note_on_c, 4, 65, 0
6, 13830, Note_on_c, 4, 63, 120
6, 13860, Note_on_c, 4, 63, 0
6, 13860, Note_on_c, 4, 62, 120
6, 13890, Note_on_c, 4, 62, 0
6, 13890, Note_on_c, 4, 60, 120
6, 13920, Note_on_c, 4, 60, 0
6, 13920, Note_on_c, 4, 58, 120
6, 13980, Note_on_c, 4, 58, 0
6, 13980, Note_on_c, 4, 58, 120
6, 14040, Note_on_c, 4, 58, 0
6, 14040, Note_on_c, 4, 58, 120
6, 14100, Note_on_c, 4, 58, 0
6, 15360, Note_on_c, 4, 55, 120
6, 15360, Note_on_c, 4, 58, 120
6, 15420, Note_on_c, 4, 58, 0
6, 15420, Note_on_c, 4, 63, 120
6, 15480, Note_on_c, 4, 63, 0
6, 15480, Note_on_c, 4, 55, 0
6, 15480, Note_on_c, 4, 67, 120
6, 15540, Note_on_c, 4, 67, 0
6, 15540, Note_on_c, 4, 65, 120
6, 15600, Note_on_c, 4, 65, 0
6, 15600, Note_on_c, 4, 58, 120
6, 15660, Note_on_c, 4, 58, 0
6, 15660, Note_on_c, 4, 63, 120
6, 15690, Note_on_c, 4, 63, 0
6, 15690, Note_on_c, 4, 65, 120
6, 15720, Note_on_c, 4, 65, 0
6, 15720, Note_on_c, 4, 67, 120
6, 15750, Note_on_c, 4, 67, 0
6, 15750, Note_on_c, 4, 65, 120
6, 15780, Note_on_c, 4, 65, 0
6, 15780, Note_on_c, 4, 67, 120
6, 15810, Note_on_c, 4, 67, 0
6, 15810, Note_on_c, 4, 65, 120
6, 15840, Note_on_c, 4, 65, 0
6, 15840, Note_on_c, 4, 55, 120
6, 15840, Note_on_c, 4, 63, 120
6, 15900, Note_on_c, 4, 63, 0
6, 15900, Note_on_c, 4, 55, 0
6, 15900, Note_on_c, 4, 65, 120
6, 15930, Note_on_c, 4, 65, 0
6, 15930, Note_on_c, 4, 67, 120
6, 15960, Note_on_c, 4, 67, 0
6, 15960, Note_on_c, 4, 68, 120
6, 15990, Note_on_c, 4, 68, 0
6, 15990, Note_on_c, 4, 70, 120
6, 16020, Note_on_c, 4, 70, 0
6, 16020, Note_on_c, 4, 72, 120
6, 16080, Note_on_c, 4, 72, 0
6, 16080, Note_on_c, 4, 72, 120
6, 16140, Note_on_c, 4, 72, 0
6, 16140, Note_on_c, 4, 65, 120
6, 16200, Note_on_c, 4, 65, 0
6, 16320, Note_on_c, 4, 56, 120
6, 16380, Note_on_c, 4, 56, 0
6, 16380, Note_on_c, 4, 62, 120
6, 16440, Note_on_c, 4, 62, 0
6, 16440, Note_on_c, 4, 65, 120
6, 16500, Note_on_c, 4, 65, 0
6, 16500, Note_on_c, 4, 63, 120
6, 16560, Note_on_c, 4, 63, 0
6, 16560, Note_on_c, 4, 56, 120
6, 16620, Note_on_c, 4, 56, 0
6, 16620, Note_on_c, 4, 62, 120
6, 16650, Note_on_c, 4, 62, 0
6, 16650, Note_on_c, 4, 63, 120
6, 16680, Note_on_c, 4, 63, 0
6, 16680, Note_on_c, 4, 65, 120
6, 16710, Note_on_c, 4, 65, 0
6, 16710, Note_on_c, 4, 63, 120
6, 16740, Note_on_c, 4, 63, 0
6, 16740, Note_on_c, 4, 65, 120
6, 16770, Note_on_c, 4, 65, 0
6, 16770, Note_on_c, 4, 63, 120
6, 16800, Note_on_c, 4, 63, 0
6, 16800, Note_on_c, 4, 56, 120
6, 16800, Note_on_c, 4, 62, 120
6, 16860, Note_on_c, 4, 62, 0
6, 16860, Note_on_c, 4, 56, 0
6, 16860, Note_on_c, 4, 63, 120
6, 16890, Note_on_c, 4, 63, 0
6, 16890, Note_on_c, 4, 65, 120
6, 16920, Note_on_c, 4, 65, 0
6, 16920, Note_on_c, 4, 67, 120
6, 16950, Note_on_c, 4, 67, 0
6, 16950, Note_on_c, 4, 68, 120
6, 16980, Note_on_c, 4, 68, 0
6, 16980, Note_on_c, 4, 70, 120
6, 17040, Note_on_c, 4, 70, 0
6, 17040, Note_on_c, 4, 70, 120
6, 17100, Note_on_c, 4, 70, 0
6, 17100, Note_on_c, 4, 63, 120
6, 17160, Note_on_c, 4, 63, 0
6, 17280, Note_on_c, 4, 75, 120
6, 17310, Note_on_c, 4, 75, 0
6, 17310, Note_on_c, 4, 72, 120
6, 17340, Note_on_c, 4, 72, 0
6, 17340, Note_on_c, 4, 68, 120
6, 17370, Note_on_c, 4, 68, 0
6, 17370, Note_on_c, 4, 63, 120
6, 17400, Note_on_c, 4, 63, 0
6, 17400, Note_on_c, 4, 68, 120
6, 17430, Note_on_c, 4, 68, 0
6, 17430, Note_on_c, 4, 72, 120
6, 17460, Note_on_c, 4, 72, 0
6, 17460, Note_on_c, 4, 75, 120
6, 17490, Note_on_c, 4, 75, 0
6, 17490, Note_on_c, 4, 74, 120
6, 17520, Note_on_c, 4, 74, 0
6, 17520, Note_on_c, 4, 75, 120
6, 17550, Note_on_c, 4, 75, 0
6, 17550, Note_on_c, 4, 70, 120
6, 17580, Note_on_c, 4, 70, 0
6, 17580, Note_on_c, 4, 67, 120
6, 17610, Note_on_c, 4, 67, 0
6, 17610, Note_on_c, 4, 63, 120
6, 17640, Note_on_c, 4, 63, 0
6, 17640, Note_on_c, 4, 67, 120
6, 17670, Note_on_c, 4, 67, 0
6, 17670, Note_on_c, 4, 70, 120
6, 17700, Note_on_c, 4, 70, 0
6, 17700, Note_on_c, 4, 75, 120
6, 17730, Note_on_c, 4, 75, 0
6, 17730, Note_on_c, 4, 74, 120
6, 17760, Note_on_c, 4, 74, 0
6, 17760, Note_on_c, 4, 75, 120
6, 17790, Note_on_c, 4, 75, 0
6, 17790, Note_on_c, 4, 72, 120
6, 17820, Note_on_c, 4, 72, 0
6, 17820, Note_on_c, 4, 69, 120
6, 17850, Note_on_c, 4, 69, 0
6, 17850, Note_on_c, 4, 65, 120
6, 17880, Note_on_c, 4, 65, 0
6, 17880, Note_on_c, 4, 69, 120
6, 17910, Note_on_c, 4, 69, 0
6, 17910, Note_on_c, 4, 72, 120
6, 17940, Note_on_c, 4, 72, 0
6, 17940, Note_on_c, 4, 75, 120
6, 17970, Note_on_c, 4, 75, 0
6, 17970, Note_on_c, 4, 72, 120
6, 18000, Note_on_c, 4, 72, 0
6, 18000, Note_on_c, 4, 74, 120
6, 18030, Note_on_c, 4, 74, 0
6, 18030, Note_on_c, 4, 70, 120
6, 18060, Note_on_c, 4, 70, 0
6, 18060, Note_on_c, 4, 65, 120
6, 18090, Note_on_c, 4, 65, 0
6, 18090, Note_on_c, 4, 62, 120
6, 18120, Note_on_c, 4, 62, 0
6, 18120, Note_on_c, 4, 65, 120
6, 18150, Note_on_c, 4, 65, 0
6, 18150, Note_on_c, 4, 70, 120
6, 18180, Note_on_c, 4, 70, 0
6, 18180, Note_on_c, 4, 74, 120
6, 18210, Note_on_c, 4, 74, 0
6, 18210, Note_on_c, 4, 70, 120
6, 18240, Note_on_c, 4, 70, 0
6, 18240, Note_on_c, 4, 72, 120
6, 18270, Note_on_c, 4, 72, 0
6, 18270, Note_on_c, 4, 69, 120
6, 18300, Note_on_c, 4, 69, 0
6, 18300, Note_on_c, 4, 66, 120
6, 18330, Note_on_c, 4, 66, 0
6, 18330, Note_on_c, 4, 60, 120
6, 18360, Note_on_c, 4, 60, 0
6, 18360, Note_on_c, 4, 66, 120
6, 18390, Note_on_c, 4, 66, 0
6, 18390, Note_on_c, 4, 69, 120
6, 18420, Note_on_c, 4, 69, 0
6, 18420, Note_on_c, 4, 72, 120
6, 18450, Note_on_c, 4, 72, 0
6, 18450, Note_on_c, 4, 70, 120
6, 18480, Note_on_c, 4, 70, 0
6, 18480, Note_on_c, 4, 72, 120
6, 18510, Note_on_c, 4, 72, 0
6, 18510, Note_on_c, 4, 67, 120
6, 18540, Note_on_c, 4, 67, 0
6, 18540, Note_on_c, 4, 63, 120
6, 18570, Note_on_c, 4, 63, 0
6, 18570, Note_on_c, 4, 60, 120
6, 18600, Note_on_c, 4, 60, 0
6, 18600, Note_on_c, 4, 63, 120
6, 18630, Note_on_c, 4, 63, 0
6, 18630, Note_on_c, 4, 67, 120
6, 18660, Note_on_c, 4, 67, 0
6, 18660, Note_on_c, 4, 72, 120
6, 18690, Note_on_c, 4, 72, 0
6, 18690, Note_on_c, 4, 70, 120
6, 18720, Note_on_c, 4, 70, 0
6, 18720, Note_on_c, 4, 72, 120
6, 18750, Note_on_c, 4, 72, 0
6, 18750, Note_on_c, 4, 69, 120
6, 18780, Note_on_c, 4, 69, 0
6, 18780, Note_on_c, 4, 66, 120
6, 18810, Note_on_c, 4, 66, 0
6, 18810, Note_on_c, 4, 62, 120
6, 18840, Note_on_c, 4, 62, 0
6, 18840, Note_on_c, 4, 66, 120
6, 18870, Note_on_c, 4, 66, 0
6, 18870, Note_on_c, 4, 69, 120
6, 18900, Note_on_c, 4, 69, 0
6, 18900, Note_on_c, 4, 72, 120
6, 18930, Note_on_c, 4, 72, 0
6, 18930, Note_on_c, 4, 69, 120
6, 18960, Note_on_c, 4, 69, 0
6, 18960, Note_on_c, 4, 70, 120
6, 18990, Note_on_c, 4, 70, 0
6, 18990, Note_on_c, 4, 67, 120
6, 19020, Note_on_c, 4, 67, 0
6, 19020, Note_on_c, 4, 62, 120
6, 19050, Note_on_c, 4, 62, 0
6, 19050, Note_on_c, 4, 67, 120
6, 19080, Note_on_c, 4, 67, 0
6, 19080, Note_on_c, 4, 70, 120
6, 19110, Note_on_c, 4, 70, 0
6, 19110, Note_on_c, 4, 74, 120
6, 19140, Note_on_c, 4, 74, 0
6, 19140, Note_on_c, 4, 75, 120
6, 19170, Note_on_c, 4, 75, 0
6, 19170, Note_on_c, 4, 74, 120
6, 19200, Note_on_c, 4, 74, 0
6, 19200, Note_on_c, 4, 72, 120
6, 19229, Note_on_c, 4, 72, 0
6, 19230, Note_on_c, 4, 69, 120
6, 19259, Note_on_c, 4, 69, 0
6, 19260, Note_on_c, 4, 65, 120
6, 19289, Note_on_c, 4, 65, 0
6, 19290, Note_on_c, 4, 69, 120
6, 19319, Note_on_c, 4, 69, 0
6, 19320, Note_on_c, 4, 72, 120
6, 19349, Note_on_c, 4, 72, 0
6, 19350, Note_on_c, 4, 75, 120
6, 19379, Note_on_c, 4, 75, 0
6, 19380, Note_on_c, 4, 77, 120
6, 19409, Note_on_c, 4, 77, 0
6, 19410, Note_on_c, 4, 75, 120
6, 19439, Note_on_c, 4, 75, 0
6, 19440, Note_on_c, 4, 74, 120
6, 19469, Note_on_c, 4, 74, 0
6, 19470, Note_on_c, 4, 70, 120
6, 19499, Note_on_c, 4, 70, 0
6, 19500, Note_on_c, 4, 67, 120
6, 19529, Note_on_c, 4, 67, 0
6, 19530, Note_on_c, 4, 70, 120
6, 19559, Note_on_c, 4, 70, 0
6, 19560, Note_on_c, 4, 74, 120
6, 19589, Note_on_c, 4, 74, 0
6, 19590, Note_on_c, 4, 77, 120
6, 19619, Note_on_c, 4, 77, 0
6, 19620, Note_on_c, 4, 79, 120
6, 19649, Note_on_c, 4, 79, 0
6, 19650, Note_on_c, 4, 77, 120
6, 19679, Note_on_c, 4, 77, 0
6, 19680, Note_on_c, 4, 75, 120
6, 19709, Note_on_c, 4, 75, 0
6, 19710, Note_on_c, 4, 72, 120
6, 19739, Note_on_c, 4, 72, 0
6, 19740, Note_on_c, 4, 67, 120
6, 19769, Note_on_c, 4, 67, 0
6, 19770, Note_on_c, 4, 72, 120
6, 19799, Note_on_c, 4, 72, 0
6, 19800, Note_on_c, 4, 75, 120
6, 19829, Note_on_c, 4, 75, 0
6, 19830, Note_on_c, 4, 79, 120
6, 19859, Note_on_c, 4, 79, 0
6, 19860, Note_on_c, 4, 81, 120
6, 19889, Note_on_c, 4, 81, 0
6, 19890, Note_on_c, 4, 79, 120
6, 19919, Note_on_c, 4, 79, 0
6, 19920, Note_on_c, 4, 78, 120
6, 19949, Note_on_c, 4, 78, 0
6, 19950, Note_on_c, 4, 72, 120
6, 19979, Note_on_c, 4, 72, 0
6, 19980, Note_on_c, 4, 69, 120
6, 20009, Note_on_c, 4, 69, 0
6, 20010, Note_on_c, 4, 72, 120
6, 20039, Note_on_c, 4, 72, 0
6, 20040, Note_on_c, 4, 78, 120
6, 20069, Note_on_c, 4, 78, 0
6, 20070, Note_on_c, 4, 81, 120
6, 20099, Note_on_c, 4, 81, 0
6, 20100, Note_on_c, 4, 82, 120
6, 20129, Note_on_c, 4, 82, 0
6, 20130, Note_on_c, 4, 81, 120
6, 20159, Note_on_c, 4, 81, 0
6, 20160, Note_on_c, 4, 79, 120
6, 20189, Note_on_c, 4, 79, 0
6, 20190, Note_on_c, 4, 74, 120
6, 20219, Note_on_c, 4, 74, 0
6, 20220, Note_on_c, 4, 70, 120
6, 20249, Note_on_c, 4, 70, 0
6, 20250, Note_on_c, 4, 72, 120
6, 20279, Note_on_c, 4, 72, 0
6, 20280, Note_on_c, 4, 74, 120
6, 20309, Note_on_c, 4, 74, 0
6, 20310, Note_on_c, 4, 79, 120
6, 20339, Note_on_c, 4, 79, 0
6, 20340, Note_on_c, 4, 72, 120
6, 20369, Note_on_c, 4, 72, 0
6, 20370, Note_on_c, 4, 79, 120
6, 20399, Note_on_c, 4, 79, 0
6, 20400, Note_on_c, 4, 70, 120
6, 20429, Note_on_c, 4, 70, 0
6, 20430, Note_on_c, 4, 67, 120
6, 20459, Note_on_c, 4, 67, 0
6, 20460, Note_on_c, 4, 62, 120
6, 20489, Note_on_c, 4, 62, 0
6, 20490, Note_on_c, 4, 66, 120
6, 20519, Note_on_c, 4, 66, 0
6, 20520, Note_on_c, 4, 67, 120
6, 20549, Note_on_c, 4, 67, 0
6, 20550, Note_on_c, 4, 62, 120
6, 20579, Note_on_c, 4, 62, 0
6, 20580, Note_on_c, 4, 67, 120
6, 20609, Note_on_c, 4, 67, 0
6, 20610, Note_on_c, 4, 62, 120
6, 20639, Note_on_c, 4, 62, 0
6, 20640, Note_on_c, 4, 58, 120
6, 20699, Note_on_c, 4, 58, 0
6, 20700, Note_on_c, 4, 62, 120
6, 20759, Note_on_c, 4, 62, 0
6, 20760, Note_on_c, 4, 67, 120
6, 20819, Note_on_c, 4, 67, 0
6, 20820, Note_on_c, 4, 72, 120
6, 20909, Note_on_c, 4, 72, 0
6, 20910, Note_on_c, 4, 69, 120
6, 20939, Note_on_c, 4, 69, 0
6, 20940, Note_on_c, 4, 65, 120
6, 20969, Note_on_c, 4, 65, 0
6, 20970, Note_on_c, 4, 69, 120
6, 20999, Note_on_c, 4, 69, 0
6, 21000, Note_on_c, 4, 72, 120
6, 21029, Note_on_c, 4, 72, 0
6, 21030, Note_on_c, 4, 77, 120
6, 21059, Note_on_c, 4, 77, 0
6, 21060, Note_on_c, 4, 79, 120
6, 21089, Note_on_c, 4, 79, 0
6, 21090, Note_on_c, 4, 77, 120
6, 21119, Note_on_c, 4, 77, 0
6, 21120, Note_on_c, 4, 75, 120
6, 21149, Note_on_c, 4, 75, 0
6, 21150, Note_on_c, 4, 72, 120
6, 21179, Note_on_c, 4, 72, 0
6, 21180, Note_on_c, 4, 69, 120
6, 21209, Note_on_c, 4, 69, 0
6, 21210, Note_on_c, 4, 70, 120
6, 21239, Note_on_c, 4, 70, 0
6, 21240, Note_on_c, 4, 72, 120
6, 21269, Note_on_c, 4, 72, 0
6, 21270, Note_on_c, 4, 75, 120
6, 21299, Note_on_c, 4, 75, 0
6, 21300, Note_on_c, 4, 70, 120
6, 21329, Note_on_c, 4, 70, 0
6, 21330, Note_on_c, 4, 75, 120
6, 21359, Note_on_c, 4, 75, 0
6, 21360, Note_on_c, 4, 69, 120
6, 21389, Note_on_c, 4, 69, 0
6, 21390, Note_on_c, 4, 65, 120
6, 21419, Note_on_c, 4, 65, 0
6, 21420, Note_on_c, 4, 60, 120
6, 21449, Note_on_c, 4, 60, 0
6, 21450, Note_on_c, 4, 64, 120
6, 21479, Note_on_c, 4, 64, 0
6, 21480, Note_on_c, 4, 65, 120
6, 21509, Note_on_c, 4, 65, 0
6, 21510, Note_on_c, 4, 60, 120
6, 21539, Note_on_c, 4, 60, 0
6, 21540, Note_on_c, 4, 65, 120
6, 21569, Note_on_c, 4, 65, 0
6, 21570, Note_on_c, 4, 60, 120
6, 21599, Note_on_c, 4, 60, 0
6, 21600, Note_on_c, 4, 57, 120
6, 21659, Note_on_c, 4, 57, 0
6, 21660, Note_on_c, 4, 60, 120
6, 21719, Note_on_c, 4, 60, 0
6, 21720, Note_on_c, 4, 65, 120
6, 21779, Note_on_c, 4, 65, 0
6, 21780, Note_on_c, 4, 70, 120
6, 21869, Note_on_c, 4, 70, 0
6, 21870, Note_on_c, 4, 67, 120
6, 21899, Note_on_c, 4, 67, 0
6, 21900, Note_on_c, 4, 63, 120
6, 21929, Note_on_c, 4, 63, 0
6, 21930, Note_on_c, 4, 67, 120
6, 21959, Note_on_c, 4, 67, 0
6, 21960, Note_on_c, 4, 70, 120
6, 21989, Note_on_c, 4, 70, 0
6, 21990, Note_on_c, 4, 74, 120
6, 22019, Note_on_c, 4, 74, 0
6, 22020, Note_on_c, 4, 75, 120
6, 22049, Note_on_c, 4, 75, 0
6, 22050, Note_on_c, 4, 74, 120
6, 22079, Note_on_c, 4, 74, 0
6, 22080, Note_on_c, 4, 72, 120
6, 22139, Note_on_c, 4, 72, 0
6, 22140, Note_on_c, 4, 79, 120
6, 22169, Note_on_c, 4, 79, 0
6, 22170, Note_on_c, 4, 77, 120
6, 22199, Note_on_c, 4, 77, 0
6, 22200, Note_on_c, 4, 75, 120
6, 22229, Note_on_c, 4, 75, 0
6, 22230, Note_on_c, 4, 74, 120
6, 22259, Note_on_c, 4, 74, 0
6, 22260, Note_on_c, 4, 72, 120
6, 22289, Note_on_c, 4, 72, 0
6, 22290, Note_on_c, 4, 71, 120
6, 22319, Note_on_c, 4, 71, 0
6, 22320, Note_on_c, 4, 72, 120
6, 22349, Note_on_c, 4, 72, 0
6, 22350, Note_on_c, 4, 68, 120
6, 22379, Note_on_c, 4, 68, 0
6, 22380, Note_on_c, 4, 67, 120
6, 22409, Note_on_c, 4, 67, 0
6, 22410, Note_on_c, 4, 65, 120
6, 22439, Note_on_c, 4, 65, 0
6, 22440, Note_on_c, 4, 63, 120
6, 22469, Note_on_c, 4, 63, 0
6, 22470, Note_on_c, 4, 62, 120
6, 22499, Note_on_c, 4, 62, 0
6, 22500, Note_on_c, 4, 60, 120
6, 22529, Note_on_c, 4, 60, 0
6, 22530, Note_on_c, 4, 59, 120
6, 22559, Note_on_c, 4, 59, 0
6, 22560, Note_on_c, 4, 60, 120
6, 22619, Note_on_c, 4, 60, 0
6, 22620, Note_on_c, 4, 75, 120
6, 22649, Note_on_c, 4, 75, 0
6, 22650, Note_on_c, 4, 74, 120
6, 22679, Note_on_c, 4, 74, 0
6, 22680, Note_on_c, 4, 72, 120
6, 22709, Note_on_c, 4, 72, 0
6, 22710, Note_on_c, 4, 70, 120
6, 22739, Note_on_c, 4, 70, 0
6, 22740, Note_on_c, 4, 68, 120
6, 22769, Note_on_c, 4, 68, 0
6, 22770, Note_on_c, 4, 67, 120
6, 22799, Note_on_c, 4, 67, 0
6, 22800, Note_on_c, 4, 68, 120
6, 22829, Note_on_c, 4, 68, 0
6, 22830, Note_on_c, 4, 65, 120
6, 22859, Note_on_c, 4, 65, 0
6, 22860, Note_on_c, 4, 63, 120
6, 22889, Note_on_c, 4, 63, 0
6, 22890, Note_on_c, 4, 61, 120
6, 22919, Note_on_c, 4, 61, 0
6, 22920, Note_on_c, 4, 60, 120
6, 22949, Note_on_c, 4, 60, 0
6, 22950, Note_on_c, 4, 58, 120
6, 22979, Note_on_c, 4, 58, 0
6, 22980, Note_on_c, 4, 56, 120
6, 23009, Note_on_c, 4, 56, 0
6, 23010, Note_on_c, 4, 55, 120
6, 23039, Note_on_c, 4, 55, 0
6, 23040, Note_on_c, 4, 56, 120
6, 23069, Note_on_c, 4, 56, 0
6, 23070, Note_on_c, 4, 58, 120
6, 23099, Note_on_c, 4, 58, 0
6, 23100, Note_on_c, 4, 60, 120
6, 23129, Note_on_c, 4, 60, 0
6, 23130, Note_on_c, 4, 62, 120
6, 23159, Note_on_c, 4, 62, 0
6, 23160, Note_on_c, 4, 63, 120
6, 23220, Note_on_c, 4, 63, 0
6, 23220, Note_on_c, 4, 63, 120
6, 23310, Note_on_c, 4, 63, 0
6, 23310, Note_on_c, 4, 75, 120
6, 23340, Note_on_c, 4, 75, 0
6, 23340, Note_on_c, 4, 74, 120
6, 23370, Note_on_c, 4, 74, 0
6, 23370, Note_on_c, 4, 72, 120
6, 23400, Note_on_c, 4, 72, 0
6, 23400, Note_on_c, 4, 70, 120
6, 23430, Note_on_c, 4, 70, 0
6, 23430, Note_on_c, 4, 69, 120
6, 23460, Note_on_c, 4, 69, 0
6, 23460, Note_on_c, 4, 67, 120
6, 23490, Note_on_c, 4, 67, 0
6, 23490, Note_on_c, 4, 66, 120
6, 23520, Note_on_c, 4, 66, 0
6, 23520, Note_on_c, 4, 67, 120
6, 23610, Note_on_c, 4, 67, 0
6, 23610, Note_on_c, 4, 69, 120
6, 23640, Note_on_c, 4, 69, 0
6, 23640, Note_on_c, 4, 66, 120
6, 23655, Note_on_c, 4, 66, 0
6, 23655, Note_on_c, 4, 67, 120
6, 23670, Note_on_c, 4, 67, 0
6, 23670, Note_on_c, 4, 66, 120
6, 23685, Note_on_c, 4, 66, 0
6, 23685, Note_on_c, 4, 67, 120
6, 23700, Note_on_c, 4, 67, 0
6, 23700, Note_on_c, 4, 66, 120
6, 23715, Note_on_c, 4, 66, 0
6, 23730, Note_on_c, 4, 67, 120
6, 23760, Note_on_c, 4, 67, 0
6, 23760, Note_on_c, 4, 67, 120
6, 23880, Note_on_c, 4, 67, 0
6, 23940, Note_on_c, 4, 67, 120
6, 23970, Note_on_c, 4, 67, 0
6, 23970, Note_on_c, 4, 69, 120
6, 24000, Note_on_c, 4, 69, 0
6, 24000, Note_on_c, 4, 71, 120
6, 24030, Note_on_c, 4, 71, 0
6, 24030, Note_on_c, 4, 72, 120
6, 24060, Note_on_c, 4, 72, 0
6, 24060, Note_on_c, 4, 74, 120
6, 24090, Note_on_c, 4, 74, 0
6, 24090, Note_on_c, 4, 75, 120
6, 24120, Note_on_c, 4, 75, 0
6, 24120, Note_on_c, 4, 77, 120
6, 24180, Note_on_c, 4, 77, 0
6, 24180, Note_on_c, 4, 71, 120
6, 24240, Note_on_c, 4, 71, 0
6, 24420, Note_on_c, 4, 71, 120
6, 24450, Note_on_c, 4, 71, 0
6, 24450, Note_on_c, 4, 72, 120
6, 24480, Note_on_c, 4, 72, 0
6, 24480, Note_on_c, 4, 74, 120
6, 24510, Note_on_c, 4, 74, 0
6, 24510, Note_on_c, 4, 75, 120
6, 24540, Note_on_c, 4, 75, 0
6, 24540, Note_on_c, 4, 77, 120
6, 24570, Note_on_c, 4, 77, 0
6, 24570, Note_on_c, 4, 79, 120
6, 24600, Note_on_c, 4, 79, 0
6, 24600, Note_on_c, 4, 80, 120
6, 24630, Note_on_c, 4, 80, 0
6, 24630, Note_on_c, 4, 77, 120
6, 24660, Note_on_c, 4, 77, 0
6, 24660, Note_on_c, 4, 74, 120
6, 24690, Note_on_c, 4, 74, 0
6, 24690, Note_on_c, 4, 75, 120
6, 24720, Note_on_c, 4, 75, 0
6, 24720, Note_on_c, 4, 77, 120
6, 24750, Note_on_c, 4, 77, 0
6, 24750, Note_on_c, 4, 74, 120
6, 24780, Note_on_c, 4, 74, 0
6, 24780, Note_on_c, 4, 71, 120
6, 24810, Note_on_c, 4, 71, 0
6, 24810, Note_on_c, 4, 72, 120
6, 24840, Note_on_c, 4, 72, 0
6, 24840, Note_on_c, 4, 74, 120
6, 24870, Note_on_c, 4, 74, 0
6, 24870, Note_on_c, 4, 68, 120
6, 24900, Note_on_c, 4, 68, 0
6, 24900, Note_on_c, 4, 67, 120
6, 24930, Note_on_c, 4, 67, 0
6, 24930, Note_on_c, 4, 65, 120
6, 24960, Note_on_c, 4, 65, 0
6, 24960, Note_on_c, 4, 63, 120
6, 25020, Note_on_c, 4, 63, 0
6, 25020, Note_on_c, 4, 72, 120
6, 25080, Note_on_c, 4, 72, 0
6, 25080, Note_on_c, 4, 67, 120
6, 25080, Note_on_c, 4, 75, 120
6, 25140, Note_on_c, 4, 75, 0
6, 25140, Note_on_c, 4, 67, 0
6, 25140, Note_on_c, 4, 65, 120
6, 25140, Note_on_c, 4, 74, 120
6, 25200, Note_on_c, 4, 74, 0
6, 25200, Note_on_c, 4, 65, 0
6, 25200, Note_on_c, 4, 67, 120
6, 25260, Note_on_c, 4, 67, 0
6, 25260, Note_on_c, 4, 72, 120
6, 25290, Note_on_c, 4, 72, 0
6, 25290, Note_on_c, 4, 74, 120
6, 25320, Note_on_c, 4, 74, 0
6, 25320, Note_on_c, 4, 75, 120
6, 25350, Note_on_c, 4, 75, 0
6, 25350, Note_on_c, 4, 74, 120
6, 25380, Note_on_c, 4, 74, 0
6, 25380, Note_on_c, 4, 75, 120
6, 25410, Note_on_c, 4, 75, 0
6, 25410, Note_on_c, 4, 74, 120
6, 25440, Note_on_c, 4, 74, 0
6, 25440, Note_on_c, 4, 60, 120
6, 25440, Note_on_c, 4, 63, 120
6, 25440, Note_on_c, 4, 72, 120
6, 25470, Note_on_c, 4, 72, 0
6, 25470, Note_on_c, 4, 74, 120
6, 25500, Note_on_c, 4, 74, 0
6, 25500, Note_on_c, 4, 63, 0
6, 25500, Note_on_c, 4, 60, 0
6, 25500, Note_on_c, 4, 75, 120
6, 25530, Note_on_c, 4, 75, 0
6, 25530, Note_on_c, 4, 77, 120
6, 25560, Note_on_c, 4, 77, 0
6, 25560, Note_on_c, 4, 79, 120
6, 25590, Note_on_c, 4, 79, 0
6, 25590, Note_on_c, 4, 81, 120
6, 25620, Note_on_c, 4, 81, 0
6, 25620, Note_on_c, 4, 82, 120
6, 25650, Note_on_c, 4, 82, 0
6, 25650, Note_on_c, 4, 84, 120
6, 25680, Note_on_c, 4, 84, 0
6, 25680, Note_on_c, 4, 78, 120
6, 25740, Note_on_c, 4, 78, 0
6, 25740, Note_on_c, 4, 74, 120
6, 25800, Note_on_c, 4, 74, 0
6, 25860, Note_on_c, 4, 62, 120
6, 25890, Note_on_c, 4, 62, 0
6, 25890, Note_on_c, 4, 64, 120
6, 25920, Note_on_c, 4, 64, 0
6, 25920, Note_on_c, 4, 66, 120
6, 25950, Note_on_c, 4, 66, 0
6, 25950, Note_on_c, 4, 67, 120
6, 25980, Note_on_c, 4, 67, 0
6, 25980, Note_on_c, 4, 69, 120
6, 26010, Note_on_c, 4, 69, 0
6, 26010, Note_on_c, 4, 70, 120
6, 26040, Note_on_c, 4, 70, 0
6, 26040, Note_on_c, 4, 72, 120
6, 26100, Note_on_c, 4, 72, 0
6, 26100, Note_on_c, 4, 66, 120
6, 26160, Note_on_c, 4, 66, 0
6, 26340, Note_on_c, 4, 66, 120
6, 26370, Note_on_c, 4, 66, 0
6, 26370, Note_on_c, 4, 67, 120
6, 26400, Note_on_c, 4, 67, 0
6, 26400, Note_on_c, 4, 69, 120
6, 26430, Note_on_c, 4, 69, 0
6, 26430, Note_on_c, 4, 70, 120
6, 26460, Note_on_c, 4, 70, 0
6, 26460, Note_on_c, 4, 72, 120
6, 26490, Note_on_c, 4, 72, 0
6, 26490, Note_on_c, 4, 74, 120
6, 26520, Note_on_c, 4, 74, 0
6, 26520, Note_on_c, 4, 75, 120
6, 26550, Note_on_c, 4, 75, 0
6, 26550, Note_on_c, 4, 72, 120
6, 26580, Note_on_c, 4, 72, 0
6, 26580, Note_on_c, 4, 69, 120
6, 26610, Note_on_c, 4, 69, 0
6, 26610, Note_on_c, 4, 70, 120
6, 26640, Note_on_c, 4, 70, 0
6, 26640, Note_on_c, 4, 72, 120
6, 26670, Note_on_c, 4, 72, 0
6, 26670, Note_on_c, 4, 69, 120
6, 26700, Note_on_c, 4, 69, 0
6, 26700, Note_on_c, 4, 66, 120
6, 26730, Note_on_c, 4, 66, 0
6, 26730, Note_on_c, 4, 67, 120
6, 26760, Note_on_c, 4, 67, 0
6, 26760, Note_on_c, 4, 69, 120
6, 26790, Note_on_c, 4, 69, 0
6, 26790, Note_on_c, 4, 63, 120
6, 26820, Note_on_c, 4, 63, 0
6, 26820, Note_on_c, 4, 62, 120
6, 26850, Note_on_c, 4, 62, 0
6, 26850, Note_on_c, 4, 60, 120
6, 26880, Note_on_c, 4, 60, 0
6, 26880, Note_on_c, 4, 58, 120
6, 26910, Note_on_c, 4, 58, 0
6, 26910, Note_on_c, 4, 57, 120
6, 26940, Note_on_c, 4, 57, 0
6, 26940, Note_on_c, 4, 55, 120
6, 27000, Note_on_c, 4, 55, 0
6, 27000, Note_on_c, 4, 74, 120
6, 27030, Note_on_c, 4, 74, 0
6, 27030, Note_on_c, 4, 72, 120
6, 27060, Note_on_c, 4, 72, 0
6, 27060, Note_on_c, 4, 70, 120
6, 27090, Note_on_c, 4, 70, 0
6, 27090, Note_on_c, 4, 69, 120
6, 27120, Note_on_c, 4, 69, 0
6, 27120, Note_on_c, 4, 67, 120
6, 27150, Note_on_c, 4, 67, 0
6, 27150, Note_on_c, 4, 62, 120
6, 27180, Note_on_c, 4, 62, 0
6, 27180, Note_on_c, 4, 67, 120
6, 27210, Note_on_c, 4, 67, 0
6, 27210, Note_on_c, 4, 66, 120
6, 27240, Note_on_c, 4, 66, 0
6, 27240, Note_on_c, 4, 67, 120
6, 27300, Note_on_c, 4, 67, 0
6, 27480, Note_on_c, 4, 70, 120
6, 27509, Note_on_c, 4, 70, 0
6, 27510, Note_on_c, 4, 68, 120
6, 27539, Note_on_c, 4, 68, 0
6, 27540, Note_on_c, 4, 67, 120
6, 27569, Note_on_c, 4, 67, 0
6, 27570, Note_on_c, 4, 65, 120
6, 27599, Note_on_c, 4, 65, 0
6, 27600, Note_on_c, 4, 63, 120
6, 27629, Note_on_c, 4, 63, 0
6, 27630, Note_on_c, 4, 58, 120
6, 27659, Note_on_c, 4, 58, 0
6, 27660, Note_on_c, 4, 63, 120
6, 27689, Note_on_c, 4, 63, 0
6, 27690, Note_on_c, 4, 62, 120
6, 27719, Note_on_c, 4, 62, 0
6, 27720, Note_on_c, 4, 63, 120
6, 27779, Note_on_c, 4, 63, 0
6, 27960, Note_on_c, 4, 79, 120
6, 27989, Note_on_c, 4, 79, 0
6, 27990, Note_on_c, 4, 77, 120
6, 28019, Note_on_c, 4, 77, 0
6, 28020, Note_on_c, 4, 75, 120
6, 28049, Note_on_c, 4, 75, 0
6, 28050, Note_on_c, 4, 74, 120
6, 28079, Note_on_c, 4, 74, 0
6, 28080, Note_on_c, 4, 72, 120
6, 28109, Note_on_c, 4, 72, 0
6, 28110, Note_on_c, 4, 67, 120
6, 28139, Note_on_c, 4, 67, 0
6, 28140, Note_on_c, 4, 72, 120
6, 28169, Note_on_c, 4, 72, 0
6, 28170, Note_on_c, 4, 71, 120
6, 28199, Note_on_c, 4, 71, 0
6, 28200, Note_on_c, 4, 72, 120
6, 28259, Note_on_c, 4, 72, 0
6, 28590, Note_on_c, 4, 72, 120
6, 28619, Note_on_c, 4, 72, 0
6, 28620, Note_on_c, 4, 75, 120
6, 28649, Note_on_c, 4, 75, 0
6, 28650, Note_on_c, 4, 74, 120
6, 28679, Note_on_c, 4, 74, 0
6, 28680, Note_on_c, 4, 72, 120
6, 28709, Note_on_c, 4, 72, 0
6, 28710, Note_on_c, 4, 70, 120
6, 28739, Note_on_c, 4, 70, 0
6, 28740, Note_on_c, 4, 69, 120
6, 28769, Note_on_c, 4, 69, 0
6, 28770, Note_on_c, 4, 67, 120
6, 28799, Note_on_c, 4, 67, 0
6, 28800, Note_on_c, 4, 62, 120
6, 28800, Note_on_c, 4, 65, 120
6, 28859, Note_on_c, 4, 65, 0
6, 28860, Note_on_c, 4, 70, 120
6, 28919, Note_on_c, 4, 70, 0
6, 28920, Note_on_c, 4, 62, 0
6, 28920, Note_on_c, 4, 65, 120
6, 28920, Note_on_c, 4, 74, 120
6, 28979, Note_on_c, 4, 74, 0
6, 28979, Note_on_c, 4, 65, 0
6, 28980, Note_on_c, 4, 72, 120
6, 28980, Note_on_c, 4, 63, 120
6, 29039, Note_on_c, 4, 63, 0
6, 29039, Note_on_c, 4, 72, 0
6, 29040, Note_on_c, 4, 65, 120
6, 29040, Note_on_c, 4, 62, 120
6, 29069, Note_on_c, 4, 62, 0
6, 29070, Note_on_c, 4, 60, 120
6, 29099, Note_on_c, 4, 60, 0
6, 29100, Note_on_c, 4, 65, 0
6, 29100, Note_on_c, 4, 70, 120
6, 29100, Note_on_c, 4, 62, 120
6, 29129, Note_on_c, 4, 62, 0
6, 29129, Note_on_c, 4, 70, 0
6, 29130, Note_on_c, 4, 63, 120
6, 29130, Note_on_c, 4, 72, 120
6, 29159, Note_on_c, 4, 72, 0
6, 29159, Note_on_c, 4, 63, 0
6, 29160, Note_on_c, 4, 74, 120
6, 29160, Note_on_c, 4, 65, 120
6, 29189, Note_on_c, 4, 65, 0
6, 29189, Note_on_c, 4, 74, 0
6, 29190, Note_on_c, 4, 63, 120
6, 29190, Note_on_c, 4, 72, 120
6, 29219, Note_on_c, 4, 72, 0
6, 29219, Note_on_c, 4, 63, 0
6, 29220, Note_on_c, 4, 65, 120
6, 29220, Note_on_c, 4, 74, 120
6, 29249, Note_on_c, 4, 74, 0
6, 29249, Note_on_c, 4, 65, 0
6, 29250, Note_on_c, 4, 63, 120
6, 29250, Note_on_c, 4, 72, 120
6, 29279, Note_on_c, 4, 72, 0
6, 29279, Note_on_c, 4, 63, 0
6, 29280, Note_on_c, 4, 58, 120
6, 29280, Note_on_c, 4, 62, 120
6, 29280, Note_on_c, 4, 70, 120
6, 29339, Note_on_c, 4, 70, 0
6, 29340, Note_on_c, 4, 62, 0
6, 29340, Note_on_c, 4, 58, 0
6, 29340, Note_on_c, 4, 72, 120
6, 29369, Note_on_c, 4, 72, 0
6, 29370, Note_on_c, 4, 74, 120
6, 29399, Note_on_c, 4, 74, 0
6, 29400, Note_on_c, 4, 75, 120
6, 29429, Note_on_c, 4, 75, 0
6, 29430, Note_on_c, 4, 77, 120
6, 29459, Note_on_c, 4, 77, 0
6, 29460, Note_on_c, 4, 79, 120
6, 29519, Note_on_c, 4, 79, 0
6, 29520, Note_on_c, 4, 79, 120
6, 29579, Note_on_c, 4, 79, 0
6, 29580, Note_on_c, 4, 69, 120
6, 29639, Note_on_c, 4, 69, 0
6, 29760, Note_on_c, 4, 69, 120
6, 29819, Note_on_c, 4, 69, 0
6, 29820, Note_on_c, 4, 70, 120
6, 29849, Note_on_c, 4, 70, 0
6, 29850, Note_on_c, 4, 72, 120
6, 29879, Note_on_c, 4, 72, 0
6, 29880, Note_on_c, 4, 74, 120
6, 29909, Note_on_c, 4, 74, 0
6, 29910, Note_on_c, 4, 75, 120
6, 29939, Note_on_c, 4, 75, 0
6, 29940, Note_on_c, 4, 77, 120
6, 29999, Note_on_c, 4, 77, 0
6, 30000, Note_on_c, 4, 77, 120
6, 30059, Note_on_c, 4, 77, 0
6, 30060, Note_on_c, 4, 67, 120
6, 30119, Note_on_c, 4, 67, 0
6, 30240, Note_on_c, 4, 67, 120
6, 30299, Note_on_c, 4, 67, 0
6, 30300, Note_on_c, 4, 69, 120
6, 30329, Note_on_c, 4, 69, 0
6, 30330, Note_on_c, 4, 70, 120
6, 30359, Note_on_c, 4, 70, 0
6, 30360, Note_on_c, 4, 72, 120
6, 30389, Note_on_c, 4, 72, 0
6, 30390, Note_on_c, 4, 74, 120
6, 30419, Note_on_c, 4, 74, 0
6, 30420, Note_on_c, 4, 75, 120
6, 30479, Note_on_c, 4, 75, 0
6, 30480, Note_on_c, 4, 75, 120
6, 30539, Note_on_c, 4, 75, 0
6, 30540, Note_on_c, 4, 65, 120
6, 30599, Note_on_c, 4, 65, 0
6, 30840, Note_on_c, 4, 74, 120
6, 30840, Note_on_c, 4, 82, 120
6, 30840, Note_on_c, 4, 77, 120
6, 30899, Note_on_c, 4, 77, 0
6, 30899, Note_on_c, 4, 82, 0
6, 30899, Note_on_c, 4, 74, 0
6, 30900, Note_on_c, 4, 70, 120
6, 30900, Note_on_c, 4, 74, 120
6, 30900, Note_on_c, 4, 77, 120
6, 30959, Note_on_c, 4, 77, 0
6, 30959, Note_on_c, 4, 74, 0
6, 30959, Note_on_c, 4, 70, 0
6, 31080, Note_on_c, 4, 82, 120
6, 31080, Note_on_c, 4, 74, 120
6, 31080, Note_on_c, 4, 77, 120
6, 31139, Note_on_c, 4, 77, 0
6, 31139, Note_on_c, 4, 74, 0
6, 31139, Note_on_c, 4, 82, 0
6, 31140, Note_on_c, 4, 70, 120
6, 31140, Note_on_c, 4, 74, 120
6, 31140, Note_on_c, 4, 77, 120
6, 31199, Note_on_c, 4, 77, 0
6, 31199, Note_on_c, 4, 74, 0
6, 31199, Note_on_c, 4, 70, 0
6, 31320, Note_on_c, 4, 74, 120
6, 31320, Note_on_c, 4, 82, 120
6, 31320, Note_on_c, 4, 77, 120
6, 31379, Note_on_c, 4, 77, 0
6, 31379, Note_on_c, 4, 82, 0
6, 31379, Note_on_c, 4, 74, 0
6, 31380, Note_on_c, 4, 70, 120
6, 31380, Note_on_c, 4, 74, 120
6, 31380, Note_on_c, 4, 77, 120
6, 31439, Note_on_c, 4, 77, 0
6, 31439, Note_on_c, 4, 74, 0
6, 31439, Note_on_c, 4, 70, 0
6, 31560, Note_on_c, 4, 82, 120
6, 31589, Note_on_c, 4, 82, 0
6, 31590, Note_on_c, 4, 80, 120
6, 31619, Note_on_c, 4, 80, 0
6, 31620, Note_on_c, 4, 79, 120
6, 31649, Note_on_c, 4, 79, 0
6, 31650, Note_on_c, 4, 77, 120
6, 31679, Note_on_c, 4, 77, 0
6, 31680, Note_on_c, 4, 75, 120
6, 31739, Note_on_c, 4, 75, 0
6, 31740, Note_on_c, 4, 75, 120
6, 31799, Note_on_c, 4, 75, 0
6, 31800, Note_on_c, 4, 75, 120
6, 31919, Note_on_c, 4, 75, 0
6, 31950, Note_on_c, 4, 65, 120
6, 31979, Note_on_c, 4, 65, 0
6, 31980, Note_on_c, 4, 63, 120
6, 32009, Note_on_c, 4, 63, 0
6, 32010, Note_on_c, 4, 62, 120
6, 32039, Note_on_c, 4, 62, 0
6, 32040, Note_on_c, 4, 60, 120
6, 32069, Note_on_c, 4, 60, 0
6, 32070, Note_on_c, 4, 63, 120
6, 32099, Note_on_c, 4, 63, 0
6, 32100, Note_on_c, 4, 65, 120
6, 32129, Note_on_c, 4, 65, 0
6, 32130, Note_on_c, 4, 67, 120
6, 32159, Note_on_c, 4, 67, 0
6, 32160, Note_on_c, 4, 65, 120
6, 32189, Note_on_c, 4, 65, 0
6, 32190, Note_on_c, 4, 67, 120
6, 32219, Note_on_c, 4, 67, 0
6, 32220, Note_on_c, 4, 69, 120
6, 32249, Note_on_c, 4, 69, 0
6, 32250, Note_on_c, 4, 70, 120
6, 32279, Note_on_c, 4, 70, 0
6, 32280, Note_on_c, 4, 72, 120
6, 32339, Note_on_c, 4, 72, 0
6, 32340, Note_on_c, 4, 63, 120
6, 32399, Note_on_c, 4, 63, 0
6, 33600, Note_on_c, 4, 62, 120
6, 33600, Note_on_c, 4, 65, 120
6, 33659, Note_on_c, 4, 65, 0
6, 33660, Note_on_c, 4, 70, 120
6, 33719, Note_on_c, 4, 70, 0
6, 33720, Note_on_c, 4, 62, 0
6, 33720, Note_on_c, 4, 65, 120
6, 33720, Note_on_c, 4, 74, 120
6, 33779, Note_on_c, 4, 74, 0
6, 33779, Note_on_c, 4, 65, 0
6, 33780, Note_on_c, 4, 63, 120
6, 33780, Note_on_c, 4, 72, 120
6, 33839, Note_on_c, 4, 72, 0
6, 33839, Note_on_c, 4, 63, 0
6, 33840, Note_on_c, 4, 65, 120
6, 33840, Note_on_c, 4, 62, 120
6, 33869, Note_on_c, 4, 62, 0
6, 33870, Note_on_c, 4, 60, 120
6, 33899, Note_on_c, 4, 60, 0
6, 33900, Note_on_c, 4, 65, 0
6, 33900, Note_on_c, 4, 62, 120
6, 33900, Note_on_c, 4, 70, 120
6, 33929, Note_on_c, 4, 70, 0
6, 33929, Note_on_c, 4, 62, 0
6, 33930, Note_on_c, 4, 63, 120
6, 33930, Note_on_c, 4, 72, 120
6, 33959, Note_on_c, 4, 72, 0
6, 33959, Note_on_c, 4, 63, 0
6, 33960, Note_on_c, 4, 65, 120
6, 33960, Note_on_c, 4, 74, 120
6, 33989, Note_on_c, 4, 74, 0
6, 33989, Note_on_c, 4, 65, 0
6, 33990, Note_on_c, 4, 63, 120
6, 33990, Note_on_c, 4, 72, 120
6, 34019, Note_on_c, 4, 72, 0
6, 34019, Note_on_c, 4, 63, 0
6, 34020, Note_on_c, 4, 65, 120
6, 34020, Note_on_c, 4, 74, 120
6, 34049, Note_on_c, 4, 74, 0
6, 34049, Note_on_c, 4, 65, 0
6, 34050, Note_on_c, 4, 63, 120
6, 34050, Note_on_c, 4, 72, 120
6, 34079, Note_on_c, 4, 72, 0
6, 34079, Note_on_c, 4, 63, 0
6, 34080, Note_on_c, 4, 58, 120
6, 34080, Note_on_c, 4, 70, 120
6, 34080, Note_on_c, 4, 62, 120
6, 34139, Note_on_c, 4, 62, 0
6, 34139, Note_on_c, 4, 70, 0
6, 34139, Note_on_c, 4, 58, 0
6, 34140, Note_on_c, 4, 72, 120
6, 34169, Note_on_c, 4, 72, 0
6, 34170, Note_on_c, 4, 74, 120
6, 34199, Note_on_c, 4, 74, 0
6, 34200, Note_on_c, 4, 75, 120
6, 34229, Note_on_c, 4, 75, 0
6, 34230, Note_on_c, 4, 77, 120
6, 34259, Note_on_c, 4, 77, 0
6, 34260, Note_on_c, 4, 79, 120
6, 34319, Note_on_c, 4, 79, 0
6, 34320, Note_on_c, 4, 79, 120
6, 34379, Note_on_c, 4, 79, 0
6, 34380, Note_on_c, 4, 72, 120
6, 34439, Note_on_c, 4, 72, 0
6, 34560, Note_on_c, 4, 63, 120
6, 34619, Note_on_c, 4, 63, 0
6, 34620, Note_on_c, 4, 69, 120
6, 34679, Note_on_c, 4, 69, 0
6, 34680, Note_on_c, 4, 63, 120
6, 34680, Note_on_c, 4, 72, 120
6, 34739, Note_on_c, 4, 72, 0
6, 34739, Note_on_c, 4, 63, 0
6, 34740, Note_on_c, 4, 70, 120
6, 34740, Note_on_c, 4, 62, 120
6, 34799, Note_on_c, 4, 62, 0
6, 34799, Note_on_c, 4, 70, 0
6, 34800, Note_on_c, 4, 63, 120
6, 34800, Note_on_c, 4, 60, 120
6, 34829, Note_on_c, 4, 60, 0
6, 34830, Note_on_c, 4, 58, 120
6, 34859, Note_on_c, 4, 58, 0
6, 34860, Note_on_c, 4, 63, 0
6, 34860, Note_on_c, 4, 69, 120
6, 34860, Note_on_c, 4, 60, 120
6, 34889, Note_on_c, 4, 60, 0
6, 34889, Note_on_c, 4, 69, 0
6, 34890, Note_on_c, 4, 62, 120
6, 34890, Note_on_c, 4, 70, 120
6, 34919, Note_on_c, 4, 70, 0
6, 34919, Note_on_c, 4, 62, 0
6, 34920, Note_on_c, 4, 63, 120
6, 34920, Note_on_c, 4, 72, 120
6, 34949, Note_on_c, 4, 72, 0
6, 34949, Note_on_c, 4, 63, 0
6, 34950, Note_on_c, 4, 70, 120
6, 34950, Note_on_c, 4, 62, 120
6, 34979, Note_on_c, 4, 62, 0
6, 34979, Note_on_c, 4, 70, 0
6, 34980, Note_on_c, 4, 63, 120
6, 34980, Note_on_c, 4, 72, 120
6, 35009, Note_on_c, 4, 72, 0
6, 35009, Note_on_c, 4, 63, 0
6, 35010, Note_on_c, 4, 70, 120
6, 35010, Note_on_c, 4, 62, 120
6, 35039, Note_on_c, 4, 62, 0
6, 35039, Note_on_c, 4, 70, 0
6, 35040, Note_on_c, 4, 63, 120
6, 35040, Note_on_c, 4, 69, 120
6, 35099, Note_on_c, 4, 69, 0
6, 35099, Note_on_c, 4, 63, 0
6, 35100, Note_on_c, 4, 70, 120
6, 35129, Note_on_c, 4, 70, 0
6, 35130, Note_on_c, 4, 72, 120
6, 35159, Note_on_c, 4, 72, 0
6, 35160, Note_on_c, 4, 74, 120
6, 35189, Note_on_c, 4, 74, 0
6, 35190, Note_on_c, 4, 75, 120
6, 35219, Note_on_c, 4, 75, 0
6, 35220, Note_on_c, 4, 77, 120
6, 35279, Note_on_c, 4, 77, 0
6, 35280, Note_on_c, 4, 77, 120
6, 35339, Note_on_c, 4, 77, 0
6, 35340, Note_on_c, 4, 70, 120
6, 35399, Note_on_c, 4, 70, 0
6, 35580, Note_on_c, 4, 79, 120
6, 35609, Note_on_c, 4, 79, 0
6, 35610, Note_on_c, 4, 80, 120
6, 35639, Note_on_c, 4, 80, 0
6, 35640, Note_on_c, 4, 82, 120
6, 35669, Note_on_c, 4, 82, 0
6, 35670, Note_on_c, 4, 80, 120
6, 35699, Note_on_c, 4, 80, 0
6, 35700, Note_on_c, 4, 82, 120
6, 35729, Note_on_c, 4, 82, 0
6, 35730, Note_on_c, 4, 79, 120
6, 35759, Note_on_c, 4, 79, 0
6, 35760, Note_on_c, 4, 72, 120
6, 35789, Note_on_c, 4, 72, 0
6, 35790, Note_on_c, 4, 76, 120
6, 35819, Note_on_c, 4, 76, 0
6, 35820, Note_on_c, 4, 77, 120
6, 35849, Note_on_c, 4, 77, 0
6, 35850, Note_on_c, 4, 79, 120
6, 35879, Note_on_c, 4, 79, 0
6, 35880, Note_on_c, 4, 80, 120
6, 35909, Note_on_c, 4, 80, 0
6, 35910, Note_on_c, 4, 79, 120
6, 35939, Note_on_c, 4, 79, 0
6, 35940, Note_on_c, 4, 80, 120
6, 35969, Note_on_c, 4, 80, 0
6, 35970, Note_on_c, 4, 77, 120
6, 35999, Note_on_c, 4, 77, 0
6, 36000, Note_on_c, 4, 72, 120
6, 36029, Note_on_c, 4, 72, 0
6, 36030, Note_on_c, 4, 74, 120
6, 36059, Note_on_c, 4, 74, 0
6, 36060, Note_on_c, 4, 76, 120
6, 36089, Note_on_c, 4, 76, 0
6, 36090, Note_on_c, 4, 77, 120
6, 36119, Note_on_c, 4, 77, 0
6, 36120, Note_on_c, 4, 79, 120
6, 36149, Note_on_c, 4, 79, 0
6, 36150, Note_on_c, 4, 77, 120
6, 36179, Note_on_c, 4, 77, 0
6, 36180, Note_on_c, 4, 79, 120
6, 36209, Note_on_c, 4, 79, 0
6, 36210, Note_on_c, 4, 76, 120
6, 36239, Note_on_c, 4, 76, 0
6, 36240, Note_on_c, 4, 77, 120
6, 36260, Note_on_c, 4, 77, 0
6, 36260, Note_on_c, 4, 79, 120
6, 36280, Note_on_c, 4, 79, 0
6, 36280, Note_on_c, 4, 77, 120
6, 36300, Note_on_c, 4, 77, 0
6, 36300, Note_on_c, 4, 79, 120
6, 36315, Note_on_c, 4, 79, 0
6, 36315, Note_on_c, 4, 77, 120
6, 36330, Note_on_c, 4, 77, 0
6, 36330, Note_on_c, 4, 79, 120
6, 36345, Note_on_c, 4, 79, 0
6, 36345, Note_on_c, 4, 77, 120
6, 36360, Note_on_c, 4, 77, 0
6, 36360, Note_on_c, 4, 79, 120
6, 36375, Note_on_c, 4, 79, 0
6, 36375, Note_on_c, 4, 77, 120
6, 36390, Note_on_c, 4, 77, 0
6, 36390, Note_on_c, 4, 79, 120
6, 36405, Note_on_c, 4, 79, 0
6, 36405, Note_on_c, 4, 77, 120
6, 36420, Note_on_c, 4, 77, 0
6, 36420, Note_on_c, 4, 79, 120
6, 36435, Note_on_c, 4, 79, 0
6, 36435, Note_on_c, 4, 77, 120
6, 36450, Note_on_c, 4, 77, 0
6, 36450, Note_on_c, 4, 79, 120
6, 36465, Note_on_c, 4, 79, 0
6, 36465, Note_on_c, 4, 77, 120
6, 36480, Note_on_c, 4, 77, 0
6, 36480, Note_on_c, 4, 79, 120
6, 36495, Note_on_c, 4, 79, 0
6, 36495, Note_on_c, 4, 77, 120
6, 36510, Note_on_c, 4, 77, 0
6, 36510, Note_on_c, 4, 70, 120
6, 36539, Note_on_c, 4, 70, 0
6, 36540, Note_on_c, 4, 77, 120
6, 36569, Note_on_c, 4, 77, 0
6, 36570, Note_on_c, 4, 79, 120
6, 36599, Note_on_c, 4, 79, 0
6, 36600, Note_on_c, 4, 80, 120
6, 36629, Note_on_c, 4, 80, 0
6, 36630, Note_on_c, 4, 79, 120
6, 36659, Note_on_c, 4, 79, 0
6, 36660, Note_on_c, 4, 80, 120
6, 36689, Note_on_c, 4, 80, 0
6, 36690, Note_on_c, 4, 77, 120
6, 36719, Note_on_c, 4, 77, 0
6, 36720, Note_on_c, 4, 79, 120
6, 36749, Note_on_c, 4, 79, 0
6, 36750, Note_on_c, 4, 77, 120
6, 36779, Note_on_c, 4, 77, 0
6, 36780, Note_on_c, 4, 76, 120
6, 36809, Note_on_c, 4, 76, 0
6, 36810, Note_on_c, 4, 74, 120
6, 36839, Note_on_c, 4, 74, 0
6, 36840, Note_on_c, 4, 72, 120
6, 36899, Note_on_c, 4, 72, 0
6, 36900, Note_on_c, 4, 72, 120
6, 36959, Note_on_c, 4, 72, 0
6, 36960, Note_on_c, 4, 72, 120
6, 37019, Note_on_c, 4, 72, 0
6, 37020, Note_on_c, 4, 84, 120
6, 37139, Note_on_c, 4, 84, 0
6, 37140, Note_on_c, 4, 82, 120
6, 37229, Note_on_c, 4, 82, 0
6, 37230, Note_on_c, 4, 80, 120
6, 37259, Note_on_c, 4, 80, 0
6, 37260, Note_on_c, 4, 79, 120
6, 37289, Note_on_c, 4, 79, 0
6, 37290, Note_on_c, 4, 77, 120
6, 37319, Note_on_c, 4, 77, 0
6, 37320, Note_on_c, 4, 79, 120
6, 37349, Note_on_c, 4, 79, 0
6, 37350, Note_on_c, 4, 73, 120
6, 37379, Note_on_c, 4, 73, 0
6, 37380, Note_on_c, 4, 72, 120
6, 37409, Note_on_c, 4, 72, 0
6, 37410, Note_on_c, 4, 70, 120
6, 37439, Note_on_c, 4, 70, 0
6, 37440, Note_on_c, 4, 68, 120
6, 37469, Note_on_c, 4, 68, 0
6, 37470, Note_on_c, 4, 65, 120
6, 37499, Note_on_c, 4, 65, 0
6, 37500, Note_on_c, 4, 70, 120
6, 37529, Note_on_c, 4, 70, 0
6, 37530, Note_on_c, 4, 65, 120
6, 37559, Note_on_c, 4, 65, 0
6, 37560, Note_on_c, 4, 68, 120
6, 37589, Note_on_c, 4, 68, 0
6, 37590, Note_on_c, 4, 65, 120
6, 37619, Note_on_c, 4, 65, 0
6, 37620, Note_on_c, 4, 67, 120
6, 37649, Note_on_c, 4, 67, 0
6, 37650, Note_on_c, 4, 65, 120
6, 37679, Note_on_c, 4, 65, 0
6, 37680, Note_on_c, 4, 68, 120
6, 37709, Note_on_c, 4, 68, 0
6, 37710, Note_on_c, 4, 65, 120
6, 37739, Note_on_c, 4, 65, 0
6, 37740, Note_on_c, 4, 73, 120
6, 37769, Note_on_c, 4, 73, 0
6, 37770, Note_on_c, 4, 65, 120
6, 37799, Note_on_c, 4, 65, 0
6, 37800, Note_on_c, 4, 72, 120
6, 37829, Note_on_c, 4, 72, 0
6, 37830, Note_on_c, 4, 65, 120
6, 37859, Note_on_c, 4, 65, 0
6, 37860, Note_on_c, 4, 70, 120
6, 37889, Note_on_c, 4, 70, 0
6, 37890, Note_on_c, 4, 65, 120
6, 37919, Note_on_c, 4, 65, 0
6, 37920, Note_on_c, 4, 72, 120
6, 37949, Note_on_c, 4, 72, 0
6, 37950, Note_on_c, 4, 65, 120
6, 37979, Note_on_c, 4, 65, 0
6, 37980, Note_on_c, 4, 70, 120
6, 38009, Note_on_c, 4, 70, 0
6, 38010, Note_on_c, 4, 65, 120
6, 38039, Note_on_c, 4, 65, 0
6, 38040, Note_on_c, 4, 68, 120
6, 38069, Note_on_c, 4, 68, 0
6, 38070, Note_on_c, 4, 65, 120
6, 38099, Note_on_c, 4, 65, 0
6, 38100, Note_on_c, 4, 67, 120
6, 38129, Note_on_c, 4, 67, 0
6, 38130, Note_on_c, 4, 65, 120
6, 38159, Note_on_c, 4, 65, 0
6, 38160, Note_on_c, 4, 68, 120
6, 38189, Note_on_c, 4, 68, 0
6, 38190, Note_on_c, 4, 67, 120
6, 38219, Note_on_c, 4, 67, 0
6, 38220, Note_on_c, 4, 65, 120
6, 38249, Note_on_c, 4, 65, 0
6, 38250, Note_on_c, 4, 67, 120
6, 38279, Note_on_c, 4, 67, 0
6, 38280, Note_on_c, 4, 68, 120
6, 38309, Note_on_c, 4, 68, 0
6, 38310, Note_on_c, 4, 70, 120
6, 38339, Note_on_c, 4, 70, 0
6, 38340, Note_on_c, 4, 72, 120
6, 38369, Note_on_c, 4, 72, 0
6, 38370, Note_on_c, 4, 73, 120
6, 38399, Note_on_c, 4, 73, 0
6, 38400, Note_on_c, 4, 64, 120
6, 38429, Note_on_c, 4, 64, 0
6, 38430, Note_on_c, 4, 72, 120
6, 38459, Note_on_c, 4, 72, 0
6, 38460, Note_on_c, 4, 65, 120
6, 38489, Note_on_c, 4, 65, 0
6, 38490, Note_on_c, 4, 72, 120
6, 38519, Note_on_c, 4, 72, 0
6, 38520, Note_on_c, 4, 67, 120
6, 38549, Note_on_c, 4, 67, 0
6, 38550, Note_on_c, 4, 72, 120
6, 38579, Note_on_c, 4, 72, 0
6, 38580, Note_on_c, 4, 65, 120
6, 38609, Note_on_c, 4, 65, 0
6, 38610, Note_on_c, 4, 72, 120
6, 38639, Note_on_c, 4, 72, 0
6, 38640, Note_on_c, 4, 64, 120
6, 38669, Note_on_c, 4, 64, 0
6, 38670, Note_on_c, 4, 60, 120
6, 38699, Note_on_c, 4, 60, 0
6, 38700, Note_on_c, 4, 58, 120
6, 38729, Note_on_c, 4, 58, 0
6, 38730, Note_on_c, 4, 55, 120
6, 38759, Note_on_c, 4, 55, 0
6, 38760, Note_on_c, 4, 56, 120
6, 38789, Note_on_c, 4, 56, 0
6, 38790, Note_on_c, 4, 60, 120
6, 38819, Note_on_c, 4, 60, 0
6, 38820, Note_on_c, 4, 65, 120
6, 38849, Note_on_c, 4, 65, 0
6, 38850, Note_on_c, 4, 68, 120
6, 38879, Note_on_c, 4, 68, 0
6, 38880, Note_on_c, 4, 73, 120
6, 38909, Note_on_c, 4, 73, 0
6, 38910, Note_on_c, 4, 70, 120
6, 38939, Note_on_c, 4, 70, 0
6, 38940, Note_on_c, 4, 67, 120
6, 38969, Note_on_c, 4, 67, 0
6, 38970, Note_on_c, 4, 64, 120
6, 38999, Note_on_c, 4, 64, 0
6, 39000, Note_on_c, 4, 65, 120
6, 39029, Note_on_c, 4, 65, 0
6, 39030, Note_on_c, 4, 68, 120
6, 39059, Note_on_c, 4, 68, 0
6, 39060, Note_on_c, 4, 71, 120
6, 39089, Note_on_c, 4, 71, 0
6, 39090, Note_on_c, 4, 74, 120
6, 39119, Note_on_c, 4, 74, 0
6, 39120, Note_on_c, 4, 77, 120
6, 39149, Note_on_c, 4, 77, 0
6, 39150, Note_on_c, 4, 74, 120
6, 39179, Note_on_c, 4, 74, 0
6, 39180, Note_on_c, 4, 76, 120
6, 39209, Note_on_c, 4, 76, 0
6, 39210, Note_on_c, 4, 79, 120
6, 39239, Note_on_c, 4, 79, 0
6, 39240, Note_on_c, 4, 72, 120
6, 39269, Note_on_c, 4, 72, 0
6, 39270, Note_on_c, 4, 70, 120
6, 39299, Note_on_c, 4, 70, 0
6, 39300, Note_on_c, 4, 68, 120
6, 39329, Note_on_c, 4, 68, 0
6, 39330, Note_on_c, 4, 67, 120
6, 39359, Note_on_c, 4, 67, 0
6, 39360, Note_on_c, 4, 68, 120
6, 39389, Note_on_c, 4, 68, 0
6, 39390, Note_on_c, 4, 65, 120
6, 39419, Note_on_c, 4, 65, 0
6, 39420, Note_on_c, 4, 60, 120
6, 39449, Note_on_c, 4, 60, 0
6, 39450, Note_on_c, 4, 56, 120
6, 39479, Note_on_c, 4, 56, 0
6, 39480, Note_on_c, 4, 60, 120
6, 39509, Note_on_c, 4, 60, 0
6, 39510, Note_on_c, 4, 65, 120
6, 39539, Note_on_c, 4, 65, 0
6, 39540, Note_on_c, 4, 68, 120
6, 39569, Note_on_c, 4, 68, 0
6, 39570, Note_on_c, 4, 67, 120
6, 39599, Note_on_c, 4, 67, 0
6, 39600, Note_on_c, 4, 68, 120
6, 39629, Note_on_c, 4, 68, 0
6, 39630, Note_on_c, 4, 65, 120
6, 39659, Note_on_c, 4, 65, 0
6, 39660, Note_on_c, 4, 60, 120
6, 39689, Note_on_c, 4, 60, 0
6, 39690, Note_on_c, 4, 56, 120
6, 39719, Note_on_c, 4, 56, 0
6, 39720, Note_on_c, 4, 60, 120
6, 39749, Note_on_c, 4, 60, 0
6, 39750, Note_on_c, 4, 65, 120
6, 39779, Note_on_c, 4, 65, 0
6, 39780, Note_on_c, 4, 68, 120
6, 39809, Note_on_c, 4, 68, 0
6, 39810, Note_on_c, 4, 67, 120
6, 39839, Note_on_c, 4, 67, 0
6, 39840, Note_on_c, 4, 68, 120
6, 39869, Note_on_c, 4, 68, 0
6, 39870, Note_on_c, 4, 65, 120
6, 39899, Note_on_c, 4, 65, 0
6, 39900, Note_on_c, 4, 62, 120
6, 39929, Note_on_c, 4, 62, 0
6, 39930, Note_on_c, 4, 58, 120
6, 39959, Note_on_c, 4, 58, 0
6, 39960, Note_on_c, 4, 62, 120
6, 39989, Note_on_c, 4, 62, 0
6, 39990, Note_on_c, 4, 65, 120
6, 40019, Note_on_c, 4, 65, 0
6, 40020, Note_on_c, 4, 68, 120
6, 40049, Note_on_c, 4, 68, 0
6, 40050, Note_on_c, 4, 65, 120
6, 40079, Note_on_c, 4, 65, 0
6, 40080, Note_on_c, 4, 67, 120
6, 40109, Note_on_c, 4, 67, 0
6, 40110, Note_on_c, 4, 63, 120
6, 40139, Note_on_c, 4, 63, 0
6, 40140, Note_on_c, 4, 58, 120
6, 40169, Note_on_c, 4, 58, 0
6, 40170, Note_on_c, 4, 55, 120
6, 40199, Note_on_c, 4, 55, 0
6, 40200, Note_on_c, 4, 58, 120
6, 40229, Note_on_c, 4, 58, 0
6, 40230, Note_on_c, 4, 63, 120
6, 40259, Note_on_c, 4, 63, 0
6, 40260, Note_on_c, 4, 67, 120
6, 40289, Note_on_c, 4, 67, 0
6, 40290, Note_on_c, 4, 63, 120
6, 40319, Note_on_c, 4, 63, 0
6, 40320, Note_on_c, 4, 65, 120
6, 40349, Note_on_c, 4, 65, 0
6, 40350, Note_on_c, 4, 62, 120
6, 40379, Note_on_c, 4, 62, 0
6, 40380, Note_on_c, 4, 59, 120
6, 40409, Note_on_c, 4, 59, 0
6, 40410, Note_on_c, 4, 55, 120
6, 40439, Note_on_c, 4, 55, 0
6, 40440, Note_on_c, 4, 59, 120
6, 40469, Note_on_c, 4, 59, 0
6, 40470, Note_on_c, 4, 62, 120
6, 40499, Note_on_c, 4, 62, 0
6, 40500, Note_on_c, 4, 65, 120
6, 40529, Note_on_c, 4, 65, 0
6, 40530, Note_on_c, 4, 63, 120
6, 40559, Note_on_c, 4, 63, 0
6, 40560, Note_on_c, 4, 65, 120
6, 40589, Note_on_c, 4, 65, 0
6, 40590, Note_on_c, 4, 60, 120
6, 40619, Note_on_c, 4, 60, 0
6, 40620, Note_on_c, 4, 56, 120
6, 40649, Note_on_c, 4, 56, 0
6, 40650, Note_on_c, 4, 55, 120
6, 40679, Note_on_c, 4, 55, 0
6, 40680, Note_on_c, 4, 56, 120
6, 40709, Note_on_c, 4, 56, 0
6, 40710, Note_on_c, 4, 60, 120
6, 40739, Note_on_c, 4, 60, 0
6, 40740, Note_on_c, 4, 65, 120
6, 40769, Note_on_c, 4, 65, 0
6, 40770, Note_on_c, 4, 63, 120
6, 40799, Note_on_c, 4, 63, 0
6, 40800, Note_on_c, 4, 65, 120
6, 40829, Note_on_c, 4, 65, 0
6, 40830, Note_on_c, 4, 62, 120
6, 40859, Note_on_c, 4, 62, 0
6, 40860, Note_on_c, 4, 59, 120
6, 40889, Note_on_c, 4, 59, 0
6, 40890, Note_on_c, 4, 55, 120
6, 40919, Note_on_c, 4, 55, 0
6, 40920, Note_on_c, 4, 59, 120
6, 40949, Note_on_c, 4, 59, 0
6, 40950, Note_on_c, 4, 62, 120
6, 40979, Note_on_c, 4, 62, 0
6, 40980, Note_on_c, 4, 65, 120
6, 41009, Note_on_c, 4, 65, 0
6, 41010, Note_on_c, 4, 62, 120
6, 41039, Note_on_c, 4, 62, 0
6, 41040, Note_on_c, 4, 63, 120
6, 41069, Note_on_c, 4, 63, 0
6, 41070, Note_on_c, 4, 60, 120
6, 41099, Note_on_c, 4, 60, 0
6, 41100, Note_on_c, 4, 55, 120
6, 41129, Note_on_c, 4, 55, 0
6, 41130, Note_on_c, 4, 60, 120
6, 41159, Note_on_c, 4, 60, 0
6, 41160, Note_on_c, 4, 63, 120
6, 41189, Note_on_c, 4, 63, 0
6, 41190, Note_on_c, 4, 67, 120
6, 41219, Note_on_c, 4, 67, 0
6, 41220, Note_on_c, 4, 68, 120
6, 41249, Note_on_c, 4, 68, 0
6, 41250, Note_on_c, 4, 67, 120
6, 41279, Note_on_c, 4, 67, 0
6, 41280, Note_on_c, 4, 65, 120
6, 41309, Note_on_c, 4, 65, 0
6, 41310, Note_on_c, 4, 62, 120
6, 41339, Note_on_c, 4, 62, 0
6, 41340, Note_on_c, 4, 58, 120
6, 41369, Note_on_c, 4, 58, 0
6, 41370, Note_on_c, 4, 62, 120
6, 41399, Note_on_c, 4, 62, 0
6, 41400, Note_on_c, 4, 65, 120
6, 41429, Note_on_c, 4, 65, 0
6, 41430, Note_on_c, 4, 68, 120
6, 41459, Note_on_c, 4, 68, 0
6, 41460, Note_on_c, 4, 70, 120
6, 41489, Note_on_c, 4, 70, 0
6, 41490, Note_on_c, 4, 68, 120
6, 41519, Note_on_c, 4, 68, 0
6, 41520, Note_on_c, 4, 67, 120
6, 41549, Note_on_c, 4, 67, 0
6, 41550, Note_on_c, 4, 63, 120
6, 41579, Note_on_c, 4, 63, 0
6, 41580, Note_on_c, 4, 60, 120
6, 41609, Note_on_c, 4, 60, 0
6, 41610, Note_on_c, 4, 63, 120
6, 41639, Note_on_c, 4, 63, 0
6, 41640, Note_on_c, 4, 65, 120
6, 41669, Note_on_c, 4, 65, 0
6, 41670, Note_on_c, 4, 70, 120
6, 41699, Note_on_c, 4, 70, 0
6, 41700, Note_on_c, 4, 72, 120
6, 41729, Note_on_c, 4, 72, 0
6, 41730, Note_on_c, 4, 70, 120
6, 41759, Note_on_c, 4, 70, 0
6, 41760, Note_on_c, 4, 68, 120
6, 41789, Note_on_c, 4, 68, 0
6, 41790, Note_on_c, 4, 65, 120
6, 41819, Note_on_c, 4, 65, 0
6, 41820, Note_on_c, 4, 60, 120
6, 41849, Note_on_c, 4, 60, 0
6, 41850, Note_on_c, 4, 65, 120
6, 41879, Note_on_c, 4, 65, 0
6, 41880, Note_on_c, 4, 68, 120
6, 41909, Note_on_c, 4, 68, 0
6, 41910, Note_on_c, 4, 72, 120
6, 41939, Note_on_c, 4, 72, 0
6, 41940, Note_on_c, 4, 74, 120
6, 41969, Note_on_c, 4, 74, 0
6, 41970, Note_on_c, 4, 72, 120
6, 41999, Note_on_c, 4, 72, 0
6, 42000, Note_on_c, 4, 71, 120
6, 42029, Note_on_c, 4, 71, 0
6, 42030, Note_on_c, 4, 65, 120
6, 42059, Note_on_c, 4, 65, 0
6, 42060, Note_on_c, 4, 62, 120
6, 42089, Note_on_c, 4, 62, 0
6, 42090, Note_on_c, 4, 65, 120
6, 42119, Note_on_c, 4, 65, 0
6, 42120, Note_on_c, 4, 71, 120
6, 42149, Note_on_c, 4, 71, 0
6, 42150, Note_on_c, 4, 74, 120
6, 42179, Note_on_c, 4, 74, 0
6, 42180, Note_on_c, 4, 75, 120
6, 42209, Note_on_c, 4, 75, 0
6, 42210, Note_on_c, 4, 74, 120
6, 42239, Note_on_c, 4, 74, 0
6, 42240, Note_on_c, 4, 72, 120
6, 42269, Note_on_c, 4, 72, 0
6, 42270, Note_on_c, 4, 67, 120
6, 42299, Note_on_c, 4, 67, 0
6, 42300, Note_on_c, 4, 63, 120
6, 42329, Note_on_c, 4, 63, 0
6, 42330, Note_on_c, 4, 65, 120
6, 42359, Note_on_c, 4, 65, 0
6, 42360, Note_on_c, 4, 67, 120
6, 42389, Note_on_c, 4, 67, 0
6, 42390, Note_on_c, 4, 72, 120
6, 42419, Note_on_c, 4, 72, 0
6, 42420, Note_on_c, 4, 65, 120
6, 42449, Note_on_c, 4, 65, 0
6, 42450, Note_on_c, 4, 72, 120
6, 42479, Note_on_c, 4, 72, 0
6, 42480, Note_on_c, 4, 63, 120
6, 42509, Note_on_c, 4, 63, 0
6, 42510, Note_on_c, 4, 60, 120
6, 42539, Note_on_c, 4, 60, 0
6, 42540, Note_on_c, 4, 55, 120
6, 42569, Note_on_c, 4, 55, 0
6, 42570, Note_on_c, 4, 59, 120
6, 42599, Note_on_c, 4, 59, 0
6, 42600, Note_on_c, 4, 60, 120
6, 42629, Note_on_c, 4, 60, 0
6, 42630, Note_on_c, 4, 55, 120
6, 42659, Note_on_c, 4, 55, 0
6, 42660, Note_on_c, 4, 60, 120
6, 42689, Note_on_c, 4, 60, 0
6, 42690, Note_on_c, 4, 55, 120
6, 42719, Note_on_c, 4, 55, 0
6, 42720, Note_on_c, 4, 63, 120
6, 42779, Note_on_c, 4, 63, 0
6, 42780, Note_on_c, 4, 67, 120
6, 42839, Note_on_c, 4, 67, 0
6, 42840, Note_on_c, 4, 72, 120
6, 42899, Note_on_c, 4, 72, 0
6, 42900, Note_on_c, 4, 77, 120
6, 42989, Note_on_c, 4, 77, 0
6, 42990, Note_on_c, 4, 74, 120
6, 43019, Note_on_c, 4, 74, 0
6, 43020, Note_on_c, 4, 70, 120
6, 43049, Note_on_c, 4, 70, 0
6, 43050, Note_on_c, 4, 74, 120
6, 43079, Note_on_c, 4, 74, 0
6, 43080, Note_on_c, 4, 65, 120
6, 43109, Note_on_c, 4, 65, 0
6, 43110, Note_on_c, 4, 70, 120
6, 43139, Note_on_c, 4, 70, 0
6, 43140, Note_on_c, 4, 72, 120
6, 43169, Note_on_c, 4, 72, 0
6, 43170, Note_on_c, 4, 70, 120
6, 43199, Note_on_c, 4, 70, 0
6, 43200, Note_on_c, 4, 68, 120
6, 43229, Note_on_c, 4, 68, 0
6, 43230, Note_on_c, 4, 65, 120
6, 43259, Note_on_c, 4, 65, 0
6, 43260, Note_on_c, 4, 62, 120
6, 43289, Note_on_c, 4, 62, 0
6, 43290, Note_on_c, 4, 63, 120
6, 43319, Note_on_c, 4, 63, 0
6, 43320, Note_on_c, 4, 65, 120
6, 43349, Note_on_c, 4, 65, 0
6, 43350, Note_on_c, 4, 68, 120
6, 43379, Note_on_c, 4, 68, 0
6, 43380, Note_on_c, 4, 63, 120
6, 43409, Note_on_c, 4, 63, 0
6, 43410, Note_on_c, 4, 68, 120
6, 43439, Note_on_c, 4, 68, 0
6, 43440, Note_on_c, 4, 62, 120
6, 43469, Note_on_c, 4, 62, 0
6, 43470, Note_on_c, 4, 70, 120
6, 43499, Note_on_c, 4, 70, 0
6, 43500, Note_on_c, 4, 65, 120
6, 43529, Note_on_c, 4, 65, 0
6, 43530, Note_on_c, 4, 69, 120
6, 43559, Note_on_c, 4, 69, 0
6, 43560, Note_on_c, 4, 70, 120
6, 43589, Note_on_c, 4, 70, 0
6, 43590, Note_on_c, 4, 65, 120
6, 43619, Note_on_c, 4, 65, 0
6, 43620, Note_on_c, 4, 70, 120
6, 43649, Note_on_c, 4, 70, 0
6, 43650, Note_on_c, 4, 65, 120
6, 43679, Note_on_c, 4, 65, 0
6, 43680, Note_on_c, 4, 62, 120
6, 43739, Note_on_c, 4, 62, 0
6, 43740, Note_on_c, 4, 65, 120
6, 43799, Note_on_c, 4, 65, 0
6, 43800, Note_on_c, 4, 70, 120
6, 43859, Note_on_c, 4, 70, 0
6, 43860, Note_on_c, 4, 75, 120
6, 43949, Note_on_c, 4, 75, 0
6, 43950, Note_on_c, 4, 72, 120
6, 43979, Note_on_c, 4, 72, 0
6, 43980, Note_on_c, 4, 68, 120
6, 44009, Note_on_c, 4, 68, 0
6, 44010, Note_on_c, 4, 72, 120
6, 44039, Note_on_c, 4, 72, 0
6, 44040, Note_on_c, 4, 75, 120
6, 44069, Note_on_c, 4, 75, 0
6, 44070, Note_on_c, 4, 79, 120
6, 44099, Note_on_c, 4, 79, 0
6, 44100, Note_on_c, 4, 80, 120
6, 44129, Note_on_c, 4, 80, 0
6, 44130, Note_on_c, 4, 79, 120
6, 44159, Note_on_c, 4, 79, 0
6, 44160, Note_on_c, 4, 77, 120
6, 44219, Note_on_c, 4, 77, 0
6, 44220, Note_on_c, 4, 84, 120
6, 44249, Note_on_c, 4, 84, 0
6, 44250, Note_on_c, 4, 82, 120
6, 44279, Note_on_c, 4, 82, 0
6, 44280, Note_on_c, 4, 80, 120
6, 44309, Note_on_c, 4, 80, 0
6, 44310, Note_on_c, 4, 79, 120
6, 44339, Note_on_c, 4, 79, 0
6, 44340, Note_on_c, 4, 77, 120
6, 44369, Note_on_c, 4, 77, 0
6, 44370, Note_on_c, 4, 76, 120
6, 44399, Note_on_c, 4, 76, 0
6, 44400, Note_on_c, 4, 77, 120
6, 44429, Note_on_c, 4, 77, 0
6, 44430, Note_on_c, 4, 73, 120
6, 44459, Note_on_c, 4, 73, 0
6, 44460, Note_on_c, 4, 72, 120
6, 44489, Note_on_c, 4, 72, 0
6, 44490, Note_on_c, 4, 70, 120
6, 44519, Note_on_c, 4, 70, 0
6, 44520, Note_on_c, 4, 68, 120
6, 44549, Note_on_c, 4, 68, 0
6, 44550, Note_on_c, 4, 67, 120
6, 44579, Note_on_c, 4, 67, 0
6, 44580, Note_on_c, 4, 65, 120
6, 44609, Note_on_c, 4, 65, 0
6, 44610, Note_on_c, 4, 64, 120
6, 44639, Note_on_c, 4, 64, 0
6, 44640, Note_on_c, 4, 65, 120
6, 44699, Note_on_c, 4, 65, 0
6, 44700, Note_on_c, 4, 80, 120
6, 44729, Note_on_c, 4, 80, 0
6, 44730, Note_on_c, 4, 79, 120
6, 44759, Note_on_c, 4, 79, 0
6, 44760, Note_on_c, 4, 77, 120
6, 44789, Note_on_c, 4, 77, 0
6, 44790, Note_on_c, 4, 75, 120
6, 44819, Note_on_c, 4, 75, 0
6, 44820, Note_on_c, 4, 73, 120
6, 44849, Note_on_c, 4, 73, 0
6, 44850, Note_on_c, 4, 72, 120
6, 44879, Note_on_c, 4, 72, 0
6, 44880, Note_on_c, 4, 73, 120
6, 44909, Note_on_c, 4, 73, 0
6, 44910, Note_on_c, 4, 70, 120
6, 44939, Note_on_c, 4, 70, 0
6, 44940, Note_on_c, 4, 68, 120
6, 44969, Note_on_c, 4, 68, 0
6, 44970, Note_on_c, 4, 67, 120
6, 44999, Note_on_c, 4, 67, 0
6, 45000, Note_on_c, 4, 65, 120
6, 45029, Note_on_c, 4, 65, 0
6, 45030, Note_on_c, 4, 63, 120
6, 45059, Note_on_c, 4, 63, 0
6, 45060, Note_on_c, 4, 61, 120
6, 45089, Note_on_c, 4, 61, 0
6, 45090, Note_on_c, 4, 60, 120
6, 45119, Note_on_c, 4, 60, 0
6, 45120, Note_on_c, 4, 61, 120
6, 45149, Note_on_c, 4, 61, 0
6, 45150, Note_on_c, 4, 63, 120
6, 45179, Note_on_c, 4, 63, 0
6, 45180, Note_on_c, 4, 65, 120
6, 45209, Note_on_c, 4, 65, 0
6, 45210, Note_on_c, 4, 67, 120
6, 45239, Note_on_c, 4, 67, 0
6, 45240, Note_on_c, 4, 68, 120
6, 45299, Note_on_c, 4, 68, 0
6, 45300, Note_on_c, 4, 68, 120
6, 45389, Note_on_c, 4, 68, 0
6, 45390, Note_on_c, 4, 80, 120
6, 45419, Note_on_c, 4, 80, 0
6, 45420, Note_on_c, 4, 79, 120
6, 45449, Note_on_c, 4, 79, 0
6, 45450, Note_on_c, 4, 77, 120
6, 45479, Note_on_c, 4, 77, 0
6, 45480, Note_on_c, 4, 75, 120
6, 45509, Note_on_c, 4, 75, 0
6, 45510, Note_on_c, 4, 74, 120
6, 45539, Note_on_c, 4, 74, 0
6, 45540, Note_on_c, 4, 72, 120
6, 45569, Note_on_c, 4, 72, 0
6, 45570, Note_on_c, 4, 71, 120
6, 45599, Note_on_c, 4, 71, 0
6, 45600, Note_on_c, 4, 72, 120
6, 45689, Note_on_c, 4, 72, 0
6, 45690, Note_on_c, 4, 74, 120
6, 45719, Note_on_c, 4, 74, 0
6, 45720, Note_on_c, 4, 71, 120
6, 45735, Note_on_c, 4, 71, 0
6, 45735, Note_on_c, 4, 72, 120
6, 45750, Note_on_c, 4, 72, 0
6, 45750, Note_on_c, 4, 71, 120
6, 45810, Note_on_c, 4, 71, 0
6, 45810, Note_on_c, 4, 72, 120
6, 45839, Note_on_c, 4, 72, 0
6, 45840, Note_on_c, 4, 72, 120
6, 45959, Note_on_c, 4, 72, 0
6, 46020, Note_on_c, 4, 62, 120
6, 46049, Note_on_c, 4, 62, 0
6, 46050, Note_on_c, 4, 64, 120
6, 46079, Note_on_c, 4, 64, 0
6, 46080, Note_on_c, 4, 66, 120
6, 46109, Note_on_c, 4, 66, 0
6, 46110, Note_on_c, 4, 67, 120
6, 46139, Note_on_c, 4, 67, 0
6, 46140, Note_on_c, 4, 69, 120
6, 46169, Note_on_c, 4, 69, 0
6, 46170, Note_on_c, 4, 70, 120
6, 46199, Note_on_c, 4, 70, 0
6, 46200, Note_on_c, 4, 72, 120
6, 46259, Note_on_c, 4, 72, 0
6, 46260, Note_on_c, 4, 66, 120
6, 46319, Note_on_c, 4, 66, 0
6, 46500, Note_on_c, 4, 66, 120
6, 46529, Note_on_c, 4, 66, 0
6, 46530, Note_on_c, 4, 67, 120
6, 46559, Note_on_c, 4, 67, 0
6, 46560, Note_on_c, 4, 69, 120
6, 46589, Note_on_c, 4, 69, 0
6, 46590, Note_on_c, 4, 70, 120
6, 46619, Note_on_c, 4, 70, 0
6, 46620, Note_on_c, 4, 72, 120
6, 46649, Note_on_c, 4, 72, 0
6, 46650, Note_on_c, 4, 74, 120
6, 46679, Note_on_c, 4, 74, 0
6, 46680, Note_on_c, 4, 75, 120
6, 46709, Note_on_c, 4, 75, 0
6, 46710, Note_on_c, 4, 72, 120
6, 46739, Note_on_c, 4, 72, 0
6, 46740, Note_on_c, 4, 69, 120
6, 46769, Note_on_c, 4, 69, 0
6, 46770, Note_on_c, 4, 70, 120
6, 46799, Note_on_c, 4, 70, 0
6, 46800, Note_on_c, 4, 72, 120
6, 46829, Note_on_c, 4, 72, 0
6, 46830, Note_on_c, 4, 69, 120
6, 46859, Note_on_c, 4, 69, 0
6, 46860, Note_on_c, 4, 66, 120
6, 46889, Note_on_c, 4, 66, 0
6, 46890, Note_on_c, 4, 67, 120
6, 46919, Note_on_c, 4, 67, 0
6, 46920, Note_on_c, 4, 69, 120
6, 46979, Note_on_c, 4, 69, 0
6, 46980, Note_on_c, 4, 62, 120
6, 47039, Note_on_c, 4, 62, 0
6, 47040, Note_on_c, 4, 67, 120
6, 47099, Note_on_c, 4, 67, 0
6, 47100, Note_on_c, 4, 74, 120
6, 47159, Note_on_c, 4, 74, 0
6, 47160, Note_on_c, 4, 68, 120
6, 47160, Note_on_c, 4, 77, 120
6, 47219, Note_on_c, 4, 77, 0
6, 47219, Note_on_c, 4, 68, 0
6, 47220, Note_on_c, 4, 67, 120
6, 47220, Note_on_c, 4, 75, 120
6, 47279, Note_on_c, 4, 75, 0
6, 47279, Note_on_c, 4, 67, 0
6, 47280, Note_on_c, 4, 67, 120
6, 47339, Note_on_c, 4, 67, 0
6, 47340, Note_on_c, 4, 74, 120
6, 47369, Note_on_c, 4, 74, 0
6, 47370, Note_on_c, 4, 75, 120
6, 47399, Note_on_c, 4, 75, 0
6, 47400, Note_on_c, 4, 77, 120
6, 47429, Note_on_c, 4, 77, 0
6, 47430, Note_on_c, 4, 75, 120
6, 47459, Note_on_c, 4, 75, 0
6, 47460, Note_on_c, 4, 77, 120
6, 47489, Note_on_c, 4, 77, 0
6, 47490, Note_on_c, 4, 75, 120
6, 47519, Note_on_c, 4, 75, 0
6, 47520, Note_on_c, 4, 74, 120
6, 47549, Note_on_c, 4, 74, 0
6, 47550, Note_on_c, 4, 72, 120
6, 47579, Note_on_c, 4, 72, 0
6, 47580, Note_on_c, 4, 74, 120
6, 47609, Note_on_c, 4, 74, 0
6, 47610, Note_on_c, 4, 75, 120
6, 47639, Note_on_c, 4, 75, 0
6, 47640, Note_on_c, 4, 77, 120
6, 47669, Note_on_c, 4, 77, 0
6, 47670, Note_on_c, 4, 79, 120
6, 47699, Note_on_c, 4, 79, 0
6, 47700, Note_on_c, 4, 80, 120
6, 47759, Note_on_c, 4, 80, 0
6, 47760, Note_on_c, 4, 71, 120
6, 47819, Note_on_c, 4, 71, 0
6, 47820, Note_on_c, 4, 67, 120
6, 47879, Note_on_c, 4, 67, 0
6, 47940, Note_on_c, 4, 67, 120
6, 47969, Note_on_c, 4, 67, 0
6, 47970, Note_on_c, 4, 69, 120
6, 47999, Note_on_c, 4, 69, 0
6, 48000, Note_on_c, 4, 71, 120
6, 48029, Note_on_c, 4, 71, 0
6, 48030, Note_on_c, 4, 72, 120
6, 48059, Note_on_c, 4, 72, 0
6, 48060, Note_on_c, 4, 74, 120
6, 48089, Note_on_c, 4, 74, 0
6, 48090, Note_on_c, 4, 75, 120
6, 48119, Note_on_c, 4, 75, 0
6, 48120, Note_on_c, 4, 77, 120
6, 48179, Note_on_c, 4, 77, 0
6, 48180, Note_on_c, 4, 71, 120
6, 48239, Note_on_c, 4, 71, 0
6, 48420, Note_on_c, 4, 71, 120
6, 48449, Note_on_c, 4, 71, 0
6, 48450, Note_on_c, 4, 72, 120
6, 48479, Note_on_c, 4, 72, 0
6, 48480, Note_on_c, 4, 74, 120
6, 48509, Note_on_c, 4, 74, 0
6, 48510, Note_on_c, 4, 75, 120
6, 48539, Note_on_c, 4, 75, 0
6, 48540, Note_on_c, 4, 77, 120
6, 48569, Note_on_c, 4, 77, 0
6, 48570, Note_on_c, 4, 79, 120
6, 48599, Note_on_c, 4, 79, 0
6, 48600, Note_on_c, 4, 80, 120
6, 48629, Note_on_c, 4, 80, 0
6, 48630, Note_on_c, 4, 77, 120
6, 48659, Note_on_c, 4, 77, 0
6, 48660, Note_on_c, 4, 74, 120
6, 48689, Note_on_c, 4, 74, 0
6, 48690, Note_on_c, 4, 75, 120
6, 48719, Note_on_c, 4, 75, 0
6, 48720, Note_on_c, 4, 77, 120
6, 48749, Note_on_c, 4, 77, 0
6, 48750, Note_on_c, 4, 74, 120
6, 48779, Note_on_c, 4, 74, 0
6, 48780, Note_on_c, 4, 71, 120
6, 48809, Note_on_c, 4, 71, 0
6, 48810, Note_on_c, 4, 72, 120
6, 48839, Note_on_c, 4, 72, 0
6, 48840, Note_on_c, 4, 74, 120
6, 48869, Note_on_c, 4, 74, 0
6, 48870, Note_on_c, 4, 68, 120
6, 48899, Note_on_c, 4, 68, 0
6, 48900, Note_on_c, 4, 67, 120
6, 48929, Note_on_c, 4, 67, 0
6, 48930, Note_on_c, 4, 65, 120
6, 48959, Note_on_c, 4, 65, 0
6, 48960, Note_on_c, 4, 63, 120
6, 49019, Note_on_c, 4, 63, 0
6, 49020, Note_on_c, 4, 72, 120
6, 49079, Note_on_c, 4, 72, 0
6, 49080, Note_on_c, 4, 67, 120
6, 49080, Note_on_c, 4, 75, 120
6, 49139, Note_on_c, 4, 75, 0
6, 49139, Note_on_c, 4, 67, 0
6, 49140, Note_on_c, 4, 65, 120
6, 49140, Note_on_c, 4, 74, 120
6, 49199, Note_on_c, 4, 74, 0
6, 49199, Note_on_c, 4, 65, 0
6, 49200, Note_on_c, 4, 67, 120
6, 49200, Note_on_c, 4, 63, 120
6, 49229, Note_on_c, 4, 63, 0
6, 49230, Note_on_c, 4, 62, 120
6, 49259, Note_on_c, 4, 62, 0
6, 49260, Note_on_c, 4, 67, 0
6, 49260, Note_on_c, 4, 63, 120
6, 49260, Note_on_c, 4, 72, 120
6, 49289, Note_on_c, 4, 72, 0
6, 49289, Note_on_c, 4, 63, 0
6, 49290, Note_on_c, 4, 65, 120
6, 49290, Note_on_c, 4, 74, 120
6, 49319, Note_on_c, 4, 74, 0
6, 49319, Note_on_c, 4, 65, 0
6, 49320, Note_on_c, 4, 75, 120
6, 49320, Note_on_c, 4, 67, 120
6, 49349, Note_on_c, 4, 67, 0
6, 49349, Note_on_c, 4, 75, 0
6, 49350, Note_on_c, 4, 74, 120
6, 49350, Note_on_c, 4, 65, 120
6, 49379, Note_on_c, 4, 65, 0
6, 49379, Note_on_c, 4, 74, 0
6, 49380, Note_on_c, 4, 75, 120
6, 49380, Note_on_c, 4, 67, 120
6, 49409, Note_on_c, 4, 67, 0
6, 49409, Note_on_c, 4, 75, 0
6, 49410, Note_on_c, 4, 74, 120
6, 49410, Note_on_c, 4, 65, 120
6, 49439, Note_on_c, 4, 65, 0
6, 49439, Note_on_c, 4, 74, 0
6, 49440, Note_on_c, 4, 63, 120
6, 49440, Note_on_c, 4, 72, 120
6, 49499, Note_on_c, 4, 72, 0
6, 49499, Note_on_c, 4, 63, 0
6, 49500, Note_on_c, 4, 74, 120
6, 49529, Note_on_c, 4, 74, 0
6, 49530, Note_on_c, 4, 75, 120
6, 49559, Note_on_c, 4, 75, 0
6, 49560, Note_on_c, 4, 77, 120
6, 49589, Note_on_c, 4, 77, 0
6, 49590, Note_on_c, 4, 79, 120
6, 49619, Note_on_c, 4, 79, 0
6, 49620, Note_on_c, 4, 80, 120
6, 49679, Note_on_c, 4, 80, 0
6, 49680, Note_on_c, 4, 80, 120
6, 49739, Note_on_c, 4, 80, 0
6, 49740, Note_on_c, 4, 74, 120
6, 49799, Note_on_c, 4, 74, 0
6, 49920, Note_on_c, 4, 62, 120
6, 49920, Note_on_c, 4, 65, 120
6, 49979, Note_on_c, 4, 65, 0
6, 49980, Note_on_c, 4, 70, 120
6, 50039, Note_on_c, 4, 70, 0
6, 50040, Note_on_c, 4, 62, 0
6, 50040, Note_on_c, 4, 65, 120
6, 50040, Note_on_c, 4, 74, 120
6, 50099, Note_on_c, 4, 74, 0
6, 50099, Note_on_c, 4, 65, 0
6, 50100, Note_on_c, 4, 72, 120
6, 50100, Note_on_c, 4, 63, 120
6, 50159, Note_on_c, 4, 63, 0
6, 50159, Note_on_c, 4, 72, 0
6, 50160, Note_on_c, 4, 65, 120
6, 50160, Note_on_c, 4, 62, 120
6, 50189, Note_on_c, 4, 62, 0
6, 50190, Note_on_c, 4, 60, 120
6, 50219, Note_on_c, 4, 60, 0
6, 50220, Note_on_c, 4, 65, 0
6, 50220, Note_on_c, 4, 62, 120
6, 50220, Note_on_c, 4, 70, 120
6, 50249, Note_on_c, 4, 70, 0
6, 50249, Note_on_c, 4, 62, 0
6, 50250, Note_on_c, 4, 63, 120
6, 50250, Note_on_c, 4, 72, 120
6, 50279, Note_on_c, 4, 72, 0
6, 50279, Note_on_c, 4, 63, 0
6, 50280, Note_on_c, 4, 65, 120
6, 50280, Note_on_c, 4, 74, 120
6, 50309, Note_on_c, 4, 74, 0
6, 50309, Note_on_c, 4, 65, 0
6, 50310, Note_on_c, 4, 63, 120
6, 50310, Note_on_c, 4, 72, 120
6, 50339, Note_on_c, 4, 72, 0
6, 50339, Note_on_c, 4, 63, 0
6, 50340, Note_on_c, 4, 65, 120
6, 50340, Note_on_c, 4, 74, 120
6, 50369, Note_on_c, 4, 74, 0
6, 50369, Note_on_c, 4, 65, 0
6, 50370, Note_on_c, 4, 63, 120
6, 50370, Note_on_c, 4, 72, 120
6, 50399, Note_on_c, 4, 72, 0
6, 50399, Note_on_c, 4, 63, 0
6, 50400, Note_on_c, 4, 58, 120
6, 50400, Note_on_c, 4, 62, 120
6, 50400, Note_on_c, 4, 70, 120
6, 50459, Note_on_c, 4, 70, 0
6, 50459, Note_on_c, 4, 62, 0
6, 50459, Note_on_c, 4, 58, 0
6, 50460, Note_on_c, 4, 72, 120
6, 50489, Note_on_c, 4, 72, 0
6, 50490, Note_on_c, 4, 74, 120
6, 50519, Note_on_c, 4, 74, 0
6, 50520, Note_on_c, 4, 75, 120
6, 50549, Note_on_c, 4, 75, 0
6, 50550, Note_on_c, 4, 77, 120
6, 50579, Note_on_c, 4, 77, 0
6, 50580, Note_on_c, 4, 79, 120
6, 50639, Note_on_c, 4, 79, 0
6, 50640, Note_on_c, 4, 79, 120
6, 50699, Note_on_c, 4, 79, 0
6, 50700, Note_on_c, 4, 72, 120
6, 50759, Note_on_c, 4, 72, 0
6, 50880, Note_on_c, 4, 84, 120
6, 50909, Note_on_c, 4, 84, 0
6, 50910, Note_on_c, 4, 82, 120
6, 50939, Note_on_c, 4, 82, 0
6, 50940, Note_on_c, 4, 80, 120
6, 50969, Note_on_c, 4, 80, 0
6, 50970, Note_on_c, 4, 79, 120
6, 50999, Note_on_c, 4, 79, 0
6, 51000, Note_on_c, 4, 77, 120
6, 51059, Note_on_c, 4, 77, 0
6, 51060, Note_on_c, 4, 77, 120
6, 51119, Note_on_c, 4, 77, 0
6, 51120, Note_on_c, 4, 77, 120
6, 51270, Note_on_c, 4, 77, 0
6, 51270, Note_on_c, 4, 72, 120
6, 51299, Note_on_c, 4, 72, 0
6, 51300, Note_on_c, 4, 77, 120
6, 51329, Note_on_c, 4, 77, 0
6, 51330, Note_on_c, 4, 79, 120
6, 51359, Note_on_c, 4, 79, 0
6, 51360, Note_on_c, 4, 80, 120
6, 51389, Note_on_c, 4, 80, 0
6, 51390, Note_on_c, 4, 79, 120
6, 51419, Note_on_c, 4, 79, 0
6, 51420, Note_on_c, 4, 77, 120
6, 51449, Note_on_c, 4, 77, 0
6, 51450, Note_on_c, 4, 75, 120
6, 51479, Note_on_c, 4, 75, 0
6, 51480, Note_on_c, 4, 73, 120
6, 51539, Note_on_c, 4, 73, 0
6, 51540, Note_on_c, 4, 73, 120
6, 51599, Note_on_c, 4, 73, 0
6, 51600, Note_on_c, 4, 73, 120
6, 51750, Note_on_c, 4, 73, 0
6, 51750, Note_on_c, 4, 68, 120
6, 51779, Note_on_c, 4, 68, 0
6, 51780, Note_on_c, 4, 73, 120
6, 51809, Note_on_c, 4, 73, 0
6, 51810, Note_on_c, 4, 75, 120
6, 51839, Note_on_c, 4, 75, 0
6, 51840, Note_on_c, 4, 77, 120
6, 51869, Note_on_c, 4, 77, 0
6, 51870, Note_on_c, 4, 79, 120
6, 51899, Note_on_c, 4, 79, 0
6, 51900, Note_on_c, 4, 80, 120
6, 51929, Note_on_c, 4, 80, 0
6, 51930, Note_on_c, 4, 79, 120
6, 51959, Note_on_c, 4, 79, 0
6, 51960, Note_on_c, 4, 77, 120
6, 51989, Note_on_c, 4, 77, 0
6, 51990, Note_on_c, 4, 75, 120
6, 52019, Note_on_c, 4, 75, 0
6, 52020, Note_on_c, 4, 74, 120
6, 52049, Note_on_c, 4, 74, 0
6, 52050, Note_on_c, 4, 72, 120
6, 52079, Note_on_c, 4, 72, 0
6, 52080, Note_on_c, 4, 71, 120
6, 52139, Note_on_c, 4, 71, 0
6, 52140, Note_on_c, 4, 79, 120
6, 52199, Note_on_c, 4, 79, 0
6, 52200, Note_on_c, 4, 72, 120
6, 52259, Note_on_c, 4, 72, 0
6, 52260, Note_on_c, 4, 72, 120
6, 52260, Note_on_c, 4, 77, 120
6, 52319, Note_on_c, 4, 77, 0
6, 52319, Note_on_c, 4, 72, 0
6, 52320, Note_on_c, 4, 72, 120
6, 52320, Note_on_c, 4, 75, 120
6, 52409, Note_on_c, 4, 75, 0
6, 52409, Note_on_c, 4, 72, 0
6, 52410, Note_on_c, 4, 74, 120
6, 52439, Note_on_c, 4, 74, 0
6, 52440, Note_on_c, 4, 74, 120
6, 52440, Note_on_c, 4, 71, 120
6, 52455, Note_on_c, 4, 74, 0
6, 52455, Note_on_c, 4, 75, 120
6, 52470, Note_on_c, 4, 75, 0
6, 52470, Note_on_c, 4, 74, 120
6, 52485, Note_on_c, 4, 74, 0
6, 52485, Note_on_c, 4, 75, 120
6, 52500, Note_on_c, 4, 75, 0
6, 52500, Note_on_c, 4, 74, 120
6, 52530, Note_on_c, 4, 74, 0
6, 52530, Note_on_c, 4, 72, 120
6, 52559, Note_on_c, 4, 72, 0
6, 52560, Note_on_c, 4, 71, 0
6, 52560, Note_on_c, 4, 63, 120
6, 52560, Note_on_c, 4, 67, 120
6, 52560, Note_on_c, 4, 72, 120
6, 52799, Note_on_c, 4, 72, 0
6, 52799, Note_on_c, 4, 67, 0
6, 52799, Note_on_c, 4, 63, 0
6, 54300, Note_on_c, 4, 77, 120
6, 54307, Note_on_c, 4, 79, 120
6, 54308, Note_on_c, 4, 77, 0
6, 54315, Note_on_c, 4, 79, 0
6, 54315, Note_on_c, 4, 77, 120
6, 54510, Note_on_c, 4, 77, 0
6, 54510, Note_on_c, 4, 79, 120
6, 54540, Note_on_c, 4, 79, 0
6, 54540, Note_on_c, 4, 77, 120
6, 54570, Note_on_c, 4, 77, 0
6, 54570, Note_on_c, 4, 75, 120
6, 54600, Note_on_c, 4, 75, 0
6, 54600, Note_on_c, 4, 77, 120
6, 54630, Note_on_c, 4, 77, 0
6, 54630, Note_on_c, 4, 79, 120
6, 54660, Note_on_c, 4, 79, 0
6, 54660, Note_on_c, 4, 69, 120
6, 54870, Note_on_c, 4, 69, 0
6, 54870, Note_on_c, 4, 67, 120
6, 54900, Note_on_c, 4, 67, 0
6, 54900, Note_on_c, 4, 69, 120
6, 54930, Note_on_c, 4, 69, 0
6, 54930, Note_on_c, 4, 70, 120
6, 54960, Note_on_c, 4, 70, 0
6, 54960, Note_on_c, 4, 72, 120
6, 54990, Note_on_c, 4, 72, 0
6, 54990, Note_on_c, 4, 74, 120
6, 55020, Note_on_c, 4, 74, 0
6, 55020, Note_on_c, 4, 75, 120
6, 55050, Note_on_c, 4, 75, 0
6, 55050, Note_on_c, 4, 79, 120
6, 55080, Note_on_c, 4, 79, 0
6, 55080, Note_on_c, 4, 77, 120
6, 55110, Note_on_c, 4, 77, 0
6, 55110, Note_on_c, 4, 75, 120
6, 55140, Note_on_c, 4, 75, 0
6, 55140, Note_on_c, 4, 84, 120
6, 55230, Note_on_c, 4, 84, 0
6, 55230, Note_on_c, 4, 82, 120
6, 55260, Note_on_c, 4, 82, 0
6, 55260, Note_on_c, 4, 81, 120
6, 55290, Note_on_c, 4, 81, 0
6, 55290, Note_on_c, 4, 79, 120
6, 55320, Note_on_c, 4, 79, 0
6, 55320, Note_on_c, 4, 77, 120
6, 55350, Note_on_c, 4, 77, 0
6, 55350, Note_on_c, 4, 75, 120
6, 55380, Note_on_c, 4, 75, 0
6, 55380, Note_on_c, 4, 74, 120
6, 55410, Note_on_c, 4, 74, 0
6, 55410, Note_on_c, 4, 77, 120
6, 55440, Note_on_c, 4, 77, 0
6, 55440, Note_on_c, 4, 79, 120
6, 55470, Note_on_c, 4, 79, 0
6, 55470, Note_on_c, 4, 80, 120
6, 55500, Note_on_c, 4, 80, 0
6, 55500, Note_on_c, 4, 82, 120
6, 55590, Note_on_c, 4, 82, 0
6, 55590, Note_on_c, 4, 85, 120
6, 55620, Note_on_c, 4, 85, 0
6, 55620, Note_on_c, 4, 84, 120
6, 55650, Note_on_c, 4, 84, 0
6, 55650, Note_on_c, 4, 82, 120
6, 55680, Note_on_c, 4, 82, 0
6, 55680, Note_on_c, 4, 80, 120
6, 55710, Note_on_c, 4, 80, 0
6, 55710, Note_on_c, 4, 79, 120
6, 55740, Note_on_c, 4, 79, 0
6, 55740, Note_on_c, 4, 80, 120
6, 55800, Note_on_c, 4, 80, 0
6, 56130, Note_on_c, 4, 67, 120
6, 56160, Note_on_c, 4, 67, 0
6, 56160, Note_on_c, 4, 72, 120
6, 56190, Note_on_c, 4, 72, 0
6, 56190, Note_on_c, 4, 74, 120
6, 56220, Note_on_c, 4, 74, 0
6, 56220, Note_on_c, 4, 75, 120
6, 56310, Note_on_c, 4, 75, 0
6, 56310, Note_on_c, 4, 79, 120
6, 56340, Note_on_c, 4, 79, 0
6, 56340, Note_on_c, 4, 77, 120
6, 56370, Note_on_c, 4, 77, 0
6, 56370, Note_on_c, 4, 75, 120
6, 56400, Note_on_c, 4, 75, 0
6, 56400, Note_on_c, 4, 74, 120
6, 56430, Note_on_c, 4, 74, 0
6, 56430, Note_on_c, 4, 72, 120
6, 56460, Note_on_c, 4, 72, 0
6, 56460, Note_on_c, 4, 71, 120
6, 56490, Note_on_c, 4, 71, 0
6, 56490, Note_on_c, 4, 74, 120
6, 56520, Note_on_c, 4, 74, 0
6, 56520, Note_on_c, 4, 72, 120
6, 56550, Note_on_c, 4, 72, 0
6, 56550, Note_on_c, 4, 71, 120
6, 56580, Note_on_c, 4, 71, 0
6, 56580, Note_on_c, 4, 69, 120
6, 56610, Note_on_c, 4, 69, 0
6, 56610, Note_on_c, 4, 67, 120
6, 56640, Note_on_c, 4, 67, 0
6, 56640, Note_on_c, 4, 79, 120
6, 56700, Note_on_c, 4, 79, 0
6, 56850, Note_on_c, 4, 80, 120
6, 56880, Note_on_c, 4, 80, 0
6, 56880, Note_on_c, 4, 79, 120
6, 56910, Note_on_c, 4, 79, 0
6, 56910, Note_on_c, 4, 77, 120
6, 56940, Note_on_c, 4, 77, 0
6, 56940, Note_on_c, 4, 75, 120
6, 56970, Note_on_c, 4, 75, 0
6, 56970, Note_on_c, 4, 74, 120
6, 57000, Note_on_c, 4, 74, 0
6, 57000, Note_on_c, 4, 86, 120
6, 57060, Note_on_c, 4, 86, 0
6, 57540, Note_on_c, 4, 79, 120
6, 57547, Note_on_c, 4, 80, 120
6, 57548, Note_on_c, 4, 79, 0
6, 57555, Note_on_c, 4, 80, 0
6, 57555, Note_on_c, 4, 79, 120
6, 57750, Note_on_c, 4, 79, 0
6, 57750, Note_on_c, 4, 80, 120
6, 57780, Note_on_c, 4, 80, 0
6, 57780, Note_on_c, 4, 79, 120
6, 57810, Note_on_c, 4, 79, 0
6, 57810, Note_on_c, 4, 77, 120
6, 57840, Note_on_c, 4, 77, 0
6, 57840, Note_on_c, 4, 79, 120
6, 57870, Note_on_c, 4, 79, 0
6, 57870, Note_on_c, 4, 80, 120
6, 57900, Note_on_c, 4, 80, 0
6, 57900, Note_on_c, 4, 71, 120
6, 58109, Note_on_c, 4, 71, 0
6, 58110, Note_on_c, 4, 69, 120
6, 58139, Note_on_c, 4, 69, 0
6, 58140, Note_on_c, 4, 71, 120
6, 58169, Note_on_c, 4, 71, 0
6, 58170, Note_on_c, 4, 72, 120
6, 58199, Note_on_c, 4, 72, 0
6, 58200, Note_on_c, 4, 74, 120
6, 58229, Note_on_c, 4, 74, 0
6, 58230, Note_on_c, 4, 75, 120
6, 58259, Note_on_c, 4, 75, 0
6, 58260, Note_on_c, 4, 77, 120
6, 58289, Note_on_c, 4, 77, 0
6, 58290, Note_on_c, 4, 80, 120
6, 58319, Note_on_c, 4, 80, 0
6, 58320, Note_on_c, 4, 79, 120
6, 58349, Note_on_c, 4, 79, 0
6, 58350, Note_on_c, 4, 77, 120
6, 58379, Note_on_c, 4, 77, 0
6, 58380, Note_on_c, 4, 86, 120
6, 58469, Note_on_c, 4, 86, 0
6, 58470, Note_on_c, 4, 84, 120
6, 58499, Note_on_c, 4, 84, 0
6, 58500, Note_on_c, 4, 83, 120
6, 58529, Note_on_c, 4, 83, 0
6, 58530, Note_on_c, 4, 81, 120
6, 58559, Note_on_c, 4, 81, 0
6, 58560, Note_on_c, 4, 79, 120
6, 58589, Note_on_c, 4, 79, 0
6, 58590, Note_on_c, 4, 77, 120
6, 58619, Note_on_c, 4, 77, 0
6, 58620, Note_on_c, 4, 75, 120
6, 58829, Note_on_c, 4, 75, 0
6, 58830, Note_on_c, 4, 77, 120
6, 58859, Note_on_c, 4, 77, 0
6, 58860, Note_on_c, 4, 75, 120
6, 58889, Note_on_c, 4, 75, 0
6, 58890, Note_on_c, 4, 74, 120
6, 58919, Note_on_c, 4, 74, 0
6, 58920, Note_on_c, 4, 75, 120
6, 58949, Note_on_c, 4, 75, 0
6, 58950, Note_on_c, 4, 77, 120
6, 58979, Note_on_c, 4, 77, 0
6, 58980, Note_on_c, 4, 74, 120
6, 59189, Note_on_c, 4, 74, 0
6, 59190, Note_on_c, 4, 75, 120
6, 59219, Note_on_c, 4, 75, 0
6, 59220, Note_on_c, 4, 74, 120
6, 59249, Note_on_c, 4, 74, 0
6, 59250, Note_on_c, 4, 72, 120
6, 59279, Note_on_c, 4, 72, 0
6, 59280, Note_on_c, 4, 74, 120
6, 59309, Note_on_c, 4, 74, 0
6, 59310, Note_on_c, 4, 75, 120
6, 59339, Note_on_c, 4, 75, 0
6, 59340, Note_on_c, 4, 77, 120
6, 59369, Note_on_c, 4, 77, 0
6, 59370, Note_on_c, 4, 80, 120
6, 59399, Note_on_c, 4, 80, 0
6, 59400, Note_on_c, 4, 79, 120
6, 59429, Note_on_c, 4, 79, 0
6, 59430, Note_on_c, 4, 77, 120
6, 59459, Note_on_c, 4, 77, 0
6, 59460, Note_on_c, 4, 79, 120
6, 59489, Note_on_c, 4, 79, 0
6, 59490, Note_on_c, 4, 80, 120
6, 59519, Note_on_c, 4, 80, 0
6, 59520, Note_on_c, 4, 72, 120
6, 59729, Note_on_c, 4, 72, 0
6, 59730, Note_on_c, 4, 74, 120
6, 59759, Note_on_c, 4, 74, 0
6, 59760, Note_on_c, 4, 72, 120
6, 59789, Note_on_c, 4, 72, 0
6, 59790, Note_on_c, 4, 71, 120
6, 59819, Note_on_c, 4, 71, 0
6, 59820, Note_on_c, 4, 72, 120
6, 59849, Note_on_c, 4, 72, 0
6, 59850, Note_on_c, 4, 74, 120
6, 59879, Note_on_c, 4, 74, 0
6, 59880, Note_on_c, 4, 71, 120
6, 59999, Note_on_c, 4, 71, 0
6, 60000, Note_on_c, 4, 72, 120
6, 60059, Note_on_c, 4, 72, 0
6, 60060, Note_on_c, 4, 72, 120
6, 60239, Note_on_c, 4, 72, 0
6, 60360, Note_on_c, 4, 75, 120
6, 60449, Note_on_c, 4, 75, 0
6, 60450, Note_on_c, 4, 72, 120
6, 60479, Note_on_c, 4, 72, 0
6, 60480, Note_on_c, 4, 77, 120
6, 60509, Note_on_c, 4, 77, 0
6, 60510, Note_on_c, 4, 79, 120
6, 60539, Note_on_c, 4, 79, 0
6, 60540, Note_on_c, 4, 81, 120
6, 60569, Note_on_c, 4, 81, 0
6, 60570, Note_on_c, 4, 82, 120
6, 60599, Note_on_c, 4, 82, 0
6, 60600, Note_on_c, 4, 84, 120
6, 60629, Note_on_c, 4, 84, 0
6, 60630, Note_on_c, 4, 86, 120
6, 60659, Note_on_c, 4, 86, 0
6, 60660, Note_on_c, 4, 84, 120
6, 60689, Note_on_c, 4, 84, 0
6, 60690, Note_on_c, 4, 82, 120
6, 60719, Note_on_c, 4, 82, 0
6, 60720, Note_on_c, 4, 84, 120
6, 60749, Note_on_c, 4, 84, 0
6, 60750, Note_on_c, 4, 81, 120
6, 60779, Note_on_c, 4, 81, 0
6, 60780, Note_on_c, 4, 77, 120
6, 60839, Note_on_c, 4, 77, 0
6, 60840, Note_on_c, 4, 65, 120
6, 60899, Note_on_c, 4, 65, 0
6, 60900, Note_on_c, 4, 70, 120
6, 60959, Note_on_c, 4, 70, 0
6, 60960, Note_on_c, 4, 74, 120
6, 61019, Note_on_c, 4, 74, 0
6, 61020, Note_on_c, 4, 77, 120
6, 61169, Note_on_c, 4, 77, 0
6, 61170, Note_on_c, 4, 70, 120
6, 61199, Note_on_c, 4, 70, 0
6, 61200, Note_on_c, 4, 75, 120
6, 61229, Note_on_c, 4, 75, 0
6, 61230, Note_on_c, 4, 77, 120
6, 61259, Note_on_c, 4, 77, 0
6, 61260, Note_on_c, 4, 79, 120
6, 61289, Note_on_c, 4, 79, 0
6, 61290, Note_on_c, 4, 80, 120
6, 61319, Note_on_c, 4, 80, 0
6, 61320, Note_on_c, 4, 82, 120
6, 61349, Note_on_c, 4, 82, 0
6, 61350, Note_on_c, 4, 84, 120
6, 61379, Note_on_c, 4, 84, 0
6, 61380, Note_on_c, 4, 82, 120
6, 61409, Note_on_c, 4, 82, 0
6, 61410, Note_on_c, 4, 80, 120
6, 61439, Note_on_c, 4, 80, 0
6, 61440, Note_on_c, 4, 82, 120
6, 61469, Note_on_c, 4, 82, 0
6, 61470, Note_on_c, 4, 79, 120
6, 61499, Note_on_c, 4, 79, 0
6, 61500, Note_on_c, 4, 75, 120
6, 61529, Note_on_c, 4, 75, 0
6, 61530, Note_on_c, 4, 77, 120
6, 61559, Note_on_c, 4, 77, 0
6, 61560, Note_on_c, 4, 75, 120
6, 61589, Note_on_c, 4, 75, 0
6, 61590, Note_on_c, 4, 74, 120
6, 61619, Note_on_c, 4, 74, 0
6, 61620, Note_on_c, 4, 75, 120
6, 61649, Note_on_c, 4, 75, 0
6, 61650, Note_on_c, 4, 72, 120
6, 61679, Note_on_c, 4, 72, 0
6, 61680, Note_on_c, 4, 69, 120
6, 61709, Note_on_c, 4, 69, 0
6, 61710, Note_on_c, 4, 72, 120
6, 61739, Note_on_c, 4, 72, 0
6, 61740, Note_on_c, 4, 70, 120
6, 61769, Note_on_c, 4, 70, 0
6, 61770, Note_on_c, 4, 69, 120
6, 61799, Note_on_c, 4, 69, 0
6, 61800, Note_on_c, 4, 67, 120
6, 61829, Note_on_c, 4, 67, 0
6, 61830, Note_on_c, 4, 65, 120
6, 61859, Note_on_c, 4, 65, 0
6, 61860, Note_on_c, 4, 77, 120
6, 62099, Note_on_c, 4, 77, 0
6, 62100, Note_on_c, 4, 70, 120
6, 62129, Note_on_c, 4, 70, 0
6, 62130, Note_on_c, 4, 69, 120
6, 62159, Note_on_c, 4, 69, 0
6, 62160, Note_on_c, 4, 70, 120
6, 62189, Note_on_c, 4, 70, 0
6, 62190, Note_on_c, 4, 79, 120
6, 62219, Note_on_c, 4, 79, 0
6, 62220, Note_on_c, 4, 69, 120
6, 62279, Note_on_c, 4, 69, 0
6, 63660, Note_on_c, 4, 72, 120
6, 63869, Note_on_c, 4, 72, 0
6, 63870, Note_on_c, 4, 73, 120
6, 63899, Note_on_c, 4, 73, 0
6, 63900, Note_on_c, 4, 72, 120
6, 63929, Note_on_c, 4, 72, 0
6, 63930, Note_on_c, 4, 70, 120
6, 63959, Note_on_c, 4, 70, 0
6, 63960, Note_on_c, 4, 72, 120
6, 63989, Note_on_c, 4, 72, 0
6, 63990, Note_on_c, 4, 73, 120
6, 64019, Note_on_c, 4, 73, 0
6, 64020, Note_on_c, 4, 64, 120
6, 64229, Note_on_c, 4, 64, 0
6, 64230, Note_on_c, 4, 62, 120
6, 64259, Note_on_c, 4, 62, 0
6, 64260, Note_on_c, 4, 64, 120
6, 64289, Note_on_c, 4, 64, 0
6, 64290, Note_on_c, 4, 65, 120
6, 64319, Note_on_c, 4, 65, 0
6, 64320, Note_on_c, 4, 67, 120
6, 64349, Note_on_c, 4, 67, 0
6, 64350, Note_on_c, 4, 68, 120
6, 64379, Note_on_c, 4, 68, 0
6, 64380, Note_on_c, 4, 70, 120
6, 64409, Note_on_c, 4, 70, 0
6, 64410, Note_on_c, 4, 73, 120
6, 64439, Note_on_c, 4, 73, 0
6, 64440, Note_on_c, 4, 72, 120
6, 64469, Note_on_c, 4, 72, 0
6, 64470, Note_on_c, 4, 70, 120
6, 64499, Note_on_c, 4, 70, 0
6, 64500, Note_on_c, 4, 79, 120
6, 64589, Note_on_c, 4, 79, 0
6, 64590, Note_on_c, 4, 77, 120
6, 64619, Note_on_c, 4, 77, 0
6, 64620, Note_on_c, 4, 76, 120
6, 64649, Note_on_c, 4, 76, 0
6, 64650, Note_on_c, 4, 79, 120
6, 64679, Note_on_c, 4, 79, 0
6, 64680, Note_on_c, 4, 72, 120
6, 64709, Note_on_c, 4, 72, 0
6, 64710, Note_on_c, 4, 70, 120
6, 64739, Note_on_c, 4, 70, 0
6, 64740, Note_on_c, 4, 68, 120
6, 64859, Note_on_c, 4, 68, 0
6, 65130, Note_on_c, 4, 67, 120
6, 65159, Note_on_c, 4, 67, 0
6, 65160, Note_on_c, 4, 69, 120
6, 65189, Note_on_c, 4, 69, 0
6, 65190, Note_on_c, 4, 70, 120
6, 65219, Note_on_c, 4, 70, 0
6, 65220, Note_on_c, 4, 72, 120
6, 65309, Note_on_c, 4, 72, 0
6, 65310, Note_on_c, 4, 75, 120
6, 65339, Note_on_c, 4, 75, 0
6, 65340, Note_on_c, 4, 74, 120
6, 65369, Note_on_c, 4, 74, 0
6, 65370, Note_on_c, 4, 72, 120
6, 65399, Note_on_c, 4, 72, 0
6, 65400, Note_on_c, 4, 70, 120
6, 65429, Note_on_c, 4, 70, 0
6, 65430, Note_on_c, 4, 69, 120
6, 65459, Note_on_c, 4, 69, 0
6, 65460, Note_on_c, 4, 70, 120
6, 65579, Note_on_c, 4, 70, 0
6, 65820, Note_on_c, 4, 74, 120
6, 66029, Note_on_c, 4, 74, 0
6, 66030, Note_on_c, 4, 75, 120
6, 66059, Note_on_c, 4, 75, 0
6, 66060, Note_on_c, 4, 74, 120
6, 66089, Note_on_c, 4, 74, 0
6, 66090, Note_on_c, 4, 72, 120
6, 66119, Note_on_c, 4, 72, 0
6, 66120, Note_on_c, 4, 74, 120
6, 66149, Note_on_c, 4, 74, 0
6, 66150, Note_on_c, 4, 75, 120
6, 66179, Note_on_c, 4, 75, 0
6, 66180, Note_on_c, 4, 66, 120
6, 66389, Note_on_c, 4, 66, 0
6, 66390, Note_on_c, 4, 64, 120
6, 66419, Note_on_c, 4, 64, 0
6, 66420, Note_on_c, 4, 66, 120
6, 66449, Note_on_c, 4, 66, 0
6, 66450, Note_on_c, 4, 67, 120
6, 66479, Note_on_c, 4, 67, 0
6, 66480, Note_on_c, 4, 69, 120
6, 66509, Note_on_c, 4, 69, 0
6, 66510, Note_on_c, 4, 70, 120
6, 66539, Note_on_c, 4, 70, 0
6, 66540, Note_on_c, 4, 72, 120
6, 66569, Note_on_c, 4, 72, 0
6, 66570, Note_on_c, 4, 75, 120
6, 66599, Note_on_c, 4, 75, 0
6, 66600, Note_on_c, 4, 74, 120
6, 66629, Note_on_c, 4, 74, 0
6, 66630, Note_on_c, 4, 72, 120
6, 66659, Note_on_c, 4, 72, 0
6, 66660, Note_on_c, 4, 81, 120
6, 66749, Note_on_c, 4, 81, 0
6, 66750, Note_on_c, 4, 79, 120
6, 66779, Note_on_c, 4, 79, 0
6, 66780, Note_on_c, 4, 78, 120
6, 66809, Note_on_c, 4, 78, 0
6, 66810, Note_on_c, 4, 81, 120
6, 66839, Note_on_c, 4, 81, 0
6, 66840, Note_on_c, 4, 74, 120
6, 66869, Note_on_c, 4, 74, 0
6, 66870, Note_on_c, 4, 72, 120
6, 66899, Note_on_c, 4, 72, 0
6, 66900, Note_on_c, 4, 70, 120
6, 66929, Note_on_c, 4, 70, 0
6, 66930, Note_on_c, 4, 75, 120
6, 66959, Note_on_c, 4, 75, 0
6, 66960, Note_on_c, 4, 74, 120
6, 66989, Note_on_c, 4, 74, 0
6, 66990, Note_on_c, 4, 72, 120
6, 67019, Note_on_c, 4, 72, 0
6, 67020, Note_on_c, 4, 70, 120
6, 67049, Note_on_c, 4, 70, 0
6, 67050, Note_on_c, 4, 69, 120
6, 67079, Note_on_c, 4, 69, 0
6, 67080, Note_on_c, 4, 79, 120
6, 67139, Note_on_c, 4, 79, 0
6, 67290, Note_on_c, 4, 81, 120
6, 67319, Note_on_c, 4, 81, 0
6, 67320, Note_on_c, 4, 79, 120
6, 67349, Note_on_c, 4, 79, 0
6, 67350, Note_on_c, 4, 78, 120
6, 67379, Note_on_c, 4, 78, 0
6, 67380, Note_on_c, 4, 76, 120
6, 67409, Note_on_c, 4, 76, 0
6, 67410, Note_on_c, 4, 74, 120
6, 67439, Note_on_c, 4, 74, 0
6, 67440, Note_on_c, 4, 86, 120
6, 67499, Note_on_c, 4, 86, 0
6, 67680, Note_on_c, 4, 69, 120
6, 67739, Note_on_c, 4, 69, 0
6, 67740, Note_on_c, 4, 72, 120
6, 67799, Note_on_c, 4, 72, 0
6, 67800, Note_on_c, 4, 75, 120
6, 67859, Note_on_c, 4, 75, 0
6, 67860, Note_on_c, 4, 82, 120
6, 67889, Note_on_c, 4, 82, 0
6, 67890, Note_on_c, 4, 81, 120
6, 68009, Note_on_c, 4, 81, 0
6, 68010, Note_on_c, 4, 82, 120
6, 68039, Note_on_c, 4, 82, 0
6, 68040, Note_on_c, 4, 81, 120
6, 68069, Note_on_c, 4, 81, 0
6, 68070, Note_on_c, 4, 79, 120
6, 68099, Note_on_c, 4, 79, 0
6, 68100, Note_on_c, 4, 81, 120
6, 68129, Note_on_c, 4, 81, 0
6, 68130, Note_on_c, 4, 82, 120
6, 68159, Note_on_c, 4, 82, 0
6, 68160, Note_on_c, 4, 79, 120
6, 68369, Note_on_c, 4, 79, 0
6, 68370, Note_on_c, 4, 81, 120
6, 68399, Note_on_c, 4, 81, 0
6, 68400, Note_on_c, 4, 79, 120
6, 68429, Note_on_c, 4, 79, 0
6, 68430, Note_on_c, 4, 78, 120
6, 68459, Note_on_c, 4, 78, 0
6, 68460, Note_on_c, 4, 79, 120
6, 68489, Note_on_c, 4, 79, 0
6, 68490, Note_on_c, 4, 81, 120
6, 68519, Note_on_c, 4, 81, 0
6, 68520, Note_on_c, 4, 70, 120
6, 68729, Note_on_c, 4, 70, 0
6, 68730, Note_on_c, 4, 72, 120
6, 68759, Note_on_c, 4, 72, 0
6, 68760, Note_on_c, 4, 70, 120
6, 68789, Note_on_c, 4, 70, 0
6, 68790, Note_on_c, 4, 69, 120
6, 68819, Note_on_c, 4, 69, 0
6, 68820, Note_on_c, 4, 70, 120
6, 68849, Note_on_c, 4, 70, 0
6, 68850, Note_on_c, 4, 72, 120
6, 68879, Note_on_c, 4, 72, 0
6, 68880, Note_on_c, 4, 74, 120
6, 68909, Note_on_c, 4, 74, 0
6, 68910, Note_on_c, 4, 75, 120
6, 68939, Note_on_c, 4, 75, 0
6, 68940, Note_on_c, 4, 74, 120
6, 68969, Note_on_c, 4, 74, 0
6, 68970, Note_on_c, 4, 72, 120
6, 68999, Note_on_c, 4, 72, 0
6, 69000, Note_on_c, 4, 74, 120
6, 69029, Note_on_c, 4, 74, 0
6, 69030, Note_on_c, 4, 75, 120
6, 69059, Note_on_c, 4, 75, 0
6, 69060, Note_on_c, 4, 70, 120
6, 69239, Note_on_c, 4, 70, 0
6, 69240, Note_on_c, 4, 69, 120
6, 69359, Note_on_c, 4, 69, 0
6, 69360, Note_on_c, 4, 67, 120
6, 69419, Note_on_c, 4, 67, 0
6, 69420, Note_on_c, 4, 67, 120
6, 69539, Note_on_c, 4, 67, 0
6, 70440, Note_on_c, 4, 67, 120
6, 70529, Note_on_c, 4, 67, 0
6, 70530, Note_on_c, 4, 70, 120
6, 70559, Note_on_c, 4, 70, 0
6, 70560, Note_on_c, 4, 69, 120
6, 70589, Note_on_c, 4, 69, 0
6, 70590, Note_on_c, 4, 67, 120
6, 70619, Note_on_c, 4, 67, 0
6, 70620, Note_on_c, 4, 69, 120
6, 70649, Note_on_c, 4, 69, 0
6, 70650, Note_on_c, 4, 70, 120
6, 70679, Note_on_c, 4, 70, 0
6, 70680, Note_on_c, 4, 72, 120
6, 70709, Note_on_c, 4, 72, 0
6, 70710, Note_on_c, 4, 74, 120
6, 70739, Note_on_c, 4, 74, 0
6, 70740, Note_on_c, 4, 72, 120
6, 70769, Note_on_c, 4, 72, 0
6, 70770, Note_on_c, 4, 70, 120
6, 70799, Note_on_c, 4, 70, 0
6, 70800, Note_on_c, 4, 72, 120
6, 70829, Note_on_c, 4, 72, 0
6, 70830, Note_on_c, 4, 74, 120
6, 70859, Note_on_c, 4, 74, 0
6, 70860, Note_on_c, 4, 75, 120
6, 70889, Note_on_c, 4, 75, 0
6, 70890, Note_on_c, 4, 77, 120
6, 70919, Note_on_c, 4, 77, 0
6, 70920, Note_on_c, 4, 75, 120
6, 70949, Note_on_c, 4, 75, 0
6, 70950, Note_on_c, 4, 74, 120
6, 70979, Note_on_c, 4, 74, 0
6, 70980, Note_on_c, 4, 75, 120
6, 71009, Note_on_c, 4, 75, 0
6, 71010, Note_on_c, 4, 77, 120
6, 71039, Note_on_c, 4, 77, 0
6, 71040, Note_on_c, 4, 79, 120
6, 71069, Note_on_c, 4, 79, 0
6, 71100, Note_on_c, 4, 77, 120
6, 71129, Note_on_c, 4, 77, 0
6, 71160, Note_on_c, 4, 75, 120
6, 71189, Note_on_c, 4, 75, 0
6, 71220, Note_on_c, 4, 74, 120
6, 71279, Note_on_c, 4, 74, 0
6, 71280, Note_on_c, 4, 77, 120
6, 71339, Note_on_c, 4, 77, 0
6, 71340, Note_on_c, 4, 80, 120
6, 71399, Note_on_c, 4, 80, 0
6, 71400, Note_on_c, 4, 70, 120
6, 71519, Note_on_c, 4, 70, 0
6, 71880, Note_on_c, 4, 65, 120
6, 71969, Note_on_c, 4, 65, 0
6, 71970, Note_on_c, 4, 68, 120
6, 71999, Note_on_c, 4, 68, 0
6, 72000, Note_on_c, 4, 67, 120
6, 72029, Note_on_c, 4, 67, 0
6, 72030, Note_on_c, 4, 65, 120
6, 72059, Note_on_c, 4, 65, 0
6, 72060, Note_on_c, 4, 67, 120
6, 72089, Note_on_c, 4, 67, 0
6, 72090, Note_on_c, 4, 68, 120
6, 72119, Note_on_c, 4, 68, 0
6, 72120, Note_on_c, 4, 70, 120
6, 72149, Note_on_c, 4, 70, 0
6, 72150, Note_on_c, 4, 72, 120
6, 72179, Note_on_c, 4, 72, 0
6, 72180, Note_on_c, 4, 70, 120
6, 72209, Note_on_c, 4, 70, 0
6, 72210, Note_on_c, 4, 68, 120
6, 72239, Note_on_c, 4, 68, 0
6, 72240, Note_on_c, 4, 70, 120
6, 72269, Note_on_c, 4, 70, 0
6, 72270, Note_on_c, 4, 72, 120
6, 72299, Note_on_c, 4, 72, 0
6, 72300, Note_on_c, 4, 73, 120
6, 72329, Note_on_c, 4, 73, 0
6, 72330, Note_on_c, 4, 75, 120
6, 72359, Note_on_c, 4, 75, 0
6, 72360, Note_on_c, 4, 73, 120
6, 72389, Note_on_c, 4, 73, 0
6, 72390, Note_on_c, 4, 72, 120
6, 72419, Note_on_c, 4, 72, 0
6, 72420, Note_on_c, 4, 73, 120
6, 72449, Note_on_c, 4, 73, 0
6, 72450, Note_on_c, 4, 75, 120
6, 72479, Note_on_c, 4, 75, 0
6, 72480, Note_on_c, 4, 77, 120
6, 72509, Note_on_c, 4, 77, 0
6, 72540, Note_on_c, 4, 75, 120
6, 72569, Note_on_c, 4, 75, 0
6, 72600, Note_on_c, 4, 73, 120
6, 72629, Note_on_c, 4, 73, 0
6, 72660, Note_on_c, 4, 72, 120
6, 72869, Note_on_c, 4, 72, 0
6, 72870, Note_on_c, 4, 73, 120
6, 72899, Note_on_c, 4, 73, 0
6, 72900, Note_on_c, 4, 72, 120
6, 72929, Note_on_c, 4, 72, 0
6, 72930, Note_on_c, 4, 70, 120
6, 72959, Note_on_c, 4, 70, 0
6, 72960, Note_on_c, 4, 72, 120
6, 72989, Note_on_c, 4, 72, 0
6, 72990, Note_on_c, 4, 68, 120
6, 73019, Note_on_c, 4, 68, 0
6, 73020, Note_on_c, 4, 70, 120
6, 73229, Note_on_c, 4, 70, 0
6, 73230, Note_on_c, 4, 72, 120
6, 73259, Note_on_c, 4, 72, 0
6, 73260, Note_on_c, 4, 70, 120
6, 73289, Note_on_c, 4, 70, 0
6, 73290, Note_on_c, 4, 68, 120
6, 73319, Note_on_c, 4, 68, 0
6, 73320, Note_on_c, 4, 70, 120
6, 73349, Note_on_c, 4, 70, 0
6, 73350, Note_on_c, 4, 67, 120
6, 73379, Note_on_c, 4, 67, 0
6, 73380, Note_on_c, 4, 72, 120
6, 73589, Note_on_c, 4, 72, 0
6, 73590, Note_on_c, 4, 74, 120
6, 73619, Note_on_c, 4, 74, 0
6, 73620, Note_on_c, 4, 75, 120
6, 73649, Note_on_c, 4, 75, 0
6, 73650, Note_on_c, 4, 74, 120
6, 73679, Note_on_c, 4, 74, 0
6, 73680, Note_on_c, 4, 75, 120
6, 73709, Note_on_c, 4, 75, 0
6, 73710, Note_on_c, 4, 77, 120
6, 73739, Note_on_c, 4, 77, 0
6, 73740, Note_on_c, 4, 70, 120
6, 73949, Note_on_c, 4, 70, 0
6, 73950, Note_on_c, 4, 72, 120
6, 73979, Note_on_c, 4, 72, 0
6, 73980, Note_on_c, 4, 70, 120
6, 74009, Note_on_c, 4, 70, 0
6, 74010, Note_on_c, 4, 68, 120
6, 74039, Note_on_c, 4, 68, 0
6, 74040, Note_on_c, 4, 70, 120
6, 74069, Note_on_c, 4, 70, 0
6, 74070, Note_on_c, 4, 72, 120
6, 74099, Note_on_c, 4, 72, 0
6, 74100, Note_on_c, 4, 62, 120
6, 74309, Note_on_c, 4, 62, 0
6, 74310, Note_on_c, 4, 60, 120
6, 74339, Note_on_c, 4, 60, 0
6, 74340, Note_on_c, 4, 62, 120
6, 74369, Note_on_c, 4, 62, 0
6, 74370, Note_on_c, 4, 63, 120
6, 74399, Note_on_c, 4, 63, 0
6, 74400, Note_on_c, 4, 65, 120
6, 74429, Note_on_c, 4, 65, 0
6, 74430, Note_on_c, 4, 67, 120
6, 74459, Note_on_c, 4, 67, 0
6, 74460, Note_on_c, 4, 68, 120
6, 74489, Note_on_c, 4, 68, 0
6, 74490, Note_on_c, 4, 72, 120
6, 74519, Note_on_c, 4, 72, 0
6, 74520, Note_on_c, 4, 70, 120
6, 74549, Note_on_c, 4, 70, 0
6, 74550, Note_on_c, 4, 68, 120
6, 74579, Note_on_c, 4, 68, 0
6, 74580, Note_on_c, 4, 77, 120
6, 74669, Note_on_c, 4, 77, 0
6, 74670, Note_on_c, 4, 75, 120
6, 74699, Note_on_c, 4, 75, 0
6, 74700, Note_on_c, 4, 74, 120
6, 74729, Note_on_c, 4, 74, 0
6, 74730, Note_on_c, 4, 72, 120
6, 74759, Note_on_c, 4, 72, 0
6, 74760, Note_on_c, 4, 70, 120
6, 74789, Note_on_c, 4, 70, 0
6, 74790, Note_on_c, 4, 68, 120
6, 74819, Note_on_c, 4, 68, 0
6, 74820, Note_on_c, 4, 67, 120
6, 74849, Note_on_c, 4, 67, 0
6, 74850, Note_on_c, 4, 70, 120
6, 74879, Note_on_c, 4, 70, 0
6, 74880, Note_on_c, 4, 68, 120
6, 74909, Note_on_c, 4, 68, 0
6, 74910, Note_on_c, 4, 67, 120
6, 74939, Note_on_c, 4, 67, 0
6, 74940, Note_on_c, 4, 65, 120
6, 74969, Note_on_c, 4, 65, 0
6, 74970, Note_on_c, 4, 63, 120
6, 74999, Note_on_c, 4, 63, 0
6, 75000, Note_on_c, 4, 75, 120
6, 75059, Note_on_c, 4, 75, 0
6, 75210, Note_on_c, 4, 77, 120
6, 75239, Note_on_c, 4, 77, 0
6, 75240, Note_on_c, 4, 75, 120
6, 75269, Note_on_c, 4, 75, 0
6, 75270, Note_on_c, 4, 74, 120
6, 75299, Note_on_c, 4, 74, 0
6, 75300, Note_on_c, 4, 72, 120
6, 75329, Note_on_c, 4, 72, 0
6, 75330, Note_on_c, 4, 70, 120
6, 75359, Note_on_c, 4, 70, 0
6, 75360, Note_on_c, 4, 82, 120
6, 75419, Note_on_c, 4, 82, 0
6, 75600, Note_on_c, 4, 65, 120
6, 75659, Note_on_c, 4, 65, 0
6, 75660, Note_on_c, 4, 68, 120
6, 75719, Note_on_c, 4, 68, 0
6, 75720, Note_on_c, 4, 72, 120
6, 75779, Note_on_c, 4, 72, 0
6, 75780, Note_on_c, 4, 77, 120
6, 75929, Note_on_c, 4, 77, 0
6, 75930, Note_on_c, 4, 79, 120
6, 75959, Note_on_c, 4, 79, 0
6, 75960, Note_on_c, 4, 77, 120
6, 75989, Note_on_c, 4, 77, 0
6, 75990, Note_on_c, 4, 75, 120
6, 76019, Note_on_c, 4, 75, 0
6, 76020, Note_on_c, 4, 77, 120
6, 76049, Note_on_c, 4, 77, 0
6, 76050, Note_on_c, 4, 79, 120
6, 76079, Note_on_c, 4, 79, 0
6, 76080, Note_on_c, 4, 75, 120
6, 76289, Note_on_c, 4, 75, 0
6, 76290, Note_on_c, 4, 77, 120
6, 76319, Note_on_c, 4, 77, 0
6, 76320, Note_on_c, 4, 75, 120
6, 76349, Note_on_c, 4, 75, 0
6, 76350, Note_on_c, 4, 74, 120
6, 76379, Note_on_c, 4, 74, 0
6, 76380, Note_on_c, 4, 75, 120
6, 76409, Note_on_c, 4, 75, 0
6, 76410, Note_on_c, 4, 77, 120
6, 76439, Note_on_c, 4, 77, 0
6, 76440, Note_on_c, 4, 67, 120
6, 76649, Note_on_c, 4, 67, 0
6, 76650, Note_on_c, 4, 68, 120
6, 76679, Note_on_c, 4, 68, 0
6, 76680, Note_on_c, 4, 67, 120
6, 76709, Note_on_c, 4, 67, 0
6, 76710, Note_on_c, 4, 65, 120
6, 76739, Note_on_c, 4, 65, 0
6, 76740, Note_on_c, 4, 67, 120
6, 76769, Note_on_c, 4, 67, 0
6, 76770, Note_on_c, 4, 68, 120
6, 76799, Note_on_c, 4, 68, 0
6, 76800, Note_on_c, 4, 70, 120
6, 76829, Note_on_c, 4, 70, 0
6, 76830, Note_on_c, 4, 72, 120
6, 76859, Note_on_c, 4, 72, 0
6, 76860, Note_on_c, 4, 70, 120
6, 76889, Note_on_c, 4, 70, 0
6, 76890, Note_on_c, 4, 68, 120
6, 76919, Note_on_c, 4, 68, 0
6, 76920, Note_on_c, 4, 70, 120
6, 76949, Note_on_c, 4, 70, 0
6, 76950, Note_on_c, 4, 72, 120
6, 76979, Note_on_c, 4, 72, 0
6, 76980, Note_on_c, 4, 67, 120
6, 77159, Note_on_c, 4, 67, 0
6, 77160, Note_on_c, 4, 65, 120
6, 77279, Note_on_c, 4, 65, 0
6, 77280, Note_on_c, 4, 63, 120
6, 77339, Note_on_c, 4, 63, 0
6, 77340, Note_on_c, 4, 63, 120
6, 77549, Note_on_c, 4, 63, 0
6, 77550, Note_on_c, 4, 77, 120
6, 77579, Note_on_c, 4, 77, 0
6, 77580, Note_on_c, 4, 75, 120
6, 77609, Note_on_c, 4, 75, 0
6, 77610, Note_on_c, 4, 74, 120
6, 77639, Note_on_c, 4, 74, 0
6, 77640, Note_on_c, 4, 75, 120
6, 77669, Note_on_c, 4, 75, 0
6, 77670, Note_on_c, 4, 79, 120
6, 77699, Note_on_c, 4, 79, 0
6, 77700, Note_on_c, 4, 72, 120
6, 77909, Note_on_c, 4, 72, 0
6, 77910, Note_on_c, 4, 74, 120
6, 77939, Note_on_c, 4, 74, 0
6, 77940, Note_on_c, 4, 72, 120
6, 77969, Note_on_c, 4, 72, 0
6, 77970, Note_on_c, 4, 71, 120
6, 77999, Note_on_c, 4, 71, 0
6, 78000, Note_on_c, 4, 72, 120
6, 78029, Note_on_c, 4, 72, 0
6, 78030, Note_on_c, 4, 75, 120
6, 78059, Note_on_c, 4, 75, 0
6, 78060, Note_on_c, 4, 68, 120
6, 78269, Note_on_c, 4, 68, 0
6, 78270, Note_on_c, 4, 70, 120
6, 78299, Note_on_c, 4, 70, 0
6, 78300, Note_on_c, 4, 68, 120
6, 78329, Note_on_c, 4, 68, 0
6, 78330, Note_on_c, 4, 67, 120
6, 78359, Note_on_c, 4, 67, 0
6, 78360, Note_on_c, 4, 68, 120
6, 78389, Note_on_c, 4, 68, 0
6, 78390, Note_on_c, 4, 72, 120
6, 78419, Note_on_c, 4, 72, 0
6, 78420, Note_on_c, 4, 66, 120
6, 78599, Note_on_c, 4, 66, 0
6, 78960, Note_on_c, 4, 78, 120
6, 78960, Note_on_c, 4, 72, 120
6, 79140, Note_on_c, 4, 72, 0
6, 79140, Note_on_c, 4, 78, 0
6, 79140, Note_on_c, 4, 71, 120
6, 79140, Note_on_c, 4, 79, 120
6, 79500, Note_on_c, 4, 79, 0
6, 79500, Note_on_c, 4, 71, 0
6, 80400, Note_on_c, 4, 72, 110
6, 80459, Note_on_c, 4, 72, 0
6, 80460, Note_on_c, 4, 67, 110
6, 80519, Note_on_c, 4, 67, 0
6, 80520, Note_on_c, 4, 72, 110
6, 80579, Note_on_c, 4, 72, 0
6, 80580, Note_on_c, 4, 65, 110
6, 80639, Note_on_c, 4, 65, 0
6, 80640, Note_on_c, 4, 72, 110
6, 80699, Note_on_c, 4, 72, 0
6, 80700, Note_on_c, 4, 63, 110
6, 80729, Note_on_c, 4, 63, 0
6, 80730, Note_on_c, 4, 62, 110
6, 80759, Note_on_c, 4, 62, 0
6, 80760, Note_on_c, 4, 63, 110
6, 80789, Note_on_c, 4, 63, 0
6, 80790, Note_on_c, 4, 62, 110
6, 80819, Note_on_c, 4, 62, 0
6, 80820, Note_on_c, 4, 60, 110
6, 80879, Note_on_c, 4, 60, 0
6, 80880, Note_on_c, 4, 75, 110
6, 80939, Note_on_c, 4, 75, 0
6, 80940, Note_on_c, 4, 74, 110
6, 80999, Note_on_c, 4, 74, 0
6, 81000, Note_on_c, 4, 79, 110
6, 81119, Note_on_c, 4, 79, 0
6, 81120, Note_on_c, 4, 72, 110
6, 81179, Note_on_c, 4, 72, 0
6, 81180, Note_on_c, 4, 71, 110
6, 81209, Note_on_c, 4, 71, 0
6, 81210, Note_on_c, 4, 69, 110
6, 81239, Note_on_c, 4, 69, 0
6, 81240, Note_on_c, 4, 71, 110
6, 81269, Note_on_c, 4, 71, 0
6, 81270, Note_on_c, 4, 69, 110
6, 81299, Note_on_c, 4, 69, 0
6, 81300, Note_on_c, 4, 67, 110
6, 81329, Note_on_c, 4, 67, 0
6, 81330, Note_on_c, 4, 69, 110
6, 81359, Note_on_c, 4, 69, 0
6, 81360, Note_on_c, 4, 71, 110
6, 81389, Note_on_c, 4, 71, 0
6, 81390, Note_on_c, 4, 67, 110
6, 81419, Note_on_c, 4, 67, 0
6, 81420, Note_on_c, 4, 72, 110
6, 81479, Note_on_c, 4, 72, 0
6, 81480, Note_on_c, 4, 67, 110
6, 81539, Note_on_c, 4, 67, 0
6, 81540, Note_on_c, 4, 74, 110
6, 81599, Note_on_c, 4, 74, 0
6, 81600, Note_on_c, 4, 67, 110
6, 81659, Note_on_c, 4, 67, 0
6, 81660, Note_on_c, 4, 67, 120
6, 81660, Note_on_c, 4, 72, 120
6, 81660, Note_on_c, 4, 77, 110
6, 81719, Note_on_c, 4, 77, 0
6, 81720, Note_on_c, 4, 75, 110
6, 81780, Note_on_c, 4, 72, 0
6, 81780, Note_on_c, 4, 67, 0
6, 81809, Note_on_c, 4, 75, 0
6, 81810, Note_on_c, 4, 72, 110
6, 81839, Note_on_c, 4, 72, 0
6, 81840, Note_on_c, 4, 74, 110
6, 81869, Note_on_c, 4, 74, 0
6, 81870, Note_on_c, 4, 76, 110
6, 81899, Note_on_c, 4, 76, 0
6, 81900, Note_on_c, 4, 77, 110
6, 81959, Note_on_c, 4, 77, 0
6, 81960, Note_on_c, 4, 72, 110
6, 82019, Note_on_c, 4, 72, 0
6, 82020, Note_on_c, 4, 79, 110
6, 82079, Note_on_c, 4, 79, 0
6, 82080, Note_on_c, 4, 72, 110
6, 82139, Note_on_c, 4, 72, 0
6, 82140, Note_on_c, 4, 72, 120
6, 82140, Note_on_c, 4, 77, 120
6, 82140, Note_on_c, 4, 82, 110
6, 82199, Note_on_c, 4, 82, 0
6, 82200, Note_on_c, 4, 80, 110
6, 82260, Note_on_c, 4, 77, 0
6, 82260, Note_on_c, 4, 72, 0
6, 82289, Note_on_c, 4, 80, 0
6, 82290, Note_on_c, 4, 79, 110
6, 82319, Note_on_c, 4, 79, 0
6, 82320, Note_on_c, 4, 80, 110
6, 82349, Note_on_c, 4, 80, 0
6, 82350, Note_on_c, 4, 77, 110
6, 82379, Note_on_c, 4, 77, 0
6, 82380, Note_on_c, 4, 72, 110
6, 82409, Note_on_c, 4, 72, 0
6, 82410, Note_on_c, 4, 71, 110
6, 82439, Note_on_c, 4, 71, 0
6, 82440, Note_on_c, 4, 72, 110
6, 82469, Note_on_c, 4, 72, 0
6, 82470, Note_on_c, 4, 74, 110
6, 82499, Note_on_c, 4, 74, 0
6, 82500, Note_on_c, 4, 76, 110
6, 82529, Note_on_c, 4, 76, 0
6, 82530, Note_on_c, 4, 77, 110
6, 82559, Note_on_c, 4, 77, 0
6, 82560, Note_on_c, 4, 79, 110
6, 82589, Note_on_c, 4, 79, 0
6, 82590, Note_on_c, 4, 80, 110
6, 82619, Note_on_c, 4, 80, 0
6, 82620, Note_on_c, 4, 82, 110
6, 82649, Note_on_c, 4, 82, 0
6, 82650, Note_on_c, 4, 79, 110
6, 82679, Note_on_c, 4, 79, 0
6, 82680, Note_on_c, 4, 80, 110
6, 82709, Note_on_c, 4, 80, 0
6, 82710, Note_on_c, 4, 77, 110
6, 82739, Note_on_c, 4, 77, 0
6, 82740, Note_on_c, 4, 72, 110
6, 82769, Note_on_c, 4, 72, 0
6, 82770, Note_on_c, 4, 77, 110
6, 82799, Note_on_c, 4, 77, 0
6, 82800, Note_on_c, 4, 80, 110
6, 82829, Note_on_c, 4, 80, 0
6, 82830, Note_on_c, 4, 77, 110
6, 82859, Note_on_c, 4, 77, 0
6, 82860, Note_on_c, 4, 72, 110
6, 82889, Note_on_c, 4, 72, 0
6, 82890, Note_on_c, 4, 71, 110
6, 82919, Note_on_c, 4, 71, 0
6, 82920, Note_on_c, 4, 72, 110
6, 82949, Note_on_c, 4, 72, 0
6, 82950, Note_on_c, 4, 74, 110
6, 82979, Note_on_c, 4, 74, 0
6, 82980, Note_on_c, 4, 76, 110
6, 83009, Note_on_c, 4, 76, 0
6, 83010, Note_on_c, 4, 77, 110
6, 83039, Note_on_c, 4, 77, 0
6, 83040, Note_on_c, 4, 79, 110
6, 83069, Note_on_c, 4, 79, 0
6, 83070, Note_on_c, 4, 80, 110
6, 83099, Note_on_c, 4, 80, 0
6, 83100, Note_on_c, 4, 82, 110
6, 83129, Note_on_c, 4, 82, 0
6, 83130, Note_on_c, 4, 79, 110
6, 83159, Note_on_c, 4, 79, 0
6, 83160, Note_on_c, 4, 80, 110
6, 83189, Note_on_c, 4, 80, 0
6, 83190, Note_on_c, 4, 77, 110
6, 83219, Note_on_c, 4, 77, 0
6, 83220, Note_on_c, 4, 72, 110
6, 83249, Note_on_c, 4, 72, 0
6, 83250, Note_on_c, 4, 77, 110
6, 83279, Note_on_c, 4, 77, 0
6, 83280, Note_on_c, 4, 80, 110
6, 83309, Note_on_c, 4, 80, 0
6, 83310, Note_on_c, 4, 77, 110
6, 83339, Note_on_c, 4, 77, 0
6, 83340, Note_on_c, 4, 70, 110
6, 83369, Note_on_c, 4, 70, 0
6, 83370, Note_on_c, 4, 69, 110
6, 83399, Note_on_c, 4, 69, 0
6, 83400, Note_on_c, 4, 70, 110
6, 83429, Note_on_c, 4, 70, 0
6, 83430, Note_on_c, 4, 72, 110
6, 83459, Note_on_c, 4, 72, 0
6, 83460, Note_on_c, 4, 74, 110
6, 83489, Note_on_c, 4, 74, 0
6, 83490, Note_on_c, 4, 75, 110
6, 83519, Note_on_c, 4, 75, 0
6, 83520, Note_on_c, 4, 77, 110
6, 83549, Note_on_c, 4, 77, 0
6, 83550, Note_on_c, 4, 79, 110
6, 83579, Note_on_c, 4, 79, 0
6, 83580, Note_on_c, 4, 80, 110
6, 83609, Note_on_c, 4, 80, 0
6, 83610, Note_on_c, 4, 77, 110
6, 83639, Note_on_c, 4, 77, 0
6, 83640, Note_on_c, 4, 79, 110
6, 83669, Note_on_c, 4, 79, 0
6, 83670, Note_on_c, 4, 75, 110
6, 83699, Note_on_c, 4, 75, 0
6, 83700, Note_on_c, 4, 70, 110
6, 83729, Note_on_c, 4, 70, 0
6, 83730, Note_on_c, 4, 75, 110
6, 83759, Note_on_c, 4, 75, 0
6, 83760, Note_on_c, 4, 79, 110
6, 83789, Note_on_c, 4, 79, 0
6, 83790, Note_on_c, 4, 75, 110
6, 83819, Note_on_c, 4, 75, 0
6, 83820, Note_on_c, 4, 70, 110
6, 83849, Note_on_c, 4, 70, 0
6, 83850, Note_on_c, 4, 69, 110
6, 83879, Note_on_c, 4, 69, 0
6, 83880, Note_on_c, 4, 70, 110
6, 83909, Note_on_c, 4, 70, 0
6, 83910, Note_on_c, 4, 72, 110
6, 83939, Note_on_c, 4, 72, 0
6, 83940, Note_on_c, 4, 74, 110
6, 83969, Note_on_c, 4, 74, 0
6, 83970, Note_on_c, 4, 75, 110
6, 83999, Note_on_c, 4, 75, 0
6, 84000, Note_on_c, 4, 77, 110
6, 84029, Note_on_c, 4, 77, 0
6, 84030, Note_on_c, 4, 79, 110
6, 84059, Note_on_c, 4, 79, 0
6, 84060, Note_on_c, 4, 80, 110
6, 84089, Note_on_c, 4, 80, 0
6, 84090, Note_on_c, 4, 77, 110
6, 84119, Note_on_c, 4, 77, 0
6, 84120, Note_on_c, 4, 79, 110
6, 84149, Note_on_c, 4, 79, 0
6, 84150, Note_on_c, 4, 75, 110
6, 84179, Note_on_c, 4, 75, 0
6, 84180, Note_on_c, 4, 70, 110
6, 84209, Note_on_c, 4, 70, 0
6, 84210, Note_on_c, 4, 75, 110
6, 84239, Note_on_c, 4, 75, 0
6, 84240, Note_on_c, 4, 79, 110
6, 84269, Note_on_c, 4, 79, 0
6, 84270, Note_on_c, 4, 75, 110
6, 84299, Note_on_c, 4, 75, 0
6, 84300, Note_on_c, 4, 77, 110
6, 84359, Note_on_c, 4, 77, 0
6, 84420, Note_on_c, 4, 77, 110
6, 84479, Note_on_c, 4, 77, 0
6, 84540, Note_on_c, 4, 77, 110
6, 84659, Note_on_c, 4, 77, 0
6, 84690, Note_on_c, 4, 75, 110
6, 84719, Note_on_c, 4, 75, 0
6, 84720, Note_on_c, 4, 74, 110
6, 84749, Note_on_c, 4, 74, 0
6, 84750, Note_on_c, 4, 77, 110
6, 84779, Note_on_c, 4, 77, 0
6, 84780, Note_on_c, 4, 75, 110
6, 84809, Note_on_c, 4, 75, 0
6, 84810, Note_on_c, 4, 74, 110
6, 84839, Note_on_c, 4, 74, 0
6, 84840, Note_on_c, 4, 75, 110
6, 84929, Note_on_c, 4, 75, 0
6, 84930, Note_on_c, 4, 74, 110
6, 84959, Note_on_c, 4, 74, 0
6, 84960, Note_on_c, 4, 75, 110
6, 85049, Note_on_c, 4, 75, 0
6, 85050, Note_on_c, 4, 72, 110
6, 85079, Note_on_c, 4, 72, 0
6, 85080, Note_on_c, 4, 75, 110
6, 85199, Note_on_c, 4, 75, 0
6, 85200, Note_on_c, 4, 74, 110
6, 85229, Note_on_c, 4, 74, 0
6, 85230, Note_on_c, 4, 72, 110
6, 85259, Note_on_c, 4, 72, 0
6, 85260, Note_on_c, 4, 71, 110
6, 85319, Note_on_c, 4, 71, 0
6, 85320, Note_on_c, 4, 74, 110
6, 85379, Note_on_c, 4, 74, 0
6, 85380, Note_on_c, 4, 65, 110
6, 85439, Note_on_c, 4, 65, 0
6, 85440, Note_on_c, 4, 74, 110
6, 85499, Note_on_c, 4, 74, 0
6, 85500, Note_on_c, 4, 63, 110
6, 85529, Note_on_c, 4, 63, 0
6, 85530, Note_on_c, 4, 62, 110
6, 85559, Note_on_c, 4, 62, 0
6, 85560, Note_on_c, 4, 63, 110
6, 85589, Note_on_c, 4, 63, 0
6, 85590, Note_on_c, 4, 62, 110
6, 85619, Note_on_c, 4, 62, 0
6, 85620, Note_on_c, 4, 60, 110
6, 85679, Note_on_c, 4, 60, 0
6, 85680, Note_on_c, 4, 75, 110
6, 85709, Note_on_c, 4, 75, 0
6, 85710, Note_on_c, 4, 77, 110
6, 85739, Note_on_c, 4, 77, 0
6, 85740, Note_on_c, 4, 79, 110
6, 85799, Note_on_c, 4, 79, 0
6, 85800, Note_on_c, 4, 72, 110
6, 85859, Note_on_c, 4, 72, 0
6, 85860, Note_on_c, 4, 67, 110
6, 85919, Note_on_c, 4, 67, 0
6, 85920, Note_on_c, 4, 71, 110
6, 85979, Note_on_c, 4, 71, 0
6, 85980, Note_on_c, 4, 72, 110
6, 86099, Note_on_c, 4, 72, 0
6, 86160, Note_on_c, 4, 60, 110
6, 86189, Note_on_c, 4, 60, 0
6, 86190, Note_on_c, 4, 62, 110
6, 86219, Note_on_c, 4, 62, 0
6, 86220, Note_on_c, 4, 63, 110
6, 86249, Note_on_c, 4, 63, 0
6, 86250, Note_on_c, 4, 65, 110
6, 86279, Note_on_c, 4, 65, 0
6, 86280, Note_on_c, 4, 63, 110
6, 86309, Note_on_c, 4, 63, 0
6, 86310, Note_on_c, 4, 65, 110
6, 86339, Note_on_c, 4, 65, 0
6, 86340, Note_on_c, 4, 62, 110
6, 86369, Note_on_c, 4, 62, 0
6, 86370, Note_on_c, 4, 63, 110
6, 86399, Note_on_c, 4, 63, 0
6, 86400, Note_on_c, 4, 62, 110
6, 86429, Note_on_c, 4, 62, 0
6, 86430, Note_on_c, 4, 63, 110
6, 86459, Note_on_c, 4, 63, 0
6, 86460, Note_on_c, 4, 60, 110
6, 86519, Note_on_c, 4, 60, 0
6, 86520, Note_on_c, 4, 67, 110
6, 86579, Note_on_c, 4, 67, 0
6, 86580, Note_on_c, 4, 75, 110
6, 86639, Note_on_c, 4, 75, 0
6, 86640, Note_on_c, 4, 72, 110
6, 86699, Note_on_c, 4, 72, 0
6, 86700, Note_on_c, 4, 67, 110
6, 86759, Note_on_c, 4, 67, 0
6, 86760, Note_on_c, 4, 72, 110
6, 86819, Note_on_c, 4, 72, 0
6, 86820, Note_on_c, 4, 65, 110
6, 86879, Note_on_c, 4, 65, 0
6, 86880, Note_on_c, 4, 74, 110
6, 86939, Note_on_c, 4, 74, 0
6, 86940, Note_on_c, 4, 63, 110
6, 86969, Note_on_c, 4, 63, 0
6, 86970, Note_on_c, 4, 62, 110
6, 86999, Note_on_c, 4, 62, 0
6, 87000, Note_on_c, 4, 63, 110
6, 87029, Note_on_c, 4, 63, 0
6, 87030, Note_on_c, 4, 62, 110
6, 87059, Note_on_c, 4, 62, 0
6, 87060, Note_on_c, 4, 60, 110
6, 87089, Note_on_c, 4, 60, 0
6, 87090, Note_on_c, 4, 62, 110
6, 87119, Note_on_c, 4, 62, 0
6, 87120, Note_on_c, 4, 63, 110
6, 87149, Note_on_c, 4, 63, 0
6, 87150, Note_on_c, 4, 65, 110
6, 87179, Note_on_c, 4, 65, 0
6, 87180, Note_on_c, 4, 67, 110
6, 87209, Note_on_c, 4, 67, 0
6, 87210, Note_on_c, 4, 68, 110
6, 87239, Note_on_c, 4, 68, 0
6, 87240, Note_on_c, 4, 67, 110
6, 87269, Note_on_c, 4, 67, 0
6, 87270, Note_on_c, 4, 68, 110
6, 87299, Note_on_c, 4, 68, 0
6, 87300, Note_on_c, 4, 65, 110
6, 87329, Note_on_c, 4, 65, 0
6, 87330, Note_on_c, 4, 67, 110
6, 87359, Note_on_c, 4, 67, 0
6, 87360, Note_on_c, 4, 65, 110
6, 87389, Note_on_c, 4, 65, 0
6, 87390, Note_on_c, 4, 67, 110
6, 87419, Note_on_c, 4, 67, 0
6, 87420, Note_on_c, 4, 63, 110
6, 87479, Note_on_c, 4, 63, 0
6, 87480, Note_on_c, 4, 70, 110
6, 87539, Note_on_c, 4, 70, 0
6, 87540, Note_on_c, 4, 79, 110
6, 87599, Note_on_c, 4, 79, 0
6, 87600, Note_on_c, 4, 75, 110
6, 87659, Note_on_c, 4, 75, 0
6, 87660, Note_on_c, 4, 70, 110
6, 87719, Note_on_c, 4, 70, 0
6, 87720, Note_on_c, 4, 75, 110
6, 87779, Note_on_c, 4, 75, 0
6, 87780, Note_on_c, 4, 68, 110
6, 87839, Note_on_c, 4, 68, 0
6, 87840, Note_on_c, 4, 77, 110
6, 87899, Note_on_c, 4, 77, 0
6, 87900, Note_on_c, 4, 67, 110
6, 87929, Note_on_c, 4, 67, 0
6, 87930, Note_on_c, 4, 65, 110
6, 87959, Note_on_c, 4, 65, 0
6, 87960, Note_on_c, 4, 67, 110
6, 87989, Note_on_c, 4, 67, 0
6, 87990, Note_on_c, 4, 65, 110
6, 88019, Note_on_c, 4, 65, 0
6, 88020, Note_on_c, 4, 63, 110
6, 88049, Note_on_c, 4, 63, 0
6, 88050, Note_on_c, 4, 67, 110
6, 88079, Note_on_c, 4, 67, 0
6, 88080, Note_on_c, 4, 70, 110
6, 88109, Note_on_c, 4, 70, 0
6, 88110, Note_on_c, 4, 73, 110
6, 88139, Note_on_c, 4, 73, 0
6, 88140, Note_on_c, 4, 72, 110
6, 88169, Note_on_c, 4, 72, 0
6, 88170, Note_on_c, 4, 75, 110
6, 88199, Note_on_c, 4, 75, 0
6, 88200, Note_on_c, 4, 77, 110
6, 88229, Note_on_c, 4, 77, 0
6, 88230, Note_on_c, 4, 79, 110
6, 88259, Note_on_c, 4, 79, 0
6, 88260, Note_on_c, 4, 80, 110
6, 88289, Note_on_c, 4, 80, 0
6, 88290, Note_on_c, 4, 77, 110
6, 88319, Note_on_c, 4, 77, 0
6, 88320, Note_on_c, 4, 74, 110
6, 88349, Note_on_c, 4, 74, 0
6, 88350, Note_on_c, 4, 72, 110
6, 88379, Note_on_c, 4, 72, 0
6, 88380, Note_on_c, 4, 70, 110
6, 88409, Note_on_c, 4, 70, 0
6, 88410, Note_on_c, 4, 74, 110
6, 88439, Note_on_c, 4, 74, 0
6, 88440, Note_on_c, 4, 75, 110
6, 88469, Note_on_c, 4, 75, 0
6, 88470, Note_on_c, 4, 77, 110
6, 88499, Note_on_c, 4, 77, 0
6, 88500, Note_on_c, 4, 79, 110
6, 88529, Note_on_c, 4, 79, 0
6, 88530, Note_on_c, 4, 75, 110
6, 88559, Note_on_c, 4, 75, 0
6, 88560, Note_on_c, 4, 74, 110
6, 88589, Note_on_c, 4, 74, 0
6, 88590, Note_on_c, 4, 72, 110
6, 88619, Note_on_c, 4, 72, 0
6, 88620, Note_on_c, 4, 71, 110
6, 88649, Note_on_c, 4, 71, 0
6, 88650, Note_on_c, 4, 72, 110
6, 88679, Note_on_c, 4, 72, 0
6, 88680, Note_on_c, 4, 74, 110
6, 88709, Note_on_c, 4, 74, 0
6, 88710, Note_on_c, 4, 75, 110
6, 88739, Note_on_c, 4, 75, 0
6, 88740, Note_on_c, 4, 77, 110
6, 88769, Note_on_c, 4, 77, 0
6, 88770, Note_on_c, 4, 74, 110
6, 88799, Note_on_c, 4, 74, 0
6, 88800, Note_on_c, 4, 71, 110
6, 88829, Note_on_c, 4, 71, 0
6, 88830, Note_on_c, 4, 69, 110
6, 88859, Note_on_c, 4, 69, 0
6, 88860, Note_on_c, 4, 67, 110
6, 88889, Note_on_c, 4, 67, 0
6, 88890, Note_on_c, 4, 71, 110
6, 88919, Note_on_c, 4, 71, 0
6, 88920, Note_on_c, 4, 72, 110
6, 88949, Note_on_c, 4, 72, 0
6, 88950, Note_on_c, 4, 74, 110
6, 88979, Note_on_c, 4, 74, 0
6, 88980, Note_on_c, 4, 75, 110
6, 89009, Note_on_c, 4, 75, 0
6, 89010, Note_on_c, 4, 72, 110
6, 89039, Note_on_c, 4, 72, 0
6, 89040, Note_on_c, 4, 69, 110
6, 89069, Note_on_c, 4, 69, 0
6, 89070, Note_on_c, 4, 70, 110
6, 89099, Note_on_c, 4, 70, 0
6, 89100, Note_on_c, 4, 72, 110
6, 89129, Note_on_c, 4, 72, 0
6, 89130, Note_on_c, 4, 74, 110
6, 89159, Note_on_c, 4, 74, 0
6, 89160, Note_on_c, 4, 72, 110
6, 89189, Note_on_c, 4, 72, 0
6, 89190, Note_on_c, 4, 74, 110
6, 89219, Note_on_c, 4, 74, 0
6, 89220, Note_on_c, 4, 70, 110
6, 89249, Note_on_c, 4, 70, 0
6, 89250, Note_on_c, 4, 72, 110
6, 89279, Note_on_c, 4, 72, 0
6, 89280, Note_on_c, 4, 70, 110
6, 89309, Note_on_c, 4, 70, 0
6, 89310, Note_on_c, 4, 72, 110
6, 89339, Note_on_c, 4, 72, 0
6, 89340, Note_on_c, 4, 69, 110
6, 89369, Note_on_c, 4, 69, 0
6, 89370, Note_on_c, 4, 70, 110
6, 89399, Note_on_c, 4, 70, 0
6, 89400, Note_on_c, 4, 69, 110
6, 89429, Note_on_c, 4, 69, 0
6, 89430, Note_on_c, 4, 70, 110
6, 89459, Note_on_c, 4, 70, 0
6, 89460, Note_on_c, 4, 72, 110
6, 89489, Note_on_c, 4, 72, 0
6, 89490, Note_on_c, 4, 74, 110
6, 89519, Note_on_c, 4, 74, 0
6, 89520, Note_on_c, 4, 70, 110
6, 89549, Note_on_c, 4, 70, 0
6, 89550, Note_on_c, 4, 72, 110
6, 89579, Note_on_c, 4, 72, 0
6, 89580, Note_on_c, 4, 69, 110
6, 89609, Note_on_c, 4, 69, 0
6, 89610, Note_on_c, 4, 70, 110
6, 89639, Note_on_c, 4, 70, 0
6, 89640, Note_on_c, 4, 69, 110
6, 89669, Note_on_c, 4, 69, 0
6, 89670, Note_on_c, 4, 70, 110
6, 89699, Note_on_c, 4, 70, 0
6, 89700, Note_on_c, 4, 67, 110
6, 89729, Note_on_c, 4, 67, 0
6, 89730, Note_on_c, 4, 69, 110
6, 89759, Note_on_c, 4, 69, 0
6, 89760, Note_on_c, 4, 67, 110
6, 89789, Note_on_c, 4, 67, 0
6, 89790, Note_on_c, 4, 69, 110
6, 89819, Note_on_c, 4, 69, 0
6, 89820, Note_on_c, 4, 66, 110
6, 89849, Note_on_c, 4, 66, 0
6, 89850, Note_on_c, 4, 64, 110
6, 89879, Note_on_c, 4, 64, 0
6, 89880, Note_on_c, 4, 66, 110
6, 89909, Note_on_c, 4, 66, 0
6, 89910, Note_on_c, 4, 64, 110
6, 89939, Note_on_c, 4, 64, 0
6, 89940, Note_on_c, 4, 62, 110
6, 89999, Note_on_c, 4, 62, 0
6, 90000, Note_on_c, 4, 79, 110
6, 90059, Note_on_c, 4, 79, 0
6, 90060, Note_on_c, 4, 74, 110
6, 90119, Note_on_c, 4, 74, 0
6, 90120, Note_on_c, 4, 79, 110
6, 90179, Note_on_c, 4, 79, 0
6, 90180, Note_on_c, 4, 72, 110
6, 90239, Note_on_c, 4, 72, 0
6, 90240, Note_on_c, 4, 79, 110
6, 90299, Note_on_c, 4, 79, 0
6, 90300, Note_on_c, 4, 70, 110
6, 90329, Note_on_c, 4, 70, 0
6, 90330, Note_on_c, 4, 69, 110
6, 90359, Note_on_c, 4, 69, 0
6, 90360, Note_on_c, 4, 70, 110
6, 90389, Note_on_c, 4, 70, 0
6, 90390, Note_on_c, 4, 69, 110
6, 90419, Note_on_c, 4, 69, 0
6, 90420, Note_on_c, 4, 67, 110
6, 90479, Note_on_c, 4, 67, 0
6, 90480, Note_on_c, 4, 82, 110
6, 90539, Note_on_c, 4, 82, 0
6, 90540, Note_on_c, 4, 81, 110
6, 90599, Note_on_c, 4, 81, 0
6, 90600, Note_on_c, 4, 86, 110
6, 90719, Note_on_c, 4, 86, 0
6, 90720, Note_on_c, 4, 79, 110
6, 90779, Note_on_c, 4, 79, 0
6, 90780, Note_on_c, 4, 78, 110
6, 90809, Note_on_c, 4, 78, 0
6, 90810, Note_on_c, 4, 76, 110
6, 90839, Note_on_c, 4, 76, 0
6, 90840, Note_on_c, 4, 78, 110
6, 90869, Note_on_c, 4, 78, 0
6, 90870, Note_on_c, 4, 76, 110
6, 90899, Note_on_c, 4, 76, 0
6, 90900, Note_on_c, 4, 74, 110
6, 90929, Note_on_c, 4, 74, 0
6, 90930, Note_on_c, 4, 72, 110
6, 90959, Note_on_c, 4, 72, 0
6, 90960, Note_on_c, 4, 70, 110
6, 90989, Note_on_c, 4, 70, 0
6, 90990, Note_on_c, 4, 69, 110
6, 91019, Note_on_c, 4, 69, 0
6, 91020, Note_on_c, 4, 70, 110
6, 91049, Note_on_c, 4, 70, 0
6, 91050, Note_on_c, 4, 74, 110
6, 91079, Note_on_c, 4, 74, 0
6, 91080, Note_on_c, 4, 70, 110
6, 91109, Note_on_c, 4, 70, 0
6, 91110, Note_on_c, 4, 67, 110
6, 91139, Note_on_c, 4, 67, 0
6, 91140, Note_on_c, 4, 66, 110
6, 91169, Note_on_c, 4, 66, 0
6, 91170, Note_on_c, 4, 69, 110
6, 91199, Note_on_c, 4, 69, 0
6, 91200, Note_on_c, 4, 66, 110
6, 91229, Note_on_c, 4, 66, 0
6, 91230, Note_on_c, 4, 62, 110
6, 91259, Note_on_c, 4, 62, 0
6, 91260, Note_on_c, 4, 67, 110
6, 91289, Note_on_c, 4, 67, 0
6, 91290, Note_on_c, 4, 70, 110
6, 91319, Note_on_c, 4, 70, 0
6, 91320, Note_on_c, 4, 67, 110
6, 91349, Note_on_c, 4, 67, 0
6, 91350, Note_on_c, 4, 62, 110
6, 91379, Note_on_c, 4, 62, 0
6, 91380, Note_on_c, 4, 69, 110
6, 91409, Note_on_c, 4, 69, 0
6, 91410, Note_on_c, 4, 72, 110
6, 91439, Note_on_c, 4, 72, 0
6, 91440, Note_on_c, 4, 69, 110
6, 91469, Note_on_c, 4, 69, 0
6, 91470, Note_on_c, 4, 62, 110
6, 91499, Note_on_c, 4, 62, 0
6, 91500, Note_on_c, 4, 62, 110
6, 91559, Note_on_c, 4, 62, 0
6, 91560, Note_on_c, 4, 67, 110
6, 91619, Note_on_c, 4, 67, 0
6, 91620, Note_on_c, 4, 69, 110
6, 91649, Note_on_c, 4, 69, 0
6, 91650, Note_on_c, 4, 70, 110
6, 91679, Note_on_c, 4, 70, 0
6, 91680, Note_on_c, 4, 72, 110
6, 91709, Note_on_c, 4, 72, 0
6, 91710, Note_on_c, 4, 69, 110
6, 91739, Note_on_c, 4, 69, 0
6, 91740, Note_on_c, 4, 70, 110
6, 91769, Note_on_c, 4, 70, 0
6, 91770, Note_on_c, 4, 69, 110
6, 91799, Note_on_c, 4, 69, 0
6, 91800, Note_on_c, 4, 70, 110
6, 91829, Note_on_c, 4, 70, 0
6, 91830, Note_on_c, 4, 69, 110
6, 91859, Note_on_c, 4, 69, 0
6, 91860, Note_on_c, 4, 67, 110
6, 91889, Note_on_c, 4, 67, 0
6, 91890, Note_on_c, 4, 65, 110
6, 91919, Note_on_c, 4, 65, 0
6, 91920, Note_on_c, 4, 63, 110
6, 91949, Note_on_c, 4, 63, 0
6, 91950, Note_on_c, 4, 62, 110
6, 91979, Note_on_c, 4, 62, 0
6, 91980, Note_on_c, 4, 63, 110
6, 92009, Note_on_c, 4, 63, 0
6, 92010, Note_on_c, 4, 67, 110
6, 92039, Note_on_c, 4, 67, 0
6, 92040, Note_on_c, 4, 63, 110
6, 92069, Note_on_c, 4, 63, 0
6, 92070, Note_on_c, 4, 60, 110
6, 92099, Note_on_c, 4, 60, 0
6, 92100, Note_on_c, 4, 59, 110
6, 92129, Note_on_c, 4, 59, 0
6, 92130, Note_on_c, 4, 62, 110
6, 92159, Note_on_c, 4, 62, 0
6, 92160, Note_on_c, 4, 59, 110
6, 92189, Note_on_c, 4, 59, 0
6, 92190, Note_on_c, 4, 55, 110
6, 92219, Note_on_c, 4, 55, 0
6, 92220, Note_on_c, 4, 60, 110
6, 92249, Note_on_c, 4, 60, 0
6, 92250, Note_on_c, 4, 63, 110
6, 92279, Note_on_c, 4, 63, 0
6, 92280, Note_on_c, 4, 60, 110
6, 92309, Note_on_c, 4, 60, 0
6, 92310, Note_on_c, 4, 55, 110
6, 92339, Note_on_c, 4, 55, 0
6, 92340, Note_on_c, 4, 62, 110
6, 92369, Note_on_c, 4, 62, 0
6, 92370, Note_on_c, 4, 65, 110
6, 92399, Note_on_c, 4, 65, 0
6, 92400, Note_on_c, 4, 62, 110
6, 92429, Note_on_c, 4, 62, 0
6, 92430, Note_on_c, 4, 55, 110
6, 92459, Note_on_c, 4, 55, 0
6, 92460, Note_on_c, 4, 67, 110
6, 92519, Note_on_c, 4, 67, 0
6, 92520, Note_on_c, 4, 72, 110
6, 92579, Note_on_c, 4, 72, 0
6, 92580, Note_on_c, 4, 74, 110
6, 92609, Note_on_c, 4, 74, 0
6, 92610, Note_on_c, 4, 75, 110
6, 92639, Note_on_c, 4, 75, 0
6, 92640, Note_on_c, 4, 77, 110
6, 92669, Note_on_c, 4, 77, 0
6, 92670, Note_on_c, 4, 74, 110
6, 92699, Note_on_c, 4, 74, 0
6, 92700, Note_on_c, 4, 75, 110
6, 92729, Note_on_c, 4, 75, 0
6, 92730, Note_on_c, 4, 74, 110
6, 92759, Note_on_c, 4, 74, 0
6, 92760, Note_on_c, 4, 75, 110
6, 92789, Note_on_c, 4, 75, 0
6, 92790, Note_on_c, 4, 74, 110
6, 92819, Note_on_c, 4, 74, 0
6, 92820, Note_on_c, 4, 72, 110
6, 92849, Note_on_c, 4, 72, 0
6, 92850, Note_on_c, 4, 74, 110
6, 92879, Note_on_c, 4, 74, 0
6, 92880, Note_on_c, 4, 75, 110
6, 92909, Note_on_c, 4, 75, 0
6, 92910, Note_on_c, 4, 72, 110
6, 92939, Note_on_c, 4, 72, 0
6, 92940, Note_on_c, 4, 67, 110
6, 92969, Note_on_c, 4, 67, 0
6, 92970, Note_on_c, 4, 66, 110
6, 92999, Note_on_c, 4, 66, 0
6, 93000, Note_on_c, 4, 67, 110
6, 93029, Note_on_c, 4, 67, 0
6, 93030, Note_on_c, 4, 69, 110
6, 93059, Note_on_c, 4, 69, 0
6, 93060, Note_on_c, 4, 71, 110
6, 93089, Note_on_c, 4, 71, 0
6, 93090, Note_on_c, 4, 72, 110
6, 93119, Note_on_c, 4, 72, 0
6, 93120, Note_on_c, 4, 74, 110
6, 93149, Note_on_c, 4, 74, 0
6, 93150, Note_on_c, 4, 75, 110
6, 93179, Note_on_c, 4, 75, 0
6, 93180, Note_on_c, 4, 77, 110
6, 93209, Note_on_c, 4, 77, 0
6, 93210, Note_on_c, 4, 74, 110
6, 93239, Note_on_c, 4, 74, 0
6, 93240, Note_on_c, 4, 75, 110
6, 93269, Note_on_c, 4, 75, 0
6, 93270, Note_on_c, 4, 72, 110
6, 93299, Note_on_c, 4, 72, 0
6, 93300, Note_on_c, 4, 67, 110
6, 93329, Note_on_c, 4, 67, 0
6, 93330, Note_on_c, 4, 72, 110
6, 93359, Note_on_c, 4, 72, 0
6, 93360, Note_on_c, 4, 75, 110
6, 93389, Note_on_c, 4, 75, 0
6, 93390, Note_on_c, 4, 72, 110
6, 93419, Note_on_c, 4, 72, 0
6, 93420, Note_on_c, 4, 74, 110
6, 93479, Note_on_c, 4, 74, 0
6, 93480, Note_on_c, 4, 71, 110
6, 93509, Note_on_c, 4, 71, 0
6, 93510, Note_on_c, 4, 72, 110
6, 93539, Note_on_c, 4, 72, 0
6, 93540, Note_on_c, 4, 74, 110
6, 93599, Note_on_c, 4, 74, 0
6, 93600, Note_on_c, 4, 79, 110
6, 93719, Note_on_c, 4, 79, 0
6, 93720, Note_on_c, 4, 72, 110
6, 93779, Note_on_c, 4, 72, 0
6, 93780, Note_on_c, 4, 75, 110
6, 93839, Note_on_c, 4, 75, 0
6, 93840, Note_on_c, 4, 79, 110
6, 93899, Note_on_c, 4, 79, 0
6, 93900, Note_on_c, 4, 65, 110
6, 93929, Note_on_c, 4, 65, 0
6, 93930, Note_on_c, 4, 64, 110
6, 93959, Note_on_c, 4, 64, 0
6, 93960, Note_on_c, 4, 65, 110
6, 93989, Note_on_c, 4, 65, 0
6, 93990, Note_on_c, 4, 67, 110
6, 94019, Note_on_c, 4, 67, 0
6, 94020, Note_on_c, 4, 69, 110
6, 94049, Note_on_c, 4, 69, 0
6, 94050, Note_on_c, 4, 70, 110
6, 94079, Note_on_c, 4, 70, 0
6, 94080, Note_on_c, 4, 72, 110
6, 94109, Note_on_c, 4, 72, 0
6, 94110, Note_on_c, 4, 74, 110
6, 94139, Note_on_c, 4, 74, 0
6, 94140, Note_on_c, 4, 75, 110
6, 94169, Note_on_c, 4, 75, 0
6, 94170, Note_on_c, 4, 72, 110
6, 94199, Note_on_c, 4, 72, 0
6, 94200, Note_on_c, 4, 74, 110
6, 94229, Note_on_c, 4, 74, 0
6, 94230, Note_on_c, 4, 70, 110
6, 94259, Note_on_c, 4, 70, 0
6, 94260, Note_on_c, 4, 65, 110
6, 94289, Note_on_c, 4, 65, 0
6, 94290, Note_on_c, 4, 70, 110
6, 94319, Note_on_c, 4, 70, 0
6, 94320, Note_on_c, 4, 74, 110
6, 94349, Note_on_c, 4, 74, 0
6, 94350, Note_on_c, 4, 70, 110
6, 94379, Note_on_c, 4, 70, 0
6, 94380, Note_on_c, 4, 72, 110
6, 94439, Note_on_c, 4, 72, 0
6, 94440, Note_on_c, 4, 69, 110
6, 94469, Note_on_c, 4, 69, 0
6, 94470, Note_on_c, 4, 70, 110
6, 94499, Note_on_c, 4, 70, 0
6, 94500, Note_on_c, 4, 72, 110
6, 94559, Note_on_c, 4, 72, 0
6, 94560, Note_on_c, 4, 77, 110
6, 94679, Note_on_c, 4, 77, 0
6, 94680, Note_on_c, 4, 70, 110
6, 94739, Note_on_c, 4, 70, 0
6, 94740, Note_on_c, 4, 74, 110
6, 94799, Note_on_c, 4, 74, 0
6, 94800, Note_on_c, 4, 67, 110
6, 94859, Note_on_c, 4, 67, 0
6, 94860, Note_on_c, 4, 72, 110
6, 94979, Note_on_c, 4, 72, 0
6, 94980, Note_on_c, 4, 72, 110
6, 95099, Note_on_c, 4, 72, 0
6, 95100, Note_on_c, 4, 72, 110
6, 95219, Note_on_c, 4, 72, 0
6, 95250, Note_on_c, 4, 70, 110
6, 95279, Note_on_c, 4, 70, 0
6, 95280, Note_on_c, 4, 69, 110
6, 95309, Note_on_c, 4, 69, 0
6, 95310, Note_on_c, 4, 72, 110
6, 95339, Note_on_c, 4, 72, 0
6, 95340, Note_on_c, 4, 70, 110
6, 95369, Note_on_c, 4, 70, 0
6, 95370, Note_on_c, 4, 69, 110
6, 95399, Note_on_c, 4, 69, 0
6, 95400, Note_on_c, 4, 70, 110
6, 95489, Note_on_c, 4, 70, 0
6, 95490, Note_on_c, 4, 69, 110
6, 95519, Note_on_c, 4, 69, 0
6, 95520, Note_on_c, 4, 70, 110
6, 95609, Note_on_c, 4, 70, 0
6, 95610, Note_on_c, 4, 67, 110
6, 95639, Note_on_c, 4, 67, 0
6, 95640, Note_on_c, 4, 70, 110
6, 95759, Note_on_c, 4, 70, 0
6, 95760, Note_on_c, 4, 69, 110
6, 95789, Note_on_c, 4, 69, 0
6, 95790, Note_on_c, 4, 67, 110
6, 95819, Note_on_c, 4, 67, 0
6, 95820, Note_on_c, 4, 66, 110
6, 95879, Note_on_c, 4, 66, 0
6, 95880, Note_on_c, 4, 69, 110
6, 95939, Note_on_c, 4, 69, 0
6, 95940, Note_on_c, 4, 72, 110
6, 95999, Note_on_c, 4, 72, 0
6, 96000, Note_on_c, 4, 81, 110
6, 96059, Note_on_c, 4, 81, 0
6, 96060, Note_on_c, 4, 70, 110
6, 96089, Note_on_c, 4, 70, 0
6, 96090, Note_on_c, 4, 69, 110
6, 96119, Note_on_c, 4, 69, 0
6, 96120, Note_on_c, 4, 70, 110
6, 96149, Note_on_c, 4, 70, 0
6, 96150, Note_on_c, 4, 69, 110
6, 96179, Note_on_c, 4, 69, 0
6, 96180, Note_on_c, 4, 67, 110
6, 96209, Note_on_c, 4, 67, 0
6, 96210, Note_on_c, 4, 69, 110
6, 96239, Note_on_c, 4, 69, 0
6, 96240, Note_on_c, 4, 70, 110
6, 96269, Note_on_c, 4, 70, 0
6, 96270, Note_on_c, 4, 72, 110
6, 96299, Note_on_c, 4, 72, 0
6, 96300, Note_on_c, 4, 74, 110
6, 96359, Note_on_c, 4, 74, 0
6, 96360, Note_on_c, 4, 67, 110
6, 96419, Note_on_c, 4, 67, 0
6, 96420, Note_on_c, 4, 62, 110
6, 96479, Note_on_c, 4, 62, 0
6, 96480, Note_on_c, 4, 66, 110
6, 96539, Note_on_c, 4, 66, 0
6, 96540, Note_on_c, 4, 67, 110
6, 96569, Note_on_c, 4, 67, 0
6, 96570, Note_on_c, 4, 62, 110
6, 96599, Note_on_c, 4, 62, 0
6, 96600, Note_on_c, 4, 64, 110
6, 96629, Note_on_c, 4, 64, 0
6, 96630, Note_on_c, 4, 66, 110
6, 96659, Note_on_c, 4, 66, 0
6, 96660, Note_on_c, 4, 67, 110
6, 96689, Note_on_c, 4, 67, 0
6, 96690, Note_on_c, 4, 69, 110
6, 96719, Note_on_c, 4, 69, 0
6, 96720, Note_on_c, 4, 70, 110
6, 96749, Note_on_c, 4, 70, 0
6, 96750, Note_on_c, 4, 72, 110
6, 96779, Note_on_c, 4, 72, 0
6, 96780, Note_on_c, 4, 74, 110
6, 96800, Note_on_c, 4, 74, 0
6, 96800, Note_on_c, 4, 79, 110
6, 96820, Note_on_c, 4, 79, 0
6, 96820, Note_on_c, 4, 81, 110
6, 96840, Note_on_c, 4, 81, 0
6, 96840, Note_on_c, 4, 82, 110
6, 96860, Note_on_c, 4, 82, 0
6, 96860, Note_on_c, 4, 81, 110
6, 96880, Note_on_c, 4, 81, 0
6, 96880, Note_on_c, 4, 79, 110
6, 96900, Note_on_c, 4, 79, 0
6, 96900, Note_on_c, 4, 74, 110
6, 96920, Note_on_c, 4, 74, 0
6, 96920, Note_on_c, 4, 79, 110
6, 96940, Note_on_c, 4, 79, 0
6, 96940, Note_on_c, 4, 81, 110
6, 96960, Note_on_c, 4, 81, 0
6, 96960, Note_on_c, 4, 82, 110
6, 96980, Note_on_c, 4, 82, 0
6, 96980, Note_on_c, 4, 81, 110
6, 97000, Note_on_c, 4, 81, 0
6, 97000, Note_on_c, 4, 79, 110
6, 97020, Note_on_c, 4, 79, 0
6, 97020, Note_on_c, 4, 74, 110
6, 97040, Note_on_c, 4, 74, 0
6, 97040, Note_on_c, 4, 78, 110
6, 97060, Note_on_c, 4, 78, 0
6, 97060, Note_on_c, 4, 79, 110
6, 97080, Note_on_c, 4, 79, 0
6, 97080, Note_on_c, 4, 81, 110
6, 97100, Note_on_c, 4, 81, 0
6, 97100, Note_on_c, 4, 79, 110
6, 97120, Note_on_c, 4, 79, 0
6, 97120, Note_on_c, 4, 78, 110
6, 97140, Note_on_c, 4, 78, 0
6, 97140, Note_on_c, 4, 74, 110
6, 97160, Note_on_c, 4, 74, 0
6, 97160, Note_on_c, 4, 78, 110
6, 97180, Note_on_c, 4, 78, 0
6, 97180, Note_on_c, 4, 79, 110
6, 97200, Note_on_c, 4, 79, 0
6, 97200, Note_on_c, 4, 81, 110
6, 97220, Note_on_c, 4, 81, 0
6, 97220, Note_on_c, 4, 79, 110
6, 97240, Note_on_c, 4, 79, 0
6, 97240, Note_on_c, 4, 78, 110
6, 97260, Note_on_c, 4, 78, 0
6, 97260, Note_on_c, 4, 74, 110
6, 97280, Note_on_c, 4, 74, 0
6, 97280, Note_on_c, 4, 79, 110
6, 97300, Note_on_c, 4, 79, 0
6, 97300, Note_on_c, 4, 81, 110
6, 97320, Note_on_c, 4, 81, 0
6, 97320, Note_on_c, 4, 82, 110
6, 97340, Note_on_c, 4, 82, 0
6, 97340, Note_on_c, 4, 81, 110
6, 97360, Note_on_c, 4, 81, 0
6, 97360, Note_on_c, 4, 79, 110
6, 97380, Note_on_c, 4, 79, 0
6, 97380, Note_on_c, 4, 74, 110
6, 97400, Note_on_c, 4, 74, 0
6, 97400, Note_on_c, 4, 79, 110
6, 97420, Note_on_c, 4, 79, 0
6, 97420, Note_on_c, 4, 81, 110
6, 97440, Note_on_c, 4, 81, 0
6, 97440, Note_on_c, 4, 82, 110
6, 97460, Note_on_c, 4, 82, 0
6, 97460, Note_on_c, 4, 81, 110
6, 97480, Note_on_c, 4, 81, 0
6, 97480, Note_on_c, 4, 79, 110
6, 97500, Note_on_c, 4, 79, 0
6, 97500, Note_on_c, 4, 74, 110
6, 97520, Note_on_c, 4, 74, 0
6, 97520, Note_on_c, 4, 78, 110
6, 97540, Note_on_c, 4, 78, 0
6, 97540, Note_on_c, 4, 79, 110
6, 97560, Note_on_c, 4, 79, 0
6, 97560, Note_on_c, 4, 81, 110
6, 97580, Note_on_c, 4, 81, 0
6, 97580, Note_on_c, 4, 79, 110
6, 97600, Note_on_c, 4, 79, 0
6, 97600, Note_on_c, 4, 78, 110
6, 97620, Note_on_c, 4, 78, 0
6, 97620, Note_on_c, 4, 74, 110
6, 97640, Note_on_c, 4, 74, 0
6, 97640, Note_on_c, 4, 78, 110
6, 97660, Note_on_c, 4, 78, 0
6, 97660, Note_on_c, 4, 79, 110
6, 97680, Note_on_c, 4, 79, 0
6, 97680, Note_on_c, 4, 81, 110
6, 97700, Note_on_c, 4, 81, 0
6, 97700, Note_on_c, 4, 79, 110
6, 97720, Note_on_c, 4, 79, 0
6, 97720, Note_on_c, 4, 78, 110
6, 97740, Note_on_c, 4, 78, 0
6, 97740, Note_on_c, 4, 74, 110
6, 97760, Note_on_c, 4, 74, 0
6, 97760, Note_on_c, 4, 79, 110
6, 97780, Note_on_c, 4, 79, 0
6, 97780, Note_on_c, 4, 81, 110
6, 97800, Note_on_c, 4, 81, 0
6, 97800, Note_on_c, 4, 82, 110
6, 97820, Note_on_c, 4, 82, 0
6, 97820, Note_on_c, 4, 81, 110
6, 97840, Note_on_c, 4, 81, 0
6, 97840, Note_on_c, 4, 79, 110
6, 97860, Note_on_c, 4, 79, 0
6, 97860, Note_on_c, 4, 75, 110
6, 97880, Note_on_c, 4, 75, 0
6, 97880, Note_on_c, 4, 79, 110
6, 97900, Note_on_c, 4, 79, 0
6, 97900, Note_on_c, 4, 81, 110
6, 97920, Note_on_c, 4, 81, 0
6, 97920, Note_on_c, 4, 82, 110
6, 97940, Note_on_c, 4, 82, 0
6, 97940, Note_on_c, 4, 81, 110
6, 97960, Note_on_c, 4, 81, 0
6, 97960, Note_on_c, 4, 79, 110
6, 97980, Note_on_c, 4, 79, 0
6, 97980, Note_on_c, 4, 75, 110
6, 98000, Note_on_c, 4, 75, 0
6, 98000, Note_on_c, 4, 81, 110
6, 98020, Note_on_c, 4, 81, 0
6, 98020, Note_on_c, 4, 82, 110
6, 98040, Note_on_c, 4, 82, 0
6, 98040, Note_on_c, 4, 84, 110
6, 98060, Note_on_c, 4, 84, 0
6, 98060, Note_on_c, 4, 82, 110
6, 98080, Note_on_c, 4, 82, 0
6, 98080, Note_on_c, 4, 81, 110
6, 98100, Note_on_c, 4, 81, 0
6, 98100, Note_on_c, 4, 77, 110
6, 98120, Note_on_c, 4, 77, 0
6, 98120, Note_on_c, 4, 81, 110
6, 98140, Note_on_c, 4, 81, 0
6, 98140, Note_on_c, 4, 82, 110
6, 98160, Note_on_c, 4, 82, 0
6, 98160, Note_on_c, 4, 84, 110
6, 98180, Note_on_c, 4, 84, 0
6, 98180, Note_on_c, 4, 82, 110
6, 98200, Note_on_c, 4, 82, 0
6, 98200, Note_on_c, 4, 81, 110
6, 98220, Note_on_c, 4, 81, 0
6, 98220, Note_on_c, 4, 77, 110
6, 98240, Note_on_c, 4, 77, 0
6, 98240, Note_on_c, 4, 82, 110
6, 98260, Note_on_c, 4, 82, 0
6, 98260, Note_on_c, 4, 84, 110
6, 98280, Note_on_c, 4, 84, 0
6, 98280, Note_on_c, 4, 86, 110
6, 98300, Note_on_c, 4, 86, 0
6, 98300, Note_on_c, 4, 84, 110
6, 98320, Note_on_c, 4, 84, 0
6, 98320, Note_on_c, 4, 82, 110
6, 98340, Note_on_c, 4, 82, 0
6, 98340, Note_on_c, 4, 77, 110
6, 98360, Note_on_c, 4, 77, 0
6, 98360, Note_on_c, 4, 82, 110
6, 98380, Note_on_c, 4, 82, 0
6, 98380, Note_on_c, 4, 84, 110
6, 98400, Note_on_c, 4, 84, 0
6, 98400, Note_on_c, 4, 86, 110
6, 98420, Note_on_c, 4, 86, 0
6, 98420, Note_on_c, 4, 84, 110
6, 98440, Note_on_c, 4, 84, 0
6, 98440, Note_on_c, 4, 82, 110
6, 98460, Note_on_c, 4, 82, 0
6, 98460, Note_on_c, 4, 77, 110
6, 98480, Note_on_c, 4, 77, 0
6, 98480, Note_on_c, 4, 81, 110
6, 98500, Note_on_c, 4, 81, 0
6, 98500, Note_on_c, 4, 82, 110
6, 98520, Note_on_c, 4, 82, 0
6, 98520, Note_on_c, 4, 84, 110
6, 98540, Note_on_c, 4, 84, 0
6, 98540, Note_on_c, 4, 82, 110
6, 98560, Note_on_c, 4, 82, 0
6, 98560, Note_on_c, 4, 81, 110
6, 98580, Note_on_c, 4, 81, 0
6, 98580, Note_on_c, 4, 77, 110
6, 98600, Note_on_c, 4, 77, 0
6, 98600, Note_on_c, 4, 81, 110
6, 98620, Note_on_c, 4, 81, 0
6, 98620, Note_on_c, 4, 82, 110
6, 98640, Note_on_c, 4, 82, 0
6, 98640, Note_on_c, 4, 84, 110
6, 98660, Note_on_c, 4, 84, 0
6, 98660, Note_on_c, 4, 82, 110
6, 98680, Note_on_c, 4, 82, 0
6, 98680, Note_on_c, 4, 81, 110
6, 98700, Note_on_c, 4, 81, 0
6, 98700, Note_on_c, 4, 86, 110
6, 98729, Note_on_c, 4, 86, 0
6, 98730, Note_on_c, 4, 77, 110
6, 98759, Note_on_c, 4, 77, 0
6, 98760, Note_on_c, 4, 86, 110
6, 98789, Note_on_c, 4, 86, 0
6, 98790, Note_on_c, 4, 77, 110
6, 98819, Note_on_c, 4, 77, 0
6, 98820, Note_on_c, 4, 68, 110
6, 98849, Note_on_c, 4, 68, 0
6, 98850, Note_on_c, 4, 77, 110
6, 98879, Note_on_c, 4, 77, 0
6, 98880, Note_on_c, 4, 68, 110
6, 98909, Note_on_c, 4, 68, 0
6, 98910, Note_on_c, 4, 77, 110
6, 98939, Note_on_c, 4, 77, 0
6, 98940, Note_on_c, 4, 86, 110
6, 98969, Note_on_c, 4, 86, 0
6, 98970, Note_on_c, 4, 77, 110
6, 98999, Note_on_c, 4, 77, 0
6, 99000, Note_on_c, 4, 86, 110
6, 99029, Note_on_c, 4, 86, 0
6, 99030, Note_on_c, 4, 77, 110
6, 99059, Note_on_c, 4, 77, 0
6, 99060, Note_on_c, 4, 67, 110
6, 99089, Note_on_c, 4, 67, 0
6, 99090, Note_on_c, 4, 77, 110
6, 99119, Note_on_c, 4, 77, 0
6, 99120, Note_on_c, 4, 67, 110
6, 99149, Note_on_c, 4, 67, 0
6, 99150, Note_on_c, 4, 77, 110
6, 99179, Note_on_c, 4, 77, 0
6, 99180, Note_on_c, 4, 84, 110
6, 99209, Note_on_c, 4, 84, 0
6, 99210, Note_on_c, 4, 75, 110
6, 99239, Note_on_c, 4, 75, 0
6, 99240, Note_on_c, 4, 84, 110
6, 99269, Note_on_c, 4, 84, 0
6, 99270, Note_on_c, 4, 75, 110
6, 99299, Note_on_c, 4, 75, 0
6, 99300, Note_on_c, 4, 67, 110
6, 99329, Note_on_c, 4, 67, 0
6, 99330, Note_on_c, 4, 75, 110
6, 99359, Note_on_c, 4, 75, 0
6, 99360, Note_on_c, 4, 67, 110
6, 99389, Note_on_c, 4, 67, 0
6, 99390, Note_on_c, 4, 75, 110
6, 99419, Note_on_c, 4, 75, 0
6, 99420, Note_on_c, 4, 84, 110
6, 99449, Note_on_c, 4, 84, 0
6, 99450, Note_on_c, 4, 75, 110
6, 99479, Note_on_c, 4, 75, 0
6, 99480, Note_on_c, 4, 84, 110
6, 99509, Note_on_c, 4, 84, 0
6, 99510, Note_on_c, 4, 75, 110
6, 99539, Note_on_c, 4, 75, 0
6, 99540, Note_on_c, 4, 69, 110
6, 99569, Note_on_c, 4, 69, 0
6, 99570, Note_on_c, 4, 75, 110
6, 99599, Note_on_c, 4, 75, 0
6, 99600, Note_on_c, 4, 69, 110
6, 99629, Note_on_c, 4, 69, 0
6, 99630, Note_on_c, 4, 75, 110
6, 99659, Note_on_c, 4, 75, 0
6, 99660, Note_on_c, 4, 74, 110
6, 99679, Note_on_c, 4, 74, 0
6, 99680, Note_on_c, 4, 82, 110
6, 99699, Note_on_c, 4, 82, 0
6, 99700, Note_on_c, 4, 84, 110
6, 99719, Note_on_c, 4, 84, 0
6, 99720, Note_on_c, 4, 86, 110
6, 99739, Note_on_c, 4, 86, 0
6, 99740, Note_on_c, 4, 84, 110
6, 99759, Note_on_c, 4, 84, 0
6, 99760, Note_on_c, 4, 82, 110
6, 99779, Note_on_c, 4, 82, 0
6, 99780, Note_on_c, 4, 77, 110
6, 99810, Note_on_c, 4, 77, 0
6, 99810, Note_on_c, 4, 82, 110
6, 99839, Note_on_c, 4, 82, 0
6, 99840, Note_on_c, 4, 74, 110
6, 99869, Note_on_c, 4, 74, 0
6, 99870, Note_on_c, 4, 82, 110
6, 99899, Note_on_c, 4, 82, 0
6, 99900, Note_on_c, 4, 76, 110
6, 99919, Note_on_c, 4, 76, 0
6, 99920, Note_on_c, 4, 82, 110
6, 99939, Note_on_c, 4, 82, 0
6, 99940, Note_on_c, 4, 84, 110
6, 99959, Note_on_c, 4, 84, 0
6, 99960, Note_on_c, 4, 85, 110
6, 99979, Note_on_c, 4, 85, 0
6, 99980, Note_on_c, 4, 84, 110
6, 99999, Note_on_c, 4, 84, 0
6, 100000, Note_on_c, 4, 82, 110
6, 100019, Note_on_c, 4, 82, 0
6, 100020, Note_on_c, 4, 76, 110
6, 100049, Note_on_c, 4, 76, 0
6, 100050, Note_on_c, 4, 85, 110
6, 100079, Note_on_c, 4, 85, 0
6, 100080, Note_on_c, 4, 84, 110
6, 100109, Note_on_c, 4, 84, 0
6, 100110, Note_on_c, 4, 82, 110
6, 100139, Note_on_c, 4, 82, 0
6, 100140, Note_on_c, 4, 80, 110
6, 100159, Note_on_c, 4, 80, 0
6, 100160, Note_on_c, 4, 77, 110
6, 100179, Note_on_c, 4, 77, 0
6, 100180, Note_on_c, 4, 79, 110
6, 100199, Note_on_c, 4, 79, 0
6, 100200, Note_on_c, 4, 80, 110
6, 100219, Note_on_c, 4, 80, 0
6, 100220, Note_on_c, 4, 79, 110
6, 100239, Note_on_c, 4, 79, 0
6, 100240, Note_on_c, 4, 77, 110
6, 100259, Note_on_c, 4, 77, 0
6, 100260, Note_on_c, 4, 85, 110
6, 100289, Note_on_c, 4, 85, 0
6, 100290, Note_on_c, 4, 76, 110
6, 100319, Note_on_c, 4, 76, 0
6, 100320, Note_on_c, 4, 79, 110
6, 100349, Note_on_c, 4, 79, 0
6, 100350, Note_on_c, 4, 71, 110
6, 100379, Note_on_c, 4, 71, 0
6, 100380, Note_on_c, 4, 72, 110
6, 100409, Note_on_c, 4, 72, 0
6, 100410, Note_on_c, 4, 76, 110
6, 100439, Note_on_c, 4, 76, 0
6, 100440, Note_on_c, 4, 79, 110
6, 100469, Note_on_c, 4, 79, 0
6, 100470, Note_on_c, 4, 82, 110
6, 100499, Note_on_c, 4, 82, 0
6, 100500, Note_on_c, 4, 80, 110
6, 100589, Note_on_c, 4, 80, 0
6, 100590, Note_on_c, 4, 79, 110
6, 100619, Note_on_c, 4, 79, 0
6, 100620, Note_on_c, 4, 80, 110
6, 100649, Note_on_c, 4, 80, 0
6, 100650, Note_on_c, 4, 82, 110
6, 100679, Note_on_c, 4, 82, 0
6, 100680, Note_on_c, 4, 80, 110
6, 100709, Note_on_c, 4, 80, 0
6, 100710, Note_on_c, 4, 82, 110
6, 100739, Note_on_c, 4, 82, 0
6, 100740, Note_on_c, 4, 79, 110
6, 100769, Note_on_c, 4, 79, 0
6, 100770, Note_on_c, 4, 80, 110
6, 100799, Note_on_c, 4, 80, 0
6, 100800, Note_on_c, 4, 79, 110
6, 100829, Note_on_c, 4, 79, 0
6, 100830, Note_on_c, 4, 80, 110
6, 100859, Note_on_c, 4, 80, 0
6, 100860, Note_on_c, 4, 77, 110
6, 100919, Note_on_c, 4, 77, 0
6, 100920, Note_on_c, 4, 72, 110
6, 100979, Note_on_c, 4, 72, 0
6, 100980, Note_on_c, 4, 65, 110
6, 101039, Note_on_c, 4, 65, 0
6, 101040, Note_on_c, 4, 80, 110
6, 101099, Note_on_c, 4, 80, 0
6, 101100, Note_on_c, 4, 79, 110
6, 101159, Note_on_c, 4, 79, 0
6, 101160, Note_on_c, 4, 84, 110
6, 101279, Note_on_c, 4, 84, 0
6, 101280, Note_on_c, 4, 77, 110
6, 101339, Note_on_c, 4, 77, 0
6, 101340, Note_on_c, 4, 76, 110
6, 101369, Note_on_c, 4, 76, 0
6, 101370, Note_on_c, 4, 74, 110
6, 101399, Note_on_c, 4, 74, 0
6, 101400, Note_on_c, 4, 76, 110
6, 101429, Note_on_c, 4, 76, 0
6, 101430, Note_on_c, 4, 74, 110
6, 101459, Note_on_c, 4, 74, 0
6, 101460, Note_on_c, 4, 72, 110
6, 101519, Note_on_c, 4, 72, 0
6, 101520, Note_on_c, 4, 79, 110
6, 101579, Note_on_c, 4, 79, 0
6, 101580, Note_on_c, 4, 80, 110
6, 101609, Note_on_c, 4, 80, 0
6, 101610, Note_on_c, 4, 82, 110
6, 101639, Note_on_c, 4, 82, 0
6, 101640, Note_on_c, 4, 80, 110
6, 101669, Note_on_c, 4, 80, 0
6, 101670, Note_on_c, 4, 82, 110
6, 101699, Note_on_c, 4, 82, 0
6, 101700, Note_on_c, 4, 79, 110
6, 101729, Note_on_c, 4, 79, 0
6, 101730, Note_on_c, 4, 80, 110
6, 101759, Note_on_c, 4, 80, 0
6, 101760, Note_on_c, 4, 79, 110
6, 101789, Note_on_c, 4, 79, 0
6, 101790, Note_on_c, 4, 80, 110
6, 101819, Note_on_c, 4, 80, 0
6, 101820, Note_on_c, 4, 77, 110
6, 101849, Note_on_c, 4, 77, 0
6, 101850, Note_on_c, 4, 79, 110
6, 101879, Note_on_c, 4, 79, 0
6, 101880, Note_on_c, 4, 77, 110
6, 101909, Note_on_c, 4, 77, 0
6, 101910, Note_on_c, 4, 79, 110
6, 101939, Note_on_c, 4, 79, 0
6, 101940, Note_on_c, 4, 75, 110
6, 101969, Note_on_c, 4, 75, 0
6, 101970, Note_on_c, 4, 77, 110
6, 101999, Note_on_c, 4, 77, 0
6, 102000, Note_on_c, 4, 75, 110
6, 102029, Note_on_c, 4, 75, 0
6, 102030, Note_on_c, 4, 77, 110
6, 102059, Note_on_c, 4, 77, 0
6, 102060, Note_on_c, 4, 74, 110
6, 102089, Note_on_c, 4, 74, 0
6, 102090, Note_on_c, 4, 75, 110
6, 102119, Note_on_c, 4, 75, 0
6, 102120, Note_on_c, 4, 74, 110
6, 102149, Note_on_c, 4, 74, 0
6, 102150, Note_on_c, 4, 75, 110
6, 102179, Note_on_c, 4, 75, 0
6, 102180, Note_on_c, 4, 77, 110
6, 102209, Note_on_c, 4, 77, 0
6, 102210, Note_on_c, 4, 79, 110
6, 102239, Note_on_c, 4, 79, 0
6, 102240, Note_on_c, 4, 77, 110
6, 102269, Note_on_c, 4, 77, 0
6, 102270, Note_on_c, 4, 79, 110
6, 102299, Note_on_c, 4, 79, 0
6, 102300, Note_on_c, 4, 70, 110
6, 102329, Note_on_c, 4, 70, 0
6, 102330, Note_on_c, 4, 72, 110
6, 102359, Note_on_c, 4, 72, 0
6, 102360, Note_on_c, 4, 70, 110
6, 102389, Note_on_c, 4, 70, 0
6, 102390, Note_on_c, 4, 72, 110
6, 102419, Note_on_c, 4, 72, 0
6, 102420, Note_on_c, 4, 74, 110
6, 102479, Note_on_c, 4, 74, 0
6, 102480, Note_on_c, 4, 70, 110
6, 102539, Note_on_c, 4, 70, 0
6, 102540, Note_on_c, 4, 79, 110
6, 103500, Note_on_c, 4, 79, 0
6, 103500, Note_on_c, 4, 77, 110
6, 103529, Note_on_c, 4, 77, 0
6, 103530, Note_on_c, 4, 79, 110
6, 103559, Note_on_c, 4, 79, 0
6, 103560, Note_on_c, 4, 77, 110
6, 103589, Note_on_c, 4, 77, 0
6, 103590, Note_on_c, 4, 79, 110
6, 103619, Note_on_c, 4, 79, 0
6, 103620, Note_on_c, 4, 75, 110
6, 103649, Note_on_c, 4, 75, 0
6, 103650, Note_on_c, 4, 77, 110
6, 103679, Note_on_c, 4, 77, 0
6, 103680, Note_on_c, 4, 75, 110
6, 103709, Note_on_c, 4, 75, 0
6, 103710, Note_on_c, 4, 77, 110
6, 103739, Note_on_c, 4, 77, 0
6, 103740, Note_on_c, 4, 74, 110
6, 103769, Note_on_c, 4, 74, 0
6, 103770, Note_on_c, 4, 75, 110
6, 103799, Note_on_c, 4, 75, 0
6, 103800, Note_on_c, 4, 74, 110
6, 103829, Note_on_c, 4, 74, 0
6, 103830, Note_on_c, 4, 75, 110
6, 103859, Note_on_c, 4, 75, 0
6, 103860, Note_on_c, 4, 72, 110
6, 103889, Note_on_c, 4, 72, 0
6, 103890, Note_on_c, 4, 74, 110
6, 103919, Note_on_c, 4, 74, 0
6, 103920, Note_on_c, 4, 72, 110
6, 103949, Note_on_c, 4, 72, 0
6, 103950, Note_on_c, 4, 74, 110
6, 103979, Note_on_c, 4, 74, 0
6, 103980, Note_on_c, 4, 71, 110
6, 104009, Note_on_c, 4, 71, 0
6, 104010, Note_on_c, 4, 72, 110
6, 104039, Note_on_c, 4, 72, 0
6, 104040, Note_on_c, 4, 71, 110
6, 104069, Note_on_c, 4, 71, 0
6, 104070, Note_on_c, 4, 72, 110
6, 104099, Note_on_c, 4, 72, 0
6, 104100, Note_on_c, 4, 74, 110
6, 104129, Note_on_c, 4, 74, 0
6, 104130, Note_on_c, 4, 75, 110
6, 104159, Note_on_c, 4, 75, 0
6, 104160, Note_on_c, 4, 74, 110
6, 104189, Note_on_c, 4, 74, 0
6, 104190, Note_on_c, 4, 75, 110
6, 104219, Note_on_c, 4, 75, 0
6, 104220, Note_on_c, 4, 67, 110
6, 104249, Note_on_c, 4, 67, 0
6, 104250, Note_on_c, 4, 69, 110
6, 104279, Note_on_c, 4, 69, 0
6, 104280, Note_on_c, 4, 67, 110
6, 104309, Note_on_c, 4, 67, 0
6, 104310, Note_on_c, 4, 69, 110
6, 104339, Note_on_c, 4, 69, 0
6, 104340, Note_on_c, 4, 71, 110
6, 104399, Note_on_c, 4, 71, 0
6, 104400, Note_on_c, 4, 74, 110
6, 104459, Note_on_c, 4, 74, 0
6, 104460, Note_on_c, 4, 67, 110
6, 104519, Note_on_c, 4, 67, 0
6, 104520, Note_on_c, 4, 72, 110
6, 104579, Note_on_c, 4, 72, 0
6, 104580, Note_on_c, 4, 65, 110
6, 104639, Note_on_c, 4, 65, 0
6, 104640, Note_on_c, 4, 74, 110
6, 104699, Note_on_c, 4, 74, 0
6, 104700, Note_on_c, 4, 63, 110
6, 104729, Note_on_c, 4, 63, 0
6, 104730, Note_on_c, 4, 62, 110
6, 104759, Note_on_c, 4, 62, 0
6, 104760, Note_on_c, 4, 63, 110
6, 104789, Note_on_c, 4, 63, 0
6, 104790, Note_on_c, 4, 62, 110
6, 104819, Note_on_c, 4, 62, 0
6, 104820, Note_on_c, 4, 60, 110
6, 104999, Note_on_c, 4, 60, 0
6, 105000, Note_on_c, 4, 72, 110
6, 105119, Note_on_c, 4, 72, 0
6, 105120, Note_on_c, 4, 71, 110
6, 105179, Note_on_c, 4, 71, 0
6, 105180, Note_on_c, 4, 72, 110
6, 105209, Note_on_c, 4, 72, 0
6, 105210, Note_on_c, 4, 74, 110
6, 105239, Note_on_c, 4, 74, 0
6, 105240, Note_on_c, 4, 72, 110
6, 105269, Note_on_c, 4, 72, 0
6, 105270, Note_on_c, 4, 74, 110
6, 105299, Note_on_c, 4, 74, 0
6, 105300, Note_on_c, 4, 75, 110
6, 105359, Note_on_c, 4, 75, 0
6, 105360, Note_on_c, 4, 74, 110
6, 105389, Note_on_c, 4, 74, 0
6, 105390, Note_on_c, 4, 72, 110
6, 105419, Note_on_c, 4, 72, 0
6, 105420, Note_on_c, 4, 70, 110
6, 105479, Note_on_c, 4, 70, 0
6, 105480, Note_on_c, 4, 75, 110
6, 105539, Note_on_c, 4, 75, 0
6, 105540, Note_on_c, 4, 68, 110
6, 105599, Note_on_c, 4, 68, 0
6, 105600, Note_on_c, 4, 77, 110
6, 105659, Note_on_c, 4, 77, 0
6, 105660, Note_on_c, 4, 67, 110
6, 105689, Note_on_c, 4, 67, 0
6, 105690, Note_on_c, 4, 65, 110
6, 105719, Note_on_c, 4, 65, 0
6, 105720, Note_on_c, 4, 67, 110
6, 105749, Note_on_c, 4, 67, 0
6, 105750, Note_on_c, 4, 65, 110
6, 105779, Note_on_c, 4, 65, 0
6, 105780, Note_on_c, 4, 63, 110
6, 105959, Note_on_c, 4, 63, 0
6, 105960, Note_on_c, 4, 75, 110
6, 106079, Note_on_c, 4, 75, 0
6, 106080, Note_on_c, 4, 74, 110
6, 106139, Note_on_c, 4, 74, 0
6, 106140, Note_on_c, 4, 75, 110
6, 106259, Note_on_c, 4, 75, 0
6, 106320, Note_on_c, 4, 75, 110
6, 106379, Note_on_c, 4, 75, 0
6, 106380, Note_on_c, 4, 63, 110
6, 106409, Note_on_c, 4, 63, 0
6, 106410, Note_on_c, 4, 62, 110
6, 106439, Note_on_c, 4, 62, 0
6, 106440, Note_on_c, 4, 63, 110
6, 106469, Note_on_c, 4, 63, 0
6, 106470, Note_on_c, 4, 65, 110
6, 106499, Note_on_c, 4, 65, 0
6, 106500, Note_on_c, 4, 67, 110
6, 106529, Note_on_c, 4, 67, 0
6, 106530, Note_on_c, 4, 68, 110
6, 106559, Note_on_c, 4, 68, 0
6, 106560, Note_on_c, 4, 70, 110
6, 106589, Note_on_c, 4, 70, 0
6, 106590, Note_on_c, 4, 72, 110
6, 106619, Note_on_c, 4, 72, 0
6, 106620, Note_on_c, 4, 73, 110
6, 106649, Note_on_c, 4, 73, 0
6, 106650, Note_on_c, 4, 70, 110
6, 106679, Note_on_c, 4, 70, 0
6, 106680, Note_on_c, 4, 72, 110
6, 106709, Note_on_c, 4, 72, 0
6, 106710, Note_on_c, 4, 68, 110
6, 106739, Note_on_c, 4, 68, 0
6, 106740, Note_on_c, 4, 63, 110
6, 106769, Note_on_c, 4, 63, 0
6, 106770, Note_on_c, 4, 68, 110
6, 106799, Note_on_c, 4, 68, 0
6, 106800, Note_on_c, 4, 72, 110
6, 106829, Note_on_c, 4, 72, 0
6, 106830, Note_on_c, 4, 68, 110
6, 106859, Note_on_c, 4, 68, 0
6, 106860, Note_on_c, 4, 70, 110
6, 106919, Note_on_c, 4, 70, 0
6, 106920, Note_on_c, 4, 67, 110
6, 106949, Note_on_c, 4, 67, 0
6, 106950, Note_on_c, 4, 68, 110
6, 106979, Note_on_c, 4, 68, 0
6, 106980, Note_on_c, 4, 70, 110
6, 107039, Note_on_c, 4, 70, 0
6, 107040, Note_on_c, 4, 75, 110
6, 107159, Note_on_c, 4, 75, 0
6, 107160, Note_on_c, 4, 68, 110
6, 107219, Note_on_c, 4, 68, 0
6, 107220, Note_on_c, 4, 72, 110
6, 107279, Note_on_c, 4, 72, 0
6, 107280, Note_on_c, 4, 75, 110
6, 107339, Note_on_c, 4, 75, 0
6, 107340, Note_on_c, 4, 65, 110
6, 107369, Note_on_c, 4, 65, 0
6, 107370, Note_on_c, 4, 64, 110
6, 107399, Note_on_c, 4, 64, 0
6, 107400, Note_on_c, 4, 65, 110
6, 107429, Note_on_c, 4, 65, 0
6, 107430, Note_on_c, 4, 67, 110
6, 107459, Note_on_c, 4, 67, 0
6, 107460, Note_on_c, 4, 69, 110
6, 107489, Note_on_c, 4, 69, 0
6, 107490, Note_on_c, 4, 70, 110
6, 107519, Note_on_c, 4, 70, 0
6, 107520, Note_on_c, 4, 72, 110
6, 107549, Note_on_c, 4, 72, 0
6, 107550, Note_on_c, 4, 74, 110
6, 107579, Note_on_c, 4, 74, 0
6, 107580, Note_on_c, 4, 75, 110
6, 107609, Note_on_c, 4, 75, 0
6, 107610, Note_on_c, 4, 72, 110
6, 107639, Note_on_c, 4, 72, 0
6, 107640, Note_on_c, 4, 74, 110
6, 107669, Note_on_c, 4, 74, 0
6, 107670, Note_on_c, 4, 70, 110
6, 107699, Note_on_c, 4, 70, 0
6, 107700, Note_on_c, 4, 65, 110
6, 107729, Note_on_c, 4, 65, 0
6, 107730, Note_on_c, 4, 70, 110
6, 107759, Note_on_c, 4, 70, 0
6, 107760, Note_on_c, 4, 74, 110
6, 107789, Note_on_c, 4, 74, 0
6, 107790, Note_on_c, 4, 70, 110
6, 107819, Note_on_c, 4, 70, 0
6, 107820, Note_on_c, 4, 72, 110
6, 107879, Note_on_c, 4, 72, 0
6, 107880, Note_on_c, 4, 69, 110
6, 107909, Note_on_c, 4, 69, 0
6, 107910, Note_on_c, 4, 70, 110
6, 107939, Note_on_c, 4, 70, 0
6, 107940, Note_on_c, 4, 72, 110
6, 107999, Note_on_c, 4, 72, 0
6, 108000, Note_on_c, 4, 77, 110
6, 108119, Note_on_c, 4, 77, 0
6, 108120, Note_on_c, 4, 70, 110
6, 108179, Note_on_c, 4, 70, 0
6, 108180, Note_on_c, 4, 74, 110
6, 108239, Note_on_c, 4, 74, 0
6, 108240, Note_on_c, 4, 77, 110
6, 108299, Note_on_c, 4, 77, 0
6, 108300, Note_on_c, 4, 67, 110
6, 108329, Note_on_c, 4, 67, 0
6, 108330, Note_on_c, 4, 66, 110
6, 108359, Note_on_c, 4, 66, 0
6, 108360, Note_on_c, 4, 67, 110
6, 108389, Note_on_c, 4, 67, 0
6, 108390, Note_on_c, 4, 69, 110
6, 108419, Note_on_c, 4, 69, 0
6, 108420, Note_on_c, 4, 71, 110
6, 108449, Note_on_c, 4, 71, 0
6, 108450, Note_on_c, 4, 72, 110
6, 108479, Note_on_c, 4, 72, 0
6, 108480, Note_on_c, 4, 74, 110
6, 108509, Note_on_c, 4, 74, 0
6, 108510, Note_on_c, 4, 75, 110
6, 108539, Note_on_c, 4, 75, 0
6, 108540, Note_on_c, 4, 77, 110
6, 108569, Note_on_c, 4, 77, 0
6, 108570, Note_on_c, 4, 74, 110
6, 108599, Note_on_c, 4, 74, 0
6, 108600, Note_on_c, 4, 75, 110
6, 108629, Note_on_c, 4, 75, 0
6, 108630, Note_on_c, 4, 72, 110
6, 108659, Note_on_c, 4, 72, 0
6, 108660, Note_on_c, 4, 67, 110
6, 108689, Note_on_c, 4, 67, 0
6, 108690, Note_on_c, 4, 72, 110
6, 108719, Note_on_c, 4, 72, 0
6, 108720, Note_on_c, 4, 75, 110
6, 108749, Note_on_c, 4, 75, 0
6, 108750, Note_on_c, 4, 72, 110
6, 108779, Note_on_c, 4, 72, 0
6, 108780, Note_on_c, 4, 74, 110
6, 108839, Note_on_c, 4, 74, 0
6, 108840, Note_on_c, 4, 71, 110
6, 108869, Note_on_c, 4, 71, 0
6, 108870, Note_on_c, 4, 72, 110
6, 108899, Note_on_c, 4, 72, 0
6, 108900, Note_on_c, 4, 74, 110
6, 108959, Note_on_c, 4, 74, 0
6, 108960, Note_on_c, 4, 79, 110
6, 109079, Note_on_c, 4, 79, 0
6, 109080, Note_on_c, 4, 72, 110
6, 109139, Note_on_c, 4, 72, 0
6, 109140, Note_on_c, 4, 75, 110
6, 109199, Note_on_c, 4, 75, 0
6, 109200, Note_on_c, 4, 79, 110
6, 109259, Note_on_c, 4, 79, 0
6, 109260, Note_on_c, 4, 77, 110
6, 109379, Note_on_c, 4, 77, 0
6, 109380, Note_on_c, 4, 77, 110
6, 109499, Note_on_c, 4, 77, 0
6, 109500, Note_on_c, 4, 77, 110
6, 109619, Note_on_c, 4, 77, 0
6, 109650, Note_on_c, 4, 75, 110
6, 109679, Note_on_c, 4, 75, 0
6, 109680, Note_on_c, 4, 74, 110
6, 109709, Note_on_c, 4, 74, 0
6, 109710, Note_on_c, 4, 77, 110
6, 109739, Note_on_c, 4, 77, 0
6, 109740, Note_on_c, 4, 75, 110
6, 109769, Note_on_c, 4, 75, 0
6, 109770, Note_on_c, 4, 74, 110
6, 109799, Note_on_c, 4, 74, 0
6, 109800, Note_on_c, 4, 75, 110
6, 109889, Note_on_c, 4, 75, 0
6, 109890, Note_on_c, 4, 74, 110
6, 109919, Note_on_c, 4, 74, 0
6, 109920, Note_on_c, 4, 75, 110
6, 110009, Note_on_c, 4, 75, 0
6, 110010, Note_on_c, 4, 72, 110
6, 110039, Note_on_c, 4, 72, 0
6, 110040, Note_on_c, 4, 75, 110
6, 110159, Note_on_c, 4, 75, 0
6, 110160, Note_on_c, 4, 74, 110
6, 110189, Note_on_c, 4, 74, 0
6, 110190, Note_on_c, 4, 72, 110
6, 110219, Note_on_c, 4, 72, 0
6, 110220, Note_on_c, 4, 71, 110
6, 110239, Note_on_c, 4, 71, 0
6, 110240, Note_on_c, 4, 62, 110
6, 110259, Note_on_c, 4, 62, 0
6, 110260, Note_on_c, 4, 63, 110
6, 110279, Note_on_c, 4, 63, 0
6, 110280, Note_on_c, 4, 65, 110
6, 110299, Note_on_c, 4, 65, 0
6, 110300, Note_on_c, 4, 63, 110
6, 110319, Note_on_c, 4, 63, 0
6, 110320, Note_on_c, 4, 62, 110
6, 110339, Note_on_c, 4, 62, 0
6, 110340, Note_on_c, 4, 55, 110
6, 110359, Note_on_c, 4, 55, 0
6, 110360, Note_on_c, 4, 62, 110
6, 110379, Note_on_c, 4, 62, 0
6, 110380, Note_on_c, 4, 63, 110
6, 110399, Note_on_c, 4, 63, 0
6, 110400, Note_on_c, 4, 65, 110
6, 110419, Note_on_c, 4, 65, 0
6, 110420, Note_on_c, 4, 63, 110
6, 110439, Note_on_c, 4, 63, 0
6, 110440, Note_on_c, 4, 62, 110
6, 110459, Note_on_c, 4, 62, 0
6, 110460, Note_on_c, 4, 71, 110
6, 110479, Note_on_c, 4, 71, 0
6, 110480, Note_on_c, 4, 62, 110
6, 110499, Note_on_c, 4, 62, 0
6, 110500, Note_on_c, 4, 63, 110
6, 110519, Note_on_c, 4, 63, 0
6, 110520, Note_on_c, 4, 65, 110
6, 110539, Note_on_c, 4, 65, 0
6, 110540, Note_on_c, 4, 63, 110
6, 110559, Note_on_c, 4, 63, 0
6, 110560, Note_on_c, 4, 62, 110
6, 110579, Note_on_c, 4, 62, 0
6, 110580, Note_on_c, 4, 55, 110
6, 110599, Note_on_c, 4, 55, 0
6, 110600, Note_on_c, 4, 62, 110
6, 110619, Note_on_c, 4, 62, 0
6, 110620, Note_on_c, 4, 63, 110
6, 110639, Note_on_c, 4, 63, 0
6, 110640, Note_on_c, 4, 65, 110
6, 110659, Note_on_c, 4, 65, 0
6, 110660, Note_on_c, 4, 63, 110
6, 110679, Note_on_c, 4, 63, 0
6, 110680, Note_on_c, 4, 62, 110
6, 110699, Note_on_c, 4, 62, 0
6, 110700, Note_on_c, 4, 72, 110
6, 110719, Note_on_c, 4, 72, 0
6, 110720, Note_on_c, 4, 63, 110
6, 110739, Note_on_c, 4, 63, 0
6, 110740, Note_on_c, 4, 65, 110
6, 110759, Note_on_c, 4, 65, 0
6, 110760, Note_on_c, 4, 67, 110
6, 110779, Note_on_c, 4, 67, 0
6, 110780, Note_on_c, 4, 65, 110
6, 110799, Note_on_c, 4, 65, 0
6, 110800, Note_on_c, 4, 63, 110
6, 110819, Note_on_c, 4, 63, 0
6, 110820, Note_on_c, 4, 55, 110
6, 110839, Note_on_c, 4, 55, 0
6, 110840, Note_on_c, 4, 63, 110
6, 110859, Note_on_c, 4, 63, 0
6, 110860, Note_on_c, 4, 65, 110
6, 110879, Note_on_c, 4, 65, 0
6, 110880, Note_on_c, 4, 67, 110
6, 110899, Note_on_c, 4, 67, 0
6, 110900, Note_on_c, 4, 65, 110
6, 110919, Note_on_c, 4, 65, 0
6, 110920, Note_on_c, 4, 63, 110
6, 110939, Note_on_c, 4, 63, 0
6, 110940, Note_on_c, 4, 72, 110
6, 110959, Note_on_c, 4, 72, 0
6, 110960, Note_on_c, 4, 63, 110
6, 110979, Note_on_c, 4, 63, 0
6, 110980, Note_on_c, 4, 65, 110
6, 110999, Note_on_c, 4, 65, 0
6, 111000, Note_on_c, 4, 67, 110
6, 111019, Note_on_c, 4, 67, 0
6, 111020, Note_on_c, 4, 65, 110
6, 111039, Note_on_c, 4, 65, 0
6, 111040, Note_on_c, 4, 63, 110
6, 111059, Note_on_c, 4, 63, 0
6, 111060, Note_on_c, 4, 55, 110
6, 111079, Note_on_c, 4, 55, 0
6, 111080, Note_on_c, 4, 63, 110
6, 111099, Note_on_c, 4, 63, 0
6, 111100, Note_on_c, 4, 65, 110
6, 111119, Note_on_c, 4, 65, 0
6, 111120, Note_on_c, 4, 67, 110
6, 111139, Note_on_c, 4, 67, 0
6, 111140, Note_on_c, 4, 65, 110
6, 111159, Note_on_c, 4, 65, 0
6, 111160, Note_on_c, 4, 63, 110
6, 111179, Note_on_c, 4, 63, 0
6, 111180, Note_on_c, 4, 74, 110
6, 111199, Note_on_c, 4, 74, 0
6, 111200, Note_on_c, 4, 65, 110
6, 111219, Note_on_c, 4, 65, 0
6, 111220, Note_on_c, 4, 67, 110
6, 111239, Note_on_c, 4, 67, 0
6, 111240, Note_on_c, 4, 68, 110
6, 111259, Note_on_c, 4, 68, 0
6, 111260, Note_on_c, 4, 67, 110
6, 111279, Note_on_c, 4, 67, 0
6, 111280, Note_on_c, 4, 65, 110
6, 111299, Note_on_c, 4, 65, 0
6, 111300, Note_on_c, 4, 55, 110
6, 111319, Note_on_c, 4, 55, 0
6, 111320, Note_on_c, 4, 65, 110
6, 111339, Note_on_c, 4, 65, 0
6, 111340, Note_on_c, 4, 67, 110
6, 111359, Note_on_c, 4, 67, 0
6, 111360, Note_on_c, 4, 68, 110
6, 111379, Note_on_c, 4, 68, 0
6, 111380, Note_on_c, 4, 65, 110
6, 111399, Note_on_c, 4, 65, 0
6, 111400, Note_on_c, 4, 65, 110
6, 111419, Note_on_c, 4, 65, 0
6, 111420, Note_on_c, 4, 74, 110
6, 111439, Note_on_c, 4, 74, 0
6, 111440, Note_on_c, 4, 65, 110
6, 111459, Note_on_c, 4, 65, 0
6, 111460, Note_on_c, 4, 67, 110
6, 111479, Note_on_c, 4, 67, 0
6, 111480, Note_on_c, 4, 68, 110
6, 111499, Note_on_c, 4, 68, 0
6, 111500, Note_on_c, 4, 67, 110
6, 111519, Note_on_c, 4, 67, 0
6, 111520, Note_on_c, 4, 65, 110
6, 111539, Note_on_c, 4, 65, 0
6, 111540, Note_on_c, 4, 55, 110
6, 111559, Note_on_c, 4, 55, 0
6, 111560, Note_on_c, 4, 65, 110
6, 111579, Note_on_c, 4, 65, 0
6, 111580, Note_on_c, 4, 67, 110
6, 111599, Note_on_c, 4, 67, 0
6, 111600, Note_on_c, 4, 68, 110
6, 111619, Note_on_c, 4, 68, 0
6, 111620, Note_on_c, 4, 67, 110
6, 111639, Note_on_c, 4, 67, 0
6, 111640, Note_on_c, 4, 65, 110
6, 111659, Note_on_c, 4, 65, 0
6, 111660, Note_on_c, 4, 74, 110
6, 111679, Note_on_c, 4, 74, 0
6, 111680, Note_on_c, 4, 63, 110
6, 111699, Note_on_c, 4, 63, 0
6, 111700, Note_on_c, 4, 65, 110
6, 111719, Note_on_c, 4, 65, 0
6, 111720, Note_on_c, 4, 67, 110
6, 111739, Note_on_c, 4, 67, 0
6, 111740, Note_on_c, 4, 65, 110
6, 111759, Note_on_c, 4, 65, 0
6, 111760, Note_on_c, 4, 63, 110
6, 111779, Note_on_c, 4, 63, 0
6, 111780, Note_on_c, 4, 55, 110
6, 111799, Note_on_c, 4, 55, 0
6, 111800, Note_on_c, 4, 63, 110
6, 111819, Note_on_c, 4, 63, 0
6, 111820, Note_on_c, 4, 65, 110
6, 111839, Note_on_c, 4, 65, 0
6, 111840, Note_on_c, 4, 67, 110
6, 111859, Note_on_c, 4, 67, 0
6, 111860, Note_on_c, 4, 65, 110
6, 111879, Note_on_c, 4, 65, 0
6, 111880, Note_on_c, 4, 63, 110
6, 111899, Note_on_c, 4, 63, 0
6, 111900, Note_on_c, 4, 72, 110
6, 111919, Note_on_c, 4, 72, 0
6, 111920, Note_on_c, 4, 63, 110
6, 111939, Note_on_c, 4, 63, 0
6, 111940, Note_on_c, 4, 65, 110
6, 111959, Note_on_c, 4, 65, 0
6, 111960, Note_on_c, 4, 67, 110
6, 111979, Note_on_c, 4, 67, 0
6, 111980, Note_on_c, 4, 65, 110
6, 111999, Note_on_c, 4, 65, 0
6, 112000, Note_on_c, 4, 63, 110
6, 112019, Note_on_c, 4, 63, 0
6, 112020, Note_on_c, 4, 55, 110
6, 112039, Note_on_c, 4, 55, 0
6, 112040, Note_on_c, 4, 63, 110
6, 112059, Note_on_c, 4, 63, 0
6, 112060, Note_on_c, 4, 65, 110
6, 112079, Note_on_c, 4, 65, 0
6, 112080, Note_on_c, 4, 67, 110
6, 112099, Note_on_c, 4, 67, 0
6, 112100, Note_on_c, 4, 65, 110
6, 112119, Note_on_c, 4, 65, 0
6, 112120, Note_on_c, 4, 63, 110
6, 112139, Note_on_c, 4, 63, 0
6, 112140, Note_on_c, 4, 72, 110
6, 112159, Note_on_c, 4, 72, 0
6, 112160, Note_on_c, 4, 62, 110
6, 112179, Note_on_c, 4, 62, 0
6, 112180, Note_on_c, 4, 63, 110
6, 112199, Note_on_c, 4, 63, 0
6, 112200, Note_on_c, 4, 65, 110
6, 112219, Note_on_c, 4, 65, 0
6, 112220, Note_on_c, 4, 63, 110
6, 112239, Note_on_c, 4, 63, 0
6, 112240, Note_on_c, 4, 62, 110
6, 112259, Note_on_c, 4, 62, 0
6, 112260, Note_on_c, 4, 55, 110
6, 112279, Note_on_c, 4, 55, 0
6, 112280, Note_on_c, 4, 62, 110
6, 112299, Note_on_c, 4, 62, 0
6, 112300, Note_on_c, 4, 63, 110
6, 112319, Note_on_c, 4, 63, 0
6, 112320, Note_on_c, 4, 65, 110
6, 112339, Note_on_c, 4, 65, 0
6, 112340, Note_on_c, 4, 63, 110
6, 112359, Note_on_c, 4, 63, 0
6, 112360, Note_on_c, 4, 62, 110
6, 112379, Note_on_c, 4, 62, 0
6, 112380, Note_on_c, 4, 71, 110
6, 112399, Note_on_c, 4, 71, 0
6, 112400, Note_on_c, 4, 62, 110
6, 112419, Note_on_c, 4, 62, 0
6, 112420, Note_on_c, 4, 63, 110
6, 112439, Note_on_c, 4, 63, 0
6, 112440, Note_on_c, 4, 65, 110
6, 112459, Note_on_c, 4, 65, 0
6, 112460, Note_on_c, 4, 63, 110
6, 112479, Note_on_c, 4, 63, 0
6, 112480, Note_on_c, 4, 62, 110
6, 112499, Note_on_c, 4, 62, 0
6, 112500, Note_on_c, 4, 55, 110
6, 112519, Note_on_c, 4, 55, 0
6, 112520, Note_on_c, 4, 62, 110
6, 112539, Note_on_c, 4, 62, 0
6, 112540, Note_on_c, 4, 63, 110
6, 112559, Note_on_c, 4, 63, 0
6, 112560, Note_on_c, 4, 65, 110
6, 112579, Note_on_c, 4, 65, 0
6, 112580, Note_on_c, 4, 63, 110
6, 112599, Note_on_c, 4, 63, 0
6, 112600, Note_on_c, 4, 62, 110
6, 112619, Note_on_c, 4, 62, 0
6, 112620, Note_on_c, 4, 63, 110
6, 112679, Note_on_c, 4, 63, 0
6, 112680, Note_on_c, 4, 72, 110
6, 112739, Note_on_c, 4, 72, 0
6, 112740, Note_on_c, 4, 65, 110
6, 112799, Note_on_c, 4, 65, 0
6, 112800, Note_on_c, 4, 72, 110
6, 112859, Note_on_c, 4, 72, 0
6, 112860, Note_on_c, 4, 63, 110
6, 112889, Note_on_c, 4, 63, 0
6, 112890, Note_on_c, 4, 62, 110
6, 112919, Note_on_c, 4, 62, 0
6, 112920, Note_on_c, 4, 63, 110
6, 112949, Note_on_c, 4, 63, 0
6, 112950, Note_on_c, 4, 62, 110
6, 112979, Note_on_c, 4, 62, 0
6, 112980, Note_on_c, 4, 60, 110
6, 113039, Note_on_c, 4, 60, 0
6, 113040, Note_on_c, 4, 75, 110
6, 113099, Note_on_c, 4, 75, 0
6, 113100, Note_on_c, 4, 74, 110
6, 113159, Note_on_c, 4, 74, 0
6, 113160, Note_on_c, 4, 79, 110
6, 113279, Note_on_c, 4, 79, 0
6, 113280, Note_on_c, 4, 72, 110
6, 113339, Note_on_c, 4, 72, 0
6, 113340, Note_on_c, 4, 71, 110
6, 113369, Note_on_c, 4, 71, 0
6, 113370, Note_on_c, 4, 69, 110
6, 113399, Note_on_c, 4, 69, 0
6, 113400, Note_on_c, 4, 71, 110
6, 113429, Note_on_c, 4, 71, 0
6, 113430, Note_on_c, 4, 69, 110
6, 113459, Note_on_c, 4, 69, 0
6, 113460, Note_on_c, 4, 67, 110
6, 113489, Note_on_c, 4, 67, 0
6, 113490, Note_on_c, 4, 65, 110
6, 113519, Note_on_c, 4, 65, 0
6, 113520, Note_on_c, 4, 63, 110
6, 113549, Note_on_c, 4, 63, 0
6, 113550, Note_on_c, 4, 62, 110
6, 113579, Note_on_c, 4, 62, 0
6, 113580, Note_on_c, 4, 63, 110
6, 113609, Note_on_c, 4, 63, 0
6, 113610, Note_on_c, 4, 67, 110
6, 113639, Note_on_c, 4, 67, 0
6, 113640, Note_on_c, 4, 63, 110
6, 113669, Note_on_c, 4, 63, 0
6, 113670, Note_on_c, 4, 60, 110
6, 113699, Note_on_c, 4, 60, 0
6, 113700, Note_on_c, 4, 59, 110
6, 113729, Note_on_c, 4, 59, 0
6, 113730, Note_on_c, 4, 62, 110
6, 113759, Note_on_c, 4, 62, 0
6, 113760, Note_on_c, 4, 59, 110
6, 113789, Note_on_c, 4, 59, 0
6, 113790, Note_on_c, 4, 55, 110
6, 113819, Note_on_c, 4, 55, 0
6, 113820, Note_on_c, 4, 60, 110
6, 113849, Note_on_c, 4, 60, 0
6, 113850, Note_on_c, 4, 63, 110
6, 113879, Note_on_c, 4, 63, 0
6, 113880, Note_on_c, 4, 60, 110
6, 113909, Note_on_c, 4, 60, 0
6, 113910, Note_on_c, 4, 55, 110
6, 113939, Note_on_c, 4, 55, 0
6, 113940, Note_on_c, 4, 62, 110
6, 113969, Note_on_c, 4, 62, 0
6, 113970, Note_on_c, 4, 65, 110
6, 113999, Note_on_c, 4, 65, 0
6, 114000, Note_on_c, 4, 62, 110
6, 114029, Note_on_c, 4, 62, 0
6, 114030, Note_on_c, 4, 55, 110
6, 114059, Note_on_c, 4, 55, 0
6, 114060, Note_on_c, 4, 67, 110
6, 114089, Note_on_c, 4, 67, 0
6, 114090, Note_on_c, 4, 74, 110
6, 114119, Note_on_c, 4, 74, 0
6, 114120, Note_on_c, 4, 75, 110
6, 114149, Note_on_c, 4, 75, 0
6, 114150, Note_on_c, 4, 72, 110
6, 114179, Note_on_c, 4, 72, 0
6, 114180, Note_on_c, 4, 74, 110
6, 114209, Note_on_c, 4, 74, 0
6, 114210, Note_on_c, 4, 75, 110
6, 114239, Note_on_c, 4, 75, 0
6, 114240, Note_on_c, 4, 77, 110
6, 114269, Note_on_c, 4, 77, 0
6, 114270, Note_on_c, 4, 71, 110
6, 114299, Note_on_c, 4, 71, 0
6, 114300, Note_on_c, 4, 72, 110
6, 114419, Note_on_c, 4, 72, 0
6, 114450, Note_on_c, 4, 74, 110
6, 114479, Note_on_c, 4, 74, 0
6, 114480, Note_on_c, 4, 70, 110
6, 114509, Note_on_c, 4, 70, 0
6, 114510, Note_on_c, 4, 72, 110
6, 114539, Note_on_c, 4, 72, 0
6, 114540, Note_on_c, 4, 68, 110
6, 114569, Note_on_c, 4, 68, 0
6, 114570, Note_on_c, 4, 72, 110
6, 114599, Note_on_c, 4, 72, 0
6, 114600, Note_on_c, 4, 68, 110
6, 114629, Note_on_c, 4, 68, 0
6, 114630, Note_on_c, 4, 65, 110
6, 114659, Note_on_c, 4, 65, 0
6, 114660, Note_on_c, 4, 64, 110
6, 114689, Note_on_c, 4, 64, 0
6, 114690, Note_on_c, 4, 67, 110
6, 114719, Note_on_c, 4, 67, 0
6, 114720, Note_on_c, 4, 64, 110
6, 114749, Note_on_c, 4, 64, 0
6, 114750, Note_on_c, 4, 60, 110
6, 114779, Note_on_c, 4, 60, 0
6, 114780, Note_on_c, 4, 65, 110
6, 114809, Note_on_c, 4, 65, 0
6, 114810, Note_on_c, 4, 68, 110
6, 114839, Note_on_c, 4, 68, 0
6, 114840, Note_on_c, 4, 65, 110
6, 114869, Note_on_c, 4, 65, 0
6, 114870, Note_on_c, 4, 60, 110
6, 114899, Note_on_c, 4, 60, 0
6, 114900, Note_on_c, 4, 67, 110
6, 114929, Note_on_c, 4, 67, 0
6, 114930, Note_on_c, 4, 70, 110
6, 114959, Note_on_c, 4, 70, 0
6, 114960, Note_on_c, 4, 67, 110
6, 114989, Note_on_c, 4, 67, 0
6, 114990, Note_on_c, 4, 60, 110
6, 115019, Note_on_c, 4, 60, 0
6, 115020, Note_on_c, 4, 72, 110
6, 115049, Note_on_c, 4, 72, 0
6, 115050, Note_on_c, 4, 79, 110
6, 115079, Note_on_c, 4, 79, 0
6, 115080, Note_on_c, 4, 80, 110
6, 115109, Note_on_c, 4, 80, 0
6, 115110, Note_on_c, 4, 77, 110
6, 115139, Note_on_c, 4, 77, 0
6, 115140, Note_on_c, 4, 79, 110
6, 115169, Note_on_c, 4, 79, 0
6, 115170, Note_on_c, 4, 80, 110
6, 115199, Note_on_c, 4, 80, 0
6, 115200, Note_on_c, 4, 82, 110
6, 115229, Note_on_c, 4, 82, 0
6, 115230, Note_on_c, 4, 76, 110
6, 115259, Note_on_c, 4, 76, 0
6, 115260, Note_on_c, 4, 77, 110
6, 115289, Note_on_c, 4, 77, 0
6, 115290, Note_on_c, 4, 79, 110
6, 115319, Note_on_c, 4, 79, 0
6, 115320, Note_on_c, 4, 80, 110
6, 115349, Note_on_c, 4, 80, 0
6, 115350, Note_on_c, 4, 82, 110
6, 115379, Note_on_c, 4, 82, 0
6, 115380, Note_on_c, 4, 80, 110
6, 115409, Note_on_c, 4, 80, 0
6, 115410, Note_on_c, 4, 79, 110
6, 115439, Note_on_c, 4, 79, 0
6, 115440, Note_on_c, 4, 77, 110
6, 115469, Note_on_c, 4, 77, 0
6, 115470, Note_on_c, 4, 75, 110
6, 115499, Note_on_c, 4, 75, 0
6, 115500, Note_on_c, 4, 73, 110
6, 115529, Note_on_c, 4, 73, 0
6, 115530, Note_on_c, 4, 77, 110
6, 115559, Note_on_c, 4, 77, 0
6, 115560, Note_on_c, 4, 82, 110
6, 115589, Note_on_c, 4, 82, 0
6, 115590, Note_on_c, 4, 84, 110
6, 115619, Note_on_c, 4, 84, 0
6, 115620, Note_on_c, 4, 85, 110
6, 115649, Note_on_c, 4, 85, 0
6, 115650, Note_on_c, 4, 82, 110
6, 115679, Note_on_c, 4, 82, 0
6, 115680, Note_on_c, 4, 79, 110
6, 115709, Note_on_c, 4, 79, 0
6, 115710, Note_on_c, 4, 77, 110
6, 115739, Note_on_c, 4, 77, 0
6, 115740, Note_on_c, 4, 75, 110
6, 115769, Note_on_c, 4, 75, 0
6, 115770, Note_on_c, 4, 79, 110
6, 115799, Note_on_c, 4, 79, 0
6, 115800, Note_on_c, 4, 80, 110
6, 115829, Note_on_c, 4, 80, 0
6, 115830, Note_on_c, 4, 82, 110
6, 115859, Note_on_c, 4, 82, 0
6, 115860, Note_on_c, 4, 84, 110
6, 115889, Note_on_c, 4, 84, 0
6, 115890, Note_on_c, 4, 80, 110
6, 115919, Note_on_c, 4, 80, 0
6, 115920, Note_on_c, 4, 79, 110
6, 115949, Note_on_c, 4, 79, 0
6, 115950, Note_on_c, 4, 77, 110
6, 115979, Note_on_c, 4, 77, 0
6, 115980, Note_on_c, 4, 76, 110
6, 116009, Note_on_c, 4, 76, 0
6, 116010, Note_on_c, 4, 77, 110
6, 116039, Note_on_c, 4, 77, 0
6, 116040, Note_on_c, 4, 79, 110
6, 116069, Note_on_c, 4, 79, 0
6, 116070, Note_on_c, 4, 80, 110
6, 116099, Note_on_c, 4, 80, 0
6, 116100, Note_on_c, 4, 82, 110
6, 116129, Note_on_c, 4, 82, 0
6, 116130, Note_on_c, 4, 79, 110
6, 116159, Note_on_c, 4, 79, 0
6, 116160, Note_on_c, 4, 76, 110
6, 116189, Note_on_c, 4, 76, 0
6, 116190, Note_on_c, 4, 74, 110
6, 116219, Note_on_c, 4, 74, 0
6, 116220, Note_on_c, 4, 72, 110
6, 116249, Note_on_c, 4, 72, 0
6, 116250, Note_on_c, 4, 76, 110
6, 116279, Note_on_c, 4, 76, 0
6, 116280, Note_on_c, 4, 77, 110
6, 116309, Note_on_c, 4, 77, 0
6, 116310, Note_on_c, 4, 79, 110
6, 116339, Note_on_c, 4, 79, 0
6, 116340, Note_on_c, 4, 80, 110
6, 116369, Note_on_c, 4, 80, 0
6, 116370, Note_on_c, 4, 77, 110
6, 116399, Note_on_c, 4, 77, 0
6, 116400, Note_on_c, 4, 74, 110
6, 116429, Note_on_c, 4, 74, 0
6, 116430, Note_on_c, 4, 75, 110
6, 116459, Note_on_c, 4, 75, 0
6, 116460, Note_on_c, 4, 77, 110
6, 116489, Note_on_c, 4, 77, 0
6, 116490, Note_on_c, 4, 79, 110
6, 116519, Note_on_c, 4, 79, 0
6, 116520, Note_on_c, 4, 77, 110
6, 116549, Note_on_c, 4, 77, 0
6, 116550, Note_on_c, 4, 79, 110
6, 116579, Note_on_c, 4, 79, 0
6, 116580, Note_on_c, 4, 75, 110
6, 116609, Note_on_c, 4, 75, 0
6, 116610, Note_on_c, 4, 77, 110
6, 116639, Note_on_c, 4, 77, 0
6, 116640, Note_on_c, 4, 75, 110
6, 116669, Note_on_c, 4, 75, 0
6, 116670, Note_on_c, 4, 77, 110
6, 116699, Note_on_c, 4, 77, 0
6, 116700, Note_on_c, 4, 74, 110
6, 116729, Note_on_c, 4, 74, 0
6, 116730, Note_on_c, 4, 75, 110
6, 116759, Note_on_c, 4, 75, 0
6, 116760, Note_on_c, 4, 74, 110
6, 116789, Note_on_c, 4, 74, 0
6, 116790, Note_on_c, 4, 75, 110
6, 116819, Note_on_c, 4, 75, 0
6, 116820, Note_on_c, 4, 77, 110
6, 116849, Note_on_c, 4, 77, 0
6, 116850, Note_on_c, 4, 79, 110
6, 116879, Note_on_c, 4, 79, 0
6, 116880, Note_on_c, 4, 75, 110
6, 116909, Note_on_c, 4, 75, 0
6, 116910, Note_on_c, 4, 77, 110
6, 116939, Note_on_c, 4, 77, 0
6, 116940, Note_on_c, 4, 74, 110
6, 116969, Note_on_c, 4, 74, 0
6, 116970, Note_on_c, 4, 75, 110
6, 116999, Note_on_c, 4, 75, 0
6, 117000, Note_on_c, 4, 74, 110
6, 117029, Note_on_c, 4, 74, 0
6, 117030, Note_on_c, 4, 75, 110
6, 117059, Note_on_c, 4, 75, 0
6, 117060, Note_on_c, 4, 72, 110
6, 117089, Note_on_c, 4, 72, 0
6, 117090, Note_on_c, 4, 74, 110
6, 117119, Note_on_c, 4, 74, 0
6, 117120, Note_on_c, 4, 72, 110
6, 117149, Note_on_c, 4, 72, 0
6, 117150, Note_on_c, 4, 74, 110
6, 117179, Note_on_c, 4, 74, 0
6, 117180, Note_on_c, 4, 71, 110
6, 117209, Note_on_c, 4, 71, 0
6, 117210, Note_on_c, 4, 69, 110
6, 117239, Note_on_c, 4, 69, 0
6, 117240, Note_on_c, 4, 71, 110
6, 117269, Note_on_c, 4, 71, 0
6, 117270, Note_on_c, 4, 69, 110
6, 117299, Note_on_c, 4, 69, 0
6, 117300, Note_on_c, 4, 67, 110
6, 117359, Note_on_c, 4, 67, 0
6, 117360, Note_on_c, 4, 72, 110
6, 117419, Note_on_c, 4, 72, 0
6, 117420, Note_on_c, 4, 67, 110
6, 117479, Note_on_c, 4, 67, 0
6, 117480, Note_on_c, 4, 72, 110
6, 117539, Note_on_c, 4, 72, 0
6, 117540, Note_on_c, 4, 65, 110
6, 117599, Note_on_c, 4, 65, 0
6, 117600, Note_on_c, 4, 72, 110
6, 117659, Note_on_c, 4, 72, 0
6, 117660, Note_on_c, 4, 63, 110
6, 117689, Note_on_c, 4, 63, 0
6, 117690, Note_on_c, 4, 55, 110
6, 117719, Note_on_c, 4, 55, 0
6, 117720, Note_on_c, 4, 60, 110
6, 117749, Note_on_c, 4, 60, 0
6, 117750, Note_on_c, 4, 62, 110
6, 117779, Note_on_c, 4, 62, 0
6, 117780, Note_on_c, 4, 63, 110
6, 117809, Note_on_c, 4, 63, 0
6, 117810, Note_on_c, 4, 67, 110
6, 117839, Note_on_c, 4, 67, 0
6, 117840, Note_on_c, 4, 72, 110
6, 117869, Note_on_c, 4, 72, 0
6, 117870, Note_on_c, 4, 75, 110
6, 117899, Note_on_c, 4, 75, 0
6, 117900, Note_on_c, 4, 74, 110
6, 117959, Note_on_c, 4, 74, 0
6, 117960, Note_on_c, 4, 79, 110
6, 118079, Note_on_c, 4, 79, 0
6, 118080, Note_on_c, 4, 72, 110
6, 118139, Note_on_c, 4, 72, 0
6, 118140, Note_on_c, 4, 71, 110
6, 118169, Note_on_c, 4, 71, 0
6, 118170, Note_on_c, 4, 69, 110
6, 118199, Note_on_c, 4, 69, 0
6, 118200, Note_on_c, 4, 71, 110
6, 118229, Note_on_c, 4, 71, 0
6, 118230, Note_on_c, 4, 69, 110
6, 118259, Note_on_c, 4, 69, 0
6, 118260, Note_on_c, 4, 67, 110
6, 118289, Note_on_c, 4, 67, 0
6, 118290, Note_on_c, 4, 69, 110
6, 118319, Note_on_c, 4, 69, 0
6, 118320, Note_on_c, 4, 71, 110
6, 118349, Note_on_c, 4, 71, 0
6, 118350, Note_on_c, 4, 67, 110
6, 118379, Note_on_c, 4, 67, 0
6, 118380, Note_on_c, 4, 72, 110
6, 118439, Note_on_c, 4, 72, 0
6, 118440, Note_on_c, 4, 67, 110
6, 118499, Note_on_c, 4, 67, 0
6, 118500, Note_on_c, 4, 74, 110
6, 118559, Note_on_c, 4, 74, 0
6, 118560, Note_on_c, 4, 67, 110
6, 118619, Note_on_c, 4, 67, 0
6, 118620, Note_on_c, 4, 67, 120
6, 118620, Note_on_c, 4, 72, 120
6, 118620, Note_on_c, 4, 77, 110
6, 118679, Note_on_c, 4, 77, 0
6, 118680, Note_on_c, 4, 75, 110
6, 118740, Note_on_c, 4, 72, 0
6, 118740, Note_on_c, 4, 67, 0
6, 118769, Note_on_c, 4, 75, 0
6, 118770, Note_on_c, 4, 72, 110
6, 118799, Note_on_c, 4, 72, 0
6, 118800, Note_on_c, 4, 74, 110
6, 118829, Note_on_c, 4, 74, 0
6, 118830, Note_on_c, 4, 76, 110
6, 118859, Note_on_c, 4, 76, 0
6, 118860, Note_on_c, 4, 77, 110
6, 118919, Note_on_c, 4, 77, 0
6, 118920, Note_on_c, 4, 72, 110
6, 118979, Note_on_c, 4, 72, 0
6, 118980, Note_on_c, 4, 79, 110
6, 119039, Note_on_c, 4, 79, 0
6, 119040, Note_on_c, 4, 72, 110
6, 119099, Note_on_c, 4, 72, 0
6, 119100, Note_on_c, 4, 72, 120
6, 119100, Note_on_c, 4, 77, 120
6, 119100, Note_on_c, 4, 82, 110
6, 119159, Note_on_c, 4, 82, 0
6, 119160, Note_on_c, 4, 80, 110
6, 119220, Note_on_c, 4, 77, 0
6, 119220, Note_on_c, 4, 72, 0
6, 119249, Note_on_c, 4, 80, 0
6, 119250, Note_on_c, 4, 79, 110
6, 119279, Note_on_c, 4, 79, 0
6, 119280, Note_on_c, 4, 80, 110
6, 119309, Note_on_c, 4, 80, 0
6, 119310, Note_on_c, 4, 77, 110
6, 119339, Note_on_c, 4, 77, 0
6, 119340, Note_on_c, 4, 72, 110
6, 119369, Note_on_c, 4, 72, 0
6, 119370, Note_on_c, 4, 71, 110
6, 119399, Note_on_c, 4, 71, 0
6, 119400, Note_on_c, 4, 72, 110
6, 119429, Note_on_c, 4, 72, 0
6, 119430, Note_on_c, 4, 74, 110
6, 119459, Note_on_c, 4, 74, 0
6, 119460, Note_on_c, 4, 76, 110
6, 119489, Note_on_c, 4, 76, 0
6, 119490, Note_on_c, 4, 77, 110
6, 119519, Note_on_c, 4, 77, 0
6, 119520, Note_on_c, 4, 79, 110
6, 119549, Note_on_c, 4, 79, 0
6, 119550, Note_on_c, 4, 80, 110
6, 119579, Note_on_c, 4, 80, 0
6, 119580, Note_on_c, 4, 82, 110
6, 119609, Note_on_c, 4, 82, 0
6, 119610, Note_on_c, 4, 79, 110
6, 119639, Note_on_c, 4, 79, 0
6, 119640, Note_on_c, 4, 80, 110
6, 119669, Note_on_c, 4, 80, 0
6, 119670, Note_on_c, 4, 77, 110
6, 119699, Note_on_c, 4, 77, 0
6, 119700, Note_on_c, 4, 72, 110
6, 119729, Note_on_c, 4, 72, 0
6, 119730, Note_on_c, 4, 77, 110
6, 119759, Note_on_c, 4, 77, 0
6, 119760, Note_on_c, 4, 80, 110
6, 119789, Note_on_c, 4, 80, 0
6, 119790, Note_on_c, 4, 77, 110
6, 119819, Note_on_c, 4, 77, 0
6, 119820, Note_on_c, 4, 72, 110
6, 119849, Note_on_c, 4, 72, 0
6, 119850, Note_on_c, 4, 71, 110
6, 119879, Note_on_c, 4, 71, 0
6, 119880, Note_on_c, 4, 72, 110
6, 119909, Note_on_c, 4, 72, 0
6, 119910, Note_on_c, 4, 74, 110
6, 119939, Note_on_c, 4, 74, 0
6, 119940, Note_on_c, 4, 76, 110
6, 119969, Note_on_c, 4, 76, 0
6, 119970, Note_on_c, 4, 77, 110
6, 119999, Note_on_c, 4, 77, 0
6, 120000, Note_on_c, 4, 79, 110
6, 120029, Note_on_c, 4, 79, 0
6, 120030, Note_on_c, 4, 80, 110
6, 120059, Note_on_c, 4, 80, 0
6, 120060, Note_on_c, 4, 82, 110
6, 120089, Note_on_c, 4, 82, 0
6, 120090, Note_on_c, 4, 79, 110
6, 120119, Note_on_c, 4, 79, 0
6, 120120, Note_on_c, 4, 80, 110
6, 120149, Note_on_c, 4, 80, 0
6, 120150, Note_on_c, 4, 77, 110
6, 120179, Note_on_c, 4, 77, 0
6, 120180, Note_on_c, 4, 72, 110
6, 120209, Note_on_c, 4, 72, 0
6, 120210, Note_on_c, 4, 77, 110
6, 120239, Note_on_c, 4, 77, 0
6, 120240, Note_on_c, 4, 80, 110
6, 120269, Note_on_c, 4, 80, 0
6, 120270, Note_on_c, 4, 77, 110
6, 120299, Note_on_c, 4, 77, 0
6, 120300, Note_on_c, 4, 70, 110
6, 120329, Note_on_c, 4, 70, 0
6, 120330, Note_on_c, 4, 69, 110
6, 120359, Note_on_c, 4, 69, 0
6, 120360, Note_on_c, 4, 70, 110
6, 120389, Note_on_c, 4, 70, 0
6, 120390, Note_on_c, 4, 72, 110
6, 120419, Note_on_c, 4, 72, 0
6, 120420, Note_on_c, 4, 74, 110
6, 120449, Note_on_c, 4, 74, 0
6, 120450, Note_on_c, 4, 75, 110
6, 120479, Note_on_c, 4, 75, 0
6, 120480, Note_on_c, 4, 77, 110
6, 120509, Note_on_c, 4, 77, 0
6, 120510, Note_on_c, 4, 79, 110
6, 120539, Note_on_c, 4, 79, 0
6, 120540, Note_on_c, 4, 80, 110
6, 120569, Note_on_c, 4, 80, 0
6, 120570, Note_on_c, 4, 77, 110
6, 120599, Note_on_c, 4, 77, 0
6, 120600, Note_on_c, 4, 79, 110
6, 120629, Note_on_c, 4, 79, 0
6, 120630, Note_on_c, 4, 75, 110
6, 120659, Note_on_c, 4, 75, 0
6, 120660, Note_on_c, 4, 70, 110
6, 120689, Note_on_c, 4, 70, 0
6, 120690, Note_on_c, 4, 75, 110
6, 120719, Note_on_c, 4, 75, 0
6, 120720, Note_on_c, 4, 79, 110
6, 120749, Note_on_c, 4, 79, 0
6, 120750, Note_on_c, 4, 75, 110
6, 120779, Note_on_c, 4, 75, 0
6, 120780, Note_on_c, 4, 70, 110
6, 120809, Note_on_c, 4, 70, 0
6, 120810, Note_on_c, 4, 69, 110
6, 120839, Note_on_c, 4, 69, 0
6, 120840, Note_on_c, 4, 70, 110
6, 120869, Note_on_c, 4, 70, 0
6, 120870, Note_on_c, 4, 72, 110
6, 120899, Note_on_c, 4, 72, 0
6, 120900, Note_on_c, 4, 74, 110
6, 120929, Note_on_c, 4, 74, 0
6, 120930, Note_on_c, 4, 75, 110
6, 120959, Note_on_c, 4, 75, 0
6, 120960, Note_on_c, 4, 77, 110
6, 120989, Note_on_c, 4, 77, 0
6, 120990, Note_on_c, 4, 79, 110
6, 121019, Note_on_c, 4, 79, 0
6, 121020, Note_on_c, 4, 80, 110
6, 121049, Note_on_c, 4, 80, 0
6, 121050, Note_on_c, 4, 77, 110
6, 121079, Note_on_c, 4, 77, 0
6, 121080, Note_on_c, 4, 79, 110
6, 121109, Note_on_c, 4, 79, 0
6, 121110, Note_on_c, 4, 75, 110
6, 121139, Note_on_c, 4, 75, 0
6, 121140, Note_on_c, 4, 70, 110
6, 121169, Note_on_c, 4, 70, 0
6, 121170, Note_on_c, 4, 75, 110
6, 121199, Note_on_c, 4, 75, 0
6, 121200, Note_on_c, 4, 79, 110
6, 121229, Note_on_c, 4, 79, 0
6, 121230, Note_on_c, 4, 75, 110
6, 121259, Note_on_c, 4, 75, 0
6, 121260, Note_on_c, 4, 77, 110
6, 121319, Note_on_c, 4, 77, 0
6, 121380, Note_on_c, 4, 77, 110
6, 121439, Note_on_c, 4, 77, 0
6, 121500, Note_on_c, 4, 77, 110
6, 121619, Note_on_c, 4, 77, 0
6, 121650, Note_on_c, 4, 75, 110
6, 121679, Note_on_c, 4, 75, 0
6, 121680, Note_on_c, 4, 74, 110
6, 121709, Note_on_c, 4, 74, 0
6, 121710, Note_on_c, 4, 77, 110
6, 121739, Note_on_c, 4, 77, 0
6, 121740, Note_on_c, 4, 75, 110
6, 121769, Note_on_c, 4, 75, 0
6, 121770, Note_on_c, 4, 74, 110
6, 121799, Note_on_c, 4, 74, 0
6, 121800, Note_on_c, 4, 75, 110
6, 121889, Note_on_c, 4, 75, 0
6, 121890, Note_on_c, 4, 74, 110
6, 121919, Note_on_c, 4, 74, 0
6, 121920, Note_on_c, 4, 75, 110
6, 122009, Note_on_c, 4, 75, 0
6, 122010, Note_on_c, 4, 72, 110
6, 122039, Note_on_c, 4, 72, 0
6, 122040, Note_on_c, 4, 75, 110
6, 122159, Note_on_c, 4, 75, 0
6, 122160, Note_on_c, 4, 74, 110
6, 122189, Note_on_c, 4, 74, 0
6, 122190, Note_on_c, 4, 72, 110
6, 122219, Note_on_c, 4, 72, 0
6, 122220, Note_on_c, 4, 71, 110
6, 122279, Note_on_c, 4, 71, 0
6, 122280, Note_on_c, 4, 74, 110
6, 122339, Note_on_c, 4, 74, 0
6, 122340, Note_on_c, 4, 65, 110
6, 122399, Note_on_c, 4, 65, 0
6, 122400, Note_on_c, 4, 74, 110
6, 122459, Note_on_c, 4, 74, 0
6, 122460, Note_on_c, 4, 63, 110
6, 122489, Note_on_c, 4, 63, 0
6, 122490, Note_on_c, 4, 62, 110
6, 122519, Note_on_c, 4, 62, 0
6, 122520, Note_on_c, 4, 63, 110
6, 122549, Note_on_c, 4, 63, 0
6, 122550, Note_on_c, 4, 62, 110
6, 122579, Note_on_c, 4, 62, 0
6, 122580, Note_on_c, 4, 60, 110
6, 122639, Note_on_c, 4, 60, 0
6, 122640, Note_on_c, 4, 75, 110
6, 122669, Note_on_c, 4, 75, 0
6, 122670, Note_on_c, 4, 77, 110
6, 122699, Note_on_c, 4, 77, 0
6, 122700, Note_on_c, 4, 79, 110
6, 122759, Note_on_c, 4, 79, 0
6, 122760, Note_on_c, 4, 72, 110
6, 122819, Note_on_c, 4, 72, 0
6, 122820, Note_on_c, 4, 67, 110
6, 122879, Note_on_c, 4, 67, 0
6, 122880, Note_on_c, 4, 62, 110
6, 122880, Note_on_c, 4, 65, 110
6, 122880, Note_on_c, 4, 67, 110
6, 122880, Note_on_c, 4, 71, 110
6, 122939, Note_on_c, 4, 71, 0
6, 122939, Note_on_c, 4, 62, 0
6, 122939, Note_on_c, 4, 65, 0
6, 122939, Note_on_c, 4, 67, 0
6, 122940, Note_on_c, 4, 60, 120
6, 122940, Note_on_c, 4, 63, 120
6, 122940, Note_on_c, 4, 67, 120
6, 122940, Note_on_c, 4, 72, 110
6, 123059, Note_on_c, 4, 72, 0
6, 123060, Note_on_c, 4, 60, 0
6, 123060, Note_on_c, 4, 63, 0
6, 123060, Note_on_c, 4, 67, 0
6, 123060, End_track
7, 0, Start_track
7, 0, MIDI_port, 0
7, 0, Title_t, "clave i l"
7, 0, Program_c, 5, 6
7, 0, Note_on_c, 5, 60, 120
7, 0, Note_on_c, 5, 51, 120
7, 0, Note_on_c, 5, 55, 120
7, 0, Note_on_c, 5, 48, 120
7, 120, Note_on_c, 5, 48, 0
7, 120, Note_on_c, 5, 60, 0
7, 120, Note_on_c, 5, 51, 0
7, 120, Note_on_c, 5, 55, 0
7, 240, Note_on_c, 5, 60, 120
7, 360, Note_on_c, 5, 60, 0
7, 480, Note_on_c, 5, 51, 120
7, 480, Note_on_c, 5, 55, 120
7, 480, Note_on_c, 5, 48, 120
7, 540, Note_on_c, 5, 48, 0
7, 540, Note_on_c, 5, 55, 0
7, 540, Note_on_c, 5, 51, 0
7, 540, Note_on_c, 5, 60, 120
7, 600, Note_on_c, 5, 60, 0
7, 600, Note_on_c, 5, 56, 120
7, 660, Note_on_c, 5, 56, 0
7, 660, Note_on_c, 5, 53, 120
7, 720, Note_on_c, 5, 53, 0
7, 720, Note_on_c, 5, 46, 120
7, 780, Note_on_c, 5, 46, 0
7, 780, Note_on_c, 5, 58, 120
7, 840, Note_on_c, 5, 58, 0
7, 960, Note_on_c, 5, 53, 120
7, 960, Note_on_c, 5, 46, 120
7, 960, Note_on_c, 5, 50, 120
7, 960, Note_on_c, 5, 58, 120
7, 1080, Note_on_c, 5, 58, 0
7, 1080, Note_on_c, 5, 53, 0
7, 1080, Note_on_c, 5, 46, 0
7, 1080, Note_on_c, 5, 50, 0
7, 1200, Note_on_c, 5, 58, 120
7, 1320, Note_on_c, 5, 58, 0
7, 1440, Note_on_c, 5, 53, 120
7, 1440, Note_on_c, 5, 46, 120
7, 1440, Note_on_c, 5, 50, 120
7, 1500, Note_on_c, 5, 50, 0
7, 1500, Note_on_c, 5, 46, 0
7, 1500, Note_on_c, 5, 53, 0
7, 1500, Note_on_c, 5, 58, 120
7, 1560, Note_on_c, 5, 58, 0
7, 1560, Note_on_c, 5, 55, 120
7, 1620, Note_on_c, 5, 55, 0
7, 1620, Note_on_c, 5, 51, 120
7, 1680, Note_on_c, 5, 51, 0
7, 1680, Note_on_c, 5, 44, 120
7, 1740, Note_on_c, 5, 44, 0
7, 1740, Note_on_c, 5, 56, 120
7, 1800, Note_on_c, 5, 56, 0
7, 1920, Note_on_c, 5, 56, 120
7, 1980, Note_on_c, 5, 56, 0
7, 1980, Note_on_c, 5, 60, 120
7, 2010, Note_on_c, 5, 60, 0
7, 2010, Note_on_c, 5, 58, 120
7, 2040, Note_on_c, 5, 58, 0
7, 2040, Note_on_c, 5, 56, 120
7, 2100, Note_on_c, 5, 56, 0
7, 2100, Note_on_c, 5, 60, 120
7, 2130, Note_on_c, 5, 60, 0
7, 2130, Note_on_c, 5, 58, 120
7, 2160, Note_on_c, 5, 58, 0
7, 2160, Note_on_c, 5, 56, 120
7, 2220, Note_on_c, 5, 56, 0
7, 2220, Note_on_c, 5, 60, 120
7, 2250, Note_on_c, 5, 60, 0
7, 2250, Note_on_c, 5, 58, 120
7, 2280, Note_on_c, 5, 58, 0
7, 2280, Note_on_c, 5, 56, 120
7, 2340, Note_on_c, 5, 56, 0
7, 2340, Note_on_c, 5, 55, 120
7, 2400, Note_on_c, 5, 55, 0
7, 2400, Note_on_c, 5, 53, 120
7, 2460, Note_on_c, 5, 53, 0
7, 2460, Note_on_c, 5, 56, 120
7, 2490, Note_on_c, 5, 56, 0
7, 2490, Note_on_c, 5, 55, 120
7, 2520, Note_on_c, 5, 55, 0
7, 2520, Note_on_c, 5, 53, 120
7, 2580, Note_on_c, 5, 53, 0
7, 2580, Note_on_c, 5, 56, 120
7, 2610, Note_on_c, 5, 56, 0
7, 2610, Note_on_c, 5, 55, 120
7, 2640, Note_on_c, 5, 55, 0
7, 2640, Note_on_c, 5, 53, 120
7, 2700, Note_on_c, 5, 53, 0
7, 2700, Note_on_c, 5, 56, 120
7, 2730, Note_on_c, 5, 56, 0
7, 2730, Note_on_c, 5, 55, 120
7, 2760, Note_on_c, 5, 55, 0
7, 2760, Note_on_c, 5, 53, 120
7, 2820, Note_on_c, 5, 53, 0
7, 2820, Note_on_c, 5, 51, 120
7, 2880, Note_on_c, 5, 51, 0
7, 2880, Note_on_c, 5, 49, 120
7, 2910, Note_on_c, 5, 49, 0
7, 2910, Note_on_c, 5, 48, 120
7, 2940, Note_on_c, 5, 48, 0
7, 2940, Note_on_c, 5, 47, 120
7, 2970, Note_on_c, 5, 47, 0
7, 2970, Note_on_c, 5, 48, 120
7, 3000, Note_on_c, 5, 48, 0
7, 3000, Note_on_c, 5, 50, 120
7, 3030, Note_on_c, 5, 50, 0
7, 3030, Note_on_c, 5, 51, 120
7, 3060, Note_on_c, 5, 51, 0
7, 3060, Note_on_c, 5, 53, 120
7, 3180, Note_on_c, 5, 53, 0
7, 3180, Note_on_c, 5, 60, 120
7, 3180, Note_on_c, 5, 51, 120
7, 3210, Note_on_c, 5, 60, 0
7, 3210, Note_on_c, 5, 59, 120
7, 3240, Note_on_c, 5, 59, 0
7, 3240, Note_on_c, 5, 51, 0
7, 3240, Note_on_c, 5, 60, 120
7, 3240, Note_on_c, 5, 56, 120
7, 3300, Note_on_c, 5, 56, 0
7, 3300, Note_on_c, 5, 60, 0
7, 3300, Note_on_c, 5, 56, 120
7, 3300, Note_on_c, 5, 53, 120
7, 3360, Note_on_c, 5, 53, 0
7, 3360, Note_on_c, 5, 56, 0
7, 3360, Note_on_c, 5, 55, 120
7, 3420, Note_on_c, 5, 55, 0
7, 3420, Note_on_c, 5, 53, 120
7, 3480, Note_on_c, 5, 53, 0
7, 3480, Note_on_c, 5, 55, 120
7, 3540, Note_on_c, 5, 55, 0
7, 3540, Note_on_c, 5, 43, 120
7, 3600, Note_on_c, 5, 43, 0
7, 3600, Note_on_c, 5, 48, 120
7, 3630, Note_on_c, 5, 48, 0
7, 3630, Note_on_c, 5, 51, 120
7, 3660, Note_on_c, 5, 51, 0
7, 3660, Note_on_c, 5, 53, 120
7, 3690, Note_on_c, 5, 53, 0
7, 3690, Note_on_c, 5, 55, 120
7, 3720, Note_on_c, 5, 55, 0
7, 3720, Note_on_c, 5, 48, 120
7, 3780, Note_on_c, 5, 48, 0
7, 3870, Note_on_c, 5, 60, 120
7, 3900, Note_on_c, 5, 60, 0
7, 3900, Note_on_c, 5, 59, 120
7, 3930, Note_on_c, 5, 59, 0
7, 3930, Note_on_c, 5, 60, 120
7, 3960, Note_on_c, 5, 60, 0
7, 3960, Note_on_c, 5, 48, 120
7, 4020, Note_on_c, 5, 48, 0
7, 4110, Note_on_c, 5, 60, 120
7, 4140, Note_on_c, 5, 60, 0
7, 4140, Note_on_c, 5, 59, 120
7, 4170, Note_on_c, 5, 59, 0
7, 4170, Note_on_c, 5, 60, 120
7, 4200, Note_on_c, 5, 60, 0
7, 4200, Note_on_c, 5, 48, 120
7, 4260, Note_on_c, 5, 48, 0
7, 4350, Note_on_c, 5, 60, 120
7, 4380, Note_on_c, 5, 60, 0
7, 4380, Note_on_c, 5, 59, 120
7, 4410, Note_on_c, 5, 59, 0
7, 4410, Note_on_c, 5, 60, 120
7, 4440, Note_on_c, 5, 60, 0
7, 4440, Note_on_c, 5, 48, 120
7, 4500, Note_on_c, 5, 48, 0
7, 4620, Note_on_c, 5, 48, 120
7, 4650, Note_on_c, 5, 48, 0
7, 4650, Note_on_c, 5, 47, 120
7, 4680, Note_on_c, 5, 47, 0
7, 4680, Note_on_c, 5, 48, 120
7, 4710, Note_on_c, 5, 48, 0
7, 4710, Note_on_c, 5, 50, 120
7, 4740, Note_on_c, 5, 50, 0
7, 4740, Note_on_c, 5, 51, 120
7, 4770, Note_on_c, 5, 51, 0
7, 4770, Note_on_c, 5, 53, 120
7, 4800, Note_on_c, 5, 53, 0
7, 4800, Note_on_c, 5, 55, 120
7, 4860, Note_on_c, 5, 55, 0
7, 4950, Note_on_c, 5, 55, 120
7, 4980, Note_on_c, 5, 55, 0
7, 4980, Note_on_c, 5, 54, 120
7, 5010, Note_on_c, 5, 54, 0
7, 5010, Note_on_c, 5, 55, 120
7, 5040, Note_on_c, 5, 55, 0
7, 5040, Note_on_c, 5, 43, 120
7, 5100, Note_on_c, 5, 43, 0
7, 5190, Note_on_c, 5, 55, 120
7, 5220, Note_on_c, 5, 55, 0
7, 5220, Note_on_c, 5, 54, 120
7, 5250, Note_on_c, 5, 54, 0
7, 5250, Note_on_c, 5, 55, 120
7, 5280, Note_on_c, 5, 55, 0
7, 5280, Note_on_c, 5, 62, 120
7, 5340, Note_on_c, 5, 62, 0
7, 5430, Note_on_c, 5, 60, 120
7, 5460, Note_on_c, 5, 60, 0
7, 5460, Note_on_c, 5, 63, 120
7, 5490, Note_on_c, 5, 63, 0
7, 5490, Note_on_c, 5, 66, 120
7, 5520, Note_on_c, 5, 66, 0
7, 5520, Note_on_c, 5, 67, 120
7, 5580, Note_on_c, 5, 67, 0
7, 5580, Note_on_c, 5, 55, 120
7, 5640, Note_on_c, 5, 55, 0
7, 5670, Note_on_c, 5, 43, 120
7, 5700, Note_on_c, 5, 43, 0
7, 5700, Note_on_c, 5, 45, 120
7, 5730, Note_on_c, 5, 45, 0
7, 5730, Note_on_c, 5, 47, 120
7, 5760, Note_on_c, 5, 47, 0
7, 5760, Note_on_c, 5, 48, 120
7, 5760, Note_on_c, 5, 55, 120
7, 5760, Note_on_c, 5, 51, 120
7, 5760, Note_on_c, 5, 60, 120
7, 5880, Note_on_c, 5, 60, 0
7, 5880, Note_on_c, 5, 48, 0
7, 5880, Note_on_c, 5, 55, 0
7, 5880, Note_on_c, 5, 51, 0
7, 6000, Note_on_c, 5, 60, 120
7, 6120, Note_on_c, 5, 60, 0
7, 6240, Note_on_c, 5, 48, 120
7, 6240, Note_on_c, 5, 55, 120
7, 6240, Note_on_c, 5, 51, 120
7, 6300, Note_on_c, 5, 51, 0
7, 6300, Note_on_c, 5, 55, 0
7, 6300, Note_on_c, 5, 48, 0
7, 6300, Note_on_c, 5, 60, 120
7, 6360, Note_on_c, 5, 60, 0
7, 6360, Note_on_c, 5, 56, 120
7, 6420, Note_on_c, 5, 56, 0
7, 6420, Note_on_c, 5, 53, 120
7, 6480, Note_on_c, 5, 53, 0
7, 6480, Note_on_c, 5, 58, 120
7, 6540, Note_on_c, 5, 58, 0
7, 6540, Note_on_c, 5, 46, 120
7, 6600, Note_on_c, 5, 46, 0
7, 6720, Note_on_c, 5, 46, 120
7, 6780, Note_on_c, 5, 46, 0
7, 6780, Note_on_c, 5, 48, 120
7, 6840, Note_on_c, 5, 48, 0
7, 6840, Note_on_c, 5, 50, 120
7, 6900, Note_on_c, 5, 50, 0
7, 6900, Note_on_c, 5, 51, 120
7, 6960, Note_on_c, 5, 51, 0
7, 6960, Note_on_c, 5, 53, 120
7, 7020, Note_on_c, 5, 53, 0
7, 7020, Note_on_c, 5, 55, 120
7, 7080, Note_on_c, 5, 55, 0
7, 7080, Note_on_c, 5, 53, 120
7, 7140, Note_on_c, 5, 53, 0
7, 7140, Note_on_c, 5, 51, 120
7, 7200, Note_on_c, 5, 51, 0
7, 7200, Note_on_c, 5, 46, 120
7, 7200, Note_on_c, 5, 53, 120
7, 7200, Note_on_c, 5, 50, 120
7, 7200, Note_on_c, 5, 58, 120
7, 7320, Note_on_c, 5, 58, 0
7, 7320, Note_on_c, 5, 46, 0
7, 7320, Note_on_c, 5, 53, 0
7, 7320, Note_on_c, 5, 50, 0
7, 7440, Note_on_c, 5, 58, 120
7, 7560, Note_on_c, 5, 58, 0
7, 7680, Note_on_c, 5, 50, 120
7, 7680, Note_on_c, 5, 58, 120
7, 7740, Note_on_c, 5, 58, 0
7, 7740, Note_on_c, 5, 50, 0
7, 7740, Note_on_c, 5, 58, 120
7, 7800, Note_on_c, 5, 58, 0
7, 7800, Note_on_c, 5, 55, 120
7, 7860, Note_on_c, 5, 55, 0
7, 7860, Note_on_c, 5, 51, 120
7, 7920, Note_on_c, 5, 51, 0
7, 7920, Note_on_c, 5, 56, 120
7, 7980, Note_on_c, 5, 56, 0
7, 7980, Note_on_c, 5, 44, 120
7, 8040, Note_on_c, 5, 44, 0
7, 8160, Note_on_c, 5, 48, 120
7, 8220, Note_on_c, 5, 48, 0
7, 8220, Note_on_c, 5, 50, 120
7, 8280, Note_on_c, 5, 50, 0
7, 8280, Note_on_c, 5, 51, 120
7, 8340, Note_on_c, 5, 51, 0
7, 8340, Note_on_c, 5, 53, 120
7, 8400, Note_on_c, 5, 53, 0
7, 8400, Note_on_c, 5, 55, 120
7, 8460, Note_on_c, 5, 55, 0
7, 8460, Note_on_c, 5, 56, 120
7, 8520, Note_on_c, 5, 56, 0
7, 8520, Note_on_c, 5, 55, 120
7, 8580, Note_on_c, 5, 55, 0
7, 8580, Note_on_c, 5, 43, 120
7, 8640, Note_on_c, 5, 43, 0
7, 8640, Note_on_c, 5, 44, 120
7, 8700, Note_on_c, 5, 44, 0
7, 8700, Note_on_c, 5, 60, 120
7, 8730, Note_on_c, 5, 60, 0
7, 8730, Note_on_c, 5, 58, 120
7, 8760, Note_on_c, 5, 58, 0
7, 8760, Note_on_c, 5, 56, 120
7, 8790, Note_on_c, 5, 56, 0
7, 8790, Note_on_c, 5, 55, 120
7, 8820, Note_on_c, 5, 55, 0
7, 8820, Note_on_c, 5, 53, 120
7, 8850, Note_on_c, 5, 53, 0
7, 8850, Note_on_c, 5, 51, 120
7, 8880, Note_on_c, 5, 51, 0
7, 8880, Note_on_c, 5, 50, 120
7, 8940, Note_on_c, 5, 50, 0
7, 8940, Note_on_c, 5, 62, 120
7, 9000, Note_on_c, 5, 62, 0
7, 9000, Note_on_c, 5, 63, 120
7, 9060, Note_on_c, 5, 63, 0
7, 9060, Note_on_c, 5, 65, 120
7, 9120, Note_on_c, 5, 65, 0
7, 9120, Note_on_c, 5, 67, 120
7, 9150, Note_on_c, 5, 67, 0
7, 9150, Note_on_c, 5, 60, 120
7, 9180, Note_on_c, 5, 60, 0
7, 9180, Note_on_c, 5, 58, 120
7, 9210, Note_on_c, 5, 58, 0
7, 9210, Note_on_c, 5, 56, 120
7, 9240, Note_on_c, 5, 56, 0
7, 9240, Note_on_c, 5, 55, 120
7, 9270, Note_on_c, 5, 55, 0
7, 9270, Note_on_c, 5, 53, 120
7, 9300, Note_on_c, 5, 53, 0
7, 9300, Note_on_c, 5, 51, 120
7, 9330, Note_on_c, 5, 51, 0
7, 9330, Note_on_c, 5, 50, 120
7, 9360, Note_on_c, 5, 50, 0
7, 9360, Note_on_c, 5, 48, 120
7, 9420, Note_on_c, 5, 48, 0
7, 9420, Note_on_c, 5, 60, 120
7, 9480, Note_on_c, 5, 60, 0
7, 9480, Note_on_c, 5, 62, 120
7, 9540, Note_on_c, 5, 62, 0
7, 9540, Note_on_c, 5, 63, 120
7, 9600, Note_on_c, 5, 63, 0
7, 9600, Note_on_c, 5, 65, 120
7, 9660, Note_on_c, 5, 65, 0
7, 9660, Note_on_c, 5, 58, 120
7, 9720, Note_on_c, 5, 58, 0
7, 10380, Note_on_c, 5, 46, 120
7, 10440, Note_on_c, 5, 46, 0
7, 10440, Note_on_c, 5, 48, 120
7, 10500, Note_on_c, 5, 48, 0
7, 10500, Note_on_c, 5, 50, 120
7, 10560, Note_on_c, 5, 50, 0
7, 10560, Note_on_c, 5, 58, 120
7, 10560, Note_on_c, 5, 55, 120
7, 10560, Note_on_c, 5, 51, 120
7, 10680, Note_on_c, 5, 51, 0
7, 10680, Note_on_c, 5, 55, 0
7, 10680, Note_on_c, 5, 58, 0
7, 10800, Note_on_c, 5, 63, 120
7, 10920, Note_on_c, 5, 63, 0
7, 11040, Note_on_c, 5, 51, 120
7, 11040, Note_on_c, 5, 55, 120
7, 11040, Note_on_c, 5, 58, 120
7, 11100, Note_on_c, 5, 58, 0
7, 11100, Note_on_c, 5, 55, 0
7, 11100, Note_on_c, 5, 51, 0
7, 11100, Note_on_c, 5, 63, 120
7, 11160, Note_on_c, 5, 63, 0
7, 11160, Note_on_c, 5, 60, 120
7, 11220, Note_on_c, 5, 60, 0
7, 11220, Note_on_c, 5, 56, 120
7, 11280, Note_on_c, 5, 56, 0
7, 11280, Note_on_c, 5, 53, 120
7, 11340, Note_on_c, 5, 53, 0
7, 11340, Note_on_c, 5, 65, 120
7, 11400, Note_on_c, 5, 65, 0
7, 11430, Note_on_c, 5, 67, 120
7, 11460, Note_on_c, 5, 67, 0
7, 11460, Note_on_c, 5, 65, 120
7, 11490, Note_on_c, 5, 65, 0
7, 11490, Note_on_c, 5, 63, 120
7, 11520, Note_on_c, 5, 63, 0
7, 11520, Note_on_c, 5, 65, 120
7, 11580, Note_on_c, 5, 65, 0
7, 11580, Note_on_c, 5, 62, 120
7, 11640, Note_on_c, 5, 62, 0
7, 11640, Note_on_c, 5, 58, 120
7, 11700, Note_on_c, 5, 58, 0
7, 11700, Note_on_c, 5, 55, 120
7, 11760, Note_on_c, 5, 55, 0
7, 11760, Note_on_c, 5, 51, 120
7, 11820, Note_on_c, 5, 51, 0
7, 11820, Note_on_c, 5, 63, 120
7, 11880, Note_on_c, 5, 63, 0
7, 11910, Note_on_c, 5, 65, 120
7, 11940, Note_on_c, 5, 65, 0
7, 11940, Note_on_c, 5, 63, 120
7, 11970, Note_on_c, 5, 63, 0
7, 11970, Note_on_c, 5, 62, 120
7, 12000, Note_on_c, 5, 62, 0
7, 12000, Note_on_c, 5, 63, 120
7, 12060, Note_on_c, 5, 63, 0
7, 12060, Note_on_c, 5, 60, 120
7, 12120, Note_on_c, 5, 60, 0
7, 12120, Note_on_c, 5, 56, 120
7, 12180, Note_on_c, 5, 56, 0
7, 12180, Note_on_c, 5, 53, 120
7, 12240, Note_on_c, 5, 53, 0
7, 12240, Note_on_c, 5, 50, 120
7, 12300, Note_on_c, 5, 50, 0
7, 12300, Note_on_c, 5, 62, 120
7, 12360, Note_on_c, 5, 62, 0
7, 12390, Note_on_c, 5, 60, 120
7, 12420, Note_on_c, 5, 60, 0
7, 12420, Note_on_c, 5, 58, 120
7, 12450, Note_on_c, 5, 58, 0
7, 12450, Note_on_c, 5, 56, 120
7, 12480, Note_on_c, 5, 56, 0
7, 12480, Note_on_c, 5, 55, 120
7, 12600, Note_on_c, 5, 55, 0
7, 12720, Note_on_c, 5, 56, 120
7, 12840, Note_on_c, 5, 56, 0
7, 12960, Note_on_c, 5, 58, 120
7, 13080, Note_on_c, 5, 58, 0
7, 13200, Note_on_c, 5, 60, 120
7, 13230, Note_on_c, 5, 60, 0
7, 13230, Note_on_c, 5, 62, 120
7, 13260, Note_on_c, 5, 62, 0
7, 13260, Note_on_c, 5, 63, 120
7, 13290, Note_on_c, 5, 63, 0
7, 13290, Note_on_c, 5, 62, 120
7, 13320, Note_on_c, 5, 62, 0
7, 13320, Note_on_c, 5, 60, 120
7, 13350, Note_on_c, 5, 60, 0
7, 13350, Note_on_c, 5, 62, 120
7, 13380, Note_on_c, 5, 62, 0
7, 13380, Note_on_c, 5, 63, 120
7, 13410, Note_on_c, 5, 63, 0
7, 13410, Note_on_c, 5, 62, 120
7, 13440, Note_on_c, 5, 62, 0
7, 13440, Note_on_c, 5, 60, 120
7, 13470, Note_on_c, 5, 60, 0
7, 13470, Note_on_c, 5, 62, 120
7, 13500, Note_on_c, 5, 62, 0
7, 13500, Note_on_c, 5, 63, 120
7, 13530, Note_on_c, 5, 63, 0
7, 13530, Note_on_c, 5, 62, 120
7, 13560, Note_on_c, 5, 62, 0
7, 13560, Note_on_c, 5, 60, 120
7, 13590, Note_on_c, 5, 60, 0
7, 13590, Note_on_c, 5, 63, 120
7, 13620, Note_on_c, 5, 63, 0
7, 13620, Note_on_c, 5, 62, 120
7, 13650, Note_on_c, 5, 62, 0
7, 13650, Note_on_c, 5, 60, 120
7, 13680, Note_on_c, 5, 60, 0
7, 13680, Note_on_c, 5, 58, 120
7, 13710, Note_on_c, 5, 58, 0
7, 13710, Note_on_c, 5, 55, 120
7, 13740, Note_on_c, 5, 55, 0
7, 13740, Note_on_c, 5, 53, 120
7, 13770, Note_on_c, 5, 53, 0
7, 13770, Note_on_c, 5, 51, 120
7, 13800, Note_on_c, 5, 51, 0
7, 13800, Note_on_c, 5, 50, 120
7, 13830, Note_on_c, 5, 50, 0
7, 13830, Note_on_c, 5, 51, 120
7, 13860, Note_on_c, 5, 51, 0
7, 13860, Note_on_c, 5, 53, 120
7, 13890, Note_on_c, 5, 53, 0
7, 13890, Note_on_c, 5, 51, 120
7, 13920, Note_on_c, 5, 51, 0
7, 13920, Note_on_c, 5, 50, 120
7, 13950, Note_on_c, 5, 50, 0
7, 13950, Note_on_c, 5, 51, 120
7, 13980, Note_on_c, 5, 51, 0
7, 13980, Note_on_c, 5, 53, 120
7, 14010, Note_on_c, 5, 53, 0
7, 14010, Note_on_c, 5, 51, 120
7, 14040, Note_on_c, 5, 51, 0
7, 14040, Note_on_c, 5, 50, 120
7, 14070, Note_on_c, 5, 50, 0
7, 14070, Note_on_c, 5, 53, 120
7, 14100, Note_on_c, 5, 53, 0
7, 14100, Note_on_c, 5, 50, 120
7, 14130, Note_on_c, 5, 50, 0
7, 14130, Note_on_c, 5, 46, 120
7, 14160, Note_on_c, 5, 46, 0
7, 14160, Note_on_c, 5, 51, 120
7, 14220, Note_on_c, 5, 51, 0
7, 15360, Note_on_c, 5, 39, 120
7, 15360, Note_on_c, 5, 46, 120
7, 15360, Note_on_c, 5, 51, 120
7, 15480, Note_on_c, 5, 51, 0
7, 15480, Note_on_c, 5, 46, 0
7, 15480, Note_on_c, 5, 39, 0
7, 15480, Note_on_c, 5, 58, 120
7, 15540, Note_on_c, 5, 58, 0
7, 15540, Note_on_c, 5, 56, 120
7, 15600, Note_on_c, 5, 56, 0
7, 15600, Note_on_c, 5, 51, 120
7, 15600, Note_on_c, 5, 55, 120
7, 15630, Note_on_c, 5, 55, 0
7, 15630, Note_on_c, 5, 53, 120
7, 15660, Note_on_c, 5, 53, 0
7, 15660, Note_on_c, 5, 55, 120
7, 15690, Note_on_c, 5, 55, 0
7, 15690, Note_on_c, 5, 56, 120
7, 15720, Note_on_c, 5, 56, 0
7, 15720, Note_on_c, 5, 51, 0
7, 15720, Note_on_c, 5, 58, 120
7, 15750, Note_on_c, 5, 58, 0
7, 15750, Note_on_c, 5, 56, 120
7, 15780, Note_on_c, 5, 56, 0
7, 15780, Note_on_c, 5, 58, 120
7, 15810, Note_on_c, 5, 58, 0
7, 15810, Note_on_c, 5, 56, 120
7, 15840, Note_on_c, 5, 56, 0
7, 15840, Note_on_c, 5, 39, 120
7, 15840, Note_on_c, 5, 46, 120
7, 15840, Note_on_c, 5, 51, 120
7, 15900, Note_on_c, 5, 51, 0
7, 15900, Note_on_c, 5, 46, 0
7, 15900, Note_on_c, 5, 39, 0
7, 15900, Note_on_c, 5, 51, 120
7, 15960, Note_on_c, 5, 51, 0
7, 15960, Note_on_c, 5, 48, 120
7, 16020, Note_on_c, 5, 48, 0
7, 16020, Note_on_c, 5, 44, 120
7, 16080, Note_on_c, 5, 44, 0
7, 16080, Note_on_c, 5, 50, 120
7, 16140, Note_on_c, 5, 50, 0
7, 16140, Note_on_c, 5, 38, 120
7, 16200, Note_on_c, 5, 38, 0
7, 16320, Note_on_c, 5, 53, 120
7, 16320, Note_on_c, 5, 50, 120
7, 16320, Note_on_c, 5, 46, 120
7, 16440, Note_on_c, 5, 46, 0
7, 16440, Note_on_c, 5, 50, 0
7, 16440, Note_on_c, 5, 53, 0
7, 16440, Note_on_c, 5, 56, 120
7, 16500, Note_on_c, 5, 56, 0
7, 16500, Note_on_c, 5, 55, 120
7, 16560, Note_on_c, 5, 55, 0
7, 16560, Note_on_c, 5, 46, 120
7, 16560, Note_on_c, 5, 50, 120
7, 16560, Note_on_c, 5, 53, 120
7, 16590, Note_on_c, 5, 53, 0
7, 16590, Note_on_c, 5, 51, 120
7, 16620, Note_on_c, 5, 51, 0
7, 16620, Note_on_c, 5, 53, 120
7, 16650, Note_on_c, 5, 53, 0
7, 16650, Note_on_c, 5, 55, 120
7, 16680, Note_on_c, 5, 55, 0
7, 16680, Note_on_c, 5, 50, 0
7, 16680, Note_on_c, 5, 46, 0
7, 16680, Note_on_c, 5, 56, 120
7, 16710, Note_on_c, 5, 56, 0
7, 16710, Note_on_c, 5, 55, 120
7, 16740, Note_on_c, 5, 55, 0
7, 16740, Note_on_c, 5, 56, 120
7, 16770, Note_on_c, 5, 56, 0
7, 16770, Note_on_c, 5, 55, 120
7, 16800, Note_on_c, 5, 55, 0
7, 16800, Note_on_c, 5, 46, 120
7, 16800, Note_on_c, 5, 53, 120
7, 16860, Note_on_c, 5, 53, 0
7, 16860, Note_on_c, 5, 46, 0
7, 16860, Note_on_c, 5, 60, 120
7, 16920, Note_on_c, 5, 60, 0
7, 16920, Note_on_c, 5, 58, 120
7, 16980, Note_on_c, 5, 58, 0
7, 16980, Note_on_c, 5, 56, 120
7, 17040, Note_on_c, 5, 56, 0
7, 17040, Note_on_c, 5, 55, 120
7, 17100, Note_on_c, 5, 55, 0
7, 17100, Note_on_c, 5, 43, 120
7, 17160, Note_on_c, 5, 43, 0
7, 17280, Note_on_c, 5, 48, 120
7, 17340, Note_on_c, 5, 48, 0
7, 17340, Note_on_c, 5, 60, 120
7, 17400, Note_on_c, 5, 60, 0
7, 17520, Note_on_c, 5, 46, 120
7, 17580, Note_on_c, 5, 46, 0
7, 17580, Note_on_c, 5, 58, 120
7, 17640, Note_on_c, 5, 58, 0
7, 17760, Note_on_c, 5, 45, 120
7, 17820, Note_on_c, 5, 45, 0
7, 17820, Note_on_c, 5, 48, 120
7, 17880, Note_on_c, 5, 48, 0
7, 17880, Note_on_c, 5, 53, 120
7, 17940, Note_on_c, 5, 53, 0
7, 17940, Note_on_c, 5, 41, 120
7, 18000, Note_on_c, 5, 41, 0
7, 18000, Note_on_c, 5, 46, 120
7, 18060, Note_on_c, 5, 46, 0
7, 18060, Note_on_c, 5, 58, 120
7, 18120, Note_on_c, 5, 58, 0
7, 18240, Note_on_c, 5, 45, 120
7, 18300, Note_on_c, 5, 45, 0
7, 18300, Note_on_c, 5, 57, 120
7, 18360, Note_on_c, 5, 57, 0
7, 18480, Note_on_c, 5, 43, 120
7, 18540, Note_on_c, 5, 43, 0
7, 18540, Note_on_c, 5, 55, 120
7, 18600, Note_on_c, 5, 55, 0
7, 18720, Note_on_c, 5, 42, 120
7, 18780, Note_on_c, 5, 42, 0
7, 18780, Note_on_c, 5, 45, 120
7, 18840, Note_on_c, 5, 45, 0
7, 18840, Note_on_c, 5, 50, 120
7, 18900, Note_on_c, 5, 50, 0
7, 18900, Note_on_c, 5, 38, 120
7, 18960, Note_on_c, 5, 38, 0
7, 18960, Note_on_c, 5, 43, 120
7, 19020, Note_on_c, 5, 43, 0
7, 19020, Note_on_c, 5, 55, 120
7, 19080, Note_on_c, 5, 55, 0
7, 19200, Note_on_c, 5, 45, 120
7, 19260, Note_on_c, 5, 45, 0
7, 19260, Note_on_c, 5, 57, 120
7, 19320, Note_on_c, 5, 57, 0
7, 19440, Note_on_c, 5, 46, 120
7, 19500, Note_on_c, 5, 46, 0
7, 19500, Note_on_c, 5, 58, 120
7, 19560, Note_on_c, 5, 58, 0
7, 19680, Note_on_c, 5, 48, 120
7, 19740, Note_on_c, 5, 48, 0
7, 19740, Note_on_c, 5, 60, 120
7, 19800, Note_on_c, 5, 60, 0
7, 19920, Note_on_c, 5, 50, 120
7, 19980, Note_on_c, 5, 50, 0
7, 19980, Note_on_c, 5, 54, 120
7, 20010, Note_on_c, 5, 54, 0
7, 20010, Note_on_c, 5, 57, 120
7, 20040, Note_on_c, 5, 57, 0
7, 20040, Note_on_c, 5, 62, 120
7, 20100, Note_on_c, 5, 62, 0
7, 20280, Note_on_c, 5, 58, 120
7, 20280, Note_on_c, 5, 55, 120
7, 20340, Note_on_c, 5, 55, 0
7, 20340, Note_on_c, 5, 58, 0
7, 20340, Note_on_c, 5, 60, 120
7, 20340, Note_on_c, 5, 57, 120
7, 20400, Note_on_c, 5, 57, 0
7, 20400, Note_on_c, 5, 60, 0
7, 20520, Note_on_c, 5, 58, 120
7, 20580, Note_on_c, 5, 58, 0
7, 20580, Note_on_c, 5, 55, 120
7, 20640, Note_on_c, 5, 55, 0
7, 20700, Note_on_c, 5, 55, 120
7, 20760, Note_on_c, 5, 55, 0
7, 20760, Note_on_c, 5, 51, 120
7, 20820, Note_on_c, 5, 51, 0
7, 20820, Note_on_c, 5, 48, 120
7, 20880, Note_on_c, 5, 48, 0
7, 20880, Note_on_c, 5, 53, 120
7, 20940, Note_on_c, 5, 53, 0
7, 20940, Note_on_c, 5, 57, 120
7, 20969, Note_on_c, 5, 57, 0
7, 20970, Note_on_c, 5, 60, 120
7, 20999, Note_on_c, 5, 60, 0
7, 21000, Note_on_c, 5, 65, 120
7, 21060, Note_on_c, 5, 65, 0
7, 21240, Note_on_c, 5, 53, 120
7, 21240, Note_on_c, 5, 57, 120
7, 21300, Note_on_c, 5, 57, 0
7, 21300, Note_on_c, 5, 53, 0
7, 21300, Note_on_c, 5, 55, 120
7, 21300, Note_on_c, 5, 58, 120
7, 21360, Note_on_c, 5, 58, 0
7, 21360, Note_on_c, 5, 55, 0
7, 21480, Note_on_c, 5, 57, 120
7, 21540, Note_on_c, 5, 57, 0
7, 21540, Note_on_c, 5, 53, 120
7, 21600, Note_on_c, 5, 53, 0
7, 21660, Note_on_c, 5, 53, 120
7, 21720, Note_on_c, 5, 53, 0
7, 21720, Note_on_c, 5, 50, 120
7, 21780, Note_on_c, 5, 50, 0
7, 21780, Note_on_c, 5, 46, 120
7, 21840, Note_on_c, 5, 46, 0
7, 21840, Note_on_c, 5, 51, 120
7, 21900, Note_on_c, 5, 51, 0
7, 21900, Note_on_c, 5, 55, 120
7, 21930, Note_on_c, 5, 55, 0
7, 21930, Note_on_c, 5, 58, 120
7, 21960, Note_on_c, 5, 58, 0
7, 21960, Note_on_c, 5, 63, 120
7, 22020, Note_on_c, 5, 63, 0
7, 22140, Note_on_c, 5, 48, 120
7, 22200, Note_on_c, 5, 48, 0
7, 22200, Note_on_c, 5, 51, 120
7, 22260, Note_on_c, 5, 51, 0
7, 22260, Note_on_c, 5, 55, 120
7, 22320, Note_on_c, 5, 55, 0
7, 22320, Note_on_c, 5, 60, 120
7, 22380, Note_on_c, 5, 60, 0
7, 22380, Note_on_c, 5, 48, 120
7, 22440, Note_on_c, 5, 48, 0
7, 22620, Note_on_c, 5, 48, 120
7, 22680, Note_on_c, 5, 48, 0
7, 22680, Note_on_c, 5, 51, 120
7, 22740, Note_on_c, 5, 51, 0
7, 22740, Note_on_c, 5, 56, 120
7, 22800, Note_on_c, 5, 56, 0
7, 22800, Note_on_c, 5, 60, 120
7, 22860, Note_on_c, 5, 60, 0
7, 22860, Note_on_c, 5, 48, 120
7, 22920, Note_on_c, 5, 48, 0
7, 23100, Note_on_c, 5, 43, 120
7, 23160, Note_on_c, 5, 43, 0
7, 23160, Note_on_c, 5, 48, 120
7, 23220, Note_on_c, 5, 48, 0
7, 23220, Note_on_c, 5, 51, 120
7, 23280, Note_on_c, 5, 51, 0
7, 23280, Note_on_c, 5, 45, 120
7, 23340, Note_on_c, 5, 45, 0
7, 23340, Note_on_c, 5, 54, 120
7, 23400, Note_on_c, 5, 54, 0
7, 23400, Note_on_c, 5, 55, 120
7, 23460, Note_on_c, 5, 55, 0
7, 23460, Note_on_c, 5, 51, 120
7, 23520, Note_on_c, 5, 51, 0
7, 23520, Note_on_c, 5, 50, 120
7, 23580, Note_on_c, 5, 50, 0
7, 23580, Note_on_c, 5, 48, 120
7, 23640, Note_on_c, 5, 48, 0
7, 23640, Note_on_c, 5, 50, 120
7, 23700, Note_on_c, 5, 50, 0
7, 23700, Note_on_c, 5, 38, 120
7, 23760, Note_on_c, 5, 38, 0
7, 23760, Note_on_c, 5, 43, 120
7, 23880, Note_on_c, 5, 43, 0
7, 24060, Note_on_c, 5, 62, 120
7, 24120, Note_on_c, 5, 62, 0
7, 24120, Note_on_c, 5, 59, 120
7, 24180, Note_on_c, 5, 59, 0
7, 24180, Note_on_c, 5, 55, 120
7, 24240, Note_on_c, 5, 55, 0
7, 24240, Note_on_c, 5, 50, 120
7, 24300, Note_on_c, 5, 50, 0
7, 24300, Note_on_c, 5, 55, 120
7, 24360, Note_on_c, 5, 55, 0
7, 24360, Note_on_c, 5, 50, 120
7, 24420, Note_on_c, 5, 50, 0
7, 24420, Note_on_c, 5, 53, 120
7, 24480, Note_on_c, 5, 53, 0
7, 24480, Note_on_c, 5, 43, 120
7, 24540, Note_on_c, 5, 43, 0
7, 24540, Note_on_c, 5, 55, 120
7, 24600, Note_on_c, 5, 55, 0
7, 24600, Note_on_c, 5, 50, 120
7, 24660, Note_on_c, 5, 50, 0
7, 24660, Note_on_c, 5, 53, 120
7, 24720, Note_on_c, 5, 53, 0
7, 24720, Note_on_c, 5, 47, 120
7, 24780, Note_on_c, 5, 47, 0
7, 24780, Note_on_c, 5, 50, 120
7, 24840, Note_on_c, 5, 50, 0
7, 24840, Note_on_c, 5, 43, 120
7, 24900, Note_on_c, 5, 43, 0
7, 24900, Note_on_c, 5, 47, 120
7, 24960, Note_on_c, 5, 47, 0
7, 24960, Note_on_c, 5, 55, 120
7, 24960, Note_on_c, 5, 48, 120
7, 25020, Note_on_c, 5, 48, 0
7, 25020, Note_on_c, 5, 55, 0
7, 25200, Note_on_c, 5, 63, 120
7, 25200, Note_on_c, 5, 60, 120
7, 25230, Note_on_c, 5, 63, 0
7, 25230, Note_on_c, 5, 62, 120
7, 25260, Note_on_c, 5, 62, 0
7, 25260, Note_on_c, 5, 60, 0
7, 25260, Note_on_c, 5, 63, 120
7, 25290, Note_on_c, 5, 63, 0
7, 25290, Note_on_c, 5, 65, 120
7, 25320, Note_on_c, 5, 65, 0
7, 25320, Note_on_c, 5, 67, 120
7, 25350, Note_on_c, 5, 67, 0
7, 25350, Note_on_c, 5, 65, 120
7, 25380, Note_on_c, 5, 65, 0
7, 25380, Note_on_c, 5, 67, 120
7, 25410, Note_on_c, 5, 67, 0
7, 25410, Note_on_c, 5, 65, 120
7, 25440, Note_on_c, 5, 65, 0
7, 25440, Note_on_c, 5, 48, 120
7, 25440, Note_on_c, 5, 51, 120
7, 25440, Note_on_c, 5, 55, 120
7, 25500, Note_on_c, 5, 55, 0
7, 25500, Note_on_c, 5, 51, 0
7, 25500, Note_on_c, 5, 48, 0
7, 25500, Note_on_c, 5, 50, 120
7, 25560, Note_on_c, 5, 50, 0
7, 25560, Note_on_c, 5, 51, 120
7, 25620, Note_on_c, 5, 51, 0
7, 25620, Note_on_c, 5, 48, 120
7, 25680, Note_on_c, 5, 48, 0
7, 25680, Note_on_c, 5, 50, 120
7, 25740, Note_on_c, 5, 50, 0
7, 25740, Note_on_c, 5, 38, 120
7, 25800, Note_on_c, 5, 38, 0
7, 25980, Note_on_c, 5, 57, 120
7, 26040, Note_on_c, 5, 57, 0
7, 26040, Note_on_c, 5, 54, 120
7, 26100, Note_on_c, 5, 54, 0
7, 26100, Note_on_c, 5, 50, 120
7, 26160, Note_on_c, 5, 50, 0
7, 26160, Note_on_c, 5, 45, 120
7, 26220, Note_on_c, 5, 45, 0
7, 26220, Note_on_c, 5, 50, 120
7, 26280, Note_on_c, 5, 50, 0
7, 26280, Note_on_c, 5, 45, 120
7, 26340, Note_on_c, 5, 45, 0
7, 26340, Note_on_c, 5, 48, 120
7, 26400, Note_on_c, 5, 48, 0
7, 26400, Note_on_c, 5, 38, 120
7, 26460, Note_on_c, 5, 38, 0
7, 26460, Note_on_c, 5, 62, 120
7, 26520, Note_on_c, 5, 62, 0
7, 26520, Note_on_c, 5, 57, 120
7, 26580, Note_on_c, 5, 57, 0
7, 26580, Note_on_c, 5, 60, 120
7, 26640, Note_on_c, 5, 60, 0
7, 26640, Note_on_c, 5, 54, 120
7, 26700, Note_on_c, 5, 54, 0
7, 26700, Note_on_c, 5, 57, 120
7, 26760, Note_on_c, 5, 57, 0
7, 26760, Note_on_c, 5, 50, 120
7, 26820, Note_on_c, 5, 50, 0
7, 26820, Note_on_c, 5, 54, 120
7, 26880, Note_on_c, 5, 54, 0
7, 26880, Note_on_c, 5, 43, 120
7, 26940, Note_on_c, 5, 43, 0
7, 26940, Note_on_c, 5, 50, 120
7, 26970, Note_on_c, 5, 50, 0
7, 26970, Note_on_c, 5, 48, 120
7, 27000, Note_on_c, 5, 48, 0
7, 27000, Note_on_c, 5, 46, 120
7, 27030, Note_on_c, 5, 46, 0
7, 27030, Note_on_c, 5, 48, 120
7, 27060, Note_on_c, 5, 48, 0
7, 27060, Note_on_c, 5, 50, 120
7, 27090, Note_on_c, 5, 50, 0
7, 27090, Note_on_c, 5, 48, 120
7, 27120, Note_on_c, 5, 48, 0
7, 27120, Note_on_c, 5, 46, 120
7, 27150, Note_on_c, 5, 46, 0
7, 27150, Note_on_c, 5, 48, 120
7, 27180, Note_on_c, 5, 48, 0
7, 27180, Note_on_c, 5, 50, 120
7, 27210, Note_on_c, 5, 50, 0
7, 27210, Note_on_c, 5, 48, 120
7, 27240, Note_on_c, 5, 48, 0
7, 27240, Note_on_c, 5, 46, 120
7, 27270, Note_on_c, 5, 46, 0
7, 27270, Note_on_c, 5, 48, 120
7, 27300, Note_on_c, 5, 48, 0
7, 27300, Note_on_c, 5, 50, 120
7, 27330, Note_on_c, 5, 50, 0
7, 27330, Note_on_c, 5, 48, 120
7, 27360, Note_on_c, 5, 48, 0
7, 27360, Note_on_c, 5, 46, 120
7, 27389, Note_on_c, 5, 46, 0
7, 27390, Note_on_c, 5, 48, 120
7, 27419, Note_on_c, 5, 48, 0
7, 27420, Note_on_c, 5, 46, 120
7, 27449, Note_on_c, 5, 46, 0
7, 27450, Note_on_c, 5, 44, 120
7, 27479, Note_on_c, 5, 44, 0
7, 27480, Note_on_c, 5, 43, 120
7, 27509, Note_on_c, 5, 43, 0
7, 27510, Note_on_c, 5, 44, 120
7, 27539, Note_on_c, 5, 44, 0
7, 27540, Note_on_c, 5, 46, 120
7, 27569, Note_on_c, 5, 46, 0
7, 27570, Note_on_c, 5, 44, 120
7, 27599, Note_on_c, 5, 44, 0
7, 27600, Note_on_c, 5, 43, 120
7, 27629, Note_on_c, 5, 43, 0
7, 27630, Note_on_c, 5, 44, 120
7, 27659, Note_on_c, 5, 44, 0
7, 27660, Note_on_c, 5, 46, 120
7, 27689, Note_on_c, 5, 46, 0
7, 27690, Note_on_c, 5, 44, 120
7, 27719, Note_on_c, 5, 44, 0
7, 27720, Note_on_c, 5, 43, 120
7, 27749, Note_on_c, 5, 43, 0
7, 27750, Note_on_c, 5, 44, 120
7, 27779, Note_on_c, 5, 44, 0
7, 27780, Note_on_c, 5, 46, 120
7, 27809, Note_on_c, 5, 46, 0
7, 27810, Note_on_c, 5, 44, 120
7, 27839, Note_on_c, 5, 44, 0
7, 27840, Note_on_c, 5, 43, 120
7, 27869, Note_on_c, 5, 43, 0
7, 27870, Note_on_c, 5, 44, 120
7, 27899, Note_on_c, 5, 44, 0
7, 27900, Note_on_c, 5, 43, 120
7, 27929, Note_on_c, 5, 43, 0
7, 27930, Note_on_c, 5, 41, 120
7, 27959, Note_on_c, 5, 41, 0
7, 27960, Note_on_c, 5, 39, 120
7, 27989, Note_on_c, 5, 39, 0
7, 27990, Note_on_c, 5, 41, 120
7, 28019, Note_on_c, 5, 41, 0
7, 28020, Note_on_c, 5, 43, 120
7, 28049, Note_on_c, 5, 43, 0
7, 28050, Note_on_c, 5, 41, 120
7, 28079, Note_on_c, 5, 41, 0
7, 28080, Note_on_c, 5, 39, 120
7, 28109, Note_on_c, 5, 39, 0
7, 28110, Note_on_c, 5, 41, 120
7, 28139, Note_on_c, 5, 41, 0
7, 28140, Note_on_c, 5, 43, 120
7, 28169, Note_on_c, 5, 43, 0
7, 28170, Note_on_c, 5, 41, 120
7, 28199, Note_on_c, 5, 41, 0
7, 28200, Note_on_c, 5, 39, 120
7, 28259, Note_on_c, 5, 39, 0
7, 28620, Note_on_c, 5, 57, 120
7, 28620, Note_on_c, 5, 53, 120
7, 28679, Note_on_c, 5, 53, 0
7, 28679, Note_on_c, 5, 57, 0
7, 28680, Note_on_c, 5, 58, 120
7, 28680, Note_on_c, 5, 55, 120
7, 28739, Note_on_c, 5, 55, 0
7, 28739, Note_on_c, 5, 58, 0
7, 28740, Note_on_c, 5, 57, 120
7, 28740, Note_on_c, 5, 60, 120
7, 28799, Note_on_c, 5, 60, 0
7, 28799, Note_on_c, 5, 57, 0
7, 28800, Note_on_c, 5, 58, 120
7, 28800, Note_on_c, 5, 53, 120
7, 28800, Note_on_c, 5, 50, 120
7, 28800, Note_on_c, 5, 46, 120
7, 28919, Note_on_c, 5, 46, 0
7, 28919, Note_on_c, 5, 58, 0
7, 28919, Note_on_c, 5, 53, 0
7, 28919, Note_on_c, 5, 50, 0
7, 29040, Note_on_c, 5, 58, 120
7, 29159, Note_on_c, 5, 58, 0
7, 29280, Note_on_c, 5, 46, 120
7, 29280, Note_on_c, 5, 53, 120
7, 29339, Note_on_c, 5, 53, 0
7, 29339, Note_on_c, 5, 46, 0
7, 29340, Note_on_c, 5, 58, 120
7, 29399, Note_on_c, 5, 58, 0
7, 29400, Note_on_c, 5, 55, 120
7, 29459, Note_on_c, 5, 55, 0
7, 29460, Note_on_c, 5, 51, 120
7, 29519, Note_on_c, 5, 51, 0
7, 29520, Note_on_c, 5, 48, 120
7, 29579, Note_on_c, 5, 48, 0
7, 29580, Note_on_c, 5, 60, 120
7, 29639, Note_on_c, 5, 60, 0
7, 29670, Note_on_c, 5, 62, 120
7, 29699, Note_on_c, 5, 62, 0
7, 29700, Note_on_c, 5, 60, 120
7, 29729, Note_on_c, 5, 60, 0
7, 29730, Note_on_c, 5, 58, 120
7, 29759, Note_on_c, 5, 58, 0
7, 29760, Note_on_c, 5, 60, 120
7, 29819, Note_on_c, 5, 60, 0
7, 29820, Note_on_c, 5, 57, 120
7, 29879, Note_on_c, 5, 57, 0
7, 29880, Note_on_c, 5, 53, 120
7, 29939, Note_on_c, 5, 53, 0
7, 29940, Note_on_c, 5, 50, 120
7, 29999, Note_on_c, 5, 50, 0
7, 30000, Note_on_c, 5, 46, 120
7, 30059, Note_on_c, 5, 46, 0
7, 30060, Note_on_c, 5, 58, 120
7, 30119, Note_on_c, 5, 58, 0
7, 30150, Note_on_c, 5, 60, 120
7, 30179, Note_on_c, 5, 60, 0
7, 30180, Note_on_c, 5, 58, 120
7, 30209, Note_on_c, 5, 58, 0
7, 30210, Note_on_c, 5, 57, 120
7, 30239, Note_on_c, 5, 57, 0
7, 30240, Note_on_c, 5, 58, 120
7, 30299, Note_on_c, 5, 58, 0
7, 30300, Note_on_c, 5, 55, 120
7, 30359, Note_on_c, 5, 55, 0
7, 30360, Note_on_c, 5, 51, 120
7, 30419, Note_on_c, 5, 51, 0
7, 30420, Note_on_c, 5, 48, 120
7, 30479, Note_on_c, 5, 48, 0
7, 30480, Note_on_c, 5, 45, 120
7, 30539, Note_on_c, 5, 45, 0
7, 30540, Note_on_c, 5, 57, 120
7, 30599, Note_on_c, 5, 57, 0
7, 30630, Note_on_c, 5, 55, 120
7, 30659, Note_on_c, 5, 55, 0
7, 30660, Note_on_c, 5, 53, 120
7, 30689, Note_on_c, 5, 53, 0
7, 30690, Note_on_c, 5, 51, 120
7, 30719, Note_on_c, 5, 51, 0
7, 30720, Note_on_c, 5, 50, 120
7, 30839, Note_on_c, 5, 50, 0
7, 30960, Note_on_c, 5, 51, 120
7, 31079, Note_on_c, 5, 51, 0
7, 31200, Note_on_c, 5, 53, 120
7, 31319, Note_on_c, 5, 53, 0
7, 31560, Note_on_c, 5, 55, 120
7, 31589, Note_on_c, 5, 55, 0
7, 31590, Note_on_c, 5, 56, 120
7, 31619, Note_on_c, 5, 56, 0
7, 31620, Note_on_c, 5, 58, 120
7, 31649, Note_on_c, 5, 58, 0
7, 31650, Note_on_c, 5, 56, 120
7, 31679, Note_on_c, 5, 56, 0
7, 31680, Note_on_c, 5, 55, 120
7, 31709, Note_on_c, 5, 55, 0
7, 31710, Note_on_c, 5, 56, 120
7, 31739, Note_on_c, 5, 56, 0
7, 31740, Note_on_c, 5, 58, 120
7, 31769, Note_on_c, 5, 58, 0
7, 31770, Note_on_c, 5, 56, 120
7, 31799, Note_on_c, 5, 56, 0
7, 31800, Note_on_c, 5, 55, 120
7, 31829, Note_on_c, 5, 55, 0
7, 31830, Note_on_c, 5, 58, 120
7, 31859, Note_on_c, 5, 58, 0
7, 31860, Note_on_c, 5, 57, 120
7, 31889, Note_on_c, 5, 57, 0
7, 31890, Note_on_c, 5, 55, 120
7, 31919, Note_on_c, 5, 55, 0
7, 31920, Note_on_c, 5, 53, 120
7, 31949, Note_on_c, 5, 53, 0
7, 31950, Note_on_c, 5, 50, 120
7, 31979, Note_on_c, 5, 50, 0
7, 31980, Note_on_c, 5, 48, 120
7, 32009, Note_on_c, 5, 48, 0
7, 32010, Note_on_c, 5, 46, 120
7, 32039, Note_on_c, 5, 46, 0
7, 32040, Note_on_c, 5, 45, 120
7, 32069, Note_on_c, 5, 45, 0
7, 32070, Note_on_c, 5, 46, 120
7, 32099, Note_on_c, 5, 46, 0
7, 32100, Note_on_c, 5, 45, 120
7, 32129, Note_on_c, 5, 45, 0
7, 32130, Note_on_c, 5, 43, 120
7, 32159, Note_on_c, 5, 43, 0
7, 32160, Note_on_c, 5, 45, 120
7, 32189, Note_on_c, 5, 45, 0
7, 32190, Note_on_c, 5, 46, 120
7, 32219, Note_on_c, 5, 46, 0
7, 32220, Note_on_c, 5, 45, 120
7, 32249, Note_on_c, 5, 45, 0
7, 32250, Note_on_c, 5, 43, 120
7, 32279, Note_on_c, 5, 43, 0
7, 32280, Note_on_c, 5, 45, 120
7, 32309, Note_on_c, 5, 45, 0
7, 32310, Note_on_c, 5, 48, 120
7, 32339, Note_on_c, 5, 48, 0
7, 32340, Note_on_c, 5, 45, 120
7, 32369, Note_on_c, 5, 45, 0
7, 32370, Note_on_c, 5, 41, 120
7, 32399, Note_on_c, 5, 41, 0
7, 32400, Note_on_c, 5, 46, 120
7, 32459, Note_on_c, 5, 46, 0
7, 33600, Note_on_c, 5, 58, 120
7, 33600, Note_on_c, 5, 53, 120
7, 33600, Note_on_c, 5, 50, 120
7, 33600, Note_on_c, 5, 46, 120
7, 33719, Note_on_c, 5, 46, 0
7, 33719, Note_on_c, 5, 58, 0
7, 33719, Note_on_c, 5, 53, 0
7, 33719, Note_on_c, 5, 50, 0
7, 33840, Note_on_c, 5, 58, 120
7, 33959, Note_on_c, 5, 58, 0
7, 34080, Note_on_c, 5, 46, 120
7, 34080, Note_on_c, 5, 53, 120
7, 34139, Note_on_c, 5, 53, 0
7, 34139, Note_on_c, 5, 46, 0
7, 34140, Note_on_c, 5, 58, 120
7, 34199, Note_on_c, 5, 58, 0
7, 34200, Note_on_c, 5, 55, 120
7, 34259, Note_on_c, 5, 55, 0
7, 34260, Note_on_c, 5, 51, 120
7, 34319, Note_on_c, 5, 51, 0
7, 34320, Note_on_c, 5, 57, 120
7, 34379, Note_on_c, 5, 57, 0
7, 34380, Note_on_c, 5, 45, 120
7, 34439, Note_on_c, 5, 45, 0
7, 34560, Note_on_c, 5, 53, 120
7, 34560, Note_on_c, 5, 60, 120
7, 34560, Note_on_c, 5, 57, 120
7, 34679, Note_on_c, 5, 57, 0
7, 34679, Note_on_c, 5, 60, 0
7, 34679, Note_on_c, 5, 53, 0
7, 34800, Note_on_c, 5, 53, 120
7, 34919, Note_on_c, 5, 53, 0
7, 35040, Note_on_c, 5, 53, 120
7, 35040, Note_on_c, 5, 60, 120
7, 35099, Note_on_c, 5, 60, 0
7, 35099, Note_on_c, 5, 53, 0
7, 35100, Note_on_c, 5, 55, 120
7, 35159, Note_on_c, 5, 55, 0
7, 35160, Note_on_c, 5, 53, 120
7, 35219, Note_on_c, 5, 53, 0
7, 35220, Note_on_c, 5, 51, 120
7, 35279, Note_on_c, 5, 51, 0
7, 35280, Note_on_c, 5, 50, 120
7, 35339, Note_on_c, 5, 50, 0
7, 35340, Note_on_c, 5, 38, 120
7, 35399, Note_on_c, 5, 38, 0
7, 35520, Note_on_c, 5, 55, 120
7, 35579, Note_on_c, 5, 55, 0
7, 35580, Note_on_c, 5, 43, 120
7, 35639, Note_on_c, 5, 43, 0
7, 35760, Note_on_c, 5, 56, 120
7, 35819, Note_on_c, 5, 56, 0
7, 35820, Note_on_c, 5, 44, 120
7, 35879, Note_on_c, 5, 44, 0
7, 36000, Note_on_c, 5, 58, 120
7, 36059, Note_on_c, 5, 58, 0
7, 36060, Note_on_c, 5, 46, 120
7, 36119, Note_on_c, 5, 46, 0
7, 36240, Note_on_c, 5, 56, 120
7, 36269, Note_on_c, 5, 56, 0
7, 36270, Note_on_c, 5, 58, 120
7, 36299, Note_on_c, 5, 58, 0
7, 36300, Note_on_c, 5, 60, 120
7, 36329, Note_on_c, 5, 60, 0
7, 36330, Note_on_c, 5, 58, 120
7, 36359, Note_on_c, 5, 58, 0
7, 36360, Note_on_c, 5, 56, 120
7, 36389, Note_on_c, 5, 56, 0
7, 36390, Note_on_c, 5, 55, 120
7, 36419, Note_on_c, 5, 55, 0
7, 36420, Note_on_c, 5, 53, 120
7, 36449, Note_on_c, 5, 53, 0
7, 36450, Note_on_c, 5, 51, 120
7, 36479, Note_on_c, 5, 51, 0
7, 36480, Note_on_c, 5, 50, 120
7, 36539, Note_on_c, 5, 50, 0
7, 36540, Note_on_c, 5, 62, 120
7, 36569, Note_on_c, 5, 62, 0
7, 36570, Note_on_c, 5, 64, 120
7, 36599, Note_on_c, 5, 64, 0
7, 36600, Note_on_c, 5, 65, 120
7, 36659, Note_on_c, 5, 65, 0
7, 36660, Note_on_c, 5, 53, 120
7, 36719, Note_on_c, 5, 53, 0
7, 36720, Note_on_c, 5, 60, 120
7, 36779, Note_on_c, 5, 60, 0
7, 36780, Note_on_c, 5, 55, 120
7, 36809, Note_on_c, 5, 55, 0
7, 36810, Note_on_c, 5, 53, 120
7, 36839, Note_on_c, 5, 53, 0
7, 36840, Note_on_c, 5, 52, 120
7, 36899, Note_on_c, 5, 52, 0
7, 36900, Note_on_c, 5, 48, 120
7, 36959, Note_on_c, 5, 48, 0
7, 36960, Note_on_c, 5, 53, 120
7, 36989, Note_on_c, 5, 53, 0
7, 36990, Note_on_c, 5, 52, 120
7, 37019, Note_on_c, 5, 52, 0
7, 37020, Note_on_c, 5, 53, 120
7, 37049, Note_on_c, 5, 53, 0
7, 37050, Note_on_c, 5, 56, 120
7, 37079, Note_on_c, 5, 56, 0
7, 37080, Note_on_c, 5, 61, 120
7, 37109, Note_on_c, 5, 61, 0
7, 37110, Note_on_c, 5, 60, 120
7, 37139, Note_on_c, 5, 60, 0
7, 37140, Note_on_c, 5, 61, 120
7, 37169, Note_on_c, 5, 61, 0
7, 37170, Note_on_c, 5, 58, 120
7, 37199, Note_on_c, 5, 58, 0
7, 37200, Note_on_c, 5, 55, 120
7, 37259, Note_on_c, 5, 55, 0
7, 37260, Note_on_c, 5, 60, 120
7, 37289, Note_on_c, 5, 60, 0
7, 37290, Note_on_c, 5, 62, 120
7, 37319, Note_on_c, 5, 62, 0
7, 37320, Note_on_c, 5, 64, 120
7, 37379, Note_on_c, 5, 64, 0
7, 37380, Note_on_c, 5, 52, 120
7, 37439, Note_on_c, 5, 52, 0
7, 37470, Note_on_c, 5, 53, 120
7, 37499, Note_on_c, 5, 53, 0
7, 37500, Note_on_c, 5, 52, 120
7, 37529, Note_on_c, 5, 52, 0
7, 37530, Note_on_c, 5, 53, 120
7, 37559, Note_on_c, 5, 53, 0
7, 37560, Note_on_c, 5, 41, 120
7, 37619, Note_on_c, 5, 41, 0
7, 37710, Note_on_c, 5, 53, 120
7, 37739, Note_on_c, 5, 53, 0
7, 37740, Note_on_c, 5, 52, 120
7, 37769, Note_on_c, 5, 52, 0
7, 37770, Note_on_c, 5, 53, 120
7, 37799, Note_on_c, 5, 53, 0
7, 37800, Note_on_c, 5, 41, 120
7, 37859, Note_on_c, 5, 41, 0
7, 37950, Note_on_c, 5, 53, 120
7, 37979, Note_on_c, 5, 53, 0
7, 37980, Note_on_c, 5, 52, 120
7, 38009, Note_on_c, 5, 52, 0
7, 38010, Note_on_c, 5, 53, 120
7, 38039, Note_on_c, 5, 53, 0
7, 38040, Note_on_c, 5, 41, 120
7, 38099, Note_on_c, 5, 41, 0
7, 38220, Note_on_c, 5, 53, 120
7, 38249, Note_on_c, 5, 53, 0
7, 38250, Note_on_c, 5, 52, 120
7, 38279, Note_on_c, 5, 52, 0
7, 38280, Note_on_c, 5, 53, 120
7, 38309, Note_on_c, 5, 53, 0
7, 38310, Note_on_c, 5, 55, 120
7, 38339, Note_on_c, 5, 55, 0
7, 38340, Note_on_c, 5, 56, 120
7, 38369, Note_on_c, 5, 56, 0
7, 38370, Note_on_c, 5, 58, 120
7, 38399, Note_on_c, 5, 58, 0
7, 38400, Note_on_c, 5, 60, 120
7, 38459, Note_on_c, 5, 60, 0
7, 38550, Note_on_c, 5, 60, 120
7, 38579, Note_on_c, 5, 60, 0
7, 38580, Note_on_c, 5, 59, 120
7, 38609, Note_on_c, 5, 59, 0
7, 38610, Note_on_c, 5, 60, 120
7, 38639, Note_on_c, 5, 60, 0
7, 38640, Note_on_c, 5, 48, 120
7, 38699, Note_on_c, 5, 48, 0
7, 38790, Note_on_c, 5, 48, 120
7, 38819, Note_on_c, 5, 48, 0
7, 38820, Note_on_c, 5, 47, 120
7, 38849, Note_on_c, 5, 47, 0
7, 38850, Note_on_c, 5, 48, 120
7, 38879, Note_on_c, 5, 48, 0
7, 38880, Note_on_c, 5, 55, 120
7, 38939, Note_on_c, 5, 55, 0
7, 39030, Note_on_c, 5, 53, 120
7, 39059, Note_on_c, 5, 53, 0
7, 39060, Note_on_c, 5, 56, 120
7, 39089, Note_on_c, 5, 56, 0
7, 39090, Note_on_c, 5, 59, 120
7, 39119, Note_on_c, 5, 59, 0
7, 39120, Note_on_c, 5, 60, 120
7, 39179, Note_on_c, 5, 60, 0
7, 39180, Note_on_c, 5, 48, 120
7, 39239, Note_on_c, 5, 48, 0
7, 39270, Note_on_c, 5, 48, 120
7, 39299, Note_on_c, 5, 48, 0
7, 39300, Note_on_c, 5, 50, 120
7, 39329, Note_on_c, 5, 50, 0
7, 39330, Note_on_c, 5, 52, 120
7, 39359, Note_on_c, 5, 52, 0
7, 39360, Note_on_c, 5, 53, 120
7, 39419, Note_on_c, 5, 53, 0
7, 39420, Note_on_c, 5, 41, 120
7, 39479, Note_on_c, 5, 41, 0
7, 39600, Note_on_c, 5, 51, 120
7, 39659, Note_on_c, 5, 51, 0
7, 39660, Note_on_c, 5, 39, 120
7, 39719, Note_on_c, 5, 39, 0
7, 39840, Note_on_c, 5, 50, 120
7, 39899, Note_on_c, 5, 50, 0
7, 39900, Note_on_c, 5, 53, 120
7, 39959, Note_on_c, 5, 53, 0
7, 39960, Note_on_c, 5, 58, 120
7, 40019, Note_on_c, 5, 58, 0
7, 40020, Note_on_c, 5, 46, 120
7, 40079, Note_on_c, 5, 46, 0
7, 40080, Note_on_c, 5, 51, 120
7, 40139, Note_on_c, 5, 51, 0
7, 40140, Note_on_c, 5, 39, 120
7, 40199, Note_on_c, 5, 39, 0
7, 40320, Note_on_c, 5, 50, 120
7, 40379, Note_on_c, 5, 50, 0
7, 40380, Note_on_c, 5, 38, 120
7, 40439, Note_on_c, 5, 38, 0
7, 40560, Note_on_c, 5, 48, 120
7, 40619, Note_on_c, 5, 48, 0
7, 40620, Note_on_c, 5, 36, 120
7, 40679, Note_on_c, 5, 36, 0
7, 40800, Note_on_c, 5, 47, 120
7, 40859, Note_on_c, 5, 47, 0
7, 40860, Note_on_c, 5, 50, 120
7, 40919, Note_on_c, 5, 50, 0
7, 40920, Note_on_c, 5, 55, 120
7, 40979, Note_on_c, 5, 55, 0
7, 40980, Note_on_c, 5, 43, 120
7, 41039, Note_on_c, 5, 43, 0
7, 41040, Note_on_c, 5, 48, 120
7, 41099, Note_on_c, 5, 48, 0
7, 41100, Note_on_c, 5, 36, 120
7, 41159, Note_on_c, 5, 36, 0
7, 41280, Note_on_c, 5, 50, 120
7, 41339, Note_on_c, 5, 50, 0
7, 41340, Note_on_c, 5, 38, 120
7, 41399, Note_on_c, 5, 38, 0
7, 41520, Note_on_c, 5, 51, 120
7, 41579, Note_on_c, 5, 51, 0
7, 41580, Note_on_c, 5, 39, 120
7, 41639, Note_on_c, 5, 39, 0
7, 41760, Note_on_c, 5, 53, 120
7, 41819, Note_on_c, 5, 53, 0
7, 41820, Note_on_c, 5, 41, 120
7, 41879, Note_on_c, 5, 41, 0
7, 42000, Note_on_c, 5, 43, 120
7, 42059, Note_on_c, 5, 43, 0
7, 42060, Note_on_c, 5, 47, 120
7, 42089, Note_on_c, 5, 47, 0
7, 42090, Note_on_c, 5, 50, 120
7, 42119, Note_on_c, 5, 50, 0
7, 42120, Note_on_c, 5, 55, 120
7, 42179, Note_on_c, 5, 55, 0
7, 42360, Note_on_c, 5, 48, 120
7, 42360, Note_on_c, 5, 51, 120
7, 42419, Note_on_c, 5, 51, 0
7, 42419, Note_on_c, 5, 48, 0
7, 42420, Note_on_c, 5, 50, 120
7, 42420, Note_on_c, 5, 53, 120
7, 42479, Note_on_c, 5, 53, 0
7, 42479, Note_on_c, 5, 50, 0
7, 42600, Note_on_c, 5, 51, 120
7, 42659, Note_on_c, 5, 51, 0
7, 42660, Note_on_c, 5, 48, 120
7, 42719, Note_on_c, 5, 48, 0
7, 42780, Note_on_c, 5, 48, 120
7, 42839, Note_on_c, 5, 48, 0
7, 42840, Note_on_c, 5, 44, 120
7, 42899, Note_on_c, 5, 44, 0
7, 42900, Note_on_c, 5, 41, 120
7, 42959, Note_on_c, 5, 41, 0
7, 42960, Note_on_c, 5, 46, 120
7, 43019, Note_on_c, 5, 46, 0
7, 43020, Note_on_c, 5, 50, 120
7, 43049, Note_on_c, 5, 50, 0
7, 43050, Note_on_c, 5, 53, 120
7, 43079, Note_on_c, 5, 53, 0
7, 43080, Note_on_c, 5, 58, 120
7, 43139, Note_on_c, 5, 58, 0
7, 43320, Note_on_c, 5, 46, 120
7, 43320, Note_on_c, 5, 50, 120
7, 43379, Note_on_c, 5, 50, 0
7, 43379, Note_on_c, 5, 46, 0
7, 43380, Note_on_c, 5, 51, 120
7, 43380, Note_on_c, 5, 48, 120
7, 43439, Note_on_c, 5, 48, 0
7, 43439, Note_on_c, 5, 51, 0
7, 43560, Note_on_c, 5, 50, 120
7, 43619, Note_on_c, 5, 50, 0
7, 43620, Note_on_c, 5, 46, 120
7, 43679, Note_on_c, 5, 46, 0
7, 43740, Note_on_c, 5, 46, 120
7, 43799, Note_on_c, 5, 46, 0
7, 43800, Note_on_c, 5, 43, 120
7, 43859, Note_on_c, 5, 43, 0
7, 43860, Note_on_c, 5, 39, 120
7, 43919, Note_on_c, 5, 39, 0
7, 43920, Note_on_c, 5, 44, 120
7, 43979, Note_on_c, 5, 44, 0
7, 43980, Note_on_c, 5, 48, 120
7, 44009, Note_on_c, 5, 48, 0
7, 44010, Note_on_c, 5, 51, 120
7, 44039, Note_on_c, 5, 51, 0
7, 44040, Note_on_c, 5, 56, 120
7, 44099, Note_on_c, 5, 56, 0
7, 44220, Note_on_c, 5, 53, 120
7, 44279, Note_on_c, 5, 53, 0
7, 44280, Note_on_c, 5, 56, 120
7, 44339, Note_on_c, 5, 56, 0
7, 44340, Note_on_c, 5, 60, 120
7, 44399, Note_on_c, 5, 60, 0
7, 44400, Note_on_c, 5, 65, 120
7, 44459, Note_on_c, 5, 65, 0
7, 44460, Note_on_c, 5, 53, 120
7, 44519, Note_on_c, 5, 53, 0
7, 44700, Note_on_c, 5, 53, 120
7, 44759, Note_on_c, 5, 53, 0
7, 44760, Note_on_c, 5, 56, 120
7, 44819, Note_on_c, 5, 56, 0
7, 44820, Note_on_c, 5, 61, 120
7, 44879, Note_on_c, 5, 61, 0
7, 44880, Note_on_c, 5, 65, 120
7, 44939, Note_on_c, 5, 65, 0
7, 44940, Note_on_c, 5, 53, 120
7, 44999, Note_on_c, 5, 53, 0
7, 45180, Note_on_c, 5, 48, 120
7, 45239, Note_on_c, 5, 48, 0
7, 45240, Note_on_c, 5, 53, 120
7, 45299, Note_on_c, 5, 53, 0
7, 45300, Note_on_c, 5, 56, 120
7, 45359, Note_on_c, 5, 56, 0
7, 45360, Note_on_c, 5, 50, 120
7, 45419, Note_on_c, 5, 50, 0
7, 45420, Note_on_c, 5, 59, 120
7, 45479, Note_on_c, 5, 59, 0
7, 45480, Note_on_c, 5, 60, 120
7, 45539, Note_on_c, 5, 60, 0
7, 45540, Note_on_c, 5, 56, 120
7, 45599, Note_on_c, 5, 56, 0
7, 45600, Note_on_c, 5, 55, 120
7, 45659, Note_on_c, 5, 55, 0
7, 45660, Note_on_c, 5, 53, 120
7, 45719, Note_on_c, 5, 53, 0
7, 45720, Note_on_c, 5, 55, 120
7, 45779, Note_on_c, 5, 55, 0
7, 45780, Note_on_c, 5, 43, 120
7, 45839, Note_on_c, 5, 43, 0
7, 45840, Note_on_c, 5, 50, 120
7, 45899, Note_on_c, 5, 50, 0
7, 45900, Note_on_c, 5, 38, 120
7, 45959, Note_on_c, 5, 38, 0
7, 46140, Note_on_c, 5, 57, 120
7, 46199, Note_on_c, 5, 57, 0
7, 46200, Note_on_c, 5, 54, 120
7, 46259, Note_on_c, 5, 54, 0
7, 46260, Note_on_c, 5, 50, 120
7, 46319, Note_on_c, 5, 50, 0
7, 46320, Note_on_c, 5, 45, 120
7, 46379, Note_on_c, 5, 45, 0
7, 46380, Note_on_c, 5, 50, 120
7, 46439, Note_on_c, 5, 50, 0
7, 46440, Note_on_c, 5, 45, 120
7, 46499, Note_on_c, 5, 45, 0
7, 46500, Note_on_c, 5, 48, 120
7, 46559, Note_on_c, 5, 48, 0
7, 46560, Note_on_c, 5, 38, 120
7, 46619, Note_on_c, 5, 38, 0
7, 46620, Note_on_c, 5, 62, 120
7, 46679, Note_on_c, 5, 62, 0
7, 46680, Note_on_c, 5, 57, 120
7, 46739, Note_on_c, 5, 57, 0
7, 46740, Note_on_c, 5, 60, 120
7, 46799, Note_on_c, 5, 60, 0
7, 46800, Note_on_c, 5, 54, 120
7, 46859, Note_on_c, 5, 54, 0
7, 46860, Note_on_c, 5, 57, 120
7, 46919, Note_on_c, 5, 57, 0
7, 46920, Note_on_c, 5, 50, 120
7, 46979, Note_on_c, 5, 50, 0
7, 46980, Note_on_c, 5, 54, 120
7, 47039, Note_on_c, 5, 54, 0
7, 47040, Note_on_c, 5, 43, 120
7, 47069, Note_on_c, 5, 43, 0
7, 47070, Note_on_c, 5, 55, 120
7, 47099, Note_on_c, 5, 55, 0
7, 47100, Note_on_c, 5, 53, 120
7, 47129, Note_on_c, 5, 53, 0
7, 47130, Note_on_c, 5, 51, 120
7, 47159, Note_on_c, 5, 51, 0
7, 47160, Note_on_c, 5, 50, 120
7, 47189, Note_on_c, 5, 50, 0
7, 47190, Note_on_c, 5, 59, 120
7, 47219, Note_on_c, 5, 59, 0
7, 47220, Note_on_c, 5, 51, 120
7, 47249, Note_on_c, 5, 51, 0
7, 47250, Note_on_c, 5, 60, 120
7, 47279, Note_on_c, 5, 60, 0
7, 47280, Note_on_c, 5, 53, 120
7, 47309, Note_on_c, 5, 53, 0
7, 47310, Note_on_c, 5, 59, 120
7, 47339, Note_on_c, 5, 59, 0
7, 47340, Note_on_c, 5, 53, 120
7, 47369, Note_on_c, 5, 53, 0
7, 47370, Note_on_c, 5, 51, 120
7, 47399, Note_on_c, 5, 51, 0
7, 47400, Note_on_c, 5, 50, 120
7, 47429, Note_on_c, 5, 50, 0
7, 47430, Note_on_c, 5, 55, 120
7, 47459, Note_on_c, 5, 55, 0
7, 47460, Note_on_c, 5, 48, 120
7, 47489, Note_on_c, 5, 48, 0
7, 47490, Note_on_c, 5, 60, 120
7, 47519, Note_on_c, 5, 60, 0
7, 47520, Note_on_c, 5, 55, 120
7, 47549, Note_on_c, 5, 55, 0
7, 47550, Note_on_c, 5, 67, 120
7, 47579, Note_on_c, 5, 67, 0
7, 47580, Note_on_c, 5, 65, 120
7, 47609, Note_on_c, 5, 65, 0
7, 47610, Note_on_c, 5, 63, 120
7, 47639, Note_on_c, 5, 63, 0
7, 47640, Note_on_c, 5, 62, 120
7, 47669, Note_on_c, 5, 62, 0
7, 47670, Note_on_c, 5, 60, 120
7, 47699, Note_on_c, 5, 60, 0
7, 47700, Note_on_c, 5, 59, 120
7, 47729, Note_on_c, 5, 59, 0
7, 47730, Note_on_c, 5, 60, 120
7, 47759, Note_on_c, 5, 60, 0
7, 47760, Note_on_c, 5, 62, 120
7, 47789, Note_on_c, 5, 62, 0
7, 47790, Note_on_c, 5, 60, 120
7, 47819, Note_on_c, 5, 60, 0
7, 47820, Note_on_c, 5, 59, 120
7, 47849, Note_on_c, 5, 59, 0
7, 47850, Note_on_c, 5, 57, 120
7, 47879, Note_on_c, 5, 57, 0
7, 47880, Note_on_c, 5, 55, 120
7, 47939, Note_on_c, 5, 55, 0
7, 48060, Note_on_c, 5, 62, 120
7, 48119, Note_on_c, 5, 62, 0
7, 48120, Note_on_c, 5, 59, 120
7, 48179, Note_on_c, 5, 59, 0
7, 48180, Note_on_c, 5, 55, 120
7, 48239, Note_on_c, 5, 55, 0
7, 48240, Note_on_c, 5, 50, 120
7, 48299, Note_on_c, 5, 50, 0
7, 48300, Note_on_c, 5, 55, 120
7, 48359, Note_on_c, 5, 55, 0
7, 48360, Note_on_c, 5, 50, 120
7, 48419, Note_on_c, 5, 50, 0
7, 48420, Note_on_c, 5, 53, 120
7, 48479, Note_on_c, 5, 53, 0
7, 48480, Note_on_c, 5, 43, 120
7, 48539, Note_on_c, 5, 43, 0
7, 48540, Note_on_c, 5, 55, 120
7, 48599, Note_on_c, 5, 55, 0
7, 48600, Note_on_c, 5, 50, 120
7, 48659, Note_on_c, 5, 50, 0
7, 48660, Note_on_c, 5, 53, 120
7, 48719, Note_on_c, 5, 53, 0
7, 48720, Note_on_c, 5, 47, 120
7, 48779, Note_on_c, 5, 47, 0
7, 48780, Note_on_c, 5, 50, 120
7, 48839, Note_on_c, 5, 50, 0
7, 48840, Note_on_c, 5, 43, 120
7, 48899, Note_on_c, 5, 43, 0
7, 48900, Note_on_c, 5, 47, 120
7, 48959, Note_on_c, 5, 47, 0
7, 48960, Note_on_c, 5, 48, 120
7, 48960, Note_on_c, 5, 51, 120
7, 48960, Note_on_c, 5, 55, 120
7, 49079, Note_on_c, 5, 55, 0
7, 49079, Note_on_c, 5, 51, 0
7, 49079, Note_on_c, 5, 48, 0
7, 49200, Note_on_c, 5, 60, 120
7, 49319, Note_on_c, 5, 60, 0
7, 49440, Note_on_c, 5, 48, 120
7, 49440, Note_on_c, 5, 51, 120
7, 49440, Note_on_c, 5, 55, 120
7, 49499, Note_on_c, 5, 55, 0
7, 49499, Note_on_c, 5, 51, 0
7, 49499, Note_on_c, 5, 48, 0
7, 49500, Note_on_c, 5, 60, 120
7, 49559, Note_on_c, 5, 60, 0
7, 49560, Note_on_c, 5, 56, 120
7, 49619, Note_on_c, 5, 56, 0
7, 49620, Note_on_c, 5, 53, 120
7, 49679, Note_on_c, 5, 53, 0
7, 49680, Note_on_c, 5, 58, 120
7, 49739, Note_on_c, 5, 58, 0
7, 49740, Note_on_c, 5, 46, 120
7, 49799, Note_on_c, 5, 46, 0
7, 49920, Note_on_c, 5, 58, 120
7, 49920, Note_on_c, 5, 53, 120
7, 49920, Note_on_c, 5, 50, 120
7, 49920, Note_on_c, 5, 46, 120
7, 50039, Note_on_c, 5, 46, 0
7, 50039, Note_on_c, 5, 58, 0
7, 50039, Note_on_c, 5, 53, 0
7, 50039, Note_on_c, 5, 50, 0
7, 50160, Note_on_c, 5, 58, 120
7, 50279, Note_on_c, 5, 58, 0
7, 50400, Note_on_c, 5, 46, 120
7, 50400, Note_on_c, 5, 53, 120
7, 50400, Note_on_c, 5, 50, 120
7, 50459, Note_on_c, 5, 50, 0
7, 50459, Note_on_c, 5, 53, 0
7, 50459, Note_on_c, 5, 46, 0
7, 50460, Note_on_c, 5, 58, 120
7, 50519, Note_on_c, 5, 58, 0
7, 50520, Note_on_c, 5, 55, 120
7, 50579, Note_on_c, 5, 55, 0
7, 50580, Note_on_c, 5, 51, 120
7, 50639, Note_on_c, 5, 51, 0
7, 50640, Note_on_c, 5, 44, 120
7, 50699, Note_on_c, 5, 44, 0
7, 50700, Note_on_c, 5, 56, 120
7, 50759, Note_on_c, 5, 56, 0
7, 50880, Note_on_c, 5, 56, 120
7, 50939, Note_on_c, 5, 56, 0
7, 50940, Note_on_c, 5, 60, 120
7, 50969, Note_on_c, 5, 60, 0
7, 50970, Note_on_c, 5, 58, 120
7, 50999, Note_on_c, 5, 58, 0
7, 51000, Note_on_c, 5, 56, 120
7, 51059, Note_on_c, 5, 56, 0
7, 51060, Note_on_c, 5, 60, 120
7, 51089, Note_on_c, 5, 60, 0
7, 51090, Note_on_c, 5, 58, 120
7, 51119, Note_on_c, 5, 58, 0
7, 51120, Note_on_c, 5, 56, 120
7, 51179, Note_on_c, 5, 56, 0
7, 51180, Note_on_c, 5, 60, 120
7, 51209, Note_on_c, 5, 60, 0
7, 51210, Note_on_c, 5, 58, 120
7, 51239, Note_on_c, 5, 58, 0
7, 51240, Note_on_c, 5, 56, 120
7, 51299, Note_on_c, 5, 56, 0
7, 51300, Note_on_c, 5, 55, 120
7, 51359, Note_on_c, 5, 55, 0
7, 51360, Note_on_c, 5, 53, 120
7, 51419, Note_on_c, 5, 53, 0
7, 51420, Note_on_c, 5, 56, 120
7, 51449, Note_on_c, 5, 56, 0
7, 51450, Note_on_c, 5, 55, 120
7, 51479, Note_on_c, 5, 55, 0
7, 51480, Note_on_c, 5, 53, 120
7, 51539, Note_on_c, 5, 53, 0
7, 51540, Note_on_c, 5, 56, 120
7, 51569, Note_on_c, 5, 56, 0
7, 51570, Note_on_c, 5, 55, 120
7, 51599, Note_on_c, 5, 55, 0
7, 51600, Note_on_c, 5, 53, 120
7, 51659, Note_on_c, 5, 53, 0
7, 51660, Note_on_c, 5, 56, 120
7, 51689, Note_on_c, 5, 56, 0
7, 51690, Note_on_c, 5, 55, 120
7, 51719, Note_on_c, 5, 55, 0
7, 51720, Note_on_c, 5, 53, 120
7, 51779, Note_on_c, 5, 53, 0
7, 51780, Note_on_c, 5, 51, 120
7, 51839, Note_on_c, 5, 51, 0
7, 51840, Note_on_c, 5, 49, 120
7, 51869, Note_on_c, 5, 49, 0
7, 51870, Note_on_c, 5, 48, 120
7, 51899, Note_on_c, 5, 48, 0
7, 51900, Note_on_c, 5, 47, 120
7, 51929, Note_on_c, 5, 47, 0
7, 51930, Note_on_c, 5, 48, 120
7, 51959, Note_on_c, 5, 48, 0
7, 51960, Note_on_c, 5, 50, 120
7, 51989, Note_on_c, 5, 50, 0
7, 51990, Note_on_c, 5, 51, 120
7, 52019, Note_on_c, 5, 51, 0
7, 52020, Note_on_c, 5, 53, 120
7, 52139, Note_on_c, 5, 53, 0
7, 52140, Note_on_c, 5, 60, 120
7, 52140, Note_on_c, 5, 51, 120
7, 52169, Note_on_c, 5, 60, 0
7, 52170, Note_on_c, 5, 59, 120
7, 52199, Note_on_c, 5, 59, 0
7, 52199, Note_on_c, 5, 51, 0
7, 52200, Note_on_c, 5, 56, 120
7, 52200, Note_on_c, 5, 60, 120
7, 52259, Note_on_c, 5, 60, 0
7, 52259, Note_on_c, 5, 56, 0
7, 52260, Note_on_c, 5, 56, 120
7, 52260, Note_on_c, 5, 53, 120
7, 52319, Note_on_c, 5, 53, 0
7, 52319, Note_on_c, 5, 56, 0
7, 52320, Note_on_c, 5, 55, 120
7, 52379, Note_on_c, 5, 55, 0
7, 52380, Note_on_c, 5, 53, 120
7, 52439, Note_on_c, 5, 53, 0
7, 52440, Note_on_c, 5, 55, 120
7, 52499, Note_on_c, 5, 55, 0
7, 52500, Note_on_c, 5, 43, 120
7, 52559, Note_on_c, 5, 43, 0
7, 52560, Note_on_c, 5, 48, 120
7, 52560, Note_on_c, 5, 51, 120
7, 52560, Note_on_c, 5, 55, 120
7, 52799, Note_on_c, 5, 55, 0
7, 52799, Note_on_c, 5, 51, 0
7, 52799, Note_on_c, 5, 48, 0
7, 54300, Note_on_c, 5, 58, 120
7, 54330, Note_on_c, 5, 58, 0
7, 54330, Note_on_c, 5, 57, 120
7, 54360, Note_on_c, 5, 57, 0
7, 54360, Note_on_c, 5, 58, 120
7, 54390, Note_on_c, 5, 58, 0
7, 54390, Note_on_c, 5, 53, 120
7, 54420, Note_on_c, 5, 53, 0
7, 54420, Note_on_c, 5, 60, 120
7, 54450, Note_on_c, 5, 60, 0
7, 54450, Note_on_c, 5, 53, 120
7, 54480, Note_on_c, 5, 53, 0
7, 54480, Note_on_c, 5, 62, 120
7, 54540, Note_on_c, 5, 62, 0
7, 54540, Note_on_c, 5, 50, 120
7, 54600, Note_on_c, 5, 50, 0
7, 54600, Note_on_c, 5, 51, 120
7, 54660, Note_on_c, 5, 51, 0
7, 54660, Note_on_c, 5, 53, 120
7, 54690, Note_on_c, 5, 53, 0
7, 54690, Note_on_c, 5, 57, 120
7, 54720, Note_on_c, 5, 57, 0
7, 54720, Note_on_c, 5, 60, 120
7, 54750, Note_on_c, 5, 60, 0
7, 54750, Note_on_c, 5, 65, 120
7, 54780, Note_on_c, 5, 65, 0
7, 54780, Note_on_c, 5, 63, 120
7, 54810, Note_on_c, 5, 63, 0
7, 54810, Note_on_c, 5, 62, 120
7, 54840, Note_on_c, 5, 62, 0
7, 54840, Note_on_c, 5, 63, 120
7, 54900, Note_on_c, 5, 63, 0
7, 54900, Note_on_c, 5, 51, 120
7, 54960, Note_on_c, 5, 51, 0
7, 54960, Note_on_c, 5, 50, 120
7, 55020, Note_on_c, 5, 50, 0
7, 55020, Note_on_c, 5, 48, 120
7, 55080, Note_on_c, 5, 48, 0
7, 55080, Note_on_c, 5, 60, 120
7, 55140, Note_on_c, 5, 60, 0
7, 55140, Note_on_c, 5, 58, 120
7, 55200, Note_on_c, 5, 58, 0
7, 55200, Note_on_c, 5, 57, 120
7, 55260, Note_on_c, 5, 57, 0
7, 55260, Note_on_c, 5, 53, 120
7, 55320, Note_on_c, 5, 53, 0
7, 55320, Note_on_c, 5, 57, 120
7, 55380, Note_on_c, 5, 57, 0
7, 55380, Note_on_c, 5, 58, 120
7, 55440, Note_on_c, 5, 58, 0
7, 55440, Note_on_c, 5, 46, 120
7, 55500, Note_on_c, 5, 46, 0
7, 55500, Note_on_c, 5, 44, 120
7, 55560, Note_on_c, 5, 44, 0
7, 55560, Note_on_c, 5, 43, 120
7, 55620, Note_on_c, 5, 43, 0
7, 55620, Note_on_c, 5, 52, 120
7, 55680, Note_on_c, 5, 52, 0
7, 55680, Note_on_c, 5, 48, 120
7, 55740, Note_on_c, 5, 48, 0
7, 55740, Note_on_c, 5, 53, 120
7, 55800, Note_on_c, 5, 53, 0
7, 56160, Note_on_c, 5, 48, 120
7, 56220, Note_on_c, 5, 48, 0
7, 56220, Note_on_c, 5, 46, 120
7, 56280, Note_on_c, 5, 46, 0
7, 56280, Note_on_c, 5, 44, 120
7, 56340, Note_on_c, 5, 44, 0
7, 56340, Note_on_c, 5, 56, 120
7, 56400, Note_on_c, 5, 56, 0
7, 56400, Note_on_c, 5, 53, 120
7, 56460, Note_on_c, 5, 53, 0
7, 56460, Note_on_c, 5, 55, 120
7, 56580, Note_on_c, 5, 55, 0
7, 56670, Note_on_c, 5, 65, 120
7, 56700, Note_on_c, 5, 65, 0
7, 56700, Note_on_c, 5, 63, 120
7, 56730, Note_on_c, 5, 63, 0
7, 56730, Note_on_c, 5, 62, 120
7, 56760, Note_on_c, 5, 62, 0
7, 56760, Note_on_c, 5, 63, 120
7, 56790, Note_on_c, 5, 63, 0
7, 56790, Note_on_c, 5, 60, 120
7, 56820, Note_on_c, 5, 60, 0
7, 56820, Note_on_c, 5, 67, 120
7, 56880, Note_on_c, 5, 67, 0
7, 57030, Note_on_c, 5, 63, 120
7, 57060, Note_on_c, 5, 63, 0
7, 57060, Note_on_c, 5, 62, 120
7, 57090, Note_on_c, 5, 62, 0
7, 57090, Note_on_c, 5, 60, 120
7, 57120, Note_on_c, 5, 60, 0
7, 57120, Note_on_c, 5, 59, 120
7, 57150, Note_on_c, 5, 59, 0
7, 57150, Note_on_c, 5, 60, 120
7, 57180, Note_on_c, 5, 60, 0
7, 57180, Note_on_c, 5, 56, 120
7, 57240, Note_on_c, 5, 56, 0
7, 57240, Note_on_c, 5, 68, 120
7, 57300, Note_on_c, 5, 68, 0
7, 57420, Note_on_c, 5, 55, 120
7, 57450, Note_on_c, 5, 55, 0
7, 57450, Note_on_c, 5, 57, 120
7, 57480, Note_on_c, 5, 57, 0
7, 57480, Note_on_c, 5, 59, 120
7, 57510, Note_on_c, 5, 59, 0
7, 57510, Note_on_c, 5, 55, 120
7, 57540, Note_on_c, 5, 55, 0
7, 57540, Note_on_c, 5, 60, 120
7, 57570, Note_on_c, 5, 60, 0
7, 57570, Note_on_c, 5, 59, 120
7, 57600, Note_on_c, 5, 59, 0
7, 57600, Note_on_c, 5, 60, 120
7, 57630, Note_on_c, 5, 60, 0
7, 57630, Note_on_c, 5, 55, 120
7, 57660, Note_on_c, 5, 55, 0
7, 57660, Note_on_c, 5, 62, 120
7, 57690, Note_on_c, 5, 62, 0
7, 57690, Note_on_c, 5, 55, 120
7, 57720, Note_on_c, 5, 55, 0
7, 57720, Note_on_c, 5, 63, 120
7, 57780, Note_on_c, 5, 63, 0
7, 57780, Note_on_c, 5, 51, 120
7, 57840, Note_on_c, 5, 51, 0
7, 57840, Note_on_c, 5, 53, 120
7, 57900, Note_on_c, 5, 53, 0
7, 57900, Note_on_c, 5, 55, 120
7, 57929, Note_on_c, 5, 55, 0
7, 57930, Note_on_c, 5, 59, 120
7, 57959, Note_on_c, 5, 59, 0
7, 57960, Note_on_c, 5, 62, 120
7, 57989, Note_on_c, 5, 62, 0
7, 57990, Note_on_c, 5, 67, 120
7, 58019, Note_on_c, 5, 67, 0
7, 58020, Note_on_c, 5, 65, 120
7, 58049, Note_on_c, 5, 65, 0
7, 58050, Note_on_c, 5, 63, 120
7, 58079, Note_on_c, 5, 63, 0
7, 58080, Note_on_c, 5, 65, 120
7, 58139, Note_on_c, 5, 65, 0
7, 58140, Note_on_c, 5, 53, 120
7, 58199, Note_on_c, 5, 53, 0
7, 58200, Note_on_c, 5, 51, 120
7, 58259, Note_on_c, 5, 51, 0
7, 58260, Note_on_c, 5, 50, 120
7, 58319, Note_on_c, 5, 50, 0
7, 58320, Note_on_c, 5, 62, 120
7, 58379, Note_on_c, 5, 62, 0
7, 58380, Note_on_c, 5, 60, 120
7, 58439, Note_on_c, 5, 60, 0
7, 58440, Note_on_c, 5, 59, 120
7, 58499, Note_on_c, 5, 59, 0
7, 58500, Note_on_c, 5, 55, 120
7, 58559, Note_on_c, 5, 55, 0
7, 58560, Note_on_c, 5, 59, 120
7, 58619, Note_on_c, 5, 59, 0
7, 58620, Note_on_c, 5, 60, 120
7, 58679, Note_on_c, 5, 60, 0
7, 58680, Note_on_c, 5, 48, 120
7, 58739, Note_on_c, 5, 48, 0
7, 58740, Note_on_c, 5, 46, 120
7, 58799, Note_on_c, 5, 46, 0
7, 58800, Note_on_c, 5, 44, 120
7, 58859, Note_on_c, 5, 44, 0
7, 58860, Note_on_c, 5, 56, 120
7, 58919, Note_on_c, 5, 56, 0
7, 58920, Note_on_c, 5, 55, 120
7, 58979, Note_on_c, 5, 55, 0
7, 58980, Note_on_c, 5, 53, 120
7, 59039, Note_on_c, 5, 53, 0
7, 59040, Note_on_c, 5, 41, 120
7, 59099, Note_on_c, 5, 41, 0
7, 59100, Note_on_c, 5, 53, 120
7, 59159, Note_on_c, 5, 53, 0
7, 59160, Note_on_c, 5, 55, 120
7, 59219, Note_on_c, 5, 55, 0
7, 59220, Note_on_c, 5, 43, 120
7, 59279, Note_on_c, 5, 43, 0
7, 59280, Note_on_c, 5, 55, 120
7, 59339, Note_on_c, 5, 55, 0
7, 59340, Note_on_c, 5, 56, 120
7, 59399, Note_on_c, 5, 56, 0
7, 59400, Note_on_c, 5, 44, 120
7, 59459, Note_on_c, 5, 44, 0
7, 59460, Note_on_c, 5, 56, 120
7, 59519, Note_on_c, 5, 56, 0
7, 59520, Note_on_c, 5, 55, 120
7, 59579, Note_on_c, 5, 55, 0
7, 59580, Note_on_c, 5, 43, 120
7, 59639, Note_on_c, 5, 43, 0
7, 59640, Note_on_c, 5, 41, 120
7, 59699, Note_on_c, 5, 41, 0
7, 59700, Note_on_c, 5, 43, 120
7, 59759, Note_on_c, 5, 43, 0
7, 59760, Note_on_c, 5, 55, 120
7, 59819, Note_on_c, 5, 55, 0
7, 59820, Note_on_c, 5, 53, 120
7, 59879, Note_on_c, 5, 53, 0
7, 59880, Note_on_c, 5, 55, 120
7, 59939, Note_on_c, 5, 55, 0
7, 59940, Note_on_c, 5, 43, 120
7, 59999, Note_on_c, 5, 43, 0
7, 60000, Note_on_c, 5, 55, 120
7, 60059, Note_on_c, 5, 55, 0
7, 60060, Note_on_c, 5, 48, 120
7, 60119, Note_on_c, 5, 48, 0
7, 60120, Note_on_c, 5, 60, 120
7, 60179, Note_on_c, 5, 60, 0
7, 60180, Note_on_c, 5, 58, 120
7, 60239, Note_on_c, 5, 58, 0
7, 60240, Note_on_c, 5, 57, 120
7, 60299, Note_on_c, 5, 57, 0
7, 60300, Note_on_c, 5, 45, 120
7, 60359, Note_on_c, 5, 45, 0
7, 60360, Note_on_c, 5, 43, 120
7, 60419, Note_on_c, 5, 43, 0
7, 60420, Note_on_c, 5, 41, 120
7, 60479, Note_on_c, 5, 41, 0
7, 60480, Note_on_c, 5, 57, 120
7, 60629, Note_on_c, 5, 57, 0
7, 60630, Note_on_c, 5, 58, 120
7, 60659, Note_on_c, 5, 58, 0
7, 60660, Note_on_c, 5, 57, 120
7, 60689, Note_on_c, 5, 57, 0
7, 60690, Note_on_c, 5, 55, 120
7, 60719, Note_on_c, 5, 55, 0
7, 60720, Note_on_c, 5, 57, 120
7, 60749, Note_on_c, 5, 57, 0
7, 60750, Note_on_c, 5, 53, 120
7, 60779, Note_on_c, 5, 53, 0
7, 60780, Note_on_c, 5, 46, 120
7, 60839, Note_on_c, 5, 46, 0
7, 60840, Note_on_c, 5, 58, 120
7, 60899, Note_on_c, 5, 58, 0
7, 60900, Note_on_c, 5, 56, 120
7, 60959, Note_on_c, 5, 56, 0
7, 60960, Note_on_c, 5, 55, 120
7, 61019, Note_on_c, 5, 55, 0
7, 61020, Note_on_c, 5, 43, 120
7, 61079, Note_on_c, 5, 43, 0
7, 61080, Note_on_c, 5, 41, 120
7, 61139, Note_on_c, 5, 41, 0
7, 61140, Note_on_c, 5, 39, 120
7, 61199, Note_on_c, 5, 39, 0
7, 61200, Note_on_c, 5, 55, 120
7, 61349, Note_on_c, 5, 55, 0
7, 61350, Note_on_c, 5, 56, 120
7, 61379, Note_on_c, 5, 56, 0
7, 61380, Note_on_c, 5, 55, 120
7, 61409, Note_on_c, 5, 55, 0
7, 61410, Note_on_c, 5, 53, 120
7, 61439, Note_on_c, 5, 53, 0
7, 61440, Note_on_c, 5, 55, 120
7, 61469, Note_on_c, 5, 55, 0
7, 61470, Note_on_c, 5, 58, 120
7, 61499, Note_on_c, 5, 58, 0
7, 61500, Note_on_c, 5, 60, 120
7, 61559, Note_on_c, 5, 60, 0
7, 61560, Note_on_c, 5, 48, 120
7, 61619, Note_on_c, 5, 48, 0
7, 61620, Note_on_c, 5, 45, 120
7, 61679, Note_on_c, 5, 45, 0
7, 61680, Note_on_c, 5, 41, 120
7, 61739, Note_on_c, 5, 41, 0
7, 61740, Note_on_c, 5, 43, 120
7, 61799, Note_on_c, 5, 43, 0
7, 61800, Note_on_c, 5, 45, 120
7, 61859, Note_on_c, 5, 45, 0
7, 61860, Note_on_c, 5, 46, 120
7, 61919, Note_on_c, 5, 46, 0
7, 61920, Note_on_c, 5, 58, 120
7, 61979, Note_on_c, 5, 58, 0
7, 61980, Note_on_c, 5, 57, 120
7, 62039, Note_on_c, 5, 57, 0
7, 62040, Note_on_c, 5, 55, 120
7, 62069, Note_on_c, 5, 55, 0
7, 62070, Note_on_c, 5, 53, 120
7, 62099, Note_on_c, 5, 53, 0
7, 62100, Note_on_c, 5, 55, 120
7, 62159, Note_on_c, 5, 55, 0
7, 62160, Note_on_c, 5, 48, 120
7, 62219, Note_on_c, 5, 48, 0
7, 62220, Note_on_c, 5, 53, 120
7, 62279, Note_on_c, 5, 53, 0
7, 63660, Note_on_c, 5, 53, 120
7, 63689, Note_on_c, 5, 53, 0
7, 63690, Note_on_c, 5, 52, 120
7, 63719, Note_on_c, 5, 52, 0
7, 63720, Note_on_c, 5, 53, 120
7, 63749, Note_on_c, 5, 53, 0
7, 63750, Note_on_c, 5, 48, 120
7, 63779, Note_on_c, 5, 48, 0
7, 63780, Note_on_c, 5, 55, 120
7, 63809, Note_on_c, 5, 55, 0
7, 63810, Note_on_c, 5, 48, 120
7, 63839, Note_on_c, 5, 48, 0
7, 63840, Note_on_c, 5, 56, 120
7, 63899, Note_on_c, 5, 56, 0
7, 63900, Note_on_c, 5, 44, 120
7, 63959, Note_on_c, 5, 44, 0
7, 63960, Note_on_c, 5, 46, 120
7, 64019, Note_on_c, 5, 46, 0
7, 64020, Note_on_c, 5, 48, 120
7, 64049, Note_on_c, 5, 48, 0
7, 64050, Note_on_c, 5, 52, 120
7, 64079, Note_on_c, 5, 52, 0
7, 64080, Note_on_c, 5, 55, 120
7, 64109, Note_on_c, 5, 55, 0
7, 64110, Note_on_c, 5, 60, 120
7, 64139, Note_on_c, 5, 60, 0
7, 64140, Note_on_c, 5, 58, 120
7, 64169, Note_on_c, 5, 58, 0
7, 64170, Note_on_c, 5, 56, 120
7, 64199, Note_on_c, 5, 56, 0
7, 64200, Note_on_c, 5, 58, 120
7, 64259, Note_on_c, 5, 58, 0
7, 64260, Note_on_c, 5, 46, 120
7, 64319, Note_on_c, 5, 46, 0
7, 64320, Note_on_c, 5, 44, 120
7, 64379, Note_on_c, 5, 44, 0
7, 64380, Note_on_c, 5, 43, 120
7, 64439, Note_on_c, 5, 43, 0
7, 64440, Note_on_c, 5, 55, 120
7, 64499, Note_on_c, 5, 55, 0
7, 64500, Note_on_c, 5, 53, 120
7, 64559, Note_on_c, 5, 53, 0
7, 64560, Note_on_c, 5, 52, 120
7, 64619, Note_on_c, 5, 52, 0
7, 64620, Note_on_c, 5, 48, 120
7, 64679, Note_on_c, 5, 48, 0
7, 64680, Note_on_c, 5, 52, 120
7, 64739, Note_on_c, 5, 52, 0
7, 64740, Note_on_c, 5, 53, 120
7, 64859, Note_on_c, 5, 53, 0
7, 65160, Note_on_c, 5, 48, 120
7, 65219, Note_on_c, 5, 48, 0
7, 65220, Note_on_c, 5, 46, 120
7, 65279, Note_on_c, 5, 46, 0
7, 65280, Note_on_c, 5, 45, 120
7, 65339, Note_on_c, 5, 45, 0
7, 65340, Note_on_c, 5, 54, 120
7, 65399, Note_on_c, 5, 54, 0
7, 65400, Note_on_c, 5, 50, 120
7, 65459, Note_on_c, 5, 50, 0
7, 65460, Note_on_c, 5, 55, 120
7, 65579, Note_on_c, 5, 55, 0
7, 65820, Note_on_c, 5, 50, 120
7, 65849, Note_on_c, 5, 50, 0
7, 65850, Note_on_c, 5, 54, 120
7, 65879, Note_on_c, 5, 54, 0
7, 65880, Note_on_c, 5, 57, 120
7, 65909, Note_on_c, 5, 57, 0
7, 65910, Note_on_c, 5, 62, 120
7, 65939, Note_on_c, 5, 62, 0
7, 65940, Note_on_c, 5, 60, 120
7, 65969, Note_on_c, 5, 60, 0
7, 65970, Note_on_c, 5, 57, 120
7, 65999, Note_on_c, 5, 57, 0
7, 66000, Note_on_c, 5, 58, 120
7, 66059, Note_on_c, 5, 58, 0
7, 66060, Note_on_c, 5, 46, 120
7, 66119, Note_on_c, 5, 46, 0
7, 66120, Note_on_c, 5, 43, 120
7, 66179, Note_on_c, 5, 43, 0
7, 66180, Note_on_c, 5, 50, 120
7, 66209, Note_on_c, 5, 50, 0
7, 66210, Note_on_c, 5, 57, 120
7, 66239, Note_on_c, 5, 57, 0
7, 66240, Note_on_c, 5, 60, 120
7, 66269, Note_on_c, 5, 60, 0
7, 66270, Note_on_c, 5, 63, 120
7, 66299, Note_on_c, 5, 63, 0
7, 66300, Note_on_c, 5, 62, 120
7, 66329, Note_on_c, 5, 62, 0
7, 66330, Note_on_c, 5, 60, 120
7, 66359, Note_on_c, 5, 60, 0
7, 66360, Note_on_c, 5, 62, 120
7, 66419, Note_on_c, 5, 62, 0
7, 66420, Note_on_c, 5, 60, 120
7, 66479, Note_on_c, 5, 60, 0
7, 66480, Note_on_c, 5, 58, 120
7, 66539, Note_on_c, 5, 58, 0
7, 66540, Note_on_c, 5, 57, 120
7, 66599, Note_on_c, 5, 57, 0
7, 66600, Note_on_c, 5, 45, 120
7, 66659, Note_on_c, 5, 45, 0
7, 66660, Note_on_c, 5, 43, 120
7, 66719, Note_on_c, 5, 43, 0
7, 66720, Note_on_c, 5, 42, 120
7, 66779, Note_on_c, 5, 42, 0
7, 66780, Note_on_c, 5, 38, 120
7, 66839, Note_on_c, 5, 38, 0
7, 66840, Note_on_c, 5, 42, 120
7, 66899, Note_on_c, 5, 42, 0
7, 66900, Note_on_c, 5, 43, 120
7, 66959, Note_on_c, 5, 43, 0
7, 66960, Note_on_c, 5, 55, 120
7, 67019, Note_on_c, 5, 55, 0
7, 67020, Note_on_c, 5, 45, 120
7, 67079, Note_on_c, 5, 45, 0
7, 67080, Note_on_c, 5, 46, 120
7, 67139, Note_on_c, 5, 46, 0
7, 67140, Note_on_c, 5, 43, 120
7, 67199, Note_on_c, 5, 43, 0
7, 67200, Note_on_c, 5, 48, 120
7, 67259, Note_on_c, 5, 48, 0
7, 67260, Note_on_c, 5, 50, 120
7, 67319, Note_on_c, 5, 50, 0
7, 67470, Note_on_c, 5, 57, 120
7, 67499, Note_on_c, 5, 57, 0
7, 67500, Note_on_c, 5, 62, 120
7, 67529, Note_on_c, 5, 62, 0
7, 67530, Note_on_c, 5, 64, 120
7, 67559, Note_on_c, 5, 64, 0
7, 67560, Note_on_c, 5, 66, 120
7, 67589, Note_on_c, 5, 66, 0
7, 67590, Note_on_c, 5, 67, 120
7, 67619, Note_on_c, 5, 67, 0
7, 67620, Note_on_c, 5, 69, 120
7, 67679, Note_on_c, 5, 69, 0
7, 67680, Note_on_c, 5, 57, 120
7, 67739, Note_on_c, 5, 57, 0
7, 67860, Note_on_c, 5, 50, 120
7, 67889, Note_on_c, 5, 50, 0
7, 67890, Note_on_c, 5, 52, 120
7, 67919, Note_on_c, 5, 52, 0
7, 67920, Note_on_c, 5, 54, 120
7, 67949, Note_on_c, 5, 54, 0
7, 67950, Note_on_c, 5, 50, 120
7, 67979, Note_on_c, 5, 50, 0
7, 67980, Note_on_c, 5, 55, 120
7, 68039, Note_on_c, 5, 55, 0
7, 68040, Note_on_c, 5, 67, 120
7, 68099, Note_on_c, 5, 67, 0
7, 68100, Note_on_c, 5, 65, 120
7, 68159, Note_on_c, 5, 65, 0
7, 68160, Note_on_c, 5, 63, 120
7, 68219, Note_on_c, 5, 63, 0
7, 68220, Note_on_c, 5, 51, 120
7, 68279, Note_on_c, 5, 51, 0
7, 68280, Note_on_c, 5, 50, 120
7, 68339, Note_on_c, 5, 50, 0
7, 68340, Note_on_c, 5, 48, 120
7, 68399, Note_on_c, 5, 48, 0
7, 68400, Note_on_c, 5, 60, 120
7, 68459, Note_on_c, 5, 60, 0
7, 68460, Note_on_c, 5, 48, 120
7, 68519, Note_on_c, 5, 48, 0
7, 68520, Note_on_c, 5, 50, 120
7, 68579, Note_on_c, 5, 50, 0
7, 68580, Note_on_c, 5, 62, 120
7, 68639, Note_on_c, 5, 62, 0
7, 68640, Note_on_c, 5, 50, 120
7, 68699, Note_on_c, 5, 50, 0
7, 68700, Note_on_c, 5, 51, 120
7, 68759, Note_on_c, 5, 51, 0
7, 68760, Note_on_c, 5, 63, 120
7, 68819, Note_on_c, 5, 63, 0
7, 68820, Note_on_c, 5, 51, 120
7, 68879, Note_on_c, 5, 51, 0
7, 68880, Note_on_c, 5, 50, 120
7, 68939, Note_on_c, 5, 50, 0
7, 68940, Note_on_c, 5, 62, 120
7, 68999, Note_on_c, 5, 62, 0
7, 69000, Note_on_c, 5, 60, 120
7, 69059, Note_on_c, 5, 60, 0
7, 69060, Note_on_c, 5, 62, 120
7, 69119, Note_on_c, 5, 62, 0
7, 69120, Note_on_c, 5, 50, 120
7, 69179, Note_on_c, 5, 50, 0
7, 69180, Note_on_c, 5, 48, 120
7, 69239, Note_on_c, 5, 48, 0
7, 69240, Note_on_c, 5, 50, 120
7, 69299, Note_on_c, 5, 50, 0
7, 69300, Note_on_c, 5, 62, 120
7, 69359, Note_on_c, 5, 62, 0
7, 69360, Note_on_c, 5, 50, 120
7, 69419, Note_on_c, 5, 50, 0
7, 69420, Note_on_c, 5, 55, 120
7, 69539, Note_on_c, 5, 55, 0
7, 70200, Note_on_c, 5, 61, 120
7, 70259, Note_on_c, 5, 61, 0
7, 70260, Note_on_c, 5, 58, 120
7, 70319, Note_on_c, 5, 58, 0
7, 70320, Note_on_c, 5, 55, 120
7, 70379, Note_on_c, 5, 55, 0
7, 70380, Note_on_c, 5, 52, 120
7, 70439, Note_on_c, 5, 52, 0
7, 70440, Note_on_c, 5, 48, 120
7, 70499, Note_on_c, 5, 48, 0
7, 70500, Note_on_c, 5, 41, 120
7, 70559, Note_on_c, 5, 41, 0
7, 70560, Note_on_c, 5, 53, 120
7, 70619, Note_on_c, 5, 53, 0
7, 70620, Note_on_c, 5, 55, 120
7, 70679, Note_on_c, 5, 55, 0
7, 70680, Note_on_c, 5, 57, 120
7, 70709, Note_on_c, 5, 57, 0
7, 70710, Note_on_c, 5, 58, 120
7, 70739, Note_on_c, 5, 58, 0
7, 70740, Note_on_c, 5, 57, 120
7, 70769, Note_on_c, 5, 57, 0
7, 70770, Note_on_c, 5, 55, 120
7, 70799, Note_on_c, 5, 55, 0
7, 70800, Note_on_c, 5, 57, 120
7, 70829, Note_on_c, 5, 57, 0
7, 70830, Note_on_c, 5, 58, 120
7, 70859, Note_on_c, 5, 58, 0
7, 70860, Note_on_c, 5, 60, 120
7, 70889, Note_on_c, 5, 60, 0
7, 70890, Note_on_c, 5, 62, 120
7, 70919, Note_on_c, 5, 62, 0
7, 70920, Note_on_c, 5, 60, 120
7, 70949, Note_on_c, 5, 60, 0
7, 70950, Note_on_c, 5, 58, 120
7, 70979, Note_on_c, 5, 58, 0
7, 70980, Note_on_c, 5, 60, 120
7, 71009, Note_on_c, 5, 60, 0
7, 71010, Note_on_c, 5, 62, 120
7, 71039, Note_on_c, 5, 62, 0
7, 71040, Note_on_c, 5, 63, 120
7, 71069, Note_on_c, 5, 63, 0
7, 71070, Note_on_c, 5, 65, 120
7, 71099, Note_on_c, 5, 65, 0
7, 71100, Note_on_c, 5, 63, 120
7, 71129, Note_on_c, 5, 63, 0
7, 71130, Note_on_c, 5, 62, 120
7, 71159, Note_on_c, 5, 62, 0
7, 71160, Note_on_c, 5, 63, 120
7, 71189, Note_on_c, 5, 63, 0
7, 71190, Note_on_c, 5, 65, 120
7, 71219, Note_on_c, 5, 65, 0
7, 71220, Note_on_c, 5, 58, 120
7, 71279, Note_on_c, 5, 58, 0
7, 71280, Note_on_c, 5, 62, 120
7, 71339, Note_on_c, 5, 62, 0
7, 71340, Note_on_c, 5, 65, 120
7, 71399, Note_on_c, 5, 65, 0
7, 71400, Note_on_c, 5, 68, 120
7, 71519, Note_on_c, 5, 68, 0
7, 71640, Note_on_c, 5, 65, 120
7, 71699, Note_on_c, 5, 65, 0
7, 71700, Note_on_c, 5, 63, 120
7, 71759, Note_on_c, 5, 63, 0
7, 71760, Note_on_c, 5, 62, 120
7, 71819, Note_on_c, 5, 62, 0
7, 71820, Note_on_c, 5, 65, 120
7, 71879, Note_on_c, 5, 65, 0
7, 71880, Note_on_c, 5, 58, 120
7, 71939, Note_on_c, 5, 58, 0
7, 71940, Note_on_c, 5, 63, 120
7, 71999, Note_on_c, 5, 63, 0
7, 72000, Note_on_c, 5, 51, 120
7, 72059, Note_on_c, 5, 51, 0
7, 72060, Note_on_c, 5, 52, 120
7, 72119, Note_on_c, 5, 52, 0
7, 72120, Note_on_c, 5, 55, 120
7, 72149, Note_on_c, 5, 55, 0
7, 72150, Note_on_c, 5, 56, 120
7, 72179, Note_on_c, 5, 56, 0
7, 72180, Note_on_c, 5, 55, 120
7, 72209, Note_on_c, 5, 55, 0
7, 72210, Note_on_c, 5, 53, 120
7, 72239, Note_on_c, 5, 53, 0
7, 72240, Note_on_c, 5, 55, 120
7, 72269, Note_on_c, 5, 55, 0
7, 72270, Note_on_c, 5, 56, 120
7, 72299, Note_on_c, 5, 56, 0
7, 72300, Note_on_c, 5, 58, 120
7, 72329, Note_on_c, 5, 58, 0
7, 72330, Note_on_c, 5, 60, 120
7, 72359, Note_on_c, 5, 60, 0
7, 72360, Note_on_c, 5, 58, 120
7, 72389, Note_on_c, 5, 58, 0
7, 72390, Note_on_c, 5, 56, 120
7, 72419, Note_on_c, 5, 56, 0
7, 72420, Note_on_c, 5, 58, 120
7, 72449, Note_on_c, 5, 58, 0
7, 72450, Note_on_c, 5, 60, 120
7, 72479, Note_on_c, 5, 60, 0
7, 72480, Note_on_c, 5, 61, 120
7, 72509, Note_on_c, 5, 61, 0
7, 72510, Note_on_c, 5, 63, 120
7, 72539, Note_on_c, 5, 63, 0
7, 72540, Note_on_c, 5, 61, 120
7, 72569, Note_on_c, 5, 61, 0
7, 72570, Note_on_c, 5, 60, 120
7, 72599, Note_on_c, 5, 60, 0
7, 72600, Note_on_c, 5, 61, 120
7, 72629, Note_on_c, 5, 61, 0
7, 72630, Note_on_c, 5, 63, 120
7, 72659, Note_on_c, 5, 63, 0
7, 72660, Note_on_c, 5, 56, 120
7, 72719, Note_on_c, 5, 56, 0
7, 72720, Note_on_c, 5, 44, 120
7, 72779, Note_on_c, 5, 44, 0
7, 72780, Note_on_c, 5, 43, 120
7, 72839, Note_on_c, 5, 43, 0
7, 72840, Note_on_c, 5, 41, 120
7, 72899, Note_on_c, 5, 41, 0
7, 72900, Note_on_c, 5, 53, 120
7, 72959, Note_on_c, 5, 53, 0
7, 72960, Note_on_c, 5, 51, 120
7, 73019, Note_on_c, 5, 51, 0
7, 73020, Note_on_c, 5, 50, 120
7, 73079, Note_on_c, 5, 50, 0
7, 73080, Note_on_c, 5, 46, 120
7, 73139, Note_on_c, 5, 46, 0
7, 73140, Note_on_c, 5, 58, 120
7, 73199, Note_on_c, 5, 58, 0
7, 73200, Note_on_c, 5, 51, 120
7, 73259, Note_on_c, 5, 51, 0
7, 73260, Note_on_c, 5, 55, 120
7, 73319, Note_on_c, 5, 55, 0
7, 73320, Note_on_c, 5, 51, 120
7, 73379, Note_on_c, 5, 51, 0
7, 73380, Note_on_c, 5, 56, 120
7, 73439, Note_on_c, 5, 56, 0
7, 73440, Note_on_c, 5, 44, 120
7, 73499, Note_on_c, 5, 44, 0
7, 73500, Note_on_c, 5, 51, 120
7, 73559, Note_on_c, 5, 51, 0
7, 73560, Note_on_c, 5, 56, 120
7, 73769, Note_on_c, 5, 56, 0
7, 73770, Note_on_c, 5, 55, 120
7, 73799, Note_on_c, 5, 55, 0
7, 73800, Note_on_c, 5, 53, 120
7, 73829, Note_on_c, 5, 53, 0
7, 73830, Note_on_c, 5, 55, 120
7, 73859, Note_on_c, 5, 55, 0
7, 73860, Note_on_c, 5, 56, 120
7, 73889, Note_on_c, 5, 56, 0
7, 73890, Note_on_c, 5, 53, 120
7, 73919, Note_on_c, 5, 53, 0
7, 73920, Note_on_c, 5, 55, 120
7, 73979, Note_on_c, 5, 55, 0
7, 73980, Note_on_c, 5, 43, 120
7, 74039, Note_on_c, 5, 43, 0
7, 74040, Note_on_c, 5, 44, 120
7, 74099, Note_on_c, 5, 44, 0
7, 74100, Note_on_c, 5, 46, 120
7, 74129, Note_on_c, 5, 46, 0
7, 74130, Note_on_c, 5, 50, 120
7, 74159, Note_on_c, 5, 50, 0
7, 74160, Note_on_c, 5, 53, 120
7, 74189, Note_on_c, 5, 53, 0
7, 74190, Note_on_c, 5, 58, 120
7, 74219, Note_on_c, 5, 58, 0
7, 74220, Note_on_c, 5, 56, 120
7, 74249, Note_on_c, 5, 56, 0
7, 74250, Note_on_c, 5, 55, 120
7, 74279, Note_on_c, 5, 55, 0
7, 74280, Note_on_c, 5, 56, 120
7, 74339, Note_on_c, 5, 56, 0
7, 74340, Note_on_c, 5, 44, 120
7, 74399, Note_on_c, 5, 44, 0
7, 74400, Note_on_c, 5, 43, 120
7, 74459, Note_on_c, 5, 43, 0
7, 74460, Note_on_c, 5, 41, 120
7, 74519, Note_on_c, 5, 41, 0
7, 74520, Note_on_c, 5, 53, 120
7, 74579, Note_on_c, 5, 53, 0
7, 74580, Note_on_c, 5, 51, 120
7, 74639, Note_on_c, 5, 51, 0
7, 74640, Note_on_c, 5, 50, 120
7, 74699, Note_on_c, 5, 50, 0
7, 74700, Note_on_c, 5, 46, 120
7, 74759, Note_on_c, 5, 46, 0
7, 74760, Note_on_c, 5, 50, 120
7, 74819, Note_on_c, 5, 50, 0
7, 74820, Note_on_c, 5, 51, 120
7, 74939, Note_on_c, 5, 51, 0
7, 75030, Note_on_c, 5, 56, 120
7, 75059, Note_on_c, 5, 56, 0
7, 75060, Note_on_c, 5, 55, 120
7, 75089, Note_on_c, 5, 55, 0
7, 75090, Note_on_c, 5, 53, 120
7, 75119, Note_on_c, 5, 53, 0
7, 75120, Note_on_c, 5, 55, 120
7, 75149, Note_on_c, 5, 55, 0
7, 75150, Note_on_c, 5, 51, 120
7, 75179, Note_on_c, 5, 51, 0
7, 75180, Note_on_c, 5, 58, 120
7, 75239, Note_on_c, 5, 58, 0
7, 75390, Note_on_c, 5, 53, 120
7, 75419, Note_on_c, 5, 53, 0
7, 75420, Note_on_c, 5, 58, 120
7, 75449, Note_on_c, 5, 58, 0
7, 75450, Note_on_c, 5, 60, 120
7, 75479, Note_on_c, 5, 60, 0
7, 75480, Note_on_c, 5, 62, 120
7, 75509, Note_on_c, 5, 62, 0
7, 75510, Note_on_c, 5, 63, 120
7, 75539, Note_on_c, 5, 63, 0
7, 75540, Note_on_c, 5, 65, 120
7, 75599, Note_on_c, 5, 65, 0
7, 75600, Note_on_c, 5, 53, 120
7, 75659, Note_on_c, 5, 53, 0
7, 75780, Note_on_c, 5, 46, 120
7, 75809, Note_on_c, 5, 46, 0
7, 75810, Note_on_c, 5, 48, 120
7, 75839, Note_on_c, 5, 48, 0
7, 75840, Note_on_c, 5, 50, 120
7, 75869, Note_on_c, 5, 50, 0
7, 75870, Note_on_c, 5, 46, 120
7, 75899, Note_on_c, 5, 46, 0
7, 75900, Note_on_c, 5, 51, 120
7, 75959, Note_on_c, 5, 51, 0
7, 75960, Note_on_c, 5, 63, 120
7, 76019, Note_on_c, 5, 63, 0
7, 76020, Note_on_c, 5, 62, 120
7, 76079, Note_on_c, 5, 62, 0
7, 76080, Note_on_c, 5, 60, 120
7, 76139, Note_on_c, 5, 60, 0
7, 76140, Note_on_c, 5, 48, 120
7, 76199, Note_on_c, 5, 48, 0
7, 76200, Note_on_c, 5, 46, 120
7, 76259, Note_on_c, 5, 46, 0
7, 76260, Note_on_c, 5, 44, 120
7, 76319, Note_on_c, 5, 44, 0
7, 76320, Note_on_c, 5, 56, 120
7, 76379, Note_on_c, 5, 56, 0
7, 76380, Note_on_c, 5, 44, 120
7, 76439, Note_on_c, 5, 44, 0
7, 76440, Note_on_c, 5, 46, 120
7, 76499, Note_on_c, 5, 46, 0
7, 76500, Note_on_c, 5, 58, 120
7, 76559, Note_on_c, 5, 58, 0
7, 76560, Note_on_c, 5, 46, 120
7, 76619, Note_on_c, 5, 46, 0
7, 76620, Note_on_c, 5, 48, 120
7, 76679, Note_on_c, 5, 48, 0
7, 76680, Note_on_c, 5, 60, 120
7, 76739, Note_on_c, 5, 60, 0
7, 76740, Note_on_c, 5, 48, 120
7, 76799, Note_on_c, 5, 48, 0
7, 76800, Note_on_c, 5, 46, 120
7, 76859, Note_on_c, 5, 46, 0
7, 76860, Note_on_c, 5, 58, 120
7, 76919, Note_on_c, 5, 58, 0
7, 76920, Note_on_c, 5, 56, 120
7, 76979, Note_on_c, 5, 56, 0
7, 76980, Note_on_c, 5, 58, 120
7, 77039, Note_on_c, 5, 58, 0
7, 77040, Note_on_c, 5, 46, 120
7, 77099, Note_on_c, 5, 46, 0
7, 77100, Note_on_c, 5, 44, 120
7, 77159, Note_on_c, 5, 44, 0
7, 77160, Note_on_c, 5, 46, 120
7, 77219, Note_on_c, 5, 46, 0
7, 77220, Note_on_c, 5, 58, 120
7, 77279, Note_on_c, 5, 58, 0
7, 77280, Note_on_c, 5, 46, 120
7, 77339, Note_on_c, 5, 46, 0
7, 77340, Note_on_c, 5, 51, 120
7, 77369, Note_on_c, 5, 51, 0
7, 77370, Note_on_c, 5, 53, 120
7, 77399, Note_on_c, 5, 53, 0
7, 77400, Note_on_c, 5, 51, 120
7, 77429, Note_on_c, 5, 51, 0
7, 77430, Note_on_c, 5, 50, 120
7, 77459, Note_on_c, 5, 50, 0
7, 77460, Note_on_c, 5, 51, 120
7, 77489, Note_on_c, 5, 51, 0
7, 77490, Note_on_c, 5, 55, 120
7, 77519, Note_on_c, 5, 55, 0
7, 77520, Note_on_c, 5, 53, 120
7, 77549, Note_on_c, 5, 53, 0
7, 77550, Note_on_c, 5, 56, 120
7, 77579, Note_on_c, 5, 56, 0
7, 77580, Note_on_c, 5, 55, 120
7, 77609, Note_on_c, 5, 55, 0
7, 77610, Note_on_c, 5, 53, 120
7, 77639, Note_on_c, 5, 53, 0
7, 77640, Note_on_c, 5, 55, 120
7, 77669, Note_on_c, 5, 55, 0
7, 77670, Note_on_c, 5, 58, 120
7, 77699, Note_on_c, 5, 58, 0
7, 77700, Note_on_c, 5, 56, 120
7, 77759, Note_on_c, 5, 56, 0
7, 77760, Note_on_c, 5, 44, 120
7, 77819, Note_on_c, 5, 44, 0
7, 77820, Note_on_c, 5, 43, 120
7, 77879, Note_on_c, 5, 43, 0
7, 77880, Note_on_c, 5, 44, 120
7, 77939, Note_on_c, 5, 44, 0
7, 77940, Note_on_c, 5, 56, 120
7, 77999, Note_on_c, 5, 56, 0
7, 78000, Note_on_c, 5, 51, 120
7, 78059, Note_on_c, 5, 51, 0
7, 78060, Note_on_c, 5, 48, 120
7, 78089, Note_on_c, 5, 48, 0
7, 78090, Note_on_c, 5, 58, 120
7, 78119, Note_on_c, 5, 58, 0
7, 78120, Note_on_c, 5, 56, 120
7, 78149, Note_on_c, 5, 56, 0
7, 78150, Note_on_c, 5, 55, 120
7, 78179, Note_on_c, 5, 55, 0
7, 78180, Note_on_c, 5, 56, 120
7, 78209, Note_on_c, 5, 56, 0
7, 78210, Note_on_c, 5, 51, 120
7, 78239, Note_on_c, 5, 51, 0
7, 78240, Note_on_c, 5, 60, 120
7, 78269, Note_on_c, 5, 60, 0
7, 78270, Note_on_c, 5, 61, 120
7, 78299, Note_on_c, 5, 61, 0
7, 78300, Note_on_c, 5, 60, 120
7, 78329, Note_on_c, 5, 60, 0
7, 78330, Note_on_c, 5, 59, 120
7, 78359, Note_on_c, 5, 59, 0
7, 78360, Note_on_c, 5, 60, 120
7, 78389, Note_on_c, 5, 60, 0
7, 78390, Note_on_c, 5, 48, 120
7, 78419, Note_on_c, 5, 48, 0
7, 78420, Note_on_c, 5, 50, 120
7, 78599, Note_on_c, 5, 50, 0
7, 78960, Note_on_c, 5, 62, 120
7, 78960, Note_on_c, 5, 69, 120
7, 79140, Note_on_c, 5, 69, 0
7, 79140, Note_on_c, 5, 62, 0
7, 79140, Note_on_c, 5, 55, 120
7, 79140, Note_on_c, 5, 62, 120
7, 79140, Note_on_c, 5, 67, 120
7, 79500, Note_on_c, 5, 67, 0
7, 79500, Note_on_c, 5, 62, 0
7, 79500, Note_on_c, 5, 55, 0
7, 80880, Note_on_c, 5, 60, 110
7, 80939, Note_on_c, 5, 60, 0
7, 80940, Note_on_c, 5, 58, 110
7, 80969, Note_on_c, 5, 58, 0
7, 80970, Note_on_c, 5, 60, 110
7, 80999, Note_on_c, 5, 60, 0
7, 81000, Note_on_c, 5, 58, 110
7, 81029, Note_on_c, 5, 58, 0
7, 81030, Note_on_c, 5, 60, 110
7, 81059, Note_on_c, 5, 60, 0
7, 81060, Note_on_c, 5, 56, 110
7, 81089, Note_on_c, 5, 56, 0
7, 81090, Note_on_c, 5, 58, 110
7, 81119, Note_on_c, 5, 58, 0
7, 81120, Note_on_c, 5, 56, 110
7, 81149, Note_on_c, 5, 56, 0
7, 81150, Note_on_c, 5, 58, 110
7, 81179, Note_on_c, 5, 58, 0
7, 81180, Note_on_c, 5, 55, 110
7, 81239, Note_on_c, 5, 55, 0
7, 81240, Note_on_c, 5, 50, 110
7, 81299, Note_on_c, 5, 50, 0
7, 81300, Note_on_c, 5, 43, 110
7, 81359, Note_on_c, 5, 43, 0
7, 81360, Note_on_c, 5, 53, 110
7, 81419, Note_on_c, 5, 53, 0
7, 81420, Note_on_c, 5, 51, 110
7, 81449, Note_on_c, 5, 51, 0
7, 81450, Note_on_c, 5, 53, 110
7, 81479, Note_on_c, 5, 53, 0
7, 81480, Note_on_c, 5, 51, 110
7, 81509, Note_on_c, 5, 51, 0
7, 81510, Note_on_c, 5, 53, 110
7, 81539, Note_on_c, 5, 53, 0
7, 81540, Note_on_c, 5, 50, 110
7, 81569, Note_on_c, 5, 50, 0
7, 81570, Note_on_c, 5, 51, 110
7, 81599, Note_on_c, 5, 51, 0
7, 81600, Note_on_c, 5, 50, 110
7, 81629, Note_on_c, 5, 50, 0
7, 81630, Note_on_c, 5, 51, 110
7, 81659, Note_on_c, 5, 51, 0
7, 81660, Note_on_c, 5, 48, 110
7, 81689, Note_on_c, 5, 48, 0
7, 81690, Note_on_c, 5, 50, 110
7, 81719, Note_on_c, 5, 50, 0
7, 81720, Note_on_c, 5, 48, 110
7, 81749, Note_on_c, 5, 48, 0
7, 81750, Note_on_c, 5, 50, 110
7, 81779, Note_on_c, 5, 50, 0
7, 81780, Note_on_c, 5, 46, 110
7, 81809, Note_on_c, 5, 46, 0
7, 81810, Note_on_c, 5, 48, 110
7, 81839, Note_on_c, 5, 48, 0
7, 81840, Note_on_c, 5, 46, 110
7, 81869, Note_on_c, 5, 46, 0
7, 81870, Note_on_c, 5, 48, 110
7, 81899, Note_on_c, 5, 48, 0
7, 81900, Note_on_c, 5, 44, 110
7, 81929, Note_on_c, 5, 44, 0
7, 81930, Note_on_c, 5, 46, 110
7, 81959, Note_on_c, 5, 46, 0
7, 81960, Note_on_c, 5, 44, 110
7, 81989, Note_on_c, 5, 44, 0
7, 81990, Note_on_c, 5, 46, 110
7, 82019, Note_on_c, 5, 46, 0
7, 82020, Note_on_c, 5, 43, 110
7, 82049, Note_on_c, 5, 43, 0
7, 82050, Note_on_c, 5, 44, 110
7, 82079, Note_on_c, 5, 44, 0
7, 82080, Note_on_c, 5, 43, 110
7, 82109, Note_on_c, 5, 43, 0
7, 82110, Note_on_c, 5, 44, 110
7, 82139, Note_on_c, 5, 44, 0
7, 82140, Note_on_c, 5, 41, 110
7, 82169, Note_on_c, 5, 41, 0
7, 82170, Note_on_c, 5, 40, 110
7, 82199, Note_on_c, 5, 40, 0
7, 82200, Note_on_c, 5, 41, 110
7, 82229, Note_on_c, 5, 41, 0
7, 82230, Note_on_c, 5, 43, 110
7, 82259, Note_on_c, 5, 43, 0
7, 82260, Note_on_c, 5, 44, 110
7, 82289, Note_on_c, 5, 44, 0
7, 82290, Note_on_c, 5, 46, 110
7, 82319, Note_on_c, 5, 46, 0
7, 82320, Note_on_c, 5, 48, 110
7, 82349, Note_on_c, 5, 48, 0
7, 82350, Note_on_c, 5, 50, 110
7, 82379, Note_on_c, 5, 50, 0
7, 82380, Note_on_c, 5, 52, 110
7, 82439, Note_on_c, 5, 52, 0
7, 82440, Note_on_c, 5, 55, 110
7, 82499, Note_on_c, 5, 55, 0
7, 82500, Note_on_c, 5, 48, 110
7, 82559, Note_on_c, 5, 48, 0
7, 82560, Note_on_c, 5, 52, 110
7, 82619, Note_on_c, 5, 52, 0
7, 82620, Note_on_c, 5, 53, 110
7, 82679, Note_on_c, 5, 53, 0
7, 82680, Note_on_c, 5, 41, 110
7, 82739, Note_on_c, 5, 41, 0
7, 82740, Note_on_c, 5, 44, 110
7, 82799, Note_on_c, 5, 44, 0
7, 82800, Note_on_c, 5, 48, 110
7, 82859, Note_on_c, 5, 48, 0
7, 82860, Note_on_c, 5, 52, 110
7, 82919, Note_on_c, 5, 52, 0
7, 82920, Note_on_c, 5, 55, 110
7, 82979, Note_on_c, 5, 55, 0
7, 82980, Note_on_c, 5, 48, 110
7, 83039, Note_on_c, 5, 48, 0
7, 83040, Note_on_c, 5, 52, 110
7, 83099, Note_on_c, 5, 52, 0
7, 83100, Note_on_c, 5, 53, 110
7, 83159, Note_on_c, 5, 53, 0
7, 83160, Note_on_c, 5, 41, 110
7, 83219, Note_on_c, 5, 41, 0
7, 83220, Note_on_c, 5, 44, 110
7, 83279, Note_on_c, 5, 44, 0
7, 83280, Note_on_c, 5, 48, 110
7, 83339, Note_on_c, 5, 48, 0
7, 83340, Note_on_c, 5, 50, 110
7, 83399, Note_on_c, 5, 50, 0
7, 83400, Note_on_c, 5, 53, 110
7, 83459, Note_on_c, 5, 53, 0
7, 83460, Note_on_c, 5, 46, 110
7, 83519, Note_on_c, 5, 46, 0
7, 83520, Note_on_c, 5, 50, 110
7, 83579, Note_on_c, 5, 50, 0
7, 83580, Note_on_c, 5, 51, 110
7, 83639, Note_on_c, 5, 51, 0
7, 83640, Note_on_c, 5, 39, 110
7, 83699, Note_on_c, 5, 39, 0
7, 83700, Note_on_c, 5, 43, 110
7, 83759, Note_on_c, 5, 43, 0
7, 83760, Note_on_c, 5, 46, 110
7, 83819, Note_on_c, 5, 46, 0
7, 83820, Note_on_c, 5, 50, 110
7, 83879, Note_on_c, 5, 50, 0
7, 83880, Note_on_c, 5, 53, 110
7, 83939, Note_on_c, 5, 53, 0
7, 83940, Note_on_c, 5, 46, 110
7, 83999, Note_on_c, 5, 46, 0
7, 84000, Note_on_c, 5, 50, 110
7, 84059, Note_on_c, 5, 50, 0
7, 84060, Note_on_c, 5, 39, 110
7, 84119, Note_on_c, 5, 39, 0
7, 84120, Note_on_c, 5, 51, 110
7, 84179, Note_on_c, 5, 51, 0
7, 84180, Note_on_c, 5, 55, 110
7, 84239, Note_on_c, 5, 55, 0
7, 84240, Note_on_c, 5, 51, 110
7, 84299, Note_on_c, 5, 51, 0
7, 84300, Note_on_c, 5, 50, 110
7, 84359, Note_on_c, 5, 50, 0
7, 84360, Note_on_c, 5, 56, 110
7, 84419, Note_on_c, 5, 56, 0
7, 84420, Note_on_c, 5, 48, 110
7, 84479, Note_on_c, 5, 48, 0
7, 84480, Note_on_c, 5, 56, 110
7, 84539, Note_on_c, 5, 56, 0
7, 84540, Note_on_c, 5, 47, 110
7, 84569, Note_on_c, 5, 47, 0
7, 84570, Note_on_c, 5, 45, 110
7, 84599, Note_on_c, 5, 45, 0
7, 84600, Note_on_c, 5, 47, 110
7, 84629, Note_on_c, 5, 47, 0
7, 84630, Note_on_c, 5, 45, 110
7, 84659, Note_on_c, 5, 45, 0
7, 84660, Note_on_c, 5, 43, 110
7, 84689, Note_on_c, 5, 43, 0
7, 84690, Note_on_c, 5, 45, 110
7, 84719, Note_on_c, 5, 45, 0
7, 84720, Note_on_c, 5, 47, 110
7, 84749, Note_on_c, 5, 47, 0
7, 84750, Note_on_c, 5, 43, 110
7, 84779, Note_on_c, 5, 43, 0
7, 84780, Note_on_c, 5, 48, 110
7, 84839, Note_on_c, 5, 48, 0
7, 84840, Note_on_c, 5, 55, 110
7, 84899, Note_on_c, 5, 55, 0
7, 84900, Note_on_c, 5, 46, 110
7, 84959, Note_on_c, 5, 46, 0
7, 84960, Note_on_c, 5, 55, 110
7, 85019, Note_on_c, 5, 55, 0
7, 85020, Note_on_c, 5, 45, 110
7, 85049, Note_on_c, 5, 45, 0
7, 85050, Note_on_c, 5, 43, 110
7, 85079, Note_on_c, 5, 43, 0
7, 85080, Note_on_c, 5, 45, 110
7, 85109, Note_on_c, 5, 45, 0
7, 85110, Note_on_c, 5, 43, 110
7, 85139, Note_on_c, 5, 43, 0
7, 85140, Note_on_c, 5, 42, 110
7, 85169, Note_on_c, 5, 42, 0
7, 85170, Note_on_c, 5, 43, 110
7, 85199, Note_on_c, 5, 43, 0
7, 85200, Note_on_c, 5, 45, 110
7, 85229, Note_on_c, 5, 45, 0
7, 85230, Note_on_c, 5, 42, 110
7, 85259, Note_on_c, 5, 42, 0
7, 85260, Note_on_c, 5, 43, 110
7, 85289, Note_on_c, 5, 43, 0
7, 85290, Note_on_c, 5, 44, 110
7, 85319, Note_on_c, 5, 44, 0
7, 85320, Note_on_c, 5, 43, 110
7, 85349, Note_on_c, 5, 43, 0
7, 85350, Note_on_c, 5, 44, 110
7, 85379, Note_on_c, 5, 44, 0
7, 85380, Note_on_c, 5, 43, 110
7, 85409, Note_on_c, 5, 43, 0
7, 85410, Note_on_c, 5, 44, 110
7, 85439, Note_on_c, 5, 44, 0
7, 85440, Note_on_c, 5, 41, 110
7, 85469, Note_on_c, 5, 41, 0
7, 85470, Note_on_c, 5, 43, 110
7, 85499, Note_on_c, 5, 43, 0
7, 85500, Note_on_c, 5, 44, 110
7, 85529, Note_on_c, 5, 44, 0
7, 85530, Note_on_c, 5, 56, 110
7, 85559, Note_on_c, 5, 56, 0
7, 85560, Note_on_c, 5, 55, 110
7, 85589, Note_on_c, 5, 55, 0
7, 85590, Note_on_c, 5, 53, 110
7, 85619, Note_on_c, 5, 53, 0
7, 85620, Note_on_c, 5, 51, 110
7, 85649, Note_on_c, 5, 51, 0
7, 85650, Note_on_c, 5, 56, 110
7, 85679, Note_on_c, 5, 56, 0
7, 85680, Note_on_c, 5, 55, 110
7, 85709, Note_on_c, 5, 55, 0
7, 85710, Note_on_c, 5, 53, 110
7, 85739, Note_on_c, 5, 53, 0
7, 85740, Note_on_c, 5, 51, 110
7, 85769, Note_on_c, 5, 51, 0
7, 85770, Note_on_c, 5, 56, 110
7, 85799, Note_on_c, 5, 56, 0
7, 85800, Note_on_c, 5, 55, 110
7, 85829, Note_on_c, 5, 55, 0
7, 85830, Note_on_c, 5, 53, 110
7, 85859, Note_on_c, 5, 53, 0
7, 85860, Note_on_c, 5, 55, 110
7, 85919, Note_on_c, 5, 55, 0
7, 85920, Note_on_c, 5, 43, 110
7, 85979, Note_on_c, 5, 43, 0
7, 85980, Note_on_c, 5, 48, 110
7, 86039, Note_on_c, 5, 48, 0
7, 86040, Note_on_c, 5, 43, 110
7, 86099, Note_on_c, 5, 43, 0
7, 86100, Note_on_c, 5, 36, 110
7, 86159, Note_on_c, 5, 36, 0
7, 86640, Note_on_c, 5, 48, 110
7, 86669, Note_on_c, 5, 48, 0
7, 86670, Note_on_c, 5, 50, 110
7, 86699, Note_on_c, 5, 50, 0
7, 86700, Note_on_c, 5, 51, 110
7, 86729, Note_on_c, 5, 51, 0
7, 86730, Note_on_c, 5, 50, 110
7, 86759, Note_on_c, 5, 50, 0
7, 86760, Note_on_c, 5, 51, 110
7, 86789, Note_on_c, 5, 51, 0
7, 86790, Note_on_c, 5, 48, 110
7, 86819, Note_on_c, 5, 48, 0
7, 86820, Note_on_c, 5, 55, 110
7, 86849, Note_on_c, 5, 55, 0
7, 86850, Note_on_c, 5, 53, 110
7, 86879, Note_on_c, 5, 53, 0
7, 86880, Note_on_c, 5, 55, 110
7, 86909, Note_on_c, 5, 55, 0
7, 86910, Note_on_c, 5, 43, 110
7, 86939, Note_on_c, 5, 43, 0
7, 86940, Note_on_c, 5, 48, 110
7, 86999, Note_on_c, 5, 48, 0
7, 87000, Note_on_c, 5, 43, 110
7, 87059, Note_on_c, 5, 43, 0
7, 87060, Note_on_c, 5, 36, 110
7, 87119, Note_on_c, 5, 36, 0
7, 87600, Note_on_c, 5, 51, 110
7, 87629, Note_on_c, 5, 51, 0
7, 87630, Note_on_c, 5, 53, 110
7, 87659, Note_on_c, 5, 53, 0
7, 87660, Note_on_c, 5, 55, 110
7, 87689, Note_on_c, 5, 55, 0
7, 87690, Note_on_c, 5, 53, 110
7, 87719, Note_on_c, 5, 53, 0
7, 87720, Note_on_c, 5, 55, 110
7, 87749, Note_on_c, 5, 55, 0
7, 87750, Note_on_c, 5, 51, 110
7, 87779, Note_on_c, 5, 51, 0
7, 87780, Note_on_c, 5, 58, 110
7, 87809, Note_on_c, 5, 58, 0
7, 87810, Note_on_c, 5, 56, 110
7, 87839, Note_on_c, 5, 56, 0
7, 87840, Note_on_c, 5, 58, 110
7, 87869, Note_on_c, 5, 58, 0
7, 87870, Note_on_c, 5, 46, 110
7, 87899, Note_on_c, 5, 46, 0
7, 87900, Note_on_c, 5, 51, 110
7, 87959, Note_on_c, 5, 51, 0
7, 87960, Note_on_c, 5, 46, 110
7, 88019, Note_on_c, 5, 46, 0
7, 88020, Note_on_c, 5, 39, 110
7, 88079, Note_on_c, 5, 39, 0
7, 88080, Note_on_c, 5, 51, 110
7, 88139, Note_on_c, 5, 51, 0
7, 88140, Note_on_c, 5, 56, 110
7, 88169, Note_on_c, 5, 56, 0
7, 88170, Note_on_c, 5, 60, 110
7, 88199, Note_on_c, 5, 60, 0
7, 88200, Note_on_c, 5, 56, 110
7, 88229, Note_on_c, 5, 56, 0
7, 88230, Note_on_c, 5, 60, 110
7, 88259, Note_on_c, 5, 60, 0
7, 88260, Note_on_c, 5, 50, 110
7, 88319, Note_on_c, 5, 50, 0
7, 88320, Note_on_c, 5, 58, 110
7, 88379, Note_on_c, 5, 58, 0
7, 88380, Note_on_c, 5, 63, 110
7, 88409, Note_on_c, 5, 63, 0
7, 88410, Note_on_c, 5, 58, 110
7, 88439, Note_on_c, 5, 58, 0
7, 88440, Note_on_c, 5, 55, 110
7, 88469, Note_on_c, 5, 55, 0
7, 88470, Note_on_c, 5, 58, 110
7, 88499, Note_on_c, 5, 58, 0
7, 88500, Note_on_c, 5, 51, 110
7, 88559, Note_on_c, 5, 51, 0
7, 88560, Note_on_c, 5, 56, 110
7, 88619, Note_on_c, 5, 56, 0
7, 88620, Note_on_c, 5, 50, 110
7, 88649, Note_on_c, 5, 50, 0
7, 88650, Note_on_c, 5, 56, 110
7, 88679, Note_on_c, 5, 56, 0
7, 88680, Note_on_c, 5, 53, 110
7, 88709, Note_on_c, 5, 53, 0
7, 88710, Note_on_c, 5, 56, 110
7, 88739, Note_on_c, 5, 56, 0
7, 88740, Note_on_c, 5, 47, 110
7, 88799, Note_on_c, 5, 47, 0
7, 88800, Note_on_c, 5, 55, 110
7, 88859, Note_on_c, 5, 55, 0
7, 88860, Note_on_c, 5, 60, 110
7, 88889, Note_on_c, 5, 60, 0
7, 88890, Note_on_c, 5, 55, 110
7, 88919, Note_on_c, 5, 55, 0
7, 88920, Note_on_c, 5, 51, 110
7, 88949, Note_on_c, 5, 51, 0
7, 88950, Note_on_c, 5, 55, 110
7, 88979, Note_on_c, 5, 55, 0
7, 88980, Note_on_c, 5, 48, 110
7, 89039, Note_on_c, 5, 48, 0
7, 89040, Note_on_c, 5, 60, 110
7, 89099, Note_on_c, 5, 60, 0
7, 89100, Note_on_c, 5, 54, 110
7, 89159, Note_on_c, 5, 54, 0
7, 89160, Note_on_c, 5, 50, 110
7, 89219, Note_on_c, 5, 50, 0
7, 89220, Note_on_c, 5, 55, 110
7, 89249, Note_on_c, 5, 55, 0
7, 89250, Note_on_c, 5, 54, 110
7, 89279, Note_on_c, 5, 54, 0
7, 89280, Note_on_c, 5, 55, 110
7, 89309, Note_on_c, 5, 55, 0
7, 89310, Note_on_c, 5, 48, 110
7, 89339, Note_on_c, 5, 48, 0
7, 89340, Note_on_c, 5, 50, 110
7, 89399, Note_on_c, 5, 50, 0
7, 89400, Note_on_c, 5, 62, 110
7, 89459, Note_on_c, 5, 62, 0
7, 89460, Note_on_c, 5, 54, 110
7, 89519, Note_on_c, 5, 54, 0
7, 89520, Note_on_c, 5, 55, 110
7, 89579, Note_on_c, 5, 55, 0
7, 89580, Note_on_c, 5, 50, 110
7, 89970, Note_on_c, 5, 50, 0
7, 89970, Note_on_c, 5, 51, 110
7, 89999, Note_on_c, 5, 51, 0
7, 90000, Note_on_c, 5, 48, 110
7, 90029, Note_on_c, 5, 48, 0
7, 90030, Note_on_c, 5, 50, 110
7, 90059, Note_on_c, 5, 50, 0
7, 90060, Note_on_c, 5, 46, 110
7, 90089, Note_on_c, 5, 46, 0
7, 90090, Note_on_c, 5, 48, 110
7, 90119, Note_on_c, 5, 48, 0
7, 90120, Note_on_c, 5, 46, 110
7, 90149, Note_on_c, 5, 46, 0
7, 90150, Note_on_c, 5, 48, 110
7, 90179, Note_on_c, 5, 48, 0
7, 90180, Note_on_c, 5, 45, 110
7, 90209, Note_on_c, 5, 45, 0
7, 90210, Note_on_c, 5, 46, 110
7, 90239, Note_on_c, 5, 46, 0
7, 90240, Note_on_c, 5, 45, 110
7, 90269, Note_on_c, 5, 45, 0
7, 90270, Note_on_c, 5, 46, 110
7, 90299, Note_on_c, 5, 46, 0
7, 90300, Note_on_c, 5, 43, 110
7, 90359, Note_on_c, 5, 43, 0
7, 90360, Note_on_c, 5, 62, 110
7, 90389, Note_on_c, 5, 62, 0
7, 90390, Note_on_c, 5, 60, 110
7, 90419, Note_on_c, 5, 60, 0
7, 90420, Note_on_c, 5, 58, 110
7, 90449, Note_on_c, 5, 58, 0
7, 90450, Note_on_c, 5, 57, 110
7, 90479, Note_on_c, 5, 57, 0
7, 90480, Note_on_c, 5, 55, 110
7, 90509, Note_on_c, 5, 55, 0
7, 90510, Note_on_c, 5, 57, 110
7, 90539, Note_on_c, 5, 57, 0
7, 90540, Note_on_c, 5, 53, 110
7, 90569, Note_on_c, 5, 53, 0
7, 90570, Note_on_c, 5, 55, 110
7, 90599, Note_on_c, 5, 55, 0
7, 90600, Note_on_c, 5, 53, 110
7, 90629, Note_on_c, 5, 53, 0
7, 90630, Note_on_c, 5, 55, 110
7, 90659, Note_on_c, 5, 55, 0
7, 90660, Note_on_c, 5, 51, 110
7, 90689, Note_on_c, 5, 51, 0
7, 90690, Note_on_c, 5, 53, 110
7, 90719, Note_on_c, 5, 53, 0
7, 90720, Note_on_c, 5, 51, 110
7, 90749, Note_on_c, 5, 51, 0
7, 90750, Note_on_c, 5, 53, 110
7, 90779, Note_on_c, 5, 53, 0
7, 90780, Note_on_c, 5, 50, 110
7, 90839, Note_on_c, 5, 50, 0
7, 90840, Note_on_c, 5, 45, 110
7, 90899, Note_on_c, 5, 45, 0
7, 90900, Note_on_c, 5, 38, 110
7, 90959, Note_on_c, 5, 38, 0
7, 91440, Note_on_c, 5, 50, 110
7, 91499, Note_on_c, 5, 50, 0
7, 91500, Note_on_c, 5, 55, 110
7, 91559, Note_on_c, 5, 55, 0
7, 91560, Note_on_c, 5, 46, 110
7, 91619, Note_on_c, 5, 46, 0
7, 91620, Note_on_c, 5, 48, 110
7, 91679, Note_on_c, 5, 48, 0
7, 91680, Note_on_c, 5, 50, 110
7, 91739, Note_on_c, 5, 50, 0
7, 91740, Note_on_c, 5, 43, 110
7, 91799, Note_on_c, 5, 43, 0
7, 91800, Note_on_c, 5, 50, 110
7, 91859, Note_on_c, 5, 50, 0
7, 91860, Note_on_c, 5, 55, 110
7, 91919, Note_on_c, 5, 55, 0
7, 92400, Note_on_c, 5, 43, 110
7, 92459, Note_on_c, 5, 43, 0
7, 92460, Note_on_c, 5, 48, 110
7, 92519, Note_on_c, 5, 48, 0
7, 92520, Note_on_c, 5, 51, 110
7, 92579, Note_on_c, 5, 51, 0
7, 92580, Note_on_c, 5, 53, 110
7, 92639, Note_on_c, 5, 53, 0
7, 92640, Note_on_c, 5, 55, 110
7, 92699, Note_on_c, 5, 55, 0
7, 92700, Note_on_c, 5, 48, 110
7, 92759, Note_on_c, 5, 48, 0
7, 92760, Note_on_c, 5, 43, 110
7, 92819, Note_on_c, 5, 43, 0
7, 92820, Note_on_c, 5, 36, 110
7, 92879, Note_on_c, 5, 36, 0
7, 92880, Note_on_c, 5, 48, 110
7, 92939, Note_on_c, 5, 48, 0
7, 92940, Note_on_c, 5, 47, 110
7, 92999, Note_on_c, 5, 47, 0
7, 93000, Note_on_c, 5, 50, 110
7, 93059, Note_on_c, 5, 50, 0
7, 93060, Note_on_c, 5, 43, 110
7, 93119, Note_on_c, 5, 43, 0
7, 93120, Note_on_c, 5, 47, 110
7, 93179, Note_on_c, 5, 47, 0
7, 93180, Note_on_c, 5, 48, 110
7, 93239, Note_on_c, 5, 48, 0
7, 93240, Note_on_c, 5, 55, 110
7, 93299, Note_on_c, 5, 55, 0
7, 93300, Note_on_c, 5, 60, 110
7, 93359, Note_on_c, 5, 60, 0
7, 93360, Note_on_c, 5, 67, 110
7, 93479, Note_on_c, 5, 67, 0
7, 93480, Note_on_c, 5, 65, 110
7, 93509, Note_on_c, 5, 65, 0
7, 93510, Note_on_c, 5, 63, 110
7, 93539, Note_on_c, 5, 63, 0
7, 93540, Note_on_c, 5, 62, 110
7, 93569, Note_on_c, 5, 62, 0
7, 93570, Note_on_c, 5, 60, 110
7, 93599, Note_on_c, 5, 60, 0
7, 93600, Note_on_c, 5, 59, 110
7, 93629, Note_on_c, 5, 59, 0
7, 93630, Note_on_c, 5, 57, 110
7, 93659, Note_on_c, 5, 57, 0
7, 93660, Note_on_c, 5, 55, 110
7, 93689, Note_on_c, 5, 55, 0
7, 93690, Note_on_c, 5, 59, 110
7, 93719, Note_on_c, 5, 59, 0
7, 93720, Note_on_c, 5, 60, 110
7, 93749, Note_on_c, 5, 60, 0
7, 93750, Note_on_c, 5, 55, 110
7, 93779, Note_on_c, 5, 55, 0
7, 93780, Note_on_c, 5, 51, 110
7, 93809, Note_on_c, 5, 51, 0
7, 93810, Note_on_c, 5, 55, 110
7, 93839, Note_on_c, 5, 55, 0
7, 93840, Note_on_c, 5, 48, 110
7, 93869, Note_on_c, 5, 48, 0
7, 93870, Note_on_c, 5, 51, 110
7, 93899, Note_on_c, 5, 51, 0
7, 93900, Note_on_c, 5, 45, 110
7, 93959, Note_on_c, 5, 45, 0
7, 93960, Note_on_c, 5, 48, 110
7, 94019, Note_on_c, 5, 48, 0
7, 94020, Note_on_c, 5, 41, 110
7, 94079, Note_on_c, 5, 41, 0
7, 94080, Note_on_c, 5, 45, 110
7, 94139, Note_on_c, 5, 45, 0
7, 94140, Note_on_c, 5, 46, 110
7, 94199, Note_on_c, 5, 46, 0
7, 94200, Note_on_c, 5, 53, 110
7, 94259, Note_on_c, 5, 53, 0
7, 94260, Note_on_c, 5, 58, 110
7, 94319, Note_on_c, 5, 58, 0
7, 94320, Note_on_c, 5, 65, 110
7, 94439, Note_on_c, 5, 65, 0
7, 94440, Note_on_c, 5, 63, 110
7, 94469, Note_on_c, 5, 63, 0
7, 94470, Note_on_c, 5, 62, 110
7, 94499, Note_on_c, 5, 62, 0
7, 94500, Note_on_c, 5, 60, 110
7, 94529, Note_on_c, 5, 60, 0
7, 94530, Note_on_c, 5, 58, 110
7, 94559, Note_on_c, 5, 58, 0
7, 94560, Note_on_c, 5, 57, 110
7, 94589, Note_on_c, 5, 57, 0
7, 94590, Note_on_c, 5, 55, 110
7, 94619, Note_on_c, 5, 55, 0
7, 94620, Note_on_c, 5, 53, 110
7, 94649, Note_on_c, 5, 53, 0
7, 94650, Note_on_c, 5, 57, 110
7, 94679, Note_on_c, 5, 57, 0
7, 94680, Note_on_c, 5, 58, 110
7, 94709, Note_on_c, 5, 58, 0
7, 94710, Note_on_c, 5, 53, 110
7, 94739, Note_on_c, 5, 53, 0
7, 94740, Note_on_c, 5, 50, 110
7, 94769, Note_on_c, 5, 50, 0
7, 94770, Note_on_c, 5, 53, 110
7, 94799, Note_on_c, 5, 53, 0
7, 94800, Note_on_c, 5, 51, 110
7, 94829, Note_on_c, 5, 51, 0
7, 94830, Note_on_c, 5, 55, 110
7, 94859, Note_on_c, 5, 55, 0
7, 94860, Note_on_c, 5, 45, 110
7, 94919, Note_on_c, 5, 45, 0
7, 94920, Note_on_c, 5, 63, 110
7, 94979, Note_on_c, 5, 63, 0
7, 94980, Note_on_c, 5, 55, 110
7, 95039, Note_on_c, 5, 55, 0
7, 95040, Note_on_c, 5, 63, 110
7, 95099, Note_on_c, 5, 63, 0
7, 95100, Note_on_c, 5, 54, 110
7, 95129, Note_on_c, 5, 54, 0
7, 95130, Note_on_c, 5, 52, 110
7, 95159, Note_on_c, 5, 52, 0
7, 95160, Note_on_c, 5, 54, 110
7, 95189, Note_on_c, 5, 54, 0
7, 95190, Note_on_c, 5, 52, 110
7, 95219, Note_on_c, 5, 52, 0
7, 95220, Note_on_c, 5, 50, 110
7, 95249, Note_on_c, 5, 50, 0
7, 95250, Note_on_c, 5, 52, 110
7, 95279, Note_on_c, 5, 52, 0
7, 95280, Note_on_c, 5, 54, 110
7, 95309, Note_on_c, 5, 54, 0
7, 95310, Note_on_c, 5, 50, 110
7, 95339, Note_on_c, 5, 50, 0
7, 95340, Note_on_c, 5, 43, 110
7, 95399, Note_on_c, 5, 43, 0
7, 95400, Note_on_c, 5, 62, 110
7, 95459, Note_on_c, 5, 62, 0
7, 95460, Note_on_c, 5, 53, 110
7, 95519, Note_on_c, 5, 53, 0
7, 95520, Note_on_c, 5, 62, 110
7, 95579, Note_on_c, 5, 62, 0
7, 95580, Note_on_c, 5, 52, 110
7, 95609, Note_on_c, 5, 52, 0
7, 95610, Note_on_c, 5, 50, 110
7, 95639, Note_on_c, 5, 50, 0
7, 95640, Note_on_c, 5, 52, 110
7, 95669, Note_on_c, 5, 52, 0
7, 95670, Note_on_c, 5, 50, 110
7, 95699, Note_on_c, 5, 50, 0
7, 95700, Note_on_c, 5, 49, 110
7, 95729, Note_on_c, 5, 49, 0
7, 95730, Note_on_c, 5, 50, 110
7, 95759, Note_on_c, 5, 50, 0
7, 95760, Note_on_c, 5, 52, 110
7, 95789, Note_on_c, 5, 52, 0
7, 95790, Note_on_c, 5, 49, 110
7, 95819, Note_on_c, 5, 49, 0
7, 95820, Note_on_c, 5, 50, 110
7, 95849, Note_on_c, 5, 50, 0
7, 95850, Note_on_c, 5, 51, 110
7, 95879, Note_on_c, 5, 51, 0
7, 95880, Note_on_c, 5, 50, 110
7, 95909, Note_on_c, 5, 50, 0
7, 95910, Note_on_c, 5, 51, 110
7, 95939, Note_on_c, 5, 51, 0
7, 95940, Note_on_c, 5, 50, 110
7, 95969, Note_on_c, 5, 50, 0
7, 95970, Note_on_c, 5, 51, 110
7, 95999, Note_on_c, 5, 51, 0
7, 96000, Note_on_c, 5, 48, 110
7, 96029, Note_on_c, 5, 48, 0
7, 96030, Note_on_c, 5, 50, 110
7, 96059, Note_on_c, 5, 50, 0
7, 96060, Note_on_c, 5, 51, 110
7, 96119, Note_on_c, 5, 51, 0
7, 96120, Note_on_c, 5, 50, 110
7, 96149, Note_on_c, 5, 50, 0
7, 96150, Note_on_c, 5, 48, 110
7, 96179, Note_on_c, 5, 48, 0
7, 96180, Note_on_c, 5, 46, 110
7, 96209, Note_on_c, 5, 46, 0
7, 96210, Note_on_c, 5, 51, 110
7, 96239, Note_on_c, 5, 51, 0
7, 96240, Note_on_c, 5, 50, 110
7, 96269, Note_on_c, 5, 50, 0
7, 96270, Note_on_c, 5, 48, 110
7, 96299, Note_on_c, 5, 48, 0
7, 96300, Note_on_c, 5, 46, 110
7, 96329, Note_on_c, 5, 46, 0
7, 96330, Note_on_c, 5, 51, 110
7, 96359, Note_on_c, 5, 51, 0
7, 96360, Note_on_c, 5, 50, 110
7, 96389, Note_on_c, 5, 50, 0
7, 96390, Note_on_c, 5, 48, 110
7, 96419, Note_on_c, 5, 48, 0
7, 96420, Note_on_c, 5, 50, 110
7, 96479, Note_on_c, 5, 50, 0
7, 96480, Note_on_c, 5, 38, 110
7, 96539, Note_on_c, 5, 38, 0
7, 96540, Note_on_c, 5, 43, 110
7, 96629, Note_on_c, 5, 43, 0
7, 96630, Note_on_c, 5, 50, 110
7, 96659, Note_on_c, 5, 50, 0
7, 96660, Note_on_c, 5, 52, 110
7, 96689, Note_on_c, 5, 52, 0
7, 96690, Note_on_c, 5, 54, 110
7, 96719, Note_on_c, 5, 54, 0
7, 96720, Note_on_c, 5, 55, 110
7, 96749, Note_on_c, 5, 55, 0
7, 96750, Note_on_c, 5, 57, 110
7, 96779, Note_on_c, 5, 57, 0
7, 96780, Note_on_c, 5, 58, 110
7, 96839, Note_on_c, 5, 58, 0
7, 96840, Note_on_c, 5, 55, 110
7, 96899, Note_on_c, 5, 55, 0
7, 96900, Note_on_c, 5, 58, 110
7, 96959, Note_on_c, 5, 58, 0
7, 96960, Note_on_c, 5, 55, 110
7, 97019, Note_on_c, 5, 55, 0
7, 97020, Note_on_c, 5, 62, 110
7, 97139, Note_on_c, 5, 62, 0
7, 97200, Note_on_c, 5, 60, 110
7, 97259, Note_on_c, 5, 60, 0
7, 97260, Note_on_c, 5, 58, 110
7, 97319, Note_on_c, 5, 58, 0
7, 97320, Note_on_c, 5, 62, 110
7, 97379, Note_on_c, 5, 62, 0
7, 97380, Note_on_c, 5, 55, 110
7, 97439, Note_on_c, 5, 55, 0
7, 97440, Note_on_c, 5, 62, 110
7, 97499, Note_on_c, 5, 62, 0
7, 97500, Note_on_c, 5, 54, 110
7, 97530, Note_on_c, 5, 54, 0
7, 97530, Note_on_c, 5, 52, 110
7, 97560, Note_on_c, 5, 52, 0
7, 97560, Note_on_c, 5, 54, 110
7, 97590, Note_on_c, 5, 54, 0
7, 97590, Note_on_c, 5, 52, 110
7, 97620, Note_on_c, 5, 52, 0
7, 97620, Note_on_c, 5, 50, 110
7, 97679, Note_on_c, 5, 50, 0
7, 97800, Note_on_c, 5, 43, 110
7, 97859, Note_on_c, 5, 43, 0
7, 97860, Note_on_c, 5, 55, 110
7, 97919, Note_on_c, 5, 55, 0
7, 97920, Note_on_c, 5, 51, 110
7, 97979, Note_on_c, 5, 51, 0
7, 97980, Note_on_c, 5, 57, 110
7, 98099, Note_on_c, 5, 57, 0
7, 98160, Note_on_c, 5, 53, 110
7, 98219, Note_on_c, 5, 53, 0
7, 98220, Note_on_c, 5, 50, 110
7, 98279, Note_on_c, 5, 50, 0
7, 98280, Note_on_c, 5, 53, 110
7, 98339, Note_on_c, 5, 53, 0
7, 98340, Note_on_c, 5, 46, 110
7, 98399, Note_on_c, 5, 46, 0
7, 98400, Note_on_c, 5, 50, 110
7, 98459, Note_on_c, 5, 50, 0
7, 98460, Note_on_c, 5, 45, 110
7, 98489, Note_on_c, 5, 45, 0
7, 98490, Note_on_c, 5, 43, 110
7, 98519, Note_on_c, 5, 43, 0
7, 98520, Note_on_c, 5, 45, 110
7, 98549, Note_on_c, 5, 45, 0
7, 98550, Note_on_c, 5, 43, 110
7, 98579, Note_on_c, 5, 43, 0
7, 98580, Note_on_c, 5, 41, 110
7, 98639, Note_on_c, 5, 41, 0
7, 99720, Note_on_c, 5, 46, 110
7, 99779, Note_on_c, 5, 46, 0
7, 99780, Note_on_c, 5, 50, 110
7, 99839, Note_on_c, 5, 50, 0
7, 99840, Note_on_c, 5, 46, 110
7, 99899, Note_on_c, 5, 46, 0
7, 99960, Note_on_c, 5, 43, 110
7, 100019, Note_on_c, 5, 43, 0
7, 100020, Note_on_c, 5, 48, 110
7, 100079, Note_on_c, 5, 48, 0
7, 100080, Note_on_c, 5, 36, 110
7, 100139, Note_on_c, 5, 36, 0
7, 100200, Note_on_c, 5, 41, 110
7, 100259, Note_on_c, 5, 41, 0
7, 100260, Note_on_c, 5, 46, 110
7, 100319, Note_on_c, 5, 46, 0
7, 100320, Note_on_c, 5, 49, 110
7, 100379, Note_on_c, 5, 49, 0
7, 100410, Note_on_c, 5, 48, 110
7, 100439, Note_on_c, 5, 48, 0
7, 100440, Note_on_c, 5, 52, 110
7, 100469, Note_on_c, 5, 52, 0
7, 100470, Note_on_c, 5, 55, 110
7, 100499, Note_on_c, 5, 55, 0
7, 100500, Note_on_c, 5, 60, 110
7, 100529, Note_on_c, 5, 60, 0
7, 100530, Note_on_c, 5, 48, 110
7, 100559, Note_on_c, 5, 48, 0
7, 100560, Note_on_c, 5, 50, 110
7, 100589, Note_on_c, 5, 50, 0
7, 100590, Note_on_c, 5, 52, 110
7, 100619, Note_on_c, 5, 52, 0
7, 100620, Note_on_c, 5, 53, 110
7, 100679, Note_on_c, 5, 53, 0
7, 100680, Note_on_c, 5, 65, 110
7, 100799, Note_on_c, 5, 65, 0
7, 100800, Note_on_c, 5, 64, 110
7, 100859, Note_on_c, 5, 64, 0
7, 100860, Note_on_c, 5, 65, 110
7, 100889, Note_on_c, 5, 65, 0
7, 100890, Note_on_c, 5, 64, 110
7, 100919, Note_on_c, 5, 64, 0
7, 100920, Note_on_c, 5, 65, 110
7, 100949, Note_on_c, 5, 65, 0
7, 100950, Note_on_c, 5, 60, 110
7, 100979, Note_on_c, 5, 60, 0
7, 100980, Note_on_c, 5, 53, 110
7, 101009, Note_on_c, 5, 53, 0
7, 101010, Note_on_c, 5, 55, 110
7, 101039, Note_on_c, 5, 55, 0
7, 101040, Note_on_c, 5, 53, 110
7, 101069, Note_on_c, 5, 53, 0
7, 101070, Note_on_c, 5, 55, 110
7, 101099, Note_on_c, 5, 55, 0
7, 101100, Note_on_c, 5, 51, 110
7, 101129, Note_on_c, 5, 51, 0
7, 101130, Note_on_c, 5, 53, 110
7, 101159, Note_on_c, 5, 53, 0
7, 101160, Note_on_c, 5, 51, 110
7, 101189, Note_on_c, 5, 51, 0
7, 101190, Note_on_c, 5, 53, 110
7, 101219, Note_on_c, 5, 53, 0
7, 101220, Note_on_c, 5, 49, 110
7, 101249, Note_on_c, 5, 49, 0
7, 101250, Note_on_c, 5, 51, 110
7, 101279, Note_on_c, 5, 51, 0
7, 101280, Note_on_c, 5, 49, 110
7, 101309, Note_on_c, 5, 49, 0
7, 101310, Note_on_c, 5, 51, 110
7, 101339, Note_on_c, 5, 51, 0
7, 101340, Note_on_c, 5, 48, 110
7, 101399, Note_on_c, 5, 48, 0
7, 101400, Note_on_c, 5, 43, 110
7, 101459, Note_on_c, 5, 43, 0
7, 101460, Note_on_c, 5, 36, 110
7, 101489, Note_on_c, 5, 36, 0
7, 101490, Note_on_c, 5, 48, 110
7, 101519, Note_on_c, 5, 48, 0
7, 101520, Note_on_c, 5, 52, 110
7, 101549, Note_on_c, 5, 52, 0
7, 101550, Note_on_c, 5, 48, 110
7, 101579, Note_on_c, 5, 48, 0
7, 101580, Note_on_c, 5, 53, 110
7, 101609, Note_on_c, 5, 53, 0
7, 101610, Note_on_c, 5, 55, 110
7, 101639, Note_on_c, 5, 55, 0
7, 101640, Note_on_c, 5, 53, 110
7, 101669, Note_on_c, 5, 53, 0
7, 101670, Note_on_c, 5, 55, 110
7, 101699, Note_on_c, 5, 55, 0
7, 101700, Note_on_c, 5, 51, 110
7, 101729, Note_on_c, 5, 51, 0
7, 101730, Note_on_c, 5, 53, 110
7, 101759, Note_on_c, 5, 53, 0
7, 101760, Note_on_c, 5, 51, 110
7, 101789, Note_on_c, 5, 51, 0
7, 101790, Note_on_c, 5, 53, 110
7, 101819, Note_on_c, 5, 53, 0
7, 101820, Note_on_c, 5, 50, 110
7, 101849, Note_on_c, 5, 50, 0
7, 101850, Note_on_c, 5, 51, 110
7, 101879, Note_on_c, 5, 51, 0
7, 101880, Note_on_c, 5, 50, 110
7, 101909, Note_on_c, 5, 50, 0
7, 101910, Note_on_c, 5, 51, 110
7, 101939, Note_on_c, 5, 51, 0
7, 101940, Note_on_c, 5, 48, 110
7, 101969, Note_on_c, 5, 48, 0
7, 101970, Note_on_c, 5, 50, 110
7, 101999, Note_on_c, 5, 50, 0
7, 102000, Note_on_c, 5, 48, 110
7, 102029, Note_on_c, 5, 48, 0
7, 102030, Note_on_c, 5, 50, 110
7, 102059, Note_on_c, 5, 50, 0
7, 102060, Note_on_c, 5, 46, 110
7, 102119, Note_on_c, 5, 46, 0
7, 102180, Note_on_c, 5, 44, 110
7, 102239, Note_on_c, 5, 44, 0
7, 102300, Note_on_c, 5, 43, 110
7, 102359, Note_on_c, 5, 43, 0
7, 102420, Note_on_c, 5, 41, 110
7, 102479, Note_on_c, 5, 41, 0
7, 102540, Note_on_c, 5, 51, 110
7, 102569, Note_on_c, 5, 51, 0
7, 102570, Note_on_c, 5, 53, 110
7, 102599, Note_on_c, 5, 53, 0
7, 102600, Note_on_c, 5, 51, 110
7, 102629, Note_on_c, 5, 51, 0
7, 102630, Note_on_c, 5, 53, 110
7, 102659, Note_on_c, 5, 53, 0
7, 102660, Note_on_c, 5, 50, 110
7, 102689, Note_on_c, 5, 50, 0
7, 102690, Note_on_c, 5, 51, 110
7, 102719, Note_on_c, 5, 51, 0
7, 102720, Note_on_c, 5, 50, 110
7, 102749, Note_on_c, 5, 50, 0
7, 102750, Note_on_c, 5, 51, 110
7, 102779, Note_on_c, 5, 51, 0
7, 102780, Note_on_c, 5, 48, 110
7, 102809, Note_on_c, 5, 48, 0
7, 102810, Note_on_c, 5, 50, 110
7, 102839, Note_on_c, 5, 50, 0
7, 102840, Note_on_c, 5, 48, 110
7, 102869, Note_on_c, 5, 48, 0
7, 102870, Note_on_c, 5, 50, 110
7, 102899, Note_on_c, 5, 50, 0
7, 102900, Note_on_c, 5, 46, 110
7, 102929, Note_on_c, 5, 46, 0
7, 102930, Note_on_c, 5, 48, 110
7, 102959, Note_on_c, 5, 48, 0
7, 102960, Note_on_c, 5, 46, 110
7, 102989, Note_on_c, 5, 46, 0
7, 102990, Note_on_c, 5, 48, 110
7, 103019, Note_on_c, 5, 48, 0
7, 103020, Note_on_c, 5, 44, 110
7, 103079, Note_on_c, 5, 44, 0
7, 103140, Note_on_c, 5, 43, 110
7, 103199, Note_on_c, 5, 43, 0
7, 103260, Note_on_c, 5, 41, 110
7, 103319, Note_on_c, 5, 41, 0
7, 103380, Note_on_c, 5, 39, 110
7, 103439, Note_on_c, 5, 39, 0
7, 103500, Note_on_c, 5, 50, 110
7, 103529, Note_on_c, 5, 50, 0
7, 103530, Note_on_c, 5, 51, 110
7, 103559, Note_on_c, 5, 51, 0
7, 103560, Note_on_c, 5, 50, 110
7, 103589, Note_on_c, 5, 50, 0
7, 103590, Note_on_c, 5, 51, 110
7, 103619, Note_on_c, 5, 51, 0
7, 103620, Note_on_c, 5, 48, 110
7, 103649, Note_on_c, 5, 48, 0
7, 103650, Note_on_c, 5, 50, 110
7, 103679, Note_on_c, 5, 50, 0
7, 103680, Note_on_c, 5, 48, 110
7, 103709, Note_on_c, 5, 48, 0
7, 103710, Note_on_c, 5, 50, 110
7, 103739, Note_on_c, 5, 50, 0
7, 103740, Note_on_c, 5, 47, 110
7, 103769, Note_on_c, 5, 47, 0
7, 103770, Note_on_c, 5, 48, 110
7, 103799, Note_on_c, 5, 48, 0
7, 103800, Note_on_c, 5, 47, 110
7, 103829, Note_on_c, 5, 47, 0
7, 103830, Note_on_c, 5, 48, 110
7, 103859, Note_on_c, 5, 48, 0
7, 103860, Note_on_c, 5, 45, 110
7, 103889, Note_on_c, 5, 45, 0
7, 103890, Note_on_c, 5, 47, 110
7, 103919, Note_on_c, 5, 47, 0
7, 103920, Note_on_c, 5, 45, 110
7, 103949, Note_on_c, 5, 45, 0
7, 103950, Note_on_c, 5, 47, 110
7, 103979, Note_on_c, 5, 47, 0
7, 103980, Note_on_c, 5, 43, 110
7, 104039, Note_on_c, 5, 43, 0
7, 104100, Note_on_c, 5, 41, 110
7, 104159, Note_on_c, 5, 41, 0
7, 104220, Note_on_c, 5, 39, 110
7, 104279, Note_on_c, 5, 39, 0
7, 104340, Note_on_c, 5, 38, 110
7, 104399, Note_on_c, 5, 38, 0
7, 104460, Note_on_c, 5, 36, 110
7, 104519, Note_on_c, 5, 36, 0
7, 104760, Note_on_c, 5, 48, 110
7, 104789, Note_on_c, 5, 48, 0
7, 104790, Note_on_c, 5, 47, 110
7, 104819, Note_on_c, 5, 47, 0
7, 104820, Note_on_c, 5, 48, 110
7, 104849, Note_on_c, 5, 48, 0
7, 104850, Note_on_c, 5, 50, 110
7, 104879, Note_on_c, 5, 50, 0
7, 104880, Note_on_c, 5, 48, 110
7, 104909, Note_on_c, 5, 48, 0
7, 104910, Note_on_c, 5, 50, 110
7, 104939, Note_on_c, 5, 50, 0
7, 104940, Note_on_c, 5, 51, 110
7, 104969, Note_on_c, 5, 51, 0
7, 104970, Note_on_c, 5, 50, 110
7, 104999, Note_on_c, 5, 50, 0
7, 105000, Note_on_c, 5, 51, 110
7, 105029, Note_on_c, 5, 51, 0
7, 105030, Note_on_c, 5, 48, 110
7, 105059, Note_on_c, 5, 48, 0
7, 105060, Note_on_c, 5, 55, 110
7, 105089, Note_on_c, 5, 55, 0
7, 105090, Note_on_c, 5, 53, 110
7, 105119, Note_on_c, 5, 53, 0
7, 105120, Note_on_c, 5, 55, 110
7, 105149, Note_on_c, 5, 55, 0
7, 105150, Note_on_c, 5, 43, 110
7, 105179, Note_on_c, 5, 43, 0
7, 105180, Note_on_c, 5, 48, 110
7, 105239, Note_on_c, 5, 48, 0
7, 105240, Note_on_c, 5, 43, 110
7, 105299, Note_on_c, 5, 43, 0
7, 105300, Note_on_c, 5, 36, 110
7, 105359, Note_on_c, 5, 36, 0
7, 105720, Note_on_c, 5, 51, 110
7, 105749, Note_on_c, 5, 51, 0
7, 105750, Note_on_c, 5, 50, 110
7, 105779, Note_on_c, 5, 50, 0
7, 105780, Note_on_c, 5, 51, 110
7, 105809, Note_on_c, 5, 51, 0
7, 105810, Note_on_c, 5, 53, 110
7, 105839, Note_on_c, 5, 53, 0
7, 105840, Note_on_c, 5, 51, 110
7, 105869, Note_on_c, 5, 51, 0
7, 105870, Note_on_c, 5, 53, 110
7, 105899, Note_on_c, 5, 53, 0
7, 105900, Note_on_c, 5, 55, 110
7, 105929, Note_on_c, 5, 55, 0
7, 105930, Note_on_c, 5, 53, 110
7, 105959, Note_on_c, 5, 53, 0
7, 105960, Note_on_c, 5, 55, 110
7, 105989, Note_on_c, 5, 55, 0
7, 105990, Note_on_c, 5, 51, 110
7, 106019, Note_on_c, 5, 51, 0
7, 106020, Note_on_c, 5, 58, 110
7, 106049, Note_on_c, 5, 58, 0
7, 106050, Note_on_c, 5, 56, 110
7, 106079, Note_on_c, 5, 56, 0
7, 106080, Note_on_c, 5, 58, 110
7, 106109, Note_on_c, 5, 58, 0
7, 106110, Note_on_c, 5, 46, 110
7, 106139, Note_on_c, 5, 46, 0
7, 106140, Note_on_c, 5, 51, 110
7, 106199, Note_on_c, 5, 51, 0
7, 106200, Note_on_c, 5, 46, 110
7, 106259, Note_on_c, 5, 46, 0
7, 106260, Note_on_c, 5, 39, 110
7, 106289, Note_on_c, 5, 39, 0
7, 106290, Note_on_c, 5, 38, 110
7, 106319, Note_on_c, 5, 38, 0
7, 106320, Note_on_c, 5, 39, 110
7, 106349, Note_on_c, 5, 39, 0
7, 106350, Note_on_c, 5, 41, 110
7, 106379, Note_on_c, 5, 41, 0
7, 106380, Note_on_c, 5, 43, 110
7, 106439, Note_on_c, 5, 43, 0
7, 106440, Note_on_c, 5, 46, 110
7, 106499, Note_on_c, 5, 46, 0
7, 106500, Note_on_c, 5, 39, 110
7, 106559, Note_on_c, 5, 39, 0
7, 106560, Note_on_c, 5, 43, 110
7, 106619, Note_on_c, 5, 43, 0
7, 106620, Note_on_c, 5, 44, 110
7, 106679, Note_on_c, 5, 44, 0
7, 106680, Note_on_c, 5, 51, 110
7, 106739, Note_on_c, 5, 51, 0
7, 106740, Note_on_c, 5, 56, 110
7, 106799, Note_on_c, 5, 56, 0
7, 106800, Note_on_c, 5, 63, 110
7, 106919, Note_on_c, 5, 63, 0
7, 106920, Note_on_c, 5, 61, 110
7, 106949, Note_on_c, 5, 61, 0
7, 106950, Note_on_c, 5, 60, 110
7, 106979, Note_on_c, 5, 60, 0
7, 106980, Note_on_c, 5, 58, 110
7, 107009, Note_on_c, 5, 58, 0
7, 107010, Note_on_c, 5, 56, 110
7, 107039, Note_on_c, 5, 56, 0
7, 107040, Note_on_c, 5, 55, 110
7, 107069, Note_on_c, 5, 55, 0
7, 107070, Note_on_c, 5, 53, 110
7, 107099, Note_on_c, 5, 53, 0
7, 107100, Note_on_c, 5, 51, 110
7, 107129, Note_on_c, 5, 51, 0
7, 107130, Note_on_c, 5, 55, 110
7, 107159, Note_on_c, 5, 55, 0
7, 107160, Note_on_c, 5, 56, 110
7, 107189, Note_on_c, 5, 56, 0
7, 107190, Note_on_c, 5, 51, 110
7, 107219, Note_on_c, 5, 51, 0
7, 107220, Note_on_c, 5, 48, 110
7, 107249, Note_on_c, 5, 48, 0
7, 107250, Note_on_c, 5, 51, 110
7, 107279, Note_on_c, 5, 51, 0
7, 107280, Note_on_c, 5, 44, 110
7, 107309, Note_on_c, 5, 44, 0
7, 107310, Note_on_c, 5, 43, 110
7, 107339, Note_on_c, 5, 43, 0
7, 107340, Note_on_c, 5, 45, 110
7, 107399, Note_on_c, 5, 45, 0
7, 107400, Note_on_c, 5, 48, 110
7, 107459, Note_on_c, 5, 48, 0
7, 107460, Note_on_c, 5, 41, 110
7, 107519, Note_on_c, 5, 41, 0
7, 107520, Note_on_c, 5, 45, 110
7, 107579, Note_on_c, 5, 45, 0
7, 107580, Note_on_c, 5, 46, 110
7, 107639, Note_on_c, 5, 46, 0
7, 107640, Note_on_c, 5, 53, 110
7, 107699, Note_on_c, 5, 53, 0
7, 107700, Note_on_c, 5, 58, 110
7, 107759, Note_on_c, 5, 58, 0
7, 107760, Note_on_c, 5, 65, 110
7, 107879, Note_on_c, 5, 65, 0
7, 107880, Note_on_c, 5, 63, 110
7, 107909, Note_on_c, 5, 63, 0
7, 107910, Note_on_c, 5, 62, 110
7, 107939, Note_on_c, 5, 62, 0
7, 107940, Note_on_c, 5, 60, 110
7, 107969, Note_on_c, 5, 60, 0
7, 107970, Note_on_c, 5, 58, 110
7, 107999, Note_on_c, 5, 58, 0
7, 108000, Note_on_c, 5, 57, 110
7, 108029, Note_on_c, 5, 57, 0
7, 108030, Note_on_c, 5, 55, 110
7, 108059, Note_on_c, 5, 55, 0
7, 108060, Note_on_c, 5, 53, 110
7, 108089, Note_on_c, 5, 53, 0
7, 108090, Note_on_c, 5, 57, 110
7, 108119, Note_on_c, 5, 57, 0
7, 108120, Note_on_c, 5, 58, 110
7, 108149, Note_on_c, 5, 58, 0
7, 108150, Note_on_c, 5, 53, 110
7, 108179, Note_on_c, 5, 53, 0
7, 108180, Note_on_c, 5, 50, 110
7, 108209, Note_on_c, 5, 50, 0
7, 108210, Note_on_c, 5, 53, 110
7, 108239, Note_on_c, 5, 53, 0
7, 108240, Note_on_c, 5, 46, 110
7, 108269, Note_on_c, 5, 46, 0
7, 108270, Note_on_c, 5, 45, 110
7, 108299, Note_on_c, 5, 45, 0
7, 108300, Note_on_c, 5, 47, 110
7, 108359, Note_on_c, 5, 47, 0
7, 108360, Note_on_c, 5, 50, 110
7, 108419, Note_on_c, 5, 50, 0
7, 108420, Note_on_c, 5, 43, 110
7, 108479, Note_on_c, 5, 43, 0
7, 108480, Note_on_c, 5, 47, 110
7, 108539, Note_on_c, 5, 47, 0
7, 108540, Note_on_c, 5, 48, 110
7, 108599, Note_on_c, 5, 48, 0
7, 108600, Note_on_c, 5, 55, 110
7, 108659, Note_on_c, 5, 55, 0
7, 108660, Note_on_c, 5, 60, 110
7, 108719, Note_on_c, 5, 60, 0
7, 108720, Note_on_c, 5, 67, 110
7, 108839, Note_on_c, 5, 67, 0
7, 108840, Note_on_c, 5, 65, 110
7, 108869, Note_on_c, 5, 65, 0
7, 108870, Note_on_c, 5, 63, 110
7, 108899, Note_on_c, 5, 63, 0
7, 108900, Note_on_c, 5, 62, 110
7, 108929, Note_on_c, 5, 62, 0
7, 108930, Note_on_c, 5, 60, 110
7, 108959, Note_on_c, 5, 60, 0
7, 108960, Note_on_c, 5, 59, 110
7, 108989, Note_on_c, 5, 59, 0
7, 108990, Note_on_c, 5, 57, 110
7, 109019, Note_on_c, 5, 57, 0
7, 109020, Note_on_c, 5, 55, 110
7, 109049, Note_on_c, 5, 55, 0
7, 109050, Note_on_c, 5, 59, 110
7, 109079, Note_on_c, 5, 59, 0
7, 109080, Note_on_c, 5, 60, 110
7, 109109, Note_on_c, 5, 60, 0
7, 109110, Note_on_c, 5, 55, 110
7, 109139, Note_on_c, 5, 55, 0
7, 109140, Note_on_c, 5, 51, 110
7, 109169, Note_on_c, 5, 51, 0
7, 109170, Note_on_c, 5, 55, 110
7, 109199, Note_on_c, 5, 55, 0
7, 109200, Note_on_c, 5, 48, 110
7, 109229, Note_on_c, 5, 48, 0
7, 109230, Note_on_c, 5, 51, 110
7, 109259, Note_on_c, 5, 51, 0
7, 109260, Note_on_c, 5, 50, 110
7, 109319, Note_on_c, 5, 50, 0
7, 109320, Note_on_c, 5, 56, 110
7, 109379, Note_on_c, 5, 56, 0
7, 109380, Note_on_c, 5, 48, 110
7, 109439, Note_on_c, 5, 48, 0
7, 109440, Note_on_c, 5, 56, 110
7, 109499, Note_on_c, 5, 56, 0
7, 109500, Note_on_c, 5, 47, 110
7, 109529, Note_on_c, 5, 47, 0
7, 109530, Note_on_c, 5, 45, 110
7, 109559, Note_on_c, 5, 45, 0
7, 109560, Note_on_c, 5, 47, 110
7, 109589, Note_on_c, 5, 47, 0
7, 109590, Note_on_c, 5, 45, 110
7, 109619, Note_on_c, 5, 45, 0
7, 109620, Note_on_c, 5, 43, 110
7, 109649, Note_on_c, 5, 43, 0
7, 109650, Note_on_c, 5, 45, 110
7, 109679, Note_on_c, 5, 45, 0
7, 109680, Note_on_c, 5, 47, 110
7, 109709, Note_on_c, 5, 47, 0
7, 109710, Note_on_c, 5, 43, 110
7, 109739, Note_on_c, 5, 43, 0
7, 109740, Note_on_c, 5, 48, 110
7, 109799, Note_on_c, 5, 48, 0
7, 109800, Note_on_c, 5, 55, 110
7, 109859, Note_on_c, 5, 55, 0
7, 109860, Note_on_c, 5, 46, 110
7, 109919, Note_on_c, 5, 46, 0
7, 109920, Note_on_c, 5, 55, 110
7, 109979, Note_on_c, 5, 55, 0
7, 109980, Note_on_c, 5, 45, 110
7, 110009, Note_on_c, 5, 45, 0
7, 110010, Note_on_c, 5, 43, 110
7, 110039, Note_on_c, 5, 43, 0
7, 110040, Note_on_c, 5, 45, 110
7, 110069, Note_on_c, 5, 45, 0
7, 110070, Note_on_c, 5, 43, 110
7, 110099, Note_on_c, 5, 43, 0
7, 110100, Note_on_c, 5, 42, 110
7, 110129, Note_on_c, 5, 42, 0
7, 110130, Note_on_c, 5, 43, 110
7, 110159, Note_on_c, 5, 43, 0
7, 110160, Note_on_c, 5, 45, 110
7, 110189, Note_on_c, 5, 45, 0
7, 110190, Note_on_c, 5, 42, 110
7, 110219, Note_on_c, 5, 42, 0
7, 110220, Note_on_c, 5, 43, 110
7, 110279, Note_on_c, 5, 43, 0
7, 110340, Note_on_c, 5, 55, 110
7, 110399, Note_on_c, 5, 55, 0
7, 110460, Note_on_c, 5, 43, 110
7, 110519, Note_on_c, 5, 43, 0
7, 110580, Note_on_c, 5, 55, 110
7, 110639, Note_on_c, 5, 55, 0
7, 110700, Note_on_c, 5, 43, 110
7, 110759, Note_on_c, 5, 43, 0
7, 110820, Note_on_c, 5, 55, 110
7, 110879, Note_on_c, 5, 55, 0
7, 110940, Note_on_c, 5, 43, 110
7, 110999, Note_on_c, 5, 43, 0
7, 111060, Note_on_c, 5, 55, 110
7, 111119, Note_on_c, 5, 55, 0
7, 111180, Note_on_c, 5, 43, 110
7, 111239, Note_on_c, 5, 43, 0
7, 111300, Note_on_c, 5, 55, 110
7, 111359, Note_on_c, 5, 55, 0
7, 111420, Note_on_c, 5, 43, 110
7, 111479, Note_on_c, 5, 43, 0
7, 111540, Note_on_c, 5, 55, 110
7, 111599, Note_on_c, 5, 55, 0
7, 111660, Note_on_c, 5, 43, 110
7, 111719, Note_on_c, 5, 43, 0
7, 111780, Note_on_c, 5, 55, 110
7, 111839, Note_on_c, 5, 55, 0
7, 111900, Note_on_c, 5, 43, 110
7, 111959, Note_on_c, 5, 43, 0
7, 112020, Note_on_c, 5, 55, 110
7, 112079, Note_on_c, 5, 55, 0
7, 112140, Note_on_c, 5, 43, 110
7, 112199, Note_on_c, 5, 43, 0
7, 112260, Note_on_c, 5, 55, 110
7, 112319, Note_on_c, 5, 55, 0
7, 112380, Note_on_c, 5, 43, 110
7, 112439, Note_on_c, 5, 43, 0
7, 112500, Note_on_c, 5, 55, 110
7, 112559, Note_on_c, 5, 55, 0
7, 112620, Note_on_c, 5, 48, 110
7, 112679, Note_on_c, 5, 48, 0
7, 113040, Note_on_c, 5, 60, 110
7, 113099, Note_on_c, 5, 60, 0
7, 113100, Note_on_c, 5, 58, 110
7, 113129, Note_on_c, 5, 58, 0
7, 113130, Note_on_c, 5, 60, 110
7, 113159, Note_on_c, 5, 60, 0
7, 113160, Note_on_c, 5, 58, 110
7, 113189, Note_on_c, 5, 58, 0
7, 113190, Note_on_c, 5, 60, 110
7, 113219, Note_on_c, 5, 60, 0
7, 113220, Note_on_c, 5, 56, 110
7, 113249, Note_on_c, 5, 56, 0
7, 113250, Note_on_c, 5, 58, 110
7, 113279, Note_on_c, 5, 58, 0
7, 113280, Note_on_c, 5, 56, 110
7, 113309, Note_on_c, 5, 56, 0
7, 113310, Note_on_c, 5, 58, 110
7, 113339, Note_on_c, 5, 58, 0
7, 113340, Note_on_c, 5, 55, 110
7, 113399, Note_on_c, 5, 55, 0
7, 113400, Note_on_c, 5, 50, 110
7, 113459, Note_on_c, 5, 50, 0
7, 113460, Note_on_c, 5, 43, 110
7, 113519, Note_on_c, 5, 43, 0
7, 114000, Note_on_c, 5, 43, 110
7, 114059, Note_on_c, 5, 43, 0
7, 114060, Note_on_c, 5, 48, 110
7, 114119, Note_on_c, 5, 48, 0
7, 114120, Note_on_c, 5, 39, 110
7, 114179, Note_on_c, 5, 39, 0
7, 114180, Note_on_c, 5, 41, 110
7, 114239, Note_on_c, 5, 41, 0
7, 114240, Note_on_c, 5, 43, 110
7, 114299, Note_on_c, 5, 43, 0
7, 114300, Note_on_c, 5, 36, 110
7, 114359, Note_on_c, 5, 36, 0
7, 114360, Note_on_c, 5, 43, 110
7, 114419, Note_on_c, 5, 43, 0
7, 114420, Note_on_c, 5, 48, 110
7, 114479, Note_on_c, 5, 48, 0
7, 114960, Note_on_c, 5, 48, 110
7, 115019, Note_on_c, 5, 48, 0
7, 115020, Note_on_c, 5, 53, 110
7, 115079, Note_on_c, 5, 53, 0
7, 115080, Note_on_c, 5, 44, 110
7, 115139, Note_on_c, 5, 44, 0
7, 115140, Note_on_c, 5, 46, 110
7, 115199, Note_on_c, 5, 46, 0
7, 115200, Note_on_c, 5, 48, 110
7, 115259, Note_on_c, 5, 48, 0
7, 115260, Note_on_c, 5, 41, 110
7, 115319, Note_on_c, 5, 41, 0
7, 115320, Note_on_c, 5, 48, 110
7, 115379, Note_on_c, 5, 48, 0
7, 115380, Note_on_c, 5, 53, 110
7, 115439, Note_on_c, 5, 53, 0
7, 115440, Note_on_c, 5, 41, 110
7, 115499, Note_on_c, 5, 41, 0
7, 115500, Note_on_c, 5, 46, 110
7, 115529, Note_on_c, 5, 46, 0
7, 115530, Note_on_c, 5, 49, 110
7, 115559, Note_on_c, 5, 49, 0
7, 115560, Note_on_c, 5, 53, 110
7, 115589, Note_on_c, 5, 53, 0
7, 115590, Note_on_c, 5, 56, 110
7, 115619, Note_on_c, 5, 56, 0
7, 115620, Note_on_c, 5, 55, 110
7, 115679, Note_on_c, 5, 55, 0
7, 115680, Note_on_c, 5, 63, 110
7, 115739, Note_on_c, 5, 63, 0
7, 115740, Note_on_c, 5, 68, 110
7, 115769, Note_on_c, 5, 68, 0
7, 115770, Note_on_c, 5, 63, 110
7, 115799, Note_on_c, 5, 63, 0
7, 115800, Note_on_c, 5, 60, 110
7, 115829, Note_on_c, 5, 60, 0
7, 115830, Note_on_c, 5, 63, 110
7, 115859, Note_on_c, 5, 63, 0
7, 115860, Note_on_c, 5, 56, 110
7, 115919, Note_on_c, 5, 56, 0
7, 115920, Note_on_c, 5, 61, 110
7, 115979, Note_on_c, 5, 61, 0
7, 115980, Note_on_c, 5, 55, 110
7, 116009, Note_on_c, 5, 55, 0
7, 116010, Note_on_c, 5, 61, 110
7, 116039, Note_on_c, 5, 61, 0
7, 116040, Note_on_c, 5, 58, 110
7, 116069, Note_on_c, 5, 58, 0
7, 116070, Note_on_c, 5, 61, 110
7, 116099, Note_on_c, 5, 61, 0
7, 116100, Note_on_c, 5, 52, 110
7, 116159, Note_on_c, 5, 52, 0
7, 116160, Note_on_c, 5, 60, 110
7, 116219, Note_on_c, 5, 60, 0
7, 116220, Note_on_c, 5, 65, 110
7, 116249, Note_on_c, 5, 65, 0
7, 116250, Note_on_c, 5, 60, 110
7, 116279, Note_on_c, 5, 60, 0
7, 116280, Note_on_c, 5, 56, 110
7, 116309, Note_on_c, 5, 56, 0
7, 116310, Note_on_c, 5, 60, 110
7, 116339, Note_on_c, 5, 60, 0
7, 116340, Note_on_c, 5, 53, 110
7, 116399, Note_on_c, 5, 53, 0
7, 116400, Note_on_c, 5, 65, 110
7, 116459, Note_on_c, 5, 65, 0
7, 116460, Note_on_c, 5, 59, 110
7, 116519, Note_on_c, 5, 59, 0
7, 116520, Note_on_c, 5, 55, 110
7, 116579, Note_on_c, 5, 55, 0
7, 116580, Note_on_c, 5, 60, 110
7, 116609, Note_on_c, 5, 60, 0
7, 116610, Note_on_c, 5, 59, 110
7, 116639, Note_on_c, 5, 59, 0
7, 116640, Note_on_c, 5, 60, 110
7, 116669, Note_on_c, 5, 60, 0
7, 116670, Note_on_c, 5, 53, 110
7, 116699, Note_on_c, 5, 53, 0
7, 116700, Note_on_c, 5, 55, 110
7, 116759, Note_on_c, 5, 55, 0
7, 116760, Note_on_c, 5, 67, 110
7, 116819, Note_on_c, 5, 67, 0
7, 116820, Note_on_c, 5, 59, 110
7, 116879, Note_on_c, 5, 59, 0
7, 116880, Note_on_c, 5, 60, 110
7, 116939, Note_on_c, 5, 60, 0
7, 116940, Note_on_c, 5, 55, 110
7, 117330, Note_on_c, 5, 55, 0
7, 117330, Note_on_c, 5, 56, 110
7, 117359, Note_on_c, 5, 56, 0
7, 117360, Note_on_c, 5, 53, 110
7, 117389, Note_on_c, 5, 53, 0
7, 117390, Note_on_c, 5, 55, 110
7, 117419, Note_on_c, 5, 55, 0
7, 117420, Note_on_c, 5, 51, 110
7, 117449, Note_on_c, 5, 51, 0
7, 117450, Note_on_c, 5, 53, 110
7, 117479, Note_on_c, 5, 53, 0
7, 117480, Note_on_c, 5, 51, 110
7, 117509, Note_on_c, 5, 51, 0
7, 117510, Note_on_c, 5, 53, 110
7, 117539, Note_on_c, 5, 53, 0
7, 117540, Note_on_c, 5, 50, 110
7, 117569, Note_on_c, 5, 50, 0
7, 117570, Note_on_c, 5, 51, 110
7, 117599, Note_on_c, 5, 51, 0
7, 117600, Note_on_c, 5, 50, 110
7, 117629, Note_on_c, 5, 50, 0
7, 117630, Note_on_c, 5, 51, 110
7, 117659, Note_on_c, 5, 51, 0
7, 117660, Note_on_c, 5, 48, 110
7, 117719, Note_on_c, 5, 48, 0
7, 117720, Note_on_c, 5, 55, 110
7, 117779, Note_on_c, 5, 55, 0
7, 117780, Note_on_c, 5, 60, 110
7, 117839, Note_on_c, 5, 60, 0
7, 117840, Note_on_c, 5, 48, 110
7, 117899, Note_on_c, 5, 48, 0
7, 117900, Note_on_c, 5, 46, 110
7, 117929, Note_on_c, 5, 46, 0
7, 117930, Note_on_c, 5, 48, 110
7, 117959, Note_on_c, 5, 48, 0
7, 117960, Note_on_c, 5, 46, 110
7, 117989, Note_on_c, 5, 46, 0
7, 117990, Note_on_c, 5, 48, 110
7, 118019, Note_on_c, 5, 48, 0
7, 118020, Note_on_c, 5, 44, 110
7, 118049, Note_on_c, 5, 44, 0
7, 118050, Note_on_c, 5, 46, 110
7, 118079, Note_on_c, 5, 46, 0
7, 118080, Note_on_c, 5, 44, 110
7, 118109, Note_on_c, 5, 44, 0
7, 118110, Note_on_c, 5, 46, 110
7, 118139, Note_on_c, 5, 46, 0
7, 118140, Note_on_c, 5, 43, 110
7, 118199, Note_on_c, 5, 43, 0
7, 118200, Note_on_c, 5, 50, 110
7, 118259, Note_on_c, 5, 50, 0
7, 118260, Note_on_c, 5, 55, 110
7, 118319, Note_on_c, 5, 55, 0
7, 118320, Note_on_c, 5, 53, 110
7, 118379, Note_on_c, 5, 53, 0
7, 118380, Note_on_c, 5, 51, 110
7, 118409, Note_on_c, 5, 51, 0
7, 118410, Note_on_c, 5, 53, 110
7, 118439, Note_on_c, 5, 53, 0
7, 118440, Note_on_c, 5, 51, 110
7, 118469, Note_on_c, 5, 51, 0
7, 118470, Note_on_c, 5, 53, 110
7, 118499, Note_on_c, 5, 53, 0
7, 118500, Note_on_c, 5, 50, 110
7, 118529, Note_on_c, 5, 50, 0
7, 118530, Note_on_c, 5, 51, 110
7, 118559, Note_on_c, 5, 51, 0
7, 118560, Note_on_c, 5, 50, 110
7, 118589, Note_on_c, 5, 50, 0
7, 118590, Note_on_c, 5, 51, 110
7, 118619, Note_on_c, 5, 51, 0
7, 118620, Note_on_c, 5, 48, 110
7, 118649, Note_on_c, 5, 48, 0
7, 118650, Note_on_c, 5, 50, 110
7, 118679, Note_on_c, 5, 50, 0
7, 118680, Note_on_c, 5, 48, 110
7, 118709, Note_on_c, 5, 48, 0
7, 118710, Note_on_c, 5, 50, 110
7, 118739, Note_on_c, 5, 50, 0
7, 118740, Note_on_c, 5, 46, 110
7, 118769, Note_on_c, 5, 46, 0
7, 118770, Note_on_c, 5, 48, 110
7, 118799, Note_on_c, 5, 48, 0
7, 118800, Note_on_c, 5, 46, 110
7, 118829, Note_on_c, 5, 46, 0
7, 118830, Note_on_c, 5, 48, 110
7, 118859, Note_on_c, 5, 48, 0
7, 118860, Note_on_c, 5, 44, 110
7, 118889, Note_on_c, 5, 44, 0
7, 118890, Note_on_c, 5, 46, 110
7, 118919, Note_on_c, 5, 46, 0
7, 118920, Note_on_c, 5, 44, 110
7, 118949, Note_on_c, 5, 44, 0
7, 118950, Note_on_c, 5, 46, 110
7, 118979, Note_on_c, 5, 46, 0
7, 118980, Note_on_c, 5, 43, 110
7, 119009, Note_on_c, 5, 43, 0
7, 119010, Note_on_c, 5, 44, 110
7, 119039, Note_on_c, 5, 44, 0
7, 119040, Note_on_c, 5, 43, 110
7, 119069, Note_on_c, 5, 43, 0
7, 119070, Note_on_c, 5, 44, 110
7, 119099, Note_on_c, 5, 44, 0
7, 119100, Note_on_c, 5, 41, 110
7, 119129, Note_on_c, 5, 41, 0
7, 119130, Note_on_c, 5, 40, 110
7, 119159, Note_on_c, 5, 40, 0
7, 119160, Note_on_c, 5, 41, 110
7, 119189, Note_on_c, 5, 41, 0
7, 119190, Note_on_c, 5, 43, 110
7, 119219, Note_on_c, 5, 43, 0
7, 119220, Note_on_c, 5, 44, 110
7, 119249, Note_on_c, 5, 44, 0
7, 119250, Note_on_c, 5, 46, 110
7, 119279, Note_on_c, 5, 46, 0
7, 119280, Note_on_c, 5, 48, 110
7, 119309, Note_on_c, 5, 48, 0
7, 119310, Note_on_c, 5, 50, 110
7, 119339, Note_on_c, 5, 50, 0
7, 119340, Note_on_c, 5, 52, 110
7, 119399, Note_on_c, 5, 52, 0
7, 119400, Note_on_c, 5, 55, 110
7, 119459, Note_on_c, 5, 55, 0
7, 119460, Note_on_c, 5, 48, 110
7, 119519, Note_on_c, 5, 48, 0
7, 119520, Note_on_c, 5, 52, 110
7, 119579, Note_on_c, 5, 52, 0
7, 119580, Note_on_c, 5, 53, 110
7, 119639, Note_on_c, 5, 53, 0
7, 119640, Note_on_c, 5, 41, 110
7, 119699, Note_on_c, 5, 41, 0
7, 119700, Note_on_c, 5, 44, 110
7, 119759, Note_on_c, 5, 44, 0
7, 119760, Note_on_c, 5, 48, 110
7, 119819, Note_on_c, 5, 48, 0
7, 119820, Note_on_c, 5, 52, 110
7, 119879, Note_on_c, 5, 52, 0
7, 119880, Note_on_c, 5, 55, 110
7, 119939, Note_on_c, 5, 55, 0
7, 119940, Note_on_c, 5, 48, 110
7, 119999, Note_on_c, 5, 48, 0
7, 120000, Note_on_c, 5, 52, 110
7, 120059, Note_on_c, 5, 52, 0
7, 120060, Note_on_c, 5, 53, 110
7, 120119, Note_on_c, 5, 53, 0
7, 120120, Note_on_c, 5, 41, 110
7, 120179, Note_on_c, 5, 41, 0
7, 120180, Note_on_c, 5, 44, 110
7, 120239, Note_on_c, 5, 44, 0
7, 120240, Note_on_c, 5, 48, 110
7, 120299, Note_on_c, 5, 48, 0
7, 120300, Note_on_c, 5, 50, 110
7, 120359, Note_on_c, 5, 50, 0
7, 120360, Note_on_c, 5, 53, 110
7, 120419, Note_on_c, 5, 53, 0
7, 120420, Note_on_c, 5, 46, 110
7, 120479, Note_on_c, 5, 46, 0
7, 120480, Note_on_c, 5, 50, 110
7, 120539, Note_on_c, 5, 50, 0
7, 120540, Note_on_c, 5, 51, 110
7, 120599, Note_on_c, 5, 51, 0
7, 120600, Note_on_c, 5, 39, 110
7, 120659, Note_on_c, 5, 39, 0
7, 120660, Note_on_c, 5, 43, 110
7, 120719, Note_on_c, 5, 43, 0
7, 120720, Note_on_c, 5, 46, 110
7, 120779, Note_on_c, 5, 46, 0
7, 120780, Note_on_c, 5, 50, 110
7, 120839, Note_on_c, 5, 50, 0
7, 120840, Note_on_c, 5, 53, 110
7, 120899, Note_on_c, 5, 53, 0
7, 120900, Note_on_c, 5, 46, 110
7, 120959, Note_on_c, 5, 46, 0
7, 120960, Note_on_c, 5, 50, 110
7, 121019, Note_on_c, 5, 50, 0
7, 121020, Note_on_c, 5, 39, 110
7, 121079, Note_on_c, 5, 39, 0
7, 121080, Note_on_c, 5, 51, 110
7, 121139, Note_on_c, 5, 51, 0
7, 121140, Note_on_c, 5, 55, 110
7, 121199, Note_on_c, 5, 55, 0
7, 121200, Note_on_c, 5, 51, 110
7, 121259, Note_on_c, 5, 51, 0
7, 121260, Note_on_c, 5, 50, 110
7, 121319, Note_on_c, 5, 50, 0
7, 121320, Note_on_c, 5, 56, 110
7, 121379, Note_on_c, 5, 56, 0
7, 121380, Note_on_c, 5, 48, 110
7, 121439, Note_on_c, 5, 48, 0
7, 121440, Note_on_c, 5, 56, 110
7, 121499, Note_on_c, 5, 56, 0
7, 121500, Note_on_c, 5, 47, 110
7, 121529, Note_on_c, 5, 47, 0
7, 121530, Note_on_c, 5, 45, 110
7, 121559, Note_on_c, 5, 45, 0
7, 121560, Note_on_c, 5, 47, 110
7, 121589, Note_on_c, 5, 47, 0
7, 121590, Note_on_c, 5, 45, 110
7, 121619, Note_on_c, 5, 45, 0
7, 121620, Note_on_c, 5, 43, 110
7, 121649, Note_on_c, 5, 43, 0
7, 121650, Note_on_c, 5, 45, 110
7, 121679, Note_on_c, 5, 45, 0
7, 121680, Note_on_c, 5, 47, 110
7, 121709, Note_on_c, 5, 47, 0
7, 121710, Note_on_c, 5, 43, 110
7, 121739, Note_on_c, 5, 43, 0
7, 121740, Note_on_c, 5, 48, 110
7, 121799, Note_on_c, 5, 48, 0
7, 121800, Note_on_c, 5, 55, 110
7, 121859, Note_on_c, 5, 55, 0
7, 121860, Note_on_c, 5, 46, 110
7, 121919, Note_on_c, 5, 46, 0
7, 121920, Note_on_c, 5, 55, 110
7, 121979, Note_on_c, 5, 55, 0
7, 121980, Note_on_c, 5, 45, 110
7, 122009, Note_on_c, 5, 45, 0
7, 122010, Note_on_c, 5, 43, 110
7, 122039, Note_on_c, 5, 43, 0
7, 122040, Note_on_c, 5, 45, 110
7, 122069, Note_on_c, 5, 45, 0
7, 122070, Note_on_c, 5, 43, 110
7, 122099, Note_on_c, 5, 43, 0
7, 122100, Note_on_c, 5, 42, 110
7, 122129, Note_on_c, 5, 42, 0
7, 122130, Note_on_c, 5, 43, 110
7, 122159, Note_on_c, 5, 43, 0
7, 122160, Note_on_c, 5, 45, 110
7, 122189, Note_on_c, 5, 45, 0
7, 122190, Note_on_c, 5, 42, 110
7, 122219, Note_on_c, 5, 42, 0
7, 122220, Note_on_c, 5, 43, 110
7, 122249, Note_on_c, 5, 43, 0
7, 122250, Note_on_c, 5, 44, 110
7, 122279, Note_on_c, 5, 44, 0
7, 122280, Note_on_c, 5, 43, 110
7, 122309, Note_on_c, 5, 43, 0
7, 122310, Note_on_c, 5, 44, 110
7, 122339, Note_on_c, 5, 44, 0
7, 122340, Note_on_c, 5, 43, 110
7, 122369, Note_on_c, 5, 43, 0
7, 122370, Note_on_c, 5, 44, 110
7, 122399, Note_on_c, 5, 44, 0
7, 122400, Note_on_c, 5, 41, 110
7, 122429, Note_on_c, 5, 41, 0
7, 122430, Note_on_c, 5, 43, 110
7, 122459, Note_on_c, 5, 43, 0
7, 122460, Note_on_c, 5, 44, 110
7, 122489, Note_on_c, 5, 44, 0
7, 122490, Note_on_c, 5, 56, 110
7, 122519, Note_on_c, 5, 56, 0
7, 122520, Note_on_c, 5, 55, 110
7, 122549, Note_on_c, 5, 55, 0
7, 122550, Note_on_c, 5, 53, 110
7, 122579, Note_on_c, 5, 53, 0
7, 122580, Note_on_c, 5, 51, 110
7, 122609, Note_on_c, 5, 51, 0
7, 122610, Note_on_c, 5, 56, 110
7, 122639, Note_on_c, 5, 56, 0
7, 122640, Note_on_c, 5, 55, 110
7, 122669, Note_on_c, 5, 55, 0
7, 122670, Note_on_c, 5, 53, 110
7, 122699, Note_on_c, 5, 53, 0
7, 122700, Note_on_c, 5, 51, 110
7, 122729, Note_on_c, 5, 51, 0
7, 122730, Note_on_c, 5, 56, 110
7, 122759, Note_on_c, 5, 56, 0
7, 122760, Note_on_c, 5, 55, 110
7, 122789, Note_on_c, 5, 55, 0
7, 122790, Note_on_c, 5, 53, 110
7, 122819, Note_on_c, 5, 53, 0
7, 122820, Note_on_c, 5, 55, 110
7, 122879, Note_on_c, 5, 55, 0
7, 122880, Note_on_c, 5, 43, 110
7, 122939, Note_on_c, 5, 43, 0
7, 122940, Note_on_c, 5, 48, 120
7, 122940, Note_on_c, 5, 36, 110
7, 123059, Note_on_c, 5, 36, 0
7, 123060, Note_on_c, 5, 48, 0
7, 123060, End_track
8, 0, Start_track
8, 0, MIDI_port, 0
8, 0, Title_t, "clave ii h"
8, 0, Program_c, 6, 6
8, 0, Note_on_c, 6, 63, 100
8, 0, Note_on_c, 6, 67, 100
8, 60, Note_on_c, 6, 67, 0
8, 60, Note_on_c, 6, 72, 100
8, 120, Note_on_c, 6, 72, 0
8, 120, Note_on_c, 6, 63, 0
8, 120, Note_on_c, 6, 67, 100
8, 120, Note_on_c, 6, 75, 100
8, 180, Note_on_c, 6, 75, 0
8, 180, Note_on_c, 6, 67, 0
8, 180, Note_on_c, 6, 65, 100
8, 180, Note_on_c, 6, 74, 100
8, 240, Note_on_c, 6, 74, 0
8, 240, Note_on_c, 6, 65, 0
8, 240, Note_on_c, 6, 63, 100
8, 240, Note_on_c, 6, 67, 100
8, 270, Note_on_c, 6, 63, 0
8, 270, Note_on_c, 6, 62, 100
8, 300, Note_on_c, 6, 62, 0
8, 300, Note_on_c, 6, 67, 0
8, 300, Note_on_c, 6, 63, 100
8, 300, Note_on_c, 6, 72, 100
8, 330, Note_on_c, 6, 72, 0
8, 330, Note_on_c, 6, 63, 0
8, 330, Note_on_c, 6, 65, 100
8, 330, Note_on_c, 6, 74, 100
8, 360, Note_on_c, 6, 74, 0
8, 360, Note_on_c, 6, 65, 0
8, 360, Note_on_c, 6, 67, 100
8, 360, Note_on_c, 6, 75, 100
8, 390, Note_on_c, 6, 75, 0
8, 390, Note_on_c, 6, 67, 0
8, 390, Note_on_c, 6, 65, 100
8, 390, Note_on_c, 6, 74, 100
8, 420, Note_on_c, 6, 74, 0
8, 420, Note_on_c, 6, 65, 0
8, 420, Note_on_c, 6, 67, 100
8, 420, Note_on_c, 6, 75, 100
8, 450, Note_on_c, 6, 75, 0
8, 450, Note_on_c, 6, 67, 0
8, 450, Note_on_c, 6, 65, 100
8, 450, Note_on_c, 6, 74, 100
8, 480, Note_on_c, 6, 74, 0
8, 480, Note_on_c, 6, 65, 0
8, 480, Note_on_c, 6, 63, 100
8, 480, Note_on_c, 6, 72, 100
8, 540, Note_on_c, 6, 72, 0
8, 540, Note_on_c, 6, 63, 0
8, 540, Note_on_c, 6, 74, 100
8, 570, Note_on_c, 6, 74, 0
8, 570, Note_on_c, 6, 75, 100
8, 600, Note_on_c, 6, 75, 0
8, 600, Note_on_c, 6, 77, 100
8, 630, Note_on_c, 6, 77, 0
8, 630, Note_on_c, 6, 79, 100
8, 660, Note_on_c, 6, 79, 0
8, 660, Note_on_c, 6, 80, 100
8, 720, Note_on_c, 6, 80, 0
8, 720, Note_on_c, 6, 80, 100
8, 780, Note_on_c, 6, 80, 0
8, 780, Note_on_c, 6, 74, 100
8, 840, Note_on_c, 6, 74, 0
8, 840, Note_on_c, 6, 80, 100
8, 900, Note_on_c, 6, 80, 0
8, 900, Note_on_c, 6, 74, 100
8, 960, Note_on_c, 6, 74, 0
8, 960, Note_on_c, 6, 62, 100
8, 960, Note_on_c, 6, 65, 100
8, 1020, Note_on_c, 6, 65, 0
8, 1020, Note_on_c, 6, 70, 100
8, 1080, Note_on_c, 6, 70, 0
8, 1080, Note_on_c, 6, 62, 0
8, 1080, Note_on_c, 6, 65, 100
8, 1080, Note_on_c, 6, 74, 100
8, 1140, Note_on_c, 6, 74, 0
8, 1140, Note_on_c, 6, 65, 0
8, 1140, Note_on_c, 6, 63, 100
8, 1140, Note_on_c, 6, 72, 100
8, 1200, Note_on_c, 6, 72, 0
8, 1200, Note_on_c, 6, 63, 0
8, 1200, Note_on_c, 6, 62, 100
8, 1200, Note_on_c, 6, 65, 100
8, 1230, Note_on_c, 6, 62, 0
8, 1230, Note_on_c, 6, 60, 100
8, 1260, Note_on_c, 6, 60, 0
8, 1260, Note_on_c, 6, 65, 0
8, 1260, Note_on_c, 6, 62, 100
8, 1260, Note_on_c, 6, 70, 100
8, 1290, Note_on_c, 6, 70, 0
8, 1290, Note_on_c, 6, 62, 0
8, 1290, Note_on_c, 6, 63, 100
8, 1290, Note_on_c, 6, 72, 100
8, 1320, Note_on_c, 6, 72, 0
8, 1320, Note_on_c, 6, 63, 0
8, 1320, Note_on_c, 6, 65, 100
8, 1320, Note_on_c, 6, 74, 100
8, 1350, Note_on_c, 6, 74, 0
8, 1350, Note_on_c, 6, 65, 0
8, 1350, Note_on_c, 6, 63, 100
8, 1350, Note_on_c, 6, 72, 100
8, 1380, Note_on_c, 6, 72, 0
8, 1380, Note_on_c, 6, 63, 0
8, 1380, Note_on_c, 6, 65, 100
8, 1380, Note_on_c, 6, 74, 100
8, 1410, Note_on_c, 6, 74, 0
8, 1410, Note_on_c, 6, 65, 0
8, 1410, Note_on_c, 6, 63, 100
8, 1410, Note_on_c, 6, 72, 100
8, 1440, Note_on_c, 6, 72, 0
8, 1440, Note_on_c, 6, 63, 0
8, 1440, Note_on_c, 6, 58, 100
8, 1440, Note_on_c, 6, 62, 100
8, 1440, Note_on_c, 6, 70, 100
8, 1500, Note_on_c, 6, 70, 0
8, 1500, Note_on_c, 6, 62, 0
8, 1500, Note_on_c, 6, 58, 0
8, 1500, Note_on_c, 6, 72, 100
8, 1530, Note_on_c, 6, 72, 0
8, 1530, Note_on_c, 6, 74, 100
8, 1560, Note_on_c, 6, 74, 0
8, 1560, Note_on_c, 6, 75, 100
8, 1590, Note_on_c, 6, 75, 0
8, 1590, Note_on_c, 6, 77, 100
8, 1620, Note_on_c, 6, 77, 0
8, 1620, Note_on_c, 6, 79, 100
8, 1680, Note_on_c, 6, 79, 0
8, 1680, Note_on_c, 6, 79, 100
8, 1740, Note_on_c, 6, 79, 0
8, 1740, Note_on_c, 6, 72, 100
8, 1800, Note_on_c, 6, 72, 0
8, 1800, Note_on_c, 6, 79, 100
8, 1860, Note_on_c, 6, 79, 0
8, 1860, Note_on_c, 6, 72, 100
8, 1920, Note_on_c, 6, 72, 0
8, 2040, Note_on_c, 6, 72, 100
8, 2070, Note_on_c, 6, 72, 0
8, 2070, Note_on_c, 6, 70, 100
8, 2100, Note_on_c, 6, 70, 0
8, 2100, Note_on_c, 6, 68, 100
8, 2130, Note_on_c, 6, 68, 0
8, 2130, Note_on_c, 6, 67, 100
8, 2160, Note_on_c, 6, 67, 0
8, 2160, Note_on_c, 6, 65, 100
8, 2220, Note_on_c, 6, 65, 0
8, 2220, Note_on_c, 6, 60, 100
8, 2280, Note_on_c, 6, 60, 0
8, 2520, Note_on_c, 6, 68, 100
8, 2550, Note_on_c, 6, 68, 0
8, 2550, Note_on_c, 6, 67, 100
8, 2580, Note_on_c, 6, 67, 0
8, 2580, Note_on_c, 6, 65, 100
8, 2610, Note_on_c, 6, 65, 0
8, 2610, Note_on_c, 6, 63, 100
8, 2640, Note_on_c, 6, 63, 0
8, 2640, Note_on_c, 6, 61, 100
8, 2700, Note_on_c, 6, 61, 0
8, 2700, Note_on_c, 6, 56, 100
8, 2760, Note_on_c, 6, 56, 0
8, 2820, Note_on_c, 6, 73, 100
8, 2850, Note_on_c, 6, 73, 0
8, 2850, Note_on_c, 6, 75, 100
8, 2880, Note_on_c, 6, 75, 0
8, 2880, Note_on_c, 6, 77, 100
8, 2910, Note_on_c, 6, 77, 0
8, 2910, Note_on_c, 6, 79, 100
8, 2940, Note_on_c, 6, 79, 0
8, 2940, Note_on_c, 6, 80, 100
8, 2970, Note_on_c, 6, 80, 0
8, 2970, Note_on_c, 6, 79, 100
8, 3000, Note_on_c, 6, 79, 0
8, 3000, Note_on_c, 6, 77, 100
8, 3030, Note_on_c, 6, 77, 0
8, 3030, Note_on_c, 6, 75, 100
8, 3060, Note_on_c, 6, 75, 0
8, 3060, Note_on_c, 6, 74, 100
8, 3090, Note_on_c, 6, 74, 0
8, 3090, Note_on_c, 6, 72, 100
8, 3120, Note_on_c, 6, 72, 0
8, 3120, Note_on_c, 6, 71, 100
8, 3180, Note_on_c, 6, 71, 0
8, 3180, Note_on_c, 6, 79, 100
8, 3240, Note_on_c, 6, 79, 0
8, 3240, Note_on_c, 6, 72, 100
8, 3300, Note_on_c, 6, 72, 0
8, 3300, Note_on_c, 6, 77, 100
8, 3300, Note_on_c, 6, 72, 100
8, 3360, Note_on_c, 6, 72, 0
8, 3360, Note_on_c, 6, 77, 0
8, 3360, Note_on_c, 6, 75, 100
8, 3360, Note_on_c, 6, 72, 100
8, 3450, Note_on_c, 6, 75, 0
8, 3450, Note_on_c, 6, 74, 100
8, 3480, Note_on_c, 6, 74, 0
8, 3480, Note_on_c, 6, 72, 0
8, 3480, Note_on_c, 6, 75, 100
8, 3480, Note_on_c, 6, 71, 100
8, 3495, Note_on_c, 6, 75, 0
8, 3495, Note_on_c, 6, 74, 100
8, 3510, Note_on_c, 6, 74, 0
8, 3510, Note_on_c, 6, 75, 100
8, 3525, Note_on_c, 6, 75, 0
8, 3525, Note_on_c, 6, 74, 100
8, 3540, Note_on_c, 6, 74, 0
8, 3540, Note_on_c, 6, 75, 100
8, 3555, Note_on_c, 6, 75, 0
8, 3555, Note_on_c, 6, 74, 100
8, 3570, Note_on_c, 6, 74, 0
8, 3570, Note_on_c, 6, 72, 100
8, 3600, Note_on_c, 6, 72, 0
8, 3600, Note_on_c, 6, 71, 0
8, 3600, Note_on_c, 6, 72, 100
8, 3630, Note_on_c, 6, 72, 0
8, 3630, Note_on_c, 6, 67, 100
8, 3660, Note_on_c, 6, 67, 0
8, 3660, Note_on_c, 6, 69, 100
8, 3690, Note_on_c, 6, 69, 0
8, 3690, Note_on_c, 6, 71, 100
8, 3720, Note_on_c, 6, 71, 0
8, 3720, Note_on_c, 6, 72, 100
8, 3750, Note_on_c, 6, 72, 0
8, 3750, Note_on_c, 6, 74, 100
8, 3780, Note_on_c, 6, 74, 0
8, 3780, Note_on_c, 6, 75, 100
8, 3810, Note_on_c, 6, 75, 0
8, 3810, Note_on_c, 6, 77, 100
8, 3840, Note_on_c, 6, 77, 0
8, 3840, Note_on_c, 6, 79, 100
8, 3900, Note_on_c, 6, 79, 0
8, 3900, Note_on_c, 6, 80, 100
8, 3960, Note_on_c, 6, 80, 0
8, 3960, Note_on_c, 6, 79, 100
8, 4020, Note_on_c, 6, 79, 0
8, 4020, Note_on_c, 6, 77, 100
8, 4080, Note_on_c, 6, 77, 0
8, 4080, Note_on_c, 6, 79, 100
8, 4140, Note_on_c, 6, 79, 0
8, 4140, Note_on_c, 6, 77, 100
8, 4200, Note_on_c, 6, 77, 0
8, 4200, Note_on_c, 6, 75, 100
8, 4260, Note_on_c, 6, 75, 0
8, 4260, Note_on_c, 6, 74, 100
8, 4320, Note_on_c, 6, 74, 0
8, 4320, Note_on_c, 6, 75, 100
8, 4380, Note_on_c, 6, 75, 0
8, 4380, Note_on_c, 6, 80, 100
8, 4440, Note_on_c, 6, 80, 0
8, 4440, Note_on_c, 6, 79, 100
8, 4500, Note_on_c, 6, 79, 0
8, 4500, Note_on_c, 6, 77, 100
8, 4560, Note_on_c, 6, 77, 0
8, 4560, Note_on_c, 6, 79, 100
8, 4590, Note_on_c, 6, 79, 0
8, 4590, Note_on_c, 6, 77, 100
8, 4620, Note_on_c, 6, 77, 0
8, 4620, Note_on_c, 6, 75, 100
8, 4650, Note_on_c, 6, 75, 0
8, 4650, Note_on_c, 6, 74, 100
8, 4680, Note_on_c, 6, 74, 0
8, 4680, Note_on_c, 6, 72, 100
8, 4740, Note_on_c, 6, 72, 0
8, 4800, Note_on_c, 6, 74, 100
8, 4860, Note_on_c, 6, 74, 0
8, 4860, Note_on_c, 6, 75, 100
8, 4920, Note_on_c, 6, 75, 0
8, 4920, Note_on_c, 6, 77, 100
8, 4980, Note_on_c, 6, 77, 0
8, 4980, Note_on_c, 6, 75, 100
8, 5040, Note_on_c, 6, 75, 0
8, 5040, Note_on_c, 6, 74, 100
8, 5100, Note_on_c, 6, 74, 0
8, 5100, Note_on_c, 6, 80, 100
8, 5160, Note_on_c, 6, 80, 0
8, 5160, Note_on_c, 6, 79, 100
8, 5220, Note_on_c, 6, 79, 0
8, 5220, Note_on_c, 6, 75, 100
8, 5280, Note_on_c, 6, 75, 0
8, 5280, Note_on_c, 6, 71, 100
8, 5340, Note_on_c, 6, 71, 0
8, 5340, Note_on_c, 6, 77, 100
8, 5400, Note_on_c, 6, 77, 0
8, 5400, Note_on_c, 6, 75, 100
8, 5460, Note_on_c, 6, 75, 0
8, 5460, Note_on_c, 6, 72, 100
8, 5520, Note_on_c, 6, 72, 0
8, 5520, Note_on_c, 6, 75, 100
8, 5580, Note_on_c, 6, 75, 0
8, 5580, Note_on_c, 6, 74, 100
8, 5640, Note_on_c, 6, 74, 0
8, 5760, Note_on_c, 6, 63, 100
8, 5760, Note_on_c, 6, 67, 100
8, 5820, Note_on_c, 6, 67, 0
8, 5820, Note_on_c, 6, 72, 100
8, 5880, Note_on_c, 6, 72, 0
8, 5880, Note_on_c, 6, 63, 0
8, 5880, Note_on_c, 6, 67, 100
8, 5880, Note_on_c, 6, 75, 100
8, 5940, Note_on_c, 6, 75, 0
8, 5940, Note_on_c, 6, 67, 0
8, 5940, Note_on_c, 6, 65, 100
8, 5940, Note_on_c, 6, 74, 100
8, 6000, Note_on_c, 6, 74, 0
8, 6000, Note_on_c, 6, 65, 0
8, 6000, Note_on_c, 6, 63, 100
8, 6000, Note_on_c, 6, 67, 100
8, 6030, Note_on_c, 6, 63, 0
8, 6030, Note_on_c, 6, 62, 100
8, 6060, Note_on_c, 6, 62, 0
8, 6060, Note_on_c, 6, 67, 0
8, 6060, Note_on_c, 6, 63, 100
8, 6060, Note_on_c, 6, 72, 100
8, 6090, Note_on_c, 6, 72, 0
8, 6090, Note_on_c, 6, 63, 0
8, 6090, Note_on_c, 6, 65, 100
8, 6090, Note_on_c, 6, 74, 100
8, 6120, Note_on_c, 6, 74, 0
8, 6120, Note_on_c, 6, 65, 0
8, 6120, Note_on_c, 6, 67, 100
8, 6120, Note_on_c, 6, 75, 100
8, 6150, Note_on_c, 6, 75, 0
8, 6150, Note_on_c, 6, 67, 0
8, 6150, Note_on_c, 6, 65, 100
8, 6150, Note_on_c, 6, 74, 100
8, 6180, Note_on_c, 6, 74, 0
8, 6180, Note_on_c, 6, 65, 0
8, 6180, Note_on_c, 6, 67, 100
8, 6180, Note_on_c, 6, 75, 100
8, 6210, Note_on_c, 6, 75, 0
8, 6210, Note_on_c, 6, 67, 0
8, 6210, Note_on_c, 6, 65, 100
8, 6210, Note_on_c, 6, 74, 100
8, 6240, Note_on_c, 6, 74, 0
8, 6240, Note_on_c, 6, 65, 0
8, 6240, Note_on_c, 6, 60, 100
8, 6240, Note_on_c, 6, 63, 100
8, 6240, Note_on_c, 6, 72, 100
8, 6300, Note_on_c, 6, 72, 0
8, 6300, Note_on_c, 6, 63, 0
8, 6300, Note_on_c, 6, 60, 0
8, 6300, Note_on_c, 6, 74, 100
8, 6330, Note_on_c, 6, 74, 0
8, 6330, Note_on_c, 6, 75, 100
8, 6360, Note_on_c, 6, 75, 0
8, 6360, Note_on_c, 6, 77, 100
8, 6390, Note_on_c, 6, 77, 0
8, 6390, Note_on_c, 6, 79, 100
8, 6420, Note_on_c, 6, 79, 0
8, 6420, Note_on_c, 6, 80, 100
8, 6480, Note_on_c, 6, 80, 0
8, 6480, Note_on_c, 6, 80, 100
8, 6495, Note_on_c, 6, 80, 0
8, 6495, Note_on_c, 6, 82, 100
8, 6510, Note_on_c, 6, 82, 0
8, 6510, Note_on_c, 6, 80, 100
8, 6525, Note_on_c, 6, 80, 0
8, 6525, Note_on_c, 6, 82, 100
8, 6540, Note_on_c, 6, 82, 0
8, 6540, Note_on_c, 6, 80, 100
8, 6555, Note_on_c, 6, 80, 0
8, 6555, Note_on_c, 6, 82, 100
8, 6570, Note_on_c, 6, 82, 0
8, 6570, Note_on_c, 6, 80, 100
8, 6585, Note_on_c, 6, 80, 0
8, 6585, Note_on_c, 6, 82, 100
8, 6600, Note_on_c, 6, 82, 0
8, 6600, Note_on_c, 6, 80, 100
8, 6615, Note_on_c, 6, 80, 0
8, 6615, Note_on_c, 6, 82, 100
8, 6630, Note_on_c, 6, 82, 0
8, 6630, Note_on_c, 6, 80, 100
8, 6645, Note_on_c, 6, 80, 0
8, 6645, Note_on_c, 6, 82, 100
8, 6660, Note_on_c, 6, 82, 0
8, 6660, Note_on_c, 6, 80, 100
8, 6675, Note_on_c, 6, 80, 0
8, 6675, Note_on_c, 6, 82, 100
8, 6690, Note_on_c, 6, 82, 0
8, 6690, Note_on_c, 6, 80, 100
8, 6705, Note_on_c, 6, 80, 0
8, 6705, Note_on_c, 6, 82, 100
8, 6720, Note_on_c, 6, 82, 0
8, 6720, Note_on_c, 6, 80, 100
8, 6780, Note_on_c, 6, 80, 0
8, 6780, Note_on_c, 6, 79, 100
8, 6840, Note_on_c, 6, 79, 0
8, 6840, Note_on_c, 6, 77, 100
8, 6900, Note_on_c, 6, 77, 0
8, 6900, Note_on_c, 6, 75, 100
8, 6960, Note_on_c, 6, 75, 0
8, 6960, Note_on_c, 6, 74, 100
8, 7020, Note_on_c, 6, 74, 0
8, 7020, Note_on_c, 6, 72, 100
8, 7080, Note_on_c, 6, 72, 0
8, 7080, Note_on_c, 6, 70, 100
8, 7140, Note_on_c, 6, 70, 0
8, 7140, Note_on_c, 6, 69, 100
8, 7200, Note_on_c, 6, 69, 0
8, 7200, Note_on_c, 6, 62, 100
8, 7200, Note_on_c, 6, 65, 100
8, 7260, Note_on_c, 6, 65, 0
8, 7260, Note_on_c, 6, 70, 100
8, 7320, Note_on_c, 6, 70, 0
8, 7320, Note_on_c, 6, 62, 0
8, 7320, Note_on_c, 6, 65, 100
8, 7320, Note_on_c, 6, 74, 100
8, 7380, Note_on_c, 6, 74, 0
8, 7380, Note_on_c, 6, 65, 0
8, 7380, Note_on_c, 6, 63, 100
8, 7380, Note_on_c, 6, 72, 100
8, 7440, Note_on_c, 6, 72, 0
8, 7440, Note_on_c, 6, 63, 0
8, 7440, Note_on_c, 6, 62, 100
8, 7440, Note_on_c, 6, 65, 100
8, 7470, Note_on_c, 6, 62, 0
8, 7470, Note_on_c, 6, 60, 100
8, 7500, Note_on_c, 6, 60, 0
8, 7500, Note_on_c, 6, 65, 0
8, 7500, Note_on_c, 6, 62, 100
8, 7500, Note_on_c, 6, 70, 100
8, 7530, Note_on_c, 6, 70, 0
8, 7530, Note_on_c, 6, 62, 0
8, 7530, Note_on_c, 6, 63, 100
8, 7530, Note_on_c, 6, 72, 100
8, 7560, Note_on_c, 6, 72, 0
8, 7560, Note_on_c, 6, 63, 0
8, 7560, Note_on_c, 6, 65, 100
8, 7560, Note_on_c, 6, 74, 100
8, 7590, Note_on_c, 6, 74, 0
8, 7590, Note_on_c, 6, 65, 0
8, 7590, Note_on_c, 6, 63, 100
8, 7590, Note_on_c, 6, 72, 100
8, 7620, Note_on_c, 6, 72, 0
8, 7620, Note_on_c, 6, 63, 0
8, 7620, Note_on_c, 6, 65, 100
8, 7620, Note_on_c, 6, 74, 100
8, 7650, Note_on_c, 6, 74, 0
8, 7650, Note_on_c, 6, 65, 0
8, 7650, Note_on_c, 6, 63, 100
8, 7650, Note_on_c, 6, 72, 100
8, 7680, Note_on_c, 6, 72, 0
8, 7680, Note_on_c, 6, 63, 0
8, 7680, Note_on_c, 6, 58, 100
8, 7680, Note_on_c, 6, 70, 100
8, 7680, Note_on_c, 6, 62, 100
8, 7740, Note_on_c, 6, 62, 0
8, 7740, Note_on_c, 6, 70, 0
8, 7740, Note_on_c, 6, 58, 0
8, 7740, Note_on_c, 6, 72, 100
8, 7770, Note_on_c, 6, 72, 0
8, 7770, Note_on_c, 6, 74, 100
8, 7800, Note_on_c, 6, 74, 0
8, 7800, Note_on_c, 6, 75, 100
8, 7830, Note_on_c, 6, 75, 0
8, 7830, Note_on_c, 6, 77, 100
8, 7860, Note_on_c, 6, 77, 0
8, 7860, Note_on_c, 6, 79, 100
8, 7920, Note_on_c, 6, 79, 0
8, 7920, Note_on_c, 6, 79, 100
8, 7935, Note_on_c, 6, 79, 0
8, 7935, Note_on_c, 6, 80, 100
8, 7950, Note_on_c, 6, 80, 0
8, 7950, Note_on_c, 6, 79, 100
8, 7965, Note_on_c, 6, 79, 0
8, 7965, Note_on_c, 6, 80, 100
8, 7980, Note_on_c, 6, 80, 0
8, 7980, Note_on_c, 6, 79, 100
8, 7995, Note_on_c, 6, 79, 0
8, 7995, Note_on_c, 6, 80, 100
8, 8010, Note_on_c, 6, 80, 0
8, 8010, Note_on_c, 6, 79, 100
8, 8025, Note_on_c, 6, 79, 0
8, 8025, Note_on_c, 6, 80, 100
8, 8040, Note_on_c, 6, 80, 0
8, 8040, Note_on_c, 6, 79, 100
8, 8055, Note_on_c, 6, 79, 0
8, 8055, Note_on_c, 6, 80, 100
8, 8070, Note_on_c, 6, 80, 0
8, 8070, Note_on_c, 6, 79, 100
8, 8085, Note_on_c, 6, 79, 0
8, 8085, Note_on_c, 6, 80, 100
8, 8100, Note_on_c, 6, 80, 0
8, 8100, Note_on_c, 6, 79, 100
8, 8115, Note_on_c, 6, 79, 0
8, 8115, Note_on_c, 6, 80, 100
8, 8130, Note_on_c, 6, 80, 0
8, 8130, Note_on_c, 6, 79, 100
8, 8145, Note_on_c, 6, 79, 0
8, 8145, Note_on_c, 6, 80, 100
8, 8160, Note_on_c, 6, 80, 0
8, 8160, Note_on_c, 6, 79, 100
8, 8220, Note_on_c, 6, 79, 0
8, 8220, Note_on_c, 6, 80, 100
8, 8280, Note_on_c, 6, 80, 0
8, 8280, Note_on_c, 6, 79, 100
8, 8340, Note_on_c, 6, 79, 0
8, 8340, Note_on_c, 6, 77, 100
8, 8400, Note_on_c, 6, 77, 0
8, 8400, Note_on_c, 6, 75, 100
8, 8460, Note_on_c, 6, 75, 0
8, 8460, Note_on_c, 6, 74, 100
8, 8520, Note_on_c, 6, 74, 0
8, 8520, Note_on_c, 6, 72, 100
8, 8580, Note_on_c, 6, 72, 0
8, 8580, Note_on_c, 6, 71, 100
8, 8640, Note_on_c, 6, 71, 0
8, 8640, Note_on_c, 6, 72, 100
8, 8820, Note_on_c, 6, 72, 0
8, 8820, Note_on_c, 6, 74, 100
8, 8850, Note_on_c, 6, 74, 0
8, 8850, Note_on_c, 6, 75, 100
8, 8880, Note_on_c, 6, 75, 0
8, 8880, Note_on_c, 6, 77, 100
8, 8910, Note_on_c, 6, 77, 0
8, 8910, Note_on_c, 6, 75, 100
8, 8940, Note_on_c, 6, 75, 0
8, 8940, Note_on_c, 6, 74, 100
8, 8970, Note_on_c, 6, 74, 0
8, 8970, Note_on_c, 6, 72, 100
8, 9000, Note_on_c, 6, 72, 0
8, 9000, Note_on_c, 6, 70, 100
8, 9030, Note_on_c, 6, 70, 0
8, 9030, Note_on_c, 6, 68, 100
8, 9060, Note_on_c, 6, 68, 0
8, 9060, Note_on_c, 6, 67, 100
8, 9090, Note_on_c, 6, 67, 0
8, 9090, Note_on_c, 6, 65, 100
8, 9120, Note_on_c, 6, 65, 0
8, 9120, Note_on_c, 6, 63, 100
8, 9180, Note_on_c, 6, 63, 0
8, 9180, Note_on_c, 6, 70, 100
8, 9300, Note_on_c, 6, 70, 0
8, 9300, Note_on_c, 6, 72, 100
8, 9330, Note_on_c, 6, 72, 0
8, 9330, Note_on_c, 6, 74, 100
8, 9360, Note_on_c, 6, 74, 0
8, 9360, Note_on_c, 6, 75, 100
8, 9390, Note_on_c, 6, 75, 0
8, 9390, Note_on_c, 6, 74, 100
8, 9420, Note_on_c, 6, 74, 0
8, 9420, Note_on_c, 6, 72, 100
8, 9450, Note_on_c, 6, 72, 0
8, 9450, Note_on_c, 6, 70, 100
8, 9480, Note_on_c, 6, 70, 0
8, 9480, Note_on_c, 6, 68, 100
8, 9510, Note_on_c, 6, 68, 0
8, 9510, Note_on_c, 6, 67, 100
8, 9540, Note_on_c, 6, 67, 0
8, 9540, Note_on_c, 6, 65, 100
8, 9570, Note_on_c, 6, 65, 0
8, 9570, Note_on_c, 6, 63, 100
8, 9600, Note_on_c, 6, 63, 0
8, 9600, Note_on_c, 6, 62, 100
8, 9630, Note_on_c, 6, 62, 0
8, 9630, Note_on_c, 6, 63, 100
8, 9660, Note_on_c, 6, 63, 0
8, 9660, Note_on_c, 6, 65, 100
8, 9690, Note_on_c, 6, 65, 0
8, 9690, Note_on_c, 6, 67, 100
8, 9720, Note_on_c, 6, 67, 0
8, 9720, Note_on_c, 6, 68, 100
8, 9750, Note_on_c, 6, 68, 0
8, 9750, Note_on_c, 6, 67, 100
8, 9780, Note_on_c, 6, 67, 0
8, 9780, Note_on_c, 6, 68, 100
8, 9810, Note_on_c, 6, 68, 0
8, 9810, Note_on_c, 6, 72, 100
8, 9840, Note_on_c, 6, 72, 0
8, 9840, Note_on_c, 6, 70, 100
8, 9870, Note_on_c, 6, 70, 0
8, 9870, Note_on_c, 6, 72, 100
8, 9900, Note_on_c, 6, 72, 0
8, 9900, Note_on_c, 6, 74, 100
8, 9930, Note_on_c, 6, 74, 0
8, 9930, Note_on_c, 6, 75, 100
8, 9960, Note_on_c, 6, 75, 0
8, 9960, Note_on_c, 6, 77, 100
8, 9990, Note_on_c, 6, 77, 0
8, 9990, Note_on_c, 6, 75, 100
8, 10020, Note_on_c, 6, 75, 0
8, 10020, Note_on_c, 6, 77, 100
8, 10050, Note_on_c, 6, 77, 0
8, 10050, Note_on_c, 6, 80, 100
8, 10080, Note_on_c, 6, 80, 0
8, 10080, Note_on_c, 6, 79, 100
8, 10110, Note_on_c, 6, 79, 0
8, 10110, Note_on_c, 6, 82, 100
8, 10140, Note_on_c, 6, 82, 0
8, 10140, Note_on_c, 6, 84, 100
8, 10170, Note_on_c, 6, 84, 0
8, 10170, Note_on_c, 6, 82, 100
8, 10200, Note_on_c, 6, 82, 0
8, 10200, Note_on_c, 6, 80, 100
8, 10230, Note_on_c, 6, 80, 0
8, 10230, Note_on_c, 6, 79, 100
8, 10260, Note_on_c, 6, 79, 0
8, 10260, Note_on_c, 6, 77, 100
8, 10290, Note_on_c, 6, 77, 0
8, 10290, Note_on_c, 6, 75, 100
8, 10320, Note_on_c, 6, 75, 0
8, 10320, Note_on_c, 6, 82, 100
8, 10340, Note_on_c, 6, 82, 0
8, 10340, Note_on_c, 6, 84, 100
8, 10360, Note_on_c, 6, 84, 0
8, 10360, Note_on_c, 6, 82, 100
8, 10380, Note_on_c, 6, 82, 0
8, 10380, Note_on_c, 6, 84, 100
8, 10395, Note_on_c, 6, 84, 0
8, 10395, Note_on_c, 6, 82, 100
8, 10410, Note_on_c, 6, 82, 0
8, 10410, Note_on_c, 6, 84, 100
8, 10425, Note_on_c, 6, 84, 0
8, 10425, Note_on_c, 6, 82, 100
8, 10440, Note_on_c, 6, 82, 0
8, 10440, Note_on_c, 6, 84, 100
8, 10455, Note_on_c, 6, 84, 0
8, 10455, Note_on_c, 6, 82, 100
8, 10470, Note_on_c, 6, 82, 0
8, 10470, Note_on_c, 6, 84, 100
8, 10485, Note_on_c, 6, 84, 0
8, 10485, Note_on_c, 6, 82, 100
8, 10500, Note_on_c, 6, 82, 0
8, 10500, Note_on_c, 6, 84, 100
8, 10515, Note_on_c, 6, 84, 0
8, 10515, Note_on_c, 6, 82, 100
8, 10530, Note_on_c, 6, 82, 0
8, 10530, Note_on_c, 6, 84, 100
8, 10545, Note_on_c, 6, 84, 0
8, 10545, Note_on_c, 6, 82, 100
8, 10560, Note_on_c, 6, 82, 0
8, 10560, Note_on_c, 6, 84, 100
8, 10575, Note_on_c, 6, 84, 0
8, 10575, Note_on_c, 6, 82, 100
8, 10590, Note_on_c, 6, 82, 0
8, 10590, Note_on_c, 6, 84, 100
8, 10605, Note_on_c, 6, 84, 0
8, 10605, Note_on_c, 6, 82, 100
8, 10620, Note_on_c, 6, 82, 0
8, 10620, Note_on_c, 6, 84, 100
8, 10635, Note_on_c, 6, 84, 0
8, 10635, Note_on_c, 6, 82, 100
8, 10650, Note_on_c, 6, 82, 0
8, 10650, Note_on_c, 6, 84, 100
8, 10665, Note_on_c, 6, 84, 0
8, 10665, Note_on_c, 6, 82, 100
8, 10680, Note_on_c, 6, 82, 0
8, 10680, Note_on_c, 6, 84, 100
8, 10695, Note_on_c, 6, 84, 0
8, 10695, Note_on_c, 6, 82, 100
8, 10710, Note_on_c, 6, 82, 0
8, 10710, Note_on_c, 6, 84, 100
8, 10725, Note_on_c, 6, 84, 0
8, 10725, Note_on_c, 6, 82, 100
8, 10740, Note_on_c, 6, 82, 0
8, 10740, Note_on_c, 6, 84, 100
8, 10755, Note_on_c, 6, 84, 0
8, 10755, Note_on_c, 6, 82, 100
8, 10770, Note_on_c, 6, 82, 0
8, 10770, Note_on_c, 6, 84, 100
8, 10785, Note_on_c, 6, 84, 0
8, 10785, Note_on_c, 6, 82, 100
8, 10800, Note_on_c, 6, 82, 0
8, 10800, Note_on_c, 6, 84, 100
8, 10815, Note_on_c, 6, 84, 0
8, 10815, Note_on_c, 6, 82, 100
8, 10830, Note_on_c, 6, 82, 0
8, 10830, Note_on_c, 6, 84, 100
8, 10845, Note_on_c, 6, 84, 0
8, 10845, Note_on_c, 6, 82, 100
8, 10860, Note_on_c, 6, 82, 0
8, 10860, Note_on_c, 6, 84, 100
8, 10875, Note_on_c, 6, 84, 0
8, 10875, Note_on_c, 6, 82, 100
8, 10890, Note_on_c, 6, 82, 0
8, 10890, Note_on_c, 6, 84, 100
8, 10905, Note_on_c, 6, 84, 0
8, 10905, Note_on_c, 6, 82, 100
8, 10920, Note_on_c, 6, 82, 0
8, 10920, Note_on_c, 6, 84, 100
8, 10935, Note_on_c, 6, 84, 0
8, 10935, Note_on_c, 6, 82, 100
8, 10950, Note_on_c, 6, 82, 0
8, 10950, Note_on_c, 6, 84, 100
8, 10965, Note_on_c, 6, 84, 0
8, 10965, Note_on_c, 6, 82, 100
8, 10980, Note_on_c, 6, 82, 0
8, 10980, Note_on_c, 6, 84, 100
8, 10995, Note_on_c, 6, 84, 0
8, 10995, Note_on_c, 6, 82, 100
8, 11010, Note_on_c, 6, 82, 0
8, 11010, Note_on_c, 6, 84, 100
8, 11025, Note_on_c, 6, 84, 0
8, 11025, Note_on_c, 6, 82, 100
8, 11040, Note_on_c, 6, 82, 0
8, 11040, Note_on_c, 6, 84, 100
8, 11070, Note_on_c, 6, 84, 0
8, 11070, Note_on_c, 6, 82, 100
8, 11160, Note_on_c, 6, 82, 0
8, 11220, Note_on_c, 6, 75, 100
8, 11280, Note_on_c, 6, 75, 0
8, 11280, Note_on_c, 6, 80, 100
8, 11310, Note_on_c, 6, 80, 0
8, 11310, Note_on_c, 6, 79, 100
8, 11340, Note_on_c, 6, 79, 0
8, 11340, Note_on_c, 6, 77, 100
8, 11370, Note_on_c, 6, 77, 0
8, 11370, Note_on_c, 6, 79, 100
8, 11400, Note_on_c, 6, 79, 0
8, 11400, Note_on_c, 6, 80, 100
8, 11430, Note_on_c, 6, 80, 0
8, 11430, Note_on_c, 6, 82, 100
8, 11460, Note_on_c, 6, 82, 0
8, 11460, Note_on_c, 6, 84, 100
8, 11520, Note_on_c, 6, 84, 0
8, 11520, Note_on_c, 6, 84, 100
8, 11580, Note_on_c, 6, 84, 0
8, 11580, Note_on_c, 6, 74, 100
8, 11640, Note_on_c, 6, 74, 0
8, 11700, Note_on_c, 6, 74, 100
8, 11760, Note_on_c, 6, 74, 0
8, 11760, Note_on_c, 6, 79, 100
8, 11790, Note_on_c, 6, 79, 0
8, 11790, Note_on_c, 6, 77, 100
8, 11820, Note_on_c, 6, 77, 0
8, 11820, Note_on_c, 6, 75, 100
8, 11850, Note_on_c, 6, 75, 0
8, 11850, Note_on_c, 6, 77, 100
8, 11880, Note_on_c, 6, 77, 0
8, 11880, Note_on_c, 6, 79, 100
8, 11910, Note_on_c, 6, 79, 0
8, 11910, Note_on_c, 6, 80, 100
8, 11940, Note_on_c, 6, 80, 0
8, 11940, Note_on_c, 6, 82, 100
8, 12000, Note_on_c, 6, 82, 0
8, 12000, Note_on_c, 6, 82, 100
8, 12060, Note_on_c, 6, 82, 0
8, 12060, Note_on_c, 6, 72, 100
8, 12120, Note_on_c, 6, 72, 0
8, 12180, Note_on_c, 6, 72, 100
8, 12240, Note_on_c, 6, 72, 0
8, 12240, Note_on_c, 6, 77, 100
8, 12270, Note_on_c, 6, 77, 0
8, 12270, Note_on_c, 6, 75, 100
8, 12300, Note_on_c, 6, 75, 0
8, 12300, Note_on_c, 6, 74, 100
8, 12330, Note_on_c, 6, 74, 0
8, 12330, Note_on_c, 6, 75, 100
8, 12360, Note_on_c, 6, 75, 0
8, 12360, Note_on_c, 6, 77, 100
8, 12390, Note_on_c, 6, 77, 0
8, 12390, Note_on_c, 6, 79, 100
8, 12420, Note_on_c, 6, 79, 0
8, 12420, Note_on_c, 6, 80, 100
8, 12480, Note_on_c, 6, 80, 0
8, 12480, Note_on_c, 6, 70, 100
8, 12540, Note_on_c, 6, 70, 0
8, 12540, Note_on_c, 6, 75, 100
8, 12570, Note_on_c, 6, 75, 0
8, 12570, Note_on_c, 6, 77, 100
8, 12600, Note_on_c, 6, 77, 0
8, 12600, Note_on_c, 6, 79, 100
8, 12630, Note_on_c, 6, 79, 0
8, 12630, Note_on_c, 6, 77, 100
8, 12660, Note_on_c, 6, 77, 0
8, 12660, Note_on_c, 6, 79, 100
8, 12690, Note_on_c, 6, 79, 0
8, 12690, Note_on_c, 6, 77, 100
8, 12720, Note_on_c, 6, 77, 0
8, 12720, Note_on_c, 6, 75, 100
8, 12750, Note_on_c, 6, 75, 0
8, 12750, Note_on_c, 6, 72, 100
8, 12780, Note_on_c, 6, 72, 0
8, 12780, Note_on_c, 6, 75, 100
8, 12810, Note_on_c, 6, 75, 0
8, 12810, Note_on_c, 6, 77, 100
8, 12840, Note_on_c, 6, 77, 0
8, 12840, Note_on_c, 6, 79, 100
8, 12870, Note_on_c, 6, 79, 0
8, 12870, Note_on_c, 6, 77, 100
8, 12900, Note_on_c, 6, 77, 0
8, 12900, Note_on_c, 6, 79, 100
8, 12930, Note_on_c, 6, 79, 0
8, 12930, Note_on_c, 6, 77, 100
8, 12960, Note_on_c, 6, 77, 0
8, 12960, Note_on_c, 6, 75, 100
8, 12990, Note_on_c, 6, 75, 0
8, 12990, Note_on_c, 6, 70, 100
8, 13020, Note_on_c, 6, 70, 0
8, 13020, Note_on_c, 6, 75, 100
8, 13050, Note_on_c, 6, 75, 0
8, 13050, Note_on_c, 6, 77, 100
8, 13080, Note_on_c, 6, 77, 0
8, 13080, Note_on_c, 6, 79, 100
8, 13110, Note_on_c, 6, 79, 0
8, 13110, Note_on_c, 6, 77, 100
8, 13140, Note_on_c, 6, 77, 0
8, 13140, Note_on_c, 6, 79, 100
8, 13170, Note_on_c, 6, 79, 0
8, 13170, Note_on_c, 6, 77, 100
8, 13200, Note_on_c, 6, 77, 0
8, 13200, Note_on_c, 6, 75, 100
8, 13230, Note_on_c, 6, 75, 0
8, 13230, Note_on_c, 6, 74, 100
8, 13260, Note_on_c, 6, 74, 0
8, 13260, Note_on_c, 6, 72, 100
8, 13290, Note_on_c, 6, 72, 0
8, 13290, Note_on_c, 6, 70, 100
8, 13320, Note_on_c, 6, 70, 0
8, 13320, Note_on_c, 6, 68, 100
8, 13380, Note_on_c, 6, 68, 0
8, 13380, Note_on_c, 6, 68, 100
8, 13440, Note_on_c, 6, 68, 0
8, 13440, Note_on_c, 6, 68, 100
8, 13590, Note_on_c, 6, 68, 0
8, 13590, Note_on_c, 6, 63, 100
8, 13620, Note_on_c, 6, 63, 0
8, 13620, Note_on_c, 6, 68, 100
8, 13650, Note_on_c, 6, 68, 0
8, 13650, Note_on_c, 6, 72, 100
8, 13680, Note_on_c, 6, 72, 0
8, 13680, Note_on_c, 6, 77, 100
8, 13710, Note_on_c, 6, 77, 0
8, 13710, Note_on_c, 6, 75, 100
8, 13740, Note_on_c, 6, 75, 0
8, 13740, Note_on_c, 6, 74, 100
8, 13770, Note_on_c, 6, 74, 0
8, 13770, Note_on_c, 6, 72, 100
8, 13800, Note_on_c, 6, 72, 0
8, 13800, Note_on_c, 6, 70, 100
8, 13830, Note_on_c, 6, 70, 0
8, 13830, Note_on_c, 6, 68, 100
8, 13860, Note_on_c, 6, 68, 0
8, 13860, Note_on_c, 6, 67, 100
8, 13890, Note_on_c, 6, 67, 0
8, 13890, Note_on_c, 6, 68, 100
8, 13920, Note_on_c, 6, 68, 0
8, 13920, Note_on_c, 6, 68, 100
8, 14070, Note_on_c, 6, 68, 0
8, 14070, Note_on_c, 6, 70, 100
8, 14100, Note_on_c, 6, 70, 0
8, 14100, Note_on_c, 6, 74, 100
8, 14130, Note_on_c, 6, 74, 0
8, 14130, Note_on_c, 6, 77, 100
8, 14160, Note_on_c, 6, 77, 0
8, 14160, Note_on_c, 6, 79, 100
8, 14190, Note_on_c, 6, 79, 0
8, 14190, Note_on_c, 6, 77, 100
8, 14220, Note_on_c, 6, 77, 0
8, 14220, Note_on_c, 6, 80, 100
8, 14250, Note_on_c, 6, 80, 0
8, 14250, Note_on_c, 6, 79, 100
8, 14280, Note_on_c, 6, 79, 0
8, 14280, Note_on_c, 6, 84, 100
8, 14310, Note_on_c, 6, 84, 0
8, 14310, Note_on_c, 6, 82, 100
8, 14340, Note_on_c, 6, 82, 0
8, 14340, Note_on_c, 6, 80, 100
8, 14370, Note_on_c, 6, 80, 0
8, 14370, Note_on_c, 6, 79, 100
8, 14400, Note_on_c, 6, 79, 0
8, 14400, Note_on_c, 6, 77, 100
8, 14430, Note_on_c, 6, 77, 0
8, 14430, Note_on_c, 6, 75, 100
8, 14460, Note_on_c, 6, 75, 0
8, 14460, Note_on_c, 6, 74, 100
8, 14490, Note_on_c, 6, 74, 0
8, 14490, Note_on_c, 6, 72, 100
8, 14520, Note_on_c, 6, 72, 0
8, 14520, Note_on_c, 6, 70, 100
8, 14550, Note_on_c, 6, 70, 0
8, 14550, Note_on_c, 6, 68, 100
8, 14580, Note_on_c, 6, 68, 0
8, 14580, Note_on_c, 6, 67, 100
8, 14610, Note_on_c, 6, 67, 0
8, 14610, Note_on_c, 6, 65, 100
8, 14640, Note_on_c, 6, 65, 0
8, 14640, Note_on_c, 6, 67, 100
8, 14700, Note_on_c, 6, 67, 0
8, 14700, Note_on_c, 6, 75, 100
8, 14760, Note_on_c, 6, 75, 0
8, 14760, Note_on_c, 6, 65, 100
8, 14820, Note_on_c, 6, 65, 0
8, 14820, Note_on_c, 6, 74, 100
8, 14880, Note_on_c, 6, 74, 0
8, 14880, Note_on_c, 6, 75, 100
8, 14910, Note_on_c, 6, 75, 0
8, 14910, Note_on_c, 6, 74, 100
8, 14940, Note_on_c, 6, 74, 0
8, 14940, Note_on_c, 6, 72, 100
8, 14970, Note_on_c, 6, 72, 0
8, 14970, Note_on_c, 6, 70, 100
8, 15000, Note_on_c, 6, 70, 0
8, 15000, Note_on_c, 6, 69, 100
8, 15060, Note_on_c, 6, 69, 0
8, 15060, Note_on_c, 6, 78, 100
8, 15180, Note_on_c, 6, 78, 0
8, 15180, Note_on_c, 6, 77, 100
8, 15210, Note_on_c, 6, 77, 0
8, 15210, Note_on_c, 6, 75, 100
8, 15240, Note_on_c, 6, 75, 0
8, 15240, Note_on_c, 6, 74, 100
8, 15255, Note_on_c, 6, 74, 0
8, 15255, Note_on_c, 6, 75, 100
8, 15270, Note_on_c, 6, 75, 0
8, 15270, Note_on_c, 6, 74, 100
8, 15285, Note_on_c, 6, 74, 0
8, 15285, Note_on_c, 6, 75, 100
8, 15300, Note_on_c, 6, 75, 0
8, 15300, Note_on_c, 6, 74, 100
8, 15315, Note_on_c, 6, 74, 0
8, 15330, Note_on_c, 6, 75, 100
8, 15360, Note_on_c, 6, 75, 0
8, 15360, Note_on_c, 6, 75, 100
8, 15480, Note_on_c, 6, 75, 0
8, 16200, Note_on_c, 6, 72, 100
8, 16260, Note_on_c, 6, 72, 0
8, 16260, Note_on_c, 6, 65, 100
8, 16320, Note_on_c, 6, 65, 0
8, 17160, Note_on_c, 6, 70, 100
8, 17220, Note_on_c, 6, 70, 0
8, 17220, Note_on_c, 6, 63, 100
8, 17280, Note_on_c, 6, 63, 0
8, 17400, Note_on_c, 6, 75, 100
8, 17460, Note_on_c, 6, 75, 0
8, 17460, Note_on_c, 6, 72, 100
8, 17520, Note_on_c, 6, 72, 0
8, 17640, Note_on_c, 6, 75, 100
8, 17700, Note_on_c, 6, 75, 0
8, 17700, Note_on_c, 6, 70, 100
8, 17760, Note_on_c, 6, 70, 0
8, 17880, Note_on_c, 6, 75, 100
8, 17940, Note_on_c, 6, 75, 0
8, 17940, Note_on_c, 6, 69, 100
8, 18000, Note_on_c, 6, 69, 0
8, 18120, Note_on_c, 6, 74, 100
8, 18180, Note_on_c, 6, 74, 0
8, 18180, Note_on_c, 6, 70, 100
8, 18240, Note_on_c, 6, 70, 0
8, 18360, Note_on_c, 6, 72, 100
8, 18420, Note_on_c, 6, 72, 0
8, 18420, Note_on_c, 6, 69, 100
8, 18480, Note_on_c, 6, 69, 0
8, 18600, Note_on_c, 6, 72, 100
8, 18660, Note_on_c, 6, 72, 0
8, 18660, Note_on_c, 6, 67, 100
8, 18720, Note_on_c, 6, 67, 0
8, 18840, Note_on_c, 6, 72, 100
8, 18900, Note_on_c, 6, 72, 0
8, 18900, Note_on_c, 6, 66, 100
8, 18960, Note_on_c, 6, 66, 0
8, 19080, Note_on_c, 6, 67, 100
8, 19140, Note_on_c, 6, 67, 0
8, 19140, Note_on_c, 6, 60, 100
8, 19200, Note_on_c, 6, 60, 0
8, 19320, Note_on_c, 6, 69, 100
8, 19380, Note_on_c, 6, 69, 0
8, 19380, Note_on_c, 6, 60, 100
8, 19440, Note_on_c, 6, 60, 0
8, 19560, Note_on_c, 6, 70, 100
8, 19620, Note_on_c, 6, 70, 0
8, 19620, Note_on_c, 6, 63, 100
8, 19680, Note_on_c, 6, 63, 0
8, 19800, Note_on_c, 6, 72, 100
8, 19860, Note_on_c, 6, 72, 0
8, 19860, Note_on_c, 6, 63, 100
8, 19920, Note_on_c, 6, 63, 0
8, 20040, Note_on_c, 6, 72, 100
8, 20100, Note_on_c, 6, 72, 0
8, 20100, Note_on_c, 6, 66, 100
8, 20160, Note_on_c, 6, 66, 0
8, 20160, Note_on_c, 6, 62, 100
8, 20220, Note_on_c, 6, 62, 0
8, 20220, Note_on_c, 6, 67, 100
8, 20280, Note_on_c, 6, 67, 0
8, 20280, Note_on_c, 6, 67, 100
8, 20280, Note_on_c, 6, 70, 100
8, 20340, Note_on_c, 6, 70, 0
8, 20340, Note_on_c, 6, 67, 0
8, 20340, Note_on_c, 6, 66, 100
8, 20340, Note_on_c, 6, 69, 100
8, 20400, Note_on_c, 6, 69, 0
8, 20400, Note_on_c, 6, 66, 0
8, 20400, Note_on_c, 6, 62, 100
8, 20460, Note_on_c, 6, 62, 0
8, 20460, Note_on_c, 6, 67, 100
8, 20490, Note_on_c, 6, 67, 0
8, 20490, Note_on_c, 6, 69, 100
8, 20520, Note_on_c, 6, 69, 0
8, 20520, Note_on_c, 6, 67, 100
8, 20520, Note_on_c, 6, 70, 100
8, 20550, Note_on_c, 6, 70, 0
8, 20550, Note_on_c, 6, 67, 0
8, 20550, Note_on_c, 6, 66, 100
8, 20550, Note_on_c, 6, 69, 100
8, 20580, Note_on_c, 6, 69, 0
8, 20580, Note_on_c, 6, 66, 0
8, 20580, Note_on_c, 6, 67, 100
8, 20580, Note_on_c, 6, 70, 100
8, 20610, Note_on_c, 6, 70, 0
8, 20610, Note_on_c, 6, 67, 0
8, 20610, Note_on_c, 6, 66, 100
8, 20610, Note_on_c, 6, 69, 100
8, 20640, Note_on_c, 6, 69, 0
8, 20640, Note_on_c, 6, 66, 0
8, 20640, Note_on_c, 6, 67, 100
8, 20700, Note_on_c, 6, 67, 0
8, 20700, Note_on_c, 6, 69, 100
8, 20730, Note_on_c, 6, 69, 0
8, 20730, Note_on_c, 6, 70, 100
8, 20760, Note_on_c, 6, 70, 0
8, 20760, Note_on_c, 6, 72, 100
8, 20790, Note_on_c, 6, 72, 0
8, 20790, Note_on_c, 6, 74, 100
8, 20820, Note_on_c, 6, 74, 0
8, 20820, Note_on_c, 6, 75, 100
8, 20880, Note_on_c, 6, 75, 0
8, 20880, Note_on_c, 6, 75, 100
8, 20940, Note_on_c, 6, 75, 0
8, 20940, Note_on_c, 6, 69, 100
8, 21000, Note_on_c, 6, 69, 0
8, 21120, Note_on_c, 6, 60, 100
8, 21180, Note_on_c, 6, 60, 0
8, 21180, Note_on_c, 6, 65, 100
8, 21240, Note_on_c, 6, 65, 0
8, 21240, Note_on_c, 6, 65, 100
8, 21240, Note_on_c, 6, 69, 100
8, 21300, Note_on_c, 6, 69, 0
8, 21300, Note_on_c, 6, 65, 0
8, 21300, Note_on_c, 6, 60, 100
8, 21300, Note_on_c, 6, 67, 100
8, 21360, Note_on_c, 6, 67, 0
8, 21360, Note_on_c, 6, 60, 0
8, 21360, Note_on_c, 6, 60, 100
8, 21420, Note_on_c, 6, 60, 0
8, 21420, Note_on_c, 6, 65, 100
8, 21450, Note_on_c, 6, 65, 0
8, 21450, Note_on_c, 6, 67, 100
8, 21480, Note_on_c, 6, 67, 0
8, 21480, Note_on_c, 6, 65, 100
8, 21480, Note_on_c, 6, 69, 100
8, 21510, Note_on_c, 6, 69, 0
8, 21510, Note_on_c, 6, 65, 0
8, 21510, Note_on_c, 6, 64, 100
8, 21510, Note_on_c, 6, 67, 100
8, 21540, Note_on_c, 6, 67, 0
8, 21540, Note_on_c, 6, 64, 0
8, 21540, Note_on_c, 6, 65, 100
8, 21540, Note_on_c, 6, 69, 100
8, 21570, Note_on_c, 6, 69, 0
8, 21570, Note_on_c, 6, 65, 0
8, 21570, Note_on_c, 6, 64, 100
8, 21570, Note_on_c, 6, 67, 100
8, 21600, Note_on_c, 6, 67, 0
8, 21600, Note_on_c, 6, 64, 0
8, 21600, Note_on_c, 6, 65, 100
8, 21660, Note_on_c, 6, 65, 0
8, 21660, Note_on_c, 6, 67, 100
8, 21690, Note_on_c, 6, 67, 0
8, 21690, Note_on_c, 6, 69, 100
8, 21720, Note_on_c, 6, 69, 0
8, 21720, Note_on_c, 6, 70, 100
8, 21750, Note_on_c, 6, 70, 0
8, 21750, Note_on_c, 6, 72, 100
8, 21780, Note_on_c, 6, 72, 0
8, 21780, Note_on_c, 6, 74, 100
8, 21840, Note_on_c, 6, 74, 0
8, 21840, Note_on_c, 6, 74, 100
8, 21900, Note_on_c, 6, 74, 0
8, 21900, Note_on_c, 6, 67, 100
8, 21960, Note_on_c, 6, 67, 0
8, 22080, Note_on_c, 6, 79, 100
8, 22110, Note_on_c, 6, 79, 0
8, 22110, Note_on_c, 6, 77, 100
8, 22140, Note_on_c, 6, 77, 0
8, 22140, Note_on_c, 6, 75, 100
8, 22170, Note_on_c, 6, 75, 0
8, 22170, Note_on_c, 6, 74, 100
8, 22200, Note_on_c, 6, 74, 0
8, 22200, Note_on_c, 6, 72, 100
8, 22260, Note_on_c, 6, 72, 0
8, 22260, Note_on_c, 6, 72, 100
8, 22320, Note_on_c, 6, 72, 0
8, 22320, Note_on_c, 6, 72, 100
8, 22470, Note_on_c, 6, 72, 0
8, 22470, Note_on_c, 6, 67, 100
8, 22500, Note_on_c, 6, 67, 0
8, 22500, Note_on_c, 6, 72, 100
8, 22530, Note_on_c, 6, 72, 0
8, 22530, Note_on_c, 6, 74, 100
8, 22560, Note_on_c, 6, 74, 0
8, 22560, Note_on_c, 6, 75, 100
8, 22590, Note_on_c, 6, 75, 0
8, 22590, Note_on_c, 6, 74, 100
8, 22620, Note_on_c, 6, 74, 0
8, 22620, Note_on_c, 6, 72, 100
8, 22650, Note_on_c, 6, 72, 0
8, 22650, Note_on_c, 6, 70, 100
8, 22680, Note_on_c, 6, 70, 0
8, 22680, Note_on_c, 6, 68, 100
8, 22740, Note_on_c, 6, 68, 0
8, 22740, Note_on_c, 6, 68, 100
8, 22800, Note_on_c, 6, 68, 0
8, 22800, Note_on_c, 6, 68, 100
8, 22950, Note_on_c, 6, 68, 0
8, 22950, Note_on_c, 6, 63, 100
8, 22980, Note_on_c, 6, 63, 0
8, 22980, Note_on_c, 6, 68, 100
8, 23010, Note_on_c, 6, 68, 0
8, 23010, Note_on_c, 6, 70, 100
8, 23040, Note_on_c, 6, 70, 0
8, 23040, Note_on_c, 6, 72, 100
8, 23070, Note_on_c, 6, 72, 0
8, 23070, Note_on_c, 6, 74, 100
8, 23100, Note_on_c, 6, 74, 0
8, 23100, Note_on_c, 6, 75, 100
8, 23130, Note_on_c, 6, 75, 0
8, 23130, Note_on_c, 6, 74, 100
8, 23160, Note_on_c, 6, 74, 0
8, 23160, Note_on_c, 6, 72, 100
8, 23190, Note_on_c, 6, 72, 0
8, 23190, Note_on_c, 6, 70, 100
8, 23220, Note_on_c, 6, 70, 0
8, 23220, Note_on_c, 6, 69, 100
8, 23250, Note_on_c, 6, 69, 0
8, 23250, Note_on_c, 6, 67, 100
8, 23280, Note_on_c, 6, 67, 0
8, 23280, Note_on_c, 6, 66, 100
8, 23340, Note_on_c, 6, 66, 0
8, 23340, Note_on_c, 6, 74, 100
8, 23400, Note_on_c, 6, 74, 0
8, 23400, Note_on_c, 6, 67, 100
8, 23460, Note_on_c, 6, 67, 0
8, 23460, Note_on_c, 6, 72, 100
8, 23520, Note_on_c, 6, 72, 0
8, 23520, Note_on_c, 6, 70, 100
8, 23610, Note_on_c, 6, 70, 0
8, 23610, Note_on_c, 6, 69, 100
8, 23640, Note_on_c, 6, 69, 0
8, 23640, Note_on_c, 6, 69, 100
8, 23730, Note_on_c, 6, 69, 0
8, 23730, Note_on_c, 6, 67, 100
8, 23760, Note_on_c, 6, 67, 0
8, 23760, Note_on_c, 6, 67, 100
8, 23790, Note_on_c, 6, 67, 0
8, 23790, Note_on_c, 6, 69, 100
8, 23820, Note_on_c, 6, 69, 0
8, 23820, Note_on_c, 6, 71, 100
8, 23850, Note_on_c, 6, 71, 0
8, 23850, Note_on_c, 6, 72, 100
8, 23880, Note_on_c, 6, 72, 0
8, 23880, Note_on_c, 6, 74, 100
8, 23910, Note_on_c, 6, 74, 0
8, 23910, Note_on_c, 6, 75, 100
8, 23940, Note_on_c, 6, 75, 0
8, 23940, Note_on_c, 6, 77, 100
8, 24000, Note_on_c, 6, 77, 0
8, 24000, Note_on_c, 6, 77, 100
8, 24060, Note_on_c, 6, 77, 0
8, 24060, Note_on_c, 6, 71, 100
8, 24120, Note_on_c, 6, 71, 0
8, 24240, Note_on_c, 6, 71, 100
8, 24270, Note_on_c, 6, 71, 0
8, 24270, Note_on_c, 6, 72, 100
8, 24300, Note_on_c, 6, 72, 0
8, 24300, Note_on_c, 6, 74, 100
8, 24330, Note_on_c, 6, 74, 0
8, 24330, Note_on_c, 6, 75, 100
8, 24360, Note_on_c, 6, 75, 0
8, 24360, Note_on_c, 6, 77, 100
8, 24390, Note_on_c, 6, 77, 0
8, 24390, Note_on_c, 6, 79, 100
8, 24420, Note_on_c, 6, 79, 0
8, 24420, Note_on_c, 6, 80, 100
8, 24480, Note_on_c, 6, 80, 0
8, 24480, Note_on_c, 6, 80, 100
8, 24540, Note_on_c, 6, 80, 0
8, 24540, Note_on_c, 6, 74, 100
8, 24600, Note_on_c, 6, 74, 0
8, 24600, Note_on_c, 6, 77, 100
8, 24660, Note_on_c, 6, 77, 0
8, 24660, Note_on_c, 6, 71, 100
8, 24720, Note_on_c, 6, 71, 0
8, 24720, Note_on_c, 6, 74, 100
8, 24780, Note_on_c, 6, 74, 0
8, 24780, Note_on_c, 6, 65, 100
8, 24810, Note_on_c, 6, 65, 0
8, 24810, Note_on_c, 6, 68, 100
8, 24840, Note_on_c, 6, 68, 0
8, 24840, Note_on_c, 6, 67, 100
8, 24870, Note_on_c, 6, 67, 0
8, 24870, Note_on_c, 6, 65, 100
8, 24900, Note_on_c, 6, 65, 0
8, 24900, Note_on_c, 6, 63, 100
8, 24930, Note_on_c, 6, 63, 0
8, 24930, Note_on_c, 6, 62, 100
8, 24960, Note_on_c, 6, 62, 0
8, 24960, Note_on_c, 6, 60, 100
8, 25020, Note_on_c, 6, 60, 0
8, 25680, Note_on_c, 6, 62, 100
8, 25710, Note_on_c, 6, 62, 0
8, 25710, Note_on_c, 6, 64, 100
8, 25740, Note_on_c, 6, 64, 0
8, 25740, Note_on_c, 6, 66, 100
8, 25770, Note_on_c, 6, 66, 0
8, 25770, Note_on_c, 6, 67, 100
8, 25800, Note_on_c, 6, 67, 0
8, 25800, Note_on_c, 6, 69, 100
8, 25830, Note_on_c, 6, 69, 0
8, 25830, Note_on_c, 6, 70, 100
8, 25860, Note_on_c, 6, 70, 0
8, 25860, Note_on_c, 6, 72, 100
8, 25920, Note_on_c, 6, 72, 0
8, 25920, Note_on_c, 6, 72, 100
8, 25980, Note_on_c, 6, 72, 0
8, 25980, Note_on_c, 6, 66, 100
8, 26040, Note_on_c, 6, 66, 0
8, 26160, Note_on_c, 6, 66, 100
8, 26190, Note_on_c, 6, 66, 0
8, 26190, Note_on_c, 6, 67, 100
8, 26220, Note_on_c, 6, 67, 0
8, 26220, Note_on_c, 6, 69, 100
8, 26250, Note_on_c, 6, 69, 0
8, 26250, Note_on_c, 6, 70, 100
8, 26280, Note_on_c, 6, 70, 0
8, 26280, Note_on_c, 6, 72, 100
8, 26310, Note_on_c, 6, 72, 0
8, 26310, Note_on_c, 6, 74, 100
8, 26340, Note_on_c, 6, 74, 0
8, 26340, Note_on_c, 6, 75, 100
8, 26400, Note_on_c, 6, 75, 0
8, 26400, Note_on_c, 6, 75, 100
8, 26460, Note_on_c, 6, 75, 0
8, 26460, Note_on_c, 6, 69, 100
8, 26520, Note_on_c, 6, 69, 0
8, 26520, Note_on_c, 6, 72, 100
8, 26580, Note_on_c, 6, 72, 0
8, 26580, Note_on_c, 6, 66, 100
8, 26640, Note_on_c, 6, 66, 0
8, 26640, Note_on_c, 6, 69, 100
8, 26700, Note_on_c, 6, 69, 0
8, 26700, Note_on_c, 6, 60, 100
8, 26730, Note_on_c, 6, 60, 0
8, 26730, Note_on_c, 6, 63, 100
8, 26760, Note_on_c, 6, 63, 0
8, 26760, Note_on_c, 6, 62, 100
8, 26790, Note_on_c, 6, 62, 0
8, 26790, Note_on_c, 6, 60, 100
8, 26820, Note_on_c, 6, 60, 0
8, 26820, Note_on_c, 6, 58, 100
8, 26850, Note_on_c, 6, 58, 0
8, 26850, Note_on_c, 6, 57, 100
8, 26880, Note_on_c, 6, 57, 0
8, 26880, Note_on_c, 6, 74, 100
8, 26910, Note_on_c, 6, 74, 0
8, 26910, Note_on_c, 6, 72, 100
8, 26940, Note_on_c, 6, 72, 0
8, 26940, Note_on_c, 6, 70, 100
8, 26970, Note_on_c, 6, 70, 0
8, 26970, Note_on_c, 6, 69, 100
8, 27000, Note_on_c, 6, 69, 0
8, 27000, Note_on_c, 6, 67, 100
8, 27060, Note_on_c, 6, 67, 0
8, 27060, Note_on_c, 6, 67, 100
8, 27120, Note_on_c, 6, 67, 0
8, 27120, Note_on_c, 6, 67, 100
8, 27270, Note_on_c, 6, 67, 0
8, 27270, Note_on_c, 6, 62, 100
8, 27300, Note_on_c, 6, 62, 0
8, 27300, Note_on_c, 6, 67, 100
8, 27330, Note_on_c, 6, 67, 0
8, 27330, Note_on_c, 6, 69, 100
8, 27360, Note_on_c, 6, 69, 0
8, 27360, Note_on_c, 6, 70, 100
8, 27389, Note_on_c, 6, 70, 0
8, 27390, Note_on_c, 6, 68, 100
8, 27419, Note_on_c, 6, 68, 0
8, 27420, Note_on_c, 6, 67, 100
8, 27449, Note_on_c, 6, 67, 0
8, 27450, Note_on_c, 6, 65, 100
8, 27479, Note_on_c, 6, 65, 0
8, 27480, Note_on_c, 6, 63, 100
8, 27539, Note_on_c, 6, 63, 0
8, 27540, Note_on_c, 6, 63, 100
8, 27599, Note_on_c, 6, 63, 0
8, 27600, Note_on_c, 6, 63, 100
8, 27719, Note_on_c, 6, 63, 0
8, 27750, Note_on_c, 6, 70, 100
8, 27779, Note_on_c, 6, 70, 0
8, 27780, Note_on_c, 6, 75, 100
8, 27809, Note_on_c, 6, 75, 0
8, 27810, Note_on_c, 6, 77, 100
8, 27839, Note_on_c, 6, 77, 0
8, 27840, Note_on_c, 6, 79, 100
8, 27869, Note_on_c, 6, 79, 0
8, 27870, Note_on_c, 6, 77, 100
8, 27899, Note_on_c, 6, 77, 0
8, 27900, Note_on_c, 6, 75, 100
8, 27929, Note_on_c, 6, 75, 0
8, 27930, Note_on_c, 6, 74, 100
8, 27959, Note_on_c, 6, 74, 0
8, 27960, Note_on_c, 6, 72, 100
8, 28019, Note_on_c, 6, 72, 0
8, 28020, Note_on_c, 6, 72, 100
8, 28079, Note_on_c, 6, 72, 0
8, 28080, Note_on_c, 6, 72, 100
8, 28199, Note_on_c, 6, 72, 0
8, 28230, Note_on_c, 6, 67, 100
8, 28259, Note_on_c, 6, 67, 0
8, 28260, Note_on_c, 6, 72, 100
8, 28289, Note_on_c, 6, 72, 0
8, 28290, Note_on_c, 6, 74, 100
8, 28319, Note_on_c, 6, 74, 0
8, 28320, Note_on_c, 6, 75, 100
8, 28349, Note_on_c, 6, 75, 0
8, 28350, Note_on_c, 6, 77, 100
8, 28379, Note_on_c, 6, 77, 0
8, 28380, Note_on_c, 6, 79, 100
8, 28409, Note_on_c, 6, 79, 0
8, 28410, Note_on_c, 6, 77, 100
8, 28439, Note_on_c, 6, 77, 0
8, 28440, Note_on_c, 6, 75, 100
8, 28469, Note_on_c, 6, 75, 0
8, 28470, Note_on_c, 6, 74, 100
8, 28499, Note_on_c, 6, 74, 0
8, 28500, Note_on_c, 6, 72, 100
8, 28529, Note_on_c, 6, 72, 0
8, 28530, Note_on_c, 6, 70, 100
8, 28559, Note_on_c, 6, 70, 0
8, 28560, Note_on_c, 6, 77, 100
8, 28800, Note_on_c, 6, 77, 0
8, 28800, Note_on_c, 6, 77, 100
8, 28820, Note_on_c, 6, 77, 0
8, 28820, Note_on_c, 6, 79, 100
8, 28840, Note_on_c, 6, 79, 0
8, 28840, Note_on_c, 6, 77, 100
8, 28860, Note_on_c, 6, 77, 0
8, 28860, Note_on_c, 6, 79, 100
8, 28874, Note_on_c, 6, 79, 0
8, 28875, Note_on_c, 6, 77, 100
8, 28889, Note_on_c, 6, 77, 0
8, 28890, Note_on_c, 6, 79, 100
8, 28904, Note_on_c, 6, 79, 0
8, 28905, Note_on_c, 6, 77, 100
8, 28919, Note_on_c, 6, 77, 0
8, 28920, Note_on_c, 6, 79, 100
8, 28934, Note_on_c, 6, 79, 0
8, 28935, Note_on_c, 6, 77, 100
8, 28949, Note_on_c, 6, 77, 0
8, 28950, Note_on_c, 6, 79, 100
8, 28964, Note_on_c, 6, 79, 0
8, 28965, Note_on_c, 6, 77, 100
8, 28979, Note_on_c, 6, 77, 0
8, 28980, Note_on_c, 6, 79, 100
8, 28994, Note_on_c, 6, 79, 0
8, 28995, Note_on_c, 6, 77, 100
8, 29009, Note_on_c, 6, 77, 0
8, 29010, Note_on_c, 6, 79, 100
8, 29024, Note_on_c, 6, 79, 0
8, 29025, Note_on_c, 6, 77, 100
8, 29039, Note_on_c, 6, 77, 0
8, 29040, Note_on_c, 6, 79, 100
8, 29054, Note_on_c, 6, 79, 0
8, 29055, Note_on_c, 6, 77, 100
8, 29069, Note_on_c, 6, 77, 0
8, 29070, Note_on_c, 6, 79, 100
8, 29084, Note_on_c, 6, 79, 0
8, 29085, Note_on_c, 6, 77, 100
8, 29099, Note_on_c, 6, 77, 0
8, 29100, Note_on_c, 6, 79, 100
8, 29114, Note_on_c, 6, 79, 0
8, 29115, Note_on_c, 6, 77, 100
8, 29129, Note_on_c, 6, 77, 0
8, 29130, Note_on_c, 6, 79, 100
8, 29144, Note_on_c, 6, 79, 0
8, 29145, Note_on_c, 6, 77, 100
8, 29159, Note_on_c, 6, 77, 0
8, 29160, Note_on_c, 6, 79, 100
8, 29174, Note_on_c, 6, 79, 0
8, 29175, Note_on_c, 6, 77, 100
8, 29189, Note_on_c, 6, 77, 0
8, 29190, Note_on_c, 6, 79, 100
8, 29204, Note_on_c, 6, 79, 0
8, 29205, Note_on_c, 6, 77, 100
8, 29219, Note_on_c, 6, 77, 0
8, 29220, Note_on_c, 6, 79, 100
8, 29234, Note_on_c, 6, 79, 0
8, 29235, Note_on_c, 6, 77, 100
8, 29249, Note_on_c, 6, 77, 0
8, 29250, Note_on_c, 6, 79, 100
8, 29264, Note_on_c, 6, 79, 0
8, 29265, Note_on_c, 6, 77, 100
8, 29279, Note_on_c, 6, 77, 0
8, 29280, Note_on_c, 6, 79, 100
8, 29294, Note_on_c, 6, 79, 0
8, 29295, Note_on_c, 6, 77, 100
8, 29309, Note_on_c, 6, 77, 0
8, 29310, Note_on_c, 6, 79, 100
8, 29324, Note_on_c, 6, 79, 0
8, 29325, Note_on_c, 6, 77, 100
8, 29339, Note_on_c, 6, 77, 0
8, 29340, Note_on_c, 6, 79, 100
8, 29370, Note_on_c, 6, 79, 0
8, 29370, Note_on_c, 6, 77, 100
8, 29400, Note_on_c, 6, 77, 0
8, 29460, Note_on_c, 6, 70, 100
8, 29519, Note_on_c, 6, 70, 0
8, 29520, Note_on_c, 6, 75, 100
8, 29549, Note_on_c, 6, 75, 0
8, 29550, Note_on_c, 6, 74, 100
8, 29579, Note_on_c, 6, 74, 0
8, 29580, Note_on_c, 6, 72, 100
8, 29609, Note_on_c, 6, 72, 0
8, 29610, Note_on_c, 6, 74, 100
8, 29639, Note_on_c, 6, 74, 0
8, 29640, Note_on_c, 6, 75, 100
8, 29669, Note_on_c, 6, 75, 0
8, 29670, Note_on_c, 6, 77, 100
8, 29699, Note_on_c, 6, 77, 0
8, 29700, Note_on_c, 6, 79, 100
8, 29759, Note_on_c, 6, 79, 0
8, 29760, Note_on_c, 6, 79, 100
8, 29819, Note_on_c, 6, 79, 0
8, 29820, Note_on_c, 6, 69, 100
8, 29879, Note_on_c, 6, 69, 0
8, 29940, Note_on_c, 6, 69, 100
8, 29999, Note_on_c, 6, 69, 0
8, 30000, Note_on_c, 6, 74, 100
8, 30029, Note_on_c, 6, 74, 0
8, 30030, Note_on_c, 6, 72, 100
8, 30059, Note_on_c, 6, 72, 0
8, 30060, Note_on_c, 6, 70, 100
8, 30089, Note_on_c, 6, 70, 0
8, 30090, Note_on_c, 6, 72, 100
8, 30119, Note_on_c, 6, 72, 0
8, 30120, Note_on_c, 6, 74, 100
8, 30149, Note_on_c, 6, 74, 0
8, 30150, Note_on_c, 6, 75, 100
8, 30179, Note_on_c, 6, 75, 0
8, 30180, Note_on_c, 6, 77, 100
8, 30239, Note_on_c, 6, 77, 0
8, 30240, Note_on_c, 6, 77, 100
8, 30299, Note_on_c, 6, 77, 0
8, 30300, Note_on_c, 6, 67, 100
8, 30359, Note_on_c, 6, 67, 0
8, 30420, Note_on_c, 6, 67, 100
8, 30479, Note_on_c, 6, 67, 0
8, 30480, Note_on_c, 6, 72, 100
8, 30509, Note_on_c, 6, 72, 0
8, 30510, Note_on_c, 6, 70, 100
8, 30539, Note_on_c, 6, 70, 0
8, 30540, Note_on_c, 6, 69, 100
8, 30569, Note_on_c, 6, 69, 0
8, 30570, Note_on_c, 6, 70, 100
8, 30599, Note_on_c, 6, 70, 0
8, 30600, Note_on_c, 6, 72, 100
8, 30629, Note_on_c, 6, 72, 0
8, 30630, Note_on_c, 6, 74, 100
8, 30659, Note_on_c, 6, 74, 0
8, 30660, Note_on_c, 6, 75, 100
8, 30719, Note_on_c, 6, 75, 0
8, 30720, Note_on_c, 6, 65, 100
8, 30779, Note_on_c, 6, 65, 0
8, 30780, Note_on_c, 6, 70, 100
8, 30809, Note_on_c, 6, 70, 0
8, 30810, Note_on_c, 6, 72, 100
8, 30839, Note_on_c, 6, 72, 0
8, 30840, Note_on_c, 6, 74, 100
8, 30869, Note_on_c, 6, 74, 0
8, 30870, Note_on_c, 6, 72, 100
8, 30899, Note_on_c, 6, 72, 0
8, 30900, Note_on_c, 6, 74, 100
8, 30929, Note_on_c, 6, 74, 0
8, 30930, Note_on_c, 6, 72, 100
8, 30959, Note_on_c, 6, 72, 0
8, 30960, Note_on_c, 6, 70, 100
8, 30989, Note_on_c, 6, 70, 0
8, 30990, Note_on_c, 6, 67, 100
8, 31019, Note_on_c, 6, 67, 0
8, 31020, Note_on_c, 6, 70, 100
8, 31049, Note_on_c, 6, 70, 0
8, 31050, Note_on_c, 6, 72, 100
8, 31079, Note_on_c, 6, 72, 0
8, 31080, Note_on_c, 6, 74, 100
8, 31109, Note_on_c, 6, 74, 0
8, 31110, Note_on_c, 6, 72, 100
8, 31139, Note_on_c, 6, 72, 0
8, 31140, Note_on_c, 6, 74, 100
8, 31169, Note_on_c, 6, 74, 0
8, 31170, Note_on_c, 6, 72, 100
8, 31199, Note_on_c, 6, 72, 0
8, 31200, Note_on_c, 6, 70, 100
8, 31229, Note_on_c, 6, 70, 0
8, 31230, Note_on_c, 6, 65, 100
8, 31259, Note_on_c, 6, 65, 0
8, 31260, Note_on_c, 6, 70, 100
8, 31289, Note_on_c, 6, 70, 0
8, 31290, Note_on_c, 6, 72, 100
8, 31319, Note_on_c, 6, 72, 0
8, 31320, Note_on_c, 6, 74, 100
8, 31349, Note_on_c, 6, 74, 0
8, 31350, Note_on_c, 6, 72, 100
8, 31379, Note_on_c, 6, 72, 0
8, 31380, Note_on_c, 6, 74, 100
8, 31409, Note_on_c, 6, 74, 0
8, 31410, Note_on_c, 6, 72, 100
8, 31439, Note_on_c, 6, 72, 0
8, 31440, Note_on_c, 6, 70, 100
8, 31469, Note_on_c, 6, 70, 0
8, 31470, Note_on_c, 6, 68, 100
8, 31499, Note_on_c, 6, 68, 0
8, 31500, Note_on_c, 6, 67, 100
8, 31529, Note_on_c, 6, 67, 0
8, 31530, Note_on_c, 6, 65, 100
8, 31559, Note_on_c, 6, 65, 0
8, 31560, Note_on_c, 6, 63, 100
8, 31619, Note_on_c, 6, 63, 0
8, 31620, Note_on_c, 6, 63, 100
8, 31679, Note_on_c, 6, 63, 0
8, 31680, Note_on_c, 6, 63, 100
8, 31799, Note_on_c, 6, 63, 0
8, 31830, Note_on_c, 6, 62, 100
8, 31859, Note_on_c, 6, 62, 0
8, 31860, Note_on_c, 6, 63, 100
8, 31889, Note_on_c, 6, 63, 0
8, 31890, Note_on_c, 6, 67, 100
8, 31919, Note_on_c, 6, 67, 0
8, 31920, Note_on_c, 6, 72, 100
8, 31949, Note_on_c, 6, 72, 0
8, 31950, Note_on_c, 6, 70, 100
8, 31979, Note_on_c, 6, 70, 0
8, 31980, Note_on_c, 6, 69, 100
8, 32009, Note_on_c, 6, 69, 0
8, 32010, Note_on_c, 6, 67, 100
8, 32039, Note_on_c, 6, 67, 0
8, 32040, Note_on_c, 6, 65, 100
8, 32069, Note_on_c, 6, 65, 0
8, 32070, Note_on_c, 6, 63, 100
8, 32099, Note_on_c, 6, 63, 0
8, 32100, Note_on_c, 6, 62, 100
8, 32129, Note_on_c, 6, 62, 0
8, 32130, Note_on_c, 6, 63, 100
8, 32159, Note_on_c, 6, 63, 0
8, 32160, Note_on_c, 6, 63, 100
8, 32279, Note_on_c, 6, 63, 0
8, 32310, Note_on_c, 6, 65, 100
8, 32339, Note_on_c, 6, 65, 0
8, 32340, Note_on_c, 6, 69, 100
8, 32369, Note_on_c, 6, 69, 0
8, 32370, Note_on_c, 6, 72, 100
8, 32399, Note_on_c, 6, 72, 0
8, 32400, Note_on_c, 6, 74, 100
8, 32429, Note_on_c, 6, 74, 0
8, 32430, Note_on_c, 6, 72, 100
8, 32459, Note_on_c, 6, 72, 0
8, 32460, Note_on_c, 6, 75, 100
8, 32489, Note_on_c, 6, 75, 0
8, 32490, Note_on_c, 6, 74, 100
8, 32519, Note_on_c, 6, 74, 0
8, 32520, Note_on_c, 6, 79, 100
8, 32549, Note_on_c, 6, 79, 0
8, 32550, Note_on_c, 6, 77, 100
8, 32579, Note_on_c, 6, 77, 0
8, 32580, Note_on_c, 6, 75, 100
8, 32609, Note_on_c, 6, 75, 0
8, 32610, Note_on_c, 6, 74, 100
8, 32639, Note_on_c, 6, 74, 0
8, 32640, Note_on_c, 6, 72, 100
8, 32669, Note_on_c, 6, 72, 0
8, 32670, Note_on_c, 6, 70, 100
8, 32699, Note_on_c, 6, 70, 0
8, 32700, Note_on_c, 6, 69, 100
8, 32729, Note_on_c, 6, 69, 0
8, 32730, Note_on_c, 6, 67, 100
8, 32759, Note_on_c, 6, 67, 0
8, 32760, Note_on_c, 6, 65, 100
8, 32789, Note_on_c, 6, 65, 0
8, 32790, Note_on_c, 6, 63, 100
8, 32819, Note_on_c, 6, 63, 0
8, 32820, Note_on_c, 6, 62, 100
8, 32849, Note_on_c, 6, 62, 0
8, 32850, Note_on_c, 6, 60, 100
8, 32879, Note_on_c, 6, 60, 0
8, 32880, Note_on_c, 6, 62, 100
8, 32939, Note_on_c, 6, 62, 0
8, 32940, Note_on_c, 6, 70, 100
8, 32999, Note_on_c, 6, 70, 0
8, 33000, Note_on_c, 6, 60, 100
8, 33059, Note_on_c, 6, 60, 0
8, 33060, Note_on_c, 6, 69, 100
8, 33119, Note_on_c, 6, 69, 0
8, 33120, Note_on_c, 6, 70, 100
8, 33149, Note_on_c, 6, 70, 0
8, 33150, Note_on_c, 6, 69, 100
8, 33179, Note_on_c, 6, 69, 0
8, 33180, Note_on_c, 6, 67, 100
8, 33209, Note_on_c, 6, 67, 0
8, 33210, Note_on_c, 6, 65, 100
8, 33239, Note_on_c, 6, 65, 0
8, 33240, Note_on_c, 6, 64, 100
8, 33299, Note_on_c, 6, 64, 0
8, 33300, Note_on_c, 6, 73, 100
8, 33419, Note_on_c, 6, 73, 0
8, 33420, Note_on_c, 6, 72, 100
8, 33449, Note_on_c, 6, 72, 0
8, 33450, Note_on_c, 6, 70, 100
8, 33479, Note_on_c, 6, 70, 0
8, 33480, Note_on_c, 6, 69, 100
8, 33495, Note_on_c, 6, 69, 0
8, 33495, Note_on_c, 6, 70, 100
8, 33510, Note_on_c, 6, 70, 0
8, 33510, Note_on_c, 6, 69, 100
8, 33570, Note_on_c, 6, 69, 0
8, 33570, Note_on_c, 6, 70, 100
8, 33599, Note_on_c, 6, 70, 0
8, 33600, Note_on_c, 6, 70, 100
8, 33719, Note_on_c, 6, 70, 0
8, 34440, Note_on_c, 6, 79, 100
8, 34499, Note_on_c, 6, 79, 0
8, 34500, Note_on_c, 6, 72, 100
8, 34559, Note_on_c, 6, 72, 0
8, 35400, Note_on_c, 6, 77, 100
8, 35459, Note_on_c, 6, 77, 0
8, 35460, Note_on_c, 6, 70, 100
8, 35519, Note_on_c, 6, 70, 0
8, 35520, Note_on_c, 6, 76, 100
8, 35579, Note_on_c, 6, 76, 0
8, 35580, Note_on_c, 6, 70, 100
8, 35609, Note_on_c, 6, 70, 0
8, 35610, Note_on_c, 6, 72, 100
8, 35639, Note_on_c, 6, 72, 0
8, 35640, Note_on_c, 6, 73, 100
8, 35699, Note_on_c, 6, 73, 0
8, 35700, Note_on_c, 6, 76, 100
8, 35759, Note_on_c, 6, 76, 0
8, 35760, Note_on_c, 6, 77, 100
8, 35819, Note_on_c, 6, 77, 0
8, 35820, Note_on_c, 6, 68, 100
8, 35849, Note_on_c, 6, 68, 0
8, 35850, Note_on_c, 6, 70, 100
8, 35879, Note_on_c, 6, 70, 0
8, 35880, Note_on_c, 6, 72, 100
8, 35939, Note_on_c, 6, 72, 0
8, 35940, Note_on_c, 6, 77, 100
8, 35999, Note_on_c, 6, 77, 0
8, 36000, Note_on_c, 6, 79, 100
8, 36059, Note_on_c, 6, 79, 0
8, 36060, Note_on_c, 6, 67, 100
8, 36089, Note_on_c, 6, 67, 0
8, 36090, Note_on_c, 6, 68, 100
8, 36119, Note_on_c, 6, 68, 0
8, 36120, Note_on_c, 6, 70, 100
8, 36179, Note_on_c, 6, 70, 0
8, 36180, Note_on_c, 6, 79, 100
8, 36239, Note_on_c, 6, 79, 0
8, 36240, Note_on_c, 6, 80, 100
8, 36299, Note_on_c, 6, 80, 0
8, 36300, Note_on_c, 6, 65, 100
8, 36329, Note_on_c, 6, 65, 0
8, 36330, Note_on_c, 6, 67, 100
8, 36359, Note_on_c, 6, 67, 0
8, 36360, Note_on_c, 6, 68, 100
8, 36419, Note_on_c, 6, 68, 0
8, 36420, Note_on_c, 6, 80, 100
8, 36479, Note_on_c, 6, 80, 0
8, 36480, Note_on_c, 6, 70, 100
8, 36499, Note_on_c, 6, 70, 0
8, 36500, Note_on_c, 6, 72, 100
8, 36519, Note_on_c, 6, 72, 0
8, 36520, Note_on_c, 6, 70, 100
8, 36539, Note_on_c, 6, 70, 0
8, 36540, Note_on_c, 6, 72, 100
8, 36554, Note_on_c, 6, 72, 0
8, 36555, Note_on_c, 6, 70, 100
8, 36569, Note_on_c, 6, 70, 0
8, 36570, Note_on_c, 6, 72, 100
8, 36584, Note_on_c, 6, 72, 0
8, 36585, Note_on_c, 6, 70, 100
8, 36599, Note_on_c, 6, 70, 0
8, 36600, Note_on_c, 6, 72, 100
8, 36614, Note_on_c, 6, 72, 0
8, 36615, Note_on_c, 6, 70, 100
8, 36629, Note_on_c, 6, 70, 0
8, 36630, Note_on_c, 6, 72, 100
8, 36644, Note_on_c, 6, 72, 0
8, 36645, Note_on_c, 6, 70, 100
8, 36659, Note_on_c, 6, 70, 0
8, 36660, Note_on_c, 6, 72, 100
8, 36674, Note_on_c, 6, 72, 0
8, 36675, Note_on_c, 6, 70, 100
8, 36689, Note_on_c, 6, 70, 0
8, 36690, Note_on_c, 6, 72, 100
8, 36704, Note_on_c, 6, 72, 0
8, 36705, Note_on_c, 6, 70, 100
8, 36719, Note_on_c, 6, 70, 0
8, 36720, Note_on_c, 6, 72, 100
8, 36734, Note_on_c, 6, 72, 0
8, 36735, Note_on_c, 6, 70, 100
8, 36749, Note_on_c, 6, 70, 0
8, 36750, Note_on_c, 6, 72, 100
8, 36764, Note_on_c, 6, 72, 0
8, 36765, Note_on_c, 6, 70, 100
8, 36779, Note_on_c, 6, 70, 0
8, 36780, Note_on_c, 6, 72, 100
8, 36794, Note_on_c, 6, 72, 0
8, 36795, Note_on_c, 6, 70, 100
8, 36809, Note_on_c, 6, 70, 0
8, 36810, Note_on_c, 6, 72, 100
8, 36824, Note_on_c, 6, 72, 0
8, 36825, Note_on_c, 6, 70, 100
8, 36839, Note_on_c, 6, 70, 0
8, 36840, Note_on_c, 6, 72, 100
8, 36854, Note_on_c, 6, 72, 0
8, 36855, Note_on_c, 6, 70, 100
8, 36869, Note_on_c, 6, 70, 0
8, 36870, Note_on_c, 6, 72, 100
8, 36884, Note_on_c, 6, 72, 0
8, 36885, Note_on_c, 6, 70, 100
8, 36899, Note_on_c, 6, 70, 0
8, 36900, Note_on_c, 6, 72, 100
8, 36914, Note_on_c, 6, 72, 0
8, 36915, Note_on_c, 6, 70, 100
8, 36929, Note_on_c, 6, 70, 0
8, 36930, Note_on_c, 6, 72, 100
8, 36944, Note_on_c, 6, 72, 0
8, 36945, Note_on_c, 6, 70, 100
8, 36959, Note_on_c, 6, 70, 0
8, 36960, Note_on_c, 6, 72, 100
8, 36974, Note_on_c, 6, 72, 0
8, 36975, Note_on_c, 6, 70, 100
8, 36989, Note_on_c, 6, 70, 0
8, 36990, Note_on_c, 6, 67, 100
8, 37019, Note_on_c, 6, 67, 0
8, 37020, Note_on_c, 6, 68, 100
8, 37049, Note_on_c, 6, 68, 0
8, 37050, Note_on_c, 6, 72, 100
8, 37079, Note_on_c, 6, 72, 0
8, 37080, Note_on_c, 6, 77, 100
8, 37109, Note_on_c, 6, 77, 0
8, 37110, Note_on_c, 6, 80, 100
8, 37139, Note_on_c, 6, 80, 0
8, 37140, Note_on_c, 6, 79, 100
8, 37169, Note_on_c, 6, 79, 0
8, 37170, Note_on_c, 6, 77, 100
8, 37199, Note_on_c, 6, 77, 0
8, 37200, Note_on_c, 6, 79, 100
8, 37229, Note_on_c, 6, 79, 0
8, 37230, Note_on_c, 6, 77, 100
8, 37259, Note_on_c, 6, 77, 0
8, 37260, Note_on_c, 6, 76, 100
8, 37289, Note_on_c, 6, 76, 0
8, 37290, Note_on_c, 6, 74, 100
8, 37319, Note_on_c, 6, 74, 0
8, 37320, Note_on_c, 6, 72, 100
8, 37499, Note_on_c, 6, 72, 0
8, 37500, Note_on_c, 6, 73, 100
8, 37559, Note_on_c, 6, 73, 0
8, 37560, Note_on_c, 6, 72, 100
8, 37619, Note_on_c, 6, 72, 0
8, 37620, Note_on_c, 6, 70, 100
8, 37679, Note_on_c, 6, 70, 0
8, 37680, Note_on_c, 6, 72, 100
8, 37739, Note_on_c, 6, 72, 0
8, 37740, Note_on_c, 6, 70, 100
8, 37799, Note_on_c, 6, 70, 0
8, 37800, Note_on_c, 6, 68, 100
8, 37859, Note_on_c, 6, 68, 0
8, 37860, Note_on_c, 6, 67, 100
8, 37919, Note_on_c, 6, 67, 0
8, 37920, Note_on_c, 6, 68, 100
8, 37979, Note_on_c, 6, 68, 0
8, 37980, Note_on_c, 6, 73, 100
8, 38039, Note_on_c, 6, 73, 0
8, 38040, Note_on_c, 6, 72, 100
8, 38099, Note_on_c, 6, 72, 0
8, 38100, Note_on_c, 6, 70, 100
8, 38159, Note_on_c, 6, 70, 0
8, 38160, Note_on_c, 6, 72, 100
8, 38189, Note_on_c, 6, 72, 0
8, 38190, Note_on_c, 6, 70, 100
8, 38219, Note_on_c, 6, 70, 0
8, 38220, Note_on_c, 6, 68, 100
8, 38249, Note_on_c, 6, 68, 0
8, 38250, Note_on_c, 6, 67, 100
8, 38279, Note_on_c, 6, 67, 0
8, 38280, Note_on_c, 6, 65, 100
8, 38339, Note_on_c, 6, 65, 0
8, 38400, Note_on_c, 6, 67, 100
8, 38459, Note_on_c, 6, 67, 0
8, 38460, Note_on_c, 6, 68, 100
8, 38519, Note_on_c, 6, 68, 0
8, 38520, Note_on_c, 6, 70, 100
8, 38579, Note_on_c, 6, 70, 0
8, 38580, Note_on_c, 6, 68, 100
8, 38639, Note_on_c, 6, 68, 0
8, 38640, Note_on_c, 6, 67, 100
8, 38699, Note_on_c, 6, 67, 0
8, 38700, Note_on_c, 6, 73, 100
8, 38759, Note_on_c, 6, 73, 0
8, 38760, Note_on_c, 6, 72, 100
8, 38819, Note_on_c, 6, 72, 0
8, 38820, Note_on_c, 6, 68, 100
8, 38879, Note_on_c, 6, 68, 0
8, 38880, Note_on_c, 6, 64, 100
8, 38939, Note_on_c, 6, 64, 0
8, 38940, Note_on_c, 6, 70, 100
8, 38999, Note_on_c, 6, 70, 0
8, 39000, Note_on_c, 6, 68, 100
8, 39059, Note_on_c, 6, 68, 0
8, 39060, Note_on_c, 6, 65, 100
8, 39119, Note_on_c, 6, 65, 0
8, 39120, Note_on_c, 6, 68, 100
8, 39179, Note_on_c, 6, 68, 0
8, 39180, Note_on_c, 6, 67, 100
8, 39239, Note_on_c, 6, 67, 0
8, 39480, Note_on_c, 6, 80, 100
8, 39539, Note_on_c, 6, 80, 0
8, 39540, Note_on_c, 6, 77, 100
8, 39599, Note_on_c, 6, 77, 0
8, 39720, Note_on_c, 6, 80, 100
8, 39779, Note_on_c, 6, 80, 0
8, 39780, Note_on_c, 6, 75, 100
8, 39839, Note_on_c, 6, 75, 0
8, 39960, Note_on_c, 6, 80, 100
8, 40019, Note_on_c, 6, 80, 0
8, 40020, Note_on_c, 6, 74, 100
8, 40079, Note_on_c, 6, 74, 0
8, 40200, Note_on_c, 6, 79, 100
8, 40259, Note_on_c, 6, 79, 0
8, 40260, Note_on_c, 6, 75, 100
8, 40319, Note_on_c, 6, 75, 0
8, 40440, Note_on_c, 6, 77, 100
8, 40499, Note_on_c, 6, 77, 0
8, 40500, Note_on_c, 6, 74, 100
8, 40559, Note_on_c, 6, 74, 0
8, 40680, Note_on_c, 6, 77, 100
8, 40739, Note_on_c, 6, 77, 0
8, 40740, Note_on_c, 6, 72, 100
8, 40799, Note_on_c, 6, 72, 0
8, 40920, Note_on_c, 6, 77, 100
8, 40979, Note_on_c, 6, 77, 0
8, 40980, Note_on_c, 6, 71, 100
8, 41039, Note_on_c, 6, 71, 0
8, 41160, Note_on_c, 6, 72, 100
8, 41219, Note_on_c, 6, 72, 0
8, 41220, Note_on_c, 6, 65, 100
8, 41279, Note_on_c, 6, 65, 0
8, 41400, Note_on_c, 6, 74, 100
8, 41459, Note_on_c, 6, 74, 0
8, 41460, Note_on_c, 6, 65, 100
8, 41519, Note_on_c, 6, 65, 0
8, 41640, Note_on_c, 6, 75, 100
8, 41699, Note_on_c, 6, 75, 0
8, 41700, Note_on_c, 6, 68, 100
8, 41759, Note_on_c, 6, 68, 0
8, 41880, Note_on_c, 6, 77, 100
8, 41939, Note_on_c, 6, 77, 0
8, 41940, Note_on_c, 6, 68, 100
8, 41999, Note_on_c, 6, 68, 0
8, 42120, Note_on_c, 6, 77, 100
8, 42179, Note_on_c, 6, 77, 0
8, 42180, Note_on_c, 6, 71, 100
8, 42239, Note_on_c, 6, 71, 0
8, 42240, Note_on_c, 6, 67, 100
8, 42299, Note_on_c, 6, 67, 0
8, 42300, Note_on_c, 6, 72, 100
8, 42359, Note_on_c, 6, 72, 0
8, 42360, Note_on_c, 6, 75, 100
8, 42360, Note_on_c, 6, 67, 100
8, 42360, Note_on_c, 6, 72, 100
8, 42419, Note_on_c, 6, 72, 0
8, 42419, Note_on_c, 6, 67, 0
8, 42419, Note_on_c, 6, 75, 0
8, 42420, Note_on_c, 6, 65, 100
8, 42420, Note_on_c, 6, 71, 100
8, 42420, Note_on_c, 6, 74, 100
8, 42479, Note_on_c, 6, 74, 0
8, 42479, Note_on_c, 6, 71, 0
8, 42479, Note_on_c, 6, 65, 0
8, 42480, Note_on_c, 6, 63, 100
8, 42480, Note_on_c, 6, 67, 100
8, 42539, Note_on_c, 6, 67, 0
8, 42539, Note_on_c, 6, 63, 0
8, 42540, Note_on_c, 6, 72, 100
8, 42569, Note_on_c, 6, 72, 0
8, 42570, Note_on_c, 6, 74, 100
8, 42599, Note_on_c, 6, 74, 0
8, 42600, Note_on_c, 6, 75, 100
8, 42600, Note_on_c, 6, 72, 100
8, 42629, Note_on_c, 6, 72, 0
8, 42629, Note_on_c, 6, 75, 0
8, 42630, Note_on_c, 6, 71, 100
8, 42630, Note_on_c, 6, 74, 100
8, 42659, Note_on_c, 6, 74, 0
8, 42659, Note_on_c, 6, 71, 0
8, 42660, Note_on_c, 6, 75, 100
8, 42660, Note_on_c, 6, 72, 100
8, 42689, Note_on_c, 6, 72, 0
8, 42689, Note_on_c, 6, 75, 0
8, 42690, Note_on_c, 6, 74, 100
8, 42690, Note_on_c, 6, 71, 100
8, 42719, Note_on_c, 6, 71, 0
8, 42719, Note_on_c, 6, 74, 0
8, 42720, Note_on_c, 6, 72, 100
8, 42779, Note_on_c, 6, 72, 0
8, 42780, Note_on_c, 6, 74, 100
8, 42809, Note_on_c, 6, 74, 0
8, 42810, Note_on_c, 6, 75, 100
8, 42839, Note_on_c, 6, 75, 0
8, 42840, Note_on_c, 6, 77, 100
8, 42869, Note_on_c, 6, 77, 0
8, 42870, Note_on_c, 6, 79, 100
8, 42899, Note_on_c, 6, 79, 0
8, 42900, Note_on_c, 6, 80, 100
8, 42959, Note_on_c, 6, 80, 0
8, 42960, Note_on_c, 6, 80, 100
8, 43019, Note_on_c, 6, 80, 0
8, 43020, Note_on_c, 6, 74, 100
8, 43079, Note_on_c, 6, 74, 0
8, 43200, Note_on_c, 6, 65, 100
8, 43259, Note_on_c, 6, 65, 0
8, 43260, Note_on_c, 6, 70, 100
8, 43319, Note_on_c, 6, 70, 0
8, 43320, Note_on_c, 6, 70, 100
8, 43320, Note_on_c, 6, 74, 100
8, 43379, Note_on_c, 6, 74, 0
8, 43379, Note_on_c, 6, 70, 0
8, 43380, Note_on_c, 6, 65, 100
8, 43380, Note_on_c, 6, 72, 100
8, 43439, Note_on_c, 6, 72, 0
8, 43439, Note_on_c, 6, 65, 0
8, 43440, Note_on_c, 6, 65, 100
8, 43440, Note_on_c, 6, 62, 100
8, 43499, Note_on_c, 6, 62, 0
8, 43499, Note_on_c, 6, 65, 0
8, 43500, Note_on_c, 6, 70, 100
8, 43529, Note_on_c, 6, 70, 0
8, 43530, Note_on_c, 6, 72, 100
8, 43559, Note_on_c, 6, 72, 0
8, 43560, Note_on_c, 6, 74, 100
8, 43589, Note_on_c, 6, 74, 0
8, 43590, Note_on_c, 6, 72, 100
8, 43619, Note_on_c, 6, 72, 0
8, 43620, Note_on_c, 6, 74, 100
8, 43649, Note_on_c, 6, 74, 0
8, 43650, Note_on_c, 6, 72, 100
8, 43679, Note_on_c, 6, 72, 0
8, 43680, Note_on_c, 6, 70, 100
8, 43739, Note_on_c, 6, 70, 0
8, 43740, Note_on_c, 6, 72, 100
8, 43769, Note_on_c, 6, 72, 0
8, 43770, Note_on_c, 6, 74, 100
8, 43799, Note_on_c, 6, 74, 0
8, 43800, Note_on_c, 6, 75, 100
8, 43829, Note_on_c, 6, 75, 0
8, 43830, Note_on_c, 6, 77, 100
8, 43859, Note_on_c, 6, 77, 0
8, 43860, Note_on_c, 6, 79, 100
8, 43919, Note_on_c, 6, 79, 0
8, 43920, Note_on_c, 6, 79, 100
8, 43979, Note_on_c, 6, 79, 0
8, 43980, Note_on_c, 6, 72, 100
8, 44039, Note_on_c, 6, 72, 0
8, 44160, Note_on_c, 6, 84, 100
8, 44189, Note_on_c, 6, 84, 0
8, 44190, Note_on_c, 6, 82, 100
8, 44219, Note_on_c, 6, 82, 0
8, 44220, Note_on_c, 6, 80, 100
8, 44249, Note_on_c, 6, 80, 0
8, 44250, Note_on_c, 6, 79, 100
8, 44279, Note_on_c, 6, 79, 0
8, 44280, Note_on_c, 6, 77, 100
8, 44339, Note_on_c, 6, 77, 0
8, 44340, Note_on_c, 6, 77, 100
8, 44399, Note_on_c, 6, 77, 0
8, 44400, Note_on_c, 6, 77, 100
8, 44519, Note_on_c, 6, 77, 0
8, 44550, Note_on_c, 6, 72, 100
8, 44579, Note_on_c, 6, 72, 0
8, 44580, Note_on_c, 6, 77, 100
8, 44609, Note_on_c, 6, 77, 0
8, 44610, Note_on_c, 6, 79, 100
8, 44639, Note_on_c, 6, 79, 0
8, 44640, Note_on_c, 6, 80, 100
8, 44669, Note_on_c, 6, 80, 0
8, 44670, Note_on_c, 6, 79, 100
8, 44699, Note_on_c, 6, 79, 0
8, 44700, Note_on_c, 6, 77, 100
8, 44729, Note_on_c, 6, 77, 0
8, 44730, Note_on_c, 6, 75, 100
8, 44759, Note_on_c, 6, 75, 0
8, 44760, Note_on_c, 6, 73, 100
8, 44819, Note_on_c, 6, 73, 0
8, 44820, Note_on_c, 6, 73, 100
8, 44879, Note_on_c, 6, 73, 0
8, 44880, Note_on_c, 6, 73, 100
8, 44999, Note_on_c, 6, 73, 0
8, 45030, Note_on_c, 6, 68, 100
8, 45059, Note_on_c, 6, 68, 0
8, 45060, Note_on_c, 6, 73, 100
8, 45089, Note_on_c, 6, 73, 0
8, 45090, Note_on_c, 6, 75, 100
8, 45119, Note_on_c, 6, 75, 0
8, 45120, Note_on_c, 6, 77, 100
8, 45149, Note_on_c, 6, 77, 0
8, 45150, Note_on_c, 6, 79, 100
8, 45179, Note_on_c, 6, 79, 0
8, 45180, Note_on_c, 6, 80, 100
8, 45209, Note_on_c, 6, 80, 0
8, 45210, Note_on_c, 6, 79, 100
8, 45239, Note_on_c, 6, 79, 0
8, 45240, Note_on_c, 6, 77, 100
8, 45269, Note_on_c, 6, 77, 0
8, 45270, Note_on_c, 6, 75, 100
8, 45299, Note_on_c, 6, 75, 0
8, 45300, Note_on_c, 6, 74, 100
8, 45329, Note_on_c, 6, 74, 0
8, 45330, Note_on_c, 6, 72, 100
8, 45359, Note_on_c, 6, 72, 0
8, 45360, Note_on_c, 6, 71, 100
8, 45419, Note_on_c, 6, 71, 0
8, 45420, Note_on_c, 6, 79, 100
8, 45479, Note_on_c, 6, 79, 0
8, 45480, Note_on_c, 6, 72, 100
8, 45539, Note_on_c, 6, 72, 0
8, 45540, Note_on_c, 6, 77, 100
8, 45599, Note_on_c, 6, 77, 0
8, 45600, Note_on_c, 6, 75, 100
8, 45689, Note_on_c, 6, 75, 0
8, 45690, Note_on_c, 6, 74, 100
8, 45719, Note_on_c, 6, 74, 0
8, 45720, Note_on_c, 6, 74, 100
8, 45735, Note_on_c, 6, 74, 0
8, 45735, Note_on_c, 6, 75, 100
8, 45750, Note_on_c, 6, 75, 0
8, 45750, Note_on_c, 6, 74, 100
8, 45810, Note_on_c, 6, 74, 0
8, 45810, Note_on_c, 6, 72, 100
8, 45839, Note_on_c, 6, 72, 0
8, 45840, Note_on_c, 6, 72, 100
8, 45900, Note_on_c, 6, 72, 0
8, 45900, Note_on_c, 6, 66, 100
8, 45929, Note_on_c, 6, 66, 0
8, 45930, Note_on_c, 6, 67, 100
8, 45959, Note_on_c, 6, 67, 0
8, 45960, Note_on_c, 6, 69, 100
8, 45989, Note_on_c, 6, 69, 0
8, 45990, Note_on_c, 6, 70, 100
8, 46019, Note_on_c, 6, 70, 0
8, 46020, Note_on_c, 6, 72, 100
8, 46079, Note_on_c, 6, 72, 0
8, 46080, Note_on_c, 6, 72, 100
8, 46139, Note_on_c, 6, 72, 0
8, 46140, Note_on_c, 6, 66, 100
8, 46199, Note_on_c, 6, 66, 0
8, 46320, Note_on_c, 6, 66, 100
8, 46349, Note_on_c, 6, 66, 0
8, 46350, Note_on_c, 6, 67, 100
8, 46379, Note_on_c, 6, 67, 0
8, 46380, Note_on_c, 6, 69, 100
8, 46409, Note_on_c, 6, 69, 0
8, 46410, Note_on_c, 6, 70, 100
8, 46439, Note_on_c, 6, 70, 0
8, 46440, Note_on_c, 6, 72, 100
8, 46469, Note_on_c, 6, 72, 0
8, 46470, Note_on_c, 6, 74, 100
8, 46499, Note_on_c, 6, 74, 0
8, 46500, Note_on_c, 6, 75, 100
8, 46559, Note_on_c, 6, 75, 0
8, 46560, Note_on_c, 6, 75, 100
8, 46619, Note_on_c, 6, 75, 0
8, 46620, Note_on_c, 6, 69, 100
8, 46679, Note_on_c, 6, 69, 0
8, 46680, Note_on_c, 6, 72, 100
8, 46739, Note_on_c, 6, 72, 0
8, 46740, Note_on_c, 6, 66, 100
8, 46799, Note_on_c, 6, 66, 0
8, 46800, Note_on_c, 6, 69, 100
8, 46859, Note_on_c, 6, 69, 0
8, 46860, Note_on_c, 6, 72, 100
8, 46889, Note_on_c, 6, 72, 0
8, 46890, Note_on_c, 6, 75, 100
8, 46919, Note_on_c, 6, 75, 0
8, 46920, Note_on_c, 6, 74, 100
8, 46949, Note_on_c, 6, 74, 0
8, 46950, Note_on_c, 6, 72, 100
8, 46979, Note_on_c, 6, 72, 0
8, 46980, Note_on_c, 6, 70, 100
8, 47009, Note_on_c, 6, 70, 0
8, 47010, Note_on_c, 6, 69, 100
8, 47039, Note_on_c, 6, 69, 0
8, 47040, Note_on_c, 6, 71, 100
8, 47099, Note_on_c, 6, 71, 0
8, 47100, Note_on_c, 6, 67, 100
8, 47159, Note_on_c, 6, 67, 0
8, 47760, Note_on_c, 6, 67, 100
8, 47789, Note_on_c, 6, 67, 0
8, 47790, Note_on_c, 6, 69, 100
8, 47819, Note_on_c, 6, 69, 0
8, 47820, Note_on_c, 6, 71, 100
8, 47849, Note_on_c, 6, 71, 0
8, 47850, Note_on_c, 6, 72, 100
8, 47879, Note_on_c, 6, 72, 0
8, 47880, Note_on_c, 6, 74, 100
8, 47909, Note_on_c, 6, 74, 0
8, 47910, Note_on_c, 6, 75, 100
8, 47939, Note_on_c, 6, 75, 0
8, 47940, Note_on_c, 6, 77, 100
8, 47999, Note_on_c, 6, 77, 0
8, 48000, Note_on_c, 6, 77, 100
8, 48059, Note_on_c, 6, 77, 0
8, 48060, Note_on_c, 6, 71, 100
8, 48119, Note_on_c, 6, 71, 0
8, 48240, Note_on_c, 6, 71, 100
8, 48269, Note_on_c, 6, 71, 0
8, 48270, Note_on_c, 6, 72, 100
8, 48299, Note_on_c, 6, 72, 0
8, 48300, Note_on_c, 6, 74, 100
8, 48329, Note_on_c, 6, 74, 0
8, 48330, Note_on_c, 6, 75, 100
8, 48359, Note_on_c, 6, 75, 0
8, 48360, Note_on_c, 6, 77, 100
8, 48389, Note_on_c, 6, 77, 0
8, 48390, Note_on_c, 6, 79, 100
8, 48419, Note_on_c, 6, 79, 0
8, 48420, Note_on_c, 6, 80, 100
8, 48479, Note_on_c, 6, 80, 0
8, 48480, Note_on_c, 6, 80, 100
8, 48539, Note_on_c, 6, 80, 0
8, 48540, Note_on_c, 6, 74, 100
8, 48599, Note_on_c, 6, 74, 0
8, 48600, Note_on_c, 6, 77, 100
8, 48659, Note_on_c, 6, 77, 0
8, 48660, Note_on_c, 6, 71, 100
8, 48719, Note_on_c, 6, 71, 0
8, 48720, Note_on_c, 6, 74, 100
8, 48779, Note_on_c, 6, 74, 0
8, 48780, Note_on_c, 6, 65, 100
8, 48809, Note_on_c, 6, 65, 0
8, 48810, Note_on_c, 6, 68, 100
8, 48839, Note_on_c, 6, 68, 0
8, 48840, Note_on_c, 6, 67, 100
8, 48869, Note_on_c, 6, 67, 0
8, 48870, Note_on_c, 6, 65, 100
8, 48899, Note_on_c, 6, 65, 0
8, 48900, Note_on_c, 6, 63, 100
8, 48929, Note_on_c, 6, 63, 0
8, 48930, Note_on_c, 6, 62, 100
8, 48959, Note_on_c, 6, 62, 0
8, 48960, Note_on_c, 6, 63, 100
8, 49019, Note_on_c, 6, 63, 0
8, 49020, Note_on_c, 6, 60, 100
8, 49079, Note_on_c, 6, 60, 0
8, 49200, Note_on_c, 6, 80, 100
8, 49219, Note_on_c, 6, 80, 0
8, 49220, Note_on_c, 6, 79, 100
8, 49239, Note_on_c, 6, 79, 0
8, 49240, Note_on_c, 6, 80, 100
8, 49259, Note_on_c, 6, 80, 0
8, 49260, Note_on_c, 6, 79, 100
8, 49274, Note_on_c, 6, 79, 0
8, 49275, Note_on_c, 6, 80, 100
8, 49289, Note_on_c, 6, 80, 0
8, 49290, Note_on_c, 6, 79, 100
8, 49304, Note_on_c, 6, 79, 0
8, 49305, Note_on_c, 6, 80, 100
8, 49319, Note_on_c, 6, 80, 0
8, 49320, Note_on_c, 6, 79, 100
8, 49334, Note_on_c, 6, 79, 0
8, 49335, Note_on_c, 6, 80, 100
8, 49349, Note_on_c, 6, 80, 0
8, 49350, Note_on_c, 6, 79, 100
8, 49364, Note_on_c, 6, 79, 0
8, 49365, Note_on_c, 6, 80, 100
8, 49379, Note_on_c, 6, 80, 0
8, 49380, Note_on_c, 6, 79, 100
8, 49394, Note_on_c, 6, 79, 0
8, 49395, Note_on_c, 6, 80, 100
8, 49409, Note_on_c, 6, 80, 0
8, 49410, Note_on_c, 6, 79, 100
8, 49424, Note_on_c, 6, 79, 0
8, 49425, Note_on_c, 6, 80, 100
8, 49439, Note_on_c, 6, 80, 0
8, 49440, Note_on_c, 6, 79, 100
8, 49454, Note_on_c, 6, 79, 0
8, 49455, Note_on_c, 6, 80, 100
8, 49469, Note_on_c, 6, 80, 0
8, 49470, Note_on_c, 6, 72, 100
8, 49499, Note_on_c, 6, 72, 0
8, 49500, Note_on_c, 6, 74, 100
8, 49529, Note_on_c, 6, 74, 0
8, 49530, Note_on_c, 6, 75, 100
8, 49559, Note_on_c, 6, 75, 0
8, 49560, Note_on_c, 6, 77, 100
8, 49589, Note_on_c, 6, 77, 0
8, 49590, Note_on_c, 6, 79, 100
8, 49619, Note_on_c, 6, 79, 0
8, 49620, Note_on_c, 6, 80, 100
8, 49649, Note_on_c, 6, 80, 0
8, 49650, Note_on_c, 6, 77, 100
8, 49679, Note_on_c, 6, 77, 0
8, 49680, Note_on_c, 6, 74, 100
8, 49709, Note_on_c, 6, 74, 0
8, 49710, Note_on_c, 6, 72, 100
8, 49739, Note_on_c, 6, 72, 0
8, 49740, Note_on_c, 6, 74, 100
8, 49769, Note_on_c, 6, 74, 0
8, 49770, Note_on_c, 6, 77, 100
8, 49799, Note_on_c, 6, 77, 0
8, 49800, Note_on_c, 6, 80, 100
8, 49859, Note_on_c, 6, 80, 0
8, 49860, Note_on_c, 6, 74, 100
8, 49919, Note_on_c, 6, 74, 0
8, 50160, Note_on_c, 6, 77, 100
8, 50179, Note_on_c, 6, 77, 0
8, 50180, Note_on_c, 6, 79, 100
8, 50199, Note_on_c, 6, 79, 0
8, 50200, Note_on_c, 6, 77, 100
8, 50219, Note_on_c, 6, 77, 0
8, 50220, Note_on_c, 6, 79, 100
8, 50234, Note_on_c, 6, 79, 0
8, 50235, Note_on_c, 6, 77, 100
8, 50249, Note_on_c, 6, 77, 0
8, 50250, Note_on_c, 6, 79, 100
8, 50264, Note_on_c, 6, 79, 0
8, 50265, Note_on_c, 6, 77, 100
8, 50279, Note_on_c, 6, 77, 0
8, 50280, Note_on_c, 6, 79, 100
8, 50294, Note_on_c, 6, 79, 0
8, 50295, Note_on_c, 6, 77, 100
8, 50309, Note_on_c, 6, 77, 0
8, 50310, Note_on_c, 6, 79, 100
8, 50324, Note_on_c, 6, 79, 0
8, 50325, Note_on_c, 6, 77, 100
8, 50339, Note_on_c, 6, 77, 0
8, 50340, Note_on_c, 6, 79, 100
8, 50354, Note_on_c, 6, 79, 0
8, 50355, Note_on_c, 6, 77, 100
8, 50369, Note_on_c, 6, 77, 0
8, 50370, Note_on_c, 6, 79, 100
8, 50384, Note_on_c, 6, 79, 0
8, 50385, Note_on_c, 6, 77, 100
8, 50399, Note_on_c, 6, 77, 0
8, 50400, Note_on_c, 6, 79, 100
8, 50414, Note_on_c, 6, 79, 0
8, 50415, Note_on_c, 6, 77, 100
8, 50429, Note_on_c, 6, 77, 0
8, 50430, Note_on_c, 6, 70, 100
8, 50459, Note_on_c, 6, 70, 0
8, 50460, Note_on_c, 6, 72, 100
8, 50489, Note_on_c, 6, 72, 0
8, 50490, Note_on_c, 6, 74, 100
8, 50519, Note_on_c, 6, 74, 0
8, 50520, Note_on_c, 6, 75, 100
8, 50549, Note_on_c, 6, 75, 0
8, 50550, Note_on_c, 6, 77, 100
8, 50579, Note_on_c, 6, 77, 0
8, 50580, Note_on_c, 6, 79, 100
8, 50609, Note_on_c, 6, 79, 0
8, 50610, Note_on_c, 6, 75, 100
8, 50639, Note_on_c, 6, 75, 0
8, 50640, Note_on_c, 6, 72, 100
8, 50669, Note_on_c, 6, 72, 0
8, 50670, Note_on_c, 6, 71, 100
8, 50699, Note_on_c, 6, 71, 0
8, 50700, Note_on_c, 6, 72, 100
8, 50729, Note_on_c, 6, 72, 0
8, 50730, Note_on_c, 6, 75, 100
8, 50759, Note_on_c, 6, 75, 0
8, 50760, Note_on_c, 6, 79, 100
8, 50819, Note_on_c, 6, 79, 0
8, 50820, Note_on_c, 6, 72, 100
8, 50879, Note_on_c, 6, 72, 0
8, 50880, Note_on_c, 6, 84, 100
8, 50909, Note_on_c, 6, 84, 0
8, 50910, Note_on_c, 6, 82, 100
8, 50939, Note_on_c, 6, 82, 0
8, 50940, Note_on_c, 6, 80, 100
8, 50969, Note_on_c, 6, 80, 0
8, 50970, Note_on_c, 6, 79, 100
8, 50999, Note_on_c, 6, 79, 0
8, 51000, Note_on_c, 6, 77, 100
8, 51059, Note_on_c, 6, 77, 0
8, 51060, Note_on_c, 6, 77, 100
8, 51119, Note_on_c, 6, 77, 0
8, 51120, Note_on_c, 6, 77, 100
8, 51270, Note_on_c, 6, 77, 0
8, 51270, Note_on_c, 6, 72, 100
8, 51299, Note_on_c, 6, 72, 0
8, 51300, Note_on_c, 6, 77, 100
8, 51329, Note_on_c, 6, 77, 0
8, 51330, Note_on_c, 6, 79, 100
8, 51359, Note_on_c, 6, 79, 0
8, 51360, Note_on_c, 6, 80, 100
8, 51389, Note_on_c, 6, 80, 0
8, 51390, Note_on_c, 6, 79, 100
8, 51419, Note_on_c, 6, 79, 0
8, 51420, Note_on_c, 6, 77, 100
8, 51449, Note_on_c, 6, 77, 0
8, 51450, Note_on_c, 6, 75, 100
8, 51479, Note_on_c, 6, 75, 0
8, 51480, Note_on_c, 6, 73, 100
8, 51539, Note_on_c, 6, 73, 0
8, 51540, Note_on_c, 6, 73, 100
8, 51599, Note_on_c, 6, 73, 0
8, 51600, Note_on_c, 6, 73, 100
8, 51750, Note_on_c, 6, 73, 0
8, 51750, Note_on_c, 6, 68, 100
8, 51779, Note_on_c, 6, 68, 0
8, 51780, Note_on_c, 6, 73, 100
8, 51809, Note_on_c, 6, 73, 0
8, 51810, Note_on_c, 6, 75, 100
8, 51839, Note_on_c, 6, 75, 0
8, 51840, Note_on_c, 6, 77, 100
8, 51869, Note_on_c, 6, 77, 0
8, 51870, Note_on_c, 6, 79, 100
8, 51899, Note_on_c, 6, 79, 0
8, 51900, Note_on_c, 6, 80, 100
8, 51929, Note_on_c, 6, 80, 0
8, 51930, Note_on_c, 6, 79, 100
8, 51959, Note_on_c, 6, 79, 0
8, 51960, Note_on_c, 6, 77, 100
8, 51989, Note_on_c, 6, 77, 0
8, 51990, Note_on_c, 6, 75, 100
8, 52019, Note_on_c, 6, 75, 0
8, 52020, Note_on_c, 6, 74, 100
8, 52049, Note_on_c, 6, 74, 0
8, 52050, Note_on_c, 6, 72, 100
8, 52079, Note_on_c, 6, 72, 0
8, 52080, Note_on_c, 6, 71, 100
8, 52139, Note_on_c, 6, 71, 0
8, 52140, Note_on_c, 6, 79, 100
8, 52199, Note_on_c, 6, 79, 0
8, 52200, Note_on_c, 6, 72, 100
8, 52259, Note_on_c, 6, 72, 0
8, 52260, Note_on_c, 6, 72, 100
8, 52260, Note_on_c, 6, 77, 100
8, 52319, Note_on_c, 6, 77, 0
8, 52319, Note_on_c, 6, 72, 0
8, 52320, Note_on_c, 6, 72, 100
8, 52320, Note_on_c, 6, 75, 100
8, 52409, Note_on_c, 6, 75, 0
8, 52410, Note_on_c, 6, 74, 100
8, 52439, Note_on_c, 6, 74, 0
8, 52440, Note_on_c, 6, 72, 0
8, 52440, Note_on_c, 6, 74, 100
8, 52440, Note_on_c, 6, 71, 100
8, 52455, Note_on_c, 6, 74, 0
8, 52455, Note_on_c, 6, 75, 100
8, 52470, Note_on_c, 6, 75, 0
8, 52470, Note_on_c, 6, 74, 100
8, 52485, Note_on_c, 6, 74, 0
8, 52485, Note_on_c, 6, 75, 100
8, 52500, Note_on_c, 6, 75, 0
8, 52500, Note_on_c, 6, 74, 100
8, 52530, Note_on_c, 6, 74, 0
8, 52530, Note_on_c, 6, 72, 100
8, 52559, Note_on_c, 6, 72, 0
8, 52560, Note_on_c, 6, 71, 0
8, 52560, Note_on_c, 6, 63, 100
8, 52560, Note_on_c, 6, 67, 100
8, 52560, Note_on_c, 6, 72, 100
8, 52799, Note_on_c, 6, 72, 0
8, 52799, Note_on_c, 6, 67, 0
8, 52799, Note_on_c, 6, 63, 0
8, 52860, Note_on_c, 6, 70, 120
8, 53070, Note_on_c, 6, 70, 0
8, 53070, Note_on_c, 6, 72, 100
8, 53100, Note_on_c, 6, 72, 0
8, 53100, Note_on_c, 6, 70, 100
8, 53130, Note_on_c, 6, 70, 0
8, 53130, Note_on_c, 6, 68, 100
8, 53160, Note_on_c, 6, 68, 0
8, 53160, Note_on_c, 6, 70, 100
8, 53190, Note_on_c, 6, 70, 0
8, 53190, Note_on_c, 6, 72, 100
8, 53220, Note_on_c, 6, 72, 0
8, 53220, Note_on_c, 6, 62, 100
8, 53430, Note_on_c, 6, 62, 0
8, 53430, Note_on_c, 6, 60, 100
8, 53460, Note_on_c, 6, 60, 0
8, 53460, Note_on_c, 6, 62, 100
8, 53490, Note_on_c, 6, 62, 0
8, 53490, Note_on_c, 6, 63, 100
8, 53520, Note_on_c, 6, 63, 0
8, 53520, Note_on_c, 6, 65, 100
8, 53550, Note_on_c, 6, 65, 0
8, 53550, Note_on_c, 6, 67, 100
8, 53580, Note_on_c, 6, 67, 0
8, 53580, Note_on_c, 6, 68, 100
8, 53610, Note_on_c, 6, 68, 0
8, 53610, Note_on_c, 6, 72, 100
8, 53640, Note_on_c, 6, 72, 0
8, 53640, Note_on_c, 6, 70, 100
8, 53670, Note_on_c, 6, 70, 0
8, 53670, Note_on_c, 6, 68, 100
8, 53700, Note_on_c, 6, 68, 0
8, 53700, Note_on_c, 6, 77, 100
8, 53790, Note_on_c, 6, 77, 0
8, 53790, Note_on_c, 6, 75, 100
8, 53820, Note_on_c, 6, 75, 0
8, 53820, Note_on_c, 6, 74, 100
8, 53850, Note_on_c, 6, 74, 0
8, 53850, Note_on_c, 6, 72, 100
8, 53880, Note_on_c, 6, 72, 0
8, 53880, Note_on_c, 6, 70, 100
8, 53910, Note_on_c, 6, 70, 0
8, 53910, Note_on_c, 6, 68, 100
8, 53940, Note_on_c, 6, 68, 0
8, 53940, Note_on_c, 6, 67, 100
8, 53970, Note_on_c, 6, 67, 0
8, 53970, Note_on_c, 6, 70, 100
8, 54000, Note_on_c, 6, 70, 0
8, 54000, Note_on_c, 6, 75, 100
8, 54030, Note_on_c, 6, 75, 0
8, 54030, Note_on_c, 6, 77, 100
8, 54060, Note_on_c, 6, 77, 0
8, 54060, Note_on_c, 6, 79, 100
8, 54150, Note_on_c, 6, 79, 0
8, 54150, Note_on_c, 6, 82, 100
8, 54180, Note_on_c, 6, 82, 0
8, 54180, Note_on_c, 6, 81, 100
8, 54210, Note_on_c, 6, 81, 0
8, 54210, Note_on_c, 6, 79, 100
8, 54240, Note_on_c, 6, 79, 0
8, 54240, Note_on_c, 6, 77, 100
8, 54270, Note_on_c, 6, 77, 0
8, 54270, Note_on_c, 6, 75, 100
8, 54300, Note_on_c, 6, 75, 0
8, 54300, Note_on_c, 6, 74, 100
8, 54330, Note_on_c, 6, 74, 0
8, 54330, Note_on_c, 6, 77, 100
8, 54360, Note_on_c, 6, 77, 0
8, 54360, Note_on_c, 6, 75, 100
8, 54390, Note_on_c, 6, 75, 0
8, 54390, Note_on_c, 6, 74, 100
8, 54420, Note_on_c, 6, 74, 0
8, 54420, Note_on_c, 6, 72, 100
8, 54450, Note_on_c, 6, 72, 0
8, 54450, Note_on_c, 6, 70, 100
8, 54480, Note_on_c, 6, 70, 0
8, 54480, Note_on_c, 6, 82, 100
8, 54540, Note_on_c, 6, 82, 0
8, 54690, Note_on_c, 6, 72, 100
8, 54720, Note_on_c, 6, 72, 0
8, 54720, Note_on_c, 6, 70, 100
8, 54750, Note_on_c, 6, 70, 0
8, 54750, Note_on_c, 6, 69, 100
8, 54780, Note_on_c, 6, 69, 0
8, 54780, Note_on_c, 6, 67, 100
8, 54810, Note_on_c, 6, 67, 0
8, 54810, Note_on_c, 6, 65, 100
8, 54840, Note_on_c, 6, 65, 0
8, 54840, Note_on_c, 6, 77, 100
8, 54900, Note_on_c, 6, 77, 0
8, 55080, Note_on_c, 6, 60, 100
8, 55140, Note_on_c, 6, 60, 0
8, 55140, Note_on_c, 6, 63, 100
8, 55200, Note_on_c, 6, 63, 0
8, 55200, Note_on_c, 6, 67, 100
8, 55260, Note_on_c, 6, 67, 0
8, 55260, Note_on_c, 6, 72, 100
8, 55440, Note_on_c, 6, 72, 0
8, 55440, Note_on_c, 6, 70, 100
8, 55470, Note_on_c, 6, 70, 0
8, 55470, Note_on_c, 6, 68, 100
8, 55500, Note_on_c, 6, 68, 0
8, 55500, Note_on_c, 6, 67, 100
8, 55530, Note_on_c, 6, 67, 0
8, 55530, Note_on_c, 6, 65, 100
8, 55560, Note_on_c, 6, 65, 0
8, 55560, Note_on_c, 6, 64, 100
8, 55620, Note_on_c, 6, 64, 0
8, 55770, Note_on_c, 6, 72, 100
8, 55800, Note_on_c, 6, 72, 0
8, 55800, Note_on_c, 6, 74, 100
8, 55830, Note_on_c, 6, 74, 0
8, 55830, Note_on_c, 6, 75, 100
8, 55860, Note_on_c, 6, 75, 0
8, 55860, Note_on_c, 6, 77, 100
8, 55950, Note_on_c, 6, 77, 0
8, 55950, Note_on_c, 6, 80, 100
8, 55980, Note_on_c, 6, 80, 0
8, 55980, Note_on_c, 6, 79, 100
8, 56010, Note_on_c, 6, 79, 0
8, 56010, Note_on_c, 6, 77, 100
8, 56040, Note_on_c, 6, 77, 0
8, 56040, Note_on_c, 6, 75, 100
8, 56070, Note_on_c, 6, 75, 0
8, 56070, Note_on_c, 6, 74, 100
8, 56100, Note_on_c, 6, 74, 0
8, 56100, Note_on_c, 6, 75, 100
8, 56220, Note_on_c, 6, 75, 0
8, 56460, Note_on_c, 6, 79, 100
8, 56467, Note_on_c, 6, 80, 100
8, 56468, Note_on_c, 6, 79, 0
8, 56475, Note_on_c, 6, 80, 0
8, 56475, Note_on_c, 6, 79, 100
8, 56670, Note_on_c, 6, 79, 0
8, 56670, Note_on_c, 6, 80, 100
8, 56700, Note_on_c, 6, 80, 0
8, 56700, Note_on_c, 6, 79, 100
8, 56730, Note_on_c, 6, 79, 0
8, 56730, Note_on_c, 6, 77, 100
8, 56760, Note_on_c, 6, 77, 0
8, 56760, Note_on_c, 6, 79, 100
8, 56790, Note_on_c, 6, 79, 0
8, 56790, Note_on_c, 6, 80, 100
8, 56820, Note_on_c, 6, 80, 0
8, 56820, Note_on_c, 6, 71, 100
8, 57030, Note_on_c, 6, 71, 0
8, 57030, Note_on_c, 6, 69, 100
8, 57060, Note_on_c, 6, 69, 0
8, 57060, Note_on_c, 6, 71, 100
8, 57090, Note_on_c, 6, 71, 0
8, 57090, Note_on_c, 6, 72, 100
8, 57120, Note_on_c, 6, 72, 0
8, 57120, Note_on_c, 6, 74, 100
8, 57150, Note_on_c, 6, 74, 0
8, 57150, Note_on_c, 6, 75, 100
8, 57180, Note_on_c, 6, 75, 0
8, 57180, Note_on_c, 6, 77, 100
8, 57210, Note_on_c, 6, 77, 0
8, 57210, Note_on_c, 6, 80, 100
8, 57240, Note_on_c, 6, 80, 0
8, 57240, Note_on_c, 6, 79, 100
8, 57270, Note_on_c, 6, 79, 0
8, 57270, Note_on_c, 6, 77, 100
8, 57300, Note_on_c, 6, 77, 0
8, 57300, Note_on_c, 6, 86, 100
8, 57390, Note_on_c, 6, 86, 0
8, 57390, Note_on_c, 6, 84, 100
8, 57420, Note_on_c, 6, 84, 0
8, 57420, Note_on_c, 6, 83, 100
8, 57450, Note_on_c, 6, 83, 0
8, 57450, Note_on_c, 6, 81, 100
8, 57480, Note_on_c, 6, 81, 0
8, 57480, Note_on_c, 6, 79, 100
8, 57510, Note_on_c, 6, 79, 0
8, 57510, Note_on_c, 6, 77, 100
8, 57540, Note_on_c, 6, 77, 0
8, 57540, Note_on_c, 6, 75, 100
8, 57570, Note_on_c, 6, 75, 0
8, 57570, Note_on_c, 6, 67, 100
8, 57600, Note_on_c, 6, 67, 0
8, 57600, Note_on_c, 6, 65, 100
8, 57630, Note_on_c, 6, 65, 0
8, 57630, Note_on_c, 6, 63, 100
8, 57660, Note_on_c, 6, 63, 0
8, 57660, Note_on_c, 6, 62, 100
8, 57690, Note_on_c, 6, 62, 0
8, 57690, Note_on_c, 6, 60, 100
8, 57720, Note_on_c, 6, 60, 0
8, 57720, Note_on_c, 6, 72, 100
8, 57780, Note_on_c, 6, 72, 0
8, 57930, Note_on_c, 6, 74, 100
8, 57959, Note_on_c, 6, 74, 0
8, 57960, Note_on_c, 6, 72, 100
8, 57989, Note_on_c, 6, 72, 0
8, 57990, Note_on_c, 6, 71, 100
8, 58019, Note_on_c, 6, 71, 0
8, 58020, Note_on_c, 6, 69, 100
8, 58049, Note_on_c, 6, 69, 0
8, 58050, Note_on_c, 6, 67, 100
8, 58079, Note_on_c, 6, 67, 0
8, 58080, Note_on_c, 6, 79, 100
8, 58139, Note_on_c, 6, 79, 0
8, 58320, Note_on_c, 6, 62, 100
8, 58379, Note_on_c, 6, 62, 0
8, 58380, Note_on_c, 6, 65, 100
8, 58439, Note_on_c, 6, 65, 0
8, 58440, Note_on_c, 6, 68, 100
8, 58499, Note_on_c, 6, 68, 0
8, 58500, Note_on_c, 6, 75, 100
8, 58529, Note_on_c, 6, 75, 0
8, 58530, Note_on_c, 6, 74, 100
8, 58649, Note_on_c, 6, 74, 0
8, 58650, Note_on_c, 6, 75, 100
8, 58679, Note_on_c, 6, 75, 0
8, 58680, Note_on_c, 6, 74, 100
8, 58709, Note_on_c, 6, 74, 0
8, 58710, Note_on_c, 6, 72, 100
8, 58739, Note_on_c, 6, 72, 0
8, 58740, Note_on_c, 6, 74, 100
8, 58769, Note_on_c, 6, 74, 0
8, 58770, Note_on_c, 6, 75, 100
8, 58799, Note_on_c, 6, 75, 0
8, 58800, Note_on_c, 6, 72, 100
8, 59009, Note_on_c, 6, 72, 0
8, 59010, Note_on_c, 6, 74, 100
8, 59039, Note_on_c, 6, 74, 0
8, 59040, Note_on_c, 6, 72, 100
8, 59069, Note_on_c, 6, 72, 0
8, 59070, Note_on_c, 6, 71, 100
8, 59099, Note_on_c, 6, 71, 0
8, 59100, Note_on_c, 6, 72, 100
8, 59129, Note_on_c, 6, 72, 0
8, 59130, Note_on_c, 6, 74, 100
8, 59159, Note_on_c, 6, 74, 0
8, 59160, Note_on_c, 6, 75, 100
8, 59369, Note_on_c, 6, 75, 0
8, 59370, Note_on_c, 6, 77, 100
8, 59399, Note_on_c, 6, 77, 0
8, 59400, Note_on_c, 6, 75, 100
8, 59429, Note_on_c, 6, 75, 0
8, 59430, Note_on_c, 6, 74, 100
8, 59459, Note_on_c, 6, 74, 0
8, 59460, Note_on_c, 6, 75, 100
8, 59489, Note_on_c, 6, 75, 0
8, 59490, Note_on_c, 6, 77, 100
8, 59519, Note_on_c, 6, 77, 0
8, 59520, Note_on_c, 6, 79, 100
8, 59549, Note_on_c, 6, 79, 0
8, 59550, Note_on_c, 6, 80, 100
8, 59579, Note_on_c, 6, 80, 0
8, 59580, Note_on_c, 6, 79, 100
8, 59609, Note_on_c, 6, 79, 0
8, 59610, Note_on_c, 6, 77, 100
8, 59639, Note_on_c, 6, 77, 0
8, 59640, Note_on_c, 6, 79, 100
8, 59669, Note_on_c, 6, 79, 0
8, 59670, Note_on_c, 6, 80, 100
8, 59699, Note_on_c, 6, 80, 0
8, 59700, Note_on_c, 6, 75, 100
8, 59879, Note_on_c, 6, 75, 0
8, 59880, Note_on_c, 6, 74, 100
8, 59999, Note_on_c, 6, 74, 0
8, 60000, Note_on_c, 6, 72, 100
8, 60059, Note_on_c, 6, 72, 0
8, 60060, Note_on_c, 6, 72, 100
8, 60089, Note_on_c, 6, 72, 0
8, 60090, Note_on_c, 6, 67, 100
8, 60119, Note_on_c, 6, 67, 0
8, 60120, Note_on_c, 6, 69, 100
8, 60149, Note_on_c, 6, 69, 0
8, 60150, Note_on_c, 6, 71, 100
8, 60179, Note_on_c, 6, 71, 0
8, 60180, Note_on_c, 6, 72, 100
8, 60209, Note_on_c, 6, 72, 0
8, 60210, Note_on_c, 6, 74, 100
8, 60239, Note_on_c, 6, 74, 0
8, 60240, Note_on_c, 6, 75, 100
8, 60269, Note_on_c, 6, 75, 0
8, 60270, Note_on_c, 6, 77, 100
8, 60299, Note_on_c, 6, 77, 0
8, 60300, Note_on_c, 6, 75, 100
8, 60329, Note_on_c, 6, 75, 0
8, 60330, Note_on_c, 6, 74, 100
8, 60359, Note_on_c, 6, 74, 0
8, 60360, Note_on_c, 6, 75, 100
8, 60389, Note_on_c, 6, 75, 0
8, 60390, Note_on_c, 6, 72, 100
8, 60419, Note_on_c, 6, 72, 0
8, 60420, Note_on_c, 6, 69, 100
8, 60479, Note_on_c, 6, 69, 0
8, 60480, Note_on_c, 6, 60, 100
8, 60539, Note_on_c, 6, 60, 0
8, 60540, Note_on_c, 6, 65, 100
8, 60599, Note_on_c, 6, 65, 0
8, 60600, Note_on_c, 6, 69, 100
8, 60659, Note_on_c, 6, 69, 0
8, 60660, Note_on_c, 6, 75, 100
8, 60809, Note_on_c, 6, 75, 0
8, 60810, Note_on_c, 6, 69, 100
8, 60839, Note_on_c, 6, 69, 0
8, 60840, Note_on_c, 6, 70, 100
8, 60869, Note_on_c, 6, 70, 0
8, 60870, Note_on_c, 6, 72, 100
8, 60899, Note_on_c, 6, 72, 0
8, 60900, Note_on_c, 6, 74, 100
8, 60929, Note_on_c, 6, 74, 0
8, 60930, Note_on_c, 6, 75, 100
8, 60959, Note_on_c, 6, 75, 0
8, 60960, Note_on_c, 6, 77, 100
8, 60989, Note_on_c, 6, 77, 0
8, 60990, Note_on_c, 6, 79, 100
8, 61019, Note_on_c, 6, 79, 0
8, 61020, Note_on_c, 6, 77, 100
8, 61049, Note_on_c, 6, 77, 0
8, 61050, Note_on_c, 6, 75, 100
8, 61079, Note_on_c, 6, 75, 0
8, 61080, Note_on_c, 6, 77, 100
8, 61109, Note_on_c, 6, 77, 0
8, 61110, Note_on_c, 6, 74, 100
8, 61139, Note_on_c, 6, 74, 0
8, 61140, Note_on_c, 6, 70, 100
8, 61199, Note_on_c, 6, 70, 0
8, 61200, Note_on_c, 6, 67, 100
8, 61259, Note_on_c, 6, 67, 0
8, 61260, Note_on_c, 6, 70, 100
8, 61319, Note_on_c, 6, 70, 0
8, 61320, Note_on_c, 6, 75, 100
8, 61379, Note_on_c, 6, 75, 0
8, 61380, Note_on_c, 6, 79, 100
8, 61559, Note_on_c, 6, 79, 0
8, 61560, Note_on_c, 6, 69, 100
8, 61619, Note_on_c, 6, 69, 0
8, 61620, Note_on_c, 6, 72, 100
8, 61679, Note_on_c, 6, 72, 0
8, 61680, Note_on_c, 6, 77, 100
8, 61739, Note_on_c, 6, 77, 0
8, 61740, Note_on_c, 6, 75, 100
8, 61889, Note_on_c, 6, 75, 0
8, 61890, Note_on_c, 6, 65, 100
8, 61919, Note_on_c, 6, 65, 0
8, 61920, Note_on_c, 6, 67, 100
8, 61949, Note_on_c, 6, 67, 0
8, 61950, Note_on_c, 6, 69, 100
8, 61979, Note_on_c, 6, 69, 0
8, 61980, Note_on_c, 6, 70, 100
8, 62009, Note_on_c, 6, 70, 0
8, 62010, Note_on_c, 6, 72, 100
8, 62039, Note_on_c, 6, 72, 0
8, 62040, Note_on_c, 6, 74, 100
8, 62069, Note_on_c, 6, 74, 0
8, 62070, Note_on_c, 6, 76, 100
8, 62099, Note_on_c, 6, 76, 0
8, 62100, Note_on_c, 6, 76, 100
8, 62189, Note_on_c, 6, 76, 0
8, 62190, Note_on_c, 6, 74, 100
8, 62204, Note_on_c, 6, 74, 0
8, 62205, Note_on_c, 6, 76, 100
8, 62219, Note_on_c, 6, 76, 0
8, 62220, Note_on_c, 6, 77, 100
8, 62429, Note_on_c, 6, 77, 0
8, 62430, Note_on_c, 6, 79, 100
8, 62459, Note_on_c, 6, 79, 0
8, 62460, Note_on_c, 6, 77, 100
8, 62489, Note_on_c, 6, 77, 0
8, 62490, Note_on_c, 6, 75, 100
8, 62519, Note_on_c, 6, 75, 0
8, 62520, Note_on_c, 6, 77, 100
8, 62549, Note_on_c, 6, 77, 0
8, 62550, Note_on_c, 6, 79, 100
8, 62579, Note_on_c, 6, 79, 0
8, 62580, Note_on_c, 6, 69, 100
8, 62789, Note_on_c, 6, 69, 0
8, 62790, Note_on_c, 6, 67, 100
8, 62819, Note_on_c, 6, 67, 0
8, 62820, Note_on_c, 6, 69, 100
8, 62849, Note_on_c, 6, 69, 0
8, 62850, Note_on_c, 6, 70, 100
8, 62879, Note_on_c, 6, 70, 0
8, 62880, Note_on_c, 6, 72, 100
8, 62909, Note_on_c, 6, 72, 0
8, 62910, Note_on_c, 6, 74, 100
8, 62939, Note_on_c, 6, 74, 0
8, 62940, Note_on_c, 6, 75, 100
8, 62969, Note_on_c, 6, 75, 0
8, 62970, Note_on_c, 6, 79, 100
8, 62999, Note_on_c, 6, 79, 0
8, 63000, Note_on_c, 6, 77, 100
8, 63029, Note_on_c, 6, 77, 0
8, 63030, Note_on_c, 6, 75, 100
8, 63059, Note_on_c, 6, 75, 0
8, 63060, Note_on_c, 6, 84, 100
8, 63149, Note_on_c, 6, 84, 0
8, 63150, Note_on_c, 6, 82, 100
8, 63179, Note_on_c, 6, 82, 0
8, 63180, Note_on_c, 6, 81, 100
8, 63209, Note_on_c, 6, 81, 0
8, 63210, Note_on_c, 6, 79, 100
8, 63239, Note_on_c, 6, 79, 0
8, 63240, Note_on_c, 6, 77, 100
8, 63269, Note_on_c, 6, 77, 0
8, 63270, Note_on_c, 6, 75, 100
8, 63299, Note_on_c, 6, 75, 0
8, 63300, Note_on_c, 6, 74, 100
8, 63329, Note_on_c, 6, 74, 0
8, 63330, Note_on_c, 6, 72, 100
8, 63359, Note_on_c, 6, 72, 0
8, 63360, Note_on_c, 6, 70, 100
8, 63389, Note_on_c, 6, 70, 0
8, 63390, Note_on_c, 6, 72, 100
8, 63419, Note_on_c, 6, 72, 0
8, 63420, Note_on_c, 6, 73, 100
8, 63509, Note_on_c, 6, 73, 0
8, 63510, Note_on_c, 6, 77, 100
8, 63539, Note_on_c, 6, 77, 0
8, 63540, Note_on_c, 6, 76, 100
8, 63569, Note_on_c, 6, 76, 0
8, 63570, Note_on_c, 6, 79, 100
8, 63599, Note_on_c, 6, 79, 0
8, 63600, Note_on_c, 6, 72, 100
8, 63629, Note_on_c, 6, 72, 0
8, 63630, Note_on_c, 6, 70, 100
8, 63659, Note_on_c, 6, 70, 0
8, 63660, Note_on_c, 6, 68, 100
8, 63689, Note_on_c, 6, 68, 0
8, 63690, Note_on_c, 6, 72, 100
8, 63719, Note_on_c, 6, 72, 0
8, 63720, Note_on_c, 6, 70, 100
8, 63749, Note_on_c, 6, 70, 0
8, 63750, Note_on_c, 6, 68, 100
8, 63779, Note_on_c, 6, 68, 0
8, 63780, Note_on_c, 6, 67, 100
8, 63809, Note_on_c, 6, 67, 0
8, 63810, Note_on_c, 6, 65, 100
8, 63839, Note_on_c, 6, 65, 0
8, 63840, Note_on_c, 6, 77, 100
8, 63899, Note_on_c, 6, 77, 0
8, 64050, Note_on_c, 6, 79, 100
8, 64079, Note_on_c, 6, 79, 0
8, 64080, Note_on_c, 6, 77, 100
8, 64109, Note_on_c, 6, 77, 0
8, 64110, Note_on_c, 6, 76, 100
8, 64139, Note_on_c, 6, 76, 0
8, 64140, Note_on_c, 6, 74, 100
8, 64169, Note_on_c, 6, 74, 0
8, 64170, Note_on_c, 6, 72, 100
8, 64199, Note_on_c, 6, 72, 0
8, 64200, Note_on_c, 6, 84, 100
8, 64259, Note_on_c, 6, 84, 0
8, 64770, Note_on_c, 6, 72, 100
8, 64799, Note_on_c, 6, 72, 0
8, 64800, Note_on_c, 6, 74, 100
8, 64829, Note_on_c, 6, 74, 0
8, 64830, Note_on_c, 6, 75, 100
8, 64859, Note_on_c, 6, 75, 0
8, 64860, Note_on_c, 6, 77, 100
8, 64949, Note_on_c, 6, 77, 0
8, 64950, Note_on_c, 6, 80, 100
8, 64979, Note_on_c, 6, 80, 0
8, 64980, Note_on_c, 6, 79, 100
8, 65009, Note_on_c, 6, 79, 0
8, 65010, Note_on_c, 6, 77, 100
8, 65039, Note_on_c, 6, 77, 0
8, 65040, Note_on_c, 6, 75, 100
8, 65069, Note_on_c, 6, 75, 0
8, 65070, Note_on_c, 6, 74, 100
8, 65099, Note_on_c, 6, 74, 0
8, 65100, Note_on_c, 6, 75, 100
8, 65219, Note_on_c, 6, 75, 0
8, 65490, Note_on_c, 6, 62, 100
8, 65519, Note_on_c, 6, 62, 0
8, 65520, Note_on_c, 6, 67, 100
8, 65549, Note_on_c, 6, 67, 0
8, 65550, Note_on_c, 6, 69, 100
8, 65579, Note_on_c, 6, 69, 0
8, 65580, Note_on_c, 6, 70, 100
8, 65669, Note_on_c, 6, 70, 0
8, 65670, Note_on_c, 6, 74, 100
8, 65699, Note_on_c, 6, 74, 0
8, 65700, Note_on_c, 6, 72, 100
8, 65729, Note_on_c, 6, 72, 0
8, 65730, Note_on_c, 6, 70, 100
8, 65759, Note_on_c, 6, 70, 0
8, 65760, Note_on_c, 6, 69, 100
8, 65789, Note_on_c, 6, 69, 0
8, 65790, Note_on_c, 6, 67, 100
8, 65819, Note_on_c, 6, 67, 0
8, 65820, Note_on_c, 6, 66, 100
8, 65849, Note_on_c, 6, 66, 0
8, 65850, Note_on_c, 6, 69, 100
8, 65879, Note_on_c, 6, 69, 0
8, 65880, Note_on_c, 6, 67, 100
8, 65909, Note_on_c, 6, 67, 0
8, 65910, Note_on_c, 6, 66, 100
8, 65939, Note_on_c, 6, 66, 0
8, 65940, Note_on_c, 6, 64, 100
8, 65969, Note_on_c, 6, 64, 0
8, 65970, Note_on_c, 6, 62, 100
8, 65999, Note_on_c, 6, 62, 0
8, 66000, Note_on_c, 6, 74, 100
8, 66059, Note_on_c, 6, 74, 0
8, 66210, Note_on_c, 6, 75, 100
8, 66239, Note_on_c, 6, 75, 0
8, 66240, Note_on_c, 6, 74, 100
8, 66269, Note_on_c, 6, 74, 0
8, 66270, Note_on_c, 6, 72, 100
8, 66299, Note_on_c, 6, 72, 0
8, 66300, Note_on_c, 6, 70, 100
8, 66329, Note_on_c, 6, 70, 0
8, 66330, Note_on_c, 6, 69, 100
8, 66359, Note_on_c, 6, 69, 0
8, 66360, Note_on_c, 6, 81, 100
8, 66419, Note_on_c, 6, 81, 0
8, 66900, Note_on_c, 6, 74, 100
8, 67109, Note_on_c, 6, 74, 0
8, 67110, Note_on_c, 6, 75, 100
8, 67139, Note_on_c, 6, 75, 0
8, 67140, Note_on_c, 6, 74, 100
8, 67169, Note_on_c, 6, 74, 0
8, 67170, Note_on_c, 6, 72, 100
8, 67199, Note_on_c, 6, 72, 0
8, 67200, Note_on_c, 6, 74, 100
8, 67229, Note_on_c, 6, 74, 0
8, 67230, Note_on_c, 6, 75, 100
8, 67259, Note_on_c, 6, 75, 0
8, 67260, Note_on_c, 6, 66, 100
8, 67469, Note_on_c, 6, 66, 0
8, 67470, Note_on_c, 6, 64, 100
8, 67499, Note_on_c, 6, 64, 0
8, 67500, Note_on_c, 6, 66, 100
8, 67529, Note_on_c, 6, 66, 0
8, 67530, Note_on_c, 6, 67, 100
8, 67559, Note_on_c, 6, 67, 0
8, 67560, Note_on_c, 6, 69, 100
8, 67589, Note_on_c, 6, 69, 0
8, 67590, Note_on_c, 6, 70, 100
8, 67619, Note_on_c, 6, 70, 0
8, 67620, Note_on_c, 6, 72, 100
8, 67649, Note_on_c, 6, 72, 0
8, 67650, Note_on_c, 6, 75, 100
8, 67679, Note_on_c, 6, 75, 0
8, 67680, Note_on_c, 6, 74, 100
8, 67709, Note_on_c, 6, 74, 0
8, 67710, Note_on_c, 6, 72, 100
8, 67739, Note_on_c, 6, 72, 0
8, 67740, Note_on_c, 6, 81, 100
8, 67829, Note_on_c, 6, 81, 0
8, 67830, Note_on_c, 6, 79, 100
8, 67859, Note_on_c, 6, 79, 0
8, 67860, Note_on_c, 6, 78, 100
8, 67889, Note_on_c, 6, 78, 0
8, 67890, Note_on_c, 6, 81, 100
8, 67919, Note_on_c, 6, 81, 0
8, 67920, Note_on_c, 6, 74, 100
8, 67949, Note_on_c, 6, 74, 0
8, 67950, Note_on_c, 6, 72, 100
8, 67979, Note_on_c, 6, 72, 0
8, 67980, Note_on_c, 6, 70, 100
8, 68189, Note_on_c, 6, 70, 0
8, 68190, Note_on_c, 6, 72, 100
8, 68219, Note_on_c, 6, 72, 0
8, 68220, Note_on_c, 6, 70, 100
8, 68249, Note_on_c, 6, 70, 0
8, 68250, Note_on_c, 6, 69, 100
8, 68279, Note_on_c, 6, 69, 0
8, 68280, Note_on_c, 6, 70, 100
8, 68309, Note_on_c, 6, 70, 0
8, 68310, Note_on_c, 6, 72, 100
8, 68339, Note_on_c, 6, 72, 0
8, 68340, Note_on_c, 6, 69, 100
8, 68549, Note_on_c, 6, 69, 0
8, 68550, Note_on_c, 6, 70, 100
8, 68579, Note_on_c, 6, 70, 0
8, 68580, Note_on_c, 6, 69, 100
8, 68609, Note_on_c, 6, 69, 0
8, 68610, Note_on_c, 6, 67, 100
8, 68639, Note_on_c, 6, 67, 0
8, 68640, Note_on_c, 6, 69, 100
8, 68669, Note_on_c, 6, 69, 0
8, 68670, Note_on_c, 6, 70, 100
8, 68699, Note_on_c, 6, 70, 0
8, 68700, Note_on_c, 6, 72, 100
8, 68729, Note_on_c, 6, 72, 0
8, 68730, Note_on_c, 6, 75, 100
8, 68759, Note_on_c, 6, 75, 0
8, 68760, Note_on_c, 6, 74, 100
8, 68789, Note_on_c, 6, 74, 0
8, 68790, Note_on_c, 6, 72, 100
8, 68819, Note_on_c, 6, 72, 0
8, 68820, Note_on_c, 6, 74, 100
8, 68849, Note_on_c, 6, 74, 0
8, 68850, Note_on_c, 6, 75, 100
8, 68879, Note_on_c, 6, 75, 0
8, 68880, Note_on_c, 6, 67, 100
8, 69089, Note_on_c, 6, 67, 0
8, 69090, Note_on_c, 6, 69, 100
8, 69119, Note_on_c, 6, 69, 0
8, 69120, Note_on_c, 6, 67, 100
8, 69149, Note_on_c, 6, 67, 0
8, 69150, Note_on_c, 6, 66, 100
8, 69179, Note_on_c, 6, 66, 0
8, 69180, Note_on_c, 6, 67, 100
8, 69209, Note_on_c, 6, 67, 0
8, 69210, Note_on_c, 6, 69, 100
8, 69239, Note_on_c, 6, 69, 0
8, 69240, Note_on_c, 6, 66, 100
8, 69359, Note_on_c, 6, 66, 0
8, 69360, Note_on_c, 6, 67, 100
8, 69419, Note_on_c, 6, 67, 0
8, 69420, Note_on_c, 6, 67, 100
8, 69599, Note_on_c, 6, 67, 0
8, 69720, Note_on_c, 6, 65, 100
8, 69779, Note_on_c, 6, 65, 0
8, 69780, Note_on_c, 6, 64, 100
8, 69809, Note_on_c, 6, 64, 0
8, 69810, Note_on_c, 6, 65, 100
8, 69839, Note_on_c, 6, 65, 0
8, 69840, Note_on_c, 6, 64, 100
8, 69869, Note_on_c, 6, 64, 0
8, 69870, Note_on_c, 6, 62, 100
8, 69899, Note_on_c, 6, 62, 0
8, 69900, Note_on_c, 6, 64, 100
8, 69929, Note_on_c, 6, 64, 0
8, 69930, Note_on_c, 6, 65, 100
8, 69959, Note_on_c, 6, 65, 0
8, 69960, Note_on_c, 6, 67, 100
8, 69989, Note_on_c, 6, 67, 0
8, 69990, Note_on_c, 6, 68, 100
8, 70019, Note_on_c, 6, 68, 0
8, 70020, Note_on_c, 6, 67, 100
8, 70049, Note_on_c, 6, 67, 0
8, 70050, Note_on_c, 6, 65, 100
8, 70079, Note_on_c, 6, 65, 0
8, 70080, Note_on_c, 6, 67, 100
8, 70109, Note_on_c, 6, 67, 0
8, 70110, Note_on_c, 6, 68, 100
8, 70139, Note_on_c, 6, 68, 0
8, 70140, Note_on_c, 6, 70, 100
8, 70169, Note_on_c, 6, 70, 0
8, 70170, Note_on_c, 6, 72, 100
8, 70199, Note_on_c, 6, 72, 0
8, 70200, Note_on_c, 6, 70, 100
8, 70229, Note_on_c, 6, 70, 0
8, 70230, Note_on_c, 6, 68, 100
8, 70259, Note_on_c, 6, 68, 0
8, 70260, Note_on_c, 6, 70, 100
8, 70289, Note_on_c, 6, 70, 0
8, 70290, Note_on_c, 6, 72, 100
8, 70319, Note_on_c, 6, 72, 0
8, 70320, Note_on_c, 6, 73, 100
8, 70349, Note_on_c, 6, 73, 0
8, 70380, Note_on_c, 6, 72, 100
8, 70409, Note_on_c, 6, 72, 0
8, 70440, Note_on_c, 6, 70, 100
8, 70469, Note_on_c, 6, 70, 0
8, 70500, Note_on_c, 6, 69, 100
8, 70559, Note_on_c, 6, 69, 0
8, 70560, Note_on_c, 6, 72, 100
8, 70619, Note_on_c, 6, 72, 0
8, 70620, Note_on_c, 6, 75, 100
8, 70679, Note_on_c, 6, 75, 0
8, 70680, Note_on_c, 6, 65, 100
8, 70799, Note_on_c, 6, 65, 0
8, 71160, Note_on_c, 6, 60, 100
8, 71249, Note_on_c, 6, 60, 0
8, 71250, Note_on_c, 6, 63, 100
8, 71279, Note_on_c, 6, 63, 0
8, 71280, Note_on_c, 6, 62, 100
8, 71309, Note_on_c, 6, 62, 0
8, 71310, Note_on_c, 6, 60, 100
8, 71339, Note_on_c, 6, 60, 0
8, 71340, Note_on_c, 6, 62, 100
8, 71369, Note_on_c, 6, 62, 0
8, 71370, Note_on_c, 6, 63, 100
8, 71399, Note_on_c, 6, 63, 0
8, 71400, Note_on_c, 6, 65, 100
8, 71429, Note_on_c, 6, 65, 0
8, 71430, Note_on_c, 6, 67, 100
8, 71459, Note_on_c, 6, 67, 0
8, 71460, Note_on_c, 6, 65, 100
8, 71489, Note_on_c, 6, 65, 0
8, 71490, Note_on_c, 6, 63, 100
8, 71519, Note_on_c, 6, 63, 0
8, 71520, Note_on_c, 6, 65, 100
8, 71549, Note_on_c, 6, 65, 0
8, 71550, Note_on_c, 6, 67, 100
8, 71579, Note_on_c, 6, 67, 0
8, 71580, Note_on_c, 6, 68, 100
8, 71609, Note_on_c, 6, 68, 0
8, 71610, Note_on_c, 6, 70, 100
8, 71639, Note_on_c, 6, 70, 0
8, 71640, Note_on_c, 6, 68, 100
8, 71669, Note_on_c, 6, 68, 0
8, 71670, Note_on_c, 6, 67, 100
8, 71699, Note_on_c, 6, 67, 0
8, 71700, Note_on_c, 6, 68, 100
8, 71729, Note_on_c, 6, 68, 0
8, 71730, Note_on_c, 6, 70, 100
8, 71759, Note_on_c, 6, 70, 0
8, 71760, Note_on_c, 6, 72, 100
8, 71789, Note_on_c, 6, 72, 0
8, 71820, Note_on_c, 6, 70, 100
8, 71849, Note_on_c, 6, 70, 0
8, 71880, Note_on_c, 6, 68, 100
8, 71909, Note_on_c, 6, 68, 0
8, 71940, Note_on_c, 6, 67, 100
8, 71999, Note_on_c, 6, 67, 0
8, 72000, Note_on_c, 6, 70, 100
8, 72059, Note_on_c, 6, 70, 0
8, 72060, Note_on_c, 6, 73, 100
8, 72119, Note_on_c, 6, 73, 0
8, 72120, Note_on_c, 6, 63, 100
8, 72239, Note_on_c, 6, 63, 0
8, 72600, Note_on_c, 6, 82, 100
8, 72689, Note_on_c, 6, 82, 0
8, 72690, Note_on_c, 6, 84, 100
8, 72719, Note_on_c, 6, 84, 0
8, 72720, Note_on_c, 6, 82, 100
8, 72749, Note_on_c, 6, 82, 0
8, 72750, Note_on_c, 6, 80, 100
8, 72779, Note_on_c, 6, 80, 0
8, 72780, Note_on_c, 6, 82, 100
8, 72809, Note_on_c, 6, 82, 0
8, 72810, Note_on_c, 6, 79, 100
8, 72839, Note_on_c, 6, 79, 0
8, 72840, Note_on_c, 6, 80, 100
8, 73049, Note_on_c, 6, 80, 0
8, 73050, Note_on_c, 6, 82, 100
8, 73079, Note_on_c, 6, 82, 0
8, 73080, Note_on_c, 6, 80, 100
8, 73109, Note_on_c, 6, 80, 0
8, 73110, Note_on_c, 6, 79, 100
8, 73139, Note_on_c, 6, 79, 0
8, 73140, Note_on_c, 6, 80, 100
8, 73169, Note_on_c, 6, 80, 0
8, 73170, Note_on_c, 6, 77, 100
8, 73199, Note_on_c, 6, 77, 0
8, 73200, Note_on_c, 6, 79, 100
8, 73409, Note_on_c, 6, 79, 0
8, 73410, Note_on_c, 6, 80, 100
8, 73439, Note_on_c, 6, 80, 0
8, 73440, Note_on_c, 6, 79, 100
8, 73469, Note_on_c, 6, 79, 0
8, 73470, Note_on_c, 6, 77, 100
8, 73499, Note_on_c, 6, 77, 0
8, 73500, Note_on_c, 6, 79, 100
8, 73529, Note_on_c, 6, 79, 0
8, 73530, Note_on_c, 6, 75, 100
8, 73559, Note_on_c, 6, 75, 0
8, 73560, Note_on_c, 6, 77, 100
8, 73589, Note_on_c, 6, 77, 0
8, 73590, Note_on_c, 6, 80, 100
8, 73619, Note_on_c, 6, 80, 0
8, 73620, Note_on_c, 6, 79, 100
8, 73649, Note_on_c, 6, 79, 0
8, 73650, Note_on_c, 6, 77, 100
8, 73679, Note_on_c, 6, 77, 0
8, 73680, Note_on_c, 6, 79, 100
8, 73709, Note_on_c, 6, 79, 0
8, 73710, Note_on_c, 6, 80, 100
8, 73739, Note_on_c, 6, 80, 0
8, 73740, Note_on_c, 6, 74, 100
8, 73769, Note_on_c, 6, 74, 0
8, 73770, Note_on_c, 6, 70, 100
8, 73799, Note_on_c, 6, 70, 0
8, 73800, Note_on_c, 6, 68, 100
8, 73829, Note_on_c, 6, 68, 0
8, 73830, Note_on_c, 6, 67, 100
8, 73859, Note_on_c, 6, 67, 0
8, 73860, Note_on_c, 6, 65, 100
8, 73889, Note_on_c, 6, 65, 0
8, 73890, Note_on_c, 6, 63, 100
8, 73919, Note_on_c, 6, 63, 0
8, 73920, Note_on_c, 6, 75, 100
8, 73979, Note_on_c, 6, 75, 0
8, 74130, Note_on_c, 6, 77, 100
8, 74159, Note_on_c, 6, 77, 0
8, 74160, Note_on_c, 6, 75, 100
8, 74189, Note_on_c, 6, 75, 0
8, 74190, Note_on_c, 6, 74, 100
8, 74219, Note_on_c, 6, 74, 0
8, 74220, Note_on_c, 6, 72, 100
8, 74249, Note_on_c, 6, 72, 0
8, 74250, Note_on_c, 6, 70, 100
8, 74279, Note_on_c, 6, 70, 0
8, 74280, Note_on_c, 6, 82, 100
8, 74339, Note_on_c, 6, 82, 0
8, 74820, Note_on_c, 6, 70, 100
8, 75029, Note_on_c, 6, 70, 0
8, 75030, Note_on_c, 6, 72, 100
8, 75059, Note_on_c, 6, 72, 0
8, 75060, Note_on_c, 6, 70, 100
8, 75089, Note_on_c, 6, 70, 0
8, 75090, Note_on_c, 6, 68, 100
8, 75119, Note_on_c, 6, 68, 0
8, 75120, Note_on_c, 6, 70, 100
8, 75149, Note_on_c, 6, 70, 0
8, 75150, Note_on_c, 6, 72, 100
8, 75179, Note_on_c, 6, 72, 0
8, 75180, Note_on_c, 6, 62, 100
8, 75389, Note_on_c, 6, 62, 0
8, 75390, Note_on_c, 6, 60, 100
8, 75419, Note_on_c, 6, 60, 0
8, 75420, Note_on_c, 6, 62, 100
8, 75449, Note_on_c, 6, 62, 0
8, 75450, Note_on_c, 6, 63, 100
8, 75479, Note_on_c, 6, 63, 0
8, 75480, Note_on_c, 6, 65, 100
8, 75509, Note_on_c, 6, 65, 0
8, 75510, Note_on_c, 6, 67, 100
8, 75539, Note_on_c, 6, 67, 0
8, 75540, Note_on_c, 6, 68, 100
8, 75569, Note_on_c, 6, 68, 0
8, 75570, Note_on_c, 6, 72, 100
8, 75599, Note_on_c, 6, 72, 0
8, 75600, Note_on_c, 6, 70, 100
8, 75629, Note_on_c, 6, 70, 0
8, 75630, Note_on_c, 6, 68, 100
8, 75659, Note_on_c, 6, 68, 0
8, 75660, Note_on_c, 6, 77, 100
8, 75749, Note_on_c, 6, 77, 0
8, 75750, Note_on_c, 6, 75, 100
8, 75779, Note_on_c, 6, 75, 0
8, 75780, Note_on_c, 6, 74, 100
8, 75809, Note_on_c, 6, 74, 0
8, 75810, Note_on_c, 6, 72, 100
8, 75839, Note_on_c, 6, 72, 0
8, 75840, Note_on_c, 6, 70, 100
8, 75869, Note_on_c, 6, 70, 0
8, 75870, Note_on_c, 6, 68, 100
8, 75899, Note_on_c, 6, 68, 0
8, 75900, Note_on_c, 6, 67, 100
8, 76109, Note_on_c, 6, 67, 0
8, 76110, Note_on_c, 6, 68, 100
8, 76139, Note_on_c, 6, 68, 0
8, 76140, Note_on_c, 6, 67, 100
8, 76169, Note_on_c, 6, 67, 0
8, 76170, Note_on_c, 6, 65, 100
8, 76199, Note_on_c, 6, 65, 0
8, 76200, Note_on_c, 6, 67, 100
8, 76229, Note_on_c, 6, 67, 0
8, 76230, Note_on_c, 6, 68, 100
8, 76259, Note_on_c, 6, 68, 0
8, 76260, Note_on_c, 6, 65, 100
8, 76469, Note_on_c, 6, 65, 0
8, 76470, Note_on_c, 6, 67, 100
8, 76499, Note_on_c, 6, 67, 0
8, 76500, Note_on_c, 6, 65, 100
8, 76529, Note_on_c, 6, 65, 0
8, 76530, Note_on_c, 6, 63, 100
8, 76559, Note_on_c, 6, 63, 0
8, 76560, Note_on_c, 6, 65, 100
8, 76589, Note_on_c, 6, 65, 0
8, 76590, Note_on_c, 6, 67, 100
8, 76619, Note_on_c, 6, 67, 0
8, 76620, Note_on_c, 6, 68, 100
8, 76649, Note_on_c, 6, 68, 0
8, 76650, Note_on_c, 6, 72, 100
8, 76679, Note_on_c, 6, 72, 0
8, 76680, Note_on_c, 6, 70, 100
8, 76709, Note_on_c, 6, 70, 0
8, 76710, Note_on_c, 6, 68, 100
8, 76739, Note_on_c, 6, 68, 0
8, 76740, Note_on_c, 6, 70, 100
8, 76769, Note_on_c, 6, 70, 0
8, 76770, Note_on_c, 6, 72, 100
8, 76799, Note_on_c, 6, 72, 0
8, 76800, Note_on_c, 6, 63, 100
8, 77009, Note_on_c, 6, 63, 0
8, 77010, Note_on_c, 6, 65, 100
8, 77039, Note_on_c, 6, 65, 0
8, 77040, Note_on_c, 6, 63, 100
8, 77069, Note_on_c, 6, 63, 0
8, 77070, Note_on_c, 6, 62, 100
8, 77099, Note_on_c, 6, 62, 0
8, 77100, Note_on_c, 6, 63, 100
8, 77129, Note_on_c, 6, 63, 0
8, 77130, Note_on_c, 6, 65, 100
8, 77159, Note_on_c, 6, 65, 0
8, 77160, Note_on_c, 6, 62, 100
8, 77279, Note_on_c, 6, 62, 0
8, 77280, Note_on_c, 6, 63, 100
8, 77339, Note_on_c, 6, 63, 0
8, 77340, Note_on_c, 6, 63, 100
8, 78450, Note_on_c, 6, 63, 0
8, 78450, Note_on_c, 6, 63, 100
8, 78479, Note_on_c, 6, 63, 0
8, 78480, Note_on_c, 6, 62, 100
8, 78509, Note_on_c, 6, 62, 0
8, 78510, Note_on_c, 6, 60, 100
8, 78539, Note_on_c, 6, 60, 0
8, 78540, Note_on_c, 6, 62, 100
8, 78569, Note_on_c, 6, 62, 0
8, 78570, Note_on_c, 6, 64, 100
8, 78599, Note_on_c, 6, 64, 0
8, 78600, Note_on_c, 6, 66, 100
8, 78629, Note_on_c, 6, 66, 0
8, 78630, Note_on_c, 6, 67, 100
8, 78659, Note_on_c, 6, 67, 0
8, 78660, Note_on_c, 6, 66, 100
8, 78689, Note_on_c, 6, 66, 0
8, 78690, Note_on_c, 6, 64, 100
8, 78719, Note_on_c, 6, 64, 0
8, 78720, Note_on_c, 6, 66, 100
8, 78749, Note_on_c, 6, 66, 0
8, 78750, Note_on_c, 6, 67, 100
8, 78779, Note_on_c, 6, 67, 0
8, 78780, Note_on_c, 6, 69, 100
8, 78809, Note_on_c, 6, 69, 0
8, 78810, Note_on_c, 6, 70, 100
8, 78839, Note_on_c, 6, 70, 0
8, 78840, Note_on_c, 6, 69, 100
8, 78869, Note_on_c, 6, 69, 0
8, 78870, Note_on_c, 6, 67, 100
8, 78899, Note_on_c, 6, 67, 0
8, 78900, Note_on_c, 6, 69, 100
8, 78929, Note_on_c, 6, 69, 0
8, 78930, Note_on_c, 6, 71, 100
8, 78959, Note_on_c, 6, 71, 0
8, 78960, Note_on_c, 6, 72, 100
8, 78989, Note_on_c, 6, 72, 0
8, 78990, Note_on_c, 6, 74, 100
8, 79019, Note_on_c, 6, 74, 0
8, 79020, Note_on_c, 6, 72, 100
8, 79049, Note_on_c, 6, 72, 0
8, 79050, Note_on_c, 6, 71, 100
8, 79079, Note_on_c, 6, 71, 0
8, 79080, Note_on_c, 6, 72, 100
8, 79109, Note_on_c, 6, 72, 0
8, 79110, Note_on_c, 6, 74, 100
8, 79139, Note_on_c, 6, 74, 0
8, 79140, Note_on_c, 6, 71, 100
8, 79499, Note_on_c, 6, 71, 0
8, 80400, Note_on_c, 6, 72, 90
8, 80459, Note_on_c, 6, 72, 0
8, 80460, Note_on_c, 6, 67, 90
8, 80519, Note_on_c, 6, 67, 0
8, 80520, Note_on_c, 6, 72, 90
8, 80579, Note_on_c, 6, 72, 0
8, 80580, Note_on_c, 6, 65, 90
8, 80639, Note_on_c, 6, 65, 0
8, 80640, Note_on_c, 6, 72, 90
8, 80699, Note_on_c, 6, 72, 0
8, 80700, Note_on_c, 6, 63, 90
8, 80729, Note_on_c, 6, 63, 0
8, 80730, Note_on_c, 6, 62, 90
8, 80759, Note_on_c, 6, 62, 0
8, 80760, Note_on_c, 6, 63, 90
8, 80789, Note_on_c, 6, 63, 0
8, 80790, Note_on_c, 6, 62, 90
8, 80819, Note_on_c, 6, 62, 0
8, 80820, Note_on_c, 6, 60, 90
8, 80879, Note_on_c, 6, 60, 0
8, 80880, Note_on_c, 6, 75, 90
8, 80939, Note_on_c, 6, 75, 0
8, 80940, Note_on_c, 6, 74, 90
8, 80999, Note_on_c, 6, 74, 0
8, 81000, Note_on_c, 6, 79, 90
8, 81119, Note_on_c, 6, 79, 0
8, 81120, Note_on_c, 6, 72, 90
8, 81179, Note_on_c, 6, 72, 0
8, 81180, Note_on_c, 6, 71, 90
8, 81209, Note_on_c, 6, 71, 0
8, 81210, Note_on_c, 6, 69, 90
8, 81239, Note_on_c, 6, 69, 0
8, 81240, Note_on_c, 6, 71, 90
8, 81269, Note_on_c, 6, 71, 0
8, 81270, Note_on_c, 6, 69, 90
8, 81299, Note_on_c, 6, 69, 0
8, 81300, Note_on_c, 6, 67, 90
8, 81329, Note_on_c, 6, 67, 0
8, 81330, Note_on_c, 6, 69, 90
8, 81359, Note_on_c, 6, 69, 0
8, 81360, Note_on_c, 6, 71, 90
8, 81389, Note_on_c, 6, 71, 0
8, 81390, Note_on_c, 6, 67, 90
8, 81419, Note_on_c, 6, 67, 0
8, 81420, Note_on_c, 6, 72, 90
8, 81479, Note_on_c, 6, 72, 0
8, 81480, Note_on_c, 6, 67, 90
8, 81539, Note_on_c, 6, 67, 0
8, 81540, Note_on_c, 6, 74, 90
8, 81599, Note_on_c, 6, 74, 0
8, 81600, Note_on_c, 6, 67, 90
8, 81659, Note_on_c, 6, 67, 0
8, 81660, Note_on_c, 6, 77, 90
8, 81719, Note_on_c, 6, 77, 0
8, 81720, Note_on_c, 6, 75, 90
8, 81809, Note_on_c, 6, 75, 0
8, 81810, Note_on_c, 6, 72, 90
8, 81839, Note_on_c, 6, 72, 0
8, 81840, Note_on_c, 6, 74, 90
8, 81869, Note_on_c, 6, 74, 0
8, 81870, Note_on_c, 6, 76, 90
8, 81899, Note_on_c, 6, 76, 0
8, 81900, Note_on_c, 6, 77, 90
8, 81959, Note_on_c, 6, 77, 0
8, 81960, Note_on_c, 6, 72, 90
8, 82019, Note_on_c, 6, 72, 0
8, 82020, Note_on_c, 6, 79, 90
8, 82079, Note_on_c, 6, 79, 0
8, 82080, Note_on_c, 6, 72, 90
8, 82139, Note_on_c, 6, 72, 0
8, 82140, Note_on_c, 6, 82, 90
8, 82199, Note_on_c, 6, 82, 0
8, 82200, Note_on_c, 6, 80, 90
8, 82289, Note_on_c, 6, 80, 0
8, 82290, Note_on_c, 6, 79, 90
8, 82319, Note_on_c, 6, 79, 0
8, 82320, Note_on_c, 6, 80, 90
8, 82349, Note_on_c, 6, 80, 0
8, 82350, Note_on_c, 6, 77, 90
8, 82379, Note_on_c, 6, 77, 0
8, 82380, Note_on_c, 6, 72, 90
8, 82409, Note_on_c, 6, 72, 0
8, 82410, Note_on_c, 6, 71, 90
8, 82439, Note_on_c, 6, 71, 0
8, 82440, Note_on_c, 6, 72, 90
8, 82469, Note_on_c, 6, 72, 0
8, 82470, Note_on_c, 6, 74, 90
8, 82499, Note_on_c, 6, 74, 0
8, 82500, Note_on_c, 6, 76, 90
8, 82529, Note_on_c, 6, 76, 0
8, 82530, Note_on_c, 6, 77, 90
8, 82559, Note_on_c, 6, 77, 0
8, 82560, Note_on_c, 6, 79, 90
8, 82589, Note_on_c, 6, 79, 0
8, 82590, Note_on_c, 6, 80, 90
8, 82619, Note_on_c, 6, 80, 0
8, 82620, Note_on_c, 6, 82, 90
8, 82649, Note_on_c, 6, 82, 0
8, 82650, Note_on_c, 6, 79, 90
8, 82679, Note_on_c, 6, 79, 0
8, 82680, Note_on_c, 6, 80, 90
8, 82709, Note_on_c, 6, 80, 0
8, 82710, Note_on_c, 6, 77, 90
8, 82739, Note_on_c, 6, 77, 0
8, 82740, Note_on_c, 6, 72, 90
8, 82769, Note_on_c, 6, 72, 0
8, 82770, Note_on_c, 6, 77, 90
8, 82799, Note_on_c, 6, 77, 0
8, 82800, Note_on_c, 6, 80, 90
8, 82829, Note_on_c, 6, 80, 0
8, 82830, Note_on_c, 6, 77, 90
8, 82859, Note_on_c, 6, 77, 0
8, 82860, Note_on_c, 6, 72, 90
8, 82889, Note_on_c, 6, 72, 0
8, 82890, Note_on_c, 6, 71, 90
8, 82919, Note_on_c, 6, 71, 0
8, 82920, Note_on_c, 6, 72, 90
8, 82949, Note_on_c, 6, 72, 0
8, 82950, Note_on_c, 6, 74, 90
8, 82979, Note_on_c, 6, 74, 0
8, 82980, Note_on_c, 6, 76, 90
8, 83009, Note_on_c, 6, 76, 0
8, 83010, Note_on_c, 6, 77, 90
8, 83039, Note_on_c, 6, 77, 0
8, 83040, Note_on_c, 6, 79, 90
8, 83069, Note_on_c, 6, 79, 0
8, 83070, Note_on_c, 6, 80, 90
8, 83099, Note_on_c, 6, 80, 0
8, 83100, Note_on_c, 6, 82, 90
8, 83129, Note_on_c, 6, 82, 0
8, 83130, Note_on_c, 6, 79, 90
8, 83159, Note_on_c, 6, 79, 0
8, 83160, Note_on_c, 6, 80, 90
8, 83189, Note_on_c, 6, 80, 0
8, 83190, Note_on_c, 6, 77, 90
8, 83219, Note_on_c, 6, 77, 0
8, 83220, Note_on_c, 6, 72, 90
8, 83249, Note_on_c, 6, 72, 0
8, 83250, Note_on_c, 6, 77, 90
8, 83279, Note_on_c, 6, 77, 0
8, 83280, Note_on_c, 6, 80, 90
8, 83309, Note_on_c, 6, 80, 0
8, 83310, Note_on_c, 6, 77, 90
8, 83339, Note_on_c, 6, 77, 0
8, 83340, Note_on_c, 6, 70, 90
8, 83369, Note_on_c, 6, 70, 0
8, 83370, Note_on_c, 6, 69, 90
8, 83399, Note_on_c, 6, 69, 0
8, 83400, Note_on_c, 6, 70, 90
8, 83429, Note_on_c, 6, 70, 0
8, 83430, Note_on_c, 6, 72, 90
8, 83459, Note_on_c, 6, 72, 0
8, 83460, Note_on_c, 6, 74, 90
8, 83489, Note_on_c, 6, 74, 0
8, 83490, Note_on_c, 6, 75, 90
8, 83519, Note_on_c, 6, 75, 0
8, 83520, Note_on_c, 6, 77, 90
8, 83549, Note_on_c, 6, 77, 0
8, 83550, Note_on_c, 6, 79, 90
8, 83579, Note_on_c, 6, 79, 0
8, 83580, Note_on_c, 6, 80, 90
8, 83609, Note_on_c, 6, 80, 0
8, 83610, Note_on_c, 6, 77, 90
8, 83639, Note_on_c, 6, 77, 0
8, 83640, Note_on_c, 6, 79, 90
8, 83669, Note_on_c, 6, 79, 0
8, 83670, Note_on_c, 6, 75, 90
8, 83699, Note_on_c, 6, 75, 0
8, 83700, Note_on_c, 6, 70, 90
8, 83729, Note_on_c, 6, 70, 0
8, 83730, Note_on_c, 6, 75, 90
8, 83759, Note_on_c, 6, 75, 0
8, 83760, Note_on_c, 6, 79, 90
8, 83789, Note_on_c, 6, 79, 0
8, 83790, Note_on_c, 6, 75, 90
8, 83819, Note_on_c, 6, 75, 0
8, 83820, Note_on_c, 6, 70, 90
8, 83849, Note_on_c, 6, 70, 0
8, 83850, Note_on_c, 6, 69, 90
8, 83879, Note_on_c, 6, 69, 0
8, 83880, Note_on_c, 6, 70, 90
8, 83909, Note_on_c, 6, 70, 0
8, 83910, Note_on_c, 6, 72, 90
8, 83939, Note_on_c, 6, 72, 0
8, 83940, Note_on_c, 6, 74, 90
8, 83969, Note_on_c, 6, 74, 0
8, 83970, Note_on_c, 6, 75, 90
8, 83999, Note_on_c, 6, 75, 0
8, 84000, Note_on_c, 6, 77, 90
8, 84029, Note_on_c, 6, 77, 0
8, 84030, Note_on_c, 6, 79, 90
8, 84059, Note_on_c, 6, 79, 0
8, 84060, Note_on_c, 6, 80, 90
8, 84089, Note_on_c, 6, 80, 0
8, 84090, Note_on_c, 6, 77, 90
8, 84119, Note_on_c, 6, 77, 0
8, 84120, Note_on_c, 6, 79, 90
8, 84149, Note_on_c, 6, 79, 0
8, 84150, Note_on_c, 6, 75, 90
8, 84179, Note_on_c, 6, 75, 0
8, 84180, Note_on_c, 6, 70, 90
8, 84209, Note_on_c, 6, 70, 0
8, 84210, Note_on_c, 6, 75, 90
8, 84239, Note_on_c, 6, 75, 0
8, 84240, Note_on_c, 6, 79, 90
8, 84269, Note_on_c, 6, 79, 0
8, 84270, Note_on_c, 6, 75, 90
8, 84299, Note_on_c, 6, 75, 0
8, 84300, Note_on_c, 6, 77, 90
8, 84359, Note_on_c, 6, 77, 0
8, 84420, Note_on_c, 6, 77, 90
8, 84479, Note_on_c, 6, 77, 0
8, 84540, Note_on_c, 6, 77, 90
8, 84659, Note_on_c, 6, 77, 0
8, 84690, Note_on_c, 6, 75, 90
8, 84719, Note_on_c, 6, 75, 0
8, 84720, Note_on_c, 6, 74, 90
8, 84749, Note_on_c, 6, 74, 0
8, 84750, Note_on_c, 6, 77, 90
8, 84779, Note_on_c, 6, 77, 0
8, 84780, Note_on_c, 6, 75, 90
8, 84809, Note_on_c, 6, 75, 0
8, 84810, Note_on_c, 6, 74, 90
8, 84839, Note_on_c, 6, 74, 0
8, 84840, Note_on_c, 6, 75, 90
8, 84929, Note_on_c, 6, 75, 0
8, 84930, Note_on_c, 6, 74, 90
8, 84959, Note_on_c, 6, 74, 0
8, 84960, Note_on_c, 6, 75, 90
8, 85049, Note_on_c, 6, 75, 0
8, 85050, Note_on_c, 6, 72, 90
8, 85079, Note_on_c, 6, 72, 0
8, 85080, Note_on_c, 6, 75, 90
8, 85199, Note_on_c, 6, 75, 0
8, 85200, Note_on_c, 6, 74, 90
8, 85229, Note_on_c, 6, 74, 0
8, 85230, Note_on_c, 6, 72, 90
8, 85259, Note_on_c, 6, 72, 0
8, 85260, Note_on_c, 6, 71, 90
8, 85319, Note_on_c, 6, 71, 0
8, 85320, Note_on_c, 6, 74, 90
8, 85379, Note_on_c, 6, 74, 0
8, 85380, Note_on_c, 6, 65, 90
8, 85439, Note_on_c, 6, 65, 0
8, 85440, Note_on_c, 6, 74, 90
8, 85499, Note_on_c, 6, 74, 0
8, 85500, Note_on_c, 6, 63, 90
8, 85529, Note_on_c, 6, 63, 0
8, 85530, Note_on_c, 6, 62, 90
8, 85559, Note_on_c, 6, 62, 0
8, 85560, Note_on_c, 6, 63, 90
8, 85589, Note_on_c, 6, 63, 0
8, 85590, Note_on_c, 6, 62, 90
8, 85619, Note_on_c, 6, 62, 0
8, 85620, Note_on_c, 6, 60, 90
8, 85679, Note_on_c, 6, 60, 0
8, 85680, Note_on_c, 6, 75, 90
8, 85709, Note_on_c, 6, 75, 0
8, 85710, Note_on_c, 6, 77, 90
8, 85739, Note_on_c, 6, 77, 0
8, 85740, Note_on_c, 6, 79, 90
8, 85799, Note_on_c, 6, 79, 0
8, 85800, Note_on_c, 6, 72, 90
8, 85859, Note_on_c, 6, 72, 0
8, 85860, Note_on_c, 6, 67, 90
8, 85919, Note_on_c, 6, 67, 0
8, 85920, Note_on_c, 6, 71, 90
8, 85979, Note_on_c, 6, 71, 0
8, 85980, Note_on_c, 6, 72, 90
8, 86099, Note_on_c, 6, 72, 0
8, 86160, Note_on_c, 6, 72, 90
8, 86219, Note_on_c, 6, 72, 0
8, 86220, Note_on_c, 6, 67, 90
8, 86279, Note_on_c, 6, 67, 0
8, 86280, Note_on_c, 6, 72, 90
8, 86339, Note_on_c, 6, 72, 0
8, 86340, Note_on_c, 6, 65, 90
8, 86399, Note_on_c, 6, 65, 0
8, 86400, Note_on_c, 6, 72, 90
8, 86459, Note_on_c, 6, 72, 0
8, 86460, Note_on_c, 6, 63, 90
8, 86489, Note_on_c, 6, 63, 0
8, 86490, Note_on_c, 6, 62, 90
8, 86519, Note_on_c, 6, 62, 0
8, 86520, Note_on_c, 6, 63, 90
8, 86549, Note_on_c, 6, 63, 0
8, 86550, Note_on_c, 6, 62, 90
8, 86579, Note_on_c, 6, 62, 0
8, 86580, Note_on_c, 6, 60, 90
8, 86759, Note_on_c, 6, 60, 0
8, 86760, Note_on_c, 6, 72, 90
8, 86879, Note_on_c, 6, 72, 0
8, 86880, Note_on_c, 6, 71, 90
8, 86939, Note_on_c, 6, 71, 0
8, 86940, Note_on_c, 6, 72, 90
8, 86969, Note_on_c, 6, 72, 0
8, 86970, Note_on_c, 6, 74, 90
8, 86999, Note_on_c, 6, 74, 0
8, 87000, Note_on_c, 6, 72, 90
8, 87029, Note_on_c, 6, 72, 0
8, 87030, Note_on_c, 6, 74, 90
8, 87059, Note_on_c, 6, 74, 0
8, 87060, Note_on_c, 6, 75, 90
8, 87119, Note_on_c, 6, 75, 0
8, 87120, Note_on_c, 6, 74, 90
8, 87149, Note_on_c, 6, 74, 0
8, 87150, Note_on_c, 6, 72, 90
8, 87179, Note_on_c, 6, 72, 0
8, 87180, Note_on_c, 6, 70, 90
8, 87239, Note_on_c, 6, 70, 0
8, 87240, Note_on_c, 6, 75, 90
8, 87299, Note_on_c, 6, 75, 0
8, 87300, Note_on_c, 6, 68, 90
8, 87359, Note_on_c, 6, 68, 0
8, 87360, Note_on_c, 6, 75, 90
8, 87419, Note_on_c, 6, 75, 0
8, 87420, Note_on_c, 6, 67, 90
8, 87449, Note_on_c, 6, 67, 0
8, 87450, Note_on_c, 6, 65, 90
8, 87479, Note_on_c, 6, 65, 0
8, 87480, Note_on_c, 6, 67, 90
8, 87509, Note_on_c, 6, 67, 0
8, 87510, Note_on_c, 6, 65, 90
8, 87539, Note_on_c, 6, 65, 0
8, 87540, Note_on_c, 6, 63, 90
8, 87719, Note_on_c, 6, 63, 0
8, 87720, Note_on_c, 6, 75, 90
8, 87839, Note_on_c, 6, 75, 0
8, 87840, Note_on_c, 6, 74, 90
8, 87899, Note_on_c, 6, 74, 0
8, 87900, Note_on_c, 6, 75, 90
8, 87929, Note_on_c, 6, 75, 0
8, 87930, Note_on_c, 6, 77, 90
8, 87959, Note_on_c, 6, 77, 0
8, 87960, Note_on_c, 6, 75, 90
8, 87989, Note_on_c, 6, 75, 0
8, 87990, Note_on_c, 6, 77, 90
8, 88019, Note_on_c, 6, 77, 0
8, 88020, Note_on_c, 6, 79, 90
8, 88199, Note_on_c, 6, 79, 0
8, 88200, Note_on_c, 6, 80, 90
8, 88229, Note_on_c, 6, 80, 0
8, 88230, Note_on_c, 6, 79, 90
8, 88259, Note_on_c, 6, 79, 0
8, 88260, Note_on_c, 6, 77, 90
8, 88319, Note_on_c, 6, 77, 0
8, 88320, Note_on_c, 6, 77, 90
8, 88379, Note_on_c, 6, 77, 0
8, 88380, Note_on_c, 6, 77, 90
8, 88394, Note_on_c, 6, 77, 0
8, 88395, Note_on_c, 6, 79, 90
8, 88409, Note_on_c, 6, 79, 0
8, 88410, Note_on_c, 6, 77, 90
8, 88439, Note_on_c, 6, 77, 0
8, 88440, Note_on_c, 6, 75, 90
8, 88499, Note_on_c, 6, 75, 0
8, 88560, Note_on_c, 6, 75, 90
8, 88679, Note_on_c, 6, 75, 0
8, 88680, Note_on_c, 6, 77, 90
8, 88709, Note_on_c, 6, 77, 0
8, 88710, Note_on_c, 6, 75, 90
8, 88739, Note_on_c, 6, 75, 0
8, 88740, Note_on_c, 6, 74, 90
8, 88799, Note_on_c, 6, 74, 0
8, 88800, Note_on_c, 6, 74, 90
8, 88859, Note_on_c, 6, 74, 0
8, 88860, Note_on_c, 6, 74, 90
8, 88874, Note_on_c, 6, 74, 0
8, 88875, Note_on_c, 6, 75, 90
8, 88889, Note_on_c, 6, 75, 0
8, 88890, Note_on_c, 6, 74, 90
8, 88919, Note_on_c, 6, 74, 0
8, 88920, Note_on_c, 6, 72, 90
8, 88979, Note_on_c, 6, 72, 0
8, 89040, Note_on_c, 6, 72, 90
8, 89069, Note_on_c, 6, 72, 0
8, 89070, Note_on_c, 6, 70, 90
8, 89099, Note_on_c, 6, 70, 0
8, 89100, Note_on_c, 6, 69, 90
8, 89159, Note_on_c, 6, 69, 0
8, 89160, Note_on_c, 6, 74, 90
8, 89219, Note_on_c, 6, 74, 0
8, 89220, Note_on_c, 6, 67, 90
8, 89279, Note_on_c, 6, 67, 0
8, 89280, Note_on_c, 6, 75, 90
8, 89339, Note_on_c, 6, 75, 0
8, 89340, Note_on_c, 6, 66, 90
8, 89369, Note_on_c, 6, 66, 0
8, 89370, Note_on_c, 6, 64, 90
8, 89399, Note_on_c, 6, 64, 0
8, 89400, Note_on_c, 6, 66, 90
8, 89429, Note_on_c, 6, 66, 0
8, 89430, Note_on_c, 6, 64, 90
8, 89459, Note_on_c, 6, 64, 0
8, 89460, Note_on_c, 6, 62, 90
8, 89519, Note_on_c, 6, 62, 0
8, 89520, Note_on_c, 6, 79, 90
8, 89579, Note_on_c, 6, 79, 0
8, 89580, Note_on_c, 6, 78, 90
8, 89609, Note_on_c, 6, 78, 0
8, 89610, Note_on_c, 6, 79, 90
8, 89639, Note_on_c, 6, 79, 0
8, 89640, Note_on_c, 6, 78, 90
8, 89669, Note_on_c, 6, 78, 0
8, 89670, Note_on_c, 6, 79, 90
8, 89699, Note_on_c, 6, 79, 0
8, 89700, Note_on_c, 6, 76, 90
8, 89729, Note_on_c, 6, 76, 0
8, 89730, Note_on_c, 6, 78, 90
8, 89759, Note_on_c, 6, 78, 0
8, 89760, Note_on_c, 6, 76, 90
8, 89789, Note_on_c, 6, 76, 0
8, 89790, Note_on_c, 6, 78, 90
8, 89819, Note_on_c, 6, 78, 0
8, 89820, Note_on_c, 6, 74, 90
8, 89879, Note_on_c, 6, 74, 0
8, 89880, Note_on_c, 6, 69, 90
8, 89939, Note_on_c, 6, 69, 0
8, 89940, Note_on_c, 6, 66, 90
8, 89999, Note_on_c, 6, 66, 0
8, 90000, Note_on_c, 6, 79, 90
8, 90059, Note_on_c, 6, 79, 0
8, 90060, Note_on_c, 6, 74, 90
8, 90119, Note_on_c, 6, 74, 0
8, 90120, Note_on_c, 6, 79, 90
8, 90179, Note_on_c, 6, 79, 0
8, 90180, Note_on_c, 6, 72, 90
8, 90239, Note_on_c, 6, 72, 0
8, 90240, Note_on_c, 6, 79, 90
8, 90299, Note_on_c, 6, 79, 0
8, 90300, Note_on_c, 6, 70, 90
8, 90329, Note_on_c, 6, 70, 0
8, 90330, Note_on_c, 6, 69, 90
8, 90359, Note_on_c, 6, 69, 0
8, 90360, Note_on_c, 6, 70, 90
8, 90389, Note_on_c, 6, 70, 0
8, 90390, Note_on_c, 6, 69, 90
8, 90419, Note_on_c, 6, 69, 0
8, 90420, Note_on_c, 6, 67, 90
8, 90479, Note_on_c, 6, 67, 0
8, 90480, Note_on_c, 6, 82, 90
8, 90539, Note_on_c, 6, 82, 0
8, 90540, Note_on_c, 6, 81, 90
8, 90599, Note_on_c, 6, 81, 0
8, 90600, Note_on_c, 6, 86, 90
8, 90719, Note_on_c, 6, 86, 0
8, 90720, Note_on_c, 6, 79, 90
8, 90779, Note_on_c, 6, 79, 0
8, 90780, Note_on_c, 6, 78, 90
8, 90809, Note_on_c, 6, 78, 0
8, 90810, Note_on_c, 6, 76, 90
8, 90839, Note_on_c, 6, 76, 0
8, 90840, Note_on_c, 6, 78, 90
8, 90869, Note_on_c, 6, 78, 0
8, 90870, Note_on_c, 6, 76, 90
8, 90899, Note_on_c, 6, 76, 0
8, 90900, Note_on_c, 6, 74, 90
8, 90959, Note_on_c, 6, 74, 0
8, 90960, Note_on_c, 6, 62, 90
8, 91019, Note_on_c, 6, 62, 0
8, 91020, Note_on_c, 6, 67, 90
8, 91079, Note_on_c, 6, 67, 0
8, 91080, Note_on_c, 6, 62, 90
8, 91139, Note_on_c, 6, 62, 0
8, 91140, Note_on_c, 6, 69, 90
8, 91199, Note_on_c, 6, 69, 0
8, 91200, Note_on_c, 6, 62, 90
8, 91259, Note_on_c, 6, 62, 0
8, 91260, Note_on_c, 6, 70, 90
8, 91319, Note_on_c, 6, 70, 0
8, 91320, Note_on_c, 6, 62, 90
8, 91379, Note_on_c, 6, 62, 0
8, 91380, Note_on_c, 6, 72, 90
8, 91439, Note_on_c, 6, 72, 0
8, 91440, Note_on_c, 6, 62, 90
8, 91499, Note_on_c, 6, 62, 0
8, 91500, Note_on_c, 6, 70, 90
8, 91529, Note_on_c, 6, 70, 0
8, 91530, Note_on_c, 6, 69, 90
8, 91559, Note_on_c, 6, 69, 0
8, 91560, Note_on_c, 6, 67, 90
8, 91589, Note_on_c, 6, 67, 0
8, 91590, Note_on_c, 6, 70, 90
8, 91619, Note_on_c, 6, 70, 0
8, 91620, Note_on_c, 6, 69, 90
8, 91649, Note_on_c, 6, 69, 0
8, 91650, Note_on_c, 6, 67, 90
8, 91679, Note_on_c, 6, 67, 0
8, 91680, Note_on_c, 6, 66, 90
8, 91709, Note_on_c, 6, 66, 0
8, 91710, Note_on_c, 6, 69, 90
8, 91739, Note_on_c, 6, 69, 0
8, 91740, Note_on_c, 6, 67, 90
8, 91769, Note_on_c, 6, 67, 0
8, 91770, Note_on_c, 6, 66, 90
8, 91799, Note_on_c, 6, 66, 0
8, 91800, Note_on_c, 6, 67, 90
8, 91829, Note_on_c, 6, 67, 0
8, 91830, Note_on_c, 6, 66, 90
8, 91859, Note_on_c, 6, 66, 0
8, 91860, Note_on_c, 6, 67, 90
8, 91919, Note_on_c, 6, 67, 0
8, 91920, Note_on_c, 6, 67, 90
8, 91979, Note_on_c, 6, 67, 0
8, 91980, Note_on_c, 6, 72, 90
8, 92039, Note_on_c, 6, 72, 0
8, 92040, Note_on_c, 6, 67, 90
8, 92099, Note_on_c, 6, 67, 0
8, 92100, Note_on_c, 6, 74, 90
8, 92159, Note_on_c, 6, 74, 0
8, 92160, Note_on_c, 6, 67, 90
8, 92219, Note_on_c, 6, 67, 0
8, 92220, Note_on_c, 6, 75, 90
8, 92279, Note_on_c, 6, 75, 0
8, 92280, Note_on_c, 6, 67, 90
8, 92339, Note_on_c, 6, 67, 0
8, 92340, Note_on_c, 6, 77, 90
8, 92399, Note_on_c, 6, 77, 0
8, 92400, Note_on_c, 6, 67, 90
8, 92459, Note_on_c, 6, 67, 0
8, 92460, Note_on_c, 6, 75, 90
8, 92489, Note_on_c, 6, 75, 0
8, 92490, Note_on_c, 6, 74, 90
8, 92519, Note_on_c, 6, 74, 0
8, 92520, Note_on_c, 6, 72, 90
8, 92549, Note_on_c, 6, 72, 0
8, 92550, Note_on_c, 6, 75, 90
8, 92579, Note_on_c, 6, 75, 0
8, 92580, Note_on_c, 6, 74, 90
8, 92609, Note_on_c, 6, 74, 0
8, 92610, Note_on_c, 6, 72, 90
8, 92639, Note_on_c, 6, 72, 0
8, 92640, Note_on_c, 6, 71, 90
8, 92669, Note_on_c, 6, 71, 0
8, 92670, Note_on_c, 6, 74, 90
8, 92699, Note_on_c, 6, 74, 0
8, 92700, Note_on_c, 6, 72, 90
8, 92729, Note_on_c, 6, 72, 0
8, 92730, Note_on_c, 6, 71, 90
8, 92759, Note_on_c, 6, 71, 0
8, 92760, Note_on_c, 6, 72, 90
8, 92789, Note_on_c, 6, 72, 0
8, 92790, Note_on_c, 6, 71, 90
8, 92819, Note_on_c, 6, 71, 0
8, 92820, Note_on_c, 6, 72, 90
8, 92879, Note_on_c, 6, 72, 0
8, 92880, Note_on_c, 6, 75, 90
8, 92939, Note_on_c, 6, 75, 0
8, 92940, Note_on_c, 6, 74, 90
8, 92999, Note_on_c, 6, 74, 0
8, 93000, Note_on_c, 6, 71, 90
8, 93029, Note_on_c, 6, 71, 0
8, 93030, Note_on_c, 6, 72, 90
8, 93059, Note_on_c, 6, 72, 0
8, 93060, Note_on_c, 6, 74, 90
8, 93119, Note_on_c, 6, 74, 0
8, 93120, Note_on_c, 6, 79, 90
8, 93239, Note_on_c, 6, 79, 0
8, 93240, Note_on_c, 6, 72, 90
8, 93299, Note_on_c, 6, 72, 0
8, 93300, Note_on_c, 6, 75, 90
8, 93359, Note_on_c, 6, 75, 0
8, 93360, Note_on_c, 6, 79, 90
8, 93419, Note_on_c, 6, 79, 0
8, 93420, Note_on_c, 6, 67, 90
8, 93449, Note_on_c, 6, 67, 0
8, 93450, Note_on_c, 6, 66, 90
8, 93479, Note_on_c, 6, 66, 0
8, 93480, Note_on_c, 6, 67, 90
8, 93509, Note_on_c, 6, 67, 0
8, 93510, Note_on_c, 6, 69, 90
8, 93539, Note_on_c, 6, 69, 0
8, 93540, Note_on_c, 6, 71, 90
8, 93569, Note_on_c, 6, 71, 0
8, 93570, Note_on_c, 6, 72, 90
8, 93599, Note_on_c, 6, 72, 0
8, 93600, Note_on_c, 6, 74, 90
8, 93629, Note_on_c, 6, 74, 0
8, 93630, Note_on_c, 6, 75, 90
8, 93659, Note_on_c, 6, 75, 0
8, 93660, Note_on_c, 6, 77, 90
8, 93689, Note_on_c, 6, 77, 0
8, 93690, Note_on_c, 6, 74, 90
8, 93719, Note_on_c, 6, 74, 0
8, 93720, Note_on_c, 6, 75, 90
8, 93749, Note_on_c, 6, 75, 0
8, 93750, Note_on_c, 6, 72, 90
8, 93779, Note_on_c, 6, 72, 0
8, 93780, Note_on_c, 6, 67, 90
8, 93809, Note_on_c, 6, 67, 0
8, 93810, Note_on_c, 6, 72, 90
8, 93839, Note_on_c, 6, 72, 0
8, 93840, Note_on_c, 6, 75, 90
8, 93869, Note_on_c, 6, 75, 0
8, 93870, Note_on_c, 6, 74, 90
8, 93899, Note_on_c, 6, 74, 0
8, 93900, Note_on_c, 6, 75, 90
8, 93959, Note_on_c, 6, 75, 0
8, 93960, Note_on_c, 6, 69, 90
8, 93989, Note_on_c, 6, 69, 0
8, 93990, Note_on_c, 6, 70, 90
8, 94019, Note_on_c, 6, 70, 0
8, 94020, Note_on_c, 6, 72, 90
8, 94079, Note_on_c, 6, 72, 0
8, 94080, Note_on_c, 6, 77, 90
8, 94199, Note_on_c, 6, 77, 0
8, 94200, Note_on_c, 6, 70, 90
8, 94259, Note_on_c, 6, 70, 0
8, 94260, Note_on_c, 6, 74, 90
8, 94319, Note_on_c, 6, 74, 0
8, 94320, Note_on_c, 6, 77, 90
8, 94379, Note_on_c, 6, 77, 0
8, 94380, Note_on_c, 6, 65, 90
8, 94409, Note_on_c, 6, 65, 0
8, 94410, Note_on_c, 6, 64, 90
8, 94439, Note_on_c, 6, 64, 0
8, 94440, Note_on_c, 6, 65, 90
8, 94469, Note_on_c, 6, 65, 0
8, 94470, Note_on_c, 6, 67, 90
8, 94499, Note_on_c, 6, 67, 0
8, 94500, Note_on_c, 6, 69, 90
8, 94529, Note_on_c, 6, 69, 0
8, 94530, Note_on_c, 6, 70, 90
8, 94559, Note_on_c, 6, 70, 0
8, 94560, Note_on_c, 6, 72, 90
8, 94589, Note_on_c, 6, 72, 0
8, 94590, Note_on_c, 6, 74, 90
8, 94619, Note_on_c, 6, 74, 0
8, 94620, Note_on_c, 6, 75, 90
8, 94649, Note_on_c, 6, 75, 0
8, 94650, Note_on_c, 6, 72, 90
8, 94679, Note_on_c, 6, 72, 0
8, 94680, Note_on_c, 6, 74, 90
8, 94709, Note_on_c, 6, 74, 0
8, 94710, Note_on_c, 6, 70, 90
8, 94739, Note_on_c, 6, 70, 0
8, 94740, Note_on_c, 6, 65, 90
8, 94769, Note_on_c, 6, 65, 0
8, 94770, Note_on_c, 6, 70, 90
8, 94799, Note_on_c, 6, 70, 0
8, 94800, Note_on_c, 6, 74, 90
8, 94829, Note_on_c, 6, 74, 0
8, 94830, Note_on_c, 6, 70, 90
8, 94859, Note_on_c, 6, 70, 0
8, 94860, Note_on_c, 6, 72, 90
8, 94979, Note_on_c, 6, 72, 0
8, 94980, Note_on_c, 6, 72, 90
8, 95099, Note_on_c, 6, 72, 0
8, 95100, Note_on_c, 6, 72, 90
8, 95219, Note_on_c, 6, 72, 0
8, 95250, Note_on_c, 6, 70, 90
8, 95279, Note_on_c, 6, 70, 0
8, 95280, Note_on_c, 6, 69, 90
8, 95309, Note_on_c, 6, 69, 0
8, 95310, Note_on_c, 6, 72, 90
8, 95339, Note_on_c, 6, 72, 0
8, 95340, Note_on_c, 6, 70, 90
8, 95369, Note_on_c, 6, 70, 0
8, 95370, Note_on_c, 6, 69, 90
8, 95399, Note_on_c, 6, 69, 0
8, 95400, Note_on_c, 6, 70, 90
8, 95489, Note_on_c, 6, 70, 0
8, 95490, Note_on_c, 6, 69, 90
8, 95519, Note_on_c, 6, 69, 0
8, 95520, Note_on_c, 6, 70, 90
8, 95609, Note_on_c, 6, 70, 0
8, 95610, Note_on_c, 6, 67, 90
8, 95639, Note_on_c, 6, 67, 0
8, 95640, Note_on_c, 6, 70, 90
8, 95759, Note_on_c, 6, 70, 0
8, 95760, Note_on_c, 6, 69, 90
8, 95789, Note_on_c, 6, 69, 0
8, 95790, Note_on_c, 6, 67, 90
8, 95819, Note_on_c, 6, 67, 0
8, 95820, Note_on_c, 6, 66, 90
8, 95879, Note_on_c, 6, 66, 0
8, 95880, Note_on_c, 6, 69, 90
8, 95939, Note_on_c, 6, 69, 0
8, 95940, Note_on_c, 6, 72, 90
8, 95999, Note_on_c, 6, 72, 0
8, 96000, Note_on_c, 6, 81, 90
8, 96059, Note_on_c, 6, 81, 0
8, 96060, Note_on_c, 6, 70, 90
8, 96089, Note_on_c, 6, 70, 0
8, 96090, Note_on_c, 6, 69, 90
8, 96119, Note_on_c, 6, 69, 0
8, 96120, Note_on_c, 6, 70, 90
8, 96149, Note_on_c, 6, 70, 0
8, 96150, Note_on_c, 6, 69, 90
8, 96179, Note_on_c, 6, 69, 0
8, 96180, Note_on_c, 6, 67, 90
8, 96209, Note_on_c, 6, 67, 0
8, 96210, Note_on_c, 6, 69, 90
8, 96239, Note_on_c, 6, 69, 0
8, 96240, Note_on_c, 6, 70, 90
8, 96269, Note_on_c, 6, 70, 0
8, 96270, Note_on_c, 6, 72, 90
8, 96299, Note_on_c, 6, 72, 0
8, 96300, Note_on_c, 6, 74, 90
8, 96359, Note_on_c, 6, 74, 0
8, 96360, Note_on_c, 6, 67, 90
8, 96419, Note_on_c, 6, 67, 0
8, 96420, Note_on_c, 6, 62, 90
8, 96479, Note_on_c, 6, 62, 0
8, 96480, Note_on_c, 6, 66, 90
8, 96539, Note_on_c, 6, 66, 0
8, 96540, Note_on_c, 6, 67, 90
8, 96659, Note_on_c, 6, 67, 0
8, 96720, Note_on_c, 6, 74, 90
8, 96779, Note_on_c, 6, 74, 0
8, 96780, Note_on_c, 6, 70, 90
8, 96839, Note_on_c, 6, 70, 0
8, 96840, Note_on_c, 6, 74, 90
8, 96899, Note_on_c, 6, 74, 0
8, 96900, Note_on_c, 6, 67, 90
8, 96959, Note_on_c, 6, 67, 0
8, 96960, Note_on_c, 6, 74, 90
8, 97019, Note_on_c, 6, 74, 0
8, 97020, Note_on_c, 6, 66, 90
8, 97049, Note_on_c, 6, 66, 0
8, 97050, Note_on_c, 6, 64, 90
8, 97079, Note_on_c, 6, 64, 0
8, 97080, Note_on_c, 6, 66, 90
8, 97109, Note_on_c, 6, 66, 0
8, 97110, Note_on_c, 6, 64, 90
8, 97139, Note_on_c, 6, 64, 0
8, 97140, Note_on_c, 6, 62, 90
8, 97199, Note_on_c, 6, 62, 0
8, 97680, Note_on_c, 6, 69, 90
8, 97739, Note_on_c, 6, 69, 0
8, 97740, Note_on_c, 6, 70, 90
8, 97799, Note_on_c, 6, 70, 0
8, 97800, Note_on_c, 6, 74, 90
8, 97859, Note_on_c, 6, 74, 0
8, 97860, Note_on_c, 6, 67, 90
8, 97919, Note_on_c, 6, 67, 0
8, 97920, Note_on_c, 6, 75, 90
8, 98009, Note_on_c, 6, 75, 0
8, 98010, Note_on_c, 6, 74, 90
8, 98039, Note_on_c, 6, 74, 0
8, 98040, Note_on_c, 6, 75, 90
8, 98069, Note_on_c, 6, 75, 0
8, 98070, Note_on_c, 6, 74, 90
8, 98099, Note_on_c, 6, 74, 0
8, 98100, Note_on_c, 6, 72, 90
8, 98159, Note_on_c, 6, 72, 0
8, 98640, Note_on_c, 6, 72, 90
8, 98699, Note_on_c, 6, 72, 0
8, 98700, Note_on_c, 6, 77, 90
8, 98759, Note_on_c, 6, 77, 0
8, 98760, Note_on_c, 6, 74, 90
8, 98819, Note_on_c, 6, 74, 0
8, 98820, Note_on_c, 6, 77, 90
8, 98879, Note_on_c, 6, 77, 0
8, 98880, Note_on_c, 6, 72, 90
8, 98939, Note_on_c, 6, 72, 0
8, 98940, Note_on_c, 6, 71, 90
8, 98969, Note_on_c, 6, 71, 0
8, 98970, Note_on_c, 6, 69, 90
8, 98999, Note_on_c, 6, 69, 0
8, 99000, Note_on_c, 6, 71, 90
8, 99029, Note_on_c, 6, 71, 0
8, 99030, Note_on_c, 6, 69, 90
8, 99059, Note_on_c, 6, 69, 0
8, 99060, Note_on_c, 6, 67, 90
8, 99119, Note_on_c, 6, 67, 0
8, 99120, Note_on_c, 6, 74, 90
8, 99179, Note_on_c, 6, 74, 0
8, 99180, Note_on_c, 6, 75, 90
8, 99239, Note_on_c, 6, 75, 0
8, 99240, Note_on_c, 6, 72, 90
8, 99299, Note_on_c, 6, 72, 0
8, 99300, Note_on_c, 6, 75, 90
8, 99359, Note_on_c, 6, 75, 0
8, 99360, Note_on_c, 6, 70, 90
8, 99419, Note_on_c, 6, 70, 0
8, 99420, Note_on_c, 6, 69, 90
8, 99449, Note_on_c, 6, 69, 0
8, 99450, Note_on_c, 6, 67, 90
8, 99479, Note_on_c, 6, 67, 0
8, 99480, Note_on_c, 6, 69, 90
8, 99509, Note_on_c, 6, 69, 0
8, 99510, Note_on_c, 6, 67, 90
8, 99539, Note_on_c, 6, 67, 0
8, 99540, Note_on_c, 6, 65, 90
8, 99599, Note_on_c, 6, 65, 0
8, 100560, Note_on_c, 6, 77, 90
8, 100619, Note_on_c, 6, 77, 0
8, 100620, Note_on_c, 6, 72, 90
8, 100679, Note_on_c, 6, 72, 0
8, 100680, Note_on_c, 6, 77, 90
8, 100739, Note_on_c, 6, 77, 0
8, 100740, Note_on_c, 6, 70, 90
8, 100799, Note_on_c, 6, 70, 0
8, 100800, Note_on_c, 6, 79, 90
8, 100859, Note_on_c, 6, 79, 0
8, 100860, Note_on_c, 6, 68, 90
8, 100889, Note_on_c, 6, 68, 0
8, 100890, Note_on_c, 6, 67, 90
8, 100919, Note_on_c, 6, 67, 0
8, 100920, Note_on_c, 6, 68, 90
8, 100949, Note_on_c, 6, 68, 0
8, 100950, Note_on_c, 6, 67, 90
8, 100979, Note_on_c, 6, 67, 0
8, 100980, Note_on_c, 6, 65, 90
8, 101039, Note_on_c, 6, 65, 0
8, 101040, Note_on_c, 6, 80, 90
8, 101099, Note_on_c, 6, 80, 0
8, 101100, Note_on_c, 6, 79, 90
8, 101159, Note_on_c, 6, 79, 0
8, 101160, Note_on_c, 6, 84, 90
8, 101279, Note_on_c, 6, 84, 0
8, 101280, Note_on_c, 6, 77, 90
8, 101339, Note_on_c, 6, 77, 0
8, 101340, Note_on_c, 6, 76, 90
8, 101369, Note_on_c, 6, 76, 0
8, 101370, Note_on_c, 6, 74, 90
8, 101399, Note_on_c, 6, 74, 0
8, 101400, Note_on_c, 6, 76, 90
8, 101429, Note_on_c, 6, 76, 0
8, 101430, Note_on_c, 6, 74, 90
8, 101459, Note_on_c, 6, 74, 0
8, 101460, Note_on_c, 6, 72, 90
8, 101519, Note_on_c, 6, 72, 0
8, 101520, Note_on_c, 6, 79, 90
8, 101579, Note_on_c, 6, 79, 0
8, 101580, Note_on_c, 6, 80, 90
8, 102540, Note_on_c, 6, 80, 0
8, 102540, Note_on_c, 6, 79, 90
8, 102569, Note_on_c, 6, 79, 0
8, 102570, Note_on_c, 6, 80, 90
8, 102599, Note_on_c, 6, 80, 0
8, 102600, Note_on_c, 6, 79, 90
8, 102629, Note_on_c, 6, 79, 0
8, 102630, Note_on_c, 6, 80, 90
8, 102659, Note_on_c, 6, 80, 0
8, 102660, Note_on_c, 6, 77, 90
8, 102689, Note_on_c, 6, 77, 0
8, 102690, Note_on_c, 6, 79, 90
8, 102719, Note_on_c, 6, 79, 0
8, 102720, Note_on_c, 6, 77, 90
8, 102749, Note_on_c, 6, 77, 0
8, 102750, Note_on_c, 6, 79, 90
8, 102779, Note_on_c, 6, 79, 0
8, 102780, Note_on_c, 6, 75, 90
8, 102809, Note_on_c, 6, 75, 0
8, 102810, Note_on_c, 6, 77, 90
8, 102839, Note_on_c, 6, 77, 0
8, 102840, Note_on_c, 6, 75, 90
8, 102869, Note_on_c, 6, 75, 0
8, 102870, Note_on_c, 6, 77, 90
8, 102899, Note_on_c, 6, 77, 0
8, 102900, Note_on_c, 6, 74, 90
8, 102929, Note_on_c, 6, 74, 0
8, 102930, Note_on_c, 6, 75, 90
8, 102959, Note_on_c, 6, 75, 0
8, 102960, Note_on_c, 6, 74, 90
8, 102989, Note_on_c, 6, 74, 0
8, 102990, Note_on_c, 6, 75, 90
8, 103019, Note_on_c, 6, 75, 0
8, 103020, Note_on_c, 6, 72, 90
8, 103049, Note_on_c, 6, 72, 0
8, 103050, Note_on_c, 6, 74, 90
8, 103079, Note_on_c, 6, 74, 0
8, 103080, Note_on_c, 6, 72, 90
8, 103109, Note_on_c, 6, 72, 0
8, 103110, Note_on_c, 6, 74, 90
8, 103139, Note_on_c, 6, 74, 0
8, 103140, Note_on_c, 6, 75, 90
8, 103169, Note_on_c, 6, 75, 0
8, 103170, Note_on_c, 6, 77, 90
8, 103199, Note_on_c, 6, 77, 0
8, 103200, Note_on_c, 6, 75, 90
8, 103229, Note_on_c, 6, 75, 0
8, 103230, Note_on_c, 6, 77, 90
8, 103259, Note_on_c, 6, 77, 0
8, 103260, Note_on_c, 6, 68, 90
8, 103289, Note_on_c, 6, 68, 0
8, 103290, Note_on_c, 6, 70, 90
8, 103319, Note_on_c, 6, 70, 0
8, 103320, Note_on_c, 6, 68, 90
8, 103349, Note_on_c, 6, 68, 0
8, 103350, Note_on_c, 6, 70, 90
8, 103379, Note_on_c, 6, 70, 0
8, 103380, Note_on_c, 6, 72, 90
8, 103439, Note_on_c, 6, 72, 0
8, 103440, Note_on_c, 6, 68, 90
8, 103499, Note_on_c, 6, 68, 0
8, 103500, Note_on_c, 6, 77, 90
8, 104460, Note_on_c, 6, 77, 0
8, 104460, Note_on_c, 6, 75, 90
8, 104489, Note_on_c, 6, 75, 0
8, 104490, Note_on_c, 6, 77, 90
8, 104519, Note_on_c, 6, 77, 0
8, 104520, Note_on_c, 6, 75, 90
8, 104549, Note_on_c, 6, 75, 0
8, 104550, Note_on_c, 6, 77, 90
8, 104579, Note_on_c, 6, 77, 0
8, 104580, Note_on_c, 6, 74, 90
8, 104609, Note_on_c, 6, 74, 0
8, 104610, Note_on_c, 6, 75, 90
8, 104639, Note_on_c, 6, 75, 0
8, 104640, Note_on_c, 6, 74, 90
8, 104669, Note_on_c, 6, 74, 0
8, 104670, Note_on_c, 6, 75, 90
8, 104699, Note_on_c, 6, 75, 0
8, 104700, Note_on_c, 6, 72, 90
8, 104759, Note_on_c, 6, 72, 0
8, 104760, Note_on_c, 6, 67, 90
8, 104819, Note_on_c, 6, 67, 0
8, 104820, Note_on_c, 6, 63, 90
8, 104879, Note_on_c, 6, 63, 0
8, 104880, Note_on_c, 6, 72, 90
8, 104939, Note_on_c, 6, 72, 0
8, 104940, Note_on_c, 6, 67, 90
8, 104999, Note_on_c, 6, 67, 0
8, 105000, Note_on_c, 6, 72, 90
8, 105059, Note_on_c, 6, 72, 0
8, 105060, Note_on_c, 6, 65, 90
8, 105119, Note_on_c, 6, 65, 0
8, 105120, Note_on_c, 6, 74, 90
8, 105179, Note_on_c, 6, 74, 0
8, 105180, Note_on_c, 6, 63, 90
8, 105209, Note_on_c, 6, 63, 0
8, 105210, Note_on_c, 6, 62, 90
8, 105239, Note_on_c, 6, 62, 0
8, 105240, Note_on_c, 6, 63, 90
8, 105269, Note_on_c, 6, 63, 0
8, 105270, Note_on_c, 6, 62, 90
8, 105299, Note_on_c, 6, 62, 0
8, 105300, Note_on_c, 6, 60, 90
8, 105329, Note_on_c, 6, 60, 0
8, 105330, Note_on_c, 6, 62, 90
8, 105359, Note_on_c, 6, 62, 0
8, 105360, Note_on_c, 6, 63, 90
8, 105389, Note_on_c, 6, 63, 0
8, 105390, Note_on_c, 6, 65, 90
8, 105419, Note_on_c, 6, 65, 0
8, 105420, Note_on_c, 6, 67, 90
8, 105449, Note_on_c, 6, 67, 0
8, 105450, Note_on_c, 6, 68, 90
8, 105479, Note_on_c, 6, 68, 0
8, 105480, Note_on_c, 6, 67, 90
8, 105509, Note_on_c, 6, 67, 0
8, 105510, Note_on_c, 6, 68, 90
8, 105539, Note_on_c, 6, 68, 0
8, 105540, Note_on_c, 6, 65, 90
8, 105569, Note_on_c, 6, 65, 0
8, 105570, Note_on_c, 6, 67, 90
8, 105599, Note_on_c, 6, 67, 0
8, 105600, Note_on_c, 6, 65, 90
8, 105629, Note_on_c, 6, 65, 0
8, 105630, Note_on_c, 6, 67, 90
8, 105659, Note_on_c, 6, 67, 0
8, 105660, Note_on_c, 6, 63, 90
8, 105719, Note_on_c, 6, 63, 0
8, 105720, Note_on_c, 6, 70, 90
8, 105779, Note_on_c, 6, 70, 0
8, 105780, Note_on_c, 6, 79, 90
8, 105839, Note_on_c, 6, 79, 0
8, 105840, Note_on_c, 6, 75, 90
8, 105899, Note_on_c, 6, 75, 0
8, 105900, Note_on_c, 6, 70, 90
8, 105959, Note_on_c, 6, 70, 0
8, 105960, Note_on_c, 6, 75, 90
8, 106019, Note_on_c, 6, 75, 0
8, 106020, Note_on_c, 6, 68, 90
8, 106079, Note_on_c, 6, 68, 0
8, 106080, Note_on_c, 6, 77, 90
8, 106139, Note_on_c, 6, 77, 0
8, 106140, Note_on_c, 6, 70, 90
8, 106169, Note_on_c, 6, 70, 0
8, 106170, Note_on_c, 6, 68, 90
8, 106199, Note_on_c, 6, 68, 0
8, 106200, Note_on_c, 6, 70, 90
8, 106229, Note_on_c, 6, 70, 0
8, 106230, Note_on_c, 6, 68, 90
8, 106259, Note_on_c, 6, 68, 0
8, 106260, Note_on_c, 6, 63, 90
8, 106319, Note_on_c, 6, 63, 0
8, 106320, Note_on_c, 6, 70, 90
8, 106439, Note_on_c, 6, 70, 0
8, 106440, Note_on_c, 6, 67, 90
8, 106469, Note_on_c, 6, 67, 0
8, 106470, Note_on_c, 6, 68, 90
8, 106499, Note_on_c, 6, 68, 0
8, 106500, Note_on_c, 6, 70, 90
8, 106559, Note_on_c, 6, 70, 0
8, 106560, Note_on_c, 6, 75, 90
8, 106679, Note_on_c, 6, 75, 0
8, 106680, Note_on_c, 6, 68, 90
8, 106739, Note_on_c, 6, 68, 0
8, 106740, Note_on_c, 6, 72, 90
8, 106799, Note_on_c, 6, 72, 0
8, 106800, Note_on_c, 6, 75, 90
8, 106859, Note_on_c, 6, 75, 0
8, 106860, Note_on_c, 6, 63, 90
8, 106889, Note_on_c, 6, 63, 0
8, 106890, Note_on_c, 6, 62, 90
8, 106919, Note_on_c, 6, 62, 0
8, 106920, Note_on_c, 6, 63, 90
8, 106949, Note_on_c, 6, 63, 0
8, 106950, Note_on_c, 6, 65, 90
8, 106979, Note_on_c, 6, 65, 0
8, 106980, Note_on_c, 6, 67, 90
8, 107009, Note_on_c, 6, 67, 0
8, 107010, Note_on_c, 6, 68, 90
8, 107039, Note_on_c, 6, 68, 0
8, 107040, Note_on_c, 6, 70, 90
8, 107069, Note_on_c, 6, 70, 0
8, 107070, Note_on_c, 6, 72, 90
8, 107099, Note_on_c, 6, 72, 0
8, 107100, Note_on_c, 6, 73, 90
8, 107129, Note_on_c, 6, 73, 0
8, 107130, Note_on_c, 6, 70, 90
8, 107159, Note_on_c, 6, 70, 0
8, 107160, Note_on_c, 6, 72, 90
8, 107189, Note_on_c, 6, 72, 0
8, 107190, Note_on_c, 6, 68, 90
8, 107219, Note_on_c, 6, 68, 0
8, 107220, Note_on_c, 6, 63, 90
8, 107249, Note_on_c, 6, 63, 0
8, 107250, Note_on_c, 6, 68, 90
8, 107279, Note_on_c, 6, 68, 0
8, 107280, Note_on_c, 6, 72, 90
8, 107399, Note_on_c, 6, 72, 0
8, 107400, Note_on_c, 6, 69, 90
8, 107429, Note_on_c, 6, 69, 0
8, 107430, Note_on_c, 6, 70, 90
8, 107459, Note_on_c, 6, 70, 0
8, 107460, Note_on_c, 6, 72, 90
8, 107519, Note_on_c, 6, 72, 0
8, 107520, Note_on_c, 6, 77, 90
8, 107639, Note_on_c, 6, 77, 0
8, 107640, Note_on_c, 6, 70, 90
8, 107699, Note_on_c, 6, 70, 0
8, 107700, Note_on_c, 6, 74, 90
8, 107759, Note_on_c, 6, 74, 0
8, 107760, Note_on_c, 6, 77, 90
8, 107819, Note_on_c, 6, 77, 0
8, 107820, Note_on_c, 6, 65, 90
8, 107849, Note_on_c, 6, 65, 0
8, 107850, Note_on_c, 6, 64, 90
8, 107879, Note_on_c, 6, 64, 0
8, 107880, Note_on_c, 6, 65, 90
8, 107909, Note_on_c, 6, 65, 0
8, 107910, Note_on_c, 6, 67, 90
8, 107939, Note_on_c, 6, 67, 0
8, 107940, Note_on_c, 6, 69, 90
8, 107969, Note_on_c, 6, 69, 0
8, 107970, Note_on_c, 6, 70, 90
8, 107999, Note_on_c, 6, 70, 0
8, 108000, Note_on_c, 6, 72, 90
8, 108029, Note_on_c, 6, 72, 0
8, 108030, Note_on_c, 6, 74, 90
8, 108059, Note_on_c, 6, 74, 0
8, 108060, Note_on_c, 6, 75, 90
8, 108089, Note_on_c, 6, 75, 0
8, 108090, Note_on_c, 6, 72, 90
8, 108119, Note_on_c, 6, 72, 0
8, 108120, Note_on_c, 6, 74, 90
8, 108149, Note_on_c, 6, 74, 0
8, 108150, Note_on_c, 6, 70, 90
8, 108179, Note_on_c, 6, 70, 0
8, 108180, Note_on_c, 6, 65, 90
8, 108209, Note_on_c, 6, 65, 0
8, 108210, Note_on_c, 6, 70, 90
8, 108239, Note_on_c, 6, 70, 0
8, 108240, Note_on_c, 6, 74, 90
8, 108359, Note_on_c, 6, 74, 0
8, 108360, Note_on_c, 6, 71, 90
8, 108389, Note_on_c, 6, 71, 0
8, 108390, Note_on_c, 6, 72, 90
8, 108419, Note_on_c, 6, 72, 0
8, 108420, Note_on_c, 6, 74, 90
8, 108479, Note_on_c, 6, 74, 0
8, 108480, Note_on_c, 6, 79, 90
8, 108599, Note_on_c, 6, 79, 0
8, 108600, Note_on_c, 6, 72, 90
8, 108659, Note_on_c, 6, 72, 0
8, 108660, Note_on_c, 6, 75, 90
8, 108719, Note_on_c, 6, 75, 0
8, 108720, Note_on_c, 6, 79, 90
8, 108779, Note_on_c, 6, 79, 0
8, 108780, Note_on_c, 6, 67, 90
8, 108809, Note_on_c, 6, 67, 0
8, 108810, Note_on_c, 6, 66, 90
8, 108839, Note_on_c, 6, 66, 0
8, 108840, Note_on_c, 6, 67, 90
8, 108869, Note_on_c, 6, 67, 0
8, 108870, Note_on_c, 6, 69, 90
8, 108899, Note_on_c, 6, 69, 0
8, 108900, Note_on_c, 6, 71, 90
8, 108929, Note_on_c, 6, 71, 0
8, 108930, Note_on_c, 6, 72, 90
8, 108959, Note_on_c, 6, 72, 0
8, 108960, Note_on_c, 6, 74, 90
8, 108989, Note_on_c, 6, 74, 0
8, 108990, Note_on_c, 6, 75, 90
8, 109019, Note_on_c, 6, 75, 0
8, 109020, Note_on_c, 6, 77, 90
8, 109049, Note_on_c, 6, 77, 0
8, 109050, Note_on_c, 6, 74, 90
8, 109079, Note_on_c, 6, 74, 0
8, 109080, Note_on_c, 6, 75, 90
8, 109109, Note_on_c, 6, 75, 0
8, 109110, Note_on_c, 6, 72, 90
8, 109139, Note_on_c, 6, 72, 0
8, 109140, Note_on_c, 6, 67, 90
8, 109169, Note_on_c, 6, 67, 0
8, 109170, Note_on_c, 6, 72, 90
8, 109199, Note_on_c, 6, 72, 0
8, 109200, Note_on_c, 6, 75, 90
8, 109229, Note_on_c, 6, 75, 0
8, 109230, Note_on_c, 6, 72, 90
8, 109259, Note_on_c, 6, 72, 0
8, 109260, Note_on_c, 6, 77, 90
8, 109379, Note_on_c, 6, 77, 0
8, 109380, Note_on_c, 6, 77, 90
8, 109499, Note_on_c, 6, 77, 0
8, 109500, Note_on_c, 6, 77, 90
8, 109619, Note_on_c, 6, 77, 0
8, 109650, Note_on_c, 6, 75, 90
8, 109679, Note_on_c, 6, 75, 0
8, 109680, Note_on_c, 6, 74, 90
8, 109709, Note_on_c, 6, 74, 0
8, 109710, Note_on_c, 6, 77, 90
8, 109739, Note_on_c, 6, 77, 0
8, 109740, Note_on_c, 6, 75, 90
8, 109769, Note_on_c, 6, 75, 0
8, 109770, Note_on_c, 6, 74, 90
8, 109799, Note_on_c, 6, 74, 0
8, 109800, Note_on_c, 6, 75, 90
8, 109889, Note_on_c, 6, 75, 0
8, 109890, Note_on_c, 6, 74, 90
8, 109919, Note_on_c, 6, 74, 0
8, 109920, Note_on_c, 6, 75, 90
8, 110009, Note_on_c, 6, 75, 0
8, 110010, Note_on_c, 6, 72, 90
8, 110039, Note_on_c, 6, 72, 0
8, 110040, Note_on_c, 6, 75, 90
8, 110159, Note_on_c, 6, 75, 0
8, 110160, Note_on_c, 6, 74, 90
8, 110189, Note_on_c, 6, 74, 0
8, 110190, Note_on_c, 6, 72, 90
8, 110219, Note_on_c, 6, 72, 0
8, 110220, Note_on_c, 6, 71, 90
8, 110279, Note_on_c, 6, 71, 0
8, 110280, Note_on_c, 6, 74, 90
8, 110339, Note_on_c, 6, 74, 0
8, 110340, Note_on_c, 6, 65, 90
8, 110399, Note_on_c, 6, 65, 0
8, 110400, Note_on_c, 6, 74, 90
8, 110459, Note_on_c, 6, 74, 0
8, 110460, Note_on_c, 6, 71, 90
8, 110519, Note_on_c, 6, 71, 0
8, 110520, Note_on_c, 6, 74, 90
8, 110579, Note_on_c, 6, 74, 0
8, 110580, Note_on_c, 6, 65, 90
8, 110639, Note_on_c, 6, 65, 0
8, 110640, Note_on_c, 6, 74, 90
8, 110699, Note_on_c, 6, 74, 0
8, 110700, Note_on_c, 6, 67, 90
8, 110759, Note_on_c, 6, 67, 0
8, 110760, Note_on_c, 6, 72, 90
8, 110819, Note_on_c, 6, 72, 0
8, 110820, Note_on_c, 6, 63, 90
8, 110879, Note_on_c, 6, 63, 0
8, 110880, Note_on_c, 6, 72, 90
8, 110939, Note_on_c, 6, 72, 0
8, 110940, Note_on_c, 6, 60, 90
8, 110969, Note_on_c, 6, 60, 0
8, 110970, Note_on_c, 6, 62, 90
8, 110999, Note_on_c, 6, 62, 0
8, 111000, Note_on_c, 6, 63, 90
8, 111029, Note_on_c, 6, 63, 0
8, 111030, Note_on_c, 6, 62, 90
8, 111059, Note_on_c, 6, 62, 0
8, 111060, Note_on_c, 6, 60, 90
8, 111119, Note_on_c, 6, 60, 0
8, 111120, Note_on_c, 6, 75, 90
8, 111179, Note_on_c, 6, 75, 0
8, 111180, Note_on_c, 6, 74, 90
8, 111209, Note_on_c, 6, 74, 0
8, 111210, Note_on_c, 6, 75, 90
8, 111239, Note_on_c, 6, 75, 0
8, 111240, Note_on_c, 6, 77, 90
8, 111329, Note_on_c, 6, 77, 0
8, 111330, Note_on_c, 6, 75, 90
8, 111359, Note_on_c, 6, 75, 0
8, 111360, Note_on_c, 6, 74, 90
8, 111389, Note_on_c, 6, 74, 0
8, 111390, Note_on_c, 6, 72, 90
8, 111419, Note_on_c, 6, 72, 0
8, 111420, Note_on_c, 6, 71, 90
8, 111449, Note_on_c, 6, 71, 0
8, 111450, Note_on_c, 6, 72, 90
8, 111479, Note_on_c, 6, 72, 0
8, 111480, Note_on_c, 6, 74, 90
8, 111509, Note_on_c, 6, 74, 0
8, 111510, Note_on_c, 6, 71, 90
8, 111539, Note_on_c, 6, 71, 0
8, 111540, Note_on_c, 6, 67, 90
8, 111599, Note_on_c, 6, 67, 0
8, 111600, Note_on_c, 6, 74, 90
8, 111659, Note_on_c, 6, 74, 0
8, 111660, Note_on_c, 6, 67, 90
8, 111719, Note_on_c, 6, 67, 0
8, 111720, Note_on_c, 6, 74, 90
8, 111779, Note_on_c, 6, 74, 0
8, 111780, Note_on_c, 6, 63, 90
8, 111839, Note_on_c, 6, 63, 0
8, 111840, Note_on_c, 6, 74, 90
8, 111899, Note_on_c, 6, 74, 0
8, 111900, Note_on_c, 6, 67, 90
8, 111959, Note_on_c, 6, 67, 0
8, 111960, Note_on_c, 6, 72, 90
8, 112019, Note_on_c, 6, 72, 0
8, 112020, Note_on_c, 6, 63, 90
8, 112079, Note_on_c, 6, 63, 0
8, 112080, Note_on_c, 6, 72, 90
8, 112139, Note_on_c, 6, 72, 0
8, 112140, Note_on_c, 6, 65, 90
8, 112199, Note_on_c, 6, 65, 0
8, 112200, Note_on_c, 6, 72, 90
8, 112259, Note_on_c, 6, 72, 0
8, 112260, Note_on_c, 6, 62, 90
8, 112319, Note_on_c, 6, 62, 0
8, 112320, Note_on_c, 6, 72, 90
8, 112379, Note_on_c, 6, 72, 0
8, 112380, Note_on_c, 6, 65, 90
8, 112439, Note_on_c, 6, 65, 0
8, 112440, Note_on_c, 6, 71, 90
8, 112499, Note_on_c, 6, 71, 0
8, 112500, Note_on_c, 6, 62, 90
8, 112559, Note_on_c, 6, 62, 0
8, 112560, Note_on_c, 6, 71, 90
8, 112619, Note_on_c, 6, 71, 0
8, 112620, Note_on_c, 6, 67, 90
8, 112679, Note_on_c, 6, 67, 0
8, 112680, Note_on_c, 6, 72, 90
8, 112739, Note_on_c, 6, 72, 0
8, 112740, Note_on_c, 6, 65, 90
8, 112799, Note_on_c, 6, 65, 0
8, 112800, Note_on_c, 6, 72, 90
8, 112859, Note_on_c, 6, 72, 0
8, 112860, Note_on_c, 6, 63, 90
8, 112889, Note_on_c, 6, 63, 0
8, 112890, Note_on_c, 6, 62, 90
8, 112919, Note_on_c, 6, 62, 0
8, 112920, Note_on_c, 6, 63, 90
8, 112949, Note_on_c, 6, 63, 0
8, 112950, Note_on_c, 6, 62, 90
8, 112979, Note_on_c, 6, 62, 0
8, 112980, Note_on_c, 6, 60, 90
8, 113039, Note_on_c, 6, 60, 0
8, 113040, Note_on_c, 6, 75, 90
8, 113099, Note_on_c, 6, 75, 0
8, 113100, Note_on_c, 6, 74, 90
8, 113159, Note_on_c, 6, 74, 0
8, 113160, Note_on_c, 6, 79, 90
8, 113279, Note_on_c, 6, 79, 0
8, 113280, Note_on_c, 6, 72, 90
8, 113339, Note_on_c, 6, 72, 0
8, 113340, Note_on_c, 6, 71, 90
8, 113369, Note_on_c, 6, 71, 0
8, 113370, Note_on_c, 6, 69, 90
8, 113399, Note_on_c, 6, 69, 0
8, 113400, Note_on_c, 6, 71, 90
8, 113429, Note_on_c, 6, 71, 0
8, 113430, Note_on_c, 6, 69, 90
8, 113459, Note_on_c, 6, 69, 0
8, 113460, Note_on_c, 6, 67, 90
8, 113519, Note_on_c, 6, 67, 0
8, 113520, Note_on_c, 6, 67, 90
8, 113579, Note_on_c, 6, 67, 0
8, 113580, Note_on_c, 6, 72, 90
8, 113639, Note_on_c, 6, 72, 0
8, 113640, Note_on_c, 6, 67, 90
8, 113699, Note_on_c, 6, 67, 0
8, 113700, Note_on_c, 6, 74, 90
8, 113759, Note_on_c, 6, 74, 0
8, 113760, Note_on_c, 6, 67, 90
8, 113819, Note_on_c, 6, 67, 0
8, 113820, Note_on_c, 6, 75, 90
8, 113879, Note_on_c, 6, 75, 0
8, 113880, Note_on_c, 6, 67, 90
8, 113939, Note_on_c, 6, 67, 0
8, 113940, Note_on_c, 6, 77, 90
8, 113999, Note_on_c, 6, 77, 0
8, 114000, Note_on_c, 6, 67, 90
8, 114059, Note_on_c, 6, 67, 0
8, 114060, Note_on_c, 6, 75, 90
8, 114089, Note_on_c, 6, 75, 0
8, 114090, Note_on_c, 6, 74, 90
8, 114119, Note_on_c, 6, 74, 0
8, 114120, Note_on_c, 6, 72, 90
8, 114149, Note_on_c, 6, 72, 0
8, 114150, Note_on_c, 6, 75, 90
8, 114179, Note_on_c, 6, 75, 0
8, 114180, Note_on_c, 6, 74, 90
8, 114209, Note_on_c, 6, 74, 0
8, 114210, Note_on_c, 6, 72, 90
8, 114239, Note_on_c, 6, 72, 0
8, 114240, Note_on_c, 6, 71, 90
8, 114269, Note_on_c, 6, 71, 0
8, 114270, Note_on_c, 6, 74, 90
8, 114299, Note_on_c, 6, 74, 0
8, 114300, Note_on_c, 6, 72, 90
8, 114329, Note_on_c, 6, 72, 0
8, 114330, Note_on_c, 6, 71, 90
8, 114359, Note_on_c, 6, 71, 0
8, 114360, Note_on_c, 6, 72, 90
8, 114389, Note_on_c, 6, 72, 0
8, 114390, Note_on_c, 6, 71, 90
8, 114419, Note_on_c, 6, 71, 0
8, 114420, Note_on_c, 6, 72, 90
8, 114449, Note_on_c, 6, 72, 0
8, 114450, Note_on_c, 6, 74, 90
8, 114479, Note_on_c, 6, 74, 0
8, 114480, Note_on_c, 6, 75, 90
8, 114509, Note_on_c, 6, 75, 0
8, 114510, Note_on_c, 6, 72, 90
8, 114539, Note_on_c, 6, 72, 0
8, 114540, Note_on_c, 6, 77, 90
8, 114599, Note_on_c, 6, 77, 0
8, 114600, Note_on_c, 6, 72, 90
8, 114659, Note_on_c, 6, 72, 0
8, 114660, Note_on_c, 6, 79, 90
8, 114719, Note_on_c, 6, 79, 0
8, 114720, Note_on_c, 6, 72, 90
8, 114779, Note_on_c, 6, 72, 0
8, 114780, Note_on_c, 6, 80, 90
8, 114839, Note_on_c, 6, 80, 0
8, 114840, Note_on_c, 6, 72, 90
8, 114899, Note_on_c, 6, 72, 0
8, 114900, Note_on_c, 6, 82, 90
8, 114959, Note_on_c, 6, 82, 0
8, 114960, Note_on_c, 6, 72, 90
8, 115019, Note_on_c, 6, 72, 0
8, 115020, Note_on_c, 6, 80, 90
8, 115049, Note_on_c, 6, 80, 0
8, 115050, Note_on_c, 6, 79, 90
8, 115079, Note_on_c, 6, 79, 0
8, 115080, Note_on_c, 6, 77, 90
8, 115109, Note_on_c, 6, 77, 0
8, 115110, Note_on_c, 6, 80, 90
8, 115139, Note_on_c, 6, 80, 0
8, 115140, Note_on_c, 6, 79, 90
8, 115169, Note_on_c, 6, 79, 0
8, 115170, Note_on_c, 6, 77, 90
8, 115199, Note_on_c, 6, 77, 0
8, 115200, Note_on_c, 6, 76, 90
8, 115229, Note_on_c, 6, 76, 0
8, 115230, Note_on_c, 6, 79, 90
8, 115259, Note_on_c, 6, 79, 0
8, 115260, Note_on_c, 6, 77, 90
8, 115319, Note_on_c, 6, 77, 0
8, 115320, Note_on_c, 6, 65, 90
8, 115379, Note_on_c, 6, 65, 0
8, 115380, Note_on_c, 6, 72, 90
8, 115559, Note_on_c, 6, 72, 0
8, 115560, Note_on_c, 6, 73, 90
8, 115589, Note_on_c, 6, 73, 0
8, 115590, Note_on_c, 6, 72, 90
8, 115619, Note_on_c, 6, 72, 0
8, 115620, Note_on_c, 6, 70, 90
8, 115679, Note_on_c, 6, 70, 0
8, 115680, Note_on_c, 6, 70, 90
8, 115739, Note_on_c, 6, 70, 0
8, 115740, Note_on_c, 6, 70, 90
8, 115754, Note_on_c, 6, 70, 0
8, 115755, Note_on_c, 6, 72, 90
8, 115769, Note_on_c, 6, 72, 0
8, 115770, Note_on_c, 6, 70, 90
8, 115799, Note_on_c, 6, 70, 0
8, 115800, Note_on_c, 6, 68, 90
8, 115859, Note_on_c, 6, 68, 0
8, 115920, Note_on_c, 6, 68, 90
8, 116039, Note_on_c, 6, 68, 0
8, 116040, Note_on_c, 6, 70, 90
8, 116069, Note_on_c, 6, 70, 0
8, 116070, Note_on_c, 6, 68, 90
8, 116099, Note_on_c, 6, 68, 0
8, 116100, Note_on_c, 6, 67, 90
8, 116159, Note_on_c, 6, 67, 0
8, 116160, Note_on_c, 6, 67, 90
8, 116219, Note_on_c, 6, 67, 0
8, 116220, Note_on_c, 6, 67, 90
8, 116234, Note_on_c, 6, 67, 0
8, 116235, Note_on_c, 6, 68, 90
8, 116249, Note_on_c, 6, 68, 0
8, 116250, Note_on_c, 6, 67, 90
8, 116279, Note_on_c, 6, 67, 0
8, 116280, Note_on_c, 6, 65, 90
8, 116339, Note_on_c, 6, 65, 0
8, 116400, Note_on_c, 6, 77, 90
8, 116429, Note_on_c, 6, 77, 0
8, 116430, Note_on_c, 6, 75, 90
8, 116459, Note_on_c, 6, 75, 0
8, 116460, Note_on_c, 6, 74, 90
8, 116519, Note_on_c, 6, 74, 0
8, 116520, Note_on_c, 6, 79, 90
8, 116579, Note_on_c, 6, 79, 0
8, 116580, Note_on_c, 6, 72, 90
8, 116639, Note_on_c, 6, 72, 0
8, 116640, Note_on_c, 6, 80, 90
8, 116699, Note_on_c, 6, 80, 0
8, 116700, Note_on_c, 6, 71, 90
8, 116729, Note_on_c, 6, 71, 0
8, 116730, Note_on_c, 6, 69, 90
8, 116759, Note_on_c, 6, 69, 0
8, 116760, Note_on_c, 6, 71, 90
8, 116789, Note_on_c, 6, 71, 0
8, 116790, Note_on_c, 6, 69, 90
8, 116819, Note_on_c, 6, 69, 0
8, 116820, Note_on_c, 6, 67, 90
8, 116879, Note_on_c, 6, 67, 0
8, 116880, Note_on_c, 6, 84, 90
8, 116939, Note_on_c, 6, 84, 0
8, 116940, Note_on_c, 6, 83, 90
8, 116969, Note_on_c, 6, 83, 0
8, 116970, Note_on_c, 6, 84, 90
8, 116999, Note_on_c, 6, 84, 0
8, 117000, Note_on_c, 6, 83, 90
8, 117029, Note_on_c, 6, 83, 0
8, 117030, Note_on_c, 6, 84, 90
8, 117059, Note_on_c, 6, 84, 0
8, 117060, Note_on_c, 6, 81, 90
8, 117089, Note_on_c, 6, 81, 0
8, 117090, Note_on_c, 6, 83, 90
8, 117119, Note_on_c, 6, 83, 0
8, 117120, Note_on_c, 6, 81, 90
8, 117149, Note_on_c, 6, 81, 0
8, 117150, Note_on_c, 6, 83, 90
8, 117179, Note_on_c, 6, 83, 0
8, 117180, Note_on_c, 6, 79, 90
8, 117239, Note_on_c, 6, 79, 0
8, 117240, Note_on_c, 6, 74, 90
8, 117299, Note_on_c, 6, 74, 0
8, 117300, Note_on_c, 6, 67, 90
8, 117359, Note_on_c, 6, 67, 0
8, 117360, Note_on_c, 6, 72, 90
8, 117419, Note_on_c, 6, 72, 0
8, 117420, Note_on_c, 6, 67, 90
8, 117479, Note_on_c, 6, 67, 0
8, 117480, Note_on_c, 6, 72, 90
8, 117539, Note_on_c, 6, 72, 0
8, 117540, Note_on_c, 6, 65, 90
8, 117599, Note_on_c, 6, 65, 0
8, 117600, Note_on_c, 6, 72, 90
8, 117659, Note_on_c, 6, 72, 0
8, 117660, Note_on_c, 6, 63, 90
8, 117689, Note_on_c, 6, 63, 0
8, 117690, Note_on_c, 6, 62, 90
8, 117719, Note_on_c, 6, 62, 0
8, 117720, Note_on_c, 6, 63, 90
8, 117749, Note_on_c, 6, 63, 0
8, 117750, Note_on_c, 6, 62, 90
8, 117779, Note_on_c, 6, 62, 0
8, 117780, Note_on_c, 6, 60, 90
8, 117839, Note_on_c, 6, 60, 0
8, 117840, Note_on_c, 6, 75, 90
8, 117899, Note_on_c, 6, 75, 0
8, 117900, Note_on_c, 6, 74, 90
8, 117959, Note_on_c, 6, 74, 0
8, 117960, Note_on_c, 6, 79, 90
8, 118079, Note_on_c, 6, 79, 0
8, 118080, Note_on_c, 6, 72, 90
8, 118139, Note_on_c, 6, 72, 0
8, 118140, Note_on_c, 6, 71, 90
8, 118169, Note_on_c, 6, 71, 0
8, 118170, Note_on_c, 6, 69, 90
8, 118199, Note_on_c, 6, 69, 0
8, 118200, Note_on_c, 6, 71, 90
8, 118229, Note_on_c, 6, 71, 0
8, 118230, Note_on_c, 6, 69, 90
8, 118259, Note_on_c, 6, 69, 0
8, 118260, Note_on_c, 6, 67, 90
8, 118289, Note_on_c, 6, 67, 0
8, 118290, Note_on_c, 6, 69, 90
8, 118319, Note_on_c, 6, 69, 0
8, 118320, Note_on_c, 6, 71, 90
8, 118349, Note_on_c, 6, 71, 0
8, 118350, Note_on_c, 6, 67, 90
8, 118379, Note_on_c, 6, 67, 0
8, 118380, Note_on_c, 6, 72, 90
8, 118439, Note_on_c, 6, 72, 0
8, 118440, Note_on_c, 6, 67, 90
8, 118499, Note_on_c, 6, 67, 0
8, 118500, Note_on_c, 6, 74, 90
8, 118559, Note_on_c, 6, 74, 0
8, 118560, Note_on_c, 6, 67, 90
8, 118619, Note_on_c, 6, 67, 0
8, 118620, Note_on_c, 6, 67, 100
8, 118620, Note_on_c, 6, 72, 100
8, 118620, Note_on_c, 6, 77, 90
8, 118679, Note_on_c, 6, 77, 0
8, 118680, Note_on_c, 6, 75, 90
8, 118740, Note_on_c, 6, 72, 0
8, 118740, Note_on_c, 6, 67, 0
8, 118769, Note_on_c, 6, 75, 0
8, 118770, Note_on_c, 6, 72, 90
8, 118799, Note_on_c, 6, 72, 0
8, 118800, Note_on_c, 6, 74, 90
8, 118829, Note_on_c, 6, 74, 0
8, 118830, Note_on_c, 6, 76, 90
8, 118859, Note_on_c, 6, 76, 0
8, 118860, Note_on_c, 6, 77, 90
8, 118919, Note_on_c, 6, 77, 0
8, 118920, Note_on_c, 6, 72, 90
8, 118979, Note_on_c, 6, 72, 0
8, 118980, Note_on_c, 6, 79, 90
8, 119039, Note_on_c, 6, 79, 0
8, 119040, Note_on_c, 6, 72, 90
8, 119099, Note_on_c, 6, 72, 0
8, 119100, Note_on_c, 6, 72, 100
8, 119100, Note_on_c, 6, 77, 100
8, 119100, Note_on_c, 6, 82, 90
8, 119159, Note_on_c, 6, 82, 0
8, 119160, Note_on_c, 6, 80, 90
8, 119220, Note_on_c, 6, 77, 0
8, 119220, Note_on_c, 6, 72, 0
8, 119249, Note_on_c, 6, 80, 0
8, 119250, Note_on_c, 6, 79, 90
8, 119279, Note_on_c, 6, 79, 0
8, 119280, Note_on_c, 6, 80, 90
8, 119309, Note_on_c, 6, 80, 0
8, 119310, Note_on_c, 6, 77, 90
8, 119339, Note_on_c, 6, 77, 0
8, 119340, Note_on_c, 6, 72, 90
8, 119369, Note_on_c, 6, 72, 0
8, 119370, Note_on_c, 6, 71, 90
8, 119399, Note_on_c, 6, 71, 0
8, 119400, Note_on_c, 6, 72, 90
8, 119429, Note_on_c, 6, 72, 0
8, 119430, Note_on_c, 6, 74, 90
8, 119459, Note_on_c, 6, 74, 0
8, 119460, Note_on_c, 6, 76, 90
8, 119489, Note_on_c, 6, 76, 0
8, 119490, Note_on_c, 6, 77, 90
8, 119519, Note_on_c, 6, 77, 0
8, 119520, Note_on_c, 6, 79, 90
8, 119549, Note_on_c, 6, 79, 0
8, 119550, Note_on_c, 6, 80, 90
8, 119579, Note_on_c, 6, 80, 0
8, 119580, Note_on_c, 6, 82, 90
8, 119609, Note_on_c, 6, 82, 0
8, 119610, Note_on_c, 6, 79, 90
8, 119639, Note_on_c, 6, 79, 0
8, 119640, Note_on_c, 6, 80, 90
8, 119669, Note_on_c, 6, 80, 0
8, 119670, Note_on_c, 6, 77, 90
8, 119699, Note_on_c, 6, 77, 0
8, 119700, Note_on_c, 6, 72, 90
8, 119729, Note_on_c, 6, 72, 0
8, 119730, Note_on_c, 6, 77, 90
8, 119759, Note_on_c, 6, 77, 0
8, 119760, Note_on_c, 6, 80, 90
8, 119789, Note_on_c, 6, 80, 0
8, 119790, Note_on_c, 6, 77, 90
8, 119819, Note_on_c, 6, 77, 0
8, 119820, Note_on_c, 6, 72, 90
8, 119849, Note_on_c, 6, 72, 0
8, 119850, Note_on_c, 6, 71, 90
8, 119879, Note_on_c, 6, 71, 0
8, 119880, Note_on_c, 6, 72, 90
8, 119909, Note_on_c, 6, 72, 0
8, 119910, Note_on_c, 6, 74, 90
8, 119939, Note_on_c, 6, 74, 0
8, 119940, Note_on_c, 6, 76, 90
8, 119969, Note_on_c, 6, 76, 0
8, 119970, Note_on_c, 6, 77, 90
8, 119999, Note_on_c, 6, 77, 0
8, 120000, Note_on_c, 6, 79, 90
8, 120029, Note_on_c, 6, 79, 0
8, 120030, Note_on_c, 6, 80, 90
8, 120059, Note_on_c, 6, 80, 0
8, 120060, Note_on_c, 6, 82, 90
8, 120089, Note_on_c, 6, 82, 0
8, 120090, Note_on_c, 6, 79, 90
8, 120119, Note_on_c, 6, 79, 0
8, 120120, Note_on_c, 6, 80, 90
8, 120149, Note_on_c, 6, 80, 0
8, 120150, Note_on_c, 6, 77, 90
8, 120179, Note_on_c, 6, 77, 0
8, 120180, Note_on_c, 6, 72, 90
8, 120209, Note_on_c, 6, 72, 0
8, 120210, Note_on_c, 6, 77, 90
8, 120239, Note_on_c, 6, 77, 0
8, 120240, Note_on_c, 6, 80, 90
8, 120269, Note_on_c, 6, 80, 0
8, 120270, Note_on_c, 6, 77, 90
8, 120299, Note_on_c, 6, 77, 0
8, 120300, Note_on_c, 6, 70, 90
8, 120329, Note_on_c, 6, 70, 0
8, 120330, Note_on_c, 6, 69, 90
8, 120359, Note_on_c, 6, 69, 0
8, 120360, Note_on_c, 6, 70, 90
8, 120389, Note_on_c, 6, 70, 0
8, 120390, Note_on_c, 6, 72, 90
8, 120419, Note_on_c, 6, 72, 0
8, 120420, Note_on_c, 6, 74, 90
8, 120449, Note_on_c, 6, 74, 0
8, 120450, Note_on_c, 6, 75, 90
8, 120479, Note_on_c, 6, 75, 0
8, 120480, Note_on_c, 6, 77, 90
8, 120509, Note_on_c, 6, 77, 0
8, 120510, Note_on_c, 6, 79, 90
8, 120539, Note_on_c, 6, 79, 0
8, 120540, Note_on_c, 6, 80, 90
8, 120569, Note_on_c, 6, 80, 0
8, 120570, Note_on_c, 6, 77, 90
8, 120599, Note_on_c, 6, 77, 0
8, 120600, Note_on_c, 6, 79, 90
8, 120629, Note_on_c, 6, 79, 0
8, 120630, Note_on_c, 6, 75, 90
8, 120659, Note_on_c, 6, 75, 0
8, 120660, Note_on_c, 6, 70, 90
8, 120689, Note_on_c, 6, 70, 0
8, 120690, Note_on_c, 6, 75, 90
8, 120719, Note_on_c, 6, 75, 0
8, 120720, Note_on_c, 6, 79, 90
8, 120749, Note_on_c, 6, 79, 0
8, 120750, Note_on_c, 6, 75, 90
8, 120779, Note_on_c, 6, 75, 0
8, 120780, Note_on_c, 6, 70, 90
8, 120809, Note_on_c, 6, 70, 0
8, 120810, Note_on_c, 6, 69, 90
8, 120839, Note_on_c, 6, 69, 0
8, 120840, Note_on_c, 6, 70, 90
8, 120869, Note_on_c, 6, 70, 0
8, 120870, Note_on_c, 6, 72, 90
8, 120899, Note_on_c, 6, 72, 0
8, 120900, Note_on_c, 6, 74, 90
8, 120929, Note_on_c, 6, 74, 0
8, 120930, Note_on_c, 6, 75, 90
8, 120959, Note_on_c, 6, 75, 0
8, 120960, Note_on_c, 6, 77, 90
8, 120989, Note_on_c, 6, 77, 0
8, 120990, Note_on_c, 6, 79, 90
8, 121019, Note_on_c, 6, 79, 0
8, 121020, Note_on_c, 6, 80, 90
8, 121049, Note_on_c, 6, 80, 0
8, 121050, Note_on_c, 6, 77, 90
8, 121079, Note_on_c, 6, 77, 0
8, 121080, Note_on_c, 6, 79, 90
8, 121109, Note_on_c, 6, 79, 0
8, 121110, Note_on_c, 6, 75, 90
8, 121139, Note_on_c, 6, 75, 0
8, 121140, Note_on_c, 6, 70, 90
8, 121169, Note_on_c, 6, 70, 0
8, 121170, Note_on_c, 6, 75, 90
8, 121199, Note_on_c, 6, 75, 0
8, 121200, Note_on_c, 6, 79, 90
8, 121229, Note_on_c, 6, 79, 0
8, 121230, Note_on_c, 6, 75, 90
8, 121259, Note_on_c, 6, 75, 0
8, 121260, Note_on_c, 6, 77, 90
8, 121319, Note_on_c, 6, 77, 0
8, 121380, Note_on_c, 6, 77, 90
8, 121439, Note_on_c, 6, 77, 0
8, 121500, Note_on_c, 6, 77, 90
8, 121619, Note_on_c, 6, 77, 0
8, 121650, Note_on_c, 6, 75, 90
8, 121679, Note_on_c, 6, 75, 0
8, 121680, Note_on_c, 6, 74, 90
8, 121709, Note_on_c, 6, 74, 0
8, 121710, Note_on_c, 6, 77, 90
8, 121739, Note_on_c, 6, 77, 0
8, 121740, Note_on_c, 6, 75, 90
8, 121769, Note_on_c, 6, 75, 0
8, 121770, Note_on_c, 6, 74, 90
8, 121799, Note_on_c, 6, 74, 0
8, 121800, Note_on_c, 6, 75, 90
8, 121889, Note_on_c, 6, 75, 0
8, 121890, Note_on_c, 6, 74, 90
8, 121919, Note_on_c, 6, 74, 0
8, 121920, Note_on_c, 6, 75, 90
8, 122009, Note_on_c, 6, 75, 0
8, 122010, Note_on_c, 6, 72, 90
8, 122039, Note_on_c, 6, 72, 0
8, 122040, Note_on_c, 6, 75, 90
8, 122159, Note_on_c, 6, 75, 0
8, 122160, Note_on_c, 6, 74, 90
8, 122189, Note_on_c, 6, 74, 0
8, 122190, Note_on_c, 6, 72, 90
8, 122219, Note_on_c, 6, 72, 0
8, 122220, Note_on_c, 6, 71, 90
8, 122279, Note_on_c, 6, 71, 0
8, 122280, Note_on_c, 6, 74, 90
8, 122339, Note_on_c, 6, 74, 0
8, 122340, Note_on_c, 6, 65, 90
8, 122399, Note_on_c, 6, 65, 0
8, 122400, Note_on_c, 6, 74, 90
8, 122459, Note_on_c, 6, 74, 0
8, 122460, Note_on_c, 6, 63, 90
8, 122489, Note_on_c, 6, 63, 0
8, 122490, Note_on_c, 6, 62, 90
8, 122519, Note_on_c, 6, 62, 0
8, 122520, Note_on_c, 6, 63, 90
8, 122549, Note_on_c, 6, 63, 0
8, 122550, Note_on_c, 6, 62, 90
8, 122579, Note_on_c, 6, 62, 0
8, 122580, Note_on_c, 6, 60, 90
8, 122639, Note_on_c, 6, 60, 0
8, 122640, Note_on_c, 6, 75, 90
8, 122669, Note_on_c, 6, 75, 0
8, 122670, Note_on_c, 6, 77, 90
8, 122699, Note_on_c, 6, 77, 0
8, 122700, Note_on_c, 6, 79, 90
8, 122759, Note_on_c, 6, 79, 0
8, 122760, Note_on_c, 6, 72, 90
8, 122819, Note_on_c, 6, 72, 0
8, 122820, Note_on_c, 6, 67, 90
8, 122879, Note_on_c, 6, 67, 0
8, 122880, Note_on_c, 6, 62, 90
8, 122880, Note_on_c, 6, 65, 90
8, 122880, Note_on_c, 6, 67, 90
8, 122880, Note_on_c, 6, 71, 90
8, 122939, Note_on_c, 6, 71, 0
8, 122939, Note_on_c, 6, 62, 0
8, 122939, Note_on_c, 6, 65, 0
8, 122939, Note_on_c, 6, 67, 0
8, 122940, Note_on_c, 6, 60, 100
8, 122940, Note_on_c, 6, 63, 100
8, 122940, Note_on_c, 6, 67, 100
8, 122940, Note_on_c, 6, 72, 90
8, 123059, Note_on_c, 6, 72, 0
8, 123060, Note_on_c, 6, 60, 0
8, 123060, Note_on_c, 6, 63, 0
8, 123060, Note_on_c, 6, 67, 0
8, 123060, End_track
9, 0, Start_track
9, 0, MIDI_port, 0
9, 0, Title_t, "clave ii l"
9, 0, Program_c, 7, 6
9, 0, Note_on_c, 7, 60, 100
9, 0, Note_on_c, 7, 51, 100
9, 0, Note_on_c, 7, 55, 100
9, 0, Note_on_c, 7, 48, 100
9, 120, Note_on_c, 7, 48, 0
9, 120, Note_on_c, 7, 60, 0
9, 120, Note_on_c, 7, 51, 0
9, 120, Note_on_c, 7, 55, 0
9, 240, Note_on_c, 7, 60, 100
9, 360, Note_on_c, 7, 60, 0
9, 480, Note_on_c, 7, 51, 100
9, 480, Note_on_c, 7, 55, 100
9, 480, Note_on_c, 7, 48, 100
9, 540, Note_on_c, 7, 48, 0
9, 540, Note_on_c, 7, 55, 0
9, 540, Note_on_c, 7, 51, 0
9, 540, Note_on_c, 7, 60, 100
9, 600, Note_on_c, 7, 60, 0
9, 600, Note_on_c, 7, 56, 100
9, 660, Note_on_c, 7, 56, 0
9, 660, Note_on_c, 7, 53, 100
9, 720, Note_on_c, 7, 53, 0
9, 720, Note_on_c, 7, 46, 100
9, 780, Note_on_c, 7, 46, 0
9, 780, Note_on_c, 7, 58, 100
9, 840, Note_on_c, 7, 58, 0
9, 960, Note_on_c, 7, 53, 100
9, 960, Note_on_c, 7, 46, 100
9, 960, Note_on_c, 7, 50, 100
9, 960, Note_on_c, 7, 58, 100
9, 1080, Note_on_c, 7, 58, 0
9, 1080, Note_on_c, 7, 53, 0
9, 1080, Note_on_c, 7, 46, 0
9, 1080, Note_on_c, 7, 50, 0
9, 1200, Note_on_c, 7, 58, 100
9, 1320, Note_on_c, 7, 58, 0
9, 1440, Note_on_c, 7, 53, 100
9, 1440, Note_on_c, 7, 46, 100
9, 1440, Note_on_c, 7, 50, 100
9, 1500, Note_on_c, 7, 50, 0
9, 1500, Note_on_c, 7, 46, 0
9, 1500, Note_on_c, 7, 53, 0
9, 1500, Note_on_c, 7, 58, 100
9, 1560, Note_on_c, 7, 58, 0
9, 1560, Note_on_c, 7, 55, 100
9, 1620, Note_on_c, 7, 55, 0
9, 1620, Note_on_c, 7, 51, 100
9, 1680, Note_on_c, 7, 51, 0
9, 1680, Note_on_c, 7, 44, 100
9, 1740, Note_on_c, 7, 44, 0
9, 1740, Note_on_c, 7, 56, 100
9, 1800, Note_on_c, 7, 56, 0
9, 1920, Note_on_c, 7, 44, 100
9, 1980, Note_on_c, 7, 44, 0
9, 1980, Note_on_c, 7, 48, 100
9, 2010, Note_on_c, 7, 48, 0
9, 2010, Note_on_c, 7, 46, 100
9, 2040, Note_on_c, 7, 46, 0
9, 2040, Note_on_c, 7, 44, 100
9, 2100, Note_on_c, 7, 44, 0
9, 2100, Note_on_c, 7, 48, 100
9, 2130, Note_on_c, 7, 48, 0
9, 2130, Note_on_c, 7, 46, 100
9, 2160, Note_on_c, 7, 46, 0
9, 2160, Note_on_c, 7, 44, 100
9, 2160, Note_on_c, 7, 60, 100
9, 2190, Note_on_c, 7, 60, 0
9, 2190, Note_on_c, 7, 58, 100
9, 2220, Note_on_c, 7, 58, 0
9, 2220, Note_on_c, 7, 44, 0
9, 2220, Note_on_c, 7, 48, 100
9, 2220, Note_on_c, 7, 56, 100
9, 2250, Note_on_c, 7, 56, 0
9, 2250, Note_on_c, 7, 48, 0
9, 2250, Note_on_c, 7, 46, 100
9, 2250, Note_on_c, 7, 55, 100
9, 2280, Note_on_c, 7, 55, 0
9, 2280, Note_on_c, 7, 46, 0
9, 2280, Note_on_c, 7, 44, 100
9, 2280, Note_on_c, 7, 53, 100
9, 2340, Note_on_c, 7, 53, 0
9, 2340, Note_on_c, 7, 44, 0
9, 2340, Note_on_c, 7, 43, 100
9, 2400, Note_on_c, 7, 43, 0
9, 2400, Note_on_c, 7, 41, 100
9, 2460, Note_on_c, 7, 41, 0
9, 2460, Note_on_c, 7, 44, 100
9, 2490, Note_on_c, 7, 44, 0
9, 2490, Note_on_c, 7, 43, 100
9, 2520, Note_on_c, 7, 43, 0
9, 2520, Note_on_c, 7, 41, 100
9, 2580, Note_on_c, 7, 41, 0
9, 2580, Note_on_c, 7, 44, 100
9, 2610, Note_on_c, 7, 44, 0
9, 2610, Note_on_c, 7, 43, 100
9, 2640, Note_on_c, 7, 43, 0
9, 2640, Note_on_c, 7, 56, 100
9, 2640, Note_on_c, 7, 41, 100
9, 2670, Note_on_c, 7, 56, 0
9, 2670, Note_on_c, 7, 55, 100
9, 2700, Note_on_c, 7, 55, 0
9, 2700, Note_on_c, 7, 41, 0
9, 2700, Note_on_c, 7, 44, 100
9, 2700, Note_on_c, 7, 53, 100
9, 2730, Note_on_c, 7, 53, 0
9, 2730, Note_on_c, 7, 44, 0
9, 2730, Note_on_c, 7, 43, 100
9, 2730, Note_on_c, 7, 51, 100
9, 2760, Note_on_c, 7, 51, 0
9, 2760, Note_on_c, 7, 43, 0
9, 2760, Note_on_c, 7, 49, 100
9, 2760, Note_on_c, 7, 41, 100
9, 2820, Note_on_c, 7, 41, 0
9, 2820, Note_on_c, 7, 49, 0
9, 2880, Note_on_c, 7, 41, 100
9, 2940, Note_on_c, 7, 65, 100
9, 2970, Note_on_c, 7, 65, 0
9, 2970, Note_on_c, 7, 63, 100
9, 3000, Note_on_c, 7, 63, 0
9, 3000, Note_on_c, 7, 41, 0
9, 3000, Note_on_c, 7, 62, 100
9, 3030, Note_on_c, 7, 62, 0
9, 3030, Note_on_c, 7, 60, 100
9, 3060, Note_on_c, 7, 60, 0
9, 3060, Note_on_c, 7, 59, 100
9, 3090, Note_on_c, 7, 59, 0
9, 3090, Note_on_c, 7, 60, 100
9, 3120, Note_on_c, 7, 60, 0
9, 3120, Note_on_c, 7, 50, 100
9, 3120, Note_on_c, 7, 62, 100
9, 3180, Note_on_c, 7, 62, 0
9, 3180, Note_on_c, 7, 50, 0
9, 3180, Note_on_c, 7, 48, 100
9, 3180, Note_on_c, 7, 60, 100
9, 3210, Note_on_c, 7, 60, 0
9, 3210, Note_on_c, 7, 59, 100
9, 3240, Note_on_c, 7, 59, 0
9, 3240, Note_on_c, 7, 48, 0
9, 3240, Note_on_c, 7, 56, 100
9, 3240, Note_on_c, 7, 60, 100
9, 3300, Note_on_c, 7, 60, 0
9, 3300, Note_on_c, 7, 56, 0
9, 3300, Note_on_c, 7, 53, 100
9, 3300, Note_on_c, 7, 56, 100
9, 3360, Note_on_c, 7, 56, 0
9, 3360, Note_on_c, 7, 53, 0
9, 3360, Note_on_c, 7, 55, 100
9, 3420, Note_on_c, 7, 55, 0
9, 3420, Note_on_c, 7, 53, 100
9, 3480, Note_on_c, 7, 53, 0
9, 3480, Note_on_c, 7, 55, 100
9, 3540, Note_on_c, 7, 55, 0
9, 3540, Note_on_c, 7, 43, 100
9, 3600, Note_on_c, 7, 43, 0
9, 3600, Note_on_c, 7, 36, 100
9, 3600, Note_on_c, 7, 48, 100
9, 3720, Note_on_c, 7, 48, 0
9, 3720, Note_on_c, 7, 36, 0
9, 3750, Note_on_c, 7, 59, 100
9, 3780, Note_on_c, 7, 59, 0
9, 3780, Note_on_c, 7, 60, 100
9, 3810, Note_on_c, 7, 60, 0
9, 3810, Note_on_c, 7, 62, 100
9, 3840, Note_on_c, 7, 62, 0
9, 3840, Note_on_c, 7, 63, 100
9, 3900, Note_on_c, 7, 63, 0
9, 3990, Note_on_c, 7, 60, 100
9, 4020, Note_on_c, 7, 60, 0
9, 4020, Note_on_c, 7, 59, 100
9, 4050, Note_on_c, 7, 59, 0
9, 4050, Note_on_c, 7, 60, 100
9, 4080, Note_on_c, 7, 60, 0
9, 4080, Note_on_c, 7, 48, 100
9, 4140, Note_on_c, 7, 48, 0
9, 4230, Note_on_c, 7, 60, 100
9, 4260, Note_on_c, 7, 60, 0
9, 4260, Note_on_c, 7, 59, 100
9, 4290, Note_on_c, 7, 59, 0
9, 4290, Note_on_c, 7, 60, 100
9, 4320, Note_on_c, 7, 60, 0
9, 4320, Note_on_c, 7, 48, 100
9, 4380, Note_on_c, 7, 48, 0
9, 4470, Note_on_c, 7, 60, 100
9, 4500, Note_on_c, 7, 60, 0
9, 4500, Note_on_c, 7, 59, 100
9, 4530, Note_on_c, 7, 59, 0
9, 4530, Note_on_c, 7, 60, 100
9, 4560, Note_on_c, 7, 60, 0
9, 4560, Note_on_c, 7, 48, 100
9, 4620, Note_on_c, 7, 48, 0
9, 4710, Note_on_c, 7, 48, 100
9, 4740, Note_on_c, 7, 48, 0
9, 4740, Note_on_c, 7, 47, 100
9, 4770, Note_on_c, 7, 47, 0
9, 4770, Note_on_c, 7, 45, 100
9, 4800, Note_on_c, 7, 45, 0
9, 4800, Note_on_c, 7, 43, 100
9, 4830, Note_on_c, 7, 43, 0
9, 4830, Note_on_c, 7, 55, 100
9, 4860, Note_on_c, 7, 55, 0
9, 4860, Note_on_c, 7, 54, 100
9, 4890, Note_on_c, 7, 54, 0
9, 4890, Note_on_c, 7, 55, 100
9, 4920, Note_on_c, 7, 55, 0
9, 4920, Note_on_c, 7, 59, 100
9, 4980, Note_on_c, 7, 59, 0
9, 5070, Note_on_c, 7, 59, 100
9, 5100, Note_on_c, 7, 59, 0
9, 5100, Note_on_c, 7, 62, 100
9, 5130, Note_on_c, 7, 62, 0
9, 5130, Note_on_c, 7, 65, 100
9, 5160, Note_on_c, 7, 65, 0
9, 5160, Note_on_c, 7, 63, 100
9, 5220, Note_on_c, 7, 63, 0
9, 5310, Note_on_c, 7, 62, 100
9, 5340, Note_on_c, 7, 62, 0
9, 5340, Note_on_c, 7, 59, 100
9, 5370, Note_on_c, 7, 59, 0
9, 5370, Note_on_c, 7, 55, 100
9, 5400, Note_on_c, 7, 55, 0
9, 5400, Note_on_c, 7, 60, 100
9, 5430, Note_on_c, 7, 60, 0
9, 5430, Note_on_c, 7, 55, 100
9, 5460, Note_on_c, 7, 55, 0
9, 5460, Note_on_c, 7, 51, 100
9, 5490, Note_on_c, 7, 51, 0
9, 5490, Note_on_c, 7, 48, 100
9, 5520, Note_on_c, 7, 48, 0
9, 5520, Note_on_c, 7, 55, 100
9, 5550, Note_on_c, 7, 55, 0
9, 5550, Note_on_c, 7, 43, 100
9, 5580, Note_on_c, 7, 43, 0
9, 5580, Note_on_c, 7, 55, 100
9, 5610, Note_on_c, 7, 55, 0
9, 5610, Note_on_c, 7, 53, 100
9, 5640, Note_on_c, 7, 53, 0
9, 5640, Note_on_c, 7, 51, 100
9, 5670, Note_on_c, 7, 51, 0
9, 5670, Note_on_c, 7, 50, 100
9, 5700, Note_on_c, 7, 50, 0
9, 5700, Note_on_c, 7, 48, 100
9, 5730, Note_on_c, 7, 48, 0
9, 5730, Note_on_c, 7, 47, 100
9, 5760, Note_on_c, 7, 47, 0
9, 5760, Note_on_c, 7, 55, 100
9, 5760, Note_on_c, 7, 48, 100
9, 5760, Note_on_c, 7, 51, 100
9, 5760, Note_on_c, 7, 60, 100
9, 5880, Note_on_c, 7, 60, 0
9, 5880, Note_on_c, 7, 55, 0
9, 5880, Note_on_c, 7, 48, 0
9, 5880, Note_on_c, 7, 51, 0
9, 6000, Note_on_c, 7, 60, 100
9, 6120, Note_on_c, 7, 60, 0
9, 6240, Note_on_c, 7, 51, 100
9, 6240, Note_on_c, 7, 55, 100
9, 6240, Note_on_c, 7, 48, 100
9, 6300, Note_on_c, 7, 48, 0
9, 6300, Note_on_c, 7, 55, 0
9, 6300, Note_on_c, 7, 51, 0
9, 6300, Note_on_c, 7, 60, 100
9, 6360, Note_on_c, 7, 60, 0
9, 6360, Note_on_c, 7, 56, 100
9, 6420, Note_on_c, 7, 56, 0
9, 6420, Note_on_c, 7, 53, 100
9, 6480, Note_on_c, 7, 53, 0
9, 6480, Note_on_c, 7, 46, 100
9, 6510, Note_on_c, 7, 46, 0
9, 6510, Note_on_c, 7, 53, 100
9, 6540, Note_on_c, 7, 53, 0
9, 6540, Note_on_c, 7, 58, 100
9, 6570, Note_on_c, 7, 58, 0
9, 6570, Note_on_c, 7, 60, 100
9, 6600, Note_on_c, 7, 60, 0
9, 6600, Note_on_c, 7, 62, 100
9, 6630, Note_on_c, 7, 62, 0
9, 6630, Note_on_c, 7, 63, 100
9, 6660, Note_on_c, 7, 63, 0
9, 6660, Note_on_c, 7, 65, 100
9, 6690, Note_on_c, 7, 65, 0
9, 6690, Note_on_c, 7, 67, 100
9, 6720, Note_on_c, 7, 67, 0
9, 6720, Note_on_c, 7, 65, 100
9, 6780, Note_on_c, 7, 65, 0
9, 6840, Note_on_c, 7, 46, 100
9, 6900, Note_on_c, 7, 46, 0
9, 6900, Note_on_c, 7, 48, 100
9, 6960, Note_on_c, 7, 48, 0
9, 6960, Note_on_c, 7, 50, 100
9, 7020, Note_on_c, 7, 50, 0
9, 7020, Note_on_c, 7, 51, 100
9, 7080, Note_on_c, 7, 51, 0
9, 7080, Note_on_c, 7, 53, 100
9, 7140, Note_on_c, 7, 53, 0
9, 7140, Note_on_c, 7, 41, 100
9, 7200, Note_on_c, 7, 41, 0
9, 7200, Note_on_c, 7, 53, 100
9, 7200, Note_on_c, 7, 46, 100
9, 7200, Note_on_c, 7, 50, 100
9, 7200, Note_on_c, 7, 58, 100
9, 7320, Note_on_c, 7, 58, 0
9, 7320, Note_on_c, 7, 53, 0
9, 7320, Note_on_c, 7, 46, 0
9, 7320, Note_on_c, 7, 50, 0
9, 7440, Note_on_c, 7, 58, 100
9, 7560, Note_on_c, 7, 58, 0
9, 7680, Note_on_c, 7, 50, 100
9, 7680, Note_on_c, 7, 53, 100
9, 7680, Note_on_c, 7, 46, 100
9, 7740, Note_on_c, 7, 46, 0
9, 7740, Note_on_c, 7, 53, 0
9, 7740, Note_on_c, 7, 50, 0
9, 7740, Note_on_c, 7, 58, 100
9, 7800, Note_on_c, 7, 58, 0
9, 7800, Note_on_c, 7, 55, 100
9, 7860, Note_on_c, 7, 55, 0
9, 7860, Note_on_c, 7, 51, 100
9, 7920, Note_on_c, 7, 51, 0
9, 7920, Note_on_c, 7, 44, 100
9, 7950, Note_on_c, 7, 44, 0
9, 7950, Note_on_c, 7, 51, 100
9, 7980, Note_on_c, 7, 51, 0
9, 7980, Note_on_c, 7, 56, 100
9, 8010, Note_on_c, 7, 56, 0
9, 8010, Note_on_c, 7, 58, 100
9, 8040, Note_on_c, 7, 58, 0
9, 8040, Note_on_c, 7, 60, 100
9, 8070, Note_on_c, 7, 60, 0
9, 8070, Note_on_c, 7, 62, 100
9, 8100, Note_on_c, 7, 62, 0
9, 8100, Note_on_c, 7, 63, 100
9, 8130, Note_on_c, 7, 63, 0
9, 8130, Note_on_c, 7, 65, 100
9, 8160, Note_on_c, 7, 65, 0
9, 8160, Note_on_c, 7, 63, 100
9, 8220, Note_on_c, 7, 63, 0
9, 8220, Note_on_c, 7, 59, 100
9, 8280, Note_on_c, 7, 59, 0
9, 8280, Note_on_c, 7, 60, 100
9, 8340, Note_on_c, 7, 60, 0
9, 8340, Note_on_c, 7, 62, 100
9, 8400, Note_on_c, 7, 62, 0
9, 8400, Note_on_c, 7, 63, 100
9, 8460, Note_on_c, 7, 63, 0
9, 8460, Note_on_c, 7, 65, 100
9, 8520, Note_on_c, 7, 65, 0
9, 8520, Note_on_c, 7, 67, 100
9, 8550, Note_on_c, 7, 67, 0
9, 8550, Note_on_c, 7, 67, 100
9, 8580, Note_on_c, 7, 67, 0
9, 8580, Note_on_c, 7, 65, 100
9, 8610, Note_on_c, 7, 65, 0
9, 8610, Note_on_c, 7, 67, 100
9, 8640, Note_on_c, 7, 67, 0
9, 8640, Note_on_c, 7, 63, 100
9, 8670, Note_on_c, 7, 63, 0
9, 8670, Note_on_c, 7, 65, 100
9, 8700, Note_on_c, 7, 65, 0
9, 8700, Note_on_c, 7, 63, 100
9, 8730, Note_on_c, 7, 63, 0
9, 8730, Note_on_c, 7, 62, 100
9, 8760, Note_on_c, 7, 62, 0
9, 8760, Note_on_c, 7, 60, 100
9, 8790, Note_on_c, 7, 60, 0
9, 8790, Note_on_c, 7, 58, 100
9, 8820, Note_on_c, 7, 58, 0
9, 8820, Note_on_c, 7, 56, 100
9, 8850, Note_on_c, 7, 56, 0
9, 8850, Note_on_c, 7, 55, 100
9, 8880, Note_on_c, 7, 55, 0
9, 8880, Note_on_c, 7, 56, 100
9, 8940, Note_on_c, 7, 56, 0
9, 8940, Note_on_c, 7, 46, 100
9, 9000, Note_on_c, 7, 46, 0
9, 9000, Note_on_c, 7, 48, 100
9, 9060, Note_on_c, 7, 48, 0
9, 9060, Note_on_c, 7, 50, 100
9, 9120, Note_on_c, 7, 50, 0
9, 9120, Note_on_c, 7, 43, 100
9, 9150, Note_on_c, 7, 43, 0
9, 9150, Note_on_c, 7, 63, 100
9, 9180, Note_on_c, 7, 63, 0
9, 9180, Note_on_c, 7, 62, 100
9, 9210, Note_on_c, 7, 62, 0
9, 9210, Note_on_c, 7, 60, 100
9, 9240, Note_on_c, 7, 60, 0
9, 9240, Note_on_c, 7, 58, 100
9, 9270, Note_on_c, 7, 58, 0
9, 9270, Note_on_c, 7, 56, 100
9, 9300, Note_on_c, 7, 56, 0
9, 9300, Note_on_c, 7, 55, 100
9, 9330, Note_on_c, 7, 55, 0
9, 9330, Note_on_c, 7, 53, 100
9, 9360, Note_on_c, 7, 53, 0
9, 9360, Note_on_c, 7, 55, 100
9, 9420, Note_on_c, 7, 55, 0
9, 9420, Note_on_c, 7, 44, 100
9, 9480, Note_on_c, 7, 44, 0
9, 9480, Note_on_c, 7, 46, 100
9, 9540, Note_on_c, 7, 46, 0
9, 9540, Note_on_c, 7, 48, 100
9, 9600, Note_on_c, 7, 48, 0
9, 9600, Note_on_c, 7, 41, 100
9, 9660, Note_on_c, 7, 41, 0
9, 9660, Note_on_c, 7, 50, 100
9, 9690, Note_on_c, 7, 50, 0
9, 9690, Note_on_c, 7, 51, 100
9, 9720, Note_on_c, 7, 51, 0
9, 9720, Note_on_c, 7, 53, 100
9, 9750, Note_on_c, 7, 53, 0
9, 9750, Note_on_c, 7, 51, 100
9, 9780, Note_on_c, 7, 51, 0
9, 9780, Note_on_c, 7, 53, 100
9, 9810, Note_on_c, 7, 53, 0
9, 9810, Note_on_c, 7, 56, 100
9, 9840, Note_on_c, 7, 56, 0
9, 9840, Note_on_c, 7, 50, 100
9, 9870, Note_on_c, 7, 50, 0
9, 9870, Note_on_c, 7, 53, 100
9, 9900, Note_on_c, 7, 53, 0
9, 9900, Note_on_c, 7, 58, 100
9, 9930, Note_on_c, 7, 58, 0
9, 9930, Note_on_c, 7, 60, 100
9, 9960, Note_on_c, 7, 60, 0
9, 9960, Note_on_c, 7, 62, 100
9, 9990, Note_on_c, 7, 62, 0
9, 9990, Note_on_c, 7, 60, 100
9, 10020, Note_on_c, 7, 60, 0
9, 10020, Note_on_c, 7, 62, 100
9, 10050, Note_on_c, 7, 62, 0
9, 10050, Note_on_c, 7, 65, 100
9, 10080, Note_on_c, 7, 65, 0
9, 10080, Note_on_c, 7, 58, 100
9, 10110, Note_on_c, 7, 58, 0
9, 10110, Note_on_c, 7, 55, 100
9, 10140, Note_on_c, 7, 55, 0
9, 10140, Note_on_c, 7, 63, 100
9, 10170, Note_on_c, 7, 63, 0
9, 10170, Note_on_c, 7, 62, 100
9, 10200, Note_on_c, 7, 62, 0
9, 10200, Note_on_c, 7, 60, 100
9, 10230, Note_on_c, 7, 60, 0
9, 10230, Note_on_c, 7, 63, 100
9, 10260, Note_on_c, 7, 63, 0
9, 10260, Note_on_c, 7, 62, 100
9, 10290, Note_on_c, 7, 62, 0
9, 10290, Note_on_c, 7, 60, 100
9, 10320, Note_on_c, 7, 60, 0
9, 10320, Note_on_c, 7, 62, 100
9, 10380, Note_on_c, 7, 62, 0
9, 10380, Note_on_c, 7, 46, 100
9, 10380, Note_on_c, 7, 50, 100
9, 10440, Note_on_c, 7, 50, 0
9, 10440, Note_on_c, 7, 46, 0
9, 10440, Note_on_c, 7, 48, 100
9, 10440, Note_on_c, 7, 51, 100
9, 10500, Note_on_c, 7, 51, 0
9, 10500, Note_on_c, 7, 48, 0
9, 10500, Note_on_c, 7, 50, 100
9, 10500, Note_on_c, 7, 53, 100
9, 10560, Note_on_c, 7, 53, 0
9, 10560, Note_on_c, 7, 50, 0
9, 10560, Note_on_c, 7, 55, 100
9, 10560, Note_on_c, 7, 51, 100
9, 10590, Note_on_c, 7, 55, 0
9, 10590, Note_on_c, 7, 56, 100
9, 10620, Note_on_c, 7, 56, 0
9, 10620, Note_on_c, 7, 51, 0
9, 10620, Note_on_c, 7, 55, 100
9, 10650, Note_on_c, 7, 55, 0
9, 10650, Note_on_c, 7, 53, 100
9, 10680, Note_on_c, 7, 53, 0
9, 10680, Note_on_c, 7, 51, 100
9, 10710, Note_on_c, 7, 51, 0
9, 10710, Note_on_c, 7, 55, 100
9, 10740, Note_on_c, 7, 55, 0
9, 10740, Note_on_c, 7, 58, 100
9, 10770, Note_on_c, 7, 58, 0
9, 10770, Note_on_c, 7, 62, 100
9, 10800, Note_on_c, 7, 62, 0
9, 10800, Note_on_c, 7, 63, 100
9, 10830, Note_on_c, 7, 63, 0
9, 10830, Note_on_c, 7, 62, 100
9, 10860, Note_on_c, 7, 62, 0
9, 10860, Note_on_c, 7, 63, 100
9, 10890, Note_on_c, 7, 63, 0
9, 10890, Note_on_c, 7, 58, 100
9, 10920, Note_on_c, 7, 58, 0
9, 10920, Note_on_c, 7, 55, 100
9, 10950, Note_on_c, 7, 55, 0
9, 10950, Note_on_c, 7, 58, 100
9, 10980, Note_on_c, 7, 58, 0
9, 10980, Note_on_c, 7, 63, 100
9, 11010, Note_on_c, 7, 63, 0
9, 11010, Note_on_c, 7, 65, 100
9, 11040, Note_on_c, 7, 65, 0
9, 11040, Note_on_c, 7, 67, 100
9, 11070, Note_on_c, 7, 67, 0
9, 11070, Note_on_c, 7, 63, 100
9, 11100, Note_on_c, 7, 63, 0
9, 11100, Note_on_c, 7, 58, 100
9, 11130, Note_on_c, 7, 58, 0
9, 11130, Note_on_c, 7, 63, 100
9, 11160, Note_on_c, 7, 63, 0
9, 11160, Note_on_c, 7, 51, 100
9, 11220, Note_on_c, 7, 51, 0
9, 11340, Note_on_c, 7, 68, 100
9, 11370, Note_on_c, 7, 68, 0
9, 11370, Note_on_c, 7, 70, 100
9, 11400, Note_on_c, 7, 70, 0
9, 11400, Note_on_c, 7, 72, 100
9, 11460, Note_on_c, 7, 72, 0
9, 11460, Note_on_c, 7, 60, 100
9, 11520, Note_on_c, 7, 60, 0
9, 11520, Note_on_c, 7, 65, 100
9, 11580, Note_on_c, 7, 65, 0
9, 11580, Note_on_c, 7, 67, 100
9, 11610, Note_on_c, 7, 67, 0
9, 11610, Note_on_c, 7, 68, 100
9, 11640, Note_on_c, 7, 68, 0
9, 11640, Note_on_c, 7, 62, 100
9, 11700, Note_on_c, 7, 62, 0
9, 11820, Note_on_c, 7, 67, 100
9, 11850, Note_on_c, 7, 67, 0
9, 11850, Note_on_c, 7, 68, 100
9, 11880, Note_on_c, 7, 68, 0
9, 11880, Note_on_c, 7, 70, 100
9, 11940, Note_on_c, 7, 70, 0
9, 11940, Note_on_c, 7, 58, 100
9, 12000, Note_on_c, 7, 58, 0
9, 12000, Note_on_c, 7, 63, 100
9, 12060, Note_on_c, 7, 63, 0
9, 12060, Note_on_c, 7, 65, 100
9, 12090, Note_on_c, 7, 65, 0
9, 12090, Note_on_c, 7, 67, 100
9, 12120, Note_on_c, 7, 67, 0
9, 12120, Note_on_c, 7, 60, 100
9, 12180, Note_on_c, 7, 60, 0
9, 12300, Note_on_c, 7, 58, 100
9, 12330, Note_on_c, 7, 58, 0
9, 12330, Note_on_c, 7, 60, 100
9, 12360, Note_on_c, 7, 60, 0
9, 12360, Note_on_c, 7, 62, 100
9, 12390, Note_on_c, 7, 62, 0
9, 12390, Note_on_c, 7, 63, 100
9, 12420, Note_on_c, 7, 63, 0
9, 12420, Note_on_c, 7, 65, 100
9, 12480, Note_on_c, 7, 65, 0
9, 12480, Note_on_c, 7, 55, 100
9, 12510, Note_on_c, 7, 55, 0
9, 12510, Note_on_c, 7, 58, 100
9, 12540, Note_on_c, 7, 58, 0
9, 12540, Note_on_c, 7, 60, 100
9, 12570, Note_on_c, 7, 60, 0
9, 12570, Note_on_c, 7, 62, 100
9, 12600, Note_on_c, 7, 62, 0
9, 12600, Note_on_c, 7, 63, 100
9, 12630, Note_on_c, 7, 63, 0
9, 12630, Note_on_c, 7, 62, 100
9, 12660, Note_on_c, 7, 62, 0
9, 12660, Note_on_c, 7, 63, 100
9, 12720, Note_on_c, 7, 63, 0
9, 12750, Note_on_c, 7, 56, 100
9, 12780, Note_on_c, 7, 56, 0
9, 12780, Note_on_c, 7, 60, 100
9, 12810, Note_on_c, 7, 60, 0
9, 12810, Note_on_c, 7, 62, 100
9, 12840, Note_on_c, 7, 62, 0
9, 12840, Note_on_c, 7, 63, 100
9, 12870, Note_on_c, 7, 63, 0
9, 12870, Note_on_c, 7, 62, 100
9, 12900, Note_on_c, 7, 62, 0
9, 12900, Note_on_c, 7, 63, 100
9, 12960, Note_on_c, 7, 63, 0
9, 12990, Note_on_c, 7, 58, 100
9, 13020, Note_on_c, 7, 58, 0
9, 13020, Note_on_c, 7, 60, 100
9, 13050, Note_on_c, 7, 60, 0
9, 13050, Note_on_c, 7, 62, 100
9, 13080, Note_on_c, 7, 62, 0
9, 13080, Note_on_c, 7, 63, 100
9, 13110, Note_on_c, 7, 63, 0
9, 13110, Note_on_c, 7, 62, 100
9, 13140, Note_on_c, 7, 62, 0
9, 13140, Note_on_c, 7, 63, 100
9, 13200, Note_on_c, 7, 63, 0
9, 13260, Note_on_c, 7, 56, 100
9, 13290, Note_on_c, 7, 56, 0
9, 13290, Note_on_c, 7, 58, 100
9, 13320, Note_on_c, 7, 58, 0
9, 13320, Note_on_c, 7, 60, 100
9, 13350, Note_on_c, 7, 60, 0
9, 13350, Note_on_c, 7, 58, 100
9, 13380, Note_on_c, 7, 58, 0
9, 13380, Note_on_c, 7, 56, 100
9, 13410, Note_on_c, 7, 56, 0
9, 13410, Note_on_c, 7, 58, 100
9, 13440, Note_on_c, 7, 58, 0
9, 13440, Note_on_c, 7, 60, 100
9, 13470, Note_on_c, 7, 60, 0
9, 13470, Note_on_c, 7, 58, 100
9, 13500, Note_on_c, 7, 58, 0
9, 13500, Note_on_c, 7, 56, 100
9, 13530, Note_on_c, 7, 56, 0
9, 13530, Note_on_c, 7, 58, 100
9, 13560, Note_on_c, 7, 58, 0
9, 13560, Note_on_c, 7, 60, 100
9, 13620, Note_on_c, 7, 60, 0
9, 13620, Note_on_c, 7, 56, 100
9, 13680, Note_on_c, 7, 56, 0
9, 13740, Note_on_c, 7, 58, 100
9, 13770, Note_on_c, 7, 58, 0
9, 13770, Note_on_c, 7, 60, 100
9, 13800, Note_on_c, 7, 60, 0
9, 13800, Note_on_c, 7, 62, 100
9, 13830, Note_on_c, 7, 62, 0
9, 13830, Note_on_c, 7, 60, 100
9, 13860, Note_on_c, 7, 60, 0
9, 13860, Note_on_c, 7, 58, 100
9, 13890, Note_on_c, 7, 58, 0
9, 13890, Note_on_c, 7, 60, 100
9, 13920, Note_on_c, 7, 60, 0
9, 13920, Note_on_c, 7, 62, 100
9, 13950, Note_on_c, 7, 62, 0
9, 13950, Note_on_c, 7, 60, 100
9, 13980, Note_on_c, 7, 60, 0
9, 13980, Note_on_c, 7, 58, 100
9, 14010, Note_on_c, 7, 58, 0
9, 14010, Note_on_c, 7, 60, 100
9, 14040, Note_on_c, 7, 60, 0
9, 14040, Note_on_c, 7, 62, 100
9, 14100, Note_on_c, 7, 62, 0
9, 14100, Note_on_c, 7, 58, 100
9, 14160, Note_on_c, 7, 58, 0
9, 14160, Note_on_c, 7, 63, 100
9, 14190, Note_on_c, 7, 63, 0
9, 14190, Note_on_c, 7, 62, 100
9, 14220, Note_on_c, 7, 62, 0
9, 14220, Note_on_c, 7, 60, 100
9, 14250, Note_on_c, 7, 60, 0
9, 14250, Note_on_c, 7, 58, 100
9, 14280, Note_on_c, 7, 58, 0
9, 14280, Note_on_c, 7, 56, 100
9, 14310, Note_on_c, 7, 56, 0
9, 14310, Note_on_c, 7, 55, 100
9, 14340, Note_on_c, 7, 55, 0
9, 14340, Note_on_c, 7, 53, 100
9, 14370, Note_on_c, 7, 53, 0
9, 14370, Note_on_c, 7, 51, 100
9, 14400, Note_on_c, 7, 51, 0
9, 14400, Note_on_c, 7, 50, 100
9, 14430, Note_on_c, 7, 50, 0
9, 14430, Note_on_c, 7, 48, 100
9, 14460, Note_on_c, 7, 48, 0
9, 14460, Note_on_c, 7, 46, 100
9, 14490, Note_on_c, 7, 46, 0
9, 14490, Note_on_c, 7, 44, 100
9, 14520, Note_on_c, 7, 44, 0
9, 14520, Note_on_c, 7, 43, 100
9, 14550, Note_on_c, 7, 43, 0
9, 14550, Note_on_c, 7, 46, 100
9, 14580, Note_on_c, 7, 46, 0
9, 14580, Note_on_c, 7, 48, 100
9, 14610, Note_on_c, 7, 48, 0
9, 14610, Note_on_c, 7, 50, 100
9, 14640, Note_on_c, 7, 50, 0
9, 14640, Note_on_c, 7, 51, 100
9, 14670, Note_on_c, 7, 51, 0
9, 14670, Note_on_c, 7, 53, 100
9, 14700, Note_on_c, 7, 53, 0
9, 14700, Note_on_c, 7, 55, 100
9, 14730, Note_on_c, 7, 55, 0
9, 14730, Note_on_c, 7, 51, 100
9, 14760, Note_on_c, 7, 51, 0
9, 14760, Note_on_c, 7, 56, 100
9, 14790, Note_on_c, 7, 56, 0
9, 14790, Note_on_c, 7, 58, 100
9, 14820, Note_on_c, 7, 58, 0
9, 14820, Note_on_c, 7, 56, 100
9, 14850, Note_on_c, 7, 56, 0
9, 14850, Note_on_c, 7, 53, 100
9, 14880, Note_on_c, 7, 53, 0
9, 14880, Note_on_c, 7, 55, 100
9, 14910, Note_on_c, 7, 55, 0
9, 14910, Note_on_c, 7, 58, 100
9, 14940, Note_on_c, 7, 58, 0
9, 14940, Note_on_c, 7, 60, 100
9, 14970, Note_on_c, 7, 60, 0
9, 14970, Note_on_c, 7, 62, 100
9, 15000, Note_on_c, 7, 62, 0
9, 15000, Note_on_c, 7, 63, 100
9, 15030, Note_on_c, 7, 63, 0
9, 15030, Note_on_c, 7, 62, 100
9, 15060, Note_on_c, 7, 62, 0
9, 15060, Note_on_c, 7, 63, 100
9, 15060, Note_on_c, 7, 60, 100
9, 15090, Note_on_c, 7, 60, 0
9, 15090, Note_on_c, 7, 57, 100
9, 15120, Note_on_c, 7, 57, 0
9, 15120, Note_on_c, 7, 58, 100
9, 15180, Note_on_c, 7, 58, 0
9, 15180, Note_on_c, 7, 63, 0
9, 15180, Note_on_c, 7, 56, 100
9, 15180, Note_on_c, 7, 60, 100
9, 15240, Note_on_c, 7, 60, 0
9, 15240, Note_on_c, 7, 56, 0
9, 15240, Note_on_c, 7, 58, 100
9, 15300, Note_on_c, 7, 58, 0
9, 15300, Note_on_c, 7, 46, 100
9, 15300, Note_on_c, 7, 56, 100
9, 15360, Note_on_c, 7, 56, 0
9, 15360, Note_on_c, 7, 46, 0
9, 15360, Note_on_c, 7, 51, 100
9, 15360, Note_on_c, 7, 55, 100
9, 15480, Note_on_c, 7, 55, 0
9, 15480, Note_on_c, 7, 51, 0
9, 16200, Note_on_c, 7, 50, 100
9, 16260, Note_on_c, 7, 50, 0
9, 16260, Note_on_c, 7, 38, 100
9, 16320, Note_on_c, 7, 38, 0
9, 17160, Note_on_c, 7, 55, 100
9, 17220, Note_on_c, 7, 55, 0
9, 17220, Note_on_c, 7, 43, 100
9, 17280, Note_on_c, 7, 43, 0
9, 17400, Note_on_c, 7, 60, 100
9, 17460, Note_on_c, 7, 60, 0
9, 17460, Note_on_c, 7, 56, 100
9, 17520, Note_on_c, 7, 56, 0
9, 17640, Note_on_c, 7, 55, 100
9, 17700, Note_on_c, 7, 55, 0
9, 17700, Note_on_c, 7, 51, 100
9, 17760, Note_on_c, 7, 51, 0
9, 17880, Note_on_c, 7, 60, 100
9, 17940, Note_on_c, 7, 60, 0
9, 17940, Note_on_c, 7, 53, 100
9, 18000, Note_on_c, 7, 53, 0
9, 18120, Note_on_c, 7, 58, 100
9, 18180, Note_on_c, 7, 58, 0
9, 18180, Note_on_c, 7, 46, 100
9, 18240, Note_on_c, 7, 46, 0
9, 18360, Note_on_c, 7, 57, 100
9, 18420, Note_on_c, 7, 57, 0
9, 18420, Note_on_c, 7, 54, 100
9, 18480, Note_on_c, 7, 54, 0
9, 18600, Note_on_c, 7, 51, 100
9, 18660, Note_on_c, 7, 51, 0
9, 18660, Note_on_c, 7, 48, 100
9, 18720, Note_on_c, 7, 48, 0
9, 18840, Note_on_c, 7, 57, 100
9, 18900, Note_on_c, 7, 57, 0
9, 18900, Note_on_c, 7, 50, 100
9, 18960, Note_on_c, 7, 50, 0
9, 19080, Note_on_c, 7, 51, 100
9, 19140, Note_on_c, 7, 51, 0
9, 19140, Note_on_c, 7, 39, 100
9, 19200, Note_on_c, 7, 39, 0
9, 19320, Note_on_c, 7, 53, 100
9, 19380, Note_on_c, 7, 53, 0
9, 19380, Note_on_c, 7, 41, 100
9, 19440, Note_on_c, 7, 41, 0
9, 19560, Note_on_c, 7, 55, 100
9, 19620, Note_on_c, 7, 55, 0
9, 19620, Note_on_c, 7, 43, 100
9, 19680, Note_on_c, 7, 43, 0
9, 19800, Note_on_c, 7, 57, 100
9, 19860, Note_on_c, 7, 57, 0
9, 19860, Note_on_c, 7, 45, 100
9, 19920, Note_on_c, 7, 45, 0
9, 20040, Note_on_c, 7, 50, 100
9, 20070, Note_on_c, 7, 50, 0
9, 20070, Note_on_c, 7, 51, 100
9, 20100, Note_on_c, 7, 51, 0
9, 20100, Note_on_c, 7, 50, 100
9, 20130, Note_on_c, 7, 50, 0
9, 20130, Note_on_c, 7, 48, 100
9, 20160, Note_on_c, 7, 48, 0
9, 20160, Note_on_c, 7, 46, 100
9, 20160, Note_on_c, 7, 50, 100
9, 20160, Note_on_c, 7, 55, 100
9, 20220, Note_on_c, 7, 55, 0
9, 20220, Note_on_c, 7, 50, 0
9, 20220, Note_on_c, 7, 46, 0
9, 20220, Note_on_c, 7, 43, 100
9, 20280, Note_on_c, 7, 43, 0
9, 20400, Note_on_c, 7, 58, 100
9, 20400, Note_on_c, 7, 55, 100
9, 20460, Note_on_c, 7, 55, 0
9, 20460, Note_on_c, 7, 46, 100
9, 20520, Note_on_c, 7, 46, 0
9, 20520, Note_on_c, 7, 58, 0
9, 20640, Note_on_c, 7, 58, 100
9, 20700, Note_on_c, 7, 58, 0
9, 20700, Note_on_c, 7, 55, 100
9, 20760, Note_on_c, 7, 55, 0
9, 20760, Note_on_c, 7, 51, 100
9, 20820, Note_on_c, 7, 51, 0
9, 20820, Note_on_c, 7, 48, 100
9, 20880, Note_on_c, 7, 48, 0
9, 20880, Note_on_c, 7, 41, 100
9, 20940, Note_on_c, 7, 41, 0
9, 20940, Note_on_c, 7, 53, 100
9, 21000, Note_on_c, 7, 53, 0
9, 21120, Note_on_c, 7, 53, 100
9, 21120, Note_on_c, 7, 48, 100
9, 21120, Note_on_c, 7, 45, 100
9, 21180, Note_on_c, 7, 45, 0
9, 21180, Note_on_c, 7, 48, 0
9, 21180, Note_on_c, 7, 53, 0
9, 21180, Note_on_c, 7, 41, 100
9, 21240, Note_on_c, 7, 41, 0
9, 21360, Note_on_c, 7, 57, 100
9, 21360, Note_on_c, 7, 53, 100
9, 21420, Note_on_c, 7, 53, 0
9, 21420, Note_on_c, 7, 45, 100
9, 21480, Note_on_c, 7, 45, 0
9, 21480, Note_on_c, 7, 57, 0
9, 21600, Note_on_c, 7, 57, 100
9, 21660, Note_on_c, 7, 57, 0
9, 21660, Note_on_c, 7, 53, 100
9, 21720, Note_on_c, 7, 53, 0
9, 21720, Note_on_c, 7, 50, 100
9, 21780, Note_on_c, 7, 50, 0
9, 21780, Note_on_c, 7, 46, 100
9, 21840, Note_on_c, 7, 46, 0
9, 21840, Note_on_c, 7, 39, 100
9, 21900, Note_on_c, 7, 39, 0
9, 21900, Note_on_c, 7, 51, 100
9, 21960, Note_on_c, 7, 51, 0
9, 22080, Note_on_c, 7, 51, 100
9, 22140, Note_on_c, 7, 51, 0
9, 22140, Note_on_c, 7, 60, 100
9, 22200, Note_on_c, 7, 60, 0
9, 22380, Note_on_c, 7, 60, 100
9, 22440, Note_on_c, 7, 60, 0
9, 22440, Note_on_c, 7, 55, 100
9, 22500, Note_on_c, 7, 55, 0
9, 22500, Note_on_c, 7, 51, 100
9, 22560, Note_on_c, 7, 51, 0
9, 22560, Note_on_c, 7, 48, 100
9, 22620, Note_on_c, 7, 48, 0
9, 22620, Note_on_c, 7, 56, 100
9, 22680, Note_on_c, 7, 56, 0
9, 22860, Note_on_c, 7, 56, 100
9, 22920, Note_on_c, 7, 56, 0
9, 22920, Note_on_c, 7, 51, 100
9, 22980, Note_on_c, 7, 51, 0
9, 22980, Note_on_c, 7, 48, 100
9, 23040, Note_on_c, 7, 48, 0
9, 23040, Note_on_c, 7, 44, 100
9, 23100, Note_on_c, 7, 44, 0
9, 23100, Note_on_c, 7, 43, 100
9, 23160, Note_on_c, 7, 43, 0
9, 23160, Note_on_c, 7, 42, 100
9, 23220, Note_on_c, 7, 42, 0
9, 23220, Note_on_c, 7, 43, 100
9, 23280, Note_on_c, 7, 43, 0
9, 23280, Note_on_c, 7, 45, 100
9, 23340, Note_on_c, 7, 45, 0
9, 23340, Note_on_c, 7, 54, 100
9, 23400, Note_on_c, 7, 54, 0
9, 23400, Note_on_c, 7, 55, 100
9, 23460, Note_on_c, 7, 55, 0
9, 23460, Note_on_c, 7, 51, 100
9, 23520, Note_on_c, 7, 51, 0
9, 23520, Note_on_c, 7, 50, 100
9, 23580, Note_on_c, 7, 50, 0
9, 23580, Note_on_c, 7, 48, 100
9, 23640, Note_on_c, 7, 48, 0
9, 23640, Note_on_c, 7, 50, 100
9, 23700, Note_on_c, 7, 50, 0
9, 23700, Note_on_c, 7, 38, 100
9, 23760, Note_on_c, 7, 38, 0
9, 23760, Note_on_c, 7, 43, 100
9, 23820, Note_on_c, 7, 43, 0
9, 23820, Note_on_c, 7, 62, 100
9, 23880, Note_on_c, 7, 62, 0
9, 23880, Note_on_c, 7, 59, 100
9, 23940, Note_on_c, 7, 59, 0
9, 23940, Note_on_c, 7, 55, 100
9, 24000, Note_on_c, 7, 55, 0
9, 24000, Note_on_c, 7, 50, 100
9, 24060, Note_on_c, 7, 50, 0
9, 24060, Note_on_c, 7, 55, 100
9, 24120, Note_on_c, 7, 55, 0
9, 24120, Note_on_c, 7, 50, 100
9, 24180, Note_on_c, 7, 50, 0
9, 24180, Note_on_c, 7, 53, 100
9, 24240, Note_on_c, 7, 53, 0
9, 24240, Note_on_c, 7, 43, 100
9, 24330, Note_on_c, 7, 43, 0
9, 24330, Note_on_c, 7, 67, 100
9, 24360, Note_on_c, 7, 67, 0
9, 24360, Note_on_c, 7, 65, 100
9, 24390, Note_on_c, 7, 65, 0
9, 24390, Note_on_c, 7, 63, 100
9, 24420, Note_on_c, 7, 63, 0
9, 24420, Note_on_c, 7, 62, 100
9, 24450, Note_on_c, 7, 62, 0
9, 24450, Note_on_c, 7, 60, 100
9, 24480, Note_on_c, 7, 60, 0
9, 24480, Note_on_c, 7, 59, 100
9, 24540, Note_on_c, 7, 59, 0
9, 24540, Note_on_c, 7, 55, 100
9, 24600, Note_on_c, 7, 55, 0
9, 24600, Note_on_c, 7, 50, 100
9, 24660, Note_on_c, 7, 50, 0
9, 24660, Note_on_c, 7, 53, 100
9, 24720, Note_on_c, 7, 53, 0
9, 24720, Note_on_c, 7, 47, 100
9, 24780, Note_on_c, 7, 47, 0
9, 24780, Note_on_c, 7, 50, 100
9, 24840, Note_on_c, 7, 50, 0
9, 24840, Note_on_c, 7, 43, 100
9, 24900, Note_on_c, 7, 43, 0
9, 24900, Note_on_c, 7, 47, 100
9, 24960, Note_on_c, 7, 47, 0
9, 24960, Note_on_c, 7, 55, 100
9, 24960, Note_on_c, 7, 51, 100
9, 24960, Note_on_c, 7, 48, 100
9, 25020, Note_on_c, 7, 48, 0
9, 25020, Note_on_c, 7, 51, 0
9, 25020, Note_on_c, 7, 55, 0
9, 25740, Note_on_c, 7, 57, 100
9, 25800, Note_on_c, 7, 57, 0
9, 25800, Note_on_c, 7, 54, 100
9, 25860, Note_on_c, 7, 54, 0
9, 25860, Note_on_c, 7, 50, 100
9, 25920, Note_on_c, 7, 50, 0
9, 25920, Note_on_c, 7, 45, 100
9, 25980, Note_on_c, 7, 45, 0
9, 25980, Note_on_c, 7, 50, 100
9, 26040, Note_on_c, 7, 50, 0
9, 26040, Note_on_c, 7, 45, 100
9, 26100, Note_on_c, 7, 45, 0
9, 26100, Note_on_c, 7, 48, 100
9, 26160, Note_on_c, 7, 48, 0
9, 26160, Note_on_c, 7, 38, 100
9, 26220, Note_on_c, 7, 38, 0
9, 26250, Note_on_c, 7, 62, 100
9, 26280, Note_on_c, 7, 62, 0
9, 26280, Note_on_c, 7, 60, 100
9, 26310, Note_on_c, 7, 60, 0
9, 26310, Note_on_c, 7, 58, 100
9, 26340, Note_on_c, 7, 58, 0
9, 26340, Note_on_c, 7, 57, 100
9, 26370, Note_on_c, 7, 57, 0
9, 26370, Note_on_c, 7, 55, 100
9, 26400, Note_on_c, 7, 55, 0
9, 26400, Note_on_c, 7, 54, 100
9, 26460, Note_on_c, 7, 54, 0
9, 26460, Note_on_c, 7, 50, 100
9, 26520, Note_on_c, 7, 50, 0
9, 26520, Note_on_c, 7, 45, 100
9, 26580, Note_on_c, 7, 45, 0
9, 26580, Note_on_c, 7, 48, 100
9, 26640, Note_on_c, 7, 48, 0
9, 26640, Note_on_c, 7, 42, 100
9, 26700, Note_on_c, 7, 42, 0
9, 26700, Note_on_c, 7, 45, 100
9, 26760, Note_on_c, 7, 45, 0
9, 26760, Note_on_c, 7, 38, 100
9, 26820, Note_on_c, 7, 38, 0
9, 26820, Note_on_c, 7, 42, 100
9, 26880, Note_on_c, 7, 42, 0
9, 26880, Note_on_c, 7, 43, 100
9, 26940, Note_on_c, 7, 43, 0
9, 26940, Note_on_c, 7, 55, 100
9, 26970, Note_on_c, 7, 55, 0
9, 26970, Note_on_c, 7, 57, 100
9, 27000, Note_on_c, 7, 57, 0
9, 27000, Note_on_c, 7, 58, 100
9, 27030, Note_on_c, 7, 58, 0
9, 27030, Note_on_c, 7, 57, 100
9, 27060, Note_on_c, 7, 57, 0
9, 27060, Note_on_c, 7, 55, 100
9, 27090, Note_on_c, 7, 55, 0
9, 27090, Note_on_c, 7, 57, 100
9, 27120, Note_on_c, 7, 57, 0
9, 27120, Note_on_c, 7, 58, 100
9, 27150, Note_on_c, 7, 58, 0
9, 27150, Note_on_c, 7, 57, 100
9, 27180, Note_on_c, 7, 57, 0
9, 27180, Note_on_c, 7, 55, 100
9, 27210, Note_on_c, 7, 55, 0
9, 27210, Note_on_c, 7, 57, 100
9, 27240, Note_on_c, 7, 57, 0
9, 27240, Note_on_c, 7, 58, 100
9, 27300, Note_on_c, 7, 58, 0
9, 27420, Pitch_bend_c, 7, 8192
9, 27420, Pitch_bend_c, 7, 8192
9, 27420, Pitch_bend_c, 7, 8192
9, 27420, Pitch_bend_c, 7, 8192
9, 27420, Pitch_bend_c, 7, 8192
9, 27420, Pitch_bend_c, 7, 8192
9, 27420, Pitch_bend_c, 7, 8192
9, 27420, Pitch_bend_c, 7, 8192
9, 27420, Pitch_bend_c, 7, 8192
9, 27420, Note_on_c, 7, 51, 100
9, 27449, Note_on_c, 7, 51, 0
9, 27450, Note_on_c, 7, 53, 100
9, 27479, Note_on_c, 7, 53, 0
9, 27480, Note_on_c, 7, 55, 100
9, 27509, Note_on_c, 7, 55, 0
9, 27510, Note_on_c, 7, 53, 100
9, 27539, Note_on_c, 7, 53, 0
9, 27540, Note_on_c, 7, 51, 100
9, 27569, Note_on_c, 7, 51, 0
9, 27570, Note_on_c, 7, 53, 100
9, 27599, Note_on_c, 7, 53, 0
9, 27600, Note_on_c, 7, 55, 100
9, 27629, Note_on_c, 7, 55, 0
9, 27630, Note_on_c, 7, 53, 100
9, 27659, Note_on_c, 7, 53, 0
9, 27660, Note_on_c, 7, 51, 100
9, 27689, Note_on_c, 7, 51, 0
9, 27690, Note_on_c, 7, 53, 100
9, 27719, Note_on_c, 7, 53, 0
9, 27720, Note_on_c, 7, 55, 100
9, 27779, Note_on_c, 7, 55, 0
9, 27900, Note_on_c, 7, 48, 100
9, 27929, Note_on_c, 7, 48, 0
9, 27930, Note_on_c, 7, 50, 100
9, 27959, Note_on_c, 7, 50, 0
9, 27960, Note_on_c, 7, 51, 100
9, 27989, Note_on_c, 7, 51, 0
9, 27990, Note_on_c, 7, 50, 100
9, 28019, Note_on_c, 7, 50, 0
9, 28020, Note_on_c, 7, 48, 100
9, 28049, Note_on_c, 7, 48, 0
9, 28050, Note_on_c, 7, 50, 100
9, 28079, Note_on_c, 7, 50, 0
9, 28080, Note_on_c, 7, 51, 100
9, 28109, Note_on_c, 7, 51, 0
9, 28110, Note_on_c, 7, 50, 100
9, 28139, Note_on_c, 7, 50, 0
9, 28140, Note_on_c, 7, 48, 100
9, 28169, Note_on_c, 7, 48, 0
9, 28170, Note_on_c, 7, 50, 100
9, 28199, Note_on_c, 7, 50, 0
9, 28200, Note_on_c, 7, 51, 100
9, 28259, Note_on_c, 7, 51, 0
9, 28380, Note_on_c, 7, 51, 100
9, 28409, Note_on_c, 7, 51, 0
9, 28410, Note_on_c, 7, 53, 100
9, 28439, Note_on_c, 7, 53, 0
9, 28440, Note_on_c, 7, 55, 100
9, 28469, Note_on_c, 7, 55, 0
9, 28470, Note_on_c, 7, 58, 100
9, 28499, Note_on_c, 7, 58, 0
9, 28500, Note_on_c, 7, 57, 100
9, 28529, Note_on_c, 7, 57, 0
9, 28530, Note_on_c, 7, 55, 100
9, 28559, Note_on_c, 7, 55, 0
9, 28560, Note_on_c, 7, 57, 100
9, 28619, Note_on_c, 7, 57, 0
9, 28620, Note_on_c, 7, 53, 100
9, 28620, Note_on_c, 7, 57, 100
9, 28679, Note_on_c, 7, 57, 0
9, 28679, Note_on_c, 7, 53, 0
9, 28680, Note_on_c, 7, 58, 100
9, 28680, Note_on_c, 7, 55, 100
9, 28739, Note_on_c, 7, 55, 0
9, 28739, Note_on_c, 7, 58, 0
9, 28740, Note_on_c, 7, 57, 100
9, 28740, Note_on_c, 7, 60, 100
9, 28799, Note_on_c, 7, 60, 0
9, 28799, Note_on_c, 7, 57, 0
9, 28800, Note_on_c, 7, 58, 100
9, 28800, Note_on_c, 7, 62, 100
9, 28829, Note_on_c, 7, 62, 0
9, 28829, Note_on_c, 7, 58, 0
9, 28830, Note_on_c, 7, 63, 100
9, 28859, Note_on_c, 7, 63, 0
9, 28860, Note_on_c, 7, 62, 100
9, 28889, Note_on_c, 7, 62, 0
9, 28890, Note_on_c, 7, 60, 100
9, 28919, Note_on_c, 7, 60, 0
9, 28920, Note_on_c, 7, 58, 100
9, 28949, Note_on_c, 7, 58, 0
9, 28950, Note_on_c, 7, 62, 100
9, 28979, Note_on_c, 7, 62, 0
9, 28980, Note_on_c, 7, 65, 100
9, 29009, Note_on_c, 7, 65, 0
9, 29010, Note_on_c, 7, 69, 100
9, 29039, Note_on_c, 7, 69, 0
9, 29040, Note_on_c, 7, 70, 100
9, 29069, Note_on_c, 7, 70, 0
9, 29070, Note_on_c, 7, 69, 100
9, 29099, Note_on_c, 7, 69, 0
9, 29100, Note_on_c, 7, 70, 100
9, 29129, Note_on_c, 7, 70, 0
9, 29130, Note_on_c, 7, 65, 100
9, 29159, Note_on_c, 7, 65, 0
9, 29160, Note_on_c, 7, 62, 100
9, 29189, Note_on_c, 7, 62, 0
9, 29190, Note_on_c, 7, 65, 100
9, 29219, Note_on_c, 7, 65, 0
9, 29220, Note_on_c, 7, 70, 100
9, 29249, Note_on_c, 7, 70, 0
9, 29250, Note_on_c, 7, 72, 100
9, 29279, Note_on_c, 7, 72, 0
9, 29280, Note_on_c, 7, 74, 100
9, 29309, Note_on_c, 7, 74, 0
9, 29310, Note_on_c, 7, 70, 100
9, 29339, Note_on_c, 7, 70, 0
9, 29340, Note_on_c, 7, 65, 100
9, 29369, Note_on_c, 7, 65, 0
9, 29370, Note_on_c, 7, 70, 100
9, 29399, Note_on_c, 7, 70, 0
9, 29400, Note_on_c, 7, 58, 100
9, 29459, Note_on_c, 7, 58, 0
9, 29580, Note_on_c, 7, 63, 100
9, 29609, Note_on_c, 7, 63, 0
9, 29610, Note_on_c, 7, 65, 100
9, 29639, Note_on_c, 7, 65, 0
9, 29640, Note_on_c, 7, 67, 100
9, 29699, Note_on_c, 7, 67, 0
9, 29700, Note_on_c, 7, 55, 100
9, 29759, Note_on_c, 7, 55, 0
9, 29760, Note_on_c, 7, 60, 100
9, 29819, Note_on_c, 7, 60, 0
9, 29820, Note_on_c, 7, 62, 100
9, 29849, Note_on_c, 7, 62, 0
9, 29850, Note_on_c, 7, 63, 100
9, 29879, Note_on_c, 7, 63, 0
9, 29880, Note_on_c, 7, 57, 100
9, 29939, Note_on_c, 7, 57, 0
9, 30060, Note_on_c, 7, 62, 100
9, 30089, Note_on_c, 7, 62, 0
9, 30090, Note_on_c, 7, 63, 100
9, 30119, Note_on_c, 7, 63, 0
9, 30120, Note_on_c, 7, 65, 100
9, 30179, Note_on_c, 7, 65, 0
9, 30180, Note_on_c, 7, 53, 100
9, 30239, Note_on_c, 7, 53, 0
9, 30240, Note_on_c, 7, 58, 100
9, 30299, Note_on_c, 7, 58, 0
9, 30300, Note_on_c, 7, 60, 100
9, 30329, Note_on_c, 7, 60, 0
9, 30330, Note_on_c, 7, 62, 100
9, 30359, Note_on_c, 7, 62, 0
9, 30360, Note_on_c, 7, 55, 100
9, 30419, Note_on_c, 7, 55, 0
9, 30540, Note_on_c, 7, 53, 100
9, 30569, Note_on_c, 7, 53, 0
9, 30570, Note_on_c, 7, 55, 100
9, 30599, Note_on_c, 7, 55, 0
9, 30600, Note_on_c, 7, 57, 100
9, 30629, Note_on_c, 7, 57, 0
9, 30630, Note_on_c, 7, 58, 100
9, 30659, Note_on_c, 7, 58, 0
9, 30660, Note_on_c, 7, 60, 100
9, 30719, Note_on_c, 7, 60, 0
9, 30720, Note_on_c, 7, 50, 100
9, 30749, Note_on_c, 7, 50, 0
9, 30750, Note_on_c, 7, 53, 100
9, 30779, Note_on_c, 7, 53, 0
9, 30780, Note_on_c, 7, 55, 100
9, 30809, Note_on_c, 7, 55, 0
9, 30810, Note_on_c, 7, 57, 100
9, 30839, Note_on_c, 7, 57, 0
9, 30840, Note_on_c, 7, 58, 100
9, 30869, Note_on_c, 7, 58, 0
9, 30870, Note_on_c, 7, 57, 100
9, 30899, Note_on_c, 7, 57, 0
9, 30900, Note_on_c, 7, 58, 100
9, 30959, Note_on_c, 7, 58, 0
9, 30990, Note_on_c, 7, 51, 100
9, 31019, Note_on_c, 7, 51, 0
9, 31020, Note_on_c, 7, 55, 100
9, 31049, Note_on_c, 7, 55, 0
9, 31050, Note_on_c, 7, 57, 100
9, 31079, Note_on_c, 7, 57, 0
9, 31080, Note_on_c, 7, 58, 100
9, 31109, Note_on_c, 7, 58, 0
9, 31110, Note_on_c, 7, 57, 100
9, 31139, Note_on_c, 7, 57, 0
9, 31140, Note_on_c, 7, 58, 100
9, 31199, Note_on_c, 7, 58, 0
9, 31230, Note_on_c, 7, 53, 100
9, 31259, Note_on_c, 7, 53, 0
9, 31260, Note_on_c, 7, 55, 100
9, 31289, Note_on_c, 7, 55, 0
9, 31290, Note_on_c, 7, 57, 100
9, 31319, Note_on_c, 7, 57, 0
9, 31320, Note_on_c, 7, 58, 100
9, 31349, Note_on_c, 7, 58, 0
9, 31350, Note_on_c, 7, 57, 100
9, 31379, Note_on_c, 7, 57, 0
9, 31380, Note_on_c, 7, 58, 100
9, 31439, Note_on_c, 7, 58, 0
9, 31500, Note_on_c, 7, 51, 100
9, 31529, Note_on_c, 7, 51, 0
9, 31530, Note_on_c, 7, 53, 100
9, 31559, Note_on_c, 7, 53, 0
9, 31560, Note_on_c, 7, 55, 100
9, 31589, Note_on_c, 7, 55, 0
9, 31590, Note_on_c, 7, 53, 100
9, 31619, Note_on_c, 7, 53, 0
9, 31620, Note_on_c, 7, 51, 100
9, 31649, Note_on_c, 7, 51, 0
9, 31650, Note_on_c, 7, 53, 100
9, 31679, Note_on_c, 7, 53, 0
9, 31680, Note_on_c, 7, 55, 100
9, 31709, Note_on_c, 7, 55, 0
9, 31710, Note_on_c, 7, 53, 100
9, 31739, Note_on_c, 7, 53, 0
9, 31740, Note_on_c, 7, 51, 100
9, 31769, Note_on_c, 7, 51, 0
9, 31770, Note_on_c, 7, 53, 100
9, 31799, Note_on_c, 7, 53, 0
9, 31800, Note_on_c, 7, 55, 100
9, 31859, Note_on_c, 7, 55, 0
9, 31860, Note_on_c, 7, 51, 100
9, 31919, Note_on_c, 7, 51, 0
9, 31980, Note_on_c, 7, 53, 100
9, 32009, Note_on_c, 7, 53, 0
9, 32010, Note_on_c, 7, 55, 100
9, 32039, Note_on_c, 7, 55, 0
9, 32040, Note_on_c, 7, 57, 100
9, 32069, Note_on_c, 7, 57, 0
9, 32070, Note_on_c, 7, 55, 100
9, 32099, Note_on_c, 7, 55, 0
9, 32100, Note_on_c, 7, 53, 100
9, 32129, Note_on_c, 7, 53, 0
9, 32130, Note_on_c, 7, 55, 100
9, 32159, Note_on_c, 7, 55, 0
9, 32160, Note_on_c, 7, 57, 100
9, 32189, Note_on_c, 7, 57, 0
9, 32190, Note_on_c, 7, 55, 100
9, 32219, Note_on_c, 7, 55, 0
9, 32220, Note_on_c, 7, 53, 100
9, 32249, Note_on_c, 7, 53, 0
9, 32250, Note_on_c, 7, 55, 100
9, 32279, Note_on_c, 7, 55, 0
9, 32280, Note_on_c, 7, 57, 100
9, 32339, Note_on_c, 7, 57, 0
9, 32340, Note_on_c, 7, 53, 100
9, 32399, Note_on_c, 7, 53, 0
9, 32400, Note_on_c, 7, 58, 100
9, 32429, Note_on_c, 7, 58, 0
9, 32430, Note_on_c, 7, 57, 100
9, 32459, Note_on_c, 7, 57, 0
9, 32460, Note_on_c, 7, 55, 100
9, 32489, Note_on_c, 7, 55, 0
9, 32490, Note_on_c, 7, 53, 100
9, 32519, Note_on_c, 7, 53, 0
9, 32520, Note_on_c, 7, 51, 100
9, 32549, Note_on_c, 7, 51, 0
9, 32550, Note_on_c, 7, 50, 100
9, 32579, Note_on_c, 7, 50, 0
9, 32580, Note_on_c, 7, 48, 100
9, 32609, Note_on_c, 7, 48, 0
9, 32610, Note_on_c, 7, 46, 100
9, 32639, Note_on_c, 7, 46, 0
9, 32640, Note_on_c, 7, 45, 100
9, 32669, Note_on_c, 7, 45, 0
9, 32670, Note_on_c, 7, 43, 100
9, 32699, Note_on_c, 7, 43, 0
9, 32700, Note_on_c, 7, 41, 100
9, 32729, Note_on_c, 7, 41, 0
9, 32730, Note_on_c, 7, 39, 100
9, 32759, Note_on_c, 7, 39, 0
9, 32760, Note_on_c, 7, 38, 100
9, 32789, Note_on_c, 7, 38, 0
9, 32790, Note_on_c, 7, 41, 100
9, 32819, Note_on_c, 7, 41, 0
9, 32820, Note_on_c, 7, 43, 100
9, 32849, Note_on_c, 7, 43, 0
9, 32850, Note_on_c, 7, 45, 100
9, 32879, Note_on_c, 7, 45, 0
9, 32880, Note_on_c, 7, 46, 100
9, 32909, Note_on_c, 7, 46, 0
9, 32910, Note_on_c, 7, 48, 100
9, 32939, Note_on_c, 7, 48, 0
9, 32940, Note_on_c, 7, 50, 100
9, 32969, Note_on_c, 7, 50, 0
9, 32970, Note_on_c, 7, 46, 100
9, 32999, Note_on_c, 7, 46, 0
9, 33000, Note_on_c, 7, 51, 100
9, 33029, Note_on_c, 7, 51, 0
9, 33030, Note_on_c, 7, 53, 100
9, 33059, Note_on_c, 7, 53, 0
9, 33060, Note_on_c, 7, 51, 100
9, 33089, Note_on_c, 7, 51, 0
9, 33090, Note_on_c, 7, 48, 100
9, 33119, Note_on_c, 7, 48, 0
9, 33120, Note_on_c, 7, 50, 100
9, 33149, Note_on_c, 7, 50, 0
9, 33150, Note_on_c, 7, 53, 100
9, 33179, Note_on_c, 7, 53, 0
9, 33180, Note_on_c, 7, 55, 100
9, 33209, Note_on_c, 7, 55, 0
9, 33210, Note_on_c, 7, 57, 100
9, 33239, Note_on_c, 7, 57, 0
9, 33240, Note_on_c, 7, 58, 100
9, 33269, Note_on_c, 7, 58, 0
9, 33270, Note_on_c, 7, 57, 100
9, 33299, Note_on_c, 7, 57, 0
9, 33300, Note_on_c, 7, 58, 100
9, 33330, Note_on_c, 7, 52, 100
9, 33359, Note_on_c, 7, 52, 0
9, 33360, Note_on_c, 7, 53, 100
9, 33419, Note_on_c, 7, 53, 0
9, 33420, Note_on_c, 7, 58, 0
9, 33420, Note_on_c, 7, 55, 100
9, 33420, Note_on_c, 7, 51, 100
9, 33479, Note_on_c, 7, 51, 0
9, 33479, Note_on_c, 7, 55, 0
9, 33480, Note_on_c, 7, 53, 100
9, 33539, Note_on_c, 7, 53, 0
9, 33540, Note_on_c, 7, 41, 100
9, 33540, Note_on_c, 7, 51, 100
9, 33599, Note_on_c, 7, 51, 0
9, 33599, Note_on_c, 7, 41, 0
9, 33600, Note_on_c, 7, 46, 100
9, 33600, Note_on_c, 7, 50, 100
9, 33719, Note_on_c, 7, 50, 0
9, 33719, Note_on_c, 7, 46, 0
9, 33720, Program_c, 7, 0
9, 34440, Note_on_c, 7, 57, 100
9, 34499, Note_on_c, 7, 57, 0
9, 34500, Note_on_c, 7, 45, 100
9, 34559, Note_on_c, 7, 45, 0
9, 35400, Note_on_c, 7, 62, 100
9, 35459, Note_on_c, 7, 62, 0
9, 35460, Note_on_c, 7, 50, 100
9, 35519, Note_on_c, 7, 50, 0
9, 35520, Note_on_c, 7, 55, 100
9, 35579, Note_on_c, 7, 55, 0
9, 35580, Note_on_c, 7, 58, 100
9, 35609, Note_on_c, 7, 58, 0
9, 35610, Note_on_c, 7, 56, 100
9, 35639, Note_on_c, 7, 56, 0
9, 35640, Note_on_c, 7, 55, 100
9, 35699, Note_on_c, 7, 55, 0
9, 35700, Note_on_c, 7, 43, 100
9, 35759, Note_on_c, 7, 43, 0
9, 35760, Note_on_c, 7, 44, 100
9, 35819, Note_on_c, 7, 44, 0
9, 35820, Note_on_c, 7, 60, 100
9, 35849, Note_on_c, 7, 60, 0
9, 35850, Note_on_c, 7, 58, 100
9, 35879, Note_on_c, 7, 58, 0
9, 35880, Note_on_c, 7, 56, 100
9, 35939, Note_on_c, 7, 56, 0
9, 35940, Note_on_c, 7, 44, 100
9, 35999, Note_on_c, 7, 44, 0
9, 36000, Note_on_c, 7, 46, 100
9, 36059, Note_on_c, 7, 46, 0
9, 36060, Note_on_c, 7, 61, 100
9, 36089, Note_on_c, 7, 61, 0
9, 36090, Note_on_c, 7, 60, 100
9, 36119, Note_on_c, 7, 60, 0
9, 36120, Note_on_c, 7, 58, 100
9, 36179, Note_on_c, 7, 58, 0
9, 36180, Note_on_c, 7, 46, 100
9, 36239, Note_on_c, 7, 46, 0
9, 36240, Note_on_c, 7, 48, 100
9, 36299, Note_on_c, 7, 48, 0
9, 36300, Note_on_c, 7, 56, 100
9, 36329, Note_on_c, 7, 56, 0
9, 36330, Note_on_c, 7, 55, 100
9, 36359, Note_on_c, 7, 55, 0
9, 36360, Note_on_c, 7, 53, 100
9, 36389, Note_on_c, 7, 53, 0
9, 36390, Note_on_c, 7, 51, 100
9, 36419, Note_on_c, 7, 51, 0
9, 36420, Note_on_c, 7, 50, 100
9, 36449, Note_on_c, 7, 50, 0
9, 36450, Note_on_c, 7, 48, 100
9, 36479, Note_on_c, 7, 48, 0
9, 36480, Note_on_c, 7, 50, 100
9, 36509, Note_on_c, 7, 50, 0
9, 36510, Note_on_c, 7, 53, 100
9, 36539, Note_on_c, 7, 53, 0
9, 36540, Note_on_c, 7, 56, 100
9, 36569, Note_on_c, 7, 56, 0
9, 36570, Note_on_c, 7, 55, 100
9, 36599, Note_on_c, 7, 55, 0
9, 36600, Note_on_c, 7, 53, 100
9, 36629, Note_on_c, 7, 53, 0
9, 36630, Note_on_c, 7, 51, 100
9, 36659, Note_on_c, 7, 51, 0
9, 36660, Note_on_c, 7, 50, 100
9, 36689, Note_on_c, 7, 50, 0
9, 36690, Note_on_c, 7, 53, 100
9, 36719, Note_on_c, 7, 53, 0
9, 36720, Note_on_c, 7, 52, 100
9, 36749, Note_on_c, 7, 52, 0
9, 36750, Note_on_c, 7, 50, 100
9, 36779, Note_on_c, 7, 50, 0
9, 36780, Note_on_c, 7, 48, 100
9, 36809, Note_on_c, 7, 48, 0
9, 36810, Note_on_c, 7, 50, 100
9, 36839, Note_on_c, 7, 50, 0
9, 36840, Note_on_c, 7, 52, 100
9, 36869, Note_on_c, 7, 52, 0
9, 36870, Note_on_c, 7, 53, 100
9, 36899, Note_on_c, 7, 53, 0
9, 36900, Note_on_c, 7, 55, 100
9, 36929, Note_on_c, 7, 55, 0
9, 36930, Note_on_c, 7, 52, 100
9, 36959, Note_on_c, 7, 52, 0
9, 36960, Note_on_c, 7, 53, 100
9, 37019, Note_on_c, 7, 53, 0
9, 37020, Note_on_c, 7, 51, 100
9, 37079, Note_on_c, 7, 51, 0
9, 37080, Note_on_c, 7, 49, 100
9, 37139, Note_on_c, 7, 49, 0
9, 37140, Note_on_c, 7, 61, 100
9, 37199, Note_on_c, 7, 61, 0
9, 37200, Note_on_c, 7, 60, 100
9, 37319, Note_on_c, 7, 60, 0
9, 37350, Note_on_c, 7, 58, 100
9, 37379, Note_on_c, 7, 58, 0
9, 37380, Note_on_c, 7, 56, 100
9, 37409, Note_on_c, 7, 56, 0
9, 37410, Note_on_c, 7, 55, 100
9, 37439, Note_on_c, 7, 55, 0
9, 37440, Note_on_c, 7, 56, 100
9, 37499, Note_on_c, 7, 56, 0
9, 37590, Note_on_c, 7, 53, 100
9, 37619, Note_on_c, 7, 53, 0
9, 37620, Note_on_c, 7, 52, 100
9, 37649, Note_on_c, 7, 52, 0
9, 37650, Note_on_c, 7, 53, 100
9, 37679, Note_on_c, 7, 53, 0
9, 37680, Note_on_c, 7, 41, 100
9, 37739, Note_on_c, 7, 41, 0
9, 37830, Note_on_c, 7, 53, 100
9, 37859, Note_on_c, 7, 53, 0
9, 37860, Note_on_c, 7, 52, 100
9, 37889, Note_on_c, 7, 52, 0
9, 37890, Note_on_c, 7, 53, 100
9, 37919, Note_on_c, 7, 53, 0
9, 37920, Note_on_c, 7, 41, 100
9, 37979, Note_on_c, 7, 41, 0
9, 38070, Note_on_c, 7, 53, 100
9, 38099, Note_on_c, 7, 53, 0
9, 38100, Note_on_c, 7, 52, 100
9, 38129, Note_on_c, 7, 52, 0
9, 38130, Note_on_c, 7, 53, 100
9, 38159, Note_on_c, 7, 53, 0
9, 38160, Note_on_c, 7, 41, 100
9, 38219, Note_on_c, 7, 41, 0
9, 38310, Note_on_c, 7, 53, 100
9, 38339, Note_on_c, 7, 53, 0
9, 38340, Note_on_c, 7, 51, 100
9, 38369, Note_on_c, 7, 51, 0
9, 38370, Note_on_c, 7, 49, 100
9, 38399, Note_on_c, 7, 49, 0
9, 38400, Note_on_c, 7, 48, 100
9, 38429, Note_on_c, 7, 48, 0
9, 38430, Note_on_c, 7, 60, 100
9, 38459, Note_on_c, 7, 60, 0
9, 38460, Note_on_c, 7, 59, 100
9, 38489, Note_on_c, 7, 59, 0
9, 38490, Note_on_c, 7, 60, 100
9, 38519, Note_on_c, 7, 60, 0
9, 38520, Note_on_c, 7, 52, 100
9, 38579, Note_on_c, 7, 52, 0
9, 38670, Note_on_c, 7, 52, 100
9, 38699, Note_on_c, 7, 52, 0
9, 38700, Note_on_c, 7, 55, 100
9, 38729, Note_on_c, 7, 55, 0
9, 38730, Note_on_c, 7, 58, 100
9, 38759, Note_on_c, 7, 58, 0
9, 38760, Note_on_c, 7, 56, 100
9, 38819, Note_on_c, 7, 56, 0
9, 38910, Note_on_c, 7, 55, 100
9, 38939, Note_on_c, 7, 55, 0
9, 38940, Note_on_c, 7, 52, 100
9, 38969, Note_on_c, 7, 52, 0
9, 38970, Note_on_c, 7, 48, 100
9, 38999, Note_on_c, 7, 48, 0
9, 39000, Note_on_c, 7, 53, 100
9, 39029, Note_on_c, 7, 53, 0
9, 39030, Note_on_c, 7, 48, 100
9, 39059, Note_on_c, 7, 48, 0
9, 39060, Note_on_c, 7, 44, 100
9, 39089, Note_on_c, 7, 44, 0
9, 39090, Note_on_c, 7, 41, 100
9, 39119, Note_on_c, 7, 41, 0
9, 39120, Note_on_c, 7, 48, 100
9, 39149, Note_on_c, 7, 48, 0
9, 39150, Note_on_c, 7, 36, 100
9, 39179, Note_on_c, 7, 36, 0
9, 39180, Note_on_c, 7, 48, 100
9, 39209, Note_on_c, 7, 48, 0
9, 39210, Note_on_c, 7, 46, 100
9, 39239, Note_on_c, 7, 46, 0
9, 39240, Note_on_c, 7, 45, 100
9, 39269, Note_on_c, 7, 45, 0
9, 39270, Note_on_c, 7, 43, 100
9, 39299, Note_on_c, 7, 43, 0
9, 39300, Note_on_c, 7, 41, 100
9, 39329, Note_on_c, 7, 41, 0
9, 39330, Note_on_c, 7, 40, 100
9, 39359, Note_on_c, 7, 40, 0
9, 39360, Note_on_c, 7, 41, 100
9, 39419, Note_on_c, 7, 41, 0
9, 39480, Note_on_c, 7, 53, 100
9, 39539, Note_on_c, 7, 53, 0
9, 39540, Note_on_c, 7, 65, 100
9, 39599, Note_on_c, 7, 65, 0
9, 39720, Note_on_c, 7, 60, 100
9, 39779, Note_on_c, 7, 60, 0
9, 39780, Note_on_c, 7, 68, 100
9, 39839, Note_on_c, 7, 68, 0
9, 39960, Note_on_c, 7, 53, 100
9, 40019, Note_on_c, 7, 53, 0
9, 40020, Note_on_c, 7, 58, 100
9, 40079, Note_on_c, 7, 58, 0
9, 40200, Note_on_c, 7, 51, 100
9, 40259, Note_on_c, 7, 51, 0
9, 40260, Note_on_c, 7, 63, 100
9, 40319, Note_on_c, 7, 63, 0
9, 40440, Note_on_c, 7, 50, 100
9, 40499, Note_on_c, 7, 50, 0
9, 40500, Note_on_c, 7, 59, 100
9, 40559, Note_on_c, 7, 59, 0
9, 40680, Note_on_c, 7, 56, 100
9, 40739, Note_on_c, 7, 56, 0
9, 40740, Note_on_c, 7, 65, 100
9, 40799, Note_on_c, 7, 65, 0
9, 40920, Note_on_c, 7, 59, 100
9, 40979, Note_on_c, 7, 59, 0
9, 40980, Note_on_c, 7, 67, 100
9, 41039, Note_on_c, 7, 67, 0
9, 41160, Note_on_c, 7, 44, 100
9, 41219, Note_on_c, 7, 44, 0
9, 41220, Note_on_c, 7, 56, 100
9, 41279, Note_on_c, 7, 56, 0
9, 41400, Note_on_c, 7, 46, 100
9, 41459, Note_on_c, 7, 46, 0
9, 41460, Note_on_c, 7, 58, 100
9, 41519, Note_on_c, 7, 58, 0
9, 41640, Note_on_c, 7, 48, 100
9, 41699, Note_on_c, 7, 48, 0
9, 41700, Note_on_c, 7, 60, 100
9, 41759, Note_on_c, 7, 60, 0
9, 41880, Note_on_c, 7, 50, 100
9, 41939, Note_on_c, 7, 50, 0
9, 41940, Note_on_c, 7, 62, 100
9, 41999, Note_on_c, 7, 62, 0
9, 42120, Note_on_c, 7, 55, 100
9, 42149, Note_on_c, 7, 55, 0
9, 42150, Note_on_c, 7, 56, 100
9, 42179, Note_on_c, 7, 56, 0
9, 42180, Note_on_c, 7, 55, 100
9, 42209, Note_on_c, 7, 55, 0
9, 42210, Note_on_c, 7, 53, 100
9, 42239, Note_on_c, 7, 53, 0
9, 42240, Note_on_c, 7, 51, 100
9, 42240, Note_on_c, 7, 60, 100
9, 42240, Note_on_c, 7, 55, 100
9, 42299, Note_on_c, 7, 55, 0
9, 42299, Note_on_c, 7, 60, 0
9, 42299, Note_on_c, 7, 51, 0
9, 42300, Note_on_c, 7, 48, 100
9, 42359, Note_on_c, 7, 48, 0
9, 42480, Note_on_c, 7, 60, 100
9, 42539, Note_on_c, 7, 60, 0
9, 42540, Note_on_c, 7, 51, 100
9, 42599, Note_on_c, 7, 51, 0
9, 42720, Note_on_c, 7, 63, 100
9, 42779, Note_on_c, 7, 63, 0
9, 42780, Note_on_c, 7, 60, 100
9, 42839, Note_on_c, 7, 60, 0
9, 42840, Note_on_c, 7, 56, 100
9, 42899, Note_on_c, 7, 56, 0
9, 42900, Note_on_c, 7, 53, 100
9, 42959, Note_on_c, 7, 53, 0
9, 42960, Note_on_c, 7, 46, 100
9, 43019, Note_on_c, 7, 46, 0
9, 43020, Note_on_c, 7, 58, 100
9, 43079, Note_on_c, 7, 58, 0
9, 43200, Note_on_c, 7, 58, 100
9, 43200, Note_on_c, 7, 50, 100
9, 43200, Note_on_c, 7, 53, 100
9, 43259, Note_on_c, 7, 53, 0
9, 43259, Note_on_c, 7, 50, 0
9, 43259, Note_on_c, 7, 58, 0
9, 43260, Note_on_c, 7, 46, 100
9, 43319, Note_on_c, 7, 46, 0
9, 43440, Note_on_c, 7, 58, 100
9, 43499, Note_on_c, 7, 58, 0
9, 43500, Note_on_c, 7, 50, 100
9, 43559, Note_on_c, 7, 50, 0
9, 43680, Note_on_c, 7, 62, 100
9, 43739, Note_on_c, 7, 62, 0
9, 43740, Note_on_c, 7, 58, 100
9, 43799, Note_on_c, 7, 58, 0
9, 43800, Note_on_c, 7, 55, 100
9, 43859, Note_on_c, 7, 55, 0
9, 43860, Note_on_c, 7, 51, 100
9, 43919, Note_on_c, 7, 51, 0
9, 43920, Note_on_c, 7, 44, 100
9, 43979, Note_on_c, 7, 44, 0
9, 43980, Note_on_c, 7, 56, 100
9, 44039, Note_on_c, 7, 56, 0
9, 44160, Note_on_c, 7, 56, 100
9, 44219, Note_on_c, 7, 56, 0
9, 44220, Note_on_c, 7, 65, 100
9, 44279, Note_on_c, 7, 65, 0
9, 44460, Note_on_c, 7, 65, 100
9, 44519, Note_on_c, 7, 65, 0
9, 44520, Note_on_c, 7, 60, 100
9, 44579, Note_on_c, 7, 60, 0
9, 44580, Note_on_c, 7, 56, 100
9, 44639, Note_on_c, 7, 56, 0
9, 44640, Note_on_c, 7, 53, 100
9, 44699, Note_on_c, 7, 53, 0
9, 44700, Note_on_c, 7, 61, 100
9, 44759, Note_on_c, 7, 61, 0
9, 44940, Note_on_c, 7, 61, 100
9, 44999, Note_on_c, 7, 61, 0
9, 45000, Note_on_c, 7, 56, 100
9, 45059, Note_on_c, 7, 56, 0
9, 45060, Note_on_c, 7, 53, 100
9, 45119, Note_on_c, 7, 53, 0
9, 45120, Note_on_c, 7, 49, 100
9, 45179, Note_on_c, 7, 49, 0
9, 45180, Note_on_c, 7, 48, 100
9, 45239, Note_on_c, 7, 48, 0
9, 45240, Note_on_c, 7, 47, 100
9, 45299, Note_on_c, 7, 47, 0
9, 45300, Note_on_c, 7, 48, 100
9, 45359, Note_on_c, 7, 48, 0
9, 45360, Note_on_c, 7, 50, 100
9, 45419, Note_on_c, 7, 50, 0
9, 45420, Note_on_c, 7, 59, 100
9, 45479, Note_on_c, 7, 59, 0
9, 45480, Note_on_c, 7, 60, 100
9, 45539, Note_on_c, 7, 60, 0
9, 45540, Note_on_c, 7, 56, 100
9, 45599, Note_on_c, 7, 56, 0
9, 45600, Note_on_c, 7, 55, 100
9, 45659, Note_on_c, 7, 55, 0
9, 45660, Note_on_c, 7, 53, 100
9, 45719, Note_on_c, 7, 53, 0
9, 45720, Note_on_c, 7, 55, 100
9, 45779, Note_on_c, 7, 55, 0
9, 45780, Note_on_c, 7, 43, 100
9, 45839, Note_on_c, 7, 43, 0
9, 45840, Note_on_c, 7, 50, 100
9, 45899, Note_on_c, 7, 50, 0
9, 45900, Note_on_c, 7, 57, 100
9, 45959, Note_on_c, 7, 57, 0
9, 45960, Note_on_c, 7, 54, 100
9, 46019, Note_on_c, 7, 54, 0
9, 46020, Note_on_c, 7, 50, 100
9, 46079, Note_on_c, 7, 50, 0
9, 46080, Note_on_c, 7, 45, 100
9, 46139, Note_on_c, 7, 45, 0
9, 46140, Note_on_c, 7, 50, 100
9, 46199, Note_on_c, 7, 50, 0
9, 46200, Note_on_c, 7, 45, 100
9, 46259, Note_on_c, 7, 45, 0
9, 46260, Note_on_c, 7, 48, 100
9, 46319, Note_on_c, 7, 48, 0
9, 46320, Note_on_c, 7, 38, 100
9, 46379, Note_on_c, 7, 38, 0
9, 46410, Note_on_c, 7, 62, 100
9, 46439, Note_on_c, 7, 62, 0
9, 46440, Note_on_c, 7, 60, 100
9, 46469, Note_on_c, 7, 60, 0
9, 46470, Note_on_c, 7, 58, 100
9, 46499, Note_on_c, 7, 58, 0
9, 46500, Note_on_c, 7, 57, 100
9, 46529, Note_on_c, 7, 57, 0
9, 46530, Note_on_c, 7, 55, 100
9, 46559, Note_on_c, 7, 55, 0
9, 46560, Note_on_c, 7, 54, 100
9, 46619, Note_on_c, 7, 54, 0
9, 46620, Note_on_c, 7, 50, 100
9, 46679, Note_on_c, 7, 50, 0
9, 46680, Note_on_c, 7, 45, 100
9, 46739, Note_on_c, 7, 45, 0
9, 46740, Note_on_c, 7, 48, 100
9, 46799, Note_on_c, 7, 48, 0
9, 46800, Note_on_c, 7, 42, 100
9, 46859, Note_on_c, 7, 42, 0
9, 46860, Note_on_c, 7, 45, 100
9, 46919, Note_on_c, 7, 45, 0
9, 46920, Note_on_c, 7, 38, 100
9, 46979, Note_on_c, 7, 38, 0
9, 46980, Note_on_c, 7, 42, 100
9, 47039, Note_on_c, 7, 42, 0
9, 47040, Note_on_c, 7, 43, 100
9, 47099, Note_on_c, 7, 43, 0
9, 47100, Note_on_c, 7, 55, 100
9, 47159, Note_on_c, 7, 55, 0
9, 47820, Note_on_c, 7, 62, 100
9, 47879, Note_on_c, 7, 62, 0
9, 47880, Note_on_c, 7, 59, 100
9, 47939, Note_on_c, 7, 59, 0
9, 47940, Note_on_c, 7, 55, 100
9, 47999, Note_on_c, 7, 55, 0
9, 48000, Note_on_c, 7, 50, 100
9, 48059, Note_on_c, 7, 50, 0
9, 48060, Note_on_c, 7, 55, 100
9, 48119, Note_on_c, 7, 55, 0
9, 48120, Note_on_c, 7, 50, 100
9, 48179, Note_on_c, 7, 50, 0
9, 48180, Note_on_c, 7, 53, 100
9, 48239, Note_on_c, 7, 53, 0
9, 48240, Note_on_c, 7, 43, 100
9, 48329, Note_on_c, 7, 43, 0
9, 48330, Note_on_c, 7, 67, 100
9, 48359, Note_on_c, 7, 67, 0
9, 48360, Note_on_c, 7, 65, 100
9, 48389, Note_on_c, 7, 65, 0
9, 48390, Note_on_c, 7, 63, 100
9, 48419, Note_on_c, 7, 63, 0
9, 48420, Note_on_c, 7, 62, 100
9, 48449, Note_on_c, 7, 62, 0
9, 48450, Note_on_c, 7, 60, 100
9, 48479, Note_on_c, 7, 60, 0
9, 48480, Note_on_c, 7, 59, 100
9, 48539, Note_on_c, 7, 59, 0
9, 48540, Note_on_c, 7, 55, 100
9, 48599, Note_on_c, 7, 55, 0
9, 48600, Note_on_c, 7, 50, 100
9, 48659, Note_on_c, 7, 50, 0
9, 48660, Note_on_c, 7, 53, 100
9, 48719, Note_on_c, 7, 53, 0
9, 48720, Note_on_c, 7, 47, 100
9, 48779, Note_on_c, 7, 47, 0
9, 48780, Note_on_c, 7, 50, 100
9, 48839, Note_on_c, 7, 50, 0
9, 48840, Note_on_c, 7, 43, 100
9, 48899, Note_on_c, 7, 43, 0
9, 48900, Note_on_c, 7, 47, 100
9, 48959, Note_on_c, 7, 47, 0
9, 48960, Note_on_c, 7, 48, 100
9, 49019, Note_on_c, 7, 48, 0
9, 49020, Note_on_c, 7, 36, 100
9, 49079, Note_on_c, 7, 36, 0
9, 49230, Note_on_c, 7, 65, 100
9, 49259, Note_on_c, 7, 65, 0
9, 49260, Note_on_c, 7, 63, 100
9, 49289, Note_on_c, 7, 63, 0
9, 49290, Note_on_c, 7, 62, 100
9, 49319, Note_on_c, 7, 62, 0
9, 49320, Note_on_c, 7, 60, 100
9, 49379, Note_on_c, 7, 60, 0
9, 49380, Note_on_c, 7, 67, 100
9, 49439, Note_on_c, 7, 67, 0
9, 49440, Note_on_c, 7, 55, 100
9, 49499, Note_on_c, 7, 55, 0
9, 49500, Note_on_c, 7, 60, 100
9, 49559, Note_on_c, 7, 60, 0
9, 49560, Note_on_c, 7, 56, 100
9, 49619, Note_on_c, 7, 56, 0
9, 49620, Note_on_c, 7, 53, 100
9, 49679, Note_on_c, 7, 53, 0
9, 49680, Note_on_c, 7, 58, 100
9, 49709, Note_on_c, 7, 58, 0
9, 49710, Note_on_c, 7, 56, 100
9, 49739, Note_on_c, 7, 56, 0
9, 49740, Note_on_c, 7, 58, 100
9, 49769, Note_on_c, 7, 58, 0
9, 49770, Note_on_c, 7, 62, 100
9, 49799, Note_on_c, 7, 62, 0
9, 49800, Note_on_c, 7, 65, 100
9, 49829, Note_on_c, 7, 65, 0
9, 49830, Note_on_c, 7, 63, 100
9, 49859, Note_on_c, 7, 63, 0
9, 49860, Note_on_c, 7, 65, 100
9, 49889, Note_on_c, 7, 65, 0
9, 49890, Note_on_c, 7, 62, 100
9, 49919, Note_on_c, 7, 62, 0
9, 49920, Note_on_c, 7, 70, 100
9, 49979, Note_on_c, 7, 70, 0
9, 49980, Note_on_c, 7, 58, 100
9, 50039, Note_on_c, 7, 58, 0
9, 50190, Note_on_c, 7, 63, 100
9, 50219, Note_on_c, 7, 63, 0
9, 50220, Note_on_c, 7, 62, 100
9, 50249, Note_on_c, 7, 62, 0
9, 50250, Note_on_c, 7, 60, 100
9, 50279, Note_on_c, 7, 60, 0
9, 50280, Note_on_c, 7, 58, 100
9, 50339, Note_on_c, 7, 58, 0
9, 50340, Note_on_c, 7, 65, 100
9, 50399, Note_on_c, 7, 65, 0
9, 50400, Note_on_c, 7, 53, 100
9, 50459, Note_on_c, 7, 53, 0
9, 50460, Note_on_c, 7, 58, 100
9, 50519, Note_on_c, 7, 58, 0
9, 50520, Note_on_c, 7, 55, 100
9, 50579, Note_on_c, 7, 55, 0
9, 50580, Note_on_c, 7, 51, 100
9, 50639, Note_on_c, 7, 51, 0
9, 50640, Note_on_c, 7, 56, 100
9, 50669, Note_on_c, 7, 56, 0
9, 50670, Note_on_c, 7, 55, 100
9, 50699, Note_on_c, 7, 55, 0
9, 50700, Note_on_c, 7, 56, 100
9, 50729, Note_on_c, 7, 56, 0
9, 50730, Note_on_c, 7, 60, 100
9, 50759, Note_on_c, 7, 60, 0
9, 50760, Note_on_c, 7, 63, 100
9, 50789, Note_on_c, 7, 63, 0
9, 50790, Note_on_c, 7, 62, 100
9, 50819, Note_on_c, 7, 62, 0
9, 50820, Note_on_c, 7, 63, 100
9, 50849, Note_on_c, 7, 63, 0
9, 50850, Note_on_c, 7, 60, 100
9, 50879, Note_on_c, 7, 60, 0
9, 50880, Note_on_c, 7, 56, 100
9, 50909, Note_on_c, 7, 56, 0
9, 50910, Note_on_c, 7, 55, 100
9, 50939, Note_on_c, 7, 55, 0
9, 50940, Note_on_c, 7, 53, 100
9, 50969, Note_on_c, 7, 53, 0
9, 50970, Note_on_c, 7, 55, 100
9, 50999, Note_on_c, 7, 55, 0
9, 51000, Note_on_c, 7, 56, 100
9, 51029, Note_on_c, 7, 56, 0
9, 51030, Note_on_c, 7, 55, 100
9, 51059, Note_on_c, 7, 55, 0
9, 51060, Note_on_c, 7, 53, 100
9, 51089, Note_on_c, 7, 53, 0
9, 51090, Note_on_c, 7, 55, 100
9, 51119, Note_on_c, 7, 55, 0
9, 51120, Note_on_c, 7, 56, 100
9, 51149, Note_on_c, 7, 56, 0
9, 51150, Note_on_c, 7, 55, 100
9, 51179, Note_on_c, 7, 55, 0
9, 51180, Note_on_c, 7, 53, 100
9, 51209, Note_on_c, 7, 53, 0
9, 51210, Note_on_c, 7, 55, 100
9, 51239, Note_on_c, 7, 55, 0
9, 51240, Note_on_c, 7, 56, 100
9, 51269, Note_on_c, 7, 56, 0
9, 51270, Note_on_c, 7, 55, 100
9, 51299, Note_on_c, 7, 55, 0
9, 51300, Note_on_c, 7, 53, 100
9, 51329, Note_on_c, 7, 53, 0
9, 51330, Note_on_c, 7, 52, 100
9, 51359, Note_on_c, 7, 52, 0
9, 51360, Note_on_c, 7, 53, 100
9, 51389, Note_on_c, 7, 53, 0
9, 51390, Note_on_c, 7, 51, 100
9, 51419, Note_on_c, 7, 51, 0
9, 51420, Note_on_c, 7, 49, 100
9, 51449, Note_on_c, 7, 49, 0
9, 51450, Note_on_c, 7, 51, 100
9, 51479, Note_on_c, 7, 51, 0
9, 51480, Note_on_c, 7, 53, 100
9, 51509, Note_on_c, 7, 53, 0
9, 51510, Note_on_c, 7, 51, 100
9, 51539, Note_on_c, 7, 51, 0
9, 51540, Note_on_c, 7, 49, 100
9, 51569, Note_on_c, 7, 49, 0
9, 51570, Note_on_c, 7, 51, 100
9, 51599, Note_on_c, 7, 51, 0
9, 51600, Note_on_c, 7, 53, 100
9, 51629, Note_on_c, 7, 53, 0
9, 51630, Note_on_c, 7, 51, 100
9, 51659, Note_on_c, 7, 51, 0
9, 51660, Note_on_c, 7, 49, 100
9, 51689, Note_on_c, 7, 49, 0
9, 51690, Note_on_c, 7, 51, 100
9, 51719, Note_on_c, 7, 51, 0
9, 51720, Note_on_c, 7, 53, 100
9, 51749, Note_on_c, 7, 53, 0
9, 51750, Note_on_c, 7, 51, 100
9, 51779, Note_on_c, 7, 51, 0
9, 51780, Note_on_c, 7, 49, 100
9, 51809, Note_on_c, 7, 49, 0
9, 51810, Note_on_c, 7, 48, 100
9, 51839, Note_on_c, 7, 48, 0
9, 51840, Note_on_c, 7, 49, 100
9, 51899, Note_on_c, 7, 49, 0
9, 51900, Note_on_c, 7, 53, 100
9, 51959, Note_on_c, 7, 53, 0
9, 51960, Note_on_c, 7, 44, 100
9, 52019, Note_on_c, 7, 44, 0
9, 52020, Note_on_c, 7, 53, 100
9, 52139, Note_on_c, 7, 53, 0
9, 52140, Note_on_c, 7, 60, 100
9, 52140, Note_on_c, 7, 51, 100
9, 52169, Note_on_c, 7, 60, 0
9, 52170, Note_on_c, 7, 59, 100
9, 52199, Note_on_c, 7, 59, 0
9, 52199, Note_on_c, 7, 51, 0
9, 52200, Note_on_c, 7, 60, 100
9, 52200, Note_on_c, 7, 56, 100
9, 52259, Note_on_c, 7, 56, 0
9, 52259, Note_on_c, 7, 60, 0
9, 52260, Note_on_c, 7, 56, 100
9, 52260, Note_on_c, 7, 53, 100
9, 52319, Note_on_c, 7, 53, 0
9, 52319, Note_on_c, 7, 56, 0
9, 52320, Note_on_c, 7, 55, 100
9, 52379, Note_on_c, 7, 55, 0
9, 52380, Note_on_c, 7, 53, 100
9, 52439, Note_on_c, 7, 53, 0
9, 52440, Note_on_c, 7, 55, 100
9, 52499, Note_on_c, 7, 55, 0
9, 52500, Note_on_c, 7, 43, 100
9, 52559, Note_on_c, 7, 43, 0
9, 52560, Note_on_c, 7, 48, 100
9, 52560, Note_on_c, 7, 36, 100
9, 52799, Note_on_c, 7, 36, 0
9, 52799, Note_on_c, 7, 48, 0
9, 52860, Note_on_c, 7, 51, 100
9, 52890, Note_on_c, 7, 51, 0
9, 52890, Note_on_c, 7, 50, 100
9, 52920, Note_on_c, 7, 50, 0
9, 52920, Note_on_c, 7, 51, 100
9, 52950, Note_on_c, 7, 51, 0
9, 52950, Note_on_c, 7, 46, 100
9, 52980, Note_on_c, 7, 46, 0
9, 52980, Note_on_c, 7, 53, 100
9, 53010, Note_on_c, 7, 53, 0
9, 53010, Note_on_c, 7, 46, 100
9, 53040, Note_on_c, 7, 46, 0
9, 53040, Note_on_c, 7, 55, 100
9, 53100, Note_on_c, 7, 55, 0
9, 53100, Note_on_c, 7, 43, 100
9, 53160, Note_on_c, 7, 43, 0
9, 53160, Note_on_c, 7, 44, 100
9, 53220, Note_on_c, 7, 44, 0
9, 53220, Note_on_c, 7, 46, 100
9, 53250, Note_on_c, 7, 46, 0
9, 53250, Note_on_c, 7, 50, 100
9, 53280, Note_on_c, 7, 50, 0
9, 53280, Note_on_c, 7, 53, 100
9, 53310, Note_on_c, 7, 53, 0
9, 53310, Note_on_c, 7, 58, 100
9, 53340, Note_on_c, 7, 58, 0
9, 53340, Note_on_c, 7, 56, 100
9, 53370, Note_on_c, 7, 56, 0
9, 53370, Note_on_c, 7, 55, 100
9, 53400, Note_on_c, 7, 55, 0
9, 53400, Note_on_c, 7, 56, 100
9, 53460, Note_on_c, 7, 56, 0
9, 53460, Note_on_c, 7, 44, 100
9, 53520, Note_on_c, 7, 44, 0
9, 53520, Note_on_c, 7, 43, 100
9, 53580, Note_on_c, 7, 43, 0
9, 53580, Note_on_c, 7, 41, 100
9, 53640, Note_on_c, 7, 41, 0
9, 53640, Note_on_c, 7, 53, 100
9, 53700, Note_on_c, 7, 53, 0
9, 53700, Note_on_c, 7, 51, 100
9, 53760, Note_on_c, 7, 51, 0
9, 53760, Note_on_c, 7, 50, 100
9, 53820, Note_on_c, 7, 50, 0
9, 53820, Note_on_c, 7, 46, 100
9, 53880, Note_on_c, 7, 46, 0
9, 53880, Note_on_c, 7, 50, 100
9, 53940, Note_on_c, 7, 50, 0
9, 53940, Note_on_c, 7, 51, 100
9, 54000, Note_on_c, 7, 51, 0
9, 54000, Note_on_c, 7, 55, 100
9, 54060, Note_on_c, 7, 55, 0
9, 54060, Note_on_c, 7, 51, 100
9, 54120, Note_on_c, 7, 51, 0
9, 54120, Note_on_c, 7, 48, 100
9, 54180, Note_on_c, 7, 48, 0
9, 54180, Note_on_c, 7, 53, 100
9, 54240, Note_on_c, 7, 53, 0
9, 54240, Note_on_c, 7, 41, 100
9, 54300, Note_on_c, 7, 41, 0
9, 54300, Note_on_c, 7, 46, 100
9, 54420, Note_on_c, 7, 46, 0
9, 54510, Note_on_c, 7, 63, 100
9, 54540, Note_on_c, 7, 63, 0
9, 54540, Note_on_c, 7, 62, 100
9, 54570, Note_on_c, 7, 62, 0
9, 54570, Note_on_c, 7, 60, 100
9, 54600, Note_on_c, 7, 60, 0
9, 54600, Note_on_c, 7, 62, 100
9, 54630, Note_on_c, 7, 62, 0
9, 54630, Note_on_c, 7, 58, 100
9, 54660, Note_on_c, 7, 58, 0
9, 54660, Note_on_c, 7, 65, 100
9, 54720, Note_on_c, 7, 65, 0
9, 54870, Note_on_c, 7, 60, 100
9, 54900, Note_on_c, 7, 60, 0
9, 54900, Note_on_c, 7, 53, 100
9, 54930, Note_on_c, 7, 53, 0
9, 54930, Note_on_c, 7, 55, 100
9, 54960, Note_on_c, 7, 55, 0
9, 54960, Note_on_c, 7, 57, 100
9, 54990, Note_on_c, 7, 57, 0
9, 54990, Note_on_c, 7, 58, 100
9, 55020, Note_on_c, 7, 58, 0
9, 55020, Note_on_c, 7, 60, 100
9, 55080, Note_on_c, 7, 60, 0
9, 55080, Note_on_c, 7, 48, 100
9, 55140, Note_on_c, 7, 48, 0
9, 55260, Note_on_c, 7, 53, 100
9, 55290, Note_on_c, 7, 53, 0
9, 55290, Note_on_c, 7, 55, 100
9, 55320, Note_on_c, 7, 55, 0
9, 55320, Note_on_c, 7, 57, 100
9, 55350, Note_on_c, 7, 57, 0
9, 55350, Note_on_c, 7, 53, 100
9, 55380, Note_on_c, 7, 53, 0
9, 55380, Note_on_c, 7, 58, 100
9, 55440, Note_on_c, 7, 58, 0
9, 55440, Note_on_c, 7, 46, 100
9, 55500, Note_on_c, 7, 46, 0
9, 55800, Note_on_c, 7, 53, 100
9, 55860, Note_on_c, 7, 53, 0
9, 55860, Note_on_c, 7, 51, 100
9, 55920, Note_on_c, 7, 51, 0
9, 55920, Note_on_c, 7, 50, 100
9, 55980, Note_on_c, 7, 50, 0
9, 55980, Note_on_c, 7, 59, 100
9, 56040, Note_on_c, 7, 59, 0
9, 56040, Note_on_c, 7, 55, 100
9, 56100, Note_on_c, 7, 55, 0
9, 56100, Note_on_c, 7, 60, 100
9, 56160, Note_on_c, 7, 60, 0
9, 56160, Note_on_c, 7, 48, 100
9, 56220, Note_on_c, 7, 48, 0
9, 56460, Note_on_c, 7, 43, 100
9, 56490, Note_on_c, 7, 43, 0
9, 56490, Note_on_c, 7, 47, 100
9, 56520, Note_on_c, 7, 47, 0
9, 56520, Note_on_c, 7, 50, 100
9, 56550, Note_on_c, 7, 50, 0
9, 56550, Note_on_c, 7, 55, 100
9, 56580, Note_on_c, 7, 55, 0
9, 56580, Note_on_c, 7, 53, 100
9, 56610, Note_on_c, 7, 53, 0
9, 56610, Note_on_c, 7, 50, 100
9, 56640, Note_on_c, 7, 50, 0
9, 56640, Note_on_c, 7, 51, 100
9, 56700, Note_on_c, 7, 51, 0
9, 56700, Note_on_c, 7, 39, 100
9, 56760, Note_on_c, 7, 39, 0
9, 56760, Note_on_c, 7, 36, 100
9, 56820, Note_on_c, 7, 36, 0
9, 56820, Note_on_c, 7, 43, 100
9, 56850, Note_on_c, 7, 43, 0
9, 56850, Note_on_c, 7, 50, 100
9, 56880, Note_on_c, 7, 50, 0
9, 56880, Note_on_c, 7, 53, 100
9, 56910, Note_on_c, 7, 53, 0
9, 56910, Note_on_c, 7, 56, 100
9, 56940, Note_on_c, 7, 56, 0
9, 56940, Note_on_c, 7, 55, 100
9, 56970, Note_on_c, 7, 55, 0
9, 56970, Note_on_c, 7, 53, 100
9, 57000, Note_on_c, 7, 53, 0
9, 57000, Note_on_c, 7, 55, 100
9, 57060, Note_on_c, 7, 55, 0
9, 57060, Note_on_c, 7, 53, 100
9, 57120, Note_on_c, 7, 53, 0
9, 57120, Note_on_c, 7, 51, 100
9, 57180, Note_on_c, 7, 51, 0
9, 57180, Note_on_c, 7, 50, 100
9, 57240, Note_on_c, 7, 50, 0
9, 57240, Note_on_c, 7, 62, 100
9, 57300, Note_on_c, 7, 62, 0
9, 57300, Note_on_c, 7, 60, 100
9, 57360, Note_on_c, 7, 60, 0
9, 57360, Note_on_c, 7, 59, 100
9, 57420, Note_on_c, 7, 59, 0
9, 57420, Note_on_c, 7, 62, 100
9, 57480, Note_on_c, 7, 62, 0
9, 57480, Note_on_c, 7, 55, 100
9, 57540, Note_on_c, 7, 55, 0
9, 57540, Note_on_c, 7, 60, 100
9, 57600, Note_on_c, 7, 60, 0
9, 57600, Note_on_c, 7, 48, 100
9, 57660, Note_on_c, 7, 48, 0
9, 57660, Note_on_c, 7, 50, 100
9, 57720, Note_on_c, 7, 50, 0
9, 57720, Note_on_c, 7, 51, 100
9, 57780, Note_on_c, 7, 51, 0
9, 57780, Note_on_c, 7, 48, 100
9, 57840, Note_on_c, 7, 48, 0
9, 57840, Note_on_c, 7, 56, 100
9, 57900, Note_on_c, 7, 56, 0
9, 57900, Note_on_c, 7, 55, 100
9, 57959, Note_on_c, 7, 55, 0
9, 58110, Note_on_c, 7, 62, 100
9, 58139, Note_on_c, 7, 62, 0
9, 58140, Note_on_c, 7, 55, 100
9, 58169, Note_on_c, 7, 55, 0
9, 58170, Note_on_c, 7, 57, 100
9, 58199, Note_on_c, 7, 57, 0
9, 58200, Note_on_c, 7, 59, 100
9, 58229, Note_on_c, 7, 59, 0
9, 58230, Note_on_c, 7, 60, 100
9, 58259, Note_on_c, 7, 60, 0
9, 58260, Note_on_c, 7, 62, 100
9, 58319, Note_on_c, 7, 62, 0
9, 58320, Note_on_c, 7, 50, 100
9, 58379, Note_on_c, 7, 50, 0
9, 58500, Note_on_c, 7, 43, 100
9, 58529, Note_on_c, 7, 43, 0
9, 58530, Note_on_c, 7, 45, 100
9, 58559, Note_on_c, 7, 45, 0
9, 58560, Note_on_c, 7, 47, 100
9, 58589, Note_on_c, 7, 47, 0
9, 58590, Note_on_c, 7, 43, 100
9, 58619, Note_on_c, 7, 43, 0
9, 58620, Note_on_c, 7, 48, 100
9, 58679, Note_on_c, 7, 48, 0
9, 58680, Note_on_c, 7, 60, 100
9, 58739, Note_on_c, 7, 60, 0
9, 58740, Note_on_c, 7, 58, 100
9, 58799, Note_on_c, 7, 58, 0
9, 58800, Note_on_c, 7, 56, 100
9, 58859, Note_on_c, 7, 56, 0
9, 58860, Note_on_c, 7, 44, 100
9, 58919, Note_on_c, 7, 44, 0
9, 58920, Note_on_c, 7, 43, 100
9, 58979, Note_on_c, 7, 43, 0
9, 58980, Note_on_c, 7, 41, 100
9, 59039, Note_on_c, 7, 41, 0
9, 59040, Note_on_c, 7, 53, 100
9, 59099, Note_on_c, 7, 53, 0
9, 59100, Note_on_c, 7, 41, 100
9, 59159, Note_on_c, 7, 41, 0
9, 59160, Note_on_c, 7, 43, 100
9, 59219, Note_on_c, 7, 43, 0
9, 59220, Note_on_c, 7, 55, 100
9, 59279, Note_on_c, 7, 55, 0
9, 59280, Note_on_c, 7, 43, 100
9, 59339, Note_on_c, 7, 43, 0
9, 59340, Note_on_c, 7, 44, 100
9, 59399, Note_on_c, 7, 44, 0
9, 59400, Note_on_c, 7, 56, 100
9, 59459, Note_on_c, 7, 56, 0
9, 59460, Note_on_c, 7, 44, 100
9, 59519, Note_on_c, 7, 44, 0
9, 59520, Note_on_c, 7, 43, 100
9, 59579, Note_on_c, 7, 43, 0
9, 59580, Note_on_c, 7, 55, 100
9, 59639, Note_on_c, 7, 55, 0
9, 59640, Note_on_c, 7, 53, 100
9, 59699, Note_on_c, 7, 53, 0
9, 59700, Note_on_c, 7, 55, 100
9, 59759, Note_on_c, 7, 55, 0
9, 59760, Note_on_c, 7, 43, 100
9, 59819, Note_on_c, 7, 43, 0
9, 59820, Note_on_c, 7, 41, 100
9, 59879, Note_on_c, 7, 41, 0
9, 59880, Note_on_c, 7, 43, 100
9, 59939, Note_on_c, 7, 43, 0
9, 59940, Note_on_c, 7, 55, 100
9, 59999, Note_on_c, 7, 55, 0
9, 60000, Note_on_c, 7, 43, 100
9, 60059, Note_on_c, 7, 43, 0
9, 60060, Note_on_c, 7, 48, 100
9, 60119, Note_on_c, 7, 48, 0
9, 60120, Note_on_c, 7, 60, 100
9, 60269, Note_on_c, 7, 60, 0
9, 60270, Note_on_c, 7, 62, 100
9, 60299, Note_on_c, 7, 62, 0
9, 60300, Note_on_c, 7, 60, 100
9, 60329, Note_on_c, 7, 60, 0
9, 60330, Note_on_c, 7, 58, 100
9, 60359, Note_on_c, 7, 58, 0
9, 60360, Note_on_c, 7, 60, 100
9, 60389, Note_on_c, 7, 60, 0
9, 60390, Note_on_c, 7, 63, 100
9, 60419, Note_on_c, 7, 63, 0
9, 60420, Note_on_c, 7, 65, 100
9, 60479, Note_on_c, 7, 65, 0
9, 60480, Note_on_c, 7, 53, 100
9, 60539, Note_on_c, 7, 53, 0
9, 60540, Note_on_c, 7, 51, 100
9, 60599, Note_on_c, 7, 51, 0
9, 60600, Note_on_c, 7, 50, 100
9, 60659, Note_on_c, 7, 50, 0
9, 60660, Note_on_c, 7, 62, 100
9, 60719, Note_on_c, 7, 62, 0
9, 60720, Note_on_c, 7, 60, 100
9, 60779, Note_on_c, 7, 60, 0
9, 60780, Note_on_c, 7, 58, 100
9, 60839, Note_on_c, 7, 58, 0
9, 60840, Note_on_c, 7, 62, 100
9, 60989, Note_on_c, 7, 62, 0
9, 60990, Note_on_c, 7, 63, 100
9, 61019, Note_on_c, 7, 63, 0
9, 61020, Note_on_c, 7, 62, 100
9, 61049, Note_on_c, 7, 62, 0
9, 61050, Note_on_c, 7, 60, 100
9, 61079, Note_on_c, 7, 60, 0
9, 61080, Note_on_c, 7, 62, 100
9, 61109, Note_on_c, 7, 62, 0
9, 61110, Note_on_c, 7, 58, 100
9, 61139, Note_on_c, 7, 58, 0
9, 61140, Note_on_c, 7, 51, 100
9, 61199, Note_on_c, 7, 51, 0
9, 61200, Note_on_c, 7, 63, 100
9, 61259, Note_on_c, 7, 63, 0
9, 61260, Note_on_c, 7, 62, 100
9, 61319, Note_on_c, 7, 62, 0
9, 61320, Note_on_c, 7, 60, 100
9, 61379, Note_on_c, 7, 60, 0
9, 61380, Note_on_c, 7, 48, 100
9, 61439, Note_on_c, 7, 48, 0
9, 61440, Note_on_c, 7, 46, 100
9, 61499, Note_on_c, 7, 46, 0
9, 61500, Note_on_c, 7, 45, 100
9, 61529, Note_on_c, 7, 45, 0
9, 61530, Note_on_c, 7, 62, 100
9, 61559, Note_on_c, 7, 62, 0
9, 61560, Note_on_c, 7, 60, 100
9, 61589, Note_on_c, 7, 60, 0
9, 61590, Note_on_c, 7, 58, 100
9, 61619, Note_on_c, 7, 58, 0
9, 61620, Note_on_c, 7, 60, 100
9, 61649, Note_on_c, 7, 60, 0
9, 61650, Note_on_c, 7, 57, 100
9, 61679, Note_on_c, 7, 57, 0
9, 61680, Note_on_c, 7, 53, 100
9, 61739, Note_on_c, 7, 53, 0
9, 61740, Note_on_c, 7, 55, 100
9, 61799, Note_on_c, 7, 55, 0
9, 61800, Note_on_c, 7, 57, 100
9, 61859, Note_on_c, 7, 57, 0
9, 61860, Note_on_c, 7, 58, 100
9, 61919, Note_on_c, 7, 58, 0
9, 61920, Note_on_c, 7, 46, 100
9, 61979, Note_on_c, 7, 46, 0
9, 61980, Note_on_c, 7, 45, 100
9, 62039, Note_on_c, 7, 45, 0
9, 62040, Note_on_c, 7, 43, 100
9, 62099, Note_on_c, 7, 43, 0
9, 62100, Note_on_c, 7, 55, 100
9, 62159, Note_on_c, 7, 55, 0
9, 62160, Note_on_c, 7, 48, 100
9, 62219, Note_on_c, 7, 48, 0
9, 62220, Note_on_c, 7, 53, 100
9, 62249, Note_on_c, 7, 53, 0
9, 62250, Note_on_c, 7, 57, 100
9, 62279, Note_on_c, 7, 57, 0
9, 62280, Note_on_c, 7, 60, 100
9, 62309, Note_on_c, 7, 60, 0
9, 62310, Note_on_c, 7, 65, 100
9, 62339, Note_on_c, 7, 65, 0
9, 62340, Note_on_c, 7, 63, 100
9, 62369, Note_on_c, 7, 63, 0
9, 62370, Note_on_c, 7, 62, 100
9, 62399, Note_on_c, 7, 62, 0
9, 62400, Note_on_c, 7, 63, 100
9, 62459, Note_on_c, 7, 63, 0
9, 62460, Note_on_c, 7, 50, 100
9, 62519, Note_on_c, 7, 50, 0
9, 62520, Note_on_c, 7, 51, 100
9, 62579, Note_on_c, 7, 51, 0
9, 62580, Note_on_c, 7, 53, 100
9, 62609, Note_on_c, 7, 53, 0
9, 62610, Note_on_c, 7, 57, 100
9, 62639, Note_on_c, 7, 57, 0
9, 62640, Note_on_c, 7, 60, 100
9, 62669, Note_on_c, 7, 60, 0
9, 62670, Note_on_c, 7, 65, 100
9, 62699, Note_on_c, 7, 65, 0
9, 62700, Note_on_c, 7, 63, 100
9, 62729, Note_on_c, 7, 63, 0
9, 62730, Note_on_c, 7, 62, 100
9, 62759, Note_on_c, 7, 62, 0
9, 62760, Note_on_c, 7, 63, 100
9, 62819, Note_on_c, 7, 63, 0
9, 62820, Note_on_c, 7, 51, 100
9, 62879, Note_on_c, 7, 51, 0
9, 62880, Note_on_c, 7, 50, 100
9, 62939, Note_on_c, 7, 50, 0
9, 62940, Note_on_c, 7, 48, 100
9, 62999, Note_on_c, 7, 48, 0
9, 63000, Note_on_c, 7, 60, 100
9, 63059, Note_on_c, 7, 60, 0
9, 63060, Note_on_c, 7, 58, 100
9, 63119, Note_on_c, 7, 58, 0
9, 63120, Note_on_c, 7, 57, 100
9, 63179, Note_on_c, 7, 57, 0
9, 63180, Note_on_c, 7, 53, 100
9, 63239, Note_on_c, 7, 53, 0
9, 63240, Note_on_c, 7, 57, 100
9, 63299, Note_on_c, 7, 57, 0
9, 63300, Note_on_c, 7, 58, 100
9, 63329, Note_on_c, 7, 58, 0
9, 63330, Note_on_c, 7, 60, 100
9, 63359, Note_on_c, 7, 60, 0
9, 63360, Note_on_c, 7, 62, 100
9, 63389, Note_on_c, 7, 62, 0
9, 63390, Note_on_c, 7, 64, 100
9, 63419, Note_on_c, 7, 64, 0
9, 63420, Note_on_c, 7, 65, 100
9, 63449, Note_on_c, 7, 65, 0
9, 63450, Note_on_c, 7, 67, 100
9, 63479, Note_on_c, 7, 67, 0
9, 63480, Note_on_c, 7, 64, 100
9, 63539, Note_on_c, 7, 64, 0
9, 63540, Note_on_c, 7, 60, 100
9, 63599, Note_on_c, 7, 60, 0
9, 63600, Note_on_c, 7, 64, 100
9, 63659, Note_on_c, 7, 64, 0
9, 63660, Note_on_c, 7, 65, 100
9, 63719, Note_on_c, 7, 65, 0
9, 63870, Note_on_c, 7, 58, 100
9, 63899, Note_on_c, 7, 58, 0
9, 63900, Note_on_c, 7, 56, 100
9, 63929, Note_on_c, 7, 56, 0
9, 63930, Note_on_c, 7, 55, 100
9, 63959, Note_on_c, 7, 55, 0
9, 63960, Note_on_c, 7, 56, 100
9, 63989, Note_on_c, 7, 56, 0
9, 63990, Note_on_c, 7, 53, 100
9, 64019, Note_on_c, 7, 53, 0
9, 64020, Note_on_c, 7, 60, 100
9, 64080, Note_on_c, 7, 60, 0
9, 64230, Note_on_c, 7, 55, 100
9, 64260, Note_on_c, 7, 55, 0
9, 64260, Note_on_c, 7, 60, 100
9, 64290, Note_on_c, 7, 60, 0
9, 64290, Note_on_c, 7, 62, 100
9, 64320, Note_on_c, 7, 62, 0
9, 64320, Note_on_c, 7, 64, 100
9, 64350, Note_on_c, 7, 64, 0
9, 64350, Note_on_c, 7, 65, 100
9, 64380, Note_on_c, 7, 65, 0
9, 64380, Note_on_c, 7, 67, 100
9, 64439, Note_on_c, 7, 67, 0
9, 64440, Note_on_c, 7, 55, 100
9, 64499, Note_on_c, 7, 55, 0
9, 64620, Note_on_c, 7, 60, 100
9, 64649, Note_on_c, 7, 60, 0
9, 64650, Note_on_c, 7, 62, 100
9, 64679, Note_on_c, 7, 62, 0
9, 64680, Note_on_c, 7, 64, 100
9, 64709, Note_on_c, 7, 64, 0
9, 64710, Note_on_c, 7, 60, 100
9, 64739, Note_on_c, 7, 60, 0
9, 64740, Note_on_c, 7, 65, 100
9, 64799, Note_on_c, 7, 65, 0
9, 64800, Note_on_c, 7, 53, 100
9, 64859, Note_on_c, 7, 53, 0
9, 64860, Note_on_c, 7, 51, 100
9, 64919, Note_on_c, 7, 51, 0
9, 64920, Note_on_c, 7, 50, 100
9, 64979, Note_on_c, 7, 50, 0
9, 64980, Note_on_c, 7, 59, 100
9, 65039, Note_on_c, 7, 59, 0
9, 65040, Note_on_c, 7, 55, 100
9, 65099, Note_on_c, 7, 55, 0
9, 65100, Note_on_c, 7, 60, 100
9, 65219, Note_on_c, 7, 60, 0
9, 65520, Note_on_c, 7, 55, 100
9, 65579, Note_on_c, 7, 55, 0
9, 65580, Note_on_c, 7, 53, 100
9, 65639, Note_on_c, 7, 53, 0
9, 65640, Note_on_c, 7, 51, 100
9, 65699, Note_on_c, 7, 51, 0
9, 65700, Note_on_c, 7, 63, 100
9, 65759, Note_on_c, 7, 63, 0
9, 65760, Note_on_c, 7, 60, 100
9, 65819, Note_on_c, 7, 60, 0
9, 65820, Note_on_c, 7, 62, 100
9, 65939, Note_on_c, 7, 62, 0
9, 66030, Note_on_c, 7, 60, 100
9, 66059, Note_on_c, 7, 60, 0
9, 66060, Note_on_c, 7, 58, 100
9, 66089, Note_on_c, 7, 58, 0
9, 66090, Note_on_c, 7, 57, 100
9, 66119, Note_on_c, 7, 57, 0
9, 66120, Note_on_c, 7, 58, 100
9, 66149, Note_on_c, 7, 58, 0
9, 66150, Note_on_c, 7, 55, 100
9, 66179, Note_on_c, 7, 55, 0
9, 66180, Note_on_c, 7, 62, 100
9, 66239, Note_on_c, 7, 62, 0
9, 66390, Note_on_c, 7, 58, 100
9, 66419, Note_on_c, 7, 58, 0
9, 66420, Note_on_c, 7, 57, 100
9, 66449, Note_on_c, 7, 57, 0
9, 66450, Note_on_c, 7, 55, 100
9, 66479, Note_on_c, 7, 55, 0
9, 66480, Note_on_c, 7, 54, 100
9, 66509, Note_on_c, 7, 54, 0
9, 66510, Note_on_c, 7, 55, 100
9, 66539, Note_on_c, 7, 55, 0
9, 66540, Note_on_c, 7, 51, 100
9, 66599, Note_on_c, 7, 51, 0
9, 66600, Note_on_c, 7, 63, 100
9, 66659, Note_on_c, 7, 63, 0
9, 66780, Note_on_c, 7, 50, 100
9, 66809, Note_on_c, 7, 50, 0
9, 66810, Note_on_c, 7, 52, 100
9, 66839, Note_on_c, 7, 52, 0
9, 66840, Note_on_c, 7, 54, 100
9, 66869, Note_on_c, 7, 54, 0
9, 66870, Note_on_c, 7, 50, 100
9, 66899, Note_on_c, 7, 50, 0
9, 66900, Note_on_c, 7, 55, 100
9, 66929, Note_on_c, 7, 55, 0
9, 66930, Note_on_c, 7, 54, 100
9, 66959, Note_on_c, 7, 54, 0
9, 66960, Note_on_c, 7, 55, 100
9, 66989, Note_on_c, 7, 55, 0
9, 66990, Note_on_c, 7, 50, 100
9, 67019, Note_on_c, 7, 50, 0
9, 67020, Note_on_c, 7, 57, 100
9, 67049, Note_on_c, 7, 57, 0
9, 67050, Note_on_c, 7, 50, 100
9, 67079, Note_on_c, 7, 50, 0
9, 67080, Note_on_c, 7, 58, 100
9, 67139, Note_on_c, 7, 58, 0
9, 67140, Note_on_c, 7, 46, 100
9, 67199, Note_on_c, 7, 46, 0
9, 67200, Note_on_c, 7, 48, 100
9, 67259, Note_on_c, 7, 48, 0
9, 67260, Note_on_c, 7, 50, 100
9, 67289, Note_on_c, 7, 50, 0
9, 67290, Note_on_c, 7, 54, 100
9, 67319, Note_on_c, 7, 54, 0
9, 67320, Note_on_c, 7, 57, 100
9, 67349, Note_on_c, 7, 57, 0
9, 67350, Note_on_c, 7, 62, 100
9, 67379, Note_on_c, 7, 62, 0
9, 67380, Note_on_c, 7, 60, 100
9, 67409, Note_on_c, 7, 60, 0
9, 67410, Note_on_c, 7, 58, 100
9, 67439, Note_on_c, 7, 58, 0
9, 67440, Note_on_c, 7, 60, 100
9, 67499, Note_on_c, 7, 60, 0
9, 67500, Note_on_c, 7, 48, 100
9, 67559, Note_on_c, 7, 48, 0
9, 67560, Note_on_c, 7, 46, 100
9, 67619, Note_on_c, 7, 46, 0
9, 67620, Note_on_c, 7, 45, 100
9, 67679, Note_on_c, 7, 45, 0
9, 67680, Note_on_c, 7, 57, 100
9, 67739, Note_on_c, 7, 57, 0
9, 67740, Note_on_c, 7, 55, 100
9, 67799, Note_on_c, 7, 55, 0
9, 67800, Note_on_c, 7, 54, 100
9, 67859, Note_on_c, 7, 54, 0
9, 67860, Note_on_c, 7, 50, 100
9, 67919, Note_on_c, 7, 50, 0
9, 67920, Note_on_c, 7, 54, 100
9, 67979, Note_on_c, 7, 54, 0
9, 67980, Note_on_c, 7, 55, 100
9, 68039, Note_on_c, 7, 55, 0
9, 68040, Note_on_c, 7, 43, 100
9, 68099, Note_on_c, 7, 43, 0
9, 68100, Note_on_c, 7, 41, 100
9, 68159, Note_on_c, 7, 41, 0
9, 68160, Note_on_c, 7, 39, 100
9, 68219, Note_on_c, 7, 39, 0
9, 68220, Note_on_c, 7, 51, 100
9, 68279, Note_on_c, 7, 51, 0
9, 68280, Note_on_c, 7, 50, 100
9, 68339, Note_on_c, 7, 50, 0
9, 68340, Note_on_c, 7, 48, 100
9, 68399, Note_on_c, 7, 48, 0
9, 68400, Note_on_c, 7, 36, 100
9, 68459, Note_on_c, 7, 36, 0
9, 68460, Note_on_c, 7, 48, 100
9, 68519, Note_on_c, 7, 48, 0
9, 68520, Note_on_c, 7, 50, 100
9, 68579, Note_on_c, 7, 50, 0
9, 68580, Note_on_c, 7, 38, 100
9, 68639, Note_on_c, 7, 38, 0
9, 68640, Note_on_c, 7, 50, 100
9, 68699, Note_on_c, 7, 50, 0
9, 68700, Note_on_c, 7, 51, 100
9, 68759, Note_on_c, 7, 51, 0
9, 68760, Note_on_c, 7, 39, 100
9, 68819, Note_on_c, 7, 39, 0
9, 68820, Note_on_c, 7, 51, 100
9, 68879, Note_on_c, 7, 51, 0
9, 68880, Note_on_c, 7, 50, 100
9, 68939, Note_on_c, 7, 50, 0
9, 68940, Note_on_c, 7, 38, 100
9, 68999, Note_on_c, 7, 38, 0
9, 69000, Note_on_c, 7, 36, 100
9, 69059, Note_on_c, 7, 36, 0
9, 69060, Note_on_c, 7, 38, 100
9, 69119, Note_on_c, 7, 38, 0
9, 69120, Note_on_c, 7, 50, 100
9, 69179, Note_on_c, 7, 50, 0
9, 69180, Note_on_c, 7, 48, 100
9, 69239, Note_on_c, 7, 48, 0
9, 69240, Note_on_c, 7, 50, 100
9, 69299, Note_on_c, 7, 50, 0
9, 69300, Note_on_c, 7, 38, 100
9, 69359, Note_on_c, 7, 38, 0
9, 69360, Note_on_c, 7, 50, 100
9, 69419, Note_on_c, 7, 50, 0
9, 69420, Note_on_c, 7, 43, 100
9, 69479, Note_on_c, 7, 43, 0
9, 69480, Note_on_c, 7, 55, 100
9, 69539, Note_on_c, 7, 55, 0
9, 69540, Note_on_c, 7, 57, 100
9, 69599, Note_on_c, 7, 57, 0
9, 69600, Note_on_c, 7, 58, 100
9, 69659, Note_on_c, 7, 58, 0
9, 69660, Note_on_c, 7, 57, 100
9, 69719, Note_on_c, 7, 57, 0
9, 69720, Note_on_c, 7, 55, 100
9, 69779, Note_on_c, 7, 55, 0
9, 69780, Note_on_c, 7, 60, 100
9, 69839, Note_on_c, 7, 60, 0
9, 69840, Note_on_c, 7, 48, 100
9, 69899, Note_on_c, 7, 48, 0
9, 69900, Note_on_c, 7, 50, 100
9, 69959, Note_on_c, 7, 50, 0
9, 69960, Note_on_c, 7, 52, 100
9, 69989, Note_on_c, 7, 52, 0
9, 69990, Note_on_c, 7, 53, 100
9, 70019, Note_on_c, 7, 53, 0
9, 70020, Note_on_c, 7, 52, 100
9, 70049, Note_on_c, 7, 52, 0
9, 70050, Note_on_c, 7, 50, 100
9, 70079, Note_on_c, 7, 50, 0
9, 70080, Note_on_c, 7, 52, 100
9, 70109, Note_on_c, 7, 52, 0
9, 70110, Note_on_c, 7, 53, 100
9, 70139, Note_on_c, 7, 53, 0
9, 70140, Note_on_c, 7, 55, 100
9, 70169, Note_on_c, 7, 55, 0
9, 70170, Note_on_c, 7, 56, 100
9, 70199, Note_on_c, 7, 56, 0
9, 70200, Note_on_c, 7, 55, 100
9, 70229, Note_on_c, 7, 55, 0
9, 70230, Note_on_c, 7, 53, 100
9, 70259, Note_on_c, 7, 53, 0
9, 70260, Note_on_c, 7, 55, 100
9, 70289, Note_on_c, 7, 55, 0
9, 70290, Note_on_c, 7, 56, 100
9, 70319, Note_on_c, 7, 56, 0
9, 70320, Note_on_c, 7, 58, 100
9, 70349, Note_on_c, 7, 58, 0
9, 70350, Note_on_c, 7, 60, 100
9, 70379, Note_on_c, 7, 60, 0
9, 70380, Note_on_c, 7, 58, 100
9, 70409, Note_on_c, 7, 58, 0
9, 70410, Note_on_c, 7, 56, 100
9, 70439, Note_on_c, 7, 56, 0
9, 70440, Note_on_c, 7, 58, 100
9, 70469, Note_on_c, 7, 58, 0
9, 70470, Note_on_c, 7, 60, 100
9, 70499, Note_on_c, 7, 60, 0
9, 70500, Note_on_c, 7, 53, 100
9, 70559, Note_on_c, 7, 53, 0
9, 70560, Note_on_c, 7, 57, 100
9, 70619, Note_on_c, 7, 57, 0
9, 70620, Note_on_c, 7, 60, 100
9, 70679, Note_on_c, 7, 60, 0
9, 70680, Note_on_c, 7, 63, 100
9, 70799, Note_on_c, 7, 63, 0
9, 70920, Note_on_c, 7, 60, 100
9, 70979, Note_on_c, 7, 60, 0
9, 70980, Note_on_c, 7, 58, 100
9, 71039, Note_on_c, 7, 58, 0
9, 71040, Note_on_c, 7, 57, 100
9, 71099, Note_on_c, 7, 57, 0
9, 71100, Note_on_c, 7, 60, 100
9, 71159, Note_on_c, 7, 60, 0
9, 71160, Note_on_c, 7, 53, 100
9, 71219, Note_on_c, 7, 53, 0
9, 71220, Note_on_c, 7, 58, 100
9, 71279, Note_on_c, 7, 58, 0
9, 71280, Note_on_c, 7, 46, 100
9, 71339, Note_on_c, 7, 46, 0
9, 71340, Note_on_c, 7, 48, 100
9, 71399, Note_on_c, 7, 48, 0
9, 71400, Note_on_c, 7, 50, 100
9, 71429, Note_on_c, 7, 50, 0
9, 71430, Note_on_c, 7, 51, 100
9, 71459, Note_on_c, 7, 51, 0
9, 71460, Note_on_c, 7, 50, 100
9, 71489, Note_on_c, 7, 50, 0
9, 71490, Note_on_c, 7, 48, 100
9, 71519, Note_on_c, 7, 48, 0
9, 71520, Note_on_c, 7, 50, 100
9, 71549, Note_on_c, 7, 50, 0
9, 71550, Note_on_c, 7, 51, 100
9, 71579, Note_on_c, 7, 51, 0
9, 71580, Note_on_c, 7, 53, 100
9, 71609, Note_on_c, 7, 53, 0
9, 71610, Note_on_c, 7, 55, 100
9, 71639, Note_on_c, 7, 55, 0
9, 71640, Note_on_c, 7, 53, 100
9, 71669, Note_on_c, 7, 53, 0
9, 71670, Note_on_c, 7, 51, 100
9, 71699, Note_on_c, 7, 51, 0
9, 71700, Note_on_c, 7, 53, 100
9, 71729, Note_on_c, 7, 53, 0
9, 71730, Note_on_c, 7, 55, 100
9, 71759, Note_on_c, 7, 55, 0
9, 71760, Note_on_c, 7, 56, 100
9, 71789, Note_on_c, 7, 56, 0
9, 71790, Note_on_c, 7, 58, 100
9, 71819, Note_on_c, 7, 58, 0
9, 71820, Note_on_c, 7, 56, 100
9, 71849, Note_on_c, 7, 56, 0
9, 71850, Note_on_c, 7, 55, 100
9, 71879, Note_on_c, 7, 55, 0
9, 71880, Note_on_c, 7, 56, 100
9, 71909, Note_on_c, 7, 56, 0
9, 71910, Note_on_c, 7, 58, 100
9, 71939, Note_on_c, 7, 58, 0
9, 71940, Note_on_c, 7, 51, 100
9, 71999, Note_on_c, 7, 51, 0
9, 72000, Note_on_c, 7, 55, 100
9, 72059, Note_on_c, 7, 55, 0
9, 72060, Note_on_c, 7, 58, 100
9, 72119, Note_on_c, 7, 58, 0
9, 72120, Note_on_c, 7, 61, 100
9, 72239, Note_on_c, 7, 61, 0
9, 72360, Note_on_c, 7, 58, 100
9, 72419, Note_on_c, 7, 58, 0
9, 72420, Note_on_c, 7, 56, 100
9, 72479, Note_on_c, 7, 56, 0
9, 72480, Note_on_c, 7, 55, 100
9, 72539, Note_on_c, 7, 55, 0
9, 72540, Note_on_c, 7, 58, 100
9, 72599, Note_on_c, 7, 58, 0
9, 72600, Note_on_c, 7, 51, 100
9, 72659, Note_on_c, 7, 51, 0
9, 72660, Note_on_c, 7, 44, 100
9, 72719, Note_on_c, 7, 44, 0
9, 72720, Note_on_c, 7, 56, 100
9, 72779, Note_on_c, 7, 56, 0
9, 72780, Note_on_c, 7, 55, 100
9, 72839, Note_on_c, 7, 55, 0
9, 72840, Note_on_c, 7, 53, 100
9, 72899, Note_on_c, 7, 53, 0
9, 72900, Note_on_c, 7, 41, 100
9, 72959, Note_on_c, 7, 41, 0
9, 72960, Note_on_c, 7, 39, 100
9, 73019, Note_on_c, 7, 39, 0
9, 73020, Note_on_c, 7, 38, 100
9, 73079, Note_on_c, 7, 38, 0
9, 73080, Note_on_c, 7, 50, 100
9, 73139, Note_on_c, 7, 50, 0
9, 73140, Note_on_c, 7, 46, 100
9, 73199, Note_on_c, 7, 46, 0
9, 73200, Note_on_c, 7, 51, 100
9, 73259, Note_on_c, 7, 51, 0
9, 73260, Note_on_c, 7, 39, 100
9, 73319, Note_on_c, 7, 39, 0
9, 73320, Note_on_c, 7, 51, 100
9, 73379, Note_on_c, 7, 51, 0
9, 73380, Note_on_c, 7, 56, 100
9, 73619, Note_on_c, 7, 56, 0
9, 73620, Note_on_c, 7, 44, 100
9, 73680, Note_on_c, 7, 44, 0
9, 73680, Note_on_c, 7, 51, 100
9, 73740, Note_on_c, 7, 51, 0
9, 73740, Note_on_c, 7, 56, 100
9, 73799, Note_on_c, 7, 56, 0
9, 73800, Note_on_c, 7, 50, 100
9, 73859, Note_on_c, 7, 50, 0
9, 73950, Note_on_c, 7, 56, 100
9, 73979, Note_on_c, 7, 56, 0
9, 73980, Note_on_c, 7, 55, 100
9, 74009, Note_on_c, 7, 55, 0
9, 74010, Note_on_c, 7, 53, 100
9, 74039, Note_on_c, 7, 53, 0
9, 74040, Note_on_c, 7, 55, 100
9, 74069, Note_on_c, 7, 55, 0
9, 74070, Note_on_c, 7, 51, 100
9, 74099, Note_on_c, 7, 51, 0
9, 74100, Note_on_c, 7, 58, 100
9, 74159, Note_on_c, 7, 58, 0
9, 74310, Note_on_c, 7, 53, 100
9, 74339, Note_on_c, 7, 53, 0
9, 74340, Note_on_c, 7, 58, 100
9, 74369, Note_on_c, 7, 58, 0
9, 74370, Note_on_c, 7, 60, 100
9, 74399, Note_on_c, 7, 60, 0
9, 74400, Note_on_c, 7, 62, 100
9, 74429, Note_on_c, 7, 62, 0
9, 74430, Note_on_c, 7, 63, 100
9, 74459, Note_on_c, 7, 63, 0
9, 74460, Note_on_c, 7, 65, 100
9, 74519, Note_on_c, 7, 65, 0
9, 74520, Note_on_c, 7, 53, 100
9, 74579, Note_on_c, 7, 53, 0
9, 74700, Note_on_c, 7, 46, 100
9, 74729, Note_on_c, 7, 46, 0
9, 74730, Note_on_c, 7, 48, 100
9, 74759, Note_on_c, 7, 48, 0
9, 74760, Note_on_c, 7, 50, 100
9, 74789, Note_on_c, 7, 50, 0
9, 74790, Note_on_c, 7, 46, 100
9, 74819, Note_on_c, 7, 46, 0
9, 74820, Note_on_c, 7, 51, 100
9, 74849, Note_on_c, 7, 51, 0
9, 74850, Note_on_c, 7, 50, 100
9, 74879, Note_on_c, 7, 50, 0
9, 74880, Note_on_c, 7, 51, 100
9, 74909, Note_on_c, 7, 51, 0
9, 74910, Note_on_c, 7, 46, 100
9, 74939, Note_on_c, 7, 46, 0
9, 74940, Note_on_c, 7, 53, 100
9, 74969, Note_on_c, 7, 53, 0
9, 74970, Note_on_c, 7, 46, 100
9, 74999, Note_on_c, 7, 46, 0
9, 75000, Note_on_c, 7, 55, 100
9, 75059, Note_on_c, 7, 55, 0
9, 75060, Note_on_c, 7, 43, 100
9, 75119, Note_on_c, 7, 43, 0
9, 75120, Note_on_c, 7, 44, 100
9, 75179, Note_on_c, 7, 44, 0
9, 75180, Note_on_c, 7, 46, 100
9, 75209, Note_on_c, 7, 46, 0
9, 75210, Note_on_c, 7, 50, 100
9, 75239, Note_on_c, 7, 50, 0
9, 75240, Note_on_c, 7, 53, 100
9, 75269, Note_on_c, 7, 53, 0
9, 75270, Note_on_c, 7, 58, 100
9, 75299, Note_on_c, 7, 58, 0
9, 75300, Note_on_c, 7, 56, 100
9, 75329, Note_on_c, 7, 56, 0
9, 75330, Note_on_c, 7, 55, 100
9, 75359, Note_on_c, 7, 55, 0
9, 75360, Note_on_c, 7, 56, 100
9, 75419, Note_on_c, 7, 56, 0
9, 75420, Note_on_c, 7, 44, 100
9, 75479, Note_on_c, 7, 44, 0
9, 75480, Note_on_c, 7, 43, 100
9, 75539, Note_on_c, 7, 43, 0
9, 75540, Note_on_c, 7, 41, 100
9, 75599, Note_on_c, 7, 41, 0
9, 75600, Note_on_c, 7, 53, 100
9, 75659, Note_on_c, 7, 53, 0
9, 75660, Note_on_c, 7, 51, 100
9, 75719, Note_on_c, 7, 51, 0
9, 75720, Note_on_c, 7, 50, 100
9, 75779, Note_on_c, 7, 50, 0
9, 75780, Note_on_c, 7, 46, 100
9, 75839, Note_on_c, 7, 46, 0
9, 75840, Note_on_c, 7, 50, 100
9, 75899, Note_on_c, 7, 50, 0
9, 75900, Note_on_c, 7, 51, 100
9, 75959, Note_on_c, 7, 51, 0
9, 75960, Note_on_c, 7, 39, 100
9, 76019, Note_on_c, 7, 39, 0
9, 76020, Note_on_c, 7, 38, 100
9, 76079, Note_on_c, 7, 38, 0
9, 76080, Note_on_c, 7, 36, 100
9, 76139, Note_on_c, 7, 36, 0
9, 76140, Note_on_c, 7, 60, 100
9, 76199, Note_on_c, 7, 60, 0
9, 76200, Note_on_c, 7, 58, 100
9, 76259, Note_on_c, 7, 58, 0
9, 76260, Note_on_c, 7, 56, 100
9, 76319, Note_on_c, 7, 56, 0
9, 76320, Note_on_c, 7, 44, 100
9, 76379, Note_on_c, 7, 44, 0
9, 76380, Note_on_c, 7, 56, 100
9, 76439, Note_on_c, 7, 56, 0
9, 76440, Note_on_c, 7, 58, 100
9, 76499, Note_on_c, 7, 58, 0
9, 76500, Note_on_c, 7, 46, 100
9, 76559, Note_on_c, 7, 46, 0
9, 76560, Note_on_c, 7, 58, 100
9, 76619, Note_on_c, 7, 58, 0
9, 76620, Note_on_c, 7, 60, 100
9, 76679, Note_on_c, 7, 60, 0
9, 76680, Note_on_c, 7, 48, 100
9, 76739, Note_on_c, 7, 48, 0
9, 76740, Note_on_c, 7, 60, 100
9, 76799, Note_on_c, 7, 60, 0
9, 76800, Note_on_c, 7, 58, 100
9, 76859, Note_on_c, 7, 58, 0
9, 76860, Note_on_c, 7, 46, 100
9, 76919, Note_on_c, 7, 46, 0
9, 76920, Note_on_c, 7, 44, 100
9, 76979, Note_on_c, 7, 44, 0
9, 76980, Note_on_c, 7, 46, 100
9, 77039, Note_on_c, 7, 46, 0
9, 77040, Note_on_c, 7, 58, 100
9, 77099, Note_on_c, 7, 58, 0
9, 77100, Note_on_c, 7, 56, 100
9, 77159, Note_on_c, 7, 56, 0
9, 77160, Note_on_c, 7, 58, 100
9, 77219, Note_on_c, 7, 58, 0
9, 77220, Note_on_c, 7, 46, 100
9, 77279, Note_on_c, 7, 46, 0
9, 77280, Note_on_c, 7, 58, 100
9, 77339, Note_on_c, 7, 58, 0
9, 77340, Note_on_c, 7, 51, 100
9, 77399, Note_on_c, 7, 51, 0
9, 77400, Note_on_c, 7, 39, 100
9, 77459, Note_on_c, 7, 39, 0
9, 77460, Note_on_c, 7, 51, 100
9, 77519, Note_on_c, 7, 51, 0
9, 77520, Note_on_c, 7, 53, 100
9, 77579, Note_on_c, 7, 53, 0
9, 77580, Note_on_c, 7, 41, 100
9, 77639, Note_on_c, 7, 41, 0
9, 77640, Note_on_c, 7, 43, 100
9, 77699, Note_on_c, 7, 43, 0
9, 77700, Note_on_c, 7, 44, 100
9, 77729, Note_on_c, 7, 44, 0
9, 77730, Note_on_c, 7, 58, 100
9, 77759, Note_on_c, 7, 58, 0
9, 77760, Note_on_c, 7, 56, 100
9, 77789, Note_on_c, 7, 56, 0
9, 77790, Note_on_c, 7, 55, 100
9, 77819, Note_on_c, 7, 55, 0
9, 77820, Note_on_c, 7, 56, 100
9, 77849, Note_on_c, 7, 56, 0
9, 77850, Note_on_c, 7, 60, 100
9, 77879, Note_on_c, 7, 60, 0
9, 77880, Note_on_c, 7, 51, 100
9, 77909, Note_on_c, 7, 51, 0
9, 77910, Note_on_c, 7, 53, 100
9, 77939, Note_on_c, 7, 53, 0
9, 77940, Note_on_c, 7, 51, 100
9, 77969, Note_on_c, 7, 51, 0
9, 77970, Note_on_c, 7, 50, 100
9, 77999, Note_on_c, 7, 50, 0
9, 78000, Note_on_c, 7, 51, 100
9, 78029, Note_on_c, 7, 51, 0
9, 78030, Note_on_c, 7, 55, 100
9, 78059, Note_on_c, 7, 55, 0
9, 78060, Note_on_c, 7, 48, 100
9, 78089, Note_on_c, 7, 48, 0
9, 78090, Note_on_c, 7, 49, 100
9, 78119, Note_on_c, 7, 49, 0
9, 78120, Note_on_c, 7, 48, 100
9, 78149, Note_on_c, 7, 48, 0
9, 78150, Note_on_c, 7, 46, 100
9, 78179, Note_on_c, 7, 46, 0
9, 78180, Note_on_c, 7, 48, 100
9, 78209, Note_on_c, 7, 48, 0
9, 78210, Note_on_c, 7, 44, 100
9, 78239, Note_on_c, 7, 44, 0
9, 78240, Note_on_c, 7, 51, 100
9, 78269, Note_on_c, 7, 51, 0
9, 78270, Note_on_c, 7, 49, 100
9, 78299, Note_on_c, 7, 49, 0
9, 78300, Note_on_c, 7, 51, 100
9, 78329, Note_on_c, 7, 51, 0
9, 78330, Note_on_c, 7, 55, 100
9, 78359, Note_on_c, 7, 55, 0
9, 78360, Note_on_c, 7, 48, 100
9, 78389, Note_on_c, 7, 48, 0
9, 78390, Note_on_c, 7, 51, 100
9, 78419, Note_on_c, 7, 51, 0
9, 78420, Note_on_c, 7, 50, 100
9, 78539, Note_on_c, 7, 50, 0
9, 78630, Note_on_c, 7, 55, 100
9, 78659, Note_on_c, 7, 55, 0
9, 78660, Note_on_c, 7, 57, 100
9, 78689, Note_on_c, 7, 57, 0
9, 78690, Note_on_c, 7, 58, 100
9, 78719, Note_on_c, 7, 58, 0
9, 78720, Note_on_c, 7, 57, 100
9, 78749, Note_on_c, 7, 57, 0
9, 78750, Note_on_c, 7, 55, 100
9, 78779, Note_on_c, 7, 55, 0
9, 78780, Note_on_c, 7, 54, 100
9, 78809, Note_on_c, 7, 54, 0
9, 78810, Note_on_c, 7, 52, 100
9, 78839, Note_on_c, 7, 52, 0
9, 78840, Note_on_c, 7, 54, 100
9, 78869, Note_on_c, 7, 54, 0
9, 78870, Note_on_c, 7, 55, 100
9, 78899, Note_on_c, 7, 55, 0
9, 78900, Note_on_c, 7, 54, 100
9, 78929, Note_on_c, 7, 54, 0
9, 78930, Note_on_c, 7, 52, 100
9, 78959, Note_on_c, 7, 52, 0
9, 78960, Note_on_c, 7, 62, 100
9, 78960, Note_on_c, 7, 57, 100
9, 78960, Note_on_c, 7, 54, 100
9, 78960, Note_on_c, 7, 50, 100
9, 79139, Note_on_c, 7, 50, 0
9, 79139, Note_on_c, 7, 62, 0
9, 79139, Note_on_c, 7, 57, 0
9, 79139, Note_on_c, 7, 54, 0
9, 79140, Note_on_c, 7, 55, 100
9, 79140, Note_on_c, 7, 62, 100
9, 79499, Note_on_c, 7, 62, 0
9, 79499, Note_on_c, 7, 55, 0
9, 80880, Note_on_c, 7, 60, 90
9, 80939, Note_on_c, 7, 60, 0
9, 80940, Note_on_c, 7, 58, 90
9, 80969, Note_on_c, 7, 58, 0
9, 80970, Note_on_c, 7, 60, 90
9, 80999, Note_on_c, 7, 60, 0
9, 81000, Note_on_c, 7, 58, 90
9, 81029, Note_on_c, 7, 58, 0
9, 81030, Note_on_c, 7, 60, 90
9, 81059, Note_on_c, 7, 60, 0
9, 81060, Note_on_c, 7, 56, 90
9, 81089, Note_on_c, 7, 56, 0
9, 81090, Note_on_c, 7, 58, 90
9, 81119, Note_on_c, 7, 58, 0
9, 81120, Note_on_c, 7, 56, 90
9, 81149, Note_on_c, 7, 56, 0
9, 81150, Note_on_c, 7, 58, 90
9, 81179, Note_on_c, 7, 58, 0
9, 81180, Note_on_c, 7, 55, 90
9, 81239, Note_on_c, 7, 55, 0
9, 81240, Note_on_c, 7, 50, 90
9, 81299, Note_on_c, 7, 50, 0
9, 81300, Note_on_c, 7, 43, 90
9, 81359, Note_on_c, 7, 43, 0
9, 81360, Note_on_c, 7, 53, 90
9, 81419, Note_on_c, 7, 53, 0
9, 81420, Note_on_c, 7, 51, 90
9, 81449, Note_on_c, 7, 51, 0
9, 81450, Note_on_c, 7, 53, 90
9, 81479, Note_on_c, 7, 53, 0
9, 81480, Note_on_c, 7, 51, 90
9, 81509, Note_on_c, 7, 51, 0
9, 81510, Note_on_c, 7, 53, 90
9, 81539, Note_on_c, 7, 53, 0
9, 81540, Note_on_c, 7, 50, 90
9, 81569, Note_on_c, 7, 50, 0
9, 81570, Note_on_c, 7, 51, 90
9, 81599, Note_on_c, 7, 51, 0
9, 81600, Note_on_c, 7, 50, 90
9, 81629, Note_on_c, 7, 50, 0
9, 81630, Note_on_c, 7, 51, 90
9, 81659, Note_on_c, 7, 51, 0
9, 81660, Note_on_c, 7, 48, 90
9, 81689, Note_on_c, 7, 48, 0
9, 81690, Note_on_c, 7, 50, 90
9, 81719, Note_on_c, 7, 50, 0
9, 81720, Note_on_c, 7, 48, 90
9, 81749, Note_on_c, 7, 48, 0
9, 81750, Note_on_c, 7, 50, 90
9, 81779, Note_on_c, 7, 50, 0
9, 81780, Note_on_c, 7, 46, 90
9, 81809, Note_on_c, 7, 46, 0
9, 81810, Note_on_c, 7, 48, 90
9, 81839, Note_on_c, 7, 48, 0
9, 81840, Note_on_c, 7, 46, 90
9, 81869, Note_on_c, 7, 46, 0
9, 81870, Note_on_c, 7, 48, 90
9, 81899, Note_on_c, 7, 48, 0
9, 81900, Note_on_c, 7, 44, 90
9, 81929, Note_on_c, 7, 44, 0
9, 81930, Note_on_c, 7, 46, 90
9, 81959, Note_on_c, 7, 46, 0
9, 81960, Note_on_c, 7, 44, 90
9, 81989, Note_on_c, 7, 44, 0
9, 81990, Note_on_c, 7, 46, 90
9, 82019, Note_on_c, 7, 46, 0
9, 82020, Note_on_c, 7, 43, 90
9, 82049, Note_on_c, 7, 43, 0
9, 82050, Note_on_c, 7, 44, 90
9, 82079, Note_on_c, 7, 44, 0
9, 82080, Note_on_c, 7, 43, 90
9, 82109, Note_on_c, 7, 43, 0
9, 82110, Note_on_c, 7, 44, 90
9, 82139, Note_on_c, 7, 44, 0
9, 82140, Note_on_c, 7, 41, 90
9, 82169, Note_on_c, 7, 41, 0
9, 82170, Note_on_c, 7, 40, 90
9, 82199, Note_on_c, 7, 40, 0
9, 82200, Note_on_c, 7, 41, 90
9, 82229, Note_on_c, 7, 41, 0
9, 82230, Note_on_c, 7, 43, 90
9, 82259, Note_on_c, 7, 43, 0
9, 82260, Note_on_c, 7, 44, 90
9, 82289, Note_on_c, 7, 44, 0
9, 82290, Note_on_c, 7, 46, 90
9, 82319, Note_on_c, 7, 46, 0
9, 82320, Note_on_c, 7, 48, 90
9, 82349, Note_on_c, 7, 48, 0
9, 82350, Note_on_c, 7, 50, 90
9, 82379, Note_on_c, 7, 50, 0
9, 82380, Note_on_c, 7, 52, 90
9, 82439, Note_on_c, 7, 52, 0
9, 82440, Note_on_c, 7, 55, 90
9, 82499, Note_on_c, 7, 55, 0
9, 82500, Note_on_c, 7, 48, 90
9, 82559, Note_on_c, 7, 48, 0
9, 82560, Note_on_c, 7, 52, 90
9, 82619, Note_on_c, 7, 52, 0
9, 82620, Note_on_c, 7, 53, 90
9, 82679, Note_on_c, 7, 53, 0
9, 82680, Note_on_c, 7, 41, 90
9, 82739, Note_on_c, 7, 41, 0
9, 82740, Note_on_c, 7, 44, 90
9, 82799, Note_on_c, 7, 44, 0
9, 82800, Note_on_c, 7, 48, 90
9, 82859, Note_on_c, 7, 48, 0
9, 82860, Note_on_c, 7, 52, 90
9, 82919, Note_on_c, 7, 52, 0
9, 82920, Note_on_c, 7, 55, 90
9, 82979, Note_on_c, 7, 55, 0
9, 82980, Note_on_c, 7, 48, 90
9, 83039, Note_on_c, 7, 48, 0
9, 83040, Note_on_c, 7, 52, 90
9, 83099, Note_on_c, 7, 52, 0
9, 83100, Note_on_c, 7, 53, 90
9, 83159, Note_on_c, 7, 53, 0
9, 83160, Note_on_c, 7, 41, 90
9, 83219, Note_on_c, 7, 41, 0
9, 83220, Note_on_c, 7, 44, 90
9, 83279, Note_on_c, 7, 44, 0
9, 83280, Note_on_c, 7, 48, 90
9, 83339, Note_on_c, 7, 48, 0
9, 83340, Note_on_c, 7, 50, 90
9, 83399, Note_on_c, 7, 50, 0
9, 83400, Note_on_c, 7, 53, 90
9, 83459, Note_on_c, 7, 53, 0
9, 83460, Note_on_c, 7, 46, 90
9, 83519, Note_on_c, 7, 46, 0
9, 83520, Note_on_c, 7, 50, 90
9, 83579, Note_on_c, 7, 50, 0
9, 83580, Note_on_c, 7, 51, 90
9, 83639, Note_on_c, 7, 51, 0
9, 83640, Note_on_c, 7, 39, 90
9, 83699, Note_on_c, 7, 39, 0
9, 83700, Note_on_c, 7, 43, 90
9, 83759, Note_on_c, 7, 43, 0
9, 83760, Note_on_c, 7, 46, 90
9, 83819, Note_on_c, 7, 46, 0
9, 83820, Note_on_c, 7, 50, 90
9, 83879, Note_on_c, 7, 50, 0
9, 83880, Note_on_c, 7, 53, 90
9, 83939, Note_on_c, 7, 53, 0
9, 83940, Note_on_c, 7, 46, 90
9, 83999, Note_on_c, 7, 46, 0
9, 84000, Note_on_c, 7, 50, 90
9, 84059, Note_on_c, 7, 50, 0
9, 84060, Note_on_c, 7, 39, 90
9, 84119, Note_on_c, 7, 39, 0
9, 84120, Note_on_c, 7, 51, 90
9, 84179, Note_on_c, 7, 51, 0
9, 84180, Note_on_c, 7, 55, 90
9, 84239, Note_on_c, 7, 55, 0
9, 84240, Note_on_c, 7, 51, 90
9, 84299, Note_on_c, 7, 51, 0
9, 84300, Note_on_c, 7, 50, 90
9, 84359, Note_on_c, 7, 50, 0
9, 84360, Note_on_c, 7, 56, 90
9, 84419, Note_on_c, 7, 56, 0
9, 84420, Note_on_c, 7, 48, 90
9, 84479, Note_on_c, 7, 48, 0
9, 84480, Note_on_c, 7, 56, 90
9, 84539, Note_on_c, 7, 56, 0
9, 84540, Note_on_c, 7, 47, 90
9, 84569, Note_on_c, 7, 47, 0
9, 84570, Note_on_c, 7, 45, 90
9, 84599, Note_on_c, 7, 45, 0
9, 84600, Note_on_c, 7, 47, 90
9, 84629, Note_on_c, 7, 47, 0
9, 84630, Note_on_c, 7, 45, 90
9, 84659, Note_on_c, 7, 45, 0
9, 84660, Note_on_c, 7, 43, 90
9, 84689, Note_on_c, 7, 43, 0
9, 84690, Note_on_c, 7, 45, 90
9, 84719, Note_on_c, 7, 45, 0
9, 84720, Note_on_c, 7, 47, 90
9, 84749, Note_on_c, 7, 47, 0
9, 84750, Note_on_c, 7, 43, 90
9, 84779, Note_on_c, 7, 43, 0
9, 84780, Note_on_c, 7, 48, 90
9, 84839, Note_on_c, 7, 48, 0
9, 84840, Note_on_c, 7, 55, 90
9, 84899, Note_on_c, 7, 55, 0
9, 84900, Note_on_c, 7, 46, 90
9, 84959, Note_on_c, 7, 46, 0
9, 84960, Note_on_c, 7, 55, 90
9, 85019, Note_on_c, 7, 55, 0
9, 85020, Note_on_c, 7, 45, 90
9, 85049, Note_on_c, 7, 45, 0
9, 85050, Note_on_c, 7, 43, 90
9, 85079, Note_on_c, 7, 43, 0
9, 85080, Note_on_c, 7, 45, 90
9, 85109, Note_on_c, 7, 45, 0
9, 85110, Note_on_c, 7, 43, 90
9, 85139, Note_on_c, 7, 43, 0
9, 85140, Note_on_c, 7, 42, 90
9, 85169, Note_on_c, 7, 42, 0
9, 85170, Note_on_c, 7, 43, 90
9, 85199, Note_on_c, 7, 43, 0
9, 85200, Note_on_c, 7, 45, 90
9, 85229, Note_on_c, 7, 45, 0
9, 85230, Note_on_c, 7, 42, 90
9, 85259, Note_on_c, 7, 42, 0
9, 85260, Note_on_c, 7, 43, 90
9, 85289, Note_on_c, 7, 43, 0
9, 85290, Note_on_c, 7, 44, 90
9, 85319, Note_on_c, 7, 44, 0
9, 85320, Note_on_c, 7, 43, 90
9, 85349, Note_on_c, 7, 43, 0
9, 85350, Note_on_c, 7, 44, 90
9, 85379, Note_on_c, 7, 44, 0
9, 85380, Note_on_c, 7, 43, 90
9, 85409, Note_on_c, 7, 43, 0
9, 85410, Note_on_c, 7, 44, 90
9, 85439, Note_on_c, 7, 44, 0
9, 85440, Note_on_c, 7, 41, 90
9, 85469, Note_on_c, 7, 41, 0
9, 85470, Note_on_c, 7, 43, 90
9, 85499, Note_on_c, 7, 43, 0
9, 85500, Note_on_c, 7, 44, 90
9, 85529, Note_on_c, 7, 44, 0
9, 85530, Note_on_c, 7, 56, 90
9, 85559, Note_on_c, 7, 56, 0
9, 85560, Note_on_c, 7, 55, 90
9, 85589, Note_on_c, 7, 55, 0
9, 85590, Note_on_c, 7, 53, 90
9, 85619, Note_on_c, 7, 53, 0
9, 85620, Note_on_c, 7, 51, 90
9, 85649, Note_on_c, 7, 51, 0
9, 85650, Note_on_c, 7, 56, 90
9, 85679, Note_on_c, 7, 56, 0
9, 85680, Note_on_c, 7, 55, 90
9, 85709, Note_on_c, 7, 55, 0
9, 85710, Note_on_c, 7, 53, 90
9, 85739, Note_on_c, 7, 53, 0
9, 85740, Note_on_c, 7, 51, 90
9, 85769, Note_on_c, 7, 51, 0
9, 85770, Note_on_c, 7, 56, 90
9, 85799, Note_on_c, 7, 56, 0
9, 85800, Note_on_c, 7, 55, 90
9, 85829, Note_on_c, 7, 55, 0
9, 85830, Note_on_c, 7, 53, 90
9, 85859, Note_on_c, 7, 53, 0
9, 85860, Note_on_c, 7, 55, 90
9, 85919, Note_on_c, 7, 55, 0
9, 85920, Note_on_c, 7, 43, 90
9, 85979, Note_on_c, 7, 43, 0
9, 85980, Note_on_c, 7, 48, 90
9, 86039, Note_on_c, 7, 48, 0
9, 86040, Note_on_c, 7, 43, 90
9, 86099, Note_on_c, 7, 43, 0
9, 86100, Note_on_c, 7, 36, 90
9, 86159, Note_on_c, 7, 36, 0
9, 86640, Note_on_c, 7, 48, 90
9, 86669, Note_on_c, 7, 48, 0
9, 86670, Note_on_c, 7, 50, 90
9, 86699, Note_on_c, 7, 50, 0
9, 86700, Note_on_c, 7, 51, 90
9, 86729, Note_on_c, 7, 51, 0
9, 86730, Note_on_c, 7, 50, 90
9, 86759, Note_on_c, 7, 50, 0
9, 86760, Note_on_c, 7, 51, 90
9, 86789, Note_on_c, 7, 51, 0
9, 86790, Note_on_c, 7, 48, 90
9, 86819, Note_on_c, 7, 48, 0
9, 86820, Note_on_c, 7, 55, 90
9, 86849, Note_on_c, 7, 55, 0
9, 86850, Note_on_c, 7, 53, 90
9, 86879, Note_on_c, 7, 53, 0
9, 86880, Note_on_c, 7, 55, 90
9, 86909, Note_on_c, 7, 55, 0
9, 86910, Note_on_c, 7, 43, 90
9, 86939, Note_on_c, 7, 43, 0
9, 86940, Note_on_c, 7, 48, 90
9, 86999, Note_on_c, 7, 48, 0
9, 87000, Note_on_c, 7, 43, 90
9, 87059, Note_on_c, 7, 43, 0
9, 87060, Note_on_c, 7, 36, 90
9, 87119, Note_on_c, 7, 36, 0
9, 87600, Note_on_c, 7, 51, 90
9, 87629, Note_on_c, 7, 51, 0
9, 87630, Note_on_c, 7, 53, 90
9, 87659, Note_on_c, 7, 53, 0
9, 87660, Note_on_c, 7, 55, 90
9, 87689, Note_on_c, 7, 55, 0
9, 87690, Note_on_c, 7, 53, 90
9, 87719, Note_on_c, 7, 53, 0
9, 87720, Note_on_c, 7, 55, 90
9, 87749, Note_on_c, 7, 55, 0
9, 87750, Note_on_c, 7, 51, 90
9, 87779, Note_on_c, 7, 51, 0
9, 87780, Note_on_c, 7, 58, 90
9, 87809, Note_on_c, 7, 58, 0
9, 87810, Note_on_c, 7, 56, 90
9, 87839, Note_on_c, 7, 56, 0
9, 87840, Note_on_c, 7, 58, 90
9, 87869, Note_on_c, 7, 58, 0
9, 87870, Note_on_c, 7, 46, 90
9, 87899, Note_on_c, 7, 46, 0
9, 87900, Note_on_c, 7, 51, 90
9, 87959, Note_on_c, 7, 51, 0
9, 87960, Note_on_c, 7, 46, 90
9, 88019, Note_on_c, 7, 46, 0
9, 88020, Note_on_c, 7, 39, 90
9, 88049, Note_on_c, 7, 39, 0
9, 88050, Note_on_c, 7, 51, 90
9, 88079, Note_on_c, 7, 51, 0
9, 88080, Note_on_c, 7, 55, 90
9, 88109, Note_on_c, 7, 55, 0
9, 88110, Note_on_c, 7, 51, 90
9, 88139, Note_on_c, 7, 51, 0
9, 88140, Note_on_c, 7, 56, 90
9, 88199, Note_on_c, 7, 56, 0
9, 88200, Note_on_c, 7, 53, 90
9, 88259, Note_on_c, 7, 53, 0
9, 88260, Note_on_c, 7, 50, 90
9, 88289, Note_on_c, 7, 50, 0
9, 88290, Note_on_c, 7, 58, 90
9, 88319, Note_on_c, 7, 58, 0
9, 88320, Note_on_c, 7, 56, 90
9, 88349, Note_on_c, 7, 56, 0
9, 88350, Note_on_c, 7, 58, 90
9, 88379, Note_on_c, 7, 58, 0
9, 88380, Note_on_c, 7, 51, 90
9, 88439, Note_on_c, 7, 51, 0
9, 88440, Note_on_c, 7, 55, 90
9, 88499, Note_on_c, 7, 55, 0
9, 88500, Note_on_c, 7, 48, 90
9, 88529, Note_on_c, 7, 48, 0
9, 88530, Note_on_c, 7, 60, 90
9, 88559, Note_on_c, 7, 60, 0
9, 88560, Note_on_c, 7, 59, 90
9, 88589, Note_on_c, 7, 59, 0
9, 88590, Note_on_c, 7, 60, 90
9, 88619, Note_on_c, 7, 60, 0
9, 88620, Note_on_c, 7, 50, 90
9, 88679, Note_on_c, 7, 50, 0
9, 88680, Note_on_c, 7, 48, 90
9, 88739, Note_on_c, 7, 48, 0
9, 88740, Note_on_c, 7, 47, 90
9, 88769, Note_on_c, 7, 47, 0
9, 88770, Note_on_c, 7, 55, 90
9, 88799, Note_on_c, 7, 55, 0
9, 88800, Note_on_c, 7, 53, 90
9, 88829, Note_on_c, 7, 53, 0
9, 88830, Note_on_c, 7, 55, 90
9, 88859, Note_on_c, 7, 55, 0
9, 88860, Note_on_c, 7, 48, 90
9, 88919, Note_on_c, 7, 48, 0
9, 88920, Note_on_c, 7, 51, 90
9, 88979, Note_on_c, 7, 51, 0
9, 88980, Note_on_c, 7, 45, 90
9, 89009, Note_on_c, 7, 45, 0
9, 89010, Note_on_c, 7, 48, 90
9, 89039, Note_on_c, 7, 48, 0
9, 89040, Note_on_c, 7, 51, 90
9, 89069, Note_on_c, 7, 51, 0
9, 89070, Note_on_c, 7, 43, 90
9, 89099, Note_on_c, 7, 43, 0
9, 89100, Note_on_c, 7, 42, 90
9, 89129, Note_on_c, 7, 42, 0
9, 89130, Note_on_c, 7, 54, 90
9, 89159, Note_on_c, 7, 54, 0
9, 89160, Note_on_c, 7, 57, 90
9, 89189, Note_on_c, 7, 57, 0
9, 89190, Note_on_c, 7, 54, 90
9, 89219, Note_on_c, 7, 54, 0
9, 89220, Note_on_c, 7, 55, 90
9, 89279, Note_on_c, 7, 55, 0
9, 89280, Note_on_c, 7, 48, 90
9, 89339, Note_on_c, 7, 48, 0
9, 89340, Note_on_c, 7, 50, 100
9, 89640, Note_on_c, 7, 50, 0
9, 89640, Note_on_c, 7, 60, 90
9, 89699, Note_on_c, 7, 60, 0
9, 89700, Note_on_c, 7, 50, 90
9, 89759, Note_on_c, 7, 50, 0
9, 89760, Note_on_c, 7, 58, 90
9, 89819, Note_on_c, 7, 58, 0
9, 89820, Note_on_c, 7, 50, 90
9, 89820, Note_on_c, 7, 57, 90
9, 89879, Note_on_c, 7, 57, 0
9, 89880, Note_on_c, 7, 62, 90
9, 89939, Note_on_c, 7, 62, 0
9, 89970, Note_on_c, 7, 50, 0
9, 89970, Note_on_c, 7, 51, 90
9, 89999, Note_on_c, 7, 51, 0
9, 90000, Note_on_c, 7, 48, 90
9, 90029, Note_on_c, 7, 48, 0
9, 90030, Note_on_c, 7, 50, 90
9, 90059, Note_on_c, 7, 50, 0
9, 90060, Note_on_c, 7, 46, 90
9, 90089, Note_on_c, 7, 46, 0
9, 90090, Note_on_c, 7, 48, 90
9, 90119, Note_on_c, 7, 48, 0
9, 90120, Note_on_c, 7, 46, 90
9, 90149, Note_on_c, 7, 46, 0
9, 90150, Note_on_c, 7, 48, 90
9, 90179, Note_on_c, 7, 48, 0
9, 90180, Note_on_c, 7, 45, 90
9, 90209, Note_on_c, 7, 45, 0
9, 90210, Note_on_c, 7, 46, 90
9, 90239, Note_on_c, 7, 46, 0
9, 90240, Note_on_c, 7, 45, 90
9, 90269, Note_on_c, 7, 45, 0
9, 90270, Note_on_c, 7, 46, 90
9, 90299, Note_on_c, 7, 46, 0
9, 90300, Note_on_c, 7, 43, 90
9, 90359, Note_on_c, 7, 43, 0
9, 90360, Note_on_c, 7, 62, 90
9, 90389, Note_on_c, 7, 62, 0
9, 90390, Note_on_c, 7, 60, 90
9, 90419, Note_on_c, 7, 60, 0
9, 90420, Note_on_c, 7, 58, 90
9, 90449, Note_on_c, 7, 58, 0
9, 90450, Note_on_c, 7, 57, 90
9, 90479, Note_on_c, 7, 57, 0
9, 90480, Note_on_c, 7, 55, 90
9, 90509, Note_on_c, 7, 55, 0
9, 90510, Note_on_c, 7, 57, 90
9, 90539, Note_on_c, 7, 57, 0
9, 90540, Note_on_c, 7, 53, 90
9, 90569, Note_on_c, 7, 53, 0
9, 90570, Note_on_c, 7, 55, 90
9, 90599, Note_on_c, 7, 55, 0
9, 90600, Note_on_c, 7, 53, 90
9, 90629, Note_on_c, 7, 53, 0
9, 90630, Note_on_c, 7, 55, 90
9, 90659, Note_on_c, 7, 55, 0
9, 90660, Note_on_c, 7, 51, 90
9, 90689, Note_on_c, 7, 51, 0
9, 90690, Note_on_c, 7, 53, 90
9, 90719, Note_on_c, 7, 53, 0
9, 90720, Note_on_c, 7, 51, 90
9, 90749, Note_on_c, 7, 51, 0
9, 90750, Note_on_c, 7, 53, 90
9, 90779, Note_on_c, 7, 53, 0
9, 90780, Note_on_c, 7, 50, 90
9, 90839, Note_on_c, 7, 50, 0
9, 90840, Note_on_c, 7, 45, 90
9, 90899, Note_on_c, 7, 45, 0
9, 90900, Note_on_c, 7, 38, 90
9, 90959, Note_on_c, 7, 38, 0
9, 91440, Note_on_c, 7, 50, 90
9, 91499, Note_on_c, 7, 50, 0
9, 91500, Note_on_c, 7, 55, 90
9, 91559, Note_on_c, 7, 55, 0
9, 91560, Note_on_c, 7, 46, 90
9, 91619, Note_on_c, 7, 46, 0
9, 91620, Note_on_c, 7, 48, 90
9, 91679, Note_on_c, 7, 48, 0
9, 91680, Note_on_c, 7, 50, 90
9, 91739, Note_on_c, 7, 50, 0
9, 91740, Note_on_c, 7, 43, 90
9, 91799, Note_on_c, 7, 43, 0
9, 91800, Note_on_c, 7, 50, 90
9, 91859, Note_on_c, 7, 50, 0
9, 91860, Note_on_c, 7, 55, 90
9, 91919, Note_on_c, 7, 55, 0
9, 92400, Note_on_c, 7, 55, 90
9, 92459, Note_on_c, 7, 55, 0
9, 92460, Note_on_c, 7, 60, 90
9, 92519, Note_on_c, 7, 60, 0
9, 92520, Note_on_c, 7, 51, 90
9, 92579, Note_on_c, 7, 51, 0
9, 92580, Note_on_c, 7, 53, 90
9, 92639, Note_on_c, 7, 53, 0
9, 92640, Note_on_c, 7, 55, 90
9, 92699, Note_on_c, 7, 55, 0
9, 92700, Note_on_c, 7, 48, 90
9, 92759, Note_on_c, 7, 48, 0
9, 92760, Note_on_c, 7, 55, 90
9, 92819, Note_on_c, 7, 55, 0
9, 92820, Note_on_c, 7, 60, 90
9, 92879, Note_on_c, 7, 60, 0
9, 92880, Note_on_c, 7, 67, 90
9, 92999, Note_on_c, 7, 67, 0
9, 93000, Note_on_c, 7, 65, 90
9, 93029, Note_on_c, 7, 65, 0
9, 93030, Note_on_c, 7, 63, 90
9, 93059, Note_on_c, 7, 63, 0
9, 93060, Note_on_c, 7, 62, 90
9, 93089, Note_on_c, 7, 62, 0
9, 93090, Note_on_c, 7, 60, 90
9, 93119, Note_on_c, 7, 60, 0
9, 93120, Note_on_c, 7, 59, 90
9, 93149, Note_on_c, 7, 59, 0
9, 93150, Note_on_c, 7, 57, 90
9, 93179, Note_on_c, 7, 57, 0
9, 93180, Note_on_c, 7, 55, 90
9, 93209, Note_on_c, 7, 55, 0
9, 93210, Note_on_c, 7, 59, 90
9, 93239, Note_on_c, 7, 59, 0
9, 93240, Note_on_c, 7, 60, 90
9, 93269, Note_on_c, 7, 60, 0
9, 93270, Note_on_c, 7, 55, 90
9, 93299, Note_on_c, 7, 55, 0
9, 93300, Note_on_c, 7, 51, 90
9, 93329, Note_on_c, 7, 51, 0
9, 93330, Note_on_c, 7, 55, 90
9, 93359, Note_on_c, 7, 55, 0
9, 93360, Note_on_c, 7, 48, 90
9, 93389, Note_on_c, 7, 48, 0
9, 93390, Note_on_c, 7, 51, 90
9, 93419, Note_on_c, 7, 51, 0
9, 93420, Note_on_c, 7, 47, 90
9, 93479, Note_on_c, 7, 47, 0
9, 93480, Note_on_c, 7, 50, 90
9, 93539, Note_on_c, 7, 50, 0
9, 93540, Note_on_c, 7, 43, 90
9, 93599, Note_on_c, 7, 43, 0
9, 93600, Note_on_c, 7, 47, 90
9, 93659, Note_on_c, 7, 47, 0
9, 93660, Note_on_c, 7, 48, 90
9, 93719, Note_on_c, 7, 48, 0
9, 93720, Note_on_c, 7, 55, 90
9, 93779, Note_on_c, 7, 55, 0
9, 93780, Note_on_c, 7, 60, 90
9, 93839, Note_on_c, 7, 60, 0
9, 93840, Note_on_c, 7, 67, 90
9, 93899, Note_on_c, 7, 67, 0
9, 93900, Note_on_c, 7, 65, 90
9, 93959, Note_on_c, 7, 65, 0
9, 93960, Note_on_c, 7, 63, 90
9, 93989, Note_on_c, 7, 63, 0
9, 93990, Note_on_c, 7, 62, 90
9, 94019, Note_on_c, 7, 62, 0
9, 94020, Note_on_c, 7, 60, 90
9, 94049, Note_on_c, 7, 60, 0
9, 94050, Note_on_c, 7, 58, 90
9, 94079, Note_on_c, 7, 58, 0
9, 94080, Note_on_c, 7, 57, 90
9, 94109, Note_on_c, 7, 57, 0
9, 94110, Note_on_c, 7, 55, 90
9, 94139, Note_on_c, 7, 55, 0
9, 94140, Note_on_c, 7, 53, 90
9, 94169, Note_on_c, 7, 53, 0
9, 94170, Note_on_c, 7, 57, 90
9, 94199, Note_on_c, 7, 57, 0
9, 94200, Note_on_c, 7, 58, 90
9, 94229, Note_on_c, 7, 58, 0
9, 94230, Note_on_c, 7, 53, 90
9, 94259, Note_on_c, 7, 53, 0
9, 94260, Note_on_c, 7, 50, 90
9, 94289, Note_on_c, 7, 50, 0
9, 94290, Note_on_c, 7, 53, 90
9, 94319, Note_on_c, 7, 53, 0
9, 94320, Note_on_c, 7, 46, 90
9, 94349, Note_on_c, 7, 46, 0
9, 94350, Note_on_c, 7, 50, 90
9, 94379, Note_on_c, 7, 50, 0
9, 94380, Note_on_c, 7, 45, 90
9, 94439, Note_on_c, 7, 45, 0
9, 94440, Note_on_c, 7, 48, 90
9, 94499, Note_on_c, 7, 48, 0
9, 94500, Note_on_c, 7, 41, 90
9, 94559, Note_on_c, 7, 41, 0
9, 94560, Note_on_c, 7, 45, 90
9, 94619, Note_on_c, 7, 45, 0
9, 94620, Note_on_c, 7, 46, 90
9, 94679, Note_on_c, 7, 46, 0
9, 94680, Note_on_c, 7, 53, 90
9, 94739, Note_on_c, 7, 53, 0
9, 94740, Note_on_c, 7, 58, 90
9, 94799, Note_on_c, 7, 58, 0
9, 94800, Note_on_c, 7, 51, 90
9, 94859, Note_on_c, 7, 51, 0
9, 94860, Note_on_c, 7, 45, 90
9, 94919, Note_on_c, 7, 45, 0
9, 94920, Note_on_c, 7, 63, 90
9, 94979, Note_on_c, 7, 63, 0
9, 94980, Note_on_c, 7, 55, 90
9, 95039, Note_on_c, 7, 55, 0
9, 95040, Note_on_c, 7, 63, 90
9, 95099, Note_on_c, 7, 63, 0
9, 95100, Note_on_c, 7, 54, 90
9, 95129, Note_on_c, 7, 54, 0
9, 95130, Note_on_c, 7, 52, 90
9, 95159, Note_on_c, 7, 52, 0
9, 95160, Note_on_c, 7, 54, 90
9, 95189, Note_on_c, 7, 54, 0
9, 95190, Note_on_c, 7, 52, 90
9, 95219, Note_on_c, 7, 52, 0
9, 95220, Note_on_c, 7, 50, 90
9, 95249, Note_on_c, 7, 50, 0
9, 95250, Note_on_c, 7, 52, 90
9, 95279, Note_on_c, 7, 52, 0
9, 95280, Note_on_c, 7, 54, 90
9, 95309, Note_on_c, 7, 54, 0
9, 95310, Note_on_c, 7, 50, 90
9, 95339, Note_on_c, 7, 50, 0
9, 95340, Note_on_c, 7, 43, 90
9, 95399, Note_on_c, 7, 43, 0
9, 95400, Note_on_c, 7, 62, 90
9, 95459, Note_on_c, 7, 62, 0
9, 95460, Note_on_c, 7, 53, 90
9, 95519, Note_on_c, 7, 53, 0
9, 95520, Note_on_c, 7, 62, 90
9, 95579, Note_on_c, 7, 62, 0
9, 95580, Note_on_c, 7, 52, 90
9, 95609, Note_on_c, 7, 52, 0
9, 95610, Note_on_c, 7, 50, 90
9, 95639, Note_on_c, 7, 50, 0
9, 95640, Note_on_c, 7, 52, 90
9, 95669, Note_on_c, 7, 52, 0
9, 95670, Note_on_c, 7, 50, 90
9, 95699, Note_on_c, 7, 50, 0
9, 95700, Note_on_c, 7, 49, 90
9, 95729, Note_on_c, 7, 49, 0
9, 95730, Note_on_c, 7, 50, 90
9, 95759, Note_on_c, 7, 50, 0
9, 95760, Note_on_c, 7, 52, 90
9, 95789, Note_on_c, 7, 52, 0
9, 95790, Note_on_c, 7, 49, 90
9, 95819, Note_on_c, 7, 49, 0
9, 95820, Note_on_c, 7, 50, 90
9, 95849, Note_on_c, 7, 50, 0
9, 95850, Note_on_c, 7, 51, 90
9, 95879, Note_on_c, 7, 51, 0
9, 95880, Note_on_c, 7, 50, 90
9, 95909, Note_on_c, 7, 50, 0
9, 95910, Note_on_c, 7, 51, 90
9, 95939, Note_on_c, 7, 51, 0
9, 95940, Note_on_c, 7, 50, 90
9, 95969, Note_on_c, 7, 50, 0
9, 95970, Note_on_c, 7, 51, 90
9, 95999, Note_on_c, 7, 51, 0
9, 96000, Note_on_c, 7, 48, 90
9, 96029, Note_on_c, 7, 48, 0
9, 96030, Note_on_c, 7, 50, 90
9, 96059, Note_on_c, 7, 50, 0
9, 96060, Note_on_c, 7, 51, 90
9, 96119, Note_on_c, 7, 51, 0
9, 96120, Note_on_c, 7, 50, 90
9, 96149, Note_on_c, 7, 50, 0
9, 96150, Note_on_c, 7, 48, 90
9, 96179, Note_on_c, 7, 48, 0
9, 96180, Note_on_c, 7, 46, 90
9, 96209, Note_on_c, 7, 46, 0
9, 96210, Note_on_c, 7, 51, 90
9, 96239, Note_on_c, 7, 51, 0
9, 96240, Note_on_c, 7, 50, 90
9, 96269, Note_on_c, 7, 50, 0
9, 96270, Note_on_c, 7, 48, 90
9, 96299, Note_on_c, 7, 48, 0
9, 96300, Note_on_c, 7, 46, 90
9, 96329, Note_on_c, 7, 46, 0
9, 96330, Note_on_c, 7, 51, 90
9, 96359, Note_on_c, 7, 51, 0
9, 96360, Note_on_c, 7, 50, 90
9, 96389, Note_on_c, 7, 50, 0
9, 96390, Note_on_c, 7, 48, 90
9, 96419, Note_on_c, 7, 48, 0
9, 96420, Note_on_c, 7, 50, 90
9, 96479, Note_on_c, 7, 50, 0
9, 96480, Note_on_c, 7, 38, 90
9, 96539, Note_on_c, 7, 38, 0
9, 96540, Note_on_c, 7, 43, 90
9, 96659, Note_on_c, 7, 43, 0
9, 96720, Note_on_c, 7, 43, 90
9, 96779, Note_on_c, 7, 43, 0
9, 96780, Note_on_c, 7, 55, 90
9, 96899, Note_on_c, 7, 55, 0
9, 96900, Note_on_c, 7, 58, 90
9, 97019, Note_on_c, 7, 58, 0
9, 97020, Note_on_c, 7, 62, 90
9, 97139, Note_on_c, 7, 62, 0
9, 97680, Note_on_c, 7, 50, 90
9, 97739, Note_on_c, 7, 50, 0
9, 97740, Note_on_c, 7, 55, 90
9, 97859, Note_on_c, 7, 55, 0
9, 97860, Note_on_c, 7, 43, 90
9, 97979, Note_on_c, 7, 43, 0
9, 97980, Note_on_c, 7, 45, 90
9, 98099, Note_on_c, 7, 45, 0
9, 98640, Note_on_c, 7, 45, 90
9, 98699, Note_on_c, 7, 45, 0
9, 98700, Note_on_c, 7, 38, 90
9, 98819, Note_on_c, 7, 38, 0
9, 98820, Note_on_c, 7, 50, 90
9, 98939, Note_on_c, 7, 50, 0
9, 98940, Note_on_c, 7, 43, 90
9, 99059, Note_on_c, 7, 43, 0
9, 99120, Note_on_c, 7, 47, 90
9, 99179, Note_on_c, 7, 47, 0
9, 99180, Note_on_c, 7, 36, 90
9, 99299, Note_on_c, 7, 36, 0
9, 99300, Note_on_c, 7, 48, 90
9, 99419, Note_on_c, 7, 48, 0
9, 99420, Note_on_c, 7, 41, 90
9, 99539, Note_on_c, 7, 41, 0
9, 101040, Note_on_c, 7, 53, 90
9, 101099, Note_on_c, 7, 53, 0
9, 101100, Note_on_c, 7, 51, 90
9, 101129, Note_on_c, 7, 51, 0
9, 101130, Note_on_c, 7, 53, 90
9, 101159, Note_on_c, 7, 53, 0
9, 101160, Note_on_c, 7, 51, 90
9, 101189, Note_on_c, 7, 51, 0
9, 101190, Note_on_c, 7, 53, 90
9, 101219, Note_on_c, 7, 53, 0
9, 101220, Note_on_c, 7, 49, 90
9, 101249, Note_on_c, 7, 49, 0
9, 101250, Note_on_c, 7, 51, 90
9, 101279, Note_on_c, 7, 51, 0
9, 101280, Note_on_c, 7, 49, 90
9, 101309, Note_on_c, 7, 49, 0
9, 101310, Note_on_c, 7, 51, 90
9, 101339, Note_on_c, 7, 51, 0
9, 101340, Note_on_c, 7, 48, 90
9, 101399, Note_on_c, 7, 48, 0
9, 101400, Note_on_c, 7, 43, 90
9, 101459, Note_on_c, 7, 43, 0
9, 101460, Note_on_c, 7, 36, 90
9, 101489, Note_on_c, 7, 36, 0
9, 101490, Note_on_c, 7, 48, 90
9, 101519, Note_on_c, 7, 48, 0
9, 101520, Note_on_c, 7, 52, 90
9, 101549, Note_on_c, 7, 52, 0
9, 101550, Note_on_c, 7, 48, 90
9, 101579, Note_on_c, 7, 48, 0
9, 101580, Note_on_c, 7, 53, 90
9, 101609, Note_on_c, 7, 53, 0
9, 101610, Note_on_c, 7, 55, 90
9, 101639, Note_on_c, 7, 55, 0
9, 101640, Note_on_c, 7, 53, 90
9, 101669, Note_on_c, 7, 53, 0
9, 101670, Note_on_c, 7, 55, 90
9, 101699, Note_on_c, 7, 55, 0
9, 101700, Note_on_c, 7, 51, 90
9, 101729, Note_on_c, 7, 51, 0
9, 101730, Note_on_c, 7, 53, 90
9, 101759, Note_on_c, 7, 53, 0
9, 101760, Note_on_c, 7, 51, 90
9, 101789, Note_on_c, 7, 51, 0
9, 101790, Note_on_c, 7, 53, 90
9, 101819, Note_on_c, 7, 53, 0
9, 101820, Note_on_c, 7, 50, 90
9, 101849, Note_on_c, 7, 50, 0
9, 101850, Note_on_c, 7, 51, 90
9, 101879, Note_on_c, 7, 51, 0
9, 101880, Note_on_c, 7, 50, 90
9, 101909, Note_on_c, 7, 50, 0
9, 101910, Note_on_c, 7, 51, 90
9, 101939, Note_on_c, 7, 51, 0
9, 101940, Note_on_c, 7, 48, 90
9, 101969, Note_on_c, 7, 48, 0
9, 101970, Note_on_c, 7, 50, 90
9, 101999, Note_on_c, 7, 50, 0
9, 102000, Note_on_c, 7, 48, 90
9, 102029, Note_on_c, 7, 48, 0
9, 102030, Note_on_c, 7, 50, 90
9, 102059, Note_on_c, 7, 50, 0
9, 102060, Note_on_c, 7, 46, 90
9, 102119, Note_on_c, 7, 46, 0
9, 102180, Note_on_c, 7, 44, 90
9, 102239, Note_on_c, 7, 44, 0
9, 102300, Note_on_c, 7, 43, 90
9, 102359, Note_on_c, 7, 43, 0
9, 102420, Note_on_c, 7, 41, 90
9, 102479, Note_on_c, 7, 41, 0
9, 102540, Note_on_c, 7, 51, 90
9, 102569, Note_on_c, 7, 51, 0
9, 102570, Note_on_c, 7, 53, 90
9, 102599, Note_on_c, 7, 53, 0
9, 102600, Note_on_c, 7, 51, 90
9, 102629, Note_on_c, 7, 51, 0
9, 102630, Note_on_c, 7, 53, 90
9, 102659, Note_on_c, 7, 53, 0
9, 102660, Note_on_c, 7, 50, 90
9, 102689, Note_on_c, 7, 50, 0
9, 102690, Note_on_c, 7, 51, 90
9, 102719, Note_on_c, 7, 51, 0
9, 102720, Note_on_c, 7, 50, 90
9, 102749, Note_on_c, 7, 50, 0
9, 102750, Note_on_c, 7, 51, 90
9, 102779, Note_on_c, 7, 51, 0
9, 102780, Note_on_c, 7, 48, 90
9, 102809, Note_on_c, 7, 48, 0
9, 102810, Note_on_c, 7, 50, 90
9, 102839, Note_on_c, 7, 50, 0
9, 102840, Note_on_c, 7, 48, 90
9, 102869, Note_on_c, 7, 48, 0
9, 102870, Note_on_c, 7, 50, 90
9, 102899, Note_on_c, 7, 50, 0
9, 102900, Note_on_c, 7, 46, 90
9, 102929, Note_on_c, 7, 46, 0
9, 102930, Note_on_c, 7, 48, 90
9, 102959, Note_on_c, 7, 48, 0
9, 102960, Note_on_c, 7, 46, 90
9, 102989, Note_on_c, 7, 46, 0
9, 102990, Note_on_c, 7, 48, 90
9, 103019, Note_on_c, 7, 48, 0
9, 103020, Note_on_c, 7, 44, 90
9, 103079, Note_on_c, 7, 44, 0
9, 103140, Note_on_c, 7, 43, 90
9, 103199, Note_on_c, 7, 43, 0
9, 103260, Note_on_c, 7, 41, 90
9, 103319, Note_on_c, 7, 41, 0
9, 103380, Note_on_c, 7, 39, 90
9, 103439, Note_on_c, 7, 39, 0
9, 103500, Note_on_c, 7, 50, 90
9, 103529, Note_on_c, 7, 50, 0
9, 103530, Note_on_c, 7, 51, 90
9, 103559, Note_on_c, 7, 51, 0
9, 103560, Note_on_c, 7, 50, 90
9, 103589, Note_on_c, 7, 50, 0
9, 103590, Note_on_c, 7, 51, 90
9, 103619, Note_on_c, 7, 51, 0
9, 103620, Note_on_c, 7, 48, 90
9, 103649, Note_on_c, 7, 48, 0
9, 103650, Note_on_c, 7, 50, 90
9, 103679, Note_on_c, 7, 50, 0
9, 103680, Note_on_c, 7, 48, 90
9, 103709, Note_on_c, 7, 48, 0
9, 103710, Note_on_c, 7, 50, 90
9, 103739, Note_on_c, 7, 50, 0
9, 103740, Note_on_c, 7, 47, 90
9, 103769, Note_on_c, 7, 47, 0
9, 103770, Note_on_c, 7, 48, 90
9, 103799, Note_on_c, 7, 48, 0
9, 103800, Note_on_c, 7, 47, 90
9, 103829, Note_on_c, 7, 47, 0
9, 103830, Note_on_c, 7, 48, 90
9, 103859, Note_on_c, 7, 48, 0
9, 103860, Note_on_c, 7, 45, 90
9, 103889, Note_on_c, 7, 45, 0
9, 103890, Note_on_c, 7, 47, 90
9, 103919, Note_on_c, 7, 47, 0
9, 103920, Note_on_c, 7, 45, 90
9, 103949, Note_on_c, 7, 45, 0
9, 103950, Note_on_c, 7, 47, 90
9, 103979, Note_on_c, 7, 47, 0
9, 103980, Note_on_c, 7, 43, 90
9, 104039, Note_on_c, 7, 43, 0
9, 104100, Note_on_c, 7, 41, 90
9, 104159, Note_on_c, 7, 41, 0
9, 104220, Note_on_c, 7, 39, 90
9, 104279, Note_on_c, 7, 39, 0
9, 104340, Note_on_c, 7, 38, 90
9, 104399, Note_on_c, 7, 38, 0
9, 104460, Note_on_c, 7, 36, 90
9, 104519, Note_on_c, 7, 36, 0
9, 104520, Note_on_c, 7, 60, 90
9, 104639, Note_on_c, 7, 60, 0
9, 104640, Note_on_c, 7, 59, 90
9, 104699, Note_on_c, 7, 59, 0
9, 104700, Note_on_c, 7, 60, 90
9, 104729, Note_on_c, 7, 60, 0
9, 104730, Note_on_c, 7, 55, 90
9, 104759, Note_on_c, 7, 55, 0
9, 104760, Note_on_c, 7, 51, 90
9, 104789, Note_on_c, 7, 51, 0
9, 104790, Note_on_c, 7, 55, 90
9, 104819, Note_on_c, 7, 55, 0
9, 104820, Note_on_c, 7, 48, 90
9, 104849, Note_on_c, 7, 48, 0
9, 104850, Note_on_c, 7, 50, 90
9, 104879, Note_on_c, 7, 50, 0
9, 104880, Note_on_c, 7, 48, 90
9, 104909, Note_on_c, 7, 48, 0
9, 104910, Note_on_c, 7, 50, 90
9, 104939, Note_on_c, 7, 50, 0
9, 104940, Note_on_c, 7, 51, 90
9, 104969, Note_on_c, 7, 51, 0
9, 104970, Note_on_c, 7, 50, 90
9, 104999, Note_on_c, 7, 50, 0
9, 105000, Note_on_c, 7, 51, 90
9, 105029, Note_on_c, 7, 51, 0
9, 105030, Note_on_c, 7, 48, 90
9, 105059, Note_on_c, 7, 48, 0
9, 105060, Note_on_c, 7, 55, 90
9, 105089, Note_on_c, 7, 55, 0
9, 105090, Note_on_c, 7, 53, 90
9, 105119, Note_on_c, 7, 53, 0
9, 105120, Note_on_c, 7, 55, 90
9, 105149, Note_on_c, 7, 55, 0
9, 105150, Note_on_c, 7, 43, 90
9, 105179, Note_on_c, 7, 43, 0
9, 105180, Note_on_c, 7, 48, 90
9, 105239, Note_on_c, 7, 48, 0
9, 105240, Note_on_c, 7, 43, 90
9, 105299, Note_on_c, 7, 43, 0
9, 105300, Note_on_c, 7, 36, 90
9, 105359, Note_on_c, 7, 36, 0
9, 105360, Note_on_c, 7, 48, 90
9, 105389, Note_on_c, 7, 48, 0
9, 105390, Note_on_c, 7, 50, 90
9, 105419, Note_on_c, 7, 50, 0
9, 105420, Note_on_c, 7, 51, 90
9, 105449, Note_on_c, 7, 51, 0
9, 105450, Note_on_c, 7, 50, 90
9, 105479, Note_on_c, 7, 50, 0
9, 105480, Note_on_c, 7, 51, 90
9, 105599, Note_on_c, 7, 51, 0
9, 105600, Note_on_c, 7, 50, 90
9, 105659, Note_on_c, 7, 50, 0
9, 105660, Note_on_c, 7, 51, 90
9, 105689, Note_on_c, 7, 51, 0
9, 105690, Note_on_c, 7, 46, 90
9, 105719, Note_on_c, 7, 46, 0
9, 105720, Note_on_c, 7, 43, 90
9, 105749, Note_on_c, 7, 43, 0
9, 105750, Note_on_c, 7, 46, 90
9, 105779, Note_on_c, 7, 46, 0
9, 105780, Note_on_c, 7, 39, 90
9, 105809, Note_on_c, 7, 39, 0
9, 105810, Note_on_c, 7, 46, 90
9, 105839, Note_on_c, 7, 46, 0
9, 105840, Note_on_c, 7, 51, 90
9, 105869, Note_on_c, 7, 51, 0
9, 105870, Note_on_c, 7, 53, 90
9, 105899, Note_on_c, 7, 53, 0
9, 105900, Note_on_c, 7, 55, 90
9, 105929, Note_on_c, 7, 55, 0
9, 105930, Note_on_c, 7, 53, 90
9, 105959, Note_on_c, 7, 53, 0
9, 105960, Note_on_c, 7, 55, 90
9, 105989, Note_on_c, 7, 55, 0
9, 105990, Note_on_c, 7, 51, 90
9, 106019, Note_on_c, 7, 51, 0
9, 106020, Note_on_c, 7, 58, 90
9, 106049, Note_on_c, 7, 58, 0
9, 106050, Note_on_c, 7, 56, 90
9, 106079, Note_on_c, 7, 56, 0
9, 106080, Note_on_c, 7, 58, 90
9, 106109, Note_on_c, 7, 58, 0
9, 106110, Note_on_c, 7, 46, 90
9, 106139, Note_on_c, 7, 46, 0
9, 106140, Note_on_c, 7, 51, 90
9, 106199, Note_on_c, 7, 51, 0
9, 106200, Note_on_c, 7, 46, 90
9, 106259, Note_on_c, 7, 46, 0
9, 106260, Note_on_c, 7, 51, 90
9, 106319, Note_on_c, 7, 51, 0
9, 106320, Note_on_c, 7, 55, 90
9, 106349, Note_on_c, 7, 55, 0
9, 106350, Note_on_c, 7, 58, 90
9, 106379, Note_on_c, 7, 58, 0
9, 106380, Note_on_c, 7, 63, 90
9, 106439, Note_on_c, 7, 63, 0
9, 106440, Note_on_c, 7, 61, 90
9, 106469, Note_on_c, 7, 61, 0
9, 106470, Note_on_c, 7, 60, 90
9, 106499, Note_on_c, 7, 60, 0
9, 106500, Note_on_c, 7, 58, 90
9, 106529, Note_on_c, 7, 58, 0
9, 106530, Note_on_c, 7, 56, 90
9, 106559, Note_on_c, 7, 56, 0
9, 106560, Note_on_c, 7, 55, 90
9, 106589, Note_on_c, 7, 55, 0
9, 106590, Note_on_c, 7, 53, 90
9, 106619, Note_on_c, 7, 53, 0
9, 106620, Note_on_c, 7, 51, 90
9, 106649, Note_on_c, 7, 51, 0
9, 106650, Note_on_c, 7, 55, 90
9, 106679, Note_on_c, 7, 55, 0
9, 106680, Note_on_c, 7, 56, 90
9, 106709, Note_on_c, 7, 56, 0
9, 106710, Note_on_c, 7, 51, 90
9, 106739, Note_on_c, 7, 51, 0
9, 106740, Note_on_c, 7, 48, 90
9, 106769, Note_on_c, 7, 48, 0
9, 106770, Note_on_c, 7, 51, 90
9, 106799, Note_on_c, 7, 51, 0
9, 106800, Note_on_c, 7, 44, 90
9, 106829, Note_on_c, 7, 44, 0
9, 106830, Note_on_c, 7, 48, 90
9, 106859, Note_on_c, 7, 48, 0
9, 106860, Note_on_c, 7, 43, 90
9, 106919, Note_on_c, 7, 43, 0
9, 106920, Note_on_c, 7, 46, 90
9, 106979, Note_on_c, 7, 46, 0
9, 106980, Note_on_c, 7, 39, 90
9, 107039, Note_on_c, 7, 39, 0
9, 107040, Note_on_c, 7, 43, 90
9, 107099, Note_on_c, 7, 43, 0
9, 107100, Note_on_c, 7, 44, 90
9, 107159, Note_on_c, 7, 44, 0
9, 107160, Note_on_c, 7, 51, 90
9, 107219, Note_on_c, 7, 51, 0
9, 107220, Note_on_c, 7, 56, 90
9, 107249, Note_on_c, 7, 56, 0
9, 107250, Note_on_c, 7, 51, 90
9, 107279, Note_on_c, 7, 51, 0
9, 107280, Note_on_c, 7, 56, 90
9, 107309, Note_on_c, 7, 56, 0
9, 107310, Note_on_c, 7, 60, 90
9, 107339, Note_on_c, 7, 60, 0
9, 107340, Note_on_c, 7, 65, 90
9, 107399, Note_on_c, 7, 65, 0
9, 107400, Note_on_c, 7, 63, 90
9, 107429, Note_on_c, 7, 63, 0
9, 107430, Note_on_c, 7, 62, 90
9, 107459, Note_on_c, 7, 62, 0
9, 107460, Note_on_c, 7, 60, 90
9, 107489, Note_on_c, 7, 60, 0
9, 107490, Note_on_c, 7, 58, 90
9, 107519, Note_on_c, 7, 58, 0
9, 107520, Note_on_c, 7, 57, 90
9, 107549, Note_on_c, 7, 57, 0
9, 107550, Note_on_c, 7, 55, 90
9, 107579, Note_on_c, 7, 55, 0
9, 107580, Note_on_c, 7, 53, 90
9, 107609, Note_on_c, 7, 53, 0
9, 107610, Note_on_c, 7, 57, 90
9, 107639, Note_on_c, 7, 57, 0
9, 107640, Note_on_c, 7, 58, 90
9, 107669, Note_on_c, 7, 58, 0
9, 107670, Note_on_c, 7, 53, 90
9, 107699, Note_on_c, 7, 53, 0
9, 107700, Note_on_c, 7, 50, 90
9, 107729, Note_on_c, 7, 50, 0
9, 107730, Note_on_c, 7, 53, 90
9, 107759, Note_on_c, 7, 53, 0
9, 107760, Note_on_c, 7, 46, 90
9, 107789, Note_on_c, 7, 46, 0
9, 107790, Note_on_c, 7, 50, 90
9, 107819, Note_on_c, 7, 50, 0
9, 107820, Note_on_c, 7, 45, 90
9, 107879, Note_on_c, 7, 45, 0
9, 107880, Note_on_c, 7, 48, 90
9, 107939, Note_on_c, 7, 48, 0
9, 107940, Note_on_c, 7, 41, 90
9, 107999, Note_on_c, 7, 41, 0
9, 108000, Note_on_c, 7, 45, 90
9, 108059, Note_on_c, 7, 45, 0
9, 108060, Note_on_c, 7, 46, 90
9, 108119, Note_on_c, 7, 46, 0
9, 108120, Note_on_c, 7, 53, 90
9, 108179, Note_on_c, 7, 53, 0
9, 108180, Note_on_c, 7, 58, 90
9, 108209, Note_on_c, 7, 58, 0
9, 108210, Note_on_c, 7, 53, 90
9, 108239, Note_on_c, 7, 53, 0
9, 108240, Note_on_c, 7, 58, 90
9, 108269, Note_on_c, 7, 58, 0
9, 108270, Note_on_c, 7, 62, 90
9, 108299, Note_on_c, 7, 62, 0
9, 108300, Note_on_c, 7, 67, 90
9, 108359, Note_on_c, 7, 67, 0
9, 108360, Note_on_c, 7, 65, 90
9, 108389, Note_on_c, 7, 65, 0
9, 108390, Note_on_c, 7, 63, 90
9, 108419, Note_on_c, 7, 63, 0
9, 108420, Note_on_c, 7, 62, 90
9, 108449, Note_on_c, 7, 62, 0
9, 108450, Note_on_c, 7, 60, 90
9, 108479, Note_on_c, 7, 60, 0
9, 108480, Note_on_c, 7, 59, 90
9, 108509, Note_on_c, 7, 59, 0
9, 108510, Note_on_c, 7, 57, 90
9, 108539, Note_on_c, 7, 57, 0
9, 108540, Note_on_c, 7, 55, 90
9, 108569, Note_on_c, 7, 55, 0
9, 108570, Note_on_c, 7, 59, 90
9, 108599, Note_on_c, 7, 59, 0
9, 108600, Note_on_c, 7, 60, 90
9, 108629, Note_on_c, 7, 60, 0
9, 108630, Note_on_c, 7, 55, 90
9, 108659, Note_on_c, 7, 55, 0
9, 108660, Note_on_c, 7, 51, 90
9, 108689, Note_on_c, 7, 51, 0
9, 108690, Note_on_c, 7, 55, 90
9, 108719, Note_on_c, 7, 55, 0
9, 108720, Note_on_c, 7, 48, 90
9, 108749, Note_on_c, 7, 48, 0
9, 108750, Note_on_c, 7, 51, 90
9, 108779, Note_on_c, 7, 51, 0
9, 108780, Note_on_c, 7, 47, 90
9, 108839, Note_on_c, 7, 47, 0
9, 108840, Note_on_c, 7, 50, 90
9, 108899, Note_on_c, 7, 50, 0
9, 108900, Note_on_c, 7, 43, 90
9, 108959, Note_on_c, 7, 43, 0
9, 108960, Note_on_c, 7, 47, 90
9, 109019, Note_on_c, 7, 47, 0
9, 109020, Note_on_c, 7, 48, 90
9, 109079, Note_on_c, 7, 48, 0
9, 109080, Note_on_c, 7, 55, 90
9, 109139, Note_on_c, 7, 55, 0
9, 109140, Note_on_c, 7, 60, 90
9, 109199, Note_on_c, 7, 60, 0
9, 109200, Note_on_c, 7, 51, 90
9, 109259, Note_on_c, 7, 51, 0
9, 109260, Note_on_c, 7, 50, 90
9, 109319, Note_on_c, 7, 50, 0
9, 109320, Note_on_c, 7, 56, 90
9, 109379, Note_on_c, 7, 56, 0
9, 109380, Note_on_c, 7, 48, 90
9, 109439, Note_on_c, 7, 48, 0
9, 109440, Note_on_c, 7, 56, 90
9, 109499, Note_on_c, 7, 56, 0
9, 109500, Note_on_c, 7, 47, 90
9, 109529, Note_on_c, 7, 47, 0
9, 109530, Note_on_c, 7, 45, 90
9, 109559, Note_on_c, 7, 45, 0
9, 109560, Note_on_c, 7, 47, 90
9, 109589, Note_on_c, 7, 47, 0
9, 109590, Note_on_c, 7, 45, 90
9, 109619, Note_on_c, 7, 45, 0
9, 109620, Note_on_c, 7, 43, 90
9, 109649, Note_on_c, 7, 43, 0
9, 109650, Note_on_c, 7, 45, 90
9, 109679, Note_on_c, 7, 45, 0
9, 109680, Note_on_c, 7, 47, 90
9, 109709, Note_on_c, 7, 47, 0
9, 109710, Note_on_c, 7, 43, 90
9, 109739, Note_on_c, 7, 43, 0
9, 109740, Note_on_c, 7, 48, 90
9, 109799, Note_on_c, 7, 48, 0
9, 109800, Note_on_c, 7, 55, 90
9, 109859, Note_on_c, 7, 55, 0
9, 109860, Note_on_c, 7, 46, 90
9, 109919, Note_on_c, 7, 46, 0
9, 109920, Note_on_c, 7, 55, 90
9, 109979, Note_on_c, 7, 55, 0
9, 109980, Note_on_c, 7, 45, 90
9, 110009, Note_on_c, 7, 45, 0
9, 110010, Note_on_c, 7, 43, 90
9, 110039, Note_on_c, 7, 43, 0
9, 110040, Note_on_c, 7, 45, 90
9, 110069, Note_on_c, 7, 45, 0
9, 110070, Note_on_c, 7, 43, 90
9, 110099, Note_on_c, 7, 43, 0
9, 110100, Note_on_c, 7, 42, 90
9, 110129, Note_on_c, 7, 42, 0
9, 110130, Note_on_c, 7, 43, 90
9, 110159, Note_on_c, 7, 43, 0
9, 110160, Note_on_c, 7, 45, 90
9, 110189, Note_on_c, 7, 45, 0
9, 110190, Note_on_c, 7, 42, 90
9, 110219, Note_on_c, 7, 42, 0
9, 110220, Note_on_c, 7, 43, 90
9, 110279, Note_on_c, 7, 43, 0
9, 110280, Note_on_c, 7, 55, 90
9, 110339, Note_on_c, 7, 55, 0
9, 110340, Note_on_c, 7, 59, 90
9, 110399, Note_on_c, 7, 59, 0
9, 110400, Note_on_c, 7, 55, 90
9, 110459, Note_on_c, 7, 55, 0
9, 110460, Note_on_c, 7, 43, 90
9, 110519, Note_on_c, 7, 43, 0
9, 110520, Note_on_c, 7, 55, 90
9, 110579, Note_on_c, 7, 55, 0
9, 110580, Note_on_c, 7, 59, 90
9, 110639, Note_on_c, 7, 59, 0
9, 110640, Note_on_c, 7, 55, 90
9, 110699, Note_on_c, 7, 55, 0
9, 110700, Note_on_c, 7, 43, 90
9, 110759, Note_on_c, 7, 43, 0
9, 110760, Note_on_c, 7, 51, 90
9, 110819, Note_on_c, 7, 51, 0
9, 110820, Note_on_c, 7, 60, 90
9, 110879, Note_on_c, 7, 60, 0
9, 110880, Note_on_c, 7, 51, 90
9, 110939, Note_on_c, 7, 51, 0
9, 110940, Note_on_c, 7, 43, 90
9, 110999, Note_on_c, 7, 43, 0
9, 111000, Note_on_c, 7, 48, 90
9, 111059, Note_on_c, 7, 48, 0
9, 111060, Note_on_c, 7, 51, 90
9, 111119, Note_on_c, 7, 51, 0
9, 111120, Note_on_c, 7, 48, 90
9, 111179, Note_on_c, 7, 48, 0
9, 111180, Note_on_c, 7, 43, 90
9, 111239, Note_on_c, 7, 43, 0
9, 111240, Note_on_c, 7, 59, 90
9, 111299, Note_on_c, 7, 59, 0
9, 111300, Note_on_c, 7, 62, 90
9, 111359, Note_on_c, 7, 62, 0
9, 111360, Note_on_c, 7, 59, 90
9, 111419, Note_on_c, 7, 59, 0
9, 111420, Note_on_c, 7, 43, 90
9, 111479, Note_on_c, 7, 43, 0
9, 111480, Note_on_c, 7, 59, 90
9, 111539, Note_on_c, 7, 59, 0
9, 111540, Note_on_c, 7, 62, 90
9, 111599, Note_on_c, 7, 62, 0
9, 111600, Note_on_c, 7, 59, 90
9, 111659, Note_on_c, 7, 59, 0
9, 111660, Note_on_c, 7, 43, 90
9, 111719, Note_on_c, 7, 43, 0
9, 111720, Note_on_c, 7, 55, 90
9, 111779, Note_on_c, 7, 55, 0
9, 111780, Note_on_c, 7, 59, 90
9, 111839, Note_on_c, 7, 59, 0
9, 111840, Note_on_c, 7, 55, 90
9, 111899, Note_on_c, 7, 55, 0
9, 111900, Note_on_c, 7, 43, 90
9, 111959, Note_on_c, 7, 43, 0
9, 111960, Note_on_c, 7, 55, 90
9, 112019, Note_on_c, 7, 55, 0
9, 112020, Note_on_c, 7, 60, 90
9, 112079, Note_on_c, 7, 60, 0
9, 112080, Note_on_c, 7, 55, 90
9, 112139, Note_on_c, 7, 55, 0
9, 112140, Note_on_c, 7, 43, 90
9, 112199, Note_on_c, 7, 43, 0
9, 112200, Note_on_c, 7, 50, 90
9, 112259, Note_on_c, 7, 50, 0
9, 112260, Note_on_c, 7, 55, 90
9, 112319, Note_on_c, 7, 55, 0
9, 112320, Note_on_c, 7, 50, 90
9, 112379, Note_on_c, 7, 50, 0
9, 112380, Note_on_c, 7, 43, 90
9, 112439, Note_on_c, 7, 43, 0
9, 112440, Note_on_c, 7, 50, 90
9, 112499, Note_on_c, 7, 50, 0
9, 112500, Note_on_c, 7, 55, 90
9, 112559, Note_on_c, 7, 55, 0
9, 112560, Note_on_c, 7, 43, 90
9, 112619, Note_on_c, 7, 43, 0
9, 112620, Note_on_c, 7, 48, 90
9, 112739, Note_on_c, 7, 48, 0
9, 113040, Note_on_c, 7, 60, 90
9, 113099, Note_on_c, 7, 60, 0
9, 113100, Note_on_c, 7, 58, 90
9, 113129, Note_on_c, 7, 58, 0
9, 113130, Note_on_c, 7, 60, 90
9, 113159, Note_on_c, 7, 60, 0
9, 113160, Note_on_c, 7, 58, 90
9, 113189, Note_on_c, 7, 58, 0
9, 113190, Note_on_c, 7, 60, 90
9, 113219, Note_on_c, 7, 60, 0
9, 113220, Note_on_c, 7, 56, 90
9, 113249, Note_on_c, 7, 56, 0
9, 113250, Note_on_c, 7, 58, 90
9, 113279, Note_on_c, 7, 58, 0
9, 113280, Note_on_c, 7, 56, 90
9, 113309, Note_on_c, 7, 56, 0
9, 113310, Note_on_c, 7, 58, 90
9, 113339, Note_on_c, 7, 58, 0
9, 113340, Note_on_c, 7, 55, 90
9, 113399, Note_on_c, 7, 55, 0
9, 113400, Note_on_c, 7, 50, 90
9, 113459, Note_on_c, 7, 50, 0
9, 113460, Note_on_c, 7, 43, 90
9, 113519, Note_on_c, 7, 43, 0
9, 114000, Note_on_c, 7, 43, 90
9, 114059, Note_on_c, 7, 43, 0
9, 114060, Note_on_c, 7, 48, 90
9, 114119, Note_on_c, 7, 48, 0
9, 114120, Note_on_c, 7, 39, 90
9, 114179, Note_on_c, 7, 39, 0
9, 114180, Note_on_c, 7, 41, 90
9, 114239, Note_on_c, 7, 41, 0
9, 114240, Note_on_c, 7, 43, 90
9, 114299, Note_on_c, 7, 43, 0
9, 114300, Note_on_c, 7, 36, 90
9, 114359, Note_on_c, 7, 36, 0
9, 114360, Note_on_c, 7, 43, 90
9, 114419, Note_on_c, 7, 43, 0
9, 114420, Note_on_c, 7, 48, 90
9, 114479, Note_on_c, 7, 48, 0
9, 114960, Note_on_c, 7, 48, 90
9, 115019, Note_on_c, 7, 48, 0
9, 115020, Note_on_c, 7, 53, 90
9, 115079, Note_on_c, 7, 53, 0
9, 115080, Note_on_c, 7, 44, 90
9, 115139, Note_on_c, 7, 44, 0
9, 115140, Note_on_c, 7, 46, 90
9, 115199, Note_on_c, 7, 46, 0
9, 115200, Note_on_c, 7, 48, 90
9, 115259, Note_on_c, 7, 48, 0
9, 115260, Note_on_c, 7, 41, 90
9, 115319, Note_on_c, 7, 41, 0
9, 115320, Note_on_c, 7, 48, 90
9, 115379, Note_on_c, 7, 48, 0
9, 115380, Note_on_c, 7, 53, 90
9, 115409, Note_on_c, 7, 53, 0
9, 115410, Note_on_c, 7, 55, 90
9, 115439, Note_on_c, 7, 55, 0
9, 115440, Note_on_c, 7, 56, 90
9, 115469, Note_on_c, 7, 56, 0
9, 115470, Note_on_c, 7, 53, 90
9, 115499, Note_on_c, 7, 53, 0
9, 115500, Note_on_c, 7, 58, 90
9, 115559, Note_on_c, 7, 58, 0
9, 115560, Note_on_c, 7, 56, 90
9, 115619, Note_on_c, 7, 56, 0
9, 115620, Note_on_c, 7, 55, 90
9, 115649, Note_on_c, 7, 55, 0
9, 115650, Note_on_c, 7, 63, 90
9, 115679, Note_on_c, 7, 63, 0
9, 115680, Note_on_c, 7, 61, 90
9, 115709, Note_on_c, 7, 61, 0
9, 115710, Note_on_c, 7, 63, 90
9, 115739, Note_on_c, 7, 63, 0
9, 115740, Note_on_c, 7, 56, 90
9, 115799, Note_on_c, 7, 56, 0
9, 115800, Note_on_c, 7, 60, 90
9, 115859, Note_on_c, 7, 60, 0
9, 115860, Note_on_c, 7, 53, 90
9, 115889, Note_on_c, 7, 53, 0
9, 115890, Note_on_c, 7, 65, 90
9, 115919, Note_on_c, 7, 65, 0
9, 115920, Note_on_c, 7, 64, 90
9, 115949, Note_on_c, 7, 64, 0
9, 115950, Note_on_c, 7, 65, 90
9, 115979, Note_on_c, 7, 65, 0
9, 115980, Note_on_c, 7, 55, 90
9, 116039, Note_on_c, 7, 55, 0
9, 116040, Note_on_c, 7, 53, 90
9, 116099, Note_on_c, 7, 53, 0
9, 116100, Note_on_c, 7, 52, 90
9, 116129, Note_on_c, 7, 52, 0
9, 116130, Note_on_c, 7, 60, 90
9, 116159, Note_on_c, 7, 60, 0
9, 116160, Note_on_c, 7, 58, 90
9, 116189, Note_on_c, 7, 58, 0
9, 116190, Note_on_c, 7, 60, 90
9, 116219, Note_on_c, 7, 60, 0
9, 116220, Note_on_c, 7, 53, 90
9, 116279, Note_on_c, 7, 53, 0
9, 116280, Note_on_c, 7, 56, 90
9, 116339, Note_on_c, 7, 56, 0
9, 116340, Note_on_c, 7, 50, 90
9, 116369, Note_on_c, 7, 50, 0
9, 116370, Note_on_c, 7, 53, 90
9, 116399, Note_on_c, 7, 53, 0
9, 116400, Note_on_c, 7, 56, 90
9, 116429, Note_on_c, 7, 56, 0
9, 116430, Note_on_c, 7, 48, 90
9, 116459, Note_on_c, 7, 48, 0
9, 116460, Note_on_c, 7, 47, 90
9, 116489, Note_on_c, 7, 47, 0
9, 116490, Note_on_c, 7, 59, 90
9, 116519, Note_on_c, 7, 59, 0
9, 116520, Note_on_c, 7, 62, 90
9, 116549, Note_on_c, 7, 62, 0
9, 116550, Note_on_c, 7, 59, 90
9, 116579, Note_on_c, 7, 59, 0
9, 116580, Note_on_c, 7, 60, 90
9, 116639, Note_on_c, 7, 60, 0
9, 116640, Note_on_c, 7, 53, 90
9, 116699, Note_on_c, 7, 53, 0
9, 116700, Note_on_c, 7, 55, 90
9, 117000, Note_on_c, 7, 55, 0
9, 117000, Note_on_c, 7, 65, 90
9, 117059, Note_on_c, 7, 65, 0
9, 117060, Note_on_c, 7, 55, 90
9, 117119, Note_on_c, 7, 55, 0
9, 117120, Note_on_c, 7, 60, 90
9, 117179, Note_on_c, 7, 60, 0
9, 117180, Note_on_c, 7, 55, 90
9, 117180, Note_on_c, 7, 62, 90
9, 117239, Note_on_c, 7, 62, 0
9, 117240, Note_on_c, 7, 67, 90
9, 117299, Note_on_c, 7, 67, 0
9, 117330, Note_on_c, 7, 55, 0
9, 117330, Note_on_c, 7, 56, 90
9, 117359, Note_on_c, 7, 56, 0
9, 117360, Note_on_c, 7, 53, 90
9, 117389, Note_on_c, 7, 53, 0
9, 117390, Note_on_c, 7, 55, 90
9, 117419, Note_on_c, 7, 55, 0
9, 117420, Note_on_c, 7, 51, 90
9, 117449, Note_on_c, 7, 51, 0
9, 117450, Note_on_c, 7, 53, 90
9, 117479, Note_on_c, 7, 53, 0
9, 117480, Note_on_c, 7, 51, 90
9, 117509, Note_on_c, 7, 51, 0
9, 117510, Note_on_c, 7, 53, 90
9, 117539, Note_on_c, 7, 53, 0
9, 117540, Note_on_c, 7, 50, 90
9, 117569, Note_on_c, 7, 50, 0
9, 117570, Note_on_c, 7, 51, 90
9, 117599, Note_on_c, 7, 51, 0
9, 117600, Note_on_c, 7, 50, 90
9, 117629, Note_on_c, 7, 50, 0
9, 117630, Note_on_c, 7, 51, 90
9, 117659, Note_on_c, 7, 51, 0
9, 117660, Note_on_c, 7, 48, 90
9, 117719, Note_on_c, 7, 48, 0
9, 117720, Note_on_c, 7, 43, 90
9, 117779, Note_on_c, 7, 43, 0
9, 117780, Note_on_c, 7, 36, 90
9, 117839, Note_on_c, 7, 36, 0
9, 117840, Note_on_c, 7, 48, 90
9, 117899, Note_on_c, 7, 48, 0
9, 117900, Note_on_c, 7, 46, 90
9, 117929, Note_on_c, 7, 46, 0
9, 117930, Note_on_c, 7, 48, 90
9, 117959, Note_on_c, 7, 48, 0
9, 117960, Note_on_c, 7, 46, 90
9, 117989, Note_on_c, 7, 46, 0
9, 117990, Note_on_c, 7, 48, 90
9, 118019, Note_on_c, 7, 48, 0
9, 118020, Note_on_c, 7, 44, 90
9, 118049, Note_on_c, 7, 44, 0
9, 118050, Note_on_c, 7, 46, 90
9, 118079, Note_on_c, 7, 46, 0
9, 118080, Note_on_c, 7, 44, 90
9, 118109, Note_on_c, 7, 44, 0
9, 118110, Note_on_c, 7, 46, 90
9, 118139, Note_on_c, 7, 46, 0
9, 118140, Note_on_c, 7, 43, 90
9, 118199, Note_on_c, 7, 43, 0
9, 118200, Note_on_c, 7, 50, 90
9, 118259, Note_on_c, 7, 50, 0
9, 118260, Note_on_c, 7, 55, 90
9, 118319, Note_on_c, 7, 55, 0
9, 118320, Note_on_c, 7, 53, 90
9, 118379, Note_on_c, 7, 53, 0
9, 118380, Note_on_c, 7, 51, 90
9, 118409, Note_on_c, 7, 51, 0
9, 118410, Note_on_c, 7, 53, 90
9, 118439, Note_on_c, 7, 53, 0
9, 118440, Note_on_c, 7, 51, 90
9, 118469, Note_on_c, 7, 51, 0
9, 118470, Note_on_c, 7, 53, 90
9, 118499, Note_on_c, 7, 53, 0
9, 118500, Note_on_c, 7, 50, 90
9, 118529, Note_on_c, 7, 50, 0
9, 118530, Note_on_c, 7, 51, 90
9, 118559, Note_on_c, 7, 51, 0
9, 118560, Note_on_c, 7, 50, 90
9, 118589, Note_on_c, 7, 50, 0
9, 118590, Note_on_c, 7, 51, 90
9, 118619, Note_on_c, 7, 51, 0
9, 118620, Note_on_c, 7, 48, 90
9, 118649, Note_on_c, 7, 48, 0
9, 118650, Note_on_c, 7, 50, 90
9, 118679, Note_on_c, 7, 50, 0
9, 118680, Note_on_c, 7, 48, 90
9, 118709, Note_on_c, 7, 48, 0
9, 118710, Note_on_c, 7, 50, 90
9, 118739, Note_on_c, 7, 50, 0
9, 118740, Note_on_c, 7, 46, 90
9, 118769, Note_on_c, 7, 46, 0
9, 118770, Note_on_c, 7, 48, 90
9, 118799, Note_on_c, 7, 48, 0
9, 118800, Note_on_c, 7, 46, 90
9, 118829, Note_on_c, 7, 46, 0
9, 118830, Note_on_c, 7, 48, 90
9, 118859, Note_on_c, 7, 48, 0
9, 118860, Note_on_c, 7, 44, 90
9, 118889, Note_on_c, 7, 44, 0
9, 118890, Note_on_c, 7, 46, 90
9, 118919, Note_on_c, 7, 46, 0
9, 118920, Note_on_c, 7, 44, 90
9, 118949, Note_on_c, 7, 44, 0
9, 118950, Note_on_c, 7, 46, 90
9, 118979, Note_on_c, 7, 46, 0
9, 118980, Note_on_c, 7, 43, 90
9, 119009, Note_on_c, 7, 43, 0
9, 119010, Note_on_c, 7, 44, 90
9, 119039, Note_on_c, 7, 44, 0
9, 119040, Note_on_c, 7, 43, 90
9, 119069, Note_on_c, 7, 43, 0
9, 119070, Note_on_c, 7, 44, 90
9, 119099, Note_on_c, 7, 44, 0
9, 119100, Note_on_c, 7, 41, 90
9, 119129, Note_on_c, 7, 41, 0
9, 119130, Note_on_c, 7, 40, 90
9, 119159, Note_on_c, 7, 40, 0
9, 119160, Note_on_c, 7, 41, 90
9, 119189, Note_on_c, 7, 41, 0
9, 119190, Note_on_c, 7, 43, 90
9, 119219, Note_on_c, 7, 43, 0
9, 119220, Note_on_c, 7, 44, 90
9, 119249, Note_on_c, 7, 44, 0
9, 119250, Note_on_c, 7, 46, 90
9, 119279, Note_on_c, 7, 46, 0
9, 119280, Note_on_c, 7, 48, 90
9, 119309, Note_on_c, 7, 48, 0
9, 119310, Note_on_c, 7, 50, 90
9, 119339, Note_on_c, 7, 50, 0
9, 119340, Note_on_c, 7, 52, 90
9, 119399, Note_on_c, 7, 52, 0
9, 119400, Note_on_c, 7, 55, 90
9, 119459, Note_on_c, 7, 55, 0
9, 119460, Note_on_c, 7, 48, 90
9, 119519, Note_on_c, 7, 48, 0
9, 119520, Note_on_c, 7, 52, 90
9, 119579, Note_on_c, 7, 52, 0
9, 119580, Note_on_c, 7, 53, 90
9, 119639, Note_on_c, 7, 53, 0
9, 119640, Note_on_c, 7, 41, 90
9, 119699, Note_on_c, 7, 41, 0
9, 119700, Note_on_c, 7, 44, 90
9, 119759, Note_on_c, 7, 44, 0
9, 119760, Note_on_c, 7, 48, 90
9, 119819, Note_on_c, 7, 48, 0
9, 119820, Note_on_c, 7, 52, 90
9, 119879, Note_on_c, 7, 52, 0
9, 119880, Note_on_c, 7, 55, 90
9, 119939, Note_on_c, 7, 55, 0
9, 119940, Note_on_c, 7, 48, 90
9, 119999, Note_on_c, 7, 48, 0
9, 120000, Note_on_c, 7, 52, 90
9, 120059, Note_on_c, 7, 52, 0
9, 120060, Note_on_c, 7, 53, 90
9, 120119, Note_on_c, 7, 53, 0
9, 120120, Note_on_c, 7, 41, 90
9, 120179, Note_on_c, 7, 41, 0
9, 120180, Note_on_c, 7, 44, 90
9, 120239, Note_on_c, 7, 44, 0
9, 120240, Note_on_c, 7, 48, 90
9, 120299, Note_on_c, 7, 48, 0
9, 120300, Note_on_c, 7, 50, 90
9, 120359, Note_on_c, 7, 50, 0
9, 120360, Note_on_c, 7, 53, 90
9, 120419, Note_on_c, 7, 53, 0
9, 120420, Note_on_c, 7, 46, 90
9, 120479, Note_on_c, 7, 46, 0
9, 120480, Note_on_c, 7, 50, 90
9, 120539, Note_on_c, 7, 50, 0
9, 120540, Note_on_c, 7, 51, 90
9, 120599, Note_on_c, 7, 51, 0
9, 120600, Note_on_c, 7, 39, 90
9, 120659, Note_on_c, 7, 39, 0
9, 120660, Note_on_c, 7, 43, 90
9, 120719, Note_on_c, 7, 43, 0
9, 120720, Note_on_c, 7, 46, 90
9, 120779, Note_on_c, 7, 46, 0
9, 120780, Note_on_c, 7, 50, 90
9, 120839, Note_on_c, 7, 50, 0
9, 120840, Note_on_c, 7, 53, 90
9, 120899, Note_on_c, 7, 53, 0
9, 120900, Note_on_c, 7, 46, 90
9, 120959, Note_on_c, 7, 46, 0
9, 120960, Note_on_c, 7, 50, 90
9, 121019, Note_on_c, 7, 50, 0
9, 121020, Note_on_c, 7, 39, 90
9, 121079, Note_on_c, 7, 39, 0
9, 121080, Note_on_c, 7, 51, 90
9, 121139, Note_on_c, 7, 51, 0
9, 121140, Note_on_c, 7, 55, 90
9, 121199, Note_on_c, 7, 55, 0
9, 121200, Note_on_c, 7, 51, 90
9, 121259, Note_on_c, 7, 51, 0
9, 121260, Note_on_c, 7, 50, 90
9, 121319, Note_on_c, 7, 50, 0
9, 121320, Note_on_c, 7, 56, 90
9, 121379, Note_on_c, 7, 56, 0
9, 121380, Note_on_c, 7, 48, 90
9, 121439, Note_on_c, 7, 48, 0
9, 121440, Note_on_c, 7, 56, 90
9, 121499, Note_on_c, 7, 56, 0
9, 121500, Note_on_c, 7, 47, 90
9, 121529, Note_on_c, 7, 47, 0
9, 121530, Note_on_c, 7, 45, 90
9, 121559, Note_on_c, 7, 45, 0
9, 121560, Note_on_c, 7, 47, 90
9, 121589, Note_on_c, 7, 47, 0
9, 121590, Note_on_c, 7, 45, 90
9, 121619, Note_on_c, 7, 45, 0
9, 121620, Note_on_c, 7, 43, 90
9, 121649, Note_on_c, 7, 43, 0
9, 121650, Note_on_c, 7, 45, 90
9, 121679, Note_on_c, 7, 45, 0
9, 121680, Note_on_c, 7, 47, 90
9, 121709, Note_on_c, 7, 47, 0
9, 121710, Note_on_c, 7, 43, 90
9, 121739, Note_on_c, 7, 43, 0
9, 121740, Note_on_c, 7, 48, 90
9, 121799, Note_on_c, 7, 48, 0
9, 121800, Note_on_c, 7, 55, 90
9, 121859, Note_on_c, 7, 55, 0
9, 121860, Note_on_c, 7, 46, 90
9, 121919, Note_on_c, 7, 46, 0
9, 121920, Note_on_c, 7, 55, 90
9, 121979, Note_on_c, 7, 55, 0
9, 121980, Note_on_c, 7, 45, 90
9, 122009, Note_on_c, 7, 45, 0
9, 122010, Note_on_c, 7, 43, 90
9, 122039, Note_on_c, 7, 43, 0
9, 122040, Note_on_c, 7, 45, 90
9, 122069, Note_on_c, 7, 45, 0
9, 122070, Note_on_c, 7, 43, 90
9, 122099, Note_on_c, 7, 43, 0
9, 122100, Note_on_c, 7, 42, 90
9, 122129, Note_on_c, 7, 42, 0
9, 122130, Note_on_c, 7, 43, 90
9, 122159, Note_on_c, 7, 43, 0
9, 122160, Note_on_c, 7, 45, 90
9, 122189, Note_on_c, 7, 45, 0
9, 122190, Note_on_c, 7, 42, 90
9, 122219, Note_on_c, 7, 42, 0
9, 122220, Note_on_c, 7, 43, 90
9, 122249, Note_on_c, 7, 43, 0
9, 122250, Note_on_c, 7, 44, 90
9, 122279, Note_on_c, 7, 44, 0
9, 122280, Note_on_c, 7, 43, 90
9, 122309, Note_on_c, 7, 43, 0
9, 122310, Note_on_c, 7, 44, 90
9, 122339, Note_on_c, 7, 44, 0
9, 122340, Note_on_c, 7, 43, 90
9, 122369, Note_on_c, 7, 43, 0
9, 122370, Note_on_c, 7, 44, 90
9, 122399, Note_on_c, 7, 44, 0
9, 122400, Note_on_c, 7, 41, 90
9, 122429, Note_on_c, 7, 41, 0
9, 122430, Note_on_c, 7, 43, 90
9, 122459, Note_on_c, 7, 43, 0
9, 122460, Note_on_c, 7, 44, 90
9, 122489, Note_on_c, 7, 44, 0
9, 122490, Note_on_c, 7, 56, 90
9, 122519, Note_on_c, 7, 56, 0
9, 122520, Note_on_c, 7, 55, 90
9, 122549, Note_on_c, 7, 55, 0
9, 122550, Note_on_c, 7, 53, 90
9, 122579, Note_on_c, 7, 53, 0
9, 122580, Note_on_c, 7, 51, 90
9, 122609, Note_on_c, 7, 51, 0
9, 122610, Note_on_c, 7, 56, 90
9, 122639, Note_on_c, 7, 56, 0
9, 122640, Note_on_c, 7, 55, 90
9, 122669, Note_on_c, 7, 55, 0
9, 122670, Note_on_c, 7, 53, 90
9, 122699, Note_on_c, 7, 53, 0
9, 122700, Note_on_c, 7, 51, 90
9, 122729, Note_on_c, 7, 51, 0
9, 122730, Note_on_c, 7, 56, 90
9, 122759, Note_on_c, 7, 56, 0
9, 122760, Note_on_c, 7, 55, 90
9, 122789, Note_on_c, 7, 55, 0
9, 122790, Note_on_c, 7, 53, 90
9, 122819, Note_on_c, 7, 53, 0
9, 122820, Note_on_c, 7, 55, 90
9, 122879, Note_on_c, 7, 55, 0
9, 122880, Note_on_c, 7, 43, 90
9, 122939, Note_on_c, 7, 43, 0
9, 122940, Note_on_c, 7, 48, 100
9, 122940, Note_on_c, 7, 36, 90
9, 123059, Note_on_c, 7, 36, 0
9, 123060, Note_on_c, 7, 48, 0
9, 123060, End_track
10, 0, Start_track
10, 0, MIDI_port, 0
10, 0, Title_t, "Violin I Pizz"
10, 0, Program_c, 10, 45
10, 52920, Note_on_c, 10, 75, 100
10, 52979, Note_on_c, 10, 75, 0
10, 52980, Note_on_c, 10, 74, 100
10, 53039, Note_on_c, 10, 74, 0
10, 53100, Note_on_c, 10, 75, 100
10, 53159, Note_on_c, 10, 75, 0
10, 53160, Note_on_c, 10, 72, 100
10, 53219, Note_on_c, 10, 72, 0
10, 53280, Note_on_c, 10, 65, 100
10, 53339, Note_on_c, 10, 65, 0
10, 53340, Note_on_c, 10, 70, 100
10, 53399, Note_on_c, 10, 70, 0
10, 53460, Note_on_c, 10, 70, 100
10, 53519, Note_on_c, 10, 70, 0
10, 53520, Note_on_c, 10, 75, 100
10, 53579, Note_on_c, 10, 75, 0
10, 53640, Note_on_c, 10, 74, 100
10, 53699, Note_on_c, 10, 74, 0
10, 53700, Note_on_c, 10, 72, 100
10, 53759, Note_on_c, 10, 72, 0
10, 53820, Note_on_c, 10, 70, 100
10, 53879, Note_on_c, 10, 70, 0
10, 53880, Note_on_c, 10, 68, 100
10, 53939, Note_on_c, 10, 68, 0
10, 54000, Note_on_c, 10, 67, 100
10, 54059, Note_on_c, 10, 67, 0
10, 54060, Note_on_c, 10, 70, 100
10, 54119, Note_on_c, 10, 70, 0
10, 54180, Note_on_c, 10, 75, 100
10, 54239, Note_on_c, 10, 75, 0
10, 54240, Note_on_c, 10, 72, 100
10, 54299, Note_on_c, 10, 72, 0
10, 54360, Note_on_c, 10, 70, 100
10, 54420, Note_on_c, 10, 70, 0
10, 54420, Note_on_c, 10, 69, 100
10, 54480, Note_on_c, 10, 69, 0
10, 54540, Note_on_c, 10, 70, 100
10, 54600, Note_on_c, 10, 70, 0
10, 54600, Note_on_c, 10, 67, 100
10, 54660, Note_on_c, 10, 67, 0
10, 54720, Note_on_c, 10, 65, 100
10, 54780, Note_on_c, 10, 65, 0
10, 54780, Note_on_c, 10, 69, 100
10, 54840, Note_on_c, 10, 69, 0
10, 54900, Note_on_c, 10, 72, 100
10, 54960, Note_on_c, 10, 72, 0
10, 54960, Note_on_c, 10, 77, 100
10, 55020, Note_on_c, 10, 77, 0
10, 55080, Note_on_c, 10, 79, 100
10, 55140, Note_on_c, 10, 79, 0
10, 55140, Note_on_c, 10, 75, 100
10, 55200, Note_on_c, 10, 75, 0
10, 55260, Note_on_c, 10, 72, 100
10, 55320, Note_on_c, 10, 72, 0
10, 55320, Note_on_c, 10, 77, 100
10, 55380, Note_on_c, 10, 77, 0
10, 55440, Note_on_c, 10, 74, 100
10, 55500, Note_on_c, 10, 74, 0
10, 55500, Note_on_c, 10, 70, 100
10, 55560, Note_on_c, 10, 70, 0
10, 55620, Note_on_c, 10, 72, 100
10, 55680, Note_on_c, 10, 72, 0
10, 55680, Note_on_c, 10, 76, 100
10, 55740, Note_on_c, 10, 76, 0
10, 55800, Note_on_c, 10, 77, 100
10, 55860, Note_on_c, 10, 77, 0
10, 55860, Note_on_c, 10, 80, 100
10, 55920, Note_on_c, 10, 80, 0
10, 55980, Note_on_c, 10, 74, 100
10, 56040, Note_on_c, 10, 74, 0
10, 56040, Note_on_c, 10, 79, 100
10, 56100, Note_on_c, 10, 79, 0
10, 56160, Note_on_c, 10, 75, 100
10, 56220, Note_on_c, 10, 75, 0
10, 56220, Note_on_c, 10, 72, 100
10, 56280, Note_on_c, 10, 72, 0
10, 56340, Note_on_c, 10, 77, 100
10, 56400, Note_on_c, 10, 77, 0
10, 56400, Note_on_c, 10, 80, 100
10, 56460, Note_on_c, 10, 80, 0
10, 56520, Note_on_c, 10, 79, 100
10, 56580, Note_on_c, 10, 79, 0
10, 56580, Note_on_c, 10, 74, 100
10, 56640, Note_on_c, 10, 74, 0
10, 56700, Note_on_c, 10, 72, 100
10, 56760, Note_on_c, 10, 72, 0
10, 56760, Note_on_c, 10, 75, 100
10, 56820, Note_on_c, 10, 75, 0
10, 56880, Note_on_c, 10, 74, 100
10, 56940, Note_on_c, 10, 74, 0
10, 56940, Note_on_c, 10, 71, 100
10, 57000, Note_on_c, 10, 71, 0
10, 57060, Note_on_c, 10, 67, 100
10, 57120, Note_on_c, 10, 67, 0
10, 57120, Note_on_c, 10, 72, 100
10, 57180, Note_on_c, 10, 72, 0
10, 57240, Note_on_c, 10, 71, 100
10, 57300, Note_on_c, 10, 71, 0
10, 57300, Note_on_c, 10, 77, 100
10, 57360, Note_on_c, 10, 77, 0
10, 57420, Note_on_c, 10, 79, 100
10, 57480, Note_on_c, 10, 79, 0
10, 57480, Note_on_c, 10, 74, 100
10, 57540, Note_on_c, 10, 74, 0
10, 57600, Note_on_c, 10, 75, 100
10, 57660, Note_on_c, 10, 75, 0
10, 57660, Note_on_c, 10, 71, 100
10, 57720, Note_on_c, 10, 71, 0
10, 57780, Note_on_c, 10, 72, 100
10, 57840, Note_on_c, 10, 72, 0
10, 57840, Note_on_c, 10, 68, 100
10, 57900, Note_on_c, 10, 68, 0
10, 57960, Note_on_c, 10, 67, 100
10, 58019, Note_on_c, 10, 67, 0
10, 58020, Note_on_c, 10, 71, 100
10, 58079, Note_on_c, 10, 71, 0
10, 58140, Note_on_c, 10, 74, 100
10, 58199, Note_on_c, 10, 74, 0
10, 58200, Note_on_c, 10, 79, 100
10, 58259, Note_on_c, 10, 79, 0
10, 58320, Note_on_c, 10, 80, 100
10, 58379, Note_on_c, 10, 80, 0
10, 58380, Note_on_c, 10, 77, 100
10, 58439, Note_on_c, 10, 77, 0
10, 58500, Note_on_c, 10, 74, 100
10, 58559, Note_on_c, 10, 74, 0
10, 58560, Note_on_c, 10, 79, 100
10, 58619, Note_on_c, 10, 79, 0
10, 58680, Note_on_c, 10, 79, 100
10, 58739, Note_on_c, 10, 79, 0
10, 58740, Note_on_c, 10, 67, 100
10, 58799, Note_on_c, 10, 67, 0
10, 58860, Note_on_c, 10, 72, 100
10, 58919, Note_on_c, 10, 72, 0
10, 58920, Note_on_c, 10, 75, 100
10, 58979, Note_on_c, 10, 75, 0
10, 59040, Note_on_c, 10, 80, 100
10, 59099, Note_on_c, 10, 80, 0
10, 59100, Note_on_c, 10, 74, 100
10, 59159, Note_on_c, 10, 74, 0
10, 59220, Note_on_c, 10, 71, 100
10, 59279, Note_on_c, 10, 71, 0
10, 59280, Note_on_c, 10, 67, 100
10, 59339, Note_on_c, 10, 67, 0
10, 59400, Note_on_c, 10, 60, 100
10, 59459, Note_on_c, 10, 60, 0
10, 59460, Note_on_c, 10, 72, 100
10, 59519, Note_on_c, 10, 72, 0
10, 59580, Note_on_c, 10, 75, 100
10, 59639, Note_on_c, 10, 75, 0
10, 59640, Note_on_c, 10, 74, 100
10, 59699, Note_on_c, 10, 74, 0
10, 59760, Note_on_c, 10, 75, 100
10, 59819, Note_on_c, 10, 75, 0
10, 59820, Note_on_c, 10, 80, 100
10, 59879, Note_on_c, 10, 80, 0
10, 59940, Note_on_c, 10, 79, 100
10, 59999, Note_on_c, 10, 79, 0
10, 60000, Note_on_c, 10, 77, 100
10, 60059, Note_on_c, 10, 77, 0
10, 60120, Note_on_c, 10, 75, 100
10, 60179, Note_on_c, 10, 75, 0
10, 60180, Note_on_c, 10, 79, 100
10, 60239, Note_on_c, 10, 79, 0
10, 60300, Note_on_c, 10, 72, 100
10, 60359, Note_on_c, 10, 72, 0
10, 60360, Note_on_c, 10, 75, 100
10, 60419, Note_on_c, 10, 75, 0
10, 60480, Note_on_c, 10, 69, 100
10, 60539, Note_on_c, 10, 69, 0
10, 60540, Note_on_c, 10, 72, 100
10, 60599, Note_on_c, 10, 72, 0
10, 60660, Note_on_c, 10, 65, 100
10, 60719, Note_on_c, 10, 65, 0
10, 60720, Note_on_c, 10, 69, 100
10, 60779, Note_on_c, 10, 69, 0
10, 60840, Note_on_c, 10, 74, 100
10, 60899, Note_on_c, 10, 74, 0
10, 60900, Note_on_c, 10, 70, 100
10, 60959, Note_on_c, 10, 70, 0
10, 61020, Note_on_c, 10, 82, 100
10, 61079, Note_on_c, 10, 82, 0
10, 61080, Note_on_c, 10, 80, 100
10, 61139, Note_on_c, 10, 80, 0
10, 61200, Note_on_c, 10, 79, 100
10, 61259, Note_on_c, 10, 79, 0
10, 61260, Note_on_c, 10, 75, 100
10, 61319, Note_on_c, 10, 75, 0
10, 61380, Note_on_c, 10, 75, 100
10, 61439, Note_on_c, 10, 75, 0
10, 61440, Note_on_c, 10, 72, 100
10, 61499, Note_on_c, 10, 72, 0
10, 61560, Note_on_c, 10, 65, 100
10, 61619, Note_on_c, 10, 65, 0
10, 61620, Note_on_c, 10, 77, 100
10, 61679, Note_on_c, 10, 77, 0
10, 61740, Note_on_c, 10, 75, 100
10, 61799, Note_on_c, 10, 75, 0
10, 61800, Note_on_c, 10, 72, 100
10, 61859, Note_on_c, 10, 72, 0
10, 61920, Note_on_c, 10, 74, 100
10, 61979, Note_on_c, 10, 74, 0
10, 61980, Note_on_c, 10, 77, 100
10, 62039, Note_on_c, 10, 77, 0
10, 62100, Note_on_c, 10, 76, 100
10, 62159, Note_on_c, 10, 76, 0
10, 62160, Note_on_c, 10, 79, 100
10, 62219, Note_on_c, 10, 79, 0
10, 62280, Note_on_c, 10, 77, 100
10, 62339, Note_on_c, 10, 77, 0
10, 62340, Note_on_c, 10, 69, 100
10, 62399, Note_on_c, 10, 69, 0
10, 62460, Note_on_c, 10, 70, 100
10, 62519, Note_on_c, 10, 70, 0
10, 62520, Note_on_c, 10, 67, 100
10, 62579, Note_on_c, 10, 67, 0
10, 62640, Note_on_c, 10, 60, 100
10, 62699, Note_on_c, 10, 60, 0
10, 62700, Note_on_c, 10, 65, 100
10, 62759, Note_on_c, 10, 65, 0
10, 62820, Note_on_c, 10, 65, 100
10, 62879, Note_on_c, 10, 65, 0
10, 62880, Note_on_c, 10, 70, 100
10, 62939, Note_on_c, 10, 70, 0
10, 63000, Note_on_c, 10, 69, 100
10, 63059, Note_on_c, 10, 69, 0
10, 63060, Note_on_c, 10, 67, 100
10, 63119, Note_on_c, 10, 67, 0
10, 63180, Note_on_c, 10, 65, 100
10, 63239, Note_on_c, 10, 65, 0
10, 63240, Note_on_c, 10, 63, 100
10, 63299, Note_on_c, 10, 63, 0
10, 63360, Note_on_c, 10, 62, 100
10, 63419, Note_on_c, 10, 62, 0
10, 63420, Note_on_c, 10, 58, 100
10, 63479, Note_on_c, 10, 58, 0
10, 63540, Note_on_c, 10, 70, 100
10, 63599, Note_on_c, 10, 70, 0
10, 63600, Note_on_c, 10, 67, 100
10, 63659, Note_on_c, 10, 67, 0
10, 63720, Note_on_c, 10, 65, 100
10, 63779, Note_on_c, 10, 65, 0
10, 63780, Note_on_c, 10, 64, 100
10, 63839, Note_on_c, 10, 64, 0
10, 63900, Note_on_c, 10, 65, 100
10, 63959, Note_on_c, 10, 65, 0
10, 63960, Note_on_c, 10, 61, 100
10, 64019, Note_on_c, 10, 61, 0
10, 64080, Note_on_c, 10, 60, 100
10, 64139, Note_on_c, 10, 60, 0
10, 64140, Note_on_c, 10, 64, 100
10, 64199, Note_on_c, 10, 64, 0
10, 64260, Note_on_c, 10, 67, 100
10, 64319, Note_on_c, 10, 67, 0
10, 64320, Note_on_c, 10, 72, 100
10, 64379, Note_on_c, 10, 72, 0
10, 64440, Note_on_c, 10, 73, 100
10, 64499, Note_on_c, 10, 73, 0
10, 64500, Note_on_c, 10, 70, 100
10, 64559, Note_on_c, 10, 70, 0
10, 64620, Note_on_c, 10, 67, 100
10, 64679, Note_on_c, 10, 67, 0
10, 64680, Note_on_c, 10, 72, 100
10, 64739, Note_on_c, 10, 72, 0
10, 64800, Note_on_c, 10, 68, 100
10, 64859, Note_on_c, 10, 68, 0
10, 64860, Note_on_c, 10, 65, 100
10, 64919, Note_on_c, 10, 65, 0
10, 64980, Note_on_c, 10, 67, 100
10, 65039, Note_on_c, 10, 67, 0
10, 65040, Note_on_c, 10, 71, 100
10, 65099, Note_on_c, 10, 71, 0
10, 65160, Note_on_c, 10, 72, 100
10, 65219, Note_on_c, 10, 72, 0
10, 65220, Note_on_c, 10, 75, 100
10, 65279, Note_on_c, 10, 75, 0
10, 65340, Note_on_c, 10, 69, 100
10, 65399, Note_on_c, 10, 69, 0
10, 65400, Note_on_c, 10, 74, 100
10, 65459, Note_on_c, 10, 74, 0
10, 65520, Note_on_c, 10, 70, 100
10, 65579, Note_on_c, 10, 70, 0
10, 65580, Note_on_c, 10, 67, 100
10, 65639, Note_on_c, 10, 67, 0
10, 65700, Note_on_c, 10, 72, 100
10, 65759, Note_on_c, 10, 72, 0
10, 65760, Note_on_c, 10, 75, 100
10, 65819, Note_on_c, 10, 75, 0
10, 65880, Note_on_c, 10, 74, 100
10, 65939, Note_on_c, 10, 74, 0
10, 65940, Note_on_c, 10, 69, 100
10, 65999, Note_on_c, 10, 69, 0
10, 66060, Note_on_c, 10, 67, 100
10, 66119, Note_on_c, 10, 67, 0
10, 66120, Note_on_c, 10, 70, 100
10, 66179, Note_on_c, 10, 70, 0
10, 66240, Note_on_c, 10, 69, 100
10, 66299, Note_on_c, 10, 69, 0
10, 66300, Note_on_c, 10, 66, 100
10, 66359, Note_on_c, 10, 66, 0
10, 66420, Note_on_c, 10, 62, 100
10, 66479, Note_on_c, 10, 62, 0
10, 66480, Note_on_c, 10, 67, 100
10, 66539, Note_on_c, 10, 67, 0
10, 66600, Note_on_c, 10, 66, 100
10, 66659, Note_on_c, 10, 66, 0
10, 66660, Note_on_c, 10, 72, 100
10, 66719, Note_on_c, 10, 72, 0
10, 66780, Note_on_c, 10, 74, 100
10, 66839, Note_on_c, 10, 74, 0
10, 66840, Note_on_c, 10, 69, 100
10, 66899, Note_on_c, 10, 69, 0
10, 66960, Note_on_c, 10, 70, 100
10, 67019, Note_on_c, 10, 70, 0
10, 67020, Note_on_c, 10, 66, 100
10, 67079, Note_on_c, 10, 66, 0
10, 67140, Note_on_c, 10, 67, 100
10, 67199, Note_on_c, 10, 67, 0
10, 67200, Note_on_c, 10, 63, 100
10, 67259, Note_on_c, 10, 63, 0
10, 67320, Note_on_c, 10, 62, 100
10, 67379, Note_on_c, 10, 62, 0
10, 67380, Note_on_c, 10, 66, 100
10, 67439, Note_on_c, 10, 66, 0
10, 67500, Note_on_c, 10, 69, 100
10, 67559, Note_on_c, 10, 69, 0
10, 67560, Note_on_c, 10, 74, 100
10, 67619, Note_on_c, 10, 74, 0
10, 67680, Note_on_c, 10, 75, 100
10, 67739, Note_on_c, 10, 75, 0
10, 67740, Note_on_c, 10, 72, 100
10, 67799, Note_on_c, 10, 72, 0
10, 67860, Note_on_c, 10, 69, 100
10, 67919, Note_on_c, 10, 69, 0
10, 67920, Note_on_c, 10, 74, 100
10, 67979, Note_on_c, 10, 74, 0
10, 68040, Note_on_c, 10, 74, 100
10, 68099, Note_on_c, 10, 74, 0
10, 68100, Note_on_c, 10, 62, 100
10, 68159, Note_on_c, 10, 62, 0
10, 68220, Note_on_c, 10, 67, 100
10, 68279, Note_on_c, 10, 67, 0
10, 68280, Note_on_c, 10, 70, 100
10, 68339, Note_on_c, 10, 70, 0
10, 68400, Note_on_c, 10, 75, 100
10, 68459, Note_on_c, 10, 75, 0
10, 68460, Note_on_c, 10, 69, 100
10, 68519, Note_on_c, 10, 69, 0
10, 68580, Note_on_c, 10, 66, 100
10, 68639, Note_on_c, 10, 66, 0
10, 68640, Note_on_c, 10, 62, 100
10, 68699, Note_on_c, 10, 62, 0
10, 68760, Note_on_c, 10, 55, 100
10, 68819, Note_on_c, 10, 55, 0
10, 68820, Note_on_c, 10, 67, 100
10, 68879, Note_on_c, 10, 67, 0
10, 68940, Note_on_c, 10, 70, 100
10, 68999, Note_on_c, 10, 70, 0
10, 69000, Note_on_c, 10, 69, 100
10, 69059, Note_on_c, 10, 69, 0
10, 69120, Note_on_c, 10, 70, 100
10, 69179, Note_on_c, 10, 70, 0
10, 69180, Note_on_c, 10, 75, 100
10, 69239, Note_on_c, 10, 75, 0
10, 69300, Note_on_c, 10, 74, 100
10, 69359, Note_on_c, 10, 74, 0
10, 69360, Note_on_c, 10, 72, 100
10, 69390, Control_c, 10, 0, 100
10, 69390, Control_c, 10, 0, 100
10, 69390, Program_c, 10, 48
10, 69419, Note_on_c, 10, 72, 0
10, 69420, Note_on_c, 10, 74, 80
10, 70500, Note_on_c, 10, 74, 0
10, 70500, Note_on_c, 10, 69, 80
10, 71220, Note_on_c, 10, 69, 0
10, 71220, Note_on_c, 10, 68, 80
10, 71940, Note_on_c, 10, 68, 0
10, 71940, Note_on_c, 10, 67, 80
10, 72660, Control_c, 10, 0, 0
10, 72660, Program_c, 10, 45
10, 72720, Note_on_c, 10, 67, 0
10, 72720, Note_on_c, 10, 72, 100
10, 72779, Note_on_c, 10, 72, 0
10, 72780, Note_on_c, 10, 76, 100
10, 72839, Note_on_c, 10, 76, 0
10, 72900, Note_on_c, 10, 77, 100
10, 72959, Note_on_c, 10, 77, 0
10, 72960, Note_on_c, 10, 80, 100
10, 73019, Note_on_c, 10, 80, 0
10, 73080, Note_on_c, 10, 70, 100
10, 73139, Note_on_c, 10, 70, 0
10, 73140, Note_on_c, 10, 74, 100
10, 73199, Note_on_c, 10, 74, 0
10, 73260, Note_on_c, 10, 75, 100
10, 73319, Note_on_c, 10, 75, 0
10, 73320, Note_on_c, 10, 79, 100
10, 73379, Note_on_c, 10, 79, 0
10, 73440, Note_on_c, 10, 75, 100
10, 73499, Note_on_c, 10, 75, 0
10, 73500, Note_on_c, 10, 72, 100
10, 73559, Note_on_c, 10, 72, 0
10, 73620, Note_on_c, 10, 68, 100
10, 73679, Note_on_c, 10, 68, 0
10, 73680, Note_on_c, 10, 63, 100
10, 73739, Note_on_c, 10, 63, 0
10, 73800, Note_on_c, 10, 70, 100
10, 73859, Note_on_c, 10, 70, 0
10, 73860, Note_on_c, 10, 74, 100
10, 73919, Note_on_c, 10, 74, 0
10, 73980, Note_on_c, 10, 75, 100
10, 74039, Note_on_c, 10, 75, 0
10, 74040, Note_on_c, 10, 72, 100
10, 74099, Note_on_c, 10, 72, 0
10, 74160, Note_on_c, 10, 65, 100
10, 74219, Note_on_c, 10, 65, 0
10, 74220, Note_on_c, 10, 70, 100
10, 74279, Note_on_c, 10, 70, 0
10, 74340, Note_on_c, 10, 70, 100
10, 74399, Note_on_c, 10, 70, 0
10, 74400, Note_on_c, 10, 75, 100
10, 74459, Note_on_c, 10, 75, 0
10, 74520, Note_on_c, 10, 74, 100
10, 74579, Note_on_c, 10, 74, 0
10, 74580, Note_on_c, 10, 72, 100
10, 74639, Note_on_c, 10, 72, 0
10, 74700, Note_on_c, 10, 70, 100
10, 74759, Note_on_c, 10, 70, 0
10, 74760, Note_on_c, 10, 77, 100
10, 74819, Note_on_c, 10, 77, 0
10, 74880, Note_on_c, 10, 75, 100
10, 74939, Note_on_c, 10, 75, 0
10, 74940, Note_on_c, 10, 74, 100
10, 74999, Note_on_c, 10, 74, 0
10, 75060, Note_on_c, 10, 75, 100
10, 75119, Note_on_c, 10, 75, 0
10, 75120, Note_on_c, 10, 72, 100
10, 75179, Note_on_c, 10, 72, 0
10, 75240, Note_on_c, 10, 70, 100
10, 75299, Note_on_c, 10, 70, 0
10, 75300, Note_on_c, 10, 74, 100
10, 75359, Note_on_c, 10, 74, 0
10, 75420, Note_on_c, 10, 77, 100
10, 75479, Note_on_c, 10, 77, 0
10, 75480, Note_on_c, 10, 82, 100
10, 75539, Note_on_c, 10, 82, 0
10, 75600, Note_on_c, 10, 72, 100
10, 75659, Note_on_c, 10, 72, 0
10, 75660, Note_on_c, 10, 68, 100
10, 75719, Note_on_c, 10, 68, 0
10, 75780, Note_on_c, 10, 65, 100
10, 75839, Note_on_c, 10, 65, 0
10, 75840, Note_on_c, 10, 70, 100
10, 75899, Note_on_c, 10, 70, 0
10, 75960, Note_on_c, 10, 70, 100
10, 76019, Note_on_c, 10, 70, 0
10, 76020, Note_on_c, 10, 58, 100
10, 76079, Note_on_c, 10, 58, 0
10, 76140, Note_on_c, 10, 63, 100
10, 76199, Note_on_c, 10, 63, 0
10, 76200, Note_on_c, 10, 67, 100
10, 76259, Note_on_c, 10, 67, 0
10, 76320, Note_on_c, 10, 72, 100
10, 76379, Note_on_c, 10, 72, 0
10, 76380, Note_on_c, 10, 65, 100
10, 76439, Note_on_c, 10, 65, 0
10, 76500, Note_on_c, 10, 74, 100
10, 76559, Note_on_c, 10, 74, 0
10, 76560, Note_on_c, 10, 70, 100
10, 76619, Note_on_c, 10, 70, 0
10, 76680, Note_on_c, 10, 75, 100
10, 76739, Note_on_c, 10, 75, 0
10, 76740, Note_on_c, 10, 63, 100
10, 76799, Note_on_c, 10, 63, 0
10, 76860, Note_on_c, 10, 67, 100
10, 76919, Note_on_c, 10, 67, 0
10, 76920, Note_on_c, 10, 65, 100
10, 76979, Note_on_c, 10, 65, 0
10, 77040, Note_on_c, 10, 67, 100
10, 77099, Note_on_c, 10, 67, 0
10, 77100, Note_on_c, 10, 72, 100
10, 77159, Note_on_c, 10, 72, 0
10, 77220, Note_on_c, 10, 70, 100
10, 77279, Note_on_c, 10, 70, 0
10, 77280, Note_on_c, 10, 68, 100
10, 77339, Note_on_c, 10, 68, 0
10, 77400, Note_on_c, 10, 67, 100
10, 77459, Note_on_c, 10, 67, 0
10, 77460, Note_on_c, 10, 63, 100
10, 77519, Note_on_c, 10, 63, 0
10, 77580, Note_on_c, 10, 68, 100
10, 77639, Note_on_c, 10, 68, 0
10, 77640, Note_on_c, 10, 70, 100
10, 77699, Note_on_c, 10, 70, 0
10, 77760, Note_on_c, 10, 72, 100
10, 77819, Note_on_c, 10, 72, 0
10, 77820, Note_on_c, 10, 75, 100
10, 77879, Note_on_c, 10, 75, 0
10, 77940, Note_on_c, 10, 80, 100
10, 77999, Note_on_c, 10, 80, 0
10, 78000, Note_on_c, 10, 79, 100
10, 78059, Note_on_c, 10, 79, 0
10, 78120, Note_on_c, 10, 80, 100
10, 78179, Note_on_c, 10, 80, 0
10, 78180, Note_on_c, 10, 75, 100
10, 78239, Note_on_c, 10, 75, 0
10, 78300, Note_on_c, 10, 72, 100
10, 78359, Note_on_c, 10, 72, 0
10, 78360, Note_on_c, 10, 75, 100
10, 78419, Note_on_c, 10, 75, 0
10, 78420, Note_on_c, 10, 69, 100
10, 78599, Note_on_c, 10, 69, 0
10, 78900, Control_c, 10, 0, 100
10, 78900, Control_c, 10, 0, 100
10, 78900, Program_c, 10, 48
10, 78960, Note_on_c, 10, 74, 100
10, 78960, Note_on_c, 10, 78, 100
10, 79139, Note_on_c, 10, 78, 0
10, 79139, Note_on_c, 10, 74, 0
10, 79140, Note_on_c, 10, 74, 100
10, 79140, Note_on_c, 10, 79, 100
10, 79499, Note_on_c, 10, 79, 0
10, 79499, Note_on_c, 10, 74, 0
10, 79499, End_track
11, 0, Start_track
11, 0, MIDI_port, 0
11, 0, Title_t, "Violin II Pizz"
11, 0, Program_c, 11, 45
11, 52920, Note_on_c, 11, 70, 100
11, 52979, Note_on_c, 11, 70, 0
11, 52980, Note_on_c, 11, 68, 100
11, 53039, Note_on_c, 11, 68, 0
11, 53100, Note_on_c, 11, 70, 100
11, 53159, Note_on_c, 11, 70, 0
11, 53160, Note_on_c, 11, 68, 100
11, 53219, Note_on_c, 11, 68, 0
11, 53280, Note_on_c, 11, 58, 100
11, 53339, Note_on_c, 11, 58, 0
11, 53340, Note_on_c, 11, 62, 100
11, 53399, Note_on_c, 11, 62, 0
11, 53460, Note_on_c, 11, 65, 100
11, 53519, Note_on_c, 11, 65, 0
11, 53520, Note_on_c, 11, 70, 100
11, 53579, Note_on_c, 11, 70, 0
11, 53640, Note_on_c, 11, 65, 100
11, 53699, Note_on_c, 11, 65, 0
11, 53700, Note_on_c, 11, 68, 100
11, 53759, Note_on_c, 11, 68, 0
11, 53820, Note_on_c, 11, 70, 100
11, 53879, Note_on_c, 11, 70, 0
11, 53880, Note_on_c, 11, 65, 100
11, 53939, Note_on_c, 11, 65, 0
11, 54000, Note_on_c, 11, 63, 100
11, 54059, Note_on_c, 11, 63, 0
11, 54060, Note_on_c, 11, 58, 100
11, 54119, Note_on_c, 11, 58, 0
11, 54180, Note_on_c, 11, 60, 100
11, 54239, Note_on_c, 11, 60, 0
11, 54240, Note_on_c, 11, 69, 100
11, 54299, Note_on_c, 11, 69, 0
11, 54360, Note_on_c, 11, 65, 100
11, 54420, Note_on_c, 11, 65, 0
11, 54420, Note_on_c, 11, 63, 100
11, 54480, Note_on_c, 11, 63, 0
11, 54540, Note_on_c, 11, 62, 100
11, 54600, Note_on_c, 11, 62, 0
11, 54600, Note_on_c, 11, 58, 100
11, 54660, Note_on_c, 11, 58, 0
11, 54720, Note_on_c, 11, 60, 100
11, 54780, Note_on_c, 11, 60, 0
11, 54780, Note_on_c, 11, 63, 100
11, 54840, Note_on_c, 11, 63, 0
11, 54900, Note_on_c, 11, 65, 100
11, 54960, Note_on_c, 11, 65, 0
11, 54960, Note_on_c, 11, 58, 100
11, 55020, Note_on_c, 11, 58, 0
11, 55080, Note_on_c, 11, 72, 100
11, 55140, Note_on_c, 11, 72, 0
11, 55140, Note_on_c, 11, 67, 100
11, 55200, Note_on_c, 11, 67, 0
11, 55260, Note_on_c, 11, 65, 100
11, 55320, Note_on_c, 11, 65, 0
11, 55320, Note_on_c, 11, 72, 100
11, 55380, Note_on_c, 11, 72, 0
11, 55440, Note_on_c, 11, 70, 100
11, 55500, Note_on_c, 11, 70, 0
11, 55500, Note_on_c, 11, 74, 100
11, 55560, Note_on_c, 11, 74, 0
11, 55620, Note_on_c, 11, 67, 100
11, 55680, Note_on_c, 11, 67, 0
11, 55680, Note_on_c, 11, 72, 100
11, 55740, Note_on_c, 11, 72, 0
11, 55800, Note_on_c, 11, 68, 100
11, 55860, Note_on_c, 11, 68, 0
11, 55860, Note_on_c, 11, 65, 100
11, 55920, Note_on_c, 11, 65, 0
11, 55980, Note_on_c, 11, 67, 100
11, 56040, Note_on_c, 11, 67, 0
11, 56040, Note_on_c, 11, 71, 100
11, 56100, Note_on_c, 11, 71, 0
11, 56160, Note_on_c, 11, 72, 100
11, 56220, Note_on_c, 11, 72, 0
11, 56220, Note_on_c, 11, 67, 100
11, 56280, Note_on_c, 11, 67, 0
11, 56340, Note_on_c, 11, 72, 100
11, 56400, Note_on_c, 11, 72, 0
11, 56400, Note_on_c, 11, 77, 100
11, 56460, Note_on_c, 11, 77, 0
11, 56520, Note_on_c, 11, 74, 100
11, 56580, Note_on_c, 11, 74, 0
11, 56580, Note_on_c, 11, 71, 100
11, 56640, Note_on_c, 11, 71, 0
11, 56700, Note_on_c, 11, 67, 100
11, 56760, Note_on_c, 11, 67, 0
11, 56760, Note_on_c, 11, 72, 100
11, 56820, Note_on_c, 11, 72, 0
11, 56880, Note_on_c, 11, 71, 100
11, 56940, Note_on_c, 11, 71, 0
11, 56940, Note_on_c, 11, 67, 100
11, 57000, Note_on_c, 11, 67, 0
11, 57060, Note_on_c, 11, 62, 100
11, 57120, Note_on_c, 11, 62, 0
11, 57120, Note_on_c, 11, 67, 100
11, 57180, Note_on_c, 11, 67, 0
11, 57240, Note_on_c, 11, 65, 100
11, 57300, Note_on_c, 11, 65, 0
11, 57300, Note_on_c, 11, 68, 100
11, 57360, Note_on_c, 11, 68, 0
11, 57420, Note_on_c, 11, 62, 100
11, 57480, Note_on_c, 11, 62, 0
11, 57480, Note_on_c, 11, 67, 100
11, 57540, Note_on_c, 11, 67, 0
11, 57600, Note_on_c, 11, 67, 100
11, 57660, Note_on_c, 11, 67, 0
11, 57660, Note_on_c, 11, 65, 100
11, 57720, Note_on_c, 11, 65, 0
11, 57780, Note_on_c, 11, 67, 100
11, 57840, Note_on_c, 11, 67, 0
11, 57840, Note_on_c, 11, 65, 100
11, 57900, Note_on_c, 11, 65, 0
11, 57960, Note_on_c, 11, 62, 100
11, 58019, Note_on_c, 11, 62, 0
11, 58020, Note_on_c, 11, 65, 100
11, 58079, Note_on_c, 11, 65, 0
11, 58140, Note_on_c, 11, 67, 100
11, 58199, Note_on_c, 11, 67, 0
11, 58200, Note_on_c, 11, 60, 100
11, 58259, Note_on_c, 11, 60, 0
11, 58320, Note_on_c, 11, 62, 100
11, 58379, Note_on_c, 11, 62, 0
11, 58380, Note_on_c, 11, 68, 100
11, 58439, Note_on_c, 11, 68, 0
11, 58500, Note_on_c, 11, 67, 100
11, 58559, Note_on_c, 11, 67, 0
11, 58560, Note_on_c, 11, 74, 100
11, 58619, Note_on_c, 11, 74, 0
11, 58680, Note_on_c, 11, 75, 100
11, 58739, Note_on_c, 11, 75, 0
11, 58740, Note_on_c, 11, 74, 100
11, 58799, Note_on_c, 11, 74, 0
11, 58860, Note_on_c, 11, 72, 100
11, 58919, Note_on_c, 11, 72, 0
11, 58920, Note_on_c, 11, 70, 100
11, 58979, Note_on_c, 11, 70, 0
11, 59040, Note_on_c, 11, 68, 100
11, 59099, Note_on_c, 11, 68, 0
11, 59100, Note_on_c, 11, 65, 100
11, 59159, Note_on_c, 11, 65, 0
11, 59220, Note_on_c, 11, 63, 100
11, 59279, Note_on_c, 11, 63, 0
11, 59280, Note_on_c, 11, 72, 100
11, 59339, Note_on_c, 11, 72, 0
11, 59400, Note_on_c, 11, 72, 100
11, 59459, Note_on_c, 11, 72, 0
11, 59460, Note_on_c, 11, 60, 100
11, 59519, Note_on_c, 11, 60, 0
11, 59580, Note_on_c, 11, 67, 100
11, 59639, Note_on_c, 11, 67, 0
11, 59640, Note_on_c, 11, 62, 100
11, 59699, Note_on_c, 11, 62, 0
11, 59760, Note_on_c, 11, 67, 100
11, 59819, Note_on_c, 11, 67, 0
11, 59820, Note_on_c, 11, 72, 100
11, 59879, Note_on_c, 11, 72, 0
11, 59940, Note_on_c, 11, 71, 100
11, 59999, Note_on_c, 11, 71, 0
11, 60000, Note_on_c, 11, 74, 100
11, 60059, Note_on_c, 11, 74, 0
11, 60120, Note_on_c, 11, 72, 100
11, 60179, Note_on_c, 11, 72, 0
11, 60180, Note_on_c, 11, 75, 100
11, 60239, Note_on_c, 11, 75, 0
11, 60300, Note_on_c, 11, 65, 100
11, 60359, Note_on_c, 11, 65, 0
11, 60360, Note_on_c, 11, 67, 100
11, 60419, Note_on_c, 11, 67, 0
11, 60480, Note_on_c, 11, 72, 100
11, 60539, Note_on_c, 11, 72, 0
11, 60540, Note_on_c, 11, 69, 100
11, 60599, Note_on_c, 11, 69, 0
11, 60660, Note_on_c, 11, 57, 100
11, 60719, Note_on_c, 11, 57, 0
11, 60720, Note_on_c, 11, 60, 100
11, 60779, Note_on_c, 11, 60, 0
11, 60840, Note_on_c, 11, 65, 100
11, 60899, Note_on_c, 11, 65, 0
11, 60900, Note_on_c, 11, 62, 100
11, 60959, Note_on_c, 11, 62, 0
11, 61020, Note_on_c, 11, 67, 100
11, 61079, Note_on_c, 11, 67, 0
11, 61080, Note_on_c, 11, 68, 100
11, 61139, Note_on_c, 11, 68, 0
11, 61200, Note_on_c, 11, 70, 100
11, 61259, Note_on_c, 11, 70, 0
11, 61260, Note_on_c, 11, 67, 100
11, 61319, Note_on_c, 11, 67, 0
11, 61380, Note_on_c, 11, 67, 100
11, 61439, Note_on_c, 11, 67, 0
11, 61440, Note_on_c, 11, 63, 100
11, 61499, Note_on_c, 11, 63, 0
11, 61560, Note_on_c, 11, 65, 100
11, 61619, Note_on_c, 11, 65, 0
11, 61620, Note_on_c, 11, 69, 100
11, 61679, Note_on_c, 11, 69, 0
11, 61740, Note_on_c, 11, 70, 100
11, 61799, Note_on_c, 11, 70, 0
11, 61800, Note_on_c, 11, 72, 100
11, 61859, Note_on_c, 11, 72, 0
11, 61920, Note_on_c, 11, 70, 100
11, 61979, Note_on_c, 11, 70, 0
11, 61980, Note_on_c, 11, 74, 100
11, 62039, Note_on_c, 11, 74, 0
11, 62100, Note_on_c, 11, 70, 100
11, 62159, Note_on_c, 11, 70, 0
11, 62160, Note_on_c, 11, 67, 100
11, 62219, Note_on_c, 11, 67, 0
11, 62280, Note_on_c, 11, 72, 100
11, 62339, Note_on_c, 11, 72, 0
11, 62340, Note_on_c, 11, 60, 100
11, 62399, Note_on_c, 11, 60, 0
11, 62460, Note_on_c, 11, 65, 100
11, 62519, Note_on_c, 11, 65, 0
11, 62520, Note_on_c, 11, 63, 100
11, 62579, Note_on_c, 11, 63, 0
11, 62640, Note_on_c, 11, 63, 100
11, 62699, Note_on_c, 11, 63, 0
11, 62700, Note_on_c, 11, 60, 100
11, 62759, Note_on_c, 11, 60, 0
11, 62820, Note_on_c, 11, 60, 100
11, 62879, Note_on_c, 11, 60, 0
11, 62880, Note_on_c, 11, 65, 100
11, 62939, Note_on_c, 11, 65, 0
11, 63000, Note_on_c, 11, 60, 100
11, 63059, Note_on_c, 11, 60, 0
11, 63060, Note_on_c, 11, 63, 100
11, 63119, Note_on_c, 11, 63, 0
11, 63180, Note_on_c, 11, 65, 100
11, 63239, Note_on_c, 11, 65, 0
11, 63240, Note_on_c, 11, 60, 100
11, 63299, Note_on_c, 11, 60, 0
11, 63360, Note_on_c, 11, 65, 100
11, 63419, Note_on_c, 11, 65, 0
11, 63420, Note_on_c, 11, 70, 100
11, 63479, Note_on_c, 11, 70, 0
11, 63540, Note_on_c, 11, 67, 100
11, 63599, Note_on_c, 11, 67, 0
11, 63600, Note_on_c, 11, 64, 100
11, 63659, Note_on_c, 11, 64, 0
11, 63720, Note_on_c, 11, 60, 100
11, 63779, Note_on_c, 11, 60, 0
11, 63780, Note_on_c, 11, 58, 100
11, 63839, Note_on_c, 11, 58, 0
11, 63900, Note_on_c, 11, 56, 100
11, 63959, Note_on_c, 11, 56, 0
11, 63960, Note_on_c, 11, 65, 100
11, 64019, Note_on_c, 11, 65, 0
11, 64080, Note_on_c, 11, 55, 100
11, 64139, Note_on_c, 11, 55, 0
11, 64140, Note_on_c, 11, 60, 100
11, 64199, Note_on_c, 11, 60, 0
11, 64260, Note_on_c, 11, 72, 100
11, 64319, Note_on_c, 11, 72, 0
11, 64320, Note_on_c, 11, 65, 100
11, 64379, Note_on_c, 11, 65, 0
11, 64440, Note_on_c, 11, 67, 100
11, 64499, Note_on_c, 11, 67, 0
11, 64500, Note_on_c, 11, 73, 100
11, 64559, Note_on_c, 11, 73, 0
11, 64620, Note_on_c, 11, 72, 100
11, 64679, Note_on_c, 11, 72, 0
11, 64680, Note_on_c, 11, 67, 100
11, 64739, Note_on_c, 11, 67, 0
11, 64800, Note_on_c, 11, 65, 100
11, 64859, Note_on_c, 11, 65, 0
11, 64860, Note_on_c, 11, 68, 100
11, 64919, Note_on_c, 11, 68, 0
11, 64980, Note_on_c, 11, 62, 100
11, 65039, Note_on_c, 11, 62, 0
11, 65040, Note_on_c, 11, 67, 100
11, 65099, Note_on_c, 11, 67, 0
11, 65160, Note_on_c, 11, 63, 100
11, 65219, Note_on_c, 11, 63, 0
11, 65220, Note_on_c, 11, 60, 100
11, 65279, Note_on_c, 11, 60, 0
11, 65340, Note_on_c, 11, 62, 100
11, 65399, Note_on_c, 11, 62, 0
11, 65400, Note_on_c, 11, 66, 100
11, 65459, Note_on_c, 11, 66, 0
11, 65520, Note_on_c, 11, 67, 100
11, 65579, Note_on_c, 11, 67, 0
11, 65580, Note_on_c, 11, 62, 100
11, 65639, Note_on_c, 11, 62, 0
11, 65700, Note_on_c, 11, 67, 100
11, 65759, Note_on_c, 11, 67, 0
11, 65760, Note_on_c, 11, 72, 100
11, 65819, Note_on_c, 11, 72, 0
11, 65880, Note_on_c, 11, 69, 100
11, 65939, Note_on_c, 11, 69, 0
11, 65940, Note_on_c, 11, 66, 100
11, 65999, Note_on_c, 11, 66, 0
11, 66060, Note_on_c, 11, 62, 100
11, 66119, Note_on_c, 11, 62, 0
11, 66120, Note_on_c, 11, 67, 100
11, 66179, Note_on_c, 11, 67, 0
11, 66240, Note_on_c, 11, 66, 100
11, 66299, Note_on_c, 11, 66, 0
11, 66300, Note_on_c, 11, 62, 100
11, 66359, Note_on_c, 11, 62, 0
11, 66420, Note_on_c, 11, 57, 100
11, 66479, Note_on_c, 11, 57, 0
11, 66480, Note_on_c, 11, 62, 100
11, 66539, Note_on_c, 11, 62, 0
11, 66600, Note_on_c, 11, 60, 100
11, 66659, Note_on_c, 11, 60, 0
11, 66660, Note_on_c, 11, 63, 100
11, 66719, Note_on_c, 11, 63, 0
11, 66780, Note_on_c, 11, 57, 100
11, 66839, Note_on_c, 11, 57, 0
11, 66840, Note_on_c, 11, 62, 100
11, 66899, Note_on_c, 11, 62, 0
11, 66960, Note_on_c, 11, 62, 100
11, 67019, Note_on_c, 11, 62, 0
11, 67020, Note_on_c, 11, 60, 100
11, 67079, Note_on_c, 11, 60, 0
11, 67140, Note_on_c, 11, 62, 100
11, 67199, Note_on_c, 11, 62, 0
11, 67200, Note_on_c, 11, 60, 100
11, 67259, Note_on_c, 11, 60, 0
11, 67320, Note_on_c, 11, 57, 100
11, 67379, Note_on_c, 11, 57, 0
11, 67380, Note_on_c, 11, 60, 100
11, 67439, Note_on_c, 11, 60, 0
11, 67500, Note_on_c, 11, 62, 100
11, 67559, Note_on_c, 11, 62, 0
11, 67560, Note_on_c, 11, 55, 100
11, 67619, Note_on_c, 11, 55, 0
11, 67680, Note_on_c, 11, 57, 100
11, 67739, Note_on_c, 11, 57, 0
11, 67740, Note_on_c, 11, 63, 100
11, 67799, Note_on_c, 11, 63, 0
11, 67860, Note_on_c, 11, 62, 100
11, 67919, Note_on_c, 11, 62, 0
11, 67920, Note_on_c, 11, 69, 100
11, 67979, Note_on_c, 11, 69, 0
11, 68040, Note_on_c, 11, 70, 100
11, 68099, Note_on_c, 11, 70, 0
11, 68100, Note_on_c, 11, 69, 100
11, 68159, Note_on_c, 11, 69, 0
11, 68220, Note_on_c, 11, 67, 100
11, 68279, Note_on_c, 11, 67, 0
11, 68280, Note_on_c, 11, 65, 100
11, 68339, Note_on_c, 11, 65, 0
11, 68400, Note_on_c, 11, 63, 100
11, 68459, Note_on_c, 11, 63, 0
11, 68460, Note_on_c, 11, 60, 100
11, 68519, Note_on_c, 11, 60, 0
11, 68580, Note_on_c, 11, 58, 100
11, 68639, Note_on_c, 11, 58, 0
11, 68640, Note_on_c, 11, 67, 100
11, 68699, Note_on_c, 11, 67, 0
11, 68760, Note_on_c, 11, 67, 100
11, 68819, Note_on_c, 11, 67, 0
11, 68820, Note_on_c, 11, 55, 100
11, 68879, Note_on_c, 11, 55, 0
11, 68940, Note_on_c, 11, 62, 100
11, 68999, Note_on_c, 11, 62, 0
11, 69000, Note_on_c, 11, 57, 100
11, 69059, Note_on_c, 11, 57, 0
11, 69120, Note_on_c, 11, 62, 100
11, 69179, Note_on_c, 11, 62, 0
11, 69180, Note_on_c, 11, 67, 100
11, 69239, Note_on_c, 11, 67, 0
11, 69300, Note_on_c, 11, 66, 100
11, 69359, Note_on_c, 11, 66, 0
11, 69360, Note_on_c, 11, 69, 100
11, 69405, Control_c, 11, 0, 100
11, 69405, Control_c, 11, 0, 100
11, 69405, Program_c, 11, 48
11, 69419, Note_on_c, 11, 69, 0
11, 69420, Note_on_c, 11, 67, 80
11, 70500, Note_on_c, 11, 67, 0
11, 70500, Note_on_c, 11, 65, 80
11, 71940, Note_on_c, 11, 65, 0
11, 71940, Note_on_c, 11, 63, 80
11, 72660, Control_c, 11, 0, 100
11, 72660, Program_c, 11, 45
11, 72720, Note_on_c, 11, 63, 0
11, 72720, Note_on_c, 11, 63, 100
11, 72779, Note_on_c, 11, 63, 0
11, 72780, Note_on_c, 11, 67, 100
11, 72839, Note_on_c, 11, 67, 0
11, 72900, Note_on_c, 11, 72, 100
11, 72959, Note_on_c, 11, 72, 0
11, 72960, Note_on_c, 11, 77, 100
11, 73019, Note_on_c, 11, 77, 0
11, 73080, Note_on_c, 11, 65, 100
11, 73139, Note_on_c, 11, 65, 0
11, 73140, Note_on_c, 11, 70, 100
11, 73199, Note_on_c, 11, 70, 0
11, 73260, Note_on_c, 11, 70, 100
11, 73319, Note_on_c, 11, 70, 0
11, 73320, Note_on_c, 11, 75, 100
11, 73379, Note_on_c, 11, 75, 0
11, 73440, Note_on_c, 11, 72, 100
11, 73499, Note_on_c, 11, 72, 0
11, 73500, Note_on_c, 11, 68, 100
11, 73559, Note_on_c, 11, 68, 0
11, 73620, Note_on_c, 11, 63, 100
11, 73679, Note_on_c, 11, 63, 0
11, 73680, Note_on_c, 11, 60, 100
11, 73739, Note_on_c, 11, 60, 0
11, 73800, Note_on_c, 11, 65, 100
11, 73859, Note_on_c, 11, 65, 0
11, 73860, Note_on_c, 11, 70, 100
11, 73919, Note_on_c, 11, 70, 0
11, 73980, Note_on_c, 11, 70, 100
11, 74039, Note_on_c, 11, 70, 0
11, 74040, Note_on_c, 11, 68, 100
11, 74099, Note_on_c, 11, 68, 0
11, 74160, Note_on_c, 11, 58, 100
11, 74219, Note_on_c, 11, 58, 0
11, 74220, Note_on_c, 11, 62, 100
11, 74279, Note_on_c, 11, 62, 0
11, 74340, Note_on_c, 11, 65, 100
11, 74399, Note_on_c, 11, 65, 0
11, 74400, Note_on_c, 11, 70, 100
11, 74459, Note_on_c, 11, 70, 0
11, 74520, Note_on_c, 11, 65, 100
11, 74579, Note_on_c, 11, 65, 0
11, 74580, Note_on_c, 11, 68, 100
11, 74639, Note_on_c, 11, 68, 0
11, 74700, Note_on_c, 11, 70, 100
11, 74759, Note_on_c, 11, 70, 0
11, 74760, Note_on_c, 11, 65, 100
11, 74819, Note_on_c, 11, 65, 0
11, 74880, Note_on_c, 11, 70, 100
11, 74939, Note_on_c, 11, 70, 0
11, 74940, Note_on_c, 11, 68, 100
11, 74999, Note_on_c, 11, 68, 0
11, 75060, Note_on_c, 11, 70, 100
11, 75119, Note_on_c, 11, 70, 0
11, 75120, Note_on_c, 11, 68, 100
11, 75179, Note_on_c, 11, 68, 0
11, 75240, Note_on_c, 11, 65, 100
11, 75299, Note_on_c, 11, 65, 0
11, 75300, Note_on_c, 11, 68, 100
11, 75359, Note_on_c, 11, 68, 0
11, 75420, Note_on_c, 11, 70, 100
11, 75479, Note_on_c, 11, 70, 0
11, 75480, Note_on_c, 11, 63, 100
11, 75539, Note_on_c, 11, 63, 0
11, 75600, Note_on_c, 11, 65, 100
11, 75659, Note_on_c, 11, 65, 0
11, 75660, Note_on_c, 11, 72, 100
11, 75719, Note_on_c, 11, 72, 0
11, 75780, Note_on_c, 11, 70, 100
11, 75839, Note_on_c, 11, 70, 0
11, 75840, Note_on_c, 11, 77, 100
11, 75899, Note_on_c, 11, 77, 0
11, 75960, Note_on_c, 11, 79, 100
11, 76019, Note_on_c, 11, 79, 0
11, 76020, Note_on_c, 11, 77, 100
11, 76079, Note_on_c, 11, 77, 0
11, 76140, Note_on_c, 11, 75, 100
11, 76199, Note_on_c, 11, 75, 0
11, 76200, Note_on_c, 11, 74, 100
11, 76259, Note_on_c, 11, 74, 0
11, 76320, Note_on_c, 11, 72, 100
11, 76379, Note_on_c, 11, 72, 0
11, 76380, Note_on_c, 11, 68, 100
11, 76439, Note_on_c, 11, 68, 0
11, 76500, Note_on_c, 11, 67, 100
11, 76559, Note_on_c, 11, 67, 0
11, 76560, Note_on_c, 11, 65, 100
11, 76619, Note_on_c, 11, 65, 0
11, 76680, Note_on_c, 11, 63, 100
11, 76739, Note_on_c, 11, 63, 0
11, 76740, Note_on_c, 11, 75, 100
11, 76799, Note_on_c, 11, 75, 0
11, 76860, Note_on_c, 11, 58, 100
11, 76919, Note_on_c, 11, 58, 0
11, 76920, Note_on_c, 11, 65, 100
11, 76979, Note_on_c, 11, 65, 0
11, 77040, Note_on_c, 11, 58, 100
11, 77099, Note_on_c, 11, 58, 0
11, 77100, Note_on_c, 11, 63, 100
11, 77159, Note_on_c, 11, 63, 0
11, 77220, Note_on_c, 11, 62, 100
11, 77279, Note_on_c, 11, 62, 0
11, 77280, Note_on_c, 11, 65, 100
11, 77339, Note_on_c, 11, 65, 0
11, 77400, Note_on_c, 11, 63, 100
11, 77459, Note_on_c, 11, 63, 0
11, 77460, Note_on_c, 11, 58, 100
11, 77519, Note_on_c, 11, 58, 0
11, 77580, Note_on_c, 11, 65, 100
11, 77639, Note_on_c, 11, 65, 0
11, 77640, Note_on_c, 11, 63, 100
11, 77699, Note_on_c, 11, 63, 0
11, 77760, Note_on_c, 11, 63, 100
11, 77819, Note_on_c, 11, 63, 0
11, 77820, Note_on_c, 11, 68, 100
11, 77879, Note_on_c, 11, 68, 0
11, 77940, Note_on_c, 11, 72, 100
11, 77999, Note_on_c, 11, 72, 0
11, 78000, Note_on_c, 11, 75, 100
11, 78059, Note_on_c, 11, 75, 0
11, 78120, Note_on_c, 11, 75, 100
11, 78179, Note_on_c, 11, 75, 0
11, 78180, Note_on_c, 11, 72, 100
11, 78239, Note_on_c, 11, 72, 0
11, 78300, Note_on_c, 11, 68, 100
11, 78359, Note_on_c, 11, 68, 0
11, 78360, Note_on_c, 11, 72, 100
11, 78419, Note_on_c, 11, 72, 0
11, 78420, Note_on_c, 11, 72, 100
11, 78599, Note_on_c, 11, 72, 0
11, 78780, Control_c, 11, 0, 0
11, 78780, Control_c, 11, 0, 0
11, 78780, Program_c, 11, 48
11, 78960, Note_on_c, 11, 72, 100
11, 78960, Note_on_c, 11, 69, 100
11, 79139, Note_on_c, 11, 69, 0
11, 79139, Note_on_c, 11, 72, 0
11, 79140, Note_on_c, 11, 67, 100
11, 79140, Note_on_c, 11, 71, 100
11, 79499, Note_on_c, 11, 71, 0
11, 79499, Note_on_c, 11, 67, 0
11, 79499, End_track
12, 0, Start_track
12, 0, MIDI_port, 0
12, 0, Title_t, "Viola Pizz"
12, 0, Program_c, 12, 45
12, 52920, Note_on_c, 12, 67, 100
12, 52979, Note_on_c, 12, 67, 0
12, 52980, Note_on_c, 12, 65, 100
12, 53039, Note_on_c, 12, 65, 0
12, 53100, Note_on_c, 12, 63, 100
12, 53159, Note_on_c, 12, 63, 0
12, 53160, Note_on_c, 12, 63, 100
12, 53219, Note_on_c, 12, 63, 0
12, 53280, Note_on_c, 12, 62, 100
12, 53339, Note_on_c, 12, 62, 0
12, 53340, Note_on_c, 12, 65, 100
12, 53399, Note_on_c, 12, 65, 0
12, 53460, Note_on_c, 12, 62, 100
12, 53519, Note_on_c, 12, 62, 0
12, 53520, Note_on_c, 12, 58, 100
12, 53579, Note_on_c, 12, 58, 0
12, 53640, Note_on_c, 12, 56, 100
12, 53699, Note_on_c, 12, 56, 0
12, 53700, Note_on_c, 12, 60, 100
12, 53759, Note_on_c, 12, 60, 0
12, 53820, Note_on_c, 12, 62, 100
12, 53879, Note_on_c, 12, 62, 0
12, 53880, Note_on_c, 12, 65, 100
12, 53939, Note_on_c, 12, 65, 0
12, 54000, Note_on_c, 12, 58, 100
12, 54059, Note_on_c, 12, 58, 0
12, 54060, Note_on_c, 12, 62, 100
12, 54119, Note_on_c, 12, 62, 0
12, 54180, Note_on_c, 12, 62, 100
12, 54239, Note_on_c, 12, 62, 0
12, 54240, Note_on_c, 12, 63, 100
12, 54299, Note_on_c, 12, 63, 0
12, 54360, Note_on_c, 12, 62, 100
12, 54420, Note_on_c, 12, 62, 0
12, 54420, Note_on_c, 12, 63, 100
12, 54480, Note_on_c, 12, 63, 0
12, 54540, Note_on_c, 12, 65, 100
12, 54600, Note_on_c, 12, 65, 0
12, 54600, Note_on_c, 12, 63, 100
12, 54660, Note_on_c, 12, 63, 0
12, 54720, Note_on_c, 12, 57, 100
12, 54780, Note_on_c, 12, 57, 0
12, 54780, Note_on_c, 12, 60, 100
12, 54840, Note_on_c, 12, 60, 0
12, 54900, Note_on_c, 12, 65, 100
12, 54960, Note_on_c, 12, 65, 0
12, 54960, Note_on_c, 12, 53, 100
12, 55020, Note_on_c, 12, 53, 0
12, 55080, Note_on_c, 12, 55, 100
12, 55140, Note_on_c, 12, 55, 0
12, 55140, Note_on_c, 12, 60, 100
12, 55200, Note_on_c, 12, 60, 0
12, 55260, Note_on_c, 12, 60, 100
12, 55320, Note_on_c, 12, 60, 0
12, 55320, Note_on_c, 12, 57, 100
12, 55380, Note_on_c, 12, 57, 0
12, 55440, Note_on_c, 12, 65, 100
12, 55500, Note_on_c, 12, 65, 0
12, 55500, Note_on_c, 12, 62, 100
12, 55560, Note_on_c, 12, 62, 0
12, 55620, Note_on_c, 12, 64, 100
12, 55680, Note_on_c, 12, 64, 0
12, 55680, Note_on_c, 12, 67, 100
12, 55740, Note_on_c, 12, 67, 0
12, 55800, Note_on_c, 12, 65, 100
12, 55860, Note_on_c, 12, 65, 0
12, 55860, Note_on_c, 12, 60, 100
12, 55920, Note_on_c, 12, 60, 0
12, 55980, Note_on_c, 12, 59, 100
12, 56040, Note_on_c, 12, 59, 0
12, 56040, Note_on_c, 12, 62, 100
12, 56100, Note_on_c, 12, 62, 0
12, 56160, Note_on_c, 12, 55, 100
12, 56220, Note_on_c, 12, 55, 0
12, 56220, Note_on_c, 12, 60, 100
12, 56280, Note_on_c, 12, 60, 0
12, 56340, Note_on_c, 12, 60, 100
12, 56400, Note_on_c, 12, 60, 0
12, 56400, Note_on_c, 12, 62, 100
12, 56460, Note_on_c, 12, 62, 0
12, 56520, Note_on_c, 12, 62, 100
12, 56580, Note_on_c, 12, 62, 0
12, 56580, Note_on_c, 12, 67, 100
12, 56640, Note_on_c, 12, 67, 0
12, 56700, Note_on_c, 12, 60, 100
12, 56760, Note_on_c, 12, 60, 0
12, 56760, Note_on_c, 12, 55, 100
12, 56820, Note_on_c, 12, 55, 0
12, 56880, Note_on_c, 12, 67, 100
12, 56940, Note_on_c, 12, 67, 0
12, 56940, Note_on_c, 12, 55, 100
12, 57000, Note_on_c, 12, 55, 0
12, 57060, Note_on_c, 12, 62, 100
12, 57120, Note_on_c, 12, 62, 0
12, 57120, Note_on_c, 12, 60, 100
12, 57180, Note_on_c, 12, 60, 0
12, 57240, Note_on_c, 12, 68, 100
12, 57300, Note_on_c, 12, 68, 0
12, 57300, Note_on_c, 12, 65, 100
12, 57360, Note_on_c, 12, 65, 0
12, 57420, Note_on_c, 12, 62, 100
12, 57480, Note_on_c, 12, 62, 0
12, 57480, Note_on_c, 12, 59, 100
12, 57540, Note_on_c, 12, 59, 0
12, 57600, Note_on_c, 12, 55, 100
12, 57660, Note_on_c, 12, 55, 0
12, 57660, Note_on_c, 12, 62, 100
12, 57720, Note_on_c, 12, 62, 0
12, 57780, Note_on_c, 12, 60, 100
12, 57840, Note_on_c, 12, 60, 0
12, 57840, Note_on_c, 12, 60, 100
12, 57900, Note_on_c, 12, 60, 0
12, 57960, Note_on_c, 12, 55, 100
12, 58019, Note_on_c, 12, 55, 0
12, 58020, Note_on_c, 12, 62, 100
12, 58079, Note_on_c, 12, 62, 0
12, 58140, Note_on_c, 12, 67, 100
12, 58199, Note_on_c, 12, 67, 0
12, 58200, Note_on_c, 12, 55, 100
12, 58259, Note_on_c, 12, 55, 0
12, 58320, Note_on_c, 12, 65, 100
12, 58379, Note_on_c, 12, 65, 0
12, 58380, Note_on_c, 12, 62, 100
12, 58439, Note_on_c, 12, 62, 0
12, 58500, Note_on_c, 12, 62, 100
12, 58559, Note_on_c, 12, 62, 0
12, 58560, Note_on_c, 12, 59, 100
12, 58619, Note_on_c, 12, 59, 0
12, 58680, Note_on_c, 12, 55, 100
12, 58739, Note_on_c, 12, 55, 0
12, 58740, Note_on_c, 12, 58, 100
12, 58799, Note_on_c, 12, 58, 0
12, 58860, Note_on_c, 12, 60, 100
12, 58919, Note_on_c, 12, 60, 0
12, 58920, Note_on_c, 12, 67, 100
12, 58979, Note_on_c, 12, 67, 0
12, 59040, Note_on_c, 12, 62, 100
12, 59099, Note_on_c, 12, 62, 0
12, 59100, Note_on_c, 12, 68, 100
12, 59159, Note_on_c, 12, 68, 0
12, 59220, Note_on_c, 12, 63, 100
12, 59279, Note_on_c, 12, 63, 0
12, 59280, Note_on_c, 12, 67, 100
12, 59339, Note_on_c, 12, 67, 0
12, 59400, Note_on_c, 12, 68, 100
12, 59459, Note_on_c, 12, 68, 0
12, 59460, Note_on_c, 12, 65, 100
12, 59519, Note_on_c, 12, 65, 0
12, 59580, Note_on_c, 12, 72, 100
12, 59639, Note_on_c, 12, 72, 0
12, 59640, Note_on_c, 12, 68, 100
12, 59699, Note_on_c, 12, 68, 0
12, 59760, Note_on_c, 12, 72, 100
12, 59819, Note_on_c, 12, 72, 0
12, 59820, Note_on_c, 12, 68, 100
12, 59879, Note_on_c, 12, 68, 0
12, 59940, Note_on_c, 12, 62, 100
12, 59999, Note_on_c, 12, 62, 0
12, 60000, Note_on_c, 12, 67, 100
12, 60059, Note_on_c, 12, 67, 0
12, 60120, Note_on_c, 12, 67, 100
12, 60179, Note_on_c, 12, 67, 0
12, 60180, Note_on_c, 12, 63, 100
12, 60239, Note_on_c, 12, 63, 0
12, 60300, Note_on_c, 12, 63, 100
12, 60359, Note_on_c, 12, 63, 0
12, 60360, Note_on_c, 12, 58, 100
12, 60419, Note_on_c, 12, 58, 0
12, 60480, Note_on_c, 12, 65, 100
12, 60539, Note_on_c, 12, 65, 0
12, 60540, Note_on_c, 12, 60, 100
12, 60599, Note_on_c, 12, 60, 0
12, 60660, Note_on_c, 12, 65, 100
12, 60719, Note_on_c, 12, 65, 0
12, 60720, Note_on_c, 12, 63, 100
12, 60779, Note_on_c, 12, 63, 0
12, 60840, Note_on_c, 12, 70, 100
12, 60899, Note_on_c, 12, 70, 0
12, 60900, Note_on_c, 12, 65, 100
12, 60959, Note_on_c, 12, 65, 0
12, 61020, Note_on_c, 12, 58, 100
12, 61079, Note_on_c, 12, 58, 0
12, 61080, Note_on_c, 12, 62, 100
12, 61139, Note_on_c, 12, 62, 0
12, 61200, Note_on_c, 12, 63, 100
12, 61259, Note_on_c, 12, 63, 0
12, 61260, Note_on_c, 12, 58, 100
12, 61319, Note_on_c, 12, 58, 0
12, 61380, Note_on_c, 12, 63, 100
12, 61439, Note_on_c, 12, 63, 0
12, 61440, Note_on_c, 12, 67, 100
12, 61499, Note_on_c, 12, 67, 0
12, 61560, Note_on_c, 12, 60, 100
12, 61619, Note_on_c, 12, 60, 0
12, 61620, Note_on_c, 12, 65, 100
12, 61679, Note_on_c, 12, 65, 0
12, 61740, Note_on_c, 12, 58, 100
12, 61799, Note_on_c, 12, 58, 0
12, 61800, Note_on_c, 12, 65, 100
12, 61859, Note_on_c, 12, 65, 0
12, 61920, Note_on_c, 12, 65, 100
12, 61979, Note_on_c, 12, 65, 0
12, 61980, Note_on_c, 12, 62, 100
12, 62039, Note_on_c, 12, 62, 0
12, 62100, Note_on_c, 12, 67, 100
12, 62159, Note_on_c, 12, 67, 0
12, 62160, Note_on_c, 12, 64, 100
12, 62219, Note_on_c, 12, 64, 0
12, 62280, Note_on_c, 12, 69, 100
12, 62339, Note_on_c, 12, 69, 0
12, 62340, Note_on_c, 12, 65, 100
12, 62399, Note_on_c, 12, 65, 0
12, 62460, Note_on_c, 12, 58, 100
12, 62519, Note_on_c, 12, 58, 0
12, 62520, Note_on_c, 12, 58, 100
12, 62579, Note_on_c, 12, 58, 0
12, 62640, Note_on_c, 12, 65, 100
12, 62699, Note_on_c, 12, 65, 0
12, 62700, Note_on_c, 12, 69, 100
12, 62759, Note_on_c, 12, 69, 0
12, 62820, Note_on_c, 12, 69, 100
12, 62879, Note_on_c, 12, 69, 0
12, 62880, Note_on_c, 12, 65, 100
12, 62939, Note_on_c, 12, 65, 0
12, 63000, Note_on_c, 12, 63, 100
12, 63059, Note_on_c, 12, 63, 0
12, 63060, Note_on_c, 12, 67, 100
12, 63119, Note_on_c, 12, 67, 0
12, 63180, Note_on_c, 12, 69, 100
12, 63239, Note_on_c, 12, 69, 0
12, 63240, Note_on_c, 12, 72, 100
12, 63299, Note_on_c, 12, 72, 0
12, 63360, Note_on_c, 12, 70, 100
12, 63419, Note_on_c, 12, 70, 0
12, 63420, Note_on_c, 12, 65, 100
12, 63479, Note_on_c, 12, 65, 0
12, 63540, Note_on_c, 12, 64, 100
12, 63599, Note_on_c, 12, 64, 0
12, 63600, Note_on_c, 12, 67, 100
12, 63659, Note_on_c, 12, 67, 0
12, 63720, Note_on_c, 12, 56, 100
12, 63779, Note_on_c, 12, 56, 0
12, 63780, Note_on_c, 12, 58, 100
12, 63839, Note_on_c, 12, 58, 0
12, 63900, Note_on_c, 12, 60, 100
12, 63959, Note_on_c, 12, 60, 0
12, 63960, Note_on_c, 12, 58, 100
12, 64019, Note_on_c, 12, 58, 0
12, 64080, Note_on_c, 12, 64, 100
12, 64139, Note_on_c, 12, 64, 0
12, 64140, Note_on_c, 12, 67, 100
12, 64199, Note_on_c, 12, 67, 0
12, 64260, Note_on_c, 12, 63, 100
12, 64319, Note_on_c, 12, 63, 0
12, 64320, Note_on_c, 12, 60, 100
12, 64379, Note_on_c, 12, 60, 0
12, 64440, Note_on_c, 12, 64, 100
12, 64499, Note_on_c, 12, 64, 0
12, 64500, Note_on_c, 12, 67, 100
12, 64559, Note_on_c, 12, 67, 0
12, 64620, Note_on_c, 12, 67, 100
12, 64679, Note_on_c, 12, 67, 0
12, 64680, Note_on_c, 12, 64, 100
12, 64739, Note_on_c, 12, 64, 0
12, 64800, Note_on_c, 12, 60, 100
12, 64859, Note_on_c, 12, 60, 0
12, 64860, Note_on_c, 12, 56, 100
12, 64919, Note_on_c, 12, 56, 0
12, 64980, Note_on_c, 12, 59, 100
12, 65039, Note_on_c, 12, 59, 0
12, 65040, Note_on_c, 12, 62, 100
12, 65099, Note_on_c, 12, 62, 0
12, 65160, Note_on_c, 12, 60, 100
12, 65219, Note_on_c, 12, 60, 0
12, 65220, Note_on_c, 12, 55, 100
12, 65279, Note_on_c, 12, 55, 0
12, 65340, Note_on_c, 12, 54, 100
12, 65399, Note_on_c, 12, 54, 0
12, 65400, Note_on_c, 12, 57, 100
12, 65459, Note_on_c, 12, 57, 0
12, 65520, Note_on_c, 12, 50, 100
12, 65579, Note_on_c, 12, 50, 0
12, 65580, Note_on_c, 12, 55, 100
12, 65639, Note_on_c, 12, 55, 0
12, 65700, Note_on_c, 12, 55, 100
12, 65759, Note_on_c, 12, 55, 0
12, 65760, Note_on_c, 12, 59, 100
12, 65819, Note_on_c, 12, 59, 0
12, 65880, Note_on_c, 12, 57, 100
12, 65939, Note_on_c, 12, 57, 0
12, 65940, Note_on_c, 12, 62, 100
12, 65999, Note_on_c, 12, 62, 0
12, 66060, Note_on_c, 12, 67, 100
12, 66119, Note_on_c, 12, 67, 0
12, 66120, Note_on_c, 12, 62, 100
12, 66179, Note_on_c, 12, 62, 0
12, 66240, Note_on_c, 12, 62, 100
12, 66299, Note_on_c, 12, 62, 0
12, 66300, Note_on_c, 12, 50, 100
12, 66359, Note_on_c, 12, 50, 0
12, 66420, Note_on_c, 12, 56, 100
12, 66479, Note_on_c, 12, 56, 0
12, 66480, Note_on_c, 12, 55, 100
12, 66539, Note_on_c, 12, 55, 0
12, 66600, Note_on_c, 12, 63, 100
12, 66659, Note_on_c, 12, 63, 0
12, 66660, Note_on_c, 12, 60, 100
12, 66719, Note_on_c, 12, 60, 0
12, 66780, Note_on_c, 12, 57, 100
12, 66839, Note_on_c, 12, 57, 0
12, 66840, Note_on_c, 12, 54, 100
12, 66899, Note_on_c, 12, 54, 0
12, 66960, Note_on_c, 12, 50, 100
12, 67019, Note_on_c, 12, 50, 0
12, 67020, Note_on_c, 12, 57, 100
12, 67079, Note_on_c, 12, 57, 0
12, 67140, Note_on_c, 12, 55, 100
12, 67199, Note_on_c, 12, 55, 0
12, 67200, Note_on_c, 12, 55, 100
12, 67259, Note_on_c, 12, 55, 0
12, 67320, Note_on_c, 12, 50, 100
12, 67379, Note_on_c, 12, 50, 0
12, 67380, Note_on_c, 12, 57, 100
12, 67439, Note_on_c, 12, 57, 0
12, 67500, Note_on_c, 12, 62, 100
12, 67559, Note_on_c, 12, 62, 0
12, 67560, Note_on_c, 12, 50, 100
12, 67619, Note_on_c, 12, 50, 0
12, 67680, Note_on_c, 12, 60, 100
12, 67739, Note_on_c, 12, 60, 0
12, 67740, Note_on_c, 12, 57, 100
12, 67799, Note_on_c, 12, 57, 0
12, 67860, Note_on_c, 12, 57, 100
12, 67919, Note_on_c, 12, 57, 0
12, 67920, Note_on_c, 12, 54, 100
12, 67979, Note_on_c, 12, 54, 0
12, 68040, Note_on_c, 12, 62, 100
12, 68099, Note_on_c, 12, 62, 0
12, 68100, Note_on_c, 12, 65, 100
12, 68159, Note_on_c, 12, 65, 0
12, 68220, Note_on_c, 12, 67, 100
12, 68279, Note_on_c, 12, 67, 0
12, 68280, Note_on_c, 12, 74, 100
12, 68339, Note_on_c, 12, 74, 0
12, 68400, Note_on_c, 12, 57, 100
12, 68459, Note_on_c, 12, 57, 0
12, 68460, Note_on_c, 12, 63, 100
12, 68519, Note_on_c, 12, 63, 0
12, 68580, Note_on_c, 12, 50, 100
12, 68639, Note_on_c, 12, 50, 0
12, 68640, Note_on_c, 12, 62, 100
12, 68699, Note_on_c, 12, 62, 0
12, 68760, Note_on_c, 12, 63, 100
12, 68819, Note_on_c, 12, 63, 0
12, 68820, Note_on_c, 12, 60, 100
12, 68879, Note_on_c, 12, 60, 0
12, 68940, Note_on_c, 12, 67, 100
12, 68999, Note_on_c, 12, 67, 0
12, 69000, Note_on_c, 12, 63, 100
12, 69059, Note_on_c, 12, 63, 0
12, 69120, Note_on_c, 12, 67, 100
12, 69179, Note_on_c, 12, 67, 0
12, 69180, Note_on_c, 12, 63, 100
12, 69239, Note_on_c, 12, 63, 0
12, 69300, Note_on_c, 12, 57, 100
12, 69359, Note_on_c, 12, 57, 0
12, 69360, Note_on_c, 12, 62, 100
12, 69390, Control_c, 12, 0, 0
12, 69390, Control_c, 12, 0, 0
12, 69390, Program_c, 12, 48
12, 69419, Note_on_c, 12, 62, 0
12, 69420, Note_on_c, 12, 62, 80
12, 69780, Note_on_c, 12, 62, 0
12, 69780, Note_on_c, 12, 64, 80
12, 70500, Note_on_c, 12, 64, 0
12, 70500, Note_on_c, 12, 63, 80
12, 70980, Note_on_c, 12, 63, 0
12, 70980, Note_on_c, 12, 62, 80
12, 71040, Note_on_c, 12, 62, 0
12, 71040, Note_on_c, 12, 60, 80
12, 71160, Note_on_c, 12, 60, 0
12, 71160, Note_on_c, 12, 57, 80
12, 71220, Note_on_c, 12, 57, 0
12, 71220, Note_on_c, 12, 62, 80
12, 71940, Note_on_c, 12, 62, 0
12, 71940, Note_on_c, 12, 61, 80
12, 72420, Note_on_c, 12, 61, 0
12, 72420, Note_on_c, 12, 60, 80
12, 72480, Note_on_c, 12, 60, 0
12, 72480, Note_on_c, 12, 58, 80
12, 72600, Note_on_c, 12, 58, 0
12, 72600, Note_on_c, 12, 55, 80
12, 72660, Note_on_c, 12, 55, 0
12, 72660, Note_on_c, 12, 60, 80
12, 72675, Control_c, 12, 0, 0
12, 72675, Control_c, 12, 0, 0
12, 72675, Program_c, 12, 45
12, 72720, Note_on_c, 12, 60, 0
12, 72720, Note_on_c, 12, 68, 100
12, 72780, Note_on_c, 12, 68, 0
12, 72780, Note_on_c, 12, 72, 100
12, 72840, Note_on_c, 12, 72, 0
12, 72900, Note_on_c, 12, 68, 100
12, 72960, Note_on_c, 12, 68, 0
12, 72960, Note_on_c, 12, 72, 100
12, 73020, Note_on_c, 12, 72, 0
12, 73080, Note_on_c, 12, 70, 100
12, 73140, Note_on_c, 12, 70, 0
12, 73140, Note_on_c, 12, 65, 100
12, 73200, Note_on_c, 12, 65, 0
12, 73260, Note_on_c, 12, 67, 100
12, 73320, Note_on_c, 12, 67, 0
12, 73320, Note_on_c, 12, 70, 100
12, 73380, Note_on_c, 12, 70, 0
12, 73440, Note_on_c, 12, 68, 100
12, 73500, Note_on_c, 12, 68, 0
12, 73500, Note_on_c, 12, 63, 100
12, 73560, Note_on_c, 12, 63, 0
12, 73620, Note_on_c, 12, 60, 100
12, 73680, Note_on_c, 12, 60, 0
12, 73680, Note_on_c, 12, 56, 100
12, 73740, Note_on_c, 12, 56, 0
12, 73800, Note_on_c, 12, 62, 100
12, 73860, Note_on_c, 12, 62, 0
12, 73860, Note_on_c, 12, 65, 100
12, 73920, Note_on_c, 12, 65, 0
12, 73980, Note_on_c, 12, 67, 100
12, 74040, Note_on_c, 12, 67, 0
12, 74040, Note_on_c, 12, 63, 100
12, 74100, Note_on_c, 12, 63, 0
12, 74160, Note_on_c, 12, 62, 100
12, 74220, Note_on_c, 12, 62, 0
12, 74220, Note_on_c, 12, 65, 100
12, 74280, Note_on_c, 12, 65, 0
12, 74340, Note_on_c, 12, 62, 100
12, 74400, Note_on_c, 12, 62, 0
12, 74400, Note_on_c, 12, 58, 100
12, 74460, Note_on_c, 12, 58, 0
12, 74520, Note_on_c, 12, 56, 100
12, 74580, Note_on_c, 12, 56, 0
12, 74580, Note_on_c, 12, 60, 100
12, 74640, Note_on_c, 12, 60, 0
12, 74700, Note_on_c, 12, 65, 100
12, 74760, Note_on_c, 12, 65, 0
12, 74760, Note_on_c, 12, 62, 100
12, 74820, Note_on_c, 12, 62, 0
12, 74880, Note_on_c, 12, 58, 100
12, 74940, Note_on_c, 12, 58, 0
12, 74940, Note_on_c, 12, 65, 100
12, 75000, Note_on_c, 12, 65, 0
12, 75060, Note_on_c, 12, 63, 100
12, 75120, Note_on_c, 12, 63, 0
12, 75120, Note_on_c, 12, 63, 100
12, 75180, Note_on_c, 12, 63, 0
12, 75240, Note_on_c, 12, 58, 100
12, 75300, Note_on_c, 12, 58, 0
12, 75300, Note_on_c, 12, 65, 100
12, 75360, Note_on_c, 12, 65, 0
12, 75420, Note_on_c, 12, 70, 100
12, 75480, Note_on_c, 12, 70, 0
12, 75480, Note_on_c, 12, 58, 100
12, 75540, Note_on_c, 12, 58, 0
12, 75600, Note_on_c, 12, 68, 100
12, 75660, Note_on_c, 12, 68, 0
12, 75660, Note_on_c, 12, 65, 100
12, 75720, Note_on_c, 12, 65, 0
12, 75780, Note_on_c, 12, 65, 100
12, 75840, Note_on_c, 12, 65, 0
12, 75840, Note_on_c, 12, 62, 100
12, 75900, Note_on_c, 12, 62, 0
12, 75960, Note_on_c, 12, 58, 100
12, 76020, Note_on_c, 12, 58, 0
12, 76020, Note_on_c, 12, 62, 100
12, 76080, Note_on_c, 12, 62, 0
12, 76140, Note_on_c, 12, 63, 100
12, 76200, Note_on_c, 12, 63, 0
12, 76200, Note_on_c, 12, 70, 100
12, 76260, Note_on_c, 12, 70, 0
12, 76320, Note_on_c, 12, 65, 100
12, 76380, Note_on_c, 12, 65, 0
12, 76380, Note_on_c, 12, 72, 100
12, 76440, Note_on_c, 12, 72, 0
12, 76500, Note_on_c, 12, 58, 100
12, 76560, Note_on_c, 12, 58, 0
12, 76560, Note_on_c, 12, 62, 100
12, 76620, Note_on_c, 12, 62, 0
12, 76680, Note_on_c, 12, 60, 100
12, 76740, Note_on_c, 12, 60, 0
12, 76740, Note_on_c, 12, 56, 100
12, 76800, Note_on_c, 12, 56, 0
12, 76860, Note_on_c, 12, 63, 100
12, 76920, Note_on_c, 12, 63, 0
12, 76920, Note_on_c, 12, 60, 100
12, 76980, Note_on_c, 12, 60, 0
12, 77040, Note_on_c, 12, 63, 100
12, 77100, Note_on_c, 12, 63, 0
12, 77100, Note_on_c, 12, 60, 100
12, 77160, Note_on_c, 12, 60, 0
12, 77220, Note_on_c, 12, 53, 100
12, 77280, Note_on_c, 12, 53, 0
12, 77280, Note_on_c, 12, 58, 100
12, 77340, Note_on_c, 12, 58, 0
12, 77400, Note_on_c, 12, 58, 100
12, 77460, Note_on_c, 12, 58, 0
12, 77460, Note_on_c, 12, 55, 100
12, 77520, Note_on_c, 12, 55, 0
12, 77580, Note_on_c, 12, 60, 100
12, 77640, Note_on_c, 12, 60, 0
12, 77640, Note_on_c, 12, 58, 100
12, 77700, Note_on_c, 12, 58, 0
12, 77760, Note_on_c, 12, 56, 100
12, 77820, Note_on_c, 12, 56, 0
12, 77820, Note_on_c, 12, 60, 100
12, 77880, Note_on_c, 12, 60, 0
12, 77940, Note_on_c, 12, 63, 100
12, 78000, Note_on_c, 12, 63, 0
12, 78000, Note_on_c, 12, 67, 100
12, 78060, Note_on_c, 12, 67, 0
12, 78120, Note_on_c, 12, 56, 100
12, 78180, Note_on_c, 12, 56, 0
12, 78180, Note_on_c, 12, 68, 100
12, 78240, Note_on_c, 12, 68, 0
12, 78300, Note_on_c, 12, 63, 100
12, 78360, Note_on_c, 12, 63, 0
12, 78360, Note_on_c, 12, 68, 100
12, 78420, Note_on_c, 12, 68, 0
12, 78420, Note_on_c, 12, 66, 100
12, 78600, Note_on_c, 12, 66, 0
12, 78780, Control_c, 12, 0, 100
12, 78780, Control_c, 12, 0, 100
12, 78780, Program_c, 12, 48
12, 78960, Note_on_c, 12, 62, 100
12, 79140, Note_on_c, 12, 62, 0
12, 79140, Note_on_c, 12, 62, 100
12, 79500, Note_on_c, 12, 62, 0
12, 79500, End_track
13, 0, Start_track
13, 0, MIDI_port, 0
13, 0, Title_t, "Cello Pizz"
13, 0, Program_c, 13, 45
13, 52860, Note_on_c, 13, 39, 100
13, 52980, Note_on_c, 13, 39, 0
13, 52980, Note_on_c, 13, 41, 100
13, 53040, Note_on_c, 13, 41, 0
13, 53040, Note_on_c, 13, 43, 100
13, 53160, Note_on_c, 13, 43, 0
13, 53160, Note_on_c, 13, 44, 100
13, 53220, Note_on_c, 13, 44, 0
13, 53220, Note_on_c, 13, 46, 100
13, 53340, Note_on_c, 13, 46, 0
13, 53340, Note_on_c, 13, 58, 100
13, 53400, Note_on_c, 13, 58, 0
13, 53400, Note_on_c, 13, 56, 100
13, 53520, Note_on_c, 13, 56, 0
13, 53520, Note_on_c, 13, 55, 100
13, 53580, Note_on_c, 13, 55, 0
13, 53580, Note_on_c, 13, 53, 100
13, 53700, Note_on_c, 13, 53, 0
13, 53700, Note_on_c, 13, 51, 100
13, 53760, Note_on_c, 13, 51, 0
13, 53760, Note_on_c, 13, 50, 100
13, 53820, Note_on_c, 13, 50, 0
13, 53820, Note_on_c, 13, 46, 100
13, 53880, Note_on_c, 13, 46, 0
13, 53880, Note_on_c, 13, 50, 100
13, 53940, Note_on_c, 13, 50, 0
13, 53940, Note_on_c, 13, 51, 100
13, 54000, Note_on_c, 13, 51, 0
13, 54000, Note_on_c, 13, 55, 100
13, 54060, Note_on_c, 13, 55, 0
13, 54060, Note_on_c, 13, 51, 100
13, 54120, Note_on_c, 13, 51, 0
13, 54120, Note_on_c, 13, 48, 100
13, 54180, Note_on_c, 13, 48, 0
13, 54180, Note_on_c, 13, 53, 100
13, 54240, Note_on_c, 13, 53, 0
13, 54240, Note_on_c, 13, 41, 100
13, 54300, Note_on_c, 13, 41, 0
13, 54300, Note_on_c, 13, 46, 100
13, 54420, Note_on_c, 13, 46, 0
13, 54420, Note_on_c, 13, 48, 100
13, 54480, Note_on_c, 13, 48, 0
13, 54480, Note_on_c, 13, 50, 100
13, 54600, Note_on_c, 13, 50, 0
13, 54600, Note_on_c, 13, 51, 100
13, 54660, Note_on_c, 13, 51, 0
13, 54660, Note_on_c, 13, 41, 100
13, 54780, Note_on_c, 13, 41, 0
13, 54780, Note_on_c, 13, 53, 100
13, 54840, Note_on_c, 13, 53, 0
13, 54840, Note_on_c, 13, 51, 100
13, 54960, Note_on_c, 13, 51, 0
13, 54960, Note_on_c, 13, 50, 100
13, 55020, Note_on_c, 13, 50, 0
13, 55020, Note_on_c, 13, 48, 100
13, 55140, Note_on_c, 13, 48, 0
13, 55140, Note_on_c, 13, 46, 100
13, 55200, Note_on_c, 13, 46, 0
13, 55200, Note_on_c, 13, 45, 100
13, 55260, Note_on_c, 13, 45, 0
13, 55260, Note_on_c, 13, 41, 100
13, 55320, Note_on_c, 13, 41, 0
13, 55320, Note_on_c, 13, 45, 100
13, 55380, Note_on_c, 13, 45, 0
13, 55380, Note_on_c, 13, 46, 100
13, 55440, Note_on_c, 13, 46, 0
13, 55440, Note_on_c, 13, 58, 100
13, 55500, Note_on_c, 13, 58, 0
13, 55500, Note_on_c, 13, 56, 100
13, 55560, Note_on_c, 13, 56, 0
13, 55560, Note_on_c, 13, 55, 100
13, 55620, Note_on_c, 13, 55, 0
13, 55620, Note_on_c, 13, 52, 100
13, 55680, Note_on_c, 13, 52, 0
13, 55680, Note_on_c, 13, 48, 100
13, 55740, Note_on_c, 13, 48, 0
13, 55740, Note_on_c, 13, 53, 100
13, 55860, Note_on_c, 13, 53, 0
13, 55860, Note_on_c, 13, 51, 100
13, 55920, Note_on_c, 13, 51, 0
13, 55920, Note_on_c, 13, 50, 100
13, 55980, Note_on_c, 13, 50, 0
13, 55980, Note_on_c, 13, 47, 100
13, 56040, Note_on_c, 13, 47, 0
13, 56040, Note_on_c, 13, 43, 100
13, 56100, Note_on_c, 13, 43, 0
13, 56100, Note_on_c, 13, 48, 100
13, 56220, Note_on_c, 13, 48, 0
13, 56220, Note_on_c, 13, 46, 100
13, 56280, Note_on_c, 13, 46, 0
13, 56280, Note_on_c, 13, 44, 100
13, 56340, Note_on_c, 13, 44, 0
13, 56340, Note_on_c, 13, 56, 100
13, 56400, Note_on_c, 13, 56, 0
13, 56400, Note_on_c, 13, 53, 100
13, 56460, Note_on_c, 13, 53, 0
13, 56460, Note_on_c, 13, 55, 100
13, 56580, Note_on_c, 13, 55, 0
13, 56580, Note_on_c, 13, 53, 100
13, 56640, Note_on_c, 13, 53, 0
13, 56640, Note_on_c, 13, 51, 100
13, 56760, Note_on_c, 13, 51, 0
13, 56760, Note_on_c, 13, 48, 100
13, 56820, Note_on_c, 13, 48, 0
13, 56820, Note_on_c, 13, 43, 100
13, 56940, Note_on_c, 13, 43, 0
13, 56940, Note_on_c, 13, 55, 100
13, 57000, Note_on_c, 13, 55, 0
13, 57000, Note_on_c, 13, 53, 100
13, 57120, Note_on_c, 13, 53, 0
13, 57120, Note_on_c, 13, 51, 100
13, 57180, Note_on_c, 13, 51, 0
13, 57180, Note_on_c, 13, 50, 100
13, 57300, Note_on_c, 13, 50, 0
13, 57300, Note_on_c, 13, 48, 100
13, 57360, Note_on_c, 13, 48, 0
13, 57360, Note_on_c, 13, 47, 100
13, 57420, Note_on_c, 13, 47, 0
13, 57420, Note_on_c, 13, 43, 100
13, 57480, Note_on_c, 13, 43, 0
13, 57480, Note_on_c, 13, 47, 100
13, 57540, Note_on_c, 13, 47, 0
13, 57540, Note_on_c, 13, 48, 100
13, 57660, Note_on_c, 13, 48, 0
13, 57660, Note_on_c, 13, 50, 100
13, 57720, Note_on_c, 13, 50, 0
13, 57720, Note_on_c, 13, 51, 100
13, 57840, Note_on_c, 13, 51, 0
13, 57840, Note_on_c, 13, 53, 100
13, 57900, Note_on_c, 13, 53, 0
13, 57900, Note_on_c, 13, 43, 100
13, 58019, Note_on_c, 13, 43, 0
13, 58020, Note_on_c, 13, 55, 100
13, 58079, Note_on_c, 13, 55, 0
13, 58080, Note_on_c, 13, 53, 100
13, 58199, Note_on_c, 13, 53, 0
13, 58200, Note_on_c, 13, 51, 100
13, 58259, Note_on_c, 13, 51, 0
13, 58260, Note_on_c, 13, 50, 100
13, 58379, Note_on_c, 13, 50, 0
13, 58380, Note_on_c, 13, 48, 100
13, 58439, Note_on_c, 13, 48, 0
13, 58440, Note_on_c, 13, 47, 100
13, 58499, Note_on_c, 13, 47, 0
13, 58500, Note_on_c, 13, 43, 100
13, 58559, Note_on_c, 13, 43, 0
13, 58560, Note_on_c, 13, 47, 100
13, 58619, Note_on_c, 13, 47, 0
13, 58620, Note_on_c, 13, 48, 100
13, 58739, Note_on_c, 13, 48, 0
13, 58740, Note_on_c, 13, 46, 100
13, 58799, Note_on_c, 13, 46, 0
13, 58800, Note_on_c, 13, 44, 100
13, 58919, Note_on_c, 13, 44, 0
13, 58920, Note_on_c, 13, 43, 100
13, 58979, Note_on_c, 13, 43, 0
13, 58980, Note_on_c, 13, 41, 100
13, 59099, Note_on_c, 13, 41, 0
13, 59100, Note_on_c, 13, 53, 100
13, 59159, Note_on_c, 13, 53, 0
13, 59160, Note_on_c, 13, 55, 100
13, 59279, Note_on_c, 13, 55, 0
13, 59280, Note_on_c, 13, 43, 100
13, 59339, Note_on_c, 13, 43, 0
13, 59340, Note_on_c, 13, 44, 100
13, 59459, Note_on_c, 13, 44, 0
13, 59460, Note_on_c, 13, 56, 100
13, 59519, Note_on_c, 13, 56, 0
13, 59520, Note_on_c, 13, 55, 100
13, 59639, Note_on_c, 13, 55, 0
13, 59640, Note_on_c, 13, 53, 100
13, 59699, Note_on_c, 13, 53, 0
13, 59700, Note_on_c, 13, 55, 100
13, 59819, Note_on_c, 13, 55, 0
13, 59820, Note_on_c, 13, 53, 100
13, 59879, Note_on_c, 13, 53, 0
13, 59880, Note_on_c, 13, 55, 100
13, 59999, Note_on_c, 13, 55, 0
13, 60000, Note_on_c, 13, 43, 100
13, 60059, Note_on_c, 13, 43, 0
13, 60060, Note_on_c, 13, 48, 100
13, 60179, Note_on_c, 13, 48, 0
13, 60180, Note_on_c, 13, 46, 100
13, 60239, Note_on_c, 13, 46, 0
13, 60240, Note_on_c, 13, 45, 100
13, 60359, Note_on_c, 13, 45, 0
13, 60360, Note_on_c, 13, 43, 100
13, 60419, Note_on_c, 13, 43, 0
13, 60420, Note_on_c, 13, 41, 100
13, 60539, Note_on_c, 13, 41, 0
13, 60540, Note_on_c, 13, 51, 100
13, 60599, Note_on_c, 13, 51, 0
13, 60600, Note_on_c, 13, 50, 100
13, 60719, Note_on_c, 13, 50, 0
13, 60720, Note_on_c, 13, 48, 100
13, 60779, Note_on_c, 13, 48, 0
13, 60780, Note_on_c, 13, 46, 100
13, 60899, Note_on_c, 13, 46, 0
13, 60900, Note_on_c, 13, 44, 100
13, 60959, Note_on_c, 13, 44, 0
13, 60960, Note_on_c, 13, 43, 100
13, 61079, Note_on_c, 13, 43, 0
13, 61080, Note_on_c, 13, 41, 100
13, 61139, Note_on_c, 13, 41, 0
13, 61140, Note_on_c, 13, 39, 100
13, 61259, Note_on_c, 13, 39, 0
13, 61260, Note_on_c, 13, 50, 100
13, 61319, Note_on_c, 13, 50, 0
13, 61320, Note_on_c, 13, 48, 100
13, 61439, Note_on_c, 13, 48, 0
13, 61440, Note_on_c, 13, 46, 100
13, 61499, Note_on_c, 13, 46, 0
13, 61500, Note_on_c, 13, 45, 100
13, 61559, Note_on_c, 13, 45, 0
13, 61560, Note_on_c, 13, 48, 100
13, 61619, Note_on_c, 13, 48, 0
13, 61620, Note_on_c, 13, 45, 100
13, 61679, Note_on_c, 13, 45, 0
13, 61680, Note_on_c, 13, 41, 100
13, 61739, Note_on_c, 13, 41, 0
13, 61740, Note_on_c, 13, 43, 100
13, 61799, Note_on_c, 13, 43, 0
13, 61800, Note_on_c, 13, 45, 100
13, 61859, Note_on_c, 13, 45, 0
13, 61860, Note_on_c, 13, 46, 100
13, 61979, Note_on_c, 13, 46, 0
13, 61980, Note_on_c, 13, 45, 100
13, 62039, Note_on_c, 13, 45, 0
13, 62040, Note_on_c, 13, 43, 100
13, 62159, Note_on_c, 13, 43, 0
13, 62160, Note_on_c, 13, 48, 100
13, 62219, Note_on_c, 13, 48, 0
13, 62220, Note_on_c, 13, 41, 100
13, 62339, Note_on_c, 13, 41, 0
13, 62340, Note_on_c, 13, 39, 100
13, 62399, Note_on_c, 13, 39, 0
13, 62400, Note_on_c, 13, 38, 100
13, 62519, Note_on_c, 13, 38, 0
13, 62520, Note_on_c, 13, 39, 100
13, 62579, Note_on_c, 13, 39, 0
13, 62580, Note_on_c, 13, 41, 100
13, 62699, Note_on_c, 13, 41, 0
13, 62700, Note_on_c, 13, 53, 100
13, 62759, Note_on_c, 13, 53, 0
13, 62760, Note_on_c, 13, 51, 100
13, 62879, Note_on_c, 13, 51, 0
13, 62880, Note_on_c, 13, 50, 100
13, 62939, Note_on_c, 13, 50, 0
13, 62940, Note_on_c, 13, 48, 100
13, 63059, Note_on_c, 13, 48, 0
13, 63060, Note_on_c, 13, 46, 100
13, 63119, Note_on_c, 13, 46, 0
13, 63120, Note_on_c, 13, 45, 100
13, 63179, Note_on_c, 13, 45, 0
13, 63180, Note_on_c, 13, 41, 100
13, 63239, Note_on_c, 13, 41, 0
13, 63240, Note_on_c, 13, 45, 100
13, 63299, Note_on_c, 13, 45, 0
13, 63300, Note_on_c, 13, 46, 100
13, 63359, Note_on_c, 13, 46, 0
13, 63360, Note_on_c, 13, 50, 100
13, 63419, Note_on_c, 13, 50, 0
13, 63420, Note_on_c, 13, 53, 100
13, 63479, Note_on_c, 13, 53, 0
13, 63480, Note_on_c, 13, 52, 100
13, 63539, Note_on_c, 13, 52, 0
13, 63540, Note_on_c, 13, 48, 100
13, 63599, Note_on_c, 13, 48, 0
13, 63600, Note_on_c, 13, 52, 100
13, 63659, Note_on_c, 13, 52, 0
13, 63660, Note_on_c, 13, 41, 100
13, 63779, Note_on_c, 13, 41, 0
13, 63780, Note_on_c, 13, 43, 100
13, 63839, Note_on_c, 13, 43, 0
13, 63840, Note_on_c, 13, 44, 100
13, 63959, Note_on_c, 13, 44, 0
13, 63960, Note_on_c, 13, 46, 100
13, 64019, Note_on_c, 13, 46, 0
13, 64020, Note_on_c, 13, 48, 100
13, 64139, Note_on_c, 13, 48, 0
13, 64140, Note_on_c, 13, 60, 100
13, 64199, Note_on_c, 13, 60, 0
13, 64200, Note_on_c, 13, 58, 100
13, 64319, Note_on_c, 13, 58, 0
13, 64320, Note_on_c, 13, 56, 100
13, 64379, Note_on_c, 13, 56, 0
13, 64380, Note_on_c, 13, 55, 100
13, 64499, Note_on_c, 13, 55, 0
13, 64500, Note_on_c, 13, 53, 100
13, 64559, Note_on_c, 13, 53, 0
13, 64560, Note_on_c, 13, 52, 100
13, 64619, Note_on_c, 13, 52, 0
13, 64620, Note_on_c, 13, 48, 100
13, 64679, Note_on_c, 13, 48, 0
13, 64680, Note_on_c, 13, 52, 100
13, 64739, Note_on_c, 13, 52, 0
13, 64740, Note_on_c, 13, 41, 100
13, 64799, Note_on_c, 13, 41, 0
13, 64800, Note_on_c, 13, 53, 100
13, 64859, Note_on_c, 13, 53, 0
13, 64860, Note_on_c, 13, 51, 100
13, 64919, Note_on_c, 13, 51, 0
13, 64920, Note_on_c, 13, 50, 100
13, 64979, Note_on_c, 13, 50, 0
13, 64980, Note_on_c, 13, 47, 100
13, 65039, Note_on_c, 13, 47, 0
13, 65040, Note_on_c, 13, 43, 100
13, 65099, Note_on_c, 13, 43, 0
13, 65100, Note_on_c, 13, 48, 100
13, 65159, Note_on_c, 13, 48, 0
13, 65160, Note_on_c, 13, 60, 100
13, 65219, Note_on_c, 13, 60, 0
13, 65220, Note_on_c, 13, 58, 100
13, 65279, Note_on_c, 13, 58, 0
13, 65280, Note_on_c, 13, 57, 100
13, 65339, Note_on_c, 13, 57, 0
13, 65340, Note_on_c, 13, 54, 100
13, 65399, Note_on_c, 13, 54, 0
13, 65400, Note_on_c, 13, 50, 100
13, 65459, Note_on_c, 13, 50, 0
13, 65460, Note_on_c, 13, 43, 100
13, 65579, Note_on_c, 13, 43, 0
13, 65580, Note_on_c, 13, 41, 100
13, 65639, Note_on_c, 13, 41, 0
13, 65640, Note_on_c, 13, 39, 100
13, 65699, Note_on_c, 13, 39, 0
13, 65700, Note_on_c, 13, 51, 100
13, 65759, Note_on_c, 13, 51, 0
13, 65760, Note_on_c, 13, 48, 100
13, 65819, Note_on_c, 13, 48, 0
13, 65820, Note_on_c, 13, 50, 100
13, 65939, Note_on_c, 13, 50, 0
13, 65940, Note_on_c, 13, 48, 100
13, 65999, Note_on_c, 13, 48, 0
13, 66000, Note_on_c, 13, 46, 100
13, 66119, Note_on_c, 13, 46, 0
13, 66120, Note_on_c, 13, 43, 100
13, 66179, Note_on_c, 13, 43, 0
13, 66180, Note_on_c, 13, 38, 100
13, 66299, Note_on_c, 13, 38, 0
13, 66300, Note_on_c, 13, 50, 100
13, 66359, Note_on_c, 13, 50, 0
13, 66360, Note_on_c, 13, 48, 100
13, 66479, Note_on_c, 13, 48, 0
13, 66480, Note_on_c, 13, 46, 100
13, 66539, Note_on_c, 13, 46, 0
13, 66540, Note_on_c, 13, 45, 100
13, 66659, Note_on_c, 13, 45, 0
13, 66660, Note_on_c, 13, 43, 100
13, 66719, Note_on_c, 13, 43, 0
13, 66720, Note_on_c, 13, 42, 100
13, 66779, Note_on_c, 13, 42, 0
13, 66780, Note_on_c, 13, 38, 100
13, 66839, Note_on_c, 13, 38, 0
13, 66840, Note_on_c, 13, 42, 100
13, 66899, Note_on_c, 13, 42, 0
13, 66900, Note_on_c, 13, 43, 100
13, 67019, Note_on_c, 13, 43, 0
13, 67020, Note_on_c, 13, 45, 100
13, 67079, Note_on_c, 13, 45, 0
13, 67080, Note_on_c, 13, 46, 100
13, 67199, Note_on_c, 13, 46, 0
13, 67200, Note_on_c, 13, 48, 100
13, 67259, Note_on_c, 13, 48, 0
13, 67260, Note_on_c, 13, 50, 100
13, 67379, Note_on_c, 13, 50, 0
13, 67380, Note_on_c, 13, 62, 100
13, 67439, Note_on_c, 13, 62, 0
13, 67440, Note_on_c, 13, 60, 100
13, 67559, Note_on_c, 13, 60, 0
13, 67560, Note_on_c, 13, 58, 100
13, 67619, Note_on_c, 13, 58, 0
13, 67620, Note_on_c, 13, 57, 100
13, 67739, Note_on_c, 13, 57, 0
13, 67740, Note_on_c, 13, 55, 100
13, 67799, Note_on_c, 13, 55, 0
13, 67800, Note_on_c, 13, 54, 100
13, 67859, Note_on_c, 13, 54, 0
13, 67860, Note_on_c, 13, 50, 100
13, 67919, Note_on_c, 13, 50, 0
13, 67920, Note_on_c, 13, 54, 100
13, 67979, Note_on_c, 13, 54, 0
13, 67980, Note_on_c, 13, 55, 100
13, 68099, Note_on_c, 13, 55, 0
13, 68100, Note_on_c, 13, 53, 100
13, 68159, Note_on_c, 13, 53, 0
13, 68160, Note_on_c, 13, 51, 100
13, 68279, Note_on_c, 13, 51, 0
13, 68280, Note_on_c, 13, 50, 100
13, 68339, Note_on_c, 13, 50, 0
13, 68340, Note_on_c, 13, 48, 100
13, 68459, Note_on_c, 13, 48, 0
13, 68460, Note_on_c, 13, 36, 100
13, 68519, Note_on_c, 13, 36, 0
13, 68520, Note_on_c, 13, 38, 100
13, 68639, Note_on_c, 13, 38, 0
13, 68640, Note_on_c, 13, 50, 100
13, 68699, Note_on_c, 13, 50, 0
13, 68700, Note_on_c, 13, 51, 100
13, 68820, Note_on_c, 13, 51, 0
13, 68820, Note_on_c, 13, 39, 100
13, 68879, Note_on_c, 13, 39, 0
13, 68880, Note_on_c, 13, 38, 100
13, 69000, Note_on_c, 13, 38, 0
13, 69000, Note_on_c, 13, 36, 100
13, 69059, Note_on_c, 13, 36, 0
13, 69060, Note_on_c, 13, 38, 100
13, 69180, Note_on_c, 13, 38, 0
13, 69180, Note_on_c, 13, 48, 100
13, 69239, Note_on_c, 13, 48, 0
13, 69240, Note_on_c, 13, 50, 100
13, 69360, Note_on_c, 13, 50, 0
13, 69360, Note_on_c, 13, 38, 100
13, 69419, Note_on_c, 13, 38, 0
13, 69420, Note_on_c, 13, 43, 100
13, 69539, Note_on_c, 13, 43, 0
13, 69540, Note_on_c, 13, 45, 100
13, 69599, Note_on_c, 13, 45, 0
13, 69600, Note_on_c, 13, 46, 100
13, 69659, Note_on_c, 13, 46, 0
13, 69660, Note_on_c, 13, 45, 100
13, 69719, Note_on_c, 13, 45, 0
13, 69720, Note_on_c, 13, 43, 100
13, 69779, Note_on_c, 13, 43, 0
13, 69780, Note_on_c, 13, 48, 100
13, 69899, Note_on_c, 13, 48, 0
13, 69900, Note_on_c, 13, 50, 100
13, 69959, Note_on_c, 13, 50, 0
13, 69960, Note_on_c, 13, 52, 100
13, 70079, Note_on_c, 13, 52, 0
13, 70080, Note_on_c, 13, 53, 100
13, 70139, Note_on_c, 13, 53, 0
13, 70140, Note_on_c, 13, 55, 100
13, 70259, Note_on_c, 13, 55, 0
13, 70260, Note_on_c, 13, 53, 100
13, 70319, Note_on_c, 13, 53, 0
13, 70320, Note_on_c, 13, 52, 100
13, 70439, Note_on_c, 13, 52, 0
13, 70440, Note_on_c, 13, 48, 100
13, 70499, Note_on_c, 13, 48, 0
13, 70500, Note_on_c, 13, 41, 100
13, 70619, Note_on_c, 13, 41, 0
13, 70620, Note_on_c, 13, 43, 100
13, 70679, Note_on_c, 13, 43, 0
13, 70680, Note_on_c, 13, 45, 100
13, 70799, Note_on_c, 13, 45, 0
13, 70800, Note_on_c, 13, 46, 100
13, 70859, Note_on_c, 13, 46, 0
13, 70860, Note_on_c, 13, 48, 100
13, 70979, Note_on_c, 13, 48, 0
13, 70980, Note_on_c, 13, 46, 100
13, 71039, Note_on_c, 13, 46, 0
13, 71040, Note_on_c, 13, 45, 100
13, 71159, Note_on_c, 13, 45, 0
13, 71160, Note_on_c, 13, 41, 100
13, 71219, Note_on_c, 13, 41, 0
13, 71220, Note_on_c, 13, 46, 100
13, 71339, Note_on_c, 13, 46, 0
13, 71340, Note_on_c, 13, 48, 100
13, 71399, Note_on_c, 13, 48, 0
13, 71400, Note_on_c, 13, 50, 100
13, 71519, Note_on_c, 13, 50, 0
13, 71520, Note_on_c, 13, 51, 100
13, 71579, Note_on_c, 13, 51, 0
13, 71580, Note_on_c, 13, 53, 100
13, 71699, Note_on_c, 13, 53, 0
13, 71700, Note_on_c, 13, 51, 100
13, 71759, Note_on_c, 13, 51, 0
13, 71760, Note_on_c, 13, 50, 100
13, 71879, Note_on_c, 13, 50, 0
13, 71880, Note_on_c, 13, 46, 100
13, 71939, Note_on_c, 13, 46, 0
13, 71940, Note_on_c, 13, 39, 100
13, 72059, Note_on_c, 13, 39, 0
13, 72060, Note_on_c, 13, 41, 100
13, 72119, Note_on_c, 13, 41, 0
13, 72120, Note_on_c, 13, 43, 100
13, 72239, Note_on_c, 13, 43, 0
13, 72240, Note_on_c, 13, 44, 100
13, 72299, Note_on_c, 13, 44, 0
13, 72300, Note_on_c, 13, 46, 100
13, 72419, Note_on_c, 13, 46, 0
13, 72420, Note_on_c, 13, 44, 100
13, 72479, Note_on_c, 13, 44, 0
13, 72480, Note_on_c, 13, 43, 100
13, 72599, Note_on_c, 13, 43, 0
13, 72600, Note_on_c, 13, 51, 100
13, 72659, Note_on_c, 13, 51, 0
13, 72660, Note_on_c, 13, 56, 100
13, 72779, Note_on_c, 13, 56, 0
13, 72780, Note_on_c, 13, 55, 100
13, 72839, Note_on_c, 13, 55, 0
13, 72840, Note_on_c, 13, 53, 100
13, 72959, Note_on_c, 13, 53, 0
13, 72960, Note_on_c, 13, 51, 100
13, 73019, Note_on_c, 13, 51, 0
13, 73020, Note_on_c, 13, 50, 100
13, 73139, Note_on_c, 13, 50, 0
13, 73140, Note_on_c, 13, 46, 100
13, 73199, Note_on_c, 13, 46, 0
13, 73200, Note_on_c, 13, 51, 100
13, 73319, Note_on_c, 13, 51, 0
13, 73320, Note_on_c, 13, 39, 100
13, 73379, Note_on_c, 13, 39, 0
13, 73380, Note_on_c, 13, 44, 100
13, 73499, Note_on_c, 13, 44, 0
13, 73500, Note_on_c, 13, 51, 100
13, 73559, Note_on_c, 13, 51, 0
13, 73560, Note_on_c, 13, 56, 100
13, 73860, Note_on_c, 13, 56, 0
13, 73860, Note_on_c, 13, 44, 100
13, 73919, Note_on_c, 13, 44, 0
13, 73920, Note_on_c, 13, 43, 100
13, 74039, Note_on_c, 13, 43, 0
13, 74040, Note_on_c, 13, 44, 100
13, 74099, Note_on_c, 13, 44, 0
13, 74100, Note_on_c, 13, 46, 100
13, 74219, Note_on_c, 13, 46, 0
13, 74220, Note_on_c, 13, 58, 100
13, 74279, Note_on_c, 13, 58, 0
13, 74280, Note_on_c, 13, 56, 100
13, 74399, Note_on_c, 13, 56, 0
13, 74400, Note_on_c, 13, 55, 100
13, 74459, Note_on_c, 13, 55, 0
13, 74460, Note_on_c, 13, 53, 100
13, 74579, Note_on_c, 13, 53, 0
13, 74580, Note_on_c, 13, 51, 100
13, 74639, Note_on_c, 13, 51, 0
13, 74640, Note_on_c, 13, 50, 100
13, 74699, Note_on_c, 13, 50, 0
13, 74700, Note_on_c, 13, 46, 100
13, 74759, Note_on_c, 13, 46, 0
13, 74760, Note_on_c, 13, 50, 100
13, 74819, Note_on_c, 13, 50, 0
13, 74820, Note_on_c, 13, 51, 100
13, 74939, Note_on_c, 13, 51, 0
13, 74940, Note_on_c, 13, 53, 100
13, 74999, Note_on_c, 13, 53, 0
13, 75000, Note_on_c, 13, 55, 100
13, 75119, Note_on_c, 13, 55, 0
13, 75120, Note_on_c, 13, 56, 100
13, 75179, Note_on_c, 13, 56, 0
13, 75180, Note_on_c, 13, 46, 100
13, 75299, Note_on_c, 13, 46, 0
13, 75300, Note_on_c, 13, 58, 100
13, 75359, Note_on_c, 13, 58, 0
13, 75360, Note_on_c, 13, 56, 100
13, 75479, Note_on_c, 13, 56, 0
13, 75480, Note_on_c, 13, 55, 100
13, 75539, Note_on_c, 13, 55, 0
13, 75540, Note_on_c, 13, 53, 100
13, 75659, Note_on_c, 13, 53, 0
13, 75660, Note_on_c, 13, 51, 100
13, 75719, Note_on_c, 13, 51, 0
13, 75720, Note_on_c, 13, 50, 100
13, 75779, Note_on_c, 13, 50, 0
13, 75780, Note_on_c, 13, 46, 100
13, 75839, Note_on_c, 13, 46, 0
13, 75840, Note_on_c, 13, 50, 100
13, 75899, Note_on_c, 13, 50, 0
13, 75900, Note_on_c, 13, 51, 100
13, 76019, Note_on_c, 13, 51, 0
13, 76020, Note_on_c, 13, 50, 100
13, 76079, Note_on_c, 13, 50, 0
13, 76080, Note_on_c, 13, 48, 100
13, 76199, Note_on_c, 13, 48, 0
13, 76200, Note_on_c, 13, 46, 100
13, 76259, Note_on_c, 13, 46, 0
13, 76260, Note_on_c, 13, 44, 100
13, 76379, Note_on_c, 13, 44, 0
13, 76380, Note_on_c, 13, 56, 100
13, 76439, Note_on_c, 13, 56, 0
13, 76440, Note_on_c, 13, 58, 100
13, 76559, Note_on_c, 13, 58, 0
13, 76560, Note_on_c, 13, 46, 100
13, 76619, Note_on_c, 13, 46, 0
13, 76620, Note_on_c, 13, 48, 100
13, 76739, Note_on_c, 13, 48, 0
13, 76740, Note_on_c, 13, 60, 100
13, 76799, Note_on_c, 13, 60, 0
13, 76800, Note_on_c, 13, 58, 100
13, 76919, Note_on_c, 13, 58, 0
13, 76920, Note_on_c, 13, 56, 100
13, 76979, Note_on_c, 13, 56, 0
13, 76980, Note_on_c, 13, 58, 100
13, 77099, Note_on_c, 13, 58, 0
13, 77100, Note_on_c, 13, 56, 100
13, 77159, Note_on_c, 13, 56, 0
13, 77160, Note_on_c, 13, 58, 100
13, 77279, Note_on_c, 13, 58, 0
13, 77280, Note_on_c, 13, 46, 100
13, 77339, Note_on_c, 13, 46, 0
13, 77340, Note_on_c, 13, 51, 100
13, 77459, Note_on_c, 13, 51, 0
13, 77460, Note_on_c, 13, 39, 100
13, 77519, Note_on_c, 13, 39, 0
13, 77520, Note_on_c, 13, 41, 100
13, 77639, Note_on_c, 13, 41, 0
13, 77640, Note_on_c, 13, 43, 100
13, 77699, Note_on_c, 13, 43, 0
13, 77700, Note_on_c, 13, 44, 100
13, 77819, Note_on_c, 13, 44, 0
13, 77820, Note_on_c, 13, 43, 100
13, 77879, Note_on_c, 13, 43, 0
13, 77880, Note_on_c, 13, 44, 100
13, 77999, Note_on_c, 13, 44, 0
13, 78000, Note_on_c, 13, 46, 100
13, 78059, Note_on_c, 13, 46, 0
13, 78060, Note_on_c, 13, 48, 100
13, 78179, Note_on_c, 13, 48, 0
13, 78180, Note_on_c, 13, 44, 100
13, 78239, Note_on_c, 13, 44, 0
13, 78240, Note_on_c, 13, 51, 100
13, 78359, Note_on_c, 13, 51, 0
13, 78360, Note_on_c, 13, 48, 100
13, 78419, Note_on_c, 13, 48, 0
13, 78420, Note_on_c, 13, 50, 100
13, 78599, Note_on_c, 13, 50, 0
13, 78780, Control_c, 13, 0, 0
13, 78780, Control_c, 13, 0, 0
13, 78780, Program_c, 13, 43
13, 78960, Note_on_c, 13, 38, 100
13, 79140, Note_on_c, 13, 38, 0
13, 79140, Note_on_c, 13, 43, 100
13, 79500, Note_on_c, 13, 43, 0
13, 79500, End_track
14, 0, Start_track
14, 0, MIDI_port, 0
14, 0, Title_t, "Bass Pizz"
14, 0, Program_c, 14, 45
14, 52860, Note_on_c, 14, 27, 100
14, 52980, Note_on_c, 14, 27, 0
14, 52980, Note_on_c, 14, 29, 100
14, 53040, Note_on_c, 14, 29, 0
14, 53040, Note_on_c, 14, 31, 100
14, 53160, Note_on_c, 14, 31, 0
14, 53160, Note_on_c, 14, 32, 100
14, 53220, Note_on_c, 14, 32, 0
14, 53220, Note_on_c, 14, 34, 100
14, 53340, Note_on_c, 14, 34, 0
14, 53340, Note_on_c, 14, 46, 100
14, 53400, Note_on_c, 14, 46, 0
14, 53400, Note_on_c, 14, 44, 100
14, 53520, Note_on_c, 14, 44, 0
14, 53520, Note_on_c, 14, 43, 100
14, 53580, Note_on_c, 14, 43, 0
14, 53580, Note_on_c, 14, 41, 100
14, 53700, Note_on_c, 14, 41, 0
14, 53700, Note_on_c, 14, 39, 100
14, 53760, Note_on_c, 14, 39, 0
14, 53760, Note_on_c, 14, 38, 100
14, 53820, Note_on_c, 14, 38, 0
14, 53820, Note_on_c, 14, 34, 100
14, 53880, Note_on_c, 14, 34, 0
14, 53880, Note_on_c, 14, 38, 100
14, 53940, Note_on_c, 14, 38, 0
14, 53940, Note_on_c, 14, 39, 100
14, 54000, Note_on_c, 14, 39, 0
14, 54000, Note_on_c, 14, 43, 100
14, 54060, Note_on_c, 14, 43, 0
14, 54060, Note_on_c, 14, 39, 100
14, 54120, Note_on_c, 14, 39, 0
14, 54120, Note_on_c, 14, 36, 100
14, 54180, Note_on_c, 14, 36, 0
14, 54180, Note_on_c, 14, 41, 100
14, 54240, Note_on_c, 14, 41, 0
14, 54240, Note_on_c, 14, 29, 100
14, 54300, Note_on_c, 14, 29, 0
14, 54300, Note_on_c, 14, 34, 100
14, 54420, Note_on_c, 14, 34, 0
14, 54420, Note_on_c, 14, 36, 100
14, 54480, Note_on_c, 14, 36, 0
14, 54480, Note_on_c, 14, 38, 100
14, 54600, Note_on_c, 14, 38, 0
14, 54600, Note_on_c, 14, 39, 100
14, 54660, Note_on_c, 14, 39, 0
14, 54660, Note_on_c, 14, 29, 100
14, 54780, Note_on_c, 14, 29, 0
14, 54780, Note_on_c, 14, 41, 100
14, 54840, Note_on_c, 14, 41, 0
14, 54840, Note_on_c, 14, 39, 100
14, 54960, Note_on_c, 14, 39, 0
14, 54960, Note_on_c, 14, 38, 100
14, 55020, Note_on_c, 14, 38, 0
14, 55020, Note_on_c, 14, 36, 100
14, 55140, Note_on_c, 14, 36, 0
14, 55140, Note_on_c, 14, 34, 100
14, 55200, Note_on_c, 14, 34, 0
14, 55200, Note_on_c, 14, 33, 100
14, 55260, Note_on_c, 14, 33, 0
14, 55260, Note_on_c, 14, 29, 100
14, 55320, Note_on_c, 14, 29, 0
14, 55320, Note_on_c, 14, 33, 100
14, 55380, Note_on_c, 14, 33, 0
14, 55380, Note_on_c, 14, 34, 100
14, 55440, Note_on_c, 14, 34, 0
14, 55440, Note_on_c, 14, 46, 100
14, 55500, Note_on_c, 14, 46, 0
14, 55500, Note_on_c, 14, 44, 100
14, 55560, Note_on_c, 14, 44, 0
14, 55560, Note_on_c, 14, 43, 100
14, 55620, Note_on_c, 14, 43, 0
14, 55620, Note_on_c, 14, 40, 100
14, 55680, Note_on_c, 14, 40, 0
14, 55680, Note_on_c, 14, 36, 100
14, 55740, Note_on_c, 14, 36, 0
14, 55740, Note_on_c, 14, 41, 100
14, 55860, Note_on_c, 14, 41, 0
14, 55860, Note_on_c, 14, 39, 100
14, 55920, Note_on_c, 14, 39, 0
14, 55920, Note_on_c, 14, 38, 100
14, 55980, Note_on_c, 14, 38, 0
14, 55980, Note_on_c, 14, 35, 100
14, 56040, Note_on_c, 14, 35, 0
14, 56040, Note_on_c, 14, 31, 100
14, 56100, Note_on_c, 14, 31, 0
14, 56100, Note_on_c, 14, 36, 100
14, 56220, Note_on_c, 14, 36, 0
14, 56220, Note_on_c, 14, 34, 100
14, 56280, Note_on_c, 14, 34, 0
14, 56280, Note_on_c, 14, 32, 100
14, 56340, Note_on_c, 14, 32, 0
14, 56340, Note_on_c, 14, 44, 100
14, 56400, Note_on_c, 14, 44, 0
14, 56400, Note_on_c, 14, 41, 100
14, 56460, Note_on_c, 14, 41, 0
14, 56460, Note_on_c, 14, 43, 100
14, 56580, Note_on_c, 14, 43, 0
14, 56580, Note_on_c, 14, 41, 100
14, 56640, Note_on_c, 14, 41, 0
14, 56640, Note_on_c, 14, 39, 100
14, 56760, Note_on_c, 14, 39, 0
14, 56760, Note_on_c, 14, 36, 100
14, 56820, Note_on_c, 14, 36, 0
14, 56820, Note_on_c, 14, 31, 100
14, 56940, Note_on_c, 14, 31, 0
14, 56940, Note_on_c, 14, 43, 100
14, 57000, Note_on_c, 14, 43, 0
14, 57000, Note_on_c, 14, 41, 100
14, 57120, Note_on_c, 14, 41, 0
14, 57120, Note_on_c, 14, 39, 100
14, 57180, Note_on_c, 14, 39, 0
14, 57180, Note_on_c, 14, 38, 100
14, 57300, Note_on_c, 14, 38, 0
14, 57300, Note_on_c, 14, 36, 100
14, 57360, Note_on_c, 14, 36, 0
14, 57360, Note_on_c, 14, 35, 100
14, 57420, Note_on_c, 14, 35, 0
14, 57420, Note_on_c, 14, 31, 100
14, 57480, Note_on_c, 14, 31, 0
14, 57480, Note_on_c, 14, 35, 100
14, 57540, Note_on_c, 14, 35, 0
14, 57540, Note_on_c, 14, 36, 100
14, 57660, Note_on_c, 14, 36, 0
14, 57660, Note_on_c, 14, 38, 100
14, 57720, Note_on_c, 14, 38, 0
14, 57720, Note_on_c, 14, 39, 100
14, 57840, Note_on_c, 14, 39, 0
14, 57840, Note_on_c, 14, 41, 100
14, 57900, Note_on_c, 14, 41, 0
14, 57900, Note_on_c, 14, 31, 100
14, 58019, Note_on_c, 14, 31, 0
14, 58020, Note_on_c, 14, 43, 100
14, 58079, Note_on_c, 14, 43, 0
14, 58080, Note_on_c, 14, 41, 100
14, 58199, Note_on_c, 14, 41, 0
14, 58200, Note_on_c, 14, 39, 100
14, 58259, Note_on_c, 14, 39, 0
14, 58260, Note_on_c, 14, 38, 100
14, 58379, Note_on_c, 14, 38, 0
14, 58380, Note_on_c, 14, 36, 100
14, 58439, Note_on_c, 14, 36, 0
14, 58440, Note_on_c, 14, 35, 100
14, 58499, Note_on_c, 14, 35, 0
14, 58500, Note_on_c, 14, 31, 100
14, 58559, Note_on_c, 14, 31, 0
14, 58560, Note_on_c, 14, 35, 100
14, 58619, Note_on_c, 14, 35, 0
14, 58620, Note_on_c, 14, 36, 100
14, 58739, Note_on_c, 14, 36, 0
14, 58740, Note_on_c, 14, 34, 100
14, 58799, Note_on_c, 14, 34, 0
14, 58800, Note_on_c, 14, 32, 100
14, 58919, Note_on_c, 14, 32, 0
14, 58920, Note_on_c, 14, 31, 100
14, 58979, Note_on_c, 14, 31, 0
14, 58980, Note_on_c, 14, 29, 100
14, 59099, Note_on_c, 14, 29, 0
14, 59100, Note_on_c, 14, 41, 100
14, 59159, Note_on_c, 14, 41, 0
14, 59160, Note_on_c, 14, 43, 100
14, 59279, Note_on_c, 14, 43, 0
14, 59280, Note_on_c, 14, 31, 100
14, 59339, Note_on_c, 14, 31, 0
14, 59340, Note_on_c, 14, 32, 100
14, 59459, Note_on_c, 14, 32, 0
14, 59460, Note_on_c, 14, 44, 100
14, 59519, Note_on_c, 14, 44, 0
14, 59520, Note_on_c, 14, 43, 100
14, 59639, Note_on_c, 14, 43, 0
14, 59640, Note_on_c, 14, 41, 100
14, 59699, Note_on_c, 14, 41, 0
14, 59700, Note_on_c, 14, 43, 100
14, 59819, Note_on_c, 14, 43, 0
14, 59820, Note_on_c, 14, 41, 100
14, 59879, Note_on_c, 14, 41, 0
14, 59880, Note_on_c, 14, 43, 100
14, 59999, Note_on_c, 14, 43, 0
14, 60000, Note_on_c, 14, 31, 100
14, 60059, Note_on_c, 14, 31, 0
14, 60060, Note_on_c, 14, 36, 100
14, 60179, Note_on_c, 14, 36, 0
14, 60180, Note_on_c, 14, 34, 100
14, 60239, Note_on_c, 14, 34, 0
14, 60240, Note_on_c, 14, 33, 100
14, 60359, Note_on_c, 14, 33, 0
14, 60360, Note_on_c, 14, 31, 100
14, 60419, Note_on_c, 14, 31, 0
14, 60420, Note_on_c, 14, 29, 100
14, 60539, Note_on_c, 14, 29, 0
14, 60540, Note_on_c, 14, 39, 100
14, 60599, Note_on_c, 14, 39, 0
14, 60600, Note_on_c, 14, 38, 100
14, 60719, Note_on_c, 14, 38, 0
14, 60720, Note_on_c, 14, 36, 100
14, 60779, Note_on_c, 14, 36, 0
14, 60780, Note_on_c, 14, 34, 100
14, 60899, Note_on_c, 14, 34, 0
14, 60900, Note_on_c, 14, 32, 100
14, 60959, Note_on_c, 14, 32, 0
14, 60960, Note_on_c, 14, 31, 100
14, 61079, Note_on_c, 14, 31, 0
14, 61080, Note_on_c, 14, 29, 100
14, 61139, Note_on_c, 14, 29, 0
14, 61140, Note_on_c, 14, 27, 100
14, 61259, Note_on_c, 14, 27, 0
14, 61260, Note_on_c, 14, 38, 100
14, 61319, Note_on_c, 14, 38, 0
14, 61320, Note_on_c, 14, 36, 100
14, 61439, Note_on_c, 14, 36, 0
14, 61440, Note_on_c, 14, 34, 100
14, 61499, Note_on_c, 14, 34, 0
14, 61500, Note_on_c, 14, 33, 100
14, 61559, Note_on_c, 14, 33, 0
14, 61560, Note_on_c, 14, 36, 100
14, 61619, Note_on_c, 14, 36, 0
14, 61620, Note_on_c, 14, 33, 100
14, 61679, Note_on_c, 14, 33, 0
14, 61680, Note_on_c, 14, 29, 100
14, 61739, Note_on_c, 14, 29, 0
14, 61740, Note_on_c, 14, 31, 100
14, 61799, Note_on_c, 14, 31, 0
14, 61800, Note_on_c, 14, 33, 100
14, 61859, Note_on_c, 14, 33, 0
14, 61860, Note_on_c, 14, 34, 100
14, 61979, Note_on_c, 14, 34, 0
14, 61980, Note_on_c, 14, 33, 100
14, 62039, Note_on_c, 14, 33, 0
14, 62040, Note_on_c, 14, 31, 100
14, 62159, Note_on_c, 14, 31, 0
14, 62160, Note_on_c, 14, 36, 100
14, 62219, Note_on_c, 14, 36, 0
14, 62220, Note_on_c, 14, 29, 100
14, 62339, Note_on_c, 14, 29, 0
14, 62340, Note_on_c, 14, 27, 100
14, 62399, Note_on_c, 14, 27, 0
14, 62400, Note_on_c, 14, 26, 100
14, 62519, Note_on_c, 14, 26, 0
14, 62520, Note_on_c, 14, 27, 100
14, 62579, Note_on_c, 14, 27, 0
14, 62580, Note_on_c, 14, 29, 100
14, 62699, Note_on_c, 14, 29, 0
14, 62700, Note_on_c, 14, 41, 100
14, 62759, Note_on_c, 14, 41, 0
14, 62760, Note_on_c, 14, 39, 100
14, 62879, Note_on_c, 14, 39, 0
14, 62880, Note_on_c, 14, 38, 100
14, 62939, Note_on_c, 14, 38, 0
14, 62940, Note_on_c, 14, 36, 100
14, 63059, Note_on_c, 14, 36, 0
14, 63060, Note_on_c, 14, 34, 100
14, 63119, Note_on_c, 14, 34, 0
14, 63120, Note_on_c, 14, 33, 100
14, 63179, Note_on_c, 14, 33, 0
14, 63180, Note_on_c, 14, 29, 100
14, 63239, Note_on_c, 14, 29, 0
14, 63240, Note_on_c, 14, 33, 100
14, 63299, Note_on_c, 14, 33, 0
14, 63300, Note_on_c, 14, 34, 100
14, 63359, Note_on_c, 14, 34, 0
14, 63360, Note_on_c, 14, 38, 100
14, 63419, Note_on_c, 14, 38, 0
14, 63420, Note_on_c, 14, 41, 100
14, 63479, Note_on_c, 14, 41, 0
14, 63480, Note_on_c, 14, 40, 100
14, 63539, Note_on_c, 14, 40, 0
14, 63540, Note_on_c, 14, 36, 100
14, 63599, Note_on_c, 14, 36, 0
14, 63600, Note_on_c, 14, 40, 100
14, 63659, Note_on_c, 14, 40, 0
14, 63660, Note_on_c, 14, 29, 100
14, 63779, Note_on_c, 14, 29, 0
14, 63780, Note_on_c, 14, 31, 100
14, 63839, Note_on_c, 14, 31, 0
14, 63840, Note_on_c, 14, 32, 100
14, 63959, Note_on_c, 14, 32, 0
14, 63960, Note_on_c, 14, 34, 100
14, 64019, Note_on_c, 14, 34, 0
14, 64020, Note_on_c, 14, 36, 100
14, 64139, Note_on_c, 14, 36, 0
14, 64140, Note_on_c, 14, 48, 100
14, 64199, Note_on_c, 14, 48, 0
14, 64200, Note_on_c, 14, 46, 100
14, 64319, Note_on_c, 14, 46, 0
14, 64320, Note_on_c, 14, 44, 100
14, 64379, Note_on_c, 14, 44, 0
14, 64380, Note_on_c, 14, 43, 100
14, 64499, Note_on_c, 14, 43, 0
14, 64500, Note_on_c, 14, 41, 100
14, 64559, Note_on_c, 14, 41, 0
14, 64560, Note_on_c, 14, 40, 100
14, 64619, Note_on_c, 14, 40, 0
14, 64620, Note_on_c, 14, 36, 100
14, 64679, Note_on_c, 14, 36, 0
14, 64680, Note_on_c, 14, 40, 100
14, 64739, Note_on_c, 14, 40, 0
14, 64740, Note_on_c, 14, 29, 100
14, 64799, Note_on_c, 14, 29, 0
14, 64800, Note_on_c, 14, 41, 100
14, 64859, Note_on_c, 14, 41, 0
14, 64860, Note_on_c, 14, 39, 100
14, 64919, Note_on_c, 14, 39, 0
14, 64920, Note_on_c, 14, 38, 100
14, 64979, Note_on_c, 14, 38, 0
14, 64980, Note_on_c, 14, 35, 100
14, 65039, Note_on_c, 14, 35, 0
14, 65040, Note_on_c, 14, 31, 100
14, 65099, Note_on_c, 14, 31, 0
14, 65100, Note_on_c, 14, 36, 100
14, 65159, Note_on_c, 14, 36, 0
14, 65160, Note_on_c, 14, 48, 100
14, 65219, Note_on_c, 14, 48, 0
14, 65220, Note_on_c, 14, 46, 100
14, 65279, Note_on_c, 14, 46, 0
14, 65280, Note_on_c, 14, 45, 100
14, 65339, Note_on_c, 14, 45, 0
14, 65340, Note_on_c, 14, 42, 100
14, 65399, Note_on_c, 14, 42, 0
14, 65400, Note_on_c, 14, 38, 100
14, 65459, Note_on_c, 14, 38, 0
14, 65460, Note_on_c, 14, 31, 100
14, 65579, Note_on_c, 14, 31, 0
14, 65580, Note_on_c, 14, 29, 100
14, 65639, Note_on_c, 14, 29, 0
14, 65640, Note_on_c, 14, 27, 100
14, 65699, Note_on_c, 14, 27, 0
14, 65700, Note_on_c, 14, 39, 100
14, 65759, Note_on_c, 14, 39, 0
14, 65760, Note_on_c, 14, 36, 100
14, 65819, Note_on_c, 14, 36, 0
14, 65820, Note_on_c, 14, 38, 100
14, 65939, Note_on_c, 14, 38, 0
14, 65940, Note_on_c, 14, 36, 100
14, 65999, Note_on_c, 14, 36, 0
14, 66000, Note_on_c, 14, 34, 100
14, 66119, Note_on_c, 14, 34, 0
14, 66120, Note_on_c, 14, 31, 100
14, 66179, Note_on_c, 14, 31, 0
14, 66180, Note_on_c, 14, 26, 100
14, 66299, Note_on_c, 14, 26, 0
14, 66300, Note_on_c, 14, 38, 100
14, 66359, Note_on_c, 14, 38, 0
14, 66360, Note_on_c, 14, 36, 100
14, 66479, Note_on_c, 14, 36, 0
14, 66480, Note_on_c, 14, 34, 100
14, 66539, Note_on_c, 14, 34, 0
14, 66540, Note_on_c, 14, 33, 100
14, 66659, Note_on_c, 14, 33, 0
14, 66660, Note_on_c, 14, 31, 100
14, 66719, Note_on_c, 14, 31, 0
14, 66720, Note_on_c, 14, 30, 100
14, 66779, Note_on_c, 14, 30, 0
14, 66780, Note_on_c, 14, 26, 100
14, 66839, Note_on_c, 14, 26, 0
14, 66840, Note_on_c, 14, 30, 100
14, 66899, Note_on_c, 14, 30, 0
14, 66900, Note_on_c, 14, 31, 100
14, 67019, Note_on_c, 14, 31, 0
14, 67020, Note_on_c, 14, 33, 100
14, 67079, Note_on_c, 14, 33, 0
14, 67080, Note_on_c, 14, 34, 100
14, 67199, Note_on_c, 14, 34, 0
14, 67200, Note_on_c, 14, 36, 100
14, 67259, Note_on_c, 14, 36, 0
14, 67260, Note_on_c, 14, 38, 100
14, 67379, Note_on_c, 14, 38, 0
14, 67380, Note_on_c, 14, 50, 100
14, 67439, Note_on_c, 14, 50, 0
14, 67440, Note_on_c, 14, 48, 100
14, 67559, Note_on_c, 14, 48, 0
14, 67560, Note_on_c, 14, 46, 100
14, 67619, Note_on_c, 14, 46, 0
14, 67620, Note_on_c, 14, 45, 100
14, 67739, Note_on_c, 14, 45, 0
14, 67740, Note_on_c, 14, 43, 100
14, 67799, Note_on_c, 14, 43, 0
14, 67800, Note_on_c, 14, 42, 100
14, 67859, Note_on_c, 14, 42, 0
14, 67860, Note_on_c, 14, 38, 100
14, 67919, Note_on_c, 14, 38, 0
14, 67920, Note_on_c, 14, 42, 100
14, 67979, Note_on_c, 14, 42, 0
14, 67980, Note_on_c, 14, 43, 100
14, 68099, Note_on_c, 14, 43, 0
14, 68100, Note_on_c, 14, 41, 100
14, 68159, Note_on_c, 14, 41, 0
14, 68160, Note_on_c, 14, 39, 100
14, 68279, Note_on_c, 14, 39, 0
14, 68280, Note_on_c, 14, 38, 100
14, 68339, Note_on_c, 14, 38, 0
14, 68340, Note_on_c, 14, 36, 100
14, 68459, Note_on_c, 14, 36, 0
14, 68460, Note_on_c, 14, 24, 100
14, 68519, Note_on_c, 14, 24, 0
14, 68520, Note_on_c, 14, 26, 100
14, 68639, Note_on_c, 14, 26, 0
14, 68640, Note_on_c, 14, 38, 100
14, 68699, Note_on_c, 14, 38, 0
14, 68700, Note_on_c, 14, 39, 100
14, 68820, Note_on_c, 14, 39, 0
14, 68820, Note_on_c, 14, 27, 100
14, 68879, Note_on_c, 14, 27, 0
14, 68880, Note_on_c, 14, 26, 100
14, 69000, Note_on_c, 14, 26, 0
14, 69000, Note_on_c, 14, 24, 100
14, 69059, Note_on_c, 14, 24, 0
14, 69060, Note_on_c, 14, 26, 100
14, 69180, Note_on_c, 14, 26, 0
14, 69180, Note_on_c, 14, 36, 100
14, 69239, Note_on_c, 14, 36, 0
14, 69240, Note_on_c, 14, 38, 100
14, 69360, Note_on_c, 14, 38, 0
14, 69360, Note_on_c, 14, 26, 100
14, 69419, Note_on_c, 14, 26, 0
14, 69420, Note_on_c, 14, 31, 100
14, 69539, Note_on_c, 14, 31, 0
14, 69540, Note_on_c, 14, 33, 100
14, 69599, Note_on_c, 14, 33, 0
14, 69600, Note_on_c, 14, 34, 100
14, 69659, Note_on_c, 14, 34, 0
14, 69660, Note_on_c, 14, 33, 100
14, 69719, Note_on_c, 14, 33, 0
14, 69720, Note_on_c, 14, 31, 100
14, 69779, Note_on_c, 14, 31, 0
14, 69780, Note_on_c, 14, 36, 100
14, 69899, Note_on_c, 14, 36, 0
14, 69900, Note_on_c, 14, 38, 100
14, 69959, Note_on_c, 14, 38, 0
14, 69960, Note_on_c, 14, 40, 100
14, 70079, Note_on_c, 14, 40, 0
14, 70080, Note_on_c, 14, 41, 100
14, 70139, Note_on_c, 14, 41, 0
14, 70140, Note_on_c, 14, 43, 100
14, 70259, Note_on_c, 14, 43, 0
14, 70260, Note_on_c, 14, 41, 100
14, 70319, Note_on_c, 14, 41, 0
14, 70320, Note_on_c, 14, 40, 100
14, 70439, Note_on_c, 14, 40, 0
14, 70440, Note_on_c, 14, 36, 100
14, 70499, Note_on_c, 14, 36, 0
14, 70500, Note_on_c, 14, 29, 100
14, 70619, Note_on_c, 14, 29, 0
14, 70620, Note_on_c, 14, 31, 100
14, 70679, Note_on_c, 14, 31, 0
14, 70680, Note_on_c, 14, 33, 100
14, 70799, Note_on_c, 14, 33, 0
14, 70800, Note_on_c, 14, 34, 100
14, 70859, Note_on_c, 14, 34, 0
14, 70860, Note_on_c, 14, 36, 100
14, 70979, Note_on_c, 14, 36, 0
14, 70980, Note_on_c, 14, 34, 100
14, 71039, Note_on_c, 14, 34, 0
14, 71040, Note_on_c, 14, 33, 100
14, 71159, Note_on_c, 14, 33, 0
14, 71160, Note_on_c, 14, 29, 100
14, 71219, Note_on_c, 14, 29, 0
14, 71220, Note_on_c, 14, 34, 100
14, 71339, Note_on_c, 14, 34, 0
14, 71340, Note_on_c, 14, 36, 100
14, 71399, Note_on_c, 14, 36, 0
14, 71400, Note_on_c, 14, 38, 100
14, 71519, Note_on_c, 14, 38, 0
14, 71520, Note_on_c, 14, 39, 100
14, 71579, Note_on_c, 14, 39, 0
14, 71580, Note_on_c, 14, 41, 100
14, 71699, Note_on_c, 14, 41, 0
14, 71700, Note_on_c, 14, 39, 100
14, 71759, Note_on_c, 14, 39, 0
14, 71760, Note_on_c, 14, 38, 100
14, 71879, Note_on_c, 14, 38, 0
14, 71880, Note_on_c, 14, 34, 100
14, 71939, Note_on_c, 14, 34, 0
14, 71940, Note_on_c, 14, 27, 100
14, 72059, Note_on_c, 14, 27, 0
14, 72060, Note_on_c, 14, 29, 100
14, 72119, Note_on_c, 14, 29, 0
14, 72120, Note_on_c, 14, 31, 100
14, 72239, Note_on_c, 14, 31, 0
14, 72240, Note_on_c, 14, 32, 100
14, 72299, Note_on_c, 14, 32, 0
14, 72300, Note_on_c, 14, 34, 100
14, 72419, Note_on_c, 14, 34, 0
14, 72420, Note_on_c, 14, 32, 100
14, 72479, Note_on_c, 14, 32, 0
14, 72480, Note_on_c, 14, 31, 100
14, 72599, Note_on_c, 14, 31, 0
14, 72600, Note_on_c, 14, 39, 100
14, 72659, Note_on_c, 14, 39, 0
14, 72660, Note_on_c, 14, 44, 100
14, 72779, Note_on_c, 14, 44, 0
14, 72780, Note_on_c, 14, 43, 100
14, 72839, Note_on_c, 14, 43, 0
14, 72840, Note_on_c, 14, 41, 100
14, 72959, Note_on_c, 14, 41, 0
14, 72960, Note_on_c, 14, 39, 100
14, 73019, Note_on_c, 14, 39, 0
14, 73020, Note_on_c, 14, 38, 100
14, 73139, Note_on_c, 14, 38, 0
14, 73140, Note_on_c, 14, 34, 100
14, 73199, Note_on_c, 14, 34, 0
14, 73200, Note_on_c, 14, 39, 100
14, 73319, Note_on_c, 14, 39, 0
14, 73320, Note_on_c, 14, 27, 100
14, 73379, Note_on_c, 14, 27, 0
14, 73380, Note_on_c, 14, 32, 100
14, 73499, Note_on_c, 14, 32, 0
14, 73500, Note_on_c, 14, 39, 100
14, 73559, Note_on_c, 14, 39, 0
14, 73560, Note_on_c, 14, 44, 100
14, 73860, Note_on_c, 14, 44, 0
14, 73860, Note_on_c, 14, 32, 100
14, 73919, Note_on_c, 14, 32, 0
14, 73920, Note_on_c, 14, 31, 100
14, 74039, Note_on_c, 14, 31, 0
14, 74040, Note_on_c, 14, 32, 100
14, 74099, Note_on_c, 14, 32, 0
14, 74100, Note_on_c, 14, 34, 100
14, 74219, Note_on_c, 14, 34, 0
14, 74220, Note_on_c, 14, 46, 100
14, 74279, Note_on_c, 14, 46, 0
14, 74280, Note_on_c, 14, 44, 100
14, 74399, Note_on_c, 14, 44, 0
14, 74400, Note_on_c, 14, 43, 100
14, 74459, Note_on_c, 14, 43, 0
14, 74460, Note_on_c, 14, 41, 100
14, 74579, Note_on_c, 14, 41, 0
14, 74580, Note_on_c, 14, 39, 100
14, 74639, Note_on_c, 14, 39, 0
14, 74640, Note_on_c, 14, 38, 100
14, 74699, Note_on_c, 14, 38, 0
14, 74700, Note_on_c, 14, 34, 100
14, 74759, Note_on_c, 14, 34, 0
14, 74760, Note_on_c, 14, 38, 100
14, 74819, Note_on_c, 14, 38, 0
14, 74820, Note_on_c, 14, 39, 100
14, 74939, Note_on_c, 14, 39, 0
14, 74940, Note_on_c, 14, 41, 100
14, 74999, Note_on_c, 14, 41, 0
14, 75000, Note_on_c, 14, 43, 100
14, 75119, Note_on_c, 14, 43, 0
14, 75120, Note_on_c, 14, 44, 100
14, 75179, Note_on_c, 14, 44, 0
14, 75180, Note_on_c, 14, 34, 100
14, 75299, Note_on_c, 14, 34, 0
14, 75300, Note_on_c, 14, 46, 100
14, 75359, Note_on_c, 14, 46, 0
14, 75360, Note_on_c, 14, 44, 100
14, 75479, Note_on_c, 14, 44, 0
14, 75480, Note_on_c, 14, 43, 100
14, 75539, Note_on_c, 14, 43, 0
14, 75540, Note_on_c, 14, 41, 100
14, 75659, Note_on_c, 14, 41, 0
14, 75660, Note_on_c, 14, 39, 100
14, 75719, Note_on_c, 14, 39, 0
14, 75720, Note_on_c, 14, 38, 100
14, 75779, Note_on_c, 14, 38, 0
14, 75780, Note_on_c, 14, 34, 100
14, 75839, Note_on_c, 14, 34, 0
14, 75840, Note_on_c, 14, 38, 100
14, 75899, Note_on_c, 14, 38, 0
14, 75900, Note_on_c, 14, 39, 100
14, 76019, Note_on_c, 14, 39, 0
14, 76020, Note_on_c, 14, 38, 100
14, 76079, Note_on_c, 14, 38, 0
14, 76080, Note_on_c, 14, 36, 100
14, 76199, Note_on_c, 14, 36, 0
14, 76200, Note_on_c, 14, 34, 100
14, 76259, Note_on_c, 14, 34, 0
14, 76260, Note_on_c, 14, 32, 100
14, 76379, Note_on_c, 14, 32, 0
14, 76380, Note_on_c, 14, 44, 100
14, 76439, Note_on_c, 14, 44, 0
14, 76440, Note_on_c, 14, 46, 100
14, 76559, Note_on_c, 14, 46, 0
14, 76560, Note_on_c, 14, 34, 100
14, 76619, Note_on_c, 14, 34, 0
14, 76620, Note_on_c, 14, 36, 100
14, 76739, Note_on_c, 14, 36, 0
14, 76740, Note_on_c, 14, 48, 100
14, 76799, Note_on_c, 14, 48, 0
14, 76800, Note_on_c, 14, 46, 100
14, 76919, Note_on_c, 14, 46, 0
14, 76920, Note_on_c, 14, 44, 100
14, 76979, Note_on_c, 14, 44, 0
14, 76980, Note_on_c, 14, 46, 100
14, 77099, Note_on_c, 14, 46, 0
14, 77100, Note_on_c, 14, 44, 100
14, 77159, Note_on_c, 14, 44, 0
14, 77160, Note_on_c, 14, 46, 100
14, 77279, Note_on_c, 14, 46, 0
14, 77280, Note_on_c, 14, 34, 100
14, 77339, Note_on_c, 14, 34, 0
14, 77340, Note_on_c, 14, 39, 100
14, 77459, Note_on_c, 14, 39, 0
14, 77460, Note_on_c, 14, 27, 100
14, 77519, Note_on_c, 14, 27, 0
14, 77520, Note_on_c, 14, 29, 100
14, 77639, Note_on_c, 14, 29, 0
14, 77640, Note_on_c, 14, 31, 100
14, 77699, Note_on_c, 14, 31, 0
14, 77700, Note_on_c, 14, 32, 100
14, 77819, Note_on_c, 14, 32, 0
14, 77820, Note_on_c, 14, 31, 100
14, 77879, Note_on_c, 14, 31, 0
14, 77880, Note_on_c, 14, 32, 100
14, 77999, Note_on_c, 14, 32, 0
14, 78000, Note_on_c, 14, 34, 100
14, 78059, Note_on_c, 14, 34, 0
14, 78060, Note_on_c, 14, 36, 100
14, 78179, Note_on_c, 14, 36, 0
14, 78180, Note_on_c, 14, 32, 100
14, 78239, Note_on_c, 14, 32, 0
14, 78240, Note_on_c, 14, 39, 100
14, 78359, Note_on_c, 14, 39, 0
14, 78360, Note_on_c, 14, 36, 100
14, 78419, Note_on_c, 14, 36, 0
14, 78420, Note_on_c, 14, 38, 100
14, 78599, Note_on_c, 14, 38, 0
14, 78780, Control_c, 14, 0, 101
14, 78780, Control_c, 14, 0, 101
14, 78780, Program_c, 14, 42
14, 78960, Note_on_c, 14, 26, 100
14, 79140, Note_on_c, 14, 26, 0
14, 79140, Note_on_c, 14, 31, 100
14, 79500, Note_on_c, 14, 31, 0
14, 79500, End_track
15, 0, Start_track
15, 0, MIDI_port, 0
15, 0, Title_t, "J.S.BACH"
15, 0, End_track
16, 0, Start_track
16, 0, MIDI_port, 0
16, 0, Title_t, "BWV 1060"
16, 0, End_track
17, 0, Start_track
17, 0, MIDI_port, 0
17, 0, Title_t, "CONCERTO FOR TWO HARPSICHORD"
17, 0, End_track
18, 0, Start_track
18, 0, MIDI_port, 0
18, 0, Title_t, "IN C MINOR"
18, 0, End_track
19, 0, Start_track
19, 0, MIDI_port, 0
19, 0, Title_t, "SECUENCED BY"
19, 0, End_track
20, 0, Start_track
20, 0, MIDI_port, 0
20, 0, Title_t, "MARCELO COPIA M"
20, 0, End_track
21, 0, Start_track
21, 0, MIDI_port, 0
21, 0, Title_t, "mcopia@entelchile.net"
21, 0, End_track
0, 0, End_of_file
