0, 0, Header, 1, 15, 240
1, 0, Start_track
1, 0, Time_signature, 3, 1, 24, 8
1, 0, Tempo, 333333
1, 79596, Tempo, 365854
1, 79872, Tempo, 394737
1, 80388, Tempo, 454545
1, 80496, Tempo, 526316
1, 80640, Tempo, 333333
1, 80640, End_track
2, 0, Start_track
2, 0, Title_t, "Violin1"
2, 0, Program_c, 0, 40
2, 0, Control_c, 0, 7, 100
2, 1301, Note_on_c, 0, 72, 98
2, 1348, Note_off_c, 0, 72, 64
2, 1422, Note_on_c, 0, 72, 95
2, 1542, Note_on_c, 0, 71, 68
2, 1569, Note_off_c, 0, 72, 64
2, 1675, Note_on_c, 0, 72, 80
2, 1680, Note_off_c, 0, 71, 64
2, 1783, Note_on_c, 0, 74, 80
2, 1788, Note_off_c, 0, 72, 64
2, 1888, Note_off_c, 0, 74, 64
2, 1901, Note_on_c, 0, 76, 82
2, 2087, Note_off_c, 0, 76, 64
2, 2253, Note_on_c, 0, 77, 80
2, 2310, Note_off_c, 0, 77, 64
2, 2381, Note_on_c, 0, 76, 89
2, 2437, Note_on_c, 0, 74, 95
2, 2450, Note_off_c, 0, 76, 64
2, 2485, Note_on_c, 0, 76, 63
2, 2487, Note_off_c, 0, 74, 64
2, 2543, Note_on_c, 0, 74, 76
2, 2560, Note_off_c, 0, 76, 64
2, 2617, Note_off_c, 0, 74, 64
2, 2746, Note_on_c, 0, 72, 64
2, 2806, Note_off_c, 0, 72, 64
2, 2871, Note_on_c, 0, 79, 85
2, 3523, Note_off_c, 0, 79, 64
2, 3594, Note_on_c, 0, 77, 78
2, 3681, Note_off_c, 0, 77, 64
2, 3692, Note_on_c, 0, 76, 78
2, 3782, Note_off_c, 0, 76, 64
2, 3827, Note_on_c, 0, 77, 78
2, 4052, Note_off_c, 0, 77, 64
2, 4187, Note_on_c, 0, 79, 72
2, 4238, Note_off_c, 0, 79, 64
2, 4312, Note_on_c, 0, 81, 80
2, 4559, Note_off_c, 0, 81, 64
2, 4641, Note_on_c, 0, 79, 76
2, 4708, Note_off_c, 0, 79, 64
2, 4778, Note_on_c, 0, 77, 80
2, 5002, Note_off_c, 0, 77, 64
2, 5022, Note_on_c, 0, 76, 80
2, 5108, Note_off_c, 0, 76, 64
2, 5128, Note_on_c, 0, 74, 74
2, 5208, Note_off_c, 0, 74, 64
2, 5263, Note_on_c, 0, 76, 76
2, 5493, Note_off_c, 0, 76, 64
2, 5611, Note_on_c, 0, 77, 68
2, 5664, Note_off_c, 0, 77, 64
2, 5766, Note_on_c, 0, 72, 70
2, 5876, Note_on_c, 0, 71, 60
2, 5887, Note_off_c, 0, 72, 64
2, 5998, Note_off_c, 0, 71, 64
2, 5998, Note_on_c, 0, 69, 51
2, 6110, Note_on_c, 0, 67, 64
2, 6125, Note_off_c, 0, 69, 64
2, 6217, Note_off_c, 0, 67, 64
2, 6233, Note_on_c, 0, 69, 68
2, 6343, Note_on_c, 0, 71, 82
2, 6363, Note_off_c, 0, 69, 64
2, 6459, Note_on_c, 0, 72, 66
2, 6472, Note_off_c, 0, 71, 64
2, 6573, Note_on_c, 0, 74, 74
2, 6611, Note_off_c, 0, 72, 64
2, 6638, Note_off_c, 0, 74, 64
2, 6702, Note_on_c, 0, 76, 82
2, 6797, Note_on_c, 0, 74, 57
2, 6799, Note_off_c, 0, 76, 64
2, 6848, Note_off_c, 0, 74, 64
2, 6848, Note_on_c, 0, 76, 74
2, 6897, Note_on_c, 0, 74, 62
2, 6903, Note_off_c, 0, 76, 64
2, 6932, Note_off_c, 0, 74, 64
2, 6943, Note_on_c, 0, 76, 64
2, 6985, Note_on_c, 0, 74, 70
2, 7006, Note_off_c, 0, 76, 64
2, 7039, Note_on_c, 0, 72, 70
2, 7047, Note_off_c, 0, 74, 64
2, 7090, Note_on_c, 0, 74, 64
2, 7125, Note_off_c, 0, 72, 64
2, 7158, Note_off_c, 0, 74, 64
2, 7165, Note_on_c, 0, 76, 66
2, 7452, Note_off_c, 0, 76, 64
2, 7546, Note_on_c, 0, 74, 66
2, 7597, Note_off_c, 0, 74, 64
2, 7678, Note_on_c, 0, 72, 68
2, 7897, Note_off_c, 0, 72, 64
2, 7918, Note_on_c, 0, 71, 72
2, 7997, Note_off_c, 0, 71, 64
2, 8018, Note_on_c, 0, 69, 68
2, 8092, Note_off_c, 0, 69, 64
2, 8152, Note_on_c, 0, 71, 87
2, 8402, Note_off_c, 0, 71, 64
2, 8502, Note_on_c, 0, 72, 78
2, 8548, Note_off_c, 0, 72, 64
2, 8635, Note_on_c, 0, 74, 93
2, 8942, Note_off_c, 0, 74, 64
2, 8978, Note_on_c, 0, 76, 80
2, 9068, Note_off_c, 0, 76, 64
2, 9101, Note_on_c, 0, 78, 80
2, 9181, Note_off_c, 0, 78, 64
2, 9345, Note_on_c, 0, 79, 85
2, 9403, Note_off_c, 0, 79, 64
2, 9587, Note_on_c, 0, 69, 98
2, 9887, Note_off_c, 0, 69, 64
2, 9927, Note_on_c, 0, 71, 78
2, 10007, Note_off_c, 0, 71, 64
2, 10055, Note_on_c, 0, 72, 80
2, 10310, Note_off_c, 0, 72, 64
2, 10403, Note_on_c, 0, 74, 68
2, 10483, Note_off_c, 0, 74, 64
2, 10543, Note_on_c, 0, 72, 80
2, 10662, Note_on_c, 0, 71, 78
2, 10698, Note_off_c, 0, 72, 64
2, 10777, Note_on_c, 0, 69, 70
2, 10786, Note_off_c, 0, 71, 64
2, 10884, Note_off_c, 0, 69, 64
2, 10884, Note_on_c, 0, 67, 80
2, 10948, Note_off_c, 0, 67, 64
2, 11016, Note_on_c, 0, 67, 76
2, 11134, Note_on_c, 0, 66, 57
2, 11139, Note_off_c, 0, 67, 64
2, 11187, Note_off_c, 0, 66, 64
2, 11188, Note_on_c, 0, 67, 82
2, 11236, Note_on_c, 0, 66, 70
2, 11266, Note_off_c, 0, 67, 64
2, 11368, Note_on_c, 0, 67, 72
2, 11369, Note_off_c, 0, 66, 64
2, 11432, Note_off_c, 0, 67, 64
2, 11508, Note_on_c, 0, 67, 70
2, 12524, Note_off_c, 0, 67, 64
2, 12807, Note_on_c, 0, 72, 74
2, 12862, Note_off_c, 0, 72, 64
2, 12944, Note_on_c, 0, 72, 85
2, 13064, Note_on_c, 0, 71, 68
2, 13088, Note_off_c, 0, 72, 64
2, 13187, Note_on_c, 0, 72, 82
2, 13194, Note_off_c, 0, 71, 64
2, 13294, Note_on_c, 0, 74, 78
2, 13299, Note_off_c, 0, 72, 64
2, 13421, Note_off_c, 0, 74, 64
2, 13425, Note_on_c, 0, 76, 82
2, 13613, Note_off_c, 0, 76, 64
2, 13772, Note_on_c, 0, 77, 85
2, 13850, Note_off_c, 0, 77, 64
2, 13916, Note_on_c, 0, 76, 82
2, 13980, Note_on_c, 0, 74, 82
2, 13985, Note_off_c, 0, 76, 64
2, 14025, Note_on_c, 0, 76, 66
2, 14031, Note_off_c, 0, 74, 64
2, 14087, Note_on_c, 0, 74, 64
2, 14100, Note_off_c, 0, 76, 64
2, 14169, Note_off_c, 0, 74, 64
2, 14266, Note_on_c, 0, 72, 80
2, 14337, Note_off_c, 0, 72, 64
2, 14394, Note_on_c, 0, 79, 87
2, 15032, Note_off_c, 0, 79, 64
2, 15103, Note_on_c, 0, 77, 80
2, 15196, Note_off_c, 0, 77, 64
2, 15200, Note_on_c, 0, 76, 76
2, 15306, Note_off_c, 0, 76, 64
2, 15349, Note_on_c, 0, 77, 87
2, 15616, Note_off_c, 0, 77, 64
2, 15709, Note_on_c, 0, 79, 74
2, 15785, Note_off_c, 0, 79, 64
2, 15844, Note_on_c, 0, 81, 87
2, 16126, Note_off_c, 0, 81, 64
2, 16183, Note_on_c, 0, 79, 74
2, 16254, Note_off_c, 0, 79, 64
2, 16307, Note_on_c, 0, 77, 78
2, 16510, Note_off_c, 0, 77, 64
2, 16553, Note_on_c, 0, 76, 76
2, 16637, Note_off_c, 0, 76, 64
2, 16661, Note_on_c, 0, 74, 70
2, 16730, Note_off_c, 0, 74, 64
2, 16792, Note_on_c, 0, 76, 89
2, 17048, Note_off_c, 0, 76, 64
2, 17140, Note_on_c, 0, 77, 78
2, 17201, Note_off_c, 0, 77, 64
2, 17288, Note_on_c, 0, 72, 85
2, 17392, Note_on_c, 0, 71, 63
2, 17429, Note_off_c, 0, 72, 64
2, 17511, Note_on_c, 0, 69, 66
2, 17531, Note_off_c, 0, 71, 64
2, 17624, Note_on_c, 0, 67, 70
2, 17653, Note_off_c, 0, 69, 64
2, 17744, Note_off_c, 0, 67, 64
2, 17746, Note_on_c, 0, 69, 76
2, 17857, Note_on_c, 0, 71, 78
2, 17892, Note_off_c, 0, 69, 64
2, 17978, Note_on_c, 0, 72, 62
2, 18005, Note_off_c, 0, 71, 64
2, 18096, Note_on_c, 0, 74, 82
2, 18131, Note_off_c, 0, 72, 64
2, 18166, Note_off_c, 0, 74, 64
2, 18228, Note_on_c, 0, 76, 82
2, 18323, Note_on_c, 0, 74, 56
2, 18330, Note_off_c, 0, 76, 64
2, 18374, Note_off_c, 0, 74, 64
2, 18375, Note_on_c, 0, 76, 68
2, 18427, Note_off_c, 0, 76, 64
2, 18427, Note_on_c, 0, 74, 68
2, 18467, Note_off_c, 0, 74, 64
2, 18471, Note_on_c, 0, 76, 66
2, 18512, Note_on_c, 0, 74, 74
2, 18536, Note_off_c, 0, 76, 64
2, 18569, Note_on_c, 0, 72, 63
2, 18580, Note_off_c, 0, 74, 64
2, 18621, Note_on_c, 0, 74, 74
2, 18651, Note_off_c, 0, 72, 64
2, 18678, Note_off_c, 0, 74, 64
2, 18691, Note_on_c, 0, 76, 76
2, 18976, Note_off_c, 0, 76, 64
2, 19059, Note_on_c, 0, 74, 63
2, 19114, Note_off_c, 0, 74, 64
2, 19191, Note_on_c, 0, 72, 78
2, 19422, Note_off_c, 0, 72, 64
2, 19433, Note_on_c, 0, 71, 80
2, 19510, Note_off_c, 0, 71, 64
2, 19534, Note_on_c, 0, 69, 82
2, 19607, Note_off_c, 0, 69, 64
2, 19667, Note_on_c, 0, 71, 87
2, 19924, Note_off_c, 0, 71, 64
2, 20021, Note_on_c, 0, 72, 80
2, 20064, Note_off_c, 0, 72, 64
2, 20148, Note_on_c, 0, 74, 98
2, 20457, Note_off_c, 0, 74, 64
2, 20493, Note_on_c, 0, 76, 85
2, 20586, Note_off_c, 0, 76, 64
2, 20623, Note_on_c, 0, 78, 100
2, 20725, Note_off_c, 0, 78, 64
2, 20871, Note_on_c, 0, 79, 102
2, 20940, Note_off_c, 0, 79, 64
2, 21122, Note_on_c, 0, 69, 87
2, 21409, Note_off_c, 0, 69, 64
2, 21467, Note_on_c, 0, 71, 72
2, 21542, Note_off_c, 0, 71, 64
2, 21597, Note_on_c, 0, 72, 82
2, 21839, Note_off_c, 0, 72, 64
2, 21918, Note_on_c, 0, 74, 72
2, 21989, Note_off_c, 0, 74, 64
2, 22060, Note_on_c, 0, 72, 85
2, 22180, Note_on_c, 0, 71, 70
2, 22220, Note_off_c, 0, 72, 64
2, 22306, Note_on_c, 0, 69, 80
2, 22321, Note_off_c, 0, 71, 64
2, 22414, Note_on_c, 0, 67, 64
2, 22427, Note_off_c, 0, 69, 64
2, 22481, Note_off_c, 0, 67, 64
2, 22533, Note_on_c, 0, 67, 80
2, 22651, Note_on_c, 0, 66, 60
2, 22658, Note_off_c, 0, 67, 64
2, 22704, Note_off_c, 0, 66, 64
2, 22704, Note_on_c, 0, 67, 78
2, 22751, Note_on_c, 0, 66, 68
2, 22782, Note_off_c, 0, 67, 64
2, 22897, Note_on_c, 0, 67, 74
2, 22903, Note_off_c, 0, 66, 64
2, 22965, Note_off_c, 0, 67, 64
2, 23045, Note_on_c, 0, 67, 76
2, 24039, Note_off_c, 0, 67, 64
2, 53152, Note_on_c, 0, 74, 82
2, 53203, Note_off_c, 0, 74, 64
2, 53270, Note_on_c, 0, 74, 93
2, 53388, Note_on_c, 0, 72, 72
2, 53413, Note_off_c, 0, 74, 64
2, 53515, Note_on_c, 0, 74, 76
2, 53520, Note_off_c, 0, 72, 64
2, 53624, Note_on_c, 0, 76, 76
2, 53630, Note_off_c, 0, 74, 64
2, 53728, Note_off_c, 0, 76, 64
2, 53741, Note_on_c, 0, 77, 85
2, 53936, Note_off_c, 0, 77, 64
2, 54087, Note_on_c, 0, 79, 76
2, 54155, Note_off_c, 0, 79, 64
2, 54217, Note_on_c, 0, 77, 87
2, 54263, Note_on_c, 0, 76, 76
2, 54273, Note_off_c, 0, 77, 64
2, 54312, Note_on_c, 0, 77, 57
2, 54328, Note_off_c, 0, 76, 64
2, 54370, Note_on_c, 0, 76, 66
2, 54387, Note_off_c, 0, 77, 64
2, 54447, Note_off_c, 0, 76, 64
2, 54567, Note_on_c, 0, 74, 68
2, 54651, Note_off_c, 0, 74, 64
2, 54697, Note_on_c, 0, 81, 82
2, 55311, Note_off_c, 0, 81, 64
2, 55430, Note_on_c, 0, 79, 82
2, 55528, Note_off_c, 0, 79, 64
2, 55531, Note_on_c, 0, 77, 68
2, 55620, Note_off_c, 0, 77, 64
2, 55658, Note_on_c, 0, 79, 87
2, 55913, Note_off_c, 0, 79, 64
2, 56012, Note_on_c, 0, 81, 76
2, 56072, Note_off_c, 0, 81, 64
2, 56149, Note_on_c, 0, 82, 87
2, 56411, Note_off_c, 0, 82, 64
2, 56495, Note_on_c, 0, 81, 76
2, 56548, Note_off_c, 0, 81, 64
2, 56625, Note_on_c, 0, 79, 91
2, 56811, Note_off_c, 0, 79, 64
2, 56862, Note_on_c, 0, 77, 72
2, 56940, Note_off_c, 0, 77, 64
2, 56960, Note_on_c, 0, 76, 64
2, 57034, Note_off_c, 0, 76, 64
2, 57086, Note_on_c, 0, 77, 76
2, 57334, Note_off_c, 0, 77, 64
2, 57447, Note_on_c, 0, 79, 80
2, 57530, Note_off_c, 0, 79, 64
2, 57580, Note_on_c, 0, 74, 93
2, 57690, Note_on_c, 0, 73, 66
2, 57717, Note_off_c, 0, 74, 64
2, 57797, Note_on_c, 0, 71, 59
2, 57825, Note_off_c, 0, 73, 64
2, 57916, Note_on_c, 0, 69, 62
2, 57925, Note_off_c, 0, 71, 64
2, 58051, Note_on_c, 0, 71, 59
2, 58080, Note_off_c, 0, 69, 64
2, 58179, Note_on_c, 0, 73, 57
2, 58196, Note_off_c, 0, 71, 64
2, 58286, Note_off_c, 0, 73, 64
2, 58294, Note_on_c, 0, 74, 74
2, 58398, Note_on_c, 0, 76, 78
2, 58412, Note_off_c, 0, 74, 64
2, 58483, Note_off_c, 0, 76, 64
2, 58527, Note_on_c, 0, 77, 85
2, 58607, Note_on_c, 0, 76, 58
2, 58616, Note_off_c, 0, 77, 64
2, 58666, Note_on_c, 0, 77, 74
2, 58667, Note_off_c, 0, 76, 64
2, 58709, Note_on_c, 0, 76, 64
2, 58717, Note_off_c, 0, 77, 64
2, 58748, Note_off_c, 0, 76, 64
2, 58751, Note_on_c, 0, 77, 66
2, 58790, Note_on_c, 0, 76, 72
2, 58813, Note_off_c, 0, 77, 64
2, 58857, Note_off_c, 0, 76, 64
2, 58857, Note_on_c, 0, 74, 66
2, 58908, Note_on_c, 0, 76, 70
2, 58950, Note_off_c, 0, 74, 64
2, 58992, Note_on_c, 0, 77, 89
2, 58999, Note_off_c, 0, 76, 64
2, 59266, Note_off_c, 0, 77, 64
2, 59364, Note_on_c, 0, 76, 68
2, 59432, Note_off_c, 0, 76, 64
2, 59496, Note_on_c, 0, 74, 82
2, 59704, Note_off_c, 0, 74, 64
2, 59729, Note_on_c, 0, 72, 80
2, 59809, Note_off_c, 0, 72, 64
2, 59826, Note_on_c, 0, 71, 62
2, 59908, Note_off_c, 0, 71, 64
2, 59966, Note_on_c, 0, 72, 85
2, 60240, Note_off_c, 0, 72, 64
2, 60318, Note_on_c, 0, 74, 82
2, 60386, Note_off_c, 0, 74, 64
2, 60442, Note_on_c, 0, 76, 78
2, 60710, Note_off_c, 0, 76, 64
2, 60792, Note_on_c, 0, 78, 66
2, 60880, Note_off_c, 0, 78, 64
2, 60920, Note_on_c, 0, 80, 100
2, 60997, Note_off_c, 0, 80, 64
2, 61166, Note_on_c, 0, 81, 91
2, 61239, Note_off_c, 0, 81, 64
2, 61403, Note_on_c, 0, 71, 80
2, 61695, Note_off_c, 0, 71, 64
2, 61763, Note_on_c, 0, 72, 78
2, 61839, Note_off_c, 0, 72, 64
2, 61887, Note_on_c, 0, 74, 85
2, 62137, Note_off_c, 0, 74, 64
2, 62233, Note_on_c, 0, 76, 74
2, 62306, Note_off_c, 0, 76, 64
2, 62359, Note_on_c, 0, 72, 64
2, 62626, Note_off_c, 0, 72, 64
2, 62726, Note_on_c, 0, 71, 64
2, 62797, Note_off_c, 0, 71, 64
2, 62874, Note_on_c, 0, 72, 63
2, 62959, Note_on_c, 0, 71, 60
2, 62978, Note_off_c, 0, 72, 64
2, 63014, Note_on_c, 0, 72, 68
2, 63021, Note_off_c, 0, 71, 64
2, 63058, Note_on_c, 0, 71, 63
2, 63083, Note_off_c, 0, 72, 64
2, 63184, Note_off_c, 0, 71, 64
2, 63186, Note_on_c, 0, 69, 78
2, 63266, Note_off_c, 0, 69, 64
2, 63326, Note_on_c, 0, 69, 68
2, 63926, Note_off_c, 0, 69, 64
2, 63935, Note_on_c, 0, 71, 82
2, 64039, Note_on_c, 0, 72, 66
2, 64050, Note_off_c, 0, 71, 64
2, 64152, Note_on_c, 0, 74, 78
2, 64180, Note_off_c, 0, 72, 64
2, 64242, Note_off_c, 0, 74, 64
2, 64273, Note_on_c, 0, 76, 80
2, 64389, Note_on_c, 0, 77, 78
2, 64404, Note_off_c, 0, 76, 64
2, 64479, Note_off_c, 0, 77, 64
2, 64497, Note_on_c, 0, 79, 68
2, 64541, Note_on_c, 0, 77, 68
2, 64544, Note_off_c, 0, 79, 64
2, 64595, Note_on_c, 0, 79, 68
2, 64603, Note_off_c, 0, 77, 64
2, 64628, Note_on_c, 0, 77, 48
2, 64656, Note_off_c, 0, 79, 64
2, 64665, Note_on_c, 0, 76, 66
2, 64685, Note_off_c, 0, 77, 64
2, 64725, Note_on_c, 0, 77, 80
2, 64761, Note_off_c, 0, 76, 64
2, 64772, Note_on_c, 0, 79, 85
2, 64783, Note_off_c, 0, 77, 64
2, 65024, Note_off_c, 0, 79, 64
2, 65119, Note_on_c, 0, 77, 72
2, 65181, Note_off_c, 0, 77, 64
2, 65252, Note_on_c, 0, 76, 87
2, 65447, Note_off_c, 0, 76, 64
2, 65497, Note_on_c, 0, 74, 66
2, 65588, Note_on_c, 0, 72, 59
2, 65624, Note_off_c, 0, 74, 64
2, 65710, Note_off_c, 0, 72, 64
2, 65730, Note_on_c, 0, 70, 74
2, 65834, Note_off_c, 0, 70, 64
2, 65834, Note_on_c, 0, 69, 64
2, 65951, Note_off_c, 0, 69, 64
2, 65960, Note_on_c, 0, 70, 57
2, 66070, Note_on_c, 0, 67, 63
2, 66084, Note_off_c, 0, 70, 64
2, 66185, Note_off_c, 0, 67, 64
2, 66212, Note_on_c, 0, 69, 78
2, 66507, Note_off_c, 0, 69, 64
2, 66564, Note_on_c, 0, 67, 66
2, 66638, Note_off_c, 0, 67, 64
2, 66699, Note_on_c, 0, 65, 78
2, 66785, Note_off_c, 0, 65, 64
2, 66948, Note_on_c, 0, 69, 82
2, 67016, Note_off_c, 0, 69, 64
2, 67180, Note_on_c, 0, 74, 82
2, 67434, Note_off_c, 0, 74, 64
2, 67521, Note_on_c, 0, 76, 82
2, 67598, Note_off_c, 0, 76, 64
2, 67648, Note_on_c, 0, 77, 91
2, 67915, Note_off_c, 0, 77, 64
2, 68005, Note_on_c, 0, 79, 76
2, 68076, Note_off_c, 0, 79, 64
2, 68136, Note_on_c, 0, 81, 100
2, 68256, Note_on_c, 0, 79, 82
2, 68285, Note_off_c, 0, 81, 64
2, 68375, Note_on_c, 0, 77, 72
2, 68406, Note_off_c, 0, 79, 64
2, 68495, Note_on_c, 0, 76, 68
2, 68528, Note_off_c, 0, 77, 64
2, 68612, Note_on_c, 0, 74, 76
2, 68616, Note_off_c, 0, 76, 64
2, 68705, Note_on_c, 0, 72, 72
2, 68720, Note_off_c, 0, 74, 64
2, 68838, Note_off_c, 0, 72, 64
2, 68844, Note_on_c, 0, 71, 61
2, 68946, Note_on_c, 0, 72, 66
2, 68971, Note_off_c, 0, 71, 64
2, 69011, Note_off_c, 0, 72, 64
2, 69064, Note_on_c, 0, 72, 82
2, 69128, Note_off_c, 0, 72, 64
2, 69128, Note_on_c, 0, 71, 59
2, 69174, Note_on_c, 0, 72, 80
2, 69179, Note_off_c, 0, 71, 64
2, 69221, Note_on_c, 0, 71, 74
2, 69248, Note_off_c, 0, 72, 64
2, 69422, Note_on_c, 0, 72, 78
2, 69429, Note_off_c, 0, 71, 64
2, 69497, Note_off_c, 0, 72, 64
2, 69548, Note_on_c, 0, 74, 78
2, 69732, Note_off_c, 0, 74, 64
2, 69812, Note_on_c, 0, 72, 68
2, 69916, Note_on_c, 0, 71, 66
2, 69940, Note_off_c, 0, 72, 64
2, 70022, Note_off_c, 0, 71, 64
2, 70057, Note_on_c, 0, 69, 76
2, 70164, Note_on_c, 0, 67, 76
2, 70166, Note_off_c, 0, 69, 64
2, 70292, Note_off_c, 0, 67, 64
2, 70299, Note_on_c, 0, 69, 74
2, 70409, Note_on_c, 0, 71, 74
2, 70427, Note_off_c, 0, 69, 64
2, 70487, Note_off_c, 0, 71, 64
2, 70536, Note_on_c, 0, 72, 76
2, 70540, Note_on_c, 0, 71, 80
2, 70558, Note_off_c, 0, 71, 64
2, 70646, Note_on_c, 0, 71, 78
2, 70648, Note_off_c, 0, 72, 64
2, 70757, Note_on_c, 0, 72, 64
2, 70763, Note_off_c, 0, 71, 64
2, 70878, Note_on_c, 0, 74, 80
2, 70886, Note_off_c, 0, 72, 64
2, 70969, Note_off_c, 0, 74, 64
2, 71003, Note_on_c, 0, 76, 82
2, 71220, Note_off_c, 0, 76, 64
2, 71355, Note_on_c, 0, 77, 80
2, 71425, Note_off_c, 0, 77, 64
2, 71494, Note_on_c, 0, 76, 95
2, 71545, Note_on_c, 0, 74, 63
2, 71552, Note_off_c, 0, 76, 64
2, 71587, Note_on_c, 0, 76, 66
2, 71651, Note_off_c, 0, 76, 64
2, 71747, Note_off_c, 0, 74, 64
2, 71860, Note_on_c, 0, 72, 68
2, 71923, Note_off_c, 0, 72, 64
2, 71981, Note_on_c, 0, 79, 85
2, 72617, Note_off_c, 0, 79, 64
2, 72696, Note_on_c, 0, 77, 66
2, 72793, Note_off_c, 0, 77, 64
2, 72793, Note_on_c, 0, 76, 70
2, 72882, Note_off_c, 0, 76, 64
2, 72926, Note_on_c, 0, 77, 87
2, 73170, Note_off_c, 0, 77, 64
2, 73276, Note_on_c, 0, 79, 80
2, 73352, Note_off_c, 0, 79, 64
2, 73405, Note_on_c, 0, 81, 93
2, 73661, Note_off_c, 0, 81, 64
2, 73752, Note_on_c, 0, 79, 80
2, 73830, Note_off_c, 0, 79, 64
2, 73887, Note_on_c, 0, 77, 85
2, 74109, Note_off_c, 0, 77, 64
2, 74139, Note_on_c, 0, 76, 66
2, 74228, Note_off_c, 0, 76, 64
2, 74237, Note_on_c, 0, 74, 66
2, 74319, Note_off_c, 0, 74, 64
2, 74374, Note_on_c, 0, 76, 72
2, 74622, Note_off_c, 0, 76, 64
2, 74711, Note_on_c, 0, 77, 76
2, 74786, Note_off_c, 0, 77, 64
2, 74839, Note_on_c, 0, 79, 89
2, 75106, Note_off_c, 0, 79, 64
2, 75200, Note_on_c, 0, 77, 72
2, 75273, Note_off_c, 0, 77, 64
2, 75330, Note_on_c, 0, 76, 91
2, 75437, Note_on_c, 0, 74, 64
2, 75450, Note_off_c, 0, 76, 64
2, 75539, Note_off_c, 0, 74, 64
2, 75565, Note_on_c, 0, 76, 66
2, 75676, Note_off_c, 0, 76, 64
2, 75680, Note_on_c, 0, 72, 66
2, 75778, Note_off_c, 0, 72, 64
2, 75820, Note_on_c, 0, 74, 78
2, 76067, Note_off_c, 0, 74, 64
2, 76163, Note_on_c, 0, 76, 80
2, 76231, Note_off_c, 0, 76, 64
2, 76289, Note_on_c, 0, 77, 89
2, 76532, Note_off_c, 0, 77, 64
2, 76645, Note_on_c, 0, 76, 68
2, 76714, Note_off_c, 0, 76, 64
2, 76783, Note_on_c, 0, 74, 87
2, 76889, Note_on_c, 0, 72, 64
2, 76900, Note_off_c, 0, 74, 64
2, 76990, Note_off_c, 0, 72, 64
2, 76997, Note_on_c, 0, 71, 60
2, 77110, Note_on_c, 0, 72, 59
2, 77145, Note_off_c, 0, 71, 64
2, 77230, Note_off_c, 0, 72, 64
2, 77252, Note_on_c, 0, 74, 70
2, 77356, Note_on_c, 0, 71, 68
2, 77370, Note_off_c, 0, 74, 64
2, 77467, Note_on_c, 0, 72, 62
2, 77491, Note_off_c, 0, 71, 64
2, 77586, Note_on_c, 0, 74, 68
2, 77591, Note_off_c, 0, 72, 64
2, 77664, Note_off_c, 0, 74, 64
2, 77721, Note_on_c, 0, 67, 78
2, 78018, Note_off_c, 0, 67, 64
2, 78099, Note_on_c, 0, 69, 63
2, 78206, Note_on_c, 0, 71, 64
2, 78228, Note_off_c, 0, 69, 64
2, 78328, Note_off_c, 0, 71, 64
2, 78347, Note_on_c, 0, 72, 87
2, 78456, Note_on_c, 0, 74, 66
2, 78463, Note_off_c, 0, 72, 64
2, 78573, Note_on_c, 0, 76, 74
2, 78576, Note_off_c, 0, 74, 64
2, 78662, Note_off_c, 0, 76, 64
2, 78690, Note_on_c, 0, 77, 82
2, 78799, Note_on_c, 0, 74, 78
2, 78804, Note_off_c, 0, 77, 64
2, 78899, Note_off_c, 0, 74, 64
2, 78925, Note_on_c, 0, 79, 89
2, 79052, Note_off_c, 0, 79, 64
2, 79166, Note_on_c, 0, 76, 85
2, 79437, Note_off_c, 0, 76, 64
2, 79521, Note_on_c, 0, 74, 78
2, 79616, Note_off_c, 0, 74, 64
2, 79660, Note_on_c, 0, 72, 82
2, 79764, Note_on_c, 0, 71, 72
2, 79766, Note_off_c, 0, 72, 64
2, 79848, Note_off_c, 0, 71, 64
2, 79884, Note_on_c, 0, 72, 82
2, 79994, Note_on_c, 0, 69, 68
2, 80003, Note_off_c, 0, 72, 64
2, 80087, Note_off_c, 0, 69, 64
2, 80129, Note_on_c, 0, 72, 64
2, 80224, Note_on_c, 0, 71, 62
2, 80227, Note_off_c, 0, 72, 64
2, 80269, Note_on_c, 0, 72, 74
2, 80271, Note_off_c, 0, 71, 64
2, 80322, Note_on_c, 0, 71, 82
2, 80333, Note_off_c, 0, 72, 64
2, 80364, Note_on_c, 0, 72, 62
2, 80397, Note_off_c, 0, 72, 64
2, 80497, Note_on_c, 0, 72, 85
2, 80512, Note_off_c, 0, 71, 64
2, 80565, Note_off_c, 0, 72, 64
2, 80627, Note_on_c, 0, 72, 68
2, 81597, Note_off_c, 0, 72, 64
2, 81597, End_track
3, 0, Start_track
3, 0, Title_t, "Violin2"
3, 0, Program_c, 1, 40
3, 0, Control_c, 1, 7, 100
3, 1303, Note_on_c, 1, 67, 78
3, 1364, Note_off_c, 1, 67, 64
3, 1431, Note_on_c, 1, 67, 85
3, 1805, Note_off_c, 1, 67, 64
3, 1907, Note_on_c, 1, 72, 82
3, 2195, Note_off_c, 1, 72, 64
3, 2374, Note_on_c, 1, 72, 91
3, 2425, Note_on_c, 1, 71, 68
3, 2431, Note_off_c, 1, 72, 64
3, 2467, Note_on_c, 1, 72, 82
3, 2480, Note_off_c, 1, 71, 64
3, 2524, Note_on_c, 1, 71, 68
3, 2543, Note_off_c, 1, 72, 64
3, 2617, Note_off_c, 1, 71, 64
3, 2726, Note_on_c, 1, 72, 78
3, 2792, Note_off_c, 1, 72, 64
3, 2861, Note_on_c, 1, 72, 87
3, 2980, Note_on_c, 1, 71, 82
3, 2982, Note_off_c, 1, 72, 64
3, 3096, Note_on_c, 1, 72, 66
3, 3109, Note_off_c, 1, 71, 64
3, 3206, Note_on_c, 1, 74, 80
3, 3213, Note_off_c, 1, 72, 64
3, 3306, Note_off_c, 1, 74, 64
3, 3321, Note_on_c, 1, 76, 85
3, 3534, Note_off_c, 1, 76, 64
3, 3580, Note_on_c, 1, 74, 70
3, 3669, Note_off_c, 1, 74, 64
3, 3681, Note_on_c, 1, 72, 66
3, 3757, Note_off_c, 1, 72, 64
3, 3822, Note_on_c, 1, 74, 89
3, 4074, Note_off_c, 1, 74, 64
3, 4171, Note_on_c, 1, 76, 70
3, 4246, Note_off_c, 1, 76, 64
3, 4306, Note_on_c, 1, 77, 87
3, 4497, Note_off_c, 1, 77, 64
3, 4541, Note_on_c, 1, 69, 80
3, 4647, Note_off_c, 1, 69, 64
3, 4772, Note_on_c, 1, 71, 78
3, 4864, Note_off_c, 1, 71, 64
3, 5012, Note_on_c, 1, 74, 87
3, 5096, Note_off_c, 1, 74, 64
3, 5251, Note_on_c, 1, 67, 82
3, 5338, Note_off_c, 1, 67, 64
3, 5495, Note_on_c, 1, 69, 89
3, 5573, Note_off_c, 1, 69, 64
3, 5743, Note_on_c, 1, 62, 82
3, 6307, Note_off_c, 1, 62, 64
3, 6478, Note_on_c, 1, 67, 72
3, 6584, Note_off_c, 1, 67, 64
3, 6715, Note_on_c, 1, 69, 80
3, 6821, Note_off_c, 1, 69, 64
3, 6938, Note_on_c, 1, 67, 66
3, 7033, Note_off_c, 1, 67, 64
3, 7168, Note_on_c, 1, 67, 82
3, 7306, Note_off_c, 1, 67, 64
3, 7410, Note_on_c, 1, 68, 64
3, 7520, Note_off_c, 1, 68, 64
3, 7651, Note_on_c, 1, 69, 82
3, 7757, Note_off_c, 1, 69, 64
3, 7897, Note_on_c, 1, 66, 68
3, 7988, Note_off_c, 1, 66, 64
3, 8132, Note_on_c, 1, 67, 87
3, 8401, Note_off_c, 1, 67, 64
3, 8510, Note_on_c, 1, 69, 76
3, 8576, Note_off_c, 1, 69, 64
3, 8627, Note_on_c, 1, 62, 76
3, 8769, Note_off_c, 1, 62, 64
3, 8869, Note_on_c, 1, 67, 78
3, 8970, Note_off_c, 1, 67, 64
3, 9109, Note_on_c, 1, 69, 66
3, 9240, Note_off_c, 1, 69, 64
3, 9339, Note_on_c, 1, 71, 68
3, 9435, Note_off_c, 1, 71, 64
3, 9592, Note_on_c, 1, 69, 95
3, 9769, Note_off_c, 1, 69, 64
3, 9816, Note_on_c, 1, 67, 70
3, 9951, Note_off_c, 1, 67, 64
3, 10048, Note_on_c, 1, 67, 85
3, 10181, Note_off_c, 1, 67, 64
3, 10289, Note_on_c, 1, 69, 78
3, 10394, Note_off_c, 1, 69, 64
3, 10522, Note_on_c, 1, 67, 87
3, 10657, Note_off_c, 1, 67, 64
3, 10761, Note_on_c, 1, 64, 80
3, 10870, Note_off_c, 1, 64, 64
3, 11018, Note_on_c, 1, 62, 76
3, 11377, Note_off_c, 1, 62, 64
3, 11505, Note_on_c, 1, 62, 85
3, 12530, Note_off_c, 1, 62, 64
3, 12822, Note_on_c, 1, 67, 72
3, 12889, Note_off_c, 1, 67, 64
3, 12941, Note_on_c, 1, 67, 80
3, 13262, Note_off_c, 1, 67, 64
3, 13414, Note_on_c, 1, 72, 82
3, 13659, Note_off_c, 1, 72, 64
3, 13885, Note_on_c, 1, 72, 82
3, 13938, Note_on_c, 1, 71, 95
3, 13947, Note_off_c, 1, 72, 64
3, 13989, Note_on_c, 1, 72, 72
3, 13997, Note_off_c, 1, 71, 64
3, 14044, Note_on_c, 1, 71, 70
3, 14068, Note_off_c, 1, 72, 64
3, 14152, Note_off_c, 1, 71, 64
3, 14247, Note_on_c, 1, 72, 82
3, 14310, Note_off_c, 1, 72, 64
3, 14378, Note_on_c, 1, 72, 91
3, 14493, Note_on_c, 1, 71, 78
3, 14498, Note_off_c, 1, 72, 64
3, 14610, Note_on_c, 1, 72, 80
3, 14617, Note_off_c, 1, 71, 64
3, 14719, Note_on_c, 1, 74, 80
3, 14730, Note_off_c, 1, 72, 64
3, 14817, Note_off_c, 1, 74, 64
3, 14842, Note_on_c, 1, 76, 82
3, 15064, Note_off_c, 1, 76, 64
3, 15093, Note_on_c, 1, 74, 76
3, 15164, Note_off_c, 1, 74, 64
3, 15195, Note_on_c, 1, 72, 89
3, 15270, Note_off_c, 1, 72, 64
3, 15342, Note_on_c, 1, 74, 89
3, 15580, Note_off_c, 1, 74, 64
3, 15688, Note_on_c, 1, 76, 80
3, 15760, Note_off_c, 1, 76, 64
3, 15815, Note_on_c, 1, 77, 98
3, 15957, Note_off_c, 1, 77, 64
3, 16050, Note_on_c, 1, 69, 78
3, 16169, Note_off_c, 1, 69, 64
3, 16291, Note_on_c, 1, 71, 82
3, 16397, Note_off_c, 1, 71, 64
3, 16534, Note_on_c, 1, 74, 89
3, 16638, Note_off_c, 1, 74, 64
3, 16764, Note_on_c, 1, 67, 87
3, 16868, Note_off_c, 1, 67, 64
3, 17021, Note_on_c, 1, 69, 85
3, 17099, Note_off_c, 1, 69, 64
3, 17260, Note_on_c, 1, 62, 78
3, 17880, Note_off_c, 1, 62, 64
3, 17972, Note_on_c, 1, 67, 74
3, 18113, Note_off_c, 1, 67, 64
3, 18201, Note_on_c, 1, 69, 80
3, 18334, Note_off_c, 1, 69, 64
3, 18444, Note_on_c, 1, 67, 68
3, 18562, Note_off_c, 1, 67, 64
3, 18684, Note_on_c, 1, 67, 78
3, 18852, Note_off_c, 1, 67, 64
3, 18927, Note_on_c, 1, 68, 64
3, 19044, Note_off_c, 1, 68, 64
3, 19173, Note_on_c, 1, 69, 80
3, 19279, Note_off_c, 1, 69, 64
3, 19425, Note_on_c, 1, 66, 68
3, 19511, Note_off_c, 1, 66, 64
3, 19660, Note_on_c, 1, 67, 87
3, 19932, Note_off_c, 1, 67, 64
3, 20021, Note_on_c, 1, 69, 80
3, 20096, Note_off_c, 1, 69, 64
3, 20140, Note_on_c, 1, 62, 70
3, 20280, Note_off_c, 1, 62, 64
3, 20375, Note_on_c, 1, 67, 68
3, 20512, Note_off_c, 1, 67, 64
3, 20607, Note_on_c, 1, 69, 66
3, 20751, Note_off_c, 1, 69, 64
3, 20860, Note_on_c, 1, 71, 74
3, 20948, Note_off_c, 1, 71, 64
3, 21094, Note_on_c, 1, 69, 87
3, 21274, Note_off_c, 1, 69, 64
3, 21333, Note_on_c, 1, 67, 66
3, 21448, Note_off_c, 1, 67, 64
3, 21574, Note_on_c, 1, 67, 80
3, 21726, Note_off_c, 1, 67, 64
3, 21811, Note_on_c, 1, 69, 70
3, 21933, Note_off_c, 1, 69, 64
3, 22055, Note_on_c, 1, 67, 85
3, 22183, Note_off_c, 1, 67, 64
3, 22283, Note_on_c, 1, 64, 82
3, 22376, Note_off_c, 1, 64, 64
3, 22535, Note_on_c, 1, 62, 85
3, 22894, Note_off_c, 1, 62, 64
3, 23033, Note_on_c, 1, 62, 82
3, 24040, Note_off_c, 1, 62, 64
3, 53155, Note_on_c, 1, 71, 72
3, 53201, Note_off_c, 1, 71, 64
3, 53278, Note_on_c, 1, 71, 87
3, 53394, Note_on_c, 1, 69, 64
3, 53409, Note_off_c, 1, 71, 64
3, 53506, Note_on_c, 1, 71, 58
3, 53508, Note_off_c, 1, 69, 64
3, 53619, Note_on_c, 1, 73, 53
3, 53628, Note_off_c, 1, 71, 64
3, 53737, Note_off_c, 1, 73, 64
3, 53743, Note_on_c, 1, 74, 80
3, 53923, Note_off_c, 1, 74, 64
3, 54230, Note_on_c, 1, 70, 70
3, 54418, Note_off_c, 1, 70, 64
3, 54708, Note_on_c, 1, 69, 64
3, 54879, Note_off_c, 1, 69, 64
3, 54936, Note_on_c, 1, 74, 68
3, 55034, Note_off_c, 1, 74, 64
3, 55050, Note_on_c, 1, 73, 53
3, 55123, Note_off_c, 1, 73, 64
3, 55156, Note_on_c, 1, 74, 68
3, 56710, Note_off_c, 1, 74, 64
3, 56865, Note_on_c, 1, 69, 66
3, 56973, Note_off_c, 1, 69, 64
3, 57104, Note_on_c, 1, 69, 64
3, 57217, Note_off_c, 1, 69, 64
3, 57358, Note_on_c, 1, 67, 70
3, 57444, Note_off_c, 1, 67, 64
3, 57589, Note_on_c, 1, 64, 78
3, 58222, Note_off_c, 1, 64, 64
3, 58306, Note_on_c, 1, 74, 70
3, 58408, Note_off_c, 1, 74, 64
3, 58532, Note_on_c, 1, 74, 78
3, 58662, Note_off_c, 1, 74, 64
3, 58777, Note_on_c, 1, 73, 74
3, 58879, Note_off_c, 1, 73, 64
3, 59023, Note_on_c, 1, 74, 91
3, 59105, Note_off_c, 1, 74, 64
3, 59260, Note_on_c, 1, 69, 80
3, 59578, Note_off_c, 1, 69, 64
3, 59725, Note_on_c, 1, 68, 72
3, 59824, Note_off_c, 1, 68, 64
3, 59968, Note_on_c, 1, 69, 85
3, 60216, Note_off_c, 1, 69, 64
3, 60325, Note_on_c, 1, 71, 78
3, 60398, Note_off_c, 1, 71, 64
3, 60450, Note_on_c, 1, 64, 72
3, 60559, Note_off_c, 1, 64, 64
3, 60701, Note_on_c, 1, 69, 72
3, 60807, Note_off_c, 1, 69, 64
3, 60940, Note_on_c, 1, 71, 63
3, 61046, Note_off_c, 1, 71, 64
3, 61166, Note_on_c, 1, 72, 68
3, 61270, Note_off_c, 1, 72, 64
3, 61413, Note_on_c, 1, 71, 68
3, 61522, Note_off_c, 1, 71, 64
3, 61663, Note_on_c, 1, 69, 68
3, 61743, Note_off_c, 1, 69, 64
3, 61901, Note_on_c, 1, 69, 80
3, 61969, Note_off_c, 1, 69, 64
3, 62139, Note_on_c, 1, 71, 80
3, 62503, Note_off_c, 1, 71, 64
3, 62616, Note_on_c, 1, 69, 82
3, 62708, Note_on_c, 1, 71, 80
3, 62724, Note_off_c, 1, 69, 64
3, 62777, Note_off_c, 1, 71, 64
3, 62839, Note_on_c, 1, 69, 85
3, 62941, Note_on_c, 1, 68, 66
3, 62947, Note_off_c, 1, 69, 64
3, 62983, Note_off_c, 1, 68, 64
3, 62987, Note_on_c, 1, 69, 76
3, 63032, Note_on_c, 1, 68, 85
3, 63052, Note_off_c, 1, 69, 64
3, 63180, Note_off_c, 1, 68, 64
3, 63186, Note_on_c, 1, 64, 68
3, 63248, Note_off_c, 1, 64, 64
3, 63339, Note_on_c, 1, 64, 66
3, 63893, Note_off_c, 1, 64, 64
3, 64048, Note_on_c, 1, 69, 68
3, 64161, Note_on_c, 1, 71, 78
3, 64163, Note_off_c, 1, 69, 64
3, 64260, Note_off_c, 1, 71, 64
3, 64285, Note_on_c, 1, 72, 80
3, 64388, Note_on_c, 1, 71, 68
3, 64389, Note_off_c, 1, 72, 64
3, 64519, Note_off_c, 1, 71, 64
3, 64523, Note_on_c, 1, 72, 66
3, 64619, Note_on_c, 1, 74, 68
3, 64626, Note_off_c, 1, 72, 64
3, 64705, Note_off_c, 1, 74, 64
3, 64752, Note_on_c, 1, 76, 98
3, 64856, Note_off_c, 1, 76, 64
3, 65000, Note_on_c, 1, 72, 68
3, 65101, Note_off_c, 1, 72, 64
3, 65248, Note_on_c, 1, 67, 82
3, 65354, Note_off_c, 1, 67, 64
3, 65491, Note_on_c, 1, 64, 68
3, 65602, Note_off_c, 1, 64, 64
3, 65730, Note_on_c, 1, 65, 70
3, 65827, Note_off_c, 1, 65, 64
3, 65982, Note_on_c, 1, 67, 78
3, 66064, Note_off_c, 1, 67, 64
3, 66222, Note_on_c, 1, 65, 64
3, 66797, Note_off_c, 1, 65, 64
3, 66937, Note_on_c, 1, 64, 78
3, 67029, Note_off_c, 1, 64, 64
3, 67189, Note_on_c, 1, 69, 78
3, 67271, Note_off_c, 1, 69, 64
3, 67428, Note_on_c, 1, 69, 80
3, 67501, Note_off_c, 1, 69, 64
3, 67658, Note_on_c, 1, 69, 80
3, 68150, Note_off_c, 1, 69, 64
3, 68369, Note_on_c, 1, 69, 85
3, 68451, Note_off_c, 1, 69, 64
3, 68619, Note_on_c, 1, 64, 78
3, 68710, Note_off_c, 1, 64, 64
3, 68851, Note_on_c, 1, 62, 80
3, 68935, Note_off_c, 1, 62, 64
3, 69103, Note_on_c, 1, 62, 70
3, 69487, Note_off_c, 1, 62, 64
3, 69582, Note_on_c, 1, 67, 85
3, 69932, Note_off_c, 1, 67, 64
3, 70064, Note_on_c, 1, 59, 68
3, 70372, Note_off_c, 1, 59, 64
3, 70545, Note_on_c, 1, 67, 82
3, 70910, Note_off_c, 1, 67, 64
3, 71020, Note_on_c, 1, 72, 85
3, 71317, Note_off_c, 1, 72, 64
3, 71482, Note_on_c, 1, 72, 82
3, 71528, Note_on_c, 1, 71, 66
3, 71530, Note_off_c, 1, 72, 64
3, 71578, Note_on_c, 1, 72, 82
3, 71591, Note_off_c, 1, 71, 64
3, 71632, Note_on_c, 1, 71, 68
3, 71656, Note_off_c, 1, 72, 64
3, 71758, Note_off_c, 1, 71, 64
3, 71831, Note_on_c, 1, 72, 74
3, 71902, Note_off_c, 1, 72, 64
3, 71972, Note_on_c, 1, 72, 91
3, 72070, Note_off_c, 1, 72, 64
3, 72078, Note_on_c, 1, 71, 89
3, 72198, Note_off_c, 1, 71, 64
3, 72202, Note_on_c, 1, 72, 82
3, 72302, Note_on_c, 1, 74, 74
3, 72309, Note_off_c, 1, 72, 64
3, 72400, Note_off_c, 1, 74, 64
3, 72433, Note_on_c, 1, 76, 89
3, 72662, Note_off_c, 1, 76, 64
3, 72698, Note_on_c, 1, 74, 72
3, 72756, Note_off_c, 1, 74, 64
3, 72798, Note_on_c, 1, 72, 82
3, 72900, Note_off_c, 1, 72, 64
3, 72940, Note_on_c, 1, 74, 87
3, 73194, Note_off_c, 1, 74, 64
3, 73285, Note_on_c, 1, 76, 68
3, 73384, Note_off_c, 1, 76, 64
3, 73422, Note_on_c, 1, 77, 95
3, 73509, Note_off_c, 1, 77, 64
3, 73655, Note_on_c, 1, 69, 82
3, 74042, Note_off_c, 1, 69, 64
3, 74140, Note_on_c, 1, 71, 82
3, 74226, Note_off_c, 1, 71, 64
3, 74387, Note_on_c, 1, 72, 82
3, 74655, Note_off_c, 1, 72, 64
3, 74728, Note_on_c, 1, 74, 78
3, 74801, Note_off_c, 1, 74, 64
3, 74870, Note_on_c, 1, 72, 82
3, 74938, Note_on_c, 1, 71, 66
3, 74943, Note_off_c, 1, 72, 64
3, 74989, Note_on_c, 1, 72, 80
3, 74996, Note_off_c, 1, 71, 64
3, 75036, Note_on_c, 1, 71, 85
3, 75056, Note_off_c, 1, 72, 64
3, 75176, Note_on_c, 1, 72, 82
3, 75190, Note_off_c, 1, 71, 64
3, 75246, Note_off_c, 1, 72, 64
3, 75306, Note_on_c, 1, 72, 87
3, 75472, Note_off_c, 1, 72, 64
3, 75580, Note_on_c, 1, 72, 68
3, 75680, Note_off_c, 1, 72, 64
3, 75810, Note_on_c, 1, 71, 74
3, 75879, Note_on_c, 1, 69, 60
3, 75886, Note_off_c, 1, 71, 64
3, 75930, Note_on_c, 1, 71, 78
3, 75933, Note_off_c, 1, 69, 64
3, 75980, Note_on_c, 1, 69, 74
3, 75994, Note_off_c, 1, 71, 64
3, 76110, Note_off_c, 1, 69, 64
3, 76167, Note_on_c, 1, 69, 68
3, 76234, Note_off_c, 1, 69, 64
3, 76291, Note_on_c, 1, 69, 87
3, 76419, Note_on_c, 1, 67, 58
3, 76446, Note_off_c, 1, 69, 64
3, 76519, Note_off_c, 1, 67, 64
3, 76539, Note_on_c, 1, 65, 78
3, 76676, Note_on_c, 1, 67, 82
3, 76707, Note_off_c, 1, 65, 64
3, 76778, Note_off_c, 1, 67, 64
3, 76794, Note_on_c, 1, 69, 85
3, 76966, Note_off_c, 1, 69, 64
3, 77019, Note_on_c, 1, 65, 87
3, 77112, Note_off_c, 1, 65, 64
3, 77115, Note_on_c, 1, 64, 78
3, 77232, Note_off_c, 1, 64, 64
3, 77258, Note_on_c, 1, 65, 85
3, 77354, Note_off_c, 1, 65, 64
3, 77515, Note_on_c, 1, 69, 95
3, 77591, Note_off_c, 1, 69, 64
3, 77772, Note_on_c, 1, 62, 80
3, 78275, Note_off_c, 1, 62, 64
3, 78456, Note_on_c, 1, 74, 89
3, 78542, Note_off_c, 1, 74, 64
3, 78691, Note_on_c, 1, 71, 85
3, 78788, Note_off_c, 1, 71, 64
3, 78925, Note_on_c, 1, 74, 87
3, 79021, Note_off_c, 1, 74, 64
3, 79167, Note_on_c, 1, 72, 82
3, 79425, Note_off_c, 1, 72, 64
3, 79514, Note_on_c, 1, 71, 64
3, 79615, Note_off_c, 1, 71, 64
3, 79647, Note_on_c, 1, 72, 85
3, 79753, Note_off_c, 1, 72, 64
3, 79893, Note_on_c, 1, 69, 80
3, 79992, Note_off_c, 1, 69, 64
3, 80116, Note_on_c, 1, 69, 70
3, 80209, Note_on_c, 1, 67, 59
3, 80216, Note_off_c, 1, 69, 64
3, 80256, Note_on_c, 1, 69, 64
3, 80262, Note_off_c, 1, 67, 64
3, 80300, Note_on_c, 1, 67, 70
3, 80309, Note_off_c, 1, 69, 64
3, 80338, Note_on_c, 1, 69, 74
3, 80344, Note_off_c, 1, 67, 64
3, 80380, Note_on_c, 1, 67, 78
3, 80399, Note_off_c, 1, 69, 64
3, 80512, Note_off_c, 1, 67, 64
3, 80633, Note_on_c, 1, 67, 76
3, 81623, Note_off_c, 1, 67, 64
3, 81623, End_track
4, 0, Start_track
4, 0, Title_t, "Viola"
4, 0, Program_c, 2, 41
4, 0, Control_c, 2, 7, 100
4, 1300, Note_on_c, 2, 64, 87
4, 1350, Note_off_c, 2, 64, 64
4, 1429, Note_on_c, 2, 64, 98
4, 1537, Note_on_c, 2, 62, 66
4, 1564, Note_off_c, 2, 64, 64
4, 1666, Note_on_c, 2, 64, 74
4, 1672, Note_off_c, 2, 62, 64
4, 1770, Note_on_c, 2, 65, 80
4, 1776, Note_off_c, 2, 64, 64
4, 1885, Note_off_c, 2, 65, 64
4, 1887, Note_on_c, 2, 67, 85
4, 2079, Note_off_c, 2, 67, 64
4, 2241, Note_on_c, 2, 69, 82
4, 2305, Note_off_c, 2, 69, 64
4, 2380, Note_on_c, 2, 67, 87
4, 2429, Note_on_c, 2, 65, 78
4, 2442, Note_off_c, 2, 67, 64
4, 2474, Note_on_c, 2, 67, 61
4, 2478, Note_off_c, 2, 65, 64
4, 2524, Note_on_c, 2, 65, 66
4, 2549, Note_off_c, 2, 67, 64
4, 2611, Note_off_c, 2, 65, 64
4, 2728, Note_on_c, 2, 64, 82
4, 2797, Note_off_c, 2, 64, 64
4, 2859, Note_on_c, 2, 64, 87
4, 2974, Note_on_c, 2, 62, 80
4, 3008, Note_off_c, 2, 64, 64
4, 3096, Note_on_c, 2, 64, 66
4, 3118, Note_off_c, 2, 62, 64
4, 3199, Note_on_c, 2, 65, 70
4, 3228, Note_off_c, 2, 64, 64
4, 3335, Note_on_c, 2, 67, 80
4, 3346, Note_off_c, 2, 65, 64
4, 3465, Note_off_c, 2, 67, 64
4, 3576, Note_on_c, 2, 67, 72
4, 3684, Note_off_c, 2, 67, 64
4, 3817, Note_on_c, 2, 69, 80
4, 3904, Note_off_c, 2, 69, 64
4, 4055, Note_on_c, 2, 70, 78
4, 4132, Note_off_c, 2, 70, 64
4, 4289, Note_on_c, 2, 72, 87
4, 4416, Note_off_c, 2, 72, 64
4, 4537, Note_on_c, 2, 60, 70
4, 4647, Note_off_c, 2, 60, 64
4, 4782, Note_on_c, 2, 62, 87
4, 4880, Note_off_c, 2, 62, 64
4, 5015, Note_on_c, 2, 55, 74
4, 5114, Note_off_c, 2, 55, 64
4, 5265, Note_on_c, 2, 60, 76
4, 5355, Note_off_c, 2, 60, 64
4, 5510, Note_on_c, 2, 60, 76
4, 5603, Note_off_c, 2, 60, 64
4, 5754, Note_on_c, 2, 67, 85
4, 6350, Note_off_c, 2, 67, 64
4, 6464, Note_on_c, 2, 60, 66
4, 6564, Note_off_c, 2, 60, 64
4, 6697, Note_on_c, 2, 60, 78
4, 6819, Note_off_c, 2, 60, 64
4, 6936, Note_on_c, 2, 59, 80
4, 7038, Note_off_c, 2, 59, 64
4, 7184, Note_on_c, 2, 60, 85
4, 7324, Note_off_c, 2, 60, 64
4, 7416, Note_on_c, 2, 59, 80
4, 7516, Note_off_c, 2, 59, 64
4, 7669, Note_on_c, 2, 57, 78
4, 7760, Note_off_c, 2, 57, 64
4, 7894, Note_on_c, 2, 57, 76
4, 8014, Note_off_c, 2, 57, 64
4, 8145, Note_on_c, 2, 62, 89
4, 8433, Note_off_c, 2, 62, 64
4, 8499, Note_on_c, 2, 60, 63
4, 8585, Note_off_c, 2, 60, 64
4, 8634, Note_on_c, 2, 67, 87
4, 8725, Note_off_c, 2, 67, 64
4, 8882, Note_on_c, 2, 60, 85
4, 9282, Note_off_c, 2, 60, 64
4, 9353, Note_on_c, 2, 62, 66
4, 9424, Note_off_c, 2, 62, 64
4, 9592, Note_on_c, 2, 62, 89
4, 9743, Note_off_c, 2, 62, 64
4, 9811, Note_on_c, 2, 62, 82
4, 9944, Note_off_c, 2, 62, 64
4, 10057, Note_on_c, 2, 64, 78
4, 10163, Note_off_c, 2, 64, 64
4, 10299, Note_on_c, 2, 62, 87
4, 10393, Note_off_c, 2, 62, 64
4, 10551, Note_on_c, 2, 62, 85
4, 10732, Note_off_c, 2, 62, 64
4, 10777, Note_on_c, 2, 60, 85
4, 10841, Note_off_c, 2, 60, 64
4, 10883, Note_on_c, 2, 59, 85
4, 10959, Note_off_c, 2, 59, 64
4, 11029, Note_on_c, 2, 57, 85
4, 11432, Note_off_c, 2, 57, 64
4, 11514, Note_on_c, 2, 59, 85
4, 12494, Note_off_c, 2, 59, 64
4, 12829, Note_on_c, 2, 64, 82
4, 12893, Note_off_c, 2, 64, 64
4, 12953, Note_on_c, 2, 64, 95
4, 13065, Note_on_c, 2, 62, 72
4, 13098, Note_off_c, 2, 64, 64
4, 13178, Note_on_c, 2, 64, 66
4, 13203, Note_off_c, 2, 62, 64
4, 13278, Note_on_c, 2, 65, 66
4, 13314, Note_off_c, 2, 64, 64
4, 13409, Note_off_c, 2, 65, 64
4, 13415, Note_on_c, 2, 67, 85
4, 13612, Note_off_c, 2, 67, 64
4, 13743, Note_on_c, 2, 69, 82
4, 13816, Note_off_c, 2, 69, 64
4, 13881, Note_on_c, 2, 67, 89
4, 13933, Note_on_c, 2, 65, 80
4, 13940, Note_off_c, 2, 67, 64
4, 13980, Note_on_c, 2, 67, 70
4, 13988, Note_off_c, 2, 65, 64
4, 14039, Note_on_c, 2, 65, 62
4, 14060, Note_off_c, 2, 67, 64
4, 14126, Note_off_c, 2, 65, 64
4, 14252, Note_on_c, 2, 64, 87
4, 14312, Note_off_c, 2, 64, 64
4, 14382, Note_on_c, 2, 64, 95
4, 14506, Note_on_c, 2, 62, 80
4, 14527, Note_off_c, 2, 64, 64
4, 14620, Note_on_c, 2, 64, 74
4, 14637, Note_off_c, 2, 62, 64
4, 14717, Note_on_c, 2, 65, 72
4, 14748, Note_off_c, 2, 64, 64
4, 14850, Note_on_c, 2, 67, 87
4, 14856, Note_off_c, 2, 65, 64
4, 15000, Note_off_c, 2, 67, 64
4, 15095, Note_on_c, 2, 67, 72
4, 15200, Note_off_c, 2, 67, 64
4, 15323, Note_on_c, 2, 69, 80
4, 15434, Note_off_c, 2, 69, 64
4, 15563, Note_on_c, 2, 70, 82
4, 15666, Note_off_c, 2, 70, 64
4, 15812, Note_on_c, 2, 72, 102
4, 15932, Note_off_c, 2, 72, 64
4, 16067, Note_on_c, 2, 60, 63
4, 16169, Note_off_c, 2, 60, 64
4, 16293, Note_on_c, 2, 62, 87
4, 16390, Note_off_c, 2, 62, 64
4, 16521, Note_on_c, 2, 55, 74
4, 16631, Note_off_c, 2, 55, 64
4, 16782, Note_on_c, 2, 60, 78
4, 16877, Note_off_c, 2, 60, 64
4, 17026, Note_on_c, 2, 60, 70
4, 17105, Note_off_c, 2, 60, 64
4, 17265, Note_on_c, 2, 67, 82
4, 17887, Note_off_c, 2, 67, 64
4, 17984, Note_on_c, 2, 60, 66
4, 18079, Note_off_c, 2, 60, 64
4, 18212, Note_on_c, 2, 60, 66
4, 18330, Note_off_c, 2, 60, 64
4, 18455, Note_on_c, 2, 59, 82
4, 18560, Note_off_c, 2, 59, 64
4, 18701, Note_on_c, 2, 60, 78
4, 18848, Note_off_c, 2, 60, 64
4, 18938, Note_on_c, 2, 59, 68
4, 19042, Note_off_c, 2, 59, 64
4, 19168, Note_on_c, 2, 57, 80
4, 19286, Note_off_c, 2, 57, 64
4, 19420, Note_on_c, 2, 57, 80
4, 19522, Note_off_c, 2, 57, 64
4, 19655, Note_on_c, 2, 62, 93
4, 19941, Note_off_c, 2, 62, 64
4, 20016, Note_on_c, 2, 60, 66
4, 20109, Note_off_c, 2, 60, 64
4, 20149, Note_on_c, 2, 67, 91
4, 20248, Note_off_c, 2, 67, 64
4, 20392, Note_on_c, 2, 60, 80
4, 20766, Note_off_c, 2, 60, 64
4, 20879, Note_on_c, 2, 62, 64
4, 20952, Note_off_c, 2, 62, 64
4, 21108, Note_on_c, 2, 62, 87
4, 21243, Note_off_c, 2, 62, 64
4, 21346, Note_on_c, 2, 62, 85
4, 21460, Note_off_c, 2, 62, 64
4, 21583, Note_on_c, 2, 64, 82
4, 21687, Note_off_c, 2, 64, 64
4, 21831, Note_on_c, 2, 62, 85
4, 21915, Note_off_c, 2, 62, 64
4, 22064, Note_on_c, 2, 62, 91
4, 22248, Note_off_c, 2, 62, 64
4, 22305, Note_on_c, 2, 60, 89
4, 22389, Note_off_c, 2, 60, 64
4, 22420, Note_on_c, 2, 59, 82
4, 22482, Note_off_c, 2, 59, 64
4, 22549, Note_on_c, 2, 59, 87
4, 22639, Note_off_c, 2, 59, 64
4, 22639, Note_on_c, 2, 57, 66
4, 22680, Note_on_c, 2, 59, 76
4, 22686, Note_off_c, 2, 57, 64
4, 22728, Note_on_c, 2, 57, 70
4, 22730, Note_off_c, 2, 59, 64
4, 22768, Note_off_c, 2, 57, 64
4, 22768, Note_on_c, 2, 59, 80
4, 22799, Note_on_c, 2, 57, 78
4, 22819, Note_off_c, 2, 59, 64
4, 22982, Note_off_c, 2, 57, 64
4, 23038, Note_on_c, 2, 59, 82
4, 24041, Note_off_c, 2, 59, 64
4, 53128, Note_on_c, 2, 67, 68
4, 53181, Note_off_c, 2, 67, 64
4, 53257, Note_on_c, 2, 67, 80
4, 53641, Note_off_c, 2, 67, 64
4, 53747, Note_on_c, 2, 69, 85
4, 53962, Note_off_c, 2, 69, 64
4, 54102, Note_on_c, 2, 70, 66
4, 54157, Note_off_c, 2, 70, 64
4, 54224, Note_on_c, 2, 69, 100
4, 54281, Note_on_c, 2, 67, 85
4, 54284, Note_off_c, 2, 69, 64
4, 54312, Note_on_c, 2, 69, 72
4, 54330, Note_off_c, 2, 67, 64
4, 54379, Note_on_c, 2, 67, 82
4, 54387, Note_off_c, 2, 69, 64
4, 54501, Note_off_c, 2, 67, 64
4, 54704, Note_on_c, 2, 74, 82
4, 54897, Note_off_c, 2, 74, 64
4, 54947, Note_on_c, 2, 69, 82
4, 55027, Note_off_c, 2, 69, 64
4, 55034, Note_on_c, 2, 67, 66
4, 55144, Note_off_c, 2, 67, 64
4, 55171, Note_on_c, 2, 65, 76
4, 55282, Note_off_c, 2, 65, 64
4, 55404, Note_on_c, 2, 69, 62
4, 55475, Note_off_c, 2, 69, 64
4, 55647, Note_on_c, 2, 62, 76
4, 55727, Note_off_c, 2, 62, 64
4, 55897, Note_on_c, 2, 66, 76
4, 55979, Note_off_c, 2, 66, 64
4, 56156, Note_on_c, 2, 67, 70
4, 56657, Note_off_c, 2, 67, 64
4, 56854, Note_on_c, 2, 69, 76
4, 56955, Note_off_c, 2, 69, 64
4, 57099, Note_on_c, 2, 62, 64
4, 57188, Note_off_c, 2, 62, 64
4, 57343, Note_on_c, 2, 58, 63
4, 57431, Note_off_c, 2, 58, 64
4, 57586, Note_on_c, 2, 57, 70
4, 58076, Note_off_c, 2, 57, 64
4, 58294, Note_on_c, 2, 69, 78
4, 58383, Note_off_c, 2, 69, 64
4, 58534, Note_on_c, 2, 70, 78
4, 58644, Note_off_c, 2, 70, 64
4, 58768, Note_on_c, 2, 69, 76
4, 58841, Note_off_c, 2, 69, 64
4, 59032, Note_on_c, 2, 69, 82
4, 59107, Note_off_c, 2, 69, 64
4, 59270, Note_on_c, 2, 62, 80
4, 59567, Note_off_c, 2, 62, 64
4, 59751, Note_on_c, 2, 64, 82
4, 59875, Note_off_c, 2, 64, 64
4, 59990, Note_on_c, 2, 65, 93
4, 60034, Note_on_c, 2, 64, 76
4, 60041, Note_off_c, 2, 65, 64
4, 60085, Note_off_c, 2, 64, 64
4, 60085, Note_on_c, 2, 65, 70
4, 60127, Note_on_c, 2, 64, 89
4, 60161, Note_off_c, 2, 65, 64
4, 60222, Note_off_c, 2, 64, 64
4, 60340, Note_on_c, 2, 62, 80
4, 60415, Note_off_c, 2, 62, 64
4, 60462, Note_on_c, 2, 69, 93
4, 60601, Note_off_c, 2, 69, 64
4, 60709, Note_on_c, 2, 62, 85
4, 61006, Note_off_c, 2, 62, 64
4, 61183, Note_on_c, 2, 64, 76
4, 61272, Note_off_c, 2, 64, 64
4, 61425, Note_on_c, 2, 64, 72
4, 61517, Note_off_c, 2, 64, 64
4, 61666, Note_on_c, 2, 64, 80
4, 61761, Note_off_c, 2, 64, 64
4, 61900, Note_on_c, 2, 57, 64
4, 62002, Note_off_c, 2, 57, 64
4, 62137, Note_on_c, 2, 64, 72
4, 62237, Note_off_c, 2, 64, 64
4, 62376, Note_on_c, 2, 64, 66
4, 62491, Note_off_c, 2, 64, 64
4, 62609, Note_on_c, 2, 65, 74
4, 62742, Note_off_c, 2, 65, 64
4, 62864, Note_on_c, 2, 64, 78
4, 62943, Note_off_c, 2, 64, 64
4, 63094, Note_on_c, 2, 62, 80
4, 63160, Note_off_c, 2, 62, 64
4, 63361, Note_on_c, 2, 60, 78
4, 63906, Note_off_c, 2, 60, 64
4, 63932, Note_on_c, 2, 62, 78
4, 64030, Note_on_c, 2, 60, 66
4, 64041, Note_off_c, 2, 62, 64
4, 64116, Note_off_c, 2, 60, 64
4, 64139, Note_on_c, 2, 59, 74
4, 64223, Note_off_c, 2, 59, 64
4, 64273, Note_on_c, 2, 57, 76
4, 64398, Note_off_c, 2, 57, 64
4, 64535, Note_on_c, 2, 69, 85
4, 64625, Note_off_c, 2, 69, 64
4, 64774, Note_on_c, 2, 67, 89
4, 64916, Note_off_c, 2, 67, 64
4, 65020, Note_on_c, 2, 55, 68
4, 65110, Note_off_c, 2, 55, 64
4, 65135, Note_on_c, 2, 57, 85
4, 65219, Note_off_c, 2, 57, 64
4, 65259, Note_on_c, 2, 58, 93
4, 65341, Note_off_c, 2, 58, 64
4, 65502, Note_on_c, 2, 55, 70
4, 65611, Note_off_c, 2, 55, 64
4, 65751, Note_on_c, 2, 62, 87
4, 65839, Note_off_c, 2, 62, 64
4, 65982, Note_on_c, 2, 60, 72
4, 66071, Note_off_c, 2, 60, 64
4, 66235, Note_on_c, 2, 60, 80
4, 66777, Note_off_c, 2, 60, 64
4, 66932, Note_on_c, 2, 61, 82
4, 67029, Note_off_c, 2, 61, 64
4, 67189, Note_on_c, 2, 62, 80
4, 67273, Note_off_c, 2, 62, 64
4, 67424, Note_on_c, 2, 57, 74
4, 67508, Note_off_c, 2, 57, 64
4, 67680, Note_on_c, 2, 62, 80
4, 68169, Note_off_c, 2, 62, 64
4, 68368, Note_on_c, 2, 62, 80
4, 68453, Note_off_c, 2, 62, 64
4, 68623, Note_on_c, 2, 55, 80
4, 68720, Note_off_c, 2, 55, 64
4, 68875, Note_on_c, 2, 57, 87
4, 68966, Note_off_c, 2, 57, 64
4, 69108, Note_on_c, 2, 55, 87
4, 69212, Note_on_c, 2, 54, 82
4, 69216, Note_off_c, 2, 55, 64
4, 69320, Note_off_c, 2, 54, 64
4, 69329, Note_on_c, 2, 55, 64
4, 69436, Note_on_c, 2, 57, 80
4, 69449, Note_off_c, 2, 55, 64
4, 69535, Note_off_c, 2, 57, 64
4, 69568, Note_on_c, 2, 59, 80
4, 69664, Note_off_c, 2, 59, 64
4, 69805, Note_on_c, 2, 60, 82
4, 69881, Note_off_c, 2, 60, 64
4, 70046, Note_on_c, 2, 62, 82
4, 70348, Note_off_c, 2, 62, 64
4, 70538, Note_on_c, 2, 64, 87
4, 70644, Note_on_c, 2, 62, 78
4, 70660, Note_off_c, 2, 64, 64
4, 70762, Note_on_c, 2, 64, 68
4, 70766, Note_off_c, 2, 62, 64
4, 70876, Note_on_c, 2, 65, 66
4, 70892, Note_off_c, 2, 64, 64
4, 70990, Note_off_c, 2, 65, 64
4, 71003, Note_on_c, 2, 67, 85
4, 71200, Note_off_c, 2, 67, 64
4, 71344, Note_on_c, 2, 69, 80
4, 71423, Note_off_c, 2, 69, 64
4, 71477, Note_on_c, 2, 67, 93
4, 71538, Note_on_c, 2, 65, 82
4, 71550, Note_off_c, 2, 67, 64
4, 71576, Note_off_c, 2, 65, 64
4, 71578, Note_on_c, 2, 67, 66
4, 71622, Note_on_c, 2, 65, 78
4, 71662, Note_off_c, 2, 67, 64
4, 71758, Note_off_c, 2, 65, 64
4, 71853, Note_on_c, 2, 64, 82
4, 71917, Note_off_c, 2, 64, 64
4, 71970, Note_on_c, 2, 64, 80
4, 72085, Note_on_c, 2, 65, 68
4, 72092, Note_off_c, 2, 64, 64
4, 72205, Note_on_c, 2, 64, 85
4, 72222, Note_off_c, 2, 65, 64
4, 72315, Note_off_c, 2, 64, 64
4, 72322, Note_on_c, 2, 62, 66
4, 72391, Note_off_c, 2, 62, 64
4, 72459, Note_on_c, 2, 60, 68
4, 72572, Note_off_c, 2, 60, 64
4, 72692, Note_on_c, 2, 67, 85
4, 72800, Note_off_c, 2, 67, 64
4, 72920, Note_on_c, 2, 69, 85
4, 73044, Note_off_c, 2, 69, 64
4, 73174, Note_on_c, 2, 70, 76
4, 73269, Note_off_c, 2, 70, 64
4, 73411, Note_on_c, 2, 72, 82
4, 73508, Note_off_c, 2, 72, 64
4, 73650, Note_on_c, 2, 60, 70
4, 73743, Note_off_c, 2, 60, 64
4, 73889, Note_on_c, 2, 62, 89
4, 74223, Note_off_c, 2, 62, 64
4, 74367, Note_on_c, 2, 67, 78
4, 74469, Note_off_c, 2, 67, 64
4, 74620, Note_on_c, 2, 65, 70
4, 74739, Note_off_c, 2, 65, 64
4, 74841, Note_on_c, 2, 64, 70
4, 74950, Note_off_c, 2, 64, 64
4, 75080, Note_on_c, 2, 62, 66
4, 75180, Note_off_c, 2, 62, 64
4, 75315, Note_on_c, 2, 60, 68
4, 75417, Note_off_c, 2, 60, 64
4, 75560, Note_on_c, 2, 64, 80
4, 75647, Note_off_c, 2, 64, 64
4, 75813, Note_on_c, 2, 65, 78
4, 76067, Note_off_c, 2, 65, 64
4, 76182, Note_on_c, 2, 64, 78
4, 76234, Note_off_c, 2, 64, 64
4, 76302, Note_on_c, 2, 62, 82
4, 76459, Note_off_c, 2, 62, 64
4, 76537, Note_on_c, 2, 60, 82
4, 76614, Note_off_c, 2, 60, 64
4, 76638, Note_on_c, 2, 59, 80
4, 76716, Note_off_c, 2, 59, 64
4, 76760, Note_on_c, 2, 57, 82
4, 76886, Note_off_c, 2, 57, 64
4, 77017, Note_on_c, 2, 62, 82
4, 77094, Note_off_c, 2, 62, 64
4, 77245, Note_on_c, 2, 55, 76
4, 77332, Note_off_c, 2, 55, 64
4, 77504, Note_on_c, 2, 60, 80
4, 77584, Note_off_c, 2, 60, 64
4, 77759, Note_on_c, 2, 59, 78
4, 78254, Note_off_c, 2, 59, 64
4, 78462, Note_on_c, 2, 55, 82
4, 78558, Note_off_c, 2, 55, 64
4, 78706, Note_on_c, 2, 62, 82
4, 78792, Note_off_c, 2, 62, 64
4, 78932, Note_on_c, 2, 59, 85
4, 79016, Note_off_c, 2, 59, 64
4, 79164, Note_on_c, 2, 55, 74
4, 79332, Note_off_c, 2, 55, 64
4, 79415, Note_on_c, 2, 67, 82
4, 79519, Note_on_c, 2, 65, 80
4, 79527, Note_off_c, 2, 67, 64
4, 79617, Note_off_c, 2, 65, 64
4, 79665, Note_on_c, 2, 64, 87
4, 79784, Note_off_c, 2, 64, 64
4, 79923, Note_on_c, 2, 62, 85
4, 80023, Note_off_c, 2, 62, 64
4, 80145, Note_on_c, 2, 64, 85
4, 80209, Note_on_c, 2, 62, 62
4, 80211, Note_off_c, 2, 64, 64
4, 80260, Note_on_c, 2, 64, 89
4, 80267, Note_off_c, 2, 62, 64
4, 80306, Note_on_c, 2, 62, 70
4, 80309, Note_off_c, 2, 64, 64
4, 80344, Note_on_c, 2, 64, 78
4, 80355, Note_off_c, 2, 62, 64
4, 80386, Note_on_c, 2, 62, 80
4, 80402, Note_off_c, 2, 64, 64
4, 80543, Note_off_c, 2, 62, 64
4, 80647, Note_on_c, 2, 64, 82
4, 81573, Note_off_c, 2, 64, 64
4, 81573, End_track
5, 0, Start_track
5, 0, Title_t, "Cello"
5, 0, Program_c, 3, 42
5, 0, Control_c, 3, 7, 100
5, 1305, Note_on_c, 3, 48, 76
5, 1355, Note_off_c, 3, 48, 64
5, 1438, Note_on_c, 3, 48, 98
5, 1931, Note_off_c, 3, 48, 64
5, 2137, Note_on_c, 3, 60, 91
5, 2234, Note_off_c, 3, 60, 64
5, 2374, Note_on_c, 3, 55, 80
5, 2473, Note_off_c, 3, 55, 64
5, 2611, Note_on_c, 3, 57, 82
5, 2690, Note_off_c, 3, 57, 64
5, 2859, Note_on_c, 3, 52, 100
5, 2972, Note_on_c, 3, 53, 85
5, 2980, Note_off_c, 3, 52, 64
5, 3082, Note_off_c, 3, 53, 64
5, 3093, Note_on_c, 3, 52, 80
5, 3193, Note_off_c, 3, 52, 64
5, 3206, Note_on_c, 3, 50, 87
5, 3312, Note_off_c, 3, 50, 64
5, 3337, Note_on_c, 3, 48, 87
5, 3469, Note_off_c, 3, 48, 64
5, 3583, Note_on_c, 3, 58, 87
5, 3671, Note_off_c, 3, 58, 64
5, 3822, Note_on_c, 3, 57, 87
5, 3926, Note_off_c, 3, 57, 64
5, 4069, Note_on_c, 3, 55, 80
5, 4170, Note_off_c, 3, 55, 64
5, 4303, Note_on_c, 3, 53, 72
5, 4408, Note_off_c, 3, 53, 64
5, 4545, Note_on_c, 3, 52, 74
5, 4652, Note_off_c, 3, 52, 64
5, 4773, Note_on_c, 3, 50, 82
5, 4886, Note_off_c, 3, 50, 64
5, 5015, Note_on_c, 3, 47, 87
5, 5125, Note_off_c, 3, 47, 64
5, 5267, Note_on_c, 3, 48, 89
5, 5360, Note_off_c, 3, 48, 64
5, 5501, Note_on_c, 3, 41, 85
5, 5595, Note_off_c, 3, 41, 64
5, 5738, Note_on_c, 3, 43, 82
5, 5873, Note_off_c, 3, 43, 64
5, 5971, Note_on_c, 3, 55, 72
5, 6079, Note_off_c, 3, 55, 64
5, 6197, Note_on_c, 3, 53, 74
5, 6321, Note_off_c, 3, 53, 64
5, 6433, Note_on_c, 3, 52, 76
5, 6566, Note_off_c, 3, 52, 64
5, 6679, Note_on_c, 3, 53, 80
5, 6794, Note_off_c, 3, 53, 64
5, 6914, Note_on_c, 3, 55, 80
5, 7002, Note_off_c, 3, 55, 64
5, 7173, Note_on_c, 3, 48, 85
5, 7279, Note_off_c, 3, 48, 64
5, 7421, Note_on_c, 3, 52, 80
5, 7504, Note_off_c, 3, 52, 64
5, 7669, Note_on_c, 3, 45, 91
5, 7780, Note_off_c, 3, 45, 64
5, 7923, Note_on_c, 3, 50, 80
5, 8019, Note_off_c, 3, 50, 64
5, 8025, Note_on_c, 3, 52, 82
5, 8112, Note_off_c, 3, 52, 64
5, 8153, Note_on_c, 3, 50, 89
5, 8249, Note_off_c, 3, 50, 64
5, 8269, Note_on_c, 3, 48, 82
5, 8377, Note_off_c, 3, 48, 64
5, 8390, Note_on_c, 3, 47, 70
5, 8470, Note_off_c, 3, 47, 64
5, 8503, Note_on_c, 3, 45, 89
5, 8588, Note_off_c, 3, 45, 64
5, 8627, Note_on_c, 3, 47, 87
5, 8760, Note_off_c, 3, 47, 64
5, 8871, Note_on_c, 3, 48, 87
5, 8977, Note_off_c, 3, 48, 64
5, 9107, Note_on_c, 3, 45, 78
5, 9221, Note_off_c, 3, 45, 64
5, 9344, Note_on_c, 3, 43, 80
5, 9455, Note_off_c, 3, 43, 64
5, 9579, Note_on_c, 3, 42, 91
5, 9709, Note_off_c, 3, 42, 64
5, 9818, Note_on_c, 3, 43, 76
5, 9938, Note_off_c, 3, 43, 64
5, 10057, Note_on_c, 3, 40, 76
5, 10173, Note_off_c, 3, 40, 64
5, 10296, Note_on_c, 3, 42, 82
5, 10378, Note_off_c, 3, 42, 64
5, 10546, Note_on_c, 3, 43, 98
5, 10686, Note_off_c, 3, 43, 64
5, 10779, Note_on_c, 3, 48, 80
5, 10892, Note_off_c, 3, 48, 64
5, 11011, Note_on_c, 3, 50, 95
5, 11115, Note_off_c, 3, 50, 64
5, 11248, Note_on_c, 3, 38, 98
5, 11341, Note_off_c, 3, 38, 64
5, 11516, Note_on_c, 3, 43, 85
5, 12528, Note_off_c, 3, 43, 64
5, 12827, Note_on_c, 3, 48, 87
5, 12893, Note_off_c, 3, 48, 64
5, 12955, Note_on_c, 3, 48, 87
5, 13471, Note_off_c, 3, 48, 64
5, 13656, Note_on_c, 3, 60, 85
5, 13780, Note_off_c, 3, 60, 64
5, 13904, Note_on_c, 3, 55, 82
5, 14015, Note_off_c, 3, 55, 64
5, 14139, Note_on_c, 3, 57, 89
5, 14216, Note_off_c, 3, 57, 64
5, 14382, Note_on_c, 3, 52, 91
5, 14495, Note_on_c, 3, 53, 80
5, 14498, Note_off_c, 3, 52, 64
5, 14586, Note_off_c, 3, 53, 64
5, 14608, Note_on_c, 3, 52, 82
5, 14710, Note_off_c, 3, 52, 64
5, 14723, Note_on_c, 3, 50, 82
5, 14810, Note_off_c, 3, 50, 64
5, 14850, Note_on_c, 3, 48, 85
5, 14985, Note_off_c, 3, 48, 64
5, 15115, Note_on_c, 3, 58, 85
5, 15217, Note_off_c, 3, 58, 64
5, 15357, Note_on_c, 3, 57, 85
5, 15450, Note_off_c, 3, 57, 64
5, 15594, Note_on_c, 3, 55, 68
5, 15673, Note_off_c, 3, 55, 64
5, 15824, Note_on_c, 3, 53, 85
5, 15936, Note_off_c, 3, 53, 64
5, 16072, Note_on_c, 3, 52, 72
5, 16178, Note_off_c, 3, 52, 64
5, 16288, Note_on_c, 3, 50, 76
5, 16389, Note_off_c, 3, 50, 64
5, 16534, Note_on_c, 3, 47, 70
5, 16638, Note_off_c, 3, 47, 64
5, 16778, Note_on_c, 3, 48, 85
5, 16864, Note_off_c, 3, 48, 64
5, 17015, Note_on_c, 3, 41, 72
5, 17114, Note_off_c, 3, 41, 64
5, 17251, Note_on_c, 3, 43, 80
5, 17390, Note_off_c, 3, 43, 64
5, 17495, Note_on_c, 3, 55, 80
5, 17630, Note_off_c, 3, 55, 64
5, 17740, Note_on_c, 3, 53, 72
5, 17849, Note_off_c, 3, 53, 64
5, 17959, Note_on_c, 3, 52, 62
5, 18079, Note_off_c, 3, 52, 64
5, 18217, Note_on_c, 3, 53, 76
5, 18312, Note_off_c, 3, 53, 64
5, 18436, Note_on_c, 3, 55, 78
5, 18529, Note_off_c, 3, 55, 64
5, 18690, Note_on_c, 3, 48, 87
5, 18805, Note_off_c, 3, 48, 64
5, 18947, Note_on_c, 3, 52, 78
5, 19036, Note_off_c, 3, 52, 64
5, 19180, Note_on_c, 3, 45, 87
5, 19304, Note_off_c, 3, 45, 64
5, 19429, Note_on_c, 3, 50, 85
5, 19525, Note_on_c, 3, 52, 82
5, 19556, Note_off_c, 3, 50, 64
5, 19598, Note_off_c, 3, 52, 64
5, 19649, Note_on_c, 3, 50, 95
5, 19748, Note_off_c, 3, 50, 64
5, 19770, Note_on_c, 3, 48, 82
5, 19870, Note_off_c, 3, 48, 64
5, 19883, Note_on_c, 3, 47, 80
5, 19985, Note_off_c, 3, 47, 64
5, 20003, Note_on_c, 3, 45, 60
5, 20102, Note_off_c, 3, 45, 64
5, 20140, Note_on_c, 3, 47, 89
5, 20264, Note_off_c, 3, 47, 64
5, 20386, Note_on_c, 3, 48, 78
5, 20494, Note_off_c, 3, 48, 64
5, 20618, Note_on_c, 3, 45, 70
5, 20738, Note_off_c, 3, 45, 64
5, 20851, Note_on_c, 3, 43, 78
5, 20965, Note_off_c, 3, 43, 64
5, 21103, Note_on_c, 3, 42, 93
5, 21227, Note_off_c, 3, 42, 64
5, 21342, Note_on_c, 3, 43, 70
5, 21448, Note_off_c, 3, 43, 64
5, 21566, Note_on_c, 3, 40, 68
5, 21701, Note_off_c, 3, 40, 64
5, 21814, Note_on_c, 3, 42, 80
5, 21918, Note_off_c, 3, 42, 64
5, 22057, Note_on_c, 3, 43, 95
5, 22192, Note_off_c, 3, 43, 64
5, 22309, Note_on_c, 3, 48, 87
5, 22420, Note_off_c, 3, 48, 64
5, 22551, Note_on_c, 3, 50, 85
5, 22657, Note_off_c, 3, 50, 64
5, 22785, Note_on_c, 3, 38, 95
5, 22874, Note_off_c, 3, 38, 64
5, 23022, Note_on_c, 3, 43, 89
5, 23998, Note_off_c, 3, 43, 64
5, 53121, Note_on_c, 3, 55, 80
5, 53183, Note_off_c, 3, 55, 64
5, 53274, Note_on_c, 3, 55, 98
5, 53445, Note_off_c, 3, 55, 64
5, 53500, Note_on_c, 3, 53, 82
5, 53573, Note_off_c, 3, 53, 64
5, 53593, Note_on_c, 3, 52, 76
5, 53668, Note_off_c, 3, 52, 64
5, 53737, Note_on_c, 3, 50, 82
5, 54248, Note_off_c, 3, 50, 64
5, 54323, Note_on_c, 3, 49, 72
5, 54412, Note_off_c, 3, 49, 64
5, 54441, Note_on_c, 3, 50, 68
5, 54547, Note_off_c, 3, 50, 64
5, 54562, Note_on_c, 3, 52, 66
5, 54652, Note_off_c, 3, 52, 64
5, 54697, Note_on_c, 3, 53, 85
5, 54808, Note_on_c, 3, 55, 72
5, 54812, Note_off_c, 3, 53, 64
5, 54920, Note_off_c, 3, 55, 64
5, 54930, Note_on_c, 3, 53, 72
5, 55029, Note_off_c, 3, 53, 64
5, 55038, Note_on_c, 3, 52, 68
5, 55134, Note_off_c, 3, 52, 64
5, 55173, Note_on_c, 3, 50, 74
5, 55305, Note_off_c, 3, 50, 64
5, 55419, Note_on_c, 3, 60, 85
5, 55505, Note_off_c, 3, 60, 64
5, 55663, Note_on_c, 3, 58, 76
5, 55767, Note_off_c, 3, 58, 64
5, 55900, Note_on_c, 3, 57, 80
5, 55990, Note_off_c, 3, 57, 64
5, 56143, Note_on_c, 3, 55, 89
5, 56254, Note_on_c, 3, 53, 82
5, 56262, Note_off_c, 3, 55, 64
5, 56356, Note_off_c, 3, 53, 64
5, 56373, Note_on_c, 3, 55, 64
5, 56470, Note_off_c, 3, 55, 64
5, 56493, Note_on_c, 3, 57, 72
5, 56614, Note_off_c, 3, 57, 64
5, 56626, Note_on_c, 3, 58, 72
5, 56749, Note_off_c, 3, 58, 64
5, 56860, Note_on_c, 3, 49, 76
5, 56980, Note_off_c, 3, 49, 64
5, 57106, Note_on_c, 3, 50, 80
5, 57205, Note_off_c, 3, 50, 64
5, 57340, Note_on_c, 3, 43, 78
5, 57429, Note_off_c, 3, 43, 64
5, 57586, Note_on_c, 3, 45, 85
5, 57686, Note_off_c, 3, 45, 64
5, 57816, Note_on_c, 3, 57, 82
5, 57909, Note_off_c, 3, 57, 64
5, 58049, Note_on_c, 3, 55, 70
5, 58151, Note_off_c, 3, 55, 64
5, 58275, Note_on_c, 3, 53, 63
5, 58398, Note_off_c, 3, 53, 64
5, 58531, Note_on_c, 3, 55, 80
5, 58638, Note_off_c, 3, 55, 64
5, 58773, Note_on_c, 3, 57, 74
5, 58868, Note_off_c, 3, 57, 64
5, 59011, Note_on_c, 3, 50, 78
5, 59109, Note_off_c, 3, 50, 64
5, 59248, Note_on_c, 3, 53, 80
5, 59350, Note_off_c, 3, 53, 64
5, 59488, Note_on_c, 3, 47, 78
5, 59620, Note_off_c, 3, 47, 64
5, 59731, Note_on_c, 3, 52, 76
5, 59844, Note_off_c, 3, 52, 64
5, 59844, Note_on_c, 3, 53, 78
5, 59932, Note_off_c, 3, 53, 64
5, 59963, Note_on_c, 3, 52, 80
5, 60065, Note_off_c, 3, 52, 64
5, 60076, Note_on_c, 3, 50, 64
5, 60178, Note_off_c, 3, 50, 64
5, 60201, Note_on_c, 3, 48, 64
5, 60298, Note_off_c, 3, 48, 64
5, 60324, Note_on_c, 3, 47, 66
5, 60420, Note_off_c, 3, 47, 64
5, 60460, Note_on_c, 3, 48, 91
5, 60561, Note_off_c, 3, 48, 64
5, 60710, Note_on_c, 3, 50, 78
5, 60802, Note_off_c, 3, 50, 64
5, 60937, Note_on_c, 3, 47, 80
5, 61050, Note_off_c, 3, 47, 64
5, 61163, Note_on_c, 3, 45, 82
5, 61292, Note_off_c, 3, 45, 64
5, 61409, Note_on_c, 3, 44, 74
5, 61513, Note_off_c, 3, 44, 64
5, 61659, Note_on_c, 3, 45, 70
5, 61763, Note_off_c, 3, 45, 64
5, 61900, Note_on_c, 3, 42, 66
5, 61987, Note_off_c, 3, 42, 64
5, 62124, Note_on_c, 3, 44, 68
5, 62226, Note_off_c, 3, 44, 64
5, 62376, Note_on_c, 3, 45, 82
5, 62494, Note_off_c, 3, 45, 64
5, 62618, Note_on_c, 3, 50, 80
5, 62713, Note_off_c, 3, 50, 64
5, 62850, Note_on_c, 3, 52, 82
5, 62948, Note_off_c, 3, 52, 64
5, 63082, Note_on_c, 3, 40, 89
5, 63153, Note_off_c, 3, 40, 64
5, 63330, Note_on_c, 3, 45, 87
5, 63445, Note_on_c, 3, 44, 74
5, 63455, Note_off_c, 3, 45, 64
5, 63559, Note_off_c, 3, 44, 64
5, 63577, Note_on_c, 3, 45, 70
5, 63694, Note_on_c, 3, 47, 82
5, 63704, Note_off_c, 3, 45, 64
5, 63826, Note_off_c, 3, 47, 64
5, 63829, Note_on_c, 3, 48, 89
5, 63908, Note_off_c, 3, 48, 64
5, 64063, Note_on_c, 3, 52, 85
5, 64152, Note_off_c, 3, 52, 64
5, 64295, Note_on_c, 3, 57, 89
5, 64488, Note_off_c, 3, 57, 64
5, 64532, Note_on_c, 3, 55, 82
5, 64619, Note_off_c, 3, 55, 64
5, 64641, Note_on_c, 3, 53, 80
5, 64721, Note_off_c, 3, 53, 64
5, 64771, Note_on_c, 3, 52, 78
5, 64873, Note_off_c, 3, 52, 64
5, 64875, Note_on_c, 3, 50, 82
5, 64986, Note_off_c, 3, 50, 64
5, 64997, Note_on_c, 3, 52, 60
5, 65092, Note_off_c, 3, 52, 64
5, 65110, Note_on_c, 3, 53, 70
5, 65205, Note_off_c, 3, 53, 64
5, 65241, Note_on_c, 3, 55, 85
5, 65352, Note_off_c, 3, 55, 64
5, 65489, Note_on_c, 3, 48, 72
5, 65604, Note_off_c, 3, 48, 64
5, 65739, Note_on_c, 3, 50, 82
5, 65841, Note_off_c, 3, 50, 64
5, 65980, Note_on_c, 3, 52, 74
5, 66055, Note_off_c, 3, 52, 64
5, 66228, Note_on_c, 3, 53, 87
5, 66338, Note_on_c, 3, 52, 78
5, 66348, Note_off_c, 3, 53, 64
5, 66452, Note_on_c, 3, 53, 62
5, 66460, Note_off_c, 3, 52, 64
5, 66575, Note_on_c, 3, 55, 68
5, 66587, Note_off_c, 3, 53, 64
5, 66677, Note_off_c, 3, 55, 64
5, 66689, Note_on_c, 3, 57, 68
5, 66810, Note_on_c, 3, 58, 78
5, 66824, Note_off_c, 3, 57, 64
5, 66925, Note_on_c, 3, 57, 72
5, 66927, Note_off_c, 3, 58, 64
5, 67040, Note_on_c, 3, 55, 72
5, 67041, Note_off_c, 3, 57, 64
5, 67162, Note_on_c, 3, 53, 68
5, 67178, Note_off_c, 3, 55, 64
5, 67282, Note_on_c, 3, 52, 64
5, 67284, Note_off_c, 3, 53, 64
5, 67388, Note_off_c, 3, 52, 64
5, 67397, Note_on_c, 3, 50, 66
5, 67521, Note_off_c, 3, 50, 64
5, 67532, Note_on_c, 3, 49, 72
5, 67632, Note_off_c, 3, 49, 64
5, 67654, Note_on_c, 3, 50, 85
5, 67746, Note_off_c, 3, 50, 64
5, 67898, Note_on_c, 3, 52, 74
5, 67992, Note_off_c, 3, 52, 64
5, 68147, Note_on_c, 3, 53, 78
5, 68238, Note_off_c, 3, 53, 64
5, 68374, Note_on_c, 3, 50, 72
5, 68484, Note_off_c, 3, 50, 64
5, 68622, Note_on_c, 3, 52, 78
5, 68730, Note_off_c, 3, 52, 64
5, 68853, Note_on_c, 3, 53, 82
5, 68969, Note_off_c, 3, 53, 64
5, 69101, Note_on_c, 3, 55, 85
5, 69203, Note_off_c, 3, 55, 64
5, 69329, Note_on_c, 3, 43, 87
5, 69444, Note_off_c, 3, 43, 64
5, 69575, Note_on_c, 3, 55, 72
5, 69683, Note_off_c, 3, 55, 64
5, 69807, Note_on_c, 3, 57, 78
5, 69909, Note_off_c, 3, 57, 64
5, 70044, Note_on_c, 3, 55, 78
5, 70166, Note_off_c, 3, 55, 64
5, 70292, Note_on_c, 3, 53, 70
5, 70374, Note_off_c, 3, 53, 64
5, 70534, Note_on_c, 3, 52, 87
5, 70646, Note_off_c, 3, 52, 64
5, 70776, Note_on_c, 3, 50, 74
5, 70883, Note_off_c, 3, 50, 64
5, 71009, Note_on_c, 3, 48, 80
5, 71159, Note_off_c, 3, 48, 64
5, 71246, Note_on_c, 3, 60, 85
5, 71344, Note_off_c, 3, 60, 64
5, 71490, Note_on_c, 3, 55, 85
5, 71592, Note_off_c, 3, 55, 64
5, 71735, Note_on_c, 3, 57, 87
5, 71797, Note_off_c, 3, 57, 64
5, 71966, Note_on_c, 3, 52, 82
5, 72083, Note_on_c, 3, 50, 78
5, 72118, Note_off_c, 3, 52, 64
5, 72196, Note_off_c, 3, 50, 64
5, 72203, Note_on_c, 3, 52, 70
5, 72324, Note_on_c, 3, 53, 82
5, 72338, Note_off_c, 3, 52, 64
5, 72420, Note_off_c, 3, 53, 64
5, 72444, Note_on_c, 3, 55, 82
5, 72561, Note_on_c, 3, 57, 82
5, 72568, Note_off_c, 3, 55, 64
5, 72654, Note_off_c, 3, 57, 64
5, 72683, Note_on_c, 3, 58, 82
5, 72791, Note_off_c, 3, 58, 64
5, 72929, Note_on_c, 3, 57, 80
5, 73046, Note_off_c, 3, 57, 64
5, 73188, Note_on_c, 3, 55, 85
5, 73300, Note_off_c, 3, 55, 64
5, 73424, Note_on_c, 3, 53, 82
5, 73546, Note_off_c, 3, 53, 64
5, 73655, Note_on_c, 3, 52, 80
5, 73750, Note_off_c, 3, 52, 64
5, 73903, Note_on_c, 3, 50, 85
5, 74018, Note_off_c, 3, 50, 64
5, 74150, Note_on_c, 3, 55, 87
5, 74254, Note_on_c, 3, 57, 76
5, 74275, Note_off_c, 3, 55, 64
5, 74347, Note_off_c, 3, 57, 64
5, 74365, Note_on_c, 3, 55, 74
5, 74485, Note_on_c, 3, 53, 76
5, 74505, Note_off_c, 3, 55, 64
5, 74584, Note_on_c, 3, 52, 68
5, 74595, Note_off_c, 3, 53, 64
5, 74702, Note_off_c, 3, 52, 64
5, 74704, Note_on_c, 3, 50, 66
5, 74821, Note_off_c, 3, 50, 64
5, 74830, Note_on_c, 3, 52, 93
5, 74928, Note_off_c, 3, 52, 64
5, 75080, Note_on_c, 3, 55, 78
5, 75180, Note_off_c, 3, 55, 64
5, 75335, Note_on_c, 3, 60, 85
5, 75441, Note_on_c, 3, 59, 72
5, 75446, Note_off_c, 3, 60, 64
5, 75543, Note_off_c, 3, 59, 64
5, 75556, Note_on_c, 3, 57, 72
5, 75673, Note_on_c, 3, 55, 60
5, 75696, Note_off_c, 3, 57, 64
5, 75791, Note_off_c, 3, 55, 64
5, 75793, Note_on_c, 3, 53, 61
5, 75893, Note_on_c, 3, 52, 66
5, 75912, Note_off_c, 3, 53, 64
5, 76023, Note_off_c, 3, 52, 64
5, 76023, Note_on_c, 3, 50, 66
5, 76144, Note_off_c, 3, 50, 64
5, 76144, Note_on_c, 3, 48, 63
5, 76253, Note_off_c, 3, 48, 64
5, 76291, Note_on_c, 3, 50, 82
5, 76415, Note_off_c, 3, 50, 64
5, 76550, Note_on_c, 3, 57, 82
5, 76663, Note_on_c, 3, 55, 78
5, 76685, Note_off_c, 3, 57, 64
5, 76772, Note_on_c, 3, 53, 70
5, 76780, Note_off_c, 3, 55, 64
5, 76890, Note_on_c, 3, 52, 76
5, 76918, Note_off_c, 3, 53, 64
5, 77013, Note_off_c, 3, 52, 64
5, 77013, Note_on_c, 3, 50, 68
5, 77110, Note_on_c, 3, 48, 70
5, 77128, Note_off_c, 3, 50, 64
5, 77230, Note_on_c, 3, 47, 63
5, 77254, Note_off_c, 3, 48, 64
5, 77345, Note_on_c, 3, 45, 61
5, 77353, Note_off_c, 3, 47, 64
5, 77462, Note_on_c, 3, 43, 72
5, 77495, Note_off_c, 3, 45, 64
5, 77584, Note_off_c, 3, 43, 64
5, 77588, Note_on_c, 3, 41, 68
5, 77639, Note_off_c, 3, 41, 64
5, 77719, Note_on_c, 3, 53, 82
5, 78281, Note_off_c, 3, 53, 64
5, 78462, Note_on_c, 3, 47, 78
5, 78556, Note_off_c, 3, 47, 64
5, 78710, Note_on_c, 3, 43, 74
5, 78814, Note_off_c, 3, 43, 64
5, 78950, Note_on_c, 3, 47, 78
5, 79056, Note_off_c, 3, 47, 64
5, 79173, Note_on_c, 3, 48, 76
5, 79288, Note_off_c, 3, 48, 64
5, 79426, Note_on_c, 3, 43, 74
5, 79532, Note_off_c, 3, 43, 64
5, 79667, Note_on_c, 3, 45, 85
5, 79747, Note_off_c, 3, 45, 64
5, 79904, Note_on_c, 3, 41, 85
5, 79994, Note_off_c, 3, 41, 64
5, 80149, Note_on_c, 3, 43, 82
5, 80492, Note_off_c, 3, 43, 64
5, 80647, Note_on_c, 3, 36, 85
5, 81612, Note_off_c, 3, 36, 64
5, 81612, End_track
6, 0, Start_track
6, 0, Title_t, "Oboe1"
6, 0, Program_c, 4, 68
6, 0, Control_c, 4, 7, 100
6, 1298, Note_on_c, 4, 72, 66
6, 1342, Note_off_c, 4, 72, 64
6, 1428, Note_on_c, 4, 72, 87
6, 1541, Note_on_c, 4, 71, 87
6, 1548, Note_off_c, 4, 72, 64
6, 1659, Note_on_c, 4, 72, 70
6, 1668, Note_off_c, 4, 71, 64
6, 1770, Note_on_c, 4, 74, 76
6, 1781, Note_off_c, 4, 72, 64
6, 1898, Note_off_c, 4, 74, 64
6, 1900, Note_on_c, 4, 76, 82
6, 2068, Note_off_c, 4, 76, 64
6, 2254, Note_on_c, 4, 77, 74
6, 2318, Note_off_c, 4, 77, 64
6, 2391, Note_on_c, 4, 76, 89
6, 2442, Note_on_c, 4, 74, 95
6, 2453, Note_off_c, 4, 76, 64
6, 2487, Note_on_c, 4, 76, 66
6, 2493, Note_off_c, 4, 74, 64
6, 2544, Note_on_c, 4, 74, 80
6, 2557, Note_off_c, 4, 76, 64
6, 2604, Note_off_c, 4, 74, 64
6, 2764, Note_on_c, 4, 72, 70
6, 2823, Note_off_c, 4, 72, 64
6, 2879, Note_on_c, 4, 79, 87
6, 3485, Note_off_c, 4, 79, 64
6, 3589, Note_on_c, 4, 77, 80
6, 3680, Note_off_c, 4, 77, 64
6, 3697, Note_on_c, 4, 76, 82
6, 3776, Note_off_c, 4, 76, 64
6, 3828, Note_on_c, 4, 77, 85
6, 4078, Note_off_c, 4, 77, 64
6, 4182, Note_on_c, 4, 79, 80
6, 4244, Note_off_c, 4, 79, 64
6, 4320, Note_on_c, 4, 81, 95
6, 4583, Note_off_c, 4, 81, 64
6, 4654, Note_on_c, 4, 79, 80
6, 4716, Note_off_c, 4, 79, 64
6, 4791, Note_on_c, 4, 77, 91
6, 5012, Note_off_c, 4, 77, 64
6, 5039, Note_on_c, 4, 76, 87
6, 5117, Note_off_c, 4, 76, 64
6, 5141, Note_on_c, 4, 74, 78
6, 5220, Note_off_c, 4, 74, 64
6, 5271, Note_on_c, 4, 76, 93
6, 5510, Note_off_c, 4, 76, 64
6, 5628, Note_on_c, 4, 77, 68
6, 5677, Note_off_c, 4, 77, 64
6, 5756, Note_on_c, 4, 72, 89
6, 5865, Note_on_c, 4, 71, 66
6, 5898, Note_off_c, 4, 72, 64
6, 5991, Note_on_c, 4, 69, 60
6, 5993, Note_off_c, 4, 71, 64
6, 6098, Note_on_c, 4, 67, 68
6, 6106, Note_off_c, 4, 69, 64
6, 6225, Note_off_c, 4, 67, 64
6, 6228, Note_on_c, 4, 69, 78
6, 6340, Note_on_c, 4, 71, 76
6, 6363, Note_off_c, 4, 69, 64
6, 6465, Note_on_c, 4, 72, 64
6, 6489, Note_off_c, 4, 71, 64
6, 6578, Note_on_c, 4, 74, 76
6, 6613, Note_off_c, 4, 72, 64
6, 6637, Note_off_c, 4, 74, 64
6, 6705, Note_on_c, 4, 76, 87
6, 6794, Note_off_c, 4, 76, 64
6, 6797, Note_on_c, 4, 74, 49
6, 6832, Note_off_c, 4, 74, 64
6, 6837, Note_on_c, 4, 76, 62
6, 6890, Note_off_c, 4, 76, 64
6, 6892, Note_on_c, 4, 74, 61
6, 6921, Note_off_c, 4, 74, 64
6, 6930, Note_on_c, 4, 76, 59
6, 6969, Note_off_c, 4, 76, 64
6, 6969, Note_on_c, 4, 74, 78
6, 7042, Note_on_c, 4, 72, 66
6, 7067, Note_off_c, 4, 74, 64
6, 7118, Note_on_c, 4, 74, 80
6, 7140, Note_off_c, 4, 72, 64
6, 7175, Note_on_c, 4, 76, 66
6, 7182, Note_off_c, 4, 74, 64
6, 7432, Note_off_c, 4, 76, 64
6, 7536, Note_on_c, 4, 74, 66
6, 7585, Note_off_c, 4, 74, 64
6, 7667, Note_on_c, 4, 72, 85
6, 7881, Note_off_c, 4, 72, 64
6, 7910, Note_on_c, 4, 71, 89
6, 7983, Note_off_c, 4, 71, 64
6, 8019, Note_on_c, 4, 69, 82
6, 8098, Note_off_c, 4, 69, 64
6, 8156, Note_on_c, 4, 71, 87
6, 8437, Note_off_c, 4, 71, 64
6, 8503, Note_on_c, 4, 72, 80
6, 8550, Note_off_c, 4, 72, 64
6, 8640, Note_on_c, 4, 74, 87
6, 8935, Note_off_c, 4, 74, 64
6, 8977, Note_on_c, 4, 76, 78
6, 9065, Note_off_c, 4, 76, 64
6, 9112, Note_on_c, 4, 78, 85
6, 9196, Note_off_c, 4, 78, 64
6, 9345, Note_on_c, 4, 79, 89
6, 9420, Note_off_c, 4, 79, 64
6, 9584, Note_on_c, 4, 69, 85
6, 9856, Note_off_c, 4, 69, 64
6, 9942, Note_on_c, 4, 71, 76
6, 10006, Note_off_c, 4, 71, 64
6, 10070, Note_on_c, 4, 72, 85
6, 10321, Note_off_c, 4, 72, 64
6, 10418, Note_on_c, 4, 74, 85
6, 10486, Note_off_c, 4, 74, 64
6, 10546, Note_on_c, 4, 72, 87
6, 10668, Note_on_c, 4, 71, 76
6, 10703, Note_off_c, 4, 72, 64
6, 10790, Note_off_c, 4, 71, 64
6, 10790, Note_on_c, 4, 69, 82
6, 10896, Note_on_c, 4, 67, 66
6, 10909, Note_off_c, 4, 69, 64
6, 10965, Note_off_c, 4, 67, 64
6, 11020, Note_on_c, 4, 67, 74
6, 11117, Note_on_c, 4, 66, 82
6, 11122, Note_off_c, 4, 67, 64
6, 11166, Note_off_c, 4, 66, 64
6, 11168, Note_on_c, 4, 67, 70
6, 11216, Note_on_c, 4, 66, 68
6, 11239, Note_off_c, 4, 67, 64
6, 11363, Note_on_c, 4, 67, 82
6, 11370, Note_off_c, 4, 66, 64
6, 11427, Note_off_c, 4, 67, 64
6, 11507, Note_on_c, 4, 67, 74
6, 12503, Note_off_c, 4, 67, 64
6, 12817, Note_on_c, 4, 72, 80
6, 12879, Note_off_c, 4, 72, 64
6, 12941, Note_on_c, 4, 72, 80
6, 13054, Note_on_c, 4, 71, 76
6, 13086, Note_off_c, 4, 72, 64
6, 13181, Note_on_c, 4, 72, 85
6, 13196, Note_off_c, 4, 71, 64
6, 13287, Note_on_c, 4, 74, 80
6, 13311, Note_off_c, 4, 72, 64
6, 13411, Note_off_c, 4, 74, 64
6, 13414, Note_on_c, 4, 76, 78
6, 13597, Note_off_c, 4, 76, 64
6, 13758, Note_on_c, 4, 77, 87
6, 13822, Note_off_c, 4, 77, 64
6, 13893, Note_on_c, 4, 76, 89
6, 13949, Note_on_c, 4, 74, 87
6, 13958, Note_off_c, 4, 76, 64
6, 13995, Note_off_c, 4, 74, 64
6, 13997, Note_on_c, 4, 76, 68
6, 14039, Note_on_c, 4, 74, 87
6, 14050, Note_off_c, 4, 76, 64
6, 14117, Note_off_c, 4, 74, 64
6, 14256, Note_on_c, 4, 72, 80
6, 14323, Note_off_c, 4, 72, 64
6, 14376, Note_on_c, 4, 79, 87
6, 14974, Note_off_c, 4, 79, 64
6, 15117, Note_on_c, 4, 77, 85
6, 15219, Note_on_c, 4, 76, 68
6, 15224, Note_off_c, 4, 77, 64
6, 15315, Note_off_c, 4, 76, 64
6, 15352, Note_on_c, 4, 77, 93
6, 15591, Note_off_c, 4, 77, 64
6, 15700, Note_on_c, 4, 79, 78
6, 15771, Note_off_c, 4, 79, 64
6, 15837, Note_on_c, 4, 81, 100
6, 16103, Note_off_c, 4, 81, 64
6, 16169, Note_on_c, 4, 79, 82
6, 16231, Note_off_c, 4, 79, 64
6, 16305, Note_on_c, 4, 77, 80
6, 16519, Note_off_c, 4, 77, 64
6, 16552, Note_on_c, 4, 76, 78
6, 16631, Note_off_c, 4, 76, 64
6, 16655, Note_on_c, 4, 74, 80
6, 16733, Note_off_c, 4, 74, 64
6, 16791, Note_on_c, 4, 76, 87
6, 17037, Note_off_c, 4, 76, 64
6, 17161, Note_on_c, 4, 77, 82
6, 17223, Note_off_c, 4, 77, 64
6, 17289, Note_on_c, 4, 72, 91
6, 17398, Note_on_c, 4, 71, 64
6, 17431, Note_off_c, 4, 72, 64
6, 17508, Note_on_c, 4, 69, 68
6, 17517, Note_off_c, 4, 71, 64
6, 17621, Note_on_c, 4, 67, 68
6, 17636, Note_off_c, 4, 69, 64
6, 17732, Note_off_c, 4, 67, 64
6, 17750, Note_on_c, 4, 69, 76
6, 17864, Note_on_c, 4, 71, 76
6, 17891, Note_off_c, 4, 69, 64
6, 17973, Note_on_c, 4, 72, 64
6, 17991, Note_off_c, 4, 71, 64
6, 18092, Note_on_c, 4, 74, 76
6, 18130, Note_off_c, 4, 72, 64
6, 18164, Note_off_c, 4, 74, 64
6, 18211, Note_on_c, 4, 76, 89
6, 18303, Note_off_c, 4, 76, 64
6, 18304, Note_on_c, 4, 74, 52
6, 18352, Note_off_c, 4, 74, 64
6, 18352, Note_on_c, 4, 76, 63
6, 18410, Note_off_c, 4, 76, 64
6, 18410, Note_on_c, 4, 74, 58
6, 18447, Note_off_c, 4, 74, 64
6, 18450, Note_on_c, 4, 76, 62
6, 18493, Note_on_c, 4, 74, 70
6, 18511, Note_off_c, 4, 76, 64
6, 18544, Note_on_c, 4, 72, 78
6, 18564, Note_off_c, 4, 74, 64
6, 18610, Note_on_c, 4, 74, 72
6, 18644, Note_off_c, 4, 72, 64
6, 18688, Note_off_c, 4, 74, 64
6, 18703, Note_on_c, 4, 76, 89
6, 18958, Note_off_c, 4, 76, 64
6, 19064, Note_on_c, 4, 74, 76
6, 19120, Note_off_c, 4, 74, 64
6, 19196, Note_on_c, 4, 72, 85
6, 19412, Note_off_c, 4, 72, 64
6, 19430, Note_on_c, 4, 71, 74
6, 19514, Note_off_c, 4, 71, 64
6, 19543, Note_on_c, 4, 69, 78
6, 19624, Note_off_c, 4, 69, 64
6, 19675, Note_on_c, 4, 71, 78
6, 19959, Note_off_c, 4, 71, 64
6, 20027, Note_on_c, 4, 72, 80
6, 20072, Note_off_c, 4, 72, 64
6, 20147, Note_on_c, 4, 74, 95
6, 20448, Note_off_c, 4, 74, 64
6, 20503, Note_on_c, 4, 76, 72
6, 20592, Note_off_c, 4, 76, 64
6, 20625, Note_on_c, 4, 78, 87
6, 20718, Note_off_c, 4, 78, 64
6, 20873, Note_on_c, 4, 79, 91
6, 20942, Note_off_c, 4, 79, 64
6, 21112, Note_on_c, 4, 69, 85
6, 21415, Note_off_c, 4, 69, 64
6, 21460, Note_on_c, 4, 71, 76
6, 21539, Note_off_c, 4, 71, 64
6, 21595, Note_on_c, 4, 72, 85
6, 21831, Note_off_c, 4, 72, 64
6, 21926, Note_on_c, 4, 74, 80
6, 21986, Note_off_c, 4, 74, 64
6, 22064, Note_on_c, 4, 72, 91
6, 22183, Note_on_c, 4, 71, 82
6, 22212, Note_off_c, 4, 72, 64
6, 22300, Note_on_c, 4, 69, 80
6, 22305, Note_off_c, 4, 71, 64
6, 22409, Note_on_c, 4, 67, 66
6, 22418, Note_off_c, 4, 69, 64
6, 22473, Note_off_c, 4, 67, 64
6, 22533, Note_on_c, 4, 67, 78
6, 22630, Note_off_c, 4, 67, 64
6, 22630, Note_on_c, 4, 66, 76
6, 22676, Note_off_c, 4, 66, 64
6, 22683, Note_on_c, 4, 67, 70
6, 22728, Note_on_c, 4, 66, 70
6, 22780, Note_off_c, 4, 66, 64
6, 22801, Note_on_c, 4, 66, 74
6, 22820, Note_off_c, 4, 67, 64
6, 22911, Note_on_c, 4, 67, 78
6, 22921, Note_off_c, 4, 66, 64
6, 22967, Note_off_c, 4, 67, 64
6, 23040, Note_on_c, 4, 67, 63
6, 24036, Note_off_c, 4, 67, 64
6, 53132, Note_on_c, 4, 74, 85
6, 53188, Note_off_c, 4, 74, 64
6, 53267, Note_on_c, 4, 74, 95
6, 53374, Note_on_c, 4, 72, 76
6, 53378, Note_off_c, 4, 74, 64
6, 53500, Note_off_c, 4, 72, 64
6, 53506, Note_on_c, 4, 74, 70
6, 53613, Note_on_c, 4, 76, 78
6, 53624, Note_off_c, 4, 74, 64
6, 53713, Note_off_c, 4, 76, 64
6, 53743, Note_on_c, 4, 77, 85
6, 53925, Note_off_c, 4, 77, 64
6, 54093, Note_on_c, 4, 79, 72
6, 54153, Note_off_c, 4, 79, 64
6, 54222, Note_on_c, 4, 77, 91
6, 54270, Note_on_c, 4, 76, 87
6, 54275, Note_off_c, 4, 77, 64
6, 54328, Note_on_c, 4, 77, 72
6, 54337, Note_off_c, 4, 76, 64
6, 54381, Note_on_c, 4, 76, 66
6, 54401, Note_off_c, 4, 77, 64
6, 54456, Note_off_c, 4, 76, 64
6, 54589, Note_on_c, 4, 74, 82
6, 54673, Note_off_c, 4, 74, 64
6, 54722, Note_on_c, 4, 81, 87
6, 55291, Note_off_c, 4, 81, 64
6, 55424, Note_on_c, 4, 79, 74
6, 55517, Note_on_c, 4, 77, 68
6, 55538, Note_off_c, 4, 79, 64
6, 55614, Note_off_c, 4, 77, 64
6, 55651, Note_on_c, 4, 79, 87
6, 55846, Note_off_c, 4, 79, 64
6, 56026, Note_on_c, 4, 81, 68
6, 56076, Note_off_c, 4, 81, 64
6, 56156, Note_on_c, 4, 82, 82
6, 56391, Note_off_c, 4, 82, 64
6, 56486, Note_on_c, 4, 81, 72
6, 56543, Note_off_c, 4, 81, 64
6, 56627, Note_on_c, 4, 79, 89
6, 56812, Note_off_c, 4, 79, 64
6, 56856, Note_on_c, 4, 77, 70
6, 56929, Note_off_c, 4, 77, 64
6, 56960, Note_on_c, 4, 76, 82
6, 57037, Note_off_c, 4, 76, 64
6, 57106, Note_on_c, 4, 77, 80
6, 57351, Note_off_c, 4, 77, 64
6, 57458, Note_on_c, 4, 79, 80
6, 57524, Note_off_c, 4, 79, 64
6, 57593, Note_on_c, 4, 74, 85
6, 57697, Note_on_c, 4, 73, 66
6, 57719, Note_off_c, 4, 74, 64
6, 57814, Note_on_c, 4, 71, 59
6, 57847, Note_off_c, 4, 73, 64
6, 57940, Note_on_c, 4, 69, 70
6, 57952, Note_off_c, 4, 71, 64
6, 58058, Note_on_c, 4, 71, 64
6, 58075, Note_off_c, 4, 69, 64
6, 58179, Note_on_c, 4, 73, 61
6, 58195, Note_off_c, 4, 71, 64
6, 58279, Note_off_c, 4, 73, 64
6, 58286, Note_on_c, 4, 74, 78
6, 58394, Note_on_c, 4, 76, 80
6, 58414, Note_off_c, 4, 74, 64
6, 58476, Note_off_c, 4, 76, 64
6, 58522, Note_on_c, 4, 77, 82
6, 58598, Note_on_c, 4, 76, 53
6, 58604, Note_off_c, 4, 77, 64
6, 58649, Note_off_c, 4, 76, 64
6, 58653, Note_on_c, 4, 77, 64
6, 58698, Note_on_c, 4, 76, 70
6, 58702, Note_off_c, 4, 77, 64
6, 58739, Note_off_c, 4, 76, 64
6, 58748, Note_on_c, 4, 77, 80
6, 58793, Note_on_c, 4, 76, 66
6, 58813, Note_off_c, 4, 77, 64
6, 58864, Note_on_c, 4, 74, 57
6, 58881, Note_off_c, 4, 76, 64
6, 58928, Note_on_c, 4, 76, 74
6, 58965, Note_off_c, 4, 74, 64
6, 58999, Note_off_c, 4, 76, 64
6, 59018, Note_on_c, 4, 77, 91
6, 59273, Note_off_c, 4, 77, 64
6, 59362, Note_on_c, 4, 76, 74
6, 59430, Note_off_c, 4, 76, 64
6, 59503, Note_on_c, 4, 74, 87
6, 59698, Note_off_c, 4, 74, 64
6, 59744, Note_on_c, 4, 72, 72
6, 59839, Note_on_c, 4, 71, 68
6, 59859, Note_off_c, 4, 72, 64
6, 59917, Note_off_c, 4, 71, 64
6, 59979, Note_on_c, 4, 72, 85
6, 60242, Note_off_c, 4, 72, 64
6, 60324, Note_on_c, 4, 74, 78
6, 60375, Note_off_c, 4, 74, 64
6, 60459, Note_on_c, 4, 76, 85
6, 60718, Note_off_c, 4, 76, 64
6, 60803, Note_on_c, 4, 78, 63
6, 60887, Note_off_c, 4, 78, 64
6, 60942, Note_on_c, 4, 80, 93
6, 61017, Note_off_c, 4, 80, 64
6, 61183, Note_on_c, 4, 81, 95
6, 61252, Note_off_c, 4, 81, 64
6, 61416, Note_on_c, 4, 71, 87
6, 61693, Note_off_c, 4, 71, 64
6, 61770, Note_on_c, 4, 72, 70
6, 61830, Note_off_c, 4, 72, 64
6, 61900, Note_on_c, 4, 74, 87
6, 62131, Note_off_c, 4, 74, 64
6, 62257, Note_on_c, 4, 76, 80
6, 62325, Note_off_c, 4, 76, 64
6, 62383, Note_on_c, 4, 72, 74
6, 62658, Note_off_c, 4, 72, 64
6, 62739, Note_on_c, 4, 71, 68
6, 62786, Note_off_c, 4, 71, 64
6, 62855, Note_on_c, 4, 72, 82
6, 62903, Note_on_c, 4, 71, 62
6, 62910, Note_off_c, 4, 72, 64
6, 62947, Note_on_c, 4, 72, 64
6, 62950, Note_off_c, 4, 71, 64
6, 62996, Note_on_c, 4, 71, 68
6, 63018, Note_off_c, 4, 72, 64
6, 63145, Note_off_c, 4, 71, 64
6, 63207, Note_on_c, 4, 69, 80
6, 63266, Note_off_c, 4, 69, 64
6, 63352, Note_on_c, 4, 69, 87
6, 63870, Note_off_c, 4, 69, 64
6, 63924, Note_on_c, 4, 71, 74
6, 64036, Note_on_c, 4, 72, 66
6, 64057, Note_off_c, 4, 71, 64
6, 64154, Note_on_c, 4, 74, 82
6, 64191, Note_off_c, 4, 72, 64
6, 64249, Note_off_c, 4, 74, 64
6, 64276, Note_on_c, 4, 76, 85
6, 64391, Note_on_c, 4, 77, 68
6, 64404, Note_off_c, 4, 76, 64
6, 64473, Note_off_c, 4, 77, 64
6, 64490, Note_on_c, 4, 79, 72
6, 64535, Note_off_c, 4, 79, 64
6, 64535, Note_on_c, 4, 77, 62
6, 64588, Note_on_c, 4, 79, 74
6, 64652, Note_off_c, 4, 79, 64
6, 64665, Note_on_c, 4, 76, 66
6, 64683, Note_off_c, 4, 77, 64
6, 64723, Note_on_c, 4, 77, 66
6, 64751, Note_off_c, 4, 76, 64
6, 64776, Note_on_c, 4, 79, 91
6, 64783, Note_off_c, 4, 77, 64
6, 65039, Note_off_c, 4, 79, 64
6, 65112, Note_on_c, 4, 77, 68
6, 65179, Note_off_c, 4, 77, 64
6, 65250, Note_on_c, 4, 76, 91
6, 65478, Note_off_c, 4, 76, 64
6, 65498, Note_on_c, 4, 74, 74
6, 65593, Note_off_c, 4, 74, 64
6, 65602, Note_on_c, 4, 72, 62
6, 65681, Note_off_c, 4, 72, 64
6, 65737, Note_on_c, 4, 70, 85
6, 65845, Note_on_c, 4, 69, 72
6, 65856, Note_off_c, 4, 70, 64
6, 65936, Note_off_c, 4, 69, 64
6, 65971, Note_on_c, 4, 70, 64
6, 66080, Note_on_c, 4, 67, 63
6, 66084, Note_off_c, 4, 70, 64
6, 66170, Note_off_c, 4, 67, 64
6, 66219, Note_on_c, 4, 69, 76
6, 66509, Note_off_c, 4, 69, 64
6, 66567, Note_on_c, 4, 67, 85
6, 66646, Note_off_c, 4, 67, 64
6, 66695, Note_on_c, 4, 65, 85
6, 66801, Note_off_c, 4, 65, 64
6, 66945, Note_on_c, 4, 69, 87
6, 67003, Note_off_c, 4, 69, 64
6, 67182, Note_on_c, 4, 74, 87
6, 67459, Note_off_c, 4, 74, 64
6, 67532, Note_on_c, 4, 76, 80
6, 67607, Note_off_c, 4, 76, 64
6, 67659, Note_on_c, 4, 77, 91
6, 67910, Note_off_c, 4, 77, 64
6, 68010, Note_on_c, 4, 79, 85
6, 68090, Note_off_c, 4, 79, 64
6, 68145, Note_on_c, 4, 81, 87
6, 68253, Note_on_c, 4, 79, 80
6, 68284, Note_off_c, 4, 81, 64
6, 68374, Note_on_c, 4, 77, 89
6, 68411, Note_off_c, 4, 79, 64
6, 68494, Note_on_c, 4, 76, 76
6, 68540, Note_off_c, 4, 77, 64
6, 68603, Note_on_c, 4, 74, 66
6, 68614, Note_off_c, 4, 76, 64
6, 68705, Note_on_c, 4, 72, 76
6, 68725, Note_off_c, 4, 74, 64
6, 68842, Note_on_c, 4, 71, 63
6, 68845, Note_off_c, 4, 72, 64
6, 68951, Note_on_c, 4, 72, 78
6, 68968, Note_off_c, 4, 71, 64
6, 69020, Note_off_c, 4, 72, 64
6, 69084, Note_on_c, 4, 72, 80
6, 69143, Note_off_c, 4, 72, 64
6, 69143, Note_on_c, 4, 71, 62
6, 69183, Note_on_c, 4, 72, 82
6, 69192, Note_off_c, 4, 71, 64
6, 69238, Note_on_c, 4, 71, 70
6, 69258, Note_off_c, 4, 72, 64
6, 69428, Note_on_c, 4, 72, 76
6, 69436, Note_off_c, 4, 71, 64
6, 69508, Note_off_c, 4, 72, 64
6, 69568, Note_on_c, 4, 74, 87
6, 69763, Note_off_c, 4, 74, 64
6, 69818, Note_on_c, 4, 72, 70
6, 69920, Note_off_c, 4, 72, 64
6, 69927, Note_on_c, 4, 71, 66
6, 70016, Note_off_c, 4, 71, 64
6, 70063, Note_on_c, 4, 69, 95
6, 70171, Note_on_c, 4, 67, 74
6, 70179, Note_off_c, 4, 69, 64
6, 70296, Note_off_c, 4, 67, 64
6, 70299, Note_on_c, 4, 69, 66
6, 70409, Note_on_c, 4, 71, 78
6, 70423, Note_off_c, 4, 69, 64
6, 70474, Note_off_c, 4, 71, 64
6, 70533, Note_on_c, 4, 72, 93
6, 70638, Note_off_c, 4, 72, 64
6, 70646, Note_on_c, 4, 71, 82
6, 70762, Note_off_c, 4, 71, 64
6, 70768, Note_on_c, 4, 72, 80
6, 70876, Note_off_c, 4, 72, 64
6, 70883, Note_on_c, 4, 74, 76
6, 70981, Note_off_c, 4, 74, 64
6, 71014, Note_on_c, 4, 76, 89
6, 71195, Note_off_c, 4, 76, 64
6, 71350, Note_on_c, 4, 77, 72
6, 71414, Note_off_c, 4, 77, 64
6, 71487, Note_on_c, 4, 76, 87
6, 71534, Note_on_c, 4, 74, 85
6, 71535, Note_off_c, 4, 76, 64
6, 71580, Note_on_c, 4, 76, 66
6, 71592, Note_off_c, 4, 74, 64
6, 71640, Note_on_c, 4, 74, 70
6, 71649, Note_off_c, 4, 76, 64
6, 71713, Note_off_c, 4, 74, 64
6, 71869, Note_on_c, 4, 72, 85
6, 71946, Note_off_c, 4, 72, 64
6, 71990, Note_on_c, 4, 79, 91
6, 72579, Note_off_c, 4, 79, 64
6, 72714, Note_on_c, 4, 77, 76
6, 72809, Note_on_c, 4, 76, 80
6, 72811, Note_off_c, 4, 77, 64
6, 72900, Note_off_c, 4, 76, 64
6, 72944, Note_on_c, 4, 77, 85
6, 73176, Note_off_c, 4, 77, 64
6, 73283, Note_on_c, 4, 79, 82
6, 73365, Note_off_c, 4, 79, 64
6, 73422, Note_on_c, 4, 81, 89
6, 73695, Note_off_c, 4, 81, 64
6, 73767, Note_on_c, 4, 79, 74
6, 73845, Note_off_c, 4, 79, 64
6, 73898, Note_on_c, 4, 77, 89
6, 74082, Note_off_c, 4, 77, 64
6, 74139, Note_on_c, 4, 76, 72
6, 74221, Note_off_c, 4, 76, 64
6, 74241, Note_on_c, 4, 74, 82
6, 74336, Note_off_c, 4, 74, 64
6, 74383, Note_on_c, 4, 76, 89
6, 74635, Note_off_c, 4, 76, 64
6, 74720, Note_on_c, 4, 77, 85
6, 74790, Note_off_c, 4, 77, 64
6, 74854, Note_on_c, 4, 79, 91
6, 75127, Note_off_c, 4, 79, 64
6, 75211, Note_on_c, 4, 77, 74
6, 75271, Note_off_c, 4, 77, 64
6, 75342, Note_on_c, 4, 76, 85
6, 75454, Note_on_c, 4, 74, 80
6, 75456, Note_off_c, 4, 76, 64
6, 75552, Note_off_c, 4, 74, 64
6, 75572, Note_on_c, 4, 76, 68
6, 75673, Note_off_c, 4, 76, 64
6, 75682, Note_on_c, 4, 72, 82
6, 75775, Note_off_c, 4, 72, 64
6, 75819, Note_on_c, 4, 74, 76
6, 76070, Note_off_c, 4, 74, 64
6, 76161, Note_on_c, 4, 76, 80
6, 76240, Note_off_c, 4, 76, 64
6, 76298, Note_on_c, 4, 77, 91
6, 76574, Note_off_c, 4, 77, 64
6, 76659, Note_on_c, 4, 76, 74
6, 76723, Note_off_c, 4, 76, 64
6, 76789, Note_on_c, 4, 74, 91
6, 76907, Note_on_c, 4, 72, 85
6, 76928, Note_off_c, 4, 74, 64
6, 77011, Note_off_c, 4, 72, 64
6, 77033, Note_on_c, 4, 71, 76
6, 77139, Note_off_c, 4, 71, 64
6, 77156, Note_on_c, 4, 72, 66
6, 77238, Note_off_c, 4, 72, 64
6, 77280, Note_on_c, 4, 74, 87
6, 77385, Note_on_c, 4, 71, 82
6, 77400, Note_off_c, 4, 74, 64
6, 77497, Note_off_c, 4, 71, 64
6, 77506, Note_on_c, 4, 72, 56
6, 77619, Note_on_c, 4, 74, 85
6, 77624, Note_off_c, 4, 72, 64
6, 77690, Note_off_c, 4, 74, 64
6, 77747, Note_on_c, 4, 67, 80
6, 78053, Note_off_c, 4, 67, 64
6, 78104, Note_on_c, 4, 69, 64
6, 78228, Note_on_c, 4, 71, 82
6, 78234, Note_off_c, 4, 69, 64
6, 78334, Note_off_c, 4, 71, 64
6, 78352, Note_on_c, 4, 72, 85
6, 78460, Note_on_c, 4, 74, 66
6, 78472, Note_off_c, 4, 72, 64
6, 78567, Note_off_c, 4, 74, 64
6, 78575, Note_on_c, 4, 76, 87
6, 78660, Note_off_c, 4, 76, 64
6, 78691, Note_on_c, 4, 77, 89
6, 78783, Note_off_c, 4, 77, 64
6, 78801, Note_on_c, 4, 74, 85
6, 78883, Note_off_c, 4, 74, 64
6, 78934, Note_on_c, 4, 79, 95
6, 79025, Note_off_c, 4, 79, 64
6, 79186, Note_on_c, 4, 76, 87
6, 79446, Note_off_c, 4, 76, 64
6, 79540, Note_on_c, 4, 74, 76
6, 79592, Note_off_c, 4, 74, 64
6, 79662, Note_on_c, 4, 72, 89
6, 79775, Note_off_c, 4, 72, 64
6, 79775, Note_on_c, 4, 71, 85
6, 79854, Note_off_c, 4, 71, 64
6, 79888, Note_on_c, 4, 72, 82
6, 79988, Note_off_c, 4, 72, 64
6, 79996, Note_on_c, 4, 69, 66
6, 80068, Note_off_c, 4, 69, 64
6, 80121, Note_on_c, 4, 72, 85
6, 80250, Note_off_c, 4, 72, 64
6, 80250, Note_on_c, 4, 71, 58
6, 80293, Note_off_c, 4, 71, 64
6, 80295, Note_on_c, 4, 72, 66
6, 80335, Note_off_c, 4, 72, 64
6, 80338, Note_on_c, 4, 71, 70
6, 80380, Note_on_c, 4, 72, 82
6, 80382, Note_off_c, 4, 71, 64
6, 80420, Note_on_c, 4, 71, 78
6, 80439, Note_off_c, 4, 72, 64
6, 80515, Note_on_c, 4, 72, 78
6, 80523, Note_off_c, 4, 71, 64
6, 80577, Note_off_c, 4, 72, 64
6, 80632, Note_on_c, 4, 72, 89
6, 81600, Note_off_c, 4, 72, 64
6, 81600, End_track
7, 0, Start_track
7, 0, Title_t, "Oboe2"
7, 0, Program_c, 5, 68
7, 0, Control_c, 5, 7, 100
7, 1314, Note_on_c, 5, 72, 87
7, 1353, Note_off_c, 5, 72, 64
7, 1435, Note_on_c, 5, 72, 89
7, 1552, Note_on_c, 5, 71, 74
7, 1572, Note_off_c, 5, 72, 64
7, 1674, Note_on_c, 5, 72, 80
7, 1688, Note_off_c, 5, 71, 64
7, 1781, Note_on_c, 5, 74, 82
7, 1801, Note_off_c, 5, 72, 64
7, 1903, Note_on_c, 5, 76, 82
7, 1904, Note_off_c, 5, 74, 64
7, 2104, Note_off_c, 5, 76, 64
7, 2261, Note_on_c, 5, 77, 80
7, 2325, Note_off_c, 5, 77, 64
7, 2394, Note_on_c, 5, 76, 85
7, 2453, Note_on_c, 5, 74, 102
7, 2460, Note_off_c, 5, 76, 64
7, 2502, Note_off_c, 5, 74, 64
7, 2504, Note_on_c, 5, 76, 59
7, 2555, Note_on_c, 5, 74, 82
7, 2562, Note_off_c, 5, 76, 64
7, 2629, Note_off_c, 5, 74, 64
7, 2746, Note_on_c, 5, 72, 80
7, 2816, Note_off_c, 5, 72, 64
7, 2870, Note_on_c, 5, 79, 80
7, 3514, Note_off_c, 5, 79, 64
7, 3583, Note_on_c, 5, 77, 80
7, 3673, Note_off_c, 5, 77, 64
7, 3684, Note_on_c, 5, 76, 78
7, 3773, Note_off_c, 5, 76, 64
7, 3823, Note_on_c, 5, 77, 85
7, 4063, Note_off_c, 5, 77, 64
7, 4173, Note_on_c, 5, 79, 82
7, 4235, Note_off_c, 5, 79, 64
7, 4306, Note_on_c, 5, 81, 95
7, 4592, Note_off_c, 5, 81, 64
7, 4647, Note_on_c, 5, 79, 80
7, 4714, Note_off_c, 5, 79, 64
7, 4782, Note_on_c, 5, 77, 85
7, 4985, Note_off_c, 5, 77, 64
7, 5028, Note_on_c, 5, 76, 68
7, 5110, Note_off_c, 5, 76, 64
7, 5132, Note_on_c, 5, 74, 76
7, 5211, Note_off_c, 5, 74, 64
7, 5267, Note_on_c, 5, 76, 89
7, 5521, Note_off_c, 5, 76, 64
7, 5621, Note_on_c, 5, 77, 78
7, 5674, Note_off_c, 5, 77, 64
7, 5759, Note_on_c, 5, 72, 80
7, 5863, Note_on_c, 5, 71, 56
7, 5898, Note_off_c, 5, 72, 64
7, 5987, Note_on_c, 5, 69, 64
7, 5998, Note_off_c, 5, 71, 64
7, 6104, Note_on_c, 5, 67, 72
7, 6119, Note_off_c, 5, 69, 64
7, 6223, Note_off_c, 5, 67, 64
7, 6230, Note_on_c, 5, 69, 82
7, 6346, Note_on_c, 5, 71, 72
7, 6372, Note_off_c, 5, 69, 64
7, 6456, Note_on_c, 5, 72, 68
7, 6474, Note_off_c, 5, 71, 64
7, 6573, Note_on_c, 5, 74, 68
7, 6608, Note_off_c, 5, 72, 64
7, 6635, Note_off_c, 5, 74, 64
7, 6697, Note_on_c, 5, 76, 89
7, 6777, Note_off_c, 5, 76, 64
7, 6786, Note_on_c, 5, 74, 61
7, 6827, Note_off_c, 5, 74, 64
7, 6830, Note_on_c, 5, 76, 66
7, 6885, Note_off_c, 5, 76, 64
7, 6890, Note_on_c, 5, 74, 57
7, 6918, Note_off_c, 5, 74, 64
7, 6925, Note_on_c, 5, 76, 60
7, 6963, Note_on_c, 5, 74, 70
7, 6972, Note_off_c, 5, 76, 64
7, 7025, Note_on_c, 5, 72, 80
7, 7040, Note_off_c, 5, 74, 64
7, 7098, Note_on_c, 5, 74, 82
7, 7126, Note_off_c, 5, 72, 64
7, 7169, Note_off_c, 5, 74, 64
7, 7186, Note_on_c, 5, 76, 80
7, 7438, Note_off_c, 5, 76, 64
7, 7529, Note_on_c, 5, 74, 66
7, 7585, Note_off_c, 5, 74, 64
7, 7664, Note_on_c, 5, 72, 82
7, 7877, Note_off_c, 5, 72, 64
7, 7908, Note_on_c, 5, 71, 74
7, 7992, Note_off_c, 5, 71, 64
7, 8018, Note_on_c, 5, 69, 78
7, 8094, Note_off_c, 5, 69, 64
7, 8147, Note_on_c, 5, 71, 87
7, 8419, Note_off_c, 5, 71, 64
7, 8505, Note_on_c, 5, 72, 82
7, 8547, Note_off_c, 5, 72, 64
7, 8636, Note_on_c, 5, 74, 91
7, 8946, Note_off_c, 5, 74, 64
7, 8977, Note_on_c, 5, 76, 80
7, 9070, Note_off_c, 5, 76, 64
7, 9108, Note_on_c, 5, 78, 78
7, 9183, Note_off_c, 5, 78, 64
7, 9353, Note_on_c, 5, 79, 91
7, 9422, Note_off_c, 5, 79, 64
7, 9588, Note_on_c, 5, 69, 89
7, 9880, Note_off_c, 5, 69, 64
7, 9913, Note_on_c, 5, 71, 76
7, 9995, Note_off_c, 5, 71, 64
7, 10050, Note_on_c, 5, 72, 82
7, 10290, Note_off_c, 5, 72, 64
7, 10396, Note_on_c, 5, 74, 82
7, 10456, Note_off_c, 5, 74, 64
7, 10535, Note_on_c, 5, 72, 89
7, 10659, Note_on_c, 5, 71, 78
7, 10690, Note_off_c, 5, 72, 64
7, 10777, Note_off_c, 5, 71, 64
7, 10777, Note_on_c, 5, 69, 85
7, 10887, Note_on_c, 5, 67, 70
7, 10896, Note_off_c, 5, 69, 64
7, 10951, Note_off_c, 5, 67, 64
7, 11009, Note_on_c, 5, 67, 82
7, 11122, Note_on_c, 5, 66, 76
7, 11124, Note_off_c, 5, 67, 64
7, 11172, Note_off_c, 5, 66, 64
7, 11173, Note_on_c, 5, 67, 82
7, 11226, Note_on_c, 5, 66, 66
7, 11253, Note_off_c, 5, 67, 64
7, 11357, Note_on_c, 5, 67, 66
7, 11372, Note_off_c, 5, 66, 64
7, 11423, Note_off_c, 5, 67, 64
7, 11507, Note_on_c, 5, 67, 66
7, 12483, Note_off_c, 5, 67, 64
7, 12810, Note_on_c, 5, 72, 68
7, 12868, Note_off_c, 5, 72, 64
7, 12944, Note_on_c, 5, 72, 91
7, 13060, Note_on_c, 5, 71, 72
7, 13088, Note_off_c, 5, 72, 64
7, 13187, Note_on_c, 5, 72, 80
7, 13205, Note_off_c, 5, 71, 64
7, 13293, Note_on_c, 5, 74, 82
7, 13316, Note_off_c, 5, 72, 64
7, 13411, Note_off_c, 5, 74, 64
7, 13418, Note_on_c, 5, 76, 80
7, 13614, Note_off_c, 5, 76, 64
7, 13774, Note_on_c, 5, 77, 82
7, 13842, Note_off_c, 5, 77, 64
7, 13911, Note_on_c, 5, 76, 80
7, 13964, Note_on_c, 5, 74, 89
7, 13973, Note_off_c, 5, 76, 64
7, 14008, Note_on_c, 5, 76, 60
7, 14010, Note_off_c, 5, 74, 64
7, 14055, Note_on_c, 5, 74, 78
7, 14068, Note_off_c, 5, 76, 64
7, 14133, Note_off_c, 5, 74, 64
7, 14256, Note_on_c, 5, 72, 76
7, 14325, Note_off_c, 5, 72, 64
7, 14389, Note_on_c, 5, 79, 85
7, 15053, Note_off_c, 5, 79, 64
7, 15109, Note_on_c, 5, 77, 82
7, 15195, Note_off_c, 5, 77, 64
7, 15204, Note_on_c, 5, 76, 78
7, 15312, Note_off_c, 5, 76, 64
7, 15348, Note_on_c, 5, 77, 85
7, 15589, Note_off_c, 5, 77, 64
7, 15702, Note_on_c, 5, 79, 80
7, 15753, Note_off_c, 5, 79, 64
7, 15839, Note_on_c, 5, 81, 91
7, 16107, Note_off_c, 5, 81, 64
7, 16169, Note_on_c, 5, 79, 76
7, 16235, Note_off_c, 5, 79, 64
7, 16304, Note_on_c, 5, 77, 76
7, 16521, Note_off_c, 5, 77, 64
7, 16552, Note_on_c, 5, 76, 64
7, 16651, Note_off_c, 5, 76, 64
7, 16663, Note_on_c, 5, 74, 76
7, 16747, Note_off_c, 5, 74, 64
7, 16795, Note_on_c, 5, 76, 93
7, 17044, Note_off_c, 5, 76, 64
7, 17140, Note_on_c, 5, 77, 80
7, 17205, Note_off_c, 5, 77, 64
7, 17287, Note_on_c, 5, 72, 85
7, 17387, Note_on_c, 5, 71, 61
7, 17418, Note_off_c, 5, 72, 64
7, 17502, Note_on_c, 5, 69, 64
7, 17512, Note_off_c, 5, 71, 64
7, 17623, Note_on_c, 5, 67, 68
7, 17643, Note_off_c, 5, 69, 64
7, 17754, Note_off_c, 5, 67, 64
7, 17754, Note_on_c, 5, 69, 76
7, 17865, Note_on_c, 5, 71, 76
7, 17893, Note_off_c, 5, 69, 64
7, 17973, Note_on_c, 5, 72, 64
7, 17991, Note_off_c, 5, 71, 64
7, 18093, Note_on_c, 5, 74, 78
7, 18130, Note_off_c, 5, 72, 64
7, 18163, Note_off_c, 5, 74, 64
7, 18219, Note_on_c, 5, 76, 85
7, 18316, Note_off_c, 5, 76, 64
7, 18320, Note_on_c, 5, 74, 55
7, 18367, Note_off_c, 5, 74, 64
7, 18367, Note_on_c, 5, 76, 72
7, 18419, Note_off_c, 5, 76, 64
7, 18424, Note_on_c, 5, 74, 59
7, 18458, Note_off_c, 5, 74, 64
7, 18460, Note_on_c, 5, 76, 66
7, 18507, Note_on_c, 5, 74, 62
7, 18509, Note_off_c, 5, 76, 64
7, 18553, Note_on_c, 5, 72, 64
7, 18597, Note_off_c, 5, 74, 64
7, 18639, Note_on_c, 5, 74, 74
7, 18668, Note_off_c, 5, 72, 64
7, 18701, Note_off_c, 5, 74, 64
7, 18706, Note_on_c, 5, 76, 72
7, 18960, Note_off_c, 5, 76, 64
7, 19058, Note_on_c, 5, 74, 74
7, 19111, Note_off_c, 5, 74, 64
7, 19188, Note_on_c, 5, 72, 78
7, 19408, Note_off_c, 5, 72, 64
7, 19423, Note_on_c, 5, 71, 68
7, 19505, Note_off_c, 5, 71, 64
7, 19534, Note_on_c, 5, 69, 64
7, 19609, Note_off_c, 5, 69, 64
7, 19680, Note_on_c, 5, 71, 80
7, 19950, Note_off_c, 5, 71, 64
7, 20034, Note_on_c, 5, 72, 82
7, 20083, Note_off_c, 5, 72, 64
7, 20171, Note_on_c, 5, 74, 95
7, 20463, Note_off_c, 5, 74, 64
7, 20517, Note_on_c, 5, 76, 66
7, 20603, Note_off_c, 5, 76, 64
7, 20652, Note_on_c, 5, 78, 91
7, 20738, Note_off_c, 5, 78, 64
7, 20884, Note_on_c, 5, 79, 93
7, 20948, Note_off_c, 5, 79, 64
7, 21121, Note_on_c, 5, 69, 89
7, 21419, Note_off_c, 5, 69, 64
7, 21464, Note_on_c, 5, 71, 72
7, 21537, Note_off_c, 5, 71, 64
7, 21595, Note_on_c, 5, 72, 82
7, 21836, Note_off_c, 5, 72, 64
7, 21931, Note_on_c, 5, 74, 80
7, 21995, Note_off_c, 5, 74, 64
7, 22068, Note_on_c, 5, 72, 80
7, 22185, Note_on_c, 5, 71, 74
7, 22227, Note_off_c, 5, 72, 64
7, 22300, Note_on_c, 5, 69, 78
7, 22316, Note_off_c, 5, 71, 64
7, 22409, Note_on_c, 5, 67, 76
7, 22411, Note_off_c, 5, 69, 64
7, 22469, Note_off_c, 5, 67, 64
7, 22538, Note_on_c, 5, 67, 78
7, 22637, Note_on_c, 5, 66, 66
7, 22642, Note_off_c, 5, 67, 64
7, 22679, Note_off_c, 5, 66, 64
7, 22686, Note_on_c, 5, 67, 74
7, 22741, Note_on_c, 5, 66, 53
7, 22766, Note_off_c, 5, 67, 64
7, 22885, Note_on_c, 5, 67, 76
7, 22889, Note_off_c, 5, 66, 64
7, 22947, Note_off_c, 5, 67, 64
7, 23038, Note_on_c, 5, 67, 76
7, 24036, Note_off_c, 5, 67, 64
7, 53128, Note_on_c, 5, 74, 87
7, 53186, Note_off_c, 5, 74, 64
7, 53260, Note_on_c, 5, 74, 85
7, 53379, Note_on_c, 5, 72, 80
7, 53399, Note_off_c, 5, 74, 64
7, 53496, Note_off_c, 5, 72, 64
7, 53505, Note_on_c, 5, 74, 72
7, 53618, Note_on_c, 5, 76, 78
7, 53627, Note_off_c, 5, 74, 64
7, 53737, Note_off_c, 5, 76, 64
7, 53755, Note_on_c, 5, 77, 85
7, 53948, Note_off_c, 5, 77, 64
7, 54098, Note_on_c, 5, 79, 76
7, 54160, Note_off_c, 5, 79, 64
7, 54229, Note_on_c, 5, 77, 87
7, 54282, Note_on_c, 5, 76, 80
7, 54295, Note_off_c, 5, 77, 64
7, 54327, Note_on_c, 5, 77, 64
7, 54343, Note_off_c, 5, 76, 64
7, 54388, Note_on_c, 5, 76, 66
7, 54401, Note_off_c, 5, 77, 64
7, 54452, Note_off_c, 5, 76, 64
7, 54579, Note_on_c, 5, 74, 85
7, 54667, Note_off_c, 5, 74, 64
7, 54714, Note_on_c, 5, 81, 85
7, 55300, Note_off_c, 5, 81, 64
7, 55429, Note_on_c, 5, 79, 82
7, 55504, Note_off_c, 5, 79, 64
7, 55537, Note_on_c, 5, 77, 87
7, 55624, Note_off_c, 5, 77, 64
7, 55676, Note_on_c, 5, 79, 80
7, 55887, Note_off_c, 5, 79, 64
7, 56007, Note_on_c, 5, 81, 82
7, 56053, Note_off_c, 5, 81, 64
7, 56142, Note_on_c, 5, 82, 89
7, 56407, Note_off_c, 5, 82, 64
7, 56489, Note_on_c, 5, 81, 74
7, 56547, Note_off_c, 5, 81, 64
7, 56624, Note_on_c, 5, 79, 93
7, 56812, Note_off_c, 5, 79, 64
7, 56870, Note_on_c, 5, 77, 68
7, 56940, Note_off_c, 5, 77, 64
7, 56971, Note_on_c, 5, 76, 78
7, 57049, Note_off_c, 5, 76, 64
7, 57111, Note_on_c, 5, 77, 78
7, 57372, Note_off_c, 5, 77, 64
7, 57465, Note_on_c, 5, 79, 76
7, 57530, Note_off_c, 5, 79, 64
7, 57600, Note_on_c, 5, 74, 91
7, 57698, Note_on_c, 5, 73, 70
7, 57722, Note_off_c, 5, 74, 64
7, 57813, Note_on_c, 5, 71, 57
7, 57839, Note_off_c, 5, 73, 64
7, 57939, Note_on_c, 5, 69, 68
7, 57952, Note_off_c, 5, 71, 64
7, 58061, Note_on_c, 5, 71, 60
7, 58087, Note_off_c, 5, 69, 64
7, 58187, Note_on_c, 5, 73, 60
7, 58205, Note_off_c, 5, 71, 64
7, 58286, Note_on_c, 5, 74, 62
7, 58295, Note_off_c, 5, 73, 64
7, 58405, Note_on_c, 5, 76, 74
7, 58421, Note_off_c, 5, 74, 64
7, 58484, Note_off_c, 5, 76, 64
7, 58546, Note_on_c, 5, 77, 80
7, 58632, Note_on_c, 5, 76, 55
7, 58638, Note_off_c, 5, 77, 64
7, 58689, Note_off_c, 5, 76, 64
7, 58691, Note_on_c, 5, 77, 66
7, 58729, Note_on_c, 5, 76, 58
7, 58735, Note_off_c, 5, 77, 64
7, 58767, Note_off_c, 5, 76, 64
7, 58776, Note_on_c, 5, 77, 68
7, 58813, Note_on_c, 5, 76, 66
7, 58838, Note_off_c, 5, 77, 64
7, 58871, Note_on_c, 5, 74, 68
7, 58875, Note_off_c, 5, 76, 64
7, 58924, Note_on_c, 5, 76, 64
7, 58959, Note_off_c, 5, 74, 64
7, 58997, Note_off_c, 5, 76, 64
7, 59002, Note_on_c, 5, 77, 82
7, 59274, Note_off_c, 5, 77, 64
7, 59362, Note_on_c, 5, 76, 70
7, 59427, Note_off_c, 5, 76, 64
7, 59500, Note_on_c, 5, 74, 87
7, 59696, Note_off_c, 5, 74, 64
7, 59734, Note_on_c, 5, 72, 78
7, 59816, Note_off_c, 5, 72, 64
7, 59845, Note_on_c, 5, 71, 59
7, 59914, Note_off_c, 5, 71, 64
7, 59971, Note_on_c, 5, 72, 80
7, 60256, Note_off_c, 5, 72, 64
7, 60332, Note_on_c, 5, 74, 80
7, 60383, Note_off_c, 5, 74, 64
7, 60456, Note_on_c, 5, 76, 78
7, 60728, Note_off_c, 5, 76, 64
7, 60808, Note_on_c, 5, 78, 63
7, 60887, Note_off_c, 5, 78, 64
7, 60947, Note_on_c, 5, 80, 98
7, 61014, Note_off_c, 5, 80, 64
7, 61180, Note_on_c, 5, 81, 93
7, 61241, Note_off_c, 5, 81, 64
7, 61417, Note_on_c, 5, 71, 80
7, 61684, Note_off_c, 5, 71, 64
7, 61775, Note_on_c, 5, 72, 70
7, 61846, Note_off_c, 5, 72, 64
7, 61908, Note_on_c, 5, 74, 82
7, 62158, Note_off_c, 5, 74, 64
7, 62255, Note_on_c, 5, 76, 70
7, 62320, Note_off_c, 5, 76, 64
7, 62382, Note_on_c, 5, 72, 76
7, 62647, Note_off_c, 5, 72, 64
7, 62753, Note_on_c, 5, 71, 74
7, 62807, Note_off_c, 5, 71, 64
7, 62866, Note_on_c, 5, 72, 85
7, 62913, Note_on_c, 5, 71, 56
7, 62915, Note_off_c, 5, 72, 64
7, 62957, Note_on_c, 5, 72, 68
7, 62973, Note_off_c, 5, 71, 64
7, 63001, Note_on_c, 5, 71, 47
7, 63024, Note_off_c, 5, 72, 64
7, 63152, Note_off_c, 5, 71, 64
7, 63196, Note_on_c, 5, 69, 78
7, 63269, Note_off_c, 5, 69, 64
7, 63340, Note_on_c, 5, 69, 82
7, 63878, Note_off_c, 5, 69, 64
7, 63929, Note_on_c, 5, 71, 72
7, 64044, Note_on_c, 5, 72, 72
7, 64049, Note_off_c, 5, 71, 64
7, 64145, Note_off_c, 5, 72, 64
7, 64155, Note_on_c, 5, 74, 78
7, 64277, Note_on_c, 5, 76, 64
7, 64285, Note_off_c, 5, 74, 64
7, 64385, Note_on_c, 5, 77, 68
7, 64411, Note_off_c, 5, 76, 64
7, 64490, Note_off_c, 5, 77, 64
7, 64490, Note_on_c, 5, 79, 61
7, 64544, Note_on_c, 5, 77, 72
7, 64568, Note_off_c, 5, 79, 64
7, 64589, Note_off_c, 5, 77, 64
7, 64593, Note_on_c, 5, 79, 52
7, 64635, Note_on_c, 5, 77, 82
7, 64661, Note_off_c, 5, 79, 64
7, 64686, Note_on_c, 5, 76, 70
7, 64699, Note_off_c, 5, 77, 64
7, 64728, Note_off_c, 5, 76, 64
7, 64735, Note_on_c, 5, 79, 93
7, 65046, Note_off_c, 5, 79, 64
7, 65106, Note_on_c, 5, 77, 80
7, 65177, Note_off_c, 5, 77, 64
7, 65237, Note_on_c, 5, 76, 91
7, 65450, Note_off_c, 5, 76, 64
7, 65490, Note_on_c, 5, 74, 74
7, 65596, Note_on_c, 5, 72, 68
7, 65627, Note_off_c, 5, 74, 64
7, 65678, Note_off_c, 5, 72, 64
7, 65735, Note_on_c, 5, 70, 82
7, 65839, Note_on_c, 5, 69, 72
7, 65846, Note_off_c, 5, 70, 64
7, 65963, Note_on_c, 5, 70, 59
7, 65983, Note_off_c, 5, 69, 64
7, 66078, Note_on_c, 5, 67, 70
7, 66083, Note_off_c, 5, 70, 64
7, 66182, Note_off_c, 5, 67, 64
7, 66216, Note_on_c, 5, 69, 82
7, 66525, Note_off_c, 5, 69, 64
7, 66585, Note_on_c, 5, 67, 82
7, 66658, Note_off_c, 5, 67, 64
7, 66716, Note_on_c, 5, 65, 89
7, 66802, Note_off_c, 5, 65, 64
7, 66950, Note_on_c, 5, 69, 85
7, 67010, Note_off_c, 5, 69, 64
7, 67192, Note_on_c, 5, 74, 74
7, 67442, Note_off_c, 5, 74, 64
7, 67538, Note_on_c, 5, 76, 82
7, 67595, Note_off_c, 5, 76, 64
7, 67670, Note_on_c, 5, 77, 82
7, 67918, Note_off_c, 5, 77, 64
7, 68011, Note_on_c, 5, 79, 68
7, 68095, Note_off_c, 5, 79, 64
7, 68152, Note_on_c, 5, 81, 82
7, 68268, Note_on_c, 5, 79, 72
7, 68299, Note_off_c, 5, 81, 64
7, 68396, Note_on_c, 5, 77, 62
7, 68434, Note_off_c, 5, 79, 64
7, 68516, Note_on_c, 5, 76, 63
7, 68551, Note_off_c, 5, 77, 64
7, 68628, Note_on_c, 5, 74, 61
7, 68633, Note_off_c, 5, 76, 64
7, 68726, Note_on_c, 5, 72, 72
7, 68744, Note_off_c, 5, 74, 64
7, 68867, Note_on_c, 5, 71, 57
7, 68872, Note_off_c, 5, 72, 64
7, 68985, Note_off_c, 5, 71, 64
7, 68991, Note_on_c, 5, 72, 78
7, 69056, Note_off_c, 5, 72, 64
7, 69117, Note_on_c, 5, 72, 80
7, 69169, Note_off_c, 5, 72, 64
7, 69173, Note_on_c, 5, 71, 78
7, 69217, Note_on_c, 5, 72, 78
7, 69226, Note_off_c, 5, 71, 64
7, 69270, Note_on_c, 5, 71, 76
7, 69290, Note_off_c, 5, 72, 64
7, 69434, Note_on_c, 5, 72, 82
7, 69435, Note_off_c, 5, 71, 64
7, 69509, Note_off_c, 5, 72, 64
7, 69554, Note_on_c, 5, 74, 74
7, 69775, Note_off_c, 5, 74, 64
7, 69812, Note_on_c, 5, 72, 76
7, 69912, Note_off_c, 5, 72, 64
7, 69920, Note_on_c, 5, 71, 66
7, 70019, Note_off_c, 5, 71, 64
7, 70052, Note_on_c, 5, 69, 72
7, 70151, Note_on_c, 5, 67, 68
7, 70171, Note_off_c, 5, 69, 64
7, 70260, Note_off_c, 5, 67, 64
7, 70278, Note_on_c, 5, 69, 64
7, 70392, Note_on_c, 5, 71, 66
7, 70393, Note_off_c, 5, 69, 64
7, 70475, Note_off_c, 5, 71, 64
7, 70534, Note_on_c, 5, 72, 87
7, 70630, Note_off_c, 5, 72, 64
7, 70638, Note_on_c, 5, 71, 82
7, 70769, Note_off_c, 5, 71, 64
7, 70769, Note_on_c, 5, 72, 78
7, 70862, Note_off_c, 5, 72, 64
7, 70880, Note_on_c, 5, 74, 76
7, 70968, Note_off_c, 5, 74, 64
7, 71014, Note_on_c, 5, 76, 89
7, 71194, Note_off_c, 5, 76, 64
7, 71358, Note_on_c, 5, 77, 76
7, 71413, Note_off_c, 5, 77, 64
7, 71488, Note_on_c, 5, 76, 85
7, 71535, Note_off_c, 5, 76, 64
7, 71535, Note_on_c, 5, 74, 80
7, 71588, Note_on_c, 5, 76, 68
7, 71590, Note_off_c, 5, 74, 64
7, 71637, Note_on_c, 5, 74, 70
7, 71657, Note_off_c, 5, 76, 64
7, 71711, Note_off_c, 5, 74, 64
7, 71871, Note_on_c, 5, 72, 72
7, 71935, Note_off_c, 5, 72, 64
7, 71988, Note_on_c, 5, 79, 85
7, 72615, Note_off_c, 5, 79, 64
7, 72719, Note_on_c, 5, 77, 66
7, 72816, Note_on_c, 5, 76, 66
7, 72817, Note_off_c, 5, 77, 64
7, 72910, Note_off_c, 5, 76, 64
7, 72949, Note_on_c, 5, 77, 82
7, 73180, Note_off_c, 5, 77, 64
7, 73294, Note_on_c, 5, 79, 78
7, 73359, Note_off_c, 5, 79, 64
7, 73418, Note_on_c, 5, 81, 85
7, 73684, Note_off_c, 5, 81, 64
7, 73768, Note_on_c, 5, 79, 72
7, 73835, Note_off_c, 5, 79, 64
7, 73897, Note_on_c, 5, 77, 80
7, 74122, Note_off_c, 5, 77, 64
7, 74145, Note_on_c, 5, 76, 66
7, 74240, Note_off_c, 5, 76, 64
7, 74246, Note_on_c, 5, 74, 78
7, 74337, Note_off_c, 5, 74, 64
7, 74381, Note_on_c, 5, 76, 80
7, 74629, Note_off_c, 5, 76, 64
7, 74713, Note_on_c, 5, 77, 72
7, 74786, Note_off_c, 5, 77, 64
7, 74848, Note_on_c, 5, 79, 85
7, 75128, Note_off_c, 5, 79, 64
7, 75198, Note_on_c, 5, 77, 72
7, 75263, Note_off_c, 5, 77, 64
7, 75329, Note_on_c, 5, 76, 78
7, 75426, Note_off_c, 5, 76, 64
7, 75437, Note_on_c, 5, 74, 68
7, 75518, Note_off_c, 5, 74, 64
7, 75566, Note_on_c, 5, 76, 78
7, 75663, Note_off_c, 5, 76, 64
7, 75679, Note_on_c, 5, 72, 80
7, 75761, Note_off_c, 5, 72, 64
7, 75812, Note_on_c, 5, 74, 78
7, 76075, Note_off_c, 5, 74, 64
7, 76161, Note_on_c, 5, 76, 72
7, 76232, Note_off_c, 5, 76, 64
7, 76296, Note_on_c, 5, 77, 93
7, 76558, Note_off_c, 5, 77, 64
7, 76650, Note_on_c, 5, 76, 68
7, 76714, Note_off_c, 5, 76, 64
7, 76774, Note_on_c, 5, 74, 82
7, 76892, Note_off_c, 5, 74, 64
7, 76896, Note_on_c, 5, 72, 64
7, 77004, Note_off_c, 5, 72, 64
7, 77013, Note_on_c, 5, 71, 60
7, 77131, Note_on_c, 5, 72, 59
7, 77149, Note_off_c, 5, 71, 64
7, 77250, Note_off_c, 5, 72, 64
7, 77266, Note_on_c, 5, 74, 70
7, 77372, Note_on_c, 5, 71, 74
7, 77387, Note_off_c, 5, 74, 64
7, 77483, Note_off_c, 5, 71, 64
7, 77488, Note_on_c, 5, 72, 63
7, 77600, Note_on_c, 5, 74, 76
7, 77616, Note_off_c, 5, 72, 64
7, 77688, Note_off_c, 5, 74, 64
7, 77735, Note_on_c, 5, 67, 68
7, 78047, Note_off_c, 5, 67, 64
7, 78105, Note_on_c, 5, 69, 63
7, 78220, Note_on_c, 5, 71, 72
7, 78235, Note_off_c, 5, 69, 64
7, 78320, Note_off_c, 5, 71, 64
7, 78331, Note_on_c, 5, 72, 70
7, 78453, Note_off_c, 5, 72, 64
7, 78455, Note_on_c, 5, 74, 58
7, 78556, Note_off_c, 5, 74, 64
7, 78578, Note_on_c, 5, 76, 76
7, 78651, Note_off_c, 5, 76, 64
7, 78696, Note_on_c, 5, 77, 85
7, 78775, Note_off_c, 5, 77, 64
7, 78807, Note_on_c, 5, 74, 82
7, 78880, Note_off_c, 5, 74, 64
7, 78937, Note_on_c, 5, 79, 93
7, 79061, Note_off_c, 5, 79, 64
7, 79178, Note_on_c, 5, 76, 85
7, 79462, Note_off_c, 5, 76, 64
7, 79525, Note_on_c, 5, 74, 82
7, 79581, Note_off_c, 5, 74, 64
7, 79654, Note_on_c, 5, 72, 87
7, 79771, Note_off_c, 5, 72, 64
7, 79772, Note_on_c, 5, 71, 78
7, 79864, Note_off_c, 5, 71, 64
7, 79896, Note_on_c, 5, 72, 82
7, 80015, Note_off_c, 5, 72, 64
7, 80019, Note_on_c, 5, 69, 78
7, 80104, Note_off_c, 5, 69, 64
7, 80154, Note_on_c, 5, 72, 68
7, 80228, Note_on_c, 5, 71, 57
7, 80234, Note_off_c, 5, 72, 64
7, 80274, Note_on_c, 5, 72, 66
7, 80281, Note_off_c, 5, 71, 64
7, 80322, Note_off_c, 5, 72, 64
7, 80323, Note_on_c, 5, 71, 64
7, 80358, Note_on_c, 5, 72, 70
7, 80365, Note_off_c, 5, 71, 64
7, 80393, Note_on_c, 5, 71, 70
7, 80420, Note_off_c, 5, 72, 64
7, 80502, Note_on_c, 5, 72, 78
7, 80507, Note_off_c, 5, 71, 64
7, 80566, Note_off_c, 5, 72, 64
7, 80624, Note_on_c, 5, 72, 70
7, 81620, Note_off_c, 5, 72, 64
7, 81620, End_track
8, 0, Start_track
8, 0, Title_t, "Bassoon"
8, 0, Program_c, 6, 70
8, 0, Control_c, 6, 7, 100
8, 1296, Note_on_c, 6, 48, 80
8, 1350, Note_off_c, 6, 48, 64
8, 1427, Note_on_c, 6, 48, 91
8, 1956, Note_off_c, 6, 48, 64
8, 2141, Note_on_c, 6, 60, 85
8, 2245, Note_off_c, 6, 60, 64
8, 2381, Note_on_c, 6, 55, 82
8, 2465, Note_off_c, 6, 55, 64
8, 2622, Note_on_c, 6, 57, 80
8, 2692, Note_off_c, 6, 57, 64
8, 2870, Note_on_c, 6, 52, 91
8, 2978, Note_on_c, 6, 53, 76
8, 2989, Note_off_c, 6, 52, 64
8, 3091, Note_off_c, 6, 53, 64
8, 3091, Note_on_c, 6, 52, 74
8, 3203, Note_off_c, 6, 52, 64
8, 3208, Note_on_c, 6, 50, 70
8, 3310, Note_off_c, 6, 50, 64
8, 3343, Note_on_c, 6, 48, 66
8, 3461, Note_off_c, 6, 48, 64
8, 3583, Note_on_c, 6, 58, 76
8, 3684, Note_off_c, 6, 58, 64
8, 3824, Note_on_c, 6, 57, 78
8, 3917, Note_off_c, 6, 57, 64
8, 4066, Note_on_c, 6, 55, 68
8, 4154, Note_off_c, 6, 55, 64
8, 4304, Note_on_c, 6, 53, 64
8, 4399, Note_off_c, 6, 53, 64
8, 4534, Note_on_c, 6, 52, 63
8, 4640, Note_off_c, 6, 52, 64
8, 4769, Note_on_c, 6, 50, 66
8, 4873, Note_off_c, 6, 50, 64
8, 5009, Note_on_c, 6, 47, 66
8, 5103, Note_off_c, 6, 47, 64
8, 5249, Note_on_c, 6, 48, 78
8, 5331, Note_off_c, 6, 48, 64
8, 5484, Note_on_c, 6, 41, 54
8, 5590, Note_off_c, 6, 41, 64
8, 5730, Note_on_c, 6, 43, 74
8, 5871, Note_off_c, 6, 43, 64
8, 5969, Note_on_c, 6, 55, 72
8, 6093, Note_off_c, 6, 55, 64
8, 6214, Note_on_c, 6, 53, 66
8, 6338, Note_off_c, 6, 53, 64
8, 6447, Note_on_c, 6, 52, 60
8, 6588, Note_off_c, 6, 52, 64
8, 6699, Note_on_c, 6, 53, 72
8, 6810, Note_off_c, 6, 53, 64
8, 6930, Note_on_c, 6, 55, 70
8, 7038, Note_off_c, 6, 55, 64
8, 7162, Note_on_c, 6, 48, 64
8, 7262, Note_off_c, 6, 48, 64
8, 7407, Note_on_c, 6, 52, 78
8, 7496, Note_off_c, 6, 52, 64
8, 7644, Note_on_c, 6, 45, 82
8, 7740, Note_off_c, 6, 45, 64
8, 7899, Note_on_c, 6, 50, 80
8, 7996, Note_on_c, 6, 52, 70
8, 8027, Note_off_c, 6, 50, 64
8, 8083, Note_off_c, 6, 52, 64
8, 8129, Note_on_c, 6, 50, 74
8, 8243, Note_on_c, 6, 48, 66
8, 8255, Note_off_c, 6, 50, 64
8, 8360, Note_off_c, 6, 48, 64
8, 8364, Note_on_c, 6, 47, 68
8, 8455, Note_off_c, 6, 47, 64
8, 8488, Note_on_c, 6, 45, 60
8, 8574, Note_off_c, 6, 45, 64
8, 8618, Note_on_c, 6, 47, 80
8, 8764, Note_off_c, 6, 47, 64
8, 8858, Note_on_c, 6, 48, 64
8, 8986, Note_off_c, 6, 48, 64
8, 9103, Note_on_c, 6, 45, 58
8, 9254, Note_off_c, 6, 45, 64
8, 9335, Note_on_c, 6, 43, 62
8, 9460, Note_off_c, 6, 43, 64
8, 9572, Note_on_c, 6, 42, 87
8, 9688, Note_off_c, 6, 42, 64
8, 9805, Note_on_c, 6, 43, 68
8, 9913, Note_off_c, 6, 43, 64
8, 10042, Note_on_c, 6, 40, 63
8, 10181, Note_off_c, 6, 40, 64
8, 10299, Note_on_c, 6, 42, 68
8, 10402, Note_off_c, 6, 42, 64
8, 10542, Note_on_c, 6, 43, 82
8, 10670, Note_off_c, 6, 43, 64
8, 10788, Note_on_c, 6, 48, 82
8, 10890, Note_off_c, 6, 48, 64
8, 11009, Note_on_c, 6, 50, 82
8, 11126, Note_off_c, 6, 50, 64
8, 11259, Note_on_c, 6, 38, 89
8, 11346, Note_off_c, 6, 38, 64
8, 11501, Note_on_c, 6, 43, 72
8, 12494, Note_off_c, 6, 43, 64
8, 12827, Note_on_c, 6, 48, 82
8, 12884, Note_off_c, 6, 48, 64
8, 12953, Note_on_c, 6, 48, 93
8, 13535, Note_off_c, 6, 48, 64
8, 13656, Note_on_c, 6, 60, 85
8, 13758, Note_off_c, 6, 60, 64
8, 13889, Note_on_c, 6, 55, 82
8, 13988, Note_off_c, 6, 55, 64
8, 14130, Note_on_c, 6, 57, 82
8, 14205, Note_off_c, 6, 57, 64
8, 14380, Note_on_c, 6, 52, 89
8, 14487, Note_on_c, 6, 53, 78
8, 14507, Note_off_c, 6, 52, 64
8, 14586, Note_off_c, 6, 53, 64
8, 14608, Note_on_c, 6, 52, 78
8, 14706, Note_off_c, 6, 52, 64
8, 14717, Note_on_c, 6, 50, 82
8, 14812, Note_off_c, 6, 50, 64
8, 14848, Note_on_c, 6, 48, 66
8, 14972, Note_off_c, 6, 48, 64
8, 15093, Note_on_c, 6, 58, 64
8, 15204, Note_off_c, 6, 58, 64
8, 15325, Note_on_c, 6, 57, 78
8, 15423, Note_off_c, 6, 57, 64
8, 15569, Note_on_c, 6, 55, 68
8, 15656, Note_off_c, 6, 55, 64
8, 15804, Note_on_c, 6, 53, 66
8, 15912, Note_off_c, 6, 53, 64
8, 16049, Note_on_c, 6, 52, 64
8, 16193, Note_off_c, 6, 52, 64
8, 16282, Note_on_c, 6, 50, 78
8, 16384, Note_off_c, 6, 50, 64
8, 16530, Note_on_c, 6, 47, 60
8, 16643, Note_off_c, 6, 47, 64
8, 16771, Note_on_c, 6, 48, 82
8, 16857, Note_off_c, 6, 48, 64
8, 17012, Note_on_c, 6, 41, 80
8, 17105, Note_off_c, 6, 41, 64
8, 17263, Note_on_c, 6, 43, 74
8, 17413, Note_off_c, 6, 43, 64
8, 17497, Note_on_c, 6, 55, 66
8, 17609, Note_off_c, 6, 55, 64
8, 17736, Note_on_c, 6, 53, 68
8, 17873, Note_off_c, 6, 53, 64
8, 17960, Note_on_c, 6, 52, 63
8, 18094, Note_off_c, 6, 52, 64
8, 18217, Note_on_c, 6, 53, 68
8, 18327, Note_off_c, 6, 53, 64
8, 18440, Note_on_c, 6, 55, 74
8, 18535, Note_off_c, 6, 55, 64
8, 18695, Note_on_c, 6, 48, 74
8, 18797, Note_off_c, 6, 48, 64
8, 18940, Note_on_c, 6, 52, 68
8, 19024, Note_off_c, 6, 52, 64
8, 19177, Note_on_c, 6, 45, 85
8, 19290, Note_off_c, 6, 45, 64
8, 19423, Note_on_c, 6, 50, 78
8, 19527, Note_on_c, 6, 52, 78
8, 19543, Note_off_c, 6, 50, 64
8, 19609, Note_off_c, 6, 52, 64
8, 19651, Note_on_c, 6, 50, 85
8, 19755, Note_off_c, 6, 50, 64
8, 19773, Note_on_c, 6, 48, 70
8, 19883, Note_on_c, 6, 47, 70
8, 19888, Note_off_c, 6, 48, 64
8, 19963, Note_off_c, 6, 47, 64
8, 20003, Note_on_c, 6, 45, 68
8, 20091, Note_off_c, 6, 45, 64
8, 20139, Note_on_c, 6, 47, 85
8, 20295, Note_off_c, 6, 47, 64
8, 20377, Note_on_c, 6, 48, 64
8, 20492, Note_off_c, 6, 48, 64
8, 20610, Note_on_c, 6, 45, 64
8, 20758, Note_off_c, 6, 45, 64
8, 20857, Note_on_c, 6, 43, 70
8, 20983, Note_off_c, 6, 43, 64
8, 21105, Note_on_c, 6, 42, 68
8, 21232, Note_off_c, 6, 42, 64
8, 21322, Note_on_c, 6, 43, 64
8, 21439, Note_off_c, 6, 43, 64
8, 21572, Note_on_c, 6, 40, 80
8, 21667, Note_off_c, 6, 40, 64
8, 21811, Note_on_c, 6, 42, 58
8, 21889, Note_off_c, 6, 42, 64
8, 22056, Note_on_c, 6, 43, 82
8, 22166, Note_off_c, 6, 43, 64
8, 22307, Note_on_c, 6, 48, 78
8, 22394, Note_off_c, 6, 48, 64
8, 22531, Note_on_c, 6, 50, 85
8, 22629, Note_off_c, 6, 50, 64
8, 22778, Note_on_c, 6, 38, 82
8, 22863, Note_off_c, 6, 38, 64
8, 23047, Note_on_c, 6, 43, 66
8, 24089, Note_off_c, 6, 43, 64
8, 53135, Note_on_c, 6, 55, 80
8, 53199, Note_off_c, 6, 55, 64
8, 53265, Note_on_c, 6, 55, 82
8, 53484, Note_off_c, 6, 55, 64
8, 53507, Note_on_c, 6, 53, 72
8, 53580, Note_off_c, 6, 53, 64
8, 53600, Note_on_c, 6, 52, 72
8, 53697, Note_off_c, 6, 52, 64
8, 53736, Note_on_c, 6, 50, 68
8, 54253, Note_off_c, 6, 50, 64
8, 54320, Note_on_c, 6, 49, 80
8, 54418, Note_off_c, 6, 49, 64
8, 54434, Note_on_c, 6, 50, 68
8, 54549, Note_off_c, 6, 50, 64
8, 54563, Note_on_c, 6, 52, 70
8, 54655, Note_off_c, 6, 52, 64
8, 54700, Note_on_c, 6, 53, 87
8, 54808, Note_on_c, 6, 55, 68
8, 54810, Note_off_c, 6, 53, 64
8, 54930, Note_on_c, 6, 53, 64
8, 54957, Note_off_c, 6, 55, 64
8, 55041, Note_off_c, 6, 53, 64
8, 55045, Note_on_c, 6, 52, 62
8, 55160, Note_off_c, 6, 52, 64
8, 55175, Note_on_c, 6, 50, 72
8, 55309, Note_off_c, 6, 50, 64
8, 55415, Note_on_c, 6, 60, 80
8, 55514, Note_off_c, 6, 60, 64
8, 55660, Note_on_c, 6, 58, 66
8, 55780, Note_off_c, 6, 58, 64
8, 55911, Note_on_c, 6, 57, 59
8, 55997, Note_off_c, 6, 57, 64
8, 56149, Note_on_c, 6, 55, 80
8, 56263, Note_on_c, 6, 53, 78
8, 56267, Note_off_c, 6, 55, 64
8, 56375, Note_off_c, 6, 53, 64
8, 56378, Note_on_c, 6, 55, 62
8, 56484, Note_off_c, 6, 55, 64
8, 56495, Note_on_c, 6, 57, 68
8, 56610, Note_off_c, 6, 57, 64
8, 56625, Note_on_c, 6, 58, 66
8, 56741, Note_off_c, 6, 58, 64
8, 56862, Note_on_c, 6, 49, 64
8, 56989, Note_off_c, 6, 49, 64
8, 57086, Note_on_c, 6, 50, 82
8, 57190, Note_off_c, 6, 50, 64
8, 57352, Note_on_c, 6, 43, 80
8, 57451, Note_off_c, 6, 43, 64
8, 57589, Note_on_c, 6, 45, 80
8, 57701, Note_off_c, 6, 45, 64
8, 57819, Note_on_c, 6, 57, 76
8, 57936, Note_off_c, 6, 57, 64
8, 58058, Note_on_c, 6, 55, 80
8, 58164, Note_off_c, 6, 55, 64
8, 58292, Note_on_c, 6, 53, 70
8, 58418, Note_off_c, 6, 53, 64
8, 58540, Note_on_c, 6, 55, 66
8, 58661, Note_off_c, 6, 55, 64
8, 58766, Note_on_c, 6, 57, 68
8, 58871, Note_off_c, 6, 57, 64
8, 59007, Note_on_c, 6, 50, 68
8, 59113, Note_off_c, 6, 50, 64
8, 59253, Note_on_c, 6, 53, 63
8, 59351, Note_off_c, 6, 53, 64
8, 59485, Note_on_c, 6, 47, 72
8, 59603, Note_off_c, 6, 47, 64
8, 59738, Note_on_c, 6, 52, 80
8, 59842, Note_on_c, 6, 53, 64
8, 59846, Note_off_c, 6, 52, 64
8, 59937, Note_off_c, 6, 53, 64
8, 59963, Note_on_c, 6, 52, 78
8, 60079, Note_on_c, 6, 50, 76
8, 60094, Note_off_c, 6, 52, 64
8, 60209, Note_off_c, 6, 50, 64
8, 60209, Note_on_c, 6, 48, 64
8, 60320, Note_on_c, 6, 47, 60
8, 60322, Note_off_c, 6, 48, 64
8, 60419, Note_off_c, 6, 47, 64
8, 60455, Note_on_c, 6, 48, 87
8, 60566, Note_off_c, 6, 48, 64
8, 60701, Note_on_c, 6, 50, 78
8, 60809, Note_off_c, 6, 50, 64
8, 60940, Note_on_c, 6, 47, 72
8, 61050, Note_off_c, 6, 47, 64
8, 61175, Note_on_c, 6, 45, 74
8, 61300, Note_off_c, 6, 45, 64
8, 61422, Note_on_c, 6, 44, 66
8, 61522, Note_off_c, 6, 44, 64
8, 61655, Note_on_c, 6, 45, 68
8, 61774, Note_off_c, 6, 45, 64
8, 61892, Note_on_c, 6, 42, 68
8, 62004, Note_off_c, 6, 42, 64
8, 62144, Note_on_c, 6, 44, 68
8, 62248, Note_off_c, 6, 44, 64
8, 62367, Note_on_c, 6, 45, 62
8, 62491, Note_off_c, 6, 45, 64
8, 62616, Note_on_c, 6, 50, 78
8, 62722, Note_off_c, 6, 50, 64
8, 62850, Note_on_c, 6, 52, 82
8, 62943, Note_off_c, 6, 52, 64
8, 63083, Note_on_c, 6, 40, 80
8, 63184, Note_off_c, 6, 40, 64
8, 63333, Note_on_c, 6, 45, 80
8, 63441, Note_on_c, 6, 44, 60
8, 63443, Note_off_c, 6, 45, 64
8, 63553, Note_off_c, 6, 44, 64
8, 63569, Note_on_c, 6, 45, 68
8, 63682, Note_on_c, 6, 47, 57
8, 63689, Note_off_c, 6, 45, 64
8, 63815, Note_off_c, 6, 47, 64
8, 63820, Note_on_c, 6, 48, 80
8, 63905, Note_off_c, 6, 48, 64
8, 64063, Note_on_c, 6, 52, 78
8, 64145, Note_off_c, 6, 52, 64
8, 64296, Note_on_c, 6, 57, 85
8, 64497, Note_off_c, 6, 57, 64
8, 64533, Note_on_c, 6, 55, 70
8, 64626, Note_off_c, 6, 55, 64
8, 64641, Note_on_c, 6, 53, 68
8, 64721, Note_off_c, 6, 53, 64
8, 64760, Note_on_c, 6, 52, 66
8, 64858, Note_off_c, 6, 52, 64
8, 64865, Note_on_c, 6, 50, 76
8, 64982, Note_off_c, 6, 50, 64
8, 64997, Note_on_c, 6, 52, 68
8, 65119, Note_off_c, 6, 52, 64
8, 65121, Note_on_c, 6, 53, 72
8, 65217, Note_off_c, 6, 53, 64
8, 65252, Note_on_c, 6, 55, 80
8, 65365, Note_off_c, 6, 55, 64
8, 65497, Note_on_c, 6, 48, 82
8, 65610, Note_off_c, 6, 48, 64
8, 65746, Note_on_c, 6, 50, 82
8, 65861, Note_off_c, 6, 50, 64
8, 65984, Note_on_c, 6, 52, 72
8, 66049, Note_off_c, 6, 52, 64
8, 66235, Note_on_c, 6, 53, 82
8, 66351, Note_on_c, 6, 52, 66
8, 66359, Note_off_c, 6, 53, 64
8, 66460, Note_off_c, 6, 52, 64
8, 66467, Note_on_c, 6, 53, 66
8, 66591, Note_on_c, 6, 55, 68
8, 66606, Note_off_c, 6, 53, 64
8, 66699, Note_off_c, 6, 55, 64
8, 66706, Note_on_c, 6, 57, 74
8, 66815, Note_on_c, 6, 58, 80
8, 66835, Note_off_c, 6, 57, 64
8, 66925, Note_on_c, 6, 57, 60
8, 66948, Note_off_c, 6, 58, 64
8, 67051, Note_on_c, 6, 55, 68
8, 67069, Note_off_c, 6, 57, 64
8, 67176, Note_on_c, 6, 53, 63
8, 67179, Note_off_c, 6, 55, 64
8, 67277, Note_on_c, 6, 52, 70
8, 67295, Note_off_c, 6, 53, 64
8, 67395, Note_off_c, 6, 52, 64
8, 67406, Note_on_c, 6, 50, 68
8, 67525, Note_on_c, 6, 49, 68
8, 67530, Note_off_c, 6, 50, 64
8, 67634, Note_off_c, 6, 49, 64
8, 67662, Note_on_c, 6, 50, 80
8, 67760, Note_off_c, 6, 50, 64
8, 67908, Note_on_c, 6, 52, 78
8, 68005, Note_off_c, 6, 52, 64
8, 68141, Note_on_c, 6, 53, 74
8, 68251, Note_off_c, 6, 53, 64
8, 68377, Note_on_c, 6, 50, 68
8, 68493, Note_off_c, 6, 50, 64
8, 68643, Note_on_c, 6, 52, 70
8, 68765, Note_off_c, 6, 52, 64
8, 68873, Note_on_c, 6, 53, 74
8, 68973, Note_off_c, 6, 53, 64
8, 69101, Note_on_c, 6, 55, 66
8, 69210, Note_off_c, 6, 55, 64
8, 69327, Note_on_c, 6, 43, 70
8, 69424, Note_off_c, 6, 43, 64
8, 69571, Note_on_c, 6, 55, 78
8, 69673, Note_off_c, 6, 55, 64
8, 69810, Note_on_c, 6, 57, 76
8, 69923, Note_off_c, 6, 57, 64
8, 70047, Note_on_c, 6, 55, 70
8, 70155, Note_off_c, 6, 55, 64
8, 70285, Note_on_c, 6, 53, 63
8, 70370, Note_off_c, 6, 53, 64
8, 70523, Note_on_c, 6, 52, 70
8, 70642, Note_off_c, 6, 52, 64
8, 70775, Note_on_c, 6, 50, 72
8, 70899, Note_off_c, 6, 50, 64
8, 71009, Note_on_c, 6, 48, 66
8, 71151, Note_off_c, 6, 48, 64
8, 71237, Note_on_c, 6, 60, 78
8, 71348, Note_off_c, 6, 60, 64
8, 71485, Note_on_c, 6, 55, 76
8, 71594, Note_off_c, 6, 55, 64
8, 71736, Note_on_c, 6, 57, 80
8, 71806, Note_off_c, 6, 57, 64
8, 71987, Note_on_c, 6, 52, 78
8, 72092, Note_on_c, 6, 50, 66
8, 72109, Note_off_c, 6, 52, 64
8, 72202, Note_off_c, 6, 50, 64
8, 72202, Note_on_c, 6, 52, 64
8, 72318, Note_on_c, 6, 53, 72
8, 72335, Note_off_c, 6, 52, 64
8, 72424, Note_off_c, 6, 53, 64
8, 72450, Note_on_c, 6, 55, 78
8, 72561, Note_on_c, 6, 57, 66
8, 72563, Note_off_c, 6, 55, 64
8, 72672, Note_off_c, 6, 57, 64
8, 72683, Note_on_c, 6, 58, 74
8, 72809, Note_off_c, 6, 58, 64
8, 72940, Note_on_c, 6, 57, 70
8, 73062, Note_off_c, 6, 57, 64
8, 73183, Note_on_c, 6, 55, 66
8, 73289, Note_off_c, 6, 55, 64
8, 73431, Note_on_c, 6, 53, 61
8, 73546, Note_off_c, 6, 53, 64
8, 73663, Note_on_c, 6, 52, 68
8, 73767, Note_off_c, 6, 52, 64
8, 73903, Note_on_c, 6, 50, 68
8, 74007, Note_off_c, 6, 50, 64
8, 74155, Note_on_c, 6, 55, 70
8, 74263, Note_on_c, 6, 57, 68
8, 74272, Note_off_c, 6, 55, 64
8, 74385, Note_on_c, 6, 55, 66
8, 74393, Note_off_c, 6, 57, 64
8, 74509, Note_off_c, 6, 55, 64
8, 74509, Note_on_c, 6, 53, 62
8, 74629, Note_off_c, 6, 53, 64
8, 74631, Note_on_c, 6, 52, 64
8, 74735, Note_off_c, 6, 52, 64
8, 74737, Note_on_c, 6, 50, 66
8, 74828, Note_off_c, 6, 50, 64
8, 74865, Note_on_c, 6, 52, 80
8, 74961, Note_off_c, 6, 52, 64
8, 75106, Note_on_c, 6, 55, 82
8, 75182, Note_off_c, 6, 55, 64
8, 75357, Note_on_c, 6, 60, 72
8, 75467, Note_on_c, 6, 59, 74
8, 75494, Note_off_c, 6, 60, 64
8, 75585, Note_on_c, 6, 57, 60
8, 75592, Note_off_c, 6, 59, 64
8, 75698, Note_on_c, 6, 55, 61
8, 75729, Note_off_c, 6, 57, 64
8, 75806, Note_on_c, 6, 53, 58
8, 75808, Note_off_c, 6, 55, 64
8, 75902, Note_on_c, 6, 52, 61
8, 75921, Note_off_c, 6, 53, 64
8, 76032, Note_on_c, 6, 50, 54
8, 76037, Note_off_c, 6, 52, 64
8, 76152, Note_off_c, 6, 50, 64
8, 76152, Note_on_c, 6, 48, 66
8, 76265, Note_off_c, 6, 48, 64
8, 76291, Note_on_c, 6, 50, 78
8, 76395, Note_off_c, 6, 50, 64
8, 76555, Note_on_c, 6, 57, 72
8, 76665, Note_on_c, 6, 55, 80
8, 76690, Note_off_c, 6, 57, 64
8, 76783, Note_on_c, 6, 53, 59
8, 76811, Note_off_c, 6, 55, 64
8, 76911, Note_on_c, 6, 52, 66
8, 76938, Note_off_c, 6, 53, 64
8, 77026, Note_on_c, 6, 50, 68
8, 77033, Note_off_c, 6, 52, 64
8, 77128, Note_on_c, 6, 48, 57
8, 77130, Note_off_c, 6, 50, 64
8, 77247, Note_on_c, 6, 47, 61
8, 77283, Note_off_c, 6, 48, 64
8, 77374, Note_on_c, 6, 45, 64
8, 77389, Note_off_c, 6, 47, 64
8, 77488, Note_on_c, 6, 43, 56
8, 77508, Note_off_c, 6, 45, 64
8, 77610, Note_on_c, 6, 41, 80
8, 77646, Note_off_c, 6, 43, 64
8, 77664, Note_off_c, 6, 41, 64
8, 77756, Note_on_c, 6, 53, 78
8, 78321, Note_off_c, 6, 53, 64
8, 78469, Note_on_c, 6, 47, 78
8, 78562, Note_off_c, 6, 47, 64
8, 78704, Note_on_c, 6, 43, 64
8, 78810, Note_off_c, 6, 43, 64
8, 78945, Note_on_c, 6, 47, 76
8, 79060, Note_off_c, 6, 47, 64
8, 79166, Note_on_c, 6, 48, 60
8, 79284, Note_off_c, 6, 48, 64
8, 79419, Note_on_c, 6, 43, 68
8, 79525, Note_off_c, 6, 43, 64
8, 79664, Note_on_c, 6, 45, 76
8, 79768, Note_off_c, 6, 45, 64
8, 79904, Note_on_c, 6, 41, 70
8, 79992, Note_off_c, 6, 41, 64
8, 80145, Note_on_c, 6, 43, 66
8, 80462, Note_off_c, 6, 43, 64
8, 80638, Note_on_c, 6, 36, 68
8, 81623, Note_off_c, 6, 36, 64
8, 81623, End_track
9, 0, Start_track
9, 0, Title_t, "Violin1"
9, 0, Program_c, 0, 40
9, 0, Control_c, 0, 7, 100
9, 24352, Note_on_c, 0, 74, 82
9, 24403, Note_off_c, 0, 74, 64
9, 24470, Note_on_c, 0, 74, 93
9, 24588, Note_on_c, 0, 72, 72
9, 24613, Note_off_c, 0, 74, 64
9, 24715, Note_on_c, 0, 74, 76
9, 24720, Note_off_c, 0, 72, 64
9, 24824, Note_on_c, 0, 76, 76
9, 24830, Note_off_c, 0, 74, 64
9, 24928, Note_off_c, 0, 76, 64
9, 24941, Note_on_c, 0, 77, 85
9, 25136, Note_off_c, 0, 77, 64
9, 25287, Note_on_c, 0, 79, 76
9, 25355, Note_off_c, 0, 79, 64
9, 25417, Note_on_c, 0, 77, 87
9, 25463, Note_on_c, 0, 76, 76
9, 25473, Note_off_c, 0, 77, 64
9, 25512, Note_on_c, 0, 77, 57
9, 25528, Note_off_c, 0, 76, 64
9, 25570, Note_on_c, 0, 76, 66
9, 25587, Note_off_c, 0, 77, 64
9, 25647, Note_off_c, 0, 76, 64
9, 25767, Note_on_c, 0, 74, 68
9, 25851, Note_off_c, 0, 74, 64
9, 25897, Note_on_c, 0, 81, 82
9, 26511, Note_off_c, 0, 81, 64
9, 26630, Note_on_c, 0, 79, 82
9, 26728, Note_off_c, 0, 79, 64
9, 26731, Note_on_c, 0, 77, 68
9, 26820, Note_off_c, 0, 77, 64
9, 26858, Note_on_c, 0, 79, 87
9, 27113, Note_off_c, 0, 79, 64
9, 27212, Note_on_c, 0, 81, 76
9, 27272, Note_off_c, 0, 81, 64
9, 27349, Note_on_c, 0, 82, 87
9, 27611, Note_off_c, 0, 82, 64
9, 27695, Note_on_c, 0, 81, 76
9, 27748, Note_off_c, 0, 81, 64
9, 27825, Note_on_c, 0, 79, 91
9, 28011, Note_off_c, 0, 79, 64
9, 28062, Note_on_c, 0, 77, 72
9, 28140, Note_off_c, 0, 77, 64
9, 28160, Note_on_c, 0, 76, 64
9, 28234, Note_off_c, 0, 76, 64
9, 28286, Note_on_c, 0, 77, 76
9, 28534, Note_off_c, 0, 77, 64
9, 28647, Note_on_c, 0, 79, 80
9, 28730, Note_off_c, 0, 79, 64
9, 28780, Note_on_c, 0, 74, 93
9, 28890, Note_on_c, 0, 73, 66
9, 28917, Note_off_c, 0, 74, 64
9, 28997, Note_on_c, 0, 71, 59
9, 29025, Note_off_c, 0, 73, 64
9, 29116, Note_on_c, 0, 69, 62
9, 29125, Note_off_c, 0, 71, 64
9, 29251, Note_on_c, 0, 71, 59
9, 29280, Note_off_c, 0, 69, 64
9, 29379, Note_on_c, 0, 73, 57
9, 29396, Note_off_c, 0, 71, 64
9, 29486, Note_off_c, 0, 73, 64
9, 29494, Note_on_c, 0, 74, 74
9, 29598, Note_on_c, 0, 76, 78
9, 29612, Note_off_c, 0, 74, 64
9, 29683, Note_off_c, 0, 76, 64
9, 29727, Note_on_c, 0, 77, 85
9, 29807, Note_on_c, 0, 76, 58
9, 29816, Note_off_c, 0, 77, 64
9, 29866, Note_on_c, 0, 77, 74
9, 29867, Note_off_c, 0, 76, 64
9, 29909, Note_on_c, 0, 76, 64
9, 29917, Note_off_c, 0, 77, 64
9, 29948, Note_off_c, 0, 76, 64
9, 29951, Note_on_c, 0, 77, 66
9, 29990, Note_on_c, 0, 76, 72
9, 30013, Note_off_c, 0, 77, 64
9, 30057, Note_off_c, 0, 76, 64
9, 30057, Note_on_c, 0, 74, 66
9, 30108, Note_on_c, 0, 76, 70
9, 30150, Note_off_c, 0, 74, 64
9, 30192, Note_on_c, 0, 77, 89
9, 30199, Note_off_c, 0, 76, 64
9, 30466, Note_off_c, 0, 77, 64
9, 30564, Note_on_c, 0, 76, 68
9, 30632, Note_off_c, 0, 76, 64
9, 30696, Note_on_c, 0, 74, 82
9, 30904, Note_off_c, 0, 74, 64
9, 30929, Note_on_c, 0, 72, 80
9, 31009, Note_off_c, 0, 72, 64
9, 31026, Note_on_c, 0, 71, 62
9, 31108, Note_off_c, 0, 71, 64
9, 31166, Note_on_c, 0, 72, 85
9, 31440, Note_off_c, 0, 72, 64
9, 31518, Note_on_c, 0, 74, 82
9, 31586, Note_off_c, 0, 74, 64
9, 31642, Note_on_c, 0, 76, 78
9, 31910, Note_off_c, 0, 76, 64
9, 31992, Note_on_c, 0, 78, 66
9, 32080, Note_off_c, 0, 78, 64
9, 32120, Note_on_c, 0, 80, 100
9, 32197, Note_off_c, 0, 80, 64
9, 32366, Note_on_c, 0, 81, 91
9, 32439, Note_off_c, 0, 81, 64
9, 32603, Note_on_c, 0, 71, 80
9, 32895, Note_off_c, 0, 71, 64
9, 32963, Note_on_c, 0, 72, 78
9, 33039, Note_off_c, 0, 72, 64
9, 33087, Note_on_c, 0, 74, 85
9, 33337, Note_off_c, 0, 74, 64
9, 33433, Note_on_c, 0, 76, 74
9, 33506, Note_off_c, 0, 76, 64
9, 33559, Note_on_c, 0, 72, 64
9, 33826, Note_off_c, 0, 72, 64
9, 33926, Note_on_c, 0, 71, 64
9, 33997, Note_off_c, 0, 71, 64
9, 34074, Note_on_c, 0, 72, 63
9, 34159, Note_on_c, 0, 71, 60
9, 34178, Note_off_c, 0, 72, 64
9, 34214, Note_on_c, 0, 72, 68
9, 34221, Note_off_c, 0, 71, 64
9, 34258, Note_on_c, 0, 71, 63
9, 34283, Note_off_c, 0, 72, 64
9, 34384, Note_off_c, 0, 71, 64
9, 34386, Note_on_c, 0, 69, 78
9, 34466, Note_off_c, 0, 69, 64
9, 34526, Note_on_c, 0, 69, 68
9, 35126, Note_off_c, 0, 69, 64
9, 35135, Note_on_c, 0, 71, 82
9, 35239, Note_on_c, 0, 72, 66
9, 35250, Note_off_c, 0, 71, 64
9, 35352, Note_on_c, 0, 74, 78
9, 35380, Note_off_c, 0, 72, 64
9, 35442, Note_off_c, 0, 74, 64
9, 35473, Note_on_c, 0, 76, 80
9, 35589, Note_on_c, 0, 77, 78
9, 35604, Note_off_c, 0, 76, 64
9, 35679, Note_off_c, 0, 77, 64
9, 35697, Note_on_c, 0, 79, 68
9, 35741, Note_on_c, 0, 77, 68
9, 35744, Note_off_c, 0, 79, 64
9, 35795, Note_on_c, 0, 79, 68
9, 35803, Note_off_c, 0, 77, 64
9, 35828, Note_on_c, 0, 77, 48
9, 35856, Note_off_c, 0, 79, 64
9, 35865, Note_on_c, 0, 76, 66
9, 35885, Note_off_c, 0, 77, 64
9, 35925, Note_on_c, 0, 77, 80
9, 35961, Note_off_c, 0, 76, 64
9, 35972, Note_on_c, 0, 79, 85
9, 35983, Note_off_c, 0, 77, 64
9, 36224, Note_off_c, 0, 79, 64
9, 36319, Note_on_c, 0, 77, 72
9, 36381, Note_off_c, 0, 77, 64
9, 36452, Note_on_c, 0, 76, 87
9, 36647, Note_off_c, 0, 76, 64
9, 36697, Note_on_c, 0, 74, 66
9, 36788, Note_on_c, 0, 72, 59
9, 36824, Note_off_c, 0, 74, 64
9, 36910, Note_off_c, 0, 72, 64
9, 36930, Note_on_c, 0, 70, 74
9, 37034, Note_off_c, 0, 70, 64
9, 37034, Note_on_c, 0, 69, 64
9, 37151, Note_off_c, 0, 69, 64
9, 37160, Note_on_c, 0, 70, 57
9, 37270, Note_on_c, 0, 67, 63
9, 37284, Note_off_c, 0, 70, 64
9, 37385, Note_off_c, 0, 67, 64
9, 37412, Note_on_c, 0, 69, 78
9, 37707, Note_off_c, 0, 69, 64
9, 37764, Note_on_c, 0, 67, 66
9, 37838, Note_off_c, 0, 67, 64
9, 37899, Note_on_c, 0, 65, 78
9, 37985, Note_off_c, 0, 65, 64
9, 38148, Note_on_c, 0, 69, 82
9, 38216, Note_off_c, 0, 69, 64
9, 38380, Note_on_c, 0, 74, 82
9, 38634, Note_off_c, 0, 74, 64
9, 38721, Note_on_c, 0, 76, 82
9, 38798, Note_off_c, 0, 76, 64
9, 38848, Note_on_c, 0, 77, 91
9, 39115, Note_off_c, 0, 77, 64
9, 39205, Note_on_c, 0, 79, 76
9, 39276, Note_off_c, 0, 79, 64
9, 39336, Note_on_c, 0, 81, 100
9, 39456, Note_on_c, 0, 79, 82
9, 39485, Note_off_c, 0, 81, 64
9, 39575, Note_on_c, 0, 77, 72
9, 39606, Note_off_c, 0, 79, 64
9, 39695, Note_on_c, 0, 76, 68
9, 39728, Note_off_c, 0, 77, 64
9, 39812, Note_on_c, 0, 74, 76
9, 39816, Note_off_c, 0, 76, 64
9, 39905, Note_on_c, 0, 72, 72
9, 39920, Note_off_c, 0, 74, 64
9, 40038, Note_off_c, 0, 72, 64
9, 40044, Note_on_c, 0, 71, 61
9, 40146, Note_on_c, 0, 72, 66
9, 40171, Note_off_c, 0, 71, 64
9, 40211, Note_off_c, 0, 72, 64
9, 40264, Note_on_c, 0, 72, 82
9, 40328, Note_off_c, 0, 72, 64
9, 40328, Note_on_c, 0, 71, 59
9, 40374, Note_on_c, 0, 72, 80
9, 40379, Note_off_c, 0, 71, 64
9, 40421, Note_on_c, 0, 71, 74
9, 40448, Note_off_c, 0, 72, 64
9, 40622, Note_on_c, 0, 72, 78
9, 40629, Note_off_c, 0, 71, 64
9, 40697, Note_off_c, 0, 72, 64
9, 40748, Note_on_c, 0, 74, 78
9, 40932, Note_off_c, 0, 74, 64
9, 41012, Note_on_c, 0, 72, 68
9, 41116, Note_on_c, 0, 71, 66
9, 41140, Note_off_c, 0, 72, 64
9, 41222, Note_off_c, 0, 71, 64
9, 41257, Note_on_c, 0, 69, 76
9, 41364, Note_on_c, 0, 67, 76
9, 41366, Note_off_c, 0, 69, 64
9, 41492, Note_off_c, 0, 67, 64
9, 41499, Note_on_c, 0, 69, 74
9, 41609, Note_on_c, 0, 71, 74
9, 41627, Note_off_c, 0, 69, 64
9, 41687, Note_off_c, 0, 71, 64
9, 41736, Note_on_c, 0, 72, 76
9, 41740, Note_on_c, 0, 71, 80
9, 41758, Note_off_c, 0, 71, 64
9, 41846, Note_on_c, 0, 71, 78
9, 41848, Note_off_c, 0, 72, 64
9, 41957, Note_on_c, 0, 72, 64
9, 41963, Note_off_c, 0, 71, 64
9, 42078, Note_on_c, 0, 74, 80
9, 42086, Note_off_c, 0, 72, 64
9, 42169, Note_off_c, 0, 74, 64
9, 42203, Note_on_c, 0, 76, 82
9, 42420, Note_off_c, 0, 76, 64
9, 42555, Note_on_c, 0, 77, 80
9, 42625, Note_off_c, 0, 77, 64
9, 42694, Note_on_c, 0, 76, 95
9, 42745, Note_on_c, 0, 74, 63
9, 42752, Note_off_c, 0, 76, 64
9, 42787, Note_on_c, 0, 76, 66
9, 42851, Note_off_c, 0, 76, 64
9, 42947, Note_off_c, 0, 74, 64
9, 43060, Note_on_c, 0, 72, 68
9, 43123, Note_off_c, 0, 72, 64
9, 43181, Note_on_c, 0, 79, 85
9, 43817, Note_off_c, 0, 79, 64
9, 43896, Note_on_c, 0, 77, 66
9, 43993, Note_off_c, 0, 77, 64
9, 43993, Note_on_c, 0, 76, 70
9, 44082, Note_off_c, 0, 76, 64
9, 44126, Note_on_c, 0, 77, 87
9, 44370, Note_off_c, 0, 77, 64
9, 44476, Note_on_c, 0, 79, 80
9, 44552, Note_off_c, 0, 79, 64
9, 44605, Note_on_c, 0, 81, 93
9, 44861, Note_off_c, 0, 81, 64
9, 44952, Note_on_c, 0, 79, 80
9, 45030, Note_off_c, 0, 79, 64
9, 45087, Note_on_c, 0, 77, 85
9, 45309, Note_off_c, 0, 77, 64
9, 45339, Note_on_c, 0, 76, 66
9, 45428, Note_off_c, 0, 76, 64
9, 45437, Note_on_c, 0, 74, 66
9, 45519, Note_off_c, 0, 74, 64
9, 45574, Note_on_c, 0, 76, 72
9, 45822, Note_off_c, 0, 76, 64
9, 45911, Note_on_c, 0, 77, 76
9, 45986, Note_off_c, 0, 77, 64
9, 46039, Note_on_c, 0, 79, 89
9, 46306, Note_off_c, 0, 79, 64
9, 46400, Note_on_c, 0, 77, 72
9, 46473, Note_off_c, 0, 77, 64
9, 46530, Note_on_c, 0, 76, 91
9, 46637, Note_on_c, 0, 74, 64
9, 46650, Note_off_c, 0, 76, 64
9, 46739, Note_off_c, 0, 74, 64
9, 46765, Note_on_c, 0, 76, 66
9, 46876, Note_off_c, 0, 76, 64
9, 46880, Note_on_c, 0, 72, 66
9, 46978, Note_off_c, 0, 72, 64
9, 47020, Note_on_c, 0, 74, 78
9, 47267, Note_off_c, 0, 74, 64
9, 47363, Note_on_c, 0, 76, 80
9, 47431, Note_off_c, 0, 76, 64
9, 47489, Note_on_c, 0, 77, 89
9, 47732, Note_off_c, 0, 77, 64
9, 47845, Note_on_c, 0, 76, 68
9, 47914, Note_off_c, 0, 76, 64
9, 47983, Note_on_c, 0, 74, 87
9, 48089, Note_on_c, 0, 72, 64
9, 48100, Note_off_c, 0, 74, 64
9, 48190, Note_off_c, 0, 72, 64
9, 48197, Note_on_c, 0, 71, 60
9, 48310, Note_on_c, 0, 72, 59
9, 48345, Note_off_c, 0, 71, 64
9, 48430, Note_off_c, 0, 72, 64
9, 48452, Note_on_c, 0, 74, 70
9, 48556, Note_on_c, 0, 71, 68
9, 48570, Note_off_c, 0, 74, 64
9, 48667, Note_on_c, 0, 72, 62
9, 48691, Note_off_c, 0, 71, 64
9, 48786, Note_on_c, 0, 74, 68
9, 48791, Note_off_c, 0, 72, 64
9, 48864, Note_off_c, 0, 74, 64
9, 48921, Note_on_c, 0, 67, 78
9, 49218, Note_off_c, 0, 67, 64
9, 49299, Note_on_c, 0, 69, 63
9, 49406, Note_on_c, 0, 71, 64
9, 49428, Note_off_c, 0, 69, 64
9, 49528, Note_off_c, 0, 71, 64
9, 49547, Note_on_c, 0, 72, 87
9, 49656, Note_on_c, 0, 74, 66
9, 49663, Note_off_c, 0, 72, 64
9, 49773, Note_on_c, 0, 76, 74
9, 49776, Note_off_c, 0, 74, 64
9, 49862, Note_off_c, 0, 76, 64
9, 49890, Note_on_c, 0, 77, 82
9, 49999, Note_on_c, 0, 74, 78
9, 50004, Note_off_c, 0, 77, 64
9, 50099, Note_off_c, 0, 74, 64
9, 50125, Note_on_c, 0, 79, 89
9, 50252, Note_off_c, 0, 79, 64
9, 50366, Note_on_c, 0, 76, 85
9, 50637, Note_off_c, 0, 76, 64
9, 50721, Note_on_c, 0, 74, 78
9, 50816, Note_off_c, 0, 74, 64
9, 50860, Note_on_c, 0, 72, 82
9, 50964, Note_on_c, 0, 71, 72
9, 50966, Note_off_c, 0, 72, 64
9, 51048, Note_off_c, 0, 71, 64
9, 51084, Note_on_c, 0, 72, 82
9, 51194, Note_on_c, 0, 69, 68
9, 51203, Note_off_c, 0, 72, 64
9, 51287, Note_off_c, 0, 69, 64
9, 51329, Note_on_c, 0, 72, 64
9, 51424, Note_on_c, 0, 71, 62
9, 51427, Note_off_c, 0, 72, 64
9, 51469, Note_on_c, 0, 72, 74
9, 51471, Note_off_c, 0, 71, 64
9, 51522, Note_on_c, 0, 71, 82
9, 51533, Note_off_c, 0, 72, 64
9, 51564, Note_on_c, 0, 72, 62
9, 51597, Note_off_c, 0, 72, 64
9, 51697, Note_on_c, 0, 72, 85
9, 51712, Note_off_c, 0, 71, 64
9, 51765, Note_off_c, 0, 72, 64
9, 51827, Note_on_c, 0, 72, 68
9, 52797, Note_off_c, 0, 72, 64
9, 52797, End_track
10, 0, Start_track
10, 0, Title_t, "Violin2"
10, 0, Program_c, 1, 40
10, 0, Control_c, 1, 7, 100
10, 24355, Note_on_c, 1, 71, 72
10, 24401, Note_off_c, 1, 71, 64
10, 24478, Note_on_c, 1, 71, 87
10, 24594, Note_on_c, 1, 69, 64
10, 24609, Note_off_c, 1, 71, 64
10, 24706, Note_on_c, 1, 71, 58
10, 24708, Note_off_c, 1, 69, 64
10, 24819, Note_on_c, 1, 73, 53
10, 24828, Note_off_c, 1, 71, 64
10, 24937, Note_off_c, 1, 73, 64
10, 24943, Note_on_c, 1, 74, 80
10, 25123, Note_off_c, 1, 74, 64
10, 25430, Note_on_c, 1, 70, 70
10, 25618, Note_off_c, 1, 70, 64
10, 25908, Note_on_c, 1, 69, 64
10, 26079, Note_off_c, 1, 69, 64
10, 26136, Note_on_c, 1, 74, 68
10, 26234, Note_off_c, 1, 74, 64
10, 26250, Note_on_c, 1, 73, 53
10, 26323, Note_off_c, 1, 73, 64
10, 26356, Note_on_c, 1, 74, 68
10, 27910, Note_off_c, 1, 74, 64
10, 28065, Note_on_c, 1, 69, 66
10, 28173, Note_off_c, 1, 69, 64
10, 28304, Note_on_c, 1, 69, 64
10, 28417, Note_off_c, 1, 69, 64
10, 28558, Note_on_c, 1, 67, 70
10, 28644, Note_off_c, 1, 67, 64
10, 28789, Note_on_c, 1, 64, 78
10, 29422, Note_off_c, 1, 64, 64
10, 29506, Note_on_c, 1, 74, 70
10, 29608, Note_off_c, 1, 74, 64
10, 29732, Note_on_c, 1, 74, 78
10, 29862, Note_off_c, 1, 74, 64
10, 29977, Note_on_c, 1, 73, 74
10, 30079, Note_off_c, 1, 73, 64
10, 30223, Note_on_c, 1, 74, 91
10, 30305, Note_off_c, 1, 74, 64
10, 30460, Note_on_c, 1, 69, 80
10, 30778, Note_off_c, 1, 69, 64
10, 30925, Note_on_c, 1, 68, 72
10, 31024, Note_off_c, 1, 68, 64
10, 31168, Note_on_c, 1, 69, 85
10, 31416, Note_off_c, 1, 69, 64
10, 31525, Note_on_c, 1, 71, 78
10, 31598, Note_off_c, 1, 71, 64
10, 31650, Note_on_c, 1, 64, 72
10, 31759, Note_off_c, 1, 64, 64
10, 31901, Note_on_c, 1, 69, 72
10, 32007, Note_off_c, 1, 69, 64
10, 32140, Note_on_c, 1, 71, 63
10, 32246, Note_off_c, 1, 71, 64
10, 32366, Note_on_c, 1, 72, 68
10, 32470, Note_off_c, 1, 72, 64
10, 32613, Note_on_c, 1, 71, 68
10, 32722, Note_off_c, 1, 71, 64
10, 32863, Note_on_c, 1, 69, 68
10, 32943, Note_off_c, 1, 69, 64
10, 33101, Note_on_c, 1, 69, 80
10, 33169, Note_off_c, 1, 69, 64
10, 33339, Note_on_c, 1, 71, 80
10, 33703, Note_off_c, 1, 71, 64
10, 33816, Note_on_c, 1, 69, 82
10, 33908, Note_on_c, 1, 71, 80
10, 33924, Note_off_c, 1, 69, 64
10, 33977, Note_off_c, 1, 71, 64
10, 34039, Note_on_c, 1, 69, 85
10, 34141, Note_on_c, 1, 68, 66
10, 34147, Note_off_c, 1, 69, 64
10, 34183, Note_off_c, 1, 68, 64
10, 34187, Note_on_c, 1, 69, 76
10, 34232, Note_on_c, 1, 68, 85
10, 34252, Note_off_c, 1, 69, 64
10, 34380, Note_off_c, 1, 68, 64
10, 34386, Note_on_c, 1, 64, 68
10, 34448, Note_off_c, 1, 64, 64
10, 34539, Note_on_c, 1, 64, 66
10, 35093, Note_off_c, 1, 64, 64
10, 35248, Note_on_c, 1, 69, 68
10, 35361, Note_on_c, 1, 71, 78
10, 35363, Note_off_c, 1, 69, 64
10, 35460, Note_off_c, 1, 71, 64
10, 35485, Note_on_c, 1, 72, 80
10, 35588, Note_on_c, 1, 71, 68
10, 35589, Note_off_c, 1, 72, 64
10, 35719, Note_off_c, 1, 71, 64
10, 35723, Note_on_c, 1, 72, 66
10, 35819, Note_on_c, 1, 74, 68
10, 35826, Note_off_c, 1, 72, 64
10, 35905, Note_off_c, 1, 74, 64
10, 35952, Note_on_c, 1, 76, 98
10, 36056, Note_off_c, 1, 76, 64
10, 36200, Note_on_c, 1, 72, 68
10, 36301, Note_off_c, 1, 72, 64
10, 36448, Note_on_c, 1, 67, 82
10, 36554, Note_off_c, 1, 67, 64
10, 36691, Note_on_c, 1, 64, 68
10, 36802, Note_off_c, 1, 64, 64
10, 36930, Note_on_c, 1, 65, 70
10, 37027, Note_off_c, 1, 65, 64
10, 37182, Note_on_c, 1, 67, 78
10, 37264, Note_off_c, 1, 67, 64
10, 37422, Note_on_c, 1, 65, 64
10, 37997, Note_off_c, 1, 65, 64
10, 38137, Note_on_c, 1, 64, 78
10, 38229, Note_off_c, 1, 64, 64
10, 38389, Note_on_c, 1, 69, 78
10, 38471, Note_off_c, 1, 69, 64
10, 38628, Note_on_c, 1, 69, 80
10, 38701, Note_off_c, 1, 69, 64
10, 38858, Note_on_c, 1, 69, 80
10, 39350, Note_off_c, 1, 69, 64
10, 39569, Note_on_c, 1, 69, 85
10, 39651, Note_off_c, 1, 69, 64
10, 39819, Note_on_c, 1, 64, 78
10, 39910, Note_off_c, 1, 64, 64
10, 40051, Note_on_c, 1, 62, 80
10, 40135, Note_off_c, 1, 62, 64
10, 40303, Note_on_c, 1, 62, 70
10, 40687, Note_off_c, 1, 62, 64
10, 40782, Note_on_c, 1, 67, 85
10, 41132, Note_off_c, 1, 67, 64
10, 41264, Note_on_c, 1, 59, 68
10, 41572, Note_off_c, 1, 59, 64
10, 41745, Note_on_c, 1, 67, 82
10, 42110, Note_off_c, 1, 67, 64
10, 42220, Note_on_c, 1, 72, 85
10, 42517, Note_off_c, 1, 72, 64
10, 42682, Note_on_c, 1, 72, 82
10, 42728, Note_on_c, 1, 71, 66
10, 42730, Note_off_c, 1, 72, 64
10, 42778, Note_on_c, 1, 72, 82
10, 42791, Note_off_c, 1, 71, 64
10, 42832, Note_on_c, 1, 71, 68
10, 42856, Note_off_c, 1, 72, 64
10, 42958, Note_off_c, 1, 71, 64
10, 43031, Note_on_c, 1, 72, 74
10, 43102, Note_off_c, 1, 72, 64
10, 43172, Note_on_c, 1, 72, 91
10, 43270, Note_off_c, 1, 72, 64
10, 43278, Note_on_c, 1, 71, 89
10, 43398, Note_off_c, 1, 71, 64
10, 43402, Note_on_c, 1, 72, 82
10, 43502, Note_on_c, 1, 74, 74
10, 43509, Note_off_c, 1, 72, 64
10, 43600, Note_off_c, 1, 74, 64
10, 43633, Note_on_c, 1, 76, 89
10, 43862, Note_off_c, 1, 76, 64
10, 43898, Note_on_c, 1, 74, 72
10, 43956, Note_off_c, 1, 74, 64
10, 43998, Note_on_c, 1, 72, 82
10, 44100, Note_off_c, 1, 72, 64
10, 44140, Note_on_c, 1, 74, 87
10, 44394, Note_off_c, 1, 74, 64
10, 44485, Note_on_c, 1, 76, 68
10, 44584, Note_off_c, 1, 76, 64
10, 44622, Note_on_c, 1, 77, 95
10, 44709, Note_off_c, 1, 77, 64
10, 44855, Note_on_c, 1, 69, 82
10, 45242, Note_off_c, 1, 69, 64
10, 45340, Note_on_c, 1, 71, 82
10, 45426, Note_off_c, 1, 71, 64
10, 45587, Note_on_c, 1, 72, 82
10, 45855, Note_off_c, 1, 72, 64
10, 45928, Note_on_c, 1, 74, 78
10, 46001, Note_off_c, 1, 74, 64
10, 46070, Note_on_c, 1, 72, 82
10, 46138, Note_on_c, 1, 71, 66
10, 46143, Note_off_c, 1, 72, 64
10, 46189, Note_on_c, 1, 72, 80
10, 46196, Note_off_c, 1, 71, 64
10, 46236, Note_on_c, 1, 71, 85
10, 46256, Note_off_c, 1, 72, 64
10, 46376, Note_on_c, 1, 72, 82
10, 46390, Note_off_c, 1, 71, 64
10, 46446, Note_off_c, 1, 72, 64
10, 46506, Note_on_c, 1, 72, 87
10, 46672, Note_off_c, 1, 72, 64
10, 46780, Note_on_c, 1, 72, 68
10, 46880, Note_off_c, 1, 72, 64
10, 47010, Note_on_c, 1, 71, 74
10, 47079, Note_on_c, 1, 69, 60
10, 47086, Note_off_c, 1, 71, 64
10, 47130, Note_on_c, 1, 71, 78
10, 47133, Note_off_c, 1, 69, 64
10, 47180, Note_on_c, 1, 69, 74
10, 47194, Note_off_c, 1, 71, 64
10, 47310, Note_off_c, 1, 69, 64
10, 47367, Note_on_c, 1, 69, 68
10, 47434, Note_off_c, 1, 69, 64
10, 47491, Note_on_c, 1, 69, 87
10, 47619, Note_on_c, 1, 67, 58
10, 47646, Note_off_c, 1, 69, 64
10, 47719, Note_off_c, 1, 67, 64
10, 47739, Note_on_c, 1, 65, 78
10, 47876, Note_on_c, 1, 67, 82
10, 47907, Note_off_c, 1, 65, 64
10, 47978, Note_off_c, 1, 67, 64
10, 47994, Note_on_c, 1, 69, 85
10, 48166, Note_off_c, 1, 69, 64
10, 48219, Note_on_c, 1, 65, 87
10, 48312, Note_off_c, 1, 65, 64
10, 48315, Note_on_c, 1, 64, 78
10, 48432, Note_off_c, 1, 64, 64
10, 48458, Note_on_c, 1, 65, 85
10, 48554, Note_off_c, 1, 65, 64
10, 48715, Note_on_c, 1, 69, 95
10, 48791, Note_off_c, 1, 69, 64
10, 48972, Note_on_c, 1, 62, 80
10, 49475, Note_off_c, 1, 62, 64
10, 49656, Note_on_c, 1, 74, 89
10, 49742, Note_off_c, 1, 74, 64
10, 49891, Note_on_c, 1, 71, 85
10, 49988, Note_off_c, 1, 71, 64
10, 50125, Note_on_c, 1, 74, 87
10, 50221, Note_off_c, 1, 74, 64
10, 50367, Note_on_c, 1, 72, 82
10, 50625, Note_off_c, 1, 72, 64
10, 50714, Note_on_c, 1, 71, 64
10, 50815, Note_off_c, 1, 71, 64
10, 50847, Note_on_c, 1, 72, 85
10, 50953, Note_off_c, 1, 72, 64
10, 51093, Note_on_c, 1, 69, 80
10, 51192, Note_off_c, 1, 69, 64
10, 51316, Note_on_c, 1, 69, 70
10, 51409, Note_on_c, 1, 67, 59
10, 51416, Note_off_c, 1, 69, 64
10, 51456, Note_on_c, 1, 69, 64
10, 51462, Note_off_c, 1, 67, 64
10, 51500, Note_on_c, 1, 67, 70
10, 51509, Note_off_c, 1, 69, 64
10, 51538, Note_on_c, 1, 69, 74
10, 51544, Note_off_c, 1, 67, 64
10, 51580, Note_on_c, 1, 67, 78
10, 51599, Note_off_c, 1, 69, 64
10, 51712, Note_off_c, 1, 67, 64
10, 51833, Note_on_c, 1, 67, 76
10, 52823, Note_off_c, 1, 67, 64
10, 52823, End_track
11, 0, Start_track
11, 0, Title_t, "Viola"
11, 0, Program_c, 2, 41
11, 0, Control_c, 2, 7, 100
11, 24328, Note_on_c, 2, 67, 68
11, 24381, Note_off_c, 2, 67, 64
11, 24457, Note_on_c, 2, 67, 80
11, 24841, Note_off_c, 2, 67, 64
11, 24947, Note_on_c, 2, 69, 85
11, 25162, Note_off_c, 2, 69, 64
11, 25302, Note_on_c, 2, 70, 66
11, 25357, Note_off_c, 2, 70, 64
11, 25424, Note_on_c, 2, 69, 100
11, 25481, Note_on_c, 2, 67, 85
11, 25484, Note_off_c, 2, 69, 64
11, 25512, Note_on_c, 2, 69, 72
11, 25530, Note_off_c, 2, 67, 64
11, 25579, Note_on_c, 2, 67, 82
11, 25587, Note_off_c, 2, 69, 64
11, 25701, Note_off_c, 2, 67, 64
11, 25904, Note_on_c, 2, 74, 82
11, 26097, Note_off_c, 2, 74, 64
11, 26147, Note_on_c, 2, 69, 82
11, 26227, Note_off_c, 2, 69, 64
11, 26234, Note_on_c, 2, 67, 66
11, 26344, Note_off_c, 2, 67, 64
11, 26371, Note_on_c, 2, 65, 76
11, 26482, Note_off_c, 2, 65, 64
11, 26604, Note_on_c, 2, 69, 62
11, 26675, Note_off_c, 2, 69, 64
11, 26847, Note_on_c, 2, 62, 76
11, 26927, Note_off_c, 2, 62, 64
11, 27097, Note_on_c, 2, 66, 76
11, 27179, Note_off_c, 2, 66, 64
11, 27356, Note_on_c, 2, 67, 70
11, 27857, Note_off_c, 2, 67, 64
11, 28054, Note_on_c, 2, 69, 76
11, 28155, Note_off_c, 2, 69, 64
11, 28299, Note_on_c, 2, 62, 64
11, 28388, Note_off_c, 2, 62, 64
11, 28543, Note_on_c, 2, 58, 63
11, 28631, Note_off_c, 2, 58, 64
11, 28786, Note_on_c, 2, 57, 70
11, 29276, Note_off_c, 2, 57, 64
11, 29494, Note_on_c, 2, 69, 78
11, 29583, Note_off_c, 2, 69, 64
11, 29734, Note_on_c, 2, 70, 78
11, 29844, Note_off_c, 2, 70, 64
11, 29968, Note_on_c, 2, 69, 76
11, 30041, Note_off_c, 2, 69, 64
11, 30232, Note_on_c, 2, 69, 82
11, 30307, Note_off_c, 2, 69, 64
11, 30470, Note_on_c, 2, 62, 80
11, 30767, Note_off_c, 2, 62, 64
11, 30951, Note_on_c, 2, 64, 82
11, 31075, Note_off_c, 2, 64, 64
11, 31190, Note_on_c, 2, 65, 93
11, 31234, Note_on_c, 2, 64, 76
11, 31241, Note_off_c, 2, 65, 64
11, 31285, Note_off_c, 2, 64, 64
11, 31285, Note_on_c, 2, 65, 70
11, 31327, Note_on_c, 2, 64, 89
11, 31361, Note_off_c, 2, 65, 64
11, 31422, Note_off_c, 2, 64, 64
11, 31540, Note_on_c, 2, 62, 80
11, 31615, Note_off_c, 2, 62, 64
11, 31662, Note_on_c, 2, 69, 93
11, 31801, Note_off_c, 2, 69, 64
11, 31909, Note_on_c, 2, 62, 85
11, 32206, Note_off_c, 2, 62, 64
11, 32383, Note_on_c, 2, 64, 76
11, 32472, Note_off_c, 2, 64, 64
11, 32625, Note_on_c, 2, 64, 72
11, 32717, Note_off_c, 2, 64, 64
11, 32866, Note_on_c, 2, 64, 80
11, 32961, Note_off_c, 2, 64, 64
11, 33100, Note_on_c, 2, 57, 64
11, 33202, Note_off_c, 2, 57, 64
11, 33337, Note_on_c, 2, 64, 72
11, 33437, Note_off_c, 2, 64, 64
11, 33576, Note_on_c, 2, 64, 66
11, 33691, Note_off_c, 2, 64, 64
11, 33809, Note_on_c, 2, 65, 74
11, 33942, Note_off_c, 2, 65, 64
11, 34064, Note_on_c, 2, 64, 78
11, 34143, Note_off_c, 2, 64, 64
11, 34294, Note_on_c, 2, 62, 80
11, 34360, Note_off_c, 2, 62, 64
11, 34561, Note_on_c, 2, 60, 78
11, 35106, Note_off_c, 2, 60, 64
11, 35132, Note_on_c, 2, 62, 78
11, 35230, Note_on_c, 2, 60, 66
11, 35241, Note_off_c, 2, 62, 64
11, 35316, Note_off_c, 2, 60, 64
11, 35339, Note_on_c, 2, 59, 74
11, 35423, Note_off_c, 2, 59, 64
11, 35473, Note_on_c, 2, 57, 76
11, 35598, Note_off_c, 2, 57, 64
11, 35735, Note_on_c, 2, 69, 85
11, 35825, Note_off_c, 2, 69, 64
11, 35974, Note_on_c, 2, 67, 89
11, 36116, Note_off_c, 2, 67, 64
11, 36220, Note_on_c, 2, 55, 68
11, 36310, Note_off_c, 2, 55, 64
11, 36335, Note_on_c, 2, 57, 85
11, 36419, Note_off_c, 2, 57, 64
11, 36459, Note_on_c, 2, 58, 93
11, 36541, Note_off_c, 2, 58, 64
11, 36702, Note_on_c, 2, 55, 70
11, 36811, Note_off_c, 2, 55, 64
11, 36951, Note_on_c, 2, 62, 87
11, 37039, Note_off_c, 2, 62, 64
11, 37182, Note_on_c, 2, 60, 72
11, 37271, Note_off_c, 2, 60, 64
11, 37435, Note_on_c, 2, 60, 80
11, 37977, Note_off_c, 2, 60, 64
11, 38132, Note_on_c, 2, 61, 82
11, 38229, Note_off_c, 2, 61, 64
11, 38389, Note_on_c, 2, 62, 80
11, 38473, Note_off_c, 2, 62, 64
11, 38624, Note_on_c, 2, 57, 74
11, 38708, Note_off_c, 2, 57, 64
11, 38880, Note_on_c, 2, 62, 80
11, 39369, Note_off_c, 2, 62, 64
11, 39568, Note_on_c, 2, 62, 80
11, 39653, Note_off_c, 2, 62, 64
11, 39823, Note_on_c, 2, 55, 80
11, 39920, Note_off_c, 2, 55, 64
11, 40075, Note_on_c, 2, 57, 87
11, 40166, Note_off_c, 2, 57, 64
11, 40308, Note_on_c, 2, 55, 87
11, 40412, Note_on_c, 2, 54, 82
11, 40416, Note_off_c, 2, 55, 64
11, 40520, Note_off_c, 2, 54, 64
11, 40529, Note_on_c, 2, 55, 64
11, 40636, Note_on_c, 2, 57, 80
11, 40649, Note_off_c, 2, 55, 64
11, 40735, Note_off_c, 2, 57, 64
11, 40768, Note_on_c, 2, 59, 80
11, 40864, Note_off_c, 2, 59, 64
11, 41005, Note_on_c, 2, 60, 82
11, 41081, Note_off_c, 2, 60, 64
11, 41246, Note_on_c, 2, 62, 82
11, 41548, Note_off_c, 2, 62, 64
11, 41738, Note_on_c, 2, 64, 87
11, 41844, Note_on_c, 2, 62, 78
11, 41860, Note_off_c, 2, 64, 64
11, 41962, Note_on_c, 2, 64, 68
11, 41966, Note_off_c, 2, 62, 64
11, 42076, Note_on_c, 2, 65, 66
11, 42092, Note_off_c, 2, 64, 64
11, 42190, Note_off_c, 2, 65, 64
11, 42203, Note_on_c, 2, 67, 85
11, 42400, Note_off_c, 2, 67, 64
11, 42544, Note_on_c, 2, 69, 80
11, 42623, Note_off_c, 2, 69, 64
11, 42677, Note_on_c, 2, 67, 93
11, 42738, Note_on_c, 2, 65, 82
11, 42750, Note_off_c, 2, 67, 64
11, 42776, Note_off_c, 2, 65, 64
11, 42778, Note_on_c, 2, 67, 66
11, 42822, Note_on_c, 2, 65, 78
11, 42862, Note_off_c, 2, 67, 64
11, 42958, Note_off_c, 2, 65, 64
11, 43053, Note_on_c, 2, 64, 82
11, 43117, Note_off_c, 2, 64, 64
11, 43170, Note_on_c, 2, 64, 80
11, 43285, Note_on_c, 2, 65, 68
11, 43292, Note_off_c, 2, 64, 64
11, 43405, Note_on_c, 2, 64, 85
11, 43422, Note_off_c, 2, 65, 64
11, 43515, Note_off_c, 2, 64, 64
11, 43522, Note_on_c, 2, 62, 66
11, 43591, Note_off_c, 2, 62, 64
11, 43659, Note_on_c, 2, 60, 68
11, 43772, Note_off_c, 2, 60, 64
11, 43892, Note_on_c, 2, 67, 85
11, 44000, Note_off_c, 2, 67, 64
11, 44120, Note_on_c, 2, 69, 85
11, 44244, Note_off_c, 2, 69, 64
11, 44374, Note_on_c, 2, 70, 76
11, 44469, Note_off_c, 2, 70, 64
11, 44611, Note_on_c, 2, 72, 82
11, 44708, Note_off_c, 2, 72, 64
11, 44850, Note_on_c, 2, 60, 70
11, 44943, Note_off_c, 2, 60, 64
11, 45089, Note_on_c, 2, 62, 89
11, 45423, Note_off_c, 2, 62, 64
11, 45567, Note_on_c, 2, 67, 78
11, 45669, Note_off_c, 2, 67, 64
11, 45820, Note_on_c, 2, 65, 70
11, 45939, Note_off_c, 2, 65, 64
11, 46041, Note_on_c, 2, 64, 70
11, 46150, Note_off_c, 2, 64, 64
11, 46280, Note_on_c, 2, 62, 66
11, 46380, Note_off_c, 2, 62, 64
11, 46515, Note_on_c, 2, 60, 68
11, 46617, Note_off_c, 2, 60, 64
11, 46760, Note_on_c, 2, 64, 80
11, 46847, Note_off_c, 2, 64, 64
11, 47013, Note_on_c, 2, 65, 78
11, 47267, Note_off_c, 2, 65, 64
11, 47382, Note_on_c, 2, 64, 78
11, 47434, Note_off_c, 2, 64, 64
11, 47502, Note_on_c, 2, 62, 82
11, 47659, Note_off_c, 2, 62, 64
11, 47737, Note_on_c, 2, 60, 82
11, 47814, Note_off_c, 2, 60, 64
11, 47838, Note_on_c, 2, 59, 80
11, 47916, Note_off_c, 2, 59, 64
11, 47960, Note_on_c, 2, 57, 82
11, 48086, Note_off_c, 2, 57, 64
11, 48217, Note_on_c, 2, 62, 82
11, 48294, Note_off_c, 2, 62, 64
11, 48445, Note_on_c, 2, 55, 76
11, 48532, Note_off_c, 2, 55, 64
11, 48704, Note_on_c, 2, 60, 80
11, 48784, Note_off_c, 2, 60, 64
11, 48959, Note_on_c, 2, 59, 78
11, 49454, Note_off_c, 2, 59, 64
11, 49662, Note_on_c, 2, 55, 82
11, 49758, Note_off_c, 2, 55, 64
11, 49906, Note_on_c, 2, 62, 82
11, 49992, Note_off_c, 2, 62, 64
11, 50132, Note_on_c, 2, 59, 85
11, 50216, Note_off_c, 2, 59, 64
11, 50364, Note_on_c, 2, 55, 74
11, 50532, Note_off_c, 2, 55, 64
11, 50615, Note_on_c, 2, 67, 82
11, 50719, Note_on_c, 2, 65, 80
11, 50727, Note_off_c, 2, 67, 64
11, 50817, Note_off_c, 2, 65, 64
11, 50865, Note_on_c, 2, 64, 87
11, 50984, Note_off_c, 2, 64, 64
11, 51123, Note_on_c, 2, 62, 85
11, 51223, Note_off_c, 2, 62, 64
11, 51345, Note_on_c, 2, 64, 85
11, 51409, Note_on_c, 2, 62, 62
11, 51411, Note_off_c, 2, 64, 64
11, 51460, Note_on_c, 2, 64, 89
11, 51467, Note_off_c, 2, 62, 64
11, 51506, Note_on_c, 2, 62, 70
11, 51509, Note_off_c, 2, 64, 64
11, 51544, Note_on_c, 2, 64, 78
11, 51555, Note_off_c, 2, 62, 64
11, 51586, Note_on_c, 2, 62, 80
11, 51602, Note_off_c, 2, 64, 64
11, 51743, Note_off_c, 2, 62, 64
11, 51847, Note_on_c, 2, 64, 82
11, 52773, Note_off_c, 2, 64, 64
11, 52773, End_track
12, 0, Start_track
12, 0, Title_t, "Cello"
12, 0, Program_c, 3, 42
12, 0, Control_c, 3, 7, 100
12, 24321, Note_on_c, 3, 55, 80
12, 24383, Note_off_c, 3, 55, 64
12, 24474, Note_on_c, 3, 55, 98
12, 24645, Note_off_c, 3, 55, 64
12, 24700, Note_on_c, 3, 53, 82
12, 24773, Note_off_c, 3, 53, 64
12, 24793, Note_on_c, 3, 52, 76
12, 24868, Note_off_c, 3, 52, 64
12, 24937, Note_on_c, 3, 50, 82
12, 25448, Note_off_c, 3, 50, 64
12, 25523, Note_on_c, 3, 49, 72
12, 25612, Note_off_c, 3, 49, 64
12, 25641, Note_on_c, 3, 50, 68
12, 25747, Note_off_c, 3, 50, 64
12, 25762, Note_on_c, 3, 52, 66
12, 25852, Note_off_c, 3, 52, 64
12, 25897, Note_on_c, 3, 53, 85
12, 26008, Note_on_c, 3, 55, 72
12, 26012, Note_off_c, 3, 53, 64
12, 26120, Note_off_c, 3, 55, 64
12, 26130, Note_on_c, 3, 53, 72
12, 26229, Note_off_c, 3, 53, 64
12, 26238, Note_on_c, 3, 52, 68
12, 26334, Note_off_c, 3, 52, 64
12, 26373, Note_on_c, 3, 50, 74
12, 26505, Note_off_c, 3, 50, 64
12, 26619, Note_on_c, 3, 60, 85
12, 26705, Note_off_c, 3, 60, 64
12, 26863, Note_on_c, 3, 58, 76
12, 26967, Note_off_c, 3, 58, 64
12, 27100, Note_on_c, 3, 57, 80
12, 27190, Note_off_c, 3, 57, 64
12, 27343, Note_on_c, 3, 55, 89
12, 27454, Note_on_c, 3, 53, 82
12, 27462, Note_off_c, 3, 55, 64
12, 27556, Note_off_c, 3, 53, 64
12, 27573, Note_on_c, 3, 55, 64
12, 27670, Note_off_c, 3, 55, 64
12, 27693, Note_on_c, 3, 57, 72
12, 27814, Note_off_c, 3, 57, 64
12, 27826, Note_on_c, 3, 58, 72
12, 27949, Note_off_c, 3, 58, 64
12, 28060, Note_on_c, 3, 49, 76
12, 28180, Note_off_c, 3, 49, 64
12, 28306, Note_on_c, 3, 50, 80
12, 28405, Note_off_c, 3, 50, 64
12, 28540, Note_on_c, 3, 43, 78
12, 28629, Note_off_c, 3, 43, 64
12, 28786, Note_on_c, 3, 45, 85
12, 28886, Note_off_c, 3, 45, 64
12, 29016, Note_on_c, 3, 57, 82
12, 29109, Note_off_c, 3, 57, 64
12, 29249, Note_on_c, 3, 55, 70
12, 29351, Note_off_c, 3, 55, 64
12, 29475, Note_on_c, 3, 53, 63
12, 29598, Note_off_c, 3, 53, 64
12, 29731, Note_on_c, 3, 55, 80
12, 29838, Note_off_c, 3, 55, 64
12, 29973, Note_on_c, 3, 57, 74
12, 30068, Note_off_c, 3, 57, 64
12, 30211, Note_on_c, 3, 50, 78
12, 30309, Note_off_c, 3, 50, 64
12, 30448, Note_on_c, 3, 53, 80
12, 30550, Note_off_c, 3, 53, 64
12, 30688, Note_on_c, 3, 47, 78
12, 30820, Note_off_c, 3, 47, 64
12, 30931, Note_on_c, 3, 52, 76
12, 31044, Note_off_c, 3, 52, 64
12, 31044, Note_on_c, 3, 53, 78
12, 31132, Note_off_c, 3, 53, 64
12, 31163, Note_on_c, 3, 52, 80
12, 31265, Note_off_c, 3, 52, 64
12, 31276, Note_on_c, 3, 50, 64
12, 31378, Note_off_c, 3, 50, 64
12, 31401, Note_on_c, 3, 48, 64
12, 31498, Note_off_c, 3, 48, 64
12, 31524, Note_on_c, 3, 47, 66
12, 31620, Note_off_c, 3, 47, 64
12, 31660, Note_on_c, 3, 48, 91
12, 31761, Note_off_c, 3, 48, 64
12, 31910, Note_on_c, 3, 50, 78
12, 32002, Note_off_c, 3, 50, 64
12, 32137, Note_on_c, 3, 47, 80
12, 32250, Note_off_c, 3, 47, 64
12, 32363, Note_on_c, 3, 45, 82
12, 32492, Note_off_c, 3, 45, 64
12, 32609, Note_on_c, 3, 44, 74
12, 32713, Note_off_c, 3, 44, 64
12, 32859, Note_on_c, 3, 45, 70
12, 32963, Note_off_c, 3, 45, 64
12, 33100, Note_on_c, 3, 42, 66
12, 33187, Note_off_c, 3, 42, 64
12, 33324, Note_on_c, 3, 44, 68
12, 33426, Note_off_c, 3, 44, 64
12, 33576, Note_on_c, 3, 45, 82
12, 33694, Note_off_c, 3, 45, 64
12, 33818, Note_on_c, 3, 50, 80
12, 33913, Note_off_c, 3, 50, 64
12, 34050, Note_on_c, 3, 52, 82
12, 34148, Note_off_c, 3, 52, 64
12, 34282, Note_on_c, 3, 40, 89
12, 34353, Note_off_c, 3, 40, 64
12, 34530, Note_on_c, 3, 45, 87
12, 34645, Note_on_c, 3, 44, 74
12, 34655, Note_off_c, 3, 45, 64
12, 34759, Note_off_c, 3, 44, 64
12, 34777, Note_on_c, 3, 45, 70
12, 34894, Note_on_c, 3, 47, 82
12, 34904, Note_off_c, 3, 45, 64
12, 35026, Note_off_c, 3, 47, 64
12, 35029, Note_on_c, 3, 48, 89
12, 35108, Note_off_c, 3, 48, 64
12, 35263, Note_on_c, 3, 52, 85
12, 35352, Note_off_c, 3, 52, 64
12, 35495, Note_on_c, 3, 57, 89
12, 35688, Note_off_c, 3, 57, 64
12, 35732, Note_on_c, 3, 55, 82
12, 35819, Note_off_c, 3, 55, 64
12, 35841, Note_on_c, 3, 53, 80
12, 35921, Note_off_c, 3, 53, 64
12, 35971, Note_on_c, 3, 52, 78
12, 36073, Note_off_c, 3, 52, 64
12, 36075, Note_on_c, 3, 50, 82
12, 36186, Note_off_c, 3, 50, 64
12, 36197, Note_on_c, 3, 52, 60
12, 36292, Note_off_c, 3, 52, 64
12, 36310, Note_on_c, 3, 53, 70
12, 36405, Note_off_c, 3, 53, 64
12, 36441, Note_on_c, 3, 55, 85
12, 36552, Note_off_c, 3, 55, 64
12, 36689, Note_on_c, 3, 48, 72
12, 36804, Note_off_c, 3, 48, 64
12, 36939, Note_on_c, 3, 50, 82
12, 37041, Note_off_c, 3, 50, 64
12, 37180, Note_on_c, 3, 52, 74
12, 37255, Note_off_c, 3, 52, 64
12, 37428, Note_on_c, 3, 53, 87
12, 37538, Note_on_c, 3, 52, 78
12, 37548, Note_off_c, 3, 53, 64
12, 37652, Note_on_c, 3, 53, 62
12, 37660, Note_off_c, 3, 52, 64
12, 37775, Note_on_c, 3, 55, 68
12, 37787, Note_off_c, 3, 53, 64
12, 37877, Note_off_c, 3, 55, 64
12, 37889, Note_on_c, 3, 57, 68
12, 38010, Note_on_c, 3, 58, 78
12, 38024, Note_off_c, 3, 57, 64
12, 38125, Note_on_c, 3, 57, 72
12, 38127, Note_off_c, 3, 58, 64
12, 38240, Note_on_c, 3, 55, 72
12, 38241, Note_off_c, 3, 57, 64
12, 38362, Note_on_c, 3, 53, 68
12, 38378, Note_off_c, 3, 55, 64
12, 38482, Note_on_c, 3, 52, 64
12, 38484, Note_off_c, 3, 53, 64
12, 38588, Note_off_c, 3, 52, 64
12, 38597, Note_on_c, 3, 50, 66
12, 38721, Note_off_c, 3, 50, 64
12, 38732, Note_on_c, 3, 49, 72
12, 38832, Note_off_c, 3, 49, 64
12, 38854, Note_on_c, 3, 50, 85
12, 38946, Note_off_c, 3, 50, 64
12, 39098, Note_on_c, 3, 52, 74
12, 39192, Note_off_c, 3, 52, 64
12, 39347, Note_on_c, 3, 53, 78
12, 39438, Note_off_c, 3, 53, 64
12, 39574, Note_on_c, 3, 50, 72
12, 39684, Note_off_c, 3, 50, 64
12, 39822, Note_on_c, 3, 52, 78
12, 39930, Note_off_c, 3, 52, 64
12, 40053, Note_on_c, 3, 53, 82
12, 40169, Note_off_c, 3, 53, 64
12, 40301, Note_on_c, 3, 55, 85
12, 40403, Note_off_c, 3, 55, 64
12, 40529, Note_on_c, 3, 43, 87
12, 40644, Note_off_c, 3, 43, 64
12, 40775, Note_on_c, 3, 55, 72
12, 40883, Note_off_c, 3, 55, 64
12, 41007, Note_on_c, 3, 57, 78
12, 41109, Note_off_c, 3, 57, 64
12, 41244, Note_on_c, 3, 55, 78
12, 41366, Note_off_c, 3, 55, 64
12, 41492, Note_on_c, 3, 53, 70
12, 41574, Note_off_c, 3, 53, 64
12, 41734, Note_on_c, 3, 52, 87
12, 41846, Note_off_c, 3, 52, 64
12, 41976, Note_on_c, 3, 50, 74
12, 42083, Note_off_c, 3, 50, 64
12, 42209, Note_on_c, 3, 48, 80
12, 42359, Note_off_c, 3, 48, 64
12, 42446, Note_on_c, 3, 60, 85
12, 42544, Note_off_c, 3, 60, 64
12, 42690, Note_on_c, 3, 55, 85
12, 42792, Note_off_c, 3, 55, 64
12, 42935, Note_on_c, 3, 57, 87
12, 42997, Note_off_c, 3, 57, 64
12, 43166, Note_on_c, 3, 52, 82
12, 43283, Note_on_c, 3, 50, 78
12, 43318, Note_off_c, 3, 52, 64
12, 43396, Note_off_c, 3, 50, 64
12, 43403, Note_on_c, 3, 52, 70
12, 43524, Note_on_c, 3, 53, 82
12, 43538, Note_off_c, 3, 52, 64
12, 43620, Note_off_c, 3, 53, 64
12, 43644, Note_on_c, 3, 55, 82
12, 43761, Note_on_c, 3, 57, 82
12, 43768, Note_off_c, 3, 55, 64
12, 43854, Note_off_c, 3, 57, 64
12, 43883, Note_on_c, 3, 58, 82
12, 43991, Note_off_c, 3, 58, 64
12, 44129, Note_on_c, 3, 57, 80
12, 44246, Note_off_c, 3, 57, 64
12, 44388, Note_on_c, 3, 55, 85
12, 44500, Note_off_c, 3, 55, 64
12, 44624, Note_on_c, 3, 53, 82
12, 44746, Note_off_c, 3, 53, 64
12, 44855, Note_on_c, 3, 52, 80
12, 44950, Note_off_c, 3, 52, 64
12, 45103, Note_on_c, 3, 50, 85
12, 45218, Note_off_c, 3, 50, 64
12, 45350, Note_on_c, 3, 55, 87
12, 45454, Note_on_c, 3, 57, 76
12, 45475, Note_off_c, 3, 55, 64
12, 45547, Note_off_c, 3, 57, 64
12, 45565, Note_on_c, 3, 55, 74
12, 45685, Note_on_c, 3, 53, 76
12, 45705, Note_off_c, 3, 55, 64
12, 45784, Note_on_c, 3, 52, 68
12, 45795, Note_off_c, 3, 53, 64
12, 45902, Note_off_c, 3, 52, 64
12, 45904, Note_on_c, 3, 50, 66
12, 46021, Note_off_c, 3, 50, 64
12, 46030, Note_on_c, 3, 52, 93
12, 46128, Note_off_c, 3, 52, 64
12, 46280, Note_on_c, 3, 55, 78
12, 46380, Note_off_c, 3, 55, 64
12, 46535, Note_on_c, 3, 60, 85
12, 46641, Note_on_c, 3, 59, 72
12, 46646, Note_off_c, 3, 60, 64
12, 46743, Note_off_c, 3, 59, 64
12, 46756, Note_on_c, 3, 57, 72
12, 46873, Note_on_c, 3, 55, 60
12, 46896, Note_off_c, 3, 57, 64
12, 46991, Note_off_c, 3, 55, 64
12, 46993, Note_on_c, 3, 53, 61
12, 47093, Note_on_c, 3, 52, 66
12, 47112, Note_off_c, 3, 53, 64
12, 47223, Note_off_c, 3, 52, 64
12, 47223, Note_on_c, 3, 50, 66
12, 47344, Note_off_c, 3, 50, 64
12, 47344, Note_on_c, 3, 48, 63
12, 47453, Note_off_c, 3, 48, 64
12, 47491, Note_on_c, 3, 50, 82
12, 47615, Note_off_c, 3, 50, 64
12, 47750, Note_on_c, 3, 57, 82
12, 47863, Note_on_c, 3, 55, 78
12, 47885, Note_off_c, 3, 57, 64
12, 47972, Note_on_c, 3, 53, 70
12, 47980, Note_off_c, 3, 55, 64
12, 48090, Note_on_c, 3, 52, 76
12, 48118, Note_off_c, 3, 53, 64
12, 48213, Note_off_c, 3, 52, 64
12, 48213, Note_on_c, 3, 50, 68
12, 48310, Note_on_c, 3, 48, 70
12, 48328, Note_off_c, 3, 50, 64
12, 48430, Note_on_c, 3, 47, 63
12, 48454, Note_off_c, 3, 48, 64
12, 48545, Note_on_c, 3, 45, 61
12, 48553, Note_off_c, 3, 47, 64
12, 48662, Note_on_c, 3, 43, 72
12, 48695, Note_off_c, 3, 45, 64
12, 48784, Note_off_c, 3, 43, 64
12, 48788, Note_on_c, 3, 41, 68
12, 48839, Note_off_c, 3, 41, 64
12, 48919, Note_on_c, 3, 53, 82
12, 49481, Note_off_c, 3, 53, 64
12, 49662, Note_on_c, 3, 47, 78
12, 49756, Note_off_c, 3, 47, 64
12, 49910, Note_on_c, 3, 43, 74
12, 50014, Note_off_c, 3, 43, 64
12, 50150, Note_on_c, 3, 47, 78
12, 50256, Note_off_c, 3, 47, 64
12, 50373, Note_on_c, 3, 48, 76
12, 50488, Note_off_c, 3, 48, 64
12, 50626, Note_on_c, 3, 43, 74
12, 50732, Note_off_c, 3, 43, 64
12, 50867, Note_on_c, 3, 45, 85
12, 50947, Note_off_c, 3, 45, 64
12, 51104, Note_on_c, 3, 41, 85
12, 51194, Note_off_c, 3, 41, 64
12, 51349, Note_on_c, 3, 43, 82
12, 51692, Note_off_c, 3, 43, 64
12, 51847, Note_on_c, 3, 36, 85
12, 52812, Note_off_c, 3, 36, 64
12, 52812, End_track
13, 0, Start_track
13, 0, Title_t, "Oboe1"
13, 0, Program_c, 4, 68
13, 0, Control_c, 4, 7, 100
13, 24332, Note_on_c, 4, 74, 85
13, 24388, Note_off_c, 4, 74, 64
13, 24467, Note_on_c, 4, 74, 95
13, 24574, Note_on_c, 4, 72, 76
13, 24578, Note_off_c, 4, 74, 64
13, 24700, Note_off_c, 4, 72, 64
13, 24706, Note_on_c, 4, 74, 70
13, 24813, Note_on_c, 4, 76, 78
13, 24824, Note_off_c, 4, 74, 64
13, 24913, Note_off_c, 4, 76, 64
13, 24943, Note_on_c, 4, 77, 85
13, 25125, Note_off_c, 4, 77, 64
13, 25293, Note_on_c, 4, 79, 72
13, 25353, Note_off_c, 4, 79, 64
13, 25422, Note_on_c, 4, 77, 91
13, 25470, Note_on_c, 4, 76, 87
13, 25475, Note_off_c, 4, 77, 64
13, 25528, Note_on_c, 4, 77, 72
13, 25537, Note_off_c, 4, 76, 64
13, 25581, Note_on_c, 4, 76, 66
13, 25601, Note_off_c, 4, 77, 64
13, 25656, Note_off_c, 4, 76, 64
13, 25789, Note_on_c, 4, 74, 82
13, 25873, Note_off_c, 4, 74, 64
13, 25922, Note_on_c, 4, 81, 87
13, 26491, Note_off_c, 4, 81, 64
13, 26624, Note_on_c, 4, 79, 74
13, 26717, Note_on_c, 4, 77, 68
13, 26738, Note_off_c, 4, 79, 64
13, 26814, Note_off_c, 4, 77, 64
13, 26851, Note_on_c, 4, 79, 87
13, 27046, Note_off_c, 4, 79, 64
13, 27226, Note_on_c, 4, 81, 68
13, 27276, Note_off_c, 4, 81, 64
13, 27356, Note_on_c, 4, 82, 82
13, 27591, Note_off_c, 4, 82, 64
13, 27686, Note_on_c, 4, 81, 72
13, 27743, Note_off_c, 4, 81, 64
13, 27827, Note_on_c, 4, 79, 89
13, 28012, Note_off_c, 4, 79, 64
13, 28056, Note_on_c, 4, 77, 70
13, 28129, Note_off_c, 4, 77, 64
13, 28160, Note_on_c, 4, 76, 82
13, 28237, Note_off_c, 4, 76, 64
13, 28306, Note_on_c, 4, 77, 80
13, 28551, Note_off_c, 4, 77, 64
13, 28658, Note_on_c, 4, 79, 80
13, 28724, Note_off_c, 4, 79, 64
13, 28793, Note_on_c, 4, 74, 85
13, 28897, Note_on_c, 4, 73, 66
13, 28919, Note_off_c, 4, 74, 64
13, 29014, Note_on_c, 4, 71, 59
13, 29047, Note_off_c, 4, 73, 64
13, 29140, Note_on_c, 4, 69, 70
13, 29152, Note_off_c, 4, 71, 64
13, 29258, Note_on_c, 4, 71, 64
13, 29275, Note_off_c, 4, 69, 64
13, 29379, Note_on_c, 4, 73, 61
13, 29395, Note_off_c, 4, 71, 64
13, 29479, Note_off_c, 4, 73, 64
13, 29486, Note_on_c, 4, 74, 78
13, 29594, Note_on_c, 4, 76, 80
13, 29614, Note_off_c, 4, 74, 64
13, 29676, Note_off_c, 4, 76, 64
13, 29722, Note_on_c, 4, 77, 82
13, 29798, Note_on_c, 4, 76, 53
13, 29804, Note_off_c, 4, 77, 64
13, 29849, Note_off_c, 4, 76, 64
13, 29853, Note_on_c, 4, 77, 64
13, 29898, Note_on_c, 4, 76, 70
13, 29902, Note_off_c, 4, 77, 64
13, 29939, Note_off_c, 4, 76, 64
13, 29948, Note_on_c, 4, 77, 80
13, 29993, Note_on_c, 4, 76, 66
13, 30013, Note_off_c, 4, 77, 64
13, 30064, Note_on_c, 4, 74, 57
13, 30081, Note_off_c, 4, 76, 64
13, 30128, Note_on_c, 4, 76, 74
13, 30165, Note_off_c, 4, 74, 64
13, 30199, Note_off_c, 4, 76, 64
13, 30218, Note_on_c, 4, 77, 91
13, 30473, Note_off_c, 4, 77, 64
13, 30562, Note_on_c, 4, 76, 74
13, 30630, Note_off_c, 4, 76, 64
13, 30703, Note_on_c, 4, 74, 87
13, 30898, Note_off_c, 4, 74, 64
13, 30944, Note_on_c, 4, 72, 72
13, 31039, Note_on_c, 4, 71, 68
13, 31059, Note_off_c, 4, 72, 64
13, 31117, Note_off_c, 4, 71, 64
13, 31179, Note_on_c, 4, 72, 85
13, 31442, Note_off_c, 4, 72, 64
13, 31524, Note_on_c, 4, 74, 78
13, 31575, Note_off_c, 4, 74, 64
13, 31659, Note_on_c, 4, 76, 85
13, 31918, Note_off_c, 4, 76, 64
13, 32003, Note_on_c, 4, 78, 63
13, 32087, Note_off_c, 4, 78, 64
13, 32142, Note_on_c, 4, 80, 93
13, 32217, Note_off_c, 4, 80, 64
13, 32383, Note_on_c, 4, 81, 95
13, 32452, Note_off_c, 4, 81, 64
13, 32616, Note_on_c, 4, 71, 87
13, 32893, Note_off_c, 4, 71, 64
13, 32970, Note_on_c, 4, 72, 70
13, 33030, Note_off_c, 4, 72, 64
13, 33100, Note_on_c, 4, 74, 87
13, 33331, Note_off_c, 4, 74, 64
13, 33457, Note_on_c, 4, 76, 80
13, 33525, Note_off_c, 4, 76, 64
13, 33583, Note_on_c, 4, 72, 74
13, 33858, Note_off_c, 4, 72, 64
13, 33939, Note_on_c, 4, 71, 68
13, 33986, Note_off_c, 4, 71, 64
13, 34055, Note_on_c, 4, 72, 82
13, 34103, Note_on_c, 4, 71, 62
13, 34110, Note_off_c, 4, 72, 64
13, 34147, Note_on_c, 4, 72, 64
13, 34150, Note_off_c, 4, 71, 64
13, 34196, Note_on_c, 4, 71, 68
13, 34218, Note_off_c, 4, 72, 64
13, 34345, Note_off_c, 4, 71, 64
13, 34407, Note_on_c, 4, 69, 80
13, 34466, Note_off_c, 4, 69, 64
13, 34552, Note_on_c, 4, 69, 87
13, 35070, Note_off_c, 4, 69, 64
13, 35124, Note_on_c, 4, 71, 74
13, 35236, Note_on_c, 4, 72, 66
13, 35257, Note_off_c, 4, 71, 64
13, 35354, Note_on_c, 4, 74, 82
13, 35391, Note_off_c, 4, 72, 64
13, 35449, Note_off_c, 4, 74, 64
13, 35476, Note_on_c, 4, 76, 85
13, 35591, Note_on_c, 4, 77, 68
13, 35604, Note_off_c, 4, 76, 64
13, 35673, Note_off_c, 4, 77, 64
13, 35690, Note_on_c, 4, 79, 72
13, 35735, Note_off_c, 4, 79, 64
13, 35735, Note_on_c, 4, 77, 62
13, 35788, Note_on_c, 4, 79, 74
13, 35852, Note_off_c, 4, 79, 64
13, 35865, Note_on_c, 4, 76, 66
13, 35883, Note_off_c, 4, 77, 64
13, 35923, Note_on_c, 4, 77, 66
13, 35951, Note_off_c, 4, 76, 64
13, 35976, Note_on_c, 4, 79, 91
13, 35983, Note_off_c, 4, 77, 64
13, 36239, Note_off_c, 4, 79, 64
13, 36312, Note_on_c, 4, 77, 68
13, 36379, Note_off_c, 4, 77, 64
13, 36450, Note_on_c, 4, 76, 91
13, 36678, Note_off_c, 4, 76, 64
13, 36698, Note_on_c, 4, 74, 74
13, 36793, Note_off_c, 4, 74, 64
13, 36802, Note_on_c, 4, 72, 62
13, 36881, Note_off_c, 4, 72, 64
13, 36937, Note_on_c, 4, 70, 85
13, 37045, Note_on_c, 4, 69, 72
13, 37056, Note_off_c, 4, 70, 64
13, 37136, Note_off_c, 4, 69, 64
13, 37171, Note_on_c, 4, 70, 64
13, 37280, Note_on_c, 4, 67, 63
13, 37284, Note_off_c, 4, 70, 64
13, 37370, Note_off_c, 4, 67, 64
13, 37419, Note_on_c, 4, 69, 76
13, 37709, Note_off_c, 4, 69, 64
13, 37767, Note_on_c, 4, 67, 85
13, 37846, Note_off_c, 4, 67, 64
13, 37895, Note_on_c, 4, 65, 85
13, 38001, Note_off_c, 4, 65, 64
13, 38145, Note_on_c, 4, 69, 87
13, 38203, Note_off_c, 4, 69, 64
13, 38382, Note_on_c, 4, 74, 87
13, 38659, Note_off_c, 4, 74, 64
13, 38732, Note_on_c, 4, 76, 80
13, 38807, Note_off_c, 4, 76, 64
13, 38859, Note_on_c, 4, 77, 91
13, 39110, Note_off_c, 4, 77, 64
13, 39210, Note_on_c, 4, 79, 85
13, 39290, Note_off_c, 4, 79, 64
13, 39345, Note_on_c, 4, 81, 87
13, 39453, Note_on_c, 4, 79, 80
13, 39484, Note_off_c, 4, 81, 64
13, 39574, Note_on_c, 4, 77, 89
13, 39611, Note_off_c, 4, 79, 64
13, 39694, Note_on_c, 4, 76, 76
13, 39740, Note_off_c, 4, 77, 64
13, 39803, Note_on_c, 4, 74, 66
13, 39814, Note_off_c, 4, 76, 64
13, 39905, Note_on_c, 4, 72, 76
13, 39925, Note_off_c, 4, 74, 64
13, 40042, Note_on_c, 4, 71, 63
13, 40045, Note_off_c, 4, 72, 64
13, 40151, Note_on_c, 4, 72, 78
13, 40168, Note_off_c, 4, 71, 64
13, 40220, Note_off_c, 4, 72, 64
13, 40284, Note_on_c, 4, 72, 80
13, 40343, Note_off_c, 4, 72, 64
13, 40343, Note_on_c, 4, 71, 62
13, 40383, Note_on_c, 4, 72, 82
13, 40392, Note_off_c, 4, 71, 64
13, 40438, Note_on_c, 4, 71, 70
13, 40458, Note_off_c, 4, 72, 64
13, 40628, Note_on_c, 4, 72, 76
13, 40636, Note_off_c, 4, 71, 64
13, 40708, Note_off_c, 4, 72, 64
13, 40768, Note_on_c, 4, 74, 87
13, 40963, Note_off_c, 4, 74, 64
13, 41018, Note_on_c, 4, 72, 70
13, 41120, Note_off_c, 4, 72, 64
13, 41127, Note_on_c, 4, 71, 66
13, 41216, Note_off_c, 4, 71, 64
13, 41263, Note_on_c, 4, 69, 95
13, 41371, Note_on_c, 4, 67, 74
13, 41379, Note_off_c, 4, 69, 64
13, 41496, Note_off_c, 4, 67, 64
13, 41499, Note_on_c, 4, 69, 66
13, 41609, Note_on_c, 4, 71, 78
13, 41623, Note_off_c, 4, 69, 64
13, 41674, Note_off_c, 4, 71, 64
13, 41733, Note_on_c, 4, 72, 93
13, 41838, Note_off_c, 4, 72, 64
13, 41846, Note_on_c, 4, 71, 82
13, 41962, Note_off_c, 4, 71, 64
13, 41968, Note_on_c, 4, 72, 80
13, 42076, Note_off_c, 4, 72, 64
13, 42083, Note_on_c, 4, 74, 76
13, 42181, Note_off_c, 4, 74, 64
13, 42214, Note_on_c, 4, 76, 89
13, 42395, Note_off_c, 4, 76, 64
13, 42550, Note_on_c, 4, 77, 72
13, 42614, Note_off_c, 4, 77, 64
13, 42687, Note_on_c, 4, 76, 87
13, 42734, Note_on_c, 4, 74, 85
13, 42735, Note_off_c, 4, 76, 64
13, 42780, Note_on_c, 4, 76, 66
13, 42792, Note_off_c, 4, 74, 64
13, 42840, Note_on_c, 4, 74, 70
13, 42849, Note_off_c, 4, 76, 64
13, 42913, Note_off_c, 4, 74, 64
13, 43069, Note_on_c, 4, 72, 85
13, 43146, Note_off_c, 4, 72, 64
13, 43190, Note_on_c, 4, 79, 91
13, 43779, Note_off_c, 4, 79, 64
13, 43914, Note_on_c, 4, 77, 76
13, 44009, Note_on_c, 4, 76, 80
13, 44011, Note_off_c, 4, 77, 64
13, 44100, Note_off_c, 4, 76, 64
13, 44144, Note_on_c, 4, 77, 85
13, 44376, Note_off_c, 4, 77, 64
13, 44483, Note_on_c, 4, 79, 82
13, 44565, Note_off_c, 4, 79, 64
13, 44622, Note_on_c, 4, 81, 89
13, 44895, Note_off_c, 4, 81, 64
13, 44967, Note_on_c, 4, 79, 74
13, 45045, Note_off_c, 4, 79, 64
13, 45098, Note_on_c, 4, 77, 89
13, 45282, Note_off_c, 4, 77, 64
13, 45339, Note_on_c, 4, 76, 72
13, 45421, Note_off_c, 4, 76, 64
13, 45441, Note_on_c, 4, 74, 82
13, 45536, Note_off_c, 4, 74, 64
13, 45583, Note_on_c, 4, 76, 89
13, 45835, Note_off_c, 4, 76, 64
13, 45920, Note_on_c, 4, 77, 85
13, 45990, Note_off_c, 4, 77, 64
13, 46054, Note_on_c, 4, 79, 91
13, 46327, Note_off_c, 4, 79, 64
13, 46411, Note_on_c, 4, 77, 74
13, 46471, Note_off_c, 4, 77, 64
13, 46542, Note_on_c, 4, 76, 85
13, 46654, Note_on_c, 4, 74, 80
13, 46656, Note_off_c, 4, 76, 64
13, 46752, Note_off_c, 4, 74, 64
13, 46772, Note_on_c, 4, 76, 68
13, 46873, Note_off_c, 4, 76, 64
13, 46882, Note_on_c, 4, 72, 82
13, 46975, Note_off_c, 4, 72, 64
13, 47019, Note_on_c, 4, 74, 76
13, 47270, Note_off_c, 4, 74, 64
13, 47361, Note_on_c, 4, 76, 80
13, 47440, Note_off_c, 4, 76, 64
13, 47498, Note_on_c, 4, 77, 91
13, 47774, Note_off_c, 4, 77, 64
13, 47859, Note_on_c, 4, 76, 74
13, 47923, Note_off_c, 4, 76, 64
13, 47989, Note_on_c, 4, 74, 91
13, 48107, Note_on_c, 4, 72, 85
13, 48128, Note_off_c, 4, 74, 64
13, 48211, Note_off_c, 4, 72, 64
13, 48233, Note_on_c, 4, 71, 76
13, 48339, Note_off_c, 4, 71, 64
13, 48356, Note_on_c, 4, 72, 66
13, 48438, Note_off_c, 4, 72, 64
13, 48480, Note_on_c, 4, 74, 87
13, 48585, Note_on_c, 4, 71, 82
13, 48600, Note_off_c, 4, 74, 64
13, 48697, Note_off_c, 4, 71, 64
13, 48706, Note_on_c, 4, 72, 56
13, 48819, Note_on_c, 4, 74, 85
13, 48824, Note_off_c, 4, 72, 64
13, 48890, Note_off_c, 4, 74, 64
13, 48947, Note_on_c, 4, 67, 80
13, 49253, Note_off_c, 4, 67, 64
13, 49304, Note_on_c, 4, 69, 64
13, 49428, Note_on_c, 4, 71, 82
13, 49434, Note_off_c, 4, 69, 64
13, 49534, Note_off_c, 4, 71, 64
13, 49552, Note_on_c, 4, 72, 85
13, 49660, Note_on_c, 4, 74, 66
13, 49672, Note_off_c, 4, 72, 64
13, 49767, Note_off_c, 4, 74, 64
13, 49775, Note_on_c, 4, 76, 87
13, 49860, Note_off_c, 4, 76, 64
13, 49891, Note_on_c, 4, 77, 89
13, 49983, Note_off_c, 4, 77, 64
13, 50001, Note_on_c, 4, 74, 85
13, 50083, Note_off_c, 4, 74, 64
13, 50134, Note_on_c, 4, 79, 95
13, 50225, Note_off_c, 4, 79, 64
13, 50386, Note_on_c, 4, 76, 87
13, 50646, Note_off_c, 4, 76, 64
13, 50740, Note_on_c, 4, 74, 76
13, 50792, Note_off_c, 4, 74, 64
13, 50862, Note_on_c, 4, 72, 89
13, 50975, Note_off_c, 4, 72, 64
13, 50975, Note_on_c, 4, 71, 85
13, 51054, Note_off_c, 4, 71, 64
13, 51088, Note_on_c, 4, 72, 82
13, 51188, Note_off_c, 4, 72, 64
13, 51196, Note_on_c, 4, 69, 66
13, 51268, Note_off_c, 4, 69, 64
13, 51321, Note_on_c, 4, 72, 85
13, 51450, Note_off_c, 4, 72, 64
13, 51450, Note_on_c, 4, 71, 58
13, 51493, Note_off_c, 4, 71, 64
13, 51495, Note_on_c, 4, 72, 66
13, 51535, Note_off_c, 4, 72, 64
13, 51538, Note_on_c, 4, 71, 70
13, 51580, Note_on_c, 4, 72, 82
13, 51582, Note_off_c, 4, 71, 64
13, 51620, Note_on_c, 4, 71, 78
13, 51639, Note_off_c, 4, 72, 64
13, 51715, Note_on_c, 4, 72, 78
13, 51723, Note_off_c, 4, 71, 64
13, 51777, Note_off_c, 4, 72, 64
13, 51832, Note_on_c, 4, 72, 89
13, 52800, Note_off_c, 4, 72, 64
13, 52800, End_track
14, 0, Start_track
14, 0, Title_t, "Oboe2"
14, 0, Program_c, 5, 68
14, 0, Control_c, 5, 7, 100
14, 24328, Note_on_c, 5, 74, 87
14, 24386, Note_off_c, 5, 74, 64
14, 24460, Note_on_c, 5, 74, 85
14, 24579, Note_on_c, 5, 72, 80
14, 24599, Note_off_c, 5, 74, 64
14, 24696, Note_off_c, 5, 72, 64
14, 24705, Note_on_c, 5, 74, 72
14, 24818, Note_on_c, 5, 76, 78
14, 24827, Note_off_c, 5, 74, 64
14, 24937, Note_off_c, 5, 76, 64
14, 24955, Note_on_c, 5, 77, 85
14, 25148, Note_off_c, 5, 77, 64
14, 25298, Note_on_c, 5, 79, 76
14, 25360, Note_off_c, 5, 79, 64
14, 25429, Note_on_c, 5, 77, 87
14, 25482, Note_on_c, 5, 76, 80
14, 25495, Note_off_c, 5, 77, 64
14, 25527, Note_on_c, 5, 77, 64
14, 25543, Note_off_c, 5, 76, 64
14, 25588, Note_on_c, 5, 76, 66
14, 25601, Note_off_c, 5, 77, 64
14, 25652, Note_off_c, 5, 76, 64
14, 25779, Note_on_c, 5, 74, 85
14, 25867, Note_off_c, 5, 74, 64
14, 25914, Note_on_c, 5, 81, 85
14, 26500, Note_off_c, 5, 81, 64
14, 26629, Note_on_c, 5, 79, 82
14, 26704, Note_off_c, 5, 79, 64
14, 26737, Note_on_c, 5, 77, 87
14, 26824, Note_off_c, 5, 77, 64
14, 26876, Note_on_c, 5, 79, 80
14, 27087, Note_off_c, 5, 79, 64
14, 27207, Note_on_c, 5, 81, 82
14, 27253, Note_off_c, 5, 81, 64
14, 27342, Note_on_c, 5, 82, 89
14, 27607, Note_off_c, 5, 82, 64
14, 27689, Note_on_c, 5, 81, 74
14, 27747, Note_off_c, 5, 81, 64
14, 27824, Note_on_c, 5, 79, 93
14, 28012, Note_off_c, 5, 79, 64
14, 28070, Note_on_c, 5, 77, 68
14, 28140, Note_off_c, 5, 77, 64
14, 28171, Note_on_c, 5, 76, 78
14, 28249, Note_off_c, 5, 76, 64
14, 28311, Note_on_c, 5, 77, 78
14, 28572, Note_off_c, 5, 77, 64
14, 28665, Note_on_c, 5, 79, 76
14, 28730, Note_off_c, 5, 79, 64
14, 28800, Note_on_c, 5, 74, 91
14, 28898, Note_on_c, 5, 73, 70
14, 28922, Note_off_c, 5, 74, 64
14, 29013, Note_on_c, 5, 71, 57
14, 29039, Note_off_c, 5, 73, 64
14, 29139, Note_on_c, 5, 69, 68
14, 29152, Note_off_c, 5, 71, 64
14, 29261, Note_on_c, 5, 71, 60
14, 29287, Note_off_c, 5, 69, 64
14, 29387, Note_on_c, 5, 73, 60
14, 29405, Note_off_c, 5, 71, 64
14, 29486, Note_on_c, 5, 74, 62
14, 29495, Note_off_c, 5, 73, 64
14, 29605, Note_on_c, 5, 76, 74
14, 29621, Note_off_c, 5, 74, 64
14, 29684, Note_off_c, 5, 76, 64
14, 29746, Note_on_c, 5, 77, 80
14, 29832, Note_on_c, 5, 76, 55
14, 29838, Note_off_c, 5, 77, 64
14, 29889, Note_off_c, 5, 76, 64
14, 29891, Note_on_c, 5, 77, 66
14, 29929, Note_on_c, 5, 76, 58
14, 29935, Note_off_c, 5, 77, 64
14, 29967, Note_off_c, 5, 76, 64
14, 29976, Note_on_c, 5, 77, 68
14, 30013, Note_on_c, 5, 76, 66
14, 30038, Note_off_c, 5, 77, 64
14, 30071, Note_on_c, 5, 74, 68
14, 30075, Note_off_c, 5, 76, 64
14, 30124, Note_on_c, 5, 76, 64
14, 30159, Note_off_c, 5, 74, 64
14, 30197, Note_off_c, 5, 76, 64
14, 30202, Note_on_c, 5, 77, 82
14, 30474, Note_off_c, 5, 77, 64
14, 30562, Note_on_c, 5, 76, 70
14, 30627, Note_off_c, 5, 76, 64
14, 30700, Note_on_c, 5, 74, 87
14, 30896, Note_off_c, 5, 74, 64
14, 30934, Note_on_c, 5, 72, 78
14, 31016, Note_off_c, 5, 72, 64
14, 31045, Note_on_c, 5, 71, 59
14, 31114, Note_off_c, 5, 71, 64
14, 31171, Note_on_c, 5, 72, 80
14, 31456, Note_off_c, 5, 72, 64
14, 31532, Note_on_c, 5, 74, 80
14, 31583, Note_off_c, 5, 74, 64
14, 31656, Note_on_c, 5, 76, 78
14, 31928, Note_off_c, 5, 76, 64
14, 32008, Note_on_c, 5, 78, 63
14, 32087, Note_off_c, 5, 78, 64
14, 32147, Note_on_c, 5, 80, 98
14, 32214, Note_off_c, 5, 80, 64
14, 32380, Note_on_c, 5, 81, 93
14, 32441, Note_off_c, 5, 81, 64
14, 32617, Note_on_c, 5, 71, 80
14, 32884, Note_off_c, 5, 71, 64
14, 32975, Note_on_c, 5, 72, 70
14, 33046, Note_off_c, 5, 72, 64
14, 33108, Note_on_c, 5, 74, 82
14, 33358, Note_off_c, 5, 74, 64
14, 33455, Note_on_c, 5, 76, 70
14, 33520, Note_off_c, 5, 76, 64
14, 33582, Note_on_c, 5, 72, 76
14, 33847, Note_off_c, 5, 72, 64
14, 33953, Note_on_c, 5, 71, 74
14, 34007, Note_off_c, 5, 71, 64
14, 34066, Note_on_c, 5, 72, 85
14, 34113, Note_on_c, 5, 71, 56
14, 34115, Note_off_c, 5, 72, 64
14, 34157, Note_on_c, 5, 72, 68
14, 34173, Note_off_c, 5, 71, 64
14, 34201, Note_on_c, 5, 71, 47
14, 34224, Note_off_c, 5, 72, 64
14, 34352, Note_off_c, 5, 71, 64
14, 34396, Note_on_c, 5, 69, 78
14, 34469, Note_off_c, 5, 69, 64
14, 34540, Note_on_c, 5, 69, 82
14, 35078, Note_off_c, 5, 69, 64
14, 35129, Note_on_c, 5, 71, 72
14, 35244, Note_on_c, 5, 72, 72
14, 35249, Note_off_c, 5, 71, 64
14, 35345, Note_off_c, 5, 72, 64
14, 35355, Note_on_c, 5, 74, 78
14, 35477, Note_on_c, 5, 76, 64
14, 35485, Note_off_c, 5, 74, 64
14, 35585, Note_on_c, 5, 77, 68
14, 35611, Note_off_c, 5, 76, 64
14, 35690, Note_off_c, 5, 77, 64
14, 35690, Note_on_c, 5, 79, 61
14, 35744, Note_on_c, 5, 77, 72
14, 35768, Note_off_c, 5, 79, 64
14, 35789, Note_off_c, 5, 77, 64
14, 35793, Note_on_c, 5, 79, 52
14, 35835, Note_on_c, 5, 77, 82
14, 35861, Note_off_c, 5, 79, 64
14, 35886, Note_on_c, 5, 76, 70
14, 35899, Note_off_c, 5, 77, 64
14, 35928, Note_off_c, 5, 76, 64
14, 35935, Note_on_c, 5, 79, 93
14, 36246, Note_off_c, 5, 79, 64
14, 36306, Note_on_c, 5, 77, 80
14, 36377, Note_off_c, 5, 77, 64
14, 36437, Note_on_c, 5, 76, 91
14, 36650, Note_off_c, 5, 76, 64
14, 36690, Note_on_c, 5, 74, 74
14, 36796, Note_on_c, 5, 72, 68
14, 36827, Note_off_c, 5, 74, 64
14, 36878, Note_off_c, 5, 72, 64
14, 36935, Note_on_c, 5, 70, 82
14, 37039, Note_on_c, 5, 69, 72
14, 37046, Note_off_c, 5, 70, 64
14, 37163, Note_on_c, 5, 70, 59
14, 37183, Note_off_c, 5, 69, 64
14, 37278, Note_on_c, 5, 67, 70
14, 37283, Note_off_c, 5, 70, 64
14, 37382, Note_off_c, 5, 67, 64
14, 37416, Note_on_c, 5, 69, 82
14, 37725, Note_off_c, 5, 69, 64
14, 37785, Note_on_c, 5, 67, 82
14, 37858, Note_off_c, 5, 67, 64
14, 37916, Note_on_c, 5, 65, 89
14, 38002, Note_off_c, 5, 65, 64
14, 38150, Note_on_c, 5, 69, 85
14, 38210, Note_off_c, 5, 69, 64
14, 38392, Note_on_c, 5, 74, 74
14, 38642, Note_off_c, 5, 74, 64
14, 38738, Note_on_c, 5, 76, 82
14, 38795, Note_off_c, 5, 76, 64
14, 38870, Note_on_c, 5, 77, 82
14, 39118, Note_off_c, 5, 77, 64
14, 39211, Note_on_c, 5, 79, 68
14, 39295, Note_off_c, 5, 79, 64
14, 39352, Note_on_c, 5, 81, 82
14, 39468, Note_on_c, 5, 79, 72
14, 39499, Note_off_c, 5, 81, 64
14, 39596, Note_on_c, 5, 77, 62
14, 39634, Note_off_c, 5, 79, 64
14, 39716, Note_on_c, 5, 76, 63
14, 39751, Note_off_c, 5, 77, 64
14, 39828, Note_on_c, 5, 74, 61
14, 39833, Note_off_c, 5, 76, 64
14, 39926, Note_on_c, 5, 72, 72
14, 39944, Note_off_c, 5, 74, 64
14, 40067, Note_on_c, 5, 71, 57
14, 40072, Note_off_c, 5, 72, 64
14, 40185, Note_off_c, 5, 71, 64
14, 40191, Note_on_c, 5, 72, 78
14, 40256, Note_off_c, 5, 72, 64
14, 40317, Note_on_c, 5, 72, 80
14, 40369, Note_off_c, 5, 72, 64
14, 40373, Note_on_c, 5, 71, 78
14, 40417, Note_on_c, 5, 72, 78
14, 40426, Note_off_c, 5, 71, 64
14, 40470, Note_on_c, 5, 71, 76
14, 40490, Note_off_c, 5, 72, 64
14, 40634, Note_on_c, 5, 72, 82
14, 40635, Note_off_c, 5, 71, 64
14, 40709, Note_off_c, 5, 72, 64
14, 40754, Note_on_c, 5, 74, 74
14, 40975, Note_off_c, 5, 74, 64
14, 41012, Note_on_c, 5, 72, 76
14, 41112, Note_off_c, 5, 72, 64
14, 41120, Note_on_c, 5, 71, 66
14, 41219, Note_off_c, 5, 71, 64
14, 41252, Note_on_c, 5, 69, 72
14, 41351, Note_on_c, 5, 67, 68
14, 41371, Note_off_c, 5, 69, 64
14, 41460, Note_off_c, 5, 67, 64
14, 41478, Note_on_c, 5, 69, 64
14, 41592, Note_on_c, 5, 71, 66
14, 41593, Note_off_c, 5, 69, 64
14, 41675, Note_off_c, 5, 71, 64
14, 41734, Note_on_c, 5, 72, 87
14, 41830, Note_off_c, 5, 72, 64
14, 41838, Note_on_c, 5, 71, 82
14, 41969, Note_off_c, 5, 71, 64
14, 41969, Note_on_c, 5, 72, 78
14, 42062, Note_off_c, 5, 72, 64
14, 42080, Note_on_c, 5, 74, 76
14, 42168, Note_off_c, 5, 74, 64
14, 42214, Note_on_c, 5, 76, 89
14, 42394, Note_off_c, 5, 76, 64
14, 42558, Note_on_c, 5, 77, 76
14, 42613, Note_off_c, 5, 77, 64
14, 42688, Note_on_c, 5, 76, 85
14, 42735, Note_off_c, 5, 76, 64
14, 42735, Note_on_c, 5, 74, 80
14, 42788, Note_on_c, 5, 76, 68
14, 42790, Note_off_c, 5, 74, 64
14, 42837, Note_on_c, 5, 74, 70
14, 42857, Note_off_c, 5, 76, 64
14, 42911, Note_off_c, 5, 74, 64
14, 43071, Note_on_c, 5, 72, 72
14, 43135, Note_off_c, 5, 72, 64
14, 43188, Note_on_c, 5, 79, 85
14, 43815, Note_off_c, 5, 79, 64
14, 43919, Note_on_c, 5, 77, 66
14, 44016, Note_on_c, 5, 76, 66
14, 44017, Note_off_c, 5, 77, 64
14, 44110, Note_off_c, 5, 76, 64
14, 44149, Note_on_c, 5, 77, 82
14, 44380, Note_off_c, 5, 77, 64
14, 44494, Note_on_c, 5, 79, 78
14, 44559, Note_off_c, 5, 79, 64
14, 44618, Note_on_c, 5, 81, 85
14, 44884, Note_off_c, 5, 81, 64
14, 44968, Note_on_c, 5, 79, 72
14, 45035, Note_off_c, 5, 79, 64
14, 45097, Note_on_c, 5, 77, 80
14, 45322, Note_off_c, 5, 77, 64
14, 45345, Note_on_c, 5, 76, 66
14, 45440, Note_off_c, 5, 76, 64
14, 45446, Note_on_c, 5, 74, 78
14, 45537, Note_off_c, 5, 74, 64
14, 45581, Note_on_c, 5, 76, 80
14, 45829, Note_off_c, 5, 76, 64
14, 45913, Note_on_c, 5, 77, 72
14, 45986, Note_off_c, 5, 77, 64
14, 46048, Note_on_c, 5, 79, 85
14, 46328, Note_off_c, 5, 79, 64
14, 46398, Note_on_c, 5, 77, 72
14, 46463, Note_off_c, 5, 77, 64
14, 46529, Note_on_c, 5, 76, 78
14, 46626, Note_off_c, 5, 76, 64
14, 46637, Note_on_c, 5, 74, 68
14, 46718, Note_off_c, 5, 74, 64
14, 46766, Note_on_c, 5, 76, 78
14, 46863, Note_off_c, 5, 76, 64
14, 46879, Note_on_c, 5, 72, 80
14, 46961, Note_off_c, 5, 72, 64
14, 47012, Note_on_c, 5, 74, 78
14, 47275, Note_off_c, 5, 74, 64
14, 47361, Note_on_c, 5, 76, 72
14, 47432, Note_off_c, 5, 76, 64
14, 47496, Note_on_c, 5, 77, 93
14, 47758, Note_off_c, 5, 77, 64
14, 47850, Note_on_c, 5, 76, 68
14, 47914, Note_off_c, 5, 76, 64
14, 47974, Note_on_c, 5, 74, 82
14, 48092, Note_off_c, 5, 74, 64
14, 48096, Note_on_c, 5, 72, 64
14, 48204, Note_off_c, 5, 72, 64
14, 48213, Note_on_c, 5, 71, 60
14, 48331, Note_on_c, 5, 72, 59
14, 48349, Note_off_c, 5, 71, 64
14, 48450, Note_off_c, 5, 72, 64
14, 48466, Note_on_c, 5, 74, 70
14, 48572, Note_on_c, 5, 71, 74
14, 48587, Note_off_c, 5, 74, 64
14, 48683, Note_off_c, 5, 71, 64
14, 48688, Note_on_c, 5, 72, 63
14, 48800, Note_on_c, 5, 74, 76
14, 48816, Note_off_c, 5, 72, 64
14, 48888, Note_off_c, 5, 74, 64
14, 48935, Note_on_c, 5, 67, 68
14, 49247, Note_off_c, 5, 67, 64
14, 49305, Note_on_c, 5, 69, 63
14, 49420, Note_on_c, 5, 71, 72
14, 49435, Note_off_c, 5, 69, 64
14, 49520, Note_off_c, 5, 71, 64
14, 49531, Note_on_c, 5, 72, 70
14, 49653, Note_off_c, 5, 72, 64
14, 49655, Note_on_c, 5, 74, 58
14, 49756, Note_off_c, 5, 74, 64
14, 49778, Note_on_c, 5, 76, 76
14, 49851, Note_off_c, 5, 76, 64
14, 49896, Note_on_c, 5, 77, 85
14, 49975, Note_off_c, 5, 77, 64
14, 50007, Note_on_c, 5, 74, 82
14, 50080, Note_off_c, 5, 74, 64
14, 50137, Note_on_c, 5, 79, 93
14, 50261, Note_off_c, 5, 79, 64
14, 50378, Note_on_c, 5, 76, 85
14, 50662, Note_off_c, 5, 76, 64
14, 50725, Note_on_c, 5, 74, 82
14, 50781, Note_off_c, 5, 74, 64
14, 50854, Note_on_c, 5, 72, 87
14, 50971, Note_off_c, 5, 72, 64
14, 50972, Note_on_c, 5, 71, 78
14, 51064, Note_off_c, 5, 71, 64
14, 51096, Note_on_c, 5, 72, 82
14, 51215, Note_off_c, 5, 72, 64
14, 51219, Note_on_c, 5, 69, 78
14, 51304, Note_off_c, 5, 69, 64
14, 51354, Note_on_c, 5, 72, 68
14, 51428, Note_on_c, 5, 71, 57
14, 51434, Note_off_c, 5, 72, 64
14, 51474, Note_on_c, 5, 72, 66
14, 51481, Note_off_c, 5, 71, 64
14, 51522, Note_off_c, 5, 72, 64
14, 51523, Note_on_c, 5, 71, 64
14, 51558, Note_on_c, 5, 72, 70
14, 51565, Note_off_c, 5, 71, 64
14, 51593, Note_on_c, 5, 71, 70
14, 51620, Note_off_c, 5, 72, 64
14, 51702, Note_on_c, 5, 72, 78
14, 51707, Note_off_c, 5, 71, 64
14, 51766, Note_off_c, 5, 72, 64
14, 51824, Note_on_c, 5, 72, 70
14, 52820, Note_off_c, 5, 72, 64
14, 52820, End_track
15, 0, Start_track
15, 0, Title_t, "Bassoon"
15, 0, Program_c, 6, 70
15, 0, Control_c, 6, 7, 100
15, 24335, Note_on_c, 6, 55, 80
15, 24399, Note_off_c, 6, 55, 64
15, 24465, Note_on_c, 6, 55, 82
15, 24684, Note_off_c, 6, 55, 64
15, 24707, Note_on_c, 6, 53, 72
15, 24780, Note_off_c, 6, 53, 64
15, 24800, Note_on_c, 6, 52, 72
15, 24897, Note_off_c, 6, 52, 64
15, 24936, Note_on_c, 6, 50, 68
15, 25453, Note_off_c, 6, 50, 64
15, 25520, Note_on_c, 6, 49, 80
15, 25618, Note_off_c, 6, 49, 64
15, 25634, Note_on_c, 6, 50, 68
15, 25749, Note_off_c, 6, 50, 64
15, 25763, Note_on_c, 6, 52, 70
15, 25855, Note_off_c, 6, 52, 64
15, 25900, Note_on_c, 6, 53, 87
15, 26008, Note_on_c, 6, 55, 68
15, 26010, Note_off_c, 6, 53, 64
15, 26130, Note_on_c, 6, 53, 64
15, 26157, Note_off_c, 6, 55, 64
15, 26241, Note_off_c, 6, 53, 64
15, 26245, Note_on_c, 6, 52, 62
15, 26360, Note_off_c, 6, 52, 64
15, 26375, Note_on_c, 6, 50, 72
15, 26509, Note_off_c, 6, 50, 64
15, 26615, Note_on_c, 6, 60, 80
15, 26714, Note_off_c, 6, 60, 64
15, 26860, Note_on_c, 6, 58, 66
15, 26980, Note_off_c, 6, 58, 64
15, 27111, Note_on_c, 6, 57, 59
15, 27197, Note_off_c, 6, 57, 64
15, 27349, Note_on_c, 6, 55, 80
15, 27463, Note_on_c, 6, 53, 78
15, 27467, Note_off_c, 6, 55, 64
15, 27575, Note_off_c, 6, 53, 64
15, 27578, Note_on_c, 6, 55, 62
15, 27684, Note_off_c, 6, 55, 64
15, 27695, Note_on_c, 6, 57, 68
15, 27810, Note_off_c, 6, 57, 64
15, 27825, Note_on_c, 6, 58, 66
15, 27941, Note_off_c, 6, 58, 64
15, 28062, Note_on_c, 6, 49, 64
15, 28189, Note_off_c, 6, 49, 64
15, 28286, Note_on_c, 6, 50, 82
15, 28390, Note_off_c, 6, 50, 64
15, 28552, Note_on_c, 6, 43, 80
15, 28651, Note_off_c, 6, 43, 64
15, 28789, Note_on_c, 6, 45, 80
15, 28901, Note_off_c, 6, 45, 64
15, 29019, Note_on_c, 6, 57, 76
15, 29136, Note_off_c, 6, 57, 64
15, 29258, Note_on_c, 6, 55, 80
15, 29364, Note_off_c, 6, 55, 64
15, 29492, Note_on_c, 6, 53, 70
15, 29618, Note_off_c, 6, 53, 64
15, 29740, Note_on_c, 6, 55, 66
15, 29861, Note_off_c, 6, 55, 64
15, 29966, Note_on_c, 6, 57, 68
15, 30071, Note_off_c, 6, 57, 64
15, 30207, Note_on_c, 6, 50, 68
15, 30313, Note_off_c, 6, 50, 64
15, 30453, Note_on_c, 6, 53, 63
15, 30551, Note_off_c, 6, 53, 64
15, 30685, Note_on_c, 6, 47, 72
15, 30803, Note_off_c, 6, 47, 64
15, 30938, Note_on_c, 6, 52, 80
15, 31042, Note_on_c, 6, 53, 64
15, 31046, Note_off_c, 6, 52, 64
15, 31137, Note_off_c, 6, 53, 64
15, 31163, Note_on_c, 6, 52, 78
15, 31279, Note_on_c, 6, 50, 76
15, 31294, Note_off_c, 6, 52, 64
15, 31409, Note_off_c, 6, 50, 64
15, 31409, Note_on_c, 6, 48, 64
15, 31520, Note_on_c, 6, 47, 60
15, 31522, Note_off_c, 6, 48, 64
15, 31619, Note_off_c, 6, 47, 64
15, 31655, Note_on_c, 6, 48, 87
15, 31766, Note_off_c, 6, 48, 64
15, 31901, Note_on_c, 6, 50, 78
15, 32009, Note_off_c, 6, 50, 64
15, 32140, Note_on_c, 6, 47, 72
15, 32250, Note_off_c, 6, 47, 64
15, 32375, Note_on_c, 6, 45, 74
15, 32500, Note_off_c, 6, 45, 64
15, 32622, Note_on_c, 6, 44, 66
15, 32722, Note_off_c, 6, 44, 64
15, 32855, Note_on_c, 6, 45, 68
15, 32974, Note_off_c, 6, 45, 64
15, 33092, Note_on_c, 6, 42, 68
15, 33204, Note_off_c, 6, 42, 64
15, 33344, Note_on_c, 6, 44, 68
15, 33448, Note_off_c, 6, 44, 64
15, 33567, Note_on_c, 6, 45, 62
15, 33691, Note_off_c, 6, 45, 64
15, 33816, Note_on_c, 6, 50, 78
15, 33922, Note_off_c, 6, 50, 64
15, 34050, Note_on_c, 6, 52, 82
15, 34143, Note_off_c, 6, 52, 64
15, 34283, Note_on_c, 6, 40, 80
15, 34384, Note_off_c, 6, 40, 64
15, 34533, Note_on_c, 6, 45, 80
15, 34641, Note_on_c, 6, 44, 60
15, 34643, Note_off_c, 6, 45, 64
15, 34753, Note_off_c, 6, 44, 64
15, 34769, Note_on_c, 6, 45, 68
15, 34882, Note_on_c, 6, 47, 57
15, 34889, Note_off_c, 6, 45, 64
15, 35015, Note_off_c, 6, 47, 64
15, 35020, Note_on_c, 6, 48, 80
15, 35105, Note_off_c, 6, 48, 64
15, 35263, Note_on_c, 6, 52, 78
15, 35345, Note_off_c, 6, 52, 64
15, 35496, Note_on_c, 6, 57, 85
15, 35697, Note_off_c, 6, 57, 64
15, 35733, Note_on_c, 6, 55, 70
15, 35826, Note_off_c, 6, 55, 64
15, 35841, Note_on_c, 6, 53, 68
15, 35921, Note_off_c, 6, 53, 64
15, 35960, Note_on_c, 6, 52, 66
15, 36058, Note_off_c, 6, 52, 64
15, 36065, Note_on_c, 6, 50, 76
15, 36182, Note_off_c, 6, 50, 64
15, 36197, Note_on_c, 6, 52, 68
15, 36319, Note_off_c, 6, 52, 64
15, 36321, Note_on_c, 6, 53, 72
15, 36417, Note_off_c, 6, 53, 64
15, 36452, Note_on_c, 6, 55, 80
15, 36565, Note_off_c, 6, 55, 64
15, 36697, Note_on_c, 6, 48, 82
15, 36810, Note_off_c, 6, 48, 64
15, 36946, Note_on_c, 6, 50, 82
15, 37061, Note_off_c, 6, 50, 64
15, 37184, Note_on_c, 6, 52, 72
15, 37249, Note_off_c, 6, 52, 64
15, 37435, Note_on_c, 6, 53, 82
15, 37551, Note_on_c, 6, 52, 66
15, 37559, Note_off_c, 6, 53, 64
15, 37660, Note_off_c, 6, 52, 64
15, 37667, Note_on_c, 6, 53, 66
15, 37791, Note_on_c, 6, 55, 68
15, 37806, Note_off_c, 6, 53, 64
15, 37899, Note_off_c, 6, 55, 64
15, 37906, Note_on_c, 6, 57, 74
15, 38015, Note_on_c, 6, 58, 80
15, 38035, Note_off_c, 6, 57, 64
15, 38125, Note_on_c, 6, 57, 60
15, 38148, Note_off_c, 6, 58, 64
15, 38251, Note_on_c, 6, 55, 68
15, 38269, Note_off_c, 6, 57, 64
15, 38376, Note_on_c, 6, 53, 63
15, 38379, Note_off_c, 6, 55, 64
15, 38477, Note_on_c, 6, 52, 70
15, 38495, Note_off_c, 6, 53, 64
15, 38595, Note_off_c, 6, 52, 64
15, 38606, Note_on_c, 6, 50, 68
15, 38725, Note_on_c, 6, 49, 68
15, 38730, Note_off_c, 6, 50, 64
15, 38834, Note_off_c, 6, 49, 64
15, 38862, Note_on_c, 6, 50, 80
15, 38960, Note_off_c, 6, 50, 64
15, 39108, Note_on_c, 6, 52, 78
15, 39205, Note_off_c, 6, 52, 64
15, 39341, Note_on_c, 6, 53, 74
15, 39451, Note_off_c, 6, 53, 64
15, 39577, Note_on_c, 6, 50, 68
15, 39693, Note_off_c, 6, 50, 64
15, 39843, Note_on_c, 6, 52, 70
15, 39965, Note_off_c, 6, 52, 64
15, 40073, Note_on_c, 6, 53, 74
15, 40173, Note_off_c, 6, 53, 64
15, 40301, Note_on_c, 6, 55, 66
15, 40410, Note_off_c, 6, 55, 64
15, 40527, Note_on_c, 6, 43, 70
15, 40624, Note_off_c, 6, 43, 64
15, 40771, Note_on_c, 6, 55, 78
15, 40873, Note_off_c, 6, 55, 64
15, 41010, Note_on_c, 6, 57, 76
15, 41123, Note_off_c, 6, 57, 64
15, 41247, Note_on_c, 6, 55, 70
15, 41355, Note_off_c, 6, 55, 64
15, 41485, Note_on_c, 6, 53, 63
15, 41570, Note_off_c, 6, 53, 64
15, 41723, Note_on_c, 6, 52, 70
15, 41842, Note_off_c, 6, 52, 64
15, 41975, Note_on_c, 6, 50, 72
15, 42099, Note_off_c, 6, 50, 64
15, 42209, Note_on_c, 6, 48, 66
15, 42351, Note_off_c, 6, 48, 64
15, 42437, Note_on_c, 6, 60, 78
15, 42548, Note_off_c, 6, 60, 64
15, 42685, Note_on_c, 6, 55, 76
15, 42794, Note_off_c, 6, 55, 64
15, 42936, Note_on_c, 6, 57, 80
15, 43006, Note_off_c, 6, 57, 64
15, 43187, Note_on_c, 6, 52, 78
15, 43292, Note_on_c, 6, 50, 66
15, 43309, Note_off_c, 6, 52, 64
15, 43402, Note_off_c, 6, 50, 64
15, 43402, Note_on_c, 6, 52, 64
15, 43518, Note_on_c, 6, 53, 72
15, 43535, Note_off_c, 6, 52, 64
15, 43624, Note_off_c, 6, 53, 64
15, 43650, Note_on_c, 6, 55, 78
15, 43761, Note_on_c, 6, 57, 66
15, 43763, Note_off_c, 6, 55, 64
15, 43872, Note_off_c, 6, 57, 64
15, 43883, Note_on_c, 6, 58, 74
15, 44009, Note_off_c, 6, 58, 64
15, 44140, Note_on_c, 6, 57, 70
15, 44262, Note_off_c, 6, 57, 64
15, 44383, Note_on_c, 6, 55, 66
15, 44489, Note_off_c, 6, 55, 64
15, 44631, Note_on_c, 6, 53, 61
15, 44746, Note_off_c, 6, 53, 64
15, 44863, Note_on_c, 6, 52, 68
15, 44967, Note_off_c, 6, 52, 64
15, 45103, Note_on_c, 6, 50, 68
15, 45207, Note_off_c, 6, 50, 64
15, 45355, Note_on_c, 6, 55, 70
15, 45463, Note_on_c, 6, 57, 68
15, 45472, Note_off_c, 6, 55, 64
15, 45585, Note_on_c, 6, 55, 66
15, 45593, Note_off_c, 6, 57, 64
15, 45709, Note_off_c, 6, 55, 64
15, 45709, Note_on_c, 6, 53, 62
15, 45829, Note_off_c, 6, 53, 64
15, 45831, Note_on_c, 6, 52, 64
15, 45935, Note_off_c, 6, 52, 64
15, 45937, Note_on_c, 6, 50, 66
15, 46028, Note_off_c, 6, 50, 64
15, 46065, Note_on_c, 6, 52, 80
15, 46161, Note_off_c, 6, 52, 64
15, 46306, Note_on_c, 6, 55, 82
15, 46382, Note_off_c, 6, 55, 64
15, 46557, Note_on_c, 6, 60, 72
15, 46667, Note_on_c, 6, 59, 74
15, 46694, Note_off_c, 6, 60, 64
15, 46785, Note_on_c, 6, 57, 60
15, 46792, Note_off_c, 6, 59, 64
15, 46898, Note_on_c, 6, 55, 61
15, 46929, Note_off_c, 6, 57, 64
15, 47006, Note_on_c, 6, 53, 58
15, 47008, Note_off_c, 6, 55, 64
15, 47102, Note_on_c, 6, 52, 61
15, 47121, Note_off_c, 6, 53, 64
15, 47232, Note_on_c, 6, 50, 54
15, 47237, Note_off_c, 6, 52, 64
15, 47352, Note_off_c, 6, 50, 64
15, 47352, Note_on_c, 6, 48, 66
15, 47465, Note_off_c, 6, 48, 64
15, 47491, Note_on_c, 6, 50, 78
15, 47595, Note_off_c, 6, 50, 64
15, 47755, Note_on_c, 6, 57, 72
15, 47865, Note_on_c, 6, 55, 80
15, 47890, Note_off_c, 6, 57, 64
15, 47983, Note_on_c, 6, 53, 59
15, 48011, Note_off_c, 6, 55, 64
15, 48111, Note_on_c, 6, 52, 66
15, 48138, Note_off_c, 6, 53, 64
15, 48226, Note_on_c, 6, 50, 68
15, 48233, Note_off_c, 6, 52, 64
15, 48328, Note_on_c, 6, 48, 57
15, 48330, Note_off_c, 6, 50, 64
15, 48447, Note_on_c, 6, 47, 61
15, 48483, Note_off_c, 6, 48, 64
15, 48574, Note_on_c, 6, 45, 64
15, 48589, Note_off_c, 6, 47, 64
15, 48688, Note_on_c, 6, 43, 56
15, 48708, Note_off_c, 6, 45, 64
15, 48810, Note_on_c, 6, 41, 80
15, 48846, Note_off_c, 6, 43, 64
15, 48864, Note_off_c, 6, 41, 64
15, 48956, Note_on_c, 6, 53, 78
15, 49521, Note_off_c, 6, 53, 64
15, 49669, Note_on_c, 6, 47, 78
15, 49762, Note_off_c, 6, 47, 64
15, 49904, Note_on_c, 6, 43, 64
15, 50010, Note_off_c, 6, 43, 64
15, 50145, Note_on_c, 6, 47, 76
15, 50260, Note_off_c, 6, 47, 64
15, 50366, Note_on_c, 6, 48, 60
15, 50484, Note_off_c, 6, 48, 64
15, 50619, Note_on_c, 6, 43, 68
15, 50725, Note_off_c, 6, 43, 64
15, 50864, Note_on_c, 6, 45, 76
15, 50968, Note_off_c, 6, 45, 64
15, 51104, Note_on_c, 6, 41, 70
15, 51192, Note_off_c, 6, 41, 64
15, 51345, Note_on_c, 6, 43, 66
15, 51662, Note_off_c, 6, 43, 64
15, 51838, Note_on_c, 6, 36, 68
15, 52823, Note_off_c, 6, 36, 64
15, 52823, End_track
0, 0, End_of_file
