0, 0, Header, 1, 17, 480
1, 0, Start_track
1, 0, Title_t, "untitled"
1, 0, SMPTE_offset, 96, 0, 3, 0, 0
1, 0, Time_signature, 3, 2, 24, 8
1, 0, Key_signature, -1, "major"
1, 0, Tempo, 1090909
1, 0, Marker_t, "A"
1, 10080, Marker_t, "*"
1, 17280, Marker_t, "A'"
1, 34560, Marker_t, "B"
1, 49440, Marker_t, "*"
1, 57600, Marker_t, "B'"
1, 79680, Tempo, 2222222
1, 79680, End_track
2, 0, Start_track
2, 0, MIDI_port, 0
2, 0, Title_t, "Solo Cello"
2, 0, Program_c, 0, 42
2, 0, Control_c, 0, 7, 100
2, 0, Control_c, 0, 10, 69
2, 0, Note_on_c, 0, 50, 100
2, 360, Note_on_c, 0, 50, 0
2, 360, Note_on_c, 0, 52, 100
2, 480, Note_on_c, 0, 52, 0
2, 480, Note_on_c, 0, 52, 100
2, 480, Pitch_bend_c, 0, 12288
2, 520, Pitch_bend_c, 0, 8192
2, 560, Pitch_bend_c, 0, 12288
2, 600, Pitch_bend_c, 0, 8192
2, 1192, Note_on_c, 0, 50, 100
2, 1200, Note_on_c, 0, 52, 0
2, 1312, Note_on_c, 0, 50, 0
2, 1316, Note_on_c, 0, 52, 100
2, 1436, Note_on_c, 0, 52, 0
2, 1440, Note_on_c, 0, 53, 100
2, 2160, Note_on_c, 0, 53, 0
2, 2160, Note_on_c, 0, 52, 100
2, 2400, Note_on_c, 0, 52, 0
2, 2400, Note_on_c, 0, 50, 100
2, 2640, Note_on_c, 0, 50, 0
2, 2640, Note_on_c, 0, 48, 100
2, 2880, Note_on_c, 0, 48, 0
2, 2880, Note_on_c, 0, 46, 100
2, 3120, Note_on_c, 0, 46, 0
2, 3120, Note_on_c, 0, 55, 100
2, 3360, Note_on_c, 0, 55, 0
2, 3360, Note_on_c, 0, 53, 100
2, 3600, Note_on_c, 0, 53, 0
2, 3600, Note_on_c, 0, 52, 100
2, 3720, Note_on_c, 0, 52, 0
2, 3720, Note_on_c, 0, 53, 100
2, 3840, Note_on_c, 0, 53, 0
2, 3840, Note_on_c, 0, 55, 100
2, 3960, Note_on_c, 0, 55, 0
2, 3960, Note_on_c, 0, 57, 100
2, 4080, Note_on_c, 0, 57, 0
2, 4080, Note_on_c, 0, 58, 100
2, 4200, Note_on_c, 0, 58, 0
2, 4200, Note_on_c, 0, 50, 100
2, 4320, Note_on_c, 0, 50, 0
2, 4320, Pitch_bend_c, 0, 12288
2, 4320, Note_on_c, 0, 49, 100
2, 4360, Pitch_bend_c, 0, 8192
2, 4400, Pitch_bend_c, 0, 12288
2, 4440, Pitch_bend_c, 0, 8192
2, 5040, Note_on_c, 0, 49, 0
2, 5040, Note_on_c, 0, 47, 100
2, 5280, Note_on_c, 0, 47, 0
2, 5280, Note_on_c, 0, 45, 100
2, 5520, Note_on_c, 0, 45, 0
2, 5520, Note_on_c, 0, 43, 100
2, 5760, Note_on_c, 0, 43, 0
2, 5760, Note_on_c, 0, 50, 100
2, 6120, Note_on_c, 0, 50, 0
2, 6120, Note_on_c, 0, 52, 100
2, 6240, Note_on_c, 0, 52, 0
2, 6240, Note_on_c, 0, 52, 100
2, 6240, Pitch_bend_c, 0, 12288
2, 6280, Pitch_bend_c, 0, 8192
2, 6320, Pitch_bend_c, 0, 12288
2, 6360, Pitch_bend_c, 0, 8192
2, 6960, Note_on_c, 0, 52, 0
2, 6960, Note_on_c, 0, 50, 100
2, 7080, Note_on_c, 0, 50, 0
2, 7080, Note_on_c, 0, 52, 100
2, 7200, Note_on_c, 0, 52, 0
2, 7200, Note_on_c, 0, 53, 100
2, 7920, Note_on_c, 0, 53, 0
2, 7920, Note_on_c, 0, 50, 100
2, 8160, Note_on_c, 0, 50, 0
2, 8160, Note_on_c, 0, 52, 100
2, 8400, Note_on_c, 0, 52, 0
2, 8400, Note_on_c, 0, 53, 100
2, 8640, Note_on_c, 0, 53, 0
2, 8640, Note_on_c, 0, 55, 100
2, 8880, Note_on_c, 0, 55, 0
2, 8880, Note_on_c, 0, 58, 100
2, 9000, Note_on_c, 0, 58, 0
2, 9000, Note_on_c, 0, 57, 100
2, 9120, Note_on_c, 0, 57, 0
2, 9120, Note_on_c, 0, 60, 100
2, 9240, Note_on_c, 0, 60, 0
2, 9240, Note_on_c, 0, 58, 100
2, 9360, Note_on_c, 0, 58, 0
2, 9360, Note_on_c, 0, 57, 100
2, 9480, Note_on_c, 0, 57, 0
2, 9480, Note_on_c, 0, 55, 100
2, 9600, Note_on_c, 0, 55, 0
2, 9600, Note_on_c, 0, 62, 100
2, 9840, Note_on_c, 0, 62, 0
2, 9840, Note_on_c, 0, 53, 100
2, 10080, Note_on_c, 0, 53, 0
2, 10080, Note_on_c, 0, 52, 100
2, 10080, Pitch_bend_c, 0, 12288
2, 10120, Pitch_bend_c, 0, 8192
2, 10160, Pitch_bend_c, 0, 12288
2, 10200, Pitch_bend_c, 0, 8192
2, 10800, Note_on_c, 0, 52, 0
2, 10800, Note_on_c, 0, 50, 100
2, 11040, Note_on_c, 0, 50, 0
2, 11040, Note_on_c, 0, 48, 100
2, 11280, Note_on_c, 0, 48, 0
2, 11280, Note_on_c, 0, 46, 100
2, 11520, Note_on_c, 0, 46, 0
2, 11520, Note_on_c, 0, 45, 100
2, 12000, Note_on_c, 0, 45, 0
2, 12000, Note_on_c, 0, 50, 100
2, 12720, Note_on_c, 0, 50, 0
2, 12720, Note_on_c, 0, 55, 100
2, 12840, Note_on_c, 0, 55, 0
2, 12840, Note_on_c, 0, 53, 100
2, 12960, Note_on_c, 0, 53, 0
2, 12960, Note_on_c, 0, 55, 100
2, 13200, Note_on_c, 0, 55, 0
2, 13200, Note_on_c, 0, 57, 100
2, 13320, Note_on_c, 0, 57, 0
2, 13320, Note_on_c, 0, 58, 100
2, 13440, Note_on_c, 0, 58, 0
2, 13440, Note_on_c, 0, 58, 100
2, 14160, Note_on_c, 0, 58, 0
2, 14160, Note_on_c, 0, 60, 100
2, 14280, Note_on_c, 0, 60, 0
2, 14280, Note_on_c, 0, 62, 100
2, 14400, Note_on_c, 0, 62, 0
2, 14400, Note_on_c, 0, 52, 100
2, 14640, Note_on_c, 0, 52, 0
2, 14640, Note_on_c, 0, 53, 100
2, 14880, Note_on_c, 0, 53, 0
2, 14880, Note_on_c, 0, 36, 100
2, 15120, Note_on_c, 0, 36, 0
2, 15120, Note_on_c, 0, 43, 100
2, 15360, Note_on_c, 0, 43, 0
2, 15360, Note_on_c, 0, 53, 100
2, 15600, Note_on_c, 0, 53, 0
2, 15600, Note_on_c, 0, 52, 100
2, 15840, Note_on_c, 0, 52, 0
2, 15840, Note_on_c, 0, 53, 100
2, 16320, Note_on_c, 0, 53, 0
2, 16320, Note_on_c, 0, 41, 100
2, 17280, Note_on_c, 0, 41, 0
2, 17280, Note_on_c, 0, 50, 100
2, 17640, Note_on_c, 0, 50, 0
2, 17640, Note_on_c, 0, 52, 100
2, 17760, Note_on_c, 0, 52, 0
2, 17760, Note_on_c, 0, 52, 100
2, 17760, Pitch_bend_c, 0, 12288
2, 17800, Pitch_bend_c, 0, 8192
2, 17840, Pitch_bend_c, 0, 12288
2, 17880, Pitch_bend_c, 0, 8192
2, 18472, Note_on_c, 0, 50, 100
2, 18480, Note_on_c, 0, 52, 0
2, 18592, Note_on_c, 0, 50, 0
2, 18596, Note_on_c, 0, 52, 100
2, 18716, Note_on_c, 0, 52, 0
2, 18720, Note_on_c, 0, 53, 100
2, 19440, Note_on_c, 0, 53, 0
2, 19440, Note_on_c, 0, 52, 100
2, 19680, Note_on_c, 0, 52, 0
2, 19680, Note_on_c, 0, 50, 100
2, 19920, Note_on_c, 0, 50, 0
2, 19920, Note_on_c, 0, 48, 100
2, 20160, Note_on_c, 0, 48, 0
2, 20160, Note_on_c, 0, 46, 100
2, 20400, Note_on_c, 0, 46, 0
2, 20400, Note_on_c, 0, 55, 100
2, 20640, Note_on_c, 0, 55, 0
2, 20640, Note_on_c, 0, 53, 100
2, 20880, Note_on_c, 0, 53, 0
2, 20880, Note_on_c, 0, 52, 100
2, 21000, Note_on_c, 0, 52, 0
2, 21000, Note_on_c, 0, 53, 100
2, 21120, Note_on_c, 0, 53, 0
2, 21120, Note_on_c, 0, 55, 100
2, 21240, Note_on_c, 0, 55, 0
2, 21240, Note_on_c, 0, 57, 100
2, 21360, Note_on_c, 0, 57, 0
2, 21360, Note_on_c, 0, 58, 100
2, 21480, Note_on_c, 0, 58, 0
2, 21480, Note_on_c, 0, 50, 100
2, 21600, Note_on_c, 0, 50, 0
2, 21600, Pitch_bend_c, 0, 12288
2, 21600, Note_on_c, 0, 49, 100
2, 21640, Pitch_bend_c, 0, 8192
2, 21680, Pitch_bend_c, 0, 12288
2, 21720, Pitch_bend_c, 0, 8192
2, 22320, Note_on_c, 0, 49, 0
2, 22320, Note_on_c, 0, 47, 100
2, 22560, Note_on_c, 0, 47, 0
2, 22560, Note_on_c, 0, 45, 100
2, 22800, Note_on_c, 0, 45, 0
2, 22800, Note_on_c, 0, 43, 100
2, 23040, Note_on_c, 0, 43, 0
2, 23040, Note_on_c, 0, 50, 100
2, 23400, Note_on_c, 0, 50, 0
2, 23400, Note_on_c, 0, 52, 100
2, 23520, Note_on_c, 0, 52, 0
2, 23520, Note_on_c, 0, 52, 100
2, 23520, Pitch_bend_c, 0, 12288
2, 23560, Pitch_bend_c, 0, 8192
2, 23600, Pitch_bend_c, 0, 12288
2, 23640, Pitch_bend_c, 0, 8192
2, 24240, Note_on_c, 0, 52, 0
2, 24240, Note_on_c, 0, 50, 100
2, 24360, Note_on_c, 0, 50, 0
2, 24360, Note_on_c, 0, 52, 100
2, 24480, Note_on_c, 0, 52, 0
2, 24480, Note_on_c, 0, 53, 100
2, 25200, Note_on_c, 0, 53, 0
2, 25200, Note_on_c, 0, 50, 100
2, 25440, Note_on_c, 0, 50, 0
2, 25440, Note_on_c, 0, 52, 100
2, 25680, Note_on_c, 0, 52, 0
2, 25680, Note_on_c, 0, 53, 100
2, 25920, Note_on_c, 0, 53, 0
2, 25920, Note_on_c, 0, 55, 100
2, 26160, Note_on_c, 0, 55, 0
2, 26160, Note_on_c, 0, 58, 100
2, 26280, Note_on_c, 0, 58, 0
2, 26280, Note_on_c, 0, 57, 100
2, 26400, Note_on_c, 0, 57, 0
2, 26400, Note_on_c, 0, 60, 100
2, 26520, Note_on_c, 0, 60, 0
2, 26520, Note_on_c, 0, 58, 100
2, 26640, Note_on_c, 0, 58, 0
2, 26640, Note_on_c, 0, 57, 100
2, 26760, Note_on_c, 0, 57, 0
2, 26760, Note_on_c, 0, 55, 100
2, 26880, Note_on_c, 0, 55, 0
2, 26880, Note_on_c, 0, 62, 100
2, 27120, Note_on_c, 0, 62, 0
2, 27120, Note_on_c, 0, 53, 100
2, 27360, Note_on_c, 0, 53, 0
2, 27360, Note_on_c, 0, 52, 100
2, 27360, Pitch_bend_c, 0, 12288
2, 27400, Pitch_bend_c, 0, 8192
2, 27440, Pitch_bend_c, 0, 12288
2, 27480, Pitch_bend_c, 0, 8192
2, 28080, Note_on_c, 0, 52, 0
2, 28080, Note_on_c, 0, 50, 100
2, 28320, Note_on_c, 0, 50, 0
2, 28320, Note_on_c, 0, 48, 100
2, 28560, Note_on_c, 0, 48, 0
2, 28560, Note_on_c, 0, 46, 100
2, 28800, Note_on_c, 0, 46, 0
2, 28800, Note_on_c, 0, 45, 100
2, 29280, Note_on_c, 0, 45, 0
2, 29280, Note_on_c, 0, 50, 100
2, 30000, Note_on_c, 0, 50, 0
2, 30000, Note_on_c, 0, 55, 100
2, 30120, Note_on_c, 0, 55, 0
2, 30120, Note_on_c, 0, 53, 100
2, 30240, Note_on_c, 0, 53, 0
2, 30240, Note_on_c, 0, 55, 100
2, 30480, Note_on_c, 0, 55, 0
2, 30480, Note_on_c, 0, 57, 100
2, 30600, Note_on_c, 0, 57, 0
2, 30600, Note_on_c, 0, 58, 100
2, 30720, Note_on_c, 0, 58, 0
2, 30720, Note_on_c, 0, 58, 100
2, 31440, Note_on_c, 0, 58, 0
2, 31440, Note_on_c, 0, 60, 100
2, 31560, Note_on_c, 0, 60, 0
2, 31560, Note_on_c, 0, 62, 100
2, 31680, Note_on_c, 0, 62, 0
2, 31680, Note_on_c, 0, 52, 100
2, 31920, Note_on_c, 0, 52, 0
2, 31920, Note_on_c, 0, 53, 100
2, 32160, Note_on_c, 0, 53, 0
2, 32160, Note_on_c, 0, 36, 100
2, 32400, Note_on_c, 0, 36, 0
2, 32400, Note_on_c, 0, 43, 100
2, 32640, Note_on_c, 0, 43, 0
2, 32640, Note_on_c, 0, 53, 100
2, 32880, Note_on_c, 0, 53, 0
2, 32880, Note_on_c, 0, 52, 100
2, 33120, Note_on_c, 0, 52, 0
2, 33120, Note_on_c, 0, 53, 100
2, 33600, Note_on_c, 0, 53, 0
2, 33600, Note_on_c, 0, 41, 100
2, 34560, Note_on_c, 0, 41, 0
2, 34560, Note_on_c, 0, 57, 100
2, 35040, Note_on_c, 0, 57, 0
2, 35040, Note_on_c, 0, 57, 100
2, 35040, Pitch_bend_c, 0, 12288
2, 35080, Pitch_bend_c, 0, 8192
2, 35120, Pitch_bend_c, 0, 12288
2, 35160, Pitch_bend_c, 0, 8192
2, 35760, Note_on_c, 0, 57, 0
2, 35760, Note_on_c, 0, 58, 100
2, 36000, Note_on_c, 0, 58, 0
2, 36000, Note_on_c, 0, 60, 100
2, 36240, Note_on_c, 0, 60, 0
2, 36240, Note_on_c, 0, 58, 100
2, 36360, Note_on_c, 0, 58, 0
2, 36360, Note_on_c, 0, 55, 100
2, 36480, Note_on_c, 0, 55, 0
2, 36480, Note_on_c, 0, 54, 100
2, 36480, Pitch_bend_c, 0, 12288
2, 36520, Pitch_bend_c, 0, 8192
2, 36560, Pitch_bend_c, 0, 12288
2, 36600, Pitch_bend_c, 0, 8192
2, 36840, Note_on_c, 0, 54, 0
2, 36840, Note_on_c, 0, 51, 100
2, 36960, Note_on_c, 0, 51, 0
2, 36960, Note_on_c, 0, 50, 100
2, 37200, Note_on_c, 0, 50, 0
2, 37200, Note_on_c, 0, 48, 100
2, 37440, Note_on_c, 0, 48, 0
2, 37440, Note_on_c, 0, 46, 100
2, 37680, Note_on_c, 0, 46, 0
2, 37680, Note_on_c, 0, 55, 100
2, 37920, Note_on_c, 0, 55, 0
2, 37920, Note_on_c, 0, 45, 100
2, 38160, Note_on_c, 0, 45, 0
2, 38160, Note_on_c, 0, 54, 100
2, 38400, Note_on_c, 0, 54, 0
2, 38400, Note_on_c, 0, 63, 100
2, 38640, Note_on_c, 0, 63, 0
2, 38640, Note_on_c, 0, 62, 100
2, 38880, Note_on_c, 0, 62, 0
2, 38880, Note_on_c, 0, 58, 100
2, 38880, Pitch_bend_c, 0, 16383
2, 38920, Pitch_bend_c, 0, 8192
2, 38960, Pitch_bend_c, 0, 16383
2, 39000, Pitch_bend_c, 0, 8192
2, 39600, Note_on_c, 0, 58, 0
2, 39600, Note_on_c, 0, 57, 100
2, 39840, Note_on_c, 0, 57, 0
2, 39840, Note_on_c, 0, 55, 100
2, 40080, Note_on_c, 0, 55, 0
2, 40080, Note_on_c, 0, 53, 100
2, 40320, Note_on_c, 0, 53, 0
2, 40320, Note_on_c, 0, 52, 100
2, 40560, Note_on_c, 0, 52, 0
2, 40560, Note_on_c, 0, 46, 100
2, 40800, Note_on_c, 0, 46, 0
2, 40800, Note_on_c, 0, 45, 100
2, 41040, Note_on_c, 0, 45, 0
2, 41040, Note_on_c, 0, 53, 100
2, 41280, Note_on_c, 0, 53, 0
2, 41280, Note_on_c, 0, 55, 100
2, 41520, Note_on_c, 0, 55, 0
2, 41520, Note_on_c, 0, 57, 100
2, 41760, Note_on_c, 0, 57, 0
2, 41760, Note_on_c, 0, 50, 100
2, 42000, Note_on_c, 0, 50, 0
2, 42000, Note_on_c, 0, 44, 100
2, 42240, Note_on_c, 0, 44, 0
2, 42240, Note_on_c, 0, 43, 100
2, 42480, Note_on_c, 0, 43, 0
2, 42480, Note_on_c, 0, 51, 100
2, 42720, Note_on_c, 0, 51, 0
2, 42720, Note_on_c, 0, 53, 100
2, 42960, Note_on_c, 0, 53, 0
2, 42960, Note_on_c, 0, 55, 100
2, 43200, Note_on_c, 0, 55, 0
2, 43200, Note_on_c, 0, 49, 100
2, 43440, Note_on_c, 0, 49, 0
2, 43440, Note_on_c, 0, 58, 100
2, 43680, Note_on_c, 0, 58, 0
2, 43680, Note_on_c, 0, 57, 100
2, 43920, Note_on_c, 0, 57, 0
2, 43920, Note_on_c, 0, 55, 100
2, 44040, Note_on_c, 0, 55, 0
2, 44040, Note_on_c, 0, 53, 100
2, 44160, Note_on_c, 0, 53, 0
2, 44160, Note_on_c, 0, 52, 100
2, 44400, Note_on_c, 0, 52, 0
2, 44400, Note_on_c, 0, 53, 100
2, 44520, Note_on_c, 0, 53, 0
2, 44520, Note_on_c, 0, 50, 100
2, 44640, Note_on_c, 0, 50, 0
2, 44640, Note_on_c, 0, 49, 100
2, 44880, Note_on_c, 0, 49, 0
2, 44880, Note_on_c, 0, 52, 100
2, 45000, Note_on_c, 0, 52, 0
2, 45000, Note_on_c, 0, 57, 100
2, 45120, Note_on_c, 0, 57, 0
2, 45120, Note_on_c, 0, 45, 100
2, 45480, Note_on_c, 0, 45, 0
2, 45480, Note_on_c, 0, 55, 100
2, 45600, Note_on_c, 0, 55, 0
2, 45600, Note_on_c, 0, 53, 100
2, 45840, Note_on_c, 0, 53, 0
2, 45840, Note_on_c, 0, 52, 100
2, 46080, Note_on_c, 0, 52, 0
2, 46080, Note_on_c, 0, 50, 100
2, 46320, Note_on_c, 0, 50, 0
2, 46320, Note_on_c, 0, 52, 100
2, 46440, Note_on_c, 0, 52, 0
2, 46440, Note_on_c, 0, 53, 100
2, 46560, Note_on_c, 0, 53, 0
2, 46560, Note_on_c, 0, 53, 100
2, 47280, Note_on_c, 0, 53, 0
2, 47280, Note_on_c, 0, 52, 100
2, 47400, Note_on_c, 0, 52, 0
2, 47400, Note_on_c, 0, 50, 100
2, 47520, Note_on_c, 0, 50, 0
2, 47520, Note_on_c, 0, 52, 100
2, 47760, Note_on_c, 0, 52, 0
2, 47760, Note_on_c, 0, 53, 100
2, 47880, Note_on_c, 0, 53, 0
2, 47880, Note_on_c, 0, 55, 100
2, 48000, Note_on_c, 0, 55, 0
2, 48000, Note_on_c, 0, 55, 100
2, 48720, Note_on_c, 0, 55, 0
2, 48720, Note_on_c, 0, 57, 100
2, 48840, Note_on_c, 0, 57, 0
2, 48840, Note_on_c, 0, 58, 100
2, 48960, Note_on_c, 0, 58, 0
2, 48960, Note_on_c, 0, 57, 100
2, 49200, Note_on_c, 0, 57, 0
2, 49200, Note_on_c, 0, 61, 100
2, 49320, Note_on_c, 0, 61, 0
2, 49320, Note_on_c, 0, 62, 100
2, 49440, Note_on_c, 0, 62, 0
2, 49440, Note_on_c, 0, 50, 100
2, 49560, Note_on_c, 0, 50, 0
2, 49560, Note_on_c, 0, 52, 100
2, 49680, Note_on_c, 0, 52, 0
2, 49680, Note_on_c, 0, 53, 100
2, 49800, Note_on_c, 0, 53, 0
2, 49800, Note_on_c, 0, 55, 100
2, 49920, Note_on_c, 0, 55, 0
2, 49920, Note_on_c, 0, 53, 100
2, 49920, Pitch_bend_c, 0, 16383
2, 49960, Pitch_bend_c, 0, 8192
2, 50000, Pitch_bend_c, 0, 16383
2, 50040, Pitch_bend_c, 0, 8192
2, 50160, Note_on_c, 0, 53, 0
2, 50160, Note_on_c, 0, 52, 100
2, 50280, Note_on_c, 0, 52, 0
2, 50280, Note_on_c, 0, 50, 100
2, 50400, Note_on_c, 0, 50, 0
2, 50400, Note_on_c, 0, 50, 100
2, 50880, Note_on_c, 0, 50, 0
2, 50880, Note_on_c, 0, 38, 100
2, 51000, Note_on_c, 0, 38, 0
2, 51000, Note_on_c, 0, 45, 100
2, 51120, Note_on_c, 0, 45, 0
2, 51120, Note_on_c, 0, 47, 100
2, 51240, Note_on_c, 0, 47, 0
2, 51240, Note_on_c, 0, 49, 100
2, 51360, Note_on_c, 0, 49, 0
2, 51360, Note_on_c, 0, 50, 100
2, 51480, Note_on_c, 0, 50, 0
2, 51480, Note_on_c, 0, 52, 100
2, 51600, Note_on_c, 0, 52, 0
2, 51600, Note_on_c, 0, 53, 100
2, 51720, Note_on_c, 0, 53, 0
2, 51720, Note_on_c, 0, 55, 100
2, 51840, Note_on_c, 0, 55, 0
2, 51840, Note_on_c, 0, 57, 100
2, 51960, Note_on_c, 0, 57, 0
2, 51960, Note_on_c, 0, 59, 100
2, 52080, Note_on_c, 0, 59, 0
2, 52080, Note_on_c, 0, 60, 100
2, 52200, Note_on_c, 0, 60, 0
2, 52200, Note_on_c, 0, 59, 100
2, 52320, Note_on_c, 0, 59, 0
2, 52320, Note_on_c, 0, 60, 100
2, 53040, Note_on_c, 0, 60, 0
2, 53040, Note_on_c, 0, 59, 100
2, 53160, Note_on_c, 0, 59, 0
2, 53160, Note_on_c, 0, 57, 100
2, 53280, Note_on_c, 0, 57, 0
2, 53280, Note_on_c, 0, 59, 100
2, 53400, Note_on_c, 0, 59, 0
2, 53400, Note_on_c, 0, 61, 100
2, 53520, Note_on_c, 0, 61, 0
2, 53520, Note_on_c, 0, 62, 100
2, 53640, Note_on_c, 0, 62, 0
2, 53640, Note_on_c, 0, 61, 100
2, 53760, Note_on_c, 0, 61, 0
2, 53760, Note_on_c, 0, 62, 100
2, 54480, Note_on_c, 0, 62, 0
2, 54480, Note_on_c, 0, 64, 100
2, 54600, Note_on_c, 0, 64, 0
2, 54600, Note_on_c, 0, 65, 100
2, 54720, Note_on_c, 0, 65, 0
2, 54720, Note_on_c, 0, 62, 100
2, 54840, Note_on_c, 0, 62, 0
2, 54840, Note_on_c, 0, 61, 100
2, 54960, Note_on_c, 0, 61, 0
2, 54960, Note_on_c, 0, 62, 100
2, 55080, Note_on_c, 0, 62, 0
2, 55080, Note_on_c, 0, 53, 100
2, 55200, Note_on_c, 0, 53, 0
2, 55200, Note_on_c, 0, 45, 100
2, 55440, Note_on_c, 0, 45, 0
2, 55440, Note_on_c, 0, 52, 100
2, 55680, Note_on_c, 0, 52, 0
2, 55680, Note_on_c, 0, 62, 100
2, 55920, Note_on_c, 0, 62, 0
2, 55920, Note_on_c, 0, 61, 100
2, 56160, Note_on_c, 0, 61, 0
2, 56160, Note_on_c, 0, 62, 100
2, 56640, Note_on_c, 0, 62, 0
2, 56640, Note_on_c, 0, 38, 100
2, 57600, Note_on_c, 0, 38, 0
2, 57600, Note_on_c, 0, 57, 100
2, 58080, Note_on_c, 0, 57, 0
2, 58080, Note_on_c, 0, 57, 100
2, 58080, Pitch_bend_c, 0, 12288
2, 58120, Pitch_bend_c, 0, 8192
2, 58160, Pitch_bend_c, 0, 12288
2, 58200, Pitch_bend_c, 0, 8192
2, 58800, Note_on_c, 0, 57, 0
2, 58800, Note_on_c, 0, 58, 100
2, 59040, Note_on_c, 0, 58, 0
2, 59040, Note_on_c, 0, 60, 100
2, 59280, Note_on_c, 0, 60, 0
2, 59280, Note_on_c, 0, 58, 100
2, 59400, Note_on_c, 0, 58, 0
2, 59400, Note_on_c, 0, 55, 100
2, 59520, Note_on_c, 0, 55, 0
2, 59520, Note_on_c, 0, 54, 100
2, 59520, Pitch_bend_c, 0, 12288
2, 59560, Pitch_bend_c, 0, 8192
2, 59600, Pitch_bend_c, 0, 12288
2, 59640, Pitch_bend_c, 0, 8192
2, 59880, Note_on_c, 0, 54, 0
2, 59880, Note_on_c, 0, 51, 100
2, 60000, Note_on_c, 0, 51, 0
2, 60000, Note_on_c, 0, 50, 100
2, 60240, Note_on_c, 0, 50, 0
2, 60240, Note_on_c, 0, 48, 100
2, 60480, Note_on_c, 0, 48, 0
2, 60480, Note_on_c, 0, 46, 100
2, 60720, Note_on_c, 0, 46, 0
2, 60720, Note_on_c, 0, 55, 100
2, 60960, Note_on_c, 0, 55, 0
2, 60960, Note_on_c, 0, 45, 100
2, 61200, Note_on_c, 0, 45, 0
2, 61200, Note_on_c, 0, 54, 100
2, 61440, Note_on_c, 0, 54, 0
2, 61440, Note_on_c, 0, 63, 100
2, 61680, Note_on_c, 0, 63, 0
2, 61680, Note_on_c, 0, 62, 100
2, 61920, Note_on_c, 0, 62, 0
2, 61920, Note_on_c, 0, 58, 100
2, 61920, Pitch_bend_c, 0, 16383
2, 61960, Pitch_bend_c, 0, 8192
2, 62000, Pitch_bend_c, 0, 16383
2, 62040, Pitch_bend_c, 0, 8192
2, 62640, Note_on_c, 0, 58, 0
2, 62640, Note_on_c, 0, 57, 100
2, 62880, Note_on_c, 0, 57, 0
2, 62880, Note_on_c, 0, 55, 100
2, 63120, Note_on_c, 0, 55, 0
2, 63120, Note_on_c, 0, 53, 100
2, 63360, Note_on_c, 0, 53, 0
2, 63360, Note_on_c, 0, 52, 100
2, 63600, Note_on_c, 0, 52, 0
2, 63600, Note_on_c, 0, 46, 100
2, 63840, Note_on_c, 0, 46, 0
2, 63840, Note_on_c, 0, 45, 100
2, 64080, Note_on_c, 0, 45, 0
2, 64080, Note_on_c, 0, 53, 100
2, 64320, Note_on_c, 0, 53, 0
2, 64320, Note_on_c, 0, 55, 100
2, 64560, Note_on_c, 0, 55, 0
2, 64560, Note_on_c, 0, 57, 100
2, 64800, Note_on_c, 0, 57, 0
2, 64800, Note_on_c, 0, 50, 100
2, 65040, Note_on_c, 0, 50, 0
2, 65040, Note_on_c, 0, 44, 100
2, 65280, Note_on_c, 0, 44, 0
2, 65280, Note_on_c, 0, 43, 100
2, 65520, Note_on_c, 0, 43, 0
2, 65520, Note_on_c, 0, 51, 100
2, 65760, Note_on_c, 0, 51, 0
2, 65760, Note_on_c, 0, 53, 100
2, 66000, Note_on_c, 0, 53, 0
2, 66000, Note_on_c, 0, 55, 100
2, 66240, Note_on_c, 0, 55, 0
2, 66240, Note_on_c, 0, 49, 100
2, 66480, Note_on_c, 0, 49, 0
2, 66480, Note_on_c, 0, 58, 100
2, 66720, Note_on_c, 0, 58, 0
2, 66720, Note_on_c, 0, 57, 100
2, 66960, Note_on_c, 0, 57, 0
2, 66960, Note_on_c, 0, 55, 100
2, 67080, Note_on_c, 0, 55, 0
2, 67080, Note_on_c, 0, 53, 100
2, 67200, Note_on_c, 0, 53, 0
2, 67200, Note_on_c, 0, 52, 100
2, 67440, Note_on_c, 0, 52, 0
2, 67440, Note_on_c, 0, 53, 100
2, 67560, Note_on_c, 0, 53, 0
2, 67560, Note_on_c, 0, 50, 100
2, 67680, Note_on_c, 0, 50, 0
2, 67680, Note_on_c, 0, 49, 100
2, 67920, Note_on_c, 0, 49, 0
2, 67920, Note_on_c, 0, 52, 100
2, 68040, Note_on_c, 0, 52, 0
2, 68040, Note_on_c, 0, 57, 100
2, 68160, Note_on_c, 0, 57, 0
2, 68160, Note_on_c, 0, 45, 100
2, 68520, Note_on_c, 0, 45, 0
2, 68520, Note_on_c, 0, 55, 100
2, 68640, Note_on_c, 0, 55, 0
2, 68640, Note_on_c, 0, 53, 100
2, 68880, Note_on_c, 0, 53, 0
2, 68880, Note_on_c, 0, 52, 100
2, 69120, Note_on_c, 0, 52, 0
2, 69120, Note_on_c, 0, 50, 100
2, 69360, Note_on_c, 0, 50, 0
2, 69360, Note_on_c, 0, 52, 100
2, 69480, Note_on_c, 0, 52, 0
2, 69480, Note_on_c, 0, 53, 100
2, 69600, Note_on_c, 0, 53, 0
2, 69600, Note_on_c, 0, 53, 100
2, 70320, Note_on_c, 0, 53, 0
2, 70320, Note_on_c, 0, 52, 100
2, 70440, Note_on_c, 0, 52, 0
2, 70440, Note_on_c, 0, 50, 100
2, 70560, Note_on_c, 0, 50, 0
2, 70560, Note_on_c, 0, 52, 100
2, 70800, Note_on_c, 0, 52, 0
2, 70800, Note_on_c, 0, 53, 100
2, 70920, Note_on_c, 0, 53, 0
2, 70920, Note_on_c, 0, 55, 100
2, 71040, Note_on_c, 0, 55, 0
2, 71040, Note_on_c, 0, 55, 100
2, 71760, Note_on_c, 0, 55, 0
2, 71760, Note_on_c, 0, 57, 100
2, 71880, Note_on_c, 0, 57, 0
2, 71880, Note_on_c, 0, 58, 100
2, 72000, Note_on_c, 0, 58, 0
2, 72000, Note_on_c, 0, 57, 100
2, 72240, Note_on_c, 0, 57, 0
2, 72240, Note_on_c, 0, 61, 100
2, 72360, Note_on_c, 0, 61, 0
2, 72360, Note_on_c, 0, 62, 100
2, 72480, Note_on_c, 0, 62, 0
2, 72480, Note_on_c, 0, 50, 100
2, 72600, Note_on_c, 0, 50, 0
2, 72600, Note_on_c, 0, 52, 100
2, 72720, Note_on_c, 0, 52, 0
2, 72720, Note_on_c, 0, 53, 100
2, 72840, Note_on_c, 0, 53, 0
2, 72840, Note_on_c, 0, 55, 100
2, 72960, Note_on_c, 0, 55, 0
2, 72960, Note_on_c, 0, 53, 100
2, 72960, Pitch_bend_c, 0, 16383
2, 73000, Pitch_bend_c, 0, 8192
2, 73040, Pitch_bend_c, 0, 16383
2, 73080, Pitch_bend_c, 0, 8192
2, 73200, Note_on_c, 0, 53, 0
2, 73200, Note_on_c, 0, 52, 100
2, 73320, Note_on_c, 0, 52, 0
2, 73320, Note_on_c, 0, 50, 100
2, 73440, Note_on_c, 0, 50, 0
2, 73440, Note_on_c, 0, 50, 100
2, 73920, Note_on_c, 0, 50, 0
2, 73920, Note_on_c, 0, 38, 100
2, 74040, Note_on_c, 0, 38, 0
2, 74040, Note_on_c, 0, 45, 100
2, 74160, Note_on_c, 0, 45, 0
2, 74160, Note_on_c, 0, 47, 100
2, 74280, Note_on_c, 0, 47, 0
2, 74280, Note_on_c, 0, 49, 100
2, 74400, Note_on_c, 0, 49, 0
2, 74400, Note_on_c, 0, 50, 100
2, 74520, Note_on_c, 0, 50, 0
2, 74520, Note_on_c, 0, 52, 100
2, 74640, Note_on_c, 0, 52, 0
2, 74640, Note_on_c, 0, 53, 100
2, 74760, Note_on_c, 0, 53, 0
2, 74760, Note_on_c, 0, 55, 100
2, 74880, Note_on_c, 0, 55, 0
2, 74880, Note_on_c, 0, 57, 100
2, 75000, Note_on_c, 0, 57, 0
2, 75000, Note_on_c, 0, 59, 100
2, 75120, Note_on_c, 0, 59, 0
2, 75120, Note_on_c, 0, 60, 100
2, 75240, Note_on_c, 0, 60, 0
2, 75240, Note_on_c, 0, 59, 100
2, 75360, Note_on_c, 0, 59, 0
2, 75360, Note_on_c, 0, 60, 100
2, 76080, Note_on_c, 0, 60, 0
2, 76080, Note_on_c, 0, 59, 100
2, 76200, Note_on_c, 0, 59, 0
2, 76200, Note_on_c, 0, 57, 100
2, 76320, Note_on_c, 0, 57, 0
2, 76320, Note_on_c, 0, 59, 100
2, 76440, Note_on_c, 0, 59, 0
2, 76440, Note_on_c, 0, 61, 100
2, 76560, Note_on_c, 0, 61, 0
2, 76560, Note_on_c, 0, 62, 100
2, 76680, Note_on_c, 0, 62, 0
2, 76680, Note_on_c, 0, 61, 100
2, 76800, Note_on_c, 0, 61, 0
2, 76800, Note_on_c, 0, 62, 100
2, 77520, Note_on_c, 0, 62, 0
2, 77520, Note_on_c, 0, 64, 100
2, 77640, Note_on_c, 0, 64, 0
2, 77640, Note_on_c, 0, 65, 100
2, 77760, Note_on_c, 0, 65, 0
2, 77760, Note_on_c, 0, 62, 100
2, 77880, Note_on_c, 0, 62, 0
2, 77880, Note_on_c, 0, 61, 100
2, 78000, Note_on_c, 0, 61, 0
2, 78000, Note_on_c, 0, 62, 100
2, 78120, Note_on_c, 0, 62, 0
2, 78120, Note_on_c, 0, 53, 100
2, 78240, Note_on_c, 0, 53, 0
2, 78240, Note_on_c, 0, 45, 100
2, 78480, Note_on_c, 0, 45, 0
2, 78480, Note_on_c, 0, 52, 100
2, 78720, Note_on_c, 0, 52, 0
2, 78720, Note_on_c, 0, 62, 100
2, 78960, Note_on_c, 0, 62, 0
2, 78960, Note_on_c, 0, 61, 100
2, 79200, Note_on_c, 0, 61, 0
2, 79200, Note_on_c, 0, 62, 100
2, 79680, Note_on_c, 0, 62, 0
2, 79680, Note_on_c, 0, 38, 100
2, 80640, Note_on_c, 0, 38, 0
2, 80640, End_track
3, 0, Start_track
3, 0, MIDI_port, 0
3, 0, Title_t, "--------------------------------------"
3, 0, Program_c, 1, 42
3, 0, Control_c, 1, 7, 100
3, 0, Control_c, 1, 10, 59
3, 0, Note_on_c, 1, 50, 100
3, 476, Note_on_c, 1, 45, 100
3, 480, Note_on_c, 1, 50, 0
3, 1436, Note_on_c, 1, 45, 0
3, 1440, Note_on_c, 1, 45, 100
3, 2160, Note_on_c, 1, 45, 0
3, 5760, Note_on_c, 1, 45, 100
3, 6240, Note_on_c, 1, 45, 0
3, 6240, Note_on_c, 1, 45, 100
3, 7200, Note_on_c, 1, 45, 0
3, 7200, Note_on_c, 1, 45, 100
3, 7920, Note_on_c, 1, 45, 0
3, 10080, Note_on_c, 1, 43, 100
3, 10800, Note_on_c, 1, 43, 0
3, 11520, Note_on_c, 1, 53, 100
3, 11760, Note_on_c, 1, 53, 0
3, 11760, Note_on_c, 1, 55, 100
3, 11880, Note_on_c, 1, 55, 0
3, 11880, Note_on_c, 1, 57, 100
3, 12000, Note_on_c, 1, 57, 0
3, 12000, Note_on_c, 1, 57, 100
3, 12720, Note_on_c, 1, 57, 0
3, 13440, Note_on_c, 1, 53, 100
3, 14400, Note_on_c, 1, 53, 0
3, 17280, Note_on_c, 1, 50, 100
3, 17756, Note_on_c, 1, 45, 100
3, 17760, Note_on_c, 1, 50, 0
3, 18716, Note_on_c, 1, 45, 0
3, 18720, Note_on_c, 1, 45, 100
3, 19440, Note_on_c, 1, 45, 0
3, 23040, Note_on_c, 1, 45, 100
3, 23520, Note_on_c, 1, 45, 0
3, 23520, Note_on_c, 1, 45, 100
3, 24480, Note_on_c, 1, 45, 0
3, 24480, Note_on_c, 1, 45, 100
3, 25200, Note_on_c, 1, 45, 0
3, 27360, Note_on_c, 1, 43, 100
3, 28080, Note_on_c, 1, 43, 0
3, 28800, Note_on_c, 1, 53, 100
3, 29040, Note_on_c, 1, 53, 0
3, 29040, Note_on_c, 1, 55, 100
3, 29160, Note_on_c, 1, 55, 0
3, 29160, Note_on_c, 1, 57, 100
3, 29280, Note_on_c, 1, 57, 0
3, 29280, Note_on_c, 1, 57, 100
3, 30000, Note_on_c, 1, 57, 0
3, 30720, Note_on_c, 1, 53, 100
3, 31680, Note_on_c, 1, 53, 0
3, 34560, Note_on_c, 1, 53, 100
3, 34800, Note_on_c, 1, 53, 0
3, 34800, Note_on_c, 1, 51, 100
3, 35040, Note_on_c, 1, 51, 0
3, 35040, Note_on_c, 1, 51, 100
3, 35760, Note_on_c, 1, 51, 0
3, 36000, Note_on_c, 1, 50, 100
3, 36480, Note_on_c, 1, 50, 0
3, 38880, Note_on_c, 1, 50, 100
3, 39600, Note_on_c, 1, 50, 0
3, 46080, Note_on_c, 1, 46, 100
3, 46560, Note_on_c, 1, 46, 0
3, 46560, Note_on_c, 1, 43, 100
3, 47520, Note_on_c, 1, 43, 0
3, 47520, Note_on_c, 1, 43, 100
3, 48000, Note_on_c, 1, 43, 0
3, 48000, Note_on_c, 1, 37, 100
3, 48720, Note_on_c, 1, 37, 0
3, 48960, Note_on_c, 1, 41, 100
3, 49200, Note_on_c, 1, 41, 0
3, 51840, Note_on_c, 1, 53, 100
3, 52320, Note_on_c, 1, 53, 0
3, 52320, Note_on_c, 1, 54, 100
3, 53040, Note_on_c, 1, 54, 0
3, 53280, Note_on_c, 1, 50, 100
3, 53760, Note_on_c, 1, 50, 0
3, 53760, Note_on_c, 1, 56, 100
3, 54480, Note_on_c, 1, 56, 0
3, 57600, Note_on_c, 1, 53, 100
3, 57840, Note_on_c, 1, 53, 0
3, 57840, Note_on_c, 1, 51, 100
3, 58080, Note_on_c, 1, 51, 0
3, 58080, Note_on_c, 1, 51, 100
3, 58800, Note_on_c, 1, 51, 0
3, 59040, Note_on_c, 1, 50, 100
3, 59520, Note_on_c, 1, 50, 0
3, 61920, Note_on_c, 1, 50, 100
3, 62640, Note_on_c, 1, 50, 0
3, 69120, Note_on_c, 1, 46, 100
3, 69600, Note_on_c, 1, 46, 0
3, 69600, Note_on_c, 1, 43, 100
3, 70560, Note_on_c, 1, 43, 0
3, 70560, Note_on_c, 1, 43, 100
3, 71040, Note_on_c, 1, 43, 0
3, 71040, Note_on_c, 1, 37, 100
3, 71760, Note_on_c, 1, 37, 0
3, 72000, Note_on_c, 1, 41, 100
3, 72240, Note_on_c, 1, 41, 0
3, 74880, Note_on_c, 1, 53, 100
3, 75360, Note_on_c, 1, 53, 0
3, 75360, Note_on_c, 1, 54, 100
3, 76080, Note_on_c, 1, 54, 0
3, 76320, Note_on_c, 1, 50, 100
3, 76800, Note_on_c, 1, 50, 0
3, 76800, Note_on_c, 1, 56, 100
3, 77520, Note_on_c, 1, 56, 0
3, 77520, End_track
4, 0, Start_track
4, 0, MIDI_port, 0
4, 0, Title_t, "Johann Sebastian Bach  (1685-1750)"
4, 0, Program_c, 2, 42
4, 0, Control_c, 2, 7, 100
4, 0, Control_c, 2, 10, 79
4, 1452, Note_on_c, 2, 38, 100
4, 2172, Note_on_c, 2, 38, 0
4, 5760, Note_on_c, 2, 41, 100
4, 6240, Note_on_c, 2, 41, 0
4, 7200, Note_on_c, 2, 38, 100
4, 7920, Note_on_c, 2, 38, 0
4, 10080, Note_on_c, 2, 36, 100
4, 10800, Note_on_c, 2, 36, 0
4, 12000, Note_on_c, 2, 46, 100
4, 12720, Note_on_c, 2, 46, 0
4, 12960, Note_on_c, 2, 46, 100
4, 13440, Note_on_c, 2, 46, 0
4, 13440, Note_on_c, 2, 43, 100
4, 14400, Note_on_c, 2, 43, 0
4, 18732, Note_on_c, 2, 38, 100
4, 19452, Note_on_c, 2, 38, 0
4, 23040, Note_on_c, 2, 41, 100
4, 23520, Note_on_c, 2, 41, 0
4, 24480, Note_on_c, 2, 38, 100
4, 25200, Note_on_c, 2, 38, 0
4, 27360, Note_on_c, 2, 36, 100
4, 28080, Note_on_c, 2, 36, 0
4, 29280, Note_on_c, 2, 46, 100
4, 30000, Note_on_c, 2, 46, 0
4, 30240, Note_on_c, 2, 46, 100
4, 30720, Note_on_c, 2, 46, 0
4, 30720, Note_on_c, 2, 43, 100
4, 31680, Note_on_c, 2, 43, 0
4, 38880, Note_on_c, 2, 43, 100
4, 39600, Note_on_c, 2, 43, 0
4, 48000, Note_on_c, 2, 46, 100
4, 48720, Note_on_c, 2, 46, 0
4, 48960, Note_on_c, 2, 50, 100
4, 49200, Note_on_c, 2, 50, 0
4, 49440, Note_on_c, 2, 50, 1
4, 49680, Note_on_c, 2, 50, 0
4, 49680, Note_on_c, 2, 52, 1
4, 49800, Note_on_c, 2, 52, 0
4, 49800, Note_on_c, 2, 53, 1
4, 49860, Note_on_c, 2, 53, 0
4, 49860, Note_on_c, 2, 55, 1
4, 49920, Note_on_c, 2, 55, 0
4, 53280, Note_on_c, 2, 43, 100
4, 53760, Note_on_c, 2, 43, 0
4, 61920, Note_on_c, 2, 43, 100
4, 62640, Note_on_c, 2, 43, 0
4, 71040, Note_on_c, 2, 46, 100
4, 71760, Note_on_c, 2, 46, 0
4, 72000, Note_on_c, 2, 50, 100
4, 72240, Note_on_c, 2, 50, 0
4, 72480, Note_on_c, 2, 50, 1
4, 72720, Note_on_c, 2, 50, 0
4, 72720, Note_on_c, 2, 52, 1
4, 72840, Note_on_c, 2, 52, 0
4, 72840, Note_on_c, 2, 53, 1
4, 72900, Note_on_c, 2, 53, 0
4, 72900, Note_on_c, 2, 55, 1
4, 72960, Note_on_c, 2, 55, 0
4, 76320, Note_on_c, 2, 43, 100
4, 76800, Note_on_c, 2, 43, 0
4, 76800, End_track
5, 0, Start_track
5, 0, MIDI_port, 0
5, 0, Title_t, "Six Suites for Solo Cello"
5, 0, Program_c, 3, 42
5, 0, Control_c, 3, 7, 100
5, 0, Control_c, 3, 10, 49
5, 48960, Note_on_c, 3, 45, 100
5, 49200, Note_on_c, 3, 45, 0
5, 49680, Note_on_c, 3, 43, 100
5, 49920, Note_on_c, 3, 43, 0
5, 49920, Note_on_c, 3, 45, 100
5, 50400, Note_on_c, 3, 45, 0
5, 72000, Note_on_c, 3, 45, 100
5, 72240, Note_on_c, 3, 45, 0
5, 72720, Note_on_c, 3, 43, 100
5, 72960, Note_on_c, 3, 43, 0
5, 72960, Note_on_c, 3, 45, 100
5, 73440, Note_on_c, 3, 45, 0
5, 73440, End_track
6, 0, Start_track
6, 0, MIDI_port, 0
6, 0, Title_t, "--------------------------------------"
6, 0, End_track
7, 0, Start_track
7, 0, MIDI_port, 0
7, 0, Title_t, "Suite No. 2 in D minor - BWV 1008"
7, 0, End_track
8, 0, Start_track
8, 0, MIDI_port, 0
8, 0, Title_t, "4th Movement: Sarabande"
8, 0, End_track
9, 0, Start_track
9, 0, MIDI_port, 0
9, 0, Title_t, "--------------------------------------"
9, 0, End_track
10, 0, Start_track
10, 0, MIDI_port, 0
10, 0, Title_t, "Sequenced with Cakewalk Pro Audio by"
10, 0, End_track
11, 0, Start_track
11, 0, MIDI_port, 0
11, 0, Title_t, "David J. Grossman - dave@unpronounceable.com"
11, 0, End_track
12, 0, Start_track
12, 0, MIDI_port, 0
12, 0, Title_t, "This and other Bach MIDI files can be found at:"
12, 0, End_track
13, 0, Start_track
13, 0, MIDI_port, 0
13, 0, Title_t, "Dave's J.S. Bach Page"
13, 0, End_track
14, 0, Start_track
14, 0, MIDI_port, 0
14, 0, Title_t, "http://www.unpronounceable.com/bach"
14, 0, End_track
15, 0, Start_track
15, 0, MIDI_port, 0
15, 0, Title_t, "--------------------------------------"
15, 0, End_track
16, 0, Start_track
16, 0, MIDI_port, 0
16, 0, Title_t, "Original Filename: cs2-4sar.mid"
16, 0, End_track
17, 0, Start_track
17, 0, MIDI_port, 0
17, 0, Title_t, "Last Modified: February 22, 1997"
17, 0, End_track
0, 0, End_of_file
