0, 0, Header, 1, 18, 480
1, 0, Start_track
1, 0, Title_t, "untitled"
1, 0, SMPTE_offset, 96, 0, 3, 0, 0
1, 0, Time_signature, 3, 2, 24, 8
1, 0, Key_signature, -1, "major"
1, 0, Tempo, 500000
1, 0, Marker_t, "IA"
1, 11520, Marker_t, "IA'"
1, 23040, Marker_t, "IB"
1, 23040, Marker_t, "*"
1, 46080, Marker_t, "IB'"
1, 69120, Key_signature, 2, "major"
1, 69120, Marker_t, "IIA"
1, 80640, Marker_t, "IIA'"
1, 92160, Marker_t, "IIB"
1, 115200, Marker_t, "IIB'"
1, 138240, Key_signature, -1, "major"
1, 138240, Marker_t, "IA''"
1, 149760, Marker_t, "IB''"
1, 171360, Tempo, 1000000
1, 171360, End_track
2, 0, Start_track
2, 0, MIDI_port, 0
2, 0, Title_t, "Solo Cello"
2, 0, Program_c, 0, 42
2, 0, Control_c, 0, 7, 100
2, 0, Control_c, 0, 10, 64
2, 0, Note_on_c, 0, 57, 100
2, 960, Note_on_c, 0, 57, 0
2, 960, Note_on_c, 0, 58, 100
2, 1440, Note_on_c, 0, 58, 0
2, 1440, Note_on_c, 0, 58, 100
2, 1680, Note_on_c, 0, 58, 0
2, 1680, Note_on_c, 0, 57, 100
2, 1920, Note_on_c, 0, 57, 0
2, 1920, Note_on_c, 0, 58, 100
2, 2160, Note_on_c, 0, 58, 0
2, 2160, Note_on_c, 0, 55, 100
2, 2400, Note_on_c, 0, 55, 0
2, 2400, Note_on_c, 0, 57, 100
2, 2880, Note_on_c, 0, 57, 0
2, 2880, Note_on_c, 0, 50, 100
2, 3360, Note_on_c, 0, 50, 0
2, 3360, Note_on_c, 0, 55, 100
2, 3840, Note_on_c, 0, 55, 0
2, 3840, Note_on_c, 0, 53, 100
2, 4080, Note_on_c, 0, 53, 0
2, 4080, Note_on_c, 0, 52, 100
2, 4320, Note_on_c, 0, 52, 0
2, 4320, Note_on_c, 0, 53, 100
2, 4560, Note_on_c, 0, 53, 0
2, 4560, Note_on_c, 0, 52, 100
2, 4800, Note_on_c, 0, 52, 0
2, 4800, Note_on_c, 0, 50, 100
2, 5040, Note_on_c, 0, 50, 0
2, 5040, Note_on_c, 0, 49, 100
2, 5280, Note_on_c, 0, 49, 0
2, 5280, Note_on_c, 0, 47, 100
2, 5520, Note_on_c, 0, 47, 0
2, 5520, Note_on_c, 0, 45, 100
2, 5760, Note_on_c, 0, 45, 0
2, 5760, Note_on_c, 0, 57, 100
2, 6720, Note_on_c, 0, 57, 0
2, 6720, Note_on_c, 0, 58, 100
2, 7200, Note_on_c, 0, 58, 0
2, 7200, Note_on_c, 0, 58, 100
2, 7440, Note_on_c, 0, 58, 0
2, 7440, Note_on_c, 0, 57, 100
2, 7680, Note_on_c, 0, 57, 0
2, 7680, Note_on_c, 0, 58, 100
2, 7920, Note_on_c, 0, 58, 0
2, 7920, Note_on_c, 0, 55, 100
2, 8160, Note_on_c, 0, 55, 0
2, 8160, Note_on_c, 0, 60, 100
2, 8640, Note_on_c, 0, 60, 0
2, 8640, Note_on_c, 0, 57, 100
2, 9120, Note_on_c, 0, 57, 0
2, 9120, Note_on_c, 0, 62, 100
2, 9600, Note_on_c, 0, 62, 0
2, 9600, Note_on_c, 0, 64, 100
2, 10080, Note_on_c, 0, 64, 0
2, 10080, Note_on_c, 0, 61, 100
2, 11520, Note_on_c, 0, 61, 0
2, 11520, Note_on_c, 0, 57, 100
2, 12480, Note_on_c, 0, 57, 0
2, 12480, Note_on_c, 0, 58, 100
2, 12960, Note_on_c, 0, 58, 0
2, 12960, Note_on_c, 0, 58, 100
2, 13200, Note_on_c, 0, 58, 0
2, 13200, Note_on_c, 0, 57, 100
2, 13440, Note_on_c, 0, 57, 0
2, 13440, Note_on_c, 0, 58, 100
2, 13680, Note_on_c, 0, 58, 0
2, 13680, Note_on_c, 0, 55, 100
2, 13920, Note_on_c, 0, 55, 0
2, 13920, Note_on_c, 0, 57, 100
2, 14400, Note_on_c, 0, 57, 0
2, 14400, Note_on_c, 0, 50, 100
2, 14880, Note_on_c, 0, 50, 0
2, 14880, Note_on_c, 0, 55, 100
2, 15360, Note_on_c, 0, 55, 0
2, 15360, Note_on_c, 0, 53, 100
2, 15600, Note_on_c, 0, 53, 0
2, 15600, Note_on_c, 0, 52, 100
2, 15840, Note_on_c, 0, 52, 0
2, 15840, Note_on_c, 0, 53, 100
2, 16080, Note_on_c, 0, 53, 0
2, 16080, Note_on_c, 0, 52, 100
2, 16320, Note_on_c, 0, 52, 0
2, 16320, Note_on_c, 0, 50, 100
2, 16560, Note_on_c, 0, 50, 0
2, 16560, Note_on_c, 0, 49, 100
2, 16800, Note_on_c, 0, 49, 0
2, 16800, Note_on_c, 0, 47, 100
2, 17040, Note_on_c, 0, 47, 0
2, 17040, Note_on_c, 0, 45, 100
2, 17280, Note_on_c, 0, 45, 0
2, 17280, Note_on_c, 0, 57, 100
2, 18240, Note_on_c, 0, 57, 0
2, 18240, Note_on_c, 0, 58, 100
2, 18720, Note_on_c, 0, 58, 0
2, 18720, Note_on_c, 0, 58, 100
2, 18960, Note_on_c, 0, 58, 0
2, 18960, Note_on_c, 0, 57, 100
2, 19200, Note_on_c, 0, 57, 0
2, 19200, Note_on_c, 0, 58, 100
2, 19440, Note_on_c, 0, 58, 0
2, 19440, Note_on_c, 0, 55, 100
2, 19680, Note_on_c, 0, 55, 0
2, 19680, Note_on_c, 0, 60, 100
2, 20160, Note_on_c, 0, 60, 0
2, 20160, Note_on_c, 0, 57, 100
2, 20640, Note_on_c, 0, 57, 0
2, 20640, Note_on_c, 0, 62, 100
2, 21120, Note_on_c, 0, 62, 0
2, 21120, Note_on_c, 0, 64, 100
2, 21600, Note_on_c, 0, 64, 0
2, 21600, Note_on_c, 0, 61, 100
2, 23040, Note_on_c, 0, 61, 0
2, 23040, Note_on_c, 0, 61, 100
2, 24000, Note_on_c, 0, 61, 0
2, 24000, Note_on_c, 0, 62, 100
2, 24240, Note_on_c, 0, 62, 0
2, 24240, Note_on_c, 0, 64, 100
2, 24360, Note_on_c, 0, 64, 0
2, 24360, Note_on_c, 0, 65, 100
2, 24480, Note_on_c, 0, 65, 0
2, 24480, Note_on_c, 0, 64, 100
2, 24720, Note_on_c, 0, 64, 0
2, 24720, Note_on_c, 0, 62, 100
2, 24960, Note_on_c, 0, 62, 0
2, 24960, Note_on_c, 0, 61, 100
2, 25200, Note_on_c, 0, 61, 0
2, 25200, Note_on_c, 0, 64, 100
2, 25440, Note_on_c, 0, 64, 0
2, 25440, Note_on_c, 0, 57, 100
2, 25680, Note_on_c, 0, 57, 0
2, 25680, Note_on_c, 0, 55, 100
2, 25920, Note_on_c, 0, 55, 0
2, 25920, Note_on_c, 0, 57, 100
2, 26400, Note_on_c, 0, 57, 0
2, 26400, Note_on_c, 0, 62, 100
2, 26880, Note_on_c, 0, 62, 0
2, 26880, Note_on_c, 0, 61, 100
2, 27360, Note_on_c, 0, 61, 0
2, 27360, Note_on_c, 0, 67, 100
2, 27600, Note_on_c, 0, 67, 0
2, 27600, Note_on_c, 0, 65, 100
2, 27840, Note_on_c, 0, 65, 0
2, 27840, Note_on_c, 0, 64, 100
2, 28080, Note_on_c, 0, 64, 0
2, 28080, Note_on_c, 0, 65, 100
2, 28320, Note_on_c, 0, 65, 0
2, 28320, Note_on_c, 0, 62, 100
2, 28560, Note_on_c, 0, 62, 0
2, 28560, Note_on_c, 0, 60, 100
2, 28800, Note_on_c, 0, 60, 0
2, 28800, Note_on_c, 0, 58, 100
2, 29760, Note_on_c, 0, 58, 0
2, 29760, Note_on_c, 0, 60, 100
2, 30240, Note_on_c, 0, 60, 0
2, 30240, Note_on_c, 0, 57, 100
2, 30480, Note_on_c, 0, 57, 0
2, 30480, Note_on_c, 0, 55, 100
2, 30720, Note_on_c, 0, 55, 0
2, 30720, Note_on_c, 0, 57, 100
2, 30960, Note_on_c, 0, 57, 0
2, 30960, Note_on_c, 0, 53, 100
2, 31200, Note_on_c, 0, 53, 0
2, 31200, Note_on_c, 0, 52, 100
2, 31680, Note_on_c, 0, 52, 0
2, 31680, Note_on_c, 0, 53, 100
2, 32160, Note_on_c, 0, 53, 0
2, 34560, Note_on_c, 0, 54, 100
2, 35520, Note_on_c, 0, 54, 0
2, 35520, Note_on_c, 0, 58, 100
2, 36000, Note_on_c, 0, 58, 0
2, 36000, Note_on_c, 0, 60, 100
2, 36240, Note_on_c, 0, 60, 0
2, 36240, Note_on_c, 0, 58, 100
2, 36480, Note_on_c, 0, 58, 0
2, 36480, Note_on_c, 0, 60, 100
2, 36720, Note_on_c, 0, 60, 0
2, 36720, Note_on_c, 0, 57, 100
2, 36960, Note_on_c, 0, 57, 0
2, 36960, Pitch_bend_c, 0, 12288
2, 36960, Note_on_c, 0, 54, 100
2, 37020, Pitch_bend_c, 0, 8192
2, 37080, Pitch_bend_c, 0, 12288
2, 37140, Pitch_bend_c, 0, 8192
2, 37440, Note_on_c, 0, 54, 0
2, 37440, Note_on_c, 0, 62, 100
2, 37920, Note_on_c, 0, 62, 0
2, 37920, Note_on_c, 0, 60, 100
2, 38400, Note_on_c, 0, 60, 0
2, 38400, Note_on_c, 0, 58, 100
2, 38640, Note_on_c, 0, 58, 0
2, 38640, Note_on_c, 0, 57, 100
2, 38880, Note_on_c, 0, 57, 0
2, 38880, Note_on_c, 0, 60, 100
2, 39120, Note_on_c, 0, 60, 0
2, 39120, Note_on_c, 0, 58, 100
2, 39360, Note_on_c, 0, 58, 0
2, 39360, Note_on_c, 0, 57, 100
2, 39600, Note_on_c, 0, 57, 0
2, 39600, Note_on_c, 0, 58, 100
2, 39840, Note_on_c, 0, 58, 0
2, 39840, Note_on_c, 0, 55, 100
2, 40080, Note_on_c, 0, 55, 0
2, 40080, Note_on_c, 0, 58, 100
2, 40320, Note_on_c, 0, 58, 0
2, 40320, Note_on_c, 0, 62, 100
2, 40800, Note_on_c, 0, 62, 0
2, 40800, Note_on_c, 0, 61, 100
2, 41280, Note_on_c, 0, 61, 0
2, 41280, Note_on_c, 0, 62, 100
2, 41760, Note_on_c, 0, 62, 0
2, 41760, Note_on_c, 0, 55, 100
2, 42000, Note_on_c, 0, 55, 0
2, 42000, Note_on_c, 0, 53, 100
2, 42240, Note_on_c, 0, 53, 0
2, 42240, Note_on_c, 0, 55, 100
2, 42480, Note_on_c, 0, 55, 0
2, 42480, Note_on_c, 0, 52, 100
2, 42720, Note_on_c, 0, 52, 0
2, 42720, Note_on_c, 0, 53, 100
2, 43200, Note_on_c, 0, 53, 0
2, 43200, Note_on_c, 0, 43, 100
2, 43440, Note_on_c, 0, 43, 0
2, 43440, Note_on_c, 0, 55, 100
2, 43680, Note_on_c, 0, 55, 0
2, 43680, Pitch_bend_c, 0, 12288
2, 43680, Note_on_c, 0, 52, 100
2, 43760, Pitch_bend_c, 0, 8192
2, 43840, Pitch_bend_c, 0, 12288
2, 43920, Pitch_bend_c, 0, 8192
2, 44400, Note_on_c, 0, 52, 0
2, 44400, Note_on_c, 0, 50, 100
2, 44640, Note_on_c, 0, 50, 0
2, 44640, Note_on_c, 0, 50, 100
2, 46080, Note_on_c, 0, 50, 0
2, 46080, Note_on_c, 0, 61, 100
2, 47040, Note_on_c, 0, 61, 0
2, 47040, Note_on_c, 0, 62, 100
2, 47280, Note_on_c, 0, 62, 0
2, 47280, Note_on_c, 0, 64, 100
2, 47400, Note_on_c, 0, 64, 0
2, 47400, Note_on_c, 0, 65, 100
2, 47520, Note_on_c, 0, 65, 0
2, 47520, Note_on_c, 0, 64, 100
2, 47760, Note_on_c, 0, 64, 0
2, 47760, Note_on_c, 0, 62, 100
2, 48000, Note_on_c, 0, 62, 0
2, 48000, Note_on_c, 0, 61, 100
2, 48240, Note_on_c, 0, 61, 0
2, 48240, Note_on_c, 0, 64, 100
2, 48480, Note_on_c, 0, 64, 0
2, 48480, Note_on_c, 0, 57, 100
2, 48720, Note_on_c, 0, 57, 0
2, 48720, Note_on_c, 0, 55, 100
2, 48960, Note_on_c, 0, 55, 0
2, 48960, Note_on_c, 0, 57, 100
2, 49440, Note_on_c, 0, 57, 0
2, 49440, Note_on_c, 0, 62, 100
2, 49920, Note_on_c, 0, 62, 0
2, 49920, Note_on_c, 0, 61, 100
2, 50400, Note_on_c, 0, 61, 0
2, 50400, Note_on_c, 0, 67, 100
2, 50640, Note_on_c, 0, 67, 0
2, 50640, Note_on_c, 0, 65, 100
2, 50880, Note_on_c, 0, 65, 0
2, 50880, Note_on_c, 0, 64, 100
2, 51120, Note_on_c, 0, 64, 0
2, 51120, Note_on_c, 0, 65, 100
2, 51360, Note_on_c, 0, 65, 0
2, 51360, Note_on_c, 0, 62, 100
2, 51600, Note_on_c, 0, 62, 0
2, 51600, Note_on_c, 0, 60, 100
2, 51840, Note_on_c, 0, 60, 0
2, 51840, Note_on_c, 0, 58, 100
2, 52800, Note_on_c, 0, 58, 0
2, 52800, Note_on_c, 0, 60, 100
2, 53280, Note_on_c, 0, 60, 0
2, 53280, Note_on_c, 0, 57, 100
2, 53520, Note_on_c, 0, 57, 0
2, 53520, Note_on_c, 0, 55, 100
2, 53760, Note_on_c, 0, 55, 0
2, 53760, Note_on_c, 0, 57, 100
2, 54000, Note_on_c, 0, 57, 0
2, 54000, Note_on_c, 0, 53, 100
2, 54240, Note_on_c, 0, 53, 0
2, 54240, Note_on_c, 0, 52, 100
2, 54720, Note_on_c, 0, 52, 0
2, 54720, Note_on_c, 0, 53, 100
2, 55200, Note_on_c, 0, 53, 0
2, 57600, Note_on_c, 0, 54, 100
2, 58560, Note_on_c, 0, 54, 0
2, 58560, Note_on_c, 0, 58, 100
2, 59040, Note_on_c, 0, 58, 0
2, 59040, Note_on_c, 0, 60, 100
2, 59280, Note_on_c, 0, 60, 0
2, 59280, Note_on_c, 0, 58, 100
2, 59520, Note_on_c, 0, 58, 0
2, 59520, Note_on_c, 0, 60, 100
2, 59760, Note_on_c, 0, 60, 0
2, 59760, Note_on_c, 0, 57, 100
2, 60000, Note_on_c, 0, 57, 0
2, 60000, Pitch_bend_c, 0, 12288
2, 60000, Note_on_c, 0, 54, 100
2, 60060, Pitch_bend_c, 0, 8192
2, 60120, Pitch_bend_c, 0, 12288
2, 60180, Pitch_bend_c, 0, 8192
2, 60480, Note_on_c, 0, 54, 0
2, 60480, Note_on_c, 0, 62, 100
2, 60960, Note_on_c, 0, 62, 0
2, 60960, Note_on_c, 0, 60, 100
2, 61440, Note_on_c, 0, 60, 0
2, 61440, Note_on_c, 0, 58, 100
2, 61680, Note_on_c, 0, 58, 0
2, 61680, Note_on_c, 0, 57, 100
2, 61920, Note_on_c, 0, 57, 0
2, 61920, Note_on_c, 0, 60, 100
2, 62160, Note_on_c, 0, 60, 0
2, 62160, Note_on_c, 0, 58, 100
2, 62400, Note_on_c, 0, 58, 0
2, 62400, Note_on_c, 0, 57, 100
2, 62640, Note_on_c, 0, 57, 0
2, 62640, Note_on_c, 0, 58, 100
2, 62880, Note_on_c, 0, 58, 0
2, 62880, Note_on_c, 0, 55, 100
2, 63120, Note_on_c, 0, 55, 0
2, 63120, Note_on_c, 0, 58, 100
2, 63360, Note_on_c, 0, 58, 0
2, 63360, Note_on_c, 0, 62, 100
2, 63840, Note_on_c, 0, 62, 0
2, 63840, Note_on_c, 0, 61, 100
2, 64320, Note_on_c, 0, 61, 0
2, 64320, Note_on_c, 0, 62, 100
2, 64800, Note_on_c, 0, 62, 0
2, 64800, Note_on_c, 0, 55, 100
2, 65040, Note_on_c, 0, 55, 0
2, 65040, Note_on_c, 0, 53, 100
2, 65280, Note_on_c, 0, 53, 0
2, 65280, Note_on_c, 0, 55, 100
2, 65520, Note_on_c, 0, 55, 0
2, 65520, Note_on_c, 0, 52, 100
2, 65760, Note_on_c, 0, 52, 0
2, 65760, Note_on_c, 0, 53, 100
2, 66240, Note_on_c, 0, 53, 0
2, 66240, Note_on_c, 0, 43, 100
2, 66480, Note_on_c, 0, 43, 0
2, 66480, Note_on_c, 0, 55, 100
2, 66720, Note_on_c, 0, 55, 0
2, 66720, Pitch_bend_c, 0, 12288
2, 66720, Note_on_c, 0, 52, 100
2, 66800, Pitch_bend_c, 0, 8192
2, 66880, Pitch_bend_c, 0, 12288
2, 66960, Pitch_bend_c, 0, 8192
2, 67440, Note_on_c, 0, 52, 0
2, 67440, Note_on_c, 0, 50, 100
2, 67680, Note_on_c, 0, 50, 0
2, 67680, Note_on_c, 0, 50, 100
2, 69120, Note_on_c, 0, 50, 0
2, 69120, Pitch_bend_c, 0, 12288
2, 69120, Note_on_c, 0, 54, 100
2, 69180, Pitch_bend_c, 0, 8192
2, 69240, Pitch_bend_c, 0, 12288
2, 69300, Pitch_bend_c, 0, 8192
2, 69600, Note_on_c, 0, 54, 0
2, 69600, Note_on_c, 0, 50, 100
2, 69840, Note_on_c, 0, 50, 0
2, 69840, Note_on_c, 0, 52, 100
2, 70080, Note_on_c, 0, 52, 0
2, 70080, Note_on_c, 0, 54, 100
2, 70320, Note_on_c, 0, 54, 0
2, 70320, Note_on_c, 0, 55, 100
2, 70560, Note_on_c, 0, 55, 0
2, 70560, Note_on_c, 0, 57, 100
2, 71040, Note_on_c, 0, 57, 0
2, 71040, Note_on_c, 0, 42, 100
2, 71520, Note_on_c, 0, 42, 0
2, 71520, Note_on_c, 0, 57, 100
2, 72000, Note_on_c, 0, 57, 0
2, 72000, Note_on_c, 0, 43, 100
2, 72240, Note_on_c, 0, 43, 0
2, 72240, Note_on_c, 0, 47, 100
2, 72480, Note_on_c, 0, 47, 0
2, 72480, Note_on_c, 0, 52, 100
2, 72960, Note_on_c, 0, 52, 0
2, 72960, Note_on_c, 0, 55, 100
2, 73440, Note_on_c, 0, 55, 0
2, 73440, Note_on_c, 0, 50, 100
2, 73680, Note_on_c, 0, 50, 0
2, 73680, Note_on_c, 0, 49, 100
2, 73920, Note_on_c, 0, 49, 0
2, 73920, Note_on_c, 0, 47, 100
2, 74160, Note_on_c, 0, 47, 0
2, 74160, Note_on_c, 0, 49, 100
2, 74400, Note_on_c, 0, 49, 0
2, 74400, Note_on_c, 0, 45, 100
2, 74640, Note_on_c, 0, 45, 0
2, 74640, Note_on_c, 0, 43, 100
2, 74880, Note_on_c, 0, 43, 0
2, 74880, Note_on_c, 0, 42, 100
2, 75120, Note_on_c, 0, 42, 0
2, 75120, Note_on_c, 0, 62, 100
2, 75360, Note_on_c, 0, 62, 0
2, 75360, Note_on_c, 0, 61, 100
2, 75600, Note_on_c, 0, 61, 0
2, 75600, Note_on_c, 0, 59, 100
2, 75840, Note_on_c, 0, 59, 0
2, 75840, Note_on_c, 0, 57, 100
2, 76080, Note_on_c, 0, 57, 0
2, 76080, Note_on_c, 0, 55, 100
2, 76320, Note_on_c, 0, 55, 0
2, 76320, Note_on_c, 0, 59, 100
2, 76560, Note_on_c, 0, 59, 0
2, 76560, Note_on_c, 0, 57, 100
2, 76800, Note_on_c, 0, 57, 0
2, 76800, Note_on_c, 0, 55, 100
2, 77040, Note_on_c, 0, 55, 0
2, 77040, Note_on_c, 0, 54, 100
2, 77280, Note_on_c, 0, 54, 0
2, 77280, Note_on_c, 0, 52, 100
2, 77520, Note_on_c, 0, 52, 0
2, 77520, Note_on_c, 0, 50, 100
2, 77760, Note_on_c, 0, 50, 0
2, 77760, Note_on_c, 0, 49, 100
2, 78000, Note_on_c, 0, 49, 0
2, 78000, Note_on_c, 0, 50, 100
2, 78240, Note_on_c, 0, 50, 0
2, 78240, Note_on_c, 0, 55, 100
2, 78720, Note_on_c, 0, 55, 0
2, 78720, Note_on_c, 0, 54, 100
2, 78960, Note_on_c, 0, 54, 0
2, 78960, Note_on_c, 0, 55, 100
2, 79080, Note_on_c, 0, 55, 0
2, 79080, Note_on_c, 0, 57, 100
2, 79200, Note_on_c, 0, 57, 0
2, 79200, Pitch_bend_c, 0, 16383
2, 79200, Note_on_c, 0, 52, 100
2, 79280, Pitch_bend_c, 0, 8192
2, 79360, Pitch_bend_c, 0, 16383
2, 79440, Pitch_bend_c, 0, 8192
2, 80640, Note_on_c, 0, 52, 0
2, 80640, Pitch_bend_c, 0, 12288
2, 80640, Note_on_c, 0, 54, 100
2, 80700, Pitch_bend_c, 0, 8192
2, 80760, Pitch_bend_c, 0, 12288
2, 80820, Pitch_bend_c, 0, 8192
2, 81120, Note_on_c, 0, 54, 0
2, 81120, Note_on_c, 0, 50, 100
2, 81360, Note_on_c, 0, 50, 0
2, 81360, Note_on_c, 0, 52, 100
2, 81600, Note_on_c, 0, 52, 0
2, 81600, Note_on_c, 0, 54, 100
2, 81840, Note_on_c, 0, 54, 0
2, 81840, Note_on_c, 0, 55, 100
2, 82080, Note_on_c, 0, 55, 0
2, 82080, Note_on_c, 0, 57, 100
2, 82560, Note_on_c, 0, 57, 0
2, 82560, Note_on_c, 0, 42, 100
2, 83040, Note_on_c, 0, 42, 0
2, 83040, Note_on_c, 0, 57, 100
2, 83520, Note_on_c, 0, 57, 0
2, 83520, Note_on_c, 0, 43, 100
2, 83760, Note_on_c, 0, 43, 0
2, 83760, Note_on_c, 0, 47, 100
2, 84000, Note_on_c, 0, 47, 0
2, 84000, Note_on_c, 0, 52, 100
2, 84480, Note_on_c, 0, 52, 0
2, 84480, Note_on_c, 0, 55, 100
2, 84960, Note_on_c, 0, 55, 0
2, 84960, Note_on_c, 0, 50, 100
2, 85200, Note_on_c, 0, 50, 0
2, 85200, Note_on_c, 0, 49, 100
2, 85440, Note_on_c, 0, 49, 0
2, 85440, Note_on_c, 0, 47, 100
2, 85680, Note_on_c, 0, 47, 0
2, 85680, Note_on_c, 0, 49, 100
2, 85920, Note_on_c, 0, 49, 0
2, 85920, Note_on_c, 0, 45, 100
2, 86160, Note_on_c, 0, 45, 0
2, 86160, Note_on_c, 0, 43, 100
2, 86400, Note_on_c, 0, 43, 0
2, 86400, Note_on_c, 0, 42, 100
2, 86640, Note_on_c, 0, 42, 0
2, 86640, Note_on_c, 0, 62, 100
2, 86880, Note_on_c, 0, 62, 0
2, 86880, Note_on_c, 0, 61, 100
2, 87120, Note_on_c, 0, 61, 0
2, 87120, Note_on_c, 0, 59, 100
2, 87360, Note_on_c, 0, 59, 0
2, 87360, Note_on_c, 0, 57, 100
2, 87600, Note_on_c, 0, 57, 0
2, 87600, Note_on_c, 0, 55, 100
2, 87840, Note_on_c, 0, 55, 0
2, 87840, Note_on_c, 0, 59, 100
2, 88080, Note_on_c, 0, 59, 0
2, 88080, Note_on_c, 0, 57, 100
2, 88320, Note_on_c, 0, 57, 0
2, 88320, Note_on_c, 0, 55, 100
2, 88560, Note_on_c, 0, 55, 0
2, 88560, Note_on_c, 0, 54, 100
2, 88800, Note_on_c, 0, 54, 0
2, 88800, Note_on_c, 0, 52, 100
2, 89040, Note_on_c, 0, 52, 0
2, 89040, Note_on_c, 0, 50, 100
2, 89280, Note_on_c, 0, 50, 0
2, 89280, Note_on_c, 0, 49, 100
2, 89520, Note_on_c, 0, 49, 0
2, 89520, Note_on_c, 0, 50, 100
2, 89760, Note_on_c, 0, 50, 0
2, 89760, Note_on_c, 0, 55, 100
2, 90240, Note_on_c, 0, 55, 0
2, 90240, Note_on_c, 0, 54, 100
2, 90480, Note_on_c, 0, 54, 0
2, 90480, Note_on_c, 0, 55, 100
2, 90600, Note_on_c, 0, 55, 0
2, 90600, Note_on_c, 0, 57, 100
2, 90720, Note_on_c, 0, 57, 0
2, 90720, Pitch_bend_c, 0, 16383
2, 90720, Note_on_c, 0, 52, 100
2, 90800, Pitch_bend_c, 0, 8192
2, 90880, Pitch_bend_c, 0, 16383
2, 90960, Pitch_bend_c, 0, 8192
2, 92160, Note_on_c, 0, 52, 0
2, 92160, Note_on_c, 0, 61, 100
2, 92640, Note_on_c, 0, 61, 0
2, 92640, Note_on_c, 0, 64, 100
2, 92880, Note_on_c, 0, 64, 0
2, 92880, Note_on_c, 0, 62, 100
2, 93120, Note_on_c, 0, 62, 0
2, 93120, Note_on_c, 0, 61, 100
2, 93360, Note_on_c, 0, 61, 0
2, 93360, Note_on_c, 0, 59, 100
2, 93600, Note_on_c, 0, 59, 0
2, 93600, Note_on_c, 0, 61, 100
2, 94080, Note_on_c, 0, 61, 0
2, 94080, Note_on_c, 0, 43, 100
2, 94560, Note_on_c, 0, 43, 0
2, 94560, Note_on_c, 0, 61, 100
2, 95040, Note_on_c, 0, 61, 0
2, 95040, Note_on_c, 0, 54, 100
2, 95280, Note_on_c, 0, 54, 0
2, 95280, Note_on_c, 0, 57, 100
2, 95520, Note_on_c, 0, 57, 0
2, 95520, Note_on_c, 0, 62, 100
2, 96000, Note_on_c, 0, 62, 0
2, 96000, Note_on_c, 0, 66, 100
2, 96480, Note_on_c, 0, 66, 0
2, 96480, Note_on_c, 0, 59, 100
2, 96720, Note_on_c, 0, 59, 0
2, 96720, Note_on_c, 0, 57, 100
2, 96960, Note_on_c, 0, 57, 0
2, 96960, Note_on_c, 0, 55, 100
2, 97200, Note_on_c, 0, 55, 0
2, 97200, Note_on_c, 0, 54, 100
2, 97440, Note_on_c, 0, 54, 0
2, 97440, Note_on_c, 0, 55, 100
2, 97680, Note_on_c, 0, 55, 0
2, 97680, Note_on_c, 0, 59, 100
2, 97920, Note_on_c, 0, 59, 0
2, 97920, Note_on_c, 0, 52, 100
2, 98160, Note_on_c, 0, 52, 0
2, 98160, Note_on_c, 0, 62, 100
2, 98400, Note_on_c, 0, 62, 0
2, 98400, Note_on_c, 0, 61, 100
2, 98640, Note_on_c, 0, 61, 0
2, 98640, Note_on_c, 0, 59, 100
2, 98880, Note_on_c, 0, 59, 0
2, 98880, Note_on_c, 0, 61, 100
2, 99120, Note_on_c, 0, 61, 0
2, 99120, Note_on_c, 0, 58, 100
2, 99360, Note_on_c, 0, 58, 0
2, 99360, Note_on_c, 0, 50, 100
2, 99600, Note_on_c, 0, 50, 0
2, 99600, Note_on_c, 0, 59, 100
2, 99840, Note_on_c, 0, 59, 0
2, 99840, Note_on_c, 0, 57, 100
2, 100080, Note_on_c, 0, 57, 0
2, 100080, Note_on_c, 0, 55, 100
2, 100320, Note_on_c, 0, 55, 0
2, 100320, Note_on_c, 0, 54, 100
2, 100560, Note_on_c, 0, 54, 0
2, 100560, Note_on_c, 0, 52, 100
2, 100800, Note_on_c, 0, 52, 0
2, 100800, Note_on_c, 0, 55, 100
2, 101040, Note_on_c, 0, 55, 0
2, 101040, Note_on_c, 0, 54, 100
2, 101280, Note_on_c, 0, 54, 0
2, 101280, Note_on_c, 0, 52, 100
2, 101520, Note_on_c, 0, 52, 0
2, 101520, Note_on_c, 0, 50, 100
2, 101760, Note_on_c, 0, 50, 0
2, 101760, Note_on_c, 0, 49, 100
2, 102000, Note_on_c, 0, 49, 0
2, 102000, Note_on_c, 0, 50, 100
2, 102240, Note_on_c, 0, 50, 0
2, 102240, Note_on_c, 0, 47, 100
2, 102480, Note_on_c, 0, 47, 0
2, 102480, Note_on_c, 0, 49, 100
2, 102720, Note_on_c, 0, 49, 0
2, 102720, Note_on_c, 0, 50, 100
2, 102960, Note_on_c, 0, 50, 0
2, 102960, Note_on_c, 0, 52, 100
2, 103200, Note_on_c, 0, 52, 0
2, 103200, Note_on_c, 0, 54, 100
2, 103440, Note_on_c, 0, 54, 0
2, 103440, Note_on_c, 0, 55, 100
2, 103680, Note_on_c, 0, 55, 0
2, 103680, Note_on_c, 0, 57, 100
2, 103920, Note_on_c, 0, 57, 0
2, 103920, Note_on_c, 0, 55, 100
2, 104160, Note_on_c, 0, 55, 0
2, 104160, Note_on_c, 0, 54, 100
2, 104400, Note_on_c, 0, 54, 0
2, 104400, Note_on_c, 0, 55, 100
2, 104640, Note_on_c, 0, 55, 0
2, 104640, Note_on_c, 0, 57, 100
2, 104880, Note_on_c, 0, 57, 0
2, 104880, Note_on_c, 0, 59, 100
2, 105120, Note_on_c, 0, 59, 0
2, 105120, Note_on_c, 0, 60, 100
2, 105600, Note_on_c, 0, 60, 0
2, 105600, Note_on_c, 0, 39, 100
2, 106080, Note_on_c, 0, 39, 0
2, 106080, Note_on_c, 0, 60, 100
2, 106560, Note_on_c, 0, 60, 0
2, 106560, Note_on_c, 0, 59, 100
2, 106800, Note_on_c, 0, 59, 0
2, 106800, Note_on_c, 0, 57, 100
2, 107040, Note_on_c, 0, 57, 0
2, 107040, Note_on_c, 0, 60, 100
2, 107280, Note_on_c, 0, 60, 0
2, 107280, Note_on_c, 0, 59, 100
2, 107520, Note_on_c, 0, 59, 0
2, 107520, Note_on_c, 0, 57, 100
2, 107760, Note_on_c, 0, 57, 0
2, 107760, Note_on_c, 0, 55, 100
2, 108000, Note_on_c, 0, 55, 0
2, 108000, Note_on_c, 0, 54, 100
2, 108240, Note_on_c, 0, 54, 0
2, 108240, Note_on_c, 0, 55, 100
2, 108480, Note_on_c, 0, 55, 0
2, 108480, Note_on_c, 0, 57, 100
2, 108720, Note_on_c, 0, 57, 0
2, 108720, Note_on_c, 0, 54, 100
2, 108960, Note_on_c, 0, 54, 0
2, 108960, Note_on_c, 0, 55, 100
2, 109200, Note_on_c, 0, 55, 0
2, 109200, Note_on_c, 0, 52, 100
2, 109440, Note_on_c, 0, 52, 0
2, 109440, Pitch_bend_c, 0, 12288
2, 109440, Note_on_c, 0, 49, 100
2, 109500, Pitch_bend_c, 0, 8192
2, 109560, Pitch_bend_c, 0, 12288
2, 109620, Pitch_bend_c, 0, 8192
2, 109920, Note_on_c, 0, 49, 0
2, 109920, Note_on_c, 0, 45, 100
2, 110160, Note_on_c, 0, 45, 0
2, 110160, Note_on_c, 0, 47, 100
2, 110400, Note_on_c, 0, 47, 0
2, 110400, Note_on_c, 0, 49, 100
2, 110640, Note_on_c, 0, 49, 0
2, 110640, Note_on_c, 0, 50, 100
2, 110880, Note_on_c, 0, 50, 0
2, 110880, Note_on_c, 0, 52, 100
2, 111120, Note_on_c, 0, 52, 0
2, 111120, Note_on_c, 0, 54, 100
2, 111360, Note_on_c, 0, 54, 0
2, 111360, Note_on_c, 0, 55, 100
2, 111600, Note_on_c, 0, 55, 0
2, 111600, Note_on_c, 0, 59, 100
2, 111840, Note_on_c, 0, 59, 0
2, 111840, Note_on_c, 0, 57, 100
2, 112320, Note_on_c, 0, 57, 0
2, 112320, Note_on_c, 0, 55, 100
2, 112560, Note_on_c, 0, 55, 0
2, 112560, Note_on_c, 0, 54, 100
2, 112800, Note_on_c, 0, 54, 0
2, 112800, Note_on_c, 0, 52, 100
2, 113040, Note_on_c, 0, 52, 0
2, 113040, Note_on_c, 0, 50, 100
2, 113280, Note_on_c, 0, 50, 0
2, 113280, Note_on_c, 0, 52, 100
2, 113520, Note_on_c, 0, 52, 0
2, 113520, Note_on_c, 0, 49, 100
2, 113760, Note_on_c, 0, 49, 0
2, 113760, Note_on_c, 0, 50, 100
2, 115200, Note_on_c, 0, 50, 0
2, 115200, Note_on_c, 0, 61, 100
2, 115680, Note_on_c, 0, 61, 0
2, 115680, Note_on_c, 0, 64, 100
2, 115920, Note_on_c, 0, 64, 0
2, 115920, Note_on_c, 0, 62, 100
2, 116160, Note_on_c, 0, 62, 0
2, 116160, Note_on_c, 0, 61, 100
2, 116400, Note_on_c, 0, 61, 0
2, 116400, Note_on_c, 0, 59, 100
2, 116640, Note_on_c, 0, 59, 0
2, 116640, Note_on_c, 0, 61, 100
2, 117120, Note_on_c, 0, 61, 0
2, 117120, Note_on_c, 0, 43, 100
2, 117600, Note_on_c, 0, 43, 0
2, 117600, Note_on_c, 0, 61, 100
2, 118080, Note_on_c, 0, 61, 0
2, 118080, Note_on_c, 0, 54, 100
2, 118320, Note_on_c, 0, 54, 0
2, 118320, Note_on_c, 0, 57, 100
2, 118560, Note_on_c, 0, 57, 0
2, 118560, Note_on_c, 0, 62, 100
2, 119040, Note_on_c, 0, 62, 0
2, 119040, Note_on_c, 0, 66, 100
2, 119520, Note_on_c, 0, 66, 0
2, 119520, Note_on_c, 0, 59, 100
2, 119760, Note_on_c, 0, 59, 0
2, 119760, Note_on_c, 0, 57, 100
2, 120000, Note_on_c, 0, 57, 0
2, 120000, Note_on_c, 0, 55, 100
2, 120240, Note_on_c, 0, 55, 0
2, 120240, Note_on_c, 0, 54, 100
2, 120480, Note_on_c, 0, 54, 0
2, 120480, Note_on_c, 0, 55, 100
2, 120720, Note_on_c, 0, 55, 0
2, 120720, Note_on_c, 0, 59, 100
2, 120960, Note_on_c, 0, 59, 0
2, 120960, Note_on_c, 0, 52, 100
2, 121200, Note_on_c, 0, 52, 0
2, 121200, Note_on_c, 0, 62, 100
2, 121440, Note_on_c, 0, 62, 0
2, 121440, Note_on_c, 0, 61, 100
2, 121680, Note_on_c, 0, 61, 0
2, 121680, Note_on_c, 0, 59, 100
2, 121920, Note_on_c, 0, 59, 0
2, 121920, Note_on_c, 0, 61, 100
2, 122160, Note_on_c, 0, 61, 0
2, 122160, Note_on_c, 0, 58, 100
2, 122400, Note_on_c, 0, 58, 0
2, 122400, Note_on_c, 0, 50, 100
2, 122640, Note_on_c, 0, 50, 0
2, 122640, Note_on_c, 0, 59, 100
2, 122880, Note_on_c, 0, 59, 0
2, 122880, Note_on_c, 0, 57, 100
2, 123120, Note_on_c, 0, 57, 0
2, 123120, Note_on_c, 0, 55, 100
2, 123360, Note_on_c, 0, 55, 0
2, 123360, Note_on_c, 0, 54, 100
2, 123600, Note_on_c, 0, 54, 0
2, 123600, Note_on_c, 0, 52, 100
2, 123840, Note_on_c, 0, 52, 0
2, 123840, Note_on_c, 0, 55, 100
2, 124080, Note_on_c, 0, 55, 0
2, 124080, Note_on_c, 0, 54, 100
2, 124320, Note_on_c, 0, 54, 0
2, 124320, Note_on_c, 0, 52, 100
2, 124560, Note_on_c, 0, 52, 0
2, 124560, Note_on_c, 0, 50, 100
2, 124800, Note_on_c, 0, 50, 0
2, 124800, Note_on_c, 0, 49, 100
2, 125040, Note_on_c, 0, 49, 0
2, 125040, Note_on_c, 0, 50, 100
2, 125280, Note_on_c, 0, 50, 0
2, 125280, Note_on_c, 0, 47, 100
2, 125520, Note_on_c, 0, 47, 0
2, 125520, Note_on_c, 0, 49, 100
2, 125760, Note_on_c, 0, 49, 0
2, 125760, Note_on_c, 0, 50, 100
2, 126000, Note_on_c, 0, 50, 0
2, 126000, Note_on_c, 0, 52, 100
2, 126240, Note_on_c, 0, 52, 0
2, 126240, Note_on_c, 0, 54, 100
2, 126480, Note_on_c, 0, 54, 0
2, 126480, Note_on_c, 0, 55, 100
2, 126720, Note_on_c, 0, 55, 0
2, 126720, Note_on_c, 0, 57, 100
2, 126960, Note_on_c, 0, 57, 0
2, 126960, Note_on_c, 0, 55, 100
2, 127200, Note_on_c, 0, 55, 0
2, 127200, Note_on_c, 0, 54, 100
2, 127440, Note_on_c, 0, 54, 0
2, 127440, Note_on_c, 0, 55, 100
2, 127680, Note_on_c, 0, 55, 0
2, 127680, Note_on_c, 0, 57, 100
2, 127920, Note_on_c, 0, 57, 0
2, 127920, Note_on_c, 0, 59, 100
2, 128160, Note_on_c, 0, 59, 0
2, 128160, Note_on_c, 0, 60, 100
2, 128640, Note_on_c, 0, 60, 0
2, 128640, Note_on_c, 0, 39, 100
2, 129120, Note_on_c, 0, 39, 0
2, 129120, Note_on_c, 0, 60, 100
2, 129600, Note_on_c, 0, 60, 0
2, 129600, Note_on_c, 0, 59, 100
2, 129840, Note_on_c, 0, 59, 0
2, 129840, Note_on_c, 0, 57, 100
2, 130080, Note_on_c, 0, 57, 0
2, 130080, Note_on_c, 0, 60, 100
2, 130320, Note_on_c, 0, 60, 0
2, 130320, Note_on_c, 0, 59, 100
2, 130560, Note_on_c, 0, 59, 0
2, 130560, Note_on_c, 0, 57, 100
2, 130800, Note_on_c, 0, 57, 0
2, 130800, Note_on_c, 0, 55, 100
2, 131040, Note_on_c, 0, 55, 0
2, 131040, Note_on_c, 0, 54, 100
2, 131280, Note_on_c, 0, 54, 0
2, 131280, Note_on_c, 0, 55, 100
2, 131520, Note_on_c, 0, 55, 0
2, 131520, Note_on_c, 0, 57, 100
2, 131760, Note_on_c, 0, 57, 0
2, 131760, Note_on_c, 0, 54, 100
2, 132000, Note_on_c, 0, 54, 0
2, 132000, Note_on_c, 0, 55, 100
2, 132240, Note_on_c, 0, 55, 0
2, 132240, Note_on_c, 0, 52, 100
2, 132480, Note_on_c, 0, 52, 0
2, 132480, Pitch_bend_c, 0, 12288
2, 132480, Note_on_c, 0, 49, 100
2, 132540, Pitch_bend_c, 0, 8192
2, 132600, Pitch_bend_c, 0, 12288
2, 132660, Pitch_bend_c, 0, 8192
2, 132960, Note_on_c, 0, 49, 0
2, 132960, Note_on_c, 0, 45, 100
2, 133200, Note_on_c, 0, 45, 0
2, 133200, Note_on_c, 0, 47, 100
2, 133440, Note_on_c, 0, 47, 0
2, 133440, Note_on_c, 0, 49, 100
2, 133680, Note_on_c, 0, 49, 0
2, 133680, Note_on_c, 0, 50, 100
2, 133920, Note_on_c, 0, 50, 0
2, 133920, Note_on_c, 0, 52, 100
2, 134160, Note_on_c, 0, 52, 0
2, 134160, Note_on_c, 0, 54, 100
2, 134400, Note_on_c, 0, 54, 0
2, 134400, Note_on_c, 0, 55, 100
2, 134640, Note_on_c, 0, 55, 0
2, 134640, Note_on_c, 0, 59, 100
2, 134880, Note_on_c, 0, 59, 0
2, 134880, Note_on_c, 0, 57, 100
2, 135360, Note_on_c, 0, 57, 0
2, 135360, Note_on_c, 0, 55, 100
2, 135600, Note_on_c, 0, 55, 0
2, 135600, Note_on_c, 0, 54, 100
2, 135840, Note_on_c, 0, 54, 0
2, 135840, Note_on_c, 0, 52, 100
2, 136080, Note_on_c, 0, 52, 0
2, 136080, Note_on_c, 0, 50, 100
2, 136320, Note_on_c, 0, 50, 0
2, 136320, Note_on_c, 0, 52, 100
2, 136560, Note_on_c, 0, 52, 0
2, 136560, Note_on_c, 0, 49, 100
2, 136800, Note_on_c, 0, 49, 0
2, 136800, Note_on_c, 0, 50, 100
2, 138240, Note_on_c, 0, 50, 0
2, 138240, Note_on_c, 0, 57, 100
2, 139200, Note_on_c, 0, 57, 0
2, 139200, Note_on_c, 0, 58, 100
2, 139680, Note_on_c, 0, 58, 0
2, 139680, Note_on_c, 0, 58, 100
2, 139920, Note_on_c, 0, 58, 0
2, 139920, Note_on_c, 0, 57, 100
2, 140160, Note_on_c, 0, 57, 0
2, 140160, Note_on_c, 0, 58, 100
2, 140400, Note_on_c, 0, 58, 0
2, 140400, Note_on_c, 0, 55, 100
2, 140640, Note_on_c, 0, 55, 0
2, 140640, Note_on_c, 0, 57, 100
2, 141120, Note_on_c, 0, 57, 0
2, 141120, Note_on_c, 0, 50, 100
2, 141600, Note_on_c, 0, 50, 0
2, 141600, Note_on_c, 0, 55, 100
2, 142080, Note_on_c, 0, 55, 0
2, 142080, Note_on_c, 0, 53, 100
2, 142320, Note_on_c, 0, 53, 0
2, 142320, Note_on_c, 0, 52, 100
2, 142560, Note_on_c, 0, 52, 0
2, 142560, Note_on_c, 0, 53, 100
2, 142800, Note_on_c, 0, 53, 0
2, 142800, Note_on_c, 0, 52, 100
2, 143040, Note_on_c, 0, 52, 0
2, 143040, Note_on_c, 0, 50, 100
2, 143280, Note_on_c, 0, 50, 0
2, 143280, Note_on_c, 0, 49, 100
2, 143520, Note_on_c, 0, 49, 0
2, 143520, Note_on_c, 0, 47, 100
2, 143760, Note_on_c, 0, 47, 0
2, 143760, Note_on_c, 0, 45, 100
2, 144000, Note_on_c, 0, 45, 0
2, 144000, Note_on_c, 0, 57, 100
2, 144960, Note_on_c, 0, 57, 0
2, 144960, Note_on_c, 0, 58, 100
2, 145440, Note_on_c, 0, 58, 0
2, 145440, Note_on_c, 0, 58, 100
2, 145680, Note_on_c, 0, 58, 0
2, 145680, Note_on_c, 0, 57, 100
2, 145920, Note_on_c, 0, 57, 0
2, 145920, Note_on_c, 0, 58, 100
2, 146160, Note_on_c, 0, 58, 0
2, 146160, Note_on_c, 0, 55, 100
2, 146400, Note_on_c, 0, 55, 0
2, 146400, Note_on_c, 0, 60, 100
2, 146880, Note_on_c, 0, 60, 0
2, 146880, Note_on_c, 0, 57, 100
2, 147360, Note_on_c, 0, 57, 0
2, 147360, Note_on_c, 0, 62, 100
2, 147840, Note_on_c, 0, 62, 0
2, 147840, Note_on_c, 0, 64, 100
2, 148320, Note_on_c, 0, 64, 0
2, 148320, Note_on_c, 0, 61, 100
2, 149760, Note_on_c, 0, 61, 0
2, 149760, Note_on_c, 0, 61, 100
2, 150720, Note_on_c, 0, 61, 0
2, 150720, Note_on_c, 0, 62, 100
2, 150960, Note_on_c, 0, 62, 0
2, 150960, Note_on_c, 0, 64, 100
2, 151080, Note_on_c, 0, 64, 0
2, 151080, Note_on_c, 0, 65, 100
2, 151200, Note_on_c, 0, 65, 0
2, 151200, Note_on_c, 0, 64, 100
2, 151440, Note_on_c, 0, 64, 0
2, 151440, Note_on_c, 0, 62, 100
2, 151680, Note_on_c, 0, 62, 0
2, 151680, Note_on_c, 0, 61, 100
2, 151920, Note_on_c, 0, 61, 0
2, 151920, Note_on_c, 0, 64, 100
2, 152160, Note_on_c, 0, 64, 0
2, 152160, Note_on_c, 0, 57, 100
2, 152400, Note_on_c, 0, 57, 0
2, 152400, Note_on_c, 0, 55, 100
2, 152640, Note_on_c, 0, 55, 0
2, 152640, Note_on_c, 0, 57, 100
2, 153120, Note_on_c, 0, 57, 0
2, 153120, Note_on_c, 0, 62, 100
2, 153600, Note_on_c, 0, 62, 0
2, 153600, Note_on_c, 0, 61, 100
2, 154080, Note_on_c, 0, 61, 0
2, 154080, Note_on_c, 0, 67, 100
2, 154320, Note_on_c, 0, 67, 0
2, 154320, Note_on_c, 0, 65, 100
2, 154560, Note_on_c, 0, 65, 0
2, 154560, Note_on_c, 0, 64, 100
2, 154800, Note_on_c, 0, 64, 0
2, 154800, Note_on_c, 0, 65, 100
2, 155040, Note_on_c, 0, 65, 0
2, 155040, Note_on_c, 0, 62, 100
2, 155280, Note_on_c, 0, 62, 0
2, 155280, Note_on_c, 0, 60, 100
2, 155520, Note_on_c, 0, 60, 0
2, 155520, Note_on_c, 0, 58, 100
2, 156480, Note_on_c, 0, 58, 0
2, 156480, Note_on_c, 0, 60, 100
2, 156960, Note_on_c, 0, 60, 0
2, 156960, Note_on_c, 0, 57, 100
2, 157200, Note_on_c, 0, 57, 0
2, 157200, Note_on_c, 0, 55, 100
2, 157440, Note_on_c, 0, 55, 0
2, 157440, Note_on_c, 0, 57, 100
2, 157680, Note_on_c, 0, 57, 0
2, 157680, Note_on_c, 0, 53, 100
2, 157920, Note_on_c, 0, 53, 0
2, 157920, Note_on_c, 0, 52, 100
2, 158400, Note_on_c, 0, 52, 0
2, 158400, Note_on_c, 0, 53, 100
2, 158880, Note_on_c, 0, 53, 0
2, 161280, Note_on_c, 0, 54, 100
2, 162240, Note_on_c, 0, 54, 0
2, 162240, Note_on_c, 0, 58, 100
2, 162720, Note_on_c, 0, 58, 0
2, 162720, Note_on_c, 0, 60, 100
2, 162960, Note_on_c, 0, 60, 0
2, 162960, Note_on_c, 0, 58, 100
2, 163200, Note_on_c, 0, 58, 0
2, 163200, Note_on_c, 0, 60, 100
2, 163440, Note_on_c, 0, 60, 0
2, 163440, Note_on_c, 0, 57, 100
2, 163680, Note_on_c, 0, 57, 0
2, 163680, Pitch_bend_c, 0, 12288
2, 163680, Note_on_c, 0, 54, 100
2, 163740, Pitch_bend_c, 0, 8192
2, 163800, Pitch_bend_c, 0, 12288
2, 163860, Pitch_bend_c, 0, 8192
2, 164160, Note_on_c, 0, 54, 0
2, 164160, Note_on_c, 0, 62, 100
2, 164640, Note_on_c, 0, 62, 0
2, 164640, Note_on_c, 0, 60, 100
2, 165120, Note_on_c, 0, 60, 0
2, 165120, Note_on_c, 0, 58, 100
2, 165360, Note_on_c, 0, 58, 0
2, 165360, Note_on_c, 0, 57, 100
2, 165600, Note_on_c, 0, 57, 0
2, 165600, Note_on_c, 0, 60, 100
2, 165840, Note_on_c, 0, 60, 0
2, 165840, Note_on_c, 0, 58, 100
2, 166080, Note_on_c, 0, 58, 0
2, 166080, Note_on_c, 0, 57, 100
2, 166320, Note_on_c, 0, 57, 0
2, 166320, Note_on_c, 0, 58, 100
2, 166560, Note_on_c, 0, 58, 0
2, 166560, Note_on_c, 0, 55, 100
2, 166800, Note_on_c, 0, 55, 0
2, 166800, Note_on_c, 0, 58, 100
2, 167040, Note_on_c, 0, 58, 0
2, 167040, Note_on_c, 0, 62, 100
2, 167520, Note_on_c, 0, 62, 0
2, 167520, Note_on_c, 0, 61, 100
2, 168000, Note_on_c, 0, 61, 0
2, 168000, Note_on_c, 0, 62, 100
2, 168480, Note_on_c, 0, 62, 0
2, 168480, Note_on_c, 0, 55, 100
2, 168720, Note_on_c, 0, 55, 0
2, 168720, Note_on_c, 0, 53, 100
2, 168960, Note_on_c, 0, 53, 0
2, 168960, Note_on_c, 0, 55, 100
2, 169200, Note_on_c, 0, 55, 0
2, 169200, Note_on_c, 0, 52, 100
2, 169440, Note_on_c, 0, 52, 0
2, 169440, Note_on_c, 0, 53, 100
2, 169920, Note_on_c, 0, 53, 0
2, 169920, Note_on_c, 0, 43, 100
2, 170160, Note_on_c, 0, 43, 0
2, 170160, Note_on_c, 0, 55, 100
2, 170400, Note_on_c, 0, 55, 0
2, 170400, Pitch_bend_c, 0, 12288
2, 170400, Note_on_c, 0, 52, 100
2, 170480, Pitch_bend_c, 0, 8192
2, 170560, Pitch_bend_c, 0, 12288
2, 170640, Pitch_bend_c, 0, 8192
2, 171120, Note_on_c, 0, 52, 0
2, 171120, Note_on_c, 0, 50, 100
2, 171360, Note_on_c, 0, 50, 0
2, 171360, Note_on_c, 0, 50, 100
2, 172800, Note_on_c, 0, 50, 0
2, 172800, End_track
3, 0, Start_track
3, 0, MIDI_port, 0
3, 0, Title_t, "--------------------------------------"
3, 0, Program_c, 1, 42
3, 0, Control_c, 1, 7, 100
3, 0, Control_c, 1, 10, 74
3, 0, Note_on_c, 1, 53, 100
3, 960, Note_on_c, 1, 53, 0
3, 1440, Note_on_c, 1, 52, 100
3, 1680, Note_on_c, 1, 52, 0
3, 5760, Note_on_c, 1, 53, 100
3, 6720, Note_on_c, 1, 53, 0
3, 7200, Note_on_c, 1, 52, 100
3, 7440, Note_on_c, 1, 52, 0
3, 8640, Note_on_c, 1, 53, 100
3, 9120, Note_on_c, 1, 53, 0
3, 9120, Note_on_c, 1, 53, 100
3, 9600, Note_on_c, 1, 53, 0
3, 9600, Note_on_c, 1, 55, 100
3, 10080, Note_on_c, 1, 55, 0
3, 10080, Note_on_c, 1, 52, 100
3, 11520, Note_on_c, 1, 52, 0
3, 11520, Note_on_c, 1, 53, 100
3, 12480, Note_on_c, 1, 53, 0
3, 12960, Note_on_c, 1, 52, 100
3, 13200, Note_on_c, 1, 52, 0
3, 17280, Note_on_c, 1, 53, 100
3, 18240, Note_on_c, 1, 53, 0
3, 18720, Note_on_c, 1, 52, 100
3, 18960, Note_on_c, 1, 52, 0
3, 20160, Note_on_c, 1, 53, 100
3, 20640, Note_on_c, 1, 53, 0
3, 20640, Note_on_c, 1, 53, 100
3, 21120, Note_on_c, 1, 53, 0
3, 21120, Note_on_c, 1, 55, 100
3, 21600, Note_on_c, 1, 55, 0
3, 21600, Note_on_c, 1, 52, 100
3, 23040, Note_on_c, 1, 52, 0
3, 23040, Note_on_c, 1, 57, 100
3, 24000, Note_on_c, 1, 57, 0
3, 24480, Note_on_c, 1, 55, 100
3, 24720, Note_on_c, 1, 55, 0
3, 25920, Note_on_c, 1, 53, 100
3, 26880, Note_on_c, 1, 53, 0
3, 26880, Note_on_c, 1, 52, 100
3, 27360, Note_on_c, 1, 52, 0
3, 27360, Note_on_c, 1, 50, 100
3, 27600, Note_on_c, 1, 50, 0
3, 28800, Note_on_c, 1, 55, 100
3, 29280, Note_on_c, 1, 55, 0
3, 29280, Note_on_c, 1, 53, 100
3, 29760, Note_on_c, 1, 53, 0
3, 29760, Note_on_c, 1, 52, 100
3, 30240, Note_on_c, 1, 52, 0
3, 30240, Note_on_c, 1, 53, 100
3, 30480, Note_on_c, 1, 53, 0
3, 31200, Note_on_c, 1, 46, 100
3, 31680, Note_on_c, 1, 46, 0
3, 31680, Note_on_c, 1, 45, 100
3, 32160, Note_on_c, 1, 45, 0
3, 36000, Note_on_c, 1, 51, 100
3, 36240, Note_on_c, 1, 51, 0
3, 37440, Note_on_c, 1, 55, 100
3, 37920, Note_on_c, 1, 55, 0
3, 37920, Note_on_c, 1, 55, 100
3, 38400, Note_on_c, 1, 55, 0
3, 38880, Note_on_c, 1, 50, 100
3, 39120, Note_on_c, 1, 50, 0
3, 40320, Note_on_c, 1, 55, 100
3, 40800, Note_on_c, 1, 55, 0
3, 41280, Note_on_c, 1, 53, 100
3, 41760, Note_on_c, 1, 53, 0
3, 41760, Note_on_c, 1, 49, 100
3, 42000, Note_on_c, 1, 49, 0
3, 42720, Note_on_c, 1, 50, 100
3, 43200, Note_on_c, 1, 50, 0
3, 43680, Note_on_c, 1, 45, 100
3, 44400, Note_on_c, 1, 45, 0
3, 44640, Note_on_c, 1, 38, 100
3, 46080, Note_on_c, 1, 38, 0
3, 46080, Note_on_c, 1, 57, 100
3, 47040, Note_on_c, 1, 57, 0
3, 47520, Note_on_c, 1, 55, 100
3, 47760, Note_on_c, 1, 55, 0
3, 48960, Note_on_c, 1, 53, 100
3, 49920, Note_on_c, 1, 53, 0
3, 49920, Note_on_c, 1, 52, 100
3, 50400, Note_on_c, 1, 52, 0
3, 50400, Note_on_c, 1, 50, 100
3, 50640, Note_on_c, 1, 50, 0
3, 51840, Note_on_c, 1, 55, 100
3, 52320, Note_on_c, 1, 55, 0
3, 52320, Note_on_c, 1, 53, 100
3, 52800, Note_on_c, 1, 53, 0
3, 52800, Note_on_c, 1, 52, 100
3, 53280, Note_on_c, 1, 52, 0
3, 53280, Note_on_c, 1, 53, 100
3, 53520, Note_on_c, 1, 53, 0
3, 54240, Note_on_c, 1, 46, 100
3, 54720, Note_on_c, 1, 46, 0
3, 54720, Note_on_c, 1, 45, 100
3, 55200, Note_on_c, 1, 45, 0
3, 59040, Note_on_c, 1, 51, 100
3, 59280, Note_on_c, 1, 51, 0
3, 60480, Note_on_c, 1, 55, 100
3, 60960, Note_on_c, 1, 55, 0
3, 60960, Note_on_c, 1, 55, 100
3, 61440, Note_on_c, 1, 55, 0
3, 61920, Note_on_c, 1, 50, 100
3, 62160, Note_on_c, 1, 50, 0
3, 63360, Note_on_c, 1, 55, 100
3, 63840, Note_on_c, 1, 55, 0
3, 64320, Note_on_c, 1, 53, 100
3, 64800, Note_on_c, 1, 53, 0
3, 64800, Note_on_c, 1, 49, 100
3, 65040, Note_on_c, 1, 49, 0
3, 65760, Note_on_c, 1, 50, 100
3, 66240, Note_on_c, 1, 50, 0
3, 66720, Note_on_c, 1, 45, 100
3, 67440, Note_on_c, 1, 45, 0
3, 67680, Note_on_c, 1, 38, 100
3, 69120, Note_on_c, 1, 38, 0
3, 79200, Note_on_c, 1, 45, 100
3, 80640, Note_on_c, 1, 45, 0
3, 90720, Note_on_c, 1, 45, 100
3, 92160, Note_on_c, 1, 45, 0
3, 138240, Note_on_c, 1, 53, 100
3, 139200, Note_on_c, 1, 53, 0
3, 139680, Note_on_c, 1, 52, 100
3, 139920, Note_on_c, 1, 52, 0
3, 144000, Note_on_c, 1, 53, 100
3, 144960, Note_on_c, 1, 53, 0
3, 145440, Note_on_c, 1, 52, 100
3, 145680, Note_on_c, 1, 52, 0
3, 146880, Note_on_c, 1, 53, 100
3, 147360, Note_on_c, 1, 53, 0
3, 147360, Note_on_c, 1, 53, 100
3, 147840, Note_on_c, 1, 53, 0
3, 147840, Note_on_c, 1, 55, 100
3, 148320, Note_on_c, 1, 55, 0
3, 148320, Note_on_c, 1, 52, 100
3, 149760, Note_on_c, 1, 52, 0
3, 149760, Note_on_c, 1, 57, 100
3, 150720, Note_on_c, 1, 57, 0
3, 151200, Note_on_c, 1, 55, 100
3, 151440, Note_on_c, 1, 55, 0
3, 152640, Note_on_c, 1, 53, 100
3, 153600, Note_on_c, 1, 53, 0
3, 153600, Note_on_c, 1, 52, 100
3, 154080, Note_on_c, 1, 52, 0
3, 154080, Note_on_c, 1, 50, 100
3, 154320, Note_on_c, 1, 50, 0
3, 155520, Note_on_c, 1, 55, 100
3, 156000, Note_on_c, 1, 55, 0
3, 156000, Note_on_c, 1, 53, 100
3, 156480, Note_on_c, 1, 53, 0
3, 156480, Note_on_c, 1, 52, 100
3, 156960, Note_on_c, 1, 52, 0
3, 156960, Note_on_c, 1, 53, 100
3, 157200, Note_on_c, 1, 53, 0
3, 157920, Note_on_c, 1, 46, 100
3, 158400, Note_on_c, 1, 46, 0
3, 158400, Note_on_c, 1, 45, 100
3, 158880, Note_on_c, 1, 45, 0
3, 162720, Note_on_c, 1, 51, 100
3, 162960, Note_on_c, 1, 51, 0
3, 164160, Note_on_c, 1, 55, 100
3, 164640, Note_on_c, 1, 55, 0
3, 164640, Note_on_c, 1, 55, 100
3, 165120, Note_on_c, 1, 55, 0
3, 165600, Note_on_c, 1, 50, 100
3, 165840, Note_on_c, 1, 50, 0
3, 167040, Note_on_c, 1, 55, 100
3, 167520, Note_on_c, 1, 55, 0
3, 168000, Note_on_c, 1, 53, 100
3, 168480, Note_on_c, 1, 53, 0
3, 168480, Note_on_c, 1, 49, 100
3, 168720, Note_on_c, 1, 49, 0
3, 169440, Note_on_c, 1, 50, 100
3, 169920, Note_on_c, 1, 50, 0
3, 170400, Note_on_c, 1, 45, 100
3, 171120, Note_on_c, 1, 45, 0
3, 171360, Note_on_c, 1, 38, 100
3, 172800, Note_on_c, 1, 38, 0
3, 172800, End_track
4, 0, Start_track
4, 0, MIDI_port, 0
4, 0, Title_t, "Johann Sebastian Bach  (1685-1750)"
4, 0, Program_c, 2, 42
4, 0, Control_c, 2, 7, 100
4, 0, Control_c, 2, 10, 54
4, 0, Note_on_c, 2, 50, 100
4, 960, Note_on_c, 2, 50, 0
4, 1440, Note_on_c, 2, 48, 100
4, 1680, Note_on_c, 2, 48, 0
4, 2880, Note_on_c, 2, 46, 100
4, 3360, Note_on_c, 2, 46, 0
4, 4320, Note_on_c, 2, 45, 100
4, 4560, Note_on_c, 2, 45, 0
4, 5760, Note_on_c, 2, 50, 100
4, 6720, Note_on_c, 2, 50, 0
4, 9120, Note_on_c, 2, 46, 100
4, 9600, Note_on_c, 2, 46, 0
4, 9600, Note_on_c, 2, 43, 100
4, 10080, Note_on_c, 2, 43, 0
4, 10080, Note_on_c, 2, 45, 100
4, 11520, Note_on_c, 2, 45, 0
4, 11520, Note_on_c, 2, 50, 100
4, 12480, Note_on_c, 2, 50, 0
4, 12960, Note_on_c, 2, 48, 100
4, 13200, Note_on_c, 2, 48, 0
4, 14400, Note_on_c, 2, 46, 100
4, 14880, Note_on_c, 2, 46, 0
4, 15840, Note_on_c, 2, 45, 100
4, 16080, Note_on_c, 2, 45, 0
4, 17280, Note_on_c, 2, 50, 100
4, 18240, Note_on_c, 2, 50, 0
4, 20640, Note_on_c, 2, 46, 100
4, 21120, Note_on_c, 2, 46, 0
4, 21120, Note_on_c, 2, 43, 100
4, 21600, Note_on_c, 2, 43, 0
4, 21600, Note_on_c, 2, 45, 100
4, 23040, Note_on_c, 2, 45, 0
4, 23040, Note_on_c, 2, 64, 1
4, 24000, Note_on_c, 2, 64, 0
4, 31200, Note_on_c, 2, 62, 100
4, 31680, Note_on_c, 2, 62, 0
4, 31680, Note_on_c, 2, 60, 100
4, 32160, Note_on_c, 2, 60, 0
4, 32160, Note_on_c, 2, 58, 100
4, 32400, Note_on_c, 2, 58, 0
4, 32400, Note_on_c, 2, 57, 100
4, 32640, Note_on_c, 2, 57, 0
4, 32640, Note_on_c, 2, 55, 100
4, 32880, Note_on_c, 2, 55, 0
4, 32880, Note_on_c, 2, 57, 100
4, 33120, Note_on_c, 2, 57, 0
4, 33120, Note_on_c, 2, 53, 100
4, 33360, Note_on_c, 2, 53, 0
4, 33360, Note_on_c, 2, 52, 100
4, 33600, Note_on_c, 2, 52, 0
4, 33600, Note_on_c, 2, 53, 100
4, 33840, Note_on_c, 2, 53, 0
4, 33840, Note_on_c, 2, 57, 100
4, 34080, Note_on_c, 2, 57, 0
4, 34080, Note_on_c, 2, 55, 100
4, 34320, Note_on_c, 2, 55, 0
4, 34320, Note_on_c, 2, 58, 100
4, 34560, Note_on_c, 2, 58, 0
4, 34560, Pitch_bend_c, 2, 12288
4, 34560, Note_on_c, 2, 57, 100
4, 34640, Pitch_bend_c, 2, 8192
4, 34720, Pitch_bend_c, 2, 12288
4, 34800, Pitch_bend_c, 2, 8192
4, 35520, Note_on_c, 2, 57, 0
4, 37440, Note_on_c, 2, 46, 100
4, 37920, Note_on_c, 2, 46, 0
4, 37920, Note_on_c, 2, 48, 100
4, 38400, Note_on_c, 2, 48, 0
4, 38400, Note_on_c, 2, 50, 100
4, 38880, Note_on_c, 2, 50, 0
4, 38880, Note_on_c, 2, 43, 100
4, 39120, Note_on_c, 2, 43, 0
4, 44640, Note_on_c, 2, 45, 100
4, 46080, Note_on_c, 2, 45, 0
4, 46080, Note_on_c, 2, 64, 1
4, 47040, Note_on_c, 2, 64, 0
4, 54240, Note_on_c, 2, 62, 100
4, 54720, Note_on_c, 2, 62, 0
4, 54720, Note_on_c, 2, 60, 100
4, 55200, Note_on_c, 2, 60, 0
4, 55200, Note_on_c, 2, 58, 100
4, 55440, Note_on_c, 2, 58, 0
4, 55440, Note_on_c, 2, 57, 100
4, 55680, Note_on_c, 2, 57, 0
4, 55680, Note_on_c, 2, 55, 100
4, 55920, Note_on_c, 2, 55, 0
4, 55920, Note_on_c, 2, 57, 100
4, 56160, Note_on_c, 2, 57, 0
4, 56160, Note_on_c, 2, 53, 100
4, 56400, Note_on_c, 2, 53, 0
4, 56400, Note_on_c, 2, 52, 100
4, 56640, Note_on_c, 2, 52, 0
4, 56640, Note_on_c, 2, 53, 100
4, 56880, Note_on_c, 2, 53, 0
4, 56880, Note_on_c, 2, 57, 100
4, 57120, Note_on_c, 2, 57, 0
4, 57120, Note_on_c, 2, 55, 100
4, 57360, Note_on_c, 2, 55, 0
4, 57360, Note_on_c, 2, 58, 100
4, 57600, Note_on_c, 2, 58, 0
4, 57600, Pitch_bend_c, 2, 12288
4, 57600, Note_on_c, 2, 57, 100
4, 57680, Pitch_bend_c, 2, 8192
4, 57760, Pitch_bend_c, 2, 12288
4, 57840, Pitch_bend_c, 2, 8192
4, 58560, Note_on_c, 2, 57, 0
4, 60480, Note_on_c, 2, 46, 100
4, 60960, Note_on_c, 2, 46, 0
4, 60960, Note_on_c, 2, 48, 100
4, 61440, Note_on_c, 2, 48, 0
4, 61440, Note_on_c, 2, 50, 100
4, 61920, Note_on_c, 2, 50, 0
4, 61920, Note_on_c, 2, 43, 100
4, 62160, Note_on_c, 2, 43, 0
4, 67680, Note_on_c, 2, 45, 100
4, 69120, Note_on_c, 2, 45, 0
4, 138240, Note_on_c, 2, 50, 100
4, 139200, Note_on_c, 2, 50, 0
4, 139680, Note_on_c, 2, 48, 100
4, 139920, Note_on_c, 2, 48, 0
4, 141120, Note_on_c, 2, 46, 100
4, 141600, Note_on_c, 2, 46, 0
4, 142560, Note_on_c, 2, 45, 100
4, 142800, Note_on_c, 2, 45, 0
4, 144000, Note_on_c, 2, 50, 100
4, 144960, Note_on_c, 2, 50, 0
4, 147360, Note_on_c, 2, 46, 100
4, 147840, Note_on_c, 2, 46, 0
4, 147840, Note_on_c, 2, 43, 100
4, 148320, Note_on_c, 2, 43, 0
4, 148320, Note_on_c, 2, 45, 100
4, 149760, Note_on_c, 2, 45, 0
4, 149760, Note_on_c, 2, 64, 1
4, 150720, Note_on_c, 2, 64, 0
4, 157920, Note_on_c, 2, 62, 100
4, 158400, Note_on_c, 2, 62, 0
4, 158400, Note_on_c, 2, 60, 100
4, 158880, Note_on_c, 2, 60, 0
4, 158880, Note_on_c, 2, 58, 100
4, 159120, Note_on_c, 2, 58, 0
4, 159120, Note_on_c, 2, 57, 100
4, 159360, Note_on_c, 2, 57, 0
4, 159360, Note_on_c, 2, 55, 100
4, 159600, Note_on_c, 2, 55, 0
4, 159600, Note_on_c, 2, 57, 100
4, 159840, Note_on_c, 2, 57, 0
4, 159840, Note_on_c, 2, 53, 100
4, 160080, Note_on_c, 2, 53, 0
4, 160080, Note_on_c, 2, 52, 100
4, 160320, Note_on_c, 2, 52, 0
4, 160320, Note_on_c, 2, 53, 100
4, 160560, Note_on_c, 2, 53, 0
4, 160560, Note_on_c, 2, 57, 100
4, 160800, Note_on_c, 2, 57, 0
4, 160800, Note_on_c, 2, 55, 100
4, 161040, Note_on_c, 2, 55, 0
4, 161040, Note_on_c, 2, 58, 100
4, 161280, Note_on_c, 2, 58, 0
4, 161280, Pitch_bend_c, 2, 12288
4, 161280, Note_on_c, 2, 57, 100
4, 161360, Pitch_bend_c, 2, 8192
4, 161440, Pitch_bend_c, 2, 12288
4, 161520, Pitch_bend_c, 2, 8192
4, 162240, Note_on_c, 2, 57, 0
4, 164160, Note_on_c, 2, 46, 100
4, 164640, Note_on_c, 2, 46, 0
4, 164640, Note_on_c, 2, 48, 100
4, 165120, Note_on_c, 2, 48, 0
4, 165120, Note_on_c, 2, 50, 100
4, 165600, Note_on_c, 2, 50, 0
4, 165600, Note_on_c, 2, 43, 100
4, 165840, Note_on_c, 2, 43, 0
4, 171360, Note_on_c, 2, 45, 100
4, 172800, Note_on_c, 2, 45, 0
4, 172800, End_track
5, 0, Start_track
5, 0, MIDI_port, 0
5, 0, Title_t, "Six Suites for Solo Cello"
5, 0, End_track
6, 0, Start_track
6, 0, MIDI_port, 0
6, 0, Title_t, "--------------------------------------"
6, 0, End_track
7, 0, Start_track
7, 0, MIDI_port, 0
7, 0, Title_t, "Suite No. 2 in D minor - BWV 1008"
7, 0, End_track
8, 0, Start_track
8, 0, MIDI_port, 0
8, 0, Title_t, "5th Movement: Menuet I/II"
8, 0, End_track
9, 0, Start_track
9, 0, MIDI_port, 0
9, 0, Title_t, "--------------------------------------"
9, 0, End_track
10, 0, Start_track
10, 0, MIDI_port, 0
10, 0, Title_t, "Sequenced with Cakewalk Pro Audio by"
10, 0, End_track
11, 0, Start_track
11, 0, MIDI_port, 0
11, 0, Title_t, "David J. Grossman - dave@unpronounceable.com"
11, 0, End_track
12, 0, Start_track
12, 0, MIDI_port, 0
12, 0, Title_t, "This and other Bach MIDI files can be found at:"
12, 0, End_track
13, 0, Start_track
13, 0, MIDI_port, 0
13, 0, Title_t, "Dave's J.S. Bach Page"
13, 0, End_track
14, 0, Start_track
14, 0, MIDI_port, 0
14, 0, Title_t, "http://www.unpronounceable.com/bach"
14, 0, End_track
15, 0, Start_track
15, 0, MIDI_port, 0
15, 0, Title_t, "--------------------------------------"
15, 0, End_track
16, 0, Start_track
16, 0, MIDI_port, 0
16, 0, Title_t, "Original Filename: cs2-5men.mid"
16, 0, End_track
17, 0, Start_track
17, 0, MIDI_port, 0
17, 0, Title_t, "Last Modified: February 22, 1997"
17, 0, End_track
18, 0, Start_track
18, 0, MIDI_port, 0
18, 0, End_track
0, 0, End_of_file
