0, 0, Header, 1, 18, 480
1, 0, Start_track
1, 0, Title_t, "untitled"
1, 0, Copyright_t, "Copyright © 1996 by David J. Grossman"
1, 0, Text_t, "David J. Grossman"
1, 0, SMPTE_offset, 96, 0, 3, 0, 0
1, 0, Time_signature, 3, 3, 12, 8
1, 0, Key_signature, 0, "major"
1, 0, Tempo, 240000
1, 480, Tempo, 545455
1, 720, Marker_t, "A"
1, 35280, Marker_t, "A'"
1, 69840, Marker_t, "B"
1, 110280, Marker_t, "*"
1, 113040, Marker_t, "B'"
1, 155520, Tempo, 1090909
1, 155520, End_track
2, 0, Start_track
2, 0, MIDI_port, 0
2, 0, Title_t, "Solo Cello"
2, 0, Program_c, 0, 42
2, 0, Control_c, 0, 7, 100
2, 0, Control_c, 0, 10, 64
2, 480, Note_on_c, 0, 55, 100
2, 720, Note_on_c, 0, 55, 0
2, 720, Note_on_c, 0, 60, 100
2, 960, Note_on_c, 0, 60, 0
2, 960, Note_on_c, 0, 48, 100
2, 1080, Note_on_c, 0, 48, 0
2, 1080, Note_on_c, 0, 50, 100
2, 1200, Note_on_c, 0, 50, 0
2, 1200, Note_on_c, 0, 52, 100
2, 1320, Note_on_c, 0, 52, 0
2, 1320, Note_on_c, 0, 53, 100
2, 1440, Note_on_c, 0, 53, 0
2, 1440, Note_on_c, 0, 55, 100
2, 1680, Note_on_c, 0, 55, 0
2, 1680, Note_on_c, 0, 57, 100
2, 1920, Note_on_c, 0, 57, 0
2, 1920, Note_on_c, 0, 59, 100
2, 2160, Note_on_c, 0, 59, 0
2, 2160, Note_on_c, 0, 60, 100
2, 2400, Note_on_c, 0, 60, 0
2, 2400, Note_on_c, 0, 55, 100
2, 2640, Note_on_c, 0, 55, 0
2, 2640, Note_on_c, 0, 64, 100
2, 2880, Note_on_c, 0, 64, 0
2, 2880, Note_on_c, 0, 60, 100
2, 3120, Note_on_c, 0, 60, 0
2, 3120, Note_on_c, 0, 55, 100
2, 3360, Note_on_c, 0, 55, 0
2, 3360, Note_on_c, 0, 64, 100
2, 3600, Note_on_c, 0, 64, 0
2, 3600, Note_on_c, 0, 62, 100
2, 3720, Note_on_c, 0, 62, 0
2, 3720, Note_on_c, 0, 60, 100
2, 3840, Note_on_c, 0, 60, 0
2, 3840, Note_on_c, 0, 62, 100
2, 3960, Note_on_c, 0, 62, 0
2, 3960, Note_on_c, 0, 64, 100
2, 4080, Note_on_c, 0, 64, 0
2, 4080, Note_on_c, 0, 65, 100
2, 4320, Note_on_c, 0, 65, 0
2, 4320, Note_on_c, 0, 59, 100
2, 4560, Note_on_c, 0, 59, 0
2, 4560, Note_on_c, 0, 60, 100
2, 4800, Note_on_c, 0, 60, 0
2, 4800, Note_on_c, 0, 52, 100
2, 5040, Note_on_c, 0, 52, 0
2, 5040, Note_on_c, 0, 43, 100
2, 5280, Note_on_c, 0, 43, 0
2, 5280, Note_on_c, 0, 50, 100
2, 5520, Note_on_c, 0, 50, 0
2, 5520, Note_on_c, 0, 60, 100
2, 5760, Note_on_c, 0, 60, 0
2, 5760, Note_on_c, 0, 59, 100
2, 6000, Note_on_c, 0, 59, 0
2, 6000, Note_on_c, 0, 55, 100
2, 6240, Note_on_c, 0, 55, 0
2, 6240, Note_on_c, 0, 62, 100
2, 6480, Note_on_c, 0, 62, 0
2, 6480, Note_on_c, 0, 62, 100
2, 6720, Note_on_c, 0, 62, 0
2, 6720, Note_on_c, 0, 54, 100
2, 6960, Note_on_c, 0, 54, 0
2, 6960, Note_on_c, 0, 55, 100
2, 7200, Note_on_c, 0, 55, 0
2, 7200, Note_on_c, 0, 52, 100
2, 7440, Note_on_c, 0, 52, 0
2, 7440, Note_on_c, 0, 64, 100
2, 7560, Note_on_c, 0, 64, 0
2, 7560, Note_on_c, 0, 62, 100
2, 7680, Note_on_c, 0, 62, 0
2, 7680, Note_on_c, 0, 60, 100
2, 7800, Note_on_c, 0, 60, 0
2, 7800, Note_on_c, 0, 59, 100
2, 7920, Note_on_c, 0, 59, 0
2, 7920, Note_on_c, 0, 60, 100
2, 8160, Note_on_c, 0, 60, 0
2, 8160, Note_on_c, 0, 45, 100
2, 8280, Note_on_c, 0, 45, 0
2, 8280, Note_on_c, 0, 47, 100
2, 8400, Note_on_c, 0, 47, 0
2, 8400, Note_on_c, 0, 48, 100
2, 8520, Note_on_c, 0, 48, 0
2, 8520, Note_on_c, 0, 50, 100
2, 8640, Note_on_c, 0, 50, 0
2, 8640, Note_on_c, 0, 52, 100
2, 8880, Note_on_c, 0, 52, 0
2, 8880, Note_on_c, 0, 45, 100
2, 9120, Note_on_c, 0, 45, 0
2, 9120, Note_on_c, 0, 60, 100
2, 9360, Note_on_c, 0, 60, 0
2, 9360, Note_on_c, 0, 60, 100
2, 9600, Note_on_c, 0, 60, 0
2, 9600, Note_on_c, 0, 52, 100
2, 9840, Note_on_c, 0, 52, 0
2, 9840, Note_on_c, 0, 54, 100
2, 10080, Note_on_c, 0, 54, 0
2, 10080, Note_on_c, 0, 50, 100
2, 10320, Note_on_c, 0, 50, 0
2, 10320, Note_on_c, 0, 62, 100
2, 10440, Note_on_c, 0, 62, 0
2, 10440, Note_on_c, 0, 60, 100
2, 10560, Note_on_c, 0, 60, 0
2, 10560, Note_on_c, 0, 59, 100
2, 10680, Note_on_c, 0, 59, 0
2, 10680, Note_on_c, 0, 57, 100
2, 10800, Note_on_c, 0, 57, 0
2, 10800, Note_on_c, 0, 59, 100
2, 11040, Note_on_c, 0, 59, 0
2, 11040, Note_on_c, 0, 43, 100
2, 11160, Note_on_c, 0, 43, 0
2, 11160, Note_on_c, 0, 45, 100
2, 11280, Note_on_c, 0, 45, 0
2, 11280, Note_on_c, 0, 47, 100
2, 11400, Note_on_c, 0, 47, 0
2, 11400, Note_on_c, 0, 48, 100
2, 11520, Note_on_c, 0, 48, 0
2, 11520, Note_on_c, 0, 50, 100
2, 11760, Note_on_c, 0, 50, 0
2, 11760, Note_on_c, 0, 43, 100
2, 12000, Note_on_c, 0, 43, 0
2, 12000, Note_on_c, 0, 59, 100
2, 12240, Note_on_c, 0, 59, 0
2, 12240, Note_on_c, 0, 59, 100
2, 12480, Note_on_c, 0, 59, 0
2, 12480, Note_on_c, 0, 50, 100
2, 12720, Note_on_c, 0, 50, 0
2, 12720, Note_on_c, 0, 52, 100
2, 12960, Note_on_c, 0, 52, 0
2, 12960, Note_on_c, 0, 48, 100
2, 13200, Note_on_c, 0, 48, 0
2, 13200, Note_on_c, 0, 60, 100
2, 13320, Note_on_c, 0, 60, 0
2, 13320, Note_on_c, 0, 59, 100
2, 13440, Note_on_c, 0, 59, 0
2, 13440, Note_on_c, 0, 57, 100
2, 13560, Note_on_c, 0, 57, 0
2, 13560, Note_on_c, 0, 55, 100
2, 13680, Note_on_c, 0, 55, 0
2, 13680, Note_on_c, 0, 54, 100
2, 13800, Note_on_c, 0, 54, 0
2, 13800, Note_on_c, 0, 57, 100
2, 13920, Note_on_c, 0, 57, 0
2, 13920, Note_on_c, 0, 55, 100
2, 14040, Note_on_c, 0, 55, 0
2, 14040, Note_on_c, 0, 54, 100
2, 14160, Note_on_c, 0, 54, 0
2, 14160, Note_on_c, 0, 52, 100
2, 14280, Note_on_c, 0, 52, 0
2, 14280, Note_on_c, 0, 50, 100
2, 14400, Note_on_c, 0, 50, 0
2, 14400, Note_on_c, 0, 50, 100
2, 14880, Note_on_c, 0, 50, 0
2, 14880, Note_on_c, 0, 50, 100
2, 15120, Note_on_c, 0, 50, 0
2, 15120, Note_on_c, 0, 48, 100
2, 15240, Note_on_c, 0, 48, 0
2, 15360, Note_on_c, 0, 47, 100
2, 15480, Note_on_c, 0, 47, 0
2, 15600, Note_on_c, 0, 45, 100
2, 15720, Note_on_c, 0, 45, 0
2, 15840, Note_on_c, 0, 47, 100
2, 15960, Note_on_c, 0, 47, 0
2, 16080, Note_on_c, 0, 45, 100
2, 16200, Note_on_c, 0, 45, 0
2, 16320, Note_on_c, 0, 47, 100
2, 16440, Note_on_c, 0, 47, 0
2, 16560, Note_on_c, 0, 48, 100
2, 16680, Note_on_c, 0, 48, 0
2, 16800, Note_on_c, 0, 47, 100
2, 16920, Note_on_c, 0, 47, 0
2, 17040, Note_on_c, 0, 45, 100
2, 17160, Note_on_c, 0, 45, 0
2, 17280, Note_on_c, 0, 47, 100
2, 17400, Note_on_c, 0, 47, 0
2, 17520, Note_on_c, 0, 45, 100
2, 17640, Note_on_c, 0, 45, 0
2, 17760, Note_on_c, 0, 43, 100
2, 17880, Note_on_c, 0, 43, 0
2, 18000, Note_on_c, 0, 53, 100
2, 18120, Note_on_c, 0, 53, 0
2, 18240, Note_on_c, 0, 52, 100
2, 18360, Note_on_c, 0, 52, 0
2, 18480, Note_on_c, 0, 50, 100
2, 18600, Note_on_c, 0, 50, 0
2, 18720, Note_on_c, 0, 52, 100
2, 18840, Note_on_c, 0, 52, 0
2, 18960, Note_on_c, 0, 50, 100
2, 19080, Note_on_c, 0, 50, 0
2, 19200, Note_on_c, 0, 52, 100
2, 19320, Note_on_c, 0, 52, 0
2, 19440, Note_on_c, 0, 53, 100
2, 19560, Note_on_c, 0, 53, 0
2, 19680, Note_on_c, 0, 52, 100
2, 19800, Note_on_c, 0, 52, 0
2, 19920, Note_on_c, 0, 50, 100
2, 20040, Note_on_c, 0, 50, 0
2, 20160, Note_on_c, 0, 52, 100
2, 20280, Note_on_c, 0, 52, 0
2, 20400, Note_on_c, 0, 54, 100
2, 20520, Note_on_c, 0, 54, 0
2, 20640, Note_on_c, 0, 55, 100
2, 20760, Note_on_c, 0, 55, 0
2, 20880, Note_on_c, 0, 54, 100
2, 21000, Note_on_c, 0, 54, 0
2, 21120, Note_on_c, 0, 55, 100
2, 21240, Note_on_c, 0, 55, 0
2, 21360, Note_on_c, 0, 57, 100
2, 21480, Note_on_c, 0, 57, 0
2, 21600, Note_on_c, 0, 55, 100
2, 21720, Note_on_c, 0, 55, 0
2, 21840, Note_on_c, 0, 57, 100
2, 21960, Note_on_c, 0, 57, 0
2, 22080, Note_on_c, 0, 59, 100
2, 22200, Note_on_c, 0, 59, 0
2, 22320, Note_on_c, 0, 57, 100
2, 22440, Note_on_c, 0, 57, 0
2, 22560, Note_on_c, 0, 59, 100
2, 22680, Note_on_c, 0, 59, 0
2, 22800, Note_on_c, 0, 60, 100
2, 23040, Note_on_c, 0, 60, 0
2, 23040, Note_on_c, 0, 50, 100
2, 23520, Note_on_c, 0, 50, 0
2, 23520, Note_on_c, 0, 57, 100
2, 23760, Note_on_c, 0, 57, 0
2, 23760, Note_on_c, 0, 60, 100
2, 23880, Note_on_c, 0, 60, 0
2, 23880, Note_on_c, 0, 62, 100
2, 24000, Note_on_c, 0, 62, 0
2, 24000, Note_on_c, 0, 63, 100
2, 24240, Note_on_c, 0, 63, 0
2, 24240, Note_on_c, 0, 62, 100
2, 24480, Note_on_c, 0, 62, 0
2, 24480, Note_on_c, 0, 60, 100
2, 24720, Note_on_c, 0, 60, 0
2, 24720, Note_on_c, 0, 58, 100
2, 24960, Note_on_c, 0, 58, 0
2, 24960, Note_on_c, 0, 57, 100
2, 25200, Note_on_c, 0, 57, 0
2, 25200, Note_on_c, 0, 66, 100
2, 25440, Note_on_c, 0, 66, 0
2, 25440, Note_on_c, 0, 67, 100
2, 25680, Note_on_c, 0, 67, 0
2, 25680, Note_on_c, 0, 57, 100
2, 25920, Note_on_c, 0, 57, 0
2, 25920, Note_on_c, 0, 66, 100
2, 26160, Note_on_c, 0, 66, 0
2, 26160, Note_on_c, 0, 67, 100
2, 26400, Note_on_c, 0, 67, 0
2, 26400, Note_on_c, 0, 57, 100
2, 26640, Note_on_c, 0, 57, 0
2, 26640, Note_on_c, 0, 60, 100
2, 26760, Note_on_c, 0, 60, 0
2, 26760, Note_on_c, 0, 62, 100
2, 26880, Note_on_c, 0, 62, 0
2, 26880, Note_on_c, 0, 63, 100
2, 27120, Note_on_c, 0, 63, 0
2, 27120, Note_on_c, 0, 62, 100
2, 27360, Note_on_c, 0, 62, 0
2, 27360, Note_on_c, 0, 60, 100
2, 27600, Note_on_c, 0, 60, 0
2, 27600, Note_on_c, 0, 58, 100
2, 27840, Note_on_c, 0, 58, 0
2, 27840, Note_on_c, 0, 57, 100
2, 28080, Note_on_c, 0, 57, 0
2, 28080, Note_on_c, 0, 61, 100
2, 28320, Note_on_c, 0, 61, 0
2, 28320, Note_on_c, 0, 62, 100
2, 28560, Note_on_c, 0, 62, 0
2, 28560, Note_on_c, 0, 57, 100
2, 28800, Note_on_c, 0, 57, 0
2, 28800, Note_on_c, 0, 61, 100
2, 29040, Note_on_c, 0, 61, 0
2, 29040, Note_on_c, 0, 62, 100
2, 29280, Note_on_c, 0, 62, 0
2, 29280, Note_on_c, 0, 50, 100
2, 29520, Note_on_c, 0, 50, 0
2, 29520, Note_on_c, 0, 43, 100
2, 29640, Note_on_c, 0, 43, 0
2, 29640, Note_on_c, 0, 47, 100
2, 29760, Note_on_c, 0, 47, 0
2, 29760, Note_on_c, 0, 50, 100
2, 30000, Note_on_c, 0, 50, 0
2, 30000, Note_on_c, 0, 52, 100
2, 30240, Note_on_c, 0, 52, 0
2, 30240, Note_on_c, 0, 45, 100
2, 30360, Note_on_c, 0, 45, 0
2, 30360, Note_on_c, 0, 48, 100
2, 30480, Note_on_c, 0, 48, 0
2, 30480, Note_on_c, 0, 52, 100
2, 30720, Note_on_c, 0, 52, 0
2, 30720, Note_on_c, 0, 54, 100
2, 30960, Note_on_c, 0, 54, 0
2, 30960, Note_on_c, 0, 47, 100
2, 31080, Note_on_c, 0, 47, 0
2, 31080, Note_on_c, 0, 50, 100
2, 31200, Note_on_c, 0, 50, 0
2, 31200, Note_on_c, 0, 55, 100
2, 31320, Note_on_c, 0, 55, 0
2, 31320, Note_on_c, 0, 52, 100
2, 31440, Note_on_c, 0, 52, 0
2, 31440, Note_on_c, 0, 53, 100
2, 31560, Note_on_c, 0, 53, 0
2, 31560, Note_on_c, 0, 50, 100
2, 31680, Note_on_c, 0, 50, 0
2, 31680, Note_on_c, 0, 48, 100
2, 31800, Note_on_c, 0, 48, 0
2, 31800, Note_on_c, 0, 52, 100
2, 31920, Note_on_c, 0, 52, 0
2, 31920, Note_on_c, 0, 57, 100
2, 32040, Note_on_c, 0, 57, 0
2, 32040, Note_on_c, 0, 59, 100
2, 32160, Note_on_c, 0, 59, 0
2, 32160, Note_on_c, 0, 60, 100
2, 32280, Note_on_c, 0, 60, 0
2, 32280, Note_on_c, 0, 57, 100
2, 32400, Note_on_c, 0, 57, 0
2, 32400, Note_on_c, 0, 62, 100
2, 32520, Note_on_c, 0, 62, 0
2, 32520, Note_on_c, 0, 57, 100
2, 32640, Note_on_c, 0, 57, 0
2, 32640, Note_on_c, 0, 54, 100
2, 32760, Note_on_c, 0, 54, 0
2, 32760, Note_on_c, 0, 52, 100
2, 32880, Note_on_c, 0, 52, 0
2, 32880, Note_on_c, 0, 50, 100
2, 33000, Note_on_c, 0, 50, 0
2, 33000, Note_on_c, 0, 48, 100
2, 33120, Note_on_c, 0, 48, 0
2, 33120, Note_on_c, 0, 47, 100
2, 33240, Note_on_c, 0, 47, 0
2, 33240, Note_on_c, 0, 50, 100
2, 33360, Note_on_c, 0, 50, 0
2, 33360, Note_on_c, 0, 55, 100
2, 33480, Note_on_c, 0, 55, 0
2, 33480, Note_on_c, 0, 47, 100
2, 33600, Note_on_c, 0, 47, 0
2, 33600, Note_on_c, 0, 45, 100
2, 33720, Note_on_c, 0, 45, 0
2, 33720, Note_on_c, 0, 54, 100
2, 33840, Note_on_c, 0, 54, 0
2, 33840, Note_on_c, 0, 55, 100
2, 34080, Note_on_c, 0, 55, 0
2, 34080, Note_on_c, 0, 50, 100
2, 34320, Note_on_c, 0, 50, 0
2, 34320, Note_on_c, 0, 47, 100
2, 34560, Note_on_c, 0, 47, 0
2, 34560, Note_on_c, 0, 43, 100
2, 35040, Note_on_c, 0, 43, 0
2, 35040, Note_on_c, 0, 55, 100
2, 35280, Note_on_c, 0, 55, 0
2, 35280, Note_on_c, 0, 60, 100
2, 35520, Note_on_c, 0, 60, 0
2, 35520, Note_on_c, 0, 48, 100
2, 35640, Note_on_c, 0, 48, 0
2, 35640, Note_on_c, 0, 50, 100
2, 35760, Note_on_c, 0, 50, 0
2, 35760, Note_on_c, 0, 52, 100
2, 35880, Note_on_c, 0, 52, 0
2, 35880, Note_on_c, 0, 53, 100
2, 36000, Note_on_c, 0, 53, 0
2, 36000, Note_on_c, 0, 55, 100
2, 36240, Note_on_c, 0, 55, 0
2, 36240, Note_on_c, 0, 57, 100
2, 36480, Note_on_c, 0, 57, 0
2, 36480, Note_on_c, 0, 59, 100
2, 36720, Note_on_c, 0, 59, 0
2, 36720, Note_on_c, 0, 60, 100
2, 36960, Note_on_c, 0, 60, 0
2, 36960, Note_on_c, 0, 55, 100
2, 37200, Note_on_c, 0, 55, 0
2, 37200, Note_on_c, 0, 64, 100
2, 37440, Note_on_c, 0, 64, 0
2, 37440, Note_on_c, 0, 60, 100
2, 37680, Note_on_c, 0, 60, 0
2, 37680, Note_on_c, 0, 55, 100
2, 37920, Note_on_c, 0, 55, 0
2, 37920, Note_on_c, 0, 64, 100
2, 38160, Note_on_c, 0, 64, 0
2, 38160, Note_on_c, 0, 62, 100
2, 38280, Note_on_c, 0, 62, 0
2, 38280, Note_on_c, 0, 60, 100
2, 38400, Note_on_c, 0, 60, 0
2, 38400, Note_on_c, 0, 62, 100
2, 38520, Note_on_c, 0, 62, 0
2, 38520, Note_on_c, 0, 64, 100
2, 38640, Note_on_c, 0, 64, 0
2, 38640, Note_on_c, 0, 65, 100
2, 38880, Note_on_c, 0, 65, 0
2, 38880, Note_on_c, 0, 59, 100
2, 39120, Note_on_c, 0, 59, 0
2, 39120, Note_on_c, 0, 60, 100
2, 39360, Note_on_c, 0, 60, 0
2, 39360, Note_on_c, 0, 52, 100
2, 39600, Note_on_c, 0, 52, 0
2, 39600, Note_on_c, 0, 43, 100
2, 39840, Note_on_c, 0, 43, 0
2, 39840, Note_on_c, 0, 50, 100
2, 40080, Note_on_c, 0, 50, 0
2, 40080, Note_on_c, 0, 60, 100
2, 40320, Note_on_c, 0, 60, 0
2, 40320, Note_on_c, 0, 59, 100
2, 40560, Note_on_c, 0, 59, 0
2, 40560, Note_on_c, 0, 55, 100
2, 40800, Note_on_c, 0, 55, 0
2, 40800, Note_on_c, 0, 62, 100
2, 41040, Note_on_c, 0, 62, 0
2, 41040, Note_on_c, 0, 62, 100
2, 41280, Note_on_c, 0, 62, 0
2, 41280, Note_on_c, 0, 54, 100
2, 41520, Note_on_c, 0, 54, 0
2, 41520, Note_on_c, 0, 55, 100
2, 41760, Note_on_c, 0, 55, 0
2, 41760, Note_on_c, 0, 52, 100
2, 42000, Note_on_c, 0, 52, 0
2, 42000, Note_on_c, 0, 64, 100
2, 42120, Note_on_c, 0, 64, 0
2, 42120, Note_on_c, 0, 62, 100
2, 42240, Note_on_c, 0, 62, 0
2, 42240, Note_on_c, 0, 60, 100
2, 42360, Note_on_c, 0, 60, 0
2, 42360, Note_on_c, 0, 59, 100
2, 42480, Note_on_c, 0, 59, 0
2, 42480, Note_on_c, 0, 60, 100
2, 42720, Note_on_c, 0, 60, 0
2, 42720, Note_on_c, 0, 45, 100
2, 42840, Note_on_c, 0, 45, 0
2, 42840, Note_on_c, 0, 47, 100
2, 42960, Note_on_c, 0, 47, 0
2, 42960, Note_on_c, 0, 48, 100
2, 43080, Note_on_c, 0, 48, 0
2, 43080, Note_on_c, 0, 50, 100
2, 43200, Note_on_c, 0, 50, 0
2, 43200, Note_on_c, 0, 52, 100
2, 43440, Note_on_c, 0, 52, 0
2, 43440, Note_on_c, 0, 45, 100
2, 43680, Note_on_c, 0, 45, 0
2, 43680, Note_on_c, 0, 60, 100
2, 43920, Note_on_c, 0, 60, 0
2, 43920, Note_on_c, 0, 60, 100
2, 44160, Note_on_c, 0, 60, 0
2, 44160, Note_on_c, 0, 52, 100
2, 44400, Note_on_c, 0, 52, 0
2, 44400, Note_on_c, 0, 54, 100
2, 44640, Note_on_c, 0, 54, 0
2, 44640, Note_on_c, 0, 50, 100
2, 44880, Note_on_c, 0, 50, 0
2, 44880, Note_on_c, 0, 62, 100
2, 45000, Note_on_c, 0, 62, 0
2, 45000, Note_on_c, 0, 60, 100
2, 45120, Note_on_c, 0, 60, 0
2, 45120, Note_on_c, 0, 59, 100
2, 45240, Note_on_c, 0, 59, 0
2, 45240, Note_on_c, 0, 57, 100
2, 45360, Note_on_c, 0, 57, 0
2, 45360, Note_on_c, 0, 59, 100
2, 45600, Note_on_c, 0, 59, 0
2, 45600, Note_on_c, 0, 43, 100
2, 45720, Note_on_c, 0, 43, 0
2, 45720, Note_on_c, 0, 45, 100
2, 45840, Note_on_c, 0, 45, 0
2, 45840, Note_on_c, 0, 47, 100
2, 45960, Note_on_c, 0, 47, 0
2, 45960, Note_on_c, 0, 48, 100
2, 46080, Note_on_c, 0, 48, 0
2, 46080, Note_on_c, 0, 50, 100
2, 46320, Note_on_c, 0, 50, 0
2, 46320, Note_on_c, 0, 43, 100
2, 46560, Note_on_c, 0, 43, 0
2, 46560, Note_on_c, 0, 59, 100
2, 46800, Note_on_c, 0, 59, 0
2, 46800, Note_on_c, 0, 59, 100
2, 47040, Note_on_c, 0, 59, 0
2, 47040, Note_on_c, 0, 50, 100
2, 47280, Note_on_c, 0, 50, 0
2, 47280, Note_on_c, 0, 52, 100
2, 47520, Note_on_c, 0, 52, 0
2, 47520, Note_on_c, 0, 48, 100
2, 47760, Note_on_c, 0, 48, 0
2, 47760, Note_on_c, 0, 60, 100
2, 47880, Note_on_c, 0, 60, 0
2, 47880, Note_on_c, 0, 59, 100
2, 48000, Note_on_c, 0, 59, 0
2, 48000, Note_on_c, 0, 57, 100
2, 48120, Note_on_c, 0, 57, 0
2, 48120, Note_on_c, 0, 55, 100
2, 48240, Note_on_c, 0, 55, 0
2, 48240, Note_on_c, 0, 54, 100
2, 48360, Note_on_c, 0, 54, 0
2, 48360, Note_on_c, 0, 57, 100
2, 48480, Note_on_c, 0, 57, 0
2, 48480, Note_on_c, 0, 55, 100
2, 48600, Note_on_c, 0, 55, 0
2, 48600, Note_on_c, 0, 54, 100
2, 48720, Note_on_c, 0, 54, 0
2, 48720, Note_on_c, 0, 52, 100
2, 48840, Note_on_c, 0, 52, 0
2, 48840, Note_on_c, 0, 50, 100
2, 48960, Note_on_c, 0, 50, 0
2, 48960, Note_on_c, 0, 50, 100
2, 49440, Note_on_c, 0, 50, 0
2, 49440, Note_on_c, 0, 50, 100
2, 49680, Note_on_c, 0, 50, 0
2, 49680, Note_on_c, 0, 48, 100
2, 49800, Note_on_c, 0, 48, 0
2, 49920, Note_on_c, 0, 47, 100
2, 50040, Note_on_c, 0, 47, 0
2, 50160, Note_on_c, 0, 45, 100
2, 50280, Note_on_c, 0, 45, 0
2, 50400, Note_on_c, 0, 47, 100
2, 50520, Note_on_c, 0, 47, 0
2, 50640, Note_on_c, 0, 45, 100
2, 50760, Note_on_c, 0, 45, 0
2, 50880, Note_on_c, 0, 47, 100
2, 51000, Note_on_c, 0, 47, 0
2, 51120, Note_on_c, 0, 48, 100
2, 51240, Note_on_c, 0, 48, 0
2, 51360, Note_on_c, 0, 47, 100
2, 51480, Note_on_c, 0, 47, 0
2, 51600, Note_on_c, 0, 45, 100
2, 51720, Note_on_c, 0, 45, 0
2, 51840, Note_on_c, 0, 47, 100
2, 51960, Note_on_c, 0, 47, 0
2, 52080, Note_on_c, 0, 45, 100
2, 52200, Note_on_c, 0, 45, 0
2, 52320, Note_on_c, 0, 43, 100
2, 52440, Note_on_c, 0, 43, 0
2, 52560, Note_on_c, 0, 53, 100
2, 52680, Note_on_c, 0, 53, 0
2, 52800, Note_on_c, 0, 52, 100
2, 52920, Note_on_c, 0, 52, 0
2, 53040, Note_on_c, 0, 50, 100
2, 53160, Note_on_c, 0, 50, 0
2, 53280, Note_on_c, 0, 52, 100
2, 53400, Note_on_c, 0, 52, 0
2, 53520, Note_on_c, 0, 50, 100
2, 53640, Note_on_c, 0, 50, 0
2, 53760, Note_on_c, 0, 52, 100
2, 53880, Note_on_c, 0, 52, 0
2, 54000, Note_on_c, 0, 53, 100
2, 54120, Note_on_c, 0, 53, 0
2, 54240, Note_on_c, 0, 52, 100
2, 54360, Note_on_c, 0, 52, 0
2, 54480, Note_on_c, 0, 50, 100
2, 54600, Note_on_c, 0, 50, 0
2, 54720, Note_on_c, 0, 52, 100
2, 54840, Note_on_c, 0, 52, 0
2, 54960, Note_on_c, 0, 54, 100
2, 55080, Note_on_c, 0, 54, 0
2, 55200, Note_on_c, 0, 55, 100
2, 55320, Note_on_c, 0, 55, 0
2, 55440, Note_on_c, 0, 54, 100
2, 55560, Note_on_c, 0, 54, 0
2, 55680, Note_on_c, 0, 55, 100
2, 55800, Note_on_c, 0, 55, 0
2, 55920, Note_on_c, 0, 57, 100
2, 56040, Note_on_c, 0, 57, 0
2, 56160, Note_on_c, 0, 55, 100
2, 56280, Note_on_c, 0, 55, 0
2, 56400, Note_on_c, 0, 57, 100
2, 56520, Note_on_c, 0, 57, 0
2, 56640, Note_on_c, 0, 59, 100
2, 56760, Note_on_c, 0, 59, 0
2, 56880, Note_on_c, 0, 57, 100
2, 57000, Note_on_c, 0, 57, 0
2, 57120, Note_on_c, 0, 59, 100
2, 57240, Note_on_c, 0, 59, 0
2, 57360, Note_on_c, 0, 60, 100
2, 57600, Note_on_c, 0, 60, 0
2, 57600, Note_on_c, 0, 50, 100
2, 58080, Note_on_c, 0, 50, 0
2, 58080, Note_on_c, 0, 57, 100
2, 58320, Note_on_c, 0, 57, 0
2, 58320, Note_on_c, 0, 60, 100
2, 58440, Note_on_c, 0, 60, 0
2, 58440, Note_on_c, 0, 62, 100
2, 58560, Note_on_c, 0, 62, 0
2, 58560, Note_on_c, 0, 63, 100
2, 58800, Note_on_c, 0, 63, 0
2, 58800, Note_on_c, 0, 62, 100
2, 59040, Note_on_c, 0, 62, 0
2, 59040, Note_on_c, 0, 60, 100
2, 59280, Note_on_c, 0, 60, 0
2, 59280, Note_on_c, 0, 58, 100
2, 59520, Note_on_c, 0, 58, 0
2, 59520, Note_on_c, 0, 57, 100
2, 59760, Note_on_c, 0, 57, 0
2, 59760, Note_on_c, 0, 66, 100
2, 60000, Note_on_c, 0, 66, 0
2, 60000, Note_on_c, 0, 67, 100
2, 60240, Note_on_c, 0, 67, 0
2, 60240, Note_on_c, 0, 57, 100
2, 60480, Note_on_c, 0, 57, 0
2, 60480, Note_on_c, 0, 66, 100
2, 60720, Note_on_c, 0, 66, 0
2, 60720, Note_on_c, 0, 67, 100
2, 60960, Note_on_c, 0, 67, 0
2, 60960, Note_on_c, 0, 57, 100
2, 61200, Note_on_c, 0, 57, 0
2, 61200, Note_on_c, 0, 60, 100
2, 61320, Note_on_c, 0, 60, 0
2, 61320, Note_on_c, 0, 62, 100
2, 61440, Note_on_c, 0, 62, 0
2, 61440, Note_on_c, 0, 63, 100
2, 61680, Note_on_c, 0, 63, 0
2, 61680, Note_on_c, 0, 62, 100
2, 61920, Note_on_c, 0, 62, 0
2, 61920, Note_on_c, 0, 60, 100
2, 62160, Note_on_c, 0, 60, 0
2, 62160, Note_on_c, 0, 58, 100
2, 62400, Note_on_c, 0, 58, 0
2, 62400, Note_on_c, 0, 57, 100
2, 62640, Note_on_c, 0, 57, 0
2, 62640, Note_on_c, 0, 61, 100
2, 62880, Note_on_c, 0, 61, 0
2, 62880, Note_on_c, 0, 62, 100
2, 63120, Note_on_c, 0, 62, 0
2, 63120, Note_on_c, 0, 57, 100
2, 63360, Note_on_c, 0, 57, 0
2, 63360, Note_on_c, 0, 61, 100
2, 63600, Note_on_c, 0, 61, 0
2, 63600, Note_on_c, 0, 62, 100
2, 63840, Note_on_c, 0, 62, 0
2, 63840, Note_on_c, 0, 50, 100
2, 64080, Note_on_c, 0, 50, 0
2, 64080, Note_on_c, 0, 43, 100
2, 64200, Note_on_c, 0, 43, 0
2, 64200, Note_on_c, 0, 47, 100
2, 64320, Note_on_c, 0, 47, 0
2, 64320, Note_on_c, 0, 50, 100
2, 64560, Note_on_c, 0, 50, 0
2, 64560, Note_on_c, 0, 52, 100
2, 64800, Note_on_c, 0, 52, 0
2, 64800, Note_on_c, 0, 45, 100
2, 64920, Note_on_c, 0, 45, 0
2, 64920, Note_on_c, 0, 48, 100
2, 65040, Note_on_c, 0, 48, 0
2, 65040, Note_on_c, 0, 52, 100
2, 65280, Note_on_c, 0, 52, 0
2, 65280, Note_on_c, 0, 54, 100
2, 65520, Note_on_c, 0, 54, 0
2, 65520, Note_on_c, 0, 47, 100
2, 65640, Note_on_c, 0, 47, 0
2, 65640, Note_on_c, 0, 50, 100
2, 65760, Note_on_c, 0, 50, 0
2, 65760, Note_on_c, 0, 55, 100
2, 65880, Note_on_c, 0, 55, 0
2, 65880, Note_on_c, 0, 52, 100
2, 66000, Note_on_c, 0, 52, 0
2, 66000, Note_on_c, 0, 53, 100
2, 66120, Note_on_c, 0, 53, 0
2, 66120, Note_on_c, 0, 50, 100
2, 66240, Note_on_c, 0, 50, 0
2, 66240, Note_on_c, 0, 48, 100
2, 66360, Note_on_c, 0, 48, 0
2, 66360, Note_on_c, 0, 52, 100
2, 66480, Note_on_c, 0, 52, 0
2, 66480, Note_on_c, 0, 57, 100
2, 66600, Note_on_c, 0, 57, 0
2, 66600, Note_on_c, 0, 59, 100
2, 66720, Note_on_c, 0, 59, 0
2, 66720, Note_on_c, 0, 60, 100
2, 66840, Note_on_c, 0, 60, 0
2, 66840, Note_on_c, 0, 57, 100
2, 66960, Note_on_c, 0, 57, 0
2, 66960, Note_on_c, 0, 62, 100
2, 67080, Note_on_c, 0, 62, 0
2, 67080, Note_on_c, 0, 57, 100
2, 67200, Note_on_c, 0, 57, 0
2, 67200, Note_on_c, 0, 54, 100
2, 67320, Note_on_c, 0, 54, 0
2, 67320, Note_on_c, 0, 52, 100
2, 67440, Note_on_c, 0, 52, 0
2, 67440, Note_on_c, 0, 50, 100
2, 67560, Note_on_c, 0, 50, 0
2, 67560, Note_on_c, 0, 48, 100
2, 67680, Note_on_c, 0, 48, 0
2, 67680, Note_on_c, 0, 47, 100
2, 67800, Note_on_c, 0, 47, 0
2, 67800, Note_on_c, 0, 50, 100
2, 67920, Note_on_c, 0, 50, 0
2, 67920, Note_on_c, 0, 55, 100
2, 68040, Note_on_c, 0, 55, 0
2, 68040, Note_on_c, 0, 47, 100
2, 68160, Note_on_c, 0, 47, 0
2, 68160, Note_on_c, 0, 45, 100
2, 68280, Note_on_c, 0, 45, 0
2, 68280, Note_on_c, 0, 54, 100
2, 68400, Note_on_c, 0, 54, 0
2, 68400, Note_on_c, 0, 55, 100
2, 68640, Note_on_c, 0, 55, 0
2, 68640, Note_on_c, 0, 50, 100
2, 68880, Note_on_c, 0, 50, 0
2, 68880, Note_on_c, 0, 47, 100
2, 69120, Note_on_c, 0, 47, 0
2, 69120, Note_on_c, 0, 43, 100
2, 69600, Note_on_c, 0, 43, 0
2, 69600, Note_on_c, 0, 62, 100
2, 69720, Note_on_c, 0, 62, 0
2, 69720, Note_on_c, 0, 60, 100
2, 69840, Note_on_c, 0, 60, 0
2, 69840, Note_on_c, 0, 59, 100
2, 69960, Note_on_c, 0, 59, 0
2, 69960, Note_on_c, 0, 60, 100
2, 70080, Note_on_c, 0, 60, 0
2, 70080, Note_on_c, 0, 57, 100
2, 70200, Note_on_c, 0, 57, 0
2, 70200, Note_on_c, 0, 59, 100
2, 70320, Note_on_c, 0, 59, 0
2, 70320, Note_on_c, 0, 55, 100
2, 70440, Note_on_c, 0, 55, 0
2, 70440, Note_on_c, 0, 57, 100
2, 70560, Note_on_c, 0, 57, 0
2, 70560, Note_on_c, 0, 53, 100
2, 70680, Note_on_c, 0, 53, 0
2, 70680, Note_on_c, 0, 55, 100
2, 70800, Note_on_c, 0, 55, 0
2, 70800, Note_on_c, 0, 52, 100
2, 70920, Note_on_c, 0, 52, 0
2, 70920, Note_on_c, 0, 53, 100
2, 71040, Note_on_c, 0, 53, 0
2, 71040, Note_on_c, 0, 50, 100
2, 71160, Note_on_c, 0, 50, 0
2, 71160, Note_on_c, 0, 52, 100
2, 71280, Note_on_c, 0, 52, 0
2, 71280, Note_on_c, 0, 48, 100
2, 71400, Note_on_c, 0, 48, 0
2, 71400, Note_on_c, 0, 55, 100
2, 71520, Note_on_c, 0, 55, 0
2, 71520, Note_on_c, 0, 57, 100
2, 71640, Note_on_c, 0, 57, 0
2, 71640, Note_on_c, 0, 59, 100
2, 71760, Note_on_c, 0, 59, 0
2, 71760, Note_on_c, 0, 60, 100
2, 71880, Note_on_c, 0, 60, 0
2, 71880, Note_on_c, 0, 62, 100
2, 72000, Note_on_c, 0, 62, 0
2, 72000, Note_on_c, 0, 64, 100
2, 72240, Note_on_c, 0, 64, 0
2, 72240, Note_on_c, 0, 36, 100
2, 72480, Note_on_c, 0, 36, 0
2, 72480, Note_on_c, 0, 64, 100
2, 72720, Note_on_c, 0, 64, 0
2, 72720, Note_on_c, 0, 53, 100
2, 72840, Note_on_c, 0, 53, 0
2, 72840, Note_on_c, 0, 57, 100
2, 72960, Note_on_c, 0, 57, 0
2, 72960, Note_on_c, 0, 59, 100
2, 73080, Note_on_c, 0, 59, 0
2, 73080, Note_on_c, 0, 60, 100
2, 73200, Note_on_c, 0, 60, 0
2, 73200, Note_on_c, 0, 62, 100
2, 73320, Note_on_c, 0, 62, 0
2, 73320, Note_on_c, 0, 60, 100
2, 73440, Note_on_c, 0, 60, 0
2, 73440, Note_on_c, 0, 50, 100
2, 73560, Note_on_c, 0, 50, 0
2, 73560, Note_on_c, 0, 54, 100
2, 73680, Note_on_c, 0, 54, 0
2, 73680, Note_on_c, 0, 56, 100
2, 73800, Note_on_c, 0, 56, 0
2, 73800, Note_on_c, 0, 57, 100
2, 73920, Note_on_c, 0, 57, 0
2, 73920, Note_on_c, 0, 59, 100
2, 74040, Note_on_c, 0, 59, 0
2, 74040, Note_on_c, 0, 57, 100
2, 74160, Note_on_c, 0, 57, 0
2, 74160, Note_on_c, 0, 56, 100
2, 74280, Note_on_c, 0, 56, 0
2, 74280, Note_on_c, 0, 54, 100
2, 74400, Note_on_c, 0, 54, 0
2, 74400, Note_on_c, 0, 56, 100
2, 74520, Note_on_c, 0, 56, 0
2, 74520, Note_on_c, 0, 57, 100
2, 74640, Note_on_c, 0, 57, 0
2, 74640, Note_on_c, 0, 59, 100
2, 74760, Note_on_c, 0, 59, 0
2, 74760, Note_on_c, 0, 56, 100
2, 74880, Note_on_c, 0, 56, 0
2, 74880, Pitch_bend_c, 0, 12288
2, 74880, Note_on_c, 0, 52, 100
2, 74939, Pitch_bend_c, 0, 8192
2, 75000, Pitch_bend_c, 0, 12288
2, 75060, Pitch_bend_c, 0, 8192
2, 75360, Note_on_c, 0, 52, 0
2, 75360, Note_on_c, 0, 59, 100
2, 75600, Note_on_c, 0, 59, 0
2, 75600, Note_on_c, 0, 60, 100
2, 75840, Note_on_c, 0, 60, 0
2, 75840, Note_on_c, 0, 52, 100
2, 76080, Note_on_c, 0, 52, 0
2, 76080, Note_on_c, 0, 53, 100
2, 76320, Note_on_c, 0, 53, 0
2, 76320, Note_on_c, 0, 50, 100
2, 76560, Note_on_c, 0, 50, 0
2, 76560, Note_on_c, 0, 62, 100
2, 76680, Note_on_c, 0, 62, 0
2, 76680, Note_on_c, 0, 60, 100
2, 76800, Note_on_c, 0, 60, 0
2, 76800, Note_on_c, 0, 59, 100
2, 76920, Note_on_c, 0, 59, 0
2, 76920, Note_on_c, 0, 57, 100
2, 77040, Note_on_c, 0, 57, 0
2, 77040, Note_on_c, 0, 59, 100
2, 77280, Note_on_c, 0, 59, 0
2, 77280, Note_on_c, 0, 43, 100
2, 77400, Note_on_c, 0, 43, 0
2, 77400, Note_on_c, 0, 45, 100
2, 77520, Note_on_c, 0, 45, 0
2, 77520, Note_on_c, 0, 47, 100
2, 77640, Note_on_c, 0, 47, 0
2, 77640, Note_on_c, 0, 48, 100
2, 77760, Note_on_c, 0, 48, 0
2, 77760, Note_on_c, 0, 50, 100
2, 78000, Note_on_c, 0, 50, 0
2, 78000, Note_on_c, 0, 43, 100
2, 78240, Note_on_c, 0, 43, 0
2, 78240, Note_on_c, 0, 58, 100
2, 78480, Note_on_c, 0, 58, 0
2, 78480, Note_on_c, 0, 58, 100
2, 78720, Note_on_c, 0, 58, 0
2, 78720, Note_on_c, 0, 50, 100
2, 78960, Note_on_c, 0, 50, 0
2, 78960, Note_on_c, 0, 52, 100
2, 79200, Note_on_c, 0, 52, 0
2, 79200, Note_on_c, 0, 48, 100
2, 79440, Note_on_c, 0, 48, 0
2, 79440, Note_on_c, 0, 60, 100
2, 79560, Note_on_c, 0, 60, 0
2, 79560, Note_on_c, 0, 58, 100
2, 79680, Note_on_c, 0, 58, 0
2, 79680, Note_on_c, 0, 57, 100
2, 79800, Note_on_c, 0, 57, 0
2, 79800, Note_on_c, 0, 55, 100
2, 79920, Note_on_c, 0, 55, 0
2, 79920, Note_on_c, 0, 57, 100
2, 80160, Note_on_c, 0, 57, 0
2, 80160, Note_on_c, 0, 41, 100
2, 80280, Note_on_c, 0, 41, 0
2, 80280, Note_on_c, 0, 43, 100
2, 80400, Note_on_c, 0, 43, 0
2, 80400, Note_on_c, 0, 45, 100
2, 80520, Note_on_c, 0, 45, 0
2, 80520, Note_on_c, 0, 46, 100
2, 80640, Note_on_c, 0, 46, 0
2, 80640, Note_on_c, 0, 48, 100
2, 80880, Note_on_c, 0, 48, 0
2, 80880, Note_on_c, 0, 41, 100
2, 81120, Note_on_c, 0, 41, 0
2, 81120, Note_on_c, 0, 57, 100
2, 81360, Note_on_c, 0, 57, 0
2, 81360, Note_on_c, 0, 53, 100
2, 81600, Note_on_c, 0, 53, 0
2, 81600, Note_on_c, 0, 49, 100
2, 81840, Note_on_c, 0, 49, 0
2, 81840, Note_on_c, 0, 50, 100
2, 82080, Note_on_c, 0, 50, 0
2, 82080, Note_on_c, 0, 58, 100
2, 82320, Note_on_c, 0, 58, 0
2, 82320, Note_on_c, 0, 56, 100
2, 82560, Note_on_c, 0, 56, 0
2, 82560, Note_on_c, 0, 57, 100
2, 82800, Note_on_c, 0, 57, 0
2, 82800, Note_on_c, 0, 62, 100
2, 82920, Note_on_c, 0, 62, 0
2, 82920, Note_on_c, 0, 64, 100
2, 83040, Note_on_c, 0, 64, 0
2, 83040, Note_on_c, 0, 65, 100
2, 83280, Note_on_c, 0, 65, 0
2, 83280, Note_on_c, 0, 56, 100
2, 83520, Note_on_c, 0, 56, 0
2, 83520, Note_on_c, 0, 50, 100
2, 84000, Note_on_c, 0, 50, 0
2, 84000, Note_on_c, 0, 65, 100
2, 84240, Note_on_c, 0, 65, 0
2, 84240, Note_on_c, 0, 64, 100
2, 84480, Note_on_c, 0, 64, 0
2, 84480, Note_on_c, 0, 62, 100
2, 84600, Note_on_c, 0, 62, 0
2, 84600, Note_on_c, 0, 60, 100
2, 84720, Note_on_c, 0, 60, 0
2, 84720, Note_on_c, 0, 59, 100
2, 84840, Note_on_c, 0, 59, 0
2, 84840, Note_on_c, 0, 57, 100
2, 84960, Note_on_c, 0, 57, 0
2, 84960, Note_on_c, 0, 59, 100
2, 85080, Note_on_c, 0, 59, 0
2, 85080, Note_on_c, 0, 62, 100
2, 85200, Note_on_c, 0, 62, 0
2, 85200, Note_on_c, 0, 60, 100
2, 85320, Note_on_c, 0, 60, 0
2, 85320, Note_on_c, 0, 57, 100
2, 85440, Note_on_c, 0, 57, 0
2, 85440, Note_on_c, 0, 59, 100
2, 85560, Note_on_c, 0, 59, 0
2, 85560, Note_on_c, 0, 56, 100
2, 85680, Note_on_c, 0, 56, 0
2, 85680, Note_on_c, 0, 57, 100
2, 85920, Note_on_c, 0, 57, 0
2, 85920, Note_on_c, 0, 52, 100
2, 86160, Note_on_c, 0, 52, 0
2, 86160, Note_on_c, 0, 48, 100
2, 86400, Note_on_c, 0, 48, 0
2, 86400, Note_on_c, 0, 45, 100
2, 86880, Note_on_c, 0, 45, 0
2, 86880, Note_on_c, 0, 60, 100
2, 87120, Note_on_c, 0, 60, 0
2, 87120, Note_on_c, 0, 60, 100
2, 87600, Note_on_c, 0, 60, 0
2, 88320, Note_on_c, 0, 60, 100
2, 88560, Note_on_c, 0, 60, 0
2, 88560, Note_on_c, 0, 59, 100
2, 89040, Note_on_c, 0, 59, 0
2, 95880, Note_on_c, 0, 57, 100
2, 96000, Note_on_c, 0, 57, 0
2, 96120, Note_on_c, 0, 57, 100
2, 96240, Note_on_c, 0, 57, 0
2, 96360, Note_on_c, 0, 57, 100
2, 96480, Note_on_c, 0, 57, 0
2, 96600, Note_on_c, 0, 57, 100
2, 96720, Note_on_c, 0, 57, 0
2, 96840, Note_on_c, 0, 57, 100
2, 96960, Note_on_c, 0, 57, 0
2, 97080, Note_on_c, 0, 57, 100
2, 97200, Note_on_c, 0, 57, 0
2, 97320, Note_on_c, 0, 60, 100
2, 97440, Note_on_c, 0, 60, 0
2, 97560, Note_on_c, 0, 60, 100
2, 97680, Note_on_c, 0, 60, 0
2, 97800, Note_on_c, 0, 60, 100
2, 97920, Note_on_c, 0, 60, 0
2, 98040, Note_on_c, 0, 60, 100
2, 98160, Note_on_c, 0, 60, 0
2, 98280, Note_on_c, 0, 60, 100
2, 98400, Note_on_c, 0, 60, 0
2, 98520, Note_on_c, 0, 60, 100
2, 98640, Note_on_c, 0, 60, 0
2, 98640, Note_on_c, 0, 59, 100
2, 98760, Note_on_c, 0, 59, 0
2, 98880, Note_on_c, 0, 57, 100
2, 99000, Note_on_c, 0, 57, 0
2, 99120, Note_on_c, 0, 59, 100
2, 99240, Note_on_c, 0, 59, 0
2, 99360, Note_on_c, 0, 60, 100
2, 99480, Note_on_c, 0, 60, 0
2, 99600, Note_on_c, 0, 59, 100
2, 99720, Note_on_c, 0, 59, 0
2, 99840, Note_on_c, 0, 57, 100
2, 99960, Note_on_c, 0, 57, 0
2, 100080, Note_on_c, 0, 59, 100
2, 100200, Note_on_c, 0, 59, 0
2, 100320, Note_on_c, 0, 62, 100
2, 100440, Note_on_c, 0, 62, 0
2, 100560, Note_on_c, 0, 65, 100
2, 100800, Note_on_c, 0, 65, 0
2, 101280, Note_on_c, 0, 50, 100
2, 101520, Note_on_c, 0, 50, 0
2, 101520, Note_on_c, 0, 43, 100
2, 101760, Note_on_c, 0, 43, 0
2, 101760, Note_on_c, 0, 43, 100
2, 102000, Note_on_c, 0, 43, 0
2, 102000, Note_on_c, 0, 43, 100
2, 102240, Note_on_c, 0, 43, 0
2, 102240, Note_on_c, 0, 43, 100
2, 102480, Note_on_c, 0, 43, 0
2, 102480, Note_on_c, 0, 43, 100
2, 102720, Note_on_c, 0, 43, 0
2, 102720, Note_on_c, 0, 43, 100
2, 102960, Note_on_c, 0, 43, 0
2, 102960, Note_on_c, 0, 43, 100
2, 103440, Note_on_c, 0, 43, 0
2, 103440, Note_on_c, 0, 43, 100
2, 103680, Note_on_c, 0, 43, 0
2, 103680, Note_on_c, 0, 43, 100
2, 104160, Note_on_c, 0, 43, 0
2, 104160, Note_on_c, 0, 43, 100
2, 104400, Note_on_c, 0, 43, 0
2, 104400, Note_on_c, 0, 43, 100
2, 104640, Note_on_c, 0, 43, 0
2, 104640, Note_on_c, 0, 43, 100
2, 104880, Note_on_c, 0, 43, 0
2, 104880, Note_on_c, 0, 43, 100
2, 105120, Note_on_c, 0, 43, 0
2, 105120, Note_on_c, 0, 43, 100
2, 105360, Note_on_c, 0, 43, 0
2, 105360, Note_on_c, 0, 43, 100
2, 105600, Note_on_c, 0, 43, 0
2, 105600, Note_on_c, 0, 43, 100
2, 105840, Note_on_c, 0, 43, 0
2, 105840, Note_on_c, 0, 43, 100
2, 106320, Note_on_c, 0, 43, 0
2, 106320, Note_on_c, 0, 43, 100
2, 106560, Note_on_c, 0, 43, 0
2, 106560, Note_on_c, 0, 43, 100
2, 106800, Note_on_c, 0, 43, 0
2, 112320, Note_on_c, 0, 52, 100
2, 112800, Note_on_c, 0, 52, 0
2, 112800, Note_on_c, 0, 62, 100
2, 112920, Note_on_c, 0, 62, 0
2, 112920, Note_on_c, 0, 60, 100
2, 113040, Note_on_c, 0, 60, 0
2, 113040, Note_on_c, 0, 59, 100
2, 113160, Note_on_c, 0, 59, 0
2, 113160, Note_on_c, 0, 60, 100
2, 113280, Note_on_c, 0, 60, 0
2, 113280, Note_on_c, 0, 57, 100
2, 113400, Note_on_c, 0, 57, 0
2, 113400, Note_on_c, 0, 59, 100
2, 113520, Note_on_c, 0, 59, 0
2, 113520, Note_on_c, 0, 55, 100
2, 113640, Note_on_c, 0, 55, 0
2, 113640, Note_on_c, 0, 57, 100
2, 113760, Note_on_c, 0, 57, 0
2, 113760, Note_on_c, 0, 53, 100
2, 113880, Note_on_c, 0, 53, 0
2, 113880, Note_on_c, 0, 55, 100
2, 114000, Note_on_c, 0, 55, 0
2, 114000, Note_on_c, 0, 52, 100
2, 114120, Note_on_c, 0, 52, 0
2, 114120, Note_on_c, 0, 53, 100
2, 114240, Note_on_c, 0, 53, 0
2, 114240, Note_on_c, 0, 50, 100
2, 114360, Note_on_c, 0, 50, 0
2, 114360, Note_on_c, 0, 52, 100
2, 114480, Note_on_c, 0, 52, 0
2, 114480, Note_on_c, 0, 48, 100
2, 114600, Note_on_c, 0, 48, 0
2, 114600, Note_on_c, 0, 55, 100
2, 114720, Note_on_c, 0, 55, 0
2, 114720, Note_on_c, 0, 57, 100
2, 114840, Note_on_c, 0, 57, 0
2, 114840, Note_on_c, 0, 59, 100
2, 114960, Note_on_c, 0, 59, 0
2, 114960, Note_on_c, 0, 60, 100
2, 115080, Note_on_c, 0, 60, 0
2, 115080, Note_on_c, 0, 62, 100
2, 115200, Note_on_c, 0, 62, 0
2, 115200, Note_on_c, 0, 64, 100
2, 115440, Note_on_c, 0, 64, 0
2, 115440, Note_on_c, 0, 36, 100
2, 115680, Note_on_c, 0, 36, 0
2, 115680, Note_on_c, 0, 64, 100
2, 115920, Note_on_c, 0, 64, 0
2, 115920, Note_on_c, 0, 53, 100
2, 116040, Note_on_c, 0, 53, 0
2, 116040, Note_on_c, 0, 57, 100
2, 116160, Note_on_c, 0, 57, 0
2, 116160, Note_on_c, 0, 59, 100
2, 116280, Note_on_c, 0, 59, 0
2, 116280, Note_on_c, 0, 60, 100
2, 116400, Note_on_c, 0, 60, 0
2, 116400, Note_on_c, 0, 62, 100
2, 116520, Note_on_c, 0, 62, 0
2, 116520, Note_on_c, 0, 60, 100
2, 116640, Note_on_c, 0, 60, 0
2, 116640, Note_on_c, 0, 50, 100
2, 116760, Note_on_c, 0, 50, 0
2, 116760, Note_on_c, 0, 54, 100
2, 116880, Note_on_c, 0, 54, 0
2, 116880, Note_on_c, 0, 56, 100
2, 117000, Note_on_c, 0, 56, 0
2, 117000, Note_on_c, 0, 57, 100
2, 117120, Note_on_c, 0, 57, 0
2, 117120, Note_on_c, 0, 59, 100
2, 117240, Note_on_c, 0, 59, 0
2, 117240, Note_on_c, 0, 57, 100
2, 117360, Note_on_c, 0, 57, 0
2, 117360, Note_on_c, 0, 56, 100
2, 117480, Note_on_c, 0, 56, 0
2, 117480, Note_on_c, 0, 54, 100
2, 117600, Note_on_c, 0, 54, 0
2, 117600, Note_on_c, 0, 56, 100
2, 117720, Note_on_c, 0, 56, 0
2, 117720, Note_on_c, 0, 57, 100
2, 117840, Note_on_c, 0, 57, 0
2, 117840, Note_on_c, 0, 59, 100
2, 117960, Note_on_c, 0, 59, 0
2, 117960, Note_on_c, 0, 56, 100
2, 118080, Note_on_c, 0, 56, 0
2, 118080, Pitch_bend_c, 0, 12288
2, 118080, Note_on_c, 0, 52, 100
2, 118139, Pitch_bend_c, 0, 8192
2, 118200, Pitch_bend_c, 0, 12288
2, 118260, Pitch_bend_c, 0, 8192
2, 118560, Note_on_c, 0, 52, 0
2, 118560, Note_on_c, 0, 59, 100
2, 118800, Note_on_c, 0, 59, 0
2, 118800, Note_on_c, 0, 60, 100
2, 119040, Note_on_c, 0, 60, 0
2, 119040, Note_on_c, 0, 52, 100
2, 119280, Note_on_c, 0, 52, 0
2, 119280, Note_on_c, 0, 53, 100
2, 119520, Note_on_c, 0, 53, 0
2, 119520, Note_on_c, 0, 50, 100
2, 119760, Note_on_c, 0, 50, 0
2, 119760, Note_on_c, 0, 62, 100
2, 119880, Note_on_c, 0, 62, 0
2, 119880, Note_on_c, 0, 60, 100
2, 120000, Note_on_c, 0, 60, 0
2, 120000, Note_on_c, 0, 59, 100
2, 120120, Note_on_c, 0, 59, 0
2, 120120, Note_on_c, 0, 57, 100
2, 120240, Note_on_c, 0, 57, 0
2, 120240, Note_on_c, 0, 59, 100
2, 120480, Note_on_c, 0, 59, 0
2, 120480, Note_on_c, 0, 43, 100
2, 120600, Note_on_c, 0, 43, 0
2, 120600, Note_on_c, 0, 45, 100
2, 120720, Note_on_c, 0, 45, 0
2, 120720, Note_on_c, 0, 47, 100
2, 120840, Note_on_c, 0, 47, 0
2, 120840, Note_on_c, 0, 48, 100
2, 120960, Note_on_c, 0, 48, 0
2, 120960, Note_on_c, 0, 50, 100
2, 121200, Note_on_c, 0, 50, 0
2, 121200, Note_on_c, 0, 43, 100
2, 121440, Note_on_c, 0, 43, 0
2, 121440, Note_on_c, 0, 58, 100
2, 121680, Note_on_c, 0, 58, 0
2, 121680, Note_on_c, 0, 58, 100
2, 121920, Note_on_c, 0, 58, 0
2, 121920, Note_on_c, 0, 50, 100
2, 122160, Note_on_c, 0, 50, 0
2, 122160, Note_on_c, 0, 52, 100
2, 122400, Note_on_c, 0, 52, 0
2, 122400, Note_on_c, 0, 48, 100
2, 122640, Note_on_c, 0, 48, 0
2, 122640, Note_on_c, 0, 60, 100
2, 122760, Note_on_c, 0, 60, 0
2, 122760, Note_on_c, 0, 58, 100
2, 122880, Note_on_c, 0, 58, 0
2, 122880, Note_on_c, 0, 57, 100
2, 123000, Note_on_c, 0, 57, 0
2, 123000, Note_on_c, 0, 55, 100
2, 123120, Note_on_c, 0, 55, 0
2, 123120, Note_on_c, 0, 57, 100
2, 123360, Note_on_c, 0, 57, 0
2, 123360, Note_on_c, 0, 41, 100
2, 123480, Note_on_c, 0, 41, 0
2, 123480, Note_on_c, 0, 43, 100
2, 123600, Note_on_c, 0, 43, 0
2, 123600, Note_on_c, 0, 45, 100
2, 123720, Note_on_c, 0, 45, 0
2, 123720, Note_on_c, 0, 46, 100
2, 123840, Note_on_c, 0, 46, 0
2, 123840, Note_on_c, 0, 48, 100
2, 124080, Note_on_c, 0, 48, 0
2, 124080, Note_on_c, 0, 41, 100
2, 124320, Note_on_c, 0, 41, 0
2, 124320, Note_on_c, 0, 57, 100
2, 124560, Note_on_c, 0, 57, 0
2, 124560, Note_on_c, 0, 53, 100
2, 124800, Note_on_c, 0, 53, 0
2, 124800, Note_on_c, 0, 49, 100
2, 125040, Note_on_c, 0, 49, 0
2, 125040, Note_on_c, 0, 50, 100
2, 125280, Note_on_c, 0, 50, 0
2, 125280, Note_on_c, 0, 58, 100
2, 125520, Note_on_c, 0, 58, 0
2, 125520, Note_on_c, 0, 56, 100
2, 125760, Note_on_c, 0, 56, 0
2, 125760, Note_on_c, 0, 57, 100
2, 126000, Note_on_c, 0, 57, 0
2, 126000, Note_on_c, 0, 62, 100
2, 126120, Note_on_c, 0, 62, 0
2, 126120, Note_on_c, 0, 64, 100
2, 126240, Note_on_c, 0, 64, 0
2, 126240, Note_on_c, 0, 65, 100
2, 126480, Note_on_c, 0, 65, 0
2, 126480, Note_on_c, 0, 56, 100
2, 126720, Note_on_c, 0, 56, 0
2, 126720, Note_on_c, 0, 50, 100
2, 127200, Note_on_c, 0, 50, 0
2, 127200, Note_on_c, 0, 65, 100
2, 127440, Note_on_c, 0, 65, 0
2, 127440, Note_on_c, 0, 64, 100
2, 127680, Note_on_c, 0, 64, 0
2, 127680, Note_on_c, 0, 62, 100
2, 127800, Note_on_c, 0, 62, 0
2, 127800, Note_on_c, 0, 60, 100
2, 127920, Note_on_c, 0, 60, 0
2, 127920, Note_on_c, 0, 59, 100
2, 128040, Note_on_c, 0, 59, 0
2, 128040, Note_on_c, 0, 57, 100
2, 128160, Note_on_c, 0, 57, 0
2, 128160, Note_on_c, 0, 59, 100
2, 128280, Note_on_c, 0, 59, 0
2, 128280, Note_on_c, 0, 62, 100
2, 128400, Note_on_c, 0, 62, 0
2, 128400, Note_on_c, 0, 60, 100
2, 128520, Note_on_c, 0, 60, 0
2, 128520, Note_on_c, 0, 57, 100
2, 128640, Note_on_c, 0, 57, 0
2, 128640, Note_on_c, 0, 59, 100
2, 128760, Note_on_c, 0, 59, 0
2, 128760, Note_on_c, 0, 56, 100
2, 128880, Note_on_c, 0, 56, 0
2, 128880, Note_on_c, 0, 57, 100
2, 129120, Note_on_c, 0, 57, 0
2, 129120, Note_on_c, 0, 52, 100
2, 129360, Note_on_c, 0, 52, 0
2, 129360, Note_on_c, 0, 48, 100
2, 129600, Note_on_c, 0, 48, 0
2, 129600, Note_on_c, 0, 45, 100
2, 130080, Note_on_c, 0, 45, 0
2, 130080, Note_on_c, 0, 60, 100
2, 130320, Note_on_c, 0, 60, 0
2, 130320, Note_on_c, 0, 60, 100
2, 130800, Note_on_c, 0, 60, 0
2, 131520, Note_on_c, 0, 60, 100
2, 131760, Note_on_c, 0, 60, 0
2, 131760, Note_on_c, 0, 59, 100
2, 132240, Note_on_c, 0, 59, 0
2, 139080, Note_on_c, 0, 57, 100
2, 139200, Note_on_c, 0, 57, 0
2, 139320, Note_on_c, 0, 57, 100
2, 139440, Note_on_c, 0, 57, 0
2, 139560, Note_on_c, 0, 57, 100
2, 139680, Note_on_c, 0, 57, 0
2, 139800, Note_on_c, 0, 57, 100
2, 139920, Note_on_c, 0, 57, 0
2, 140040, Note_on_c, 0, 57, 100
2, 140160, Note_on_c, 0, 57, 0
2, 140280, Note_on_c, 0, 57, 100
2, 140400, Note_on_c, 0, 57, 0
2, 140520, Note_on_c, 0, 60, 100
2, 140640, Note_on_c, 0, 60, 0
2, 140760, Note_on_c, 0, 60, 100
2, 140880, Note_on_c, 0, 60, 0
2, 141000, Note_on_c, 0, 60, 100
2, 141120, Note_on_c, 0, 60, 0
2, 141240, Note_on_c, 0, 60, 100
2, 141360, Note_on_c, 0, 60, 0
2, 141480, Note_on_c, 0, 60, 100
2, 141600, Note_on_c, 0, 60, 0
2, 141720, Note_on_c, 0, 60, 100
2, 141840, Note_on_c, 0, 60, 0
2, 141840, Note_on_c, 0, 59, 100
2, 141960, Note_on_c, 0, 59, 0
2, 142080, Note_on_c, 0, 57, 100
2, 142200, Note_on_c, 0, 57, 0
2, 142320, Note_on_c, 0, 59, 100
2, 142440, Note_on_c, 0, 59, 0
2, 142560, Note_on_c, 0, 60, 100
2, 142680, Note_on_c, 0, 60, 0
2, 142800, Note_on_c, 0, 59, 100
2, 142920, Note_on_c, 0, 59, 0
2, 143040, Note_on_c, 0, 57, 100
2, 143160, Note_on_c, 0, 57, 0
2, 143280, Note_on_c, 0, 59, 100
2, 143400, Note_on_c, 0, 59, 0
2, 143520, Note_on_c, 0, 62, 100
2, 143640, Note_on_c, 0, 62, 0
2, 143760, Note_on_c, 0, 65, 100
2, 144000, Note_on_c, 0, 65, 0
2, 144480, Note_on_c, 0, 50, 100
2, 144720, Note_on_c, 0, 50, 0
2, 144720, Note_on_c, 0, 43, 100
2, 144960, Note_on_c, 0, 43, 0
2, 144960, Note_on_c, 0, 43, 100
2, 145200, Note_on_c, 0, 43, 0
2, 145200, Note_on_c, 0, 43, 100
2, 145440, Note_on_c, 0, 43, 0
2, 145440, Note_on_c, 0, 43, 100
2, 145680, Note_on_c, 0, 43, 0
2, 145680, Note_on_c, 0, 43, 100
2, 145920, Note_on_c, 0, 43, 0
2, 145920, Note_on_c, 0, 43, 100
2, 146160, Note_on_c, 0, 43, 0
2, 146160, Note_on_c, 0, 43, 100
2, 146640, Note_on_c, 0, 43, 0
2, 146640, Note_on_c, 0, 43, 100
2, 146880, Note_on_c, 0, 43, 0
2, 146880, Note_on_c, 0, 43, 100
2, 147360, Note_on_c, 0, 43, 0
2, 147360, Note_on_c, 0, 43, 100
2, 147600, Note_on_c, 0, 43, 0
2, 147600, Note_on_c, 0, 43, 100
2, 147840, Note_on_c, 0, 43, 0
2, 147840, Note_on_c, 0, 43, 100
2, 148080, Note_on_c, 0, 43, 0
2, 148080, Note_on_c, 0, 43, 100
2, 148320, Note_on_c, 0, 43, 0
2, 148320, Note_on_c, 0, 43, 100
2, 148560, Note_on_c, 0, 43, 0
2, 148560, Note_on_c, 0, 43, 100
2, 148800, Note_on_c, 0, 43, 0
2, 148800, Note_on_c, 0, 43, 100
2, 149040, Note_on_c, 0, 43, 0
2, 149040, Note_on_c, 0, 43, 100
2, 149520, Note_on_c, 0, 43, 0
2, 149520, Note_on_c, 0, 43, 100
2, 149760, Note_on_c, 0, 43, 0
2, 149760, Note_on_c, 0, 43, 100
2, 150000, Note_on_c, 0, 43, 0
2, 155520, Note_on_c, 0, 52, 100
2, 156000, Note_on_c, 0, 52, 0
2, 156000, End_track
3, 0, Start_track
3, 0, MIDI_port, 0
3, 0, Title_t, "--------------------------------------"
3, 0, Program_c, 1, 42
3, 0, Control_c, 1, 7, 100
3, 0, Control_c, 1, 10, 74
3, 15240, Note_on_c, 1, 50, 100
3, 15360, Note_on_c, 1, 50, 0
3, 15480, Note_on_c, 1, 50, 100
3, 15600, Note_on_c, 1, 50, 0
3, 15720, Note_on_c, 1, 50, 100
3, 15840, Note_on_c, 1, 50, 0
3, 15960, Note_on_c, 1, 50, 100
3, 16080, Note_on_c, 1, 50, 0
3, 16200, Note_on_c, 1, 50, 100
3, 16320, Note_on_c, 1, 50, 0
3, 16440, Note_on_c, 1, 50, 100
3, 16560, Note_on_c, 1, 50, 0
3, 16680, Note_on_c, 1, 50, 100
3, 16800, Note_on_c, 1, 50, 0
3, 16920, Note_on_c, 1, 50, 100
3, 17040, Note_on_c, 1, 50, 0
3, 17160, Note_on_c, 1, 50, 100
3, 17280, Note_on_c, 1, 50, 0
3, 17400, Note_on_c, 1, 50, 100
3, 17520, Note_on_c, 1, 50, 0
3, 17640, Note_on_c, 1, 50, 100
3, 17760, Note_on_c, 1, 50, 0
3, 17880, Note_on_c, 1, 50, 100
3, 18000, Note_on_c, 1, 50, 0
3, 18120, Note_on_c, 1, 43, 100
3, 18240, Note_on_c, 1, 43, 0
3, 18360, Note_on_c, 1, 43, 100
3, 18480, Note_on_c, 1, 43, 0
3, 18600, Note_on_c, 1, 43, 100
3, 18720, Note_on_c, 1, 43, 0
3, 18840, Note_on_c, 1, 43, 100
3, 18960, Note_on_c, 1, 43, 0
3, 19080, Note_on_c, 1, 43, 100
3, 19200, Note_on_c, 1, 43, 0
3, 19320, Note_on_c, 1, 43, 100
3, 19440, Note_on_c, 1, 43, 0
3, 19560, Note_on_c, 1, 43, 100
3, 19680, Note_on_c, 1, 43, 0
3, 19800, Note_on_c, 1, 43, 100
3, 19920, Note_on_c, 1, 43, 0
3, 20040, Note_on_c, 1, 43, 100
3, 20160, Note_on_c, 1, 43, 0
3, 20280, Note_on_c, 1, 43, 100
3, 20400, Note_on_c, 1, 43, 0
3, 20520, Note_on_c, 1, 43, 100
3, 20640, Note_on_c, 1, 43, 0
3, 20760, Note_on_c, 1, 43, 100
3, 20880, Note_on_c, 1, 43, 0
3, 21000, Note_on_c, 1, 43, 100
3, 21120, Note_on_c, 1, 43, 0
3, 21240, Note_on_c, 1, 43, 100
3, 21360, Note_on_c, 1, 43, 0
3, 21480, Note_on_c, 1, 43, 100
3, 21600, Note_on_c, 1, 43, 0
3, 21720, Note_on_c, 1, 43, 100
3, 21840, Note_on_c, 1, 43, 0
3, 21960, Note_on_c, 1, 43, 100
3, 22080, Note_on_c, 1, 43, 0
3, 22200, Note_on_c, 1, 43, 100
3, 22320, Note_on_c, 1, 43, 0
3, 22440, Note_on_c, 1, 43, 100
3, 22560, Note_on_c, 1, 43, 0
3, 22680, Note_on_c, 1, 43, 100
3, 22800, Note_on_c, 1, 43, 0
3, 23760, Note_on_c, 1, 50, 100
3, 24000, Note_on_c, 1, 50, 0
3, 24000, Note_on_c, 1, 50, 100
3, 24240, Note_on_c, 1, 50, 0
3, 24240, Note_on_c, 1, 50, 100
3, 24480, Note_on_c, 1, 50, 0
3, 24480, Note_on_c, 1, 50, 100
3, 24720, Note_on_c, 1, 50, 0
3, 24720, Note_on_c, 1, 50, 100
3, 24960, Note_on_c, 1, 50, 0
3, 24960, Note_on_c, 1, 50, 100
3, 25200, Note_on_c, 1, 50, 0
3, 25200, Note_on_c, 1, 50, 100
3, 25680, Note_on_c, 1, 50, 0
3, 25680, Note_on_c, 1, 50, 100
3, 25920, Note_on_c, 1, 50, 0
3, 25920, Note_on_c, 1, 50, 100
3, 26400, Note_on_c, 1, 50, 0
3, 26400, Note_on_c, 1, 50, 100
3, 26640, Note_on_c, 1, 50, 0
3, 26640, Note_on_c, 1, 50, 100
3, 26880, Note_on_c, 1, 50, 0
3, 26880, Note_on_c, 1, 50, 100
3, 27120, Note_on_c, 1, 50, 0
3, 27120, Note_on_c, 1, 50, 100
3, 27360, Note_on_c, 1, 50, 0
3, 27360, Note_on_c, 1, 50, 100
3, 27600, Note_on_c, 1, 50, 0
3, 27600, Note_on_c, 1, 50, 100
3, 27840, Note_on_c, 1, 50, 0
3, 27840, Note_on_c, 1, 50, 100
3, 28080, Note_on_c, 1, 50, 0
3, 28080, Note_on_c, 1, 50, 100
3, 28560, Note_on_c, 1, 50, 0
3, 28560, Note_on_c, 1, 50, 100
3, 28800, Note_on_c, 1, 50, 0
3, 28800, Note_on_c, 1, 50, 100
3, 29280, Note_on_c, 1, 50, 0
3, 49800, Note_on_c, 1, 50, 100
3, 49920, Note_on_c, 1, 50, 0
3, 50040, Note_on_c, 1, 50, 100
3, 50160, Note_on_c, 1, 50, 0
3, 50280, Note_on_c, 1, 50, 100
3, 50400, Note_on_c, 1, 50, 0
3, 50520, Note_on_c, 1, 50, 100
3, 50640, Note_on_c, 1, 50, 0
3, 50760, Note_on_c, 1, 50, 100
3, 50880, Note_on_c, 1, 50, 0
3, 51000, Note_on_c, 1, 50, 100
3, 51120, Note_on_c, 1, 50, 0
3, 51240, Note_on_c, 1, 50, 100
3, 51360, Note_on_c, 1, 50, 0
3, 51480, Note_on_c, 1, 50, 100
3, 51600, Note_on_c, 1, 50, 0
3, 51720, Note_on_c, 1, 50, 100
3, 51840, Note_on_c, 1, 50, 0
3, 51960, Note_on_c, 1, 50, 100
3, 52080, Note_on_c, 1, 50, 0
3, 52200, Note_on_c, 1, 50, 100
3, 52320, Note_on_c, 1, 50, 0
3, 52440, Note_on_c, 1, 50, 100
3, 52560, Note_on_c, 1, 50, 0
3, 52680, Note_on_c, 1, 43, 100
3, 52800, Note_on_c, 1, 43, 0
3, 52920, Note_on_c, 1, 43, 100
3, 53040, Note_on_c, 1, 43, 0
3, 53160, Note_on_c, 1, 43, 100
3, 53280, Note_on_c, 1, 43, 0
3, 53400, Note_on_c, 1, 43, 100
3, 53520, Note_on_c, 1, 43, 0
3, 53640, Note_on_c, 1, 43, 100
3, 53760, Note_on_c, 1, 43, 0
3, 53880, Note_on_c, 1, 43, 100
3, 54000, Note_on_c, 1, 43, 0
3, 54120, Note_on_c, 1, 43, 100
3, 54240, Note_on_c, 1, 43, 0
3, 54360, Note_on_c, 1, 43, 100
3, 54480, Note_on_c, 1, 43, 0
3, 54600, Note_on_c, 1, 43, 100
3, 54720, Note_on_c, 1, 43, 0
3, 54840, Note_on_c, 1, 43, 100
3, 54960, Note_on_c, 1, 43, 0
3, 55080, Note_on_c, 1, 43, 100
3, 55200, Note_on_c, 1, 43, 0
3, 55320, Note_on_c, 1, 43, 100
3, 55440, Note_on_c, 1, 43, 0
3, 55560, Note_on_c, 1, 43, 100
3, 55680, Note_on_c, 1, 43, 0
3, 55800, Note_on_c, 1, 43, 100
3, 55920, Note_on_c, 1, 43, 0
3, 56040, Note_on_c, 1, 43, 100
3, 56160, Note_on_c, 1, 43, 0
3, 56280, Note_on_c, 1, 43, 100
3, 56400, Note_on_c, 1, 43, 0
3, 56520, Note_on_c, 1, 43, 100
3, 56640, Note_on_c, 1, 43, 0
3, 56760, Note_on_c, 1, 43, 100
3, 56880, Note_on_c, 1, 43, 0
3, 57000, Note_on_c, 1, 43, 100
3, 57120, Note_on_c, 1, 43, 0
3, 57240, Note_on_c, 1, 43, 100
3, 57360, Note_on_c, 1, 43, 0
3, 58320, Note_on_c, 1, 50, 100
3, 58560, Note_on_c, 1, 50, 0
3, 58560, Note_on_c, 1, 50, 100
3, 58800, Note_on_c, 1, 50, 0
3, 58800, Note_on_c, 1, 50, 100
3, 59040, Note_on_c, 1, 50, 0
3, 59040, Note_on_c, 1, 50, 100
3, 59280, Note_on_c, 1, 50, 0
3, 59280, Note_on_c, 1, 50, 100
3, 59520, Note_on_c, 1, 50, 0
3, 59520, Note_on_c, 1, 50, 100
3, 59760, Note_on_c, 1, 50, 0
3, 59760, Note_on_c, 1, 50, 100
3, 60240, Note_on_c, 1, 50, 0
3, 60240, Note_on_c, 1, 50, 100
3, 60480, Note_on_c, 1, 50, 0
3, 60480, Note_on_c, 1, 50, 100
3, 60960, Note_on_c, 1, 50, 0
3, 60960, Note_on_c, 1, 50, 100
3, 61200, Note_on_c, 1, 50, 0
3, 61200, Note_on_c, 1, 50, 100
3, 61440, Note_on_c, 1, 50, 0
3, 61440, Note_on_c, 1, 50, 100
3, 61680, Note_on_c, 1, 50, 0
3, 61680, Note_on_c, 1, 50, 100
3, 61920, Note_on_c, 1, 50, 0
3, 61920, Note_on_c, 1, 50, 100
3, 62160, Note_on_c, 1, 50, 0
3, 62160, Note_on_c, 1, 50, 100
3, 62400, Note_on_c, 1, 50, 0
3, 62400, Note_on_c, 1, 50, 100
3, 62640, Note_on_c, 1, 50, 0
3, 62640, Note_on_c, 1, 50, 100
3, 63120, Note_on_c, 1, 50, 0
3, 63120, Note_on_c, 1, 50, 100
3, 63360, Note_on_c, 1, 50, 0
3, 63360, Note_on_c, 1, 50, 100
3, 63840, Note_on_c, 1, 50, 0
3, 87120, Note_on_c, 1, 54, 100
3, 87240, Note_on_c, 1, 54, 0
3, 87240, Note_on_c, 1, 52, 100
3, 87360, Note_on_c, 1, 52, 0
3, 87360, Note_on_c, 1, 54, 100
3, 87600, Note_on_c, 1, 54, 0
3, 87600, Note_on_c, 1, 50, 100
3, 87840, Note_on_c, 1, 50, 0
3, 87840, Note_on_c, 1, 38, 100
3, 87960, Note_on_c, 1, 38, 0
3, 87960, Note_on_c, 1, 45, 100
3, 88080, Note_on_c, 1, 45, 0
3, 88080, Note_on_c, 1, 50, 100
3, 88320, Note_on_c, 1, 50, 0
3, 88320, Note_on_c, 1, 54, 100
3, 88560, Note_on_c, 1, 54, 0
3, 88560, Note_on_c, 1, 55, 100
3, 88680, Note_on_c, 1, 55, 0
3, 88680, Note_on_c, 1, 54, 100
3, 88800, Note_on_c, 1, 54, 0
3, 88800, Note_on_c, 1, 55, 100
3, 89040, Note_on_c, 1, 55, 0
3, 89040, Note_on_c, 1, 50, 100
3, 89280, Note_on_c, 1, 50, 0
3, 89280, Note_on_c, 1, 52, 100
3, 89400, Note_on_c, 1, 52, 0
3, 89400, Note_on_c, 1, 53, 100
3, 89520, Note_on_c, 1, 53, 0
3, 89520, Note_on_c, 1, 55, 100
3, 89640, Note_on_c, 1, 55, 0
3, 89640, Note_on_c, 1, 57, 100
3, 89760, Note_on_c, 1, 57, 0
3, 89760, Note_on_c, 1, 58, 100
3, 89880, Note_on_c, 1, 58, 0
3, 89880, Note_on_c, 1, 55, 100
3, 90000, Note_on_c, 1, 55, 0
3, 90000, Note_on_c, 1, 57, 100
3, 90120, Note_on_c, 1, 57, 0
3, 90120, Note_on_c, 1, 55, 100
3, 90240, Note_on_c, 1, 55, 0
3, 90240, Note_on_c, 1, 53, 100
3, 90360, Note_on_c, 1, 53, 0
3, 90360, Note_on_c, 1, 52, 100
3, 90480, Note_on_c, 1, 52, 0
3, 90480, Note_on_c, 1, 53, 100
3, 90600, Note_on_c, 1, 53, 0
3, 90600, Note_on_c, 1, 62, 100
3, 90720, Note_on_c, 1, 62, 0
3, 90720, Note_on_c, 1, 60, 100
3, 90840, Note_on_c, 1, 60, 0
3, 90840, Note_on_c, 1, 59, 100
3, 90960, Note_on_c, 1, 59, 0
3, 90960, Note_on_c, 1, 57, 100
3, 91080, Note_on_c, 1, 57, 0
3, 91080, Note_on_c, 1, 55, 100
3, 91200, Note_on_c, 1, 55, 0
3, 91200, Note_on_c, 1, 60, 100
3, 91320, Note_on_c, 1, 60, 0
3, 91320, Note_on_c, 1, 52, 100
3, 91440, Note_on_c, 1, 52, 0
3, 91440, Note_on_c, 1, 43, 100
3, 91560, Note_on_c, 1, 43, 0
3, 91560, Note_on_c, 1, 53, 100
3, 91680, Note_on_c, 1, 53, 0
3, 91680, Note_on_c, 1, 52, 100
3, 91800, Note_on_c, 1, 52, 0
3, 91800, Note_on_c, 1, 50, 100
3, 91920, Note_on_c, 1, 50, 0
3, 91920, Note_on_c, 1, 52, 100
3, 92040, Note_on_c, 1, 52, 0
3, 92040, Note_on_c, 1, 48, 100
3, 92160, Note_on_c, 1, 48, 0
3, 92160, Note_on_c, 1, 55, 100
3, 92640, Note_on_c, 1, 55, 0
3, 92640, Note_on_c, 1, 55, 100
3, 92880, Note_on_c, 1, 55, 0
3, 92880, Note_on_c, 1, 53, 100
3, 93000, Note_on_c, 1, 53, 0
3, 93120, Note_on_c, 1, 52, 100
3, 93240, Note_on_c, 1, 52, 0
3, 93360, Note_on_c, 1, 50, 100
3, 93480, Note_on_c, 1, 50, 0
3, 93600, Note_on_c, 1, 52, 100
3, 93720, Note_on_c, 1, 52, 0
3, 93840, Note_on_c, 1, 50, 100
3, 93960, Note_on_c, 1, 50, 0
3, 94080, Note_on_c, 1, 52, 100
3, 94200, Note_on_c, 1, 52, 0
3, 94320, Note_on_c, 1, 53, 100
3, 94440, Note_on_c, 1, 53, 0
3, 94560, Note_on_c, 1, 52, 100
3, 94680, Note_on_c, 1, 52, 0
3, 94800, Note_on_c, 1, 50, 100
3, 94920, Note_on_c, 1, 50, 0
3, 95040, Note_on_c, 1, 52, 100
3, 95160, Note_on_c, 1, 52, 0
3, 95280, Note_on_c, 1, 54, 100
3, 95400, Note_on_c, 1, 54, 0
3, 95520, Note_on_c, 1, 55, 100
3, 95640, Note_on_c, 1, 55, 0
3, 95760, Note_on_c, 1, 54, 100
3, 95880, Note_on_c, 1, 54, 0
3, 96000, Note_on_c, 1, 50, 100
3, 96120, Note_on_c, 1, 50, 0
3, 96240, Note_on_c, 1, 52, 100
3, 96360, Note_on_c, 1, 52, 0
3, 96480, Note_on_c, 1, 54, 100
3, 96600, Note_on_c, 1, 54, 0
3, 96720, Note_on_c, 1, 55, 100
3, 96840, Note_on_c, 1, 55, 0
3, 96960, Note_on_c, 1, 52, 100
3, 97080, Note_on_c, 1, 52, 0
3, 97200, Note_on_c, 1, 54, 100
3, 97320, Note_on_c, 1, 54, 0
3, 97440, Note_on_c, 1, 50, 100
3, 97560, Note_on_c, 1, 50, 0
3, 97680, Note_on_c, 1, 52, 100
3, 97800, Note_on_c, 1, 52, 0
3, 97920, Note_on_c, 1, 54, 100
3, 98040, Note_on_c, 1, 54, 0
3, 98160, Note_on_c, 1, 52, 100
3, 98280, Note_on_c, 1, 52, 0
3, 98400, Note_on_c, 1, 50, 100
3, 98520, Note_on_c, 1, 50, 0
3, 98760, Note_on_c, 1, 50, 100
3, 98880, Note_on_c, 1, 50, 0
3, 99000, Note_on_c, 1, 50, 100
3, 99120, Note_on_c, 1, 50, 0
3, 99240, Note_on_c, 1, 50, 100
3, 99360, Note_on_c, 1, 50, 0
3, 99480, Note_on_c, 1, 50, 100
3, 99600, Note_on_c, 1, 50, 0
3, 99720, Note_on_c, 1, 50, 100
3, 99840, Note_on_c, 1, 50, 0
3, 99960, Note_on_c, 1, 50, 100
3, 100080, Note_on_c, 1, 50, 0
3, 100200, Note_on_c, 1, 50, 100
3, 100320, Note_on_c, 1, 50, 0
3, 100440, Note_on_c, 1, 50, 100
3, 100560, Note_on_c, 1, 50, 0
3, 100800, Note_on_c, 1, 43, 100
3, 101280, Note_on_c, 1, 43, 0
3, 101520, Note_on_c, 1, 53, 100
3, 101640, Note_on_c, 1, 53, 0
3, 101640, Note_on_c, 1, 55, 100
3, 101760, Note_on_c, 1, 55, 0
3, 101760, Note_on_c, 1, 56, 100
3, 102000, Note_on_c, 1, 56, 0
3, 102000, Note_on_c, 1, 55, 100
3, 102240, Note_on_c, 1, 55, 0
3, 102240, Note_on_c, 1, 53, 100
3, 102480, Note_on_c, 1, 53, 0
3, 102480, Note_on_c, 1, 51, 100
3, 102720, Note_on_c, 1, 51, 0
3, 102720, Note_on_c, 1, 50, 100
3, 102960, Note_on_c, 1, 50, 0
3, 102960, Note_on_c, 1, 59, 100
3, 103200, Note_on_c, 1, 59, 0
3, 103200, Note_on_c, 1, 60, 100
3, 103440, Note_on_c, 1, 60, 0
3, 103440, Note_on_c, 1, 50, 100
3, 103680, Note_on_c, 1, 50, 0
3, 103680, Note_on_c, 1, 59, 100
3, 103920, Note_on_c, 1, 59, 0
3, 103920, Note_on_c, 1, 60, 100
3, 104160, Note_on_c, 1, 60, 0
3, 104160, Note_on_c, 1, 50, 100
3, 104400, Note_on_c, 1, 50, 0
3, 104400, Note_on_c, 1, 53, 100
3, 104520, Note_on_c, 1, 53, 0
3, 104520, Note_on_c, 1, 55, 100
3, 104640, Note_on_c, 1, 55, 0
3, 104640, Note_on_c, 1, 56, 100
3, 104880, Note_on_c, 1, 56, 0
3, 104880, Note_on_c, 1, 55, 100
3, 105120, Note_on_c, 1, 55, 0
3, 105120, Note_on_c, 1, 53, 100
3, 105360, Note_on_c, 1, 53, 0
3, 105360, Note_on_c, 1, 51, 100
3, 105600, Note_on_c, 1, 51, 0
3, 105600, Note_on_c, 1, 50, 100
3, 105840, Note_on_c, 1, 50, 0
3, 105840, Note_on_c, 1, 54, 100
3, 106080, Note_on_c, 1, 54, 0
3, 106080, Note_on_c, 1, 55, 100
3, 106320, Note_on_c, 1, 55, 0
3, 106320, Note_on_c, 1, 50, 100
3, 106560, Note_on_c, 1, 50, 0
3, 106560, Note_on_c, 1, 54, 100
3, 106800, Note_on_c, 1, 54, 0
3, 106800, Note_on_c, 1, 55, 100
3, 106920, Note_on_c, 1, 55, 0
3, 106920, Note_on_c, 1, 53, 100
3, 107040, Note_on_c, 1, 53, 0
3, 107040, Note_on_c, 1, 52, 100
3, 107160, Note_on_c, 1, 52, 0
3, 107160, Note_on_c, 1, 50, 100
3, 107280, Note_on_c, 1, 50, 0
3, 107280, Note_on_c, 1, 48, 100
3, 107400, Note_on_c, 1, 48, 0
3, 107400, Note_on_c, 1, 52, 100
3, 107520, Note_on_c, 1, 52, 0
3, 107520, Note_on_c, 1, 55, 100
3, 107760, Note_on_c, 1, 55, 0
3, 107760, Note_on_c, 1, 57, 100
3, 108000, Note_on_c, 1, 57, 0
3, 108000, Note_on_c, 1, 50, 100
3, 108120, Note_on_c, 1, 50, 0
3, 108120, Note_on_c, 1, 53, 100
3, 108240, Note_on_c, 1, 53, 0
3, 108240, Note_on_c, 1, 57, 100
3, 108480, Note_on_c, 1, 57, 0
3, 108480, Note_on_c, 1, 59, 100
3, 108720, Note_on_c, 1, 59, 0
3, 108720, Note_on_c, 1, 52, 100
3, 108840, Note_on_c, 1, 52, 0
3, 108840, Note_on_c, 1, 55, 100
3, 108960, Note_on_c, 1, 55, 0
3, 108960, Note_on_c, 1, 60, 100
3, 109080, Note_on_c, 1, 60, 0
3, 109080, Note_on_c, 1, 57, 100
3, 109200, Note_on_c, 1, 57, 0
3, 109200, Note_on_c, 1, 58, 100
3, 109320, Note_on_c, 1, 58, 0
3, 109320, Note_on_c, 1, 55, 100
3, 109440, Note_on_c, 1, 55, 0
3, 109440, Note_on_c, 1, 57, 100
3, 109560, Note_on_c, 1, 57, 0
3, 109560, Note_on_c, 1, 53, 100
3, 109680, Note_on_c, 1, 53, 0
3, 109680, Note_on_c, 1, 50, 100
3, 109800, Note_on_c, 1, 50, 0
3, 109800, Note_on_c, 1, 53, 100
3, 109920, Note_on_c, 1, 53, 0
3, 109920, Note_on_c, 1, 52, 100
3, 110040, Note_on_c, 1, 52, 0
3, 110040, Note_on_c, 1, 50, 100
3, 110160, Note_on_c, 1, 50, 0
3, 110160, Note_on_c, 1, 55, 100
3, 110280, Note_on_c, 1, 55, 0
3, 110280, Note_on_c, 1, 50, 100
3, 110400, Note_on_c, 1, 50, 0
3, 110400, Note_on_c, 1, 47, 100
3, 110520, Note_on_c, 1, 47, 0
3, 110520, Note_on_c, 1, 45, 100
3, 110640, Note_on_c, 1, 45, 0
3, 110640, Note_on_c, 1, 43, 100
3, 110760, Note_on_c, 1, 43, 0
3, 110760, Note_on_c, 1, 41, 100
3, 110880, Note_on_c, 1, 41, 0
3, 110880, Note_on_c, 1, 40, 100
3, 111000, Note_on_c, 1, 40, 0
3, 111000, Note_on_c, 1, 43, 100
3, 111120, Note_on_c, 1, 43, 0
3, 111120, Note_on_c, 1, 48, 100
3, 111240, Note_on_c, 1, 48, 0
3, 111240, Note_on_c, 1, 40, 100
3, 111360, Note_on_c, 1, 40, 0
3, 111360, Note_on_c, 1, 38, 100
3, 111480, Note_on_c, 1, 38, 0
3, 111480, Note_on_c, 1, 47, 100
3, 111600, Note_on_c, 1, 47, 0
3, 111600, Note_on_c, 1, 48, 100
3, 111840, Note_on_c, 1, 48, 0
3, 111840, Note_on_c, 1, 52, 100
3, 112080, Note_on_c, 1, 52, 0
3, 112080, Note_on_c, 1, 55, 100
3, 112320, Note_on_c, 1, 55, 0
3, 112320, Note_on_c, 1, 60, 100
3, 112800, Note_on_c, 1, 60, 0
3, 130320, Note_on_c, 1, 54, 100
3, 130440, Note_on_c, 1, 54, 0
3, 130440, Note_on_c, 1, 52, 100
3, 130560, Note_on_c, 1, 52, 0
3, 130560, Note_on_c, 1, 54, 100
3, 130800, Note_on_c, 1, 54, 0
3, 130800, Note_on_c, 1, 50, 100
3, 131040, Note_on_c, 1, 50, 0
3, 131040, Note_on_c, 1, 38, 100
3, 131160, Note_on_c, 1, 38, 0
3, 131160, Note_on_c, 1, 45, 100
3, 131280, Note_on_c, 1, 45, 0
3, 131280, Note_on_c, 1, 50, 100
3, 131520, Note_on_c, 1, 50, 0
3, 131520, Note_on_c, 1, 54, 100
3, 131760, Note_on_c, 1, 54, 0
3, 131760, Note_on_c, 1, 55, 100
3, 131880, Note_on_c, 1, 55, 0
3, 131880, Note_on_c, 1, 54, 100
3, 132000, Note_on_c, 1, 54, 0
3, 132000, Note_on_c, 1, 55, 100
3, 132240, Note_on_c, 1, 55, 0
3, 132240, Note_on_c, 1, 50, 100
3, 132480, Note_on_c, 1, 50, 0
3, 132480, Note_on_c, 1, 52, 100
3, 132600, Note_on_c, 1, 52, 0
3, 132600, Note_on_c, 1, 53, 100
3, 132720, Note_on_c, 1, 53, 0
3, 132720, Note_on_c, 1, 55, 100
3, 132840, Note_on_c, 1, 55, 0
3, 132840, Note_on_c, 1, 57, 100
3, 132960, Note_on_c, 1, 57, 0
3, 132960, Note_on_c, 1, 58, 100
3, 133080, Note_on_c, 1, 58, 0
3, 133080, Note_on_c, 1, 55, 100
3, 133200, Note_on_c, 1, 55, 0
3, 133200, Note_on_c, 1, 57, 100
3, 133320, Note_on_c, 1, 57, 0
3, 133320, Note_on_c, 1, 55, 100
3, 133440, Note_on_c, 1, 55, 0
3, 133440, Note_on_c, 1, 53, 100
3, 133560, Note_on_c, 1, 53, 0
3, 133560, Note_on_c, 1, 52, 100
3, 133680, Note_on_c, 1, 52, 0
3, 133680, Note_on_c, 1, 53, 100
3, 133800, Note_on_c, 1, 53, 0
3, 133800, Note_on_c, 1, 62, 100
3, 133920, Note_on_c, 1, 62, 0
3, 133920, Note_on_c, 1, 60, 100
3, 134040, Note_on_c, 1, 60, 0
3, 134040, Note_on_c, 1, 59, 100
3, 134160, Note_on_c, 1, 59, 0
3, 134160, Note_on_c, 1, 57, 100
3, 134280, Note_on_c, 1, 57, 0
3, 134280, Note_on_c, 1, 55, 100
3, 134400, Note_on_c, 1, 55, 0
3, 134400, Note_on_c, 1, 60, 100
3, 134520, Note_on_c, 1, 60, 0
3, 134520, Note_on_c, 1, 52, 100
3, 134640, Note_on_c, 1, 52, 0
3, 134640, Note_on_c, 1, 43, 100
3, 134760, Note_on_c, 1, 43, 0
3, 134760, Note_on_c, 1, 53, 100
3, 134880, Note_on_c, 1, 53, 0
3, 134880, Note_on_c, 1, 52, 100
3, 135000, Note_on_c, 1, 52, 0
3, 135000, Note_on_c, 1, 50, 100
3, 135120, Note_on_c, 1, 50, 0
3, 135120, Note_on_c, 1, 52, 100
3, 135240, Note_on_c, 1, 52, 0
3, 135240, Note_on_c, 1, 48, 100
3, 135360, Note_on_c, 1, 48, 0
3, 135360, Note_on_c, 1, 55, 100
3, 135840, Note_on_c, 1, 55, 0
3, 135840, Note_on_c, 1, 55, 100
3, 136080, Note_on_c, 1, 55, 0
3, 136080, Note_on_c, 1, 53, 100
3, 136200, Note_on_c, 1, 53, 0
3, 136320, Note_on_c, 1, 52, 100
3, 136440, Note_on_c, 1, 52, 0
3, 136560, Note_on_c, 1, 50, 100
3, 136680, Note_on_c, 1, 50, 0
3, 136800, Note_on_c, 1, 52, 100
3, 136920, Note_on_c, 1, 52, 0
3, 137040, Note_on_c, 1, 50, 100
3, 137160, Note_on_c, 1, 50, 0
3, 137280, Note_on_c, 1, 52, 100
3, 137400, Note_on_c, 1, 52, 0
3, 137520, Note_on_c, 1, 53, 100
3, 137640, Note_on_c, 1, 53, 0
3, 137760, Note_on_c, 1, 52, 100
3, 137880, Note_on_c, 1, 52, 0
3, 138000, Note_on_c, 1, 50, 100
3, 138120, Note_on_c, 1, 50, 0
3, 138240, Note_on_c, 1, 52, 100
3, 138360, Note_on_c, 1, 52, 0
3, 138480, Note_on_c, 1, 54, 100
3, 138600, Note_on_c, 1, 54, 0
3, 138720, Note_on_c, 1, 55, 100
3, 138840, Note_on_c, 1, 55, 0
3, 138960, Note_on_c, 1, 54, 100
3, 139080, Note_on_c, 1, 54, 0
3, 139200, Note_on_c, 1, 50, 100
3, 139320, Note_on_c, 1, 50, 0
3, 139440, Note_on_c, 1, 52, 100
3, 139560, Note_on_c, 1, 52, 0
3, 139680, Note_on_c, 1, 54, 100
3, 139800, Note_on_c, 1, 54, 0
3, 139920, Note_on_c, 1, 55, 100
3, 140040, Note_on_c, 1, 55, 0
3, 140160, Note_on_c, 1, 52, 100
3, 140280, Note_on_c, 1, 52, 0
3, 140400, Note_on_c, 1, 54, 100
3, 140520, Note_on_c, 1, 54, 0
3, 140640, Note_on_c, 1, 50, 100
3, 140760, Note_on_c, 1, 50, 0
3, 140880, Note_on_c, 1, 52, 100
3, 141000, Note_on_c, 1, 52, 0
3, 141120, Note_on_c, 1, 54, 100
3, 141240, Note_on_c, 1, 54, 0
3, 141360, Note_on_c, 1, 52, 100
3, 141480, Note_on_c, 1, 52, 0
3, 141600, Note_on_c, 1, 50, 100
3, 141720, Note_on_c, 1, 50, 0
3, 141960, Note_on_c, 1, 50, 100
3, 142080, Note_on_c, 1, 50, 0
3, 142200, Note_on_c, 1, 50, 100
3, 142320, Note_on_c, 1, 50, 0
3, 142440, Note_on_c, 1, 50, 100
3, 142560, Note_on_c, 1, 50, 0
3, 142680, Note_on_c, 1, 50, 100
3, 142800, Note_on_c, 1, 50, 0
3, 142920, Note_on_c, 1, 50, 100
3, 143040, Note_on_c, 1, 50, 0
3, 143160, Note_on_c, 1, 50, 100
3, 143280, Note_on_c, 1, 50, 0
3, 143400, Note_on_c, 1, 50, 100
3, 143520, Note_on_c, 1, 50, 0
3, 143640, Note_on_c, 1, 50, 100
3, 143760, Note_on_c, 1, 50, 0
3, 144000, Note_on_c, 1, 43, 100
3, 144480, Note_on_c, 1, 43, 0
3, 144720, Note_on_c, 1, 53, 100
3, 144840, Note_on_c, 1, 53, 0
3, 144840, Note_on_c, 1, 55, 100
3, 144960, Note_on_c, 1, 55, 0
3, 144960, Note_on_c, 1, 56, 100
3, 145200, Note_on_c, 1, 56, 0
3, 145200, Note_on_c, 1, 55, 100
3, 145440, Note_on_c, 1, 55, 0
3, 145440, Note_on_c, 1, 53, 100
3, 145680, Note_on_c, 1, 53, 0
3, 145680, Note_on_c, 1, 51, 100
3, 145920, Note_on_c, 1, 51, 0
3, 145920, Note_on_c, 1, 50, 100
3, 146160, Note_on_c, 1, 50, 0
3, 146160, Note_on_c, 1, 59, 100
3, 146400, Note_on_c, 1, 59, 0
3, 146400, Note_on_c, 1, 60, 100
3, 146640, Note_on_c, 1, 60, 0
3, 146640, Note_on_c, 1, 50, 100
3, 146880, Note_on_c, 1, 50, 0
3, 146880, Note_on_c, 1, 59, 100
3, 147120, Note_on_c, 1, 59, 0
3, 147120, Note_on_c, 1, 60, 100
3, 147360, Note_on_c, 1, 60, 0
3, 147360, Note_on_c, 1, 50, 100
3, 147600, Note_on_c, 1, 50, 0
3, 147600, Note_on_c, 1, 53, 100
3, 147720, Note_on_c, 1, 53, 0
3, 147720, Note_on_c, 1, 55, 100
3, 147840, Note_on_c, 1, 55, 0
3, 147840, Note_on_c, 1, 56, 100
3, 148080, Note_on_c, 1, 56, 0
3, 148080, Note_on_c, 1, 55, 100
3, 148320, Note_on_c, 1, 55, 0
3, 148320, Note_on_c, 1, 53, 100
3, 148560, Note_on_c, 1, 53, 0
3, 148560, Note_on_c, 1, 51, 100
3, 148800, Note_on_c, 1, 51, 0
3, 148800, Note_on_c, 1, 50, 100
3, 149040, Note_on_c, 1, 50, 0
3, 149040, Note_on_c, 1, 54, 100
3, 149280, Note_on_c, 1, 54, 0
3, 149280, Note_on_c, 1, 55, 100
3, 149520, Note_on_c, 1, 55, 0
3, 149520, Note_on_c, 1, 50, 100
3, 149760, Note_on_c, 1, 50, 0
3, 149760, Note_on_c, 1, 54, 100
3, 150000, Note_on_c, 1, 54, 0
3, 150000, Note_on_c, 1, 55, 100
3, 150120, Note_on_c, 1, 55, 0
3, 150120, Note_on_c, 1, 53, 100
3, 150240, Note_on_c, 1, 53, 0
3, 150240, Note_on_c, 1, 52, 100
3, 150360, Note_on_c, 1, 52, 0
3, 150360, Note_on_c, 1, 50, 100
3, 150480, Note_on_c, 1, 50, 0
3, 150480, Note_on_c, 1, 48, 100
3, 150600, Note_on_c, 1, 48, 0
3, 150600, Note_on_c, 1, 52, 100
3, 150720, Note_on_c, 1, 52, 0
3, 150720, Note_on_c, 1, 55, 100
3, 150960, Note_on_c, 1, 55, 0
3, 150960, Note_on_c, 1, 57, 100
3, 151200, Note_on_c, 1, 57, 0
3, 151200, Note_on_c, 1, 50, 100
3, 151320, Note_on_c, 1, 50, 0
3, 151320, Note_on_c, 1, 53, 100
3, 151440, Note_on_c, 1, 53, 0
3, 151440, Note_on_c, 1, 57, 100
3, 151680, Note_on_c, 1, 57, 0
3, 151680, Note_on_c, 1, 59, 100
3, 151920, Note_on_c, 1, 59, 0
3, 151920, Note_on_c, 1, 52, 100
3, 152040, Note_on_c, 1, 52, 0
3, 152040, Note_on_c, 1, 55, 100
3, 152160, Note_on_c, 1, 55, 0
3, 152160, Note_on_c, 1, 60, 100
3, 152280, Note_on_c, 1, 60, 0
3, 152280, Note_on_c, 1, 57, 100
3, 152400, Note_on_c, 1, 57, 0
3, 152400, Note_on_c, 1, 58, 100
3, 152520, Note_on_c, 1, 58, 0
3, 152520, Note_on_c, 1, 55, 100
3, 152640, Note_on_c, 1, 55, 0
3, 152640, Note_on_c, 1, 57, 100
3, 152760, Note_on_c, 1, 57, 0
3, 152760, Note_on_c, 1, 53, 100
3, 152880, Note_on_c, 1, 53, 0
3, 152880, Note_on_c, 1, 50, 100
3, 153000, Note_on_c, 1, 50, 0
3, 153000, Note_on_c, 1, 53, 100
3, 153120, Note_on_c, 1, 53, 0
3, 153120, Note_on_c, 1, 52, 100
3, 153240, Note_on_c, 1, 52, 0
3, 153240, Note_on_c, 1, 50, 100
3, 153360, Note_on_c, 1, 50, 0
3, 153360, Note_on_c, 1, 55, 100
3, 153480, Note_on_c, 1, 55, 0
3, 153480, Note_on_c, 1, 50, 100
3, 153600, Note_on_c, 1, 50, 0
3, 153600, Note_on_c, 1, 47, 100
3, 153720, Note_on_c, 1, 47, 0
3, 153720, Note_on_c, 1, 45, 100
3, 153840, Note_on_c, 1, 45, 0
3, 153840, Note_on_c, 1, 43, 100
3, 153960, Note_on_c, 1, 43, 0
3, 153960, Note_on_c, 1, 41, 100
3, 154080, Note_on_c, 1, 41, 0
3, 154080, Note_on_c, 1, 40, 100
3, 154200, Note_on_c, 1, 40, 0
3, 154200, Note_on_c, 1, 43, 100
3, 154320, Note_on_c, 1, 43, 0
3, 154320, Note_on_c, 1, 48, 100
3, 154440, Note_on_c, 1, 48, 0
3, 154440, Note_on_c, 1, 40, 100
3, 154560, Note_on_c, 1, 40, 0
3, 154560, Note_on_c, 1, 38, 100
3, 154680, Note_on_c, 1, 38, 0
3, 154680, Note_on_c, 1, 47, 100
3, 154800, Note_on_c, 1, 47, 0
3, 154800, Note_on_c, 1, 48, 100
3, 155040, Note_on_c, 1, 48, 0
3, 155040, Note_on_c, 1, 52, 100
3, 155280, Note_on_c, 1, 52, 0
3, 155280, Note_on_c, 1, 55, 100
3, 155520, Note_on_c, 1, 55, 0
3, 155520, Note_on_c, 1, 60, 100
3, 156000, Note_on_c, 1, 60, 0
3, 156000, End_track
4, 0, Start_track
4, 0, MIDI_port, 0
4, 0, Title_t, "Johann Sebastian Bach  (1685-1750)"
4, 0, Program_c, 2, 42
4, 0, Control_c, 2, 7, 100
4, 0, Control_c, 2, 10, 54
4, 93000, Note_on_c, 2, 43, 100
4, 93120, Note_on_c, 2, 43, 0
4, 93240, Note_on_c, 2, 43, 100
4, 93360, Note_on_c, 2, 43, 0
4, 93480, Note_on_c, 2, 43, 100
4, 93600, Note_on_c, 2, 43, 0
4, 93720, Note_on_c, 2, 43, 100
4, 93840, Note_on_c, 2, 43, 0
4, 93960, Note_on_c, 2, 43, 100
4, 94080, Note_on_c, 2, 43, 0
4, 94200, Note_on_c, 2, 43, 100
4, 94320, Note_on_c, 2, 43, 0
4, 94440, Note_on_c, 2, 43, 100
4, 94560, Note_on_c, 2, 43, 0
4, 94680, Note_on_c, 2, 43, 100
4, 94800, Note_on_c, 2, 43, 0
4, 94920, Note_on_c, 2, 43, 100
4, 95040, Note_on_c, 2, 43, 0
4, 95160, Note_on_c, 2, 43, 100
4, 95280, Note_on_c, 2, 43, 0
4, 95400, Note_on_c, 2, 43, 100
4, 95520, Note_on_c, 2, 43, 0
4, 95640, Note_on_c, 2, 43, 100
4, 95760, Note_on_c, 2, 43, 0
4, 95760, Note_on_c, 2, 43, 100
4, 96000, Note_on_c, 2, 43, 0
4, 97200, Note_on_c, 2, 43, 100
4, 97440, Note_on_c, 2, 43, 0
4, 112320, Note_on_c, 2, 43, 100
4, 112800, Note_on_c, 2, 43, 0
4, 136200, Note_on_c, 2, 43, 100
4, 136320, Note_on_c, 2, 43, 0
4, 136440, Note_on_c, 2, 43, 100
4, 136560, Note_on_c, 2, 43, 0
4, 136680, Note_on_c, 2, 43, 100
4, 136800, Note_on_c, 2, 43, 0
4, 136920, Note_on_c, 2, 43, 100
4, 137040, Note_on_c, 2, 43, 0
4, 137160, Note_on_c, 2, 43, 100
4, 137280, Note_on_c, 2, 43, 0
4, 137400, Note_on_c, 2, 43, 100
4, 137520, Note_on_c, 2, 43, 0
4, 137640, Note_on_c, 2, 43, 100
4, 137760, Note_on_c, 2, 43, 0
4, 137880, Note_on_c, 2, 43, 100
4, 138000, Note_on_c, 2, 43, 0
4, 138120, Note_on_c, 2, 43, 100
4, 138240, Note_on_c, 2, 43, 0
4, 138360, Note_on_c, 2, 43, 100
4, 138480, Note_on_c, 2, 43, 0
4, 138600, Note_on_c, 2, 43, 100
4, 138720, Note_on_c, 2, 43, 0
4, 138840, Note_on_c, 2, 43, 100
4, 138960, Note_on_c, 2, 43, 0
4, 138960, Note_on_c, 2, 43, 100
4, 139200, Note_on_c, 2, 43, 0
4, 140400, Note_on_c, 2, 43, 100
4, 140640, Note_on_c, 2, 43, 0
4, 155520, Note_on_c, 2, 43, 100
4, 156000, Note_on_c, 2, 43, 0
4, 156000, End_track
5, 0, Start_track
5, 0, MIDI_port, 0
5, 0, Title_t, "Six Suites for Solo Cello"
5, 0, Program_c, 3, 42
5, 0, Control_c, 3, 7, 100
5, 0, Control_c, 3, 10, 44
5, 112320, Note_on_c, 3, 36, 100
5, 112800, Note_on_c, 3, 36, 0
5, 155520, Note_on_c, 3, 36, 100
5, 156000, Note_on_c, 3, 36, 0
5, 156000, End_track
6, 0, Start_track
6, 0, MIDI_port, 0
6, 0, Title_t, "--------------------------------------"
6, 0, End_track
7, 0, Start_track
7, 0, MIDI_port, 0
7, 0, Title_t, "Suite No. 3 in C major - BWV 1009"
7, 0, End_track
8, 0, Start_track
8, 0, MIDI_port, 0
8, 0, Title_t, "6th Movement: Gigue"
8, 0, End_track
9, 0, Start_track
9, 0, MIDI_port, 0
9, 0, Title_t, "--------------------------------------"
9, 0, End_track
10, 0, Start_track
10, 0, MIDI_port, 0
10, 0, Title_t, "Sequenced with Cakewalk Pro Audio by"
10, 0, End_track
11, 0, Start_track
11, 0, MIDI_port, 0
11, 0, Title_t, "David J. Grossman - dave@unpronounceable.com"
11, 0, End_track
12, 0, Start_track
12, 0, MIDI_port, 0
12, 0, Title_t, "This and other Bach MIDI files can be found at:"
12, 0, End_track
13, 0, Start_track
13, 0, MIDI_port, 0
13, 0, Title_t, "Dave's J.S. Bach Page"
13, 0, End_track
14, 0, Start_track
14, 0, MIDI_port, 0
14, 0, Title_t, "http://www.unpronounceable.com/bach"
14, 0, End_track
15, 0, Start_track
15, 0, MIDI_port, 0
15, 0, Title_t, "--------------------------------------"
15, 0, End_track
16, 0, Start_track
16, 0, MIDI_port, 0
16, 0, Title_t, "Original Filename: cs3-6gig.mid"
16, 0, End_track
17, 0, Start_track
17, 0, MIDI_port, 0
17, 0, Title_t, "Last Modified: February 22, 1997"
17, 0, End_track
18, 0, Start_track
18, 0, MIDI_port, 0
18, 0, End_track
0, 0, End_of_file
