0, 0, Header, 1, 18, 480
1, 0, Start_track
1, 0, Title_t, "untitled"
1, 0, Copyright_t, "Copyright © 1996 by David J. Grossman"
1, 0, Text_t, "David J. Grossman"
1, 0, SMPTE_offset, 96, 0, 3, 0, 0
1, 0, Time_signature, 3, 2, 24, 8
1, 0, Key_signature, 0, "major"
1, 0, Tempo, 1500000
1, 0, Marker_t, "A"
1, 9480, Marker_t, "*"
1, 11520, Marker_t, "A'"
1, 23040, Marker_t, "B"
1, 41520, Marker_t, "*"
1, 46080, Marker_t, "B'"
1, 46080, End_track
2, 0, Start_track
2, 0, MIDI_port, 0
2, 0, Title_t, "Solo Cello"
2, 0, Program_c, 0, 42
2, 0, Control_c, 0, 7, 100
2, 0, Control_c, 0, 10, 59
2, 0, Note_on_c, 0, 60, 100
2, 480, Note_on_c, 0, 60, 0
2, 480, Note_on_c, 0, 60, 100
2, 840, Note_on_c, 0, 60, 0
2, 840, Note_on_c, 0, 57, 100
2, 960, Note_on_c, 0, 57, 0
2, 960, Note_on_c, 0, 59, 100
2, 1440, Note_on_c, 0, 59, 0
2, 1440, Note_on_c, 0, 58, 100
2, 1920, Note_on_c, 0, 58, 0
2, 1920, Note_on_c, 0, 58, 100
2, 2280, Note_on_c, 0, 58, 0
2, 2280, Note_on_c, 0, 55, 100
2, 2400, Note_on_c, 0, 55, 0
2, 2400, Note_on_c, 0, 57, 100
2, 2880, Note_on_c, 0, 57, 0
2, 2880, Note_on_c, 0, 50, 100
2, 3120, Note_on_c, 0, 50, 0
2, 3120, Note_on_c, 0, 52, 100
2, 3240, Note_on_c, 0, 52, 0
2, 3240, Note_on_c, 0, 53, 100
2, 3360, Note_on_c, 0, 53, 0
2, 3360, Note_on_c, 0, 53, 100
2, 3720, Note_on_c, 0, 53, 0
2, 3720, Note_on_c, 0, 50, 100
2, 3840, Note_on_c, 0, 50, 0
2, 3840, Note_on_c, 0, 52, 100
2, 4080, Note_on_c, 0, 52, 0
2, 4080, Note_on_c, 0, 53, 100
2, 4320, Note_on_c, 0, 53, 0
2, 4320, Note_on_c, 0, 48, 100
2, 4440, Note_on_c, 0, 48, 0
2, 4440, Note_on_c, 0, 47, 100
2, 4560, Note_on_c, 0, 47, 0
2, 4560, Note_on_c, 0, 48, 100
2, 4680, Note_on_c, 0, 48, 0
2, 4680, Note_on_c, 0, 45, 100
2, 4800, Note_on_c, 0, 45, 0
2, 4800, Note_on_c, 0, 47, 100
2, 5040, Note_on_c, 0, 47, 0
2, 5040, Note_on_c, 0, 50, 100
2, 5280, Note_on_c, 0, 50, 0
2, 5280, Note_on_c, 0, 43, 100
2, 5520, Note_on_c, 0, 43, 0
2, 5520, Note_on_c, 0, 41, 100
2, 5760, Note_on_c, 0, 41, 0
2, 5760, Note_on_c, 0, 40, 100
2, 6240, Note_on_c, 0, 40, 0
2, 6240, Note_on_c, 0, 45, 100
2, 6720, Note_on_c, 0, 45, 0
2, 7200, Note_on_c, 0, 38, 100
2, 7680, Note_on_c, 0, 38, 0
2, 7680, Note_on_c, 0, 43, 100
2, 8160, Note_on_c, 0, 43, 0
2, 8640, Note_on_c, 0, 49, 100
2, 8880, Note_on_c, 0, 49, 0
2, 9120, Note_on_c, 0, 50, 100
2, 9360, Note_on_c, 0, 50, 0
2, 10560, Note_on_c, 0, 55, 100
2, 11520, Note_on_c, 0, 55, 0
2, 11520, Note_on_c, 0, 60, 100
2, 12000, Note_on_c, 0, 60, 0
2, 12000, Note_on_c, 0, 60, 100
2, 12360, Note_on_c, 0, 60, 0
2, 12360, Note_on_c, 0, 57, 100
2, 12480, Note_on_c, 0, 57, 0
2, 12480, Note_on_c, 0, 59, 100
2, 12960, Note_on_c, 0, 59, 0
2, 12960, Note_on_c, 0, 58, 100
2, 13440, Note_on_c, 0, 58, 0
2, 13440, Note_on_c, 0, 58, 100
2, 13800, Note_on_c, 0, 58, 0
2, 13800, Note_on_c, 0, 55, 100
2, 13920, Note_on_c, 0, 55, 0
2, 13920, Note_on_c, 0, 57, 100
2, 14400, Note_on_c, 0, 57, 0
2, 14400, Note_on_c, 0, 50, 100
2, 14640, Note_on_c, 0, 50, 0
2, 14640, Note_on_c, 0, 52, 100
2, 14760, Note_on_c, 0, 52, 0
2, 14760, Note_on_c, 0, 53, 100
2, 14880, Note_on_c, 0, 53, 0
2, 14880, Note_on_c, 0, 53, 100
2, 15240, Note_on_c, 0, 53, 0
2, 15240, Note_on_c, 0, 50, 100
2, 15360, Note_on_c, 0, 50, 0
2, 15360, Note_on_c, 0, 52, 100
2, 15600, Note_on_c, 0, 52, 0
2, 15600, Note_on_c, 0, 53, 100
2, 15840, Note_on_c, 0, 53, 0
2, 15840, Note_on_c, 0, 48, 100
2, 15960, Note_on_c, 0, 48, 0
2, 15960, Note_on_c, 0, 47, 100
2, 16080, Note_on_c, 0, 47, 0
2, 16080, Note_on_c, 0, 48, 100
2, 16200, Note_on_c, 0, 48, 0
2, 16200, Note_on_c, 0, 45, 100
2, 16320, Note_on_c, 0, 45, 0
2, 16320, Note_on_c, 0, 47, 100
2, 16560, Note_on_c, 0, 47, 0
2, 16560, Note_on_c, 0, 50, 100
2, 16800, Note_on_c, 0, 50, 0
2, 16800, Note_on_c, 0, 43, 100
2, 17040, Note_on_c, 0, 43, 0
2, 17040, Note_on_c, 0, 41, 100
2, 17280, Note_on_c, 0, 41, 0
2, 17280, Note_on_c, 0, 40, 100
2, 17760, Note_on_c, 0, 40, 0
2, 17760, Note_on_c, 0, 45, 100
2, 18240, Note_on_c, 0, 45, 0
2, 18720, Note_on_c, 0, 38, 100
2, 19200, Note_on_c, 0, 38, 0
2, 19200, Note_on_c, 0, 43, 100
2, 19680, Note_on_c, 0, 43, 0
2, 20160, Note_on_c, 0, 49, 100
2, 20400, Note_on_c, 0, 49, 0
2, 20640, Note_on_c, 0, 50, 100
2, 20880, Note_on_c, 0, 50, 0
2, 22080, Note_on_c, 0, 55, 100
2, 23040, Note_on_c, 0, 55, 0
2, 23040, Note_on_c, 0, 59, 100
2, 23520, Note_on_c, 0, 59, 0
2, 23520, Note_on_c, 0, 59, 100
2, 24000, Note_on_c, 0, 59, 0
2, 24480, Note_on_c, 0, 59, 100
2, 24960, Note_on_c, 0, 59, 0
2, 24960, Note_on_c, 0, 59, 100
2, 25440, Note_on_c, 0, 59, 0
2, 33600, Note_on_c, 0, 53, 100
2, 34560, Note_on_c, 0, 53, 0
2, 34560, Note_on_c, 0, 54, 100
2, 34920, Note_on_c, 0, 54, 0
2, 34920, Note_on_c, 0, 55, 100
2, 34980, Note_on_c, 0, 55, 0
2, 34980, Note_on_c, 0, 57, 100
2, 35040, Note_on_c, 0, 57, 0
2, 35040, Note_on_c, 0, 55, 100
2, 35160, Note_on_c, 0, 55, 0
2, 35160, Note_on_c, 0, 54, 100
2, 35280, Note_on_c, 0, 54, 0
2, 35280, Note_on_c, 0, 52, 100
2, 35400, Note_on_c, 0, 52, 0
2, 35400, Note_on_c, 0, 54, 100
2, 35520, Note_on_c, 0, 54, 0
2, 35520, Note_on_c, 0, 55, 100
2, 35640, Note_on_c, 0, 55, 0
2, 35640, Note_on_c, 0, 52, 100
2, 35760, Note_on_c, 0, 52, 0
2, 35760, Note_on_c, 0, 54, 100
2, 35880, Note_on_c, 0, 54, 0
2, 35880, Note_on_c, 0, 57, 100
2, 36000, Note_on_c, 0, 57, 0
2, 36000, Note_on_c, 0, 60, 100
2, 36360, Note_on_c, 0, 60, 0
2, 36360, Note_on_c, 0, 62, 100
2, 36420, Note_on_c, 0, 62, 0
2, 36420, Note_on_c, 0, 64, 100
2, 36480, Note_on_c, 0, 64, 0
2, 36480, Note_on_c, 0, 62, 100
2, 36600, Note_on_c, 0, 62, 0
2, 36600, Note_on_c, 0, 60, 100
2, 36720, Note_on_c, 0, 60, 0
2, 36720, Note_on_c, 0, 59, 100
2, 36840, Note_on_c, 0, 59, 0
2, 36840, Note_on_c, 0, 60, 100
2, 36960, Note_on_c, 0, 60, 0
2, 36960, Note_on_c, 0, 62, 100
2, 37080, Note_on_c, 0, 62, 0
2, 37080, Note_on_c, 0, 59, 100
2, 37200, Note_on_c, 0, 59, 0
2, 37200, Note_on_c, 0, 60, 100
2, 37320, Note_on_c, 0, 60, 0
2, 37320, Note_on_c, 0, 64, 100
2, 37440, Note_on_c, 0, 64, 0
2, 37440, Note_on_c, 0, 62, 100
2, 37680, Note_on_c, 0, 62, 0
2, 37680, Note_on_c, 0, 47, 100
2, 37920, Note_on_c, 0, 47, 0
2, 37920, Note_on_c, 0, 48, 100
2, 38160, Note_on_c, 0, 48, 0
2, 38160, Note_on_c, 0, 57, 100
2, 38400, Note_on_c, 0, 57, 0
2, 38400, Note_on_c, 0, 59, 100
2, 38640, Note_on_c, 0, 59, 0
2, 38640, Note_on_c, 0, 60, 100
2, 38880, Note_on_c, 0, 60, 0
2, 38880, Note_on_c, 0, 60, 100
2, 39120, Note_on_c, 0, 60, 0
2, 39120, Note_on_c, 0, 59, 100
2, 39360, Note_on_c, 0, 59, 0
2, 39360, Note_on_c, 0, 57, 100
2, 39600, Note_on_c, 0, 57, 0
2, 39600, Note_on_c, 0, 59, 100
2, 39840, Note_on_c, 0, 59, 0
2, 39840, Note_on_c, 0, 55, 100
2, 40080, Note_on_c, 0, 55, 0
2, 40080, Note_on_c, 0, 45, 100
2, 40320, Note_on_c, 0, 45, 0
2, 40320, Note_on_c, 0, 46, 100
2, 40560, Note_on_c, 0, 46, 0
2, 40560, Note_on_c, 0, 52, 100
2, 40680, Note_on_c, 0, 52, 0
2, 40680, Note_on_c, 0, 53, 100
2, 40800, Note_on_c, 0, 53, 0
2, 40800, Note_on_c, 0, 55, 100
2, 40920, Note_on_c, 0, 55, 0
2, 40920, Note_on_c, 0, 53, 100
2, 41040, Note_on_c, 0, 53, 0
2, 41040, Note_on_c, 0, 52, 100
2, 41160, Note_on_c, 0, 52, 0
2, 41160, Note_on_c, 0, 55, 100
2, 41280, Note_on_c, 0, 55, 0
2, 41280, Note_on_c, 0, 53, 100
2, 41520, Note_on_c, 0, 53, 0
2, 41520, Note_on_c, 0, 47, 100
2, 41760, Note_on_c, 0, 47, 0
2, 41760, Note_on_c, 0, 48, 100
2, 42000, Note_on_c, 0, 48, 0
2, 42000, Note_on_c, 0, 54, 100
2, 42120, Note_on_c, 0, 54, 0
2, 42120, Note_on_c, 0, 55, 100
2, 42240, Note_on_c, 0, 55, 0
2, 42240, Note_on_c, 0, 57, 100
2, 42360, Note_on_c, 0, 57, 0
2, 42360, Note_on_c, 0, 55, 100
2, 42480, Note_on_c, 0, 55, 0
2, 42480, Note_on_c, 0, 54, 100
2, 42600, Note_on_c, 0, 54, 0
2, 42600, Note_on_c, 0, 57, 100
2, 42720, Note_on_c, 0, 57, 0
2, 42720, Note_on_c, 0, 55, 100
2, 42840, Note_on_c, 0, 55, 0
2, 42840, Note_on_c, 0, 62, 100
2, 42960, Note_on_c, 0, 62, 0
2, 42960, Note_on_c, 0, 55, 100
2, 43080, Note_on_c, 0, 55, 0
2, 43080, Note_on_c, 0, 53, 100
2, 43200, Note_on_c, 0, 53, 0
2, 43200, Note_on_c, 0, 52, 100
2, 43440, Note_on_c, 0, 52, 0
2, 43440, Note_on_c, 0, 48, 100
2, 43680, Note_on_c, 0, 48, 0
2, 43680, Note_on_c, 0, 41, 100
2, 43920, Note_on_c, 0, 41, 0
2, 43920, Note_on_c, 0, 50, 100
2, 44160, Note_on_c, 0, 50, 0
2, 44160, Note_on_c, 0, 43, 100
2, 44400, Note_on_c, 0, 43, 0
2, 44400, Note_on_c, 0, 48, 100
2, 44520, Note_on_c, 0, 48, 0
2, 44520, Note_on_c, 0, 47, 100
2, 44640, Note_on_c, 0, 47, 0
2, 44640, Note_on_c, 0, 48, 100
2, 45120, Note_on_c, 0, 48, 0
2, 45120, Note_on_c, 0, 36, 100
2, 46080, Note_on_c, 0, 36, 0
2, 46080, Note_on_c, 0, 59, 100
2, 46560, Note_on_c, 0, 59, 0
2, 46560, Note_on_c, 0, 59, 100
2, 47040, Note_on_c, 0, 59, 0
2, 47520, Note_on_c, 0, 59, 100
2, 48000, Note_on_c, 0, 59, 0
2, 48000, Note_on_c, 0, 59, 100
2, 48480, Note_on_c, 0, 59, 0
2, 56640, Note_on_c, 0, 53, 100
2, 57600, Note_on_c, 0, 53, 0
2, 57600, Note_on_c, 0, 54, 100
2, 57960, Note_on_c, 0, 54, 0
2, 57960, Note_on_c, 0, 55, 100
2, 58020, Note_on_c, 0, 55, 0
2, 58020, Note_on_c, 0, 57, 100
2, 58080, Note_on_c, 0, 57, 0
2, 58080, Note_on_c, 0, 55, 100
2, 58200, Note_on_c, 0, 55, 0
2, 58200, Note_on_c, 0, 54, 100
2, 58320, Note_on_c, 0, 54, 0
2, 58320, Note_on_c, 0, 52, 100
2, 58440, Note_on_c, 0, 52, 0
2, 58440, Note_on_c, 0, 54, 100
2, 58560, Note_on_c, 0, 54, 0
2, 58560, Note_on_c, 0, 55, 100
2, 58680, Note_on_c, 0, 55, 0
2, 58680, Note_on_c, 0, 52, 100
2, 58800, Note_on_c, 0, 52, 0
2, 58800, Note_on_c, 0, 54, 100
2, 58920, Note_on_c, 0, 54, 0
2, 58920, Note_on_c, 0, 57, 100
2, 59040, Note_on_c, 0, 57, 0
2, 59040, Note_on_c, 0, 60, 100
2, 59400, Note_on_c, 0, 60, 0
2, 59400, Note_on_c, 0, 62, 100
2, 59460, Note_on_c, 0, 62, 0
2, 59460, Note_on_c, 0, 64, 100
2, 59520, Note_on_c, 0, 64, 0
2, 59520, Note_on_c, 0, 62, 100
2, 59640, Note_on_c, 0, 62, 0
2, 59640, Note_on_c, 0, 60, 100
2, 59760, Note_on_c, 0, 60, 0
2, 59760, Note_on_c, 0, 59, 100
2, 59880, Note_on_c, 0, 59, 0
2, 59880, Note_on_c, 0, 60, 100
2, 60000, Note_on_c, 0, 60, 0
2, 60000, Note_on_c, 0, 62, 100
2, 60120, Note_on_c, 0, 62, 0
2, 60120, Note_on_c, 0, 59, 100
2, 60240, Note_on_c, 0, 59, 0
2, 60240, Note_on_c, 0, 60, 100
2, 60360, Note_on_c, 0, 60, 0
2, 60360, Note_on_c, 0, 64, 100
2, 60480, Note_on_c, 0, 64, 0
2, 60480, Note_on_c, 0, 62, 100
2, 60720, Note_on_c, 0, 62, 0
2, 60720, Note_on_c, 0, 47, 100
2, 60960, Note_on_c, 0, 47, 0
2, 60960, Note_on_c, 0, 48, 100
2, 61200, Note_on_c, 0, 48, 0
2, 61200, Note_on_c, 0, 57, 100
2, 61440, Note_on_c, 0, 57, 0
2, 61440, Note_on_c, 0, 59, 100
2, 61680, Note_on_c, 0, 59, 0
2, 61680, Note_on_c, 0, 60, 100
2, 61920, Note_on_c, 0, 60, 0
2, 61920, Note_on_c, 0, 60, 100
2, 62160, Note_on_c, 0, 60, 0
2, 62160, Note_on_c, 0, 59, 100
2, 62400, Note_on_c, 0, 59, 0
2, 62400, Note_on_c, 0, 57, 100
2, 62640, Note_on_c, 0, 57, 0
2, 62640, Note_on_c, 0, 59, 100
2, 62880, Note_on_c, 0, 59, 0
2, 62880, Note_on_c, 0, 55, 100
2, 63120, Note_on_c, 0, 55, 0
2, 63120, Note_on_c, 0, 45, 100
2, 63360, Note_on_c, 0, 45, 0
2, 63360, Note_on_c, 0, 46, 100
2, 63600, Note_on_c, 0, 46, 0
2, 63600, Note_on_c, 0, 52, 100
2, 63720, Note_on_c, 0, 52, 0
2, 63720, Note_on_c, 0, 53, 100
2, 63840, Note_on_c, 0, 53, 0
2, 63840, Note_on_c, 0, 55, 100
2, 63960, Note_on_c, 0, 55, 0
2, 63960, Note_on_c, 0, 53, 100
2, 64080, Note_on_c, 0, 53, 0
2, 64080, Note_on_c, 0, 52, 100
2, 64200, Note_on_c, 0, 52, 0
2, 64200, Note_on_c, 0, 55, 100
2, 64320, Note_on_c, 0, 55, 0
2, 64320, Note_on_c, 0, 53, 100
2, 64560, Note_on_c, 0, 53, 0
2, 64560, Note_on_c, 0, 47, 100
2, 64800, Note_on_c, 0, 47, 0
2, 64800, Note_on_c, 0, 48, 100
2, 65040, Note_on_c, 0, 48, 0
2, 65040, Note_on_c, 0, 54, 100
2, 65160, Note_on_c, 0, 54, 0
2, 65160, Note_on_c, 0, 55, 100
2, 65280, Note_on_c, 0, 55, 0
2, 65280, Note_on_c, 0, 57, 100
2, 65400, Note_on_c, 0, 57, 0
2, 65400, Note_on_c, 0, 55, 100
2, 65520, Note_on_c, 0, 55, 0
2, 65520, Note_on_c, 0, 54, 100
2, 65640, Note_on_c, 0, 54, 0
2, 65640, Note_on_c, 0, 57, 100
2, 65760, Note_on_c, 0, 57, 0
2, 65760, Note_on_c, 0, 55, 100
2, 65880, Note_on_c, 0, 55, 0
2, 65880, Note_on_c, 0, 62, 100
2, 66000, Note_on_c, 0, 62, 0
2, 66000, Note_on_c, 0, 55, 100
2, 66120, Note_on_c, 0, 55, 0
2, 66120, Note_on_c, 0, 53, 100
2, 66240, Note_on_c, 0, 53, 0
2, 66240, Note_on_c, 0, 52, 100
2, 66480, Note_on_c, 0, 52, 0
2, 66480, Note_on_c, 0, 48, 100
2, 66720, Note_on_c, 0, 48, 0
2, 66720, Note_on_c, 0, 41, 100
2, 66960, Note_on_c, 0, 41, 0
2, 66960, Note_on_c, 0, 50, 100
2, 67200, Note_on_c, 0, 50, 0
2, 67200, Note_on_c, 0, 43, 100
2, 67440, Note_on_c, 0, 43, 0
2, 67440, Note_on_c, 0, 48, 100
2, 67560, Note_on_c, 0, 48, 0
2, 67560, Note_on_c, 0, 47, 100
2, 67680, Note_on_c, 0, 47, 0
2, 67680, Note_on_c, 0, 48, 100
2, 68160, Note_on_c, 0, 48, 0
2, 68160, Note_on_c, 0, 36, 100
2, 69120, Note_on_c, 0, 36, 0
2, 69120, End_track
3, 0, Start_track
3, 0, MIDI_port, 0
3, 0, Title_t, "--------------------------------------"
3, 0, Program_c, 1, 42
3, 0, Control_c, 1, 7, 100
3, 0, Control_c, 1, 10, 69
3, 0, Note_on_c, 1, 52, 100
3, 480, Note_on_c, 1, 52, 0
3, 480, Note_on_c, 1, 50, 100
3, 960, Note_on_c, 1, 50, 0
3, 1440, Note_on_c, 1, 52, 100
3, 1920, Note_on_c, 1, 52, 0
3, 1920, Note_on_c, 1, 53, 100
3, 2400, Note_on_c, 1, 53, 0
3, 2880, Note_on_c, 1, 47, 100
3, 3120, Note_on_c, 1, 47, 0
3, 5760, Note_on_c, 1, 52, 100
3, 6240, Note_on_c, 1, 52, 0
3, 7200, Note_on_c, 1, 54, 100
3, 7680, Note_on_c, 1, 54, 0
3, 11520, Note_on_c, 1, 52, 100
3, 12000, Note_on_c, 1, 52, 0
3, 12000, Note_on_c, 1, 50, 100
3, 12480, Note_on_c, 1, 50, 0
3, 12960, Note_on_c, 1, 52, 100
3, 13440, Note_on_c, 1, 52, 0
3, 13440, Note_on_c, 1, 53, 100
3, 13920, Note_on_c, 1, 53, 0
3, 14400, Note_on_c, 1, 47, 100
3, 14640, Note_on_c, 1, 47, 0
3, 17280, Note_on_c, 1, 52, 100
3, 17760, Note_on_c, 1, 52, 0
3, 18720, Note_on_c, 1, 54, 100
3, 19200, Note_on_c, 1, 54, 0
3, 23040, Note_on_c, 1, 50, 100
3, 23280, Note_on_c, 1, 50, 0
3, 23280, Note_on_c, 1, 53, 100
3, 23400, Note_on_c, 1, 53, 0
3, 23400, Note_on_c, 1, 52, 100
3, 23520, Note_on_c, 1, 52, 0
3, 23520, Note_on_c, 1, 53, 100
3, 23880, Note_on_c, 1, 53, 0
3, 23880, Note_on_c, 1, 52, 100
3, 24000, Note_on_c, 1, 52, 0
3, 24000, Note_on_c, 1, 50, 100
3, 24120, Note_on_c, 1, 50, 0
3, 24120, Note_on_c, 1, 48, 100
3, 24240, Note_on_c, 1, 48, 0
3, 24240, Note_on_c, 1, 47, 100
3, 24360, Note_on_c, 1, 47, 0
3, 24360, Note_on_c, 1, 45, 100
3, 24480, Note_on_c, 1, 45, 0
3, 24480, Note_on_c, 1, 50, 100
3, 24720, Note_on_c, 1, 50, 0
3, 24720, Note_on_c, 1, 53, 100
3, 24840, Note_on_c, 1, 53, 0
3, 24840, Note_on_c, 1, 52, 100
3, 24960, Note_on_c, 1, 52, 0
3, 24960, Note_on_c, 1, 53, 100
3, 25320, Note_on_c, 1, 53, 0
3, 25320, Note_on_c, 1, 52, 100
3, 25440, Note_on_c, 1, 52, 0
3, 25440, Note_on_c, 1, 50, 100
3, 25560, Note_on_c, 1, 50, 0
3, 25560, Note_on_c, 1, 48, 100
3, 25680, Note_on_c, 1, 48, 0
3, 25680, Note_on_c, 1, 50, 100
3, 25800, Note_on_c, 1, 50, 0
3, 25800, Note_on_c, 1, 47, 100
3, 25920, Note_on_c, 1, 47, 0
3, 25920, Note_on_c, 1, 48, 100
3, 26040, Note_on_c, 1, 48, 0
3, 26040, Note_on_c, 1, 52, 100
3, 26160, Note_on_c, 1, 52, 0
3, 26160, Note_on_c, 1, 56, 100
3, 26280, Note_on_c, 1, 56, 0
3, 26280, Note_on_c, 1, 59, 100
3, 26400, Note_on_c, 1, 59, 0
3, 26400, Note_on_c, 1, 57, 100
3, 26760, Note_on_c, 1, 57, 0
3, 26760, Note_on_c, 1, 59, 100
3, 26820, Note_on_c, 1, 59, 0
3, 26820, Note_on_c, 1, 60, 100
3, 26880, Note_on_c, 1, 60, 0
3, 26880, Note_on_c, 1, 50, 100
3, 27120, Note_on_c, 1, 50, 0
3, 27120, Note_on_c, 1, 59, 100
3, 27360, Note_on_c, 1, 59, 0
3, 27360, Note_on_c, 1, 57, 100
3, 27600, Note_on_c, 1, 57, 0
3, 27600, Note_on_c, 1, 54, 100
3, 27840, Note_on_c, 1, 54, 0
3, 27840, Note_on_c, 1, 57, 100
3, 27960, Note_on_c, 1, 57, 0
3, 27960, Note_on_c, 1, 56, 100
3, 28080, Note_on_c, 1, 56, 0
3, 28080, Note_on_c, 1, 54, 100
3, 28200, Note_on_c, 1, 54, 0
3, 28200, Note_on_c, 1, 52, 100
3, 28320, Note_on_c, 1, 52, 0
3, 28320, Pitch_bend_c, 1, 16383
3, 28320, Note_on_c, 1, 50, 100
3, 28350, Pitch_bend_c, 1, 8192
3, 28380, Pitch_bend_c, 1, 16383
3, 28400, Pitch_bend_c, 1, 8192
3, 28560, Note_on_c, 1, 50, 0
3, 28560, Note_on_c, 1, 49, 100
3, 28680, Note_on_c, 1, 49, 0
3, 28680, Note_on_c, 1, 50, 100
3, 28800, Note_on_c, 1, 50, 0
3, 28800, Note_on_c, 1, 49, 100
3, 29040, Note_on_c, 1, 49, 0
3, 29040, Note_on_c, 1, 57, 100
3, 29280, Note_on_c, 1, 57, 0
3, 29280, Note_on_c, 1, 64, 100
3, 29520, Note_on_c, 1, 64, 0
3, 29520, Note_on_c, 1, 67, 100
3, 29640, Note_on_c, 1, 67, 0
3, 29640, Note_on_c, 1, 65, 100
3, 29760, Note_on_c, 1, 65, 0
3, 29760, Note_on_c, 1, 67, 100
3, 30000, Note_on_c, 1, 67, 0
3, 30000, Note_on_c, 1, 64, 100
3, 30240, Note_on_c, 1, 64, 0
3, 30240, Note_on_c, 1, 61, 100
3, 30480, Note_on_c, 1, 61, 0
3, 30480, Note_on_c, 1, 58, 100
3, 30960, Note_on_c, 1, 58, 0
3, 30960, Note_on_c, 1, 57, 100
3, 31080, Note_on_c, 1, 57, 0
3, 31080, Note_on_c, 1, 55, 100
3, 31200, Note_on_c, 1, 55, 0
3, 31200, Note_on_c, 1, 53, 100
3, 31320, Note_on_c, 1, 53, 0
3, 31320, Note_on_c, 1, 52, 100
3, 31440, Note_on_c, 1, 52, 0
3, 31440, Note_on_c, 1, 55, 100
3, 31560, Note_on_c, 1, 55, 0
3, 31560, Note_on_c, 1, 49, 100
3, 31680, Note_on_c, 1, 49, 0
3, 31680, Note_on_c, 1, 50, 100
3, 31920, Note_on_c, 1, 50, 0
3, 31920, Note_on_c, 1, 65, 100
3, 32160, Note_on_c, 1, 65, 0
3, 32160, Note_on_c, 1, 55, 100
3, 32400, Note_on_c, 1, 55, 0
3, 32400, Note_on_c, 1, 64, 100
3, 32640, Note_on_c, 1, 64, 0
3, 32640, Note_on_c, 1, 57, 100
3, 32760, Note_on_c, 1, 57, 0
3, 32760, Note_on_c, 1, 59, 100
3, 32880, Note_on_c, 1, 59, 0
3, 32880, Note_on_c, 1, 62, 100
3, 33000, Note_on_c, 1, 62, 0
3, 33000, Note_on_c, 1, 61, 100
3, 33120, Note_on_c, 1, 61, 0
3, 33120, Note_on_c, 1, 62, 100
3, 33600, Note_on_c, 1, 62, 0
3, 33600, Note_on_c, 1, 62, 100
3, 34560, Note_on_c, 1, 62, 0
3, 36000, Note_on_c, 1, 54, 100
3, 36480, Note_on_c, 1, 54, 0
3, 38400, Note_on_c, 1, 50, 100
3, 38880, Note_on_c, 1, 50, 0
3, 38880, Note_on_c, 1, 50, 100
3, 39360, Note_on_c, 1, 50, 0
3, 45120, Note_on_c, 1, 43, 100
3, 46080, Note_on_c, 1, 43, 0
3, 46080, Note_on_c, 1, 50, 100
3, 46320, Note_on_c, 1, 50, 0
3, 46320, Note_on_c, 1, 53, 100
3, 46440, Note_on_c, 1, 53, 0
3, 46440, Note_on_c, 1, 52, 100
3, 46560, Note_on_c, 1, 52, 0
3, 46560, Note_on_c, 1, 53, 100
3, 46920, Note_on_c, 1, 53, 0
3, 46920, Note_on_c, 1, 52, 100
3, 47040, Note_on_c, 1, 52, 0
3, 47040, Note_on_c, 1, 50, 100
3, 47160, Note_on_c, 1, 50, 0
3, 47160, Note_on_c, 1, 48, 100
3, 47280, Note_on_c, 1, 48, 0
3, 47280, Note_on_c, 1, 47, 100
3, 47400, Note_on_c, 1, 47, 0
3, 47400, Note_on_c, 1, 45, 100
3, 47520, Note_on_c, 1, 45, 0
3, 47520, Note_on_c, 1, 50, 100
3, 47760, Note_on_c, 1, 50, 0
3, 47760, Note_on_c, 1, 53, 100
3, 47880, Note_on_c, 1, 53, 0
3, 47880, Note_on_c, 1, 52, 100
3, 48000, Note_on_c, 1, 52, 0
3, 48000, Note_on_c, 1, 53, 100
3, 48360, Note_on_c, 1, 53, 0
3, 48360, Note_on_c, 1, 52, 100
3, 48480, Note_on_c, 1, 52, 0
3, 48480, Note_on_c, 1, 50, 100
3, 48600, Note_on_c, 1, 50, 0
3, 48600, Note_on_c, 1, 48, 100
3, 48720, Note_on_c, 1, 48, 0
3, 48720, Note_on_c, 1, 50, 100
3, 48840, Note_on_c, 1, 50, 0
3, 48840, Note_on_c, 1, 47, 100
3, 48960, Note_on_c, 1, 47, 0
3, 48960, Note_on_c, 1, 48, 100
3, 49080, Note_on_c, 1, 48, 0
3, 49080, Note_on_c, 1, 52, 100
3, 49200, Note_on_c, 1, 52, 0
3, 49200, Note_on_c, 1, 56, 100
3, 49320, Note_on_c, 1, 56, 0
3, 49320, Note_on_c, 1, 59, 100
3, 49440, Note_on_c, 1, 59, 0
3, 49440, Note_on_c, 1, 57, 100
3, 49800, Note_on_c, 1, 57, 0
3, 49800, Note_on_c, 1, 59, 100
3, 49860, Note_on_c, 1, 59, 0
3, 49860, Note_on_c, 1, 60, 100
3, 49920, Note_on_c, 1, 60, 0
3, 49920, Note_on_c, 1, 50, 100
3, 50160, Note_on_c, 1, 50, 0
3, 50160, Note_on_c, 1, 59, 100
3, 50400, Note_on_c, 1, 59, 0
3, 50400, Note_on_c, 1, 57, 100
3, 50640, Note_on_c, 1, 57, 0
3, 50640, Note_on_c, 1, 54, 100
3, 50880, Note_on_c, 1, 54, 0
3, 50880, Note_on_c, 1, 57, 100
3, 51000, Note_on_c, 1, 57, 0
3, 51000, Note_on_c, 1, 56, 100
3, 51120, Note_on_c, 1, 56, 0
3, 51120, Note_on_c, 1, 54, 100
3, 51240, Note_on_c, 1, 54, 0
3, 51240, Note_on_c, 1, 52, 100
3, 51360, Note_on_c, 1, 52, 0
3, 51360, Pitch_bend_c, 1, 16383
3, 51360, Note_on_c, 1, 50, 100
3, 51390, Pitch_bend_c, 1, 8192
3, 51420, Pitch_bend_c, 1, 16383
3, 51440, Pitch_bend_c, 1, 8192
3, 51600, Note_on_c, 1, 50, 0
3, 51600, Note_on_c, 1, 49, 100
3, 51720, Note_on_c, 1, 49, 0
3, 51720, Note_on_c, 1, 50, 100
3, 51840, Note_on_c, 1, 50, 0
3, 51840, Note_on_c, 1, 49, 100
3, 52080, Note_on_c, 1, 49, 0
3, 52080, Note_on_c, 1, 57, 100
3, 52320, Note_on_c, 1, 57, 0
3, 52320, Note_on_c, 1, 64, 100
3, 52560, Note_on_c, 1, 64, 0
3, 52560, Note_on_c, 1, 67, 100
3, 52680, Note_on_c, 1, 67, 0
3, 52680, Note_on_c, 1, 65, 100
3, 52800, Note_on_c, 1, 65, 0
3, 52800, Note_on_c, 1, 67, 100
3, 53040, Note_on_c, 1, 67, 0
3, 53040, Note_on_c, 1, 64, 100
3, 53280, Note_on_c, 1, 64, 0
3, 53280, Note_on_c, 1, 61, 100
3, 53520, Note_on_c, 1, 61, 0
3, 53520, Note_on_c, 1, 58, 100
3, 54000, Note_on_c, 1, 58, 0
3, 54000, Note_on_c, 1, 57, 100
3, 54120, Note_on_c, 1, 57, 0
3, 54120, Note_on_c, 1, 55, 100
3, 54240, Note_on_c, 1, 55, 0
3, 54240, Note_on_c, 1, 53, 100
3, 54360, Note_on_c, 1, 53, 0
3, 54360, Note_on_c, 1, 52, 100
3, 54480, Note_on_c, 1, 52, 0
3, 54480, Note_on_c, 1, 55, 100
3, 54600, Note_on_c, 1, 55, 0
3, 54600, Note_on_c, 1, 49, 100
3, 54720, Note_on_c, 1, 49, 0
3, 54720, Note_on_c, 1, 50, 100
3, 54960, Note_on_c, 1, 50, 0
3, 54960, Note_on_c, 1, 65, 100
3, 55200, Note_on_c, 1, 65, 0
3, 55200, Note_on_c, 1, 55, 100
3, 55440, Note_on_c, 1, 55, 0
3, 55440, Note_on_c, 1, 64, 100
3, 55680, Note_on_c, 1, 64, 0
3, 55680, Note_on_c, 1, 57, 100
3, 55800, Note_on_c, 1, 57, 0
3, 55800, Note_on_c, 1, 59, 100
3, 55920, Note_on_c, 1, 59, 0
3, 55920, Note_on_c, 1, 62, 100
3, 56040, Note_on_c, 1, 62, 0
3, 56040, Note_on_c, 1, 61, 100
3, 56160, Note_on_c, 1, 61, 0
3, 56160, Note_on_c, 1, 62, 100
3, 56640, Note_on_c, 1, 62, 0
3, 56640, Note_on_c, 1, 62, 100
3, 57600, Note_on_c, 1, 62, 0
3, 59040, Note_on_c, 1, 54, 100
3, 59520, Note_on_c, 1, 54, 0
3, 61440, Note_on_c, 1, 50, 100
3, 61920, Note_on_c, 1, 50, 0
3, 61920, Note_on_c, 1, 50, 100
3, 62400, Note_on_c, 1, 50, 0
3, 68160, Note_on_c, 1, 43, 100
3, 69120, Note_on_c, 1, 43, 0
3, 69120, End_track
4, 0, Start_track
4, 0, MIDI_port, 0
4, 0, Title_t, "Johann Sebastian Bach  (1685-1750)"
4, 0, Program_c, 2, 42
4, 0, Control_c, 2, 7, 100
4, 0, Control_c, 2, 10, 49
4, 0, Note_on_c, 2, 43, 100
4, 480, Note_on_c, 2, 43, 0
4, 1440, Note_on_c, 2, 43, 100
4, 1920, Note_on_c, 2, 43, 0
4, 3360, Note_on_c, 2, 43, 100
4, 3600, Note_on_c, 2, 43, 0
4, 5760, Note_on_c, 2, 55, 100
4, 6240, Note_on_c, 2, 55, 0
4, 6240, Note_on_c, 2, 55, 100
4, 6600, Note_on_c, 2, 55, 0
4, 6600, Note_on_c, 2, 52, 100
4, 6720, Note_on_c, 2, 52, 0
4, 6720, Note_on_c, 2, 54, 100
4, 6840, Note_on_c, 2, 54, 0
4, 6840, Note_on_c, 2, 50, 100
4, 6960, Note_on_c, 2, 50, 0
4, 6960, Note_on_c, 2, 54, 100
4, 7080, Note_on_c, 2, 54, 0
4, 7080, Note_on_c, 2, 57, 100
4, 7200, Note_on_c, 2, 57, 0
4, 7200, Note_on_c, 2, 60, 100
4, 7680, Note_on_c, 2, 60, 0
4, 7680, Note_on_c, 2, 60, 100
4, 8040, Note_on_c, 2, 60, 0
4, 8040, Note_on_c, 2, 57, 100
4, 8160, Note_on_c, 2, 57, 0
4, 8160, Note_on_c, 2, 60, 100
4, 8280, Note_on_c, 2, 60, 0
4, 8280, Note_on_c, 2, 59, 100
4, 8400, Note_on_c, 2, 59, 0
4, 8400, Note_on_c, 2, 57, 100
4, 8520, Note_on_c, 2, 57, 0
4, 8520, Note_on_c, 2, 55, 100
4, 8640, Note_on_c, 2, 55, 0
4, 8640, Note_on_c, 2, 57, 100
4, 8880, Note_on_c, 2, 57, 0
4, 8880, Note_on_c, 2, 58, 100
4, 9000, Note_on_c, 2, 58, 0
4, 9000, Note_on_c, 2, 60, 100
4, 9120, Note_on_c, 2, 60, 0
4, 9120, Note_on_c, 2, 58, 100
4, 9360, Note_on_c, 2, 58, 0
4, 9360, Note_on_c, 2, 57, 100
4, 9480, Note_on_c, 2, 57, 0
4, 9480, Note_on_c, 2, 58, 100
4, 9600, Note_on_c, 2, 58, 0
4, 9600, Note_on_c, 2, 63, 100
4, 9840, Note_on_c, 2, 63, 0
4, 9840, Note_on_c, 2, 54, 100
4, 10080, Note_on_c, 2, 54, 0
4, 10080, Note_on_c, 2, 55, 100
4, 10560, Note_on_c, 2, 55, 0
4, 10560, Note_on_c, 2, 43, 100
4, 11520, Note_on_c, 2, 43, 0
4, 11520, Note_on_c, 2, 43, 100
4, 12000, Note_on_c, 2, 43, 0
4, 12960, Note_on_c, 2, 43, 100
4, 13440, Note_on_c, 2, 43, 0
4, 14880, Note_on_c, 2, 43, 100
4, 15120, Note_on_c, 2, 43, 0
4, 17280, Note_on_c, 2, 55, 100
4, 17760, Note_on_c, 2, 55, 0
4, 17760, Note_on_c, 2, 55, 100
4, 18120, Note_on_c, 2, 55, 0
4, 18120, Note_on_c, 2, 52, 100
4, 18240, Note_on_c, 2, 52, 0
4, 18240, Note_on_c, 2, 54, 100
4, 18360, Note_on_c, 2, 54, 0
4, 18360, Note_on_c, 2, 50, 100
4, 18480, Note_on_c, 2, 50, 0
4, 18480, Note_on_c, 2, 54, 100
4, 18600, Note_on_c, 2, 54, 0
4, 18600, Note_on_c, 2, 57, 100
4, 18720, Note_on_c, 2, 57, 0
4, 18720, Note_on_c, 2, 60, 100
4, 19200, Note_on_c, 2, 60, 0
4, 19200, Note_on_c, 2, 60, 100
4, 19560, Note_on_c, 2, 60, 0
4, 19560, Note_on_c, 2, 57, 100
4, 19680, Note_on_c, 2, 57, 0
4, 19680, Note_on_c, 2, 60, 100
4, 19800, Note_on_c, 2, 60, 0
4, 19800, Note_on_c, 2, 59, 100
4, 19920, Note_on_c, 2, 59, 0
4, 19920, Note_on_c, 2, 57, 100
4, 20040, Note_on_c, 2, 57, 0
4, 20040, Note_on_c, 2, 55, 100
4, 20160, Note_on_c, 2, 55, 0
4, 20160, Note_on_c, 2, 57, 100
4, 20400, Note_on_c, 2, 57, 0
4, 20400, Note_on_c, 2, 58, 100
4, 20520, Note_on_c, 2, 58, 0
4, 20520, Note_on_c, 2, 60, 100
4, 20640, Note_on_c, 2, 60, 0
4, 20640, Note_on_c, 2, 58, 100
4, 20880, Note_on_c, 2, 58, 0
4, 20880, Note_on_c, 2, 57, 100
4, 21000, Note_on_c, 2, 57, 0
4, 21000, Note_on_c, 2, 58, 100
4, 21120, Note_on_c, 2, 58, 0
4, 21120, Note_on_c, 2, 63, 100
4, 21360, Note_on_c, 2, 63, 0
4, 21360, Note_on_c, 2, 54, 100
4, 21600, Note_on_c, 2, 54, 0
4, 21600, Note_on_c, 2, 55, 100
4, 22080, Note_on_c, 2, 55, 0
4, 22080, Note_on_c, 2, 43, 100
4, 23040, Note_on_c, 2, 43, 0
4, 23040, Note_on_c, 2, 43, 100
4, 23520, Note_on_c, 2, 43, 0
4, 23520, Note_on_c, 2, 43, 100
4, 24000, Note_on_c, 2, 43, 0
4, 24480, Note_on_c, 2, 44, 100
4, 24960, Note_on_c, 2, 44, 0
4, 24960, Note_on_c, 2, 44, 100
4, 25440, Note_on_c, 2, 44, 0
4, 33600, Note_on_c, 2, 45, 100
4, 34560, Note_on_c, 2, 45, 0
4, 34560, Note_on_c, 2, 45, 100
4, 35040, Note_on_c, 2, 45, 0
4, 45120, Note_on_c, 2, 52, 100
4, 46080, Note_on_c, 2, 52, 0
4, 46080, Note_on_c, 2, 43, 100
4, 46560, Note_on_c, 2, 43, 0
4, 46560, Note_on_c, 2, 43, 100
4, 47040, Note_on_c, 2, 43, 0
4, 47520, Note_on_c, 2, 44, 100
4, 48000, Note_on_c, 2, 44, 0
4, 48000, Note_on_c, 2, 44, 100
4, 48480, Note_on_c, 2, 44, 0
4, 56640, Note_on_c, 2, 45, 100
4, 57600, Note_on_c, 2, 45, 0
4, 57600, Note_on_c, 2, 45, 100
4, 58080, Note_on_c, 2, 45, 0
4, 68160, Note_on_c, 2, 52, 100
4, 69120, Note_on_c, 2, 52, 0
4, 69120, End_track
5, 0, Start_track
5, 0, MIDI_port, 0
5, 0, Title_t, "Six Suites for Solo Cello"
5, 0, Program_c, 3, 42
5, 0, Control_c, 3, 7, 100
5, 0, Control_c, 3, 10, 79
5, 0, Note_on_c, 3, 36, 100
5, 480, Note_on_c, 3, 36, 0
5, 1440, Note_on_c, 3, 36, 100
5, 1920, Note_on_c, 3, 36, 0
5, 3360, Note_on_c, 3, 36, 100
5, 3600, Note_on_c, 3, 36, 0
5, 7200, Note_on_c, 3, 45, 100
5, 7680, Note_on_c, 3, 45, 0
5, 7680, Note_on_c, 3, 50, 100
5, 8160, Note_on_c, 3, 50, 0
5, 8640, Note_on_c, 3, 55, 100
5, 8880, Note_on_c, 3, 55, 0
5, 11520, Note_on_c, 3, 36, 100
5, 12000, Note_on_c, 3, 36, 0
5, 12960, Note_on_c, 3, 36, 100
5, 13440, Note_on_c, 3, 36, 0
5, 14880, Note_on_c, 3, 36, 100
5, 15120, Note_on_c, 3, 36, 0
5, 18720, Note_on_c, 3, 45, 100
5, 19200, Note_on_c, 3, 45, 0
5, 19200, Note_on_c, 3, 50, 100
5, 19680, Note_on_c, 3, 50, 0
5, 20160, Note_on_c, 3, 55, 100
5, 20400, Note_on_c, 3, 55, 0
5, 33600, Note_on_c, 3, 38, 100
5, 34560, Note_on_c, 3, 38, 0
5, 34560, Note_on_c, 3, 36, 100
5, 35040, Note_on_c, 3, 36, 0
5, 36000, Note_on_c, 3, 45, 100
5, 36480, Note_on_c, 3, 45, 0
5, 38880, Note_on_c, 3, 43, 100
5, 39360, Note_on_c, 3, 43, 0
5, 40800, Note_on_c, 3, 45, 100
5, 41280, Note_on_c, 3, 45, 0
5, 42240, Note_on_c, 3, 47, 100
5, 42720, Note_on_c, 3, 47, 0
5, 45120, Note_on_c, 3, 60, 100
5, 46080, Note_on_c, 3, 60, 0
5, 56640, Note_on_c, 3, 38, 100
5, 57600, Note_on_c, 3, 38, 0
5, 57600, Note_on_c, 3, 36, 100
5, 58080, Note_on_c, 3, 36, 0
5, 59040, Note_on_c, 3, 45, 100
5, 59520, Note_on_c, 3, 45, 0
5, 61920, Note_on_c, 3, 43, 100
5, 62400, Note_on_c, 3, 43, 0
5, 63840, Note_on_c, 3, 45, 100
5, 64320, Note_on_c, 3, 45, 0
5, 65280, Note_on_c, 3, 47, 100
5, 65760, Note_on_c, 3, 47, 0
5, 68160, Note_on_c, 3, 60, 100
5, 69120, Note_on_c, 3, 60, 0
5, 69120, End_track
6, 0, Start_track
6, 0, MIDI_port, 0
6, 0, Title_t, "--------------------------------------"
6, 0, End_track
7, 0, Start_track
7, 0, MIDI_port, 0
7, 0, Title_t, "Suite No. 3 in C major - BWV 1009"
7, 0, End_track
8, 0, Start_track
8, 0, MIDI_port, 0
8, 0, Title_t, "4th Movement: Sarabande"
8, 0, End_track
9, 0, Start_track
9, 0, MIDI_port, 0
9, 0, Title_t, "--------------------------------------"
9, 0, End_track
10, 0, Start_track
10, 0, MIDI_port, 0
10, 0, Title_t, "Sequenced with Cakewalk Pro Audio by"
10, 0, End_track
11, 0, Start_track
11, 0, MIDI_port, 0
11, 0, Title_t, "David J. Grossman - dave@unpronounceable.com"
11, 0, End_track
12, 0, Start_track
12, 0, MIDI_port, 0
12, 0, Title_t, "This and other Bach MIDI files can be found at:"
12, 0, End_track
13, 0, Start_track
13, 0, MIDI_port, 0
13, 0, Title_t, "Dave's J.S. Bach Page"
13, 0, End_track
14, 0, Start_track
14, 0, MIDI_port, 0
14, 0, Title_t, "http://www.unpronounceable.com/bach"
14, 0, End_track
15, 0, Start_track
15, 0, MIDI_port, 0
15, 0, Title_t, "--------------------------------------"
15, 0, End_track
16, 0, Start_track
16, 0, MIDI_port, 0
16, 0, Title_t, "Original Filename: cs3-4sar.mid"
16, 0, End_track
17, 0, Start_track
17, 0, MIDI_port, 0
17, 0, Title_t, "Last Modified: February 22, 1997"
17, 0, End_track
18, 0, Start_track
18, 0, MIDI_port, 0
18, 0, End_track
0, 0, End_of_file
