0, 0, Header, 1, 18, 480
1, 0, Start_track
1, 0, Title_t, "untitled"
1, 0, SMPTE_offset, 0, 0, 3, 18, 0
1, 0, Time_signature, 3, 2, 24, 8
1, 0, Key_signature, -3, "major"
1, 0, Tempo, 1333333
1, 0, Marker_t, "A"
1, 6720, Marker_t, "*"
1, 17280, Marker_t, "A'"
1, 34560, Marker_t, "B"
1, 63360, Marker_t, "B'"
1, 63360, End_track
2, 0, Start_track
2, 0, MIDI_port, 0
2, 0, Title_t, "Solo Cello"
2, 0, Program_c, 0, 42
2, 0, Control_c, 0, 7, 100
2, 0, Control_c, 0, 10, 64
2, 0, Note_on_c, 0, 58, 100
2, 480, Note_on_c, 0, 58, 0
2, 480, Note_on_c, 0, 60, 100
2, 960, Note_on_c, 0, 60, 0
2, 960, Note_on_c, 0, 61, 100
2, 1440, Note_on_c, 0, 61, 0
2, 1440, Note_on_c, 0, 61, 100
2, 1800, Note_on_c, 0, 61, 0
2, 1800, Note_on_c, 0, 58, 100
2, 1920, Note_on_c, 0, 58, 0
2, 1920, Note_on_c, 0, 60, 100
2, 2520, Note_on_c, 0, 60, 0
2, 2520, Note_on_c, 0, 58, 100
2, 2640, Note_on_c, 0, 58, 0
2, 2640, Note_on_c, 0, 56, 100
2, 2760, Note_on_c, 0, 56, 0
2, 2760, Note_on_c, 0, 55, 100
2, 2880, Note_on_c, 0, 55, 0
2, 2880, Note_on_c, 0, 53, 100
2, 3360, Note_on_c, 0, 53, 0
2, 3360, Note_on_c, 0, 55, 100
2, 3840, Note_on_c, 0, 55, 0
2, 3840, Note_on_c, 0, 56, 100
2, 4320, Note_on_c, 0, 56, 0
2, 4320, Note_on_c, 0, 56, 100
2, 4680, Note_on_c, 0, 56, 0
2, 4680, Note_on_c, 0, 53, 100
2, 4800, Note_on_c, 0, 53, 0
2, 4800, Note_on_c, 0, 55, 100
2, 5160, Note_on_c, 0, 55, 0
2, 5160, Note_on_c, 0, 58, 100
2, 5280, Note_on_c, 0, 58, 0
2, 5280, Note_on_c, 0, 51, 100
2, 6120, Note_on_c, 0, 51, 0
2, 6120, Note_on_c, 0, 48, 100
2, 6240, Note_on_c, 0, 48, 0
2, 6240, Note_on_c, 0, 50, 100
2, 6600, Note_on_c, 0, 50, 0
2, 6600, Note_on_c, 0, 53, 100
2, 6720, Note_on_c, 0, 53, 0
2, 6720, Note_on_c, 0, 56, 100
2, 7200, Note_on_c, 0, 56, 0
2, 7200, Note_on_c, 0, 56, 100
2, 7560, Note_on_c, 0, 56, 0
2, 7560, Note_on_c, 0, 53, 100
2, 7680, Note_on_c, 0, 53, 0
2, 7680, Note_on_c, 0, 55, 100
2, 8040, Note_on_c, 0, 55, 0
2, 8040, Note_on_c, 0, 58, 100
2, 8160, Note_on_c, 0, 58, 0
2, 8160, Note_on_c, 0, 61, 100
2, 9000, Note_on_c, 0, 61, 0
2, 9000, Note_on_c, 0, 58, 100
2, 9120, Note_on_c, 0, 58, 0
2, 9120, Note_on_c, 0, 60, 100
2, 9480, Note_on_c, 0, 60, 0
2, 9480, Note_on_c, 0, 64, 100
2, 9600, Note_on_c, 0, 64, 0
2, 9600, Note_on_c, 0, 67, 100
2, 10080, Note_on_c, 0, 67, 0
2, 10080, Note_on_c, 0, 58, 100
2, 10560, Note_on_c, 0, 58, 0
2, 10560, Note_on_c, 0, 57, 100
2, 10920, Note_on_c, 0, 57, 0
2, 10920, Note_on_c, 0, 55, 100
2, 11040, Note_on_c, 0, 55, 0
2, 11040, Note_on_c, 0, 53, 100
2, 11400, Note_on_c, 0, 53, 0
2, 11400, Note_on_c, 0, 51, 100
2, 11520, Note_on_c, 0, 51, 0
2, 11520, Note_on_c, 0, 50, 100
2, 12000, Note_on_c, 0, 50, 0
2, 12960, Note_on_c, 0, 51, 100
2, 13440, Note_on_c, 0, 51, 0
2, 14400, Note_on_c, 0, 53, 100
2, 14880, Note_on_c, 0, 53, 0
2, 17280, Note_on_c, 0, 58, 100
2, 17760, Note_on_c, 0, 58, 0
2, 17760, Note_on_c, 0, 60, 100
2, 18240, Note_on_c, 0, 60, 0
2, 18240, Note_on_c, 0, 61, 100
2, 18720, Note_on_c, 0, 61, 0
2, 18720, Note_on_c, 0, 61, 100
2, 19080, Note_on_c, 0, 61, 0
2, 19080, Note_on_c, 0, 58, 100
2, 19200, Note_on_c, 0, 58, 0
2, 19200, Note_on_c, 0, 60, 100
2, 19800, Note_on_c, 0, 60, 0
2, 19800, Note_on_c, 0, 58, 100
2, 19920, Note_on_c, 0, 58, 0
2, 19920, Note_on_c, 0, 56, 100
2, 20040, Note_on_c, 0, 56, 0
2, 20040, Note_on_c, 0, 55, 100
2, 20160, Note_on_c, 0, 55, 0
2, 20160, Note_on_c, 0, 53, 100
2, 20640, Note_on_c, 0, 53, 0
2, 20640, Note_on_c, 0, 55, 100
2, 21120, Note_on_c, 0, 55, 0
2, 21120, Note_on_c, 0, 56, 100
2, 21600, Note_on_c, 0, 56, 0
2, 21600, Note_on_c, 0, 56, 100
2, 21960, Note_on_c, 0, 56, 0
2, 21960, Note_on_c, 0, 53, 100
2, 22080, Note_on_c, 0, 53, 0
2, 22080, Note_on_c, 0, 55, 100
2, 22440, Note_on_c, 0, 55, 0
2, 22440, Note_on_c, 0, 58, 100
2, 22560, Note_on_c, 0, 58, 0
2, 22560, Note_on_c, 0, 51, 100
2, 23400, Note_on_c, 0, 51, 0
2, 23400, Note_on_c, 0, 48, 100
2, 23520, Note_on_c, 0, 48, 0
2, 23520, Note_on_c, 0, 50, 100
2, 23880, Note_on_c, 0, 50, 0
2, 23880, Note_on_c, 0, 53, 100
2, 24000, Note_on_c, 0, 53, 0
2, 24000, Note_on_c, 0, 56, 100
2, 24480, Note_on_c, 0, 56, 0
2, 24480, Note_on_c, 0, 56, 100
2, 24840, Note_on_c, 0, 56, 0
2, 24840, Note_on_c, 0, 53, 100
2, 24960, Note_on_c, 0, 53, 0
2, 24960, Note_on_c, 0, 55, 100
2, 25320, Note_on_c, 0, 55, 0
2, 25320, Note_on_c, 0, 58, 100
2, 25440, Note_on_c, 0, 58, 0
2, 25440, Note_on_c, 0, 61, 100
2, 26280, Note_on_c, 0, 61, 0
2, 26280, Note_on_c, 0, 58, 100
2, 26400, Note_on_c, 0, 58, 0
2, 26400, Note_on_c, 0, 60, 100
2, 26760, Note_on_c, 0, 60, 0
2, 26760, Note_on_c, 0, 64, 100
2, 26880, Note_on_c, 0, 64, 0
2, 26880, Note_on_c, 0, 67, 100
2, 27360, Note_on_c, 0, 67, 0
2, 27360, Note_on_c, 0, 58, 100
2, 27840, Note_on_c, 0, 58, 0
2, 27840, Note_on_c, 0, 57, 100
2, 28200, Note_on_c, 0, 57, 0
2, 28200, Note_on_c, 0, 55, 100
2, 28320, Note_on_c, 0, 55, 0
2, 28320, Note_on_c, 0, 53, 100
2, 28680, Note_on_c, 0, 53, 0
2, 28680, Note_on_c, 0, 51, 100
2, 28800, Note_on_c, 0, 51, 0
2, 28800, Note_on_c, 0, 50, 100
2, 29280, Note_on_c, 0, 50, 0
2, 30240, Note_on_c, 0, 51, 100
2, 30720, Note_on_c, 0, 51, 0
2, 31680, Note_on_c, 0, 53, 100
2, 32160, Note_on_c, 0, 53, 0
2, 34560, Note_on_c, 0, 53, 100
2, 35040, Note_on_c, 0, 53, 0
2, 35040, Note_on_c, 0, 55, 100
2, 35520, Note_on_c, 0, 55, 0
2, 35520, Note_on_c, 0, 56, 100
2, 36360, Note_on_c, 0, 56, 0
2, 36360, Note_on_c, 0, 53, 100
2, 36480, Note_on_c, 0, 53, 0
2, 36480, Note_on_c, 0, 55, 100
2, 37080, Note_on_c, 0, 55, 0
2, 37080, Note_on_c, 0, 53, 100
2, 37200, Note_on_c, 0, 53, 0
2, 37200, Note_on_c, 0, 51, 100
2, 37320, Note_on_c, 0, 51, 0
2, 37320, Note_on_c, 0, 50, 100
2, 37440, Note_on_c, 0, 50, 0
2, 37440, Note_on_c, 0, 63, 100
2, 37920, Note_on_c, 0, 63, 0
2, 37920, Note_on_c, 0, 62, 100
2, 38400, Note_on_c, 0, 62, 0
2, 38400, Note_on_c, 0, 60, 100
2, 38880, Note_on_c, 0, 60, 0
2, 38880, Note_on_c, 0, 60, 100
2, 39240, Note_on_c, 0, 60, 0
2, 39240, Note_on_c, 0, 57, 100
2, 39360, Note_on_c, 0, 57, 0
2, 39360, Note_on_c, 0, 59, 100
2, 39720, Note_on_c, 0, 59, 0
2, 39720, Note_on_c, 0, 62, 100
2, 39840, Note_on_c, 0, 62, 0
2, 39840, Note_on_c, 0, 55, 100
2, 40200, Note_on_c, 0, 55, 0
2, 40200, Note_on_c, 0, 53, 100
2, 40320, Note_on_c, 0, 53, 0
2, 40320, Note_on_c, 0, 52, 100
2, 40800, Note_on_c, 0, 52, 0
2, 40800, Note_on_c, 0, 53, 100
2, 41280, Note_on_c, 0, 53, 0
2, 41280, Note_on_c, 0, 55, 100
2, 41760, Note_on_c, 0, 55, 0
2, 41760, Note_on_c, 0, 56, 100
2, 42120, Note_on_c, 0, 56, 0
2, 42120, Note_on_c, 0, 53, 100
2, 42240, Note_on_c, 0, 53, 0
2, 42240, Note_on_c, 0, 50, 100
2, 42600, Note_on_c, 0, 50, 0
2, 42600, Note_on_c, 0, 59, 100
2, 42720, Note_on_c, 0, 59, 0
2, 42720, Note_on_c, 0, 60, 100
2, 43560, Note_on_c, 0, 60, 0
2, 43560, Note_on_c, 0, 62, 100
2, 43680, Note_on_c, 0, 62, 0
2, 43680, Pitch_bend_c, 0, 12288
2, 43680, Note_on_c, 0, 62, 100
2, 43740, Pitch_bend_c, 0, 8192
2, 43800, Pitch_bend_c, 0, 12288
2, 43860, Pitch_bend_c, 0, 8192
2, 43920, Pitch_bend_c, 0, 12288
2, 43960, Pitch_bend_c, 0, 8192
2, 44000, Pitch_bend_c, 0, 12288
2, 44040, Pitch_bend_c, 0, 8192
2, 44080, Pitch_bend_c, 0, 12288
2, 44120, Pitch_bend_c, 0, 8192
2, 44400, Note_on_c, 0, 62, 0
2, 44400, Note_on_c, 0, 60, 100
2, 44640, Note_on_c, 0, 60, 0
2, 44640, Note_on_c, 0, 60, 100
2, 45000, Note_on_c, 0, 60, 0
2, 45000, Note_on_c, 0, 55, 100
2, 45120, Note_on_c, 0, 55, 0
2, 45120, Note_on_c, 0, 51, 100
2, 45480, Note_on_c, 0, 51, 0
2, 45480, Note_on_c, 0, 55, 100
2, 45600, Note_on_c, 0, 55, 0
2, 45600, Note_on_c, 0, 48, 100
2, 45960, Note_on_c, 0, 48, 0
2, 45960, Note_on_c, 0, 46, 100
2, 46080, Note_on_c, 0, 46, 0
2, 46080, Note_on_c, 0, 45, 100
2, 46560, Note_on_c, 0, 45, 0
2, 47520, Note_on_c, 0, 46, 100
2, 48000, Note_on_c, 0, 46, 0
2, 48960, Note_on_c, 0, 39, 100
2, 49440, Note_on_c, 0, 39, 0
2, 49920, Note_on_c, 0, 36, 100
2, 50400, Note_on_c, 0, 36, 0
2, 59040, Note_on_c, 0, 44, 100
2, 59280, Note_on_c, 0, 44, 0
2, 60480, Note_on_c, 0, 43, 100
2, 60720, Note_on_c, 0, 43, 0
2, 60960, Note_on_c, 0, 44, 100
2, 61200, Note_on_c, 0, 44, 0
2, 63360, Note_on_c, 0, 53, 100
2, 63840, Note_on_c, 0, 53, 0
2, 63840, Note_on_c, 0, 55, 100
2, 64320, Note_on_c, 0, 55, 0
2, 64320, Note_on_c, 0, 56, 100
2, 65160, Note_on_c, 0, 56, 0
2, 65160, Note_on_c, 0, 53, 100
2, 65280, Note_on_c, 0, 53, 0
2, 65280, Note_on_c, 0, 55, 100
2, 65880, Note_on_c, 0, 55, 0
2, 65880, Note_on_c, 0, 53, 100
2, 66000, Note_on_c, 0, 53, 0
2, 66000, Note_on_c, 0, 51, 100
2, 66120, Note_on_c, 0, 51, 0
2, 66120, Note_on_c, 0, 50, 100
2, 66240, Note_on_c, 0, 50, 0
2, 66240, Note_on_c, 0, 63, 100
2, 66720, Note_on_c, 0, 63, 0
2, 66720, Note_on_c, 0, 62, 100
2, 67200, Note_on_c, 0, 62, 0
2, 67200, Note_on_c, 0, 60, 100
2, 67680, Note_on_c, 0, 60, 0
2, 67680, Note_on_c, 0, 60, 100
2, 68040, Note_on_c, 0, 60, 0
2, 68040, Note_on_c, 0, 57, 100
2, 68160, Note_on_c, 0, 57, 0
2, 68160, Note_on_c, 0, 59, 100
2, 68520, Note_on_c, 0, 59, 0
2, 68520, Note_on_c, 0, 62, 100
2, 68640, Note_on_c, 0, 62, 0
2, 68640, Note_on_c, 0, 55, 100
2, 69000, Note_on_c, 0, 55, 0
2, 69000, Note_on_c, 0, 53, 100
2, 69120, Note_on_c, 0, 53, 0
2, 69120, Note_on_c, 0, 52, 100
2, 69600, Note_on_c, 0, 52, 0
2, 69600, Note_on_c, 0, 53, 100
2, 70080, Note_on_c, 0, 53, 0
2, 70080, Note_on_c, 0, 55, 100
2, 70560, Note_on_c, 0, 55, 0
2, 70560, Note_on_c, 0, 56, 100
2, 70920, Note_on_c, 0, 56, 0
2, 70920, Note_on_c, 0, 53, 100
2, 71040, Note_on_c, 0, 53, 0
2, 71040, Note_on_c, 0, 50, 100
2, 71400, Note_on_c, 0, 50, 0
2, 71400, Note_on_c, 0, 59, 100
2, 71520, Note_on_c, 0, 59, 0
2, 71520, Note_on_c, 0, 60, 100
2, 72360, Note_on_c, 0, 60, 0
2, 72360, Note_on_c, 0, 62, 100
2, 72480, Note_on_c, 0, 62, 0
2, 72480, Pitch_bend_c, 0, 12288
2, 72480, Note_on_c, 0, 62, 100
2, 72540, Pitch_bend_c, 0, 8192
2, 72600, Pitch_bend_c, 0, 12288
2, 72660, Pitch_bend_c, 0, 8192
2, 72720, Pitch_bend_c, 0, 12288
2, 72760, Pitch_bend_c, 0, 8192
2, 72800, Pitch_bend_c, 0, 12288
2, 72840, Pitch_bend_c, 0, 8192
2, 72880, Pitch_bend_c, 0, 12288
2, 72920, Pitch_bend_c, 0, 8192
2, 73200, Note_on_c, 0, 62, 0
2, 73200, Note_on_c, 0, 60, 100
2, 73440, Note_on_c, 0, 60, 0
2, 73440, Note_on_c, 0, 60, 100
2, 73800, Note_on_c, 0, 60, 0
2, 73800, Note_on_c, 0, 55, 100
2, 73920, Note_on_c, 0, 55, 0
2, 73920, Note_on_c, 0, 51, 100
2, 74280, Note_on_c, 0, 51, 0
2, 74280, Note_on_c, 0, 55, 100
2, 74400, Note_on_c, 0, 55, 0
2, 74400, Note_on_c, 0, 48, 100
2, 74760, Note_on_c, 0, 48, 0
2, 74760, Note_on_c, 0, 46, 100
2, 74880, Note_on_c, 0, 46, 0
2, 74880, Note_on_c, 0, 45, 100
2, 75360, Note_on_c, 0, 45, 0
2, 76320, Note_on_c, 0, 46, 100
2, 76800, Note_on_c, 0, 46, 0
2, 77760, Note_on_c, 0, 39, 100
2, 78240, Note_on_c, 0, 39, 0
2, 78720, Note_on_c, 0, 36, 100
2, 79200, Note_on_c, 0, 36, 0
2, 87840, Note_on_c, 0, 44, 100
2, 88080, Note_on_c, 0, 44, 0
2, 89280, Note_on_c, 0, 43, 100
2, 89520, Note_on_c, 0, 43, 0
2, 89760, Note_on_c, 0, 44, 100
2, 90000, Note_on_c, 0, 44, 0
2, 90000, End_track
3, 0, Start_track
3, 0, MIDI_port, 0
3, 0, Title_t, "--------------------------------------"
3, 0, Program_c, 1, 42
3, 0, Control_c, 1, 7, 100
3, 0, Control_c, 1, 10, 74
3, 0, Note_on_c, 1, 51, 100
3, 1440, Note_on_c, 1, 51, 0
3, 1440, Note_on_c, 1, 51, 100
3, 1920, Note_on_c, 1, 51, 0
3, 2880, Note_on_c, 1, 46, 100
3, 4320, Note_on_c, 1, 46, 0
3, 4320, Note_on_c, 1, 46, 100
3, 4800, Note_on_c, 1, 46, 0
3, 5760, Note_on_c, 1, 46, 100
3, 6120, Note_on_c, 1, 46, 0
3, 7200, Note_on_c, 1, 46, 100
3, 7560, Note_on_c, 1, 46, 0
3, 8640, Note_on_c, 1, 52, 100
3, 9000, Note_on_c, 1, 52, 0
3, 10080, Note_on_c, 1, 53, 100
3, 10560, Note_on_c, 1, 53, 0
3, 11520, Note_on_c, 1, 58, 100
3, 11880, Note_on_c, 1, 58, 0
3, 11880, Note_on_c, 1, 62, 100
3, 12000, Note_on_c, 1, 62, 0
3, 12000, Note_on_c, 1, 65, 100
3, 12360, Note_on_c, 1, 65, 0
3, 12360, Note_on_c, 1, 57, 100
3, 12480, Note_on_c, 1, 57, 0
3, 12480, Note_on_c, 1, 58, 100
3, 13320, Note_on_c, 1, 58, 0
3, 13320, Note_on_c, 1, 62, 100
3, 13440, Note_on_c, 1, 62, 0
3, 13440, Note_on_c, 1, 67, 100
3, 13800, Note_on_c, 1, 67, 0
3, 13800, Note_on_c, 1, 57, 100
3, 13920, Note_on_c, 1, 57, 0
3, 13920, Note_on_c, 1, 58, 100
3, 14640, Note_on_c, 1, 58, 0
3, 14640, Note_on_c, 1, 57, 100
3, 14760, Note_on_c, 1, 57, 0
3, 14760, Note_on_c, 1, 55, 100
3, 14880, Note_on_c, 1, 55, 0
3, 14880, Note_on_c, 1, 53, 100
3, 15120, Note_on_c, 1, 53, 0
3, 15120, Note_on_c, 1, 51, 100
3, 15360, Note_on_c, 1, 51, 0
3, 15360, Note_on_c, 1, 50, 100
3, 15600, Note_on_c, 1, 50, 0
3, 15600, Note_on_c, 1, 51, 100
3, 15720, Note_on_c, 1, 51, 0
3, 15720, Note_on_c, 1, 48, 100
3, 15840, Note_on_c, 1, 48, 0
3, 15840, Pitch_bend_c, 1, 16383
3, 15840, Note_on_c, 1, 46, 100
3, 15880, Pitch_bend_c, 1, 8192
3, 15920, Pitch_bend_c, 1, 16383
3, 15960, Pitch_bend_c, 1, 8192
3, 17280, Note_on_c, 1, 46, 0
3, 17280, Note_on_c, 1, 51, 100
3, 18720, Note_on_c, 1, 51, 0
3, 18720, Note_on_c, 1, 51, 100
3, 19200, Note_on_c, 1, 51, 0
3, 20160, Note_on_c, 1, 46, 100
3, 21600, Note_on_c, 1, 46, 0
3, 21600, Note_on_c, 1, 46, 100
3, 22080, Note_on_c, 1, 46, 0
3, 23040, Note_on_c, 1, 46, 100
3, 23400, Note_on_c, 1, 46, 0
3, 24480, Note_on_c, 1, 46, 100
3, 24840, Note_on_c, 1, 46, 0
3, 25920, Note_on_c, 1, 52, 100
3, 26280, Note_on_c, 1, 52, 0
3, 27360, Note_on_c, 1, 53, 100
3, 27840, Note_on_c, 1, 53, 0
3, 28800, Note_on_c, 1, 58, 100
3, 29160, Note_on_c, 1, 58, 0
3, 29160, Note_on_c, 1, 62, 100
3, 29280, Note_on_c, 1, 62, 0
3, 29280, Note_on_c, 1, 65, 100
3, 29640, Note_on_c, 1, 65, 0
3, 29640, Note_on_c, 1, 57, 100
3, 29760, Note_on_c, 1, 57, 0
3, 29760, Note_on_c, 1, 58, 100
3, 30600, Note_on_c, 1, 58, 0
3, 30600, Note_on_c, 1, 62, 100
3, 30720, Note_on_c, 1, 62, 0
3, 30720, Note_on_c, 1, 67, 100
3, 31080, Note_on_c, 1, 67, 0
3, 31080, Note_on_c, 1, 57, 100
3, 31200, Note_on_c, 1, 57, 0
3, 31200, Note_on_c, 1, 58, 100
3, 31920, Note_on_c, 1, 58, 0
3, 31920, Note_on_c, 1, 57, 100
3, 32040, Note_on_c, 1, 57, 0
3, 32040, Note_on_c, 1, 55, 100
3, 32160, Note_on_c, 1, 55, 0
3, 32160, Note_on_c, 1, 53, 100
3, 32400, Note_on_c, 1, 53, 0
3, 32400, Note_on_c, 1, 51, 100
3, 32640, Note_on_c, 1, 51, 0
3, 32640, Note_on_c, 1, 50, 100
3, 32880, Note_on_c, 1, 50, 0
3, 32880, Note_on_c, 1, 51, 100
3, 33000, Note_on_c, 1, 51, 0
3, 33000, Note_on_c, 1, 48, 100
3, 33120, Note_on_c, 1, 48, 0
3, 33120, Pitch_bend_c, 1, 16383
3, 33120, Note_on_c, 1, 46, 100
3, 33160, Pitch_bend_c, 1, 8192
3, 33200, Pitch_bend_c, 1, 16383
3, 33240, Pitch_bend_c, 1, 8192
3, 34560, Note_on_c, 1, 46, 0
3, 34560, Note_on_c, 1, 46, 100
3, 36000, Note_on_c, 1, 46, 0
3, 36000, Note_on_c, 1, 47, 100
3, 36360, Note_on_c, 1, 47, 0
3, 37440, Note_on_c, 1, 55, 100
3, 37920, Note_on_c, 1, 55, 0
3, 37920, Note_on_c, 1, 53, 100
3, 38400, Note_on_c, 1, 53, 0
3, 38400, Note_on_c, 1, 54, 100
3, 38880, Note_on_c, 1, 54, 0
3, 38880, Note_on_c, 1, 50, 100
3, 39240, Note_on_c, 1, 50, 0
3, 41760, Note_on_c, 1, 48, 100
3, 42120, Note_on_c, 1, 48, 0
3, 42720, Note_on_c, 1, 51, 100
3, 43200, Note_on_c, 1, 51, 0
3, 43200, Note_on_c, 1, 53, 100
3, 43680, Note_on_c, 1, 53, 0
3, 43680, Note_on_c, 1, 55, 100
3, 44640, Note_on_c, 1, 55, 0
3, 46080, Note_on_c, 1, 53, 100
3, 46560, Note_on_c, 1, 53, 0
3, 47520, Note_on_c, 1, 53, 100
3, 48000, Note_on_c, 1, 53, 0
3, 48960, Note_on_c, 1, 46, 100
3, 49440, Note_on_c, 1, 46, 0
3, 49920, Note_on_c, 1, 45, 100
3, 50400, Note_on_c, 1, 45, 0
3, 50400, Note_on_c, 1, 46, 100
3, 50760, Note_on_c, 1, 46, 0
3, 51840, Note_on_c, 1, 51, 100
3, 52200, Note_on_c, 1, 51, 0
3, 52200, Note_on_c, 1, 55, 100
3, 52320, Note_on_c, 1, 55, 0
3, 52320, Note_on_c, 1, 58, 100
3, 52680, Note_on_c, 1, 58, 0
3, 52680, Note_on_c, 1, 50, 100
3, 52800, Note_on_c, 1, 50, 0
3, 52800, Note_on_c, 1, 51, 100
3, 53640, Note_on_c, 1, 51, 0
3, 53640, Note_on_c, 1, 55, 100
3, 53760, Note_on_c, 1, 55, 0
3, 53760, Note_on_c, 1, 60, 100
3, 54120, Note_on_c, 1, 60, 0
3, 54120, Note_on_c, 1, 50, 100
3, 54240, Note_on_c, 1, 50, 0
3, 54240, Note_on_c, 1, 51, 100
3, 55080, Note_on_c, 1, 51, 0
3, 55080, Note_on_c, 1, 56, 100
3, 55200, Note_on_c, 1, 56, 0
3, 55200, Note_on_c, 1, 55, 100
3, 55560, Note_on_c, 1, 55, 0
3, 55560, Note_on_c, 1, 53, 100
3, 55680, Note_on_c, 1, 53, 0
3, 55680, Note_on_c, 1, 51, 100
3, 55920, Note_on_c, 1, 51, 0
3, 55920, Note_on_c, 1, 53, 100
3, 56040, Note_on_c, 1, 53, 0
3, 56040, Note_on_c, 1, 50, 100
3, 56160, Note_on_c, 1, 50, 0
3, 56160, Note_on_c, 1, 51, 100
3, 56400, Note_on_c, 1, 51, 0
3, 56400, Note_on_c, 1, 55, 100
3, 56520, Note_on_c, 1, 55, 0
3, 56520, Note_on_c, 1, 58, 100
3, 56640, Note_on_c, 1, 58, 0
3, 56640, Note_on_c, 1, 63, 100
3, 56880, Note_on_c, 1, 63, 0
3, 56880, Note_on_c, 1, 58, 100
3, 57000, Note_on_c, 1, 58, 0
3, 57000, Note_on_c, 1, 55, 100
3, 57120, Note_on_c, 1, 55, 0
3, 57120, Note_on_c, 1, 51, 100
3, 57960, Note_on_c, 1, 51, 0
3, 57960, Note_on_c, 1, 54, 100
3, 58080, Note_on_c, 1, 54, 0
3, 58080, Note_on_c, 1, 60, 100
3, 58440, Note_on_c, 1, 60, 0
3, 58440, Note_on_c, 1, 53, 100
3, 58560, Note_on_c, 1, 53, 0
3, 58560, Note_on_c, 1, 63, 100
3, 59280, Note_on_c, 1, 63, 0
3, 59280, Note_on_c, 1, 62, 100
3, 59400, Note_on_c, 1, 62, 0
3, 59400, Note_on_c, 1, 60, 100
3, 59520, Note_on_c, 1, 60, 0
3, 59520, Note_on_c, 1, 62, 100
3, 59880, Note_on_c, 1, 62, 0
3, 59880, Note_on_c, 1, 65, 100
3, 60000, Note_on_c, 1, 65, 0
3, 60000, Note_on_c, 1, 58, 100
3, 60720, Note_on_c, 1, 58, 0
3, 60720, Note_on_c, 1, 56, 100
3, 60840, Note_on_c, 1, 56, 0
3, 60840, Note_on_c, 1, 55, 100
3, 60960, Note_on_c, 1, 55, 0
3, 60960, Note_on_c, 1, 53, 100
3, 61200, Note_on_c, 1, 53, 0
3, 61200, Note_on_c, 1, 51, 100
3, 61440, Note_on_c, 1, 51, 0
3, 61440, Note_on_c, 1, 46, 100
3, 61680, Note_on_c, 1, 46, 0
3, 61680, Note_on_c, 1, 51, 100
3, 61800, Note_on_c, 1, 51, 0
3, 61800, Note_on_c, 1, 50, 100
3, 61920, Note_on_c, 1, 50, 0
3, 61920, Note_on_c, 1, 39, 100
3, 62040, Note_on_c, 1, 39, 0
3, 62040, Note_on_c, 1, 43, 100
3, 62160, Note_on_c, 1, 43, 0
3, 62160, Note_on_c, 1, 46, 100
3, 62280, Note_on_c, 1, 46, 0
3, 62280, Note_on_c, 1, 50, 100
3, 62400, Note_on_c, 1, 50, 0
3, 62400, Note_on_c, 1, 51, 100
3, 62520, Note_on_c, 1, 51, 0
3, 62520, Note_on_c, 1, 55, 100
3, 62640, Note_on_c, 1, 55, 0
3, 62640, Note_on_c, 1, 58, 100
3, 62760, Note_on_c, 1, 58, 0
3, 62760, Note_on_c, 1, 62, 100
3, 62880, Note_on_c, 1, 62, 0
3, 62880, Note_on_c, 1, 63, 100
3, 63360, Note_on_c, 1, 63, 0
3, 63360, Note_on_c, 1, 46, 100
3, 64800, Note_on_c, 1, 46, 0
3, 64800, Note_on_c, 1, 47, 100
3, 65160, Note_on_c, 1, 47, 0
3, 66240, Note_on_c, 1, 55, 100
3, 66720, Note_on_c, 1, 55, 0
3, 66720, Note_on_c, 1, 53, 100
3, 67200, Note_on_c, 1, 53, 0
3, 67200, Note_on_c, 1, 54, 100
3, 67680, Note_on_c, 1, 54, 0
3, 67680, Note_on_c, 1, 50, 100
3, 68040, Note_on_c, 1, 50, 0
3, 70560, Note_on_c, 1, 48, 100
3, 70920, Note_on_c, 1, 48, 0
3, 71520, Note_on_c, 1, 51, 100
3, 72000, Note_on_c, 1, 51, 0
3, 72000, Note_on_c, 1, 53, 100
3, 72480, Note_on_c, 1, 53, 0
3, 72480, Note_on_c, 1, 55, 100
3, 73440, Note_on_c, 1, 55, 0
3, 74880, Note_on_c, 1, 53, 100
3, 75360, Note_on_c, 1, 53, 0
3, 76320, Note_on_c, 1, 53, 100
3, 76800, Note_on_c, 1, 53, 0
3, 77760, Note_on_c, 1, 46, 100
3, 78240, Note_on_c, 1, 46, 0
3, 78720, Note_on_c, 1, 45, 100
3, 79200, Note_on_c, 1, 45, 0
3, 79200, Note_on_c, 1, 46, 100
3, 79560, Note_on_c, 1, 46, 0
3, 80640, Note_on_c, 1, 51, 100
3, 81000, Note_on_c, 1, 51, 0
3, 81000, Note_on_c, 1, 55, 100
3, 81120, Note_on_c, 1, 55, 0
3, 81120, Note_on_c, 1, 58, 100
3, 81480, Note_on_c, 1, 58, 0
3, 81480, Note_on_c, 1, 50, 100
3, 81600, Note_on_c, 1, 50, 0
3, 81600, Note_on_c, 1, 51, 100
3, 82440, Note_on_c, 1, 51, 0
3, 82440, Note_on_c, 1, 55, 100
3, 82560, Note_on_c, 1, 55, 0
3, 82560, Note_on_c, 1, 60, 100
3, 82920, Note_on_c, 1, 60, 0
3, 82920, Note_on_c, 1, 50, 100
3, 83040, Note_on_c, 1, 50, 0
3, 83040, Note_on_c, 1, 51, 100
3, 83880, Note_on_c, 1, 51, 0
3, 83880, Note_on_c, 1, 56, 100
3, 84000, Note_on_c, 1, 56, 0
3, 84000, Note_on_c, 1, 55, 100
3, 84360, Note_on_c, 1, 55, 0
3, 84360, Note_on_c, 1, 53, 100
3, 84480, Note_on_c, 1, 53, 0
3, 84480, Note_on_c, 1, 51, 100
3, 84720, Note_on_c, 1, 51, 0
3, 84720, Note_on_c, 1, 53, 100
3, 84840, Note_on_c, 1, 53, 0
3, 84840, Note_on_c, 1, 50, 100
3, 84960, Note_on_c, 1, 50, 0
3, 84960, Note_on_c, 1, 51, 100
3, 85200, Note_on_c, 1, 51, 0
3, 85200, Note_on_c, 1, 55, 100
3, 85320, Note_on_c, 1, 55, 0
3, 85320, Note_on_c, 1, 58, 100
3, 85440, Note_on_c, 1, 58, 0
3, 85440, Note_on_c, 1, 63, 100
3, 85680, Note_on_c, 1, 63, 0
3, 85680, Note_on_c, 1, 58, 100
3, 85800, Note_on_c, 1, 58, 0
3, 85800, Note_on_c, 1, 55, 100
3, 85920, Note_on_c, 1, 55, 0
3, 85920, Note_on_c, 1, 51, 100
3, 86760, Note_on_c, 1, 51, 0
3, 86760, Note_on_c, 1, 54, 100
3, 86880, Note_on_c, 1, 54, 0
3, 86880, Note_on_c, 1, 60, 100
3, 87240, Note_on_c, 1, 60, 0
3, 87240, Note_on_c, 1, 53, 100
3, 87360, Note_on_c, 1, 53, 0
3, 87360, Note_on_c, 1, 63, 100
3, 88080, Note_on_c, 1, 63, 0
3, 88080, Note_on_c, 1, 62, 100
3, 88200, Note_on_c, 1, 62, 0
3, 88200, Note_on_c, 1, 60, 100
3, 88320, Note_on_c, 1, 60, 0
3, 88320, Note_on_c, 1, 62, 100
3, 88680, Note_on_c, 1, 62, 0
3, 88680, Note_on_c, 1, 65, 100
3, 88800, Note_on_c, 1, 65, 0
3, 88800, Note_on_c, 1, 58, 100
3, 89520, Note_on_c, 1, 58, 0
3, 89520, Note_on_c, 1, 56, 100
3, 89640, Note_on_c, 1, 56, 0
3, 89640, Note_on_c, 1, 55, 100
3, 89760, Note_on_c, 1, 55, 0
3, 89760, Note_on_c, 1, 53, 100
3, 90000, Note_on_c, 1, 53, 0
3, 90000, Note_on_c, 1, 51, 100
3, 90240, Note_on_c, 1, 51, 0
3, 90240, Note_on_c, 1, 46, 100
3, 90480, Note_on_c, 1, 46, 0
3, 90480, Note_on_c, 1, 51, 100
3, 90600, Note_on_c, 1, 51, 0
3, 90600, Note_on_c, 1, 50, 100
3, 90720, Note_on_c, 1, 50, 0
3, 90720, Note_on_c, 1, 39, 100
3, 90840, Note_on_c, 1, 39, 0
3, 90840, Note_on_c, 1, 43, 100
3, 90960, Note_on_c, 1, 43, 0
3, 90960, Note_on_c, 1, 46, 100
3, 91080, Note_on_c, 1, 46, 0
3, 91080, Note_on_c, 1, 50, 100
3, 91200, Note_on_c, 1, 50, 0
3, 91200, Note_on_c, 1, 51, 100
3, 91320, Note_on_c, 1, 51, 0
3, 91320, Note_on_c, 1, 55, 100
3, 91440, Note_on_c, 1, 55, 0
3, 91440, Note_on_c, 1, 58, 100
3, 91560, Note_on_c, 1, 58, 0
3, 91560, Note_on_c, 1, 62, 100
3, 91680, Note_on_c, 1, 62, 0
3, 91680, Note_on_c, 1, 63, 100
3, 92160, Note_on_c, 1, 63, 0
3, 92160, End_track
4, 0, Start_track
4, 0, MIDI_port, 0
4, 0, Title_t, "Johann Sebastian Bach  (1685-1750)"
4, 0, Program_c, 2, 42
4, 0, Control_c, 2, 7, 100
4, 0, Control_c, 2, 10, 54
4, 1440, Note_on_c, 2, 44, 100
4, 1920, Note_on_c, 2, 44, 0
4, 4320, Note_on_c, 2, 39, 100
4, 4800, Note_on_c, 2, 39, 0
4, 7200, Note_on_c, 2, 39, 100
4, 7560, Note_on_c, 2, 39, 0
4, 18720, Note_on_c, 2, 44, 100
4, 19200, Note_on_c, 2, 44, 0
4, 21600, Note_on_c, 2, 39, 100
4, 22080, Note_on_c, 2, 39, 0
4, 24480, Note_on_c, 2, 39, 100
4, 24840, Note_on_c, 2, 39, 0
4, 37440, Note_on_c, 2, 48, 100
4, 37920, Note_on_c, 2, 48, 0
4, 37920, Note_on_c, 2, 46, 100
4, 38400, Note_on_c, 2, 46, 0
4, 38400, Note_on_c, 2, 45, 100
4, 38880, Note_on_c, 2, 45, 0
4, 38880, Note_on_c, 2, 43, 100
4, 39240, Note_on_c, 2, 43, 0
4, 40320, Note_on_c, 2, 46, 100
4, 40800, Note_on_c, 2, 46, 0
4, 40800, Note_on_c, 2, 44, 100
4, 41280, Note_on_c, 2, 44, 0
4, 41280, Note_on_c, 2, 43, 100
4, 41760, Note_on_c, 2, 43, 0
4, 41760, Note_on_c, 2, 41, 100
4, 42120, Note_on_c, 2, 41, 0
4, 46080, Note_on_c, 2, 60, 100
4, 46560, Note_on_c, 2, 60, 0
4, 46560, Note_on_c, 2, 62, 100
4, 47040, Note_on_c, 2, 62, 0
4, 47040, Note_on_c, 2, 63, 100
4, 47520, Note_on_c, 2, 63, 0
4, 47520, Note_on_c, 2, 63, 100
4, 47880, Note_on_c, 2, 63, 0
4, 47880, Note_on_c, 2, 60, 100
4, 48000, Note_on_c, 2, 60, 0
4, 48000, Note_on_c, 2, 62, 100
4, 48360, Note_on_c, 2, 62, 0
4, 48360, Note_on_c, 2, 65, 100
4, 48480, Note_on_c, 2, 65, 0
4, 48480, Note_on_c, 2, 56, 100
4, 49320, Note_on_c, 2, 56, 0
4, 49320, Note_on_c, 2, 53, 100
4, 49440, Note_on_c, 2, 53, 0
4, 49440, Note_on_c, 2, 55, 100
4, 49800, Note_on_c, 2, 55, 0
4, 49800, Note_on_c, 2, 58, 100
4, 49920, Note_on_c, 2, 58, 0
4, 49920, Note_on_c, 2, 51, 100
4, 50760, Note_on_c, 2, 51, 0
4, 50760, Note_on_c, 2, 48, 100
4, 50880, Note_on_c, 2, 48, 0
4, 50880, Note_on_c, 2, 50, 100
4, 51240, Note_on_c, 2, 50, 0
4, 51240, Note_on_c, 2, 53, 100
4, 51360, Note_on_c, 2, 53, 0
4, 51360, Note_on_c, 2, 46, 100
4, 51720, Note_on_c, 2, 46, 0
4, 51720, Note_on_c, 2, 44, 100
4, 51840, Note_on_c, 2, 44, 0
4, 51840, Note_on_c, 2, 43, 100
4, 52320, Note_on_c, 2, 43, 0
4, 53280, Note_on_c, 2, 44, 100
4, 53760, Note_on_c, 2, 44, 0
4, 54720, Note_on_c, 2, 46, 100
4, 55200, Note_on_c, 2, 46, 0
4, 56160, Note_on_c, 2, 48, 100
4, 56640, Note_on_c, 2, 48, 0
4, 57600, Note_on_c, 2, 45, 100
4, 58080, Note_on_c, 2, 45, 0
4, 59040, Note_on_c, 2, 53, 100
4, 59280, Note_on_c, 2, 53, 0
4, 60480, Note_on_c, 2, 51, 100
4, 60720, Note_on_c, 2, 51, 0
4, 66240, Note_on_c, 2, 48, 100
4, 66720, Note_on_c, 2, 48, 0
4, 66720, Note_on_c, 2, 46, 100
4, 67200, Note_on_c, 2, 46, 0
4, 67200, Note_on_c, 2, 45, 100
4, 67680, Note_on_c, 2, 45, 0
4, 67680, Note_on_c, 2, 43, 100
4, 68040, Note_on_c, 2, 43, 0
4, 69120, Note_on_c, 2, 46, 100
4, 69600, Note_on_c, 2, 46, 0
4, 69600, Note_on_c, 2, 44, 100
4, 70080, Note_on_c, 2, 44, 0
4, 70080, Note_on_c, 2, 43, 100
4, 70560, Note_on_c, 2, 43, 0
4, 70560, Note_on_c, 2, 41, 100
4, 70920, Note_on_c, 2, 41, 0
4, 74880, Note_on_c, 2, 60, 100
4, 75360, Note_on_c, 2, 60, 0
4, 75360, Note_on_c, 2, 62, 100
4, 75840, Note_on_c, 2, 62, 0
4, 75840, Note_on_c, 2, 63, 100
4, 76320, Note_on_c, 2, 63, 0
4, 76320, Note_on_c, 2, 63, 100
4, 76680, Note_on_c, 2, 63, 0
4, 76680, Note_on_c, 2, 60, 100
4, 76800, Note_on_c, 2, 60, 0
4, 76800, Note_on_c, 2, 62, 100
4, 77160, Note_on_c, 2, 62, 0
4, 77160, Note_on_c, 2, 65, 100
4, 77280, Note_on_c, 2, 65, 0
4, 77280, Note_on_c, 2, 56, 100
4, 78120, Note_on_c, 2, 56, 0
4, 78120, Note_on_c, 2, 53, 100
4, 78240, Note_on_c, 2, 53, 0
4, 78240, Note_on_c, 2, 55, 100
4, 78600, Note_on_c, 2, 55, 0
4, 78600, Note_on_c, 2, 58, 100
4, 78720, Note_on_c, 2, 58, 0
4, 78720, Note_on_c, 2, 51, 100
4, 79560, Note_on_c, 2, 51, 0
4, 79560, Note_on_c, 2, 48, 100
4, 79680, Note_on_c, 2, 48, 0
4, 79680, Note_on_c, 2, 50, 100
4, 80040, Note_on_c, 2, 50, 0
4, 80040, Note_on_c, 2, 53, 100
4, 80160, Note_on_c, 2, 53, 0
4, 80160, Note_on_c, 2, 46, 100
4, 80520, Note_on_c, 2, 46, 0
4, 80520, Note_on_c, 2, 44, 100
4, 80640, Note_on_c, 2, 44, 0
4, 80640, Note_on_c, 2, 43, 100
4, 81120, Note_on_c, 2, 43, 0
4, 82080, Note_on_c, 2, 44, 100
4, 82560, Note_on_c, 2, 44, 0
4, 83520, Note_on_c, 2, 46, 100
4, 84000, Note_on_c, 2, 46, 0
4, 84960, Note_on_c, 2, 48, 100
4, 85440, Note_on_c, 2, 48, 0
4, 86400, Note_on_c, 2, 45, 100
4, 86880, Note_on_c, 2, 45, 0
4, 87840, Note_on_c, 2, 53, 100
4, 88080, Note_on_c, 2, 53, 0
4, 89280, Note_on_c, 2, 51, 100
4, 89520, Note_on_c, 2, 51, 0
4, 89520, End_track
5, 0, Start_track
5, 0, MIDI_port, 0
5, 0, Title_t, "Six Suites for Solo Cello"
5, 0, End_track
6, 0, Start_track
6, 0, MIDI_port, 0
6, 0, Title_t, "--------------------------------------"
6, 0, End_track
7, 0, Start_track
7, 0, MIDI_port, 0
7, 0, Title_t, "Suite No. 4 in Eb major - BWV 1010"
7, 0, End_track
8, 0, Start_track
8, 0, MIDI_port, 0
8, 0, Title_t, "4th Movement: Sarabande"
8, 0, End_track
9, 0, Start_track
9, 0, MIDI_port, 0
9, 0, Title_t, "--------------------------------------"
9, 0, End_track
10, 0, Start_track
10, 0, MIDI_port, 0
10, 0, Title_t, "Modified from an anonymous sequence with Cakewalk Pro Audio by"
10, 0, End_track
11, 0, Start_track
11, 0, MIDI_port, 0
11, 0, Title_t, "David J. Grossman - dave@unpronounceable.com"
11, 0, End_track
12, 0, Start_track
12, 0, MIDI_port, 0
12, 0, Title_t, "This and other Bach MIDI files can be found at:"
12, 0, End_track
13, 0, Start_track
13, 0, MIDI_port, 0
13, 0, Title_t, "Dave's J.S. Bach Page"
13, 0, End_track
14, 0, Start_track
14, 0, MIDI_port, 0
14, 0, Title_t, "http://www.unpronounceable.com/bach"
14, 0, End_track
15, 0, Start_track
15, 0, MIDI_port, 0
15, 0, Title_t, "--------------------------------------"
15, 0, End_track
16, 0, Start_track
16, 0, MIDI_port, 0
16, 0, Title_t, "Original Filename: cs4-4sar.mid"
16, 0, End_track
17, 0, Start_track
17, 0, MIDI_port, 0
17, 0, Title_t, "Last Modified: February 22, 1997"
17, 0, End_track
18, 0, Start_track
18, 0, MIDI_port, 0
18, 0, End_track
0, 0, End_of_file
