0, 0, Header, 1, 18, 480
1, 0, Start_track
1, 0, Title_t, "untitled"
1, 0, SMPTE_offset, 0, 0, 3, 18, 0
1, 0, Time_signature, 3, 2, 24, 8
1, 0, Key_signature, -3, "major"
1, 0, Tempo, 240000
1, 1200, Tempo, 461538
1, 1440, Marker_t, "A"
1, 38880, Marker_t, "A'"
1, 76320, Marker_t, "B"
1, 87600, Marker_t, "*"
1, 131040, Marker_t, "B'"
1, 131040, End_track
2, 0, Start_track
2, 0, MIDI_port, 0
2, 0, Title_t, "Solo Cello"
2, 0, Program_c, 0, 42
2, 0, Control_c, 0, 7, 100
2, 0, Control_c, 0, 10, 64
2, 1200, Note_on_c, 0, 51, 100
2, 1440, Note_on_c, 0, 51, 0
2, 1440, Note_on_c, 0, 51, 100
2, 1680, Note_on_c, 0, 51, 0
2, 1680, Note_on_c, 0, 46, 100
2, 1920, Note_on_c, 0, 46, 0
2, 1920, Note_on_c, 0, 48, 100
2, 2160, Note_on_c, 0, 48, 0
2, 2160, Note_on_c, 0, 44, 100
2, 2400, Note_on_c, 0, 44, 0
2, 2400, Note_on_c, 0, 41, 100
2, 2640, Note_on_c, 0, 41, 0
2, 2640, Note_on_c, 0, 50, 100
2, 2880, Note_on_c, 0, 50, 0
2, 2880, Note_on_c, 0, 51, 100
2, 3360, Note_on_c, 0, 51, 0
2, 3360, Note_on_c, 0, 39, 100
2, 3480, Note_on_c, 0, 39, 0
2, 3480, Note_on_c, 0, 50, 100
2, 3600, Note_on_c, 0, 50, 0
2, 3600, Note_on_c, 0, 51, 100
2, 3720, Note_on_c, 0, 51, 0
2, 3720, Note_on_c, 0, 53, 100
2, 3840, Note_on_c, 0, 53, 0
2, 3840, Note_on_c, 0, 55, 100
2, 3960, Note_on_c, 0, 55, 0
2, 3960, Note_on_c, 0, 53, 100
2, 4080, Note_on_c, 0, 53, 0
2, 4080, Note_on_c, 0, 55, 100
2, 4200, Note_on_c, 0, 55, 0
2, 4200, Note_on_c, 0, 57, 100
2, 4320, Note_on_c, 0, 57, 0
2, 4320, Note_on_c, 0, 58, 100
2, 4560, Note_on_c, 0, 58, 0
2, 4560, Note_on_c, 0, 53, 100
2, 4800, Note_on_c, 0, 53, 0
2, 4800, Note_on_c, 0, 55, 100
2, 5040, Note_on_c, 0, 55, 0
2, 5040, Note_on_c, 0, 51, 100
2, 5280, Note_on_c, 0, 51, 0
2, 5280, Note_on_c, 0, 48, 100
2, 5520, Note_on_c, 0, 48, 0
2, 5520, Note_on_c, 0, 57, 100
2, 5760, Note_on_c, 0, 57, 0
2, 5760, Note_on_c, 0, 58, 100
2, 6240, Note_on_c, 0, 58, 0
2, 6240, Note_on_c, 0, 46, 100
2, 6480, Note_on_c, 0, 46, 0
2, 6480, Pitch_bend_c, 0, 16383
2, 6480, Note_on_c, 0, 44, 100
2, 6540, Pitch_bend_c, 0, 8192
2, 6600, Pitch_bend_c, 0, 16383
2, 6660, Pitch_bend_c, 0, 8192
2, 6720, Note_on_c, 0, 44, 0
2, 6720, Note_on_c, 0, 43, 100
2, 6960, Note_on_c, 0, 43, 0
2, 6960, Note_on_c, 0, 51, 100
2, 7200, Note_on_c, 0, 51, 0
2, 7200, Note_on_c, 0, 44, 100
2, 7360, Note_on_c, 0, 44, 0
2, 7360, Note_on_c, 0, 46, 100
2, 7520, Note_on_c, 0, 46, 0
2, 7520, Note_on_c, 0, 48, 100
2, 7680, Note_on_c, 0, 48, 0
2, 7680, Note_on_c, 0, 48, 100
2, 7840, Note_on_c, 0, 48, 0
2, 7840, Note_on_c, 0, 50, 100
2, 8000, Note_on_c, 0, 50, 0
2, 8000, Note_on_c, 0, 51, 100
2, 8160, Note_on_c, 0, 51, 0
2, 8160, Note_on_c, 0, 53, 100
2, 8320, Note_on_c, 0, 53, 0
2, 8320, Note_on_c, 0, 55, 100
2, 8480, Note_on_c, 0, 55, 0
2, 8480, Note_on_c, 0, 56, 100
2, 8640, Note_on_c, 0, 56, 0
2, 8640, Note_on_c, 0, 43, 100
2, 8800, Note_on_c, 0, 43, 0
2, 8800, Note_on_c, 0, 44, 100
2, 8960, Note_on_c, 0, 44, 0
2, 8960, Note_on_c, 0, 46, 100
2, 9120, Note_on_c, 0, 46, 0
2, 9120, Note_on_c, 0, 46, 100
2, 9280, Note_on_c, 0, 46, 0
2, 9280, Note_on_c, 0, 48, 100
2, 9440, Note_on_c, 0, 48, 0
2, 9440, Note_on_c, 0, 50, 100
2, 9600, Note_on_c, 0, 50, 0
2, 9600, Note_on_c, 0, 51, 100
2, 9760, Note_on_c, 0, 51, 0
2, 9760, Note_on_c, 0, 53, 100
2, 9920, Note_on_c, 0, 53, 0
2, 9920, Note_on_c, 0, 55, 100
2, 10080, Note_on_c, 0, 55, 0
2, 10080, Note_on_c, 0, 53, 100
2, 10240, Note_on_c, 0, 53, 0
2, 10240, Note_on_c, 0, 55, 100
2, 10400, Note_on_c, 0, 55, 0
2, 10400, Note_on_c, 0, 56, 100
2, 10560, Note_on_c, 0, 56, 0
2, 10560, Note_on_c, 0, 55, 100
2, 10720, Note_on_c, 0, 55, 0
2, 10720, Note_on_c, 0, 53, 100
2, 10880, Note_on_c, 0, 53, 0
2, 10880, Note_on_c, 0, 51, 100
2, 11040, Note_on_c, 0, 51, 0
2, 11040, Note_on_c, 0, 46, 100
2, 11200, Note_on_c, 0, 46, 0
2, 11200, Note_on_c, 0, 51, 100
2, 11360, Note_on_c, 0, 51, 0
2, 11360, Note_on_c, 0, 50, 100
2, 11520, Note_on_c, 0, 50, 0
2, 11520, Note_on_c, 0, 51, 100
2, 12000, Note_on_c, 0, 51, 0
2, 12000, Note_on_c, 0, 39, 100
2, 12120, Note_on_c, 0, 39, 0
2, 12120, Note_on_c, 0, 46, 100
2, 12240, Note_on_c, 0, 46, 0
2, 12240, Note_on_c, 0, 48, 100
2, 12360, Note_on_c, 0, 48, 0
2, 12360, Note_on_c, 0, 50, 100
2, 12480, Note_on_c, 0, 50, 0
2, 12480, Note_on_c, 0, 51, 100
2, 12600, Note_on_c, 0, 51, 0
2, 12600, Note_on_c, 0, 50, 100
2, 12720, Note_on_c, 0, 50, 0
2, 12720, Note_on_c, 0, 51, 100
2, 12840, Note_on_c, 0, 51, 0
2, 12840, Note_on_c, 0, 53, 100
2, 12960, Note_on_c, 0, 53, 0
2, 12960, Note_on_c, 0, 55, 100
2, 13200, Note_on_c, 0, 55, 0
2, 13200, Note_on_c, 0, 51, 100
2, 13440, Note_on_c, 0, 51, 0
2, 13440, Note_on_c, 0, 55, 100
2, 13680, Note_on_c, 0, 55, 0
2, 13680, Note_on_c, 0, 50, 100
2, 13920, Note_on_c, 0, 50, 0
2, 13920, Note_on_c, 0, 48, 100
2, 14160, Note_on_c, 0, 48, 0
2, 14160, Note_on_c, 0, 58, 100
2, 14400, Note_on_c, 0, 58, 0
2, 14400, Note_on_c, 0, 57, 100
2, 14880, Note_on_c, 0, 57, 0
2, 14880, Note_on_c, 0, 39, 100
2, 15000, Note_on_c, 0, 39, 0
2, 15000, Note_on_c, 0, 48, 100
2, 15120, Note_on_c, 0, 48, 0
2, 15120, Note_on_c, 0, 50, 100
2, 15240, Note_on_c, 0, 50, 0
2, 15240, Note_on_c, 0, 51, 100
2, 15360, Note_on_c, 0, 51, 0
2, 15360, Note_on_c, 0, 53, 100
2, 15480, Note_on_c, 0, 53, 0
2, 15480, Note_on_c, 0, 51, 100
2, 15600, Note_on_c, 0, 51, 0
2, 15600, Note_on_c, 0, 53, 100
2, 15720, Note_on_c, 0, 53, 0
2, 15720, Note_on_c, 0, 55, 100
2, 15840, Note_on_c, 0, 55, 0
2, 15840, Note_on_c, 0, 57, 100
2, 16080, Note_on_c, 0, 57, 0
2, 16080, Note_on_c, 0, 53, 100
2, 16320, Note_on_c, 0, 53, 0
2, 16320, Note_on_c, 0, 57, 100
2, 16560, Note_on_c, 0, 57, 0
2, 16560, Note_on_c, 0, 51, 100
2, 16800, Note_on_c, 0, 51, 0
2, 16800, Note_on_c, 0, 50, 100
2, 17040, Note_on_c, 0, 50, 0
2, 17040, Note_on_c, 0, 60, 100
2, 17280, Note_on_c, 0, 60, 0
2, 17280, Note_on_c, 0, 58, 100
2, 17760, Note_on_c, 0, 58, 0
2, 17760, Note_on_c, 0, 38, 100
2, 17880, Note_on_c, 0, 38, 0
2, 17880, Note_on_c, 0, 50, 100
2, 18000, Note_on_c, 0, 50, 0
2, 18000, Note_on_c, 0, 51, 100
2, 18120, Note_on_c, 0, 51, 0
2, 18120, Note_on_c, 0, 53, 100
2, 18240, Note_on_c, 0, 53, 0
2, 18240, Note_on_c, 0, 55, 100
2, 18360, Note_on_c, 0, 55, 0
2, 18360, Note_on_c, 0, 53, 100
2, 18480, Note_on_c, 0, 53, 0
2, 18480, Note_on_c, 0, 55, 100
2, 18600, Note_on_c, 0, 55, 0
2, 18600, Note_on_c, 0, 57, 100
2, 18720, Note_on_c, 0, 57, 0
2, 18720, Note_on_c, 0, 58, 100
2, 18960, Note_on_c, 0, 58, 0
2, 18960, Note_on_c, 0, 55, 100
2, 19200, Note_on_c, 0, 55, 0
2, 19200, Note_on_c, 0, 58, 100
2, 19440, Note_on_c, 0, 58, 0
2, 19440, Note_on_c, 0, 53, 100
2, 19680, Note_on_c, 0, 53, 0
2, 19680, Note_on_c, 0, 51, 100
2, 19920, Note_on_c, 0, 51, 0
2, 19920, Note_on_c, 0, 62, 100
2, 20160, Note_on_c, 0, 62, 0
2, 20160, Note_on_c, 0, 60, 100
2, 20400, Note_on_c, 0, 60, 0
2, 20400, Note_on_c, 0, 57, 100
2, 20640, Note_on_c, 0, 57, 0
2, 20640, Note_on_c, 0, 60, 100
2, 20880, Note_on_c, 0, 60, 0
2, 20880, Note_on_c, 0, 55, 100
2, 21120, Note_on_c, 0, 55, 0
2, 21120, Note_on_c, 0, 53, 100
2, 21360, Note_on_c, 0, 53, 0
2, 21360, Note_on_c, 0, 63, 100
2, 21600, Note_on_c, 0, 63, 0
2, 21600, Note_on_c, 0, 62, 100
2, 21840, Note_on_c, 0, 62, 0
2, 21840, Note_on_c, 0, 58, 100
2, 22080, Note_on_c, 0, 58, 0
2, 22080, Note_on_c, 0, 62, 100
2, 22320, Note_on_c, 0, 62, 0
2, 22320, Note_on_c, 0, 57, 100
2, 22560, Note_on_c, 0, 57, 0
2, 22560, Note_on_c, 0, 55, 100
2, 22800, Note_on_c, 0, 55, 0
2, 22800, Note_on_c, 0, 65, 100
2, 23040, Note_on_c, 0, 65, 0
2, 23040, Note_on_c, 0, 63, 100
2, 23280, Note_on_c, 0, 63, 0
2, 23280, Note_on_c, 0, 60, 100
2, 23520, Note_on_c, 0, 60, 0
2, 23520, Note_on_c, 0, 63, 100
2, 23760, Note_on_c, 0, 63, 0
2, 23760, Note_on_c, 0, 57, 100
2, 24000, Note_on_c, 0, 57, 0
2, 24000, Note_on_c, 0, 53, 100
2, 24240, Note_on_c, 0, 53, 0
2, 24240, Note_on_c, 0, 63, 100
2, 24480, Note_on_c, 0, 63, 0
2, 24480, Note_on_c, 0, 62, 100
2, 24720, Note_on_c, 0, 62, 0
2, 24720, Note_on_c, 0, 58, 100
2, 24960, Note_on_c, 0, 58, 0
2, 24960, Note_on_c, 0, 62, 100
2, 25200, Note_on_c, 0, 62, 0
2, 25200, Note_on_c, 0, 55, 100
2, 25440, Note_on_c, 0, 55, 0
2, 25440, Note_on_c, 0, 51, 100
2, 25680, Note_on_c, 0, 51, 0
2, 25680, Note_on_c, 0, 60, 100
2, 25920, Note_on_c, 0, 60, 0
2, 25920, Note_on_c, 0, 57, 100
2, 26560, Note_on_c, 0, 57, 0
2, 26560, Note_on_c, 0, 53, 100
2, 26720, Note_on_c, 0, 53, 0
2, 26720, Note_on_c, 0, 55, 100
2, 26880, Note_on_c, 0, 55, 0
2, 26880, Note_on_c, 0, 57, 100
2, 27040, Note_on_c, 0, 57, 0
2, 27040, Note_on_c, 0, 58, 100
2, 27200, Note_on_c, 0, 58, 0
2, 27200, Note_on_c, 0, 60, 100
2, 27360, Note_on_c, 0, 60, 0
2, 27360, Note_on_c, 0, 60, 100
2, 28000, Note_on_c, 0, 60, 0
2, 28000, Note_on_c, 0, 57, 100
2, 28160, Note_on_c, 0, 57, 0
2, 28160, Note_on_c, 0, 58, 100
2, 28320, Note_on_c, 0, 58, 0
2, 28320, Note_on_c, 0, 60, 100
2, 28480, Note_on_c, 0, 60, 0
2, 28480, Note_on_c, 0, 62, 100
2, 28640, Note_on_c, 0, 62, 0
2, 28640, Note_on_c, 0, 63, 100
2, 28800, Note_on_c, 0, 63, 0
2, 28800, Note_on_c, 0, 63, 100
2, 29440, Note_on_c, 0, 63, 0
2, 29440, Note_on_c, 0, 60, 100
2, 29600, Note_on_c, 0, 60, 0
2, 29600, Note_on_c, 0, 62, 100
2, 29760, Note_on_c, 0, 62, 0
2, 29760, Note_on_c, 0, 63, 100
2, 29920, Note_on_c, 0, 63, 0
2, 29920, Note_on_c, 0, 65, 100
2, 30080, Note_on_c, 0, 65, 0
2, 30080, Note_on_c, 0, 67, 100
2, 30240, Note_on_c, 0, 67, 0
2, 30240, Note_on_c, 0, 67, 100
2, 30720, Note_on_c, 0, 67, 0
2, 30720, Note_on_c, 0, 65, 100
2, 30960, Note_on_c, 0, 65, 0
2, 30960, Note_on_c, 0, 63, 100
2, 31200, Note_on_c, 0, 63, 0
2, 31200, Note_on_c, 0, 62, 100
2, 31440, Note_on_c, 0, 62, 0
2, 31440, Note_on_c, 0, 60, 100
2, 31680, Note_on_c, 0, 60, 0
2, 31680, Note_on_c, 0, 62, 100
2, 31920, Note_on_c, 0, 62, 0
2, 31920, Note_on_c, 0, 58, 100
2, 32160, Note_on_c, 0, 58, 0
2, 32160, Note_on_c, 0, 51, 100
2, 32400, Note_on_c, 0, 51, 0
2, 32400, Note_on_c, 0, 60, 100
2, 32640, Note_on_c, 0, 60, 0
2, 32640, Note_on_c, 0, 53, 100
2, 32880, Note_on_c, 0, 53, 0
2, 32880, Note_on_c, 0, 57, 100
2, 33120, Note_on_c, 0, 57, 0
2, 33120, Note_on_c, 0, 58, 100
2, 33600, Note_on_c, 0, 58, 0
2, 33600, Note_on_c, 0, 46, 100
2, 33720, Note_on_c, 0, 46, 0
2, 33720, Note_on_c, 0, 58, 100
2, 33840, Note_on_c, 0, 58, 0
2, 33840, Note_on_c, 0, 57, 100
2, 33960, Note_on_c, 0, 57, 0
2, 33960, Note_on_c, 0, 55, 100
2, 34080, Note_on_c, 0, 55, 0
2, 34080, Note_on_c, 0, 53, 100
2, 34200, Note_on_c, 0, 53, 0
2, 34200, Note_on_c, 0, 55, 100
2, 34320, Note_on_c, 0, 55, 0
2, 34320, Note_on_c, 0, 53, 100
2, 34440, Note_on_c, 0, 53, 0
2, 34440, Note_on_c, 0, 51, 100
2, 34560, Note_on_c, 0, 51, 0
2, 34560, Note_on_c, 0, 50, 100
2, 34720, Note_on_c, 0, 50, 0
2, 34720, Note_on_c, 0, 46, 100
2, 34880, Note_on_c, 0, 46, 0
2, 34880, Note_on_c, 0, 48, 100
2, 35040, Note_on_c, 0, 48, 0
2, 35040, Note_on_c, 0, 50, 100
2, 35200, Note_on_c, 0, 50, 0
2, 35200, Note_on_c, 0, 51, 100
2, 35360, Note_on_c, 0, 51, 0
2, 35360, Note_on_c, 0, 53, 100
2, 35520, Note_on_c, 0, 53, 0
2, 35520, Note_on_c, 0, 53, 100
2, 35680, Note_on_c, 0, 53, 0
2, 35680, Note_on_c, 0, 55, 100
2, 35840, Note_on_c, 0, 55, 0
2, 35840, Note_on_c, 0, 57, 100
2, 36000, Note_on_c, 0, 57, 0
2, 36000, Note_on_c, 0, 58, 100
2, 36240, Note_on_c, 0, 58, 0
2, 36240, Note_on_c, 0, 50, 100
2, 36480, Note_on_c, 0, 50, 0
2, 36480, Pitch_bend_c, 0, 16383
2, 36480, Note_on_c, 0, 48, 100
2, 36560, Pitch_bend_c, 0, 8192
2, 36640, Pitch_bend_c, 0, 16383
2, 36720, Pitch_bend_c, 0, 8192
2, 37200, Note_on_c, 0, 48, 0
2, 37200, Note_on_c, 0, 46, 100
2, 37440, Note_on_c, 0, 46, 0
2, 37440, Note_on_c, 0, 46, 100
2, 38400, Note_on_c, 0, 46, 0
2, 38640, Note_on_c, 0, 51, 100
2, 38880, Note_on_c, 0, 51, 0
2, 38880, Note_on_c, 0, 51, 100
2, 39120, Note_on_c, 0, 51, 0
2, 39120, Note_on_c, 0, 46, 100
2, 39360, Note_on_c, 0, 46, 0
2, 39360, Note_on_c, 0, 48, 100
2, 39600, Note_on_c, 0, 48, 0
2, 39600, Note_on_c, 0, 44, 100
2, 39840, Note_on_c, 0, 44, 0
2, 39840, Note_on_c, 0, 41, 100
2, 40080, Note_on_c, 0, 41, 0
2, 40080, Note_on_c, 0, 50, 100
2, 40320, Note_on_c, 0, 50, 0
2, 40320, Note_on_c, 0, 51, 100
2, 40800, Note_on_c, 0, 51, 0
2, 40800, Note_on_c, 0, 39, 100
2, 40920, Note_on_c, 0, 39, 0
2, 40920, Note_on_c, 0, 50, 100
2, 41040, Note_on_c, 0, 50, 0
2, 41040, Note_on_c, 0, 51, 100
2, 41160, Note_on_c, 0, 51, 0
2, 41160, Note_on_c, 0, 53, 100
2, 41280, Note_on_c, 0, 53, 0
2, 41280, Note_on_c, 0, 55, 100
2, 41400, Note_on_c, 0, 55, 0
2, 41400, Note_on_c, 0, 53, 100
2, 41520, Note_on_c, 0, 53, 0
2, 41520, Note_on_c, 0, 55, 100
2, 41640, Note_on_c, 0, 55, 0
2, 41640, Note_on_c, 0, 57, 100
2, 41760, Note_on_c, 0, 57, 0
2, 41760, Note_on_c, 0, 58, 100
2, 42000, Note_on_c, 0, 58, 0
2, 42000, Note_on_c, 0, 53, 100
2, 42240, Note_on_c, 0, 53, 0
2, 42240, Note_on_c, 0, 55, 100
2, 42480, Note_on_c, 0, 55, 0
2, 42480, Note_on_c, 0, 51, 100
2, 42720, Note_on_c, 0, 51, 0
2, 42720, Note_on_c, 0, 48, 100
2, 42960, Note_on_c, 0, 48, 0
2, 42960, Note_on_c, 0, 57, 100
2, 43200, Note_on_c, 0, 57, 0
2, 43200, Note_on_c, 0, 58, 100
2, 43680, Note_on_c, 0, 58, 0
2, 43680, Note_on_c, 0, 46, 100
2, 43920, Note_on_c, 0, 46, 0
2, 43920, Pitch_bend_c, 0, 16383
2, 43920, Note_on_c, 0, 44, 100
2, 43980, Pitch_bend_c, 0, 8192
2, 44040, Pitch_bend_c, 0, 16383
2, 44100, Pitch_bend_c, 0, 8192
2, 44160, Note_on_c, 0, 44, 0
2, 44160, Note_on_c, 0, 43, 100
2, 44400, Note_on_c, 0, 43, 0
2, 44400, Note_on_c, 0, 51, 100
2, 44640, Note_on_c, 0, 51, 0
2, 44640, Note_on_c, 0, 44, 100
2, 44800, Note_on_c, 0, 44, 0
2, 44800, Note_on_c, 0, 46, 100
2, 44960, Note_on_c, 0, 46, 0
2, 44960, Note_on_c, 0, 48, 100
2, 45120, Note_on_c, 0, 48, 0
2, 45120, Note_on_c, 0, 48, 100
2, 45280, Note_on_c, 0, 48, 0
2, 45280, Note_on_c, 0, 50, 100
2, 45440, Note_on_c, 0, 50, 0
2, 45440, Note_on_c, 0, 51, 100
2, 45600, Note_on_c, 0, 51, 0
2, 45600, Note_on_c, 0, 53, 100
2, 45760, Note_on_c, 0, 53, 0
2, 45760, Note_on_c, 0, 55, 100
2, 45920, Note_on_c, 0, 55, 0
2, 45920, Note_on_c, 0, 56, 100
2, 46080, Note_on_c, 0, 56, 0
2, 46080, Note_on_c, 0, 43, 100
2, 46240, Note_on_c, 0, 43, 0
2, 46240, Note_on_c, 0, 44, 100
2, 46400, Note_on_c, 0, 44, 0
2, 46400, Note_on_c, 0, 46, 100
2, 46560, Note_on_c, 0, 46, 0
2, 46560, Note_on_c, 0, 46, 100
2, 46720, Note_on_c, 0, 46, 0
2, 46720, Note_on_c, 0, 48, 100
2, 46880, Note_on_c, 0, 48, 0
2, 46880, Note_on_c, 0, 50, 100
2, 47040, Note_on_c, 0, 50, 0
2, 47040, Note_on_c, 0, 51, 100
2, 47200, Note_on_c, 0, 51, 0
2, 47200, Note_on_c, 0, 53, 100
2, 47360, Note_on_c, 0, 53, 0
2, 47360, Note_on_c, 0, 55, 100
2, 47520, Note_on_c, 0, 55, 0
2, 47520, Note_on_c, 0, 53, 100
2, 47680, Note_on_c, 0, 53, 0
2, 47680, Note_on_c, 0, 55, 100
2, 47840, Note_on_c, 0, 55, 0
2, 47840, Note_on_c, 0, 56, 100
2, 48000, Note_on_c, 0, 56, 0
2, 48000, Note_on_c, 0, 55, 100
2, 48160, Note_on_c, 0, 55, 0
2, 48160, Note_on_c, 0, 53, 100
2, 48320, Note_on_c, 0, 53, 0
2, 48320, Note_on_c, 0, 51, 100
2, 48480, Note_on_c, 0, 51, 0
2, 48480, Note_on_c, 0, 46, 100
2, 48640, Note_on_c, 0, 46, 0
2, 48640, Note_on_c, 0, 51, 100
2, 48800, Note_on_c, 0, 51, 0
2, 48800, Note_on_c, 0, 50, 100
2, 48960, Note_on_c, 0, 50, 0
2, 48960, Note_on_c, 0, 51, 100
2, 49440, Note_on_c, 0, 51, 0
2, 49440, Note_on_c, 0, 39, 100
2, 49560, Note_on_c, 0, 39, 0
2, 49560, Note_on_c, 0, 46, 100
2, 49680, Note_on_c, 0, 46, 0
2, 49680, Note_on_c, 0, 48, 100
2, 49800, Note_on_c, 0, 48, 0
2, 49800, Note_on_c, 0, 50, 100
2, 49920, Note_on_c, 0, 50, 0
2, 49920, Note_on_c, 0, 51, 100
2, 50040, Note_on_c, 0, 51, 0
2, 50040, Note_on_c, 0, 50, 100
2, 50160, Note_on_c, 0, 50, 0
2, 50160, Note_on_c, 0, 51, 100
2, 50280, Note_on_c, 0, 51, 0
2, 50280, Note_on_c, 0, 53, 100
2, 50400, Note_on_c, 0, 53, 0
2, 50400, Note_on_c, 0, 55, 100
2, 50640, Note_on_c, 0, 55, 0
2, 50640, Note_on_c, 0, 51, 100
2, 50880, Note_on_c, 0, 51, 0
2, 50880, Note_on_c, 0, 55, 100
2, 51120, Note_on_c, 0, 55, 0
2, 51120, Note_on_c, 0, 50, 100
2, 51360, Note_on_c, 0, 50, 0
2, 51360, Note_on_c, 0, 48, 100
2, 51600, Note_on_c, 0, 48, 0
2, 51600, Note_on_c, 0, 58, 100
2, 51840, Note_on_c, 0, 58, 0
2, 51840, Note_on_c, 0, 57, 100
2, 52320, Note_on_c, 0, 57, 0
2, 52320, Note_on_c, 0, 39, 100
2, 52440, Note_on_c, 0, 39, 0
2, 52440, Note_on_c, 0, 48, 100
2, 52560, Note_on_c, 0, 48, 0
2, 52560, Note_on_c, 0, 50, 100
2, 52680, Note_on_c, 0, 50, 0
2, 52680, Note_on_c, 0, 51, 100
2, 52800, Note_on_c, 0, 51, 0
2, 52800, Note_on_c, 0, 53, 100
2, 52920, Note_on_c, 0, 53, 0
2, 52920, Note_on_c, 0, 51, 100
2, 53040, Note_on_c, 0, 51, 0
2, 53040, Note_on_c, 0, 53, 100
2, 53160, Note_on_c, 0, 53, 0
2, 53160, Note_on_c, 0, 55, 100
2, 53280, Note_on_c, 0, 55, 0
2, 53280, Note_on_c, 0, 57, 100
2, 53520, Note_on_c, 0, 57, 0
2, 53520, Note_on_c, 0, 53, 100
2, 53760, Note_on_c, 0, 53, 0
2, 53760, Note_on_c, 0, 57, 100
2, 54000, Note_on_c, 0, 57, 0
2, 54000, Note_on_c, 0, 51, 100
2, 54240, Note_on_c, 0, 51, 0
2, 54240, Note_on_c, 0, 50, 100
2, 54480, Note_on_c, 0, 50, 0
2, 54480, Note_on_c, 0, 60, 100
2, 54720, Note_on_c, 0, 60, 0
2, 54720, Note_on_c, 0, 58, 100
2, 55200, Note_on_c, 0, 58, 0
2, 55200, Note_on_c, 0, 38, 100
2, 55320, Note_on_c, 0, 38, 0
2, 55320, Note_on_c, 0, 50, 100
2, 55440, Note_on_c, 0, 50, 0
2, 55440, Note_on_c, 0, 51, 100
2, 55560, Note_on_c, 0, 51, 0
2, 55560, Note_on_c, 0, 53, 100
2, 55680, Note_on_c, 0, 53, 0
2, 55680, Note_on_c, 0, 55, 100
2, 55800, Note_on_c, 0, 55, 0
2, 55800, Note_on_c, 0, 53, 100
2, 55920, Note_on_c, 0, 53, 0
2, 55920, Note_on_c, 0, 55, 100
2, 56040, Note_on_c, 0, 55, 0
2, 56040, Note_on_c, 0, 57, 100
2, 56160, Note_on_c, 0, 57, 0
2, 56160, Note_on_c, 0, 58, 100
2, 56400, Note_on_c, 0, 58, 0
2, 56400, Note_on_c, 0, 55, 100
2, 56640, Note_on_c, 0, 55, 0
2, 56640, Note_on_c, 0, 58, 100
2, 56880, Note_on_c, 0, 58, 0
2, 56880, Note_on_c, 0, 53, 100
2, 57120, Note_on_c, 0, 53, 0
2, 57120, Note_on_c, 0, 51, 100
2, 57360, Note_on_c, 0, 51, 0
2, 57360, Note_on_c, 0, 62, 100
2, 57600, Note_on_c, 0, 62, 0
2, 57600, Note_on_c, 0, 60, 100
2, 57840, Note_on_c, 0, 60, 0
2, 57840, Note_on_c, 0, 57, 100
2, 58080, Note_on_c, 0, 57, 0
2, 58080, Note_on_c, 0, 60, 100
2, 58320, Note_on_c, 0, 60, 0
2, 58320, Note_on_c, 0, 55, 100
2, 58560, Note_on_c, 0, 55, 0
2, 58560, Note_on_c, 0, 53, 100
2, 58800, Note_on_c, 0, 53, 0
2, 58800, Note_on_c, 0, 63, 100
2, 59040, Note_on_c, 0, 63, 0
2, 59040, Note_on_c, 0, 62, 100
2, 59280, Note_on_c, 0, 62, 0
2, 59280, Note_on_c, 0, 58, 100
2, 59520, Note_on_c, 0, 58, 0
2, 59520, Note_on_c, 0, 62, 100
2, 59760, Note_on_c, 0, 62, 0
2, 59760, Note_on_c, 0, 57, 100
2, 60000, Note_on_c, 0, 57, 0
2, 60000, Note_on_c, 0, 55, 100
2, 60240, Note_on_c, 0, 55, 0
2, 60240, Note_on_c, 0, 65, 100
2, 60480, Note_on_c, 0, 65, 0
2, 60480, Note_on_c, 0, 63, 100
2, 60720, Note_on_c, 0, 63, 0
2, 60720, Note_on_c, 0, 60, 100
2, 60960, Note_on_c, 0, 60, 0
2, 60960, Note_on_c, 0, 63, 100
2, 61200, Note_on_c, 0, 63, 0
2, 61200, Note_on_c, 0, 57, 100
2, 61440, Note_on_c, 0, 57, 0
2, 61440, Note_on_c, 0, 53, 100
2, 61680, Note_on_c, 0, 53, 0
2, 61680, Note_on_c, 0, 63, 100
2, 61920, Note_on_c, 0, 63, 0
2, 61920, Note_on_c, 0, 62, 100
2, 62160, Note_on_c, 0, 62, 0
2, 62160, Note_on_c, 0, 58, 100
2, 62400, Note_on_c, 0, 58, 0
2, 62400, Note_on_c, 0, 62, 100
2, 62640, Note_on_c, 0, 62, 0
2, 62640, Note_on_c, 0, 55, 100
2, 62880, Note_on_c, 0, 55, 0
2, 62880, Note_on_c, 0, 51, 100
2, 63120, Note_on_c, 0, 51, 0
2, 63120, Note_on_c, 0, 60, 100
2, 63360, Note_on_c, 0, 60, 0
2, 63360, Note_on_c, 0, 57, 100
2, 64000, Note_on_c, 0, 57, 0
2, 64000, Note_on_c, 0, 53, 100
2, 64160, Note_on_c, 0, 53, 0
2, 64160, Note_on_c, 0, 55, 100
2, 64320, Note_on_c, 0, 55, 0
2, 64320, Note_on_c, 0, 57, 100
2, 64480, Note_on_c, 0, 57, 0
2, 64480, Note_on_c, 0, 58, 100
2, 64640, Note_on_c, 0, 58, 0
2, 64640, Note_on_c, 0, 60, 100
2, 64800, Note_on_c, 0, 60, 0
2, 64800, Note_on_c, 0, 60, 100
2, 65440, Note_on_c, 0, 60, 0
2, 65440, Note_on_c, 0, 57, 100
2, 65600, Note_on_c, 0, 57, 0
2, 65600, Note_on_c, 0, 58, 100
2, 65760, Note_on_c, 0, 58, 0
2, 65760, Note_on_c, 0, 60, 100
2, 65920, Note_on_c, 0, 60, 0
2, 65920, Note_on_c, 0, 62, 100
2, 66080, Note_on_c, 0, 62, 0
2, 66080, Note_on_c, 0, 63, 100
2, 66240, Note_on_c, 0, 63, 0
2, 66240, Note_on_c, 0, 63, 100
2, 66880, Note_on_c, 0, 63, 0
2, 66880, Note_on_c, 0, 60, 100
2, 67040, Note_on_c, 0, 60, 0
2, 67040, Note_on_c, 0, 62, 100
2, 67200, Note_on_c, 0, 62, 0
2, 67200, Note_on_c, 0, 63, 100
2, 67360, Note_on_c, 0, 63, 0
2, 67360, Note_on_c, 0, 65, 100
2, 67520, Note_on_c, 0, 65, 0
2, 67520, Note_on_c, 0, 67, 100
2, 67680, Note_on_c, 0, 67, 0
2, 67680, Note_on_c, 0, 67, 100
2, 68160, Note_on_c, 0, 67, 0
2, 68160, Note_on_c, 0, 65, 100
2, 68400, Note_on_c, 0, 65, 0
2, 68400, Note_on_c, 0, 63, 100
2, 68640, Note_on_c, 0, 63, 0
2, 68640, Note_on_c, 0, 62, 100
2, 68880, Note_on_c, 0, 62, 0
2, 68880, Note_on_c, 0, 60, 100
2, 69120, Note_on_c, 0, 60, 0
2, 69120, Note_on_c, 0, 62, 100
2, 69360, Note_on_c, 0, 62, 0
2, 69360, Note_on_c, 0, 58, 100
2, 69600, Note_on_c, 0, 58, 0
2, 69600, Note_on_c, 0, 51, 100
2, 69840, Note_on_c, 0, 51, 0
2, 69840, Note_on_c, 0, 60, 100
2, 70080, Note_on_c, 0, 60, 0
2, 70080, Note_on_c, 0, 53, 100
2, 70320, Note_on_c, 0, 53, 0
2, 70320, Note_on_c, 0, 57, 100
2, 70560, Note_on_c, 0, 57, 0
2, 70560, Note_on_c, 0, 58, 100
2, 71040, Note_on_c, 0, 58, 0
2, 71040, Note_on_c, 0, 46, 100
2, 71160, Note_on_c, 0, 46, 0
2, 71160, Note_on_c, 0, 58, 100
2, 71280, Note_on_c, 0, 58, 0
2, 71280, Note_on_c, 0, 57, 100
2, 71400, Note_on_c, 0, 57, 0
2, 71400, Note_on_c, 0, 55, 100
2, 71520, Note_on_c, 0, 55, 0
2, 71520, Note_on_c, 0, 53, 100
2, 71640, Note_on_c, 0, 53, 0
2, 71640, Note_on_c, 0, 55, 100
2, 71760, Note_on_c, 0, 55, 0
2, 71760, Note_on_c, 0, 53, 100
2, 71880, Note_on_c, 0, 53, 0
2, 71880, Note_on_c, 0, 51, 100
2, 72000, Note_on_c, 0, 51, 0
2, 72000, Note_on_c, 0, 50, 100
2, 72160, Note_on_c, 0, 50, 0
2, 72160, Note_on_c, 0, 46, 100
2, 72320, Note_on_c, 0, 46, 0
2, 72320, Note_on_c, 0, 48, 100
2, 72480, Note_on_c, 0, 48, 0
2, 72480, Note_on_c, 0, 50, 100
2, 72640, Note_on_c, 0, 50, 0
2, 72640, Note_on_c, 0, 51, 100
2, 72800, Note_on_c, 0, 51, 0
2, 72800, Note_on_c, 0, 53, 100
2, 72960, Note_on_c, 0, 53, 0
2, 72960, Note_on_c, 0, 53, 100
2, 73120, Note_on_c, 0, 53, 0
2, 73120, Note_on_c, 0, 55, 100
2, 73280, Note_on_c, 0, 55, 0
2, 73280, Note_on_c, 0, 57, 100
2, 73440, Note_on_c, 0, 57, 0
2, 73440, Note_on_c, 0, 58, 100
2, 73680, Note_on_c, 0, 58, 0
2, 73680, Note_on_c, 0, 50, 100
2, 73920, Note_on_c, 0, 50, 0
2, 73920, Pitch_bend_c, 0, 16383
2, 73920, Note_on_c, 0, 48, 100
2, 74000, Pitch_bend_c, 0, 8192
2, 74080, Pitch_bend_c, 0, 16383
2, 74160, Pitch_bend_c, 0, 8192
2, 74640, Note_on_c, 0, 48, 0
2, 74640, Note_on_c, 0, 46, 100
2, 74880, Note_on_c, 0, 46, 0
2, 74880, Note_on_c, 0, 46, 100
2, 75840, Note_on_c, 0, 46, 0
2, 76080, Note_on_c, 0, 53, 100
2, 76320, Note_on_c, 0, 53, 0
2, 76320, Note_on_c, 0, 53, 100
2, 76560, Note_on_c, 0, 53, 0
2, 76560, Note_on_c, 0, 50, 100
2, 76800, Note_on_c, 0, 50, 0
2, 76800, Note_on_c, 0, 55, 100
2, 77040, Note_on_c, 0, 55, 0
2, 77040, Note_on_c, 0, 51, 100
2, 77280, Note_on_c, 0, 51, 0
2, 77280, Note_on_c, 0, 45, 100
2, 77520, Note_on_c, 0, 45, 0
2, 77520, Note_on_c, 0, 53, 100
2, 77760, Note_on_c, 0, 53, 0
2, 77760, Pitch_bend_c, 0, 12288
2, 77760, Note_on_c, 0, 50, 100
2, 77840, Pitch_bend_c, 0, 8192
2, 77920, Pitch_bend_c, 0, 12288
2, 78000, Pitch_bend_c, 0, 8192
2, 78240, Note_on_c, 0, 50, 0
2, 78240, Note_on_c, 0, 46, 100
2, 78480, Note_on_c, 0, 46, 0
2, 78480, Note_on_c, 0, 48, 100
2, 78600, Note_on_c, 0, 48, 0
2, 78600, Note_on_c, 0, 50, 100
2, 78720, Note_on_c, 0, 50, 0
2, 78720, Note_on_c, 0, 51, 100
2, 78840, Note_on_c, 0, 51, 0
2, 78840, Note_on_c, 0, 50, 100
2, 78960, Note_on_c, 0, 50, 0
2, 78960, Note_on_c, 0, 51, 100
2, 79080, Note_on_c, 0, 51, 0
2, 79080, Note_on_c, 0, 53, 100
2, 79200, Note_on_c, 0, 53, 0
2, 79200, Note_on_c, 0, 55, 100
2, 79440, Note_on_c, 0, 55, 0
2, 79440, Note_on_c, 0, 51, 100
2, 79680, Note_on_c, 0, 51, 0
2, 79680, Note_on_c, 0, 56, 100
2, 79920, Note_on_c, 0, 56, 0
2, 79920, Note_on_c, 0, 53, 100
2, 80160, Note_on_c, 0, 53, 0
2, 80160, Note_on_c, 0, 47, 100
2, 80400, Note_on_c, 0, 47, 0
2, 80400, Note_on_c, 0, 55, 100
2, 80640, Note_on_c, 0, 55, 0
2, 80640, Pitch_bend_c, 0, 16383
2, 80640, Note_on_c, 0, 51, 100
2, 80720, Pitch_bend_c, 0, 8192
2, 80800, Pitch_bend_c, 0, 16383
2, 80880, Pitch_bend_c, 0, 8192
2, 81120, Note_on_c, 0, 51, 0
2, 81120, Note_on_c, 0, 36, 100
2, 81240, Note_on_c, 0, 36, 0
2, 81240, Note_on_c, 0, 55, 100
2, 81360, Note_on_c, 0, 55, 0
2, 81360, Note_on_c, 0, 57, 100
2, 81480, Note_on_c, 0, 57, 0
2, 81480, Note_on_c, 0, 59, 100
2, 81600, Note_on_c, 0, 59, 0
2, 81600, Note_on_c, 0, 60, 100
2, 81720, Note_on_c, 0, 60, 0
2, 81720, Note_on_c, 0, 59, 100
2, 81840, Note_on_c, 0, 59, 0
2, 81840, Note_on_c, 0, 60, 100
2, 81960, Note_on_c, 0, 60, 0
2, 81960, Note_on_c, 0, 62, 100
2, 82080, Note_on_c, 0, 62, 0
2, 82080, Note_on_c, 0, 63, 100
2, 82320, Note_on_c, 0, 63, 0
2, 82320, Note_on_c, 0, 62, 100
2, 82560, Note_on_c, 0, 62, 0
2, 82560, Note_on_c, 0, 63, 100
2, 82800, Note_on_c, 0, 63, 0
2, 82800, Note_on_c, 0, 60, 100
2, 83040, Note_on_c, 0, 60, 0
2, 83040, Note_on_c, 0, 63, 100
2, 83280, Note_on_c, 0, 63, 0
2, 83280, Note_on_c, 0, 58, 100
2, 83520, Note_on_c, 0, 58, 0
2, 83520, Note_on_c, 0, 63, 100
2, 83760, Note_on_c, 0, 63, 0
2, 83760, Note_on_c, 0, 57, 100
2, 84000, Note_on_c, 0, 57, 0
2, 84000, Note_on_c, 0, 63, 100
2, 84240, Note_on_c, 0, 63, 0
2, 84240, Note_on_c, 0, 55, 100
2, 84480, Note_on_c, 0, 55, 0
2, 84480, Note_on_c, 0, 53, 100
2, 84720, Note_on_c, 0, 53, 0
2, 84720, Note_on_c, 0, 63, 100
2, 84960, Note_on_c, 0, 63, 0
2, 84960, Note_on_c, 0, 62, 100
2, 85200, Note_on_c, 0, 62, 0
2, 85200, Note_on_c, 0, 60, 100
2, 85440, Note_on_c, 0, 60, 0
2, 85440, Note_on_c, 0, 62, 100
2, 85680, Note_on_c, 0, 62, 0
2, 85680, Note_on_c, 0, 58, 100
2, 85920, Note_on_c, 0, 58, 0
2, 85920, Note_on_c, 0, 62, 100
2, 86160, Note_on_c, 0, 62, 0
2, 86160, Note_on_c, 0, 57, 100
2, 86400, Note_on_c, 0, 57, 0
2, 86400, Note_on_c, 0, 62, 100
2, 86640, Note_on_c, 0, 62, 0
2, 86640, Note_on_c, 0, 55, 100
2, 86880, Note_on_c, 0, 55, 0
2, 86880, Note_on_c, 0, 62, 100
2, 87120, Note_on_c, 0, 62, 0
2, 87120, Note_on_c, 0, 53, 100
2, 87360, Note_on_c, 0, 53, 0
2, 87360, Note_on_c, 0, 51, 100
2, 87600, Note_on_c, 0, 51, 0
2, 87600, Note_on_c, 0, 62, 100
2, 87840, Note_on_c, 0, 62, 0
2, 87840, Note_on_c, 0, 60, 100
2, 88080, Note_on_c, 0, 60, 0
2, 88080, Note_on_c, 0, 58, 100
2, 88320, Note_on_c, 0, 58, 0
2, 88320, Note_on_c, 0, 60, 100
2, 88560, Note_on_c, 0, 60, 0
2, 88560, Note_on_c, 0, 56, 100
2, 88800, Note_on_c, 0, 56, 0
2, 88800, Note_on_c, 0, 60, 100
2, 89040, Note_on_c, 0, 60, 0
2, 89040, Note_on_c, 0, 55, 100
2, 89280, Note_on_c, 0, 55, 0
2, 89280, Note_on_c, 0, 60, 100
2, 89520, Note_on_c, 0, 60, 0
2, 89520, Note_on_c, 0, 53, 100
2, 89760, Note_on_c, 0, 53, 0
2, 89760, Note_on_c, 0, 60, 100
2, 90000, Note_on_c, 0, 60, 0
2, 90000, Note_on_c, 0, 51, 100
2, 90240, Note_on_c, 0, 51, 0
2, 90240, Note_on_c, 0, 50, 100
2, 90480, Note_on_c, 0, 50, 0
2, 90480, Note_on_c, 0, 53, 100
2, 90720, Note_on_c, 0, 53, 0
2, 90720, Note_on_c, 0, 56, 100
2, 90960, Note_on_c, 0, 56, 0
2, 90960, Note_on_c, 0, 55, 100
2, 91200, Note_on_c, 0, 55, 0
2, 91200, Note_on_c, 0, 56, 100
2, 91440, Note_on_c, 0, 56, 0
2, 91440, Note_on_c, 0, 53, 100
2, 91680, Note_on_c, 0, 53, 0
2, 91680, Note_on_c, 0, 56, 100
2, 91920, Note_on_c, 0, 56, 0
2, 91920, Note_on_c, 0, 51, 100
2, 92160, Note_on_c, 0, 51, 0
2, 92160, Note_on_c, 0, 56, 100
2, 92400, Note_on_c, 0, 56, 0
2, 92400, Note_on_c, 0, 50, 100
2, 92640, Note_on_c, 0, 50, 0
2, 92640, Note_on_c, 0, 56, 100
2, 92880, Note_on_c, 0, 56, 0
2, 92880, Note_on_c, 0, 48, 100
2, 93120, Note_on_c, 0, 48, 0
2, 93120, Note_on_c, 0, 47, 100
2, 93360, Note_on_c, 0, 47, 0
2, 93360, Note_on_c, 0, 50, 100
2, 93600, Note_on_c, 0, 50, 0
2, 93600, Note_on_c, 0, 53, 100
2, 93840, Note_on_c, 0, 53, 0
2, 93840, Note_on_c, 0, 51, 100
2, 94080, Note_on_c, 0, 51, 0
2, 94080, Note_on_c, 0, 53, 100
2, 94320, Note_on_c, 0, 53, 0
2, 94320, Note_on_c, 0, 50, 100
2, 94560, Note_on_c, 0, 50, 0
2, 94560, Note_on_c, 0, 53, 100
2, 94800, Note_on_c, 0, 53, 0
2, 94800, Note_on_c, 0, 48, 100
2, 95040, Note_on_c, 0, 48, 0
2, 95040, Note_on_c, 0, 53, 100
2, 95280, Note_on_c, 0, 53, 0
2, 95280, Note_on_c, 0, 47, 100
2, 95520, Note_on_c, 0, 47, 0
2, 95520, Note_on_c, 0, 53, 100
2, 95760, Note_on_c, 0, 53, 0
2, 95760, Note_on_c, 0, 45, 100
2, 96000, Note_on_c, 0, 45, 0
2, 96000, Note_on_c, 0, 43, 100
2, 96240, Note_on_c, 0, 43, 0
2, 96240, Note_on_c, 0, 59, 100
2, 96480, Note_on_c, 0, 59, 0
2, 96480, Note_on_c, 0, 60, 100
2, 96720, Note_on_c, 0, 60, 0
2, 96720, Note_on_c, 0, 63, 100
2, 96960, Note_on_c, 0, 63, 0
2, 96960, Note_on_c, 0, 53, 100
2, 97200, Note_on_c, 0, 53, 0
2, 97200, Note_on_c, 0, 62, 100
2, 97440, Note_on_c, 0, 62, 0
2, 97440, Note_on_c, 0, 55, 100
2, 97680, Note_on_c, 0, 55, 0
2, 97680, Note_on_c, 0, 59, 100
2, 97920, Note_on_c, 0, 59, 0
2, 97920, Note_on_c, 0, 60, 100
2, 98400, Note_on_c, 0, 60, 0
2, 98400, Note_on_c, 0, 36, 100
2, 98520, Note_on_c, 0, 36, 0
2, 98520, Note_on_c, 0, 43, 100
2, 98640, Note_on_c, 0, 43, 0
2, 98640, Note_on_c, 0, 45, 100
2, 98760, Note_on_c, 0, 45, 0
2, 98760, Note_on_c, 0, 47, 100
2, 98880, Note_on_c, 0, 47, 0
2, 98880, Note_on_c, 0, 48, 100
2, 99000, Note_on_c, 0, 48, 0
2, 99000, Note_on_c, 0, 47, 100
2, 99120, Note_on_c, 0, 47, 0
2, 99120, Note_on_c, 0, 48, 100
2, 99240, Note_on_c, 0, 48, 0
2, 99240, Note_on_c, 0, 50, 100
2, 99360, Note_on_c, 0, 50, 0
2, 99360, Note_on_c, 0, 52, 100
2, 99480, Note_on_c, 0, 52, 0
2, 99480, Note_on_c, 0, 50, 100
2, 99600, Note_on_c, 0, 50, 0
2, 99600, Note_on_c, 0, 52, 100
2, 99720, Note_on_c, 0, 52, 0
2, 99720, Note_on_c, 0, 53, 100
2, 99840, Note_on_c, 0, 53, 0
2, 99840, Note_on_c, 0, 55, 100
2, 99960, Note_on_c, 0, 55, 0
2, 99960, Note_on_c, 0, 53, 100
2, 100080, Note_on_c, 0, 53, 0
2, 100080, Note_on_c, 0, 55, 100
2, 100200, Note_on_c, 0, 55, 0
2, 100200, Note_on_c, 0, 56, 100
2, 100320, Note_on_c, 0, 56, 0
2, 100320, Note_on_c, 0, 58, 100
2, 100440, Note_on_c, 0, 58, 0
2, 100440, Note_on_c, 0, 56, 100
2, 100560, Note_on_c, 0, 56, 0
2, 100560, Note_on_c, 0, 58, 100
2, 100680, Note_on_c, 0, 58, 0
2, 100680, Note_on_c, 0, 55, 100
2, 100800, Note_on_c, 0, 55, 0
2, 100800, Note_on_c, 0, 56, 100
2, 100960, Note_on_c, 0, 56, 0
2, 100960, Note_on_c, 0, 55, 100
2, 101120, Note_on_c, 0, 55, 0
2, 101120, Note_on_c, 0, 53, 100
2, 101280, Note_on_c, 0, 53, 0
2, 101280, Note_on_c, 0, 53, 100
2, 101440, Note_on_c, 0, 53, 0
2, 101440, Note_on_c, 0, 51, 100
2, 101600, Note_on_c, 0, 51, 0
2, 101600, Note_on_c, 0, 50, 100
2, 101760, Note_on_c, 0, 50, 0
2, 101760, Note_on_c, 0, 50, 100
2, 101920, Note_on_c, 0, 50, 0
2, 101920, Note_on_c, 0, 48, 100
2, 102080, Note_on_c, 0, 48, 0
2, 102080, Note_on_c, 0, 46, 100
2, 102240, Note_on_c, 0, 46, 0
2, 102240, Note_on_c, 0, 46, 100
2, 102360, Note_on_c, 0, 46, 0
2, 102360, Note_on_c, 0, 48, 100
2, 102480, Note_on_c, 0, 48, 0
2, 102480, Note_on_c, 0, 50, 100
2, 102600, Note_on_c, 0, 50, 0
2, 102600, Note_on_c, 0, 51, 100
2, 102720, Note_on_c, 0, 51, 0
2, 102720, Note_on_c, 0, 53, 100
2, 102840, Note_on_c, 0, 53, 0
2, 102840, Note_on_c, 0, 51, 100
2, 102960, Note_on_c, 0, 51, 0
2, 102960, Note_on_c, 0, 53, 100
2, 103080, Note_on_c, 0, 53, 0
2, 103080, Note_on_c, 0, 55, 100
2, 103200, Note_on_c, 0, 55, 0
2, 103200, Note_on_c, 0, 56, 100
2, 103320, Note_on_c, 0, 56, 0
2, 103320, Note_on_c, 0, 55, 100
2, 103440, Note_on_c, 0, 55, 0
2, 103440, Note_on_c, 0, 56, 100
2, 103560, Note_on_c, 0, 56, 0
2, 103560, Note_on_c, 0, 53, 100
2, 103680, Note_on_c, 0, 53, 0
2, 103680, Note_on_c, 0, 55, 100
2, 103840, Note_on_c, 0, 55, 0
2, 103840, Note_on_c, 0, 53, 100
2, 104000, Note_on_c, 0, 53, 0
2, 104000, Note_on_c, 0, 51, 100
2, 104160, Note_on_c, 0, 51, 0
2, 104160, Note_on_c, 0, 51, 100
2, 104320, Note_on_c, 0, 51, 0
2, 104320, Note_on_c, 0, 50, 100
2, 104480, Note_on_c, 0, 50, 0
2, 104480, Note_on_c, 0, 48, 100
2, 104640, Note_on_c, 0, 48, 0
2, 104640, Note_on_c, 0, 48, 100
2, 104800, Note_on_c, 0, 48, 0
2, 104800, Note_on_c, 0, 46, 100
2, 104960, Note_on_c, 0, 46, 0
2, 104960, Note_on_c, 0, 44, 100
2, 105120, Note_on_c, 0, 44, 0
2, 105120, Note_on_c, 0, 44, 100
2, 105360, Note_on_c, 0, 44, 0
2, 105360, Note_on_c, 0, 60, 100
2, 105480, Note_on_c, 0, 60, 0
2, 105480, Note_on_c, 0, 58, 100
2, 105600, Note_on_c, 0, 58, 0
2, 105600, Note_on_c, 0, 56, 100
2, 105720, Note_on_c, 0, 56, 0
2, 105720, Note_on_c, 0, 58, 100
2, 105840, Note_on_c, 0, 58, 0
2, 105840, Note_on_c, 0, 56, 100
2, 105960, Note_on_c, 0, 56, 0
2, 105960, Note_on_c, 0, 55, 100
2, 106080, Note_on_c, 0, 55, 0
2, 106080, Note_on_c, 0, 53, 100
2, 106200, Note_on_c, 0, 53, 0
2, 106200, Note_on_c, 0, 55, 100
2, 106320, Note_on_c, 0, 55, 0
2, 106320, Note_on_c, 0, 53, 100
2, 106440, Note_on_c, 0, 53, 0
2, 106440, Note_on_c, 0, 51, 100
2, 106560, Note_on_c, 0, 51, 0
2, 106560, Note_on_c, 0, 50, 100
2, 106680, Note_on_c, 0, 50, 0
2, 106680, Note_on_c, 0, 51, 100
2, 106800, Note_on_c, 0, 51, 0
2, 106800, Note_on_c, 0, 50, 100
2, 106920, Note_on_c, 0, 50, 0
2, 106920, Note_on_c, 0, 48, 100
2, 107040, Note_on_c, 0, 48, 0
2, 107040, Note_on_c, 0, 46, 100
2, 107160, Note_on_c, 0, 46, 0
2, 107160, Note_on_c, 0, 48, 100
2, 107280, Note_on_c, 0, 48, 0
2, 107280, Note_on_c, 0, 46, 100
2, 107400, Note_on_c, 0, 46, 0
2, 107400, Note_on_c, 0, 44, 100
2, 107520, Note_on_c, 0, 44, 0
2, 107520, Note_on_c, 0, 43, 100
2, 107640, Note_on_c, 0, 43, 0
2, 107640, Note_on_c, 0, 44, 100
2, 107760, Note_on_c, 0, 44, 0
2, 107760, Note_on_c, 0, 43, 100
2, 107880, Note_on_c, 0, 43, 0
2, 107880, Note_on_c, 0, 41, 100
2, 108000, Note_on_c, 0, 41, 0
2, 108000, Note_on_c, 0, 39, 100
2, 108240, Note_on_c, 0, 39, 0
2, 108240, Note_on_c, 0, 63, 100
2, 108480, Note_on_c, 0, 63, 0
2, 108480, Note_on_c, 0, 58, 100
2, 108600, Note_on_c, 0, 58, 0
2, 108600, Note_on_c, 0, 56, 100
2, 108720, Note_on_c, 0, 56, 0
2, 108720, Note_on_c, 0, 55, 100
2, 108840, Note_on_c, 0, 55, 0
2, 108840, Note_on_c, 0, 53, 100
2, 108960, Note_on_c, 0, 53, 0
2, 108960, Note_on_c, 0, 51, 100
2, 109200, Note_on_c, 0, 51, 0
2, 109200, Note_on_c, 0, 46, 100
2, 109440, Note_on_c, 0, 46, 0
2, 109440, Note_on_c, 0, 43, 100
2, 109680, Note_on_c, 0, 43, 0
2, 109680, Note_on_c, 0, 61, 100
2, 109920, Note_on_c, 0, 61, 0
2, 109920, Note_on_c, 0, 58, 100
2, 110040, Note_on_c, 0, 58, 0
2, 110040, Note_on_c, 0, 56, 100
2, 110160, Note_on_c, 0, 56, 0
2, 110160, Note_on_c, 0, 55, 100
2, 110280, Note_on_c, 0, 55, 0
2, 110280, Note_on_c, 0, 53, 100
2, 110400, Note_on_c, 0, 53, 0
2, 110400, Note_on_c, 0, 51, 100
2, 110640, Note_on_c, 0, 51, 0
2, 110640, Note_on_c, 0, 61, 100
2, 110880, Note_on_c, 0, 61, 0
2, 110880, Note_on_c, 0, 44, 100
2, 111120, Note_on_c, 0, 44, 0
2, 111120, Note_on_c, 0, 61, 100
2, 111360, Note_on_c, 0, 61, 0
2, 111360, Note_on_c, 0, 60, 100
2, 111480, Note_on_c, 0, 60, 0
2, 111480, Note_on_c, 0, 58, 100
2, 111600, Note_on_c, 0, 58, 0
2, 111600, Note_on_c, 0, 56, 100
2, 111720, Note_on_c, 0, 56, 0
2, 111720, Note_on_c, 0, 55, 100
2, 111840, Note_on_c, 0, 55, 0
2, 111840, Note_on_c, 0, 53, 100
2, 112080, Note_on_c, 0, 53, 0
2, 112080, Note_on_c, 0, 60, 100
2, 112320, Note_on_c, 0, 60, 0
2, 112320, Note_on_c, 0, 43, 100
2, 112560, Note_on_c, 0, 43, 0
2, 112560, Note_on_c, 0, 60, 100
2, 112800, Note_on_c, 0, 60, 0
2, 112800, Note_on_c, 0, 58, 100
2, 112920, Note_on_c, 0, 58, 0
2, 112920, Note_on_c, 0, 56, 100
2, 113040, Note_on_c, 0, 56, 0
2, 113040, Note_on_c, 0, 55, 100
2, 113160, Note_on_c, 0, 55, 0
2, 113160, Note_on_c, 0, 53, 100
2, 113280, Note_on_c, 0, 53, 0
2, 113280, Note_on_c, 0, 52, 100
2, 113520, Note_on_c, 0, 52, 0
2, 113520, Note_on_c, 0, 58, 100
2, 113760, Note_on_c, 0, 58, 0
2, 113760, Note_on_c, 0, 41, 100
2, 114000, Note_on_c, 0, 41, 0
2, 114000, Note_on_c, 0, 58, 100
2, 114240, Note_on_c, 0, 58, 0
2, 114240, Note_on_c, 0, 56, 100
2, 114360, Note_on_c, 0, 56, 0
2, 114360, Note_on_c, 0, 55, 100
2, 114480, Note_on_c, 0, 55, 0
2, 114480, Note_on_c, 0, 53, 100
2, 114600, Note_on_c, 0, 53, 0
2, 114600, Note_on_c, 0, 51, 100
2, 114720, Note_on_c, 0, 51, 0
2, 114720, Note_on_c, 0, 50, 100
2, 114960, Note_on_c, 0, 50, 0
2, 114960, Note_on_c, 0, 56, 100
2, 115200, Note_on_c, 0, 56, 0
2, 115200, Note_on_c, 0, 39, 100
2, 115440, Note_on_c, 0, 39, 0
2, 115440, Note_on_c, 0, 56, 100
2, 115680, Note_on_c, 0, 56, 0
2, 115680, Note_on_c, 0, 55, 100
2, 115800, Note_on_c, 0, 55, 0
2, 115800, Note_on_c, 0, 53, 100
2, 115920, Note_on_c, 0, 53, 0
2, 115920, Note_on_c, 0, 51, 100
2, 116040, Note_on_c, 0, 51, 0
2, 116040, Note_on_c, 0, 50, 100
2, 116160, Note_on_c, 0, 50, 0
2, 116160, Note_on_c, 0, 51, 100
2, 116400, Note_on_c, 0, 51, 0
2, 116400, Note_on_c, 0, 55, 100
2, 116640, Note_on_c, 0, 55, 0
2, 116640, Note_on_c, 0, 45, 100
2, 116880, Note_on_c, 0, 45, 0
2, 116880, Note_on_c, 0, 48, 100
2, 117120, Note_on_c, 0, 48, 0
2, 117120, Note_on_c, 0, 51, 100
2, 117360, Note_on_c, 0, 51, 0
2, 117360, Note_on_c, 0, 54, 100
2, 117600, Note_on_c, 0, 54, 0
2, 117600, Note_on_c, 0, 57, 100
2, 117840, Note_on_c, 0, 57, 0
2, 117840, Note_on_c, 0, 60, 100
2, 118080, Note_on_c, 0, 60, 0
2, 118080, Pitch_bend_c, 0, 12288
2, 118080, Note_on_c, 0, 50, 100
2, 118120, Pitch_bend_c, 0, 8192
2, 118160, Pitch_bend_c, 0, 12288
2, 118200, Pitch_bend_c, 0, 8192
2, 118720, Note_on_c, 0, 50, 0
2, 118720, Note_on_c, 0, 46, 100
2, 118880, Note_on_c, 0, 46, 0
2, 118880, Note_on_c, 0, 48, 100
2, 119040, Note_on_c, 0, 48, 0
2, 119040, Note_on_c, 0, 50, 100
2, 119200, Note_on_c, 0, 50, 0
2, 119200, Note_on_c, 0, 51, 100
2, 119360, Note_on_c, 0, 51, 0
2, 119360, Note_on_c, 0, 53, 100
2, 119520, Note_on_c, 0, 53, 0
2, 119520, Note_on_c, 0, 53, 100
2, 120160, Note_on_c, 0, 53, 0
2, 120160, Note_on_c, 0, 50, 100
2, 120320, Note_on_c, 0, 50, 0
2, 120320, Note_on_c, 0, 51, 100
2, 120480, Note_on_c, 0, 51, 0
2, 120480, Note_on_c, 0, 53, 100
2, 120640, Note_on_c, 0, 53, 0
2, 120640, Note_on_c, 0, 55, 100
2, 120800, Note_on_c, 0, 55, 0
2, 120800, Note_on_c, 0, 56, 100
2, 120960, Note_on_c, 0, 56, 0
2, 120960, Note_on_c, 0, 56, 100
2, 121600, Note_on_c, 0, 56, 0
2, 121600, Note_on_c, 0, 53, 100
2, 121760, Note_on_c, 0, 53, 0
2, 121760, Note_on_c, 0, 55, 100
2, 121920, Note_on_c, 0, 55, 0
2, 121920, Note_on_c, 0, 56, 100
2, 122080, Note_on_c, 0, 56, 0
2, 122080, Note_on_c, 0, 58, 100
2, 122240, Note_on_c, 0, 58, 0
2, 122240, Note_on_c, 0, 60, 100
2, 122400, Note_on_c, 0, 60, 0
2, 122400, Note_on_c, 0, 60, 100
2, 122880, Note_on_c, 0, 60, 0
2, 122880, Note_on_c, 0, 58, 100
2, 123120, Note_on_c, 0, 58, 0
2, 123120, Note_on_c, 0, 56, 100
2, 123360, Note_on_c, 0, 56, 0
2, 123360, Note_on_c, 0, 55, 100
2, 123600, Note_on_c, 0, 55, 0
2, 123600, Note_on_c, 0, 53, 100
2, 123840, Note_on_c, 0, 53, 0
2, 123840, Note_on_c, 0, 55, 100
2, 124080, Note_on_c, 0, 55, 0
2, 124080, Note_on_c, 0, 51, 100
2, 124320, Note_on_c, 0, 51, 0
2, 124320, Note_on_c, 0, 44, 100
2, 124560, Note_on_c, 0, 44, 0
2, 124560, Note_on_c, 0, 53, 100
2, 124800, Note_on_c, 0, 53, 0
2, 124800, Note_on_c, 0, 46, 100
2, 125040, Note_on_c, 0, 46, 0
2, 125040, Note_on_c, 0, 50, 100
2, 125280, Note_on_c, 0, 50, 0
2, 125280, Note_on_c, 0, 51, 100
2, 125760, Note_on_c, 0, 51, 0
2, 125760, Note_on_c, 0, 39, 100
2, 125880, Note_on_c, 0, 39, 0
2, 125880, Note_on_c, 0, 46, 100
2, 126000, Note_on_c, 0, 46, 0
2, 126000, Note_on_c, 0, 48, 100
2, 126120, Note_on_c, 0, 48, 0
2, 126120, Note_on_c, 0, 50, 100
2, 126240, Note_on_c, 0, 50, 0
2, 126240, Note_on_c, 0, 51, 100
2, 126360, Note_on_c, 0, 51, 0
2, 126360, Note_on_c, 0, 50, 100
2, 126480, Note_on_c, 0, 50, 0
2, 126480, Note_on_c, 0, 51, 100
2, 126600, Note_on_c, 0, 51, 0
2, 126600, Note_on_c, 0, 53, 100
2, 126720, Note_on_c, 0, 53, 0
2, 126720, Note_on_c, 0, 55, 100
2, 126880, Note_on_c, 0, 55, 0
2, 126880, Note_on_c, 0, 51, 100
2, 127040, Note_on_c, 0, 51, 0
2, 127040, Note_on_c, 0, 53, 100
2, 127200, Note_on_c, 0, 53, 0
2, 127200, Note_on_c, 0, 55, 100
2, 127360, Note_on_c, 0, 55, 0
2, 127360, Note_on_c, 0, 56, 100
2, 127520, Note_on_c, 0, 56, 0
2, 127520, Note_on_c, 0, 58, 100
2, 127680, Note_on_c, 0, 58, 0
2, 127680, Note_on_c, 0, 58, 100
2, 127840, Note_on_c, 0, 58, 0
2, 127840, Note_on_c, 0, 60, 100
2, 128000, Note_on_c, 0, 60, 0
2, 128000, Note_on_c, 0, 62, 100
2, 128160, Note_on_c, 0, 62, 0
2, 128160, Note_on_c, 0, 63, 100
2, 128400, Note_on_c, 0, 63, 0
2, 128400, Note_on_c, 0, 55, 100
2, 128640, Note_on_c, 0, 55, 0
2, 128640, Pitch_bend_c, 0, 16383
2, 128640, Note_on_c, 0, 53, 100
2, 128700, Pitch_bend_c, 0, 8192
2, 128760, Pitch_bend_c, 0, 16383
2, 128820, Pitch_bend_c, 0, 8192
2, 128880, Pitch_bend_c, 0, 16256
2, 128920, Pitch_bend_c, 0, 8192
2, 128960, Pitch_bend_c, 0, 16383
2, 129000, Pitch_bend_c, 0, 8192
2, 129360, Note_on_c, 0, 53, 0
2, 129360, Note_on_c, 0, 51, 100
2, 129600, Note_on_c, 0, 51, 0
2, 129600, Note_on_c, 0, 51, 100
2, 130560, Note_on_c, 0, 51, 0
2, 130800, Note_on_c, 0, 53, 100
2, 131040, Note_on_c, 0, 53, 0
2, 131040, Note_on_c, 0, 53, 100
2, 131280, Note_on_c, 0, 53, 0
2, 131280, Note_on_c, 0, 50, 100
2, 131520, Note_on_c, 0, 50, 0
2, 131520, Note_on_c, 0, 55, 100
2, 131760, Note_on_c, 0, 55, 0
2, 131760, Note_on_c, 0, 51, 100
2, 132000, Note_on_c, 0, 51, 0
2, 132000, Note_on_c, 0, 45, 100
2, 132240, Note_on_c, 0, 45, 0
2, 132240, Note_on_c, 0, 53, 100
2, 132480, Note_on_c, 0, 53, 0
2, 132480, Pitch_bend_c, 0, 12288
2, 132480, Note_on_c, 0, 50, 100
2, 132560, Pitch_bend_c, 0, 8192
2, 132640, Pitch_bend_c, 0, 12288
2, 132720, Pitch_bend_c, 0, 8192
2, 132960, Note_on_c, 0, 50, 0
2, 132960, Note_on_c, 0, 46, 100
2, 133200, Note_on_c, 0, 46, 0
2, 133200, Note_on_c, 0, 48, 100
2, 133320, Note_on_c, 0, 48, 0
2, 133320, Note_on_c, 0, 50, 100
2, 133440, Note_on_c, 0, 50, 0
2, 133440, Note_on_c, 0, 51, 100
2, 133560, Note_on_c, 0, 51, 0
2, 133560, Note_on_c, 0, 50, 100
2, 133680, Note_on_c, 0, 50, 0
2, 133680, Note_on_c, 0, 51, 100
2, 133800, Note_on_c, 0, 51, 0
2, 133800, Note_on_c, 0, 53, 100
2, 133920, Note_on_c, 0, 53, 0
2, 133920, Note_on_c, 0, 55, 100
2, 134160, Note_on_c, 0, 55, 0
2, 134160, Note_on_c, 0, 51, 100
2, 134400, Note_on_c, 0, 51, 0
2, 134400, Note_on_c, 0, 56, 100
2, 134640, Note_on_c, 0, 56, 0
2, 134640, Note_on_c, 0, 53, 100
2, 134880, Note_on_c, 0, 53, 0
2, 134880, Note_on_c, 0, 47, 100
2, 135120, Note_on_c, 0, 47, 0
2, 135120, Note_on_c, 0, 55, 100
2, 135360, Note_on_c, 0, 55, 0
2, 135360, Pitch_bend_c, 0, 16383
2, 135360, Note_on_c, 0, 51, 100
2, 135440, Pitch_bend_c, 0, 8192
2, 135520, Pitch_bend_c, 0, 16383
2, 135600, Pitch_bend_c, 0, 8192
2, 135840, Note_on_c, 0, 51, 0
2, 135840, Note_on_c, 0, 36, 100
2, 135960, Note_on_c, 0, 36, 0
2, 135960, Note_on_c, 0, 55, 100
2, 136080, Note_on_c, 0, 55, 0
2, 136080, Note_on_c, 0, 57, 100
2, 136200, Note_on_c, 0, 57, 0
2, 136200, Note_on_c, 0, 59, 100
2, 136320, Note_on_c, 0, 59, 0
2, 136320, Note_on_c, 0, 60, 100
2, 136440, Note_on_c, 0, 60, 0
2, 136440, Note_on_c, 0, 59, 100
2, 136560, Note_on_c, 0, 59, 0
2, 136560, Note_on_c, 0, 60, 100
2, 136680, Note_on_c, 0, 60, 0
2, 136680, Note_on_c, 0, 62, 100
2, 136800, Note_on_c, 0, 62, 0
2, 136800, Note_on_c, 0, 63, 100
2, 137040, Note_on_c, 0, 63, 0
2, 137040, Note_on_c, 0, 62, 100
2, 137280, Note_on_c, 0, 62, 0
2, 137280, Note_on_c, 0, 63, 100
2, 137520, Note_on_c, 0, 63, 0
2, 137520, Note_on_c, 0, 60, 100
2, 137760, Note_on_c, 0, 60, 0
2, 137760, Note_on_c, 0, 63, 100
2, 138000, Note_on_c, 0, 63, 0
2, 138000, Note_on_c, 0, 58, 100
2, 138240, Note_on_c, 0, 58, 0
2, 138240, Note_on_c, 0, 63, 100
2, 138480, Note_on_c, 0, 63, 0
2, 138480, Note_on_c, 0, 57, 100
2, 138720, Note_on_c, 0, 57, 0
2, 138720, Note_on_c, 0, 63, 100
2, 138960, Note_on_c, 0, 63, 0
2, 138960, Note_on_c, 0, 55, 100
2, 139200, Note_on_c, 0, 55, 0
2, 139200, Note_on_c, 0, 53, 100
2, 139440, Note_on_c, 0, 53, 0
2, 139440, Note_on_c, 0, 63, 100
2, 139680, Note_on_c, 0, 63, 0
2, 139680, Note_on_c, 0, 62, 100
2, 139920, Note_on_c, 0, 62, 0
2, 139920, Note_on_c, 0, 60, 100
2, 140160, Note_on_c, 0, 60, 0
2, 140160, Note_on_c, 0, 62, 100
2, 140400, Note_on_c, 0, 62, 0
2, 140400, Note_on_c, 0, 58, 100
2, 140640, Note_on_c, 0, 58, 0
2, 140640, Note_on_c, 0, 62, 100
2, 140880, Note_on_c, 0, 62, 0
2, 140880, Note_on_c, 0, 57, 100
2, 141120, Note_on_c, 0, 57, 0
2, 141120, Note_on_c, 0, 62, 100
2, 141360, Note_on_c, 0, 62, 0
2, 141360, Note_on_c, 0, 55, 100
2, 141600, Note_on_c, 0, 55, 0
2, 141600, Note_on_c, 0, 62, 100
2, 141840, Note_on_c, 0, 62, 0
2, 141840, Note_on_c, 0, 53, 100
2, 142080, Note_on_c, 0, 53, 0
2, 142080, Note_on_c, 0, 51, 100
2, 142320, Note_on_c, 0, 51, 0
2, 142320, Note_on_c, 0, 62, 100
2, 142560, Note_on_c, 0, 62, 0
2, 142560, Note_on_c, 0, 60, 100
2, 142800, Note_on_c, 0, 60, 0
2, 142800, Note_on_c, 0, 58, 100
2, 143040, Note_on_c, 0, 58, 0
2, 143040, Note_on_c, 0, 60, 100
2, 143280, Note_on_c, 0, 60, 0
2, 143280, Note_on_c, 0, 56, 100
2, 143520, Note_on_c, 0, 56, 0
2, 143520, Note_on_c, 0, 60, 100
2, 143760, Note_on_c, 0, 60, 0
2, 143760, Note_on_c, 0, 55, 100
2, 144000, Note_on_c, 0, 55, 0
2, 144000, Note_on_c, 0, 60, 100
2, 144240, Note_on_c, 0, 60, 0
2, 144240, Note_on_c, 0, 53, 100
2, 144480, Note_on_c, 0, 53, 0
2, 144480, Note_on_c, 0, 60, 100
2, 144720, Note_on_c, 0, 60, 0
2, 144720, Note_on_c, 0, 51, 100
2, 144960, Note_on_c, 0, 51, 0
2, 144960, Note_on_c, 0, 50, 100
2, 145200, Note_on_c, 0, 50, 0
2, 145200, Note_on_c, 0, 53, 100
2, 145440, Note_on_c, 0, 53, 0
2, 145440, Note_on_c, 0, 56, 100
2, 145680, Note_on_c, 0, 56, 0
2, 145680, Note_on_c, 0, 55, 100
2, 145920, Note_on_c, 0, 55, 0
2, 145920, Note_on_c, 0, 56, 100
2, 146160, Note_on_c, 0, 56, 0
2, 146160, Note_on_c, 0, 53, 100
2, 146400, Note_on_c, 0, 53, 0
2, 146400, Note_on_c, 0, 56, 100
2, 146640, Note_on_c, 0, 56, 0
2, 146640, Note_on_c, 0, 51, 100
2, 146880, Note_on_c, 0, 51, 0
2, 146880, Note_on_c, 0, 56, 100
2, 147120, Note_on_c, 0, 56, 0
2, 147120, Note_on_c, 0, 50, 100
2, 147360, Note_on_c, 0, 50, 0
2, 147360, Note_on_c, 0, 56, 100
2, 147600, Note_on_c, 0, 56, 0
2, 147600, Note_on_c, 0, 48, 100
2, 147840, Note_on_c, 0, 48, 0
2, 147840, Note_on_c, 0, 47, 100
2, 148080, Note_on_c, 0, 47, 0
2, 148080, Note_on_c, 0, 50, 100
2, 148320, Note_on_c, 0, 50, 0
2, 148320, Note_on_c, 0, 53, 100
2, 148560, Note_on_c, 0, 53, 0
2, 148560, Note_on_c, 0, 51, 100
2, 148800, Note_on_c, 0, 51, 0
2, 148800, Note_on_c, 0, 53, 100
2, 149040, Note_on_c, 0, 53, 0
2, 149040, Note_on_c, 0, 50, 100
2, 149280, Note_on_c, 0, 50, 0
2, 149280, Note_on_c, 0, 53, 100
2, 149520, Note_on_c, 0, 53, 0
2, 149520, Note_on_c, 0, 48, 100
2, 149760, Note_on_c, 0, 48, 0
2, 149760, Note_on_c, 0, 53, 100
2, 150000, Note_on_c, 0, 53, 0
2, 150000, Note_on_c, 0, 47, 100
2, 150240, Note_on_c, 0, 47, 0
2, 150240, Note_on_c, 0, 53, 100
2, 150480, Note_on_c, 0, 53, 0
2, 150480, Note_on_c, 0, 45, 100
2, 150720, Note_on_c, 0, 45, 0
2, 150720, Note_on_c, 0, 43, 100
2, 150960, Note_on_c, 0, 43, 0
2, 150960, Note_on_c, 0, 59, 100
2, 151200, Note_on_c, 0, 59, 0
2, 151200, Note_on_c, 0, 60, 100
2, 151440, Note_on_c, 0, 60, 0
2, 151440, Note_on_c, 0, 63, 100
2, 151680, Note_on_c, 0, 63, 0
2, 151680, Note_on_c, 0, 53, 100
2, 151920, Note_on_c, 0, 53, 0
2, 151920, Note_on_c, 0, 62, 100
2, 152160, Note_on_c, 0, 62, 0
2, 152160, Note_on_c, 0, 55, 100
2, 152400, Note_on_c, 0, 55, 0
2, 152400, Note_on_c, 0, 59, 100
2, 152640, Note_on_c, 0, 59, 0
2, 152640, Note_on_c, 0, 60, 100
2, 153120, Note_on_c, 0, 60, 0
2, 153120, Note_on_c, 0, 36, 100
2, 153240, Note_on_c, 0, 36, 0
2, 153240, Note_on_c, 0, 43, 100
2, 153360, Note_on_c, 0, 43, 0
2, 153360, Note_on_c, 0, 45, 100
2, 153480, Note_on_c, 0, 45, 0
2, 153480, Note_on_c, 0, 47, 100
2, 153600, Note_on_c, 0, 47, 0
2, 153600, Note_on_c, 0, 48, 100
2, 153720, Note_on_c, 0, 48, 0
2, 153720, Note_on_c, 0, 47, 100
2, 153840, Note_on_c, 0, 47, 0
2, 153840, Note_on_c, 0, 48, 100
2, 153960, Note_on_c, 0, 48, 0
2, 153960, Note_on_c, 0, 50, 100
2, 154080, Note_on_c, 0, 50, 0
2, 154080, Note_on_c, 0, 52, 100
2, 154200, Note_on_c, 0, 52, 0
2, 154200, Note_on_c, 0, 50, 100
2, 154320, Note_on_c, 0, 50, 0
2, 154320, Note_on_c, 0, 52, 100
2, 154440, Note_on_c, 0, 52, 0
2, 154440, Note_on_c, 0, 53, 100
2, 154560, Note_on_c, 0, 53, 0
2, 154560, Note_on_c, 0, 55, 100
2, 154680, Note_on_c, 0, 55, 0
2, 154680, Note_on_c, 0, 53, 100
2, 154800, Note_on_c, 0, 53, 0
2, 154800, Note_on_c, 0, 55, 100
2, 154920, Note_on_c, 0, 55, 0
2, 154920, Note_on_c, 0, 56, 100
2, 155040, Note_on_c, 0, 56, 0
2, 155040, Note_on_c, 0, 58, 100
2, 155160, Note_on_c, 0, 58, 0
2, 155160, Note_on_c, 0, 56, 100
2, 155280, Note_on_c, 0, 56, 0
2, 155280, Note_on_c, 0, 58, 100
2, 155400, Note_on_c, 0, 58, 0
2, 155400, Note_on_c, 0, 55, 100
2, 155520, Note_on_c, 0, 55, 0
2, 155520, Note_on_c, 0, 56, 100
2, 155680, Note_on_c, 0, 56, 0
2, 155680, Note_on_c, 0, 55, 100
2, 155840, Note_on_c, 0, 55, 0
2, 155840, Note_on_c, 0, 53, 100
2, 156000, Note_on_c, 0, 53, 0
2, 156000, Note_on_c, 0, 53, 100
2, 156160, Note_on_c, 0, 53, 0
2, 156160, Note_on_c, 0, 51, 100
2, 156320, Note_on_c, 0, 51, 0
2, 156320, Note_on_c, 0, 50, 100
2, 156480, Note_on_c, 0, 50, 0
2, 156480, Note_on_c, 0, 50, 100
2, 156640, Note_on_c, 0, 50, 0
2, 156640, Note_on_c, 0, 48, 100
2, 156800, Note_on_c, 0, 48, 0
2, 156800, Note_on_c, 0, 46, 100
2, 156960, Note_on_c, 0, 46, 0
2, 156960, Note_on_c, 0, 46, 100
2, 157080, Note_on_c, 0, 46, 0
2, 157080, Note_on_c, 0, 48, 100
2, 157200, Note_on_c, 0, 48, 0
2, 157200, Note_on_c, 0, 50, 100
2, 157320, Note_on_c, 0, 50, 0
2, 157320, Note_on_c, 0, 51, 100
2, 157440, Note_on_c, 0, 51, 0
2, 157440, Note_on_c, 0, 53, 100
2, 157560, Note_on_c, 0, 53, 0
2, 157560, Note_on_c, 0, 51, 100
2, 157680, Note_on_c, 0, 51, 0
2, 157680, Note_on_c, 0, 53, 100
2, 157800, Note_on_c, 0, 53, 0
2, 157800, Note_on_c, 0, 55, 100
2, 157920, Note_on_c, 0, 55, 0
2, 157920, Note_on_c, 0, 56, 100
2, 158040, Note_on_c, 0, 56, 0
2, 158040, Note_on_c, 0, 55, 100
2, 158160, Note_on_c, 0, 55, 0
2, 158160, Note_on_c, 0, 56, 100
2, 158280, Note_on_c, 0, 56, 0
2, 158280, Note_on_c, 0, 53, 100
2, 158400, Note_on_c, 0, 53, 0
2, 158400, Note_on_c, 0, 55, 100
2, 158560, Note_on_c, 0, 55, 0
2, 158560, Note_on_c, 0, 53, 100
2, 158720, Note_on_c, 0, 53, 0
2, 158720, Note_on_c, 0, 51, 100
2, 158880, Note_on_c, 0, 51, 0
2, 158880, Note_on_c, 0, 51, 100
2, 159040, Note_on_c, 0, 51, 0
2, 159040, Note_on_c, 0, 50, 100
2, 159200, Note_on_c, 0, 50, 0
2, 159200, Note_on_c, 0, 48, 100
2, 159360, Note_on_c, 0, 48, 0
2, 159360, Note_on_c, 0, 48, 100
2, 159520, Note_on_c, 0, 48, 0
2, 159520, Note_on_c, 0, 46, 100
2, 159680, Note_on_c, 0, 46, 0
2, 159680, Note_on_c, 0, 44, 100
2, 159840, Note_on_c, 0, 44, 0
2, 159840, Note_on_c, 0, 44, 100
2, 160080, Note_on_c, 0, 44, 0
2, 160080, Note_on_c, 0, 60, 100
2, 160200, Note_on_c, 0, 60, 0
2, 160200, Note_on_c, 0, 58, 100
2, 160320, Note_on_c, 0, 58, 0
2, 160320, Note_on_c, 0, 56, 100
2, 160440, Note_on_c, 0, 56, 0
2, 160440, Note_on_c, 0, 58, 100
2, 160560, Note_on_c, 0, 58, 0
2, 160560, Note_on_c, 0, 56, 100
2, 160680, Note_on_c, 0, 56, 0
2, 160680, Note_on_c, 0, 55, 100
2, 160800, Note_on_c, 0, 55, 0
2, 160800, Note_on_c, 0, 53, 100
2, 160920, Note_on_c, 0, 53, 0
2, 160920, Note_on_c, 0, 55, 100
2, 161040, Note_on_c, 0, 55, 0
2, 161040, Note_on_c, 0, 53, 100
2, 161160, Note_on_c, 0, 53, 0
2, 161160, Note_on_c, 0, 51, 100
2, 161280, Note_on_c, 0, 51, 0
2, 161280, Note_on_c, 0, 50, 100
2, 161400, Note_on_c, 0, 50, 0
2, 161400, Note_on_c, 0, 51, 100
2, 161520, Note_on_c, 0, 51, 0
2, 161520, Note_on_c, 0, 50, 100
2, 161640, Note_on_c, 0, 50, 0
2, 161640, Note_on_c, 0, 48, 100
2, 161760, Note_on_c, 0, 48, 0
2, 161760, Note_on_c, 0, 46, 100
2, 161880, Note_on_c, 0, 46, 0
2, 161880, Note_on_c, 0, 48, 100
2, 162000, Note_on_c, 0, 48, 0
2, 162000, Note_on_c, 0, 46, 100
2, 162120, Note_on_c, 0, 46, 0
2, 162120, Note_on_c, 0, 44, 100
2, 162240, Note_on_c, 0, 44, 0
2, 162240, Note_on_c, 0, 43, 100
2, 162360, Note_on_c, 0, 43, 0
2, 162360, Note_on_c, 0, 44, 100
2, 162480, Note_on_c, 0, 44, 0
2, 162480, Note_on_c, 0, 43, 100
2, 162600, Note_on_c, 0, 43, 0
2, 162600, Note_on_c, 0, 41, 100
2, 162720, Note_on_c, 0, 41, 0
2, 162720, Note_on_c, 0, 39, 100
2, 162960, Note_on_c, 0, 39, 0
2, 162960, Note_on_c, 0, 63, 100
2, 163200, Note_on_c, 0, 63, 0
2, 163200, Note_on_c, 0, 58, 100
2, 163320, Note_on_c, 0, 58, 0
2, 163320, Note_on_c, 0, 56, 100
2, 163440, Note_on_c, 0, 56, 0
2, 163440, Note_on_c, 0, 55, 100
2, 163560, Note_on_c, 0, 55, 0
2, 163560, Note_on_c, 0, 53, 100
2, 163680, Note_on_c, 0, 53, 0
2, 163680, Note_on_c, 0, 51, 100
2, 163920, Note_on_c, 0, 51, 0
2, 163920, Note_on_c, 0, 46, 100
2, 164160, Note_on_c, 0, 46, 0
2, 164160, Note_on_c, 0, 43, 100
2, 164400, Note_on_c, 0, 43, 0
2, 164400, Note_on_c, 0, 61, 100
2, 164640, Note_on_c, 0, 61, 0
2, 164640, Note_on_c, 0, 58, 100
2, 164760, Note_on_c, 0, 58, 0
2, 164760, Note_on_c, 0, 56, 100
2, 164880, Note_on_c, 0, 56, 0
2, 164880, Note_on_c, 0, 55, 100
2, 165000, Note_on_c, 0, 55, 0
2, 165000, Note_on_c, 0, 53, 100
2, 165120, Note_on_c, 0, 53, 0
2, 165120, Note_on_c, 0, 51, 100
2, 165360, Note_on_c, 0, 51, 0
2, 165360, Note_on_c, 0, 61, 100
2, 165600, Note_on_c, 0, 61, 0
2, 165600, Note_on_c, 0, 44, 100
2, 165840, Note_on_c, 0, 44, 0
2, 165840, Note_on_c, 0, 61, 100
2, 166080, Note_on_c, 0, 61, 0
2, 166080, Note_on_c, 0, 60, 100
2, 166200, Note_on_c, 0, 60, 0
2, 166200, Note_on_c, 0, 58, 100
2, 166320, Note_on_c, 0, 58, 0
2, 166320, Note_on_c, 0, 56, 100
2, 166440, Note_on_c, 0, 56, 0
2, 166440, Note_on_c, 0, 55, 100
2, 166560, Note_on_c, 0, 55, 0
2, 166560, Note_on_c, 0, 53, 100
2, 166800, Note_on_c, 0, 53, 0
2, 166800, Note_on_c, 0, 60, 100
2, 167040, Note_on_c, 0, 60, 0
2, 167040, Note_on_c, 0, 43, 100
2, 167280, Note_on_c, 0, 43, 0
2, 167280, Note_on_c, 0, 60, 100
2, 167520, Note_on_c, 0, 60, 0
2, 167520, Note_on_c, 0, 58, 100
2, 167640, Note_on_c, 0, 58, 0
2, 167640, Note_on_c, 0, 56, 100
2, 167760, Note_on_c, 0, 56, 0
2, 167760, Note_on_c, 0, 55, 100
2, 167880, Note_on_c, 0, 55, 0
2, 167880, Note_on_c, 0, 53, 100
2, 168000, Note_on_c, 0, 53, 0
2, 168000, Note_on_c, 0, 52, 100
2, 168240, Note_on_c, 0, 52, 0
2, 168240, Note_on_c, 0, 58, 100
2, 168480, Note_on_c, 0, 58, 0
2, 168480, Note_on_c, 0, 41, 100
2, 168720, Note_on_c, 0, 41, 0
2, 168720, Note_on_c, 0, 58, 100
2, 168960, Note_on_c, 0, 58, 0
2, 168960, Note_on_c, 0, 56, 100
2, 169080, Note_on_c, 0, 56, 0
2, 169080, Note_on_c, 0, 55, 100
2, 169200, Note_on_c, 0, 55, 0
2, 169200, Note_on_c, 0, 53, 100
2, 169320, Note_on_c, 0, 53, 0
2, 169320, Note_on_c, 0, 51, 100
2, 169440, Note_on_c, 0, 51, 0
2, 169440, Note_on_c, 0, 50, 100
2, 169680, Note_on_c, 0, 50, 0
2, 169680, Note_on_c, 0, 56, 100
2, 169920, Note_on_c, 0, 56, 0
2, 169920, Note_on_c, 0, 39, 100
2, 170160, Note_on_c, 0, 39, 0
2, 170160, Note_on_c, 0, 56, 100
2, 170400, Note_on_c, 0, 56, 0
2, 170400, Note_on_c, 0, 55, 100
2, 170520, Note_on_c, 0, 55, 0
2, 170520, Note_on_c, 0, 53, 100
2, 170640, Note_on_c, 0, 53, 0
2, 170640, Note_on_c, 0, 51, 100
2, 170760, Note_on_c, 0, 51, 0
2, 170760, Note_on_c, 0, 50, 100
2, 170880, Note_on_c, 0, 50, 0
2, 170880, Note_on_c, 0, 51, 100
2, 171120, Note_on_c, 0, 51, 0
2, 171120, Note_on_c, 0, 55, 100
2, 171360, Note_on_c, 0, 55, 0
2, 171360, Note_on_c, 0, 45, 100
2, 171600, Note_on_c, 0, 45, 0
2, 171600, Note_on_c, 0, 48, 100
2, 171840, Note_on_c, 0, 48, 0
2, 171840, Note_on_c, 0, 51, 100
2, 172080, Note_on_c, 0, 51, 0
2, 172080, Note_on_c, 0, 54, 100
2, 172320, Note_on_c, 0, 54, 0
2, 172320, Note_on_c, 0, 57, 100
2, 172560, Note_on_c, 0, 57, 0
2, 172560, Note_on_c, 0, 60, 100
2, 172800, Note_on_c, 0, 60, 0
2, 172800, Pitch_bend_c, 0, 12288
2, 172800, Note_on_c, 0, 50, 100
2, 172840, Pitch_bend_c, 0, 8192
2, 172880, Pitch_bend_c, 0, 12288
2, 172920, Pitch_bend_c, 0, 8192
2, 173440, Note_on_c, 0, 50, 0
2, 173440, Note_on_c, 0, 46, 100
2, 173600, Note_on_c, 0, 46, 0
2, 173600, Note_on_c, 0, 48, 100
2, 173760, Note_on_c, 0, 48, 0
2, 173760, Note_on_c, 0, 50, 100
2, 173920, Note_on_c, 0, 50, 0
2, 173920, Note_on_c, 0, 51, 100
2, 174080, Note_on_c, 0, 51, 0
2, 174080, Note_on_c, 0, 53, 100
2, 174240, Note_on_c, 0, 53, 0
2, 174240, Note_on_c, 0, 53, 100
2, 174880, Note_on_c, 0, 53, 0
2, 174880, Note_on_c, 0, 50, 100
2, 175040, Note_on_c, 0, 50, 0
2, 175040, Note_on_c, 0, 51, 100
2, 175200, Note_on_c, 0, 51, 0
2, 175200, Note_on_c, 0, 53, 100
2, 175360, Note_on_c, 0, 53, 0
2, 175360, Note_on_c, 0, 55, 100
2, 175520, Note_on_c, 0, 55, 0
2, 175520, Note_on_c, 0, 56, 100
2, 175680, Note_on_c, 0, 56, 0
2, 175680, Note_on_c, 0, 56, 100
2, 176320, Note_on_c, 0, 56, 0
2, 176320, Note_on_c, 0, 53, 100
2, 176480, Note_on_c, 0, 53, 0
2, 176480, Note_on_c, 0, 55, 100
2, 176640, Note_on_c, 0, 55, 0
2, 176640, Note_on_c, 0, 56, 100
2, 176800, Note_on_c, 0, 56, 0
2, 176800, Note_on_c, 0, 58, 100
2, 176960, Note_on_c, 0, 58, 0
2, 176960, Note_on_c, 0, 60, 100
2, 177120, Note_on_c, 0, 60, 0
2, 177120, Note_on_c, 0, 60, 100
2, 177600, Note_on_c, 0, 60, 0
2, 177600, Note_on_c, 0, 58, 100
2, 177840, Note_on_c, 0, 58, 0
2, 177840, Note_on_c, 0, 56, 100
2, 178080, Note_on_c, 0, 56, 0
2, 178080, Note_on_c, 0, 55, 100
2, 178320, Note_on_c, 0, 55, 0
2, 178320, Note_on_c, 0, 53, 100
2, 178560, Note_on_c, 0, 53, 0
2, 178560, Note_on_c, 0, 55, 100
2, 178800, Note_on_c, 0, 55, 0
2, 178800, Note_on_c, 0, 51, 100
2, 179040, Note_on_c, 0, 51, 0
2, 179040, Note_on_c, 0, 44, 100
2, 179280, Note_on_c, 0, 44, 0
2, 179280, Note_on_c, 0, 53, 100
2, 179520, Note_on_c, 0, 53, 0
2, 179520, Note_on_c, 0, 46, 100
2, 179760, Note_on_c, 0, 46, 0
2, 179760, Note_on_c, 0, 50, 100
2, 180000, Note_on_c, 0, 50, 0
2, 180000, Note_on_c, 0, 51, 100
2, 180480, Note_on_c, 0, 51, 0
2, 180480, Note_on_c, 0, 39, 100
2, 180600, Note_on_c, 0, 39, 0
2, 180600, Note_on_c, 0, 46, 100
2, 180720, Note_on_c, 0, 46, 0
2, 180720, Note_on_c, 0, 48, 100
2, 180840, Note_on_c, 0, 48, 0
2, 180840, Note_on_c, 0, 50, 100
2, 180960, Note_on_c, 0, 50, 0
2, 180960, Note_on_c, 0, 51, 100
2, 181080, Note_on_c, 0, 51, 0
2, 181080, Note_on_c, 0, 50, 100
2, 181200, Note_on_c, 0, 50, 0
2, 181200, Note_on_c, 0, 51, 100
2, 181320, Note_on_c, 0, 51, 0
2, 181320, Note_on_c, 0, 53, 100
2, 181440, Note_on_c, 0, 53, 0
2, 181440, Note_on_c, 0, 55, 100
2, 181600, Note_on_c, 0, 55, 0
2, 181600, Note_on_c, 0, 51, 100
2, 181760, Note_on_c, 0, 51, 0
2, 181760, Note_on_c, 0, 53, 100
2, 181920, Note_on_c, 0, 53, 0
2, 181920, Note_on_c, 0, 55, 100
2, 182080, Note_on_c, 0, 55, 0
2, 182080, Note_on_c, 0, 56, 100
2, 182240, Note_on_c, 0, 56, 0
2, 182240, Note_on_c, 0, 58, 100
2, 182400, Note_on_c, 0, 58, 0
2, 182400, Note_on_c, 0, 58, 100
2, 182560, Note_on_c, 0, 58, 0
2, 182560, Note_on_c, 0, 60, 100
2, 182720, Note_on_c, 0, 60, 0
2, 182720, Note_on_c, 0, 62, 100
2, 182880, Note_on_c, 0, 62, 0
2, 182880, Note_on_c, 0, 63, 100
2, 183120, Note_on_c, 0, 63, 0
2, 183120, Note_on_c, 0, 55, 100
2, 183360, Note_on_c, 0, 55, 0
2, 183360, Pitch_bend_c, 0, 16383
2, 183360, Note_on_c, 0, 53, 100
2, 183420, Pitch_bend_c, 0, 8192
2, 183480, Pitch_bend_c, 0, 16383
2, 183540, Pitch_bend_c, 0, 8192
2, 183600, Pitch_bend_c, 0, 16256
2, 183640, Pitch_bend_c, 0, 8192
2, 183680, Pitch_bend_c, 0, 16383
2, 183720, Pitch_bend_c, 0, 8192
2, 184080, Note_on_c, 0, 53, 0
2, 184080, Note_on_c, 0, 51, 100
2, 184320, Note_on_c, 0, 51, 0
2, 184320, Note_on_c, 0, 51, 100
2, 185280, Note_on_c, 0, 51, 0
2, 185280, End_track
3, 0, Start_track
3, 0, MIDI_port, 0
3, 0, Title_t, "--------------------------------------"
3, 0, Program_c, 1, 42
3, 0, Control_c, 1, 7, 100
3, 0, Control_c, 1, 10, 74
3, 25920, Note_on_c, 1, 53, 100
3, 26400, Note_on_c, 1, 53, 0
3, 27360, Note_on_c, 1, 51, 100
3, 27840, Note_on_c, 1, 51, 0
3, 28800, Note_on_c, 1, 57, 100
3, 29280, Note_on_c, 1, 57, 0
3, 30240, Note_on_c, 1, 57, 100
3, 30720, Note_on_c, 1, 57, 0
3, 36480, Note_on_c, 1, 41, 100
3, 37440, Note_on_c, 1, 41, 0
3, 63360, Note_on_c, 1, 53, 100
3, 63840, Note_on_c, 1, 53, 0
3, 64800, Note_on_c, 1, 51, 100
3, 65280, Note_on_c, 1, 51, 0
3, 66240, Note_on_c, 1, 57, 100
3, 66720, Note_on_c, 1, 57, 0
3, 67680, Note_on_c, 1, 57, 100
3, 68160, Note_on_c, 1, 57, 0
3, 73920, Note_on_c, 1, 41, 100
3, 74880, Note_on_c, 1, 41, 0
3, 118080, Note_on_c, 1, 46, 100
3, 118560, Note_on_c, 1, 46, 0
3, 119520, Note_on_c, 1, 44, 100
3, 120000, Note_on_c, 1, 44, 0
3, 120960, Note_on_c, 1, 50, 100
3, 121440, Note_on_c, 1, 50, 0
3, 122380, Note_on_c, 1, 50, 100
3, 122860, Note_on_c, 1, 50, 0
3, 128640, Note_on_c, 1, 46, 100
3, 129600, Note_on_c, 1, 46, 0
3, 129600, Note_on_c, 1, 46, 100
3, 130560, Note_on_c, 1, 46, 0
3, 172800, Note_on_c, 1, 46, 100
3, 173280, Note_on_c, 1, 46, 0
3, 174240, Note_on_c, 1, 44, 100
3, 174720, Note_on_c, 1, 44, 0
3, 175680, Note_on_c, 1, 50, 100
3, 176160, Note_on_c, 1, 50, 0
3, 177100, Note_on_c, 1, 50, 100
3, 177580, Note_on_c, 1, 50, 0
3, 183360, Note_on_c, 1, 46, 100
3, 184320, Note_on_c, 1, 46, 0
3, 184320, Note_on_c, 1, 46, 100
3, 185280, Note_on_c, 1, 46, 0
3, 185280, End_track
4, 0, Start_track
4, 0, MIDI_port, 0
4, 0, Title_t, "Johann Sebastian Bach  (1685-1750)"
4, 0, Program_c, 2, 42
4, 0, Control_c, 2, 7, 100
4, 0, Control_c, 2, 10, 54
4, 28800, Note_on_c, 2, 48, 100
4, 29280, Note_on_c, 2, 48, 0
4, 66240, Note_on_c, 2, 48, 100
4, 66720, Note_on_c, 2, 48, 0
4, 120960, Note_on_c, 2, 41, 100
4, 121440, Note_on_c, 2, 41, 0
4, 129600, Note_on_c, 2, 39, 100
4, 130560, Note_on_c, 2, 39, 0
4, 175680, Note_on_c, 2, 41, 100
4, 176160, Note_on_c, 2, 41, 0
4, 184320, Note_on_c, 2, 39, 100
4, 185280, Note_on_c, 2, 39, 0
4, 185280, End_track
5, 0, Start_track
5, 0, MIDI_port, 0
5, 0, Title_t, "Six Suites for Solo Cello"
5, 0, End_track
6, 0, Start_track
6, 0, MIDI_port, 0
6, 0, Title_t, "--------------------------------------"
6, 0, End_track
7, 0, Start_track
7, 0, MIDI_port, 0
7, 0, Title_t, "Suite No. 4 in Eb major - BWV 1010"
7, 0, End_track
8, 0, Start_track
8, 0, MIDI_port, 0
8, 0, Title_t, "3rd Movement: Courante"
8, 0, End_track
9, 0, Start_track
9, 0, MIDI_port, 0
9, 0, Title_t, "--------------------------------------"
9, 0, End_track
10, 0, Start_track
10, 0, MIDI_port, 0
10, 0, Title_t, "Modified from an anonymous sequence with Cakewalk Pro Audio by"
10, 0, End_track
11, 0, Start_track
11, 0, MIDI_port, 0
11, 0, Title_t, "David J. Grossman - dave@unpronounceable.com"
11, 0, End_track
12, 0, Start_track
12, 0, MIDI_port, 0
12, 0, Title_t, "This and other Bach MIDI files can be found at:"
12, 0, End_track
13, 0, Start_track
13, 0, MIDI_port, 0
13, 0, Title_t, "Dave's J.S. Bach Page"
13, 0, End_track
14, 0, Start_track
14, 0, MIDI_port, 0
14, 0, Title_t, "http://www.unpronounceable.com/bach"
14, 0, End_track
15, 0, Start_track
15, 0, MIDI_port, 0
15, 0, Title_t, "--------------------------------------"
15, 0, End_track
16, 0, Start_track
16, 0, MIDI_port, 0
16, 0, Title_t, "Original Filename: cs4-3cou.mid"
16, 0, End_track
17, 0, Start_track
17, 0, MIDI_port, 0
17, 0, Title_t, "Last Modified: February 22, 1997"
17, 0, End_track
18, 0, Start_track
18, 0, MIDI_port, 0
18, 0, End_track
0, 0, End_of_file
