0, 0, Header, 1, 17, 480
1, 0, Start_track
1, 0, Title_t, "untitled"
1, 0, SMPTE_offset, 0, 0, 3, 18, 0
1, 0, Time_signature, 4, 2, 24, 8
1, 0, Key_signature, -3, "major"
1, 0, Tempo, 240000
1, 1680, Tempo, 625000
1, 1920, Marker_t, "A"
1, 32640, Marker_t, "A'"
1, 63360, Marker_t, "B"
1, 109440, Marker_t, "B'"
1, 153840, Tempo, 659341
1, 154080, Tempo, 689655
1, 154320, Tempo, 789474
1, 154560, Tempo, 967742
1, 155520, Tempo, 625000
1, 155520, End_track
2, 0, Start_track
2, 0, MIDI_port, 0
2, 0, Title_t, "Solo Cello"
2, 0, Program_c, 0, 42
2, 0, Control_c, 0, 7, 100
2, 0, Control_c, 0, 10, 64
2, 1680, Note_on_c, 0, 58, 100
2, 1920, Note_on_c, 0, 58, 0
2, 1920, Note_on_c, 0, 63, 100
2, 2160, Note_on_c, 0, 63, 0
2, 2160, Note_on_c, 0, 62, 100
2, 2280, Note_on_c, 0, 62, 0
2, 2280, Note_on_c, 0, 60, 100
2, 2400, Note_on_c, 0, 60, 0
2, 2400, Note_on_c, 0, 58, 100
2, 2520, Note_on_c, 0, 58, 0
2, 2520, Note_on_c, 0, 56, 100
2, 2640, Note_on_c, 0, 56, 0
2, 2640, Note_on_c, 0, 55, 100
2, 2760, Note_on_c, 0, 55, 0
2, 2760, Note_on_c, 0, 56, 100
2, 2880, Note_on_c, 0, 56, 0
2, 2880, Note_on_c, 0, 58, 100
2, 3000, Note_on_c, 0, 58, 0
2, 3000, Note_on_c, 0, 56, 100
2, 3120, Note_on_c, 0, 56, 0
2, 3120, Note_on_c, 0, 55, 100
2, 3240, Note_on_c, 0, 55, 0
2, 3240, Note_on_c, 0, 53, 100
2, 3360, Note_on_c, 0, 53, 0
2, 3360, Note_on_c, 0, 51, 100
2, 3480, Note_on_c, 0, 51, 0
2, 3480, Note_on_c, 0, 50, 100
2, 3600, Note_on_c, 0, 50, 0
2, 3600, Note_on_c, 0, 48, 100
2, 3720, Note_on_c, 0, 48, 0
2, 3720, Note_on_c, 0, 46, 100
2, 3840, Note_on_c, 0, 46, 0
2, 3840, Note_on_c, 0, 48, 100
2, 3960, Note_on_c, 0, 48, 0
2, 3960, Note_on_c, 0, 51, 100
2, 4080, Note_on_c, 0, 51, 0
2, 4080, Note_on_c, 0, 53, 100
2, 4200, Note_on_c, 0, 53, 0
2, 4200, Note_on_c, 0, 55, 100
2, 4320, Note_on_c, 0, 55, 0
2, 4320, Note_on_c, 0, 56, 100
2, 4440, Note_on_c, 0, 56, 0
2, 4440, Note_on_c, 0, 55, 100
2, 4560, Note_on_c, 0, 55, 0
2, 4560, Note_on_c, 0, 53, 100
2, 4680, Note_on_c, 0, 53, 0
2, 4680, Note_on_c, 0, 51, 100
2, 4800, Note_on_c, 0, 51, 0
2, 4800, Note_on_c, 0, 50, 100
2, 4920, Note_on_c, 0, 50, 0
2, 4920, Note_on_c, 0, 51, 100
2, 5040, Note_on_c, 0, 51, 0
2, 5040, Note_on_c, 0, 53, 100
2, 5160, Note_on_c, 0, 53, 0
2, 5160, Note_on_c, 0, 50, 100
2, 5280, Note_on_c, 0, 50, 0
2, 5280, Pitch_bend_c, 0, 16383
2, 5280, Note_on_c, 0, 46, 100
2, 5320, Pitch_bend_c, 0, 8192
2, 5360, Pitch_bend_c, 0, 16383
2, 5400, Pitch_bend_c, 0, 8192
2, 5520, Note_on_c, 0, 46, 0
2, 5520, Note_on_c, 0, 44, 100
2, 5760, Note_on_c, 0, 44, 0
2, 5760, Note_on_c, 0, 43, 100
2, 5880, Note_on_c, 0, 43, 0
2, 5880, Note_on_c, 0, 46, 100
2, 6000, Note_on_c, 0, 46, 0
2, 6000, Note_on_c, 0, 48, 100
2, 6120, Note_on_c, 0, 48, 0
2, 6120, Note_on_c, 0, 50, 100
2, 6240, Note_on_c, 0, 50, 0
2, 6240, Note_on_c, 0, 51, 100
2, 6480, Note_on_c, 0, 51, 0
2, 6480, Note_on_c, 0, 61, 100
2, 6720, Note_on_c, 0, 61, 0
2, 6720, Note_on_c, 0, 44, 100
2, 6960, Note_on_c, 0, 44, 0
2, 6960, Note_on_c, 0, 60, 100
2, 7200, Note_on_c, 0, 60, 0
2, 7200, Note_on_c, 0, 53, 100
2, 7440, Note_on_c, 0, 53, 0
2, 7440, Note_on_c, 0, 51, 100
2, 7680, Note_on_c, 0, 51, 0
2, 7680, Note_on_c, 0, 41, 100
2, 7800, Note_on_c, 0, 41, 0
2, 7800, Note_on_c, 0, 44, 100
2, 7920, Note_on_c, 0, 44, 0
2, 7920, Note_on_c, 0, 46, 100
2, 8040, Note_on_c, 0, 46, 0
2, 8040, Note_on_c, 0, 48, 100
2, 8160, Note_on_c, 0, 48, 0
2, 8160, Note_on_c, 0, 50, 100
2, 8400, Note_on_c, 0, 50, 0
2, 8400, Note_on_c, 0, 60, 100
2, 8640, Note_on_c, 0, 60, 0
2, 8640, Note_on_c, 0, 43, 100
2, 8880, Note_on_c, 0, 43, 0
2, 8880, Note_on_c, 0, 58, 100
2, 9120, Note_on_c, 0, 58, 0
2, 9120, Note_on_c, 0, 51, 100
2, 9360, Note_on_c, 0, 51, 0
2, 9360, Note_on_c, 0, 50, 100
2, 9600, Note_on_c, 0, 50, 0
2, 9600, Note_on_c, 0, 39, 100
2, 9720, Note_on_c, 0, 39, 0
2, 9720, Note_on_c, 0, 43, 100
2, 9840, Note_on_c, 0, 43, 0
2, 9840, Note_on_c, 0, 44, 100
2, 9960, Note_on_c, 0, 44, 0
2, 9960, Note_on_c, 0, 46, 100
2, 10080, Note_on_c, 0, 46, 0
2, 10080, Note_on_c, 0, 48, 100
2, 10320, Note_on_c, 0, 48, 0
2, 10320, Note_on_c, 0, 58, 100
2, 10560, Note_on_c, 0, 58, 0
2, 10560, Note_on_c, 0, 41, 100
2, 10800, Note_on_c, 0, 41, 0
2, 10800, Note_on_c, 0, 56, 100
2, 11040, Note_on_c, 0, 56, 0
2, 11040, Note_on_c, 0, 50, 100
2, 11280, Note_on_c, 0, 50, 0
2, 11280, Note_on_c, 0, 58, 100
2, 11400, Note_on_c, 0, 58, 0
2, 11400, Note_on_c, 0, 56, 100
2, 11520, Note_on_c, 0, 56, 0
2, 11520, Note_on_c, 0, 55, 100
2, 11640, Note_on_c, 0, 55, 0
2, 11640, Note_on_c, 0, 53, 100
2, 11760, Note_on_c, 0, 53, 0
2, 11760, Note_on_c, 0, 51, 100
2, 11880, Note_on_c, 0, 51, 0
2, 11880, Note_on_c, 0, 55, 100
2, 12000, Note_on_c, 0, 55, 0
2, 12000, Note_on_c, 0, 53, 100
2, 12120, Note_on_c, 0, 53, 0
2, 12120, Note_on_c, 0, 51, 100
2, 12240, Note_on_c, 0, 51, 0
2, 12240, Note_on_c, 0, 50, 100
2, 12360, Note_on_c, 0, 50, 0
2, 12360, Note_on_c, 0, 53, 100
2, 12480, Note_on_c, 0, 53, 0
2, 12480, Note_on_c, 0, 51, 100
2, 13080, Note_on_c, 0, 51, 0
2, 13080, Note_on_c, 0, 53, 100
2, 13200, Note_on_c, 0, 53, 0
2, 13200, Note_on_c, 0, 50, 100
2, 13320, Note_on_c, 0, 50, 0
2, 13320, Note_on_c, 0, 51, 100
2, 13440, Note_on_c, 0, 51, 0
2, 13440, Note_on_c, 0, 53, 100
2, 13560, Note_on_c, 0, 53, 0
2, 13560, Note_on_c, 0, 51, 100
2, 13680, Note_on_c, 0, 51, 0
2, 13680, Note_on_c, 0, 50, 100
2, 13800, Note_on_c, 0, 50, 0
2, 13800, Note_on_c, 0, 48, 100
2, 13920, Note_on_c, 0, 48, 0
2, 13920, Note_on_c, 0, 46, 100
2, 14040, Note_on_c, 0, 46, 0
2, 14040, Note_on_c, 0, 48, 100
2, 14160, Note_on_c, 0, 48, 0
2, 14160, Note_on_c, 0, 50, 100
2, 14280, Note_on_c, 0, 50, 0
2, 14280, Note_on_c, 0, 51, 100
2, 14400, Note_on_c, 0, 51, 0
2, 14400, Note_on_c, 0, 53, 100
2, 14520, Note_on_c, 0, 53, 0
2, 14520, Note_on_c, 0, 55, 100
2, 14640, Note_on_c, 0, 55, 0
2, 14640, Note_on_c, 0, 56, 100
2, 14760, Note_on_c, 0, 56, 0
2, 14760, Note_on_c, 0, 53, 100
2, 14880, Note_on_c, 0, 53, 0
2, 14880, Note_on_c, 0, 55, 100
2, 15000, Note_on_c, 0, 55, 0
2, 15000, Note_on_c, 0, 53, 100
2, 15120, Note_on_c, 0, 53, 0
2, 15120, Note_on_c, 0, 51, 100
2, 15240, Note_on_c, 0, 51, 0
2, 15240, Note_on_c, 0, 53, 100
2, 15360, Note_on_c, 0, 53, 0
2, 15360, Note_on_c, 0, 55, 100
2, 15480, Note_on_c, 0, 55, 0
2, 15480, Note_on_c, 0, 53, 100
2, 15600, Note_on_c, 0, 53, 0
2, 15600, Note_on_c, 0, 51, 100
2, 15720, Note_on_c, 0, 51, 0
2, 15720, Note_on_c, 0, 50, 100
2, 15840, Note_on_c, 0, 50, 0
2, 15840, Note_on_c, 0, 48, 100
2, 15960, Note_on_c, 0, 48, 0
2, 15960, Note_on_c, 0, 50, 100
2, 16080, Note_on_c, 0, 50, 0
2, 16080, Note_on_c, 0, 51, 100
2, 16200, Note_on_c, 0, 51, 0
2, 16200, Note_on_c, 0, 53, 100
2, 16320, Note_on_c, 0, 53, 0
2, 16320, Note_on_c, 0, 55, 100
2, 16440, Note_on_c, 0, 55, 0
2, 16440, Note_on_c, 0, 57, 100
2, 16560, Note_on_c, 0, 57, 0
2, 16560, Note_on_c, 0, 58, 100
2, 16680, Note_on_c, 0, 58, 0
2, 16680, Note_on_c, 0, 55, 100
2, 16800, Note_on_c, 0, 55, 0
2, 16800, Note_on_c, 0, 57, 100
2, 16920, Note_on_c, 0, 57, 0
2, 16920, Note_on_c, 0, 55, 100
2, 17040, Note_on_c, 0, 55, 0
2, 17040, Note_on_c, 0, 53, 100
2, 17160, Note_on_c, 0, 53, 0
2, 17160, Note_on_c, 0, 55, 100
2, 17280, Note_on_c, 0, 55, 0
2, 17280, Note_on_c, 0, 57, 100
2, 17400, Note_on_c, 0, 57, 0
2, 17400, Note_on_c, 0, 55, 100
2, 17520, Note_on_c, 0, 55, 0
2, 17520, Note_on_c, 0, 53, 100
2, 17640, Note_on_c, 0, 53, 0
2, 17640, Note_on_c, 0, 51, 100
2, 17760, Note_on_c, 0, 51, 0
2, 17760, Note_on_c, 0, 50, 100
2, 18000, Note_on_c, 0, 50, 0
2, 18000, Note_on_c, 0, 60, 100
2, 18240, Note_on_c, 0, 60, 0
2, 18240, Note_on_c, 0, 43, 100
2, 18360, Note_on_c, 0, 43, 0
2, 18360, Note_on_c, 0, 46, 100
2, 18480, Note_on_c, 0, 46, 0
2, 18480, Note_on_c, 0, 48, 100
2, 18600, Note_on_c, 0, 48, 0
2, 18600, Note_on_c, 0, 50, 100
2, 18720, Note_on_c, 0, 50, 0
2, 18720, Note_on_c, 0, 51, 100
2, 18960, Note_on_c, 0, 51, 0
2, 18960, Note_on_c, 0, 62, 100
2, 19200, Note_on_c, 0, 62, 0
2, 19200, Note_on_c, 0, 60, 100
2, 19320, Note_on_c, 0, 60, 0
2, 19320, Note_on_c, 0, 58, 100
2, 19440, Note_on_c, 0, 58, 0
2, 19440, Note_on_c, 0, 57, 100
2, 19560, Note_on_c, 0, 57, 0
2, 19560, Note_on_c, 0, 55, 100
2, 19680, Note_on_c, 0, 55, 0
2, 19680, Note_on_c, 0, 53, 100
2, 19920, Note_on_c, 0, 53, 0
2, 19920, Note_on_c, 0, 63, 100
2, 20160, Note_on_c, 0, 63, 0
2, 20160, Note_on_c, 0, 46, 100
2, 20280, Note_on_c, 0, 46, 0
2, 20280, Note_on_c, 0, 50, 100
2, 20400, Note_on_c, 0, 50, 0
2, 20400, Note_on_c, 0, 51, 100
2, 20520, Note_on_c, 0, 51, 0
2, 20520, Note_on_c, 0, 53, 100
2, 20640, Note_on_c, 0, 53, 0
2, 20640, Note_on_c, 0, 55, 100
2, 20880, Note_on_c, 0, 55, 0
2, 20880, Note_on_c, 0, 65, 100
2, 21120, Note_on_c, 0, 65, 0
2, 21120, Note_on_c, 0, 63, 100
2, 21240, Note_on_c, 0, 63, 0
2, 21240, Note_on_c, 0, 62, 100
2, 21360, Note_on_c, 0, 62, 0
2, 21360, Note_on_c, 0, 60, 100
2, 21480, Note_on_c, 0, 60, 0
2, 21480, Note_on_c, 0, 58, 100
2, 21600, Note_on_c, 0, 58, 0
2, 21600, Note_on_c, 0, 57, 100
2, 21840, Note_on_c, 0, 57, 0
2, 21840, Note_on_c, 0, 67, 100
2, 22080, Note_on_c, 0, 67, 0
2, 22080, Note_on_c, 0, 65, 100
2, 22200, Note_on_c, 0, 65, 0
2, 22200, Note_on_c, 0, 63, 100
2, 22320, Note_on_c, 0, 63, 0
2, 22320, Note_on_c, 0, 62, 100
2, 22440, Note_on_c, 0, 62, 0
2, 22440, Note_on_c, 0, 60, 100
2, 22560, Note_on_c, 0, 60, 0
2, 22560, Note_on_c, 0, 58, 100
2, 22800, Note_on_c, 0, 58, 0
2, 22800, Note_on_c, 0, 56, 100
2, 23040, Note_on_c, 0, 56, 0
2, 23040, Note_on_c, 0, 55, 100
2, 23160, Note_on_c, 0, 55, 0
2, 23160, Note_on_c, 0, 53, 100
2, 23280, Note_on_c, 0, 53, 0
2, 23280, Note_on_c, 0, 51, 100
2, 23400, Note_on_c, 0, 51, 0
2, 23400, Note_on_c, 0, 50, 100
2, 23520, Note_on_c, 0, 50, 0
2, 23520, Note_on_c, 0, 48, 100
2, 23760, Note_on_c, 0, 48, 0
2, 23760, Note_on_c, 0, 46, 100
2, 24000, Note_on_c, 0, 46, 0
2, 24000, Note_on_c, 0, 45, 100
2, 24120, Note_on_c, 0, 45, 0
2, 24120, Note_on_c, 0, 51, 100
2, 24240, Note_on_c, 0, 51, 0
2, 24240, Note_on_c, 0, 55, 100
2, 24720, Note_on_c, 0, 55, 0
2, 24720, Note_on_c, 0, 53, 100
2, 24840, Note_on_c, 0, 53, 0
2, 24840, Note_on_c, 0, 51, 100
2, 24960, Note_on_c, 0, 51, 0
2, 24960, Note_on_c, 0, 50, 100
2, 25080, Note_on_c, 0, 50, 0
2, 25080, Note_on_c, 0, 48, 100
2, 25200, Note_on_c, 0, 48, 0
2, 25200, Note_on_c, 0, 46, 100
2, 25320, Note_on_c, 0, 46, 0
2, 25320, Note_on_c, 0, 50, 100
2, 25440, Note_on_c, 0, 50, 0
2, 25440, Note_on_c, 0, 48, 100
2, 25560, Note_on_c, 0, 48, 0
2, 25560, Note_on_c, 0, 46, 100
2, 25680, Note_on_c, 0, 46, 0
2, 25680, Note_on_c, 0, 45, 100
2, 25800, Note_on_c, 0, 45, 0
2, 25800, Note_on_c, 0, 48, 100
2, 25920, Note_on_c, 0, 48, 0
2, 25920, Note_on_c, 0, 46, 100
2, 26040, Note_on_c, 0, 46, 0
2, 26040, Note_on_c, 0, 50, 100
2, 26160, Note_on_c, 0, 50, 0
2, 26160, Note_on_c, 0, 48, 100
2, 26280, Note_on_c, 0, 48, 0
2, 26280, Note_on_c, 0, 46, 100
2, 26400, Note_on_c, 0, 46, 0
2, 26400, Note_on_c, 0, 48, 100
2, 26520, Note_on_c, 0, 48, 0
2, 26520, Note_on_c, 0, 51, 100
2, 26640, Note_on_c, 0, 51, 0
2, 26640, Note_on_c, 0, 50, 100
2, 26760, Note_on_c, 0, 50, 0
2, 26760, Note_on_c, 0, 48, 100
2, 26880, Note_on_c, 0, 48, 0
2, 26880, Note_on_c, 0, 50, 100
2, 27000, Note_on_c, 0, 50, 0
2, 27000, Note_on_c, 0, 51, 100
2, 27120, Note_on_c, 0, 51, 0
2, 27120, Note_on_c, 0, 53, 100
2, 27240, Note_on_c, 0, 53, 0
2, 27240, Note_on_c, 0, 55, 100
2, 27360, Note_on_c, 0, 55, 0
2, 27360, Note_on_c, 0, 56, 100
2, 27600, Note_on_c, 0, 56, 0
2, 27600, Note_on_c, 0, 46, 100
2, 27840, Note_on_c, 0, 46, 0
2, 27840, Note_on_c, 0, 39, 100
2, 28080, Note_on_c, 0, 39, 0
2, 28080, Note_on_c, 0, 56, 100
2, 28320, Note_on_c, 0, 56, 0
2, 28320, Note_on_c, 0, 55, 100
2, 28440, Note_on_c, 0, 55, 0
2, 28440, Note_on_c, 0, 53, 100
2, 28560, Note_on_c, 0, 53, 0
2, 28560, Note_on_c, 0, 51, 100
2, 28680, Note_on_c, 0, 51, 0
2, 28680, Note_on_c, 0, 50, 100
2, 28800, Note_on_c, 0, 50, 0
2, 28800, Note_on_c, 0, 48, 100
2, 28920, Note_on_c, 0, 48, 0
2, 28920, Note_on_c, 0, 50, 100
2, 29040, Note_on_c, 0, 50, 0
2, 29040, Note_on_c, 0, 51, 100
2, 29160, Note_on_c, 0, 51, 0
2, 29160, Note_on_c, 0, 53, 100
2, 29280, Note_on_c, 0, 53, 0
2, 29280, Note_on_c, 0, 55, 100
2, 29520, Note_on_c, 0, 55, 0
2, 29520, Note_on_c, 0, 58, 100
2, 29760, Note_on_c, 0, 58, 0
2, 29760, Note_on_c, 0, 57, 100
2, 29880, Note_on_c, 0, 57, 0
2, 29880, Note_on_c, 0, 58, 100
2, 30000, Note_on_c, 0, 58, 0
2, 30000, Note_on_c, 0, 60, 100
2, 30120, Note_on_c, 0, 60, 0
2, 30120, Note_on_c, 0, 58, 100
2, 30240, Note_on_c, 0, 58, 0
2, 30240, Note_on_c, 0, 57, 100
2, 30360, Note_on_c, 0, 57, 0
2, 30360, Note_on_c, 0, 55, 100
2, 30480, Note_on_c, 0, 55, 0
2, 30480, Note_on_c, 0, 53, 100
2, 30600, Note_on_c, 0, 53, 0
2, 30600, Note_on_c, 0, 51, 100
2, 30720, Note_on_c, 0, 51, 0
2, 30720, Note_on_c, 0, 50, 100
2, 30840, Note_on_c, 0, 50, 0
2, 30840, Note_on_c, 0, 48, 100
2, 30960, Note_on_c, 0, 48, 0
2, 30960, Note_on_c, 0, 46, 100
2, 31080, Note_on_c, 0, 46, 0
2, 31080, Note_on_c, 0, 50, 100
2, 31200, Note_on_c, 0, 50, 0
2, 31200, Note_on_c, 0, 48, 100
2, 31320, Note_on_c, 0, 48, 0
2, 31320, Note_on_c, 0, 46, 100
2, 31440, Note_on_c, 0, 46, 0
2, 31440, Note_on_c, 0, 45, 100
2, 31560, Note_on_c, 0, 45, 0
2, 31560, Note_on_c, 0, 48, 100
2, 31680, Note_on_c, 0, 48, 0
2, 31680, Note_on_c, 0, 46, 100
2, 32400, Note_on_c, 0, 46, 0
2, 32400, Note_on_c, 0, 58, 100
2, 32640, Note_on_c, 0, 58, 0
2, 32640, Note_on_c, 0, 63, 100
2, 32880, Note_on_c, 0, 63, 0
2, 32880, Note_on_c, 0, 62, 100
2, 33000, Note_on_c, 0, 62, 0
2, 33000, Note_on_c, 0, 60, 100
2, 33120, Note_on_c, 0, 60, 0
2, 33120, Note_on_c, 0, 58, 100
2, 33240, Note_on_c, 0, 58, 0
2, 33240, Note_on_c, 0, 56, 100
2, 33360, Note_on_c, 0, 56, 0
2, 33360, Note_on_c, 0, 55, 100
2, 33480, Note_on_c, 0, 55, 0
2, 33480, Note_on_c, 0, 56, 100
2, 33600, Note_on_c, 0, 56, 0
2, 33600, Note_on_c, 0, 58, 100
2, 33720, Note_on_c, 0, 58, 0
2, 33720, Note_on_c, 0, 56, 100
2, 33840, Note_on_c, 0, 56, 0
2, 33840, Note_on_c, 0, 55, 100
2, 33960, Note_on_c, 0, 55, 0
2, 33960, Note_on_c, 0, 53, 100
2, 34080, Note_on_c, 0, 53, 0
2, 34080, Note_on_c, 0, 51, 100
2, 34200, Note_on_c, 0, 51, 0
2, 34200, Note_on_c, 0, 50, 100
2, 34320, Note_on_c, 0, 50, 0
2, 34320, Note_on_c, 0, 48, 100
2, 34440, Note_on_c, 0, 48, 0
2, 34440, Note_on_c, 0, 46, 100
2, 34560, Note_on_c, 0, 46, 0
2, 34560, Note_on_c, 0, 48, 100
2, 34680, Note_on_c, 0, 48, 0
2, 34680, Note_on_c, 0, 51, 100
2, 34800, Note_on_c, 0, 51, 0
2, 34800, Note_on_c, 0, 53, 100
2, 34920, Note_on_c, 0, 53, 0
2, 34920, Note_on_c, 0, 55, 100
2, 35040, Note_on_c, 0, 55, 0
2, 35040, Note_on_c, 0, 56, 100
2, 35160, Note_on_c, 0, 56, 0
2, 35160, Note_on_c, 0, 55, 100
2, 35280, Note_on_c, 0, 55, 0
2, 35280, Note_on_c, 0, 53, 100
2, 35400, Note_on_c, 0, 53, 0
2, 35400, Note_on_c, 0, 51, 100
2, 35520, Note_on_c, 0, 51, 0
2, 35520, Note_on_c, 0, 50, 100
2, 35640, Note_on_c, 0, 50, 0
2, 35640, Note_on_c, 0, 51, 100
2, 35760, Note_on_c, 0, 51, 0
2, 35760, Note_on_c, 0, 53, 100
2, 35880, Note_on_c, 0, 53, 0
2, 35880, Note_on_c, 0, 50, 100
2, 36000, Note_on_c, 0, 50, 0
2, 36000, Pitch_bend_c, 0, 16383
2, 36000, Note_on_c, 0, 46, 100
2, 36040, Pitch_bend_c, 0, 8192
2, 36080, Pitch_bend_c, 0, 16383
2, 36120, Pitch_bend_c, 0, 8192
2, 36240, Note_on_c, 0, 46, 0
2, 36240, Note_on_c, 0, 44, 100
2, 36480, Note_on_c, 0, 44, 0
2, 36480, Note_on_c, 0, 43, 100
2, 36600, Note_on_c, 0, 43, 0
2, 36600, Note_on_c, 0, 46, 100
2, 36720, Note_on_c, 0, 46, 0
2, 36720, Note_on_c, 0, 48, 100
2, 36840, Note_on_c, 0, 48, 0
2, 36840, Note_on_c, 0, 50, 100
2, 36960, Note_on_c, 0, 50, 0
2, 36960, Note_on_c, 0, 51, 100
2, 37200, Note_on_c, 0, 51, 0
2, 37200, Note_on_c, 0, 61, 100
2, 37440, Note_on_c, 0, 61, 0
2, 37440, Note_on_c, 0, 44, 100
2, 37680, Note_on_c, 0, 44, 0
2, 37680, Note_on_c, 0, 60, 100
2, 37920, Note_on_c, 0, 60, 0
2, 37920, Note_on_c, 0, 53, 100
2, 38160, Note_on_c, 0, 53, 0
2, 38160, Note_on_c, 0, 51, 100
2, 38400, Note_on_c, 0, 51, 0
2, 38400, Note_on_c, 0, 41, 100
2, 38520, Note_on_c, 0, 41, 0
2, 38520, Note_on_c, 0, 44, 100
2, 38640, Note_on_c, 0, 44, 0
2, 38640, Note_on_c, 0, 46, 100
2, 38760, Note_on_c, 0, 46, 0
2, 38760, Note_on_c, 0, 48, 100
2, 38880, Note_on_c, 0, 48, 0
2, 38880, Note_on_c, 0, 50, 100
2, 39120, Note_on_c, 0, 50, 0
2, 39120, Note_on_c, 0, 60, 100
2, 39360, Note_on_c, 0, 60, 0
2, 39360, Note_on_c, 0, 43, 100
2, 39600, Note_on_c, 0, 43, 0
2, 39600, Note_on_c, 0, 58, 100
2, 39840, Note_on_c, 0, 58, 0
2, 39840, Note_on_c, 0, 51, 100
2, 40080, Note_on_c, 0, 51, 0
2, 40080, Note_on_c, 0, 50, 100
2, 40320, Note_on_c, 0, 50, 0
2, 40320, Note_on_c, 0, 39, 100
2, 40440, Note_on_c, 0, 39, 0
2, 40440, Note_on_c, 0, 43, 100
2, 40560, Note_on_c, 0, 43, 0
2, 40560, Note_on_c, 0, 44, 100
2, 40680, Note_on_c, 0, 44, 0
2, 40680, Note_on_c, 0, 46, 100
2, 40800, Note_on_c, 0, 46, 0
2, 40800, Note_on_c, 0, 48, 100
2, 41040, Note_on_c, 0, 48, 0
2, 41040, Note_on_c, 0, 58, 100
2, 41280, Note_on_c, 0, 58, 0
2, 41280, Note_on_c, 0, 41, 100
2, 41520, Note_on_c, 0, 41, 0
2, 41520, Note_on_c, 0, 56, 100
2, 41760, Note_on_c, 0, 56, 0
2, 41760, Note_on_c, 0, 50, 100
2, 42000, Note_on_c, 0, 50, 0
2, 42000, Note_on_c, 0, 58, 100
2, 42120, Note_on_c, 0, 58, 0
2, 42120, Note_on_c, 0, 56, 100
2, 42240, Note_on_c, 0, 56, 0
2, 42240, Note_on_c, 0, 55, 100
2, 42360, Note_on_c, 0, 55, 0
2, 42360, Note_on_c, 0, 53, 100
2, 42480, Note_on_c, 0, 53, 0
2, 42480, Note_on_c, 0, 51, 100
2, 42600, Note_on_c, 0, 51, 0
2, 42600, Note_on_c, 0, 55, 100
2, 42720, Note_on_c, 0, 55, 0
2, 42720, Note_on_c, 0, 53, 100
2, 42840, Note_on_c, 0, 53, 0
2, 42840, Note_on_c, 0, 51, 100
2, 42960, Note_on_c, 0, 51, 0
2, 42960, Note_on_c, 0, 50, 100
2, 43080, Note_on_c, 0, 50, 0
2, 43080, Note_on_c, 0, 53, 100
2, 43200, Note_on_c, 0, 53, 0
2, 43200, Note_on_c, 0, 51, 100
2, 43800, Note_on_c, 0, 51, 0
2, 43800, Note_on_c, 0, 53, 100
2, 43920, Note_on_c, 0, 53, 0
2, 43920, Note_on_c, 0, 50, 100
2, 44040, Note_on_c, 0, 50, 0
2, 44040, Note_on_c, 0, 51, 100
2, 44160, Note_on_c, 0, 51, 0
2, 44160, Note_on_c, 0, 53, 100
2, 44280, Note_on_c, 0, 53, 0
2, 44280, Note_on_c, 0, 51, 100
2, 44400, Note_on_c, 0, 51, 0
2, 44400, Note_on_c, 0, 50, 100
2, 44520, Note_on_c, 0, 50, 0
2, 44520, Note_on_c, 0, 48, 100
2, 44640, Note_on_c, 0, 48, 0
2, 44640, Note_on_c, 0, 46, 100
2, 44760, Note_on_c, 0, 46, 0
2, 44760, Note_on_c, 0, 48, 100
2, 44880, Note_on_c, 0, 48, 0
2, 44880, Note_on_c, 0, 50, 100
2, 45000, Note_on_c, 0, 50, 0
2, 45000, Note_on_c, 0, 51, 100
2, 45120, Note_on_c, 0, 51, 0
2, 45120, Note_on_c, 0, 53, 100
2, 45240, Note_on_c, 0, 53, 0
2, 45240, Note_on_c, 0, 55, 100
2, 45360, Note_on_c, 0, 55, 0
2, 45360, Note_on_c, 0, 56, 100
2, 45480, Note_on_c, 0, 56, 0
2, 45480, Note_on_c, 0, 53, 100
2, 45600, Note_on_c, 0, 53, 0
2, 45600, Note_on_c, 0, 55, 100
2, 45720, Note_on_c, 0, 55, 0
2, 45720, Note_on_c, 0, 53, 100
2, 45840, Note_on_c, 0, 53, 0
2, 45840, Note_on_c, 0, 51, 100
2, 45960, Note_on_c, 0, 51, 0
2, 45960, Note_on_c, 0, 53, 100
2, 46080, Note_on_c, 0, 53, 0
2, 46080, Note_on_c, 0, 55, 100
2, 46200, Note_on_c, 0, 55, 0
2, 46200, Note_on_c, 0, 53, 100
2, 46320, Note_on_c, 0, 53, 0
2, 46320, Note_on_c, 0, 51, 100
2, 46440, Note_on_c, 0, 51, 0
2, 46440, Note_on_c, 0, 50, 100
2, 46560, Note_on_c, 0, 50, 0
2, 46560, Note_on_c, 0, 48, 100
2, 46680, Note_on_c, 0, 48, 0
2, 46680, Note_on_c, 0, 50, 100
2, 46800, Note_on_c, 0, 50, 0
2, 46800, Note_on_c, 0, 51, 100
2, 46920, Note_on_c, 0, 51, 0
2, 46920, Note_on_c, 0, 53, 100
2, 47040, Note_on_c, 0, 53, 0
2, 47040, Note_on_c, 0, 55, 100
2, 47160, Note_on_c, 0, 55, 0
2, 47160, Note_on_c, 0, 57, 100
2, 47280, Note_on_c, 0, 57, 0
2, 47280, Note_on_c, 0, 58, 100
2, 47400, Note_on_c, 0, 58, 0
2, 47400, Note_on_c, 0, 55, 100
2, 47520, Note_on_c, 0, 55, 0
2, 47520, Note_on_c, 0, 57, 100
2, 47640, Note_on_c, 0, 57, 0
2, 47640, Note_on_c, 0, 55, 100
2, 47760, Note_on_c, 0, 55, 0
2, 47760, Note_on_c, 0, 53, 100
2, 47880, Note_on_c, 0, 53, 0
2, 47880, Note_on_c, 0, 55, 100
2, 48000, Note_on_c, 0, 55, 0
2, 48000, Note_on_c, 0, 57, 100
2, 48120, Note_on_c, 0, 57, 0
2, 48120, Note_on_c, 0, 55, 100
2, 48240, Note_on_c, 0, 55, 0
2, 48240, Note_on_c, 0, 53, 100
2, 48360, Note_on_c, 0, 53, 0
2, 48360, Note_on_c, 0, 51, 100
2, 48480, Note_on_c, 0, 51, 0
2, 48480, Note_on_c, 0, 50, 100
2, 48720, Note_on_c, 0, 50, 0
2, 48720, Note_on_c, 0, 60, 100
2, 48960, Note_on_c, 0, 60, 0
2, 48960, Note_on_c, 0, 43, 100
2, 49080, Note_on_c, 0, 43, 0
2, 49080, Note_on_c, 0, 46, 100
2, 49200, Note_on_c, 0, 46, 0
2, 49200, Note_on_c, 0, 48, 100
2, 49320, Note_on_c, 0, 48, 0
2, 49320, Note_on_c, 0, 50, 100
2, 49440, Note_on_c, 0, 50, 0
2, 49440, Note_on_c, 0, 51, 100
2, 49680, Note_on_c, 0, 51, 0
2, 49680, Note_on_c, 0, 62, 100
2, 49920, Note_on_c, 0, 62, 0
2, 49920, Note_on_c, 0, 60, 100
2, 50040, Note_on_c, 0, 60, 0
2, 50040, Note_on_c, 0, 58, 100
2, 50160, Note_on_c, 0, 58, 0
2, 50160, Note_on_c, 0, 57, 100
2, 50280, Note_on_c, 0, 57, 0
2, 50280, Note_on_c, 0, 55, 100
2, 50400, Note_on_c, 0, 55, 0
2, 50400, Note_on_c, 0, 53, 100
2, 50640, Note_on_c, 0, 53, 0
2, 50640, Note_on_c, 0, 63, 100
2, 50880, Note_on_c, 0, 63, 0
2, 50880, Note_on_c, 0, 46, 100
2, 51000, Note_on_c, 0, 46, 0
2, 51000, Note_on_c, 0, 50, 100
2, 51120, Note_on_c, 0, 50, 0
2, 51120, Note_on_c, 0, 51, 100
2, 51240, Note_on_c, 0, 51, 0
2, 51240, Note_on_c, 0, 53, 100
2, 51360, Note_on_c, 0, 53, 0
2, 51360, Note_on_c, 0, 55, 100
2, 51600, Note_on_c, 0, 55, 0
2, 51600, Note_on_c, 0, 65, 100
2, 51840, Note_on_c, 0, 65, 0
2, 51840, Note_on_c, 0, 63, 100
2, 51960, Note_on_c, 0, 63, 0
2, 51960, Note_on_c, 0, 62, 100
2, 52080, Note_on_c, 0, 62, 0
2, 52080, Note_on_c, 0, 60, 100
2, 52200, Note_on_c, 0, 60, 0
2, 52200, Note_on_c, 0, 58, 100
2, 52320, Note_on_c, 0, 58, 0
2, 52320, Note_on_c, 0, 57, 100
2, 52560, Note_on_c, 0, 57, 0
2, 52560, Note_on_c, 0, 67, 100
2, 52800, Note_on_c, 0, 67, 0
2, 52800, Note_on_c, 0, 65, 100
2, 52920, Note_on_c, 0, 65, 0
2, 52920, Note_on_c, 0, 63, 100
2, 53040, Note_on_c, 0, 63, 0
2, 53040, Note_on_c, 0, 62, 100
2, 53160, Note_on_c, 0, 62, 0
2, 53160, Note_on_c, 0, 60, 100
2, 53280, Note_on_c, 0, 60, 0
2, 53280, Note_on_c, 0, 58, 100
2, 53520, Note_on_c, 0, 58, 0
2, 53520, Note_on_c, 0, 56, 100
2, 53760, Note_on_c, 0, 56, 0
2, 53760, Note_on_c, 0, 55, 100
2, 53880, Note_on_c, 0, 55, 0
2, 53880, Note_on_c, 0, 53, 100
2, 54000, Note_on_c, 0, 53, 0
2, 54000, Note_on_c, 0, 51, 100
2, 54120, Note_on_c, 0, 51, 0
2, 54120, Note_on_c, 0, 50, 100
2, 54240, Note_on_c, 0, 50, 0
2, 54240, Note_on_c, 0, 48, 100
2, 54480, Note_on_c, 0, 48, 0
2, 54480, Note_on_c, 0, 46, 100
2, 54720, Note_on_c, 0, 46, 0
2, 54720, Note_on_c, 0, 45, 100
2, 54840, Note_on_c, 0, 45, 0
2, 54840, Note_on_c, 0, 51, 100
2, 54960, Note_on_c, 0, 51, 0
2, 54960, Note_on_c, 0, 55, 100
2, 55440, Note_on_c, 0, 55, 0
2, 55440, Note_on_c, 0, 53, 100
2, 55560, Note_on_c, 0, 53, 0
2, 55560, Note_on_c, 0, 51, 100
2, 55680, Note_on_c, 0, 51, 0
2, 55680, Note_on_c, 0, 50, 100
2, 55800, Note_on_c, 0, 50, 0
2, 55800, Note_on_c, 0, 48, 100
2, 55920, Note_on_c, 0, 48, 0
2, 55920, Note_on_c, 0, 46, 100
2, 56040, Note_on_c, 0, 46, 0
2, 56040, Note_on_c, 0, 50, 100
2, 56160, Note_on_c, 0, 50, 0
2, 56160, Note_on_c, 0, 48, 100
2, 56280, Note_on_c, 0, 48, 0
2, 56280, Note_on_c, 0, 46, 100
2, 56400, Note_on_c, 0, 46, 0
2, 56400, Note_on_c, 0, 45, 100
2, 56520, Note_on_c, 0, 45, 0
2, 56520, Note_on_c, 0, 48, 100
2, 56640, Note_on_c, 0, 48, 0
2, 56640, Note_on_c, 0, 46, 100
2, 56760, Note_on_c, 0, 46, 0
2, 56760, Note_on_c, 0, 50, 100
2, 56880, Note_on_c, 0, 50, 0
2, 56880, Note_on_c, 0, 48, 100
2, 57000, Note_on_c, 0, 48, 0
2, 57000, Note_on_c, 0, 46, 100
2, 57120, Note_on_c, 0, 46, 0
2, 57120, Note_on_c, 0, 48, 100
2, 57240, Note_on_c, 0, 48, 0
2, 57240, Note_on_c, 0, 51, 100
2, 57360, Note_on_c, 0, 51, 0
2, 57360, Note_on_c, 0, 50, 100
2, 57480, Note_on_c, 0, 50, 0
2, 57480, Note_on_c, 0, 48, 100
2, 57600, Note_on_c, 0, 48, 0
2, 57600, Note_on_c, 0, 50, 100
2, 57720, Note_on_c, 0, 50, 0
2, 57720, Note_on_c, 0, 51, 100
2, 57840, Note_on_c, 0, 51, 0
2, 57840, Note_on_c, 0, 53, 100
2, 57960, Note_on_c, 0, 53, 0
2, 57960, Note_on_c, 0, 55, 100
2, 58080, Note_on_c, 0, 55, 0
2, 58080, Note_on_c, 0, 56, 100
2, 58320, Note_on_c, 0, 56, 0
2, 58320, Note_on_c, 0, 46, 100
2, 58560, Note_on_c, 0, 46, 0
2, 58560, Note_on_c, 0, 39, 100
2, 58800, Note_on_c, 0, 39, 0
2, 58800, Note_on_c, 0, 56, 100
2, 59040, Note_on_c, 0, 56, 0
2, 59040, Note_on_c, 0, 55, 100
2, 59160, Note_on_c, 0, 55, 0
2, 59160, Note_on_c, 0, 53, 100
2, 59280, Note_on_c, 0, 53, 0
2, 59280, Note_on_c, 0, 51, 100
2, 59400, Note_on_c, 0, 51, 0
2, 59400, Note_on_c, 0, 50, 100
2, 59520, Note_on_c, 0, 50, 0
2, 59520, Note_on_c, 0, 48, 100
2, 59640, Note_on_c, 0, 48, 0
2, 59640, Note_on_c, 0, 50, 100
2, 59760, Note_on_c, 0, 50, 0
2, 59760, Note_on_c, 0, 51, 100
2, 59880, Note_on_c, 0, 51, 0
2, 59880, Note_on_c, 0, 53, 100
2, 60000, Note_on_c, 0, 53, 0
2, 60000, Note_on_c, 0, 55, 100
2, 60240, Note_on_c, 0, 55, 0
2, 60240, Note_on_c, 0, 58, 100
2, 60480, Note_on_c, 0, 58, 0
2, 60480, Note_on_c, 0, 57, 100
2, 60600, Note_on_c, 0, 57, 0
2, 60600, Note_on_c, 0, 58, 100
2, 60720, Note_on_c, 0, 58, 0
2, 60720, Note_on_c, 0, 60, 100
2, 60840, Note_on_c, 0, 60, 0
2, 60840, Note_on_c, 0, 58, 100
2, 60960, Note_on_c, 0, 58, 0
2, 60960, Note_on_c, 0, 57, 100
2, 61080, Note_on_c, 0, 57, 0
2, 61080, Note_on_c, 0, 55, 100
2, 61200, Note_on_c, 0, 55, 0
2, 61200, Note_on_c, 0, 53, 100
2, 61320, Note_on_c, 0, 53, 0
2, 61320, Note_on_c, 0, 51, 100
2, 61440, Note_on_c, 0, 51, 0
2, 61440, Note_on_c, 0, 50, 100
2, 61560, Note_on_c, 0, 50, 0
2, 61560, Note_on_c, 0, 48, 100
2, 61680, Note_on_c, 0, 48, 0
2, 61680, Note_on_c, 0, 46, 100
2, 61800, Note_on_c, 0, 46, 0
2, 61800, Note_on_c, 0, 50, 100
2, 61920, Note_on_c, 0, 50, 0
2, 61920, Note_on_c, 0, 48, 100
2, 62040, Note_on_c, 0, 48, 0
2, 62040, Note_on_c, 0, 46, 100
2, 62160, Note_on_c, 0, 46, 0
2, 62160, Note_on_c, 0, 45, 100
2, 62280, Note_on_c, 0, 45, 0
2, 62280, Note_on_c, 0, 48, 100
2, 62400, Note_on_c, 0, 48, 0
2, 62400, Note_on_c, 0, 46, 100
2, 63120, Note_on_c, 0, 46, 0
2, 63120, Note_on_c, 0, 53, 100
2, 63360, Note_on_c, 0, 53, 0
2, 63360, Note_on_c, 0, 58, 100
2, 63600, Note_on_c, 0, 58, 0
2, 63600, Note_on_c, 0, 57, 100
2, 63720, Note_on_c, 0, 57, 0
2, 63720, Note_on_c, 0, 55, 100
2, 63840, Note_on_c, 0, 55, 0
2, 63840, Note_on_c, 0, 53, 100
2, 63960, Note_on_c, 0, 53, 0
2, 63960, Note_on_c, 0, 51, 100
2, 64080, Note_on_c, 0, 51, 0
2, 64080, Note_on_c, 0, 50, 100
2, 64200, Note_on_c, 0, 50, 0
2, 64200, Note_on_c, 0, 51, 100
2, 64320, Note_on_c, 0, 51, 0
2, 64320, Note_on_c, 0, 53, 100
2, 64440, Note_on_c, 0, 53, 0
2, 64440, Note_on_c, 0, 51, 100
2, 64560, Note_on_c, 0, 51, 0
2, 64560, Note_on_c, 0, 50, 100
2, 64680, Note_on_c, 0, 50, 0
2, 64680, Note_on_c, 0, 48, 100
2, 64800, Note_on_c, 0, 48, 0
2, 64800, Note_on_c, 0, 46, 100
2, 64920, Note_on_c, 0, 46, 0
2, 64920, Note_on_c, 0, 44, 100
2, 65040, Note_on_c, 0, 44, 0
2, 65040, Note_on_c, 0, 43, 100
2, 65160, Note_on_c, 0, 43, 0
2, 65160, Note_on_c, 0, 41, 100
2, 65280, Note_on_c, 0, 41, 0
2, 65280, Note_on_c, 0, 43, 100
2, 65400, Note_on_c, 0, 43, 0
2, 65400, Note_on_c, 0, 51, 100
2, 65520, Note_on_c, 0, 51, 0
2, 65520, Note_on_c, 0, 53, 100
2, 65640, Note_on_c, 0, 53, 0
2, 65640, Note_on_c, 0, 55, 100
2, 65760, Note_on_c, 0, 55, 0
2, 65760, Note_on_c, 0, 50, 100
2, 65880, Note_on_c, 0, 50, 0
2, 65880, Note_on_c, 0, 56, 100
2, 66000, Note_on_c, 0, 56, 0
2, 66000, Note_on_c, 0, 55, 100
2, 66120, Note_on_c, 0, 55, 0
2, 66120, Note_on_c, 0, 53, 100
2, 66240, Note_on_c, 0, 53, 0
2, 66240, Note_on_c, 0, 55, 100
2, 66360, Note_on_c, 0, 55, 0
2, 66360, Note_on_c, 0, 56, 100
2, 66480, Note_on_c, 0, 56, 0
2, 66480, Note_on_c, 0, 58, 100
2, 66600, Note_on_c, 0, 58, 0
2, 66600, Note_on_c, 0, 55, 100
2, 66720, Note_on_c, 0, 55, 0
2, 66720, Note_on_c, 0, 51, 100
2, 66960, Note_on_c, 0, 51, 0
2, 66960, Note_on_c, 0, 50, 100
2, 67080, Note_on_c, 0, 50, 0
2, 67080, Note_on_c, 0, 48, 100
2, 67200, Note_on_c, 0, 48, 0
2, 67200, Note_on_c, 0, 47, 100
2, 67320, Note_on_c, 0, 47, 0
2, 67320, Note_on_c, 0, 48, 100
2, 67440, Note_on_c, 0, 48, 0
2, 67440, Note_on_c, 0, 50, 100
2, 67560, Note_on_c, 0, 50, 0
2, 67560, Note_on_c, 0, 51, 100
2, 67680, Note_on_c, 0, 51, 0
2, 67680, Note_on_c, 0, 53, 100
2, 67920, Note_on_c, 0, 53, 0
2, 67920, Note_on_c, 0, 56, 100
2, 68160, Note_on_c, 0, 56, 0
2, 68160, Note_on_c, 0, 62, 100
2, 68280, Note_on_c, 0, 62, 0
2, 68280, Note_on_c, 0, 60, 100
2, 68400, Note_on_c, 0, 60, 0
2, 68400, Note_on_c, 0, 59, 100
2, 68520, Note_on_c, 0, 59, 0
2, 68520, Note_on_c, 0, 57, 100
2, 68640, Note_on_c, 0, 57, 0
2, 68640, Note_on_c, 0, 55, 100
2, 68880, Note_on_c, 0, 55, 0
2, 68880, Note_on_c, 0, 53, 100
2, 69120, Note_on_c, 0, 53, 0
2, 69120, Note_on_c, 0, 48, 100
2, 69240, Note_on_c, 0, 48, 0
2, 69240, Note_on_c, 0, 50, 100
2, 69360, Note_on_c, 0, 50, 0
2, 69360, Note_on_c, 0, 51, 100
2, 69480, Note_on_c, 0, 51, 0
2, 69480, Note_on_c, 0, 53, 100
2, 69600, Note_on_c, 0, 53, 0
2, 69600, Note_on_c, 0, 55, 100
2, 69720, Note_on_c, 0, 55, 0
2, 69720, Note_on_c, 0, 59, 100
2, 69840, Note_on_c, 0, 59, 0
2, 69840, Note_on_c, 0, 60, 100
2, 69960, Note_on_c, 0, 60, 0
2, 69960, Note_on_c, 0, 62, 100
2, 70080, Note_on_c, 0, 62, 0
2, 70080, Note_on_c, 0, 63, 100
2, 70200, Note_on_c, 0, 63, 0
2, 70200, Note_on_c, 0, 62, 100
2, 70320, Note_on_c, 0, 62, 0
2, 70320, Note_on_c, 0, 60, 100
2, 70440, Note_on_c, 0, 60, 0
2, 70440, Note_on_c, 0, 58, 100
2, 70560, Note_on_c, 0, 58, 0
2, 70560, Note_on_c, 0, 56, 100
2, 70680, Note_on_c, 0, 56, 0
2, 70680, Note_on_c, 0, 55, 100
2, 70800, Note_on_c, 0, 55, 0
2, 70800, Note_on_c, 0, 53, 100
2, 70920, Note_on_c, 0, 53, 0
2, 70920, Note_on_c, 0, 51, 100
2, 71040, Note_on_c, 0, 51, 0
2, 71040, Note_on_c, 0, 56, 100
2, 71160, Note_on_c, 0, 56, 0
2, 71160, Note_on_c, 0, 55, 100
2, 71280, Note_on_c, 0, 55, 0
2, 71280, Note_on_c, 0, 53, 100
2, 71400, Note_on_c, 0, 53, 0
2, 71400, Note_on_c, 0, 51, 100
2, 71520, Note_on_c, 0, 51, 0
2, 71520, Note_on_c, 0, 50, 100
2, 71640, Note_on_c, 0, 50, 0
2, 71640, Note_on_c, 0, 48, 100
2, 71760, Note_on_c, 0, 48, 0
2, 71760, Note_on_c, 0, 47, 100
2, 71880, Note_on_c, 0, 47, 0
2, 71880, Note_on_c, 0, 45, 100
2, 72000, Note_on_c, 0, 45, 0
2, 72000, Note_on_c, 0, 53, 100
2, 72120, Note_on_c, 0, 53, 0
2, 72120, Note_on_c, 0, 51, 100
2, 72240, Note_on_c, 0, 51, 0
2, 72240, Note_on_c, 0, 50, 100
2, 72360, Note_on_c, 0, 50, 0
2, 72360, Note_on_c, 0, 48, 100
2, 72480, Note_on_c, 0, 48, 0
2, 72480, Note_on_c, 0, 47, 100
2, 72600, Note_on_c, 0, 47, 0
2, 72600, Note_on_c, 0, 45, 100
2, 72720, Note_on_c, 0, 45, 0
2, 72720, Note_on_c, 0, 43, 100
2, 72840, Note_on_c, 0, 43, 0
2, 72840, Note_on_c, 0, 41, 100
2, 72960, Note_on_c, 0, 41, 0
2, 72960, Note_on_c, 0, 39, 100
2, 73200, Note_on_c, 0, 39, 0
2, 73200, Note_on_c, 0, 60, 100
2, 73440, Note_on_c, 0, 60, 0
2, 73440, Note_on_c, 0, 43, 100
2, 73680, Note_on_c, 0, 43, 0
2, 73680, Note_on_c, 0, 59, 100
2, 73920, Note_on_c, 0, 59, 0
2, 73920, Note_on_c, 0, 60, 100
2, 74640, Note_on_c, 0, 60, 0
2, 74640, Note_on_c, 0, 60, 100
2, 74760, Note_on_c, 0, 60, 0
2, 74760, Note_on_c, 0, 62, 100
2, 74880, Note_on_c, 0, 62, 0
2, 74880, Note_on_c, 0, 63, 100
2, 75000, Note_on_c, 0, 63, 0
2, 75000, Note_on_c, 0, 62, 100
2, 75120, Note_on_c, 0, 62, 0
2, 75120, Note_on_c, 0, 63, 100
2, 75240, Note_on_c, 0, 63, 0
2, 75240, Note_on_c, 0, 62, 100
2, 75360, Note_on_c, 0, 62, 0
2, 75360, Note_on_c, 0, 60, 100
2, 75480, Note_on_c, 0, 60, 0
2, 75480, Note_on_c, 0, 58, 100
2, 75600, Note_on_c, 0, 58, 0
2, 75600, Note_on_c, 0, 60, 100
2, 75720, Note_on_c, 0, 60, 0
2, 75720, Note_on_c, 0, 58, 100
2, 75840, Note_on_c, 0, 58, 0
2, 75840, Note_on_c, 0, 56, 100
2, 75960, Note_on_c, 0, 56, 0
2, 75960, Note_on_c, 0, 58, 100
2, 76080, Note_on_c, 0, 58, 0
2, 76080, Note_on_c, 0, 56, 100
2, 76200, Note_on_c, 0, 56, 0
2, 76200, Note_on_c, 0, 58, 100
2, 76320, Note_on_c, 0, 58, 0
2, 76320, Note_on_c, 0, 60, 100
2, 76440, Note_on_c, 0, 60, 0
2, 76440, Note_on_c, 0, 62, 100
2, 76560, Note_on_c, 0, 62, 0
2, 76560, Note_on_c, 0, 60, 100
2, 76680, Note_on_c, 0, 60, 0
2, 76680, Note_on_c, 0, 62, 100
2, 76800, Note_on_c, 0, 62, 0
2, 76800, Note_on_c, 0, 63, 100
2, 76920, Note_on_c, 0, 63, 0
2, 76920, Note_on_c, 0, 62, 100
2, 77040, Note_on_c, 0, 62, 0
2, 77040, Note_on_c, 0, 63, 100
2, 77160, Note_on_c, 0, 63, 0
2, 77160, Note_on_c, 0, 62, 100
2, 77280, Note_on_c, 0, 62, 0
2, 77280, Note_on_c, 0, 60, 100
2, 77400, Note_on_c, 0, 60, 0
2, 77400, Note_on_c, 0, 58, 100
2, 77520, Note_on_c, 0, 58, 0
2, 77520, Note_on_c, 0, 56, 100
2, 77640, Note_on_c, 0, 56, 0
2, 77640, Note_on_c, 0, 55, 100
2, 77760, Note_on_c, 0, 55, 0
2, 77760, Note_on_c, 0, 54, 100
2, 77880, Note_on_c, 0, 54, 0
2, 77880, Note_on_c, 0, 55, 100
2, 78000, Note_on_c, 0, 55, 0
2, 78000, Note_on_c, 0, 57, 100
2, 78120, Note_on_c, 0, 57, 0
2, 78120, Note_on_c, 0, 60, 100
2, 78240, Note_on_c, 0, 60, 0
2, 78240, Note_on_c, 0, 62, 100
2, 78480, Note_on_c, 0, 62, 0
2, 78480, Note_on_c, 0, 48, 100
2, 78720, Note_on_c, 0, 48, 0
2, 78720, Note_on_c, 0, 46, 100
2, 78960, Note_on_c, 0, 46, 0
2, 78960, Note_on_c, 0, 62, 100
2, 79200, Note_on_c, 0, 62, 0
2, 79200, Note_on_c, 0, 51, 100
2, 79320, Note_on_c, 0, 51, 0
2, 79320, Note_on_c, 0, 55, 100
2, 79440, Note_on_c, 0, 55, 0
2, 79440, Note_on_c, 0, 57, 100
2, 79560, Note_on_c, 0, 57, 0
2, 79560, Note_on_c, 0, 58, 100
2, 79680, Note_on_c, 0, 58, 0
2, 79680, Note_on_c, 0, 60, 100
2, 79920, Note_on_c, 0, 60, 0
2, 79920, Note_on_c, 0, 45, 100
2, 80160, Note_on_c, 0, 45, 0
2, 80160, Note_on_c, 0, 50, 100
2, 80280, Note_on_c, 0, 50, 0
2, 80280, Note_on_c, 0, 54, 100
2, 80400, Note_on_c, 0, 54, 0
2, 80400, Note_on_c, 0, 55, 100
2, 80520, Note_on_c, 0, 55, 0
2, 80520, Note_on_c, 0, 57, 100
2, 80640, Note_on_c, 0, 57, 0
2, 80640, Note_on_c, 0, 58, 100
2, 80760, Note_on_c, 0, 58, 0
2, 80760, Note_on_c, 0, 57, 100
2, 80880, Note_on_c, 0, 57, 0
2, 80880, Note_on_c, 0, 55, 100
2, 81000, Note_on_c, 0, 55, 0
2, 81000, Note_on_c, 0, 58, 100
2, 81120, Note_on_c, 0, 58, 0
2, 81120, Note_on_c, 0, 57, 100
2, 81240, Note_on_c, 0, 57, 0
2, 81240, Note_on_c, 0, 55, 100
2, 81360, Note_on_c, 0, 55, 0
2, 81360, Note_on_c, 0, 54, 100
2, 81480, Note_on_c, 0, 54, 0
2, 81480, Note_on_c, 0, 57, 100
2, 81600, Note_on_c, 0, 57, 0
2, 81600, Note_on_c, 0, 55, 100
2, 81840, Note_on_c, 0, 55, 0
2, 81840, Note_on_c, 0, 50, 100
2, 82080, Note_on_c, 0, 50, 0
2, 82080, Note_on_c, 0, 43, 100
2, 82320, Note_on_c, 0, 43, 0
2, 82320, Note_on_c, 0, 58, 100
2, 82440, Note_on_c, 0, 58, 0
2, 82440, Note_on_c, 0, 60, 100
2, 82560, Note_on_c, 0, 60, 0
2, 82560, Note_on_c, 0, 61, 100
2, 82680, Note_on_c, 0, 61, 0
2, 82680, Note_on_c, 0, 60, 100
2, 82800, Note_on_c, 0, 60, 0
2, 82800, Note_on_c, 0, 61, 100
2, 82920, Note_on_c, 0, 61, 0
2, 82920, Note_on_c, 0, 60, 100
2, 83040, Note_on_c, 0, 60, 0
2, 83040, Note_on_c, 0, 58, 100
2, 83160, Note_on_c, 0, 58, 0
2, 83160, Note_on_c, 0, 56, 100
2, 83280, Note_on_c, 0, 56, 0
2, 83280, Note_on_c, 0, 58, 100
2, 83400, Note_on_c, 0, 58, 0
2, 83400, Note_on_c, 0, 56, 100
2, 83520, Note_on_c, 0, 56, 0
2, 83520, Note_on_c, 0, 55, 100
2, 83640, Note_on_c, 0, 55, 0
2, 83640, Note_on_c, 0, 53, 100
2, 83760, Note_on_c, 0, 53, 0
2, 83760, Note_on_c, 0, 55, 100
2, 83880, Note_on_c, 0, 55, 0
2, 83880, Note_on_c, 0, 53, 100
2, 84000, Note_on_c, 0, 53, 0
2, 84000, Note_on_c, 0, 52, 100
2, 84120, Note_on_c, 0, 52, 0
2, 84120, Note_on_c, 0, 55, 100
2, 84240, Note_on_c, 0, 55, 0
2, 84240, Note_on_c, 0, 56, 100
2, 84360, Note_on_c, 0, 56, 0
2, 84360, Note_on_c, 0, 58, 100
2, 84480, Note_on_c, 0, 58, 0
2, 84480, Note_on_c, 0, 60, 100
2, 84600, Note_on_c, 0, 60, 0
2, 84600, Note_on_c, 0, 58, 100
2, 84720, Note_on_c, 0, 58, 0
2, 84720, Note_on_c, 0, 56, 100
2, 84840, Note_on_c, 0, 56, 0
2, 84840, Note_on_c, 0, 60, 100
2, 84960, Note_on_c, 0, 60, 0
2, 84960, Note_on_c, 0, 58, 100
2, 85080, Note_on_c, 0, 58, 0
2, 85080, Note_on_c, 0, 56, 100
2, 85200, Note_on_c, 0, 56, 0
2, 85200, Note_on_c, 0, 55, 100
2, 85320, Note_on_c, 0, 55, 0
2, 85320, Note_on_c, 0, 58, 100
2, 85440, Note_on_c, 0, 58, 0
2, 85440, Note_on_c, 0, 56, 100
2, 85680, Note_on_c, 0, 56, 0
2, 85680, Note_on_c, 0, 53, 100
2, 85920, Note_on_c, 0, 53, 0
2, 85920, Note_on_c, 0, 41, 100
2, 86160, Note_on_c, 0, 41, 0
2, 86160, Note_on_c, 0, 53, 100
2, 86280, Note_on_c, 0, 53, 0
2, 86280, Note_on_c, 0, 55, 100
2, 86400, Note_on_c, 0, 55, 0
2, 86400, Note_on_c, 0, 56, 100
2, 86520, Note_on_c, 0, 56, 0
2, 86520, Note_on_c, 0, 55, 100
2, 86640, Note_on_c, 0, 55, 0
2, 86640, Note_on_c, 0, 53, 100
2, 86760, Note_on_c, 0, 53, 0
2, 86760, Note_on_c, 0, 51, 100
2, 86880, Note_on_c, 0, 51, 0
2, 86880, Note_on_c, 0, 50, 100
2, 87000, Note_on_c, 0, 50, 0
2, 87000, Note_on_c, 0, 51, 100
2, 87120, Note_on_c, 0, 51, 0
2, 87120, Note_on_c, 0, 53, 100
2, 87240, Note_on_c, 0, 53, 0
2, 87240, Note_on_c, 0, 55, 100
2, 87360, Note_on_c, 0, 55, 0
2, 87360, Note_on_c, 0, 56, 100
2, 87480, Note_on_c, 0, 56, 0
2, 87480, Note_on_c, 0, 58, 100
2, 87600, Note_on_c, 0, 58, 0
2, 87600, Note_on_c, 0, 60, 100
2, 87720, Note_on_c, 0, 60, 0
2, 87720, Note_on_c, 0, 62, 100
2, 87840, Note_on_c, 0, 62, 0
2, 87840, Note_on_c, 0, 63, 100
2, 87960, Note_on_c, 0, 63, 0
2, 87960, Note_on_c, 0, 62, 100
2, 88080, Note_on_c, 0, 62, 0
2, 88080, Note_on_c, 0, 63, 100
2, 88200, Note_on_c, 0, 63, 0
2, 88200, Note_on_c, 0, 62, 100
2, 88320, Note_on_c, 0, 62, 0
2, 88320, Note_on_c, 0, 63, 100
2, 88440, Note_on_c, 0, 63, 0
2, 88440, Note_on_c, 0, 62, 100
2, 88560, Note_on_c, 0, 62, 0
2, 88560, Note_on_c, 0, 60, 100
2, 88680, Note_on_c, 0, 60, 0
2, 88680, Note_on_c, 0, 58, 100
2, 88800, Note_on_c, 0, 58, 0
2, 88800, Note_on_c, 0, 56, 100
2, 88920, Note_on_c, 0, 56, 0
2, 88920, Note_on_c, 0, 55, 100
2, 89040, Note_on_c, 0, 55, 0
2, 89040, Note_on_c, 0, 53, 100
2, 89160, Note_on_c, 0, 53, 0
2, 89160, Note_on_c, 0, 51, 100
2, 89280, Note_on_c, 0, 51, 0
2, 89280, Note_on_c, 0, 53, 100
2, 89400, Note_on_c, 0, 53, 0
2, 89400, Note_on_c, 0, 51, 100
2, 89520, Note_on_c, 0, 51, 0
2, 89520, Note_on_c, 0, 50, 100
2, 89640, Note_on_c, 0, 50, 0
2, 89640, Note_on_c, 0, 48, 100
2, 89760, Note_on_c, 0, 48, 0
2, 89760, Note_on_c, 0, 46, 100
2, 90000, Note_on_c, 0, 46, 0
2, 90000, Note_on_c, 0, 53, 100
2, 90240, Note_on_c, 0, 53, 0
2, 90240, Note_on_c, 0, 46, 100
2, 90360, Note_on_c, 0, 46, 0
2, 90360, Note_on_c, 0, 48, 100
2, 90480, Note_on_c, 0, 48, 0
2, 90480, Note_on_c, 0, 50, 100
2, 90600, Note_on_c, 0, 50, 0
2, 90600, Note_on_c, 0, 51, 100
2, 90720, Note_on_c, 0, 51, 0
2, 90720, Note_on_c, 0, 53, 100
2, 90960, Note_on_c, 0, 53, 0
2, 90960, Note_on_c, 0, 55, 100
2, 91200, Note_on_c, 0, 55, 0
2, 91200, Note_on_c, 0, 48, 100
2, 91440, Note_on_c, 0, 48, 0
2, 91440, Note_on_c, 0, 56, 100
2, 91680, Note_on_c, 0, 56, 0
2, 91680, Note_on_c, 0, 50, 100
2, 91920, Note_on_c, 0, 50, 0
2, 91920, Note_on_c, 0, 56, 100
2, 92160, Note_on_c, 0, 56, 0
2, 92160, Note_on_c, 0, 51, 100
2, 92280, Note_on_c, 0, 51, 0
2, 92280, Note_on_c, 0, 53, 100
2, 92400, Note_on_c, 0, 53, 0
2, 92400, Note_on_c, 0, 55, 100
2, 92520, Note_on_c, 0, 55, 0
2, 92520, Note_on_c, 0, 56, 100
2, 92640, Note_on_c, 0, 56, 0
2, 92640, Note_on_c, 0, 58, 100
2, 92880, Note_on_c, 0, 58, 0
2, 92880, Note_on_c, 0, 60, 100
2, 93120, Note_on_c, 0, 60, 0
2, 93120, Note_on_c, 0, 53, 100
2, 93360, Note_on_c, 0, 53, 0
2, 93360, Note_on_c, 0, 61, 100
2, 93600, Note_on_c, 0, 61, 0
2, 93600, Note_on_c, 0, 55, 100
2, 93840, Note_on_c, 0, 55, 0
2, 93840, Note_on_c, 0, 61, 100
2, 94080, Note_on_c, 0, 61, 0
2, 94080, Note_on_c, 0, 60, 100
2, 94200, Note_on_c, 0, 60, 0
2, 94200, Note_on_c, 0, 58, 100
2, 94320, Note_on_c, 0, 58, 0
2, 94320, Note_on_c, 0, 56, 100
2, 94440, Note_on_c, 0, 56, 0
2, 94440, Note_on_c, 0, 55, 100
2, 94560, Note_on_c, 0, 55, 0
2, 94560, Note_on_c, 0, 56, 100
2, 94800, Note_on_c, 0, 56, 0
2, 94800, Note_on_c, 0, 60, 100
2, 95040, Note_on_c, 0, 60, 0
2, 95040, Note_on_c, 0, 65, 100
2, 95160, Note_on_c, 0, 65, 0
2, 95160, Note_on_c, 0, 63, 100
2, 95280, Note_on_c, 0, 63, 0
2, 95280, Note_on_c, 0, 62, 100
2, 95400, Note_on_c, 0, 62, 0
2, 95400, Note_on_c, 0, 63, 100
2, 95520, Note_on_c, 0, 63, 0
2, 95520, Note_on_c, 0, 65, 100
2, 95640, Note_on_c, 0, 65, 0
2, 95640, Note_on_c, 0, 63, 100
2, 95760, Note_on_c, 0, 63, 0
2, 95760, Note_on_c, 0, 62, 100
2, 95880, Note_on_c, 0, 62, 0
2, 95880, Note_on_c, 0, 60, 100
2, 96000, Note_on_c, 0, 60, 0
2, 96000, Note_on_c, 0, 58, 100
2, 96120, Note_on_c, 0, 58, 0
2, 96120, Note_on_c, 0, 56, 100
2, 96240, Note_on_c, 0, 56, 0
2, 96240, Note_on_c, 0, 55, 100
2, 96360, Note_on_c, 0, 55, 0
2, 96360, Note_on_c, 0, 53, 100
2, 96480, Note_on_c, 0, 53, 0
2, 96480, Note_on_c, 0, 55, 100
2, 96720, Note_on_c, 0, 55, 0
2, 96720, Note_on_c, 0, 58, 100
2, 96960, Note_on_c, 0, 58, 0
2, 96960, Note_on_c, 0, 63, 100
2, 97080, Note_on_c, 0, 63, 0
2, 97080, Note_on_c, 0, 62, 100
2, 97200, Note_on_c, 0, 62, 0
2, 97200, Note_on_c, 0, 60, 100
2, 97320, Note_on_c, 0, 60, 0
2, 97320, Note_on_c, 0, 62, 100
2, 97440, Note_on_c, 0, 62, 0
2, 97440, Note_on_c, 0, 63, 100
2, 97560, Note_on_c, 0, 63, 0
2, 97560, Note_on_c, 0, 62, 100
2, 97680, Note_on_c, 0, 62, 0
2, 97680, Note_on_c, 0, 60, 100
2, 97800, Note_on_c, 0, 60, 0
2, 97800, Note_on_c, 0, 58, 100
2, 97920, Note_on_c, 0, 58, 0
2, 97920, Note_on_c, 0, 56, 100
2, 98040, Note_on_c, 0, 56, 0
2, 98040, Note_on_c, 0, 55, 100
2, 98160, Note_on_c, 0, 55, 0
2, 98160, Note_on_c, 0, 53, 100
2, 98280, Note_on_c, 0, 53, 0
2, 98280, Note_on_c, 0, 55, 100
2, 98400, Note_on_c, 0, 55, 0
2, 98400, Note_on_c, 0, 56, 100
2, 98520, Note_on_c, 0, 56, 0
2, 98520, Note_on_c, 0, 55, 100
2, 98640, Note_on_c, 0, 55, 0
2, 98640, Note_on_c, 0, 53, 100
2, 98760, Note_on_c, 0, 53, 0
2, 98760, Note_on_c, 0, 51, 100
2, 98880, Note_on_c, 0, 51, 0
2, 98880, Note_on_c, 0, 50, 100
2, 99000, Note_on_c, 0, 50, 0
2, 99000, Note_on_c, 0, 48, 100
2, 99120, Note_on_c, 0, 48, 0
2, 99120, Note_on_c, 0, 46, 100
2, 99240, Note_on_c, 0, 46, 0
2, 99240, Note_on_c, 0, 48, 100
2, 99360, Note_on_c, 0, 48, 0
2, 99360, Note_on_c, 0, 50, 100
2, 99480, Note_on_c, 0, 50, 0
2, 99480, Note_on_c, 0, 48, 100
2, 99600, Note_on_c, 0, 48, 0
2, 99600, Note_on_c, 0, 46, 100
2, 99720, Note_on_c, 0, 46, 0
2, 99720, Note_on_c, 0, 44, 100
2, 99840, Note_on_c, 0, 44, 0
2, 99840, Note_on_c, 0, 43, 100
2, 99960, Note_on_c, 0, 43, 0
2, 99960, Note_on_c, 0, 46, 100
2, 100080, Note_on_c, 0, 46, 0
2, 100080, Note_on_c, 0, 48, 100
2, 100200, Note_on_c, 0, 48, 0
2, 100200, Note_on_c, 0, 50, 100
2, 100320, Note_on_c, 0, 50, 0
2, 100320, Note_on_c, 0, 51, 100
2, 100560, Note_on_c, 0, 51, 0
2, 100560, Note_on_c, 0, 61, 100
2, 100800, Note_on_c, 0, 61, 0
2, 100800, Note_on_c, 0, 44, 100
2, 101040, Note_on_c, 0, 44, 0
2, 101040, Note_on_c, 0, 61, 100
2, 101280, Note_on_c, 0, 61, 0
2, 101280, Note_on_c, 0, 60, 100
2, 101400, Note_on_c, 0, 60, 0
2, 101400, Note_on_c, 0, 58, 100
2, 101520, Note_on_c, 0, 58, 0
2, 101520, Note_on_c, 0, 56, 100
2, 101640, Note_on_c, 0, 56, 0
2, 101640, Note_on_c, 0, 55, 100
2, 101760, Note_on_c, 0, 55, 0
2, 101760, Note_on_c, 0, 56, 100
2, 101880, Note_on_c, 0, 56, 0
2, 101880, Note_on_c, 0, 55, 100
2, 102000, Note_on_c, 0, 55, 0
2, 102000, Note_on_c, 0, 53, 100
2, 102120, Note_on_c, 0, 53, 0
2, 102120, Note_on_c, 0, 51, 100
2, 102240, Note_on_c, 0, 51, 0
2, 102240, Note_on_c, 0, 50, 100
2, 102480, Note_on_c, 0, 50, 0
2, 102480, Note_on_c, 0, 60, 100
2, 102720, Note_on_c, 0, 60, 0
2, 102720, Note_on_c, 0, 43, 100
2, 102960, Note_on_c, 0, 43, 0
2, 102960, Note_on_c, 0, 60, 100
2, 103200, Note_on_c, 0, 60, 0
2, 103200, Note_on_c, 0, 58, 100
2, 103320, Note_on_c, 0, 58, 0
2, 103320, Note_on_c, 0, 56, 100
2, 103440, Note_on_c, 0, 56, 0
2, 103440, Note_on_c, 0, 55, 100
2, 103560, Note_on_c, 0, 55, 0
2, 103560, Note_on_c, 0, 53, 100
2, 103680, Note_on_c, 0, 53, 0
2, 103680, Note_on_c, 0, 55, 100
2, 103800, Note_on_c, 0, 55, 0
2, 103800, Note_on_c, 0, 53, 100
2, 103920, Note_on_c, 0, 53, 0
2, 103920, Note_on_c, 0, 51, 100
2, 104040, Note_on_c, 0, 51, 0
2, 104040, Note_on_c, 0, 50, 100
2, 104160, Note_on_c, 0, 50, 0
2, 104160, Note_on_c, 0, 48, 100
2, 104280, Note_on_c, 0, 48, 0
2, 104280, Note_on_c, 0, 46, 100
2, 104400, Note_on_c, 0, 46, 0
2, 104400, Note_on_c, 0, 44, 100
2, 104520, Note_on_c, 0, 44, 0
2, 104520, Note_on_c, 0, 43, 100
2, 104640, Note_on_c, 0, 43, 0
2, 104640, Note_on_c, 0, 41, 100
2, 104760, Note_on_c, 0, 41, 0
2, 104760, Note_on_c, 0, 56, 100
2, 104880, Note_on_c, 0, 56, 0
2, 104880, Note_on_c, 0, 55, 100
2, 105000, Note_on_c, 0, 55, 0
2, 105000, Note_on_c, 0, 53, 100
2, 105120, Note_on_c, 0, 53, 0
2, 105120, Note_on_c, 0, 46, 100
2, 105240, Note_on_c, 0, 46, 0
2, 105240, Note_on_c, 0, 56, 100
2, 105360, Note_on_c, 0, 56, 0
2, 105360, Note_on_c, 0, 55, 100
2, 105480, Note_on_c, 0, 55, 0
2, 105480, Note_on_c, 0, 53, 100
2, 105600, Note_on_c, 0, 53, 0
2, 105600, Note_on_c, 0, 39, 100
2, 105720, Note_on_c, 0, 39, 0
2, 105720, Note_on_c, 0, 55, 100
2, 105840, Note_on_c, 0, 55, 0
2, 105840, Note_on_c, 0, 53, 100
2, 105960, Note_on_c, 0, 53, 0
2, 105960, Note_on_c, 0, 51, 100
2, 106080, Note_on_c, 0, 51, 0
2, 106080, Note_on_c, 0, 45, 100
2, 106200, Note_on_c, 0, 45, 0
2, 106200, Note_on_c, 0, 54, 100
2, 106320, Note_on_c, 0, 54, 0
2, 106320, Note_on_c, 0, 53, 100
2, 106440, Note_on_c, 0, 53, 0
2, 106440, Note_on_c, 0, 51, 100
2, 106560, Note_on_c, 0, 51, 0
2, 106560, Note_on_c, 0, 50, 100
2, 106680, Note_on_c, 0, 50, 0
2, 106680, Note_on_c, 0, 53, 100
2, 106800, Note_on_c, 0, 53, 0
2, 106800, Note_on_c, 0, 60, 100
2, 107280, Note_on_c, 0, 60, 0
2, 107280, Note_on_c, 0, 58, 100
2, 107400, Note_on_c, 0, 58, 0
2, 107400, Note_on_c, 0, 56, 100
2, 107520, Note_on_c, 0, 56, 0
2, 107520, Note_on_c, 0, 55, 100
2, 107640, Note_on_c, 0, 55, 0
2, 107640, Note_on_c, 0, 53, 100
2, 107760, Note_on_c, 0, 53, 0
2, 107760, Note_on_c, 0, 51, 100
2, 107880, Note_on_c, 0, 51, 0
2, 107880, Note_on_c, 0, 53, 100
2, 108000, Note_on_c, 0, 53, 0
2, 108000, Note_on_c, 0, 46, 100
2, 108240, Note_on_c, 0, 46, 0
2, 108240, Note_on_c, 0, 62, 100
2, 108480, Note_on_c, 0, 62, 0
2, 108480, Note_on_c, 0, 63, 100
2, 109200, Note_on_c, 0, 63, 0
2, 109200, Note_on_c, 0, 53, 100
2, 109440, Note_on_c, 0, 53, 0
2, 109440, Note_on_c, 0, 58, 100
2, 109680, Note_on_c, 0, 58, 0
2, 109680, Note_on_c, 0, 57, 100
2, 109800, Note_on_c, 0, 57, 0
2, 109800, Note_on_c, 0, 55, 100
2, 109920, Note_on_c, 0, 55, 0
2, 109920, Note_on_c, 0, 53, 100
2, 110040, Note_on_c, 0, 53, 0
2, 110040, Note_on_c, 0, 51, 100
2, 110160, Note_on_c, 0, 51, 0
2, 110160, Note_on_c, 0, 50, 100
2, 110280, Note_on_c, 0, 50, 0
2, 110280, Note_on_c, 0, 51, 100
2, 110400, Note_on_c, 0, 51, 0
2, 110400, Note_on_c, 0, 53, 100
2, 110520, Note_on_c, 0, 53, 0
2, 110520, Note_on_c, 0, 51, 100
2, 110640, Note_on_c, 0, 51, 0
2, 110640, Note_on_c, 0, 50, 100
2, 110760, Note_on_c, 0, 50, 0
2, 110760, Note_on_c, 0, 48, 100
2, 110880, Note_on_c, 0, 48, 0
2, 110880, Note_on_c, 0, 46, 100
2, 111000, Note_on_c, 0, 46, 0
2, 111000, Note_on_c, 0, 44, 100
2, 111120, Note_on_c, 0, 44, 0
2, 111120, Note_on_c, 0, 43, 100
2, 111240, Note_on_c, 0, 43, 0
2, 111240, Note_on_c, 0, 41, 100
2, 111360, Note_on_c, 0, 41, 0
2, 111360, Note_on_c, 0, 43, 100
2, 111480, Note_on_c, 0, 43, 0
2, 111480, Note_on_c, 0, 51, 100
2, 111600, Note_on_c, 0, 51, 0
2, 111600, Note_on_c, 0, 53, 100
2, 111720, Note_on_c, 0, 53, 0
2, 111720, Note_on_c, 0, 55, 100
2, 111840, Note_on_c, 0, 55, 0
2, 111840, Note_on_c, 0, 50, 100
2, 111960, Note_on_c, 0, 50, 0
2, 111960, Note_on_c, 0, 56, 100
2, 112080, Note_on_c, 0, 56, 0
2, 112080, Note_on_c, 0, 55, 100
2, 112200, Note_on_c, 0, 55, 0
2, 112200, Note_on_c, 0, 53, 100
2, 112320, Note_on_c, 0, 53, 0
2, 112320, Note_on_c, 0, 55, 100
2, 112440, Note_on_c, 0, 55, 0
2, 112440, Note_on_c, 0, 56, 100
2, 112560, Note_on_c, 0, 56, 0
2, 112560, Note_on_c, 0, 58, 100
2, 112680, Note_on_c, 0, 58, 0
2, 112680, Note_on_c, 0, 55, 100
2, 112800, Note_on_c, 0, 55, 0
2, 112800, Note_on_c, 0, 51, 100
2, 113040, Note_on_c, 0, 51, 0
2, 113040, Note_on_c, 0, 50, 100
2, 113160, Note_on_c, 0, 50, 0
2, 113160, Note_on_c, 0, 48, 100
2, 113280, Note_on_c, 0, 48, 0
2, 113280, Note_on_c, 0, 47, 100
2, 113400, Note_on_c, 0, 47, 0
2, 113400, Note_on_c, 0, 48, 100
2, 113520, Note_on_c, 0, 48, 0
2, 113520, Note_on_c, 0, 50, 100
2, 113640, Note_on_c, 0, 50, 0
2, 113640, Note_on_c, 0, 51, 100
2, 113760, Note_on_c, 0, 51, 0
2, 113760, Note_on_c, 0, 53, 100
2, 114000, Note_on_c, 0, 53, 0
2, 114000, Note_on_c, 0, 56, 100
2, 114240, Note_on_c, 0, 56, 0
2, 114240, Note_on_c, 0, 62, 100
2, 114360, Note_on_c, 0, 62, 0
2, 114360, Note_on_c, 0, 60, 100
2, 114480, Note_on_c, 0, 60, 0
2, 114480, Note_on_c, 0, 59, 100
2, 114600, Note_on_c, 0, 59, 0
2, 114600, Note_on_c, 0, 57, 100
2, 114720, Note_on_c, 0, 57, 0
2, 114720, Note_on_c, 0, 55, 100
2, 114960, Note_on_c, 0, 55, 0
2, 114960, Note_on_c, 0, 53, 100
2, 115200, Note_on_c, 0, 53, 0
2, 115200, Note_on_c, 0, 48, 100
2, 115320, Note_on_c, 0, 48, 0
2, 115320, Note_on_c, 0, 50, 100
2, 115440, Note_on_c, 0, 50, 0
2, 115440, Note_on_c, 0, 51, 100
2, 115560, Note_on_c, 0, 51, 0
2, 115560, Note_on_c, 0, 53, 100
2, 115680, Note_on_c, 0, 53, 0
2, 115680, Note_on_c, 0, 55, 100
2, 115800, Note_on_c, 0, 55, 0
2, 115800, Note_on_c, 0, 59, 100
2, 115920, Note_on_c, 0, 59, 0
2, 115920, Note_on_c, 0, 60, 100
2, 116040, Note_on_c, 0, 60, 0
2, 116040, Note_on_c, 0, 62, 100
2, 116160, Note_on_c, 0, 62, 0
2, 116160, Note_on_c, 0, 63, 100
2, 116280, Note_on_c, 0, 63, 0
2, 116280, Note_on_c, 0, 62, 100
2, 116400, Note_on_c, 0, 62, 0
2, 116400, Note_on_c, 0, 60, 100
2, 116520, Note_on_c, 0, 60, 0
2, 116520, Note_on_c, 0, 58, 100
2, 116640, Note_on_c, 0, 58, 0
2, 116640, Note_on_c, 0, 56, 100
2, 116760, Note_on_c, 0, 56, 0
2, 116760, Note_on_c, 0, 55, 100
2, 116880, Note_on_c, 0, 55, 0
2, 116880, Note_on_c, 0, 53, 100
2, 117000, Note_on_c, 0, 53, 0
2, 117000, Note_on_c, 0, 51, 100
2, 117120, Note_on_c, 0, 51, 0
2, 117120, Note_on_c, 0, 56, 100
2, 117240, Note_on_c, 0, 56, 0
2, 117240, Note_on_c, 0, 55, 100
2, 117360, Note_on_c, 0, 55, 0
2, 117360, Note_on_c, 0, 53, 100
2, 117480, Note_on_c, 0, 53, 0
2, 117480, Note_on_c, 0, 51, 100
2, 117600, Note_on_c, 0, 51, 0
2, 117600, Note_on_c, 0, 50, 100
2, 117720, Note_on_c, 0, 50, 0
2, 117720, Note_on_c, 0, 48, 100
2, 117840, Note_on_c, 0, 48, 0
2, 117840, Note_on_c, 0, 47, 100
2, 117960, Note_on_c, 0, 47, 0
2, 117960, Note_on_c, 0, 45, 100
2, 118080, Note_on_c, 0, 45, 0
2, 118080, Note_on_c, 0, 53, 100
2, 118200, Note_on_c, 0, 53, 0
2, 118200, Note_on_c, 0, 51, 100
2, 118320, Note_on_c, 0, 51, 0
2, 118320, Note_on_c, 0, 50, 100
2, 118440, Note_on_c, 0, 50, 0
2, 118440, Note_on_c, 0, 48, 100
2, 118560, Note_on_c, 0, 48, 0
2, 118560, Note_on_c, 0, 47, 100
2, 118680, Note_on_c, 0, 47, 0
2, 118680, Note_on_c, 0, 45, 100
2, 118800, Note_on_c, 0, 45, 0
2, 118800, Note_on_c, 0, 43, 100
2, 118920, Note_on_c, 0, 43, 0
2, 118920, Note_on_c, 0, 41, 100
2, 119040, Note_on_c, 0, 41, 0
2, 119040, Note_on_c, 0, 39, 100
2, 119280, Note_on_c, 0, 39, 0
2, 119280, Note_on_c, 0, 60, 100
2, 119520, Note_on_c, 0, 60, 0
2, 119520, Note_on_c, 0, 43, 100
2, 119760, Note_on_c, 0, 43, 0
2, 119760, Note_on_c, 0, 59, 100
2, 120000, Note_on_c, 0, 59, 0
2, 120000, Note_on_c, 0, 60, 100
2, 120720, Note_on_c, 0, 60, 0
2, 120720, Note_on_c, 0, 60, 100
2, 120840, Note_on_c, 0, 60, 0
2, 120840, Note_on_c, 0, 62, 100
2, 120960, Note_on_c, 0, 62, 0
2, 120960, Note_on_c, 0, 63, 100
2, 121080, Note_on_c, 0, 63, 0
2, 121080, Note_on_c, 0, 62, 100
2, 121200, Note_on_c, 0, 62, 0
2, 121200, Note_on_c, 0, 63, 100
2, 121320, Note_on_c, 0, 63, 0
2, 121320, Note_on_c, 0, 62, 100
2, 121440, Note_on_c, 0, 62, 0
2, 121440, Note_on_c, 0, 60, 100
2, 121560, Note_on_c, 0, 60, 0
2, 121560, Note_on_c, 0, 58, 100
2, 121680, Note_on_c, 0, 58, 0
2, 121680, Note_on_c, 0, 60, 100
2, 121800, Note_on_c, 0, 60, 0
2, 121800, Note_on_c, 0, 58, 100
2, 121920, Note_on_c, 0, 58, 0
2, 121920, Note_on_c, 0, 56, 100
2, 122040, Note_on_c, 0, 56, 0
2, 122040, Note_on_c, 0, 58, 100
2, 122160, Note_on_c, 0, 58, 0
2, 122160, Note_on_c, 0, 56, 100
2, 122280, Note_on_c, 0, 56, 0
2, 122280, Note_on_c, 0, 58, 100
2, 122400, Note_on_c, 0, 58, 0
2, 122400, Note_on_c, 0, 60, 100
2, 122520, Note_on_c, 0, 60, 0
2, 122520, Note_on_c, 0, 62, 100
2, 122640, Note_on_c, 0, 62, 0
2, 122640, Note_on_c, 0, 60, 100
2, 122760, Note_on_c, 0, 60, 0
2, 122760, Note_on_c, 0, 62, 100
2, 122880, Note_on_c, 0, 62, 0
2, 122880, Note_on_c, 0, 63, 100
2, 123000, Note_on_c, 0, 63, 0
2, 123000, Note_on_c, 0, 62, 100
2, 123120, Note_on_c, 0, 62, 0
2, 123120, Note_on_c, 0, 63, 100
2, 123240, Note_on_c, 0, 63, 0
2, 123240, Note_on_c, 0, 62, 100
2, 123360, Note_on_c, 0, 62, 0
2, 123360, Note_on_c, 0, 60, 100
2, 123480, Note_on_c, 0, 60, 0
2, 123480, Note_on_c, 0, 58, 100
2, 123600, Note_on_c, 0, 58, 0
2, 123600, Note_on_c, 0, 56, 100
2, 123720, Note_on_c, 0, 56, 0
2, 123720, Note_on_c, 0, 55, 100
2, 123840, Note_on_c, 0, 55, 0
2, 123840, Note_on_c, 0, 54, 100
2, 123960, Note_on_c, 0, 54, 0
2, 123960, Note_on_c, 0, 55, 100
2, 124080, Note_on_c, 0, 55, 0
2, 124080, Note_on_c, 0, 57, 100
2, 124200, Note_on_c, 0, 57, 0
2, 124200, Note_on_c, 0, 60, 100
2, 124320, Note_on_c, 0, 60, 0
2, 124320, Note_on_c, 0, 62, 100
2, 124560, Note_on_c, 0, 62, 0
2, 124560, Note_on_c, 0, 48, 100
2, 124800, Note_on_c, 0, 48, 0
2, 124800, Note_on_c, 0, 46, 100
2, 125040, Note_on_c, 0, 46, 0
2, 125040, Note_on_c, 0, 62, 100
2, 125280, Note_on_c, 0, 62, 0
2, 125280, Note_on_c, 0, 51, 100
2, 125400, Note_on_c, 0, 51, 0
2, 125400, Note_on_c, 0, 55, 100
2, 125520, Note_on_c, 0, 55, 0
2, 125520, Note_on_c, 0, 57, 100
2, 125640, Note_on_c, 0, 57, 0
2, 125640, Note_on_c, 0, 58, 100
2, 125760, Note_on_c, 0, 58, 0
2, 125760, Note_on_c, 0, 60, 100
2, 126000, Note_on_c, 0, 60, 0
2, 126000, Note_on_c, 0, 45, 100
2, 126240, Note_on_c, 0, 45, 0
2, 126240, Note_on_c, 0, 50, 100
2, 126360, Note_on_c, 0, 50, 0
2, 126360, Note_on_c, 0, 54, 100
2, 126480, Note_on_c, 0, 54, 0
2, 126480, Note_on_c, 0, 55, 100
2, 126600, Note_on_c, 0, 55, 0
2, 126600, Note_on_c, 0, 57, 100
2, 126720, Note_on_c, 0, 57, 0
2, 126720, Note_on_c, 0, 58, 100
2, 126840, Note_on_c, 0, 58, 0
2, 126840, Note_on_c, 0, 57, 100
2, 126960, Note_on_c, 0, 57, 0
2, 126960, Note_on_c, 0, 55, 100
2, 127080, Note_on_c, 0, 55, 0
2, 127080, Note_on_c, 0, 58, 100
2, 127200, Note_on_c, 0, 58, 0
2, 127200, Note_on_c, 0, 57, 100
2, 127320, Note_on_c, 0, 57, 0
2, 127320, Note_on_c, 0, 55, 100
2, 127440, Note_on_c, 0, 55, 0
2, 127440, Note_on_c, 0, 54, 100
2, 127560, Note_on_c, 0, 54, 0
2, 127560, Note_on_c, 0, 57, 100
2, 127680, Note_on_c, 0, 57, 0
2, 127680, Note_on_c, 0, 55, 100
2, 127920, Note_on_c, 0, 55, 0
2, 127920, Note_on_c, 0, 50, 100
2, 128160, Note_on_c, 0, 50, 0
2, 128160, Note_on_c, 0, 43, 100
2, 128400, Note_on_c, 0, 43, 0
2, 128400, Note_on_c, 0, 58, 100
2, 128520, Note_on_c, 0, 58, 0
2, 128520, Note_on_c, 0, 60, 100
2, 128640, Note_on_c, 0, 60, 0
2, 128640, Note_on_c, 0, 61, 100
2, 128760, Note_on_c, 0, 61, 0
2, 128760, Note_on_c, 0, 60, 100
2, 128880, Note_on_c, 0, 60, 0
2, 128880, Note_on_c, 0, 61, 100
2, 129000, Note_on_c, 0, 61, 0
2, 129000, Note_on_c, 0, 60, 100
2, 129120, Note_on_c, 0, 60, 0
2, 129120, Note_on_c, 0, 58, 100
2, 129240, Note_on_c, 0, 58, 0
2, 129240, Note_on_c, 0, 56, 100
2, 129360, Note_on_c, 0, 56, 0
2, 129360, Note_on_c, 0, 58, 100
2, 129480, Note_on_c, 0, 58, 0
2, 129480, Note_on_c, 0, 56, 100
2, 129600, Note_on_c, 0, 56, 0
2, 129600, Note_on_c, 0, 55, 100
2, 129720, Note_on_c, 0, 55, 0
2, 129720, Note_on_c, 0, 53, 100
2, 129840, Note_on_c, 0, 53, 0
2, 129840, Note_on_c, 0, 55, 100
2, 129960, Note_on_c, 0, 55, 0
2, 129960, Note_on_c, 0, 53, 100
2, 130080, Note_on_c, 0, 53, 0
2, 130080, Note_on_c, 0, 52, 100
2, 130200, Note_on_c, 0, 52, 0
2, 130200, Note_on_c, 0, 55, 100
2, 130320, Note_on_c, 0, 55, 0
2, 130320, Note_on_c, 0, 56, 100
2, 130440, Note_on_c, 0, 56, 0
2, 130440, Note_on_c, 0, 58, 100
2, 130560, Note_on_c, 0, 58, 0
2, 130560, Note_on_c, 0, 60, 100
2, 130680, Note_on_c, 0, 60, 0
2, 130680, Note_on_c, 0, 58, 100
2, 130800, Note_on_c, 0, 58, 0
2, 130800, Note_on_c, 0, 56, 100
2, 130920, Note_on_c, 0, 56, 0
2, 130920, Note_on_c, 0, 60, 100
2, 131040, Note_on_c, 0, 60, 0
2, 131040, Note_on_c, 0, 58, 100
2, 131160, Note_on_c, 0, 58, 0
2, 131160, Note_on_c, 0, 56, 100
2, 131280, Note_on_c, 0, 56, 0
2, 131280, Note_on_c, 0, 55, 100
2, 131400, Note_on_c, 0, 55, 0
2, 131400, Note_on_c, 0, 58, 100
2, 131520, Note_on_c, 0, 58, 0
2, 131520, Note_on_c, 0, 56, 100
2, 131760, Note_on_c, 0, 56, 0
2, 131760, Note_on_c, 0, 53, 100
2, 132000, Note_on_c, 0, 53, 0
2, 132000, Note_on_c, 0, 41, 100
2, 132240, Note_on_c, 0, 41, 0
2, 132240, Note_on_c, 0, 53, 100
2, 132360, Note_on_c, 0, 53, 0
2, 132360, Note_on_c, 0, 55, 100
2, 132480, Note_on_c, 0, 55, 0
2, 132480, Note_on_c, 0, 56, 100
2, 132600, Note_on_c, 0, 56, 0
2, 132600, Note_on_c, 0, 55, 100
2, 132720, Note_on_c, 0, 55, 0
2, 132720, Note_on_c, 0, 53, 100
2, 132840, Note_on_c, 0, 53, 0
2, 132840, Note_on_c, 0, 51, 100
2, 132960, Note_on_c, 0, 51, 0
2, 132960, Note_on_c, 0, 50, 100
2, 133080, Note_on_c, 0, 50, 0
2, 133080, Note_on_c, 0, 51, 100
2, 133200, Note_on_c, 0, 51, 0
2, 133200, Note_on_c, 0, 53, 100
2, 133320, Note_on_c, 0, 53, 0
2, 133320, Note_on_c, 0, 55, 100
2, 133440, Note_on_c, 0, 55, 0
2, 133440, Note_on_c, 0, 56, 100
2, 133560, Note_on_c, 0, 56, 0
2, 133560, Note_on_c, 0, 58, 100
2, 133680, Note_on_c, 0, 58, 0
2, 133680, Note_on_c, 0, 60, 100
2, 133800, Note_on_c, 0, 60, 0
2, 133800, Note_on_c, 0, 62, 100
2, 133920, Note_on_c, 0, 62, 0
2, 133920, Note_on_c, 0, 63, 100
2, 134040, Note_on_c, 0, 63, 0
2, 134040, Note_on_c, 0, 62, 100
2, 134160, Note_on_c, 0, 62, 0
2, 134160, Note_on_c, 0, 63, 100
2, 134280, Note_on_c, 0, 63, 0
2, 134280, Note_on_c, 0, 62, 100
2, 134400, Note_on_c, 0, 62, 0
2, 134400, Note_on_c, 0, 63, 100
2, 134520, Note_on_c, 0, 63, 0
2, 134520, Note_on_c, 0, 62, 100
2, 134640, Note_on_c, 0, 62, 0
2, 134640, Note_on_c, 0, 60, 100
2, 134760, Note_on_c, 0, 60, 0
2, 134760, Note_on_c, 0, 58, 100
2, 134880, Note_on_c, 0, 58, 0
2, 134880, Note_on_c, 0, 56, 100
2, 135000, Note_on_c, 0, 56, 0
2, 135000, Note_on_c, 0, 55, 100
2, 135120, Note_on_c, 0, 55, 0
2, 135120, Note_on_c, 0, 53, 100
2, 135240, Note_on_c, 0, 53, 0
2, 135240, Note_on_c, 0, 51, 100
2, 135360, Note_on_c, 0, 51, 0
2, 135360, Note_on_c, 0, 53, 100
2, 135480, Note_on_c, 0, 53, 0
2, 135480, Note_on_c, 0, 51, 100
2, 135600, Note_on_c, 0, 51, 0
2, 135600, Note_on_c, 0, 50, 100
2, 135720, Note_on_c, 0, 50, 0
2, 135720, Note_on_c, 0, 48, 100
2, 135840, Note_on_c, 0, 48, 0
2, 135840, Note_on_c, 0, 46, 100
2, 136080, Note_on_c, 0, 46, 0
2, 136080, Note_on_c, 0, 53, 100
2, 136320, Note_on_c, 0, 53, 0
2, 136320, Note_on_c, 0, 46, 100
2, 136440, Note_on_c, 0, 46, 0
2, 136440, Note_on_c, 0, 48, 100
2, 136560, Note_on_c, 0, 48, 0
2, 136560, Note_on_c, 0, 50, 100
2, 136680, Note_on_c, 0, 50, 0
2, 136680, Note_on_c, 0, 51, 100
2, 136800, Note_on_c, 0, 51, 0
2, 136800, Note_on_c, 0, 53, 100
2, 137040, Note_on_c, 0, 53, 0
2, 137040, Note_on_c, 0, 55, 100
2, 137280, Note_on_c, 0, 55, 0
2, 137280, Note_on_c, 0, 48, 100
2, 137520, Note_on_c, 0, 48, 0
2, 137520, Note_on_c, 0, 56, 100
2, 137760, Note_on_c, 0, 56, 0
2, 137760, Note_on_c, 0, 50, 100
2, 138000, Note_on_c, 0, 50, 0
2, 138000, Note_on_c, 0, 56, 100
2, 138240, Note_on_c, 0, 56, 0
2, 138240, Note_on_c, 0, 51, 100
2, 138360, Note_on_c, 0, 51, 0
2, 138360, Note_on_c, 0, 53, 100
2, 138480, Note_on_c, 0, 53, 0
2, 138480, Note_on_c, 0, 55, 100
2, 138600, Note_on_c, 0, 55, 0
2, 138600, Note_on_c, 0, 56, 100
2, 138720, Note_on_c, 0, 56, 0
2, 138720, Note_on_c, 0, 58, 100
2, 138960, Note_on_c, 0, 58, 0
2, 138960, Note_on_c, 0, 60, 100
2, 139200, Note_on_c, 0, 60, 0
2, 139200, Note_on_c, 0, 53, 100
2, 139440, Note_on_c, 0, 53, 0
2, 139440, Note_on_c, 0, 61, 100
2, 139680, Note_on_c, 0, 61, 0
2, 139680, Note_on_c, 0, 55, 100
2, 139920, Note_on_c, 0, 55, 0
2, 139920, Note_on_c, 0, 61, 100
2, 140160, Note_on_c, 0, 61, 0
2, 140160, Note_on_c, 0, 60, 100
2, 140280, Note_on_c, 0, 60, 0
2, 140280, Note_on_c, 0, 58, 100
2, 140400, Note_on_c, 0, 58, 0
2, 140400, Note_on_c, 0, 56, 100
2, 140520, Note_on_c, 0, 56, 0
2, 140520, Note_on_c, 0, 55, 100
2, 140640, Note_on_c, 0, 55, 0
2, 140640, Note_on_c, 0, 56, 100
2, 140880, Note_on_c, 0, 56, 0
2, 140880, Note_on_c, 0, 60, 100
2, 141120, Note_on_c, 0, 60, 0
2, 141120, Note_on_c, 0, 65, 100
2, 141240, Note_on_c, 0, 65, 0
2, 141240, Note_on_c, 0, 63, 100
2, 141360, Note_on_c, 0, 63, 0
2, 141360, Note_on_c, 0, 62, 100
2, 141480, Note_on_c, 0, 62, 0
2, 141480, Note_on_c, 0, 63, 100
2, 141600, Note_on_c, 0, 63, 0
2, 141600, Note_on_c, 0, 65, 100
2, 141720, Note_on_c, 0, 65, 0
2, 141720, Note_on_c, 0, 63, 100
2, 141840, Note_on_c, 0, 63, 0
2, 141840, Note_on_c, 0, 62, 100
2, 141960, Note_on_c, 0, 62, 0
2, 141960, Note_on_c, 0, 60, 100
2, 142080, Note_on_c, 0, 60, 0
2, 142080, Note_on_c, 0, 58, 100
2, 142200, Note_on_c, 0, 58, 0
2, 142200, Note_on_c, 0, 56, 100
2, 142320, Note_on_c, 0, 56, 0
2, 142320, Note_on_c, 0, 55, 100
2, 142440, Note_on_c, 0, 55, 0
2, 142440, Note_on_c, 0, 53, 100
2, 142560, Note_on_c, 0, 53, 0
2, 142560, Note_on_c, 0, 55, 100
2, 142800, Note_on_c, 0, 55, 0
2, 142800, Note_on_c, 0, 58, 100
2, 143040, Note_on_c, 0, 58, 0
2, 143040, Note_on_c, 0, 63, 100
2, 143160, Note_on_c, 0, 63, 0
2, 143160, Note_on_c, 0, 62, 100
2, 143280, Note_on_c, 0, 62, 0
2, 143280, Note_on_c, 0, 60, 100
2, 143400, Note_on_c, 0, 60, 0
2, 143400, Note_on_c, 0, 62, 100
2, 143520, Note_on_c, 0, 62, 0
2, 143520, Note_on_c, 0, 63, 100
2, 143640, Note_on_c, 0, 63, 0
2, 143640, Note_on_c, 0, 62, 100
2, 143760, Note_on_c, 0, 62, 0
2, 143760, Note_on_c, 0, 60, 100
2, 143880, Note_on_c, 0, 60, 0
2, 143880, Note_on_c, 0, 58, 100
2, 144000, Note_on_c, 0, 58, 0
2, 144000, Note_on_c, 0, 56, 100
2, 144120, Note_on_c, 0, 56, 0
2, 144120, Note_on_c, 0, 55, 100
2, 144240, Note_on_c, 0, 55, 0
2, 144240, Note_on_c, 0, 53, 100
2, 144360, Note_on_c, 0, 53, 0
2, 144360, Note_on_c, 0, 55, 100
2, 144480, Note_on_c, 0, 55, 0
2, 144480, Note_on_c, 0, 56, 100
2, 144600, Note_on_c, 0, 56, 0
2, 144600, Note_on_c, 0, 55, 100
2, 144720, Note_on_c, 0, 55, 0
2, 144720, Note_on_c, 0, 53, 100
2, 144840, Note_on_c, 0, 53, 0
2, 144840, Note_on_c, 0, 51, 100
2, 144960, Note_on_c, 0, 51, 0
2, 144960, Note_on_c, 0, 50, 100
2, 145080, Note_on_c, 0, 50, 0
2, 145080, Note_on_c, 0, 48, 100
2, 145200, Note_on_c, 0, 48, 0
2, 145200, Note_on_c, 0, 46, 100
2, 145320, Note_on_c, 0, 46, 0
2, 145320, Note_on_c, 0, 48, 100
2, 145440, Note_on_c, 0, 48, 0
2, 145440, Note_on_c, 0, 50, 100
2, 145560, Note_on_c, 0, 50, 0
2, 145560, Note_on_c, 0, 48, 100
2, 145680, Note_on_c, 0, 48, 0
2, 145680, Note_on_c, 0, 46, 100
2, 145800, Note_on_c, 0, 46, 0
2, 145800, Note_on_c, 0, 44, 100
2, 145920, Note_on_c, 0, 44, 0
2, 145920, Note_on_c, 0, 43, 100
2, 146040, Note_on_c, 0, 43, 0
2, 146040, Note_on_c, 0, 46, 100
2, 146160, Note_on_c, 0, 46, 0
2, 146160, Note_on_c, 0, 48, 100
2, 146280, Note_on_c, 0, 48, 0
2, 146280, Note_on_c, 0, 50, 100
2, 146400, Note_on_c, 0, 50, 0
2, 146400, Note_on_c, 0, 51, 100
2, 146640, Note_on_c, 0, 51, 0
2, 146640, Note_on_c, 0, 61, 100
2, 146880, Note_on_c, 0, 61, 0
2, 146880, Note_on_c, 0, 44, 100
2, 147120, Note_on_c, 0, 44, 0
2, 147120, Note_on_c, 0, 61, 100
2, 147360, Note_on_c, 0, 61, 0
2, 147360, Note_on_c, 0, 60, 100
2, 147480, Note_on_c, 0, 60, 0
2, 147480, Note_on_c, 0, 58, 100
2, 147600, Note_on_c, 0, 58, 0
2, 147600, Note_on_c, 0, 56, 100
2, 147720, Note_on_c, 0, 56, 0
2, 147720, Note_on_c, 0, 55, 100
2, 147840, Note_on_c, 0, 55, 0
2, 147840, Note_on_c, 0, 56, 100
2, 147960, Note_on_c, 0, 56, 0
2, 147960, Note_on_c, 0, 55, 100
2, 148080, Note_on_c, 0, 55, 0
2, 148080, Note_on_c, 0, 53, 100
2, 148200, Note_on_c, 0, 53, 0
2, 148200, Note_on_c, 0, 51, 100
2, 148320, Note_on_c, 0, 51, 0
2, 148320, Note_on_c, 0, 50, 100
2, 148560, Note_on_c, 0, 50, 0
2, 148560, Note_on_c, 0, 60, 100
2, 148800, Note_on_c, 0, 60, 0
2, 148800, Note_on_c, 0, 43, 100
2, 149040, Note_on_c, 0, 43, 0
2, 149040, Note_on_c, 0, 60, 100
2, 149280, Note_on_c, 0, 60, 0
2, 149280, Note_on_c, 0, 58, 100
2, 149400, Note_on_c, 0, 58, 0
2, 149400, Note_on_c, 0, 56, 100
2, 149520, Note_on_c, 0, 56, 0
2, 149520, Note_on_c, 0, 55, 100
2, 149640, Note_on_c, 0, 55, 0
2, 149640, Note_on_c, 0, 53, 100
2, 149760, Note_on_c, 0, 53, 0
2, 149760, Note_on_c, 0, 55, 100
2, 149880, Note_on_c, 0, 55, 0
2, 149880, Note_on_c, 0, 53, 100
2, 150000, Note_on_c, 0, 53, 0
2, 150000, Note_on_c, 0, 51, 100
2, 150120, Note_on_c, 0, 51, 0
2, 150120, Note_on_c, 0, 50, 100
2, 150240, Note_on_c, 0, 50, 0
2, 150240, Note_on_c, 0, 48, 100
2, 150360, Note_on_c, 0, 48, 0
2, 150360, Note_on_c, 0, 46, 100
2, 150480, Note_on_c, 0, 46, 0
2, 150480, Note_on_c, 0, 44, 100
2, 150600, Note_on_c, 0, 44, 0
2, 150600, Note_on_c, 0, 43, 100
2, 150720, Note_on_c, 0, 43, 0
2, 150720, Note_on_c, 0, 41, 100
2, 150840, Note_on_c, 0, 41, 0
2, 150840, Note_on_c, 0, 56, 100
2, 150960, Note_on_c, 0, 56, 0
2, 150960, Note_on_c, 0, 55, 100
2, 151080, Note_on_c, 0, 55, 0
2, 151080, Note_on_c, 0, 53, 100
2, 151200, Note_on_c, 0, 53, 0
2, 151200, Note_on_c, 0, 46, 100
2, 151320, Note_on_c, 0, 46, 0
2, 151320, Note_on_c, 0, 56, 100
2, 151440, Note_on_c, 0, 56, 0
2, 151440, Note_on_c, 0, 55, 100
2, 151560, Note_on_c, 0, 55, 0
2, 151560, Note_on_c, 0, 53, 100
2, 151680, Note_on_c, 0, 53, 0
2, 151680, Note_on_c, 0, 39, 100
2, 151800, Note_on_c, 0, 39, 0
2, 151800, Note_on_c, 0, 55, 100
2, 151920, Note_on_c, 0, 55, 0
2, 151920, Note_on_c, 0, 53, 100
2, 152040, Note_on_c, 0, 53, 0
2, 152040, Note_on_c, 0, 51, 100
2, 152160, Note_on_c, 0, 51, 0
2, 152160, Note_on_c, 0, 45, 100
2, 152280, Note_on_c, 0, 45, 0
2, 152280, Note_on_c, 0, 54, 100
2, 152400, Note_on_c, 0, 54, 0
2, 152400, Note_on_c, 0, 53, 100
2, 152520, Note_on_c, 0, 53, 0
2, 152520, Note_on_c, 0, 51, 100
2, 152640, Note_on_c, 0, 51, 0
2, 152640, Note_on_c, 0, 50, 100
2, 152760, Note_on_c, 0, 50, 0
2, 152760, Note_on_c, 0, 53, 100
2, 152880, Note_on_c, 0, 53, 0
2, 152880, Note_on_c, 0, 60, 100
2, 153360, Note_on_c, 0, 60, 0
2, 153360, Note_on_c, 0, 58, 100
2, 153480, Note_on_c, 0, 58, 0
2, 153480, Note_on_c, 0, 56, 100
2, 153600, Note_on_c, 0, 56, 0
2, 153600, Note_on_c, 0, 55, 100
2, 153720, Note_on_c, 0, 55, 0
2, 153720, Note_on_c, 0, 53, 100
2, 153840, Note_on_c, 0, 53, 0
2, 153840, Note_on_c, 0, 51, 100
2, 153960, Note_on_c, 0, 51, 0
2, 153960, Note_on_c, 0, 53, 100
2, 154080, Note_on_c, 0, 53, 0
2, 154080, Note_on_c, 0, 46, 100
2, 154320, Note_on_c, 0, 46, 0
2, 154320, Note_on_c, 0, 62, 100
2, 154560, Note_on_c, 0, 62, 0
2, 154560, Note_on_c, 0, 63, 100
2, 155280, Note_on_c, 0, 63, 0
2, 155280, End_track
3, 0, Start_track
3, 0, MIDI_port, 0
3, 0, Title_t, "--------------------------------------"
3, 0, Program_c, 1, 42
3, 0, Control_c, 1, 7, 100
3, 0, Control_c, 1, 10, 74
3, 12480, Note_on_c, 1, 46, 100
3, 12960, Note_on_c, 1, 46, 0
3, 43200, Note_on_c, 1, 46, 100
3, 43680, Note_on_c, 1, 46, 0
3, 73920, Note_on_c, 1, 51, 100
3, 74400, Note_on_c, 1, 51, 0
3, 108480, Note_on_c, 1, 55, 100
3, 109200, Note_on_c, 1, 55, 0
3, 120000, Note_on_c, 1, 51, 100
3, 120480, Note_on_c, 1, 51, 0
3, 154560, Note_on_c, 1, 55, 100
3, 155280, Note_on_c, 1, 55, 0
3, 155280, End_track
4, 0, Start_track
4, 0, MIDI_port, 0
4, 0, Title_t, "Johann Sebastian Bach  (1685-1750)"
4, 0, Program_c, 2, 42
4, 0, Control_c, 2, 7, 100
4, 0, Control_c, 2, 10, 54
4, 12480, Note_on_c, 2, 39, 100
4, 12960, Note_on_c, 2, 39, 0
4, 43200, Note_on_c, 2, 39, 100
4, 43680, Note_on_c, 2, 39, 0
4, 73920, Note_on_c, 2, 43, 100
4, 74400, Note_on_c, 2, 43, 0
4, 108480, Note_on_c, 2, 46, 100
4, 109200, Note_on_c, 2, 46, 0
4, 120000, Note_on_c, 2, 43, 100
4, 120480, Note_on_c, 2, 43, 0
4, 154560, Note_on_c, 2, 46, 100
4, 155280, Note_on_c, 2, 46, 0
4, 155280, End_track
5, 0, Start_track
5, 0, MIDI_port, 0
5, 0, Title_t, "Six Suites for Solo Cello"
5, 0, Program_c, 3, 42
5, 0, Control_c, 3, 7, 100
5, 0, Control_c, 3, 10, 44
5, 73920, Note_on_c, 3, 36, 100
5, 74400, Note_on_c, 3, 36, 0
5, 108480, Note_on_c, 3, 39, 100
5, 109200, Note_on_c, 3, 39, 0
5, 120000, Note_on_c, 3, 36, 100
5, 120480, Note_on_c, 3, 36, 0
5, 154560, Note_on_c, 3, 39, 100
5, 155280, Note_on_c, 3, 39, 0
5, 155280, End_track
6, 0, Start_track
6, 0, MIDI_port, 0
6, 0, Title_t, "--------------------------------------"
6, 0, End_track
7, 0, Start_track
7, 0, MIDI_port, 0
7, 0, Title_t, "Suite No. 4 in Eb major - BWV 1010"
7, 0, End_track
8, 0, Start_track
8, 0, MIDI_port, 0
8, 0, Title_t, "2nd Movement: Allemande"
8, 0, End_track
9, 0, Start_track
9, 0, MIDI_port, 0
9, 0, Title_t, "--------------------------------------"
9, 0, End_track
10, 0, Start_track
10, 0, MIDI_port, 0
10, 0, Title_t, "Modified from an anonymous sequence with Cakewalk Pro Audio by"
10, 0, End_track
11, 0, Start_track
11, 0, MIDI_port, 0
11, 0, Title_t, "David J. Grossman - dave@unpronounceable.com"
11, 0, End_track
12, 0, Start_track
12, 0, MIDI_port, 0
12, 0, Title_t, "This and other Bach MIDI files can be found at:"
12, 0, End_track
13, 0, Start_track
13, 0, MIDI_port, 0
13, 0, Title_t, "Dave's J.S. Bach Page"
13, 0, End_track
14, 0, Start_track
14, 0, MIDI_port, 0
14, 0, Title_t, "http://www.unpronounceable.com/bach"
14, 0, End_track
15, 0, Start_track
15, 0, MIDI_port, 0
15, 0, Title_t, "--------------------------------------"
15, 0, End_track
16, 0, Start_track
16, 0, MIDI_port, 0
16, 0, Title_t, "Original Filename: cs4-2all.mid"
16, 0, End_track
17, 0, Start_track
17, 0, MIDI_port, 0
17, 0, Title_t, "Last Modified: February 22, 1997"
17, 0, End_track
0, 0, End_of_file
