0, 0, Header, 1, 17, 480
1, 0, Start_track
1, 0, Title_t, "untitled"
1, 0, SMPTE_offset, 0, 0, 3, 18, 0
1, 0, Time_signature, 4, 2, 24, 8
1, 0, Key_signature, -3, "major"
1, 0, Tempo, 240000
1, 1440, Tempo, 357143
1, 1920, Marker_t, "I A"
1, 24960, Marker_t, "I A'"
1, 48000, Marker_t, "I B"
1, 117120, Marker_t, "I B'"
1, 186240, Marker_t, "II A"
1, 193920, Marker_t, "II A'"
1, 201600, Marker_t, "II B"
1, 216960, Marker_t, "II B'"
1, 232320, Marker_t, "I A''"
1, 255360, Marker_t, "I B''"
1, 322560, Tempo, 714286
1, 322560, End_track
2, 0, Start_track
2, 0, MIDI_port, 0
2, 0, Title_t, "Solo Cello"
2, 0, Program_c, 0, 42
2, 0, Control_c, 0, 7, 100
2, 0, Control_c, 0, 10, 64
2, 1440, Note_on_c, 0, 51, 100
2, 1560, Note_on_c, 0, 51, 0
2, 1560, Note_on_c, 0, 53, 100
2, 1680, Note_on_c, 0, 53, 0
2, 1680, Note_on_c, 0, 55, 100
2, 1800, Note_on_c, 0, 55, 0
2, 1800, Note_on_c, 0, 56, 100
2, 1920, Note_on_c, 0, 56, 0
2, 1920, Note_on_c, 0, 58, 100
2, 2400, Note_on_c, 0, 58, 0
2, 2400, Note_on_c, 0, 60, 100
2, 2640, Note_on_c, 0, 60, 0
2, 2640, Note_on_c, 0, 56, 100
2, 2880, Note_on_c, 0, 56, 0
2, 2880, Note_on_c, 0, 58, 100
2, 3360, Note_on_c, 0, 58, 0
2, 3360, Note_on_c, 0, 60, 100
2, 3600, Note_on_c, 0, 60, 0
2, 3600, Note_on_c, 0, 55, 100
2, 3840, Note_on_c, 0, 55, 0
2, 3840, Note_on_c, 0, 56, 100
2, 4320, Note_on_c, 0, 56, 0
2, 4320, Note_on_c, 0, 53, 100
2, 4800, Note_on_c, 0, 53, 0
2, 4800, Note_on_c, 0, 41, 100
2, 5280, Note_on_c, 0, 41, 0
2, 5280, Note_on_c, 0, 50, 100
2, 5400, Note_on_c, 0, 50, 0
2, 5400, Note_on_c, 0, 51, 100
2, 5520, Note_on_c, 0, 51, 0
2, 5520, Note_on_c, 0, 53, 100
2, 5640, Note_on_c, 0, 53, 0
2, 5640, Note_on_c, 0, 55, 100
2, 5760, Note_on_c, 0, 55, 0
2, 5760, Note_on_c, 0, 56, 100
2, 6240, Note_on_c, 0, 56, 0
2, 6240, Note_on_c, 0, 58, 100
2, 6480, Note_on_c, 0, 58, 0
2, 6480, Note_on_c, 0, 55, 100
2, 6720, Note_on_c, 0, 55, 0
2, 6720, Note_on_c, 0, 56, 100
2, 7200, Note_on_c, 0, 56, 0
2, 7200, Note_on_c, 0, 58, 100
2, 7440, Note_on_c, 0, 58, 0
2, 7440, Note_on_c, 0, 53, 100
2, 7680, Note_on_c, 0, 53, 0
2, 7680, Note_on_c, 0, 55, 100
2, 8160, Note_on_c, 0, 55, 0
2, 8160, Note_on_c, 0, 51, 100
2, 8640, Note_on_c, 0, 51, 0
2, 8640, Note_on_c, 0, 39, 100
2, 9120, Note_on_c, 0, 39, 0
2, 9120, Note_on_c, 0, 51, 100
2, 9240, Note_on_c, 0, 51, 0
2, 9240, Note_on_c, 0, 53, 100
2, 9360, Note_on_c, 0, 53, 0
2, 9360, Note_on_c, 0, 55, 100
2, 9480, Note_on_c, 0, 55, 0
2, 9480, Note_on_c, 0, 56, 100
2, 9600, Note_on_c, 0, 56, 0
2, 9600, Note_on_c, 0, 58, 100
2, 10080, Note_on_c, 0, 58, 0
2, 10080, Note_on_c, 0, 46, 100
2, 10200, Note_on_c, 0, 46, 0
2, 10200, Note_on_c, 0, 48, 100
2, 10320, Note_on_c, 0, 48, 0
2, 10320, Note_on_c, 0, 50, 100
2, 10440, Note_on_c, 0, 50, 0
2, 10440, Note_on_c, 0, 51, 100
2, 10560, Note_on_c, 0, 51, 0
2, 10560, Note_on_c, 0, 53, 100
2, 11040, Note_on_c, 0, 53, 0
2, 11040, Note_on_c, 0, 56, 100
2, 11520, Note_on_c, 0, 56, 0
2, 11520, Note_on_c, 0, 56, 100
2, 11760, Note_on_c, 0, 56, 0
2, 11760, Note_on_c, 0, 55, 100
2, 12000, Note_on_c, 0, 55, 0
2, 12000, Note_on_c, 0, 53, 100
2, 12240, Note_on_c, 0, 53, 0
2, 12240, Note_on_c, 0, 51, 100
2, 12480, Note_on_c, 0, 51, 0
2, 12480, Note_on_c, 0, 53, 100
2, 12960, Note_on_c, 0, 53, 0
2, 12960, Note_on_c, 0, 51, 100
2, 13080, Note_on_c, 0, 51, 0
2, 13080, Note_on_c, 0, 53, 100
2, 13200, Note_on_c, 0, 53, 0
2, 13200, Note_on_c, 0, 55, 100
2, 13320, Note_on_c, 0, 55, 0
2, 13320, Note_on_c, 0, 56, 100
2, 13440, Note_on_c, 0, 56, 0
2, 13440, Note_on_c, 0, 58, 100
2, 13920, Note_on_c, 0, 58, 0
2, 13920, Note_on_c, 0, 46, 100
2, 14040, Note_on_c, 0, 46, 0
2, 14040, Note_on_c, 0, 48, 100
2, 14160, Note_on_c, 0, 48, 0
2, 14160, Note_on_c, 0, 50, 100
2, 14280, Note_on_c, 0, 50, 0
2, 14280, Note_on_c, 0, 51, 100
2, 14400, Note_on_c, 0, 51, 0
2, 14400, Note_on_c, 0, 53, 100
2, 14880, Note_on_c, 0, 53, 0
2, 14880, Note_on_c, 0, 56, 100
2, 15360, Note_on_c, 0, 56, 0
2, 15360, Note_on_c, 0, 56, 100
2, 15600, Note_on_c, 0, 56, 0
2, 15600, Note_on_c, 0, 55, 100
2, 15840, Note_on_c, 0, 55, 0
2, 15840, Note_on_c, 0, 53, 100
2, 16080, Note_on_c, 0, 53, 0
2, 16080, Note_on_c, 0, 51, 100
2, 16320, Note_on_c, 0, 51, 0
2, 16320, Note_on_c, 0, 53, 100
2, 16800, Note_on_c, 0, 53, 0
2, 16800, Note_on_c, 0, 53, 100
2, 16920, Note_on_c, 0, 53, 0
2, 16920, Note_on_c, 0, 55, 100
2, 17040, Note_on_c, 0, 55, 0
2, 17040, Note_on_c, 0, 57, 100
2, 17160, Note_on_c, 0, 57, 0
2, 17160, Note_on_c, 0, 58, 100
2, 17280, Note_on_c, 0, 58, 0
2, 17280, Note_on_c, 0, 60, 100
2, 17760, Note_on_c, 0, 60, 0
2, 17760, Note_on_c, 0, 57, 100
2, 17880, Note_on_c, 0, 57, 0
2, 17880, Note_on_c, 0, 58, 100
2, 18000, Note_on_c, 0, 58, 0
2, 18000, Note_on_c, 0, 60, 100
2, 18120, Note_on_c, 0, 60, 0
2, 18120, Note_on_c, 0, 62, 100
2, 18240, Note_on_c, 0, 62, 0
2, 18240, Note_on_c, 0, 63, 100
2, 18720, Note_on_c, 0, 63, 0
2, 18720, Note_on_c, 0, 53, 100
2, 18840, Note_on_c, 0, 53, 0
2, 18840, Note_on_c, 0, 55, 100
2, 18960, Note_on_c, 0, 55, 0
2, 18960, Note_on_c, 0, 57, 100
2, 19080, Note_on_c, 0, 57, 0
2, 19080, Note_on_c, 0, 58, 100
2, 19200, Note_on_c, 0, 58, 0
2, 19200, Note_on_c, 0, 60, 100
2, 19680, Note_on_c, 0, 60, 0
2, 19680, Note_on_c, 0, 57, 100
2, 19800, Note_on_c, 0, 57, 0
2, 19800, Note_on_c, 0, 58, 100
2, 19920, Note_on_c, 0, 58, 0
2, 19920, Note_on_c, 0, 60, 100
2, 20040, Note_on_c, 0, 60, 0
2, 20040, Note_on_c, 0, 62, 100
2, 20160, Note_on_c, 0, 62, 0
2, 20160, Note_on_c, 0, 63, 100
2, 20640, Note_on_c, 0, 63, 0
2, 20640, Note_on_c, 0, 62, 100
2, 20880, Note_on_c, 0, 62, 0
2, 20880, Note_on_c, 0, 60, 100
2, 21120, Note_on_c, 0, 60, 0
2, 21120, Note_on_c, 0, 62, 100
2, 21360, Note_on_c, 0, 62, 0
2, 21360, Note_on_c, 0, 58, 100
2, 21600, Note_on_c, 0, 58, 0
2, 21600, Note_on_c, 0, 55, 100
2, 21840, Note_on_c, 0, 55, 0
2, 21840, Note_on_c, 0, 58, 100
2, 22080, Note_on_c, 0, 58, 0
2, 22080, Note_on_c, 0, 51, 100
2, 22320, Note_on_c, 0, 51, 0
2, 22320, Note_on_c, 0, 60, 100
2, 22560, Note_on_c, 0, 60, 0
2, 22560, Note_on_c, 0, 53, 100
2, 22800, Note_on_c, 0, 53, 0
2, 22800, Note_on_c, 0, 57, 100
2, 23040, Note_on_c, 0, 57, 0
2, 23040, Note_on_c, 0, 58, 100
2, 23520, Note_on_c, 0, 58, 0
2, 23520, Note_on_c, 0, 53, 100
2, 24000, Note_on_c, 0, 53, 0
2, 24000, Note_on_c, 0, 46, 100
2, 24480, Note_on_c, 0, 46, 0
2, 24480, Note_on_c, 0, 51, 100
2, 24600, Note_on_c, 0, 51, 0
2, 24600, Note_on_c, 0, 53, 100
2, 24720, Note_on_c, 0, 53, 0
2, 24720, Note_on_c, 0, 55, 100
2, 24840, Note_on_c, 0, 55, 0
2, 24840, Note_on_c, 0, 56, 100
2, 24960, Note_on_c, 0, 56, 0
2, 24960, Note_on_c, 0, 58, 100
2, 25440, Note_on_c, 0, 58, 0
2, 25440, Note_on_c, 0, 60, 100
2, 25680, Note_on_c, 0, 60, 0
2, 25680, Note_on_c, 0, 56, 100
2, 25920, Note_on_c, 0, 56, 0
2, 25920, Note_on_c, 0, 58, 100
2, 26400, Note_on_c, 0, 58, 0
2, 26400, Note_on_c, 0, 60, 100
2, 26640, Note_on_c, 0, 60, 0
2, 26640, Note_on_c, 0, 55, 100
2, 26880, Note_on_c, 0, 55, 0
2, 26880, Note_on_c, 0, 56, 100
2, 27360, Note_on_c, 0, 56, 0
2, 27360, Note_on_c, 0, 53, 100
2, 27840, Note_on_c, 0, 53, 0
2, 27840, Note_on_c, 0, 41, 100
2, 28320, Note_on_c, 0, 41, 0
2, 28320, Note_on_c, 0, 50, 100
2, 28440, Note_on_c, 0, 50, 0
2, 28440, Note_on_c, 0, 51, 100
2, 28560, Note_on_c, 0, 51, 0
2, 28560, Note_on_c, 0, 53, 100
2, 28680, Note_on_c, 0, 53, 0
2, 28680, Note_on_c, 0, 55, 100
2, 28800, Note_on_c, 0, 55, 0
2, 28800, Note_on_c, 0, 56, 100
2, 29280, Note_on_c, 0, 56, 0
2, 29280, Note_on_c, 0, 58, 100
2, 29520, Note_on_c, 0, 58, 0
2, 29520, Note_on_c, 0, 55, 100
2, 29760, Note_on_c, 0, 55, 0
2, 29760, Note_on_c, 0, 56, 100
2, 30240, Note_on_c, 0, 56, 0
2, 30240, Note_on_c, 0, 58, 100
2, 30480, Note_on_c, 0, 58, 0
2, 30480, Note_on_c, 0, 53, 100
2, 30720, Note_on_c, 0, 53, 0
2, 30720, Note_on_c, 0, 55, 100
2, 31200, Note_on_c, 0, 55, 0
2, 31200, Note_on_c, 0, 51, 100
2, 31680, Note_on_c, 0, 51, 0
2, 31680, Note_on_c, 0, 39, 100
2, 32160, Note_on_c, 0, 39, 0
2, 32160, Note_on_c, 0, 51, 100
2, 32280, Note_on_c, 0, 51, 0
2, 32280, Note_on_c, 0, 53, 100
2, 32400, Note_on_c, 0, 53, 0
2, 32400, Note_on_c, 0, 55, 100
2, 32520, Note_on_c, 0, 55, 0
2, 32520, Note_on_c, 0, 56, 100
2, 32640, Note_on_c, 0, 56, 0
2, 32640, Note_on_c, 0, 58, 100
2, 33120, Note_on_c, 0, 58, 0
2, 33120, Note_on_c, 0, 46, 100
2, 33240, Note_on_c, 0, 46, 0
2, 33240, Note_on_c, 0, 48, 100
2, 33360, Note_on_c, 0, 48, 0
2, 33360, Note_on_c, 0, 50, 100
2, 33480, Note_on_c, 0, 50, 0
2, 33480, Note_on_c, 0, 51, 100
2, 33600, Note_on_c, 0, 51, 0
2, 33600, Note_on_c, 0, 53, 100
2, 34080, Note_on_c, 0, 53, 0
2, 34080, Note_on_c, 0, 56, 100
2, 34560, Note_on_c, 0, 56, 0
2, 34560, Note_on_c, 0, 56, 100
2, 34800, Note_on_c, 0, 56, 0
2, 34800, Note_on_c, 0, 55, 100
2, 35040, Note_on_c, 0, 55, 0
2, 35040, Note_on_c, 0, 53, 100
2, 35280, Note_on_c, 0, 53, 0
2, 35280, Note_on_c, 0, 51, 100
2, 35520, Note_on_c, 0, 51, 0
2, 35520, Note_on_c, 0, 53, 100
2, 36000, Note_on_c, 0, 53, 0
2, 36000, Note_on_c, 0, 51, 100
2, 36120, Note_on_c, 0, 51, 0
2, 36120, Note_on_c, 0, 53, 100
2, 36240, Note_on_c, 0, 53, 0
2, 36240, Note_on_c, 0, 55, 100
2, 36360, Note_on_c, 0, 55, 0
2, 36360, Note_on_c, 0, 56, 100
2, 36480, Note_on_c, 0, 56, 0
2, 36480, Note_on_c, 0, 58, 100
2, 36960, Note_on_c, 0, 58, 0
2, 36960, Note_on_c, 0, 46, 100
2, 37080, Note_on_c, 0, 46, 0
2, 37080, Note_on_c, 0, 48, 100
2, 37200, Note_on_c, 0, 48, 0
2, 37200, Note_on_c, 0, 50, 100
2, 37320, Note_on_c, 0, 50, 0
2, 37320, Note_on_c, 0, 51, 100
2, 37440, Note_on_c, 0, 51, 0
2, 37440, Note_on_c, 0, 53, 100
2, 37920, Note_on_c, 0, 53, 0
2, 37920, Note_on_c, 0, 56, 100
2, 38400, Note_on_c, 0, 56, 0
2, 38400, Note_on_c, 0, 56, 100
2, 38640, Note_on_c, 0, 56, 0
2, 38640, Note_on_c, 0, 55, 100
2, 38880, Note_on_c, 0, 55, 0
2, 38880, Note_on_c, 0, 53, 100
2, 39120, Note_on_c, 0, 53, 0
2, 39120, Note_on_c, 0, 51, 100
2, 39360, Note_on_c, 0, 51, 0
2, 39360, Note_on_c, 0, 53, 100
2, 39840, Note_on_c, 0, 53, 0
2, 39840, Note_on_c, 0, 53, 100
2, 39960, Note_on_c, 0, 53, 0
2, 39960, Note_on_c, 0, 55, 100
2, 40080, Note_on_c, 0, 55, 0
2, 40080, Note_on_c, 0, 57, 100
2, 40200, Note_on_c, 0, 57, 0
2, 40200, Note_on_c, 0, 58, 100
2, 40320, Note_on_c, 0, 58, 0
2, 40320, Note_on_c, 0, 60, 100
2, 40800, Note_on_c, 0, 60, 0
2, 40800, Note_on_c, 0, 57, 100
2, 40920, Note_on_c, 0, 57, 0
2, 40920, Note_on_c, 0, 58, 100
2, 41040, Note_on_c, 0, 58, 0
2, 41040, Note_on_c, 0, 60, 100
2, 41160, Note_on_c, 0, 60, 0
2, 41160, Note_on_c, 0, 62, 100
2, 41280, Note_on_c, 0, 62, 0
2, 41280, Note_on_c, 0, 63, 100
2, 41760, Note_on_c, 0, 63, 0
2, 41760, Note_on_c, 0, 53, 100
2, 41880, Note_on_c, 0, 53, 0
2, 41880, Note_on_c, 0, 55, 100
2, 42000, Note_on_c, 0, 55, 0
2, 42000, Note_on_c, 0, 57, 100
2, 42120, Note_on_c, 0, 57, 0
2, 42120, Note_on_c, 0, 58, 100
2, 42240, Note_on_c, 0, 58, 0
2, 42240, Note_on_c, 0, 60, 100
2, 42720, Note_on_c, 0, 60, 0
2, 42720, Note_on_c, 0, 57, 100
2, 42840, Note_on_c, 0, 57, 0
2, 42840, Note_on_c, 0, 58, 100
2, 42960, Note_on_c, 0, 58, 0
2, 42960, Note_on_c, 0, 60, 100
2, 43080, Note_on_c, 0, 60, 0
2, 43080, Note_on_c, 0, 62, 100
2, 43200, Note_on_c, 0, 62, 0
2, 43200, Note_on_c, 0, 63, 100
2, 43680, Note_on_c, 0, 63, 0
2, 43680, Note_on_c, 0, 62, 100
2, 43920, Note_on_c, 0, 62, 0
2, 43920, Note_on_c, 0, 60, 100
2, 44160, Note_on_c, 0, 60, 0
2, 44160, Note_on_c, 0, 62, 100
2, 44400, Note_on_c, 0, 62, 0
2, 44400, Note_on_c, 0, 58, 100
2, 44640, Note_on_c, 0, 58, 0
2, 44640, Note_on_c, 0, 55, 100
2, 44880, Note_on_c, 0, 55, 0
2, 44880, Note_on_c, 0, 58, 100
2, 45120, Note_on_c, 0, 58, 0
2, 45120, Note_on_c, 0, 51, 100
2, 45360, Note_on_c, 0, 51, 0
2, 45360, Note_on_c, 0, 60, 100
2, 45600, Note_on_c, 0, 60, 0
2, 45600, Note_on_c, 0, 53, 100
2, 45840, Note_on_c, 0, 53, 0
2, 45840, Note_on_c, 0, 57, 100
2, 46080, Note_on_c, 0, 57, 0
2, 46080, Note_on_c, 0, 58, 100
2, 46560, Note_on_c, 0, 58, 0
2, 46560, Note_on_c, 0, 53, 100
2, 47040, Note_on_c, 0, 53, 0
2, 47040, Note_on_c, 0, 46, 100
2, 47520, Note_on_c, 0, 46, 0
2, 47520, Note_on_c, 0, 46, 100
2, 47640, Note_on_c, 0, 46, 0
2, 47640, Note_on_c, 0, 48, 100
2, 47760, Note_on_c, 0, 48, 0
2, 47760, Note_on_c, 0, 50, 100
2, 47880, Note_on_c, 0, 50, 0
2, 47880, Note_on_c, 0, 51, 100
2, 48000, Note_on_c, 0, 51, 0
2, 48000, Note_on_c, 0, 53, 100
2, 48480, Note_on_c, 0, 53, 0
2, 48480, Note_on_c, 0, 55, 100
2, 48720, Note_on_c, 0, 55, 0
2, 48720, Note_on_c, 0, 51, 100
2, 48960, Note_on_c, 0, 51, 0
2, 48960, Note_on_c, 0, 53, 100
2, 49440, Note_on_c, 0, 53, 0
2, 49440, Note_on_c, 0, 58, 100
2, 49680, Note_on_c, 0, 58, 0
2, 49680, Note_on_c, 0, 53, 100
2, 49920, Note_on_c, 0, 53, 0
2, 49920, Note_on_c, 0, 55, 100
2, 50400, Note_on_c, 0, 55, 0
2, 50400, Note_on_c, 0, 51, 100
2, 50880, Note_on_c, 0, 51, 0
2, 50880, Note_on_c, 0, 39, 100
2, 51360, Note_on_c, 0, 39, 0
2, 51360, Note_on_c, 0, 56, 100
2, 51480, Note_on_c, 0, 56, 0
2, 51480, Note_on_c, 0, 55, 100
2, 51600, Note_on_c, 0, 55, 0
2, 51600, Note_on_c, 0, 53, 100
2, 51720, Note_on_c, 0, 53, 0
2, 51720, Note_on_c, 0, 51, 100
2, 51840, Note_on_c, 0, 51, 0
2, 51840, Note_on_c, 0, 50, 100
2, 52320, Note_on_c, 0, 50, 0
2, 52320, Note_on_c, 0, 53, 100
2, 52440, Note_on_c, 0, 53, 0
2, 52440, Note_on_c, 0, 51, 100
2, 52560, Note_on_c, 0, 51, 0
2, 52560, Note_on_c, 0, 50, 100
2, 52680, Note_on_c, 0, 50, 0
2, 52680, Note_on_c, 0, 48, 100
2, 52800, Note_on_c, 0, 48, 0
2, 52800, Note_on_c, 0, 47, 100
2, 53280, Note_on_c, 0, 47, 0
2, 53280, Note_on_c, 0, 50, 100
2, 53400, Note_on_c, 0, 50, 0
2, 53400, Note_on_c, 0, 48, 100
2, 53520, Note_on_c, 0, 48, 0
2, 53520, Note_on_c, 0, 47, 100
2, 53640, Note_on_c, 0, 47, 0
2, 53640, Note_on_c, 0, 45, 100
2, 53760, Note_on_c, 0, 45, 0
2, 53760, Note_on_c, 0, 43, 100
2, 54000, Note_on_c, 0, 43, 0
2, 54000, Note_on_c, 0, 50, 100
2, 54240, Note_on_c, 0, 50, 0
2, 54240, Note_on_c, 0, 53, 100
2, 54480, Note_on_c, 0, 53, 0
2, 54480, Note_on_c, 0, 59, 100
2, 54720, Note_on_c, 0, 59, 0
2, 54720, Note_on_c, 0, 62, 100
2, 55200, Note_on_c, 0, 62, 0
2, 55200, Note_on_c, 0, 55, 100
2, 55320, Note_on_c, 0, 55, 0
2, 55320, Note_on_c, 0, 53, 100
2, 55440, Note_on_c, 0, 53, 0
2, 55440, Note_on_c, 0, 51, 100
2, 55560, Note_on_c, 0, 51, 0
2, 55560, Note_on_c, 0, 50, 100
2, 55680, Note_on_c, 0, 50, 0
2, 55680, Note_on_c, 0, 51, 100
2, 56160, Note_on_c, 0, 51, 0
2, 56160, Note_on_c, 0, 36, 100
2, 56280, Note_on_c, 0, 36, 0
2, 56280, Note_on_c, 0, 38, 100
2, 56400, Note_on_c, 0, 38, 0
2, 56400, Note_on_c, 0, 39, 100
2, 56520, Note_on_c, 0, 39, 0
2, 56520, Note_on_c, 0, 41, 100
2, 56640, Note_on_c, 0, 41, 0
2, 56640, Note_on_c, 0, 43, 100
2, 57120, Note_on_c, 0, 43, 0
2, 57120, Note_on_c, 0, 62, 100
2, 57240, Note_on_c, 0, 62, 0
2, 57240, Note_on_c, 0, 60, 100
2, 57360, Note_on_c, 0, 60, 0
2, 57360, Note_on_c, 0, 59, 100
2, 57480, Note_on_c, 0, 59, 0
2, 57480, Note_on_c, 0, 57, 100
2, 57600, Note_on_c, 0, 57, 0
2, 57600, Note_on_c, 0, 59, 100
2, 58080, Note_on_c, 0, 59, 0
2, 58080, Note_on_c, 0, 43, 100
2, 58200, Note_on_c, 0, 43, 0
2, 58200, Note_on_c, 0, 45, 100
2, 58320, Note_on_c, 0, 45, 0
2, 58320, Note_on_c, 0, 47, 100
2, 58440, Note_on_c, 0, 47, 0
2, 58440, Note_on_c, 0, 48, 100
2, 58560, Note_on_c, 0, 48, 0
2, 58560, Note_on_c, 0, 50, 100
2, 59040, Note_on_c, 0, 50, 0
2, 59040, Note_on_c, 0, 67, 100
2, 59160, Note_on_c, 0, 67, 0
2, 59160, Note_on_c, 0, 65, 100
2, 59280, Note_on_c, 0, 65, 0
2, 59280, Note_on_c, 0, 63, 100
2, 59400, Note_on_c, 0, 63, 0
2, 59400, Note_on_c, 0, 62, 100
2, 59520, Note_on_c, 0, 62, 0
2, 59520, Note_on_c, 0, 63, 100
2, 60000, Note_on_c, 0, 63, 0
2, 60000, Note_on_c, 0, 63, 100
2, 60120, Note_on_c, 0, 63, 0
2, 60120, Note_on_c, 0, 62, 100
2, 60240, Note_on_c, 0, 62, 0
2, 60240, Note_on_c, 0, 60, 100
2, 60360, Note_on_c, 0, 60, 0
2, 60360, Note_on_c, 0, 59, 100
2, 60480, Note_on_c, 0, 59, 0
2, 60480, Note_on_c, 0, 60, 100
2, 60960, Note_on_c, 0, 60, 0
2, 60960, Note_on_c, 0, 60, 100
2, 61080, Note_on_c, 0, 60, 0
2, 61080, Note_on_c, 0, 58, 100
2, 61200, Note_on_c, 0, 58, 0
2, 61200, Note_on_c, 0, 56, 100
2, 61320, Note_on_c, 0, 56, 0
2, 61320, Note_on_c, 0, 55, 100
2, 61440, Note_on_c, 0, 55, 0
2, 61440, Note_on_c, 0, 56, 100
2, 61920, Note_on_c, 0, 56, 0
2, 61920, Note_on_c, 0, 56, 100
2, 62040, Note_on_c, 0, 56, 0
2, 62040, Note_on_c, 0, 55, 100
2, 62160, Note_on_c, 0, 55, 0
2, 62160, Note_on_c, 0, 53, 100
2, 62280, Note_on_c, 0, 53, 0
2, 62280, Note_on_c, 0, 51, 100
2, 62400, Note_on_c, 0, 51, 0
2, 62400, Note_on_c, 0, 50, 100
2, 62880, Note_on_c, 0, 50, 0
2, 62880, Note_on_c, 0, 60, 100
2, 63120, Note_on_c, 0, 60, 0
2, 63120, Note_on_c, 0, 59, 100
2, 63360, Note_on_c, 0, 59, 0
2, 63360, Note_on_c, 0, 60, 100
2, 63600, Note_on_c, 0, 60, 0
2, 63600, Note_on_c, 0, 56, 100
2, 63840, Note_on_c, 0, 56, 0
2, 63840, Note_on_c, 0, 53, 100
2, 64080, Note_on_c, 0, 53, 0
2, 64080, Note_on_c, 0, 56, 100
2, 64320, Note_on_c, 0, 56, 0
2, 64320, Note_on_c, 0, 50, 100
2, 64560, Note_on_c, 0, 50, 0
2, 64560, Note_on_c, 0, 60, 100
2, 64800, Note_on_c, 0, 60, 0
2, 64800, Note_on_c, 0, 55, 100
2, 65040, Note_on_c, 0, 55, 0
2, 65040, Note_on_c, 0, 59, 100
2, 65280, Note_on_c, 0, 59, 0
2, 65280, Note_on_c, 0, 60, 100
2, 65760, Note_on_c, 0, 60, 0
2, 65760, Note_on_c, 0, 43, 100
2, 66240, Note_on_c, 0, 43, 0
2, 66240, Note_on_c, 0, 36, 100
2, 66720, Note_on_c, 0, 36, 0
2, 66720, Note_on_c, 0, 48, 100
2, 66840, Note_on_c, 0, 48, 0
2, 66840, Note_on_c, 0, 50, 100
2, 66960, Note_on_c, 0, 50, 0
2, 66960, Note_on_c, 0, 52, 100
2, 67080, Note_on_c, 0, 52, 0
2, 67080, Note_on_c, 0, 53, 100
2, 67200, Note_on_c, 0, 53, 0
2, 67200, Note_on_c, 0, 55, 100
2, 67680, Note_on_c, 0, 55, 0
2, 67680, Note_on_c, 0, 56, 100
2, 67920, Note_on_c, 0, 56, 0
2, 67920, Note_on_c, 0, 53, 100
2, 68160, Note_on_c, 0, 53, 0
2, 68160, Note_on_c, 0, 55, 100
2, 68640, Note_on_c, 0, 55, 0
2, 68640, Note_on_c, 0, 60, 100
2, 68880, Note_on_c, 0, 60, 0
2, 68880, Note_on_c, 0, 55, 100
2, 69120, Note_on_c, 0, 55, 0
2, 69120, Note_on_c, 0, 58, 100
2, 69360, Note_on_c, 0, 58, 0
2, 69360, Note_on_c, 0, 56, 100
2, 69600, Note_on_c, 0, 56, 0
2, 69600, Note_on_c, 0, 55, 100
2, 69840, Note_on_c, 0, 55, 0
2, 69840, Note_on_c, 0, 53, 100
2, 70080, Note_on_c, 0, 53, 0
2, 70080, Note_on_c, 0, 63, 100
2, 70320, Note_on_c, 0, 63, 0
2, 70320, Note_on_c, 0, 62, 100
2, 70560, Note_on_c, 0, 62, 0
2, 70560, Note_on_c, 0, 60, 100
2, 70800, Note_on_c, 0, 60, 0
2, 70800, Note_on_c, 0, 58, 100
2, 71040, Note_on_c, 0, 58, 0
2, 71040, Note_on_c, 0, 63, 100
2, 71520, Note_on_c, 0, 63, 0
2, 71520, Note_on_c, 0, 51, 100
2, 71640, Note_on_c, 0, 51, 0
2, 71640, Note_on_c, 0, 53, 100
2, 71760, Note_on_c, 0, 53, 0
2, 71760, Note_on_c, 0, 55, 100
2, 71880, Note_on_c, 0, 55, 0
2, 71880, Note_on_c, 0, 56, 100
2, 72000, Note_on_c, 0, 56, 0
2, 72000, Note_on_c, 0, 58, 100
2, 72480, Note_on_c, 0, 58, 0
2, 72480, Note_on_c, 0, 60, 100
2, 72960, Note_on_c, 0, 60, 0
2, 72960, Note_on_c, 0, 51, 100
2, 73200, Note_on_c, 0, 51, 0
2, 73200, Note_on_c, 0, 50, 100
2, 73440, Note_on_c, 0, 50, 0
2, 73440, Note_on_c, 0, 48, 100
2, 73680, Note_on_c, 0, 48, 0
2, 73680, Note_on_c, 0, 50, 100
2, 73920, Note_on_c, 0, 50, 0
2, 73920, Note_on_c, 0, 46, 100
2, 74400, Note_on_c, 0, 46, 0
2, 74400, Note_on_c, 0, 46, 100
2, 74520, Note_on_c, 0, 46, 0
2, 74520, Note_on_c, 0, 48, 100
2, 74640, Note_on_c, 0, 48, 0
2, 74640, Note_on_c, 0, 50, 100
2, 74760, Note_on_c, 0, 50, 0
2, 74760, Note_on_c, 0, 51, 100
2, 74880, Note_on_c, 0, 51, 0
2, 74880, Note_on_c, 0, 53, 100
2, 75360, Note_on_c, 0, 53, 0
2, 75360, Note_on_c, 0, 50, 100
2, 75480, Note_on_c, 0, 50, 0
2, 75480, Note_on_c, 0, 51, 100
2, 75600, Note_on_c, 0, 51, 0
2, 75600, Note_on_c, 0, 53, 100
2, 75720, Note_on_c, 0, 53, 0
2, 75720, Note_on_c, 0, 55, 100
2, 75840, Note_on_c, 0, 55, 0
2, 75840, Note_on_c, 0, 56, 100
2, 76320, Note_on_c, 0, 56, 0
2, 76320, Note_on_c, 0, 46, 100
2, 76440, Note_on_c, 0, 46, 0
2, 76440, Note_on_c, 0, 48, 100
2, 76560, Note_on_c, 0, 48, 0
2, 76560, Note_on_c, 0, 50, 100
2, 76680, Note_on_c, 0, 50, 0
2, 76680, Note_on_c, 0, 51, 100
2, 76800, Note_on_c, 0, 51, 0
2, 76800, Note_on_c, 0, 53, 100
2, 77280, Note_on_c, 0, 53, 0
2, 77280, Note_on_c, 0, 50, 100
2, 77400, Note_on_c, 0, 50, 0
2, 77400, Note_on_c, 0, 51, 100
2, 77520, Note_on_c, 0, 51, 0
2, 77520, Note_on_c, 0, 53, 100
2, 77640, Note_on_c, 0, 53, 0
2, 77640, Note_on_c, 0, 55, 100
2, 77760, Note_on_c, 0, 55, 0
2, 77760, Note_on_c, 0, 56, 100
2, 78240, Note_on_c, 0, 56, 0
2, 78240, Note_on_c, 0, 51, 100
2, 78360, Note_on_c, 0, 51, 0
2, 78360, Note_on_c, 0, 53, 100
2, 78480, Note_on_c, 0, 53, 0
2, 78480, Note_on_c, 0, 55, 100
2, 78600, Note_on_c, 0, 55, 0
2, 78600, Note_on_c, 0, 56, 100
2, 78720, Note_on_c, 0, 56, 0
2, 78720, Note_on_c, 0, 58, 100
2, 79200, Note_on_c, 0, 58, 0
2, 79200, Note_on_c, 0, 55, 100
2, 79320, Note_on_c, 0, 55, 0
2, 79320, Note_on_c, 0, 56, 100
2, 79440, Note_on_c, 0, 56, 0
2, 79440, Note_on_c, 0, 58, 100
2, 79560, Note_on_c, 0, 58, 0
2, 79560, Note_on_c, 0, 60, 100
2, 79680, Note_on_c, 0, 60, 0
2, 79680, Note_on_c, 0, 61, 100
2, 80160, Note_on_c, 0, 61, 0
2, 80160, Note_on_c, 0, 51, 100
2, 80280, Note_on_c, 0, 51, 0
2, 80280, Note_on_c, 0, 53, 100
2, 80400, Note_on_c, 0, 53, 0
2, 80400, Note_on_c, 0, 55, 100
2, 80520, Note_on_c, 0, 55, 0
2, 80520, Note_on_c, 0, 56, 100
2, 80640, Note_on_c, 0, 56, 0
2, 80640, Note_on_c, 0, 58, 100
2, 81120, Note_on_c, 0, 58, 0
2, 81120, Note_on_c, 0, 55, 100
2, 81240, Note_on_c, 0, 55, 0
2, 81240, Note_on_c, 0, 56, 100
2, 81360, Note_on_c, 0, 56, 0
2, 81360, Note_on_c, 0, 58, 100
2, 81480, Note_on_c, 0, 58, 0
2, 81480, Note_on_c, 0, 60, 100
2, 81600, Note_on_c, 0, 60, 0
2, 81600, Note_on_c, 0, 61, 100
2, 82080, Note_on_c, 0, 61, 0
2, 82080, Note_on_c, 0, 60, 100
2, 82320, Note_on_c, 0, 60, 0
2, 82320, Note_on_c, 0, 58, 100
2, 82560, Note_on_c, 0, 58, 0
2, 82560, Note_on_c, 0, 60, 100
2, 82800, Note_on_c, 0, 60, 0
2, 82800, Note_on_c, 0, 58, 100
2, 83040, Note_on_c, 0, 58, 0
2, 83040, Note_on_c, 0, 58, 100
2, 83280, Note_on_c, 0, 58, 0
2, 83280, Note_on_c, 0, 56, 100
2, 83520, Note_on_c, 0, 56, 0
2, 83520, Note_on_c, 0, 58, 100
2, 83760, Note_on_c, 0, 58, 0
2, 83760, Note_on_c, 0, 55, 100
2, 84000, Note_on_c, 0, 55, 0
2, 84000, Note_on_c, 0, 43, 100
2, 84240, Note_on_c, 0, 43, 0
2, 84240, Note_on_c, 0, 55, 100
2, 84360, Note_on_c, 0, 55, 0
2, 84360, Note_on_c, 0, 56, 100
2, 84480, Note_on_c, 0, 56, 0
2, 84480, Note_on_c, 0, 58, 100
2, 84720, Note_on_c, 0, 58, 0
2, 84720, Note_on_c, 0, 55, 100
2, 84840, Note_on_c, 0, 55, 0
2, 84840, Note_on_c, 0, 56, 100
2, 84960, Note_on_c, 0, 56, 0
2, 84960, Note_on_c, 0, 58, 100
2, 85200, Note_on_c, 0, 58, 0
2, 85200, Note_on_c, 0, 56, 100
2, 85320, Note_on_c, 0, 56, 0
2, 85320, Note_on_c, 0, 55, 100
2, 85440, Note_on_c, 0, 55, 0
2, 85440, Note_on_c, 0, 56, 100
2, 85680, Note_on_c, 0, 56, 0
2, 85680, Note_on_c, 0, 53, 100
2, 85920, Note_on_c, 0, 53, 0
2, 85920, Note_on_c, 0, 41, 100
2, 86160, Note_on_c, 0, 41, 0
2, 86160, Note_on_c, 0, 56, 100
2, 86400, Note_on_c, 0, 56, 0
2, 86400, Note_on_c, 0, 55, 100
2, 86520, Note_on_c, 0, 55, 0
2, 86520, Note_on_c, 0, 53, 100
2, 86640, Note_on_c, 0, 53, 0
2, 86640, Note_on_c, 0, 51, 100
2, 86760, Note_on_c, 0, 51, 0
2, 86760, Note_on_c, 0, 50, 100
2, 86880, Note_on_c, 0, 50, 0
2, 86880, Note_on_c, 0, 51, 100
2, 87120, Note_on_c, 0, 51, 0
2, 87120, Note_on_c, 0, 58, 100
2, 87360, Note_on_c, 0, 58, 0
2, 87360, Note_on_c, 0, 55, 100
2, 87480, Note_on_c, 0, 55, 0
2, 87480, Note_on_c, 0, 53, 100
2, 87600, Note_on_c, 0, 53, 0
2, 87600, Note_on_c, 0, 51, 100
2, 87720, Note_on_c, 0, 51, 0
2, 87720, Note_on_c, 0, 50, 100
2, 87840, Note_on_c, 0, 50, 0
2, 87840, Note_on_c, 0, 51, 100
2, 88080, Note_on_c, 0, 51, 0
2, 88080, Note_on_c, 0, 63, 100
2, 88320, Note_on_c, 0, 63, 0
2, 88320, Note_on_c, 0, 56, 100
2, 88440, Note_on_c, 0, 56, 0
2, 88440, Note_on_c, 0, 55, 100
2, 88560, Note_on_c, 0, 55, 0
2, 88560, Note_on_c, 0, 53, 100
2, 88680, Note_on_c, 0, 53, 0
2, 88680, Note_on_c, 0, 55, 100
2, 88800, Note_on_c, 0, 55, 0
2, 88800, Note_on_c, 0, 56, 100
2, 88920, Note_on_c, 0, 56, 0
2, 88920, Note_on_c, 0, 55, 100
2, 89040, Note_on_c, 0, 55, 0
2, 89040, Note_on_c, 0, 53, 100
2, 89160, Note_on_c, 0, 53, 0
2, 89160, Note_on_c, 0, 55, 100
2, 89280, Note_on_c, 0, 55, 0
2, 89280, Note_on_c, 0, 56, 100
2, 89400, Note_on_c, 0, 56, 0
2, 89400, Note_on_c, 0, 55, 100
2, 89520, Note_on_c, 0, 55, 0
2, 89520, Note_on_c, 0, 53, 100
2, 89640, Note_on_c, 0, 53, 0
2, 89640, Note_on_c, 0, 51, 100
2, 89760, Note_on_c, 0, 51, 0
2, 89760, Note_on_c, 0, 50, 100
2, 89880, Note_on_c, 0, 50, 0
2, 89880, Note_on_c, 0, 48, 100
2, 90000, Note_on_c, 0, 48, 0
2, 90000, Note_on_c, 0, 46, 100
2, 90120, Note_on_c, 0, 46, 0
2, 90120, Note_on_c, 0, 44, 100
2, 90240, Note_on_c, 0, 44, 0
2, 90240, Note_on_c, 0, 43, 100
2, 90480, Note_on_c, 0, 43, 0
2, 90480, Note_on_c, 0, 51, 100
2, 90720, Note_on_c, 0, 51, 0
2, 90720, Note_on_c, 0, 60, 100
2, 90960, Note_on_c, 0, 60, 0
2, 90960, Note_on_c, 0, 56, 100
2, 91200, Note_on_c, 0, 56, 0
2, 91200, Note_on_c, 0, 58, 100
2, 91680, Note_on_c, 0, 58, 0
2, 91680, Note_on_c, 0, 60, 100
2, 91920, Note_on_c, 0, 60, 0
2, 91920, Note_on_c, 0, 55, 100
2, 92160, Note_on_c, 0, 55, 0
2, 92160, Note_on_c, 0, 56, 100
2, 92640, Note_on_c, 0, 56, 0
2, 92640, Note_on_c, 0, 53, 100
2, 93120, Note_on_c, 0, 53, 0
2, 93120, Note_on_c, 0, 41, 100
2, 93600, Note_on_c, 0, 41, 0
2, 93600, Note_on_c, 0, 60, 100
2, 93720, Note_on_c, 0, 60, 0
2, 93720, Note_on_c, 0, 58, 100
2, 93840, Note_on_c, 0, 58, 0
2, 93840, Note_on_c, 0, 56, 100
2, 93960, Note_on_c, 0, 56, 0
2, 93960, Note_on_c, 0, 55, 100
2, 94080, Note_on_c, 0, 55, 0
2, 94080, Note_on_c, 0, 53, 100
2, 94560, Note_on_c, 0, 53, 0
2, 94560, Note_on_c, 0, 56, 100
2, 94680, Note_on_c, 0, 56, 0
2, 94680, Note_on_c, 0, 55, 100
2, 94800, Note_on_c, 0, 55, 0
2, 94800, Note_on_c, 0, 53, 100
2, 94920, Note_on_c, 0, 53, 0
2, 94920, Note_on_c, 0, 51, 100
2, 95040, Note_on_c, 0, 51, 0
2, 95040, Note_on_c, 0, 50, 100
2, 95520, Note_on_c, 0, 50, 0
2, 95520, Note_on_c, 0, 53, 100
2, 95640, Note_on_c, 0, 53, 0
2, 95640, Note_on_c, 0, 51, 100
2, 95760, Note_on_c, 0, 51, 0
2, 95760, Note_on_c, 0, 50, 100
2, 95880, Note_on_c, 0, 50, 0
2, 95880, Note_on_c, 0, 48, 100
2, 96000, Note_on_c, 0, 48, 0
2, 96000, Note_on_c, 0, 46, 100
2, 96240, Note_on_c, 0, 46, 0
2, 96240, Note_on_c, 0, 50, 100
2, 96480, Note_on_c, 0, 50, 0
2, 96480, Note_on_c, 0, 53, 100
2, 96720, Note_on_c, 0, 53, 0
2, 96720, Note_on_c, 0, 56, 100
2, 96960, Note_on_c, 0, 56, 0
2, 96960, Note_on_c, 0, 65, 100
2, 97440, Note_on_c, 0, 65, 0
2, 97440, Note_on_c, 0, 63, 100
2, 97560, Note_on_c, 0, 63, 0
2, 97560, Note_on_c, 0, 62, 100
2, 97680, Note_on_c, 0, 62, 0
2, 97680, Note_on_c, 0, 60, 100
2, 97800, Note_on_c, 0, 60, 0
2, 97800, Note_on_c, 0, 58, 100
2, 97920, Note_on_c, 0, 58, 0
2, 97920, Note_on_c, 0, 63, 100
2, 98400, Note_on_c, 0, 63, 0
2, 98400, Note_on_c, 0, 51, 100
2, 98520, Note_on_c, 0, 51, 0
2, 98520, Note_on_c, 0, 53, 100
2, 98640, Note_on_c, 0, 53, 0
2, 98640, Note_on_c, 0, 55, 100
2, 98760, Note_on_c, 0, 55, 0
2, 98760, Note_on_c, 0, 56, 100
2, 98880, Note_on_c, 0, 56, 0
2, 98880, Note_on_c, 0, 58, 100
2, 99360, Note_on_c, 0, 58, 0
2, 99360, Note_on_c, 0, 60, 100
2, 99840, Note_on_c, 0, 60, 0
2, 99840, Note_on_c, 0, 51, 100
2, 100080, Note_on_c, 0, 51, 0
2, 100080, Note_on_c, 0, 50, 100
2, 100320, Note_on_c, 0, 50, 0
2, 100320, Note_on_c, 0, 48, 100
2, 100560, Note_on_c, 0, 48, 0
2, 100560, Note_on_c, 0, 50, 100
2, 100800, Note_on_c, 0, 50, 0
2, 100800, Note_on_c, 0, 46, 100
2, 101280, Note_on_c, 0, 46, 0
2, 101280, Note_on_c, 0, 63, 100
2, 101400, Note_on_c, 0, 63, 0
2, 101400, Note_on_c, 0, 62, 100
2, 101520, Note_on_c, 0, 62, 0
2, 101520, Note_on_c, 0, 60, 100
2, 101640, Note_on_c, 0, 60, 0
2, 101640, Note_on_c, 0, 58, 100
2, 101760, Note_on_c, 0, 58, 0
2, 101760, Note_on_c, 0, 63, 100
2, 102240, Note_on_c, 0, 63, 0
2, 102240, Note_on_c, 0, 51, 100
2, 102360, Note_on_c, 0, 51, 0
2, 102360, Note_on_c, 0, 53, 100
2, 102480, Note_on_c, 0, 53, 0
2, 102480, Note_on_c, 0, 55, 100
2, 102600, Note_on_c, 0, 55, 0
2, 102600, Note_on_c, 0, 56, 100
2, 102720, Note_on_c, 0, 56, 0
2, 102720, Note_on_c, 0, 58, 100
2, 103200, Note_on_c, 0, 58, 0
2, 103200, Note_on_c, 0, 60, 100
2, 103680, Note_on_c, 0, 60, 0
2, 103680, Note_on_c, 0, 61, 100
2, 103800, Note_on_c, 0, 61, 0
2, 103800, Note_on_c, 0, 60, 100
2, 103920, Note_on_c, 0, 60, 0
2, 103920, Note_on_c, 0, 58, 100
2, 104160, Note_on_c, 0, 58, 0
2, 104160, Note_on_c, 0, 60, 100
2, 104880, Note_on_c, 0, 60, 0
2, 104880, Note_on_c, 0, 58, 100
2, 105000, Note_on_c, 0, 58, 0
2, 105000, Note_on_c, 0, 56, 100
2, 105120, Note_on_c, 0, 56, 0
2, 105120, Note_on_c, 0, 58, 100
2, 105240, Note_on_c, 0, 58, 0
2, 105240, Note_on_c, 0, 56, 100
2, 105360, Note_on_c, 0, 56, 0
2, 105360, Note_on_c, 0, 55, 100
2, 105600, Note_on_c, 0, 55, 0
2, 105600, Note_on_c, 0, 56, 100
2, 105720, Note_on_c, 0, 56, 0
2, 105720, Note_on_c, 0, 55, 100
2, 105840, Note_on_c, 0, 55, 0
2, 105840, Note_on_c, 0, 53, 100
2, 106080, Note_on_c, 0, 53, 0
2, 106080, Note_on_c, 0, 55, 100
2, 106800, Note_on_c, 0, 55, 0
2, 106800, Note_on_c, 0, 53, 100
2, 106920, Note_on_c, 0, 53, 0
2, 106920, Note_on_c, 0, 51, 100
2, 107040, Note_on_c, 0, 51, 0
2, 107040, Note_on_c, 0, 53, 100
2, 107160, Note_on_c, 0, 53, 0
2, 107160, Note_on_c, 0, 51, 100
2, 107280, Note_on_c, 0, 51, 0
2, 107280, Note_on_c, 0, 50, 100
2, 107520, Note_on_c, 0, 50, 0
2, 107520, Note_on_c, 0, 51, 100
2, 107760, Note_on_c, 0, 51, 0
2, 107760, Note_on_c, 0, 46, 100
2, 108000, Note_on_c, 0, 46, 0
2, 108000, Note_on_c, 0, 43, 100
2, 108240, Note_on_c, 0, 43, 0
2, 108240, Note_on_c, 0, 46, 100
2, 108480, Note_on_c, 0, 46, 0
2, 108480, Note_on_c, 0, 39, 100
2, 108960, Note_on_c, 0, 39, 0
2, 108960, Note_on_c, 0, 46, 100
2, 109080, Note_on_c, 0, 46, 0
2, 109080, Note_on_c, 0, 48, 100
2, 109200, Note_on_c, 0, 48, 0
2, 109200, Note_on_c, 0, 50, 100
2, 109320, Note_on_c, 0, 50, 0
2, 109320, Note_on_c, 0, 51, 100
2, 109440, Note_on_c, 0, 51, 0
2, 109440, Note_on_c, 0, 53, 100
2, 109920, Note_on_c, 0, 53, 0
2, 109920, Note_on_c, 0, 50, 100
2, 110040, Note_on_c, 0, 50, 0
2, 110040, Note_on_c, 0, 51, 100
2, 110160, Note_on_c, 0, 51, 0
2, 110160, Note_on_c, 0, 53, 100
2, 110280, Note_on_c, 0, 53, 0
2, 110280, Note_on_c, 0, 55, 100
2, 110400, Note_on_c, 0, 55, 0
2, 110400, Note_on_c, 0, 56, 100
2, 110880, Note_on_c, 0, 56, 0
2, 110880, Note_on_c, 0, 46, 100
2, 111000, Note_on_c, 0, 46, 0
2, 111000, Note_on_c, 0, 48, 100
2, 111120, Note_on_c, 0, 48, 0
2, 111120, Note_on_c, 0, 50, 100
2, 111240, Note_on_c, 0, 50, 0
2, 111240, Note_on_c, 0, 51, 100
2, 111360, Note_on_c, 0, 51, 0
2, 111360, Note_on_c, 0, 53, 100
2, 111840, Note_on_c, 0, 53, 0
2, 111840, Note_on_c, 0, 50, 100
2, 111960, Note_on_c, 0, 50, 0
2, 111960, Note_on_c, 0, 51, 100
2, 112080, Note_on_c, 0, 51, 0
2, 112080, Note_on_c, 0, 53, 100
2, 112200, Note_on_c, 0, 53, 0
2, 112200, Note_on_c, 0, 55, 100
2, 112320, Note_on_c, 0, 55, 0
2, 112320, Note_on_c, 0, 56, 100
2, 112800, Note_on_c, 0, 56, 0
2, 112800, Note_on_c, 0, 55, 100
2, 113040, Note_on_c, 0, 55, 0
2, 113040, Note_on_c, 0, 53, 100
2, 113280, Note_on_c, 0, 53, 0
2, 113280, Note_on_c, 0, 55, 100
2, 113520, Note_on_c, 0, 55, 0
2, 113520, Note_on_c, 0, 58, 100
2, 113760, Note_on_c, 0, 58, 0
2, 113760, Note_on_c, 0, 63, 100
2, 114000, Note_on_c, 0, 63, 0
2, 114000, Note_on_c, 0, 55, 100
2, 114240, Note_on_c, 0, 55, 0
2, 114240, Note_on_c, 0, 53, 100
2, 114480, Note_on_c, 0, 53, 0
2, 114480, Note_on_c, 0, 51, 100
2, 114720, Note_on_c, 0, 51, 0
2, 114720, Note_on_c, 0, 46, 100
2, 114960, Note_on_c, 0, 46, 0
2, 114960, Note_on_c, 0, 62, 100
2, 115200, Note_on_c, 0, 62, 0
2, 115200, Note_on_c, 0, 63, 100
2, 116640, Note_on_c, 0, 63, 0
2, 116640, Note_on_c, 0, 46, 100
2, 116760, Note_on_c, 0, 46, 0
2, 116760, Note_on_c, 0, 48, 100
2, 116880, Note_on_c, 0, 48, 0
2, 116880, Note_on_c, 0, 50, 100
2, 117000, Note_on_c, 0, 50, 0
2, 117000, Note_on_c, 0, 51, 100
2, 117120, Note_on_c, 0, 51, 0
2, 117120, Note_on_c, 0, 53, 100
2, 117600, Note_on_c, 0, 53, 0
2, 117600, Note_on_c, 0, 55, 100
2, 117840, Note_on_c, 0, 55, 0
2, 117840, Note_on_c, 0, 51, 100
2, 118080, Note_on_c, 0, 51, 0
2, 118080, Note_on_c, 0, 53, 100
2, 118560, Note_on_c, 0, 53, 0
2, 118560, Note_on_c, 0, 58, 100
2, 118800, Note_on_c, 0, 58, 0
2, 118800, Note_on_c, 0, 53, 100
2, 119040, Note_on_c, 0, 53, 0
2, 119040, Note_on_c, 0, 55, 100
2, 119520, Note_on_c, 0, 55, 0
2, 119520, Note_on_c, 0, 51, 100
2, 120000, Note_on_c, 0, 51, 0
2, 120000, Note_on_c, 0, 39, 100
2, 120480, Note_on_c, 0, 39, 0
2, 120480, Note_on_c, 0, 56, 100
2, 120600, Note_on_c, 0, 56, 0
2, 120600, Note_on_c, 0, 55, 100
2, 120720, Note_on_c, 0, 55, 0
2, 120720, Note_on_c, 0, 53, 100
2, 120840, Note_on_c, 0, 53, 0
2, 120840, Note_on_c, 0, 51, 100
2, 120960, Note_on_c, 0, 51, 0
2, 120960, Note_on_c, 0, 50, 100
2, 121440, Note_on_c, 0, 50, 0
2, 121440, Note_on_c, 0, 53, 100
2, 121560, Note_on_c, 0, 53, 0
2, 121560, Note_on_c, 0, 51, 100
2, 121680, Note_on_c, 0, 51, 0
2, 121680, Note_on_c, 0, 50, 100
2, 121800, Note_on_c, 0, 50, 0
2, 121800, Note_on_c, 0, 48, 100
2, 121920, Note_on_c, 0, 48, 0
2, 121920, Note_on_c, 0, 47, 100
2, 122400, Note_on_c, 0, 47, 0
2, 122400, Note_on_c, 0, 50, 100
2, 122520, Note_on_c, 0, 50, 0
2, 122520, Note_on_c, 0, 48, 100
2, 122640, Note_on_c, 0, 48, 0
2, 122640, Note_on_c, 0, 47, 100
2, 122760, Note_on_c, 0, 47, 0
2, 122760, Note_on_c, 0, 45, 100
2, 122880, Note_on_c, 0, 45, 0
2, 122880, Note_on_c, 0, 43, 100
2, 123120, Note_on_c, 0, 43, 0
2, 123120, Note_on_c, 0, 50, 100
2, 123360, Note_on_c, 0, 50, 0
2, 123360, Note_on_c, 0, 53, 100
2, 123600, Note_on_c, 0, 53, 0
2, 123600, Note_on_c, 0, 59, 100
2, 123840, Note_on_c, 0, 59, 0
2, 123840, Note_on_c, 0, 62, 100
2, 124320, Note_on_c, 0, 62, 0
2, 124320, Note_on_c, 0, 55, 100
2, 124440, Note_on_c, 0, 55, 0
2, 124440, Note_on_c, 0, 53, 100
2, 124560, Note_on_c, 0, 53, 0
2, 124560, Note_on_c, 0, 51, 100
2, 124680, Note_on_c, 0, 51, 0
2, 124680, Note_on_c, 0, 50, 100
2, 124800, Note_on_c, 0, 50, 0
2, 124800, Note_on_c, 0, 51, 100
2, 125280, Note_on_c, 0, 51, 0
2, 125280, Note_on_c, 0, 36, 100
2, 125400, Note_on_c, 0, 36, 0
2, 125400, Note_on_c, 0, 38, 100
2, 125520, Note_on_c, 0, 38, 0
2, 125520, Note_on_c, 0, 39, 100
2, 125640, Note_on_c, 0, 39, 0
2, 125640, Note_on_c, 0, 41, 100
2, 125760, Note_on_c, 0, 41, 0
2, 125760, Note_on_c, 0, 43, 100
2, 126240, Note_on_c, 0, 43, 0
2, 126240, Note_on_c, 0, 62, 100
2, 126360, Note_on_c, 0, 62, 0
2, 126360, Note_on_c, 0, 60, 100
2, 126480, Note_on_c, 0, 60, 0
2, 126480, Note_on_c, 0, 59, 100
2, 126600, Note_on_c, 0, 59, 0
2, 126600, Note_on_c, 0, 57, 100
2, 126720, Note_on_c, 0, 57, 0
2, 126720, Note_on_c, 0, 59, 100
2, 127200, Note_on_c, 0, 59, 0
2, 127200, Note_on_c, 0, 43, 100
2, 127320, Note_on_c, 0, 43, 0
2, 127320, Note_on_c, 0, 45, 100
2, 127440, Note_on_c, 0, 45, 0
2, 127440, Note_on_c, 0, 47, 100
2, 127560, Note_on_c, 0, 47, 0
2, 127560, Note_on_c, 0, 48, 100
2, 127680, Note_on_c, 0, 48, 0
2, 127680, Note_on_c, 0, 50, 100
2, 128160, Note_on_c, 0, 50, 0
2, 128160, Note_on_c, 0, 67, 100
2, 128280, Note_on_c, 0, 67, 0
2, 128280, Note_on_c, 0, 65, 100
2, 128400, Note_on_c, 0, 65, 0
2, 128400, Note_on_c, 0, 63, 100
2, 128520, Note_on_c, 0, 63, 0
2, 128520, Note_on_c, 0, 62, 100
2, 128640, Note_on_c, 0, 62, 0
2, 128640, Note_on_c, 0, 63, 100
2, 129120, Note_on_c, 0, 63, 0
2, 129120, Note_on_c, 0, 63, 100
2, 129240, Note_on_c, 0, 63, 0
2, 129240, Note_on_c, 0, 62, 100
2, 129360, Note_on_c, 0, 62, 0
2, 129360, Note_on_c, 0, 60, 100
2, 129480, Note_on_c, 0, 60, 0
2, 129480, Note_on_c, 0, 59, 100
2, 129600, Note_on_c, 0, 59, 0
2, 129600, Note_on_c, 0, 60, 100
2, 130080, Note_on_c, 0, 60, 0
2, 130080, Note_on_c, 0, 60, 100
2, 130200, Note_on_c, 0, 60, 0
2, 130200, Note_on_c, 0, 58, 100
2, 130320, Note_on_c, 0, 58, 0
2, 130320, Note_on_c, 0, 56, 100
2, 130440, Note_on_c, 0, 56, 0
2, 130440, Note_on_c, 0, 55, 100
2, 130560, Note_on_c, 0, 55, 0
2, 130560, Note_on_c, 0, 56, 100
2, 131040, Note_on_c, 0, 56, 0
2, 131040, Note_on_c, 0, 56, 100
2, 131160, Note_on_c, 0, 56, 0
2, 131160, Note_on_c, 0, 55, 100
2, 131280, Note_on_c, 0, 55, 0
2, 131280, Note_on_c, 0, 53, 100
2, 131400, Note_on_c, 0, 53, 0
2, 131400, Note_on_c, 0, 51, 100
2, 131520, Note_on_c, 0, 51, 0
2, 131520, Note_on_c, 0, 50, 100
2, 132000, Note_on_c, 0, 50, 0
2, 132000, Note_on_c, 0, 60, 100
2, 132240, Note_on_c, 0, 60, 0
2, 132240, Note_on_c, 0, 59, 100
2, 132480, Note_on_c, 0, 59, 0
2, 132480, Note_on_c, 0, 60, 100
2, 132720, Note_on_c, 0, 60, 0
2, 132720, Note_on_c, 0, 56, 100
2, 132960, Note_on_c, 0, 56, 0
2, 132960, Note_on_c, 0, 53, 100
2, 133200, Note_on_c, 0, 53, 0
2, 133200, Note_on_c, 0, 56, 100
2, 133440, Note_on_c, 0, 56, 0
2, 133440, Note_on_c, 0, 50, 100
2, 133680, Note_on_c, 0, 50, 0
2, 133680, Note_on_c, 0, 60, 100
2, 133920, Note_on_c, 0, 60, 0
2, 133920, Note_on_c, 0, 55, 100
2, 134160, Note_on_c, 0, 55, 0
2, 134160, Note_on_c, 0, 59, 100
2, 134400, Note_on_c, 0, 59, 0
2, 134400, Note_on_c, 0, 60, 100
2, 134880, Note_on_c, 0, 60, 0
2, 134880, Note_on_c, 0, 43, 100
2, 135360, Note_on_c, 0, 43, 0
2, 135360, Note_on_c, 0, 36, 100
2, 135840, Note_on_c, 0, 36, 0
2, 135840, Note_on_c, 0, 48, 100
2, 135960, Note_on_c, 0, 48, 0
2, 135960, Note_on_c, 0, 50, 100
2, 136080, Note_on_c, 0, 50, 0
2, 136080, Note_on_c, 0, 52, 100
2, 136200, Note_on_c, 0, 52, 0
2, 136200, Note_on_c, 0, 53, 100
2, 136320, Note_on_c, 0, 53, 0
2, 136320, Note_on_c, 0, 55, 100
2, 136800, Note_on_c, 0, 55, 0
2, 136800, Note_on_c, 0, 56, 100
2, 137040, Note_on_c, 0, 56, 0
2, 137040, Note_on_c, 0, 53, 100
2, 137280, Note_on_c, 0, 53, 0
2, 137280, Note_on_c, 0, 55, 100
2, 137760, Note_on_c, 0, 55, 0
2, 137760, Note_on_c, 0, 60, 100
2, 138000, Note_on_c, 0, 60, 0
2, 138000, Note_on_c, 0, 55, 100
2, 138240, Note_on_c, 0, 55, 0
2, 138240, Note_on_c, 0, 58, 100
2, 138480, Note_on_c, 0, 58, 0
2, 138480, Note_on_c, 0, 56, 100
2, 138720, Note_on_c, 0, 56, 0
2, 138720, Note_on_c, 0, 55, 100
2, 138960, Note_on_c, 0, 55, 0
2, 138960, Note_on_c, 0, 53, 100
2, 139200, Note_on_c, 0, 53, 0
2, 139200, Note_on_c, 0, 63, 100
2, 139440, Note_on_c, 0, 63, 0
2, 139440, Note_on_c, 0, 62, 100
2, 139680, Note_on_c, 0, 62, 0
2, 139680, Note_on_c, 0, 60, 100
2, 139920, Note_on_c, 0, 60, 0
2, 139920, Note_on_c, 0, 58, 100
2, 140160, Note_on_c, 0, 58, 0
2, 140160, Note_on_c, 0, 63, 100
2, 140640, Note_on_c, 0, 63, 0
2, 140640, Note_on_c, 0, 51, 100
2, 140760, Note_on_c, 0, 51, 0
2, 140760, Note_on_c, 0, 53, 100
2, 140880, Note_on_c, 0, 53, 0
2, 140880, Note_on_c, 0, 55, 100
2, 141000, Note_on_c, 0, 55, 0
2, 141000, Note_on_c, 0, 56, 100
2, 141120, Note_on_c, 0, 56, 0
2, 141120, Note_on_c, 0, 58, 100
2, 141600, Note_on_c, 0, 58, 0
2, 141600, Note_on_c, 0, 60, 100
2, 142080, Note_on_c, 0, 60, 0
2, 142080, Note_on_c, 0, 51, 100
2, 142320, Note_on_c, 0, 51, 0
2, 142320, Note_on_c, 0, 50, 100
2, 142560, Note_on_c, 0, 50, 0
2, 142560, Note_on_c, 0, 48, 100
2, 142800, Note_on_c, 0, 48, 0
2, 142800, Note_on_c, 0, 50, 100
2, 143040, Note_on_c, 0, 50, 0
2, 143040, Note_on_c, 0, 46, 100
2, 143520, Note_on_c, 0, 46, 0
2, 143520, Note_on_c, 0, 46, 100
2, 143640, Note_on_c, 0, 46, 0
2, 143640, Note_on_c, 0, 48, 100
2, 143760, Note_on_c, 0, 48, 0
2, 143760, Note_on_c, 0, 50, 100
2, 143880, Note_on_c, 0, 50, 0
2, 143880, Note_on_c, 0, 51, 100
2, 144000, Note_on_c, 0, 51, 0
2, 144000, Note_on_c, 0, 53, 100
2, 144480, Note_on_c, 0, 53, 0
2, 144480, Note_on_c, 0, 50, 100
2, 144600, Note_on_c, 0, 50, 0
2, 144600, Note_on_c, 0, 51, 100
2, 144720, Note_on_c, 0, 51, 0
2, 144720, Note_on_c, 0, 53, 100
2, 144840, Note_on_c, 0, 53, 0
2, 144840, Note_on_c, 0, 55, 100
2, 144960, Note_on_c, 0, 55, 0
2, 144960, Note_on_c, 0, 56, 100
2, 145440, Note_on_c, 0, 56, 0
2, 145440, Note_on_c, 0, 46, 100
2, 145560, Note_on_c, 0, 46, 0
2, 145560, Note_on_c, 0, 48, 100
2, 145680, Note_on_c, 0, 48, 0
2, 145680, Note_on_c, 0, 50, 100
2, 145800, Note_on_c, 0, 50, 0
2, 145800, Note_on_c, 0, 51, 100
2, 145920, Note_on_c, 0, 51, 0
2, 145920, Note_on_c, 0, 53, 100
2, 146400, Note_on_c, 0, 53, 0
2, 146400, Note_on_c, 0, 50, 100
2, 146520, Note_on_c, 0, 50, 0
2, 146520, Note_on_c, 0, 51, 100
2, 146640, Note_on_c, 0, 51, 0
2, 146640, Note_on_c, 0, 53, 100
2, 146760, Note_on_c, 0, 53, 0
2, 146760, Note_on_c, 0, 55, 100
2, 146880, Note_on_c, 0, 55, 0
2, 146880, Note_on_c, 0, 56, 100
2, 147360, Note_on_c, 0, 56, 0
2, 147360, Note_on_c, 0, 51, 100
2, 147480, Note_on_c, 0, 51, 0
2, 147480, Note_on_c, 0, 53, 100
2, 147600, Note_on_c, 0, 53, 0
2, 147600, Note_on_c, 0, 55, 100
2, 147720, Note_on_c, 0, 55, 0
2, 147720, Note_on_c, 0, 56, 100
2, 147840, Note_on_c, 0, 56, 0
2, 147840, Note_on_c, 0, 58, 100
2, 148320, Note_on_c, 0, 58, 0
2, 148320, Note_on_c, 0, 55, 100
2, 148440, Note_on_c, 0, 55, 0
2, 148440, Note_on_c, 0, 56, 100
2, 148560, Note_on_c, 0, 56, 0
2, 148560, Note_on_c, 0, 58, 100
2, 148680, Note_on_c, 0, 58, 0
2, 148680, Note_on_c, 0, 60, 100
2, 148800, Note_on_c, 0, 60, 0
2, 148800, Note_on_c, 0, 61, 100
2, 149280, Note_on_c, 0, 61, 0
2, 149280, Note_on_c, 0, 51, 100
2, 149400, Note_on_c, 0, 51, 0
2, 149400, Note_on_c, 0, 53, 100
2, 149520, Note_on_c, 0, 53, 0
2, 149520, Note_on_c, 0, 55, 100
2, 149640, Note_on_c, 0, 55, 0
2, 149640, Note_on_c, 0, 56, 100
2, 149760, Note_on_c, 0, 56, 0
2, 149760, Note_on_c, 0, 58, 100
2, 150240, Note_on_c, 0, 58, 0
2, 150240, Note_on_c, 0, 55, 100
2, 150360, Note_on_c, 0, 55, 0
2, 150360, Note_on_c, 0, 56, 100
2, 150480, Note_on_c, 0, 56, 0
2, 150480, Note_on_c, 0, 58, 100
2, 150600, Note_on_c, 0, 58, 0
2, 150600, Note_on_c, 0, 60, 100
2, 150720, Note_on_c, 0, 60, 0
2, 150720, Note_on_c, 0, 61, 100
2, 151200, Note_on_c, 0, 61, 0
2, 151200, Note_on_c, 0, 60, 100
2, 151440, Note_on_c, 0, 60, 0
2, 151440, Note_on_c, 0, 58, 100
2, 151680, Note_on_c, 0, 58, 0
2, 151680, Note_on_c, 0, 60, 100
2, 151920, Note_on_c, 0, 60, 0
2, 151920, Note_on_c, 0, 58, 100
2, 152160, Note_on_c, 0, 58, 0
2, 152160, Note_on_c, 0, 58, 100
2, 152400, Note_on_c, 0, 58, 0
2, 152400, Note_on_c, 0, 56, 100
2, 152640, Note_on_c, 0, 56, 0
2, 152640, Note_on_c, 0, 58, 100
2, 152880, Note_on_c, 0, 58, 0
2, 152880, Note_on_c, 0, 55, 100
2, 153120, Note_on_c, 0, 55, 0
2, 153120, Note_on_c, 0, 43, 100
2, 153360, Note_on_c, 0, 43, 0
2, 153360, Note_on_c, 0, 55, 100
2, 153480, Note_on_c, 0, 55, 0
2, 153480, Note_on_c, 0, 56, 100
2, 153600, Note_on_c, 0, 56, 0
2, 153600, Note_on_c, 0, 58, 100
2, 153840, Note_on_c, 0, 58, 0
2, 153840, Note_on_c, 0, 55, 100
2, 153960, Note_on_c, 0, 55, 0
2, 153960, Note_on_c, 0, 56, 100
2, 154080, Note_on_c, 0, 56, 0
2, 154080, Note_on_c, 0, 58, 100
2, 154320, Note_on_c, 0, 58, 0
2, 154320, Note_on_c, 0, 56, 100
2, 154440, Note_on_c, 0, 56, 0
2, 154440, Note_on_c, 0, 55, 100
2, 154560, Note_on_c, 0, 55, 0
2, 154560, Note_on_c, 0, 56, 100
2, 154800, Note_on_c, 0, 56, 0
2, 154800, Note_on_c, 0, 53, 100
2, 155040, Note_on_c, 0, 53, 0
2, 155040, Note_on_c, 0, 41, 100
2, 155280, Note_on_c, 0, 41, 0
2, 155280, Note_on_c, 0, 56, 100
2, 155520, Note_on_c, 0, 56, 0
2, 155520, Note_on_c, 0, 55, 100
2, 155640, Note_on_c, 0, 55, 0
2, 155640, Note_on_c, 0, 53, 100
2, 155760, Note_on_c, 0, 53, 0
2, 155760, Note_on_c, 0, 51, 100
2, 155880, Note_on_c, 0, 51, 0
2, 155880, Note_on_c, 0, 50, 100
2, 156000, Note_on_c, 0, 50, 0
2, 156000, Note_on_c, 0, 51, 100
2, 156240, Note_on_c, 0, 51, 0
2, 156240, Note_on_c, 0, 58, 100
2, 156480, Note_on_c, 0, 58, 0
2, 156480, Note_on_c, 0, 55, 100
2, 156600, Note_on_c, 0, 55, 0
2, 156600, Note_on_c, 0, 53, 100
2, 156720, Note_on_c, 0, 53, 0
2, 156720, Note_on_c, 0, 51, 100
2, 156840, Note_on_c, 0, 51, 0
2, 156840, Note_on_c, 0, 50, 100
2, 156960, Note_on_c, 0, 50, 0
2, 156960, Note_on_c, 0, 51, 100
2, 157200, Note_on_c, 0, 51, 0
2, 157200, Note_on_c, 0, 63, 100
2, 157440, Note_on_c, 0, 63, 0
2, 157440, Note_on_c, 0, 56, 100
2, 157560, Note_on_c, 0, 56, 0
2, 157560, Note_on_c, 0, 55, 100
2, 157680, Note_on_c, 0, 55, 0
2, 157680, Note_on_c, 0, 53, 100
2, 157800, Note_on_c, 0, 53, 0
2, 157800, Note_on_c, 0, 55, 100
2, 157920, Note_on_c, 0, 55, 0
2, 157920, Note_on_c, 0, 56, 100
2, 158040, Note_on_c, 0, 56, 0
2, 158040, Note_on_c, 0, 55, 100
2, 158160, Note_on_c, 0, 55, 0
2, 158160, Note_on_c, 0, 53, 100
2, 158280, Note_on_c, 0, 53, 0
2, 158280, Note_on_c, 0, 55, 100
2, 158400, Note_on_c, 0, 55, 0
2, 158400, Note_on_c, 0, 56, 100
2, 158520, Note_on_c, 0, 56, 0
2, 158520, Note_on_c, 0, 55, 100
2, 158640, Note_on_c, 0, 55, 0
2, 158640, Note_on_c, 0, 53, 100
2, 158760, Note_on_c, 0, 53, 0
2, 158760, Note_on_c, 0, 51, 100
2, 158880, Note_on_c, 0, 51, 0
2, 158880, Note_on_c, 0, 50, 100
2, 159000, Note_on_c, 0, 50, 0
2, 159000, Note_on_c, 0, 48, 100
2, 159120, Note_on_c, 0, 48, 0
2, 159120, Note_on_c, 0, 46, 100
2, 159240, Note_on_c, 0, 46, 0
2, 159240, Note_on_c, 0, 44, 100
2, 159360, Note_on_c, 0, 44, 0
2, 159360, Note_on_c, 0, 43, 100
2, 159600, Note_on_c, 0, 43, 0
2, 159600, Note_on_c, 0, 51, 100
2, 159840, Note_on_c, 0, 51, 0
2, 159840, Note_on_c, 0, 60, 100
2, 160080, Note_on_c, 0, 60, 0
2, 160080, Note_on_c, 0, 56, 100
2, 160320, Note_on_c, 0, 56, 0
2, 160320, Note_on_c, 0, 58, 100
2, 160800, Note_on_c, 0, 58, 0
2, 160800, Note_on_c, 0, 60, 100
2, 161040, Note_on_c, 0, 60, 0
2, 161040, Note_on_c, 0, 55, 100
2, 161280, Note_on_c, 0, 55, 0
2, 161280, Note_on_c, 0, 56, 100
2, 161760, Note_on_c, 0, 56, 0
2, 161760, Note_on_c, 0, 53, 100
2, 162240, Note_on_c, 0, 53, 0
2, 162240, Note_on_c, 0, 41, 100
2, 162720, Note_on_c, 0, 41, 0
2, 162720, Note_on_c, 0, 60, 100
2, 162840, Note_on_c, 0, 60, 0
2, 162840, Note_on_c, 0, 58, 100
2, 162960, Note_on_c, 0, 58, 0
2, 162960, Note_on_c, 0, 56, 100
2, 163080, Note_on_c, 0, 56, 0
2, 163080, Note_on_c, 0, 55, 100
2, 163200, Note_on_c, 0, 55, 0
2, 163200, Note_on_c, 0, 53, 100
2, 163680, Note_on_c, 0, 53, 0
2, 163680, Note_on_c, 0, 56, 100
2, 163800, Note_on_c, 0, 56, 0
2, 163800, Note_on_c, 0, 55, 100
2, 163920, Note_on_c, 0, 55, 0
2, 163920, Note_on_c, 0, 53, 100
2, 164040, Note_on_c, 0, 53, 0
2, 164040, Note_on_c, 0, 51, 100
2, 164160, Note_on_c, 0, 51, 0
2, 164160, Note_on_c, 0, 50, 100
2, 164640, Note_on_c, 0, 50, 0
2, 164640, Note_on_c, 0, 53, 100
2, 164760, Note_on_c, 0, 53, 0
2, 164760, Note_on_c, 0, 51, 100
2, 164880, Note_on_c, 0, 51, 0
2, 164880, Note_on_c, 0, 50, 100
2, 165000, Note_on_c, 0, 50, 0
2, 165000, Note_on_c, 0, 48, 100
2, 165120, Note_on_c, 0, 48, 0
2, 165120, Note_on_c, 0, 46, 100
2, 165360, Note_on_c, 0, 46, 0
2, 165360, Note_on_c, 0, 50, 100
2, 165600, Note_on_c, 0, 50, 0
2, 165600, Note_on_c, 0, 53, 100
2, 165840, Note_on_c, 0, 53, 0
2, 165840, Note_on_c, 0, 56, 100
2, 166080, Note_on_c, 0, 56, 0
2, 166080, Note_on_c, 0, 65, 100
2, 166560, Note_on_c, 0, 65, 0
2, 166560, Note_on_c, 0, 63, 100
2, 166680, Note_on_c, 0, 63, 0
2, 166680, Note_on_c, 0, 62, 100
2, 166800, Note_on_c, 0, 62, 0
2, 166800, Note_on_c, 0, 60, 100
2, 166920, Note_on_c, 0, 60, 0
2, 166920, Note_on_c, 0, 58, 100
2, 167040, Note_on_c, 0, 58, 0
2, 167040, Note_on_c, 0, 63, 100
2, 167520, Note_on_c, 0, 63, 0
2, 167520, Note_on_c, 0, 51, 100
2, 167640, Note_on_c, 0, 51, 0
2, 167640, Note_on_c, 0, 53, 100
2, 167760, Note_on_c, 0, 53, 0
2, 167760, Note_on_c, 0, 55, 100
2, 167880, Note_on_c, 0, 55, 0
2, 167880, Note_on_c, 0, 56, 100
2, 168000, Note_on_c, 0, 56, 0
2, 168000, Note_on_c, 0, 58, 100
2, 168480, Note_on_c, 0, 58, 0
2, 168480, Note_on_c, 0, 60, 100
2, 168960, Note_on_c, 0, 60, 0
2, 168960, Note_on_c, 0, 51, 100
2, 169200, Note_on_c, 0, 51, 0
2, 169200, Note_on_c, 0, 50, 100
2, 169440, Note_on_c, 0, 50, 0
2, 169440, Note_on_c, 0, 48, 100
2, 169680, Note_on_c, 0, 48, 0
2, 169680, Note_on_c, 0, 50, 100
2, 169920, Note_on_c, 0, 50, 0
2, 169920, Note_on_c, 0, 46, 100
2, 170400, Note_on_c, 0, 46, 0
2, 170400, Note_on_c, 0, 63, 100
2, 170520, Note_on_c, 0, 63, 0
2, 170520, Note_on_c, 0, 62, 100
2, 170640, Note_on_c, 0, 62, 0
2, 170640, Note_on_c, 0, 60, 100
2, 170760, Note_on_c, 0, 60, 0
2, 170760, Note_on_c, 0, 58, 100
2, 170880, Note_on_c, 0, 58, 0
2, 170880, Note_on_c, 0, 63, 100
2, 171360, Note_on_c, 0, 63, 0
2, 171360, Note_on_c, 0, 51, 100
2, 171480, Note_on_c, 0, 51, 0
2, 171480, Note_on_c, 0, 53, 100
2, 171600, Note_on_c, 0, 53, 0
2, 171600, Note_on_c, 0, 55, 100
2, 171720, Note_on_c, 0, 55, 0
2, 171720, Note_on_c, 0, 56, 100
2, 171840, Note_on_c, 0, 56, 0
2, 171840, Note_on_c, 0, 58, 100
2, 172320, Note_on_c, 0, 58, 0
2, 172320, Note_on_c, 0, 60, 100
2, 172800, Note_on_c, 0, 60, 0
2, 172800, Note_on_c, 0, 61, 100
2, 172920, Note_on_c, 0, 61, 0
2, 172920, Note_on_c, 0, 60, 100
2, 173040, Note_on_c, 0, 60, 0
2, 173040, Note_on_c, 0, 58, 100
2, 173280, Note_on_c, 0, 58, 0
2, 173280, Note_on_c, 0, 60, 100
2, 174000, Note_on_c, 0, 60, 0
2, 174000, Note_on_c, 0, 58, 100
2, 174120, Note_on_c, 0, 58, 0
2, 174120, Note_on_c, 0, 56, 100
2, 174240, Note_on_c, 0, 56, 0
2, 174240, Note_on_c, 0, 58, 100
2, 174360, Note_on_c, 0, 58, 0
2, 174360, Note_on_c, 0, 56, 100
2, 174480, Note_on_c, 0, 56, 0
2, 174480, Note_on_c, 0, 55, 100
2, 174720, Note_on_c, 0, 55, 0
2, 174720, Note_on_c, 0, 56, 100
2, 174840, Note_on_c, 0, 56, 0
2, 174840, Note_on_c, 0, 55, 100
2, 174960, Note_on_c, 0, 55, 0
2, 174960, Note_on_c, 0, 53, 100
2, 175200, Note_on_c, 0, 53, 0
2, 175200, Note_on_c, 0, 55, 100
2, 175920, Note_on_c, 0, 55, 0
2, 175920, Note_on_c, 0, 53, 100
2, 176040, Note_on_c, 0, 53, 0
2, 176040, Note_on_c, 0, 51, 100
2, 176160, Note_on_c, 0, 51, 0
2, 176160, Note_on_c, 0, 53, 100
2, 176280, Note_on_c, 0, 53, 0
2, 176280, Note_on_c, 0, 51, 100
2, 176400, Note_on_c, 0, 51, 0
2, 176400, Note_on_c, 0, 50, 100
2, 176640, Note_on_c, 0, 50, 0
2, 176640, Note_on_c, 0, 51, 100
2, 176880, Note_on_c, 0, 51, 0
2, 176880, Note_on_c, 0, 46, 100
2, 177120, Note_on_c, 0, 46, 0
2, 177120, Note_on_c, 0, 43, 100
2, 177360, Note_on_c, 0, 43, 0
2, 177360, Note_on_c, 0, 46, 100
2, 177600, Note_on_c, 0, 46, 0
2, 177600, Note_on_c, 0, 39, 100
2, 178080, Note_on_c, 0, 39, 0
2, 178080, Note_on_c, 0, 46, 100
2, 178200, Note_on_c, 0, 46, 0
2, 178200, Note_on_c, 0, 48, 100
2, 178320, Note_on_c, 0, 48, 0
2, 178320, Note_on_c, 0, 50, 100
2, 178440, Note_on_c, 0, 50, 0
2, 178440, Note_on_c, 0, 51, 100
2, 178560, Note_on_c, 0, 51, 0
2, 178560, Note_on_c, 0, 53, 100
2, 179040, Note_on_c, 0, 53, 0
2, 179040, Note_on_c, 0, 50, 100
2, 179160, Note_on_c, 0, 50, 0
2, 179160, Note_on_c, 0, 51, 100
2, 179280, Note_on_c, 0, 51, 0
2, 179280, Note_on_c, 0, 53, 100
2, 179400, Note_on_c, 0, 53, 0
2, 179400, Note_on_c, 0, 55, 100
2, 179520, Note_on_c, 0, 55, 0
2, 179520, Note_on_c, 0, 56, 100
2, 180000, Note_on_c, 0, 56, 0
2, 180000, Note_on_c, 0, 46, 100
2, 180120, Note_on_c, 0, 46, 0
2, 180120, Note_on_c, 0, 48, 100
2, 180240, Note_on_c, 0, 48, 0
2, 180240, Note_on_c, 0, 50, 100
2, 180360, Note_on_c, 0, 50, 0
2, 180360, Note_on_c, 0, 51, 100
2, 180480, Note_on_c, 0, 51, 0
2, 180480, Note_on_c, 0, 53, 100
2, 180960, Note_on_c, 0, 53, 0
2, 180960, Note_on_c, 0, 50, 100
2, 181080, Note_on_c, 0, 50, 0
2, 181080, Note_on_c, 0, 51, 100
2, 181200, Note_on_c, 0, 51, 0
2, 181200, Note_on_c, 0, 53, 100
2, 181320, Note_on_c, 0, 53, 0
2, 181320, Note_on_c, 0, 55, 100
2, 181440, Note_on_c, 0, 55, 0
2, 181440, Note_on_c, 0, 56, 100
2, 181920, Note_on_c, 0, 56, 0
2, 181920, Note_on_c, 0, 55, 100
2, 182160, Note_on_c, 0, 55, 0
2, 182160, Note_on_c, 0, 53, 100
2, 182400, Note_on_c, 0, 53, 0
2, 182400, Note_on_c, 0, 55, 100
2, 182640, Note_on_c, 0, 55, 0
2, 182640, Note_on_c, 0, 58, 100
2, 182880, Note_on_c, 0, 58, 0
2, 182880, Note_on_c, 0, 63, 100
2, 183120, Note_on_c, 0, 63, 0
2, 183120, Note_on_c, 0, 55, 100
2, 183360, Note_on_c, 0, 55, 0
2, 183360, Note_on_c, 0, 53, 100
2, 183600, Note_on_c, 0, 53, 0
2, 183600, Note_on_c, 0, 51, 100
2, 183840, Note_on_c, 0, 51, 0
2, 183840, Note_on_c, 0, 46, 100
2, 184080, Note_on_c, 0, 46, 0
2, 184080, Note_on_c, 0, 62, 100
2, 184320, Note_on_c, 0, 62, 0
2, 184320, Note_on_c, 0, 63, 100
2, 185760, Note_on_c, 0, 63, 0
2, 185760, Note_on_c, 0, 51, 100
2, 186240, Note_on_c, 0, 51, 0
2, 186240, Note_on_c, 0, 51, 100
2, 186720, Note_on_c, 0, 51, 0
2, 186720, Note_on_c, 0, 53, 100
2, 187680, Note_on_c, 0, 53, 0
2, 187680, Note_on_c, 0, 50, 100
2, 188160, Note_on_c, 0, 50, 0
2, 188160, Note_on_c, 0, 51, 100
2, 188400, Note_on_c, 0, 51, 0
2, 188400, Note_on_c, 0, 53, 100
2, 188640, Note_on_c, 0, 53, 0
2, 188640, Note_on_c, 0, 55, 100
2, 189600, Note_on_c, 0, 55, 0
2, 189600, Note_on_c, 0, 51, 100
2, 190080, Note_on_c, 0, 51, 0
2, 190080, Note_on_c, 0, 44, 100
2, 190560, Note_on_c, 0, 44, 0
2, 190560, Note_on_c, 0, 53, 100
2, 191040, Note_on_c, 0, 53, 0
2, 191040, Note_on_c, 0, 46, 100
2, 191520, Note_on_c, 0, 46, 0
2, 191520, Note_on_c, 0, 50, 100
2, 192000, Note_on_c, 0, 50, 0
2, 192000, Note_on_c, 0, 51, 100
2, 192480, Note_on_c, 0, 51, 0
2, 192480, Note_on_c, 0, 46, 100
2, 192960, Note_on_c, 0, 46, 0
2, 192960, Note_on_c, 0, 39, 100
2, 193440, Note_on_c, 0, 39, 0
2, 193440, Note_on_c, 0, 51, 100
2, 193920, Note_on_c, 0, 51, 0
2, 193920, Note_on_c, 0, 51, 100
2, 194400, Note_on_c, 0, 51, 0
2, 194400, Note_on_c, 0, 53, 100
2, 195360, Note_on_c, 0, 53, 0
2, 195360, Note_on_c, 0, 50, 100
2, 195840, Note_on_c, 0, 50, 0
2, 195840, Note_on_c, 0, 51, 100
2, 196080, Note_on_c, 0, 51, 0
2, 196080, Note_on_c, 0, 53, 100
2, 196320, Note_on_c, 0, 53, 0
2, 196320, Note_on_c, 0, 55, 100
2, 197280, Note_on_c, 0, 55, 0
2, 197280, Note_on_c, 0, 51, 100
2, 197760, Note_on_c, 0, 51, 0
2, 197760, Note_on_c, 0, 44, 100
2, 198240, Note_on_c, 0, 44, 0
2, 198240, Note_on_c, 0, 53, 100
2, 198720, Note_on_c, 0, 53, 0
2, 198720, Note_on_c, 0, 46, 100
2, 199200, Note_on_c, 0, 46, 0
2, 199200, Note_on_c, 0, 50, 100
2, 199680, Note_on_c, 0, 50, 0
2, 199680, Note_on_c, 0, 51, 100
2, 200160, Note_on_c, 0, 51, 0
2, 200160, Note_on_c, 0, 46, 100
2, 200640, Note_on_c, 0, 46, 0
2, 200640, Note_on_c, 0, 39, 100
2, 201120, Note_on_c, 0, 39, 0
2, 201120, Note_on_c, 0, 58, 100
2, 201600, Note_on_c, 0, 58, 0
2, 201600, Note_on_c, 0, 58, 100
2, 202080, Note_on_c, 0, 58, 0
2, 202080, Note_on_c, 0, 60, 100
2, 203040, Note_on_c, 0, 60, 0
2, 203040, Note_on_c, 0, 58, 100
2, 203520, Note_on_c, 0, 58, 0
2, 203520, Note_on_c, 0, 56, 100
2, 203760, Note_on_c, 0, 56, 0
2, 203760, Note_on_c, 0, 55, 100
2, 204000, Note_on_c, 0, 55, 0
2, 204000, Note_on_c, 0, 56, 100
2, 204480, Note_on_c, 0, 56, 0
2, 204480, Note_on_c, 0, 53, 100
2, 204960, Note_on_c, 0, 53, 0
2, 204960, Note_on_c, 0, 56, 100
2, 205440, Note_on_c, 0, 56, 0
2, 205440, Note_on_c, 0, 58, 100
2, 205920, Note_on_c, 0, 58, 0
2, 205920, Note_on_c, 0, 56, 100
2, 206880, Note_on_c, 0, 56, 0
2, 206880, Note_on_c, 0, 55, 100
2, 207360, Note_on_c, 0, 55, 0
2, 207360, Note_on_c, 0, 53, 100
2, 207600, Note_on_c, 0, 53, 0
2, 207600, Note_on_c, 0, 51, 100
2, 207840, Note_on_c, 0, 51, 0
2, 207840, Note_on_c, 0, 50, 100
2, 208080, Note_on_c, 0, 50, 0
2, 208080, Note_on_c, 0, 48, 100
2, 208320, Note_on_c, 0, 48, 0
2, 208320, Note_on_c, 0, 46, 100
2, 208560, Note_on_c, 0, 46, 0
2, 208560, Note_on_c, 0, 44, 100
2, 208800, Note_on_c, 0, 44, 0
2, 208800, Note_on_c, 0, 43, 100
2, 209280, Note_on_c, 0, 43, 0
2, 209280, Note_on_c, 0, 44, 100
2, 209760, Note_on_c, 0, 44, 0
2, 210240, Note_on_c, 0, 46, 100
2, 210720, Note_on_c, 0, 46, 0
2, 211200, Note_on_c, 0, 48, 100
2, 211680, Note_on_c, 0, 48, 0
2, 212160, Note_on_c, 0, 43, 100
2, 212640, Note_on_c, 0, 43, 0
2, 215040, Note_on_c, 0, 46, 100
2, 216480, Note_on_c, 0, 46, 0
2, 216480, Note_on_c, 0, 58, 100
2, 216960, Note_on_c, 0, 58, 0
2, 216960, Note_on_c, 0, 58, 100
2, 217440, Note_on_c, 0, 58, 0
2, 217440, Note_on_c, 0, 60, 100
2, 218400, Note_on_c, 0, 60, 0
2, 218400, Note_on_c, 0, 58, 100
2, 218880, Note_on_c, 0, 58, 0
2, 218880, Note_on_c, 0, 56, 100
2, 219120, Note_on_c, 0, 56, 0
2, 219120, Note_on_c, 0, 55, 100
2, 219360, Note_on_c, 0, 55, 0
2, 219360, Note_on_c, 0, 56, 100
2, 219840, Note_on_c, 0, 56, 0
2, 219840, Note_on_c, 0, 53, 100
2, 220320, Note_on_c, 0, 53, 0
2, 220320, Note_on_c, 0, 56, 100
2, 220800, Note_on_c, 0, 56, 0
2, 220800, Note_on_c, 0, 58, 100
2, 221280, Note_on_c, 0, 58, 0
2, 221280, Note_on_c, 0, 56, 100
2, 222240, Note_on_c, 0, 56, 0
2, 222240, Note_on_c, 0, 55, 100
2, 222720, Note_on_c, 0, 55, 0
2, 222720, Note_on_c, 0, 53, 100
2, 222960, Note_on_c, 0, 53, 0
2, 222960, Note_on_c, 0, 51, 100
2, 223200, Note_on_c, 0, 51, 0
2, 223200, Note_on_c, 0, 50, 100
2, 223440, Note_on_c, 0, 50, 0
2, 223440, Note_on_c, 0, 48, 100
2, 223680, Note_on_c, 0, 48, 0
2, 223680, Note_on_c, 0, 46, 100
2, 223920, Note_on_c, 0, 46, 0
2, 223920, Note_on_c, 0, 44, 100
2, 224160, Note_on_c, 0, 44, 0
2, 224160, Note_on_c, 0, 43, 100
2, 224640, Note_on_c, 0, 43, 0
2, 224640, Note_on_c, 0, 44, 100
2, 225120, Note_on_c, 0, 44, 0
2, 225600, Note_on_c, 0, 46, 100
2, 226080, Note_on_c, 0, 46, 0
2, 226560, Note_on_c, 0, 48, 100
2, 227040, Note_on_c, 0, 48, 0
2, 227520, Note_on_c, 0, 43, 100
2, 228000, Note_on_c, 0, 43, 0
2, 230400, Note_on_c, 0, 46, 100
2, 231840, Note_on_c, 0, 46, 0
2, 231840, Note_on_c, 0, 51, 100
2, 231960, Note_on_c, 0, 51, 0
2, 231960, Note_on_c, 0, 53, 100
2, 232080, Note_on_c, 0, 53, 0
2, 232080, Note_on_c, 0, 55, 100
2, 232200, Note_on_c, 0, 55, 0
2, 232200, Note_on_c, 0, 56, 100
2, 232320, Note_on_c, 0, 56, 0
2, 232320, Note_on_c, 0, 58, 100
2, 232800, Note_on_c, 0, 58, 0
2, 232800, Note_on_c, 0, 60, 100
2, 233040, Note_on_c, 0, 60, 0
2, 233040, Note_on_c, 0, 56, 100
2, 233280, Note_on_c, 0, 56, 0
2, 233280, Note_on_c, 0, 58, 100
2, 233760, Note_on_c, 0, 58, 0
2, 233760, Note_on_c, 0, 60, 100
2, 234000, Note_on_c, 0, 60, 0
2, 234000, Note_on_c, 0, 55, 100
2, 234240, Note_on_c, 0, 55, 0
2, 234240, Note_on_c, 0, 56, 100
2, 234720, Note_on_c, 0, 56, 0
2, 234720, Note_on_c, 0, 53, 100
2, 235200, Note_on_c, 0, 53, 0
2, 235200, Note_on_c, 0, 41, 100
2, 235680, Note_on_c, 0, 41, 0
2, 235680, Note_on_c, 0, 50, 100
2, 235800, Note_on_c, 0, 50, 0
2, 235800, Note_on_c, 0, 51, 100
2, 235920, Note_on_c, 0, 51, 0
2, 235920, Note_on_c, 0, 53, 100
2, 236040, Note_on_c, 0, 53, 0
2, 236040, Note_on_c, 0, 55, 100
2, 236160, Note_on_c, 0, 55, 0
2, 236160, Note_on_c, 0, 56, 100
2, 236640, Note_on_c, 0, 56, 0
2, 236640, Note_on_c, 0, 58, 100
2, 236880, Note_on_c, 0, 58, 0
2, 236880, Note_on_c, 0, 55, 100
2, 237120, Note_on_c, 0, 55, 0
2, 237120, Note_on_c, 0, 56, 100
2, 237600, Note_on_c, 0, 56, 0
2, 237600, Note_on_c, 0, 58, 100
2, 237840, Note_on_c, 0, 58, 0
2, 237840, Note_on_c, 0, 53, 100
2, 238080, Note_on_c, 0, 53, 0
2, 238080, Note_on_c, 0, 55, 100
2, 238560, Note_on_c, 0, 55, 0
2, 238560, Note_on_c, 0, 51, 100
2, 239040, Note_on_c, 0, 51, 0
2, 239040, Note_on_c, 0, 39, 100
2, 239520, Note_on_c, 0, 39, 0
2, 239520, Note_on_c, 0, 51, 100
2, 239640, Note_on_c, 0, 51, 0
2, 239640, Note_on_c, 0, 53, 100
2, 239760, Note_on_c, 0, 53, 0
2, 239760, Note_on_c, 0, 55, 100
2, 239880, Note_on_c, 0, 55, 0
2, 239880, Note_on_c, 0, 56, 100
2, 240000, Note_on_c, 0, 56, 0
2, 240000, Note_on_c, 0, 58, 100
2, 240480, Note_on_c, 0, 58, 0
2, 240480, Note_on_c, 0, 46, 100
2, 240600, Note_on_c, 0, 46, 0
2, 240600, Note_on_c, 0, 48, 100
2, 240720, Note_on_c, 0, 48, 0
2, 240720, Note_on_c, 0, 50, 100
2, 240840, Note_on_c, 0, 50, 0
2, 240840, Note_on_c, 0, 51, 100
2, 240960, Note_on_c, 0, 51, 0
2, 240960, Note_on_c, 0, 53, 100
2, 241440, Note_on_c, 0, 53, 0
2, 241440, Note_on_c, 0, 56, 100
2, 241920, Note_on_c, 0, 56, 0
2, 241920, Note_on_c, 0, 56, 100
2, 242160, Note_on_c, 0, 56, 0
2, 242160, Note_on_c, 0, 55, 100
2, 242400, Note_on_c, 0, 55, 0
2, 242400, Note_on_c, 0, 53, 100
2, 242640, Note_on_c, 0, 53, 0
2, 242640, Note_on_c, 0, 51, 100
2, 242880, Note_on_c, 0, 51, 0
2, 242880, Note_on_c, 0, 53, 100
2, 243360, Note_on_c, 0, 53, 0
2, 243360, Note_on_c, 0, 51, 100
2, 243480, Note_on_c, 0, 51, 0
2, 243480, Note_on_c, 0, 53, 100
2, 243600, Note_on_c, 0, 53, 0
2, 243600, Note_on_c, 0, 55, 100
2, 243720, Note_on_c, 0, 55, 0
2, 243720, Note_on_c, 0, 56, 100
2, 243840, Note_on_c, 0, 56, 0
2, 243840, Note_on_c, 0, 58, 100
2, 244320, Note_on_c, 0, 58, 0
2, 244320, Note_on_c, 0, 46, 100
2, 244440, Note_on_c, 0, 46, 0
2, 244440, Note_on_c, 0, 48, 100
2, 244560, Note_on_c, 0, 48, 0
2, 244560, Note_on_c, 0, 50, 100
2, 244680, Note_on_c, 0, 50, 0
2, 244680, Note_on_c, 0, 51, 100
2, 244800, Note_on_c, 0, 51, 0
2, 244800, Note_on_c, 0, 53, 100
2, 245280, Note_on_c, 0, 53, 0
2, 245280, Note_on_c, 0, 56, 100
2, 245760, Note_on_c, 0, 56, 0
2, 245760, Note_on_c, 0, 56, 100
2, 246000, Note_on_c, 0, 56, 0
2, 246000, Note_on_c, 0, 55, 100
2, 246240, Note_on_c, 0, 55, 0
2, 246240, Note_on_c, 0, 53, 100
2, 246480, Note_on_c, 0, 53, 0
2, 246480, Note_on_c, 0, 51, 100
2, 246720, Note_on_c, 0, 51, 0
2, 246720, Note_on_c, 0, 53, 100
2, 247200, Note_on_c, 0, 53, 0
2, 247200, Note_on_c, 0, 53, 100
2, 247320, Note_on_c, 0, 53, 0
2, 247320, Note_on_c, 0, 55, 100
2, 247440, Note_on_c, 0, 55, 0
2, 247440, Note_on_c, 0, 57, 100
2, 247560, Note_on_c, 0, 57, 0
2, 247560, Note_on_c, 0, 58, 100
2, 247680, Note_on_c, 0, 58, 0
2, 247680, Note_on_c, 0, 60, 100
2, 248160, Note_on_c, 0, 60, 0
2, 248160, Note_on_c, 0, 57, 100
2, 248280, Note_on_c, 0, 57, 0
2, 248280, Note_on_c, 0, 58, 100
2, 248400, Note_on_c, 0, 58, 0
2, 248400, Note_on_c, 0, 60, 100
2, 248520, Note_on_c, 0, 60, 0
2, 248520, Note_on_c, 0, 62, 100
2, 248640, Note_on_c, 0, 62, 0
2, 248640, Note_on_c, 0, 63, 100
2, 249120, Note_on_c, 0, 63, 0
2, 249120, Note_on_c, 0, 53, 100
2, 249240, Note_on_c, 0, 53, 0
2, 249240, Note_on_c, 0, 55, 100
2, 249360, Note_on_c, 0, 55, 0
2, 249360, Note_on_c, 0, 57, 100
2, 249480, Note_on_c, 0, 57, 0
2, 249480, Note_on_c, 0, 58, 100
2, 249600, Note_on_c, 0, 58, 0
2, 249600, Note_on_c, 0, 60, 100
2, 250080, Note_on_c, 0, 60, 0
2, 250080, Note_on_c, 0, 57, 100
2, 250200, Note_on_c, 0, 57, 0
2, 250200, Note_on_c, 0, 58, 100
2, 250320, Note_on_c, 0, 58, 0
2, 250320, Note_on_c, 0, 60, 100
2, 250440, Note_on_c, 0, 60, 0
2, 250440, Note_on_c, 0, 62, 100
2, 250560, Note_on_c, 0, 62, 0
2, 250560, Note_on_c, 0, 63, 100
2, 251040, Note_on_c, 0, 63, 0
2, 251040, Note_on_c, 0, 62, 100
2, 251280, Note_on_c, 0, 62, 0
2, 251280, Note_on_c, 0, 60, 100
2, 251520, Note_on_c, 0, 60, 0
2, 251520, Note_on_c, 0, 62, 100
2, 251760, Note_on_c, 0, 62, 0
2, 251760, Note_on_c, 0, 58, 100
2, 252000, Note_on_c, 0, 58, 0
2, 252000, Note_on_c, 0, 55, 100
2, 252240, Note_on_c, 0, 55, 0
2, 252240, Note_on_c, 0, 58, 100
2, 252480, Note_on_c, 0, 58, 0
2, 252480, Note_on_c, 0, 51, 100
2, 252720, Note_on_c, 0, 51, 0
2, 252720, Note_on_c, 0, 60, 100
2, 252960, Note_on_c, 0, 60, 0
2, 252960, Note_on_c, 0, 53, 100
2, 253200, Note_on_c, 0, 53, 0
2, 253200, Note_on_c, 0, 57, 100
2, 253440, Note_on_c, 0, 57, 0
2, 253440, Note_on_c, 0, 58, 100
2, 253920, Note_on_c, 0, 58, 0
2, 253920, Note_on_c, 0, 53, 100
2, 254400, Note_on_c, 0, 53, 0
2, 254400, Note_on_c, 0, 46, 100
2, 254880, Note_on_c, 0, 46, 0
2, 254880, Note_on_c, 0, 46, 100
2, 255000, Note_on_c, 0, 46, 0
2, 255000, Note_on_c, 0, 48, 100
2, 255120, Note_on_c, 0, 48, 0
2, 255120, Note_on_c, 0, 50, 100
2, 255240, Note_on_c, 0, 50, 0
2, 255240, Note_on_c, 0, 51, 100
2, 255360, Note_on_c, 0, 51, 0
2, 255360, Note_on_c, 0, 53, 100
2, 255840, Note_on_c, 0, 53, 0
2, 255840, Note_on_c, 0, 55, 100
2, 256080, Note_on_c, 0, 55, 0
2, 256080, Note_on_c, 0, 51, 100
2, 256320, Note_on_c, 0, 51, 0
2, 256320, Note_on_c, 0, 53, 100
2, 256800, Note_on_c, 0, 53, 0
2, 256800, Note_on_c, 0, 58, 100
2, 257040, Note_on_c, 0, 58, 0
2, 257040, Note_on_c, 0, 53, 100
2, 257280, Note_on_c, 0, 53, 0
2, 257280, Note_on_c, 0, 55, 100
2, 257760, Note_on_c, 0, 55, 0
2, 257760, Note_on_c, 0, 51, 100
2, 258240, Note_on_c, 0, 51, 0
2, 258240, Note_on_c, 0, 39, 100
2, 258720, Note_on_c, 0, 39, 0
2, 258720, Note_on_c, 0, 56, 100
2, 258840, Note_on_c, 0, 56, 0
2, 258840, Note_on_c, 0, 55, 100
2, 258960, Note_on_c, 0, 55, 0
2, 258960, Note_on_c, 0, 53, 100
2, 259080, Note_on_c, 0, 53, 0
2, 259080, Note_on_c, 0, 51, 100
2, 259200, Note_on_c, 0, 51, 0
2, 259200, Note_on_c, 0, 50, 100
2, 259680, Note_on_c, 0, 50, 0
2, 259680, Note_on_c, 0, 53, 100
2, 259800, Note_on_c, 0, 53, 0
2, 259800, Note_on_c, 0, 51, 100
2, 259920, Note_on_c, 0, 51, 0
2, 259920, Note_on_c, 0, 50, 100
2, 260040, Note_on_c, 0, 50, 0
2, 260040, Note_on_c, 0, 48, 100
2, 260160, Note_on_c, 0, 48, 0
2, 260160, Note_on_c, 0, 47, 100
2, 260640, Note_on_c, 0, 47, 0
2, 260640, Note_on_c, 0, 50, 100
2, 260760, Note_on_c, 0, 50, 0
2, 260760, Note_on_c, 0, 48, 100
2, 260880, Note_on_c, 0, 48, 0
2, 260880, Note_on_c, 0, 47, 100
2, 261000, Note_on_c, 0, 47, 0
2, 261000, Note_on_c, 0, 45, 100
2, 261120, Note_on_c, 0, 45, 0
2, 261120, Note_on_c, 0, 43, 100
2, 261360, Note_on_c, 0, 43, 0
2, 261360, Note_on_c, 0, 50, 100
2, 261600, Note_on_c, 0, 50, 0
2, 261600, Note_on_c, 0, 53, 100
2, 261840, Note_on_c, 0, 53, 0
2, 261840, Note_on_c, 0, 59, 100
2, 262080, Note_on_c, 0, 59, 0
2, 262080, Note_on_c, 0, 62, 100
2, 262560, Note_on_c, 0, 62, 0
2, 262560, Note_on_c, 0, 55, 100
2, 262680, Note_on_c, 0, 55, 0
2, 262680, Note_on_c, 0, 53, 100
2, 262800, Note_on_c, 0, 53, 0
2, 262800, Note_on_c, 0, 51, 100
2, 262920, Note_on_c, 0, 51, 0
2, 262920, Note_on_c, 0, 50, 100
2, 263040, Note_on_c, 0, 50, 0
2, 263040, Note_on_c, 0, 51, 100
2, 263520, Note_on_c, 0, 51, 0
2, 263520, Note_on_c, 0, 36, 100
2, 263640, Note_on_c, 0, 36, 0
2, 263640, Note_on_c, 0, 38, 100
2, 263760, Note_on_c, 0, 38, 0
2, 263760, Note_on_c, 0, 39, 100
2, 263880, Note_on_c, 0, 39, 0
2, 263880, Note_on_c, 0, 41, 100
2, 264000, Note_on_c, 0, 41, 0
2, 264000, Note_on_c, 0, 43, 100
2, 264480, Note_on_c, 0, 43, 0
2, 264480, Note_on_c, 0, 62, 100
2, 264600, Note_on_c, 0, 62, 0
2, 264600, Note_on_c, 0, 60, 100
2, 264720, Note_on_c, 0, 60, 0
2, 264720, Note_on_c, 0, 59, 100
2, 264840, Note_on_c, 0, 59, 0
2, 264840, Note_on_c, 0, 57, 100
2, 264960, Note_on_c, 0, 57, 0
2, 264960, Note_on_c, 0, 59, 100
2, 265440, Note_on_c, 0, 59, 0
2, 265440, Note_on_c, 0, 43, 100
2, 265560, Note_on_c, 0, 43, 0
2, 265560, Note_on_c, 0, 45, 100
2, 265680, Note_on_c, 0, 45, 0
2, 265680, Note_on_c, 0, 47, 100
2, 265800, Note_on_c, 0, 47, 0
2, 265800, Note_on_c, 0, 48, 100
2, 265920, Note_on_c, 0, 48, 0
2, 265920, Note_on_c, 0, 50, 100
2, 266400, Note_on_c, 0, 50, 0
2, 266400, Note_on_c, 0, 67, 100
2, 266520, Note_on_c, 0, 67, 0
2, 266520, Note_on_c, 0, 65, 100
2, 266640, Note_on_c, 0, 65, 0
2, 266640, Note_on_c, 0, 63, 100
2, 266760, Note_on_c, 0, 63, 0
2, 266760, Note_on_c, 0, 62, 100
2, 266880, Note_on_c, 0, 62, 0
2, 266880, Note_on_c, 0, 63, 100
2, 267360, Note_on_c, 0, 63, 0
2, 267360, Note_on_c, 0, 63, 100
2, 267480, Note_on_c, 0, 63, 0
2, 267480, Note_on_c, 0, 62, 100
2, 267600, Note_on_c, 0, 62, 0
2, 267600, Note_on_c, 0, 60, 100
2, 267720, Note_on_c, 0, 60, 0
2, 267720, Note_on_c, 0, 59, 100
2, 267840, Note_on_c, 0, 59, 0
2, 267840, Note_on_c, 0, 60, 100
2, 268320, Note_on_c, 0, 60, 0
2, 268320, Note_on_c, 0, 60, 100
2, 268440, Note_on_c, 0, 60, 0
2, 268440, Note_on_c, 0, 58, 100
2, 268560, Note_on_c, 0, 58, 0
2, 268560, Note_on_c, 0, 56, 100
2, 268680, Note_on_c, 0, 56, 0
2, 268680, Note_on_c, 0, 55, 100
2, 268800, Note_on_c, 0, 55, 0
2, 268800, Note_on_c, 0, 56, 100
2, 269280, Note_on_c, 0, 56, 0
2, 269280, Note_on_c, 0, 56, 100
2, 269400, Note_on_c, 0, 56, 0
2, 269400, Note_on_c, 0, 55, 100
2, 269520, Note_on_c, 0, 55, 0
2, 269520, Note_on_c, 0, 53, 100
2, 269640, Note_on_c, 0, 53, 0
2, 269640, Note_on_c, 0, 51, 100
2, 269760, Note_on_c, 0, 51, 0
2, 269760, Note_on_c, 0, 50, 100
2, 270240, Note_on_c, 0, 50, 0
2, 270240, Note_on_c, 0, 60, 100
2, 270480, Note_on_c, 0, 60, 0
2, 270480, Note_on_c, 0, 59, 100
2, 270720, Note_on_c, 0, 59, 0
2, 270720, Note_on_c, 0, 60, 100
2, 270960, Note_on_c, 0, 60, 0
2, 270960, Note_on_c, 0, 56, 100
2, 271200, Note_on_c, 0, 56, 0
2, 271200, Note_on_c, 0, 53, 100
2, 271440, Note_on_c, 0, 53, 0
2, 271440, Note_on_c, 0, 56, 100
2, 271680, Note_on_c, 0, 56, 0
2, 271680, Note_on_c, 0, 50, 100
2, 271920, Note_on_c, 0, 50, 0
2, 271920, Note_on_c, 0, 60, 100
2, 272160, Note_on_c, 0, 60, 0
2, 272160, Note_on_c, 0, 55, 100
2, 272400, Note_on_c, 0, 55, 0
2, 272400, Note_on_c, 0, 59, 100
2, 272640, Note_on_c, 0, 59, 0
2, 272640, Note_on_c, 0, 60, 100
2, 273120, Note_on_c, 0, 60, 0
2, 273120, Note_on_c, 0, 43, 100
2, 273600, Note_on_c, 0, 43, 0
2, 273600, Note_on_c, 0, 36, 100
2, 274080, Note_on_c, 0, 36, 0
2, 274080, Note_on_c, 0, 48, 100
2, 274200, Note_on_c, 0, 48, 0
2, 274200, Note_on_c, 0, 50, 100
2, 274320, Note_on_c, 0, 50, 0
2, 274320, Note_on_c, 0, 52, 100
2, 274440, Note_on_c, 0, 52, 0
2, 274440, Note_on_c, 0, 53, 100
2, 274560, Note_on_c, 0, 53, 0
2, 274560, Note_on_c, 0, 55, 100
2, 275040, Note_on_c, 0, 55, 0
2, 275040, Note_on_c, 0, 56, 100
2, 275280, Note_on_c, 0, 56, 0
2, 275280, Note_on_c, 0, 53, 100
2, 275520, Note_on_c, 0, 53, 0
2, 275520, Note_on_c, 0, 55, 100
2, 276000, Note_on_c, 0, 55, 0
2, 276000, Note_on_c, 0, 60, 100
2, 276240, Note_on_c, 0, 60, 0
2, 276240, Note_on_c, 0, 55, 100
2, 276480, Note_on_c, 0, 55, 0
2, 276480, Note_on_c, 0, 58, 100
2, 276720, Note_on_c, 0, 58, 0
2, 276720, Note_on_c, 0, 56, 100
2, 276960, Note_on_c, 0, 56, 0
2, 276960, Note_on_c, 0, 55, 100
2, 277200, Note_on_c, 0, 55, 0
2, 277200, Note_on_c, 0, 53, 100
2, 277440, Note_on_c, 0, 53, 0
2, 277440, Note_on_c, 0, 63, 100
2, 277680, Note_on_c, 0, 63, 0
2, 277680, Note_on_c, 0, 62, 100
2, 277920, Note_on_c, 0, 62, 0
2, 277920, Note_on_c, 0, 60, 100
2, 278160, Note_on_c, 0, 60, 0
2, 278160, Note_on_c, 0, 58, 100
2, 278400, Note_on_c, 0, 58, 0
2, 278400, Note_on_c, 0, 63, 100
2, 278880, Note_on_c, 0, 63, 0
2, 278880, Note_on_c, 0, 51, 100
2, 279000, Note_on_c, 0, 51, 0
2, 279000, Note_on_c, 0, 53, 100
2, 279120, Note_on_c, 0, 53, 0
2, 279120, Note_on_c, 0, 55, 100
2, 279240, Note_on_c, 0, 55, 0
2, 279240, Note_on_c, 0, 56, 100
2, 279360, Note_on_c, 0, 56, 0
2, 279360, Note_on_c, 0, 58, 100
2, 279840, Note_on_c, 0, 58, 0
2, 279840, Note_on_c, 0, 60, 100
2, 280320, Note_on_c, 0, 60, 0
2, 280320, Note_on_c, 0, 51, 100
2, 280560, Note_on_c, 0, 51, 0
2, 280560, Note_on_c, 0, 50, 100
2, 280800, Note_on_c, 0, 50, 0
2, 280800, Note_on_c, 0, 48, 100
2, 281040, Note_on_c, 0, 48, 0
2, 281040, Note_on_c, 0, 50, 100
2, 281280, Note_on_c, 0, 50, 0
2, 281280, Note_on_c, 0, 46, 100
2, 281760, Note_on_c, 0, 46, 0
2, 281760, Note_on_c, 0, 46, 100
2, 281880, Note_on_c, 0, 46, 0
2, 281880, Note_on_c, 0, 48, 100
2, 282000, Note_on_c, 0, 48, 0
2, 282000, Note_on_c, 0, 50, 100
2, 282120, Note_on_c, 0, 50, 0
2, 282120, Note_on_c, 0, 51, 100
2, 282240, Note_on_c, 0, 51, 0
2, 282240, Note_on_c, 0, 53, 100
2, 282720, Note_on_c, 0, 53, 0
2, 282720, Note_on_c, 0, 50, 100
2, 282840, Note_on_c, 0, 50, 0
2, 282840, Note_on_c, 0, 51, 100
2, 282960, Note_on_c, 0, 51, 0
2, 282960, Note_on_c, 0, 53, 100
2, 283080, Note_on_c, 0, 53, 0
2, 283080, Note_on_c, 0, 55, 100
2, 283200, Note_on_c, 0, 55, 0
2, 283200, Note_on_c, 0, 56, 100
2, 283680, Note_on_c, 0, 56, 0
2, 283680, Note_on_c, 0, 46, 100
2, 283800, Note_on_c, 0, 46, 0
2, 283800, Note_on_c, 0, 48, 100
2, 283920, Note_on_c, 0, 48, 0
2, 283920, Note_on_c, 0, 50, 100
2, 284040, Note_on_c, 0, 50, 0
2, 284040, Note_on_c, 0, 51, 100
2, 284160, Note_on_c, 0, 51, 0
2, 284160, Note_on_c, 0, 53, 100
2, 284640, Note_on_c, 0, 53, 0
2, 284640, Note_on_c, 0, 50, 100
2, 284760, Note_on_c, 0, 50, 0
2, 284760, Note_on_c, 0, 51, 100
2, 284880, Note_on_c, 0, 51, 0
2, 284880, Note_on_c, 0, 53, 100
2, 285000, Note_on_c, 0, 53, 0
2, 285000, Note_on_c, 0, 55, 100
2, 285120, Note_on_c, 0, 55, 0
2, 285120, Note_on_c, 0, 56, 100
2, 285600, Note_on_c, 0, 56, 0
2, 285600, Note_on_c, 0, 51, 100
2, 285720, Note_on_c, 0, 51, 0
2, 285720, Note_on_c, 0, 53, 100
2, 285840, Note_on_c, 0, 53, 0
2, 285840, Note_on_c, 0, 55, 100
2, 285960, Note_on_c, 0, 55, 0
2, 285960, Note_on_c, 0, 56, 100
2, 286080, Note_on_c, 0, 56, 0
2, 286080, Note_on_c, 0, 58, 100
2, 286560, Note_on_c, 0, 58, 0
2, 286560, Note_on_c, 0, 55, 100
2, 286680, Note_on_c, 0, 55, 0
2, 286680, Note_on_c, 0, 56, 100
2, 286800, Note_on_c, 0, 56, 0
2, 286800, Note_on_c, 0, 58, 100
2, 286920, Note_on_c, 0, 58, 0
2, 286920, Note_on_c, 0, 60, 100
2, 287040, Note_on_c, 0, 60, 0
2, 287040, Note_on_c, 0, 61, 100
2, 287520, Note_on_c, 0, 61, 0
2, 287520, Note_on_c, 0, 51, 100
2, 287640, Note_on_c, 0, 51, 0
2, 287640, Note_on_c, 0, 53, 100
2, 287760, Note_on_c, 0, 53, 0
2, 287760, Note_on_c, 0, 55, 100
2, 287880, Note_on_c, 0, 55, 0
2, 287880, Note_on_c, 0, 56, 100
2, 288000, Note_on_c, 0, 56, 0
2, 288000, Note_on_c, 0, 58, 100
2, 288480, Note_on_c, 0, 58, 0
2, 288480, Note_on_c, 0, 55, 100
2, 288600, Note_on_c, 0, 55, 0
2, 288600, Note_on_c, 0, 56, 100
2, 288720, Note_on_c, 0, 56, 0
2, 288720, Note_on_c, 0, 58, 100
2, 288840, Note_on_c, 0, 58, 0
2, 288840, Note_on_c, 0, 60, 100
2, 288960, Note_on_c, 0, 60, 0
2, 288960, Note_on_c, 0, 61, 100
2, 289440, Note_on_c, 0, 61, 0
2, 289440, Note_on_c, 0, 60, 100
2, 289680, Note_on_c, 0, 60, 0
2, 289680, Note_on_c, 0, 58, 100
2, 289920, Note_on_c, 0, 58, 0
2, 289920, Note_on_c, 0, 60, 100
2, 290160, Note_on_c, 0, 60, 0
2, 290160, Note_on_c, 0, 58, 100
2, 290400, Note_on_c, 0, 58, 0
2, 290400, Note_on_c, 0, 58, 100
2, 290640, Note_on_c, 0, 58, 0
2, 290640, Note_on_c, 0, 56, 100
2, 290880, Note_on_c, 0, 56, 0
2, 290880, Note_on_c, 0, 58, 100
2, 291120, Note_on_c, 0, 58, 0
2, 291120, Note_on_c, 0, 55, 100
2, 291360, Note_on_c, 0, 55, 0
2, 291360, Note_on_c, 0, 43, 100
2, 291600, Note_on_c, 0, 43, 0
2, 291600, Note_on_c, 0, 55, 100
2, 291720, Note_on_c, 0, 55, 0
2, 291720, Note_on_c, 0, 56, 100
2, 291840, Note_on_c, 0, 56, 0
2, 291840, Note_on_c, 0, 58, 100
2, 292080, Note_on_c, 0, 58, 0
2, 292080, Note_on_c, 0, 55, 100
2, 292200, Note_on_c, 0, 55, 0
2, 292200, Note_on_c, 0, 56, 100
2, 292320, Note_on_c, 0, 56, 0
2, 292320, Note_on_c, 0, 58, 100
2, 292560, Note_on_c, 0, 58, 0
2, 292560, Note_on_c, 0, 56, 100
2, 292680, Note_on_c, 0, 56, 0
2, 292680, Note_on_c, 0, 55, 100
2, 292800, Note_on_c, 0, 55, 0
2, 292800, Note_on_c, 0, 56, 100
2, 293040, Note_on_c, 0, 56, 0
2, 293040, Note_on_c, 0, 53, 100
2, 293280, Note_on_c, 0, 53, 0
2, 293280, Note_on_c, 0, 41, 100
2, 293520, Note_on_c, 0, 41, 0
2, 293520, Note_on_c, 0, 56, 100
2, 293760, Note_on_c, 0, 56, 0
2, 293760, Note_on_c, 0, 55, 100
2, 293880, Note_on_c, 0, 55, 0
2, 293880, Note_on_c, 0, 53, 100
2, 294000, Note_on_c, 0, 53, 0
2, 294000, Note_on_c, 0, 51, 100
2, 294120, Note_on_c, 0, 51, 0
2, 294120, Note_on_c, 0, 50, 100
2, 294240, Note_on_c, 0, 50, 0
2, 294240, Note_on_c, 0, 51, 100
2, 294480, Note_on_c, 0, 51, 0
2, 294480, Note_on_c, 0, 58, 100
2, 294720, Note_on_c, 0, 58, 0
2, 294720, Note_on_c, 0, 55, 100
2, 294840, Note_on_c, 0, 55, 0
2, 294840, Note_on_c, 0, 53, 100
2, 294960, Note_on_c, 0, 53, 0
2, 294960, Note_on_c, 0, 51, 100
2, 295080, Note_on_c, 0, 51, 0
2, 295080, Note_on_c, 0, 50, 100
2, 295200, Note_on_c, 0, 50, 0
2, 295200, Note_on_c, 0, 51, 100
2, 295440, Note_on_c, 0, 51, 0
2, 295440, Note_on_c, 0, 63, 100
2, 295680, Note_on_c, 0, 63, 0
2, 295680, Note_on_c, 0, 56, 100
2, 295800, Note_on_c, 0, 56, 0
2, 295800, Note_on_c, 0, 55, 100
2, 295920, Note_on_c, 0, 55, 0
2, 295920, Note_on_c, 0, 53, 100
2, 296040, Note_on_c, 0, 53, 0
2, 296040, Note_on_c, 0, 55, 100
2, 296160, Note_on_c, 0, 55, 0
2, 296160, Note_on_c, 0, 56, 100
2, 296280, Note_on_c, 0, 56, 0
2, 296280, Note_on_c, 0, 55, 100
2, 296400, Note_on_c, 0, 55, 0
2, 296400, Note_on_c, 0, 53, 100
2, 296520, Note_on_c, 0, 53, 0
2, 296520, Note_on_c, 0, 55, 100
2, 296640, Note_on_c, 0, 55, 0
2, 296640, Note_on_c, 0, 56, 100
2, 296760, Note_on_c, 0, 56, 0
2, 296760, Note_on_c, 0, 55, 100
2, 296880, Note_on_c, 0, 55, 0
2, 296880, Note_on_c, 0, 53, 100
2, 297000, Note_on_c, 0, 53, 0
2, 297000, Note_on_c, 0, 51, 100
2, 297120, Note_on_c, 0, 51, 0
2, 297120, Note_on_c, 0, 50, 100
2, 297240, Note_on_c, 0, 50, 0
2, 297240, Note_on_c, 0, 48, 100
2, 297360, Note_on_c, 0, 48, 0
2, 297360, Note_on_c, 0, 46, 100
2, 297480, Note_on_c, 0, 46, 0
2, 297480, Note_on_c, 0, 44, 100
2, 297600, Note_on_c, 0, 44, 0
2, 297600, Note_on_c, 0, 43, 100
2, 297840, Note_on_c, 0, 43, 0
2, 297840, Note_on_c, 0, 51, 100
2, 298080, Note_on_c, 0, 51, 0
2, 298080, Note_on_c, 0, 60, 100
2, 298320, Note_on_c, 0, 60, 0
2, 298320, Note_on_c, 0, 56, 100
2, 298560, Note_on_c, 0, 56, 0
2, 298560, Note_on_c, 0, 58, 100
2, 299040, Note_on_c, 0, 58, 0
2, 299040, Note_on_c, 0, 60, 100
2, 299280, Note_on_c, 0, 60, 0
2, 299280, Note_on_c, 0, 55, 100
2, 299520, Note_on_c, 0, 55, 0
2, 299520, Note_on_c, 0, 56, 100
2, 300000, Note_on_c, 0, 56, 0
2, 300000, Note_on_c, 0, 53, 100
2, 300480, Note_on_c, 0, 53, 0
2, 300480, Note_on_c, 0, 41, 100
2, 300960, Note_on_c, 0, 41, 0
2, 300960, Note_on_c, 0, 60, 100
2, 301080, Note_on_c, 0, 60, 0
2, 301080, Note_on_c, 0, 58, 100
2, 301200, Note_on_c, 0, 58, 0
2, 301200, Note_on_c, 0, 56, 100
2, 301320, Note_on_c, 0, 56, 0
2, 301320, Note_on_c, 0, 55, 100
2, 301440, Note_on_c, 0, 55, 0
2, 301440, Note_on_c, 0, 53, 100
2, 301920, Note_on_c, 0, 53, 0
2, 301920, Note_on_c, 0, 56, 100
2, 302040, Note_on_c, 0, 56, 0
2, 302040, Note_on_c, 0, 55, 100
2, 302160, Note_on_c, 0, 55, 0
2, 302160, Note_on_c, 0, 53, 100
2, 302280, Note_on_c, 0, 53, 0
2, 302280, Note_on_c, 0, 51, 100
2, 302400, Note_on_c, 0, 51, 0
2, 302400, Note_on_c, 0, 50, 100
2, 302880, Note_on_c, 0, 50, 0
2, 302880, Note_on_c, 0, 53, 100
2, 303000, Note_on_c, 0, 53, 0
2, 303000, Note_on_c, 0, 51, 100
2, 303120, Note_on_c, 0, 51, 0
2, 303120, Note_on_c, 0, 50, 100
2, 303240, Note_on_c, 0, 50, 0
2, 303240, Note_on_c, 0, 48, 100
2, 303360, Note_on_c, 0, 48, 0
2, 303360, Note_on_c, 0, 46, 100
2, 303600, Note_on_c, 0, 46, 0
2, 303600, Note_on_c, 0, 50, 100
2, 303840, Note_on_c, 0, 50, 0
2, 303840, Note_on_c, 0, 53, 100
2, 304080, Note_on_c, 0, 53, 0
2, 304080, Note_on_c, 0, 56, 100
2, 304320, Note_on_c, 0, 56, 0
2, 304320, Note_on_c, 0, 65, 100
2, 304800, Note_on_c, 0, 65, 0
2, 304800, Note_on_c, 0, 63, 100
2, 304920, Note_on_c, 0, 63, 0
2, 304920, Note_on_c, 0, 62, 100
2, 305040, Note_on_c, 0, 62, 0
2, 305040, Note_on_c, 0, 60, 100
2, 305160, Note_on_c, 0, 60, 0
2, 305160, Note_on_c, 0, 58, 100
2, 305280, Note_on_c, 0, 58, 0
2, 305280, Note_on_c, 0, 63, 100
2, 305760, Note_on_c, 0, 63, 0
2, 305760, Note_on_c, 0, 51, 100
2, 305880, Note_on_c, 0, 51, 0
2, 305880, Note_on_c, 0, 53, 100
2, 306000, Note_on_c, 0, 53, 0
2, 306000, Note_on_c, 0, 55, 100
2, 306120, Note_on_c, 0, 55, 0
2, 306120, Note_on_c, 0, 56, 100
2, 306240, Note_on_c, 0, 56, 0
2, 306240, Note_on_c, 0, 58, 100
2, 306720, Note_on_c, 0, 58, 0
2, 306720, Note_on_c, 0, 60, 100
2, 307200, Note_on_c, 0, 60, 0
2, 307200, Note_on_c, 0, 51, 100
2, 307440, Note_on_c, 0, 51, 0
2, 307440, Note_on_c, 0, 50, 100
2, 307680, Note_on_c, 0, 50, 0
2, 307680, Note_on_c, 0, 48, 100
2, 307920, Note_on_c, 0, 48, 0
2, 307920, Note_on_c, 0, 50, 100
2, 308160, Note_on_c, 0, 50, 0
2, 308160, Note_on_c, 0, 46, 100
2, 308640, Note_on_c, 0, 46, 0
2, 308640, Note_on_c, 0, 63, 100
2, 308760, Note_on_c, 0, 63, 0
2, 308760, Note_on_c, 0, 62, 100
2, 308880, Note_on_c, 0, 62, 0
2, 308880, Note_on_c, 0, 60, 100
2, 309000, Note_on_c, 0, 60, 0
2, 309000, Note_on_c, 0, 58, 100
2, 309120, Note_on_c, 0, 58, 0
2, 309120, Note_on_c, 0, 63, 100
2, 309600, Note_on_c, 0, 63, 0
2, 309600, Note_on_c, 0, 51, 100
2, 309720, Note_on_c, 0, 51, 0
2, 309720, Note_on_c, 0, 53, 100
2, 309840, Note_on_c, 0, 53, 0
2, 309840, Note_on_c, 0, 55, 100
2, 309960, Note_on_c, 0, 55, 0
2, 309960, Note_on_c, 0, 56, 100
2, 310080, Note_on_c, 0, 56, 0
2, 310080, Note_on_c, 0, 58, 100
2, 310560, Note_on_c, 0, 58, 0
2, 310560, Note_on_c, 0, 60, 100
2, 311040, Note_on_c, 0, 60, 0
2, 311040, Note_on_c, 0, 61, 100
2, 311160, Note_on_c, 0, 61, 0
2, 311160, Note_on_c, 0, 60, 100
2, 311280, Note_on_c, 0, 60, 0
2, 311280, Note_on_c, 0, 58, 100
2, 311520, Note_on_c, 0, 58, 0
2, 311520, Note_on_c, 0, 60, 100
2, 312240, Note_on_c, 0, 60, 0
2, 312240, Note_on_c, 0, 58, 100
2, 312360, Note_on_c, 0, 58, 0
2, 312360, Note_on_c, 0, 56, 100
2, 312480, Note_on_c, 0, 56, 0
2, 312480, Note_on_c, 0, 58, 100
2, 312600, Note_on_c, 0, 58, 0
2, 312600, Note_on_c, 0, 56, 100
2, 312720, Note_on_c, 0, 56, 0
2, 312720, Note_on_c, 0, 55, 100
2, 312960, Note_on_c, 0, 55, 0
2, 312960, Note_on_c, 0, 56, 100
2, 313080, Note_on_c, 0, 56, 0
2, 313080, Note_on_c, 0, 55, 100
2, 313200, Note_on_c, 0, 55, 0
2, 313200, Note_on_c, 0, 53, 100
2, 313440, Note_on_c, 0, 53, 0
2, 313440, Note_on_c, 0, 55, 100
2, 314160, Note_on_c, 0, 55, 0
2, 314160, Note_on_c, 0, 53, 100
2, 314280, Note_on_c, 0, 53, 0
2, 314280, Note_on_c, 0, 51, 100
2, 314400, Note_on_c, 0, 51, 0
2, 314400, Note_on_c, 0, 53, 100
2, 314520, Note_on_c, 0, 53, 0
2, 314520, Note_on_c, 0, 51, 100
2, 314640, Note_on_c, 0, 51, 0
2, 314640, Note_on_c, 0, 50, 100
2, 314880, Note_on_c, 0, 50, 0
2, 314880, Note_on_c, 0, 51, 100
2, 315120, Note_on_c, 0, 51, 0
2, 315120, Note_on_c, 0, 46, 100
2, 315360, Note_on_c, 0, 46, 0
2, 315360, Note_on_c, 0, 43, 100
2, 315600, Note_on_c, 0, 43, 0
2, 315600, Note_on_c, 0, 46, 100
2, 315840, Note_on_c, 0, 46, 0
2, 315840, Note_on_c, 0, 39, 100
2, 316320, Note_on_c, 0, 39, 0
2, 316320, Note_on_c, 0, 46, 100
2, 316440, Note_on_c, 0, 46, 0
2, 316440, Note_on_c, 0, 48, 100
2, 316560, Note_on_c, 0, 48, 0
2, 316560, Note_on_c, 0, 50, 100
2, 316680, Note_on_c, 0, 50, 0
2, 316680, Note_on_c, 0, 51, 100
2, 316800, Note_on_c, 0, 51, 0
2, 316800, Note_on_c, 0, 53, 100
2, 317280, Note_on_c, 0, 53, 0
2, 317280, Note_on_c, 0, 50, 100
2, 317400, Note_on_c, 0, 50, 0
2, 317400, Note_on_c, 0, 51, 100
2, 317520, Note_on_c, 0, 51, 0
2, 317520, Note_on_c, 0, 53, 100
2, 317640, Note_on_c, 0, 53, 0
2, 317640, Note_on_c, 0, 55, 100
2, 317760, Note_on_c, 0, 55, 0
2, 317760, Note_on_c, 0, 56, 100
2, 318240, Note_on_c, 0, 56, 0
2, 318240, Note_on_c, 0, 46, 100
2, 318360, Note_on_c, 0, 46, 0
2, 318360, Note_on_c, 0, 48, 100
2, 318480, Note_on_c, 0, 48, 0
2, 318480, Note_on_c, 0, 50, 100
2, 318600, Note_on_c, 0, 50, 0
2, 318600, Note_on_c, 0, 51, 100
2, 318720, Note_on_c, 0, 51, 0
2, 318720, Note_on_c, 0, 53, 100
2, 319200, Note_on_c, 0, 53, 0
2, 319200, Note_on_c, 0, 50, 100
2, 319320, Note_on_c, 0, 50, 0
2, 319320, Note_on_c, 0, 51, 100
2, 319440, Note_on_c, 0, 51, 0
2, 319440, Note_on_c, 0, 53, 100
2, 319560, Note_on_c, 0, 53, 0
2, 319560, Note_on_c, 0, 55, 100
2, 319680, Note_on_c, 0, 55, 0
2, 319680, Note_on_c, 0, 56, 100
2, 320160, Note_on_c, 0, 56, 0
2, 320160, Note_on_c, 0, 55, 100
2, 320400, Note_on_c, 0, 55, 0
2, 320400, Note_on_c, 0, 53, 100
2, 320640, Note_on_c, 0, 53, 0
2, 320640, Note_on_c, 0, 55, 100
2, 320880, Note_on_c, 0, 55, 0
2, 320880, Note_on_c, 0, 58, 100
2, 321120, Note_on_c, 0, 58, 0
2, 321120, Note_on_c, 0, 63, 100
2, 321360, Note_on_c, 0, 63, 0
2, 321360, Note_on_c, 0, 55, 100
2, 321600, Note_on_c, 0, 55, 0
2, 321600, Note_on_c, 0, 53, 100
2, 321840, Note_on_c, 0, 53, 0
2, 321840, Note_on_c, 0, 51, 100
2, 322080, Note_on_c, 0, 51, 0
2, 322080, Note_on_c, 0, 46, 100
2, 322320, Note_on_c, 0, 46, 0
2, 322320, Note_on_c, 0, 62, 100
2, 322560, Note_on_c, 0, 62, 0
2, 322560, Note_on_c, 0, 63, 100
2, 324000, Note_on_c, 0, 63, 0
2, 324000, End_track
3, 0, Start_track
3, 0, MIDI_port, 0
3, 0, Title_t, "--------------------------------------"
3, 0, Program_c, 1, 42
3, 0, Control_c, 1, 7, 100
3, 0, Control_c, 1, 10, 74
3, 115200, Note_on_c, 1, 55, 100
3, 116640, Note_on_c, 1, 55, 0
3, 184320, Note_on_c, 1, 55, 100
3, 185760, Note_on_c, 1, 55, 0
3, 185760, Note_on_c, 1, 43, 100
3, 186240, Note_on_c, 1, 43, 0
3, 186240, Note_on_c, 1, 44, 100
3, 186720, Note_on_c, 1, 44, 0
3, 187200, Note_on_c, 1, 46, 100
3, 187680, Note_on_c, 1, 46, 0
3, 188160, Note_on_c, 1, 48, 100
3, 188640, Note_on_c, 1, 48, 0
3, 189120, Note_on_c, 1, 43, 100
3, 189600, Note_on_c, 1, 43, 0
3, 193440, Note_on_c, 1, 43, 100
3, 193920, Note_on_c, 1, 43, 0
3, 193920, Note_on_c, 1, 44, 100
3, 194400, Note_on_c, 1, 44, 0
3, 194880, Note_on_c, 1, 46, 100
3, 195360, Note_on_c, 1, 46, 0
3, 195840, Note_on_c, 1, 48, 100
3, 196320, Note_on_c, 1, 48, 0
3, 196800, Note_on_c, 1, 43, 100
3, 197280, Note_on_c, 1, 43, 0
3, 201120, Note_on_c, 1, 51, 100
3, 201600, Note_on_c, 1, 51, 0
3, 201600, Note_on_c, 1, 56, 100
3, 202080, Note_on_c, 1, 56, 0
3, 202560, Note_on_c, 1, 55, 100
3, 203040, Note_on_c, 1, 55, 0
3, 205440, Note_on_c, 1, 50, 100
3, 205920, Note_on_c, 1, 50, 0
3, 206400, Note_on_c, 1, 51, 100
3, 206880, Note_on_c, 1, 51, 0
3, 208800, Note_on_c, 1, 51, 100
3, 209280, Note_on_c, 1, 51, 0
3, 209280, Note_on_c, 1, 51, 100
3, 209760, Note_on_c, 1, 51, 0
3, 209760, Note_on_c, 1, 53, 100
3, 210720, Note_on_c, 1, 53, 0
3, 210720, Note_on_c, 1, 50, 100
3, 211200, Note_on_c, 1, 50, 0
3, 211200, Note_on_c, 1, 51, 100
3, 211440, Note_on_c, 1, 51, 0
3, 211440, Note_on_c, 1, 53, 100
3, 211680, Note_on_c, 1, 53, 0
3, 211680, Note_on_c, 1, 55, 100
3, 212640, Note_on_c, 1, 55, 0
3, 212640, Note_on_c, 1, 51, 100
3, 213120, Note_on_c, 1, 51, 0
3, 213120, Note_on_c, 1, 44, 100
3, 213600, Note_on_c, 1, 44, 0
3, 213600, Note_on_c, 1, 53, 100
3, 214080, Note_on_c, 1, 53, 0
3, 214080, Note_on_c, 1, 46, 100
3, 214560, Note_on_c, 1, 46, 0
3, 214560, Note_on_c, 1, 50, 100
3, 215040, Note_on_c, 1, 50, 0
3, 215040, Note_on_c, 1, 51, 100
3, 216480, Note_on_c, 1, 51, 0
3, 216480, Note_on_c, 1, 51, 100
3, 216960, Note_on_c, 1, 51, 0
3, 216960, Note_on_c, 1, 56, 100
3, 217440, Note_on_c, 1, 56, 0
3, 217920, Note_on_c, 1, 55, 100
3, 218400, Note_on_c, 1, 55, 0
3, 220800, Note_on_c, 1, 50, 100
3, 221280, Note_on_c, 1, 50, 0
3, 221760, Note_on_c, 1, 51, 100
3, 222240, Note_on_c, 1, 51, 0
3, 224160, Note_on_c, 1, 51, 100
3, 224640, Note_on_c, 1, 51, 0
3, 224640, Note_on_c, 1, 51, 100
3, 225120, Note_on_c, 1, 51, 0
3, 225120, Note_on_c, 1, 53, 100
3, 226080, Note_on_c, 1, 53, 0
3, 226080, Note_on_c, 1, 50, 100
3, 226560, Note_on_c, 1, 50, 0
3, 226560, Note_on_c, 1, 51, 100
3, 226800, Note_on_c, 1, 51, 0
3, 226800, Note_on_c, 1, 53, 100
3, 227040, Note_on_c, 1, 53, 0
3, 227040, Note_on_c, 1, 55, 100
3, 228000, Note_on_c, 1, 55, 0
3, 228000, Note_on_c, 1, 51, 100
3, 228480, Note_on_c, 1, 51, 0
3, 228480, Note_on_c, 1, 44, 100
3, 228960, Note_on_c, 1, 44, 0
3, 228960, Note_on_c, 1, 53, 100
3, 229440, Note_on_c, 1, 53, 0
3, 229440, Note_on_c, 1, 46, 100
3, 229920, Note_on_c, 1, 46, 0
3, 229920, Note_on_c, 1, 50, 100
3, 230400, Note_on_c, 1, 50, 0
3, 230400, Note_on_c, 1, 51, 100
3, 231840, Note_on_c, 1, 51, 0
3, 322560, Note_on_c, 1, 55, 100
3, 324000, Note_on_c, 1, 55, 0
3, 324000, End_track
4, 0, Start_track
4, 0, MIDI_port, 0
4, 0, Title_t, "Johann Sebastian Bach  (1685-1750)"
4, 0, Program_c, 2, 42
4, 0, Control_c, 2, 7, 100
4, 0, Control_c, 2, 10, 54
4, 115200, Note_on_c, 2, 46, 100
4, 116640, Note_on_c, 2, 46, 0
4, 184320, Note_on_c, 2, 46, 100
4, 185760, Note_on_c, 2, 46, 0
4, 215040, Note_on_c, 2, 39, 100
4, 216480, Note_on_c, 2, 39, 0
4, 230400, Note_on_c, 2, 39, 100
4, 231840, Note_on_c, 2, 39, 0
4, 322560, Note_on_c, 2, 46, 100
4, 324000, Note_on_c, 2, 46, 0
4, 324000, End_track
5, 0, Start_track
5, 0, MIDI_port, 0
5, 0, Title_t, "Six Suites for Solo Cello"
5, 0, Program_c, 3, 42
5, 0, Control_c, 3, 7, 100
5, 0, Control_c, 3, 10, 44
5, 115200, Note_on_c, 3, 39, 100
5, 116640, Note_on_c, 3, 39, 0
5, 184320, Note_on_c, 3, 39, 100
5, 185760, Note_on_c, 3, 39, 0
5, 322560, Note_on_c, 3, 39, 100
5, 324000, Note_on_c, 3, 39, 0
5, 324000, End_track
6, 0, Start_track
6, 0, MIDI_port, 0
6, 0, Title_t, "--------------------------------------"
6, 0, End_track
7, 0, Start_track
7, 0, MIDI_port, 0
7, 0, Title_t, "Suite No. 4 in Eb major - BWV 1010"
7, 0, End_track
8, 0, Start_track
8, 0, MIDI_port, 0
8, 0, Title_t, "5th Movement: Bouree I/II"
8, 0, End_track
9, 0, Start_track
9, 0, MIDI_port, 0
9, 0, Title_t, "--------------------------------------"
9, 0, End_track
10, 0, Start_track
10, 0, MIDI_port, 0
10, 0, Title_t, "Modified from an anonymous sequence with Cakewalk Pro Audio by"
10, 0, End_track
11, 0, Start_track
11, 0, MIDI_port, 0
11, 0, Title_t, "David J. Grossman - dave@unpronounceable.com"
11, 0, End_track
12, 0, Start_track
12, 0, MIDI_port, 0
12, 0, Title_t, "This and other Bach MIDI files can be found at:"
12, 0, End_track
13, 0, Start_track
13, 0, MIDI_port, 0
13, 0, Title_t, "Dave's J.S. Bach Page"
13, 0, End_track
14, 0, Start_track
14, 0, MIDI_port, 0
14, 0, Title_t, "http://www.unpronounceable.com/bach"
14, 0, End_track
15, 0, Start_track
15, 0, MIDI_port, 0
15, 0, Title_t, "--------------------------------------"
15, 0, End_track
16, 0, Start_track
16, 0, MIDI_port, 0
16, 0, Title_t, "Original Filename: cs4-5bou.mid"
16, 0, End_track
17, 0, Start_track
17, 0, MIDI_port, 0
17, 0, Title_t, "Last Modified: February 22, 1997"
17, 0, End_track
0, 0, End_of_file
