0, 0, Header, 1, 17, 480
1, 0, Start_track
1, 0, Title_t, "untitled"
1, 0, Copyright_t, "Copyright © 1996 by David J. Grossman"
1, 0, Text_t, "David J. Grossman"
1, 0, SMPTE_offset, 96, 0, 3, 0, 0
1, 0, Time_signature, 4, 2, 24, 8
1, 0, Key_signature, -3, "major"
1, 0, Tempo, 240000
1, 1800, Tempo, 705882
1, 1920, Marker_t, "A"
1, 36480, Marker_t, "A'"
1, 71040, Marker_t, "B"
1, 105600, Marker_t, "B'"
1, 105600, End_track
2, 0, Start_track
2, 0, MIDI_port, 0
2, 0, Title_t, "Solo Cello"
2, 0, Program_c, 0, 42
2, 0, Control_c, 0, 7, 100
2, 0, Control_c, 0, 10, 59
2, 1800, Note_on_c, 0, 60, 100
2, 1920, Note_on_c, 0, 60, 0
2, 1920, Note_on_c, 0, 60, 100
2, 2520, Note_on_c, 0, 60, 0
2, 2520, Note_on_c, 0, 58, 100
2, 2640, Note_on_c, 0, 58, 0
2, 2640, Note_on_c, 0, 56, 100
2, 2760, Note_on_c, 0, 56, 0
2, 2760, Note_on_c, 0, 55, 100
2, 2880, Note_on_c, 0, 55, 0
2, 2880, Note_on_c, 0, 56, 100
2, 3240, Note_on_c, 0, 56, 0
2, 3240, Note_on_c, 0, 53, 100
2, 3360, Note_on_c, 0, 53, 0
2, 3360, Note_on_c, 0, 55, 100
2, 3720, Note_on_c, 0, 55, 0
2, 3720, Note_on_c, 0, 50, 100
2, 3840, Note_on_c, 0, 50, 0
2, 3840, Note_on_c, 0, 51, 100
2, 4320, Note_on_c, 0, 51, 0
2, 5760, Note_on_c, 0, 43, 100
2, 5760, Note_on_c, 0, 39, 100
2, 6000, Note_on_c, 0, 39, 0
2, 6000, Note_on_c, 0, 43, 0
2, 9600, Note_on_c, 0, 36, 100
2, 9600, Note_on_c, 0, 43, 100
2, 9840, Note_on_c, 0, 43, 0
2, 9840, Note_on_c, 0, 36, 0
2, 11520, Note_on_c, 0, 51, 100
2, 11520, Note_on_c, 0, 43, 100
2, 12000, Note_on_c, 0, 43, 0
2, 12000, Note_on_c, 0, 51, 0
2, 13440, Note_on_c, 0, 51, 100
2, 13440, Note_on_c, 0, 44, 100
2, 13920, Note_on_c, 0, 44, 0
2, 13920, Note_on_c, 0, 51, 0
2, 15360, Note_on_c, 0, 48, 100
2, 15360, Note_on_c, 0, 40, 100
2, 15840, Note_on_c, 0, 40, 0
2, 15840, Note_on_c, 0, 48, 0
2, 17280, Note_on_c, 0, 48, 100
2, 17280, Note_on_c, 0, 41, 100
2, 17760, Note_on_c, 0, 41, 0
2, 17760, Note_on_c, 0, 48, 0
2, 21120, Note_on_c, 0, 56, 100
2, 21720, Note_on_c, 0, 56, 0
2, 21720, Note_on_c, 0, 55, 100
2, 21840, Note_on_c, 0, 55, 0
2, 21840, Note_on_c, 0, 56, 100
2, 21960, Note_on_c, 0, 56, 0
2, 21960, Note_on_c, 0, 53, 100
2, 22080, Note_on_c, 0, 53, 0
2, 22080, Note_on_c, 0, 62, 100
2, 22680, Note_on_c, 0, 62, 0
2, 22680, Note_on_c, 0, 60, 100
2, 22800, Note_on_c, 0, 60, 0
2, 22800, Note_on_c, 0, 62, 100
2, 22920, Note_on_c, 0, 62, 0
2, 22920, Note_on_c, 0, 58, 100
2, 23040, Note_on_c, 0, 58, 0
2, 23040, Note_on_c, 0, 65, 100
2, 23640, Note_on_c, 0, 65, 0
2, 23640, Note_on_c, 0, 63, 100
2, 23760, Note_on_c, 0, 63, 0
2, 23760, Note_on_c, 0, 62, 100
2, 23880, Note_on_c, 0, 62, 0
2, 23880, Note_on_c, 0, 60, 100
2, 24000, Note_on_c, 0, 60, 0
2, 24000, Note_on_c, 0, 58, 100
2, 24360, Note_on_c, 0, 58, 0
2, 24360, Note_on_c, 0, 55, 100
2, 24480, Note_on_c, 0, 55, 0
2, 24480, Note_on_c, 0, 56, 100
2, 24840, Note_on_c, 0, 56, 0
2, 24840, Note_on_c, 0, 65, 100
2, 24960, Note_on_c, 0, 65, 0
2, 24960, Note_on_c, 0, 55, 100
2, 25260, Note_on_c, 0, 55, 0
2, 25260, Note_on_c, 0, 56, 100
2, 25320, Note_on_c, 0, 56, 0
2, 25320, Note_on_c, 0, 55, 100
2, 25380, Note_on_c, 0, 55, 0
2, 25380, Note_on_c, 0, 53, 100
2, 25440, Note_on_c, 0, 53, 0
2, 25440, Note_on_c, 0, 55, 100
2, 25800, Note_on_c, 0, 55, 0
2, 25800, Note_on_c, 0, 56, 100
2, 25920, Note_on_c, 0, 56, 0
2, 25920, Note_on_c, 0, 55, 100
2, 26400, Note_on_c, 0, 55, 0
2, 26400, Note_on_c, 0, 53, 100
2, 26760, Note_on_c, 0, 53, 0
2, 26760, Note_on_c, 0, 51, 100
2, 26820, Note_on_c, 0, 51, 0
2, 26820, Note_on_c, 0, 50, 100
2, 26880, Note_on_c, 0, 50, 0
2, 26880, Note_on_c, 0, 51, 100
2, 27360, Note_on_c, 0, 51, 0
2, 28800, Note_on_c, 0, 62, 100
2, 29400, Note_on_c, 0, 62, 0
2, 29400, Note_on_c, 0, 51, 100
2, 29520, Note_on_c, 0, 51, 0
2, 29520, Note_on_c, 0, 50, 100
2, 29640, Note_on_c, 0, 50, 0
2, 29640, Note_on_c, 0, 48, 100
2, 29760, Note_on_c, 0, 48, 0
2, 29760, Note_on_c, 0, 46, 100
2, 30120, Note_on_c, 0, 46, 0
2, 30120, Note_on_c, 0, 48, 100
2, 30240, Note_on_c, 0, 48, 0
2, 30240, Note_on_c, 0, 50, 100
2, 30360, Note_on_c, 0, 50, 0
2, 30360, Note_on_c, 0, 52, 100
2, 30480, Note_on_c, 0, 52, 0
2, 30480, Note_on_c, 0, 54, 100
2, 30600, Note_on_c, 0, 54, 0
2, 30600, Note_on_c, 0, 55, 100
2, 30720, Note_on_c, 0, 55, 0
2, 30720, Note_on_c, 0, 57, 100
2, 30840, Note_on_c, 0, 57, 0
2, 30840, Note_on_c, 0, 55, 100
2, 30960, Note_on_c, 0, 55, 0
2, 30960, Note_on_c, 0, 54, 100
2, 31080, Note_on_c, 0, 54, 0
2, 31080, Note_on_c, 0, 55, 100
2, 31200, Note_on_c, 0, 55, 0
2, 31200, Note_on_c, 0, 57, 100
2, 31320, Note_on_c, 0, 57, 0
2, 31320, Note_on_c, 0, 58, 100
2, 31440, Note_on_c, 0, 58, 0
2, 31440, Note_on_c, 0, 60, 100
2, 31560, Note_on_c, 0, 60, 0
2, 31560, Note_on_c, 0, 62, 100
2, 31680, Note_on_c, 0, 62, 0
2, 31680, Note_on_c, 0, 63, 100
2, 32040, Note_on_c, 0, 63, 0
2, 32040, Note_on_c, 0, 62, 100
2, 32100, Note_on_c, 0, 62, 0
2, 32100, Note_on_c, 0, 60, 100
2, 32160, Note_on_c, 0, 60, 0
2, 32160, Note_on_c, 0, 62, 100
2, 32520, Note_on_c, 0, 62, 0
2, 32520, Note_on_c, 0, 54, 100
2, 32640, Note_on_c, 0, 54, 0
2, 32640, Note_on_c, 0, 55, 100
2, 33120, Note_on_c, 0, 55, 0
2, 33600, Note_on_c, 0, 50, 100
2, 34560, Note_on_c, 0, 50, 0
2, 36360, Note_on_c, 0, 60, 100
2, 36480, Note_on_c, 0, 60, 0
2, 36480, Note_on_c, 0, 60, 100
2, 37080, Note_on_c, 0, 60, 0
2, 37080, Note_on_c, 0, 58, 100
2, 37200, Note_on_c, 0, 58, 0
2, 37200, Note_on_c, 0, 56, 100
2, 37320, Note_on_c, 0, 56, 0
2, 37320, Note_on_c, 0, 55, 100
2, 37440, Note_on_c, 0, 55, 0
2, 37440, Note_on_c, 0, 56, 100
2, 37800, Note_on_c, 0, 56, 0
2, 37800, Note_on_c, 0, 53, 100
2, 37920, Note_on_c, 0, 53, 0
2, 37920, Note_on_c, 0, 55, 100
2, 38280, Note_on_c, 0, 55, 0
2, 38280, Note_on_c, 0, 50, 100
2, 38400, Note_on_c, 0, 50, 0
2, 38400, Note_on_c, 0, 51, 100
2, 38880, Note_on_c, 0, 51, 0
2, 40320, Note_on_c, 0, 43, 100
2, 40320, Note_on_c, 0, 39, 100
2, 40560, Note_on_c, 0, 39, 0
2, 40560, Note_on_c, 0, 43, 0
2, 44160, Note_on_c, 0, 36, 100
2, 44160, Note_on_c, 0, 43, 100
2, 44400, Note_on_c, 0, 43, 0
2, 44400, Note_on_c, 0, 36, 0
2, 46080, Note_on_c, 0, 51, 100
2, 46080, Note_on_c, 0, 43, 100
2, 46560, Note_on_c, 0, 43, 0
2, 46560, Note_on_c, 0, 51, 0
2, 48000, Note_on_c, 0, 51, 100
2, 48000, Note_on_c, 0, 44, 100
2, 48480, Note_on_c, 0, 44, 0
2, 48480, Note_on_c, 0, 51, 0
2, 49920, Note_on_c, 0, 48, 100
2, 49920, Note_on_c, 0, 40, 100
2, 50400, Note_on_c, 0, 40, 0
2, 50400, Note_on_c, 0, 48, 0
2, 51840, Note_on_c, 0, 48, 100
2, 51840, Note_on_c, 0, 41, 100
2, 52320, Note_on_c, 0, 41, 0
2, 52320, Note_on_c, 0, 48, 0
2, 55680, Note_on_c, 0, 56, 100
2, 56280, Note_on_c, 0, 56, 0
2, 56280, Note_on_c, 0, 55, 100
2, 56400, Note_on_c, 0, 55, 0
2, 56400, Note_on_c, 0, 56, 100
2, 56520, Note_on_c, 0, 56, 0
2, 56520, Note_on_c, 0, 53, 100
2, 56640, Note_on_c, 0, 53, 0
2, 56640, Note_on_c, 0, 62, 100
2, 57240, Note_on_c, 0, 62, 0
2, 57240, Note_on_c, 0, 60, 100
2, 57360, Note_on_c, 0, 60, 0
2, 57360, Note_on_c, 0, 62, 100
2, 57480, Note_on_c, 0, 62, 0
2, 57480, Note_on_c, 0, 58, 100
2, 57600, Note_on_c, 0, 58, 0
2, 57600, Note_on_c, 0, 65, 100
2, 58200, Note_on_c, 0, 65, 0
2, 58200, Note_on_c, 0, 63, 100
2, 58320, Note_on_c, 0, 63, 0
2, 58320, Note_on_c, 0, 62, 100
2, 58440, Note_on_c, 0, 62, 0
2, 58440, Note_on_c, 0, 60, 100
2, 58560, Note_on_c, 0, 60, 0
2, 58560, Note_on_c, 0, 58, 100
2, 58920, Note_on_c, 0, 58, 0
2, 58920, Note_on_c, 0, 55, 100
2, 59040, Note_on_c, 0, 55, 0
2, 59040, Note_on_c, 0, 56, 100
2, 59400, Note_on_c, 0, 56, 0
2, 59400, Note_on_c, 0, 65, 100
2, 59520, Note_on_c, 0, 65, 0
2, 59520, Note_on_c, 0, 55, 100
2, 59820, Note_on_c, 0, 55, 0
2, 59820, Note_on_c, 0, 56, 100
2, 59880, Note_on_c, 0, 56, 0
2, 59880, Note_on_c, 0, 55, 100
2, 59940, Note_on_c, 0, 55, 0
2, 59940, Note_on_c, 0, 53, 100
2, 60000, Note_on_c, 0, 53, 0
2, 60000, Note_on_c, 0, 55, 100
2, 60360, Note_on_c, 0, 55, 0
2, 60360, Note_on_c, 0, 56, 100
2, 60480, Note_on_c, 0, 56, 0
2, 60480, Note_on_c, 0, 55, 100
2, 60960, Note_on_c, 0, 55, 0
2, 60960, Note_on_c, 0, 53, 100
2, 61320, Note_on_c, 0, 53, 0
2, 61320, Note_on_c, 0, 51, 100
2, 61380, Note_on_c, 0, 51, 0
2, 61380, Note_on_c, 0, 50, 100
2, 61440, Note_on_c, 0, 50, 0
2, 61440, Note_on_c, 0, 51, 100
2, 61920, Note_on_c, 0, 51, 0
2, 63360, Note_on_c, 0, 62, 100
2, 63960, Note_on_c, 0, 62, 0
2, 63960, Note_on_c, 0, 51, 100
2, 64080, Note_on_c, 0, 51, 0
2, 64080, Note_on_c, 0, 50, 100
2, 64200, Note_on_c, 0, 50, 0
2, 64200, Note_on_c, 0, 48, 100
2, 64320, Note_on_c, 0, 48, 0
2, 64320, Note_on_c, 0, 46, 100
2, 64680, Note_on_c, 0, 46, 0
2, 64680, Note_on_c, 0, 48, 100
2, 64800, Note_on_c, 0, 48, 0
2, 64800, Note_on_c, 0, 50, 100
2, 64920, Note_on_c, 0, 50, 0
2, 64920, Note_on_c, 0, 52, 100
2, 65040, Note_on_c, 0, 52, 0
2, 65040, Note_on_c, 0, 54, 100
2, 65160, Note_on_c, 0, 54, 0
2, 65160, Note_on_c, 0, 55, 100
2, 65280, Note_on_c, 0, 55, 0
2, 65280, Note_on_c, 0, 57, 100
2, 65400, Note_on_c, 0, 57, 0
2, 65400, Note_on_c, 0, 55, 100
2, 65520, Note_on_c, 0, 55, 0
2, 65520, Note_on_c, 0, 54, 100
2, 65640, Note_on_c, 0, 54, 0
2, 65640, Note_on_c, 0, 55, 100
2, 65760, Note_on_c, 0, 55, 0
2, 65760, Note_on_c, 0, 57, 100
2, 65880, Note_on_c, 0, 57, 0
2, 65880, Note_on_c, 0, 58, 100
2, 66000, Note_on_c, 0, 58, 0
2, 66000, Note_on_c, 0, 60, 100
2, 66120, Note_on_c, 0, 60, 0
2, 66120, Note_on_c, 0, 62, 100
2, 66240, Note_on_c, 0, 62, 0
2, 66240, Note_on_c, 0, 63, 100
2, 66600, Note_on_c, 0, 63, 0
2, 66600, Note_on_c, 0, 62, 100
2, 66660, Note_on_c, 0, 62, 0
2, 66660, Note_on_c, 0, 60, 100
2, 66720, Note_on_c, 0, 60, 0
2, 66720, Note_on_c, 0, 62, 100
2, 67080, Note_on_c, 0, 62, 0
2, 67080, Note_on_c, 0, 54, 100
2, 67200, Note_on_c, 0, 54, 0
2, 67200, Note_on_c, 0, 55, 100
2, 67680, Note_on_c, 0, 55, 0
2, 68160, Note_on_c, 0, 50, 100
2, 69120, Note_on_c, 0, 50, 0
2, 70920, Note_on_c, 0, 62, 100
2, 71040, Note_on_c, 0, 62, 0
2, 71040, Note_on_c, 0, 62, 100
2, 71640, Note_on_c, 0, 62, 0
2, 71640, Note_on_c, 0, 60, 100
2, 71760, Note_on_c, 0, 60, 0
2, 71760, Note_on_c, 0, 62, 100
2, 71880, Note_on_c, 0, 62, 0
2, 71880, Note_on_c, 0, 63, 100
2, 72000, Note_on_c, 0, 63, 0
2, 72000, Note_on_c, 0, 59, 100
2, 72360, Note_on_c, 0, 59, 0
2, 72360, Note_on_c, 0, 56, 100
2, 72480, Note_on_c, 0, 56, 0
2, 72480, Note_on_c, 0, 55, 100
2, 72840, Note_on_c, 0, 55, 0
2, 72840, Note_on_c, 0, 53, 100
2, 72960, Note_on_c, 0, 53, 0
2, 72960, Note_on_c, 0, 51, 100
2, 73320, Note_on_c, 0, 51, 0
2, 73320, Note_on_c, 0, 55, 100
2, 73440, Note_on_c, 0, 55, 0
2, 73440, Note_on_c, 0, 60, 100
2, 73560, Note_on_c, 0, 60, 0
2, 73560, Note_on_c, 0, 50, 100
2, 73680, Note_on_c, 0, 50, 0
2, 73680, Note_on_c, 0, 51, 100
2, 73800, Note_on_c, 0, 51, 0
2, 73800, Note_on_c, 0, 53, 100
2, 73920, Note_on_c, 0, 53, 0
2, 73920, Note_on_c, 0, 47, 100
2, 74280, Note_on_c, 0, 47, 0
2, 74280, Note_on_c, 0, 55, 100
2, 74400, Note_on_c, 0, 55, 0
2, 74400, Note_on_c, 0, 62, 100
2, 74760, Note_on_c, 0, 62, 0
2, 74760, Note_on_c, 0, 63, 100
2, 74820, Note_on_c, 0, 63, 0
2, 74820, Note_on_c, 0, 65, 100
2, 74880, Note_on_c, 0, 65, 0
2, 74880, Note_on_c, 0, 63, 100
2, 75360, Note_on_c, 0, 63, 0
2, 75360, Note_on_c, 0, 36, 100
2, 75720, Note_on_c, 0, 36, 0
2, 75720, Note_on_c, 0, 62, 100
2, 75840, Note_on_c, 0, 62, 0
2, 75840, Note_on_c, 0, 60, 100
2, 76200, Note_on_c, 0, 60, 0
2, 76200, Note_on_c, 0, 58, 100
2, 76260, Note_on_c, 0, 58, 0
2, 76260, Note_on_c, 0, 57, 100
2, 76320, Note_on_c, 0, 57, 0
2, 76320, Note_on_c, 0, 58, 100
2, 76680, Note_on_c, 0, 58, 0
2, 76680, Note_on_c, 0, 60, 100
2, 76800, Note_on_c, 0, 60, 0
2, 76800, Note_on_c, 0, 57, 100
2, 77400, Note_on_c, 0, 57, 0
2, 77400, Note_on_c, 0, 57, 100
2, 77520, Note_on_c, 0, 57, 0
2, 77520, Note_on_c, 0, 58, 100
2, 77640, Note_on_c, 0, 58, 0
2, 77640, Note_on_c, 0, 60, 100
2, 77760, Note_on_c, 0, 60, 0
2, 77760, Note_on_c, 0, 53, 100
2, 78120, Note_on_c, 0, 53, 0
2, 78120, Note_on_c, 0, 55, 100
2, 78180, Note_on_c, 0, 55, 0
2, 78180, Note_on_c, 0, 57, 100
2, 78240, Note_on_c, 0, 57, 0
2, 78240, Note_on_c, 0, 57, 100
2, 78600, Note_on_c, 0, 57, 0
2, 78600, Note_on_c, 0, 55, 100
2, 78660, Note_on_c, 0, 55, 0
2, 78660, Note_on_c, 0, 57, 100
2, 78720, Note_on_c, 0, 57, 0
2, 78720, Note_on_c, 0, 58, 100
2, 79200, Note_on_c, 0, 58, 0
2, 79200, Note_on_c, 0, 38, 100
2, 79320, Note_on_c, 0, 38, 0
2, 79320, Note_on_c, 0, 58, 100
2, 79440, Note_on_c, 0, 58, 0
2, 79440, Note_on_c, 0, 56, 100
2, 79560, Note_on_c, 0, 56, 0
2, 79560, Note_on_c, 0, 55, 100
2, 79680, Note_on_c, 0, 55, 0
2, 79680, Note_on_c, 0, 53, 100
2, 80040, Note_on_c, 0, 53, 0
2, 80040, Note_on_c, 0, 51, 100
2, 80160, Note_on_c, 0, 51, 0
2, 80160, Note_on_c, 0, 53, 100
2, 80520, Note_on_c, 0, 53, 0
2, 80520, Note_on_c, 0, 55, 100
2, 80640, Note_on_c, 0, 55, 0
2, 80640, Note_on_c, 0, 56, 100
2, 81120, Note_on_c, 0, 56, 0
2, 81600, Note_on_c, 0, 56, 100
2, 82080, Note_on_c, 0, 56, 0
2, 82560, Note_on_c, 0, 46, 100
2, 82560, Note_on_c, 0, 56, 100
2, 83040, Note_on_c, 0, 56, 0
2, 83040, Note_on_c, 0, 46, 0
2, 83520, Note_on_c, 0, 51, 100
2, 83760, Note_on_c, 0, 51, 0
2, 86400, Note_on_c, 0, 46, 100
2, 87000, Note_on_c, 0, 46, 0
2, 87000, Note_on_c, 0, 46, 100
2, 87120, Note_on_c, 0, 46, 0
2, 87120, Note_on_c, 0, 44, 100
2, 87240, Note_on_c, 0, 44, 0
2, 87240, Note_on_c, 0, 43, 100
2, 87360, Note_on_c, 0, 43, 0
2, 87360, Note_on_c, 0, 44, 100
2, 87720, Note_on_c, 0, 44, 0
2, 87720, Note_on_c, 0, 53, 100
2, 87840, Note_on_c, 0, 53, 0
2, 87840, Note_on_c, 0, 55, 100
2, 88200, Note_on_c, 0, 55, 0
2, 88200, Note_on_c, 0, 56, 100
2, 88320, Note_on_c, 0, 56, 0
2, 88320, Note_on_c, 0, 52, 100
2, 88680, Note_on_c, 0, 52, 0
2, 88680, Note_on_c, 0, 58, 100
2, 88800, Note_on_c, 0, 58, 0
2, 88800, Note_on_c, 0, 56, 100
2, 89040, Note_on_c, 0, 56, 0
2, 89040, Note_on_c, 0, 58, 100
2, 89160, Note_on_c, 0, 58, 0
2, 89160, Note_on_c, 0, 55, 100
2, 89280, Note_on_c, 0, 55, 0
2, 89280, Note_on_c, 0, 55, 100
2, 90000, Note_on_c, 0, 55, 0
2, 90000, Note_on_c, 0, 53, 100
2, 90240, Note_on_c, 0, 53, 0
2, 90240, Note_on_c, 0, 53, 100
2, 90840, Note_on_c, 0, 53, 0
2, 90840, Note_on_c, 0, 53, 100
2, 90960, Note_on_c, 0, 53, 0
2, 90960, Note_on_c, 0, 51, 100
2, 91080, Note_on_c, 0, 51, 0
2, 91080, Note_on_c, 0, 50, 100
2, 91200, Note_on_c, 0, 50, 0
2, 91200, Note_on_c, 0, 51, 100
2, 91560, Note_on_c, 0, 51, 0
2, 91560, Note_on_c, 0, 60, 100
2, 91680, Note_on_c, 0, 60, 0
2, 91680, Note_on_c, 0, 58, 100
2, 91800, Note_on_c, 0, 58, 0
2, 91800, Note_on_c, 0, 57, 100
2, 91920, Note_on_c, 0, 57, 0
2, 91920, Note_on_c, 0, 55, 100
2, 92040, Note_on_c, 0, 55, 0
2, 92040, Note_on_c, 0, 53, 100
2, 92160, Note_on_c, 0, 53, 0
2, 92160, Note_on_c, 0, 58, 100
2, 92520, Note_on_c, 0, 58, 0
2, 92520, Note_on_c, 0, 56, 100
2, 92580, Note_on_c, 0, 56, 0
2, 92580, Note_on_c, 0, 55, 100
2, 92640, Note_on_c, 0, 55, 0
2, 92640, Note_on_c, 0, 53, 100
2, 93000, Note_on_c, 0, 53, 0
2, 93000, Note_on_c, 0, 55, 100
2, 93120, Note_on_c, 0, 55, 0
2, 93120, Note_on_c, 0, 56, 100
2, 93480, Note_on_c, 0, 56, 0
2, 93480, Note_on_c, 0, 55, 100
2, 93600, Note_on_c, 0, 55, 0
2, 93600, Note_on_c, 0, 53, 100
2, 93720, Note_on_c, 0, 53, 0
2, 93720, Note_on_c, 0, 51, 100
2, 93840, Note_on_c, 0, 51, 0
2, 93840, Note_on_c, 0, 50, 100
2, 93960, Note_on_c, 0, 50, 0
2, 93960, Note_on_c, 0, 51, 100
2, 94020, Note_on_c, 0, 51, 0
2, 94020, Note_on_c, 0, 53, 100
2, 94080, Note_on_c, 0, 53, 0
2, 94080, Note_on_c, 0, 47, 100
2, 94440, Note_on_c, 0, 47, 0
2, 94440, Note_on_c, 0, 55, 100
2, 94560, Note_on_c, 0, 55, 0
2, 94560, Note_on_c, 0, 62, 100
2, 94800, Note_on_c, 0, 62, 0
2, 94800, Note_on_c, 0, 63, 100
2, 94860, Note_on_c, 0, 63, 0
2, 94860, Note_on_c, 0, 62, 100
2, 94920, Note_on_c, 0, 62, 0
2, 94920, Note_on_c, 0, 60, 100
2, 94980, Note_on_c, 0, 60, 0
2, 94980, Note_on_c, 0, 62, 100
2, 95040, Note_on_c, 0, 62, 0
2, 95040, Note_on_c, 0, 63, 100
2, 95400, Note_on_c, 0, 63, 0
2, 95400, Note_on_c, 0, 48, 100
2, 95520, Note_on_c, 0, 48, 0
2, 95520, Note_on_c, 0, 43, 100
2, 95880, Note_on_c, 0, 43, 0
2, 95880, Note_on_c, 0, 44, 100
2, 95940, Note_on_c, 0, 44, 0
2, 95940, Note_on_c, 0, 46, 100
2, 96000, Note_on_c, 0, 46, 0
2, 96000, Note_on_c, 0, 44, 100
2, 96360, Note_on_c, 0, 44, 0
2, 96360, Note_on_c, 0, 55, 100
2, 96480, Note_on_c, 0, 55, 0
2, 96480, Note_on_c, 0, 53, 100
2, 96840, Note_on_c, 0, 53, 0
2, 96840, Note_on_c, 0, 63, 100
2, 96960, Note_on_c, 0, 63, 0
2, 96960, Note_on_c, 0, 62, 100
2, 97320, Note_on_c, 0, 62, 0
2, 97320, Note_on_c, 0, 60, 100
2, 97440, Note_on_c, 0, 60, 0
2, 97440, Note_on_c, 0, 62, 100
2, 97560, Note_on_c, 0, 62, 0
2, 97560, Note_on_c, 0, 59, 100
2, 97680, Note_on_c, 0, 59, 0
2, 97680, Note_on_c, 0, 60, 100
2, 97920, Note_on_c, 0, 60, 0
2, 97920, Note_on_c, 0, 59, 100
2, 98160, Note_on_c, 0, 59, 0
2, 102720, Note_on_c, 0, 50, 100
2, 103680, Note_on_c, 0, 50, 0
2, 105480, Note_on_c, 0, 62, 100
2, 105600, Note_on_c, 0, 62, 0
2, 105600, Note_on_c, 0, 62, 100
2, 106200, Note_on_c, 0, 62, 0
2, 106200, Note_on_c, 0, 60, 100
2, 106320, Note_on_c, 0, 60, 0
2, 106320, Note_on_c, 0, 62, 100
2, 106440, Note_on_c, 0, 62, 0
2, 106440, Note_on_c, 0, 63, 100
2, 106560, Note_on_c, 0, 63, 0
2, 106560, Note_on_c, 0, 59, 100
2, 106920, Note_on_c, 0, 59, 0
2, 106920, Note_on_c, 0, 56, 100
2, 107040, Note_on_c, 0, 56, 0
2, 107040, Note_on_c, 0, 55, 100
2, 107400, Note_on_c, 0, 55, 0
2, 107400, Note_on_c, 0, 53, 100
2, 107520, Note_on_c, 0, 53, 0
2, 107520, Note_on_c, 0, 51, 100
2, 107880, Note_on_c, 0, 51, 0
2, 107880, Note_on_c, 0, 55, 100
2, 108000, Note_on_c, 0, 55, 0
2, 108000, Note_on_c, 0, 60, 100
2, 108120, Note_on_c, 0, 60, 0
2, 108120, Note_on_c, 0, 50, 100
2, 108240, Note_on_c, 0, 50, 0
2, 108240, Note_on_c, 0, 51, 100
2, 108360, Note_on_c, 0, 51, 0
2, 108360, Note_on_c, 0, 53, 100
2, 108480, Note_on_c, 0, 53, 0
2, 108480, Note_on_c, 0, 47, 100
2, 108840, Note_on_c, 0, 47, 0
2, 108840, Note_on_c, 0, 55, 100
2, 108960, Note_on_c, 0, 55, 0
2, 108960, Note_on_c, 0, 62, 100
2, 109320, Note_on_c, 0, 62, 0
2, 109320, Note_on_c, 0, 63, 100
2, 109380, Note_on_c, 0, 63, 0
2, 109380, Note_on_c, 0, 65, 100
2, 109440, Note_on_c, 0, 65, 0
2, 109440, Note_on_c, 0, 63, 100
2, 109920, Note_on_c, 0, 63, 0
2, 109920, Note_on_c, 0, 36, 100
2, 110280, Note_on_c, 0, 36, 0
2, 110280, Note_on_c, 0, 62, 100
2, 110400, Note_on_c, 0, 62, 0
2, 110400, Note_on_c, 0, 60, 100
2, 110760, Note_on_c, 0, 60, 0
2, 110760, Note_on_c, 0, 58, 100
2, 110820, Note_on_c, 0, 58, 0
2, 110820, Note_on_c, 0, 57, 100
2, 110880, Note_on_c, 0, 57, 0
2, 110880, Note_on_c, 0, 58, 100
2, 111240, Note_on_c, 0, 58, 0
2, 111240, Note_on_c, 0, 60, 100
2, 111360, Note_on_c, 0, 60, 0
2, 111360, Note_on_c, 0, 57, 100
2, 111960, Note_on_c, 0, 57, 0
2, 111960, Note_on_c, 0, 57, 100
2, 112080, Note_on_c, 0, 57, 0
2, 112080, Note_on_c, 0, 58, 100
2, 112200, Note_on_c, 0, 58, 0
2, 112200, Note_on_c, 0, 60, 100
2, 112320, Note_on_c, 0, 60, 0
2, 112320, Note_on_c, 0, 53, 100
2, 112680, Note_on_c, 0, 53, 0
2, 112680, Note_on_c, 0, 55, 100
2, 112740, Note_on_c, 0, 55, 0
2, 112740, Note_on_c, 0, 57, 100
2, 112800, Note_on_c, 0, 57, 0
2, 112800, Note_on_c, 0, 57, 100
2, 113160, Note_on_c, 0, 57, 0
2, 113160, Note_on_c, 0, 55, 100
2, 113220, Note_on_c, 0, 55, 0
2, 113220, Note_on_c, 0, 57, 100
2, 113280, Note_on_c, 0, 57, 0
2, 113280, Note_on_c, 0, 58, 100
2, 113760, Note_on_c, 0, 58, 0
2, 113760, Note_on_c, 0, 38, 100
2, 113880, Note_on_c, 0, 38, 0
2, 113880, Note_on_c, 0, 58, 100
2, 114000, Note_on_c, 0, 58, 0
2, 114000, Note_on_c, 0, 56, 100
2, 114120, Note_on_c, 0, 56, 0
2, 114120, Note_on_c, 0, 55, 100
2, 114240, Note_on_c, 0, 55, 0
2, 114240, Note_on_c, 0, 53, 100
2, 114600, Note_on_c, 0, 53, 0
2, 114600, Note_on_c, 0, 51, 100
2, 114720, Note_on_c, 0, 51, 0
2, 114720, Note_on_c, 0, 53, 100
2, 115080, Note_on_c, 0, 53, 0
2, 115080, Note_on_c, 0, 55, 100
2, 115200, Note_on_c, 0, 55, 0
2, 115200, Note_on_c, 0, 56, 100
2, 115680, Note_on_c, 0, 56, 0
2, 116160, Note_on_c, 0, 56, 100
2, 116640, Note_on_c, 0, 56, 0
2, 117120, Note_on_c, 0, 46, 100
2, 117120, Note_on_c, 0, 56, 100
2, 117600, Note_on_c, 0, 56, 0
2, 117600, Note_on_c, 0, 46, 0
2, 118080, Note_on_c, 0, 51, 100
2, 118320, Note_on_c, 0, 51, 0
2, 120960, Note_on_c, 0, 46, 100
2, 121560, Note_on_c, 0, 46, 0
2, 121560, Note_on_c, 0, 46, 100
2, 121680, Note_on_c, 0, 46, 0
2, 121680, Note_on_c, 0, 44, 100
2, 121800, Note_on_c, 0, 44, 0
2, 121800, Note_on_c, 0, 43, 100
2, 121920, Note_on_c, 0, 43, 0
2, 121920, Note_on_c, 0, 44, 100
2, 122280, Note_on_c, 0, 44, 0
2, 122280, Note_on_c, 0, 53, 100
2, 122400, Note_on_c, 0, 53, 0
2, 122400, Note_on_c, 0, 55, 100
2, 122760, Note_on_c, 0, 55, 0
2, 122760, Note_on_c, 0, 56, 100
2, 122880, Note_on_c, 0, 56, 0
2, 122880, Note_on_c, 0, 52, 100
2, 123240, Note_on_c, 0, 52, 0
2, 123240, Note_on_c, 0, 58, 100
2, 123360, Note_on_c, 0, 58, 0
2, 123360, Note_on_c, 0, 56, 100
2, 123600, Note_on_c, 0, 56, 0
2, 123600, Note_on_c, 0, 58, 100
2, 123720, Note_on_c, 0, 58, 0
2, 123720, Note_on_c, 0, 55, 100
2, 123840, Note_on_c, 0, 55, 0
2, 123840, Note_on_c, 0, 55, 100
2, 124560, Note_on_c, 0, 55, 0
2, 124560, Note_on_c, 0, 53, 100
2, 124800, Note_on_c, 0, 53, 0
2, 124800, Note_on_c, 0, 53, 100
2, 125400, Note_on_c, 0, 53, 0
2, 125400, Note_on_c, 0, 53, 100
2, 125520, Note_on_c, 0, 53, 0
2, 125520, Note_on_c, 0, 51, 100
2, 125640, Note_on_c, 0, 51, 0
2, 125640, Note_on_c, 0, 50, 100
2, 125760, Note_on_c, 0, 50, 0
2, 125760, Note_on_c, 0, 51, 100
2, 126120, Note_on_c, 0, 51, 0
2, 126120, Note_on_c, 0, 60, 100
2, 126240, Note_on_c, 0, 60, 0
2, 126240, Note_on_c, 0, 58, 100
2, 126360, Note_on_c, 0, 58, 0
2, 126360, Note_on_c, 0, 57, 100
2, 126480, Note_on_c, 0, 57, 0
2, 126480, Note_on_c, 0, 55, 100
2, 126600, Note_on_c, 0, 55, 0
2, 126600, Note_on_c, 0, 53, 100
2, 126720, Note_on_c, 0, 53, 0
2, 126720, Note_on_c, 0, 58, 100
2, 127080, Note_on_c, 0, 58, 0
2, 127080, Note_on_c, 0, 56, 100
2, 127140, Note_on_c, 0, 56, 0
2, 127140, Note_on_c, 0, 55, 100
2, 127200, Note_on_c, 0, 55, 0
2, 127200, Note_on_c, 0, 53, 100
2, 127560, Note_on_c, 0, 53, 0
2, 127560, Note_on_c, 0, 55, 100
2, 127680, Note_on_c, 0, 55, 0
2, 127680, Note_on_c, 0, 56, 100
2, 128040, Note_on_c, 0, 56, 0
2, 128040, Note_on_c, 0, 55, 100
2, 128160, Note_on_c, 0, 55, 0
2, 128160, Note_on_c, 0, 53, 100
2, 128280, Note_on_c, 0, 53, 0
2, 128280, Note_on_c, 0, 51, 100
2, 128400, Note_on_c, 0, 51, 0
2, 128400, Note_on_c, 0, 50, 100
2, 128520, Note_on_c, 0, 50, 0
2, 128520, Note_on_c, 0, 51, 100
2, 128580, Note_on_c, 0, 51, 0
2, 128580, Note_on_c, 0, 53, 100
2, 128640, Note_on_c, 0, 53, 0
2, 128640, Note_on_c, 0, 47, 100
2, 129000, Note_on_c, 0, 47, 0
2, 129000, Note_on_c, 0, 55, 100
2, 129120, Note_on_c, 0, 55, 0
2, 129120, Note_on_c, 0, 62, 100
2, 129360, Note_on_c, 0, 62, 0
2, 129360, Note_on_c, 0, 63, 100
2, 129420, Note_on_c, 0, 63, 0
2, 129420, Note_on_c, 0, 62, 100
2, 129480, Note_on_c, 0, 62, 0
2, 129480, Note_on_c, 0, 60, 100
2, 129540, Note_on_c, 0, 60, 0
2, 129540, Note_on_c, 0, 62, 100
2, 129600, Note_on_c, 0, 62, 0
2, 129600, Note_on_c, 0, 63, 100
2, 129960, Note_on_c, 0, 63, 0
2, 129960, Note_on_c, 0, 48, 100
2, 130080, Note_on_c, 0, 48, 0
2, 130080, Note_on_c, 0, 43, 100
2, 130440, Note_on_c, 0, 43, 0
2, 130440, Note_on_c, 0, 44, 100
2, 130500, Note_on_c, 0, 44, 0
2, 130500, Note_on_c, 0, 46, 100
2, 130560, Note_on_c, 0, 46, 0
2, 130560, Note_on_c, 0, 44, 100
2, 130920, Note_on_c, 0, 44, 0
2, 130920, Note_on_c, 0, 55, 100
2, 131040, Note_on_c, 0, 55, 0
2, 131040, Note_on_c, 0, 53, 100
2, 131400, Note_on_c, 0, 53, 0
2, 131400, Note_on_c, 0, 63, 100
2, 131520, Note_on_c, 0, 63, 0
2, 131520, Note_on_c, 0, 62, 100
2, 131880, Note_on_c, 0, 62, 0
2, 131880, Note_on_c, 0, 60, 100
2, 132000, Note_on_c, 0, 60, 0
2, 132000, Note_on_c, 0, 62, 100
2, 132120, Note_on_c, 0, 62, 0
2, 132120, Note_on_c, 0, 59, 100
2, 132240, Note_on_c, 0, 59, 0
2, 132240, Note_on_c, 0, 60, 100
2, 132480, Note_on_c, 0, 60, 0
2, 132480, Note_on_c, 0, 59, 100
2, 132720, Note_on_c, 0, 59, 0
2, 137280, Note_on_c, 0, 50, 100
2, 138240, Note_on_c, 0, 50, 0
2, 138240, End_track
3, 0, Start_track
3, 0, MIDI_port, 0
3, 0, Title_t, "--------------------------------------"
3, 0, Program_c, 1, 42
3, 0, Control_c, 1, 7, 100
3, 0, Control_c, 1, 10, 69
3, 1920, Note_on_c, 1, 36, 100
3, 1920, Note_on_c, 1, 43, 100
3, 1920, Note_on_c, 1, 51, 100
3, 2400, Note_on_c, 1, 51, 0
3, 2400, Note_on_c, 1, 43, 0
3, 2400, Note_on_c, 1, 36, 0
3, 3360, Note_on_c, 1, 47, 100
3, 3840, Note_on_c, 1, 47, 0
3, 3840, Note_on_c, 1, 48, 100
3, 4440, Note_on_c, 1, 48, 0
3, 4440, Note_on_c, 1, 46, 100
3, 4560, Note_on_c, 1, 46, 0
3, 4560, Note_on_c, 1, 44, 100
3, 4680, Note_on_c, 1, 44, 0
3, 4680, Note_on_c, 1, 43, 100
3, 4800, Note_on_c, 1, 43, 0
3, 4800, Note_on_c, 1, 44, 100
3, 5160, Note_on_c, 1, 44, 0
3, 5160, Note_on_c, 1, 41, 100
3, 5280, Note_on_c, 1, 41, 0
3, 5280, Note_on_c, 1, 43, 100
3, 5640, Note_on_c, 1, 43, 0
3, 5640, Note_on_c, 1, 50, 100
3, 5760, Note_on_c, 1, 50, 0
3, 5760, Note_on_c, 1, 50, 100
3, 6120, Note_on_c, 1, 50, 0
3, 6120, Note_on_c, 1, 48, 100
3, 6180, Note_on_c, 1, 48, 0
3, 6180, Note_on_c, 1, 47, 100
3, 6240, Note_on_c, 1, 47, 0
3, 6240, Note_on_c, 1, 48, 100
3, 6600, Note_on_c, 1, 48, 0
3, 6600, Note_on_c, 1, 55, 100
3, 6720, Note_on_c, 1, 55, 0
3, 6720, Note_on_c, 1, 44, 100
3, 7080, Note_on_c, 1, 44, 0
3, 7080, Note_on_c, 1, 55, 100
3, 7200, Note_on_c, 1, 55, 0
3, 7200, Note_on_c, 1, 53, 100
3, 7320, Note_on_c, 1, 53, 0
3, 7320, Note_on_c, 1, 51, 100
3, 7440, Note_on_c, 1, 51, 0
3, 7440, Note_on_c, 1, 50, 100
3, 7560, Note_on_c, 1, 50, 0
3, 7560, Note_on_c, 1, 48, 100
3, 7680, Note_on_c, 1, 48, 0
3, 7680, Note_on_c, 1, 47, 100
3, 8040, Note_on_c, 1, 47, 0
3, 8040, Note_on_c, 1, 44, 100
3, 8160, Note_on_c, 1, 44, 0
3, 8160, Note_on_c, 1, 43, 100
3, 8280, Note_on_c, 1, 43, 0
3, 8280, Note_on_c, 1, 47, 100
3, 8400, Note_on_c, 1, 47, 0
3, 8400, Note_on_c, 1, 50, 100
3, 8520, Note_on_c, 1, 50, 0
3, 8520, Note_on_c, 1, 53, 100
3, 8640, Note_on_c, 1, 53, 0
3, 8640, Note_on_c, 1, 56, 100
3, 9000, Note_on_c, 1, 56, 0
3, 9000, Note_on_c, 1, 55, 100
3, 9120, Note_on_c, 1, 55, 0
3, 9120, Note_on_c, 1, 53, 100
3, 9240, Note_on_c, 1, 53, 0
3, 9240, Note_on_c, 1, 51, 100
3, 9360, Note_on_c, 1, 51, 0
3, 9360, Note_on_c, 1, 53, 100
3, 9480, Note_on_c, 1, 53, 0
3, 9480, Note_on_c, 1, 50, 100
3, 9600, Note_on_c, 1, 50, 0
3, 9600, Note_on_c, 1, 51, 100
3, 9960, Note_on_c, 1, 51, 0
3, 9960, Note_on_c, 1, 50, 100
3, 10080, Note_on_c, 1, 50, 0
3, 10080, Note_on_c, 1, 48, 100
3, 10200, Note_on_c, 1, 48, 0
3, 10200, Note_on_c, 1, 47, 100
3, 10320, Note_on_c, 1, 47, 0
3, 10320, Note_on_c, 1, 48, 100
3, 10440, Note_on_c, 1, 48, 0
3, 10440, Note_on_c, 1, 50, 100
3, 10560, Note_on_c, 1, 50, 0
3, 10560, Note_on_c, 1, 51, 100
3, 10680, Note_on_c, 1, 51, 0
3, 10680, Note_on_c, 1, 50, 100
3, 10800, Note_on_c, 1, 50, 0
3, 10800, Note_on_c, 1, 51, 100
3, 10920, Note_on_c, 1, 51, 0
3, 10920, Note_on_c, 1, 53, 100
3, 11040, Note_on_c, 1, 53, 0
3, 11040, Note_on_c, 1, 55, 100
3, 11160, Note_on_c, 1, 55, 0
3, 11160, Note_on_c, 1, 53, 100
3, 11280, Note_on_c, 1, 53, 0
3, 11280, Note_on_c, 1, 55, 100
3, 11400, Note_on_c, 1, 55, 0
3, 11400, Note_on_c, 1, 56, 100
3, 11520, Note_on_c, 1, 56, 0
3, 11520, Note_on_c, 1, 58, 100
3, 12120, Note_on_c, 1, 58, 0
3, 12120, Note_on_c, 1, 56, 100
3, 12240, Note_on_c, 1, 56, 0
3, 12240, Note_on_c, 1, 55, 100
3, 12360, Note_on_c, 1, 55, 0
3, 12360, Note_on_c, 1, 53, 100
3, 12480, Note_on_c, 1, 53, 0
3, 12480, Note_on_c, 1, 55, 100
3, 12840, Note_on_c, 1, 55, 0
3, 12840, Note_on_c, 1, 53, 100
3, 12900, Note_on_c, 1, 53, 0
3, 12900, Note_on_c, 1, 51, 100
3, 12960, Note_on_c, 1, 51, 0
3, 12960, Note_on_c, 1, 61, 100
3, 13320, Note_on_c, 1, 61, 0
3, 13320, Note_on_c, 1, 58, 100
3, 13440, Note_on_c, 1, 58, 0
3, 13440, Note_on_c, 1, 60, 100
3, 14040, Note_on_c, 1, 60, 0
3, 14040, Note_on_c, 1, 58, 100
3, 14160, Note_on_c, 1, 58, 0
3, 14160, Note_on_c, 1, 56, 100
3, 14280, Note_on_c, 1, 56, 0
3, 14280, Note_on_c, 1, 55, 100
3, 14400, Note_on_c, 1, 55, 0
3, 14400, Note_on_c, 1, 56, 100
3, 14760, Note_on_c, 1, 56, 0
3, 14760, Note_on_c, 1, 60, 100
3, 14880, Note_on_c, 1, 60, 0
3, 14880, Note_on_c, 1, 52, 100
3, 15240, Note_on_c, 1, 52, 0
3, 15240, Note_on_c, 1, 53, 100
3, 15360, Note_on_c, 1, 53, 0
3, 15360, Note_on_c, 1, 55, 100
3, 15960, Note_on_c, 1, 55, 0
3, 15960, Note_on_c, 1, 53, 100
3, 16080, Note_on_c, 1, 53, 0
3, 16080, Note_on_c, 1, 52, 100
3, 16200, Note_on_c, 1, 52, 0
3, 16200, Note_on_c, 1, 53, 100
3, 16260, Note_on_c, 1, 53, 0
3, 16260, Note_on_c, 1, 55, 100
3, 16320, Note_on_c, 1, 55, 0
3, 16320, Note_on_c, 1, 48, 100
3, 16680, Note_on_c, 1, 48, 0
3, 16680, Note_on_c, 1, 58, 100
3, 16800, Note_on_c, 1, 58, 0
3, 16800, Note_on_c, 1, 56, 100
3, 17160, Note_on_c, 1, 56, 0
3, 17160, Note_on_c, 1, 58, 100
3, 17220, Note_on_c, 1, 58, 0
3, 17220, Note_on_c, 1, 55, 100
3, 17280, Note_on_c, 1, 55, 0
3, 17280, Note_on_c, 1, 56, 100
3, 18000, Note_on_c, 1, 56, 0
3, 18000, Note_on_c, 1, 60, 100
3, 18120, Note_on_c, 1, 60, 0
3, 18120, Note_on_c, 1, 58, 100
3, 18240, Note_on_c, 1, 58, 0
3, 18240, Note_on_c, 1, 56, 100
3, 18360, Note_on_c, 1, 56, 0
3, 18360, Note_on_c, 1, 55, 100
3, 18480, Note_on_c, 1, 55, 0
3, 18480, Note_on_c, 1, 53, 100
3, 18600, Note_on_c, 1, 53, 0
3, 18600, Note_on_c, 1, 51, 100
3, 18720, Note_on_c, 1, 51, 0
3, 18720, Note_on_c, 1, 50, 100
3, 18840, Note_on_c, 1, 50, 0
3, 18840, Note_on_c, 1, 51, 100
3, 18960, Note_on_c, 1, 51, 0
3, 18960, Note_on_c, 1, 53, 100
3, 19080, Note_on_c, 1, 53, 0
3, 19080, Note_on_c, 1, 50, 100
3, 19200, Note_on_c, 1, 50, 0
3, 19200, Note_on_c, 1, 44, 100
3, 19800, Note_on_c, 1, 44, 0
3, 19800, Note_on_c, 1, 53, 100
3, 19920, Note_on_c, 1, 53, 0
3, 19920, Note_on_c, 1, 51, 100
3, 20040, Note_on_c, 1, 51, 0
3, 20040, Note_on_c, 1, 50, 100
3, 20160, Note_on_c, 1, 50, 0
3, 20160, Note_on_c, 1, 48, 100
3, 20280, Note_on_c, 1, 48, 0
3, 20280, Note_on_c, 1, 46, 100
3, 20400, Note_on_c, 1, 46, 0
3, 20400, Note_on_c, 1, 44, 100
3, 20520, Note_on_c, 1, 44, 0
3, 20520, Note_on_c, 1, 43, 100
3, 20640, Note_on_c, 1, 43, 0
3, 20640, Note_on_c, 1, 41, 100
3, 20760, Note_on_c, 1, 41, 0
3, 20760, Note_on_c, 1, 43, 100
3, 20880, Note_on_c, 1, 43, 0
3, 20880, Note_on_c, 1, 44, 100
3, 21000, Note_on_c, 1, 44, 0
3, 21000, Note_on_c, 1, 41, 100
3, 21120, Note_on_c, 1, 41, 0
3, 21120, Note_on_c, 1, 38, 100
3, 21120, Note_on_c, 1, 46, 100
3, 21600, Note_on_c, 1, 46, 0
3, 21600, Note_on_c, 1, 38, 0
3, 23040, Note_on_c, 1, 56, 100
3, 23520, Note_on_c, 1, 56, 0
3, 24960, Note_on_c, 1, 51, 100
3, 25440, Note_on_c, 1, 51, 0
3, 25920, Note_on_c, 1, 47, 100
3, 26400, Note_on_c, 1, 47, 0
3, 26880, Note_on_c, 1, 48, 100
3, 27360, Note_on_c, 1, 48, 0
3, 27360, Note_on_c, 1, 36, 100
3, 27720, Note_on_c, 1, 36, 0
3, 27720, Note_on_c, 1, 58, 100
3, 27840, Note_on_c, 1, 58, 0
3, 27840, Note_on_c, 1, 57, 100
3, 28320, Note_on_c, 1, 57, 0
3, 28320, Note_on_c, 1, 55, 100
3, 28440, Note_on_c, 1, 55, 0
3, 28440, Note_on_c, 1, 54, 100
3, 28560, Note_on_c, 1, 54, 0
3, 28560, Note_on_c, 1, 55, 100
3, 28800, Note_on_c, 1, 55, 0
3, 28800, Note_on_c, 1, 54, 100
3, 28800, Note_on_c, 1, 36, 100
3, 28800, Note_on_c, 1, 45, 100
3, 29280, Note_on_c, 1, 45, 0
3, 29280, Note_on_c, 1, 36, 0
3, 29280, Note_on_c, 1, 54, 0
3, 32640, Note_on_c, 1, 46, 100
3, 33120, Note_on_c, 1, 46, 0
3, 33120, Note_on_c, 1, 48, 100
3, 33240, Note_on_c, 1, 48, 0
3, 33240, Note_on_c, 1, 57, 100
3, 33360, Note_on_c, 1, 57, 0
3, 33360, Note_on_c, 1, 55, 100
3, 33480, Note_on_c, 1, 55, 0
3, 33480, Note_on_c, 1, 57, 100
3, 33600, Note_on_c, 1, 57, 0
3, 33600, Note_on_c, 1, 57, 100
3, 34320, Note_on_c, 1, 57, 0
3, 34320, Note_on_c, 1, 55, 100
3, 34560, Note_on_c, 1, 55, 0
3, 34560, Note_on_c, 1, 55, 100
3, 34920, Note_on_c, 1, 55, 0
3, 34920, Note_on_c, 1, 50, 100
3, 35040, Note_on_c, 1, 50, 0
3, 35040, Note_on_c, 1, 47, 100
3, 35400, Note_on_c, 1, 47, 0
3, 35400, Note_on_c, 1, 50, 100
3, 35520, Note_on_c, 1, 50, 0
3, 35520, Note_on_c, 1, 43, 100
3, 36240, Note_on_c, 1, 43, 0
3, 36480, Note_on_c, 1, 36, 100
3, 36480, Note_on_c, 1, 43, 100
3, 36480, Note_on_c, 1, 51, 100
3, 36960, Note_on_c, 1, 51, 0
3, 36960, Note_on_c, 1, 43, 0
3, 36960, Note_on_c, 1, 36, 0
3, 37920, Note_on_c, 1, 47, 100
3, 38400, Note_on_c, 1, 47, 0
3, 38400, Note_on_c, 1, 48, 100
3, 39000, Note_on_c, 1, 48, 0
3, 39000, Note_on_c, 1, 46, 100
3, 39120, Note_on_c, 1, 46, 0
3, 39120, Note_on_c, 1, 44, 100
3, 39240, Note_on_c, 1, 44, 0
3, 39240, Note_on_c, 1, 43, 100
3, 39360, Note_on_c, 1, 43, 0
3, 39360, Note_on_c, 1, 44, 100
3, 39720, Note_on_c, 1, 44, 0
3, 39720, Note_on_c, 1, 41, 100
3, 39840, Note_on_c, 1, 41, 0
3, 39840, Note_on_c, 1, 43, 100
3, 40200, Note_on_c, 1, 43, 0
3, 40200, Note_on_c, 1, 50, 100
3, 40320, Note_on_c, 1, 50, 0
3, 40320, Note_on_c, 1, 50, 100
3, 40680, Note_on_c, 1, 50, 0
3, 40680, Note_on_c, 1, 48, 100
3, 40740, Note_on_c, 1, 48, 0
3, 40740, Note_on_c, 1, 47, 100
3, 40800, Note_on_c, 1, 47, 0
3, 40800, Note_on_c, 1, 48, 100
3, 41160, Note_on_c, 1, 48, 0
3, 41160, Note_on_c, 1, 55, 100
3, 41280, Note_on_c, 1, 55, 0
3, 41280, Note_on_c, 1, 44, 100
3, 41640, Note_on_c, 1, 44, 0
3, 41640, Note_on_c, 1, 55, 100
3, 41760, Note_on_c, 1, 55, 0
3, 41760, Note_on_c, 1, 53, 100
3, 41880, Note_on_c, 1, 53, 0
3, 41880, Note_on_c, 1, 51, 100
3, 42000, Note_on_c, 1, 51, 0
3, 42000, Note_on_c, 1, 50, 100
3, 42120, Note_on_c, 1, 50, 0
3, 42120, Note_on_c, 1, 48, 100
3, 42240, Note_on_c, 1, 48, 0
3, 42240, Note_on_c, 1, 47, 100
3, 42600, Note_on_c, 1, 47, 0
3, 42600, Note_on_c, 1, 44, 100
3, 42720, Note_on_c, 1, 44, 0
3, 42720, Note_on_c, 1, 43, 100
3, 42840, Note_on_c, 1, 43, 0
3, 42840, Note_on_c, 1, 47, 100
3, 42960, Note_on_c, 1, 47, 0
3, 42960, Note_on_c, 1, 50, 100
3, 43080, Note_on_c, 1, 50, 0
3, 43080, Note_on_c, 1, 53, 100
3, 43200, Note_on_c, 1, 53, 0
3, 43200, Note_on_c, 1, 56, 100
3, 43560, Note_on_c, 1, 56, 0
3, 43560, Note_on_c, 1, 55, 100
3, 43680, Note_on_c, 1, 55, 0
3, 43680, Note_on_c, 1, 53, 100
3, 43800, Note_on_c, 1, 53, 0
3, 43800, Note_on_c, 1, 51, 100
3, 43920, Note_on_c, 1, 51, 0
3, 43920, Note_on_c, 1, 53, 100
3, 44040, Note_on_c, 1, 53, 0
3, 44040, Note_on_c, 1, 50, 100
3, 44160, Note_on_c, 1, 50, 0
3, 44160, Note_on_c, 1, 51, 100
3, 44520, Note_on_c, 1, 51, 0
3, 44520, Note_on_c, 1, 50, 100
3, 44640, Note_on_c, 1, 50, 0
3, 44640, Note_on_c, 1, 48, 100
3, 44760, Note_on_c, 1, 48, 0
3, 44760, Note_on_c, 1, 47, 100
3, 44880, Note_on_c, 1, 47, 0
3, 44880, Note_on_c, 1, 48, 100
3, 45000, Note_on_c, 1, 48, 0
3, 45000, Note_on_c, 1, 50, 100
3, 45120, Note_on_c, 1, 50, 0
3, 45120, Note_on_c, 1, 51, 100
3, 45240, Note_on_c, 1, 51, 0
3, 45240, Note_on_c, 1, 50, 100
3, 45360, Note_on_c, 1, 50, 0
3, 45360, Note_on_c, 1, 51, 100
3, 45480, Note_on_c, 1, 51, 0
3, 45480, Note_on_c, 1, 53, 100
3, 45600, Note_on_c, 1, 53, 0
3, 45600, Note_on_c, 1, 55, 100
3, 45720, Note_on_c, 1, 55, 0
3, 45720, Note_on_c, 1, 53, 100
3, 45840, Note_on_c, 1, 53, 0
3, 45840, Note_on_c, 1, 55, 100
3, 45960, Note_on_c, 1, 55, 0
3, 45960, Note_on_c, 1, 56, 100
3, 46080, Note_on_c, 1, 56, 0
3, 46080, Note_on_c, 1, 58, 100
3, 46680, Note_on_c, 1, 58, 0
3, 46680, Note_on_c, 1, 56, 100
3, 46800, Note_on_c, 1, 56, 0
3, 46800, Note_on_c, 1, 55, 100
3, 46920, Note_on_c, 1, 55, 0
3, 46920, Note_on_c, 1, 53, 100
3, 47040, Note_on_c, 1, 53, 0
3, 47040, Note_on_c, 1, 55, 100
3, 47400, Note_on_c, 1, 55, 0
3, 47400, Note_on_c, 1, 53, 100
3, 47460, Note_on_c, 1, 53, 0
3, 47460, Note_on_c, 1, 51, 100
3, 47520, Note_on_c, 1, 51, 0
3, 47520, Note_on_c, 1, 61, 100
3, 47880, Note_on_c, 1, 61, 0
3, 47880, Note_on_c, 1, 58, 100
3, 48000, Note_on_c, 1, 58, 0
3, 48000, Note_on_c, 1, 60, 100
3, 48600, Note_on_c, 1, 60, 0
3, 48600, Note_on_c, 1, 58, 100
3, 48720, Note_on_c, 1, 58, 0
3, 48720, Note_on_c, 1, 56, 100
3, 48840, Note_on_c, 1, 56, 0
3, 48840, Note_on_c, 1, 55, 100
3, 48960, Note_on_c, 1, 55, 0
3, 48960, Note_on_c, 1, 56, 100
3, 49320, Note_on_c, 1, 56, 0
3, 49320, Note_on_c, 1, 60, 100
3, 49440, Note_on_c, 1, 60, 0
3, 49440, Note_on_c, 1, 52, 100
3, 49800, Note_on_c, 1, 52, 0
3, 49800, Note_on_c, 1, 53, 100
3, 49920, Note_on_c, 1, 53, 0
3, 49920, Note_on_c, 1, 55, 100
3, 50520, Note_on_c, 1, 55, 0
3, 50520, Note_on_c, 1, 53, 100
3, 50640, Note_on_c, 1, 53, 0
3, 50640, Note_on_c, 1, 52, 100
3, 50760, Note_on_c, 1, 52, 0
3, 50760, Note_on_c, 1, 53, 100
3, 50820, Note_on_c, 1, 53, 0
3, 50820, Note_on_c, 1, 55, 100
3, 50880, Note_on_c, 1, 55, 0
3, 50880, Note_on_c, 1, 48, 100
3, 51240, Note_on_c, 1, 48, 0
3, 51240, Note_on_c, 1, 58, 100
3, 51360, Note_on_c, 1, 58, 0
3, 51360, Note_on_c, 1, 56, 100
3, 51720, Note_on_c, 1, 56, 0
3, 51720, Note_on_c, 1, 58, 100
3, 51780, Note_on_c, 1, 58, 0
3, 51780, Note_on_c, 1, 55, 100
3, 51840, Note_on_c, 1, 55, 0
3, 51840, Note_on_c, 1, 56, 100
3, 52560, Note_on_c, 1, 56, 0
3, 52560, Note_on_c, 1, 60, 100
3, 52680, Note_on_c, 1, 60, 0
3, 52680, Note_on_c, 1, 58, 100
3, 52800, Note_on_c, 1, 58, 0
3, 52800, Note_on_c, 1, 56, 100
3, 52920, Note_on_c, 1, 56, 0
3, 52920, Note_on_c, 1, 55, 100
3, 53040, Note_on_c, 1, 55, 0
3, 53040, Note_on_c, 1, 53, 100
3, 53160, Note_on_c, 1, 53, 0
3, 53160, Note_on_c, 1, 51, 100
3, 53280, Note_on_c, 1, 51, 0
3, 53280, Note_on_c, 1, 50, 100
3, 53400, Note_on_c, 1, 50, 0
3, 53400, Note_on_c, 1, 51, 100
3, 53520, Note_on_c, 1, 51, 0
3, 53520, Note_on_c, 1, 53, 100
3, 53640, Note_on_c, 1, 53, 0
3, 53640, Note_on_c, 1, 50, 100
3, 53760, Note_on_c, 1, 50, 0
3, 53760, Note_on_c, 1, 44, 100
3, 54360, Note_on_c, 1, 44, 0
3, 54360, Note_on_c, 1, 53, 100
3, 54480, Note_on_c, 1, 53, 0
3, 54480, Note_on_c, 1, 51, 100
3, 54600, Note_on_c, 1, 51, 0
3, 54600, Note_on_c, 1, 50, 100
3, 54720, Note_on_c, 1, 50, 0
3, 54720, Note_on_c, 1, 48, 100
3, 54840, Note_on_c, 1, 48, 0
3, 54840, Note_on_c, 1, 46, 100
3, 54960, Note_on_c, 1, 46, 0
3, 54960, Note_on_c, 1, 44, 100
3, 55080, Note_on_c, 1, 44, 0
3, 55080, Note_on_c, 1, 43, 100
3, 55200, Note_on_c, 1, 43, 0
3, 55200, Note_on_c, 1, 41, 100
3, 55320, Note_on_c, 1, 41, 0
3, 55320, Note_on_c, 1, 43, 100
3, 55440, Note_on_c, 1, 43, 0
3, 55440, Note_on_c, 1, 44, 100
3, 55560, Note_on_c, 1, 44, 0
3, 55560, Note_on_c, 1, 41, 100
3, 55680, Note_on_c, 1, 41, 0
3, 55680, Note_on_c, 1, 38, 100
3, 55680, Note_on_c, 1, 46, 100
3, 56160, Note_on_c, 1, 46, 0
3, 56160, Note_on_c, 1, 38, 0
3, 57600, Note_on_c, 1, 56, 100
3, 58080, Note_on_c, 1, 56, 0
3, 59520, Note_on_c, 1, 51, 100
3, 60000, Note_on_c, 1, 51, 0
3, 60480, Note_on_c, 1, 47, 100
3, 60960, Note_on_c, 1, 47, 0
3, 61440, Note_on_c, 1, 48, 100
3, 61920, Note_on_c, 1, 48, 0
3, 61920, Note_on_c, 1, 36, 100
3, 62280, Note_on_c, 1, 36, 0
3, 62280, Note_on_c, 1, 58, 100
3, 62400, Note_on_c, 1, 58, 0
3, 62400, Note_on_c, 1, 57, 100
3, 62880, Note_on_c, 1, 57, 0
3, 62880, Note_on_c, 1, 55, 100
3, 63000, Note_on_c, 1, 55, 0
3, 63000, Note_on_c, 1, 54, 100
3, 63120, Note_on_c, 1, 54, 0
3, 63120, Note_on_c, 1, 55, 100
3, 63360, Note_on_c, 1, 55, 0
3, 63360, Note_on_c, 1, 54, 100
3, 63360, Note_on_c, 1, 36, 100
3, 63360, Note_on_c, 1, 45, 100
3, 63840, Note_on_c, 1, 45, 0
3, 63840, Note_on_c, 1, 36, 0
3, 63840, Note_on_c, 1, 54, 0
3, 67200, Note_on_c, 1, 46, 100
3, 67680, Note_on_c, 1, 46, 0
3, 67680, Note_on_c, 1, 48, 100
3, 67800, Note_on_c, 1, 48, 0
3, 67800, Note_on_c, 1, 57, 100
3, 67920, Note_on_c, 1, 57, 0
3, 67920, Note_on_c, 1, 55, 100
3, 68040, Note_on_c, 1, 55, 0
3, 68040, Note_on_c, 1, 57, 100
3, 68160, Note_on_c, 1, 57, 0
3, 68160, Note_on_c, 1, 57, 100
3, 68880, Note_on_c, 1, 57, 0
3, 68880, Note_on_c, 1, 55, 100
3, 69120, Note_on_c, 1, 55, 0
3, 69120, Note_on_c, 1, 55, 100
3, 69480, Note_on_c, 1, 55, 0
3, 69480, Note_on_c, 1, 50, 100
3, 69600, Note_on_c, 1, 50, 0
3, 69600, Note_on_c, 1, 47, 100
3, 69960, Note_on_c, 1, 47, 0
3, 69960, Note_on_c, 1, 50, 100
3, 70080, Note_on_c, 1, 50, 0
3, 70080, Note_on_c, 1, 43, 100
3, 70800, Note_on_c, 1, 43, 0
3, 71040, Note_on_c, 1, 59, 100
3, 71040, Note_on_c, 1, 43, 100
3, 71520, Note_on_c, 1, 43, 0
3, 71520, Note_on_c, 1, 59, 0
3, 76800, Note_on_c, 1, 51, 100
3, 77280, Note_on_c, 1, 51, 0
3, 78720, Note_on_c, 1, 50, 100
3, 79200, Note_on_c, 1, 50, 0
3, 80640, Note_on_c, 1, 48, 100
3, 81240, Note_on_c, 1, 48, 0
3, 81240, Note_on_c, 1, 48, 100
3, 81360, Note_on_c, 1, 48, 0
3, 81360, Note_on_c, 1, 50, 100
3, 81480, Note_on_c, 1, 50, 0
3, 81480, Note_on_c, 1, 51, 100
3, 81600, Note_on_c, 1, 51, 0
3, 81600, Note_on_c, 1, 50, 100
3, 81960, Note_on_c, 1, 50, 0
3, 81960, Note_on_c, 1, 50, 100
3, 82080, Note_on_c, 1, 50, 0
3, 82080, Note_on_c, 1, 51, 100
3, 82440, Note_on_c, 1, 51, 0
3, 82440, Note_on_c, 1, 53, 100
3, 82560, Note_on_c, 1, 53, 0
3, 82560, Note_on_c, 1, 50, 100
3, 82920, Note_on_c, 1, 50, 0
3, 82920, Note_on_c, 1, 51, 100
3, 82980, Note_on_c, 1, 51, 0
3, 82980, Note_on_c, 1, 50, 100
3, 83040, Note_on_c, 1, 50, 0
3, 83040, Note_on_c, 1, 48, 100
3, 83280, Note_on_c, 1, 48, 0
3, 83280, Note_on_c, 1, 50, 100
3, 83400, Note_on_c, 1, 50, 0
3, 83400, Note_on_c, 1, 46, 100
3, 83520, Note_on_c, 1, 46, 0
3, 83520, Note_on_c, 1, 55, 100
3, 83820, Note_on_c, 1, 55, 0
3, 83820, Note_on_c, 1, 53, 100
3, 83880, Note_on_c, 1, 53, 0
3, 83880, Note_on_c, 1, 51, 100
3, 83940, Note_on_c, 1, 51, 0
3, 83940, Note_on_c, 1, 50, 100
3, 84000, Note_on_c, 1, 50, 0
3, 84000, Note_on_c, 1, 51, 100
3, 84360, Note_on_c, 1, 51, 0
3, 84360, Note_on_c, 1, 55, 100
3, 84480, Note_on_c, 1, 55, 0
3, 84480, Note_on_c, 1, 37, 100
3, 84780, Note_on_c, 1, 37, 0
3, 84780, Note_on_c, 1, 43, 100
3, 84840, Note_on_c, 1, 43, 0
3, 84840, Note_on_c, 1, 44, 100
3, 84900, Note_on_c, 1, 44, 0
3, 84900, Note_on_c, 1, 46, 100
3, 84960, Note_on_c, 1, 46, 0
3, 84960, Note_on_c, 1, 48, 100
3, 85080, Note_on_c, 1, 48, 0
3, 85080, Note_on_c, 1, 46, 100
3, 85200, Note_on_c, 1, 46, 0
3, 85200, Note_on_c, 1, 56, 100
3, 85440, Note_on_c, 1, 56, 0
3, 85440, Note_on_c, 1, 55, 100
3, 85920, Note_on_c, 1, 55, 0
3, 85920, Note_on_c, 1, 53, 100
3, 86040, Note_on_c, 1, 53, 0
3, 86040, Note_on_c, 1, 52, 100
3, 86160, Note_on_c, 1, 52, 0
3, 86160, Note_on_c, 1, 53, 100
3, 86400, Note_on_c, 1, 53, 0
3, 86400, Note_on_c, 1, 36, 100
3, 86400, Note_on_c, 1, 52, 100
3, 86880, Note_on_c, 1, 52, 0
3, 86880, Note_on_c, 1, 36, 0
3, 89280, Note_on_c, 1, 48, 100
3, 90000, Note_on_c, 1, 48, 0
3, 90240, Note_on_c, 1, 45, 100
3, 90720, Note_on_c, 1, 45, 0
3, 92160, Note_on_c, 1, 50, 100
3, 92640, Note_on_c, 1, 50, 0
3, 97920, Note_on_c, 1, 43, 100
3, 97920, Note_on_c, 1, 53, 100
3, 98280, Note_on_c, 1, 53, 0
3, 98280, Note_on_c, 1, 43, 0
3, 98280, Note_on_c, 1, 55, 100
3, 98400, Note_on_c, 1, 55, 0
3, 98400, Note_on_c, 1, 56, 100
3, 98520, Note_on_c, 1, 56, 0
3, 98520, Note_on_c, 1, 55, 100
3, 98640, Note_on_c, 1, 55, 0
3, 98640, Note_on_c, 1, 53, 100
3, 98760, Note_on_c, 1, 53, 0
3, 98760, Note_on_c, 1, 51, 100
3, 98880, Note_on_c, 1, 51, 0
3, 98880, Note_on_c, 1, 50, 100
3, 99000, Note_on_c, 1, 50, 0
3, 99000, Note_on_c, 1, 48, 100
3, 99120, Note_on_c, 1, 48, 0
3, 99120, Note_on_c, 1, 47, 100
3, 99240, Note_on_c, 1, 47, 0
3, 99240, Note_on_c, 1, 48, 100
3, 99360, Note_on_c, 1, 48, 0
3, 99360, Note_on_c, 1, 50, 100
3, 99480, Note_on_c, 1, 50, 0
3, 99480, Note_on_c, 1, 51, 100
3, 99600, Note_on_c, 1, 51, 0
3, 99600, Note_on_c, 1, 53, 100
3, 99720, Note_on_c, 1, 53, 0
3, 99720, Note_on_c, 1, 50, 100
3, 99840, Note_on_c, 1, 50, 0
3, 99840, Note_on_c, 1, 44, 100
3, 100200, Note_on_c, 1, 44, 0
3, 100200, Note_on_c, 1, 59, 100
3, 100320, Note_on_c, 1, 59, 0
3, 100320, Note_on_c, 1, 60, 100
3, 100440, Note_on_c, 1, 60, 0
3, 100440, Note_on_c, 1, 59, 100
3, 100560, Note_on_c, 1, 59, 0
3, 100560, Note_on_c, 1, 57, 100
3, 100680, Note_on_c, 1, 57, 0
3, 100680, Note_on_c, 1, 55, 100
3, 100800, Note_on_c, 1, 55, 0
3, 100800, Note_on_c, 1, 60, 100
3, 101520, Note_on_c, 1, 60, 0
3, 101520, Note_on_c, 1, 45, 100
3, 101520, Note_on_c, 1, 54, 100
3, 101760, Note_on_c, 1, 54, 0
3, 101760, Note_on_c, 1, 45, 0
3, 101760, Note_on_c, 1, 55, 100
3, 101760, Note_on_c, 1, 43, 100
3, 102120, Note_on_c, 1, 43, 0
3, 102120, Note_on_c, 1, 55, 0
3, 102120, Note_on_c, 1, 63, 100
3, 102240, Note_on_c, 1, 63, 0
3, 102240, Note_on_c, 1, 62, 100
3, 102360, Note_on_c, 1, 62, 0
3, 102360, Note_on_c, 1, 63, 100
3, 102480, Note_on_c, 1, 63, 0
3, 102480, Note_on_c, 1, 65, 100
3, 102600, Note_on_c, 1, 65, 0
3, 102600, Note_on_c, 1, 62, 100
3, 102720, Note_on_c, 1, 62, 0
3, 102720, Note_on_c, 1, 59, 100
3, 103440, Note_on_c, 1, 59, 0
3, 103440, Note_on_c, 1, 60, 100
3, 103680, Note_on_c, 1, 60, 0
3, 103680, Note_on_c, 1, 60, 100
3, 104040, Note_on_c, 1, 60, 0
3, 104040, Note_on_c, 1, 55, 100
3, 104160, Note_on_c, 1, 55, 0
3, 104160, Note_on_c, 1, 51, 100
3, 104520, Note_on_c, 1, 51, 0
3, 104520, Note_on_c, 1, 48, 100
3, 104640, Note_on_c, 1, 48, 0
3, 104640, Note_on_c, 1, 36, 100
3, 104640, Note_on_c, 1, 43, 100
3, 104640, Note_on_c, 1, 51, 100
3, 104640, Note_on_c, 1, 60, 100
3, 105360, Note_on_c, 1, 60, 0
3, 105360, Note_on_c, 1, 36, 0
3, 105360, Note_on_c, 1, 43, 0
3, 105360, Note_on_c, 1, 51, 0
3, 105600, Note_on_c, 1, 59, 100
3, 105600, Note_on_c, 1, 43, 100
3, 106080, Note_on_c, 1, 43, 0
3, 106080, Note_on_c, 1, 59, 0
3, 111360, Note_on_c, 1, 51, 100
3, 111840, Note_on_c, 1, 51, 0
3, 113280, Note_on_c, 1, 50, 100
3, 113760, Note_on_c, 1, 50, 0
3, 115200, Note_on_c, 1, 48, 100
3, 115800, Note_on_c, 1, 48, 0
3, 115800, Note_on_c, 1, 48, 100
3, 115920, Note_on_c, 1, 48, 0
3, 115920, Note_on_c, 1, 50, 100
3, 116040, Note_on_c, 1, 50, 0
3, 116040, Note_on_c, 1, 51, 100
3, 116160, Note_on_c, 1, 51, 0
3, 116160, Note_on_c, 1, 50, 100
3, 116520, Note_on_c, 1, 50, 0
3, 116520, Note_on_c, 1, 50, 100
3, 116640, Note_on_c, 1, 50, 0
3, 116640, Note_on_c, 1, 51, 100
3, 117000, Note_on_c, 1, 51, 0
3, 117000, Note_on_c, 1, 53, 100
3, 117120, Note_on_c, 1, 53, 0
3, 117120, Note_on_c, 1, 50, 100
3, 117480, Note_on_c, 1, 50, 0
3, 117480, Note_on_c, 1, 51, 100
3, 117540, Note_on_c, 1, 51, 0
3, 117540, Note_on_c, 1, 50, 100
3, 117600, Note_on_c, 1, 50, 0
3, 117600, Note_on_c, 1, 48, 100
3, 117840, Note_on_c, 1, 48, 0
3, 117840, Note_on_c, 1, 50, 100
3, 117960, Note_on_c, 1, 50, 0
3, 117960, Note_on_c, 1, 46, 100
3, 118080, Note_on_c, 1, 46, 0
3, 118080, Note_on_c, 1, 55, 100
3, 118380, Note_on_c, 1, 55, 0
3, 118380, Note_on_c, 1, 53, 100
3, 118440, Note_on_c, 1, 53, 0
3, 118440, Note_on_c, 1, 51, 100
3, 118500, Note_on_c, 1, 51, 0
3, 118500, Note_on_c, 1, 50, 100
3, 118560, Note_on_c, 1, 50, 0
3, 118560, Note_on_c, 1, 51, 100
3, 118920, Note_on_c, 1, 51, 0
3, 118920, Note_on_c, 1, 55, 100
3, 119040, Note_on_c, 1, 55, 0
3, 119040, Note_on_c, 1, 37, 100
3, 119340, Note_on_c, 1, 37, 0
3, 119340, Note_on_c, 1, 43, 100
3, 119400, Note_on_c, 1, 43, 0
3, 119400, Note_on_c, 1, 44, 100
3, 119460, Note_on_c, 1, 44, 0
3, 119460, Note_on_c, 1, 46, 100
3, 119520, Note_on_c, 1, 46, 0
3, 119520, Note_on_c, 1, 48, 100
3, 119640, Note_on_c, 1, 48, 0
3, 119640, Note_on_c, 1, 46, 100
3, 119760, Note_on_c, 1, 46, 0
3, 119760, Note_on_c, 1, 56, 100
3, 120000, Note_on_c, 1, 56, 0
3, 120000, Note_on_c, 1, 55, 100
3, 120480, Note_on_c, 1, 55, 0
3, 120480, Note_on_c, 1, 53, 100
3, 120600, Note_on_c, 1, 53, 0
3, 120600, Note_on_c, 1, 52, 100
3, 120720, Note_on_c, 1, 52, 0
3, 120720, Note_on_c, 1, 53, 100
3, 120960, Note_on_c, 1, 53, 0
3, 120960, Note_on_c, 1, 36, 100
3, 120960, Note_on_c, 1, 52, 100
3, 121440, Note_on_c, 1, 52, 0
3, 121440, Note_on_c, 1, 36, 0
3, 123840, Note_on_c, 1, 48, 100
3, 124560, Note_on_c, 1, 48, 0
3, 124800, Note_on_c, 1, 45, 100
3, 125280, Note_on_c, 1, 45, 0
3, 126720, Note_on_c, 1, 50, 100
3, 127200, Note_on_c, 1, 50, 0
3, 132480, Note_on_c, 1, 43, 100
3, 132480, Note_on_c, 1, 53, 100
3, 132840, Note_on_c, 1, 53, 0
3, 132840, Note_on_c, 1, 43, 0
3, 132840, Note_on_c, 1, 55, 100
3, 132960, Note_on_c, 1, 55, 0
3, 132960, Note_on_c, 1, 56, 100
3, 133080, Note_on_c, 1, 56, 0
3, 133080, Note_on_c, 1, 55, 100
3, 133200, Note_on_c, 1, 55, 0
3, 133200, Note_on_c, 1, 53, 100
3, 133320, Note_on_c, 1, 53, 0
3, 133320, Note_on_c, 1, 51, 100
3, 133440, Note_on_c, 1, 51, 0
3, 133440, Note_on_c, 1, 50, 100
3, 133560, Note_on_c, 1, 50, 0
3, 133560, Note_on_c, 1, 48, 100
3, 133680, Note_on_c, 1, 48, 0
3, 133680, Note_on_c, 1, 47, 100
3, 133800, Note_on_c, 1, 47, 0
3, 133800, Note_on_c, 1, 48, 100
3, 133920, Note_on_c, 1, 48, 0
3, 133920, Note_on_c, 1, 50, 100
3, 134040, Note_on_c, 1, 50, 0
3, 134040, Note_on_c, 1, 51, 100
3, 134160, Note_on_c, 1, 51, 0
3, 134160, Note_on_c, 1, 53, 100
3, 134280, Note_on_c, 1, 53, 0
3, 134280, Note_on_c, 1, 50, 100
3, 134400, Note_on_c, 1, 50, 0
3, 134400, Note_on_c, 1, 44, 100
3, 134760, Note_on_c, 1, 44, 0
3, 134760, Note_on_c, 1, 59, 100
3, 134880, Note_on_c, 1, 59, 0
3, 134880, Note_on_c, 1, 60, 100
3, 135000, Note_on_c, 1, 60, 0
3, 135000, Note_on_c, 1, 59, 100
3, 135120, Note_on_c, 1, 59, 0
3, 135120, Note_on_c, 1, 57, 100
3, 135240, Note_on_c, 1, 57, 0
3, 135240, Note_on_c, 1, 55, 100
3, 135360, Note_on_c, 1, 55, 0
3, 135360, Note_on_c, 1, 60, 100
3, 136080, Note_on_c, 1, 60, 0
3, 136080, Note_on_c, 1, 45, 100
3, 136080, Note_on_c, 1, 54, 100
3, 136320, Note_on_c, 1, 54, 0
3, 136320, Note_on_c, 1, 45, 0
3, 136320, Note_on_c, 1, 55, 100
3, 136320, Note_on_c, 1, 43, 100
3, 136680, Note_on_c, 1, 43, 0
3, 136680, Note_on_c, 1, 55, 0
3, 136680, Note_on_c, 1, 63, 100
3, 136800, Note_on_c, 1, 63, 0
3, 136800, Note_on_c, 1, 62, 100
3, 136920, Note_on_c, 1, 62, 0
3, 136920, Note_on_c, 1, 63, 100
3, 137040, Note_on_c, 1, 63, 0
3, 137040, Note_on_c, 1, 65, 100
3, 137160, Note_on_c, 1, 65, 0
3, 137160, Note_on_c, 1, 62, 100
3, 137280, Note_on_c, 1, 62, 0
3, 137280, Note_on_c, 1, 59, 100
3, 138000, Note_on_c, 1, 59, 0
3, 138000, Note_on_c, 1, 60, 100
3, 138240, Note_on_c, 1, 60, 0
3, 138240, Note_on_c, 1, 60, 100
3, 138600, Note_on_c, 1, 60, 0
3, 138600, Note_on_c, 1, 55, 100
3, 138720, Note_on_c, 1, 55, 0
3, 138720, Note_on_c, 1, 51, 100
3, 139080, Note_on_c, 1, 51, 0
3, 139080, Note_on_c, 1, 48, 100
3, 139200, Note_on_c, 1, 48, 0
3, 139200, Note_on_c, 1, 36, 100
3, 139200, Note_on_c, 1, 43, 100
3, 139200, Note_on_c, 1, 51, 100
3, 139200, Note_on_c, 1, 60, 100
3, 139920, Note_on_c, 1, 60, 0
3, 139920, Note_on_c, 1, 36, 0
3, 139920, Note_on_c, 1, 43, 0
3, 139920, Note_on_c, 1, 51, 0
3, 139920, End_track
4, 0, Start_track
4, 0, MIDI_port, 0
4, 0, Title_t, "Johann Sebastian Bach  (1685-1750)"
4, 0, End_track
5, 0, Start_track
5, 0, MIDI_port, 0
5, 0, Title_t, "Six Suites for Solo Cello"
5, 0, End_track
6, 0, Start_track
6, 0, MIDI_port, 0
6, 0, Title_t, "--------------------------------------"
6, 0, End_track
7, 0, Start_track
7, 0, MIDI_port, 0
7, 0, Title_t, "Suite No. 5 in C minor - BWV 1011"
7, 0, End_track
8, 0, Start_track
8, 0, MIDI_port, 0
8, 0, Title_t, "2nd Movement: Allemande"
8, 0, End_track
9, 0, Start_track
9, 0, MIDI_port, 0
9, 0, Title_t, "--------------------------------------"
9, 0, End_track
10, 0, Start_track
10, 0, MIDI_port, 0
10, 0, Title_t, "Sequenced with Cakewalk Pro Audio by"
10, 0, End_track
11, 0, Start_track
11, 0, MIDI_port, 0
11, 0, Title_t, "David J. Grossman - dave@unpronounceable.com"
11, 0, End_track
12, 0, Start_track
12, 0, MIDI_port, 0
12, 0, Title_t, "This and other Bach MIDI files can be found at:"
12, 0, End_track
13, 0, Start_track
13, 0, MIDI_port, 0
13, 0, Title_t, "Dave's J.S. Bach Page"
13, 0, End_track
14, 0, Start_track
14, 0, MIDI_port, 0
14, 0, Title_t, "http://www.unpronounceable.com/bach"
14, 0, End_track
15, 0, Start_track
15, 0, MIDI_port, 0
15, 0, Title_t, "--------------------------------------"
15, 0, End_track
16, 0, Start_track
16, 0, MIDI_port, 0
16, 0, Title_t, "Original Filename: cs5-2all.mid"
16, 0, End_track
17, 0, Start_track
17, 0, MIDI_port, 0
17, 0, Title_t, "Last Modified: February 22, 1997"
17, 0, End_track
0, 0, End_of_file
