0, 0, Header, 1, 17, 480
1, 0, Start_track
1, 0, Title_t, "untitled"
1, 0, Copyright_t, "Copyright © 1996 by David J. Grossman"
1, 0, Text_t, "David J. Grossman"
1, 0, SMPTE_offset, 96, 0, 3, 0, 0
1, 0, Time_signature, 3, 1, 48, 8
1, 0, Key_signature, -3, "major"
1, 0, Tempo, 240000
1, 2640, Tempo, 428571
1, 2880, Marker_t, "A"
1, 37440, Marker_t, "A'"
1, 72000, Marker_t, "B"
1, 106560, Marker_t, "B'"
1, 106560, End_track
2, 0, Start_track
2, 0, MIDI_port, 0
2, 0, Title_t, "Solo Cello"
2, 0, Program_c, 0, 42
2, 0, Control_c, 0, 7, 100
2, 0, Control_c, 0, 10, 69
2, 2640, Note_on_c, 0, 48, 100
2, 2880, Note_on_c, 0, 48, 0
2, 2880, Note_on_c, 0, 48, 100
2, 3600, Note_on_c, 0, 48, 0
2, 3600, Note_on_c, 0, 50, 100
2, 3840, Note_on_c, 0, 50, 0
2, 3840, Note_on_c, 0, 51, 100
2, 4080, Note_on_c, 0, 51, 0
2, 4080, Note_on_c, 0, 53, 100
2, 4320, Note_on_c, 0, 53, 0
2, 4320, Note_on_c, 0, 55, 100
2, 4560, Note_on_c, 0, 55, 0
2, 4560, Note_on_c, 0, 56, 100
2, 4800, Note_on_c, 0, 56, 0
2, 4800, Note_on_c, 0, 55, 100
2, 5040, Note_on_c, 0, 55, 0
2, 5040, Note_on_c, 0, 53, 100
2, 5280, Note_on_c, 0, 53, 0
2, 5280, Note_on_c, 0, 55, 100
2, 5520, Note_on_c, 0, 55, 0
2, 5520, Note_on_c, 0, 51, 100
2, 5760, Note_on_c, 0, 51, 0
2, 5760, Note_on_c, 0, 53, 100
2, 6480, Note_on_c, 0, 53, 0
2, 6480, Note_on_c, 0, 51, 100
2, 6720, Note_on_c, 0, 51, 0
2, 6720, Note_on_c, 0, 51, 100
2, 6960, Note_on_c, 0, 51, 0
2, 6960, Note_on_c, 0, 50, 100
2, 7200, Note_on_c, 0, 50, 0
2, 7200, Note_on_c, 0, 48, 100
2, 7440, Note_on_c, 0, 48, 0
2, 7440, Note_on_c, 0, 47, 100
2, 7680, Note_on_c, 0, 47, 0
2, 7680, Note_on_c, 0, 48, 100
2, 8400, Note_on_c, 0, 48, 0
2, 8400, Note_on_c, 0, 50, 100
2, 8640, Note_on_c, 0, 50, 0
2, 8640, Note_on_c, 0, 43, 100
2, 9360, Note_on_c, 0, 43, 0
2, 9360, Note_on_c, 0, 48, 100
2, 9480, Note_on_c, 0, 48, 0
2, 9480, Note_on_c, 0, 47, 100
2, 9600, Note_on_c, 0, 47, 0
2, 9600, Note_on_c, 0, 48, 100
2, 10080, Note_on_c, 0, 48, 0
2, 10080, Note_on_c, 0, 50, 100
2, 10560, Note_on_c, 0, 50, 0
2, 10560, Note_on_c, 0, 53, 100
2, 10800, Note_on_c, 0, 53, 0
2, 10800, Note_on_c, 0, 51, 100
2, 11040, Note_on_c, 0, 51, 0
2, 11040, Note_on_c, 0, 50, 100
2, 11280, Note_on_c, 0, 50, 0
2, 11280, Note_on_c, 0, 48, 100
2, 11520, Note_on_c, 0, 48, 0
2, 11520, Note_on_c, 0, 41, 100
2, 12240, Note_on_c, 0, 41, 0
2, 12480, Note_on_c, 0, 58, 100
2, 12960, Note_on_c, 0, 58, 0
2, 12960, Note_on_c, 0, 60, 100
2, 13440, Note_on_c, 0, 60, 0
2, 13440, Note_on_c, 0, 43, 100
2, 14400, Note_on_c, 0, 43, 0
2, 14400, Note_on_c, 0, 36, 100
2, 14400, Note_on_c, 0, 43, 100
2, 15360, Note_on_c, 0, 43, 0
2, 15360, Note_on_c, 0, 36, 0
2, 17280, Note_on_c, 0, 51, 100
2, 17280, Note_on_c, 0, 43, 100
2, 18000, Note_on_c, 0, 43, 0
2, 18000, Note_on_c, 0, 51, 0
2, 23040, Note_on_c, 0, 51, 100
2, 23760, Note_on_c, 0, 51, 0
2, 25920, Note_on_c, 0, 50, 100
2, 26160, Note_on_c, 0, 50, 0
2, 26880, Note_on_c, 0, 62, 100
2, 27360, Note_on_c, 0, 62, 0
2, 27360, Note_on_c, 0, 60, 100
2, 27600, Note_on_c, 0, 60, 0
2, 27600, Note_on_c, 0, 59, 100
2, 27840, Note_on_c, 0, 59, 0
2, 27840, Note_on_c, 0, 60, 100
2, 28320, Note_on_c, 0, 60, 0
2, 28320, Note_on_c, 0, 62, 100
2, 28800, Note_on_c, 0, 62, 0
2, 28800, Note_on_c, 0, 63, 100
2, 29520, Note_on_c, 0, 63, 0
2, 29520, Note_on_c, 0, 62, 100
2, 29760, Note_on_c, 0, 62, 0
2, 29760, Note_on_c, 0, 60, 100
2, 30000, Note_on_c, 0, 60, 0
2, 30000, Note_on_c, 0, 58, 100
2, 30240, Note_on_c, 0, 58, 0
2, 30240, Note_on_c, 0, 57, 100
2, 30480, Note_on_c, 0, 57, 0
2, 30480, Note_on_c, 0, 58, 100
2, 30720, Note_on_c, 0, 58, 0
2, 30720, Note_on_c, 0, 54, 100
2, 31440, Note_on_c, 0, 54, 0
2, 31440, Note_on_c, 0, 55, 100
2, 31680, Note_on_c, 0, 55, 0
2, 31680, Note_on_c, 0, 45, 100
2, 31920, Note_on_c, 0, 45, 0
2, 31920, Note_on_c, 0, 54, 100
2, 32160, Note_on_c, 0, 54, 0
2, 32160, Note_on_c, 0, 60, 100
2, 32400, Note_on_c, 0, 60, 0
2, 32400, Note_on_c, 0, 62, 100
2, 32640, Note_on_c, 0, 62, 0
2, 32640, Note_on_c, 0, 58, 100
2, 33120, Note_on_c, 0, 58, 0
2, 33600, Note_on_c, 0, 50, 100
2, 34560, Note_on_c, 0, 50, 0
2, 37200, Note_on_c, 0, 48, 100
2, 37440, Note_on_c, 0, 48, 0
2, 37440, Note_on_c, 0, 48, 100
2, 38160, Note_on_c, 0, 48, 0
2, 38160, Note_on_c, 0, 50, 100
2, 38400, Note_on_c, 0, 50, 0
2, 38400, Note_on_c, 0, 51, 100
2, 38640, Note_on_c, 0, 51, 0
2, 38640, Note_on_c, 0, 53, 100
2, 38880, Note_on_c, 0, 53, 0
2, 38880, Note_on_c, 0, 55, 100
2, 39120, Note_on_c, 0, 55, 0
2, 39120, Note_on_c, 0, 56, 100
2, 39360, Note_on_c, 0, 56, 0
2, 39360, Note_on_c, 0, 55, 100
2, 39600, Note_on_c, 0, 55, 0
2, 39600, Note_on_c, 0, 53, 100
2, 39840, Note_on_c, 0, 53, 0
2, 39840, Note_on_c, 0, 55, 100
2, 40080, Note_on_c, 0, 55, 0
2, 40080, Note_on_c, 0, 51, 100
2, 40320, Note_on_c, 0, 51, 0
2, 40320, Note_on_c, 0, 53, 100
2, 41040, Note_on_c, 0, 53, 0
2, 41040, Note_on_c, 0, 51, 100
2, 41280, Note_on_c, 0, 51, 0
2, 41280, Note_on_c, 0, 51, 100
2, 41520, Note_on_c, 0, 51, 0
2, 41520, Note_on_c, 0, 50, 100
2, 41760, Note_on_c, 0, 50, 0
2, 41760, Note_on_c, 0, 48, 100
2, 42000, Note_on_c, 0, 48, 0
2, 42000, Note_on_c, 0, 47, 100
2, 42240, Note_on_c, 0, 47, 0
2, 42240, Note_on_c, 0, 48, 100
2, 42960, Note_on_c, 0, 48, 0
2, 42960, Note_on_c, 0, 50, 100
2, 43200, Note_on_c, 0, 50, 0
2, 43200, Note_on_c, 0, 43, 100
2, 43920, Note_on_c, 0, 43, 0
2, 43920, Note_on_c, 0, 48, 100
2, 44040, Note_on_c, 0, 48, 0
2, 44040, Note_on_c, 0, 47, 100
2, 44160, Note_on_c, 0, 47, 0
2, 44160, Note_on_c, 0, 48, 100
2, 44640, Note_on_c, 0, 48, 0
2, 44640, Note_on_c, 0, 50, 100
2, 45120, Note_on_c, 0, 50, 0
2, 45120, Note_on_c, 0, 53, 100
2, 45360, Note_on_c, 0, 53, 0
2, 45360, Note_on_c, 0, 51, 100
2, 45600, Note_on_c, 0, 51, 0
2, 45600, Note_on_c, 0, 50, 100
2, 45840, Note_on_c, 0, 50, 0
2, 45840, Note_on_c, 0, 48, 100
2, 46080, Note_on_c, 0, 48, 0
2, 46080, Note_on_c, 0, 41, 100
2, 46800, Note_on_c, 0, 41, 0
2, 47040, Note_on_c, 0, 58, 100
2, 47520, Note_on_c, 0, 58, 0
2, 47520, Note_on_c, 0, 60, 100
2, 48000, Note_on_c, 0, 60, 0
2, 48000, Note_on_c, 0, 43, 100
2, 48960, Note_on_c, 0, 43, 0
2, 48960, Note_on_c, 0, 36, 100
2, 48960, Note_on_c, 0, 43, 100
2, 49920, Note_on_c, 0, 43, 0
2, 49920, Note_on_c, 0, 36, 0
2, 51840, Note_on_c, 0, 51, 100
2, 51840, Note_on_c, 0, 43, 100
2, 52560, Note_on_c, 0, 43, 0
2, 52560, Note_on_c, 0, 51, 0
2, 57600, Note_on_c, 0, 51, 100
2, 58320, Note_on_c, 0, 51, 0
2, 60480, Note_on_c, 0, 50, 100
2, 60720, Note_on_c, 0, 50, 0
2, 61440, Note_on_c, 0, 62, 100
2, 61920, Note_on_c, 0, 62, 0
2, 61920, Note_on_c, 0, 60, 100
2, 62160, Note_on_c, 0, 60, 0
2, 62160, Note_on_c, 0, 59, 100
2, 62400, Note_on_c, 0, 59, 0
2, 62400, Note_on_c, 0, 60, 100
2, 62880, Note_on_c, 0, 60, 0
2, 62880, Note_on_c, 0, 62, 100
2, 63360, Note_on_c, 0, 62, 0
2, 63360, Note_on_c, 0, 63, 100
2, 64080, Note_on_c, 0, 63, 0
2, 64080, Note_on_c, 0, 62, 100
2, 64320, Note_on_c, 0, 62, 0
2, 64320, Note_on_c, 0, 60, 100
2, 64560, Note_on_c, 0, 60, 0
2, 64560, Note_on_c, 0, 58, 100
2, 64800, Note_on_c, 0, 58, 0
2, 64800, Note_on_c, 0, 57, 100
2, 65040, Note_on_c, 0, 57, 0
2, 65040, Note_on_c, 0, 58, 100
2, 65280, Note_on_c, 0, 58, 0
2, 65280, Note_on_c, 0, 54, 100
2, 66000, Note_on_c, 0, 54, 0
2, 66000, Note_on_c, 0, 55, 100
2, 66240, Note_on_c, 0, 55, 0
2, 66240, Note_on_c, 0, 45, 100
2, 66480, Note_on_c, 0, 45, 0
2, 66480, Note_on_c, 0, 54, 100
2, 66720, Note_on_c, 0, 54, 0
2, 66720, Note_on_c, 0, 60, 100
2, 66960, Note_on_c, 0, 60, 0
2, 66960, Note_on_c, 0, 62, 100
2, 67200, Note_on_c, 0, 62, 0
2, 67200, Note_on_c, 0, 58, 100
2, 67680, Note_on_c, 0, 58, 0
2, 68160, Note_on_c, 0, 50, 100
2, 69120, Note_on_c, 0, 50, 0
2, 71760, Note_on_c, 0, 62, 100
2, 72000, Note_on_c, 0, 62, 0
2, 72000, Note_on_c, 0, 43, 100
2, 72000, Note_on_c, 0, 59, 100
2, 72000, Note_on_c, 0, 62, 100
2, 72720, Note_on_c, 0, 62, 0
2, 72720, Note_on_c, 0, 59, 0
2, 72720, Note_on_c, 0, 43, 0
2, 72720, Note_on_c, 0, 63, 100
2, 72960, Note_on_c, 0, 63, 0
2, 72960, Note_on_c, 0, 62, 100
2, 73200, Note_on_c, 0, 62, 0
2, 73200, Note_on_c, 0, 60, 100
2, 73440, Note_on_c, 0, 60, 0
2, 73440, Note_on_c, 0, 59, 100
2, 73680, Note_on_c, 0, 59, 0
2, 73680, Note_on_c, 0, 60, 100
2, 73800, Note_on_c, 0, 60, 0
2, 73800, Note_on_c, 0, 62, 100
2, 73920, Note_on_c, 0, 62, 0
2, 73920, Note_on_c, 0, 55, 100
2, 74640, Note_on_c, 0, 55, 0
2, 74640, Note_on_c, 0, 56, 100
2, 74880, Note_on_c, 0, 56, 0
2, 74880, Note_on_c, 0, 45, 100
2, 74880, Note_on_c, 0, 53, 100
2, 75600, Note_on_c, 0, 53, 0
2, 75600, Note_on_c, 0, 45, 0
2, 75600, Note_on_c, 0, 51, 100
2, 75840, Note_on_c, 0, 51, 0
2, 75840, Note_on_c, 0, 50, 100
2, 76080, Note_on_c, 0, 50, 0
2, 76080, Note_on_c, 0, 51, 100
2, 76320, Note_on_c, 0, 51, 0
2, 76320, Note_on_c, 0, 53, 100
2, 76560, Note_on_c, 0, 53, 0
2, 76560, Note_on_c, 0, 56, 100
2, 76800, Note_on_c, 0, 56, 0
2, 76800, Note_on_c, 0, 47, 100
2, 76800, Note_on_c, 0, 55, 100
2, 77280, Note_on_c, 0, 55, 0
2, 77280, Note_on_c, 0, 47, 0
2, 77280, Note_on_c, 0, 43, 100
2, 77280, Note_on_c, 0, 53, 100
2, 77760, Note_on_c, 0, 53, 0
2, 77760, Note_on_c, 0, 43, 0
2, 77760, Note_on_c, 0, 53, 100
2, 77760, Note_on_c, 0, 48, 100
2, 78000, Note_on_c, 0, 48, 0
2, 78000, Note_on_c, 0, 53, 0
2, 78000, Note_on_c, 0, 51, 100
2, 78240, Note_on_c, 0, 51, 0
2, 78240, Note_on_c, 0, 50, 100
2, 78480, Note_on_c, 0, 50, 0
2, 78480, Note_on_c, 0, 48, 100
2, 78720, Note_on_c, 0, 48, 0
2, 78720, Note_on_c, 0, 56, 100
2, 79200, Note_on_c, 0, 56, 0
2, 79200, Note_on_c, 0, 46, 100
2, 79200, Note_on_c, 0, 55, 100
2, 79680, Note_on_c, 0, 55, 0
2, 79680, Note_on_c, 0, 46, 0
2, 79680, Note_on_c, 0, 60, 100
2, 79680, Note_on_c, 0, 51, 100
2, 79680, Note_on_c, 0, 44, 100
2, 80400, Note_on_c, 0, 44, 0
2, 80400, Note_on_c, 0, 51, 0
2, 80400, Note_on_c, 0, 60, 0
2, 80400, Note_on_c, 0, 61, 100
2, 80640, Note_on_c, 0, 61, 0
2, 80640, Note_on_c, 0, 52, 100
2, 80640, Note_on_c, 0, 43, 100
2, 81360, Note_on_c, 0, 43, 0
2, 81360, Note_on_c, 0, 52, 0
2, 81360, Note_on_c, 0, 53, 100
2, 81600, Note_on_c, 0, 53, 0
2, 81600, Note_on_c, 0, 55, 100
2, 81840, Note_on_c, 0, 55, 0
2, 81840, Note_on_c, 0, 56, 100
2, 82080, Note_on_c, 0, 56, 0
2, 82080, Note_on_c, 0, 58, 100
2, 82320, Note_on_c, 0, 58, 0
2, 82320, Note_on_c, 0, 60, 100
2, 82560, Note_on_c, 0, 60, 0
2, 82560, Note_on_c, 0, 61, 100
2, 83040, Note_on_c, 0, 61, 0
2, 83040, Note_on_c, 0, 52, 100
2, 83040, Note_on_c, 0, 60, 100
2, 83520, Note_on_c, 0, 60, 0
2, 83520, Note_on_c, 0, 52, 0
2, 83520, Note_on_c, 0, 53, 100
2, 83520, Note_on_c, 0, 58, 100
2, 83760, Note_on_c, 0, 58, 0
2, 83760, Note_on_c, 0, 53, 0
2, 83760, Note_on_c, 0, 56, 100
2, 84000, Note_on_c, 0, 56, 0
2, 84000, Note_on_c, 0, 55, 100
2, 84240, Note_on_c, 0, 55, 0
2, 84240, Note_on_c, 0, 53, 100
2, 84480, Note_on_c, 0, 53, 0
2, 84480, Note_on_c, 0, 51, 100
2, 84720, Note_on_c, 0, 51, 0
2, 84720, Note_on_c, 0, 49, 100
2, 84960, Note_on_c, 0, 49, 0
2, 84960, Note_on_c, 0, 51, 100
2, 85200, Note_on_c, 0, 51, 0
2, 85200, Note_on_c, 0, 48, 100
2, 85440, Note_on_c, 0, 48, 0
2, 85440, Note_on_c, 0, 49, 100
2, 85680, Note_on_c, 0, 49, 0
2, 85680, Note_on_c, 0, 53, 100
2, 85920, Note_on_c, 0, 53, 0
2, 85920, Note_on_c, 0, 55, 100
2, 86160, Note_on_c, 0, 55, 0
2, 86160, Note_on_c, 0, 56, 100
2, 86400, Note_on_c, 0, 56, 0
2, 86400, Note_on_c, 0, 56, 100
2, 86640, Note_on_c, 0, 56, 0
2, 86640, Note_on_c, 0, 55, 100
2, 86880, Note_on_c, 0, 55, 0
2, 86880, Note_on_c, 0, 53, 100
2, 87120, Note_on_c, 0, 53, 0
2, 87120, Note_on_c, 0, 51, 100
2, 87360, Note_on_c, 0, 51, 0
2, 87360, Note_on_c, 0, 63, 100
2, 87360, Note_on_c, 0, 56, 100
2, 87360, Note_on_c, 0, 48, 100
2, 88080, Note_on_c, 0, 48, 0
2, 88080, Note_on_c, 0, 56, 0
2, 88080, Note_on_c, 0, 63, 0
2, 88080, Note_on_c, 0, 65, 100
2, 88320, Note_on_c, 0, 65, 0
2, 88320, Note_on_c, 0, 51, 100
2, 88320, Note_on_c, 0, 58, 100
2, 89040, Note_on_c, 0, 58, 0
2, 89040, Note_on_c, 0, 51, 0
2, 89040, Note_on_c, 0, 56, 100
2, 89280, Note_on_c, 0, 56, 0
2, 89280, Note_on_c, 0, 56, 100
2, 90000, Note_on_c, 0, 56, 0
2, 90000, Note_on_c, 0, 55, 100
2, 90240, Note_on_c, 0, 55, 0
2, 90240, Note_on_c, 0, 56, 100
2, 90480, Note_on_c, 0, 56, 0
2, 90480, Note_on_c, 0, 58, 100
2, 90720, Note_on_c, 0, 58, 0
2, 90720, Note_on_c, 0, 60, 100
2, 90960, Note_on_c, 0, 60, 0
2, 90960, Note_on_c, 0, 62, 100
2, 91200, Note_on_c, 0, 62, 0
2, 91200, Note_on_c, 0, 62, 100
2, 91920, Note_on_c, 0, 62, 0
2, 91920, Note_on_c, 0, 60, 100
2, 92040, Note_on_c, 0, 60, 0
2, 92040, Note_on_c, 0, 62, 100
2, 92160, Note_on_c, 0, 62, 0
2, 92160, Note_on_c, 0, 55, 100
2, 92160, Note_on_c, 0, 63, 100
2, 92880, Note_on_c, 0, 63, 0
2, 92880, Note_on_c, 0, 55, 0
2, 92880, Note_on_c, 0, 58, 100
2, 93120, Note_on_c, 0, 58, 0
2, 93120, Note_on_c, 0, 60, 100
2, 93600, Note_on_c, 0, 60, 0
2, 93600, Note_on_c, 0, 55, 100
2, 94080, Note_on_c, 0, 55, 0
2, 94080, Note_on_c, 0, 55, 100
2, 94320, Note_on_c, 0, 55, 0
2, 94320, Note_on_c, 0, 56, 100
2, 94560, Note_on_c, 0, 56, 0
2, 94560, Note_on_c, 0, 50, 100
2, 94800, Note_on_c, 0, 50, 0
2, 94800, Note_on_c, 0, 58, 100
2, 95040, Note_on_c, 0, 58, 0
2, 95040, Note_on_c, 0, 51, 100
2, 95040, Note_on_c, 0, 56, 100
2, 95280, Note_on_c, 0, 56, 0
2, 95280, Note_on_c, 0, 51, 0
2, 95280, Note_on_c, 0, 55, 100
2, 95520, Note_on_c, 0, 55, 0
2, 95520, Note_on_c, 0, 53, 100
2, 95760, Note_on_c, 0, 53, 0
2, 95760, Note_on_c, 0, 51, 100
2, 96000, Note_on_c, 0, 51, 0
2, 96000, Note_on_c, 0, 55, 100
2, 96240, Note_on_c, 0, 55, 0
2, 96240, Note_on_c, 0, 57, 100
2, 96480, Note_on_c, 0, 57, 0
2, 96480, Note_on_c, 0, 55, 100
2, 96720, Note_on_c, 0, 55, 0
2, 96720, Note_on_c, 0, 57, 100
2, 96960, Note_on_c, 0, 57, 0
2, 96960, Note_on_c, 0, 57, 100
2, 97680, Note_on_c, 0, 57, 0
2, 97680, Note_on_c, 0, 55, 100
2, 97800, Note_on_c, 0, 55, 0
2, 97800, Note_on_c, 0, 57, 100
2, 97920, Note_on_c, 0, 57, 0
2, 97920, Note_on_c, 0, 50, 100
2, 97920, Note_on_c, 0, 58, 100
2, 98640, Note_on_c, 0, 58, 0
2, 98640, Note_on_c, 0, 50, 0
2, 98640, Note_on_c, 0, 57, 100
2, 98880, Note_on_c, 0, 57, 0
2, 98880, Note_on_c, 0, 60, 100
2, 99120, Note_on_c, 0, 60, 0
2, 99120, Note_on_c, 0, 59, 100
2, 99360, Note_on_c, 0, 59, 0
2, 99360, Note_on_c, 0, 51, 100
2, 99360, Note_on_c, 0, 60, 100
2, 99840, Note_on_c, 0, 60, 0
2, 99840, Note_on_c, 0, 51, 0
2, 99840, Note_on_c, 0, 53, 100
2, 99840, Note_on_c, 0, 58, 100
2, 100080, Note_on_c, 0, 58, 0
2, 100080, Note_on_c, 0, 53, 0
2, 100080, Note_on_c, 0, 56, 100
2, 100320, Note_on_c, 0, 56, 0
2, 100320, Note_on_c, 0, 50, 100
2, 100320, Note_on_c, 0, 55, 100
2, 100560, Note_on_c, 0, 55, 0
2, 100560, Note_on_c, 0, 50, 0
2, 100560, Note_on_c, 0, 53, 100
2, 100800, Note_on_c, 0, 53, 0
2, 100800, Note_on_c, 0, 53, 100
2, 101520, Note_on_c, 0, 53, 0
2, 101520, Note_on_c, 0, 55, 100
2, 101760, Note_on_c, 0, 55, 0
2, 101760, Note_on_c, 0, 51, 100
2, 102240, Note_on_c, 0, 51, 0
2, 102720, Note_on_c, 0, 50, 100
2, 103440, Note_on_c, 0, 50, 0
2, 105120, Note_on_c, 0, 43, 100
2, 105120, Note_on_c, 0, 60, 100
2, 105120, Note_on_c, 0, 51, 100
2, 106080, Note_on_c, 0, 51, 0
2, 106080, Note_on_c, 0, 60, 0
2, 106080, Note_on_c, 0, 43, 0
2, 106320, Note_on_c, 0, 62, 100
2, 106560, Note_on_c, 0, 62, 0
2, 106560, Note_on_c, 0, 43, 100
2, 106560, Note_on_c, 0, 59, 100
2, 106560, Note_on_c, 0, 62, 100
2, 107280, Note_on_c, 0, 62, 0
2, 107280, Note_on_c, 0, 59, 0
2, 107280, Note_on_c, 0, 43, 0
2, 107280, Note_on_c, 0, 63, 100
2, 107520, Note_on_c, 0, 63, 0
2, 107520, Note_on_c, 0, 62, 100
2, 107760, Note_on_c, 0, 62, 0
2, 107760, Note_on_c, 0, 60, 100
2, 108000, Note_on_c, 0, 60, 0
2, 108000, Note_on_c, 0, 59, 100
2, 108240, Note_on_c, 0, 59, 0
2, 108240, Note_on_c, 0, 60, 100
2, 108360, Note_on_c, 0, 60, 0
2, 108360, Note_on_c, 0, 62, 100
2, 108480, Note_on_c, 0, 62, 0
2, 108480, Note_on_c, 0, 55, 100
2, 109200, Note_on_c, 0, 55, 0
2, 109200, Note_on_c, 0, 56, 100
2, 109440, Note_on_c, 0, 56, 0
2, 109440, Note_on_c, 0, 45, 100
2, 109440, Note_on_c, 0, 53, 100
2, 110160, Note_on_c, 0, 53, 0
2, 110160, Note_on_c, 0, 45, 0
2, 110160, Note_on_c, 0, 51, 100
2, 110400, Note_on_c, 0, 51, 0
2, 110400, Note_on_c, 0, 50, 100
2, 110640, Note_on_c, 0, 50, 0
2, 110640, Note_on_c, 0, 51, 100
2, 110880, Note_on_c, 0, 51, 0
2, 110880, Note_on_c, 0, 53, 100
2, 111120, Note_on_c, 0, 53, 0
2, 111120, Note_on_c, 0, 56, 100
2, 111360, Note_on_c, 0, 56, 0
2, 111360, Note_on_c, 0, 47, 100
2, 111360, Note_on_c, 0, 55, 100
2, 111840, Note_on_c, 0, 55, 0
2, 111840, Note_on_c, 0, 47, 0
2, 111840, Note_on_c, 0, 43, 100
2, 111840, Note_on_c, 0, 53, 100
2, 112320, Note_on_c, 0, 53, 0
2, 112320, Note_on_c, 0, 43, 0
2, 112320, Note_on_c, 0, 53, 100
2, 112320, Note_on_c, 0, 48, 100
2, 112560, Note_on_c, 0, 48, 0
2, 112560, Note_on_c, 0, 53, 0
2, 112560, Note_on_c, 0, 51, 100
2, 112800, Note_on_c, 0, 51, 0
2, 112800, Note_on_c, 0, 50, 100
2, 113040, Note_on_c, 0, 50, 0
2, 113040, Note_on_c, 0, 48, 100
2, 113280, Note_on_c, 0, 48, 0
2, 113280, Note_on_c, 0, 56, 100
2, 113760, Note_on_c, 0, 56, 0
2, 113760, Note_on_c, 0, 46, 100
2, 113760, Note_on_c, 0, 55, 100
2, 114240, Note_on_c, 0, 55, 0
2, 114240, Note_on_c, 0, 46, 0
2, 114240, Note_on_c, 0, 60, 100
2, 114240, Note_on_c, 0, 51, 100
2, 114240, Note_on_c, 0, 44, 100
2, 114960, Note_on_c, 0, 44, 0
2, 114960, Note_on_c, 0, 51, 0
2, 114960, Note_on_c, 0, 60, 0
2, 114960, Note_on_c, 0, 61, 100
2, 115200, Note_on_c, 0, 61, 0
2, 115200, Note_on_c, 0, 52, 100
2, 115200, Note_on_c, 0, 43, 100
2, 115920, Note_on_c, 0, 43, 0
2, 115920, Note_on_c, 0, 52, 0
2, 115920, Note_on_c, 0, 53, 100
2, 116160, Note_on_c, 0, 53, 0
2, 116160, Note_on_c, 0, 55, 100
2, 116400, Note_on_c, 0, 55, 0
2, 116400, Note_on_c, 0, 56, 100
2, 116640, Note_on_c, 0, 56, 0
2, 116640, Note_on_c, 0, 58, 100
2, 116880, Note_on_c, 0, 58, 0
2, 116880, Note_on_c, 0, 60, 100
2, 117120, Note_on_c, 0, 60, 0
2, 117120, Note_on_c, 0, 61, 100
2, 117600, Note_on_c, 0, 61, 0
2, 117600, Note_on_c, 0, 52, 100
2, 117600, Note_on_c, 0, 60, 100
2, 118080, Note_on_c, 0, 60, 0
2, 118080, Note_on_c, 0, 52, 0
2, 118080, Note_on_c, 0, 53, 100
2, 118080, Note_on_c, 0, 58, 100
2, 118320, Note_on_c, 0, 58, 0
2, 118320, Note_on_c, 0, 53, 0
2, 118320, Note_on_c, 0, 56, 100
2, 118560, Note_on_c, 0, 56, 0
2, 118560, Note_on_c, 0, 55, 100
2, 118800, Note_on_c, 0, 55, 0
2, 118800, Note_on_c, 0, 53, 100
2, 119040, Note_on_c, 0, 53, 0
2, 119040, Note_on_c, 0, 51, 100
2, 119280, Note_on_c, 0, 51, 0
2, 119280, Note_on_c, 0, 49, 100
2, 119520, Note_on_c, 0, 49, 0
2, 119520, Note_on_c, 0, 51, 100
2, 119760, Note_on_c, 0, 51, 0
2, 119760, Note_on_c, 0, 48, 100
2, 120000, Note_on_c, 0, 48, 0
2, 120000, Note_on_c, 0, 49, 100
2, 120240, Note_on_c, 0, 49, 0
2, 120240, Note_on_c, 0, 53, 100
2, 120480, Note_on_c, 0, 53, 0
2, 120480, Note_on_c, 0, 55, 100
2, 120720, Note_on_c, 0, 55, 0
2, 120720, Note_on_c, 0, 56, 100
2, 120960, Note_on_c, 0, 56, 0
2, 120960, Note_on_c, 0, 56, 100
2, 121200, Note_on_c, 0, 56, 0
2, 121200, Note_on_c, 0, 55, 100
2, 121440, Note_on_c, 0, 55, 0
2, 121440, Note_on_c, 0, 53, 100
2, 121680, Note_on_c, 0, 53, 0
2, 121680, Note_on_c, 0, 51, 100
2, 121920, Note_on_c, 0, 51, 0
2, 121920, Note_on_c, 0, 63, 100
2, 121920, Note_on_c, 0, 56, 100
2, 121920, Note_on_c, 0, 48, 100
2, 122640, Note_on_c, 0, 48, 0
2, 122640, Note_on_c, 0, 56, 0
2, 122640, Note_on_c, 0, 63, 0
2, 122640, Note_on_c, 0, 65, 100
2, 122880, Note_on_c, 0, 65, 0
2, 122880, Note_on_c, 0, 51, 100
2, 122880, Note_on_c, 0, 58, 100
2, 123600, Note_on_c, 0, 58, 0
2, 123600, Note_on_c, 0, 51, 0
2, 123600, Note_on_c, 0, 56, 100
2, 123840, Note_on_c, 0, 56, 0
2, 123840, Note_on_c, 0, 56, 100
2, 124560, Note_on_c, 0, 56, 0
2, 124560, Note_on_c, 0, 55, 100
2, 124800, Note_on_c, 0, 55, 0
2, 124800, Note_on_c, 0, 56, 100
2, 125040, Note_on_c, 0, 56, 0
2, 125040, Note_on_c, 0, 58, 100
2, 125280, Note_on_c, 0, 58, 0
2, 125280, Note_on_c, 0, 60, 100
2, 125520, Note_on_c, 0, 60, 0
2, 125520, Note_on_c, 0, 62, 100
2, 125760, Note_on_c, 0, 62, 0
2, 125760, Note_on_c, 0, 62, 100
2, 126480, Note_on_c, 0, 62, 0
2, 126480, Note_on_c, 0, 60, 100
2, 126600, Note_on_c, 0, 60, 0
2, 126600, Note_on_c, 0, 62, 100
2, 126720, Note_on_c, 0, 62, 0
2, 126720, Note_on_c, 0, 55, 100
2, 126720, Note_on_c, 0, 63, 100
2, 127440, Note_on_c, 0, 63, 0
2, 127440, Note_on_c, 0, 55, 0
2, 127440, Note_on_c, 0, 58, 100
2, 127680, Note_on_c, 0, 58, 0
2, 127680, Note_on_c, 0, 60, 100
2, 128160, Note_on_c, 0, 60, 0
2, 128160, Note_on_c, 0, 55, 100
2, 128640, Note_on_c, 0, 55, 0
2, 128640, Note_on_c, 0, 55, 100
2, 128880, Note_on_c, 0, 55, 0
2, 128880, Note_on_c, 0, 56, 100
2, 129120, Note_on_c, 0, 56, 0
2, 129120, Note_on_c, 0, 50, 100
2, 129360, Note_on_c, 0, 50, 0
2, 129360, Note_on_c, 0, 58, 100
2, 129600, Note_on_c, 0, 58, 0
2, 129600, Note_on_c, 0, 51, 100
2, 129600, Note_on_c, 0, 56, 100
2, 129840, Note_on_c, 0, 56, 0
2, 129840, Note_on_c, 0, 51, 0
2, 129840, Note_on_c, 0, 55, 100
2, 130080, Note_on_c, 0, 55, 0
2, 130080, Note_on_c, 0, 53, 100
2, 130320, Note_on_c, 0, 53, 0
2, 130320, Note_on_c, 0, 51, 100
2, 130560, Note_on_c, 0, 51, 0
2, 130560, Note_on_c, 0, 55, 100
2, 130800, Note_on_c, 0, 55, 0
2, 130800, Note_on_c, 0, 57, 100
2, 131040, Note_on_c, 0, 57, 0
2, 131040, Note_on_c, 0, 55, 100
2, 131280, Note_on_c, 0, 55, 0
2, 131280, Note_on_c, 0, 57, 100
2, 131520, Note_on_c, 0, 57, 0
2, 131520, Note_on_c, 0, 57, 100
2, 132240, Note_on_c, 0, 57, 0
2, 132240, Note_on_c, 0, 55, 100
2, 132360, Note_on_c, 0, 55, 0
2, 132360, Note_on_c, 0, 57, 100
2, 132480, Note_on_c, 0, 57, 0
2, 132480, Note_on_c, 0, 50, 100
2, 132480, Note_on_c, 0, 58, 100
2, 133200, Note_on_c, 0, 58, 0
2, 133200, Note_on_c, 0, 50, 0
2, 133200, Note_on_c, 0, 57, 100
2, 133440, Note_on_c, 0, 57, 0
2, 133440, Note_on_c, 0, 60, 100
2, 133680, Note_on_c, 0, 60, 0
2, 133680, Note_on_c, 0, 59, 100
2, 133920, Note_on_c, 0, 59, 0
2, 133920, Note_on_c, 0, 51, 100
2, 133920, Note_on_c, 0, 60, 100
2, 134400, Note_on_c, 0, 60, 0
2, 134400, Note_on_c, 0, 51, 0
2, 134400, Note_on_c, 0, 53, 100
2, 134400, Note_on_c, 0, 58, 100
2, 134640, Note_on_c, 0, 58, 0
2, 134640, Note_on_c, 0, 53, 0
2, 134640, Note_on_c, 0, 56, 100
2, 134880, Note_on_c, 0, 56, 0
2, 134880, Note_on_c, 0, 50, 100
2, 134880, Note_on_c, 0, 55, 100
2, 135120, Note_on_c, 0, 55, 0
2, 135120, Note_on_c, 0, 50, 0
2, 135120, Note_on_c, 0, 53, 100
2, 135360, Note_on_c, 0, 53, 0
2, 135360, Note_on_c, 0, 53, 100
2, 136080, Note_on_c, 0, 53, 0
2, 136080, Note_on_c, 0, 55, 100
2, 136320, Note_on_c, 0, 55, 0
2, 136320, Note_on_c, 0, 51, 100
2, 136800, Note_on_c, 0, 51, 0
2, 137280, Note_on_c, 0, 50, 100
2, 138000, Note_on_c, 0, 50, 0
2, 139680, Note_on_c, 0, 43, 100
2, 139680, Note_on_c, 0, 60, 100
2, 139680, Note_on_c, 0, 51, 100
2, 140640, Note_on_c, 0, 51, 0
2, 140640, Note_on_c, 0, 60, 0
2, 140640, Note_on_c, 0, 43, 0
2, 140640, End_track
3, 0, Start_track
3, 0, MIDI_port, 0
3, 0, Title_t, "--------------------------------------"
3, 0, Program_c, 1, 42
3, 0, Control_c, 1, 7, 100
3, 0, Control_c, 1, 10, 59
3, 2880, Note_on_c, 1, 36, 100
3, 3600, Note_on_c, 1, 36, 0
3, 5760, Note_on_c, 1, 38, 100
3, 5760, Note_on_c, 1, 47, 100
3, 6480, Note_on_c, 1, 47, 0
3, 6480, Note_on_c, 1, 38, 0
3, 8640, Note_on_c, 1, 39, 100
3, 9360, Note_on_c, 1, 39, 0
3, 11520, Note_on_c, 1, 48, 100
3, 11520, Note_on_c, 1, 56, 100
3, 12240, Note_on_c, 1, 56, 0
3, 12240, Note_on_c, 1, 48, 0
3, 12240, Note_on_c, 1, 53, 100
3, 12480, Note_on_c, 1, 53, 0
3, 12960, Note_on_c, 1, 51, 100
3, 13440, Note_on_c, 1, 51, 0
3, 13440, Note_on_c, 1, 50, 100
3, 14160, Note_on_c, 1, 50, 0
3, 14160, Note_on_c, 1, 55, 100
3, 14400, Note_on_c, 1, 55, 0
3, 14400, Note_on_c, 1, 51, 100
3, 15120, Note_on_c, 1, 51, 0
3, 15120, Note_on_c, 1, 50, 100
3, 15360, Note_on_c, 1, 50, 0
3, 15360, Note_on_c, 1, 48, 100
3, 15600, Note_on_c, 1, 48, 0
3, 15600, Note_on_c, 1, 50, 100
3, 15840, Note_on_c, 1, 50, 0
3, 15840, Note_on_c, 1, 51, 100
3, 16080, Note_on_c, 1, 51, 0
3, 16080, Note_on_c, 1, 53, 100
3, 16320, Note_on_c, 1, 53, 0
3, 16320, Note_on_c, 1, 55, 100
3, 16560, Note_on_c, 1, 55, 0
3, 16560, Note_on_c, 1, 56, 100
3, 16800, Note_on_c, 1, 56, 0
3, 16800, Note_on_c, 1, 60, 100
3, 17040, Note_on_c, 1, 60, 0
3, 17040, Note_on_c, 1, 58, 100
3, 17280, Note_on_c, 1, 58, 0
3, 17280, Note_on_c, 1, 58, 100
3, 18000, Note_on_c, 1, 58, 0
3, 18000, Note_on_c, 1, 56, 100
3, 18240, Note_on_c, 1, 56, 0
3, 18240, Note_on_c, 1, 55, 100
3, 18480, Note_on_c, 1, 55, 0
3, 18480, Note_on_c, 1, 53, 100
3, 18720, Note_on_c, 1, 53, 0
3, 18720, Note_on_c, 1, 51, 100
3, 18960, Note_on_c, 1, 51, 0
3, 18960, Note_on_c, 1, 50, 100
3, 19200, Note_on_c, 1, 50, 0
3, 19200, Note_on_c, 1, 50, 100
3, 19440, Note_on_c, 1, 50, 0
3, 19440, Note_on_c, 1, 51, 100
3, 19680, Note_on_c, 1, 51, 0
3, 19680, Note_on_c, 1, 45, 100
3, 20040, Note_on_c, 1, 45, 0
3, 20040, Note_on_c, 1, 53, 100
3, 20160, Note_on_c, 1, 53, 0
3, 20160, Note_on_c, 1, 51, 100
3, 20400, Note_on_c, 1, 51, 0
3, 20400, Note_on_c, 1, 50, 100
3, 20640, Note_on_c, 1, 50, 0
3, 20640, Note_on_c, 1, 48, 100
3, 20880, Note_on_c, 1, 48, 0
3, 20880, Note_on_c, 1, 46, 100
3, 21120, Note_on_c, 1, 46, 0
3, 21120, Note_on_c, 1, 58, 100
3, 21840, Note_on_c, 1, 58, 0
3, 21840, Note_on_c, 1, 60, 100
3, 22080, Note_on_c, 1, 60, 0
3, 22080, Note_on_c, 1, 58, 100
3, 22320, Note_on_c, 1, 58, 0
3, 22320, Note_on_c, 1, 57, 100
3, 22560, Note_on_c, 1, 57, 0
3, 22560, Note_on_c, 1, 58, 100
3, 22800, Note_on_c, 1, 58, 0
3, 22800, Note_on_c, 1, 55, 100
3, 23040, Note_on_c, 1, 55, 0
3, 23040, Note_on_c, 1, 60, 100
3, 23760, Note_on_c, 1, 60, 0
3, 23760, Note_on_c, 1, 58, 100
3, 24000, Note_on_c, 1, 58, 0
3, 24000, Note_on_c, 1, 58, 100
3, 24240, Note_on_c, 1, 58, 0
3, 24240, Note_on_c, 1, 57, 100
3, 24480, Note_on_c, 1, 57, 0
3, 24480, Note_on_c, 1, 55, 100
3, 24720, Note_on_c, 1, 55, 0
3, 24720, Note_on_c, 1, 54, 100
3, 24960, Note_on_c, 1, 54, 0
3, 24960, Note_on_c, 1, 55, 100
3, 25680, Note_on_c, 1, 55, 0
3, 25680, Note_on_c, 1, 57, 100
3, 25920, Note_on_c, 1, 57, 0
3, 25920, Note_on_c, 1, 55, 100
3, 26160, Note_on_c, 1, 55, 0
3, 26160, Note_on_c, 1, 54, 100
3, 26400, Note_on_c, 1, 54, 0
3, 26400, Note_on_c, 1, 52, 100
3, 26640, Note_on_c, 1, 52, 0
3, 26640, Note_on_c, 1, 50, 100
3, 26880, Note_on_c, 1, 50, 0
3, 27360, Note_on_c, 1, 53, 100
3, 27840, Note_on_c, 1, 53, 0
3, 27840, Note_on_c, 1, 51, 100
3, 28320, Note_on_c, 1, 51, 0
3, 28320, Note_on_c, 1, 50, 100
3, 28800, Note_on_c, 1, 50, 0
3, 28800, Note_on_c, 1, 55, 100
3, 28800, Note_on_c, 1, 48, 100
3, 29520, Note_on_c, 1, 48, 0
3, 29520, Note_on_c, 1, 55, 0
3, 32640, Note_on_c, 1, 50, 100
3, 32640, Note_on_c, 1, 43, 100
3, 33120, Note_on_c, 1, 43, 0
3, 33120, Note_on_c, 1, 50, 0
3, 33120, Note_on_c, 1, 48, 100
3, 33480, Note_on_c, 1, 48, 0
3, 33480, Note_on_c, 1, 57, 100
3, 33600, Note_on_c, 1, 57, 0
3, 33600, Note_on_c, 1, 57, 100
3, 34320, Note_on_c, 1, 57, 0
3, 34320, Note_on_c, 1, 55, 100
3, 34560, Note_on_c, 1, 55, 0
3, 34560, Note_on_c, 1, 55, 100
3, 35160, Note_on_c, 1, 55, 0
3, 35160, Note_on_c, 1, 53, 100
3, 35280, Note_on_c, 1, 53, 0
3, 35280, Note_on_c, 1, 51, 100
3, 35400, Note_on_c, 1, 51, 0
3, 35400, Note_on_c, 1, 50, 100
3, 35520, Note_on_c, 1, 50, 0
3, 35520, Note_on_c, 1, 51, 100
3, 35880, Note_on_c, 1, 51, 0
3, 35880, Note_on_c, 1, 48, 100
3, 36000, Note_on_c, 1, 48, 0
3, 36000, Note_on_c, 1, 55, 100
3, 36000, Note_on_c, 1, 43, 100
3, 36960, Note_on_c, 1, 43, 0
3, 36960, Note_on_c, 1, 55, 0
3, 37440, Note_on_c, 1, 36, 100
3, 38160, Note_on_c, 1, 36, 0
3, 40320, Note_on_c, 1, 38, 100
3, 40320, Note_on_c, 1, 47, 100
3, 41040, Note_on_c, 1, 47, 0
3, 41040, Note_on_c, 1, 38, 0
3, 43200, Note_on_c, 1, 39, 100
3, 43920, Note_on_c, 1, 39, 0
3, 46080, Note_on_c, 1, 48, 100
3, 46080, Note_on_c, 1, 56, 100
3, 46800, Note_on_c, 1, 56, 0
3, 46800, Note_on_c, 1, 48, 0
3, 46800, Note_on_c, 1, 53, 100
3, 47040, Note_on_c, 1, 53, 0
3, 47520, Note_on_c, 1, 51, 100
3, 48000, Note_on_c, 1, 51, 0
3, 48000, Note_on_c, 1, 50, 100
3, 48720, Note_on_c, 1, 50, 0
3, 48720, Note_on_c, 1, 55, 100
3, 48960, Note_on_c, 1, 55, 0
3, 48960, Note_on_c, 1, 51, 100
3, 49680, Note_on_c, 1, 51, 0
3, 49680, Note_on_c, 1, 50, 100
3, 49920, Note_on_c, 1, 50, 0
3, 49920, Note_on_c, 1, 48, 100
3, 50160, Note_on_c, 1, 48, 0
3, 50160, Note_on_c, 1, 50, 100
3, 50400, Note_on_c, 1, 50, 0
3, 50400, Note_on_c, 1, 51, 100
3, 50640, Note_on_c, 1, 51, 0
3, 50640, Note_on_c, 1, 53, 100
3, 50880, Note_on_c, 1, 53, 0
3, 50880, Note_on_c, 1, 55, 100
3, 51120, Note_on_c, 1, 55, 0
3, 51120, Note_on_c, 1, 56, 100
3, 51360, Note_on_c, 1, 56, 0
3, 51360, Note_on_c, 1, 60, 100
3, 51600, Note_on_c, 1, 60, 0
3, 51600, Note_on_c, 1, 58, 100
3, 51840, Note_on_c, 1, 58, 0
3, 51840, Note_on_c, 1, 58, 100
3, 52560, Note_on_c, 1, 58, 0
3, 52560, Note_on_c, 1, 56, 100
3, 52800, Note_on_c, 1, 56, 0
3, 52800, Note_on_c, 1, 55, 100
3, 53040, Note_on_c, 1, 55, 0
3, 53040, Note_on_c, 1, 53, 100
3, 53280, Note_on_c, 1, 53, 0
3, 53280, Note_on_c, 1, 51, 100
3, 53520, Note_on_c, 1, 51, 0
3, 53520, Note_on_c, 1, 50, 100
3, 53760, Note_on_c, 1, 50, 0
3, 53760, Note_on_c, 1, 50, 100
3, 54000, Note_on_c, 1, 50, 0
3, 54000, Note_on_c, 1, 51, 100
3, 54240, Note_on_c, 1, 51, 0
3, 54240, Note_on_c, 1, 45, 100
3, 54600, Note_on_c, 1, 45, 0
3, 54600, Note_on_c, 1, 53, 100
3, 54720, Note_on_c, 1, 53, 0
3, 54720, Note_on_c, 1, 51, 100
3, 54960, Note_on_c, 1, 51, 0
3, 54960, Note_on_c, 1, 50, 100
3, 55200, Note_on_c, 1, 50, 0
3, 55200, Note_on_c, 1, 48, 100
3, 55440, Note_on_c, 1, 48, 0
3, 55440, Note_on_c, 1, 46, 100
3, 55680, Note_on_c, 1, 46, 0
3, 55680, Note_on_c, 1, 58, 100
3, 56400, Note_on_c, 1, 58, 0
3, 56400, Note_on_c, 1, 60, 100
3, 56640, Note_on_c, 1, 60, 0
3, 56640, Note_on_c, 1, 58, 100
3, 56880, Note_on_c, 1, 58, 0
3, 56880, Note_on_c, 1, 57, 100
3, 57120, Note_on_c, 1, 57, 0
3, 57120, Note_on_c, 1, 58, 100
3, 57360, Note_on_c, 1, 58, 0
3, 57360, Note_on_c, 1, 55, 100
3, 57600, Note_on_c, 1, 55, 0
3, 57600, Note_on_c, 1, 60, 100
3, 58320, Note_on_c, 1, 60, 0
3, 58320, Note_on_c, 1, 58, 100
3, 58560, Note_on_c, 1, 58, 0
3, 58560, Note_on_c, 1, 58, 100
3, 58800, Note_on_c, 1, 58, 0
3, 58800, Note_on_c, 1, 57, 100
3, 59040, Note_on_c, 1, 57, 0
3, 59040, Note_on_c, 1, 55, 100
3, 59280, Note_on_c, 1, 55, 0
3, 59280, Note_on_c, 1, 54, 100
3, 59520, Note_on_c, 1, 54, 0
3, 59520, Note_on_c, 1, 55, 100
3, 60240, Note_on_c, 1, 55, 0
3, 60240, Note_on_c, 1, 57, 100
3, 60480, Note_on_c, 1, 57, 0
3, 60480, Note_on_c, 1, 55, 100
3, 60720, Note_on_c, 1, 55, 0
3, 60720, Note_on_c, 1, 54, 100
3, 60960, Note_on_c, 1, 54, 0
3, 60960, Note_on_c, 1, 52, 100
3, 61200, Note_on_c, 1, 52, 0
3, 61200, Note_on_c, 1, 50, 100
3, 61440, Note_on_c, 1, 50, 0
3, 61920, Note_on_c, 1, 53, 100
3, 62400, Note_on_c, 1, 53, 0
3, 62400, Note_on_c, 1, 51, 100
3, 62880, Note_on_c, 1, 51, 0
3, 62880, Note_on_c, 1, 50, 100
3, 63360, Note_on_c, 1, 50, 0
3, 63360, Note_on_c, 1, 55, 100
3, 63360, Note_on_c, 1, 48, 100
3, 64080, Note_on_c, 1, 48, 0
3, 64080, Note_on_c, 1, 55, 0
3, 67200, Note_on_c, 1, 50, 100
3, 67200, Note_on_c, 1, 43, 100
3, 67680, Note_on_c, 1, 43, 0
3, 67680, Note_on_c, 1, 50, 0
3, 67680, Note_on_c, 1, 48, 100
3, 68040, Note_on_c, 1, 48, 0
3, 68040, Note_on_c, 1, 57, 100
3, 68160, Note_on_c, 1, 57, 0
3, 68160, Note_on_c, 1, 57, 100
3, 68880, Note_on_c, 1, 57, 0
3, 68880, Note_on_c, 1, 55, 100
3, 69120, Note_on_c, 1, 55, 0
3, 69120, Note_on_c, 1, 55, 100
3, 69720, Note_on_c, 1, 55, 0
3, 69720, Note_on_c, 1, 53, 100
3, 69840, Note_on_c, 1, 53, 0
3, 69840, Note_on_c, 1, 51, 100
3, 69960, Note_on_c, 1, 51, 0
3, 69960, Note_on_c, 1, 50, 100
3, 70080, Note_on_c, 1, 50, 0
3, 70080, Note_on_c, 1, 51, 100
3, 70440, Note_on_c, 1, 51, 0
3, 70440, Note_on_c, 1, 48, 100
3, 70560, Note_on_c, 1, 48, 0
3, 70560, Note_on_c, 1, 55, 100
3, 70560, Note_on_c, 1, 43, 100
3, 71520, Note_on_c, 1, 43, 0
3, 71520, Note_on_c, 1, 55, 0
3, 93600, Note_on_c, 1, 51, 100
3, 94080, Note_on_c, 1, 51, 0
3, 94080, Note_on_c, 1, 53, 100
3, 94560, Note_on_c, 1, 53, 0
3, 100800, Note_on_c, 1, 47, 100
3, 101280, Note_on_c, 1, 47, 0
3, 101280, Note_on_c, 1, 43, 100
3, 101760, Note_on_c, 1, 43, 0
3, 101760, Note_on_c, 1, 48, 100
3, 102240, Note_on_c, 1, 48, 0
3, 102240, Note_on_c, 1, 41, 100
3, 102480, Note_on_c, 1, 41, 0
3, 102480, Note_on_c, 1, 50, 100
3, 102720, Note_on_c, 1, 50, 0
3, 102720, Note_on_c, 1, 43, 100
3, 103440, Note_on_c, 1, 43, 0
3, 103440, Note_on_c, 1, 48, 100
3, 103680, Note_on_c, 1, 48, 0
3, 103680, Note_on_c, 1, 48, 100
3, 104400, Note_on_c, 1, 48, 0
3, 104400, Note_on_c, 1, 43, 100
3, 104520, Note_on_c, 1, 43, 0
3, 104520, Note_on_c, 1, 41, 100
3, 104640, Note_on_c, 1, 41, 0
3, 104640, Note_on_c, 1, 39, 100
3, 104760, Note_on_c, 1, 39, 0
3, 104760, Note_on_c, 1, 41, 100
3, 104880, Note_on_c, 1, 41, 0
3, 104880, Note_on_c, 1, 43, 100
3, 105120, Note_on_c, 1, 43, 0
3, 105120, Note_on_c, 1, 36, 100
3, 106080, Note_on_c, 1, 36, 0
3, 128160, Note_on_c, 1, 51, 100
3, 128640, Note_on_c, 1, 51, 0
3, 128640, Note_on_c, 1, 53, 100
3, 129120, Note_on_c, 1, 53, 0
3, 135360, Note_on_c, 1, 47, 100
3, 135840, Note_on_c, 1, 47, 0
3, 135840, Note_on_c, 1, 43, 100
3, 136320, Note_on_c, 1, 43, 0
3, 136320, Note_on_c, 1, 48, 100
3, 136800, Note_on_c, 1, 48, 0
3, 136800, Note_on_c, 1, 41, 100
3, 137040, Note_on_c, 1, 41, 0
3, 137040, Note_on_c, 1, 50, 100
3, 137280, Note_on_c, 1, 50, 0
3, 137280, Note_on_c, 1, 43, 100
3, 138000, Note_on_c, 1, 43, 0
3, 138000, Note_on_c, 1, 48, 100
3, 138240, Note_on_c, 1, 48, 0
3, 138240, Note_on_c, 1, 48, 100
3, 138960, Note_on_c, 1, 48, 0
3, 138960, Note_on_c, 1, 43, 100
3, 139080, Note_on_c, 1, 43, 0
3, 139080, Note_on_c, 1, 41, 100
3, 139200, Note_on_c, 1, 41, 0
3, 139200, Note_on_c, 1, 39, 100
3, 139320, Note_on_c, 1, 39, 0
3, 139320, Note_on_c, 1, 41, 100
3, 139440, Note_on_c, 1, 41, 0
3, 139440, Note_on_c, 1, 43, 100
3, 139680, Note_on_c, 1, 43, 0
3, 139680, Note_on_c, 1, 36, 100
3, 140640, Note_on_c, 1, 36, 0
3, 140640, End_track
4, 0, Start_track
4, 0, MIDI_port, 0
4, 0, Title_t, "Johann Sebastian Bach  (1685-1750)"
4, 0, End_track
5, 0, Start_track
5, 0, MIDI_port, 0
5, 0, Title_t, "Six Suites for Solo Cello"
5, 0, End_track
6, 0, Start_track
6, 0, MIDI_port, 0
6, 0, Title_t, "--------------------------------------"
6, 0, End_track
7, 0, Start_track
7, 0, MIDI_port, 0
7, 0, Title_t, "Suite No. 5 in C minor - BWV 1011"
7, 0, End_track
8, 0, Start_track
8, 0, MIDI_port, 0
8, 0, Title_t, "3rd Movement: Courante"
8, 0, End_track
9, 0, Start_track
9, 0, MIDI_port, 0
9, 0, Title_t, "--------------------------------------"
9, 0, End_track
10, 0, Start_track
10, 0, MIDI_port, 0
10, 0, Title_t, "Sequenced with Cakewalk Pro Audio by"
10, 0, End_track
11, 0, Start_track
11, 0, MIDI_port, 0
11, 0, Title_t, "David J. Grossman - dave@unpronounceable.com"
11, 0, End_track
12, 0, Start_track
12, 0, MIDI_port, 0
12, 0, Title_t, "This and other Bach MIDI files can be found at:"
12, 0, End_track
13, 0, Start_track
13, 0, MIDI_port, 0
13, 0, Title_t, "Dave's J.S. Bach Page"
13, 0, End_track
14, 0, Start_track
14, 0, MIDI_port, 0
14, 0, Title_t, "http://www.unpronounceable.com/bach"
14, 0, End_track
15, 0, Start_track
15, 0, MIDI_port, 0
15, 0, Title_t, "--------------------------------------"
15, 0, End_track
16, 0, Start_track
16, 0, MIDI_port, 0
16, 0, Title_t, "Original Filename: cs5-3cou.mid"
16, 0, End_track
17, 0, Start_track
17, 0, MIDI_port, 0
17, 0, Title_t, "Last Modified: February 22, 1997"
17, 0, End_track
0, 0, End_of_file
