0, 0, Header, 1, 17, 480
1, 0, Start_track
1, 0, Title_t, "untitled"
1, 0, Copyright_t, "Copyright © 1996 by David J. Grossman"
1, 0, Text_t, "David J. Grossman"
1, 0, SMPTE_offset, 96, 0, 3, 0, 0
1, 0, Time_signature, 3, 3, 12, 8
1, 0, Key_signature, -3, "major"
1, 0, Tempo, 240000
1, 480, Tempo, 600000
1, 720, Marker_t, "A"
1, 18000, Marker_t, "A'"
1, 35280, Marker_t, "B"
1, 69840, Marker_t, "B'"
1, 69840, End_track
2, 0, Start_track
2, 0, MIDI_port, 0
2, 0, Title_t, "Solo Cello"
2, 0, Program_c, 0, 42
2, 0, Control_c, 0, 7, 100
2, 0, Control_c, 0, 10, 64
2, 480, Note_on_c, 0, 55, 100
2, 720, Note_on_c, 0, 55, 0
2, 720, Note_on_c, 0, 51, 100
2, 1080, Note_on_c, 0, 51, 0
2, 1080, Note_on_c, 0, 53, 100
2, 1200, Note_on_c, 0, 53, 0
2, 1200, Note_on_c, 0, 50, 100
2, 1440, Note_on_c, 0, 50, 0
2, 1440, Note_on_c, 0, 51, 100
2, 1800, Note_on_c, 0, 51, 0
2, 1800, Note_on_c, 0, 53, 100
2, 1920, Note_on_c, 0, 53, 0
2, 1920, Note_on_c, 0, 50, 100
2, 2160, Note_on_c, 0, 50, 0
2, 2160, Note_on_c, 0, 48, 100
2, 2520, Note_on_c, 0, 48, 0
2, 2520, Note_on_c, 0, 46, 100
2, 2640, Note_on_c, 0, 46, 0
2, 2640, Note_on_c, 0, 44, 100
2, 2760, Note_on_c, 0, 44, 0
2, 2760, Note_on_c, 0, 43, 100
2, 2880, Note_on_c, 0, 43, 0
2, 2880, Note_on_c, 0, 44, 100
2, 3240, Note_on_c, 0, 44, 0
2, 3240, Note_on_c, 0, 48, 100
2, 3360, Note_on_c, 0, 48, 0
2, 3360, Note_on_c, 0, 43, 100
2, 3600, Note_on_c, 0, 43, 0
2, 3600, Note_on_c, 0, 41, 100
2, 3960, Note_on_c, 0, 41, 0
2, 3960, Note_on_c, 0, 51, 100
2, 4080, Note_on_c, 0, 51, 0
2, 4080, Note_on_c, 0, 48, 100
2, 4320, Note_on_c, 0, 48, 0
2, 4320, Note_on_c, 0, 50, 100
2, 4680, Note_on_c, 0, 50, 0
2, 4680, Note_on_c, 0, 51, 100
2, 4800, Note_on_c, 0, 51, 0
2, 4800, Note_on_c, 0, 48, 100
2, 5040, Note_on_c, 0, 48, 0
2, 5040, Note_on_c, 0, 47, 100
2, 5400, Note_on_c, 0, 47, 0
2, 5400, Note_on_c, 0, 50, 100
2, 5520, Note_on_c, 0, 50, 0
2, 5520, Note_on_c, 0, 43, 100
2, 5760, Note_on_c, 0, 43, 0
2, 5760, Note_on_c, 0, 55, 100
2, 6120, Note_on_c, 0, 55, 0
2, 6120, Note_on_c, 0, 53, 100
2, 6240, Note_on_c, 0, 53, 0
2, 6240, Note_on_c, 0, 51, 100
2, 6360, Note_on_c, 0, 51, 0
2, 6360, Note_on_c, 0, 50, 100
2, 6480, Note_on_c, 0, 50, 0
2, 6480, Note_on_c, 0, 51, 100
2, 6840, Note_on_c, 0, 51, 0
2, 6840, Note_on_c, 0, 55, 100
2, 6960, Note_on_c, 0, 55, 0
2, 6960, Note_on_c, 0, 48, 100
2, 7200, Note_on_c, 0, 48, 0
2, 7200, Note_on_c, 0, 56, 100
2, 7560, Note_on_c, 0, 56, 0
2, 7560, Note_on_c, 0, 55, 100
2, 7680, Note_on_c, 0, 55, 0
2, 7680, Note_on_c, 0, 53, 100
2, 7800, Note_on_c, 0, 53, 0
2, 7800, Note_on_c, 0, 51, 100
2, 7920, Note_on_c, 0, 51, 0
2, 7920, Note_on_c, 0, 53, 100
2, 8280, Note_on_c, 0, 53, 0
2, 8280, Note_on_c, 0, 56, 100
2, 8400, Note_on_c, 0, 56, 0
2, 8400, Note_on_c, 0, 50, 100
2, 8640, Note_on_c, 0, 50, 0
2, 8640, Note_on_c, 0, 58, 100
2, 9000, Note_on_c, 0, 58, 0
2, 9000, Note_on_c, 0, 56, 100
2, 9120, Note_on_c, 0, 56, 0
2, 9120, Note_on_c, 0, 55, 100
2, 9240, Note_on_c, 0, 55, 0
2, 9240, Note_on_c, 0, 53, 100
2, 9360, Note_on_c, 0, 53, 0
2, 9360, Note_on_c, 0, 55, 100
2, 9720, Note_on_c, 0, 55, 0
2, 9720, Note_on_c, 0, 51, 100
2, 9840, Note_on_c, 0, 51, 0
2, 9840, Note_on_c, 0, 60, 100
2, 10080, Note_on_c, 0, 60, 0
2, 10080, Note_on_c, 0, 56, 100
2, 10440, Note_on_c, 0, 56, 0
2, 10440, Note_on_c, 0, 53, 100
2, 10560, Note_on_c, 0, 53, 0
2, 10560, Note_on_c, 0, 62, 100
2, 10800, Note_on_c, 0, 62, 0
2, 10800, Note_on_c, 0, 63, 100
2, 11880, Note_on_c, 0, 63, 0
2, 11880, Note_on_c, 0, 62, 100
2, 12000, Note_on_c, 0, 62, 0
2, 12000, Note_on_c, 0, 60, 100
2, 12120, Note_on_c, 0, 60, 0
2, 12120, Note_on_c, 0, 58, 100
2, 12240, Note_on_c, 0, 58, 0
2, 12240, Note_on_c, 0, 60, 100
2, 12600, Note_on_c, 0, 60, 0
2, 12600, Note_on_c, 0, 58, 100
2, 12720, Note_on_c, 0, 58, 0
2, 12720, Note_on_c, 0, 56, 100
2, 12840, Note_on_c, 0, 56, 0
2, 12840, Note_on_c, 0, 55, 100
2, 12960, Note_on_c, 0, 55, 0
2, 12960, Note_on_c, 0, 56, 100
2, 14040, Note_on_c, 0, 56, 0
2, 14040, Note_on_c, 0, 55, 100
2, 14160, Note_on_c, 0, 55, 0
2, 14160, Note_on_c, 0, 53, 100
2, 14280, Note_on_c, 0, 53, 0
2, 14280, Note_on_c, 0, 51, 100
2, 14400, Note_on_c, 0, 51, 0
2, 14400, Note_on_c, 0, 50, 100
2, 14760, Note_on_c, 0, 50, 0
2, 14760, Note_on_c, 0, 48, 100
2, 14880, Note_on_c, 0, 48, 0
2, 14880, Note_on_c, 0, 46, 100
2, 15000, Note_on_c, 0, 46, 0
2, 15000, Note_on_c, 0, 44, 100
2, 15120, Note_on_c, 0, 44, 0
2, 15120, Note_on_c, 0, 43, 100
2, 15480, Note_on_c, 0, 43, 0
2, 15480, Note_on_c, 0, 56, 100
2, 15600, Note_on_c, 0, 56, 0
2, 15600, Note_on_c, 0, 53, 100
2, 15840, Note_on_c, 0, 53, 0
2, 15840, Note_on_c, 0, 55, 100
2, 16200, Note_on_c, 0, 55, 0
2, 16200, Note_on_c, 0, 58, 100
2, 16320, Note_on_c, 0, 58, 0
2, 16320, Note_on_c, 0, 50, 100
2, 16560, Note_on_c, 0, 50, 0
2, 16560, Note_on_c, 0, 51, 100
2, 16920, Note_on_c, 0, 51, 0
2, 16920, Note_on_c, 0, 43, 100
2, 17040, Note_on_c, 0, 43, 0
2, 17040, Note_on_c, 0, 46, 100
2, 17280, Note_on_c, 0, 46, 0
2, 17280, Note_on_c, 0, 39, 100
2, 17760, Note_on_c, 0, 39, 0
2, 17760, Note_on_c, 0, 55, 100
2, 18000, Note_on_c, 0, 55, 0
2, 18000, Note_on_c, 0, 51, 100
2, 18360, Note_on_c, 0, 51, 0
2, 18360, Note_on_c, 0, 53, 100
2, 18480, Note_on_c, 0, 53, 0
2, 18480, Note_on_c, 0, 50, 100
2, 18720, Note_on_c, 0, 50, 0
2, 18720, Note_on_c, 0, 51, 100
2, 19080, Note_on_c, 0, 51, 0
2, 19080, Note_on_c, 0, 53, 100
2, 19200, Note_on_c, 0, 53, 0
2, 19200, Note_on_c, 0, 50, 100
2, 19440, Note_on_c, 0, 50, 0
2, 19440, Note_on_c, 0, 48, 100
2, 19800, Note_on_c, 0, 48, 0
2, 19800, Note_on_c, 0, 46, 100
2, 19920, Note_on_c, 0, 46, 0
2, 19920, Note_on_c, 0, 44, 100
2, 20040, Note_on_c, 0, 44, 0
2, 20040, Note_on_c, 0, 43, 100
2, 20160, Note_on_c, 0, 43, 0
2, 20160, Note_on_c, 0, 44, 100
2, 20520, Note_on_c, 0, 44, 0
2, 20520, Note_on_c, 0, 48, 100
2, 20640, Note_on_c, 0, 48, 0
2, 20640, Note_on_c, 0, 43, 100
2, 20880, Note_on_c, 0, 43, 0
2, 20880, Note_on_c, 0, 41, 100
2, 21240, Note_on_c, 0, 41, 0
2, 21240, Note_on_c, 0, 51, 100
2, 21360, Note_on_c, 0, 51, 0
2, 21360, Note_on_c, 0, 48, 100
2, 21600, Note_on_c, 0, 48, 0
2, 21600, Note_on_c, 0, 50, 100
2, 21960, Note_on_c, 0, 50, 0
2, 21960, Note_on_c, 0, 51, 100
2, 22080, Note_on_c, 0, 51, 0
2, 22080, Note_on_c, 0, 48, 100
2, 22320, Note_on_c, 0, 48, 0
2, 22320, Note_on_c, 0, 47, 100
2, 22680, Note_on_c, 0, 47, 0
2, 22680, Note_on_c, 0, 50, 100
2, 22800, Note_on_c, 0, 50, 0
2, 22800, Note_on_c, 0, 43, 100
2, 23040, Note_on_c, 0, 43, 0
2, 23040, Note_on_c, 0, 55, 100
2, 23400, Note_on_c, 0, 55, 0
2, 23400, Note_on_c, 0, 53, 100
2, 23520, Note_on_c, 0, 53, 0
2, 23520, Note_on_c, 0, 51, 100
2, 23640, Note_on_c, 0, 51, 0
2, 23640, Note_on_c, 0, 50, 100
2, 23760, Note_on_c, 0, 50, 0
2, 23760, Note_on_c, 0, 51, 100
2, 24120, Note_on_c, 0, 51, 0
2, 24120, Note_on_c, 0, 55, 100
2, 24240, Note_on_c, 0, 55, 0
2, 24240, Note_on_c, 0, 48, 100
2, 24480, Note_on_c, 0, 48, 0
2, 24480, Note_on_c, 0, 56, 100
2, 24840, Note_on_c, 0, 56, 0
2, 24840, Note_on_c, 0, 55, 100
2, 24960, Note_on_c, 0, 55, 0
2, 24960, Note_on_c, 0, 53, 100
2, 25080, Note_on_c, 0, 53, 0
2, 25080, Note_on_c, 0, 51, 100
2, 25200, Note_on_c, 0, 51, 0
2, 25200, Note_on_c, 0, 53, 100
2, 25560, Note_on_c, 0, 53, 0
2, 25560, Note_on_c, 0, 56, 100
2, 25680, Note_on_c, 0, 56, 0
2, 25680, Note_on_c, 0, 50, 100
2, 25920, Note_on_c, 0, 50, 0
2, 25920, Note_on_c, 0, 58, 100
2, 26280, Note_on_c, 0, 58, 0
2, 26280, Note_on_c, 0, 56, 100
2, 26400, Note_on_c, 0, 56, 0
2, 26400, Note_on_c, 0, 55, 100
2, 26520, Note_on_c, 0, 55, 0
2, 26520, Note_on_c, 0, 53, 100
2, 26640, Note_on_c, 0, 53, 0
2, 26640, Note_on_c, 0, 55, 100
2, 27000, Note_on_c, 0, 55, 0
2, 27000, Note_on_c, 0, 51, 100
2, 27120, Note_on_c, 0, 51, 0
2, 27120, Note_on_c, 0, 60, 100
2, 27360, Note_on_c, 0, 60, 0
2, 27360, Note_on_c, 0, 56, 100
2, 27720, Note_on_c, 0, 56, 0
2, 27720, Note_on_c, 0, 53, 100
2, 27840, Note_on_c, 0, 53, 0
2, 27840, Note_on_c, 0, 62, 100
2, 28080, Note_on_c, 0, 62, 0
2, 28080, Note_on_c, 0, 63, 100
2, 29160, Note_on_c, 0, 63, 0
2, 29160, Note_on_c, 0, 62, 100
2, 29280, Note_on_c, 0, 62, 0
2, 29280, Note_on_c, 0, 60, 100
2, 29400, Note_on_c, 0, 60, 0
2, 29400, Note_on_c, 0, 58, 100
2, 29520, Note_on_c, 0, 58, 0
2, 29520, Note_on_c, 0, 60, 100
2, 29880, Note_on_c, 0, 60, 0
2, 29880, Note_on_c, 0, 58, 100
2, 30000, Note_on_c, 0, 58, 0
2, 30000, Note_on_c, 0, 56, 100
2, 30120, Note_on_c, 0, 56, 0
2, 30120, Note_on_c, 0, 55, 100
2, 30240, Note_on_c, 0, 55, 0
2, 30240, Note_on_c, 0, 56, 100
2, 31320, Note_on_c, 0, 56, 0
2, 31320, Note_on_c, 0, 55, 100
2, 31440, Note_on_c, 0, 55, 0
2, 31440, Note_on_c, 0, 53, 100
2, 31560, Note_on_c, 0, 53, 0
2, 31560, Note_on_c, 0, 51, 100
2, 31680, Note_on_c, 0, 51, 0
2, 31680, Note_on_c, 0, 50, 100
2, 32040, Note_on_c, 0, 50, 0
2, 32040, Note_on_c, 0, 48, 100
2, 32160, Note_on_c, 0, 48, 0
2, 32160, Note_on_c, 0, 46, 100
2, 32280, Note_on_c, 0, 46, 0
2, 32280, Note_on_c, 0, 44, 100
2, 32400, Note_on_c, 0, 44, 0
2, 32400, Note_on_c, 0, 43, 100
2, 32760, Note_on_c, 0, 43, 0
2, 32760, Note_on_c, 0, 56, 100
2, 32880, Note_on_c, 0, 56, 0
2, 32880, Note_on_c, 0, 53, 100
2, 33120, Note_on_c, 0, 53, 0
2, 33120, Note_on_c, 0, 55, 100
2, 33480, Note_on_c, 0, 55, 0
2, 33480, Note_on_c, 0, 58, 100
2, 33600, Note_on_c, 0, 58, 0
2, 33600, Note_on_c, 0, 50, 100
2, 33840, Note_on_c, 0, 50, 0
2, 33840, Note_on_c, 0, 51, 100
2, 34200, Note_on_c, 0, 51, 0
2, 34200, Note_on_c, 0, 43, 100
2, 34320, Note_on_c, 0, 43, 0
2, 34320, Note_on_c, 0, 46, 100
2, 34560, Note_on_c, 0, 46, 0
2, 34560, Note_on_c, 0, 39, 100
2, 35040, Note_on_c, 0, 39, 0
2, 35040, Note_on_c, 0, 51, 100
2, 35280, Note_on_c, 0, 51, 0
2, 35280, Note_on_c, 0, 55, 100
2, 35640, Note_on_c, 0, 55, 0
2, 35640, Note_on_c, 0, 56, 100
2, 35760, Note_on_c, 0, 56, 0
2, 35760, Note_on_c, 0, 53, 100
2, 36000, Note_on_c, 0, 53, 0
2, 36000, Note_on_c, 0, 55, 100
2, 36360, Note_on_c, 0, 55, 0
2, 36360, Note_on_c, 0, 58, 100
2, 36480, Note_on_c, 0, 58, 0
2, 36480, Note_on_c, 0, 57, 100
2, 36720, Note_on_c, 0, 57, 0
2, 36720, Note_on_c, 0, 58, 100
2, 37080, Note_on_c, 0, 58, 0
2, 37080, Note_on_c, 0, 50, 100
2, 37200, Note_on_c, 0, 50, 0
2, 37200, Note_on_c, 0, 51, 100
2, 37320, Note_on_c, 0, 51, 0
2, 37320, Note_on_c, 0, 53, 100
2, 37440, Note_on_c, 0, 53, 0
2, 37440, Note_on_c, 0, 46, 100
2, 37800, Note_on_c, 0, 46, 0
2, 37800, Note_on_c, 0, 48, 100
2, 37920, Note_on_c, 0, 48, 0
2, 37920, Note_on_c, 0, 50, 100
2, 38160, Note_on_c, 0, 50, 0
2, 38160, Note_on_c, 0, 51, 100
2, 38520, Note_on_c, 0, 51, 0
2, 38520, Note_on_c, 0, 60, 100
2, 38640, Note_on_c, 0, 60, 0
2, 38640, Note_on_c, 0, 57, 100
2, 38880, Note_on_c, 0, 57, 0
2, 38880, Note_on_c, 0, 58, 100
2, 39240, Note_on_c, 0, 58, 0
2, 39240, Note_on_c, 0, 54, 100
2, 39360, Note_on_c, 0, 54, 0
2, 39360, Note_on_c, 0, 55, 100
2, 39600, Note_on_c, 0, 55, 0
2, 39600, Note_on_c, 0, 54, 100
2, 39960, Note_on_c, 0, 54, 0
2, 39960, Note_on_c, 0, 57, 100
2, 40080, Note_on_c, 0, 57, 0
2, 40080, Note_on_c, 0, 50, 100
2, 40320, Note_on_c, 0, 50, 0
2, 40320, Note_on_c, 0, 62, 100
2, 40680, Note_on_c, 0, 62, 0
2, 40680, Note_on_c, 0, 60, 100
2, 40800, Note_on_c, 0, 60, 0
2, 40800, Note_on_c, 0, 58, 100
2, 40920, Note_on_c, 0, 58, 0
2, 40920, Note_on_c, 0, 57, 100
2, 41040, Note_on_c, 0, 57, 0
2, 41040, Note_on_c, 0, 58, 100
2, 41400, Note_on_c, 0, 58, 0
2, 41400, Note_on_c, 0, 62, 100
2, 41520, Note_on_c, 0, 62, 0
2, 41520, Note_on_c, 0, 55, 100
2, 41760, Note_on_c, 0, 55, 0
2, 41760, Note_on_c, 0, 53, 100
2, 42120, Note_on_c, 0, 53, 0
2, 42120, Note_on_c, 0, 55, 100
2, 42240, Note_on_c, 0, 55, 0
2, 42240, Note_on_c, 0, 50, 100
2, 42480, Note_on_c, 0, 50, 0
2, 42480, Note_on_c, 0, 51, 100
2, 42840, Note_on_c, 0, 51, 0
2, 42840, Note_on_c, 0, 55, 100
2, 42960, Note_on_c, 0, 55, 0
2, 42960, Note_on_c, 0, 60, 100
2, 43200, Note_on_c, 0, 60, 0
2, 43200, Note_on_c, 0, 63, 100
2, 43680, Note_on_c, 0, 63, 0
2, 43680, Note_on_c, 0, 62, 100
2, 43920, Note_on_c, 0, 62, 0
2, 43920, Note_on_c, 0, 60, 100
2, 44280, Note_on_c, 0, 60, 0
2, 44280, Note_on_c, 0, 54, 100
2, 44400, Note_on_c, 0, 54, 0
2, 44400, Note_on_c, 0, 55, 100
2, 44640, Note_on_c, 0, 55, 0
2, 44640, Note_on_c, 0, 50, 100
2, 45000, Note_on_c, 0, 50, 0
2, 45000, Note_on_c, 0, 57, 100
2, 45120, Note_on_c, 0, 57, 0
2, 45120, Note_on_c, 0, 54, 100
2, 45360, Note_on_c, 0, 54, 0
2, 45360, Note_on_c, 0, 55, 100
2, 45720, Note_on_c, 0, 55, 0
2, 45720, Note_on_c, 0, 46, 100
2, 45840, Note_on_c, 0, 46, 0
2, 45840, Note_on_c, 0, 48, 100
2, 45960, Note_on_c, 0, 48, 0
2, 45960, Note_on_c, 0, 50, 100
2, 46080, Note_on_c, 0, 50, 0
2, 46080, Note_on_c, 0, 43, 100
2, 46440, Note_on_c, 0, 43, 0
2, 46440, Note_on_c, 0, 58, 100
2, 46560, Note_on_c, 0, 58, 0
2, 46560, Note_on_c, 0, 55, 100
2, 46800, Note_on_c, 0, 55, 0
2, 46800, Note_on_c, 0, 52, 100
2, 47160, Note_on_c, 0, 52, 0
2, 47160, Note_on_c, 0, 55, 100
2, 47280, Note_on_c, 0, 55, 0
2, 47280, Note_on_c, 0, 58, 100
2, 47520, Note_on_c, 0, 58, 0
2, 47520, Note_on_c, 0, 61, 100
2, 47880, Note_on_c, 0, 61, 0
2, 47880, Note_on_c, 0, 58, 100
2, 48000, Note_on_c, 0, 58, 0
2, 48000, Note_on_c, 0, 60, 100
2, 48240, Note_on_c, 0, 60, 0
2, 48240, Note_on_c, 0, 56, 100
2, 48600, Note_on_c, 0, 56, 0
2, 48600, Note_on_c, 0, 55, 100
2, 48720, Note_on_c, 0, 55, 0
2, 48720, Note_on_c, 0, 53, 100
2, 48840, Note_on_c, 0, 53, 0
2, 48840, Note_on_c, 0, 52, 100
2, 48960, Note_on_c, 0, 52, 0
2, 48960, Note_on_c, 0, 53, 100
2, 49320, Note_on_c, 0, 53, 0
2, 49320, Note_on_c, 0, 56, 100
2, 49440, Note_on_c, 0, 56, 0
2, 49440, Note_on_c, 0, 51, 100
2, 49680, Note_on_c, 0, 51, 0
2, 49680, Note_on_c, 0, 50, 100
2, 50040, Note_on_c, 0, 50, 0
2, 50040, Note_on_c, 0, 53, 100
2, 50160, Note_on_c, 0, 53, 0
2, 50160, Note_on_c, 0, 56, 100
2, 50400, Note_on_c, 0, 56, 0
2, 50400, Note_on_c, 0, 60, 100
2, 50760, Note_on_c, 0, 60, 0
2, 50760, Note_on_c, 0, 56, 100
2, 50880, Note_on_c, 0, 56, 0
2, 50880, Note_on_c, 0, 58, 100
2, 51120, Note_on_c, 0, 58, 0
2, 51120, Note_on_c, 0, 55, 100
2, 51480, Note_on_c, 0, 55, 0
2, 51480, Note_on_c, 0, 53, 100
2, 51600, Note_on_c, 0, 53, 0
2, 51600, Note_on_c, 0, 51, 100
2, 51720, Note_on_c, 0, 51, 0
2, 51720, Note_on_c, 0, 50, 100
2, 51840, Note_on_c, 0, 50, 0
2, 51840, Note_on_c, 0, 51, 100
2, 52200, Note_on_c, 0, 51, 0
2, 52200, Note_on_c, 0, 55, 100
2, 52320, Note_on_c, 0, 55, 0
2, 52320, Note_on_c, 0, 58, 100
2, 52560, Note_on_c, 0, 58, 0
2, 52560, Note_on_c, 0, 57, 100
2, 52920, Note_on_c, 0, 57, 0
2, 52920, Note_on_c, 0, 53, 100
2, 53040, Note_on_c, 0, 53, 0
2, 53040, Note_on_c, 0, 51, 100
2, 53160, Note_on_c, 0, 51, 0
2, 53160, Note_on_c, 0, 50, 100
2, 53280, Note_on_c, 0, 50, 0
2, 53280, Note_on_c, 0, 51, 100
2, 53640, Note_on_c, 0, 51, 0
2, 53640, Note_on_c, 0, 57, 100
2, 53760, Note_on_c, 0, 57, 0
2, 53760, Note_on_c, 0, 60, 100
2, 54000, Note_on_c, 0, 60, 0
2, 54000, Note_on_c, 0, 59, 100
2, 54360, Note_on_c, 0, 59, 0
2, 54360, Note_on_c, 0, 55, 100
2, 54480, Note_on_c, 0, 55, 0
2, 54480, Note_on_c, 0, 53, 100
2, 54600, Note_on_c, 0, 53, 0
2, 54600, Note_on_c, 0, 51, 100
2, 54720, Note_on_c, 0, 51, 0
2, 54720, Note_on_c, 0, 53, 100
2, 55080, Note_on_c, 0, 53, 0
2, 55080, Note_on_c, 0, 59, 100
2, 55200, Note_on_c, 0, 59, 0
2, 55200, Note_on_c, 0, 62, 100
2, 55440, Note_on_c, 0, 62, 0
2, 55440, Note_on_c, 0, 60, 100
2, 55800, Note_on_c, 0, 60, 0
2, 55800, Note_on_c, 0, 55, 100
2, 55920, Note_on_c, 0, 55, 0
2, 55920, Note_on_c, 0, 63, 100
2, 56160, Note_on_c, 0, 63, 0
2, 56160, Note_on_c, 0, 62, 100
2, 56520, Note_on_c, 0, 62, 0
2, 56520, Note_on_c, 0, 55, 100
2, 56640, Note_on_c, 0, 55, 0
2, 56640, Note_on_c, 0, 65, 100
2, 56880, Note_on_c, 0, 65, 0
2, 56880, Control_c, 0, 1, 48
2, 56880, Note_on_c, 0, 63, 100
2, 57600, Note_on_c, 0, 63, 0
2, 57600, Note_on_c, 0, 64, 100
2, 58320, Note_on_c, 0, 64, 0
2, 58320, Control_c, 0, 1, 0
2, 58320, Note_on_c, 0, 65, 100
2, 58680, Note_on_c, 0, 65, 0
2, 58680, Note_on_c, 0, 62, 100
2, 58800, Note_on_c, 0, 62, 0
2, 58800, Note_on_c, 0, 63, 100
2, 59040, Note_on_c, 0, 63, 0
2, 59040, Note_on_c, 0, 62, 100
2, 59400, Note_on_c, 0, 62, 0
2, 59400, Note_on_c, 0, 59, 100
2, 59520, Note_on_c, 0, 59, 0
2, 59520, Note_on_c, 0, 60, 100
2, 59760, Note_on_c, 0, 60, 0
2, 59760, Note_on_c, 0, 59, 100
2, 60120, Note_on_c, 0, 59, 0
2, 60120, Note_on_c, 0, 60, 100
2, 60240, Note_on_c, 0, 60, 0
2, 60240, Note_on_c, 0, 62, 100
2, 60480, Note_on_c, 0, 62, 0
2, 60480, Note_on_c, 0, 55, 100
2, 60840, Note_on_c, 0, 55, 0
2, 60840, Note_on_c, 0, 53, 100
2, 60960, Note_on_c, 0, 53, 0
2, 60960, Note_on_c, 0, 51, 100
2, 61080, Note_on_c, 0, 51, 0
2, 61080, Note_on_c, 0, 50, 100
2, 61200, Note_on_c, 0, 50, 0
2, 61200, Note_on_c, 0, 51, 100
2, 61440, Note_on_c, 0, 51, 0
2, 61440, Note_on_c, 0, 60, 100
2, 62280, Note_on_c, 0, 60, 0
2, 62280, Note_on_c, 0, 58, 100
2, 62400, Note_on_c, 0, 58, 0
2, 62400, Note_on_c, 0, 56, 100
2, 62520, Note_on_c, 0, 56, 0
2, 62520, Note_on_c, 0, 55, 100
2, 62640, Note_on_c, 0, 55, 0
2, 62640, Note_on_c, 0, 56, 100
2, 63000, Note_on_c, 0, 56, 0
2, 63000, Note_on_c, 0, 55, 100
2, 63120, Note_on_c, 0, 55, 0
2, 63120, Note_on_c, 0, 53, 100
2, 63240, Note_on_c, 0, 53, 0
2, 63240, Note_on_c, 0, 52, 100
2, 63360, Note_on_c, 0, 52, 0
2, 63360, Note_on_c, 0, 53, 100
2, 64440, Note_on_c, 0, 53, 0
2, 64440, Note_on_c, 0, 51, 100
2, 64560, Note_on_c, 0, 51, 0
2, 64560, Note_on_c, 0, 50, 100
2, 64680, Note_on_c, 0, 50, 0
2, 64680, Note_on_c, 0, 48, 100
2, 64800, Note_on_c, 0, 48, 0
2, 64800, Note_on_c, 0, 47, 100
2, 65160, Note_on_c, 0, 47, 0
2, 65160, Note_on_c, 0, 44, 100
2, 65280, Note_on_c, 0, 44, 0
2, 65280, Note_on_c, 0, 43, 100
2, 65400, Note_on_c, 0, 43, 0
2, 65400, Note_on_c, 0, 41, 100
2, 65520, Note_on_c, 0, 41, 0
2, 65520, Note_on_c, 0, 39, 100
2, 65880, Note_on_c, 0, 39, 0
2, 65880, Note_on_c, 0, 43, 100
2, 66000, Note_on_c, 0, 43, 0
2, 66000, Note_on_c, 0, 47, 100
2, 66240, Note_on_c, 0, 47, 0
2, 66240, Note_on_c, 0, 50, 100
2, 66600, Note_on_c, 0, 50, 0
2, 66600, Note_on_c, 0, 53, 100
2, 66720, Note_on_c, 0, 53, 0
2, 66720, Note_on_c, 0, 56, 100
2, 66960, Note_on_c, 0, 56, 0
2, 66960, Note_on_c, 0, 55, 100
2, 67320, Note_on_c, 0, 55, 0
2, 67320, Note_on_c, 0, 50, 100
2, 67440, Note_on_c, 0, 50, 0
2, 67440, Note_on_c, 0, 51, 100
2, 67680, Note_on_c, 0, 51, 0
2, 67680, Note_on_c, 0, 43, 100
2, 68040, Note_on_c, 0, 43, 0
2, 68040, Note_on_c, 0, 48, 100
2, 68160, Note_on_c, 0, 48, 0
2, 68160, Note_on_c, 0, 47, 100
2, 68400, Note_on_c, 0, 47, 0
2, 68400, Note_on_c, 0, 48, 100
2, 68760, Note_on_c, 0, 48, 0
2, 68760, Note_on_c, 0, 39, 100
2, 68880, Note_on_c, 0, 39, 0
2, 68880, Note_on_c, 0, 43, 100
2, 69120, Note_on_c, 0, 43, 0
2, 69120, Note_on_c, 0, 36, 100
2, 69600, Note_on_c, 0, 36, 0
2, 69600, Note_on_c, 0, 51, 100
2, 69840, Note_on_c, 0, 51, 0
2, 69840, Note_on_c, 0, 55, 100
2, 70200, Note_on_c, 0, 55, 0
2, 70200, Note_on_c, 0, 56, 100
2, 70320, Note_on_c, 0, 56, 0
2, 70320, Note_on_c, 0, 53, 100
2, 70560, Note_on_c, 0, 53, 0
2, 70560, Note_on_c, 0, 55, 100
2, 70920, Note_on_c, 0, 55, 0
2, 70920, Note_on_c, 0, 58, 100
2, 71040, Note_on_c, 0, 58, 0
2, 71040, Note_on_c, 0, 57, 100
2, 71280, Note_on_c, 0, 57, 0
2, 71280, Note_on_c, 0, 58, 100
2, 71640, Note_on_c, 0, 58, 0
2, 71640, Note_on_c, 0, 50, 100
2, 71760, Note_on_c, 0, 50, 0
2, 71760, Note_on_c, 0, 51, 100
2, 71880, Note_on_c, 0, 51, 0
2, 71880, Note_on_c, 0, 53, 100
2, 72000, Note_on_c, 0, 53, 0
2, 72000, Note_on_c, 0, 46, 100
2, 72360, Note_on_c, 0, 46, 0
2, 72360, Note_on_c, 0, 48, 100
2, 72480, Note_on_c, 0, 48, 0
2, 72480, Note_on_c, 0, 50, 100
2, 72720, Note_on_c, 0, 50, 0
2, 72720, Note_on_c, 0, 51, 100
2, 73080, Note_on_c, 0, 51, 0
2, 73080, Note_on_c, 0, 60, 100
2, 73200, Note_on_c, 0, 60, 0
2, 73200, Note_on_c, 0, 57, 100
2, 73440, Note_on_c, 0, 57, 0
2, 73440, Note_on_c, 0, 58, 100
2, 73800, Note_on_c, 0, 58, 0
2, 73800, Note_on_c, 0, 54, 100
2, 73920, Note_on_c, 0, 54, 0
2, 73920, Note_on_c, 0, 55, 100
2, 74160, Note_on_c, 0, 55, 0
2, 74160, Note_on_c, 0, 54, 100
2, 74520, Note_on_c, 0, 54, 0
2, 74520, Note_on_c, 0, 57, 100
2, 74640, Note_on_c, 0, 57, 0
2, 74640, Note_on_c, 0, 50, 100
2, 74880, Note_on_c, 0, 50, 0
2, 74880, Note_on_c, 0, 62, 100
2, 75240, Note_on_c, 0, 62, 0
2, 75240, Note_on_c, 0, 60, 100
2, 75360, Note_on_c, 0, 60, 0
2, 75360, Note_on_c, 0, 58, 100
2, 75480, Note_on_c, 0, 58, 0
2, 75480, Note_on_c, 0, 57, 100
2, 75600, Note_on_c, 0, 57, 0
2, 75600, Note_on_c, 0, 58, 100
2, 75960, Note_on_c, 0, 58, 0
2, 75960, Note_on_c, 0, 62, 100
2, 76080, Note_on_c, 0, 62, 0
2, 76080, Note_on_c, 0, 55, 100
2, 76320, Note_on_c, 0, 55, 0
2, 76320, Note_on_c, 0, 53, 100
2, 76680, Note_on_c, 0, 53, 0
2, 76680, Note_on_c, 0, 55, 100
2, 76800, Note_on_c, 0, 55, 0
2, 76800, Note_on_c, 0, 50, 100
2, 77040, Note_on_c, 0, 50, 0
2, 77040, Note_on_c, 0, 51, 100
2, 77400, Note_on_c, 0, 51, 0
2, 77400, Note_on_c, 0, 55, 100
2, 77520, Note_on_c, 0, 55, 0
2, 77520, Note_on_c, 0, 60, 100
2, 77760, Note_on_c, 0, 60, 0
2, 77760, Note_on_c, 0, 63, 100
2, 78240, Note_on_c, 0, 63, 0
2, 78240, Note_on_c, 0, 62, 100
2, 78480, Note_on_c, 0, 62, 0
2, 78480, Note_on_c, 0, 60, 100
2, 78840, Note_on_c, 0, 60, 0
2, 78840, Note_on_c, 0, 54, 100
2, 78960, Note_on_c, 0, 54, 0
2, 78960, Note_on_c, 0, 55, 100
2, 79200, Note_on_c, 0, 55, 0
2, 79200, Note_on_c, 0, 50, 100
2, 79560, Note_on_c, 0, 50, 0
2, 79560, Note_on_c, 0, 57, 100
2, 79680, Note_on_c, 0, 57, 0
2, 79680, Note_on_c, 0, 54, 100
2, 79920, Note_on_c, 0, 54, 0
2, 79920, Note_on_c, 0, 55, 100
2, 80280, Note_on_c, 0, 55, 0
2, 80280, Note_on_c, 0, 46, 100
2, 80400, Note_on_c, 0, 46, 0
2, 80400, Note_on_c, 0, 48, 100
2, 80520, Note_on_c, 0, 48, 0
2, 80520, Note_on_c, 0, 50, 100
2, 80640, Note_on_c, 0, 50, 0
2, 80640, Note_on_c, 0, 43, 100
2, 81000, Note_on_c, 0, 43, 0
2, 81000, Note_on_c, 0, 58, 100
2, 81120, Note_on_c, 0, 58, 0
2, 81120, Note_on_c, 0, 55, 100
2, 81360, Note_on_c, 0, 55, 0
2, 81360, Note_on_c, 0, 52, 100
2, 81720, Note_on_c, 0, 52, 0
2, 81720, Note_on_c, 0, 55, 100
2, 81840, Note_on_c, 0, 55, 0
2, 81840, Note_on_c, 0, 58, 100
2, 82080, Note_on_c, 0, 58, 0
2, 82080, Note_on_c, 0, 61, 100
2, 82440, Note_on_c, 0, 61, 0
2, 82440, Note_on_c, 0, 58, 100
2, 82560, Note_on_c, 0, 58, 0
2, 82560, Note_on_c, 0, 60, 100
2, 82800, Note_on_c, 0, 60, 0
2, 82800, Note_on_c, 0, 56, 100
2, 83160, Note_on_c, 0, 56, 0
2, 83160, Note_on_c, 0, 55, 100
2, 83280, Note_on_c, 0, 55, 0
2, 83280, Note_on_c, 0, 53, 100
2, 83400, Note_on_c, 0, 53, 0
2, 83400, Note_on_c, 0, 52, 100
2, 83520, Note_on_c, 0, 52, 0
2, 83520, Note_on_c, 0, 53, 100
2, 83880, Note_on_c, 0, 53, 0
2, 83880, Note_on_c, 0, 56, 100
2, 84000, Note_on_c, 0, 56, 0
2, 84000, Note_on_c, 0, 51, 100
2, 84240, Note_on_c, 0, 51, 0
2, 84240, Note_on_c, 0, 50, 100
2, 84600, Note_on_c, 0, 50, 0
2, 84600, Note_on_c, 0, 53, 100
2, 84720, Note_on_c, 0, 53, 0
2, 84720, Note_on_c, 0, 56, 100
2, 84960, Note_on_c, 0, 56, 0
2, 84960, Note_on_c, 0, 60, 100
2, 85320, Note_on_c, 0, 60, 0
2, 85320, Note_on_c, 0, 56, 100
2, 85440, Note_on_c, 0, 56, 0
2, 85440, Note_on_c, 0, 58, 100
2, 85680, Note_on_c, 0, 58, 0
2, 85680, Note_on_c, 0, 55, 100
2, 86040, Note_on_c, 0, 55, 0
2, 86040, Note_on_c, 0, 53, 100
2, 86160, Note_on_c, 0, 53, 0
2, 86160, Note_on_c, 0, 51, 100
2, 86280, Note_on_c, 0, 51, 0
2, 86280, Note_on_c, 0, 50, 100
2, 86400, Note_on_c, 0, 50, 0
2, 86400, Note_on_c, 0, 51, 100
2, 86760, Note_on_c, 0, 51, 0
2, 86760, Note_on_c, 0, 55, 100
2, 86880, Note_on_c, 0, 55, 0
2, 86880, Note_on_c, 0, 58, 100
2, 87120, Note_on_c, 0, 58, 0
2, 87120, Note_on_c, 0, 57, 100
2, 87480, Note_on_c, 0, 57, 0
2, 87480, Note_on_c, 0, 53, 100
2, 87600, Note_on_c, 0, 53, 0
2, 87600, Note_on_c, 0, 51, 100
2, 87720, Note_on_c, 0, 51, 0
2, 87720, Note_on_c, 0, 50, 100
2, 87840, Note_on_c, 0, 50, 0
2, 87840, Note_on_c, 0, 51, 100
2, 88200, Note_on_c, 0, 51, 0
2, 88200, Note_on_c, 0, 57, 100
2, 88320, Note_on_c, 0, 57, 0
2, 88320, Note_on_c, 0, 60, 100
2, 88560, Note_on_c, 0, 60, 0
2, 88560, Note_on_c, 0, 59, 100
2, 88920, Note_on_c, 0, 59, 0
2, 88920, Note_on_c, 0, 55, 100
2, 89040, Note_on_c, 0, 55, 0
2, 89040, Note_on_c, 0, 53, 100
2, 89160, Note_on_c, 0, 53, 0
2, 89160, Note_on_c, 0, 51, 100
2, 89280, Note_on_c, 0, 51, 0
2, 89280, Note_on_c, 0, 53, 100
2, 89640, Note_on_c, 0, 53, 0
2, 89640, Note_on_c, 0, 59, 100
2, 89760, Note_on_c, 0, 59, 0
2, 89760, Note_on_c, 0, 62, 100
2, 90000, Note_on_c, 0, 62, 0
2, 90000, Note_on_c, 0, 60, 100
2, 90360, Note_on_c, 0, 60, 0
2, 90360, Note_on_c, 0, 55, 100
2, 90480, Note_on_c, 0, 55, 0
2, 90480, Note_on_c, 0, 63, 100
2, 90720, Note_on_c, 0, 63, 0
2, 90720, Note_on_c, 0, 62, 100
2, 91080, Note_on_c, 0, 62, 0
2, 91080, Note_on_c, 0, 55, 100
2, 91200, Note_on_c, 0, 55, 0
2, 91200, Note_on_c, 0, 65, 100
2, 91440, Note_on_c, 0, 65, 0
2, 91440, Control_c, 0, 1, 48
2, 91440, Note_on_c, 0, 63, 100
2, 92160, Note_on_c, 0, 63, 0
2, 92160, Note_on_c, 0, 64, 100
2, 92880, Note_on_c, 0, 64, 0
2, 92880, Control_c, 0, 1, 0
2, 92880, Note_on_c, 0, 65, 100
2, 93240, Note_on_c, 0, 65, 0
2, 93240, Note_on_c, 0, 62, 100
2, 93360, Note_on_c, 0, 62, 0
2, 93360, Note_on_c, 0, 63, 100
2, 93600, Note_on_c, 0, 63, 0
2, 93600, Note_on_c, 0, 62, 100
2, 93960, Note_on_c, 0, 62, 0
2, 93960, Note_on_c, 0, 59, 100
2, 94080, Note_on_c, 0, 59, 0
2, 94080, Note_on_c, 0, 60, 100
2, 94320, Note_on_c, 0, 60, 0
2, 94320, Note_on_c, 0, 59, 100
2, 94680, Note_on_c, 0, 59, 0
2, 94680, Note_on_c, 0, 60, 100
2, 94800, Note_on_c, 0, 60, 0
2, 94800, Note_on_c, 0, 62, 100
2, 95040, Note_on_c, 0, 62, 0
2, 95040, Note_on_c, 0, 55, 100
2, 95400, Note_on_c, 0, 55, 0
2, 95400, Note_on_c, 0, 53, 100
2, 95520, Note_on_c, 0, 53, 0
2, 95520, Note_on_c, 0, 51, 100
2, 95640, Note_on_c, 0, 51, 0
2, 95640, Note_on_c, 0, 50, 100
2, 95760, Note_on_c, 0, 50, 0
2, 95760, Note_on_c, 0, 51, 100
2, 96000, Note_on_c, 0, 51, 0
2, 96000, Note_on_c, 0, 60, 100
2, 96840, Note_on_c, 0, 60, 0
2, 96840, Note_on_c, 0, 58, 100
2, 96960, Note_on_c, 0, 58, 0
2, 96960, Note_on_c, 0, 56, 100
2, 97080, Note_on_c, 0, 56, 0
2, 97080, Note_on_c, 0, 55, 100
2, 97200, Note_on_c, 0, 55, 0
2, 97200, Note_on_c, 0, 56, 100
2, 97560, Note_on_c, 0, 56, 0
2, 97560, Note_on_c, 0, 55, 100
2, 97680, Note_on_c, 0, 55, 0
2, 97680, Note_on_c, 0, 53, 100
2, 97800, Note_on_c, 0, 53, 0
2, 97800, Note_on_c, 0, 52, 100
2, 97920, Note_on_c, 0, 52, 0
2, 97920, Note_on_c, 0, 53, 100
2, 99000, Note_on_c, 0, 53, 0
2, 99000, Note_on_c, 0, 51, 100
2, 99120, Note_on_c, 0, 51, 0
2, 99120, Note_on_c, 0, 50, 100
2, 99240, Note_on_c, 0, 50, 0
2, 99240, Note_on_c, 0, 48, 100
2, 99360, Note_on_c, 0, 48, 0
2, 99360, Note_on_c, 0, 47, 100
2, 99720, Note_on_c, 0, 47, 0
2, 99720, Note_on_c, 0, 44, 100
2, 99840, Note_on_c, 0, 44, 0
2, 99840, Note_on_c, 0, 43, 100
2, 99960, Note_on_c, 0, 43, 0
2, 99960, Note_on_c, 0, 41, 100
2, 100080, Note_on_c, 0, 41, 0
2, 100080, Note_on_c, 0, 39, 100
2, 100440, Note_on_c, 0, 39, 0
2, 100440, Note_on_c, 0, 43, 100
2, 100560, Note_on_c, 0, 43, 0
2, 100560, Note_on_c, 0, 47, 100
2, 100800, Note_on_c, 0, 47, 0
2, 100800, Note_on_c, 0, 50, 100
2, 101160, Note_on_c, 0, 50, 0
2, 101160, Note_on_c, 0, 53, 100
2, 101280, Note_on_c, 0, 53, 0
2, 101280, Note_on_c, 0, 56, 100
2, 101520, Note_on_c, 0, 56, 0
2, 101520, Note_on_c, 0, 55, 100
2, 101880, Note_on_c, 0, 55, 0
2, 101880, Note_on_c, 0, 50, 100
2, 102000, Note_on_c, 0, 50, 0
2, 102000, Note_on_c, 0, 51, 100
2, 102240, Note_on_c, 0, 51, 0
2, 102240, Note_on_c, 0, 43, 100
2, 102600, Note_on_c, 0, 43, 0
2, 102600, Note_on_c, 0, 48, 100
2, 102720, Note_on_c, 0, 48, 0
2, 102720, Note_on_c, 0, 47, 100
2, 102960, Note_on_c, 0, 47, 0
2, 102960, Note_on_c, 0, 48, 100
2, 103320, Note_on_c, 0, 48, 0
2, 103320, Note_on_c, 0, 39, 100
2, 103440, Note_on_c, 0, 39, 0
2, 103440, Note_on_c, 0, 43, 100
2, 103680, Note_on_c, 0, 43, 0
2, 103680, Note_on_c, 0, 36, 100
2, 104160, Note_on_c, 0, 36, 0
2, 104160, End_track
3, 0, Start_track
3, 0, MIDI_port, 0
3, 0, Title_t, "--------------------------------------"
3, 0, End_track
4, 0, Start_track
4, 0, MIDI_port, 0
4, 0, Title_t, "Johann Sebastian Bach  (1685-1750)"
4, 0, End_track
5, 0, Start_track
5, 0, MIDI_port, 0
5, 0, Title_t, "Six Suites for Solo Cello"
5, 0, End_track
6, 0, Start_track
6, 0, MIDI_port, 0
6, 0, Title_t, "--------------------------------------"
6, 0, End_track
7, 0, Start_track
7, 0, MIDI_port, 0
7, 0, Title_t, "Suite No. 5 in C minor - BWV 1011"
7, 0, End_track
8, 0, Start_track
8, 0, MIDI_port, 0
8, 0, Title_t, "6th Movement: Gigue"
8, 0, End_track
9, 0, Start_track
9, 0, MIDI_port, 0
9, 0, Title_t, "--------------------------------------"
9, 0, End_track
10, 0, Start_track
10, 0, MIDI_port, 0
10, 0, Title_t, "Sequenced with Cakewalk Pro Audio by"
10, 0, End_track
11, 0, Start_track
11, 0, MIDI_port, 0
11, 0, Title_t, "David J. Grossman - dave@unpronounceable.com"
11, 0, End_track
12, 0, Start_track
12, 0, MIDI_port, 0
12, 0, Title_t, "This and other Bach MIDI files can be found at:"
12, 0, End_track
13, 0, Start_track
13, 0, MIDI_port, 0
13, 0, Title_t, "Dave's J.S. Bach Page"
13, 0, End_track
14, 0, Start_track
14, 0, MIDI_port, 0
14, 0, Title_t, "http://www.unpronounceable.com/bach"
14, 0, End_track
15, 0, Start_track
15, 0, MIDI_port, 0
15, 0, Title_t, "--------------------------------------"
15, 0, End_track
16, 0, Start_track
16, 0, MIDI_port, 0
16, 0, Title_t, "Original Filename: cs5-6gig.mid"
16, 0, End_track
17, 0, Start_track
17, 0, MIDI_port, 0
17, 0, Title_t, "Last Modified: February 22, 1997"
17, 0, End_track
0, 0, End_of_file
