0, 0, Header, 1, 18, 480
1, 0, Start_track
1, 0, Title_t, "untitled"
1, 0, Copyright_t, "Copyright © 1996 by David J. Grossman"
1, 0, Text_t, "David J. Grossman"
1, 0, SMPTE_offset, 96, 0, 3, 0, 0
1, 0, Time_signature, 4, 2, 24, 8
1, 0, Key_signature, -3, "major"
1, 0, Tempo, 1090909
1, 49920, Time_signature, 3, 3, 12, 8
1, 49920, Tempo, 2000000
1, 50400, Tempo, 800000
1, 111480, Marker_t, "*"
1, 186720, Tempo, 1600000
1, 186960, Tempo, 400000
1, 187440, Tempo, 800000
1, 188160, Tempo, 1600000
1, 188160, Marker_t, "*"
1, 188400, Tempo, 400000
1, 188880, Tempo, 800000
1, 189240, Marker_t, "*"
1, 191040, Tempo, 1600000
1, 191040, End_track
2, 0, Start_track
2, 0, MIDI_port, 0
2, 0, Title_t, "Solo Cello"
2, 0, Program_c, 0, 42
2, 0, Control_c, 0, 7, 100
2, 0, Control_c, 0, 10, 69
2, 0, Note_on_c, 0, 48, 100
2, 600, Note_on_c, 0, 48, 0
2, 600, Note_on_c, 0, 43, 100
2, 720, Note_on_c, 0, 43, 0
2, 720, Note_on_c, 0, 45, 100
2, 840, Note_on_c, 0, 45, 0
2, 840, Note_on_c, 0, 47, 100
2, 960, Note_on_c, 0, 47, 0
2, 960, Note_on_c, 0, 48, 100
2, 1080, Note_on_c, 0, 48, 0
2, 1080, Note_on_c, 0, 50, 100
2, 1200, Note_on_c, 0, 50, 0
2, 1200, Note_on_c, 0, 51, 100
2, 1320, Note_on_c, 0, 51, 0
2, 1320, Note_on_c, 0, 53, 100
2, 1440, Note_on_c, 0, 53, 0
2, 1440, Note_on_c, 0, 51, 100
2, 1560, Note_on_c, 0, 51, 0
2, 1560, Note_on_c, 0, 50, 100
2, 1680, Note_on_c, 0, 50, 0
2, 1680, Note_on_c, 0, 51, 100
2, 1800, Note_on_c, 0, 51, 0
2, 1800, Note_on_c, 0, 48, 100
2, 1920, Note_on_c, 0, 48, 0
2, 1920, Note_on_c, 0, 47, 100
2, 2640, Note_on_c, 0, 47, 0
2, 3840, Note_on_c, 0, 48, 100
2, 4320, Note_on_c, 0, 48, 0
2, 4800, Note_on_c, 0, 48, 100
2, 5400, Note_on_c, 0, 48, 0
2, 5400, Note_on_c, 0, 48, 100
2, 5520, Note_on_c, 0, 48, 0
2, 5520, Note_on_c, 0, 50, 100
2, 5640, Note_on_c, 0, 50, 0
2, 5640, Note_on_c, 0, 51, 100
2, 5760, Note_on_c, 0, 51, 0
2, 5760, Note_on_c, 0, 50, 100
2, 6480, Note_on_c, 0, 50, 0
2, 6480, Note_on_c, 0, 50, 100
2, 6720, Note_on_c, 0, 50, 0
2, 6720, Note_on_c, 0, 52, 100
2, 7200, Note_on_c, 0, 52, 0
2, 7680, Note_on_c, 0, 53, 100
2, 8160, Note_on_c, 0, 53, 0
2, 8640, Note_on_c, 0, 53, 100
2, 9360, Note_on_c, 0, 53, 0
2, 9600, Note_on_c, 0, 53, 100
2, 10080, Note_on_c, 0, 53, 0
2, 10560, Note_on_c, 0, 52, 100
2, 11040, Note_on_c, 0, 52, 0
2, 11520, Note_on_c, 0, 53, 100
2, 12000, Note_on_c, 0, 53, 0
2, 12480, Note_on_c, 0, 53, 100
2, 12780, Note_on_c, 0, 53, 0
2, 12780, Note_on_c, 0, 51, 100
2, 12840, Note_on_c, 0, 51, 0
2, 12840, Note_on_c, 0, 50, 100
2, 12900, Note_on_c, 0, 50, 0
2, 12900, Note_on_c, 0, 51, 100
2, 12960, Note_on_c, 0, 51, 0
2, 12960, Note_on_c, 0, 53, 100
2, 13320, Note_on_c, 0, 53, 0
2, 13320, Note_on_c, 0, 48, 100
2, 13440, Note_on_c, 0, 48, 0
2, 13440, Note_on_c, 0, 47, 100
2, 14160, Note_on_c, 0, 47, 0
2, 19200, Note_on_c, 0, 63, 100
2, 19920, Note_on_c, 0, 63, 0
2, 19920, Note_on_c, 0, 63, 100
2, 20160, Note_on_c, 0, 63, 0
2, 20160, Note_on_c, 0, 62, 100
2, 20520, Note_on_c, 0, 62, 0
2, 20520, Note_on_c, 0, 60, 100
2, 20580, Note_on_c, 0, 60, 0
2, 20580, Note_on_c, 0, 58, 100
2, 20640, Note_on_c, 0, 58, 0
2, 20640, Note_on_c, 0, 57, 100
2, 21000, Note_on_c, 0, 57, 0
2, 21000, Note_on_c, 0, 58, 100
2, 21120, Note_on_c, 0, 58, 0
2, 21120, Note_on_c, 0, 59, 100
2, 21840, Note_on_c, 0, 59, 0
2, 23040, Note_on_c, 0, 60, 100
2, 23640, Note_on_c, 0, 60, 0
2, 23640, Note_on_c, 0, 58, 100
2, 23760, Note_on_c, 0, 58, 0
2, 23760, Note_on_c, 0, 60, 100
2, 23880, Note_on_c, 0, 60, 0
2, 23880, Note_on_c, 0, 57, 100
2, 24000, Note_on_c, 0, 57, 0
2, 24000, Note_on_c, 0, 58, 100
2, 24360, Note_on_c, 0, 58, 0
2, 24360, Note_on_c, 0, 55, 100
2, 24480, Note_on_c, 0, 55, 0
2, 24480, Note_on_c, 0, 61, 100
2, 24840, Note_on_c, 0, 61, 0
2, 24840, Note_on_c, 0, 53, 100
2, 24960, Note_on_c, 0, 53, 0
2, 24960, Note_on_c, 0, 52, 100
2, 25440, Note_on_c, 0, 52, 0
2, 27360, Note_on_c, 0, 41, 100
2, 27720, Note_on_c, 0, 41, 0
2, 27720, Note_on_c, 0, 43, 100
2, 27840, Note_on_c, 0, 43, 0
2, 27840, Note_on_c, 0, 44, 100
2, 28200, Note_on_c, 0, 44, 0
2, 28200, Note_on_c, 0, 46, 100
2, 28320, Note_on_c, 0, 46, 0
2, 28320, Note_on_c, 0, 48, 100
2, 28680, Note_on_c, 0, 48, 0
2, 28680, Note_on_c, 0, 39, 100
2, 28800, Note_on_c, 0, 39, 0
2, 28800, Note_on_c, 0, 38, 100
2, 29280, Note_on_c, 0, 38, 0
2, 30720, Note_on_c, 0, 39, 100
2, 31200, Note_on_c, 0, 39, 0
2, 34560, Note_on_c, 0, 62, 100
2, 35040, Note_on_c, 0, 62, 0
2, 38400, Note_on_c, 0, 50, 100
2, 38880, Note_on_c, 0, 50, 0
2, 40320, Note_on_c, 0, 58, 100
2, 40800, Note_on_c, 0, 58, 0
2, 48960, Note_on_c, 0, 55, 100
2, 49440, Note_on_c, 0, 55, 0
2, 49440, Note_on_c, 0, 54, 100
2, 49800, Note_on_c, 0, 54, 0
2, 49800, Note_on_c, 0, 55, 100
2, 49920, Note_on_c, 0, 55, 0
2, 49920, Note_on_c, 0, 55, 100
2, 50400, Note_on_c, 0, 55, 0
2, 50400, Note_on_c, 0, 55, 100
2, 50640, Note_on_c, 0, 55, 0
2, 50640, Note_on_c, 0, 56, 100
2, 50880, Note_on_c, 0, 56, 0
2, 50880, Note_on_c, 0, 48, 100
2, 51120, Note_on_c, 0, 48, 0
2, 51120, Note_on_c, 0, 50, 100
2, 51360, Note_on_c, 0, 50, 0
2, 51360, Note_on_c, 0, 51, 100
2, 51600, Note_on_c, 0, 51, 0
2, 51600, Note_on_c, 0, 55, 100
2, 51720, Note_on_c, 0, 55, 0
2, 51720, Note_on_c, 0, 53, 100
2, 51840, Note_on_c, 0, 53, 0
2, 51840, Note_on_c, 0, 55, 100
2, 51960, Note_on_c, 0, 55, 0
2, 51960, Note_on_c, 0, 51, 100
2, 52080, Note_on_c, 0, 51, 0
2, 52080, Note_on_c, 0, 53, 100
2, 52320, Note_on_c, 0, 53, 0
2, 52320, Note_on_c, 0, 45, 100
2, 52560, Note_on_c, 0, 45, 0
2, 52560, Note_on_c, 0, 47, 100
2, 52800, Note_on_c, 0, 47, 0
2, 52800, Note_on_c, 0, 48, 100
2, 53040, Note_on_c, 0, 48, 0
2, 53040, Note_on_c, 0, 51, 100
2, 53160, Note_on_c, 0, 51, 0
2, 53160, Note_on_c, 0, 50, 100
2, 53280, Note_on_c, 0, 50, 0
2, 53280, Note_on_c, 0, 51, 100
2, 53400, Note_on_c, 0, 51, 0
2, 53400, Note_on_c, 0, 48, 100
2, 53520, Note_on_c, 0, 48, 0
2, 53520, Note_on_c, 0, 50, 100
2, 53640, Note_on_c, 0, 50, 0
2, 53640, Note_on_c, 0, 51, 100
2, 53760, Note_on_c, 0, 51, 0
2, 53760, Note_on_c, 0, 53, 100
2, 53880, Note_on_c, 0, 53, 0
2, 53880, Note_on_c, 0, 55, 100
2, 54000, Note_on_c, 0, 55, 0
2, 54000, Note_on_c, 0, 56, 100
2, 54240, Note_on_c, 0, 56, 0
2, 54240, Note_on_c, 0, 47, 100
2, 54480, Note_on_c, 0, 47, 0
2, 54480, Note_on_c, 0, 43, 100
2, 54600, Note_on_c, 0, 43, 0
2, 54600, Note_on_c, 0, 53, 100
2, 54720, Note_on_c, 0, 53, 0
2, 54720, Note_on_c, 0, 51, 100
2, 54840, Note_on_c, 0, 51, 0
2, 54840, Note_on_c, 0, 50, 100
2, 54960, Note_on_c, 0, 50, 0
2, 54960, Note_on_c, 0, 51, 100
2, 55080, Note_on_c, 0, 51, 0
2, 55080, Note_on_c, 0, 53, 100
2, 55200, Note_on_c, 0, 53, 0
2, 55200, Note_on_c, 0, 50, 100
2, 55320, Note_on_c, 0, 50, 0
2, 55320, Note_on_c, 0, 51, 100
2, 55440, Note_on_c, 0, 51, 0
2, 55440, Note_on_c, 0, 53, 100
2, 55560, Note_on_c, 0, 53, 0
2, 55560, Note_on_c, 0, 50, 100
2, 55680, Note_on_c, 0, 50, 0
2, 55680, Note_on_c, 0, 51, 100
2, 55800, Note_on_c, 0, 51, 0
2, 55800, Note_on_c, 0, 50, 100
2, 55920, Note_on_c, 0, 50, 0
2, 55920, Note_on_c, 0, 51, 100
2, 56040, Note_on_c, 0, 51, 0
2, 56040, Note_on_c, 0, 55, 100
2, 56160, Note_on_c, 0, 55, 0
2, 56160, Note_on_c, 0, 60, 100
2, 56280, Note_on_c, 0, 60, 0
2, 56280, Note_on_c, 0, 62, 100
2, 56400, Note_on_c, 0, 62, 0
2, 56400, Note_on_c, 0, 63, 100
2, 56640, Note_on_c, 0, 63, 0
2, 56640, Note_on_c, 0, 55, 100
2, 56880, Note_on_c, 0, 55, 0
2, 56880, Note_on_c, 0, 57, 100
2, 57120, Note_on_c, 0, 57, 0
2, 57120, Note_on_c, 0, 58, 100
2, 57360, Note_on_c, 0, 58, 0
2, 57360, Note_on_c, 0, 62, 100
2, 57480, Note_on_c, 0, 62, 0
2, 57480, Note_on_c, 0, 60, 100
2, 57600, Note_on_c, 0, 60, 0
2, 57600, Note_on_c, 0, 62, 100
2, 57720, Note_on_c, 0, 62, 0
2, 57720, Note_on_c, 0, 58, 100
2, 57840, Note_on_c, 0, 58, 0
2, 57840, Note_on_c, 0, 60, 100
2, 58080, Note_on_c, 0, 60, 0
2, 58080, Note_on_c, 0, 52, 100
2, 58320, Note_on_c, 0, 52, 0
2, 58320, Note_on_c, 0, 54, 100
2, 58560, Note_on_c, 0, 54, 0
2, 58560, Note_on_c, 0, 55, 100
2, 58800, Note_on_c, 0, 55, 0
2, 58800, Note_on_c, 0, 58, 100
2, 58920, Note_on_c, 0, 58, 0
2, 58920, Note_on_c, 0, 57, 100
2, 59040, Note_on_c, 0, 57, 0
2, 59040, Note_on_c, 0, 58, 100
2, 59160, Note_on_c, 0, 58, 0
2, 59160, Note_on_c, 0, 55, 100
2, 59280, Note_on_c, 0, 55, 0
2, 59280, Note_on_c, 0, 57, 100
2, 59400, Note_on_c, 0, 57, 0
2, 59400, Note_on_c, 0, 58, 100
2, 59520, Note_on_c, 0, 58, 0
2, 59520, Note_on_c, 0, 60, 100
2, 59640, Note_on_c, 0, 60, 0
2, 59640, Note_on_c, 0, 62, 100
2, 59760, Note_on_c, 0, 62, 0
2, 59760, Note_on_c, 0, 55, 100
2, 59880, Note_on_c, 0, 55, 0
2, 59880, Note_on_c, 0, 63, 100
2, 60000, Note_on_c, 0, 63, 0
2, 60000, Note_on_c, 0, 54, 100
2, 60120, Note_on_c, 0, 54, 0
2, 60120, Note_on_c, 0, 63, 100
2, 60240, Note_on_c, 0, 63, 0
2, 60240, Note_on_c, 0, 62, 100
2, 60360, Note_on_c, 0, 62, 0
2, 60360, Note_on_c, 0, 60, 100
2, 60480, Note_on_c, 0, 60, 0
2, 60480, Note_on_c, 0, 58, 100
2, 60600, Note_on_c, 0, 58, 0
2, 60600, Note_on_c, 0, 57, 100
2, 60720, Note_on_c, 0, 57, 0
2, 60720, Note_on_c, 0, 58, 100
2, 60840, Note_on_c, 0, 58, 0
2, 60840, Note_on_c, 0, 60, 100
2, 60960, Note_on_c, 0, 60, 0
2, 60960, Note_on_c, 0, 57, 100
2, 61080, Note_on_c, 0, 57, 0
2, 61080, Note_on_c, 0, 58, 100
2, 61200, Note_on_c, 0, 58, 0
2, 61200, Note_on_c, 0, 60, 100
2, 61320, Note_on_c, 0, 60, 0
2, 61320, Note_on_c, 0, 57, 100
2, 61440, Note_on_c, 0, 57, 0
2, 61440, Note_on_c, 0, 58, 100
2, 61560, Note_on_c, 0, 58, 0
2, 61560, Note_on_c, 0, 55, 100
2, 61680, Note_on_c, 0, 55, 0
2, 61680, Note_on_c, 0, 50, 100
2, 61800, Note_on_c, 0, 50, 0
2, 61800, Note_on_c, 0, 51, 100
2, 61920, Note_on_c, 0, 51, 0
2, 61920, Note_on_c, 0, 53, 100
2, 62040, Note_on_c, 0, 53, 0
2, 62040, Note_on_c, 0, 50, 100
2, 62160, Note_on_c, 0, 50, 0
2, 62160, Note_on_c, 0, 52, 100
2, 62280, Note_on_c, 0, 52, 0
2, 62280, Note_on_c, 0, 60, 100
2, 62400, Note_on_c, 0, 60, 0
2, 62400, Note_on_c, 0, 55, 100
2, 62520, Note_on_c, 0, 55, 0
2, 62520, Note_on_c, 0, 56, 100
2, 62640, Note_on_c, 0, 56, 0
2, 62640, Note_on_c, 0, 58, 100
2, 62760, Note_on_c, 0, 58, 0
2, 62760, Note_on_c, 0, 55, 100
2, 62880, Note_on_c, 0, 55, 0
2, 62880, Note_on_c, 0, 56, 100
2, 63000, Note_on_c, 0, 56, 0
2, 63000, Note_on_c, 0, 53, 100
2, 63120, Note_on_c, 0, 53, 0
2, 63120, Note_on_c, 0, 48, 100
2, 63240, Note_on_c, 0, 48, 0
2, 63240, Note_on_c, 0, 50, 100
2, 63360, Note_on_c, 0, 50, 0
2, 63360, Note_on_c, 0, 51, 100
2, 63480, Note_on_c, 0, 51, 0
2, 63480, Note_on_c, 0, 48, 100
2, 63600, Note_on_c, 0, 48, 0
2, 63600, Note_on_c, 0, 50, 100
2, 63720, Note_on_c, 0, 50, 0
2, 63720, Note_on_c, 0, 51, 100
2, 63840, Note_on_c, 0, 51, 0
2, 63840, Note_on_c, 0, 53, 100
2, 63960, Note_on_c, 0, 53, 0
2, 63960, Note_on_c, 0, 55, 100
2, 64080, Note_on_c, 0, 55, 0
2, 64080, Note_on_c, 0, 56, 100
2, 64200, Note_on_c, 0, 56, 0
2, 64200, Note_on_c, 0, 53, 100
2, 64320, Note_on_c, 0, 53, 0
2, 64320, Note_on_c, 0, 55, 100
2, 64440, Note_on_c, 0, 55, 0
2, 64440, Note_on_c, 0, 53, 100
2, 64560, Note_on_c, 0, 53, 0
2, 64560, Note_on_c, 0, 51, 100
2, 64680, Note_on_c, 0, 51, 0
2, 64680, Note_on_c, 0, 50, 100
2, 64800, Note_on_c, 0, 50, 0
2, 64800, Note_on_c, 0, 48, 100
2, 64920, Note_on_c, 0, 48, 0
2, 64920, Note_on_c, 0, 46, 100
2, 65040, Note_on_c, 0, 46, 0
2, 65040, Note_on_c, 0, 44, 100
2, 65280, Note_on_c, 0, 44, 0
2, 65280, Note_on_c, 0, 48, 100
2, 65520, Note_on_c, 0, 48, 0
2, 65520, Note_on_c, 0, 50, 100
2, 65760, Note_on_c, 0, 50, 0
2, 65760, Note_on_c, 0, 51, 100
2, 66000, Note_on_c, 0, 51, 0
2, 66000, Note_on_c, 0, 43, 100
2, 66120, Note_on_c, 0, 43, 0
2, 66120, Note_on_c, 0, 41, 100
2, 66240, Note_on_c, 0, 41, 0
2, 66240, Note_on_c, 0, 43, 100
2, 66360, Note_on_c, 0, 43, 0
2, 66360, Note_on_c, 0, 39, 100
2, 66480, Note_on_c, 0, 39, 0
2, 66480, Note_on_c, 0, 41, 100
2, 66720, Note_on_c, 0, 41, 0
2, 66720, Note_on_c, 0, 45, 100
2, 66960, Note_on_c, 0, 45, 0
2, 66960, Note_on_c, 0, 47, 100
2, 67200, Note_on_c, 0, 47, 0
2, 67200, Note_on_c, 0, 48, 100
2, 67440, Note_on_c, 0, 48, 0
2, 67440, Note_on_c, 0, 39, 100
2, 67560, Note_on_c, 0, 39, 0
2, 67560, Note_on_c, 0, 38, 100
2, 67680, Note_on_c, 0, 38, 0
2, 67680, Note_on_c, 0, 39, 100
2, 67800, Note_on_c, 0, 39, 0
2, 67800, Note_on_c, 0, 36, 100
2, 67920, Note_on_c, 0, 36, 0
2, 67920, Note_on_c, 0, 38, 100
2, 68040, Note_on_c, 0, 38, 0
2, 68040, Note_on_c, 0, 39, 100
2, 68160, Note_on_c, 0, 39, 0
2, 68160, Note_on_c, 0, 41, 100
2, 68280, Note_on_c, 0, 41, 0
2, 68280, Note_on_c, 0, 43, 100
2, 68400, Note_on_c, 0, 43, 0
2, 68400, Note_on_c, 0, 44, 100
2, 68520, Note_on_c, 0, 44, 0
2, 68520, Note_on_c, 0, 41, 100
2, 68640, Note_on_c, 0, 41, 0
2, 68640, Note_on_c, 0, 47, 100
2, 68760, Note_on_c, 0, 47, 0
2, 68760, Note_on_c, 0, 48, 100
2, 68880, Note_on_c, 0, 48, 0
2, 68880, Note_on_c, 0, 50, 100
2, 69000, Note_on_c, 0, 50, 0
2, 69000, Note_on_c, 0, 51, 100
2, 69120, Note_on_c, 0, 51, 0
2, 69120, Note_on_c, 0, 53, 100
2, 69240, Note_on_c, 0, 53, 0
2, 69240, Note_on_c, 0, 50, 100
2, 69360, Note_on_c, 0, 50, 0
2, 69360, Note_on_c, 0, 51, 100
2, 69480, Note_on_c, 0, 51, 0
2, 69480, Note_on_c, 0, 53, 100
2, 69600, Note_on_c, 0, 53, 0
2, 69600, Note_on_c, 0, 50, 100
2, 69720, Note_on_c, 0, 50, 0
2, 69720, Note_on_c, 0, 51, 100
2, 69840, Note_on_c, 0, 51, 0
2, 69840, Note_on_c, 0, 53, 100
2, 69960, Note_on_c, 0, 53, 0
2, 69960, Note_on_c, 0, 50, 100
2, 70080, Note_on_c, 0, 50, 0
2, 70080, Note_on_c, 0, 51, 100
2, 70200, Note_on_c, 0, 51, 0
2, 70200, Note_on_c, 0, 50, 100
2, 70320, Note_on_c, 0, 50, 0
2, 70320, Note_on_c, 0, 48, 100
2, 70440, Note_on_c, 0, 48, 0
2, 70440, Note_on_c, 0, 50, 100
2, 70560, Note_on_c, 0, 50, 0
2, 70560, Note_on_c, 0, 51, 100
2, 70680, Note_on_c, 0, 51, 0
2, 70680, Note_on_c, 0, 53, 100
2, 70800, Note_on_c, 0, 53, 0
2, 70800, Note_on_c, 0, 55, 100
2, 70920, Note_on_c, 0, 55, 0
2, 70920, Note_on_c, 0, 53, 100
2, 71040, Note_on_c, 0, 53, 0
2, 71040, Note_on_c, 0, 55, 100
2, 71280, Note_on_c, 0, 55, 0
2, 71280, Note_on_c, 0, 57, 100
2, 71520, Note_on_c, 0, 57, 0
2, 71520, Note_on_c, 0, 58, 100
2, 71760, Note_on_c, 0, 58, 0
2, 71760, Note_on_c, 0, 50, 100
2, 71880, Note_on_c, 0, 50, 0
2, 71880, Note_on_c, 0, 48, 100
2, 72000, Note_on_c, 0, 48, 0
2, 72000, Note_on_c, 0, 50, 100
2, 72120, Note_on_c, 0, 50, 0
2, 72120, Note_on_c, 0, 46, 100
2, 72240, Note_on_c, 0, 46, 0
2, 72240, Note_on_c, 0, 48, 100
2, 72360, Note_on_c, 0, 48, 0
2, 72360, Note_on_c, 0, 50, 100
2, 72480, Note_on_c, 0, 50, 0
2, 72480, Note_on_c, 0, 52, 100
2, 72720, Note_on_c, 0, 52, 0
2, 72720, Note_on_c, 0, 54, 100
2, 72960, Note_on_c, 0, 54, 0
2, 72960, Note_on_c, 0, 55, 100
2, 73200, Note_on_c, 0, 55, 0
2, 73200, Note_on_c, 0, 46, 100
2, 73320, Note_on_c, 0, 46, 0
2, 73320, Note_on_c, 0, 45, 100
2, 73440, Note_on_c, 0, 45, 0
2, 73440, Note_on_c, 0, 46, 100
2, 73560, Note_on_c, 0, 46, 0
2, 73560, Note_on_c, 0, 43, 100
2, 73680, Note_on_c, 0, 43, 0
2, 73680, Note_on_c, 0, 45, 100
2, 73800, Note_on_c, 0, 45, 0
2, 73800, Note_on_c, 0, 46, 100
2, 73920, Note_on_c, 0, 46, 0
2, 73920, Note_on_c, 0, 48, 100
2, 74040, Note_on_c, 0, 48, 0
2, 74040, Note_on_c, 0, 50, 100
2, 74160, Note_on_c, 0, 50, 0
2, 74160, Note_on_c, 0, 51, 100
2, 74280, Note_on_c, 0, 51, 0
2, 74280, Note_on_c, 0, 48, 100
2, 74400, Note_on_c, 0, 48, 0
2, 74400, Note_on_c, 0, 54, 100
2, 74520, Note_on_c, 0, 54, 0
2, 74520, Note_on_c, 0, 55, 100
2, 74640, Note_on_c, 0, 55, 0
2, 74640, Note_on_c, 0, 57, 100
2, 74760, Note_on_c, 0, 57, 0
2, 74760, Note_on_c, 0, 58, 100
2, 74880, Note_on_c, 0, 58, 0
2, 74880, Note_on_c, 0, 60, 100
2, 75000, Note_on_c, 0, 60, 0
2, 75000, Note_on_c, 0, 57, 100
2, 75120, Note_on_c, 0, 57, 0
2, 75120, Note_on_c, 0, 58, 100
2, 75240, Note_on_c, 0, 58, 0
2, 75240, Note_on_c, 0, 60, 100
2, 75360, Note_on_c, 0, 60, 0
2, 75360, Note_on_c, 0, 57, 100
2, 75480, Note_on_c, 0, 57, 0
2, 75480, Note_on_c, 0, 58, 100
2, 75600, Note_on_c, 0, 58, 0
2, 75600, Note_on_c, 0, 60, 100
2, 75720, Note_on_c, 0, 60, 0
2, 75720, Note_on_c, 0, 57, 100
2, 75840, Note_on_c, 0, 57, 0
2, 75840, Note_on_c, 0, 58, 100
2, 75960, Note_on_c, 0, 58, 0
2, 75960, Note_on_c, 0, 55, 100
2, 76080, Note_on_c, 0, 55, 0
2, 76080, Note_on_c, 0, 57, 100
2, 76200, Note_on_c, 0, 57, 0
2, 76200, Note_on_c, 0, 58, 100
2, 76320, Note_on_c, 0, 58, 0
2, 76320, Note_on_c, 0, 60, 100
2, 76440, Note_on_c, 0, 60, 0
2, 76440, Note_on_c, 0, 62, 100
2, 76560, Note_on_c, 0, 62, 0
2, 76560, Note_on_c, 0, 63, 100
2, 76680, Note_on_c, 0, 63, 0
2, 76680, Note_on_c, 0, 48, 100
2, 76800, Note_on_c, 0, 48, 0
2, 76800, Note_on_c, 0, 50, 100
2, 76920, Note_on_c, 0, 50, 0
2, 76920, Note_on_c, 0, 51, 100
2, 77040, Note_on_c, 0, 51, 0
2, 77040, Note_on_c, 0, 53, 100
2, 77160, Note_on_c, 0, 53, 0
2, 77160, Note_on_c, 0, 55, 100
2, 77280, Note_on_c, 0, 55, 0
2, 77280, Note_on_c, 0, 56, 100
2, 77400, Note_on_c, 0, 56, 0
2, 77400, Note_on_c, 0, 53, 100
2, 77520, Note_on_c, 0, 53, 0
2, 77520, Note_on_c, 0, 55, 100
2, 77640, Note_on_c, 0, 55, 0
2, 77640, Note_on_c, 0, 56, 100
2, 77760, Note_on_c, 0, 56, 0
2, 77760, Note_on_c, 0, 58, 100
2, 77880, Note_on_c, 0, 58, 0
2, 77880, Note_on_c, 0, 60, 100
2, 78000, Note_on_c, 0, 60, 0
2, 78000, Note_on_c, 0, 62, 100
2, 78120, Note_on_c, 0, 62, 0
2, 78120, Note_on_c, 0, 46, 100
2, 78240, Note_on_c, 0, 46, 0
2, 78240, Note_on_c, 0, 48, 100
2, 78360, Note_on_c, 0, 48, 0
2, 78360, Note_on_c, 0, 50, 100
2, 78480, Note_on_c, 0, 50, 0
2, 78480, Note_on_c, 0, 51, 100
2, 78600, Note_on_c, 0, 51, 0
2, 78600, Note_on_c, 0, 53, 100
2, 78720, Note_on_c, 0, 53, 0
2, 78720, Note_on_c, 0, 55, 100
2, 78840, Note_on_c, 0, 55, 0
2, 78840, Note_on_c, 0, 51, 100
2, 78960, Note_on_c, 0, 51, 0
2, 78960, Note_on_c, 0, 53, 100
2, 79080, Note_on_c, 0, 53, 0
2, 79080, Note_on_c, 0, 55, 100
2, 79200, Note_on_c, 0, 55, 0
2, 79200, Note_on_c, 0, 56, 100
2, 79320, Note_on_c, 0, 56, 0
2, 79320, Note_on_c, 0, 58, 100
2, 79440, Note_on_c, 0, 58, 0
2, 79440, Note_on_c, 0, 60, 100
2, 79560, Note_on_c, 0, 60, 0
2, 79560, Note_on_c, 0, 58, 100
2, 79680, Note_on_c, 0, 58, 0
2, 79680, Note_on_c, 0, 56, 100
2, 79800, Note_on_c, 0, 56, 0
2, 79800, Note_on_c, 0, 55, 100
2, 79920, Note_on_c, 0, 55, 0
2, 79920, Note_on_c, 0, 53, 100
2, 80040, Note_on_c, 0, 53, 0
2, 80040, Note_on_c, 0, 51, 100
2, 80160, Note_on_c, 0, 51, 0
2, 80160, Note_on_c, 0, 56, 100
2, 80280, Note_on_c, 0, 56, 0
2, 80280, Note_on_c, 0, 55, 100
2, 80400, Note_on_c, 0, 55, 0
2, 80400, Note_on_c, 0, 53, 100
2, 80520, Note_on_c, 0, 53, 0
2, 80520, Note_on_c, 0, 51, 100
2, 80640, Note_on_c, 0, 51, 0
2, 80640, Note_on_c, 0, 50, 100
2, 80760, Note_on_c, 0, 50, 0
2, 80760, Note_on_c, 0, 48, 100
2, 80880, Note_on_c, 0, 48, 0
2, 80880, Note_on_c, 0, 53, 100
2, 81000, Note_on_c, 0, 53, 0
2, 81000, Note_on_c, 0, 51, 100
2, 81120, Note_on_c, 0, 51, 0
2, 81120, Note_on_c, 0, 50, 100
2, 81240, Note_on_c, 0, 50, 0
2, 81240, Note_on_c, 0, 48, 100
2, 81360, Note_on_c, 0, 48, 0
2, 81360, Note_on_c, 0, 46, 100
2, 81480, Note_on_c, 0, 46, 0
2, 81480, Note_on_c, 0, 45, 100
2, 81600, Note_on_c, 0, 45, 0
2, 81600, Note_on_c, 0, 51, 100
2, 81720, Note_on_c, 0, 51, 0
2, 81720, Note_on_c, 0, 50, 100
2, 81840, Note_on_c, 0, 50, 0
2, 81840, Note_on_c, 0, 48, 100
2, 81960, Note_on_c, 0, 48, 0
2, 81960, Note_on_c, 0, 46, 100
2, 82080, Note_on_c, 0, 46, 0
2, 82080, Note_on_c, 0, 58, 100
2, 82320, Note_on_c, 0, 58, 0
2, 82320, Note_on_c, 0, 60, 100
2, 82560, Note_on_c, 0, 60, 0
2, 82560, Note_on_c, 0, 51, 100
2, 82680, Note_on_c, 0, 51, 0
2, 82680, Note_on_c, 0, 55, 100
2, 82800, Note_on_c, 0, 55, 0
2, 82800, Note_on_c, 0, 53, 100
2, 82920, Note_on_c, 0, 53, 0
2, 82920, Note_on_c, 0, 56, 100
2, 83040, Note_on_c, 0, 56, 0
2, 83040, Note_on_c, 0, 55, 100
2, 83160, Note_on_c, 0, 55, 0
2, 83160, Note_on_c, 0, 60, 100
2, 83280, Note_on_c, 0, 60, 0
2, 83280, Note_on_c, 0, 58, 100
2, 83400, Note_on_c, 0, 58, 0
2, 83400, Note_on_c, 0, 56, 100
2, 83520, Note_on_c, 0, 56, 0
2, 83520, Note_on_c, 0, 58, 100
2, 83640, Note_on_c, 0, 58, 0
2, 83640, Note_on_c, 0, 55, 100
2, 83760, Note_on_c, 0, 55, 0
2, 83760, Note_on_c, 0, 56, 100
2, 84000, Note_on_c, 0, 56, 0
2, 84000, Note_on_c, 0, 48, 100
2, 84120, Note_on_c, 0, 48, 0
2, 84120, Note_on_c, 0, 51, 100
2, 84240, Note_on_c, 0, 51, 0
2, 84240, Note_on_c, 0, 50, 100
2, 84360, Note_on_c, 0, 50, 0
2, 84360, Note_on_c, 0, 53, 100
2, 84480, Note_on_c, 0, 53, 0
2, 84480, Note_on_c, 0, 51, 100
2, 84600, Note_on_c, 0, 51, 0
2, 84600, Note_on_c, 0, 56, 100
2, 84720, Note_on_c, 0, 56, 0
2, 84720, Note_on_c, 0, 55, 100
2, 84840, Note_on_c, 0, 55, 0
2, 84840, Note_on_c, 0, 53, 100
2, 84960, Note_on_c, 0, 53, 0
2, 84960, Note_on_c, 0, 55, 100
2, 85080, Note_on_c, 0, 55, 0
2, 85080, Note_on_c, 0, 51, 100
2, 85200, Note_on_c, 0, 51, 0
2, 85200, Note_on_c, 0, 53, 100
2, 85320, Note_on_c, 0, 53, 0
2, 85320, Note_on_c, 0, 55, 100
2, 85440, Note_on_c, 0, 55, 0
2, 85440, Note_on_c, 0, 56, 100
2, 85560, Note_on_c, 0, 56, 0
2, 85560, Note_on_c, 0, 58, 100
2, 85680, Note_on_c, 0, 58, 0
2, 85680, Note_on_c, 0, 60, 100
2, 85920, Note_on_c, 0, 60, 0
2, 85920, Note_on_c, 0, 51, 100
2, 86040, Note_on_c, 0, 51, 0
2, 86040, Note_on_c, 0, 50, 100
2, 86160, Note_on_c, 0, 50, 0
2, 86160, Note_on_c, 0, 48, 100
2, 86280, Note_on_c, 0, 48, 0
2, 86280, Note_on_c, 0, 46, 100
2, 86400, Note_on_c, 0, 46, 0
2, 86400, Note_on_c, 0, 48, 100
2, 86520, Note_on_c, 0, 48, 0
2, 86520, Note_on_c, 0, 50, 100
2, 86640, Note_on_c, 0, 50, 0
2, 86640, Note_on_c, 0, 51, 100
2, 86760, Note_on_c, 0, 51, 0
2, 86760, Note_on_c, 0, 53, 100
2, 86880, Note_on_c, 0, 53, 0
2, 86880, Note_on_c, 0, 53, 100
2, 87240, Note_on_c, 0, 53, 0
2, 87240, Note_on_c, 0, 51, 100
2, 87360, Note_on_c, 0, 51, 0
2, 87360, Note_on_c, 0, 51, 100
2, 87600, Note_on_c, 0, 51, 0
2, 87600, Note_on_c, 0, 55, 100
2, 87720, Note_on_c, 0, 55, 0
2, 87720, Note_on_c, 0, 53, 100
2, 87840, Note_on_c, 0, 53, 0
2, 87840, Note_on_c, 0, 55, 100
2, 87960, Note_on_c, 0, 55, 0
2, 87960, Note_on_c, 0, 51, 100
2, 88080, Note_on_c, 0, 51, 0
2, 88080, Note_on_c, 0, 58, 100
2, 88320, Note_on_c, 0, 58, 0
2, 88320, Note_on_c, 0, 50, 100
2, 88440, Note_on_c, 0, 50, 0
2, 88440, Note_on_c, 0, 58, 100
2, 88560, Note_on_c, 0, 58, 0
2, 88560, Note_on_c, 0, 52, 100
2, 88680, Note_on_c, 0, 52, 0
2, 88680, Note_on_c, 0, 58, 100
2, 88800, Note_on_c, 0, 58, 0
2, 88800, Note_on_c, 0, 53, 100
2, 88920, Note_on_c, 0, 53, 0
2, 88920, Note_on_c, 0, 58, 100
2, 89040, Note_on_c, 0, 58, 0
2, 89040, Note_on_c, 0, 56, 100
2, 89160, Note_on_c, 0, 56, 0
2, 89160, Note_on_c, 0, 55, 100
2, 89280, Note_on_c, 0, 55, 0
2, 89280, Note_on_c, 0, 56, 100
2, 89400, Note_on_c, 0, 56, 0
2, 89400, Note_on_c, 0, 53, 100
2, 89520, Note_on_c, 0, 53, 0
2, 89520, Note_on_c, 0, 60, 100
2, 89760, Note_on_c, 0, 60, 0
2, 89760, Note_on_c, 0, 51, 100
2, 89880, Note_on_c, 0, 51, 0
2, 89880, Note_on_c, 0, 60, 100
2, 90000, Note_on_c, 0, 60, 0
2, 90000, Note_on_c, 0, 53, 100
2, 90120, Note_on_c, 0, 53, 0
2, 90120, Note_on_c, 0, 60, 100
2, 90240, Note_on_c, 0, 60, 0
2, 90240, Note_on_c, 0, 55, 100
2, 90360, Note_on_c, 0, 55, 0
2, 90360, Note_on_c, 0, 60, 100
2, 90480, Note_on_c, 0, 60, 0
2, 90480, Note_on_c, 0, 58, 100
2, 90600, Note_on_c, 0, 58, 0
2, 90600, Note_on_c, 0, 56, 100
2, 90720, Note_on_c, 0, 56, 0
2, 90720, Note_on_c, 0, 58, 100
2, 90840, Note_on_c, 0, 58, 0
2, 90840, Note_on_c, 0, 55, 100
2, 90960, Note_on_c, 0, 55, 0
2, 90960, Note_on_c, 0, 63, 100
2, 91200, Note_on_c, 0, 63, 0
2, 91200, Note_on_c, 0, 55, 100
2, 91320, Note_on_c, 0, 55, 0
2, 91320, Note_on_c, 0, 63, 100
2, 91440, Note_on_c, 0, 63, 0
2, 91440, Note_on_c, 0, 56, 100
2, 91560, Note_on_c, 0, 56, 0
2, 91560, Note_on_c, 0, 63, 100
2, 91680, Note_on_c, 0, 63, 0
2, 91680, Note_on_c, 0, 58, 100
2, 91800, Note_on_c, 0, 58, 0
2, 91800, Note_on_c, 0, 62, 100
2, 91920, Note_on_c, 0, 62, 0
2, 91920, Note_on_c, 0, 53, 100
2, 92040, Note_on_c, 0, 53, 0
2, 92040, Note_on_c, 0, 62, 100
2, 92160, Note_on_c, 0, 62, 0
2, 92160, Note_on_c, 0, 55, 100
2, 92280, Note_on_c, 0, 55, 0
2, 92280, Note_on_c, 0, 62, 100
2, 92400, Note_on_c, 0, 62, 0
2, 92400, Note_on_c, 0, 56, 100
2, 92520, Note_on_c, 0, 56, 0
2, 92520, Note_on_c, 0, 60, 100
2, 92640, Note_on_c, 0, 60, 0
2, 92640, Note_on_c, 0, 51, 100
2, 92760, Note_on_c, 0, 51, 0
2, 92760, Note_on_c, 0, 60, 100
2, 92880, Note_on_c, 0, 60, 0
2, 92880, Note_on_c, 0, 53, 100
2, 93000, Note_on_c, 0, 53, 0
2, 93000, Note_on_c, 0, 60, 100
2, 93120, Note_on_c, 0, 60, 0
2, 93120, Note_on_c, 0, 55, 100
2, 93240, Note_on_c, 0, 55, 0
2, 93240, Note_on_c, 0, 60, 100
2, 93360, Note_on_c, 0, 60, 0
2, 93360, Note_on_c, 0, 59, 100
2, 93480, Note_on_c, 0, 59, 0
2, 93480, Note_on_c, 0, 57, 100
2, 93600, Note_on_c, 0, 57, 0
2, 93600, Note_on_c, 0, 59, 100
2, 93720, Note_on_c, 0, 59, 0
2, 93720, Note_on_c, 0, 55, 100
2, 93840, Note_on_c, 0, 55, 0
2, 93840, Note_on_c, 0, 56, 100
2, 93960, Note_on_c, 0, 56, 0
2, 93960, Note_on_c, 0, 58, 100
2, 94080, Note_on_c, 0, 58, 0
2, 94080, Note_on_c, 0, 60, 100
2, 94320, Note_on_c, 0, 60, 0
2, 94320, Note_on_c, 0, 62, 100
2, 94560, Note_on_c, 0, 62, 0
2, 94560, Note_on_c, 0, 63, 100
2, 94680, Note_on_c, 0, 63, 0
2, 94680, Note_on_c, 0, 56, 100
2, 94800, Note_on_c, 0, 56, 0
2, 94800, Note_on_c, 0, 55, 100
2, 94920, Note_on_c, 0, 55, 0
2, 94920, Note_on_c, 0, 53, 100
2, 95040, Note_on_c, 0, 53, 0
2, 95040, Note_on_c, 0, 55, 100
2, 95160, Note_on_c, 0, 55, 0
2, 95160, Note_on_c, 0, 51, 100
2, 95280, Note_on_c, 0, 51, 0
2, 95280, Note_on_c, 0, 53, 100
2, 95400, Note_on_c, 0, 53, 0
2, 95400, Note_on_c, 0, 55, 100
2, 95520, Note_on_c, 0, 55, 0
2, 95520, Note_on_c, 0, 57, 100
2, 95640, Note_on_c, 0, 57, 0
2, 95640, Note_on_c, 0, 53, 100
2, 95760, Note_on_c, 0, 53, 0
2, 95760, Note_on_c, 0, 59, 100
2, 95880, Note_on_c, 0, 59, 0
2, 95880, Note_on_c, 0, 53, 100
2, 96000, Note_on_c, 0, 53, 0
2, 96000, Note_on_c, 0, 60, 100
2, 96120, Note_on_c, 0, 60, 0
2, 96120, Note_on_c, 0, 53, 100
2, 96240, Note_on_c, 0, 53, 0
2, 96240, Note_on_c, 0, 51, 100
2, 96360, Note_on_c, 0, 51, 0
2, 96360, Note_on_c, 0, 50, 100
2, 96480, Note_on_c, 0, 50, 0
2, 96480, Note_on_c, 0, 51, 100
2, 96600, Note_on_c, 0, 51, 0
2, 96600, Note_on_c, 0, 48, 100
2, 96720, Note_on_c, 0, 48, 0
2, 96720, Note_on_c, 0, 50, 100
2, 96840, Note_on_c, 0, 50, 0
2, 96840, Note_on_c, 0, 51, 100
2, 96960, Note_on_c, 0, 51, 0
2, 96960, Note_on_c, 0, 53, 100
2, 97080, Note_on_c, 0, 53, 0
2, 97080, Note_on_c, 0, 50, 100
2, 97200, Note_on_c, 0, 50, 0
2, 97200, Note_on_c, 0, 47, 100
2, 97320, Note_on_c, 0, 47, 0
2, 97320, Note_on_c, 0, 48, 100
2, 97440, Note_on_c, 0, 48, 0
2, 97440, Note_on_c, 0, 50, 100
2, 97560, Note_on_c, 0, 50, 0
2, 97560, Note_on_c, 0, 47, 100
2, 97680, Note_on_c, 0, 47, 0
2, 97680, Note_on_c, 0, 43, 100
2, 97800, Note_on_c, 0, 43, 0
2, 97800, Note_on_c, 0, 45, 100
2, 97920, Note_on_c, 0, 45, 0
2, 97920, Note_on_c, 0, 47, 100
2, 98040, Note_on_c, 0, 47, 0
2, 98040, Note_on_c, 0, 41, 100
2, 98160, Note_on_c, 0, 41, 0
2, 98160, Note_on_c, 0, 39, 100
2, 98280, Note_on_c, 0, 39, 0
2, 98280, Note_on_c, 0, 43, 100
2, 98400, Note_on_c, 0, 43, 0
2, 98400, Note_on_c, 0, 48, 100
2, 98520, Note_on_c, 0, 48, 0
2, 98520, Note_on_c, 0, 41, 100
2, 98640, Note_on_c, 0, 41, 0
2, 98640, Note_on_c, 0, 43, 100
2, 98760, Note_on_c, 0, 43, 0
2, 98760, Note_on_c, 0, 47, 100
2, 98880, Note_on_c, 0, 47, 0
2, 98880, Note_on_c, 0, 45, 100
2, 99000, Note_on_c, 0, 45, 0
2, 99000, Note_on_c, 0, 48, 100
2, 99120, Note_on_c, 0, 48, 0
2, 99120, Note_on_c, 0, 53, 100
2, 99240, Note_on_c, 0, 53, 0
2, 99240, Note_on_c, 0, 47, 100
2, 99360, Note_on_c, 0, 47, 0
2, 99360, Note_on_c, 0, 48, 100
2, 99480, Note_on_c, 0, 48, 0
2, 99480, Note_on_c, 0, 51, 100
2, 99600, Note_on_c, 0, 51, 0
2, 99600, Note_on_c, 0, 50, 100
2, 99720, Note_on_c, 0, 50, 0
2, 99720, Note_on_c, 0, 53, 100
2, 99840, Note_on_c, 0, 53, 0
2, 99840, Note_on_c, 0, 58, 100
2, 99960, Note_on_c, 0, 58, 0
2, 99960, Note_on_c, 0, 52, 100
2, 100080, Note_on_c, 0, 52, 0
2, 100080, Note_on_c, 0, 53, 100
2, 100200, Note_on_c, 0, 53, 0
2, 100200, Note_on_c, 0, 56, 100
2, 100320, Note_on_c, 0, 56, 0
2, 100320, Note_on_c, 0, 53, 100
2, 100440, Note_on_c, 0, 53, 0
2, 100440, Note_on_c, 0, 55, 100
2, 100560, Note_on_c, 0, 55, 0
2, 100560, Note_on_c, 0, 51, 100
2, 100680, Note_on_c, 0, 51, 0
2, 100680, Note_on_c, 0, 55, 100
2, 100800, Note_on_c, 0, 55, 0
2, 100800, Note_on_c, 0, 50, 100
2, 100920, Note_on_c, 0, 50, 0
2, 100920, Note_on_c, 0, 55, 100
2, 101040, Note_on_c, 0, 55, 0
2, 101040, Note_on_c, 0, 51, 100
2, 101160, Note_on_c, 0, 51, 0
2, 101160, Note_on_c, 0, 55, 100
2, 101280, Note_on_c, 0, 55, 0
2, 101280, Note_on_c, 0, 51, 100
2, 101400, Note_on_c, 0, 51, 0
2, 101400, Note_on_c, 0, 60, 100
2, 101520, Note_on_c, 0, 60, 0
2, 101520, Note_on_c, 0, 51, 100
2, 101640, Note_on_c, 0, 51, 0
2, 101640, Note_on_c, 0, 58, 100
2, 101760, Note_on_c, 0, 58, 0
2, 101760, Note_on_c, 0, 51, 100
2, 101880, Note_on_c, 0, 51, 0
2, 101880, Note_on_c, 0, 57, 100
2, 102000, Note_on_c, 0, 57, 0
2, 102000, Note_on_c, 0, 53, 100
2, 102120, Note_on_c, 0, 53, 0
2, 102120, Note_on_c, 0, 57, 100
2, 102240, Note_on_c, 0, 57, 0
2, 102240, Note_on_c, 0, 51, 100
2, 102360, Note_on_c, 0, 51, 0
2, 102360, Note_on_c, 0, 57, 100
2, 102480, Note_on_c, 0, 57, 0
2, 102480, Note_on_c, 0, 50, 100
2, 102600, Note_on_c, 0, 50, 0
2, 102600, Note_on_c, 0, 56, 100
2, 102720, Note_on_c, 0, 56, 0
2, 102720, Note_on_c, 0, 50, 100
2, 102840, Note_on_c, 0, 50, 0
2, 102840, Note_on_c, 0, 58, 100
2, 102960, Note_on_c, 0, 58, 0
2, 102960, Note_on_c, 0, 50, 100
2, 103080, Note_on_c, 0, 50, 0
2, 103080, Note_on_c, 0, 56, 100
2, 103200, Note_on_c, 0, 56, 0
2, 103200, Note_on_c, 0, 51, 100
2, 103320, Note_on_c, 0, 51, 0
2, 103320, Note_on_c, 0, 56, 100
2, 103440, Note_on_c, 0, 56, 0
2, 103440, Note_on_c, 0, 55, 100
2, 103560, Note_on_c, 0, 55, 0
2, 103560, Note_on_c, 0, 53, 100
2, 103680, Note_on_c, 0, 53, 0
2, 103680, Note_on_c, 0, 55, 100
2, 103800, Note_on_c, 0, 55, 0
2, 103800, Note_on_c, 0, 58, 100
2, 103920, Note_on_c, 0, 58, 0
2, 103920, Note_on_c, 0, 63, 100
2, 104160, Note_on_c, 0, 63, 0
2, 104160, Note_on_c, 0, 43, 100
2, 104400, Note_on_c, 0, 43, 0
2, 104400, Note_on_c, 0, 45, 100
2, 104640, Note_on_c, 0, 45, 0
2, 104640, Note_on_c, 0, 46, 100
2, 104880, Note_on_c, 0, 46, 0
2, 104880, Note_on_c, 0, 62, 100
2, 105000, Note_on_c, 0, 62, 0
2, 105000, Note_on_c, 0, 60, 100
2, 105120, Note_on_c, 0, 60, 0
2, 105120, Note_on_c, 0, 62, 100
2, 105240, Note_on_c, 0, 62, 0
2, 105240, Note_on_c, 0, 58, 100
2, 105360, Note_on_c, 0, 58, 0
2, 105360, Note_on_c, 0, 60, 100
2, 105600, Note_on_c, 0, 60, 0
2, 105600, Note_on_c, 0, 40, 100
2, 105840, Note_on_c, 0, 40, 0
2, 105840, Note_on_c, 0, 42, 100
2, 106080, Note_on_c, 0, 42, 0
2, 106080, Note_on_c, 0, 43, 100
2, 106320, Note_on_c, 0, 43, 0
2, 106320, Note_on_c, 0, 58, 100
2, 106440, Note_on_c, 0, 58, 0
2, 106440, Note_on_c, 0, 57, 100
2, 106560, Note_on_c, 0, 57, 0
2, 106560, Note_on_c, 0, 58, 100
2, 106680, Note_on_c, 0, 58, 0
2, 106680, Note_on_c, 0, 55, 100
2, 106800, Note_on_c, 0, 55, 0
2, 106800, Note_on_c, 0, 57, 100
2, 106920, Note_on_c, 0, 57, 0
2, 106920, Note_on_c, 0, 58, 100
2, 107040, Note_on_c, 0, 58, 0
2, 107040, Note_on_c, 0, 60, 100
2, 107160, Note_on_c, 0, 60, 0
2, 107160, Note_on_c, 0, 57, 100
2, 107280, Note_on_c, 0, 57, 0
2, 107280, Note_on_c, 0, 54, 100
2, 107400, Note_on_c, 0, 54, 0
2, 107400, Note_on_c, 0, 55, 100
2, 107520, Note_on_c, 0, 55, 0
2, 107520, Note_on_c, 0, 57, 100
2, 107640, Note_on_c, 0, 57, 0
2, 107640, Note_on_c, 0, 54, 100
2, 107760, Note_on_c, 0, 54, 0
2, 107760, Note_on_c, 0, 50, 100
2, 107880, Note_on_c, 0, 50, 0
2, 107880, Note_on_c, 0, 52, 100
2, 108000, Note_on_c, 0, 52, 0
2, 108000, Note_on_c, 0, 54, 100
2, 108120, Note_on_c, 0, 54, 0
2, 108120, Note_on_c, 0, 48, 100
2, 108240, Note_on_c, 0, 48, 0
2, 108240, Note_on_c, 0, 46, 100
2, 108360, Note_on_c, 0, 46, 0
2, 108360, Note_on_c, 0, 50, 100
2, 108480, Note_on_c, 0, 50, 0
2, 108480, Note_on_c, 0, 55, 100
2, 108600, Note_on_c, 0, 55, 0
2, 108600, Note_on_c, 0, 48, 100
2, 108720, Note_on_c, 0, 48, 0
2, 108720, Note_on_c, 0, 50, 100
2, 108840, Note_on_c, 0, 50, 0
2, 108840, Note_on_c, 0, 54, 100
2, 108960, Note_on_c, 0, 54, 0
2, 108960, Note_on_c, 0, 43, 100
2, 109440, Note_on_c, 0, 43, 0
2, 109440, Note_on_c, 0, 50, 100
2, 109680, Note_on_c, 0, 50, 0
2, 109680, Note_on_c, 0, 50, 100
2, 110400, Note_on_c, 0, 50, 0
2, 112800, Note_on_c, 0, 50, 100
2, 112920, Note_on_c, 0, 50, 0
2, 112920, Note_on_c, 0, 51, 100
2, 113040, Note_on_c, 0, 51, 0
2, 113040, Note_on_c, 0, 50, 100
2, 113160, Note_on_c, 0, 50, 0
2, 113160, Note_on_c, 0, 51, 100
2, 113280, Note_on_c, 0, 51, 0
2, 113280, Note_on_c, 0, 53, 100
2, 113400, Note_on_c, 0, 53, 0
2, 113400, Note_on_c, 0, 55, 100
2, 113520, Note_on_c, 0, 55, 0
2, 113520, Note_on_c, 0, 53, 100
2, 113640, Note_on_c, 0, 53, 0
2, 113640, Note_on_c, 0, 55, 100
2, 113760, Note_on_c, 0, 55, 0
2, 113760, Note_on_c, 0, 56, 100
2, 113880, Note_on_c, 0, 56, 0
2, 113880, Note_on_c, 0, 53, 100
2, 114000, Note_on_c, 0, 53, 0
2, 114000, Note_on_c, 0, 59, 100
2, 114120, Note_on_c, 0, 59, 0
2, 114120, Note_on_c, 0, 53, 100
2, 114240, Note_on_c, 0, 53, 0
2, 114240, Note_on_c, 0, 62, 100
2, 114360, Note_on_c, 0, 62, 0
2, 114360, Note_on_c, 0, 56, 100
2, 114480, Note_on_c, 0, 56, 0
2, 114480, Note_on_c, 0, 55, 100
2, 114600, Note_on_c, 0, 55, 0
2, 114600, Note_on_c, 0, 53, 100
2, 114720, Note_on_c, 0, 53, 0
2, 114720, Note_on_c, 0, 51, 100
2, 114840, Note_on_c, 0, 51, 0
2, 114840, Note_on_c, 0, 55, 100
2, 114960, Note_on_c, 0, 55, 0
2, 114960, Note_on_c, 0, 50, 100
2, 115080, Note_on_c, 0, 50, 0
2, 115080, Note_on_c, 0, 51, 100
2, 115200, Note_on_c, 0, 51, 0
2, 115200, Note_on_c, 0, 53, 100
2, 115320, Note_on_c, 0, 53, 0
2, 115320, Note_on_c, 0, 50, 100
2, 115440, Note_on_c, 0, 50, 0
2, 115440, Note_on_c, 0, 51, 100
2, 115560, Note_on_c, 0, 51, 0
2, 115560, Note_on_c, 0, 48, 100
2, 115680, Note_on_c, 0, 48, 0
2, 115680, Note_on_c, 0, 47, 100
2, 115800, Note_on_c, 0, 47, 0
2, 115800, Note_on_c, 0, 48, 100
2, 115920, Note_on_c, 0, 48, 0
2, 115920, Note_on_c, 0, 50, 100
2, 116040, Note_on_c, 0, 50, 0
2, 116040, Note_on_c, 0, 47, 100
2, 116160, Note_on_c, 0, 47, 0
2, 116160, Note_on_c, 0, 48, 100
2, 116280, Note_on_c, 0, 48, 0
2, 116280, Note_on_c, 0, 51, 100
2, 116400, Note_on_c, 0, 51, 0
2, 116400, Note_on_c, 0, 50, 100
2, 116520, Note_on_c, 0, 50, 0
2, 116520, Note_on_c, 0, 51, 100
2, 116640, Note_on_c, 0, 51, 0
2, 116640, Note_on_c, 0, 53, 100
2, 116760, Note_on_c, 0, 53, 0
2, 116760, Note_on_c, 0, 50, 100
2, 116880, Note_on_c, 0, 50, 0
2, 116880, Note_on_c, 0, 52, 100
2, 117000, Note_on_c, 0, 52, 0
2, 117000, Note_on_c, 0, 46, 100
2, 117120, Note_on_c, 0, 46, 0
2, 117120, Note_on_c, 0, 44, 100
2, 117240, Note_on_c, 0, 44, 0
2, 117240, Note_on_c, 0, 46, 100
2, 117360, Note_on_c, 0, 46, 0
2, 117360, Note_on_c, 0, 48, 100
2, 117480, Note_on_c, 0, 48, 0
2, 117480, Note_on_c, 0, 44, 100
2, 117600, Note_on_c, 0, 44, 0
2, 117600, Note_on_c, 0, 46, 100
2, 117720, Note_on_c, 0, 46, 0
2, 117720, Note_on_c, 0, 53, 100
2, 117840, Note_on_c, 0, 53, 0
2, 117840, Note_on_c, 0, 52, 100
2, 117960, Note_on_c, 0, 52, 0
2, 117960, Note_on_c, 0, 53, 100
2, 118080, Note_on_c, 0, 53, 0
2, 118080, Note_on_c, 0, 55, 100
2, 118200, Note_on_c, 0, 55, 0
2, 118200, Note_on_c, 0, 52, 100
2, 118320, Note_on_c, 0, 52, 0
2, 118320, Note_on_c, 0, 53, 100
2, 118440, Note_on_c, 0, 53, 0
2, 118440, Note_on_c, 0, 44, 100
2, 118560, Note_on_c, 0, 44, 0
2, 118560, Note_on_c, 0, 43, 100
2, 118680, Note_on_c, 0, 43, 0
2, 118680, Note_on_c, 0, 44, 100
2, 118800, Note_on_c, 0, 44, 0
2, 118800, Note_on_c, 0, 46, 100
2, 118920, Note_on_c, 0, 46, 0
2, 118920, Note_on_c, 0, 43, 100
2, 119040, Note_on_c, 0, 43, 0
2, 119040, Note_on_c, 0, 44, 100
2, 119160, Note_on_c, 0, 44, 0
2, 119160, Note_on_c, 0, 55, 100
2, 119280, Note_on_c, 0, 55, 0
2, 119280, Note_on_c, 0, 53, 100
2, 119400, Note_on_c, 0, 53, 0
2, 119400, Note_on_c, 0, 55, 100
2, 119520, Note_on_c, 0, 55, 0
2, 119520, Note_on_c, 0, 56, 100
2, 119640, Note_on_c, 0, 56, 0
2, 119640, Note_on_c, 0, 53, 100
2, 119760, Note_on_c, 0, 53, 0
2, 119760, Note_on_c, 0, 55, 100
2, 119880, Note_on_c, 0, 55, 0
2, 119880, Note_on_c, 0, 40, 100
2, 120000, Note_on_c, 0, 40, 0
2, 120000, Note_on_c, 0, 38, 100
2, 120120, Note_on_c, 0, 38, 0
2, 120120, Note_on_c, 0, 40, 100
2, 120240, Note_on_c, 0, 40, 0
2, 120240, Note_on_c, 0, 41, 100
2, 120360, Note_on_c, 0, 41, 0
2, 120360, Note_on_c, 0, 38, 100
2, 120480, Note_on_c, 0, 38, 0
2, 120480, Note_on_c, 0, 40, 100
2, 120600, Note_on_c, 0, 40, 0
2, 120600, Note_on_c, 0, 41, 100
2, 120720, Note_on_c, 0, 41, 0
2, 120720, Note_on_c, 0, 43, 100
2, 120840, Note_on_c, 0, 43, 0
2, 120840, Note_on_c, 0, 44, 100
2, 120960, Note_on_c, 0, 44, 0
2, 120960, Note_on_c, 0, 46, 100
2, 121080, Note_on_c, 0, 46, 0
2, 121080, Note_on_c, 0, 43, 100
2, 121200, Note_on_c, 0, 43, 0
2, 121200, Note_on_c, 0, 44, 100
2, 121320, Note_on_c, 0, 44, 0
2, 121320, Note_on_c, 0, 43, 100
2, 121440, Note_on_c, 0, 43, 0
2, 121440, Note_on_c, 0, 44, 100
2, 121560, Note_on_c, 0, 44, 0
2, 121560, Note_on_c, 0, 46, 100
2, 121680, Note_on_c, 0, 46, 0
2, 121680, Note_on_c, 0, 48, 100
2, 121800, Note_on_c, 0, 48, 0
2, 121800, Note_on_c, 0, 50, 100
2, 121920, Note_on_c, 0, 50, 0
2, 121920, Note_on_c, 0, 52, 100
2, 122040, Note_on_c, 0, 52, 0
2, 122040, Note_on_c, 0, 53, 100
2, 122160, Note_on_c, 0, 53, 0
2, 122160, Note_on_c, 0, 55, 100
2, 122280, Note_on_c, 0, 55, 0
2, 122280, Note_on_c, 0, 56, 100
2, 122400, Note_on_c, 0, 56, 0
2, 122400, Note_on_c, 0, 58, 100
2, 122520, Note_on_c, 0, 58, 0
2, 122520, Note_on_c, 0, 55, 100
2, 122640, Note_on_c, 0, 55, 0
2, 122640, Note_on_c, 0, 56, 100
2, 122760, Note_on_c, 0, 56, 0
2, 122760, Note_on_c, 0, 55, 100
2, 122880, Note_on_c, 0, 55, 0
2, 122880, Note_on_c, 0, 53, 100
2, 123000, Note_on_c, 0, 53, 0
2, 123000, Note_on_c, 0, 52, 100
2, 123120, Note_on_c, 0, 52, 0
2, 123120, Note_on_c, 0, 53, 100
2, 123240, Note_on_c, 0, 53, 0
2, 123240, Note_on_c, 0, 55, 100
2, 123360, Note_on_c, 0, 55, 0
2, 123360, Note_on_c, 0, 56, 100
2, 123480, Note_on_c, 0, 56, 0
2, 123480, Note_on_c, 0, 58, 100
2, 123600, Note_on_c, 0, 58, 0
2, 123600, Note_on_c, 0, 60, 100
2, 123720, Note_on_c, 0, 60, 0
2, 123720, Note_on_c, 0, 61, 100
2, 123840, Note_on_c, 0, 61, 0
2, 123840, Note_on_c, 0, 58, 100
2, 123960, Note_on_c, 0, 58, 0
2, 123960, Note_on_c, 0, 60, 100
2, 124080, Note_on_c, 0, 60, 0
2, 124080, Note_on_c, 0, 61, 100
2, 124200, Note_on_c, 0, 61, 0
2, 124200, Note_on_c, 0, 58, 100
2, 124320, Note_on_c, 0, 58, 0
2, 124320, Note_on_c, 0, 53, 100
2, 124440, Note_on_c, 0, 53, 0
2, 124440, Note_on_c, 0, 56, 100
2, 124560, Note_on_c, 0, 56, 0
2, 124560, Note_on_c, 0, 55, 100
2, 124680, Note_on_c, 0, 55, 0
2, 124680, Note_on_c, 0, 58, 100
2, 124800, Note_on_c, 0, 58, 0
2, 124800, Note_on_c, 0, 56, 100
2, 124920, Note_on_c, 0, 56, 0
2, 124920, Note_on_c, 0, 61, 100
2, 125040, Note_on_c, 0, 61, 0
2, 125040, Note_on_c, 0, 60, 100
2, 125160, Note_on_c, 0, 60, 0
2, 125160, Note_on_c, 0, 58, 100
2, 125280, Note_on_c, 0, 58, 0
2, 125280, Note_on_c, 0, 60, 100
2, 125400, Note_on_c, 0, 60, 0
2, 125400, Note_on_c, 0, 56, 100
2, 125520, Note_on_c, 0, 56, 0
2, 125520, Note_on_c, 0, 58, 100
2, 125640, Note_on_c, 0, 58, 0
2, 125640, Note_on_c, 0, 55, 100
2, 125760, Note_on_c, 0, 55, 0
2, 125760, Note_on_c, 0, 50, 100
2, 125880, Note_on_c, 0, 50, 0
2, 125880, Note_on_c, 0, 53, 100
2, 126000, Note_on_c, 0, 53, 0
2, 126000, Note_on_c, 0, 52, 100
2, 126120, Note_on_c, 0, 52, 0
2, 126120, Note_on_c, 0, 55, 100
2, 126240, Note_on_c, 0, 55, 0
2, 126240, Note_on_c, 0, 53, 100
2, 126360, Note_on_c, 0, 53, 0
2, 126360, Note_on_c, 0, 58, 100
2, 126480, Note_on_c, 0, 58, 0
2, 126480, Note_on_c, 0, 56, 100
2, 126600, Note_on_c, 0, 56, 0
2, 126600, Note_on_c, 0, 55, 100
2, 126720, Note_on_c, 0, 55, 0
2, 126720, Note_on_c, 0, 56, 100
2, 126840, Note_on_c, 0, 56, 0
2, 126840, Note_on_c, 0, 53, 100
2, 126960, Note_on_c, 0, 53, 0
2, 126960, Note_on_c, 0, 55, 100
2, 127080, Note_on_c, 0, 55, 0
2, 127080, Note_on_c, 0, 56, 100
2, 127200, Note_on_c, 0, 56, 0
2, 127200, Note_on_c, 0, 58, 100
2, 127320, Note_on_c, 0, 58, 0
2, 127320, Note_on_c, 0, 55, 100
2, 127440, Note_on_c, 0, 55, 0
2, 127440, Note_on_c, 0, 52, 100
2, 127560, Note_on_c, 0, 52, 0
2, 127560, Note_on_c, 0, 53, 100
2, 127680, Note_on_c, 0, 53, 0
2, 127680, Note_on_c, 0, 55, 100
2, 127800, Note_on_c, 0, 55, 0
2, 127800, Note_on_c, 0, 52, 100
2, 127920, Note_on_c, 0, 52, 0
2, 127920, Note_on_c, 0, 48, 100
2, 128040, Note_on_c, 0, 48, 0
2, 128040, Note_on_c, 0, 50, 100
2, 128160, Note_on_c, 0, 50, 0
2, 128160, Note_on_c, 0, 52, 100
2, 128280, Note_on_c, 0, 52, 0
2, 128280, Note_on_c, 0, 46, 100
2, 128400, Note_on_c, 0, 46, 0
2, 128400, Note_on_c, 0, 44, 100
2, 128520, Note_on_c, 0, 44, 0
2, 128520, Note_on_c, 0, 48, 100
2, 128640, Note_on_c, 0, 48, 0
2, 128640, Note_on_c, 0, 53, 100
2, 128760, Note_on_c, 0, 53, 0
2, 128760, Note_on_c, 0, 46, 100
2, 128880, Note_on_c, 0, 46, 0
2, 128880, Note_on_c, 0, 48, 100
2, 129000, Note_on_c, 0, 48, 0
2, 129000, Note_on_c, 0, 52, 100
2, 129120, Note_on_c, 0, 52, 0
2, 129120, Note_on_c, 0, 53, 100
2, 129360, Note_on_c, 0, 53, 0
2, 129360, Note_on_c, 0, 41, 100
2, 129600, Note_on_c, 0, 41, 0
2, 129600, Note_on_c, 0, 56, 100
2, 129840, Note_on_c, 0, 56, 0
2, 129840, Note_on_c, 0, 56, 100
2, 130560, Note_on_c, 0, 56, 0
2, 132960, Note_on_c, 0, 51, 100
2, 133080, Note_on_c, 0, 51, 0
2, 133080, Note_on_c, 0, 48, 100
2, 133200, Note_on_c, 0, 48, 0
2, 133200, Note_on_c, 0, 51, 100
2, 133320, Note_on_c, 0, 51, 0
2, 133320, Note_on_c, 0, 48, 100
2, 133440, Note_on_c, 0, 48, 0
2, 133440, Note_on_c, 0, 44, 100
2, 133560, Note_on_c, 0, 44, 0
2, 133560, Note_on_c, 0, 55, 100
2, 133680, Note_on_c, 0, 55, 0
2, 133680, Note_on_c, 0, 51, 100
2, 133800, Note_on_c, 0, 51, 0
2, 133800, Note_on_c, 0, 48, 100
2, 133920, Note_on_c, 0, 48, 0
2, 133920, Note_on_c, 0, 51, 100
2, 134040, Note_on_c, 0, 51, 0
2, 134040, Note_on_c, 0, 48, 100
2, 134160, Note_on_c, 0, 48, 0
2, 134160, Note_on_c, 0, 44, 100
2, 134280, Note_on_c, 0, 44, 0
2, 134280, Note_on_c, 0, 58, 100
2, 134400, Note_on_c, 0, 58, 0
2, 134400, Note_on_c, 0, 56, 100
2, 134520, Note_on_c, 0, 56, 0
2, 134520, Note_on_c, 0, 55, 100
2, 134640, Note_on_c, 0, 55, 0
2, 134640, Note_on_c, 0, 53, 100
2, 134760, Note_on_c, 0, 53, 0
2, 134760, Note_on_c, 0, 51, 100
2, 134880, Note_on_c, 0, 51, 0
2, 134880, Note_on_c, 0, 53, 100
2, 135000, Note_on_c, 0, 53, 0
2, 135000, Note_on_c, 0, 51, 100
2, 135120, Note_on_c, 0, 51, 0
2, 135120, Note_on_c, 0, 50, 100
2, 135240, Note_on_c, 0, 50, 0
2, 135240, Note_on_c, 0, 53, 100
2, 135360, Note_on_c, 0, 53, 0
2, 135360, Note_on_c, 0, 51, 100
2, 135480, Note_on_c, 0, 51, 0
2, 135480, Note_on_c, 0, 55, 100
2, 135600, Note_on_c, 0, 55, 0
2, 135600, Note_on_c, 0, 53, 100
2, 136320, Note_on_c, 0, 53, 0
2, 153840, Note_on_c, 0, 53, 100
2, 153960, Note_on_c, 0, 53, 0
2, 153960, Note_on_c, 0, 51, 100
2, 154080, Note_on_c, 0, 51, 0
2, 154080, Note_on_c, 0, 53, 100
2, 154200, Note_on_c, 0, 53, 0
2, 154200, Note_on_c, 0, 50, 100
2, 154320, Note_on_c, 0, 50, 0
2, 154320, Note_on_c, 0, 51, 100
2, 154440, Note_on_c, 0, 51, 0
2, 154440, Note_on_c, 0, 55, 100
2, 154560, Note_on_c, 0, 55, 0
2, 154560, Note_on_c, 0, 60, 100
2, 154680, Note_on_c, 0, 60, 0
2, 154680, Note_on_c, 0, 51, 100
2, 154800, Note_on_c, 0, 51, 0
2, 154800, Note_on_c, 0, 53, 100
2, 154920, Note_on_c, 0, 53, 0
2, 154920, Note_on_c, 0, 51, 100
2, 155040, Note_on_c, 0, 51, 0
2, 155040, Note_on_c, 0, 50, 100
2, 155160, Note_on_c, 0, 50, 0
2, 155160, Note_on_c, 0, 53, 100
2, 155280, Note_on_c, 0, 53, 0
2, 155280, Note_on_c, 0, 59, 100
2, 155400, Note_on_c, 0, 59, 0
2, 155400, Note_on_c, 0, 56, 100
2, 155520, Note_on_c, 0, 56, 0
2, 155520, Note_on_c, 0, 55, 100
2, 155640, Note_on_c, 0, 55, 0
2, 155640, Note_on_c, 0, 53, 100
2, 155760, Note_on_c, 0, 53, 0
2, 155760, Note_on_c, 0, 51, 100
2, 155880, Note_on_c, 0, 51, 0
2, 155880, Note_on_c, 0, 55, 100
2, 156000, Note_on_c, 0, 55, 0
2, 156000, Note_on_c, 0, 60, 100
2, 156120, Note_on_c, 0, 60, 0
2, 156120, Note_on_c, 0, 51, 100
2, 156240, Note_on_c, 0, 51, 0
2, 156240, Note_on_c, 0, 53, 100
2, 156360, Note_on_c, 0, 53, 0
2, 156360, Note_on_c, 0, 51, 100
2, 156480, Note_on_c, 0, 51, 0
2, 156480, Note_on_c, 0, 50, 100
2, 156600, Note_on_c, 0, 50, 0
2, 156600, Note_on_c, 0, 60, 100
2, 156720, Note_on_c, 0, 60, 0
2, 156720, Note_on_c, 0, 59, 100
2, 156840, Note_on_c, 0, 59, 0
2, 156840, Note_on_c, 0, 62, 100
2, 156960, Note_on_c, 0, 62, 0
2, 156960, Note_on_c, 0, 55, 100
2, 157200, Note_on_c, 0, 55, 0
2, 157200, Note_on_c, 0, 56, 100
2, 157440, Note_on_c, 0, 56, 0
2, 157440, Note_on_c, 0, 48, 100
2, 157680, Note_on_c, 0, 48, 0
2, 157680, Note_on_c, 0, 50, 100
2, 157920, Note_on_c, 0, 50, 0
2, 157920, Note_on_c, 0, 51, 100
2, 158160, Note_on_c, 0, 51, 0
2, 158160, Note_on_c, 0, 55, 100
2, 158280, Note_on_c, 0, 55, 0
2, 158280, Note_on_c, 0, 53, 100
2, 158400, Note_on_c, 0, 53, 0
2, 158400, Note_on_c, 0, 55, 100
2, 158520, Note_on_c, 0, 55, 0
2, 158520, Note_on_c, 0, 51, 100
2, 158640, Note_on_c, 0, 51, 0
2, 158640, Note_on_c, 0, 53, 100
2, 158880, Note_on_c, 0, 53, 0
2, 158880, Note_on_c, 0, 45, 100
2, 159120, Note_on_c, 0, 45, 0
2, 159120, Note_on_c, 0, 47, 100
2, 159360, Note_on_c, 0, 47, 0
2, 159360, Note_on_c, 0, 48, 100
2, 159600, Note_on_c, 0, 48, 0
2, 159600, Note_on_c, 0, 51, 100
2, 159720, Note_on_c, 0, 51, 0
2, 159720, Note_on_c, 0, 50, 100
2, 159840, Note_on_c, 0, 50, 0
2, 159840, Note_on_c, 0, 51, 100
2, 159960, Note_on_c, 0, 51, 0
2, 159960, Note_on_c, 0, 48, 100
2, 160080, Note_on_c, 0, 48, 0
2, 160080, Note_on_c, 0, 50, 100
2, 160200, Note_on_c, 0, 50, 0
2, 160200, Note_on_c, 0, 51, 100
2, 160320, Note_on_c, 0, 51, 0
2, 160320, Note_on_c, 0, 53, 100
2, 160440, Note_on_c, 0, 53, 0
2, 160440, Note_on_c, 0, 55, 100
2, 160560, Note_on_c, 0, 55, 0
2, 160560, Note_on_c, 0, 56, 100
2, 160680, Note_on_c, 0, 56, 0
2, 160680, Note_on_c, 0, 53, 100
2, 160800, Note_on_c, 0, 53, 0
2, 160800, Note_on_c, 0, 60, 100
2, 160920, Note_on_c, 0, 60, 0
2, 160920, Note_on_c, 0, 59, 100
2, 161040, Note_on_c, 0, 59, 0
2, 161040, Note_on_c, 0, 57, 100
2, 161160, Note_on_c, 0, 57, 0
2, 161160, Note_on_c, 0, 55, 100
2, 161280, Note_on_c, 0, 55, 0
2, 161280, Note_on_c, 0, 60, 100
2, 161400, Note_on_c, 0, 60, 0
2, 161400, Note_on_c, 0, 59, 100
2, 161520, Note_on_c, 0, 59, 0
2, 161520, Note_on_c, 0, 60, 100
2, 161640, Note_on_c, 0, 60, 0
2, 161640, Note_on_c, 0, 62, 100
2, 161760, Note_on_c, 0, 62, 0
2, 161760, Note_on_c, 0, 62, 100
2, 162120, Note_on_c, 0, 62, 0
2, 162120, Note_on_c, 0, 60, 100
2, 162240, Note_on_c, 0, 60, 0
2, 162240, Note_on_c, 0, 60, 100
2, 162360, Note_on_c, 0, 60, 0
2, 162360, Note_on_c, 0, 58, 100
2, 162480, Note_on_c, 0, 58, 0
2, 162480, Note_on_c, 0, 56, 100
2, 162600, Note_on_c, 0, 56, 0
2, 162600, Note_on_c, 0, 55, 100
2, 162720, Note_on_c, 0, 55, 0
2, 162720, Note_on_c, 0, 56, 100
2, 162840, Note_on_c, 0, 56, 0
2, 162840, Note_on_c, 0, 53, 100
2, 162960, Note_on_c, 0, 53, 0
2, 162960, Note_on_c, 0, 52, 100
2, 163080, Note_on_c, 0, 52, 0
2, 163080, Note_on_c, 0, 61, 100
2, 163200, Note_on_c, 0, 61, 0
2, 163200, Note_on_c, 0, 60, 100
2, 163320, Note_on_c, 0, 60, 0
2, 163320, Note_on_c, 0, 58, 100
2, 163440, Note_on_c, 0, 58, 0
2, 163440, Note_on_c, 0, 56, 100
2, 163560, Note_on_c, 0, 56, 0
2, 163560, Note_on_c, 0, 55, 100
2, 163680, Note_on_c, 0, 55, 0
2, 163680, Note_on_c, 0, 56, 100
2, 163800, Note_on_c, 0, 56, 0
2, 163800, Note_on_c, 0, 55, 100
2, 163920, Note_on_c, 0, 55, 0
2, 163920, Note_on_c, 0, 53, 100
2, 164040, Note_on_c, 0, 53, 0
2, 164040, Note_on_c, 0, 50, 100
2, 164160, Note_on_c, 0, 50, 0
2, 164160, Note_on_c, 0, 51, 100
2, 164280, Note_on_c, 0, 51, 0
2, 164280, Note_on_c, 0, 48, 100
2, 164400, Note_on_c, 0, 48, 0
2, 164400, Note_on_c, 0, 47, 100
2, 164520, Note_on_c, 0, 47, 0
2, 164520, Note_on_c, 0, 56, 100
2, 164640, Note_on_c, 0, 56, 0
2, 164640, Note_on_c, 0, 55, 100
2, 164760, Note_on_c, 0, 55, 0
2, 164760, Note_on_c, 0, 53, 100
2, 164880, Note_on_c, 0, 53, 0
2, 164880, Note_on_c, 0, 51, 100
2, 165000, Note_on_c, 0, 51, 0
2, 165000, Note_on_c, 0, 50, 100
2, 165120, Note_on_c, 0, 50, 0
2, 165120, Note_on_c, 0, 51, 100
2, 165240, Note_on_c, 0, 51, 0
2, 165240, Note_on_c, 0, 50, 100
2, 165360, Note_on_c, 0, 50, 0
2, 165360, Note_on_c, 0, 48, 100
2, 165480, Note_on_c, 0, 48, 0
2, 165480, Note_on_c, 0, 45, 100
2, 165600, Note_on_c, 0, 45, 0
2, 165600, Note_on_c, 0, 46, 100
2, 165720, Note_on_c, 0, 46, 0
2, 165720, Note_on_c, 0, 43, 100
2, 165840, Note_on_c, 0, 43, 0
2, 165840, Note_on_c, 0, 42, 100
2, 165960, Note_on_c, 0, 42, 0
2, 165960, Note_on_c, 0, 51, 100
2, 166080, Note_on_c, 0, 51, 0
2, 166080, Note_on_c, 0, 50, 100
2, 166200, Note_on_c, 0, 50, 0
2, 166200, Note_on_c, 0, 48, 100
2, 166320, Note_on_c, 0, 48, 0
2, 166320, Note_on_c, 0, 47, 100
2, 166440, Note_on_c, 0, 47, 0
2, 166440, Note_on_c, 0, 45, 100
2, 166560, Note_on_c, 0, 45, 0
2, 166560, Note_on_c, 0, 47, 100
2, 166680, Note_on_c, 0, 47, 0
2, 166680, Note_on_c, 0, 45, 100
2, 166800, Note_on_c, 0, 45, 0
2, 166800, Note_on_c, 0, 43, 100
2, 166920, Note_on_c, 0, 43, 0
2, 166920, Note_on_c, 0, 47, 100
2, 167040, Note_on_c, 0, 47, 0
2, 167040, Note_on_c, 0, 50, 100
2, 167160, Note_on_c, 0, 50, 0
2, 167160, Note_on_c, 0, 53, 100
2, 167280, Note_on_c, 0, 53, 0
2, 167280, Note_on_c, 0, 56, 100
2, 167400, Note_on_c, 0, 56, 0
2, 167400, Note_on_c, 0, 55, 100
2, 167520, Note_on_c, 0, 55, 0
2, 167520, Note_on_c, 0, 55, 100
2, 167640, Note_on_c, 0, 55, 0
2, 167640, Note_on_c, 0, 53, 100
2, 167760, Note_on_c, 0, 53, 0
2, 167760, Note_on_c, 0, 53, 100
2, 167880, Note_on_c, 0, 53, 0
2, 167880, Note_on_c, 0, 51, 100
2, 168000, Note_on_c, 0, 51, 0
2, 168000, Note_on_c, 0, 51, 100
2, 168120, Note_on_c, 0, 51, 0
2, 168120, Note_on_c, 0, 48, 100
2, 168240, Note_on_c, 0, 48, 0
2, 168240, Note_on_c, 0, 43, 100
2, 168360, Note_on_c, 0, 43, 0
2, 168360, Note_on_c, 0, 48, 100
2, 168480, Note_on_c, 0, 48, 0
2, 168480, Note_on_c, 0, 51, 100
2, 168600, Note_on_c, 0, 51, 0
2, 168600, Note_on_c, 0, 55, 100
2, 168720, Note_on_c, 0, 55, 0
2, 168720, Note_on_c, 0, 60, 100
2, 168840, Note_on_c, 0, 60, 0
2, 168840, Note_on_c, 0, 58, 100
2, 168960, Note_on_c, 0, 58, 0
2, 168960, Note_on_c, 0, 58, 100
2, 169080, Note_on_c, 0, 58, 0
2, 169080, Note_on_c, 0, 57, 100
2, 169200, Note_on_c, 0, 57, 0
2, 169200, Note_on_c, 0, 57, 100
2, 169320, Note_on_c, 0, 57, 0
2, 169320, Note_on_c, 0, 60, 100
2, 169440, Note_on_c, 0, 60, 0
2, 169440, Note_on_c, 0, 54, 100
2, 169560, Note_on_c, 0, 54, 0
2, 169560, Note_on_c, 0, 48, 100
2, 169680, Note_on_c, 0, 48, 0
2, 169680, Note_on_c, 0, 43, 100
2, 169800, Note_on_c, 0, 43, 0
2, 169800, Note_on_c, 0, 48, 100
2, 169920, Note_on_c, 0, 48, 0
2, 169920, Note_on_c, 0, 54, 100
2, 170040, Note_on_c, 0, 54, 0
2, 170040, Note_on_c, 0, 57, 100
2, 170160, Note_on_c, 0, 57, 0
2, 170160, Note_on_c, 0, 60, 100
2, 170280, Note_on_c, 0, 60, 0
2, 170280, Note_on_c, 0, 62, 100
2, 170340, Note_on_c, 0, 62, 0
2, 170340, Note_on_c, 0, 63, 100
2, 170400, Note_on_c, 0, 63, 0
2, 170400, Note_on_c, 0, 62, 100
2, 170520, Note_on_c, 0, 62, 0
2, 170520, Note_on_c, 0, 60, 100
2, 170640, Note_on_c, 0, 60, 0
2, 170640, Note_on_c, 0, 60, 100
2, 170760, Note_on_c, 0, 60, 0
2, 170760, Note_on_c, 0, 59, 100
2, 170880, Note_on_c, 0, 59, 0
2, 170880, Note_on_c, 0, 59, 100
2, 171000, Note_on_c, 0, 59, 0
2, 171000, Note_on_c, 0, 62, 100
2, 171120, Note_on_c, 0, 62, 0
2, 171120, Note_on_c, 0, 59, 100
2, 171240, Note_on_c, 0, 59, 0
2, 171240, Note_on_c, 0, 55, 100
2, 171360, Note_on_c, 0, 55, 0
2, 171360, Note_on_c, 0, 50, 100
2, 171480, Note_on_c, 0, 50, 0
2, 171480, Note_on_c, 0, 43, 100
2, 171600, Note_on_c, 0, 43, 0
2, 171600, Note_on_c, 0, 41, 100
2, 171840, Note_on_c, 0, 41, 0
2, 171840, Note_on_c, 0, 60, 100
2, 171960, Note_on_c, 0, 60, 0
2, 171960, Note_on_c, 0, 59, 100
2, 172080, Note_on_c, 0, 59, 0
2, 172080, Note_on_c, 0, 57, 100
2, 172200, Note_on_c, 0, 57, 0
2, 172200, Note_on_c, 0, 55, 100
2, 172320, Note_on_c, 0, 55, 0
2, 172320, Note_on_c, 0, 60, 100
2, 172560, Note_on_c, 0, 60, 0
2, 172560, Note_on_c, 0, 39, 100
2, 172800, Note_on_c, 0, 39, 0
2, 172800, Note_on_c, 0, 41, 100
2, 173040, Note_on_c, 0, 41, 0
2, 173040, Note_on_c, 0, 43, 100
2, 173280, Note_on_c, 0, 43, 0
2, 173280, Note_on_c, 0, 58, 100
2, 173400, Note_on_c, 0, 58, 0
2, 173400, Note_on_c, 0, 56, 100
2, 173520, Note_on_c, 0, 56, 0
2, 173520, Note_on_c, 0, 58, 100
2, 173640, Note_on_c, 0, 58, 0
2, 173640, Note_on_c, 0, 55, 100
2, 173760, Note_on_c, 0, 55, 0
2, 173760, Note_on_c, 0, 56, 100
2, 174000, Note_on_c, 0, 56, 0
2, 174000, Note_on_c, 0, 36, 100
2, 174240, Note_on_c, 0, 36, 0
2, 174240, Note_on_c, 0, 38, 100
2, 174480, Note_on_c, 0, 38, 0
2, 174480, Note_on_c, 0, 39, 100
2, 174720, Note_on_c, 0, 39, 0
2, 174720, Note_on_c, 0, 55, 100
2, 174840, Note_on_c, 0, 55, 0
2, 174840, Note_on_c, 0, 53, 100
2, 174960, Note_on_c, 0, 53, 0
2, 174960, Note_on_c, 0, 55, 100
2, 175080, Note_on_c, 0, 55, 0
2, 175080, Note_on_c, 0, 51, 100
2, 175200, Note_on_c, 0, 51, 0
2, 175200, Note_on_c, 0, 53, 100
2, 175440, Note_on_c, 0, 53, 0
2, 175440, Note_on_c, 0, 45, 100
2, 175680, Note_on_c, 0, 45, 0
2, 175680, Note_on_c, 0, 47, 100
2, 175920, Note_on_c, 0, 47, 0
2, 175920, Note_on_c, 0, 48, 100
2, 176160, Note_on_c, 0, 48, 0
2, 176160, Note_on_c, 0, 51, 100
2, 176280, Note_on_c, 0, 51, 0
2, 176280, Note_on_c, 0, 50, 100
2, 176400, Note_on_c, 0, 50, 0
2, 176400, Note_on_c, 0, 51, 100
2, 176520, Note_on_c, 0, 51, 0
2, 176520, Note_on_c, 0, 48, 100
2, 176640, Note_on_c, 0, 48, 0
2, 176640, Note_on_c, 0, 41, 100
2, 176880, Note_on_c, 0, 41, 0
2, 176880, Note_on_c, 0, 61, 100
2, 177000, Note_on_c, 0, 61, 0
2, 177000, Note_on_c, 0, 60, 100
2, 177120, Note_on_c, 0, 60, 0
2, 177120, Note_on_c, 0, 59, 100
2, 177240, Note_on_c, 0, 59, 0
2, 177240, Note_on_c, 0, 60, 100
2, 177360, Note_on_c, 0, 60, 0
2, 177360, Note_on_c, 0, 56, 100
2, 177480, Note_on_c, 0, 56, 0
2, 177480, Note_on_c, 0, 55, 100
2, 177600, Note_on_c, 0, 55, 0
2, 177600, Note_on_c, 0, 54, 100
2, 177720, Note_on_c, 0, 54, 0
2, 177720, Note_on_c, 0, 55, 100
2, 177840, Note_on_c, 0, 55, 0
2, 177840, Note_on_c, 0, 51, 100
2, 177960, Note_on_c, 0, 51, 0
2, 177960, Note_on_c, 0, 50, 100
2, 178080, Note_on_c, 0, 50, 0
2, 178080, Note_on_c, 0, 48, 100
2, 178200, Note_on_c, 0, 48, 0
2, 178200, Note_on_c, 0, 51, 100
2, 178320, Note_on_c, 0, 51, 0
2, 178320, Note_on_c, 0, 49, 100
2, 178440, Note_on_c, 0, 49, 0
2, 178440, Note_on_c, 0, 48, 100
2, 178560, Note_on_c, 0, 48, 0
2, 178560, Note_on_c, 0, 47, 100
2, 178680, Note_on_c, 0, 47, 0
2, 178680, Note_on_c, 0, 48, 100
2, 178800, Note_on_c, 0, 48, 0
2, 178800, Note_on_c, 0, 42, 100
2, 178920, Note_on_c, 0, 42, 0
2, 178920, Note_on_c, 0, 43, 100
2, 179040, Note_on_c, 0, 43, 0
2, 179040, Note_on_c, 0, 45, 100
2, 179160, Note_on_c, 0, 45, 0
2, 179160, Note_on_c, 0, 47, 100
2, 179280, Note_on_c, 0, 47, 0
2, 179280, Note_on_c, 0, 48, 100
2, 179400, Note_on_c, 0, 48, 0
2, 179400, Note_on_c, 0, 50, 100
2, 179520, Note_on_c, 0, 50, 0
2, 179520, Note_on_c, 0, 51, 100
2, 179640, Note_on_c, 0, 51, 0
2, 179640, Note_on_c, 0, 50, 100
2, 179760, Note_on_c, 0, 50, 0
2, 179760, Note_on_c, 0, 48, 100
2, 179880, Note_on_c, 0, 48, 0
2, 179880, Note_on_c, 0, 50, 100
2, 180000, Note_on_c, 0, 50, 0
2, 180000, Note_on_c, 0, 51, 100
2, 180120, Note_on_c, 0, 51, 0
2, 180120, Note_on_c, 0, 53, 100
2, 180240, Note_on_c, 0, 53, 0
2, 180240, Note_on_c, 0, 55, 100
2, 180360, Note_on_c, 0, 55, 0
2, 180360, Note_on_c, 0, 50, 100
2, 180480, Note_on_c, 0, 50, 0
2, 180480, Note_on_c, 0, 51, 100
2, 180600, Note_on_c, 0, 51, 0
2, 180600, Note_on_c, 0, 48, 100
2, 180720, Note_on_c, 0, 48, 0
2, 180720, Note_on_c, 0, 43, 100
2, 180840, Note_on_c, 0, 43, 0
2, 180840, Note_on_c, 0, 47, 100
2, 180960, Note_on_c, 0, 47, 0
2, 180960, Note_on_c, 0, 36, 100
2, 181680, Note_on_c, 0, 36, 0
2, 181680, Note_on_c, 0, 36, 100
2, 181920, Note_on_c, 0, 36, 0
2, 182400, Note_on_c, 0, 36, 100
2, 182640, Note_on_c, 0, 36, 0
2, 183120, Note_on_c, 0, 36, 100
2, 183360, Note_on_c, 0, 36, 0
2, 183840, Note_on_c, 0, 36, 100
2, 184080, Note_on_c, 0, 36, 0
2, 184560, Note_on_c, 0, 36, 100
2, 184800, Note_on_c, 0, 36, 0
2, 185280, Note_on_c, 0, 38, 100
2, 185520, Note_on_c, 0, 38, 0
2, 186000, Note_on_c, 0, 39, 100
2, 186240, Note_on_c, 0, 39, 0
2, 186720, Note_on_c, 0, 40, 100
2, 186960, Note_on_c, 0, 40, 0
2, 188160, Note_on_c, 0, 42, 100
2, 188400, Note_on_c, 0, 42, 0
2, 191040, Note_on_c, 0, 43, 100
2, 191760, Note_on_c, 0, 43, 0
2, 191760, End_track
3, 0, Start_track
3, 0, MIDI_port, 0
3, 0, Title_t, "--------------------------------------"
3, 0, Program_c, 1, 42
3, 0, Control_c, 1, 7, 100
3, 0, Control_c, 1, 10, 59
3, 1920, Note_on_c, 1, 56, 100
3, 2640, Note_on_c, 1, 56, 0
3, 2640, Note_on_c, 1, 56, 100
3, 2880, Note_on_c, 1, 56, 0
3, 2880, Note_on_c, 1, 55, 100
3, 3120, Note_on_c, 1, 55, 0
3, 3120, Note_on_c, 1, 56, 100
3, 3240, Note_on_c, 1, 56, 0
3, 3240, Note_on_c, 1, 53, 100
3, 3360, Note_on_c, 1, 53, 0
3, 3360, Note_on_c, 1, 51, 100
3, 3600, Note_on_c, 1, 51, 0
3, 3600, Note_on_c, 1, 53, 100
3, 3720, Note_on_c, 1, 53, 0
3, 3720, Note_on_c, 1, 50, 100
3, 3840, Note_on_c, 1, 50, 0
3, 3840, Note_on_c, 1, 51, 100
3, 4800, Note_on_c, 1, 51, 0
3, 5760, Note_on_c, 1, 47, 100
3, 6720, Note_on_c, 1, 47, 0
3, 6720, Note_on_c, 1, 46, 100
3, 7320, Note_on_c, 1, 46, 0
3, 7320, Note_on_c, 1, 44, 100
3, 7440, Note_on_c, 1, 44, 0
3, 7440, Note_on_c, 1, 46, 100
3, 7560, Note_on_c, 1, 46, 0
3, 7560, Note_on_c, 1, 43, 100
3, 7680, Note_on_c, 1, 43, 0
3, 7680, Note_on_c, 1, 44, 100
3, 8160, Note_on_c, 1, 44, 0
3, 8640, Note_on_c, 1, 44, 100
3, 9360, Note_on_c, 1, 44, 0
3, 9600, Note_on_c, 1, 43, 100
3, 10080, Note_on_c, 1, 43, 0
3, 13440, Note_on_c, 1, 53, 100
3, 14160, Note_on_c, 1, 53, 0
3, 14160, Note_on_c, 1, 55, 100
3, 14280, Note_on_c, 1, 55, 0
3, 14280, Note_on_c, 1, 56, 100
3, 14400, Note_on_c, 1, 56, 0
3, 14400, Note_on_c, 1, 55, 100
3, 14760, Note_on_c, 1, 55, 0
3, 14760, Note_on_c, 1, 53, 100
3, 14880, Note_on_c, 1, 53, 0
3, 14880, Note_on_c, 1, 51, 100
3, 15240, Note_on_c, 1, 51, 0
3, 15240, Note_on_c, 1, 50, 100
3, 15360, Note_on_c, 1, 50, 0
3, 15360, Note_on_c, 1, 51, 100
3, 15960, Note_on_c, 1, 51, 0
3, 15960, Note_on_c, 1, 53, 100
3, 16020, Note_on_c, 1, 53, 0
3, 16020, Note_on_c, 1, 51, 100
3, 16080, Note_on_c, 1, 51, 0
3, 16080, Note_on_c, 1, 50, 100
3, 16200, Note_on_c, 1, 50, 0
3, 16200, Note_on_c, 1, 51, 100
3, 16320, Note_on_c, 1, 51, 0
3, 16320, Pitch_bend_c, 1, 16383
3, 16320, Note_on_c, 1, 51, 100
3, 16350, Pitch_bend_c, 1, 8192
3, 16380, Pitch_bend_c, 1, 16383
3, 16410, Pitch_bend_c, 1, 8192
3, 16440, Pitch_bend_c, 1, 16383
3, 16470, Pitch_bend_c, 1, 8192
3, 16500, Pitch_bend_c, 1, 16383
3, 16530, Pitch_bend_c, 1, 8192
3, 16560, Pitch_bend_c, 1, 16383
3, 16590, Pitch_bend_c, 1, 8192
3, 16620, Pitch_bend_c, 1, 16383
3, 16650, Pitch_bend_c, 1, 8192
3, 16680, Pitch_bend_c, 1, 16383
3, 16710, Pitch_bend_c, 1, 8192
3, 16740, Pitch_bend_c, 1, 16383
3, 16770, Pitch_bend_c, 1, 8192
3, 16800, Pitch_bend_c, 1, 16383
3, 16830, Pitch_bend_c, 1, 8192
3, 16860, Pitch_bend_c, 1, 16383
3, 16890, Pitch_bend_c, 1, 8192
3, 16920, Pitch_bend_c, 1, 16383
3, 16950, Pitch_bend_c, 1, 8192
3, 17040, Note_on_c, 1, 51, 0
3, 17040, Note_on_c, 1, 50, 100
3, 17280, Note_on_c, 1, 50, 0
3, 17280, Note_on_c, 1, 50, 100
3, 17880, Note_on_c, 1, 50, 0
3, 17880, Note_on_c, 1, 50, 100
3, 18000, Note_on_c, 1, 50, 0
3, 18000, Note_on_c, 1, 52, 100
3, 18120, Note_on_c, 1, 52, 0
3, 18120, Note_on_c, 1, 54, 100
3, 18240, Note_on_c, 1, 54, 0
3, 18240, Note_on_c, 1, 55, 100
3, 18360, Note_on_c, 1, 55, 0
3, 18360, Note_on_c, 1, 57, 100
3, 18480, Note_on_c, 1, 57, 0
3, 18480, Note_on_c, 1, 58, 100
3, 18600, Note_on_c, 1, 58, 0
3, 18600, Note_on_c, 1, 60, 100
3, 18720, Note_on_c, 1, 60, 0
3, 18720, Note_on_c, 1, 58, 100
3, 18840, Note_on_c, 1, 58, 0
3, 18840, Note_on_c, 1, 57, 100
3, 18960, Note_on_c, 1, 57, 0
3, 18960, Note_on_c, 1, 58, 100
3, 19080, Note_on_c, 1, 58, 0
3, 19080, Note_on_c, 1, 55, 100
3, 19200, Note_on_c, 1, 55, 0
3, 19200, Note_on_c, 1, 54, 100
3, 19920, Note_on_c, 1, 54, 0
3, 21120, Note_on_c, 1, 53, 100
3, 21840, Note_on_c, 1, 53, 0
3, 21840, Note_on_c, 1, 51, 100
3, 21960, Note_on_c, 1, 51, 0
3, 21960, Note_on_c, 1, 50, 100
3, 22080, Note_on_c, 1, 50, 0
3, 22080, Note_on_c, 1, 51, 100
3, 22440, Note_on_c, 1, 51, 0
3, 22440, Note_on_c, 1, 55, 100
3, 22560, Note_on_c, 1, 55, 0
3, 22560, Note_on_c, 1, 60, 100
3, 22920, Note_on_c, 1, 60, 0
3, 22920, Note_on_c, 1, 51, 100
3, 23040, Note_on_c, 1, 51, 0
3, 23040, Note_on_c, 1, 50, 100
3, 23520, Note_on_c, 1, 50, 0
3, 24960, Note_on_c, 1, 61, 100
3, 25560, Note_on_c, 1, 61, 0
3, 25560, Note_on_c, 1, 60, 100
3, 25680, Note_on_c, 1, 60, 0
3, 25680, Note_on_c, 1, 58, 100
3, 25800, Note_on_c, 1, 58, 0
3, 25800, Note_on_c, 1, 56, 100
3, 25920, Note_on_c, 1, 56, 0
3, 25920, Note_on_c, 1, 55, 100
3, 26280, Note_on_c, 1, 55, 0
3, 26280, Note_on_c, 1, 56, 100
3, 26400, Note_on_c, 1, 56, 0
3, 26400, Note_on_c, 1, 58, 100
3, 26760, Note_on_c, 1, 58, 0
3, 26760, Note_on_c, 1, 55, 100
3, 26880, Note_on_c, 1, 55, 0
3, 26880, Note_on_c, 1, 56, 100
3, 27360, Note_on_c, 1, 56, 0
3, 28800, Note_on_c, 1, 56, 100
3, 29400, Note_on_c, 1, 56, 0
3, 29400, Note_on_c, 1, 58, 100
3, 29520, Note_on_c, 1, 58, 0
3, 29520, Note_on_c, 1, 56, 100
3, 29640, Note_on_c, 1, 56, 0
3, 29640, Note_on_c, 1, 58, 100
3, 29760, Note_on_c, 1, 58, 0
3, 29760, Note_on_c, 1, 58, 100
3, 30480, Note_on_c, 1, 58, 0
3, 30480, Note_on_c, 1, 56, 100
3, 30720, Note_on_c, 1, 56, 0
3, 30720, Note_on_c, 1, 55, 100
3, 31320, Note_on_c, 1, 55, 0
3, 31320, Note_on_c, 1, 53, 100
3, 31440, Note_on_c, 1, 53, 0
3, 31440, Note_on_c, 1, 51, 100
3, 31560, Note_on_c, 1, 51, 0
3, 31560, Note_on_c, 1, 50, 100
3, 31680, Note_on_c, 1, 50, 0
3, 31680, Note_on_c, 1, 51, 100
3, 31800, Note_on_c, 1, 51, 0
3, 31800, Note_on_c, 1, 53, 100
3, 31920, Note_on_c, 1, 53, 0
3, 31920, Note_on_c, 1, 55, 100
3, 32040, Note_on_c, 1, 55, 0
3, 32040, Note_on_c, 1, 56, 100
3, 32160, Note_on_c, 1, 56, 0
3, 32160, Note_on_c, 1, 58, 100
3, 32280, Note_on_c, 1, 58, 0
3, 32280, Note_on_c, 1, 60, 100
3, 32400, Note_on_c, 1, 60, 0
3, 32400, Note_on_c, 1, 62, 100
3, 32520, Note_on_c, 1, 62, 0
3, 32520, Note_on_c, 1, 58, 100
3, 32640, Note_on_c, 1, 58, 0
3, 32640, Note_on_c, 1, 63, 100
3, 33120, Note_on_c, 1, 63, 0
3, 33480, Note_on_c, 1, 62, 100
3, 33600, Note_on_c, 1, 62, 0
3, 33600, Note_on_c, 1, 60, 100
3, 33960, Note_on_c, 1, 60, 0
3, 33960, Note_on_c, 1, 58, 100
3, 34080, Note_on_c, 1, 58, 0
3, 34080, Note_on_c, 1, 57, 100
3, 34440, Note_on_c, 1, 57, 0
3, 34440, Note_on_c, 1, 55, 100
3, 34560, Note_on_c, 1, 55, 0
3, 34560, Note_on_c, 1, 54, 100
3, 35160, Note_on_c, 1, 54, 0
3, 35160, Note_on_c, 1, 48, 100
3, 35280, Note_on_c, 1, 48, 0
3, 35280, Note_on_c, 1, 46, 100
3, 35400, Note_on_c, 1, 46, 0
3, 35400, Note_on_c, 1, 45, 100
3, 35520, Note_on_c, 1, 45, 0
3, 35520, Note_on_c, 1, 46, 100
3, 35880, Note_on_c, 1, 46, 0
3, 35880, Note_on_c, 1, 55, 100
3, 36000, Note_on_c, 1, 55, 0
3, 36000, Note_on_c, 1, 45, 100
3, 36360, Note_on_c, 1, 45, 0
3, 36360, Note_on_c, 1, 43, 100
3, 36480, Note_on_c, 1, 43, 0
3, 36480, Note_on_c, 1, 42, 100
3, 36840, Note_on_c, 1, 42, 0
3, 36840, Note_on_c, 1, 57, 100
3, 36960, Note_on_c, 1, 57, 0
3, 36960, Note_on_c, 1, 58, 100
3, 37320, Note_on_c, 1, 58, 0
3, 37320, Note_on_c, 1, 60, 100
3, 37440, Note_on_c, 1, 60, 0
3, 37440, Note_on_c, 1, 50, 100
3, 37800, Note_on_c, 1, 50, 0
3, 37800, Note_on_c, 1, 60, 100
3, 37920, Note_on_c, 1, 60, 0
3, 37920, Note_on_c, 1, 58, 100
3, 38280, Note_on_c, 1, 58, 0
3, 38280, Note_on_c, 1, 57, 100
3, 38400, Note_on_c, 1, 57, 0
3, 38400, Note_on_c, 1, 58, 100
3, 39000, Note_on_c, 1, 58, 0
3, 39000, Note_on_c, 1, 55, 100
3, 39120, Note_on_c, 1, 55, 0
3, 39120, Note_on_c, 1, 53, 100
3, 39240, Note_on_c, 1, 53, 0
3, 39240, Note_on_c, 1, 51, 100
3, 39360, Note_on_c, 1, 51, 0
3, 39360, Note_on_c, 1, 50, 100
3, 39480, Note_on_c, 1, 50, 0
3, 39480, Note_on_c, 1, 48, 100
3, 39600, Note_on_c, 1, 48, 0
3, 39600, Note_on_c, 1, 46, 100
3, 39720, Note_on_c, 1, 46, 0
3, 39720, Note_on_c, 1, 45, 100
3, 39840, Note_on_c, 1, 45, 0
3, 39840, Note_on_c, 1, 46, 100
3, 39960, Note_on_c, 1, 46, 0
3, 39960, Note_on_c, 1, 43, 100
3, 40080, Note_on_c, 1, 43, 0
3, 40080, Note_on_c, 1, 45, 100
3, 40200, Note_on_c, 1, 45, 0
3, 40200, Note_on_c, 1, 46, 100
3, 40320, Note_on_c, 1, 46, 0
3, 40320, Note_on_c, 1, 51, 100
3, 40920, Note_on_c, 1, 51, 0
3, 40920, Note_on_c, 1, 50, 100
3, 41040, Note_on_c, 1, 50, 0
3, 41040, Note_on_c, 1, 48, 100
3, 41160, Note_on_c, 1, 48, 0
3, 41160, Note_on_c, 1, 46, 100
3, 41280, Note_on_c, 1, 46, 0
3, 41280, Note_on_c, 1, 48, 100
3, 41400, Note_on_c, 1, 48, 0
3, 41400, Note_on_c, 1, 58, 100
3, 41520, Note_on_c, 1, 58, 0
3, 41520, Note_on_c, 1, 57, 100
3, 41640, Note_on_c, 1, 57, 0
3, 41640, Note_on_c, 1, 58, 100
3, 41760, Note_on_c, 1, 58, 0
3, 41760, Note_on_c, 1, 60, 100
3, 41880, Note_on_c, 1, 60, 0
3, 41880, Note_on_c, 1, 57, 100
3, 42000, Note_on_c, 1, 57, 0
3, 42000, Note_on_c, 1, 58, 100
3, 42120, Note_on_c, 1, 58, 0
3, 42120, Note_on_c, 1, 60, 100
3, 42240, Note_on_c, 1, 60, 0
3, 42240, Note_on_c, 1, 54, 100
3, 42360, Note_on_c, 1, 54, 0
3, 42360, Note_on_c, 1, 55, 100
3, 42480, Note_on_c, 1, 55, 0
3, 42480, Note_on_c, 1, 54, 100
3, 42600, Note_on_c, 1, 54, 0
3, 42600, Note_on_c, 1, 55, 100
3, 42720, Note_on_c, 1, 55, 0
3, 42720, Note_on_c, 1, 57, 100
3, 42840, Note_on_c, 1, 57, 0
3, 42840, Note_on_c, 1, 54, 100
3, 42960, Note_on_c, 1, 54, 0
3, 42960, Note_on_c, 1, 55, 100
3, 43080, Note_on_c, 1, 55, 0
3, 43080, Note_on_c, 1, 57, 100
3, 43200, Note_on_c, 1, 57, 0
3, 43200, Note_on_c, 1, 48, 100
3, 43320, Note_on_c, 1, 48, 0
3, 43320, Note_on_c, 1, 50, 100
3, 43440, Note_on_c, 1, 50, 0
3, 43440, Note_on_c, 1, 48, 100
3, 43560, Note_on_c, 1, 48, 0
3, 43560, Note_on_c, 1, 50, 100
3, 43680, Note_on_c, 1, 50, 0
3, 43680, Note_on_c, 1, 51, 100
3, 43800, Note_on_c, 1, 51, 0
3, 43800, Note_on_c, 1, 48, 100
3, 43920, Note_on_c, 1, 48, 0
3, 43920, Note_on_c, 1, 50, 100
3, 44040, Note_on_c, 1, 50, 0
3, 44040, Note_on_c, 1, 51, 100
3, 44160, Note_on_c, 1, 51, 0
3, 44160, Note_on_c, 1, 45, 100
3, 44280, Note_on_c, 1, 45, 0
3, 44280, Note_on_c, 1, 46, 100
3, 44400, Note_on_c, 1, 46, 0
3, 44400, Note_on_c, 1, 45, 100
3, 44520, Note_on_c, 1, 45, 0
3, 44520, Note_on_c, 1, 46, 100
3, 44640, Note_on_c, 1, 46, 0
3, 44640, Note_on_c, 1, 48, 100
3, 44760, Note_on_c, 1, 48, 0
3, 44760, Note_on_c, 1, 45, 100
3, 44880, Note_on_c, 1, 45, 0
3, 44880, Note_on_c, 1, 46, 100
3, 45000, Note_on_c, 1, 46, 0
3, 45000, Note_on_c, 1, 48, 100
3, 45120, Note_on_c, 1, 48, 0
3, 45120, Note_on_c, 1, 38, 100
3, 45240, Note_on_c, 1, 38, 0
3, 45240, Note_on_c, 1, 40, 100
3, 45360, Note_on_c, 1, 40, 0
3, 45360, Note_on_c, 1, 42, 100
3, 45480, Note_on_c, 1, 42, 0
3, 45480, Note_on_c, 1, 43, 100
3, 45600, Note_on_c, 1, 43, 0
3, 45600, Note_on_c, 1, 45, 100
3, 45720, Note_on_c, 1, 45, 0
3, 45720, Note_on_c, 1, 46, 100
3, 45840, Note_on_c, 1, 46, 0
3, 45840, Note_on_c, 1, 48, 100
3, 45960, Note_on_c, 1, 48, 0
3, 45960, Note_on_c, 1, 45, 100
3, 46080, Note_on_c, 1, 45, 0
3, 46080, Note_on_c, 1, 46, 100
3, 46200, Note_on_c, 1, 46, 0
3, 46200, Note_on_c, 1, 50, 100
3, 46320, Note_on_c, 1, 50, 0
3, 46320, Note_on_c, 1, 52, 100
3, 46440, Note_on_c, 1, 52, 0
3, 46440, Note_on_c, 1, 54, 100
3, 46560, Note_on_c, 1, 54, 0
3, 46560, Note_on_c, 1, 55, 100
3, 46680, Note_on_c, 1, 55, 0
3, 46680, Note_on_c, 1, 57, 100
3, 46800, Note_on_c, 1, 57, 0
3, 46800, Note_on_c, 1, 58, 100
3, 46920, Note_on_c, 1, 58, 0
3, 46920, Note_on_c, 1, 60, 100
3, 47040, Note_on_c, 1, 60, 0
3, 47040, Note_on_c, 1, 62, 100
3, 47640, Note_on_c, 1, 62, 0
3, 47640, Note_on_c, 1, 60, 100
3, 47760, Note_on_c, 1, 60, 0
3, 47760, Note_on_c, 1, 58, 100
3, 47880, Note_on_c, 1, 58, 0
3, 47880, Note_on_c, 1, 57, 100
3, 48000, Note_on_c, 1, 57, 0
3, 48000, Note_on_c, 1, 58, 100
3, 48360, Note_on_c, 1, 58, 0
3, 48360, Note_on_c, 1, 54, 100
3, 48480, Note_on_c, 1, 54, 0
3, 48480, Note_on_c, 1, 55, 100
3, 48840, Note_on_c, 1, 55, 0
3, 48840, Note_on_c, 1, 48, 100
3, 48960, Note_on_c, 1, 48, 0
3, 48960, Note_on_c, 1, 50, 100
3, 49440, Note_on_c, 1, 50, 0
3, 49920, Note_on_c, 1, 50, 100
3, 50400, Note_on_c, 1, 50, 0
3, 60720, Note_on_c, 1, 55, 100
3, 60960, Note_on_c, 1, 55, 0
3, 60960, Note_on_c, 1, 50, 100
3, 61440, Note_on_c, 1, 50, 0
3, 69360, Note_on_c, 1, 48, 100
3, 69600, Note_on_c, 1, 48, 0
3, 69600, Note_on_c, 1, 43, 100
3, 70080, Note_on_c, 1, 43, 0
3, 75120, Note_on_c, 1, 55, 100
3, 75360, Note_on_c, 1, 55, 0
3, 75360, Note_on_c, 1, 50, 100
3, 75840, Note_on_c, 1, 50, 0
3, 75840, Note_on_c, 1, 43, 100
3, 75960, Note_on_c, 1, 43, 0
3, 86880, Note_on_c, 1, 46, 100
3, 87360, Note_on_c, 1, 46, 0
3, 87360, Note_on_c, 1, 46, 100
3, 87600, Note_on_c, 1, 46, 0
3, 109920, Note_on_c, 1, 48, 100
3, 110040, Note_on_c, 1, 48, 0
3, 110040, Note_on_c, 1, 46, 100
3, 110160, Note_on_c, 1, 46, 0
3, 110160, Note_on_c, 1, 48, 100
3, 110280, Note_on_c, 1, 48, 0
3, 110280, Note_on_c, 1, 45, 100
3, 110400, Note_on_c, 1, 45, 0
3, 110400, Note_on_c, 1, 46, 100
3, 110520, Note_on_c, 1, 46, 0
3, 110520, Note_on_c, 1, 50, 100
3, 110640, Note_on_c, 1, 50, 0
3, 110640, Note_on_c, 1, 55, 100
3, 110760, Note_on_c, 1, 55, 0
3, 110760, Note_on_c, 1, 52, 100
3, 110880, Note_on_c, 1, 52, 0
3, 110880, Note_on_c, 1, 53, 100
3, 111000, Note_on_c, 1, 53, 0
3, 111000, Note_on_c, 1, 50, 100
3, 111120, Note_on_c, 1, 50, 0
3, 111120, Note_on_c, 1, 52, 100
3, 111240, Note_on_c, 1, 52, 0
3, 111240, Note_on_c, 1, 48, 100
3, 111360, Note_on_c, 1, 48, 0
3, 111360, Note_on_c, 1, 46, 100
3, 111480, Note_on_c, 1, 46, 0
3, 111480, Note_on_c, 1, 45, 100
3, 111600, Note_on_c, 1, 45, 0
3, 111600, Note_on_c, 1, 46, 100
3, 111720, Note_on_c, 1, 46, 0
3, 111720, Note_on_c, 1, 43, 100
3, 111840, Note_on_c, 1, 43, 0
3, 111840, Note_on_c, 1, 44, 100
3, 111960, Note_on_c, 1, 44, 0
3, 111960, Note_on_c, 1, 48, 100
3, 112080, Note_on_c, 1, 48, 0
3, 112080, Note_on_c, 1, 53, 100
3, 112200, Note_on_c, 1, 53, 0
3, 112200, Note_on_c, 1, 50, 100
3, 112320, Note_on_c, 1, 50, 0
3, 112320, Note_on_c, 1, 51, 100
3, 112440, Note_on_c, 1, 51, 0
3, 112440, Note_on_c, 1, 48, 100
3, 112560, Note_on_c, 1, 48, 0
3, 112560, Note_on_c, 1, 47, 100
3, 113280, Note_on_c, 1, 47, 0
3, 130080, Note_on_c, 1, 53, 100
3, 130200, Note_on_c, 1, 53, 0
3, 130200, Note_on_c, 1, 50, 100
3, 130320, Note_on_c, 1, 50, 0
3, 130320, Note_on_c, 1, 53, 100
3, 130440, Note_on_c, 1, 53, 0
3, 130440, Note_on_c, 1, 50, 100
3, 130560, Note_on_c, 1, 50, 0
3, 130560, Note_on_c, 1, 46, 100
3, 130680, Note_on_c, 1, 46, 0
3, 130680, Note_on_c, 1, 56, 100
3, 130800, Note_on_c, 1, 56, 0
3, 130800, Note_on_c, 1, 53, 100
3, 130920, Note_on_c, 1, 53, 0
3, 130920, Note_on_c, 1, 50, 100
3, 131040, Note_on_c, 1, 50, 0
3, 131040, Note_on_c, 1, 53, 100
3, 131160, Note_on_c, 1, 53, 0
3, 131160, Note_on_c, 1, 50, 100
3, 131280, Note_on_c, 1, 50, 0
3, 131280, Note_on_c, 1, 46, 100
3, 131400, Note_on_c, 1, 46, 0
3, 131400, Note_on_c, 1, 60, 100
3, 131520, Note_on_c, 1, 60, 0
3, 131520, Note_on_c, 1, 58, 100
3, 131640, Note_on_c, 1, 58, 0
3, 131640, Note_on_c, 1, 56, 100
3, 131760, Note_on_c, 1, 56, 0
3, 131760, Note_on_c, 1, 55, 100
3, 131880, Note_on_c, 1, 55, 0
3, 131880, Note_on_c, 1, 53, 100
3, 132000, Note_on_c, 1, 53, 0
3, 132000, Note_on_c, 1, 55, 100
3, 132120, Note_on_c, 1, 55, 0
3, 132120, Note_on_c, 1, 53, 100
3, 132240, Note_on_c, 1, 53, 0
3, 132240, Note_on_c, 1, 51, 100
3, 132360, Note_on_c, 1, 51, 0
3, 132360, Note_on_c, 1, 55, 100
3, 132480, Note_on_c, 1, 55, 0
3, 132480, Note_on_c, 1, 53, 100
3, 132600, Note_on_c, 1, 53, 0
3, 132600, Note_on_c, 1, 56, 100
3, 132720, Note_on_c, 1, 56, 0
3, 132720, Note_on_c, 1, 55, 100
3, 133440, Note_on_c, 1, 55, 0
3, 135840, Note_on_c, 1, 62, 100
3, 135960, Note_on_c, 1, 62, 0
3, 135960, Note_on_c, 1, 59, 100
3, 136080, Note_on_c, 1, 59, 0
3, 136080, Note_on_c, 1, 62, 100
3, 136200, Note_on_c, 1, 62, 0
3, 136200, Note_on_c, 1, 59, 100
3, 136320, Note_on_c, 1, 59, 0
3, 136320, Note_on_c, 1, 55, 100
3, 136440, Note_on_c, 1, 55, 0
3, 136440, Note_on_c, 1, 53, 100
3, 136560, Note_on_c, 1, 53, 0
3, 136560, Note_on_c, 1, 50, 100
3, 136680, Note_on_c, 1, 50, 0
3, 136680, Note_on_c, 1, 47, 100
3, 136800, Note_on_c, 1, 47, 0
3, 136800, Note_on_c, 1, 50, 100
3, 136920, Note_on_c, 1, 50, 0
3, 136920, Note_on_c, 1, 47, 100
3, 137040, Note_on_c, 1, 47, 0
3, 137040, Note_on_c, 1, 43, 100
3, 137160, Note_on_c, 1, 43, 0
3, 137160, Note_on_c, 1, 56, 100
3, 137280, Note_on_c, 1, 56, 0
3, 137280, Note_on_c, 1, 55, 100
3, 137400, Note_on_c, 1, 55, 0
3, 137400, Note_on_c, 1, 53, 100
3, 137520, Note_on_c, 1, 53, 0
3, 137520, Note_on_c, 1, 51, 100
3, 137640, Note_on_c, 1, 51, 0
3, 137640, Note_on_c, 1, 50, 100
3, 137760, Note_on_c, 1, 50, 0
3, 137760, Note_on_c, 1, 51, 100
3, 137880, Note_on_c, 1, 51, 0
3, 137880, Note_on_c, 1, 50, 100
3, 138000, Note_on_c, 1, 50, 0
3, 138000, Note_on_c, 1, 51, 100
3, 138120, Note_on_c, 1, 51, 0
3, 138120, Note_on_c, 1, 53, 100
3, 138240, Note_on_c, 1, 53, 0
3, 138240, Note_on_c, 1, 55, 100
3, 138360, Note_on_c, 1, 55, 0
3, 138360, Note_on_c, 1, 43, 100
3, 138480, Note_on_c, 1, 43, 0
3, 138480, Note_on_c, 1, 44, 100
3, 138720, Note_on_c, 1, 44, 0
3, 138720, Note_on_c, 1, 60, 100
3, 138960, Note_on_c, 1, 60, 0
3, 138960, Note_on_c, 1, 62, 100
3, 139200, Note_on_c, 1, 62, 0
3, 139200, Note_on_c, 1, 63, 100
3, 139440, Note_on_c, 1, 63, 0
3, 139440, Note_on_c, 1, 43, 100
3, 139560, Note_on_c, 1, 43, 0
3, 139560, Note_on_c, 1, 41, 100
3, 139680, Note_on_c, 1, 41, 0
3, 139680, Note_on_c, 1, 43, 100
3, 139800, Note_on_c, 1, 43, 0
3, 139800, Note_on_c, 1, 39, 100
3, 139920, Note_on_c, 1, 39, 0
3, 139920, Note_on_c, 1, 41, 100
3, 140160, Note_on_c, 1, 41, 0
3, 140160, Note_on_c, 1, 57, 100
3, 140400, Note_on_c, 1, 57, 0
3, 140400, Note_on_c, 1, 59, 100
3, 140640, Note_on_c, 1, 59, 0
3, 140640, Note_on_c, 1, 60, 100
3, 140880, Note_on_c, 1, 60, 0
3, 140880, Note_on_c, 1, 39, 100
3, 141000, Note_on_c, 1, 39, 0
3, 141000, Note_on_c, 1, 38, 100
3, 141120, Note_on_c, 1, 38, 0
3, 141120, Note_on_c, 1, 39, 100
3, 141240, Note_on_c, 1, 39, 0
3, 141240, Note_on_c, 1, 36, 100
3, 141360, Note_on_c, 1, 36, 0
3, 141360, Note_on_c, 1, 38, 100
3, 141480, Note_on_c, 1, 38, 0
3, 141480, Note_on_c, 1, 48, 100
3, 141600, Note_on_c, 1, 48, 0
3, 141600, Note_on_c, 1, 47, 100
3, 141720, Note_on_c, 1, 47, 0
3, 141720, Note_on_c, 1, 45, 100
3, 141840, Note_on_c, 1, 45, 0
3, 141840, Note_on_c, 1, 43, 100
3, 141960, Note_on_c, 1, 43, 0
3, 141960, Note_on_c, 1, 53, 100
3, 142080, Note_on_c, 1, 53, 0
3, 142080, Note_on_c, 1, 51, 100
3, 142200, Note_on_c, 1, 51, 0
3, 142200, Note_on_c, 1, 50, 100
3, 142320, Note_on_c, 1, 50, 0
3, 142320, Note_on_c, 1, 60, 100
3, 142440, Note_on_c, 1, 60, 0
3, 142440, Note_on_c, 1, 59, 100
3, 142560, Note_on_c, 1, 59, 0
3, 142560, Note_on_c, 1, 57, 100
3, 142680, Note_on_c, 1, 57, 0
3, 142680, Note_on_c, 1, 55, 100
3, 142800, Note_on_c, 1, 55, 0
3, 142800, Note_on_c, 1, 60, 100
3, 142920, Note_on_c, 1, 60, 0
3, 142920, Note_on_c, 1, 55, 100
3, 143040, Note_on_c, 1, 55, 0
3, 143040, Note_on_c, 1, 56, 100
3, 143160, Note_on_c, 1, 56, 0
3, 143160, Note_on_c, 1, 53, 100
3, 143280, Note_on_c, 1, 53, 0
3, 143280, Note_on_c, 1, 55, 100
3, 143400, Note_on_c, 1, 55, 0
3, 143400, Note_on_c, 1, 50, 100
3, 143520, Note_on_c, 1, 50, 0
3, 143520, Note_on_c, 1, 51, 100
3, 143640, Note_on_c, 1, 51, 0
3, 143640, Note_on_c, 1, 50, 100
3, 143760, Note_on_c, 1, 50, 0
3, 143760, Note_on_c, 1, 48, 100
3, 143880, Note_on_c, 1, 48, 0
3, 143880, Note_on_c, 1, 51, 100
3, 144000, Note_on_c, 1, 51, 0
3, 144000, Note_on_c, 1, 50, 100
3, 144120, Note_on_c, 1, 50, 0
3, 144120, Note_on_c, 1, 53, 100
3, 144240, Note_on_c, 1, 53, 0
3, 144240, Note_on_c, 1, 51, 100
3, 144360, Note_on_c, 1, 51, 0
3, 144360, Note_on_c, 1, 60, 100
3, 144480, Note_on_c, 1, 60, 0
3, 144480, Note_on_c, 1, 55, 100
3, 144600, Note_on_c, 1, 55, 0
3, 144600, Note_on_c, 1, 51, 100
3, 144720, Note_on_c, 1, 51, 0
3, 144720, Note_on_c, 1, 53, 100
3, 144840, Note_on_c, 1, 53, 0
3, 144840, Note_on_c, 1, 50, 100
3, 144960, Note_on_c, 1, 50, 0
3, 144960, Note_on_c, 1, 51, 100
3, 145080, Note_on_c, 1, 51, 0
3, 145080, Note_on_c, 1, 50, 100
3, 145200, Note_on_c, 1, 50, 0
3, 145200, Note_on_c, 1, 48, 100
3, 145320, Note_on_c, 1, 48, 0
3, 145320, Note_on_c, 1, 51, 100
3, 145440, Note_on_c, 1, 51, 0
3, 145440, Note_on_c, 1, 43, 100
3, 145560, Note_on_c, 1, 43, 0
3, 145560, Note_on_c, 1, 46, 100
3, 145680, Note_on_c, 1, 46, 0
3, 145680, Note_on_c, 1, 45, 100
3, 145800, Note_on_c, 1, 45, 0
3, 145800, Note_on_c, 1, 48, 100
3, 145920, Note_on_c, 1, 48, 0
3, 145920, Note_on_c, 1, 53, 100
3, 146040, Note_on_c, 1, 53, 0
3, 146040, Note_on_c, 1, 50, 100
3, 146160, Note_on_c, 1, 50, 0
3, 146160, Note_on_c, 1, 51, 100
3, 146280, Note_on_c, 1, 51, 0
3, 146280, Note_on_c, 1, 48, 100
3, 146400, Note_on_c, 1, 48, 0
3, 146400, Note_on_c, 1, 50, 100
3, 146520, Note_on_c, 1, 50, 0
3, 146520, Note_on_c, 1, 48, 100
3, 146640, Note_on_c, 1, 48, 0
3, 146640, Note_on_c, 1, 46, 100
3, 146760, Note_on_c, 1, 46, 0
3, 146760, Note_on_c, 1, 50, 100
3, 146880, Note_on_c, 1, 50, 0
3, 146880, Note_on_c, 1, 48, 100
3, 147000, Note_on_c, 1, 48, 0
3, 147000, Note_on_c, 1, 51, 100
3, 147120, Note_on_c, 1, 51, 0
3, 147120, Note_on_c, 1, 50, 100
3, 147240, Note_on_c, 1, 50, 0
3, 147240, Note_on_c, 1, 53, 100
3, 147360, Note_on_c, 1, 53, 0
3, 147360, Note_on_c, 1, 58, 100
3, 147480, Note_on_c, 1, 58, 0
3, 147480, Note_on_c, 1, 55, 100
3, 147600, Note_on_c, 1, 55, 0
3, 147600, Note_on_c, 1, 56, 100
3, 147720, Note_on_c, 1, 56, 0
3, 147720, Note_on_c, 1, 53, 100
3, 147840, Note_on_c, 1, 53, 0
3, 147840, Note_on_c, 1, 55, 100
3, 147960, Note_on_c, 1, 55, 0
3, 147960, Note_on_c, 1, 53, 100
3, 148080, Note_on_c, 1, 53, 0
3, 148080, Note_on_c, 1, 51, 100
3, 148200, Note_on_c, 1, 51, 0
3, 148200, Note_on_c, 1, 55, 100
3, 148320, Note_on_c, 1, 55, 0
3, 148320, Note_on_c, 1, 53, 100
3, 148440, Note_on_c, 1, 53, 0
3, 148440, Note_on_c, 1, 56, 100
3, 148560, Note_on_c, 1, 56, 0
3, 148560, Note_on_c, 1, 55, 100
3, 148680, Note_on_c, 1, 55, 0
3, 148680, Note_on_c, 1, 58, 100
3, 148800, Note_on_c, 1, 58, 0
3, 148800, Note_on_c, 1, 63, 100
3, 148920, Note_on_c, 1, 63, 0
3, 148920, Note_on_c, 1, 60, 100
3, 149040, Note_on_c, 1, 60, 0
3, 149040, Note_on_c, 1, 62, 100
3, 149160, Note_on_c, 1, 62, 0
3, 149160, Note_on_c, 1, 59, 100
3, 149280, Note_on_c, 1, 59, 0
3, 149280, Note_on_c, 1, 60, 100
3, 149400, Note_on_c, 1, 60, 0
3, 149400, Note_on_c, 1, 58, 100
3, 149520, Note_on_c, 1, 58, 0
3, 149520, Note_on_c, 1, 56, 100
3, 149640, Note_on_c, 1, 56, 0
3, 149640, Note_on_c, 1, 60, 100
3, 149760, Note_on_c, 1, 60, 0
3, 149760, Note_on_c, 1, 55, 100
3, 149880, Note_on_c, 1, 55, 0
3, 149880, Note_on_c, 1, 60, 100
3, 150000, Note_on_c, 1, 60, 0
3, 150000, Note_on_c, 1, 53, 100
3, 150120, Note_on_c, 1, 53, 0
3, 150120, Note_on_c, 1, 63, 100
3, 150240, Note_on_c, 1, 63, 0
3, 150240, Note_on_c, 1, 62, 100
3, 150360, Note_on_c, 1, 62, 0
3, 150360, Note_on_c, 1, 59, 100
3, 150480, Note_on_c, 1, 59, 0
3, 150480, Note_on_c, 1, 60, 100
3, 150600, Note_on_c, 1, 60, 0
3, 150600, Note_on_c, 1, 62, 100
3, 150720, Note_on_c, 1, 62, 0
3, 150720, Note_on_c, 1, 55, 100
3, 150840, Note_on_c, 1, 55, 0
3, 150840, Note_on_c, 1, 63, 100
3, 150960, Note_on_c, 1, 63, 0
3, 150960, Note_on_c, 1, 62, 100
3, 151080, Note_on_c, 1, 62, 0
3, 151080, Note_on_c, 1, 59, 100
3, 151200, Note_on_c, 1, 59, 0
3, 151200, Note_on_c, 1, 60, 100
3, 151320, Note_on_c, 1, 60, 0
3, 151320, Note_on_c, 1, 62, 100
3, 151440, Note_on_c, 1, 62, 0
3, 151440, Note_on_c, 1, 56, 100
3, 151560, Note_on_c, 1, 56, 0
3, 151560, Note_on_c, 1, 63, 100
3, 151680, Note_on_c, 1, 63, 0
3, 151680, Note_on_c, 1, 62, 100
3, 151800, Note_on_c, 1, 62, 0
3, 151800, Note_on_c, 1, 59, 100
3, 151920, Note_on_c, 1, 59, 0
3, 151920, Note_on_c, 1, 60, 100
3, 152040, Note_on_c, 1, 60, 0
3, 152040, Note_on_c, 1, 62, 100
3, 152160, Note_on_c, 1, 62, 0
3, 152160, Note_on_c, 1, 54, 100
3, 152280, Note_on_c, 1, 54, 0
3, 152280, Note_on_c, 1, 63, 100
3, 152400, Note_on_c, 1, 63, 0
3, 152400, Note_on_c, 1, 62, 100
3, 152520, Note_on_c, 1, 62, 0
3, 152520, Note_on_c, 1, 59, 100
3, 152640, Note_on_c, 1, 59, 0
3, 152640, Note_on_c, 1, 60, 100
3, 152760, Note_on_c, 1, 60, 0
3, 152760, Note_on_c, 1, 62, 100
3, 152880, Note_on_c, 1, 62, 0
3, 152880, Note_on_c, 1, 55, 100
3, 153000, Note_on_c, 1, 55, 0
3, 153000, Note_on_c, 1, 63, 100
3, 153120, Note_on_c, 1, 63, 0
3, 153120, Note_on_c, 1, 62, 100
3, 153240, Note_on_c, 1, 62, 0
3, 153240, Note_on_c, 1, 59, 100
3, 153360, Note_on_c, 1, 59, 0
3, 153360, Note_on_c, 1, 60, 100
3, 153480, Note_on_c, 1, 60, 0
3, 153480, Note_on_c, 1, 62, 100
3, 153600, Note_on_c, 1, 62, 0
3, 153600, Note_on_c, 1, 43, 100
3, 154320, Note_on_c, 1, 43, 0
3, 154320, Note_on_c, 1, 43, 100
3, 154560, Note_on_c, 1, 43, 0
3, 155040, Note_on_c, 1, 43, 100
3, 155280, Note_on_c, 1, 43, 0
3, 155760, Note_on_c, 1, 43, 100
3, 156000, Note_on_c, 1, 43, 0
3, 161760, Note_on_c, 1, 55, 100
3, 162240, Note_on_c, 1, 55, 0
3, 181200, Note_on_c, 1, 46, 100
3, 181320, Note_on_c, 1, 46, 0
3, 181320, Note_on_c, 1, 44, 100
3, 181440, Note_on_c, 1, 44, 0
3, 181440, Note_on_c, 1, 46, 100
3, 181560, Note_on_c, 1, 46, 0
3, 181560, Note_on_c, 1, 43, 100
3, 181680, Note_on_c, 1, 43, 0
3, 181680, Note_on_c, 1, 44, 100
3, 181800, Note_on_c, 1, 44, 0
3, 181800, Note_on_c, 1, 48, 100
3, 181920, Note_on_c, 1, 48, 0
3, 181920, Note_on_c, 1, 53, 100
3, 182040, Note_on_c, 1, 53, 0
3, 182040, Note_on_c, 1, 44, 100
3, 182160, Note_on_c, 1, 44, 0
3, 182160, Note_on_c, 1, 46, 100
3, 182280, Note_on_c, 1, 46, 0
3, 182280, Note_on_c, 1, 44, 100
3, 182400, Note_on_c, 1, 44, 0
3, 182400, Note_on_c, 1, 43, 100
3, 182520, Note_on_c, 1, 43, 0
3, 182520, Note_on_c, 1, 46, 100
3, 182640, Note_on_c, 1, 46, 0
3, 182640, Note_on_c, 1, 52, 100
3, 182760, Note_on_c, 1, 52, 0
3, 182760, Note_on_c, 1, 49, 100
3, 182880, Note_on_c, 1, 49, 0
3, 182880, Note_on_c, 1, 48, 100
3, 183000, Note_on_c, 1, 48, 0
3, 183000, Note_on_c, 1, 46, 100
3, 183120, Note_on_c, 1, 46, 0
3, 183120, Note_on_c, 1, 44, 100
3, 183240, Note_on_c, 1, 44, 0
3, 183240, Note_on_c, 1, 48, 100
3, 183360, Note_on_c, 1, 48, 0
3, 183360, Note_on_c, 1, 53, 100
3, 183480, Note_on_c, 1, 53, 0
3, 183480, Note_on_c, 1, 44, 100
3, 183600, Note_on_c, 1, 44, 0
3, 183600, Note_on_c, 1, 46, 100
3, 183720, Note_on_c, 1, 46, 0
3, 183720, Note_on_c, 1, 44, 100
3, 183840, Note_on_c, 1, 44, 0
3, 183840, Note_on_c, 1, 43, 100
3, 183960, Note_on_c, 1, 43, 0
3, 183960, Note_on_c, 1, 46, 100
3, 184080, Note_on_c, 1, 46, 0
3, 184080, Note_on_c, 1, 52, 100
3, 184200, Note_on_c, 1, 52, 0
3, 184200, Note_on_c, 1, 49, 100
3, 184320, Note_on_c, 1, 49, 0
3, 184320, Note_on_c, 1, 48, 100
3, 184440, Note_on_c, 1, 48, 0
3, 184440, Note_on_c, 1, 46, 100
3, 184560, Note_on_c, 1, 46, 0
3, 184560, Note_on_c, 1, 44, 100
3, 184680, Note_on_c, 1, 44, 0
3, 184680, Note_on_c, 1, 48, 100
3, 184800, Note_on_c, 1, 48, 0
3, 184800, Note_on_c, 1, 53, 100
3, 184920, Note_on_c, 1, 53, 0
3, 184920, Note_on_c, 1, 50, 100
3, 185040, Note_on_c, 1, 50, 0
3, 185040, Note_on_c, 1, 51, 100
3, 185160, Note_on_c, 1, 51, 0
3, 185160, Note_on_c, 1, 48, 100
3, 185280, Note_on_c, 1, 48, 0
3, 185280, Note_on_c, 1, 47, 100
3, 185400, Note_on_c, 1, 47, 0
3, 185400, Note_on_c, 1, 51, 100
3, 185520, Note_on_c, 1, 51, 0
3, 185520, Note_on_c, 1, 50, 100
3, 185640, Note_on_c, 1, 50, 0
3, 185640, Note_on_c, 1, 48, 100
3, 185760, Note_on_c, 1, 48, 0
3, 185760, Note_on_c, 1, 47, 100
3, 185880, Note_on_c, 1, 47, 0
3, 185880, Note_on_c, 1, 45, 100
3, 186000, Note_on_c, 1, 45, 0
3, 186000, Note_on_c, 1, 43, 100
3, 186120, Note_on_c, 1, 43, 0
3, 186120, Note_on_c, 1, 55, 100
3, 186240, Note_on_c, 1, 55, 0
3, 186240, Note_on_c, 1, 53, 100
3, 186360, Note_on_c, 1, 53, 0
3, 186360, Note_on_c, 1, 51, 100
3, 186480, Note_on_c, 1, 51, 0
3, 186480, Note_on_c, 1, 50, 100
3, 186600, Note_on_c, 1, 50, 0
3, 186600, Note_on_c, 1, 48, 100
3, 186720, Note_on_c, 1, 48, 0
3, 186720, Note_on_c, 1, 48, 100
3, 186960, Note_on_c, 1, 48, 0
3, 187440, Note_on_c, 1, 41, 100
3, 187560, Note_on_c, 1, 41, 0
3, 187560, Note_on_c, 1, 57, 100
3, 187680, Note_on_c, 1, 57, 0
3, 187680, Note_on_c, 1, 55, 100
3, 187800, Note_on_c, 1, 55, 0
3, 187800, Note_on_c, 1, 53, 100
3, 187920, Note_on_c, 1, 53, 0
3, 187920, Note_on_c, 1, 51, 100
3, 188040, Note_on_c, 1, 51, 0
3, 188040, Note_on_c, 1, 50, 100
3, 188160, Note_on_c, 1, 50, 0
3, 188160, Note_on_c, 1, 48, 100
3, 188400, Note_on_c, 1, 48, 0
3, 188880, Note_on_c, 1, 43, 100
3, 189000, Note_on_c, 1, 43, 0
3, 189000, Note_on_c, 1, 63, 100
3, 189120, Note_on_c, 1, 63, 0
3, 189120, Note_on_c, 1, 62, 100
3, 189240, Note_on_c, 1, 62, 0
3, 189240, Note_on_c, 1, 60, 100
3, 189300, Note_on_c, 1, 60, 0
3, 189300, Note_on_c, 1, 59, 100
3, 189360, Note_on_c, 1, 59, 0
3, 189360, Note_on_c, 1, 60, 100
3, 189480, Note_on_c, 1, 60, 0
3, 189480, Note_on_c, 1, 55, 100
3, 189600, Note_on_c, 1, 55, 0
3, 189600, Note_on_c, 1, 56, 100
3, 189720, Note_on_c, 1, 56, 0
3, 189720, Note_on_c, 1, 54, 100
3, 189840, Note_on_c, 1, 54, 0
3, 189840, Note_on_c, 1, 55, 100
3, 189960, Note_on_c, 1, 55, 0
3, 189960, Note_on_c, 1, 50, 100
3, 190080, Note_on_c, 1, 50, 0
3, 190080, Note_on_c, 1, 51, 100
3, 190200, Note_on_c, 1, 51, 0
3, 190200, Note_on_c, 1, 47, 100
3, 190320, Note_on_c, 1, 47, 0
3, 190320, Note_on_c, 1, 48, 100
3, 190440, Note_on_c, 1, 48, 0
3, 190440, Note_on_c, 1, 42, 100
3, 190560, Note_on_c, 1, 42, 0
3, 190560, Note_on_c, 1, 43, 100
3, 190800, Note_on_c, 1, 43, 0
3, 190800, Note_on_c, 1, 43, 100
3, 191040, Note_on_c, 1, 43, 0
3, 191040, Note_on_c, 1, 36, 100
3, 191760, Note_on_c, 1, 36, 0
3, 191760, End_track
4, 0, Start_track
4, 0, MIDI_port, 0
4, 0, Title_t, "Johann Sebastian Bach  (1685-1750)"
4, 0, Program_c, 2, 42
4, 0, Control_c, 2, 7, 100
4, 0, Control_c, 2, 10, 79
4, 1920, Note_on_c, 2, 53, 100
4, 2640, Note_on_c, 2, 53, 0
4, 8640, Note_on_c, 2, 60, 100
4, 9360, Note_on_c, 2, 60, 0
4, 9360, Note_on_c, 2, 60, 100
4, 9600, Note_on_c, 2, 60, 0
4, 9600, Note_on_c, 2, 60, 100
4, 10200, Note_on_c, 2, 60, 0
4, 10200, Note_on_c, 2, 60, 100
4, 10320, Note_on_c, 2, 60, 0
4, 10320, Note_on_c, 2, 58, 100
4, 10440, Note_on_c, 2, 58, 0
4, 10440, Note_on_c, 2, 56, 100
4, 10560, Note_on_c, 2, 56, 0
4, 10560, Note_on_c, 2, 58, 100
4, 10920, Note_on_c, 2, 58, 0
4, 10920, Note_on_c, 2, 55, 100
4, 11040, Note_on_c, 2, 55, 0
4, 11040, Note_on_c, 2, 56, 100
4, 11400, Note_on_c, 2, 56, 0
4, 11400, Note_on_c, 2, 58, 100
4, 11520, Note_on_c, 2, 58, 0
4, 11520, Note_on_c, 2, 56, 100
4, 12000, Note_on_c, 2, 56, 0
4, 15360, Note_on_c, 2, 43, 100
4, 15840, Note_on_c, 2, 43, 0
4, 17280, Note_on_c, 2, 43, 100
4, 17760, Note_on_c, 2, 43, 0
4, 19200, Note_on_c, 2, 43, 100
4, 19920, Note_on_c, 2, 43, 0
4, 21120, Note_on_c, 2, 43, 100
4, 21840, Note_on_c, 2, 43, 0
4, 23040, Note_on_c, 2, 43, 100
4, 23520, Note_on_c, 2, 43, 0
4, 24960, Note_on_c, 2, 43, 100
4, 25440, Note_on_c, 2, 43, 0
4, 26880, Note_on_c, 2, 53, 100
4, 27360, Note_on_c, 2, 53, 0
4, 28800, Note_on_c, 2, 46, 100
4, 29280, Note_on_c, 2, 46, 0
4, 30720, Note_on_c, 2, 46, 100
4, 31200, Note_on_c, 2, 46, 0
4, 38400, Note_on_c, 2, 43, 100
4, 38880, Note_on_c, 2, 43, 0
4, 40320, Note_on_c, 2, 43, 100
4, 40800, Note_on_c, 2, 43, 0
4, 49920, Note_on_c, 2, 43, 100
4, 50400, Note_on_c, 2, 43, 0
4, 75840, Note_on_c, 2, 50, 100
4, 75960, Note_on_c, 2, 50, 0
4, 87360, Note_on_c, 2, 39, 100
4, 87600, Note_on_c, 2, 39, 0
4, 186720, Note_on_c, 2, 55, 100
4, 186960, Note_on_c, 2, 55, 0
4, 188160, Note_on_c, 2, 51, 100
4, 188400, Note_on_c, 2, 51, 0
4, 190800, Note_on_c, 2, 53, 100
4, 191040, Note_on_c, 2, 53, 0
4, 191040, Note_on_c, 2, 52, 100
4, 191760, Note_on_c, 2, 52, 0
4, 191760, End_track
5, 0, Start_track
5, 0, MIDI_port, 0
5, 0, Title_t, "Six Suites for Solo Cello"
5, 0, Program_c, 3, 42
5, 0, Control_c, 3, 7, 100
5, 0, Control_c, 3, 10, 49
5, 0, Note_on_c, 3, 36, 100
5, 480, Note_on_c, 3, 36, 0
5, 1920, Note_on_c, 3, 36, 100
5, 2640, Note_on_c, 3, 36, 0
5, 4320, Note_on_c, 3, 36, 100
5, 4800, Note_on_c, 3, 36, 0
5, 8160, Note_on_c, 3, 36, 100
5, 8640, Note_on_c, 3, 36, 0
5, 9600, Note_on_c, 3, 36, 100
5, 10080, Note_on_c, 3, 36, 0
5, 12000, Note_on_c, 3, 36, 100
5, 12480, Note_on_c, 3, 36, 0
5, 15360, Note_on_c, 3, 36, 100
5, 15840, Note_on_c, 3, 36, 0
5, 28800, Note_on_c, 3, 53, 100
5, 29280, Note_on_c, 3, 53, 0
5, 30720, Note_on_c, 3, 51, 100
5, 31200, Note_on_c, 3, 51, 0
5, 33120, Note_on_c, 3, 36, 100
5, 33480, Note_on_c, 3, 36, 0
5, 40320, Note_on_c, 3, 36, 100
5, 40800, Note_on_c, 3, 36, 0
5, 186720, Note_on_c, 3, 58, 100
5, 186960, Note_on_c, 3, 58, 0
5, 188160, Note_on_c, 3, 60, 100
5, 188400, Note_on_c, 3, 60, 0
5, 190800, Note_on_c, 3, 59, 100
5, 191040, Note_on_c, 3, 59, 0
5, 191040, Note_on_c, 3, 60, 100
5, 191760, Note_on_c, 3, 60, 0
5, 191760, End_track
6, 0, Start_track
6, 0, MIDI_port, 0
6, 0, Title_t, "--------------------------------------"
6, 0, End_track
7, 0, Start_track
7, 0, MIDI_port, 0
7, 0, Title_t, "Suite No. 5 in C minor - BWV 1011"
7, 0, End_track
8, 0, Start_track
8, 0, MIDI_port, 0
8, 0, Title_t, "1st Movement: Prelude"
8, 0, End_track
9, 0, Start_track
9, 0, MIDI_port, 0
9, 0, Title_t, "--------------------------------------"
9, 0, End_track
10, 0, Start_track
10, 0, MIDI_port, 0
10, 0, Title_t, "Sequenced with Cakewalk Pro Audio by"
10, 0, End_track
11, 0, Start_track
11, 0, MIDI_port, 0
11, 0, Title_t, "David J. Grossman - dave@unpronounceable.com"
11, 0, End_track
12, 0, Start_track
12, 0, MIDI_port, 0
12, 0, Title_t, "This and other Bach MIDI files can be found at:"
12, 0, End_track
13, 0, Start_track
13, 0, MIDI_port, 0
13, 0, Title_t, "Dave's J.S. Bach Page"
13, 0, End_track
14, 0, Start_track
14, 0, MIDI_port, 0
14, 0, Title_t, "http://www.unpronounceable.com/bach"
14, 0, End_track
15, 0, Start_track
15, 0, MIDI_port, 0
15, 0, Title_t, "--------------------------------------"
15, 0, End_track
16, 0, Start_track
16, 0, MIDI_port, 0
16, 0, Title_t, "Original Filename: cs5-1pre.mid"
16, 0, End_track
17, 0, Start_track
17, 0, MIDI_port, 0
17, 0, Title_t, "Last Modified: February 22, 1997"
17, 0, End_track
18, 0, Start_track
18, 0, MIDI_port, 0
18, 0, End_track
0, 0, End_of_file
