0, 0, Header, 1, 17, 480
1, 0, Start_track
1, 0, Title_t, "untitled"
1, 0, Copyright_t, "Copyright © 1995 by David Grossman"
1, 0, Text_t, "David Grossman"
1, 0, SMPTE_offset, 96, 0, 3, 0, 0
1, 0, Time_signature, 4, 2, 24, 8
1, 0, Key_signature, 2, "major"
1, 0, Tempo, 240000
1, 960, Tempo, 461538
1, 1920, Marker_t, "I A"
1, 17280, Marker_t, "I A'"
1, 32640, Marker_t, "I B"
1, 71040, Marker_t, "I B'"
1, 109440, Marker_t, "II A"
1, 117120, Marker_t, "II A'"
1, 124800, Marker_t, "II B"
1, 163200, Marker_t, "II B'"
1, 201600, Marker_t, "I A''"
1, 216960, Marker_t, "I B''"
1, 253440, Tempo, 923077
1, 253440, End_track
2, 0, Start_track
2, 0, MIDI_port, 0
2, 0, Title_t, "Solo Cello"
2, 0, Program_c, 0, 42
2, 0, Control_c, 0, 7, 100
2, 0, Control_c, 0, 10, 59
2, 960, Note_on_c, 0, 66, 100
2, 1440, Note_on_c, 0, 66, 0
2, 1440, Note_on_c, 0, 66, 100
2, 1920, Note_on_c, 0, 66, 0
2, 1920, Note_on_c, 0, 66, 100
2, 2400, Note_on_c, 0, 66, 0
2, 2400, Note_on_c, 0, 64, 100
2, 2640, Note_on_c, 0, 64, 0
2, 2640, Note_on_c, 0, 62, 100
2, 2880, Note_on_c, 0, 62, 0
2, 2880, Note_on_c, 0, 64, 100
2, 3120, Note_on_c, 0, 64, 0
2, 3120, Note_on_c, 0, 66, 100
2, 3360, Note_on_c, 0, 66, 0
2, 3360, Note_on_c, 0, 67, 100
2, 3840, Note_on_c, 0, 67, 0
2, 3840, Note_on_c, 0, 62, 100
2, 4080, Note_on_c, 0, 62, 0
2, 4080, Note_on_c, 0, 61, 100
2, 4320, Note_on_c, 0, 61, 0
2, 4320, Note_on_c, 0, 59, 100
2, 4560, Note_on_c, 0, 59, 0
2, 4560, Note_on_c, 0, 57, 100
2, 4800, Note_on_c, 0, 57, 0
2, 4800, Note_on_c, 0, 69, 100
2, 5280, Note_on_c, 0, 69, 0
2, 5280, Note_on_c, 0, 69, 100
2, 5760, Note_on_c, 0, 69, 0
2, 5760, Note_on_c, 0, 69, 100
2, 6240, Note_on_c, 0, 69, 0
2, 6240, Note_on_c, 0, 71, 100
2, 6480, Note_on_c, 0, 71, 0
2, 6480, Note_on_c, 0, 69, 100
2, 6720, Note_on_c, 0, 69, 0
2, 6720, Note_on_c, 0, 67, 100
2, 6960, Note_on_c, 0, 67, 0
2, 6960, Note_on_c, 0, 66, 100
2, 7200, Note_on_c, 0, 66, 0
2, 7200, Note_on_c, 0, 64, 100
2, 7440, Note_on_c, 0, 64, 0
2, 7440, Note_on_c, 0, 66, 100
2, 7680, Note_on_c, 0, 66, 0
2, 7680, Note_on_c, 0, 67, 100
2, 7920, Note_on_c, 0, 67, 0
2, 7920, Note_on_c, 0, 66, 100
2, 8160, Note_on_c, 0, 66, 0
2, 8160, Note_on_c, 0, 64, 100
2, 8400, Note_on_c, 0, 64, 0
2, 8400, Note_on_c, 0, 62, 100
2, 8640, Note_on_c, 0, 62, 0
2, 8640, Note_on_c, 0, 66, 100
2, 9120, Note_on_c, 0, 66, 0
2, 9120, Note_on_c, 0, 66, 100
2, 9600, Note_on_c, 0, 66, 0
2, 9600, Note_on_c, 0, 66, 100
2, 10080, Note_on_c, 0, 66, 0
2, 10080, Note_on_c, 0, 64, 100
2, 10320, Note_on_c, 0, 64, 0
2, 10320, Note_on_c, 0, 62, 100
2, 10560, Note_on_c, 0, 62, 0
2, 10560, Note_on_c, 0, 64, 100
2, 10800, Note_on_c, 0, 64, 0
2, 10800, Note_on_c, 0, 66, 100
2, 11040, Note_on_c, 0, 66, 0
2, 11040, Note_on_c, 0, 67, 100
2, 11520, Note_on_c, 0, 67, 0
2, 11520, Note_on_c, 0, 62, 100
2, 11760, Note_on_c, 0, 62, 0
2, 11760, Note_on_c, 0, 61, 100
2, 12000, Note_on_c, 0, 61, 0
2, 12000, Note_on_c, 0, 59, 100
2, 12240, Note_on_c, 0, 59, 0
2, 12240, Note_on_c, 0, 57, 100
2, 12480, Note_on_c, 0, 57, 0
2, 12480, Note_on_c, 0, 62, 100
2, 12960, Note_on_c, 0, 62, 0
2, 12960, Note_on_c, 0, 62, 100
2, 13440, Note_on_c, 0, 62, 0
2, 13440, Note_on_c, 0, 62, 100
2, 13920, Note_on_c, 0, 62, 0
2, 13920, Note_on_c, 0, 61, 100
2, 14160, Note_on_c, 0, 61, 0
2, 14160, Note_on_c, 0, 62, 100
2, 14400, Note_on_c, 0, 62, 0
2, 14400, Note_on_c, 0, 61, 100
2, 14640, Note_on_c, 0, 61, 0
2, 14640, Note_on_c, 0, 59, 100
2, 14880, Note_on_c, 0, 59, 0
2, 14880, Note_on_c, 0, 64, 100
2, 15360, Note_on_c, 0, 64, 0
2, 15360, Note_on_c, 0, 61, 100
2, 16320, Note_on_c, 0, 61, 0
2, 16320, Note_on_c, 0, 66, 100
2, 16800, Note_on_c, 0, 66, 0
2, 16800, Note_on_c, 0, 66, 100
2, 17280, Note_on_c, 0, 66, 0
2, 17280, Note_on_c, 0, 66, 100
2, 17760, Note_on_c, 0, 66, 0
2, 17760, Note_on_c, 0, 64, 100
2, 18000, Note_on_c, 0, 64, 0
2, 18000, Note_on_c, 0, 62, 100
2, 18240, Note_on_c, 0, 62, 0
2, 18240, Note_on_c, 0, 64, 100
2, 18480, Note_on_c, 0, 64, 0
2, 18480, Note_on_c, 0, 66, 100
2, 18720, Note_on_c, 0, 66, 0
2, 18720, Note_on_c, 0, 67, 100
2, 19200, Note_on_c, 0, 67, 0
2, 19200, Note_on_c, 0, 62, 100
2, 19440, Note_on_c, 0, 62, 0
2, 19440, Note_on_c, 0, 61, 100
2, 19680, Note_on_c, 0, 61, 0
2, 19680, Note_on_c, 0, 59, 100
2, 19920, Note_on_c, 0, 59, 0
2, 19920, Note_on_c, 0, 57, 100
2, 20160, Note_on_c, 0, 57, 0
2, 20160, Note_on_c, 0, 69, 100
2, 20640, Note_on_c, 0, 69, 0
2, 20640, Note_on_c, 0, 69, 100
2, 21120, Note_on_c, 0, 69, 0
2, 21120, Note_on_c, 0, 69, 100
2, 21600, Note_on_c, 0, 69, 0
2, 21600, Note_on_c, 0, 71, 100
2, 21840, Note_on_c, 0, 71, 0
2, 21840, Note_on_c, 0, 69, 100
2, 22080, Note_on_c, 0, 69, 0
2, 22080, Note_on_c, 0, 67, 100
2, 22320, Note_on_c, 0, 67, 0
2, 22320, Note_on_c, 0, 66, 100
2, 22560, Note_on_c, 0, 66, 0
2, 22560, Note_on_c, 0, 64, 100
2, 22800, Note_on_c, 0, 64, 0
2, 22800, Note_on_c, 0, 66, 100
2, 23040, Note_on_c, 0, 66, 0
2, 23040, Note_on_c, 0, 67, 100
2, 23280, Note_on_c, 0, 67, 0
2, 23280, Note_on_c, 0, 66, 100
2, 23520, Note_on_c, 0, 66, 0
2, 23520, Note_on_c, 0, 64, 100
2, 23760, Note_on_c, 0, 64, 0
2, 23760, Note_on_c, 0, 62, 100
2, 24000, Note_on_c, 0, 62, 0
2, 24000, Note_on_c, 0, 66, 100
2, 24480, Note_on_c, 0, 66, 0
2, 24480, Note_on_c, 0, 66, 100
2, 24960, Note_on_c, 0, 66, 0
2, 24960, Note_on_c, 0, 66, 100
2, 25440, Note_on_c, 0, 66, 0
2, 25440, Note_on_c, 0, 64, 100
2, 25680, Note_on_c, 0, 64, 0
2, 25680, Note_on_c, 0, 62, 100
2, 25920, Note_on_c, 0, 62, 0
2, 25920, Note_on_c, 0, 64, 100
2, 26160, Note_on_c, 0, 64, 0
2, 26160, Note_on_c, 0, 66, 100
2, 26400, Note_on_c, 0, 66, 0
2, 26400, Note_on_c, 0, 67, 100
2, 26880, Note_on_c, 0, 67, 0
2, 26880, Note_on_c, 0, 62, 100
2, 27120, Note_on_c, 0, 62, 0
2, 27120, Note_on_c, 0, 61, 100
2, 27360, Note_on_c, 0, 61, 0
2, 27360, Note_on_c, 0, 59, 100
2, 27600, Note_on_c, 0, 59, 0
2, 27600, Note_on_c, 0, 57, 100
2, 27840, Note_on_c, 0, 57, 0
2, 27840, Note_on_c, 0, 62, 100
2, 28320, Note_on_c, 0, 62, 0
2, 28320, Note_on_c, 0, 62, 100
2, 28800, Note_on_c, 0, 62, 0
2, 28800, Note_on_c, 0, 62, 100
2, 29280, Note_on_c, 0, 62, 0
2, 29280, Note_on_c, 0, 61, 100
2, 29520, Note_on_c, 0, 61, 0
2, 29520, Note_on_c, 0, 62, 100
2, 29760, Note_on_c, 0, 62, 0
2, 29760, Note_on_c, 0, 61, 100
2, 30000, Note_on_c, 0, 61, 0
2, 30000, Note_on_c, 0, 59, 100
2, 30240, Note_on_c, 0, 59, 0
2, 30240, Note_on_c, 0, 64, 100
2, 30720, Note_on_c, 0, 64, 0
2, 30720, Note_on_c, 0, 61, 100
2, 31680, Note_on_c, 0, 61, 0
2, 31680, Note_on_c, 0, 69, 100
2, 32160, Note_on_c, 0, 69, 0
2, 32160, Note_on_c, 0, 69, 100
2, 32640, Note_on_c, 0, 69, 0
2, 32640, Note_on_c, 0, 69, 100
2, 33120, Note_on_c, 0, 69, 0
2, 33120, Note_on_c, 0, 71, 100
2, 33360, Note_on_c, 0, 71, 0
2, 33360, Note_on_c, 0, 69, 100
2, 33600, Note_on_c, 0, 69, 0
2, 33600, Note_on_c, 0, 67, 100
2, 33840, Note_on_c, 0, 67, 0
2, 33840, Note_on_c, 0, 66, 100
2, 34080, Note_on_c, 0, 66, 0
2, 34080, Note_on_c, 0, 71, 100
2, 34560, Note_on_c, 0, 71, 0
2, 34560, Note_on_c, 0, 69, 100
2, 34800, Note_on_c, 0, 69, 0
2, 34800, Note_on_c, 0, 67, 100
2, 35040, Note_on_c, 0, 67, 0
2, 35040, Note_on_c, 0, 66, 100
2, 35280, Note_on_c, 0, 66, 0
2, 35280, Note_on_c, 0, 64, 100
2, 35520, Note_on_c, 0, 64, 0
2, 35520, Note_on_c, 0, 57, 100
2, 35760, Note_on_c, 0, 57, 0
2, 35760, Note_on_c, 0, 67, 100
2, 36000, Note_on_c, 0, 67, 0
2, 36000, Note_on_c, 0, 66, 100
2, 36240, Note_on_c, 0, 66, 0
2, 36240, Note_on_c, 0, 64, 100
2, 36480, Note_on_c, 0, 64, 0
2, 36480, Note_on_c, 0, 55, 100
2, 36720, Note_on_c, 0, 55, 0
2, 36720, Note_on_c, 0, 63, 100
2, 36960, Note_on_c, 0, 63, 0
2, 36960, Note_on_c, 0, 64, 100
2, 37200, Note_on_c, 0, 64, 0
2, 37200, Note_on_c, 0, 67, 100
2, 37440, Note_on_c, 0, 67, 0
2, 37440, Note_on_c, 0, 57, 100
2, 37680, Note_on_c, 0, 57, 0
2, 37680, Note_on_c, 0, 66, 100
2, 37920, Note_on_c, 0, 66, 0
2, 37920, Note_on_c, 0, 59, 100
2, 38160, Note_on_c, 0, 59, 0
2, 38160, Note_on_c, 0, 63, 100
2, 38400, Note_on_c, 0, 63, 0
2, 38400, Note_on_c, 0, 52, 100
2, 38640, Note_on_c, 0, 52, 0
2, 38640, Note_on_c, 0, 59, 100
2, 38880, Note_on_c, 0, 59, 0
2, 38880, Note_on_c, 0, 64, 100
2, 39120, Note_on_c, 0, 64, 0
2, 39120, Note_on_c, 0, 66, 100
2, 39360, Note_on_c, 0, 66, 0
2, 39360, Note_on_c, 0, 67, 100
2, 39840, Note_on_c, 0, 67, 0
2, 39840, Note_on_c, 0, 67, 100
2, 40320, Note_on_c, 0, 67, 0
2, 40320, Note_on_c, 0, 49, 100
2, 40560, Note_on_c, 0, 49, 0
2, 40560, Note_on_c, 0, 52, 100
2, 40800, Note_on_c, 0, 52, 0
2, 40800, Note_on_c, 0, 57, 100
2, 41040, Note_on_c, 0, 57, 0
2, 41040, Note_on_c, 0, 59, 100
2, 41280, Note_on_c, 0, 59, 0
2, 41280, Note_on_c, 0, 61, 100
2, 41520, Note_on_c, 0, 61, 0
2, 41520, Note_on_c, 0, 62, 100
2, 41760, Note_on_c, 0, 62, 0
2, 41760, Note_on_c, 0, 64, 100
2, 42000, Note_on_c, 0, 64, 0
2, 42000, Note_on_c, 0, 66, 100
2, 42240, Note_on_c, 0, 66, 0
2, 42240, Note_on_c, 0, 67, 100
2, 42480, Note_on_c, 0, 67, 0
2, 42480, Note_on_c, 0, 66, 100
2, 42720, Note_on_c, 0, 66, 0
2, 42720, Note_on_c, 0, 64, 100
2, 42960, Note_on_c, 0, 64, 0
2, 42960, Note_on_c, 0, 62, 100
2, 43200, Note_on_c, 0, 62, 0
2, 43200, Note_on_c, 0, 61, 100
2, 43440, Note_on_c, 0, 61, 0
2, 43440, Note_on_c, 0, 62, 100
2, 43680, Note_on_c, 0, 62, 0
2, 43680, Note_on_c, 0, 64, 100
2, 43920, Note_on_c, 0, 64, 0
2, 43920, Note_on_c, 0, 59, 100
2, 44160, Note_on_c, 0, 59, 0
2, 44160, Note_on_c, 0, 58, 100
2, 44400, Note_on_c, 0, 58, 0
2, 44400, Note_on_c, 0, 64, 100
2, 44640, Note_on_c, 0, 64, 0
2, 44640, Note_on_c, 0, 59, 100
2, 44880, Note_on_c, 0, 59, 0
2, 44880, Note_on_c, 0, 62, 100
2, 45120, Note_on_c, 0, 62, 0
2, 45120, Note_on_c, 0, 52, 100
2, 45360, Note_on_c, 0, 52, 0
2, 45360, Note_on_c, 0, 61, 100
2, 45600, Note_on_c, 0, 61, 0
2, 45600, Note_on_c, 0, 54, 100
2, 45840, Note_on_c, 0, 54, 0
2, 45840, Note_on_c, 0, 58, 100
2, 46080, Note_on_c, 0, 58, 0
2, 46080, Note_on_c, 0, 59, 100
2, 47040, Note_on_c, 0, 59, 0
2, 47040, Note_on_c, 0, 62, 100
2, 47520, Note_on_c, 0, 62, 0
2, 47520, Note_on_c, 0, 62, 100
2, 48000, Note_on_c, 0, 62, 0
2, 48000, Note_on_c, 0, 62, 100
2, 48480, Note_on_c, 0, 62, 0
2, 48480, Note_on_c, 0, 61, 100
2, 48720, Note_on_c, 0, 61, 0
2, 48720, Note_on_c, 0, 59, 100
2, 48960, Note_on_c, 0, 59, 0
2, 48960, Note_on_c, 0, 61, 100
2, 49200, Note_on_c, 0, 61, 0
2, 49200, Note_on_c, 0, 62, 100
2, 49440, Note_on_c, 0, 62, 0
2, 49440, Note_on_c, 0, 64, 100
2, 49920, Note_on_c, 0, 64, 0
2, 49920, Note_on_c, 0, 62, 100
2, 50160, Note_on_c, 0, 62, 0
2, 50160, Note_on_c, 0, 61, 100
2, 50400, Note_on_c, 0, 61, 0
2, 50400, Note_on_c, 0, 59, 100
2, 50640, Note_on_c, 0, 59, 0
2, 50640, Note_on_c, 0, 57, 100
2, 50880, Note_on_c, 0, 57, 0
2, 50880, Note_on_c, 0, 59, 100
2, 51120, Note_on_c, 0, 59, 0
2, 51120, Note_on_c, 0, 61, 100
2, 51360, Note_on_c, 0, 61, 0
2, 51360, Note_on_c, 0, 62, 100
2, 51600, Note_on_c, 0, 62, 0
2, 51600, Note_on_c, 0, 61, 100
2, 51840, Note_on_c, 0, 61, 0
2, 51840, Note_on_c, 0, 64, 100
2, 52080, Note_on_c, 0, 64, 0
2, 52080, Note_on_c, 0, 62, 100
2, 52320, Note_on_c, 0, 62, 0
2, 52320, Note_on_c, 0, 66, 100
2, 52560, Note_on_c, 0, 66, 0
2, 52560, Note_on_c, 0, 64, 100
2, 52800, Note_on_c, 0, 64, 0
2, 52800, Note_on_c, 0, 67, 100
2, 53040, Note_on_c, 0, 67, 0
2, 53040, Note_on_c, 0, 66, 100
2, 53280, Note_on_c, 0, 66, 0
2, 53280, Note_on_c, 0, 69, 100
2, 53760, Note_on_c, 0, 69, 0
2, 53760, Pitch_bend_c, 0, 16383
2, 53760, Note_on_c, 0, 64, 100
2, 54000, Pitch_bend_c, 0, 8192
2, 54720, Note_on_c, 0, 64, 0
2, 54720, Note_on_c, 0, 66, 100
2, 55200, Note_on_c, 0, 66, 0
2, 55200, Note_on_c, 0, 66, 100
2, 55680, Note_on_c, 0, 66, 0
2, 55680, Note_on_c, 0, 66, 100
2, 56160, Note_on_c, 0, 66, 0
2, 56160, Note_on_c, 0, 64, 100
2, 56400, Note_on_c, 0, 64, 0
2, 56400, Note_on_c, 0, 62, 100
2, 56640, Note_on_c, 0, 62, 0
2, 56640, Note_on_c, 0, 64, 100
2, 56880, Note_on_c, 0, 64, 0
2, 56880, Note_on_c, 0, 66, 100
2, 57120, Note_on_c, 0, 66, 0
2, 57120, Note_on_c, 0, 67, 100
2, 57600, Note_on_c, 0, 67, 0
2, 57600, Note_on_c, 0, 62, 100
2, 57840, Note_on_c, 0, 62, 0
2, 57840, Note_on_c, 0, 61, 100
2, 58080, Note_on_c, 0, 61, 0
2, 58080, Note_on_c, 0, 59, 100
2, 58320, Note_on_c, 0, 59, 0
2, 58320, Note_on_c, 0, 57, 100
2, 58560, Note_on_c, 0, 57, 0
2, 58560, Note_on_c, 0, 69, 100
2, 59040, Note_on_c, 0, 69, 0
2, 59040, Note_on_c, 0, 69, 100
2, 59520, Note_on_c, 0, 69, 0
2, 59520, Note_on_c, 0, 69, 100
2, 60000, Note_on_c, 0, 69, 0
2, 60000, Note_on_c, 0, 71, 100
2, 60240, Note_on_c, 0, 71, 0
2, 60240, Note_on_c, 0, 69, 100
2, 60480, Note_on_c, 0, 69, 0
2, 60480, Note_on_c, 0, 67, 100
2, 60720, Note_on_c, 0, 67, 0
2, 60720, Note_on_c, 0, 66, 100
2, 60960, Note_on_c, 0, 66, 0
2, 60960, Note_on_c, 0, 64, 100
2, 61200, Note_on_c, 0, 64, 0
2, 61200, Note_on_c, 0, 66, 100
2, 61440, Note_on_c, 0, 66, 0
2, 61440, Note_on_c, 0, 67, 100
2, 61680, Note_on_c, 0, 67, 0
2, 61680, Note_on_c, 0, 66, 100
2, 61920, Note_on_c, 0, 66, 0
2, 61920, Note_on_c, 0, 64, 100
2, 62160, Note_on_c, 0, 64, 0
2, 62160, Note_on_c, 0, 62, 100
2, 62400, Note_on_c, 0, 62, 0
2, 62400, Note_on_c, 0, 66, 100
2, 62880, Note_on_c, 0, 66, 0
2, 62880, Note_on_c, 0, 66, 100
2, 63360, Note_on_c, 0, 66, 0
2, 63360, Note_on_c, 0, 66, 100
2, 63600, Note_on_c, 0, 66, 0
2, 63600, Note_on_c, 0, 69, 100
2, 63840, Note_on_c, 0, 69, 0
2, 63840, Note_on_c, 0, 67, 100
2, 64080, Note_on_c, 0, 67, 0
2, 64080, Note_on_c, 0, 66, 100
2, 64320, Note_on_c, 0, 66, 0
2, 64320, Note_on_c, 0, 64, 100
2, 64560, Note_on_c, 0, 64, 0
2, 64560, Note_on_c, 0, 62, 100
2, 64800, Note_on_c, 0, 62, 0
2, 64800, Note_on_c, 0, 61, 100
2, 65040, Note_on_c, 0, 61, 0
2, 65040, Note_on_c, 0, 59, 100
2, 65280, Note_on_c, 0, 59, 0
2, 65280, Note_on_c, 0, 61, 100
2, 65520, Note_on_c, 0, 61, 0
2, 65520, Note_on_c, 0, 71, 100
2, 65760, Note_on_c, 0, 71, 0
2, 65760, Note_on_c, 0, 69, 100
2, 66000, Note_on_c, 0, 69, 0
2, 66000, Note_on_c, 0, 67, 100
2, 66240, Note_on_c, 0, 67, 0
2, 66240, Note_on_c, 0, 66, 100
2, 66480, Note_on_c, 0, 66, 0
2, 66480, Note_on_c, 0, 64, 100
2, 66720, Note_on_c, 0, 64, 0
2, 66720, Note_on_c, 0, 62, 100
2, 66960, Note_on_c, 0, 62, 0
2, 66960, Note_on_c, 0, 61, 100
2, 67200, Note_on_c, 0, 61, 0
2, 67200, Note_on_c, 0, 59, 100
2, 67440, Note_on_c, 0, 59, 0
2, 67440, Note_on_c, 0, 57, 100
2, 67680, Note_on_c, 0, 57, 0
2, 67680, Note_on_c, 0, 69, 100
2, 68160, Note_on_c, 0, 69, 0
2, 68160, Note_on_c, 0, 66, 100
2, 68640, Note_on_c, 0, 66, 0
2, 68640, Note_on_c, 0, 64, 100
2, 68880, Note_on_c, 0, 64, 0
2, 68880, Note_on_c, 0, 62, 100
2, 69120, Note_on_c, 0, 62, 0
2, 69120, Note_on_c, 0, 62, 100
2, 70080, Note_on_c, 0, 62, 0
2, 70080, Note_on_c, 0, 69, 100
2, 70560, Note_on_c, 0, 69, 0
2, 70560, Note_on_c, 0, 69, 100
2, 71040, Note_on_c, 0, 69, 0
2, 71040, Note_on_c, 0, 69, 100
2, 71520, Note_on_c, 0, 69, 0
2, 71520, Note_on_c, 0, 71, 100
2, 71760, Note_on_c, 0, 71, 0
2, 71760, Note_on_c, 0, 69, 100
2, 72000, Note_on_c, 0, 69, 0
2, 72000, Note_on_c, 0, 67, 100
2, 72240, Note_on_c, 0, 67, 0
2, 72240, Note_on_c, 0, 66, 100
2, 72480, Note_on_c, 0, 66, 0
2, 72480, Note_on_c, 0, 71, 100
2, 72960, Note_on_c, 0, 71, 0
2, 72960, Note_on_c, 0, 69, 100
2, 73200, Note_on_c, 0, 69, 0
2, 73200, Note_on_c, 0, 67, 100
2, 73440, Note_on_c, 0, 67, 0
2, 73440, Note_on_c, 0, 66, 100
2, 73680, Note_on_c, 0, 66, 0
2, 73680, Note_on_c, 0, 64, 100
2, 73920, Note_on_c, 0, 64, 0
2, 73920, Note_on_c, 0, 57, 100
2, 74160, Note_on_c, 0, 57, 0
2, 74160, Note_on_c, 0, 67, 100
2, 74400, Note_on_c, 0, 67, 0
2, 74400, Note_on_c, 0, 66, 100
2, 74640, Note_on_c, 0, 66, 0
2, 74640, Note_on_c, 0, 64, 100
2, 74880, Note_on_c, 0, 64, 0
2, 74880, Note_on_c, 0, 55, 100
2, 75120, Note_on_c, 0, 55, 0
2, 75120, Note_on_c, 0, 63, 100
2, 75360, Note_on_c, 0, 63, 0
2, 75360, Note_on_c, 0, 64, 100
2, 75600, Note_on_c, 0, 64, 0
2, 75600, Note_on_c, 0, 67, 100
2, 75840, Note_on_c, 0, 67, 0
2, 75840, Note_on_c, 0, 57, 100
2, 76080, Note_on_c, 0, 57, 0
2, 76080, Note_on_c, 0, 66, 100
2, 76320, Note_on_c, 0, 66, 0
2, 76320, Note_on_c, 0, 59, 100
2, 76560, Note_on_c, 0, 59, 0
2, 76560, Note_on_c, 0, 63, 100
2, 76800, Note_on_c, 0, 63, 0
2, 76800, Note_on_c, 0, 52, 100
2, 77040, Note_on_c, 0, 52, 0
2, 77040, Note_on_c, 0, 59, 100
2, 77280, Note_on_c, 0, 59, 0
2, 77280, Note_on_c, 0, 64, 100
2, 77520, Note_on_c, 0, 64, 0
2, 77520, Note_on_c, 0, 66, 100
2, 77760, Note_on_c, 0, 66, 0
2, 77760, Note_on_c, 0, 67, 100
2, 78240, Note_on_c, 0, 67, 0
2, 78240, Note_on_c, 0, 67, 100
2, 78720, Note_on_c, 0, 67, 0
2, 78720, Note_on_c, 0, 49, 100
2, 78960, Note_on_c, 0, 49, 0
2, 78960, Note_on_c, 0, 52, 100
2, 79200, Note_on_c, 0, 52, 0
2, 79200, Note_on_c, 0, 57, 100
2, 79440, Note_on_c, 0, 57, 0
2, 79440, Note_on_c, 0, 59, 100
2, 79680, Note_on_c, 0, 59, 0
2, 79680, Note_on_c, 0, 61, 100
2, 79920, Note_on_c, 0, 61, 0
2, 79920, Note_on_c, 0, 62, 100
2, 80160, Note_on_c, 0, 62, 0
2, 80160, Note_on_c, 0, 64, 100
2, 80400, Note_on_c, 0, 64, 0
2, 80400, Note_on_c, 0, 66, 100
2, 80640, Note_on_c, 0, 66, 0
2, 80640, Note_on_c, 0, 67, 100
2, 80880, Note_on_c, 0, 67, 0
2, 80880, Note_on_c, 0, 66, 100
2, 81120, Note_on_c, 0, 66, 0
2, 81120, Note_on_c, 0, 64, 100
2, 81360, Note_on_c, 0, 64, 0
2, 81360, Note_on_c, 0, 62, 100
2, 81600, Note_on_c, 0, 62, 0
2, 81600, Note_on_c, 0, 61, 100
2, 81840, Note_on_c, 0, 61, 0
2, 81840, Note_on_c, 0, 62, 100
2, 82080, Note_on_c, 0, 62, 0
2, 82080, Note_on_c, 0, 64, 100
2, 82320, Note_on_c, 0, 64, 0
2, 82320, Note_on_c, 0, 59, 100
2, 82560, Note_on_c, 0, 59, 0
2, 82560, Note_on_c, 0, 58, 100
2, 82800, Note_on_c, 0, 58, 0
2, 82800, Note_on_c, 0, 64, 100
2, 83040, Note_on_c, 0, 64, 0
2, 83040, Note_on_c, 0, 59, 100
2, 83280, Note_on_c, 0, 59, 0
2, 83280, Note_on_c, 0, 62, 100
2, 83520, Note_on_c, 0, 62, 0
2, 83520, Note_on_c, 0, 52, 100
2, 83760, Note_on_c, 0, 52, 0
2, 83760, Note_on_c, 0, 61, 100
2, 84000, Note_on_c, 0, 61, 0
2, 84000, Note_on_c, 0, 54, 100
2, 84240, Note_on_c, 0, 54, 0
2, 84240, Note_on_c, 0, 58, 100
2, 84480, Note_on_c, 0, 58, 0
2, 84480, Note_on_c, 0, 59, 100
2, 85440, Note_on_c, 0, 59, 0
2, 85440, Note_on_c, 0, 62, 100
2, 85920, Note_on_c, 0, 62, 0
2, 85920, Note_on_c, 0, 62, 100
2, 86400, Note_on_c, 0, 62, 0
2, 86400, Note_on_c, 0, 62, 100
2, 86880, Note_on_c, 0, 62, 0
2, 86880, Note_on_c, 0, 61, 100
2, 87120, Note_on_c, 0, 61, 0
2, 87120, Note_on_c, 0, 59, 100
2, 87360, Note_on_c, 0, 59, 0
2, 87360, Note_on_c, 0, 61, 100
2, 87600, Note_on_c, 0, 61, 0
2, 87600, Note_on_c, 0, 62, 100
2, 87840, Note_on_c, 0, 62, 0
2, 87840, Note_on_c, 0, 64, 100
2, 88320, Note_on_c, 0, 64, 0
2, 88320, Note_on_c, 0, 62, 100
2, 88560, Note_on_c, 0, 62, 0
2, 88560, Note_on_c, 0, 61, 100
2, 88800, Note_on_c, 0, 61, 0
2, 88800, Note_on_c, 0, 59, 100
2, 89040, Note_on_c, 0, 59, 0
2, 89040, Note_on_c, 0, 57, 100
2, 89280, Note_on_c, 0, 57, 0
2, 89280, Note_on_c, 0, 59, 100
2, 89520, Note_on_c, 0, 59, 0
2, 89520, Note_on_c, 0, 61, 100
2, 89760, Note_on_c, 0, 61, 0
2, 89760, Note_on_c, 0, 62, 100
2, 90000, Note_on_c, 0, 62, 0
2, 90000, Note_on_c, 0, 61, 100
2, 90240, Note_on_c, 0, 61, 0
2, 90240, Note_on_c, 0, 64, 100
2, 90480, Note_on_c, 0, 64, 0
2, 90480, Note_on_c, 0, 62, 100
2, 90720, Note_on_c, 0, 62, 0
2, 90720, Note_on_c, 0, 66, 100
2, 90960, Note_on_c, 0, 66, 0
2, 90960, Note_on_c, 0, 64, 100
2, 91200, Note_on_c, 0, 64, 0
2, 91200, Note_on_c, 0, 67, 100
2, 91440, Note_on_c, 0, 67, 0
2, 91440, Note_on_c, 0, 66, 100
2, 91680, Note_on_c, 0, 66, 0
2, 91680, Note_on_c, 0, 69, 100
2, 92160, Note_on_c, 0, 69, 0
2, 92160, Pitch_bend_c, 0, 16383
2, 92160, Note_on_c, 0, 64, 100
2, 92400, Pitch_bend_c, 0, 8192
2, 93120, Note_on_c, 0, 64, 0
2, 93120, Note_on_c, 0, 66, 100
2, 93600, Note_on_c, 0, 66, 0
2, 93600, Note_on_c, 0, 66, 100
2, 94080, Note_on_c, 0, 66, 0
2, 94080, Note_on_c, 0, 66, 100
2, 94560, Note_on_c, 0, 66, 0
2, 94560, Note_on_c, 0, 64, 100
2, 94800, Note_on_c, 0, 64, 0
2, 94800, Note_on_c, 0, 62, 100
2, 95040, Note_on_c, 0, 62, 0
2, 95040, Note_on_c, 0, 64, 100
2, 95280, Note_on_c, 0, 64, 0
2, 95280, Note_on_c, 0, 66, 100
2, 95520, Note_on_c, 0, 66, 0
2, 95520, Note_on_c, 0, 67, 100
2, 96000, Note_on_c, 0, 67, 0
2, 96000, Note_on_c, 0, 62, 100
2, 96240, Note_on_c, 0, 62, 0
2, 96240, Note_on_c, 0, 61, 100
2, 96480, Note_on_c, 0, 61, 0
2, 96480, Note_on_c, 0, 59, 100
2, 96720, Note_on_c, 0, 59, 0
2, 96720, Note_on_c, 0, 57, 100
2, 96960, Note_on_c, 0, 57, 0
2, 96960, Note_on_c, 0, 69, 100
2, 97440, Note_on_c, 0, 69, 0
2, 97440, Note_on_c, 0, 69, 100
2, 97920, Note_on_c, 0, 69, 0
2, 97920, Note_on_c, 0, 69, 100
2, 98400, Note_on_c, 0, 69, 0
2, 98400, Note_on_c, 0, 71, 100
2, 98640, Note_on_c, 0, 71, 0
2, 98640, Note_on_c, 0, 69, 100
2, 98880, Note_on_c, 0, 69, 0
2, 98880, Note_on_c, 0, 67, 100
2, 99120, Note_on_c, 0, 67, 0
2, 99120, Note_on_c, 0, 66, 100
2, 99360, Note_on_c, 0, 66, 0
2, 99360, Note_on_c, 0, 64, 100
2, 99600, Note_on_c, 0, 64, 0
2, 99600, Note_on_c, 0, 66, 100
2, 99840, Note_on_c, 0, 66, 0
2, 99840, Note_on_c, 0, 67, 100
2, 100080, Note_on_c, 0, 67, 0
2, 100080, Note_on_c, 0, 66, 100
2, 100320, Note_on_c, 0, 66, 0
2, 100320, Note_on_c, 0, 64, 100
2, 100560, Note_on_c, 0, 64, 0
2, 100560, Note_on_c, 0, 62, 100
2, 100800, Note_on_c, 0, 62, 0
2, 100800, Note_on_c, 0, 66, 100
2, 101280, Note_on_c, 0, 66, 0
2, 101280, Note_on_c, 0, 66, 100
2, 101760, Note_on_c, 0, 66, 0
2, 101760, Note_on_c, 0, 66, 100
2, 102000, Note_on_c, 0, 66, 0
2, 102000, Note_on_c, 0, 69, 100
2, 102240, Note_on_c, 0, 69, 0
2, 102240, Note_on_c, 0, 67, 100
2, 102480, Note_on_c, 0, 67, 0
2, 102480, Note_on_c, 0, 66, 100
2, 102720, Note_on_c, 0, 66, 0
2, 102720, Note_on_c, 0, 64, 100
2, 102960, Note_on_c, 0, 64, 0
2, 102960, Note_on_c, 0, 62, 100
2, 103200, Note_on_c, 0, 62, 0
2, 103200, Note_on_c, 0, 61, 100
2, 103440, Note_on_c, 0, 61, 0
2, 103440, Note_on_c, 0, 59, 100
2, 103680, Note_on_c, 0, 59, 0
2, 103680, Note_on_c, 0, 61, 100
2, 103920, Note_on_c, 0, 61, 0
2, 103920, Note_on_c, 0, 71, 100
2, 104160, Note_on_c, 0, 71, 0
2, 104160, Note_on_c, 0, 69, 100
2, 104400, Note_on_c, 0, 69, 0
2, 104400, Note_on_c, 0, 67, 100
2, 104640, Note_on_c, 0, 67, 0
2, 104640, Note_on_c, 0, 66, 100
2, 104880, Note_on_c, 0, 66, 0
2, 104880, Note_on_c, 0, 64, 100
2, 105120, Note_on_c, 0, 64, 0
2, 105120, Note_on_c, 0, 62, 100
2, 105360, Note_on_c, 0, 62, 0
2, 105360, Note_on_c, 0, 61, 100
2, 105600, Note_on_c, 0, 61, 0
2, 105600, Note_on_c, 0, 59, 100
2, 105840, Note_on_c, 0, 59, 0
2, 105840, Note_on_c, 0, 57, 100
2, 106080, Note_on_c, 0, 57, 0
2, 106080, Note_on_c, 0, 69, 100
2, 106560, Note_on_c, 0, 69, 0
2, 106560, Note_on_c, 0, 66, 100
2, 107040, Note_on_c, 0, 66, 0
2, 107040, Note_on_c, 0, 64, 100
2, 107280, Note_on_c, 0, 64, 0
2, 107280, Note_on_c, 0, 62, 100
2, 107520, Note_on_c, 0, 62, 0
2, 107520, Note_on_c, 0, 62, 100
2, 108480, Note_on_c, 0, 62, 0
2, 108480, Note_on_c, 0, 66, 100
2, 108720, Note_on_c, 0, 66, 0
2, 108720, Note_on_c, 0, 64, 100
2, 108960, Note_on_c, 0, 64, 0
2, 108960, Note_on_c, 0, 66, 100
2, 109440, Note_on_c, 0, 66, 0
2, 109440, Note_on_c, 0, 57, 100
2, 109920, Note_on_c, 0, 57, 0
2, 109920, Note_on_c, 0, 57, 100
2, 110400, Note_on_c, 0, 57, 0
2, 110400, Note_on_c, 0, 59, 100
2, 110880, Note_on_c, 0, 59, 0
2, 110880, Note_on_c, 0, 61, 100
2, 111360, Note_on_c, 0, 61, 0
2, 111360, Note_on_c, 0, 62, 100
2, 111600, Note_on_c, 0, 62, 0
2, 111600, Note_on_c, 0, 61, 100
2, 111840, Note_on_c, 0, 61, 0
2, 111840, Note_on_c, 0, 62, 100
2, 112080, Note_on_c, 0, 62, 0
2, 112080, Note_on_c, 0, 64, 100
2, 112320, Note_on_c, 0, 64, 0
2, 112320, Note_on_c, 0, 62, 100
2, 112560, Note_on_c, 0, 62, 0
2, 112560, Note_on_c, 0, 64, 100
2, 112800, Note_on_c, 0, 64, 0
2, 112800, Note_on_c, 0, 66, 100
2, 113280, Note_on_c, 0, 66, 0
2, 113280, Note_on_c, 0, 57, 100
2, 113760, Note_on_c, 0, 57, 0
2, 113760, Note_on_c, 0, 57, 100
2, 114240, Note_on_c, 0, 57, 0
2, 114240, Note_on_c, 0, 59, 100
2, 114720, Note_on_c, 0, 59, 0
2, 114720, Note_on_c, 0, 61, 100
2, 115200, Note_on_c, 0, 61, 0
2, 115200, Note_on_c, 0, 62, 100
2, 116160, Note_on_c, 0, 62, 0
2, 116160, Note_on_c, 0, 66, 100
2, 116400, Note_on_c, 0, 66, 0
2, 116400, Note_on_c, 0, 64, 100
2, 116640, Note_on_c, 0, 64, 0
2, 116640, Note_on_c, 0, 66, 100
2, 117120, Note_on_c, 0, 66, 0
2, 117120, Note_on_c, 0, 57, 100
2, 117600, Note_on_c, 0, 57, 0
2, 117600, Note_on_c, 0, 57, 100
2, 118080, Note_on_c, 0, 57, 0
2, 118080, Note_on_c, 0, 59, 100
2, 118560, Note_on_c, 0, 59, 0
2, 118560, Note_on_c, 0, 61, 100
2, 119040, Note_on_c, 0, 61, 0
2, 119040, Note_on_c, 0, 62, 100
2, 119280, Note_on_c, 0, 62, 0
2, 119280, Note_on_c, 0, 61, 100
2, 119520, Note_on_c, 0, 61, 0
2, 119520, Note_on_c, 0, 62, 100
2, 119760, Note_on_c, 0, 62, 0
2, 119760, Note_on_c, 0, 64, 100
2, 120000, Note_on_c, 0, 64, 0
2, 120000, Note_on_c, 0, 62, 100
2, 120240, Note_on_c, 0, 62, 0
2, 120240, Note_on_c, 0, 64, 100
2, 120480, Note_on_c, 0, 64, 0
2, 120480, Note_on_c, 0, 66, 100
2, 120960, Note_on_c, 0, 66, 0
2, 120960, Note_on_c, 0, 57, 100
2, 121440, Note_on_c, 0, 57, 0
2, 121440, Note_on_c, 0, 57, 100
2, 121920, Note_on_c, 0, 57, 0
2, 121920, Note_on_c, 0, 59, 100
2, 122400, Note_on_c, 0, 59, 0
2, 122400, Note_on_c, 0, 61, 100
2, 122880, Note_on_c, 0, 61, 0
2, 122880, Note_on_c, 0, 62, 100
2, 123840, Note_on_c, 0, 62, 0
2, 123840, Note_on_c, 0, 57, 100
2, 124080, Note_on_c, 0, 57, 0
2, 124080, Note_on_c, 0, 55, 100
2, 124320, Note_on_c, 0, 55, 0
2, 124320, Note_on_c, 0, 57, 100
2, 124800, Note_on_c, 0, 57, 0
2, 124800, Note_on_c, 0, 59, 100
2, 125280, Note_on_c, 0, 59, 0
2, 125280, Note_on_c, 0, 62, 100
2, 125760, Note_on_c, 0, 62, 0
2, 125760, Note_on_c, 0, 62, 100
2, 126000, Note_on_c, 0, 62, 0
2, 126000, Note_on_c, 0, 60, 100
2, 126240, Note_on_c, 0, 60, 0
2, 126240, Note_on_c, 0, 59, 100
2, 126480, Note_on_c, 0, 59, 0
2, 126480, Note_on_c, 0, 57, 100
2, 126720, Note_on_c, 0, 57, 0
2, 126720, Note_on_c, 0, 59, 100
2, 127680, Note_on_c, 0, 59, 0
2, 127680, Note_on_c, 0, 57, 100
2, 128160, Note_on_c, 0, 57, 0
2, 128160, Note_on_c, 0, 62, 100
2, 128640, Note_on_c, 0, 62, 0
2, 128640, Note_on_c, 0, 59, 100
2, 129120, Note_on_c, 0, 59, 0
2, 129120, Note_on_c, 0, 62, 100
2, 129600, Note_on_c, 0, 62, 0
2, 129600, Note_on_c, 0, 61, 100
2, 129840, Note_on_c, 0, 61, 0
2, 129840, Note_on_c, 0, 59, 100
2, 130080, Note_on_c, 0, 59, 0
2, 130080, Note_on_c, 0, 61, 100
2, 130320, Note_on_c, 0, 61, 0
2, 130320, Note_on_c, 0, 62, 100
2, 130560, Note_on_c, 0, 62, 0
2, 130560, Note_on_c, 0, 64, 100
2, 131520, Note_on_c, 0, 64, 0
2, 131520, Note_on_c, 0, 66, 100
2, 131760, Note_on_c, 0, 66, 0
2, 131760, Note_on_c, 0, 64, 100
2, 132000, Note_on_c, 0, 64, 0
2, 132000, Note_on_c, 0, 66, 100
2, 132480, Note_on_c, 0, 66, 0
2, 132480, Note_on_c, 0, 57, 100
2, 132960, Note_on_c, 0, 57, 0
2, 132960, Note_on_c, 0, 57, 100
2, 133440, Note_on_c, 0, 57, 0
2, 133440, Note_on_c, 0, 59, 100
2, 133920, Note_on_c, 0, 59, 0
2, 133920, Note_on_c, 0, 61, 100
2, 134400, Note_on_c, 0, 61, 0
2, 134400, Note_on_c, 0, 62, 100
2, 134640, Note_on_c, 0, 62, 0
2, 134640, Note_on_c, 0, 61, 100
2, 134880, Note_on_c, 0, 61, 0
2, 134880, Note_on_c, 0, 62, 100
2, 135120, Note_on_c, 0, 62, 0
2, 135120, Note_on_c, 0, 64, 100
2, 135360, Note_on_c, 0, 64, 0
2, 135360, Note_on_c, 0, 62, 100
2, 135600, Note_on_c, 0, 62, 0
2, 135600, Note_on_c, 0, 64, 100
2, 135840, Note_on_c, 0, 64, 0
2, 135840, Note_on_c, 0, 66, 100
2, 136320, Note_on_c, 0, 66, 0
2, 136320, Note_on_c, 0, 57, 100
2, 136800, Note_on_c, 0, 57, 0
2, 136800, Note_on_c, 0, 57, 100
2, 137280, Note_on_c, 0, 57, 0
2, 137280, Note_on_c, 0, 59, 100
2, 137760, Note_on_c, 0, 59, 0
2, 137760, Note_on_c, 0, 61, 100
2, 138240, Note_on_c, 0, 61, 0
2, 138240, Note_on_c, 0, 62, 100
2, 139200, Note_on_c, 0, 62, 0
2, 139200, Note_on_c, 0, 62, 100
2, 139440, Note_on_c, 0, 62, 0
2, 139680, Note_on_c, 0, 62, 100
2, 139920, Note_on_c, 0, 62, 0
2, 139920, Note_on_c, 0, 64, 100
2, 140160, Note_on_c, 0, 64, 0
2, 140160, Note_on_c, 0, 66, 100
2, 140400, Note_on_c, 0, 66, 0
2, 140640, Note_on_c, 0, 67, 100
2, 140880, Note_on_c, 0, 67, 0
2, 141120, Note_on_c, 0, 66, 100
2, 141360, Note_on_c, 0, 66, 0
2, 141600, Note_on_c, 0, 64, 100
2, 141840, Note_on_c, 0, 64, 0
2, 142080, Note_on_c, 0, 66, 100
2, 142320, Note_on_c, 0, 66, 0
2, 142560, Note_on_c, 0, 69, 100
2, 142800, Note_on_c, 0, 69, 0
2, 143040, Note_on_c, 0, 67, 100
2, 143280, Note_on_c, 0, 67, 0
2, 143520, Note_on_c, 0, 64, 100
2, 143760, Note_on_c, 0, 64, 0
2, 144000, Note_on_c, 0, 66, 100
2, 144240, Note_on_c, 0, 66, 0
2, 144480, Note_on_c, 0, 64, 100
2, 144720, Note_on_c, 0, 64, 0
2, 144720, Note_on_c, 0, 62, 100
2, 144960, Note_on_c, 0, 62, 0
2, 144960, Note_on_c, 0, 61, 100
2, 145200, Note_on_c, 0, 61, 0
2, 145200, Note_on_c, 0, 62, 100
2, 145440, Note_on_c, 0, 62, 0
2, 145440, Note_on_c, 0, 64, 100
2, 145680, Note_on_c, 0, 64, 0
2, 145680, Note_on_c, 0, 61, 100
2, 145920, Note_on_c, 0, 61, 0
2, 145920, Note_on_c, 0, 62, 100
2, 146160, Note_on_c, 0, 62, 0
2, 146400, Note_on_c, 0, 62, 100
2, 146640, Note_on_c, 0, 62, 0
2, 146880, Note_on_c, 0, 62, 100
2, 147120, Note_on_c, 0, 62, 0
2, 147360, Note_on_c, 0, 62, 100
2, 147600, Note_on_c, 0, 62, 0
2, 147600, Note_on_c, 0, 64, 100
2, 147840, Note_on_c, 0, 64, 0
2, 147840, Note_on_c, 0, 66, 100
2, 148080, Note_on_c, 0, 66, 0
2, 148320, Note_on_c, 0, 67, 100
2, 148560, Note_on_c, 0, 67, 0
2, 148800, Note_on_c, 0, 66, 100
2, 149040, Note_on_c, 0, 66, 0
2, 149280, Note_on_c, 0, 64, 100
2, 149520, Note_on_c, 0, 64, 0
2, 149760, Note_on_c, 0, 66, 100
2, 150000, Note_on_c, 0, 66, 0
2, 150240, Note_on_c, 0, 69, 100
2, 150480, Note_on_c, 0, 69, 0
2, 150720, Note_on_c, 0, 67, 100
2, 150960, Note_on_c, 0, 67, 0
2, 151200, Note_on_c, 0, 64, 100
2, 151440, Note_on_c, 0, 64, 0
2, 151680, Note_on_c, 0, 66, 100
2, 151920, Note_on_c, 0, 66, 0
2, 152160, Note_on_c, 0, 64, 100
2, 152400, Note_on_c, 0, 64, 0
2, 152400, Note_on_c, 0, 62, 100
2, 152640, Note_on_c, 0, 62, 0
2, 152640, Note_on_c, 0, 61, 100
2, 152880, Note_on_c, 0, 61, 0
2, 152880, Note_on_c, 0, 62, 100
2, 153120, Note_on_c, 0, 62, 0
2, 153120, Note_on_c, 0, 64, 100
2, 153360, Note_on_c, 0, 64, 0
2, 153360, Note_on_c, 0, 61, 100
2, 153600, Note_on_c, 0, 61, 0
2, 153600, Note_on_c, 0, 57, 100
2, 154560, Note_on_c, 0, 57, 0
2, 154560, Note_on_c, 0, 66, 100
2, 154800, Note_on_c, 0, 66, 0
2, 154800, Note_on_c, 0, 64, 100
2, 155040, Note_on_c, 0, 64, 0
2, 155040, Note_on_c, 0, 66, 100
2, 155520, Note_on_c, 0, 66, 0
2, 155520, Note_on_c, 0, 57, 100
2, 156000, Note_on_c, 0, 57, 0
2, 156000, Note_on_c, 0, 57, 100
2, 156480, Note_on_c, 0, 57, 0
2, 156480, Note_on_c, 0, 59, 100
2, 156960, Note_on_c, 0, 59, 0
2, 156960, Note_on_c, 0, 61, 100
2, 157440, Note_on_c, 0, 61, 0
2, 157440, Note_on_c, 0, 62, 100
2, 157680, Note_on_c, 0, 62, 0
2, 157680, Note_on_c, 0, 61, 100
2, 157920, Note_on_c, 0, 61, 0
2, 157920, Note_on_c, 0, 62, 100
2, 158160, Note_on_c, 0, 62, 0
2, 158160, Note_on_c, 0, 64, 100
2, 158400, Note_on_c, 0, 64, 0
2, 158400, Note_on_c, 0, 62, 100
2, 158640, Note_on_c, 0, 62, 0
2, 158640, Note_on_c, 0, 64, 100
2, 158880, Note_on_c, 0, 64, 0
2, 158880, Note_on_c, 0, 66, 100
2, 159360, Note_on_c, 0, 66, 0
2, 159360, Note_on_c, 0, 57, 100
2, 159840, Note_on_c, 0, 57, 0
2, 159840, Note_on_c, 0, 57, 100
2, 160320, Note_on_c, 0, 57, 0
2, 160320, Note_on_c, 0, 59, 100
2, 160800, Note_on_c, 0, 59, 0
2, 160800, Note_on_c, 0, 61, 100
2, 161280, Note_on_c, 0, 61, 0
2, 161280, Note_on_c, 0, 62, 100
2, 162240, Note_on_c, 0, 62, 0
2, 162240, Note_on_c, 0, 57, 100
2, 162480, Note_on_c, 0, 57, 0
2, 162480, Note_on_c, 0, 55, 100
2, 162720, Note_on_c, 0, 55, 0
2, 162720, Note_on_c, 0, 57, 100
2, 163200, Note_on_c, 0, 57, 0
2, 163200, Note_on_c, 0, 59, 100
2, 163680, Note_on_c, 0, 59, 0
2, 163680, Note_on_c, 0, 62, 100
2, 164160, Note_on_c, 0, 62, 0
2, 164160, Note_on_c, 0, 62, 100
2, 164400, Note_on_c, 0, 62, 0
2, 164400, Note_on_c, 0, 60, 100
2, 164640, Note_on_c, 0, 60, 0
2, 164640, Note_on_c, 0, 59, 100
2, 164880, Note_on_c, 0, 59, 0
2, 164880, Note_on_c, 0, 57, 100
2, 165120, Note_on_c, 0, 57, 0
2, 165120, Note_on_c, 0, 59, 100
2, 166080, Note_on_c, 0, 59, 0
2, 166080, Note_on_c, 0, 57, 100
2, 166560, Note_on_c, 0, 57, 0
2, 166560, Note_on_c, 0, 62, 100
2, 167040, Note_on_c, 0, 62, 0
2, 167040, Note_on_c, 0, 59, 100
2, 167520, Note_on_c, 0, 59, 0
2, 167520, Note_on_c, 0, 62, 100
2, 168000, Note_on_c, 0, 62, 0
2, 168000, Note_on_c, 0, 61, 100
2, 168240, Note_on_c, 0, 61, 0
2, 168240, Note_on_c, 0, 59, 100
2, 168480, Note_on_c, 0, 59, 0
2, 168480, Note_on_c, 0, 61, 100
2, 168720, Note_on_c, 0, 61, 0
2, 168720, Note_on_c, 0, 62, 100
2, 168960, Note_on_c, 0, 62, 0
2, 168960, Note_on_c, 0, 64, 100
2, 169920, Note_on_c, 0, 64, 0
2, 169920, Note_on_c, 0, 66, 100
2, 170160, Note_on_c, 0, 66, 0
2, 170160, Note_on_c, 0, 64, 100
2, 170400, Note_on_c, 0, 64, 0
2, 170400, Note_on_c, 0, 66, 100
2, 170880, Note_on_c, 0, 66, 0
2, 170880, Note_on_c, 0, 57, 100
2, 171360, Note_on_c, 0, 57, 0
2, 171360, Note_on_c, 0, 57, 100
2, 171840, Note_on_c, 0, 57, 0
2, 171840, Note_on_c, 0, 59, 100
2, 172320, Note_on_c, 0, 59, 0
2, 172320, Note_on_c, 0, 61, 100
2, 172800, Note_on_c, 0, 61, 0
2, 172800, Note_on_c, 0, 62, 100
2, 173040, Note_on_c, 0, 62, 0
2, 173040, Note_on_c, 0, 61, 100
2, 173280, Note_on_c, 0, 61, 0
2, 173280, Note_on_c, 0, 62, 100
2, 173520, Note_on_c, 0, 62, 0
2, 173520, Note_on_c, 0, 64, 100
2, 173760, Note_on_c, 0, 64, 0
2, 173760, Note_on_c, 0, 62, 100
2, 174000, Note_on_c, 0, 62, 0
2, 174000, Note_on_c, 0, 64, 100
2, 174240, Note_on_c, 0, 64, 0
2, 174240, Note_on_c, 0, 66, 100
2, 174720, Note_on_c, 0, 66, 0
2, 174720, Note_on_c, 0, 57, 100
2, 175200, Note_on_c, 0, 57, 0
2, 175200, Note_on_c, 0, 57, 100
2, 175680, Note_on_c, 0, 57, 0
2, 175680, Note_on_c, 0, 59, 100
2, 176160, Note_on_c, 0, 59, 0
2, 176160, Note_on_c, 0, 61, 100
2, 176640, Note_on_c, 0, 61, 0
2, 176640, Note_on_c, 0, 62, 100
2, 177600, Note_on_c, 0, 62, 0
2, 177600, Note_on_c, 0, 62, 100
2, 177840, Note_on_c, 0, 62, 0
2, 178080, Note_on_c, 0, 62, 100
2, 178320, Note_on_c, 0, 62, 0
2, 178320, Note_on_c, 0, 64, 100
2, 178560, Note_on_c, 0, 64, 0
2, 178560, Note_on_c, 0, 66, 100
2, 178800, Note_on_c, 0, 66, 0
2, 179040, Note_on_c, 0, 67, 100
2, 179280, Note_on_c, 0, 67, 0
2, 179520, Note_on_c, 0, 66, 100
2, 179760, Note_on_c, 0, 66, 0
2, 180000, Note_on_c, 0, 64, 100
2, 180240, Note_on_c, 0, 64, 0
2, 180480, Note_on_c, 0, 66, 100
2, 180720, Note_on_c, 0, 66, 0
2, 180960, Note_on_c, 0, 69, 100
2, 181200, Note_on_c, 0, 69, 0
2, 181440, Note_on_c, 0, 67, 100
2, 181680, Note_on_c, 0, 67, 0
2, 181920, Note_on_c, 0, 64, 100
2, 182160, Note_on_c, 0, 64, 0
2, 182400, Note_on_c, 0, 66, 100
2, 182640, Note_on_c, 0, 66, 0
2, 182880, Note_on_c, 0, 64, 100
2, 183120, Note_on_c, 0, 64, 0
2, 183120, Note_on_c, 0, 62, 100
2, 183360, Note_on_c, 0, 62, 0
2, 183360, Note_on_c, 0, 61, 100
2, 183600, Note_on_c, 0, 61, 0
2, 183600, Note_on_c, 0, 62, 100
2, 183840, Note_on_c, 0, 62, 0
2, 183840, Note_on_c, 0, 64, 100
2, 184080, Note_on_c, 0, 64, 0
2, 184080, Note_on_c, 0, 61, 100
2, 184320, Note_on_c, 0, 61, 0
2, 184320, Note_on_c, 0, 62, 100
2, 184560, Note_on_c, 0, 62, 0
2, 184800, Note_on_c, 0, 62, 100
2, 185040, Note_on_c, 0, 62, 0
2, 185280, Note_on_c, 0, 62, 100
2, 185520, Note_on_c, 0, 62, 0
2, 185760, Note_on_c, 0, 62, 100
2, 186000, Note_on_c, 0, 62, 0
2, 186000, Note_on_c, 0, 64, 100
2, 186240, Note_on_c, 0, 64, 0
2, 186240, Note_on_c, 0, 66, 100
2, 186480, Note_on_c, 0, 66, 0
2, 186720, Note_on_c, 0, 67, 100
2, 186960, Note_on_c, 0, 67, 0
2, 187200, Note_on_c, 0, 66, 100
2, 187440, Note_on_c, 0, 66, 0
2, 187680, Note_on_c, 0, 64, 100
2, 187920, Note_on_c, 0, 64, 0
2, 188160, Note_on_c, 0, 66, 100
2, 188400, Note_on_c, 0, 66, 0
2, 188640, Note_on_c, 0, 69, 100
2, 188880, Note_on_c, 0, 69, 0
2, 189120, Note_on_c, 0, 67, 100
2, 189360, Note_on_c, 0, 67, 0
2, 189600, Note_on_c, 0, 64, 100
2, 189840, Note_on_c, 0, 64, 0
2, 190080, Note_on_c, 0, 66, 100
2, 190320, Note_on_c, 0, 66, 0
2, 190560, Note_on_c, 0, 64, 100
2, 190800, Note_on_c, 0, 64, 0
2, 190800, Note_on_c, 0, 62, 100
2, 191040, Note_on_c, 0, 62, 0
2, 191040, Note_on_c, 0, 61, 100
2, 191280, Note_on_c, 0, 61, 0
2, 191280, Note_on_c, 0, 62, 100
2, 191520, Note_on_c, 0, 62, 0
2, 191520, Note_on_c, 0, 64, 100
2, 191760, Note_on_c, 0, 64, 0
2, 191760, Note_on_c, 0, 61, 100
2, 192000, Note_on_c, 0, 61, 0
2, 192000, Note_on_c, 0, 57, 100
2, 192960, Note_on_c, 0, 57, 0
2, 192960, Note_on_c, 0, 66, 100
2, 193200, Note_on_c, 0, 66, 0
2, 193200, Note_on_c, 0, 64, 100
2, 193440, Note_on_c, 0, 64, 0
2, 193440, Note_on_c, 0, 66, 100
2, 193920, Note_on_c, 0, 66, 0
2, 193920, Note_on_c, 0, 57, 100
2, 194400, Note_on_c, 0, 57, 0
2, 194400, Note_on_c, 0, 57, 100
2, 194880, Note_on_c, 0, 57, 0
2, 194880, Note_on_c, 0, 59, 100
2, 195360, Note_on_c, 0, 59, 0
2, 195360, Note_on_c, 0, 61, 100
2, 195840, Note_on_c, 0, 61, 0
2, 195840, Note_on_c, 0, 62, 100
2, 196080, Note_on_c, 0, 62, 0
2, 196080, Note_on_c, 0, 61, 100
2, 196320, Note_on_c, 0, 61, 0
2, 196320, Note_on_c, 0, 62, 100
2, 196560, Note_on_c, 0, 62, 0
2, 196560, Note_on_c, 0, 64, 100
2, 196800, Note_on_c, 0, 64, 0
2, 196800, Note_on_c, 0, 62, 100
2, 197040, Note_on_c, 0, 62, 0
2, 197040, Note_on_c, 0, 64, 100
2, 197280, Note_on_c, 0, 64, 0
2, 197280, Note_on_c, 0, 66, 100
2, 197760, Note_on_c, 0, 66, 0
2, 197760, Note_on_c, 0, 57, 100
2, 198240, Note_on_c, 0, 57, 0
2, 198240, Note_on_c, 0, 57, 100
2, 198720, Note_on_c, 0, 57, 0
2, 198720, Note_on_c, 0, 59, 100
2, 199200, Note_on_c, 0, 59, 0
2, 199200, Note_on_c, 0, 61, 100
2, 199680, Note_on_c, 0, 61, 0
2, 199680, Note_on_c, 0, 62, 100
2, 200640, Note_on_c, 0, 62, 0
2, 200640, Note_on_c, 0, 66, 100
2, 201120, Note_on_c, 0, 66, 0
2, 201120, Note_on_c, 0, 66, 100
2, 201600, Note_on_c, 0, 66, 0
2, 201600, Note_on_c, 0, 66, 100
2, 202080, Note_on_c, 0, 66, 0
2, 202080, Note_on_c, 0, 64, 100
2, 202320, Note_on_c, 0, 64, 0
2, 202320, Note_on_c, 0, 62, 100
2, 202560, Note_on_c, 0, 62, 0
2, 202560, Note_on_c, 0, 64, 100
2, 202800, Note_on_c, 0, 64, 0
2, 202800, Note_on_c, 0, 66, 100
2, 203040, Note_on_c, 0, 66, 0
2, 203040, Note_on_c, 0, 67, 100
2, 203520, Note_on_c, 0, 67, 0
2, 203520, Note_on_c, 0, 62, 100
2, 203760, Note_on_c, 0, 62, 0
2, 203760, Note_on_c, 0, 61, 100
2, 204000, Note_on_c, 0, 61, 0
2, 204000, Note_on_c, 0, 59, 100
2, 204240, Note_on_c, 0, 59, 0
2, 204240, Note_on_c, 0, 57, 100
2, 204480, Note_on_c, 0, 57, 0
2, 204480, Note_on_c, 0, 69, 100
2, 204960, Note_on_c, 0, 69, 0
2, 204960, Note_on_c, 0, 69, 100
2, 205440, Note_on_c, 0, 69, 0
2, 205440, Note_on_c, 0, 69, 100
2, 205920, Note_on_c, 0, 69, 0
2, 205920, Note_on_c, 0, 71, 100
2, 206160, Note_on_c, 0, 71, 0
2, 206160, Note_on_c, 0, 69, 100
2, 206400, Note_on_c, 0, 69, 0
2, 206400, Note_on_c, 0, 67, 100
2, 206640, Note_on_c, 0, 67, 0
2, 206640, Note_on_c, 0, 66, 100
2, 206880, Note_on_c, 0, 66, 0
2, 206880, Note_on_c, 0, 64, 100
2, 207120, Note_on_c, 0, 64, 0
2, 207120, Note_on_c, 0, 66, 100
2, 207360, Note_on_c, 0, 66, 0
2, 207360, Note_on_c, 0, 67, 100
2, 207600, Note_on_c, 0, 67, 0
2, 207600, Note_on_c, 0, 66, 100
2, 207840, Note_on_c, 0, 66, 0
2, 207840, Note_on_c, 0, 64, 100
2, 208080, Note_on_c, 0, 64, 0
2, 208080, Note_on_c, 0, 62, 100
2, 208320, Note_on_c, 0, 62, 0
2, 208320, Note_on_c, 0, 66, 100
2, 208800, Note_on_c, 0, 66, 0
2, 208800, Note_on_c, 0, 66, 100
2, 209280, Note_on_c, 0, 66, 0
2, 209280, Note_on_c, 0, 66, 100
2, 209760, Note_on_c, 0, 66, 0
2, 209760, Note_on_c, 0, 64, 100
2, 210000, Note_on_c, 0, 64, 0
2, 210000, Note_on_c, 0, 62, 100
2, 210240, Note_on_c, 0, 62, 0
2, 210240, Note_on_c, 0, 64, 100
2, 210480, Note_on_c, 0, 64, 0
2, 210480, Note_on_c, 0, 66, 100
2, 210720, Note_on_c, 0, 66, 0
2, 210720, Note_on_c, 0, 67, 100
2, 211200, Note_on_c, 0, 67, 0
2, 211200, Note_on_c, 0, 62, 100
2, 211440, Note_on_c, 0, 62, 0
2, 211440, Note_on_c, 0, 61, 100
2, 211680, Note_on_c, 0, 61, 0
2, 211680, Note_on_c, 0, 59, 100
2, 211920, Note_on_c, 0, 59, 0
2, 211920, Note_on_c, 0, 57, 100
2, 212160, Note_on_c, 0, 57, 0
2, 212160, Note_on_c, 0, 62, 100
2, 212640, Note_on_c, 0, 62, 0
2, 212640, Note_on_c, 0, 62, 100
2, 213120, Note_on_c, 0, 62, 0
2, 213120, Note_on_c, 0, 62, 100
2, 213600, Note_on_c, 0, 62, 0
2, 213600, Note_on_c, 0, 61, 100
2, 213840, Note_on_c, 0, 61, 0
2, 213840, Note_on_c, 0, 62, 100
2, 214080, Note_on_c, 0, 62, 0
2, 214080, Note_on_c, 0, 61, 100
2, 214320, Note_on_c, 0, 61, 0
2, 214320, Note_on_c, 0, 59, 100
2, 214560, Note_on_c, 0, 59, 0
2, 214560, Note_on_c, 0, 64, 100
2, 215040, Note_on_c, 0, 64, 0
2, 215040, Note_on_c, 0, 61, 100
2, 216000, Note_on_c, 0, 61, 0
2, 216000, Note_on_c, 0, 69, 100
2, 216480, Note_on_c, 0, 69, 0
2, 216480, Note_on_c, 0, 69, 100
2, 216960, Note_on_c, 0, 69, 0
2, 216960, Note_on_c, 0, 69, 100
2, 217440, Note_on_c, 0, 69, 0
2, 217440, Note_on_c, 0, 71, 100
2, 217680, Note_on_c, 0, 71, 0
2, 217680, Note_on_c, 0, 69, 100
2, 217920, Note_on_c, 0, 69, 0
2, 217920, Note_on_c, 0, 67, 100
2, 218160, Note_on_c, 0, 67, 0
2, 218160, Note_on_c, 0, 66, 100
2, 218400, Note_on_c, 0, 66, 0
2, 218400, Note_on_c, 0, 71, 100
2, 218880, Note_on_c, 0, 71, 0
2, 218880, Note_on_c, 0, 69, 100
2, 219120, Note_on_c, 0, 69, 0
2, 219120, Note_on_c, 0, 67, 100
2, 219360, Note_on_c, 0, 67, 0
2, 219360, Note_on_c, 0, 66, 100
2, 219600, Note_on_c, 0, 66, 0
2, 219600, Note_on_c, 0, 64, 100
2, 219840, Note_on_c, 0, 64, 0
2, 219840, Note_on_c, 0, 57, 100
2, 220080, Note_on_c, 0, 57, 0
2, 220080, Note_on_c, 0, 67, 100
2, 220320, Note_on_c, 0, 67, 0
2, 220320, Note_on_c, 0, 66, 100
2, 220560, Note_on_c, 0, 66, 0
2, 220560, Note_on_c, 0, 64, 100
2, 220800, Note_on_c, 0, 64, 0
2, 220800, Note_on_c, 0, 55, 100
2, 221040, Note_on_c, 0, 55, 0
2, 221040, Note_on_c, 0, 63, 100
2, 221280, Note_on_c, 0, 63, 0
2, 221280, Note_on_c, 0, 64, 100
2, 221520, Note_on_c, 0, 64, 0
2, 221520, Note_on_c, 0, 67, 100
2, 221760, Note_on_c, 0, 67, 0
2, 221760, Note_on_c, 0, 57, 100
2, 222000, Note_on_c, 0, 57, 0
2, 222000, Note_on_c, 0, 66, 100
2, 222240, Note_on_c, 0, 66, 0
2, 222240, Note_on_c, 0, 59, 100
2, 222480, Note_on_c, 0, 59, 0
2, 222480, Note_on_c, 0, 63, 100
2, 222720, Note_on_c, 0, 63, 0
2, 222720, Note_on_c, 0, 52, 100
2, 222960, Note_on_c, 0, 52, 0
2, 222960, Note_on_c, 0, 59, 100
2, 223200, Note_on_c, 0, 59, 0
2, 223200, Note_on_c, 0, 64, 100
2, 223440, Note_on_c, 0, 64, 0
2, 223440, Note_on_c, 0, 66, 100
2, 223680, Note_on_c, 0, 66, 0
2, 223680, Note_on_c, 0, 67, 100
2, 224160, Note_on_c, 0, 67, 0
2, 224160, Note_on_c, 0, 67, 100
2, 224640, Note_on_c, 0, 67, 0
2, 224640, Note_on_c, 0, 49, 100
2, 224880, Note_on_c, 0, 49, 0
2, 224880, Note_on_c, 0, 52, 100
2, 225120, Note_on_c, 0, 52, 0
2, 225120, Note_on_c, 0, 57, 100
2, 225360, Note_on_c, 0, 57, 0
2, 225360, Note_on_c, 0, 59, 100
2, 225600, Note_on_c, 0, 59, 0
2, 225600, Note_on_c, 0, 61, 100
2, 225840, Note_on_c, 0, 61, 0
2, 225840, Note_on_c, 0, 62, 100
2, 226080, Note_on_c, 0, 62, 0
2, 226080, Note_on_c, 0, 64, 100
2, 226320, Note_on_c, 0, 64, 0
2, 226320, Note_on_c, 0, 66, 100
2, 226560, Note_on_c, 0, 66, 0
2, 226560, Note_on_c, 0, 67, 100
2, 226800, Note_on_c, 0, 67, 0
2, 226800, Note_on_c, 0, 66, 100
2, 227040, Note_on_c, 0, 66, 0
2, 227040, Note_on_c, 0, 64, 100
2, 227280, Note_on_c, 0, 64, 0
2, 227280, Note_on_c, 0, 62, 100
2, 227520, Note_on_c, 0, 62, 0
2, 227520, Note_on_c, 0, 61, 100
2, 227760, Note_on_c, 0, 61, 0
2, 227760, Note_on_c, 0, 62, 100
2, 228000, Note_on_c, 0, 62, 0
2, 228000, Note_on_c, 0, 64, 100
2, 228240, Note_on_c, 0, 64, 0
2, 228240, Note_on_c, 0, 59, 100
2, 228480, Note_on_c, 0, 59, 0
2, 228480, Note_on_c, 0, 58, 100
2, 228720, Note_on_c, 0, 58, 0
2, 228720, Note_on_c, 0, 64, 100
2, 228960, Note_on_c, 0, 64, 0
2, 228960, Note_on_c, 0, 59, 100
2, 229200, Note_on_c, 0, 59, 0
2, 229200, Note_on_c, 0, 62, 100
2, 229440, Note_on_c, 0, 62, 0
2, 229440, Note_on_c, 0, 52, 100
2, 229680, Note_on_c, 0, 52, 0
2, 229680, Note_on_c, 0, 61, 100
2, 229920, Note_on_c, 0, 61, 0
2, 229920, Note_on_c, 0, 54, 100
2, 230160, Note_on_c, 0, 54, 0
2, 230160, Note_on_c, 0, 58, 100
2, 230400, Note_on_c, 0, 58, 0
2, 230400, Note_on_c, 0, 59, 100
2, 231360, Note_on_c, 0, 59, 0
2, 231360, Note_on_c, 0, 62, 100
2, 231840, Note_on_c, 0, 62, 0
2, 231840, Note_on_c, 0, 62, 100
2, 232320, Note_on_c, 0, 62, 0
2, 232320, Note_on_c, 0, 62, 100
2, 232800, Note_on_c, 0, 62, 0
2, 232800, Note_on_c, 0, 61, 100
2, 233040, Note_on_c, 0, 61, 0
2, 233040, Note_on_c, 0, 59, 100
2, 233280, Note_on_c, 0, 59, 0
2, 233280, Note_on_c, 0, 61, 100
2, 233520, Note_on_c, 0, 61, 0
2, 233520, Note_on_c, 0, 62, 100
2, 233760, Note_on_c, 0, 62, 0
2, 233760, Note_on_c, 0, 64, 100
2, 234240, Note_on_c, 0, 64, 0
2, 234240, Note_on_c, 0, 62, 100
2, 234480, Note_on_c, 0, 62, 0
2, 234480, Note_on_c, 0, 61, 100
2, 234720, Note_on_c, 0, 61, 0
2, 234720, Note_on_c, 0, 59, 100
2, 234960, Note_on_c, 0, 59, 0
2, 234960, Note_on_c, 0, 57, 100
2, 235200, Note_on_c, 0, 57, 0
2, 235200, Note_on_c, 0, 59, 100
2, 235440, Note_on_c, 0, 59, 0
2, 235440, Note_on_c, 0, 61, 100
2, 235680, Note_on_c, 0, 61, 0
2, 235680, Note_on_c, 0, 62, 100
2, 235920, Note_on_c, 0, 62, 0
2, 235920, Note_on_c, 0, 61, 100
2, 236160, Note_on_c, 0, 61, 0
2, 236160, Note_on_c, 0, 64, 100
2, 236400, Note_on_c, 0, 64, 0
2, 236400, Note_on_c, 0, 62, 100
2, 236640, Note_on_c, 0, 62, 0
2, 236640, Note_on_c, 0, 66, 100
2, 236880, Note_on_c, 0, 66, 0
2, 236880, Note_on_c, 0, 64, 100
2, 237120, Note_on_c, 0, 64, 0
2, 237120, Note_on_c, 0, 67, 100
2, 237360, Note_on_c, 0, 67, 0
2, 237360, Note_on_c, 0, 66, 100
2, 237600, Note_on_c, 0, 66, 0
2, 237600, Note_on_c, 0, 69, 100
2, 238080, Note_on_c, 0, 69, 0
2, 238080, Pitch_bend_c, 0, 16383
2, 238080, Note_on_c, 0, 64, 100
2, 238320, Pitch_bend_c, 0, 8192
2, 239040, Note_on_c, 0, 64, 0
2, 239040, Note_on_c, 0, 66, 100
2, 239520, Note_on_c, 0, 66, 0
2, 239520, Note_on_c, 0, 66, 100
2, 240000, Note_on_c, 0, 66, 0
2, 240000, Note_on_c, 0, 66, 100
2, 240480, Note_on_c, 0, 66, 0
2, 240480, Note_on_c, 0, 64, 100
2, 240720, Note_on_c, 0, 64, 0
2, 240720, Note_on_c, 0, 62, 100
2, 240960, Note_on_c, 0, 62, 0
2, 240960, Note_on_c, 0, 64, 100
2, 241200, Note_on_c, 0, 64, 0
2, 241200, Note_on_c, 0, 66, 100
2, 241440, Note_on_c, 0, 66, 0
2, 241440, Note_on_c, 0, 67, 100
2, 241920, Note_on_c, 0, 67, 0
2, 241920, Note_on_c, 0, 62, 100
2, 242160, Note_on_c, 0, 62, 0
2, 242160, Note_on_c, 0, 61, 100
2, 242400, Note_on_c, 0, 61, 0
2, 242400, Note_on_c, 0, 59, 100
2, 242640, Note_on_c, 0, 59, 0
2, 242640, Note_on_c, 0, 57, 100
2, 242880, Note_on_c, 0, 57, 0
2, 242880, Note_on_c, 0, 69, 100
2, 243360, Note_on_c, 0, 69, 0
2, 243360, Note_on_c, 0, 69, 100
2, 243840, Note_on_c, 0, 69, 0
2, 243840, Note_on_c, 0, 69, 100
2, 244320, Note_on_c, 0, 69, 0
2, 244320, Note_on_c, 0, 71, 100
2, 244560, Note_on_c, 0, 71, 0
2, 244560, Note_on_c, 0, 69, 100
2, 244800, Note_on_c, 0, 69, 0
2, 244800, Note_on_c, 0, 67, 100
2, 245040, Note_on_c, 0, 67, 0
2, 245040, Note_on_c, 0, 66, 100
2, 245280, Note_on_c, 0, 66, 0
2, 245280, Note_on_c, 0, 64, 100
2, 245520, Note_on_c, 0, 64, 0
2, 245520, Note_on_c, 0, 66, 100
2, 245760, Note_on_c, 0, 66, 0
2, 245760, Note_on_c, 0, 67, 100
2, 246000, Note_on_c, 0, 67, 0
2, 246000, Note_on_c, 0, 66, 100
2, 246240, Note_on_c, 0, 66, 0
2, 246240, Note_on_c, 0, 64, 100
2, 246480, Note_on_c, 0, 64, 0
2, 246480, Note_on_c, 0, 62, 100
2, 246720, Note_on_c, 0, 62, 0
2, 246720, Note_on_c, 0, 66, 100
2, 247200, Note_on_c, 0, 66, 0
2, 247200, Note_on_c, 0, 66, 100
2, 247680, Note_on_c, 0, 66, 0
2, 247680, Note_on_c, 0, 66, 100
2, 247920, Note_on_c, 0, 66, 0
2, 247920, Note_on_c, 0, 69, 100
2, 248160, Note_on_c, 0, 69, 0
2, 248160, Note_on_c, 0, 67, 100
2, 248400, Note_on_c, 0, 67, 0
2, 248400, Note_on_c, 0, 66, 100
2, 248640, Note_on_c, 0, 66, 0
2, 248640, Note_on_c, 0, 64, 100
2, 248880, Note_on_c, 0, 64, 0
2, 248880, Note_on_c, 0, 62, 100
2, 249120, Note_on_c, 0, 62, 0
2, 249120, Note_on_c, 0, 61, 100
2, 249360, Note_on_c, 0, 61, 0
2, 249360, Note_on_c, 0, 59, 100
2, 249600, Note_on_c, 0, 59, 0
2, 249600, Note_on_c, 0, 61, 100
2, 249840, Note_on_c, 0, 61, 0
2, 249840, Note_on_c, 0, 71, 100
2, 250080, Note_on_c, 0, 71, 0
2, 250080, Note_on_c, 0, 69, 100
2, 250320, Note_on_c, 0, 69, 0
2, 250320, Note_on_c, 0, 67, 100
2, 250560, Note_on_c, 0, 67, 0
2, 250560, Note_on_c, 0, 66, 100
2, 250800, Note_on_c, 0, 66, 0
2, 250800, Note_on_c, 0, 64, 100
2, 251040, Note_on_c, 0, 64, 0
2, 251040, Note_on_c, 0, 62, 100
2, 251280, Note_on_c, 0, 62, 0
2, 251280, Note_on_c, 0, 61, 100
2, 251520, Note_on_c, 0, 61, 0
2, 251520, Note_on_c, 0, 59, 100
2, 251760, Note_on_c, 0, 59, 0
2, 251760, Note_on_c, 0, 57, 100
2, 252000, Note_on_c, 0, 57, 0
2, 252000, Note_on_c, 0, 69, 100
2, 252480, Note_on_c, 0, 69, 0
2, 252480, Note_on_c, 0, 66, 100
2, 252960, Note_on_c, 0, 66, 0
2, 252960, Note_on_c, 0, 64, 100
2, 253200, Note_on_c, 0, 64, 0
2, 253200, Note_on_c, 0, 62, 100
2, 253440, Note_on_c, 0, 62, 0
2, 253440, Note_on_c, 0, 62, 100
2, 254400, Note_on_c, 0, 62, 0
2, 254400, End_track
3, 0, Start_track
3, 0, MIDI_port, 0
3, 0, Title_t, "--------------------------------------"
3, 0, Program_c, 1, 42
3, 0, Control_c, 1, 7, 100
3, 0, Control_c, 1, 10, 69
3, 960, Note_on_c, 1, 57, 100
3, 1440, Note_on_c, 1, 57, 0
3, 1920, Note_on_c, 1, 59, 100
3, 2400, Note_on_c, 1, 59, 0
3, 2880, Note_on_c, 1, 59, 100
3, 3360, Note_on_c, 1, 59, 0
3, 4800, Note_on_c, 1, 61, 100
3, 5280, Note_on_c, 1, 61, 0
3, 5760, Note_on_c, 1, 62, 100
3, 6240, Note_on_c, 1, 62, 0
3, 7680, Note_on_c, 1, 57, 100
3, 8160, Note_on_c, 1, 57, 0
3, 8640, Note_on_c, 1, 57, 100
3, 9120, Note_on_c, 1, 57, 0
3, 9600, Note_on_c, 1, 59, 100
3, 10080, Note_on_c, 1, 59, 0
3, 10560, Note_on_c, 1, 59, 100
3, 11040, Note_on_c, 1, 59, 0
3, 12480, Note_on_c, 1, 54, 100
3, 12960, Note_on_c, 1, 54, 0
3, 13440, Note_on_c, 1, 52, 100
3, 13920, Note_on_c, 1, 52, 0
3, 14400, Note_on_c, 1, 52, 100
3, 14880, Note_on_c, 1, 52, 0
3, 15360, Note_on_c, 1, 52, 100
3, 16320, Note_on_c, 1, 52, 0
3, 16320, Note_on_c, 1, 57, 100
3, 16800, Note_on_c, 1, 57, 0
3, 17280, Note_on_c, 1, 59, 100
3, 17760, Note_on_c, 1, 59, 0
3, 18240, Note_on_c, 1, 59, 100
3, 18720, Note_on_c, 1, 59, 0
3, 20160, Note_on_c, 1, 61, 100
3, 20640, Note_on_c, 1, 61, 0
3, 21120, Note_on_c, 1, 62, 100
3, 21600, Note_on_c, 1, 62, 0
3, 23040, Note_on_c, 1, 57, 100
3, 23520, Note_on_c, 1, 57, 0
3, 24000, Note_on_c, 1, 57, 100
3, 24480, Note_on_c, 1, 57, 0
3, 24960, Note_on_c, 1, 59, 100
3, 25440, Note_on_c, 1, 59, 0
3, 25920, Note_on_c, 1, 59, 100
3, 26400, Note_on_c, 1, 59, 0
3, 27840, Note_on_c, 1, 54, 100
3, 28320, Note_on_c, 1, 54, 0
3, 28800, Note_on_c, 1, 52, 100
3, 29280, Note_on_c, 1, 52, 0
3, 29760, Note_on_c, 1, 52, 100
3, 30240, Note_on_c, 1, 52, 0
3, 30720, Note_on_c, 1, 52, 100
3, 31680, Note_on_c, 1, 52, 0
3, 31680, Note_on_c, 1, 61, 100
3, 32160, Note_on_c, 1, 61, 0
3, 32640, Note_on_c, 1, 63, 100
3, 33120, Note_on_c, 1, 63, 0
3, 33600, Note_on_c, 1, 59, 100
3, 34080, Note_on_c, 1, 59, 0
3, 34560, Note_on_c, 1, 59, 100
3, 35040, Note_on_c, 1, 59, 0
3, 39360, Note_on_c, 1, 59, 100
3, 39840, Note_on_c, 1, 59, 0
3, 39840, Note_on_c, 1, 59, 100
3, 40320, Note_on_c, 1, 59, 0
3, 42240, Note_on_c, 1, 57, 100
3, 42720, Note_on_c, 1, 57, 0
3, 46080, Note_on_c, 1, 54, 100
3, 47040, Note_on_c, 1, 54, 0
3, 47040, Note_on_c, 1, 54, 100
3, 47520, Note_on_c, 1, 54, 0
3, 47520, Note_on_c, 1, 54, 100
3, 48000, Note_on_c, 1, 54, 0
3, 48000, Note_on_c, 1, 52, 100
3, 48480, Note_on_c, 1, 52, 0
3, 49920, Note_on_c, 1, 52, 100
3, 50400, Note_on_c, 1, 52, 0
3, 53760, Note_on_c, 1, 57, 100
3, 54720, Note_on_c, 1, 57, 0
3, 54720, Note_on_c, 1, 57, 100
3, 55200, Note_on_c, 1, 57, 0
3, 55680, Note_on_c, 1, 59, 100
3, 56160, Note_on_c, 1, 59, 0
3, 56640, Note_on_c, 1, 59, 100
3, 57120, Note_on_c, 1, 59, 0
3, 57600, Note_on_c, 1, 52, 100
3, 58560, Note_on_c, 1, 52, 0
3, 58560, Note_on_c, 1, 61, 100
3, 59040, Note_on_c, 1, 61, 0
3, 59520, Note_on_c, 1, 62, 100
3, 60000, Note_on_c, 1, 62, 0
3, 60480, Note_on_c, 1, 57, 100
3, 60960, Note_on_c, 1, 57, 0
3, 61440, Note_on_c, 1, 57, 100
3, 61920, Note_on_c, 1, 57, 0
3, 62400, Note_on_c, 1, 59, 100
3, 62880, Note_on_c, 1, 59, 0
3, 63360, Note_on_c, 1, 59, 100
3, 63840, Note_on_c, 1, 59, 0
3, 65280, Note_on_c, 1, 52, 100
3, 65520, Note_on_c, 1, 52, 0
3, 67680, Note_on_c, 1, 62, 100
3, 68160, Note_on_c, 1, 62, 0
3, 68160, Note_on_c, 1, 57, 100
3, 69120, Note_on_c, 1, 57, 0
3, 69120, Note_on_c, 1, 54, 100
3, 70080, Note_on_c, 1, 54, 0
3, 70080, Note_on_c, 1, 61, 100
3, 70560, Note_on_c, 1, 61, 0
3, 71040, Note_on_c, 1, 63, 100
3, 71520, Note_on_c, 1, 63, 0
3, 72000, Note_on_c, 1, 59, 100
3, 72480, Note_on_c, 1, 59, 0
3, 72960, Note_on_c, 1, 59, 100
3, 73440, Note_on_c, 1, 59, 0
3, 77760, Note_on_c, 1, 59, 100
3, 78240, Note_on_c, 1, 59, 0
3, 78240, Note_on_c, 1, 59, 100
3, 78720, Note_on_c, 1, 59, 0
3, 80640, Note_on_c, 1, 57, 100
3, 81120, Note_on_c, 1, 57, 0
3, 84480, Note_on_c, 1, 54, 100
3, 85440, Note_on_c, 1, 54, 0
3, 85440, Note_on_c, 1, 54, 100
3, 85920, Note_on_c, 1, 54, 0
3, 85920, Note_on_c, 1, 54, 100
3, 86400, Note_on_c, 1, 54, 0
3, 86400, Note_on_c, 1, 52, 100
3, 86880, Note_on_c, 1, 52, 0
3, 88320, Note_on_c, 1, 52, 100
3, 88800, Note_on_c, 1, 52, 0
3, 92160, Note_on_c, 1, 57, 100
3, 93120, Note_on_c, 1, 57, 0
3, 93120, Note_on_c, 1, 57, 100
3, 93600, Note_on_c, 1, 57, 0
3, 94080, Note_on_c, 1, 59, 100
3, 94560, Note_on_c, 1, 59, 0
3, 95040, Note_on_c, 1, 59, 100
3, 95520, Note_on_c, 1, 59, 0
3, 96000, Note_on_c, 1, 52, 100
3, 96960, Note_on_c, 1, 52, 0
3, 96960, Note_on_c, 1, 61, 100
3, 97440, Note_on_c, 1, 61, 0
3, 97920, Note_on_c, 1, 62, 100
3, 98400, Note_on_c, 1, 62, 0
3, 98880, Note_on_c, 1, 57, 100
3, 99360, Note_on_c, 1, 57, 0
3, 99840, Note_on_c, 1, 57, 100
3, 100320, Note_on_c, 1, 57, 0
3, 100800, Note_on_c, 1, 59, 100
3, 101280, Note_on_c, 1, 59, 0
3, 101760, Note_on_c, 1, 59, 100
3, 102240, Note_on_c, 1, 59, 0
3, 103680, Note_on_c, 1, 52, 100
3, 103920, Note_on_c, 1, 52, 0
3, 106080, Note_on_c, 1, 62, 100
3, 106560, Note_on_c, 1, 62, 0
3, 106560, Note_on_c, 1, 57, 100
3, 107520, Note_on_c, 1, 57, 0
3, 107520, Note_on_c, 1, 54, 100
3, 108480, Note_on_c, 1, 54, 0
3, 108480, Note_on_c, 1, 57, 100
3, 108720, Note_on_c, 1, 57, 0
3, 109920, Note_on_c, 1, 54, 100
3, 110400, Note_on_c, 1, 54, 0
3, 110400, Note_on_c, 1, 55, 100
3, 110880, Note_on_c, 1, 55, 0
3, 110880, Note_on_c, 1, 52, 100
3, 111360, Note_on_c, 1, 52, 0
3, 111360, Note_on_c, 1, 50, 100
3, 111600, Note_on_c, 1, 50, 0
3, 112320, Note_on_c, 1, 54, 100
3, 112560, Note_on_c, 1, 54, 0
3, 113760, Note_on_c, 1, 54, 100
3, 114240, Note_on_c, 1, 54, 0
3, 114240, Note_on_c, 1, 55, 100
3, 114720, Note_on_c, 1, 55, 0
3, 114720, Note_on_c, 1, 52, 100
3, 115200, Note_on_c, 1, 52, 0
3, 115200, Note_on_c, 1, 50, 100
3, 116160, Note_on_c, 1, 50, 0
3, 116160, Note_on_c, 1, 57, 100
3, 116400, Note_on_c, 1, 57, 0
3, 117600, Note_on_c, 1, 54, 100
3, 118080, Note_on_c, 1, 54, 0
3, 118080, Note_on_c, 1, 55, 100
3, 118560, Note_on_c, 1, 55, 0
3, 118560, Note_on_c, 1, 52, 100
3, 119040, Note_on_c, 1, 52, 0
3, 119040, Note_on_c, 1, 50, 100
3, 119280, Note_on_c, 1, 50, 0
3, 120000, Note_on_c, 1, 54, 100
3, 120240, Note_on_c, 1, 54, 0
3, 121440, Note_on_c, 1, 54, 100
3, 121920, Note_on_c, 1, 54, 0
3, 121920, Note_on_c, 1, 55, 100
3, 122400, Note_on_c, 1, 55, 0
3, 122400, Note_on_c, 1, 52, 100
3, 122880, Note_on_c, 1, 52, 0
3, 122880, Note_on_c, 1, 50, 100
3, 123840, Note_on_c, 1, 50, 0
3, 130560, Note_on_c, 1, 61, 100
3, 131520, Note_on_c, 1, 61, 0
3, 131520, Note_on_c, 1, 57, 100
3, 131760, Note_on_c, 1, 57, 0
3, 132960, Note_on_c, 1, 54, 100
3, 133440, Note_on_c, 1, 54, 0
3, 133440, Note_on_c, 1, 55, 100
3, 133920, Note_on_c, 1, 55, 0
3, 133920, Note_on_c, 1, 52, 100
3, 134400, Note_on_c, 1, 52, 0
3, 134400, Note_on_c, 1, 50, 100
3, 134640, Note_on_c, 1, 50, 0
3, 135360, Note_on_c, 1, 54, 100
3, 135600, Note_on_c, 1, 54, 0
3, 136800, Note_on_c, 1, 54, 100
3, 137280, Note_on_c, 1, 54, 0
3, 137280, Note_on_c, 1, 55, 100
3, 137760, Note_on_c, 1, 55, 0
3, 137760, Note_on_c, 1, 52, 100
3, 138240, Note_on_c, 1, 52, 0
3, 138240, Note_on_c, 1, 50, 100
3, 139200, Note_on_c, 1, 50, 0
3, 139200, Note_on_c, 1, 50, 100
3, 140160, Note_on_c, 1, 50, 0
3, 140160, Note_on_c, 1, 50, 100
3, 140640, Note_on_c, 1, 50, 0
3, 140640, Note_on_c, 1, 50, 100
3, 141120, Note_on_c, 1, 50, 0
3, 141120, Note_on_c, 1, 50, 100
3, 141600, Note_on_c, 1, 50, 0
3, 141600, Note_on_c, 1, 50, 100
3, 142080, Note_on_c, 1, 50, 0
3, 142080, Note_on_c, 1, 50, 100
3, 142560, Note_on_c, 1, 50, 0
3, 142560, Note_on_c, 1, 50, 100
3, 143040, Note_on_c, 1, 50, 0
3, 143040, Note_on_c, 1, 50, 100
3, 143520, Note_on_c, 1, 50, 0
3, 143520, Note_on_c, 1, 50, 100
3, 144000, Note_on_c, 1, 50, 0
3, 144000, Note_on_c, 1, 50, 100
3, 144960, Note_on_c, 1, 50, 0
3, 144960, Note_on_c, 1, 50, 100
3, 145920, Note_on_c, 1, 50, 0
3, 145920, Note_on_c, 1, 50, 100
3, 147840, Note_on_c, 1, 50, 0
3, 147840, Note_on_c, 1, 50, 100
3, 148320, Note_on_c, 1, 50, 0
3, 148320, Note_on_c, 1, 50, 100
3, 148800, Note_on_c, 1, 50, 0
3, 148800, Note_on_c, 1, 50, 100
3, 149280, Note_on_c, 1, 50, 0
3, 149280, Note_on_c, 1, 50, 100
3, 149760, Note_on_c, 1, 50, 0
3, 149760, Note_on_c, 1, 50, 100
3, 150240, Note_on_c, 1, 50, 0
3, 150240, Note_on_c, 1, 50, 100
3, 150720, Note_on_c, 1, 50, 0
3, 150720, Note_on_c, 1, 50, 100
3, 151200, Note_on_c, 1, 50, 0
3, 151200, Note_on_c, 1, 50, 100
3, 151680, Note_on_c, 1, 50, 0
3, 151680, Note_on_c, 1, 50, 100
3, 152640, Note_on_c, 1, 50, 0
3, 152640, Note_on_c, 1, 50, 100
3, 153600, Note_on_c, 1, 50, 0
3, 153600, Note_on_c, 1, 50, 100
3, 154560, Note_on_c, 1, 50, 0
3, 154560, Note_on_c, 1, 57, 100
3, 154800, Note_on_c, 1, 57, 0
3, 156000, Note_on_c, 1, 54, 100
3, 156480, Note_on_c, 1, 54, 0
3, 156480, Note_on_c, 1, 55, 100
3, 156960, Note_on_c, 1, 55, 0
3, 156960, Note_on_c, 1, 52, 100
3, 157440, Note_on_c, 1, 52, 0
3, 157440, Note_on_c, 1, 50, 100
3, 157680, Note_on_c, 1, 50, 0
3, 158400, Note_on_c, 1, 54, 100
3, 158640, Note_on_c, 1, 54, 0
3, 159840, Note_on_c, 1, 54, 100
3, 160320, Note_on_c, 1, 54, 0
3, 160320, Note_on_c, 1, 55, 100
3, 160800, Note_on_c, 1, 55, 0
3, 160800, Note_on_c, 1, 52, 100
3, 161280, Note_on_c, 1, 52, 0
3, 161280, Note_on_c, 1, 50, 100
3, 162240, Note_on_c, 1, 50, 0
3, 168960, Note_on_c, 1, 61, 100
3, 169920, Note_on_c, 1, 61, 0
3, 169920, Note_on_c, 1, 57, 100
3, 170160, Note_on_c, 1, 57, 0
3, 171360, Note_on_c, 1, 54, 100
3, 171840, Note_on_c, 1, 54, 0
3, 171840, Note_on_c, 1, 55, 100
3, 172320, Note_on_c, 1, 55, 0
3, 172320, Note_on_c, 1, 52, 100
3, 172800, Note_on_c, 1, 52, 0
3, 172800, Note_on_c, 1, 50, 100
3, 173040, Note_on_c, 1, 50, 0
3, 173760, Note_on_c, 1, 54, 100
3, 174000, Note_on_c, 1, 54, 0
3, 175200, Note_on_c, 1, 54, 100
3, 175680, Note_on_c, 1, 54, 0
3, 175680, Note_on_c, 1, 55, 100
3, 176160, Note_on_c, 1, 55, 0
3, 176160, Note_on_c, 1, 52, 100
3, 176640, Note_on_c, 1, 52, 0
3, 176640, Note_on_c, 1, 50, 100
3, 177600, Note_on_c, 1, 50, 0
3, 177600, Note_on_c, 1, 50, 100
3, 178560, Note_on_c, 1, 50, 0
3, 178560, Note_on_c, 1, 50, 100
3, 179040, Note_on_c, 1, 50, 0
3, 179040, Note_on_c, 1, 50, 100
3, 179520, Note_on_c, 1, 50, 0
3, 179520, Note_on_c, 1, 50, 100
3, 180000, Note_on_c, 1, 50, 0
3, 180000, Note_on_c, 1, 50, 100
3, 180480, Note_on_c, 1, 50, 0
3, 180480, Note_on_c, 1, 50, 100
3, 180960, Note_on_c, 1, 50, 0
3, 180960, Note_on_c, 1, 50, 100
3, 181440, Note_on_c, 1, 50, 0
3, 181440, Note_on_c, 1, 50, 100
3, 181920, Note_on_c, 1, 50, 0
3, 181920, Note_on_c, 1, 50, 100
3, 182400, Note_on_c, 1, 50, 0
3, 182400, Note_on_c, 1, 50, 100
3, 183360, Note_on_c, 1, 50, 0
3, 183360, Note_on_c, 1, 50, 100
3, 184320, Note_on_c, 1, 50, 0
3, 184320, Note_on_c, 1, 50, 100
3, 186240, Note_on_c, 1, 50, 0
3, 186240, Note_on_c, 1, 50, 100
3, 186720, Note_on_c, 1, 50, 0
3, 186720, Note_on_c, 1, 50, 100
3, 187200, Note_on_c, 1, 50, 0
3, 187200, Note_on_c, 1, 50, 100
3, 187680, Note_on_c, 1, 50, 0
3, 187680, Note_on_c, 1, 50, 100
3, 188160, Note_on_c, 1, 50, 0
3, 188160, Note_on_c, 1, 50, 100
3, 188640, Note_on_c, 1, 50, 0
3, 188640, Note_on_c, 1, 50, 100
3, 189120, Note_on_c, 1, 50, 0
3, 189120, Note_on_c, 1, 50, 100
3, 189600, Note_on_c, 1, 50, 0
3, 189600, Note_on_c, 1, 50, 100
3, 190080, Note_on_c, 1, 50, 0
3, 190080, Note_on_c, 1, 50, 100
3, 191040, Note_on_c, 1, 50, 0
3, 191040, Note_on_c, 1, 50, 100
3, 192000, Note_on_c, 1, 50, 0
3, 192000, Note_on_c, 1, 50, 100
3, 192960, Note_on_c, 1, 50, 0
3, 192960, Note_on_c, 1, 57, 100
3, 193200, Note_on_c, 1, 57, 0
3, 194400, Note_on_c, 1, 54, 100
3, 194880, Note_on_c, 1, 54, 0
3, 194880, Note_on_c, 1, 55, 100
3, 195360, Note_on_c, 1, 55, 0
3, 195360, Note_on_c, 1, 52, 100
3, 195840, Note_on_c, 1, 52, 0
3, 195840, Note_on_c, 1, 50, 100
3, 196080, Note_on_c, 1, 50, 0
3, 196800, Note_on_c, 1, 54, 100
3, 197040, Note_on_c, 1, 54, 0
3, 198240, Note_on_c, 1, 54, 100
3, 198720, Note_on_c, 1, 54, 0
3, 198720, Note_on_c, 1, 55, 100
3, 199200, Note_on_c, 1, 55, 0
3, 199200, Note_on_c, 1, 52, 100
3, 199680, Note_on_c, 1, 52, 0
3, 199680, Note_on_c, 1, 50, 100
3, 200640, Note_on_c, 1, 50, 0
3, 200640, Note_on_c, 1, 57, 100
3, 201120, Note_on_c, 1, 57, 0
3, 201600, Note_on_c, 1, 59, 100
3, 202080, Note_on_c, 1, 59, 0
3, 202560, Note_on_c, 1, 59, 100
3, 203040, Note_on_c, 1, 59, 0
3, 204480, Note_on_c, 1, 61, 100
3, 204960, Note_on_c, 1, 61, 0
3, 205440, Note_on_c, 1, 62, 100
3, 205920, Note_on_c, 1, 62, 0
3, 207360, Note_on_c, 1, 57, 100
3, 207840, Note_on_c, 1, 57, 0
3, 208320, Note_on_c, 1, 57, 100
3, 208800, Note_on_c, 1, 57, 0
3, 209280, Note_on_c, 1, 59, 100
3, 209760, Note_on_c, 1, 59, 0
3, 210240, Note_on_c, 1, 59, 100
3, 210720, Note_on_c, 1, 59, 0
3, 212160, Note_on_c, 1, 54, 100
3, 212640, Note_on_c, 1, 54, 0
3, 213120, Note_on_c, 1, 52, 100
3, 213600, Note_on_c, 1, 52, 0
3, 214080, Note_on_c, 1, 52, 100
3, 214560, Note_on_c, 1, 52, 0
3, 215040, Note_on_c, 1, 52, 100
3, 216000, Note_on_c, 1, 52, 0
3, 216000, Note_on_c, 1, 61, 100
3, 216480, Note_on_c, 1, 61, 0
3, 216960, Note_on_c, 1, 63, 100
3, 217440, Note_on_c, 1, 63, 0
3, 217920, Note_on_c, 1, 59, 100
3, 218400, Note_on_c, 1, 59, 0
3, 218880, Note_on_c, 1, 59, 100
3, 219360, Note_on_c, 1, 59, 0
3, 223680, Note_on_c, 1, 59, 100
3, 224160, Note_on_c, 1, 59, 0
3, 224160, Note_on_c, 1, 59, 100
3, 224640, Note_on_c, 1, 59, 0
3, 226560, Note_on_c, 1, 57, 100
3, 227040, Note_on_c, 1, 57, 0
3, 230400, Note_on_c, 1, 54, 100
3, 231360, Note_on_c, 1, 54, 0
3, 231360, Note_on_c, 1, 54, 100
3, 231840, Note_on_c, 1, 54, 0
3, 231840, Note_on_c, 1, 54, 100
3, 232320, Note_on_c, 1, 54, 0
3, 232320, Note_on_c, 1, 52, 100
3, 232800, Note_on_c, 1, 52, 0
3, 234240, Note_on_c, 1, 52, 100
3, 234720, Note_on_c, 1, 52, 0
3, 238080, Note_on_c, 1, 57, 100
3, 239040, Note_on_c, 1, 57, 0
3, 239040, Note_on_c, 1, 57, 100
3, 239520, Note_on_c, 1, 57, 0
3, 240000, Note_on_c, 1, 59, 100
3, 240480, Note_on_c, 1, 59, 0
3, 240960, Note_on_c, 1, 59, 100
3, 241440, Note_on_c, 1, 59, 0
3, 241920, Note_on_c, 1, 52, 100
3, 242880, Note_on_c, 1, 52, 0
3, 242880, Note_on_c, 1, 61, 100
3, 243360, Note_on_c, 1, 61, 0
3, 243840, Note_on_c, 1, 62, 100
3, 244320, Note_on_c, 1, 62, 0
3, 244800, Note_on_c, 1, 57, 100
3, 245280, Note_on_c, 1, 57, 0
3, 245760, Note_on_c, 1, 57, 100
3, 246240, Note_on_c, 1, 57, 0
3, 246720, Note_on_c, 1, 59, 100
3, 247200, Note_on_c, 1, 59, 0
3, 247680, Note_on_c, 1, 59, 100
3, 248160, Note_on_c, 1, 59, 0
3, 249600, Note_on_c, 1, 52, 100
3, 249840, Note_on_c, 1, 52, 0
3, 252000, Note_on_c, 1, 62, 100
3, 252480, Note_on_c, 1, 62, 0
3, 252480, Note_on_c, 1, 57, 100
3, 253440, Note_on_c, 1, 57, 0
3, 253440, Note_on_c, 1, 54, 100
3, 254400, Note_on_c, 1, 54, 0
3, 254400, End_track
4, 0, Start_track
4, 0, MIDI_port, 0
4, 0, Title_t, "Johann Sebastian Bach  (1685-1750)"
4, 0, Program_c, 2, 42
4, 0, Control_c, 2, 7, 100
4, 0, Control_c, 2, 10, 49
4, 960, Note_on_c, 2, 50, 100
4, 1440, Note_on_c, 2, 50, 0
4, 1920, Note_on_c, 2, 50, 100
4, 2400, Note_on_c, 2, 50, 0
4, 2880, Note_on_c, 2, 55, 100
4, 3360, Note_on_c, 2, 55, 0
4, 3840, Note_on_c, 2, 52, 100
4, 4800, Note_on_c, 2, 52, 0
4, 4800, Note_on_c, 2, 52, 100
4, 5280, Note_on_c, 2, 52, 0
4, 5760, Note_on_c, 2, 54, 100
4, 6240, Note_on_c, 2, 54, 0
4, 6720, Note_on_c, 2, 57, 100
4, 7200, Note_on_c, 2, 57, 0
4, 7680, Note_on_c, 2, 50, 100
4, 8160, Note_on_c, 2, 50, 0
4, 8640, Note_on_c, 2, 50, 100
4, 9120, Note_on_c, 2, 50, 0
4, 9600, Note_on_c, 2, 50, 100
4, 10080, Note_on_c, 2, 50, 0
4, 10560, Note_on_c, 2, 55, 100
4, 11040, Note_on_c, 2, 55, 0
4, 15360, Note_on_c, 2, 45, 100
4, 16320, Note_on_c, 2, 45, 0
4, 16320, Note_on_c, 2, 50, 100
4, 16800, Note_on_c, 2, 50, 0
4, 17280, Note_on_c, 2, 50, 100
4, 17760, Note_on_c, 2, 50, 0
4, 18240, Note_on_c, 2, 55, 100
4, 18720, Note_on_c, 2, 55, 0
4, 19200, Note_on_c, 2, 52, 100
4, 20160, Note_on_c, 2, 52, 0
4, 20160, Note_on_c, 2, 52, 100
4, 20640, Note_on_c, 2, 52, 0
4, 21120, Note_on_c, 2, 54, 100
4, 21600, Note_on_c, 2, 54, 0
4, 22080, Note_on_c, 2, 57, 100
4, 22560, Note_on_c, 2, 57, 0
4, 23040, Note_on_c, 2, 50, 100
4, 23520, Note_on_c, 2, 50, 0
4, 24000, Note_on_c, 2, 50, 100
4, 24480, Note_on_c, 2, 50, 0
4, 24960, Note_on_c, 2, 50, 100
4, 25440, Note_on_c, 2, 50, 0
4, 25920, Note_on_c, 2, 55, 100
4, 26400, Note_on_c, 2, 55, 0
4, 30720, Note_on_c, 2, 45, 100
4, 31680, Note_on_c, 2, 45, 0
4, 31680, Note_on_c, 2, 54, 100
4, 32160, Note_on_c, 2, 54, 0
4, 32640, Note_on_c, 2, 54, 100
4, 33120, Note_on_c, 2, 54, 0
4, 34560, Note_on_c, 2, 52, 100
4, 35040, Note_on_c, 2, 52, 0
4, 39360, Note_on_c, 2, 52, 100
4, 39840, Note_on_c, 2, 52, 0
4, 39840, Note_on_c, 2, 50, 100
4, 40320, Note_on_c, 2, 50, 0
4, 42240, Note_on_c, 2, 50, 100
4, 42720, Note_on_c, 2, 50, 0
4, 46080, Note_on_c, 2, 47, 100
4, 47040, Note_on_c, 2, 47, 0
4, 47040, Note_on_c, 2, 47, 100
4, 47520, Note_on_c, 2, 47, 0
4, 47520, Note_on_c, 2, 45, 100
4, 48000, Note_on_c, 2, 45, 0
4, 48000, Note_on_c, 2, 44, 100
4, 48480, Note_on_c, 2, 44, 0
4, 49920, Note_on_c, 2, 45, 100
4, 50400, Note_on_c, 2, 45, 0
4, 54720, Note_on_c, 2, 50, 100
4, 55200, Note_on_c, 2, 50, 0
4, 55680, Note_on_c, 2, 50, 100
4, 56160, Note_on_c, 2, 50, 0
4, 56640, Note_on_c, 2, 55, 100
4, 57120, Note_on_c, 2, 55, 0
4, 58560, Note_on_c, 2, 52, 100
4, 59040, Note_on_c, 2, 52, 0
4, 59520, Note_on_c, 2, 54, 100
4, 60000, Note_on_c, 2, 54, 0
4, 61440, Note_on_c, 2, 50, 100
4, 61920, Note_on_c, 2, 50, 0
4, 62400, Note_on_c, 2, 50, 100
4, 62880, Note_on_c, 2, 50, 0
4, 63360, Note_on_c, 2, 50, 100
4, 63840, Note_on_c, 2, 50, 0
4, 67680, Note_on_c, 2, 54, 100
4, 68160, Note_on_c, 2, 54, 0
4, 69120, Note_on_c, 2, 45, 100
4, 70080, Note_on_c, 2, 45, 0
4, 70080, Note_on_c, 2, 54, 100
4, 70560, Note_on_c, 2, 54, 0
4, 71040, Note_on_c, 2, 54, 100
4, 71520, Note_on_c, 2, 54, 0
4, 72960, Note_on_c, 2, 52, 100
4, 73440, Note_on_c, 2, 52, 0
4, 77760, Note_on_c, 2, 52, 100
4, 78240, Note_on_c, 2, 52, 0
4, 78240, Note_on_c, 2, 50, 100
4, 78720, Note_on_c, 2, 50, 0
4, 80640, Note_on_c, 2, 50, 100
4, 81120, Note_on_c, 2, 50, 0
4, 84480, Note_on_c, 2, 47, 100
4, 85440, Note_on_c, 2, 47, 0
4, 85440, Note_on_c, 2, 47, 100
4, 85920, Note_on_c, 2, 47, 0
4, 85920, Note_on_c, 2, 45, 100
4, 86400, Note_on_c, 2, 45, 0
4, 86400, Note_on_c, 2, 44, 100
4, 86880, Note_on_c, 2, 44, 0
4, 88320, Note_on_c, 2, 45, 100
4, 88800, Note_on_c, 2, 45, 0
4, 93120, Note_on_c, 2, 50, 100
4, 93600, Note_on_c, 2, 50, 0
4, 94080, Note_on_c, 2, 50, 100
4, 94560, Note_on_c, 2, 50, 0
4, 95040, Note_on_c, 2, 55, 100
4, 95520, Note_on_c, 2, 55, 0
4, 96960, Note_on_c, 2, 52, 100
4, 97440, Note_on_c, 2, 52, 0
4, 97920, Note_on_c, 2, 54, 100
4, 98400, Note_on_c, 2, 54, 0
4, 99840, Note_on_c, 2, 50, 100
4, 100320, Note_on_c, 2, 50, 0
4, 100800, Note_on_c, 2, 50, 100
4, 101280, Note_on_c, 2, 50, 0
4, 101760, Note_on_c, 2, 50, 100
4, 102240, Note_on_c, 2, 50, 0
4, 106080, Note_on_c, 2, 54, 100
4, 106560, Note_on_c, 2, 54, 0
4, 107520, Note_on_c, 2, 45, 100
4, 108480, Note_on_c, 2, 45, 0
4, 108480, Note_on_c, 2, 50, 100
4, 108720, Note_on_c, 2, 50, 0
4, 112320, Note_on_c, 2, 45, 100
4, 112560, Note_on_c, 2, 45, 0
4, 116160, Note_on_c, 2, 50, 100
4, 116400, Note_on_c, 2, 50, 0
4, 120000, Note_on_c, 2, 45, 100
4, 120240, Note_on_c, 2, 45, 0
4, 123840, Note_on_c, 2, 54, 100
4, 124320, Note_on_c, 2, 54, 0
4, 124320, Note_on_c, 2, 50, 100
4, 124800, Note_on_c, 2, 50, 0
4, 124800, Note_on_c, 2, 55, 100
4, 125280, Note_on_c, 2, 55, 0
4, 125280, Note_on_c, 2, 50, 100
4, 125760, Note_on_c, 2, 50, 0
4, 125760, Note_on_c, 2, 54, 100
4, 126240, Note_on_c, 2, 54, 0
4, 126240, Note_on_c, 2, 50, 100
4, 126720, Note_on_c, 2, 50, 0
4, 126720, Note_on_c, 2, 55, 100
4, 127200, Note_on_c, 2, 55, 0
4, 127200, Note_on_c, 2, 50, 100
4, 127680, Note_on_c, 2, 50, 0
4, 127680, Note_on_c, 2, 54, 100
4, 128160, Note_on_c, 2, 54, 0
4, 128160, Note_on_c, 2, 50, 100
4, 128640, Note_on_c, 2, 50, 0
4, 128640, Note_on_c, 2, 55, 100
4, 129120, Note_on_c, 2, 55, 0
4, 129120, Note_on_c, 2, 54, 100
4, 129600, Note_on_c, 2, 54, 0
4, 129600, Note_on_c, 2, 52, 100
4, 130080, Note_on_c, 2, 52, 0
4, 130080, Note_on_c, 2, 50, 100
4, 130560, Note_on_c, 2, 50, 0
4, 130560, Note_on_c, 2, 50, 100
4, 131520, Note_on_c, 2, 50, 0
4, 131520, Note_on_c, 2, 50, 100
4, 131760, Note_on_c, 2, 50, 0
4, 135360, Note_on_c, 2, 45, 100
4, 135600, Note_on_c, 2, 45, 0
4, 139440, Note_on_c, 2, 57, 100
4, 139680, Note_on_c, 2, 57, 0
4, 140400, Note_on_c, 2, 57, 100
4, 140640, Note_on_c, 2, 57, 0
4, 140880, Note_on_c, 2, 57, 100
4, 141120, Note_on_c, 2, 57, 0
4, 141360, Note_on_c, 2, 57, 100
4, 141600, Note_on_c, 2, 57, 0
4, 141840, Note_on_c, 2, 57, 100
4, 142080, Note_on_c, 2, 57, 0
4, 142320, Note_on_c, 2, 57, 100
4, 142560, Note_on_c, 2, 57, 0
4, 142800, Note_on_c, 2, 57, 100
4, 143040, Note_on_c, 2, 57, 0
4, 143280, Note_on_c, 2, 57, 100
4, 143520, Note_on_c, 2, 57, 0
4, 143760, Note_on_c, 2, 57, 100
4, 144000, Note_on_c, 2, 57, 0
4, 144240, Note_on_c, 2, 57, 100
4, 144480, Note_on_c, 2, 57, 0
4, 146160, Note_on_c, 2, 57, 100
4, 146400, Note_on_c, 2, 57, 0
4, 146640, Note_on_c, 2, 57, 100
4, 146880, Note_on_c, 2, 57, 0
4, 147120, Note_on_c, 2, 57, 100
4, 147360, Note_on_c, 2, 57, 0
4, 148080, Note_on_c, 2, 57, 100
4, 148320, Note_on_c, 2, 57, 0
4, 148560, Note_on_c, 2, 57, 100
4, 148800, Note_on_c, 2, 57, 0
4, 149040, Note_on_c, 2, 57, 100
4, 149280, Note_on_c, 2, 57, 0
4, 149520, Note_on_c, 2, 57, 100
4, 149760, Note_on_c, 2, 57, 0
4, 150000, Note_on_c, 2, 57, 100
4, 150240, Note_on_c, 2, 57, 0
4, 150480, Note_on_c, 2, 57, 100
4, 150720, Note_on_c, 2, 57, 0
4, 150960, Note_on_c, 2, 57, 100
4, 151200, Note_on_c, 2, 57, 0
4, 151440, Note_on_c, 2, 57, 100
4, 151680, Note_on_c, 2, 57, 0
4, 151920, Note_on_c, 2, 57, 100
4, 152160, Note_on_c, 2, 57, 0
4, 154560, Note_on_c, 2, 50, 100
4, 154800, Note_on_c, 2, 50, 0
4, 158400, Note_on_c, 2, 45, 100
4, 158640, Note_on_c, 2, 45, 0
4, 162240, Note_on_c, 2, 54, 100
4, 162720, Note_on_c, 2, 54, 0
4, 162720, Note_on_c, 2, 50, 100
4, 163200, Note_on_c, 2, 50, 0
4, 163200, Note_on_c, 2, 55, 100
4, 163680, Note_on_c, 2, 55, 0
4, 163680, Note_on_c, 2, 50, 100
4, 164160, Note_on_c, 2, 50, 0
4, 164160, Note_on_c, 2, 54, 100
4, 164640, Note_on_c, 2, 54, 0
4, 164640, Note_on_c, 2, 50, 100
4, 165120, Note_on_c, 2, 50, 0
4, 165120, Note_on_c, 2, 55, 100
4, 165600, Note_on_c, 2, 55, 0
4, 165600, Note_on_c, 2, 50, 100
4, 166080, Note_on_c, 2, 50, 0
4, 166080, Note_on_c, 2, 54, 100
4, 166560, Note_on_c, 2, 54, 0
4, 166560, Note_on_c, 2, 50, 100
4, 167040, Note_on_c, 2, 50, 0
4, 167040, Note_on_c, 2, 55, 100
4, 167520, Note_on_c, 2, 55, 0
4, 167520, Note_on_c, 2, 54, 100
4, 168000, Note_on_c, 2, 54, 0
4, 168000, Note_on_c, 2, 52, 100
4, 168480, Note_on_c, 2, 52, 0
4, 168480, Note_on_c, 2, 50, 100
4, 168960, Note_on_c, 2, 50, 0
4, 168960, Note_on_c, 2, 50, 100
4, 169920, Note_on_c, 2, 50, 0
4, 169920, Note_on_c, 2, 50, 100
4, 170160, Note_on_c, 2, 50, 0
4, 173760, Note_on_c, 2, 45, 100
4, 174000, Note_on_c, 2, 45, 0
4, 177840, Note_on_c, 2, 57, 100
4, 178080, Note_on_c, 2, 57, 0
4, 178800, Note_on_c, 2, 57, 100
4, 179040, Note_on_c, 2, 57, 0
4, 179280, Note_on_c, 2, 57, 100
4, 179520, Note_on_c, 2, 57, 0
4, 179760, Note_on_c, 2, 57, 100
4, 180000, Note_on_c, 2, 57, 0
4, 180240, Note_on_c, 2, 57, 100
4, 180480, Note_on_c, 2, 57, 0
4, 180720, Note_on_c, 2, 57, 100
4, 180960, Note_on_c, 2, 57, 0
4, 181200, Note_on_c, 2, 57, 100
4, 181440, Note_on_c, 2, 57, 0
4, 181680, Note_on_c, 2, 57, 100
4, 181920, Note_on_c, 2, 57, 0
4, 182160, Note_on_c, 2, 57, 100
4, 182400, Note_on_c, 2, 57, 0
4, 182640, Note_on_c, 2, 57, 100
4, 182880, Note_on_c, 2, 57, 0
4, 184560, Note_on_c, 2, 57, 100
4, 184800, Note_on_c, 2, 57, 0
4, 185040, Note_on_c, 2, 57, 100
4, 185280, Note_on_c, 2, 57, 0
4, 185520, Note_on_c, 2, 57, 100
4, 185760, Note_on_c, 2, 57, 0
4, 186480, Note_on_c, 2, 57, 100
4, 186720, Note_on_c, 2, 57, 0
4, 186960, Note_on_c, 2, 57, 100
4, 187200, Note_on_c, 2, 57, 0
4, 187440, Note_on_c, 2, 57, 100
4, 187680, Note_on_c, 2, 57, 0
4, 187920, Note_on_c, 2, 57, 100
4, 188160, Note_on_c, 2, 57, 0
4, 188400, Note_on_c, 2, 57, 100
4, 188640, Note_on_c, 2, 57, 0
4, 188880, Note_on_c, 2, 57, 100
4, 189120, Note_on_c, 2, 57, 0
4, 189360, Note_on_c, 2, 57, 100
4, 189600, Note_on_c, 2, 57, 0
4, 189840, Note_on_c, 2, 57, 100
4, 190080, Note_on_c, 2, 57, 0
4, 190320, Note_on_c, 2, 57, 100
4, 190560, Note_on_c, 2, 57, 0
4, 192960, Note_on_c, 2, 50, 100
4, 193200, Note_on_c, 2, 50, 0
4, 196800, Note_on_c, 2, 45, 100
4, 197040, Note_on_c, 2, 45, 0
4, 200640, Note_on_c, 2, 50, 100
4, 201120, Note_on_c, 2, 50, 0
4, 201600, Note_on_c, 2, 50, 100
4, 202080, Note_on_c, 2, 50, 0
4, 202560, Note_on_c, 2, 55, 100
4, 203040, Note_on_c, 2, 55, 0
4, 203520, Note_on_c, 2, 52, 100
4, 204480, Note_on_c, 2, 52, 0
4, 204480, Note_on_c, 2, 52, 100
4, 204960, Note_on_c, 2, 52, 0
4, 205440, Note_on_c, 2, 54, 100
4, 205920, Note_on_c, 2, 54, 0
4, 206400, Note_on_c, 2, 57, 100
4, 206880, Note_on_c, 2, 57, 0
4, 207360, Note_on_c, 2, 50, 100
4, 207840, Note_on_c, 2, 50, 0
4, 208320, Note_on_c, 2, 50, 100
4, 208800, Note_on_c, 2, 50, 0
4, 209280, Note_on_c, 2, 50, 100
4, 209760, Note_on_c, 2, 50, 0
4, 210240, Note_on_c, 2, 55, 100
4, 210720, Note_on_c, 2, 55, 0
4, 215040, Note_on_c, 2, 45, 100
4, 216000, Note_on_c, 2, 45, 0
4, 216000, Note_on_c, 2, 54, 100
4, 216480, Note_on_c, 2, 54, 0
4, 216960, Note_on_c, 2, 54, 100
4, 217440, Note_on_c, 2, 54, 0
4, 218880, Note_on_c, 2, 52, 100
4, 219360, Note_on_c, 2, 52, 0
4, 223680, Note_on_c, 2, 52, 100
4, 224160, Note_on_c, 2, 52, 0
4, 224160, Note_on_c, 2, 50, 100
4, 224640, Note_on_c, 2, 50, 0
4, 226560, Note_on_c, 2, 50, 100
4, 227040, Note_on_c, 2, 50, 0
4, 230400, Note_on_c, 2, 47, 100
4, 231360, Note_on_c, 2, 47, 0
4, 231360, Note_on_c, 2, 47, 100
4, 231840, Note_on_c, 2, 47, 0
4, 231840, Note_on_c, 2, 45, 100
4, 232320, Note_on_c, 2, 45, 0
4, 232320, Note_on_c, 2, 44, 100
4, 232800, Note_on_c, 2, 44, 0
4, 234240, Note_on_c, 2, 45, 100
4, 234720, Note_on_c, 2, 45, 0
4, 239040, Note_on_c, 2, 50, 100
4, 239520, Note_on_c, 2, 50, 0
4, 240000, Note_on_c, 2, 50, 100
4, 240480, Note_on_c, 2, 50, 0
4, 240960, Note_on_c, 2, 55, 100
4, 241440, Note_on_c, 2, 55, 0
4, 242880, Note_on_c, 2, 52, 100
4, 243360, Note_on_c, 2, 52, 0
4, 243840, Note_on_c, 2, 54, 100
4, 244320, Note_on_c, 2, 54, 0
4, 245760, Note_on_c, 2, 50, 100
4, 246240, Note_on_c, 2, 50, 0
4, 246720, Note_on_c, 2, 50, 100
4, 247200, Note_on_c, 2, 50, 0
4, 247680, Note_on_c, 2, 50, 100
4, 248160, Note_on_c, 2, 50, 0
4, 252000, Note_on_c, 2, 54, 100
4, 252480, Note_on_c, 2, 54, 0
4, 253440, Note_on_c, 2, 45, 100
4, 254400, Note_on_c, 2, 45, 0
4, 254400, End_track
5, 0, Start_track
5, 0, MIDI_port, 0
5, 0, Title_t, "Six Suites for Solo Cello"
5, 0, Program_c, 3, 42
5, 0, Control_c, 3, 7, 100
5, 0, Control_c, 3, 10, 79
5, 1920, Note_on_c, 3, 43, 100
5, 2400, Note_on_c, 3, 43, 0
5, 4800, Note_on_c, 3, 43, 100
5, 5280, Note_on_c, 3, 43, 0
5, 9600, Note_on_c, 3, 43, 100
5, 10080, Note_on_c, 3, 43, 0
5, 17280, Note_on_c, 3, 43, 100
5, 17760, Note_on_c, 3, 43, 0
5, 20160, Note_on_c, 3, 43, 100
5, 20640, Note_on_c, 3, 43, 0
5, 24960, Note_on_c, 3, 43, 100
5, 25440, Note_on_c, 3, 43, 0
5, 32640, Note_on_c, 3, 47, 100
5, 33120, Note_on_c, 3, 47, 0
5, 55680, Note_on_c, 3, 43, 100
5, 56160, Note_on_c, 3, 43, 0
5, 58560, Note_on_c, 3, 43, 100
5, 59040, Note_on_c, 3, 43, 0
5, 62400, Note_on_c, 3, 47, 100
5, 62880, Note_on_c, 3, 47, 0
5, 63360, Note_on_c, 3, 43, 100
5, 63840, Note_on_c, 3, 43, 0
5, 69120, Note_on_c, 3, 38, 100
5, 70080, Note_on_c, 3, 38, 0
5, 71040, Note_on_c, 3, 47, 100
5, 71520, Note_on_c, 3, 47, 0
5, 94080, Note_on_c, 3, 43, 100
5, 94560, Note_on_c, 3, 43, 0
5, 96960, Note_on_c, 3, 43, 100
5, 97440, Note_on_c, 3, 43, 0
5, 100800, Note_on_c, 3, 47, 100
5, 101280, Note_on_c, 3, 47, 0
5, 101760, Note_on_c, 3, 43, 100
5, 102240, Note_on_c, 3, 43, 0
5, 107520, Note_on_c, 3, 38, 100
5, 108480, Note_on_c, 3, 38, 0
5, 112320, Note_on_c, 3, 38, 100
5, 112560, Note_on_c, 3, 38, 0
5, 120000, Note_on_c, 3, 38, 100
5, 120240, Note_on_c, 3, 38, 0
5, 135360, Note_on_c, 3, 38, 100
5, 135600, Note_on_c, 3, 38, 0
5, 158400, Note_on_c, 3, 38, 100
5, 158640, Note_on_c, 3, 38, 0
5, 173760, Note_on_c, 3, 38, 100
5, 174000, Note_on_c, 3, 38, 0
5, 196800, Note_on_c, 3, 38, 100
5, 197040, Note_on_c, 3, 38, 0
5, 201600, Note_on_c, 3, 43, 100
5, 202080, Note_on_c, 3, 43, 0
5, 204480, Note_on_c, 3, 43, 100
5, 204960, Note_on_c, 3, 43, 0
5, 209280, Note_on_c, 3, 43, 100
5, 209760, Note_on_c, 3, 43, 0
5, 216960, Note_on_c, 3, 47, 100
5, 217440, Note_on_c, 3, 47, 0
5, 240000, Note_on_c, 3, 43, 100
5, 240480, Note_on_c, 3, 43, 0
5, 242880, Note_on_c, 3, 43, 100
5, 243360, Note_on_c, 3, 43, 0
5, 246720, Note_on_c, 3, 47, 100
5, 247200, Note_on_c, 3, 47, 0
5, 247680, Note_on_c, 3, 43, 100
5, 248160, Note_on_c, 3, 43, 0
5, 253440, Note_on_c, 3, 38, 100
5, 254400, Note_on_c, 3, 38, 0
5, 254400, End_track
6, 0, Start_track
6, 0, MIDI_port, 0
6, 0, Title_t, "--------------------------------------"
6, 0, End_track
7, 0, Start_track
7, 0, MIDI_port, 0
7, 0, Title_t, "Suite No. 6 in D major - BWV 1012"
7, 0, End_track
8, 0, Start_track
8, 0, MIDI_port, 0
8, 0, Title_t, "5th Movement: Gavotte"
8, 0, End_track
9, 0, Start_track
9, 0, MIDI_port, 0
9, 0, Title_t, "--------------------------------------"
9, 0, End_track
10, 0, Start_track
10, 0, MIDI_port, 0
10, 0, Title_t, "Sequenced with Cakewalk Pro Audio by"
10, 0, End_track
11, 0, Start_track
11, 0, MIDI_port, 0
11, 0, Title_t, "David J. Grossman - dave@unpronounceable.com"
11, 0, End_track
12, 0, Start_track
12, 0, MIDI_port, 0
12, 0, Title_t, "This and other Bach MIDI files can be found at:"
12, 0, End_track
13, 0, Start_track
13, 0, MIDI_port, 0
13, 0, Title_t, "Dave's J.S. Bach Page"
13, 0, End_track
14, 0, Start_track
14, 0, MIDI_port, 0
14, 0, Title_t, "http://www.unpronounceable.com/bach"
14, 0, End_track
15, 0, Start_track
15, 0, MIDI_port, 0
15, 0, Title_t, "--------------------------------------"
15, 0, End_track
16, 0, Start_track
16, 0, MIDI_port, 0
16, 0, Title_t, "Original Filename: cs6-5gav.mid"
16, 0, End_track
17, 0, Start_track
17, 0, MIDI_port, 0
17, 0, Title_t, "Last Modified: February 22, 1997"
17, 0, End_track
0, 0, End_of_file
