0, 0, Header, 1, 17, 480
1, 0, Start_track
1, 0, Title_t, "untitled"
1, 0, SMPTE_offset, 96, 0, 3, 0, 0
1, 0, Time_signature, 4, 2, 24, 8
1, 0, Key_signature, 2, "major"
1, 0, Tempo, 240000
1, 1800, Tempo, 2000000
1, 1920, Marker_t, "A"
1, 17280, Marker_t, "A'"
1, 32640, Marker_t, "B"
1, 55680, Marker_t, "B'"
1, 55680, End_track
2, 0, Start_track
2, 0, MIDI_port, 0
2, 0, Title_t, "Solo Cello"
2, 0, Program_c, 0, 42
2, 0, Control_c, 0, 7, 100
2, 0, Control_c, 0, 10, 59
2, 1800, Note_on_c, 0, 66, 100
2, 1920, Note_on_c, 0, 66, 0
2, 1920, Note_on_c, 0, 66, 100
2, 2448, Note_on_c, 0, 66, 0
2, 2460, Note_on_c, 0, 64, 100
2, 2520, Note_on_c, 0, 64, 0
2, 2520, Note_on_c, 0, 67, 100
2, 2580, Note_on_c, 0, 67, 0
2, 2580, Note_on_c, 0, 66, 100
2, 2640, Note_on_c, 0, 66, 0
2, 2640, Note_on_c, 0, 64, 100
2, 2700, Note_on_c, 0, 64, 0
2, 2700, Note_on_c, 0, 62, 100
2, 2760, Note_on_c, 0, 62, 0
2, 2760, Note_on_c, 0, 64, 100
2, 2790, Note_on_c, 0, 64, 0
2, 2790, Note_on_c, 0, 61, 100
2, 2820, Note_on_c, 0, 61, 0
2, 2820, Note_on_c, 0, 62, 100
2, 2880, Note_on_c, 0, 62, 0
2, 2880, Note_on_c, 0, 62, 100
2, 3120, Note_on_c, 0, 62, 0
2, 3120, Note_on_c, 0, 61, 100
2, 3300, Note_on_c, 0, 61, 0
2, 3300, Note_on_c, 0, 62, 100
2, 3330, Note_on_c, 0, 62, 0
2, 3330, Note_on_c, 0, 64, 100
2, 3360, Note_on_c, 0, 64, 0
2, 3360, Note_on_c, 0, 62, 100
2, 3420, Note_on_c, 0, 62, 0
2, 3420, Note_on_c, 0, 61, 100
2, 3480, Note_on_c, 0, 61, 0
2, 3480, Note_on_c, 0, 59, 100
2, 3540, Note_on_c, 0, 59, 0
2, 3540, Note_on_c, 0, 57, 100
2, 3600, Note_on_c, 0, 57, 0
2, 3600, Note_on_c, 0, 59, 100
2, 3630, Note_on_c, 0, 59, 0
2, 3630, Note_on_c, 0, 61, 100
2, 3660, Note_on_c, 0, 61, 0
2, 3660, Note_on_c, 0, 59, 100
2, 3690, Note_on_c, 0, 59, 0
2, 3690, Note_on_c, 0, 61, 100
2, 3720, Note_on_c, 0, 61, 0
2, 3720, Note_on_c, 0, 61, 100
2, 3720, Pitch_bend_c, 0, 12288
2, 3735, Pitch_bend_c, 0, 8192
2, 3750, Pitch_bend_c, 0, 12288
2, 3765, Pitch_bend_c, 0, 8192
2, 3780, Note_on_c, 0, 61, 0
2, 3780, Note_on_c, 0, 59, 100
2, 3810, Note_on_c, 0, 59, 0
2, 3810, Note_on_c, 0, 61, 100
2, 3840, Note_on_c, 0, 61, 0
2, 3840, Note_on_c, 0, 62, 100
2, 4200, Note_on_c, 0, 62, 0
2, 4200, Note_on_c, 0, 69, 100
2, 4368, Note_on_c, 0, 69, 0
2, 4380, Note_on_c, 0, 67, 100
2, 4440, Note_on_c, 0, 67, 0
2, 4440, Note_on_c, 0, 66, 100
2, 4500, Note_on_c, 0, 66, 0
2, 4500, Note_on_c, 0, 64, 100
2, 4560, Note_on_c, 0, 64, 0
2, 4560, Note_on_c, 0, 62, 100
2, 4590, Note_on_c, 0, 62, 0
2, 4590, Note_on_c, 0, 61, 100
2, 4620, Note_on_c, 0, 61, 0
2, 4620, Note_on_c, 0, 62, 100
2, 4650, Note_on_c, 0, 62, 0
2, 4650, Note_on_c, 0, 64, 100
2, 4680, Note_on_c, 0, 64, 0
2, 4680, Note_on_c, 0, 66, 100
2, 4710, Note_on_c, 0, 66, 0
2, 4710, Note_on_c, 0, 64, 100
2, 4740, Note_on_c, 0, 64, 0
2, 4740, Note_on_c, 0, 67, 100
2, 4770, Note_on_c, 0, 67, 0
2, 4770, Note_on_c, 0, 66, 100
2, 4800, Note_on_c, 0, 66, 0
2, 4800, Note_on_c, 0, 67, 100
2, 4970, Note_on_c, 0, 67, 0
2, 4980, Note_on_c, 0, 66, 100
2, 5000, Note_on_c, 0, 66, 0
2, 5000, Note_on_c, 0, 64, 100
2, 5020, Note_on_c, 0, 64, 0
2, 5020, Note_on_c, 0, 66, 100
2, 5040, Note_on_c, 0, 66, 0
2, 5040, Note_on_c, 0, 67, 100
2, 5100, Note_on_c, 0, 67, 0
2, 5100, Note_on_c, 0, 66, 100
2, 5160, Note_on_c, 0, 66, 0
2, 5160, Note_on_c, 0, 67, 100
2, 5220, Note_on_c, 0, 67, 0
2, 5220, Note_on_c, 0, 71, 100
2, 5280, Note_on_c, 0, 71, 0
2, 5280, Pitch_bend_c, 0, 16383
2, 5280, Note_on_c, 0, 67, 100
2, 5300, Pitch_bend_c, 0, 8192
2, 5320, Pitch_bend_c, 0, 16383
2, 5340, Pitch_bend_c, 0, 8192
2, 5360, Pitch_bend_c, 0, 16383
2, 5380, Pitch_bend_c, 0, 8192
2, 5400, Pitch_bend_c, 0, 16383
2, 5420, Pitch_bend_c, 0, 8192
2, 5640, Note_on_c, 0, 67, 0
2, 5640, Note_on_c, 0, 66, 100
2, 5700, Note_on_c, 0, 66, 0
2, 5700, Note_on_c, 0, 67, 100
2, 5760, Note_on_c, 0, 67, 0
2, 5760, Note_on_c, 0, 66, 100
2, 6000, Note_on_c, 0, 66, 0
2, 6000, Note_on_c, 0, 64, 100
2, 6120, Note_on_c, 0, 64, 0
2, 6120, Note_on_c, 0, 66, 100
2, 6180, Note_on_c, 0, 66, 0
2, 6180, Note_on_c, 0, 62, 100
2, 6240, Note_on_c, 0, 62, 0
2, 6240, Note_on_c, 0, 66, 100
2, 6600, Note_on_c, 0, 66, 0
2, 6600, Note_on_c, 0, 66, 100
2, 6720, Note_on_c, 0, 66, 0
2, 6720, Note_on_c, 0, 56, 100
2, 6780, Note_on_c, 0, 56, 0
2, 6780, Note_on_c, 0, 64, 100
2, 6840, Note_on_c, 0, 64, 0
2, 6840, Note_on_c, 0, 71, 100
2, 6900, Note_on_c, 0, 71, 0
2, 6900, Note_on_c, 0, 74, 100
2, 6960, Note_on_c, 0, 74, 0
2, 6960, Note_on_c, 0, 73, 100
2, 7020, Note_on_c, 0, 73, 0
2, 7020, Note_on_c, 0, 71, 100
2, 7080, Note_on_c, 0, 71, 0
2, 7080, Note_on_c, 0, 70, 100
2, 7110, Note_on_c, 0, 70, 0
2, 7110, Note_on_c, 0, 71, 100
2, 7140, Note_on_c, 0, 71, 0
2, 7140, Note_on_c, 0, 74, 100
2, 7170, Note_on_c, 0, 74, 0
2, 7170, Note_on_c, 0, 73, 100
2, 7200, Note_on_c, 0, 73, 0
2, 7200, Note_on_c, 0, 73, 100
2, 7440, Note_on_c, 0, 73, 0
2, 7440, Note_on_c, 0, 58, 100
2, 7620, Note_on_c, 0, 58, 0
2, 7620, Note_on_c, 0, 64, 100
2, 7680, Note_on_c, 0, 64, 0
2, 7680, Note_on_c, 0, 59, 100
2, 7800, Note_on_c, 0, 59, 0
2, 7800, Note_on_c, 0, 64, 100
2, 7860, Note_on_c, 0, 64, 0
2, 7860, Note_on_c, 0, 67, 100
2, 7920, Note_on_c, 0, 67, 0
2, 7920, Note_on_c, 0, 66, 100
2, 7980, Note_on_c, 0, 66, 0
2, 7980, Note_on_c, 0, 64, 100
2, 8040, Note_on_c, 0, 64, 0
2, 8040, Note_on_c, 0, 62, 100
2, 8100, Note_on_c, 0, 62, 0
2, 8100, Note_on_c, 0, 64, 100
2, 8130, Note_on_c, 0, 64, 0
2, 8130, Note_on_c, 0, 61, 100
2, 8160, Note_on_c, 0, 61, 0
2, 8160, Note_on_c, 0, 62, 100
2, 8340, Note_on_c, 0, 62, 0
2, 8340, Note_on_c, 0, 59, 100
2, 8370, Note_on_c, 0, 59, 0
2, 8370, Note_on_c, 0, 61, 100
2, 8400, Note_on_c, 0, 61, 0
2, 8400, Note_on_c, 0, 62, 100
2, 8460, Note_on_c, 0, 62, 0
2, 8460, Note_on_c, 0, 64, 100
2, 8520, Note_on_c, 0, 64, 0
2, 8520, Note_on_c, 0, 66, 100
2, 8580, Note_on_c, 0, 66, 0
2, 8580, Note_on_c, 0, 69, 100
2, 8610, Note_on_c, 0, 69, 0
2, 8610, Note_on_c, 0, 68, 100
2, 8640, Note_on_c, 0, 68, 0
2, 8640, Note_on_c, 0, 69, 100
2, 8760, Note_on_c, 0, 69, 0
2, 9300, Note_on_c, 0, 69, 100
2, 9360, Note_on_c, 0, 69, 0
2, 9360, Note_on_c, 0, 71, 100
2, 9420, Note_on_c, 0, 71, 0
2, 9420, Note_on_c, 0, 69, 100
2, 9480, Note_on_c, 0, 69, 0
2, 9480, Note_on_c, 0, 68, 100
2, 9540, Note_on_c, 0, 68, 0
2, 9540, Note_on_c, 0, 69, 100
2, 9600, Note_on_c, 0, 69, 0
2, 9600, Note_on_c, 0, 69, 100
2, 9720, Note_on_c, 0, 69, 0
2, 9720, Note_on_c, 0, 68, 100
2, 9840, Note_on_c, 0, 68, 0
2, 9840, Note_on_c, 0, 66, 100
2, 9960, Note_on_c, 0, 66, 0
2, 9960, Note_on_c, 0, 64, 100
2, 10080, Note_on_c, 0, 64, 0
2, 10080, Note_on_c, 0, 64, 100
2, 10440, Note_on_c, 0, 64, 0
2, 10440, Note_on_c, 0, 64, 100
2, 10560, Note_on_c, 0, 64, 0
2, 10560, Note_on_c, 0, 64, 100
2, 10680, Note_on_c, 0, 64, 0
2, 10680, Note_on_c, 0, 66, 100
2, 10740, Note_on_c, 0, 66, 0
2, 10740, Note_on_c, 0, 68, 100
2, 10800, Note_on_c, 0, 68, 0
2, 10800, Note_on_c, 0, 69, 100
2, 10860, Note_on_c, 0, 69, 0
2, 10860, Note_on_c, 0, 68, 100
2, 10920, Note_on_c, 0, 68, 0
2, 10920, Note_on_c, 0, 69, 100
2, 10980, Note_on_c, 0, 69, 0
2, 10980, Note_on_c, 0, 66, 100
2, 11040, Note_on_c, 0, 66, 0
2, 11040, Note_on_c, 0, 62, 100
2, 11220, Note_on_c, 0, 62, 0
2, 11220, Note_on_c, 0, 61, 100
2, 11280, Note_on_c, 0, 61, 0
2, 11280, Note_on_c, 0, 59, 100
2, 11340, Note_on_c, 0, 59, 0
2, 11340, Note_on_c, 0, 62, 100
2, 11400, Note_on_c, 0, 62, 0
2, 11400, Note_on_c, 0, 66, 100
2, 11460, Note_on_c, 0, 66, 0
2, 11460, Note_on_c, 0, 69, 100
2, 11520, Note_on_c, 0, 69, 0
2, 11520, Note_on_c, 0, 68, 100
2, 11580, Note_on_c, 0, 68, 0
2, 11580, Note_on_c, 0, 69, 100
2, 11640, Note_on_c, 0, 69, 0
2, 11640, Note_on_c, 0, 71, 100
2, 11700, Note_on_c, 0, 71, 0
2, 11700, Note_on_c, 0, 69, 100
2, 11760, Note_on_c, 0, 69, 0
2, 11760, Note_on_c, 0, 68, 100
2, 11820, Note_on_c, 0, 68, 0
2, 11820, Note_on_c, 0, 66, 100
2, 11880, Note_on_c, 0, 66, 0
2, 11880, Note_on_c, 0, 64, 100
2, 11940, Note_on_c, 0, 64, 0
2, 11940, Note_on_c, 0, 66, 100
2, 11970, Note_on_c, 0, 66, 0
2, 11970, Note_on_c, 0, 62, 100
2, 12000, Note_on_c, 0, 62, 0
2, 12000, Pitch_bend_c, 0, 12288
2, 12000, Note_on_c, 0, 61, 100
2, 12020, Pitch_bend_c, 0, 8192
2, 12040, Pitch_bend_c, 0, 12288
2, 12060, Pitch_bend_c, 0, 8192
2, 12180, Note_on_c, 0, 61, 0
2, 12180, Note_on_c, 0, 59, 100
2, 12240, Note_on_c, 0, 59, 0
2, 12240, Note_on_c, 0, 57, 100
2, 12300, Note_on_c, 0, 57, 0
2, 12300, Note_on_c, 0, 56, 100
2, 12360, Note_on_c, 0, 56, 0
2, 12360, Note_on_c, 0, 57, 100
2, 12420, Note_on_c, 0, 57, 0
2, 12420, Note_on_c, 0, 61, 100
2, 12480, Note_on_c, 0, 61, 0
2, 12480, Note_on_c, 0, 66, 100
2, 12660, Note_on_c, 0, 66, 0
2, 12660, Note_on_c, 0, 64, 100
2, 12720, Note_on_c, 0, 64, 0
2, 12720, Note_on_c, 0, 62, 100
2, 12780, Note_on_c, 0, 62, 0
2, 12780, Note_on_c, 0, 61, 100
2, 12840, Note_on_c, 0, 61, 0
2, 12840, Note_on_c, 0, 62, 100
2, 12900, Note_on_c, 0, 62, 0
2, 12900, Note_on_c, 0, 66, 100
2, 12960, Note_on_c, 0, 66, 0
2, 12960, Note_on_c, 0, 71, 100
2, 13020, Note_on_c, 0, 71, 0
2, 13020, Note_on_c, 0, 68, 100
2, 13080, Note_on_c, 0, 68, 0
2, 13080, Note_on_c, 0, 69, 100
2, 13140, Note_on_c, 0, 69, 0
2, 13140, Note_on_c, 0, 66, 100
2, 13200, Note_on_c, 0, 66, 0
2, 13200, Note_on_c, 0, 64, 100
2, 13260, Note_on_c, 0, 64, 0
2, 13260, Note_on_c, 0, 61, 100
2, 13320, Note_on_c, 0, 61, 0
2, 13320, Note_on_c, 0, 62, 100
2, 13380, Note_on_c, 0, 62, 0
2, 13380, Note_on_c, 0, 59, 100
2, 13440, Note_on_c, 0, 59, 0
2, 13440, Note_on_c, 0, 57, 100
2, 13500, Note_on_c, 0, 57, 0
2, 13500, Note_on_c, 0, 54, 100
2, 13560, Note_on_c, 0, 54, 0
2, 13560, Note_on_c, 0, 56, 100
2, 13620, Note_on_c, 0, 56, 0
2, 13620, Note_on_c, 0, 59, 100
2, 13680, Note_on_c, 0, 59, 0
2, 13680, Note_on_c, 0, 64, 100
2, 13860, Note_on_c, 0, 64, 0
2, 13860, Note_on_c, 0, 50, 100
2, 13920, Note_on_c, 0, 50, 0
2, 13920, Note_on_c, 0, 49, 100
2, 14100, Note_on_c, 0, 49, 0
2, 14100, Note_on_c, 0, 64, 100
2, 14160, Note_on_c, 0, 64, 0
2, 14160, Note_on_c, 0, 62, 100
2, 14220, Note_on_c, 0, 62, 0
2, 14220, Note_on_c, 0, 61, 100
2, 14280, Note_on_c, 0, 61, 0
2, 14280, Note_on_c, 0, 59, 100
2, 14340, Note_on_c, 0, 59, 0
2, 14340, Note_on_c, 0, 57, 100
2, 14400, Note_on_c, 0, 57, 0
2, 14400, Note_on_c, 0, 50, 100
2, 14460, Note_on_c, 0, 50, 0
2, 14460, Note_on_c, 0, 66, 100
2, 14520, Note_on_c, 0, 66, 0
2, 14520, Note_on_c, 0, 64, 100
2, 14580, Note_on_c, 0, 64, 0
2, 14580, Note_on_c, 0, 62, 100
2, 14640, Note_on_c, 0, 62, 0
2, 14640, Note_on_c, 0, 61, 100
2, 14700, Note_on_c, 0, 61, 0
2, 14700, Note_on_c, 0, 56, 100
2, 14760, Note_on_c, 0, 56, 0
2, 14760, Note_on_c, 0, 57, 100
2, 14820, Note_on_c, 0, 57, 0
2, 14820, Note_on_c, 0, 62, 100
2, 14880, Note_on_c, 0, 62, 0
2, 14880, Note_on_c, 0, 59, 100
2, 14880, Pitch_bend_c, 0, 16383
2, 14920, Pitch_bend_c, 0, 8192
2, 14960, Pitch_bend_c, 0, 16383
2, 15000, Pitch_bend_c, 0, 8192
2, 15040, Pitch_bend_c, 0, 16383
2, 15080, Pitch_bend_c, 0, 8192
2, 15110, Pitch_bend_c, 0, 16383
2, 15140, Pitch_bend_c, 0, 8192
2, 15170, Pitch_bend_c, 0, 16383
2, 15190, Pitch_bend_c, 0, 8192
2, 15210, Pitch_bend_c, 0, 16256
2, 15230, Pitch_bend_c, 0, 8192
2, 15240, Note_on_c, 0, 59, 0
2, 15240, Note_on_c, 0, 57, 100
2, 15360, Note_on_c, 0, 57, 0
2, 15360, Note_on_c, 0, 57, 100
2, 15540, Note_on_c, 0, 57, 0
2, 15540, Note_on_c, 0, 59, 100
2, 15600, Note_on_c, 0, 59, 0
2, 15600, Note_on_c, 0, 61, 100
2, 15660, Note_on_c, 0, 61, 0
2, 15660, Note_on_c, 0, 62, 100
2, 15720, Note_on_c, 0, 62, 0
2, 15720, Note_on_c, 0, 64, 100
2, 15780, Note_on_c, 0, 64, 0
2, 15780, Note_on_c, 0, 67, 100
2, 15840, Note_on_c, 0, 67, 0
2, 15840, Note_on_c, 0, 66, 100
2, 15900, Note_on_c, 0, 66, 0
2, 15900, Note_on_c, 0, 64, 100
2, 15960, Note_on_c, 0, 64, 0
2, 15960, Note_on_c, 0, 62, 100
2, 16020, Note_on_c, 0, 62, 0
2, 16020, Note_on_c, 0, 61, 100
2, 16080, Note_on_c, 0, 61, 0
2, 16080, Note_on_c, 0, 62, 100
2, 16140, Note_on_c, 0, 62, 0
2, 16140, Note_on_c, 0, 59, 100
2, 16200, Note_on_c, 0, 59, 0
2, 16200, Note_on_c, 0, 69, 100
2, 16260, Note_on_c, 0, 69, 0
2, 16260, Note_on_c, 0, 68, 100
2, 16320, Note_on_c, 0, 68, 0
2, 16320, Note_on_c, 0, 69, 100
2, 16500, Note_on_c, 0, 69, 0
2, 16500, Note_on_c, 0, 64, 100
2, 16560, Note_on_c, 0, 64, 0
2, 16560, Note_on_c, 0, 61, 100
2, 16680, Note_on_c, 0, 61, 0
2, 16680, Note_on_c, 0, 59, 100
2, 16740, Note_on_c, 0, 59, 0
2, 16740, Note_on_c, 0, 57, 100
2, 16800, Note_on_c, 0, 57, 0
2, 16800, Note_on_c, 0, 45, 100
2, 17160, Note_on_c, 0, 45, 0
2, 17160, Note_on_c, 0, 66, 100
2, 17280, Note_on_c, 0, 66, 0
2, 17280, Note_on_c, 0, 66, 100
2, 17808, Note_on_c, 0, 66, 0
2, 17820, Note_on_c, 0, 64, 100
2, 17880, Note_on_c, 0, 64, 0
2, 17880, Note_on_c, 0, 67, 100
2, 17940, Note_on_c, 0, 67, 0
2, 17940, Note_on_c, 0, 66, 100
2, 18000, Note_on_c, 0, 66, 0
2, 18000, Note_on_c, 0, 64, 100
2, 18060, Note_on_c, 0, 64, 0
2, 18060, Note_on_c, 0, 62, 100
2, 18120, Note_on_c, 0, 62, 0
2, 18120, Note_on_c, 0, 64, 100
2, 18150, Note_on_c, 0, 64, 0
2, 18150, Note_on_c, 0, 61, 100
2, 18180, Note_on_c, 0, 61, 0
2, 18180, Note_on_c, 0, 62, 100
2, 18240, Note_on_c, 0, 62, 0
2, 18240, Note_on_c, 0, 62, 100
2, 18480, Note_on_c, 0, 62, 0
2, 18480, Note_on_c, 0, 61, 100
2, 18660, Note_on_c, 0, 61, 0
2, 18660, Note_on_c, 0, 62, 100
2, 18690, Note_on_c, 0, 62, 0
2, 18690, Note_on_c, 0, 64, 100
2, 18720, Note_on_c, 0, 64, 0
2, 18720, Note_on_c, 0, 62, 100
2, 18780, Note_on_c, 0, 62, 0
2, 18780, Note_on_c, 0, 61, 100
2, 18840, Note_on_c, 0, 61, 0
2, 18840, Note_on_c, 0, 59, 100
2, 18900, Note_on_c, 0, 59, 0
2, 18900, Note_on_c, 0, 57, 100
2, 18960, Note_on_c, 0, 57, 0
2, 18960, Note_on_c, 0, 59, 100
2, 18990, Note_on_c, 0, 59, 0
2, 18990, Note_on_c, 0, 61, 100
2, 19020, Note_on_c, 0, 61, 0
2, 19020, Note_on_c, 0, 59, 100
2, 19050, Note_on_c, 0, 59, 0
2, 19050, Note_on_c, 0, 61, 100
2, 19080, Note_on_c, 0, 61, 0
2, 19080, Note_on_c, 0, 61, 100
2, 19080, Pitch_bend_c, 0, 12288
2, 19095, Pitch_bend_c, 0, 8192
2, 19110, Pitch_bend_c, 0, 12288
2, 19125, Pitch_bend_c, 0, 8192
2, 19140, Note_on_c, 0, 61, 0
2, 19140, Note_on_c, 0, 59, 100
2, 19170, Note_on_c, 0, 59, 0
2, 19170, Note_on_c, 0, 61, 100
2, 19200, Note_on_c, 0, 61, 0
2, 19200, Note_on_c, 0, 62, 100
2, 19560, Note_on_c, 0, 62, 0
2, 19560, Note_on_c, 0, 69, 100
2, 19728, Note_on_c, 0, 69, 0
2, 19740, Note_on_c, 0, 67, 100
2, 19800, Note_on_c, 0, 67, 0
2, 19800, Note_on_c, 0, 66, 100
2, 19860, Note_on_c, 0, 66, 0
2, 19860, Note_on_c, 0, 64, 100
2, 19920, Note_on_c, 0, 64, 0
2, 19920, Note_on_c, 0, 62, 100
2, 19950, Note_on_c, 0, 62, 0
2, 19950, Note_on_c, 0, 61, 100
2, 19980, Note_on_c, 0, 61, 0
2, 19980, Note_on_c, 0, 62, 100
2, 20010, Note_on_c, 0, 62, 0
2, 20010, Note_on_c, 0, 64, 100
2, 20040, Note_on_c, 0, 64, 0
2, 20040, Note_on_c, 0, 66, 100
2, 20070, Note_on_c, 0, 66, 0
2, 20070, Note_on_c, 0, 64, 100
2, 20100, Note_on_c, 0, 64, 0
2, 20100, Note_on_c, 0, 67, 100
2, 20130, Note_on_c, 0, 67, 0
2, 20130, Note_on_c, 0, 66, 100
2, 20160, Note_on_c, 0, 66, 0
2, 20160, Note_on_c, 0, 67, 100
2, 20330, Note_on_c, 0, 67, 0
2, 20340, Note_on_c, 0, 66, 100
2, 20360, Note_on_c, 0, 66, 0
2, 20360, Note_on_c, 0, 64, 100
2, 20380, Note_on_c, 0, 64, 0
2, 20380, Note_on_c, 0, 66, 100
2, 20400, Note_on_c, 0, 66, 0
2, 20400, Note_on_c, 0, 67, 100
2, 20460, Note_on_c, 0, 67, 0
2, 20460, Note_on_c, 0, 66, 100
2, 20520, Note_on_c, 0, 66, 0
2, 20520, Note_on_c, 0, 67, 100
2, 20580, Note_on_c, 0, 67, 0
2, 20580, Note_on_c, 0, 71, 100
2, 20640, Note_on_c, 0, 71, 0
2, 20640, Pitch_bend_c, 0, 16383
2, 20640, Note_on_c, 0, 67, 100
2, 20660, Pitch_bend_c, 0, 8192
2, 20680, Pitch_bend_c, 0, 16383
2, 20700, Pitch_bend_c, 0, 8192
2, 20720, Pitch_bend_c, 0, 16383
2, 20740, Pitch_bend_c, 0, 8192
2, 20760, Pitch_bend_c, 0, 16383
2, 20780, Pitch_bend_c, 0, 8192
2, 21000, Note_on_c, 0, 67, 0
2, 21000, Note_on_c, 0, 66, 100
2, 21060, Note_on_c, 0, 66, 0
2, 21060, Note_on_c, 0, 67, 100
2, 21120, Note_on_c, 0, 67, 0
2, 21120, Note_on_c, 0, 66, 100
2, 21360, Note_on_c, 0, 66, 0
2, 21360, Note_on_c, 0, 64, 100
2, 21480, Note_on_c, 0, 64, 0
2, 21480, Note_on_c, 0, 66, 100
2, 21540, Note_on_c, 0, 66, 0
2, 21540, Note_on_c, 0, 62, 100
2, 21600, Note_on_c, 0, 62, 0
2, 21600, Note_on_c, 0, 66, 100
2, 21960, Note_on_c, 0, 66, 0
2, 21960, Note_on_c, 0, 66, 100
2, 22080, Note_on_c, 0, 66, 0
2, 22080, Note_on_c, 0, 56, 100
2, 22140, Note_on_c, 0, 56, 0
2, 22140, Note_on_c, 0, 64, 100
2, 22200, Note_on_c, 0, 64, 0
2, 22200, Note_on_c, 0, 71, 100
2, 22260, Note_on_c, 0, 71, 0
2, 22260, Note_on_c, 0, 74, 100
2, 22320, Note_on_c, 0, 74, 0
2, 22320, Note_on_c, 0, 73, 100
2, 22380, Note_on_c, 0, 73, 0
2, 22380, Note_on_c, 0, 71, 100
2, 22440, Note_on_c, 0, 71, 0
2, 22440, Note_on_c, 0, 70, 100
2, 22470, Note_on_c, 0, 70, 0
2, 22470, Note_on_c, 0, 71, 100
2, 22500, Note_on_c, 0, 71, 0
2, 22500, Note_on_c, 0, 74, 100
2, 22530, Note_on_c, 0, 74, 0
2, 22530, Note_on_c, 0, 73, 100
2, 22560, Note_on_c, 0, 73, 0
2, 22560, Note_on_c, 0, 73, 100
2, 22800, Note_on_c, 0, 73, 0
2, 22800, Note_on_c, 0, 58, 100
2, 22980, Note_on_c, 0, 58, 0
2, 22980, Note_on_c, 0, 64, 100
2, 23040, Note_on_c, 0, 64, 0
2, 23040, Note_on_c, 0, 59, 100
2, 23160, Note_on_c, 0, 59, 0
2, 23160, Note_on_c, 0, 64, 100
2, 23220, Note_on_c, 0, 64, 0
2, 23220, Note_on_c, 0, 67, 100
2, 23280, Note_on_c, 0, 67, 0
2, 23280, Note_on_c, 0, 66, 100
2, 23340, Note_on_c, 0, 66, 0
2, 23340, Note_on_c, 0, 64, 100
2, 23400, Note_on_c, 0, 64, 0
2, 23400, Note_on_c, 0, 62, 100
2, 23460, Note_on_c, 0, 62, 0
2, 23460, Note_on_c, 0, 64, 100
2, 23490, Note_on_c, 0, 64, 0
2, 23490, Note_on_c, 0, 61, 100
2, 23520, Note_on_c, 0, 61, 0
2, 23520, Note_on_c, 0, 62, 100
2, 23700, Note_on_c, 0, 62, 0
2, 23700, Note_on_c, 0, 59, 100
2, 23730, Note_on_c, 0, 59, 0
2, 23730, Note_on_c, 0, 61, 100
2, 23760, Note_on_c, 0, 61, 0
2, 23760, Note_on_c, 0, 62, 100
2, 23820, Note_on_c, 0, 62, 0
2, 23820, Note_on_c, 0, 64, 100
2, 23880, Note_on_c, 0, 64, 0
2, 23880, Note_on_c, 0, 66, 100
2, 23940, Note_on_c, 0, 66, 0
2, 23940, Note_on_c, 0, 69, 100
2, 23970, Note_on_c, 0, 69, 0
2, 23970, Note_on_c, 0, 68, 100
2, 24000, Note_on_c, 0, 68, 0
2, 24000, Note_on_c, 0, 69, 100
2, 24120, Note_on_c, 0, 69, 0
2, 24660, Note_on_c, 0, 69, 100
2, 24720, Note_on_c, 0, 69, 0
2, 24720, Note_on_c, 0, 71, 100
2, 24780, Note_on_c, 0, 71, 0
2, 24780, Note_on_c, 0, 69, 100
2, 24840, Note_on_c, 0, 69, 0
2, 24840, Note_on_c, 0, 68, 100
2, 24900, Note_on_c, 0, 68, 0
2, 24900, Note_on_c, 0, 69, 100
2, 24960, Note_on_c, 0, 69, 0
2, 24960, Note_on_c, 0, 69, 100
2, 25080, Note_on_c, 0, 69, 0
2, 25080, Note_on_c, 0, 68, 100
2, 25200, Note_on_c, 0, 68, 0
2, 25200, Note_on_c, 0, 66, 100
2, 25320, Note_on_c, 0, 66, 0
2, 25320, Note_on_c, 0, 64, 100
2, 25440, Note_on_c, 0, 64, 0
2, 25440, Note_on_c, 0, 64, 100
2, 25800, Note_on_c, 0, 64, 0
2, 25800, Note_on_c, 0, 64, 100
2, 25920, Note_on_c, 0, 64, 0
2, 25920, Note_on_c, 0, 64, 100
2, 26040, Note_on_c, 0, 64, 0
2, 26040, Note_on_c, 0, 66, 100
2, 26100, Note_on_c, 0, 66, 0
2, 26100, Note_on_c, 0, 68, 100
2, 26160, Note_on_c, 0, 68, 0
2, 26160, Note_on_c, 0, 69, 100
2, 26220, Note_on_c, 0, 69, 0
2, 26220, Note_on_c, 0, 68, 100
2, 26280, Note_on_c, 0, 68, 0
2, 26280, Note_on_c, 0, 69, 100
2, 26340, Note_on_c, 0, 69, 0
2, 26340, Note_on_c, 0, 66, 100
2, 26400, Note_on_c, 0, 66, 0
2, 26400, Note_on_c, 0, 62, 100
2, 26580, Note_on_c, 0, 62, 0
2, 26580, Note_on_c, 0, 61, 100
2, 26640, Note_on_c, 0, 61, 0
2, 26640, Note_on_c, 0, 59, 100
2, 26700, Note_on_c, 0, 59, 0
2, 26700, Note_on_c, 0, 62, 100
2, 26760, Note_on_c, 0, 62, 0
2, 26760, Note_on_c, 0, 66, 100
2, 26820, Note_on_c, 0, 66, 0
2, 26820, Note_on_c, 0, 69, 100
2, 26880, Note_on_c, 0, 69, 0
2, 26880, Note_on_c, 0, 68, 100
2, 26940, Note_on_c, 0, 68, 0
2, 26940, Note_on_c, 0, 69, 100
2, 27000, Note_on_c, 0, 69, 0
2, 27000, Note_on_c, 0, 71, 100
2, 27060, Note_on_c, 0, 71, 0
2, 27060, Note_on_c, 0, 69, 100
2, 27120, Note_on_c, 0, 69, 0
2, 27120, Note_on_c, 0, 68, 100
2, 27180, Note_on_c, 0, 68, 0
2, 27180, Note_on_c, 0, 66, 100
2, 27240, Note_on_c, 0, 66, 0
2, 27240, Note_on_c, 0, 64, 100
2, 27300, Note_on_c, 0, 64, 0
2, 27300, Note_on_c, 0, 66, 100
2, 27330, Note_on_c, 0, 66, 0
2, 27330, Note_on_c, 0, 62, 100
2, 27360, Note_on_c, 0, 62, 0
2, 27360, Pitch_bend_c, 0, 12288
2, 27360, Note_on_c, 0, 61, 100
2, 27380, Pitch_bend_c, 0, 8192
2, 27400, Pitch_bend_c, 0, 12288
2, 27420, Pitch_bend_c, 0, 8192
2, 27540, Note_on_c, 0, 61, 0
2, 27540, Note_on_c, 0, 59, 100
2, 27600, Note_on_c, 0, 59, 0
2, 27600, Note_on_c, 0, 57, 100
2, 27660, Note_on_c, 0, 57, 0
2, 27660, Note_on_c, 0, 56, 100
2, 27720, Note_on_c, 0, 56, 0
2, 27720, Note_on_c, 0, 57, 100
2, 27780, Note_on_c, 0, 57, 0
2, 27780, Note_on_c, 0, 61, 100
2, 27840, Note_on_c, 0, 61, 0
2, 27840, Note_on_c, 0, 66, 100
2, 28020, Note_on_c, 0, 66, 0
2, 28020, Note_on_c, 0, 64, 100
2, 28080, Note_on_c, 0, 64, 0
2, 28080, Note_on_c, 0, 62, 100
2, 28140, Note_on_c, 0, 62, 0
2, 28140, Note_on_c, 0, 61, 100
2, 28200, Note_on_c, 0, 61, 0
2, 28200, Note_on_c, 0, 62, 100
2, 28260, Note_on_c, 0, 62, 0
2, 28260, Note_on_c, 0, 66, 100
2, 28320, Note_on_c, 0, 66, 0
2, 28320, Note_on_c, 0, 71, 100
2, 28380, Note_on_c, 0, 71, 0
2, 28380, Note_on_c, 0, 68, 100
2, 28440, Note_on_c, 0, 68, 0
2, 28440, Note_on_c, 0, 69, 100
2, 28500, Note_on_c, 0, 69, 0
2, 28500, Note_on_c, 0, 66, 100
2, 28560, Note_on_c, 0, 66, 0
2, 28560, Note_on_c, 0, 64, 100
2, 28620, Note_on_c, 0, 64, 0
2, 28620, Note_on_c, 0, 61, 100
2, 28680, Note_on_c, 0, 61, 0
2, 28680, Note_on_c, 0, 62, 100
2, 28740, Note_on_c, 0, 62, 0
2, 28740, Note_on_c, 0, 59, 100
2, 28800, Note_on_c, 0, 59, 0
2, 28800, Note_on_c, 0, 57, 100
2, 28860, Note_on_c, 0, 57, 0
2, 28860, Note_on_c, 0, 54, 100
2, 28920, Note_on_c, 0, 54, 0
2, 28920, Note_on_c, 0, 56, 100
2, 28980, Note_on_c, 0, 56, 0
2, 28980, Note_on_c, 0, 59, 100
2, 29040, Note_on_c, 0, 59, 0
2, 29040, Note_on_c, 0, 64, 100
2, 29220, Note_on_c, 0, 64, 0
2, 29220, Note_on_c, 0, 50, 100
2, 29280, Note_on_c, 0, 50, 0
2, 29280, Note_on_c, 0, 49, 100
2, 29460, Note_on_c, 0, 49, 0
2, 29460, Note_on_c, 0, 64, 100
2, 29520, Note_on_c, 0, 64, 0
2, 29520, Note_on_c, 0, 62, 100
2, 29580, Note_on_c, 0, 62, 0
2, 29580, Note_on_c, 0, 61, 100
2, 29640, Note_on_c, 0, 61, 0
2, 29640, Note_on_c, 0, 59, 100
2, 29700, Note_on_c, 0, 59, 0
2, 29700, Note_on_c, 0, 57, 100
2, 29760, Note_on_c, 0, 57, 0
2, 29760, Note_on_c, 0, 50, 100
2, 29820, Note_on_c, 0, 50, 0
2, 29820, Note_on_c, 0, 66, 100
2, 29880, Note_on_c, 0, 66, 0
2, 29880, Note_on_c, 0, 64, 100
2, 29940, Note_on_c, 0, 64, 0
2, 29940, Note_on_c, 0, 62, 100
2, 30000, Note_on_c, 0, 62, 0
2, 30000, Note_on_c, 0, 61, 100
2, 30060, Note_on_c, 0, 61, 0
2, 30060, Note_on_c, 0, 56, 100
2, 30120, Note_on_c, 0, 56, 0
2, 30120, Note_on_c, 0, 57, 100
2, 30180, Note_on_c, 0, 57, 0
2, 30180, Note_on_c, 0, 62, 100
2, 30240, Note_on_c, 0, 62, 0
2, 30240, Note_on_c, 0, 59, 100
2, 30240, Pitch_bend_c, 0, 16383
2, 30280, Pitch_bend_c, 0, 8192
2, 30320, Pitch_bend_c, 0, 16383
2, 30360, Pitch_bend_c, 0, 8192
2, 30400, Pitch_bend_c, 0, 16383
2, 30440, Pitch_bend_c, 0, 8192
2, 30470, Pitch_bend_c, 0, 16383
2, 30500, Pitch_bend_c, 0, 8192
2, 30530, Pitch_bend_c, 0, 16383
2, 30550, Pitch_bend_c, 0, 8192
2, 30570, Pitch_bend_c, 0, 16256
2, 30590, Pitch_bend_c, 0, 8192
2, 30600, Note_on_c, 0, 59, 0
2, 30600, Note_on_c, 0, 57, 100
2, 30720, Note_on_c, 0, 57, 0
2, 30720, Note_on_c, 0, 57, 100
2, 30900, Note_on_c, 0, 57, 0
2, 30900, Note_on_c, 0, 59, 100
2, 30960, Note_on_c, 0, 59, 0
2, 30960, Note_on_c, 0, 61, 100
2, 31020, Note_on_c, 0, 61, 0
2, 31020, Note_on_c, 0, 62, 100
2, 31080, Note_on_c, 0, 62, 0
2, 31080, Note_on_c, 0, 64, 100
2, 31140, Note_on_c, 0, 64, 0
2, 31140, Note_on_c, 0, 67, 100
2, 31200, Note_on_c, 0, 67, 0
2, 31200, Note_on_c, 0, 66, 100
2, 31260, Note_on_c, 0, 66, 0
2, 31260, Note_on_c, 0, 64, 100
2, 31320, Note_on_c, 0, 64, 0
2, 31320, Note_on_c, 0, 62, 100
2, 31380, Note_on_c, 0, 62, 0
2, 31380, Note_on_c, 0, 61, 100
2, 31440, Note_on_c, 0, 61, 0
2, 31440, Note_on_c, 0, 62, 100
2, 31500, Note_on_c, 0, 62, 0
2, 31500, Note_on_c, 0, 59, 100
2, 31560, Note_on_c, 0, 59, 0
2, 31560, Note_on_c, 0, 69, 100
2, 31620, Note_on_c, 0, 69, 0
2, 31620, Note_on_c, 0, 68, 100
2, 31680, Note_on_c, 0, 68, 0
2, 31680, Note_on_c, 0, 69, 100
2, 31860, Note_on_c, 0, 69, 0
2, 31860, Note_on_c, 0, 64, 100
2, 31920, Note_on_c, 0, 64, 0
2, 31920, Note_on_c, 0, 61, 100
2, 32040, Note_on_c, 0, 61, 0
2, 32040, Note_on_c, 0, 59, 100
2, 32100, Note_on_c, 0, 59, 0
2, 32100, Note_on_c, 0, 57, 100
2, 32160, Note_on_c, 0, 57, 0
2, 32160, Note_on_c, 0, 45, 100
2, 32520, Note_on_c, 0, 45, 0
2, 32640, Note_on_c, 0, 61, 100
2, 32880, Note_on_c, 0, 61, 0
2, 33600, Note_on_c, 0, 69, 100
2, 33960, Note_on_c, 0, 69, 0
2, 33960, Note_on_c, 0, 67, 100
2, 34020, Note_on_c, 0, 67, 0
2, 34020, Note_on_c, 0, 66, 100
2, 34080, Note_on_c, 0, 66, 0
2, 34080, Note_on_c, 0, 64, 100
2, 34140, Note_on_c, 0, 64, 0
2, 34140, Note_on_c, 0, 62, 100
2, 34200, Note_on_c, 0, 62, 0
2, 34200, Note_on_c, 0, 61, 100
2, 34260, Note_on_c, 0, 61, 0
2, 34260, Note_on_c, 0, 59, 100
2, 34320, Note_on_c, 0, 59, 0
2, 34320, Note_on_c, 0, 57, 100
2, 34380, Note_on_c, 0, 57, 0
2, 34380, Note_on_c, 0, 55, 100
2, 34440, Note_on_c, 0, 55, 0
2, 34440, Note_on_c, 0, 54, 100
2, 34500, Note_on_c, 0, 54, 0
2, 34500, Note_on_c, 0, 55, 100
2, 34560, Note_on_c, 0, 55, 0
2, 34560, Pitch_bend_c, 0, 12288
2, 34560, Note_on_c, 0, 54, 100
2, 34580, Pitch_bend_c, 0, 8192
2, 34600, Pitch_bend_c, 0, 12288
2, 34620, Pitch_bend_c, 0, 8192
2, 34740, Note_on_c, 0, 54, 0
2, 34740, Note_on_c, 0, 57, 100
2, 34756, Note_on_c, 0, 57, 0
2, 34760, Note_on_c, 0, 59, 100
2, 34776, Note_on_c, 0, 59, 0
2, 34780, Note_on_c, 0, 61, 100
2, 34796, Note_on_c, 0, 61, 0
2, 34800, Note_on_c, 0, 62, 100
2, 34860, Note_on_c, 0, 62, 0
2, 34860, Note_on_c, 0, 59, 100
2, 34920, Note_on_c, 0, 59, 0
2, 34920, Note_on_c, 0, 55, 100
2, 34980, Note_on_c, 0, 55, 0
2, 34980, Note_on_c, 0, 54, 100
2, 35040, Note_on_c, 0, 54, 0
2, 35040, Note_on_c, 0, 52, 100
2, 35160, Note_on_c, 0, 52, 0
2, 35160, Note_on_c, 0, 67, 100
2, 35220, Note_on_c, 0, 67, 0
2, 35220, Note_on_c, 0, 66, 100
2, 35280, Note_on_c, 0, 66, 0
2, 35280, Note_on_c, 0, 67, 100
2, 35340, Note_on_c, 0, 67, 0
2, 35340, Note_on_c, 0, 64, 100
2, 35400, Note_on_c, 0, 64, 0
2, 35400, Note_on_c, 0, 61, 100
2, 35460, Note_on_c, 0, 61, 0
2, 35460, Note_on_c, 0, 57, 100
2, 35520, Note_on_c, 0, 57, 0
2, 35520, Note_on_c, 0, 50, 100
2, 35640, Note_on_c, 0, 50, 0
2, 35640, Note_on_c, 0, 57, 100
2, 35700, Note_on_c, 0, 57, 0
2, 35700, Note_on_c, 0, 59, 100
2, 35760, Note_on_c, 0, 59, 0
2, 35760, Note_on_c, 0, 61, 100
2, 35820, Note_on_c, 0, 61, 0
2, 35820, Note_on_c, 0, 62, 100
2, 35880, Note_on_c, 0, 62, 0
2, 35880, Note_on_c, 0, 64, 100
2, 35940, Note_on_c, 0, 64, 0
2, 35940, Note_on_c, 0, 66, 100
2, 35970, Note_on_c, 0, 66, 0
2, 35970, Note_on_c, 0, 67, 100
2, 36000, Note_on_c, 0, 67, 0
2, 36000, Note_on_c, 0, 66, 100
2, 36180, Note_on_c, 0, 66, 0
2, 36180, Note_on_c, 0, 50, 100
2, 36210, Note_on_c, 0, 50, 0
2, 36210, Note_on_c, 0, 52, 100
2, 36240, Note_on_c, 0, 52, 0
2, 36240, Note_on_c, 0, 54, 100
2, 36300, Note_on_c, 0, 54, 0
2, 36300, Note_on_c, 0, 50, 100
2, 36360, Note_on_c, 0, 50, 0
2, 36360, Note_on_c, 0, 52, 100
2, 36420, Note_on_c, 0, 52, 0
2, 36420, Note_on_c, 0, 54, 100
2, 36480, Note_on_c, 0, 54, 0
2, 36480, Note_on_c, 0, 36, 100
2, 36840, Note_on_c, 0, 36, 0
2, 36840, Note_on_c, 0, 57, 100
2, 36960, Note_on_c, 0, 57, 0
2, 36960, Note_on_c, 0, 59, 100
2, 37020, Note_on_c, 0, 59, 0
2, 37020, Note_on_c, 0, 57, 100
2, 37080, Note_on_c, 0, 57, 0
2, 37080, Note_on_c, 0, 59, 100
2, 37140, Note_on_c, 0, 59, 0
2, 37140, Note_on_c, 0, 60, 100
2, 37200, Note_on_c, 0, 60, 0
2, 37200, Note_on_c, 0, 59, 100
2, 37260, Note_on_c, 0, 59, 0
2, 37260, Note_on_c, 0, 60, 100
2, 37320, Note_on_c, 0, 60, 0
2, 37320, Pitch_bend_c, 0, 16383
2, 37320, Note_on_c, 0, 60, 100
2, 37335, Pitch_bend_c, 0, 8192
2, 37350, Pitch_bend_c, 0, 16383
2, 37365, Pitch_bend_c, 0, 8192
2, 37380, Note_on_c, 0, 60, 0
2, 37380, Note_on_c, 0, 59, 100
2, 37410, Note_on_c, 0, 59, 0
2, 37410, Note_on_c, 0, 60, 100
2, 37440, Note_on_c, 0, 60, 0
2, 37440, Note_on_c, 0, 62, 100
2, 37800, Note_on_c, 0, 62, 0
2, 38400, Note_on_c, 0, 45, 100
2, 38640, Note_on_c, 0, 45, 0
2, 38640, Note_on_c, 0, 44, 100
2, 38820, Note_on_c, 0, 44, 0
2, 38820, Note_on_c, 0, 66, 100
2, 38880, Note_on_c, 0, 66, 0
2, 38880, Note_on_c, 0, 66, 100
2, 38940, Note_on_c, 0, 66, 0
2, 38940, Note_on_c, 0, 65, 100
2, 39000, Note_on_c, 0, 65, 0
2, 39000, Note_on_c, 0, 68, 100
2, 39060, Note_on_c, 0, 68, 0
2, 39060, Note_on_c, 0, 66, 100
2, 39120, Note_on_c, 0, 66, 0
2, 39120, Note_on_c, 0, 69, 100
2, 39180, Note_on_c, 0, 69, 0
2, 39180, Note_on_c, 0, 68, 100
2, 39240, Note_on_c, 0, 68, 0
2, 39240, Note_on_c, 0, 71, 100
2, 39300, Note_on_c, 0, 71, 0
2, 39300, Note_on_c, 0, 62, 100
2, 39360, Note_on_c, 0, 62, 0
2, 39360, Note_on_c, 0, 53, 100
2, 39474, Note_on_c, 0, 53, 0
2, 39480, Note_on_c, 0, 61, 100
2, 39540, Note_on_c, 0, 61, 0
2, 39540, Note_on_c, 0, 71, 100
2, 39600, Note_on_c, 0, 71, 0
2, 39600, Note_on_c, 0, 69, 100
2, 39660, Note_on_c, 0, 69, 0
2, 39660, Note_on_c, 0, 71, 100
2, 39720, Note_on_c, 0, 71, 0
2, 39720, Note_on_c, 0, 68, 100
2, 39834, Note_on_c, 0, 68, 0
2, 39840, Note_on_c, 0, 69, 100
2, 40020, Note_on_c, 0, 69, 0
2, 40020, Note_on_c, 0, 68, 100
2, 40080, Note_on_c, 0, 68, 0
2, 40080, Note_on_c, 0, 66, 100
2, 40140, Note_on_c, 0, 66, 0
2, 40140, Note_on_c, 0, 64, 100
2, 40200, Note_on_c, 0, 64, 0
2, 40200, Note_on_c, 0, 62, 100
2, 40260, Note_on_c, 0, 62, 0
2, 40260, Note_on_c, 0, 64, 100
2, 40290, Note_on_c, 0, 64, 0
2, 40290, Note_on_c, 0, 61, 100
2, 40320, Note_on_c, 0, 61, 0
2, 40320, Note_on_c, 0, 62, 100
2, 40500, Note_on_c, 0, 62, 0
2, 40500, Note_on_c, 0, 61, 100
2, 40560, Note_on_c, 0, 61, 0
2, 40560, Note_on_c, 0, 59, 100
2, 40620, Note_on_c, 0, 59, 0
2, 40620, Note_on_c, 0, 57, 100
2, 40680, Note_on_c, 0, 57, 0
2, 40680, Note_on_c, 0, 55, 100
2, 40740, Note_on_c, 0, 55, 0
2, 40740, Note_on_c, 0, 57, 100
2, 40770, Note_on_c, 0, 57, 0
2, 40770, Note_on_c, 0, 54, 100
2, 40800, Note_on_c, 0, 54, 0
2, 40800, Note_on_c, 0, 55, 100
2, 40980, Note_on_c, 0, 55, 0
2, 40980, Note_on_c, 0, 50, 100
2, 40996, Note_on_c, 0, 50, 0
2, 41000, Note_on_c, 0, 52, 100
2, 41016, Note_on_c, 0, 52, 0
2, 41020, Note_on_c, 0, 54, 100
2, 41036, Note_on_c, 0, 54, 0
2, 41040, Note_on_c, 0, 55, 100
2, 41100, Note_on_c, 0, 55, 0
2, 41100, Note_on_c, 0, 57, 100
2, 41160, Note_on_c, 0, 57, 0
2, 41160, Note_on_c, 0, 59, 100
2, 41220, Note_on_c, 0, 59, 0
2, 41220, Note_on_c, 0, 61, 100
2, 41250, Note_on_c, 0, 61, 0
2, 41250, Note_on_c, 0, 62, 100
2, 41280, Note_on_c, 0, 62, 0
2, 41280, Note_on_c, 0, 62, 100
2, 41400, Note_on_c, 0, 62, 0
2, 41400, Pitch_bend_c, 0, 16383
2, 41400, Note_on_c, 0, 53, 100
2, 41420, Pitch_bend_c, 0, 8192
2, 41440, Pitch_bend_c, 0, 16383
2, 41460, Pitch_bend_c, 0, 8192
2, 41640, Note_on_c, 0, 53, 0
2, 41640, Note_on_c, 0, 54, 100
2, 41700, Note_on_c, 0, 54, 0
2, 41700, Note_on_c, 0, 56, 100
2, 41760, Note_on_c, 0, 56, 0
2, 41760, Note_on_c, 0, 49, 100
2, 41820, Note_on_c, 0, 49, 0
2, 41820, Note_on_c, 0, 47, 100
2, 41940, Note_on_c, 0, 47, 0
2, 41940, Note_on_c, 0, 50, 100
2, 42000, Note_on_c, 0, 50, 0
2, 42000, Note_on_c, 0, 49, 100
2, 42120, Note_on_c, 0, 49, 0
2, 42120, Note_on_c, 0, 50, 100
2, 42180, Note_on_c, 0, 50, 0
2, 42180, Note_on_c, 0, 47, 100
2, 42240, Note_on_c, 0, 47, 0
2, 42240, Note_on_c, 0, 45, 100
2, 42300, Note_on_c, 0, 45, 0
2, 42300, Note_on_c, 0, 66, 100
2, 42360, Note_on_c, 0, 66, 0
2, 42360, Note_on_c, 0, 68, 100
2, 42420, Note_on_c, 0, 68, 0
2, 42420, Note_on_c, 0, 69, 100
2, 42480, Note_on_c, 0, 69, 0
2, 42480, Note_on_c, 0, 59, 100
2, 42540, Note_on_c, 0, 59, 0
2, 42540, Note_on_c, 0, 69, 100
2, 42600, Note_on_c, 0, 69, 0
2, 42600, Note_on_c, 0, 68, 100
2, 42660, Note_on_c, 0, 68, 0
2, 42660, Note_on_c, 0, 71, 100
2, 42720, Note_on_c, 0, 71, 0
2, 42720, Note_on_c, 0, 66, 100
2, 42960, Note_on_c, 0, 66, 0
2, 42960, Pitch_bend_c, 0, 12288
2, 42960, Note_on_c, 0, 65, 100
2, 42980, Pitch_bend_c, 0, 8192
2, 43000, Pitch_bend_c, 0, 12288
2, 43020, Pitch_bend_c, 0, 8192
2, 43140, Note_on_c, 0, 65, 0
2, 43140, Note_on_c, 0, 66, 100
2, 43200, Note_on_c, 0, 66, 0
2, 43200, Note_on_c, 0, 66, 100
2, 43380, Note_on_c, 0, 66, 0
2, 43380, Note_on_c, 0, 61, 100
2, 43440, Note_on_c, 0, 61, 0
2, 43440, Note_on_c, 0, 66, 100
2, 43500, Note_on_c, 0, 66, 0
2, 43500, Note_on_c, 0, 68, 100
2, 43560, Note_on_c, 0, 68, 0
2, 43560, Note_on_c, 0, 69, 100
2, 43620, Note_on_c, 0, 69, 0
2, 43620, Note_on_c, 0, 68, 100
2, 43680, Note_on_c, 0, 68, 0
2, 43680, Note_on_c, 0, 69, 100
2, 43740, Note_on_c, 0, 69, 0
2, 43740, Note_on_c, 0, 71, 100
2, 43800, Note_on_c, 0, 71, 0
2, 43800, Note_on_c, 0, 72, 100
2, 43860, Note_on_c, 0, 72, 0
2, 43860, Note_on_c, 0, 69, 100
2, 43920, Note_on_c, 0, 69, 0
2, 43920, Note_on_c, 0, 63, 100
2, 43980, Note_on_c, 0, 63, 0
2, 43980, Note_on_c, 0, 64, 100
2, 44040, Note_on_c, 0, 64, 0
2, 44040, Note_on_c, 0, 63, 100
2, 44100, Note_on_c, 0, 63, 0
2, 44100, Note_on_c, 0, 64, 100
2, 44160, Note_on_c, 0, 64, 0
2, 44160, Note_on_c, 0, 63, 100
2, 44340, Note_on_c, 0, 63, 0
2, 44340, Note_on_c, 0, 57, 100
2, 44360, Note_on_c, 0, 57, 0
2, 44360, Note_on_c, 0, 59, 100
2, 44380, Note_on_c, 0, 59, 0
2, 44380, Note_on_c, 0, 60, 100
2, 44400, Note_on_c, 0, 60, 0
2, 44400, Note_on_c, 0, 60, 100
2, 44580, Note_on_c, 0, 60, 0
2, 44580, Note_on_c, 0, 57, 100
2, 44600, Note_on_c, 0, 57, 0
2, 44600, Note_on_c, 0, 59, 100
2, 44620, Note_on_c, 0, 59, 0
2, 44620, Note_on_c, 0, 60, 100
2, 44640, Note_on_c, 0, 60, 0
2, 44640, Note_on_c, 0, 60, 100
2, 44760, Note_on_c, 0, 60, 0
2, 44760, Note_on_c, 0, 59, 100
2, 44820, Note_on_c, 0, 59, 0
2, 44820, Note_on_c, 0, 69, 100
2, 44880, Note_on_c, 0, 69, 0
2, 44880, Pitch_bend_c, 0, 16383
2, 44880, Note_on_c, 0, 67, 100
2, 44900, Pitch_bend_c, 0, 8192
2, 44920, Pitch_bend_c, 0, 16383
2, 44940, Pitch_bend_c, 0, 8192
2, 44970, Note_on_c, 0, 67, 0
2, 44970, Note_on_c, 0, 66, 100
2, 44985, Note_on_c, 0, 66, 0
2, 44985, Note_on_c, 0, 67, 100
2, 45000, Note_on_c, 0, 67, 0
2, 45000, Note_on_c, 0, 69, 100
2, 45060, Note_on_c, 0, 69, 0
2, 45060, Note_on_c, 0, 66, 100
2, 45120, Note_on_c, 0, 66, 0
2, 45120, Note_on_c, 0, 67, 100
2, 45480, Note_on_c, 0, 67, 0
2, 45480, Note_on_c, 0, 69, 100
2, 45540, Note_on_c, 0, 69, 0
2, 45540, Note_on_c, 0, 71, 100
2, 45600, Note_on_c, 0, 71, 0
2, 45600, Note_on_c, 0, 69, 100
2, 45660, Note_on_c, 0, 69, 0
2, 45660, Note_on_c, 0, 67, 100
2, 45720, Note_on_c, 0, 67, 0
2, 45720, Note_on_c, 0, 66, 100
2, 45780, Note_on_c, 0, 66, 0
2, 45780, Note_on_c, 0, 64, 100
2, 45840, Note_on_c, 0, 64, 0
2, 45840, Note_on_c, 0, 62, 100
2, 45900, Note_on_c, 0, 62, 0
2, 45900, Note_on_c, 0, 61, 100
2, 45960, Note_on_c, 0, 61, 0
2, 45960, Note_on_c, 0, 64, 100
2, 46020, Note_on_c, 0, 64, 0
2, 46020, Note_on_c, 0, 62, 100
2, 46080, Note_on_c, 0, 62, 0
2, 46080, Note_on_c, 0, 62, 100
2, 46200, Note_on_c, 0, 62, 0
2, 46200, Note_on_c, 0, 47, 100
2, 46260, Note_on_c, 0, 47, 0
2, 46260, Note_on_c, 0, 49, 100
2, 46320, Note_on_c, 0, 49, 0
2, 46320, Note_on_c, 0, 50, 100
2, 46380, Note_on_c, 0, 50, 0
2, 46380, Note_on_c, 0, 52, 100
2, 46440, Note_on_c, 0, 52, 0
2, 46440, Note_on_c, 0, 54, 100
2, 46500, Note_on_c, 0, 54, 0
2, 46500, Note_on_c, 0, 50, 100
2, 46560, Note_on_c, 0, 50, 0
2, 46560, Note_on_c, 0, 56, 100
2, 46620, Note_on_c, 0, 56, 0
2, 46620, Note_on_c, 0, 59, 100
2, 46680, Note_on_c, 0, 59, 0
2, 46680, Note_on_c, 0, 52, 100
2, 46740, Note_on_c, 0, 52, 0
2, 46740, Note_on_c, 0, 54, 100
2, 46800, Note_on_c, 0, 54, 0
2, 46800, Note_on_c, 0, 56, 100
2, 46860, Note_on_c, 0, 56, 0
2, 46860, Note_on_c, 0, 57, 100
2, 46920, Note_on_c, 0, 57, 0
2, 46920, Note_on_c, 0, 59, 100
2, 46980, Note_on_c, 0, 59, 0
2, 46980, Note_on_c, 0, 61, 100
2, 47040, Note_on_c, 0, 61, 0
2, 47040, Note_on_c, 0, 62, 100
2, 47100, Note_on_c, 0, 62, 0
2, 47100, Note_on_c, 0, 61, 100
2, 47160, Note_on_c, 0, 61, 0
2, 47160, Note_on_c, 0, 59, 100
2, 47220, Note_on_c, 0, 59, 0
2, 47220, Note_on_c, 0, 61, 100
2, 47280, Note_on_c, 0, 61, 0
2, 47280, Note_on_c, 0, 62, 100
2, 47340, Note_on_c, 0, 62, 0
2, 47340, Note_on_c, 0, 59, 100
2, 47400, Note_on_c, 0, 59, 0
2, 47400, Note_on_c, 0, 61, 100
2, 47460, Note_on_c, 0, 61, 0
2, 47460, Note_on_c, 0, 57, 100
2, 47520, Note_on_c, 0, 57, 0
2, 47520, Note_on_c, 0, 69, 100
2, 47700, Note_on_c, 0, 69, 0
2, 47700, Note_on_c, 0, 55, 100
2, 47760, Note_on_c, 0, 55, 0
2, 47760, Note_on_c, 0, 57, 100
2, 47820, Note_on_c, 0, 57, 0
2, 47820, Note_on_c, 0, 55, 100
2, 47880, Note_on_c, 0, 55, 0
2, 47880, Note_on_c, 0, 54, 100
2, 47940, Note_on_c, 0, 54, 0
2, 47940, Note_on_c, 0, 55, 100
2, 48000, Note_on_c, 0, 55, 0
2, 48000, Note_on_c, 0, 54, 100
2, 48180, Note_on_c, 0, 54, 0
2, 48180, Note_on_c, 0, 69, 100
2, 48240, Note_on_c, 0, 69, 0
2, 48240, Note_on_c, 0, 67, 100
2, 48300, Note_on_c, 0, 67, 0
2, 48300, Note_on_c, 0, 66, 100
2, 48360, Note_on_c, 0, 66, 0
2, 48360, Note_on_c, 0, 64, 100
2, 48420, Note_on_c, 0, 64, 0
2, 48420, Note_on_c, 0, 62, 100
2, 48480, Note_on_c, 0, 62, 0
2, 48480, Note_on_c, 0, 60, 100
2, 48540, Note_on_c, 0, 60, 0
2, 48540, Note_on_c, 0, 59, 100
2, 48600, Note_on_c, 0, 59, 0
2, 48600, Note_on_c, 0, 60, 100
2, 48660, Note_on_c, 0, 60, 0
2, 48660, Note_on_c, 0, 69, 100
2, 48720, Note_on_c, 0, 69, 0
2, 48720, Note_on_c, 0, 60, 100
2, 48780, Note_on_c, 0, 60, 0
2, 48780, Note_on_c, 0, 59, 100
2, 48840, Note_on_c, 0, 59, 0
2, 48840, Note_on_c, 0, 60, 100
2, 48900, Note_on_c, 0, 60, 0
2, 48900, Note_on_c, 0, 57, 100
2, 48960, Note_on_c, 0, 57, 0
2, 48960, Note_on_c, 0, 51, 100
2, 49020, Note_on_c, 0, 51, 0
2, 49020, Note_on_c, 0, 54, 100
2, 49080, Note_on_c, 0, 54, 0
2, 49080, Note_on_c, 0, 59, 100
2, 49140, Note_on_c, 0, 59, 0
2, 49140, Note_on_c, 0, 63, 100
2, 49200, Note_on_c, 0, 63, 0
2, 49200, Note_on_c, 0, 66, 100
2, 49260, Note_on_c, 0, 66, 0
2, 49260, Note_on_c, 0, 69, 100
2, 49320, Note_on_c, 0, 69, 0
2, 49320, Note_on_c, 0, 67, 100
2, 49380, Note_on_c, 0, 67, 0
2, 49380, Note_on_c, 0, 66, 100
2, 49440, Note_on_c, 0, 66, 0
2, 49440, Note_on_c, 0, 67, 100
2, 49560, Note_on_c, 0, 67, 0
2, 49560, Note_on_c, 0, 52, 100
2, 49620, Note_on_c, 0, 52, 0
2, 49620, Note_on_c, 0, 54, 100
2, 49680, Note_on_c, 0, 54, 0
2, 49680, Note_on_c, 0, 55, 100
2, 49740, Note_on_c, 0, 55, 0
2, 49740, Note_on_c, 0, 57, 100
2, 49800, Note_on_c, 0, 57, 0
2, 49800, Note_on_c, 0, 59, 100
2, 49860, Note_on_c, 0, 59, 0
2, 49860, Note_on_c, 0, 62, 100
2, 49920, Note_on_c, 0, 62, 0
2, 49920, Note_on_c, 0, 61, 100
2, 49980, Note_on_c, 0, 61, 0
2, 49980, Note_on_c, 0, 64, 100
2, 50040, Note_on_c, 0, 64, 0
2, 50040, Note_on_c, 0, 57, 100
2, 50100, Note_on_c, 0, 57, 0
2, 50100, Note_on_c, 0, 61, 100
2, 50160, Note_on_c, 0, 61, 0
2, 50160, Note_on_c, 0, 64, 100
2, 50220, Note_on_c, 0, 64, 0
2, 50220, Note_on_c, 0, 67, 100
2, 50280, Note_on_c, 0, 67, 0
2, 50280, Note_on_c, 0, 66, 100
2, 50340, Note_on_c, 0, 66, 0
2, 50340, Note_on_c, 0, 64, 100
2, 50400, Note_on_c, 0, 64, 0
2, 50400, Note_on_c, 0, 66, 100
2, 50520, Note_on_c, 0, 66, 0
2, 50520, Note_on_c, 0, 50, 100
2, 50580, Note_on_c, 0, 50, 0
2, 50580, Note_on_c, 0, 52, 100
2, 50640, Note_on_c, 0, 52, 0
2, 50640, Note_on_c, 0, 54, 100
2, 50700, Note_on_c, 0, 54, 0
2, 50700, Note_on_c, 0, 55, 100
2, 50760, Note_on_c, 0, 55, 0
2, 50760, Note_on_c, 0, 57, 100
2, 50820, Note_on_c, 0, 57, 0
2, 50820, Note_on_c, 0, 48, 100
2, 50880, Note_on_c, 0, 48, 0
2, 50880, Note_on_c, 0, 43, 100
2, 51060, Note_on_c, 0, 43, 0
2, 51060, Note_on_c, 0, 66, 100
2, 51120, Note_on_c, 0, 66, 0
2, 51120, Note_on_c, 0, 71, 100
2, 51180, Note_on_c, 0, 71, 0
2, 51180, Note_on_c, 0, 69, 100
2, 51240, Note_on_c, 0, 69, 0
2, 51240, Note_on_c, 0, 67, 100
2, 51300, Note_on_c, 0, 67, 0
2, 51300, Note_on_c, 0, 66, 100
2, 51360, Note_on_c, 0, 66, 0
2, 51360, Note_on_c, 0, 64, 100
2, 51420, Note_on_c, 0, 64, 0
2, 51420, Note_on_c, 0, 61, 100
2, 51480, Note_on_c, 0, 61, 0
2, 51480, Note_on_c, 0, 62, 100
2, 51540, Note_on_c, 0, 62, 0
2, 51540, Note_on_c, 0, 59, 100
2, 51600, Note_on_c, 0, 59, 0
2, 51600, Note_on_c, 0, 57, 100
2, 51660, Note_on_c, 0, 57, 0
2, 51660, Note_on_c, 0, 54, 100
2, 51720, Note_on_c, 0, 54, 0
2, 51720, Note_on_c, 0, 55, 100
2, 51780, Note_on_c, 0, 55, 0
2, 51780, Note_on_c, 0, 52, 100
2, 51840, Note_on_c, 0, 52, 0
2, 51840, Note_on_c, 0, 50, 100
2, 51900, Note_on_c, 0, 50, 0
2, 51900, Note_on_c, 0, 47, 100
2, 51960, Note_on_c, 0, 47, 0
2, 51960, Note_on_c, 0, 49, 100
2, 52020, Note_on_c, 0, 49, 0
2, 52020, Note_on_c, 0, 52, 100
2, 52080, Note_on_c, 0, 52, 0
2, 52080, Note_on_c, 0, 57, 100
2, 52140, Note_on_c, 0, 57, 0
2, 52140, Note_on_c, 0, 61, 100
2, 52200, Note_on_c, 0, 61, 0
2, 52200, Note_on_c, 0, 64, 100
2, 52260, Note_on_c, 0, 64, 0
2, 52260, Note_on_c, 0, 68, 100
2, 52320, Note_on_c, 0, 68, 0
2, 52320, Note_on_c, 0, 69, 100
2, 52440, Note_on_c, 0, 69, 0
2, 52440, Note_on_c, 0, 42, 100
2, 52500, Note_on_c, 0, 42, 0
2, 52500, Note_on_c, 0, 57, 100
2, 52560, Note_on_c, 0, 57, 0
2, 52560, Note_on_c, 0, 55, 100
2, 52620, Note_on_c, 0, 55, 0
2, 52620, Note_on_c, 0, 54, 100
2, 52680, Note_on_c, 0, 54, 0
2, 52680, Note_on_c, 0, 52, 100
2, 52740, Note_on_c, 0, 52, 0
2, 52740, Note_on_c, 0, 50, 100
2, 52800, Note_on_c, 0, 50, 0
2, 52800, Note_on_c, 0, 43, 100
2, 52860, Note_on_c, 0, 43, 0
2, 52860, Note_on_c, 0, 59, 100
2, 52920, Note_on_c, 0, 59, 0
2, 52920, Note_on_c, 0, 57, 100
2, 52980, Note_on_c, 0, 57, 0
2, 52980, Note_on_c, 0, 55, 100
2, 53040, Note_on_c, 0, 55, 0
2, 53040, Note_on_c, 0, 54, 100
2, 53100, Note_on_c, 0, 54, 0
2, 53100, Note_on_c, 0, 49, 100
2, 53160, Note_on_c, 0, 49, 0
2, 53160, Note_on_c, 0, 50, 100
2, 53220, Note_on_c, 0, 50, 0
2, 53220, Note_on_c, 0, 55, 100
2, 53280, Note_on_c, 0, 55, 0
2, 53280, Note_on_c, 0, 52, 100
2, 53280, Pitch_bend_c, 0, 16383
2, 53310, Pitch_bend_c, 0, 8192
2, 53340, Pitch_bend_c, 0, 16383
2, 53370, Pitch_bend_c, 0, 8192
2, 53400, Pitch_bend_c, 0, 16383
2, 53420, Pitch_bend_c, 0, 8192
2, 53440, Pitch_bend_c, 0, 16383
2, 53460, Pitch_bend_c, 0, 8192
2, 53640, Note_on_c, 0, 52, 0
2, 53640, Note_on_c, 0, 50, 100
2, 53760, Note_on_c, 0, 50, 0
2, 53760, Note_on_c, 0, 50, 100
2, 53940, Note_on_c, 0, 50, 0
2, 53940, Note_on_c, 0, 52, 100
2, 54000, Note_on_c, 0, 52, 0
2, 54000, Note_on_c, 0, 54, 100
2, 54060, Note_on_c, 0, 54, 0
2, 54060, Note_on_c, 0, 55, 100
2, 54120, Note_on_c, 0, 55, 0
2, 54120, Note_on_c, 0, 57, 100
2, 54180, Note_on_c, 0, 57, 0
2, 54180, Note_on_c, 0, 60, 100
2, 54240, Note_on_c, 0, 60, 0
2, 54240, Note_on_c, 0, 59, 100
2, 54300, Note_on_c, 0, 59, 0
2, 54300, Note_on_c, 0, 57, 100
2, 54360, Note_on_c, 0, 57, 0
2, 54360, Note_on_c, 0, 55, 100
2, 54420, Note_on_c, 0, 55, 0
2, 54420, Note_on_c, 0, 54, 100
2, 54480, Note_on_c, 0, 54, 0
2, 54480, Note_on_c, 0, 55, 100
2, 54540, Note_on_c, 0, 55, 0
2, 54540, Note_on_c, 0, 52, 100
2, 54600, Note_on_c, 0, 52, 0
2, 54600, Note_on_c, 0, 62, 100
2, 54660, Note_on_c, 0, 62, 0
2, 54660, Note_on_c, 0, 61, 100
2, 54720, Note_on_c, 0, 61, 0
2, 54720, Note_on_c, 0, 62, 100
2, 54900, Note_on_c, 0, 62, 0
2, 54900, Note_on_c, 0, 57, 100
2, 54960, Note_on_c, 0, 57, 0
2, 54960, Note_on_c, 0, 54, 100
2, 54960, Pitch_bend_c, 0, 12288
2, 54980, Pitch_bend_c, 0, 8192
2, 55000, Pitch_bend_c, 0, 12288
2, 55020, Pitch_bend_c, 0, 8192
2, 55080, Note_on_c, 0, 54, 0
2, 55080, Note_on_c, 0, 52, 100
2, 55140, Note_on_c, 0, 52, 0
2, 55140, Note_on_c, 0, 50, 100
2, 55200, Note_on_c, 0, 50, 0
2, 55200, Note_on_c, 0, 38, 100
2, 55560, Note_on_c, 0, 38, 0
2, 55680, Note_on_c, 0, 61, 100
2, 55920, Note_on_c, 0, 61, 0
2, 56640, Note_on_c, 0, 69, 100
2, 57000, Note_on_c, 0, 69, 0
2, 57000, Note_on_c, 0, 67, 100
2, 57060, Note_on_c, 0, 67, 0
2, 57060, Note_on_c, 0, 66, 100
2, 57120, Note_on_c, 0, 66, 0
2, 57120, Note_on_c, 0, 64, 100
2, 57180, Note_on_c, 0, 64, 0
2, 57180, Note_on_c, 0, 62, 100
2, 57240, Note_on_c, 0, 62, 0
2, 57240, Note_on_c, 0, 61, 100
2, 57300, Note_on_c, 0, 61, 0
2, 57300, Note_on_c, 0, 59, 100
2, 57360, Note_on_c, 0, 59, 0
2, 57360, Note_on_c, 0, 57, 100
2, 57420, Note_on_c, 0, 57, 0
2, 57420, Note_on_c, 0, 55, 100
2, 57480, Note_on_c, 0, 55, 0
2, 57480, Note_on_c, 0, 54, 100
2, 57540, Note_on_c, 0, 54, 0
2, 57540, Note_on_c, 0, 55, 100
2, 57600, Note_on_c, 0, 55, 0
2, 57600, Pitch_bend_c, 0, 12288
2, 57600, Note_on_c, 0, 54, 100
2, 57620, Pitch_bend_c, 0, 8192
2, 57640, Pitch_bend_c, 0, 12288
2, 57660, Pitch_bend_c, 0, 8192
2, 57780, Note_on_c, 0, 54, 0
2, 57780, Note_on_c, 0, 57, 100
2, 57796, Note_on_c, 0, 57, 0
2, 57800, Note_on_c, 0, 59, 100
2, 57816, Note_on_c, 0, 59, 0
2, 57820, Note_on_c, 0, 61, 100
2, 57836, Note_on_c, 0, 61, 0
2, 57840, Note_on_c, 0, 62, 100
2, 57900, Note_on_c, 0, 62, 0
2, 57900, Note_on_c, 0, 59, 100
2, 57960, Note_on_c, 0, 59, 0
2, 57960, Note_on_c, 0, 55, 100
2, 58020, Note_on_c, 0, 55, 0
2, 58020, Note_on_c, 0, 54, 100
2, 58080, Note_on_c, 0, 54, 0
2, 58080, Note_on_c, 0, 52, 100
2, 58200, Note_on_c, 0, 52, 0
2, 58200, Note_on_c, 0, 67, 100
2, 58260, Note_on_c, 0, 67, 0
2, 58260, Note_on_c, 0, 66, 100
2, 58320, Note_on_c, 0, 66, 0
2, 58320, Note_on_c, 0, 67, 100
2, 58380, Note_on_c, 0, 67, 0
2, 58380, Note_on_c, 0, 64, 100
2, 58440, Note_on_c, 0, 64, 0
2, 58440, Note_on_c, 0, 61, 100
2, 58500, Note_on_c, 0, 61, 0
2, 58500, Note_on_c, 0, 57, 100
2, 58560, Note_on_c, 0, 57, 0
2, 58560, Note_on_c, 0, 50, 100
2, 58680, Note_on_c, 0, 50, 0
2, 58680, Note_on_c, 0, 57, 100
2, 58740, Note_on_c, 0, 57, 0
2, 58740, Note_on_c, 0, 59, 100
2, 58800, Note_on_c, 0, 59, 0
2, 58800, Note_on_c, 0, 61, 100
2, 58860, Note_on_c, 0, 61, 0
2, 58860, Note_on_c, 0, 62, 100
2, 58920, Note_on_c, 0, 62, 0
2, 58920, Note_on_c, 0, 64, 100
2, 58980, Note_on_c, 0, 64, 0
2, 58980, Note_on_c, 0, 66, 100
2, 59010, Note_on_c, 0, 66, 0
2, 59010, Note_on_c, 0, 67, 100
2, 59040, Note_on_c, 0, 67, 0
2, 59040, Note_on_c, 0, 66, 100
2, 59220, Note_on_c, 0, 66, 0
2, 59220, Note_on_c, 0, 50, 100
2, 59250, Note_on_c, 0, 50, 0
2, 59250, Note_on_c, 0, 52, 100
2, 59280, Note_on_c, 0, 52, 0
2, 59280, Note_on_c, 0, 54, 100
2, 59340, Note_on_c, 0, 54, 0
2, 59340, Note_on_c, 0, 50, 100
2, 59400, Note_on_c, 0, 50, 0
2, 59400, Note_on_c, 0, 52, 100
2, 59460, Note_on_c, 0, 52, 0
2, 59460, Note_on_c, 0, 54, 100
2, 59520, Note_on_c, 0, 54, 0
2, 59520, Note_on_c, 0, 36, 100
2, 59880, Note_on_c, 0, 36, 0
2, 59880, Note_on_c, 0, 57, 100
2, 60000, Note_on_c, 0, 57, 0
2, 60000, Note_on_c, 0, 59, 100
2, 60060, Note_on_c, 0, 59, 0
2, 60060, Note_on_c, 0, 57, 100
2, 60120, Note_on_c, 0, 57, 0
2, 60120, Note_on_c, 0, 59, 100
2, 60180, Note_on_c, 0, 59, 0
2, 60180, Note_on_c, 0, 60, 100
2, 60240, Note_on_c, 0, 60, 0
2, 60240, Note_on_c, 0, 59, 100
2, 60300, Note_on_c, 0, 59, 0
2, 60300, Note_on_c, 0, 60, 100
2, 60360, Note_on_c, 0, 60, 0
2, 60360, Pitch_bend_c, 0, 16383
2, 60360, Note_on_c, 0, 60, 100
2, 60375, Pitch_bend_c, 0, 8192
2, 60390, Pitch_bend_c, 0, 16383
2, 60405, Pitch_bend_c, 0, 8192
2, 60420, Note_on_c, 0, 60, 0
2, 60420, Note_on_c, 0, 59, 100
2, 60450, Note_on_c, 0, 59, 0
2, 60450, Note_on_c, 0, 60, 100
2, 60480, Note_on_c, 0, 60, 0
2, 60480, Note_on_c, 0, 62, 100
2, 60840, Note_on_c, 0, 62, 0
2, 61440, Note_on_c, 0, 45, 100
2, 61680, Note_on_c, 0, 45, 0
2, 61680, Note_on_c, 0, 44, 100
2, 61860, Note_on_c, 0, 44, 0
2, 61860, Note_on_c, 0, 66, 100
2, 61920, Note_on_c, 0, 66, 0
2, 61920, Note_on_c, 0, 66, 100
2, 61980, Note_on_c, 0, 66, 0
2, 61980, Note_on_c, 0, 65, 100
2, 62040, Note_on_c, 0, 65, 0
2, 62040, Note_on_c, 0, 68, 100
2, 62100, Note_on_c, 0, 68, 0
2, 62100, Note_on_c, 0, 66, 100
2, 62160, Note_on_c, 0, 66, 0
2, 62160, Note_on_c, 0, 69, 100
2, 62220, Note_on_c, 0, 69, 0
2, 62220, Note_on_c, 0, 68, 100
2, 62280, Note_on_c, 0, 68, 0
2, 62280, Note_on_c, 0, 71, 100
2, 62340, Note_on_c, 0, 71, 0
2, 62340, Note_on_c, 0, 62, 100
2, 62400, Note_on_c, 0, 62, 0
2, 62400, Note_on_c, 0, 53, 100
2, 62514, Note_on_c, 0, 53, 0
2, 62520, Note_on_c, 0, 61, 100
2, 62580, Note_on_c, 0, 61, 0
2, 62580, Note_on_c, 0, 71, 100
2, 62640, Note_on_c, 0, 71, 0
2, 62640, Note_on_c, 0, 69, 100
2, 62700, Note_on_c, 0, 69, 0
2, 62700, Note_on_c, 0, 71, 100
2, 62760, Note_on_c, 0, 71, 0
2, 62760, Note_on_c, 0, 68, 100
2, 62874, Note_on_c, 0, 68, 0
2, 62880, Note_on_c, 0, 69, 100
2, 63060, Note_on_c, 0, 69, 0
2, 63060, Note_on_c, 0, 68, 100
2, 63120, Note_on_c, 0, 68, 0
2, 63120, Note_on_c, 0, 66, 100
2, 63180, Note_on_c, 0, 66, 0
2, 63180, Note_on_c, 0, 64, 100
2, 63240, Note_on_c, 0, 64, 0
2, 63240, Note_on_c, 0, 62, 100
2, 63300, Note_on_c, 0, 62, 0
2, 63300, Note_on_c, 0, 64, 100
2, 63330, Note_on_c, 0, 64, 0
2, 63330, Note_on_c, 0, 61, 100
2, 63360, Note_on_c, 0, 61, 0
2, 63360, Note_on_c, 0, 62, 100
2, 63540, Note_on_c, 0, 62, 0
2, 63540, Note_on_c, 0, 61, 100
2, 63600, Note_on_c, 0, 61, 0
2, 63600, Note_on_c, 0, 59, 100
2, 63660, Note_on_c, 0, 59, 0
2, 63660, Note_on_c, 0, 57, 100
2, 63720, Note_on_c, 0, 57, 0
2, 63720, Note_on_c, 0, 55, 100
2, 63780, Note_on_c, 0, 55, 0
2, 63780, Note_on_c, 0, 57, 100
2, 63810, Note_on_c, 0, 57, 0
2, 63810, Note_on_c, 0, 54, 100
2, 63840, Note_on_c, 0, 54, 0
2, 63840, Note_on_c, 0, 55, 100
2, 64020, Note_on_c, 0, 55, 0
2, 64020, Note_on_c, 0, 50, 100
2, 64036, Note_on_c, 0, 50, 0
2, 64040, Note_on_c, 0, 52, 100
2, 64056, Note_on_c, 0, 52, 0
2, 64060, Note_on_c, 0, 54, 100
2, 64076, Note_on_c, 0, 54, 0
2, 64080, Note_on_c, 0, 55, 100
2, 64140, Note_on_c, 0, 55, 0
2, 64140, Note_on_c, 0, 57, 100
2, 64200, Note_on_c, 0, 57, 0
2, 64200, Note_on_c, 0, 59, 100
2, 64260, Note_on_c, 0, 59, 0
2, 64260, Note_on_c, 0, 61, 100
2, 64290, Note_on_c, 0, 61, 0
2, 64290, Note_on_c, 0, 62, 100
2, 64320, Note_on_c, 0, 62, 0
2, 64320, Note_on_c, 0, 62, 100
2, 64440, Note_on_c, 0, 62, 0
2, 64440, Pitch_bend_c, 0, 16383
2, 64440, Note_on_c, 0, 53, 100
2, 64460, Pitch_bend_c, 0, 8192
2, 64480, Pitch_bend_c, 0, 16383
2, 64500, Pitch_bend_c, 0, 8192
2, 64680, Note_on_c, 0, 53, 0
2, 64680, Note_on_c, 0, 54, 100
2, 64740, Note_on_c, 0, 54, 0
2, 64740, Note_on_c, 0, 56, 100
2, 64800, Note_on_c, 0, 56, 0
2, 64800, Note_on_c, 0, 49, 100
2, 64860, Note_on_c, 0, 49, 0
2, 64860, Note_on_c, 0, 47, 100
2, 64980, Note_on_c, 0, 47, 0
2, 64980, Note_on_c, 0, 50, 100
2, 65040, Note_on_c, 0, 50, 0
2, 65040, Note_on_c, 0, 49, 100
2, 65160, Note_on_c, 0, 49, 0
2, 65160, Note_on_c, 0, 50, 100
2, 65220, Note_on_c, 0, 50, 0
2, 65220, Note_on_c, 0, 47, 100
2, 65280, Note_on_c, 0, 47, 0
2, 65280, Note_on_c, 0, 45, 100
2, 65340, Note_on_c, 0, 45, 0
2, 65340, Note_on_c, 0, 66, 100
2, 65400, Note_on_c, 0, 66, 0
2, 65400, Note_on_c, 0, 68, 100
2, 65460, Note_on_c, 0, 68, 0
2, 65460, Note_on_c, 0, 69, 100
2, 65520, Note_on_c, 0, 69, 0
2, 65520, Note_on_c, 0, 59, 100
2, 65580, Note_on_c, 0, 59, 0
2, 65580, Note_on_c, 0, 69, 100
2, 65640, Note_on_c, 0, 69, 0
2, 65640, Note_on_c, 0, 68, 100
2, 65700, Note_on_c, 0, 68, 0
2, 65700, Note_on_c, 0, 71, 100
2, 65760, Note_on_c, 0, 71, 0
2, 65760, Note_on_c, 0, 66, 100
2, 66000, Note_on_c, 0, 66, 0
2, 66000, Pitch_bend_c, 0, 12288
2, 66000, Note_on_c, 0, 65, 100
2, 66020, Pitch_bend_c, 0, 8192
2, 66040, Pitch_bend_c, 0, 12288
2, 66060, Pitch_bend_c, 0, 8192
2, 66180, Note_on_c, 0, 65, 0
2, 66180, Note_on_c, 0, 66, 100
2, 66240, Note_on_c, 0, 66, 0
2, 66240, Note_on_c, 0, 66, 100
2, 66420, Note_on_c, 0, 66, 0
2, 66420, Note_on_c, 0, 61, 100
2, 66480, Note_on_c, 0, 61, 0
2, 66480, Note_on_c, 0, 66, 100
2, 66540, Note_on_c, 0, 66, 0
2, 66540, Note_on_c, 0, 68, 100
2, 66600, Note_on_c, 0, 68, 0
2, 66600, Note_on_c, 0, 69, 100
2, 66660, Note_on_c, 0, 69, 0
2, 66660, Note_on_c, 0, 68, 100
2, 66720, Note_on_c, 0, 68, 0
2, 66720, Note_on_c, 0, 69, 100
2, 66780, Note_on_c, 0, 69, 0
2, 66780, Note_on_c, 0, 71, 100
2, 66840, Note_on_c, 0, 71, 0
2, 66840, Note_on_c, 0, 72, 100
2, 66900, Note_on_c, 0, 72, 0
2, 66900, Note_on_c, 0, 69, 100
2, 66960, Note_on_c, 0, 69, 0
2, 66960, Note_on_c, 0, 63, 100
2, 67020, Note_on_c, 0, 63, 0
2, 67020, Note_on_c, 0, 64, 100
2, 67080, Note_on_c, 0, 64, 0
2, 67080, Note_on_c, 0, 63, 100
2, 67140, Note_on_c, 0, 63, 0
2, 67140, Note_on_c, 0, 64, 100
2, 67200, Note_on_c, 0, 64, 0
2, 67200, Note_on_c, 0, 63, 100
2, 67380, Note_on_c, 0, 63, 0
2, 67380, Note_on_c, 0, 57, 100
2, 67400, Note_on_c, 0, 57, 0
2, 67400, Note_on_c, 0, 59, 100
2, 67420, Note_on_c, 0, 59, 0
2, 67420, Note_on_c, 0, 60, 100
2, 67440, Note_on_c, 0, 60, 0
2, 67440, Note_on_c, 0, 60, 100
2, 67620, Note_on_c, 0, 60, 0
2, 67620, Note_on_c, 0, 57, 100
2, 67640, Note_on_c, 0, 57, 0
2, 67640, Note_on_c, 0, 59, 100
2, 67660, Note_on_c, 0, 59, 0
2, 67660, Note_on_c, 0, 60, 100
2, 67680, Note_on_c, 0, 60, 0
2, 67680, Note_on_c, 0, 60, 100
2, 67800, Note_on_c, 0, 60, 0
2, 67800, Note_on_c, 0, 59, 100
2, 67860, Note_on_c, 0, 59, 0
2, 67860, Note_on_c, 0, 69, 100
2, 67920, Note_on_c, 0, 69, 0
2, 67920, Pitch_bend_c, 0, 16383
2, 67920, Note_on_c, 0, 67, 100
2, 67940, Pitch_bend_c, 0, 8192
2, 67960, Pitch_bend_c, 0, 16383
2, 67980, Pitch_bend_c, 0, 8192
2, 68010, Note_on_c, 0, 67, 0
2, 68010, Note_on_c, 0, 66, 100
2, 68025, Note_on_c, 0, 66, 0
2, 68025, Note_on_c, 0, 67, 100
2, 68040, Note_on_c, 0, 67, 0
2, 68040, Note_on_c, 0, 69, 100
2, 68100, Note_on_c, 0, 69, 0
2, 68100, Note_on_c, 0, 66, 100
2, 68160, Note_on_c, 0, 66, 0
2, 68160, Note_on_c, 0, 67, 100
2, 68520, Note_on_c, 0, 67, 0
2, 68520, Note_on_c, 0, 69, 100
2, 68580, Note_on_c, 0, 69, 0
2, 68580, Note_on_c, 0, 71, 100
2, 68640, Note_on_c, 0, 71, 0
2, 68640, Note_on_c, 0, 69, 100
2, 68700, Note_on_c, 0, 69, 0
2, 68700, Note_on_c, 0, 67, 100
2, 68760, Note_on_c, 0, 67, 0
2, 68760, Note_on_c, 0, 66, 100
2, 68820, Note_on_c, 0, 66, 0
2, 68820, Note_on_c, 0, 64, 100
2, 68880, Note_on_c, 0, 64, 0
2, 68880, Note_on_c, 0, 62, 100
2, 68940, Note_on_c, 0, 62, 0
2, 68940, Note_on_c, 0, 61, 100
2, 69000, Note_on_c, 0, 61, 0
2, 69000, Note_on_c, 0, 64, 100
2, 69060, Note_on_c, 0, 64, 0
2, 69060, Note_on_c, 0, 62, 100
2, 69120, Note_on_c, 0, 62, 0
2, 69120, Note_on_c, 0, 62, 100
2, 69240, Note_on_c, 0, 62, 0
2, 69240, Note_on_c, 0, 47, 100
2, 69300, Note_on_c, 0, 47, 0
2, 69300, Note_on_c, 0, 49, 100
2, 69360, Note_on_c, 0, 49, 0
2, 69360, Note_on_c, 0, 50, 100
2, 69420, Note_on_c, 0, 50, 0
2, 69420, Note_on_c, 0, 52, 100
2, 69480, Note_on_c, 0, 52, 0
2, 69480, Note_on_c, 0, 54, 100
2, 69540, Note_on_c, 0, 54, 0
2, 69540, Note_on_c, 0, 50, 100
2, 69600, Note_on_c, 0, 50, 0
2, 69600, Note_on_c, 0, 56, 100
2, 69660, Note_on_c, 0, 56, 0
2, 69660, Note_on_c, 0, 59, 100
2, 69720, Note_on_c, 0, 59, 0
2, 69720, Note_on_c, 0, 52, 100
2, 69780, Note_on_c, 0, 52, 0
2, 69780, Note_on_c, 0, 54, 100
2, 69840, Note_on_c, 0, 54, 0
2, 69840, Note_on_c, 0, 56, 100
2, 69900, Note_on_c, 0, 56, 0
2, 69900, Note_on_c, 0, 57, 100
2, 69960, Note_on_c, 0, 57, 0
2, 69960, Note_on_c, 0, 59, 100
2, 70020, Note_on_c, 0, 59, 0
2, 70020, Note_on_c, 0, 61, 100
2, 70080, Note_on_c, 0, 61, 0
2, 70080, Note_on_c, 0, 62, 100
2, 70140, Note_on_c, 0, 62, 0
2, 70140, Note_on_c, 0, 61, 100
2, 70200, Note_on_c, 0, 61, 0
2, 70200, Note_on_c, 0, 59, 100
2, 70260, Note_on_c, 0, 59, 0
2, 70260, Note_on_c, 0, 61, 100
2, 70320, Note_on_c, 0, 61, 0
2, 70320, Note_on_c, 0, 62, 100
2, 70380, Note_on_c, 0, 62, 0
2, 70380, Note_on_c, 0, 59, 100
2, 70440, Note_on_c, 0, 59, 0
2, 70440, Note_on_c, 0, 61, 100
2, 70500, Note_on_c, 0, 61, 0
2, 70500, Note_on_c, 0, 57, 100
2, 70560, Note_on_c, 0, 57, 0
2, 70560, Note_on_c, 0, 69, 100
2, 70740, Note_on_c, 0, 69, 0
2, 70740, Note_on_c, 0, 55, 100
2, 70800, Note_on_c, 0, 55, 0
2, 70800, Note_on_c, 0, 57, 100
2, 70860, Note_on_c, 0, 57, 0
2, 70860, Note_on_c, 0, 55, 100
2, 70920, Note_on_c, 0, 55, 0
2, 70920, Note_on_c, 0, 54, 100
2, 70980, Note_on_c, 0, 54, 0
2, 70980, Note_on_c, 0, 55, 100
2, 71040, Note_on_c, 0, 55, 0
2, 71040, Note_on_c, 0, 54, 100
2, 71220, Note_on_c, 0, 54, 0
2, 71220, Note_on_c, 0, 69, 100
2, 71280, Note_on_c, 0, 69, 0
2, 71280, Note_on_c, 0, 67, 100
2, 71340, Note_on_c, 0, 67, 0
2, 71340, Note_on_c, 0, 66, 100
2, 71400, Note_on_c, 0, 66, 0
2, 71400, Note_on_c, 0, 64, 100
2, 71460, Note_on_c, 0, 64, 0
2, 71460, Note_on_c, 0, 62, 100
2, 71520, Note_on_c, 0, 62, 0
2, 71520, Note_on_c, 0, 60, 100
2, 71580, Note_on_c, 0, 60, 0
2, 71580, Note_on_c, 0, 59, 100
2, 71640, Note_on_c, 0, 59, 0
2, 71640, Note_on_c, 0, 60, 100
2, 71700, Note_on_c, 0, 60, 0
2, 71700, Note_on_c, 0, 69, 100
2, 71760, Note_on_c, 0, 69, 0
2, 71760, Note_on_c, 0, 60, 100
2, 71820, Note_on_c, 0, 60, 0
2, 71820, Note_on_c, 0, 59, 100
2, 71880, Note_on_c, 0, 59, 0
2, 71880, Note_on_c, 0, 60, 100
2, 71940, Note_on_c, 0, 60, 0
2, 71940, Note_on_c, 0, 57, 100
2, 72000, Note_on_c, 0, 57, 0
2, 72000, Note_on_c, 0, 51, 100
2, 72060, Note_on_c, 0, 51, 0
2, 72060, Note_on_c, 0, 54, 100
2, 72120, Note_on_c, 0, 54, 0
2, 72120, Note_on_c, 0, 59, 100
2, 72180, Note_on_c, 0, 59, 0
2, 72180, Note_on_c, 0, 63, 100
2, 72240, Note_on_c, 0, 63, 0
2, 72240, Note_on_c, 0, 66, 100
2, 72300, Note_on_c, 0, 66, 0
2, 72300, Note_on_c, 0, 69, 100
2, 72360, Note_on_c, 0, 69, 0
2, 72360, Note_on_c, 0, 67, 100
2, 72420, Note_on_c, 0, 67, 0
2, 72420, Note_on_c, 0, 66, 100
2, 72480, Note_on_c, 0, 66, 0
2, 72480, Note_on_c, 0, 67, 100
2, 72600, Note_on_c, 0, 67, 0
2, 72600, Note_on_c, 0, 52, 100
2, 72660, Note_on_c, 0, 52, 0
2, 72660, Note_on_c, 0, 54, 100
2, 72720, Note_on_c, 0, 54, 0
2, 72720, Note_on_c, 0, 55, 100
2, 72780, Note_on_c, 0, 55, 0
2, 72780, Note_on_c, 0, 57, 100
2, 72840, Note_on_c, 0, 57, 0
2, 72840, Note_on_c, 0, 59, 100
2, 72900, Note_on_c, 0, 59, 0
2, 72900, Note_on_c, 0, 62, 100
2, 72960, Note_on_c, 0, 62, 0
2, 72960, Note_on_c, 0, 61, 100
2, 73020, Note_on_c, 0, 61, 0
2, 73020, Note_on_c, 0, 64, 100
2, 73080, Note_on_c, 0, 64, 0
2, 73080, Note_on_c, 0, 57, 100
2, 73140, Note_on_c, 0, 57, 0
2, 73140, Note_on_c, 0, 61, 100
2, 73200, Note_on_c, 0, 61, 0
2, 73200, Note_on_c, 0, 64, 100
2, 73260, Note_on_c, 0, 64, 0
2, 73260, Note_on_c, 0, 67, 100
2, 73320, Note_on_c, 0, 67, 0
2, 73320, Note_on_c, 0, 66, 100
2, 73380, Note_on_c, 0, 66, 0
2, 73380, Note_on_c, 0, 64, 100
2, 73440, Note_on_c, 0, 64, 0
2, 73440, Note_on_c, 0, 66, 100
2, 73560, Note_on_c, 0, 66, 0
2, 73560, Note_on_c, 0, 50, 100
2, 73620, Note_on_c, 0, 50, 0
2, 73620, Note_on_c, 0, 52, 100
2, 73680, Note_on_c, 0, 52, 0
2, 73680, Note_on_c, 0, 54, 100
2, 73740, Note_on_c, 0, 54, 0
2, 73740, Note_on_c, 0, 55, 100
2, 73800, Note_on_c, 0, 55, 0
2, 73800, Note_on_c, 0, 57, 100
2, 73860, Note_on_c, 0, 57, 0
2, 73860, Note_on_c, 0, 48, 100
2, 73920, Note_on_c, 0, 48, 0
2, 73920, Note_on_c, 0, 43, 100
2, 74100, Note_on_c, 0, 43, 0
2, 74100, Note_on_c, 0, 66, 100
2, 74160, Note_on_c, 0, 66, 0
2, 74160, Note_on_c, 0, 71, 100
2, 74220, Note_on_c, 0, 71, 0
2, 74220, Note_on_c, 0, 69, 100
2, 74280, Note_on_c, 0, 69, 0
2, 74280, Note_on_c, 0, 67, 100
2, 74340, Note_on_c, 0, 67, 0
2, 74340, Note_on_c, 0, 66, 100
2, 74400, Note_on_c, 0, 66, 0
2, 74400, Note_on_c, 0, 64, 100
2, 74460, Note_on_c, 0, 64, 0
2, 74460, Note_on_c, 0, 61, 100
2, 74520, Note_on_c, 0, 61, 0
2, 74520, Note_on_c, 0, 62, 100
2, 74580, Note_on_c, 0, 62, 0
2, 74580, Note_on_c, 0, 59, 100
2, 74640, Note_on_c, 0, 59, 0
2, 74640, Note_on_c, 0, 57, 100
2, 74700, Note_on_c, 0, 57, 0
2, 74700, Note_on_c, 0, 54, 100
2, 74760, Note_on_c, 0, 54, 0
2, 74760, Note_on_c, 0, 55, 100
2, 74820, Note_on_c, 0, 55, 0
2, 74820, Note_on_c, 0, 52, 100
2, 74880, Note_on_c, 0, 52, 0
2, 74880, Note_on_c, 0, 50, 100
2, 74940, Note_on_c, 0, 50, 0
2, 74940, Note_on_c, 0, 47, 100
2, 75000, Note_on_c, 0, 47, 0
2, 75000, Note_on_c, 0, 49, 100
2, 75060, Note_on_c, 0, 49, 0
2, 75060, Note_on_c, 0, 52, 100
2, 75120, Note_on_c, 0, 52, 0
2, 75120, Note_on_c, 0, 57, 100
2, 75180, Note_on_c, 0, 57, 0
2, 75180, Note_on_c, 0, 61, 100
2, 75240, Note_on_c, 0, 61, 0
2, 75240, Note_on_c, 0, 64, 100
2, 75300, Note_on_c, 0, 64, 0
2, 75300, Note_on_c, 0, 68, 100
2, 75360, Note_on_c, 0, 68, 0
2, 75360, Note_on_c, 0, 69, 100
2, 75480, Note_on_c, 0, 69, 0
2, 75480, Note_on_c, 0, 42, 100
2, 75540, Note_on_c, 0, 42, 0
2, 75540, Note_on_c, 0, 57, 100
2, 75600, Note_on_c, 0, 57, 0
2, 75600, Note_on_c, 0, 55, 100
2, 75660, Note_on_c, 0, 55, 0
2, 75660, Note_on_c, 0, 54, 100
2, 75720, Note_on_c, 0, 54, 0
2, 75720, Note_on_c, 0, 52, 100
2, 75780, Note_on_c, 0, 52, 0
2, 75780, Note_on_c, 0, 50, 100
2, 75840, Note_on_c, 0, 50, 0
2, 75840, Note_on_c, 0, 43, 100
2, 75900, Note_on_c, 0, 43, 0
2, 75900, Note_on_c, 0, 59, 100
2, 75960, Note_on_c, 0, 59, 0
2, 75960, Note_on_c, 0, 57, 100
2, 76020, Note_on_c, 0, 57, 0
2, 76020, Note_on_c, 0, 55, 100
2, 76080, Note_on_c, 0, 55, 0
2, 76080, Note_on_c, 0, 54, 100
2, 76140, Note_on_c, 0, 54, 0
2, 76140, Note_on_c, 0, 49, 100
2, 76200, Note_on_c, 0, 49, 0
2, 76200, Note_on_c, 0, 50, 100
2, 76260, Note_on_c, 0, 50, 0
2, 76260, Note_on_c, 0, 55, 100
2, 76320, Note_on_c, 0, 55, 0
2, 76320, Note_on_c, 0, 52, 100
2, 76320, Pitch_bend_c, 0, 16383
2, 76350, Pitch_bend_c, 0, 8192
2, 76380, Pitch_bend_c, 0, 16383
2, 76410, Pitch_bend_c, 0, 8192
2, 76440, Pitch_bend_c, 0, 16383
2, 76460, Pitch_bend_c, 0, 8192
2, 76480, Pitch_bend_c, 0, 16383
2, 76500, Pitch_bend_c, 0, 8192
2, 76680, Note_on_c, 0, 52, 0
2, 76680, Note_on_c, 0, 50, 100
2, 76800, Note_on_c, 0, 50, 0
2, 76800, Note_on_c, 0, 50, 100
2, 76980, Note_on_c, 0, 50, 0
2, 76980, Note_on_c, 0, 52, 100
2, 77040, Note_on_c, 0, 52, 0
2, 77040, Note_on_c, 0, 54, 100
2, 77100, Note_on_c, 0, 54, 0
2, 77100, Note_on_c, 0, 55, 100
2, 77160, Note_on_c, 0, 55, 0
2, 77160, Note_on_c, 0, 57, 100
2, 77220, Note_on_c, 0, 57, 0
2, 77220, Note_on_c, 0, 60, 100
2, 77280, Note_on_c, 0, 60, 0
2, 77280, Note_on_c, 0, 59, 100
2, 77340, Note_on_c, 0, 59, 0
2, 77340, Note_on_c, 0, 57, 100
2, 77400, Note_on_c, 0, 57, 0
2, 77400, Note_on_c, 0, 55, 100
2, 77460, Note_on_c, 0, 55, 0
2, 77460, Note_on_c, 0, 54, 100
2, 77520, Note_on_c, 0, 54, 0
2, 77520, Note_on_c, 0, 55, 100
2, 77580, Note_on_c, 0, 55, 0
2, 77580, Note_on_c, 0, 52, 100
2, 77640, Note_on_c, 0, 52, 0
2, 77640, Note_on_c, 0, 62, 100
2, 77700, Note_on_c, 0, 62, 0
2, 77700, Note_on_c, 0, 61, 100
2, 77760, Note_on_c, 0, 61, 0
2, 77760, Note_on_c, 0, 62, 100
2, 77940, Note_on_c, 0, 62, 0
2, 77940, Note_on_c, 0, 57, 100
2, 78000, Note_on_c, 0, 57, 0
2, 78000, Note_on_c, 0, 54, 100
2, 78000, Pitch_bend_c, 0, 12288
2, 78020, Pitch_bend_c, 0, 8192
2, 78040, Pitch_bend_c, 0, 12288
2, 78060, Pitch_bend_c, 0, 8192
2, 78120, Note_on_c, 0, 54, 0
2, 78120, Note_on_c, 0, 52, 100
2, 78180, Note_on_c, 0, 52, 0
2, 78180, Note_on_c, 0, 50, 100
2, 78240, Note_on_c, 0, 50, 0
2, 78240, Note_on_c, 0, 38, 100
2, 78600, Note_on_c, 0, 38, 0
2, 78600, End_track
3, 0, Start_track
3, 0, MIDI_port, 0
3, 0, Title_t, "--------------------------------------"
3, 0, Program_c, 1, 42
3, 0, Control_c, 1, 7, 100
3, 0, Control_c, 1, 10, 69
3, 1920, Note_on_c, 1, 57, 100
3, 2400, Note_on_c, 1, 57, 0
3, 3840, Note_on_c, 1, 54, 100
3, 4200, Note_on_c, 1, 54, 0
3, 4320, Note_on_c, 1, 59, 100
3, 4560, Note_on_c, 1, 59, 0
3, 4800, Note_on_c, 1, 59, 100
3, 4920, Note_on_c, 1, 59, 0
3, 5280, Note_on_c, 1, 57, 100
3, 5760, Note_on_c, 1, 57, 0
3, 5760, Note_on_c, 1, 57, 100
3, 6000, Note_on_c, 1, 57, 0
3, 6240, Note_on_c, 1, 74, 100
3, 6600, Note_on_c, 1, 74, 0
3, 6600, Note_on_c, 1, 74, 100
3, 6720, Note_on_c, 1, 74, 0
3, 8640, Note_on_c, 1, 54, 100
3, 8820, Note_on_c, 1, 54, 0
3, 8820, Note_on_c, 1, 56, 100
3, 8880, Note_on_c, 1, 56, 0
3, 8880, Note_on_c, 1, 57, 100
3, 8940, Note_on_c, 1, 57, 0
3, 8940, Note_on_c, 1, 59, 100
3, 9000, Note_on_c, 1, 59, 0
3, 9000, Note_on_c, 1, 61, 100
3, 9060, Note_on_c, 1, 61, 0
3, 9060, Note_on_c, 1, 57, 100
3, 9120, Note_on_c, 1, 57, 0
3, 9120, Pitch_bend_c, 1, 12288
3, 9120, Note_on_c, 1, 51, 100
3, 9140, Pitch_bend_c, 1, 8192
3, 9160, Pitch_bend_c, 1, 12288
3, 9180, Pitch_bend_c, 1, 8192
3, 9300, Note_on_c, 1, 51, 0
3, 9600, Note_on_c, 1, 59, 100
3, 9720, Note_on_c, 1, 59, 0
3, 10080, Note_on_c, 1, 61, 100
3, 10440, Note_on_c, 1, 61, 0
3, 10440, Note_on_c, 1, 61, 100
3, 10560, Note_on_c, 1, 61, 0
3, 10560, Note_on_c, 1, 61, 100
3, 10680, Note_on_c, 1, 61, 0
3, 11520, Note_on_c, 1, 62, 100
3, 11640, Note_on_c, 1, 62, 0
3, 12480, Note_on_c, 1, 61, 100
3, 12600, Note_on_c, 1, 61, 0
3, 14880, Note_on_c, 1, 52, 100
3, 15360, Note_on_c, 1, 52, 0
3, 15360, Note_on_c, 1, 57, 100
3, 15540, Note_on_c, 1, 57, 0
3, 17280, Note_on_c, 1, 57, 100
3, 17760, Note_on_c, 1, 57, 0
3, 19200, Note_on_c, 1, 54, 100
3, 19560, Note_on_c, 1, 54, 0
3, 19680, Note_on_c, 1, 59, 100
3, 19920, Note_on_c, 1, 59, 0
3, 20160, Note_on_c, 1, 59, 100
3, 20280, Note_on_c, 1, 59, 0
3, 20640, Note_on_c, 1, 57, 100
3, 21120, Note_on_c, 1, 57, 0
3, 21120, Note_on_c, 1, 57, 100
3, 21360, Note_on_c, 1, 57, 0
3, 21600, Note_on_c, 1, 74, 100
3, 21960, Note_on_c, 1, 74, 0
3, 21960, Note_on_c, 1, 74, 100
3, 22080, Note_on_c, 1, 74, 0
3, 24000, Note_on_c, 1, 54, 100
3, 24180, Note_on_c, 1, 54, 0
3, 24180, Note_on_c, 1, 56, 100
3, 24240, Note_on_c, 1, 56, 0
3, 24240, Note_on_c, 1, 57, 100
3, 24300, Note_on_c, 1, 57, 0
3, 24300, Note_on_c, 1, 59, 100
3, 24360, Note_on_c, 1, 59, 0
3, 24360, Note_on_c, 1, 61, 100
3, 24420, Note_on_c, 1, 61, 0
3, 24420, Note_on_c, 1, 57, 100
3, 24480, Note_on_c, 1, 57, 0
3, 24480, Pitch_bend_c, 1, 12288
3, 24480, Note_on_c, 1, 51, 100
3, 24500, Pitch_bend_c, 1, 8192
3, 24520, Pitch_bend_c, 1, 12288
3, 24540, Pitch_bend_c, 1, 8192
3, 24660, Note_on_c, 1, 51, 0
3, 24960, Note_on_c, 1, 59, 100
3, 25080, Note_on_c, 1, 59, 0
3, 25440, Note_on_c, 1, 61, 100
3, 25800, Note_on_c, 1, 61, 0
3, 25800, Note_on_c, 1, 61, 100
3, 25920, Note_on_c, 1, 61, 0
3, 25920, Note_on_c, 1, 61, 100
3, 26040, Note_on_c, 1, 61, 0
3, 26880, Note_on_c, 1, 62, 100
3, 27000, Note_on_c, 1, 62, 0
3, 27840, Note_on_c, 1, 61, 100
3, 27960, Note_on_c, 1, 61, 0
3, 30240, Note_on_c, 1, 52, 100
3, 30720, Note_on_c, 1, 52, 0
3, 30720, Note_on_c, 1, 57, 100
3, 30900, Note_on_c, 1, 57, 0
3, 32520, Note_on_c, 1, 64, 100
3, 32640, Note_on_c, 1, 64, 0
3, 32640, Note_on_c, 1, 64, 100
3, 32940, Note_on_c, 1, 64, 0
3, 32940, Note_on_c, 1, 67, 100
3, 33000, Note_on_c, 1, 67, 0
3, 33000, Note_on_c, 1, 66, 100
3, 33060, Note_on_c, 1, 66, 0
3, 33060, Note_on_c, 1, 64, 100
3, 33120, Note_on_c, 1, 64, 0
3, 33120, Note_on_c, 1, 62, 100
3, 33180, Note_on_c, 1, 62, 0
3, 33180, Note_on_c, 1, 61, 100
3, 33240, Note_on_c, 1, 61, 0
3, 33240, Note_on_c, 1, 59, 100
3, 33300, Note_on_c, 1, 59, 0
3, 33300, Note_on_c, 1, 61, 100
3, 33360, Note_on_c, 1, 61, 0
3, 33360, Note_on_c, 1, 62, 100
3, 33420, Note_on_c, 1, 62, 0
3, 33420, Note_on_c, 1, 61, 100
3, 33480, Note_on_c, 1, 61, 0
3, 33480, Note_on_c, 1, 59, 100
3, 33540, Note_on_c, 1, 59, 0
3, 33540, Note_on_c, 1, 61, 100
3, 33570, Note_on_c, 1, 61, 0
3, 33570, Note_on_c, 1, 57, 100
3, 33600, Note_on_c, 1, 57, 0
3, 33600, Note_on_c, 1, 61, 100
3, 33960, Note_on_c, 1, 61, 0
3, 37440, Note_on_c, 1, 47, 100
3, 37800, Note_on_c, 1, 47, 0
3, 37800, Note_on_c, 1, 47, 100
3, 37920, Note_on_c, 1, 47, 0
3, 37920, Note_on_c, 1, 48, 100
3, 37980, Note_on_c, 1, 48, 0
3, 37980, Note_on_c, 1, 47, 100
3, 38040, Note_on_c, 1, 47, 0
3, 38040, Note_on_c, 1, 48, 100
3, 38100, Note_on_c, 1, 48, 0
3, 38100, Note_on_c, 1, 50, 100
3, 38160, Note_on_c, 1, 50, 0
3, 38160, Note_on_c, 1, 48, 100
3, 38190, Note_on_c, 1, 48, 0
3, 38190, Note_on_c, 1, 50, 100
3, 38220, Note_on_c, 1, 50, 0
3, 38220, Pitch_bend_c, 1, 16383
3, 38220, Note_on_c, 1, 50, 100
3, 38240, Pitch_bend_c, 1, 8192
3, 38260, Pitch_bend_c, 1, 16383
3, 38280, Pitch_bend_c, 1, 8192
3, 38310, Note_on_c, 1, 50, 0
3, 38310, Note_on_c, 1, 48, 100
3, 38340, Note_on_c, 1, 48, 0
3, 38340, Note_on_c, 1, 50, 100
3, 38370, Note_on_c, 1, 50, 0
3, 38370, Note_on_c, 1, 52, 100
3, 38400, Note_on_c, 1, 52, 0
3, 39840, Note_on_c, 1, 54, 100
3, 40020, Note_on_c, 1, 54, 0
3, 40320, Note_on_c, 1, 54, 100
3, 40500, Note_on_c, 1, 54, 0
3, 42720, Note_on_c, 1, 61, 100
3, 42960, Note_on_c, 1, 61, 0
3, 44160, Note_on_c, 1, 54, 100
3, 44520, Note_on_c, 1, 54, 0
3, 45120, Note_on_c, 1, 59, 100
3, 45480, Note_on_c, 1, 59, 0
3, 53280, Note_on_c, 1, 45, 100
3, 53760, Note_on_c, 1, 45, 0
3, 55560, Note_on_c, 1, 64, 100
3, 55680, Note_on_c, 1, 64, 0
3, 55680, Note_on_c, 1, 64, 100
3, 55980, Note_on_c, 1, 64, 0
3, 55980, Note_on_c, 1, 67, 100
3, 56040, Note_on_c, 1, 67, 0
3, 56040, Note_on_c, 1, 66, 100
3, 56100, Note_on_c, 1, 66, 0
3, 56100, Note_on_c, 1, 64, 100
3, 56160, Note_on_c, 1, 64, 0
3, 56160, Note_on_c, 1, 62, 100
3, 56220, Note_on_c, 1, 62, 0
3, 56220, Note_on_c, 1, 61, 100
3, 56280, Note_on_c, 1, 61, 0
3, 56280, Note_on_c, 1, 59, 100
3, 56340, Note_on_c, 1, 59, 0
3, 56340, Note_on_c, 1, 61, 100
3, 56400, Note_on_c, 1, 61, 0
3, 56400, Note_on_c, 1, 62, 100
3, 56460, Note_on_c, 1, 62, 0
3, 56460, Note_on_c, 1, 61, 100
3, 56520, Note_on_c, 1, 61, 0
3, 56520, Note_on_c, 1, 59, 100
3, 56580, Note_on_c, 1, 59, 0
3, 56580, Note_on_c, 1, 61, 100
3, 56610, Note_on_c, 1, 61, 0
3, 56610, Note_on_c, 1, 57, 100
3, 56640, Note_on_c, 1, 57, 0
3, 56640, Note_on_c, 1, 61, 100
3, 57000, Note_on_c, 1, 61, 0
3, 60480, Note_on_c, 1, 47, 100
3, 60840, Note_on_c, 1, 47, 0
3, 60840, Note_on_c, 1, 47, 100
3, 60960, Note_on_c, 1, 47, 0
3, 60960, Note_on_c, 1, 48, 100
3, 61020, Note_on_c, 1, 48, 0
3, 61020, Note_on_c, 1, 47, 100
3, 61080, Note_on_c, 1, 47, 0
3, 61080, Note_on_c, 1, 48, 100
3, 61140, Note_on_c, 1, 48, 0
3, 61140, Note_on_c, 1, 50, 100
3, 61200, Note_on_c, 1, 50, 0
3, 61200, Note_on_c, 1, 48, 100
3, 61230, Note_on_c, 1, 48, 0
3, 61230, Note_on_c, 1, 50, 100
3, 61260, Note_on_c, 1, 50, 0
3, 61260, Pitch_bend_c, 1, 16383
3, 61260, Note_on_c, 1, 50, 100
3, 61280, Pitch_bend_c, 1, 8192
3, 61300, Pitch_bend_c, 1, 16383
3, 61320, Pitch_bend_c, 1, 8192
3, 61350, Note_on_c, 1, 50, 0
3, 61350, Note_on_c, 1, 48, 100
3, 61380, Note_on_c, 1, 48, 0
3, 61380, Note_on_c, 1, 50, 100
3, 61410, Note_on_c, 1, 50, 0
3, 61410, Note_on_c, 1, 52, 100
3, 61440, Note_on_c, 1, 52, 0
3, 62880, Note_on_c, 1, 54, 100
3, 63060, Note_on_c, 1, 54, 0
3, 63360, Note_on_c, 1, 54, 100
3, 63540, Note_on_c, 1, 54, 0
3, 65760, Note_on_c, 1, 61, 100
3, 66000, Note_on_c, 1, 61, 0
3, 67200, Note_on_c, 1, 54, 100
3, 67560, Note_on_c, 1, 54, 0
3, 68160, Note_on_c, 1, 59, 100
3, 68520, Note_on_c, 1, 59, 0
3, 76320, Note_on_c, 1, 45, 100
3, 76800, Note_on_c, 1, 45, 0
3, 76800, End_track
4, 0, Start_track
4, 0, MIDI_port, 0
4, 0, Title_t, "Johann Sebastian Bach  (1685-1750)"
4, 0, Program_c, 2, 42
4, 0, Control_c, 2, 7, 100
4, 0, Control_c, 2, 10, 49
4, 1920, Note_on_c, 2, 50, 100
4, 2400, Note_on_c, 2, 50, 0
4, 2880, Note_on_c, 2, 52, 100
4, 3360, Note_on_c, 2, 52, 0
4, 4800, Note_on_c, 2, 52, 100
4, 4920, Note_on_c, 2, 52, 0
4, 5760, Note_on_c, 2, 50, 100
4, 6000, Note_on_c, 2, 50, 0
4, 8640, Note_on_c, 2, 61, 100
4, 8760, Note_on_c, 2, 61, 0
4, 9600, Note_on_c, 2, 52, 100
4, 9720, Note_on_c, 2, 52, 0
4, 10560, Note_on_c, 2, 54, 100
4, 10680, Note_on_c, 2, 54, 0
4, 11520, Note_on_c, 2, 52, 100
4, 11640, Note_on_c, 2, 52, 0
4, 12480, Note_on_c, 2, 50, 100
4, 12600, Note_on_c, 2, 50, 0
4, 17280, Note_on_c, 2, 50, 100
4, 17760, Note_on_c, 2, 50, 0
4, 18240, Note_on_c, 2, 52, 100
4, 18720, Note_on_c, 2, 52, 0
4, 20160, Note_on_c, 2, 52, 100
4, 20280, Note_on_c, 2, 52, 0
4, 21120, Note_on_c, 2, 50, 100
4, 21360, Note_on_c, 2, 50, 0
4, 24000, Note_on_c, 2, 61, 100
4, 24120, Note_on_c, 2, 61, 0
4, 24960, Note_on_c, 2, 52, 100
4, 25080, Note_on_c, 2, 52, 0
4, 25920, Note_on_c, 2, 54, 100
4, 26040, Note_on_c, 2, 54, 0
4, 26880, Note_on_c, 2, 52, 100
4, 27000, Note_on_c, 2, 52, 0
4, 27840, Note_on_c, 2, 50, 100
4, 27960, Note_on_c, 2, 50, 0
4, 32640, Note_on_c, 2, 52, 100
4, 32880, Note_on_c, 2, 52, 0
4, 33600, Note_on_c, 2, 52, 100
4, 33960, Note_on_c, 2, 52, 0
4, 37440, Note_on_c, 2, 55, 100
4, 37800, Note_on_c, 2, 55, 0
4, 39840, Note_on_c, 2, 61, 100
4, 40020, Note_on_c, 2, 61, 0
4, 40320, Note_on_c, 2, 47, 100
4, 40500, Note_on_c, 2, 47, 0
4, 44160, Note_on_c, 2, 47, 100
4, 44520, Note_on_c, 2, 47, 0
4, 45120, Note_on_c, 2, 52, 100
4, 45480, Note_on_c, 2, 52, 0
4, 55680, Note_on_c, 2, 52, 100
4, 55920, Note_on_c, 2, 52, 0
4, 56640, Note_on_c, 2, 52, 100
4, 57000, Note_on_c, 2, 52, 0
4, 60480, Note_on_c, 2, 55, 100
4, 60840, Note_on_c, 2, 55, 0
4, 62880, Note_on_c, 2, 61, 100
4, 63060, Note_on_c, 2, 61, 0
4, 63360, Note_on_c, 2, 47, 100
4, 63540, Note_on_c, 2, 47, 0
4, 67200, Note_on_c, 2, 47, 100
4, 67560, Note_on_c, 2, 47, 0
4, 68160, Note_on_c, 2, 52, 100
4, 68520, Note_on_c, 2, 52, 0
4, 68520, End_track
5, 0, Start_track
5, 0, MIDI_port, 0
5, 0, Title_t, "Six Suites for Solo Cello"
5, 0, Program_c, 3, 42
5, 0, Control_c, 3, 7, 100
5, 0, Control_c, 3, 10, 79
5, 32640, Note_on_c, 3, 45, 100
5, 32880, Note_on_c, 3, 45, 0
5, 33600, Note_on_c, 3, 43, 100
5, 33960, Note_on_c, 3, 43, 0
5, 55680, Note_on_c, 3, 45, 100
5, 55920, Note_on_c, 3, 45, 0
5, 56640, Note_on_c, 3, 43, 100
5, 57000, Note_on_c, 3, 43, 0
5, 57000, End_track
6, 0, Start_track
6, 0, MIDI_port, 0
6, 0, Title_t, "--------------------------------------"
6, 0, End_track
7, 0, Start_track
7, 0, MIDI_port, 0
7, 0, Title_t, "Suite No. 6 in D major - BWV 1012"
7, 0, End_track
8, 0, Start_track
8, 0, MIDI_port, 0
8, 0, Title_t, "2nd Movement: Allemande"
8, 0, End_track
9, 0, Start_track
9, 0, MIDI_port, 0
9, 0, Title_t, "--------------------------------------"
9, 0, End_track
10, 0, Start_track
10, 0, MIDI_port, 0
10, 0, Title_t, "Sequenced with Cakewalk Pro Audio by"
10, 0, End_track
11, 0, Start_track
11, 0, MIDI_port, 0
11, 0, Title_t, "David J. Grossman - dave@unpronounceable.com"
11, 0, End_track
12, 0, Start_track
12, 0, MIDI_port, 0
12, 0, Title_t, "This and other Bach MIDI files can be found at:"
12, 0, End_track
13, 0, Start_track
13, 0, MIDI_port, 0
13, 0, Title_t, "Dave's J.S. Bach Page"
13, 0, End_track
14, 0, Start_track
14, 0, MIDI_port, 0
14, 0, Title_t, "http://www.unpronounceable.com/bach"
14, 0, End_track
15, 0, Start_track
15, 0, MIDI_port, 0
15, 0, Title_t, "--------------------------------------"
15, 0, End_track
16, 0, Start_track
16, 0, MIDI_port, 0
16, 0, Title_t, "Original Filename: cs6-2all.mid"
16, 0, End_track
17, 0, Start_track
17, 0, MIDI_port, 0
17, 0, Title_t, "Last Modified: February 22, 1997"
17, 0, End_track
0, 0, End_of_file
