0, 0, Header, 1, 17, 480
1, 0, Start_track
1, 0, Title_t, "untitled"
1, 0, Copyright_t, "Copyright © 1995 by David Grossman"
1, 0, Text_t, "David Grossman"
1, 0, SMPTE_offset, 96, 0, 3, 0, 0
1, 0, Time_signature, 3, 1, 48, 8
1, 0, Key_signature, 2, "major"
1, 0, Tempo, 545455
1, 0, Marker_t, "A"
1, 23040, Marker_t, "A'"
1, 46080, Marker_t, "B"
1, 115200, Marker_t, "B'"
1, 115200, End_track
2, 0, Start_track
2, 0, MIDI_port, 0
2, 0, Title_t, "Solo Cello"
2, 0, Program_c, 0, 42
2, 0, Control_c, 0, 7, 100
2, 0, Control_c, 0, 10, 59
2, 0, Note_on_c, 0, 57, 100
2, 960, Note_on_c, 0, 57, 0
2, 960, Note_on_c, 0, 57, 100
2, 2400, Note_on_c, 0, 57, 0
2, 2880, Note_on_c, 0, 55, 100
2, 3840, Note_on_c, 0, 55, 0
2, 3840, Note_on_c, 0, 54, 100
2, 5280, Note_on_c, 0, 54, 0
2, 5760, Note_on_c, 0, 54, 100
2, 6720, Note_on_c, 0, 54, 0
2, 6720, Note_on_c, 0, 52, 100
2, 8160, Note_on_c, 0, 52, 0
2, 8640, Note_on_c, 0, 50, 100
2, 9600, Note_on_c, 0, 50, 0
2, 11520, Note_on_c, 0, 50, 100
2, 12480, Note_on_c, 0, 50, 0
2, 14400, Note_on_c, 0, 52, 100
2, 15360, Note_on_c, 0, 52, 0
2, 15360, Note_on_c, 0, 52, 100
2, 16800, Note_on_c, 0, 52, 0
2, 17280, Note_on_c, 0, 52, 100
2, 18240, Note_on_c, 0, 52, 0
2, 18240, Note_on_c, 0, 50, 100
2, 19200, Note_on_c, 0, 50, 0
2, 19200, Note_on_c, 0, 52, 100
2, 20160, Note_on_c, 0, 52, 0
2, 20160, Note_on_c, 0, 52, 100
2, 21120, Note_on_c, 0, 52, 0
2, 23040, Note_on_c, 0, 57, 100
2, 24000, Note_on_c, 0, 57, 0
2, 24000, Note_on_c, 0, 57, 100
2, 25440, Note_on_c, 0, 57, 0
2, 25920, Note_on_c, 0, 55, 100
2, 26880, Note_on_c, 0, 55, 0
2, 26880, Note_on_c, 0, 54, 100
2, 28320, Note_on_c, 0, 54, 0
2, 28800, Note_on_c, 0, 54, 100
2, 29760, Note_on_c, 0, 54, 0
2, 29760, Note_on_c, 0, 52, 100
2, 31200, Note_on_c, 0, 52, 0
2, 31680, Note_on_c, 0, 50, 100
2, 32640, Note_on_c, 0, 50, 0
2, 34560, Note_on_c, 0, 50, 100
2, 35520, Note_on_c, 0, 50, 0
2, 37440, Note_on_c, 0, 52, 100
2, 38400, Note_on_c, 0, 52, 0
2, 38400, Note_on_c, 0, 52, 100
2, 39840, Note_on_c, 0, 52, 0
2, 40320, Note_on_c, 0, 52, 100
2, 41280, Note_on_c, 0, 52, 0
2, 41280, Note_on_c, 0, 50, 100
2, 42240, Note_on_c, 0, 50, 0
2, 42240, Note_on_c, 0, 52, 100
2, 43200, Note_on_c, 0, 52, 0
2, 43200, Note_on_c, 0, 52, 100
2, 44160, Note_on_c, 0, 52, 0
2, 46080, Note_on_c, 0, 52, 100
2, 47040, Note_on_c, 0, 52, 0
2, 47040, Note_on_c, 0, 52, 100
2, 48480, Note_on_c, 0, 52, 0
2, 48960, Note_on_c, 0, 54, 100
2, 49440, Note_on_c, 0, 54, 0
2, 51840, Note_on_c, 0, 51, 100
2, 52320, Note_on_c, 0, 51, 0
2, 54240, Note_on_c, 0, 51, 100
2, 54720, Note_on_c, 0, 51, 0
2, 54720, Note_on_c, 0, 52, 100
2, 55680, Note_on_c, 0, 52, 0
2, 57600, Note_on_c, 0, 57, 100
2, 58560, Note_on_c, 0, 57, 0
2, 59040, Note_on_c, 0, 62, 100
2, 59520, Note_on_c, 0, 62, 0
2, 59520, Note_on_c, 0, 64, 100
2, 60000, Note_on_c, 0, 64, 0
2, 60000, Note_on_c, 0, 55, 100
2, 60480, Note_on_c, 0, 55, 0
2, 60480, Note_on_c, 0, 54, 100
2, 60960, Note_on_c, 0, 54, 0
2, 60960, Note_on_c, 0, 64, 100
2, 61440, Note_on_c, 0, 64, 0
2, 61440, Note_on_c, 0, 62, 100
2, 61920, Note_on_c, 0, 62, 0
2, 61920, Note_on_c, 0, 72, 100
2, 62400, Note_on_c, 0, 72, 0
2, 62400, Note_on_c, 0, 71, 100
2, 63360, Note_on_c, 0, 71, 0
2, 63360, Note_on_c, 0, 47, 100
2, 64320, Note_on_c, 0, 47, 0
2, 64320, Note_on_c, 0, 48, 100
2, 65280, Note_on_c, 0, 48, 0
2, 65280, Note_on_c, 0, 50, 100
2, 66240, Note_on_c, 0, 50, 0
2, 66240, Note_on_c, 0, 50, 100
2, 67200, Note_on_c, 0, 50, 0
2, 69120, Note_on_c, 0, 55, 100
2, 69600, Note_on_c, 0, 55, 0
2, 69600, Note_on_c, 0, 59, 100
2, 70080, Note_on_c, 0, 59, 0
2, 70080, Note_on_c, 0, 59, 100
2, 70560, Note_on_c, 0, 59, 0
2, 74880, Note_on_c, 0, 54, 100
2, 75360, Note_on_c, 0, 54, 0
2, 75360, Note_on_c, 0, 57, 100
2, 75840, Note_on_c, 0, 57, 0
2, 75840, Note_on_c, 0, 57, 100
2, 76320, Note_on_c, 0, 57, 0
2, 80640, Note_on_c, 0, 52, 100
2, 81120, Note_on_c, 0, 52, 0
2, 81120, Note_on_c, 0, 54, 100
2, 81600, Note_on_c, 0, 54, 0
2, 81600, Note_on_c, 0, 54, 100
2, 82080, Note_on_c, 0, 54, 0
2, 82080, Note_on_c, 0, 52, 100
2, 82560, Note_on_c, 0, 52, 0
2, 82560, Note_on_c, 0, 52, 100
2, 83040, Note_on_c, 0, 52, 0
2, 83040, Note_on_c, 0, 50, 100
2, 83520, Note_on_c, 0, 50, 0
2, 83520, Note_on_c, 0, 50, 100
2, 84000, Note_on_c, 0, 50, 0
2, 84000, Note_on_c, 0, 52, 100
2, 84480, Note_on_c, 0, 52, 0
2, 84480, Note_on_c, 0, 52, 100
2, 84960, Note_on_c, 0, 52, 0
2, 84960, Note_on_c, 0, 50, 100
2, 85440, Note_on_c, 0, 50, 0
2, 85440, Note_on_c, 0, 50, 100
2, 85920, Note_on_c, 0, 50, 0
2, 85920, Note_on_c, 0, 49, 100
2, 86400, Note_on_c, 0, 49, 0
2, 86400, Note_on_c, 0, 49, 100
2, 86880, Note_on_c, 0, 49, 0
2, 88320, Note_on_c, 0, 50, 100
2, 88800, Note_on_c, 0, 50, 0
2, 89280, Note_on_c, 0, 52, 100
2, 89760, Note_on_c, 0, 52, 0
2, 91680, Note_on_c, 0, 55, 100
2, 92160, Note_on_c, 0, 55, 0
2, 92160, Note_on_c, 0, 54, 100
2, 92640, Note_on_c, 0, 54, 0
2, 92640, Note_on_c, 0, 57, 100
2, 93120, Note_on_c, 0, 57, 0
2, 93120, Note_on_c, 0, 57, 100
2, 93600, Note_on_c, 0, 57, 0
2, 93600, Note_on_c, 0, 54, 100
2, 94080, Note_on_c, 0, 54, 0
2, 94080, Note_on_c, 0, 54, 100
2, 94560, Note_on_c, 0, 54, 0
2, 94560, Note_on_c, 0, 52, 100
2, 95040, Note_on_c, 0, 52, 0
2, 95040, Note_on_c, 0, 52, 100
2, 95520, Note_on_c, 0, 52, 0
2, 95520, Note_on_c, 0, 55, 100
2, 96000, Note_on_c, 0, 55, 0
2, 96000, Note_on_c, 0, 55, 100
2, 96480, Note_on_c, 0, 55, 0
2, 96480, Note_on_c, 0, 52, 100
2, 96960, Note_on_c, 0, 52, 0
2, 96960, Note_on_c, 0, 52, 100
2, 97440, Note_on_c, 0, 52, 0
2, 97440, Note_on_c, 0, 53, 100
2, 97920, Note_on_c, 0, 53, 0
2, 97920, Note_on_c, 0, 53, 100
2, 98400, Note_on_c, 0, 53, 0
2, 98400, Note_on_c, 0, 57, 100
2, 98880, Note_on_c, 0, 57, 0
2, 98880, Note_on_c, 0, 57, 100
2, 99360, Note_on_c, 0, 57, 0
2, 99360, Note_on_c, 0, 53, 100
2, 99840, Note_on_c, 0, 53, 0
2, 99840, Note_on_c, 0, 53, 100
2, 100320, Note_on_c, 0, 53, 0
2, 100320, Note_on_c, 0, 52, 100
2, 100800, Note_on_c, 0, 52, 0
2, 100800, Note_on_c, 0, 52, 100
2, 101280, Note_on_c, 0, 52, 0
2, 101760, Note_on_c, 0, 54, 100
2, 103200, Note_on_c, 0, 54, 0
2, 103680, Note_on_c, 0, 54, 100
2, 104160, Note_on_c, 0, 54, 0
2, 105600, Note_on_c, 0, 60, 100
2, 106080, Note_on_c, 0, 60, 0
2, 106560, Note_on_c, 0, 43, 100
2, 107040, Note_on_c, 0, 43, 0
2, 109440, Note_on_c, 0, 43, 100
2, 110400, Note_on_c, 0, 43, 0
2, 110400, Note_on_c, 0, 45, 100
2, 111360, Note_on_c, 0, 45, 0
2, 112320, Note_on_c, 0, 45, 100
2, 113280, Note_on_c, 0, 45, 0
2, 115200, Note_on_c, 0, 52, 100
2, 116160, Note_on_c, 0, 52, 0
2, 116160, Note_on_c, 0, 52, 100
2, 117600, Note_on_c, 0, 52, 0
2, 118080, Note_on_c, 0, 54, 100
2, 118560, Note_on_c, 0, 54, 0
2, 120960, Note_on_c, 0, 51, 100
2, 121440, Note_on_c, 0, 51, 0
2, 123360, Note_on_c, 0, 51, 100
2, 123840, Note_on_c, 0, 51, 0
2, 123840, Note_on_c, 0, 52, 100
2, 124800, Note_on_c, 0, 52, 0
2, 126720, Note_on_c, 0, 57, 100
2, 127680, Note_on_c, 0, 57, 0
2, 128160, Note_on_c, 0, 62, 100
2, 128640, Note_on_c, 0, 62, 0
2, 128640, Note_on_c, 0, 64, 100
2, 129120, Note_on_c, 0, 64, 0
2, 129120, Note_on_c, 0, 55, 100
2, 129600, Note_on_c, 0, 55, 0
2, 129600, Note_on_c, 0, 54, 100
2, 130080, Note_on_c, 0, 54, 0
2, 130080, Note_on_c, 0, 64, 100
2, 130560, Note_on_c, 0, 64, 0
2, 130560, Note_on_c, 0, 62, 100
2, 131040, Note_on_c, 0, 62, 0
2, 131040, Note_on_c, 0, 72, 100
2, 131520, Note_on_c, 0, 72, 0
2, 131520, Note_on_c, 0, 71, 100
2, 132480, Note_on_c, 0, 71, 0
2, 132480, Note_on_c, 0, 47, 100
2, 133440, Note_on_c, 0, 47, 0
2, 133440, Note_on_c, 0, 48, 100
2, 134400, Note_on_c, 0, 48, 0
2, 134400, Note_on_c, 0, 50, 100
2, 135360, Note_on_c, 0, 50, 0
2, 135360, Note_on_c, 0, 50, 100
2, 136320, Note_on_c, 0, 50, 0
2, 138240, Note_on_c, 0, 55, 100
2, 138720, Note_on_c, 0, 55, 0
2, 138720, Note_on_c, 0, 59, 100
2, 139200, Note_on_c, 0, 59, 0
2, 139200, Note_on_c, 0, 59, 100
2, 139680, Note_on_c, 0, 59, 0
2, 144000, Note_on_c, 0, 54, 100
2, 144480, Note_on_c, 0, 54, 0
2, 144480, Note_on_c, 0, 57, 100
2, 144960, Note_on_c, 0, 57, 0
2, 144960, Note_on_c, 0, 57, 100
2, 145440, Note_on_c, 0, 57, 0
2, 149760, Note_on_c, 0, 52, 100
2, 150240, Note_on_c, 0, 52, 0
2, 150240, Note_on_c, 0, 54, 100
2, 150720, Note_on_c, 0, 54, 0
2, 150720, Note_on_c, 0, 54, 100
2, 151200, Note_on_c, 0, 54, 0
2, 151200, Note_on_c, 0, 52, 100
2, 151680, Note_on_c, 0, 52, 0
2, 151680, Note_on_c, 0, 52, 100
2, 152160, Note_on_c, 0, 52, 0
2, 152160, Note_on_c, 0, 50, 100
2, 152640, Note_on_c, 0, 50, 0
2, 152640, Note_on_c, 0, 50, 100
2, 153120, Note_on_c, 0, 50, 0
2, 153120, Note_on_c, 0, 52, 100
2, 153600, Note_on_c, 0, 52, 0
2, 153600, Note_on_c, 0, 52, 100
2, 154080, Note_on_c, 0, 52, 0
2, 154080, Note_on_c, 0, 50, 100
2, 154560, Note_on_c, 0, 50, 0
2, 154560, Note_on_c, 0, 50, 100
2, 155040, Note_on_c, 0, 50, 0
2, 155040, Note_on_c, 0, 49, 100
2, 155520, Note_on_c, 0, 49, 0
2, 155520, Note_on_c, 0, 49, 100
2, 156000, Note_on_c, 0, 49, 0
2, 157440, Note_on_c, 0, 50, 100
2, 157920, Note_on_c, 0, 50, 0
2, 158400, Note_on_c, 0, 52, 100
2, 158880, Note_on_c, 0, 52, 0
2, 160800, Note_on_c, 0, 55, 100
2, 161280, Note_on_c, 0, 55, 0
2, 161280, Note_on_c, 0, 54, 100
2, 161760, Note_on_c, 0, 54, 0
2, 161760, Note_on_c, 0, 57, 100
2, 162240, Note_on_c, 0, 57, 0
2, 162240, Note_on_c, 0, 57, 100
2, 162720, Note_on_c, 0, 57, 0
2, 162720, Note_on_c, 0, 54, 100
2, 163200, Note_on_c, 0, 54, 0
2, 163200, Note_on_c, 0, 54, 100
2, 163680, Note_on_c, 0, 54, 0
2, 163680, Note_on_c, 0, 52, 100
2, 164160, Note_on_c, 0, 52, 0
2, 164160, Note_on_c, 0, 52, 100
2, 164640, Note_on_c, 0, 52, 0
2, 164640, Note_on_c, 0, 55, 100
2, 165120, Note_on_c, 0, 55, 0
2, 165120, Note_on_c, 0, 55, 100
2, 165600, Note_on_c, 0, 55, 0
2, 165600, Note_on_c, 0, 52, 100
2, 166080, Note_on_c, 0, 52, 0
2, 166080, Note_on_c, 0, 52, 100
2, 166560, Note_on_c, 0, 52, 0
2, 166560, Note_on_c, 0, 53, 100
2, 167040, Note_on_c, 0, 53, 0
2, 167040, Note_on_c, 0, 53, 100
2, 167520, Note_on_c, 0, 53, 0
2, 167520, Note_on_c, 0, 57, 100
2, 168000, Note_on_c, 0, 57, 0
2, 168000, Note_on_c, 0, 57, 100
2, 168480, Note_on_c, 0, 57, 0
2, 168480, Note_on_c, 0, 53, 100
2, 168960, Note_on_c, 0, 53, 0
2, 168960, Note_on_c, 0, 53, 100
2, 169440, Note_on_c, 0, 53, 0
2, 169440, Note_on_c, 0, 52, 100
2, 169920, Note_on_c, 0, 52, 0
2, 169920, Note_on_c, 0, 52, 100
2, 170400, Note_on_c, 0, 52, 0
2, 170880, Note_on_c, 0, 54, 100
2, 172320, Note_on_c, 0, 54, 0
2, 172800, Note_on_c, 0, 54, 100
2, 173280, Note_on_c, 0, 54, 0
2, 174720, Note_on_c, 0, 60, 100
2, 175200, Note_on_c, 0, 60, 0
2, 175680, Note_on_c, 0, 43, 100
2, 176160, Note_on_c, 0, 43, 0
2, 178560, Note_on_c, 0, 43, 100
2, 179520, Note_on_c, 0, 43, 0
2, 179520, Note_on_c, 0, 45, 100
2, 180480, Note_on_c, 0, 45, 0
2, 181440, Note_on_c, 0, 45, 100
2, 182400, Note_on_c, 0, 45, 0
2, 182400, End_track
3, 0, Start_track
3, 0, MIDI_port, 0
3, 0, Title_t, "--------------------------------------"
3, 0, Program_c, 1, 42
3, 0, Control_c, 1, 7, 100
3, 0, Control_c, 1, 10, 69
3, 0, Note_on_c, 1, 66, 100
3, 960, Note_on_c, 1, 66, 0
3, 960, Note_on_c, 1, 66, 100
3, 2400, Note_on_c, 1, 66, 0
3, 2400, Note_on_c, 1, 67, 100
3, 2880, Note_on_c, 1, 67, 0
3, 2880, Note_on_c, 1, 64, 100
3, 3360, Note_on_c, 1, 64, 0
3, 3360, Note_on_c, 1, 61, 100
3, 3840, Note_on_c, 1, 61, 0
3, 3840, Note_on_c, 1, 62, 100
3, 5280, Note_on_c, 1, 62, 0
3, 5280, Note_on_c, 1, 71, 100
3, 5760, Note_on_c, 1, 71, 0
3, 5760, Note_on_c, 1, 69, 100
3, 6240, Note_on_c, 1, 69, 0
3, 6240, Note_on_c, 1, 66, 100
3, 6720, Note_on_c, 1, 66, 0
3, 6720, Note_on_c, 1, 67, 100
3, 8160, Note_on_c, 1, 67, 0
3, 8160, Note_on_c, 1, 69, 100
3, 8640, Note_on_c, 1, 69, 0
3, 8640, Note_on_c, 1, 67, 100
3, 9120, Note_on_c, 1, 67, 0
3, 9120, Note_on_c, 1, 66, 100
3, 9600, Note_on_c, 1, 66, 0
3, 9600, Note_on_c, 1, 67, 100
3, 10080, Note_on_c, 1, 67, 0
3, 10080, Note_on_c, 1, 64, 100
3, 10560, Note_on_c, 1, 64, 0
3, 10560, Note_on_c, 1, 66, 100
3, 11520, Note_on_c, 1, 66, 0
3, 11520, Note_on_c, 1, 66, 100
3, 12480, Note_on_c, 1, 66, 0
3, 12480, Note_on_c, 1, 68, 100
3, 13920, Note_on_c, 1, 68, 0
3, 13920, Note_on_c, 1, 69, 100
3, 14400, Note_on_c, 1, 69, 0
3, 14400, Note_on_c, 1, 71, 100
3, 14880, Note_on_c, 1, 71, 0
3, 23040, Note_on_c, 1, 66, 100
3, 24000, Note_on_c, 1, 66, 0
3, 24000, Note_on_c, 1, 66, 100
3, 25440, Note_on_c, 1, 66, 0
3, 25440, Note_on_c, 1, 67, 100
3, 25920, Note_on_c, 1, 67, 0
3, 25920, Note_on_c, 1, 64, 100
3, 26400, Note_on_c, 1, 64, 0
3, 26400, Note_on_c, 1, 61, 100
3, 26880, Note_on_c, 1, 61, 0
3, 26880, Note_on_c, 1, 62, 100
3, 28320, Note_on_c, 1, 62, 0
3, 28320, Note_on_c, 1, 71, 100
3, 28800, Note_on_c, 1, 71, 0
3, 28800, Note_on_c, 1, 69, 100
3, 29280, Note_on_c, 1, 69, 0
3, 29280, Note_on_c, 1, 66, 100
3, 29760, Note_on_c, 1, 66, 0
3, 29760, Note_on_c, 1, 67, 100
3, 31200, Note_on_c, 1, 67, 0
3, 31200, Note_on_c, 1, 69, 100
3, 31680, Note_on_c, 1, 69, 0
3, 31680, Note_on_c, 1, 67, 100
3, 32160, Note_on_c, 1, 67, 0
3, 32160, Note_on_c, 1, 66, 100
3, 32640, Note_on_c, 1, 66, 0
3, 32640, Note_on_c, 1, 67, 100
3, 33120, Note_on_c, 1, 67, 0
3, 33120, Note_on_c, 1, 64, 100
3, 33600, Note_on_c, 1, 64, 0
3, 33600, Note_on_c, 1, 66, 100
3, 34560, Note_on_c, 1, 66, 0
3, 34560, Note_on_c, 1, 66, 100
3, 35520, Note_on_c, 1, 66, 0
3, 35520, Note_on_c, 1, 68, 100
3, 36960, Note_on_c, 1, 68, 0
3, 36960, Note_on_c, 1, 69, 100
3, 37440, Note_on_c, 1, 69, 0
3, 37440, Note_on_c, 1, 71, 100
3, 37920, Note_on_c, 1, 71, 0
3, 46080, Note_on_c, 1, 61, 100
3, 47040, Note_on_c, 1, 61, 0
3, 47040, Note_on_c, 1, 61, 100
3, 48480, Note_on_c, 1, 61, 0
3, 48960, Note_on_c, 1, 57, 100
3, 49440, Note_on_c, 1, 57, 0
3, 51840, Note_on_c, 1, 60, 100
3, 52320, Note_on_c, 1, 60, 0
3, 52320, Note_on_c, 1, 57, 100
3, 52800, Note_on_c, 1, 57, 0
3, 52800, Note_on_c, 1, 59, 100
3, 53280, Note_on_c, 1, 59, 0
3, 53280, Note_on_c, 1, 66, 100
3, 53520, Note_on_c, 1, 66, 0
3, 53520, Note_on_c, 1, 67, 100
3, 53760, Note_on_c, 1, 67, 0
3, 53760, Note_on_c, 1, 69, 100
3, 54240, Note_on_c, 1, 69, 0
3, 54720, Note_on_c, 1, 69, 100
3, 55200, Note_on_c, 1, 69, 0
3, 55200, Note_on_c, 1, 66, 100
3, 55680, Note_on_c, 1, 66, 0
3, 55680, Note_on_c, 1, 67, 100
3, 57120, Note_on_c, 1, 67, 0
3, 57120, Note_on_c, 1, 67, 100
3, 57600, Note_on_c, 1, 67, 0
3, 57600, Note_on_c, 1, 67, 100
3, 58080, Note_on_c, 1, 67, 0
3, 58080, Note_on_c, 1, 66, 100
3, 58560, Note_on_c, 1, 66, 0
3, 58560, Note_on_c, 1, 72, 100
3, 59520, Note_on_c, 1, 72, 0
3, 62400, Note_on_c, 1, 62, 100
3, 63360, Note_on_c, 1, 62, 0
3, 63360, Note_on_c, 1, 62, 100
3, 63840, Note_on_c, 1, 62, 0
3, 63840, Note_on_c, 1, 64, 100
3, 64320, Note_on_c, 1, 64, 0
3, 64320, Note_on_c, 1, 64, 100
3, 64800, Note_on_c, 1, 64, 0
3, 64800, Note_on_c, 1, 66, 100
3, 65280, Note_on_c, 1, 66, 0
3, 65280, Note_on_c, 1, 66, 100
3, 65760, Note_on_c, 1, 66, 0
3, 65760, Note_on_c, 1, 67, 100
3, 66240, Note_on_c, 1, 67, 0
3, 66240, Note_on_c, 1, 67, 100
3, 67200, Note_on_c, 1, 67, 0
3, 67200, Note_on_c, 1, 67, 100
3, 68640, Note_on_c, 1, 67, 0
3, 68640, Note_on_c, 1, 71, 100
3, 69120, Note_on_c, 1, 71, 0
3, 69120, Note_on_c, 1, 71, 100
3, 69600, Note_on_c, 1, 71, 0
3, 69600, Note_on_c, 1, 67, 100
3, 70080, Note_on_c, 1, 67, 0
3, 70080, Note_on_c, 1, 67, 100
3, 70560, Note_on_c, 1, 67, 0
3, 70560, Note_on_c, 1, 64, 100
3, 71040, Note_on_c, 1, 64, 0
3, 71040, Note_on_c, 1, 64, 100
3, 71520, Note_on_c, 1, 64, 0
3, 71520, Note_on_c, 1, 61, 100
3, 72000, Note_on_c, 1, 61, 0
3, 72000, Note_on_c, 1, 61, 100
3, 72480, Note_on_c, 1, 61, 0
3, 72480, Note_on_c, 1, 57, 100
3, 72960, Note_on_c, 1, 57, 0
3, 72960, Note_on_c, 1, 57, 100
3, 73440, Note_on_c, 1, 57, 0
3, 73440, Note_on_c, 1, 55, 100
3, 73920, Note_on_c, 1, 55, 0
3, 73920, Note_on_c, 1, 55, 100
3, 74400, Note_on_c, 1, 55, 0
3, 74400, Note_on_c, 1, 69, 100
3, 74880, Note_on_c, 1, 69, 0
3, 74880, Note_on_c, 1, 69, 100
3, 75360, Note_on_c, 1, 69, 0
3, 75360, Note_on_c, 1, 66, 100
3, 75840, Note_on_c, 1, 66, 0
3, 75840, Note_on_c, 1, 66, 100
3, 76320, Note_on_c, 1, 66, 0
3, 76320, Note_on_c, 1, 62, 100
3, 76800, Note_on_c, 1, 62, 0
3, 76800, Note_on_c, 1, 62, 100
3, 77280, Note_on_c, 1, 62, 0
3, 77280, Note_on_c, 1, 59, 100
3, 77760, Note_on_c, 1, 59, 0
3, 77760, Note_on_c, 1, 59, 100
3, 78240, Note_on_c, 1, 59, 0
3, 78240, Note_on_c, 1, 55, 100
3, 78720, Note_on_c, 1, 55, 0
3, 78720, Note_on_c, 1, 55, 100
3, 79200, Note_on_c, 1, 55, 0
3, 79200, Note_on_c, 1, 54, 100
3, 79680, Note_on_c, 1, 54, 0
3, 79680, Note_on_c, 1, 54, 100
3, 80160, Note_on_c, 1, 54, 0
3, 80160, Note_on_c, 1, 67, 100
3, 80640, Note_on_c, 1, 67, 0
3, 80640, Note_on_c, 1, 67, 100
3, 81120, Note_on_c, 1, 67, 0
3, 83520, Note_on_c, 1, 67, 100
3, 84000, Note_on_c, 1, 67, 0
3, 86880, Note_on_c, 1, 67, 100
3, 87360, Note_on_c, 1, 67, 0
3, 87360, Note_on_c, 1, 67, 100
3, 87840, Note_on_c, 1, 67, 0
3, 87840, Note_on_c, 1, 66, 100
3, 88320, Note_on_c, 1, 66, 0
3, 88320, Note_on_c, 1, 66, 100
3, 88800, Note_on_c, 1, 66, 0
3, 88800, Note_on_c, 1, 68, 100
3, 89280, Note_on_c, 1, 68, 0
3, 89280, Note_on_c, 1, 68, 100
3, 89760, Note_on_c, 1, 68, 0
3, 89760, Note_on_c, 1, 69, 100
3, 90240, Note_on_c, 1, 69, 0
3, 90240, Note_on_c, 1, 69, 100
3, 91680, Note_on_c, 1, 69, 0
3, 92160, Note_on_c, 1, 69, 100
3, 92640, Note_on_c, 1, 69, 0
3, 92640, Note_on_c, 1, 66, 100
3, 93120, Note_on_c, 1, 66, 0
3, 93120, Note_on_c, 1, 66, 100
3, 93600, Note_on_c, 1, 66, 0
3, 93600, Note_on_c, 1, 62, 100
3, 94080, Note_on_c, 1, 62, 0
3, 94080, Note_on_c, 1, 62, 100
3, 94560, Note_on_c, 1, 62, 0
3, 94560, Note_on_c, 1, 61, 100
3, 95040, Note_on_c, 1, 61, 0
3, 95040, Note_on_c, 1, 61, 100
3, 95520, Note_on_c, 1, 61, 0
3, 96000, Note_on_c, 1, 61, 100
3, 97440, Note_on_c, 1, 61, 0
3, 97440, Note_on_c, 1, 62, 100
3, 97920, Note_on_c, 1, 62, 0
3, 97920, Note_on_c, 1, 62, 100
3, 98400, Note_on_c, 1, 62, 0
3, 101760, Note_on_c, 1, 61, 100
3, 103200, Note_on_c, 1, 61, 0
3, 106560, Note_on_c, 1, 59, 100
3, 107040, Note_on_c, 1, 59, 0
3, 107040, Note_on_c, 1, 57, 100
3, 107520, Note_on_c, 1, 57, 0
3, 107520, Note_on_c, 1, 57, 100
3, 108000, Note_on_c, 1, 57, 0
3, 108000, Note_on_c, 1, 55, 100
3, 108480, Note_on_c, 1, 55, 0
3, 108480, Note_on_c, 1, 55, 100
3, 108960, Note_on_c, 1, 55, 0
3, 108960, Note_on_c, 1, 54, 100
3, 109440, Note_on_c, 1, 54, 0
3, 109440, Note_on_c, 1, 54, 100
3, 109920, Note_on_c, 1, 54, 0
3, 109920, Note_on_c, 1, 52, 100
3, 110400, Note_on_c, 1, 52, 0
3, 110400, Note_on_c, 1, 52, 100
3, 110880, Note_on_c, 1, 52, 0
3, 110880, Note_on_c, 1, 55, 100
3, 111360, Note_on_c, 1, 55, 0
3, 111360, Note_on_c, 1, 55, 100
3, 111840, Note_on_c, 1, 55, 0
3, 111840, Note_on_c, 1, 54, 100
3, 112320, Note_on_c, 1, 54, 0
3, 112320, Note_on_c, 1, 54, 100
3, 113280, Note_on_c, 1, 54, 0
3, 113280, Note_on_c, 1, 54, 100
3, 115200, Note_on_c, 1, 54, 0
3, 115200, Note_on_c, 1, 61, 100
3, 116160, Note_on_c, 1, 61, 0
3, 116160, Note_on_c, 1, 61, 100
3, 117600, Note_on_c, 1, 61, 0
3, 118080, Note_on_c, 1, 57, 100
3, 118560, Note_on_c, 1, 57, 0
3, 120960, Note_on_c, 1, 60, 100
3, 121440, Note_on_c, 1, 60, 0
3, 121440, Note_on_c, 1, 57, 100
3, 121920, Note_on_c, 1, 57, 0
3, 121920, Note_on_c, 1, 59, 100
3, 122400, Note_on_c, 1, 59, 0
3, 122400, Note_on_c, 1, 66, 100
3, 122640, Note_on_c, 1, 66, 0
3, 122640, Note_on_c, 1, 67, 100
3, 122880, Note_on_c, 1, 67, 0
3, 122880, Note_on_c, 1, 69, 100
3, 123360, Note_on_c, 1, 69, 0
3, 123840, Note_on_c, 1, 69, 100
3, 124320, Note_on_c, 1, 69, 0
3, 124320, Note_on_c, 1, 66, 100
3, 124800, Note_on_c, 1, 66, 0
3, 124800, Note_on_c, 1, 67, 100
3, 126240, Note_on_c, 1, 67, 0
3, 126240, Note_on_c, 1, 67, 100
3, 126720, Note_on_c, 1, 67, 0
3, 126720, Note_on_c, 1, 67, 100
3, 127200, Note_on_c, 1, 67, 0
3, 127200, Note_on_c, 1, 66, 100
3, 127680, Note_on_c, 1, 66, 0
3, 127680, Note_on_c, 1, 72, 100
3, 128640, Note_on_c, 1, 72, 0
3, 131520, Note_on_c, 1, 62, 100
3, 132480, Note_on_c, 1, 62, 0
3, 132480, Note_on_c, 1, 62, 100
3, 132960, Note_on_c, 1, 62, 0
3, 132960, Note_on_c, 1, 64, 100
3, 133440, Note_on_c, 1, 64, 0
3, 133440, Note_on_c, 1, 64, 100
3, 133920, Note_on_c, 1, 64, 0
3, 133920, Note_on_c, 1, 66, 100
3, 134400, Note_on_c, 1, 66, 0
3, 134400, Note_on_c, 1, 66, 100
3, 134880, Note_on_c, 1, 66, 0
3, 134880, Note_on_c, 1, 67, 100
3, 135360, Note_on_c, 1, 67, 0
3, 135360, Note_on_c, 1, 67, 100
3, 136320, Note_on_c, 1, 67, 0
3, 136320, Note_on_c, 1, 67, 100
3, 137760, Note_on_c, 1, 67, 0
3, 137760, Note_on_c, 1, 71, 100
3, 138240, Note_on_c, 1, 71, 0
3, 138240, Note_on_c, 1, 71, 100
3, 138720, Note_on_c, 1, 71, 0
3, 138720, Note_on_c, 1, 67, 100
3, 139200, Note_on_c, 1, 67, 0
3, 139200, Note_on_c, 1, 67, 100
3, 139680, Note_on_c, 1, 67, 0
3, 139680, Note_on_c, 1, 64, 100
3, 140160, Note_on_c, 1, 64, 0
3, 140160, Note_on_c, 1, 64, 100
3, 140640, Note_on_c, 1, 64, 0
3, 140640, Note_on_c, 1, 61, 100
3, 141120, Note_on_c, 1, 61, 0
3, 141120, Note_on_c, 1, 61, 100
3, 141600, Note_on_c, 1, 61, 0
3, 141600, Note_on_c, 1, 57, 100
3, 142080, Note_on_c, 1, 57, 0
3, 142080, Note_on_c, 1, 57, 100
3, 142560, Note_on_c, 1, 57, 0
3, 142560, Note_on_c, 1, 55, 100
3, 143040, Note_on_c, 1, 55, 0
3, 143040, Note_on_c, 1, 55, 100
3, 143520, Note_on_c, 1, 55, 0
3, 143520, Note_on_c, 1, 69, 100
3, 144000, Note_on_c, 1, 69, 0
3, 144000, Note_on_c, 1, 69, 100
3, 144480, Note_on_c, 1, 69, 0
3, 144480, Note_on_c, 1, 66, 100
3, 144960, Note_on_c, 1, 66, 0
3, 144960, Note_on_c, 1, 66, 100
3, 145440, Note_on_c, 1, 66, 0
3, 145440, Note_on_c, 1, 62, 100
3, 145920, Note_on_c, 1, 62, 0
3, 145920, Note_on_c, 1, 62, 100
3, 146400, Note_on_c, 1, 62, 0
3, 146400, Note_on_c, 1, 59, 100
3, 146880, Note_on_c, 1, 59, 0
3, 146880, Note_on_c, 1, 59, 100
3, 147360, Note_on_c, 1, 59, 0
3, 147360, Note_on_c, 1, 55, 100
3, 147840, Note_on_c, 1, 55, 0
3, 147840, Note_on_c, 1, 55, 100
3, 148320, Note_on_c, 1, 55, 0
3, 148320, Note_on_c, 1, 54, 100
3, 148800, Note_on_c, 1, 54, 0
3, 148800, Note_on_c, 1, 54, 100
3, 149280, Note_on_c, 1, 54, 0
3, 149280, Note_on_c, 1, 67, 100
3, 149760, Note_on_c, 1, 67, 0
3, 149760, Note_on_c, 1, 67, 100
3, 150240, Note_on_c, 1, 67, 0
3, 152640, Note_on_c, 1, 67, 100
3, 153120, Note_on_c, 1, 67, 0
3, 156000, Note_on_c, 1, 67, 100
3, 156480, Note_on_c, 1, 67, 0
3, 156480, Note_on_c, 1, 67, 100
3, 156960, Note_on_c, 1, 67, 0
3, 156960, Note_on_c, 1, 66, 100
3, 157440, Note_on_c, 1, 66, 0
3, 157440, Note_on_c, 1, 66, 100
3, 157920, Note_on_c, 1, 66, 0
3, 157920, Note_on_c, 1, 68, 100
3, 158400, Note_on_c, 1, 68, 0
3, 158400, Note_on_c, 1, 68, 100
3, 158880, Note_on_c, 1, 68, 0
3, 158880, Note_on_c, 1, 69, 100
3, 159360, Note_on_c, 1, 69, 0
3, 159360, Note_on_c, 1, 69, 100
3, 160800, Note_on_c, 1, 69, 0
3, 161280, Note_on_c, 1, 69, 100
3, 161760, Note_on_c, 1, 69, 0
3, 161760, Note_on_c, 1, 66, 100
3, 162240, Note_on_c, 1, 66, 0
3, 162240, Note_on_c, 1, 66, 100
3, 162720, Note_on_c, 1, 66, 0
3, 162720, Note_on_c, 1, 62, 100
3, 163200, Note_on_c, 1, 62, 0
3, 163200, Note_on_c, 1, 62, 100
3, 163680, Note_on_c, 1, 62, 0
3, 163680, Note_on_c, 1, 61, 100
3, 164160, Note_on_c, 1, 61, 0
3, 164160, Note_on_c, 1, 61, 100
3, 164640, Note_on_c, 1, 61, 0
3, 165120, Note_on_c, 1, 61, 100
3, 166560, Note_on_c, 1, 61, 0
3, 166560, Note_on_c, 1, 62, 100
3, 167040, Note_on_c, 1, 62, 0
3, 167040, Note_on_c, 1, 62, 100
3, 167520, Note_on_c, 1, 62, 0
3, 170880, Note_on_c, 1, 61, 100
3, 172320, Note_on_c, 1, 61, 0
3, 175680, Note_on_c, 1, 59, 100
3, 176160, Note_on_c, 1, 59, 0
3, 176160, Note_on_c, 1, 57, 100
3, 176640, Note_on_c, 1, 57, 0
3, 176640, Note_on_c, 1, 57, 100
3, 177120, Note_on_c, 1, 57, 0
3, 177120, Note_on_c, 1, 55, 100
3, 177600, Note_on_c, 1, 55, 0
3, 177600, Note_on_c, 1, 55, 100
3, 178080, Note_on_c, 1, 55, 0
3, 178080, Note_on_c, 1, 54, 100
3, 178560, Note_on_c, 1, 54, 0
3, 178560, Note_on_c, 1, 54, 100
3, 179040, Note_on_c, 1, 54, 0
3, 179040, Note_on_c, 1, 52, 100
3, 179520, Note_on_c, 1, 52, 0
3, 179520, Note_on_c, 1, 52, 100
3, 180000, Note_on_c, 1, 52, 0
3, 180000, Note_on_c, 1, 55, 100
3, 180480, Note_on_c, 1, 55, 0
3, 180480, Note_on_c, 1, 55, 100
3, 180960, Note_on_c, 1, 55, 0
3, 180960, Note_on_c, 1, 54, 100
3, 181440, Note_on_c, 1, 54, 0
3, 181440, Note_on_c, 1, 54, 100
3, 182400, Note_on_c, 1, 54, 0
3, 182400, Note_on_c, 1, 54, 100
3, 184320, Note_on_c, 1, 54, 0
3, 184320, End_track
4, 0, Start_track
4, 0, MIDI_port, 0
4, 0, Title_t, "Johann Sebastian Bach  (1685-1750)"
4, 0, Program_c, 2, 42
4, 0, Control_c, 2, 7, 100
4, 0, Control_c, 2, 10, 49
4, 0, Note_on_c, 2, 50, 100
4, 960, Note_on_c, 2, 50, 0
4, 2880, Note_on_c, 2, 43, 100
4, 3840, Note_on_c, 2, 43, 0
4, 5760, Note_on_c, 2, 45, 100
4, 6720, Note_on_c, 2, 45, 0
4, 11520, Note_on_c, 2, 47, 100
4, 12480, Note_on_c, 2, 47, 0
4, 14400, Note_on_c, 2, 62, 100
4, 14880, Note_on_c, 2, 62, 0
4, 14880, Note_on_c, 2, 61, 100
4, 15360, Note_on_c, 2, 61, 0
4, 15360, Note_on_c, 2, 62, 100
4, 16800, Note_on_c, 2, 62, 0
4, 16800, Note_on_c, 2, 64, 100
4, 17280, Note_on_c, 2, 64, 0
4, 17280, Note_on_c, 2, 62, 100
4, 17760, Note_on_c, 2, 62, 0
4, 17760, Note_on_c, 2, 61, 100
4, 18240, Note_on_c, 2, 61, 0
4, 18240, Note_on_c, 2, 61, 100
4, 18720, Note_on_c, 2, 61, 0
4, 18720, Note_on_c, 2, 59, 100
4, 19200, Note_on_c, 2, 59, 0
4, 19200, Note_on_c, 2, 59, 100
4, 19680, Note_on_c, 2, 59, 0
4, 19680, Note_on_c, 2, 62, 100
4, 20160, Note_on_c, 2, 62, 0
4, 20160, Note_on_c, 2, 62, 100
4, 20640, Note_on_c, 2, 62, 0
4, 20640, Note_on_c, 2, 61, 100
4, 21120, Note_on_c, 2, 61, 0
4, 21120, Note_on_c, 2, 61, 100
4, 23040, Note_on_c, 2, 61, 0
4, 23040, Note_on_c, 2, 50, 100
4, 24000, Note_on_c, 2, 50, 0
4, 25920, Note_on_c, 2, 43, 100
4, 26880, Note_on_c, 2, 43, 0
4, 28800, Note_on_c, 2, 45, 100
4, 29760, Note_on_c, 2, 45, 0
4, 34560, Note_on_c, 2, 47, 100
4, 35520, Note_on_c, 2, 47, 0
4, 37440, Note_on_c, 2, 62, 100
4, 37920, Note_on_c, 2, 62, 0
4, 37920, Note_on_c, 2, 61, 100
4, 38400, Note_on_c, 2, 61, 0
4, 38400, Note_on_c, 2, 62, 100
4, 39840, Note_on_c, 2, 62, 0
4, 39840, Note_on_c, 2, 64, 100
4, 40320, Note_on_c, 2, 64, 0
4, 40320, Note_on_c, 2, 62, 100
4, 40800, Note_on_c, 2, 62, 0
4, 40800, Note_on_c, 2, 61, 100
4, 41280, Note_on_c, 2, 61, 0
4, 41280, Note_on_c, 2, 61, 100
4, 41760, Note_on_c, 2, 61, 0
4, 41760, Note_on_c, 2, 59, 100
4, 42240, Note_on_c, 2, 59, 0
4, 42240, Note_on_c, 2, 59, 100
4, 42720, Note_on_c, 2, 59, 0
4, 42720, Note_on_c, 2, 62, 100
4, 43200, Note_on_c, 2, 62, 0
4, 43200, Note_on_c, 2, 62, 100
4, 43680, Note_on_c, 2, 62, 0
4, 43680, Note_on_c, 2, 61, 100
4, 44160, Note_on_c, 2, 61, 0
4, 44160, Note_on_c, 2, 61, 100
4, 46080, Note_on_c, 2, 61, 0
4, 46080, Note_on_c, 2, 64, 100
4, 47040, Note_on_c, 2, 64, 0
4, 47040, Note_on_c, 2, 64, 100
4, 48480, Note_on_c, 2, 64, 0
4, 48480, Note_on_c, 2, 64, 100
4, 48960, Note_on_c, 2, 64, 0
4, 48960, Note_on_c, 2, 64, 100
4, 49440, Note_on_c, 2, 64, 0
4, 49440, Note_on_c, 2, 61, 100
4, 49920, Note_on_c, 2, 61, 0
4, 49920, Note_on_c, 2, 63, 100
4, 50400, Note_on_c, 2, 63, 0
4, 50400, Note_on_c, 2, 57, 100
4, 50640, Note_on_c, 2, 57, 0
4, 50640, Note_on_c, 2, 59, 100
4, 50880, Note_on_c, 2, 59, 0
4, 50880, Note_on_c, 2, 60, 100
4, 51360, Note_on_c, 2, 60, 0
4, 51360, Note_on_c, 2, 52, 100
4, 51840, Note_on_c, 2, 52, 0
4, 51840, Note_on_c, 2, 66, 100
4, 52320, Note_on_c, 2, 66, 0
4, 54720, Note_on_c, 2, 59, 100
4, 55680, Note_on_c, 2, 59, 0
4, 55680, Note_on_c, 2, 59, 100
4, 57120, Note_on_c, 2, 59, 0
4, 62400, Note_on_c, 2, 55, 100
4, 63360, Note_on_c, 2, 55, 0
4, 63360, Note_on_c, 2, 52, 100
4, 64320, Note_on_c, 2, 52, 0
4, 64320, Note_on_c, 2, 52, 100
4, 65280, Note_on_c, 2, 52, 0
4, 65280, Note_on_c, 2, 57, 100
4, 66240, Note_on_c, 2, 57, 0
4, 66240, Note_on_c, 2, 60, 100
4, 66720, Note_on_c, 2, 60, 0
4, 66720, Note_on_c, 2, 57, 100
4, 67200, Note_on_c, 2, 57, 0
4, 67200, Note_on_c, 2, 59, 100
4, 68640, Note_on_c, 2, 59, 0
4, 69120, Note_on_c, 2, 59, 100
4, 69600, Note_on_c, 2, 59, 0
4, 74880, Note_on_c, 2, 59, 100
4, 75360, Note_on_c, 2, 59, 0
4, 80640, Note_on_c, 2, 61, 100
4, 81120, Note_on_c, 2, 61, 0
4, 81120, Note_on_c, 2, 62, 100
4, 81600, Note_on_c, 2, 62, 0
4, 81600, Note_on_c, 2, 62, 100
4, 82080, Note_on_c, 2, 62, 0
4, 82080, Note_on_c, 2, 61, 100
4, 82560, Note_on_c, 2, 61, 0
4, 82560, Note_on_c, 2, 61, 100
4, 83040, Note_on_c, 2, 61, 0
4, 83040, Note_on_c, 2, 59, 100
4, 83520, Note_on_c, 2, 59, 0
4, 83520, Note_on_c, 2, 59, 100
4, 84000, Note_on_c, 2, 59, 0
4, 84000, Note_on_c, 2, 61, 100
4, 84480, Note_on_c, 2, 61, 0
4, 84480, Note_on_c, 2, 61, 100
4, 84960, Note_on_c, 2, 61, 0
4, 84960, Note_on_c, 2, 59, 100
4, 85440, Note_on_c, 2, 59, 0
4, 85440, Note_on_c, 2, 59, 100
4, 85920, Note_on_c, 2, 59, 0
4, 85920, Note_on_c, 2, 57, 100
4, 86400, Note_on_c, 2, 57, 0
4, 86400, Note_on_c, 2, 57, 100
4, 86880, Note_on_c, 2, 57, 0
4, 87360, Note_on_c, 2, 57, 100
4, 88320, Note_on_c, 2, 57, 0
4, 88320, Note_on_c, 2, 59, 100
4, 88800, Note_on_c, 2, 59, 0
4, 89280, Note_on_c, 2, 61, 100
4, 89760, Note_on_c, 2, 61, 0
4, 90240, Note_on_c, 2, 61, 100
4, 91680, Note_on_c, 2, 61, 0
4, 91680, Note_on_c, 2, 61, 100
4, 92160, Note_on_c, 2, 61, 0
4, 92160, Note_on_c, 2, 62, 100
4, 92640, Note_on_c, 2, 62, 0
4, 95040, Note_on_c, 2, 69, 100
4, 95520, Note_on_c, 2, 69, 0
4, 97920, Note_on_c, 2, 69, 100
4, 98400, Note_on_c, 2, 69, 0
4, 98400, Note_on_c, 2, 65, 100
4, 98880, Note_on_c, 2, 65, 0
4, 98880, Note_on_c, 2, 65, 100
4, 99360, Note_on_c, 2, 65, 0
4, 99360, Note_on_c, 2, 62, 100
4, 99840, Note_on_c, 2, 62, 0
4, 99840, Note_on_c, 2, 62, 100
4, 100320, Note_on_c, 2, 62, 0
4, 100320, Note_on_c, 2, 61, 100
4, 100800, Note_on_c, 2, 61, 0
4, 100800, Note_on_c, 2, 61, 100
4, 101280, Note_on_c, 2, 61, 0
4, 101280, Note_on_c, 2, 62, 100
4, 101520, Note_on_c, 2, 62, 0
4, 101520, Note_on_c, 2, 64, 100
4, 101760, Note_on_c, 2, 64, 0
4, 101760, Note_on_c, 2, 64, 100
4, 103200, Note_on_c, 2, 64, 0
4, 103200, Note_on_c, 2, 62, 100
4, 103680, Note_on_c, 2, 62, 0
4, 103680, Note_on_c, 2, 62, 100
4, 104160, Note_on_c, 2, 62, 0
4, 104160, Note_on_c, 2, 64, 100
4, 104400, Note_on_c, 2, 64, 0
4, 104400, Note_on_c, 2, 66, 100
4, 104520, Note_on_c, 2, 66, 0
4, 104520, Note_on_c, 2, 67, 100
4, 104640, Note_on_c, 2, 67, 0
4, 104640, Note_on_c, 2, 67, 100
4, 105120, Note_on_c, 2, 67, 0
4, 105120, Note_on_c, 2, 66, 100
4, 105600, Note_on_c, 2, 66, 0
4, 105600, Note_on_c, 2, 66, 100
4, 106080, Note_on_c, 2, 66, 0
4, 106080, Note_on_c, 2, 64, 100
4, 106560, Note_on_c, 2, 64, 0
4, 106560, Note_on_c, 2, 64, 100
4, 107040, Note_on_c, 2, 64, 0
4, 107040, Note_on_c, 2, 66, 100
4, 107520, Note_on_c, 2, 66, 0
4, 107520, Note_on_c, 2, 66, 100
4, 108000, Note_on_c, 2, 66, 0
4, 108000, Note_on_c, 2, 64, 100
4, 108480, Note_on_c, 2, 64, 0
4, 108480, Note_on_c, 2, 64, 100
4, 108960, Note_on_c, 2, 64, 0
4, 108960, Note_on_c, 2, 62, 100
4, 109440, Note_on_c, 2, 62, 0
4, 109440, Note_on_c, 2, 62, 100
4, 110400, Note_on_c, 2, 62, 0
4, 110400, Note_on_c, 2, 62, 100
4, 111360, Note_on_c, 2, 62, 0
4, 111360, Note_on_c, 2, 61, 100
4, 112320, Note_on_c, 2, 61, 0
4, 112320, Note_on_c, 2, 61, 100
4, 112800, Note_on_c, 2, 61, 0
4, 112800, Note_on_c, 2, 62, 100
4, 113280, Note_on_c, 2, 62, 0
4, 113280, Note_on_c, 2, 62, 100
4, 115200, Note_on_c, 2, 62, 0
4, 115200, Note_on_c, 2, 64, 100
4, 116160, Note_on_c, 2, 64, 0
4, 116160, Note_on_c, 2, 64, 100
4, 117600, Note_on_c, 2, 64, 0
4, 117600, Note_on_c, 2, 64, 100
4, 118080, Note_on_c, 2, 64, 0
4, 118080, Note_on_c, 2, 64, 100
4, 118560, Note_on_c, 2, 64, 0
4, 118560, Note_on_c, 2, 61, 100
4, 119040, Note_on_c, 2, 61, 0
4, 119040, Note_on_c, 2, 63, 100
4, 119520, Note_on_c, 2, 63, 0
4, 119520, Note_on_c, 2, 57, 100
4, 119760, Note_on_c, 2, 57, 0
4, 119760, Note_on_c, 2, 59, 100
4, 120000, Note_on_c, 2, 59, 0
4, 120000, Note_on_c, 2, 60, 100
4, 120480, Note_on_c, 2, 60, 0
4, 120480, Note_on_c, 2, 52, 100
4, 120960, Note_on_c, 2, 52, 0
4, 120960, Note_on_c, 2, 66, 100
4, 121440, Note_on_c, 2, 66, 0
4, 123840, Note_on_c, 2, 59, 100
4, 124800, Note_on_c, 2, 59, 0
4, 124800, Note_on_c, 2, 59, 100
4, 126240, Note_on_c, 2, 59, 0
4, 131520, Note_on_c, 2, 55, 100
4, 132480, Note_on_c, 2, 55, 0
4, 132480, Note_on_c, 2, 52, 100
4, 133440, Note_on_c, 2, 52, 0
4, 133440, Note_on_c, 2, 52, 100
4, 134400, Note_on_c, 2, 52, 0
4, 134400, Note_on_c, 2, 57, 100
4, 135360, Note_on_c, 2, 57, 0
4, 135360, Note_on_c, 2, 60, 100
4, 135840, Note_on_c, 2, 60, 0
4, 135840, Note_on_c, 2, 57, 100
4, 136320, Note_on_c, 2, 57, 0
4, 136320, Note_on_c, 2, 59, 100
4, 137760, Note_on_c, 2, 59, 0
4, 138240, Note_on_c, 2, 59, 100
4, 138720, Note_on_c, 2, 59, 0
4, 144000, Note_on_c, 2, 59, 100
4, 144480, Note_on_c, 2, 59, 0
4, 149760, Note_on_c, 2, 61, 100
4, 150240, Note_on_c, 2, 61, 0
4, 150240, Note_on_c, 2, 62, 100
4, 150720, Note_on_c, 2, 62, 0
4, 150720, Note_on_c, 2, 62, 100
4, 151200, Note_on_c, 2, 62, 0
4, 151200, Note_on_c, 2, 61, 100
4, 151680, Note_on_c, 2, 61, 0
4, 151680, Note_on_c, 2, 61, 100
4, 152160, Note_on_c, 2, 61, 0
4, 152160, Note_on_c, 2, 59, 100
4, 152640, Note_on_c, 2, 59, 0
4, 152640, Note_on_c, 2, 59, 100
4, 153120, Note_on_c, 2, 59, 0
4, 153120, Note_on_c, 2, 61, 100
4, 153600, Note_on_c, 2, 61, 0
4, 153600, Note_on_c, 2, 61, 100
4, 154080, Note_on_c, 2, 61, 0
4, 154080, Note_on_c, 2, 59, 100
4, 154560, Note_on_c, 2, 59, 0
4, 154560, Note_on_c, 2, 59, 100
4, 155040, Note_on_c, 2, 59, 0
4, 155040, Note_on_c, 2, 57, 100
4, 155520, Note_on_c, 2, 57, 0
4, 155520, Note_on_c, 2, 57, 100
4, 156000, Note_on_c, 2, 57, 0
4, 156480, Note_on_c, 2, 57, 100
4, 157440, Note_on_c, 2, 57, 0
4, 157440, Note_on_c, 2, 59, 100
4, 157920, Note_on_c, 2, 59, 0
4, 158400, Note_on_c, 2, 61, 100
4, 158880, Note_on_c, 2, 61, 0
4, 159360, Note_on_c, 2, 61, 100
4, 160800, Note_on_c, 2, 61, 0
4, 160800, Note_on_c, 2, 61, 100
4, 161280, Note_on_c, 2, 61, 0
4, 161280, Note_on_c, 2, 62, 100
4, 161760, Note_on_c, 2, 62, 0
4, 164160, Note_on_c, 2, 69, 100
4, 164640, Note_on_c, 2, 69, 0
4, 167040, Note_on_c, 2, 69, 100
4, 167520, Note_on_c, 2, 69, 0
4, 167520, Note_on_c, 2, 65, 100
4, 168000, Note_on_c, 2, 65, 0
4, 168000, Note_on_c, 2, 65, 100
4, 168480, Note_on_c, 2, 65, 0
4, 168480, Note_on_c, 2, 62, 100
4, 168960, Note_on_c, 2, 62, 0
4, 168960, Note_on_c, 2, 62, 100
4, 169440, Note_on_c, 2, 62, 0
4, 169440, Note_on_c, 2, 61, 100
4, 169920, Note_on_c, 2, 61, 0
4, 169920, Note_on_c, 2, 61, 100
4, 170400, Note_on_c, 2, 61, 0
4, 170400, Note_on_c, 2, 62, 100
4, 170640, Note_on_c, 2, 62, 0
4, 170640, Note_on_c, 2, 64, 100
4, 170880, Note_on_c, 2, 64, 0
4, 170880, Note_on_c, 2, 64, 100
4, 172320, Note_on_c, 2, 64, 0
4, 172320, Note_on_c, 2, 62, 100
4, 172800, Note_on_c, 2, 62, 0
4, 172800, Note_on_c, 2, 62, 100
4, 173280, Note_on_c, 2, 62, 0
4, 173280, Note_on_c, 2, 64, 100
4, 173520, Note_on_c, 2, 64, 0
4, 173520, Note_on_c, 2, 66, 100
4, 173640, Note_on_c, 2, 66, 0
4, 173640, Note_on_c, 2, 67, 100
4, 173760, Note_on_c, 2, 67, 0
4, 173760, Note_on_c, 2, 67, 100
4, 174240, Note_on_c, 2, 67, 0
4, 174240, Note_on_c, 2, 66, 100
4, 174720, Note_on_c, 2, 66, 0
4, 174720, Note_on_c, 2, 66, 100
4, 175200, Note_on_c, 2, 66, 0
4, 175200, Note_on_c, 2, 64, 100
4, 175680, Note_on_c, 2, 64, 0
4, 175680, Note_on_c, 2, 64, 100
4, 176160, Note_on_c, 2, 64, 0
4, 176160, Note_on_c, 2, 66, 100
4, 176640, Note_on_c, 2, 66, 0
4, 176640, Note_on_c, 2, 66, 100
4, 177120, Note_on_c, 2, 66, 0
4, 177120, Note_on_c, 2, 64, 100
4, 177600, Note_on_c, 2, 64, 0
4, 177600, Note_on_c, 2, 64, 100
4, 178080, Note_on_c, 2, 64, 0
4, 178080, Note_on_c, 2, 62, 100
4, 178560, Note_on_c, 2, 62, 0
4, 178560, Note_on_c, 2, 62, 100
4, 179520, Note_on_c, 2, 62, 0
4, 179520, Note_on_c, 2, 62, 100
4, 180480, Note_on_c, 2, 62, 0
4, 180480, Note_on_c, 2, 61, 100
4, 181440, Note_on_c, 2, 61, 0
4, 181440, Note_on_c, 2, 61, 100
4, 181920, Note_on_c, 2, 61, 0
4, 181920, Note_on_c, 2, 62, 100
4, 182400, Note_on_c, 2, 62, 0
4, 182400, Note_on_c, 2, 62, 100
4, 184320, Note_on_c, 2, 62, 0
4, 184320, End_track
5, 0, Start_track
5, 0, MIDI_port, 0
5, 0, Title_t, "Six Suites for Solo Cello"
5, 0, Program_c, 3, 42
5, 0, Control_c, 3, 7, 100
5, 0, Control_c, 3, 10, 79
5, 2880, Note_on_c, 3, 59, 100
5, 3840, Note_on_c, 3, 59, 0
5, 5760, Note_on_c, 3, 62, 100
5, 6720, Note_on_c, 3, 62, 0
5, 6720, Note_on_c, 3, 61, 100
5, 8160, Note_on_c, 3, 61, 0
5, 8640, Note_on_c, 3, 57, 100
5, 9600, Note_on_c, 3, 57, 0
5, 11520, Note_on_c, 3, 59, 100
5, 12480, Note_on_c, 3, 59, 0
5, 12480, Note_on_c, 3, 62, 100
5, 13920, Note_on_c, 3, 62, 0
5, 14400, Note_on_c, 3, 44, 100
5, 15360, Note_on_c, 3, 44, 0
5, 17280, Note_on_c, 3, 45, 100
5, 18240, Note_on_c, 3, 45, 0
5, 20160, Note_on_c, 3, 45, 100
5, 21120, Note_on_c, 3, 45, 0
5, 25920, Note_on_c, 3, 59, 100
5, 26880, Note_on_c, 3, 59, 0
5, 28800, Note_on_c, 3, 62, 100
5, 29760, Note_on_c, 3, 62, 0
5, 29760, Note_on_c, 3, 61, 100
5, 31200, Note_on_c, 3, 61, 0
5, 31680, Note_on_c, 3, 57, 100
5, 32640, Note_on_c, 3, 57, 0
5, 34560, Note_on_c, 3, 59, 100
5, 35520, Note_on_c, 3, 59, 0
5, 35520, Note_on_c, 3, 62, 100
5, 36960, Note_on_c, 3, 62, 0
5, 37440, Note_on_c, 3, 44, 100
5, 38400, Note_on_c, 3, 44, 0
5, 40320, Note_on_c, 3, 45, 100
5, 41280, Note_on_c, 3, 45, 0
5, 43200, Note_on_c, 3, 45, 100
5, 44160, Note_on_c, 3, 45, 0
5, 46080, Note_on_c, 3, 45, 100
5, 47040, Note_on_c, 3, 45, 0
5, 47040, Note_on_c, 3, 42, 100
5, 48480, Note_on_c, 3, 42, 0
5, 66240, Note_on_c, 3, 43, 100
5, 67200, Note_on_c, 3, 43, 0
5, 85920, Note_on_c, 3, 52, 100
5, 86400, Note_on_c, 3, 52, 0
5, 86400, Note_on_c, 3, 52, 100
5, 86880, Note_on_c, 3, 52, 0
5, 87360, Note_on_c, 3, 50, 100
5, 88320, Note_on_c, 3, 50, 0
5, 88320, Note_on_c, 3, 47, 100
5, 88800, Note_on_c, 3, 47, 0
5, 89280, Note_on_c, 3, 45, 100
5, 89760, Note_on_c, 3, 45, 0
5, 92160, Note_on_c, 3, 45, 100
5, 92640, Note_on_c, 3, 45, 0
5, 95040, Note_on_c, 3, 45, 100
5, 95520, Note_on_c, 3, 45, 0
5, 97920, Note_on_c, 3, 45, 100
5, 98400, Note_on_c, 3, 45, 0
5, 100800, Note_on_c, 3, 45, 100
5, 101280, Note_on_c, 3, 45, 0
5, 101760, Note_on_c, 3, 46, 100
5, 103200, Note_on_c, 3, 46, 0
5, 103680, Note_on_c, 3, 47, 100
5, 104160, Note_on_c, 3, 47, 0
5, 105600, Note_on_c, 3, 50, 100
5, 106080, Note_on_c, 3, 50, 0
5, 106560, Note_on_c, 3, 55, 100
5, 107040, Note_on_c, 3, 55, 0
5, 112320, Note_on_c, 3, 38, 100
5, 113280, Note_on_c, 3, 38, 0
5, 115200, Note_on_c, 3, 45, 100
5, 116160, Note_on_c, 3, 45, 0
5, 116160, Note_on_c, 3, 42, 100
5, 117600, Note_on_c, 3, 42, 0
5, 135360, Note_on_c, 3, 43, 100
5, 136320, Note_on_c, 3, 43, 0
5, 155040, Note_on_c, 3, 52, 100
5, 155520, Note_on_c, 3, 52, 0
5, 155520, Note_on_c, 3, 52, 100
5, 156000, Note_on_c, 3, 52, 0
5, 156480, Note_on_c, 3, 50, 100
5, 157440, Note_on_c, 3, 50, 0
5, 157440, Note_on_c, 3, 47, 100
5, 157920, Note_on_c, 3, 47, 0
5, 158400, Note_on_c, 3, 45, 100
5, 158880, Note_on_c, 3, 45, 0
5, 161280, Note_on_c, 3, 45, 100
5, 161760, Note_on_c, 3, 45, 0
5, 164160, Note_on_c, 3, 45, 100
5, 164640, Note_on_c, 3, 45, 0
5, 167040, Note_on_c, 3, 45, 100
5, 167520, Note_on_c, 3, 45, 0
5, 169920, Note_on_c, 3, 45, 100
5, 170400, Note_on_c, 3, 45, 0
5, 170880, Note_on_c, 3, 46, 100
5, 172320, Note_on_c, 3, 46, 0
5, 172800, Note_on_c, 3, 47, 100
5, 173280, Note_on_c, 3, 47, 0
5, 174720, Note_on_c, 3, 50, 100
5, 175200, Note_on_c, 3, 50, 0
5, 175680, Note_on_c, 3, 55, 100
5, 176160, Note_on_c, 3, 55, 0
5, 181440, Note_on_c, 3, 38, 100
5, 182400, Note_on_c, 3, 38, 0
5, 182400, End_track
6, 0, Start_track
6, 0, MIDI_port, 0
6, 0, Title_t, "--------------------------------------"
6, 0, End_track
7, 0, Start_track
7, 0, MIDI_port, 0
7, 0, Title_t, "Suite No. 6 in D major - BWV 1012"
7, 0, End_track
8, 0, Start_track
8, 0, MIDI_port, 0
8, 0, Title_t, "4th Movement: Sarabande"
8, 0, End_track
9, 0, Start_track
9, 0, MIDI_port, 0
9, 0, Title_t, "--------------------------------------"
9, 0, End_track
10, 0, Start_track
10, 0, MIDI_port, 0
10, 0, Title_t, "Sequenced with Cakewalk Pro Audio by"
10, 0, End_track
11, 0, Start_track
11, 0, MIDI_port, 0
11, 0, Title_t, "David J. Grossman - dave@unpronounceable.com"
11, 0, End_track
12, 0, Start_track
12, 0, MIDI_port, 0
12, 0, Title_t, "This and other Bach MIDI files can be found at:"
12, 0, End_track
13, 0, Start_track
13, 0, MIDI_port, 0
13, 0, Title_t, "Dave's J.S. Bach Page"
13, 0, End_track
14, 0, Start_track
14, 0, MIDI_port, 0
14, 0, Title_t, "http://www.unpronounceable.com/bach"
14, 0, End_track
15, 0, Start_track
15, 0, MIDI_port, 0
15, 0, Title_t, "--------------------------------------"
15, 0, End_track
16, 0, Start_track
16, 0, MIDI_port, 0
16, 0, Title_t, "Original Filename: cs6-4sar.mid"
16, 0, End_track
17, 0, Start_track
17, 0, MIDI_port, 0
17, 0, Title_t, "Last Modified: February 22, 1997"
17, 0, End_track
0, 0, End_of_file
