0, 0, Header, 1, 15, 240
1, 0, Start_track
1, 0, Time_signature, 6, 2, 24, 8
1, 0, Tempo, 263158
1, 68268, Tempo, 283019
1, 68712, Tempo, 295567
1, 69120, Tempo, 263158
1, 69144, Tempo, 287081
1, 69312, Tempo, 301508
1, 69312, End_track
2, 0, Start_track
2, 0, Title_t, "Violin1"
2, 0, Program_c, 0, 40
2, 0, Control_c, 0, 7, 100
2, 1185, Note_on_c, 0, 72, 78
2, 1264, Note_off_c, 0, 72, 64
2, 1439, Note_on_c, 0, 79, 85
2, 1729, Note_off_c, 0, 79, 64
2, 1898, Note_on_c, 0, 79, 78
2, 1988, Note_off_c, 0, 79, 64
2, 2147, Note_on_c, 0, 79, 76
2, 2455, Note_off_c, 0, 79, 64
2, 2500, Note_on_c, 0, 81, 76
2, 2571, Note_off_c, 0, 81, 64
2, 2620, Note_on_c, 0, 82, 68
2, 2716, Note_off_c, 0, 82, 64
2, 2876, Note_on_c, 0, 81, 85
2, 3208, Note_off_c, 0, 81, 64
2, 3333, Note_on_c, 0, 74, 72
2, 3445, Note_off_c, 0, 74, 64
2, 3592, Note_on_c, 0, 74, 82
2, 3887, Note_off_c, 0, 74, 64
2, 3950, Note_on_c, 0, 76, 80
2, 4024, Note_off_c, 0, 76, 64
2, 4067, Note_on_c, 0, 77, 85
2, 4167, Note_off_c, 0, 77, 64
2, 4299, Note_on_c, 0, 71, 80
2, 4577, Note_off_c, 0, 71, 64
2, 4653, Note_on_c, 0, 72, 78
2, 4715, Note_off_c, 0, 72, 64
2, 4769, Note_on_c, 0, 74, 78
2, 4860, Note_off_c, 0, 74, 64
2, 5011, Note_on_c, 0, 67, 66
2, 5282, Note_off_c, 0, 67, 64
2, 5386, Note_on_c, 0, 79, 72
2, 5449, Note_off_c, 0, 79, 64
2, 5506, Note_on_c, 0, 77, 78
2, 5600, Note_off_c, 0, 77, 64
2, 5743, Note_on_c, 0, 76, 82
2, 6030, Note_off_c, 0, 76, 64
2, 6085, Note_on_c, 0, 77, 64
2, 6142, Note_off_c, 0, 77, 64
2, 6199, Note_on_c, 0, 79, 82
2, 6286, Note_off_c, 0, 79, 64
2, 6450, Note_on_c, 0, 72, 68
2, 6752, Note_off_c, 0, 72, 64
2, 6832, Note_on_c, 0, 74, 80
2, 6906, Note_off_c, 0, 74, 64
2, 6941, Note_on_c, 0, 76, 76
2, 7013, Note_off_c, 0, 76, 64
2, 7048, Note_on_c, 0, 77, 85
2, 7115, Note_off_c, 0, 77, 64
2, 7176, Note_on_c, 0, 79, 85
2, 7480, Note_off_c, 0, 79, 64
2, 7657, Note_on_c, 0, 79, 87
2, 7751, Note_off_c, 0, 79, 64
2, 7908, Note_on_c, 0, 79, 85
2, 8199, Note_off_c, 0, 79, 64
2, 8289, Note_on_c, 0, 84, 82
2, 8368, Note_off_c, 0, 84, 64
2, 8408, Note_on_c, 0, 81, 87
2, 8508, Note_off_c, 0, 81, 64
2, 8636, Note_on_c, 0, 78, 78
2, 8907, Note_off_c, 0, 78, 64
2, 8971, Note_on_c, 0, 79, 76
2, 9039, Note_off_c, 0, 79, 64
2, 9087, Note_on_c, 0, 81, 87
2, 9187, Note_off_c, 0, 81, 64
2, 9344, Note_on_c, 0, 74, 80
2, 9610, Note_off_c, 0, 74, 64
2, 9697, Note_on_c, 0, 76, 76
2, 9775, Note_off_c, 0, 76, 64
2, 9823, Note_on_c, 0, 78, 87
2, 9932, Note_off_c, 0, 78, 64
2, 10075, Note_on_c, 0, 79, 91
2, 10303, Note_off_c, 0, 79, 64
2, 10400, Note_on_c, 0, 74, 76
2, 10461, Note_off_c, 0, 74, 64
2, 10525, Note_on_c, 0, 76, 87
2, 10625, Note_off_c, 0, 76, 64
2, 10780, Note_on_c, 0, 69, 82
2, 11047, Note_off_c, 0, 69, 64
2, 11137, Note_on_c, 0, 71, 68
2, 11205, Note_off_c, 0, 71, 64
2, 11256, Note_on_c, 0, 72, 85
2, 11357, Note_off_c, 0, 72, 64
2, 11520, Note_on_c, 0, 71, 78
2, 11828, Note_off_c, 0, 71, 64
2, 11961, Note_on_c, 0, 67, 80
2, 12063, Note_off_c, 0, 67, 64
2, 12234, Note_on_c, 0, 67, 63
2, 12486, Note_off_c, 0, 67, 64
2, 12690, Note_on_c, 0, 72, 78
2, 12781, Note_off_c, 0, 72, 64
2, 12937, Note_on_c, 0, 79, 87
2, 13217, Note_off_c, 0, 79, 64
2, 13412, Note_on_c, 0, 79, 87
2, 13504, Note_off_c, 0, 79, 64
2, 13668, Note_on_c, 0, 79, 80
2, 13951, Note_off_c, 0, 79, 64
2, 14041, Note_on_c, 0, 81, 85
2, 14102, Note_off_c, 0, 81, 64
2, 14144, Note_on_c, 0, 82, 66
2, 14238, Note_off_c, 0, 82, 64
2, 14395, Note_on_c, 0, 81, 82
2, 14656, Note_off_c, 0, 81, 64
2, 14850, Note_on_c, 0, 74, 70
2, 14955, Note_off_c, 0, 74, 64
2, 15107, Note_on_c, 0, 74, 82
2, 15385, Note_off_c, 0, 74, 64
2, 15461, Note_on_c, 0, 76, 76
2, 15532, Note_off_c, 0, 76, 64
2, 15581, Note_on_c, 0, 77, 85
2, 15672, Note_off_c, 0, 77, 64
2, 15826, Note_on_c, 0, 71, 82
2, 16087, Note_off_c, 0, 71, 64
2, 16162, Note_on_c, 0, 72, 80
2, 16234, Note_off_c, 0, 72, 64
2, 16281, Note_on_c, 0, 74, 80
2, 16381, Note_off_c, 0, 74, 64
2, 16524, Note_on_c, 0, 67, 76
2, 16801, Note_off_c, 0, 67, 64
2, 16906, Note_on_c, 0, 79, 74
2, 16970, Note_off_c, 0, 79, 64
2, 17022, Note_on_c, 0, 77, 74
2, 17120, Note_off_c, 0, 77, 64
2, 17264, Note_on_c, 0, 76, 82
2, 17556, Note_off_c, 0, 76, 64
2, 17615, Note_on_c, 0, 77, 72
2, 17684, Note_off_c, 0, 77, 64
2, 17736, Note_on_c, 0, 79, 72
2, 17841, Note_off_c, 0, 79, 64
2, 17993, Note_on_c, 0, 72, 80
2, 18282, Note_off_c, 0, 72, 64
2, 18335, Note_on_c, 0, 74, 70
2, 18411, Note_off_c, 0, 74, 64
2, 18451, Note_on_c, 0, 76, 72
2, 18513, Note_off_c, 0, 76, 64
2, 18562, Note_on_c, 0, 77, 76
2, 18638, Note_off_c, 0, 77, 64
2, 18698, Note_on_c, 0, 79, 85
2, 19026, Note_off_c, 0, 79, 64
2, 19180, Note_on_c, 0, 79, 87
2, 19275, Note_off_c, 0, 79, 64
2, 19429, Note_on_c, 0, 79, 82
2, 19752, Note_off_c, 0, 79, 64
2, 19800, Note_on_c, 0, 84, 80
2, 19883, Note_off_c, 0, 84, 64
2, 19920, Note_on_c, 0, 81, 80
2, 20010, Note_off_c, 0, 81, 64
2, 20148, Note_on_c, 0, 78, 72
2, 20469, Note_off_c, 0, 78, 64
2, 20504, Note_on_c, 0, 79, 70
2, 20571, Note_off_c, 0, 79, 64
2, 20621, Note_on_c, 0, 81, 76
2, 20746, Note_off_c, 0, 81, 64
2, 20858, Note_on_c, 0, 74, 82
2, 21147, Note_off_c, 0, 74, 64
2, 21216, Note_on_c, 0, 76, 66
2, 21306, Note_off_c, 0, 76, 64
2, 21338, Note_on_c, 0, 78, 68
2, 21425, Note_off_c, 0, 78, 64
2, 21579, Note_on_c, 0, 79, 85
2, 21855, Note_off_c, 0, 79, 64
2, 21921, Note_on_c, 0, 74, 76
2, 21999, Note_off_c, 0, 74, 64
2, 22052, Note_on_c, 0, 76, 82
2, 22178, Note_off_c, 0, 76, 64
2, 22316, Note_on_c, 0, 69, 82
2, 22610, Note_off_c, 0, 69, 64
2, 22666, Note_on_c, 0, 71, 80
2, 22744, Note_off_c, 0, 71, 64
2, 22783, Note_on_c, 0, 72, 78
2, 22889, Note_off_c, 0, 72, 64
2, 23033, Note_on_c, 0, 71, 76
2, 23352, Note_off_c, 0, 71, 64
2, 23486, Note_on_c, 0, 67, 78
2, 23590, Note_off_c, 0, 67, 64
2, 23744, Note_on_c, 0, 67, 78
2, 23978, Note_off_c, 0, 67, 64
2, 47276, Note_on_c, 0, 74, 82
2, 47366, Note_off_c, 0, 74, 64
2, 47518, Note_on_c, 0, 71, 74
2, 47819, Note_off_c, 0, 71, 64
2, 47976, Note_on_c, 0, 71, 64
2, 48101, Note_off_c, 0, 71, 64
2, 48221, Note_on_c, 0, 71, 76
2, 48548, Note_off_c, 0, 71, 64
2, 48579, Note_on_c, 0, 69, 66
2, 48659, Note_off_c, 0, 69, 64
2, 48704, Note_on_c, 0, 67, 64
2, 48821, Note_off_c, 0, 67, 64
2, 48946, Note_on_c, 0, 77, 82
2, 49255, Note_off_c, 0, 77, 64
2, 49298, Note_on_c, 0, 76, 66
2, 49395, Note_off_c, 0, 76, 64
2, 49428, Note_on_c, 0, 74, 63
2, 49535, Note_off_c, 0, 74, 64
2, 49661, Note_on_c, 0, 83, 82
2, 49932, Note_off_c, 0, 83, 64
2, 50001, Note_on_c, 0, 74, 63
2, 50065, Note_off_c, 0, 74, 64
2, 50133, Note_on_c, 0, 77, 72
2, 50243, Note_off_c, 0, 77, 64
2, 50381, Note_on_c, 0, 76, 78
2, 50686, Note_off_c, 0, 76, 64
2, 50724, Note_on_c, 0, 74, 66
2, 50817, Note_off_c, 0, 74, 64
2, 50838, Note_on_c, 0, 72, 63
2, 50971, Note_off_c, 0, 72, 64
2, 51099, Note_on_c, 0, 71, 66
2, 51399, Note_off_c, 0, 71, 64
2, 51458, Note_on_c, 0, 76, 62
2, 51539, Note_off_c, 0, 76, 64
2, 51574, Note_on_c, 0, 74, 70
2, 51696, Note_off_c, 0, 74, 64
2, 51821, Note_on_c, 0, 72, 64
2, 52158, Note_off_c, 0, 72, 64
2, 52287, Note_on_c, 0, 69, 63
2, 52405, Note_off_c, 0, 69, 64
2, 52550, Note_on_c, 0, 69, 72
2, 52863, Note_off_c, 0, 69, 64
2, 52901, Note_on_c, 0, 71, 72
2, 52986, Note_off_c, 0, 71, 64
2, 53015, Note_on_c, 0, 72, 70
2, 53096, Note_off_c, 0, 72, 64
2, 53122, Note_on_c, 0, 74, 74
2, 53200, Note_off_c, 0, 74, 64
2, 53248, Note_on_c, 0, 76, 80
2, 53574, Note_off_c, 0, 76, 64
2, 53737, Note_on_c, 0, 76, 82
2, 53841, Note_off_c, 0, 76, 64
2, 53986, Note_on_c, 0, 76, 68
2, 54276, Note_off_c, 0, 76, 64
2, 54347, Note_on_c, 0, 82, 68
2, 54422, Note_off_c, 0, 82, 64
2, 54456, Note_on_c, 0, 79, 66
2, 54570, Note_off_c, 0, 79, 64
2, 54698, Note_on_c, 0, 76, 74
2, 54994, Note_off_c, 0, 76, 64
2, 55064, Note_on_c, 0, 79, 72
2, 55147, Note_off_c, 0, 79, 64
2, 55175, Note_on_c, 0, 76, 78
2, 55280, Note_off_c, 0, 76, 64
2, 55420, Note_on_c, 0, 73, 74
2, 55704, Note_off_c, 0, 73, 64
2, 55785, Note_on_c, 0, 76, 64
2, 55859, Note_off_c, 0, 76, 64
2, 55896, Note_on_c, 0, 73, 64
2, 55994, Note_off_c, 0, 73, 64
2, 56141, Note_on_c, 0, 69, 72
2, 56416, Note_off_c, 0, 69, 64
2, 56492, Note_on_c, 0, 81, 66
2, 56573, Note_off_c, 0, 81, 64
2, 56614, Note_on_c, 0, 77, 70
2, 56718, Note_off_c, 0, 77, 64
2, 56868, Note_on_c, 0, 74, 78
2, 57129, Note_off_c, 0, 74, 64
2, 57221, Note_on_c, 0, 76, 64
2, 57287, Note_off_c, 0, 76, 64
2, 57348, Note_on_c, 0, 73, 66
2, 57458, Note_off_c, 0, 73, 64
2, 57587, Note_on_c, 0, 74, 66
2, 57895, Note_off_c, 0, 74, 64
2, 58049, Note_on_c, 0, 74, 66
2, 58151, Note_off_c, 0, 74, 64
2, 58304, Note_on_c, 0, 74, 57
2, 58543, Note_off_c, 0, 74, 64
2, 58780, Note_on_c, 0, 77, 70
2, 58885, Note_off_c, 0, 77, 64
2, 59021, Note_on_c, 0, 77, 76
2, 60013, Note_off_c, 0, 77, 64
2, 60100, Note_on_c, 0, 74, 66
2, 60162, Note_off_c, 0, 74, 64
2, 60205, Note_on_c, 0, 76, 80
2, 60295, Note_off_c, 0, 76, 64
2, 60459, Note_on_c, 0, 77, 74
2, 60796, Note_off_c, 0, 77, 64
2, 60926, Note_on_c, 0, 67, 64
2, 61035, Note_off_c, 0, 67, 64
2, 61173, Note_on_c, 0, 67, 72
2, 61463, Note_off_c, 0, 67, 64
2, 61537, Note_on_c, 0, 70, 63
2, 61619, Note_off_c, 0, 70, 64
2, 61650, Note_on_c, 0, 69, 78
2, 61771, Note_off_c, 0, 69, 64
2, 61914, Note_on_c, 0, 70, 66
2, 62889, Note_off_c, 0, 70, 64
2, 62970, Note_on_c, 0, 74, 80
2, 63044, Note_off_c, 0, 74, 64
2, 63089, Note_on_c, 0, 72, 82
2, 63191, Note_off_c, 0, 72, 64
2, 63322, Note_on_c, 0, 69, 62
2, 63634, Note_off_c, 0, 69, 64
2, 63699, Note_on_c, 0, 72, 78
2, 63792, Note_off_c, 0, 72, 64
2, 63810, Note_on_c, 0, 71, 74
2, 63941, Note_off_c, 0, 71, 64
2, 64078, Note_on_c, 0, 72, 68
2, 64349, Note_off_c, 0, 72, 64
2, 64428, Note_on_c, 0, 76, 70
2, 64501, Note_off_c, 0, 76, 64
2, 64546, Note_on_c, 0, 74, 80
2, 64662, Note_off_c, 0, 74, 64
2, 64783, Note_on_c, 0, 71, 78
2, 65087, Note_off_c, 0, 71, 64
2, 65141, Note_on_c, 0, 74, 80
2, 65228, Note_off_c, 0, 74, 64
2, 65255, Note_on_c, 0, 72, 80
2, 65384, Note_off_c, 0, 72, 64
2, 65507, Note_on_c, 0, 74, 82
2, 65771, Note_off_c, 0, 74, 64
2, 65854, Note_on_c, 0, 77, 78
2, 65932, Note_off_c, 0, 77, 64
2, 65970, Note_on_c, 0, 76, 82
2, 66098, Note_off_c, 0, 76, 64
2, 66224, Note_on_c, 0, 72, 82
2, 66511, Note_off_c, 0, 72, 64
2, 66570, Note_on_c, 0, 77, 76
2, 66637, Note_off_c, 0, 77, 64
2, 66689, Note_on_c, 0, 81, 89
2, 67221, Note_off_c, 0, 81, 64
2, 67292, Note_on_c, 0, 79, 78
2, 67359, Note_off_c, 0, 79, 64
2, 67401, Note_on_c, 0, 77, 82
2, 67534, Note_off_c, 0, 77, 64
2, 67653, Note_on_c, 0, 76, 82
2, 67959, Note_off_c, 0, 76, 64
2, 68007, Note_on_c, 0, 77, 64
2, 68069, Note_off_c, 0, 77, 64
2, 68130, Note_on_c, 0, 79, 68
2, 68240, Note_off_c, 0, 79, 64
2, 68379, Note_on_c, 0, 67, 64
2, 68671, Note_off_c, 0, 67, 64
2, 68744, Note_on_c, 0, 69, 64
2, 68826, Note_off_c, 0, 69, 64
2, 68864, Note_on_c, 0, 71, 72
2, 68966, Note_off_c, 0, 71, 64
2, 69099, Note_on_c, 0, 72, 64
2, 69381, Note_off_c, 0, 72, 64
2, 69558, Note_on_c, 0, 72, 64
2, 69649, Note_off_c, 0, 72, 64
2, 69815, Note_on_c, 0, 72, 61
2, 70070, Note_off_c, 0, 72, 64
2, 70070, End_track
3, 0, Start_track
3, 0, Title_t, "Violin2"
3, 0, Program_c, 1, 40
3, 0, Control_c, 1, 7, 100
3, 1190, Note_on_c, 1, 67, 68
3, 1330, Note_off_c, 1, 67, 64
3, 1434, Note_on_c, 1, 72, 78
3, 1536, Note_off_c, 1, 72, 64
3, 1536, Note_on_c, 1, 71, 72
3, 1620, Note_off_c, 1, 71, 64
3, 1662, Note_on_c, 1, 72, 78
3, 1767, Note_on_c, 1, 74, 80
3, 1769, Note_off_c, 1, 72, 64
3, 1830, Note_off_c, 1, 74, 64
3, 1890, Note_on_c, 1, 76, 74
3, 1983, Note_off_c, 1, 76, 64
3, 1997, Note_on_c, 1, 74, 64
3, 2056, Note_off_c, 1, 74, 64
3, 2127, Note_on_c, 1, 72, 72
3, 2230, Note_off_c, 1, 72, 64
3, 2239, Note_on_c, 1, 71, 72
3, 2313, Note_off_c, 1, 71, 64
3, 2368, Note_on_c, 1, 72, 78
3, 2477, Note_on_c, 1, 77, 70
3, 2488, Note_off_c, 1, 72, 64
3, 2557, Note_off_c, 1, 77, 64
3, 2602, Note_on_c, 1, 76, 72
3, 2697, Note_off_c, 1, 76, 64
3, 2721, Note_on_c, 1, 74, 74
3, 2785, Note_off_c, 1, 74, 64
3, 2844, Note_on_c, 1, 72, 80
3, 2949, Note_on_c, 1, 70, 61
3, 2965, Note_off_c, 1, 72, 64
3, 3016, Note_off_c, 1, 70, 64
3, 3084, Note_on_c, 1, 69, 64
3, 3194, Note_off_c, 1, 69, 64
3, 3203, Note_on_c, 1, 67, 57
3, 3269, Note_off_c, 1, 67, 64
3, 3327, Note_on_c, 1, 65, 68
3, 3442, Note_on_c, 1, 67, 70
3, 3450, Note_off_c, 1, 65, 64
3, 3512, Note_off_c, 1, 67, 64
3, 3573, Note_on_c, 1, 69, 78
3, 3675, Note_off_c, 1, 69, 64
3, 3690, Note_on_c, 1, 67, 70
3, 3773, Note_off_c, 1, 67, 64
3, 3818, Note_on_c, 1, 69, 64
3, 3934, Note_off_c, 1, 69, 64
3, 3934, Note_on_c, 1, 71, 70
3, 4000, Note_off_c, 1, 71, 64
3, 4057, Note_on_c, 1, 72, 68
3, 4164, Note_off_c, 1, 72, 64
3, 4171, Note_on_c, 1, 69, 64
3, 4231, Note_off_c, 1, 69, 64
3, 4302, Note_on_c, 1, 65, 74
3, 4401, Note_off_c, 1, 65, 64
3, 4411, Note_on_c, 1, 64, 63
3, 4487, Note_off_c, 1, 64, 64
3, 4534, Note_on_c, 1, 65, 66
3, 4642, Note_off_c, 1, 65, 64
3, 4651, Note_on_c, 1, 67, 70
3, 4722, Note_off_c, 1, 67, 64
3, 4777, Note_on_c, 1, 69, 70
3, 4879, Note_on_c, 1, 65, 66
3, 4884, Note_off_c, 1, 69, 64
3, 4945, Note_off_c, 1, 65, 64
3, 5004, Note_on_c, 1, 62, 66
3, 5118, Note_on_c, 1, 65, 72
3, 5130, Note_off_c, 1, 62, 64
3, 5190, Note_off_c, 1, 65, 64
3, 5244, Note_on_c, 1, 67, 70
3, 5360, Note_on_c, 1, 69, 78
3, 5379, Note_off_c, 1, 67, 64
3, 5415, Note_off_c, 1, 69, 64
3, 5484, Note_on_c, 1, 71, 78
3, 5591, Note_off_c, 1, 71, 64
3, 5607, Note_on_c, 1, 74, 47
3, 5660, Note_off_c, 1, 74, 64
3, 5731, Note_on_c, 1, 67, 63
3, 5847, Note_on_c, 1, 77, 68
3, 5849, Note_off_c, 1, 67, 64
3, 5925, Note_off_c, 1, 77, 64
3, 5975, Note_on_c, 1, 76, 70
3, 6077, Note_off_c, 1, 76, 64
3, 6085, Note_on_c, 1, 74, 68
3, 6154, Note_off_c, 1, 74, 64
3, 6217, Note_on_c, 1, 72, 80
3, 6310, Note_off_c, 1, 72, 64
3, 6331, Note_on_c, 1, 71, 58
3, 6403, Note_off_c, 1, 71, 64
3, 6455, Note_on_c, 1, 72, 80
3, 6554, Note_off_c, 1, 72, 64
3, 6559, Note_on_c, 1, 69, 74
3, 6621, Note_off_c, 1, 69, 64
3, 6680, Note_on_c, 1, 67, 68
3, 6792, Note_on_c, 1, 65, 62
3, 6802, Note_off_c, 1, 67, 64
3, 6860, Note_off_c, 1, 65, 64
3, 6922, Note_on_c, 1, 64, 68
3, 7032, Note_on_c, 1, 62, 60
3, 7069, Note_off_c, 1, 64, 64
3, 7100, Note_off_c, 1, 62, 64
3, 7172, Note_on_c, 1, 60, 70
3, 7288, Note_on_c, 1, 67, 68
3, 7305, Note_off_c, 1, 60, 64
3, 7350, Note_off_c, 1, 67, 64
3, 7412, Note_on_c, 1, 72, 80
3, 7508, Note_off_c, 1, 72, 64
3, 7527, Note_on_c, 1, 74, 74
3, 7596, Note_off_c, 1, 74, 64
3, 7647, Note_on_c, 1, 76, 74
3, 7749, Note_off_c, 1, 76, 64
3, 7765, Note_on_c, 1, 74, 68
3, 7829, Note_off_c, 1, 74, 64
3, 7888, Note_on_c, 1, 72, 80
3, 7997, Note_off_c, 1, 72, 64
3, 8002, Note_on_c, 1, 71, 72
3, 8077, Note_off_c, 1, 71, 64
3, 8130, Note_on_c, 1, 72, 72
3, 8235, Note_off_c, 1, 72, 64
3, 8244, Note_on_c, 1, 74, 68
3, 8318, Note_off_c, 1, 74, 64
3, 8368, Note_on_c, 1, 76, 68
3, 8477, Note_off_c, 1, 76, 64
3, 8491, Note_on_c, 1, 72, 66
3, 8552, Note_off_c, 1, 72, 64
3, 8634, Note_on_c, 1, 69, 66
3, 8738, Note_off_c, 1, 69, 64
3, 8740, Note_on_c, 1, 67, 64
3, 8823, Note_off_c, 1, 67, 64
3, 8864, Note_on_c, 1, 69, 70
3, 8959, Note_off_c, 1, 69, 64
3, 8975, Note_on_c, 1, 71, 66
3, 9054, Note_off_c, 1, 71, 64
3, 9092, Note_on_c, 1, 72, 66
3, 9192, Note_off_c, 1, 72, 64
3, 9210, Note_on_c, 1, 69, 72
3, 9268, Note_off_c, 1, 69, 64
3, 9334, Note_on_c, 1, 66, 70
3, 9446, Note_off_c, 1, 66, 64
3, 9446, Note_on_c, 1, 64, 57
3, 9512, Note_off_c, 1, 64, 64
3, 9569, Note_on_c, 1, 66, 66
3, 9669, Note_off_c, 1, 66, 64
3, 9688, Note_on_c, 1, 67, 76
3, 9768, Note_off_c, 1, 67, 64
3, 9801, Note_on_c, 1, 69, 82
3, 9884, Note_off_c, 1, 69, 64
3, 9916, Note_on_c, 1, 62, 78
3, 10000, Note_off_c, 1, 62, 64
3, 10032, Note_on_c, 1, 74, 72
3, 10148, Note_off_c, 1, 74, 64
3, 10170, Note_on_c, 1, 72, 68
3, 10227, Note_off_c, 1, 72, 64
3, 10293, Note_on_c, 1, 71, 70
3, 10405, Note_off_c, 1, 71, 64
3, 10410, Note_on_c, 1, 69, 59
3, 10480, Note_off_c, 1, 69, 64
3, 10532, Note_on_c, 1, 67, 68
3, 10642, Note_on_c, 1, 71, 74
3, 10643, Note_off_c, 1, 67, 64
3, 10689, Note_off_c, 1, 71, 64
3, 10760, Note_on_c, 1, 69, 66
3, 10863, Note_off_c, 1, 69, 64
3, 10870, Note_on_c, 1, 67, 60
3, 10943, Note_off_c, 1, 67, 64
3, 10989, Note_on_c, 1, 66, 70
3, 11100, Note_off_c, 1, 66, 64
3, 11111, Note_on_c, 1, 64, 60
3, 11173, Note_off_c, 1, 64, 64
3, 11237, Note_on_c, 1, 62, 66
3, 11357, Note_on_c, 1, 69, 82
3, 11364, Note_off_c, 1, 62, 64
3, 11430, Note_off_c, 1, 69, 64
3, 11492, Note_on_c, 1, 71, 76
3, 11610, Note_on_c, 1, 67, 70
3, 11632, Note_off_c, 1, 71, 64
3, 11672, Note_off_c, 1, 67, 64
3, 11726, Note_on_c, 1, 66, 70
3, 11836, Note_off_c, 1, 66, 64
3, 11843, Note_on_c, 1, 64, 64
3, 11919, Note_off_c, 1, 64, 64
3, 11971, Note_on_c, 1, 62, 87
3, 12076, Note_on_c, 1, 60, 60
3, 12092, Note_off_c, 1, 62, 64
3, 12149, Note_off_c, 1, 60, 64
3, 12224, Note_on_c, 1, 62, 68
3, 12512, Note_off_c, 1, 62, 64
3, 12714, Note_on_c, 1, 67, 74
3, 12823, Note_off_c, 1, 67, 64
3, 12944, Note_on_c, 1, 72, 80
3, 13060, Note_on_c, 1, 71, 72
3, 13061, Note_off_c, 1, 72, 64
3, 13141, Note_off_c, 1, 71, 64
3, 13177, Note_on_c, 1, 72, 66
3, 13269, Note_off_c, 1, 72, 64
3, 13293, Note_on_c, 1, 74, 76
3, 13365, Note_off_c, 1, 74, 64
3, 13422, Note_on_c, 1, 76, 66
3, 13533, Note_on_c, 1, 74, 63
3, 13545, Note_off_c, 1, 76, 64
3, 13595, Note_off_c, 1, 74, 64
3, 13657, Note_on_c, 1, 72, 72
3, 13752, Note_off_c, 1, 72, 64
3, 13768, Note_on_c, 1, 71, 70
3, 13835, Note_off_c, 1, 71, 64
3, 13894, Note_on_c, 1, 72, 78
3, 14005, Note_on_c, 1, 77, 80
3, 14012, Note_off_c, 1, 72, 64
3, 14083, Note_off_c, 1, 77, 64
3, 14124, Note_on_c, 1, 76, 68
3, 14223, Note_off_c, 1, 76, 64
3, 14243, Note_on_c, 1, 74, 76
3, 14318, Note_off_c, 1, 74, 64
3, 14369, Note_on_c, 1, 72, 76
3, 14473, Note_on_c, 1, 70, 66
3, 14492, Note_off_c, 1, 72, 64
3, 14556, Note_off_c, 1, 70, 64
3, 14616, Note_on_c, 1, 69, 72
3, 14725, Note_off_c, 1, 69, 64
3, 14727, Note_on_c, 1, 67, 63
3, 14794, Note_off_c, 1, 67, 64
3, 14850, Note_on_c, 1, 65, 76
3, 14966, Note_on_c, 1, 67, 74
3, 14967, Note_off_c, 1, 65, 64
3, 15036, Note_off_c, 1, 67, 64
3, 15097, Note_on_c, 1, 69, 78
3, 15207, Note_on_c, 1, 67, 66
3, 15211, Note_off_c, 1, 69, 64
3, 15285, Note_off_c, 1, 67, 64
3, 15339, Note_on_c, 1, 69, 72
3, 15444, Note_off_c, 1, 69, 64
3, 15453, Note_on_c, 1, 71, 72
3, 15527, Note_off_c, 1, 71, 64
3, 15577, Note_on_c, 1, 72, 80
3, 15700, Note_on_c, 1, 69, 68
3, 15707, Note_off_c, 1, 72, 64
3, 15760, Note_off_c, 1, 69, 64
3, 15826, Note_on_c, 1, 65, 74
3, 15929, Note_off_c, 1, 65, 64
3, 15937, Note_on_c, 1, 64, 63
3, 16018, Note_off_c, 1, 64, 64
3, 16059, Note_on_c, 1, 65, 76
3, 16172, Note_off_c, 1, 65, 64
3, 16177, Note_on_c, 1, 67, 68
3, 16246, Note_off_c, 1, 67, 64
3, 16296, Note_on_c, 1, 69, 66
3, 16396, Note_off_c, 1, 69, 64
3, 16400, Note_on_c, 1, 65, 66
3, 16479, Note_off_c, 1, 65, 64
3, 16536, Note_on_c, 1, 62, 66
3, 16645, Note_on_c, 1, 65, 78
3, 16652, Note_off_c, 1, 62, 64
3, 16713, Note_off_c, 1, 65, 64
3, 16768, Note_on_c, 1, 67, 85
3, 16884, Note_on_c, 1, 69, 72
3, 16901, Note_off_c, 1, 67, 64
3, 16946, Note_off_c, 1, 69, 64
3, 17012, Note_on_c, 1, 71, 80
3, 17120, Note_off_c, 1, 71, 64
3, 17126, Note_on_c, 1, 74, 80
3, 17187, Note_off_c, 1, 74, 64
3, 17259, Note_on_c, 1, 67, 52
3, 17362, Note_off_c, 1, 67, 64
3, 17369, Note_on_c, 1, 77, 80
3, 17447, Note_off_c, 1, 77, 64
3, 17494, Note_on_c, 1, 76, 68
3, 17599, Note_off_c, 1, 76, 64
3, 17609, Note_on_c, 1, 74, 74
3, 17679, Note_off_c, 1, 74, 64
3, 17730, Note_on_c, 1, 72, 76
3, 17831, Note_off_c, 1, 72, 64
3, 17837, Note_on_c, 1, 71, 72
3, 17912, Note_off_c, 1, 71, 64
3, 17964, Note_on_c, 1, 72, 80
3, 18078, Note_off_c, 1, 72, 64
3, 18081, Note_on_c, 1, 69, 66
3, 18160, Note_off_c, 1, 69, 64
3, 18212, Note_on_c, 1, 67, 66
3, 18310, Note_on_c, 1, 65, 59
3, 18344, Note_off_c, 1, 67, 64
3, 18382, Note_off_c, 1, 65, 64
3, 18442, Note_on_c, 1, 64, 66
3, 18556, Note_off_c, 1, 64, 64
3, 18562, Note_on_c, 1, 62, 76
3, 18638, Note_off_c, 1, 62, 64
3, 18703, Note_on_c, 1, 60, 60
3, 18814, Note_on_c, 1, 67, 66
3, 18828, Note_off_c, 1, 60, 64
3, 18881, Note_off_c, 1, 67, 64
3, 18942, Note_on_c, 1, 72, 76
3, 19047, Note_off_c, 1, 72, 64
3, 19059, Note_on_c, 1, 74, 76
3, 19132, Note_off_c, 1, 74, 64
3, 19180, Note_on_c, 1, 76, 70
3, 19294, Note_on_c, 1, 74, 64
3, 19301, Note_off_c, 1, 76, 64
3, 19356, Note_off_c, 1, 74, 64
3, 19419, Note_on_c, 1, 72, 70
3, 19522, Note_off_c, 1, 72, 64
3, 19529, Note_on_c, 1, 71, 66
3, 19609, Note_off_c, 1, 71, 64
3, 19659, Note_on_c, 1, 72, 72
3, 19768, Note_off_c, 1, 72, 64
3, 19778, Note_on_c, 1, 74, 72
3, 19845, Note_off_c, 1, 74, 64
3, 19899, Note_on_c, 1, 76, 68
3, 20013, Note_off_c, 1, 76, 64
3, 20020, Note_on_c, 1, 72, 68
3, 20089, Note_off_c, 1, 72, 64
3, 20156, Note_on_c, 1, 69, 78
3, 20260, Note_off_c, 1, 69, 64
3, 20264, Note_on_c, 1, 67, 70
3, 20347, Note_off_c, 1, 67, 64
3, 20383, Note_on_c, 1, 69, 68
3, 20478, Note_off_c, 1, 69, 64
3, 20497, Note_on_c, 1, 71, 70
3, 20566, Note_off_c, 1, 71, 64
3, 20613, Note_on_c, 1, 72, 76
3, 20718, Note_off_c, 1, 72, 64
3, 20728, Note_on_c, 1, 69, 68
3, 20791, Note_off_c, 1, 69, 64
3, 20860, Note_on_c, 1, 66, 72
3, 20970, Note_off_c, 1, 66, 64
3, 20974, Note_on_c, 1, 64, 68
3, 21045, Note_off_c, 1, 64, 64
3, 21086, Note_on_c, 1, 66, 78
3, 21181, Note_off_c, 1, 66, 64
3, 21207, Note_on_c, 1, 67, 76
3, 21290, Note_off_c, 1, 67, 64
3, 21323, Note_on_c, 1, 69, 82
3, 21428, Note_off_c, 1, 69, 64
3, 21435, Note_on_c, 1, 62, 72
3, 21520, Note_off_c, 1, 62, 64
3, 21561, Note_on_c, 1, 74, 68
3, 21682, Note_on_c, 1, 72, 68
3, 21687, Note_off_c, 1, 74, 64
3, 21750, Note_off_c, 1, 72, 64
3, 21812, Note_on_c, 1, 71, 63
3, 21921, Note_off_c, 1, 71, 64
3, 21933, Note_on_c, 1, 69, 63
3, 22007, Note_off_c, 1, 69, 64
3, 22050, Note_on_c, 1, 67, 74
3, 22161, Note_off_c, 1, 67, 64
3, 22163, Note_on_c, 1, 71, 76
3, 22227, Note_off_c, 1, 71, 64
3, 22294, Note_on_c, 1, 69, 68
3, 22401, Note_off_c, 1, 69, 64
3, 22401, Note_on_c, 1, 67, 68
3, 22467, Note_off_c, 1, 67, 64
3, 22520, Note_on_c, 1, 66, 85
3, 22638, Note_off_c, 1, 66, 64
3, 22641, Note_on_c, 1, 64, 68
3, 22714, Note_off_c, 1, 64, 64
3, 22764, Note_on_c, 1, 62, 64
3, 22860, Note_off_c, 1, 62, 64
3, 22875, Note_on_c, 1, 69, 70
3, 22959, Note_off_c, 1, 69, 64
3, 23009, Note_on_c, 1, 71, 78
3, 23125, Note_on_c, 1, 67, 72
3, 23130, Note_off_c, 1, 71, 64
3, 23201, Note_off_c, 1, 67, 64
3, 23250, Note_on_c, 1, 66, 68
3, 23350, Note_off_c, 1, 66, 64
3, 23362, Note_on_c, 1, 64, 82
3, 23426, Note_off_c, 1, 64, 64
3, 23483, Note_on_c, 1, 62, 68
3, 23580, Note_off_c, 1, 62, 64
3, 23595, Note_on_c, 1, 60, 66
3, 23678, Note_off_c, 1, 60, 64
3, 23740, Note_on_c, 1, 62, 70
3, 24019, Note_off_c, 1, 62, 64
3, 47276, Note_on_c, 1, 67, 72
3, 47378, Note_off_c, 1, 67, 64
3, 47378, Note_on_c, 1, 69, 68
3, 47463, Note_off_c, 1, 69, 64
3, 47510, Note_on_c, 1, 71, 80
3, 47620, Note_off_c, 1, 71, 64
3, 47622, Note_on_c, 1, 69, 60
3, 47684, Note_off_c, 1, 69, 64
3, 47739, Note_on_c, 1, 71, 59
3, 47847, Note_on_c, 1, 72, 64
3, 47848, Note_off_c, 1, 71, 64
3, 47914, Note_off_c, 1, 72, 64
3, 47966, Note_on_c, 1, 74, 76
3, 48078, Note_on_c, 1, 72, 64
3, 48095, Note_off_c, 1, 74, 64
3, 48135, Note_off_c, 1, 72, 64
3, 48206, Note_on_c, 1, 71, 59
3, 48313, Note_off_c, 1, 71, 64
3, 48323, Note_on_c, 1, 69, 64
3, 48410, Note_off_c, 1, 69, 64
3, 48455, Note_on_c, 1, 71, 64
3, 48562, Note_on_c, 1, 72, 66
3, 48564, Note_off_c, 1, 71, 64
3, 48629, Note_off_c, 1, 72, 64
3, 48688, Note_on_c, 1, 74, 70
3, 48804, Note_on_c, 1, 72, 64
3, 48816, Note_off_c, 1, 74, 64
3, 48859, Note_off_c, 1, 72, 64
3, 48925, Note_on_c, 1, 71, 60
3, 49032, Note_off_c, 1, 71, 64
3, 49044, Note_on_c, 1, 69, 60
3, 49117, Note_off_c, 1, 69, 64
3, 49174, Note_on_c, 1, 71, 59
3, 49281, Note_on_c, 1, 72, 63
3, 49293, Note_off_c, 1, 71, 64
3, 49343, Note_off_c, 1, 72, 64
3, 49409, Note_on_c, 1, 74, 70
3, 49521, Note_on_c, 1, 72, 66
3, 49531, Note_off_c, 1, 74, 64
3, 49585, Note_off_c, 1, 72, 64
3, 49651, Note_on_c, 1, 71, 68
3, 49761, Note_on_c, 1, 69, 62
3, 49766, Note_off_c, 1, 71, 64
3, 49832, Note_off_c, 1, 69, 64
3, 49884, Note_on_c, 1, 71, 63
3, 49993, Note_on_c, 1, 72, 68
3, 50013, Note_off_c, 1, 71, 64
3, 50058, Note_off_c, 1, 72, 64
3, 50119, Note_on_c, 1, 71, 70
3, 50235, Note_on_c, 1, 69, 64
3, 50243, Note_off_c, 1, 71, 64
3, 50293, Note_off_c, 1, 69, 64
3, 50354, Note_on_c, 1, 68, 74
3, 50468, Note_on_c, 1, 64, 59
3, 50480, Note_off_c, 1, 68, 64
3, 50537, Note_off_c, 1, 64, 64
3, 50597, Note_on_c, 1, 66, 61
3, 50710, Note_on_c, 1, 68, 62
3, 50720, Note_off_c, 1, 66, 64
3, 50784, Note_off_c, 1, 68, 64
3, 50834, Note_on_c, 1, 69, 70
3, 50934, Note_off_c, 1, 69, 64
3, 50950, Note_on_c, 1, 66, 57
3, 51021, Note_off_c, 1, 66, 64
3, 51085, Note_on_c, 1, 68, 76
3, 51197, Note_on_c, 1, 66, 61
3, 51221, Note_off_c, 1, 68, 64
3, 51280, Note_off_c, 1, 66, 64
3, 51328, Note_on_c, 1, 68, 85
3, 51442, Note_on_c, 1, 69, 74
3, 51452, Note_off_c, 1, 68, 64
3, 51515, Note_off_c, 1, 69, 64
3, 51581, Note_on_c, 1, 71, 85
3, 51693, Note_on_c, 1, 68, 60
3, 51703, Note_off_c, 1, 71, 64
3, 51757, Note_off_c, 1, 68, 64
3, 51813, Note_on_c, 1, 69, 78
3, 51925, Note_on_c, 1, 65, 64
3, 51937, Note_off_c, 1, 69, 64
3, 51987, Note_off_c, 1, 65, 64
3, 52052, Note_on_c, 1, 64, 66
3, 52156, Note_on_c, 1, 62, 68
3, 52162, Note_off_c, 1, 64, 64
3, 52218, Note_off_c, 1, 62, 64
3, 52286, Note_on_c, 1, 60, 63
3, 52405, Note_on_c, 1, 59, 68
3, 52417, Note_off_c, 1, 60, 64
3, 52481, Note_off_c, 1, 59, 64
3, 52535, Note_on_c, 1, 60, 68
3, 52623, Note_off_c, 1, 60, 64
3, 52643, Note_on_c, 1, 59, 66
3, 52733, Note_off_c, 1, 59, 64
3, 52782, Note_on_c, 1, 60, 70
3, 52884, Note_on_c, 1, 62, 63
3, 52889, Note_off_c, 1, 60, 64
3, 52956, Note_off_c, 1, 62, 64
3, 53020, Note_on_c, 1, 64, 61
3, 53138, Note_on_c, 1, 65, 72
3, 53153, Note_off_c, 1, 64, 64
3, 53198, Note_off_c, 1, 65, 64
3, 53257, Note_on_c, 1, 67, 80
3, 53362, Note_on_c, 1, 65, 61
3, 53374, Note_off_c, 1, 67, 64
3, 53442, Note_off_c, 1, 65, 64
3, 53485, Note_on_c, 1, 67, 85
3, 53604, Note_on_c, 1, 69, 76
3, 53616, Note_off_c, 1, 67, 64
3, 53665, Note_off_c, 1, 69, 64
3, 53729, Note_on_c, 1, 70, 78
3, 53837, Note_on_c, 1, 69, 66
3, 53848, Note_off_c, 1, 70, 64
3, 53904, Note_off_c, 1, 69, 64
3, 53966, Note_on_c, 1, 67, 62
3, 54072, Note_off_c, 1, 67, 64
3, 54079, Note_on_c, 1, 65, 68
3, 54150, Note_off_c, 1, 65, 64
3, 54212, Note_on_c, 1, 67, 61
3, 54323, Note_on_c, 1, 69, 74
3, 54339, Note_off_c, 1, 67, 64
3, 54390, Note_off_c, 1, 69, 64
3, 54446, Note_on_c, 1, 70, 64
3, 54558, Note_on_c, 1, 69, 68
3, 54577, Note_off_c, 1, 70, 64
3, 54627, Note_off_c, 1, 69, 64
3, 54696, Note_on_c, 1, 67, 64
3, 54810, Note_on_c, 1, 65, 66
3, 54819, Note_off_c, 1, 67, 64
3, 54881, Note_off_c, 1, 65, 64
3, 54935, Note_on_c, 1, 67, 60
3, 55042, Note_on_c, 1, 69, 74
3, 55066, Note_off_c, 1, 67, 64
3, 55099, Note_off_c, 1, 69, 64
3, 55166, Note_on_c, 1, 70, 66
3, 55270, Note_on_c, 1, 67, 72
3, 55284, Note_off_c, 1, 70, 64
3, 55344, Note_off_c, 1, 67, 64
3, 55415, Note_on_c, 1, 69, 76
3, 55517, Note_off_c, 1, 69, 64
3, 55529, Note_on_c, 1, 67, 68
3, 55604, Note_off_c, 1, 67, 64
3, 55657, Note_on_c, 1, 69, 70
3, 55759, Note_off_c, 1, 69, 64
3, 55764, Note_on_c, 1, 71, 66
3, 55832, Note_off_c, 1, 71, 64
3, 55894, Note_on_c, 1, 73, 62
3, 56004, Note_on_c, 1, 69, 64
3, 56022, Note_off_c, 1, 73, 64
3, 56065, Note_off_c, 1, 69, 64
3, 56134, Note_on_c, 1, 74, 82
3, 56243, Note_on_c, 1, 69, 57
3, 56263, Note_off_c, 1, 74, 64
3, 56314, Note_off_c, 1, 69, 64
3, 56369, Note_on_c, 1, 71, 68
3, 56490, Note_on_c, 1, 73, 60
3, 56504, Note_off_c, 1, 71, 64
3, 56554, Note_off_c, 1, 73, 64
3, 56606, Note_on_c, 1, 74, 78
3, 56716, Note_on_c, 1, 69, 66
3, 56741, Note_off_c, 1, 74, 64
3, 56782, Note_off_c, 1, 69, 64
3, 56847, Note_on_c, 1, 65, 64
3, 56950, Note_off_c, 1, 65, 64
3, 56958, Note_on_c, 1, 64, 58
3, 57023, Note_off_c, 1, 64, 64
3, 57088, Note_on_c, 1, 65, 68
3, 57195, Note_off_c, 1, 65, 64
3, 57200, Note_on_c, 1, 67, 66
3, 57269, Note_off_c, 1, 67, 64
3, 57333, Note_on_c, 1, 69, 76
3, 57444, Note_on_c, 1, 67, 66
3, 57458, Note_off_c, 1, 69, 64
3, 57511, Note_off_c, 1, 67, 64
3, 57575, Note_on_c, 1, 65, 66
3, 57677, Note_off_c, 1, 65, 64
3, 57687, Note_on_c, 1, 64, 64
3, 57750, Note_off_c, 1, 64, 64
3, 57810, Note_on_c, 1, 65, 60
3, 57909, Note_off_c, 1, 65, 64
3, 57911, Note_on_c, 1, 67, 66
3, 57985, Note_off_c, 1, 67, 64
3, 58040, Note_on_c, 1, 69, 68
3, 58149, Note_on_c, 1, 67, 63
3, 58166, Note_off_c, 1, 69, 64
3, 58225, Note_off_c, 1, 67, 64
3, 58289, Note_on_c, 1, 65, 63
3, 58394, Note_off_c, 1, 65, 64
3, 58399, Note_on_c, 1, 64, 62
3, 58465, Note_off_c, 1, 64, 64
3, 58531, Note_on_c, 1, 65, 60
3, 58626, Note_off_c, 1, 65, 64
3, 58645, Note_on_c, 1, 67, 72
3, 58723, Note_off_c, 1, 67, 64
3, 58771, Note_on_c, 1, 69, 74
3, 58863, Note_off_c, 1, 69, 64
3, 58880, Note_on_c, 1, 62, 58
3, 58955, Note_off_c, 1, 62, 64
3, 59018, Note_on_c, 1, 67, 82
3, 59129, Note_on_c, 1, 69, 72
3, 59141, Note_off_c, 1, 67, 64
3, 59193, Note_off_c, 1, 69, 64
3, 59270, Note_on_c, 1, 71, 64
3, 59372, Note_on_c, 1, 72, 68
3, 59386, Note_off_c, 1, 71, 64
3, 59426, Note_off_c, 1, 72, 64
3, 59492, Note_on_c, 1, 74, 78
3, 59590, Note_on_c, 1, 76, 64
3, 59611, Note_off_c, 1, 74, 64
3, 59659, Note_off_c, 1, 76, 64
3, 59714, Note_on_c, 1, 77, 78
3, 59832, Note_on_c, 1, 76, 64
3, 59844, Note_off_c, 1, 77, 64
3, 59906, Note_off_c, 1, 76, 64
3, 59965, Note_on_c, 1, 74, 72
3, 60065, Note_on_c, 1, 72, 68
3, 60081, Note_off_c, 1, 74, 64
3, 60134, Note_off_c, 1, 72, 64
3, 60193, Note_on_c, 1, 71, 72
3, 60307, Note_on_c, 1, 69, 60
3, 60312, Note_off_c, 1, 71, 64
3, 60383, Note_off_c, 1, 69, 64
3, 60438, Note_on_c, 1, 71, 64
3, 60549, Note_on_c, 1, 72, 68
3, 60558, Note_off_c, 1, 71, 64
3, 60622, Note_off_c, 1, 72, 64
3, 60679, Note_on_c, 1, 74, 68
3, 60788, Note_on_c, 1, 72, 64
3, 60812, Note_off_c, 1, 74, 64
3, 60855, Note_off_c, 1, 72, 64
3, 60915, Note_on_c, 1, 71, 68
3, 61024, Note_on_c, 1, 69, 60
3, 61043, Note_off_c, 1, 71, 64
3, 61092, Note_off_c, 1, 69, 64
3, 61156, Note_on_c, 1, 67, 66
3, 61273, Note_on_c, 1, 65, 64
3, 61290, Note_off_c, 1, 67, 64
3, 61334, Note_off_c, 1, 65, 64
3, 61394, Note_on_c, 1, 64, 61
3, 61508, Note_on_c, 1, 62, 66
3, 61518, Note_off_c, 1, 64, 64
3, 61592, Note_off_c, 1, 62, 64
3, 61630, Note_on_c, 1, 64, 70
3, 61738, Note_off_c, 1, 64, 64
3, 61748, Note_on_c, 1, 65, 74
3, 61824, Note_off_c, 1, 65, 64
3, 61887, Note_on_c, 1, 67, 70
3, 61992, Note_on_c, 1, 69, 68
3, 62001, Note_off_c, 1, 67, 64
3, 62073, Note_off_c, 1, 69, 64
3, 62123, Note_on_c, 1, 67, 76
3, 62229, Note_off_c, 1, 67, 64
3, 62236, Note_on_c, 1, 65, 70
3, 62306, Note_off_c, 1, 65, 64
3, 62358, Note_on_c, 1, 64, 70
3, 62464, Note_off_c, 1, 64, 64
3, 62472, Note_on_c, 1, 62, 64
3, 62548, Note_off_c, 1, 62, 64
3, 62609, Note_on_c, 1, 60, 76
3, 62718, Note_on_c, 1, 62, 80
3, 62719, Note_off_c, 1, 60, 64
3, 62799, Note_off_c, 1, 62, 64
3, 62839, Note_on_c, 1, 64, 68
3, 62939, Note_off_c, 1, 64, 64
3, 62954, Note_on_c, 1, 65, 72
3, 63044, Note_off_c, 1, 65, 64
3, 63077, Note_on_c, 1, 67, 85
3, 63179, Note_off_c, 1, 67, 64
3, 63341, Note_on_c, 1, 67, 78
3, 63756, Note_off_c, 1, 67, 64
3, 63799, Note_on_c, 1, 65, 47
3, 63936, Note_off_c, 1, 65, 64
3, 64545, Note_on_c, 1, 69, 70
3, 64631, Note_off_c, 1, 69, 64
3, 64800, Note_on_c, 1, 69, 80
3, 65215, Note_off_c, 1, 69, 64
3, 65222, Note_on_c, 1, 67, 52
3, 65365, Note_off_c, 1, 67, 64
3, 65984, Note_on_c, 1, 71, 82
3, 66077, Note_off_c, 1, 71, 64
3, 66234, Note_on_c, 1, 71, 80
3, 66528, Note_off_c, 1, 71, 64
3, 66566, Note_on_c, 1, 69, 66
3, 66645, Note_off_c, 1, 69, 64
3, 66678, Note_on_c, 1, 72, 72
3, 66777, Note_off_c, 1, 72, 64
3, 66941, Note_on_c, 1, 74, 76
3, 67233, Note_off_c, 1, 74, 64
3, 67297, Note_on_c, 1, 71, 64
3, 67368, Note_off_c, 1, 71, 64
3, 67413, Note_on_c, 1, 74, 72
3, 67528, Note_off_c, 1, 74, 64
3, 67648, Note_on_c, 1, 72, 80
3, 67750, Note_on_c, 1, 69, 66
3, 67765, Note_off_c, 1, 72, 64
3, 67829, Note_off_c, 1, 69, 64
3, 67884, Note_on_c, 1, 67, 80
3, 67992, Note_on_c, 1, 65, 66
3, 68012, Note_off_c, 1, 67, 64
3, 68074, Note_off_c, 1, 65, 64
3, 68111, Note_on_c, 1, 64, 78
3, 68221, Note_on_c, 1, 62, 68
3, 68247, Note_off_c, 1, 64, 64
3, 68309, Note_off_c, 1, 62, 64
3, 68372, Note_on_c, 1, 60, 82
3, 68477, Note_off_c, 1, 60, 64
3, 68493, Note_on_c, 1, 76, 60
3, 68569, Note_off_c, 1, 76, 64
3, 68619, Note_on_c, 1, 74, 70
3, 68729, Note_on_c, 1, 72, 66
3, 68733, Note_off_c, 1, 74, 64
3, 68793, Note_off_c, 1, 72, 64
3, 68852, Note_on_c, 1, 71, 74
3, 68954, Note_on_c, 1, 69, 60
3, 68961, Note_off_c, 1, 71, 64
3, 69018, Note_off_c, 1, 69, 64
3, 69084, Note_on_c, 1, 67, 60
3, 69201, Note_on_c, 1, 69, 70
3, 69217, Note_off_c, 1, 67, 64
3, 69272, Note_off_c, 1, 69, 64
3, 69331, Note_on_c, 1, 67, 70
3, 69440, Note_on_c, 1, 65, 64
3, 69460, Note_off_c, 1, 67, 64
3, 69498, Note_off_c, 1, 65, 64
3, 69566, Note_on_c, 1, 64, 63
3, 69673, Note_off_c, 1, 64, 64
3, 69682, Note_on_c, 1, 62, 66
3, 69759, Note_off_c, 1, 62, 64
3, 69825, Note_on_c, 1, 64, 66
3, 70169, Note_off_c, 1, 64, 64
3, 70169, End_track
4, 0, Start_track
4, 0, Title_t, "Viola"
4, 0, Program_c, 2, 41
4, 0, Control_c, 2, 7, 100
4, 1195, Note_on_c, 2, 64, 78
4, 1292, Note_off_c, 2, 64, 64
4, 1295, Note_on_c, 2, 65, 64
4, 1368, Note_off_c, 2, 65, 64
4, 1425, Note_on_c, 2, 64, 72
4, 1537, Note_off_c, 2, 64, 64
4, 1537, Note_on_c, 2, 62, 68
4, 1610, Note_off_c, 2, 62, 64
4, 1656, Note_on_c, 2, 64, 68
4, 1771, Note_on_c, 2, 65, 63
4, 1791, Note_off_c, 2, 64, 64
4, 1843, Note_off_c, 2, 65, 64
4, 1890, Note_on_c, 2, 67, 85
4, 1999, Note_off_c, 2, 67, 64
4, 2004, Note_on_c, 2, 65, 64
4, 2071, Note_off_c, 2, 65, 64
4, 2128, Note_on_c, 2, 64, 70
4, 2232, Note_off_c, 2, 64, 64
4, 2246, Note_on_c, 2, 62, 64
4, 2324, Note_off_c, 2, 62, 64
4, 2374, Note_on_c, 2, 64, 74
4, 2479, Note_on_c, 2, 65, 64
4, 2500, Note_off_c, 2, 64, 64
4, 2559, Note_off_c, 2, 65, 64
4, 2604, Note_on_c, 2, 67, 76
4, 2707, Note_off_c, 2, 67, 64
4, 2716, Note_on_c, 2, 64, 68
4, 2785, Note_off_c, 2, 64, 64
4, 2847, Note_on_c, 2, 65, 80
4, 2954, Note_on_c, 2, 64, 63
4, 2958, Note_off_c, 2, 65, 64
4, 3032, Note_off_c, 2, 64, 64
4, 3075, Note_on_c, 2, 65, 74
4, 3179, Note_off_c, 2, 65, 64
4, 3190, Note_on_c, 2, 67, 74
4, 3279, Note_off_c, 2, 67, 64
4, 3321, Note_on_c, 2, 69, 70
4, 3435, Note_on_c, 2, 67, 68
4, 3450, Note_off_c, 2, 69, 64
4, 3504, Note_off_c, 2, 67, 64
4, 3564, Note_on_c, 2, 65, 78
4, 3668, Note_off_c, 2, 65, 64
4, 3680, Note_on_c, 2, 64, 62
4, 3763, Note_off_c, 2, 64, 64
4, 3813, Note_on_c, 2, 65, 60
4, 3927, Note_on_c, 2, 67, 68
4, 3936, Note_off_c, 2, 65, 64
4, 3991, Note_off_c, 2, 67, 64
4, 4050, Note_on_c, 2, 69, 68
4, 4171, Note_on_c, 2, 65, 62
4, 4176, Note_off_c, 2, 69, 64
4, 4229, Note_off_c, 2, 65, 64
4, 4295, Note_on_c, 2, 62, 64
4, 4371, Note_off_c, 2, 62, 64
4, 4409, Note_on_c, 2, 60, 63
4, 4492, Note_off_c, 2, 60, 64
4, 4539, Note_on_c, 2, 62, 80
4, 4648, Note_on_c, 2, 64, 68
4, 4660, Note_off_c, 2, 62, 64
4, 4720, Note_off_c, 2, 64, 64
4, 4769, Note_on_c, 2, 65, 78
4, 4883, Note_on_c, 2, 62, 74
4, 4895, Note_off_c, 2, 65, 64
4, 4941, Note_off_c, 2, 62, 64
4, 5019, Note_on_c, 2, 59, 70
4, 5130, Note_on_c, 2, 57, 66
4, 5133, Note_off_c, 2, 59, 64
4, 5201, Note_off_c, 2, 57, 64
4, 5251, Note_on_c, 2, 59, 68
4, 5360, Note_on_c, 2, 60, 64
4, 5377, Note_off_c, 2, 59, 64
4, 5434, Note_off_c, 2, 60, 64
4, 5487, Note_on_c, 2, 62, 62
4, 5584, Note_off_c, 2, 62, 64
4, 5600, Note_on_c, 2, 59, 58
4, 5664, Note_off_c, 2, 59, 64
4, 5733, Note_on_c, 2, 60, 68
4, 5839, Note_off_c, 2, 60, 64
4, 5852, Note_on_c, 2, 59, 63
4, 5927, Note_off_c, 2, 59, 64
4, 5968, Note_on_c, 2, 60, 59
4, 6091, Note_off_c, 2, 60, 64
4, 6092, Note_on_c, 2, 62, 68
4, 6165, Note_off_c, 2, 62, 64
4, 6213, Note_on_c, 2, 64, 78
4, 6322, Note_off_c, 2, 64, 64
4, 6331, Note_on_c, 2, 62, 61
4, 6400, Note_off_c, 2, 62, 64
4, 6460, Note_on_c, 2, 64, 78
4, 6566, Note_on_c, 2, 65, 66
4, 6576, Note_off_c, 2, 64, 64
4, 6645, Note_off_c, 2, 65, 64
4, 6683, Note_on_c, 2, 64, 70
4, 6797, Note_off_c, 2, 64, 64
4, 6804, Note_on_c, 2, 62, 72
4, 6873, Note_off_c, 2, 62, 64
4, 6929, Note_on_c, 2, 60, 68
4, 7032, Note_off_c, 2, 60, 64
4, 7048, Note_on_c, 2, 62, 80
4, 7117, Note_off_c, 2, 62, 64
4, 7167, Note_on_c, 2, 64, 78
4, 7274, Note_off_c, 2, 64, 64
4, 7285, Note_on_c, 2, 62, 68
4, 7361, Note_off_c, 2, 62, 64
4, 7412, Note_on_c, 2, 64, 80
4, 7527, Note_off_c, 2, 64, 64
4, 7527, Note_on_c, 2, 65, 66
4, 7603, Note_off_c, 2, 65, 64
4, 7647, Note_on_c, 2, 67, 85
4, 7760, Note_off_c, 2, 67, 64
4, 7765, Note_on_c, 2, 65, 66
4, 7832, Note_off_c, 2, 65, 64
4, 7893, Note_on_c, 2, 64, 64
4, 8000, Note_off_c, 2, 64, 64
4, 8010, Note_on_c, 2, 65, 64
4, 8081, Note_off_c, 2, 65, 64
4, 8140, Note_on_c, 2, 64, 74
4, 8240, Note_off_c, 2, 64, 64
4, 8247, Note_on_c, 2, 62, 66
4, 8313, Note_off_c, 2, 62, 64
4, 8372, Note_on_c, 2, 60, 58
4, 8486, Note_off_c, 2, 60, 64
4, 8490, Note_on_c, 2, 64, 68
4, 8541, Note_off_c, 2, 64, 64
4, 8608, Note_on_c, 2, 62, 66
4, 8715, Note_off_c, 2, 62, 64
4, 8726, Note_on_c, 2, 74, 78
4, 8798, Note_off_c, 2, 74, 64
4, 8847, Note_on_c, 2, 72, 68
4, 8950, Note_off_c, 2, 72, 64
4, 8962, Note_on_c, 2, 71, 78
4, 9035, Note_off_c, 2, 71, 64
4, 9092, Note_on_c, 2, 69, 63
4, 9206, Note_on_c, 2, 67, 70
4, 9211, Note_off_c, 2, 69, 64
4, 9282, Note_off_c, 2, 67, 64
4, 9334, Note_on_c, 2, 69, 64
4, 9441, Note_off_c, 2, 69, 64
4, 9445, Note_on_c, 2, 67, 63
4, 9526, Note_off_c, 2, 67, 64
4, 9578, Note_on_c, 2, 69, 60
4, 9690, Note_on_c, 2, 71, 72
4, 9697, Note_off_c, 2, 69, 64
4, 9773, Note_off_c, 2, 71, 64
4, 9811, Note_on_c, 2, 72, 62
4, 9932, Note_off_c, 2, 72, 64
4, 9935, Note_on_c, 2, 69, 70
4, 10006, Note_off_c, 2, 69, 64
4, 10056, Note_on_c, 2, 71, 78
4, 10176, Note_on_c, 2, 69, 68
4, 10181, Note_off_c, 2, 71, 64
4, 10239, Note_off_c, 2, 69, 64
4, 10294, Note_on_c, 2, 67, 70
4, 10411, Note_off_c, 2, 67, 64
4, 10411, Note_on_c, 2, 66, 68
4, 10487, Note_off_c, 2, 66, 64
4, 10530, Note_on_c, 2, 64, 68
4, 10639, Note_off_c, 2, 64, 64
4, 10642, Note_on_c, 2, 67, 68
4, 10715, Note_off_c, 2, 67, 64
4, 10767, Note_on_c, 2, 66, 63
4, 10874, Note_off_c, 2, 66, 64
4, 10881, Note_on_c, 2, 67, 64
4, 10967, Note_off_c, 2, 67, 64
4, 11007, Note_on_c, 2, 69, 72
4, 11122, Note_off_c, 2, 69, 64
4, 11126, Note_on_c, 2, 67, 68
4, 11204, Note_off_c, 2, 67, 64
4, 11254, Note_on_c, 2, 66, 66
4, 11368, Note_off_c, 2, 66, 64
4, 11368, Note_on_c, 2, 64, 72
4, 11434, Note_off_c, 2, 64, 64
4, 11487, Note_on_c, 2, 62, 72
4, 11580, Note_off_c, 2, 62, 64
4, 11605, Note_on_c, 2, 64, 72
4, 11689, Note_off_c, 2, 64, 64
4, 11734, Note_on_c, 2, 62, 80
4, 11840, Note_off_c, 2, 62, 64
4, 11845, Note_on_c, 2, 60, 85
4, 11912, Note_off_c, 2, 60, 64
4, 11968, Note_on_c, 2, 59, 82
4, 12080, Note_off_c, 2, 59, 64
4, 12087, Note_on_c, 2, 57, 76
4, 12163, Note_off_c, 2, 57, 64
4, 12228, Note_on_c, 2, 59, 68
4, 12529, Note_off_c, 2, 59, 64
4, 12719, Note_on_c, 2, 64, 80
4, 12823, Note_on_c, 2, 65, 66
4, 12825, Note_off_c, 2, 64, 64
4, 12890, Note_off_c, 2, 65, 64
4, 12949, Note_on_c, 2, 64, 76
4, 13070, Note_on_c, 2, 62, 70
4, 13089, Note_off_c, 2, 64, 64
4, 13145, Note_off_c, 2, 62, 64
4, 13193, Note_on_c, 2, 64, 66
4, 13301, Note_on_c, 2, 65, 64
4, 13324, Note_off_c, 2, 64, 64
4, 13379, Note_off_c, 2, 65, 64
4, 13421, Note_on_c, 2, 67, 70
4, 13533, Note_on_c, 2, 65, 61
4, 13540, Note_off_c, 2, 67, 64
4, 13599, Note_off_c, 2, 65, 64
4, 13661, Note_on_c, 2, 64, 62
4, 13782, Note_off_c, 2, 64, 64
4, 13784, Note_on_c, 2, 62, 64
4, 13858, Note_off_c, 2, 62, 64
4, 13911, Note_on_c, 2, 64, 63
4, 14027, Note_on_c, 2, 65, 60
4, 14041, Note_off_c, 2, 64, 64
4, 14100, Note_off_c, 2, 65, 64
4, 14145, Note_on_c, 2, 67, 78
4, 14250, Note_on_c, 2, 64, 66
4, 14255, Note_off_c, 2, 67, 64
4, 14321, Note_off_c, 2, 64, 64
4, 14380, Note_on_c, 2, 65, 68
4, 14485, Note_off_c, 2, 65, 64
4, 14485, Note_on_c, 2, 64, 64
4, 14573, Note_off_c, 2, 64, 64
4, 14616, Note_on_c, 2, 65, 62
4, 14710, Note_off_c, 2, 65, 64
4, 14724, Note_on_c, 2, 67, 68
4, 14793, Note_off_c, 2, 67, 64
4, 14843, Note_on_c, 2, 69, 76
4, 14959, Note_off_c, 2, 69, 64
4, 14959, Note_on_c, 2, 67, 66
4, 15028, Note_off_c, 2, 67, 64
4, 15093, Note_on_c, 2, 65, 70
4, 15207, Note_on_c, 2, 64, 62
4, 15208, Note_off_c, 2, 65, 64
4, 15284, Note_off_c, 2, 64, 64
4, 15330, Note_on_c, 2, 65, 64
4, 15444, Note_on_c, 2, 67, 76
4, 15458, Note_off_c, 2, 65, 64
4, 15520, Note_off_c, 2, 67, 64
4, 15562, Note_on_c, 2, 69, 68
4, 15679, Note_on_c, 2, 65, 63
4, 15684, Note_off_c, 2, 69, 64
4, 15745, Note_off_c, 2, 65, 64
4, 15811, Note_on_c, 2, 62, 64
4, 15933, Note_on_c, 2, 60, 52
4, 15944, Note_off_c, 2, 62, 64
4, 16016, Note_off_c, 2, 60, 64
4, 16061, Note_on_c, 2, 62, 76
4, 16167, Note_off_c, 2, 62, 64
4, 16177, Note_on_c, 2, 64, 66
4, 16249, Note_off_c, 2, 64, 64
4, 16291, Note_on_c, 2, 65, 64
4, 16407, Note_on_c, 2, 62, 78
4, 16414, Note_off_c, 2, 65, 64
4, 16459, Note_off_c, 2, 62, 64
4, 16535, Note_on_c, 2, 59, 62
4, 16638, Note_off_c, 2, 59, 64
4, 16641, Note_on_c, 2, 57, 61
4, 16721, Note_off_c, 2, 57, 64
4, 16766, Note_on_c, 2, 59, 70
4, 16880, Note_on_c, 2, 60, 62
4, 16910, Note_off_c, 2, 59, 64
4, 16967, Note_off_c, 2, 60, 64
4, 17002, Note_on_c, 2, 62, 66
4, 17093, Note_off_c, 2, 62, 64
4, 17113, Note_on_c, 2, 59, 62
4, 17198, Note_off_c, 2, 59, 64
4, 17255, Note_on_c, 2, 60, 70
4, 17364, Note_on_c, 2, 59, 64
4, 17374, Note_off_c, 2, 60, 64
4, 17444, Note_off_c, 2, 59, 64
4, 17488, Note_on_c, 2, 60, 66
4, 17608, Note_on_c, 2, 62, 78
4, 17613, Note_off_c, 2, 60, 64
4, 17684, Note_off_c, 2, 62, 64
4, 17736, Note_on_c, 2, 64, 78
4, 17834, Note_off_c, 2, 64, 64
4, 17848, Note_on_c, 2, 62, 64
4, 17924, Note_off_c, 2, 62, 64
4, 17974, Note_on_c, 2, 64, 74
4, 18086, Note_off_c, 2, 64, 64
4, 18088, Note_on_c, 2, 65, 68
4, 18168, Note_off_c, 2, 65, 64
4, 18212, Note_on_c, 2, 64, 70
4, 18318, Note_off_c, 2, 64, 64
4, 18321, Note_on_c, 2, 62, 64
4, 18401, Note_off_c, 2, 62, 64
4, 18444, Note_on_c, 2, 60, 64
4, 18536, Note_off_c, 2, 60, 64
4, 18570, Note_on_c, 2, 62, 66
4, 18643, Note_off_c, 2, 62, 64
4, 18691, Note_on_c, 2, 64, 78
4, 18791, Note_off_c, 2, 64, 64
4, 18803, Note_on_c, 2, 62, 68
4, 18881, Note_off_c, 2, 62, 64
4, 18933, Note_on_c, 2, 64, 78
4, 19047, Note_on_c, 2, 65, 66
4, 19059, Note_off_c, 2, 64, 64
4, 19122, Note_off_c, 2, 65, 64
4, 19165, Note_on_c, 2, 67, 78
4, 19275, Note_off_c, 2, 67, 64
4, 19280, Note_on_c, 2, 65, 78
4, 19348, Note_off_c, 2, 65, 64
4, 19408, Note_on_c, 2, 64, 76
4, 19500, Note_off_c, 2, 64, 64
4, 19519, Note_on_c, 2, 65, 66
4, 19590, Note_off_c, 2, 65, 64
4, 19652, Note_on_c, 2, 64, 70
4, 19742, Note_off_c, 2, 64, 64
4, 19764, Note_on_c, 2, 62, 68
4, 19823, Note_off_c, 2, 62, 64
4, 19878, Note_on_c, 2, 60, 60
4, 19994, Note_off_c, 2, 60, 64
4, 20001, Note_on_c, 2, 64, 80
4, 20072, Note_off_c, 2, 64, 64
4, 20135, Note_on_c, 2, 62, 70
4, 20241, Note_off_c, 2, 62, 64
4, 20253, Note_on_c, 2, 74, 78
4, 20336, Note_off_c, 2, 74, 64
4, 20371, Note_on_c, 2, 72, 82
4, 20471, Note_off_c, 2, 72, 64
4, 20492, Note_on_c, 2, 71, 80
4, 20566, Note_off_c, 2, 71, 64
4, 20616, Note_on_c, 2, 69, 70
4, 20718, Note_off_c, 2, 69, 64
4, 20730, Note_on_c, 2, 67, 62
4, 20815, Note_off_c, 2, 67, 64
4, 20858, Note_on_c, 2, 69, 70
4, 20970, Note_on_c, 2, 67, 66
4, 20976, Note_off_c, 2, 69, 64
4, 21062, Note_off_c, 2, 67, 64
4, 21100, Note_on_c, 2, 69, 68
4, 21206, Note_on_c, 2, 71, 70
4, 21211, Note_off_c, 2, 69, 64
4, 21280, Note_off_c, 2, 71, 64
4, 21328, Note_on_c, 2, 72, 68
4, 21433, Note_off_c, 2, 72, 64
4, 21439, Note_on_c, 2, 69, 64
4, 21515, Note_off_c, 2, 69, 64
4, 21561, Note_on_c, 2, 71, 63
4, 21677, Note_off_c, 2, 71, 64
4, 21679, Note_on_c, 2, 69, 68
4, 21749, Note_off_c, 2, 69, 64
4, 21805, Note_on_c, 2, 67, 66
4, 21917, Note_on_c, 2, 66, 66
4, 21926, Note_off_c, 2, 67, 64
4, 21985, Note_off_c, 2, 66, 64
4, 22042, Note_on_c, 2, 64, 76
4, 22154, Note_off_c, 2, 64, 64
4, 22155, Note_on_c, 2, 67, 66
4, 22225, Note_off_c, 2, 67, 64
4, 22284, Note_on_c, 2, 66, 63
4, 22392, Note_on_c, 2, 67, 68
4, 22399, Note_off_c, 2, 66, 64
4, 22467, Note_off_c, 2, 67, 64
4, 22526, Note_on_c, 2, 69, 74
4, 22647, Note_on_c, 2, 67, 78
4, 22653, Note_off_c, 2, 69, 64
4, 22717, Note_off_c, 2, 67, 64
4, 22769, Note_on_c, 2, 66, 66
4, 22892, Note_off_c, 2, 66, 64
4, 22892, Note_on_c, 2, 64, 70
4, 22958, Note_off_c, 2, 64, 64
4, 23010, Note_on_c, 2, 62, 80
4, 23104, Note_off_c, 2, 62, 64
4, 23134, Note_on_c, 2, 64, 78
4, 23199, Note_off_c, 2, 64, 64
4, 23255, Note_on_c, 2, 62, 82
4, 23367, Note_off_c, 2, 62, 64
4, 23367, Note_on_c, 2, 60, 80
4, 23428, Note_off_c, 2, 60, 64
4, 23489, Note_on_c, 2, 59, 76
4, 23587, Note_off_c, 2, 59, 64
4, 23604, Note_on_c, 2, 57, 66
4, 23685, Note_off_c, 2, 57, 64
4, 23749, Note_on_c, 2, 59, 72
4, 24019, Note_off_c, 2, 59, 64
4, 47285, Note_on_c, 2, 59, 64
4, 47385, Note_on_c, 2, 60, 64
4, 47402, Note_off_c, 2, 59, 64
4, 47458, Note_off_c, 2, 60, 64
4, 47501, Note_on_c, 2, 62, 70
4, 47612, Note_off_c, 2, 62, 64
4, 47612, Note_on_c, 2, 60, 68
4, 47707, Note_off_c, 2, 60, 64
4, 47745, Note_on_c, 2, 62, 68
4, 47857, Note_on_c, 2, 64, 80
4, 47864, Note_off_c, 2, 62, 64
4, 47931, Note_off_c, 2, 64, 64
4, 47976, Note_on_c, 2, 65, 66
4, 48080, Note_on_c, 2, 64, 80
4, 48113, Note_off_c, 2, 65, 64
4, 48156, Note_off_c, 2, 64, 64
4, 48204, Note_on_c, 2, 62, 80
4, 48311, Note_on_c, 2, 60, 58
4, 48322, Note_off_c, 2, 62, 64
4, 48398, Note_off_c, 2, 60, 64
4, 48441, Note_on_c, 2, 62, 82
4, 48564, Note_on_c, 2, 64, 72
4, 48567, Note_off_c, 2, 62, 64
4, 48650, Note_off_c, 2, 64, 64
4, 48686, Note_on_c, 2, 65, 64
4, 48804, Note_on_c, 2, 64, 70
4, 48831, Note_off_c, 2, 65, 64
4, 48890, Note_off_c, 2, 64, 64
4, 48937, Note_on_c, 2, 62, 72
4, 49050, Note_on_c, 2, 60, 64
4, 49070, Note_off_c, 2, 62, 64
4, 49127, Note_off_c, 2, 60, 64
4, 49170, Note_on_c, 2, 62, 78
4, 49286, Note_on_c, 2, 64, 80
4, 49296, Note_off_c, 2, 62, 64
4, 49381, Note_off_c, 2, 64, 64
4, 49403, Note_on_c, 2, 65, 57
4, 49517, Note_on_c, 2, 64, 78
4, 49549, Note_off_c, 2, 65, 64
4, 49594, Note_off_c, 2, 64, 64
4, 49649, Note_on_c, 2, 62, 68
4, 49758, Note_on_c, 2, 60, 68
4, 49777, Note_off_c, 2, 62, 64
4, 49844, Note_off_c, 2, 60, 64
4, 49884, Note_on_c, 2, 62, 80
4, 49993, Note_on_c, 2, 64, 80
4, 50007, Note_off_c, 2, 62, 64
4, 50093, Note_off_c, 2, 64, 64
4, 50121, Note_on_c, 2, 62, 72
4, 50224, Note_on_c, 2, 60, 80
4, 50240, Note_off_c, 2, 62, 64
4, 50307, Note_off_c, 2, 60, 64
4, 50359, Note_on_c, 2, 59, 85
4, 50465, Note_off_c, 2, 59, 64
4, 50485, Note_on_c, 2, 56, 60
4, 50572, Note_off_c, 2, 56, 64
4, 50613, Note_on_c, 2, 57, 66
4, 50732, Note_on_c, 2, 59, 80
4, 50741, Note_off_c, 2, 57, 64
4, 50807, Note_off_c, 2, 59, 64
4, 50852, Note_on_c, 2, 60, 68
4, 50941, Note_off_c, 2, 60, 64
4, 50967, Note_on_c, 2, 62, 66
4, 51045, Note_off_c, 2, 62, 64
4, 51088, Note_on_c, 2, 64, 70
4, 51203, Note_off_c, 2, 64, 64
4, 51203, Note_on_c, 2, 62, 64
4, 51292, Note_off_c, 2, 62, 64
4, 51320, Note_on_c, 2, 64, 64
4, 51438, Note_on_c, 2, 66, 68
4, 51449, Note_off_c, 2, 64, 64
4, 51531, Note_off_c, 2, 66, 64
4, 51565, Note_on_c, 2, 68, 66
4, 51672, Note_on_c, 2, 64, 72
4, 51690, Note_off_c, 2, 68, 64
4, 51736, Note_off_c, 2, 64, 64
4, 51804, Note_on_c, 2, 57, 68
4, 51912, Note_off_c, 2, 57, 64
4, 51918, Note_on_c, 2, 69, 64
4, 51999, Note_off_c, 2, 69, 64
4, 52042, Note_on_c, 2, 67, 72
4, 52154, Note_on_c, 2, 65, 62
4, 52177, Note_off_c, 2, 67, 64
4, 52229, Note_off_c, 2, 65, 64
4, 52286, Note_on_c, 2, 64, 68
4, 52396, Note_off_c, 2, 64, 64
4, 52396, Note_on_c, 2, 62, 60
4, 52478, Note_off_c, 2, 62, 64
4, 52526, Note_on_c, 2, 64, 68
4, 52637, Note_on_c, 2, 62, 68
4, 52649, Note_off_c, 2, 64, 64
4, 52719, Note_off_c, 2, 62, 64
4, 52766, Note_on_c, 2, 64, 68
4, 52889, Note_on_c, 2, 65, 66
4, 52894, Note_off_c, 2, 64, 64
4, 52963, Note_off_c, 2, 65, 64
4, 53001, Note_on_c, 2, 67, 70
4, 53110, Note_on_c, 2, 69, 72
4, 53117, Note_off_c, 2, 67, 64
4, 53208, Note_off_c, 2, 69, 64
4, 53245, Note_on_c, 2, 70, 64
4, 53359, Note_on_c, 2, 72, 64
4, 53376, Note_off_c, 2, 70, 64
4, 53442, Note_off_c, 2, 72, 64
4, 53480, Note_on_c, 2, 70, 63
4, 53596, Note_on_c, 2, 69, 61
4, 53602, Note_off_c, 2, 70, 64
4, 53675, Note_off_c, 2, 69, 64
4, 53727, Note_on_c, 2, 67, 70
4, 53850, Note_on_c, 2, 69, 82
4, 53870, Note_off_c, 2, 67, 64
4, 53938, Note_off_c, 2, 69, 64
4, 53987, Note_on_c, 2, 70, 76
4, 54097, Note_on_c, 2, 69, 70
4, 54117, Note_off_c, 2, 70, 64
4, 54195, Note_off_c, 2, 69, 64
4, 54225, Note_on_c, 2, 70, 76
4, 54332, Note_on_c, 2, 72, 66
4, 54339, Note_off_c, 2, 70, 64
4, 54416, Note_off_c, 2, 72, 64
4, 54451, Note_on_c, 2, 74, 85
4, 54560, Note_on_c, 2, 72, 60
4, 54575, Note_off_c, 2, 74, 64
4, 54646, Note_off_c, 2, 72, 64
4, 54696, Note_on_c, 2, 70, 89
4, 54803, Note_on_c, 2, 72, 61
4, 54835, Note_off_c, 2, 70, 64
4, 54886, Note_off_c, 2, 72, 64
4, 54928, Note_on_c, 2, 70, 85
4, 55028, Note_off_c, 2, 70, 64
4, 55037, Note_on_c, 2, 69, 72
4, 55159, Note_off_c, 2, 69, 64
4, 55172, Note_on_c, 2, 67, 76
4, 55272, Note_off_c, 2, 67, 64
4, 55282, Note_on_c, 2, 65, 66
4, 55355, Note_off_c, 2, 65, 64
4, 55411, Note_on_c, 2, 64, 70
4, 55527, Note_on_c, 2, 62, 70
4, 55534, Note_off_c, 2, 64, 64
4, 55597, Note_off_c, 2, 62, 64
4, 55638, Note_on_c, 2, 61, 64
4, 55735, Note_off_c, 2, 61, 64
4, 55766, Note_on_c, 2, 58, 72
4, 55845, Note_off_c, 2, 58, 64
4, 55877, Note_on_c, 2, 57, 68
4, 56013, Note_on_c, 2, 64, 78
4, 56043, Note_off_c, 2, 57, 64
4, 56082, Note_off_c, 2, 64, 64
4, 56132, Note_on_c, 2, 65, 78
4, 56233, Note_off_c, 2, 65, 64
4, 56250, Note_on_c, 2, 61, 68
4, 56334, Note_off_c, 2, 61, 64
4, 56376, Note_on_c, 2, 62, 72
4, 56476, Note_off_c, 2, 62, 64
4, 56485, Note_on_c, 2, 64, 78
4, 56564, Note_off_c, 2, 64, 64
4, 56616, Note_on_c, 2, 65, 80
4, 56704, Note_off_c, 2, 65, 64
4, 56727, Note_on_c, 2, 67, 72
4, 56813, Note_off_c, 2, 67, 64
4, 56851, Note_on_c, 2, 69, 66
4, 56958, Note_off_c, 2, 69, 64
4, 56969, Note_on_c, 2, 70, 64
4, 57046, Note_off_c, 2, 70, 64
4, 57093, Note_on_c, 2, 69, 78
4, 57204, Note_on_c, 2, 67, 66
4, 57216, Note_off_c, 2, 69, 64
4, 57274, Note_off_c, 2, 67, 64
4, 57325, Note_on_c, 2, 65, 80
4, 57439, Note_on_c, 2, 64, 66
4, 57468, Note_off_c, 2, 65, 64
4, 57516, Note_off_c, 2, 64, 64
4, 57573, Note_on_c, 2, 62, 78
4, 57693, Note_on_c, 2, 61, 70
4, 57700, Note_off_c, 2, 62, 64
4, 57776, Note_off_c, 2, 61, 64
4, 57814, Note_on_c, 2, 62, 64
4, 57911, Note_off_c, 2, 62, 64
4, 57928, Note_on_c, 2, 64, 68
4, 58019, Note_off_c, 2, 64, 64
4, 58054, Note_on_c, 2, 65, 63
4, 58154, Note_off_c, 2, 65, 64
4, 58161, Note_on_c, 2, 64, 70
4, 58246, Note_off_c, 2, 64, 64
4, 58297, Note_on_c, 2, 62, 70
4, 58408, Note_off_c, 2, 62, 64
4, 58408, Note_on_c, 2, 61, 66
4, 58494, Note_off_c, 2, 61, 64
4, 58538, Note_on_c, 2, 62, 70
4, 58655, Note_on_c, 2, 64, 74
4, 58660, Note_off_c, 2, 62, 64
4, 58748, Note_off_c, 2, 64, 64
4, 58776, Note_on_c, 2, 62, 66
4, 58883, Note_on_c, 2, 60, 72
4, 58890, Note_off_c, 2, 62, 64
4, 58956, Note_off_c, 2, 60, 64
4, 59006, Note_on_c, 2, 59, 56
4, 59115, Note_on_c, 2, 57, 60
4, 59123, Note_off_c, 2, 59, 64
4, 59196, Note_off_c, 2, 57, 64
4, 59244, Note_on_c, 2, 55, 64
4, 59338, Note_off_c, 2, 55, 64
4, 59356, Note_on_c, 2, 57, 68
4, 59444, Note_off_c, 2, 57, 64
4, 59481, Note_on_c, 2, 59, 68
4, 59592, Note_off_c, 2, 59, 64
4, 59599, Note_on_c, 2, 60, 68
4, 59680, Note_off_c, 2, 60, 64
4, 59718, Note_on_c, 2, 62, 70
4, 59828, Note_on_c, 2, 64, 80
4, 59837, Note_off_c, 2, 62, 64
4, 59930, Note_off_c, 2, 64, 64
4, 59958, Note_on_c, 2, 65, 68
4, 60070, Note_on_c, 2, 64, 76
4, 60095, Note_off_c, 2, 65, 64
4, 60186, Note_off_c, 2, 64, 64
4, 60210, Note_on_c, 2, 62, 76
4, 60319, Note_off_c, 2, 62, 64
4, 60330, Note_on_c, 2, 60, 66
4, 60404, Note_off_c, 2, 60, 64
4, 60444, Note_on_c, 2, 62, 87
4, 60566, Note_off_c, 2, 62, 64
4, 60566, Note_on_c, 2, 64, 76
4, 60651, Note_off_c, 2, 64, 64
4, 60687, Note_on_c, 2, 65, 70
4, 60794, Note_on_c, 2, 64, 76
4, 60813, Note_off_c, 2, 65, 64
4, 60878, Note_off_c, 2, 64, 64
4, 60921, Note_on_c, 2, 62, 80
4, 61035, Note_on_c, 2, 60, 68
4, 61038, Note_off_c, 2, 62, 64
4, 61111, Note_off_c, 2, 60, 64
4, 61156, Note_on_c, 2, 62, 82
4, 61270, Note_off_c, 2, 62, 64
4, 61271, Note_on_c, 2, 69, 76
4, 61351, Note_off_c, 2, 69, 64
4, 61389, Note_on_c, 2, 67, 72
4, 61498, Note_on_c, 2, 65, 63
4, 61506, Note_off_c, 2, 67, 64
4, 61574, Note_off_c, 2, 65, 64
4, 61631, Note_on_c, 2, 64, 76
4, 61748, Note_off_c, 2, 64, 64
4, 61748, Note_on_c, 2, 62, 72
4, 61830, Note_off_c, 2, 62, 64
4, 61883, Note_on_c, 2, 64, 64
4, 61999, Note_on_c, 2, 65, 64
4, 62006, Note_off_c, 2, 64, 64
4, 62077, Note_off_c, 2, 65, 64
4, 62125, Note_on_c, 2, 64, 82
4, 62236, Note_off_c, 2, 64, 64
4, 62246, Note_on_c, 2, 62, 64
4, 62331, Note_off_c, 2, 62, 64
4, 62372, Note_on_c, 2, 60, 62
4, 62453, Note_off_c, 2, 60, 64
4, 62481, Note_on_c, 2, 62, 66
4, 62573, Note_off_c, 2, 62, 64
4, 62609, Note_on_c, 2, 64, 70
4, 62697, Note_off_c, 2, 64, 64
4, 62721, Note_on_c, 2, 65, 66
4, 62795, Note_off_c, 2, 65, 64
4, 62844, Note_on_c, 2, 67, 78
4, 62953, Note_on_c, 2, 65, 70
4, 62984, Note_off_c, 2, 67, 64
4, 63041, Note_off_c, 2, 65, 64
4, 63079, Note_on_c, 2, 64, 80
4, 63169, Note_off_c, 2, 64, 64
4, 63196, Note_on_c, 2, 67, 80
4, 63267, Note_off_c, 2, 67, 64
4, 63328, Note_on_c, 2, 60, 85
4, 63722, Note_off_c, 2, 60, 64
4, 63836, Note_on_c, 2, 62, 70
4, 63938, Note_off_c, 2, 62, 64
4, 64078, Note_on_c, 2, 55, 57
4, 64404, Note_off_c, 2, 55, 64
4, 64558, Note_on_c, 2, 62, 76
4, 64646, Note_off_c, 2, 62, 64
4, 64821, Note_on_c, 2, 62, 70
4, 65182, Note_off_c, 2, 62, 64
4, 65268, Note_on_c, 2, 64, 70
4, 65393, Note_off_c, 2, 64, 64
4, 65522, Note_on_c, 2, 57, 57
4, 65825, Note_off_c, 2, 57, 64
4, 66003, Note_on_c, 2, 64, 78
4, 66117, Note_off_c, 2, 64, 64
4, 66251, Note_on_c, 2, 64, 78
4, 66542, Note_off_c, 2, 64, 64
4, 66581, Note_on_c, 2, 60, 60
4, 66652, Note_off_c, 2, 60, 64
4, 66700, Note_on_c, 2, 65, 78
4, 67242, Note_off_c, 2, 65, 64
4, 67306, Note_on_c, 2, 62, 76
4, 67395, Note_off_c, 2, 62, 64
4, 67410, Note_on_c, 2, 59, 82
4, 67511, Note_off_c, 2, 59, 64
4, 67649, Note_on_c, 2, 55, 68
4, 67757, Note_off_c, 2, 55, 64
4, 67758, Note_on_c, 2, 72, 61
4, 67857, Note_off_c, 2, 72, 64
4, 67884, Note_on_c, 2, 71, 68
4, 67969, Note_off_c, 2, 71, 64
4, 67990, Note_on_c, 2, 69, 70
4, 68081, Note_off_c, 2, 69, 64
4, 68123, Note_on_c, 2, 67, 80
4, 68227, Note_on_c, 2, 65, 66
4, 68245, Note_off_c, 2, 67, 64
4, 68306, Note_off_c, 2, 65, 64
4, 68361, Note_on_c, 2, 64, 78
4, 68482, Note_on_c, 2, 62, 70
4, 68484, Note_off_c, 2, 64, 64
4, 68564, Note_off_c, 2, 62, 64
4, 68600, Note_on_c, 2, 64, 68
4, 68714, Note_on_c, 2, 65, 64
4, 68736, Note_off_c, 2, 64, 64
4, 68811, Note_off_c, 2, 65, 64
4, 68835, Note_on_c, 2, 67, 68
4, 68942, Note_on_c, 2, 65, 66
4, 68971, Note_off_c, 2, 67, 64
4, 69034, Note_off_c, 2, 65, 64
4, 69077, Note_on_c, 2, 64, 82
4, 69172, Note_off_c, 2, 64, 64
4, 69199, Note_on_c, 2, 60, 57
4, 69243, Note_off_c, 2, 60, 64
4, 69317, Note_on_c, 2, 59, 72
4, 69429, Note_off_c, 2, 59, 64
4, 69443, Note_on_c, 2, 57, 59
4, 69521, Note_off_c, 2, 57, 64
4, 69559, Note_on_c, 2, 55, 64
4, 69669, Note_off_c, 2, 55, 64
4, 69678, Note_on_c, 2, 53, 74
4, 69758, Note_off_c, 2, 53, 64
4, 69806, Note_on_c, 2, 55, 70
4, 70205, Note_off_c, 2, 55, 64
4, 70205, End_track
5, 0, Start_track
5, 0, Title_t, "Cello"
5, 0, Program_c, 3, 42
5, 0, Control_c, 3, 7, 100
5, 1898, Note_on_c, 3, 48, 78
5, 2011, Note_off_c, 3, 48, 64
5, 2160, Note_on_c, 3, 60, 63
5, 2476, Note_off_c, 3, 60, 64
5, 3348, Note_on_c, 3, 48, 68
5, 3450, Note_off_c, 3, 48, 64
5, 3595, Note_on_c, 3, 60, 64
5, 3912, Note_off_c, 3, 60, 64
5, 4789, Note_on_c, 3, 48, 78
5, 4891, Note_off_c, 3, 48, 64
5, 5038, Note_on_c, 3, 60, 68
5, 5373, Note_off_c, 3, 60, 64
5, 6222, Note_on_c, 3, 48, 82
5, 6332, Note_off_c, 3, 48, 64
5, 6469, Note_on_c, 3, 60, 66
5, 6790, Note_off_c, 3, 60, 64
5, 7675, Note_on_c, 3, 48, 76
5, 7786, Note_off_c, 3, 48, 64
5, 7926, Note_on_c, 3, 60, 66
5, 8228, Note_off_c, 3, 60, 64
5, 9104, Note_on_c, 3, 48, 80
5, 9215, Note_off_c, 3, 48, 64
5, 9362, Note_on_c, 3, 60, 64
5, 9662, Note_off_c, 3, 60, 64
5, 10409, Note_on_c, 3, 59, 76
5, 10493, Note_off_c, 3, 59, 64
5, 10514, Note_on_c, 3, 60, 80
5, 10609, Note_off_c, 3, 60, 64
5, 10773, Note_on_c, 3, 62, 70
5, 11083, Note_off_c, 3, 62, 64
5, 11250, Note_on_c, 3, 50, 82
5, 11370, Note_off_c, 3, 50, 64
5, 11511, Note_on_c, 3, 55, 74
5, 11800, Note_off_c, 3, 55, 64
5, 11980, Note_on_c, 3, 43, 70
5, 12088, Note_off_c, 3, 43, 64
5, 12234, Note_on_c, 3, 55, 70
5, 12562, Note_off_c, 3, 55, 64
5, 13440, Note_on_c, 3, 48, 87
5, 13536, Note_off_c, 3, 48, 64
5, 13694, Note_on_c, 3, 60, 74
5, 14024, Note_off_c, 3, 60, 64
5, 14855, Note_on_c, 3, 48, 64
5, 14983, Note_off_c, 3, 48, 64
5, 15125, Note_on_c, 3, 60, 80
5, 15479, Note_off_c, 3, 60, 64
5, 16313, Note_on_c, 3, 48, 66
5, 16441, Note_off_c, 3, 48, 64
5, 16562, Note_on_c, 3, 60, 70
5, 16892, Note_off_c, 3, 60, 64
5, 17730, Note_on_c, 3, 48, 66
5, 17860, Note_off_c, 3, 48, 64
5, 17991, Note_on_c, 3, 60, 80
5, 18330, Note_off_c, 3, 60, 64
5, 19180, Note_on_c, 3, 48, 80
5, 19311, Note_off_c, 3, 48, 64
5, 19439, Note_on_c, 3, 60, 72
5, 19780, Note_off_c, 3, 60, 64
5, 20623, Note_on_c, 3, 48, 68
5, 20744, Note_off_c, 3, 48, 64
5, 20887, Note_on_c, 3, 60, 66
5, 21228, Note_off_c, 3, 60, 64
5, 21928, Note_on_c, 3, 59, 68
5, 22009, Note_off_c, 3, 59, 64
5, 22038, Note_on_c, 3, 60, 82
5, 22145, Note_off_c, 3, 60, 64
5, 22306, Note_on_c, 3, 62, 78
5, 22608, Note_off_c, 3, 62, 64
5, 22785, Note_on_c, 3, 50, 82
5, 22873, Note_off_c, 3, 50, 64
5, 23032, Note_on_c, 3, 55, 61
5, 23350, Note_off_c, 3, 55, 64
5, 23509, Note_on_c, 3, 43, 87
5, 23621, Note_off_c, 3, 43, 64
5, 23751, Note_on_c, 3, 55, 70
5, 24062, Note_off_c, 3, 55, 64
5, 47986, Note_on_c, 3, 43, 78
5, 48090, Note_off_c, 3, 43, 64
5, 48239, Note_on_c, 3, 55, 58
5, 48571, Note_off_c, 3, 55, 64
5, 49422, Note_on_c, 3, 44, 82
5, 49562, Note_off_c, 3, 44, 64
5, 49689, Note_on_c, 3, 56, 64
5, 50048, Note_off_c, 3, 56, 64
5, 50857, Note_on_c, 3, 40, 82
5, 50976, Note_off_c, 3, 40, 64
5, 51116, Note_on_c, 3, 52, 68
5, 51484, Note_off_c, 3, 52, 64
5, 52315, Note_on_c, 3, 45, 80
5, 52441, Note_off_c, 3, 45, 64
5, 52569, Note_on_c, 3, 57, 72
5, 52939, Note_off_c, 3, 57, 64
5, 53742, Note_on_c, 3, 43, 76
5, 53863, Note_off_c, 3, 43, 64
5, 54005, Note_on_c, 3, 55, 66
5, 54385, Note_off_c, 3, 55, 64
5, 55166, Note_on_c, 3, 43, 74
5, 55279, Note_off_c, 3, 43, 64
5, 55434, Note_on_c, 3, 55, 63
5, 55809, Note_off_c, 3, 55, 64
5, 56481, Note_on_c, 3, 53, 82
5, 56573, Note_off_c, 3, 53, 64
5, 56590, Note_on_c, 3, 50, 63
5, 56707, Note_off_c, 3, 50, 64
5, 56868, Note_on_c, 3, 57, 76
5, 57195, Note_off_c, 3, 57, 64
5, 57335, Note_on_c, 3, 45, 82
5, 57430, Note_off_c, 3, 45, 64
5, 57580, Note_on_c, 3, 50, 68
5, 57912, Note_off_c, 3, 50, 64
5, 58040, Note_on_c, 3, 38, 82
5, 58154, Note_off_c, 3, 38, 64
5, 58297, Note_on_c, 3, 50, 68
5, 58631, Note_off_c, 3, 50, 64
5, 59372, Note_on_c, 3, 62, 85
5, 59448, Note_off_c, 3, 62, 64
5, 59483, Note_on_c, 3, 60, 80
5, 59595, Note_off_c, 3, 60, 64
5, 59739, Note_on_c, 3, 59, 64
5, 60027, Note_off_c, 3, 59, 64
5, 60084, Note_on_c, 3, 60, 68
5, 60162, Note_off_c, 3, 60, 64
5, 60212, Note_on_c, 3, 57, 63
5, 60300, Note_off_c, 3, 57, 64
5, 60449, Note_on_c, 3, 55, 70
5, 60786, Note_off_c, 3, 55, 64
5, 60801, Note_on_c, 3, 57, 64
5, 60857, Note_off_c, 3, 57, 64
5, 60940, Note_on_c, 3, 53, 53
5, 61043, Note_off_c, 3, 53, 64
5, 61178, Note_on_c, 3, 52, 82
5, 61477, Note_off_c, 3, 52, 64
5, 61526, Note_on_c, 3, 53, 68
5, 61588, Note_off_c, 3, 53, 64
5, 61643, Note_on_c, 3, 50, 66
5, 61745, Note_off_c, 3, 50, 64
5, 61909, Note_on_c, 3, 48, 87
5, 62215, Note_off_c, 3, 48, 64
5, 62230, Note_on_c, 3, 50, 68
5, 62294, Note_off_c, 3, 50, 64
5, 62365, Note_on_c, 3, 46, 80
5, 62490, Note_off_c, 3, 46, 64
5, 62606, Note_on_c, 3, 45, 76
5, 62909, Note_off_c, 3, 45, 64
5, 62972, Note_on_c, 3, 46, 62
5, 63048, Note_off_c, 3, 46, 64
5, 63084, Note_on_c, 3, 43, 80
5, 63214, Note_off_c, 3, 43, 64
5, 63343, Note_on_c, 3, 41, 85
5, 63620, Note_off_c, 3, 41, 64
5, 63697, Note_on_c, 3, 52, 70
5, 63760, Note_off_c, 3, 52, 64
5, 63799, Note_on_c, 3, 50, 70
5, 63955, Note_off_c, 3, 50, 64
5, 64066, Note_on_c, 3, 52, 78
5, 64342, Note_off_c, 3, 52, 64
5, 64430, Note_on_c, 3, 55, 72
5, 64507, Note_off_c, 3, 55, 64
5, 64540, Note_on_c, 3, 54, 74
5, 64688, Note_off_c, 3, 54, 64
5, 64795, Note_on_c, 3, 55, 80
5, 65073, Note_off_c, 3, 55, 64
5, 65128, Note_on_c, 3, 53, 70
5, 65208, Note_off_c, 3, 53, 64
5, 65239, Note_on_c, 3, 52, 72
5, 65380, Note_off_c, 3, 52, 64
5, 65489, Note_on_c, 3, 54, 70
5, 65762, Note_off_c, 3, 54, 64
5, 65844, Note_on_c, 3, 57, 66
5, 65920, Note_off_c, 3, 57, 64
5, 65956, Note_on_c, 3, 56, 82
5, 66084, Note_off_c, 3, 56, 64
5, 66232, Note_on_c, 3, 57, 78
5, 66583, Note_off_c, 3, 57, 64
5, 66683, Note_on_c, 3, 53, 68
5, 66790, Note_off_c, 3, 53, 64
5, 66953, Note_on_c, 3, 47, 72
5, 67287, Note_off_c, 3, 47, 64
5, 67407, Note_on_c, 3, 55, 87
5, 67501, Note_off_c, 3, 55, 64
5, 67661, Note_on_c, 3, 48, 80
5, 67959, Note_off_c, 3, 48, 64
5, 68000, Note_on_c, 3, 50, 82
5, 68085, Note_off_c, 3, 50, 64
5, 68119, Note_on_c, 3, 52, 68
5, 68193, Note_off_c, 3, 52, 64
5, 68230, Note_on_c, 3, 53, 80
5, 68311, Note_off_c, 3, 53, 64
5, 68363, Note_on_c, 3, 55, 80
5, 68702, Note_off_c, 3, 55, 64
5, 68856, Note_on_c, 3, 43, 85
5, 68963, Note_off_c, 3, 43, 64
5, 69108, Note_on_c, 3, 48, 70
5, 69421, Note_off_c, 3, 48, 64
5, 69576, Note_on_c, 3, 36, 76
5, 69687, Note_off_c, 3, 36, 64
5, 69830, Note_on_c, 3, 48, 68
5, 70120, Note_off_c, 3, 48, 64
5, 70120, End_track
6, 0, Start_track
6, 0, Title_t, "Oboe1"
6, 0, Program_c, 4, 68
6, 0, Control_c, 4, 7, 100
6, 1195, Note_on_c, 4, 72, 74
6, 1276, Note_off_c, 4, 72, 64
6, 1440, Note_on_c, 4, 79, 68
6, 1771, Note_off_c, 4, 79, 64
6, 1909, Note_on_c, 4, 79, 68
6, 1999, Note_off_c, 4, 79, 64
6, 2151, Note_on_c, 4, 79, 61
6, 2432, Note_off_c, 4, 79, 64
6, 2505, Note_on_c, 4, 81, 70
6, 2572, Note_off_c, 4, 81, 64
6, 2622, Note_on_c, 4, 82, 64
6, 2726, Note_off_c, 4, 82, 64
6, 2871, Note_on_c, 4, 81, 72
6, 3163, Note_off_c, 4, 81, 64
6, 3322, Note_on_c, 4, 74, 66
6, 3416, Note_off_c, 4, 74, 64
6, 3597, Note_on_c, 4, 74, 72
6, 3905, Note_off_c, 4, 74, 64
6, 3951, Note_on_c, 4, 76, 70
6, 4015, Note_off_c, 4, 76, 64
6, 4067, Note_on_c, 4, 77, 78
6, 4166, Note_off_c, 4, 77, 64
6, 4312, Note_on_c, 4, 71, 78
6, 4594, Note_off_c, 4, 71, 64
6, 4665, Note_on_c, 4, 72, 62
6, 4750, Note_off_c, 4, 72, 64
6, 4782, Note_on_c, 4, 74, 78
6, 4877, Note_off_c, 4, 74, 64
6, 5028, Note_on_c, 4, 67, 66
6, 5318, Note_off_c, 4, 67, 64
6, 5392, Note_on_c, 4, 79, 66
6, 5486, Note_off_c, 4, 79, 64
6, 5519, Note_on_c, 4, 77, 70
6, 5617, Note_off_c, 4, 77, 64
6, 5738, Note_on_c, 4, 76, 72
6, 6037, Note_off_c, 4, 76, 64
6, 6103, Note_on_c, 4, 77, 78
6, 6184, Note_off_c, 4, 77, 64
6, 6222, Note_on_c, 4, 79, 87
6, 6324, Note_off_c, 4, 79, 64
6, 6464, Note_on_c, 4, 72, 78
6, 6761, Note_off_c, 4, 72, 64
6, 6811, Note_on_c, 4, 74, 80
6, 6892, Note_off_c, 4, 74, 64
6, 6927, Note_on_c, 4, 76, 68
6, 6996, Note_off_c, 4, 76, 64
6, 7044, Note_on_c, 4, 77, 78
6, 7119, Note_off_c, 4, 77, 64
6, 7181, Note_on_c, 4, 79, 82
6, 7523, Note_off_c, 4, 79, 64
6, 7673, Note_on_c, 4, 79, 85
6, 7760, Note_off_c, 4, 79, 64
6, 7917, Note_on_c, 4, 79, 76
6, 8213, Note_off_c, 4, 79, 64
6, 8289, Note_on_c, 4, 84, 78
6, 8356, Note_off_c, 4, 84, 64
6, 8401, Note_on_c, 4, 81, 80
6, 8491, Note_off_c, 4, 81, 64
6, 8639, Note_on_c, 4, 78, 74
6, 8938, Note_off_c, 4, 78, 64
6, 8983, Note_on_c, 4, 79, 70
6, 9047, Note_off_c, 4, 79, 64
6, 9097, Note_on_c, 4, 81, 82
6, 9210, Note_off_c, 4, 81, 64
6, 9343, Note_on_c, 4, 74, 76
6, 9636, Note_off_c, 4, 74, 64
6, 9704, Note_on_c, 4, 76, 68
6, 9776, Note_off_c, 4, 76, 64
6, 9828, Note_on_c, 4, 78, 82
6, 9899, Note_off_c, 4, 78, 64
6, 10080, Note_on_c, 4, 79, 85
6, 10335, Note_off_c, 4, 79, 64
6, 10424, Note_on_c, 4, 74, 66
6, 10476, Note_off_c, 4, 74, 64
6, 10537, Note_on_c, 4, 76, 76
6, 10651, Note_off_c, 4, 76, 64
6, 10784, Note_on_c, 4, 69, 82
6, 11079, Note_off_c, 4, 69, 64
6, 11136, Note_on_c, 4, 71, 76
6, 11218, Note_off_c, 4, 71, 64
6, 11266, Note_on_c, 4, 72, 68
6, 11370, Note_off_c, 4, 72, 64
6, 11506, Note_on_c, 4, 71, 70
6, 11874, Note_off_c, 4, 71, 64
6, 11980, Note_on_c, 4, 67, 72
6, 12092, Note_off_c, 4, 67, 64
6, 12242, Note_on_c, 4, 67, 78
6, 12533, Note_off_c, 4, 67, 64
6, 12707, Note_on_c, 4, 72, 82
6, 12783, Note_off_c, 4, 72, 64
6, 12954, Note_on_c, 4, 79, 82
6, 13270, Note_off_c, 4, 79, 64
6, 13421, Note_on_c, 4, 79, 82
6, 13514, Note_off_c, 4, 79, 64
6, 13680, Note_on_c, 4, 79, 72
6, 13960, Note_off_c, 4, 79, 64
6, 14039, Note_on_c, 4, 81, 80
6, 14098, Note_off_c, 4, 81, 64
6, 14145, Note_on_c, 4, 82, 66
6, 14247, Note_off_c, 4, 82, 64
6, 14394, Note_on_c, 4, 81, 72
6, 14722, Note_off_c, 4, 81, 64
6, 14857, Note_on_c, 4, 74, 74
6, 14953, Note_off_c, 4, 74, 64
6, 15112, Note_on_c, 4, 74, 70
6, 15422, Note_off_c, 4, 74, 64
6, 15479, Note_on_c, 4, 76, 66
6, 15544, Note_off_c, 4, 76, 64
6, 15596, Note_on_c, 4, 77, 80
6, 15693, Note_off_c, 4, 77, 64
6, 15836, Note_on_c, 4, 71, 76
6, 16130, Note_off_c, 4, 71, 64
6, 16184, Note_on_c, 4, 72, 66
6, 16260, Note_off_c, 4, 72, 64
6, 16299, Note_on_c, 4, 74, 68
6, 16381, Note_off_c, 4, 74, 64
6, 16538, Note_on_c, 4, 67, 74
6, 16830, Note_off_c, 4, 67, 64
6, 16906, Note_on_c, 4, 79, 68
6, 16980, Note_off_c, 4, 79, 64
6, 17027, Note_on_c, 4, 77, 63
6, 17120, Note_off_c, 4, 77, 64
6, 17269, Note_on_c, 4, 76, 80
6, 17559, Note_off_c, 4, 76, 64
6, 17613, Note_on_c, 4, 77, 68
6, 17684, Note_off_c, 4, 77, 64
6, 17743, Note_on_c, 4, 79, 80
6, 17834, Note_off_c, 4, 79, 64
6, 17979, Note_on_c, 4, 72, 76
6, 18252, Note_off_c, 4, 72, 64
6, 18335, Note_on_c, 4, 74, 64
6, 18410, Note_off_c, 4, 74, 64
6, 18456, Note_on_c, 4, 76, 63
6, 18515, Note_off_c, 4, 76, 64
6, 18558, Note_on_c, 4, 77, 74
6, 18625, Note_off_c, 4, 77, 64
6, 18686, Note_on_c, 4, 79, 76
6, 19014, Note_off_c, 4, 79, 64
6, 19187, Note_on_c, 4, 79, 85
6, 19268, Note_off_c, 4, 79, 64
6, 19428, Note_on_c, 4, 79, 72
6, 19731, Note_off_c, 4, 79, 64
6, 19811, Note_on_c, 4, 84, 82
6, 19882, Note_off_c, 4, 84, 64
6, 19930, Note_on_c, 4, 81, 80
6, 20010, Note_off_c, 4, 81, 64
6, 20162, Note_on_c, 4, 78, 64
6, 20448, Note_off_c, 4, 78, 64
6, 20504, Note_on_c, 4, 79, 63
6, 20569, Note_off_c, 4, 79, 64
6, 20614, Note_on_c, 4, 81, 70
6, 20711, Note_off_c, 4, 81, 64
6, 20872, Note_on_c, 4, 74, 68
6, 21159, Note_off_c, 4, 74, 64
6, 21226, Note_on_c, 4, 76, 60
6, 21297, Note_off_c, 4, 76, 64
6, 21352, Note_on_c, 4, 78, 74
6, 21428, Note_off_c, 4, 78, 64
6, 21596, Note_on_c, 4, 79, 78
6, 21859, Note_off_c, 4, 79, 64
6, 21941, Note_on_c, 4, 74, 70
6, 21999, Note_off_c, 4, 74, 64
6, 22057, Note_on_c, 4, 76, 78
6, 22145, Note_off_c, 4, 76, 64
6, 22320, Note_on_c, 4, 69, 74
6, 22610, Note_off_c, 4, 69, 64
6, 22666, Note_on_c, 4, 71, 76
6, 22733, Note_off_c, 4, 71, 64
6, 22786, Note_on_c, 4, 72, 68
6, 22883, Note_off_c, 4, 72, 64
6, 23040, Note_on_c, 4, 71, 63
6, 23364, Note_off_c, 4, 71, 64
6, 23498, Note_on_c, 4, 67, 70
6, 23593, Note_off_c, 4, 67, 64
6, 23749, Note_on_c, 4, 67, 68
6, 24022, Note_off_c, 4, 67, 64
6, 47268, Note_on_c, 4, 74, 82
6, 47355, Note_off_c, 4, 74, 64
6, 47527, Note_on_c, 4, 71, 64
6, 47836, Note_off_c, 4, 71, 64
6, 47976, Note_on_c, 4, 71, 68
6, 48088, Note_off_c, 4, 71, 64
6, 48226, Note_on_c, 4, 71, 68
6, 48529, Note_off_c, 4, 71, 64
6, 48562, Note_on_c, 4, 69, 70
6, 48640, Note_off_c, 4, 69, 64
6, 48693, Note_on_c, 4, 67, 57
6, 48787, Note_off_c, 4, 67, 64
6, 48939, Note_on_c, 4, 77, 68
6, 49248, Note_off_c, 4, 77, 64
6, 49295, Note_on_c, 4, 76, 72
6, 49365, Note_off_c, 4, 76, 64
6, 49403, Note_on_c, 4, 74, 68
6, 49537, Note_off_c, 4, 74, 64
6, 49659, Note_on_c, 4, 83, 70
6, 49968, Note_off_c, 4, 83, 64
6, 50041, Note_on_c, 4, 74, 66
6, 50093, Note_off_c, 4, 74, 64
6, 50153, Note_on_c, 4, 77, 82
6, 50252, Note_off_c, 4, 77, 64
6, 50387, Note_on_c, 4, 76, 78
6, 50680, Note_off_c, 4, 76, 64
6, 50729, Note_on_c, 4, 74, 66
6, 50812, Note_off_c, 4, 74, 64
6, 50843, Note_on_c, 4, 72, 63
6, 50955, Note_off_c, 4, 72, 64
6, 51109, Note_on_c, 4, 71, 68
6, 51375, Note_off_c, 4, 71, 64
6, 51456, Note_on_c, 4, 76, 78
6, 51522, Note_off_c, 4, 76, 64
6, 51563, Note_on_c, 4, 74, 85
6, 51665, Note_off_c, 4, 74, 64
6, 51833, Note_on_c, 4, 72, 78
6, 52168, Note_off_c, 4, 72, 64
6, 52298, Note_on_c, 4, 69, 63
6, 52395, Note_off_c, 4, 69, 64
6, 52552, Note_on_c, 4, 69, 60
6, 52847, Note_off_c, 4, 69, 64
6, 52913, Note_on_c, 4, 71, 70
6, 52984, Note_off_c, 4, 71, 64
6, 53017, Note_on_c, 4, 72, 80
6, 53088, Note_off_c, 4, 72, 64
6, 53120, Note_on_c, 4, 74, 82
6, 53189, Note_off_c, 4, 74, 64
6, 53252, Note_on_c, 4, 76, 82
6, 53583, Note_off_c, 4, 76, 64
6, 53742, Note_on_c, 4, 76, 82
6, 53844, Note_off_c, 4, 76, 64
6, 53993, Note_on_c, 4, 76, 66
6, 54276, Note_off_c, 4, 76, 64
6, 54369, Note_on_c, 4, 82, 82
6, 54430, Note_off_c, 4, 82, 64
6, 54475, Note_on_c, 4, 79, 78
6, 54570, Note_off_c, 4, 79, 64
6, 54712, Note_on_c, 4, 76, 80
6, 54995, Note_off_c, 4, 76, 64
6, 55054, Note_on_c, 4, 79, 76
6, 55132, Note_off_c, 4, 79, 64
6, 55172, Note_on_c, 4, 76, 70
6, 55258, Note_off_c, 4, 76, 64
6, 55429, Note_on_c, 4, 73, 62
6, 55704, Note_off_c, 4, 73, 64
6, 55775, Note_on_c, 4, 76, 62
6, 55839, Note_off_c, 4, 76, 64
6, 55889, Note_on_c, 4, 73, 58
6, 55978, Note_off_c, 4, 73, 64
6, 56139, Note_on_c, 4, 69, 64
6, 56428, Note_off_c, 4, 69, 64
6, 56497, Note_on_c, 4, 81, 80
6, 56576, Note_off_c, 4, 81, 64
6, 56610, Note_on_c, 4, 77, 78
6, 56727, Note_off_c, 4, 77, 64
6, 56858, Note_on_c, 4, 74, 80
6, 57120, Note_off_c, 4, 74, 64
6, 57212, Note_on_c, 4, 76, 62
6, 57268, Note_off_c, 4, 76, 64
6, 57338, Note_on_c, 4, 73, 68
6, 57435, Note_off_c, 4, 73, 64
6, 57580, Note_on_c, 4, 74, 64
6, 57900, Note_off_c, 4, 74, 64
6, 58066, Note_on_c, 4, 74, 64
6, 58163, Note_off_c, 4, 74, 64
6, 58320, Note_on_c, 4, 74, 52
6, 58560, Note_off_c, 4, 74, 64
6, 58777, Note_on_c, 4, 77, 66
6, 58866, Note_off_c, 4, 77, 64
6, 59034, Note_on_c, 4, 77, 80
6, 59989, Note_off_c, 4, 77, 64
6, 60077, Note_on_c, 4, 74, 74
6, 60146, Note_off_c, 4, 74, 64
6, 60202, Note_on_c, 4, 76, 82
6, 60283, Note_off_c, 4, 76, 64
6, 60464, Note_on_c, 4, 77, 78
6, 60807, Note_off_c, 4, 77, 64
6, 60927, Note_on_c, 4, 67, 68
6, 61012, Note_off_c, 4, 67, 64
6, 61180, Note_on_c, 4, 67, 72
6, 61501, Note_off_c, 4, 67, 64
6, 61555, Note_on_c, 4, 70, 70
6, 61627, Note_off_c, 4, 70, 64
6, 61664, Note_on_c, 4, 69, 66
6, 61779, Note_off_c, 4, 69, 64
6, 61907, Note_on_c, 4, 70, 62
6, 62860, Note_off_c, 4, 70, 64
6, 62986, Note_on_c, 4, 74, 78
6, 63053, Note_off_c, 4, 74, 64
6, 63100, Note_on_c, 4, 72, 78
6, 63196, Note_off_c, 4, 72, 64
6, 63348, Note_on_c, 4, 69, 76
6, 63634, Note_off_c, 4, 69, 64
6, 63706, Note_on_c, 4, 72, 63
6, 63778, Note_off_c, 4, 72, 64
6, 63818, Note_on_c, 4, 71, 78
6, 63934, Note_off_c, 4, 71, 64
6, 64070, Note_on_c, 4, 72, 76
6, 64351, Note_off_c, 4, 72, 64
6, 64428, Note_on_c, 4, 76, 80
6, 64498, Note_off_c, 4, 76, 64
6, 64537, Note_on_c, 4, 74, 87
6, 64637, Note_off_c, 4, 74, 64
6, 64800, Note_on_c, 4, 71, 85
6, 65101, Note_off_c, 4, 71, 64
6, 65154, Note_on_c, 4, 74, 72
6, 65230, Note_off_c, 4, 74, 64
6, 65268, Note_on_c, 4, 72, 80
6, 65382, Note_off_c, 4, 72, 64
6, 65519, Note_on_c, 4, 74, 85
6, 65788, Note_off_c, 4, 74, 64
6, 65859, Note_on_c, 4, 77, 68
6, 65918, Note_off_c, 4, 77, 64
6, 65970, Note_on_c, 4, 76, 87
6, 66075, Note_off_c, 4, 76, 64
6, 66236, Note_on_c, 4, 72, 93
6, 66511, Note_off_c, 4, 72, 64
6, 66600, Note_on_c, 4, 77, 85
6, 66659, Note_off_c, 4, 77, 64
6, 66716, Note_on_c, 4, 81, 98
6, 67248, Note_off_c, 4, 81, 64
6, 67318, Note_on_c, 4, 79, 80
6, 67378, Note_off_c, 4, 79, 64
6, 67423, Note_on_c, 4, 77, 80
6, 67513, Note_off_c, 4, 77, 64
6, 67661, Note_on_c, 4, 76, 80
6, 67966, Note_off_c, 4, 76, 64
6, 68002, Note_on_c, 4, 77, 76
6, 68068, Note_off_c, 4, 77, 64
6, 68119, Note_on_c, 4, 79, 80
6, 68211, Note_off_c, 4, 79, 64
6, 68389, Note_on_c, 4, 67, 68
6, 68684, Note_off_c, 4, 67, 64
6, 68747, Note_on_c, 4, 69, 64
6, 68802, Note_off_c, 4, 69, 64
6, 68849, Note_on_c, 4, 71, 70
6, 68940, Note_off_c, 4, 71, 64
6, 69113, Note_on_c, 4, 72, 64
6, 69434, Note_off_c, 4, 72, 64
6, 69588, Note_on_c, 4, 72, 68
6, 69664, Note_off_c, 4, 72, 64
6, 69830, Note_on_c, 4, 72, 66
6, 70138, Note_off_c, 4, 72, 64
6, 70138, End_track
7, 0, Start_track
7, 0, Title_t, "Oboe2"
7, 0, Program_c, 5, 68
7, 0, Control_c, 5, 7, 100
7, 1195, Note_on_c, 5, 72, 80
7, 1292, Note_off_c, 5, 72, 64
7, 1435, Note_on_c, 5, 79, 85
7, 1722, Note_off_c, 5, 79, 64
7, 1898, Note_on_c, 5, 79, 80
7, 1980, Note_off_c, 5, 79, 64
7, 2151, Note_on_c, 5, 79, 76
7, 2431, Note_off_c, 5, 79, 64
7, 2501, Note_on_c, 5, 81, 72
7, 2564, Note_off_c, 5, 81, 64
7, 2613, Note_on_c, 5, 82, 64
7, 2719, Note_off_c, 5, 82, 64
7, 2867, Note_on_c, 5, 81, 78
7, 3170, Note_off_c, 5, 81, 64
7, 3327, Note_on_c, 5, 74, 68
7, 3421, Note_off_c, 5, 74, 64
7, 3585, Note_on_c, 5, 74, 74
7, 3893, Note_off_c, 5, 74, 64
7, 3955, Note_on_c, 5, 76, 78
7, 4013, Note_off_c, 5, 76, 64
7, 4067, Note_on_c, 5, 77, 80
7, 4160, Note_off_c, 5, 77, 64
7, 4318, Note_on_c, 5, 71, 78
7, 4592, Note_off_c, 5, 71, 64
7, 4666, Note_on_c, 5, 72, 64
7, 4732, Note_off_c, 5, 72, 64
7, 4786, Note_on_c, 5, 74, 78
7, 4871, Note_off_c, 5, 74, 64
7, 5035, Note_on_c, 5, 67, 72
7, 5318, Note_off_c, 5, 67, 64
7, 5394, Note_on_c, 5, 79, 70
7, 5470, Note_off_c, 5, 79, 64
7, 5512, Note_on_c, 5, 77, 82
7, 5612, Note_off_c, 5, 77, 64
7, 5748, Note_on_c, 5, 76, 80
7, 6023, Note_off_c, 5, 76, 64
7, 6101, Note_on_c, 5, 77, 72
7, 6161, Note_off_c, 5, 77, 64
7, 6222, Note_on_c, 5, 79, 87
7, 6310, Note_off_c, 5, 79, 64
7, 6466, Note_on_c, 5, 72, 70
7, 6782, Note_off_c, 5, 72, 64
7, 6811, Note_on_c, 5, 74, 82
7, 6879, Note_off_c, 5, 74, 64
7, 6927, Note_on_c, 5, 76, 68
7, 6987, Note_off_c, 5, 76, 64
7, 7044, Note_on_c, 5, 77, 74
7, 7108, Note_off_c, 5, 77, 64
7, 7169, Note_on_c, 5, 79, 82
7, 7512, Note_off_c, 5, 79, 64
7, 7666, Note_on_c, 5, 79, 85
7, 7748, Note_off_c, 5, 79, 64
7, 7915, Note_on_c, 5, 79, 74
7, 8206, Note_off_c, 5, 79, 64
7, 8278, Note_on_c, 5, 84, 82
7, 8347, Note_off_c, 5, 84, 64
7, 8401, Note_on_c, 5, 81, 82
7, 8486, Note_off_c, 5, 81, 64
7, 8641, Note_on_c, 5, 78, 66
7, 8926, Note_off_c, 5, 78, 64
7, 8980, Note_on_c, 5, 79, 68
7, 9052, Note_off_c, 5, 79, 64
7, 9090, Note_on_c, 5, 81, 72
7, 9175, Note_off_c, 5, 81, 64
7, 9348, Note_on_c, 5, 74, 80
7, 9635, Note_off_c, 5, 74, 64
7, 9690, Note_on_c, 5, 76, 63
7, 9763, Note_off_c, 5, 76, 64
7, 9809, Note_on_c, 5, 78, 70
7, 9880, Note_off_c, 5, 78, 64
7, 10065, Note_on_c, 5, 79, 76
7, 10331, Note_off_c, 5, 79, 64
7, 10407, Note_on_c, 5, 74, 66
7, 10478, Note_off_c, 5, 74, 64
7, 10530, Note_on_c, 5, 76, 70
7, 10637, Note_off_c, 5, 76, 64
7, 10779, Note_on_c, 5, 69, 80
7, 11094, Note_off_c, 5, 69, 64
7, 11135, Note_on_c, 5, 71, 78
7, 11205, Note_off_c, 5, 71, 64
7, 11256, Note_on_c, 5, 72, 78
7, 11363, Note_off_c, 5, 72, 64
7, 11513, Note_on_c, 5, 71, 70
7, 11872, Note_off_c, 5, 71, 64
7, 11981, Note_on_c, 5, 67, 72
7, 12092, Note_off_c, 5, 67, 64
7, 12246, Note_on_c, 5, 67, 78
7, 12538, Note_off_c, 5, 67, 64
7, 12714, Note_on_c, 5, 72, 82
7, 12797, Note_off_c, 5, 72, 64
7, 12970, Note_on_c, 5, 79, 80
7, 13274, Note_off_c, 5, 79, 64
7, 13426, Note_on_c, 5, 79, 82
7, 13500, Note_off_c, 5, 79, 64
7, 13680, Note_on_c, 5, 79, 74
7, 13981, Note_off_c, 5, 79, 64
7, 14026, Note_on_c, 5, 81, 74
7, 14091, Note_off_c, 5, 81, 64
7, 14140, Note_on_c, 5, 82, 60
7, 14248, Note_off_c, 5, 82, 64
7, 14395, Note_on_c, 5, 81, 70
7, 14725, Note_off_c, 5, 81, 64
7, 14855, Note_on_c, 5, 74, 70
7, 14941, Note_off_c, 5, 74, 64
7, 15112, Note_on_c, 5, 74, 78
7, 15419, Note_off_c, 5, 74, 64
7, 15474, Note_on_c, 5, 76, 63
7, 15536, Note_off_c, 5, 76, 64
7, 15589, Note_on_c, 5, 77, 70
7, 15702, Note_off_c, 5, 77, 64
7, 15840, Note_on_c, 5, 71, 80
7, 16125, Note_off_c, 5, 71, 64
7, 16188, Note_on_c, 5, 72, 64
7, 16262, Note_off_c, 5, 72, 64
7, 16301, Note_on_c, 5, 74, 80
7, 16400, Note_off_c, 5, 74, 64
7, 16545, Note_on_c, 5, 67, 70
7, 16854, Note_off_c, 5, 67, 64
7, 16920, Note_on_c, 5, 79, 68
7, 16980, Note_off_c, 5, 79, 64
7, 17034, Note_on_c, 5, 77, 72
7, 17148, Note_off_c, 5, 77, 64
7, 17264, Note_on_c, 5, 76, 78
7, 17558, Note_off_c, 5, 76, 64
7, 17612, Note_on_c, 5, 77, 68
7, 17679, Note_off_c, 5, 77, 64
7, 17732, Note_on_c, 5, 79, 70
7, 17827, Note_off_c, 5, 79, 64
7, 17984, Note_on_c, 5, 72, 66
7, 18273, Note_off_c, 5, 72, 64
7, 18335, Note_on_c, 5, 74, 76
7, 18403, Note_off_c, 5, 74, 64
7, 18442, Note_on_c, 5, 76, 66
7, 18512, Note_off_c, 5, 76, 64
7, 18558, Note_on_c, 5, 77, 78
7, 18627, Note_off_c, 5, 77, 64
7, 18689, Note_on_c, 5, 79, 72
7, 19028, Note_off_c, 5, 79, 64
7, 19178, Note_on_c, 5, 79, 82
7, 19254, Note_off_c, 5, 79, 64
7, 19431, Note_on_c, 5, 79, 72
7, 19716, Note_off_c, 5, 79, 64
7, 19807, Note_on_c, 5, 84, 80
7, 19883, Note_off_c, 5, 84, 64
7, 19920, Note_on_c, 5, 81, 87
7, 20004, Note_off_c, 5, 81, 64
7, 20162, Note_on_c, 5, 78, 64
7, 20452, Note_off_c, 5, 78, 64
7, 20511, Note_on_c, 5, 79, 66
7, 20576, Note_off_c, 5, 79, 64
7, 20622, Note_on_c, 5, 81, 72
7, 20722, Note_off_c, 5, 81, 64
7, 20879, Note_on_c, 5, 74, 72
7, 21154, Note_off_c, 5, 74, 64
7, 21221, Note_on_c, 5, 76, 63
7, 21292, Note_off_c, 5, 76, 64
7, 21356, Note_on_c, 5, 78, 70
7, 21444, Note_off_c, 5, 78, 64
7, 21596, Note_on_c, 5, 79, 82
7, 21859, Note_off_c, 5, 79, 64
7, 21939, Note_on_c, 5, 74, 68
7, 22000, Note_off_c, 5, 74, 64
7, 22057, Note_on_c, 5, 76, 76
7, 22159, Note_off_c, 5, 76, 64
7, 22306, Note_on_c, 5, 69, 80
7, 22588, Note_off_c, 5, 69, 64
7, 22664, Note_on_c, 5, 71, 74
7, 22729, Note_off_c, 5, 71, 64
7, 22783, Note_on_c, 5, 72, 74
7, 22868, Note_off_c, 5, 72, 64
7, 23032, Note_on_c, 5, 71, 70
7, 23352, Note_off_c, 5, 71, 64
7, 23497, Note_on_c, 5, 67, 74
7, 23588, Note_off_c, 5, 67, 64
7, 23746, Note_on_c, 5, 67, 72
7, 24053, Note_off_c, 5, 67, 64
7, 47285, Note_on_c, 5, 74, 80
7, 47354, Note_off_c, 5, 74, 64
7, 47522, Note_on_c, 5, 71, 58
7, 47814, Note_off_c, 5, 71, 64
7, 47966, Note_on_c, 5, 71, 58
7, 48063, Note_off_c, 5, 71, 64
7, 48223, Note_on_c, 5, 71, 58
7, 48508, Note_off_c, 5, 71, 64
7, 48569, Note_on_c, 5, 69, 57
7, 48638, Note_off_c, 5, 69, 64
7, 48698, Note_on_c, 5, 67, 58
7, 48785, Note_off_c, 5, 67, 64
7, 48932, Note_on_c, 5, 77, 60
7, 49239, Note_off_c, 5, 77, 64
7, 49293, Note_on_c, 5, 76, 66
7, 49360, Note_off_c, 5, 76, 64
7, 49409, Note_on_c, 5, 74, 61
7, 49526, Note_off_c, 5, 74, 64
7, 49657, Note_on_c, 5, 83, 60
7, 49939, Note_off_c, 5, 83, 64
7, 50031, Note_on_c, 5, 74, 66
7, 50088, Note_off_c, 5, 74, 64
7, 50152, Note_on_c, 5, 77, 72
7, 50238, Note_off_c, 5, 77, 64
7, 50392, Note_on_c, 5, 76, 72
7, 50654, Note_off_c, 5, 76, 64
7, 50717, Note_on_c, 5, 74, 64
7, 50807, Note_off_c, 5, 74, 64
7, 50843, Note_on_c, 5, 72, 66
7, 50940, Note_off_c, 5, 72, 64
7, 51095, Note_on_c, 5, 71, 57
7, 51375, Note_off_c, 5, 71, 64
7, 51463, Note_on_c, 5, 76, 66
7, 51520, Note_off_c, 5, 76, 64
7, 51582, Note_on_c, 5, 74, 64
7, 51660, Note_off_c, 5, 74, 64
7, 51830, Note_on_c, 5, 72, 55
7, 52158, Note_off_c, 5, 72, 64
7, 52293, Note_on_c, 5, 69, 58
7, 52381, Note_off_c, 5, 69, 64
7, 52549, Note_on_c, 5, 69, 61
7, 52823, Note_off_c, 5, 69, 64
7, 52894, Note_on_c, 5, 71, 57
7, 52968, Note_off_c, 5, 71, 64
7, 53006, Note_on_c, 5, 72, 80
7, 53076, Note_off_c, 5, 72, 64
7, 53119, Note_on_c, 5, 74, 70
7, 53177, Note_off_c, 5, 74, 64
7, 53250, Note_on_c, 5, 76, 78
7, 53570, Note_off_c, 5, 76, 64
7, 53745, Note_on_c, 5, 76, 60
7, 53840, Note_off_c, 5, 76, 64
7, 53991, Note_on_c, 5, 76, 62
7, 54257, Note_off_c, 5, 76, 64
7, 54359, Note_on_c, 5, 82, 66
7, 54432, Note_off_c, 5, 82, 64
7, 54470, Note_on_c, 5, 79, 82
7, 54568, Note_off_c, 5, 79, 64
7, 54703, Note_on_c, 5, 76, 70
7, 54990, Note_off_c, 5, 76, 64
7, 55061, Note_on_c, 5, 79, 68
7, 55135, Note_off_c, 5, 79, 64
7, 55177, Note_on_c, 5, 76, 68
7, 55277, Note_off_c, 5, 76, 64
7, 55427, Note_on_c, 5, 73, 63
7, 55702, Note_off_c, 5, 73, 64
7, 55797, Note_on_c, 5, 76, 61
7, 55856, Note_off_c, 5, 76, 64
7, 55908, Note_on_c, 5, 73, 57
7, 55987, Note_off_c, 5, 73, 64
7, 56140, Note_on_c, 5, 69, 53
7, 56410, Note_off_c, 5, 69, 64
7, 56497, Note_on_c, 5, 81, 78
7, 56571, Note_off_c, 5, 81, 64
7, 56618, Note_on_c, 5, 77, 64
7, 56706, Note_off_c, 5, 77, 64
7, 56858, Note_on_c, 5, 74, 74
7, 57129, Note_off_c, 5, 74, 64
7, 57217, Note_on_c, 5, 76, 62
7, 57276, Note_off_c, 5, 76, 64
7, 57344, Note_on_c, 5, 73, 60
7, 57435, Note_off_c, 5, 73, 64
7, 57580, Note_on_c, 5, 74, 58
7, 57900, Note_off_c, 5, 74, 64
7, 58069, Note_on_c, 5, 74, 70
7, 58151, Note_off_c, 5, 74, 64
7, 58316, Note_on_c, 5, 74, 59
7, 58550, Note_off_c, 5, 74, 64
7, 58795, Note_on_c, 5, 77, 76
7, 58885, Note_off_c, 5, 77, 64
7, 59040, Note_on_c, 5, 77, 80
7, 60001, Note_off_c, 5, 77, 64
7, 60100, Note_on_c, 5, 74, 66
7, 60160, Note_off_c, 5, 74, 64
7, 60207, Note_on_c, 5, 76, 76
7, 60283, Note_off_c, 5, 76, 64
7, 60468, Note_on_c, 5, 77, 68
7, 60812, Note_off_c, 5, 77, 64
7, 60934, Note_on_c, 5, 67, 61
7, 61033, Note_off_c, 5, 67, 64
7, 61187, Note_on_c, 5, 67, 58
7, 61463, Note_off_c, 5, 67, 64
7, 61560, Note_on_c, 5, 70, 62
7, 61636, Note_off_c, 5, 70, 64
7, 61674, Note_on_c, 5, 69, 66
7, 61771, Note_off_c, 5, 69, 64
7, 61910, Note_on_c, 5, 70, 55
7, 62870, Note_off_c, 5, 70, 64
7, 62979, Note_on_c, 5, 74, 80
7, 63046, Note_off_c, 5, 74, 64
7, 63100, Note_on_c, 5, 72, 78
7, 63196, Note_off_c, 5, 72, 64
7, 63341, Note_on_c, 5, 69, 68
7, 63615, Note_off_c, 5, 69, 64
7, 63710, Note_on_c, 5, 72, 58
7, 63773, Note_off_c, 5, 72, 64
7, 63827, Note_on_c, 5, 71, 68
7, 63939, Note_off_c, 5, 71, 64
7, 64079, Note_on_c, 5, 72, 68
7, 64344, Note_off_c, 5, 72, 64
7, 64434, Note_on_c, 5, 76, 76
7, 64501, Note_off_c, 5, 76, 64
7, 64541, Note_on_c, 5, 74, 82
7, 64629, Note_off_c, 5, 74, 64
7, 64795, Note_on_c, 5, 71, 72
7, 65084, Note_off_c, 5, 71, 64
7, 65169, Note_on_c, 5, 74, 66
7, 65235, Note_off_c, 5, 74, 64
7, 65275, Note_on_c, 5, 72, 78
7, 65377, Note_off_c, 5, 72, 64
7, 65524, Note_on_c, 5, 74, 74
7, 65785, Note_off_c, 5, 74, 64
7, 65876, Note_on_c, 5, 77, 68
7, 65952, Note_off_c, 5, 77, 64
7, 65982, Note_on_c, 5, 76, 85
7, 66065, Note_off_c, 5, 76, 64
7, 66231, Note_on_c, 5, 72, 76
7, 66533, Note_off_c, 5, 72, 64
7, 66588, Note_on_c, 5, 77, 72
7, 66645, Note_off_c, 5, 77, 64
7, 66699, Note_on_c, 5, 81, 85
7, 67271, Note_off_c, 5, 81, 64
7, 67323, Note_on_c, 5, 79, 64
7, 67387, Note_off_c, 5, 79, 64
7, 67432, Note_on_c, 5, 77, 70
7, 67544, Note_off_c, 5, 77, 64
7, 67663, Note_on_c, 5, 76, 72
7, 67959, Note_off_c, 5, 76, 64
7, 67993, Note_on_c, 5, 77, 64
7, 68057, Note_off_c, 5, 77, 64
7, 68116, Note_on_c, 5, 79, 72
7, 68208, Note_off_c, 5, 79, 64
7, 68384, Note_on_c, 5, 67, 63
7, 68691, Note_off_c, 5, 67, 64
7, 68754, Note_on_c, 5, 69, 59
7, 68805, Note_off_c, 5, 69, 64
7, 68864, Note_on_c, 5, 71, 63
7, 68953, Note_off_c, 5, 71, 64
7, 69111, Note_on_c, 5, 72, 55
7, 69421, Note_off_c, 5, 72, 64
7, 69571, Note_on_c, 5, 72, 63
7, 69640, Note_off_c, 5, 72, 64
7, 69815, Note_on_c, 5, 72, 59
7, 70101, Note_off_c, 5, 72, 64
7, 70101, End_track
8, 0, Start_track
8, 0, Title_t, "Bassoon"
8, 0, Program_c, 6, 70
8, 0, Control_c, 6, 7, 100
8, 1912, Note_on_c, 6, 48, 63
8, 2029, Note_off_c, 6, 48, 64
8, 2164, Note_on_c, 6, 60, 60
8, 2497, Note_off_c, 6, 60, 64
8, 3346, Note_on_c, 6, 48, 63
8, 3465, Note_off_c, 6, 48, 64
8, 3595, Note_on_c, 6, 60, 66
8, 3921, Note_off_c, 6, 60, 64
8, 4761, Note_on_c, 6, 48, 82
8, 4887, Note_off_c, 6, 48, 64
8, 5024, Note_on_c, 6, 60, 70
8, 5366, Note_off_c, 6, 60, 64
8, 6221, Note_on_c, 6, 48, 66
8, 6327, Note_off_c, 6, 48, 64
8, 6475, Note_on_c, 6, 60, 61
8, 6804, Note_off_c, 6, 60, 64
8, 7675, Note_on_c, 6, 48, 64
8, 7770, Note_off_c, 6, 48, 64
8, 7906, Note_on_c, 6, 60, 72
8, 8238, Note_off_c, 6, 60, 64
8, 9105, Note_on_c, 6, 48, 62
8, 9226, Note_off_c, 6, 48, 64
8, 9354, Note_on_c, 6, 60, 72
8, 9677, Note_off_c, 6, 60, 64
8, 10400, Note_on_c, 6, 59, 74
8, 10477, Note_off_c, 6, 59, 64
8, 10514, Note_on_c, 6, 60, 80
8, 10607, Note_off_c, 6, 60, 64
8, 10775, Note_on_c, 6, 62, 74
8, 11063, Note_off_c, 6, 62, 64
8, 11257, Note_on_c, 6, 50, 74
8, 11334, Note_off_c, 6, 50, 64
8, 11509, Note_on_c, 6, 55, 64
8, 11810, Note_off_c, 6, 55, 64
8, 11986, Note_on_c, 6, 43, 70
8, 12092, Note_off_c, 6, 43, 64
8, 12230, Note_on_c, 6, 55, 66
8, 12577, Note_off_c, 6, 55, 64
8, 13443, Note_on_c, 6, 48, 80
8, 13540, Note_off_c, 6, 48, 64
8, 13686, Note_on_c, 6, 60, 70
8, 14002, Note_off_c, 6, 60, 64
8, 14872, Note_on_c, 6, 48, 72
8, 14981, Note_off_c, 6, 48, 64
8, 15120, Note_on_c, 6, 60, 66
8, 15426, Note_off_c, 6, 60, 64
8, 16285, Note_on_c, 6, 48, 78
8, 16394, Note_off_c, 6, 48, 64
8, 16556, Note_on_c, 6, 60, 74
8, 16887, Note_off_c, 6, 60, 64
8, 17740, Note_on_c, 6, 48, 78
8, 17854, Note_off_c, 6, 48, 64
8, 17994, Note_on_c, 6, 60, 66
8, 18328, Note_off_c, 6, 60, 64
8, 19188, Note_on_c, 6, 48, 63
8, 19299, Note_off_c, 6, 48, 64
8, 19440, Note_on_c, 6, 60, 64
8, 19762, Note_off_c, 6, 60, 64
8, 20629, Note_on_c, 6, 48, 66
8, 20735, Note_off_c, 6, 48, 64
8, 20880, Note_on_c, 6, 60, 66
8, 21245, Note_off_c, 6, 60, 64
8, 21934, Note_on_c, 6, 59, 68
8, 22008, Note_off_c, 6, 59, 64
8, 22039, Note_on_c, 6, 60, 74
8, 22114, Note_off_c, 6, 60, 64
8, 22299, Note_on_c, 6, 62, 72
8, 22594, Note_off_c, 6, 62, 64
8, 22774, Note_on_c, 6, 50, 82
8, 22862, Note_off_c, 6, 50, 64
8, 23038, Note_on_c, 6, 55, 64
8, 23341, Note_off_c, 6, 55, 64
8, 23500, Note_on_c, 6, 43, 82
8, 23593, Note_off_c, 6, 43, 64
8, 23743, Note_on_c, 6, 55, 68
8, 24040, Note_off_c, 6, 55, 64
8, 47997, Note_on_c, 6, 43, 68
8, 48092, Note_off_c, 6, 43, 64
8, 48240, Note_on_c, 6, 55, 52
8, 48619, Note_off_c, 6, 55, 64
8, 49433, Note_on_c, 6, 44, 64
8, 49524, Note_off_c, 6, 44, 64
8, 49675, Note_on_c, 6, 56, 62
8, 50043, Note_off_c, 6, 56, 64
8, 50838, Note_on_c, 6, 40, 70
8, 50938, Note_off_c, 6, 40, 64
8, 51110, Note_on_c, 6, 52, 59
8, 51470, Note_off_c, 6, 52, 64
8, 52305, Note_on_c, 6, 45, 66
8, 52414, Note_off_c, 6, 45, 64
8, 52560, Note_on_c, 6, 57, 63
8, 52922, Note_off_c, 6, 57, 64
8, 53723, Note_on_c, 6, 43, 70
8, 53829, Note_off_c, 6, 43, 64
8, 53995, Note_on_c, 6, 55, 61
8, 54359, Note_off_c, 6, 55, 64
8, 55166, Note_on_c, 6, 43, 70
8, 55270, Note_off_c, 6, 43, 64
8, 55446, Note_on_c, 6, 55, 70
8, 55822, Note_off_c, 6, 55, 64
8, 56485, Note_on_c, 6, 53, 70
8, 56556, Note_off_c, 6, 53, 64
8, 56597, Note_on_c, 6, 50, 68
8, 56680, Note_off_c, 6, 50, 64
8, 56863, Note_on_c, 6, 57, 78
8, 57167, Note_off_c, 6, 57, 64
8, 57335, Note_on_c, 6, 45, 68
8, 57428, Note_off_c, 6, 45, 64
8, 57592, Note_on_c, 6, 50, 63
8, 57888, Note_off_c, 6, 50, 64
8, 58040, Note_on_c, 6, 38, 82
8, 58137, Note_off_c, 6, 38, 64
8, 58310, Note_on_c, 6, 50, 64
8, 58645, Note_off_c, 6, 50, 64
8, 59384, Note_on_c, 6, 62, 72
8, 59467, Note_off_c, 6, 62, 64
8, 59497, Note_on_c, 6, 60, 82
8, 59606, Note_off_c, 6, 60, 64
8, 59744, Note_on_c, 6, 59, 66
8, 60031, Note_off_c, 6, 59, 64
8, 60079, Note_on_c, 6, 60, 66
8, 60138, Note_off_c, 6, 60, 64
8, 60200, Note_on_c, 6, 57, 76
8, 60302, Note_off_c, 6, 57, 64
8, 60456, Note_on_c, 6, 55, 72
8, 60760, Note_off_c, 6, 55, 64
8, 60813, Note_on_c, 6, 57, 60
8, 60870, Note_off_c, 6, 57, 64
8, 60940, Note_on_c, 6, 53, 60
8, 61040, Note_off_c, 6, 53, 64
8, 61187, Note_on_c, 6, 52, 72
8, 61463, Note_off_c, 6, 52, 64
8, 61531, Note_on_c, 6, 53, 62
8, 61594, Note_off_c, 6, 53, 64
8, 61650, Note_on_c, 6, 50, 61
8, 61731, Note_off_c, 6, 50, 64
8, 61897, Note_on_c, 6, 48, 66
8, 62161, Note_off_c, 6, 48, 64
8, 62248, Note_on_c, 6, 50, 66
8, 62319, Note_off_c, 6, 50, 64
8, 62367, Note_on_c, 6, 46, 61
8, 62461, Note_off_c, 6, 46, 64
8, 62602, Note_on_c, 6, 45, 61
8, 62877, Note_off_c, 6, 45, 64
8, 62934, Note_on_c, 6, 46, 58
8, 63018, Note_off_c, 6, 46, 64
8, 63056, Note_on_c, 6, 43, 64
8, 63158, Note_off_c, 6, 43, 64
8, 63343, Note_on_c, 6, 41, 68
8, 63613, Note_off_c, 6, 41, 64
8, 63680, Note_on_c, 6, 52, 66
8, 63772, Note_off_c, 6, 52, 64
8, 63805, Note_on_c, 6, 50, 66
8, 63938, Note_off_c, 6, 50, 64
8, 64057, Note_on_c, 6, 52, 78
8, 64320, Note_off_c, 6, 52, 64
8, 64409, Note_on_c, 6, 55, 70
8, 64483, Note_off_c, 6, 55, 64
8, 64523, Note_on_c, 6, 54, 78
8, 64643, Note_off_c, 6, 54, 64
8, 64776, Note_on_c, 6, 55, 68
8, 65074, Note_off_c, 6, 55, 64
8, 65132, Note_on_c, 6, 53, 62
8, 65203, Note_off_c, 6, 53, 64
8, 65249, Note_on_c, 6, 52, 80
8, 65375, Note_off_c, 6, 52, 64
8, 65495, Note_on_c, 6, 54, 64
8, 65778, Note_off_c, 6, 54, 64
8, 65861, Note_on_c, 6, 57, 66
8, 65925, Note_off_c, 6, 57, 64
8, 65978, Note_on_c, 6, 56, 76
8, 66070, Note_off_c, 6, 56, 64
8, 66219, Note_on_c, 6, 57, 78
8, 66562, Note_off_c, 6, 57, 64
8, 66675, Note_on_c, 6, 53, 68
8, 66778, Note_off_c, 6, 53, 64
8, 66941, Note_on_c, 6, 47, 87
8, 67255, Note_off_c, 6, 47, 64
8, 67418, Note_on_c, 6, 55, 82
8, 67501, Note_off_c, 6, 55, 64
8, 67670, Note_on_c, 6, 48, 80
8, 67938, Note_off_c, 6, 48, 64
8, 68007, Note_on_c, 6, 50, 66
8, 68083, Note_off_c, 6, 50, 64
8, 68111, Note_on_c, 6, 52, 80
8, 68187, Note_off_c, 6, 52, 64
8, 68228, Note_on_c, 6, 53, 82
8, 68303, Note_off_c, 6, 53, 64
8, 68360, Note_on_c, 6, 55, 72
8, 68655, Note_off_c, 6, 55, 64
8, 68854, Note_on_c, 6, 43, 70
8, 68959, Note_off_c, 6, 43, 64
8, 69116, Note_on_c, 6, 48, 53
8, 69408, Note_off_c, 6, 48, 64
8, 69578, Note_on_c, 6, 36, 64
8, 69692, Note_off_c, 6, 36, 64
8, 69828, Note_on_c, 6, 48, 58
8, 70143, Note_off_c, 6, 48, 64
8, 70143, End_track
9, 0, Start_track
9, 0, Title_t, "Violin1"
9, 0, Program_c, 0, 40
9, 0, Control_c, 0, 7, 100
9, 24236, Note_on_c, 0, 74, 82
9, 24326, Note_off_c, 0, 74, 64
9, 24478, Note_on_c, 0, 71, 74
9, 24779, Note_off_c, 0, 71, 64
9, 24936, Note_on_c, 0, 71, 64
9, 25061, Note_off_c, 0, 71, 64
9, 25181, Note_on_c, 0, 71, 76
9, 25508, Note_off_c, 0, 71, 64
9, 25539, Note_on_c, 0, 69, 66
9, 25619, Note_off_c, 0, 69, 64
9, 25664, Note_on_c, 0, 67, 64
9, 25781, Note_off_c, 0, 67, 64
9, 25906, Note_on_c, 0, 77, 82
9, 26215, Note_off_c, 0, 77, 64
9, 26258, Note_on_c, 0, 76, 66
9, 26355, Note_off_c, 0, 76, 64
9, 26388, Note_on_c, 0, 74, 63
9, 26495, Note_off_c, 0, 74, 64
9, 26621, Note_on_c, 0, 83, 82
9, 26892, Note_off_c, 0, 83, 64
9, 26961, Note_on_c, 0, 74, 63
9, 27025, Note_off_c, 0, 74, 64
9, 27093, Note_on_c, 0, 77, 72
9, 27203, Note_off_c, 0, 77, 64
9, 27341, Note_on_c, 0, 76, 78
9, 27646, Note_off_c, 0, 76, 64
9, 27684, Note_on_c, 0, 74, 66
9, 27777, Note_off_c, 0, 74, 64
9, 27798, Note_on_c, 0, 72, 63
9, 27931, Note_off_c, 0, 72, 64
9, 28059, Note_on_c, 0, 71, 66
9, 28359, Note_off_c, 0, 71, 64
9, 28418, Note_on_c, 0, 76, 62
9, 28499, Note_off_c, 0, 76, 64
9, 28534, Note_on_c, 0, 74, 70
9, 28656, Note_off_c, 0, 74, 64
9, 28781, Note_on_c, 0, 72, 64
9, 29118, Note_off_c, 0, 72, 64
9, 29247, Note_on_c, 0, 69, 63
9, 29365, Note_off_c, 0, 69, 64
9, 29510, Note_on_c, 0, 69, 72
9, 29823, Note_off_c, 0, 69, 64
9, 29861, Note_on_c, 0, 71, 72
9, 29946, Note_off_c, 0, 71, 64
9, 29975, Note_on_c, 0, 72, 70
9, 30056, Note_off_c, 0, 72, 64
9, 30082, Note_on_c, 0, 74, 74
9, 30160, Note_off_c, 0, 74, 64
9, 30208, Note_on_c, 0, 76, 80
9, 30534, Note_off_c, 0, 76, 64
9, 30697, Note_on_c, 0, 76, 82
9, 30801, Note_off_c, 0, 76, 64
9, 30946, Note_on_c, 0, 76, 68
9, 31236, Note_off_c, 0, 76, 64
9, 31307, Note_on_c, 0, 82, 68
9, 31382, Note_off_c, 0, 82, 64
9, 31416, Note_on_c, 0, 79, 66
9, 31530, Note_off_c, 0, 79, 64
9, 31658, Note_on_c, 0, 76, 74
9, 31954, Note_off_c, 0, 76, 64
9, 32024, Note_on_c, 0, 79, 72
9, 32107, Note_off_c, 0, 79, 64
9, 32135, Note_on_c, 0, 76, 78
9, 32240, Note_off_c, 0, 76, 64
9, 32380, Note_on_c, 0, 73, 74
9, 32664, Note_off_c, 0, 73, 64
9, 32745, Note_on_c, 0, 76, 64
9, 32819, Note_off_c, 0, 76, 64
9, 32856, Note_on_c, 0, 73, 64
9, 32954, Note_off_c, 0, 73, 64
9, 33101, Note_on_c, 0, 69, 72
9, 33376, Note_off_c, 0, 69, 64
9, 33452, Note_on_c, 0, 81, 66
9, 33533, Note_off_c, 0, 81, 64
9, 33574, Note_on_c, 0, 77, 70
9, 33678, Note_off_c, 0, 77, 64
9, 33828, Note_on_c, 0, 74, 78
9, 34089, Note_off_c, 0, 74, 64
9, 34181, Note_on_c, 0, 76, 64
9, 34247, Note_off_c, 0, 76, 64
9, 34308, Note_on_c, 0, 73, 66
9, 34418, Note_off_c, 0, 73, 64
9, 34547, Note_on_c, 0, 74, 66
9, 34855, Note_off_c, 0, 74, 64
9, 35009, Note_on_c, 0, 74, 66
9, 35111, Note_off_c, 0, 74, 64
9, 35264, Note_on_c, 0, 74, 57
9, 35503, Note_off_c, 0, 74, 64
9, 35740, Note_on_c, 0, 77, 70
9, 35845, Note_off_c, 0, 77, 64
9, 35981, Note_on_c, 0, 77, 76
9, 36973, Note_off_c, 0, 77, 64
9, 37060, Note_on_c, 0, 74, 66
9, 37122, Note_off_c, 0, 74, 64
9, 37165, Note_on_c, 0, 76, 80
9, 37255, Note_off_c, 0, 76, 64
9, 37419, Note_on_c, 0, 77, 74
9, 37756, Note_off_c, 0, 77, 64
9, 37886, Note_on_c, 0, 67, 64
9, 37995, Note_off_c, 0, 67, 64
9, 38133, Note_on_c, 0, 67, 72
9, 38423, Note_off_c, 0, 67, 64
9, 38497, Note_on_c, 0, 70, 63
9, 38579, Note_off_c, 0, 70, 64
9, 38610, Note_on_c, 0, 69, 78
9, 38731, Note_off_c, 0, 69, 64
9, 38874, Note_on_c, 0, 70, 66
9, 39849, Note_off_c, 0, 70, 64
9, 39930, Note_on_c, 0, 74, 80
9, 40004, Note_off_c, 0, 74, 64
9, 40049, Note_on_c, 0, 72, 82
9, 40151, Note_off_c, 0, 72, 64
9, 40282, Note_on_c, 0, 69, 62
9, 40594, Note_off_c, 0, 69, 64
9, 40659, Note_on_c, 0, 72, 78
9, 40752, Note_off_c, 0, 72, 64
9, 40770, Note_on_c, 0, 71, 74
9, 40901, Note_off_c, 0, 71, 64
9, 41038, Note_on_c, 0, 72, 68
9, 41309, Note_off_c, 0, 72, 64
9, 41388, Note_on_c, 0, 76, 70
9, 41461, Note_off_c, 0, 76, 64
9, 41506, Note_on_c, 0, 74, 80
9, 41622, Note_off_c, 0, 74, 64
9, 41743, Note_on_c, 0, 71, 78
9, 42047, Note_off_c, 0, 71, 64
9, 42101, Note_on_c, 0, 74, 80
9, 42188, Note_off_c, 0, 74, 64
9, 42215, Note_on_c, 0, 72, 80
9, 42344, Note_off_c, 0, 72, 64
9, 42467, Note_on_c, 0, 74, 82
9, 42731, Note_off_c, 0, 74, 64
9, 42814, Note_on_c, 0, 77, 78
9, 42892, Note_off_c, 0, 77, 64
9, 42930, Note_on_c, 0, 76, 82
9, 43058, Note_off_c, 0, 76, 64
9, 43184, Note_on_c, 0, 72, 82
9, 43471, Note_off_c, 0, 72, 64
9, 43530, Note_on_c, 0, 77, 76
9, 43597, Note_off_c, 0, 77, 64
9, 43649, Note_on_c, 0, 81, 89
9, 44181, Note_off_c, 0, 81, 64
9, 44252, Note_on_c, 0, 79, 78
9, 44319, Note_off_c, 0, 79, 64
9, 44361, Note_on_c, 0, 77, 82
9, 44494, Note_off_c, 0, 77, 64
9, 44613, Note_on_c, 0, 76, 82
9, 44919, Note_off_c, 0, 76, 64
9, 44967, Note_on_c, 0, 77, 64
9, 45029, Note_off_c, 0, 77, 64
9, 45090, Note_on_c, 0, 79, 68
9, 45200, Note_off_c, 0, 79, 64
9, 45339, Note_on_c, 0, 67, 64
9, 45631, Note_off_c, 0, 67, 64
9, 45704, Note_on_c, 0, 69, 64
9, 45786, Note_off_c, 0, 69, 64
9, 45824, Note_on_c, 0, 71, 72
9, 45926, Note_off_c, 0, 71, 64
9, 46059, Note_on_c, 0, 72, 64
9, 46341, Note_off_c, 0, 72, 64
9, 46518, Note_on_c, 0, 72, 64
9, 46609, Note_off_c, 0, 72, 64
9, 46775, Note_on_c, 0, 72, 61
9, 47030, Note_off_c, 0, 72, 64
9, 47030, End_track
10, 0, Start_track
10, 0, Title_t, "Violin2"
10, 0, Program_c, 1, 40
10, 0, Control_c, 1, 7, 100
10, 24236, Note_on_c, 1, 67, 72
10, 24338, Note_off_c, 1, 67, 64
10, 24338, Note_on_c, 1, 69, 68
10, 24423, Note_off_c, 1, 69, 64
10, 24470, Note_on_c, 1, 71, 80
10, 24580, Note_off_c, 1, 71, 64
10, 24582, Note_on_c, 1, 69, 60
10, 24644, Note_off_c, 1, 69, 64
10, 24699, Note_on_c, 1, 71, 59
10, 24807, Note_on_c, 1, 72, 64
10, 24808, Note_off_c, 1, 71, 64
10, 24874, Note_off_c, 1, 72, 64
10, 24926, Note_on_c, 1, 74, 76
10, 25038, Note_on_c, 1, 72, 64
10, 25055, Note_off_c, 1, 74, 64
10, 25095, Note_off_c, 1, 72, 64
10, 25166, Note_on_c, 1, 71, 59
10, 25273, Note_off_c, 1, 71, 64
10, 25283, Note_on_c, 1, 69, 64
10, 25370, Note_off_c, 1, 69, 64
10, 25415, Note_on_c, 1, 71, 64
10, 25522, Note_on_c, 1, 72, 66
10, 25524, Note_off_c, 1, 71, 64
10, 25589, Note_off_c, 1, 72, 64
10, 25648, Note_on_c, 1, 74, 70
10, 25764, Note_on_c, 1, 72, 64
10, 25776, Note_off_c, 1, 74, 64
10, 25819, Note_off_c, 1, 72, 64
10, 25885, Note_on_c, 1, 71, 60
10, 25992, Note_off_c, 1, 71, 64
10, 26004, Note_on_c, 1, 69, 60
10, 26077, Note_off_c, 1, 69, 64
10, 26134, Note_on_c, 1, 71, 59
10, 26241, Note_on_c, 1, 72, 63
10, 26253, Note_off_c, 1, 71, 64
10, 26303, Note_off_c, 1, 72, 64
10, 26369, Note_on_c, 1, 74, 70
10, 26481, Note_on_c, 1, 72, 66
10, 26491, Note_off_c, 1, 74, 64
10, 26545, Note_off_c, 1, 72, 64
10, 26611, Note_on_c, 1, 71, 68
10, 26721, Note_on_c, 1, 69, 62
10, 26726, Note_off_c, 1, 71, 64
10, 26792, Note_off_c, 1, 69, 64
10, 26844, Note_on_c, 1, 71, 63
10, 26953, Note_on_c, 1, 72, 68
10, 26973, Note_off_c, 1, 71, 64
10, 27018, Note_off_c, 1, 72, 64
10, 27079, Note_on_c, 1, 71, 70
10, 27195, Note_on_c, 1, 69, 64
10, 27203, Note_off_c, 1, 71, 64
10, 27253, Note_off_c, 1, 69, 64
10, 27314, Note_on_c, 1, 68, 74
10, 27428, Note_on_c, 1, 64, 59
10, 27440, Note_off_c, 1, 68, 64
10, 27497, Note_off_c, 1, 64, 64
10, 27557, Note_on_c, 1, 66, 61
10, 27670, Note_on_c, 1, 68, 62
10, 27680, Note_off_c, 1, 66, 64
10, 27744, Note_off_c, 1, 68, 64
10, 27794, Note_on_c, 1, 69, 70
10, 27894, Note_off_c, 1, 69, 64
10, 27910, Note_on_c, 1, 66, 57
10, 27981, Note_off_c, 1, 66, 64
10, 28045, Note_on_c, 1, 68, 76
10, 28157, Note_on_c, 1, 66, 61
10, 28181, Note_off_c, 1, 68, 64
10, 28240, Note_off_c, 1, 66, 64
10, 28288, Note_on_c, 1, 68, 85
10, 28402, Note_on_c, 1, 69, 74
10, 28412, Note_off_c, 1, 68, 64
10, 28475, Note_off_c, 1, 69, 64
10, 28541, Note_on_c, 1, 71, 85
10, 28653, Note_on_c, 1, 68, 60
10, 28663, Note_off_c, 1, 71, 64
10, 28717, Note_off_c, 1, 68, 64
10, 28773, Note_on_c, 1, 69, 78
10, 28885, Note_on_c, 1, 65, 64
10, 28897, Note_off_c, 1, 69, 64
10, 28947, Note_off_c, 1, 65, 64
10, 29012, Note_on_c, 1, 64, 66
10, 29116, Note_on_c, 1, 62, 68
10, 29122, Note_off_c, 1, 64, 64
10, 29178, Note_off_c, 1, 62, 64
10, 29246, Note_on_c, 1, 60, 63
10, 29365, Note_on_c, 1, 59, 68
10, 29377, Note_off_c, 1, 60, 64
10, 29441, Note_off_c, 1, 59, 64
10, 29495, Note_on_c, 1, 60, 68
10, 29583, Note_off_c, 1, 60, 64
10, 29603, Note_on_c, 1, 59, 66
10, 29693, Note_off_c, 1, 59, 64
10, 29742, Note_on_c, 1, 60, 70
10, 29844, Note_on_c, 1, 62, 63
10, 29849, Note_off_c, 1, 60, 64
10, 29916, Note_off_c, 1, 62, 64
10, 29980, Note_on_c, 1, 64, 61
10, 30098, Note_on_c, 1, 65, 72
10, 30113, Note_off_c, 1, 64, 64
10, 30158, Note_off_c, 1, 65, 64
10, 30217, Note_on_c, 1, 67, 80
10, 30322, Note_on_c, 1, 65, 61
10, 30334, Note_off_c, 1, 67, 64
10, 30402, Note_off_c, 1, 65, 64
10, 30445, Note_on_c, 1, 67, 85
10, 30564, Note_on_c, 1, 69, 76
10, 30576, Note_off_c, 1, 67, 64
10, 30625, Note_off_c, 1, 69, 64
10, 30689, Note_on_c, 1, 70, 78
10, 30797, Note_on_c, 1, 69, 66
10, 30808, Note_off_c, 1, 70, 64
10, 30864, Note_off_c, 1, 69, 64
10, 30926, Note_on_c, 1, 67, 62
10, 31032, Note_off_c, 1, 67, 64
10, 31039, Note_on_c, 1, 65, 68
10, 31110, Note_off_c, 1, 65, 64
10, 31172, Note_on_c, 1, 67, 61
10, 31283, Note_on_c, 1, 69, 74
10, 31299, Note_off_c, 1, 67, 64
10, 31350, Note_off_c, 1, 69, 64
10, 31406, Note_on_c, 1, 70, 64
10, 31518, Note_on_c, 1, 69, 68
10, 31537, Note_off_c, 1, 70, 64
10, 31587, Note_off_c, 1, 69, 64
10, 31656, Note_on_c, 1, 67, 64
10, 31770, Note_on_c, 1, 65, 66
10, 31779, Note_off_c, 1, 67, 64
10, 31841, Note_off_c, 1, 65, 64
10, 31895, Note_on_c, 1, 67, 60
10, 32002, Note_on_c, 1, 69, 74
10, 32026, Note_off_c, 1, 67, 64
10, 32059, Note_off_c, 1, 69, 64
10, 32126, Note_on_c, 1, 70, 66
10, 32230, Note_on_c, 1, 67, 72
10, 32244, Note_off_c, 1, 70, 64
10, 32304, Note_off_c, 1, 67, 64
10, 32375, Note_on_c, 1, 69, 76
10, 32477, Note_off_c, 1, 69, 64
10, 32489, Note_on_c, 1, 67, 68
10, 32564, Note_off_c, 1, 67, 64
10, 32617, Note_on_c, 1, 69, 70
10, 32719, Note_off_c, 1, 69, 64
10, 32724, Note_on_c, 1, 71, 66
10, 32792, Note_off_c, 1, 71, 64
10, 32854, Note_on_c, 1, 73, 62
10, 32964, Note_on_c, 1, 69, 64
10, 32982, Note_off_c, 1, 73, 64
10, 33025, Note_off_c, 1, 69, 64
10, 33094, Note_on_c, 1, 74, 82
10, 33203, Note_on_c, 1, 69, 57
10, 33223, Note_off_c, 1, 74, 64
10, 33274, Note_off_c, 1, 69, 64
10, 33329, Note_on_c, 1, 71, 68
10, 33450, Note_on_c, 1, 73, 60
10, 33464, Note_off_c, 1, 71, 64
10, 33514, Note_off_c, 1, 73, 64
10, 33566, Note_on_c, 1, 74, 78
10, 33676, Note_on_c, 1, 69, 66
10, 33701, Note_off_c, 1, 74, 64
10, 33742, Note_off_c, 1, 69, 64
10, 33807, Note_on_c, 1, 65, 64
10, 33910, Note_off_c, 1, 65, 64
10, 33918, Note_on_c, 1, 64, 58
10, 33983, Note_off_c, 1, 64, 64
10, 34048, Note_on_c, 1, 65, 68
10, 34155, Note_off_c, 1, 65, 64
10, 34160, Note_on_c, 1, 67, 66
10, 34229, Note_off_c, 1, 67, 64
10, 34293, Note_on_c, 1, 69, 76
10, 34404, Note_on_c, 1, 67, 66
10, 34418, Note_off_c, 1, 69, 64
10, 34471, Note_off_c, 1, 67, 64
10, 34535, Note_on_c, 1, 65, 66
10, 34637, Note_off_c, 1, 65, 64
10, 34647, Note_on_c, 1, 64, 64
10, 34710, Note_off_c, 1, 64, 64
10, 34770, Note_on_c, 1, 65, 60
10, 34869, Note_off_c, 1, 65, 64
10, 34871, Note_on_c, 1, 67, 66
10, 34945, Note_off_c, 1, 67, 64
10, 35000, Note_on_c, 1, 69, 68
10, 35109, Note_on_c, 1, 67, 63
10, 35126, Note_off_c, 1, 69, 64
10, 35185, Note_off_c, 1, 67, 64
10, 35249, Note_on_c, 1, 65, 63
10, 35354, Note_off_c, 1, 65, 64
10, 35359, Note_on_c, 1, 64, 62
10, 35425, Note_off_c, 1, 64, 64
10, 35491, Note_on_c, 1, 65, 60
10, 35586, Note_off_c, 1, 65, 64
10, 35605, Note_on_c, 1, 67, 72
10, 35683, Note_off_c, 1, 67, 64
10, 35731, Note_on_c, 1, 69, 74
10, 35823, Note_off_c, 1, 69, 64
10, 35840, Note_on_c, 1, 62, 58
10, 35915, Note_off_c, 1, 62, 64
10, 35978, Note_on_c, 1, 67, 82
10, 36089, Note_on_c, 1, 69, 72
10, 36101, Note_off_c, 1, 67, 64
10, 36153, Note_off_c, 1, 69, 64
10, 36230, Note_on_c, 1, 71, 64
10, 36332, Note_on_c, 1, 72, 68
10, 36346, Note_off_c, 1, 71, 64
10, 36386, Note_off_c, 1, 72, 64
10, 36452, Note_on_c, 1, 74, 78
10, 36550, Note_on_c, 1, 76, 64
10, 36571, Note_off_c, 1, 74, 64
10, 36619, Note_off_c, 1, 76, 64
10, 36674, Note_on_c, 1, 77, 78
10, 36792, Note_on_c, 1, 76, 64
10, 36804, Note_off_c, 1, 77, 64
10, 36866, Note_off_c, 1, 76, 64
10, 36925, Note_on_c, 1, 74, 72
10, 37025, Note_on_c, 1, 72, 68
10, 37041, Note_off_c, 1, 74, 64
10, 37094, Note_off_c, 1, 72, 64
10, 37153, Note_on_c, 1, 71, 72
10, 37267, Note_on_c, 1, 69, 60
10, 37272, Note_off_c, 1, 71, 64
10, 37343, Note_off_c, 1, 69, 64
10, 37398, Note_on_c, 1, 71, 64
10, 37509, Note_on_c, 1, 72, 68
10, 37518, Note_off_c, 1, 71, 64
10, 37582, Note_off_c, 1, 72, 64
10, 37639, Note_on_c, 1, 74, 68
10, 37748, Note_on_c, 1, 72, 64
10, 37772, Note_off_c, 1, 74, 64
10, 37815, Note_off_c, 1, 72, 64
10, 37875, Note_on_c, 1, 71, 68
10, 37984, Note_on_c, 1, 69, 60
10, 38003, Note_off_c, 1, 71, 64
10, 38052, Note_off_c, 1, 69, 64
10, 38116, Note_on_c, 1, 67, 66
10, 38233, Note_on_c, 1, 65, 64
10, 38250, Note_off_c, 1, 67, 64
10, 38294, Note_off_c, 1, 65, 64
10, 38354, Note_on_c, 1, 64, 61
10, 38468, Note_on_c, 1, 62, 66
10, 38478, Note_off_c, 1, 64, 64
10, 38552, Note_off_c, 1, 62, 64
10, 38590, Note_on_c, 1, 64, 70
10, 38698, Note_off_c, 1, 64, 64
10, 38708, Note_on_c, 1, 65, 74
10, 38784, Note_off_c, 1, 65, 64
10, 38847, Note_on_c, 1, 67, 70
10, 38952, Note_on_c, 1, 69, 68
10, 38961, Note_off_c, 1, 67, 64
10, 39033, Note_off_c, 1, 69, 64
10, 39083, Note_on_c, 1, 67, 76
10, 39189, Note_off_c, 1, 67, 64
10, 39196, Note_on_c, 1, 65, 70
10, 39266, Note_off_c, 1, 65, 64
10, 39318, Note_on_c, 1, 64, 70
10, 39424, Note_off_c, 1, 64, 64
10, 39432, Note_on_c, 1, 62, 64
10, 39508, Note_off_c, 1, 62, 64
10, 39569, Note_on_c, 1, 60, 76
10, 39678, Note_on_c, 1, 62, 80
10, 39679, Note_off_c, 1, 60, 64
10, 39759, Note_off_c, 1, 62, 64
10, 39799, Note_on_c, 1, 64, 68
10, 39899, Note_off_c, 1, 64, 64
10, 39914, Note_on_c, 1, 65, 72
10, 40004, Note_off_c, 1, 65, 64
10, 40037, Note_on_c, 1, 67, 85
10, 40139, Note_off_c, 1, 67, 64
10, 40301, Note_on_c, 1, 67, 78
10, 40716, Note_off_c, 1, 67, 64
10, 40759, Note_on_c, 1, 65, 47
10, 40896, Note_off_c, 1, 65, 64
10, 41505, Note_on_c, 1, 69, 70
10, 41591, Note_off_c, 1, 69, 64
10, 41760, Note_on_c, 1, 69, 80
10, 42175, Note_off_c, 1, 69, 64
10, 42182, Note_on_c, 1, 67, 52
10, 42325, Note_off_c, 1, 67, 64
10, 42944, Note_on_c, 1, 71, 82
10, 43037, Note_off_c, 1, 71, 64
10, 43194, Note_on_c, 1, 71, 80
10, 43488, Note_off_c, 1, 71, 64
10, 43526, Note_on_c, 1, 69, 66
10, 43605, Note_off_c, 1, 69, 64
10, 43638, Note_on_c, 1, 72, 72
10, 43737, Note_off_c, 1, 72, 64
10, 43901, Note_on_c, 1, 74, 76
10, 44193, Note_off_c, 1, 74, 64
10, 44257, Note_on_c, 1, 71, 64
10, 44328, Note_off_c, 1, 71, 64
10, 44373, Note_on_c, 1, 74, 72
10, 44488, Note_off_c, 1, 74, 64
10, 44608, Note_on_c, 1, 72, 80
10, 44710, Note_on_c, 1, 69, 66
10, 44725, Note_off_c, 1, 72, 64
10, 44789, Note_off_c, 1, 69, 64
10, 44844, Note_on_c, 1, 67, 80
10, 44952, Note_on_c, 1, 65, 66
10, 44972, Note_off_c, 1, 67, 64
10, 45034, Note_off_c, 1, 65, 64
10, 45071, Note_on_c, 1, 64, 78
10, 45181, Note_on_c, 1, 62, 68
10, 45207, Note_off_c, 1, 64, 64
10, 45269, Note_off_c, 1, 62, 64
10, 45332, Note_on_c, 1, 60, 82
10, 45437, Note_off_c, 1, 60, 64
10, 45453, Note_on_c, 1, 76, 60
10, 45529, Note_off_c, 1, 76, 64
10, 45579, Note_on_c, 1, 74, 70
10, 45689, Note_on_c, 1, 72, 66
10, 45693, Note_off_c, 1, 74, 64
10, 45753, Note_off_c, 1, 72, 64
10, 45812, Note_on_c, 1, 71, 74
10, 45914, Note_on_c, 1, 69, 60
10, 45921, Note_off_c, 1, 71, 64
10, 45978, Note_off_c, 1, 69, 64
10, 46044, Note_on_c, 1, 67, 60
10, 46161, Note_on_c, 1, 69, 70
10, 46177, Note_off_c, 1, 67, 64
10, 46232, Note_off_c, 1, 69, 64
10, 46291, Note_on_c, 1, 67, 70
10, 46400, Note_on_c, 1, 65, 64
10, 46420, Note_off_c, 1, 67, 64
10, 46458, Note_off_c, 1, 65, 64
10, 46526, Note_on_c, 1, 64, 63
10, 46633, Note_off_c, 1, 64, 64
10, 46642, Note_on_c, 1, 62, 66
10, 46719, Note_off_c, 1, 62, 64
10, 46785, Note_on_c, 1, 64, 66
10, 47129, Note_off_c, 1, 64, 64
10, 47129, End_track
11, 0, Start_track
11, 0, Title_t, "Viola"
11, 0, Program_c, 2, 41
11, 0, Control_c, 2, 7, 100
11, 24245, Note_on_c, 2, 59, 64
11, 24345, Note_on_c, 2, 60, 64
11, 24362, Note_off_c, 2, 59, 64
11, 24418, Note_off_c, 2, 60, 64
11, 24461, Note_on_c, 2, 62, 70
11, 24572, Note_off_c, 2, 62, 64
11, 24572, Note_on_c, 2, 60, 68
11, 24667, Note_off_c, 2, 60, 64
11, 24705, Note_on_c, 2, 62, 68
11, 24817, Note_on_c, 2, 64, 80
11, 24824, Note_off_c, 2, 62, 64
11, 24891, Note_off_c, 2, 64, 64
11, 24936, Note_on_c, 2, 65, 66
11, 25040, Note_on_c, 2, 64, 80
11, 25073, Note_off_c, 2, 65, 64
11, 25116, Note_off_c, 2, 64, 64
11, 25164, Note_on_c, 2, 62, 80
11, 25271, Note_on_c, 2, 60, 58
11, 25282, Note_off_c, 2, 62, 64
11, 25358, Note_off_c, 2, 60, 64
11, 25401, Note_on_c, 2, 62, 82
11, 25524, Note_on_c, 2, 64, 72
11, 25527, Note_off_c, 2, 62, 64
11, 25610, Note_off_c, 2, 64, 64
11, 25646, Note_on_c, 2, 65, 64
11, 25764, Note_on_c, 2, 64, 70
11, 25791, Note_off_c, 2, 65, 64
11, 25850, Note_off_c, 2, 64, 64
11, 25897, Note_on_c, 2, 62, 72
11, 26010, Note_on_c, 2, 60, 64
11, 26030, Note_off_c, 2, 62, 64
11, 26087, Note_off_c, 2, 60, 64
11, 26130, Note_on_c, 2, 62, 78
11, 26246, Note_on_c, 2, 64, 80
11, 26256, Note_off_c, 2, 62, 64
11, 26341, Note_off_c, 2, 64, 64
11, 26363, Note_on_c, 2, 65, 57
11, 26477, Note_on_c, 2, 64, 78
11, 26509, Note_off_c, 2, 65, 64
11, 26554, Note_off_c, 2, 64, 64
11, 26609, Note_on_c, 2, 62, 68
11, 26718, Note_on_c, 2, 60, 68
11, 26737, Note_off_c, 2, 62, 64
11, 26804, Note_off_c, 2, 60, 64
11, 26844, Note_on_c, 2, 62, 80
11, 26953, Note_on_c, 2, 64, 80
11, 26967, Note_off_c, 2, 62, 64
11, 27053, Note_off_c, 2, 64, 64
11, 27081, Note_on_c, 2, 62, 72
11, 27184, Note_on_c, 2, 60, 80
11, 27200, Note_off_c, 2, 62, 64
11, 27267, Note_off_c, 2, 60, 64
11, 27319, Note_on_c, 2, 59, 85
11, 27425, Note_off_c, 2, 59, 64
11, 27445, Note_on_c, 2, 56, 60
11, 27532, Note_off_c, 2, 56, 64
11, 27573, Note_on_c, 2, 57, 66
11, 27692, Note_on_c, 2, 59, 80
11, 27701, Note_off_c, 2, 57, 64
11, 27767, Note_off_c, 2, 59, 64
11, 27812, Note_on_c, 2, 60, 68
11, 27901, Note_off_c, 2, 60, 64
11, 27927, Note_on_c, 2, 62, 66
11, 28005, Note_off_c, 2, 62, 64
11, 28048, Note_on_c, 2, 64, 70
11, 28163, Note_off_c, 2, 64, 64
11, 28163, Note_on_c, 2, 62, 64
11, 28252, Note_off_c, 2, 62, 64
11, 28280, Note_on_c, 2, 64, 64
11, 28398, Note_on_c, 2, 66, 68
11, 28409, Note_off_c, 2, 64, 64
11, 28491, Note_off_c, 2, 66, 64
11, 28525, Note_on_c, 2, 68, 66
11, 28632, Note_on_c, 2, 64, 72
11, 28650, Note_off_c, 2, 68, 64
11, 28696, Note_off_c, 2, 64, 64
11, 28764, Note_on_c, 2, 57, 68
11, 28872, Note_off_c, 2, 57, 64
11, 28878, Note_on_c, 2, 69, 64
11, 28959, Note_off_c, 2, 69, 64
11, 29002, Note_on_c, 2, 67, 72
11, 29114, Note_on_c, 2, 65, 62
11, 29137, Note_off_c, 2, 67, 64
11, 29189, Note_off_c, 2, 65, 64
11, 29246, Note_on_c, 2, 64, 68
11, 29356, Note_off_c, 2, 64, 64
11, 29356, Note_on_c, 2, 62, 60
11, 29438, Note_off_c, 2, 62, 64
11, 29486, Note_on_c, 2, 64, 68
11, 29597, Note_on_c, 2, 62, 68
11, 29609, Note_off_c, 2, 64, 64
11, 29679, Note_off_c, 2, 62, 64
11, 29726, Note_on_c, 2, 64, 68
11, 29849, Note_on_c, 2, 65, 66
11, 29854, Note_off_c, 2, 64, 64
11, 29923, Note_off_c, 2, 65, 64
11, 29961, Note_on_c, 2, 67, 70
11, 30070, Note_on_c, 2, 69, 72
11, 30077, Note_off_c, 2, 67, 64
11, 30168, Note_off_c, 2, 69, 64
11, 30205, Note_on_c, 2, 70, 64
11, 30319, Note_on_c, 2, 72, 64
11, 30336, Note_off_c, 2, 70, 64
11, 30402, Note_off_c, 2, 72, 64
11, 30440, Note_on_c, 2, 70, 63
11, 30556, Note_on_c, 2, 69, 61
11, 30562, Note_off_c, 2, 70, 64
11, 30635, Note_off_c, 2, 69, 64
11, 30687, Note_on_c, 2, 67, 70
11, 30810, Note_on_c, 2, 69, 82
11, 30830, Note_off_c, 2, 67, 64
11, 30898, Note_off_c, 2, 69, 64
11, 30947, Note_on_c, 2, 70, 76
11, 31057, Note_on_c, 2, 69, 70
11, 31077, Note_off_c, 2, 70, 64
11, 31155, Note_off_c, 2, 69, 64
11, 31185, Note_on_c, 2, 70, 76
11, 31292, Note_on_c, 2, 72, 66
11, 31299, Note_off_c, 2, 70, 64
11, 31376, Note_off_c, 2, 72, 64
11, 31411, Note_on_c, 2, 74, 85
11, 31520, Note_on_c, 2, 72, 60
11, 31535, Note_off_c, 2, 74, 64
11, 31606, Note_off_c, 2, 72, 64
11, 31656, Note_on_c, 2, 70, 89
11, 31763, Note_on_c, 2, 72, 61
11, 31795, Note_off_c, 2, 70, 64
11, 31846, Note_off_c, 2, 72, 64
11, 31888, Note_on_c, 2, 70, 85
11, 31988, Note_off_c, 2, 70, 64
11, 31997, Note_on_c, 2, 69, 72
11, 32119, Note_off_c, 2, 69, 64
11, 32132, Note_on_c, 2, 67, 76
11, 32232, Note_off_c, 2, 67, 64
11, 32242, Note_on_c, 2, 65, 66
11, 32315, Note_off_c, 2, 65, 64
11, 32371, Note_on_c, 2, 64, 70
11, 32487, Note_on_c, 2, 62, 70
11, 32494, Note_off_c, 2, 64, 64
11, 32557, Note_off_c, 2, 62, 64
11, 32598, Note_on_c, 2, 61, 64
11, 32695, Note_off_c, 2, 61, 64
11, 32726, Note_on_c, 2, 58, 72
11, 32805, Note_off_c, 2, 58, 64
11, 32837, Note_on_c, 2, 57, 68
11, 32973, Note_on_c, 2, 64, 78
11, 33003, Note_off_c, 2, 57, 64
11, 33042, Note_off_c, 2, 64, 64
11, 33092, Note_on_c, 2, 65, 78
11, 33193, Note_off_c, 2, 65, 64
11, 33210, Note_on_c, 2, 61, 68
11, 33294, Note_off_c, 2, 61, 64
11, 33336, Note_on_c, 2, 62, 72
11, 33436, Note_off_c, 2, 62, 64
11, 33445, Note_on_c, 2, 64, 78
11, 33524, Note_off_c, 2, 64, 64
11, 33576, Note_on_c, 2, 65, 80
11, 33664, Note_off_c, 2, 65, 64
11, 33687, Note_on_c, 2, 67, 72
11, 33773, Note_off_c, 2, 67, 64
11, 33811, Note_on_c, 2, 69, 66
11, 33918, Note_off_c, 2, 69, 64
11, 33929, Note_on_c, 2, 70, 64
11, 34006, Note_off_c, 2, 70, 64
11, 34053, Note_on_c, 2, 69, 78
11, 34164, Note_on_c, 2, 67, 66
11, 34176, Note_off_c, 2, 69, 64
11, 34234, Note_off_c, 2, 67, 64
11, 34285, Note_on_c, 2, 65, 80
11, 34399, Note_on_c, 2, 64, 66
11, 34428, Note_off_c, 2, 65, 64
11, 34476, Note_off_c, 2, 64, 64
11, 34533, Note_on_c, 2, 62, 78
11, 34653, Note_on_c, 2, 61, 70
11, 34660, Note_off_c, 2, 62, 64
11, 34736, Note_off_c, 2, 61, 64
11, 34774, Note_on_c, 2, 62, 64
11, 34871, Note_off_c, 2, 62, 64
11, 34888, Note_on_c, 2, 64, 68
11, 34979, Note_off_c, 2, 64, 64
11, 35014, Note_on_c, 2, 65, 63
11, 35114, Note_off_c, 2, 65, 64
11, 35121, Note_on_c, 2, 64, 70
11, 35206, Note_off_c, 2, 64, 64
11, 35257, Note_on_c, 2, 62, 70
11, 35368, Note_off_c, 2, 62, 64
11, 35368, Note_on_c, 2, 61, 66
11, 35454, Note_off_c, 2, 61, 64
11, 35498, Note_on_c, 2, 62, 70
11, 35615, Note_on_c, 2, 64, 74
11, 35620, Note_off_c, 2, 62, 64
11, 35708, Note_off_c, 2, 64, 64
11, 35736, Note_on_c, 2, 62, 66
11, 35843, Note_on_c, 2, 60, 72
11, 35850, Note_off_c, 2, 62, 64
11, 35916, Note_off_c, 2, 60, 64
11, 35966, Note_on_c, 2, 59, 56
11, 36075, Note_on_c, 2, 57, 60
11, 36083, Note_off_c, 2, 59, 64
11, 36156, Note_off_c, 2, 57, 64
11, 36204, Note_on_c, 2, 55, 64
11, 36298, Note_off_c, 2, 55, 64
11, 36316, Note_on_c, 2, 57, 68
11, 36404, Note_off_c, 2, 57, 64
11, 36441, Note_on_c, 2, 59, 68
11, 36552, Note_off_c, 2, 59, 64
11, 36559, Note_on_c, 2, 60, 68
11, 36640, Note_off_c, 2, 60, 64
11, 36678, Note_on_c, 2, 62, 70
11, 36788, Note_on_c, 2, 64, 80
11, 36797, Note_off_c, 2, 62, 64
11, 36890, Note_off_c, 2, 64, 64
11, 36918, Note_on_c, 2, 65, 68
11, 37030, Note_on_c, 2, 64, 76
11, 37055, Note_off_c, 2, 65, 64
11, 37146, Note_off_c, 2, 64, 64
11, 37170, Note_on_c, 2, 62, 76
11, 37279, Note_off_c, 2, 62, 64
11, 37290, Note_on_c, 2, 60, 66
11, 37364, Note_off_c, 2, 60, 64
11, 37404, Note_on_c, 2, 62, 87
11, 37526, Note_off_c, 2, 62, 64
11, 37526, Note_on_c, 2, 64, 76
11, 37611, Note_off_c, 2, 64, 64
11, 37647, Note_on_c, 2, 65, 70
11, 37754, Note_on_c, 2, 64, 76
11, 37773, Note_off_c, 2, 65, 64
11, 37838, Note_off_c, 2, 64, 64
11, 37881, Note_on_c, 2, 62, 80
11, 37995, Note_on_c, 2, 60, 68
11, 37998, Note_off_c, 2, 62, 64
11, 38071, Note_off_c, 2, 60, 64
11, 38116, Note_on_c, 2, 62, 82
11, 38230, Note_off_c, 2, 62, 64
11, 38231, Note_on_c, 2, 69, 76
11, 38311, Note_off_c, 2, 69, 64
11, 38349, Note_on_c, 2, 67, 72
11, 38458, Note_on_c, 2, 65, 63
11, 38466, Note_off_c, 2, 67, 64
11, 38534, Note_off_c, 2, 65, 64
11, 38591, Note_on_c, 2, 64, 76
11, 38708, Note_off_c, 2, 64, 64
11, 38708, Note_on_c, 2, 62, 72
11, 38790, Note_off_c, 2, 62, 64
11, 38843, Note_on_c, 2, 64, 64
11, 38959, Note_on_c, 2, 65, 64
11, 38966, Note_off_c, 2, 64, 64
11, 39037, Note_off_c, 2, 65, 64
11, 39085, Note_on_c, 2, 64, 82
11, 39196, Note_off_c, 2, 64, 64
11, 39206, Note_on_c, 2, 62, 64
11, 39291, Note_off_c, 2, 62, 64
11, 39332, Note_on_c, 2, 60, 62
11, 39413, Note_off_c, 2, 60, 64
11, 39441, Note_on_c, 2, 62, 66
11, 39533, Note_off_c, 2, 62, 64
11, 39569, Note_on_c, 2, 64, 70
11, 39657, Note_off_c, 2, 64, 64
11, 39681, Note_on_c, 2, 65, 66
11, 39755, Note_off_c, 2, 65, 64
11, 39804, Note_on_c, 2, 67, 78
11, 39913, Note_on_c, 2, 65, 70
11, 39944, Note_off_c, 2, 67, 64
11, 40001, Note_off_c, 2, 65, 64
11, 40039, Note_on_c, 2, 64, 80
11, 40129, Note_off_c, 2, 64, 64
11, 40156, Note_on_c, 2, 67, 80
11, 40227, Note_off_c, 2, 67, 64
11, 40288, Note_on_c, 2, 60, 85
11, 40682, Note_off_c, 2, 60, 64
11, 40796, Note_on_c, 2, 62, 70
11, 40898, Note_off_c, 2, 62, 64
11, 41038, Note_on_c, 2, 55, 57
11, 41364, Note_off_c, 2, 55, 64
11, 41518, Note_on_c, 2, 62, 76
11, 41606, Note_off_c, 2, 62, 64
11, 41781, Note_on_c, 2, 62, 70
11, 42142, Note_off_c, 2, 62, 64
11, 42228, Note_on_c, 2, 64, 70
11, 42353, Note_off_c, 2, 64, 64
11, 42482, Note_on_c, 2, 57, 57
11, 42785, Note_off_c, 2, 57, 64
11, 42963, Note_on_c, 2, 64, 78
11, 43077, Note_off_c, 2, 64, 64
11, 43211, Note_on_c, 2, 64, 78
11, 43502, Note_off_c, 2, 64, 64
11, 43541, Note_on_c, 2, 60, 60
11, 43612, Note_off_c, 2, 60, 64
11, 43660, Note_on_c, 2, 65, 78
11, 44202, Note_off_c, 2, 65, 64
11, 44266, Note_on_c, 2, 62, 76
11, 44355, Note_off_c, 2, 62, 64
11, 44370, Note_on_c, 2, 59, 82
11, 44471, Note_off_c, 2, 59, 64
11, 44609, Note_on_c, 2, 55, 68
11, 44717, Note_off_c, 2, 55, 64
11, 44718, Note_on_c, 2, 72, 61
11, 44817, Note_off_c, 2, 72, 64
11, 44844, Note_on_c, 2, 71, 68
11, 44929, Note_off_c, 2, 71, 64
11, 44950, Note_on_c, 2, 69, 70
11, 45041, Note_off_c, 2, 69, 64
11, 45083, Note_on_c, 2, 67, 80
11, 45187, Note_on_c, 2, 65, 66
11, 45205, Note_off_c, 2, 67, 64
11, 45266, Note_off_c, 2, 65, 64
11, 45321, Note_on_c, 2, 64, 78
11, 45442, Note_on_c, 2, 62, 70
11, 45444, Note_off_c, 2, 64, 64
11, 45524, Note_off_c, 2, 62, 64
11, 45560, Note_on_c, 2, 64, 68
11, 45674, Note_on_c, 2, 65, 64
11, 45696, Note_off_c, 2, 64, 64
11, 45771, Note_off_c, 2, 65, 64
11, 45795, Note_on_c, 2, 67, 68
11, 45902, Note_on_c, 2, 65, 66
11, 45931, Note_off_c, 2, 67, 64
11, 45994, Note_off_c, 2, 65, 64
11, 46037, Note_on_c, 2, 64, 82
11, 46132, Note_off_c, 2, 64, 64
11, 46159, Note_on_c, 2, 60, 57
11, 46203, Note_off_c, 2, 60, 64
11, 46277, Note_on_c, 2, 59, 72
11, 46389, Note_off_c, 2, 59, 64
11, 46403, Note_on_c, 2, 57, 59
11, 46481, Note_off_c, 2, 57, 64
11, 46519, Note_on_c, 2, 55, 64
11, 46629, Note_off_c, 2, 55, 64
11, 46638, Note_on_c, 2, 53, 74
11, 46718, Note_off_c, 2, 53, 64
11, 46766, Note_on_c, 2, 55, 70
11, 47165, Note_off_c, 2, 55, 64
11, 47165, End_track
12, 0, Start_track
12, 0, Title_t, "Cello"
12, 0, Program_c, 3, 42
12, 0, Control_c, 3, 7, 100
12, 24946, Note_on_c, 3, 43, 78
12, 25050, Note_off_c, 3, 43, 64
12, 25199, Note_on_c, 3, 55, 58
12, 25531, Note_off_c, 3, 55, 64
12, 26382, Note_on_c, 3, 44, 82
12, 26522, Note_off_c, 3, 44, 64
12, 26649, Note_on_c, 3, 56, 64
12, 27008, Note_off_c, 3, 56, 64
12, 27817, Note_on_c, 3, 40, 82
12, 27936, Note_off_c, 3, 40, 64
12, 28076, Note_on_c, 3, 52, 68
12, 28444, Note_off_c, 3, 52, 64
12, 29275, Note_on_c, 3, 45, 80
12, 29401, Note_off_c, 3, 45, 64
12, 29529, Note_on_c, 3, 57, 72
12, 29899, Note_off_c, 3, 57, 64
12, 30702, Note_on_c, 3, 43, 76
12, 30823, Note_off_c, 3, 43, 64
12, 30965, Note_on_c, 3, 55, 66
12, 31345, Note_off_c, 3, 55, 64
12, 32126, Note_on_c, 3, 43, 74
12, 32239, Note_off_c, 3, 43, 64
12, 32394, Note_on_c, 3, 55, 63
12, 32769, Note_off_c, 3, 55, 64
12, 33441, Note_on_c, 3, 53, 82
12, 33533, Note_off_c, 3, 53, 64
12, 33550, Note_on_c, 3, 50, 63
12, 33667, Note_off_c, 3, 50, 64
12, 33828, Note_on_c, 3, 57, 76
12, 34155, Note_off_c, 3, 57, 64
12, 34295, Note_on_c, 3, 45, 82
12, 34390, Note_off_c, 3, 45, 64
12, 34540, Note_on_c, 3, 50, 68
12, 34872, Note_off_c, 3, 50, 64
12, 35000, Note_on_c, 3, 38, 82
12, 35114, Note_off_c, 3, 38, 64
12, 35257, Note_on_c, 3, 50, 68
12, 35591, Note_off_c, 3, 50, 64
12, 36332, Note_on_c, 3, 62, 85
12, 36408, Note_off_c, 3, 62, 64
12, 36443, Note_on_c, 3, 60, 80
12, 36555, Note_off_c, 3, 60, 64
12, 36699, Note_on_c, 3, 59, 64
12, 36987, Note_off_c, 3, 59, 64
12, 37044, Note_on_c, 3, 60, 68
12, 37122, Note_off_c, 3, 60, 64
12, 37172, Note_on_c, 3, 57, 63
12, 37260, Note_off_c, 3, 57, 64
12, 37409, Note_on_c, 3, 55, 70
12, 37746, Note_off_c, 3, 55, 64
12, 37761, Note_on_c, 3, 57, 64
12, 37817, Note_off_c, 3, 57, 64
12, 37900, Note_on_c, 3, 53, 53
12, 38003, Note_off_c, 3, 53, 64
12, 38138, Note_on_c, 3, 52, 82
12, 38437, Note_off_c, 3, 52, 64
12, 38486, Note_on_c, 3, 53, 68
12, 38548, Note_off_c, 3, 53, 64
12, 38603, Note_on_c, 3, 50, 66
12, 38705, Note_off_c, 3, 50, 64
12, 38869, Note_on_c, 3, 48, 87
12, 39175, Note_off_c, 3, 48, 64
12, 39190, Note_on_c, 3, 50, 68
12, 39254, Note_off_c, 3, 50, 64
12, 39325, Note_on_c, 3, 46, 80
12, 39450, Note_off_c, 3, 46, 64
12, 39566, Note_on_c, 3, 45, 76
12, 39869, Note_off_c, 3, 45, 64
12, 39932, Note_on_c, 3, 46, 62
12, 40008, Note_off_c, 3, 46, 64
12, 40044, Note_on_c, 3, 43, 80
12, 40174, Note_off_c, 3, 43, 64
12, 40303, Note_on_c, 3, 41, 85
12, 40580, Note_off_c, 3, 41, 64
12, 40657, Note_on_c, 3, 52, 70
12, 40720, Note_off_c, 3, 52, 64
12, 40759, Note_on_c, 3, 50, 70
12, 40915, Note_off_c, 3, 50, 64
12, 41026, Note_on_c, 3, 52, 78
12, 41302, Note_off_c, 3, 52, 64
12, 41390, Note_on_c, 3, 55, 72
12, 41467, Note_off_c, 3, 55, 64
12, 41500, Note_on_c, 3, 54, 74
12, 41648, Note_off_c, 3, 54, 64
12, 41755, Note_on_c, 3, 55, 80
12, 42033, Note_off_c, 3, 55, 64
12, 42088, Note_on_c, 3, 53, 70
12, 42168, Note_off_c, 3, 53, 64
12, 42199, Note_on_c, 3, 52, 72
12, 42340, Note_off_c, 3, 52, 64
12, 42449, Note_on_c, 3, 54, 70
12, 42722, Note_off_c, 3, 54, 64
12, 42804, Note_on_c, 3, 57, 66
12, 42880, Note_off_c, 3, 57, 64
12, 42916, Note_on_c, 3, 56, 82
12, 43044, Note_off_c, 3, 56, 64
12, 43192, Note_on_c, 3, 57, 78
12, 43543, Note_off_c, 3, 57, 64
12, 43643, Note_on_c, 3, 53, 68
12, 43750, Note_off_c, 3, 53, 64
12, 43913, Note_on_c, 3, 47, 72
12, 44247, Note_off_c, 3, 47, 64
12, 44367, Note_on_c, 3, 55, 87
12, 44461, Note_off_c, 3, 55, 64
12, 44621, Note_on_c, 3, 48, 80
12, 44919, Note_off_c, 3, 48, 64
12, 44960, Note_on_c, 3, 50, 82
12, 45045, Note_off_c, 3, 50, 64
12, 45079, Note_on_c, 3, 52, 68
12, 45153, Note_off_c, 3, 52, 64
12, 45190, Note_on_c, 3, 53, 80
12, 45271, Note_off_c, 3, 53, 64
12, 45323, Note_on_c, 3, 55, 80
12, 45662, Note_off_c, 3, 55, 64
12, 45816, Note_on_c, 3, 43, 85
12, 45923, Note_off_c, 3, 43, 64
12, 46068, Note_on_c, 3, 48, 70
12, 46381, Note_off_c, 3, 48, 64
12, 46536, Note_on_c, 3, 36, 76
12, 46647, Note_off_c, 3, 36, 64
12, 46790, Note_on_c, 3, 48, 68
12, 47080, Note_off_c, 3, 48, 64
12, 47080, End_track
13, 0, Start_track
13, 0, Title_t, "Oboe1"
13, 0, Program_c, 4, 68
13, 0, Control_c, 4, 7, 100
13, 24228, Note_on_c, 4, 74, 82
13, 24315, Note_off_c, 4, 74, 64
13, 24487, Note_on_c, 4, 71, 64
13, 24796, Note_off_c, 4, 71, 64
13, 24936, Note_on_c, 4, 71, 68
13, 25048, Note_off_c, 4, 71, 64
13, 25186, Note_on_c, 4, 71, 68
13, 25489, Note_off_c, 4, 71, 64
13, 25522, Note_on_c, 4, 69, 70
13, 25600, Note_off_c, 4, 69, 64
13, 25653, Note_on_c, 4, 67, 57
13, 25747, Note_off_c, 4, 67, 64
13, 25899, Note_on_c, 4, 77, 68
13, 26208, Note_off_c, 4, 77, 64
13, 26255, Note_on_c, 4, 76, 72
13, 26325, Note_off_c, 4, 76, 64
13, 26363, Note_on_c, 4, 74, 68
13, 26497, Note_off_c, 4, 74, 64
13, 26619, Note_on_c, 4, 83, 70
13, 26928, Note_off_c, 4, 83, 64
13, 27001, Note_on_c, 4, 74, 66
13, 27053, Note_off_c, 4, 74, 64
13, 27113, Note_on_c, 4, 77, 82
13, 27212, Note_off_c, 4, 77, 64
13, 27347, Note_on_c, 4, 76, 78
13, 27640, Note_off_c, 4, 76, 64
13, 27689, Note_on_c, 4, 74, 66
13, 27772, Note_off_c, 4, 74, 64
13, 27803, Note_on_c, 4, 72, 63
13, 27915, Note_off_c, 4, 72, 64
13, 28069, Note_on_c, 4, 71, 68
13, 28335, Note_off_c, 4, 71, 64
13, 28416, Note_on_c, 4, 76, 78
13, 28482, Note_off_c, 4, 76, 64
13, 28523, Note_on_c, 4, 74, 85
13, 28625, Note_off_c, 4, 74, 64
13, 28793, Note_on_c, 4, 72, 78
13, 29128, Note_off_c, 4, 72, 64
13, 29258, Note_on_c, 4, 69, 63
13, 29355, Note_off_c, 4, 69, 64
13, 29512, Note_on_c, 4, 69, 60
13, 29807, Note_off_c, 4, 69, 64
13, 29873, Note_on_c, 4, 71, 70
13, 29944, Note_off_c, 4, 71, 64
13, 29977, Note_on_c, 4, 72, 80
13, 30048, Note_off_c, 4, 72, 64
13, 30080, Note_on_c, 4, 74, 82
13, 30149, Note_off_c, 4, 74, 64
13, 30212, Note_on_c, 4, 76, 82
13, 30543, Note_off_c, 4, 76, 64
13, 30702, Note_on_c, 4, 76, 82
13, 30804, Note_off_c, 4, 76, 64
13, 30953, Note_on_c, 4, 76, 66
13, 31236, Note_off_c, 4, 76, 64
13, 31329, Note_on_c, 4, 82, 82
13, 31390, Note_off_c, 4, 82, 64
13, 31435, Note_on_c, 4, 79, 78
13, 31530, Note_off_c, 4, 79, 64
13, 31672, Note_on_c, 4, 76, 80
13, 31955, Note_off_c, 4, 76, 64
13, 32014, Note_on_c, 4, 79, 76
13, 32092, Note_off_c, 4, 79, 64
13, 32132, Note_on_c, 4, 76, 70
13, 32218, Note_off_c, 4, 76, 64
13, 32389, Note_on_c, 4, 73, 62
13, 32664, Note_off_c, 4, 73, 64
13, 32735, Note_on_c, 4, 76, 62
13, 32799, Note_off_c, 4, 76, 64
13, 32849, Note_on_c, 4, 73, 58
13, 32938, Note_off_c, 4, 73, 64
13, 33099, Note_on_c, 4, 69, 64
13, 33388, Note_off_c, 4, 69, 64
13, 33457, Note_on_c, 4, 81, 80
13, 33536, Note_off_c, 4, 81, 64
13, 33570, Note_on_c, 4, 77, 78
13, 33687, Note_off_c, 4, 77, 64
13, 33818, Note_on_c, 4, 74, 80
13, 34080, Note_off_c, 4, 74, 64
13, 34172, Note_on_c, 4, 76, 62
13, 34228, Note_off_c, 4, 76, 64
13, 34298, Note_on_c, 4, 73, 68
13, 34395, Note_off_c, 4, 73, 64
13, 34540, Note_on_c, 4, 74, 64
13, 34860, Note_off_c, 4, 74, 64
13, 35026, Note_on_c, 4, 74, 64
13, 35123, Note_off_c, 4, 74, 64
13, 35280, Note_on_c, 4, 74, 52
13, 35520, Note_off_c, 4, 74, 64
13, 35737, Note_on_c, 4, 77, 66
13, 35826, Note_off_c, 4, 77, 64
13, 35994, Note_on_c, 4, 77, 80
13, 36949, Note_off_c, 4, 77, 64
13, 37037, Note_on_c, 4, 74, 74
13, 37106, Note_off_c, 4, 74, 64
13, 37162, Note_on_c, 4, 76, 82
13, 37243, Note_off_c, 4, 76, 64
13, 37424, Note_on_c, 4, 77, 78
13, 37767, Note_off_c, 4, 77, 64
13, 37887, Note_on_c, 4, 67, 68
13, 37972, Note_off_c, 4, 67, 64
13, 38140, Note_on_c, 4, 67, 72
13, 38461, Note_off_c, 4, 67, 64
13, 38515, Note_on_c, 4, 70, 70
13, 38587, Note_off_c, 4, 70, 64
13, 38624, Note_on_c, 4, 69, 66
13, 38739, Note_off_c, 4, 69, 64
13, 38867, Note_on_c, 4, 70, 62
13, 39820, Note_off_c, 4, 70, 64
13, 39946, Note_on_c, 4, 74, 78
13, 40013, Note_off_c, 4, 74, 64
13, 40060, Note_on_c, 4, 72, 78
13, 40156, Note_off_c, 4, 72, 64
13, 40308, Note_on_c, 4, 69, 76
13, 40594, Note_off_c, 4, 69, 64
13, 40666, Note_on_c, 4, 72, 63
13, 40738, Note_off_c, 4, 72, 64
13, 40778, Note_on_c, 4, 71, 78
13, 40894, Note_off_c, 4, 71, 64
13, 41030, Note_on_c, 4, 72, 76
13, 41311, Note_off_c, 4, 72, 64
13, 41388, Note_on_c, 4, 76, 80
13, 41458, Note_off_c, 4, 76, 64
13, 41497, Note_on_c, 4, 74, 87
13, 41597, Note_off_c, 4, 74, 64
13, 41760, Note_on_c, 4, 71, 85
13, 42061, Note_off_c, 4, 71, 64
13, 42114, Note_on_c, 4, 74, 72
13, 42190, Note_off_c, 4, 74, 64
13, 42228, Note_on_c, 4, 72, 80
13, 42342, Note_off_c, 4, 72, 64
13, 42479, Note_on_c, 4, 74, 85
13, 42748, Note_off_c, 4, 74, 64
13, 42819, Note_on_c, 4, 77, 68
13, 42878, Note_off_c, 4, 77, 64
13, 42930, Note_on_c, 4, 76, 87
13, 43035, Note_off_c, 4, 76, 64
13, 43196, Note_on_c, 4, 72, 93
13, 43471, Note_off_c, 4, 72, 64
13, 43560, Note_on_c, 4, 77, 85
13, 43619, Note_off_c, 4, 77, 64
13, 43676, Note_on_c, 4, 81, 98
13, 44208, Note_off_c, 4, 81, 64
13, 44278, Note_on_c, 4, 79, 80
13, 44338, Note_off_c, 4, 79, 64
13, 44383, Note_on_c, 4, 77, 80
13, 44473, Note_off_c, 4, 77, 64
13, 44621, Note_on_c, 4, 76, 80
13, 44926, Note_off_c, 4, 76, 64
13, 44962, Note_on_c, 4, 77, 76
13, 45028, Note_off_c, 4, 77, 64
13, 45079, Note_on_c, 4, 79, 80
13, 45171, Note_off_c, 4, 79, 64
13, 45349, Note_on_c, 4, 67, 68
13, 45644, Note_off_c, 4, 67, 64
13, 45707, Note_on_c, 4, 69, 64
13, 45762, Note_off_c, 4, 69, 64
13, 45809, Note_on_c, 4, 71, 70
13, 45900, Note_off_c, 4, 71, 64
13, 46073, Note_on_c, 4, 72, 64
13, 46394, Note_off_c, 4, 72, 64
13, 46548, Note_on_c, 4, 72, 68
13, 46624, Note_off_c, 4, 72, 64
13, 46790, Note_on_c, 4, 72, 66
13, 47098, Note_off_c, 4, 72, 64
13, 47098, End_track
14, 0, Start_track
14, 0, Title_t, "Oboe2"
14, 0, Program_c, 5, 68
14, 0, Control_c, 5, 7, 100
14, 24245, Note_on_c, 5, 74, 80
14, 24314, Note_off_c, 5, 74, 64
14, 24482, Note_on_c, 5, 71, 58
14, 24774, Note_off_c, 5, 71, 64
14, 24926, Note_on_c, 5, 71, 58
14, 25023, Note_off_c, 5, 71, 64
14, 25183, Note_on_c, 5, 71, 58
14, 25468, Note_off_c, 5, 71, 64
14, 25529, Note_on_c, 5, 69, 57
14, 25598, Note_off_c, 5, 69, 64
14, 25658, Note_on_c, 5, 67, 58
14, 25745, Note_off_c, 5, 67, 64
14, 25892, Note_on_c, 5, 77, 60
14, 26199, Note_off_c, 5, 77, 64
14, 26253, Note_on_c, 5, 76, 66
14, 26320, Note_off_c, 5, 76, 64
14, 26369, Note_on_c, 5, 74, 61
14, 26486, Note_off_c, 5, 74, 64
14, 26617, Note_on_c, 5, 83, 60
14, 26899, Note_off_c, 5, 83, 64
14, 26991, Note_on_c, 5, 74, 66
14, 27048, Note_off_c, 5, 74, 64
14, 27112, Note_on_c, 5, 77, 72
14, 27198, Note_off_c, 5, 77, 64
14, 27352, Note_on_c, 5, 76, 72
14, 27614, Note_off_c, 5, 76, 64
14, 27677, Note_on_c, 5, 74, 64
14, 27767, Note_off_c, 5, 74, 64
14, 27803, Note_on_c, 5, 72, 66
14, 27900, Note_off_c, 5, 72, 64
14, 28055, Note_on_c, 5, 71, 57
14, 28335, Note_off_c, 5, 71, 64
14, 28423, Note_on_c, 5, 76, 66
14, 28480, Note_off_c, 5, 76, 64
14, 28542, Note_on_c, 5, 74, 64
14, 28620, Note_off_c, 5, 74, 64
14, 28790, Note_on_c, 5, 72, 55
14, 29118, Note_off_c, 5, 72, 64
14, 29253, Note_on_c, 5, 69, 58
14, 29341, Note_off_c, 5, 69, 64
14, 29509, Note_on_c, 5, 69, 61
14, 29783, Note_off_c, 5, 69, 64
14, 29854, Note_on_c, 5, 71, 57
14, 29928, Note_off_c, 5, 71, 64
14, 29966, Note_on_c, 5, 72, 80
14, 30036, Note_off_c, 5, 72, 64
14, 30079, Note_on_c, 5, 74, 70
14, 30137, Note_off_c, 5, 74, 64
14, 30210, Note_on_c, 5, 76, 78
14, 30530, Note_off_c, 5, 76, 64
14, 30705, Note_on_c, 5, 76, 60
14, 30800, Note_off_c, 5, 76, 64
14, 30951, Note_on_c, 5, 76, 62
14, 31217, Note_off_c, 5, 76, 64
14, 31319, Note_on_c, 5, 82, 66
14, 31392, Note_off_c, 5, 82, 64
14, 31430, Note_on_c, 5, 79, 82
14, 31528, Note_off_c, 5, 79, 64
14, 31663, Note_on_c, 5, 76, 70
14, 31950, Note_off_c, 5, 76, 64
14, 32021, Note_on_c, 5, 79, 68
14, 32095, Note_off_c, 5, 79, 64
14, 32137, Note_on_c, 5, 76, 68
14, 32237, Note_off_c, 5, 76, 64
14, 32387, Note_on_c, 5, 73, 63
14, 32662, Note_off_c, 5, 73, 64
14, 32757, Note_on_c, 5, 76, 61
14, 32816, Note_off_c, 5, 76, 64
14, 32868, Note_on_c, 5, 73, 57
14, 32947, Note_off_c, 5, 73, 64
14, 33100, Note_on_c, 5, 69, 53
14, 33370, Note_off_c, 5, 69, 64
14, 33457, Note_on_c, 5, 81, 78
14, 33531, Note_off_c, 5, 81, 64
14, 33578, Note_on_c, 5, 77, 64
14, 33666, Note_off_c, 5, 77, 64
14, 33818, Note_on_c, 5, 74, 74
14, 34089, Note_off_c, 5, 74, 64
14, 34177, Note_on_c, 5, 76, 62
14, 34236, Note_off_c, 5, 76, 64
14, 34304, Note_on_c, 5, 73, 60
14, 34395, Note_off_c, 5, 73, 64
14, 34540, Note_on_c, 5, 74, 58
14, 34860, Note_off_c, 5, 74, 64
14, 35029, Note_on_c, 5, 74, 70
14, 35111, Note_off_c, 5, 74, 64
14, 35276, Note_on_c, 5, 74, 59
14, 35510, Note_off_c, 5, 74, 64
14, 35755, Note_on_c, 5, 77, 76
14, 35845, Note_off_c, 5, 77, 64
14, 36000, Note_on_c, 5, 77, 80
14, 36961, Note_off_c, 5, 77, 64
14, 37060, Note_on_c, 5, 74, 66
14, 37120, Note_off_c, 5, 74, 64
14, 37167, Note_on_c, 5, 76, 76
14, 37243, Note_off_c, 5, 76, 64
14, 37428, Note_on_c, 5, 77, 68
14, 37772, Note_off_c, 5, 77, 64
14, 37894, Note_on_c, 5, 67, 61
14, 37993, Note_off_c, 5, 67, 64
14, 38147, Note_on_c, 5, 67, 58
14, 38423, Note_off_c, 5, 67, 64
14, 38520, Note_on_c, 5, 70, 62
14, 38596, Note_off_c, 5, 70, 64
14, 38634, Note_on_c, 5, 69, 66
14, 38731, Note_off_c, 5, 69, 64
14, 38870, Note_on_c, 5, 70, 55
14, 39830, Note_off_c, 5, 70, 64
14, 39939, Note_on_c, 5, 74, 80
14, 40006, Note_off_c, 5, 74, 64
14, 40060, Note_on_c, 5, 72, 78
14, 40156, Note_off_c, 5, 72, 64
14, 40301, Note_on_c, 5, 69, 68
14, 40575, Note_off_c, 5, 69, 64
14, 40670, Note_on_c, 5, 72, 58
14, 40733, Note_off_c, 5, 72, 64
14, 40787, Note_on_c, 5, 71, 68
14, 40899, Note_off_c, 5, 71, 64
14, 41039, Note_on_c, 5, 72, 68
14, 41304, Note_off_c, 5, 72, 64
14, 41394, Note_on_c, 5, 76, 76
14, 41461, Note_off_c, 5, 76, 64
14, 41501, Note_on_c, 5, 74, 82
14, 41589, Note_off_c, 5, 74, 64
14, 41755, Note_on_c, 5, 71, 72
14, 42044, Note_off_c, 5, 71, 64
14, 42129, Note_on_c, 5, 74, 66
14, 42195, Note_off_c, 5, 74, 64
14, 42235, Note_on_c, 5, 72, 78
14, 42337, Note_off_c, 5, 72, 64
14, 42484, Note_on_c, 5, 74, 74
14, 42745, Note_off_c, 5, 74, 64
14, 42836, Note_on_c, 5, 77, 68
14, 42912, Note_off_c, 5, 77, 64
14, 42942, Note_on_c, 5, 76, 85
14, 43025, Note_off_c, 5, 76, 64
14, 43191, Note_on_c, 5, 72, 76
14, 43493, Note_off_c, 5, 72, 64
14, 43548, Note_on_c, 5, 77, 72
14, 43605, Note_off_c, 5, 77, 64
14, 43659, Note_on_c, 5, 81, 85
14, 44231, Note_off_c, 5, 81, 64
14, 44283, Note_on_c, 5, 79, 64
14, 44347, Note_off_c, 5, 79, 64
14, 44392, Note_on_c, 5, 77, 70
14, 44504, Note_off_c, 5, 77, 64
14, 44623, Note_on_c, 5, 76, 72
14, 44919, Note_off_c, 5, 76, 64
14, 44953, Note_on_c, 5, 77, 64
14, 45017, Note_off_c, 5, 77, 64
14, 45076, Note_on_c, 5, 79, 72
14, 45168, Note_off_c, 5, 79, 64
14, 45344, Note_on_c, 5, 67, 63
14, 45651, Note_off_c, 5, 67, 64
14, 45714, Note_on_c, 5, 69, 59
14, 45765, Note_off_c, 5, 69, 64
14, 45824, Note_on_c, 5, 71, 63
14, 45913, Note_off_c, 5, 71, 64
14, 46071, Note_on_c, 5, 72, 55
14, 46381, Note_off_c, 5, 72, 64
14, 46531, Note_on_c, 5, 72, 63
14, 46600, Note_off_c, 5, 72, 64
14, 46775, Note_on_c, 5, 72, 59
14, 47061, Note_off_c, 5, 72, 64
14, 47061, End_track
15, 0, Start_track
15, 0, Title_t, "Bassoon"
15, 0, Program_c, 6, 70
15, 0, Control_c, 6, 7, 100
15, 24957, Note_on_c, 6, 43, 68
15, 25052, Note_off_c, 6, 43, 64
15, 25200, Note_on_c, 6, 55, 52
15, 25579, Note_off_c, 6, 55, 64
15, 26393, Note_on_c, 6, 44, 64
15, 26484, Note_off_c, 6, 44, 64
15, 26635, Note_on_c, 6, 56, 62
15, 27003, Note_off_c, 6, 56, 64
15, 27798, Note_on_c, 6, 40, 70
15, 27898, Note_off_c, 6, 40, 64
15, 28070, Note_on_c, 6, 52, 59
15, 28430, Note_off_c, 6, 52, 64
15, 29265, Note_on_c, 6, 45, 66
15, 29374, Note_off_c, 6, 45, 64
15, 29520, Note_on_c, 6, 57, 63
15, 29882, Note_off_c, 6, 57, 64
15, 30683, Note_on_c, 6, 43, 70
15, 30789, Note_off_c, 6, 43, 64
15, 30955, Note_on_c, 6, 55, 61
15, 31319, Note_off_c, 6, 55, 64
15, 32126, Note_on_c, 6, 43, 70
15, 32230, Note_off_c, 6, 43, 64
15, 32406, Note_on_c, 6, 55, 70
15, 32782, Note_off_c, 6, 55, 64
15, 33445, Note_on_c, 6, 53, 70
15, 33516, Note_off_c, 6, 53, 64
15, 33557, Note_on_c, 6, 50, 68
15, 33640, Note_off_c, 6, 50, 64
15, 33823, Note_on_c, 6, 57, 78
15, 34127, Note_off_c, 6, 57, 64
15, 34295, Note_on_c, 6, 45, 68
15, 34388, Note_off_c, 6, 45, 64
15, 34552, Note_on_c, 6, 50, 63
15, 34848, Note_off_c, 6, 50, 64
15, 35000, Note_on_c, 6, 38, 82
15, 35097, Note_off_c, 6, 38, 64
15, 35270, Note_on_c, 6, 50, 64
15, 35605, Note_off_c, 6, 50, 64
15, 36344, Note_on_c, 6, 62, 72
15, 36427, Note_off_c, 6, 62, 64
15, 36457, Note_on_c, 6, 60, 82
15, 36566, Note_off_c, 6, 60, 64
15, 36704, Note_on_c, 6, 59, 66
15, 36991, Note_off_c, 6, 59, 64
15, 37039, Note_on_c, 6, 60, 66
15, 37098, Note_off_c, 6, 60, 64
15, 37160, Note_on_c, 6, 57, 76
15, 37262, Note_off_c, 6, 57, 64
15, 37416, Note_on_c, 6, 55, 72
15, 37720, Note_off_c, 6, 55, 64
15, 37773, Note_on_c, 6, 57, 60
15, 37830, Note_off_c, 6, 57, 64
15, 37900, Note_on_c, 6, 53, 60
15, 38000, Note_off_c, 6, 53, 64
15, 38147, Note_on_c, 6, 52, 72
15, 38423, Note_off_c, 6, 52, 64
15, 38491, Note_on_c, 6, 53, 62
15, 38554, Note_off_c, 6, 53, 64
15, 38610, Note_on_c, 6, 50, 61
15, 38691, Note_off_c, 6, 50, 64
15, 38857, Note_on_c, 6, 48, 66
15, 39121, Note_off_c, 6, 48, 64
15, 39208, Note_on_c, 6, 50, 66
15, 39279, Note_off_c, 6, 50, 64
15, 39327, Note_on_c, 6, 46, 61
15, 39421, Note_off_c, 6, 46, 64
15, 39562, Note_on_c, 6, 45, 61
15, 39837, Note_off_c, 6, 45, 64
15, 39894, Note_on_c, 6, 46, 58
15, 39978, Note_off_c, 6, 46, 64
15, 40016, Note_on_c, 6, 43, 64
15, 40118, Note_off_c, 6, 43, 64
15, 40303, Note_on_c, 6, 41, 68
15, 40573, Note_off_c, 6, 41, 64
15, 40640, Note_on_c, 6, 52, 66
15, 40732, Note_off_c, 6, 52, 64
15, 40765, Note_on_c, 6, 50, 66
15, 40898, Note_off_c, 6, 50, 64
15, 41017, Note_on_c, 6, 52, 78
15, 41280, Note_off_c, 6, 52, 64
15, 41369, Note_on_c, 6, 55, 70
15, 41443, Note_off_c, 6, 55, 64
15, 41483, Note_on_c, 6, 54, 78
15, 41603, Note_off_c, 6, 54, 64
15, 41736, Note_on_c, 6, 55, 68
15, 42034, Note_off_c, 6, 55, 64
15, 42092, Note_on_c, 6, 53, 62
15, 42163, Note_off_c, 6, 53, 64
15, 42209, Note_on_c, 6, 52, 80
15, 42335, Note_off_c, 6, 52, 64
15, 42455, Note_on_c, 6, 54, 64
15, 42738, Note_off_c, 6, 54, 64
15, 42821, Note_on_c, 6, 57, 66
15, 42885, Note_off_c, 6, 57, 64
15, 42938, Note_on_c, 6, 56, 76
15, 43030, Note_off_c, 6, 56, 64
15, 43179, Note_on_c, 6, 57, 78
15, 43522, Note_off_c, 6, 57, 64
15, 43635, Note_on_c, 6, 53, 68
15, 43738, Note_off_c, 6, 53, 64
15, 43901, Note_on_c, 6, 47, 87
15, 44215, Note_off_c, 6, 47, 64
15, 44378, Note_on_c, 6, 55, 82
15, 44461, Note_off_c, 6, 55, 64
15, 44630, Note_on_c, 6, 48, 80
15, 44898, Note_off_c, 6, 48, 64
15, 44967, Note_on_c, 6, 50, 66
15, 45043, Note_off_c, 6, 50, 64
15, 45071, Note_on_c, 6, 52, 80
15, 45147, Note_off_c, 6, 52, 64
15, 45188, Note_on_c, 6, 53, 82
15, 45263, Note_off_c, 6, 53, 64
15, 45320, Note_on_c, 6, 55, 72
15, 45615, Note_off_c, 6, 55, 64
15, 45814, Note_on_c, 6, 43, 70
15, 45919, Note_off_c, 6, 43, 64
15, 46076, Note_on_c, 6, 48, 53
15, 46368, Note_off_c, 6, 48, 64
15, 46538, Note_on_c, 6, 36, 64
15, 46652, Note_off_c, 6, 36, 64
15, 46788, Note_on_c, 6, 48, 58
15, 47103, Note_off_c, 6, 48, 64
15, 47103, End_track
0, 0, End_of_file
