0, 0, Header, 1, 17, 480
1, 0, Start_track
1, 0, Title_t, "untitled"
1, 0, SMPTE_offset, 96, 0, 3, 0, 0
1, 0, Time_signature, 3, 2, 24, 8
1, 0, Key_signature, 0, "major"
1, 0, Tempo, 857143
1, 0, End_track
2, 0, Start_track
2, 0, MIDI_port, 0
2, 0, Title_t, "Solo Flute"
2, 0, Program_c, 0, 73
2, 0, Control_c, 0, 7, 100
2, 0, Control_c, 0, 10, 64
2, 0, Note_on_c, 0, 69, 100
2, 240, Note_on_c, 0, 69, 0
2, 240, Note_on_c, 0, 71, 100
2, 480, Note_on_c, 0, 71, 0
2, 480, Note_on_c, 0, 72, 100
2, 720, Note_on_c, 0, 72, 0
2, 720, Note_on_c, 0, 76, 100
2, 960, Note_on_c, 0, 76, 0
2, 960, Note_on_c, 0, 68, 100
2, 1200, Note_on_c, 0, 68, 0
2, 1200, Note_on_c, 0, 69, 100
2, 1440, Note_on_c, 0, 69, 0
2, 1440, Note_on_c, 0, 65, 100
2, 2400, Note_on_c, 0, 65, 0
2, 2400, Note_on_c, 0, 64, 100
2, 2640, Note_on_c, 0, 64, 0
2, 2640, Note_on_c, 0, 66, 100
2, 2880, Note_on_c, 0, 66, 0
2, 2880, Note_on_c, 0, 68, 100
2, 3120, Note_on_c, 0, 68, 0
2, 3120, Note_on_c, 0, 69, 100
2, 3360, Note_on_c, 0, 69, 0
2, 3360, Note_on_c, 0, 71, 100
2, 3600, Note_on_c, 0, 71, 0
2, 3600, Note_on_c, 0, 74, 100
2, 3840, Note_on_c, 0, 74, 0
2, 3840, Note_on_c, 0, 77, 100
2, 4080, Note_on_c, 0, 77, 0
2, 4080, Note_on_c, 0, 76, 100
2, 4320, Note_on_c, 0, 76, 0
2, 4320, Note_on_c, 0, 74, 100
2, 4560, Note_on_c, 0, 74, 0
2, 4560, Note_on_c, 0, 71, 100
2, 4800, Note_on_c, 0, 71, 0
2, 4800, Note_on_c, 0, 72, 100
2, 5040, Note_on_c, 0, 72, 0
2, 5040, Note_on_c, 0, 69, 100
2, 5280, Note_on_c, 0, 69, 0
2, 5280, Note_on_c, 0, 71, 100
2, 5760, Note_on_c, 0, 71, 0
2, 5760, Note_on_c, 0, 69, 100
2, 6000, Note_on_c, 0, 69, 0
2, 6000, Note_on_c, 0, 71, 100
2, 6240, Note_on_c, 0, 71, 0
2, 6240, Note_on_c, 0, 72, 100
2, 6480, Note_on_c, 0, 72, 0
2, 6480, Note_on_c, 0, 76, 100
2, 6720, Note_on_c, 0, 76, 0
2, 6720, Note_on_c, 0, 68, 100
2, 6960, Note_on_c, 0, 68, 0
2, 6960, Note_on_c, 0, 69, 100
2, 7200, Note_on_c, 0, 69, 0
2, 7200, Note_on_c, 0, 77, 100
2, 7680, Note_on_c, 0, 77, 0
2, 7680, Note_on_c, 0, 76, 100
2, 7680, Pitch_bend_c, 0, 12288
2, 7720, Pitch_bend_c, 0, 8192
2, 7760, Pitch_bend_c, 0, 12288
2, 7800, Pitch_bend_c, 0, 8192
2, 8160, Note_on_c, 0, 76, 0
2, 8160, Note_on_c, 0, 74, 100
2, 8640, Note_on_c, 0, 74, 0
2, 8640, Note_on_c, 0, 67, 100
2, 8880, Note_on_c, 0, 67, 0
2, 8880, Note_on_c, 0, 69, 100
2, 9120, Note_on_c, 0, 69, 0
2, 9120, Note_on_c, 0, 71, 100
2, 9360, Note_on_c, 0, 71, 0
2, 9360, Note_on_c, 0, 74, 100
2, 9600, Note_on_c, 0, 74, 0
2, 9600, Note_on_c, 0, 66, 100
2, 9840, Note_on_c, 0, 66, 0
2, 9840, Note_on_c, 0, 67, 100
2, 10080, Note_on_c, 0, 67, 0
2, 10080, Note_on_c, 0, 76, 100
2, 10560, Note_on_c, 0, 76, 0
2, 10560, Pitch_bend_c, 0, 16383
2, 10560, Note_on_c, 0, 74, 85
2, 10600, Pitch_bend_c, 0, 8192
2, 10640, Pitch_bend_c, 0, 16383
2, 10680, Pitch_bend_c, 0, 8192
2, 11040, Note_on_c, 0, 74, 0
2, 11040, Note_on_c, 0, 72, 100
2, 11280, Note_on_c, 0, 72, 0
2, 11280, Note_on_c, 0, 76, 100
2, 11520, Note_on_c, 0, 76, 0
2, 11520, Note_on_c, 0, 79, 100
2, 11760, Note_on_c, 0, 79, 0
2, 11760, Note_on_c, 0, 76, 100
2, 12000, Note_on_c, 0, 76, 0
2, 12000, Note_on_c, 0, 74, 100
2, 12240, Note_on_c, 0, 74, 0
2, 12240, Note_on_c, 0, 72, 100
2, 12480, Note_on_c, 0, 72, 0
2, 12480, Note_on_c, 0, 71, 100
2, 12720, Note_on_c, 0, 71, 0
2, 12720, Note_on_c, 0, 72, 100
2, 12960, Note_on_c, 0, 72, 0
2, 12960, Note_on_c, 0, 67, 100
2, 13680, Note_on_c, 0, 67, 0
2, 13680, Note_on_c, 0, 69, 100
2, 13800, Note_on_c, 0, 69, 0
2, 13800, Note_on_c, 0, 71, 100
2, 13920, Note_on_c, 0, 71, 0
2, 13920, Note_on_c, 0, 72, 100
2, 14040, Note_on_c, 0, 72, 0
2, 14040, Note_on_c, 0, 74, 100
2, 14160, Note_on_c, 0, 74, 0
2, 14160, Note_on_c, 0, 76, 100
2, 14280, Note_on_c, 0, 76, 0
2, 14280, Note_on_c, 0, 77, 100
2, 14400, Note_on_c, 0, 77, 0
2, 14400, Note_on_c, 0, 79, 100
2, 14520, Note_on_c, 0, 79, 0
2, 14520, Note_on_c, 0, 77, 100
2, 14640, Note_on_c, 0, 77, 0
2, 14640, Note_on_c, 0, 76, 100
2, 14760, Note_on_c, 0, 76, 0
2, 14760, Note_on_c, 0, 79, 100
2, 14880, Note_on_c, 0, 79, 0
2, 14880, Note_on_c, 0, 77, 100
2, 15000, Note_on_c, 0, 77, 0
2, 15000, Note_on_c, 0, 76, 100
2, 15120, Note_on_c, 0, 76, 0
2, 15120, Note_on_c, 0, 74, 100
2, 15240, Note_on_c, 0, 74, 0
2, 15240, Note_on_c, 0, 77, 100
2, 15360, Note_on_c, 0, 77, 0
2, 15360, Note_on_c, 0, 76, 100
2, 15480, Note_on_c, 0, 76, 0
2, 15480, Note_on_c, 0, 74, 100
2, 15600, Note_on_c, 0, 74, 0
2, 15600, Note_on_c, 0, 72, 100
2, 15720, Note_on_c, 0, 72, 0
2, 15720, Note_on_c, 0, 76, 100
2, 15840, Note_on_c, 0, 76, 0
2, 15840, Note_on_c, 0, 69, 100
2, 16560, Note_on_c, 0, 69, 0
2, 16560, Note_on_c, 0, 71, 100
2, 16680, Note_on_c, 0, 71, 0
2, 16680, Note_on_c, 0, 72, 100
2, 16800, Note_on_c, 0, 72, 0
2, 16800, Note_on_c, 0, 74, 100
2, 16920, Note_on_c, 0, 74, 0
2, 16920, Note_on_c, 0, 76, 100
2, 17040, Note_on_c, 0, 76, 0
2, 17040, Note_on_c, 0, 77, 100
2, 17160, Note_on_c, 0, 77, 0
2, 17160, Note_on_c, 0, 79, 100
2, 17280, Note_on_c, 0, 79, 0
2, 17280, Note_on_c, 0, 81, 100
2, 17400, Note_on_c, 0, 81, 0
2, 17400, Note_on_c, 0, 79, 100
2, 17520, Note_on_c, 0, 79, 0
2, 17520, Note_on_c, 0, 77, 100
2, 17640, Note_on_c, 0, 77, 0
2, 17640, Note_on_c, 0, 81, 100
2, 17760, Note_on_c, 0, 81, 0
2, 17760, Note_on_c, 0, 79, 100
2, 17880, Note_on_c, 0, 79, 0
2, 17880, Note_on_c, 0, 77, 100
2, 18000, Note_on_c, 0, 77, 0
2, 18000, Note_on_c, 0, 76, 100
2, 18120, Note_on_c, 0, 76, 0
2, 18120, Note_on_c, 0, 79, 100
2, 18240, Note_on_c, 0, 79, 0
2, 18240, Note_on_c, 0, 77, 100
2, 18360, Note_on_c, 0, 77, 0
2, 18360, Note_on_c, 0, 76, 100
2, 18480, Note_on_c, 0, 76, 0
2, 18480, Note_on_c, 0, 74, 100
2, 18600, Note_on_c, 0, 74, 0
2, 18600, Note_on_c, 0, 77, 100
2, 18720, Note_on_c, 0, 77, 0
2, 18720, Note_on_c, 0, 83, 100
2, 18960, Note_on_c, 0, 83, 0
2, 18960, Note_on_c, 0, 84, 100
2, 19080, Note_on_c, 0, 84, 0
2, 19080, Note_on_c, 0, 86, 100
2, 19200, Note_on_c, 0, 86, 0
2, 19200, Note_on_c, 0, 84, 100
2, 19320, Note_on_c, 0, 84, 0
2, 19320, Note_on_c, 0, 83, 100
2, 19440, Note_on_c, 0, 83, 0
2, 19440, Note_on_c, 0, 81, 100
2, 19560, Note_on_c, 0, 81, 0
2, 19560, Note_on_c, 0, 79, 100
2, 19680, Note_on_c, 0, 79, 0
2, 19680, Note_on_c, 0, 77, 100
2, 19800, Note_on_c, 0, 77, 0
2, 19800, Note_on_c, 0, 76, 100
2, 19920, Note_on_c, 0, 76, 0
2, 19920, Note_on_c, 0, 77, 100
2, 20040, Note_on_c, 0, 77, 0
2, 20040, Note_on_c, 0, 71, 100
2, 20160, Note_on_c, 0, 71, 0
2, 20160, Note_on_c, 0, 76, 100
2, 20400, Note_on_c, 0, 76, 0
2, 20400, Note_on_c, 0, 74, 100
2, 20520, Note_on_c, 0, 74, 0
2, 20520, Note_on_c, 0, 72, 100
2, 20640, Note_on_c, 0, 72, 0
2, 20640, Note_on_c, 0, 79, 100
2, 20880, Note_on_c, 0, 79, 0
2, 20880, Note_on_c, 0, 81, 100
2, 21120, Note_on_c, 0, 81, 0
2, 21120, Pitch_bend_c, 0, 8192
2, 21120, Note_on_c, 0, 76, 100
2, 21160, Pitch_bend_c, 0, 12288
2, 21200, Pitch_bend_c, 0, 8192
2, 21360, Note_on_c, 0, 76, 0
2, 21360, Note_on_c, 0, 74, 100
2, 21480, Note_on_c, 0, 74, 0
2, 21480, Note_on_c, 0, 72, 100
2, 21600, Note_on_c, 0, 72, 0
2, 21600, Note_on_c, 0, 72, 100
2, 22560, Note_on_c, 0, 72, 0
2, 23040, Note_on_c, 0, 76, 100
2, 23280, Note_on_c, 0, 76, 0
2, 23280, Note_on_c, 0, 72, 100
2, 23520, Note_on_c, 0, 72, 0
2, 23520, Note_on_c, 0, 71, 100
2, 23760, Note_on_c, 0, 71, 0
2, 23760, Note_on_c, 0, 72, 100
2, 24000, Note_on_c, 0, 72, 0
2, 24000, Note_on_c, 0, 81, 100
2, 24240, Note_on_c, 0, 81, 0
2, 24240, Note_on_c, 0, 79, 100
2, 24480, Note_on_c, 0, 79, 0
2, 24480, Note_on_c, 0, 76, 100
2, 25440, Note_on_c, 0, 76, 0
2, 25440, Note_on_c, 0, 74, 100
2, 25680, Note_on_c, 0, 74, 0
2, 25680, Note_on_c, 0, 76, 100
2, 25920, Note_on_c, 0, 76, 0
2, 25920, Note_on_c, 0, 77, 100
2, 26160, Note_on_c, 0, 77, 0
2, 26160, Note_on_c, 0, 74, 100
2, 26400, Note_on_c, 0, 74, 0
2, 26400, Note_on_c, 0, 68, 100
2, 26640, Note_on_c, 0, 68, 0
2, 26640, Note_on_c, 0, 76, 100
2, 26880, Note_on_c, 0, 76, 0
2, 26880, Note_on_c, 0, 83, 100
2, 27120, Note_on_c, 0, 83, 0
2, 27120, Note_on_c, 0, 74, 100
2, 27360, Note_on_c, 0, 74, 0
2, 27360, Note_on_c, 0, 72, 100
2, 27840, Note_on_c, 0, 72, 0
2, 27840, Note_on_c, 0, 71, 100
2, 28080, Note_on_c, 0, 71, 0
2, 28080, Note_on_c, 0, 72, 100
2, 28320, Note_on_c, 0, 72, 0
2, 28320, Note_on_c, 0, 69, 100
2, 28800, Note_on_c, 0, 69, 0
2, 28800, Note_on_c, 0, 81, 100
2, 29040, Note_on_c, 0, 81, 0
2, 29040, Note_on_c, 0, 79, 100
2, 29160, Note_on_c, 0, 79, 0
2, 29160, Note_on_c, 0, 77, 100
2, 29280, Note_on_c, 0, 77, 0
2, 29280, Note_on_c, 0, 76, 100
2, 29520, Note_on_c, 0, 76, 0
2, 29520, Note_on_c, 0, 74, 100
2, 29760, Note_on_c, 0, 74, 0
2, 29760, Note_on_c, 0, 73, 100
2, 30000, Note_on_c, 0, 73, 0
2, 30000, Note_on_c, 0, 74, 100
2, 30240, Note_on_c, 0, 74, 0
2, 30240, Note_on_c, 0, 82, 100
2, 30480, Note_on_c, 0, 82, 0
2, 30480, Note_on_c, 0, 81, 100
2, 30600, Note_on_c, 0, 81, 0
2, 30600, Note_on_c, 0, 79, 100
2, 30720, Note_on_c, 0, 79, 0
2, 30720, Note_on_c, 0, 77, 100
2, 30960, Note_on_c, 0, 77, 0
2, 30960, Note_on_c, 0, 76, 100
2, 31200, Note_on_c, 0, 76, 0
2, 31200, Note_on_c, 0, 81, 100
2, 31440, Note_on_c, 0, 81, 0
2, 31440, Note_on_c, 0, 69, 100
2, 31680, Note_on_c, 0, 69, 0
2, 31680, Note_on_c, 0, 65, 100
2, 31800, Note_on_c, 0, 65, 0
2, 31800, Note_on_c, 0, 81, 100
2, 31920, Note_on_c, 0, 81, 0
2, 31920, Note_on_c, 0, 79, 100
2, 32040, Note_on_c, 0, 79, 0
2, 32040, Note_on_c, 0, 77, 100
2, 32160, Note_on_c, 0, 77, 0
2, 32160, Note_on_c, 0, 76, 100
2, 32400, Note_on_c, 0, 76, 0
2, 32400, Note_on_c, 0, 74, 100
2, 32640, Note_on_c, 0, 74, 0
2, 32640, Note_on_c, 0, 73, 100
2, 32880, Note_on_c, 0, 73, 0
2, 32880, Note_on_c, 0, 74, 100
2, 33120, Note_on_c, 0, 74, 0
2, 33120, Note_on_c, 0, 67, 100
2, 33360, Note_on_c, 0, 67, 0
2, 33360, Note_on_c, 0, 82, 100
2, 33480, Note_on_c, 0, 82, 0
2, 33480, Note_on_c, 0, 81, 100
2, 33600, Note_on_c, 0, 81, 0
2, 33600, Note_on_c, 0, 79, 100
2, 33840, Note_on_c, 0, 79, 0
2, 33840, Note_on_c, 0, 77, 100
2, 33960, Note_on_c, 0, 77, 0
2, 33960, Note_on_c, 0, 76, 100
2, 34080, Note_on_c, 0, 76, 0
2, 34080, Note_on_c, 0, 85, 100
2, 34320, Note_on_c, 0, 85, 0
2, 34320, Note_on_c, 0, 83, 100
2, 34440, Note_on_c, 0, 83, 0
2, 34440, Note_on_c, 0, 85, 100
2, 34560, Note_on_c, 0, 85, 0
2, 34560, Note_on_c, 0, 86, 100
2, 34800, Note_on_c, 0, 86, 0
2, 34800, Note_on_c, 0, 74, 100
2, 34920, Note_on_c, 0, 74, 0
2, 34920, Note_on_c, 0, 76, 100
2, 35040, Note_on_c, 0, 76, 0
2, 35040, Note_on_c, 0, 77, 100
2, 35280, Note_on_c, 0, 77, 0
2, 35280, Note_on_c, 0, 81, 100
2, 35520, Note_on_c, 0, 81, 0
2, 35520, Note_on_c, 0, 79, 100
2, 35640, Note_on_c, 0, 79, 0
2, 35640, Note_on_c, 0, 77, 100
2, 35760, Note_on_c, 0, 77, 0
2, 35760, Note_on_c, 0, 76, 100
2, 35880, Note_on_c, 0, 76, 0
2, 35880, Note_on_c, 0, 77, 100
2, 36000, Note_on_c, 0, 77, 0
2, 36000, Note_on_c, 0, 74, 100
2, 36240, Note_on_c, 0, 74, 0
2, 36240, Note_on_c, 0, 69, 100
2, 36480, Note_on_c, 0, 69, 0
2, 36480, Note_on_c, 0, 65, 100
2, 36720, Note_on_c, 0, 65, 0
2, 36720, Note_on_c, 0, 62, 100
2, 36960, Note_on_c, 0, 62, 0
2, 36960, Note_on_c, 0, 65, 100
2, 37200, Note_on_c, 0, 65, 0
2, 37200, Note_on_c, 0, 69, 100
2, 37440, Note_on_c, 0, 69, 0
2, 37440, Note_on_c, 0, 71, 100
2, 37680, Note_on_c, 0, 71, 0
2, 37680, Note_on_c, 0, 72, 100
2, 37920, Note_on_c, 0, 72, 0
2, 37920, Note_on_c, 0, 74, 100
2, 38160, Note_on_c, 0, 74, 0
2, 38160, Note_on_c, 0, 77, 100
2, 38400, Note_on_c, 0, 77, 0
2, 38400, Note_on_c, 0, 81, 100
2, 38640, Note_on_c, 0, 81, 0
2, 38640, Note_on_c, 0, 79, 100
2, 38880, Note_on_c, 0, 79, 0
2, 38880, Note_on_c, 0, 77, 100
2, 39120, Note_on_c, 0, 77, 0
2, 39120, Note_on_c, 0, 76, 100
2, 39360, Note_on_c, 0, 76, 0
2, 39360, Note_on_c, 0, 74, 100
2, 39600, Note_on_c, 0, 74, 0
2, 39600, Note_on_c, 0, 72, 100
2, 39840, Note_on_c, 0, 72, 0
2, 39840, Note_on_c, 0, 80, 100
2, 40080, Note_on_c, 0, 80, 0
2, 40080, Note_on_c, 0, 81, 100
2, 40320, Note_on_c, 0, 81, 0
2, 40320, Note_on_c, 0, 68, 100
2, 40560, Note_on_c, 0, 68, 0
2, 40560, Note_on_c, 0, 69, 100
2, 40800, Note_on_c, 0, 69, 0
2, 40800, Note_on_c, 0, 71, 100
2, 41040, Note_on_c, 0, 71, 0
2, 41040, Note_on_c, 0, 72, 100
2, 41280, Note_on_c, 0, 72, 0
2, 41280, Note_on_c, 0, 77, 100
2, 41520, Note_on_c, 0, 77, 0
2, 41520, Note_on_c, 0, 76, 100
2, 41760, Note_on_c, 0, 76, 0
2, 41760, Note_on_c, 0, 74, 100
2, 42000, Note_on_c, 0, 74, 0
2, 42000, Note_on_c, 0, 72, 100
2, 42240, Note_on_c, 0, 72, 0
2, 42240, Note_on_c, 0, 71, 100
2, 42480, Note_on_c, 0, 71, 0
2, 42480, Note_on_c, 0, 69, 100
2, 42720, Note_on_c, 0, 69, 0
2, 42720, Note_on_c, 0, 81, 100
2, 42960, Note_on_c, 0, 81, 0
2, 42960, Note_on_c, 0, 84, 100
2, 43200, Note_on_c, 0, 84, 0
2, 43200, Note_on_c, 0, 74, 100
2, 43440, Note_on_c, 0, 74, 0
2, 43440, Note_on_c, 0, 84, 100
2, 43680, Note_on_c, 0, 84, 0
2, 43680, Note_on_c, 0, 83, 100
2, 43920, Note_on_c, 0, 83, 0
2, 43920, Note_on_c, 0, 86, 100
2, 44160, Note_on_c, 0, 86, 0
2, 44160, Note_on_c, 0, 80, 100
2, 44400, Note_on_c, 0, 80, 0
2, 44400, Note_on_c, 0, 81, 100
2, 44640, Note_on_c, 0, 81, 0
2, 44640, Note_on_c, 0, 74, 100
2, 44880, Note_on_c, 0, 74, 0
2, 44880, Note_on_c, 0, 84, 100
2, 45120, Note_on_c, 0, 84, 0
2, 45120, Note_on_c, 0, 83, 100
2, 45360, Note_on_c, 0, 83, 0
2, 45360, Note_on_c, 0, 86, 100
2, 45600, Note_on_c, 0, 86, 0
2, 45600, Note_on_c, 0, 80, 100
2, 45840, Note_on_c, 0, 80, 0
2, 45840, Note_on_c, 0, 81, 100
2, 46080, Note_on_c, 0, 81, 0
2, 46080, Note_on_c, 0, 71, 100
2, 46320, Note_on_c, 0, 71, 0
2, 46320, Note_on_c, 0, 77, 100
2, 46440, Note_on_c, 0, 77, 0
2, 46440, Note_on_c, 0, 76, 100
2, 46560, Note_on_c, 0, 76, 0
2, 46560, Note_on_c, 0, 74, 100
2, 46800, Note_on_c, 0, 74, 0
2, 46800, Note_on_c, 0, 72, 100
2, 47040, Note_on_c, 0, 72, 0
2, 47040, Note_on_c, 0, 71, 100
2, 47280, Note_on_c, 0, 71, 0
2, 47280, Note_on_c, 0, 72, 100
2, 47400, Note_on_c, 0, 72, 0
2, 47400, Note_on_c, 0, 74, 100
2, 47520, Note_on_c, 0, 74, 0
2, 47520, Note_on_c, 0, 68, 100
2, 48240, Note_on_c, 0, 68, 0
2, 48240, Note_on_c, 0, 66, 100
2, 48480, Note_on_c, 0, 66, 0
2, 48480, Note_on_c, 0, 64, 100
2, 48960, Note_on_c, 0, 64, 0
2, 48960, Note_on_c, 0, 69, 100
2, 49200, Note_on_c, 0, 69, 0
2, 49200, Note_on_c, 0, 71, 100
2, 49440, Note_on_c, 0, 71, 0
2, 49440, Note_on_c, 0, 72, 100
2, 49680, Note_on_c, 0, 72, 0
2, 49680, Note_on_c, 0, 76, 100
2, 49920, Note_on_c, 0, 76, 0
2, 49920, Note_on_c, 0, 68, 100
2, 50160, Note_on_c, 0, 68, 0
2, 50160, Note_on_c, 0, 69, 100
2, 50400, Note_on_c, 0, 69, 0
2, 50400, Note_on_c, 0, 77, 100
2, 50880, Note_on_c, 0, 77, 0
2, 50880, Note_on_c, 0, 76, 100
2, 50880, Pitch_bend_c, 0, 12288
2, 50920, Pitch_bend_c, 0, 8192
2, 50960, Pitch_bend_c, 0, 12288
2, 51000, Pitch_bend_c, 0, 8192
2, 51360, Note_on_c, 0, 76, 0
2, 51360, Note_on_c, 0, 74, 100
2, 51840, Note_on_c, 0, 74, 0
2, 51840, Note_on_c, 0, 71, 100
2, 52080, Note_on_c, 0, 71, 0
2, 52080, Note_on_c, 0, 72, 100
2, 52320, Note_on_c, 0, 72, 0
2, 52320, Note_on_c, 0, 74, 100
2, 52560, Note_on_c, 0, 74, 0
2, 52560, Note_on_c, 0, 77, 100
2, 52800, Note_on_c, 0, 77, 0
2, 52800, Note_on_c, 0, 76, 100
2, 53040, Note_on_c, 0, 76, 0
2, 53040, Note_on_c, 0, 74, 100
2, 53280, Note_on_c, 0, 74, 0
2, 53280, Note_on_c, 0, 83, 100
2, 53520, Note_on_c, 0, 83, 0
2, 53520, Note_on_c, 0, 80, 100
2, 53760, Note_on_c, 0, 80, 0
2, 53760, Note_on_c, 0, 81, 100
2, 54000, Note_on_c, 0, 81, 0
2, 54000, Note_on_c, 0, 78, 100
2, 54240, Note_on_c, 0, 78, 0
2, 54240, Note_on_c, 0, 80, 100
2, 54480, Note_on_c, 0, 80, 0
2, 54480, Note_on_c, 0, 83, 100
2, 54720, Note_on_c, 0, 83, 0
2, 54720, Note_on_c, 0, 88, 100
2, 54960, Note_on_c, 0, 88, 0
2, 54960, Note_on_c, 0, 84, 100
2, 55200, Note_on_c, 0, 84, 0
2, 55200, Note_on_c, 0, 83, 100
2, 55440, Note_on_c, 0, 83, 0
2, 55440, Note_on_c, 0, 81, 100
2, 55680, Note_on_c, 0, 81, 0
2, 55680, Note_on_c, 0, 80, 100
2, 55920, Note_on_c, 0, 80, 0
2, 55920, Note_on_c, 0, 81, 100
2, 56160, Note_on_c, 0, 81, 0
2, 56160, Note_on_c, 0, 76, 100
2, 56880, Note_on_c, 0, 76, 0
2, 56880, Note_on_c, 0, 78, 100
2, 57000, Note_on_c, 0, 78, 0
2, 57000, Note_on_c, 0, 80, 100
2, 57120, Note_on_c, 0, 80, 0
2, 57120, Note_on_c, 0, 81, 100
2, 57240, Note_on_c, 0, 81, 0
2, 57240, Note_on_c, 0, 83, 100
2, 57360, Note_on_c, 0, 83, 0
2, 57360, Note_on_c, 0, 84, 100
2, 57480, Note_on_c, 0, 84, 0
2, 57480, Note_on_c, 0, 86, 100
2, 57600, Note_on_c, 0, 86, 0
2, 57600, Note_on_c, 0, 88, 100
2, 57720, Note_on_c, 0, 88, 0
2, 57720, Note_on_c, 0, 86, 100
2, 57840, Note_on_c, 0, 86, 0
2, 57840, Note_on_c, 0, 84, 100
2, 57960, Note_on_c, 0, 84, 0
2, 57960, Note_on_c, 0, 88, 100
2, 58080, Note_on_c, 0, 88, 0
2, 58080, Note_on_c, 0, 86, 100
2, 58200, Note_on_c, 0, 86, 0
2, 58200, Note_on_c, 0, 84, 100
2, 58320, Note_on_c, 0, 84, 0
2, 58320, Note_on_c, 0, 83, 100
2, 58440, Note_on_c, 0, 83, 0
2, 58440, Note_on_c, 0, 86, 100
2, 58560, Note_on_c, 0, 86, 0
2, 58560, Note_on_c, 0, 84, 100
2, 58680, Note_on_c, 0, 84, 0
2, 58680, Note_on_c, 0, 83, 100
2, 58800, Note_on_c, 0, 83, 0
2, 58800, Note_on_c, 0, 81, 100
2, 58920, Note_on_c, 0, 81, 0
2, 58920, Note_on_c, 0, 84, 100
2, 59040, Note_on_c, 0, 84, 0
2, 59040, Note_on_c, 0, 78, 100
2, 59760, Note_on_c, 0, 78, 0
2, 59760, Note_on_c, 0, 80, 100
2, 59880, Note_on_c, 0, 80, 0
2, 59880, Note_on_c, 0, 81, 100
2, 60000, Note_on_c, 0, 81, 0
2, 60000, Note_on_c, 0, 83, 100
2, 60120, Note_on_c, 0, 83, 0
2, 60120, Note_on_c, 0, 84, 100
2, 60240, Note_on_c, 0, 84, 0
2, 60240, Note_on_c, 0, 86, 100
2, 60360, Note_on_c, 0, 86, 0
2, 60360, Note_on_c, 0, 88, 100
2, 60480, Note_on_c, 0, 88, 0
2, 60480, Note_on_c, 0, 89, 100
2, 60600, Note_on_c, 0, 89, 0
2, 60600, Note_on_c, 0, 88, 100
2, 60720, Note_on_c, 0, 88, 0
2, 60720, Note_on_c, 0, 86, 100
2, 60840, Note_on_c, 0, 86, 0
2, 60840, Note_on_c, 0, 89, 100
2, 60960, Note_on_c, 0, 89, 0
2, 60960, Note_on_c, 0, 88, 100
2, 61080, Note_on_c, 0, 88, 0
2, 61080, Note_on_c, 0, 86, 100
2, 61200, Note_on_c, 0, 86, 0
2, 61200, Note_on_c, 0, 84, 100
2, 61320, Note_on_c, 0, 84, 0
2, 61320, Note_on_c, 0, 88, 100
2, 61440, Note_on_c, 0, 88, 0
2, 61440, Note_on_c, 0, 86, 100
2, 61560, Note_on_c, 0, 86, 0
2, 61560, Note_on_c, 0, 84, 100
2, 61680, Note_on_c, 0, 84, 0
2, 61680, Note_on_c, 0, 83, 100
2, 61800, Note_on_c, 0, 83, 0
2, 61800, Note_on_c, 0, 86, 100
2, 61920, Note_on_c, 0, 86, 0
2, 61920, Note_on_c, 0, 92, 100
2, 62160, Note_on_c, 0, 92, 0
2, 62160, Note_on_c, 0, 81, 100
2, 62280, Note_on_c, 0, 81, 0
2, 62280, Note_on_c, 0, 83, 100
2, 62400, Note_on_c, 0, 83, 0
2, 62400, Note_on_c, 0, 81, 100
2, 62520, Note_on_c, 0, 81, 0
2, 62520, Note_on_c, 0, 79, 100
2, 62640, Note_on_c, 0, 79, 0
2, 62640, Note_on_c, 0, 78, 100
2, 62760, Note_on_c, 0, 78, 0
2, 62760, Note_on_c, 0, 76, 100
2, 62880, Note_on_c, 0, 76, 0
2, 62880, Note_on_c, 0, 86, 100
2, 63000, Note_on_c, 0, 86, 0
2, 63000, Note_on_c, 0, 84, 100
2, 63120, Note_on_c, 0, 84, 0
2, 63120, Note_on_c, 0, 86, 100
2, 63240, Note_on_c, 0, 86, 0
2, 63240, Note_on_c, 0, 83, 100
2, 63360, Note_on_c, 0, 83, 0
2, 63360, Note_on_c, 0, 84, 100
2, 63480, Note_on_c, 0, 84, 0
2, 63480, Note_on_c, 0, 83, 100
2, 63600, Note_on_c, 0, 83, 0
2, 63600, Note_on_c, 0, 81, 100
2, 63720, Note_on_c, 0, 81, 0
2, 63720, Note_on_c, 0, 80, 100
2, 63840, Note_on_c, 0, 80, 0
2, 63840, Note_on_c, 0, 81, 100
2, 64080, Note_on_c, 0, 81, 0
2, 64080, Note_on_c, 0, 76, 100
2, 64320, Note_on_c, 0, 76, 0
2, 64320, Note_on_c, 0, 72, 100
2, 64560, Note_on_c, 0, 72, 0
2, 64560, Pitch_bend_c, 0, 8192
2, 64560, Note_on_c, 0, 71, 100
2, 64600, Pitch_bend_c, 0, 12288
2, 64640, Pitch_bend_c, 0, 8192
2, 64680, Note_on_c, 0, 71, 0
2, 64680, Note_on_c, 0, 69, 100
2, 64800, Note_on_c, 0, 69, 0
2, 64800, Note_on_c, 0, 69, 100
2, 66240, Note_on_c, 0, 69, 0
2, 66240, End_track
3, 0, Start_track
3, 0, MIDI_port, 0
3, 0, Title_t, "--------------------------------------"
3, 0, End_track
4, 0, Start_track
4, 0, MIDI_port, 0
4, 0, Title_t, "Johann Sebastian Bach   (1685-1750)"
4, 0, End_track
5, 0, Start_track
5, 0, MIDI_port, 0
5, 0, Title_t, "--------------------------------------"
5, 0, End_track
6, 0, Start_track
6, 0, MIDI_port, 0
6, 0, Title_t, "Partita in A minor for Solo Flute - BWV 1013"
6, 0, End_track
7, 0, Start_track
7, 0, MIDI_port, 0
7, 0, Title_t, "--------------------------------------"
7, 0, End_track
8, 0, Start_track
8, 0, MIDI_port, 0
8, 0, Title_t, "3rd Movement: Sarabande"
8, 0, End_track
9, 0, Start_track
9, 0, MIDI_port, 0
9, 0, Title_t, "--------------------------------------"
9, 0, End_track
10, 0, Start_track
10, 0, MIDI_port, 0
10, 0, Title_t, "Sequenced with Cakewalk Pro Audio by"
10, 0, End_track
11, 0, Start_track
11, 0, MIDI_port, 0
11, 0, Title_t, "David J. Grossman - dave@unpronounceable.com"
11, 0, End_track
12, 0, Start_track
12, 0, MIDI_port, 0
12, 0, Title_t, "This and other Bach MIDI files can be found at:"
12, 0, End_track
13, 0, Start_track
13, 0, MIDI_port, 0
13, 0, Title_t, "Dave's J.S. Bach Page"
13, 0, End_track
14, 0, Start_track
14, 0, MIDI_port, 0
14, 0, Title_t, "http://www.unpronounceable.com/bach"
14, 0, End_track
15, 0, Start_track
15, 0, MIDI_port, 0
15, 0, Title_t, "--------------------------------------"
15, 0, End_track
16, 0, Start_track
16, 0, MIDI_port, 0
16, 0, Title_t, "Original Filename: fp-3sar.mid"
16, 0, End_track
17, 0, Start_track
17, 0, MIDI_port, 0
17, 0, Title_t, "Last Modified: March 1, 1997"
17, 0, End_track
0, 0, End_of_file
