0, 0, Header, 1, 15, 240
1, 0, Start_track
1, 0, Time_signature, 2, 1, 24, 8
1, 0, Tempo, 405405
1, 0, Marker_t, "Gavotte 1"
1, 46080, Tempo, 416667
1, 47040, Marker_t, "Gavotte 2"
1, 92160, Tempo, 405405
1, 93120, Marker_t, "Gavotte 1 Repeat"
1, 137748, Tempo, 419580
1, 137976, Tempo, 444444
1, 138120, Tempo, 487805
1, 138240, Tempo, 405405
1, 138240, End_track
2, 0, Start_track
2, 0, Title_t, "Violin1"
2, 0, Program_c, 0, 40
2, 0, Control_c, 0, 7, 100
2, 468, Note_on_c, 0, 76, 82
2, 552, Note_off_c, 0, 76, 64
2, 700, Note_on_c, 0, 77, 85
2, 785, Note_off_c, 0, 77, 64
2, 946, Note_on_c, 0, 79, 87
2, 1130, Note_off_c, 0, 79, 64
2, 1191, Note_on_c, 0, 81, 68
2, 1262, Note_off_c, 0, 81, 64
2, 1302, Note_on_c, 0, 77, 60
2, 1375, Note_off_c, 0, 77, 64
2, 1431, Note_on_c, 0, 79, 72
2, 1513, Note_off_c, 0, 79, 64
2, 1673, Note_on_c, 0, 72, 82
2, 1750, Note_off_c, 0, 72, 64
2, 1911, Note_on_c, 0, 81, 91
2, 2095, Note_off_c, 0, 81, 64
2, 2150, Note_on_c, 0, 77, 68
2, 2239, Note_off_c, 0, 77, 64
2, 2383, Note_on_c, 0, 74, 70
2, 2458, Note_off_c, 0, 74, 64
2, 2628, Note_on_c, 0, 76, 76
2, 2730, Note_off_c, 0, 76, 64
2, 2868, Note_on_c, 0, 77, 80
2, 3076, Note_off_c, 0, 77, 64
2, 3105, Note_on_c, 0, 79, 66
2, 3194, Note_off_c, 0, 79, 64
2, 3214, Note_on_c, 0, 76, 52
2, 3296, Note_off_c, 0, 76, 64
2, 3332, Note_on_c, 0, 77, 70
2, 3421, Note_off_c, 0, 77, 64
2, 3443, Note_on_c, 0, 74, 58
2, 3534, Note_off_c, 0, 74, 64
2, 3578, Note_on_c, 0, 79, 82
2, 3692, Note_off_c, 0, 79, 64
2, 3813, Note_on_c, 0, 77, 78
2, 3862, Note_on_c, 0, 76, 64
2, 3868, Note_off_c, 0, 77, 64
2, 3902, Note_on_c, 0, 77, 70
2, 3914, Note_off_c, 0, 76, 64
2, 3943, Note_on_c, 0, 76, 70
2, 3961, Note_off_c, 0, 77, 64
2, 4036, Note_off_c, 0, 76, 64
2, 4058, Note_on_c, 0, 74, 60
2, 4156, Note_off_c, 0, 74, 64
2, 4175, Note_on_c, 0, 72, 50
2, 4252, Note_off_c, 0, 72, 64
2, 4296, Note_on_c, 0, 77, 63
2, 4415, Note_on_c, 0, 76, 66
2, 4421, Note_off_c, 0, 77, 64
2, 4507, Note_off_c, 0, 76, 64
2, 4550, Note_on_c, 0, 74, 66
2, 4663, Note_on_c, 0, 72, 66
2, 4664, Note_off_c, 0, 74, 64
2, 4745, Note_off_c, 0, 72, 64
2, 4797, Note_on_c, 0, 74, 80
2, 4980, Note_off_c, 0, 74, 64
2, 5026, Note_on_c, 0, 76, 62
2, 5103, Note_off_c, 0, 76, 64
2, 5131, Note_on_c, 0, 72, 59
2, 5206, Note_off_c, 0, 72, 64
2, 5249, Note_on_c, 0, 74, 68
2, 5332, Note_off_c, 0, 74, 64
2, 5357, Note_on_c, 0, 71, 62
2, 5435, Note_off_c, 0, 71, 64
2, 5492, Note_on_c, 0, 76, 68
2, 5625, Note_off_c, 0, 76, 64
2, 5733, Note_on_c, 0, 74, 82
2, 5783, Note_on_c, 0, 72, 63
2, 5789, Note_off_c, 0, 74, 64
2, 5829, Note_on_c, 0, 74, 72
2, 5832, Note_off_c, 0, 72, 64
2, 5865, Note_on_c, 0, 72, 68
2, 5881, Note_off_c, 0, 74, 64
2, 5963, Note_off_c, 0, 72, 64
2, 5975, Note_on_c, 0, 71, 62
2, 6075, Note_off_c, 0, 71, 64
2, 6090, Note_on_c, 0, 69, 57
2, 6170, Note_off_c, 0, 69, 64
2, 6216, Note_on_c, 0, 74, 72
2, 6332, Note_on_c, 0, 72, 66
2, 6356, Note_off_c, 0, 74, 64
2, 6457, Note_on_c, 0, 71, 57
2, 6466, Note_off_c, 0, 72, 64
2, 6581, Note_on_c, 0, 69, 68
2, 6591, Note_off_c, 0, 71, 64
2, 6648, Note_off_c, 0, 69, 64
2, 6703, Note_on_c, 0, 74, 78
2, 6784, Note_off_c, 0, 74, 64
2, 6945, Note_on_c, 0, 79, 82
2, 7037, Note_off_c, 0, 79, 64
2, 7183, Note_on_c, 0, 72, 72
2, 7227, Note_on_c, 0, 71, 78
2, 7236, Note_off_c, 0, 72, 64
2, 7272, Note_on_c, 0, 72, 66
2, 7281, Note_off_c, 0, 71, 64
2, 7308, Note_on_c, 0, 71, 66
2, 7328, Note_off_c, 0, 72, 64
2, 7413, Note_off_c, 0, 71, 64
2, 7422, Note_on_c, 0, 69, 66
2, 7524, Note_off_c, 0, 69, 64
2, 7533, Note_on_c, 0, 67, 59
2, 7606, Note_off_c, 0, 67, 64
2, 7675, Note_on_c, 0, 67, 53
2, 7946, Note_off_c, 0, 67, 64
2, 8150, Note_on_c, 0, 76, 78
2, 8230, Note_off_c, 0, 76, 64
2, 8387, Note_on_c, 0, 77, 82
2, 8476, Note_off_c, 0, 77, 64
2, 8628, Note_on_c, 0, 79, 82
2, 8827, Note_off_c, 0, 79, 64
2, 8865, Note_on_c, 0, 81, 80
2, 8938, Note_off_c, 0, 81, 64
2, 8977, Note_on_c, 0, 77, 68
2, 9050, Note_off_c, 0, 77, 64
2, 9109, Note_on_c, 0, 79, 59
2, 9193, Note_off_c, 0, 79, 64
2, 9347, Note_on_c, 0, 72, 66
2, 9432, Note_off_c, 0, 72, 64
2, 9585, Note_on_c, 0, 81, 89
2, 9782, Note_off_c, 0, 81, 64
2, 9822, Note_on_c, 0, 77, 66
2, 9919, Note_off_c, 0, 77, 64
2, 10066, Note_on_c, 0, 74, 68
2, 10145, Note_off_c, 0, 74, 64
2, 10310, Note_on_c, 0, 76, 68
2, 10410, Note_off_c, 0, 76, 64
2, 10547, Note_on_c, 0, 77, 80
2, 10745, Note_off_c, 0, 77, 64
2, 10784, Note_on_c, 0, 79, 72
2, 10865, Note_off_c, 0, 79, 64
2, 10891, Note_on_c, 0, 76, 60
2, 10973, Note_off_c, 0, 76, 64
2, 11016, Note_on_c, 0, 77, 74
2, 11102, Note_off_c, 0, 77, 64
2, 11128, Note_on_c, 0, 74, 63
2, 11209, Note_off_c, 0, 74, 64
2, 11256, Note_on_c, 0, 79, 85
2, 11352, Note_off_c, 0, 79, 64
2, 11503, Note_on_c, 0, 77, 78
2, 11549, Note_on_c, 0, 76, 64
2, 11557, Note_off_c, 0, 77, 64
2, 11590, Note_on_c, 0, 77, 68
2, 11605, Note_off_c, 0, 76, 64
2, 11632, Note_on_c, 0, 76, 63
2, 11651, Note_off_c, 0, 77, 64
2, 11719, Note_off_c, 0, 76, 64
2, 11737, Note_on_c, 0, 74, 70
2, 11854, Note_off_c, 0, 74, 64
2, 11856, Note_on_c, 0, 72, 62
2, 11948, Note_off_c, 0, 72, 64
2, 11979, Note_on_c, 0, 77, 64
2, 12092, Note_on_c, 0, 76, 68
2, 12106, Note_off_c, 0, 77, 64
2, 12180, Note_off_c, 0, 76, 64
2, 12224, Note_on_c, 0, 74, 59
2, 12334, Note_off_c, 0, 74, 64
2, 12335, Note_on_c, 0, 72, 64
2, 12414, Note_off_c, 0, 72, 64
2, 12472, Note_on_c, 0, 74, 68
2, 12658, Note_off_c, 0, 74, 64
2, 12702, Note_on_c, 0, 76, 68
2, 12790, Note_off_c, 0, 76, 64
2, 12813, Note_on_c, 0, 72, 64
2, 12888, Note_off_c, 0, 72, 64
2, 12931, Note_on_c, 0, 74, 66
2, 13022, Note_off_c, 0, 74, 64
2, 13046, Note_on_c, 0, 71, 58
2, 13128, Note_off_c, 0, 71, 64
2, 13182, Note_on_c, 0, 76, 76
2, 13284, Note_off_c, 0, 76, 64
2, 13421, Note_on_c, 0, 74, 74
2, 13463, Note_on_c, 0, 72, 66
2, 13468, Note_off_c, 0, 74, 64
2, 13509, Note_on_c, 0, 74, 70
2, 13516, Note_off_c, 0, 72, 64
2, 13555, Note_on_c, 0, 72, 68
2, 13568, Note_off_c, 0, 74, 64
2, 13630, Note_off_c, 0, 72, 64
2, 13656, Note_on_c, 0, 71, 70
2, 13762, Note_off_c, 0, 71, 64
2, 13772, Note_on_c, 0, 69, 59
2, 13856, Note_off_c, 0, 69, 64
2, 13905, Note_on_c, 0, 74, 78
2, 14016, Note_on_c, 0, 72, 66
2, 14040, Note_off_c, 0, 74, 64
2, 14139, Note_on_c, 0, 71, 60
2, 14145, Note_off_c, 0, 72, 64
2, 14260, Note_on_c, 0, 69, 58
2, 14265, Note_off_c, 0, 71, 64
2, 14334, Note_off_c, 0, 69, 64
2, 14383, Note_on_c, 0, 74, 80
2, 14463, Note_off_c, 0, 74, 64
2, 14630, Note_on_c, 0, 79, 85
2, 14725, Note_off_c, 0, 79, 64
2, 14868, Note_on_c, 0, 72, 80
2, 14914, Note_on_c, 0, 71, 85
2, 14920, Note_off_c, 0, 72, 64
2, 14959, Note_on_c, 0, 72, 66
2, 14964, Note_off_c, 0, 71, 64
2, 14998, Note_on_c, 0, 71, 72
2, 15012, Note_off_c, 0, 72, 64
2, 15077, Note_off_c, 0, 71, 64
2, 15094, Note_on_c, 0, 69, 66
2, 15201, Note_on_c, 0, 67, 58
2, 15202, Note_off_c, 0, 69, 64
2, 15290, Note_off_c, 0, 67, 64
2, 15350, Note_on_c, 0, 67, 54
2, 15607, Note_off_c, 0, 67, 64
2, 31188, Note_on_c, 0, 71, 72
2, 31269, Note_off_c, 0, 71, 64
2, 31426, Note_on_c, 0, 72, 66
2, 31498, Note_off_c, 0, 72, 64
2, 31663, Note_on_c, 0, 74, 80
2, 31863, Note_off_c, 0, 74, 64
2, 31892, Note_on_c, 0, 76, 78
2, 31974, Note_off_c, 0, 76, 64
2, 31985, Note_on_c, 0, 72, 64
2, 32059, Note_off_c, 0, 72, 64
2, 32115, Note_on_c, 0, 74, 70
2, 32189, Note_off_c, 0, 74, 64
2, 32369, Note_on_c, 0, 82, 72
2, 32458, Note_off_c, 0, 82, 64
2, 32634, Note_on_c, 0, 74, 78
2, 32680, Note_on_c, 0, 73, 85
2, 32690, Note_off_c, 0, 74, 64
2, 32722, Note_off_c, 0, 73, 64
2, 32727, Note_on_c, 0, 74, 80
2, 32758, Note_on_c, 0, 73, 64
2, 32795, Note_off_c, 0, 74, 64
2, 32857, Note_on_c, 0, 71, 63
2, 32858, Note_off_c, 0, 73, 64
2, 32942, Note_off_c, 0, 71, 64
2, 32958, Note_on_c, 0, 69, 60
2, 33064, Note_off_c, 0, 69, 64
2, 33084, Note_on_c, 0, 71, 64
2, 33178, Note_off_c, 0, 71, 64
2, 33201, Note_on_c, 0, 73, 47
2, 33293, Note_off_c, 0, 73, 64
2, 33319, Note_on_c, 0, 74, 60
2, 33414, Note_off_c, 0, 74, 64
2, 33435, Note_on_c, 0, 76, 64
2, 33521, Note_off_c, 0, 76, 64
2, 33560, Note_on_c, 0, 77, 74
2, 33773, Note_off_c, 0, 77, 64
2, 33819, Note_on_c, 0, 76, 64
2, 33907, Note_off_c, 0, 76, 64
2, 33921, Note_on_c, 0, 74, 59
2, 34005, Note_off_c, 0, 74, 64
2, 34052, Note_on_c, 0, 76, 80
2, 34123, Note_off_c, 0, 76, 64
2, 34167, Note_on_c, 0, 73, 52
2, 34258, Note_off_c, 0, 73, 64
2, 34294, Note_on_c, 0, 81, 89
2, 34385, Note_off_c, 0, 81, 64
2, 34539, Note_on_c, 0, 79, 80
2, 34578, Note_on_c, 0, 77, 82
2, 34586, Note_off_c, 0, 79, 64
2, 34625, Note_on_c, 0, 79, 76
2, 34631, Note_off_c, 0, 77, 64
2, 34667, Note_on_c, 0, 77, 74
2, 34686, Note_off_c, 0, 79, 64
2, 34756, Note_off_c, 0, 77, 64
2, 34759, Note_on_c, 0, 76, 66
2, 34856, Note_off_c, 0, 76, 64
2, 34863, Note_on_c, 0, 74, 48
2, 34944, Note_off_c, 0, 74, 64
2, 35004, Note_on_c, 0, 79, 82
2, 35116, Note_on_c, 0, 77, 68
2, 35125, Note_off_c, 0, 79, 64
2, 35234, Note_on_c, 0, 76, 52
2, 35246, Note_off_c, 0, 77, 64
2, 35335, Note_off_c, 0, 76, 64
2, 35351, Note_on_c, 0, 74, 51
2, 35426, Note_off_c, 0, 74, 64
2, 35482, Note_on_c, 0, 76, 80
2, 35689, Note_off_c, 0, 76, 64
2, 35731, Note_on_c, 0, 77, 68
2, 35815, Note_off_c, 0, 77, 64
2, 35839, Note_on_c, 0, 74, 52
2, 35926, Note_off_c, 0, 74, 64
2, 35970, Note_on_c, 0, 76, 68
2, 36058, Note_off_c, 0, 76, 64
2, 36081, Note_on_c, 0, 72, 59
2, 36147, Note_off_c, 0, 72, 64
2, 36208, Note_on_c, 0, 77, 82
2, 36301, Note_off_c, 0, 77, 64
2, 36457, Note_on_c, 0, 76, 72
2, 36503, Note_on_c, 0, 74, 91
2, 36516, Note_off_c, 0, 76, 64
2, 36545, Note_on_c, 0, 76, 64
2, 36552, Note_off_c, 0, 74, 64
2, 36588, Note_on_c, 0, 74, 76
2, 36620, Note_off_c, 0, 76, 64
2, 36703, Note_off_c, 0, 74, 64
2, 36710, Note_on_c, 0, 72, 52
2, 36811, Note_off_c, 0, 72, 64
2, 36823, Note_on_c, 0, 71, 53
2, 36896, Note_off_c, 0, 71, 64
2, 36941, Note_on_c, 0, 76, 82
2, 37048, Note_on_c, 0, 74, 60
2, 37062, Note_off_c, 0, 76, 64
2, 37165, Note_off_c, 0, 74, 64
2, 37165, Note_on_c, 0, 72, 52
2, 37268, Note_off_c, 0, 72, 64
2, 37281, Note_on_c, 0, 71, 48
2, 37345, Note_off_c, 0, 71, 64
2, 37394, Note_on_c, 0, 74, 82
2, 37504, Note_on_c, 0, 72, 58
2, 37531, Note_off_c, 0, 74, 64
2, 37652, Note_on_c, 0, 71, 52
2, 37654, Note_off_c, 0, 72, 64
2, 37756, Note_off_c, 0, 71, 64
2, 37767, Note_on_c, 0, 69, 52
2, 37862, Note_off_c, 0, 69, 64
2, 37890, Note_on_c, 0, 71, 76
2, 37974, Note_off_c, 0, 71, 64
2, 38133, Note_on_c, 0, 68, 68
2, 38205, Note_off_c, 0, 68, 64
2, 38392, Note_on_c, 0, 69, 68
2, 38696, Note_off_c, 0, 69, 64
2, 38855, Note_on_c, 0, 72, 70
2, 38931, Note_off_c, 0, 72, 64
2, 39096, Note_on_c, 0, 76, 82
2, 39184, Note_off_c, 0, 76, 64
2, 39344, Note_on_c, 0, 69, 66
2, 39557, Note_off_c, 0, 69, 64
2, 39598, Note_on_c, 0, 71, 68
2, 39685, Note_off_c, 0, 71, 64
2, 39706, Note_on_c, 0, 72, 72
2, 39782, Note_off_c, 0, 72, 64
2, 39819, Note_on_c, 0, 74, 68
2, 39910, Note_off_c, 0, 74, 64
2, 39933, Note_on_c, 0, 76, 78
2, 40024, Note_off_c, 0, 76, 64
2, 40057, Note_on_c, 0, 77, 82
2, 40440, Note_off_c, 0, 77, 64
2, 40560, Note_on_c, 0, 71, 64
2, 40647, Note_off_c, 0, 71, 64
2, 40790, Note_on_c, 0, 76, 66
2, 40872, Note_off_c, 0, 76, 64
2, 41017, Note_on_c, 0, 79, 87
2, 41102, Note_off_c, 0, 79, 64
2, 41255, Note_on_c, 0, 72, 72
2, 41478, Note_off_c, 0, 72, 64
2, 41503, Note_on_c, 0, 74, 70
2, 41589, Note_off_c, 0, 74, 64
2, 41606, Note_on_c, 0, 76, 64
2, 41690, Note_off_c, 0, 76, 64
2, 41720, Note_on_c, 0, 77, 80
2, 41828, Note_on_c, 0, 79, 74
2, 41841, Note_off_c, 0, 77, 64
2, 41913, Note_off_c, 0, 79, 64
2, 41958, Note_on_c, 0, 81, 80
2, 42397, Note_off_c, 0, 81, 64
2, 42462, Note_on_c, 0, 79, 70
2, 42545, Note_off_c, 0, 79, 64
2, 42568, Note_on_c, 0, 77, 68
2, 42652, Note_off_c, 0, 77, 64
2, 42685, Note_on_c, 0, 76, 70
2, 42764, Note_off_c, 0, 76, 64
2, 42794, Note_on_c, 0, 74, 68
2, 42876, Note_off_c, 0, 74, 64
2, 42936, Note_on_c, 0, 79, 85
2, 43036, Note_off_c, 0, 79, 64
2, 43167, Note_on_c, 0, 70, 72
2, 43366, Note_off_c, 0, 70, 64
2, 43409, Note_on_c, 0, 72, 66
2, 43474, Note_off_c, 0, 72, 64
2, 43519, Note_on_c, 0, 69, 63
2, 43607, Note_off_c, 0, 69, 64
2, 43647, Note_on_c, 0, 70, 58
2, 43745, Note_off_c, 0, 70, 64
2, 43899, Note_on_c, 0, 79, 82
2, 43998, Note_off_c, 0, 79, 64
2, 44139, Note_on_c, 0, 70, 78
2, 44242, Note_on_c, 0, 69, 64
2, 44268, Note_off_c, 0, 70, 64
2, 44367, Note_off_c, 0, 69, 64
2, 44369, Note_on_c, 0, 67, 48
2, 44485, Note_off_c, 0, 67, 64
2, 44491, Note_on_c, 0, 65, 53
2, 44566, Note_off_c, 0, 65, 64
2, 44617, Note_on_c, 0, 72, 89
2, 44736, Note_on_c, 0, 71, 68
2, 44751, Note_off_c, 0, 72, 64
2, 44835, Note_off_c, 0, 71, 64
2, 44844, Note_on_c, 0, 69, 55
2, 44933, Note_off_c, 0, 69, 64
2, 44953, Note_on_c, 0, 67, 56
2, 45062, Note_off_c, 0, 67, 64
2, 45085, Note_on_c, 0, 79, 85
2, 45192, Note_off_c, 0, 79, 64
2, 45333, Note_on_c, 0, 81, 82
2, 45430, Note_off_c, 0, 81, 64
2, 45576, Note_on_c, 0, 77, 87
2, 45623, Note_on_c, 0, 76, 53
2, 45627, Note_off_c, 0, 77, 64
2, 45661, Note_on_c, 0, 77, 70
2, 45676, Note_off_c, 0, 76, 64
2, 45699, Note_on_c, 0, 76, 60
2, 45716, Note_off_c, 0, 77, 64
2, 45805, Note_off_c, 0, 76, 64
2, 45811, Note_on_c, 0, 74, 72
2, 45905, Note_off_c, 0, 74, 64
2, 45919, Note_on_c, 0, 72, 56
2, 45974, Note_off_c, 0, 72, 64
2, 46063, Note_on_c, 0, 72, 63
2, 46353, Note_off_c, 0, 72, 64
2, 62618, Note_on_c, 0, 62, 43
2, 62781, Note_off_c, 0, 62, 64
2, 62850, Note_on_c, 0, 65, 54
2, 62997, Note_off_c, 0, 65, 64
2, 63087, Note_on_c, 0, 69, 60
2, 63233, Note_off_c, 0, 69, 64
2, 63351, Note_on_c, 0, 74, 59
2, 63512, Note_off_c, 0, 74, 64
2, 63590, Note_on_c, 0, 69, 49
2, 63720, Note_off_c, 0, 69, 64
2, 63814, Note_on_c, 0, 65, 46
2, 63944, Note_off_c, 0, 65, 64
2, 64058, Note_on_c, 0, 62, 58
2, 64215, Note_off_c, 0, 62, 64
2, 64296, Note_on_c, 0, 69, 54
2, 64480, Note_off_c, 0, 69, 64
2, 64532, Note_on_c, 0, 69, 57
2, 64579, Note_off_c, 0, 69, 64
2, 64638, Note_on_c, 0, 69, 57
2, 64712, Note_off_c, 0, 69, 64
2, 64774, Note_on_c, 0, 69, 44
2, 64945, Note_off_c, 0, 69, 64
2, 65017, Note_on_c, 0, 69, 48
2, 65168, Note_off_c, 0, 69, 64
2, 65256, Note_on_c, 0, 69, 55
2, 66284, Note_off_c, 0, 69, 64
2, 67430, Note_on_c, 0, 60, 57
2, 67573, Note_off_c, 0, 60, 64
2, 67658, Note_on_c, 0, 64, 58
2, 67788, Note_off_c, 0, 64, 64
2, 67891, Note_on_c, 0, 67, 57
2, 68008, Note_off_c, 0, 67, 64
2, 68132, Note_on_c, 0, 72, 60
2, 68265, Note_off_c, 0, 72, 64
2, 68376, Note_on_c, 0, 67, 48
2, 68508, Note_off_c, 0, 67, 64
2, 68625, Note_on_c, 0, 64, 58
2, 68738, Note_off_c, 0, 64, 64
2, 68853, Note_on_c, 0, 60, 57
2, 68984, Note_off_c, 0, 60, 64
2, 69083, Note_on_c, 0, 67, 52
2, 69278, Note_off_c, 0, 67, 64
2, 69328, Note_on_c, 0, 67, 43
2, 69399, Note_off_c, 0, 67, 64
2, 69449, Note_on_c, 0, 67, 58
2, 69514, Note_off_c, 0, 67, 64
2, 69570, Note_on_c, 0, 67, 56
2, 69739, Note_off_c, 0, 67, 64
2, 69824, Note_on_c, 0, 67, 55
2, 69973, Note_off_c, 0, 67, 64
2, 70073, Note_on_c, 0, 67, 59
2, 70607, Note_on_c, 0, 64, 57
2, 70621, Note_off_c, 0, 67, 64
2, 70664, Note_on_c, 0, 67, 64
2, 70683, Note_off_c, 0, 64, 64
2, 70712, Note_off_c, 0, 67, 64
2, 70760, Note_on_c, 0, 67, 59
2, 70836, Note_on_c, 0, 64, 59
2, 70846, Note_off_c, 0, 67, 64
2, 70907, Note_on_c, 0, 67, 60
2, 70911, Note_off_c, 0, 64, 64
2, 70979, Note_off_c, 0, 67, 64
2, 71026, Note_on_c, 0, 72, 59
2, 71146, Note_off_c, 0, 72, 64
2, 71256, Note_on_c, 0, 67, 57
2, 71368, Note_off_c, 0, 67, 64
2, 71497, Note_on_c, 0, 64, 57
2, 71614, Note_off_c, 0, 64, 64
2, 71737, Note_on_c, 0, 60, 57
2, 71876, Note_off_c, 0, 60, 64
2, 71975, Note_on_c, 0, 67, 57
2, 72164, Note_off_c, 0, 67, 64
2, 72214, Note_on_c, 0, 67, 60
2, 72275, Note_off_c, 0, 67, 64
2, 72322, Note_on_c, 0, 67, 57
2, 72402, Note_off_c, 0, 67, 64
2, 72453, Note_on_c, 0, 67, 55
2, 72612, Note_off_c, 0, 67, 64
2, 72701, Note_on_c, 0, 67, 55
2, 72838, Note_off_c, 0, 67, 64
2, 72947, Note_on_c, 0, 67, 55
2, 74380, Note_off_c, 0, 67, 64
2, 92628, Note_on_c, 0, 76, 82
2, 92712, Note_off_c, 0, 76, 64
2, 92860, Note_on_c, 0, 77, 85
2, 92945, Note_off_c, 0, 77, 64
2, 93106, Note_on_c, 0, 79, 87
2, 93290, Note_off_c, 0, 79, 64
2, 93351, Note_on_c, 0, 81, 68
2, 93422, Note_off_c, 0, 81, 64
2, 93462, Note_on_c, 0, 77, 60
2, 93535, Note_off_c, 0, 77, 64
2, 93591, Note_on_c, 0, 79, 72
2, 93673, Note_off_c, 0, 79, 64
2, 93833, Note_on_c, 0, 72, 82
2, 93910, Note_off_c, 0, 72, 64
2, 94071, Note_on_c, 0, 81, 91
2, 94255, Note_off_c, 0, 81, 64
2, 94310, Note_on_c, 0, 77, 68
2, 94399, Note_off_c, 0, 77, 64
2, 94543, Note_on_c, 0, 74, 70
2, 94618, Note_off_c, 0, 74, 64
2, 94788, Note_on_c, 0, 76, 76
2, 94890, Note_off_c, 0, 76, 64
2, 95028, Note_on_c, 0, 77, 80
2, 95236, Note_off_c, 0, 77, 64
2, 95265, Note_on_c, 0, 79, 66
2, 95354, Note_off_c, 0, 79, 64
2, 95374, Note_on_c, 0, 76, 52
2, 95456, Note_off_c, 0, 76, 64
2, 95492, Note_on_c, 0, 77, 70
2, 95581, Note_off_c, 0, 77, 64
2, 95603, Note_on_c, 0, 74, 58
2, 95694, Note_off_c, 0, 74, 64
2, 95738, Note_on_c, 0, 79, 82
2, 95852, Note_off_c, 0, 79, 64
2, 95973, Note_on_c, 0, 77, 78
2, 96022, Note_on_c, 0, 76, 64
2, 96028, Note_off_c, 0, 77, 64
2, 96062, Note_on_c, 0, 77, 70
2, 96074, Note_off_c, 0, 76, 64
2, 96103, Note_on_c, 0, 76, 70
2, 96121, Note_off_c, 0, 77, 64
2, 96196, Note_off_c, 0, 76, 64
2, 96218, Note_on_c, 0, 74, 60
2, 96316, Note_off_c, 0, 74, 64
2, 96335, Note_on_c, 0, 72, 50
2, 96412, Note_off_c, 0, 72, 64
2, 96456, Note_on_c, 0, 77, 63
2, 96575, Note_on_c, 0, 76, 66
2, 96581, Note_off_c, 0, 77, 64
2, 96667, Note_off_c, 0, 76, 64
2, 96710, Note_on_c, 0, 74, 66
2, 96823, Note_on_c, 0, 72, 66
2, 96824, Note_off_c, 0, 74, 64
2, 96905, Note_off_c, 0, 72, 64
2, 96957, Note_on_c, 0, 74, 80
2, 97140, Note_off_c, 0, 74, 64
2, 97186, Note_on_c, 0, 76, 62
2, 97263, Note_off_c, 0, 76, 64
2, 97291, Note_on_c, 0, 72, 59
2, 97366, Note_off_c, 0, 72, 64
2, 97409, Note_on_c, 0, 74, 68
2, 97492, Note_off_c, 0, 74, 64
2, 97517, Note_on_c, 0, 71, 62
2, 97595, Note_off_c, 0, 71, 64
2, 97652, Note_on_c, 0, 76, 68
2, 97785, Note_off_c, 0, 76, 64
2, 97893, Note_on_c, 0, 74, 82
2, 97943, Note_on_c, 0, 72, 63
2, 97949, Note_off_c, 0, 74, 64
2, 97989, Note_on_c, 0, 74, 72
2, 97992, Note_off_c, 0, 72, 64
2, 98025, Note_on_c, 0, 72, 68
2, 98041, Note_off_c, 0, 74, 64
2, 98123, Note_off_c, 0, 72, 64
2, 98135, Note_on_c, 0, 71, 62
2, 98235, Note_off_c, 0, 71, 64
2, 98250, Note_on_c, 0, 69, 57
2, 98330, Note_off_c, 0, 69, 64
2, 98376, Note_on_c, 0, 74, 72
2, 98492, Note_on_c, 0, 72, 66
2, 98516, Note_off_c, 0, 74, 64
2, 98617, Note_on_c, 0, 71, 57
2, 98626, Note_off_c, 0, 72, 64
2, 98741, Note_on_c, 0, 69, 68
2, 98751, Note_off_c, 0, 71, 64
2, 98808, Note_off_c, 0, 69, 64
2, 98863, Note_on_c, 0, 74, 78
2, 98944, Note_off_c, 0, 74, 64
2, 99105, Note_on_c, 0, 79, 82
2, 99197, Note_off_c, 0, 79, 64
2, 99343, Note_on_c, 0, 72, 72
2, 99387, Note_on_c, 0, 71, 78
2, 99396, Note_off_c, 0, 72, 64
2, 99432, Note_on_c, 0, 72, 66
2, 99441, Note_off_c, 0, 71, 64
2, 99468, Note_on_c, 0, 71, 66
2, 99488, Note_off_c, 0, 72, 64
2, 99573, Note_off_c, 0, 71, 64
2, 99582, Note_on_c, 0, 69, 66
2, 99684, Note_off_c, 0, 69, 64
2, 99693, Note_on_c, 0, 67, 59
2, 99766, Note_off_c, 0, 67, 64
2, 99835, Note_on_c, 0, 67, 53
2, 100106, Note_off_c, 0, 67, 64
2, 100310, Note_on_c, 0, 76, 78
2, 100390, Note_off_c, 0, 76, 64
2, 100547, Note_on_c, 0, 77, 82
2, 100636, Note_off_c, 0, 77, 64
2, 100788, Note_on_c, 0, 79, 82
2, 100987, Note_off_c, 0, 79, 64
2, 101025, Note_on_c, 0, 81, 80
2, 101098, Note_off_c, 0, 81, 64
2, 101137, Note_on_c, 0, 77, 68
2, 101210, Note_off_c, 0, 77, 64
2, 101269, Note_on_c, 0, 79, 59
2, 101353, Note_off_c, 0, 79, 64
2, 101507, Note_on_c, 0, 72, 66
2, 101592, Note_off_c, 0, 72, 64
2, 101745, Note_on_c, 0, 81, 89
2, 101942, Note_off_c, 0, 81, 64
2, 101982, Note_on_c, 0, 77, 66
2, 102079, Note_off_c, 0, 77, 64
2, 102226, Note_on_c, 0, 74, 68
2, 102305, Note_off_c, 0, 74, 64
2, 102470, Note_on_c, 0, 76, 68
2, 102570, Note_off_c, 0, 76, 64
2, 102707, Note_on_c, 0, 77, 80
2, 102905, Note_off_c, 0, 77, 64
2, 102944, Note_on_c, 0, 79, 72
2, 103025, Note_off_c, 0, 79, 64
2, 103051, Note_on_c, 0, 76, 60
2, 103133, Note_off_c, 0, 76, 64
2, 103176, Note_on_c, 0, 77, 74
2, 103262, Note_off_c, 0, 77, 64
2, 103288, Note_on_c, 0, 74, 63
2, 103369, Note_off_c, 0, 74, 64
2, 103416, Note_on_c, 0, 79, 85
2, 103512, Note_off_c, 0, 79, 64
2, 103663, Note_on_c, 0, 77, 78
2, 103709, Note_on_c, 0, 76, 64
2, 103717, Note_off_c, 0, 77, 64
2, 103750, Note_on_c, 0, 77, 68
2, 103765, Note_off_c, 0, 76, 64
2, 103792, Note_on_c, 0, 76, 63
2, 103811, Note_off_c, 0, 77, 64
2, 103879, Note_off_c, 0, 76, 64
2, 103897, Note_on_c, 0, 74, 70
2, 104014, Note_off_c, 0, 74, 64
2, 104016, Note_on_c, 0, 72, 62
2, 104108, Note_off_c, 0, 72, 64
2, 104139, Note_on_c, 0, 77, 64
2, 104252, Note_on_c, 0, 76, 68
2, 104266, Note_off_c, 0, 77, 64
2, 104340, Note_off_c, 0, 76, 64
2, 104384, Note_on_c, 0, 74, 59
2, 104494, Note_off_c, 0, 74, 64
2, 104495, Note_on_c, 0, 72, 64
2, 104574, Note_off_c, 0, 72, 64
2, 104632, Note_on_c, 0, 74, 68
2, 104818, Note_off_c, 0, 74, 64
2, 104862, Note_on_c, 0, 76, 68
2, 104950, Note_off_c, 0, 76, 64
2, 104973, Note_on_c, 0, 72, 64
2, 105048, Note_off_c, 0, 72, 64
2, 105091, Note_on_c, 0, 74, 66
2, 105182, Note_off_c, 0, 74, 64
2, 105206, Note_on_c, 0, 71, 58
2, 105288, Note_off_c, 0, 71, 64
2, 105342, Note_on_c, 0, 76, 76
2, 105444, Note_off_c, 0, 76, 64
2, 105581, Note_on_c, 0, 74, 74
2, 105623, Note_on_c, 0, 72, 66
2, 105628, Note_off_c, 0, 74, 64
2, 105669, Note_on_c, 0, 74, 70
2, 105676, Note_off_c, 0, 72, 64
2, 105715, Note_on_c, 0, 72, 68
2, 105728, Note_off_c, 0, 74, 64
2, 105790, Note_off_c, 0, 72, 64
2, 105816, Note_on_c, 0, 71, 70
2, 105922, Note_off_c, 0, 71, 64
2, 105932, Note_on_c, 0, 69, 59
2, 106016, Note_off_c, 0, 69, 64
2, 106065, Note_on_c, 0, 74, 78
2, 106176, Note_on_c, 0, 72, 66
2, 106200, Note_off_c, 0, 74, 64
2, 106299, Note_on_c, 0, 71, 60
2, 106305, Note_off_c, 0, 72, 64
2, 106420, Note_on_c, 0, 69, 58
2, 106425, Note_off_c, 0, 71, 64
2, 106494, Note_off_c, 0, 69, 64
2, 106543, Note_on_c, 0, 74, 80
2, 106623, Note_off_c, 0, 74, 64
2, 106790, Note_on_c, 0, 79, 85
2, 106885, Note_off_c, 0, 79, 64
2, 107028, Note_on_c, 0, 72, 80
2, 107074, Note_on_c, 0, 71, 85
2, 107080, Note_off_c, 0, 72, 64
2, 107119, Note_on_c, 0, 72, 66
2, 107124, Note_off_c, 0, 71, 64
2, 107158, Note_on_c, 0, 71, 72
2, 107172, Note_off_c, 0, 72, 64
2, 107237, Note_off_c, 0, 71, 64
2, 107254, Note_on_c, 0, 69, 66
2, 107361, Note_on_c, 0, 67, 58
2, 107362, Note_off_c, 0, 69, 64
2, 107450, Note_off_c, 0, 67, 64
2, 107510, Note_on_c, 0, 67, 54
2, 107767, Note_off_c, 0, 67, 64
2, 123348, Note_on_c, 0, 71, 72
2, 123429, Note_off_c, 0, 71, 64
2, 123586, Note_on_c, 0, 72, 66
2, 123658, Note_off_c, 0, 72, 64
2, 123823, Note_on_c, 0, 74, 80
2, 124023, Note_off_c, 0, 74, 64
2, 124052, Note_on_c, 0, 76, 78
2, 124134, Note_off_c, 0, 76, 64
2, 124145, Note_on_c, 0, 72, 64
2, 124219, Note_off_c, 0, 72, 64
2, 124275, Note_on_c, 0, 74, 70
2, 124349, Note_off_c, 0, 74, 64
2, 124529, Note_on_c, 0, 82, 72
2, 124618, Note_off_c, 0, 82, 64
2, 124794, Note_on_c, 0, 74, 78
2, 124840, Note_on_c, 0, 73, 85
2, 124850, Note_off_c, 0, 74, 64
2, 124882, Note_off_c, 0, 73, 64
2, 124887, Note_on_c, 0, 74, 80
2, 124918, Note_on_c, 0, 73, 64
2, 124955, Note_off_c, 0, 74, 64
2, 125017, Note_on_c, 0, 71, 63
2, 125018, Note_off_c, 0, 73, 64
2, 125102, Note_off_c, 0, 71, 64
2, 125118, Note_on_c, 0, 69, 60
2, 125224, Note_off_c, 0, 69, 64
2, 125244, Note_on_c, 0, 71, 64
2, 125338, Note_off_c, 0, 71, 64
2, 125361, Note_on_c, 0, 73, 47
2, 125453, Note_off_c, 0, 73, 64
2, 125479, Note_on_c, 0, 74, 60
2, 125574, Note_off_c, 0, 74, 64
2, 125595, Note_on_c, 0, 76, 64
2, 125681, Note_off_c, 0, 76, 64
2, 125720, Note_on_c, 0, 77, 74
2, 125933, Note_off_c, 0, 77, 64
2, 125979, Note_on_c, 0, 76, 64
2, 126067, Note_off_c, 0, 76, 64
2, 126081, Note_on_c, 0, 74, 59
2, 126165, Note_off_c, 0, 74, 64
2, 126212, Note_on_c, 0, 76, 80
2, 126283, Note_off_c, 0, 76, 64
2, 126327, Note_on_c, 0, 73, 52
2, 126418, Note_off_c, 0, 73, 64
2, 126454, Note_on_c, 0, 81, 89
2, 126545, Note_off_c, 0, 81, 64
2, 126699, Note_on_c, 0, 79, 80
2, 126738, Note_on_c, 0, 77, 82
2, 126746, Note_off_c, 0, 79, 64
2, 126785, Note_on_c, 0, 79, 76
2, 126791, Note_off_c, 0, 77, 64
2, 126827, Note_on_c, 0, 77, 74
2, 126846, Note_off_c, 0, 79, 64
2, 126916, Note_off_c, 0, 77, 64
2, 126919, Note_on_c, 0, 76, 66
2, 127016, Note_off_c, 0, 76, 64
2, 127023, Note_on_c, 0, 74, 48
2, 127104, Note_off_c, 0, 74, 64
2, 127164, Note_on_c, 0, 79, 82
2, 127276, Note_on_c, 0, 77, 68
2, 127285, Note_off_c, 0, 79, 64
2, 127394, Note_on_c, 0, 76, 52
2, 127406, Note_off_c, 0, 77, 64
2, 127495, Note_off_c, 0, 76, 64
2, 127511, Note_on_c, 0, 74, 51
2, 127586, Note_off_c, 0, 74, 64
2, 127642, Note_on_c, 0, 76, 80
2, 127849, Note_off_c, 0, 76, 64
2, 127891, Note_on_c, 0, 77, 68
2, 127975, Note_off_c, 0, 77, 64
2, 127999, Note_on_c, 0, 74, 52
2, 128086, Note_off_c, 0, 74, 64
2, 128130, Note_on_c, 0, 76, 68
2, 128218, Note_off_c, 0, 76, 64
2, 128241, Note_on_c, 0, 72, 59
2, 128307, Note_off_c, 0, 72, 64
2, 128368, Note_on_c, 0, 77, 82
2, 128461, Note_off_c, 0, 77, 64
2, 128617, Note_on_c, 0, 76, 72
2, 128663, Note_on_c, 0, 74, 91
2, 128676, Note_off_c, 0, 76, 64
2, 128705, Note_on_c, 0, 76, 64
2, 128712, Note_off_c, 0, 74, 64
2, 128748, Note_on_c, 0, 74, 76
2, 128780, Note_off_c, 0, 76, 64
2, 128863, Note_off_c, 0, 74, 64
2, 128870, Note_on_c, 0, 72, 52
2, 128971, Note_off_c, 0, 72, 64
2, 128983, Note_on_c, 0, 71, 53
2, 129056, Note_off_c, 0, 71, 64
2, 129101, Note_on_c, 0, 76, 82
2, 129208, Note_on_c, 0, 74, 60
2, 129222, Note_off_c, 0, 76, 64
2, 129325, Note_off_c, 0, 74, 64
2, 129325, Note_on_c, 0, 72, 52
2, 129428, Note_off_c, 0, 72, 64
2, 129441, Note_on_c, 0, 71, 48
2, 129505, Note_off_c, 0, 71, 64
2, 129554, Note_on_c, 0, 74, 82
2, 129664, Note_on_c, 0, 72, 58
2, 129691, Note_off_c, 0, 74, 64
2, 129812, Note_on_c, 0, 71, 52
2, 129814, Note_off_c, 0, 72, 64
2, 129916, Note_off_c, 0, 71, 64
2, 129927, Note_on_c, 0, 69, 52
2, 130022, Note_off_c, 0, 69, 64
2, 130050, Note_on_c, 0, 71, 76
2, 130134, Note_off_c, 0, 71, 64
2, 130293, Note_on_c, 0, 68, 68
2, 130365, Note_off_c, 0, 68, 64
2, 130552, Note_on_c, 0, 69, 68
2, 130856, Note_off_c, 0, 69, 64
2, 131015, Note_on_c, 0, 72, 70
2, 131091, Note_off_c, 0, 72, 64
2, 131256, Note_on_c, 0, 76, 82
2, 131344, Note_off_c, 0, 76, 64
2, 131504, Note_on_c, 0, 69, 66
2, 131717, Note_off_c, 0, 69, 64
2, 131758, Note_on_c, 0, 71, 68
2, 131845, Note_off_c, 0, 71, 64
2, 131866, Note_on_c, 0, 72, 72
2, 131942, Note_off_c, 0, 72, 64
2, 131979, Note_on_c, 0, 74, 68
2, 132070, Note_off_c, 0, 74, 64
2, 132093, Note_on_c, 0, 76, 78
2, 132184, Note_off_c, 0, 76, 64
2, 132217, Note_on_c, 0, 77, 82
2, 132600, Note_off_c, 0, 77, 64
2, 132720, Note_on_c, 0, 71, 64
2, 132807, Note_off_c, 0, 71, 64
2, 132950, Note_on_c, 0, 76, 66
2, 133032, Note_off_c, 0, 76, 64
2, 133177, Note_on_c, 0, 79, 87
2, 133262, Note_off_c, 0, 79, 64
2, 133415, Note_on_c, 0, 72, 72
2, 133638, Note_off_c, 0, 72, 64
2, 133663, Note_on_c, 0, 74, 70
2, 133749, Note_off_c, 0, 74, 64
2, 133766, Note_on_c, 0, 76, 64
2, 133850, Note_off_c, 0, 76, 64
2, 133880, Note_on_c, 0, 77, 80
2, 133988, Note_on_c, 0, 79, 74
2, 134001, Note_off_c, 0, 77, 64
2, 134073, Note_off_c, 0, 79, 64
2, 134118, Note_on_c, 0, 81, 80
2, 134557, Note_off_c, 0, 81, 64
2, 134622, Note_on_c, 0, 79, 70
2, 134705, Note_off_c, 0, 79, 64
2, 134728, Note_on_c, 0, 77, 68
2, 134812, Note_off_c, 0, 77, 64
2, 134845, Note_on_c, 0, 76, 70
2, 134924, Note_off_c, 0, 76, 64
2, 134954, Note_on_c, 0, 74, 68
2, 135036, Note_off_c, 0, 74, 64
2, 135096, Note_on_c, 0, 79, 85
2, 135196, Note_off_c, 0, 79, 64
2, 135327, Note_on_c, 0, 70, 72
2, 135526, Note_off_c, 0, 70, 64
2, 135569, Note_on_c, 0, 72, 66
2, 135634, Note_off_c, 0, 72, 64
2, 135679, Note_on_c, 0, 69, 63
2, 135767, Note_off_c, 0, 69, 64
2, 135807, Note_on_c, 0, 70, 58
2, 135905, Note_off_c, 0, 70, 64
2, 136059, Note_on_c, 0, 79, 82
2, 136158, Note_off_c, 0, 79, 64
2, 136299, Note_on_c, 0, 70, 78
2, 136402, Note_on_c, 0, 69, 64
2, 136428, Note_off_c, 0, 70, 64
2, 136527, Note_off_c, 0, 69, 64
2, 136529, Note_on_c, 0, 67, 48
2, 136645, Note_off_c, 0, 67, 64
2, 136651, Note_on_c, 0, 65, 53
2, 136726, Note_off_c, 0, 65, 64
2, 136777, Note_on_c, 0, 72, 89
2, 136896, Note_on_c, 0, 71, 68
2, 136911, Note_off_c, 0, 72, 64
2, 136995, Note_off_c, 0, 71, 64
2, 137004, Note_on_c, 0, 69, 55
2, 137093, Note_off_c, 0, 69, 64
2, 137113, Note_on_c, 0, 67, 56
2, 137222, Note_off_c, 0, 67, 64
2, 137245, Note_on_c, 0, 79, 85
2, 137352, Note_off_c, 0, 79, 64
2, 137493, Note_on_c, 0, 81, 82
2, 137590, Note_off_c, 0, 81, 64
2, 137736, Note_on_c, 0, 77, 87
2, 137783, Note_on_c, 0, 76, 53
2, 137787, Note_off_c, 0, 77, 64
2, 137821, Note_on_c, 0, 77, 70
2, 137836, Note_off_c, 0, 76, 64
2, 137859, Note_on_c, 0, 76, 60
2, 137876, Note_off_c, 0, 77, 64
2, 137965, Note_off_c, 0, 76, 64
2, 137971, Note_on_c, 0, 74, 72
2, 138065, Note_off_c, 0, 74, 64
2, 138079, Note_on_c, 0, 72, 56
2, 138134, Note_off_c, 0, 72, 64
2, 138223, Note_on_c, 0, 72, 63
2, 138513, Note_off_c, 0, 72, 64
2, 138513, End_track
3, 0, Start_track
3, 0, Title_t, "Violin2"
3, 0, Program_c, 1, 40
3, 0, Control_c, 1, 7, 100
3, 478, Note_on_c, 1, 72, 68
3, 544, Note_off_c, 1, 72, 64
3, 710, Note_on_c, 1, 72, 66
3, 779, Note_off_c, 1, 72, 64
3, 953, Note_on_c, 1, 72, 80
3, 1139, Note_off_c, 1, 72, 64
3, 1169, Note_on_c, 1, 71, 47
3, 1264, Note_off_c, 1, 71, 64
3, 1417, Note_on_c, 1, 72, 57
3, 1495, Note_off_c, 1, 72, 64
3, 1675, Note_on_c, 1, 72, 80
3, 1741, Note_off_c, 1, 72, 64
3, 1922, Note_on_c, 1, 72, 91
3, 2129, Note_off_c, 1, 72, 64
3, 2146, Note_on_c, 1, 74, 57
3, 2248, Note_off_c, 1, 74, 64
3, 2379, Note_on_c, 1, 71, 59
3, 2457, Note_off_c, 1, 71, 64
3, 2624, Note_on_c, 1, 72, 68
3, 2699, Note_off_c, 1, 72, 64
3, 2864, Note_on_c, 1, 74, 76
3, 3072, Note_off_c, 1, 74, 64
3, 3116, Note_on_c, 1, 76, 64
3, 3194, Note_off_c, 1, 76, 64
3, 3226, Note_on_c, 1, 72, 66
3, 3290, Note_off_c, 1, 72, 64
3, 3342, Note_on_c, 1, 74, 68
3, 3434, Note_off_c, 1, 74, 64
3, 3583, Note_on_c, 1, 71, 68
3, 3660, Note_off_c, 1, 71, 64
3, 3823, Note_on_c, 1, 72, 68
3, 4162, Note_off_c, 1, 72, 64
3, 4297, Note_on_c, 1, 67, 68
3, 4385, Note_off_c, 1, 67, 64
3, 4537, Note_on_c, 1, 69, 60
3, 4628, Note_off_c, 1, 69, 64
3, 4780, Note_on_c, 1, 68, 64
3, 4938, Note_off_c, 1, 68, 64
3, 5024, Note_on_c, 1, 69, 66
3, 5121, Note_off_c, 1, 69, 64
3, 5259, Note_on_c, 1, 64, 58
3, 5345, Note_off_c, 1, 64, 64
3, 5492, Note_on_c, 1, 68, 64
3, 5604, Note_off_c, 1, 68, 64
3, 5738, Note_on_c, 1, 69, 68
3, 5894, Note_off_c, 1, 69, 64
3, 5972, Note_on_c, 1, 64, 55
3, 6067, Note_off_c, 1, 64, 64
3, 6205, Note_on_c, 1, 69, 80
3, 6326, Note_off_c, 1, 69, 64
3, 6456, Note_on_c, 1, 66, 62
3, 6574, Note_off_c, 1, 66, 64
3, 6708, Note_on_c, 1, 67, 72
3, 6813, Note_off_c, 1, 67, 64
3, 6947, Note_on_c, 1, 71, 80
3, 7057, Note_off_c, 1, 71, 64
3, 7188, Note_on_c, 1, 67, 68
3, 7289, Note_off_c, 1, 67, 64
3, 7426, Note_on_c, 1, 66, 63
3, 7517, Note_off_c, 1, 66, 64
3, 7680, Note_on_c, 1, 62, 63
3, 7970, Note_off_c, 1, 62, 64
3, 8165, Note_on_c, 1, 72, 70
3, 8241, Note_off_c, 1, 72, 64
3, 8405, Note_on_c, 1, 72, 70
3, 8492, Note_off_c, 1, 72, 64
3, 8637, Note_on_c, 1, 72, 80
3, 8829, Note_off_c, 1, 72, 64
3, 8866, Note_on_c, 1, 71, 48
3, 8958, Note_off_c, 1, 71, 64
3, 9115, Note_on_c, 1, 72, 64
3, 9202, Note_off_c, 1, 72, 64
3, 9359, Note_on_c, 1, 72, 68
3, 9444, Note_off_c, 1, 72, 64
3, 9602, Note_on_c, 1, 72, 87
3, 9792, Note_off_c, 1, 72, 64
3, 9824, Note_on_c, 1, 74, 63
3, 9923, Note_off_c, 1, 74, 64
3, 10058, Note_on_c, 1, 71, 59
3, 10139, Note_off_c, 1, 71, 64
3, 10305, Note_on_c, 1, 72, 66
3, 10385, Note_off_c, 1, 72, 64
3, 10549, Note_on_c, 1, 74, 68
3, 10742, Note_off_c, 1, 74, 64
3, 10788, Note_on_c, 1, 76, 63
3, 10860, Note_off_c, 1, 76, 64
3, 10899, Note_on_c, 1, 72, 64
3, 10960, Note_off_c, 1, 72, 64
3, 11025, Note_on_c, 1, 74, 72
3, 11120, Note_off_c, 1, 74, 64
3, 11255, Note_on_c, 1, 71, 61
3, 11341, Note_off_c, 1, 71, 64
3, 11514, Note_on_c, 1, 72, 70
3, 11851, Note_off_c, 1, 72, 64
3, 11979, Note_on_c, 1, 67, 60
3, 12061, Note_off_c, 1, 67, 64
3, 12228, Note_on_c, 1, 69, 60
3, 12318, Note_off_c, 1, 69, 64
3, 12460, Note_on_c, 1, 68, 63
3, 12574, Note_off_c, 1, 68, 64
3, 12711, Note_on_c, 1, 69, 66
3, 12792, Note_off_c, 1, 69, 64
3, 12957, Note_on_c, 1, 64, 60
3, 13040, Note_off_c, 1, 64, 64
3, 13188, Note_on_c, 1, 68, 63
3, 13280, Note_off_c, 1, 68, 64
3, 13430, Note_on_c, 1, 69, 82
3, 13605, Note_off_c, 1, 69, 64
3, 13668, Note_on_c, 1, 64, 57
3, 13752, Note_off_c, 1, 64, 64
3, 13902, Note_on_c, 1, 69, 68
3, 13990, Note_off_c, 1, 69, 64
3, 14139, Note_on_c, 1, 66, 61
3, 14250, Note_off_c, 1, 66, 64
3, 14388, Note_on_c, 1, 67, 74
3, 14486, Note_off_c, 1, 67, 64
3, 14628, Note_on_c, 1, 71, 70
3, 14731, Note_off_c, 1, 71, 64
3, 14867, Note_on_c, 1, 67, 68
3, 14963, Note_off_c, 1, 67, 64
3, 15111, Note_on_c, 1, 66, 68
3, 15189, Note_off_c, 1, 66, 64
3, 15352, Note_on_c, 1, 62, 68
3, 15674, Note_off_c, 1, 62, 64
3, 31205, Note_on_c, 1, 67, 72
3, 31282, Note_off_c, 1, 67, 64
3, 31436, Note_on_c, 1, 67, 72
3, 31521, Note_off_c, 1, 67, 64
3, 31666, Note_on_c, 1, 71, 66
3, 31881, Note_off_c, 1, 71, 64
3, 31908, Note_on_c, 1, 72, 68
3, 31983, Note_off_c, 1, 72, 64
3, 32010, Note_on_c, 1, 69, 53
3, 32072, Note_off_c, 1, 69, 64
3, 32143, Note_on_c, 1, 71, 72
3, 32235, Note_off_c, 1, 71, 64
3, 32373, Note_on_c, 1, 67, 56
3, 32474, Note_off_c, 1, 67, 64
3, 32611, Note_on_c, 1, 69, 59
3, 32995, Note_off_c, 1, 69, 64
3, 33110, Note_on_c, 1, 62, 64
3, 33195, Note_off_c, 1, 62, 64
3, 33332, Note_on_c, 1, 69, 62
3, 33421, Note_off_c, 1, 69, 64
3, 33573, Note_on_c, 1, 69, 68
3, 33756, Note_off_c, 1, 69, 64
3, 33804, Note_on_c, 1, 67, 60
3, 33894, Note_off_c, 1, 67, 64
3, 34064, Note_on_c, 1, 73, 66
3, 34156, Note_off_c, 1, 73, 64
3, 34311, Note_on_c, 1, 73, 63
3, 34406, Note_off_c, 1, 73, 64
3, 34558, Note_on_c, 1, 74, 72
3, 34902, Note_off_c, 1, 74, 64
3, 35026, Note_on_c, 1, 74, 66
3, 35116, Note_off_c, 1, 74, 64
3, 35255, Note_on_c, 1, 71, 51
3, 35340, Note_off_c, 1, 71, 64
3, 35499, Note_on_c, 1, 72, 64
3, 35830, Note_off_c, 1, 72, 64
3, 35985, Note_on_c, 1, 72, 68
3, 36062, Note_off_c, 1, 72, 64
3, 36224, Note_on_c, 1, 69, 57
3, 36305, Note_off_c, 1, 69, 64
3, 36471, Note_on_c, 1, 68, 62
3, 36800, Note_off_c, 1, 68, 64
3, 36947, Note_on_c, 1, 64, 55
3, 37034, Note_off_c, 1, 64, 64
3, 37183, Note_on_c, 1, 68, 57
3, 37276, Note_off_c, 1, 68, 64
3, 37422, Note_on_c, 1, 69, 66
3, 37524, Note_off_c, 1, 69, 64
3, 37656, Note_on_c, 1, 60, 63
3, 37747, Note_off_c, 1, 60, 64
3, 37898, Note_on_c, 1, 65, 66
3, 37991, Note_off_c, 1, 65, 64
3, 38146, Note_on_c, 1, 64, 68
3, 38220, Note_off_c, 1, 64, 64
3, 38397, Note_on_c, 1, 64, 63
3, 38722, Note_off_c, 1, 64, 64
3, 38873, Note_on_c, 1, 64, 64
3, 38960, Note_off_c, 1, 64, 64
3, 39109, Note_on_c, 1, 67, 60
3, 39194, Note_off_c, 1, 67, 64
3, 39350, Note_on_c, 1, 69, 66
3, 39533, Note_off_c, 1, 69, 64
3, 39588, Note_on_c, 1, 67, 48
3, 39688, Note_off_c, 1, 67, 64
3, 39825, Note_on_c, 1, 69, 59
3, 39900, Note_off_c, 1, 69, 64
3, 40066, Note_on_c, 1, 69, 68
3, 40145, Note_off_c, 1, 69, 64
3, 40305, Note_on_c, 1, 71, 62
3, 40679, Note_off_c, 1, 71, 64
3, 40786, Note_on_c, 1, 71, 63
3, 40875, Note_off_c, 1, 71, 64
3, 41029, Note_on_c, 1, 71, 58
3, 41124, Note_off_c, 1, 71, 64
3, 41259, Note_on_c, 1, 69, 63
3, 41435, Note_off_c, 1, 69, 64
3, 41503, Note_on_c, 1, 71, 60
3, 41615, Note_off_c, 1, 71, 64
3, 41748, Note_on_c, 1, 72, 63
3, 41848, Note_off_c, 1, 72, 64
3, 41989, Note_on_c, 1, 72, 76
3, 42074, Note_off_c, 1, 72, 64
3, 42233, Note_on_c, 1, 74, 82
3, 42574, Note_off_c, 1, 74, 64
3, 42707, Note_on_c, 1, 69, 64
3, 42792, Note_off_c, 1, 69, 64
3, 42931, Note_on_c, 1, 71, 72
3, 43020, Note_off_c, 1, 71, 64
3, 43180, Note_on_c, 1, 67, 68
3, 43357, Note_off_c, 1, 67, 64
3, 43422, Note_on_c, 1, 67, 68
3, 43506, Note_off_c, 1, 67, 64
3, 43648, Note_on_c, 1, 67, 60
3, 43753, Note_off_c, 1, 67, 64
3, 43893, Note_on_c, 1, 67, 60
3, 44000, Note_off_c, 1, 67, 64
3, 44139, Note_on_c, 1, 65, 68
3, 44502, Note_off_c, 1, 65, 64
3, 44617, Note_on_c, 1, 69, 57
3, 44738, Note_off_c, 1, 69, 64
3, 44854, Note_on_c, 1, 71, 59
3, 44977, Note_off_c, 1, 71, 64
3, 45085, Note_on_c, 1, 72, 66
3, 45222, Note_off_c, 1, 72, 64
3, 45333, Note_on_c, 1, 72, 70
3, 45438, Note_off_c, 1, 72, 64
3, 45576, Note_on_c, 1, 72, 78
3, 45682, Note_off_c, 1, 72, 64
3, 45810, Note_on_c, 1, 71, 64
3, 45909, Note_off_c, 1, 71, 64
3, 46065, Note_on_c, 1, 67, 55
3, 46433, Note_off_c, 1, 67, 64
3, 62608, Note_on_c, 1, 62, 54
3, 62772, Note_off_c, 1, 62, 64
3, 62854, Note_on_c, 1, 65, 57
3, 62987, Note_off_c, 1, 65, 64
3, 63087, Note_on_c, 1, 69, 59
3, 63228, Note_off_c, 1, 69, 64
3, 63336, Note_on_c, 1, 74, 53
3, 63501, Note_off_c, 1, 74, 64
3, 63570, Note_on_c, 1, 69, 51
3, 63718, Note_off_c, 1, 69, 64
3, 63817, Note_on_c, 1, 65, 43
3, 63963, Note_off_c, 1, 65, 64
3, 64058, Note_on_c, 1, 62, 53
3, 64206, Note_off_c, 1, 62, 64
3, 64290, Note_on_c, 1, 69, 45
3, 64471, Note_off_c, 1, 69, 64
3, 64530, Note_on_c, 1, 69, 50
3, 64603, Note_off_c, 1, 69, 64
3, 64658, Note_on_c, 1, 69, 53
3, 64725, Note_off_c, 1, 69, 64
3, 64782, Note_on_c, 1, 69, 53
3, 64935, Note_off_c, 1, 69, 64
3, 65018, Note_on_c, 1, 69, 45
3, 65170, Note_off_c, 1, 69, 64
3, 65275, Note_on_c, 1, 69, 51
3, 66247, Note_off_c, 1, 69, 64
3, 67415, Note_on_c, 1, 60, 52
3, 67551, Note_off_c, 1, 60, 64
3, 67649, Note_on_c, 1, 64, 57
3, 67773, Note_off_c, 1, 64, 64
3, 67893, Note_on_c, 1, 67, 53
3, 68005, Note_off_c, 1, 67, 64
3, 68133, Note_on_c, 1, 72, 51
3, 68257, Note_off_c, 1, 72, 64
3, 68369, Note_on_c, 1, 67, 51
3, 68512, Note_off_c, 1, 67, 64
3, 68620, Note_on_c, 1, 64, 56
3, 68742, Note_off_c, 1, 64, 64
3, 68853, Note_on_c, 1, 60, 51
3, 68986, Note_off_c, 1, 60, 64
3, 69075, Note_on_c, 1, 67, 49
3, 69261, Note_off_c, 1, 67, 64
3, 69333, Note_on_c, 1, 67, 52
3, 69395, Note_off_c, 1, 67, 64
3, 69461, Note_on_c, 1, 67, 60
3, 69526, Note_off_c, 1, 67, 64
3, 69585, Note_on_c, 1, 67, 58
3, 69721, Note_off_c, 1, 67, 64
3, 69824, Note_on_c, 1, 67, 53
3, 69950, Note_off_c, 1, 67, 64
3, 70066, Note_on_c, 1, 67, 57
3, 70611, Note_off_c, 1, 67, 64
3, 70620, Note_on_c, 1, 64, 54
3, 70680, Note_on_c, 1, 67, 63
3, 70688, Note_off_c, 1, 64, 64
3, 70729, Note_off_c, 1, 67, 64
3, 70773, Note_on_c, 1, 67, 64
3, 70852, Note_on_c, 1, 64, 51
3, 70856, Note_off_c, 1, 67, 64
3, 70911, Note_off_c, 1, 64, 64
3, 70916, Note_on_c, 1, 67, 53
3, 70984, Note_off_c, 1, 67, 64
3, 71025, Note_on_c, 1, 72, 57
3, 71154, Note_off_c, 1, 72, 64
3, 71262, Note_on_c, 1, 67, 48
3, 71393, Note_off_c, 1, 67, 64
3, 71501, Note_on_c, 1, 64, 52
3, 71618, Note_off_c, 1, 64, 64
3, 71740, Note_on_c, 1, 60, 52
3, 71868, Note_off_c, 1, 60, 64
3, 71968, Note_on_c, 1, 67, 49
3, 72161, Note_off_c, 1, 67, 64
3, 72218, Note_on_c, 1, 67, 55
3, 72270, Note_off_c, 1, 67, 64
3, 72324, Note_on_c, 1, 67, 54
3, 72383, Note_off_c, 1, 67, 64
3, 72457, Note_on_c, 1, 67, 48
3, 72601, Note_off_c, 1, 67, 64
3, 72696, Note_on_c, 1, 67, 53
3, 72839, Note_off_c, 1, 67, 64
3, 72944, Note_on_c, 1, 67, 51
3, 74400, Note_off_c, 1, 67, 64
3, 92638, Note_on_c, 1, 72, 68
3, 92704, Note_off_c, 1, 72, 64
3, 92870, Note_on_c, 1, 72, 66
3, 92939, Note_off_c, 1, 72, 64
3, 93113, Note_on_c, 1, 72, 80
3, 93299, Note_off_c, 1, 72, 64
3, 93329, Note_on_c, 1, 71, 47
3, 93424, Note_off_c, 1, 71, 64
3, 93577, Note_on_c, 1, 72, 57
3, 93655, Note_off_c, 1, 72, 64
3, 93835, Note_on_c, 1, 72, 80
3, 93901, Note_off_c, 1, 72, 64
3, 94082, Note_on_c, 1, 72, 91
3, 94289, Note_off_c, 1, 72, 64
3, 94306, Note_on_c, 1, 74, 57
3, 94408, Note_off_c, 1, 74, 64
3, 94539, Note_on_c, 1, 71, 59
3, 94617, Note_off_c, 1, 71, 64
3, 94784, Note_on_c, 1, 72, 68
3, 94859, Note_off_c, 1, 72, 64
3, 95024, Note_on_c, 1, 74, 76
3, 95232, Note_off_c, 1, 74, 64
3, 95276, Note_on_c, 1, 76, 64
3, 95354, Note_off_c, 1, 76, 64
3, 95386, Note_on_c, 1, 72, 66
3, 95450, Note_off_c, 1, 72, 64
3, 95502, Note_on_c, 1, 74, 68
3, 95594, Note_off_c, 1, 74, 64
3, 95743, Note_on_c, 1, 71, 68
3, 95820, Note_off_c, 1, 71, 64
3, 95983, Note_on_c, 1, 72, 68
3, 96322, Note_off_c, 1, 72, 64
3, 96457, Note_on_c, 1, 67, 68
3, 96545, Note_off_c, 1, 67, 64
3, 96697, Note_on_c, 1, 69, 60
3, 96788, Note_off_c, 1, 69, 64
3, 96940, Note_on_c, 1, 68, 64
3, 97098, Note_off_c, 1, 68, 64
3, 97184, Note_on_c, 1, 69, 66
3, 97281, Note_off_c, 1, 69, 64
3, 97419, Note_on_c, 1, 64, 58
3, 97505, Note_off_c, 1, 64, 64
3, 97652, Note_on_c, 1, 68, 64
3, 97764, Note_off_c, 1, 68, 64
3, 97898, Note_on_c, 1, 69, 68
3, 98054, Note_off_c, 1, 69, 64
3, 98132, Note_on_c, 1, 64, 55
3, 98227, Note_off_c, 1, 64, 64
3, 98365, Note_on_c, 1, 69, 80
3, 98486, Note_off_c, 1, 69, 64
3, 98616, Note_on_c, 1, 66, 62
3, 98734, Note_off_c, 1, 66, 64
3, 98868, Note_on_c, 1, 67, 72
3, 98973, Note_off_c, 1, 67, 64
3, 99107, Note_on_c, 1, 71, 80
3, 99217, Note_off_c, 1, 71, 64
3, 99348, Note_on_c, 1, 67, 68
3, 99449, Note_off_c, 1, 67, 64
3, 99586, Note_on_c, 1, 66, 63
3, 99677, Note_off_c, 1, 66, 64
3, 99840, Note_on_c, 1, 62, 63
3, 100130, Note_off_c, 1, 62, 64
3, 100325, Note_on_c, 1, 72, 70
3, 100401, Note_off_c, 1, 72, 64
3, 100565, Note_on_c, 1, 72, 70
3, 100652, Note_off_c, 1, 72, 64
3, 100797, Note_on_c, 1, 72, 80
3, 100989, Note_off_c, 1, 72, 64
3, 101026, Note_on_c, 1, 71, 48
3, 101118, Note_off_c, 1, 71, 64
3, 101275, Note_on_c, 1, 72, 64
3, 101362, Note_off_c, 1, 72, 64
3, 101519, Note_on_c, 1, 72, 68
3, 101604, Note_off_c, 1, 72, 64
3, 101762, Note_on_c, 1, 72, 87
3, 101952, Note_off_c, 1, 72, 64
3, 101984, Note_on_c, 1, 74, 63
3, 102083, Note_off_c, 1, 74, 64
3, 102218, Note_on_c, 1, 71, 59
3, 102299, Note_off_c, 1, 71, 64
3, 102465, Note_on_c, 1, 72, 66
3, 102545, Note_off_c, 1, 72, 64
3, 102709, Note_on_c, 1, 74, 68
3, 102902, Note_off_c, 1, 74, 64
3, 102948, Note_on_c, 1, 76, 63
3, 103020, Note_off_c, 1, 76, 64
3, 103059, Note_on_c, 1, 72, 64
3, 103120, Note_off_c, 1, 72, 64
3, 103185, Note_on_c, 1, 74, 72
3, 103280, Note_off_c, 1, 74, 64
3, 103415, Note_on_c, 1, 71, 61
3, 103501, Note_off_c, 1, 71, 64
3, 103674, Note_on_c, 1, 72, 70
3, 104011, Note_off_c, 1, 72, 64
3, 104139, Note_on_c, 1, 67, 60
3, 104221, Note_off_c, 1, 67, 64
3, 104388, Note_on_c, 1, 69, 60
3, 104478, Note_off_c, 1, 69, 64
3, 104620, Note_on_c, 1, 68, 63
3, 104734, Note_off_c, 1, 68, 64
3, 104871, Note_on_c, 1, 69, 66
3, 104952, Note_off_c, 1, 69, 64
3, 105117, Note_on_c, 1, 64, 60
3, 105200, Note_off_c, 1, 64, 64
3, 105348, Note_on_c, 1, 68, 63
3, 105440, Note_off_c, 1, 68, 64
3, 105590, Note_on_c, 1, 69, 82
3, 105765, Note_off_c, 1, 69, 64
3, 105828, Note_on_c, 1, 64, 57
3, 105912, Note_off_c, 1, 64, 64
3, 106062, Note_on_c, 1, 69, 68
3, 106150, Note_off_c, 1, 69, 64
3, 106299, Note_on_c, 1, 66, 61
3, 106410, Note_off_c, 1, 66, 64
3, 106548, Note_on_c, 1, 67, 74
3, 106646, Note_off_c, 1, 67, 64
3, 106788, Note_on_c, 1, 71, 70
3, 106891, Note_off_c, 1, 71, 64
3, 107027, Note_on_c, 1, 67, 68
3, 107123, Note_off_c, 1, 67, 64
3, 107271, Note_on_c, 1, 66, 68
3, 107349, Note_off_c, 1, 66, 64
3, 107512, Note_on_c, 1, 62, 68
3, 107834, Note_off_c, 1, 62, 64
3, 123365, Note_on_c, 1, 67, 72
3, 123442, Note_off_c, 1, 67, 64
3, 123596, Note_on_c, 1, 67, 72
3, 123681, Note_off_c, 1, 67, 64
3, 123826, Note_on_c, 1, 71, 66
3, 124041, Note_off_c, 1, 71, 64
3, 124068, Note_on_c, 1, 72, 68
3, 124143, Note_off_c, 1, 72, 64
3, 124170, Note_on_c, 1, 69, 53
3, 124232, Note_off_c, 1, 69, 64
3, 124303, Note_on_c, 1, 71, 72
3, 124395, Note_off_c, 1, 71, 64
3, 124533, Note_on_c, 1, 67, 56
3, 124634, Note_off_c, 1, 67, 64
3, 124771, Note_on_c, 1, 69, 59
3, 125155, Note_off_c, 1, 69, 64
3, 125270, Note_on_c, 1, 62, 64
3, 125355, Note_off_c, 1, 62, 64
3, 125492, Note_on_c, 1, 69, 62
3, 125581, Note_off_c, 1, 69, 64
3, 125733, Note_on_c, 1, 69, 68
3, 125916, Note_off_c, 1, 69, 64
3, 125964, Note_on_c, 1, 67, 60
3, 126054, Note_off_c, 1, 67, 64
3, 126224, Note_on_c, 1, 73, 66
3, 126316, Note_off_c, 1, 73, 64
3, 126471, Note_on_c, 1, 73, 63
3, 126566, Note_off_c, 1, 73, 64
3, 126718, Note_on_c, 1, 74, 72
3, 127062, Note_off_c, 1, 74, 64
3, 127186, Note_on_c, 1, 74, 66
3, 127276, Note_off_c, 1, 74, 64
3, 127415, Note_on_c, 1, 71, 51
3, 127500, Note_off_c, 1, 71, 64
3, 127659, Note_on_c, 1, 72, 64
3, 127990, Note_off_c, 1, 72, 64
3, 128145, Note_on_c, 1, 72, 68
3, 128222, Note_off_c, 1, 72, 64
3, 128384, Note_on_c, 1, 69, 57
3, 128465, Note_off_c, 1, 69, 64
3, 128631, Note_on_c, 1, 68, 62
3, 128960, Note_off_c, 1, 68, 64
3, 129107, Note_on_c, 1, 64, 55
3, 129194, Note_off_c, 1, 64, 64
3, 129343, Note_on_c, 1, 68, 57
3, 129436, Note_off_c, 1, 68, 64
3, 129582, Note_on_c, 1, 69, 66
3, 129684, Note_off_c, 1, 69, 64
3, 129816, Note_on_c, 1, 60, 63
3, 129907, Note_off_c, 1, 60, 64
3, 130058, Note_on_c, 1, 65, 66
3, 130151, Note_off_c, 1, 65, 64
3, 130306, Note_on_c, 1, 64, 68
3, 130380, Note_off_c, 1, 64, 64
3, 130557, Note_on_c, 1, 64, 63
3, 130882, Note_off_c, 1, 64, 64
3, 131033, Note_on_c, 1, 64, 64
3, 131120, Note_off_c, 1, 64, 64
3, 131269, Note_on_c, 1, 67, 60
3, 131354, Note_off_c, 1, 67, 64
3, 131510, Note_on_c, 1, 69, 66
3, 131693, Note_off_c, 1, 69, 64
3, 131748, Note_on_c, 1, 67, 48
3, 131848, Note_off_c, 1, 67, 64
3, 131985, Note_on_c, 1, 69, 59
3, 132060, Note_off_c, 1, 69, 64
3, 132226, Note_on_c, 1, 69, 68
3, 132305, Note_off_c, 1, 69, 64
3, 132465, Note_on_c, 1, 71, 62
3, 132839, Note_off_c, 1, 71, 64
3, 132946, Note_on_c, 1, 71, 63
3, 133035, Note_off_c, 1, 71, 64
3, 133189, Note_on_c, 1, 71, 58
3, 133284, Note_off_c, 1, 71, 64
3, 133419, Note_on_c, 1, 69, 63
3, 133595, Note_off_c, 1, 69, 64
3, 133663, Note_on_c, 1, 71, 60
3, 133775, Note_off_c, 1, 71, 64
3, 133908, Note_on_c, 1, 72, 63
3, 134008, Note_off_c, 1, 72, 64
3, 134149, Note_on_c, 1, 72, 76
3, 134234, Note_off_c, 1, 72, 64
3, 134393, Note_on_c, 1, 74, 82
3, 134734, Note_off_c, 1, 74, 64
3, 134867, Note_on_c, 1, 69, 64
3, 134952, Note_off_c, 1, 69, 64
3, 135091, Note_on_c, 1, 71, 72
3, 135180, Note_off_c, 1, 71, 64
3, 135340, Note_on_c, 1, 67, 68
3, 135517, Note_off_c, 1, 67, 64
3, 135582, Note_on_c, 1, 67, 68
3, 135666, Note_off_c, 1, 67, 64
3, 135808, Note_on_c, 1, 67, 60
3, 135913, Note_off_c, 1, 67, 64
3, 136053, Note_on_c, 1, 67, 60
3, 136160, Note_off_c, 1, 67, 64
3, 136299, Note_on_c, 1, 65, 68
3, 136662, Note_off_c, 1, 65, 64
3, 136777, Note_on_c, 1, 69, 57
3, 136898, Note_off_c, 1, 69, 64
3, 137014, Note_on_c, 1, 71, 59
3, 137137, Note_off_c, 1, 71, 64
3, 137245, Note_on_c, 1, 72, 66
3, 137382, Note_off_c, 1, 72, 64
3, 137493, Note_on_c, 1, 72, 70
3, 137598, Note_off_c, 1, 72, 64
3, 137736, Note_on_c, 1, 72, 78
3, 137842, Note_off_c, 1, 72, 64
3, 137970, Note_on_c, 1, 71, 64
3, 138069, Note_off_c, 1, 71, 64
3, 138225, Note_on_c, 1, 67, 55
3, 138593, Note_off_c, 1, 67, 64
3, 138593, End_track
4, 0, Start_track
4, 0, Title_t, "Viola"
4, 0, Program_c, 2, 41
4, 0, Control_c, 2, 7, 100
4, 469, Note_on_c, 2, 67, 74
4, 553, Note_off_c, 2, 67, 64
4, 700, Note_on_c, 2, 69, 70
4, 801, Note_off_c, 2, 69, 64
4, 935, Note_on_c, 2, 67, 70
4, 1116, Note_off_c, 2, 67, 64
4, 1185, Note_on_c, 2, 65, 59
4, 1272, Note_off_c, 2, 65, 64
4, 1418, Note_on_c, 2, 64, 63
4, 1498, Note_off_c, 2, 64, 64
4, 1663, Note_on_c, 2, 64, 66
4, 1732, Note_off_c, 2, 64, 64
4, 1908, Note_on_c, 2, 65, 85
4, 2115, Note_off_c, 2, 65, 64
4, 2137, Note_on_c, 2, 69, 68
4, 2235, Note_off_c, 2, 69, 64
4, 2386, Note_on_c, 2, 67, 58
4, 2458, Note_off_c, 2, 67, 64
4, 2628, Note_on_c, 2, 67, 66
4, 2713, Note_off_c, 2, 67, 64
4, 2866, Note_on_c, 2, 69, 68
4, 2961, Note_off_c, 2, 69, 64
4, 3109, Note_on_c, 2, 69, 66
4, 3208, Note_off_c, 2, 69, 64
4, 3352, Note_on_c, 2, 67, 64
4, 3443, Note_off_c, 2, 67, 64
4, 3595, Note_on_c, 2, 67, 82
4, 3675, Note_off_c, 2, 67, 64
4, 3840, Note_on_c, 2, 67, 70
4, 4190, Note_off_c, 2, 67, 64
4, 4304, Note_on_c, 2, 60, 59
4, 4388, Note_off_c, 2, 60, 64
4, 4540, Note_on_c, 2, 64, 70
4, 4637, Note_off_c, 2, 64, 64
4, 4788, Note_on_c, 2, 62, 64
4, 4893, Note_off_c, 2, 62, 64
4, 5037, Note_on_c, 2, 60, 57
4, 5125, Note_off_c, 2, 60, 64
4, 5278, Note_on_c, 2, 59, 62
4, 5367, Note_off_c, 2, 59, 64
4, 5512, Note_on_c, 2, 59, 63
4, 5600, Note_off_c, 2, 59, 64
4, 5744, Note_on_c, 2, 57, 68
4, 5854, Note_off_c, 2, 57, 64
4, 5972, Note_on_c, 2, 60, 63
4, 6072, Note_off_c, 2, 60, 64
4, 6222, Note_on_c, 2, 57, 64
4, 6320, Note_off_c, 2, 57, 64
4, 6461, Note_on_c, 2, 62, 66
4, 6549, Note_off_c, 2, 62, 64
4, 6703, Note_on_c, 2, 62, 66
4, 6807, Note_off_c, 2, 62, 64
4, 6941, Note_on_c, 2, 62, 66
4, 7036, Note_off_c, 2, 62, 64
4, 7184, Note_on_c, 2, 62, 78
4, 7283, Note_off_c, 2, 62, 64
4, 7433, Note_on_c, 2, 60, 63
4, 7524, Note_off_c, 2, 60, 64
4, 7672, Note_on_c, 2, 59, 56
4, 7988, Note_off_c, 2, 59, 64
4, 8148, Note_on_c, 2, 67, 70
4, 8234, Note_off_c, 2, 67, 64
4, 8391, Note_on_c, 2, 69, 68
4, 8483, Note_off_c, 2, 69, 64
4, 8626, Note_on_c, 2, 67, 85
4, 8824, Note_off_c, 2, 67, 64
4, 8869, Note_on_c, 2, 65, 49
4, 8964, Note_off_c, 2, 65, 64
4, 9098, Note_on_c, 2, 64, 70
4, 9186, Note_off_c, 2, 64, 64
4, 9351, Note_on_c, 2, 64, 72
4, 9436, Note_off_c, 2, 64, 64
4, 9590, Note_on_c, 2, 65, 82
4, 9808, Note_off_c, 2, 65, 64
4, 9816, Note_on_c, 2, 69, 70
4, 9927, Note_off_c, 2, 69, 64
4, 10058, Note_on_c, 2, 67, 61
4, 10143, Note_off_c, 2, 67, 64
4, 10312, Note_on_c, 2, 67, 64
4, 10411, Note_off_c, 2, 67, 64
4, 10547, Note_on_c, 2, 69, 59
4, 10728, Note_off_c, 2, 69, 64
4, 10780, Note_on_c, 2, 69, 64
4, 10888, Note_off_c, 2, 69, 64
4, 11023, Note_on_c, 2, 67, 62
4, 11120, Note_off_c, 2, 67, 64
4, 11269, Note_on_c, 2, 67, 72
4, 11356, Note_off_c, 2, 67, 64
4, 11504, Note_on_c, 2, 67, 66
4, 11863, Note_off_c, 2, 67, 64
4, 11984, Note_on_c, 2, 60, 57
4, 12072, Note_off_c, 2, 60, 64
4, 12223, Note_on_c, 2, 64, 64
4, 12328, Note_off_c, 2, 64, 64
4, 12465, Note_on_c, 2, 62, 66
4, 12626, Note_off_c, 2, 62, 64
4, 12702, Note_on_c, 2, 60, 48
4, 12807, Note_off_c, 2, 60, 64
4, 12932, Note_on_c, 2, 59, 53
4, 13033, Note_off_c, 2, 59, 64
4, 13180, Note_on_c, 2, 59, 57
4, 13296, Note_off_c, 2, 59, 64
4, 13422, Note_on_c, 2, 57, 59
4, 13548, Note_off_c, 2, 57, 64
4, 13666, Note_on_c, 2, 60, 63
4, 13774, Note_off_c, 2, 60, 64
4, 13903, Note_on_c, 2, 57, 63
4, 14005, Note_off_c, 2, 57, 64
4, 14136, Note_on_c, 2, 62, 68
4, 14242, Note_off_c, 2, 62, 64
4, 14387, Note_on_c, 2, 62, 66
4, 14502, Note_off_c, 2, 62, 64
4, 14640, Note_on_c, 2, 62, 68
4, 14753, Note_off_c, 2, 62, 64
4, 14883, Note_on_c, 2, 62, 72
4, 14990, Note_off_c, 2, 62, 64
4, 15113, Note_on_c, 2, 60, 68
4, 15205, Note_off_c, 2, 60, 64
4, 15359, Note_on_c, 2, 59, 64
4, 15664, Note_off_c, 2, 59, 64
4, 31189, Note_on_c, 2, 62, 66
4, 31282, Note_off_c, 2, 62, 64
4, 31426, Note_on_c, 2, 64, 53
4, 31524, Note_off_c, 2, 64, 64
4, 31657, Note_on_c, 2, 67, 66
4, 31868, Note_off_c, 2, 67, 64
4, 31901, Note_on_c, 2, 67, 63
4, 31996, Note_off_c, 2, 67, 64
4, 32147, Note_on_c, 2, 67, 63
4, 32226, Note_off_c, 2, 67, 64
4, 32379, Note_on_c, 2, 67, 66
4, 32460, Note_off_c, 2, 67, 64
4, 32628, Note_on_c, 2, 64, 68
4, 33004, Note_off_c, 2, 64, 64
4, 33113, Note_on_c, 2, 62, 59
4, 33200, Note_off_c, 2, 62, 64
4, 33332, Note_on_c, 2, 61, 60
4, 33418, Note_off_c, 2, 61, 64
4, 33577, Note_on_c, 2, 62, 60
4, 33704, Note_off_c, 2, 62, 64
4, 33811, Note_on_c, 2, 67, 72
4, 33920, Note_off_c, 2, 67, 64
4, 34059, Note_on_c, 2, 64, 68
4, 34153, Note_off_c, 2, 64, 64
4, 34313, Note_on_c, 2, 64, 66
4, 34398, Note_off_c, 2, 64, 64
4, 34556, Note_on_c, 2, 62, 57
4, 34903, Note_off_c, 2, 62, 64
4, 35031, Note_on_c, 2, 62, 72
4, 35103, Note_off_c, 2, 62, 64
4, 35268, Note_on_c, 2, 67, 72
4, 35351, Note_off_c, 2, 67, 64
4, 35514, Note_on_c, 2, 67, 78
4, 35849, Note_off_c, 2, 67, 64
4, 35987, Note_on_c, 2, 60, 63
4, 36052, Note_off_c, 2, 60, 64
4, 36228, Note_on_c, 2, 60, 63
4, 36306, Note_off_c, 2, 60, 64
4, 36457, Note_on_c, 2, 62, 68
4, 36801, Note_off_c, 2, 62, 64
4, 36936, Note_on_c, 2, 59, 61
4, 37020, Note_off_c, 2, 59, 64
4, 37176, Note_on_c, 2, 64, 68
4, 37266, Note_off_c, 2, 64, 64
4, 37413, Note_on_c, 2, 64, 70
4, 37543, Note_off_c, 2, 64, 64
4, 37652, Note_on_c, 2, 65, 63
4, 37741, Note_off_c, 2, 65, 64
4, 37898, Note_on_c, 2, 65, 63
4, 37995, Note_off_c, 2, 65, 64
4, 38140, Note_on_c, 2, 59, 70
4, 38226, Note_off_c, 2, 59, 64
4, 38388, Note_on_c, 2, 60, 63
4, 38722, Note_off_c, 2, 60, 64
4, 38856, Note_on_c, 2, 57, 61
4, 38944, Note_off_c, 2, 57, 64
4, 39101, Note_on_c, 2, 59, 59
4, 39184, Note_off_c, 2, 59, 64
4, 39340, Note_on_c, 2, 60, 64
4, 39544, Note_off_c, 2, 60, 64
4, 39586, Note_on_c, 2, 62, 68
4, 39684, Note_off_c, 2, 62, 64
4, 39691, Note_on_c, 2, 64, 66
4, 39765, Note_off_c, 2, 64, 64
4, 39816, Note_on_c, 2, 57, 63
4, 39909, Note_off_c, 2, 57, 64
4, 40048, Note_on_c, 2, 62, 70
4, 40128, Note_off_c, 2, 62, 64
4, 40305, Note_on_c, 2, 62, 80
4, 40662, Note_off_c, 2, 62, 64
4, 40787, Note_on_c, 2, 59, 64
4, 40858, Note_off_c, 2, 59, 64
4, 41029, Note_on_c, 2, 64, 70
4, 41124, Note_off_c, 2, 64, 64
4, 41268, Note_on_c, 2, 64, 80
4, 41474, Note_off_c, 2, 64, 64
4, 41508, Note_on_c, 2, 65, 64
4, 41582, Note_off_c, 2, 65, 64
4, 41609, Note_on_c, 2, 67, 85
4, 41683, Note_off_c, 2, 67, 64
4, 41734, Note_on_c, 2, 60, 60
4, 41821, Note_off_c, 2, 60, 64
4, 41974, Note_on_c, 2, 65, 74
4, 42059, Note_off_c, 2, 65, 64
4, 42208, Note_on_c, 2, 65, 64
4, 42558, Note_off_c, 2, 65, 64
4, 42699, Note_on_c, 2, 65, 64
4, 42787, Note_off_c, 2, 65, 64
4, 42928, Note_on_c, 2, 62, 64
4, 43015, Note_off_c, 2, 62, 64
4, 43176, Note_on_c, 2, 64, 70
4, 43362, Note_off_c, 2, 64, 64
4, 43424, Note_on_c, 2, 64, 58
4, 43512, Note_off_c, 2, 64, 64
4, 43657, Note_on_c, 2, 64, 60
4, 43746, Note_off_c, 2, 64, 64
4, 43897, Note_on_c, 2, 64, 64
4, 43990, Note_off_c, 2, 64, 64
4, 44143, Note_on_c, 2, 60, 58
4, 44495, Note_off_c, 2, 60, 64
4, 44615, Note_on_c, 2, 62, 63
4, 44695, Note_off_c, 2, 62, 64
4, 44865, Note_on_c, 2, 62, 63
4, 44960, Note_off_c, 2, 62, 64
4, 45103, Note_on_c, 2, 64, 72
4, 45208, Note_off_c, 2, 64, 64
4, 45332, Note_on_c, 2, 60, 59
4, 45451, Note_off_c, 2, 60, 64
4, 45576, Note_on_c, 2, 67, 80
4, 45667, Note_off_c, 2, 67, 64
4, 45824, Note_on_c, 2, 65, 68
4, 45921, Note_off_c, 2, 65, 64
4, 46080, Note_on_c, 2, 64, 70
4, 46415, Note_off_c, 2, 64, 64
4, 62628, Note_on_c, 2, 62, 47
4, 62773, Note_off_c, 2, 62, 64
4, 62850, Note_on_c, 2, 65, 51
4, 62988, Note_off_c, 2, 65, 64
4, 63093, Note_on_c, 2, 69, 46
4, 63239, Note_off_c, 2, 69, 64
4, 63336, Note_on_c, 2, 74, 46
4, 63492, Note_off_c, 2, 74, 64
4, 63577, Note_on_c, 2, 69, 45
4, 63730, Note_off_c, 2, 69, 64
4, 63806, Note_on_c, 2, 65, 37
4, 63956, Note_off_c, 2, 65, 64
4, 64054, Note_on_c, 2, 62, 49
4, 64218, Note_off_c, 2, 62, 64
4, 64300, Note_on_c, 2, 69, 54
4, 64477, Note_off_c, 2, 69, 64
4, 64535, Note_on_c, 2, 69, 48
4, 64589, Note_off_c, 2, 69, 64
4, 64644, Note_on_c, 2, 69, 52
4, 64710, Note_off_c, 2, 69, 64
4, 64771, Note_on_c, 2, 69, 36
4, 64932, Note_off_c, 2, 69, 64
4, 65020, Note_on_c, 2, 69, 36
4, 65160, Note_off_c, 2, 69, 64
4, 65266, Note_on_c, 2, 69, 39
4, 66229, Note_off_c, 2, 69, 64
4, 67419, Note_on_c, 2, 60, 52
4, 67573, Note_off_c, 2, 60, 64
4, 67654, Note_on_c, 2, 64, 58
4, 67775, Note_off_c, 2, 64, 64
4, 67907, Note_on_c, 2, 67, 45
4, 68028, Note_off_c, 2, 67, 64
4, 68117, Note_on_c, 2, 72, 47
4, 68279, Note_off_c, 2, 72, 64
4, 68369, Note_on_c, 2, 67, 57
4, 68495, Note_off_c, 2, 67, 64
4, 68618, Note_on_c, 2, 64, 53
4, 68739, Note_off_c, 2, 64, 64
4, 68849, Note_on_c, 2, 60, 49
4, 68987, Note_off_c, 2, 60, 64
4, 69104, Note_on_c, 2, 67, 50
4, 69262, Note_off_c, 2, 67, 64
4, 69321, Note_on_c, 2, 67, 55
4, 69379, Note_off_c, 2, 67, 64
4, 69432, Note_on_c, 2, 67, 56
4, 69501, Note_off_c, 2, 67, 64
4, 69571, Note_on_c, 2, 67, 51
4, 69726, Note_off_c, 2, 67, 64
4, 69824, Note_on_c, 2, 67, 51
4, 69963, Note_off_c, 2, 67, 64
4, 70068, Note_on_c, 2, 67, 47
4, 70620, Note_on_c, 2, 64, 55
4, 70621, Note_off_c, 2, 67, 64
4, 70679, Note_on_c, 2, 67, 63
4, 70693, Note_off_c, 2, 64, 64
4, 70737, Note_off_c, 2, 67, 64
4, 70777, Note_on_c, 2, 67, 64
4, 70856, Note_off_c, 2, 67, 64
4, 70860, Note_on_c, 2, 64, 51
4, 70915, Note_on_c, 2, 67, 60
4, 70928, Note_off_c, 2, 64, 64
4, 70999, Note_off_c, 2, 67, 64
4, 71036, Note_on_c, 2, 72, 59
4, 71155, Note_off_c, 2, 72, 64
4, 71267, Note_on_c, 2, 67, 52
4, 71383, Note_off_c, 2, 67, 64
4, 71511, Note_on_c, 2, 64, 53
4, 71618, Note_off_c, 2, 64, 64
4, 71739, Note_on_c, 2, 60, 46
4, 71867, Note_off_c, 2, 60, 64
4, 71966, Note_on_c, 2, 67, 46
4, 72151, Note_off_c, 2, 67, 64
4, 72214, Note_on_c, 2, 67, 43
4, 72279, Note_off_c, 2, 67, 64
4, 72341, Note_on_c, 2, 67, 47
4, 72400, Note_off_c, 2, 67, 64
4, 72453, Note_on_c, 2, 67, 51
4, 72616, Note_off_c, 2, 67, 64
4, 72694, Note_on_c, 2, 67, 35
4, 72859, Note_off_c, 2, 67, 64
4, 72936, Note_on_c, 2, 67, 46
4, 74397, Note_off_c, 2, 67, 64
4, 92629, Note_on_c, 2, 67, 74
4, 92713, Note_off_c, 2, 67, 64
4, 92860, Note_on_c, 2, 69, 70
4, 92961, Note_off_c, 2, 69, 64
4, 93095, Note_on_c, 2, 67, 70
4, 93276, Note_off_c, 2, 67, 64
4, 93345, Note_on_c, 2, 65, 59
4, 93432, Note_off_c, 2, 65, 64
4, 93578, Note_on_c, 2, 64, 63
4, 93658, Note_off_c, 2, 64, 64
4, 93823, Note_on_c, 2, 64, 66
4, 93892, Note_off_c, 2, 64, 64
4, 94068, Note_on_c, 2, 65, 85
4, 94275, Note_off_c, 2, 65, 64
4, 94297, Note_on_c, 2, 69, 68
4, 94395, Note_off_c, 2, 69, 64
4, 94546, Note_on_c, 2, 67, 58
4, 94618, Note_off_c, 2, 67, 64
4, 94788, Note_on_c, 2, 67, 66
4, 94873, Note_off_c, 2, 67, 64
4, 95026, Note_on_c, 2, 69, 68
4, 95121, Note_off_c, 2, 69, 64
4, 95269, Note_on_c, 2, 69, 66
4, 95368, Note_off_c, 2, 69, 64
4, 95512, Note_on_c, 2, 67, 64
4, 95603, Note_off_c, 2, 67, 64
4, 95755, Note_on_c, 2, 67, 82
4, 95835, Note_off_c, 2, 67, 64
4, 96000, Note_on_c, 2, 67, 70
4, 96350, Note_off_c, 2, 67, 64
4, 96464, Note_on_c, 2, 60, 59
4, 96548, Note_off_c, 2, 60, 64
4, 96700, Note_on_c, 2, 64, 70
4, 96797, Note_off_c, 2, 64, 64
4, 96948, Note_on_c, 2, 62, 64
4, 97053, Note_off_c, 2, 62, 64
4, 97197, Note_on_c, 2, 60, 57
4, 97285, Note_off_c, 2, 60, 64
4, 97438, Note_on_c, 2, 59, 62
4, 97527, Note_off_c, 2, 59, 64
4, 97672, Note_on_c, 2, 59, 63
4, 97760, Note_off_c, 2, 59, 64
4, 97904, Note_on_c, 2, 57, 68
4, 98014, Note_off_c, 2, 57, 64
4, 98132, Note_on_c, 2, 60, 63
4, 98232, Note_off_c, 2, 60, 64
4, 98382, Note_on_c, 2, 57, 64
4, 98480, Note_off_c, 2, 57, 64
4, 98621, Note_on_c, 2, 62, 66
4, 98709, Note_off_c, 2, 62, 64
4, 98863, Note_on_c, 2, 62, 66
4, 98967, Note_off_c, 2, 62, 64
4, 99101, Note_on_c, 2, 62, 66
4, 99196, Note_off_c, 2, 62, 64
4, 99344, Note_on_c, 2, 62, 78
4, 99443, Note_off_c, 2, 62, 64
4, 99593, Note_on_c, 2, 60, 63
4, 99684, Note_off_c, 2, 60, 64
4, 99832, Note_on_c, 2, 59, 56
4, 100148, Note_off_c, 2, 59, 64
4, 100308, Note_on_c, 2, 67, 70
4, 100394, Note_off_c, 2, 67, 64
4, 100551, Note_on_c, 2, 69, 68
4, 100643, Note_off_c, 2, 69, 64
4, 100786, Note_on_c, 2, 67, 85
4, 100984, Note_off_c, 2, 67, 64
4, 101029, Note_on_c, 2, 65, 49
4, 101124, Note_off_c, 2, 65, 64
4, 101258, Note_on_c, 2, 64, 70
4, 101346, Note_off_c, 2, 64, 64
4, 101511, Note_on_c, 2, 64, 72
4, 101596, Note_off_c, 2, 64, 64
4, 101750, Note_on_c, 2, 65, 82
4, 101968, Note_off_c, 2, 65, 64
4, 101976, Note_on_c, 2, 69, 70
4, 102087, Note_off_c, 2, 69, 64
4, 102218, Note_on_c, 2, 67, 61
4, 102303, Note_off_c, 2, 67, 64
4, 102472, Note_on_c, 2, 67, 64
4, 102571, Note_off_c, 2, 67, 64
4, 102707, Note_on_c, 2, 69, 59
4, 102888, Note_off_c, 2, 69, 64
4, 102940, Note_on_c, 2, 69, 64
4, 103048, Note_off_c, 2, 69, 64
4, 103183, Note_on_c, 2, 67, 62
4, 103280, Note_off_c, 2, 67, 64
4, 103429, Note_on_c, 2, 67, 72
4, 103516, Note_off_c, 2, 67, 64
4, 103664, Note_on_c, 2, 67, 66
4, 104023, Note_off_c, 2, 67, 64
4, 104144, Note_on_c, 2, 60, 57
4, 104232, Note_off_c, 2, 60, 64
4, 104383, Note_on_c, 2, 64, 64
4, 104488, Note_off_c, 2, 64, 64
4, 104625, Note_on_c, 2, 62, 66
4, 104786, Note_off_c, 2, 62, 64
4, 104862, Note_on_c, 2, 60, 48
4, 104967, Note_off_c, 2, 60, 64
4, 105092, Note_on_c, 2, 59, 53
4, 105193, Note_off_c, 2, 59, 64
4, 105340, Note_on_c, 2, 59, 57
4, 105456, Note_off_c, 2, 59, 64
4, 105582, Note_on_c, 2, 57, 59
4, 105708, Note_off_c, 2, 57, 64
4, 105826, Note_on_c, 2, 60, 63
4, 105934, Note_off_c, 2, 60, 64
4, 106063, Note_on_c, 2, 57, 63
4, 106165, Note_off_c, 2, 57, 64
4, 106296, Note_on_c, 2, 62, 68
4, 106402, Note_off_c, 2, 62, 64
4, 106547, Note_on_c, 2, 62, 66
4, 106662, Note_off_c, 2, 62, 64
4, 106800, Note_on_c, 2, 62, 68
4, 106913, Note_off_c, 2, 62, 64
4, 107043, Note_on_c, 2, 62, 72
4, 107150, Note_off_c, 2, 62, 64
4, 107273, Note_on_c, 2, 60, 68
4, 107365, Note_off_c, 2, 60, 64
4, 107519, Note_on_c, 2, 59, 64
4, 107824, Note_off_c, 2, 59, 64
4, 123349, Note_on_c, 2, 62, 66
4, 123442, Note_off_c, 2, 62, 64
4, 123586, Note_on_c, 2, 64, 53
4, 123684, Note_off_c, 2, 64, 64
4, 123817, Note_on_c, 2, 67, 66
4, 124028, Note_off_c, 2, 67, 64
4, 124061, Note_on_c, 2, 67, 63
4, 124156, Note_off_c, 2, 67, 64
4, 124307, Note_on_c, 2, 67, 63
4, 124386, Note_off_c, 2, 67, 64
4, 124539, Note_on_c, 2, 67, 66
4, 124620, Note_off_c, 2, 67, 64
4, 124788, Note_on_c, 2, 64, 68
4, 125164, Note_off_c, 2, 64, 64
4, 125273, Note_on_c, 2, 62, 59
4, 125360, Note_off_c, 2, 62, 64
4, 125492, Note_on_c, 2, 61, 60
4, 125578, Note_off_c, 2, 61, 64
4, 125737, Note_on_c, 2, 62, 60
4, 125864, Note_off_c, 2, 62, 64
4, 125971, Note_on_c, 2, 67, 72
4, 126080, Note_off_c, 2, 67, 64
4, 126219, Note_on_c, 2, 64, 68
4, 126313, Note_off_c, 2, 64, 64
4, 126473, Note_on_c, 2, 64, 66
4, 126558, Note_off_c, 2, 64, 64
4, 126716, Note_on_c, 2, 62, 57
4, 127063, Note_off_c, 2, 62, 64
4, 127191, Note_on_c, 2, 62, 72
4, 127263, Note_off_c, 2, 62, 64
4, 127428, Note_on_c, 2, 67, 72
4, 127511, Note_off_c, 2, 67, 64
4, 127674, Note_on_c, 2, 67, 78
4, 128009, Note_off_c, 2, 67, 64
4, 128147, Note_on_c, 2, 60, 63
4, 128212, Note_off_c, 2, 60, 64
4, 128388, Note_on_c, 2, 60, 63
4, 128466, Note_off_c, 2, 60, 64
4, 128617, Note_on_c, 2, 62, 68
4, 128961, Note_off_c, 2, 62, 64
4, 129096, Note_on_c, 2, 59, 61
4, 129180, Note_off_c, 2, 59, 64
4, 129336, Note_on_c, 2, 64, 68
4, 129426, Note_off_c, 2, 64, 64
4, 129573, Note_on_c, 2, 64, 70
4, 129703, Note_off_c, 2, 64, 64
4, 129812, Note_on_c, 2, 65, 63
4, 129901, Note_off_c, 2, 65, 64
4, 130058, Note_on_c, 2, 65, 63
4, 130155, Note_off_c, 2, 65, 64
4, 130300, Note_on_c, 2, 59, 70
4, 130386, Note_off_c, 2, 59, 64
4, 130548, Note_on_c, 2, 60, 63
4, 130882, Note_off_c, 2, 60, 64
4, 131016, Note_on_c, 2, 57, 61
4, 131104, Note_off_c, 2, 57, 64
4, 131261, Note_on_c, 2, 59, 59
4, 131344, Note_off_c, 2, 59, 64
4, 131500, Note_on_c, 2, 60, 64
4, 131704, Note_off_c, 2, 60, 64
4, 131746, Note_on_c, 2, 62, 68
4, 131844, Note_off_c, 2, 62, 64
4, 131851, Note_on_c, 2, 64, 66
4, 131925, Note_off_c, 2, 64, 64
4, 131976, Note_on_c, 2, 57, 63
4, 132069, Note_off_c, 2, 57, 64
4, 132208, Note_on_c, 2, 62, 70
4, 132288, Note_off_c, 2, 62, 64
4, 132465, Note_on_c, 2, 62, 80
4, 132822, Note_off_c, 2, 62, 64
4, 132947, Note_on_c, 2, 59, 64
4, 133018, Note_off_c, 2, 59, 64
4, 133189, Note_on_c, 2, 64, 70
4, 133284, Note_off_c, 2, 64, 64
4, 133428, Note_on_c, 2, 64, 80
4, 133634, Note_off_c, 2, 64, 64
4, 133668, Note_on_c, 2, 65, 64
4, 133742, Note_off_c, 2, 65, 64
4, 133769, Note_on_c, 2, 67, 85
4, 133843, Note_off_c, 2, 67, 64
4, 133894, Note_on_c, 2, 60, 60
4, 133981, Note_off_c, 2, 60, 64
4, 134134, Note_on_c, 2, 65, 74
4, 134219, Note_off_c, 2, 65, 64
4, 134368, Note_on_c, 2, 65, 64
4, 134718, Note_off_c, 2, 65, 64
4, 134859, Note_on_c, 2, 65, 64
4, 134947, Note_off_c, 2, 65, 64
4, 135088, Note_on_c, 2, 62, 64
4, 135175, Note_off_c, 2, 62, 64
4, 135336, Note_on_c, 2, 64, 70
4, 135522, Note_off_c, 2, 64, 64
4, 135584, Note_on_c, 2, 64, 58
4, 135672, Note_off_c, 2, 64, 64
4, 135817, Note_on_c, 2, 64, 60
4, 135906, Note_off_c, 2, 64, 64
4, 136057, Note_on_c, 2, 64, 64
4, 136150, Note_off_c, 2, 64, 64
4, 136303, Note_on_c, 2, 60, 58
4, 136655, Note_off_c, 2, 60, 64
4, 136775, Note_on_c, 2, 62, 63
4, 136855, Note_off_c, 2, 62, 64
4, 137025, Note_on_c, 2, 62, 63
4, 137120, Note_off_c, 2, 62, 64
4, 137263, Note_on_c, 2, 64, 72
4, 137368, Note_off_c, 2, 64, 64
4, 137492, Note_on_c, 2, 60, 59
4, 137611, Note_off_c, 2, 60, 64
4, 137736, Note_on_c, 2, 67, 80
4, 137827, Note_off_c, 2, 67, 64
4, 137984, Note_on_c, 2, 65, 68
4, 138081, Note_off_c, 2, 65, 64
4, 138240, Note_on_c, 2, 64, 70
4, 138575, Note_off_c, 2, 64, 64
4, 138575, End_track
5, 0, Start_track
5, 0, Title_t, "Cello"
5, 0, Program_c, 3, 42
5, 0, Control_c, 3, 7, 100
5, 465, Note_on_c, 3, 60, 78
5, 562, Note_off_c, 3, 60, 64
5, 700, Note_on_c, 3, 57, 64
5, 788, Note_off_c, 3, 57, 64
5, 955, Note_on_c, 3, 52, 68
5, 1133, Note_off_c, 3, 52, 64
5, 1195, Note_on_c, 3, 50, 64
5, 1289, Note_off_c, 3, 50, 64
5, 1430, Note_on_c, 3, 52, 57
5, 1522, Note_off_c, 3, 52, 64
5, 1672, Note_on_c, 3, 57, 78
5, 1744, Note_off_c, 3, 57, 64
5, 1777, Note_on_c, 3, 55, 68
5, 1836, Note_off_c, 3, 55, 64
5, 1912, Note_on_c, 3, 53, 87
5, 2095, Note_off_c, 3, 53, 64
5, 2134, Note_on_c, 3, 50, 54
5, 2232, Note_off_c, 3, 50, 64
5, 2386, Note_on_c, 3, 55, 66
5, 2504, Note_off_c, 3, 55, 64
5, 2634, Note_on_c, 3, 53, 72
5, 2707, Note_off_c, 3, 53, 64
5, 2742, Note_on_c, 3, 52, 76
5, 2822, Note_off_c, 3, 52, 64
5, 2864, Note_on_c, 3, 50, 66
5, 2966, Note_off_c, 3, 50, 64
5, 3105, Note_on_c, 3, 48, 66
5, 3204, Note_off_c, 3, 48, 64
5, 3347, Note_on_c, 3, 47, 68
5, 3443, Note_off_c, 3, 47, 64
5, 3587, Note_on_c, 3, 43, 68
5, 3684, Note_off_c, 3, 43, 64
5, 3826, Note_on_c, 3, 48, 68
5, 3941, Note_off_c, 3, 48, 64
5, 4075, Note_on_c, 3, 55, 66
5, 4163, Note_off_c, 3, 55, 64
5, 4303, Note_on_c, 3, 60, 80
5, 4392, Note_off_c, 3, 60, 64
5, 4555, Note_on_c, 3, 57, 64
5, 4645, Note_off_c, 3, 57, 64
5, 4791, Note_on_c, 3, 59, 80
5, 4908, Note_off_c, 3, 59, 64
5, 5037, Note_on_c, 3, 57, 63
5, 5129, Note_off_c, 3, 57, 64
5, 5270, Note_on_c, 3, 56, 57
5, 5352, Note_off_c, 3, 56, 64
5, 5508, Note_on_c, 3, 52, 70
5, 5600, Note_off_c, 3, 52, 64
5, 5743, Note_on_c, 3, 57, 70
5, 5855, Note_off_c, 3, 57, 64
5, 5982, Note_on_c, 3, 55, 66
5, 6083, Note_off_c, 3, 55, 64
5, 6224, Note_on_c, 3, 54, 66
5, 6319, Note_off_c, 3, 54, 64
5, 6468, Note_on_c, 3, 50, 80
5, 6546, Note_off_c, 3, 50, 64
5, 6710, Note_on_c, 3, 48, 82
5, 6827, Note_on_c, 3, 47, 74
5, 6847, Note_off_c, 3, 48, 64
5, 6935, Note_on_c, 3, 45, 64
5, 6949, Note_off_c, 3, 47, 64
5, 7049, Note_off_c, 3, 45, 64
5, 7052, Note_on_c, 3, 43, 68
5, 7145, Note_off_c, 3, 43, 64
5, 7187, Note_on_c, 3, 50, 85
5, 7261, Note_off_c, 3, 50, 64
5, 7432, Note_on_c, 3, 38, 80
5, 7510, Note_off_c, 3, 38, 64
5, 7690, Note_on_c, 3, 43, 85
5, 8004, Note_off_c, 3, 43, 64
5, 8145, Note_on_c, 3, 60, 66
5, 8228, Note_off_c, 3, 60, 64
5, 8394, Note_on_c, 3, 57, 70
5, 8477, Note_off_c, 3, 57, 64
5, 8636, Note_on_c, 3, 52, 74
5, 8820, Note_off_c, 3, 52, 64
5, 8873, Note_on_c, 3, 50, 66
5, 8968, Note_off_c, 3, 50, 64
5, 9109, Note_on_c, 3, 52, 63
5, 9216, Note_off_c, 3, 52, 64
5, 9357, Note_on_c, 3, 57, 78
5, 9431, Note_off_c, 3, 57, 64
5, 9464, Note_on_c, 3, 55, 74
5, 9543, Note_off_c, 3, 55, 64
5, 9586, Note_on_c, 3, 53, 82
5, 9770, Note_off_c, 3, 53, 64
5, 9812, Note_on_c, 3, 50, 59
5, 9907, Note_off_c, 3, 50, 64
5, 10056, Note_on_c, 3, 55, 68
5, 10175, Note_off_c, 3, 55, 64
5, 10302, Note_on_c, 3, 53, 68
5, 10378, Note_off_c, 3, 53, 64
5, 10417, Note_on_c, 3, 52, 72
5, 10490, Note_off_c, 3, 52, 64
5, 10542, Note_on_c, 3, 50, 66
5, 10653, Note_off_c, 3, 50, 64
5, 10777, Note_on_c, 3, 48, 68
5, 10876, Note_off_c, 3, 48, 64
5, 11015, Note_on_c, 3, 47, 66
5, 11108, Note_off_c, 3, 47, 64
5, 11264, Note_on_c, 3, 43, 66
5, 11356, Note_off_c, 3, 43, 64
5, 11503, Note_on_c, 3, 48, 66
5, 11624, Note_off_c, 3, 48, 64
5, 11749, Note_on_c, 3, 55, 59
5, 11832, Note_off_c, 3, 55, 64
5, 11981, Note_on_c, 3, 60, 80
5, 12089, Note_off_c, 3, 60, 64
5, 12227, Note_on_c, 3, 57, 60
5, 12326, Note_off_c, 3, 57, 64
5, 12472, Note_on_c, 3, 59, 78
5, 12576, Note_off_c, 3, 59, 64
5, 12708, Note_on_c, 3, 57, 66
5, 12813, Note_off_c, 3, 57, 64
5, 12938, Note_on_c, 3, 56, 64
5, 13025, Note_off_c, 3, 56, 64
5, 13189, Note_on_c, 3, 52, 70
5, 13278, Note_off_c, 3, 52, 64
5, 13434, Note_on_c, 3, 57, 76
5, 13543, Note_off_c, 3, 57, 64
5, 13661, Note_on_c, 3, 55, 72
5, 13769, Note_off_c, 3, 55, 64
5, 13907, Note_on_c, 3, 54, 66
5, 14004, Note_off_c, 3, 54, 64
5, 14148, Note_on_c, 3, 50, 74
5, 14242, Note_off_c, 3, 50, 64
5, 14393, Note_on_c, 3, 48, 82
5, 14505, Note_on_c, 3, 47, 68
5, 14531, Note_off_c, 3, 48, 64
5, 14619, Note_on_c, 3, 45, 68
5, 14632, Note_off_c, 3, 47, 64
5, 14721, Note_off_c, 3, 45, 64
5, 14730, Note_on_c, 3, 43, 70
5, 14818, Note_off_c, 3, 43, 64
5, 14868, Note_on_c, 3, 50, 82
5, 14952, Note_off_c, 3, 50, 64
5, 15120, Note_on_c, 3, 38, 80
5, 15209, Note_off_c, 3, 38, 64
5, 15365, Note_on_c, 3, 43, 72
5, 15680, Note_off_c, 3, 43, 64
5, 31202, Note_on_c, 3, 55, 78
5, 31279, Note_off_c, 3, 55, 64
5, 31424, Note_on_c, 3, 48, 62
5, 31506, Note_off_c, 3, 48, 64
5, 31662, Note_on_c, 3, 43, 74
5, 31822, Note_off_c, 3, 43, 64
5, 31902, Note_on_c, 3, 55, 78
5, 31984, Note_off_c, 3, 55, 64
5, 32143, Note_on_c, 3, 53, 66
5, 32231, Note_off_c, 3, 53, 64
5, 32379, Note_on_c, 3, 52, 68
5, 32462, Note_off_c, 3, 52, 64
5, 32624, Note_on_c, 3, 57, 82
5, 32739, Note_off_c, 3, 57, 64
5, 32860, Note_on_c, 3, 55, 68
5, 32964, Note_off_c, 3, 55, 64
5, 33102, Note_on_c, 3, 53, 70
5, 33198, Note_off_c, 3, 53, 64
5, 33344, Note_on_c, 3, 52, 70
5, 33432, Note_off_c, 3, 52, 64
5, 33581, Note_on_c, 3, 50, 72
5, 33682, Note_off_c, 3, 50, 64
5, 33812, Note_on_c, 3, 58, 72
5, 33904, Note_off_c, 3, 58, 64
5, 34051, Note_on_c, 3, 57, 80
5, 34154, Note_off_c, 3, 57, 64
5, 34297, Note_on_c, 3, 45, 80
5, 34382, Note_off_c, 3, 45, 64
5, 34549, Note_on_c, 3, 50, 80
5, 34653, Note_off_c, 3, 50, 64
5, 34781, Note_on_c, 3, 48, 63
5, 34877, Note_off_c, 3, 48, 64
5, 35024, Note_on_c, 3, 47, 70
5, 35124, Note_off_c, 3, 47, 64
5, 35255, Note_on_c, 3, 43, 72
5, 35338, Note_off_c, 3, 43, 64
5, 35504, Note_on_c, 3, 48, 85
5, 35603, Note_off_c, 3, 48, 64
5, 35727, Note_on_c, 3, 47, 70
5, 35835, Note_off_c, 3, 47, 64
5, 35969, Note_on_c, 3, 45, 70
5, 36057, Note_off_c, 3, 45, 64
5, 36212, Note_on_c, 3, 57, 72
5, 36296, Note_off_c, 3, 57, 64
5, 36466, Note_on_c, 3, 59, 82
5, 36565, Note_off_c, 3, 59, 64
5, 36698, Note_on_c, 3, 57, 68
5, 36795, Note_off_c, 3, 57, 64
5, 36939, Note_on_c, 3, 56, 63
5, 37036, Note_off_c, 3, 56, 64
5, 37182, Note_on_c, 3, 52, 68
5, 37261, Note_off_c, 3, 52, 64
5, 37415, Note_on_c, 3, 57, 76
5, 37508, Note_off_c, 3, 57, 64
5, 37651, Note_on_c, 3, 53, 76
5, 37737, Note_off_c, 3, 53, 64
5, 37903, Note_on_c, 3, 50, 78
5, 37986, Note_off_c, 3, 50, 64
5, 38139, Note_on_c, 3, 52, 78
5, 38218, Note_off_c, 3, 52, 64
5, 38385, Note_on_c, 3, 45, 85
5, 38510, Note_off_c, 3, 45, 64
5, 38630, Note_on_c, 3, 52, 72
5, 38716, Note_off_c, 3, 52, 64
5, 38868, Note_on_c, 3, 57, 85
5, 38965, Note_off_c, 3, 57, 64
5, 39102, Note_on_c, 3, 55, 66
5, 39192, Note_off_c, 3, 55, 64
5, 39354, Note_on_c, 3, 53, 80
5, 39478, Note_off_c, 3, 53, 64
5, 39593, Note_on_c, 3, 52, 57
5, 39681, Note_off_c, 3, 52, 64
5, 39819, Note_on_c, 3, 53, 68
5, 39914, Note_off_c, 3, 53, 64
5, 40047, Note_on_c, 3, 50, 66
5, 40135, Note_off_c, 3, 50, 64
5, 40295, Note_on_c, 3, 55, 72
5, 40466, Note_off_c, 3, 55, 64
5, 40547, Note_on_c, 3, 57, 72
5, 40655, Note_off_c, 3, 57, 64
5, 40665, Note_on_c, 3, 53, 57
5, 40747, Note_off_c, 3, 53, 64
5, 40793, Note_on_c, 3, 57, 80
5, 40898, Note_on_c, 3, 55, 64
5, 40924, Note_off_c, 3, 57, 64
5, 41013, Note_on_c, 3, 53, 54
5, 41022, Note_off_c, 3, 55, 64
5, 41128, Note_off_c, 3, 53, 64
5, 41128, Note_on_c, 3, 52, 57
5, 41213, Note_off_c, 3, 52, 64
5, 41256, Note_on_c, 3, 57, 64
5, 41343, Note_off_c, 3, 57, 64
5, 41503, Note_on_c, 3, 55, 68
5, 41591, Note_off_c, 3, 55, 64
5, 41742, Note_on_c, 3, 57, 66
5, 41847, Note_off_c, 3, 57, 64
5, 41976, Note_on_c, 3, 53, 61
5, 42056, Note_off_c, 3, 53, 64
5, 42208, Note_on_c, 3, 59, 70
5, 42338, Note_off_c, 3, 59, 64
5, 42462, Note_on_c, 3, 60, 80
5, 42567, Note_off_c, 3, 60, 64
5, 42570, Note_on_c, 3, 57, 68
5, 42653, Note_off_c, 3, 57, 64
5, 42705, Note_on_c, 3, 60, 78
5, 42813, Note_on_c, 3, 59, 70
5, 42836, Note_off_c, 3, 60, 64
5, 42920, Note_on_c, 3, 57, 58
5, 42927, Note_off_c, 3, 59, 64
5, 43031, Note_off_c, 3, 57, 64
5, 43032, Note_on_c, 3, 55, 58
5, 43103, Note_off_c, 3, 55, 64
5, 43169, Note_on_c, 3, 60, 66
5, 43257, Note_off_c, 3, 60, 64
5, 43404, Note_on_c, 3, 55, 63
5, 43503, Note_off_c, 3, 55, 64
5, 43648, Note_on_c, 3, 52, 64
5, 43752, Note_off_c, 3, 52, 64
5, 43893, Note_on_c, 3, 48, 59
5, 43998, Note_off_c, 3, 48, 64
5, 44141, Note_on_c, 3, 53, 80
5, 44246, Note_off_c, 3, 53, 64
5, 44374, Note_on_c, 3, 52, 68
5, 44488, Note_off_c, 3, 52, 64
5, 44609, Note_on_c, 3, 50, 66
5, 44711, Note_off_c, 3, 50, 64
5, 44841, Note_on_c, 3, 53, 72
5, 44956, Note_off_c, 3, 53, 64
5, 45094, Note_on_c, 3, 52, 78
5, 45214, Note_off_c, 3, 52, 64
5, 45337, Note_on_c, 3, 53, 85
5, 45438, Note_off_c, 3, 53, 64
5, 45582, Note_on_c, 3, 55, 80
5, 45677, Note_off_c, 3, 55, 64
5, 45823, Note_on_c, 3, 43, 80
5, 45918, Note_off_c, 3, 43, 64
5, 46073, Note_on_c, 3, 36, 80
5, 46419, Note_off_c, 3, 36, 64
5, 61907, Note_on_c, 3, 55, 49
5, 62097, Note_off_c, 3, 55, 64
5, 62143, Note_on_c, 3, 55, 57
5, 62331, Note_off_c, 3, 55, 64
5, 62388, Note_on_c, 3, 53, 38
5, 62762, Note_off_c, 3, 53, 64
5, 62861, Note_on_c, 3, 57, 52
5, 63048, Note_off_c, 3, 57, 64
5, 63095, Note_on_c, 3, 57, 57
5, 63297, Note_off_c, 3, 57, 64
5, 63350, Note_on_c, 3, 50, 60
5, 63746, Note_off_c, 3, 50, 64
5, 63819, Note_on_c, 3, 62, 53
5, 64008, Note_off_c, 3, 62, 64
5, 64054, Note_on_c, 3, 62, 60
5, 64254, Note_off_c, 3, 62, 64
5, 64307, Note_on_c, 3, 61, 41
5, 64726, Note_off_c, 3, 61, 64
5, 64798, Note_on_c, 3, 57, 48
5, 64972, Note_off_c, 3, 57, 64
5, 65023, Note_on_c, 3, 57, 49
5, 65181, Note_off_c, 3, 57, 64
5, 65267, Note_on_c, 3, 62, 53
5, 65426, Note_off_c, 3, 62, 64
5, 65513, Note_on_c, 3, 60, 53
5, 65653, Note_off_c, 3, 60, 64
5, 65740, Note_on_c, 3, 59, 52
5, 65882, Note_off_c, 3, 59, 64
5, 65995, Note_on_c, 3, 57, 52
5, 66137, Note_off_c, 3, 57, 64
5, 66227, Note_on_c, 3, 55, 62
5, 66366, Note_off_c, 3, 55, 64
5, 66451, Note_on_c, 3, 53, 42
5, 66598, Note_off_c, 3, 53, 64
5, 66697, Note_on_c, 3, 52, 53
5, 66827, Note_off_c, 3, 52, 64
5, 66932, Note_on_c, 3, 50, 57
5, 67079, Note_off_c, 3, 50, 64
5, 67183, Note_on_c, 3, 48, 54
5, 67320, Note_off_c, 3, 48, 64
5, 67417, Note_on_c, 3, 45, 59
5, 67553, Note_off_c, 3, 45, 64
5, 67658, Note_on_c, 3, 43, 64
5, 67799, Note_off_c, 3, 43, 64
5, 67900, Note_on_c, 3, 41, 60
5, 68028, Note_off_c, 3, 41, 64
5, 68135, Note_on_c, 3, 40, 61
5, 68258, Note_off_c, 3, 40, 64
5, 68377, Note_on_c, 3, 38, 59
5, 68492, Note_off_c, 3, 38, 64
5, 68623, Note_on_c, 3, 40, 63
5, 68754, Note_off_c, 3, 40, 64
5, 68859, Note_on_c, 3, 41, 66
5, 68977, Note_off_c, 3, 41, 64
5, 69104, Note_on_c, 3, 43, 58
5, 69461, Note_off_c, 3, 43, 64
5, 69576, Note_on_c, 3, 60, 45
5, 69776, Note_off_c, 3, 60, 64
5, 69822, Note_on_c, 3, 60, 55
5, 69962, Note_off_c, 3, 60, 64
5, 70073, Note_on_c, 3, 60, 53
5, 70483, Note_off_c, 3, 60, 64
5, 70549, Note_on_c, 3, 55, 50
5, 70734, Note_off_c, 3, 55, 64
5, 70797, Note_on_c, 3, 55, 42
5, 70948, Note_off_c, 3, 55, 64
5, 71026, Note_on_c, 3, 57, 50
5, 71422, Note_off_c, 3, 57, 64
5, 71501, Note_on_c, 3, 57, 45
5, 71679, Note_off_c, 3, 57, 64
5, 71749, Note_on_c, 3, 57, 44
5, 71912, Note_off_c, 3, 57, 64
5, 71984, Note_on_c, 3, 59, 48
5, 72378, Note_off_c, 3, 59, 64
5, 72455, Note_on_c, 3, 60, 51
5, 72633, Note_off_c, 3, 60, 64
5, 72709, Note_on_c, 3, 60, 57
5, 72859, Note_off_c, 3, 60, 64
5, 72953, Note_on_c, 3, 55, 50
5, 73117, Note_off_c, 3, 55, 64
5, 73186, Note_on_c, 3, 53, 45
5, 73316, Note_off_c, 3, 53, 64
5, 73423, Note_on_c, 3, 52, 53
5, 73545, Note_off_c, 3, 52, 64
5, 73640, Note_on_c, 3, 55, 50
5, 73774, Note_off_c, 3, 55, 64
5, 73896, Note_on_c, 3, 48, 48
5, 74340, Note_off_c, 3, 48, 64
5, 74378, Note_on_c, 3, 60, 51
5, 74571, Note_off_c, 3, 60, 64
5, 74607, Note_on_c, 3, 60, 50
5, 74769, Note_off_c, 3, 60, 64
5, 74852, Note_on_c, 3, 60, 63
5, 75013, Note_off_c, 3, 60, 64
5, 75091, Note_on_c, 3, 59, 52
5, 75250, Note_off_c, 3, 59, 64
5, 75355, Note_on_c, 3, 57, 51
5, 75474, Note_off_c, 3, 57, 64
5, 75568, Note_on_c, 3, 55, 57
5, 75715, Note_off_c, 3, 55, 64
5, 75831, Note_on_c, 3, 53, 52
5, 76011, Note_off_c, 3, 53, 64
5, 76075, Note_on_c, 3, 52, 60
5, 76157, Note_off_c, 3, 52, 64
5, 76184, Note_on_c, 3, 53, 74
5, 76253, Note_off_c, 3, 53, 64
5, 76309, Note_on_c, 3, 55, 66
5, 76423, Note_off_c, 3, 55, 64
5, 76541, Note_on_c, 3, 43, 57
5, 76677, Note_off_c, 3, 43, 64
5, 76800, Note_on_c, 3, 48, 47
5, 77185, Note_off_c, 3, 48, 64
5, 92625, Note_on_c, 3, 60, 78
5, 92722, Note_off_c, 3, 60, 64
5, 92860, Note_on_c, 3, 57, 64
5, 92948, Note_off_c, 3, 57, 64
5, 93115, Note_on_c, 3, 52, 68
5, 93293, Note_off_c, 3, 52, 64
5, 93355, Note_on_c, 3, 50, 64
5, 93449, Note_off_c, 3, 50, 64
5, 93590, Note_on_c, 3, 52, 57
5, 93682, Note_off_c, 3, 52, 64
5, 93832, Note_on_c, 3, 57, 78
5, 93904, Note_off_c, 3, 57, 64
5, 93937, Note_on_c, 3, 55, 68
5, 93996, Note_off_c, 3, 55, 64
5, 94072, Note_on_c, 3, 53, 87
5, 94255, Note_off_c, 3, 53, 64
5, 94294, Note_on_c, 3, 50, 54
5, 94392, Note_off_c, 3, 50, 64
5, 94546, Note_on_c, 3, 55, 66
5, 94664, Note_off_c, 3, 55, 64
5, 94794, Note_on_c, 3, 53, 72
5, 94867, Note_off_c, 3, 53, 64
5, 94902, Note_on_c, 3, 52, 76
5, 94982, Note_off_c, 3, 52, 64
5, 95024, Note_on_c, 3, 50, 66
5, 95126, Note_off_c, 3, 50, 64
5, 95265, Note_on_c, 3, 48, 66
5, 95364, Note_off_c, 3, 48, 64
5, 95507, Note_on_c, 3, 47, 68
5, 95603, Note_off_c, 3, 47, 64
5, 95747, Note_on_c, 3, 43, 68
5, 95844, Note_off_c, 3, 43, 64
5, 95986, Note_on_c, 3, 48, 68
5, 96101, Note_off_c, 3, 48, 64
5, 96235, Note_on_c, 3, 55, 66
5, 96323, Note_off_c, 3, 55, 64
5, 96463, Note_on_c, 3, 60, 80
5, 96552, Note_off_c, 3, 60, 64
5, 96715, Note_on_c, 3, 57, 64
5, 96805, Note_off_c, 3, 57, 64
5, 96951, Note_on_c, 3, 59, 80
5, 97068, Note_off_c, 3, 59, 64
5, 97197, Note_on_c, 3, 57, 63
5, 97289, Note_off_c, 3, 57, 64
5, 97430, Note_on_c, 3, 56, 57
5, 97512, Note_off_c, 3, 56, 64
5, 97668, Note_on_c, 3, 52, 70
5, 97760, Note_off_c, 3, 52, 64
5, 97903, Note_on_c, 3, 57, 70
5, 98015, Note_off_c, 3, 57, 64
5, 98142, Note_on_c, 3, 55, 66
5, 98243, Note_off_c, 3, 55, 64
5, 98384, Note_on_c, 3, 54, 66
5, 98479, Note_off_c, 3, 54, 64
5, 98628, Note_on_c, 3, 50, 80
5, 98706, Note_off_c, 3, 50, 64
5, 98870, Note_on_c, 3, 48, 82
5, 98987, Note_on_c, 3, 47, 74
5, 99007, Note_off_c, 3, 48, 64
5, 99095, Note_on_c, 3, 45, 64
5, 99109, Note_off_c, 3, 47, 64
5, 99209, Note_off_c, 3, 45, 64
5, 99212, Note_on_c, 3, 43, 68
5, 99305, Note_off_c, 3, 43, 64
5, 99347, Note_on_c, 3, 50, 85
5, 99421, Note_off_c, 3, 50, 64
5, 99592, Note_on_c, 3, 38, 80
5, 99670, Note_off_c, 3, 38, 64
5, 99850, Note_on_c, 3, 43, 85
5, 100164, Note_off_c, 3, 43, 64
5, 100305, Note_on_c, 3, 60, 66
5, 100388, Note_off_c, 3, 60, 64
5, 100554, Note_on_c, 3, 57, 70
5, 100637, Note_off_c, 3, 57, 64
5, 100796, Note_on_c, 3, 52, 74
5, 100980, Note_off_c, 3, 52, 64
5, 101033, Note_on_c, 3, 50, 66
5, 101128, Note_off_c, 3, 50, 64
5, 101269, Note_on_c, 3, 52, 63
5, 101376, Note_off_c, 3, 52, 64
5, 101517, Note_on_c, 3, 57, 78
5, 101591, Note_off_c, 3, 57, 64
5, 101624, Note_on_c, 3, 55, 74
5, 101703, Note_off_c, 3, 55, 64
5, 101746, Note_on_c, 3, 53, 82
5, 101930, Note_off_c, 3, 53, 64
5, 101972, Note_on_c, 3, 50, 59
5, 102067, Note_off_c, 3, 50, 64
5, 102216, Note_on_c, 3, 55, 68
5, 102335, Note_off_c, 3, 55, 64
5, 102462, Note_on_c, 3, 53, 68
5, 102538, Note_off_c, 3, 53, 64
5, 102577, Note_on_c, 3, 52, 72
5, 102650, Note_off_c, 3, 52, 64
5, 102702, Note_on_c, 3, 50, 66
5, 102813, Note_off_c, 3, 50, 64
5, 102937, Note_on_c, 3, 48, 68
5, 103036, Note_off_c, 3, 48, 64
5, 103175, Note_on_c, 3, 47, 66
5, 103268, Note_off_c, 3, 47, 64
5, 103424, Note_on_c, 3, 43, 66
5, 103516, Note_off_c, 3, 43, 64
5, 103663, Note_on_c, 3, 48, 66
5, 103784, Note_off_c, 3, 48, 64
5, 103909, Note_on_c, 3, 55, 59
5, 103992, Note_off_c, 3, 55, 64
5, 104141, Note_on_c, 3, 60, 80
5, 104249, Note_off_c, 3, 60, 64
5, 104387, Note_on_c, 3, 57, 60
5, 104486, Note_off_c, 3, 57, 64
5, 104632, Note_on_c, 3, 59, 78
5, 104736, Note_off_c, 3, 59, 64
5, 104868, Note_on_c, 3, 57, 66
5, 104973, Note_off_c, 3, 57, 64
5, 105098, Note_on_c, 3, 56, 64
5, 105185, Note_off_c, 3, 56, 64
5, 105349, Note_on_c, 3, 52, 70
5, 105438, Note_off_c, 3, 52, 64
5, 105594, Note_on_c, 3, 57, 76
5, 105703, Note_off_c, 3, 57, 64
5, 105821, Note_on_c, 3, 55, 72
5, 105929, Note_off_c, 3, 55, 64
5, 106067, Note_on_c, 3, 54, 66
5, 106164, Note_off_c, 3, 54, 64
5, 106308, Note_on_c, 3, 50, 74
5, 106402, Note_off_c, 3, 50, 64
5, 106553, Note_on_c, 3, 48, 82
5, 106665, Note_on_c, 3, 47, 68
5, 106691, Note_off_c, 3, 48, 64
5, 106779, Note_on_c, 3, 45, 68
5, 106792, Note_off_c, 3, 47, 64
5, 106881, Note_off_c, 3, 45, 64
5, 106890, Note_on_c, 3, 43, 70
5, 106978, Note_off_c, 3, 43, 64
5, 107028, Note_on_c, 3, 50, 82
5, 107112, Note_off_c, 3, 50, 64
5, 107280, Note_on_c, 3, 38, 80
5, 107369, Note_off_c, 3, 38, 64
5, 107525, Note_on_c, 3, 43, 72
5, 107840, Note_off_c, 3, 43, 64
5, 123362, Note_on_c, 3, 55, 78
5, 123439, Note_off_c, 3, 55, 64
5, 123584, Note_on_c, 3, 48, 62
5, 123666, Note_off_c, 3, 48, 64
5, 123822, Note_on_c, 3, 43, 74
5, 123982, Note_off_c, 3, 43, 64
5, 124062, Note_on_c, 3, 55, 78
5, 124144, Note_off_c, 3, 55, 64
5, 124303, Note_on_c, 3, 53, 66
5, 124391, Note_off_c, 3, 53, 64
5, 124539, Note_on_c, 3, 52, 68
5, 124622, Note_off_c, 3, 52, 64
5, 124784, Note_on_c, 3, 57, 82
5, 124899, Note_off_c, 3, 57, 64
5, 125020, Note_on_c, 3, 55, 68
5, 125124, Note_off_c, 3, 55, 64
5, 125262, Note_on_c, 3, 53, 70
5, 125358, Note_off_c, 3, 53, 64
5, 125504, Note_on_c, 3, 52, 70
5, 125592, Note_off_c, 3, 52, 64
5, 125741, Note_on_c, 3, 50, 72
5, 125842, Note_off_c, 3, 50, 64
5, 125972, Note_on_c, 3, 58, 72
5, 126064, Note_off_c, 3, 58, 64
5, 126211, Note_on_c, 3, 57, 80
5, 126314, Note_off_c, 3, 57, 64
5, 126457, Note_on_c, 3, 45, 80
5, 126542, Note_off_c, 3, 45, 64
5, 126709, Note_on_c, 3, 50, 80
5, 126813, Note_off_c, 3, 50, 64
5, 126941, Note_on_c, 3, 48, 63
5, 127037, Note_off_c, 3, 48, 64
5, 127184, Note_on_c, 3, 47, 70
5, 127284, Note_off_c, 3, 47, 64
5, 127415, Note_on_c, 3, 43, 72
5, 127498, Note_off_c, 3, 43, 64
5, 127664, Note_on_c, 3, 48, 85
5, 127763, Note_off_c, 3, 48, 64
5, 127887, Note_on_c, 3, 47, 70
5, 127995, Note_off_c, 3, 47, 64
5, 128129, Note_on_c, 3, 45, 70
5, 128217, Note_off_c, 3, 45, 64
5, 128372, Note_on_c, 3, 57, 72
5, 128456, Note_off_c, 3, 57, 64
5, 128626, Note_on_c, 3, 59, 82
5, 128725, Note_off_c, 3, 59, 64
5, 128858, Note_on_c, 3, 57, 68
5, 128955, Note_off_c, 3, 57, 64
5, 129099, Note_on_c, 3, 56, 63
5, 129196, Note_off_c, 3, 56, 64
5, 129342, Note_on_c, 3, 52, 68
5, 129421, Note_off_c, 3, 52, 64
5, 129575, Note_on_c, 3, 57, 76
5, 129668, Note_off_c, 3, 57, 64
5, 129811, Note_on_c, 3, 53, 76
5, 129897, Note_off_c, 3, 53, 64
5, 130063, Note_on_c, 3, 50, 78
5, 130146, Note_off_c, 3, 50, 64
5, 130299, Note_on_c, 3, 52, 78
5, 130378, Note_off_c, 3, 52, 64
5, 130545, Note_on_c, 3, 45, 85
5, 130670, Note_off_c, 3, 45, 64
5, 130790, Note_on_c, 3, 52, 72
5, 130876, Note_off_c, 3, 52, 64
5, 131028, Note_on_c, 3, 57, 85
5, 131125, Note_off_c, 3, 57, 64
5, 131262, Note_on_c, 3, 55, 66
5, 131352, Note_off_c, 3, 55, 64
5, 131514, Note_on_c, 3, 53, 80
5, 131638, Note_off_c, 3, 53, 64
5, 131753, Note_on_c, 3, 52, 57
5, 131841, Note_off_c, 3, 52, 64
5, 131979, Note_on_c, 3, 53, 68
5, 132074, Note_off_c, 3, 53, 64
5, 132207, Note_on_c, 3, 50, 66
5, 132295, Note_off_c, 3, 50, 64
5, 132455, Note_on_c, 3, 55, 72
5, 132626, Note_off_c, 3, 55, 64
5, 132707, Note_on_c, 3, 57, 72
5, 132815, Note_off_c, 3, 57, 64
5, 132825, Note_on_c, 3, 53, 57
5, 132907, Note_off_c, 3, 53, 64
5, 132953, Note_on_c, 3, 57, 80
5, 133058, Note_on_c, 3, 55, 64
5, 133084, Note_off_c, 3, 57, 64
5, 133173, Note_on_c, 3, 53, 54
5, 133182, Note_off_c, 3, 55, 64
5, 133288, Note_off_c, 3, 53, 64
5, 133288, Note_on_c, 3, 52, 57
5, 133373, Note_off_c, 3, 52, 64
5, 133416, Note_on_c, 3, 57, 64
5, 133503, Note_off_c, 3, 57, 64
5, 133663, Note_on_c, 3, 55, 68
5, 133751, Note_off_c, 3, 55, 64
5, 133902, Note_on_c, 3, 57, 66
5, 134007, Note_off_c, 3, 57, 64
5, 134136, Note_on_c, 3, 53, 61
5, 134216, Note_off_c, 3, 53, 64
5, 134368, Note_on_c, 3, 59, 70
5, 134498, Note_off_c, 3, 59, 64
5, 134622, Note_on_c, 3, 60, 80
5, 134727, Note_off_c, 3, 60, 64
5, 134730, Note_on_c, 3, 57, 68
5, 134813, Note_off_c, 3, 57, 64
5, 134865, Note_on_c, 3, 60, 78
5, 134973, Note_on_c, 3, 59, 70
5, 134996, Note_off_c, 3, 60, 64
5, 135080, Note_on_c, 3, 57, 58
5, 135087, Note_off_c, 3, 59, 64
5, 135191, Note_off_c, 3, 57, 64
5, 135192, Note_on_c, 3, 55, 58
5, 135263, Note_off_c, 3, 55, 64
5, 135329, Note_on_c, 3, 60, 66
5, 135417, Note_off_c, 3, 60, 64
5, 135564, Note_on_c, 3, 55, 63
5, 135663, Note_off_c, 3, 55, 64
5, 135808, Note_on_c, 3, 52, 64
5, 135912, Note_off_c, 3, 52, 64
5, 136053, Note_on_c, 3, 48, 59
5, 136158, Note_off_c, 3, 48, 64
5, 136301, Note_on_c, 3, 53, 80
5, 136406, Note_off_c, 3, 53, 64
5, 136534, Note_on_c, 3, 52, 68
5, 136648, Note_off_c, 3, 52, 64
5, 136769, Note_on_c, 3, 50, 66
5, 136871, Note_off_c, 3, 50, 64
5, 137001, Note_on_c, 3, 53, 72
5, 137116, Note_off_c, 3, 53, 64
5, 137254, Note_on_c, 3, 52, 78
5, 137374, Note_off_c, 3, 52, 64
5, 137497, Note_on_c, 3, 53, 85
5, 137598, Note_off_c, 3, 53, 64
5, 137742, Note_on_c, 3, 55, 80
5, 137837, Note_off_c, 3, 55, 64
5, 137983, Note_on_c, 3, 43, 80
5, 138078, Note_off_c, 3, 43, 64
5, 138233, Note_on_c, 3, 36, 80
5, 138579, Note_off_c, 3, 36, 64
5, 138579, End_track
6, 0, Start_track
6, 0, Title_t, "Oboe1"
6, 0, Program_c, 4, 68
6, 0, Control_c, 4, 7, 100
6, 473, Note_on_c, 4, 76, 72
6, 550, Note_off_c, 4, 76, 64
6, 711, Note_on_c, 4, 77, 61
6, 786, Note_off_c, 4, 77, 64
6, 953, Note_on_c, 4, 79, 80
6, 1146, Note_off_c, 4, 79, 64
6, 1183, Note_on_c, 4, 81, 68
6, 1257, Note_off_c, 4, 81, 64
6, 1291, Note_on_c, 4, 77, 59
6, 1359, Note_off_c, 4, 77, 64
6, 1430, Note_on_c, 4, 79, 68
6, 1500, Note_off_c, 4, 79, 64
6, 1670, Note_on_c, 4, 72, 60
6, 1742, Note_off_c, 4, 72, 64
6, 1918, Note_on_c, 4, 81, 91
6, 2109, Note_off_c, 4, 81, 64
6, 2155, Note_on_c, 4, 77, 60
6, 2240, Note_off_c, 4, 77, 64
6, 2400, Note_on_c, 4, 74, 68
6, 2473, Note_off_c, 4, 74, 64
6, 2638, Note_on_c, 4, 76, 66
6, 2722, Note_off_c, 4, 76, 64
6, 2874, Note_on_c, 4, 77, 70
6, 3062, Note_off_c, 4, 77, 64
6, 3114, Note_on_c, 4, 79, 70
6, 3188, Note_off_c, 4, 79, 64
6, 3221, Note_on_c, 4, 76, 60
6, 3294, Note_off_c, 4, 76, 64
6, 3343, Note_on_c, 4, 77, 68
6, 3422, Note_off_c, 4, 77, 64
6, 3457, Note_on_c, 4, 74, 57
6, 3532, Note_off_c, 4, 74, 64
6, 3579, Note_on_c, 4, 79, 82
6, 3663, Note_off_c, 4, 79, 64
6, 3817, Note_on_c, 4, 77, 82
6, 3864, Note_off_c, 4, 77, 64
6, 3864, Note_on_c, 4, 76, 54
6, 3906, Note_on_c, 4, 77, 72
6, 3916, Note_off_c, 4, 76, 64
6, 3947, Note_on_c, 4, 76, 59
6, 3964, Note_off_c, 4, 77, 64
6, 4021, Note_off_c, 4, 76, 64
6, 4055, Note_on_c, 4, 74, 70
6, 4167, Note_off_c, 4, 74, 64
6, 4168, Note_on_c, 4, 72, 57
6, 4237, Note_off_c, 4, 72, 64
6, 4305, Note_on_c, 4, 77, 78
6, 4415, Note_on_c, 4, 76, 68
6, 4429, Note_off_c, 4, 77, 64
6, 4541, Note_on_c, 4, 74, 58
6, 4546, Note_off_c, 4, 76, 64
6, 4645, Note_off_c, 4, 74, 64
6, 4657, Note_on_c, 4, 72, 63
6, 4721, Note_off_c, 4, 72, 64
6, 4785, Note_on_c, 4, 74, 78
6, 4968, Note_off_c, 4, 74, 64
6, 5028, Note_on_c, 4, 76, 72
6, 5101, Note_off_c, 4, 76, 64
6, 5145, Note_on_c, 4, 72, 57
6, 5214, Note_off_c, 4, 72, 64
6, 5271, Note_on_c, 4, 74, 70
6, 5352, Note_off_c, 4, 74, 64
6, 5372, Note_on_c, 4, 71, 60
6, 5450, Note_off_c, 4, 71, 64
6, 5512, Note_on_c, 4, 76, 80
6, 5585, Note_off_c, 4, 76, 64
6, 5744, Note_on_c, 4, 74, 82
6, 5788, Note_on_c, 4, 72, 66
6, 5796, Note_off_c, 4, 74, 64
6, 5836, Note_on_c, 4, 74, 68
6, 5839, Note_off_c, 4, 72, 64
6, 5878, Note_on_c, 4, 72, 68
6, 5892, Note_off_c, 4, 74, 64
6, 5964, Note_off_c, 4, 72, 64
6, 5978, Note_on_c, 4, 71, 72
6, 6081, Note_off_c, 4, 71, 64
6, 6104, Note_on_c, 4, 69, 61
6, 6166, Note_off_c, 4, 69, 64
6, 6232, Note_on_c, 4, 74, 82
6, 6338, Note_on_c, 4, 72, 68
6, 6370, Note_off_c, 4, 74, 64
6, 6461, Note_off_c, 4, 72, 64
6, 6461, Note_on_c, 4, 71, 61
6, 6566, Note_off_c, 4, 71, 64
6, 6569, Note_on_c, 4, 69, 64
6, 6634, Note_off_c, 4, 69, 64
6, 6698, Note_on_c, 4, 74, 76
6, 6776, Note_off_c, 4, 74, 64
6, 6950, Note_on_c, 4, 79, 85
6, 7031, Note_off_c, 4, 79, 64
6, 7200, Note_on_c, 4, 72, 85
6, 7244, Note_on_c, 4, 71, 68
6, 7248, Note_off_c, 4, 72, 64
6, 7284, Note_on_c, 4, 72, 66
6, 7293, Note_off_c, 4, 71, 64
6, 7331, Note_on_c, 4, 71, 68
6, 7344, Note_off_c, 4, 72, 64
6, 7413, Note_off_c, 4, 71, 64
6, 7426, Note_on_c, 4, 69, 70
6, 7498, Note_off_c, 4, 69, 64
6, 7538, Note_on_c, 4, 67, 61
6, 7600, Note_off_c, 4, 67, 64
6, 7672, Note_on_c, 4, 67, 46
6, 7963, Note_off_c, 4, 67, 64
6, 8153, Note_on_c, 4, 76, 70
6, 8228, Note_off_c, 4, 76, 64
6, 8398, Note_on_c, 4, 77, 72
6, 8487, Note_off_c, 4, 77, 64
6, 8642, Note_on_c, 4, 79, 82
6, 8829, Note_off_c, 4, 79, 64
6, 8870, Note_on_c, 4, 81, 74
6, 8945, Note_off_c, 4, 81, 64
6, 8978, Note_on_c, 4, 77, 63
6, 9044, Note_off_c, 4, 77, 64
6, 9115, Note_on_c, 4, 79, 58
6, 9195, Note_off_c, 4, 79, 64
6, 9358, Note_on_c, 4, 72, 57
6, 9429, Note_off_c, 4, 72, 64
6, 9586, Note_on_c, 4, 81, 87
6, 9781, Note_off_c, 4, 81, 64
6, 9823, Note_on_c, 4, 77, 64
6, 9914, Note_off_c, 4, 77, 64
6, 10068, Note_on_c, 4, 74, 58
6, 10154, Note_off_c, 4, 74, 64
6, 10300, Note_on_c, 4, 76, 63
6, 10398, Note_off_c, 4, 76, 64
6, 10555, Note_on_c, 4, 77, 72
6, 10760, Note_off_c, 4, 77, 64
6, 10795, Note_on_c, 4, 79, 74
6, 10876, Note_off_c, 4, 79, 64
6, 10897, Note_on_c, 4, 76, 58
6, 10959, Note_off_c, 4, 76, 64
6, 11018, Note_on_c, 4, 77, 64
6, 11103, Note_off_c, 4, 77, 64
6, 11131, Note_on_c, 4, 74, 59
6, 11213, Note_off_c, 4, 74, 64
6, 11269, Note_on_c, 4, 79, 74
6, 11364, Note_off_c, 4, 79, 64
6, 11505, Note_on_c, 4, 77, 74
6, 11556, Note_on_c, 4, 76, 52
6, 11561, Note_off_c, 4, 77, 64
6, 11596, Note_on_c, 4, 77, 59
6, 11603, Note_off_c, 4, 76, 64
6, 11645, Note_on_c, 4, 76, 62
6, 11652, Note_off_c, 4, 77, 64
6, 11725, Note_off_c, 4, 76, 64
6, 11741, Note_on_c, 4, 74, 64
6, 11844, Note_off_c, 4, 74, 64
6, 11864, Note_on_c, 4, 72, 59
6, 11930, Note_off_c, 4, 72, 64
6, 11990, Note_on_c, 4, 77, 78
6, 12098, Note_off_c, 4, 77, 64
6, 12100, Note_on_c, 4, 76, 66
6, 12215, Note_off_c, 4, 76, 64
6, 12218, Note_on_c, 4, 74, 52
6, 12306, Note_off_c, 4, 74, 64
6, 12330, Note_on_c, 4, 72, 61
6, 12389, Note_off_c, 4, 72, 64
6, 12464, Note_on_c, 4, 74, 70
6, 12659, Note_off_c, 4, 74, 64
6, 12708, Note_on_c, 4, 76, 64
6, 12784, Note_off_c, 4, 76, 64
6, 12816, Note_on_c, 4, 72, 59
6, 12877, Note_off_c, 4, 72, 64
6, 12939, Note_on_c, 4, 74, 64
6, 13026, Note_off_c, 4, 74, 64
6, 13046, Note_on_c, 4, 71, 57
6, 13124, Note_off_c, 4, 71, 64
6, 13180, Note_on_c, 4, 76, 68
6, 13265, Note_off_c, 4, 76, 64
6, 13420, Note_on_c, 4, 74, 80
6, 13469, Note_on_c, 4, 72, 70
6, 13474, Note_off_c, 4, 74, 64
6, 13511, Note_on_c, 4, 74, 70
6, 13520, Note_off_c, 4, 72, 64
6, 13554, Note_on_c, 4, 72, 70
6, 13569, Note_off_c, 4, 74, 64
6, 13645, Note_off_c, 4, 72, 64
6, 13654, Note_on_c, 4, 71, 64
6, 13747, Note_off_c, 4, 71, 64
6, 13770, Note_on_c, 4, 69, 58
6, 13831, Note_off_c, 4, 69, 64
6, 13904, Note_on_c, 4, 74, 82
6, 14011, Note_on_c, 4, 72, 68
6, 14044, Note_off_c, 4, 74, 64
6, 14136, Note_on_c, 4, 71, 52
6, 14137, Note_off_c, 4, 72, 64
6, 14253, Note_off_c, 4, 71, 64
6, 14258, Note_on_c, 4, 69, 57
6, 14320, Note_off_c, 4, 69, 64
6, 14391, Note_on_c, 4, 74, 62
6, 14472, Note_off_c, 4, 74, 64
6, 14628, Note_on_c, 4, 79, 80
6, 14718, Note_off_c, 4, 79, 64
6, 14882, Note_on_c, 4, 72, 78
6, 14929, Note_on_c, 4, 71, 68
6, 14935, Note_off_c, 4, 72, 64
6, 14971, Note_on_c, 4, 72, 64
6, 14974, Note_off_c, 4, 71, 64
6, 15014, Note_on_c, 4, 71, 64
6, 15032, Note_off_c, 4, 72, 64
6, 15095, Note_off_c, 4, 71, 64
6, 15104, Note_on_c, 4, 69, 64
6, 15181, Note_off_c, 4, 69, 64
6, 15210, Note_on_c, 4, 67, 66
6, 15279, Note_off_c, 4, 67, 64
6, 15348, Note_on_c, 4, 67, 56
6, 15681, Note_off_c, 4, 67, 64
6, 31194, Note_on_c, 4, 71, 68
6, 31268, Note_off_c, 4, 71, 64
6, 31424, Note_on_c, 4, 72, 66
6, 31502, Note_off_c, 4, 72, 64
6, 31685, Note_on_c, 4, 74, 80
6, 31886, Note_off_c, 4, 74, 64
6, 31910, Note_on_c, 4, 76, 70
6, 31979, Note_off_c, 4, 76, 64
6, 32005, Note_on_c, 4, 72, 64
6, 32071, Note_off_c, 4, 72, 64
6, 32140, Note_on_c, 4, 74, 80
6, 32219, Note_off_c, 4, 74, 64
6, 32385, Note_on_c, 4, 82, 80
6, 32467, Note_off_c, 4, 82, 64
6, 32633, Note_on_c, 4, 74, 82
6, 32681, Note_on_c, 4, 73, 66
6, 32686, Note_off_c, 4, 74, 64
6, 32726, Note_on_c, 4, 74, 76
6, 32729, Note_off_c, 4, 73, 64
6, 32769, Note_on_c, 4, 73, 60
6, 32784, Note_off_c, 4, 74, 64
6, 32861, Note_off_c, 4, 73, 64
6, 32864, Note_on_c, 4, 71, 76
6, 32955, Note_off_c, 4, 71, 64
6, 32971, Note_on_c, 4, 69, 56
6, 33044, Note_off_c, 4, 69, 64
6, 33090, Note_on_c, 4, 71, 60
6, 33207, Note_off_c, 4, 71, 64
6, 33210, Note_on_c, 4, 73, 57
6, 33303, Note_off_c, 4, 73, 64
6, 33335, Note_on_c, 4, 74, 58
6, 33439, Note_off_c, 4, 74, 64
6, 33446, Note_on_c, 4, 76, 68
6, 33531, Note_off_c, 4, 76, 64
6, 33567, Note_on_c, 4, 77, 85
6, 33753, Note_off_c, 4, 77, 64
6, 33817, Note_on_c, 4, 76, 53
6, 33907, Note_off_c, 4, 76, 64
6, 33923, Note_on_c, 4, 74, 58
6, 33997, Note_off_c, 4, 74, 64
6, 34062, Note_on_c, 4, 76, 70
6, 34126, Note_off_c, 4, 76, 64
6, 34173, Note_on_c, 4, 73, 53
6, 34261, Note_off_c, 4, 73, 64
6, 34301, Note_on_c, 4, 81, 85
6, 34383, Note_off_c, 4, 81, 64
6, 34560, Note_on_c, 4, 79, 66
6, 34604, Note_on_c, 4, 77, 76
6, 34621, Note_off_c, 4, 79, 64
6, 34650, Note_off_c, 4, 77, 64
6, 34654, Note_on_c, 4, 79, 74
6, 34696, Note_on_c, 4, 77, 72
6, 34725, Note_off_c, 4, 79, 64
6, 34774, Note_off_c, 4, 77, 64
6, 34797, Note_on_c, 4, 76, 78
6, 34905, Note_on_c, 4, 74, 70
6, 34906, Note_off_c, 4, 76, 64
6, 34990, Note_off_c, 4, 74, 64
6, 35036, Note_on_c, 4, 79, 80
6, 35139, Note_on_c, 4, 77, 60
6, 35149, Note_off_c, 4, 79, 64
6, 35268, Note_off_c, 4, 77, 64
6, 35268, Note_on_c, 4, 76, 57
6, 35351, Note_off_c, 4, 76, 64
6, 35364, Note_on_c, 4, 74, 58
6, 35430, Note_off_c, 4, 74, 64
6, 35502, Note_on_c, 4, 76, 80
6, 35695, Note_off_c, 4, 76, 64
6, 35747, Note_on_c, 4, 77, 66
6, 35828, Note_off_c, 4, 77, 64
6, 35854, Note_on_c, 4, 74, 63
6, 35918, Note_off_c, 4, 74, 64
6, 35976, Note_on_c, 4, 76, 64
6, 36047, Note_off_c, 4, 76, 64
6, 36084, Note_on_c, 4, 72, 59
6, 36163, Note_off_c, 4, 72, 64
6, 36219, Note_on_c, 4, 77, 82
6, 36313, Note_off_c, 4, 77, 64
6, 36464, Note_on_c, 4, 76, 85
6, 36510, Note_on_c, 4, 74, 63
6, 36516, Note_off_c, 4, 76, 64
6, 36558, Note_on_c, 4, 76, 72
6, 36568, Note_off_c, 4, 74, 64
6, 36601, Note_on_c, 4, 74, 64
6, 36612, Note_off_c, 4, 76, 64
6, 36686, Note_off_c, 4, 74, 64
6, 36696, Note_on_c, 4, 72, 70
6, 36777, Note_off_c, 4, 72, 64
6, 36811, Note_on_c, 4, 71, 66
6, 36882, Note_off_c, 4, 71, 64
6, 36951, Note_on_c, 4, 76, 85
6, 37049, Note_on_c, 4, 74, 78
6, 37072, Note_off_c, 4, 76, 64
6, 37161, Note_off_c, 4, 74, 64
6, 37171, Note_on_c, 4, 72, 55
6, 37278, Note_off_c, 4, 72, 64
6, 37288, Note_on_c, 4, 71, 46
6, 37358, Note_off_c, 4, 71, 64
6, 37419, Note_on_c, 4, 74, 78
6, 37530, Note_on_c, 4, 72, 68
6, 37556, Note_off_c, 4, 74, 64
6, 37651, Note_on_c, 4, 71, 57
6, 37659, Note_off_c, 4, 72, 64
6, 37752, Note_off_c, 4, 71, 64
6, 37766, Note_on_c, 4, 69, 60
6, 37851, Note_off_c, 4, 69, 64
6, 37897, Note_on_c, 4, 71, 80
6, 37975, Note_off_c, 4, 71, 64
6, 38155, Note_on_c, 4, 68, 63
6, 38227, Note_off_c, 4, 68, 64
6, 38397, Note_on_c, 4, 69, 74
6, 38705, Note_off_c, 4, 69, 64
6, 38878, Note_on_c, 4, 72, 64
6, 38957, Note_off_c, 4, 72, 64
6, 39109, Note_on_c, 4, 76, 80
6, 39189, Note_off_c, 4, 76, 64
6, 39347, Note_on_c, 4, 69, 57
6, 39568, Note_off_c, 4, 69, 64
6, 39593, Note_on_c, 4, 71, 80
6, 39678, Note_off_c, 4, 71, 64
6, 39691, Note_on_c, 4, 72, 70
6, 39775, Note_off_c, 4, 72, 64
6, 39814, Note_on_c, 4, 74, 58
6, 39913, Note_off_c, 4, 74, 64
6, 39933, Note_on_c, 4, 76, 76
6, 40009, Note_off_c, 4, 76, 64
6, 40058, Note_on_c, 4, 77, 89
6, 40434, Note_off_c, 4, 77, 64
6, 40552, Note_on_c, 4, 71, 60
6, 40637, Note_off_c, 4, 71, 64
6, 40787, Note_on_c, 4, 76, 68
6, 40862, Note_off_c, 4, 76, 64
6, 41030, Note_on_c, 4, 79, 82
6, 41107, Note_off_c, 4, 79, 64
6, 41268, Note_on_c, 4, 72, 66
6, 41486, Note_off_c, 4, 72, 64
6, 41508, Note_on_c, 4, 74, 80
6, 41613, Note_off_c, 4, 74, 64
6, 41619, Note_on_c, 4, 76, 70
6, 41707, Note_off_c, 4, 76, 64
6, 41737, Note_on_c, 4, 77, 78
6, 41840, Note_off_c, 4, 77, 64
6, 41851, Note_on_c, 4, 79, 78
6, 41930, Note_off_c, 4, 79, 64
6, 41968, Note_on_c, 4, 81, 80
6, 42411, Note_off_c, 4, 81, 64
6, 42473, Note_on_c, 4, 79, 80
6, 42548, Note_off_c, 4, 79, 64
6, 42576, Note_on_c, 4, 77, 76
6, 42658, Note_off_c, 4, 77, 64
6, 42691, Note_on_c, 4, 76, 70
6, 42774, Note_off_c, 4, 76, 64
6, 42806, Note_on_c, 4, 74, 68
6, 42882, Note_off_c, 4, 74, 64
6, 42940, Note_on_c, 4, 79, 85
6, 43028, Note_off_c, 4, 79, 64
6, 43179, Note_on_c, 4, 70, 63
6, 43369, Note_off_c, 4, 70, 64
6, 43422, Note_on_c, 4, 72, 68
6, 43488, Note_off_c, 4, 72, 64
6, 43529, Note_on_c, 4, 69, 58
6, 43607, Note_off_c, 4, 69, 64
6, 43657, Note_on_c, 4, 70, 61
6, 43745, Note_off_c, 4, 70, 64
6, 43908, Note_on_c, 4, 79, 82
6, 43998, Note_off_c, 4, 79, 64
6, 44151, Note_on_c, 4, 70, 78
6, 44262, Note_on_c, 4, 69, 70
6, 44283, Note_off_c, 4, 70, 64
6, 44374, Note_on_c, 4, 67, 57
6, 44380, Note_off_c, 4, 69, 64
6, 44486, Note_off_c, 4, 67, 64
6, 44488, Note_on_c, 4, 65, 57
6, 44558, Note_off_c, 4, 65, 64
6, 44623, Note_on_c, 4, 72, 87
6, 44740, Note_on_c, 4, 71, 66
6, 44770, Note_off_c, 4, 72, 64
6, 44848, Note_off_c, 4, 71, 64
6, 44848, Note_on_c, 4, 69, 58
6, 44941, Note_off_c, 4, 69, 64
6, 44963, Note_on_c, 4, 67, 52
6, 45055, Note_off_c, 4, 67, 64
6, 45098, Note_on_c, 4, 79, 85
6, 45191, Note_off_c, 4, 79, 64
6, 45337, Note_on_c, 4, 81, 82
6, 45425, Note_off_c, 4, 81, 64
6, 45585, Note_on_c, 4, 77, 89
6, 45630, Note_off_c, 4, 77, 64
6, 45630, Note_on_c, 4, 76, 60
6, 45672, Note_on_c, 4, 77, 76
6, 45680, Note_off_c, 4, 76, 64
6, 45715, Note_on_c, 4, 76, 58
6, 45731, Note_off_c, 4, 77, 64
6, 45813, Note_off_c, 4, 76, 64
6, 45813, Note_on_c, 4, 74, 76
6, 45885, Note_off_c, 4, 74, 64
6, 45918, Note_on_c, 4, 72, 66
6, 45985, Note_off_c, 4, 72, 64
6, 46069, Note_on_c, 4, 72, 64
6, 46400, Note_off_c, 4, 72, 64
6, 61912, Note_on_c, 4, 74, 57
6, 62101, Note_off_c, 4, 74, 64
6, 62140, Note_on_c, 4, 71, 57
6, 62256, Note_on_c, 4, 72, 64
6, 62262, Note_off_c, 4, 71, 64
6, 62339, Note_off_c, 4, 72, 64
6, 62380, Note_on_c, 4, 74, 63
6, 62484, Note_off_c, 4, 74, 64
6, 62497, Note_on_c, 4, 76, 64
6, 62576, Note_off_c, 4, 76, 64
6, 62616, Note_on_c, 4, 77, 61
6, 63066, Note_off_c, 4, 77, 64
6, 63119, Note_on_c, 4, 76, 49
6, 63277, Note_off_c, 4, 76, 64
6, 63362, Note_on_c, 4, 77, 58
6, 63470, Note_on_c, 4, 79, 61
6, 63495, Note_off_c, 4, 77, 64
6, 63545, Note_off_c, 4, 79, 64
6, 63584, Note_on_c, 4, 81, 66
6, 63702, Note_on_c, 4, 79, 51
6, 63708, Note_off_c, 4, 81, 64
6, 63776, Note_off_c, 4, 79, 64
6, 63826, Note_on_c, 4, 82, 59
6, 63931, Note_on_c, 4, 81, 62
6, 63944, Note_off_c, 4, 82, 64
6, 64022, Note_off_c, 4, 81, 64
6, 64067, Note_on_c, 4, 79, 57
6, 64183, Note_on_c, 4, 77, 60
6, 64189, Note_off_c, 4, 79, 64
6, 64268, Note_off_c, 4, 77, 64
6, 64304, Note_on_c, 4, 79, 59
6, 64424, Note_on_c, 4, 77, 56
6, 64440, Note_off_c, 4, 79, 64
6, 64510, Note_off_c, 4, 77, 64
6, 64559, Note_on_c, 4, 76, 64
6, 64666, Note_off_c, 4, 76, 64
6, 64670, Note_on_c, 4, 77, 68
6, 64751, Note_off_c, 4, 77, 64
6, 64797, Note_on_c, 4, 79, 66
6, 64909, Note_on_c, 4, 77, 60
6, 64935, Note_off_c, 4, 79, 64
6, 64998, Note_off_c, 4, 77, 64
6, 65028, Note_on_c, 4, 79, 63
6, 65132, Note_off_c, 4, 79, 64
6, 65134, Note_on_c, 4, 76, 60
6, 65224, Note_off_c, 4, 76, 64
6, 65262, Note_on_c, 4, 79, 74
6, 65380, Note_on_c, 4, 77, 66
6, 65414, Note_off_c, 4, 79, 64
6, 65515, Note_on_c, 4, 76, 54
6, 65537, Note_off_c, 4, 77, 64
6, 65626, Note_on_c, 4, 74, 57
6, 65635, Note_off_c, 4, 76, 64
6, 65734, Note_off_c, 4, 74, 64
6, 65756, Note_on_c, 4, 77, 54
6, 67240, Note_off_c, 4, 77, 64
6, 67294, Note_on_c, 4, 74, 55
6, 67422, Note_on_c, 4, 76, 57
6, 67435, Note_off_c, 4, 74, 64
6, 67534, Note_on_c, 4, 77, 63
6, 67545, Note_off_c, 4, 76, 64
6, 67619, Note_off_c, 4, 77, 64
6, 67656, Note_on_c, 4, 79, 72
6, 67760, Note_off_c, 4, 79, 64
6, 67764, Note_on_c, 4, 77, 47
6, 67857, Note_off_c, 4, 77, 64
6, 67894, Note_on_c, 4, 81, 68
6, 68008, Note_off_c, 4, 81, 64
6, 68012, Note_on_c, 4, 79, 52
6, 68100, Note_off_c, 4, 79, 64
6, 68137, Note_on_c, 4, 82, 62
6, 68243, Note_on_c, 4, 81, 62
6, 68258, Note_off_c, 4, 82, 64
6, 68329, Note_off_c, 4, 81, 64
6, 68369, Note_on_c, 4, 79, 60
6, 68486, Note_off_c, 4, 79, 64
6, 68486, Note_on_c, 4, 82, 63
6, 68581, Note_off_c, 4, 82, 64
6, 68616, Note_on_c, 4, 81, 68
6, 68729, Note_on_c, 4, 79, 64
6, 68745, Note_off_c, 4, 81, 64
6, 68811, Note_off_c, 4, 79, 64
6, 68854, Note_on_c, 4, 77, 63
6, 68974, Note_on_c, 4, 76, 60
6, 68980, Note_off_c, 4, 77, 64
6, 69053, Note_off_c, 4, 76, 64
6, 69096, Note_on_c, 4, 74, 60
6, 69216, Note_on_c, 4, 72, 53
6, 69224, Note_off_c, 4, 74, 64
6, 69291, Note_off_c, 4, 72, 64
6, 69340, Note_on_c, 4, 71, 62
6, 69452, Note_on_c, 4, 69, 59
6, 69467, Note_off_c, 4, 71, 64
6, 69524, Note_off_c, 4, 69, 64
6, 69598, Note_on_c, 4, 67, 60
6, 69789, Note_off_c, 4, 67, 64
6, 69838, Note_on_c, 4, 69, 68
6, 69910, Note_off_c, 4, 69, 64
6, 69946, Note_on_c, 4, 71, 68
6, 70028, Note_off_c, 4, 71, 64
6, 70073, Note_on_c, 4, 72, 68
6, 70151, Note_off_c, 4, 72, 64
6, 70187, Note_on_c, 4, 74, 68
6, 70250, Note_off_c, 4, 74, 64
6, 70318, Note_on_c, 4, 76, 55
6, 70745, Note_off_c, 4, 76, 64
6, 70791, Note_on_c, 4, 74, 56
6, 70976, Note_off_c, 4, 74, 64
6, 71033, Note_on_c, 4, 76, 60
6, 71078, Note_on_c, 4, 74, 68
6, 71095, Note_off_c, 4, 76, 64
6, 71130, Note_on_c, 4, 76, 59
6, 71134, Note_off_c, 4, 74, 64
6, 71169, Note_on_c, 4, 74, 60
6, 71190, Note_off_c, 4, 76, 64
6, 71274, Note_off_c, 4, 74, 64
6, 71280, Note_on_c, 4, 72, 64
6, 71386, Note_off_c, 4, 72, 64
6, 71386, Note_on_c, 4, 71, 52
6, 71471, Note_off_c, 4, 71, 64
6, 71520, Note_on_c, 4, 72, 64
6, 71624, Note_on_c, 4, 74, 64
6, 71628, Note_off_c, 4, 72, 64
6, 71706, Note_off_c, 4, 74, 64
6, 71745, Note_on_c, 4, 76, 66
6, 71858, Note_off_c, 4, 76, 64
6, 71859, Note_on_c, 4, 74, 48
6, 71938, Note_off_c, 4, 74, 64
6, 71979, Note_on_c, 4, 77, 66
6, 72096, Note_on_c, 4, 76, 54
6, 72102, Note_off_c, 4, 77, 64
6, 72169, Note_off_c, 4, 76, 64
6, 72231, Note_on_c, 4, 81, 66
6, 72349, Note_on_c, 4, 79, 63
6, 72375, Note_off_c, 4, 81, 64
6, 72426, Note_off_c, 4, 79, 64
6, 72463, Note_on_c, 4, 77, 59
6, 72580, Note_on_c, 4, 76, 62
6, 72587, Note_off_c, 4, 77, 64
6, 72658, Note_off_c, 4, 76, 64
6, 72710, Note_on_c, 4, 74, 68
6, 72823, Note_on_c, 4, 72, 51
6, 72836, Note_off_c, 4, 74, 64
6, 72901, Note_off_c, 4, 72, 64
6, 72954, Note_on_c, 4, 74, 60
6, 73061, Note_on_c, 4, 76, 60
6, 73071, Note_off_c, 4, 74, 64
6, 73146, Note_off_c, 4, 76, 64
6, 73183, Note_on_c, 4, 77, 68
6, 73297, Note_on_c, 4, 76, 57
6, 73306, Note_off_c, 4, 77, 64
6, 73383, Note_off_c, 4, 76, 64
6, 73429, Note_on_c, 4, 79, 66
6, 73545, Note_on_c, 4, 77, 64
6, 73546, Note_off_c, 4, 79, 64
6, 73620, Note_off_c, 4, 77, 64
6, 73668, Note_on_c, 4, 76, 58
6, 73775, Note_off_c, 4, 76, 64
6, 73782, Note_on_c, 4, 74, 64
6, 73860, Note_off_c, 4, 74, 64
6, 73902, Note_on_c, 4, 76, 66
6, 74013, Note_on_c, 4, 77, 63
6, 74034, Note_off_c, 4, 76, 64
6, 74106, Note_off_c, 4, 77, 64
6, 74144, Note_on_c, 4, 79, 70
6, 74256, Note_off_c, 4, 79, 64
6, 74260, Note_on_c, 4, 77, 55
6, 74338, Note_off_c, 4, 77, 64
6, 74390, Note_on_c, 4, 81, 68
6, 74504, Note_on_c, 4, 79, 64
6, 74517, Note_off_c, 4, 81, 64
6, 74583, Note_off_c, 4, 79, 64
6, 74625, Note_on_c, 4, 77, 68
6, 74739, Note_off_c, 4, 77, 64
6, 74739, Note_on_c, 4, 76, 52
6, 74823, Note_off_c, 4, 76, 64
6, 74869, Note_on_c, 4, 79, 68
6, 74975, Note_on_c, 4, 77, 63
6, 74988, Note_off_c, 4, 79, 64
6, 75058, Note_off_c, 4, 77, 64
6, 75101, Note_on_c, 4, 76, 60
6, 75211, Note_off_c, 4, 76, 64
6, 75221, Note_on_c, 4, 74, 62
6, 75296, Note_off_c, 4, 74, 64
6, 75350, Note_on_c, 4, 76, 70
6, 75458, Note_off_c, 4, 76, 64
6, 75460, Note_on_c, 4, 74, 64
6, 75542, Note_off_c, 4, 74, 64
6, 75591, Note_on_c, 4, 72, 70
6, 75686, Note_on_c, 4, 71, 54
6, 75699, Note_off_c, 4, 72, 64
6, 75772, Note_off_c, 4, 71, 64
6, 75823, Note_on_c, 4, 69, 68
6, 75895, Note_off_c, 4, 69, 64
6, 75931, Note_on_c, 4, 67, 66
6, 76037, Note_off_c, 4, 67, 64
6, 76059, Note_on_c, 4, 79, 74
6, 76164, Note_off_c, 4, 79, 64
6, 76305, Note_on_c, 4, 72, 70
6, 76409, Note_off_c, 4, 72, 64
6, 76550, Note_on_c, 4, 74, 66
6, 76639, Note_off_c, 4, 74, 64
6, 76656, Note_on_c, 4, 71, 59
6, 76718, Note_off_c, 4, 71, 64
6, 76792, Note_on_c, 4, 72, 60
6, 77078, Note_off_c, 4, 72, 64
6, 92633, Note_on_c, 4, 76, 72
6, 92710, Note_off_c, 4, 76, 64
6, 92871, Note_on_c, 4, 77, 61
6, 92946, Note_off_c, 4, 77, 64
6, 93113, Note_on_c, 4, 79, 80
6, 93306, Note_off_c, 4, 79, 64
6, 93343, Note_on_c, 4, 81, 68
6, 93417, Note_off_c, 4, 81, 64
6, 93451, Note_on_c, 4, 77, 59
6, 93519, Note_off_c, 4, 77, 64
6, 93590, Note_on_c, 4, 79, 68
6, 93660, Note_off_c, 4, 79, 64
6, 93830, Note_on_c, 4, 72, 60
6, 93902, Note_off_c, 4, 72, 64
6, 94078, Note_on_c, 4, 81, 91
6, 94269, Note_off_c, 4, 81, 64
6, 94315, Note_on_c, 4, 77, 60
6, 94400, Note_off_c, 4, 77, 64
6, 94560, Note_on_c, 4, 74, 68
6, 94633, Note_off_c, 4, 74, 64
6, 94798, Note_on_c, 4, 76, 66
6, 94882, Note_off_c, 4, 76, 64
6, 95034, Note_on_c, 4, 77, 70
6, 95222, Note_off_c, 4, 77, 64
6, 95274, Note_on_c, 4, 79, 70
6, 95348, Note_off_c, 4, 79, 64
6, 95381, Note_on_c, 4, 76, 60
6, 95454, Note_off_c, 4, 76, 64
6, 95503, Note_on_c, 4, 77, 68
6, 95582, Note_off_c, 4, 77, 64
6, 95617, Note_on_c, 4, 74, 57
6, 95692, Note_off_c, 4, 74, 64
6, 95739, Note_on_c, 4, 79, 82
6, 95823, Note_off_c, 4, 79, 64
6, 95977, Note_on_c, 4, 77, 82
6, 96024, Note_off_c, 4, 77, 64
6, 96024, Note_on_c, 4, 76, 54
6, 96066, Note_on_c, 4, 77, 72
6, 96076, Note_off_c, 4, 76, 64
6, 96107, Note_on_c, 4, 76, 59
6, 96124, Note_off_c, 4, 77, 64
6, 96181, Note_off_c, 4, 76, 64
6, 96215, Note_on_c, 4, 74, 70
6, 96327, Note_off_c, 4, 74, 64
6, 96328, Note_on_c, 4, 72, 57
6, 96397, Note_off_c, 4, 72, 64
6, 96465, Note_on_c, 4, 77, 78
6, 96575, Note_on_c, 4, 76, 68
6, 96589, Note_off_c, 4, 77, 64
6, 96701, Note_on_c, 4, 74, 58
6, 96706, Note_off_c, 4, 76, 64
6, 96805, Note_off_c, 4, 74, 64
6, 96817, Note_on_c, 4, 72, 63
6, 96881, Note_off_c, 4, 72, 64
6, 96945, Note_on_c, 4, 74, 78
6, 97128, Note_off_c, 4, 74, 64
6, 97188, Note_on_c, 4, 76, 72
6, 97261, Note_off_c, 4, 76, 64
6, 97305, Note_on_c, 4, 72, 57
6, 97374, Note_off_c, 4, 72, 64
6, 97431, Note_on_c, 4, 74, 70
6, 97512, Note_off_c, 4, 74, 64
6, 97532, Note_on_c, 4, 71, 60
6, 97610, Note_off_c, 4, 71, 64
6, 97672, Note_on_c, 4, 76, 80
6, 97745, Note_off_c, 4, 76, 64
6, 97904, Note_on_c, 4, 74, 82
6, 97948, Note_on_c, 4, 72, 66
6, 97956, Note_off_c, 4, 74, 64
6, 97996, Note_on_c, 4, 74, 68
6, 97999, Note_off_c, 4, 72, 64
6, 98038, Note_on_c, 4, 72, 68
6, 98052, Note_off_c, 4, 74, 64
6, 98124, Note_off_c, 4, 72, 64
6, 98138, Note_on_c, 4, 71, 72
6, 98241, Note_off_c, 4, 71, 64
6, 98264, Note_on_c, 4, 69, 61
6, 98326, Note_off_c, 4, 69, 64
6, 98392, Note_on_c, 4, 74, 82
6, 98498, Note_on_c, 4, 72, 68
6, 98530, Note_off_c, 4, 74, 64
6, 98621, Note_off_c, 4, 72, 64
6, 98621, Note_on_c, 4, 71, 61
6, 98726, Note_off_c, 4, 71, 64
6, 98729, Note_on_c, 4, 69, 64
6, 98794, Note_off_c, 4, 69, 64
6, 98858, Note_on_c, 4, 74, 76
6, 98936, Note_off_c, 4, 74, 64
6, 99110, Note_on_c, 4, 79, 85
6, 99191, Note_off_c, 4, 79, 64
6, 99360, Note_on_c, 4, 72, 85
6, 99404, Note_on_c, 4, 71, 68
6, 99408, Note_off_c, 4, 72, 64
6, 99444, Note_on_c, 4, 72, 66
6, 99453, Note_off_c, 4, 71, 64
6, 99491, Note_on_c, 4, 71, 68
6, 99504, Note_off_c, 4, 72, 64
6, 99573, Note_off_c, 4, 71, 64
6, 99586, Note_on_c, 4, 69, 70
6, 99658, Note_off_c, 4, 69, 64
6, 99698, Note_on_c, 4, 67, 61
6, 99760, Note_off_c, 4, 67, 64
6, 99832, Note_on_c, 4, 67, 46
6, 100123, Note_off_c, 4, 67, 64
6, 100313, Note_on_c, 4, 76, 70
6, 100388, Note_off_c, 4, 76, 64
6, 100558, Note_on_c, 4, 77, 72
6, 100647, Note_off_c, 4, 77, 64
6, 100802, Note_on_c, 4, 79, 82
6, 100989, Note_off_c, 4, 79, 64
6, 101030, Note_on_c, 4, 81, 74
6, 101105, Note_off_c, 4, 81, 64
6, 101138, Note_on_c, 4, 77, 63
6, 101204, Note_off_c, 4, 77, 64
6, 101275, Note_on_c, 4, 79, 58
6, 101355, Note_off_c, 4, 79, 64
6, 101518, Note_on_c, 4, 72, 57
6, 101589, Note_off_c, 4, 72, 64
6, 101746, Note_on_c, 4, 81, 87
6, 101941, Note_off_c, 4, 81, 64
6, 101983, Note_on_c, 4, 77, 64
6, 102074, Note_off_c, 4, 77, 64
6, 102228, Note_on_c, 4, 74, 58
6, 102314, Note_off_c, 4, 74, 64
6, 102460, Note_on_c, 4, 76, 63
6, 102558, Note_off_c, 4, 76, 64
6, 102715, Note_on_c, 4, 77, 72
6, 102920, Note_off_c, 4, 77, 64
6, 102955, Note_on_c, 4, 79, 74
6, 103036, Note_off_c, 4, 79, 64
6, 103057, Note_on_c, 4, 76, 58
6, 103119, Note_off_c, 4, 76, 64
6, 103178, Note_on_c, 4, 77, 64
6, 103263, Note_off_c, 4, 77, 64
6, 103291, Note_on_c, 4, 74, 59
6, 103373, Note_off_c, 4, 74, 64
6, 103429, Note_on_c, 4, 79, 74
6, 103524, Note_off_c, 4, 79, 64
6, 103665, Note_on_c, 4, 77, 74
6, 103716, Note_on_c, 4, 76, 52
6, 103721, Note_off_c, 4, 77, 64
6, 103756, Note_on_c, 4, 77, 59
6, 103763, Note_off_c, 4, 76, 64
6, 103805, Note_on_c, 4, 76, 62
6, 103812, Note_off_c, 4, 77, 64
6, 103885, Note_off_c, 4, 76, 64
6, 103901, Note_on_c, 4, 74, 64
6, 104004, Note_off_c, 4, 74, 64
6, 104024, Note_on_c, 4, 72, 59
6, 104090, Note_off_c, 4, 72, 64
6, 104150, Note_on_c, 4, 77, 78
6, 104258, Note_off_c, 4, 77, 64
6, 104260, Note_on_c, 4, 76, 66
6, 104375, Note_off_c, 4, 76, 64
6, 104378, Note_on_c, 4, 74, 52
6, 104466, Note_off_c, 4, 74, 64
6, 104490, Note_on_c, 4, 72, 61
6, 104549, Note_off_c, 4, 72, 64
6, 104624, Note_on_c, 4, 74, 70
6, 104819, Note_off_c, 4, 74, 64
6, 104868, Note_on_c, 4, 76, 64
6, 104944, Note_off_c, 4, 76, 64
6, 104976, Note_on_c, 4, 72, 59
6, 105037, Note_off_c, 4, 72, 64
6, 105099, Note_on_c, 4, 74, 64
6, 105186, Note_off_c, 4, 74, 64
6, 105206, Note_on_c, 4, 71, 57
6, 105284, Note_off_c, 4, 71, 64
6, 105340, Note_on_c, 4, 76, 68
6, 105425, Note_off_c, 4, 76, 64
6, 105580, Note_on_c, 4, 74, 80
6, 105629, Note_on_c, 4, 72, 70
6, 105634, Note_off_c, 4, 74, 64
6, 105671, Note_on_c, 4, 74, 70
6, 105680, Note_off_c, 4, 72, 64
6, 105714, Note_on_c, 4, 72, 70
6, 105729, Note_off_c, 4, 74, 64
6, 105805, Note_off_c, 4, 72, 64
6, 105814, Note_on_c, 4, 71, 64
6, 105907, Note_off_c, 4, 71, 64
6, 105930, Note_on_c, 4, 69, 58
6, 105991, Note_off_c, 4, 69, 64
6, 106064, Note_on_c, 4, 74, 82
6, 106171, Note_on_c, 4, 72, 68
6, 106204, Note_off_c, 4, 74, 64
6, 106296, Note_on_c, 4, 71, 52
6, 106297, Note_off_c, 4, 72, 64
6, 106413, Note_off_c, 4, 71, 64
6, 106418, Note_on_c, 4, 69, 57
6, 106480, Note_off_c, 4, 69, 64
6, 106551, Note_on_c, 4, 74, 62
6, 106632, Note_off_c, 4, 74, 64
6, 106788, Note_on_c, 4, 79, 80
6, 106878, Note_off_c, 4, 79, 64
6, 107042, Note_on_c, 4, 72, 78
6, 107089, Note_on_c, 4, 71, 68
6, 107095, Note_off_c, 4, 72, 64
6, 107131, Note_on_c, 4, 72, 64
6, 107134, Note_off_c, 4, 71, 64
6, 107174, Note_on_c, 4, 71, 64
6, 107192, Note_off_c, 4, 72, 64
6, 107255, Note_off_c, 4, 71, 64
6, 107264, Note_on_c, 4, 69, 64
6, 107341, Note_off_c, 4, 69, 64
6, 107370, Note_on_c, 4, 67, 66
6, 107439, Note_off_c, 4, 67, 64
6, 107508, Note_on_c, 4, 67, 56
6, 107841, Note_off_c, 4, 67, 64
6, 123354, Note_on_c, 4, 71, 68
6, 123428, Note_off_c, 4, 71, 64
6, 123584, Note_on_c, 4, 72, 66
6, 123662, Note_off_c, 4, 72, 64
6, 123845, Note_on_c, 4, 74, 80
6, 124046, Note_off_c, 4, 74, 64
6, 124070, Note_on_c, 4, 76, 70
6, 124139, Note_off_c, 4, 76, 64
6, 124165, Note_on_c, 4, 72, 64
6, 124231, Note_off_c, 4, 72, 64
6, 124300, Note_on_c, 4, 74, 80
6, 124379, Note_off_c, 4, 74, 64
6, 124545, Note_on_c, 4, 82, 80
6, 124627, Note_off_c, 4, 82, 64
6, 124793, Note_on_c, 4, 74, 82
6, 124841, Note_on_c, 4, 73, 66
6, 124846, Note_off_c, 4, 74, 64
6, 124886, Note_on_c, 4, 74, 76
6, 124889, Note_off_c, 4, 73, 64
6, 124929, Note_on_c, 4, 73, 60
6, 124944, Note_off_c, 4, 74, 64
6, 125021, Note_off_c, 4, 73, 64
6, 125024, Note_on_c, 4, 71, 76
6, 125115, Note_off_c, 4, 71, 64
6, 125131, Note_on_c, 4, 69, 56
6, 125204, Note_off_c, 4, 69, 64
6, 125250, Note_on_c, 4, 71, 60
6, 125367, Note_off_c, 4, 71, 64
6, 125370, Note_on_c, 4, 73, 57
6, 125463, Note_off_c, 4, 73, 64
6, 125495, Note_on_c, 4, 74, 58
6, 125599, Note_off_c, 4, 74, 64
6, 125606, Note_on_c, 4, 76, 68
6, 125691, Note_off_c, 4, 76, 64
6, 125727, Note_on_c, 4, 77, 85
6, 125913, Note_off_c, 4, 77, 64
6, 125977, Note_on_c, 4, 76, 53
6, 126067, Note_off_c, 4, 76, 64
6, 126083, Note_on_c, 4, 74, 58
6, 126157, Note_off_c, 4, 74, 64
6, 126222, Note_on_c, 4, 76, 70
6, 126286, Note_off_c, 4, 76, 64
6, 126333, Note_on_c, 4, 73, 53
6, 126421, Note_off_c, 4, 73, 64
6, 126461, Note_on_c, 4, 81, 85
6, 126543, Note_off_c, 4, 81, 64
6, 126720, Note_on_c, 4, 79, 66
6, 126764, Note_on_c, 4, 77, 76
6, 126781, Note_off_c, 4, 79, 64
6, 126810, Note_off_c, 4, 77, 64
6, 126814, Note_on_c, 4, 79, 74
6, 126856, Note_on_c, 4, 77, 72
6, 126885, Note_off_c, 4, 79, 64
6, 126934, Note_off_c, 4, 77, 64
6, 126957, Note_on_c, 4, 76, 78
6, 127065, Note_on_c, 4, 74, 70
6, 127066, Note_off_c, 4, 76, 64
6, 127150, Note_off_c, 4, 74, 64
6, 127196, Note_on_c, 4, 79, 80
6, 127299, Note_on_c, 4, 77, 60
6, 127309, Note_off_c, 4, 79, 64
6, 127428, Note_off_c, 4, 77, 64
6, 127428, Note_on_c, 4, 76, 57
6, 127511, Note_off_c, 4, 76, 64
6, 127524, Note_on_c, 4, 74, 58
6, 127590, Note_off_c, 4, 74, 64
6, 127662, Note_on_c, 4, 76, 80
6, 127855, Note_off_c, 4, 76, 64
6, 127907, Note_on_c, 4, 77, 66
6, 127988, Note_off_c, 4, 77, 64
6, 128014, Note_on_c, 4, 74, 63
6, 128078, Note_off_c, 4, 74, 64
6, 128136, Note_on_c, 4, 76, 64
6, 128207, Note_off_c, 4, 76, 64
6, 128244, Note_on_c, 4, 72, 59
6, 128323, Note_off_c, 4, 72, 64
6, 128379, Note_on_c, 4, 77, 82
6, 128473, Note_off_c, 4, 77, 64
6, 128624, Note_on_c, 4, 76, 85
6, 128670, Note_on_c, 4, 74, 63
6, 128676, Note_off_c, 4, 76, 64
6, 128718, Note_on_c, 4, 76, 72
6, 128728, Note_off_c, 4, 74, 64
6, 128761, Note_on_c, 4, 74, 64
6, 128772, Note_off_c, 4, 76, 64
6, 128846, Note_off_c, 4, 74, 64
6, 128856, Note_on_c, 4, 72, 70
6, 128937, Note_off_c, 4, 72, 64
6, 128971, Note_on_c, 4, 71, 66
6, 129042, Note_off_c, 4, 71, 64
6, 129111, Note_on_c, 4, 76, 85
6, 129209, Note_on_c, 4, 74, 78
6, 129232, Note_off_c, 4, 76, 64
6, 129321, Note_off_c, 4, 74, 64
6, 129331, Note_on_c, 4, 72, 55
6, 129438, Note_off_c, 4, 72, 64
6, 129448, Note_on_c, 4, 71, 46
6, 129518, Note_off_c, 4, 71, 64
6, 129579, Note_on_c, 4, 74, 78
6, 129690, Note_on_c, 4, 72, 68
6, 129716, Note_off_c, 4, 74, 64
6, 129811, Note_on_c, 4, 71, 57
6, 129819, Note_off_c, 4, 72, 64
6, 129912, Note_off_c, 4, 71, 64
6, 129926, Note_on_c, 4, 69, 60
6, 130011, Note_off_c, 4, 69, 64
6, 130057, Note_on_c, 4, 71, 80
6, 130135, Note_off_c, 4, 71, 64
6, 130315, Note_on_c, 4, 68, 63
6, 130387, Note_off_c, 4, 68, 64
6, 130557, Note_on_c, 4, 69, 74
6, 130865, Note_off_c, 4, 69, 64
6, 131038, Note_on_c, 4, 72, 64
6, 131117, Note_off_c, 4, 72, 64
6, 131269, Note_on_c, 4, 76, 80
6, 131349, Note_off_c, 4, 76, 64
6, 131507, Note_on_c, 4, 69, 57
6, 131728, Note_off_c, 4, 69, 64
6, 131753, Note_on_c, 4, 71, 80
6, 131838, Note_off_c, 4, 71, 64
6, 131851, Note_on_c, 4, 72, 70
6, 131935, Note_off_c, 4, 72, 64
6, 131974, Note_on_c, 4, 74, 58
6, 132073, Note_off_c, 4, 74, 64
6, 132093, Note_on_c, 4, 76, 76
6, 132169, Note_off_c, 4, 76, 64
6, 132218, Note_on_c, 4, 77, 89
6, 132594, Note_off_c, 4, 77, 64
6, 132712, Note_on_c, 4, 71, 60
6, 132797, Note_off_c, 4, 71, 64
6, 132947, Note_on_c, 4, 76, 68
6, 133022, Note_off_c, 4, 76, 64
6, 133190, Note_on_c, 4, 79, 82
6, 133267, Note_off_c, 4, 79, 64
6, 133428, Note_on_c, 4, 72, 66
6, 133646, Note_off_c, 4, 72, 64
6, 133668, Note_on_c, 4, 74, 80
6, 133773, Note_off_c, 4, 74, 64
6, 133779, Note_on_c, 4, 76, 70
6, 133867, Note_off_c, 4, 76, 64
6, 133897, Note_on_c, 4, 77, 78
6, 134000, Note_off_c, 4, 77, 64
6, 134011, Note_on_c, 4, 79, 78
6, 134090, Note_off_c, 4, 79, 64
6, 134128, Note_on_c, 4, 81, 80
6, 134571, Note_off_c, 4, 81, 64
6, 134633, Note_on_c, 4, 79, 80
6, 134708, Note_off_c, 4, 79, 64
6, 134736, Note_on_c, 4, 77, 76
6, 134818, Note_off_c, 4, 77, 64
6, 134851, Note_on_c, 4, 76, 70
6, 134934, Note_off_c, 4, 76, 64
6, 134966, Note_on_c, 4, 74, 68
6, 135042, Note_off_c, 4, 74, 64
6, 135100, Note_on_c, 4, 79, 85
6, 135188, Note_off_c, 4, 79, 64
6, 135339, Note_on_c, 4, 70, 63
6, 135529, Note_off_c, 4, 70, 64
6, 135582, Note_on_c, 4, 72, 68
6, 135648, Note_off_c, 4, 72, 64
6, 135689, Note_on_c, 4, 69, 58
6, 135767, Note_off_c, 4, 69, 64
6, 135817, Note_on_c, 4, 70, 61
6, 135905, Note_off_c, 4, 70, 64
6, 136068, Note_on_c, 4, 79, 82
6, 136158, Note_off_c, 4, 79, 64
6, 136311, Note_on_c, 4, 70, 78
6, 136422, Note_on_c, 4, 69, 70
6, 136443, Note_off_c, 4, 70, 64
6, 136534, Note_on_c, 4, 67, 57
6, 136540, Note_off_c, 4, 69, 64
6, 136646, Note_off_c, 4, 67, 64
6, 136648, Note_on_c, 4, 65, 57
6, 136718, Note_off_c, 4, 65, 64
6, 136783, Note_on_c, 4, 72, 87
6, 136900, Note_on_c, 4, 71, 66
6, 136930, Note_off_c, 4, 72, 64
6, 137008, Note_off_c, 4, 71, 64
6, 137008, Note_on_c, 4, 69, 58
6, 137101, Note_off_c, 4, 69, 64
6, 137123, Note_on_c, 4, 67, 52
6, 137215, Note_off_c, 4, 67, 64
6, 137258, Note_on_c, 4, 79, 85
6, 137351, Note_off_c, 4, 79, 64
6, 137497, Note_on_c, 4, 81, 82
6, 137585, Note_off_c, 4, 81, 64
6, 137745, Note_on_c, 4, 77, 89
6, 137790, Note_off_c, 4, 77, 64
6, 137790, Note_on_c, 4, 76, 60
6, 137832, Note_on_c, 4, 77, 76
6, 137840, Note_off_c, 4, 76, 64
6, 137875, Note_on_c, 4, 76, 58
6, 137891, Note_off_c, 4, 77, 64
6, 137973, Note_off_c, 4, 76, 64
6, 137973, Note_on_c, 4, 74, 76
6, 138045, Note_off_c, 4, 74, 64
6, 138078, Note_on_c, 4, 72, 66
6, 138145, Note_off_c, 4, 72, 64
6, 138229, Note_on_c, 4, 72, 64
6, 138560, Note_off_c, 4, 72, 64
6, 138560, End_track
7, 0, Start_track
7, 0, Title_t, "Oboe2"
7, 0, Program_c, 5, 68
7, 0, Control_c, 5, 7, 100
7, 467, Note_on_c, 5, 76, 70
7, 541, Note_off_c, 5, 76, 64
7, 704, Note_on_c, 5, 77, 72
7, 791, Note_off_c, 5, 77, 64
7, 950, Note_on_c, 5, 79, 82
7, 1143, Note_off_c, 5, 79, 64
7, 1180, Note_on_c, 5, 81, 66
7, 1243, Note_off_c, 5, 81, 64
7, 1284, Note_on_c, 5, 77, 55
7, 1352, Note_off_c, 5, 77, 64
7, 1426, Note_on_c, 5, 79, 66
7, 1505, Note_off_c, 5, 79, 64
7, 1665, Note_on_c, 5, 72, 57
7, 1747, Note_off_c, 5, 72, 64
7, 1917, Note_on_c, 5, 81, 87
7, 2112, Note_off_c, 5, 81, 64
7, 2161, Note_on_c, 5, 77, 64
7, 2250, Note_off_c, 5, 77, 64
7, 2395, Note_on_c, 5, 74, 61
7, 2468, Note_off_c, 5, 74, 64
7, 2628, Note_on_c, 5, 76, 68
7, 2717, Note_off_c, 5, 76, 64
7, 2870, Note_on_c, 5, 77, 70
7, 3073, Note_off_c, 5, 77, 64
7, 3116, Note_on_c, 5, 79, 72
7, 3192, Note_off_c, 5, 79, 64
7, 3221, Note_on_c, 5, 76, 60
7, 3302, Note_off_c, 5, 76, 64
7, 3343, Note_on_c, 5, 77, 64
7, 3432, Note_off_c, 5, 77, 64
7, 3455, Note_on_c, 5, 74, 57
7, 3544, Note_off_c, 5, 74, 64
7, 3584, Note_on_c, 5, 79, 78
7, 3668, Note_off_c, 5, 79, 64
7, 3829, Note_on_c, 5, 77, 76
7, 3875, Note_on_c, 5, 76, 57
7, 3884, Note_off_c, 5, 77, 64
7, 3917, Note_on_c, 5, 77, 66
7, 3927, Note_off_c, 5, 76, 64
7, 3964, Note_on_c, 5, 76, 68
7, 3982, Note_off_c, 5, 77, 64
7, 4045, Note_off_c, 5, 76, 64
7, 4065, Note_on_c, 5, 74, 68
7, 4169, Note_on_c, 5, 72, 61
7, 4182, Note_off_c, 5, 74, 64
7, 4239, Note_off_c, 5, 72, 64
7, 4303, Note_on_c, 5, 77, 82
7, 4421, Note_off_c, 5, 77, 64
7, 4421, Note_on_c, 5, 76, 68
7, 4537, Note_on_c, 5, 74, 52
7, 4546, Note_off_c, 5, 76, 64
7, 4637, Note_off_c, 5, 74, 64
7, 4653, Note_on_c, 5, 72, 58
7, 4719, Note_off_c, 5, 72, 64
7, 4797, Note_on_c, 5, 74, 72
7, 5004, Note_off_c, 5, 74, 64
7, 5034, Note_on_c, 5, 76, 66
7, 5100, Note_off_c, 5, 76, 64
7, 5144, Note_on_c, 5, 72, 57
7, 5217, Note_off_c, 5, 72, 64
7, 5269, Note_on_c, 5, 74, 63
7, 5352, Note_off_c, 5, 74, 64
7, 5368, Note_on_c, 5, 71, 56
7, 5437, Note_off_c, 5, 71, 64
7, 5504, Note_on_c, 5, 76, 70
7, 5580, Note_off_c, 5, 76, 64
7, 5751, Note_on_c, 5, 74, 68
7, 5802, Note_on_c, 5, 72, 78
7, 5812, Note_off_c, 5, 74, 64
7, 5849, Note_on_c, 5, 74, 68
7, 5851, Note_off_c, 5, 72, 64
7, 5887, Note_on_c, 5, 72, 66
7, 5914, Note_off_c, 5, 74, 64
7, 5976, Note_on_c, 5, 71, 61
7, 5985, Note_off_c, 5, 72, 64
7, 6071, Note_off_c, 5, 71, 64
7, 6091, Note_on_c, 5, 69, 61
7, 6164, Note_off_c, 5, 69, 64
7, 6216, Note_on_c, 5, 74, 78
7, 6326, Note_on_c, 5, 72, 66
7, 6360, Note_off_c, 5, 74, 64
7, 6455, Note_on_c, 5, 71, 61
7, 6456, Note_off_c, 5, 72, 64
7, 6566, Note_on_c, 5, 69, 63
7, 6569, Note_off_c, 5, 71, 64
7, 6630, Note_off_c, 5, 69, 64
7, 6699, Note_on_c, 5, 74, 70
7, 6785, Note_off_c, 5, 74, 64
7, 6947, Note_on_c, 5, 79, 80
7, 7032, Note_off_c, 5, 79, 64
7, 7200, Note_on_c, 5, 72, 78
7, 7242, Note_on_c, 5, 71, 57
7, 7249, Note_off_c, 5, 72, 64
7, 7289, Note_on_c, 5, 72, 66
7, 7295, Note_off_c, 5, 71, 64
7, 7338, Note_on_c, 5, 71, 64
7, 7344, Note_off_c, 5, 72, 64
7, 7432, Note_off_c, 5, 71, 64
7, 7435, Note_on_c, 5, 69, 68
7, 7509, Note_off_c, 5, 69, 64
7, 7548, Note_on_c, 5, 67, 76
7, 7605, Note_off_c, 5, 67, 64
7, 7684, Note_on_c, 5, 67, 66
7, 7984, Note_off_c, 5, 67, 64
7, 8153, Note_on_c, 5, 76, 66
7, 8235, Note_off_c, 5, 76, 64
7, 8389, Note_on_c, 5, 77, 68
7, 8482, Note_off_c, 5, 77, 64
7, 8644, Note_on_c, 5, 79, 82
7, 8852, Note_off_c, 5, 79, 64
7, 8869, Note_on_c, 5, 81, 68
7, 8948, Note_off_c, 5, 81, 64
7, 8983, Note_on_c, 5, 77, 64
7, 9043, Note_off_c, 5, 77, 64
7, 9122, Note_on_c, 5, 79, 60
7, 9202, Note_off_c, 5, 79, 64
7, 9358, Note_on_c, 5, 72, 57
7, 9431, Note_off_c, 5, 72, 64
7, 9588, Note_on_c, 5, 81, 91
7, 9789, Note_off_c, 5, 81, 64
7, 9825, Note_on_c, 5, 77, 66
7, 9913, Note_off_c, 5, 77, 64
7, 10079, Note_on_c, 5, 74, 58
7, 10165, Note_off_c, 5, 74, 64
7, 10309, Note_on_c, 5, 76, 60
7, 10397, Note_off_c, 5, 76, 64
7, 10547, Note_on_c, 5, 77, 72
7, 10745, Note_off_c, 5, 77, 64
7, 10787, Note_on_c, 5, 79, 68
7, 10860, Note_off_c, 5, 79, 64
7, 10895, Note_on_c, 5, 76, 60
7, 10971, Note_off_c, 5, 76, 64
7, 11013, Note_on_c, 5, 77, 63
7, 11101, Note_off_c, 5, 77, 64
7, 11123, Note_on_c, 5, 74, 53
7, 11212, Note_off_c, 5, 74, 64
7, 11258, Note_on_c, 5, 79, 74
7, 11353, Note_off_c, 5, 79, 64
7, 11504, Note_on_c, 5, 77, 82
7, 11553, Note_on_c, 5, 76, 63
7, 11557, Note_off_c, 5, 77, 64
7, 11598, Note_on_c, 5, 77, 72
7, 11606, Note_off_c, 5, 76, 64
7, 11641, Note_on_c, 5, 76, 64
7, 11652, Note_off_c, 5, 77, 64
7, 11733, Note_off_c, 5, 76, 64
7, 11737, Note_on_c, 5, 74, 70
7, 11832, Note_off_c, 5, 74, 64
7, 11844, Note_on_c, 5, 72, 62
7, 11915, Note_off_c, 5, 72, 64
7, 11978, Note_on_c, 5, 77, 80
7, 12093, Note_on_c, 5, 76, 64
7, 12106, Note_off_c, 5, 77, 64
7, 12217, Note_on_c, 5, 74, 56
7, 12220, Note_off_c, 5, 76, 64
7, 12313, Note_off_c, 5, 74, 64
7, 12325, Note_on_c, 5, 72, 61
7, 12385, Note_off_c, 5, 72, 64
7, 12468, Note_on_c, 5, 74, 72
7, 12669, Note_off_c, 5, 74, 64
7, 12698, Note_on_c, 5, 76, 68
7, 12780, Note_off_c, 5, 76, 64
7, 12816, Note_on_c, 5, 72, 58
7, 12885, Note_off_c, 5, 72, 64
7, 12944, Note_on_c, 5, 74, 70
7, 13038, Note_off_c, 5, 74, 64
7, 13046, Note_on_c, 5, 71, 57
7, 13136, Note_off_c, 5, 71, 64
7, 13182, Note_on_c, 5, 76, 70
7, 13283, Note_off_c, 5, 76, 64
7, 13427, Note_on_c, 5, 74, 63
7, 13474, Note_on_c, 5, 72, 80
7, 13487, Note_off_c, 5, 74, 64
7, 13519, Note_off_c, 5, 72, 64
7, 13523, Note_on_c, 5, 74, 68
7, 13560, Note_on_c, 5, 72, 66
7, 13591, Note_off_c, 5, 74, 64
7, 13654, Note_on_c, 5, 71, 60
7, 13660, Note_off_c, 5, 72, 64
7, 13743, Note_off_c, 5, 71, 64
7, 13774, Note_on_c, 5, 69, 61
7, 13843, Note_off_c, 5, 69, 64
7, 13897, Note_on_c, 5, 74, 70
7, 14008, Note_on_c, 5, 72, 60
7, 14047, Note_off_c, 5, 74, 64
7, 14139, Note_on_c, 5, 71, 57
7, 14145, Note_off_c, 5, 72, 64
7, 14250, Note_on_c, 5, 69, 60
7, 14251, Note_off_c, 5, 71, 64
7, 14328, Note_off_c, 5, 69, 64
7, 14383, Note_on_c, 5, 74, 76
7, 14468, Note_off_c, 5, 74, 64
7, 14625, Note_on_c, 5, 79, 80
7, 14710, Note_off_c, 5, 79, 64
7, 14868, Note_on_c, 5, 72, 80
7, 14914, Note_on_c, 5, 71, 60
7, 14923, Note_off_c, 5, 72, 64
7, 14962, Note_on_c, 5, 72, 70
7, 14973, Note_off_c, 5, 71, 64
7, 14999, Note_on_c, 5, 71, 57
7, 15015, Note_off_c, 5, 72, 64
7, 15097, Note_off_c, 5, 71, 64
7, 15110, Note_on_c, 5, 69, 64
7, 15195, Note_off_c, 5, 69, 64
7, 15224, Note_on_c, 5, 67, 64
7, 15280, Note_off_c, 5, 67, 64
7, 15352, Note_on_c, 5, 67, 55
7, 15663, Note_off_c, 5, 67, 64
7, 31200, Note_on_c, 5, 71, 72
7, 31282, Note_off_c, 5, 71, 64
7, 31434, Note_on_c, 5, 72, 72
7, 31513, Note_off_c, 5, 72, 64
7, 31689, Note_on_c, 5, 74, 80
7, 31889, Note_off_c, 5, 74, 64
7, 31915, Note_on_c, 5, 76, 66
7, 31981, Note_off_c, 5, 76, 64
7, 32010, Note_on_c, 5, 72, 64
7, 32107, Note_off_c, 5, 72, 64
7, 32144, Note_on_c, 5, 74, 85
7, 32229, Note_off_c, 5, 74, 64
7, 32385, Note_on_c, 5, 82, 80
7, 32470, Note_off_c, 5, 82, 64
7, 32640, Note_on_c, 5, 74, 78
7, 32691, Note_on_c, 5, 73, 70
7, 32703, Note_off_c, 5, 74, 64
7, 32732, Note_off_c, 5, 73, 64
7, 32739, Note_on_c, 5, 74, 72
7, 32776, Note_on_c, 5, 73, 62
7, 32802, Note_off_c, 5, 74, 64
7, 32874, Note_on_c, 5, 71, 68
7, 32877, Note_off_c, 5, 73, 64
7, 32959, Note_off_c, 5, 71, 64
7, 32987, Note_on_c, 5, 69, 64
7, 33061, Note_off_c, 5, 69, 64
7, 33105, Note_on_c, 5, 71, 64
7, 33204, Note_off_c, 5, 71, 64
7, 33220, Note_on_c, 5, 73, 53
7, 33313, Note_off_c, 5, 73, 64
7, 33344, Note_on_c, 5, 74, 72
7, 33439, Note_off_c, 5, 74, 64
7, 33460, Note_on_c, 5, 76, 58
7, 33551, Note_off_c, 5, 76, 64
7, 33587, Note_on_c, 5, 77, 85
7, 33776, Note_off_c, 5, 77, 64
7, 33830, Note_on_c, 5, 76, 64
7, 33915, Note_off_c, 5, 76, 64
7, 33930, Note_on_c, 5, 74, 61
7, 34012, Note_off_c, 5, 74, 64
7, 34061, Note_on_c, 5, 76, 70
7, 34123, Note_off_c, 5, 76, 64
7, 34176, Note_on_c, 5, 73, 52
7, 34270, Note_off_c, 5, 73, 64
7, 34306, Note_on_c, 5, 81, 87
7, 34405, Note_off_c, 5, 81, 64
7, 34558, Note_on_c, 5, 79, 66
7, 34605, Note_on_c, 5, 77, 70
7, 34620, Note_off_c, 5, 79, 64
7, 34654, Note_off_c, 5, 77, 64
7, 34656, Note_on_c, 5, 79, 66
7, 34699, Note_on_c, 5, 77, 70
7, 34735, Note_off_c, 5, 79, 64
7, 34798, Note_on_c, 5, 76, 70
7, 34808, Note_off_c, 5, 77, 64
7, 34874, Note_off_c, 5, 76, 64
7, 34909, Note_on_c, 5, 74, 74
7, 34968, Note_off_c, 5, 74, 64
7, 35030, Note_on_c, 5, 79, 85
7, 35129, Note_on_c, 5, 77, 64
7, 35154, Note_off_c, 5, 79, 64
7, 35252, Note_on_c, 5, 76, 57
7, 35255, Note_off_c, 5, 77, 64
7, 35334, Note_off_c, 5, 76, 64
7, 35357, Note_on_c, 5, 74, 56
7, 35436, Note_off_c, 5, 74, 64
7, 35489, Note_on_c, 5, 76, 80
7, 35705, Note_off_c, 5, 76, 64
7, 35737, Note_on_c, 5, 77, 70
7, 35819, Note_off_c, 5, 77, 64
7, 35848, Note_on_c, 5, 74, 63
7, 35923, Note_off_c, 5, 74, 64
7, 35975, Note_on_c, 5, 76, 64
7, 36065, Note_off_c, 5, 76, 64
7, 36081, Note_on_c, 5, 72, 54
7, 36178, Note_off_c, 5, 72, 64
7, 36219, Note_on_c, 5, 77, 82
7, 36339, Note_off_c, 5, 77, 64
7, 36476, Note_on_c, 5, 76, 80
7, 36530, Note_on_c, 5, 74, 57
7, 36539, Note_off_c, 5, 76, 64
7, 36576, Note_on_c, 5, 76, 68
7, 36579, Note_off_c, 5, 74, 64
7, 36620, Note_on_c, 5, 74, 68
7, 36631, Note_off_c, 5, 76, 64
7, 36708, Note_off_c, 5, 74, 64
7, 36710, Note_on_c, 5, 72, 66
7, 36811, Note_on_c, 5, 71, 54
7, 36816, Note_off_c, 5, 72, 64
7, 36888, Note_off_c, 5, 71, 64
7, 36944, Note_on_c, 5, 76, 87
7, 37047, Note_on_c, 5, 74, 68
7, 37070, Note_off_c, 5, 76, 64
7, 37163, Note_on_c, 5, 72, 52
7, 37164, Note_off_c, 5, 74, 64
7, 37278, Note_on_c, 5, 71, 41
7, 37284, Note_off_c, 5, 72, 64
7, 37374, Note_off_c, 5, 71, 64
7, 37420, Note_on_c, 5, 74, 82
7, 37525, Note_on_c, 5, 72, 64
7, 37557, Note_off_c, 5, 74, 64
7, 37654, Note_on_c, 5, 71, 57
7, 37668, Note_off_c, 5, 72, 64
7, 37766, Note_off_c, 5, 71, 64
7, 37766, Note_on_c, 5, 69, 57
7, 37852, Note_off_c, 5, 69, 64
7, 37891, Note_on_c, 5, 71, 76
7, 37976, Note_off_c, 5, 71, 64
7, 38158, Note_on_c, 5, 68, 64
7, 38235, Note_off_c, 5, 68, 64
7, 38407, Note_on_c, 5, 69, 63
7, 38713, Note_off_c, 5, 69, 64
7, 38872, Note_on_c, 5, 72, 55
7, 38960, Note_off_c, 5, 72, 64
7, 39109, Note_on_c, 5, 76, 66
7, 39194, Note_off_c, 5, 76, 64
7, 39347, Note_on_c, 5, 69, 64
7, 39567, Note_off_c, 5, 69, 64
7, 39598, Note_on_c, 5, 71, 68
7, 39675, Note_off_c, 5, 71, 64
7, 39700, Note_on_c, 5, 72, 72
7, 39775, Note_off_c, 5, 72, 64
7, 39814, Note_on_c, 5, 74, 64
7, 39923, Note_off_c, 5, 74, 64
7, 39927, Note_on_c, 5, 76, 64
7, 40004, Note_off_c, 5, 76, 64
7, 40060, Note_on_c, 5, 77, 82
7, 40431, Note_off_c, 5, 77, 64
7, 40558, Note_on_c, 5, 71, 58
7, 40647, Note_off_c, 5, 71, 64
7, 40790, Note_on_c, 5, 76, 57
7, 40872, Note_off_c, 5, 76, 64
7, 41023, Note_on_c, 5, 79, 80
7, 41113, Note_off_c, 5, 79, 64
7, 41272, Note_on_c, 5, 72, 64
7, 41488, Note_off_c, 5, 72, 64
7, 41511, Note_on_c, 5, 74, 70
7, 41601, Note_off_c, 5, 74, 64
7, 41621, Note_on_c, 5, 76, 66
7, 41710, Note_off_c, 5, 76, 64
7, 41737, Note_on_c, 5, 77, 78
7, 41856, Note_off_c, 5, 77, 64
7, 41860, Note_on_c, 5, 79, 82
7, 41946, Note_off_c, 5, 79, 64
7, 41985, Note_on_c, 5, 81, 80
7, 42420, Note_off_c, 5, 81, 64
7, 42473, Note_on_c, 5, 79, 72
7, 42567, Note_off_c, 5, 79, 64
7, 42580, Note_on_c, 5, 77, 62
7, 42675, Note_off_c, 5, 77, 64
7, 42696, Note_on_c, 5, 76, 60
7, 42782, Note_off_c, 5, 76, 64
7, 42810, Note_on_c, 5, 74, 66
7, 42897, Note_off_c, 5, 74, 64
7, 42937, Note_on_c, 5, 79, 89
7, 43022, Note_off_c, 5, 79, 64
7, 43176, Note_on_c, 5, 70, 70
7, 43373, Note_off_c, 5, 70, 64
7, 43415, Note_on_c, 5, 72, 64
7, 43490, Note_off_c, 5, 72, 64
7, 43526, Note_on_c, 5, 69, 59
7, 43624, Note_off_c, 5, 69, 64
7, 43656, Note_on_c, 5, 70, 64
7, 43751, Note_off_c, 5, 70, 64
7, 43908, Note_on_c, 5, 79, 82
7, 43998, Note_off_c, 5, 79, 64
7, 44148, Note_on_c, 5, 70, 66
7, 44262, Note_on_c, 5, 69, 60
7, 44266, Note_off_c, 5, 70, 64
7, 44381, Note_on_c, 5, 67, 55
7, 44386, Note_off_c, 5, 69, 64
7, 44496, Note_off_c, 5, 67, 64
7, 44499, Note_on_c, 5, 65, 56
7, 44576, Note_off_c, 5, 65, 64
7, 44625, Note_on_c, 5, 72, 85
7, 44737, Note_on_c, 5, 71, 68
7, 44773, Note_off_c, 5, 72, 64
7, 44856, Note_on_c, 5, 69, 56
7, 44862, Note_off_c, 5, 71, 64
7, 44947, Note_off_c, 5, 69, 64
7, 44964, Note_on_c, 5, 67, 60
7, 45084, Note_off_c, 5, 67, 64
7, 45097, Note_on_c, 5, 79, 72
7, 45183, Note_off_c, 5, 79, 64
7, 45343, Note_on_c, 5, 81, 82
7, 45447, Note_off_c, 5, 81, 64
7, 45591, Note_on_c, 5, 77, 80
7, 45647, Note_on_c, 5, 76, 63
7, 45651, Note_off_c, 5, 77, 64
7, 45692, Note_on_c, 5, 77, 72
7, 45696, Note_off_c, 5, 76, 64
7, 45741, Note_on_c, 5, 76, 66
7, 45748, Note_off_c, 5, 77, 64
7, 45830, Note_off_c, 5, 76, 64
7, 45834, Note_on_c, 5, 74, 78
7, 45918, Note_off_c, 5, 74, 64
7, 45941, Note_on_c, 5, 72, 68
7, 45997, Note_off_c, 5, 72, 64
7, 46080, Note_on_c, 5, 72, 60
7, 46438, Note_off_c, 5, 72, 64
7, 61939, Note_on_c, 5, 71, 63
7, 62109, Note_off_c, 5, 71, 64
7, 62139, Note_on_c, 5, 67, 59
7, 62250, Note_off_c, 5, 67, 64
7, 62262, Note_on_c, 5, 69, 57
7, 62335, Note_off_c, 5, 69, 64
7, 62377, Note_on_c, 5, 71, 60
7, 62482, Note_off_c, 5, 71, 64
7, 62496, Note_on_c, 5, 73, 54
7, 62563, Note_off_c, 5, 73, 64
7, 62609, Note_on_c, 5, 74, 70
7, 63039, Note_off_c, 5, 74, 64
7, 63116, Note_on_c, 5, 73, 53
7, 63286, Note_off_c, 5, 73, 64
7, 63358, Note_on_c, 5, 74, 60
7, 63448, Note_off_c, 5, 74, 64
7, 63471, Note_on_c, 5, 76, 70
7, 63553, Note_off_c, 5, 76, 64
7, 63594, Note_on_c, 5, 77, 68
7, 64004, Note_off_c, 5, 77, 64
7, 64053, Note_on_c, 5, 76, 59
7, 64140, Note_off_c, 5, 76, 64
7, 64171, Note_on_c, 5, 74, 59
7, 64249, Note_off_c, 5, 74, 64
7, 64294, Note_on_c, 5, 76, 63
7, 64412, Note_on_c, 5, 74, 63
7, 64430, Note_off_c, 5, 76, 64
7, 64546, Note_on_c, 5, 73, 52
7, 64553, Note_off_c, 5, 74, 64
7, 64662, Note_on_c, 5, 74, 60
7, 64667, Note_off_c, 5, 73, 64
7, 64744, Note_off_c, 5, 74, 64
7, 64786, Note_on_c, 5, 76, 64
7, 64896, Note_on_c, 5, 74, 59
7, 64911, Note_off_c, 5, 76, 64
7, 65021, Note_on_c, 5, 76, 64
7, 65032, Note_off_c, 5, 74, 64
7, 65133, Note_off_c, 5, 76, 64
7, 65145, Note_on_c, 5, 73, 47
7, 65220, Note_off_c, 5, 73, 64
7, 65268, Note_on_c, 5, 74, 61
7, 65421, Note_off_c, 5, 74, 64
7, 65518, Note_on_c, 5, 69, 60
7, 65634, Note_off_c, 5, 69, 64
7, 65755, Note_on_c, 5, 74, 72
7, 65872, Note_on_c, 5, 72, 63
7, 65892, Note_off_c, 5, 74, 64
7, 65999, Note_on_c, 5, 71, 48
7, 66004, Note_off_c, 5, 72, 64
7, 66098, Note_off_c, 5, 71, 64
7, 66099, Note_on_c, 5, 69, 53
7, 66171, Note_off_c, 5, 69, 64
7, 66216, Note_on_c, 5, 72, 68
7, 66338, Note_on_c, 5, 71, 61
7, 66360, Note_off_c, 5, 72, 64
7, 66468, Note_on_c, 5, 69, 52
7, 66480, Note_off_c, 5, 71, 64
7, 66576, Note_on_c, 5, 67, 57
7, 66588, Note_off_c, 5, 69, 64
7, 66687, Note_off_c, 5, 67, 64
7, 66701, Note_on_c, 5, 69, 64
7, 66824, Note_on_c, 5, 71, 66
7, 66841, Note_off_c, 5, 69, 64
7, 66946, Note_on_c, 5, 72, 64
7, 66950, Note_off_c, 5, 71, 64
7, 67053, Note_on_c, 5, 71, 52
7, 67063, Note_off_c, 5, 72, 64
7, 67139, Note_off_c, 5, 71, 64
7, 67185, Note_on_c, 5, 72, 60
7, 68085, Note_off_c, 5, 72, 64
7, 68143, Note_on_c, 5, 72, 60
7, 68688, Note_off_c, 5, 72, 64
7, 68719, Note_on_c, 5, 76, 68
7, 68840, Note_on_c, 5, 74, 58
7, 68854, Note_off_c, 5, 76, 64
7, 68963, Note_on_c, 5, 72, 63
7, 68978, Note_off_c, 5, 74, 64
7, 69043, Note_off_c, 5, 72, 64
7, 69096, Note_on_c, 5, 71, 64
7, 69211, Note_on_c, 5, 69, 44
7, 69218, Note_off_c, 5, 71, 64
7, 69305, Note_off_c, 5, 69, 64
7, 69344, Note_on_c, 5, 67, 62
7, 69452, Note_on_c, 5, 65, 51
7, 69475, Note_off_c, 5, 67, 64
7, 69521, Note_off_c, 5, 65, 64
7, 69576, Note_on_c, 5, 64, 60
7, 69691, Note_on_c, 5, 62, 58
7, 69696, Note_off_c, 5, 64, 64
7, 69776, Note_off_c, 5, 62, 64
7, 69832, Note_on_c, 5, 60, 57
7, 69948, Note_off_c, 5, 60, 64
7, 69948, Note_on_c, 5, 62, 66
7, 70025, Note_off_c, 5, 62, 64
7, 70084, Note_on_c, 5, 64, 64
7, 70149, Note_off_c, 5, 64, 64
7, 70186, Note_on_c, 5, 65, 62
7, 70254, Note_off_c, 5, 65, 64
7, 70311, Note_on_c, 5, 67, 64
7, 70740, Note_off_c, 5, 67, 64
7, 70792, Note_on_c, 5, 65, 52
7, 70964, Note_off_c, 5, 65, 64
7, 71034, Note_on_c, 5, 67, 72
7, 71077, Note_on_c, 5, 65, 61
7, 71086, Note_off_c, 5, 67, 64
7, 71129, Note_on_c, 5, 67, 68
7, 71131, Note_off_c, 5, 65, 64
7, 71175, Note_on_c, 5, 65, 61
7, 71193, Note_off_c, 5, 67, 64
7, 71244, Note_off_c, 5, 65, 64
7, 71276, Note_on_c, 5, 64, 64
7, 71378, Note_on_c, 5, 62, 53
7, 71394, Note_off_c, 5, 64, 64
7, 71448, Note_off_c, 5, 62, 64
7, 71520, Note_on_c, 5, 64, 57
7, 71628, Note_on_c, 5, 67, 66
7, 71632, Note_off_c, 5, 64, 64
7, 71689, Note_off_c, 5, 67, 64
7, 71754, Note_on_c, 5, 72, 66
7, 71851, Note_off_c, 5, 72, 64
7, 71862, Note_on_c, 5, 71, 57
7, 71941, Note_off_c, 5, 71, 64
7, 71982, Note_on_c, 5, 74, 68
7, 72093, Note_off_c, 5, 74, 64
7, 72094, Note_on_c, 5, 72, 55
7, 72169, Note_off_c, 5, 72, 64
7, 72222, Note_on_c, 5, 77, 70
7, 72336, Note_on_c, 5, 76, 63
7, 72350, Note_off_c, 5, 77, 64
7, 72402, Note_off_c, 5, 76, 64
7, 72461, Note_on_c, 5, 74, 59
7, 72569, Note_off_c, 5, 74, 64
7, 72582, Note_on_c, 5, 72, 58
7, 72654, Note_off_c, 5, 72, 64
7, 72706, Note_on_c, 5, 71, 68
7, 72800, Note_off_c, 5, 71, 64
7, 72813, Note_on_c, 5, 69, 57
7, 72883, Note_off_c, 5, 69, 64
7, 72942, Note_on_c, 5, 71, 57
7, 73338, Note_off_c, 5, 71, 64
7, 73435, Note_on_c, 5, 67, 60
7, 73615, Note_off_c, 5, 67, 64
7, 73672, Note_on_c, 5, 69, 60
7, 73741, Note_off_c, 5, 69, 64
7, 73780, Note_on_c, 5, 71, 64
7, 73851, Note_off_c, 5, 71, 64
7, 73902, Note_on_c, 5, 72, 61
7, 73992, Note_off_c, 5, 72, 64
7, 74016, Note_on_c, 5, 74, 70
7, 74097, Note_off_c, 5, 74, 64
7, 74150, Note_on_c, 5, 76, 68
7, 74575, Note_off_c, 5, 76, 64
7, 74628, Note_on_c, 5, 74, 60
7, 74794, Note_off_c, 5, 74, 64
7, 74856, Note_on_c, 5, 76, 66
7, 74898, Note_on_c, 5, 74, 64
7, 74909, Note_off_c, 5, 76, 64
7, 74951, Note_on_c, 5, 76, 62
7, 74952, Note_off_c, 5, 74, 64
7, 74993, Note_on_c, 5, 74, 66
7, 75009, Note_off_c, 5, 76, 64
7, 75086, Note_off_c, 5, 74, 64
7, 75107, Note_on_c, 5, 72, 66
7, 75213, Note_off_c, 5, 72, 64
7, 75222, Note_on_c, 5, 71, 57
7, 75288, Note_off_c, 5, 71, 64
7, 75344, Note_on_c, 5, 72, 68
7, 75444, Note_on_c, 5, 74, 68
7, 75449, Note_off_c, 5, 72, 64
7, 75570, Note_on_c, 5, 76, 70
7, 75573, Note_off_c, 5, 74, 64
7, 75690, Note_on_c, 5, 74, 60
7, 75704, Note_off_c, 5, 76, 64
7, 75782, Note_off_c, 5, 74, 64
7, 75816, Note_on_c, 5, 77, 72
7, 75933, Note_on_c, 5, 76, 64
7, 75952, Note_off_c, 5, 77, 64
7, 76061, Note_on_c, 5, 74, 57
7, 76065, Note_off_c, 5, 76, 64
7, 76164, Note_off_c, 5, 74, 64
7, 76171, Note_on_c, 5, 72, 76
7, 76260, Note_off_c, 5, 72, 64
7, 76300, Note_on_c, 5, 64, 63
7, 76421, Note_off_c, 5, 64, 64
7, 76539, Note_on_c, 5, 65, 53
7, 76630, Note_off_c, 5, 65, 64
7, 76656, Note_on_c, 5, 62, 57
7, 76724, Note_off_c, 5, 62, 64
7, 76783, Note_on_c, 5, 64, 57
7, 77130, Note_off_c, 5, 64, 64
7, 92627, Note_on_c, 5, 76, 70
7, 92701, Note_off_c, 5, 76, 64
7, 92864, Note_on_c, 5, 77, 72
7, 92951, Note_off_c, 5, 77, 64
7, 93110, Note_on_c, 5, 79, 82
7, 93303, Note_off_c, 5, 79, 64
7, 93340, Note_on_c, 5, 81, 66
7, 93403, Note_off_c, 5, 81, 64
7, 93444, Note_on_c, 5, 77, 55
7, 93512, Note_off_c, 5, 77, 64
7, 93586, Note_on_c, 5, 79, 66
7, 93665, Note_off_c, 5, 79, 64
7, 93825, Note_on_c, 5, 72, 57
7, 93907, Note_off_c, 5, 72, 64
7, 94077, Note_on_c, 5, 81, 87
7, 94272, Note_off_c, 5, 81, 64
7, 94321, Note_on_c, 5, 77, 64
7, 94410, Note_off_c, 5, 77, 64
7, 94555, Note_on_c, 5, 74, 61
7, 94628, Note_off_c, 5, 74, 64
7, 94788, Note_on_c, 5, 76, 68
7, 94877, Note_off_c, 5, 76, 64
7, 95030, Note_on_c, 5, 77, 70
7, 95233, Note_off_c, 5, 77, 64
7, 95276, Note_on_c, 5, 79, 72
7, 95352, Note_off_c, 5, 79, 64
7, 95381, Note_on_c, 5, 76, 60
7, 95462, Note_off_c, 5, 76, 64
7, 95503, Note_on_c, 5, 77, 64
7, 95592, Note_off_c, 5, 77, 64
7, 95615, Note_on_c, 5, 74, 57
7, 95704, Note_off_c, 5, 74, 64
7, 95744, Note_on_c, 5, 79, 78
7, 95828, Note_off_c, 5, 79, 64
7, 95989, Note_on_c, 5, 77, 76
7, 96035, Note_on_c, 5, 76, 57
7, 96044, Note_off_c, 5, 77, 64
7, 96077, Note_on_c, 5, 77, 66
7, 96087, Note_off_c, 5, 76, 64
7, 96124, Note_on_c, 5, 76, 68
7, 96142, Note_off_c, 5, 77, 64
7, 96205, Note_off_c, 5, 76, 64
7, 96225, Note_on_c, 5, 74, 68
7, 96329, Note_on_c, 5, 72, 61
7, 96342, Note_off_c, 5, 74, 64
7, 96399, Note_off_c, 5, 72, 64
7, 96463, Note_on_c, 5, 77, 82
7, 96581, Note_off_c, 5, 77, 64
7, 96581, Note_on_c, 5, 76, 68
7, 96697, Note_on_c, 5, 74, 52
7, 96706, Note_off_c, 5, 76, 64
7, 96797, Note_off_c, 5, 74, 64
7, 96813, Note_on_c, 5, 72, 58
7, 96879, Note_off_c, 5, 72, 64
7, 96957, Note_on_c, 5, 74, 72
7, 97164, Note_off_c, 5, 74, 64
7, 97194, Note_on_c, 5, 76, 66
7, 97260, Note_off_c, 5, 76, 64
7, 97304, Note_on_c, 5, 72, 57
7, 97377, Note_off_c, 5, 72, 64
7, 97429, Note_on_c, 5, 74, 63
7, 97512, Note_off_c, 5, 74, 64
7, 97528, Note_on_c, 5, 71, 56
7, 97597, Note_off_c, 5, 71, 64
7, 97664, Note_on_c, 5, 76, 70
7, 97740, Note_off_c, 5, 76, 64
7, 97911, Note_on_c, 5, 74, 68
7, 97962, Note_on_c, 5, 72, 78
7, 97972, Note_off_c, 5, 74, 64
7, 98009, Note_on_c, 5, 74, 68
7, 98011, Note_off_c, 5, 72, 64
7, 98047, Note_on_c, 5, 72, 66
7, 98074, Note_off_c, 5, 74, 64
7, 98136, Note_on_c, 5, 71, 61
7, 98145, Note_off_c, 5, 72, 64
7, 98231, Note_off_c, 5, 71, 64
7, 98251, Note_on_c, 5, 69, 61
7, 98324, Note_off_c, 5, 69, 64
7, 98376, Note_on_c, 5, 74, 78
7, 98486, Note_on_c, 5, 72, 66
7, 98520, Note_off_c, 5, 74, 64
7, 98615, Note_on_c, 5, 71, 61
7, 98616, Note_off_c, 5, 72, 64
7, 98726, Note_on_c, 5, 69, 63
7, 98729, Note_off_c, 5, 71, 64
7, 98790, Note_off_c, 5, 69, 64
7, 98859, Note_on_c, 5, 74, 70
7, 98945, Note_off_c, 5, 74, 64
7, 99107, Note_on_c, 5, 79, 80
7, 99192, Note_off_c, 5, 79, 64
7, 99360, Note_on_c, 5, 72, 78
7, 99402, Note_on_c, 5, 71, 57
7, 99409, Note_off_c, 5, 72, 64
7, 99449, Note_on_c, 5, 72, 66
7, 99455, Note_off_c, 5, 71, 64
7, 99498, Note_on_c, 5, 71, 64
7, 99504, Note_off_c, 5, 72, 64
7, 99592, Note_off_c, 5, 71, 64
7, 99595, Note_on_c, 5, 69, 68
7, 99669, Note_off_c, 5, 69, 64
7, 99708, Note_on_c, 5, 67, 76
7, 99765, Note_off_c, 5, 67, 64
7, 99844, Note_on_c, 5, 67, 66
7, 100144, Note_off_c, 5, 67, 64
7, 100313, Note_on_c, 5, 76, 66
7, 100395, Note_off_c, 5, 76, 64
7, 100549, Note_on_c, 5, 77, 68
7, 100642, Note_off_c, 5, 77, 64
7, 100804, Note_on_c, 5, 79, 82
7, 101012, Note_off_c, 5, 79, 64
7, 101029, Note_on_c, 5, 81, 68
7, 101108, Note_off_c, 5, 81, 64
7, 101143, Note_on_c, 5, 77, 64
7, 101203, Note_off_c, 5, 77, 64
7, 101282, Note_on_c, 5, 79, 60
7, 101362, Note_off_c, 5, 79, 64
7, 101518, Note_on_c, 5, 72, 57
7, 101591, Note_off_c, 5, 72, 64
7, 101748, Note_on_c, 5, 81, 91
7, 101949, Note_off_c, 5, 81, 64
7, 101985, Note_on_c, 5, 77, 66
7, 102073, Note_off_c, 5, 77, 64
7, 102239, Note_on_c, 5, 74, 58
7, 102325, Note_off_c, 5, 74, 64
7, 102469, Note_on_c, 5, 76, 60
7, 102557, Note_off_c, 5, 76, 64
7, 102707, Note_on_c, 5, 77, 72
7, 102905, Note_off_c, 5, 77, 64
7, 102947, Note_on_c, 5, 79, 68
7, 103020, Note_off_c, 5, 79, 64
7, 103055, Note_on_c, 5, 76, 60
7, 103131, Note_off_c, 5, 76, 64
7, 103173, Note_on_c, 5, 77, 63
7, 103261, Note_off_c, 5, 77, 64
7, 103283, Note_on_c, 5, 74, 53
7, 103372, Note_off_c, 5, 74, 64
7, 103418, Note_on_c, 5, 79, 74
7, 103513, Note_off_c, 5, 79, 64
7, 103664, Note_on_c, 5, 77, 82
7, 103713, Note_on_c, 5, 76, 63
7, 103717, Note_off_c, 5, 77, 64
7, 103758, Note_on_c, 5, 77, 72
7, 103766, Note_off_c, 5, 76, 64
7, 103801, Note_on_c, 5, 76, 64
7, 103812, Note_off_c, 5, 77, 64
7, 103893, Note_off_c, 5, 76, 64
7, 103897, Note_on_c, 5, 74, 70
7, 103992, Note_off_c, 5, 74, 64
7, 104004, Note_on_c, 5, 72, 62
7, 104075, Note_off_c, 5, 72, 64
7, 104138, Note_on_c, 5, 77, 80
7, 104253, Note_on_c, 5, 76, 64
7, 104266, Note_off_c, 5, 77, 64
7, 104377, Note_on_c, 5, 74, 56
7, 104380, Note_off_c, 5, 76, 64
7, 104473, Note_off_c, 5, 74, 64
7, 104485, Note_on_c, 5, 72, 61
7, 104545, Note_off_c, 5, 72, 64
7, 104628, Note_on_c, 5, 74, 72
7, 104829, Note_off_c, 5, 74, 64
7, 104858, Note_on_c, 5, 76, 68
7, 104940, Note_off_c, 5, 76, 64
7, 104976, Note_on_c, 5, 72, 58
7, 105045, Note_off_c, 5, 72, 64
7, 105104, Note_on_c, 5, 74, 70
7, 105198, Note_off_c, 5, 74, 64
7, 105206, Note_on_c, 5, 71, 57
7, 105296, Note_off_c, 5, 71, 64
7, 105342, Note_on_c, 5, 76, 70
7, 105443, Note_off_c, 5, 76, 64
7, 105587, Note_on_c, 5, 74, 63
7, 105634, Note_on_c, 5, 72, 80
7, 105647, Note_off_c, 5, 74, 64
7, 105679, Note_off_c, 5, 72, 64
7, 105683, Note_on_c, 5, 74, 68
7, 105720, Note_on_c, 5, 72, 66
7, 105751, Note_off_c, 5, 74, 64
7, 105814, Note_on_c, 5, 71, 60
7, 105820, Note_off_c, 5, 72, 64
7, 105903, Note_off_c, 5, 71, 64
7, 105934, Note_on_c, 5, 69, 61
7, 106003, Note_off_c, 5, 69, 64
7, 106057, Note_on_c, 5, 74, 70
7, 106168, Note_on_c, 5, 72, 60
7, 106207, Note_off_c, 5, 74, 64
7, 106299, Note_on_c, 5, 71, 57
7, 106305, Note_off_c, 5, 72, 64
7, 106410, Note_on_c, 5, 69, 60
7, 106411, Note_off_c, 5, 71, 64
7, 106488, Note_off_c, 5, 69, 64
7, 106543, Note_on_c, 5, 74, 76
7, 106628, Note_off_c, 5, 74, 64
7, 106785, Note_on_c, 5, 79, 80
7, 106870, Note_off_c, 5, 79, 64
7, 107028, Note_on_c, 5, 72, 80
7, 107074, Note_on_c, 5, 71, 60
7, 107083, Note_off_c, 5, 72, 64
7, 107122, Note_on_c, 5, 72, 70
7, 107133, Note_off_c, 5, 71, 64
7, 107159, Note_on_c, 5, 71, 57
7, 107175, Note_off_c, 5, 72, 64
7, 107257, Note_off_c, 5, 71, 64
7, 107270, Note_on_c, 5, 69, 64
7, 107355, Note_off_c, 5, 69, 64
7, 107384, Note_on_c, 5, 67, 64
7, 107440, Note_off_c, 5, 67, 64
7, 107512, Note_on_c, 5, 67, 55
7, 107823, Note_off_c, 5, 67, 64
7, 123360, Note_on_c, 5, 71, 72
7, 123442, Note_off_c, 5, 71, 64
7, 123594, Note_on_c, 5, 72, 72
7, 123673, Note_off_c, 5, 72, 64
7, 123849, Note_on_c, 5, 74, 80
7, 124049, Note_off_c, 5, 74, 64
7, 124075, Note_on_c, 5, 76, 66
7, 124141, Note_off_c, 5, 76, 64
7, 124170, Note_on_c, 5, 72, 64
7, 124267, Note_off_c, 5, 72, 64
7, 124304, Note_on_c, 5, 74, 85
7, 124389, Note_off_c, 5, 74, 64
7, 124545, Note_on_c, 5, 82, 80
7, 124630, Note_off_c, 5, 82, 64
7, 124800, Note_on_c, 5, 74, 78
7, 124851, Note_on_c, 5, 73, 70
7, 124863, Note_off_c, 5, 74, 64
7, 124892, Note_off_c, 5, 73, 64
7, 124899, Note_on_c, 5, 74, 72
7, 124936, Note_on_c, 5, 73, 62
7, 124962, Note_off_c, 5, 74, 64
7, 125034, Note_on_c, 5, 71, 68
7, 125037, Note_off_c, 5, 73, 64
7, 125119, Note_off_c, 5, 71, 64
7, 125147, Note_on_c, 5, 69, 64
7, 125221, Note_off_c, 5, 69, 64
7, 125265, Note_on_c, 5, 71, 64
7, 125364, Note_off_c, 5, 71, 64
7, 125380, Note_on_c, 5, 73, 53
7, 125473, Note_off_c, 5, 73, 64
7, 125504, Note_on_c, 5, 74, 72
7, 125599, Note_off_c, 5, 74, 64
7, 125620, Note_on_c, 5, 76, 58
7, 125711, Note_off_c, 5, 76, 64
7, 125747, Note_on_c, 5, 77, 85
7, 125936, Note_off_c, 5, 77, 64
7, 125990, Note_on_c, 5, 76, 64
7, 126075, Note_off_c, 5, 76, 64
7, 126090, Note_on_c, 5, 74, 61
7, 126172, Note_off_c, 5, 74, 64
7, 126221, Note_on_c, 5, 76, 70
7, 126283, Note_off_c, 5, 76, 64
7, 126336, Note_on_c, 5, 73, 52
7, 126430, Note_off_c, 5, 73, 64
7, 126466, Note_on_c, 5, 81, 87
7, 126565, Note_off_c, 5, 81, 64
7, 126718, Note_on_c, 5, 79, 66
7, 126765, Note_on_c, 5, 77, 70
7, 126780, Note_off_c, 5, 79, 64
7, 126814, Note_off_c, 5, 77, 64
7, 126816, Note_on_c, 5, 79, 66
7, 126859, Note_on_c, 5, 77, 70
7, 126895, Note_off_c, 5, 79, 64
7, 126958, Note_on_c, 5, 76, 70
7, 126968, Note_off_c, 5, 77, 64
7, 127034, Note_off_c, 5, 76, 64
7, 127069, Note_on_c, 5, 74, 74
7, 127128, Note_off_c, 5, 74, 64
7, 127190, Note_on_c, 5, 79, 85
7, 127289, Note_on_c, 5, 77, 64
7, 127314, Note_off_c, 5, 79, 64
7, 127412, Note_on_c, 5, 76, 57
7, 127415, Note_off_c, 5, 77, 64
7, 127494, Note_off_c, 5, 76, 64
7, 127517, Note_on_c, 5, 74, 56
7, 127596, Note_off_c, 5, 74, 64
7, 127649, Note_on_c, 5, 76, 80
7, 127865, Note_off_c, 5, 76, 64
7, 127897, Note_on_c, 5, 77, 70
7, 127979, Note_off_c, 5, 77, 64
7, 128008, Note_on_c, 5, 74, 63
7, 128083, Note_off_c, 5, 74, 64
7, 128135, Note_on_c, 5, 76, 64
7, 128225, Note_off_c, 5, 76, 64
7, 128241, Note_on_c, 5, 72, 54
7, 128338, Note_off_c, 5, 72, 64
7, 128379, Note_on_c, 5, 77, 82
7, 128499, Note_off_c, 5, 77, 64
7, 128636, Note_on_c, 5, 76, 80
7, 128690, Note_on_c, 5, 74, 57
7, 128699, Note_off_c, 5, 76, 64
7, 128736, Note_on_c, 5, 76, 68
7, 128739, Note_off_c, 5, 74, 64
7, 128780, Note_on_c, 5, 74, 68
7, 128791, Note_off_c, 5, 76, 64
7, 128868, Note_off_c, 5, 74, 64
7, 128870, Note_on_c, 5, 72, 66
7, 128971, Note_on_c, 5, 71, 54
7, 128976, Note_off_c, 5, 72, 64
7, 129048, Note_off_c, 5, 71, 64
7, 129104, Note_on_c, 5, 76, 87
7, 129207, Note_on_c, 5, 74, 68
7, 129230, Note_off_c, 5, 76, 64
7, 129323, Note_on_c, 5, 72, 52
7, 129324, Note_off_c, 5, 74, 64
7, 129438, Note_on_c, 5, 71, 41
7, 129444, Note_off_c, 5, 72, 64
7, 129534, Note_off_c, 5, 71, 64
7, 129580, Note_on_c, 5, 74, 82
7, 129685, Note_on_c, 5, 72, 64
7, 129717, Note_off_c, 5, 74, 64
7, 129814, Note_on_c, 5, 71, 57
7, 129828, Note_off_c, 5, 72, 64
7, 129926, Note_off_c, 5, 71, 64
7, 129926, Note_on_c, 5, 69, 57
7, 130012, Note_off_c, 5, 69, 64
7, 130051, Note_on_c, 5, 71, 76
7, 130136, Note_off_c, 5, 71, 64
7, 130318, Note_on_c, 5, 68, 64
7, 130395, Note_off_c, 5, 68, 64
7, 130567, Note_on_c, 5, 69, 63
7, 130873, Note_off_c, 5, 69, 64
7, 131032, Note_on_c, 5, 72, 55
7, 131120, Note_off_c, 5, 72, 64
7, 131269, Note_on_c, 5, 76, 66
7, 131354, Note_off_c, 5, 76, 64
7, 131507, Note_on_c, 5, 69, 64
7, 131727, Note_off_c, 5, 69, 64
7, 131758, Note_on_c, 5, 71, 68
7, 131835, Note_off_c, 5, 71, 64
7, 131860, Note_on_c, 5, 72, 72
7, 131935, Note_off_c, 5, 72, 64
7, 131974, Note_on_c, 5, 74, 64
7, 132083, Note_off_c, 5, 74, 64
7, 132087, Note_on_c, 5, 76, 64
7, 132164, Note_off_c, 5, 76, 64
7, 132220, Note_on_c, 5, 77, 82
7, 132591, Note_off_c, 5, 77, 64
7, 132718, Note_on_c, 5, 71, 58
7, 132807, Note_off_c, 5, 71, 64
7, 132950, Note_on_c, 5, 76, 57
7, 133032, Note_off_c, 5, 76, 64
7, 133183, Note_on_c, 5, 79, 80
7, 133273, Note_off_c, 5, 79, 64
7, 133432, Note_on_c, 5, 72, 64
7, 133648, Note_off_c, 5, 72, 64
7, 133671, Note_on_c, 5, 74, 70
7, 133761, Note_off_c, 5, 74, 64
7, 133781, Note_on_c, 5, 76, 66
7, 133870, Note_off_c, 5, 76, 64
7, 133897, Note_on_c, 5, 77, 78
7, 134016, Note_off_c, 5, 77, 64
7, 134020, Note_on_c, 5, 79, 82
7, 134106, Note_off_c, 5, 79, 64
7, 134145, Note_on_c, 5, 81, 80
7, 134580, Note_off_c, 5, 81, 64
7, 134633, Note_on_c, 5, 79, 72
7, 134727, Note_off_c, 5, 79, 64
7, 134740, Note_on_c, 5, 77, 62
7, 134835, Note_off_c, 5, 77, 64
7, 134856, Note_on_c, 5, 76, 60
7, 134942, Note_off_c, 5, 76, 64
7, 134970, Note_on_c, 5, 74, 66
7, 135057, Note_off_c, 5, 74, 64
7, 135097, Note_on_c, 5, 79, 89
7, 135182, Note_off_c, 5, 79, 64
7, 135336, Note_on_c, 5, 70, 70
7, 135533, Note_off_c, 5, 70, 64
7, 135575, Note_on_c, 5, 72, 64
7, 135650, Note_off_c, 5, 72, 64
7, 135686, Note_on_c, 5, 69, 59
7, 135784, Note_off_c, 5, 69, 64
7, 135816, Note_on_c, 5, 70, 64
7, 135911, Note_off_c, 5, 70, 64
7, 136068, Note_on_c, 5, 79, 82
7, 136158, Note_off_c, 5, 79, 64
7, 136308, Note_on_c, 5, 70, 66
7, 136422, Note_on_c, 5, 69, 60
7, 136426, Note_off_c, 5, 70, 64
7, 136541, Note_on_c, 5, 67, 55
7, 136546, Note_off_c, 5, 69, 64
7, 136656, Note_off_c, 5, 67, 64
7, 136659, Note_on_c, 5, 65, 56
7, 136736, Note_off_c, 5, 65, 64
7, 136785, Note_on_c, 5, 72, 85
7, 136897, Note_on_c, 5, 71, 68
7, 136933, Note_off_c, 5, 72, 64
7, 137016, Note_on_c, 5, 69, 56
7, 137022, Note_off_c, 5, 71, 64
7, 137107, Note_off_c, 5, 69, 64
7, 137124, Note_on_c, 5, 67, 60
7, 137244, Note_off_c, 5, 67, 64
7, 137257, Note_on_c, 5, 79, 72
7, 137343, Note_off_c, 5, 79, 64
7, 137503, Note_on_c, 5, 81, 82
7, 137607, Note_off_c, 5, 81, 64
7, 137751, Note_on_c, 5, 77, 80
7, 137807, Note_on_c, 5, 76, 63
7, 137811, Note_off_c, 5, 77, 64
7, 137852, Note_on_c, 5, 77, 72
7, 137856, Note_off_c, 5, 76, 64
7, 137901, Note_on_c, 5, 76, 66
7, 137908, Note_off_c, 5, 77, 64
7, 137990, Note_off_c, 5, 76, 64
7, 137994, Note_on_c, 5, 74, 78
7, 138078, Note_off_c, 5, 74, 64
7, 138101, Note_on_c, 5, 72, 68
7, 138157, Note_off_c, 5, 72, 64
7, 138240, Note_on_c, 5, 72, 60
7, 138598, Note_off_c, 5, 72, 64
7, 138598, End_track
8, 0, Start_track
8, 0, Title_t, "Bassoon"
8, 0, Program_c, 6, 70
8, 0, Control_c, 6, 7, 100
8, 474, Note_on_c, 6, 60, 64
8, 569, Note_off_c, 6, 60, 64
8, 707, Note_on_c, 6, 57, 66
8, 789, Note_off_c, 6, 57, 64
8, 959, Note_on_c, 6, 52, 70
8, 1141, Note_off_c, 6, 52, 64
8, 1195, Note_on_c, 6, 50, 63
8, 1292, Note_off_c, 6, 50, 64
8, 1426, Note_on_c, 6, 52, 53
8, 1509, Note_off_c, 6, 52, 64
8, 1678, Note_on_c, 6, 57, 68
8, 1732, Note_off_c, 6, 57, 64
8, 1788, Note_on_c, 6, 55, 61
8, 1839, Note_off_c, 6, 55, 64
8, 1912, Note_on_c, 6, 53, 80
8, 2100, Note_off_c, 6, 53, 64
8, 2141, Note_on_c, 6, 50, 57
8, 2238, Note_off_c, 6, 50, 64
8, 2388, Note_on_c, 6, 55, 68
8, 2559, Note_off_c, 6, 55, 64
8, 2624, Note_on_c, 6, 53, 68
8, 2687, Note_off_c, 6, 53, 64
8, 2736, Note_on_c, 6, 52, 62
8, 2801, Note_off_c, 6, 52, 64
8, 2871, Note_on_c, 6, 50, 70
8, 2966, Note_off_c, 6, 50, 64
8, 3109, Note_on_c, 6, 48, 57
8, 3198, Note_off_c, 6, 48, 64
8, 3347, Note_on_c, 6, 47, 58
8, 3439, Note_off_c, 6, 47, 64
8, 3579, Note_on_c, 6, 43, 60
8, 3673, Note_off_c, 6, 43, 64
8, 3833, Note_on_c, 6, 48, 58
8, 3938, Note_off_c, 6, 48, 64
8, 4069, Note_on_c, 6, 55, 55
8, 4163, Note_off_c, 6, 55, 64
8, 4308, Note_on_c, 6, 60, 68
8, 4398, Note_off_c, 6, 60, 64
8, 4537, Note_on_c, 6, 57, 57
8, 4638, Note_off_c, 6, 57, 64
8, 4788, Note_on_c, 6, 59, 74
8, 4893, Note_off_c, 6, 59, 64
8, 5030, Note_on_c, 6, 57, 58
8, 5128, Note_off_c, 6, 57, 64
8, 5265, Note_on_c, 6, 56, 60
8, 5357, Note_off_c, 6, 56, 64
8, 5505, Note_on_c, 6, 52, 58
8, 5594, Note_off_c, 6, 52, 64
8, 5750, Note_on_c, 6, 57, 70
8, 5851, Note_off_c, 6, 57, 64
8, 5973, Note_on_c, 6, 55, 68
8, 6083, Note_off_c, 6, 55, 64
8, 6215, Note_on_c, 6, 54, 61
8, 6316, Note_off_c, 6, 54, 64
8, 6457, Note_on_c, 6, 50, 72
8, 6543, Note_off_c, 6, 50, 64
8, 6703, Note_on_c, 6, 48, 76
8, 6817, Note_on_c, 6, 47, 66
8, 6840, Note_off_c, 6, 48, 64
8, 6936, Note_on_c, 6, 45, 60
8, 6941, Note_off_c, 6, 47, 64
8, 7042, Note_off_c, 6, 45, 64
8, 7049, Note_on_c, 6, 43, 66
8, 7139, Note_off_c, 6, 43, 64
8, 7176, Note_on_c, 6, 50, 78
8, 7275, Note_off_c, 6, 50, 64
8, 7430, Note_on_c, 6, 38, 76
8, 7527, Note_off_c, 6, 38, 64
8, 7690, Note_on_c, 6, 43, 64
8, 7988, Note_off_c, 6, 43, 64
8, 8148, Note_on_c, 6, 60, 63
8, 8241, Note_off_c, 6, 60, 64
8, 8388, Note_on_c, 6, 57, 66
8, 8467, Note_off_c, 6, 57, 64
8, 8644, Note_on_c, 6, 52, 64
8, 8844, Note_off_c, 6, 52, 64
8, 8870, Note_on_c, 6, 50, 57
8, 8973, Note_off_c, 6, 50, 64
8, 9108, Note_on_c, 6, 52, 55
8, 9217, Note_off_c, 6, 52, 64
8, 9354, Note_on_c, 6, 57, 66
8, 9436, Note_off_c, 6, 57, 64
8, 9469, Note_on_c, 6, 55, 70
8, 9534, Note_off_c, 6, 55, 64
8, 9596, Note_on_c, 6, 53, 80
8, 9789, Note_off_c, 6, 53, 64
8, 9799, Note_on_c, 6, 50, 55
8, 9889, Note_off_c, 6, 50, 64
8, 10063, Note_on_c, 6, 55, 68
8, 10168, Note_off_c, 6, 55, 64
8, 10302, Note_on_c, 6, 53, 68
8, 10377, Note_off_c, 6, 53, 64
8, 10411, Note_on_c, 6, 52, 70
8, 10489, Note_off_c, 6, 52, 64
8, 10532, Note_on_c, 6, 50, 66
8, 10643, Note_off_c, 6, 50, 64
8, 10776, Note_on_c, 6, 48, 63
8, 10885, Note_off_c, 6, 48, 64
8, 11020, Note_on_c, 6, 47, 56
8, 11127, Note_off_c, 6, 47, 64
8, 11251, Note_on_c, 6, 43, 64
8, 11347, Note_off_c, 6, 43, 64
8, 11503, Note_on_c, 6, 48, 72
8, 11640, Note_off_c, 6, 48, 64
8, 11745, Note_on_c, 6, 55, 60
8, 11847, Note_off_c, 6, 55, 64
8, 11984, Note_on_c, 6, 60, 78
8, 12082, Note_off_c, 6, 60, 64
8, 12226, Note_on_c, 6, 57, 60
8, 12328, Note_off_c, 6, 57, 64
8, 12457, Note_on_c, 6, 59, 68
8, 12568, Note_off_c, 6, 59, 64
8, 12703, Note_on_c, 6, 57, 59
8, 12810, Note_off_c, 6, 57, 64
8, 12941, Note_on_c, 6, 56, 58
8, 13032, Note_off_c, 6, 56, 64
8, 13182, Note_on_c, 6, 52, 52
8, 13278, Note_off_c, 6, 52, 64
8, 13421, Note_on_c, 6, 57, 74
8, 13559, Note_off_c, 6, 57, 64
8, 13668, Note_on_c, 6, 55, 59
8, 13768, Note_off_c, 6, 55, 64
8, 13903, Note_on_c, 6, 54, 62
8, 14004, Note_off_c, 6, 54, 64
8, 14136, Note_on_c, 6, 50, 70
8, 14247, Note_off_c, 6, 50, 64
8, 14376, Note_on_c, 6, 48, 76
8, 14496, Note_on_c, 6, 47, 70
8, 14521, Note_off_c, 6, 48, 64
8, 14616, Note_on_c, 6, 45, 57
8, 14623, Note_off_c, 6, 47, 64
8, 14723, Note_off_c, 6, 45, 64
8, 14734, Note_on_c, 6, 43, 64
8, 14826, Note_off_c, 6, 43, 64
8, 14867, Note_on_c, 6, 50, 78
8, 14964, Note_off_c, 6, 50, 64
8, 15116, Note_on_c, 6, 38, 66
8, 15221, Note_off_c, 6, 38, 64
8, 15358, Note_on_c, 6, 43, 74
8, 15664, Note_off_c, 6, 43, 64
8, 31207, Note_on_c, 6, 55, 70
8, 31283, Note_off_c, 6, 55, 64
8, 31426, Note_on_c, 6, 48, 61
8, 31503, Note_off_c, 6, 48, 64
8, 31666, Note_on_c, 6, 43, 70
8, 31781, Note_off_c, 6, 43, 64
8, 31907, Note_on_c, 6, 55, 76
8, 31992, Note_off_c, 6, 55, 64
8, 32140, Note_on_c, 6, 53, 76
8, 32213, Note_off_c, 6, 53, 64
8, 32379, Note_on_c, 6, 52, 72
8, 32457, Note_off_c, 6, 52, 64
8, 32622, Note_on_c, 6, 57, 78
8, 32727, Note_off_c, 6, 57, 64
8, 32856, Note_on_c, 6, 55, 70
8, 32948, Note_off_c, 6, 55, 64
8, 33102, Note_on_c, 6, 53, 70
8, 33195, Note_off_c, 6, 53, 64
8, 33341, Note_on_c, 6, 52, 70
8, 33433, Note_off_c, 6, 52, 64
8, 33573, Note_on_c, 6, 50, 70
8, 33679, Note_off_c, 6, 50, 64
8, 33797, Note_on_c, 6, 58, 70
8, 33894, Note_off_c, 6, 58, 64
8, 34056, Note_on_c, 6, 57, 80
8, 34143, Note_off_c, 6, 57, 64
8, 34296, Note_on_c, 6, 45, 66
8, 34382, Note_off_c, 6, 45, 64
8, 34546, Note_on_c, 6, 50, 82
8, 34647, Note_off_c, 6, 50, 64
8, 34784, Note_on_c, 6, 48, 80
8, 34873, Note_off_c, 6, 48, 64
8, 35026, Note_on_c, 6, 47, 72
8, 35125, Note_off_c, 6, 47, 64
8, 35266, Note_on_c, 6, 43, 68
8, 35355, Note_off_c, 6, 43, 64
8, 35502, Note_on_c, 6, 48, 82
8, 35596, Note_off_c, 6, 48, 64
8, 35734, Note_on_c, 6, 47, 62
8, 35822, Note_off_c, 6, 47, 64
8, 35975, Note_on_c, 6, 45, 66
8, 36074, Note_off_c, 6, 45, 64
8, 36216, Note_on_c, 6, 57, 76
8, 36312, Note_off_c, 6, 57, 64
8, 36464, Note_on_c, 6, 59, 89
8, 36562, Note_off_c, 6, 59, 64
8, 36690, Note_on_c, 6, 57, 70
8, 36781, Note_off_c, 6, 57, 64
8, 36936, Note_on_c, 6, 56, 68
8, 37026, Note_off_c, 6, 56, 64
8, 37177, Note_on_c, 6, 52, 80
8, 37255, Note_off_c, 6, 52, 64
8, 37423, Note_on_c, 6, 57, 82
8, 37515, Note_off_c, 6, 57, 64
8, 37661, Note_on_c, 6, 53, 76
8, 37736, Note_off_c, 6, 53, 64
8, 37888, Note_on_c, 6, 50, 85
8, 37968, Note_off_c, 6, 50, 64
8, 38140, Note_on_c, 6, 52, 80
8, 38212, Note_off_c, 6, 52, 64
8, 38395, Note_on_c, 6, 45, 80
8, 38505, Note_off_c, 6, 45, 64
8, 38634, Note_on_c, 6, 52, 63
8, 38726, Note_off_c, 6, 52, 64
8, 38868, Note_on_c, 6, 57, 89
8, 38973, Note_off_c, 6, 57, 64
8, 39105, Note_on_c, 6, 55, 70
8, 39196, Note_off_c, 6, 55, 64
8, 39347, Note_on_c, 6, 53, 64
8, 39458, Note_off_c, 6, 53, 64
8, 39585, Note_on_c, 6, 52, 63
8, 39674, Note_off_c, 6, 52, 64
8, 39825, Note_on_c, 6, 53, 70
8, 39914, Note_off_c, 6, 53, 64
8, 40048, Note_on_c, 6, 50, 64
8, 40133, Note_off_c, 6, 50, 64
8, 40300, Note_on_c, 6, 55, 70
8, 40437, Note_off_c, 6, 55, 64
8, 40542, Note_on_c, 6, 57, 74
8, 40660, Note_on_c, 6, 53, 63
8, 40662, Note_off_c, 6, 57, 64
8, 40740, Note_off_c, 6, 53, 64
8, 40784, Note_on_c, 6, 57, 85
8, 40904, Note_on_c, 6, 55, 70
8, 40927, Note_off_c, 6, 57, 64
8, 41013, Note_on_c, 6, 53, 63
8, 41029, Note_off_c, 6, 55, 64
8, 41134, Note_off_c, 6, 53, 64
8, 41136, Note_on_c, 6, 52, 57
8, 41215, Note_off_c, 6, 52, 64
8, 41274, Note_on_c, 6, 57, 63
8, 41363, Note_off_c, 6, 57, 64
8, 41510, Note_on_c, 6, 55, 63
8, 41602, Note_off_c, 6, 55, 64
8, 41753, Note_on_c, 6, 57, 68
8, 41834, Note_off_c, 6, 57, 64
8, 41975, Note_on_c, 6, 53, 62
8, 42046, Note_off_c, 6, 53, 64
8, 42227, Note_on_c, 6, 59, 64
8, 42357, Note_off_c, 6, 59, 64
8, 42460, Note_on_c, 6, 60, 80
8, 42576, Note_off_c, 6, 60, 64
8, 42577, Note_on_c, 6, 57, 61
8, 42684, Note_off_c, 6, 57, 64
8, 42704, Note_on_c, 6, 60, 76
8, 42809, Note_on_c, 6, 59, 70
8, 42828, Note_off_c, 6, 60, 64
8, 42924, Note_on_c, 6, 57, 58
8, 42930, Note_off_c, 6, 59, 64
8, 43035, Note_off_c, 6, 57, 64
8, 43038, Note_on_c, 6, 55, 60
8, 43121, Note_off_c, 6, 55, 64
8, 43165, Note_on_c, 6, 60, 78
8, 43271, Note_off_c, 6, 60, 64
8, 43415, Note_on_c, 6, 55, 68
8, 43512, Note_off_c, 6, 55, 64
8, 43653, Note_on_c, 6, 52, 78
8, 43746, Note_off_c, 6, 52, 64
8, 43892, Note_on_c, 6, 48, 63
8, 43998, Note_off_c, 6, 48, 64
8, 44145, Note_on_c, 6, 53, 80
8, 44255, Note_off_c, 6, 53, 64
8, 44391, Note_on_c, 6, 52, 61
8, 44494, Note_off_c, 6, 52, 64
8, 44623, Note_on_c, 6, 50, 60
8, 44730, Note_off_c, 6, 50, 64
8, 44864, Note_on_c, 6, 53, 74
8, 44964, Note_off_c, 6, 53, 64
8, 45094, Note_on_c, 6, 52, 76
8, 45199, Note_off_c, 6, 52, 64
8, 45342, Note_on_c, 6, 53, 82
8, 45427, Note_off_c, 6, 53, 64
8, 45576, Note_on_c, 6, 55, 78
8, 45660, Note_off_c, 6, 55, 64
8, 45818, Note_on_c, 6, 43, 80
8, 45912, Note_off_c, 6, 43, 64
8, 46069, Note_on_c, 6, 36, 66
8, 46354, Note_off_c, 6, 36, 64
8, 61912, Note_on_c, 6, 55, 47
8, 62115, Note_off_c, 6, 55, 64
8, 62153, Note_on_c, 6, 55, 55
8, 62308, Note_off_c, 6, 55, 64
8, 62390, Note_on_c, 6, 53, 45
8, 62791, Note_off_c, 6, 53, 64
8, 62864, Note_on_c, 6, 57, 57
8, 63076, Note_off_c, 6, 57, 64
8, 63102, Note_on_c, 6, 57, 38
8, 63322, Note_off_c, 6, 57, 64
8, 63347, Note_on_c, 6, 50, 60
8, 63744, Note_off_c, 6, 50, 64
8, 63841, Note_on_c, 6, 62, 47
8, 64039, Note_off_c, 6, 62, 64
8, 64065, Note_on_c, 6, 62, 68
8, 64257, Note_off_c, 6, 62, 64
8, 64303, Note_on_c, 6, 61, 47
8, 64732, Note_off_c, 6, 61, 64
8, 64782, Note_on_c, 6, 57, 47
8, 64981, Note_off_c, 6, 57, 64
8, 65028, Note_on_c, 6, 57, 47
8, 65207, Note_off_c, 6, 57, 64
8, 65279, Note_on_c, 6, 62, 59
8, 65453, Note_off_c, 6, 62, 64
8, 65512, Note_on_c, 6, 60, 53
8, 65658, Note_off_c, 6, 60, 64
8, 65738, Note_on_c, 6, 59, 53
8, 65880, Note_off_c, 6, 59, 64
8, 66006, Note_on_c, 6, 57, 48
8, 66132, Note_off_c, 6, 57, 64
8, 66235, Note_on_c, 6, 55, 55
8, 66366, Note_off_c, 6, 55, 64
8, 66468, Note_on_c, 6, 53, 49
8, 66595, Note_off_c, 6, 53, 64
8, 66706, Note_on_c, 6, 52, 60
8, 66824, Note_off_c, 6, 52, 64
8, 66944, Note_on_c, 6, 50, 59
8, 67052, Note_off_c, 6, 50, 64
8, 67178, Note_on_c, 6, 48, 60
8, 67302, Note_off_c, 6, 48, 64
8, 67412, Note_on_c, 6, 45, 60
8, 67543, Note_off_c, 6, 45, 64
8, 67658, Note_on_c, 6, 43, 61
8, 67787, Note_off_c, 6, 43, 64
8, 67894, Note_on_c, 6, 41, 68
8, 68009, Note_off_c, 6, 41, 64
8, 68137, Note_on_c, 6, 40, 74
8, 68273, Note_off_c, 6, 40, 64
8, 68369, Note_on_c, 6, 38, 68
8, 68489, Note_off_c, 6, 38, 64
8, 68614, Note_on_c, 6, 40, 59
8, 68710, Note_off_c, 6, 40, 64
8, 68842, Note_on_c, 6, 41, 68
8, 68958, Note_off_c, 6, 41, 64
8, 69095, Note_on_c, 6, 43, 66
8, 69438, Note_off_c, 6, 43, 64
8, 69593, Note_on_c, 6, 60, 49
8, 69788, Note_off_c, 6, 60, 64
8, 69829, Note_on_c, 6, 60, 58
8, 69998, Note_off_c, 6, 60, 64
8, 70071, Note_on_c, 6, 60, 52
8, 70473, Note_off_c, 6, 60, 64
8, 70554, Note_on_c, 6, 55, 41
8, 70742, Note_off_c, 6, 55, 64
8, 70805, Note_on_c, 6, 55, 40
8, 70948, Note_off_c, 6, 55, 64
8, 71033, Note_on_c, 6, 57, 59
8, 71413, Note_off_c, 6, 57, 64
8, 71511, Note_on_c, 6, 57, 53
8, 71715, Note_off_c, 6, 57, 64
8, 71746, Note_on_c, 6, 57, 59
8, 71933, Note_off_c, 6, 57, 64
8, 71976, Note_on_c, 6, 59, 57
8, 72360, Note_off_c, 6, 59, 64
8, 72485, Note_on_c, 6, 60, 58
8, 72663, Note_off_c, 6, 60, 64
8, 72714, Note_on_c, 6, 60, 63
8, 72884, Note_off_c, 6, 60, 64
8, 72955, Note_on_c, 6, 55, 55
8, 73157, Note_off_c, 6, 55, 64
8, 73189, Note_on_c, 6, 53, 57
8, 73350, Note_off_c, 6, 53, 64
8, 73427, Note_on_c, 6, 52, 56
8, 73561, Note_off_c, 6, 52, 64
8, 73668, Note_on_c, 6, 55, 66
8, 73789, Note_off_c, 6, 55, 64
8, 73913, Note_on_c, 6, 48, 58
8, 74298, Note_off_c, 6, 48, 64
8, 74390, Note_on_c, 6, 60, 57
8, 74590, Note_off_c, 6, 60, 64
8, 74640, Note_on_c, 6, 60, 58
8, 74783, Note_off_c, 6, 60, 64
8, 74869, Note_on_c, 6, 60, 57
8, 75060, Note_off_c, 6, 60, 64
8, 75098, Note_on_c, 6, 59, 63
8, 75276, Note_off_c, 6, 59, 64
8, 75333, Note_on_c, 6, 57, 47
8, 75532, Note_off_c, 6, 57, 64
8, 75587, Note_on_c, 6, 55, 51
8, 75764, Note_off_c, 6, 55, 64
8, 75827, Note_on_c, 6, 53, 66
8, 75994, Note_off_c, 6, 53, 64
8, 76069, Note_on_c, 6, 52, 68
8, 76148, Note_off_c, 6, 52, 64
8, 76174, Note_on_c, 6, 53, 68
8, 76245, Note_off_c, 6, 53, 64
8, 76304, Note_on_c, 6, 55, 68
8, 76406, Note_off_c, 6, 55, 64
8, 76537, Note_on_c, 6, 43, 68
8, 76662, Note_off_c, 6, 43, 64
8, 76793, Note_on_c, 6, 48, 57
8, 77122, Note_off_c, 6, 48, 64
8, 92634, Note_on_c, 6, 60, 64
8, 92729, Note_off_c, 6, 60, 64
8, 92867, Note_on_c, 6, 57, 66
8, 92949, Note_off_c, 6, 57, 64
8, 93119, Note_on_c, 6, 52, 70
8, 93301, Note_off_c, 6, 52, 64
8, 93355, Note_on_c, 6, 50, 63
8, 93452, Note_off_c, 6, 50, 64
8, 93586, Note_on_c, 6, 52, 53
8, 93669, Note_off_c, 6, 52, 64
8, 93838, Note_on_c, 6, 57, 68
8, 93892, Note_off_c, 6, 57, 64
8, 93948, Note_on_c, 6, 55, 61
8, 93999, Note_off_c, 6, 55, 64
8, 94072, Note_on_c, 6, 53, 80
8, 94260, Note_off_c, 6, 53, 64
8, 94301, Note_on_c, 6, 50, 57
8, 94398, Note_off_c, 6, 50, 64
8, 94548, Note_on_c, 6, 55, 68
8, 94719, Note_off_c, 6, 55, 64
8, 94784, Note_on_c, 6, 53, 68
8, 94847, Note_off_c, 6, 53, 64
8, 94896, Note_on_c, 6, 52, 62
8, 94961, Note_off_c, 6, 52, 64
8, 95031, Note_on_c, 6, 50, 70
8, 95126, Note_off_c, 6, 50, 64
8, 95269, Note_on_c, 6, 48, 57
8, 95358, Note_off_c, 6, 48, 64
8, 95507, Note_on_c, 6, 47, 58
8, 95599, Note_off_c, 6, 47, 64
8, 95739, Note_on_c, 6, 43, 60
8, 95833, Note_off_c, 6, 43, 64
8, 95993, Note_on_c, 6, 48, 58
8, 96098, Note_off_c, 6, 48, 64
8, 96229, Note_on_c, 6, 55, 55
8, 96323, Note_off_c, 6, 55, 64
8, 96468, Note_on_c, 6, 60, 68
8, 96558, Note_off_c, 6, 60, 64
8, 96697, Note_on_c, 6, 57, 57
8, 96798, Note_off_c, 6, 57, 64
8, 96948, Note_on_c, 6, 59, 74
8, 97053, Note_off_c, 6, 59, 64
8, 97190, Note_on_c, 6, 57, 58
8, 97288, Note_off_c, 6, 57, 64
8, 97425, Note_on_c, 6, 56, 60
8, 97517, Note_off_c, 6, 56, 64
8, 97665, Note_on_c, 6, 52, 58
8, 97754, Note_off_c, 6, 52, 64
8, 97910, Note_on_c, 6, 57, 70
8, 98011, Note_off_c, 6, 57, 64
8, 98133, Note_on_c, 6, 55, 68
8, 98243, Note_off_c, 6, 55, 64
8, 98375, Note_on_c, 6, 54, 61
8, 98476, Note_off_c, 6, 54, 64
8, 98617, Note_on_c, 6, 50, 72
8, 98703, Note_off_c, 6, 50, 64
8, 98863, Note_on_c, 6, 48, 76
8, 98977, Note_on_c, 6, 47, 66
8, 99000, Note_off_c, 6, 48, 64
8, 99096, Note_on_c, 6, 45, 60
8, 99101, Note_off_c, 6, 47, 64
8, 99202, Note_off_c, 6, 45, 64
8, 99209, Note_on_c, 6, 43, 66
8, 99299, Note_off_c, 6, 43, 64
8, 99336, Note_on_c, 6, 50, 78
8, 99435, Note_off_c, 6, 50, 64
8, 99590, Note_on_c, 6, 38, 76
8, 99687, Note_off_c, 6, 38, 64
8, 99850, Note_on_c, 6, 43, 64
8, 100148, Note_off_c, 6, 43, 64
8, 100308, Note_on_c, 6, 60, 63
8, 100401, Note_off_c, 6, 60, 64
8, 100548, Note_on_c, 6, 57, 66
8, 100627, Note_off_c, 6, 57, 64
8, 100804, Note_on_c, 6, 52, 64
8, 101004, Note_off_c, 6, 52, 64
8, 101030, Note_on_c, 6, 50, 57
8, 101133, Note_off_c, 6, 50, 64
8, 101268, Note_on_c, 6, 52, 55
8, 101377, Note_off_c, 6, 52, 64
8, 101514, Note_on_c, 6, 57, 66
8, 101596, Note_off_c, 6, 57, 64
8, 101629, Note_on_c, 6, 55, 70
8, 101694, Note_off_c, 6, 55, 64
8, 101756, Note_on_c, 6, 53, 80
8, 101949, Note_off_c, 6, 53, 64
8, 101959, Note_on_c, 6, 50, 55
8, 102049, Note_off_c, 6, 50, 64
8, 102223, Note_on_c, 6, 55, 68
8, 102328, Note_off_c, 6, 55, 64
8, 102462, Note_on_c, 6, 53, 68
8, 102537, Note_off_c, 6, 53, 64
8, 102571, Note_on_c, 6, 52, 70
8, 102649, Note_off_c, 6, 52, 64
8, 102692, Note_on_c, 6, 50, 66
8, 102803, Note_off_c, 6, 50, 64
8, 102936, Note_on_c, 6, 48, 63
8, 103045, Note_off_c, 6, 48, 64
8, 103180, Note_on_c, 6, 47, 56
8, 103287, Note_off_c, 6, 47, 64
8, 103411, Note_on_c, 6, 43, 64
8, 103507, Note_off_c, 6, 43, 64
8, 103663, Note_on_c, 6, 48, 72
8, 103800, Note_off_c, 6, 48, 64
8, 103905, Note_on_c, 6, 55, 60
8, 104007, Note_off_c, 6, 55, 64
8, 104144, Note_on_c, 6, 60, 78
8, 104242, Note_off_c, 6, 60, 64
8, 104386, Note_on_c, 6, 57, 60
8, 104488, Note_off_c, 6, 57, 64
8, 104617, Note_on_c, 6, 59, 68
8, 104728, Note_off_c, 6, 59, 64
8, 104863, Note_on_c, 6, 57, 59
8, 104970, Note_off_c, 6, 57, 64
8, 105101, Note_on_c, 6, 56, 58
8, 105192, Note_off_c, 6, 56, 64
8, 105342, Note_on_c, 6, 52, 52
8, 105438, Note_off_c, 6, 52, 64
8, 105581, Note_on_c, 6, 57, 74
8, 105719, Note_off_c, 6, 57, 64
8, 105828, Note_on_c, 6, 55, 59
8, 105928, Note_off_c, 6, 55, 64
8, 106063, Note_on_c, 6, 54, 62
8, 106164, Note_off_c, 6, 54, 64
8, 106296, Note_on_c, 6, 50, 70
8, 106407, Note_off_c, 6, 50, 64
8, 106536, Note_on_c, 6, 48, 76
8, 106656, Note_on_c, 6, 47, 70
8, 106681, Note_off_c, 6, 48, 64
8, 106776, Note_on_c, 6, 45, 57
8, 106783, Note_off_c, 6, 47, 64
8, 106883, Note_off_c, 6, 45, 64
8, 106894, Note_on_c, 6, 43, 64
8, 106986, Note_off_c, 6, 43, 64
8, 107027, Note_on_c, 6, 50, 78
8, 107124, Note_off_c, 6, 50, 64
8, 107276, Note_on_c, 6, 38, 66
8, 107381, Note_off_c, 6, 38, 64
8, 107518, Note_on_c, 6, 43, 74
8, 107824, Note_off_c, 6, 43, 64
8, 123367, Note_on_c, 6, 55, 70
8, 123443, Note_off_c, 6, 55, 64
8, 123586, Note_on_c, 6, 48, 61
8, 123663, Note_off_c, 6, 48, 64
8, 123826, Note_on_c, 6, 43, 70
8, 123941, Note_off_c, 6, 43, 64
8, 124067, Note_on_c, 6, 55, 76
8, 124152, Note_off_c, 6, 55, 64
8, 124300, Note_on_c, 6, 53, 76
8, 124373, Note_off_c, 6, 53, 64
8, 124539, Note_on_c, 6, 52, 72
8, 124617, Note_off_c, 6, 52, 64
8, 124782, Note_on_c, 6, 57, 78
8, 124887, Note_off_c, 6, 57, 64
8, 125016, Note_on_c, 6, 55, 70
8, 125108, Note_off_c, 6, 55, 64
8, 125262, Note_on_c, 6, 53, 70
8, 125355, Note_off_c, 6, 53, 64
8, 125501, Note_on_c, 6, 52, 70
8, 125593, Note_off_c, 6, 52, 64
8, 125733, Note_on_c, 6, 50, 70
8, 125839, Note_off_c, 6, 50, 64
8, 125957, Note_on_c, 6, 58, 70
8, 126054, Note_off_c, 6, 58, 64
8, 126216, Note_on_c, 6, 57, 80
8, 126303, Note_off_c, 6, 57, 64
8, 126456, Note_on_c, 6, 45, 66
8, 126542, Note_off_c, 6, 45, 64
8, 126706, Note_on_c, 6, 50, 82
8, 126807, Note_off_c, 6, 50, 64
8, 126944, Note_on_c, 6, 48, 80
8, 127033, Note_off_c, 6, 48, 64
8, 127186, Note_on_c, 6, 47, 72
8, 127285, Note_off_c, 6, 47, 64
8, 127426, Note_on_c, 6, 43, 68
8, 127515, Note_off_c, 6, 43, 64
8, 127662, Note_on_c, 6, 48, 82
8, 127756, Note_off_c, 6, 48, 64
8, 127894, Note_on_c, 6, 47, 62
8, 127982, Note_off_c, 6, 47, 64
8, 128135, Note_on_c, 6, 45, 66
8, 128234, Note_off_c, 6, 45, 64
8, 128376, Note_on_c, 6, 57, 76
8, 128472, Note_off_c, 6, 57, 64
8, 128624, Note_on_c, 6, 59, 89
8, 128722, Note_off_c, 6, 59, 64
8, 128850, Note_on_c, 6, 57, 70
8, 128941, Note_off_c, 6, 57, 64
8, 129096, Note_on_c, 6, 56, 68
8, 129186, Note_off_c, 6, 56, 64
8, 129337, Note_on_c, 6, 52, 80
8, 129415, Note_off_c, 6, 52, 64
8, 129583, Note_on_c, 6, 57, 82
8, 129675, Note_off_c, 6, 57, 64
8, 129821, Note_on_c, 6, 53, 76
8, 129896, Note_off_c, 6, 53, 64
8, 130048, Note_on_c, 6, 50, 85
8, 130128, Note_off_c, 6, 50, 64
8, 130300, Note_on_c, 6, 52, 80
8, 130372, Note_off_c, 6, 52, 64
8, 130555, Note_on_c, 6, 45, 80
8, 130665, Note_off_c, 6, 45, 64
8, 130794, Note_on_c, 6, 52, 63
8, 130886, Note_off_c, 6, 52, 64
8, 131028, Note_on_c, 6, 57, 89
8, 131133, Note_off_c, 6, 57, 64
8, 131265, Note_on_c, 6, 55, 70
8, 131356, Note_off_c, 6, 55, 64
8, 131507, Note_on_c, 6, 53, 64
8, 131618, Note_off_c, 6, 53, 64
8, 131745, Note_on_c, 6, 52, 63
8, 131834, Note_off_c, 6, 52, 64
8, 131985, Note_on_c, 6, 53, 70
8, 132074, Note_off_c, 6, 53, 64
8, 132208, Note_on_c, 6, 50, 64
8, 132293, Note_off_c, 6, 50, 64
8, 132460, Note_on_c, 6, 55, 70
8, 132597, Note_off_c, 6, 55, 64
8, 132702, Note_on_c, 6, 57, 74
8, 132820, Note_on_c, 6, 53, 63
8, 132822, Note_off_c, 6, 57, 64
8, 132900, Note_off_c, 6, 53, 64
8, 132944, Note_on_c, 6, 57, 85
8, 133064, Note_on_c, 6, 55, 70
8, 133087, Note_off_c, 6, 57, 64
8, 133173, Note_on_c, 6, 53, 63
8, 133189, Note_off_c, 6, 55, 64
8, 133294, Note_off_c, 6, 53, 64
8, 133296, Note_on_c, 6, 52, 57
8, 133375, Note_off_c, 6, 52, 64
8, 133434, Note_on_c, 6, 57, 63
8, 133523, Note_off_c, 6, 57, 64
8, 133670, Note_on_c, 6, 55, 63
8, 133762, Note_off_c, 6, 55, 64
8, 133913, Note_on_c, 6, 57, 68
8, 133994, Note_off_c, 6, 57, 64
8, 134135, Note_on_c, 6, 53, 62
8, 134206, Note_off_c, 6, 53, 64
8, 134387, Note_on_c, 6, 59, 64
8, 134517, Note_off_c, 6, 59, 64
8, 134620, Note_on_c, 6, 60, 80
8, 134736, Note_off_c, 6, 60, 64
8, 134737, Note_on_c, 6, 57, 61
8, 134844, Note_off_c, 6, 57, 64
8, 134864, Note_on_c, 6, 60, 76
8, 134969, Note_on_c, 6, 59, 70
8, 134988, Note_off_c, 6, 60, 64
8, 135084, Note_on_c, 6, 57, 58
8, 135090, Note_off_c, 6, 59, 64
8, 135195, Note_off_c, 6, 57, 64
8, 135198, Note_on_c, 6, 55, 60
8, 135281, Note_off_c, 6, 55, 64
8, 135325, Note_on_c, 6, 60, 78
8, 135431, Note_off_c, 6, 60, 64
8, 135575, Note_on_c, 6, 55, 68
8, 135672, Note_off_c, 6, 55, 64
8, 135813, Note_on_c, 6, 52, 78
8, 135906, Note_off_c, 6, 52, 64
8, 136052, Note_on_c, 6, 48, 63
8, 136158, Note_off_c, 6, 48, 64
8, 136305, Note_on_c, 6, 53, 80
8, 136415, Note_off_c, 6, 53, 64
8, 136551, Note_on_c, 6, 52, 61
8, 136654, Note_off_c, 6, 52, 64
8, 136783, Note_on_c, 6, 50, 60
8, 136890, Note_off_c, 6, 50, 64
8, 137024, Note_on_c, 6, 53, 74
8, 137124, Note_off_c, 6, 53, 64
8, 137254, Note_on_c, 6, 52, 76
8, 137359, Note_off_c, 6, 52, 64
8, 137502, Note_on_c, 6, 53, 82
8, 137587, Note_off_c, 6, 53, 64
8, 137736, Note_on_c, 6, 55, 78
8, 137820, Note_off_c, 6, 55, 64
8, 137978, Note_on_c, 6, 43, 80
8, 138072, Note_off_c, 6, 43, 64
8, 138229, Note_on_c, 6, 36, 66
8, 138514, Note_off_c, 6, 36, 64
8, 138514, End_track
9, 0, Start_track
9, 0, Title_t, "Violin1"
9, 0, Program_c, 0, 40
9, 0, Control_c, 0, 7, 100
9, 15828, Note_on_c, 0, 71, 72
9, 15909, Note_off_c, 0, 71, 64
9, 16066, Note_on_c, 0, 72, 66
9, 16138, Note_off_c, 0, 72, 64
9, 16303, Note_on_c, 0, 74, 80
9, 16503, Note_off_c, 0, 74, 64
9, 16532, Note_on_c, 0, 76, 78
9, 16614, Note_off_c, 0, 76, 64
9, 16625, Note_on_c, 0, 72, 64
9, 16699, Note_off_c, 0, 72, 64
9, 16755, Note_on_c, 0, 74, 70
9, 16829, Note_off_c, 0, 74, 64
9, 17009, Note_on_c, 0, 82, 72
9, 17098, Note_off_c, 0, 82, 64
9, 17274, Note_on_c, 0, 74, 78
9, 17320, Note_on_c, 0, 73, 85
9, 17330, Note_off_c, 0, 74, 64
9, 17362, Note_off_c, 0, 73, 64
9, 17367, Note_on_c, 0, 74, 80
9, 17398, Note_on_c, 0, 73, 64
9, 17435, Note_off_c, 0, 74, 64
9, 17497, Note_on_c, 0, 71, 63
9, 17498, Note_off_c, 0, 73, 64
9, 17582, Note_off_c, 0, 71, 64
9, 17598, Note_on_c, 0, 69, 60
9, 17704, Note_off_c, 0, 69, 64
9, 17724, Note_on_c, 0, 71, 64
9, 17818, Note_off_c, 0, 71, 64
9, 17841, Note_on_c, 0, 73, 47
9, 17933, Note_off_c, 0, 73, 64
9, 17959, Note_on_c, 0, 74, 60
9, 18054, Note_off_c, 0, 74, 64
9, 18075, Note_on_c, 0, 76, 64
9, 18161, Note_off_c, 0, 76, 64
9, 18200, Note_on_c, 0, 77, 74
9, 18413, Note_off_c, 0, 77, 64
9, 18459, Note_on_c, 0, 76, 64
9, 18547, Note_off_c, 0, 76, 64
9, 18561, Note_on_c, 0, 74, 59
9, 18645, Note_off_c, 0, 74, 64
9, 18692, Note_on_c, 0, 76, 80
9, 18763, Note_off_c, 0, 76, 64
9, 18807, Note_on_c, 0, 73, 52
9, 18898, Note_off_c, 0, 73, 64
9, 18934, Note_on_c, 0, 81, 89
9, 19025, Note_off_c, 0, 81, 64
9, 19179, Note_on_c, 0, 79, 80
9, 19218, Note_on_c, 0, 77, 82
9, 19226, Note_off_c, 0, 79, 64
9, 19265, Note_on_c, 0, 79, 76
9, 19271, Note_off_c, 0, 77, 64
9, 19307, Note_on_c, 0, 77, 74
9, 19326, Note_off_c, 0, 79, 64
9, 19396, Note_off_c, 0, 77, 64
9, 19399, Note_on_c, 0, 76, 66
9, 19496, Note_off_c, 0, 76, 64
9, 19503, Note_on_c, 0, 74, 48
9, 19584, Note_off_c, 0, 74, 64
9, 19644, Note_on_c, 0, 79, 82
9, 19756, Note_on_c, 0, 77, 68
9, 19765, Note_off_c, 0, 79, 64
9, 19874, Note_on_c, 0, 76, 52
9, 19886, Note_off_c, 0, 77, 64
9, 19975, Note_off_c, 0, 76, 64
9, 19991, Note_on_c, 0, 74, 51
9, 20066, Note_off_c, 0, 74, 64
9, 20122, Note_on_c, 0, 76, 80
9, 20329, Note_off_c, 0, 76, 64
9, 20371, Note_on_c, 0, 77, 68
9, 20455, Note_off_c, 0, 77, 64
9, 20479, Note_on_c, 0, 74, 52
9, 20566, Note_off_c, 0, 74, 64
9, 20610, Note_on_c, 0, 76, 68
9, 20698, Note_off_c, 0, 76, 64
9, 20721, Note_on_c, 0, 72, 59
9, 20787, Note_off_c, 0, 72, 64
9, 20848, Note_on_c, 0, 77, 82
9, 20941, Note_off_c, 0, 77, 64
9, 21097, Note_on_c, 0, 76, 72
9, 21143, Note_on_c, 0, 74, 91
9, 21156, Note_off_c, 0, 76, 64
9, 21185, Note_on_c, 0, 76, 64
9, 21192, Note_off_c, 0, 74, 64
9, 21228, Note_on_c, 0, 74, 76
9, 21260, Note_off_c, 0, 76, 64
9, 21343, Note_off_c, 0, 74, 64
9, 21350, Note_on_c, 0, 72, 52
9, 21451, Note_off_c, 0, 72, 64
9, 21463, Note_on_c, 0, 71, 53
9, 21536, Note_off_c, 0, 71, 64
9, 21581, Note_on_c, 0, 76, 82
9, 21688, Note_on_c, 0, 74, 60
9, 21702, Note_off_c, 0, 76, 64
9, 21805, Note_off_c, 0, 74, 64
9, 21805, Note_on_c, 0, 72, 52
9, 21908, Note_off_c, 0, 72, 64
9, 21921, Note_on_c, 0, 71, 48
9, 21985, Note_off_c, 0, 71, 64
9, 22034, Note_on_c, 0, 74, 82
9, 22144, Note_on_c, 0, 72, 58
9, 22171, Note_off_c, 0, 74, 64
9, 22292, Note_on_c, 0, 71, 52
9, 22294, Note_off_c, 0, 72, 64
9, 22396, Note_off_c, 0, 71, 64
9, 22407, Note_on_c, 0, 69, 52
9, 22502, Note_off_c, 0, 69, 64
9, 22530, Note_on_c, 0, 71, 76
9, 22614, Note_off_c, 0, 71, 64
9, 22773, Note_on_c, 0, 68, 68
9, 22845, Note_off_c, 0, 68, 64
9, 23032, Note_on_c, 0, 69, 68
9, 23336, Note_off_c, 0, 69, 64
9, 23495, Note_on_c, 0, 72, 70
9, 23571, Note_off_c, 0, 72, 64
9, 23736, Note_on_c, 0, 76, 82
9, 23824, Note_off_c, 0, 76, 64
9, 23984, Note_on_c, 0, 69, 66
9, 24197, Note_off_c, 0, 69, 64
9, 24238, Note_on_c, 0, 71, 68
9, 24325, Note_off_c, 0, 71, 64
9, 24346, Note_on_c, 0, 72, 72
9, 24422, Note_off_c, 0, 72, 64
9, 24459, Note_on_c, 0, 74, 68
9, 24550, Note_off_c, 0, 74, 64
9, 24573, Note_on_c, 0, 76, 78
9, 24664, Note_off_c, 0, 76, 64
9, 24697, Note_on_c, 0, 77, 82
9, 25080, Note_off_c, 0, 77, 64
9, 25200, Note_on_c, 0, 71, 64
9, 25287, Note_off_c, 0, 71, 64
9, 25430, Note_on_c, 0, 76, 66
9, 25512, Note_off_c, 0, 76, 64
9, 25657, Note_on_c, 0, 79, 87
9, 25742, Note_off_c, 0, 79, 64
9, 25895, Note_on_c, 0, 72, 72
9, 26118, Note_off_c, 0, 72, 64
9, 26143, Note_on_c, 0, 74, 70
9, 26229, Note_off_c, 0, 74, 64
9, 26246, Note_on_c, 0, 76, 64
9, 26330, Note_off_c, 0, 76, 64
9, 26360, Note_on_c, 0, 77, 80
9, 26468, Note_on_c, 0, 79, 74
9, 26481, Note_off_c, 0, 77, 64
9, 26553, Note_off_c, 0, 79, 64
9, 26598, Note_on_c, 0, 81, 80
9, 27037, Note_off_c, 0, 81, 64
9, 27102, Note_on_c, 0, 79, 70
9, 27185, Note_off_c, 0, 79, 64
9, 27208, Note_on_c, 0, 77, 68
9, 27292, Note_off_c, 0, 77, 64
9, 27325, Note_on_c, 0, 76, 70
9, 27404, Note_off_c, 0, 76, 64
9, 27434, Note_on_c, 0, 74, 68
9, 27516, Note_off_c, 0, 74, 64
9, 27576, Note_on_c, 0, 79, 85
9, 27676, Note_off_c, 0, 79, 64
9, 27807, Note_on_c, 0, 70, 72
9, 28006, Note_off_c, 0, 70, 64
9, 28049, Note_on_c, 0, 72, 66
9, 28114, Note_off_c, 0, 72, 64
9, 28159, Note_on_c, 0, 69, 63
9, 28247, Note_off_c, 0, 69, 64
9, 28287, Note_on_c, 0, 70, 58
9, 28385, Note_off_c, 0, 70, 64
9, 28539, Note_on_c, 0, 79, 82
9, 28638, Note_off_c, 0, 79, 64
9, 28779, Note_on_c, 0, 70, 78
9, 28882, Note_on_c, 0, 69, 64
9, 28908, Note_off_c, 0, 70, 64
9, 29007, Note_off_c, 0, 69, 64
9, 29009, Note_on_c, 0, 67, 48
9, 29125, Note_off_c, 0, 67, 64
9, 29131, Note_on_c, 0, 65, 53
9, 29206, Note_off_c, 0, 65, 64
9, 29257, Note_on_c, 0, 72, 89
9, 29376, Note_on_c, 0, 71, 68
9, 29391, Note_off_c, 0, 72, 64
9, 29475, Note_off_c, 0, 71, 64
9, 29484, Note_on_c, 0, 69, 55
9, 29573, Note_off_c, 0, 69, 64
9, 29593, Note_on_c, 0, 67, 56
9, 29702, Note_off_c, 0, 67, 64
9, 29725, Note_on_c, 0, 79, 85
9, 29832, Note_off_c, 0, 79, 64
9, 29973, Note_on_c, 0, 81, 82
9, 30070, Note_off_c, 0, 81, 64
9, 30216, Note_on_c, 0, 77, 87
9, 30263, Note_on_c, 0, 76, 53
9, 30267, Note_off_c, 0, 77, 64
9, 30301, Note_on_c, 0, 77, 70
9, 30316, Note_off_c, 0, 76, 64
9, 30339, Note_on_c, 0, 76, 60
9, 30356, Note_off_c, 0, 77, 64
9, 30445, Note_off_c, 0, 76, 64
9, 30451, Note_on_c, 0, 74, 72
9, 30545, Note_off_c, 0, 74, 64
9, 30559, Note_on_c, 0, 72, 56
9, 30614, Note_off_c, 0, 72, 64
9, 30703, Note_on_c, 0, 72, 63
9, 30993, Note_off_c, 0, 72, 64
9, 47261, Note_on_c, 0, 60, 53
9, 47449, Note_off_c, 0, 60, 64
9, 47494, Note_on_c, 0, 64, 58
9, 47683, Note_off_c, 0, 64, 64
9, 47743, Note_on_c, 0, 67, 68
9, 47907, Note_off_c, 0, 67, 64
9, 47985, Note_on_c, 0, 72, 60
9, 48159, Note_off_c, 0, 72, 64
9, 48220, Note_on_c, 0, 67, 57
9, 48411, Note_off_c, 0, 67, 64
9, 48462, Note_on_c, 0, 64, 50
9, 48626, Note_off_c, 0, 64, 64
9, 48704, Note_on_c, 0, 60, 59
9, 48878, Note_off_c, 0, 60, 64
9, 48938, Note_on_c, 0, 67, 52
9, 49133, Note_off_c, 0, 67, 64
9, 49175, Note_on_c, 0, 67, 60
9, 49235, Note_off_c, 0, 67, 64
9, 49281, Note_on_c, 0, 67, 62
9, 49337, Note_off_c, 0, 67, 64
9, 49390, Note_on_c, 0, 67, 59
9, 49589, Note_off_c, 0, 67, 64
9, 49670, Note_on_c, 0, 67, 57
9, 49823, Note_off_c, 0, 67, 64
9, 49908, Note_on_c, 0, 67, 55
9, 51350, Note_off_c, 0, 67, 64
9, 54936, Note_on_c, 0, 60, 57
9, 55149, Note_off_c, 0, 60, 64
9, 55182, Note_on_c, 0, 64, 64
9, 55378, Note_off_c, 0, 64, 64
9, 55421, Note_on_c, 0, 67, 70
9, 55623, Note_off_c, 0, 67, 64
9, 55665, Note_on_c, 0, 72, 60
9, 55879, Note_off_c, 0, 72, 64
9, 55907, Note_on_c, 0, 67, 66
9, 56112, Note_off_c, 0, 67, 64
9, 56147, Note_on_c, 0, 64, 52
9, 56349, Note_off_c, 0, 64, 64
9, 56382, Note_on_c, 0, 60, 50
9, 56572, Note_off_c, 0, 60, 64
9, 56605, Note_on_c, 0, 67, 58
9, 56811, Note_off_c, 0, 67, 64
9, 56856, Note_on_c, 0, 67, 58
9, 56909, Note_off_c, 0, 67, 64
9, 56956, Note_on_c, 0, 67, 59
9, 57015, Note_off_c, 0, 67, 64
9, 57082, Note_on_c, 0, 67, 45
9, 57269, Note_off_c, 0, 67, 64
9, 57324, Note_on_c, 0, 67, 50
9, 57486, Note_off_c, 0, 67, 64
9, 57573, Note_on_c, 0, 67, 53
9, 59024, Note_off_c, 0, 67, 64
9, 77978, Note_on_c, 0, 62, 43
9, 78141, Note_off_c, 0, 62, 64
9, 78210, Note_on_c, 0, 65, 54
9, 78357, Note_off_c, 0, 65, 64
9, 78447, Note_on_c, 0, 69, 60
9, 78593, Note_off_c, 0, 69, 64
9, 78711, Note_on_c, 0, 74, 59
9, 78872, Note_off_c, 0, 74, 64
9, 78950, Note_on_c, 0, 69, 49
9, 79080, Note_off_c, 0, 69, 64
9, 79174, Note_on_c, 0, 65, 46
9, 79304, Note_off_c, 0, 65, 64
9, 79418, Note_on_c, 0, 62, 58
9, 79575, Note_off_c, 0, 62, 64
9, 79656, Note_on_c, 0, 69, 54
9, 79840, Note_off_c, 0, 69, 64
9, 79892, Note_on_c, 0, 69, 57
9, 79939, Note_off_c, 0, 69, 64
9, 79998, Note_on_c, 0, 69, 57
9, 80072, Note_off_c, 0, 69, 64
9, 80134, Note_on_c, 0, 69, 44
9, 80305, Note_off_c, 0, 69, 64
9, 80377, Note_on_c, 0, 69, 48
9, 80528, Note_off_c, 0, 69, 64
9, 80616, Note_on_c, 0, 69, 55
9, 81644, Note_off_c, 0, 69, 64
9, 82790, Note_on_c, 0, 60, 57
9, 82933, Note_off_c, 0, 60, 64
9, 83018, Note_on_c, 0, 64, 58
9, 83148, Note_off_c, 0, 64, 64
9, 83251, Note_on_c, 0, 67, 57
9, 83368, Note_off_c, 0, 67, 64
9, 83492, Note_on_c, 0, 72, 60
9, 83625, Note_off_c, 0, 72, 64
9, 83736, Note_on_c, 0, 67, 48
9, 83868, Note_off_c, 0, 67, 64
9, 83985, Note_on_c, 0, 64, 58
9, 84098, Note_off_c, 0, 64, 64
9, 84213, Note_on_c, 0, 60, 57
9, 84344, Note_off_c, 0, 60, 64
9, 84443, Note_on_c, 0, 67, 52
9, 84638, Note_off_c, 0, 67, 64
9, 84688, Note_on_c, 0, 67, 43
9, 84759, Note_off_c, 0, 67, 64
9, 84809, Note_on_c, 0, 67, 58
9, 84874, Note_off_c, 0, 67, 64
9, 84930, Note_on_c, 0, 67, 56
9, 85099, Note_off_c, 0, 67, 64
9, 85184, Note_on_c, 0, 67, 55
9, 85333, Note_off_c, 0, 67, 64
9, 85433, Note_on_c, 0, 67, 59
9, 85967, Note_on_c, 0, 64, 57
9, 85981, Note_off_c, 0, 67, 64
9, 86024, Note_on_c, 0, 67, 64
9, 86043, Note_off_c, 0, 64, 64
9, 86072, Note_off_c, 0, 67, 64
9, 86120, Note_on_c, 0, 67, 59
9, 86196, Note_on_c, 0, 64, 59
9, 86206, Note_off_c, 0, 67, 64
9, 86267, Note_on_c, 0, 67, 60
9, 86271, Note_off_c, 0, 64, 64
9, 86339, Note_off_c, 0, 67, 64
9, 86386, Note_on_c, 0, 72, 59
9, 86506, Note_off_c, 0, 72, 64
9, 86616, Note_on_c, 0, 67, 57
9, 86728, Note_off_c, 0, 67, 64
9, 86857, Note_on_c, 0, 64, 57
9, 86974, Note_off_c, 0, 64, 64
9, 87097, Note_on_c, 0, 60, 57
9, 87236, Note_off_c, 0, 60, 64
9, 87335, Note_on_c, 0, 67, 57
9, 87524, Note_off_c, 0, 67, 64
9, 87574, Note_on_c, 0, 67, 60
9, 87635, Note_off_c, 0, 67, 64
9, 87682, Note_on_c, 0, 67, 57
9, 87762, Note_off_c, 0, 67, 64
9, 87813, Note_on_c, 0, 67, 55
9, 87972, Note_off_c, 0, 67, 64
9, 88061, Note_on_c, 0, 67, 55
9, 88198, Note_off_c, 0, 67, 64
9, 88307, Note_on_c, 0, 67, 55
9, 89740, Note_off_c, 0, 67, 64
9, 107988, Note_on_c, 0, 71, 72
9, 108069, Note_off_c, 0, 71, 64
9, 108226, Note_on_c, 0, 72, 66
9, 108298, Note_off_c, 0, 72, 64
9, 108463, Note_on_c, 0, 74, 80
9, 108663, Note_off_c, 0, 74, 64
9, 108692, Note_on_c, 0, 76, 78
9, 108774, Note_off_c, 0, 76, 64
9, 108785, Note_on_c, 0, 72, 64
9, 108859, Note_off_c, 0, 72, 64
9, 108915, Note_on_c, 0, 74, 70
9, 108989, Note_off_c, 0, 74, 64
9, 109169, Note_on_c, 0, 82, 72
9, 109258, Note_off_c, 0, 82, 64
9, 109434, Note_on_c, 0, 74, 78
9, 109480, Note_on_c, 0, 73, 85
9, 109490, Note_off_c, 0, 74, 64
9, 109522, Note_off_c, 0, 73, 64
9, 109527, Note_on_c, 0, 74, 80
9, 109558, Note_on_c, 0, 73, 64
9, 109595, Note_off_c, 0, 74, 64
9, 109657, Note_on_c, 0, 71, 63
9, 109658, Note_off_c, 0, 73, 64
9, 109742, Note_off_c, 0, 71, 64
9, 109758, Note_on_c, 0, 69, 60
9, 109864, Note_off_c, 0, 69, 64
9, 109884, Note_on_c, 0, 71, 64
9, 109978, Note_off_c, 0, 71, 64
9, 110001, Note_on_c, 0, 73, 47
9, 110093, Note_off_c, 0, 73, 64
9, 110119, Note_on_c, 0, 74, 60
9, 110214, Note_off_c, 0, 74, 64
9, 110235, Note_on_c, 0, 76, 64
9, 110321, Note_off_c, 0, 76, 64
9, 110360, Note_on_c, 0, 77, 74
9, 110573, Note_off_c, 0, 77, 64
9, 110619, Note_on_c, 0, 76, 64
9, 110707, Note_off_c, 0, 76, 64
9, 110721, Note_on_c, 0, 74, 59
9, 110805, Note_off_c, 0, 74, 64
9, 110852, Note_on_c, 0, 76, 80
9, 110923, Note_off_c, 0, 76, 64
9, 110967, Note_on_c, 0, 73, 52
9, 111058, Note_off_c, 0, 73, 64
9, 111094, Note_on_c, 0, 81, 89
9, 111185, Note_off_c, 0, 81, 64
9, 111339, Note_on_c, 0, 79, 80
9, 111378, Note_on_c, 0, 77, 82
9, 111386, Note_off_c, 0, 79, 64
9, 111425, Note_on_c, 0, 79, 76
9, 111431, Note_off_c, 0, 77, 64
9, 111467, Note_on_c, 0, 77, 74
9, 111486, Note_off_c, 0, 79, 64
9, 111556, Note_off_c, 0, 77, 64
9, 111559, Note_on_c, 0, 76, 66
9, 111656, Note_off_c, 0, 76, 64
9, 111663, Note_on_c, 0, 74, 48
9, 111744, Note_off_c, 0, 74, 64
9, 111804, Note_on_c, 0, 79, 82
9, 111916, Note_on_c, 0, 77, 68
9, 111925, Note_off_c, 0, 79, 64
9, 112034, Note_on_c, 0, 76, 52
9, 112046, Note_off_c, 0, 77, 64
9, 112135, Note_off_c, 0, 76, 64
9, 112151, Note_on_c, 0, 74, 51
9, 112226, Note_off_c, 0, 74, 64
9, 112282, Note_on_c, 0, 76, 80
9, 112489, Note_off_c, 0, 76, 64
9, 112531, Note_on_c, 0, 77, 68
9, 112615, Note_off_c, 0, 77, 64
9, 112639, Note_on_c, 0, 74, 52
9, 112726, Note_off_c, 0, 74, 64
9, 112770, Note_on_c, 0, 76, 68
9, 112858, Note_off_c, 0, 76, 64
9, 112881, Note_on_c, 0, 72, 59
9, 112947, Note_off_c, 0, 72, 64
9, 113008, Note_on_c, 0, 77, 82
9, 113101, Note_off_c, 0, 77, 64
9, 113257, Note_on_c, 0, 76, 72
9, 113303, Note_on_c, 0, 74, 91
9, 113316, Note_off_c, 0, 76, 64
9, 113345, Note_on_c, 0, 76, 64
9, 113352, Note_off_c, 0, 74, 64
9, 113388, Note_on_c, 0, 74, 76
9, 113420, Note_off_c, 0, 76, 64
9, 113503, Note_off_c, 0, 74, 64
9, 113510, Note_on_c, 0, 72, 52
9, 113611, Note_off_c, 0, 72, 64
9, 113623, Note_on_c, 0, 71, 53
9, 113696, Note_off_c, 0, 71, 64
9, 113741, Note_on_c, 0, 76, 82
9, 113848, Note_on_c, 0, 74, 60
9, 113862, Note_off_c, 0, 76, 64
9, 113965, Note_off_c, 0, 74, 64
9, 113965, Note_on_c, 0, 72, 52
9, 114068, Note_off_c, 0, 72, 64
9, 114081, Note_on_c, 0, 71, 48
9, 114145, Note_off_c, 0, 71, 64
9, 114194, Note_on_c, 0, 74, 82
9, 114304, Note_on_c, 0, 72, 58
9, 114331, Note_off_c, 0, 74, 64
9, 114452, Note_on_c, 0, 71, 52
9, 114454, Note_off_c, 0, 72, 64
9, 114556, Note_off_c, 0, 71, 64
9, 114567, Note_on_c, 0, 69, 52
9, 114662, Note_off_c, 0, 69, 64
9, 114690, Note_on_c, 0, 71, 76
9, 114774, Note_off_c, 0, 71, 64
9, 114933, Note_on_c, 0, 68, 68
9, 115005, Note_off_c, 0, 68, 64
9, 115192, Note_on_c, 0, 69, 68
9, 115496, Note_off_c, 0, 69, 64
9, 115655, Note_on_c, 0, 72, 70
9, 115731, Note_off_c, 0, 72, 64
9, 115896, Note_on_c, 0, 76, 82
9, 115984, Note_off_c, 0, 76, 64
9, 116144, Note_on_c, 0, 69, 66
9, 116357, Note_off_c, 0, 69, 64
9, 116398, Note_on_c, 0, 71, 68
9, 116485, Note_off_c, 0, 71, 64
9, 116506, Note_on_c, 0, 72, 72
9, 116582, Note_off_c, 0, 72, 64
9, 116619, Note_on_c, 0, 74, 68
9, 116710, Note_off_c, 0, 74, 64
9, 116733, Note_on_c, 0, 76, 78
9, 116824, Note_off_c, 0, 76, 64
9, 116857, Note_on_c, 0, 77, 82
9, 117240, Note_off_c, 0, 77, 64
9, 117360, Note_on_c, 0, 71, 64
9, 117447, Note_off_c, 0, 71, 64
9, 117590, Note_on_c, 0, 76, 66
9, 117672, Note_off_c, 0, 76, 64
9, 117817, Note_on_c, 0, 79, 87
9, 117902, Note_off_c, 0, 79, 64
9, 118055, Note_on_c, 0, 72, 72
9, 118278, Note_off_c, 0, 72, 64
9, 118303, Note_on_c, 0, 74, 70
9, 118389, Note_off_c, 0, 74, 64
9, 118406, Note_on_c, 0, 76, 64
9, 118490, Note_off_c, 0, 76, 64
9, 118520, Note_on_c, 0, 77, 80
9, 118628, Note_on_c, 0, 79, 74
9, 118641, Note_off_c, 0, 77, 64
9, 118713, Note_off_c, 0, 79, 64
9, 118758, Note_on_c, 0, 81, 80
9, 119197, Note_off_c, 0, 81, 64
9, 119262, Note_on_c, 0, 79, 70
9, 119345, Note_off_c, 0, 79, 64
9, 119368, Note_on_c, 0, 77, 68
9, 119452, Note_off_c, 0, 77, 64
9, 119485, Note_on_c, 0, 76, 70
9, 119564, Note_off_c, 0, 76, 64
9, 119594, Note_on_c, 0, 74, 68
9, 119676, Note_off_c, 0, 74, 64
9, 119736, Note_on_c, 0, 79, 85
9, 119836, Note_off_c, 0, 79, 64
9, 119967, Note_on_c, 0, 70, 72
9, 120166, Note_off_c, 0, 70, 64
9, 120209, Note_on_c, 0, 72, 66
9, 120274, Note_off_c, 0, 72, 64
9, 120319, Note_on_c, 0, 69, 63
9, 120407, Note_off_c, 0, 69, 64
9, 120447, Note_on_c, 0, 70, 58
9, 120545, Note_off_c, 0, 70, 64
9, 120699, Note_on_c, 0, 79, 82
9, 120798, Note_off_c, 0, 79, 64
9, 120939, Note_on_c, 0, 70, 78
9, 121042, Note_on_c, 0, 69, 64
9, 121068, Note_off_c, 0, 70, 64
9, 121167, Note_off_c, 0, 69, 64
9, 121169, Note_on_c, 0, 67, 48
9, 121285, Note_off_c, 0, 67, 64
9, 121291, Note_on_c, 0, 65, 53
9, 121366, Note_off_c, 0, 65, 64
9, 121417, Note_on_c, 0, 72, 89
9, 121536, Note_on_c, 0, 71, 68
9, 121551, Note_off_c, 0, 72, 64
9, 121635, Note_off_c, 0, 71, 64
9, 121644, Note_on_c, 0, 69, 55
9, 121733, Note_off_c, 0, 69, 64
9, 121753, Note_on_c, 0, 67, 56
9, 121862, Note_off_c, 0, 67, 64
9, 121885, Note_on_c, 0, 79, 85
9, 121992, Note_off_c, 0, 79, 64
9, 122133, Note_on_c, 0, 81, 82
9, 122230, Note_off_c, 0, 81, 64
9, 122376, Note_on_c, 0, 77, 87
9, 122423, Note_on_c, 0, 76, 53
9, 122427, Note_off_c, 0, 77, 64
9, 122461, Note_on_c, 0, 77, 70
9, 122476, Note_off_c, 0, 76, 64
9, 122499, Note_on_c, 0, 76, 60
9, 122516, Note_off_c, 0, 77, 64
9, 122605, Note_off_c, 0, 76, 64
9, 122611, Note_on_c, 0, 74, 72
9, 122705, Note_off_c, 0, 74, 64
9, 122719, Note_on_c, 0, 72, 56
9, 122774, Note_off_c, 0, 72, 64
9, 122863, Note_on_c, 0, 72, 63
9, 123153, Note_off_c, 0, 72, 64
9, 123153, End_track
10, 0, Start_track
10, 0, Title_t, "Violin2"
10, 0, Program_c, 1, 40
10, 0, Control_c, 1, 7, 100
10, 15845, Note_on_c, 1, 67, 72
10, 15922, Note_off_c, 1, 67, 64
10, 16076, Note_on_c, 1, 67, 72
10, 16161, Note_off_c, 1, 67, 64
10, 16306, Note_on_c, 1, 71, 66
10, 16521, Note_off_c, 1, 71, 64
10, 16548, Note_on_c, 1, 72, 68
10, 16623, Note_off_c, 1, 72, 64
10, 16650, Note_on_c, 1, 69, 53
10, 16712, Note_off_c, 1, 69, 64
10, 16783, Note_on_c, 1, 71, 72
10, 16875, Note_off_c, 1, 71, 64
10, 17013, Note_on_c, 1, 67, 56
10, 17114, Note_off_c, 1, 67, 64
10, 17251, Note_on_c, 1, 69, 59
10, 17635, Note_off_c, 1, 69, 64
10, 17750, Note_on_c, 1, 62, 64
10, 17835, Note_off_c, 1, 62, 64
10, 17972, Note_on_c, 1, 69, 62
10, 18061, Note_off_c, 1, 69, 64
10, 18213, Note_on_c, 1, 69, 68
10, 18396, Note_off_c, 1, 69, 64
10, 18444, Note_on_c, 1, 67, 60
10, 18534, Note_off_c, 1, 67, 64
10, 18704, Note_on_c, 1, 73, 66
10, 18796, Note_off_c, 1, 73, 64
10, 18951, Note_on_c, 1, 73, 63
10, 19046, Note_off_c, 1, 73, 64
10, 19198, Note_on_c, 1, 74, 72
10, 19542, Note_off_c, 1, 74, 64
10, 19666, Note_on_c, 1, 74, 66
10, 19756, Note_off_c, 1, 74, 64
10, 19895, Note_on_c, 1, 71, 51
10, 19980, Note_off_c, 1, 71, 64
10, 20139, Note_on_c, 1, 72, 64
10, 20470, Note_off_c, 1, 72, 64
10, 20625, Note_on_c, 1, 72, 68
10, 20702, Note_off_c, 1, 72, 64
10, 20864, Note_on_c, 1, 69, 57
10, 20945, Note_off_c, 1, 69, 64
10, 21111, Note_on_c, 1, 68, 62
10, 21440, Note_off_c, 1, 68, 64
10, 21587, Note_on_c, 1, 64, 55
10, 21674, Note_off_c, 1, 64, 64
10, 21823, Note_on_c, 1, 68, 57
10, 21916, Note_off_c, 1, 68, 64
10, 22062, Note_on_c, 1, 69, 66
10, 22164, Note_off_c, 1, 69, 64
10, 22296, Note_on_c, 1, 60, 63
10, 22387, Note_off_c, 1, 60, 64
10, 22538, Note_on_c, 1, 65, 66
10, 22631, Note_off_c, 1, 65, 64
10, 22786, Note_on_c, 1, 64, 68
10, 22860, Note_off_c, 1, 64, 64
10, 23037, Note_on_c, 1, 64, 63
10, 23362, Note_off_c, 1, 64, 64
10, 23513, Note_on_c, 1, 64, 64
10, 23600, Note_off_c, 1, 64, 64
10, 23749, Note_on_c, 1, 67, 60
10, 23834, Note_off_c, 1, 67, 64
10, 23990, Note_on_c, 1, 69, 66
10, 24173, Note_off_c, 1, 69, 64
10, 24228, Note_on_c, 1, 67, 48
10, 24328, Note_off_c, 1, 67, 64
10, 24465, Note_on_c, 1, 69, 59
10, 24540, Note_off_c, 1, 69, 64
10, 24706, Note_on_c, 1, 69, 68
10, 24785, Note_off_c, 1, 69, 64
10, 24945, Note_on_c, 1, 71, 62
10, 25319, Note_off_c, 1, 71, 64
10, 25426, Note_on_c, 1, 71, 63
10, 25515, Note_off_c, 1, 71, 64
10, 25669, Note_on_c, 1, 71, 58
10, 25764, Note_off_c, 1, 71, 64
10, 25899, Note_on_c, 1, 69, 63
10, 26075, Note_off_c, 1, 69, 64
10, 26143, Note_on_c, 1, 71, 60
10, 26255, Note_off_c, 1, 71, 64
10, 26388, Note_on_c, 1, 72, 63
10, 26488, Note_off_c, 1, 72, 64
10, 26629, Note_on_c, 1, 72, 76
10, 26714, Note_off_c, 1, 72, 64
10, 26873, Note_on_c, 1, 74, 82
10, 27214, Note_off_c, 1, 74, 64
10, 27347, Note_on_c, 1, 69, 64
10, 27432, Note_off_c, 1, 69, 64
10, 27571, Note_on_c, 1, 71, 72
10, 27660, Note_off_c, 1, 71, 64
10, 27820, Note_on_c, 1, 67, 68
10, 27997, Note_off_c, 1, 67, 64
10, 28062, Note_on_c, 1, 67, 68
10, 28146, Note_off_c, 1, 67, 64
10, 28288, Note_on_c, 1, 67, 60
10, 28393, Note_off_c, 1, 67, 64
10, 28533, Note_on_c, 1, 67, 60
10, 28640, Note_off_c, 1, 67, 64
10, 28779, Note_on_c, 1, 65, 68
10, 29142, Note_off_c, 1, 65, 64
10, 29257, Note_on_c, 1, 69, 57
10, 29378, Note_off_c, 1, 69, 64
10, 29494, Note_on_c, 1, 71, 59
10, 29617, Note_off_c, 1, 71, 64
10, 29725, Note_on_c, 1, 72, 66
10, 29862, Note_off_c, 1, 72, 64
10, 29973, Note_on_c, 1, 72, 70
10, 30078, Note_off_c, 1, 72, 64
10, 30216, Note_on_c, 1, 72, 78
10, 30322, Note_off_c, 1, 72, 64
10, 30450, Note_on_c, 1, 71, 64
10, 30549, Note_off_c, 1, 71, 64
10, 30705, Note_on_c, 1, 67, 55
10, 31073, Note_off_c, 1, 67, 64
10, 47264, Note_on_c, 1, 60, 48
10, 47480, Note_off_c, 1, 60, 64
10, 47500, Note_on_c, 1, 64, 56
10, 47704, Note_off_c, 1, 64, 64
10, 47740, Note_on_c, 1, 67, 66
10, 47949, Note_off_c, 1, 67, 64
10, 47979, Note_on_c, 1, 72, 60
10, 48201, Note_off_c, 1, 72, 64
10, 48226, Note_on_c, 1, 67, 57
10, 48433, Note_off_c, 1, 67, 64
10, 48453, Note_on_c, 1, 64, 42
10, 48662, Note_off_c, 1, 64, 64
10, 48691, Note_on_c, 1, 60, 52
10, 48911, Note_off_c, 1, 60, 64
10, 48927, Note_on_c, 1, 67, 52
10, 49131, Note_off_c, 1, 67, 64
10, 49173, Note_on_c, 1, 67, 60
10, 49232, Note_off_c, 1, 67, 64
10, 49274, Note_on_c, 1, 67, 59
10, 49349, Note_off_c, 1, 67, 64
10, 49406, Note_on_c, 1, 67, 49
10, 49580, Note_off_c, 1, 67, 64
10, 49638, Note_on_c, 1, 67, 50
10, 49805, Note_off_c, 1, 67, 64
10, 49899, Note_on_c, 1, 67, 58
10, 51343, Note_off_c, 1, 67, 64
10, 54942, Note_on_c, 1, 60, 53
10, 55158, Note_off_c, 1, 60, 64
10, 55178, Note_on_c, 1, 64, 57
10, 55390, Note_off_c, 1, 64, 64
10, 55414, Note_on_c, 1, 67, 64
10, 55621, Note_off_c, 1, 67, 64
10, 55656, Note_on_c, 1, 72, 60
10, 55876, Note_off_c, 1, 72, 64
10, 55898, Note_on_c, 1, 67, 51
10, 56121, Note_off_c, 1, 67, 64
10, 56136, Note_on_c, 1, 64, 42
10, 56349, Note_off_c, 1, 64, 64
10, 56377, Note_on_c, 1, 60, 45
10, 56576, Note_off_c, 1, 60, 64
10, 56599, Note_on_c, 1, 67, 43
10, 56807, Note_off_c, 1, 67, 64
10, 56851, Note_on_c, 1, 67, 57
10, 56916, Note_off_c, 1, 67, 64
10, 56969, Note_on_c, 1, 67, 51
10, 57033, Note_off_c, 1, 67, 64
10, 57084, Note_on_c, 1, 67, 53
10, 57256, Note_off_c, 1, 67, 64
10, 57316, Note_on_c, 1, 67, 46
10, 57480, Note_off_c, 1, 67, 64
10, 57573, Note_on_c, 1, 67, 47
10, 59033, Note_off_c, 1, 67, 64
10, 77968, Note_on_c, 1, 62, 54
10, 78132, Note_off_c, 1, 62, 64
10, 78214, Note_on_c, 1, 65, 57
10, 78347, Note_off_c, 1, 65, 64
10, 78447, Note_on_c, 1, 69, 59
10, 78588, Note_off_c, 1, 69, 64
10, 78696, Note_on_c, 1, 74, 53
10, 78861, Note_off_c, 1, 74, 64
10, 78930, Note_on_c, 1, 69, 51
10, 79078, Note_off_c, 1, 69, 64
10, 79177, Note_on_c, 1, 65, 43
10, 79323, Note_off_c, 1, 65, 64
10, 79418, Note_on_c, 1, 62, 53
10, 79566, Note_off_c, 1, 62, 64
10, 79650, Note_on_c, 1, 69, 45
10, 79831, Note_off_c, 1, 69, 64
10, 79890, Note_on_c, 1, 69, 50
10, 79963, Note_off_c, 1, 69, 64
10, 80018, Note_on_c, 1, 69, 53
10, 80085, Note_off_c, 1, 69, 64
10, 80142, Note_on_c, 1, 69, 53
10, 80295, Note_off_c, 1, 69, 64
10, 80378, Note_on_c, 1, 69, 45
10, 80530, Note_off_c, 1, 69, 64
10, 80635, Note_on_c, 1, 69, 51
10, 81607, Note_off_c, 1, 69, 64
10, 82775, Note_on_c, 1, 60, 52
10, 82911, Note_off_c, 1, 60, 64
10, 83009, Note_on_c, 1, 64, 57
10, 83133, Note_off_c, 1, 64, 64
10, 83253, Note_on_c, 1, 67, 53
10, 83365, Note_off_c, 1, 67, 64
10, 83493, Note_on_c, 1, 72, 51
10, 83617, Note_off_c, 1, 72, 64
10, 83729, Note_on_c, 1, 67, 51
10, 83872, Note_off_c, 1, 67, 64
10, 83980, Note_on_c, 1, 64, 56
10, 84102, Note_off_c, 1, 64, 64
10, 84213, Note_on_c, 1, 60, 51
10, 84346, Note_off_c, 1, 60, 64
10, 84435, Note_on_c, 1, 67, 49
10, 84621, Note_off_c, 1, 67, 64
10, 84693, Note_on_c, 1, 67, 52
10, 84755, Note_off_c, 1, 67, 64
10, 84821, Note_on_c, 1, 67, 60
10, 84886, Note_off_c, 1, 67, 64
10, 84945, Note_on_c, 1, 67, 58
10, 85081, Note_off_c, 1, 67, 64
10, 85184, Note_on_c, 1, 67, 53
10, 85310, Note_off_c, 1, 67, 64
10, 85426, Note_on_c, 1, 67, 57
10, 85971, Note_off_c, 1, 67, 64
10, 85980, Note_on_c, 1, 64, 54
10, 86040, Note_on_c, 1, 67, 63
10, 86048, Note_off_c, 1, 64, 64
10, 86089, Note_off_c, 1, 67, 64
10, 86133, Note_on_c, 1, 67, 64
10, 86212, Note_on_c, 1, 64, 51
10, 86216, Note_off_c, 1, 67, 64
10, 86271, Note_off_c, 1, 64, 64
10, 86276, Note_on_c, 1, 67, 53
10, 86344, Note_off_c, 1, 67, 64
10, 86385, Note_on_c, 1, 72, 57
10, 86514, Note_off_c, 1, 72, 64
10, 86622, Note_on_c, 1, 67, 48
10, 86753, Note_off_c, 1, 67, 64
10, 86861, Note_on_c, 1, 64, 52
10, 86978, Note_off_c, 1, 64, 64
10, 87100, Note_on_c, 1, 60, 52
10, 87228, Note_off_c, 1, 60, 64
10, 87328, Note_on_c, 1, 67, 49
10, 87521, Note_off_c, 1, 67, 64
10, 87578, Note_on_c, 1, 67, 55
10, 87630, Note_off_c, 1, 67, 64
10, 87684, Note_on_c, 1, 67, 54
10, 87743, Note_off_c, 1, 67, 64
10, 87817, Note_on_c, 1, 67, 48
10, 87961, Note_off_c, 1, 67, 64
10, 88056, Note_on_c, 1, 67, 53
10, 88199, Note_off_c, 1, 67, 64
10, 88304, Note_on_c, 1, 67, 51
10, 89760, Note_off_c, 1, 67, 64
10, 108005, Note_on_c, 1, 67, 72
10, 108082, Note_off_c, 1, 67, 64
10, 108236, Note_on_c, 1, 67, 72
10, 108321, Note_off_c, 1, 67, 64
10, 108466, Note_on_c, 1, 71, 66
10, 108681, Note_off_c, 1, 71, 64
10, 108708, Note_on_c, 1, 72, 68
10, 108783, Note_off_c, 1, 72, 64
10, 108810, Note_on_c, 1, 69, 53
10, 108872, Note_off_c, 1, 69, 64
10, 108943, Note_on_c, 1, 71, 72
10, 109035, Note_off_c, 1, 71, 64
10, 109173, Note_on_c, 1, 67, 56
10, 109274, Note_off_c, 1, 67, 64
10, 109411, Note_on_c, 1, 69, 59
10, 109795, Note_off_c, 1, 69, 64
10, 109910, Note_on_c, 1, 62, 64
10, 109995, Note_off_c, 1, 62, 64
10, 110132, Note_on_c, 1, 69, 62
10, 110221, Note_off_c, 1, 69, 64
10, 110373, Note_on_c, 1, 69, 68
10, 110556, Note_off_c, 1, 69, 64
10, 110604, Note_on_c, 1, 67, 60
10, 110694, Note_off_c, 1, 67, 64
10, 110864, Note_on_c, 1, 73, 66
10, 110956, Note_off_c, 1, 73, 64
10, 111111, Note_on_c, 1, 73, 63
10, 111206, Note_off_c, 1, 73, 64
10, 111358, Note_on_c, 1, 74, 72
10, 111702, Note_off_c, 1, 74, 64
10, 111826, Note_on_c, 1, 74, 66
10, 111916, Note_off_c, 1, 74, 64
10, 112055, Note_on_c, 1, 71, 51
10, 112140, Note_off_c, 1, 71, 64
10, 112299, Note_on_c, 1, 72, 64
10, 112630, Note_off_c, 1, 72, 64
10, 112785, Note_on_c, 1, 72, 68
10, 112862, Note_off_c, 1, 72, 64
10, 113024, Note_on_c, 1, 69, 57
10, 113105, Note_off_c, 1, 69, 64
10, 113271, Note_on_c, 1, 68, 62
10, 113600, Note_off_c, 1, 68, 64
10, 113747, Note_on_c, 1, 64, 55
10, 113834, Note_off_c, 1, 64, 64
10, 113983, Note_on_c, 1, 68, 57
10, 114076, Note_off_c, 1, 68, 64
10, 114222, Note_on_c, 1, 69, 66
10, 114324, Note_off_c, 1, 69, 64
10, 114456, Note_on_c, 1, 60, 63
10, 114547, Note_off_c, 1, 60, 64
10, 114698, Note_on_c, 1, 65, 66
10, 114791, Note_off_c, 1, 65, 64
10, 114946, Note_on_c, 1, 64, 68
10, 115020, Note_off_c, 1, 64, 64
10, 115197, Note_on_c, 1, 64, 63
10, 115522, Note_off_c, 1, 64, 64
10, 115673, Note_on_c, 1, 64, 64
10, 115760, Note_off_c, 1, 64, 64
10, 115909, Note_on_c, 1, 67, 60
10, 115994, Note_off_c, 1, 67, 64
10, 116150, Note_on_c, 1, 69, 66
10, 116333, Note_off_c, 1, 69, 64
10, 116388, Note_on_c, 1, 67, 48
10, 116488, Note_off_c, 1, 67, 64
10, 116625, Note_on_c, 1, 69, 59
10, 116700, Note_off_c, 1, 69, 64
10, 116866, Note_on_c, 1, 69, 68
10, 116945, Note_off_c, 1, 69, 64
10, 117105, Note_on_c, 1, 71, 62
10, 117479, Note_off_c, 1, 71, 64
10, 117586, Note_on_c, 1, 71, 63
10, 117675, Note_off_c, 1, 71, 64
10, 117829, Note_on_c, 1, 71, 58
10, 117924, Note_off_c, 1, 71, 64
10, 118059, Note_on_c, 1, 69, 63
10, 118235, Note_off_c, 1, 69, 64
10, 118303, Note_on_c, 1, 71, 60
10, 118415, Note_off_c, 1, 71, 64
10, 118548, Note_on_c, 1, 72, 63
10, 118648, Note_off_c, 1, 72, 64
10, 118789, Note_on_c, 1, 72, 76
10, 118874, Note_off_c, 1, 72, 64
10, 119033, Note_on_c, 1, 74, 82
10, 119374, Note_off_c, 1, 74, 64
10, 119507, Note_on_c, 1, 69, 64
10, 119592, Note_off_c, 1, 69, 64
10, 119731, Note_on_c, 1, 71, 72
10, 119820, Note_off_c, 1, 71, 64
10, 119980, Note_on_c, 1, 67, 68
10, 120157, Note_off_c, 1, 67, 64
10, 120222, Note_on_c, 1, 67, 68
10, 120306, Note_off_c, 1, 67, 64
10, 120448, Note_on_c, 1, 67, 60
10, 120553, Note_off_c, 1, 67, 64
10, 120693, Note_on_c, 1, 67, 60
10, 120800, Note_off_c, 1, 67, 64
10, 120939, Note_on_c, 1, 65, 68
10, 121302, Note_off_c, 1, 65, 64
10, 121417, Note_on_c, 1, 69, 57
10, 121538, Note_off_c, 1, 69, 64
10, 121654, Note_on_c, 1, 71, 59
10, 121777, Note_off_c, 1, 71, 64
10, 121885, Note_on_c, 1, 72, 66
10, 122022, Note_off_c, 1, 72, 64
10, 122133, Note_on_c, 1, 72, 70
10, 122238, Note_off_c, 1, 72, 64
10, 122376, Note_on_c, 1, 72, 78
10, 122482, Note_off_c, 1, 72, 64
10, 122610, Note_on_c, 1, 71, 64
10, 122709, Note_off_c, 1, 71, 64
10, 122865, Note_on_c, 1, 67, 55
10, 123233, Note_off_c, 1, 67, 64
10, 123233, End_track
11, 0, Start_track
11, 0, Title_t, "Viola"
11, 0, Program_c, 2, 41
11, 0, Control_c, 2, 7, 100
11, 15829, Note_on_c, 2, 62, 66
11, 15922, Note_off_c, 2, 62, 64
11, 16066, Note_on_c, 2, 64, 53
11, 16164, Note_off_c, 2, 64, 64
11, 16297, Note_on_c, 2, 67, 66
11, 16508, Note_off_c, 2, 67, 64
11, 16541, Note_on_c, 2, 67, 63
11, 16636, Note_off_c, 2, 67, 64
11, 16787, Note_on_c, 2, 67, 63
11, 16866, Note_off_c, 2, 67, 64
11, 17019, Note_on_c, 2, 67, 66
11, 17100, Note_off_c, 2, 67, 64
11, 17268, Note_on_c, 2, 64, 68
11, 17644, Note_off_c, 2, 64, 64
11, 17753, Note_on_c, 2, 62, 59
11, 17840, Note_off_c, 2, 62, 64
11, 17972, Note_on_c, 2, 61, 60
11, 18058, Note_off_c, 2, 61, 64
11, 18217, Note_on_c, 2, 62, 60
11, 18344, Note_off_c, 2, 62, 64
11, 18451, Note_on_c, 2, 67, 72
11, 18560, Note_off_c, 2, 67, 64
11, 18699, Note_on_c, 2, 64, 68
11, 18793, Note_off_c, 2, 64, 64
11, 18953, Note_on_c, 2, 64, 66
11, 19038, Note_off_c, 2, 64, 64
11, 19196, Note_on_c, 2, 62, 57
11, 19543, Note_off_c, 2, 62, 64
11, 19671, Note_on_c, 2, 62, 72
11, 19743, Note_off_c, 2, 62, 64
11, 19908, Note_on_c, 2, 67, 72
11, 19991, Note_off_c, 2, 67, 64
11, 20154, Note_on_c, 2, 67, 78
11, 20489, Note_off_c, 2, 67, 64
11, 20627, Note_on_c, 2, 60, 63
11, 20692, Note_off_c, 2, 60, 64
11, 20868, Note_on_c, 2, 60, 63
11, 20946, Note_off_c, 2, 60, 64
11, 21097, Note_on_c, 2, 62, 68
11, 21441, Note_off_c, 2, 62, 64
11, 21576, Note_on_c, 2, 59, 61
11, 21660, Note_off_c, 2, 59, 64
11, 21816, Note_on_c, 2, 64, 68
11, 21906, Note_off_c, 2, 64, 64
11, 22053, Note_on_c, 2, 64, 70
11, 22183, Note_off_c, 2, 64, 64
11, 22292, Note_on_c, 2, 65, 63
11, 22381, Note_off_c, 2, 65, 64
11, 22538, Note_on_c, 2, 65, 63
11, 22635, Note_off_c, 2, 65, 64
11, 22780, Note_on_c, 2, 59, 70
11, 22866, Note_off_c, 2, 59, 64
11, 23028, Note_on_c, 2, 60, 63
11, 23362, Note_off_c, 2, 60, 64
11, 23496, Note_on_c, 2, 57, 61
11, 23584, Note_off_c, 2, 57, 64
11, 23741, Note_on_c, 2, 59, 59
11, 23824, Note_off_c, 2, 59, 64
11, 23980, Note_on_c, 2, 60, 64
11, 24184, Note_off_c, 2, 60, 64
11, 24226, Note_on_c, 2, 62, 68
11, 24324, Note_off_c, 2, 62, 64
11, 24331, Note_on_c, 2, 64, 66
11, 24405, Note_off_c, 2, 64, 64
11, 24456, Note_on_c, 2, 57, 63
11, 24549, Note_off_c, 2, 57, 64
11, 24688, Note_on_c, 2, 62, 70
11, 24768, Note_off_c, 2, 62, 64
11, 24945, Note_on_c, 2, 62, 80
11, 25302, Note_off_c, 2, 62, 64
11, 25427, Note_on_c, 2, 59, 64
11, 25498, Note_off_c, 2, 59, 64
11, 25669, Note_on_c, 2, 64, 70
11, 25764, Note_off_c, 2, 64, 64
11, 25908, Note_on_c, 2, 64, 80
11, 26114, Note_off_c, 2, 64, 64
11, 26148, Note_on_c, 2, 65, 64
11, 26222, Note_off_c, 2, 65, 64
11, 26249, Note_on_c, 2, 67, 85
11, 26323, Note_off_c, 2, 67, 64
11, 26374, Note_on_c, 2, 60, 60
11, 26461, Note_off_c, 2, 60, 64
11, 26614, Note_on_c, 2, 65, 74
11, 26699, Note_off_c, 2, 65, 64
11, 26848, Note_on_c, 2, 65, 64
11, 27198, Note_off_c, 2, 65, 64
11, 27339, Note_on_c, 2, 65, 64
11, 27427, Note_off_c, 2, 65, 64
11, 27568, Note_on_c, 2, 62, 64
11, 27655, Note_off_c, 2, 62, 64
11, 27816, Note_on_c, 2, 64, 70
11, 28002, Note_off_c, 2, 64, 64
11, 28064, Note_on_c, 2, 64, 58
11, 28152, Note_off_c, 2, 64, 64
11, 28297, Note_on_c, 2, 64, 60
11, 28386, Note_off_c, 2, 64, 64
11, 28537, Note_on_c, 2, 64, 64
11, 28630, Note_off_c, 2, 64, 64
11, 28783, Note_on_c, 2, 60, 58
11, 29135, Note_off_c, 2, 60, 64
11, 29255, Note_on_c, 2, 62, 63
11, 29335, Note_off_c, 2, 62, 64
11, 29505, Note_on_c, 2, 62, 63
11, 29600, Note_off_c, 2, 62, 64
11, 29743, Note_on_c, 2, 64, 72
11, 29848, Note_off_c, 2, 64, 64
11, 29972, Note_on_c, 2, 60, 59
11, 30091, Note_off_c, 2, 60, 64
11, 30216, Note_on_c, 2, 67, 80
11, 30307, Note_off_c, 2, 67, 64
11, 30464, Note_on_c, 2, 65, 68
11, 30561, Note_off_c, 2, 65, 64
11, 30720, Note_on_c, 2, 64, 70
11, 31055, Note_off_c, 2, 64, 64
11, 47260, Note_on_c, 2, 60, 54
11, 47462, Note_off_c, 2, 60, 64
11, 47499, Note_on_c, 2, 64, 60
11, 47698, Note_off_c, 2, 64, 64
11, 47750, Note_on_c, 2, 67, 53
11, 47937, Note_off_c, 2, 67, 64
11, 47969, Note_on_c, 2, 72, 51
11, 48182, Note_off_c, 2, 72, 64
11, 48218, Note_on_c, 2, 67, 53
11, 48398, Note_off_c, 2, 67, 64
11, 48463, Note_on_c, 2, 64, 47
11, 48653, Note_off_c, 2, 64, 64
11, 48686, Note_on_c, 2, 60, 47
11, 48888, Note_off_c, 2, 60, 64
11, 48945, Note_on_c, 2, 67, 37
11, 49112, Note_off_c, 2, 67, 64
11, 49180, Note_on_c, 2, 67, 55
11, 49239, Note_off_c, 2, 67, 64
11, 49305, Note_on_c, 2, 67, 47
11, 49361, Note_off_c, 2, 67, 64
11, 49436, Note_on_c, 2, 67, 42
11, 49579, Note_off_c, 2, 67, 64
11, 49677, Note_on_c, 2, 67, 25
11, 49802, Note_off_c, 2, 67, 64
11, 49910, Note_on_c, 2, 67, 43
11, 51402, Note_off_c, 2, 67, 64
11, 54933, Note_on_c, 2, 60, 48
11, 55147, Note_off_c, 2, 60, 64
11, 55179, Note_on_c, 2, 64, 57
11, 55359, Note_off_c, 2, 64, 64
11, 55414, Note_on_c, 2, 67, 52
11, 55595, Note_off_c, 2, 67, 64
11, 55648, Note_on_c, 2, 72, 47
11, 55864, Note_off_c, 2, 72, 64
11, 55896, Note_on_c, 2, 67, 56
11, 56080, Note_off_c, 2, 67, 64
11, 56147, Note_on_c, 2, 64, 46
11, 56329, Note_off_c, 2, 64, 64
11, 56370, Note_on_c, 2, 60, 47
11, 56547, Note_off_c, 2, 60, 64
11, 56620, Note_on_c, 2, 67, 51
11, 56796, Note_off_c, 2, 67, 64
11, 56855, Note_on_c, 2, 67, 48
11, 56921, Note_off_c, 2, 67, 64
11, 56973, Note_on_c, 2, 67, 49
11, 57029, Note_off_c, 2, 67, 64
11, 57098, Note_on_c, 2, 67, 47
11, 57267, Note_off_c, 2, 67, 64
11, 57339, Note_on_c, 2, 67, 35
11, 57499, Note_off_c, 2, 67, 64
11, 57582, Note_on_c, 2, 67, 41
11, 59047, Note_off_c, 2, 67, 64
11, 77988, Note_on_c, 2, 62, 47
11, 78133, Note_off_c, 2, 62, 64
11, 78210, Note_on_c, 2, 65, 51
11, 78348, Note_off_c, 2, 65, 64
11, 78453, Note_on_c, 2, 69, 46
11, 78599, Note_off_c, 2, 69, 64
11, 78696, Note_on_c, 2, 74, 46
11, 78852, Note_off_c, 2, 74, 64
11, 78937, Note_on_c, 2, 69, 45
11, 79090, Note_off_c, 2, 69, 64
11, 79166, Note_on_c, 2, 65, 37
11, 79316, Note_off_c, 2, 65, 64
11, 79414, Note_on_c, 2, 62, 49
11, 79578, Note_off_c, 2, 62, 64
11, 79660, Note_on_c, 2, 69, 54
11, 79837, Note_off_c, 2, 69, 64
11, 79895, Note_on_c, 2, 69, 48
11, 79949, Note_off_c, 2, 69, 64
11, 80004, Note_on_c, 2, 69, 52
11, 80070, Note_off_c, 2, 69, 64
11, 80131, Note_on_c, 2, 69, 36
11, 80292, Note_off_c, 2, 69, 64
11, 80380, Note_on_c, 2, 69, 36
11, 80520, Note_off_c, 2, 69, 64
11, 80626, Note_on_c, 2, 69, 39
11, 81589, Note_off_c, 2, 69, 64
11, 82779, Note_on_c, 2, 60, 52
11, 82933, Note_off_c, 2, 60, 64
11, 83014, Note_on_c, 2, 64, 58
11, 83135, Note_off_c, 2, 64, 64
11, 83267, Note_on_c, 2, 67, 45
11, 83388, Note_off_c, 2, 67, 64
11, 83477, Note_on_c, 2, 72, 47
11, 83639, Note_off_c, 2, 72, 64
11, 83729, Note_on_c, 2, 67, 57
11, 83855, Note_off_c, 2, 67, 64
11, 83978, Note_on_c, 2, 64, 53
11, 84099, Note_off_c, 2, 64, 64
11, 84209, Note_on_c, 2, 60, 49
11, 84347, Note_off_c, 2, 60, 64
11, 84464, Note_on_c, 2, 67, 50
11, 84622, Note_off_c, 2, 67, 64
11, 84681, Note_on_c, 2, 67, 55
11, 84739, Note_off_c, 2, 67, 64
11, 84792, Note_on_c, 2, 67, 56
11, 84861, Note_off_c, 2, 67, 64
11, 84931, Note_on_c, 2, 67, 51
11, 85086, Note_off_c, 2, 67, 64
11, 85184, Note_on_c, 2, 67, 51
11, 85323, Note_off_c, 2, 67, 64
11, 85428, Note_on_c, 2, 67, 47
11, 85980, Note_on_c, 2, 64, 55
11, 85981, Note_off_c, 2, 67, 64
11, 86039, Note_on_c, 2, 67, 63
11, 86053, Note_off_c, 2, 64, 64
11, 86097, Note_off_c, 2, 67, 64
11, 86137, Note_on_c, 2, 67, 64
11, 86216, Note_off_c, 2, 67, 64
11, 86220, Note_on_c, 2, 64, 51
11, 86275, Note_on_c, 2, 67, 60
11, 86288, Note_off_c, 2, 64, 64
11, 86359, Note_off_c, 2, 67, 64
11, 86396, Note_on_c, 2, 72, 59
11, 86515, Note_off_c, 2, 72, 64
11, 86627, Note_on_c, 2, 67, 52
11, 86743, Note_off_c, 2, 67, 64
11, 86871, Note_on_c, 2, 64, 53
11, 86978, Note_off_c, 2, 64, 64
11, 87099, Note_on_c, 2, 60, 46
11, 87227, Note_off_c, 2, 60, 64
11, 87326, Note_on_c, 2, 67, 46
11, 87511, Note_off_c, 2, 67, 64
11, 87574, Note_on_c, 2, 67, 43
11, 87639, Note_off_c, 2, 67, 64
11, 87701, Note_on_c, 2, 67, 47
11, 87760, Note_off_c, 2, 67, 64
11, 87813, Note_on_c, 2, 67, 51
11, 87976, Note_off_c, 2, 67, 64
11, 88054, Note_on_c, 2, 67, 35
11, 88219, Note_off_c, 2, 67, 64
11, 88296, Note_on_c, 2, 67, 46
11, 89757, Note_off_c, 2, 67, 64
11, 107989, Note_on_c, 2, 62, 66
11, 108082, Note_off_c, 2, 62, 64
11, 108226, Note_on_c, 2, 64, 53
11, 108324, Note_off_c, 2, 64, 64
11, 108457, Note_on_c, 2, 67, 66
11, 108668, Note_off_c, 2, 67, 64
11, 108701, Note_on_c, 2, 67, 63
11, 108796, Note_off_c, 2, 67, 64
11, 108947, Note_on_c, 2, 67, 63
11, 109026, Note_off_c, 2, 67, 64
11, 109179, Note_on_c, 2, 67, 66
11, 109260, Note_off_c, 2, 67, 64
11, 109428, Note_on_c, 2, 64, 68
11, 109804, Note_off_c, 2, 64, 64
11, 109913, Note_on_c, 2, 62, 59
11, 110000, Note_off_c, 2, 62, 64
11, 110132, Note_on_c, 2, 61, 60
11, 110218, Note_off_c, 2, 61, 64
11, 110377, Note_on_c, 2, 62, 60
11, 110504, Note_off_c, 2, 62, 64
11, 110611, Note_on_c, 2, 67, 72
11, 110720, Note_off_c, 2, 67, 64
11, 110859, Note_on_c, 2, 64, 68
11, 110953, Note_off_c, 2, 64, 64
11, 111113, Note_on_c, 2, 64, 66
11, 111198, Note_off_c, 2, 64, 64
11, 111356, Note_on_c, 2, 62, 57
11, 111703, Note_off_c, 2, 62, 64
11, 111831, Note_on_c, 2, 62, 72
11, 111903, Note_off_c, 2, 62, 64
11, 112068, Note_on_c, 2, 67, 72
11, 112151, Note_off_c, 2, 67, 64
11, 112314, Note_on_c, 2, 67, 78
11, 112649, Note_off_c, 2, 67, 64
11, 112787, Note_on_c, 2, 60, 63
11, 112852, Note_off_c, 2, 60, 64
11, 113028, Note_on_c, 2, 60, 63
11, 113106, Note_off_c, 2, 60, 64
11, 113257, Note_on_c, 2, 62, 68
11, 113601, Note_off_c, 2, 62, 64
11, 113736, Note_on_c, 2, 59, 61
11, 113820, Note_off_c, 2, 59, 64
11, 113976, Note_on_c, 2, 64, 68
11, 114066, Note_off_c, 2, 64, 64
11, 114213, Note_on_c, 2, 64, 70
11, 114343, Note_off_c, 2, 64, 64
11, 114452, Note_on_c, 2, 65, 63
11, 114541, Note_off_c, 2, 65, 64
11, 114698, Note_on_c, 2, 65, 63
11, 114795, Note_off_c, 2, 65, 64
11, 114940, Note_on_c, 2, 59, 70
11, 115026, Note_off_c, 2, 59, 64
11, 115188, Note_on_c, 2, 60, 63
11, 115522, Note_off_c, 2, 60, 64
11, 115656, Note_on_c, 2, 57, 61
11, 115744, Note_off_c, 2, 57, 64
11, 115901, Note_on_c, 2, 59, 59
11, 115984, Note_off_c, 2, 59, 64
11, 116140, Note_on_c, 2, 60, 64
11, 116344, Note_off_c, 2, 60, 64
11, 116386, Note_on_c, 2, 62, 68
11, 116484, Note_off_c, 2, 62, 64
11, 116491, Note_on_c, 2, 64, 66
11, 116565, Note_off_c, 2, 64, 64
11, 116616, Note_on_c, 2, 57, 63
11, 116709, Note_off_c, 2, 57, 64
11, 116848, Note_on_c, 2, 62, 70
11, 116928, Note_off_c, 2, 62, 64
11, 117105, Note_on_c, 2, 62, 80
11, 117462, Note_off_c, 2, 62, 64
11, 117587, Note_on_c, 2, 59, 64
11, 117658, Note_off_c, 2, 59, 64
11, 117829, Note_on_c, 2, 64, 70
11, 117924, Note_off_c, 2, 64, 64
11, 118068, Note_on_c, 2, 64, 80
11, 118274, Note_off_c, 2, 64, 64
11, 118308, Note_on_c, 2, 65, 64
11, 118382, Note_off_c, 2, 65, 64
11, 118409, Note_on_c, 2, 67, 85
11, 118483, Note_off_c, 2, 67, 64
11, 118534, Note_on_c, 2, 60, 60
11, 118621, Note_off_c, 2, 60, 64
11, 118774, Note_on_c, 2, 65, 74
11, 118859, Note_off_c, 2, 65, 64
11, 119008, Note_on_c, 2, 65, 64
11, 119358, Note_off_c, 2, 65, 64
11, 119499, Note_on_c, 2, 65, 64
11, 119587, Note_off_c, 2, 65, 64
11, 119728, Note_on_c, 2, 62, 64
11, 119815, Note_off_c, 2, 62, 64
11, 119976, Note_on_c, 2, 64, 70
11, 120162, Note_off_c, 2, 64, 64
11, 120224, Note_on_c, 2, 64, 58
11, 120312, Note_off_c, 2, 64, 64
11, 120457, Note_on_c, 2, 64, 60
11, 120546, Note_off_c, 2, 64, 64
11, 120697, Note_on_c, 2, 64, 64
11, 120790, Note_off_c, 2, 64, 64
11, 120943, Note_on_c, 2, 60, 58
11, 121295, Note_off_c, 2, 60, 64
11, 121415, Note_on_c, 2, 62, 63
11, 121495, Note_off_c, 2, 62, 64
11, 121665, Note_on_c, 2, 62, 63
11, 121760, Note_off_c, 2, 62, 64
11, 121903, Note_on_c, 2, 64, 72
11, 122008, Note_off_c, 2, 64, 64
11, 122132, Note_on_c, 2, 60, 59
11, 122251, Note_off_c, 2, 60, 64
11, 122376, Note_on_c, 2, 67, 80
11, 122467, Note_off_c, 2, 67, 64
11, 122624, Note_on_c, 2, 65, 68
11, 122721, Note_off_c, 2, 65, 64
11, 122880, Note_on_c, 2, 64, 70
11, 123215, Note_off_c, 2, 64, 64
11, 123215, End_track
12, 0, Start_track
12, 0, Title_t, "Cello"
12, 0, Program_c, 3, 42
12, 0, Control_c, 3, 7, 100
12, 15842, Note_on_c, 3, 55, 78
12, 15919, Note_off_c, 3, 55, 64
12, 16064, Note_on_c, 3, 48, 62
12, 16146, Note_off_c, 3, 48, 64
12, 16302, Note_on_c, 3, 43, 74
12, 16462, Note_off_c, 3, 43, 64
12, 16542, Note_on_c, 3, 55, 78
12, 16624, Note_off_c, 3, 55, 64
12, 16783, Note_on_c, 3, 53, 66
12, 16871, Note_off_c, 3, 53, 64
12, 17019, Note_on_c, 3, 52, 68
12, 17102, Note_off_c, 3, 52, 64
12, 17264, Note_on_c, 3, 57, 82
12, 17379, Note_off_c, 3, 57, 64
12, 17500, Note_on_c, 3, 55, 68
12, 17604, Note_off_c, 3, 55, 64
12, 17742, Note_on_c, 3, 53, 70
12, 17838, Note_off_c, 3, 53, 64
12, 17984, Note_on_c, 3, 52, 70
12, 18072, Note_off_c, 3, 52, 64
12, 18221, Note_on_c, 3, 50, 72
12, 18322, Note_off_c, 3, 50, 64
12, 18452, Note_on_c, 3, 58, 72
12, 18544, Note_off_c, 3, 58, 64
12, 18691, Note_on_c, 3, 57, 80
12, 18794, Note_off_c, 3, 57, 64
12, 18937, Note_on_c, 3, 45, 80
12, 19022, Note_off_c, 3, 45, 64
12, 19189, Note_on_c, 3, 50, 80
12, 19293, Note_off_c, 3, 50, 64
12, 19421, Note_on_c, 3, 48, 63
12, 19517, Note_off_c, 3, 48, 64
12, 19664, Note_on_c, 3, 47, 70
12, 19764, Note_off_c, 3, 47, 64
12, 19895, Note_on_c, 3, 43, 72
12, 19978, Note_off_c, 3, 43, 64
12, 20144, Note_on_c, 3, 48, 85
12, 20243, Note_off_c, 3, 48, 64
12, 20367, Note_on_c, 3, 47, 70
12, 20475, Note_off_c, 3, 47, 64
12, 20609, Note_on_c, 3, 45, 70
12, 20697, Note_off_c, 3, 45, 64
12, 20852, Note_on_c, 3, 57, 72
12, 20936, Note_off_c, 3, 57, 64
12, 21106, Note_on_c, 3, 59, 82
12, 21205, Note_off_c, 3, 59, 64
12, 21338, Note_on_c, 3, 57, 68
12, 21435, Note_off_c, 3, 57, 64
12, 21579, Note_on_c, 3, 56, 63
12, 21676, Note_off_c, 3, 56, 64
12, 21822, Note_on_c, 3, 52, 68
12, 21901, Note_off_c, 3, 52, 64
12, 22055, Note_on_c, 3, 57, 76
12, 22148, Note_off_c, 3, 57, 64
12, 22291, Note_on_c, 3, 53, 76
12, 22377, Note_off_c, 3, 53, 64
12, 22543, Note_on_c, 3, 50, 78
12, 22626, Note_off_c, 3, 50, 64
12, 22779, Note_on_c, 3, 52, 78
12, 22858, Note_off_c, 3, 52, 64
12, 23025, Note_on_c, 3, 45, 85
12, 23150, Note_off_c, 3, 45, 64
12, 23270, Note_on_c, 3, 52, 72
12, 23356, Note_off_c, 3, 52, 64
12, 23508, Note_on_c, 3, 57, 85
12, 23605, Note_off_c, 3, 57, 64
12, 23742, Note_on_c, 3, 55, 66
12, 23832, Note_off_c, 3, 55, 64
12, 23994, Note_on_c, 3, 53, 80
12, 24118, Note_off_c, 3, 53, 64
12, 24233, Note_on_c, 3, 52, 57
12, 24321, Note_off_c, 3, 52, 64
12, 24459, Note_on_c, 3, 53, 68
12, 24554, Note_off_c, 3, 53, 64
12, 24687, Note_on_c, 3, 50, 66
12, 24775, Note_off_c, 3, 50, 64
12, 24935, Note_on_c, 3, 55, 72
12, 25106, Note_off_c, 3, 55, 64
12, 25187, Note_on_c, 3, 57, 72
12, 25295, Note_off_c, 3, 57, 64
12, 25305, Note_on_c, 3, 53, 57
12, 25387, Note_off_c, 3, 53, 64
12, 25433, Note_on_c, 3, 57, 80
12, 25538, Note_on_c, 3, 55, 64
12, 25564, Note_off_c, 3, 57, 64
12, 25653, Note_on_c, 3, 53, 54
12, 25662, Note_off_c, 3, 55, 64
12, 25768, Note_off_c, 3, 53, 64
12, 25768, Note_on_c, 3, 52, 57
12, 25853, Note_off_c, 3, 52, 64
12, 25896, Note_on_c, 3, 57, 64
12, 25983, Note_off_c, 3, 57, 64
12, 26143, Note_on_c, 3, 55, 68
12, 26231, Note_off_c, 3, 55, 64
12, 26382, Note_on_c, 3, 57, 66
12, 26487, Note_off_c, 3, 57, 64
12, 26616, Note_on_c, 3, 53, 61
12, 26696, Note_off_c, 3, 53, 64
12, 26848, Note_on_c, 3, 59, 70
12, 26978, Note_off_c, 3, 59, 64
12, 27102, Note_on_c, 3, 60, 80
12, 27207, Note_off_c, 3, 60, 64
12, 27210, Note_on_c, 3, 57, 68
12, 27293, Note_off_c, 3, 57, 64
12, 27345, Note_on_c, 3, 60, 78
12, 27453, Note_on_c, 3, 59, 70
12, 27476, Note_off_c, 3, 60, 64
12, 27560, Note_on_c, 3, 57, 58
12, 27567, Note_off_c, 3, 59, 64
12, 27671, Note_off_c, 3, 57, 64
12, 27672, Note_on_c, 3, 55, 58
12, 27743, Note_off_c, 3, 55, 64
12, 27809, Note_on_c, 3, 60, 66
12, 27897, Note_off_c, 3, 60, 64
12, 28044, Note_on_c, 3, 55, 63
12, 28143, Note_off_c, 3, 55, 64
12, 28288, Note_on_c, 3, 52, 64
12, 28392, Note_off_c, 3, 52, 64
12, 28533, Note_on_c, 3, 48, 59
12, 28638, Note_off_c, 3, 48, 64
12, 28781, Note_on_c, 3, 53, 80
12, 28886, Note_off_c, 3, 53, 64
12, 29014, Note_on_c, 3, 52, 68
12, 29128, Note_off_c, 3, 52, 64
12, 29249, Note_on_c, 3, 50, 66
12, 29351, Note_off_c, 3, 50, 64
12, 29481, Note_on_c, 3, 53, 72
12, 29596, Note_off_c, 3, 53, 64
12, 29734, Note_on_c, 3, 52, 78
12, 29854, Note_off_c, 3, 52, 64
12, 29977, Note_on_c, 3, 53, 85
12, 30078, Note_off_c, 3, 53, 64
12, 30222, Note_on_c, 3, 55, 80
12, 30317, Note_off_c, 3, 55, 64
12, 30463, Note_on_c, 3, 43, 80
12, 30558, Note_off_c, 3, 43, 64
12, 30713, Note_on_c, 3, 36, 80
12, 31059, Note_off_c, 3, 36, 64
12, 46560, Note_on_c, 3, 60, 43
12, 46742, Note_off_c, 3, 60, 64
12, 46786, Note_on_c, 3, 60, 54
12, 46963, Note_off_c, 3, 60, 64
12, 47030, Note_on_c, 3, 60, 50
12, 47431, Note_off_c, 3, 60, 64
12, 47504, Note_on_c, 3, 55, 42
12, 47694, Note_off_c, 3, 55, 64
12, 47745, Note_on_c, 3, 55, 48
12, 47943, Note_off_c, 3, 55, 64
12, 47989, Note_on_c, 3, 57, 55
12, 48397, Note_off_c, 3, 57, 64
12, 48459, Note_on_c, 3, 57, 49
12, 48649, Note_off_c, 3, 57, 64
12, 48692, Note_on_c, 3, 57, 59
12, 48898, Note_off_c, 3, 57, 64
12, 48943, Note_on_c, 3, 59, 58
12, 49379, Note_off_c, 3, 59, 64
12, 49425, Note_on_c, 3, 60, 57
12, 49624, Note_off_c, 3, 60, 64
12, 49663, Note_on_c, 3, 60, 59
12, 49856, Note_off_c, 3, 60, 64
12, 49903, Note_on_c, 3, 55, 60
12, 50115, Note_off_c, 3, 55, 64
12, 50142, Note_on_c, 3, 53, 57
12, 50322, Note_off_c, 3, 53, 64
12, 50373, Note_on_c, 3, 52, 50
12, 50566, Note_off_c, 3, 52, 64
12, 50593, Note_on_c, 3, 55, 58
12, 50820, Note_off_c, 3, 55, 64
12, 50861, Note_on_c, 3, 48, 57
12, 51291, Note_off_c, 3, 48, 64
12, 51333, Note_on_c, 3, 60, 47
12, 51530, Note_off_c, 3, 60, 64
12, 51572, Note_on_c, 3, 60, 60
12, 51764, Note_off_c, 3, 60, 64
12, 51814, Note_on_c, 3, 60, 63
12, 52032, Note_off_c, 3, 60, 64
12, 52056, Note_on_c, 3, 59, 57
12, 52269, Note_off_c, 3, 59, 64
12, 52292, Note_on_c, 3, 57, 53
12, 52474, Note_off_c, 3, 57, 64
12, 52525, Note_on_c, 3, 55, 57
12, 52734, Note_off_c, 3, 55, 64
12, 52783, Note_on_c, 3, 60, 66
12, 52877, Note_off_c, 3, 60, 64
12, 52907, Note_on_c, 3, 57, 62
12, 52988, Note_off_c, 3, 57, 64
12, 53018, Note_on_c, 3, 59, 64
12, 53107, Note_off_c, 3, 59, 64
12, 53133, Note_on_c, 3, 60, 68
12, 53208, Note_off_c, 3, 60, 64
12, 53243, Note_on_c, 3, 62, 64
12, 53407, Note_off_c, 3, 62, 64
12, 53503, Note_on_c, 3, 50, 66
12, 53652, Note_off_c, 3, 50, 64
12, 53749, Note_on_c, 3, 43, 58
12, 54112, Note_off_c, 3, 43, 64
12, 54207, Note_on_c, 3, 60, 42
12, 54410, Note_off_c, 3, 60, 64
12, 54452, Note_on_c, 3, 60, 53
12, 54628, Note_off_c, 3, 60, 64
12, 54710, Note_on_c, 3, 60, 54
12, 55120, Note_off_c, 3, 60, 64
12, 55191, Note_on_c, 3, 55, 38
12, 55371, Note_off_c, 3, 55, 64
12, 55424, Note_on_c, 3, 55, 48
12, 55613, Note_off_c, 3, 55, 64
12, 55669, Note_on_c, 3, 57, 53
12, 56081, Note_off_c, 3, 57, 64
12, 56147, Note_on_c, 3, 57, 51
12, 56330, Note_off_c, 3, 57, 64
12, 56386, Note_on_c, 3, 57, 55
12, 56563, Note_off_c, 3, 57, 64
12, 56627, Note_on_c, 3, 59, 54
12, 57034, Note_off_c, 3, 59, 64
12, 57089, Note_on_c, 3, 60, 63
12, 57303, Note_off_c, 3, 60, 64
12, 57342, Note_on_c, 3, 60, 57
12, 57538, Note_off_c, 3, 60, 64
12, 57584, Note_on_c, 3, 55, 54
12, 57799, Note_off_c, 3, 55, 64
12, 57819, Note_on_c, 3, 53, 57
12, 58003, Note_off_c, 3, 53, 64
12, 58051, Note_on_c, 3, 52, 57
12, 58249, Note_off_c, 3, 52, 64
12, 58268, Note_on_c, 3, 55, 57
12, 58478, Note_off_c, 3, 55, 64
12, 58532, Note_on_c, 3, 48, 60
12, 58956, Note_off_c, 3, 48, 64
12, 59020, Note_on_c, 3, 60, 52
12, 59221, Note_off_c, 3, 60, 64
12, 59250, Note_on_c, 3, 60, 61
12, 59423, Note_off_c, 3, 60, 64
12, 59492, Note_on_c, 3, 60, 60
12, 59691, Note_off_c, 3, 60, 64
12, 59731, Note_on_c, 3, 59, 57
12, 59937, Note_off_c, 3, 59, 64
12, 59995, Note_on_c, 3, 57, 59
12, 60156, Note_off_c, 3, 57, 64
12, 60218, Note_on_c, 3, 55, 59
12, 60401, Note_off_c, 3, 55, 64
12, 60463, Note_on_c, 3, 60, 72
12, 60543, Note_off_c, 3, 60, 64
12, 60582, Note_on_c, 3, 57, 59
12, 60656, Note_off_c, 3, 57, 64
12, 60695, Note_on_c, 3, 59, 63
12, 60782, Note_off_c, 3, 59, 64
12, 60803, Note_on_c, 3, 60, 70
12, 60872, Note_off_c, 3, 60, 64
12, 60913, Note_on_c, 3, 62, 66
12, 61079, Note_off_c, 3, 62, 64
12, 61183, Note_on_c, 3, 50, 66
12, 61321, Note_off_c, 3, 50, 64
12, 61429, Note_on_c, 3, 43, 56
12, 61821, Note_off_c, 3, 43, 64
12, 77267, Note_on_c, 3, 55, 49
12, 77457, Note_off_c, 3, 55, 64
12, 77503, Note_on_c, 3, 55, 57
12, 77691, Note_off_c, 3, 55, 64
12, 77748, Note_on_c, 3, 53, 38
12, 78122, Note_off_c, 3, 53, 64
12, 78221, Note_on_c, 3, 57, 52
12, 78408, Note_off_c, 3, 57, 64
12, 78455, Note_on_c, 3, 57, 57
12, 78657, Note_off_c, 3, 57, 64
12, 78710, Note_on_c, 3, 50, 60
12, 79106, Note_off_c, 3, 50, 64
12, 79179, Note_on_c, 3, 62, 53
12, 79368, Note_off_c, 3, 62, 64
12, 79414, Note_on_c, 3, 62, 60
12, 79614, Note_off_c, 3, 62, 64
12, 79667, Note_on_c, 3, 61, 41
12, 80086, Note_off_c, 3, 61, 64
12, 80158, Note_on_c, 3, 57, 48
12, 80332, Note_off_c, 3, 57, 64
12, 80383, Note_on_c, 3, 57, 49
12, 80541, Note_off_c, 3, 57, 64
12, 80627, Note_on_c, 3, 62, 53
12, 80786, Note_off_c, 3, 62, 64
12, 80873, Note_on_c, 3, 60, 53
12, 81013, Note_off_c, 3, 60, 64
12, 81100, Note_on_c, 3, 59, 52
12, 81242, Note_off_c, 3, 59, 64
12, 81355, Note_on_c, 3, 57, 52
12, 81497, Note_off_c, 3, 57, 64
12, 81587, Note_on_c, 3, 55, 62
12, 81726, Note_off_c, 3, 55, 64
12, 81811, Note_on_c, 3, 53, 42
12, 81958, Note_off_c, 3, 53, 64
12, 82057, Note_on_c, 3, 52, 53
12, 82187, Note_off_c, 3, 52, 64
12, 82292, Note_on_c, 3, 50, 57
12, 82439, Note_off_c, 3, 50, 64
12, 82543, Note_on_c, 3, 48, 54
12, 82680, Note_off_c, 3, 48, 64
12, 82777, Note_on_c, 3, 45, 59
12, 82913, Note_off_c, 3, 45, 64
12, 83018, Note_on_c, 3, 43, 64
12, 83159, Note_off_c, 3, 43, 64
12, 83260, Note_on_c, 3, 41, 60
12, 83388, Note_off_c, 3, 41, 64
12, 83495, Note_on_c, 3, 40, 61
12, 83618, Note_off_c, 3, 40, 64
12, 83737, Note_on_c, 3, 38, 59
12, 83852, Note_off_c, 3, 38, 64
12, 83983, Note_on_c, 3, 40, 63
12, 84114, Note_off_c, 3, 40, 64
12, 84219, Note_on_c, 3, 41, 66
12, 84337, Note_off_c, 3, 41, 64
12, 84464, Note_on_c, 3, 43, 58
12, 84821, Note_off_c, 3, 43, 64
12, 84936, Note_on_c, 3, 60, 45
12, 85136, Note_off_c, 3, 60, 64
12, 85182, Note_on_c, 3, 60, 55
12, 85322, Note_off_c, 3, 60, 64
12, 85433, Note_on_c, 3, 60, 53
12, 85843, Note_off_c, 3, 60, 64
12, 85909, Note_on_c, 3, 55, 50
12, 86094, Note_off_c, 3, 55, 64
12, 86157, Note_on_c, 3, 55, 42
12, 86308, Note_off_c, 3, 55, 64
12, 86386, Note_on_c, 3, 57, 50
12, 86782, Note_off_c, 3, 57, 64
12, 86861, Note_on_c, 3, 57, 45
12, 87039, Note_off_c, 3, 57, 64
12, 87109, Note_on_c, 3, 57, 44
12, 87272, Note_off_c, 3, 57, 64
12, 87344, Note_on_c, 3, 59, 48
12, 87738, Note_off_c, 3, 59, 64
12, 87815, Note_on_c, 3, 60, 51
12, 87993, Note_off_c, 3, 60, 64
12, 88069, Note_on_c, 3, 60, 57
12, 88219, Note_off_c, 3, 60, 64
12, 88313, Note_on_c, 3, 55, 50
12, 88477, Note_off_c, 3, 55, 64
12, 88546, Note_on_c, 3, 53, 45
12, 88676, Note_off_c, 3, 53, 64
12, 88783, Note_on_c, 3, 52, 53
12, 88905, Note_off_c, 3, 52, 64
12, 89000, Note_on_c, 3, 55, 50
12, 89134, Note_off_c, 3, 55, 64
12, 89256, Note_on_c, 3, 48, 48
12, 89700, Note_off_c, 3, 48, 64
12, 89738, Note_on_c, 3, 60, 51
12, 89931, Note_off_c, 3, 60, 64
12, 89967, Note_on_c, 3, 60, 50
12, 90129, Note_off_c, 3, 60, 64
12, 90212, Note_on_c, 3, 60, 63
12, 90373, Note_off_c, 3, 60, 64
12, 90451, Note_on_c, 3, 59, 52
12, 90610, Note_off_c, 3, 59, 64
12, 90715, Note_on_c, 3, 57, 51
12, 90834, Note_off_c, 3, 57, 64
12, 90928, Note_on_c, 3, 55, 57
12, 91075, Note_off_c, 3, 55, 64
12, 91191, Note_on_c, 3, 53, 52
12, 91371, Note_off_c, 3, 53, 64
12, 91435, Note_on_c, 3, 52, 60
12, 91517, Note_off_c, 3, 52, 64
12, 91544, Note_on_c, 3, 53, 74
12, 91613, Note_off_c, 3, 53, 64
12, 91669, Note_on_c, 3, 55, 66
12, 91783, Note_off_c, 3, 55, 64
12, 91901, Note_on_c, 3, 43, 57
12, 92037, Note_off_c, 3, 43, 64
12, 92160, Note_on_c, 3, 48, 47
12, 92545, Note_off_c, 3, 48, 64
12, 108002, Note_on_c, 3, 55, 78
12, 108079, Note_off_c, 3, 55, 64
12, 108224, Note_on_c, 3, 48, 62
12, 108306, Note_off_c, 3, 48, 64
12, 108462, Note_on_c, 3, 43, 74
12, 108622, Note_off_c, 3, 43, 64
12, 108702, Note_on_c, 3, 55, 78
12, 108784, Note_off_c, 3, 55, 64
12, 108943, Note_on_c, 3, 53, 66
12, 109031, Note_off_c, 3, 53, 64
12, 109179, Note_on_c, 3, 52, 68
12, 109262, Note_off_c, 3, 52, 64
12, 109424, Note_on_c, 3, 57, 82
12, 109539, Note_off_c, 3, 57, 64
12, 109660, Note_on_c, 3, 55, 68
12, 109764, Note_off_c, 3, 55, 64
12, 109902, Note_on_c, 3, 53, 70
12, 109998, Note_off_c, 3, 53, 64
12, 110144, Note_on_c, 3, 52, 70
12, 110232, Note_off_c, 3, 52, 64
12, 110381, Note_on_c, 3, 50, 72
12, 110482, Note_off_c, 3, 50, 64
12, 110612, Note_on_c, 3, 58, 72
12, 110704, Note_off_c, 3, 58, 64
12, 110851, Note_on_c, 3, 57, 80
12, 110954, Note_off_c, 3, 57, 64
12, 111097, Note_on_c, 3, 45, 80
12, 111182, Note_off_c, 3, 45, 64
12, 111349, Note_on_c, 3, 50, 80
12, 111453, Note_off_c, 3, 50, 64
12, 111581, Note_on_c, 3, 48, 63
12, 111677, Note_off_c, 3, 48, 64
12, 111824, Note_on_c, 3, 47, 70
12, 111924, Note_off_c, 3, 47, 64
12, 112055, Note_on_c, 3, 43, 72
12, 112138, Note_off_c, 3, 43, 64
12, 112304, Note_on_c, 3, 48, 85
12, 112403, Note_off_c, 3, 48, 64
12, 112527, Note_on_c, 3, 47, 70
12, 112635, Note_off_c, 3, 47, 64
12, 112769, Note_on_c, 3, 45, 70
12, 112857, Note_off_c, 3, 45, 64
12, 113012, Note_on_c, 3, 57, 72
12, 113096, Note_off_c, 3, 57, 64
12, 113266, Note_on_c, 3, 59, 82
12, 113365, Note_off_c, 3, 59, 64
12, 113498, Note_on_c, 3, 57, 68
12, 113595, Note_off_c, 3, 57, 64
12, 113739, Note_on_c, 3, 56, 63
12, 113836, Note_off_c, 3, 56, 64
12, 113982, Note_on_c, 3, 52, 68
12, 114061, Note_off_c, 3, 52, 64
12, 114215, Note_on_c, 3, 57, 76
12, 114308, Note_off_c, 3, 57, 64
12, 114451, Note_on_c, 3, 53, 76
12, 114537, Note_off_c, 3, 53, 64
12, 114703, Note_on_c, 3, 50, 78
12, 114786, Note_off_c, 3, 50, 64
12, 114939, Note_on_c, 3, 52, 78
12, 115018, Note_off_c, 3, 52, 64
12, 115185, Note_on_c, 3, 45, 85
12, 115310, Note_off_c, 3, 45, 64
12, 115430, Note_on_c, 3, 52, 72
12, 115516, Note_off_c, 3, 52, 64
12, 115668, Note_on_c, 3, 57, 85
12, 115765, Note_off_c, 3, 57, 64
12, 115902, Note_on_c, 3, 55, 66
12, 115992, Note_off_c, 3, 55, 64
12, 116154, Note_on_c, 3, 53, 80
12, 116278, Note_off_c, 3, 53, 64
12, 116393, Note_on_c, 3, 52, 57
12, 116481, Note_off_c, 3, 52, 64
12, 116619, Note_on_c, 3, 53, 68
12, 116714, Note_off_c, 3, 53, 64
12, 116847, Note_on_c, 3, 50, 66
12, 116935, Note_off_c, 3, 50, 64
12, 117095, Note_on_c, 3, 55, 72
12, 117266, Note_off_c, 3, 55, 64
12, 117347, Note_on_c, 3, 57, 72
12, 117455, Note_off_c, 3, 57, 64
12, 117465, Note_on_c, 3, 53, 57
12, 117547, Note_off_c, 3, 53, 64
12, 117593, Note_on_c, 3, 57, 80
12, 117698, Note_on_c, 3, 55, 64
12, 117724, Note_off_c, 3, 57, 64
12, 117813, Note_on_c, 3, 53, 54
12, 117822, Note_off_c, 3, 55, 64
12, 117928, Note_off_c, 3, 53, 64
12, 117928, Note_on_c, 3, 52, 57
12, 118013, Note_off_c, 3, 52, 64
12, 118056, Note_on_c, 3, 57, 64
12, 118143, Note_off_c, 3, 57, 64
12, 118303, Note_on_c, 3, 55, 68
12, 118391, Note_off_c, 3, 55, 64
12, 118542, Note_on_c, 3, 57, 66
12, 118647, Note_off_c, 3, 57, 64
12, 118776, Note_on_c, 3, 53, 61
12, 118856, Note_off_c, 3, 53, 64
12, 119008, Note_on_c, 3, 59, 70
12, 119138, Note_off_c, 3, 59, 64
12, 119262, Note_on_c, 3, 60, 80
12, 119367, Note_off_c, 3, 60, 64
12, 119370, Note_on_c, 3, 57, 68
12, 119453, Note_off_c, 3, 57, 64
12, 119505, Note_on_c, 3, 60, 78
12, 119613, Note_on_c, 3, 59, 70
12, 119636, Note_off_c, 3, 60, 64
12, 119720, Note_on_c, 3, 57, 58
12, 119727, Note_off_c, 3, 59, 64
12, 119831, Note_off_c, 3, 57, 64
12, 119832, Note_on_c, 3, 55, 58
12, 119903, Note_off_c, 3, 55, 64
12, 119969, Note_on_c, 3, 60, 66
12, 120057, Note_off_c, 3, 60, 64
12, 120204, Note_on_c, 3, 55, 63
12, 120303, Note_off_c, 3, 55, 64
12, 120448, Note_on_c, 3, 52, 64
12, 120552, Note_off_c, 3, 52, 64
12, 120693, Note_on_c, 3, 48, 59
12, 120798, Note_off_c, 3, 48, 64
12, 120941, Note_on_c, 3, 53, 80
12, 121046, Note_off_c, 3, 53, 64
12, 121174, Note_on_c, 3, 52, 68
12, 121288, Note_off_c, 3, 52, 64
12, 121409, Note_on_c, 3, 50, 66
12, 121511, Note_off_c, 3, 50, 64
12, 121641, Note_on_c, 3, 53, 72
12, 121756, Note_off_c, 3, 53, 64
12, 121894, Note_on_c, 3, 52, 78
12, 122014, Note_off_c, 3, 52, 64
12, 122137, Note_on_c, 3, 53, 85
12, 122238, Note_off_c, 3, 53, 64
12, 122382, Note_on_c, 3, 55, 80
12, 122477, Note_off_c, 3, 55, 64
12, 122623, Note_on_c, 3, 43, 80
12, 122718, Note_off_c, 3, 43, 64
12, 122873, Note_on_c, 3, 36, 80
12, 123219, Note_off_c, 3, 36, 64
12, 123219, End_track
13, 0, Start_track
13, 0, Title_t, "Oboe1"
13, 0, Program_c, 4, 68
13, 0, Control_c, 4, 7, 100
13, 15834, Note_on_c, 4, 71, 68
13, 15908, Note_off_c, 4, 71, 64
13, 16064, Note_on_c, 4, 72, 66
13, 16142, Note_off_c, 4, 72, 64
13, 16325, Note_on_c, 4, 74, 80
13, 16526, Note_off_c, 4, 74, 64
13, 16550, Note_on_c, 4, 76, 70
13, 16619, Note_off_c, 4, 76, 64
13, 16645, Note_on_c, 4, 72, 64
13, 16711, Note_off_c, 4, 72, 64
13, 16780, Note_on_c, 4, 74, 80
13, 16859, Note_off_c, 4, 74, 64
13, 17025, Note_on_c, 4, 82, 80
13, 17107, Note_off_c, 4, 82, 64
13, 17273, Note_on_c, 4, 74, 82
13, 17321, Note_on_c, 4, 73, 66
13, 17326, Note_off_c, 4, 74, 64
13, 17366, Note_on_c, 4, 74, 76
13, 17369, Note_off_c, 4, 73, 64
13, 17409, Note_on_c, 4, 73, 60
13, 17424, Note_off_c, 4, 74, 64
13, 17501, Note_off_c, 4, 73, 64
13, 17504, Note_on_c, 4, 71, 76
13, 17595, Note_off_c, 4, 71, 64
13, 17611, Note_on_c, 4, 69, 56
13, 17684, Note_off_c, 4, 69, 64
13, 17730, Note_on_c, 4, 71, 60
13, 17847, Note_off_c, 4, 71, 64
13, 17850, Note_on_c, 4, 73, 57
13, 17943, Note_off_c, 4, 73, 64
13, 17975, Note_on_c, 4, 74, 58
13, 18079, Note_off_c, 4, 74, 64
13, 18086, Note_on_c, 4, 76, 68
13, 18171, Note_off_c, 4, 76, 64
13, 18207, Note_on_c, 4, 77, 85
13, 18393, Note_off_c, 4, 77, 64
13, 18457, Note_on_c, 4, 76, 53
13, 18547, Note_off_c, 4, 76, 64
13, 18563, Note_on_c, 4, 74, 58
13, 18637, Note_off_c, 4, 74, 64
13, 18702, Note_on_c, 4, 76, 70
13, 18766, Note_off_c, 4, 76, 64
13, 18813, Note_on_c, 4, 73, 53
13, 18901, Note_off_c, 4, 73, 64
13, 18941, Note_on_c, 4, 81, 85
13, 19023, Note_off_c, 4, 81, 64
13, 19200, Note_on_c, 4, 79, 66
13, 19244, Note_on_c, 4, 77, 76
13, 19261, Note_off_c, 4, 79, 64
13, 19290, Note_off_c, 4, 77, 64
13, 19294, Note_on_c, 4, 79, 74
13, 19336, Note_on_c, 4, 77, 72
13, 19365, Note_off_c, 4, 79, 64
13, 19414, Note_off_c, 4, 77, 64
13, 19437, Note_on_c, 4, 76, 78
13, 19545, Note_on_c, 4, 74, 70
13, 19546, Note_off_c, 4, 76, 64
13, 19630, Note_off_c, 4, 74, 64
13, 19676, Note_on_c, 4, 79, 80
13, 19779, Note_on_c, 4, 77, 60
13, 19789, Note_off_c, 4, 79, 64
13, 19908, Note_off_c, 4, 77, 64
13, 19908, Note_on_c, 4, 76, 57
13, 19991, Note_off_c, 4, 76, 64
13, 20004, Note_on_c, 4, 74, 58
13, 20070, Note_off_c, 4, 74, 64
13, 20142, Note_on_c, 4, 76, 80
13, 20335, Note_off_c, 4, 76, 64
13, 20387, Note_on_c, 4, 77, 66
13, 20468, Note_off_c, 4, 77, 64
13, 20494, Note_on_c, 4, 74, 63
13, 20558, Note_off_c, 4, 74, 64
13, 20616, Note_on_c, 4, 76, 64
13, 20687, Note_off_c, 4, 76, 64
13, 20724, Note_on_c, 4, 72, 59
13, 20803, Note_off_c, 4, 72, 64
13, 20859, Note_on_c, 4, 77, 82
13, 20953, Note_off_c, 4, 77, 64
13, 21104, Note_on_c, 4, 76, 85
13, 21150, Note_on_c, 4, 74, 63
13, 21156, Note_off_c, 4, 76, 64
13, 21198, Note_on_c, 4, 76, 72
13, 21208, Note_off_c, 4, 74, 64
13, 21241, Note_on_c, 4, 74, 64
13, 21252, Note_off_c, 4, 76, 64
13, 21326, Note_off_c, 4, 74, 64
13, 21336, Note_on_c, 4, 72, 70
13, 21417, Note_off_c, 4, 72, 64
13, 21451, Note_on_c, 4, 71, 66
13, 21522, Note_off_c, 4, 71, 64
13, 21591, Note_on_c, 4, 76, 85
13, 21689, Note_on_c, 4, 74, 78
13, 21712, Note_off_c, 4, 76, 64
13, 21801, Note_off_c, 4, 74, 64
13, 21811, Note_on_c, 4, 72, 55
13, 21918, Note_off_c, 4, 72, 64
13, 21928, Note_on_c, 4, 71, 46
13, 21998, Note_off_c, 4, 71, 64
13, 22059, Note_on_c, 4, 74, 78
13, 22170, Note_on_c, 4, 72, 68
13, 22196, Note_off_c, 4, 74, 64
13, 22291, Note_on_c, 4, 71, 57
13, 22299, Note_off_c, 4, 72, 64
13, 22392, Note_off_c, 4, 71, 64
13, 22406, Note_on_c, 4, 69, 60
13, 22491, Note_off_c, 4, 69, 64
13, 22537, Note_on_c, 4, 71, 80
13, 22615, Note_off_c, 4, 71, 64
13, 22795, Note_on_c, 4, 68, 63
13, 22867, Note_off_c, 4, 68, 64
13, 23037, Note_on_c, 4, 69, 74
13, 23345, Note_off_c, 4, 69, 64
13, 23518, Note_on_c, 4, 72, 64
13, 23597, Note_off_c, 4, 72, 64
13, 23749, Note_on_c, 4, 76, 80
13, 23829, Note_off_c, 4, 76, 64
13, 23987, Note_on_c, 4, 69, 57
13, 24208, Note_off_c, 4, 69, 64
13, 24233, Note_on_c, 4, 71, 80
13, 24318, Note_off_c, 4, 71, 64
13, 24331, Note_on_c, 4, 72, 70
13, 24415, Note_off_c, 4, 72, 64
13, 24454, Note_on_c, 4, 74, 58
13, 24553, Note_off_c, 4, 74, 64
13, 24573, Note_on_c, 4, 76, 76
13, 24649, Note_off_c, 4, 76, 64
13, 24698, Note_on_c, 4, 77, 89
13, 25074, Note_off_c, 4, 77, 64
13, 25192, Note_on_c, 4, 71, 60
13, 25277, Note_off_c, 4, 71, 64
13, 25427, Note_on_c, 4, 76, 68
13, 25502, Note_off_c, 4, 76, 64
13, 25670, Note_on_c, 4, 79, 82
13, 25747, Note_off_c, 4, 79, 64
13, 25908, Note_on_c, 4, 72, 66
13, 26126, Note_off_c, 4, 72, 64
13, 26148, Note_on_c, 4, 74, 80
13, 26253, Note_off_c, 4, 74, 64
13, 26259, Note_on_c, 4, 76, 70
13, 26347, Note_off_c, 4, 76, 64
13, 26377, Note_on_c, 4, 77, 78
13, 26480, Note_off_c, 4, 77, 64
13, 26491, Note_on_c, 4, 79, 78
13, 26570, Note_off_c, 4, 79, 64
13, 26608, Note_on_c, 4, 81, 80
13, 27051, Note_off_c, 4, 81, 64
13, 27113, Note_on_c, 4, 79, 80
13, 27188, Note_off_c, 4, 79, 64
13, 27216, Note_on_c, 4, 77, 76
13, 27298, Note_off_c, 4, 77, 64
13, 27331, Note_on_c, 4, 76, 70
13, 27414, Note_off_c, 4, 76, 64
13, 27446, Note_on_c, 4, 74, 68
13, 27522, Note_off_c, 4, 74, 64
13, 27580, Note_on_c, 4, 79, 85
13, 27668, Note_off_c, 4, 79, 64
13, 27819, Note_on_c, 4, 70, 63
13, 28009, Note_off_c, 4, 70, 64
13, 28062, Note_on_c, 4, 72, 68
13, 28128, Note_off_c, 4, 72, 64
13, 28169, Note_on_c, 4, 69, 58
13, 28247, Note_off_c, 4, 69, 64
13, 28297, Note_on_c, 4, 70, 61
13, 28385, Note_off_c, 4, 70, 64
13, 28548, Note_on_c, 4, 79, 82
13, 28638, Note_off_c, 4, 79, 64
13, 28791, Note_on_c, 4, 70, 78
13, 28902, Note_on_c, 4, 69, 70
13, 28923, Note_off_c, 4, 70, 64
13, 29014, Note_on_c, 4, 67, 57
13, 29020, Note_off_c, 4, 69, 64
13, 29126, Note_off_c, 4, 67, 64
13, 29128, Note_on_c, 4, 65, 57
13, 29198, Note_off_c, 4, 65, 64
13, 29263, Note_on_c, 4, 72, 87
13, 29380, Note_on_c, 4, 71, 66
13, 29410, Note_off_c, 4, 72, 64
13, 29488, Note_off_c, 4, 71, 64
13, 29488, Note_on_c, 4, 69, 58
13, 29581, Note_off_c, 4, 69, 64
13, 29603, Note_on_c, 4, 67, 52
13, 29695, Note_off_c, 4, 67, 64
13, 29738, Note_on_c, 4, 79, 85
13, 29831, Note_off_c, 4, 79, 64
13, 29977, Note_on_c, 4, 81, 82
13, 30065, Note_off_c, 4, 81, 64
13, 30225, Note_on_c, 4, 77, 89
13, 30270, Note_off_c, 4, 77, 64
13, 30270, Note_on_c, 4, 76, 60
13, 30312, Note_on_c, 4, 77, 76
13, 30320, Note_off_c, 4, 76, 64
13, 30355, Note_on_c, 4, 76, 58
13, 30371, Note_off_c, 4, 77, 64
13, 30453, Note_off_c, 4, 76, 64
13, 30453, Note_on_c, 4, 74, 76
13, 30525, Note_off_c, 4, 74, 64
13, 30558, Note_on_c, 4, 72, 66
13, 30625, Note_off_c, 4, 72, 64
13, 30709, Note_on_c, 4, 72, 64
13, 31040, Note_off_c, 4, 72, 64
13, 46544, Note_on_c, 4, 67, 57
13, 46691, Note_off_c, 4, 67, 64
13, 46791, Note_on_c, 4, 69, 62
13, 46876, Note_off_c, 4, 69, 64
13, 46899, Note_on_c, 4, 71, 70
13, 46987, Note_off_c, 4, 71, 64
13, 47022, Note_on_c, 4, 72, 70
13, 47114, Note_off_c, 4, 72, 64
13, 47133, Note_on_c, 4, 74, 66
13, 47197, Note_off_c, 4, 74, 64
13, 47246, Note_on_c, 4, 76, 68
13, 47664, Note_off_c, 4, 76, 64
13, 47749, Note_on_c, 4, 74, 63
13, 47920, Note_off_c, 4, 74, 64
13, 48000, Note_on_c, 4, 76, 68
13, 48048, Note_on_c, 4, 74, 59
13, 48050, Note_off_c, 4, 76, 64
13, 48096, Note_on_c, 4, 76, 63
13, 48100, Note_off_c, 4, 74, 64
13, 48136, Note_on_c, 4, 74, 60
13, 48142, Note_off_c, 4, 76, 64
13, 48216, Note_off_c, 4, 74, 64
13, 48228, Note_on_c, 4, 72, 66
13, 48322, Note_off_c, 4, 72, 64
13, 48322, Note_on_c, 4, 71, 54
13, 48410, Note_off_c, 4, 71, 64
13, 48450, Note_on_c, 4, 72, 68
13, 48568, Note_on_c, 4, 74, 64
13, 48583, Note_off_c, 4, 72, 64
13, 48653, Note_off_c, 4, 74, 64
13, 48704, Note_on_c, 4, 76, 78
13, 48817, Note_on_c, 4, 74, 57
13, 48819, Note_off_c, 4, 76, 64
13, 48897, Note_off_c, 4, 74, 64
13, 48938, Note_on_c, 4, 77, 70
13, 49054, Note_on_c, 4, 76, 57
13, 49061, Note_off_c, 4, 77, 64
13, 49136, Note_off_c, 4, 76, 64
13, 49186, Note_on_c, 4, 81, 72
13, 49300, Note_on_c, 4, 79, 66
13, 49324, Note_off_c, 4, 81, 64
13, 49386, Note_off_c, 4, 79, 64
13, 49421, Note_on_c, 4, 77, 70
13, 49535, Note_on_c, 4, 76, 59
13, 49556, Note_off_c, 4, 77, 64
13, 49607, Note_off_c, 4, 76, 64
13, 49666, Note_on_c, 4, 74, 66
13, 49779, Note_on_c, 4, 72, 58
13, 49789, Note_off_c, 4, 74, 64
13, 49853, Note_off_c, 4, 72, 64
13, 49909, Note_on_c, 4, 74, 68
13, 50021, Note_on_c, 4, 76, 63
13, 50040, Note_off_c, 4, 74, 64
13, 50113, Note_off_c, 4, 76, 64
13, 50148, Note_on_c, 4, 77, 76
13, 50256, Note_on_c, 4, 76, 57
13, 50273, Note_off_c, 4, 77, 64
13, 50347, Note_off_c, 4, 76, 64
13, 50383, Note_on_c, 4, 79, 70
13, 50491, Note_on_c, 4, 77, 66
13, 50505, Note_off_c, 4, 79, 64
13, 50567, Note_off_c, 4, 77, 64
13, 50617, Note_on_c, 4, 76, 60
13, 50738, Note_on_c, 4, 74, 61
13, 50748, Note_off_c, 4, 76, 64
13, 50829, Note_off_c, 4, 74, 64
13, 50865, Note_on_c, 4, 76, 68
13, 50969, Note_on_c, 4, 77, 66
13, 50986, Note_off_c, 4, 76, 64
13, 51049, Note_off_c, 4, 77, 64
13, 51096, Note_on_c, 4, 79, 68
13, 51225, Note_off_c, 4, 79, 64
13, 51225, Note_on_c, 4, 77, 53
13, 51293, Note_off_c, 4, 77, 64
13, 51349, Note_on_c, 4, 81, 78
13, 51461, Note_on_c, 4, 79, 68
13, 51486, Note_off_c, 4, 81, 64
13, 51543, Note_off_c, 4, 79, 64
13, 51587, Note_on_c, 4, 77, 68
13, 51702, Note_off_c, 4, 77, 64
13, 51702, Note_on_c, 4, 76, 57
13, 51782, Note_off_c, 4, 76, 64
13, 51823, Note_on_c, 4, 79, 72
13, 51929, Note_on_c, 4, 78, 59
13, 51934, Note_off_c, 4, 79, 64
13, 52000, Note_off_c, 4, 78, 64
13, 52052, Note_on_c, 4, 76, 59
13, 52170, Note_off_c, 4, 76, 64
13, 52173, Note_on_c, 4, 74, 60
13, 52250, Note_off_c, 4, 74, 64
13, 52296, Note_on_c, 4, 76, 78
13, 52402, Note_off_c, 4, 76, 64
13, 52409, Note_on_c, 4, 74, 63
13, 52484, Note_off_c, 4, 74, 64
13, 52534, Note_on_c, 4, 72, 63
13, 52650, Note_on_c, 4, 71, 60
13, 52654, Note_off_c, 4, 72, 64
13, 52717, Note_off_c, 4, 71, 64
13, 52777, Note_on_c, 4, 69, 63
13, 52857, Note_off_c, 4, 69, 64
13, 52900, Note_on_c, 4, 67, 58
13, 52969, Note_off_c, 4, 67, 64
13, 53031, Note_on_c, 4, 83, 70
13, 53114, Note_off_c, 4, 83, 64
13, 53266, Note_on_c, 4, 79, 68
13, 53365, Note_off_c, 4, 79, 64
13, 53509, Note_on_c, 4, 81, 72
13, 53574, Note_off_c, 4, 81, 64
13, 53616, Note_on_c, 4, 78, 59
13, 53686, Note_off_c, 4, 78, 64
13, 53748, Note_on_c, 4, 79, 68
13, 54066, Note_off_c, 4, 79, 64
13, 54216, Note_on_c, 4, 67, 57
13, 54377, Note_off_c, 4, 67, 64
13, 54471, Note_on_c, 4, 69, 60
13, 54553, Note_off_c, 4, 69, 64
13, 54579, Note_on_c, 4, 71, 63
13, 54654, Note_off_c, 4, 71, 64
13, 54704, Note_on_c, 4, 72, 70
13, 54788, Note_off_c, 4, 72, 64
13, 54814, Note_on_c, 4, 74, 70
13, 54886, Note_off_c, 4, 74, 64
13, 54945, Note_on_c, 4, 76, 64
13, 55356, Note_off_c, 4, 76, 64
13, 55421, Note_on_c, 4, 74, 68
13, 55610, Note_off_c, 4, 74, 64
13, 55673, Note_on_c, 4, 76, 64
13, 55712, Note_on_c, 4, 74, 64
13, 55722, Note_off_c, 4, 76, 64
13, 55758, Note_on_c, 4, 76, 66
13, 55765, Note_off_c, 4, 74, 64
13, 55800, Note_on_c, 4, 74, 66
13, 55814, Note_off_c, 4, 76, 64
13, 55902, Note_off_c, 4, 74, 64
13, 55915, Note_on_c, 4, 72, 63
13, 56013, Note_off_c, 4, 72, 64
13, 56029, Note_on_c, 4, 71, 51
13, 56094, Note_off_c, 4, 71, 64
13, 56140, Note_on_c, 4, 72, 70
13, 56251, Note_on_c, 4, 74, 66
13, 56267, Note_off_c, 4, 72, 64
13, 56349, Note_off_c, 4, 74, 64
13, 56386, Note_on_c, 4, 76, 80
13, 56488, Note_off_c, 4, 76, 64
13, 56494, Note_on_c, 4, 74, 57
13, 56572, Note_off_c, 4, 74, 64
13, 56618, Note_on_c, 4, 77, 76
13, 56726, Note_off_c, 4, 77, 64
13, 56732, Note_on_c, 4, 76, 55
13, 56811, Note_off_c, 4, 76, 64
13, 56863, Note_on_c, 4, 81, 68
13, 56975, Note_on_c, 4, 79, 68
13, 56998, Note_off_c, 4, 81, 64
13, 57047, Note_off_c, 4, 79, 64
13, 57097, Note_on_c, 4, 77, 68
13, 57214, Note_off_c, 4, 77, 64
13, 57217, Note_on_c, 4, 76, 57
13, 57293, Note_off_c, 4, 76, 64
13, 57349, Note_on_c, 4, 74, 72
13, 57462, Note_on_c, 4, 72, 47
13, 57466, Note_off_c, 4, 74, 64
13, 57540, Note_off_c, 4, 72, 64
13, 57586, Note_on_c, 4, 74, 64
13, 57699, Note_on_c, 4, 76, 62
13, 57711, Note_off_c, 4, 74, 64
13, 57773, Note_off_c, 4, 76, 64
13, 57826, Note_on_c, 4, 77, 70
13, 57928, Note_off_c, 4, 77, 64
13, 57934, Note_on_c, 4, 76, 48
13, 58010, Note_off_c, 4, 76, 64
13, 58064, Note_on_c, 4, 79, 68
13, 58175, Note_on_c, 4, 77, 60
13, 58185, Note_off_c, 4, 79, 64
13, 58255, Note_off_c, 4, 77, 64
13, 58303, Note_on_c, 4, 76, 55
13, 58424, Note_off_c, 4, 76, 64
13, 58425, Note_on_c, 4, 74, 53
13, 58506, Note_off_c, 4, 74, 64
13, 58549, Note_on_c, 4, 76, 64
13, 58653, Note_on_c, 4, 77, 60
13, 58671, Note_off_c, 4, 76, 64
13, 58729, Note_off_c, 4, 77, 64
13, 58776, Note_on_c, 4, 79, 68
13, 58872, Note_off_c, 4, 79, 64
13, 58882, Note_on_c, 4, 77, 58
13, 58971, Note_off_c, 4, 77, 64
13, 59018, Note_on_c, 4, 81, 78
13, 59122, Note_on_c, 4, 79, 64
13, 59131, Note_off_c, 4, 81, 64
13, 59191, Note_off_c, 4, 79, 64
13, 59257, Note_on_c, 4, 77, 66
13, 59367, Note_off_c, 4, 77, 64
13, 59371, Note_on_c, 4, 76, 44
13, 59445, Note_off_c, 4, 76, 64
13, 59492, Note_on_c, 4, 79, 70
13, 59600, Note_off_c, 4, 79, 64
13, 59603, Note_on_c, 4, 78, 48
13, 59676, Note_off_c, 4, 78, 64
13, 59738, Note_on_c, 4, 76, 60
13, 59845, Note_off_c, 4, 76, 64
13, 59855, Note_on_c, 4, 74, 56
13, 59930, Note_off_c, 4, 74, 64
13, 59976, Note_on_c, 4, 76, 70
13, 60088, Note_off_c, 4, 76, 64
13, 60090, Note_on_c, 4, 74, 57
13, 60157, Note_off_c, 4, 74, 64
13, 60218, Note_on_c, 4, 72, 59
13, 60320, Note_off_c, 4, 72, 64
13, 60326, Note_on_c, 4, 71, 61
13, 60402, Note_off_c, 4, 71, 64
13, 60461, Note_on_c, 4, 69, 68
13, 60528, Note_off_c, 4, 69, 64
13, 60576, Note_on_c, 4, 67, 64
13, 60633, Note_off_c, 4, 67, 64
13, 60702, Note_on_c, 4, 83, 78
13, 60782, Note_off_c, 4, 83, 64
13, 60944, Note_on_c, 4, 79, 70
13, 61055, Note_off_c, 4, 79, 64
13, 61188, Note_on_c, 4, 81, 68
13, 61272, Note_off_c, 4, 81, 64
13, 61292, Note_on_c, 4, 78, 57
13, 61351, Note_off_c, 4, 78, 64
13, 61425, Note_on_c, 4, 79, 66
13, 61708, Note_off_c, 4, 79, 64
13, 77272, Note_on_c, 4, 74, 57
13, 77461, Note_off_c, 4, 74, 64
13, 77500, Note_on_c, 4, 71, 57
13, 77616, Note_on_c, 4, 72, 64
13, 77622, Note_off_c, 4, 71, 64
13, 77699, Note_off_c, 4, 72, 64
13, 77740, Note_on_c, 4, 74, 63
13, 77844, Note_off_c, 4, 74, 64
13, 77857, Note_on_c, 4, 76, 64
13, 77936, Note_off_c, 4, 76, 64
13, 77976, Note_on_c, 4, 77, 61
13, 78426, Note_off_c, 4, 77, 64
13, 78479, Note_on_c, 4, 76, 49
13, 78637, Note_off_c, 4, 76, 64
13, 78722, Note_on_c, 4, 77, 58
13, 78830, Note_on_c, 4, 79, 61
13, 78855, Note_off_c, 4, 77, 64
13, 78905, Note_off_c, 4, 79, 64
13, 78944, Note_on_c, 4, 81, 66
13, 79062, Note_on_c, 4, 79, 51
13, 79068, Note_off_c, 4, 81, 64
13, 79136, Note_off_c, 4, 79, 64
13, 79186, Note_on_c, 4, 82, 59
13, 79291, Note_on_c, 4, 81, 62
13, 79304, Note_off_c, 4, 82, 64
13, 79382, Note_off_c, 4, 81, 64
13, 79427, Note_on_c, 4, 79, 57
13, 79543, Note_on_c, 4, 77, 60
13, 79549, Note_off_c, 4, 79, 64
13, 79628, Note_off_c, 4, 77, 64
13, 79664, Note_on_c, 4, 79, 59
13, 79784, Note_on_c, 4, 77, 56
13, 79800, Note_off_c, 4, 79, 64
13, 79870, Note_off_c, 4, 77, 64
13, 79919, Note_on_c, 4, 76, 64
13, 80026, Note_off_c, 4, 76, 64
13, 80030, Note_on_c, 4, 77, 68
13, 80111, Note_off_c, 4, 77, 64
13, 80157, Note_on_c, 4, 79, 66
13, 80269, Note_on_c, 4, 77, 60
13, 80295, Note_off_c, 4, 79, 64
13, 80358, Note_off_c, 4, 77, 64
13, 80388, Note_on_c, 4, 79, 63
13, 80492, Note_off_c, 4, 79, 64
13, 80494, Note_on_c, 4, 76, 60
13, 80584, Note_off_c, 4, 76, 64
13, 80622, Note_on_c, 4, 79, 74
13, 80740, Note_on_c, 4, 77, 66
13, 80774, Note_off_c, 4, 79, 64
13, 80875, Note_on_c, 4, 76, 54
13, 80897, Note_off_c, 4, 77, 64
13, 80986, Note_on_c, 4, 74, 57
13, 80995, Note_off_c, 4, 76, 64
13, 81094, Note_off_c, 4, 74, 64
13, 81116, Note_on_c, 4, 77, 54
13, 82600, Note_off_c, 4, 77, 64
13, 82654, Note_on_c, 4, 74, 55
13, 82782, Note_on_c, 4, 76, 57
13, 82795, Note_off_c, 4, 74, 64
13, 82894, Note_on_c, 4, 77, 63
13, 82905, Note_off_c, 4, 76, 64
13, 82979, Note_off_c, 4, 77, 64
13, 83016, Note_on_c, 4, 79, 72
13, 83120, Note_off_c, 4, 79, 64
13, 83124, Note_on_c, 4, 77, 47
13, 83217, Note_off_c, 4, 77, 64
13, 83254, Note_on_c, 4, 81, 68
13, 83368, Note_off_c, 4, 81, 64
13, 83372, Note_on_c, 4, 79, 52
13, 83460, Note_off_c, 4, 79, 64
13, 83497, Note_on_c, 4, 82, 62
13, 83603, Note_on_c, 4, 81, 62
13, 83618, Note_off_c, 4, 82, 64
13, 83689, Note_off_c, 4, 81, 64
13, 83729, Note_on_c, 4, 79, 60
13, 83846, Note_off_c, 4, 79, 64
13, 83846, Note_on_c, 4, 82, 63
13, 83941, Note_off_c, 4, 82, 64
13, 83976, Note_on_c, 4, 81, 68
13, 84089, Note_on_c, 4, 79, 64
13, 84105, Note_off_c, 4, 81, 64
13, 84171, Note_off_c, 4, 79, 64
13, 84214, Note_on_c, 4, 77, 63
13, 84334, Note_on_c, 4, 76, 60
13, 84340, Note_off_c, 4, 77, 64
13, 84413, Note_off_c, 4, 76, 64
13, 84456, Note_on_c, 4, 74, 60
13, 84576, Note_on_c, 4, 72, 53
13, 84584, Note_off_c, 4, 74, 64
13, 84651, Note_off_c, 4, 72, 64
13, 84700, Note_on_c, 4, 71, 62
13, 84812, Note_on_c, 4, 69, 59
13, 84827, Note_off_c, 4, 71, 64
13, 84884, Note_off_c, 4, 69, 64
13, 84958, Note_on_c, 4, 67, 60
13, 85149, Note_off_c, 4, 67, 64
13, 85198, Note_on_c, 4, 69, 68
13, 85270, Note_off_c, 4, 69, 64
13, 85306, Note_on_c, 4, 71, 68
13, 85388, Note_off_c, 4, 71, 64
13, 85433, Note_on_c, 4, 72, 68
13, 85511, Note_off_c, 4, 72, 64
13, 85547, Note_on_c, 4, 74, 68
13, 85610, Note_off_c, 4, 74, 64
13, 85678, Note_on_c, 4, 76, 55
13, 86105, Note_off_c, 4, 76, 64
13, 86151, Note_on_c, 4, 74, 56
13, 86336, Note_off_c, 4, 74, 64
13, 86393, Note_on_c, 4, 76, 60
13, 86438, Note_on_c, 4, 74, 68
13, 86455, Note_off_c, 4, 76, 64
13, 86490, Note_on_c, 4, 76, 59
13, 86494, Note_off_c, 4, 74, 64
13, 86529, Note_on_c, 4, 74, 60
13, 86550, Note_off_c, 4, 76, 64
13, 86634, Note_off_c, 4, 74, 64
13, 86640, Note_on_c, 4, 72, 64
13, 86746, Note_off_c, 4, 72, 64
13, 86746, Note_on_c, 4, 71, 52
13, 86831, Note_off_c, 4, 71, 64
13, 86880, Note_on_c, 4, 72, 64
13, 86984, Note_on_c, 4, 74, 64
13, 86988, Note_off_c, 4, 72, 64
13, 87066, Note_off_c, 4, 74, 64
13, 87105, Note_on_c, 4, 76, 66
13, 87218, Note_off_c, 4, 76, 64
13, 87219, Note_on_c, 4, 74, 48
13, 87298, Note_off_c, 4, 74, 64
13, 87339, Note_on_c, 4, 77, 66
13, 87456, Note_on_c, 4, 76, 54
13, 87462, Note_off_c, 4, 77, 64
13, 87529, Note_off_c, 4, 76, 64
13, 87591, Note_on_c, 4, 81, 66
13, 87709, Note_on_c, 4, 79, 63
13, 87735, Note_off_c, 4, 81, 64
13, 87786, Note_off_c, 4, 79, 64
13, 87823, Note_on_c, 4, 77, 59
13, 87940, Note_on_c, 4, 76, 62
13, 87947, Note_off_c, 4, 77, 64
13, 88018, Note_off_c, 4, 76, 64
13, 88070, Note_on_c, 4, 74, 68
13, 88183, Note_on_c, 4, 72, 51
13, 88196, Note_off_c, 4, 74, 64
13, 88261, Note_off_c, 4, 72, 64
13, 88314, Note_on_c, 4, 74, 60
13, 88421, Note_on_c, 4, 76, 60
13, 88431, Note_off_c, 4, 74, 64
13, 88506, Note_off_c, 4, 76, 64
13, 88543, Note_on_c, 4, 77, 68
13, 88657, Note_on_c, 4, 76, 57
13, 88666, Note_off_c, 4, 77, 64
13, 88743, Note_off_c, 4, 76, 64
13, 88789, Note_on_c, 4, 79, 66
13, 88905, Note_on_c, 4, 77, 64
13, 88906, Note_off_c, 4, 79, 64
13, 88980, Note_off_c, 4, 77, 64
13, 89028, Note_on_c, 4, 76, 58
13, 89135, Note_off_c, 4, 76, 64
13, 89142, Note_on_c, 4, 74, 64
13, 89220, Note_off_c, 4, 74, 64
13, 89262, Note_on_c, 4, 76, 66
13, 89373, Note_on_c, 4, 77, 63
13, 89394, Note_off_c, 4, 76, 64
13, 89466, Note_off_c, 4, 77, 64
13, 89504, Note_on_c, 4, 79, 70
13, 89616, Note_off_c, 4, 79, 64
13, 89620, Note_on_c, 4, 77, 55
13, 89698, Note_off_c, 4, 77, 64
13, 89750, Note_on_c, 4, 81, 68
13, 89864, Note_on_c, 4, 79, 64
13, 89877, Note_off_c, 4, 81, 64
13, 89943, Note_off_c, 4, 79, 64
13, 89985, Note_on_c, 4, 77, 68
13, 90099, Note_off_c, 4, 77, 64
13, 90099, Note_on_c, 4, 76, 52
13, 90183, Note_off_c, 4, 76, 64
13, 90229, Note_on_c, 4, 79, 68
13, 90335, Note_on_c, 4, 77, 63
13, 90348, Note_off_c, 4, 79, 64
13, 90418, Note_off_c, 4, 77, 64
13, 90461, Note_on_c, 4, 76, 60
13, 90571, Note_off_c, 4, 76, 64
13, 90581, Note_on_c, 4, 74, 62
13, 90656, Note_off_c, 4, 74, 64
13, 90710, Note_on_c, 4, 76, 70
13, 90818, Note_off_c, 4, 76, 64
13, 90820, Note_on_c, 4, 74, 64
13, 90902, Note_off_c, 4, 74, 64
13, 90951, Note_on_c, 4, 72, 70
13, 91046, Note_on_c, 4, 71, 54
13, 91059, Note_off_c, 4, 72, 64
13, 91132, Note_off_c, 4, 71, 64
13, 91183, Note_on_c, 4, 69, 68
13, 91255, Note_off_c, 4, 69, 64
13, 91291, Note_on_c, 4, 67, 66
13, 91397, Note_off_c, 4, 67, 64
13, 91419, Note_on_c, 4, 79, 74
13, 91524, Note_off_c, 4, 79, 64
13, 91665, Note_on_c, 4, 72, 70
13, 91769, Note_off_c, 4, 72, 64
13, 91910, Note_on_c, 4, 74, 66
13, 91999, Note_off_c, 4, 74, 64
13, 92016, Note_on_c, 4, 71, 59
13, 92078, Note_off_c, 4, 71, 64
13, 92152, Note_on_c, 4, 72, 60
13, 92438, Note_off_c, 4, 72, 64
13, 107994, Note_on_c, 4, 71, 68
13, 108068, Note_off_c, 4, 71, 64
13, 108224, Note_on_c, 4, 72, 66
13, 108302, Note_off_c, 4, 72, 64
13, 108485, Note_on_c, 4, 74, 80
13, 108686, Note_off_c, 4, 74, 64
13, 108710, Note_on_c, 4, 76, 70
13, 108779, Note_off_c, 4, 76, 64
13, 108805, Note_on_c, 4, 72, 64
13, 108871, Note_off_c, 4, 72, 64
13, 108940, Note_on_c, 4, 74, 80
13, 109019, Note_off_c, 4, 74, 64
13, 109185, Note_on_c, 4, 82, 80
13, 109267, Note_off_c, 4, 82, 64
13, 109433, Note_on_c, 4, 74, 82
13, 109481, Note_on_c, 4, 73, 66
13, 109486, Note_off_c, 4, 74, 64
13, 109526, Note_on_c, 4, 74, 76
13, 109529, Note_off_c, 4, 73, 64
13, 109569, Note_on_c, 4, 73, 60
13, 109584, Note_off_c, 4, 74, 64
13, 109661, Note_off_c, 4, 73, 64
13, 109664, Note_on_c, 4, 71, 76
13, 109755, Note_off_c, 4, 71, 64
13, 109771, Note_on_c, 4, 69, 56
13, 109844, Note_off_c, 4, 69, 64
13, 109890, Note_on_c, 4, 71, 60
13, 110007, Note_off_c, 4, 71, 64
13, 110010, Note_on_c, 4, 73, 57
13, 110103, Note_off_c, 4, 73, 64
13, 110135, Note_on_c, 4, 74, 58
13, 110239, Note_off_c, 4, 74, 64
13, 110246, Note_on_c, 4, 76, 68
13, 110331, Note_off_c, 4, 76, 64
13, 110367, Note_on_c, 4, 77, 85
13, 110553, Note_off_c, 4, 77, 64
13, 110617, Note_on_c, 4, 76, 53
13, 110707, Note_off_c, 4, 76, 64
13, 110723, Note_on_c, 4, 74, 58
13, 110797, Note_off_c, 4, 74, 64
13, 110862, Note_on_c, 4, 76, 70
13, 110926, Note_off_c, 4, 76, 64
13, 110973, Note_on_c, 4, 73, 53
13, 111061, Note_off_c, 4, 73, 64
13, 111101, Note_on_c, 4, 81, 85
13, 111183, Note_off_c, 4, 81, 64
13, 111360, Note_on_c, 4, 79, 66
13, 111404, Note_on_c, 4, 77, 76
13, 111421, Note_off_c, 4, 79, 64
13, 111450, Note_off_c, 4, 77, 64
13, 111454, Note_on_c, 4, 79, 74
13, 111496, Note_on_c, 4, 77, 72
13, 111525, Note_off_c, 4, 79, 64
13, 111574, Note_off_c, 4, 77, 64
13, 111597, Note_on_c, 4, 76, 78
13, 111705, Note_on_c, 4, 74, 70
13, 111706, Note_off_c, 4, 76, 64
13, 111790, Note_off_c, 4, 74, 64
13, 111836, Note_on_c, 4, 79, 80
13, 111939, Note_on_c, 4, 77, 60
13, 111949, Note_off_c, 4, 79, 64
13, 112068, Note_off_c, 4, 77, 64
13, 112068, Note_on_c, 4, 76, 57
13, 112151, Note_off_c, 4, 76, 64
13, 112164, Note_on_c, 4, 74, 58
13, 112230, Note_off_c, 4, 74, 64
13, 112302, Note_on_c, 4, 76, 80
13, 112495, Note_off_c, 4, 76, 64
13, 112547, Note_on_c, 4, 77, 66
13, 112628, Note_off_c, 4, 77, 64
13, 112654, Note_on_c, 4, 74, 63
13, 112718, Note_off_c, 4, 74, 64
13, 112776, Note_on_c, 4, 76, 64
13, 112847, Note_off_c, 4, 76, 64
13, 112884, Note_on_c, 4, 72, 59
13, 112963, Note_off_c, 4, 72, 64
13, 113019, Note_on_c, 4, 77, 82
13, 113113, Note_off_c, 4, 77, 64
13, 113264, Note_on_c, 4, 76, 85
13, 113310, Note_on_c, 4, 74, 63
13, 113316, Note_off_c, 4, 76, 64
13, 113358, Note_on_c, 4, 76, 72
13, 113368, Note_off_c, 4, 74, 64
13, 113401, Note_on_c, 4, 74, 64
13, 113412, Note_off_c, 4, 76, 64
13, 113486, Note_off_c, 4, 74, 64
13, 113496, Note_on_c, 4, 72, 70
13, 113577, Note_off_c, 4, 72, 64
13, 113611, Note_on_c, 4, 71, 66
13, 113682, Note_off_c, 4, 71, 64
13, 113751, Note_on_c, 4, 76, 85
13, 113849, Note_on_c, 4, 74, 78
13, 113872, Note_off_c, 4, 76, 64
13, 113961, Note_off_c, 4, 74, 64
13, 113971, Note_on_c, 4, 72, 55
13, 114078, Note_off_c, 4, 72, 64
13, 114088, Note_on_c, 4, 71, 46
13, 114158, Note_off_c, 4, 71, 64
13, 114219, Note_on_c, 4, 74, 78
13, 114330, Note_on_c, 4, 72, 68
13, 114356, Note_off_c, 4, 74, 64
13, 114451, Note_on_c, 4, 71, 57
13, 114459, Note_off_c, 4, 72, 64
13, 114552, Note_off_c, 4, 71, 64
13, 114566, Note_on_c, 4, 69, 60
13, 114651, Note_off_c, 4, 69, 64
13, 114697, Note_on_c, 4, 71, 80
13, 114775, Note_off_c, 4, 71, 64
13, 114955, Note_on_c, 4, 68, 63
13, 115027, Note_off_c, 4, 68, 64
13, 115197, Note_on_c, 4, 69, 74
13, 115505, Note_off_c, 4, 69, 64
13, 115678, Note_on_c, 4, 72, 64
13, 115757, Note_off_c, 4, 72, 64
13, 115909, Note_on_c, 4, 76, 80
13, 115989, Note_off_c, 4, 76, 64
13, 116147, Note_on_c, 4, 69, 57
13, 116368, Note_off_c, 4, 69, 64
13, 116393, Note_on_c, 4, 71, 80
13, 116478, Note_off_c, 4, 71, 64
13, 116491, Note_on_c, 4, 72, 70
13, 116575, Note_off_c, 4, 72, 64
13, 116614, Note_on_c, 4, 74, 58
13, 116713, Note_off_c, 4, 74, 64
13, 116733, Note_on_c, 4, 76, 76
13, 116809, Note_off_c, 4, 76, 64
13, 116858, Note_on_c, 4, 77, 89
13, 117234, Note_off_c, 4, 77, 64
13, 117352, Note_on_c, 4, 71, 60
13, 117437, Note_off_c, 4, 71, 64
13, 117587, Note_on_c, 4, 76, 68
13, 117662, Note_off_c, 4, 76, 64
13, 117830, Note_on_c, 4, 79, 82
13, 117907, Note_off_c, 4, 79, 64
13, 118068, Note_on_c, 4, 72, 66
13, 118286, Note_off_c, 4, 72, 64
13, 118308, Note_on_c, 4, 74, 80
13, 118413, Note_off_c, 4, 74, 64
13, 118419, Note_on_c, 4, 76, 70
13, 118507, Note_off_c, 4, 76, 64
13, 118537, Note_on_c, 4, 77, 78
13, 118640, Note_off_c, 4, 77, 64
13, 118651, Note_on_c, 4, 79, 78
13, 118730, Note_off_c, 4, 79, 64
13, 118768, Note_on_c, 4, 81, 80
13, 119211, Note_off_c, 4, 81, 64
13, 119273, Note_on_c, 4, 79, 80
13, 119348, Note_off_c, 4, 79, 64
13, 119376, Note_on_c, 4, 77, 76
13, 119458, Note_off_c, 4, 77, 64
13, 119491, Note_on_c, 4, 76, 70
13, 119574, Note_off_c, 4, 76, 64
13, 119606, Note_on_c, 4, 74, 68
13, 119682, Note_off_c, 4, 74, 64
13, 119740, Note_on_c, 4, 79, 85
13, 119828, Note_off_c, 4, 79, 64
13, 119979, Note_on_c, 4, 70, 63
13, 120169, Note_off_c, 4, 70, 64
13, 120222, Note_on_c, 4, 72, 68
13, 120288, Note_off_c, 4, 72, 64
13, 120329, Note_on_c, 4, 69, 58
13, 120407, Note_off_c, 4, 69, 64
13, 120457, Note_on_c, 4, 70, 61
13, 120545, Note_off_c, 4, 70, 64
13, 120708, Note_on_c, 4, 79, 82
13, 120798, Note_off_c, 4, 79, 64
13, 120951, Note_on_c, 4, 70, 78
13, 121062, Note_on_c, 4, 69, 70
13, 121083, Note_off_c, 4, 70, 64
13, 121174, Note_on_c, 4, 67, 57
13, 121180, Note_off_c, 4, 69, 64
13, 121286, Note_off_c, 4, 67, 64
13, 121288, Note_on_c, 4, 65, 57
13, 121358, Note_off_c, 4, 65, 64
13, 121423, Note_on_c, 4, 72, 87
13, 121540, Note_on_c, 4, 71, 66
13, 121570, Note_off_c, 4, 72, 64
13, 121648, Note_off_c, 4, 71, 64
13, 121648, Note_on_c, 4, 69, 58
13, 121741, Note_off_c, 4, 69, 64
13, 121763, Note_on_c, 4, 67, 52
13, 121855, Note_off_c, 4, 67, 64
13, 121898, Note_on_c, 4, 79, 85
13, 121991, Note_off_c, 4, 79, 64
13, 122137, Note_on_c, 4, 81, 82
13, 122225, Note_off_c, 4, 81, 64
13, 122385, Note_on_c, 4, 77, 89
13, 122430, Note_off_c, 4, 77, 64
13, 122430, Note_on_c, 4, 76, 60
13, 122472, Note_on_c, 4, 77, 76
13, 122480, Note_off_c, 4, 76, 64
13, 122515, Note_on_c, 4, 76, 58
13, 122531, Note_off_c, 4, 77, 64
13, 122613, Note_off_c, 4, 76, 64
13, 122613, Note_on_c, 4, 74, 76
13, 122685, Note_off_c, 4, 74, 64
13, 122718, Note_on_c, 4, 72, 66
13, 122785, Note_off_c, 4, 72, 64
13, 122869, Note_on_c, 4, 72, 64
13, 123200, Note_off_c, 4, 72, 64
13, 123200, End_track
14, 0, Start_track
14, 0, Title_t, "Oboe2"
14, 0, Program_c, 5, 68
14, 0, Control_c, 5, 7, 100
14, 15840, Note_on_c, 5, 71, 72
14, 15922, Note_off_c, 5, 71, 64
14, 16074, Note_on_c, 5, 72, 72
14, 16153, Note_off_c, 5, 72, 64
14, 16329, Note_on_c, 5, 74, 80
14, 16529, Note_off_c, 5, 74, 64
14, 16555, Note_on_c, 5, 76, 66
14, 16621, Note_off_c, 5, 76, 64
14, 16650, Note_on_c, 5, 72, 64
14, 16747, Note_off_c, 5, 72, 64
14, 16784, Note_on_c, 5, 74, 85
14, 16869, Note_off_c, 5, 74, 64
14, 17025, Note_on_c, 5, 82, 80
14, 17110, Note_off_c, 5, 82, 64
14, 17280, Note_on_c, 5, 74, 78
14, 17331, Note_on_c, 5, 73, 70
14, 17343, Note_off_c, 5, 74, 64
14, 17372, Note_off_c, 5, 73, 64
14, 17379, Note_on_c, 5, 74, 72
14, 17416, Note_on_c, 5, 73, 62
14, 17442, Note_off_c, 5, 74, 64
14, 17514, Note_on_c, 5, 71, 68
14, 17517, Note_off_c, 5, 73, 64
14, 17599, Note_off_c, 5, 71, 64
14, 17627, Note_on_c, 5, 69, 64
14, 17701, Note_off_c, 5, 69, 64
14, 17745, Note_on_c, 5, 71, 64
14, 17844, Note_off_c, 5, 71, 64
14, 17860, Note_on_c, 5, 73, 53
14, 17953, Note_off_c, 5, 73, 64
14, 17984, Note_on_c, 5, 74, 72
14, 18079, Note_off_c, 5, 74, 64
14, 18100, Note_on_c, 5, 76, 58
14, 18191, Note_off_c, 5, 76, 64
14, 18227, Note_on_c, 5, 77, 85
14, 18416, Note_off_c, 5, 77, 64
14, 18470, Note_on_c, 5, 76, 64
14, 18555, Note_off_c, 5, 76, 64
14, 18570, Note_on_c, 5, 74, 61
14, 18652, Note_off_c, 5, 74, 64
14, 18701, Note_on_c, 5, 76, 70
14, 18763, Note_off_c, 5, 76, 64
14, 18816, Note_on_c, 5, 73, 52
14, 18910, Note_off_c, 5, 73, 64
14, 18946, Note_on_c, 5, 81, 87
14, 19045, Note_off_c, 5, 81, 64
14, 19198, Note_on_c, 5, 79, 66
14, 19245, Note_on_c, 5, 77, 70
14, 19260, Note_off_c, 5, 79, 64
14, 19294, Note_off_c, 5, 77, 64
14, 19296, Note_on_c, 5, 79, 66
14, 19339, Note_on_c, 5, 77, 70
14, 19375, Note_off_c, 5, 79, 64
14, 19438, Note_on_c, 5, 76, 70
14, 19448, Note_off_c, 5, 77, 64
14, 19514, Note_off_c, 5, 76, 64
14, 19549, Note_on_c, 5, 74, 74
14, 19608, Note_off_c, 5, 74, 64
14, 19670, Note_on_c, 5, 79, 85
14, 19769, Note_on_c, 5, 77, 64
14, 19794, Note_off_c, 5, 79, 64
14, 19892, Note_on_c, 5, 76, 57
14, 19895, Note_off_c, 5, 77, 64
14, 19974, Note_off_c, 5, 76, 64
14, 19997, Note_on_c, 5, 74, 56
14, 20076, Note_off_c, 5, 74, 64
14, 20129, Note_on_c, 5, 76, 80
14, 20345, Note_off_c, 5, 76, 64
14, 20377, Note_on_c, 5, 77, 70
14, 20459, Note_off_c, 5, 77, 64
14, 20488, Note_on_c, 5, 74, 63
14, 20563, Note_off_c, 5, 74, 64
14, 20615, Note_on_c, 5, 76, 64
14, 20705, Note_off_c, 5, 76, 64
14, 20721, Note_on_c, 5, 72, 54
14, 20818, Note_off_c, 5, 72, 64
14, 20859, Note_on_c, 5, 77, 82
14, 20979, Note_off_c, 5, 77, 64
14, 21116, Note_on_c, 5, 76, 80
14, 21170, Note_on_c, 5, 74, 57
14, 21179, Note_off_c, 5, 76, 64
14, 21216, Note_on_c, 5, 76, 68
14, 21219, Note_off_c, 5, 74, 64
14, 21260, Note_on_c, 5, 74, 68
14, 21271, Note_off_c, 5, 76, 64
14, 21348, Note_off_c, 5, 74, 64
14, 21350, Note_on_c, 5, 72, 66
14, 21451, Note_on_c, 5, 71, 54
14, 21456, Note_off_c, 5, 72, 64
14, 21528, Note_off_c, 5, 71, 64
14, 21584, Note_on_c, 5, 76, 87
14, 21687, Note_on_c, 5, 74, 68
14, 21710, Note_off_c, 5, 76, 64
14, 21803, Note_on_c, 5, 72, 52
14, 21804, Note_off_c, 5, 74, 64
14, 21918, Note_on_c, 5, 71, 41
14, 21924, Note_off_c, 5, 72, 64
14, 22014, Note_off_c, 5, 71, 64
14, 22060, Note_on_c, 5, 74, 82
14, 22165, Note_on_c, 5, 72, 64
14, 22197, Note_off_c, 5, 74, 64
14, 22294, Note_on_c, 5, 71, 57
14, 22308, Note_off_c, 5, 72, 64
14, 22406, Note_off_c, 5, 71, 64
14, 22406, Note_on_c, 5, 69, 57
14, 22492, Note_off_c, 5, 69, 64
14, 22531, Note_on_c, 5, 71, 76
14, 22616, Note_off_c, 5, 71, 64
14, 22798, Note_on_c, 5, 68, 64
14, 22875, Note_off_c, 5, 68, 64
14, 23047, Note_on_c, 5, 69, 63
14, 23353, Note_off_c, 5, 69, 64
14, 23512, Note_on_c, 5, 72, 55
14, 23600, Note_off_c, 5, 72, 64
14, 23749, Note_on_c, 5, 76, 66
14, 23834, Note_off_c, 5, 76, 64
14, 23987, Note_on_c, 5, 69, 64
14, 24207, Note_off_c, 5, 69, 64
14, 24238, Note_on_c, 5, 71, 68
14, 24315, Note_off_c, 5, 71, 64
14, 24340, Note_on_c, 5, 72, 72
14, 24415, Note_off_c, 5, 72, 64
14, 24454, Note_on_c, 5, 74, 64
14, 24563, Note_off_c, 5, 74, 64
14, 24567, Note_on_c, 5, 76, 64
14, 24644, Note_off_c, 5, 76, 64
14, 24700, Note_on_c, 5, 77, 82
14, 25071, Note_off_c, 5, 77, 64
14, 25198, Note_on_c, 5, 71, 58
14, 25287, Note_off_c, 5, 71, 64
14, 25430, Note_on_c, 5, 76, 57
14, 25512, Note_off_c, 5, 76, 64
14, 25663, Note_on_c, 5, 79, 80
14, 25753, Note_off_c, 5, 79, 64
14, 25912, Note_on_c, 5, 72, 64
14, 26128, Note_off_c, 5, 72, 64
14, 26151, Note_on_c, 5, 74, 70
14, 26241, Note_off_c, 5, 74, 64
14, 26261, Note_on_c, 5, 76, 66
14, 26350, Note_off_c, 5, 76, 64
14, 26377, Note_on_c, 5, 77, 78
14, 26496, Note_off_c, 5, 77, 64
14, 26500, Note_on_c, 5, 79, 82
14, 26586, Note_off_c, 5, 79, 64
14, 26625, Note_on_c, 5, 81, 80
14, 27060, Note_off_c, 5, 81, 64
14, 27113, Note_on_c, 5, 79, 72
14, 27207, Note_off_c, 5, 79, 64
14, 27220, Note_on_c, 5, 77, 62
14, 27315, Note_off_c, 5, 77, 64
14, 27336, Note_on_c, 5, 76, 60
14, 27422, Note_off_c, 5, 76, 64
14, 27450, Note_on_c, 5, 74, 66
14, 27537, Note_off_c, 5, 74, 64
14, 27577, Note_on_c, 5, 79, 89
14, 27662, Note_off_c, 5, 79, 64
14, 27816, Note_on_c, 5, 70, 70
14, 28013, Note_off_c, 5, 70, 64
14, 28055, Note_on_c, 5, 72, 64
14, 28130, Note_off_c, 5, 72, 64
14, 28166, Note_on_c, 5, 69, 59
14, 28264, Note_off_c, 5, 69, 64
14, 28296, Note_on_c, 5, 70, 64
14, 28391, Note_off_c, 5, 70, 64
14, 28548, Note_on_c, 5, 79, 82
14, 28638, Note_off_c, 5, 79, 64
14, 28788, Note_on_c, 5, 70, 66
14, 28902, Note_on_c, 5, 69, 60
14, 28906, Note_off_c, 5, 70, 64
14, 29021, Note_on_c, 5, 67, 55
14, 29026, Note_off_c, 5, 69, 64
14, 29136, Note_off_c, 5, 67, 64
14, 29139, Note_on_c, 5, 65, 56
14, 29216, Note_off_c, 5, 65, 64
14, 29265, Note_on_c, 5, 72, 85
14, 29377, Note_on_c, 5, 71, 68
14, 29413, Note_off_c, 5, 72, 64
14, 29496, Note_on_c, 5, 69, 56
14, 29502, Note_off_c, 5, 71, 64
14, 29587, Note_off_c, 5, 69, 64
14, 29604, Note_on_c, 5, 67, 60
14, 29724, Note_off_c, 5, 67, 64
14, 29737, Note_on_c, 5, 79, 72
14, 29823, Note_off_c, 5, 79, 64
14, 29983, Note_on_c, 5, 81, 82
14, 30087, Note_off_c, 5, 81, 64
14, 30231, Note_on_c, 5, 77, 80
14, 30287, Note_on_c, 5, 76, 63
14, 30291, Note_off_c, 5, 77, 64
14, 30332, Note_on_c, 5, 77, 72
14, 30336, Note_off_c, 5, 76, 64
14, 30381, Note_on_c, 5, 76, 66
14, 30388, Note_off_c, 5, 77, 64
14, 30470, Note_off_c, 5, 76, 64
14, 30474, Note_on_c, 5, 74, 78
14, 30558, Note_off_c, 5, 74, 64
14, 30581, Note_on_c, 5, 72, 68
14, 30637, Note_off_c, 5, 72, 64
14, 30720, Note_on_c, 5, 72, 60
14, 31078, Note_off_c, 5, 72, 64
14, 46567, Note_on_c, 5, 64, 52
14, 46686, Note_off_c, 5, 64, 64
14, 46797, Note_on_c, 5, 65, 60
14, 46894, Note_off_c, 5, 65, 64
14, 46904, Note_on_c, 5, 62, 59
14, 46986, Note_off_c, 5, 62, 64
14, 47026, Note_on_c, 5, 64, 68
14, 47120, Note_off_c, 5, 64, 64
14, 47137, Note_on_c, 5, 65, 55
14, 47190, Note_off_c, 5, 65, 64
14, 47264, Note_on_c, 5, 67, 61
14, 47676, Note_off_c, 5, 67, 64
14, 47755, Note_on_c, 5, 65, 66
14, 47913, Note_off_c, 5, 65, 64
14, 47989, Note_on_c, 5, 67, 78
14, 48025, Note_on_c, 5, 65, 55
14, 48033, Note_off_c, 5, 67, 64
14, 48072, Note_on_c, 5, 67, 63
14, 48077, Note_off_c, 5, 65, 64
14, 48110, Note_on_c, 5, 65, 63
14, 48126, Note_off_c, 5, 67, 64
14, 48210, Note_off_c, 5, 65, 64
14, 48224, Note_on_c, 5, 64, 66
14, 48324, Note_off_c, 5, 64, 64
14, 48336, Note_on_c, 5, 62, 62
14, 48404, Note_off_c, 5, 62, 64
14, 48470, Note_on_c, 5, 64, 66
14, 48573, Note_on_c, 5, 67, 64
14, 48583, Note_off_c, 5, 64, 64
14, 48633, Note_off_c, 5, 67, 64
14, 48715, Note_on_c, 5, 72, 76
14, 48807, Note_off_c, 5, 72, 64
14, 48826, Note_on_c, 5, 71, 57
14, 48887, Note_off_c, 5, 71, 64
14, 48946, Note_on_c, 5, 74, 63
14, 49058, Note_off_c, 5, 74, 64
14, 49058, Note_on_c, 5, 72, 56
14, 49123, Note_off_c, 5, 72, 64
14, 49192, Note_on_c, 5, 77, 72
14, 49303, Note_on_c, 5, 76, 70
14, 49319, Note_off_c, 5, 77, 64
14, 49369, Note_off_c, 5, 76, 64
14, 49428, Note_on_c, 5, 74, 70
14, 49536, Note_off_c, 5, 74, 64
14, 49539, Note_on_c, 5, 72, 59
14, 49609, Note_off_c, 5, 72, 64
14, 49668, Note_on_c, 5, 71, 66
14, 49769, Note_on_c, 5, 69, 63
14, 49771, Note_off_c, 5, 71, 64
14, 49835, Note_off_c, 5, 69, 64
14, 49908, Note_on_c, 5, 71, 59
14, 50286, Note_off_c, 5, 71, 64
14, 50380, Note_on_c, 5, 67, 68
14, 50505, Note_off_c, 5, 67, 64
14, 50632, Note_on_c, 5, 69, 66
14, 50707, Note_off_c, 5, 69, 64
14, 50736, Note_on_c, 5, 71, 70
14, 50810, Note_off_c, 5, 71, 64
14, 50851, Note_on_c, 5, 72, 64
14, 50962, Note_on_c, 5, 74, 66
14, 50966, Note_off_c, 5, 72, 64
14, 51047, Note_off_c, 5, 74, 64
14, 51104, Note_on_c, 5, 76, 68
14, 51528, Note_off_c, 5, 76, 64
14, 51591, Note_on_c, 5, 74, 59
14, 51752, Note_off_c, 5, 74, 64
14, 51823, Note_on_c, 5, 76, 72
14, 51863, Note_on_c, 5, 74, 63
14, 51867, Note_off_c, 5, 76, 64
14, 51908, Note_on_c, 5, 76, 60
14, 51912, Note_off_c, 5, 74, 64
14, 51949, Note_on_c, 5, 74, 66
14, 51965, Note_off_c, 5, 76, 64
14, 52032, Note_off_c, 5, 74, 64
14, 52063, Note_on_c, 5, 72, 63
14, 52164, Note_on_c, 5, 71, 55
14, 52165, Note_off_c, 5, 72, 64
14, 52243, Note_off_c, 5, 71, 64
14, 52304, Note_on_c, 5, 72, 66
14, 52406, Note_on_c, 5, 74, 66
14, 52419, Note_off_c, 5, 72, 64
14, 52521, Note_off_c, 5, 74, 64
14, 52546, Note_on_c, 5, 76, 66
14, 52631, Note_off_c, 5, 76, 64
14, 52649, Note_on_c, 5, 74, 55
14, 52739, Note_off_c, 5, 74, 64
14, 52770, Note_on_c, 5, 78, 53
14, 52884, Note_on_c, 5, 76, 57
14, 52891, Note_off_c, 5, 78, 64
14, 52955, Note_off_c, 5, 76, 64
14, 53024, Note_on_c, 5, 79, 70
14, 53132, Note_off_c, 5, 79, 64
14, 53270, Note_on_c, 5, 71, 62
14, 53387, Note_off_c, 5, 71, 64
14, 53520, Note_on_c, 5, 72, 64
14, 53607, Note_off_c, 5, 72, 64
14, 53625, Note_on_c, 5, 69, 60
14, 53692, Note_off_c, 5, 69, 64
14, 53760, Note_on_c, 5, 71, 51
14, 54081, Note_off_c, 5, 71, 64
14, 54234, Note_on_c, 5, 64, 48
14, 54425, Note_off_c, 5, 64, 64
14, 54478, Note_on_c, 5, 65, 68
14, 54560, Note_off_c, 5, 65, 64
14, 54590, Note_on_c, 5, 62, 60
14, 54661, Note_off_c, 5, 62, 64
14, 54712, Note_on_c, 5, 64, 76
14, 54809, Note_off_c, 5, 64, 64
14, 54815, Note_on_c, 5, 65, 64
14, 54896, Note_off_c, 5, 65, 64
14, 54942, Note_on_c, 5, 67, 63
14, 55382, Note_off_c, 5, 67, 64
14, 55430, Note_on_c, 5, 65, 57
14, 55613, Note_off_c, 5, 65, 64
14, 55672, Note_on_c, 5, 67, 72
14, 55705, Note_on_c, 5, 65, 60
14, 55716, Note_off_c, 5, 67, 64
14, 55755, Note_on_c, 5, 67, 70
14, 55763, Note_off_c, 5, 65, 64
14, 55797, Note_on_c, 5, 65, 60
14, 55817, Note_off_c, 5, 67, 64
14, 55876, Note_off_c, 5, 65, 64
14, 55907, Note_on_c, 5, 64, 68
14, 56009, Note_on_c, 5, 62, 58
14, 56013, Note_off_c, 5, 64, 64
14, 56082, Note_off_c, 5, 62, 64
14, 56151, Note_on_c, 5, 64, 63
14, 56255, Note_on_c, 5, 67, 64
14, 56274, Note_off_c, 5, 64, 64
14, 56320, Note_off_c, 5, 67, 64
14, 56385, Note_on_c, 5, 72, 66
14, 56480, Note_off_c, 5, 72, 64
14, 56498, Note_on_c, 5, 71, 57
14, 56568, Note_off_c, 5, 71, 64
14, 56611, Note_on_c, 5, 74, 70
14, 56727, Note_off_c, 5, 74, 64
14, 56729, Note_on_c, 5, 72, 59
14, 56801, Note_off_c, 5, 72, 64
14, 56858, Note_on_c, 5, 77, 74
14, 56976, Note_on_c, 5, 76, 64
14, 56997, Note_off_c, 5, 77, 64
14, 57040, Note_off_c, 5, 76, 64
14, 57096, Note_on_c, 5, 74, 64
14, 57207, Note_off_c, 5, 74, 64
14, 57213, Note_on_c, 5, 72, 60
14, 57285, Note_off_c, 5, 72, 64
14, 57338, Note_on_c, 5, 71, 64
14, 57434, Note_off_c, 5, 71, 64
14, 57453, Note_on_c, 5, 69, 59
14, 57521, Note_off_c, 5, 69, 64
14, 57580, Note_on_c, 5, 71, 63
14, 57972, Note_off_c, 5, 71, 64
14, 58051, Note_on_c, 5, 67, 60
14, 58179, Note_off_c, 5, 67, 64
14, 58296, Note_on_c, 5, 69, 66
14, 58372, Note_off_c, 5, 69, 64
14, 58405, Note_on_c, 5, 71, 60
14, 58493, Note_off_c, 5, 71, 64
14, 58542, Note_on_c, 5, 72, 66
14, 58630, Note_off_c, 5, 72, 64
14, 58654, Note_on_c, 5, 74, 64
14, 58745, Note_off_c, 5, 74, 64
14, 58791, Note_on_c, 5, 76, 64
14, 59220, Note_off_c, 5, 76, 64
14, 59274, Note_on_c, 5, 74, 58
14, 59448, Note_off_c, 5, 74, 64
14, 59509, Note_on_c, 5, 76, 62
14, 59538, Note_on_c, 5, 74, 57
14, 59550, Note_off_c, 5, 76, 64
14, 59587, Note_on_c, 5, 76, 63
14, 59600, Note_off_c, 5, 74, 64
14, 59635, Note_on_c, 5, 74, 62
14, 59648, Note_off_c, 5, 76, 64
14, 59730, Note_off_c, 5, 74, 64
14, 59757, Note_on_c, 5, 72, 64
14, 59851, Note_off_c, 5, 72, 64
14, 59867, Note_on_c, 5, 71, 43
14, 59936, Note_off_c, 5, 71, 64
14, 59982, Note_on_c, 5, 72, 66
14, 60087, Note_on_c, 5, 74, 62
14, 60094, Note_off_c, 5, 72, 64
14, 60200, Note_off_c, 5, 74, 64
14, 60227, Note_on_c, 5, 76, 66
14, 60330, Note_off_c, 5, 76, 64
14, 60336, Note_on_c, 5, 74, 51
14, 60432, Note_off_c, 5, 74, 64
14, 60461, Note_on_c, 5, 78, 64
14, 60574, Note_on_c, 5, 76, 62
14, 60579, Note_off_c, 5, 78, 64
14, 60650, Note_off_c, 5, 76, 64
14, 60705, Note_on_c, 5, 79, 70
14, 60816, Note_off_c, 5, 79, 64
14, 60945, Note_on_c, 5, 71, 66
14, 61052, Note_off_c, 5, 71, 64
14, 61184, Note_on_c, 5, 72, 70
14, 61259, Note_off_c, 5, 72, 64
14, 61297, Note_on_c, 5, 69, 64
14, 61377, Note_off_c, 5, 69, 64
14, 61443, Note_on_c, 5, 71, 63
14, 61726, Note_off_c, 5, 71, 64
14, 77299, Note_on_c, 5, 71, 63
14, 77469, Note_off_c, 5, 71, 64
14, 77499, Note_on_c, 5, 67, 59
14, 77610, Note_off_c, 5, 67, 64
14, 77622, Note_on_c, 5, 69, 57
14, 77695, Note_off_c, 5, 69, 64
14, 77737, Note_on_c, 5, 71, 60
14, 77842, Note_off_c, 5, 71, 64
14, 77856, Note_on_c, 5, 73, 54
14, 77923, Note_off_c, 5, 73, 64
14, 77969, Note_on_c, 5, 74, 70
14, 78399, Note_off_c, 5, 74, 64
14, 78476, Note_on_c, 5, 73, 53
14, 78646, Note_off_c, 5, 73, 64
14, 78718, Note_on_c, 5, 74, 60
14, 78808, Note_off_c, 5, 74, 64
14, 78831, Note_on_c, 5, 76, 70
14, 78913, Note_off_c, 5, 76, 64
14, 78954, Note_on_c, 5, 77, 68
14, 79364, Note_off_c, 5, 77, 64
14, 79413, Note_on_c, 5, 76, 59
14, 79500, Note_off_c, 5, 76, 64
14, 79531, Note_on_c, 5, 74, 59
14, 79609, Note_off_c, 5, 74, 64
14, 79654, Note_on_c, 5, 76, 63
14, 79772, Note_on_c, 5, 74, 63
14, 79790, Note_off_c, 5, 76, 64
14, 79906, Note_on_c, 5, 73, 52
14, 79913, Note_off_c, 5, 74, 64
14, 80022, Note_on_c, 5, 74, 60
14, 80027, Note_off_c, 5, 73, 64
14, 80104, Note_off_c, 5, 74, 64
14, 80146, Note_on_c, 5, 76, 64
14, 80256, Note_on_c, 5, 74, 59
14, 80271, Note_off_c, 5, 76, 64
14, 80381, Note_on_c, 5, 76, 64
14, 80392, Note_off_c, 5, 74, 64
14, 80493, Note_off_c, 5, 76, 64
14, 80505, Note_on_c, 5, 73, 47
14, 80580, Note_off_c, 5, 73, 64
14, 80628, Note_on_c, 5, 74, 61
14, 80781, Note_off_c, 5, 74, 64
14, 80878, Note_on_c, 5, 69, 60
14, 80994, Note_off_c, 5, 69, 64
14, 81115, Note_on_c, 5, 74, 72
14, 81232, Note_on_c, 5, 72, 63
14, 81252, Note_off_c, 5, 74, 64
14, 81359, Note_on_c, 5, 71, 48
14, 81364, Note_off_c, 5, 72, 64
14, 81458, Note_off_c, 5, 71, 64
14, 81459, Note_on_c, 5, 69, 53
14, 81531, Note_off_c, 5, 69, 64
14, 81576, Note_on_c, 5, 72, 68
14, 81698, Note_on_c, 5, 71, 61
14, 81720, Note_off_c, 5, 72, 64
14, 81828, Note_on_c, 5, 69, 52
14, 81840, Note_off_c, 5, 71, 64
14, 81936, Note_on_c, 5, 67, 57
14, 81948, Note_off_c, 5, 69, 64
14, 82047, Note_off_c, 5, 67, 64
14, 82061, Note_on_c, 5, 69, 64
14, 82184, Note_on_c, 5, 71, 66
14, 82201, Note_off_c, 5, 69, 64
14, 82306, Note_on_c, 5, 72, 64
14, 82310, Note_off_c, 5, 71, 64
14, 82413, Note_on_c, 5, 71, 52
14, 82423, Note_off_c, 5, 72, 64
14, 82499, Note_off_c, 5, 71, 64
14, 82545, Note_on_c, 5, 72, 60
14, 83445, Note_off_c, 5, 72, 64
14, 83503, Note_on_c, 5, 72, 60
14, 84048, Note_off_c, 5, 72, 64
14, 84079, Note_on_c, 5, 76, 68
14, 84200, Note_on_c, 5, 74, 58
14, 84214, Note_off_c, 5, 76, 64
14, 84323, Note_on_c, 5, 72, 63
14, 84338, Note_off_c, 5, 74, 64
14, 84403, Note_off_c, 5, 72, 64
14, 84456, Note_on_c, 5, 71, 64
14, 84571, Note_on_c, 5, 69, 44
14, 84578, Note_off_c, 5, 71, 64
14, 84665, Note_off_c, 5, 69, 64
14, 84704, Note_on_c, 5, 67, 62
14, 84812, Note_on_c, 5, 65, 51
14, 84835, Note_off_c, 5, 67, 64
14, 84881, Note_off_c, 5, 65, 64
14, 84936, Note_on_c, 5, 64, 60
14, 85051, Note_on_c, 5, 62, 58
14, 85056, Note_off_c, 5, 64, 64
14, 85136, Note_off_c, 5, 62, 64
14, 85192, Note_on_c, 5, 60, 57
14, 85308, Note_off_c, 5, 60, 64
14, 85308, Note_on_c, 5, 62, 66
14, 85385, Note_off_c, 5, 62, 64
14, 85444, Note_on_c, 5, 64, 64
14, 85509, Note_off_c, 5, 64, 64
14, 85546, Note_on_c, 5, 65, 62
14, 85614, Note_off_c, 5, 65, 64
14, 85671, Note_on_c, 5, 67, 64
14, 86100, Note_off_c, 5, 67, 64
14, 86152, Note_on_c, 5, 65, 52
14, 86324, Note_off_c, 5, 65, 64
14, 86394, Note_on_c, 5, 67, 72
14, 86437, Note_on_c, 5, 65, 61
14, 86446, Note_off_c, 5, 67, 64
14, 86489, Note_on_c, 5, 67, 68
14, 86491, Note_off_c, 5, 65, 64
14, 86535, Note_on_c, 5, 65, 61
14, 86553, Note_off_c, 5, 67, 64
14, 86604, Note_off_c, 5, 65, 64
14, 86636, Note_on_c, 5, 64, 64
14, 86738, Note_on_c, 5, 62, 53
14, 86754, Note_off_c, 5, 64, 64
14, 86808, Note_off_c, 5, 62, 64
14, 86880, Note_on_c, 5, 64, 57
14, 86988, Note_on_c, 5, 67, 66
14, 86992, Note_off_c, 5, 64, 64
14, 87049, Note_off_c, 5, 67, 64
14, 87114, Note_on_c, 5, 72, 66
14, 87211, Note_off_c, 5, 72, 64
14, 87222, Note_on_c, 5, 71, 57
14, 87301, Note_off_c, 5, 71, 64
14, 87342, Note_on_c, 5, 74, 68
14, 87453, Note_off_c, 5, 74, 64
14, 87454, Note_on_c, 5, 72, 55
14, 87529, Note_off_c, 5, 72, 64
14, 87582, Note_on_c, 5, 77, 70
14, 87696, Note_on_c, 5, 76, 63
14, 87710, Note_off_c, 5, 77, 64
14, 87762, Note_off_c, 5, 76, 64
14, 87821, Note_on_c, 5, 74, 59
14, 87929, Note_off_c, 5, 74, 64
14, 87942, Note_on_c, 5, 72, 58
14, 88014, Note_off_c, 5, 72, 64
14, 88066, Note_on_c, 5, 71, 68
14, 88160, Note_off_c, 5, 71, 64
14, 88173, Note_on_c, 5, 69, 57
14, 88243, Note_off_c, 5, 69, 64
14, 88302, Note_on_c, 5, 71, 57
14, 88698, Note_off_c, 5, 71, 64
14, 88795, Note_on_c, 5, 67, 60
14, 88975, Note_off_c, 5, 67, 64
14, 89032, Note_on_c, 5, 69, 60
14, 89101, Note_off_c, 5, 69, 64
14, 89140, Note_on_c, 5, 71, 64
14, 89211, Note_off_c, 5, 71, 64
14, 89262, Note_on_c, 5, 72, 61
14, 89352, Note_off_c, 5, 72, 64
14, 89376, Note_on_c, 5, 74, 70
14, 89457, Note_off_c, 5, 74, 64
14, 89510, Note_on_c, 5, 76, 68
14, 89935, Note_off_c, 5, 76, 64
14, 89988, Note_on_c, 5, 74, 60
14, 90154, Note_off_c, 5, 74, 64
14, 90216, Note_on_c, 5, 76, 66
14, 90258, Note_on_c, 5, 74, 64
14, 90269, Note_off_c, 5, 76, 64
14, 90311, Note_on_c, 5, 76, 62
14, 90312, Note_off_c, 5, 74, 64
14, 90353, Note_on_c, 5, 74, 66
14, 90369, Note_off_c, 5, 76, 64
14, 90446, Note_off_c, 5, 74, 64
14, 90467, Note_on_c, 5, 72, 66
14, 90573, Note_off_c, 5, 72, 64
14, 90582, Note_on_c, 5, 71, 57
14, 90648, Note_off_c, 5, 71, 64
14, 90704, Note_on_c, 5, 72, 68
14, 90804, Note_on_c, 5, 74, 68
14, 90809, Note_off_c, 5, 72, 64
14, 90930, Note_on_c, 5, 76, 70
14, 90933, Note_off_c, 5, 74, 64
14, 91050, Note_on_c, 5, 74, 60
14, 91064, Note_off_c, 5, 76, 64
14, 91142, Note_off_c, 5, 74, 64
14, 91176, Note_on_c, 5, 77, 72
14, 91293, Note_on_c, 5, 76, 64
14, 91312, Note_off_c, 5, 77, 64
14, 91421, Note_on_c, 5, 74, 57
14, 91425, Note_off_c, 5, 76, 64
14, 91524, Note_off_c, 5, 74, 64
14, 91531, Note_on_c, 5, 72, 76
14, 91620, Note_off_c, 5, 72, 64
14, 91660, Note_on_c, 5, 64, 63
14, 91781, Note_off_c, 5, 64, 64
14, 91899, Note_on_c, 5, 65, 53
14, 91990, Note_off_c, 5, 65, 64
14, 92016, Note_on_c, 5, 62, 57
14, 92084, Note_off_c, 5, 62, 64
14, 92143, Note_on_c, 5, 64, 57
14, 92490, Note_off_c, 5, 64, 64
14, 108000, Note_on_c, 5, 71, 72
14, 108082, Note_off_c, 5, 71, 64
14, 108234, Note_on_c, 5, 72, 72
14, 108313, Note_off_c, 5, 72, 64
14, 108489, Note_on_c, 5, 74, 80
14, 108689, Note_off_c, 5, 74, 64
14, 108715, Note_on_c, 5, 76, 66
14, 108781, Note_off_c, 5, 76, 64
14, 108810, Note_on_c, 5, 72, 64
14, 108907, Note_off_c, 5, 72, 64
14, 108944, Note_on_c, 5, 74, 85
14, 109029, Note_off_c, 5, 74, 64
14, 109185, Note_on_c, 5, 82, 80
14, 109270, Note_off_c, 5, 82, 64
14, 109440, Note_on_c, 5, 74, 78
14, 109491, Note_on_c, 5, 73, 70
14, 109503, Note_off_c, 5, 74, 64
14, 109532, Note_off_c, 5, 73, 64
14, 109539, Note_on_c, 5, 74, 72
14, 109576, Note_on_c, 5, 73, 62
14, 109602, Note_off_c, 5, 74, 64
14, 109674, Note_on_c, 5, 71, 68
14, 109677, Note_off_c, 5, 73, 64
14, 109759, Note_off_c, 5, 71, 64
14, 109787, Note_on_c, 5, 69, 64
14, 109861, Note_off_c, 5, 69, 64
14, 109905, Note_on_c, 5, 71, 64
14, 110004, Note_off_c, 5, 71, 64
14, 110020, Note_on_c, 5, 73, 53
14, 110113, Note_off_c, 5, 73, 64
14, 110144, Note_on_c, 5, 74, 72
14, 110239, Note_off_c, 5, 74, 64
14, 110260, Note_on_c, 5, 76, 58
14, 110351, Note_off_c, 5, 76, 64
14, 110387, Note_on_c, 5, 77, 85
14, 110576, Note_off_c, 5, 77, 64
14, 110630, Note_on_c, 5, 76, 64
14, 110715, Note_off_c, 5, 76, 64
14, 110730, Note_on_c, 5, 74, 61
14, 110812, Note_off_c, 5, 74, 64
14, 110861, Note_on_c, 5, 76, 70
14, 110923, Note_off_c, 5, 76, 64
14, 110976, Note_on_c, 5, 73, 52
14, 111070, Note_off_c, 5, 73, 64
14, 111106, Note_on_c, 5, 81, 87
14, 111205, Note_off_c, 5, 81, 64
14, 111358, Note_on_c, 5, 79, 66
14, 111405, Note_on_c, 5, 77, 70
14, 111420, Note_off_c, 5, 79, 64
14, 111454, Note_off_c, 5, 77, 64
14, 111456, Note_on_c, 5, 79, 66
14, 111499, Note_on_c, 5, 77, 70
14, 111535, Note_off_c, 5, 79, 64
14, 111598, Note_on_c, 5, 76, 70
14, 111608, Note_off_c, 5, 77, 64
14, 111674, Note_off_c, 5, 76, 64
14, 111709, Note_on_c, 5, 74, 74
14, 111768, Note_off_c, 5, 74, 64
14, 111830, Note_on_c, 5, 79, 85
14, 111929, Note_on_c, 5, 77, 64
14, 111954, Note_off_c, 5, 79, 64
14, 112052, Note_on_c, 5, 76, 57
14, 112055, Note_off_c, 5, 77, 64
14, 112134, Note_off_c, 5, 76, 64
14, 112157, Note_on_c, 5, 74, 56
14, 112236, Note_off_c, 5, 74, 64
14, 112289, Note_on_c, 5, 76, 80
14, 112505, Note_off_c, 5, 76, 64
14, 112537, Note_on_c, 5, 77, 70
14, 112619, Note_off_c, 5, 77, 64
14, 112648, Note_on_c, 5, 74, 63
14, 112723, Note_off_c, 5, 74, 64
14, 112775, Note_on_c, 5, 76, 64
14, 112865, Note_off_c, 5, 76, 64
14, 112881, Note_on_c, 5, 72, 54
14, 112978, Note_off_c, 5, 72, 64
14, 113019, Note_on_c, 5, 77, 82
14, 113139, Note_off_c, 5, 77, 64
14, 113276, Note_on_c, 5, 76, 80
14, 113330, Note_on_c, 5, 74, 57
14, 113339, Note_off_c, 5, 76, 64
14, 113376, Note_on_c, 5, 76, 68
14, 113379, Note_off_c, 5, 74, 64
14, 113420, Note_on_c, 5, 74, 68
14, 113431, Note_off_c, 5, 76, 64
14, 113508, Note_off_c, 5, 74, 64
14, 113510, Note_on_c, 5, 72, 66
14, 113611, Note_on_c, 5, 71, 54
14, 113616, Note_off_c, 5, 72, 64
14, 113688, Note_off_c, 5, 71, 64
14, 113744, Note_on_c, 5, 76, 87
14, 113847, Note_on_c, 5, 74, 68
14, 113870, Note_off_c, 5, 76, 64
14, 113963, Note_on_c, 5, 72, 52
14, 113964, Note_off_c, 5, 74, 64
14, 114078, Note_on_c, 5, 71, 41
14, 114084, Note_off_c, 5, 72, 64
14, 114174, Note_off_c, 5, 71, 64
14, 114220, Note_on_c, 5, 74, 82
14, 114325, Note_on_c, 5, 72, 64
14, 114357, Note_off_c, 5, 74, 64
14, 114454, Note_on_c, 5, 71, 57
14, 114468, Note_off_c, 5, 72, 64
14, 114566, Note_off_c, 5, 71, 64
14, 114566, Note_on_c, 5, 69, 57
14, 114652, Note_off_c, 5, 69, 64
14, 114691, Note_on_c, 5, 71, 76
14, 114776, Note_off_c, 5, 71, 64
14, 114958, Note_on_c, 5, 68, 64
14, 115035, Note_off_c, 5, 68, 64
14, 115207, Note_on_c, 5, 69, 63
14, 115513, Note_off_c, 5, 69, 64
14, 115672, Note_on_c, 5, 72, 55
14, 115760, Note_off_c, 5, 72, 64
14, 115909, Note_on_c, 5, 76, 66
14, 115994, Note_off_c, 5, 76, 64
14, 116147, Note_on_c, 5, 69, 64
14, 116367, Note_off_c, 5, 69, 64
14, 116398, Note_on_c, 5, 71, 68
14, 116475, Note_off_c, 5, 71, 64
14, 116500, Note_on_c, 5, 72, 72
14, 116575, Note_off_c, 5, 72, 64
14, 116614, Note_on_c, 5, 74, 64
14, 116723, Note_off_c, 5, 74, 64
14, 116727, Note_on_c, 5, 76, 64
14, 116804, Note_off_c, 5, 76, 64
14, 116860, Note_on_c, 5, 77, 82
14, 117231, Note_off_c, 5, 77, 64
14, 117358, Note_on_c, 5, 71, 58
14, 117447, Note_off_c, 5, 71, 64
14, 117590, Note_on_c, 5, 76, 57
14, 117672, Note_off_c, 5, 76, 64
14, 117823, Note_on_c, 5, 79, 80
14, 117913, Note_off_c, 5, 79, 64
14, 118072, Note_on_c, 5, 72, 64
14, 118288, Note_off_c, 5, 72, 64
14, 118311, Note_on_c, 5, 74, 70
14, 118401, Note_off_c, 5, 74, 64
14, 118421, Note_on_c, 5, 76, 66
14, 118510, Note_off_c, 5, 76, 64
14, 118537, Note_on_c, 5, 77, 78
14, 118656, Note_off_c, 5, 77, 64
14, 118660, Note_on_c, 5, 79, 82
14, 118746, Note_off_c, 5, 79, 64
14, 118785, Note_on_c, 5, 81, 80
14, 119220, Note_off_c, 5, 81, 64
14, 119273, Note_on_c, 5, 79, 72
14, 119367, Note_off_c, 5, 79, 64
14, 119380, Note_on_c, 5, 77, 62
14, 119475, Note_off_c, 5, 77, 64
14, 119496, Note_on_c, 5, 76, 60
14, 119582, Note_off_c, 5, 76, 64
14, 119610, Note_on_c, 5, 74, 66
14, 119697, Note_off_c, 5, 74, 64
14, 119737, Note_on_c, 5, 79, 89
14, 119822, Note_off_c, 5, 79, 64
14, 119976, Note_on_c, 5, 70, 70
14, 120173, Note_off_c, 5, 70, 64
14, 120215, Note_on_c, 5, 72, 64
14, 120290, Note_off_c, 5, 72, 64
14, 120326, Note_on_c, 5, 69, 59
14, 120424, Note_off_c, 5, 69, 64
14, 120456, Note_on_c, 5, 70, 64
14, 120551, Note_off_c, 5, 70, 64
14, 120708, Note_on_c, 5, 79, 82
14, 120798, Note_off_c, 5, 79, 64
14, 120948, Note_on_c, 5, 70, 66
14, 121062, Note_on_c, 5, 69, 60
14, 121066, Note_off_c, 5, 70, 64
14, 121181, Note_on_c, 5, 67, 55
14, 121186, Note_off_c, 5, 69, 64
14, 121296, Note_off_c, 5, 67, 64
14, 121299, Note_on_c, 5, 65, 56
14, 121376, Note_off_c, 5, 65, 64
14, 121425, Note_on_c, 5, 72, 85
14, 121537, Note_on_c, 5, 71, 68
14, 121573, Note_off_c, 5, 72, 64
14, 121656, Note_on_c, 5, 69, 56
14, 121662, Note_off_c, 5, 71, 64
14, 121747, Note_off_c, 5, 69, 64
14, 121764, Note_on_c, 5, 67, 60
14, 121884, Note_off_c, 5, 67, 64
14, 121897, Note_on_c, 5, 79, 72
14, 121983, Note_off_c, 5, 79, 64
14, 122143, Note_on_c, 5, 81, 82
14, 122247, Note_off_c, 5, 81, 64
14, 122391, Note_on_c, 5, 77, 80
14, 122447, Note_on_c, 5, 76, 63
14, 122451, Note_off_c, 5, 77, 64
14, 122492, Note_on_c, 5, 77, 72
14, 122496, Note_off_c, 5, 76, 64
14, 122541, Note_on_c, 5, 76, 66
14, 122548, Note_off_c, 5, 77, 64
14, 122630, Note_off_c, 5, 76, 64
14, 122634, Note_on_c, 5, 74, 78
14, 122718, Note_off_c, 5, 74, 64
14, 122741, Note_on_c, 5, 72, 68
14, 122797, Note_off_c, 5, 72, 64
14, 122880, Note_on_c, 5, 72, 60
14, 123238, Note_off_c, 5, 72, 64
14, 123238, End_track
15, 0, Start_track
15, 0, Title_t, "Bassoon"
15, 0, Program_c, 6, 70
15, 0, Control_c, 6, 7, 100
15, 15847, Note_on_c, 6, 55, 70
15, 15923, Note_off_c, 6, 55, 64
15, 16066, Note_on_c, 6, 48, 61
15, 16143, Note_off_c, 6, 48, 64
15, 16306, Note_on_c, 6, 43, 70
15, 16421, Note_off_c, 6, 43, 64
15, 16547, Note_on_c, 6, 55, 76
15, 16632, Note_off_c, 6, 55, 64
15, 16780, Note_on_c, 6, 53, 76
15, 16853, Note_off_c, 6, 53, 64
15, 17019, Note_on_c, 6, 52, 72
15, 17097, Note_off_c, 6, 52, 64
15, 17262, Note_on_c, 6, 57, 78
15, 17367, Note_off_c, 6, 57, 64
15, 17496, Note_on_c, 6, 55, 70
15, 17588, Note_off_c, 6, 55, 64
15, 17742, Note_on_c, 6, 53, 70
15, 17835, Note_off_c, 6, 53, 64
15, 17981, Note_on_c, 6, 52, 70
15, 18073, Note_off_c, 6, 52, 64
15, 18213, Note_on_c, 6, 50, 70
15, 18319, Note_off_c, 6, 50, 64
15, 18437, Note_on_c, 6, 58, 70
15, 18534, Note_off_c, 6, 58, 64
15, 18696, Note_on_c, 6, 57, 80
15, 18783, Note_off_c, 6, 57, 64
15, 18936, Note_on_c, 6, 45, 66
15, 19022, Note_off_c, 6, 45, 64
15, 19186, Note_on_c, 6, 50, 82
15, 19287, Note_off_c, 6, 50, 64
15, 19424, Note_on_c, 6, 48, 80
15, 19513, Note_off_c, 6, 48, 64
15, 19666, Note_on_c, 6, 47, 72
15, 19765, Note_off_c, 6, 47, 64
15, 19906, Note_on_c, 6, 43, 68
15, 19995, Note_off_c, 6, 43, 64
15, 20142, Note_on_c, 6, 48, 82
15, 20236, Note_off_c, 6, 48, 64
15, 20374, Note_on_c, 6, 47, 62
15, 20462, Note_off_c, 6, 47, 64
15, 20615, Note_on_c, 6, 45, 66
15, 20714, Note_off_c, 6, 45, 64
15, 20856, Note_on_c, 6, 57, 76
15, 20952, Note_off_c, 6, 57, 64
15, 21104, Note_on_c, 6, 59, 89
15, 21202, Note_off_c, 6, 59, 64
15, 21330, Note_on_c, 6, 57, 70
15, 21421, Note_off_c, 6, 57, 64
15, 21576, Note_on_c, 6, 56, 68
15, 21666, Note_off_c, 6, 56, 64
15, 21817, Note_on_c, 6, 52, 80
15, 21895, Note_off_c, 6, 52, 64
15, 22063, Note_on_c, 6, 57, 82
15, 22155, Note_off_c, 6, 57, 64
15, 22301, Note_on_c, 6, 53, 76
15, 22376, Note_off_c, 6, 53, 64
15, 22528, Note_on_c, 6, 50, 85
15, 22608, Note_off_c, 6, 50, 64
15, 22780, Note_on_c, 6, 52, 80
15, 22852, Note_off_c, 6, 52, 64
15, 23035, Note_on_c, 6, 45, 80
15, 23145, Note_off_c, 6, 45, 64
15, 23274, Note_on_c, 6, 52, 63
15, 23366, Note_off_c, 6, 52, 64
15, 23508, Note_on_c, 6, 57, 89
15, 23613, Note_off_c, 6, 57, 64
15, 23745, Note_on_c, 6, 55, 70
15, 23836, Note_off_c, 6, 55, 64
15, 23987, Note_on_c, 6, 53, 64
15, 24098, Note_off_c, 6, 53, 64
15, 24225, Note_on_c, 6, 52, 63
15, 24314, Note_off_c, 6, 52, 64
15, 24465, Note_on_c, 6, 53, 70
15, 24554, Note_off_c, 6, 53, 64
15, 24688, Note_on_c, 6, 50, 64
15, 24773, Note_off_c, 6, 50, 64
15, 24940, Note_on_c, 6, 55, 70
15, 25077, Note_off_c, 6, 55, 64
15, 25182, Note_on_c, 6, 57, 74
15, 25300, Note_on_c, 6, 53, 63
15, 25302, Note_off_c, 6, 57, 64
15, 25380, Note_off_c, 6, 53, 64
15, 25424, Note_on_c, 6, 57, 85
15, 25544, Note_on_c, 6, 55, 70
15, 25567, Note_off_c, 6, 57, 64
15, 25653, Note_on_c, 6, 53, 63
15, 25669, Note_off_c, 6, 55, 64
15, 25774, Note_off_c, 6, 53, 64
15, 25776, Note_on_c, 6, 52, 57
15, 25855, Note_off_c, 6, 52, 64
15, 25914, Note_on_c, 6, 57, 63
15, 26003, Note_off_c, 6, 57, 64
15, 26150, Note_on_c, 6, 55, 63
15, 26242, Note_off_c, 6, 55, 64
15, 26393, Note_on_c, 6, 57, 68
15, 26474, Note_off_c, 6, 57, 64
15, 26615, Note_on_c, 6, 53, 62
15, 26686, Note_off_c, 6, 53, 64
15, 26867, Note_on_c, 6, 59, 64
15, 26997, Note_off_c, 6, 59, 64
15, 27100, Note_on_c, 6, 60, 80
15, 27216, Note_off_c, 6, 60, 64
15, 27217, Note_on_c, 6, 57, 61
15, 27324, Note_off_c, 6, 57, 64
15, 27344, Note_on_c, 6, 60, 76
15, 27449, Note_on_c, 6, 59, 70
15, 27468, Note_off_c, 6, 60, 64
15, 27564, Note_on_c, 6, 57, 58
15, 27570, Note_off_c, 6, 59, 64
15, 27675, Note_off_c, 6, 57, 64
15, 27678, Note_on_c, 6, 55, 60
15, 27761, Note_off_c, 6, 55, 64
15, 27805, Note_on_c, 6, 60, 78
15, 27911, Note_off_c, 6, 60, 64
15, 28055, Note_on_c, 6, 55, 68
15, 28152, Note_off_c, 6, 55, 64
15, 28293, Note_on_c, 6, 52, 78
15, 28386, Note_off_c, 6, 52, 64
15, 28532, Note_on_c, 6, 48, 63
15, 28638, Note_off_c, 6, 48, 64
15, 28785, Note_on_c, 6, 53, 80
15, 28895, Note_off_c, 6, 53, 64
15, 29031, Note_on_c, 6, 52, 61
15, 29134, Note_off_c, 6, 52, 64
15, 29263, Note_on_c, 6, 50, 60
15, 29370, Note_off_c, 6, 50, 64
15, 29504, Note_on_c, 6, 53, 74
15, 29604, Note_off_c, 6, 53, 64
15, 29734, Note_on_c, 6, 52, 76
15, 29839, Note_off_c, 6, 52, 64
15, 29982, Note_on_c, 6, 53, 82
15, 30067, Note_off_c, 6, 53, 64
15, 30216, Note_on_c, 6, 55, 78
15, 30300, Note_off_c, 6, 55, 64
15, 30458, Note_on_c, 6, 43, 80
15, 30552, Note_off_c, 6, 43, 64
15, 30709, Note_on_c, 6, 36, 66
15, 30994, Note_off_c, 6, 36, 64
15, 46565, Note_on_c, 6, 60, 54
15, 46763, Note_off_c, 6, 60, 64
15, 46797, Note_on_c, 6, 60, 59
15, 46980, Note_off_c, 6, 60, 64
15, 47058, Note_on_c, 6, 60, 47
15, 47455, Note_off_c, 6, 60, 64
15, 47517, Note_on_c, 6, 55, 52
15, 47712, Note_off_c, 6, 55, 64
15, 47746, Note_on_c, 6, 55, 60
15, 47935, Note_off_c, 6, 55, 64
15, 48004, Note_on_c, 6, 57, 44
15, 48406, Note_off_c, 6, 57, 64
15, 48488, Note_on_c, 6, 57, 68
15, 48672, Note_off_c, 6, 57, 64
15, 48709, Note_on_c, 6, 57, 63
15, 48898, Note_off_c, 6, 57, 64
15, 48941, Note_on_c, 6, 59, 57
15, 49376, Note_off_c, 6, 59, 64
15, 49429, Note_on_c, 6, 60, 63
15, 49618, Note_off_c, 6, 60, 64
15, 49656, Note_on_c, 6, 60, 64
15, 49848, Note_off_c, 6, 60, 64
15, 49906, Note_on_c, 6, 55, 64
15, 50047, Note_off_c, 6, 55, 64
15, 50157, Note_on_c, 6, 53, 48
15, 50283, Note_off_c, 6, 53, 64
15, 50393, Note_on_c, 6, 52, 57
15, 50511, Note_off_c, 6, 52, 64
15, 50629, Note_on_c, 6, 55, 70
15, 50746, Note_off_c, 6, 55, 64
15, 50875, Note_on_c, 6, 48, 62
15, 51229, Note_off_c, 6, 48, 64
15, 51342, Note_on_c, 6, 60, 62
15, 51552, Note_off_c, 6, 60, 64
15, 51589, Note_on_c, 6, 60, 58
15, 51738, Note_off_c, 6, 60, 64
15, 51817, Note_on_c, 6, 60, 64
15, 51980, Note_off_c, 6, 60, 64
15, 52050, Note_on_c, 6, 59, 60
15, 52191, Note_off_c, 6, 59, 64
15, 52286, Note_on_c, 6, 57, 58
15, 52426, Note_off_c, 6, 57, 64
15, 52528, Note_on_c, 6, 55, 61
15, 52677, Note_off_c, 6, 55, 64
15, 52775, Note_on_c, 6, 60, 78
15, 52862, Note_off_c, 6, 60, 64
15, 52897, Note_on_c, 6, 57, 63
15, 52969, Note_off_c, 6, 57, 64
15, 53012, Note_on_c, 6, 59, 70
15, 53086, Note_off_c, 6, 59, 64
15, 53132, Note_on_c, 6, 60, 64
15, 53201, Note_off_c, 6, 60, 64
15, 53244, Note_on_c, 6, 62, 80
15, 53359, Note_off_c, 6, 62, 64
15, 53508, Note_on_c, 6, 50, 72
15, 53610, Note_off_c, 6, 50, 64
15, 53762, Note_on_c, 6, 43, 70
15, 54089, Note_off_c, 6, 43, 64
15, 54223, Note_on_c, 6, 60, 47
15, 54435, Note_off_c, 6, 60, 64
15, 54462, Note_on_c, 6, 60, 58
15, 54642, Note_off_c, 6, 60, 64
15, 54716, Note_on_c, 6, 60, 52
15, 55093, Note_off_c, 6, 60, 64
15, 55176, Note_on_c, 6, 55, 49
15, 55387, Note_off_c, 6, 55, 64
15, 55426, Note_on_c, 6, 55, 58
15, 55613, Note_off_c, 6, 55, 64
15, 55675, Note_on_c, 6, 57, 53
15, 56066, Note_off_c, 6, 57, 64
15, 56143, Note_on_c, 6, 57, 52
15, 56346, Note_off_c, 6, 57, 64
15, 56375, Note_on_c, 6, 57, 61
15, 56565, Note_off_c, 6, 57, 64
15, 56628, Note_on_c, 6, 59, 60
15, 57034, Note_off_c, 6, 59, 64
15, 57103, Note_on_c, 6, 60, 55
15, 57313, Note_off_c, 6, 60, 64
15, 57349, Note_on_c, 6, 60, 64
15, 57515, Note_off_c, 6, 60, 64
15, 57586, Note_on_c, 6, 55, 60
15, 57714, Note_off_c, 6, 55, 64
15, 57830, Note_on_c, 6, 53, 55
15, 57934, Note_off_c, 6, 53, 64
15, 58062, Note_on_c, 6, 52, 62
15, 58167, Note_off_c, 6, 52, 64
15, 58296, Note_on_c, 6, 55, 64
15, 58391, Note_off_c, 6, 55, 64
15, 58549, Note_on_c, 6, 48, 57
15, 58942, Note_off_c, 6, 48, 64
15, 59024, Note_on_c, 6, 60, 58
15, 59216, Note_off_c, 6, 60, 64
15, 59252, Note_on_c, 6, 60, 60
15, 59407, Note_off_c, 6, 60, 64
15, 59505, Note_on_c, 6, 60, 66
15, 59708, Note_off_c, 6, 60, 64
15, 59736, Note_on_c, 6, 59, 61
15, 59944, Note_off_c, 6, 59, 64
15, 59986, Note_on_c, 6, 57, 62
15, 60160, Note_off_c, 6, 57, 64
15, 60218, Note_on_c, 6, 55, 57
15, 60402, Note_off_c, 6, 55, 64
15, 60467, Note_on_c, 6, 60, 70
15, 60552, Note_off_c, 6, 60, 64
15, 60582, Note_on_c, 6, 57, 62
15, 60661, Note_off_c, 6, 57, 64
15, 60697, Note_on_c, 6, 59, 68
15, 60780, Note_off_c, 6, 59, 64
15, 60810, Note_on_c, 6, 60, 68
15, 60879, Note_off_c, 6, 60, 64
15, 60934, Note_on_c, 6, 62, 72
15, 61060, Note_off_c, 6, 62, 64
15, 61184, Note_on_c, 6, 50, 74
15, 61301, Note_off_c, 6, 50, 64
15, 61442, Note_on_c, 6, 43, 66
15, 61769, Note_off_c, 6, 43, 64
15, 77272, Note_on_c, 6, 55, 47
15, 77475, Note_off_c, 6, 55, 64
15, 77513, Note_on_c, 6, 55, 55
15, 77668, Note_off_c, 6, 55, 64
15, 77750, Note_on_c, 6, 53, 45
15, 78151, Note_off_c, 6, 53, 64
15, 78224, Note_on_c, 6, 57, 57
15, 78436, Note_off_c, 6, 57, 64
15, 78462, Note_on_c, 6, 57, 38
15, 78682, Note_off_c, 6, 57, 64
15, 78707, Note_on_c, 6, 50, 60
15, 79104, Note_off_c, 6, 50, 64
15, 79201, Note_on_c, 6, 62, 47
15, 79399, Note_off_c, 6, 62, 64
15, 79425, Note_on_c, 6, 62, 68
15, 79617, Note_off_c, 6, 62, 64
15, 79663, Note_on_c, 6, 61, 47
15, 80092, Note_off_c, 6, 61, 64
15, 80142, Note_on_c, 6, 57, 47
15, 80341, Note_off_c, 6, 57, 64
15, 80388, Note_on_c, 6, 57, 47
15, 80567, Note_off_c, 6, 57, 64
15, 80639, Note_on_c, 6, 62, 59
15, 80813, Note_off_c, 6, 62, 64
15, 80872, Note_on_c, 6, 60, 53
15, 81018, Note_off_c, 6, 60, 64
15, 81098, Note_on_c, 6, 59, 53
15, 81240, Note_off_c, 6, 59, 64
15, 81366, Note_on_c, 6, 57, 48
15, 81492, Note_off_c, 6, 57, 64
15, 81595, Note_on_c, 6, 55, 55
15, 81726, Note_off_c, 6, 55, 64
15, 81828, Note_on_c, 6, 53, 49
15, 81955, Note_off_c, 6, 53, 64
15, 82066, Note_on_c, 6, 52, 60
15, 82184, Note_off_c, 6, 52, 64
15, 82304, Note_on_c, 6, 50, 59
15, 82412, Note_off_c, 6, 50, 64
15, 82538, Note_on_c, 6, 48, 60
15, 82662, Note_off_c, 6, 48, 64
15, 82772, Note_on_c, 6, 45, 60
15, 82903, Note_off_c, 6, 45, 64
15, 83018, Note_on_c, 6, 43, 61
15, 83147, Note_off_c, 6, 43, 64
15, 83254, Note_on_c, 6, 41, 68
15, 83369, Note_off_c, 6, 41, 64
15, 83497, Note_on_c, 6, 40, 74
15, 83633, Note_off_c, 6, 40, 64
15, 83729, Note_on_c, 6, 38, 68
15, 83849, Note_off_c, 6, 38, 64
15, 83974, Note_on_c, 6, 40, 59
15, 84070, Note_off_c, 6, 40, 64
15, 84202, Note_on_c, 6, 41, 68
15, 84318, Note_off_c, 6, 41, 64
15, 84455, Note_on_c, 6, 43, 66
15, 84798, Note_off_c, 6, 43, 64
15, 84953, Note_on_c, 6, 60, 49
15, 85148, Note_off_c, 6, 60, 64
15, 85189, Note_on_c, 6, 60, 58
15, 85358, Note_off_c, 6, 60, 64
15, 85431, Note_on_c, 6, 60, 52
15, 85833, Note_off_c, 6, 60, 64
15, 85914, Note_on_c, 6, 55, 41
15, 86102, Note_off_c, 6, 55, 64
15, 86165, Note_on_c, 6, 55, 40
15, 86308, Note_off_c, 6, 55, 64
15, 86393, Note_on_c, 6, 57, 59
15, 86773, Note_off_c, 6, 57, 64
15, 86871, Note_on_c, 6, 57, 53
15, 87075, Note_off_c, 6, 57, 64
15, 87106, Note_on_c, 6, 57, 59
15, 87293, Note_off_c, 6, 57, 64
15, 87336, Note_on_c, 6, 59, 57
15, 87720, Note_off_c, 6, 59, 64
15, 87845, Note_on_c, 6, 60, 58
15, 88023, Note_off_c, 6, 60, 64
15, 88074, Note_on_c, 6, 60, 63
15, 88244, Note_off_c, 6, 60, 64
15, 88315, Note_on_c, 6, 55, 55
15, 88517, Note_off_c, 6, 55, 64
15, 88549, Note_on_c, 6, 53, 57
15, 88710, Note_off_c, 6, 53, 64
15, 88787, Note_on_c, 6, 52, 56
15, 88921, Note_off_c, 6, 52, 64
15, 89028, Note_on_c, 6, 55, 66
15, 89149, Note_off_c, 6, 55, 64
15, 89273, Note_on_c, 6, 48, 58
15, 89658, Note_off_c, 6, 48, 64
15, 89750, Note_on_c, 6, 60, 57
15, 89950, Note_off_c, 6, 60, 64
15, 90000, Note_on_c, 6, 60, 58
15, 90143, Note_off_c, 6, 60, 64
15, 90229, Note_on_c, 6, 60, 57
15, 90420, Note_off_c, 6, 60, 64
15, 90458, Note_on_c, 6, 59, 63
15, 90636, Note_off_c, 6, 59, 64
15, 90693, Note_on_c, 6, 57, 47
15, 90892, Note_off_c, 6, 57, 64
15, 90947, Note_on_c, 6, 55, 51
15, 91124, Note_off_c, 6, 55, 64
15, 91187, Note_on_c, 6, 53, 66
15, 91354, Note_off_c, 6, 53, 64
15, 91429, Note_on_c, 6, 52, 68
15, 91508, Note_off_c, 6, 52, 64
15, 91534, Note_on_c, 6, 53, 68
15, 91605, Note_off_c, 6, 53, 64
15, 91664, Note_on_c, 6, 55, 68
15, 91766, Note_off_c, 6, 55, 64
15, 91897, Note_on_c, 6, 43, 68
15, 92022, Note_off_c, 6, 43, 64
15, 92153, Note_on_c, 6, 48, 57
15, 92482, Note_off_c, 6, 48, 64
15, 108007, Note_on_c, 6, 55, 70
15, 108083, Note_off_c, 6, 55, 64
15, 108226, Note_on_c, 6, 48, 61
15, 108303, Note_off_c, 6, 48, 64
15, 108466, Note_on_c, 6, 43, 70
15, 108581, Note_off_c, 6, 43, 64
15, 108707, Note_on_c, 6, 55, 76
15, 108792, Note_off_c, 6, 55, 64
15, 108940, Note_on_c, 6, 53, 76
15, 109013, Note_off_c, 6, 53, 64
15, 109179, Note_on_c, 6, 52, 72
15, 109257, Note_off_c, 6, 52, 64
15, 109422, Note_on_c, 6, 57, 78
15, 109527, Note_off_c, 6, 57, 64
15, 109656, Note_on_c, 6, 55, 70
15, 109748, Note_off_c, 6, 55, 64
15, 109902, Note_on_c, 6, 53, 70
15, 109995, Note_off_c, 6, 53, 64
15, 110141, Note_on_c, 6, 52, 70
15, 110233, Note_off_c, 6, 52, 64
15, 110373, Note_on_c, 6, 50, 70
15, 110479, Note_off_c, 6, 50, 64
15, 110597, Note_on_c, 6, 58, 70
15, 110694, Note_off_c, 6, 58, 64
15, 110856, Note_on_c, 6, 57, 80
15, 110943, Note_off_c, 6, 57, 64
15, 111096, Note_on_c, 6, 45, 66
15, 111182, Note_off_c, 6, 45, 64
15, 111346, Note_on_c, 6, 50, 82
15, 111447, Note_off_c, 6, 50, 64
15, 111584, Note_on_c, 6, 48, 80
15, 111673, Note_off_c, 6, 48, 64
15, 111826, Note_on_c, 6, 47, 72
15, 111925, Note_off_c, 6, 47, 64
15, 112066, Note_on_c, 6, 43, 68
15, 112155, Note_off_c, 6, 43, 64
15, 112302, Note_on_c, 6, 48, 82
15, 112396, Note_off_c, 6, 48, 64
15, 112534, Note_on_c, 6, 47, 62
15, 112622, Note_off_c, 6, 47, 64
15, 112775, Note_on_c, 6, 45, 66
15, 112874, Note_off_c, 6, 45, 64
15, 113016, Note_on_c, 6, 57, 76
15, 113112, Note_off_c, 6, 57, 64
15, 113264, Note_on_c, 6, 59, 89
15, 113362, Note_off_c, 6, 59, 64
15, 113490, Note_on_c, 6, 57, 70
15, 113581, Note_off_c, 6, 57, 64
15, 113736, Note_on_c, 6, 56, 68
15, 113826, Note_off_c, 6, 56, 64
15, 113977, Note_on_c, 6, 52, 80
15, 114055, Note_off_c, 6, 52, 64
15, 114223, Note_on_c, 6, 57, 82
15, 114315, Note_off_c, 6, 57, 64
15, 114461, Note_on_c, 6, 53, 76
15, 114536, Note_off_c, 6, 53, 64
15, 114688, Note_on_c, 6, 50, 85
15, 114768, Note_off_c, 6, 50, 64
15, 114940, Note_on_c, 6, 52, 80
15, 115012, Note_off_c, 6, 52, 64
15, 115195, Note_on_c, 6, 45, 80
15, 115305, Note_off_c, 6, 45, 64
15, 115434, Note_on_c, 6, 52, 63
15, 115526, Note_off_c, 6, 52, 64
15, 115668, Note_on_c, 6, 57, 89
15, 115773, Note_off_c, 6, 57, 64
15, 115905, Note_on_c, 6, 55, 70
15, 115996, Note_off_c, 6, 55, 64
15, 116147, Note_on_c, 6, 53, 64
15, 116258, Note_off_c, 6, 53, 64
15, 116385, Note_on_c, 6, 52, 63
15, 116474, Note_off_c, 6, 52, 64
15, 116625, Note_on_c, 6, 53, 70
15, 116714, Note_off_c, 6, 53, 64
15, 116848, Note_on_c, 6, 50, 64
15, 116933, Note_off_c, 6, 50, 64
15, 117100, Note_on_c, 6, 55, 70
15, 117237, Note_off_c, 6, 55, 64
15, 117342, Note_on_c, 6, 57, 74
15, 117460, Note_on_c, 6, 53, 63
15, 117462, Note_off_c, 6, 57, 64
15, 117540, Note_off_c, 6, 53, 64
15, 117584, Note_on_c, 6, 57, 85
15, 117704, Note_on_c, 6, 55, 70
15, 117727, Note_off_c, 6, 57, 64
15, 117813, Note_on_c, 6, 53, 63
15, 117829, Note_off_c, 6, 55, 64
15, 117934, Note_off_c, 6, 53, 64
15, 117936, Note_on_c, 6, 52, 57
15, 118015, Note_off_c, 6, 52, 64
15, 118074, Note_on_c, 6, 57, 63
15, 118163, Note_off_c, 6, 57, 64
15, 118310, Note_on_c, 6, 55, 63
15, 118402, Note_off_c, 6, 55, 64
15, 118553, Note_on_c, 6, 57, 68
15, 118634, Note_off_c, 6, 57, 64
15, 118775, Note_on_c, 6, 53, 62
15, 118846, Note_off_c, 6, 53, 64
15, 119027, Note_on_c, 6, 59, 64
15, 119157, Note_off_c, 6, 59, 64
15, 119260, Note_on_c, 6, 60, 80
15, 119376, Note_off_c, 6, 60, 64
15, 119377, Note_on_c, 6, 57, 61
15, 119484, Note_off_c, 6, 57, 64
15, 119504, Note_on_c, 6, 60, 76
15, 119609, Note_on_c, 6, 59, 70
15, 119628, Note_off_c, 6, 60, 64
15, 119724, Note_on_c, 6, 57, 58
15, 119730, Note_off_c, 6, 59, 64
15, 119835, Note_off_c, 6, 57, 64
15, 119838, Note_on_c, 6, 55, 60
15, 119921, Note_off_c, 6, 55, 64
15, 119965, Note_on_c, 6, 60, 78
15, 120071, Note_off_c, 6, 60, 64
15, 120215, Note_on_c, 6, 55, 68
15, 120312, Note_off_c, 6, 55, 64
15, 120453, Note_on_c, 6, 52, 78
15, 120546, Note_off_c, 6, 52, 64
15, 120692, Note_on_c, 6, 48, 63
15, 120798, Note_off_c, 6, 48, 64
15, 120945, Note_on_c, 6, 53, 80
15, 121055, Note_off_c, 6, 53, 64
15, 121191, Note_on_c, 6, 52, 61
15, 121294, Note_off_c, 6, 52, 64
15, 121423, Note_on_c, 6, 50, 60
15, 121530, Note_off_c, 6, 50, 64
15, 121664, Note_on_c, 6, 53, 74
15, 121764, Note_off_c, 6, 53, 64
15, 121894, Note_on_c, 6, 52, 76
15, 121999, Note_off_c, 6, 52, 64
15, 122142, Note_on_c, 6, 53, 82
15, 122227, Note_off_c, 6, 53, 64
15, 122376, Note_on_c, 6, 55, 78
15, 122460, Note_off_c, 6, 55, 64
15, 122618, Note_on_c, 6, 43, 80
15, 122712, Note_off_c, 6, 43, 64
15, 122869, Note_on_c, 6, 36, 66
15, 123154, Note_off_c, 6, 36, 64
15, 123154, End_track
0, 0, End_of_file
