0, 0, Header, 1, 21, 240
1, 0, Start_track
1, 0, Time_signature, 6, 3, 36, 8
1, 0, Tempo, 392157
1, 103728, Tempo, 422535
1, 103944, Tempo, 447761
1, 104172, Tempo, 476190
1, 104400, Tempo, 500000
1, 104400, End_track
2, 0, Start_track
2, 0, Title_t, "Trumpet"
2, 0, Program_c, 0, 56
2, 0, Control_c, 0, 7, 127
2, 1294, Note_on_c, 0, 74, 82
2, 1347, Note_off_c, 0, 74, 64
2, 1418, Note_on_c, 0, 81, 87
2, 1680, Note_off_c, 0, 81, 64
2, 1772, Note_on_c, 0, 83, 85
2, 2036, Note_off_c, 0, 83, 64
2, 2130, Note_on_c, 0, 81, 93
2, 2564, Note_off_c, 0, 81, 64
2, 2612, Note_on_c, 0, 83, 80
2, 2662, Note_off_c, 0, 83, 64
2, 2733, Note_on_c, 0, 85, 74
2, 2785, Note_off_c, 0, 85, 64
2, 2859, Note_on_c, 0, 86, 89
2, 2970, Note_on_c, 0, 85, 74
2, 2982, Note_off_c, 0, 86, 64
2, 3031, Note_off_c, 0, 85, 64
2, 3091, Note_on_c, 0, 83, 66
2, 3137, Note_off_c, 0, 83, 64
2, 3224, Note_on_c, 0, 81, 89
2, 3329, Note_on_c, 0, 83, 70
2, 3335, Note_off_c, 0, 81, 64
2, 3379, Note_off_c, 0, 83, 64
2, 3456, Note_on_c, 0, 79, 74
2, 3499, Note_off_c, 0, 79, 64
2, 3594, Note_on_c, 0, 78, 87
2, 3697, Note_on_c, 0, 76, 68
2, 3708, Note_off_c, 0, 78, 64
2, 3758, Note_off_c, 0, 76, 64
2, 3824, Note_on_c, 0, 78, 80
2, 3862, Note_off_c, 0, 78, 64
2, 3968, Note_on_c, 0, 74, 93
2, 4174, Note_off_c, 0, 74, 64
2, 7069, Note_on_c, 0, 76, 87
2, 7114, Note_off_c, 0, 76, 64
2, 7194, Note_on_c, 0, 81, 98
2, 7299, Note_on_c, 0, 79, 85
2, 7315, Note_off_c, 0, 81, 64
2, 7380, Note_off_c, 0, 79, 64
2, 7420, Note_on_c, 0, 81, 70
2, 7467, Note_off_c, 0, 81, 64
2, 7547, Note_on_c, 0, 81, 98
2, 7655, Note_on_c, 0, 79, 68
2, 7665, Note_off_c, 0, 81, 64
2, 7721, Note_off_c, 0, 79, 64
2, 7770, Note_on_c, 0, 81, 82
2, 7817, Note_off_c, 0, 81, 64
2, 7898, Note_on_c, 0, 81, 93
2, 8318, Note_off_c, 0, 81, 64
2, 8375, Note_on_c, 0, 83, 82
2, 8429, Note_off_c, 0, 83, 64
2, 8493, Note_on_c, 0, 81, 89
2, 8540, Note_off_c, 0, 81, 64
2, 8611, Note_on_c, 0, 79, 98
2, 8710, Note_on_c, 0, 78, 66
2, 8735, Note_off_c, 0, 79, 64
2, 8788, Note_off_c, 0, 78, 64
2, 8840, Note_on_c, 0, 79, 78
2, 8889, Note_off_c, 0, 79, 64
2, 8965, Note_on_c, 0, 79, 95
2, 9072, Note_on_c, 0, 78, 70
2, 9086, Note_off_c, 0, 79, 64
2, 9145, Note_off_c, 0, 78, 64
2, 9195, Note_on_c, 0, 79, 85
2, 9241, Note_off_c, 0, 79, 64
2, 9326, Note_on_c, 0, 79, 98
2, 9744, Note_off_c, 0, 79, 64
2, 9810, Note_on_c, 0, 81, 85
2, 9859, Note_off_c, 0, 81, 64
2, 9921, Note_on_c, 0, 79, 87
2, 9973, Note_off_c, 0, 79, 64
2, 10046, Note_on_c, 0, 78, 100
2, 10280, Note_off_c, 0, 78, 64
2, 17138, Note_on_c, 0, 86, 87
2, 17186, Note_off_c, 0, 86, 64
2, 17266, Note_on_c, 0, 85, 100
2, 17366, Note_on_c, 0, 83, 72
2, 17380, Note_off_c, 0, 85, 64
2, 17436, Note_off_c, 0, 83, 64
2, 17488, Note_on_c, 0, 81, 72
2, 17533, Note_off_c, 0, 81, 64
2, 17606, Note_on_c, 0, 83, 98
2, 17714, Note_on_c, 0, 81, 68
2, 17720, Note_off_c, 0, 83, 64
2, 17768, Note_off_c, 0, 81, 64
2, 17835, Note_on_c, 0, 80, 82
2, 17880, Note_off_c, 0, 80, 64
2, 17971, Note_on_c, 0, 81, 102
2, 18355, Note_off_c, 0, 81, 64
2, 35818, Note_on_c, 0, 69, 95
2, 35880, Note_off_c, 0, 69, 64
2, 35951, Note_on_c, 0, 76, 98
2, 36231, Note_off_c, 0, 76, 64
2, 36315, Note_on_c, 0, 78, 85
2, 36557, Note_off_c, 0, 78, 64
2, 36686, Note_on_c, 0, 76, 100
2, 37219, Note_off_c, 0, 76, 64
2, 38748, Note_on_c, 0, 66, 98
2, 38809, Note_off_c, 0, 66, 64
2, 38874, Note_on_c, 0, 78, 105
2, 39144, Note_off_c, 0, 78, 64
2, 39233, Note_on_c, 0, 79, 100
2, 39481, Note_off_c, 0, 79, 64
2, 39599, Note_on_c, 0, 78, 102
2, 40157, Note_off_c, 0, 78, 64
2, 41621, Note_on_c, 0, 66, 85
2, 41676, Note_off_c, 0, 66, 64
2, 41747, Note_on_c, 0, 74, 100
2, 41861, Note_on_c, 0, 76, 72
2, 41871, Note_off_c, 0, 74, 64
2, 41929, Note_off_c, 0, 76, 64
2, 41972, Note_on_c, 0, 74, 70
2, 42015, Note_off_c, 0, 74, 64
2, 42103, Note_on_c, 0, 74, 98
2, 42204, Note_on_c, 0, 76, 72
2, 42207, Note_off_c, 0, 74, 64
2, 42273, Note_off_c, 0, 76, 64
2, 42321, Note_on_c, 0, 74, 80
2, 42369, Note_off_c, 0, 74, 64
2, 42456, Note_on_c, 0, 74, 100
2, 42856, Note_off_c, 0, 74, 64
2, 42916, Note_on_c, 0, 76, 82
2, 42982, Note_off_c, 0, 76, 64
2, 43024, Note_on_c, 0, 74, 89
2, 43103, Note_off_c, 0, 74, 64
2, 43158, Note_on_c, 0, 76, 93
2, 43270, Note_off_c, 0, 76, 64
2, 43391, Note_on_c, 0, 81, 87
2, 43454, Note_off_c, 0, 81, 64
2, 43507, Note_on_c, 0, 81, 89
2, 43641, Note_off_c, 0, 81, 64
2, 43756, Note_on_c, 0, 80, 87
2, 43823, Note_off_c, 0, 80, 64
2, 43885, Note_on_c, 0, 81, 98
2, 43989, Note_off_c, 0, 81, 64
2, 44117, Note_on_c, 0, 76, 85
2, 44184, Note_off_c, 0, 76, 64
2, 44246, Note_on_c, 0, 76, 85
2, 44339, Note_off_c, 0, 76, 64
2, 44483, Note_on_c, 0, 69, 85
2, 44549, Note_off_c, 0, 69, 64
2, 44613, Note_on_c, 0, 79, 102
2, 44722, Note_on_c, 0, 78, 80
2, 44728, Note_off_c, 0, 79, 64
2, 44799, Note_off_c, 0, 78, 64
2, 44844, Note_on_c, 0, 79, 72
2, 44887, Note_off_c, 0, 79, 64
2, 44979, Note_on_c, 0, 79, 95
2, 45085, Note_on_c, 0, 78, 64
2, 45097, Note_off_c, 0, 79, 64
2, 45152, Note_off_c, 0, 78, 64
2, 45200, Note_on_c, 0, 79, 72
2, 45256, Note_off_c, 0, 79, 64
2, 45335, Note_on_c, 0, 79, 98
2, 45738, Note_off_c, 0, 79, 64
2, 45832, Note_on_c, 0, 81, 72
2, 45899, Note_off_c, 0, 81, 64
2, 45951, Note_on_c, 0, 79, 82
2, 46014, Note_off_c, 0, 79, 64
2, 46074, Note_on_c, 0, 81, 102
2, 46188, Note_on_c, 0, 79, 66
2, 46203, Note_off_c, 0, 81, 64
2, 46256, Note_off_c, 0, 79, 64
2, 46304, Note_on_c, 0, 78, 70
2, 46365, Note_off_c, 0, 78, 64
2, 46427, Note_on_c, 0, 76, 89
2, 46539, Note_on_c, 0, 78, 76
2, 46557, Note_off_c, 0, 76, 64
2, 46619, Note_off_c, 0, 78, 64
2, 46658, Note_on_c, 0, 79, 74
2, 46710, Note_off_c, 0, 79, 64
2, 46788, Note_on_c, 0, 78, 100
2, 46897, Note_on_c, 0, 76, 68
2, 46912, Note_off_c, 0, 78, 64
2, 46980, Note_off_c, 0, 76, 64
2, 47010, Note_on_c, 0, 78, 80
2, 47054, Note_off_c, 0, 78, 64
2, 47139, Note_on_c, 0, 74, 100
2, 47404, Note_off_c, 0, 74, 64
2, 53127, Note_on_c, 0, 74, 82
2, 53190, Note_off_c, 0, 74, 64
2, 53258, Note_on_c, 0, 81, 91
2, 53508, Note_off_c, 0, 81, 64
2, 53617, Note_on_c, 0, 83, 89
2, 53834, Note_off_c, 0, 83, 64
2, 53983, Note_on_c, 0, 84, 100
2, 54463, Note_off_c, 0, 84, 64
2, 54495, Note_on_c, 0, 83, 82
2, 54558, Note_off_c, 0, 83, 64
2, 54607, Note_on_c, 0, 81, 80
2, 54665, Note_off_c, 0, 81, 64
2, 54722, Note_on_c, 0, 83, 102
2, 54829, Note_on_c, 0, 81, 72
2, 54846, Note_off_c, 0, 83, 64
2, 54914, Note_off_c, 0, 81, 64
2, 54955, Note_on_c, 0, 79, 72
2, 55005, Note_off_c, 0, 79, 64
2, 55078, Note_on_c, 0, 81, 102
2, 55184, Note_on_c, 0, 79, 78
2, 55194, Note_off_c, 0, 81, 64
2, 55260, Note_off_c, 0, 79, 64
2, 55299, Note_on_c, 0, 78, 78
2, 55362, Note_off_c, 0, 78, 64
2, 55424, Note_on_c, 0, 79, 98
2, 55770, Note_off_c, 0, 79, 64
2, 63571, Note_on_c, 0, 81, 80
2, 63652, Note_off_c, 0, 81, 64
2, 63691, Note_on_c, 0, 83, 76
2, 63770, Note_off_c, 0, 83, 64
2, 63807, Note_on_c, 0, 85, 89
2, 63877, Note_off_c, 0, 85, 64
2, 63927, Note_on_c, 0, 86, 85
2, 63995, Note_off_c, 0, 86, 64
2, 64057, Note_on_c, 0, 81, 89
2, 64137, Note_off_c, 0, 81, 64
2, 64162, Note_on_c, 0, 83, 80
2, 64230, Note_off_c, 0, 83, 64
2, 64281, Note_on_c, 0, 81, 85
2, 64364, Note_off_c, 0, 81, 64
2, 64409, Note_on_c, 0, 79, 87
2, 64466, Note_off_c, 0, 79, 64
2, 64519, Note_on_c, 0, 78, 76
2, 64582, Note_off_c, 0, 78, 64
2, 64647, Note_on_c, 0, 76, 87
2, 64713, Note_off_c, 0, 76, 64
2, 64784, Note_on_c, 0, 74, 87
2, 65059, Note_off_c, 0, 74, 64
2, 68997, Note_on_c, 0, 85, 82
2, 69070, Note_off_c, 0, 85, 64
2, 69118, Note_on_c, 0, 86, 91
2, 69221, Note_off_c, 0, 86, 64
2, 69347, Note_on_c, 0, 81, 80
2, 69411, Note_off_c, 0, 81, 64
2, 69474, Note_on_c, 0, 78, 85
2, 69547, Note_off_c, 0, 78, 64
2, 69577, Note_on_c, 0, 76, 91
2, 69644, Note_off_c, 0, 76, 64
2, 69703, Note_on_c, 0, 74, 91
2, 69770, Note_off_c, 0, 74, 64
2, 69843, Note_on_c, 0, 74, 98
2, 70253, Note_off_c, 0, 74, 64
2, 70253, End_track
3, 0, Start_track
3, 0, Title_t, "Trumpet"
3, 0, Program_c, 1, 56
3, 0, Control_c, 1, 7, 127
3, 1297, Note_on_c, 1, 69, 85
3, 1350, Note_off_c, 1, 69, 64
3, 1420, Note_on_c, 1, 74, 93
3, 1663, Note_off_c, 1, 74, 64
3, 1771, Note_on_c, 1, 79, 87
3, 1991, Note_off_c, 1, 79, 64
3, 2139, Note_on_c, 1, 74, 93
3, 2576, Note_off_c, 1, 74, 64
3, 2731, Note_on_c, 1, 79, 85
3, 2782, Note_off_c, 1, 79, 64
3, 2855, Note_on_c, 1, 81, 95
3, 3038, Note_off_c, 1, 81, 64
3, 3104, Note_on_c, 1, 79, 80
3, 3152, Note_off_c, 1, 79, 64
3, 3222, Note_on_c, 1, 78, 87
3, 3378, Note_off_c, 1, 78, 64
3, 3457, Note_on_c, 1, 76, 68
3, 3502, Note_off_c, 1, 76, 64
3, 3592, Note_on_c, 1, 74, 95
3, 3733, Note_off_c, 1, 74, 64
3, 3828, Note_on_c, 1, 69, 82
3, 3864, Note_off_c, 1, 69, 64
3, 3960, Note_on_c, 1, 69, 98
3, 4187, Note_off_c, 1, 69, 64
3, 7057, Note_on_c, 1, 76, 89
3, 7102, Note_off_c, 1, 76, 64
3, 7187, Note_on_c, 1, 78, 93
3, 7300, Note_on_c, 1, 76, 68
3, 7312, Note_off_c, 1, 78, 64
3, 7368, Note_off_c, 1, 76, 64
3, 7424, Note_on_c, 1, 78, 80
3, 7467, Note_off_c, 1, 78, 64
3, 7548, Note_on_c, 1, 78, 98
3, 7660, Note_on_c, 1, 76, 72
3, 7675, Note_off_c, 1, 78, 64
3, 7716, Note_off_c, 1, 76, 64
3, 7773, Note_on_c, 1, 78, 85
3, 7810, Note_off_c, 1, 78, 64
3, 7902, Note_on_c, 1, 78, 93
3, 8316, Note_off_c, 1, 78, 64
3, 8383, Note_on_c, 1, 79, 78
3, 8429, Note_off_c, 1, 79, 64
3, 8504, Note_on_c, 1, 78, 89
3, 8550, Note_off_c, 1, 78, 64
3, 8625, Note_on_c, 1, 76, 100
3, 8720, Note_on_c, 1, 74, 80
3, 8740, Note_off_c, 1, 76, 64
3, 8794, Note_off_c, 1, 74, 64
3, 8844, Note_on_c, 1, 76, 85
3, 8887, Note_off_c, 1, 76, 64
3, 8974, Note_on_c, 1, 76, 102
3, 9084, Note_on_c, 1, 74, 68
3, 9100, Note_off_c, 1, 76, 64
3, 9149, Note_off_c, 1, 74, 64
3, 9205, Note_on_c, 1, 76, 85
3, 9252, Note_off_c, 1, 76, 64
3, 9336, Note_on_c, 1, 76, 102
3, 9757, Note_off_c, 1, 76, 64
3, 9820, Note_on_c, 1, 78, 82
3, 9868, Note_off_c, 1, 78, 64
3, 9934, Note_on_c, 1, 76, 93
3, 9980, Note_off_c, 1, 76, 64
3, 10069, Note_on_c, 1, 74, 102
3, 10319, Note_off_c, 1, 74, 64
3, 17146, Note_on_c, 1, 83, 93
3, 17191, Note_off_c, 1, 83, 64
3, 17274, Note_on_c, 1, 81, 100
3, 17415, Note_off_c, 1, 81, 64
3, 17503, Note_on_c, 1, 76, 98
3, 17544, Note_off_c, 1, 76, 64
3, 17628, Note_on_c, 1, 76, 102
3, 17772, Note_off_c, 1, 76, 64
3, 17853, Note_on_c, 1, 76, 102
3, 17892, Note_off_c, 1, 76, 64
3, 17974, Note_on_c, 1, 76, 105
3, 18348, Note_off_c, 1, 76, 64
3, 35841, Note_on_c, 1, 69, 98
3, 35894, Note_off_c, 1, 69, 64
3, 35966, Note_on_c, 1, 69, 100
3, 36077, Note_on_c, 1, 66, 82
3, 36078, Note_off_c, 1, 69, 64
3, 36145, Note_off_c, 1, 66, 64
3, 36201, Note_on_c, 1, 69, 80
3, 36259, Note_off_c, 1, 69, 64
3, 36322, Note_on_c, 1, 74, 100
3, 36428, Note_off_c, 1, 74, 64
3, 36434, Note_on_c, 1, 69, 80
3, 36507, Note_off_c, 1, 69, 64
3, 36552, Note_on_c, 1, 74, 100
3, 36612, Note_off_c, 1, 74, 64
3, 36691, Note_on_c, 1, 69, 102
3, 37166, Note_off_c, 1, 69, 64
3, 38728, Note_on_c, 1, 76, 95
3, 38786, Note_off_c, 1, 76, 64
3, 38864, Note_on_c, 1, 74, 98
3, 39142, Note_off_c, 1, 74, 64
3, 39228, Note_on_c, 1, 76, 100
3, 39490, Note_off_c, 1, 76, 64
3, 39589, Note_on_c, 1, 74, 102
3, 40165, Note_off_c, 1, 74, 64
3, 43047, Note_on_c, 1, 80, 105
3, 43115, Note_off_c, 1, 80, 64
3, 43153, Note_on_c, 1, 81, 102
3, 43260, Note_off_c, 1, 81, 64
3, 43389, Note_on_c, 1, 78, 85
3, 43452, Note_off_c, 1, 78, 64
3, 43514, Note_on_c, 1, 78, 95
3, 43606, Note_off_c, 1, 78, 64
3, 43741, Note_on_c, 1, 76, 80
3, 43805, Note_off_c, 1, 76, 64
3, 43878, Note_on_c, 1, 76, 102
3, 43981, Note_off_c, 1, 76, 64
3, 44102, Note_on_c, 1, 69, 89
3, 44165, Note_off_c, 1, 69, 64
3, 44247, Note_on_c, 1, 69, 100
3, 44405, Note_off_c, 1, 69, 64
3, 45960, Note_on_c, 1, 76, 87
3, 46024, Note_off_c, 1, 76, 64
3, 46079, Note_on_c, 1, 76, 91
3, 46196, Note_off_c, 1, 76, 64
3, 46307, Note_on_c, 1, 74, 85
3, 46387, Note_off_c, 1, 74, 64
3, 46433, Note_on_c, 1, 74, 82
3, 46520, Note_off_c, 1, 74, 64
3, 46663, Note_on_c, 1, 69, 82
3, 46735, Note_off_c, 1, 69, 64
3, 46799, Note_on_c, 1, 69, 95
3, 46904, Note_off_c, 1, 69, 64
3, 47024, Note_on_c, 1, 74, 89
3, 47094, Note_off_c, 1, 74, 64
3, 47149, Note_on_c, 1, 69, 98
3, 47283, Note_off_c, 1, 69, 64
3, 53139, Note_on_c, 1, 69, 85
3, 53201, Note_off_c, 1, 69, 64
3, 53264, Note_on_c, 1, 74, 100
3, 53494, Note_off_c, 1, 74, 64
3, 53620, Note_on_c, 1, 79, 93
3, 53838, Note_off_c, 1, 79, 64
3, 53971, Note_on_c, 1, 78, 87
3, 54413, Note_off_c, 1, 78, 64
3, 54577, Note_on_c, 1, 78, 85
3, 54630, Note_off_c, 1, 78, 64
3, 54709, Note_on_c, 1, 79, 95
3, 55065, Note_off_c, 1, 79, 64
3, 55304, Note_on_c, 1, 74, 85
3, 55353, Note_off_c, 1, 74, 64
3, 55438, Note_on_c, 1, 74, 102
3, 55812, Note_off_c, 1, 74, 64
3, 63565, Note_on_c, 1, 78, 91
3, 63618, Note_off_c, 1, 78, 64
3, 63694, Note_on_c, 1, 74, 98
3, 63797, Note_off_c, 1, 74, 64
3, 63805, Note_on_c, 1, 76, 74
3, 63878, Note_off_c, 1, 76, 64
3, 63928, Note_on_c, 1, 78, 78
3, 63987, Note_off_c, 1, 78, 64
3, 64050, Note_on_c, 1, 76, 98
3, 64221, Note_off_c, 1, 76, 64
3, 64280, Note_on_c, 1, 78, 76
3, 64337, Note_off_c, 1, 78, 64
3, 64408, Note_on_c, 1, 76, 100
3, 64494, Note_off_c, 1, 76, 64
3, 64515, Note_on_c, 1, 74, 64
3, 64574, Note_off_c, 1, 74, 64
3, 64627, Note_on_c, 1, 69, 87
3, 64685, Note_off_c, 1, 69, 64
3, 64774, Note_on_c, 1, 66, 100
3, 65054, Note_off_c, 1, 66, 64
3, 68984, Note_on_c, 1, 76, 82
3, 69051, Note_off_c, 1, 76, 64
3, 69119, Note_on_c, 1, 81, 102
3, 69197, Note_off_c, 1, 81, 64
3, 69232, Note_on_c, 1, 79, 87
3, 69297, Note_off_c, 1, 79, 64
3, 69352, Note_on_c, 1, 78, 82
3, 69406, Note_off_c, 1, 78, 64
3, 69474, Note_on_c, 1, 78, 102
3, 69552, Note_off_c, 1, 78, 64
3, 69576, Note_on_c, 1, 79, 93
3, 69643, Note_off_c, 1, 79, 64
3, 69687, Note_on_c, 1, 81, 87
3, 69754, Note_off_c, 1, 81, 64
3, 69815, Note_on_c, 1, 79, 98
3, 69924, Note_on_c, 1, 78, 78
3, 69932, Note_off_c, 1, 79, 64
3, 69971, Note_off_c, 1, 78, 64
3, 69977, Note_on_c, 1, 79, 80
3, 70022, Note_on_c, 1, 78, 72
3, 70025, Note_off_c, 1, 79, 64
3, 70055, Note_on_c, 1, 79, 87
3, 70062, Note_off_c, 1, 78, 64
3, 70100, Note_on_c, 1, 78, 91
3, 70113, Note_off_c, 1, 79, 64
3, 70356, Note_off_c, 1, 78, 64
3, 70356, End_track
4, 0, Start_track
4, 0, Title_t, "Trumpet"
4, 0, Program_c, 2, 56
4, 0, Control_c, 2, 7, 100
4, 1306, Note_on_c, 2, 66, 98
4, 1344, Note_off_c, 2, 66, 64
4, 1415, Note_on_c, 2, 66, 100
4, 1667, Note_off_c, 2, 66, 64
4, 1778, Note_on_c, 2, 62, 95
4, 2013, Note_off_c, 2, 62, 64
4, 2125, Note_on_c, 2, 66, 98
4, 2544, Note_off_c, 2, 66, 64
4, 2704, Note_on_c, 2, 69, 89
4, 2770, Note_off_c, 2, 69, 64
4, 2855, Note_on_c, 2, 62, 95
4, 2993, Note_off_c, 2, 62, 64
4, 3093, Note_on_c, 2, 74, 91
4, 3142, Note_off_c, 2, 74, 64
4, 3206, Note_on_c, 2, 74, 95
4, 3317, Note_off_c, 2, 74, 64
4, 3447, Note_on_c, 2, 69, 100
4, 3490, Note_off_c, 2, 69, 64
4, 3575, Note_on_c, 2, 69, 107
4, 3706, Note_off_c, 2, 69, 64
4, 3826, Note_on_c, 2, 66, 100
4, 3864, Note_off_c, 2, 66, 64
4, 3964, Note_on_c, 2, 66, 113
4, 4125, Note_off_c, 2, 66, 64
4, 17139, Note_on_c, 2, 76, 98
4, 17190, Note_off_c, 2, 76, 64
4, 17269, Note_on_c, 2, 76, 100
4, 17430, Note_off_c, 2, 76, 64
4, 17499, Note_on_c, 2, 76, 89
4, 17544, Note_off_c, 2, 76, 64
4, 17628, Note_on_c, 2, 74, 102
4, 17754, Note_off_c, 2, 74, 64
4, 17839, Note_on_c, 2, 74, 80
4, 17878, Note_off_c, 2, 74, 64
4, 17967, Note_on_c, 2, 69, 110
4, 18342, Note_off_c, 2, 69, 64
4, 35835, Note_on_c, 2, 69, 91
4, 35886, Note_off_c, 2, 69, 64
4, 35964, Note_on_c, 2, 69, 102
4, 36184, Note_off_c, 2, 69, 64
4, 36302, Note_on_c, 2, 66, 98
4, 36378, Note_off_c, 2, 66, 64
4, 36432, Note_on_c, 2, 62, 100
4, 36497, Note_off_c, 2, 62, 64
4, 36543, Note_on_c, 2, 66, 95
4, 36598, Note_off_c, 2, 66, 64
4, 36672, Note_on_c, 2, 69, 100
4, 37239, Note_off_c, 2, 69, 64
4, 38749, Note_on_c, 2, 66, 100
4, 38795, Note_off_c, 2, 66, 64
4, 38868, Note_on_c, 2, 66, 102
4, 39244, Note_off_c, 2, 66, 64
4, 39580, Note_on_c, 2, 66, 119
4, 40198, Note_off_c, 2, 66, 64
4, 43051, Note_on_c, 2, 76, 89
4, 43118, Note_off_c, 2, 76, 64
4, 43172, Note_on_c, 2, 69, 98
4, 43272, Note_off_c, 2, 69, 64
4, 43389, Note_on_c, 2, 69, 100
4, 43464, Note_off_c, 2, 69, 64
4, 43527, Note_on_c, 2, 62, 98
4, 43618, Note_off_c, 2, 62, 64
4, 43869, Note_on_c, 2, 69, 110
4, 43974, Note_off_c, 2, 69, 64
4, 44103, Note_on_c, 2, 69, 107
4, 44156, Note_off_c, 2, 69, 64
4, 44232, Note_on_c, 2, 69, 110
4, 44462, Note_off_c, 2, 69, 64
4, 45938, Note_on_c, 2, 69, 95
4, 46004, Note_off_c, 2, 69, 64
4, 46069, Note_on_c, 2, 69, 89
4, 46188, Note_off_c, 2, 69, 64
4, 46309, Note_on_c, 2, 78, 80
4, 46385, Note_off_c, 2, 78, 64
4, 46438, Note_on_c, 2, 79, 100
4, 46559, Note_off_c, 2, 79, 64
4, 46661, Note_on_c, 2, 76, 78
4, 46716, Note_off_c, 2, 76, 64
4, 46788, Note_on_c, 2, 74, 93
4, 46882, Note_off_c, 2, 74, 64
4, 47013, Note_on_c, 2, 69, 80
4, 47072, Note_off_c, 2, 69, 64
4, 47153, Note_on_c, 2, 66, 98
4, 47306, Note_off_c, 2, 66, 64
4, 53143, Note_on_c, 2, 66, 102
4, 53196, Note_off_c, 2, 66, 64
4, 53261, Note_on_c, 2, 66, 102
4, 53494, Note_off_c, 2, 66, 64
4, 53620, Note_on_c, 2, 62, 95
4, 53812, Note_off_c, 2, 62, 64
4, 53981, Note_on_c, 2, 69, 98
4, 54397, Note_off_c, 2, 69, 64
4, 54587, Note_on_c, 2, 74, 89
4, 54640, Note_off_c, 2, 74, 64
4, 54726, Note_on_c, 2, 74, 98
4, 55062, Note_off_c, 2, 74, 64
4, 55297, Note_on_c, 2, 62, 91
4, 55342, Note_off_c, 2, 62, 64
4, 55430, Note_on_c, 2, 62, 105
4, 55806, Note_off_c, 2, 62, 64
4, 63563, Note_on_c, 2, 74, 87
4, 63638, Note_off_c, 2, 74, 64
4, 63693, Note_on_c, 2, 62, 107
4, 63795, Note_off_c, 2, 62, 64
4, 63931, Note_on_c, 2, 62, 110
4, 64014, Note_off_c, 2, 62, 64
4, 64054, Note_on_c, 2, 69, 110
4, 64290, Note_off_c, 2, 69, 64
4, 64628, Note_on_c, 2, 69, 110
4, 64683, Note_off_c, 2, 69, 64
4, 64781, Note_on_c, 2, 62, 116
4, 65016, Note_off_c, 2, 62, 64
4, 68984, Note_on_c, 2, 69, 95
4, 69044, Note_off_c, 2, 69, 64
4, 69124, Note_on_c, 2, 66, 107
4, 69206, Note_off_c, 2, 66, 64
4, 69229, Note_on_c, 2, 69, 87
4, 69292, Note_off_c, 2, 69, 64
4, 69332, Note_on_c, 2, 74, 87
4, 69400, Note_off_c, 2, 74, 64
4, 69460, Note_on_c, 2, 74, 100
4, 69561, Note_off_c, 2, 74, 64
4, 69700, Note_on_c, 2, 69, 98
4, 69744, Note_off_c, 2, 69, 64
4, 69837, Note_on_c, 2, 69, 110
4, 70243, Note_off_c, 2, 69, 64
4, 70243, End_track
5, 0, Start_track
5, 0, Title_t, "Timpani"
5, 0, Program_c, 3, 47
5, 0, Control_c, 3, 7, 100
5, 1321, Note_on_c, 3, 50, 100
5, 1352, Note_off_c, 3, 50, 64
5, 1431, Note_on_c, 3, 50, 105
5, 1470, Note_off_c, 3, 50, 64
5, 1480, Note_on_c, 3, 50, 105
5, 1519, Note_off_c, 3, 50, 64
5, 1526, Note_on_c, 3, 50, 87
5, 1558, Note_off_c, 3, 50, 64
5, 1576, Note_on_c, 3, 50, 100
5, 1643, Note_off_c, 3, 50, 64
5, 1663, Note_on_c, 3, 50, 98
5, 1692, Note_off_c, 3, 50, 64
5, 1698, Note_on_c, 3, 50, 64
5, 1726, Note_off_c, 3, 50, 64
5, 1753, Note_on_c, 3, 50, 85
5, 1820, Note_off_c, 3, 50, 64
5, 1843, Note_on_c, 3, 50, 95
5, 1874, Note_off_c, 3, 50, 64
5, 1884, Note_on_c, 3, 50, 85
5, 1912, Note_off_c, 3, 50, 64
5, 1932, Note_on_c, 3, 50, 91
5, 1992, Note_off_c, 3, 50, 64
5, 2017, Note_on_c, 3, 50, 89
5, 2070, Note_off_c, 3, 50, 64
5, 2089, Note_on_c, 3, 50, 85
5, 2154, Note_off_c, 3, 50, 64
5, 2178, Note_on_c, 3, 50, 98
5, 2233, Note_off_c, 3, 50, 64
5, 2263, Note_on_c, 3, 50, 91
5, 2318, Note_off_c, 3, 50, 64
5, 2341, Note_on_c, 3, 50, 85
5, 2394, Note_off_c, 3, 50, 64
5, 2412, Note_on_c, 3, 50, 91
5, 2458, Note_off_c, 3, 50, 64
5, 2485, Note_on_c, 3, 50, 105
5, 2522, Note_off_c, 3, 50, 64
5, 2712, Note_on_c, 3, 45, 82
5, 2760, Note_off_c, 3, 45, 64
5, 2829, Note_on_c, 3, 50, 105
5, 2885, Note_off_c, 3, 50, 64
5, 3074, Note_on_c, 3, 50, 105
5, 3126, Note_off_c, 3, 50, 64
5, 3219, Note_on_c, 3, 45, 110
5, 3273, Note_off_c, 3, 45, 64
5, 3444, Note_on_c, 3, 45, 116
5, 3489, Note_off_c, 3, 45, 64
5, 3565, Note_on_c, 3, 50, 107
5, 3620, Note_off_c, 3, 50, 64
5, 3814, Note_on_c, 3, 50, 107
5, 3854, Note_off_c, 3, 50, 64
5, 3964, Note_on_c, 3, 50, 119
5, 4026, Note_off_c, 3, 50, 64
5, 17131, Note_on_c, 3, 50, 102
5, 17189, Note_off_c, 3, 50, 64
5, 17271, Note_on_c, 3, 45, 116
5, 17346, Note_off_c, 3, 45, 64
5, 17498, Note_on_c, 3, 45, 113
5, 17553, Note_off_c, 3, 45, 64
5, 17618, Note_on_c, 3, 50, 119
5, 17683, Note_off_c, 3, 50, 64
5, 17851, Note_on_c, 3, 50, 119
5, 17896, Note_off_c, 3, 50, 64
5, 17975, Note_on_c, 3, 45, 127
5, 18069, Note_off_c, 3, 45, 64
5, 35831, Note_on_c, 3, 45, 80
5, 35869, Note_off_c, 3, 45, 64
5, 35975, Note_on_c, 3, 45, 100
5, 36012, Note_off_c, 3, 45, 64
5, 36023, Note_on_c, 3, 45, 110
5, 36063, Note_off_c, 3, 45, 64
5, 36076, Note_on_c, 3, 45, 87
5, 36118, Note_off_c, 3, 45, 64
5, 36134, Note_on_c, 3, 45, 102
5, 36169, Note_off_c, 3, 45, 64
5, 36187, Note_on_c, 3, 45, 82
5, 36225, Note_off_c, 3, 45, 64
5, 36237, Note_on_c, 3, 45, 102
5, 36273, Note_off_c, 3, 45, 64
5, 36298, Note_on_c, 3, 45, 72
5, 36335, Note_off_c, 3, 45, 64
5, 36340, Note_on_c, 3, 45, 85
5, 36376, Note_off_c, 3, 45, 64
5, 36408, Note_on_c, 3, 45, 87
5, 36444, Note_off_c, 3, 45, 64
5, 36452, Note_on_c, 3, 45, 72
5, 36487, Note_off_c, 3, 45, 64
5, 36515, Note_on_c, 3, 45, 78
5, 36593, Note_off_c, 3, 45, 64
5, 36620, Note_on_c, 3, 45, 59
5, 36692, Note_off_c, 3, 45, 64
5, 36709, Note_on_c, 3, 45, 82
5, 36750, Note_off_c, 3, 45, 64
5, 36768, Note_on_c, 3, 45, 91
5, 36841, Note_off_c, 3, 45, 64
5, 36870, Note_on_c, 3, 45, 85
5, 36941, Note_off_c, 3, 45, 64
5, 36964, Note_on_c, 3, 45, 87
5, 37007, Note_off_c, 3, 45, 64
5, 37037, Note_on_c, 3, 45, 107
5, 37073, Note_off_c, 3, 45, 64
5, 38883, Note_on_c, 3, 50, 122
5, 38979, Note_off_c, 3, 50, 64
5, 39599, Note_on_c, 3, 50, 122
5, 39710, Note_off_c, 3, 50, 64
5, 43056, Note_on_c, 3, 50, 93
5, 43116, Note_off_c, 3, 50, 64
5, 43174, Note_on_c, 3, 45, 105
5, 43238, Note_off_c, 3, 45, 64
5, 43388, Note_on_c, 3, 45, 107
5, 43450, Note_off_c, 3, 45, 64
5, 43520, Note_on_c, 3, 50, 107
5, 43601, Note_off_c, 3, 50, 64
5, 43884, Note_on_c, 3, 45, 116
5, 43951, Note_off_c, 3, 45, 64
5, 44115, Note_on_c, 3, 45, 107
5, 44161, Note_off_c, 3, 45, 64
5, 44242, Note_on_c, 3, 45, 122
5, 44325, Note_off_c, 3, 45, 64
5, 45925, Note_on_c, 3, 45, 102
5, 45987, Note_off_c, 3, 45, 64
5, 46080, Note_on_c, 3, 45, 116
5, 46150, Note_off_c, 3, 45, 64
5, 46317, Note_on_c, 3, 50, 100
5, 46378, Note_off_c, 3, 50, 64
5, 46436, Note_on_c, 3, 50, 105
5, 46509, Note_off_c, 3, 50, 64
5, 46660, Note_on_c, 3, 45, 107
5, 46716, Note_off_c, 3, 45, 64
5, 46786, Note_on_c, 3, 50, 110
5, 46857, Note_off_c, 3, 50, 64
5, 47024, Note_on_c, 3, 50, 98
5, 47080, Note_off_c, 3, 50, 64
5, 47152, Note_on_c, 3, 50, 113
5, 47236, Note_off_c, 3, 50, 64
5, 53143, Note_on_c, 3, 50, 102
5, 53186, Note_off_c, 3, 50, 64
5, 53271, Note_on_c, 3, 50, 102
5, 53314, Note_off_c, 3, 50, 64
5, 53337, Note_on_c, 3, 50, 100
5, 53372, Note_off_c, 3, 50, 64
5, 53388, Note_on_c, 3, 50, 95
5, 53427, Note_off_c, 3, 50, 64
5, 53436, Note_on_c, 3, 50, 105
5, 53473, Note_off_c, 3, 50, 64
5, 53497, Note_on_c, 3, 50, 80
5, 53532, Note_off_c, 3, 50, 64
5, 53550, Note_on_c, 3, 50, 100
5, 53585, Note_off_c, 3, 50, 64
5, 53603, Note_on_c, 3, 50, 70
5, 53641, Note_off_c, 3, 50, 64
5, 53655, Note_on_c, 3, 50, 102
5, 53694, Note_off_c, 3, 50, 64
5, 53721, Note_on_c, 3, 50, 57
5, 53751, Note_off_c, 3, 50, 64
5, 53767, Note_on_c, 3, 50, 82
5, 53799, Note_off_c, 3, 50, 64
5, 53822, Note_on_c, 3, 50, 57
5, 53858, Note_off_c, 3, 50, 64
5, 53870, Note_on_c, 3, 50, 64
5, 53905, Note_off_c, 3, 50, 64
5, 53938, Note_on_c, 3, 50, 60
5, 53968, Note_off_c, 3, 50, 64
5, 53981, Note_on_c, 3, 50, 95
5, 54019, Note_off_c, 3, 50, 64
5, 54044, Note_on_c, 3, 50, 59
5, 54115, Note_off_c, 3, 50, 64
5, 54137, Note_on_c, 3, 50, 52
5, 54198, Note_off_c, 3, 50, 64
5, 54221, Note_on_c, 3, 50, 60
5, 54261, Note_off_c, 3, 50, 64
5, 54274, Note_on_c, 3, 50, 55
5, 54304, Note_off_c, 3, 50, 64
5, 54339, Note_on_c, 3, 50, 100
5, 54391, Note_off_c, 3, 50, 64
5, 54570, Note_on_c, 3, 50, 93
5, 54612, Note_off_c, 3, 50, 64
5, 54713, Note_on_c, 3, 50, 105
5, 54782, Note_off_c, 3, 50, 64
5, 55317, Note_on_c, 3, 50, 110
5, 55369, Note_off_c, 3, 50, 64
5, 55444, Note_on_c, 3, 50, 113
5, 55529, Note_off_c, 3, 50, 64
5, 63583, Note_on_c, 3, 50, 107
5, 63632, Note_off_c, 3, 50, 64
5, 63703, Note_on_c, 3, 50, 116
5, 63809, Note_off_c, 3, 50, 64
5, 64289, Note_on_c, 3, 50, 100
5, 64345, Note_off_c, 3, 50, 64
5, 64410, Note_on_c, 3, 50, 102
5, 64486, Note_off_c, 3, 50, 64
5, 64635, Note_on_c, 3, 45, 89
5, 64698, Note_off_c, 3, 45, 64
5, 64783, Note_on_c, 3, 50, 116
5, 64893, Note_off_c, 3, 50, 64
5, 68992, Note_on_c, 3, 45, 105
5, 69065, Note_off_c, 3, 45, 64
5, 69121, Note_on_c, 3, 50, 105
5, 69202, Note_off_c, 3, 50, 64
5, 69340, Note_on_c, 3, 50, 105
5, 69414, Note_off_c, 3, 50, 64
5, 69466, Note_on_c, 3, 45, 113
5, 69542, Note_off_c, 3, 45, 64
5, 69706, Note_on_c, 3, 45, 113
5, 69761, Note_off_c, 3, 45, 64
5, 69837, Note_on_c, 3, 50, 122
5, 69912, Note_off_c, 3, 50, 64
5, 69912, End_track
6, 0, Start_track
6, 0, Title_t, "Oboe"
6, 0, Program_c, 4, 68
6, 0, Control_c, 4, 7, 100
6, 1314, Note_on_c, 4, 62, 105
6, 1375, Note_off_c, 4, 62, 64
6, 1425, Note_on_c, 4, 69, 100
6, 1702, Note_off_c, 4, 69, 64
6, 1784, Note_on_c, 4, 71, 95
6, 2017, Note_off_c, 4, 71, 64
6, 2122, Note_on_c, 4, 69, 91
6, 2550, Note_off_c, 4, 69, 64
6, 2607, Note_on_c, 4, 71, 78
6, 2665, Note_off_c, 4, 71, 64
6, 2734, Note_on_c, 4, 73, 91
6, 2780, Note_off_c, 4, 73, 64
6, 2855, Note_on_c, 4, 74, 98
6, 2969, Note_on_c, 4, 73, 63
6, 2990, Note_off_c, 4, 74, 64
6, 3029, Note_off_c, 4, 73, 64
6, 3088, Note_on_c, 4, 71, 74
6, 3130, Note_off_c, 4, 71, 64
6, 3219, Note_on_c, 4, 69, 98
6, 3326, Note_on_c, 4, 71, 78
6, 3339, Note_off_c, 4, 69, 64
6, 3385, Note_off_c, 4, 71, 64
6, 3445, Note_on_c, 4, 67, 93
6, 3494, Note_off_c, 4, 67, 64
6, 3575, Note_on_c, 4, 66, 100
6, 3696, Note_on_c, 4, 64, 80
6, 3702, Note_off_c, 4, 66, 64
6, 3765, Note_off_c, 4, 64, 64
6, 3810, Note_on_c, 4, 66, 76
6, 3850, Note_off_c, 4, 66, 64
6, 3945, Note_on_c, 4, 62, 105
6, 4065, Note_on_c, 4, 66, 72
6, 4093, Note_off_c, 4, 62, 64
6, 4154, Note_off_c, 4, 66, 64
6, 4194, Note_on_c, 4, 69, 87
6, 4243, Note_off_c, 4, 69, 64
6, 4331, Note_on_c, 4, 74, 100
6, 4578, Note_off_c, 4, 74, 64
6, 4680, Note_on_c, 4, 78, 93
6, 4924, Note_off_c, 4, 78, 64
6, 5042, Note_on_c, 4, 76, 93
6, 5470, Note_off_c, 4, 76, 64
6, 5626, Note_on_c, 4, 74, 80
6, 5688, Note_off_c, 4, 74, 64
6, 5751, Note_on_c, 4, 73, 85
6, 5870, Note_on_c, 4, 71, 82
6, 5892, Note_off_c, 4, 73, 64
6, 5934, Note_off_c, 4, 71, 64
6, 5981, Note_on_c, 4, 69, 78
6, 6035, Note_off_c, 4, 69, 64
6, 6115, Note_on_c, 4, 71, 98
6, 6220, Note_on_c, 4, 73, 68
6, 6251, Note_off_c, 4, 71, 64
6, 6302, Note_off_c, 4, 73, 64
6, 6333, Note_on_c, 4, 74, 80
6, 6383, Note_off_c, 4, 74, 64
6, 6467, Note_on_c, 4, 73, 105
6, 6582, Note_on_c, 4, 71, 64
6, 6612, Note_off_c, 4, 73, 64
6, 6668, Note_off_c, 4, 71, 64
6, 6701, Note_on_c, 4, 73, 87
6, 6750, Note_off_c, 4, 73, 64
6, 6827, Note_on_c, 4, 69, 98
6, 6943, Note_on_c, 4, 73, 66
6, 6965, Note_off_c, 4, 69, 64
6, 7017, Note_off_c, 4, 73, 64
6, 7067, Note_on_c, 4, 76, 78
6, 7106, Note_off_c, 4, 76, 64
6, 7202, Note_on_c, 4, 81, 102
6, 7303, Note_on_c, 4, 79, 72
6, 7315, Note_off_c, 4, 81, 64
6, 7362, Note_off_c, 4, 79, 64
6, 7427, Note_on_c, 4, 81, 95
6, 7476, Note_off_c, 4, 81, 64
6, 7557, Note_on_c, 4, 81, 100
6, 7669, Note_on_c, 4, 79, 78
6, 7682, Note_off_c, 4, 81, 64
6, 7727, Note_off_c, 4, 79, 64
6, 7783, Note_on_c, 4, 81, 93
6, 7828, Note_off_c, 4, 81, 64
6, 7914, Note_on_c, 4, 81, 105
6, 8020, Note_on_c, 4, 79, 66
6, 8043, Note_off_c, 4, 81, 64
6, 8117, Note_off_c, 4, 79, 64
6, 8130, Note_on_c, 4, 81, 80
6, 8169, Note_off_c, 4, 81, 64
6, 8262, Note_on_c, 4, 71, 98
6, 8379, Note_on_c, 4, 75, 72
6, 8395, Note_off_c, 4, 71, 64
6, 8431, Note_off_c, 4, 75, 64
6, 8490, Note_on_c, 4, 78, 98
6, 8540, Note_off_c, 4, 78, 64
6, 8614, Note_on_c, 4, 79, 93
6, 8737, Note_on_c, 4, 78, 95
6, 8756, Note_off_c, 4, 79, 64
6, 8805, Note_off_c, 4, 78, 64
6, 8848, Note_on_c, 4, 79, 91
6, 8896, Note_off_c, 4, 79, 64
6, 8976, Note_on_c, 4, 79, 95
6, 9089, Note_on_c, 4, 78, 58
6, 9115, Note_off_c, 4, 79, 64
6, 9168, Note_off_c, 4, 78, 64
6, 9200, Note_on_c, 4, 79, 87
6, 9249, Note_off_c, 4, 79, 64
6, 9332, Note_on_c, 4, 79, 93
6, 9444, Note_on_c, 4, 78, 89
6, 9462, Note_off_c, 4, 79, 64
6, 9525, Note_off_c, 4, 78, 64
6, 9554, Note_on_c, 4, 79, 85
6, 9603, Note_off_c, 4, 79, 64
6, 9682, Note_on_c, 4, 69, 85
6, 9796, Note_on_c, 4, 73, 70
6, 9817, Note_off_c, 4, 69, 64
6, 9876, Note_off_c, 4, 73, 64
6, 9915, Note_on_c, 4, 76, 85
6, 9960, Note_off_c, 4, 76, 64
6, 10042, Note_on_c, 4, 78, 100
6, 10150, Note_on_c, 4, 80, 74
6, 10177, Note_off_c, 4, 78, 64
6, 10242, Note_off_c, 4, 80, 64
6, 10260, Note_on_c, 4, 81, 76
6, 10314, Note_off_c, 4, 81, 64
6, 10395, Note_on_c, 4, 81, 91
6, 10507, Note_on_c, 4, 80, 89
6, 10524, Note_off_c, 4, 81, 64
6, 10609, Note_off_c, 4, 80, 64
6, 10625, Note_on_c, 4, 81, 80
6, 10676, Note_off_c, 4, 81, 64
6, 10776, Note_on_c, 4, 74, 100
6, 10890, Note_on_c, 4, 76, 82
6, 10910, Note_off_c, 4, 74, 64
6, 11001, Note_off_c, 4, 76, 64
6, 11003, Note_on_c, 4, 78, 63
6, 11056, Note_off_c, 4, 78, 64
6, 11139, Note_on_c, 4, 78, 98
6, 11256, Note_on_c, 4, 76, 66
6, 11279, Note_off_c, 4, 78, 64
6, 11368, Note_off_c, 4, 76, 64
6, 11374, Note_on_c, 4, 78, 68
6, 11433, Note_off_c, 4, 78, 64
6, 11508, Note_on_c, 4, 71, 93
6, 11616, Note_on_c, 4, 73, 58
6, 11642, Note_off_c, 4, 71, 64
6, 11721, Note_off_c, 4, 73, 64
6, 11740, Note_on_c, 4, 74, 70
6, 11789, Note_off_c, 4, 74, 64
6, 11875, Note_on_c, 4, 74, 98
6, 11981, Note_on_c, 4, 73, 62
6, 12002, Note_off_c, 4, 74, 64
6, 12074, Note_off_c, 4, 73, 64
6, 12106, Note_on_c, 4, 74, 78
6, 12153, Note_off_c, 4, 74, 64
6, 12244, Note_on_c, 4, 68, 82
6, 12349, Note_on_c, 4, 69, 72
6, 12355, Note_off_c, 4, 68, 64
6, 12463, Note_off_c, 4, 69, 64
6, 12468, Note_on_c, 4, 71, 70
6, 12518, Note_off_c, 4, 71, 64
6, 12595, Note_on_c, 4, 64, 89
6, 12713, Note_on_c, 4, 68, 78
6, 12742, Note_off_c, 4, 64, 64
6, 12801, Note_off_c, 4, 68, 64
6, 12826, Note_on_c, 4, 71, 74
6, 12886, Note_off_c, 4, 71, 64
6, 12955, Note_on_c, 4, 76, 95
6, 13069, Note_on_c, 4, 74, 68
6, 13082, Note_off_c, 4, 76, 64
6, 13184, Note_on_c, 4, 73, 53
6, 13193, Note_off_c, 4, 74, 64
6, 13253, Note_off_c, 4, 73, 64
6, 13317, Note_on_c, 4, 74, 89
6, 13429, Note_on_c, 4, 73, 59
6, 13448, Note_off_c, 4, 74, 64
6, 13525, Note_off_c, 4, 73, 64
6, 13548, Note_on_c, 4, 71, 64
6, 13606, Note_off_c, 4, 71, 64
6, 13670, Note_on_c, 4, 69, 98
6, 13832, Note_off_c, 4, 69, 64
6, 13908, Note_on_c, 4, 78, 59
6, 13962, Note_off_c, 4, 78, 64
6, 14022, Note_on_c, 4, 69, 93
6, 14195, Note_off_c, 4, 69, 64
6, 14254, Note_on_c, 4, 78, 60
6, 14317, Note_off_c, 4, 78, 64
6, 14385, Note_on_c, 4, 68, 85
6, 14556, Note_off_c, 4, 68, 64
6, 14618, Note_on_c, 4, 76, 70
6, 14686, Note_off_c, 4, 76, 64
6, 14742, Note_on_c, 4, 67, 87
6, 14925, Note_off_c, 4, 67, 64
6, 14968, Note_on_c, 4, 76, 66
6, 15035, Note_off_c, 4, 76, 64
6, 15107, Note_on_c, 4, 66, 82
6, 15291, Note_off_c, 4, 66, 64
6, 15344, Note_on_c, 4, 74, 68
6, 15408, Note_off_c, 4, 74, 64
6, 15468, Note_on_c, 4, 65, 89
6, 15652, Note_off_c, 4, 65, 64
6, 15708, Note_on_c, 4, 74, 82
6, 15759, Note_off_c, 4, 74, 64
6, 15829, Note_on_c, 4, 64, 85
6, 16212, Note_off_c, 4, 64, 64
6, 16272, Note_on_c, 4, 68, 70
6, 16338, Note_off_c, 4, 68, 64
6, 16384, Note_on_c, 4, 71, 80
6, 16427, Note_off_c, 4, 71, 64
6, 16519, Note_on_c, 4, 74, 93
6, 16626, Note_on_c, 4, 80, 72
6, 16652, Note_off_c, 4, 74, 64
6, 16691, Note_off_c, 4, 80, 64
6, 16750, Note_on_c, 4, 83, 78
6, 16803, Note_off_c, 4, 83, 64
6, 16881, Note_on_c, 4, 74, 89
6, 16997, Note_on_c, 4, 73, 62
6, 17019, Note_off_c, 4, 74, 64
6, 17078, Note_off_c, 4, 73, 64
6, 17128, Note_on_c, 4, 71, 85
6, 17180, Note_off_c, 4, 71, 64
6, 17262, Note_on_c, 4, 73, 98
6, 17311, Note_on_c, 4, 74, 80
6, 17330, Note_off_c, 4, 73, 64
6, 17389, Note_off_c, 4, 74, 64
6, 17392, Note_on_c, 4, 76, 80
6, 17442, Note_off_c, 4, 76, 64
6, 17510, Note_on_c, 4, 69, 100
6, 17553, Note_off_c, 4, 69, 64
6, 17627, Note_on_c, 4, 64, 102
6, 17691, Note_off_c, 4, 64, 64
6, 17733, Note_on_c, 4, 69, 89
6, 17785, Note_off_c, 4, 69, 64
6, 17841, Note_on_c, 4, 68, 100
6, 17889, Note_off_c, 4, 68, 64
6, 17972, Note_on_c, 4, 69, 102
6, 18361, Note_off_c, 4, 69, 64
6, 35801, Note_on_c, 4, 69, 89
6, 35854, Note_off_c, 4, 69, 64
6, 35936, Note_on_c, 4, 76, 102
6, 36197, Note_off_c, 4, 76, 64
6, 36316, Note_on_c, 4, 78, 105
6, 36576, Note_off_c, 4, 78, 64
6, 36669, Note_on_c, 4, 76, 98
6, 37088, Note_off_c, 4, 76, 64
6, 37148, Note_on_c, 4, 78, 89
6, 37209, Note_off_c, 4, 78, 64
6, 37260, Note_on_c, 4, 79, 85
6, 37315, Note_off_c, 4, 79, 64
6, 37404, Note_on_c, 4, 78, 105
6, 37502, Note_on_c, 4, 76, 72
6, 37532, Note_off_c, 4, 78, 64
6, 37585, Note_off_c, 4, 76, 64
6, 37625, Note_on_c, 4, 74, 76
6, 37669, Note_off_c, 4, 74, 64
6, 37759, Note_on_c, 4, 73, 100
6, 37875, Note_on_c, 4, 74, 70
6, 37900, Note_off_c, 4, 73, 64
6, 37929, Note_off_c, 4, 74, 64
6, 37999, Note_on_c, 4, 71, 87
6, 38063, Note_off_c, 4, 71, 64
6, 38138, Note_on_c, 4, 70, 100
6, 38242, Note_on_c, 4, 71, 82
6, 38282, Note_off_c, 4, 70, 64
6, 38340, Note_off_c, 4, 71, 64
6, 38375, Note_on_c, 4, 73, 63
6, 38444, Note_off_c, 4, 73, 64
6, 38506, Note_on_c, 4, 66, 95
6, 38610, Note_on_c, 4, 70, 70
6, 38623, Note_off_c, 4, 66, 64
6, 38699, Note_off_c, 4, 70, 64
6, 38734, Note_on_c, 4, 73, 78
6, 38790, Note_off_c, 4, 73, 64
6, 38863, Note_on_c, 4, 78, 105
6, 39143, Note_off_c, 4, 78, 64
6, 39231, Note_on_c, 4, 79, 85
6, 39489, Note_off_c, 4, 79, 64
6, 39592, Note_on_c, 4, 78, 102
6, 40008, Note_off_c, 4, 78, 64
6, 40074, Note_on_c, 4, 76, 82
6, 40149, Note_off_c, 4, 76, 64
6, 40183, Note_on_c, 4, 74, 87
6, 40235, Note_off_c, 4, 74, 64
6, 40307, Note_on_c, 4, 73, 102
6, 40425, Note_on_c, 4, 74, 68
6, 40442, Note_off_c, 4, 73, 64
6, 40473, Note_off_c, 4, 74, 64
6, 40538, Note_on_c, 4, 71, 78
6, 40587, Note_off_c, 4, 71, 64
6, 40665, Note_on_c, 4, 66, 89
6, 40783, Note_on_c, 4, 71, 63
6, 40788, Note_off_c, 4, 66, 64
6, 40842, Note_off_c, 4, 71, 64
6, 40897, Note_on_c, 4, 70, 85
6, 40955, Note_off_c, 4, 70, 64
6, 41031, Note_on_c, 4, 71, 93
6, 41437, Note_off_c, 4, 71, 64
6, 41525, Note_on_c, 4, 74, 74
6, 41586, Note_off_c, 4, 74, 64
6, 41632, Note_on_c, 4, 73, 78
6, 41695, Note_off_c, 4, 73, 64
6, 41761, Note_on_c, 4, 74, 102
6, 41874, Note_on_c, 4, 73, 72
6, 41895, Note_off_c, 4, 74, 64
6, 41932, Note_off_c, 4, 73, 64
6, 41988, Note_on_c, 4, 74, 87
6, 42036, Note_off_c, 4, 74, 64
6, 42107, Note_on_c, 4, 74, 85
6, 42215, Note_on_c, 4, 73, 60
6, 42236, Note_off_c, 4, 74, 64
6, 42291, Note_off_c, 4, 73, 64
6, 42336, Note_on_c, 4, 74, 82
6, 42384, Note_off_c, 4, 74, 64
6, 42457, Note_on_c, 4, 74, 91
6, 42555, Note_on_c, 4, 73, 59
6, 42573, Note_off_c, 4, 74, 64
6, 42651, Note_off_c, 4, 73, 64
6, 42667, Note_on_c, 4, 74, 85
6, 42710, Note_off_c, 4, 74, 64
6, 42798, Note_on_c, 4, 64, 91
6, 42894, Note_on_c, 4, 68, 63
6, 42927, Note_off_c, 4, 64, 64
6, 42966, Note_off_c, 4, 68, 64
6, 43017, Note_on_c, 4, 71, 70
6, 43065, Note_off_c, 4, 71, 64
6, 43169, Note_on_c, 4, 76, 98
6, 43268, Note_on_c, 4, 74, 68
6, 43278, Note_off_c, 4, 76, 64
6, 43349, Note_off_c, 4, 74, 64
6, 43388, Note_on_c, 4, 73, 80
6, 43437, Note_off_c, 4, 73, 64
6, 43515, Note_on_c, 4, 71, 100
6, 43618, Note_on_c, 4, 73, 72
6, 43656, Note_off_c, 4, 71, 64
6, 43709, Note_off_c, 4, 73, 64
6, 43744, Note_on_c, 4, 74, 80
6, 43793, Note_off_c, 4, 74, 64
6, 43868, Note_on_c, 4, 73, 95
6, 43980, Note_on_c, 4, 71, 80
6, 44009, Note_off_c, 4, 73, 64
6, 44058, Note_off_c, 4, 71, 64
6, 44103, Note_on_c, 4, 73, 82
6, 44141, Note_off_c, 4, 73, 64
6, 44237, Note_on_c, 4, 69, 100
6, 44341, Note_on_c, 4, 73, 62
6, 44378, Note_off_c, 4, 69, 64
6, 44419, Note_off_c, 4, 73, 64
6, 44461, Note_on_c, 4, 76, 85
6, 44512, Note_off_c, 4, 76, 64
6, 44601, Note_on_c, 4, 79, 105
6, 44712, Note_on_c, 4, 78, 68
6, 44724, Note_off_c, 4, 79, 64
6, 44775, Note_off_c, 4, 78, 64
6, 44835, Note_on_c, 4, 79, 74
6, 44883, Note_off_c, 4, 79, 64
6, 44961, Note_on_c, 4, 79, 91
6, 45067, Note_on_c, 4, 78, 63
6, 45085, Note_off_c, 4, 79, 64
6, 45126, Note_off_c, 4, 78, 64
6, 45179, Note_on_c, 4, 79, 89
6, 45239, Note_off_c, 4, 79, 64
6, 45325, Note_on_c, 4, 79, 102
6, 45433, Note_on_c, 4, 78, 72
6, 45455, Note_off_c, 4, 79, 64
6, 45511, Note_off_c, 4, 78, 64
6, 45554, Note_on_c, 4, 79, 82
6, 45600, Note_off_c, 4, 79, 64
6, 45679, Note_on_c, 4, 69, 98
6, 45794, Note_on_c, 4, 73, 64
6, 45807, Note_off_c, 4, 69, 64
6, 45881, Note_off_c, 4, 73, 64
6, 45916, Note_on_c, 4, 76, 72
6, 45971, Note_off_c, 4, 76, 64
6, 46055, Note_on_c, 4, 81, 100
6, 46176, Note_on_c, 4, 79, 70
6, 46186, Note_off_c, 4, 81, 64
6, 46241, Note_off_c, 4, 79, 64
6, 46294, Note_on_c, 4, 78, 68
6, 46348, Note_off_c, 4, 78, 64
6, 46426, Note_on_c, 4, 76, 98
6, 46536, Note_on_c, 4, 78, 60
6, 46562, Note_off_c, 4, 76, 64
6, 46632, Note_off_c, 4, 78, 64
6, 46650, Note_on_c, 4, 79, 74
6, 46711, Note_off_c, 4, 79, 64
6, 46791, Note_on_c, 4, 78, 100
6, 46902, Note_on_c, 4, 76, 64
6, 46918, Note_off_c, 4, 78, 64
6, 47011, Note_on_c, 4, 78, 89
6, 47017, Note_off_c, 4, 76, 64
6, 47064, Note_off_c, 4, 78, 64
6, 47145, Note_on_c, 4, 74, 100
6, 47244, Note_on_c, 4, 78, 63
6, 47269, Note_off_c, 4, 74, 64
6, 47344, Note_off_c, 4, 78, 64
6, 47360, Note_on_c, 4, 76, 80
6, 47427, Note_off_c, 4, 76, 64
6, 47498, Note_on_c, 4, 78, 91
6, 47600, Note_on_c, 4, 80, 76
6, 47630, Note_off_c, 4, 78, 64
6, 47684, Note_off_c, 4, 80, 64
6, 47720, Note_on_c, 4, 81, 80
6, 47774, Note_off_c, 4, 81, 64
6, 47850, Note_on_c, 4, 80, 95
6, 47958, Note_on_c, 4, 81, 80
6, 47978, Note_off_c, 4, 80, 64
6, 48038, Note_off_c, 4, 81, 64
6, 48076, Note_on_c, 4, 83, 87
6, 48152, Note_off_c, 4, 83, 64
6, 48208, Note_on_c, 4, 73, 89
6, 48634, Note_off_c, 4, 73, 64
6, 48702, Note_on_c, 4, 80, 80
6, 48766, Note_off_c, 4, 80, 64
6, 48818, Note_on_c, 4, 83, 85
6, 48874, Note_off_c, 4, 83, 64
6, 48943, Note_on_c, 4, 81, 93
6, 49049, Note_on_c, 4, 80, 72
6, 49071, Note_off_c, 4, 81, 64
6, 49131, Note_off_c, 4, 80, 64
6, 49167, Note_on_c, 4, 78, 70
6, 49228, Note_off_c, 4, 78, 64
6, 49301, Note_on_c, 4, 76, 87
6, 49400, Note_on_c, 4, 74, 76
6, 49410, Note_off_c, 4, 76, 64
6, 49492, Note_off_c, 4, 74, 64
6, 49523, Note_on_c, 4, 73, 68
6, 49589, Note_off_c, 4, 73, 64
6, 49669, Note_on_c, 4, 71, 91
6, 50079, Note_off_c, 4, 71, 64
6, 50154, Note_on_c, 4, 78, 78
6, 50214, Note_off_c, 4, 78, 64
6, 50268, Note_on_c, 4, 81, 87
6, 50329, Note_off_c, 4, 81, 64
6, 50392, Note_on_c, 4, 80, 100
6, 50487, Note_on_c, 4, 78, 60
6, 50525, Note_off_c, 4, 80, 64
6, 50586, Note_off_c, 4, 78, 64
6, 50613, Note_on_c, 4, 77, 66
6, 50676, Note_off_c, 4, 77, 64
6, 50743, Note_on_c, 4, 78, 82
6, 50849, Note_on_c, 4, 76, 68
6, 50866, Note_off_c, 4, 78, 64
6, 50936, Note_off_c, 4, 76, 64
6, 50965, Note_on_c, 4, 74, 64
6, 51025, Note_off_c, 4, 74, 64
6, 51101, Note_on_c, 4, 73, 80
6, 51216, Note_on_c, 4, 78, 58
6, 51240, Note_off_c, 4, 73, 64
6, 51285, Note_off_c, 4, 78, 64
6, 51333, Note_on_c, 4, 76, 70
6, 51389, Note_off_c, 4, 76, 64
6, 51467, Note_on_c, 4, 74, 87
6, 51573, Note_on_c, 4, 73, 56
6, 51586, Note_off_c, 4, 74, 64
6, 51669, Note_off_c, 4, 73, 64
6, 51694, Note_on_c, 4, 71, 68
6, 51747, Note_off_c, 4, 71, 64
6, 51827, Note_on_c, 4, 69, 82
6, 51937, Note_on_c, 4, 68, 64
6, 51942, Note_off_c, 4, 69, 64
6, 52038, Note_off_c, 4, 68, 64
6, 52053, Note_on_c, 4, 66, 70
6, 52120, Note_off_c, 4, 66, 64
6, 52183, Note_on_c, 4, 71, 85
6, 52300, Note_on_c, 4, 69, 68
6, 52317, Note_off_c, 4, 71, 64
6, 52366, Note_off_c, 4, 69, 64
6, 52421, Note_on_c, 4, 68, 76
6, 52467, Note_off_c, 4, 68, 64
6, 52547, Note_on_c, 4, 66, 82
6, 52984, Note_off_c, 4, 66, 64
6, 53140, Note_on_c, 4, 62, 82
6, 53203, Note_off_c, 4, 62, 64
6, 53266, Note_on_c, 4, 69, 93
6, 53502, Note_off_c, 4, 69, 64
6, 53622, Note_on_c, 4, 71, 87
6, 53840, Note_off_c, 4, 71, 64
6, 53989, Note_on_c, 4, 72, 98
6, 54393, Note_off_c, 4, 72, 64
6, 54458, Note_on_c, 4, 71, 85
6, 54531, Note_off_c, 4, 71, 64
6, 54562, Note_on_c, 4, 69, 87
6, 54620, Note_off_c, 4, 69, 64
6, 54718, Note_on_c, 4, 71, 105
6, 54814, Note_on_c, 4, 74, 87
6, 54844, Note_off_c, 4, 71, 64
6, 54907, Note_off_c, 4, 74, 64
6, 54938, Note_on_c, 4, 79, 85
6, 54999, Note_off_c, 4, 79, 64
6, 55082, Note_on_c, 4, 69, 91
6, 55189, Note_on_c, 4, 79, 74
6, 55198, Note_off_c, 4, 69, 64
6, 55273, Note_off_c, 4, 79, 64
6, 55289, Note_on_c, 4, 78, 61
6, 55354, Note_off_c, 4, 78, 64
6, 55428, Note_on_c, 4, 79, 98
6, 55541, Note_on_c, 4, 83, 82
6, 55546, Note_off_c, 4, 79, 64
6, 55607, Note_off_c, 4, 83, 64
6, 55649, Note_on_c, 4, 81, 82
6, 55708, Note_off_c, 4, 81, 64
6, 55793, Note_on_c, 4, 83, 98
6, 56238, Note_off_c, 4, 83, 64
6, 56293, Note_on_c, 4, 81, 82
6, 56359, Note_off_c, 4, 81, 64
6, 56402, Note_on_c, 4, 79, 85
6, 56458, Note_off_c, 4, 79, 64
6, 56530, Note_on_c, 4, 78, 98
6, 56636, Note_on_c, 4, 79, 82
6, 56664, Note_off_c, 4, 78, 64
6, 56713, Note_off_c, 4, 79, 64
6, 56748, Note_on_c, 4, 76, 82
6, 56809, Note_off_c, 4, 76, 64
6, 56876, Note_on_c, 4, 78, 98
6, 56983, Note_on_c, 4, 81, 85
6, 57003, Note_off_c, 4, 78, 64
6, 57046, Note_off_c, 4, 81, 64
6, 57106, Note_on_c, 4, 79, 85
6, 57167, Note_off_c, 4, 79, 64
6, 57247, Note_on_c, 4, 81, 98
6, 57656, Note_off_c, 4, 81, 64
6, 57712, Note_on_c, 4, 79, 80
6, 57781, Note_off_c, 4, 79, 64
6, 57830, Note_on_c, 4, 78, 89
6, 57888, Note_off_c, 4, 78, 64
6, 57957, Note_on_c, 4, 76, 98
6, 58058, Note_on_c, 4, 78, 60
6, 58071, Note_off_c, 4, 76, 64
6, 58126, Note_off_c, 4, 78, 64
6, 58187, Note_on_c, 4, 75, 63
6, 58244, Note_off_c, 4, 75, 64
6, 58315, Note_on_c, 4, 76, 89
6, 58424, Note_on_c, 4, 79, 72
6, 58432, Note_off_c, 4, 76, 64
6, 58492, Note_off_c, 4, 79, 64
6, 58538, Note_on_c, 4, 78, 91
6, 58593, Note_off_c, 4, 78, 64
6, 58666, Note_on_c, 4, 79, 89
6, 59108, Note_off_c, 4, 79, 64
6, 59146, Note_on_c, 4, 78, 87
6, 59212, Note_off_c, 4, 78, 64
6, 59257, Note_on_c, 4, 76, 82
6, 59318, Note_off_c, 4, 76, 64
6, 59389, Note_on_c, 4, 74, 91
6, 59499, Note_on_c, 4, 76, 66
6, 59529, Note_off_c, 4, 74, 64
6, 59557, Note_off_c, 4, 76, 64
6, 59621, Note_on_c, 4, 73, 66
6, 59680, Note_off_c, 4, 73, 64
6, 59745, Note_on_c, 4, 74, 85
6, 59853, Note_on_c, 4, 78, 59
6, 59868, Note_off_c, 4, 74, 64
6, 59936, Note_off_c, 4, 78, 64
6, 59974, Note_on_c, 4, 76, 68
6, 60035, Note_off_c, 4, 76, 64
6, 60108, Note_on_c, 4, 78, 100
6, 60209, Note_on_c, 4, 79, 80
6, 60224, Note_off_c, 4, 78, 64
6, 60289, Note_off_c, 4, 79, 64
6, 60333, Note_on_c, 4, 81, 66
6, 60378, Note_off_c, 4, 81, 64
6, 60461, Note_on_c, 4, 71, 95
6, 60565, Note_on_c, 4, 73, 60
6, 60587, Note_off_c, 4, 71, 64
6, 60656, Note_off_c, 4, 73, 64
6, 60687, Note_on_c, 4, 74, 64
6, 60749, Note_off_c, 4, 74, 64
6, 60822, Note_on_c, 4, 76, 91
6, 60931, Note_on_c, 4, 78, 60
6, 60950, Note_off_c, 4, 76, 64
6, 61001, Note_off_c, 4, 78, 64
6, 61047, Note_on_c, 4, 74, 80
6, 61110, Note_off_c, 4, 74, 64
6, 61180, Note_on_c, 4, 73, 85
6, 61291, Note_on_c, 4, 74, 66
6, 61304, Note_off_c, 4, 73, 64
6, 61370, Note_off_c, 4, 74, 64
6, 61421, Note_on_c, 4, 76, 70
6, 61478, Note_off_c, 4, 76, 64
6, 61554, Note_on_c, 4, 78, 100
6, 61661, Note_on_c, 4, 79, 63
6, 61675, Note_off_c, 4, 78, 64
6, 61728, Note_off_c, 4, 79, 64
6, 61781, Note_on_c, 4, 76, 82
6, 61827, Note_off_c, 4, 76, 64
6, 61905, Note_on_c, 4, 74, 93
6, 62013, Note_on_c, 4, 76, 64
6, 62046, Note_off_c, 4, 74, 64
6, 62087, Note_off_c, 4, 76, 64
6, 62130, Note_on_c, 4, 78, 60
6, 62193, Note_off_c, 4, 78, 64
6, 62255, Note_on_c, 4, 79, 87
6, 62369, Note_on_c, 4, 81, 58
6, 62384, Note_off_c, 4, 79, 64
6, 62433, Note_off_c, 4, 81, 64
6, 62494, Note_on_c, 4, 78, 68
6, 62549, Note_off_c, 4, 78, 64
6, 62619, Note_on_c, 4, 76, 91
6, 62716, Note_on_c, 4, 78, 63
6, 62749, Note_off_c, 4, 76, 64
6, 62798, Note_off_c, 4, 78, 64
6, 62841, Note_on_c, 4, 79, 68
6, 62910, Note_off_c, 4, 79, 64
6, 62978, Note_on_c, 4, 81, 89
6, 63086, Note_on_c, 4, 83, 61
6, 63104, Note_off_c, 4, 81, 64
6, 63146, Note_off_c, 4, 83, 64
6, 63203, Note_on_c, 4, 79, 82
6, 63260, Note_off_c, 4, 79, 64
6, 63341, Note_on_c, 4, 78, 93
6, 63781, Note_off_c, 4, 78, 64
6, 63828, Note_on_c, 4, 76, 82
6, 63894, Note_off_c, 4, 76, 64
6, 63936, Note_on_c, 4, 74, 82
6, 64010, Note_off_c, 4, 74, 64
6, 64066, Note_on_c, 4, 76, 95
6, 64167, Note_off_c, 4, 76, 64
6, 64169, Note_on_c, 4, 73, 72
6, 64271, Note_off_c, 4, 73, 64
6, 64271, Note_on_c, 4, 74, 57
6, 64339, Note_off_c, 4, 74, 64
6, 64405, Note_on_c, 4, 69, 89
6, 64521, Note_on_c, 4, 74, 74
6, 64526, Note_off_c, 4, 69, 64
6, 64612, Note_off_c, 4, 74, 64
6, 64646, Note_on_c, 4, 73, 74
6, 64730, Note_off_c, 4, 73, 64
6, 64773, Note_on_c, 4, 62, 95
6, 64866, Note_off_c, 4, 62, 64
6, 65003, Note_on_c, 4, 74, 82
6, 65066, Note_off_c, 4, 74, 64
6, 65139, Note_on_c, 4, 81, 98
6, 65578, Note_off_c, 4, 81, 64
6, 65624, Note_on_c, 4, 83, 78
6, 65696, Note_off_c, 4, 83, 64
6, 65747, Note_on_c, 4, 81, 85
6, 65800, Note_off_c, 4, 81, 64
6, 65874, Note_on_c, 4, 80, 91
6, 65977, Note_on_c, 4, 76, 66
6, 66000, Note_off_c, 4, 80, 64
6, 66048, Note_off_c, 4, 76, 64
6, 66103, Note_on_c, 4, 78, 72
6, 66162, Note_off_c, 4, 78, 64
6, 66230, Note_on_c, 4, 79, 87
6, 66338, Note_on_c, 4, 81, 68
6, 66368, Note_off_c, 4, 79, 64
6, 66411, Note_off_c, 4, 81, 64
6, 66471, Note_on_c, 4, 79, 85
6, 66525, Note_off_c, 4, 79, 64
6, 66586, Note_on_c, 4, 78, 82
6, 66704, Note_on_c, 4, 74, 78
6, 66719, Note_off_c, 4, 78, 64
6, 66783, Note_off_c, 4, 74, 64
6, 66817, Note_on_c, 4, 76, 76
6, 66870, Note_off_c, 4, 76, 64
6, 66942, Note_on_c, 4, 77, 100
6, 67047, Note_on_c, 4, 79, 68
6, 67067, Note_off_c, 4, 77, 64
6, 67126, Note_off_c, 4, 79, 64
6, 67174, Note_on_c, 4, 77, 80
6, 67226, Note_off_c, 4, 77, 64
6, 67302, Note_on_c, 4, 76, 80
6, 67406, Note_on_c, 4, 73, 64
6, 67421, Note_off_c, 4, 76, 64
6, 67484, Note_off_c, 4, 73, 64
6, 67534, Note_on_c, 4, 74, 82
6, 67580, Note_off_c, 4, 74, 64
6, 67661, Note_on_c, 4, 73, 91
6, 67762, Note_on_c, 4, 74, 78
6, 67789, Note_off_c, 4, 73, 64
6, 67852, Note_off_c, 4, 74, 64
6, 67875, Note_on_c, 4, 76, 66
6, 67928, Note_off_c, 4, 76, 64
6, 68010, Note_on_c, 4, 69, 87
6, 68420, Note_off_c, 4, 69, 64
6, 68623, Note_on_c, 4, 81, 82
6, 68703, Note_off_c, 4, 81, 64
6, 68757, Note_on_c, 4, 83, 82
6, 68867, Note_off_c, 4, 83, 64
6, 68993, Note_on_c, 4, 85, 91
6, 69046, Note_off_c, 4, 85, 64
6, 69107, Note_on_c, 4, 85, 98
6, 69178, Note_on_c, 4, 86, 93
6, 69213, Note_off_c, 4, 85, 64
6, 69261, Note_off_c, 4, 86, 64
6, 69345, Note_on_c, 4, 81, 82
6, 69395, Note_off_c, 4, 81, 64
6, 69465, Note_on_c, 4, 79, 87
6, 69503, Note_on_c, 4, 78, 74
6, 69532, Note_off_c, 4, 79, 64
6, 69572, Note_on_c, 4, 76, 72
6, 69590, Note_off_c, 4, 78, 64
6, 69647, Note_off_c, 4, 76, 64
6, 69703, Note_on_c, 4, 74, 93
6, 69754, Note_off_c, 4, 74, 64
6, 69831, Note_on_c, 4, 74, 98
6, 70221, Note_off_c, 4, 74, 64
6, 70221, End_track
7, 0, Start_track
7, 0, Title_t, "Oboe"
7, 0, Program_c, 5, 68
7, 0, Control_c, 5, 7, 100
7, 1301, Note_on_c, 5, 62, 87
7, 1360, Note_off_c, 5, 62, 64
7, 1428, Note_on_c, 5, 69, 98
7, 1686, Note_off_c, 5, 69, 64
7, 1784, Note_on_c, 5, 71, 87
7, 2024, Note_off_c, 5, 71, 64
7, 2129, Note_on_c, 5, 69, 87
7, 2556, Note_off_c, 5, 69, 64
7, 2604, Note_on_c, 5, 71, 78
7, 2662, Note_off_c, 5, 71, 64
7, 2725, Note_on_c, 5, 73, 80
7, 2777, Note_off_c, 5, 73, 64
7, 2855, Note_on_c, 5, 74, 95
7, 2963, Note_on_c, 5, 73, 68
7, 2970, Note_off_c, 5, 74, 64
7, 3049, Note_off_c, 5, 73, 64
7, 3083, Note_on_c, 5, 71, 66
7, 3123, Note_off_c, 5, 71, 64
7, 3216, Note_on_c, 5, 69, 98
7, 3321, Note_on_c, 5, 71, 78
7, 3339, Note_off_c, 5, 69, 64
7, 3401, Note_off_c, 5, 71, 64
7, 3445, Note_on_c, 5, 67, 72
7, 3492, Note_off_c, 5, 67, 64
7, 3584, Note_on_c, 5, 66, 102
7, 3700, Note_on_c, 5, 64, 66
7, 3716, Note_off_c, 5, 66, 64
7, 3788, Note_off_c, 5, 64, 64
7, 3812, Note_on_c, 5, 66, 68
7, 3856, Note_off_c, 5, 66, 64
7, 3949, Note_on_c, 5, 62, 100
7, 4065, Note_on_c, 5, 66, 68
7, 4101, Note_off_c, 5, 62, 64
7, 4144, Note_off_c, 5, 66, 64
7, 4190, Note_on_c, 5, 69, 78
7, 4239, Note_off_c, 5, 69, 64
7, 4331, Note_on_c, 5, 74, 89
7, 4570, Note_off_c, 5, 74, 64
7, 4684, Note_on_c, 5, 78, 91
7, 4927, Note_off_c, 5, 78, 64
7, 5040, Note_on_c, 5, 76, 85
7, 5525, Note_off_c, 5, 76, 64
7, 5626, Note_on_c, 5, 74, 78
7, 5680, Note_off_c, 5, 74, 64
7, 5758, Note_on_c, 5, 73, 85
7, 5870, Note_on_c, 5, 71, 70
7, 5889, Note_off_c, 5, 73, 64
7, 5935, Note_off_c, 5, 71, 64
7, 5987, Note_on_c, 5, 69, 68
7, 6043, Note_off_c, 5, 69, 64
7, 6118, Note_on_c, 5, 71, 87
7, 6229, Note_on_c, 5, 73, 59
7, 6248, Note_off_c, 5, 71, 64
7, 6302, Note_off_c, 5, 73, 64
7, 6341, Note_on_c, 5, 74, 74
7, 6386, Note_off_c, 5, 74, 64
7, 6480, Note_on_c, 5, 73, 95
7, 6596, Note_on_c, 5, 71, 56
7, 6618, Note_off_c, 5, 73, 64
7, 6669, Note_off_c, 5, 71, 64
7, 6716, Note_on_c, 5, 73, 57
7, 6760, Note_off_c, 5, 73, 64
7, 6844, Note_on_c, 5, 69, 87
7, 6955, Note_on_c, 5, 73, 62
7, 6979, Note_off_c, 5, 69, 64
7, 7028, Note_off_c, 5, 73, 64
7, 7076, Note_on_c, 5, 76, 78
7, 7113, Note_off_c, 5, 76, 64
7, 7204, Note_on_c, 5, 81, 95
7, 7313, Note_on_c, 5, 79, 57
7, 7325, Note_off_c, 5, 81, 64
7, 7375, Note_off_c, 5, 79, 64
7, 7426, Note_on_c, 5, 81, 82
7, 7469, Note_off_c, 5, 81, 64
7, 7555, Note_on_c, 5, 81, 98
7, 7669, Note_on_c, 5, 79, 66
7, 7685, Note_off_c, 5, 81, 64
7, 7728, Note_off_c, 5, 79, 64
7, 7784, Note_on_c, 5, 81, 87
7, 7835, Note_off_c, 5, 81, 64
7, 7914, Note_on_c, 5, 81, 100
7, 8012, Note_on_c, 5, 79, 59
7, 8038, Note_off_c, 5, 81, 64
7, 8106, Note_off_c, 5, 79, 64
7, 8127, Note_on_c, 5, 81, 82
7, 8167, Note_off_c, 5, 81, 64
7, 8258, Note_on_c, 5, 71, 87
7, 8372, Note_on_c, 5, 75, 66
7, 8392, Note_off_c, 5, 71, 64
7, 8434, Note_off_c, 5, 75, 64
7, 8487, Note_on_c, 5, 78, 87
7, 8534, Note_off_c, 5, 78, 64
7, 8615, Note_on_c, 5, 79, 93
7, 8730, Note_on_c, 5, 78, 66
7, 8750, Note_off_c, 5, 79, 64
7, 8792, Note_off_c, 5, 78, 64
7, 8853, Note_on_c, 5, 79, 85
7, 8896, Note_off_c, 5, 79, 64
7, 8981, Note_on_c, 5, 79, 100
7, 9093, Note_on_c, 5, 78, 62
7, 9116, Note_off_c, 5, 79, 64
7, 9154, Note_off_c, 5, 78, 64
7, 9203, Note_on_c, 5, 79, 85
7, 9243, Note_off_c, 5, 79, 64
7, 9331, Note_on_c, 5, 79, 91
7, 9444, Note_on_c, 5, 78, 93
7, 9462, Note_off_c, 5, 79, 64
7, 9518, Note_off_c, 5, 78, 64
7, 9551, Note_on_c, 5, 79, 82
7, 9600, Note_off_c, 5, 79, 64
7, 9686, Note_on_c, 5, 69, 85
7, 9789, Note_on_c, 5, 73, 61
7, 9825, Note_off_c, 5, 69, 64
7, 9867, Note_off_c, 5, 73, 64
7, 9913, Note_on_c, 5, 76, 76
7, 9956, Note_off_c, 5, 76, 64
7, 10051, Note_on_c, 5, 78, 100
7, 10154, Note_on_c, 5, 80, 68
7, 10179, Note_off_c, 5, 78, 64
7, 10265, Note_off_c, 5, 80, 64
7, 10275, Note_on_c, 5, 81, 74
7, 10323, Note_off_c, 5, 81, 64
7, 10411, Note_on_c, 5, 81, 89
7, 10523, Note_on_c, 5, 80, 82
7, 10536, Note_off_c, 5, 81, 64
7, 10599, Note_off_c, 5, 80, 64
7, 10648, Note_on_c, 5, 81, 80
7, 10697, Note_off_c, 5, 81, 64
7, 10784, Note_on_c, 5, 74, 102
7, 10895, Note_on_c, 5, 76, 70
7, 10912, Note_off_c, 5, 74, 64
7, 10980, Note_off_c, 5, 76, 64
7, 11008, Note_on_c, 5, 78, 66
7, 11054, Note_off_c, 5, 78, 64
7, 11148, Note_on_c, 5, 78, 91
7, 11259, Note_on_c, 5, 76, 61
7, 11276, Note_off_c, 5, 78, 64
7, 11332, Note_off_c, 5, 76, 64
7, 11387, Note_on_c, 5, 78, 66
7, 11440, Note_off_c, 5, 78, 64
7, 11520, Note_on_c, 5, 71, 85
7, 11629, Note_on_c, 5, 73, 57
7, 11655, Note_off_c, 5, 71, 64
7, 11736, Note_off_c, 5, 73, 64
7, 11750, Note_on_c, 5, 74, 63
7, 11797, Note_off_c, 5, 74, 64
7, 11882, Note_on_c, 5, 74, 85
7, 11992, Note_on_c, 5, 73, 66
7, 11996, Note_off_c, 5, 74, 64
7, 12075, Note_off_c, 5, 73, 64
7, 12110, Note_on_c, 5, 74, 82
7, 12168, Note_off_c, 5, 74, 64
7, 12238, Note_on_c, 5, 68, 87
7, 12350, Note_on_c, 5, 69, 63
7, 12375, Note_off_c, 5, 68, 64
7, 12428, Note_off_c, 5, 69, 64
7, 12474, Note_on_c, 5, 71, 64
7, 12513, Note_off_c, 5, 71, 64
7, 12608, Note_on_c, 5, 64, 89
7, 12712, Note_on_c, 5, 68, 64
7, 12752, Note_off_c, 5, 64, 64
7, 12797, Note_off_c, 5, 68, 64
7, 12833, Note_on_c, 5, 71, 72
7, 12875, Note_off_c, 5, 71, 64
7, 12970, Note_on_c, 5, 76, 95
7, 13070, Note_on_c, 5, 74, 68
7, 13077, Note_off_c, 5, 76, 64
7, 13165, Note_off_c, 5, 74, 64
7, 13186, Note_on_c, 5, 73, 57
7, 13236, Note_off_c, 5, 73, 64
7, 13322, Note_on_c, 5, 74, 87
7, 13436, Note_on_c, 5, 73, 59
7, 13452, Note_off_c, 5, 74, 64
7, 13517, Note_off_c, 5, 73, 64
7, 13551, Note_on_c, 5, 71, 64
7, 13604, Note_off_c, 5, 71, 64
7, 13680, Note_on_c, 5, 69, 95
7, 13865, Note_off_c, 5, 69, 64
7, 13906, Note_on_c, 5, 78, 63
7, 13950, Note_off_c, 5, 78, 64
7, 14028, Note_on_c, 5, 69, 82
7, 14212, Note_off_c, 5, 69, 64
7, 14258, Note_on_c, 5, 78, 59
7, 14312, Note_off_c, 5, 78, 64
7, 14382, Note_on_c, 5, 68, 74
7, 14565, Note_off_c, 5, 68, 64
7, 14621, Note_on_c, 5, 76, 72
7, 14672, Note_off_c, 5, 76, 64
7, 14741, Note_on_c, 5, 67, 85
7, 14942, Note_off_c, 5, 67, 64
7, 14975, Note_on_c, 5, 76, 64
7, 15022, Note_off_c, 5, 76, 64
7, 15111, Note_on_c, 5, 66, 74
7, 15301, Note_off_c, 5, 66, 64
7, 15333, Note_on_c, 5, 74, 76
7, 15395, Note_off_c, 5, 74, 64
7, 15465, Note_on_c, 5, 65, 78
7, 15652, Note_off_c, 5, 65, 64
7, 15695, Note_on_c, 5, 74, 70
7, 15737, Note_off_c, 5, 74, 64
7, 15824, Note_on_c, 5, 64, 72
7, 16185, Note_off_c, 5, 64, 64
7, 16276, Note_on_c, 5, 68, 62
7, 16346, Note_off_c, 5, 68, 64
7, 16391, Note_on_c, 5, 71, 76
7, 16430, Note_off_c, 5, 71, 64
7, 16516, Note_on_c, 5, 74, 91
7, 16624, Note_on_c, 5, 80, 68
7, 16652, Note_off_c, 5, 74, 64
7, 16676, Note_off_c, 5, 80, 64
7, 16754, Note_on_c, 5, 83, 80
7, 16797, Note_off_c, 5, 83, 64
7, 16881, Note_on_c, 5, 74, 91
7, 16989, Note_on_c, 5, 73, 62
7, 17009, Note_off_c, 5, 74, 64
7, 17071, Note_off_c, 5, 73, 64
7, 17118, Note_on_c, 5, 71, 66
7, 17173, Note_off_c, 5, 71, 64
7, 17250, Note_on_c, 5, 73, 85
7, 17304, Note_on_c, 5, 74, 85
7, 17320, Note_off_c, 5, 73, 64
7, 17372, Note_off_c, 5, 74, 64
7, 17382, Note_on_c, 5, 76, 68
7, 17425, Note_off_c, 5, 76, 64
7, 17499, Note_on_c, 5, 69, 100
7, 17543, Note_off_c, 5, 69, 64
7, 17619, Note_on_c, 5, 64, 95
7, 17684, Note_off_c, 5, 64, 64
7, 17724, Note_on_c, 5, 69, 80
7, 17779, Note_off_c, 5, 69, 64
7, 17849, Note_on_c, 5, 68, 95
7, 17897, Note_off_c, 5, 68, 64
7, 17984, Note_on_c, 5, 69, 93
7, 18342, Note_off_c, 5, 69, 64
7, 35806, Note_on_c, 5, 69, 85
7, 35871, Note_off_c, 5, 69, 64
7, 35960, Note_on_c, 5, 76, 91
7, 36220, Note_off_c, 5, 76, 64
7, 36335, Note_on_c, 5, 78, 100
7, 36580, Note_off_c, 5, 78, 64
7, 36691, Note_on_c, 5, 76, 95
7, 37105, Note_off_c, 5, 76, 64
7, 37159, Note_on_c, 5, 78, 89
7, 37222, Note_off_c, 5, 78, 64
7, 37275, Note_on_c, 5, 79, 89
7, 37334, Note_off_c, 5, 79, 64
7, 37411, Note_on_c, 5, 78, 102
7, 37512, Note_on_c, 5, 76, 70
7, 37530, Note_off_c, 5, 78, 64
7, 37588, Note_off_c, 5, 76, 64
7, 37631, Note_on_c, 5, 74, 76
7, 37671, Note_off_c, 5, 74, 64
7, 37759, Note_on_c, 5, 73, 100
7, 37878, Note_on_c, 5, 74, 70
7, 37900, Note_off_c, 5, 73, 64
7, 37929, Note_off_c, 5, 74, 64
7, 38002, Note_on_c, 5, 71, 82
7, 38050, Note_off_c, 5, 71, 64
7, 38133, Note_on_c, 5, 70, 80
7, 38247, Note_on_c, 5, 71, 72
7, 38262, Note_off_c, 5, 70, 64
7, 38342, Note_off_c, 5, 71, 64
7, 38368, Note_on_c, 5, 73, 60
7, 38428, Note_off_c, 5, 73, 64
7, 38499, Note_on_c, 5, 66, 87
7, 38608, Note_on_c, 5, 70, 74
7, 38629, Note_off_c, 5, 66, 64
7, 38691, Note_off_c, 5, 70, 64
7, 38731, Note_on_c, 5, 73, 82
7, 38786, Note_off_c, 5, 73, 64
7, 38863, Note_on_c, 5, 78, 105
7, 39147, Note_off_c, 5, 78, 64
7, 39235, Note_on_c, 5, 79, 91
7, 39481, Note_off_c, 5, 79, 64
7, 39580, Note_on_c, 5, 78, 102
7, 40003, Note_off_c, 5, 78, 64
7, 40059, Note_on_c, 5, 76, 80
7, 40148, Note_off_c, 5, 76, 64
7, 40170, Note_on_c, 5, 74, 82
7, 40223, Note_off_c, 5, 74, 64
7, 40304, Note_on_c, 5, 73, 98
7, 40415, Note_on_c, 5, 74, 70
7, 40440, Note_off_c, 5, 73, 64
7, 40468, Note_off_c, 5, 74, 64
7, 40541, Note_on_c, 5, 71, 85
7, 40596, Note_off_c, 5, 71, 64
7, 40675, Note_on_c, 5, 66, 80
7, 40784, Note_on_c, 5, 71, 64
7, 40793, Note_off_c, 5, 66, 64
7, 40849, Note_off_c, 5, 71, 64
7, 40899, Note_on_c, 5, 70, 70
7, 40961, Note_off_c, 5, 70, 64
7, 41033, Note_on_c, 5, 71, 87
7, 41433, Note_off_c, 5, 71, 64
7, 41520, Note_on_c, 5, 74, 78
7, 41584, Note_off_c, 5, 74, 64
7, 41629, Note_on_c, 5, 73, 76
7, 41687, Note_off_c, 5, 73, 64
7, 41760, Note_on_c, 5, 74, 98
7, 41864, Note_on_c, 5, 73, 62
7, 41884, Note_off_c, 5, 74, 64
7, 41937, Note_off_c, 5, 73, 64
7, 41973, Note_on_c, 5, 74, 78
7, 42028, Note_off_c, 5, 74, 64
7, 42099, Note_on_c, 5, 74, 87
7, 42203, Note_on_c, 5, 73, 62
7, 42223, Note_off_c, 5, 74, 64
7, 42281, Note_off_c, 5, 73, 64
7, 42328, Note_on_c, 5, 74, 76
7, 42382, Note_off_c, 5, 74, 64
7, 42454, Note_on_c, 5, 74, 91
7, 42563, Note_on_c, 5, 73, 57
7, 42574, Note_off_c, 5, 74, 64
7, 42672, Note_on_c, 5, 74, 82
7, 42680, Note_off_c, 5, 73, 64
7, 42719, Note_off_c, 5, 74, 64
7, 42808, Note_on_c, 5, 64, 87
7, 42921, Note_on_c, 5, 68, 60
7, 42932, Note_off_c, 5, 64, 64
7, 42983, Note_off_c, 5, 68, 64
7, 43033, Note_on_c, 5, 71, 68
7, 43084, Note_off_c, 5, 71, 64
7, 43162, Note_on_c, 5, 76, 98
7, 43283, Note_on_c, 5, 74, 68
7, 43288, Note_off_c, 5, 76, 64
7, 43356, Note_off_c, 5, 74, 64
7, 43402, Note_on_c, 5, 73, 78
7, 43460, Note_off_c, 5, 73, 64
7, 43520, Note_on_c, 5, 71, 98
7, 43633, Note_on_c, 5, 73, 64
7, 43654, Note_off_c, 5, 71, 64
7, 43749, Note_off_c, 5, 73, 64
7, 43749, Note_on_c, 5, 74, 70
7, 43798, Note_off_c, 5, 74, 64
7, 43868, Note_on_c, 5, 73, 91
7, 43980, Note_on_c, 5, 71, 58
7, 44005, Note_off_c, 5, 73, 64
7, 44068, Note_off_c, 5, 71, 64
7, 44098, Note_on_c, 5, 73, 68
7, 44144, Note_off_c, 5, 73, 64
7, 44230, Note_on_c, 5, 69, 95
7, 44336, Note_on_c, 5, 73, 63
7, 44356, Note_off_c, 5, 69, 64
7, 44418, Note_off_c, 5, 73, 64
7, 44452, Note_on_c, 5, 76, 85
7, 44509, Note_off_c, 5, 76, 64
7, 44585, Note_on_c, 5, 79, 87
7, 44689, Note_off_c, 5, 79, 64
7, 44702, Note_on_c, 5, 78, 58
7, 44782, Note_off_c, 5, 78, 64
7, 44812, Note_on_c, 5, 79, 72
7, 44863, Note_off_c, 5, 79, 64
7, 44947, Note_on_c, 5, 79, 82
7, 45072, Note_on_c, 5, 78, 70
7, 45085, Note_off_c, 5, 79, 64
7, 45153, Note_off_c, 5, 78, 64
7, 45181, Note_on_c, 5, 79, 87
7, 45234, Note_off_c, 5, 79, 64
7, 45328, Note_on_c, 5, 79, 95
7, 45434, Note_on_c, 5, 78, 72
7, 45459, Note_off_c, 5, 79, 64
7, 45539, Note_off_c, 5, 78, 64
7, 45548, Note_on_c, 5, 79, 80
7, 45608, Note_off_c, 5, 79, 64
7, 45676, Note_on_c, 5, 69, 87
7, 45792, Note_on_c, 5, 73, 64
7, 45805, Note_off_c, 5, 69, 64
7, 45873, Note_off_c, 5, 73, 64
7, 45908, Note_on_c, 5, 76, 80
7, 45966, Note_off_c, 5, 76, 64
7, 46039, Note_on_c, 5, 81, 98
7, 46163, Note_on_c, 5, 79, 80
7, 46166, Note_off_c, 5, 81, 64
7, 46238, Note_off_c, 5, 79, 64
7, 46299, Note_on_c, 5, 78, 80
7, 46355, Note_off_c, 5, 78, 64
7, 46435, Note_on_c, 5, 76, 91
7, 46547, Note_on_c, 5, 78, 61
7, 46575, Note_off_c, 5, 76, 64
7, 46655, Note_on_c, 5, 79, 68
7, 46664, Note_off_c, 5, 78, 64
7, 46714, Note_off_c, 5, 79, 64
7, 46784, Note_on_c, 5, 78, 95
7, 46900, Note_on_c, 5, 76, 70
7, 46916, Note_off_c, 5, 78, 64
7, 47016, Note_on_c, 5, 78, 89
7, 47026, Note_off_c, 5, 76, 64
7, 47070, Note_off_c, 5, 78, 64
7, 47145, Note_on_c, 5, 74, 91
7, 47256, Note_on_c, 5, 78, 68
7, 47276, Note_off_c, 5, 74, 64
7, 47339, Note_off_c, 5, 78, 64
7, 47365, Note_on_c, 5, 76, 82
7, 47441, Note_off_c, 5, 76, 64
7, 47508, Note_on_c, 5, 78, 87
7, 47607, Note_on_c, 5, 80, 66
7, 47645, Note_off_c, 5, 78, 64
7, 47715, Note_off_c, 5, 80, 64
7, 47730, Note_on_c, 5, 81, 68
7, 47781, Note_off_c, 5, 81, 64
7, 47867, Note_on_c, 5, 80, 100
7, 47971, Note_on_c, 5, 81, 72
7, 47985, Note_off_c, 5, 80, 64
7, 48057, Note_off_c, 5, 81, 64
7, 48087, Note_on_c, 5, 83, 74
7, 48149, Note_off_c, 5, 83, 64
7, 48221, Note_on_c, 5, 73, 80
7, 48640, Note_off_c, 5, 73, 64
7, 48703, Note_on_c, 5, 80, 72
7, 48771, Note_off_c, 5, 80, 64
7, 48824, Note_on_c, 5, 83, 85
7, 48878, Note_off_c, 5, 83, 64
7, 48955, Note_on_c, 5, 81, 89
7, 49058, Note_on_c, 5, 80, 68
7, 49084, Note_off_c, 5, 81, 64
7, 49129, Note_off_c, 5, 80, 64
7, 49177, Note_on_c, 5, 78, 68
7, 49248, Note_off_c, 5, 78, 64
7, 49305, Note_on_c, 5, 76, 85
7, 49409, Note_on_c, 5, 74, 74
7, 49442, Note_off_c, 5, 76, 64
7, 49480, Note_off_c, 5, 74, 64
7, 49530, Note_on_c, 5, 73, 80
7, 49598, Note_off_c, 5, 73, 64
7, 49667, Note_on_c, 5, 71, 95
7, 50088, Note_off_c, 5, 71, 64
7, 50152, Note_on_c, 5, 78, 82
7, 50220, Note_off_c, 5, 78, 64
7, 50268, Note_on_c, 5, 81, 82
7, 50328, Note_off_c, 5, 81, 64
7, 50397, Note_on_c, 5, 80, 100
7, 50500, Note_on_c, 5, 78, 60
7, 50530, Note_off_c, 5, 80, 64
7, 50591, Note_off_c, 5, 78, 64
7, 50620, Note_on_c, 5, 77, 66
7, 50687, Note_off_c, 5, 77, 64
7, 50748, Note_on_c, 5, 78, 87
7, 50856, Note_on_c, 5, 76, 70
7, 50878, Note_off_c, 5, 78, 64
7, 50944, Note_off_c, 5, 76, 64
7, 50962, Note_on_c, 5, 74, 63
7, 51027, Note_off_c, 5, 74, 64
7, 51096, Note_on_c, 5, 73, 78
7, 51204, Note_on_c, 5, 78, 60
7, 51229, Note_off_c, 5, 73, 64
7, 51277, Note_off_c, 5, 78, 64
7, 51320, Note_on_c, 5, 76, 74
7, 51384, Note_off_c, 5, 76, 64
7, 51457, Note_on_c, 5, 74, 82
7, 51568, Note_on_c, 5, 73, 57
7, 51575, Note_off_c, 5, 74, 64
7, 51668, Note_off_c, 5, 73, 64
7, 51692, Note_on_c, 5, 71, 64
7, 51740, Note_off_c, 5, 71, 64
7, 51813, Note_on_c, 5, 69, 82
7, 51928, Note_on_c, 5, 68, 57
7, 51932, Note_off_c, 5, 69, 64
7, 52032, Note_off_c, 5, 68, 64
7, 52045, Note_on_c, 5, 66, 62
7, 52116, Note_off_c, 5, 66, 64
7, 52174, Note_on_c, 5, 71, 72
7, 52289, Note_on_c, 5, 69, 70
7, 52322, Note_off_c, 5, 71, 64
7, 52386, Note_off_c, 5, 69, 64
7, 52423, Note_on_c, 5, 68, 80
7, 52487, Note_off_c, 5, 68, 64
7, 52547, Note_on_c, 5, 66, 87
7, 52977, Note_off_c, 5, 66, 64
7, 53141, Note_on_c, 5, 62, 78
7, 53199, Note_off_c, 5, 62, 64
7, 53266, Note_on_c, 5, 69, 93
7, 53514, Note_off_c, 5, 69, 64
7, 53628, Note_on_c, 5, 71, 89
7, 53882, Note_off_c, 5, 71, 64
7, 53969, Note_on_c, 5, 72, 98
7, 54421, Note_off_c, 5, 72, 64
7, 54469, Note_on_c, 5, 71, 82
7, 54549, Note_off_c, 5, 71, 64
7, 54575, Note_on_c, 5, 69, 87
7, 54642, Note_off_c, 5, 69, 64
7, 54726, Note_on_c, 5, 71, 100
7, 54830, Note_on_c, 5, 74, 85
7, 54853, Note_off_c, 5, 71, 64
7, 54915, Note_off_c, 5, 74, 64
7, 54938, Note_on_c, 5, 79, 80
7, 54993, Note_off_c, 5, 79, 64
7, 55079, Note_on_c, 5, 69, 89
7, 55168, Note_off_c, 5, 69, 64
7, 55188, Note_on_c, 5, 79, 70
7, 55273, Note_off_c, 5, 79, 64
7, 55299, Note_on_c, 5, 78, 66
7, 55355, Note_off_c, 5, 78, 64
7, 55433, Note_on_c, 5, 79, 93
7, 55543, Note_on_c, 5, 83, 76
7, 55551, Note_off_c, 5, 79, 64
7, 55615, Note_off_c, 5, 83, 64
7, 55667, Note_on_c, 5, 81, 89
7, 55721, Note_off_c, 5, 81, 64
7, 55801, Note_on_c, 5, 83, 91
7, 56235, Note_off_c, 5, 83, 64
7, 56296, Note_on_c, 5, 81, 85
7, 56362, Note_off_c, 5, 81, 64
7, 56400, Note_on_c, 5, 79, 85
7, 56453, Note_off_c, 5, 79, 64
7, 56523, Note_on_c, 5, 78, 93
7, 56629, Note_on_c, 5, 79, 82
7, 56653, Note_off_c, 5, 78, 64
7, 56703, Note_off_c, 5, 79, 64
7, 56745, Note_on_c, 5, 76, 66
7, 56826, Note_off_c, 5, 76, 64
7, 56881, Note_on_c, 5, 78, 87
7, 56990, Note_on_c, 5, 81, 80
7, 56997, Note_off_c, 5, 78, 64
7, 57050, Note_off_c, 5, 81, 64
7, 57109, Note_on_c, 5, 79, 80
7, 57175, Note_off_c, 5, 79, 64
7, 57240, Note_on_c, 5, 81, 82
7, 57661, Note_off_c, 5, 81, 64
7, 57710, Note_on_c, 5, 79, 78
7, 57777, Note_off_c, 5, 79, 64
7, 57823, Note_on_c, 5, 78, 76
7, 57896, Note_off_c, 5, 78, 64
7, 57945, Note_on_c, 5, 76, 87
7, 58058, Note_on_c, 5, 78, 64
7, 58073, Note_off_c, 5, 76, 64
7, 58124, Note_off_c, 5, 78, 64
7, 58177, Note_on_c, 5, 75, 64
7, 58242, Note_off_c, 5, 75, 64
7, 58306, Note_on_c, 5, 76, 85
7, 58411, Note_off_c, 5, 76, 64
7, 58421, Note_on_c, 5, 79, 76
7, 58485, Note_off_c, 5, 79, 64
7, 58543, Note_on_c, 5, 78, 74
7, 58608, Note_off_c, 5, 78, 64
7, 58671, Note_on_c, 5, 79, 91
7, 59103, Note_off_c, 5, 79, 64
7, 59153, Note_on_c, 5, 78, 87
7, 59212, Note_off_c, 5, 78, 64
7, 59264, Note_on_c, 5, 76, 76
7, 59331, Note_off_c, 5, 76, 64
7, 59391, Note_on_c, 5, 74, 85
7, 59497, Note_on_c, 5, 76, 70
7, 59525, Note_off_c, 5, 74, 64
7, 59560, Note_off_c, 5, 76, 64
7, 59618, Note_on_c, 5, 73, 64
7, 59683, Note_off_c, 5, 73, 64
7, 59744, Note_on_c, 5, 74, 87
7, 59853, Note_on_c, 5, 78, 57
7, 59875, Note_off_c, 5, 74, 64
7, 59931, Note_off_c, 5, 78, 64
7, 59977, Note_on_c, 5, 76, 80
7, 60035, Note_off_c, 5, 76, 64
7, 60102, Note_on_c, 5, 78, 91
7, 60198, Note_on_c, 5, 79, 85
7, 60222, Note_off_c, 5, 78, 64
7, 60274, Note_off_c, 5, 79, 64
7, 60325, Note_on_c, 5, 81, 74
7, 60371, Note_off_c, 5, 81, 64
7, 60449, Note_on_c, 5, 71, 87
7, 60559, Note_on_c, 5, 73, 57
7, 60583, Note_off_c, 5, 71, 64
7, 60648, Note_off_c, 5, 73, 64
7, 60683, Note_on_c, 5, 74, 63
7, 60744, Note_off_c, 5, 74, 64
7, 60815, Note_on_c, 5, 76, 89
7, 60926, Note_on_c, 5, 78, 59
7, 60944, Note_off_c, 5, 76, 64
7, 61006, Note_off_c, 5, 78, 64
7, 61040, Note_on_c, 5, 74, 64
7, 61097, Note_off_c, 5, 74, 64
7, 61175, Note_on_c, 5, 73, 82
7, 61281, Note_on_c, 5, 74, 63
7, 61297, Note_off_c, 5, 73, 64
7, 61357, Note_off_c, 5, 74, 64
7, 61415, Note_on_c, 5, 76, 64
7, 61456, Note_off_c, 5, 76, 64
7, 61546, Note_on_c, 5, 78, 98
7, 61653, Note_on_c, 5, 79, 70
7, 61671, Note_off_c, 5, 78, 64
7, 61726, Note_off_c, 5, 79, 64
7, 61786, Note_on_c, 5, 76, 66
7, 61832, Note_off_c, 5, 76, 64
7, 61917, Note_on_c, 5, 74, 91
7, 62022, Note_on_c, 5, 76, 63
7, 62052, Note_off_c, 5, 74, 64
7, 62089, Note_off_c, 5, 76, 64
7, 62137, Note_on_c, 5, 78, 57
7, 62200, Note_off_c, 5, 78, 64
7, 62264, Note_on_c, 5, 79, 82
7, 62374, Note_on_c, 5, 81, 63
7, 62400, Note_off_c, 5, 79, 64
7, 62435, Note_off_c, 5, 81, 64
7, 62499, Note_on_c, 5, 78, 76
7, 62549, Note_off_c, 5, 78, 64
7, 62619, Note_on_c, 5, 76, 89
7, 62713, Note_on_c, 5, 78, 68
7, 62761, Note_off_c, 5, 76, 64
7, 62798, Note_off_c, 5, 78, 64
7, 62837, Note_on_c, 5, 79, 76
7, 62900, Note_off_c, 5, 79, 64
7, 62978, Note_on_c, 5, 81, 82
7, 63087, Note_on_c, 5, 83, 68
7, 63096, Note_off_c, 5, 81, 64
7, 63159, Note_off_c, 5, 83, 64
7, 63208, Note_on_c, 5, 79, 89
7, 63260, Note_off_c, 5, 79, 64
7, 63334, Note_on_c, 5, 78, 89
7, 63765, Note_off_c, 5, 78, 64
7, 63823, Note_on_c, 5, 76, 66
7, 63899, Note_off_c, 5, 76, 64
7, 63932, Note_on_c, 5, 74, 74
7, 64006, Note_off_c, 5, 74, 64
7, 64056, Note_on_c, 5, 76, 82
7, 64157, Note_on_c, 5, 73, 70
7, 64174, Note_off_c, 5, 76, 64
7, 64276, Note_on_c, 5, 74, 58
7, 64282, Note_off_c, 5, 73, 64
7, 64329, Note_off_c, 5, 74, 64
7, 64407, Note_on_c, 5, 69, 93
7, 64526, Note_on_c, 5, 74, 78
7, 64533, Note_off_c, 5, 69, 64
7, 64619, Note_off_c, 5, 74, 64
7, 64652, Note_on_c, 5, 73, 82
7, 64725, Note_off_c, 5, 73, 64
7, 64773, Note_on_c, 5, 62, 98
7, 64892, Note_off_c, 5, 62, 64
7, 65005, Note_on_c, 5, 74, 78
7, 65074, Note_off_c, 5, 74, 64
7, 65137, Note_on_c, 5, 81, 98
7, 65571, Note_off_c, 5, 81, 64
7, 65626, Note_on_c, 5, 83, 78
7, 65699, Note_off_c, 5, 83, 64
7, 65745, Note_on_c, 5, 81, 82
7, 65795, Note_off_c, 5, 81, 64
7, 65865, Note_on_c, 5, 80, 87
7, 65969, Note_on_c, 5, 76, 70
7, 65984, Note_off_c, 5, 80, 64
7, 66050, Note_off_c, 5, 76, 64
7, 66096, Note_on_c, 5, 78, 66
7, 66156, Note_off_c, 5, 78, 64
7, 66225, Note_on_c, 5, 79, 93
7, 66329, Note_on_c, 5, 81, 60
7, 66351, Note_off_c, 5, 79, 64
7, 66403, Note_off_c, 5, 81, 64
7, 66457, Note_on_c, 5, 79, 66
7, 66507, Note_off_c, 5, 79, 64
7, 66578, Note_on_c, 5, 78, 85
7, 66692, Note_on_c, 5, 74, 66
7, 66714, Note_off_c, 5, 78, 64
7, 66788, Note_off_c, 5, 74, 64
7, 66822, Note_on_c, 5, 76, 64
7, 66865, Note_off_c, 5, 76, 64
7, 66938, Note_on_c, 5, 77, 87
7, 67052, Note_on_c, 5, 79, 66
7, 67067, Note_off_c, 5, 77, 64
7, 67118, Note_off_c, 5, 79, 64
7, 67179, Note_on_c, 5, 77, 72
7, 67232, Note_off_c, 5, 77, 64
7, 67301, Note_on_c, 5, 76, 76
7, 67406, Note_on_c, 5, 73, 68
7, 67419, Note_off_c, 5, 76, 64
7, 67471, Note_off_c, 5, 73, 64
7, 67526, Note_on_c, 5, 74, 82
7, 67580, Note_off_c, 5, 74, 64
7, 67660, Note_on_c, 5, 73, 89
7, 67762, Note_on_c, 5, 74, 85
7, 67784, Note_off_c, 5, 73, 64
7, 67852, Note_off_c, 5, 74, 64
7, 67880, Note_on_c, 5, 76, 68
7, 67931, Note_off_c, 5, 76, 64
7, 68016, Note_on_c, 5, 69, 85
7, 68451, Note_off_c, 5, 69, 64
7, 68619, Note_on_c, 5, 81, 82
7, 68693, Note_off_c, 5, 81, 64
7, 68757, Note_on_c, 5, 83, 85
7, 68862, Note_off_c, 5, 83, 64
7, 68983, Note_on_c, 5, 85, 87
7, 69039, Note_off_c, 5, 85, 64
7, 69102, Note_on_c, 5, 85, 100
7, 69166, Note_on_c, 5, 86, 91
7, 69200, Note_off_c, 5, 85, 64
7, 69263, Note_off_c, 5, 86, 64
7, 69354, Note_on_c, 5, 81, 89
7, 69410, Note_off_c, 5, 81, 64
7, 69483, Note_on_c, 5, 79, 98
7, 69544, Note_on_c, 5, 78, 82
7, 69577, Note_off_c, 5, 79, 64
7, 69584, Note_on_c, 5, 76, 78
7, 69607, Note_off_c, 5, 78, 64
7, 69683, Note_off_c, 5, 76, 64
7, 69713, Note_on_c, 5, 74, 91
7, 69763, Note_off_c, 5, 74, 64
7, 69849, Note_on_c, 5, 74, 100
7, 70238, Note_off_c, 5, 74, 64
7, 70238, End_track
8, 0, Start_track
8, 0, Title_t, "Violin"
8, 0, Program_c, 6, 40
8, 0, Control_c, 6, 7, 100
8, 1301, Note_on_c, 6, 62, 87
8, 1353, Note_off_c, 6, 62, 64
8, 1437, Note_on_c, 6, 69, 102
8, 1687, Note_off_c, 6, 69, 64
8, 1774, Note_on_c, 6, 71, 89
8, 2027, Note_off_c, 6, 71, 64
8, 2128, Note_on_c, 6, 69, 98
8, 2558, Note_off_c, 6, 69, 64
8, 2629, Note_on_c, 6, 71, 85
8, 2679, Note_off_c, 6, 71, 64
8, 2738, Note_on_c, 6, 73, 102
8, 2787, Note_off_c, 6, 73, 64
8, 2851, Note_on_c, 6, 74, 105
8, 2976, Note_on_c, 6, 73, 78
8, 2998, Note_off_c, 6, 74, 64
8, 3036, Note_off_c, 6, 73, 64
8, 3096, Note_on_c, 6, 71, 80
8, 3143, Note_off_c, 6, 71, 64
8, 3215, Note_on_c, 6, 69, 100
8, 3332, Note_on_c, 6, 71, 82
8, 3348, Note_off_c, 6, 69, 64
8, 3391, Note_off_c, 6, 71, 64
8, 3454, Note_on_c, 6, 67, 85
8, 3506, Note_off_c, 6, 67, 64
8, 3574, Note_on_c, 6, 66, 87
8, 3696, Note_on_c, 6, 64, 80
8, 3729, Note_off_c, 6, 66, 64
8, 3762, Note_off_c, 6, 64, 64
8, 3820, Note_on_c, 6, 66, 91
8, 3873, Note_off_c, 6, 66, 64
8, 3948, Note_on_c, 6, 62, 107
8, 4069, Note_on_c, 6, 66, 70
8, 4106, Note_off_c, 6, 62, 64
8, 4149, Note_off_c, 6, 66, 64
8, 4190, Note_on_c, 6, 69, 82
8, 4243, Note_off_c, 6, 69, 64
8, 4328, Note_on_c, 6, 74, 93
8, 4574, Note_off_c, 6, 74, 64
8, 4687, Note_on_c, 6, 78, 89
8, 4949, Note_off_c, 6, 78, 64
8, 5050, Note_on_c, 6, 76, 89
8, 5497, Note_off_c, 6, 76, 64
8, 5624, Note_on_c, 6, 74, 74
8, 5682, Note_off_c, 6, 74, 64
8, 5762, Note_on_c, 6, 73, 95
8, 5875, Note_on_c, 6, 71, 80
8, 5902, Note_off_c, 6, 73, 64
8, 5944, Note_off_c, 6, 71, 64
8, 5994, Note_on_c, 6, 69, 68
8, 6045, Note_off_c, 6, 69, 64
8, 6128, Note_on_c, 6, 71, 98
8, 6236, Note_on_c, 6, 73, 64
8, 6253, Note_off_c, 6, 71, 64
8, 6294, Note_off_c, 6, 73, 64
8, 6353, Note_on_c, 6, 74, 76
8, 6399, Note_off_c, 6, 74, 64
8, 6484, Note_on_c, 6, 73, 100
8, 6590, Note_on_c, 6, 71, 60
8, 6619, Note_off_c, 6, 73, 64
8, 6665, Note_off_c, 6, 71, 64
8, 6714, Note_on_c, 6, 73, 64
8, 6744, Note_off_c, 6, 73, 64
8, 6848, Note_on_c, 6, 69, 100
8, 6952, Note_on_c, 6, 73, 62
8, 6988, Note_off_c, 6, 69, 64
8, 7028, Note_off_c, 6, 73, 64
8, 7073, Note_on_c, 6, 76, 78
8, 7112, Note_off_c, 6, 76, 64
8, 7205, Note_on_c, 6, 81, 102
8, 7308, Note_on_c, 6, 79, 64
8, 7322, Note_off_c, 6, 81, 64
8, 7369, Note_off_c, 6, 79, 64
8, 7425, Note_on_c, 6, 81, 91
8, 7470, Note_off_c, 6, 81, 64
8, 7552, Note_on_c, 6, 81, 102
8, 7665, Note_on_c, 6, 79, 76
8, 7688, Note_off_c, 6, 81, 64
8, 7725, Note_off_c, 6, 79, 64
8, 7780, Note_on_c, 6, 81, 85
8, 7817, Note_off_c, 6, 81, 64
8, 7904, Note_on_c, 6, 81, 102
8, 8020, Note_on_c, 6, 79, 82
8, 8042, Note_off_c, 6, 81, 64
8, 8088, Note_off_c, 6, 79, 64
8, 8134, Note_on_c, 6, 81, 82
8, 8177, Note_off_c, 6, 81, 64
8, 8264, Note_on_c, 6, 71, 98
8, 8372, Note_on_c, 6, 75, 66
8, 8398, Note_off_c, 6, 71, 64
8, 8432, Note_off_c, 6, 75, 64
8, 8488, Note_on_c, 6, 78, 95
8, 8536, Note_off_c, 6, 78, 64
8, 8612, Note_on_c, 6, 79, 98
8, 8736, Note_on_c, 6, 78, 63
8, 8755, Note_off_c, 6, 79, 64
8, 8775, Note_off_c, 6, 78, 64
8, 8850, Note_on_c, 6, 79, 87
8, 8896, Note_off_c, 6, 79, 64
8, 8971, Note_on_c, 6, 79, 91
8, 9080, Note_on_c, 6, 78, 87
8, 9102, Note_off_c, 6, 79, 64
8, 9144, Note_off_c, 6, 78, 64
8, 9200, Note_on_c, 6, 79, 93
8, 9253, Note_off_c, 6, 79, 64
8, 9336, Note_on_c, 6, 79, 102
8, 9444, Note_on_c, 6, 78, 80
8, 9468, Note_off_c, 6, 79, 64
8, 9528, Note_off_c, 6, 78, 64
8, 9560, Note_on_c, 6, 79, 87
8, 9616, Note_off_c, 6, 79, 64
8, 9690, Note_on_c, 6, 69, 98
8, 9796, Note_on_c, 6, 73, 66
8, 9829, Note_off_c, 6, 69, 64
8, 9874, Note_off_c, 6, 73, 64
8, 9920, Note_on_c, 6, 76, 78
8, 9961, Note_off_c, 6, 76, 64
8, 10056, Note_on_c, 6, 78, 93
8, 10160, Note_on_c, 6, 80, 70
8, 10186, Note_off_c, 6, 78, 64
8, 10248, Note_off_c, 6, 80, 64
8, 10275, Note_on_c, 6, 81, 80
8, 10321, Note_off_c, 6, 81, 64
8, 10408, Note_on_c, 6, 81, 95
8, 10522, Note_on_c, 6, 80, 91
8, 10539, Note_off_c, 6, 81, 64
8, 10590, Note_off_c, 6, 80, 64
8, 10642, Note_on_c, 6, 81, 72
8, 10681, Note_off_c, 6, 81, 64
8, 10775, Note_on_c, 6, 74, 102
8, 10889, Note_on_c, 6, 76, 82
8, 10915, Note_off_c, 6, 74, 64
8, 10992, Note_off_c, 6, 76, 64
8, 11010, Note_on_c, 6, 78, 63
8, 11059, Note_off_c, 6, 78, 64
8, 11134, Note_on_c, 6, 78, 95
8, 11255, Note_on_c, 6, 76, 64
8, 11281, Note_off_c, 6, 78, 64
8, 11355, Note_off_c, 6, 76, 64
8, 11367, Note_on_c, 6, 78, 59
8, 11427, Note_off_c, 6, 78, 64
8, 11499, Note_on_c, 6, 71, 93
8, 11606, Note_on_c, 6, 73, 61
8, 11632, Note_off_c, 6, 71, 64
8, 11721, Note_on_c, 6, 74, 63
8, 11731, Note_off_c, 6, 73, 64
8, 11782, Note_off_c, 6, 74, 64
8, 11854, Note_on_c, 6, 74, 85
8, 11970, Note_on_c, 6, 73, 63
8, 11989, Note_off_c, 6, 74, 64
8, 12072, Note_off_c, 6, 73, 64
8, 12081, Note_on_c, 6, 74, 64
8, 12147, Note_off_c, 6, 74, 64
8, 12216, Note_on_c, 6, 68, 89
8, 12332, Note_on_c, 6, 69, 62
8, 12371, Note_off_c, 6, 68, 64
8, 12431, Note_off_c, 6, 69, 64
8, 12447, Note_on_c, 6, 71, 68
8, 12503, Note_off_c, 6, 71, 64
8, 12579, Note_on_c, 6, 64, 95
8, 12693, Note_on_c, 6, 68, 62
8, 12746, Note_off_c, 6, 64, 64
8, 12807, Note_off_c, 6, 68, 64
8, 12814, Note_on_c, 6, 71, 64
8, 12870, Note_off_c, 6, 71, 64
8, 12955, Note_on_c, 6, 76, 102
8, 13073, Note_on_c, 6, 74, 68
8, 13092, Note_off_c, 6, 76, 64
8, 13184, Note_on_c, 6, 73, 48
8, 13193, Note_off_c, 6, 74, 64
8, 13255, Note_off_c, 6, 73, 64
8, 13321, Note_on_c, 6, 74, 87
8, 13435, Note_on_c, 6, 73, 59
8, 13462, Note_off_c, 6, 74, 64
8, 13548, Note_on_c, 6, 71, 66
8, 13559, Note_off_c, 6, 73, 64
8, 13608, Note_off_c, 6, 71, 64
8, 13669, Note_on_c, 6, 69, 95
8, 13838, Note_off_c, 6, 69, 64
8, 13903, Note_on_c, 6, 78, 60
8, 13956, Note_off_c, 6, 78, 64
8, 14022, Note_on_c, 6, 69, 91
8, 14191, Note_off_c, 6, 69, 64
8, 14243, Note_on_c, 6, 78, 60
8, 14297, Note_off_c, 6, 78, 64
8, 14378, Note_on_c, 6, 68, 76
8, 14564, Note_off_c, 6, 68, 64
8, 14616, Note_on_c, 6, 76, 70
8, 14677, Note_off_c, 6, 76, 64
8, 14744, Note_on_c, 6, 67, 87
8, 14935, Note_off_c, 6, 67, 64
8, 14967, Note_on_c, 6, 76, 76
8, 15027, Note_off_c, 6, 76, 64
8, 15102, Note_on_c, 6, 66, 68
8, 15278, Note_off_c, 6, 66, 64
8, 15340, Note_on_c, 6, 74, 70
8, 15397, Note_off_c, 6, 74, 64
8, 15464, Note_on_c, 6, 65, 87
8, 15664, Note_off_c, 6, 65, 64
8, 15694, Note_on_c, 6, 74, 80
8, 15746, Note_off_c, 6, 74, 64
8, 15828, Note_on_c, 6, 64, 87
8, 16214, Note_off_c, 6, 64, 64
8, 16292, Note_on_c, 6, 68, 64
8, 16356, Note_off_c, 6, 68, 64
8, 16392, Note_on_c, 6, 71, 70
8, 16433, Note_off_c, 6, 71, 64
8, 16528, Note_on_c, 6, 74, 93
8, 16632, Note_on_c, 6, 80, 72
8, 16668, Note_off_c, 6, 74, 64
8, 16698, Note_off_c, 6, 80, 64
8, 16755, Note_on_c, 6, 83, 74
8, 16809, Note_off_c, 6, 83, 64
8, 16888, Note_on_c, 6, 74, 98
8, 16987, Note_on_c, 6, 73, 63
8, 17013, Note_off_c, 6, 74, 64
8, 17064, Note_off_c, 6, 73, 64
8, 17118, Note_on_c, 6, 71, 85
8, 17179, Note_off_c, 6, 71, 64
8, 17255, Note_on_c, 6, 73, 91
8, 17295, Note_on_c, 6, 74, 85
8, 17333, Note_off_c, 6, 73, 64
8, 17363, Note_on_c, 6, 76, 91
8, 17390, Note_off_c, 6, 74, 64
8, 17434, Note_off_c, 6, 76, 64
8, 17504, Note_on_c, 6, 69, 80
8, 17551, Note_off_c, 6, 69, 64
8, 17616, Note_on_c, 6, 64, 102
8, 17682, Note_off_c, 6, 64, 64
8, 17726, Note_on_c, 6, 69, 87
8, 17785, Note_off_c, 6, 69, 64
8, 17844, Note_on_c, 6, 68, 95
8, 17892, Note_off_c, 6, 68, 64
8, 17976, Note_on_c, 6, 69, 102
8, 18362, Note_off_c, 6, 69, 64
8, 35810, Note_on_c, 6, 69, 85
8, 35864, Note_off_c, 6, 69, 64
8, 35945, Note_on_c, 6, 76, 100
8, 36205, Note_off_c, 6, 76, 64
8, 36306, Note_on_c, 6, 78, 93
8, 36561, Note_off_c, 6, 78, 64
8, 36681, Note_on_c, 6, 76, 87
8, 37106, Note_off_c, 6, 76, 64
8, 37169, Note_on_c, 6, 78, 93
8, 37229, Note_off_c, 6, 78, 64
8, 37275, Note_on_c, 6, 79, 89
8, 37328, Note_off_c, 6, 79, 64
8, 37411, Note_on_c, 6, 78, 105
8, 37520, Note_on_c, 6, 76, 68
8, 37540, Note_off_c, 6, 78, 64
8, 37598, Note_off_c, 6, 76, 64
8, 37645, Note_on_c, 6, 74, 78
8, 37694, Note_off_c, 6, 74, 64
8, 37772, Note_on_c, 6, 73, 100
8, 37891, Note_on_c, 6, 74, 59
8, 37903, Note_off_c, 6, 73, 64
8, 37926, Note_off_c, 6, 74, 64
8, 38010, Note_on_c, 6, 71, 78
8, 38055, Note_off_c, 6, 71, 64
8, 38133, Note_on_c, 6, 70, 93
8, 38251, Note_on_c, 6, 71, 66
8, 38263, Note_off_c, 6, 70, 64
8, 38335, Note_off_c, 6, 71, 64
8, 38373, Note_on_c, 6, 73, 63
8, 38434, Note_off_c, 6, 73, 64
8, 38497, Note_on_c, 6, 66, 89
8, 38600, Note_on_c, 6, 70, 70
8, 38622, Note_off_c, 6, 66, 64
8, 38670, Note_off_c, 6, 70, 64
8, 38723, Note_on_c, 6, 73, 68
8, 38774, Note_off_c, 6, 73, 64
8, 38860, Note_on_c, 6, 78, 107
8, 39147, Note_off_c, 6, 78, 64
8, 39239, Note_on_c, 6, 79, 91
8, 39501, Note_off_c, 6, 79, 64
8, 39594, Note_on_c, 6, 78, 102
8, 40026, Note_off_c, 6, 78, 64
8, 40079, Note_on_c, 6, 76, 82
8, 40160, Note_off_c, 6, 76, 64
8, 40183, Note_on_c, 6, 74, 68
8, 40235, Note_off_c, 6, 74, 64
8, 40309, Note_on_c, 6, 73, 98
8, 40429, Note_on_c, 6, 74, 70
8, 40440, Note_off_c, 6, 73, 64
8, 40481, Note_off_c, 6, 74, 64
8, 40543, Note_on_c, 6, 71, 78
8, 40594, Note_off_c, 6, 71, 64
8, 40670, Note_on_c, 6, 66, 82
8, 40773, Note_on_c, 6, 71, 68
8, 40780, Note_off_c, 6, 66, 64
8, 40844, Note_off_c, 6, 71, 64
8, 40885, Note_on_c, 6, 70, 74
8, 40947, Note_off_c, 6, 70, 64
8, 41023, Note_on_c, 6, 71, 95
8, 41442, Note_off_c, 6, 71, 64
8, 41529, Note_on_c, 6, 74, 87
8, 41596, Note_off_c, 6, 74, 64
8, 41634, Note_on_c, 6, 73, 80
8, 41688, Note_off_c, 6, 73, 64
8, 41761, Note_on_c, 6, 74, 105
8, 41861, Note_on_c, 6, 73, 62
8, 41886, Note_off_c, 6, 74, 64
8, 41924, Note_off_c, 6, 73, 64
8, 41973, Note_on_c, 6, 74, 82
8, 42026, Note_off_c, 6, 74, 64
8, 42104, Note_on_c, 6, 74, 100
8, 42202, Note_on_c, 6, 73, 62
8, 42230, Note_off_c, 6, 74, 64
8, 42270, Note_off_c, 6, 73, 64
8, 42323, Note_on_c, 6, 74, 76
8, 42372, Note_off_c, 6, 74, 64
8, 42455, Note_on_c, 6, 74, 98
8, 42555, Note_on_c, 6, 73, 57
8, 42578, Note_off_c, 6, 74, 64
8, 42662, Note_off_c, 6, 73, 64
8, 42664, Note_on_c, 6, 74, 80
8, 42708, Note_off_c, 6, 74, 64
8, 42805, Note_on_c, 6, 64, 93
8, 42904, Note_on_c, 6, 68, 64
8, 42930, Note_off_c, 6, 64, 64
8, 42967, Note_off_c, 6, 68, 64
8, 43022, Note_on_c, 6, 71, 70
8, 43075, Note_off_c, 6, 71, 64
8, 43162, Note_on_c, 6, 76, 100
8, 43282, Note_on_c, 6, 74, 76
8, 43289, Note_off_c, 6, 76, 64
8, 43344, Note_off_c, 6, 74, 64
8, 43399, Note_on_c, 6, 73, 80
8, 43449, Note_off_c, 6, 73, 64
8, 43523, Note_on_c, 6, 71, 102
8, 43631, Note_on_c, 6, 73, 62
8, 43657, Note_off_c, 6, 71, 64
8, 43735, Note_off_c, 6, 73, 64
8, 43737, Note_on_c, 6, 74, 68
8, 43788, Note_off_c, 6, 74, 64
8, 43868, Note_on_c, 6, 73, 98
8, 43982, Note_on_c, 6, 71, 70
8, 44007, Note_off_c, 6, 73, 64
8, 44080, Note_off_c, 6, 71, 64
8, 44086, Note_on_c, 6, 73, 82
8, 44139, Note_off_c, 6, 73, 64
8, 44227, Note_on_c, 6, 69, 102
8, 44323, Note_on_c, 6, 73, 61
8, 44355, Note_off_c, 6, 69, 64
8, 44409, Note_off_c, 6, 73, 64
8, 44451, Note_on_c, 6, 76, 85
8, 44510, Note_off_c, 6, 76, 64
8, 44596, Note_on_c, 6, 79, 100
8, 44717, Note_on_c, 6, 78, 60
8, 44727, Note_off_c, 6, 79, 64
8, 44789, Note_off_c, 6, 78, 64
8, 44843, Note_on_c, 6, 79, 85
8, 44890, Note_off_c, 6, 79, 64
8, 44969, Note_on_c, 6, 79, 100
8, 45080, Note_on_c, 6, 78, 63
8, 45098, Note_off_c, 6, 79, 64
8, 45161, Note_off_c, 6, 78, 64
8, 45194, Note_on_c, 6, 79, 87
8, 45255, Note_off_c, 6, 79, 64
8, 45333, Note_on_c, 6, 79, 102
8, 45438, Note_on_c, 6, 78, 68
8, 45462, Note_off_c, 6, 79, 64
8, 45537, Note_off_c, 6, 78, 64
8, 45555, Note_on_c, 6, 79, 78
8, 45602, Note_off_c, 6, 79, 64
8, 45679, Note_on_c, 6, 69, 98
8, 45785, Note_on_c, 6, 73, 60
8, 45804, Note_off_c, 6, 69, 64
8, 45870, Note_off_c, 6, 73, 64
8, 45890, Note_on_c, 6, 76, 70
8, 45954, Note_off_c, 6, 76, 64
8, 46050, Note_on_c, 6, 81, 100
8, 46165, Note_on_c, 6, 79, 82
8, 46188, Note_off_c, 6, 81, 64
8, 46242, Note_off_c, 6, 79, 64
8, 46299, Note_on_c, 6, 78, 74
8, 46353, Note_off_c, 6, 78, 64
8, 46430, Note_on_c, 6, 76, 102
8, 46544, Note_on_c, 6, 78, 63
8, 46566, Note_off_c, 6, 76, 64
8, 46633, Note_off_c, 6, 78, 64
8, 46662, Note_on_c, 6, 79, 82
8, 46721, Note_off_c, 6, 79, 64
8, 46786, Note_on_c, 6, 78, 100
8, 46908, Note_on_c, 6, 76, 72
8, 46933, Note_off_c, 6, 78, 64
8, 47022, Note_on_c, 6, 78, 78
8, 47031, Note_off_c, 6, 76, 64
8, 47076, Note_off_c, 6, 78, 64
8, 47143, Note_on_c, 6, 74, 102
8, 47259, Note_on_c, 6, 78, 62
8, 47289, Note_off_c, 6, 74, 64
8, 47357, Note_off_c, 6, 78, 64
8, 47375, Note_on_c, 6, 76, 68
8, 47446, Note_off_c, 6, 76, 64
8, 47508, Note_on_c, 6, 78, 102
8, 47625, Note_on_c, 6, 80, 66
8, 47642, Note_off_c, 6, 78, 64
8, 47700, Note_off_c, 6, 80, 64
8, 47743, Note_on_c, 6, 81, 85
8, 47804, Note_off_c, 6, 81, 64
8, 47865, Note_on_c, 6, 80, 102
8, 47975, Note_on_c, 6, 81, 78
8, 47995, Note_off_c, 6, 80, 64
8, 48056, Note_off_c, 6, 81, 64
8, 48089, Note_on_c, 6, 83, 85
8, 48158, Note_off_c, 6, 83, 64
8, 48226, Note_on_c, 6, 73, 91
8, 48654, Note_off_c, 6, 73, 64
8, 48715, Note_on_c, 6, 80, 87
8, 48777, Note_off_c, 6, 80, 64
8, 48824, Note_on_c, 6, 83, 87
8, 48876, Note_off_c, 6, 83, 64
8, 48962, Note_on_c, 6, 81, 100
8, 49064, Note_on_c, 6, 80, 64
8, 49092, Note_off_c, 6, 81, 64
8, 49131, Note_off_c, 6, 80, 64
8, 49180, Note_on_c, 6, 78, 78
8, 49265, Note_off_c, 6, 78, 64
8, 49309, Note_on_c, 6, 76, 95
8, 49414, Note_on_c, 6, 74, 78
8, 49444, Note_off_c, 6, 76, 64
8, 49480, Note_off_c, 6, 74, 64
8, 49556, Note_on_c, 6, 72, 58
8, 49586, Note_off_c, 6, 72, 64
8, 49667, Note_on_c, 6, 71, 93
8, 50088, Note_off_c, 6, 71, 64
8, 50156, Note_on_c, 6, 78, 82
8, 50223, Note_off_c, 6, 78, 64
8, 50268, Note_on_c, 6, 81, 91
8, 50326, Note_off_c, 6, 81, 64
8, 50394, Note_on_c, 6, 80, 100
8, 50493, Note_on_c, 6, 78, 60
8, 50527, Note_off_c, 6, 80, 64
8, 50580, Note_off_c, 6, 78, 64
8, 50618, Note_on_c, 6, 77, 52
8, 50672, Note_off_c, 6, 77, 64
8, 50743, Note_on_c, 6, 78, 100
8, 50850, Note_on_c, 6, 76, 70
8, 50864, Note_off_c, 6, 78, 64
8, 50924, Note_off_c, 6, 76, 64
8, 50960, Note_on_c, 6, 74, 66
8, 51029, Note_off_c, 6, 74, 64
8, 51096, Note_on_c, 6, 73, 78
8, 51206, Note_on_c, 6, 78, 60
8, 51227, Note_off_c, 6, 73, 64
8, 51278, Note_off_c, 6, 78, 64
8, 51321, Note_on_c, 6, 76, 63
8, 51384, Note_off_c, 6, 76, 64
8, 51452, Note_on_c, 6, 74, 89
8, 51553, Note_off_c, 6, 74, 64
8, 51553, Note_on_c, 6, 73, 57
8, 51656, Note_off_c, 6, 73, 64
8, 51669, Note_on_c, 6, 71, 66
8, 51719, Note_off_c, 6, 71, 64
8, 51803, Note_on_c, 6, 69, 87
8, 51913, Note_on_c, 6, 68, 62
8, 51914, Note_off_c, 6, 69, 64
8, 52005, Note_off_c, 6, 68, 64
8, 52032, Note_on_c, 6, 66, 66
8, 52091, Note_off_c, 6, 66, 64
8, 52166, Note_on_c, 6, 71, 87
8, 52275, Note_on_c, 6, 69, 68
8, 52300, Note_off_c, 6, 71, 64
8, 52361, Note_off_c, 6, 69, 64
8, 52406, Note_on_c, 6, 68, 80
8, 52464, Note_off_c, 6, 68, 64
8, 52534, Note_on_c, 6, 66, 89
8, 52977, Note_off_c, 6, 66, 64
8, 53126, Note_on_c, 6, 62, 85
8, 53191, Note_off_c, 6, 62, 64
8, 53262, Note_on_c, 6, 69, 93
8, 53512, Note_off_c, 6, 69, 64
8, 53628, Note_on_c, 6, 71, 100
8, 53839, Note_off_c, 6, 71, 64
8, 53978, Note_on_c, 6, 72, 95
8, 54395, Note_off_c, 6, 72, 64
8, 54453, Note_on_c, 6, 71, 82
8, 54530, Note_off_c, 6, 71, 64
8, 54562, Note_on_c, 6, 69, 87
8, 54628, Note_off_c, 6, 69, 64
8, 54711, Note_on_c, 6, 71, 102
8, 54819, Note_on_c, 6, 74, 82
8, 54842, Note_off_c, 6, 71, 64
8, 54903, Note_off_c, 6, 74, 64
8, 54938, Note_on_c, 6, 79, 85
8, 54996, Note_off_c, 6, 79, 64
8, 55066, Note_on_c, 6, 69, 85
8, 55172, Note_off_c, 6, 69, 64
8, 55178, Note_on_c, 6, 79, 80
8, 55261, Note_off_c, 6, 79, 64
8, 55286, Note_on_c, 6, 78, 72
8, 55344, Note_off_c, 6, 78, 64
8, 55423, Note_on_c, 6, 79, 100
8, 55541, Note_off_c, 6, 79, 64
8, 55541, Note_on_c, 6, 83, 82
8, 55608, Note_off_c, 6, 83, 64
8, 55657, Note_on_c, 6, 81, 87
8, 55710, Note_off_c, 6, 81, 64
8, 55798, Note_on_c, 6, 83, 100
8, 56245, Note_off_c, 6, 83, 64
8, 56298, Note_on_c, 6, 81, 87
8, 56357, Note_off_c, 6, 81, 64
8, 56404, Note_on_c, 6, 79, 85
8, 56463, Note_off_c, 6, 79, 64
8, 56538, Note_on_c, 6, 78, 95
8, 56640, Note_on_c, 6, 79, 80
8, 56667, Note_off_c, 6, 78, 64
8, 56712, Note_off_c, 6, 79, 64
8, 56751, Note_on_c, 6, 76, 68
8, 56829, Note_off_c, 6, 76, 64
8, 56882, Note_on_c, 6, 78, 87
8, 56997, Note_off_c, 6, 78, 64
8, 56997, Note_on_c, 6, 81, 72
8, 57054, Note_off_c, 6, 81, 64
8, 57109, Note_on_c, 6, 79, 66
8, 57169, Note_off_c, 6, 79, 64
8, 57240, Note_on_c, 6, 81, 89
8, 57641, Note_off_c, 6, 81, 64
8, 57695, Note_on_c, 6, 79, 64
8, 57758, Note_off_c, 6, 79, 64
8, 57811, Note_on_c, 6, 78, 72
8, 57868, Note_off_c, 6, 78, 64
8, 57940, Note_on_c, 6, 76, 95
8, 58041, Note_on_c, 6, 78, 60
8, 58066, Note_off_c, 6, 76, 64
8, 58111, Note_off_c, 6, 78, 64
8, 58164, Note_on_c, 6, 75, 59
8, 58222, Note_off_c, 6, 75, 64
8, 58295, Note_on_c, 6, 76, 89
8, 58402, Note_on_c, 6, 79, 68
8, 58426, Note_off_c, 6, 76, 64
8, 58480, Note_off_c, 6, 79, 64
8, 58522, Note_on_c, 6, 78, 85
8, 58579, Note_off_c, 6, 78, 64
8, 58649, Note_on_c, 6, 79, 85
8, 59085, Note_off_c, 6, 79, 64
8, 59129, Note_on_c, 6, 78, 76
8, 59197, Note_off_c, 6, 78, 64
8, 59244, Note_on_c, 6, 76, 76
8, 59303, Note_off_c, 6, 76, 64
8, 59375, Note_on_c, 6, 74, 89
8, 59481, Note_on_c, 6, 76, 78
8, 59504, Note_off_c, 6, 74, 64
8, 59568, Note_off_c, 6, 76, 64
8, 59611, Note_on_c, 6, 73, 60
8, 59683, Note_off_c, 6, 73, 64
8, 59754, Note_on_c, 6, 74, 102
8, 59848, Note_on_c, 6, 78, 59
8, 59883, Note_off_c, 6, 74, 64
8, 59931, Note_off_c, 6, 78, 64
8, 59967, Note_on_c, 6, 76, 68
8, 60032, Note_off_c, 6, 76, 64
8, 60100, Note_on_c, 6, 78, 102
8, 60193, Note_on_c, 6, 79, 80
8, 60214, Note_off_c, 6, 78, 64
8, 60285, Note_off_c, 6, 79, 64
8, 60325, Note_on_c, 6, 81, 63
8, 60370, Note_off_c, 6, 81, 64
8, 60454, Note_on_c, 6, 71, 98
8, 60570, Note_on_c, 6, 73, 54
8, 60585, Note_off_c, 6, 71, 64
8, 60638, Note_off_c, 6, 73, 64
8, 60679, Note_on_c, 6, 74, 62
8, 60747, Note_off_c, 6, 74, 64
8, 60819, Note_on_c, 6, 76, 93
8, 60933, Note_on_c, 6, 78, 57
8, 60946, Note_off_c, 6, 76, 64
8, 61014, Note_off_c, 6, 78, 64
8, 61052, Note_on_c, 6, 74, 63
8, 61110, Note_off_c, 6, 74, 64
8, 61178, Note_on_c, 6, 73, 89
8, 61292, Note_on_c, 6, 74, 62
8, 61315, Note_off_c, 6, 73, 64
8, 61382, Note_off_c, 6, 74, 64
8, 61420, Note_on_c, 6, 76, 61
8, 61463, Note_off_c, 6, 76, 64
8, 61551, Note_on_c, 6, 78, 105
8, 61653, Note_on_c, 6, 79, 68
8, 61675, Note_off_c, 6, 78, 64
8, 61729, Note_off_c, 6, 79, 64
8, 61777, Note_on_c, 6, 76, 68
8, 61834, Note_off_c, 6, 76, 64
8, 61913, Note_on_c, 6, 74, 95
8, 62021, Note_on_c, 6, 76, 70
8, 62051, Note_off_c, 6, 74, 64
8, 62095, Note_off_c, 6, 76, 64
8, 62142, Note_on_c, 6, 78, 60
8, 62208, Note_off_c, 6, 78, 64
8, 62269, Note_on_c, 6, 79, 87
8, 62388, Note_on_c, 6, 81, 54
8, 62405, Note_off_c, 6, 79, 64
8, 62443, Note_off_c, 6, 81, 64
8, 62506, Note_on_c, 6, 78, 72
8, 62566, Note_off_c, 6, 78, 64
8, 62622, Note_on_c, 6, 76, 100
8, 62718, Note_on_c, 6, 78, 60
8, 62743, Note_off_c, 6, 76, 64
8, 62788, Note_off_c, 6, 78, 64
8, 62844, Note_on_c, 6, 79, 74
8, 62900, Note_off_c, 6, 79, 64
8, 62976, Note_on_c, 6, 81, 98
8, 63074, Note_on_c, 6, 83, 74
8, 63099, Note_off_c, 6, 81, 64
8, 63159, Note_off_c, 6, 83, 64
8, 63197, Note_on_c, 6, 79, 68
8, 63250, Note_off_c, 6, 79, 64
8, 63322, Note_on_c, 6, 78, 89
8, 63770, Note_off_c, 6, 78, 64
8, 63814, Note_on_c, 6, 76, 64
8, 63889, Note_off_c, 6, 76, 64
8, 63919, Note_on_c, 6, 74, 80
8, 63987, Note_off_c, 6, 74, 64
8, 64046, Note_on_c, 6, 76, 95
8, 64147, Note_on_c, 6, 73, 64
8, 64149, Note_on_c, 6, 78, 48
8, 64170, Note_off_c, 6, 76, 64
8, 64182, Note_off_c, 6, 78, 64
8, 64255, Note_off_c, 6, 73, 64
8, 64265, Note_on_c, 6, 74, 63
8, 64319, Note_off_c, 6, 74, 64
8, 64397, Note_on_c, 6, 69, 89
8, 64515, Note_off_c, 6, 69, 64
8, 64518, Note_on_c, 6, 74, 76
8, 64593, Note_off_c, 6, 74, 64
8, 64634, Note_on_c, 6, 73, 76
8, 64705, Note_off_c, 6, 73, 64
8, 64775, Note_on_c, 6, 62, 98
8, 64892, Note_off_c, 6, 62, 64
8, 65002, Note_on_c, 6, 74, 82
8, 65065, Note_off_c, 6, 74, 64
8, 65132, Note_on_c, 6, 81, 98
8, 65571, Note_off_c, 6, 81, 64
8, 65613, Note_on_c, 6, 83, 72
8, 65682, Note_off_c, 6, 83, 64
8, 65732, Note_on_c, 6, 81, 85
8, 65783, Note_off_c, 6, 81, 64
8, 65856, Note_on_c, 6, 80, 85
8, 65949, Note_on_c, 6, 76, 66
8, 65970, Note_off_c, 6, 80, 64
8, 66030, Note_off_c, 6, 76, 64
8, 66080, Note_on_c, 6, 78, 63
8, 66140, Note_off_c, 6, 78, 64
8, 66211, Note_on_c, 6, 79, 82
8, 66323, Note_on_c, 6, 81, 63
8, 66325, Note_off_c, 6, 79, 64
8, 66383, Note_off_c, 6, 81, 64
8, 66452, Note_on_c, 6, 79, 63
8, 66497, Note_off_c, 6, 79, 64
8, 66578, Note_on_c, 6, 78, 89
8, 66684, Note_on_c, 6, 74, 70
8, 66719, Note_off_c, 6, 78, 64
8, 66770, Note_off_c, 6, 74, 64
8, 66815, Note_on_c, 6, 76, 72
8, 66871, Note_off_c, 6, 76, 64
8, 66938, Note_on_c, 6, 77, 95
8, 67039, Note_on_c, 6, 79, 66
8, 67064, Note_off_c, 6, 77, 64
8, 67110, Note_off_c, 6, 79, 64
8, 67163, Note_on_c, 6, 77, 68
8, 67219, Note_off_c, 6, 77, 64
8, 67299, Note_on_c, 6, 76, 82
8, 67404, Note_on_c, 6, 73, 63
8, 67421, Note_off_c, 6, 76, 64
8, 67474, Note_off_c, 6, 73, 64
8, 67522, Note_on_c, 6, 74, 80
8, 67582, Note_off_c, 6, 74, 64
8, 67655, Note_on_c, 6, 73, 87
8, 67747, Note_on_c, 6, 74, 68
8, 67772, Note_off_c, 6, 73, 64
8, 67835, Note_off_c, 6, 74, 64
8, 67871, Note_on_c, 6, 76, 68
8, 67931, Note_off_c, 6, 76, 64
8, 68014, Note_on_c, 6, 69, 85
8, 68474, Note_off_c, 6, 69, 64
8, 68620, Note_on_c, 6, 81, 87
8, 68695, Note_off_c, 6, 81, 64
8, 68746, Note_on_c, 6, 83, 82
8, 68844, Note_off_c, 6, 83, 64
8, 68978, Note_on_c, 6, 85, 87
8, 69062, Note_off_c, 6, 85, 64
8, 69099, Note_on_c, 6, 86, 102
8, 69205, Note_off_c, 6, 86, 64
8, 69334, Note_on_c, 6, 81, 74
8, 69385, Note_off_c, 6, 81, 64
8, 69458, Note_on_c, 6, 79, 85
8, 69501, Note_on_c, 6, 78, 95
8, 69531, Note_off_c, 6, 79, 64
8, 69561, Note_on_c, 6, 76, 85
8, 69584, Note_off_c, 6, 78, 64
8, 69632, Note_off_c, 6, 76, 64
8, 69683, Note_on_c, 6, 74, 87
8, 69739, Note_off_c, 6, 74, 64
8, 69822, Note_on_c, 6, 74, 87
8, 70241, Note_off_c, 6, 74, 64
8, 70241, End_track
9, 0, Start_track
9, 0, Title_t, "Violin"
9, 0, Program_c, 7, 40
9, 0, Control_c, 7, 7, 100
9, 1328, Note_on_c, 7, 66, 102
9, 1380, Note_off_c, 7, 66, 64
9, 1424, Note_on_c, 7, 66, 100
9, 1687, Note_off_c, 7, 66, 64
9, 1783, Note_on_c, 7, 67, 93
9, 2008, Note_off_c, 7, 67, 64
9, 2122, Note_on_c, 7, 66, 93
9, 2632, Note_off_c, 7, 66, 64
9, 2733, Note_on_c, 7, 67, 82
9, 2803, Note_off_c, 7, 67, 64
9, 2848, Note_on_c, 7, 69, 91
9, 2995, Note_off_c, 7, 69, 64
9, 3093, Note_on_c, 7, 67, 80
9, 3146, Note_off_c, 7, 67, 64
9, 3219, Note_on_c, 7, 66, 89
9, 3364, Note_off_c, 7, 66, 64
9, 3454, Note_on_c, 7, 64, 80
9, 3500, Note_off_c, 7, 64, 64
9, 3592, Note_on_c, 7, 62, 98
9, 3706, Note_on_c, 7, 61, 82
9, 3732, Note_off_c, 7, 62, 64
9, 3793, Note_off_c, 7, 61, 64
9, 3816, Note_on_c, 7, 62, 80
9, 3864, Note_off_c, 7, 62, 64
9, 3954, Note_on_c, 7, 57, 89
9, 4070, Note_on_c, 7, 62, 70
9, 4095, Note_off_c, 7, 57, 64
9, 4176, Note_off_c, 7, 62, 64
9, 4187, Note_on_c, 7, 64, 78
9, 4230, Note_off_c, 7, 64, 64
9, 4330, Note_on_c, 7, 66, 93
9, 4582, Note_off_c, 7, 66, 64
9, 4707, Note_on_c, 7, 71, 85
9, 4919, Note_off_c, 7, 71, 64
9, 5062, Note_on_c, 7, 71, 85
9, 5511, Note_off_c, 7, 71, 64
9, 5633, Note_on_c, 7, 71, 78
9, 5694, Note_off_c, 7, 71, 64
9, 5762, Note_on_c, 7, 69, 80
9, 5920, Note_off_c, 7, 69, 64
9, 6002, Note_on_c, 7, 69, 76
9, 6057, Note_off_c, 7, 69, 64
9, 6128, Note_on_c, 7, 69, 91
9, 6289, Note_off_c, 7, 69, 64
9, 6353, Note_on_c, 7, 68, 68
9, 6413, Note_off_c, 7, 68, 64
9, 6493, Note_on_c, 7, 69, 100
9, 6608, Note_on_c, 7, 68, 64
9, 6623, Note_off_c, 7, 69, 64
9, 6685, Note_off_c, 7, 68, 64
9, 6714, Note_on_c, 7, 69, 82
9, 6767, Note_off_c, 7, 69, 64
9, 6852, Note_on_c, 7, 64, 87
9, 6973, Note_on_c, 7, 69, 68
9, 6979, Note_off_c, 7, 64, 64
9, 7044, Note_off_c, 7, 69, 64
9, 7080, Note_on_c, 7, 71, 78
9, 7128, Note_off_c, 7, 71, 64
9, 7205, Note_on_c, 7, 73, 98
9, 7425, Note_off_c, 7, 73, 64
9, 7544, Note_on_c, 7, 73, 91
9, 7749, Note_off_c, 7, 73, 64
9, 7908, Note_on_c, 7, 71, 85
9, 8336, Note_off_c, 7, 71, 64
9, 8507, Note_on_c, 7, 71, 89
9, 8558, Note_off_c, 7, 71, 64
9, 8611, Note_on_c, 7, 71, 98
9, 8844, Note_off_c, 7, 71, 64
9, 8963, Note_on_c, 7, 71, 87
9, 9184, Note_off_c, 7, 71, 64
9, 9331, Note_on_c, 7, 69, 82
9, 9723, Note_off_c, 7, 69, 64
9, 9934, Note_on_c, 7, 73, 70
9, 10003, Note_off_c, 7, 73, 64
9, 10053, Note_on_c, 7, 74, 89
9, 10245, Note_off_c, 7, 74, 64
9, 10285, Note_on_c, 7, 78, 64
9, 10359, Note_off_c, 7, 78, 64
9, 10416, Note_on_c, 7, 76, 89
9, 10556, Note_off_c, 7, 76, 64
9, 10634, Note_on_c, 7, 69, 70
9, 10702, Note_off_c, 7, 69, 64
9, 10775, Note_on_c, 7, 71, 85
9, 10948, Note_off_c, 7, 71, 64
9, 11007, Note_on_c, 7, 74, 70
9, 11070, Note_off_c, 7, 74, 64
9, 11139, Note_on_c, 7, 74, 82
9, 11321, Note_off_c, 7, 74, 64
9, 11384, Note_on_c, 7, 74, 80
9, 11452, Note_off_c, 7, 74, 64
9, 11517, Note_on_c, 7, 74, 87
9, 11690, Note_off_c, 7, 74, 64
9, 11755, Note_on_c, 7, 71, 64
9, 11810, Note_off_c, 7, 71, 64
9, 11880, Note_on_c, 7, 69, 89
9, 12050, Note_off_c, 7, 69, 64
9, 12123, Note_on_c, 7, 74, 66
9, 12188, Note_off_c, 7, 74, 64
9, 12252, Note_on_c, 7, 76, 98
9, 12403, Note_off_c, 7, 76, 64
9, 12472, Note_on_c, 7, 64, 68
9, 12547, Note_off_c, 7, 64, 64
9, 12592, Note_on_c, 7, 68, 87
9, 12772, Note_off_c, 7, 68, 64
9, 12832, Note_on_c, 7, 68, 70
9, 12905, Note_off_c, 7, 68, 64
9, 12964, Note_on_c, 7, 69, 87
9, 13140, Note_off_c, 7, 69, 64
9, 13201, Note_on_c, 7, 69, 80
9, 13269, Note_off_c, 7, 69, 64
9, 13332, Note_on_c, 7, 69, 93
9, 13484, Note_off_c, 7, 69, 64
9, 13554, Note_on_c, 7, 68, 80
9, 13617, Note_off_c, 7, 68, 64
9, 13698, Note_on_c, 7, 66, 89
9, 14354, Note_off_c, 7, 66, 64
9, 14390, Note_on_c, 7, 64, 85
9, 15038, Note_off_c, 7, 64, 64
9, 15109, Note_on_c, 7, 62, 85
9, 16293, Note_off_c, 7, 62, 64
9, 16304, Note_on_c, 7, 64, 87
9, 16374, Note_off_c, 7, 64, 64
9, 16404, Note_on_c, 7, 68, 85
9, 16466, Note_off_c, 7, 68, 64
9, 16525, Note_on_c, 7, 71, 98
9, 16689, Note_off_c, 7, 71, 64
9, 16760, Note_on_c, 7, 68, 80
9, 16824, Note_off_c, 7, 68, 64
9, 16884, Note_on_c, 7, 69, 89
9, 17055, Note_off_c, 7, 69, 64
9, 17111, Note_on_c, 7, 71, 82
9, 17180, Note_off_c, 7, 71, 64
9, 17245, Note_on_c, 7, 69, 89
9, 17424, Note_off_c, 7, 69, 64
9, 17483, Note_on_c, 7, 64, 78
9, 17536, Note_off_c, 7, 64, 64
9, 17623, Note_on_c, 7, 64, 98
9, 17775, Note_off_c, 7, 64, 64
9, 17844, Note_on_c, 7, 64, 85
9, 17894, Note_off_c, 7, 64, 64
9, 17975, Note_on_c, 7, 64, 100
9, 18356, Note_off_c, 7, 64, 64
9, 35823, Note_on_c, 7, 73, 89
9, 35879, Note_off_c, 7, 73, 64
9, 35955, Note_on_c, 7, 73, 100
9, 36227, Note_off_c, 7, 73, 64
9, 36313, Note_on_c, 7, 74, 93
9, 36591, Note_off_c, 7, 74, 64
9, 36672, Note_on_c, 7, 73, 98
9, 37105, Note_off_c, 7, 73, 64
9, 37153, Note_on_c, 7, 74, 85
9, 37226, Note_off_c, 7, 74, 64
9, 37250, Note_on_c, 7, 76, 82
9, 37318, Note_off_c, 7, 76, 64
9, 37389, Note_on_c, 7, 74, 89
9, 37519, Note_off_c, 7, 74, 64
9, 37623, Note_on_c, 7, 66, 60
9, 37699, Note_off_c, 7, 66, 64
9, 37759, Note_on_c, 7, 64, 82
9, 37896, Note_off_c, 7, 64, 64
9, 37994, Note_on_c, 7, 64, 82
9, 38067, Note_off_c, 7, 64, 64
9, 38131, Note_on_c, 7, 66, 72
9, 38524, Note_off_c, 7, 66, 64
9, 38628, Note_on_c, 7, 78, 93
9, 38683, Note_off_c, 7, 78, 64
9, 38736, Note_on_c, 7, 76, 74
9, 38795, Note_off_c, 7, 76, 64
9, 38867, Note_on_c, 7, 74, 98
9, 39127, Note_off_c, 7, 74, 64
9, 39238, Note_on_c, 7, 76, 91
9, 39466, Note_off_c, 7, 76, 64
9, 39594, Note_on_c, 7, 74, 89
9, 40074, Note_off_c, 7, 74, 64
9, 40177, Note_on_c, 7, 66, 76
9, 40263, Note_off_c, 7, 66, 64
9, 40304, Note_on_c, 7, 64, 72
9, 40465, Note_off_c, 7, 64, 64
9, 40543, Note_on_c, 7, 64, 76
9, 40625, Note_off_c, 7, 64, 64
9, 40667, Note_on_c, 7, 66, 80
9, 40807, Note_off_c, 7, 66, 64
9, 40918, Note_on_c, 7, 66, 68
9, 40986, Note_off_c, 7, 66, 64
9, 41043, Note_on_c, 7, 66, 95
9, 41478, Note_off_c, 7, 66, 64
9, 41617, Note_on_c, 7, 66, 66
9, 41690, Note_off_c, 7, 66, 64
9, 41753, Note_on_c, 7, 71, 85
9, 41987, Note_off_c, 7, 71, 64
9, 42116, Note_on_c, 7, 68, 80
9, 42306, Note_off_c, 7, 68, 64
9, 42482, Note_on_c, 7, 68, 80
9, 42720, Note_off_c, 7, 68, 64
9, 42822, Note_on_c, 7, 71, 85
9, 42959, Note_off_c, 7, 71, 64
9, 43050, Note_on_c, 7, 71, 95
9, 43113, Note_off_c, 7, 71, 64
9, 43164, Note_on_c, 7, 71, 102
9, 43313, Note_off_c, 7, 71, 64
9, 43397, Note_on_c, 7, 69, 78
9, 43447, Note_off_c, 7, 69, 64
9, 43518, Note_on_c, 7, 69, 102
9, 43657, Note_off_c, 7, 69, 64
9, 43744, Note_on_c, 7, 68, 89
9, 43810, Note_off_c, 7, 68, 64
9, 43876, Note_on_c, 7, 69, 102
9, 43982, Note_off_c, 7, 69, 64
9, 43987, Note_on_c, 7, 68, 87
9, 44062, Note_off_c, 7, 68, 64
9, 44100, Note_on_c, 7, 69, 87
9, 44153, Note_off_c, 7, 69, 64
9, 44216, Note_on_c, 7, 64, 95
9, 44323, Note_on_c, 7, 69, 82
9, 44336, Note_off_c, 7, 64, 64
9, 44404, Note_off_c, 7, 69, 64
9, 44447, Note_on_c, 7, 73, 93
9, 44515, Note_off_c, 7, 73, 64
9, 44577, Note_on_c, 7, 76, 85
9, 44853, Note_off_c, 7, 76, 64
9, 44962, Note_on_c, 7, 73, 78
9, 45186, Note_off_c, 7, 73, 64
9, 45323, Note_on_c, 7, 73, 78
9, 45590, Note_off_c, 7, 73, 64
9, 45686, Note_on_c, 7, 76, 89
9, 45843, Note_off_c, 7, 76, 64
9, 45921, Note_on_c, 7, 76, 91
9, 45984, Note_off_c, 7, 76, 64
9, 46044, Note_on_c, 7, 76, 95
9, 46189, Note_off_c, 7, 76, 64
9, 46282, Note_on_c, 7, 74, 91
9, 46355, Note_off_c, 7, 74, 64
9, 46415, Note_on_c, 7, 74, 89
9, 46570, Note_off_c, 7, 74, 64
9, 46656, Note_on_c, 7, 73, 74
9, 46734, Note_off_c, 7, 73, 64
9, 46796, Note_on_c, 7, 74, 100
9, 46907, Note_on_c, 7, 73, 63
9, 46921, Note_off_c, 7, 74, 64
9, 46975, Note_off_c, 7, 73, 64
9, 47017, Note_on_c, 7, 74, 82
9, 47090, Note_off_c, 7, 74, 64
9, 47137, Note_on_c, 7, 69, 95
9, 47229, Note_off_c, 7, 69, 64
9, 47248, Note_on_c, 7, 74, 85
9, 47324, Note_off_c, 7, 74, 64
9, 47365, Note_on_c, 7, 73, 85
9, 47427, Note_off_c, 7, 73, 64
9, 47503, Note_on_c, 7, 74, 95
9, 47932, Note_off_c, 7, 74, 64
9, 47973, Note_on_c, 7, 73, 87
9, 48035, Note_off_c, 7, 73, 64
9, 48082, Note_on_c, 7, 74, 85
9, 48144, Note_off_c, 7, 74, 64
9, 48225, Note_on_c, 7, 65, 91
9, 48673, Note_off_c, 7, 65, 64
9, 48829, Note_on_c, 7, 73, 98
9, 48879, Note_off_c, 7, 73, 64
9, 48943, Note_on_c, 7, 73, 93
9, 49356, Note_off_c, 7, 73, 64
9, 49414, Note_on_c, 7, 71, 72
9, 49478, Note_off_c, 7, 71, 64
9, 49518, Note_on_c, 7, 69, 85
9, 49589, Note_off_c, 7, 69, 64
9, 49643, Note_on_c, 7, 71, 85
9, 50113, Note_off_c, 7, 71, 64
9, 50238, Note_on_c, 7, 69, 80
9, 50321, Note_off_c, 7, 69, 64
9, 50392, Note_on_c, 7, 74, 102
9, 50555, Note_off_c, 7, 74, 64
9, 50628, Note_on_c, 7, 73, 60
9, 50712, Note_off_c, 7, 73, 64
9, 50750, Note_on_c, 7, 71, 80
9, 50891, Note_off_c, 7, 71, 64
9, 50980, Note_on_c, 7, 71, 72
9, 51055, Note_off_c, 7, 71, 64
9, 51111, Note_on_c, 7, 69, 85
9, 51235, Note_off_c, 7, 69, 64
9, 51335, Note_on_c, 7, 73, 82
9, 51391, Note_off_c, 7, 73, 64
9, 51467, Note_on_c, 7, 71, 100
9, 51567, Note_on_c, 7, 69, 76
9, 51571, Note_off_c, 7, 71, 64
9, 51666, Note_off_c, 7, 69, 64
9, 51672, Note_on_c, 7, 68, 63
9, 51740, Note_off_c, 7, 68, 64
9, 51812, Note_on_c, 7, 66, 74
9, 51966, Note_off_c, 7, 66, 64
9, 52045, Note_on_c, 7, 66, 68
9, 52105, Note_off_c, 7, 66, 64
9, 52160, Note_on_c, 7, 66, 89
9, 52295, Note_off_c, 7, 66, 64
9, 52380, Note_on_c, 7, 65, 57
9, 52451, Note_off_c, 7, 65, 64
9, 52532, Note_on_c, 7, 61, 66
9, 52971, Note_off_c, 7, 61, 64
9, 53131, Note_on_c, 7, 62, 93
9, 53203, Note_off_c, 7, 62, 64
9, 53257, Note_on_c, 7, 66, 100
9, 53535, Note_off_c, 7, 66, 64
9, 53623, Note_on_c, 7, 67, 87
9, 53855, Note_off_c, 7, 67, 64
9, 53971, Note_on_c, 7, 66, 89
9, 54408, Note_off_c, 7, 66, 64
9, 54448, Note_on_c, 7, 67, 91
9, 54529, Note_off_c, 7, 67, 64
9, 54549, Note_on_c, 7, 69, 70
9, 54619, Note_off_c, 7, 69, 64
9, 54693, Note_on_c, 7, 67, 98
9, 54827, Note_off_c, 7, 67, 64
9, 54927, Note_on_c, 7, 71, 82
9, 55006, Note_off_c, 7, 71, 64
9, 55071, Note_on_c, 7, 69, 89
9, 55185, Note_off_c, 7, 69, 64
9, 55302, Note_on_c, 7, 69, 85
9, 55361, Note_off_c, 7, 69, 64
9, 55428, Note_on_c, 7, 71, 93
9, 55526, Note_off_c, 7, 71, 64
9, 55544, Note_on_c, 7, 74, 80
9, 55612, Note_off_c, 7, 74, 64
9, 55642, Note_on_c, 7, 72, 82
9, 55708, Note_off_c, 7, 72, 64
9, 55783, Note_on_c, 7, 74, 102
9, 55965, Note_off_c, 7, 74, 64
9, 56024, Note_on_c, 7, 71, 74
9, 56093, Note_off_c, 7, 71, 64
9, 56150, Note_on_c, 7, 76, 98
9, 56303, Note_off_c, 7, 76, 64
9, 56385, Note_on_c, 7, 74, 70
9, 56453, Note_off_c, 7, 74, 64
9, 56513, Note_on_c, 7, 73, 85
9, 56925, Note_off_c, 7, 73, 64
9, 56985, Note_on_c, 7, 78, 63
9, 57046, Note_off_c, 7, 78, 64
9, 57091, Note_on_c, 7, 76, 82
9, 57152, Note_off_c, 7, 76, 64
9, 57233, Note_on_c, 7, 75, 102
9, 57389, Note_off_c, 7, 75, 64
9, 57470, Note_on_c, 7, 76, 66
9, 57543, Note_off_c, 7, 76, 64
9, 57591, Note_on_c, 7, 75, 100
9, 57720, Note_off_c, 7, 75, 64
9, 57834, Note_on_c, 7, 78, 74
9, 57899, Note_off_c, 7, 78, 64
9, 57962, Note_on_c, 7, 71, 82
9, 58439, Note_off_c, 7, 71, 64
9, 58542, Note_on_c, 7, 71, 82
9, 58606, Note_off_c, 7, 71, 64
9, 58671, Note_on_c, 7, 71, 98
9, 58765, Note_on_c, 7, 76, 80
9, 58778, Note_off_c, 7, 71, 64
9, 58840, Note_off_c, 7, 76, 64
9, 58888, Note_on_c, 7, 74, 80
9, 58964, Note_off_c, 7, 74, 64
9, 59014, Note_on_c, 7, 73, 85
9, 59151, Note_off_c, 7, 73, 64
9, 59254, Note_on_c, 7, 76, 82
9, 59312, Note_off_c, 7, 76, 64
9, 59384, Note_on_c, 7, 69, 85
9, 59888, Note_off_c, 7, 69, 64
9, 59986, Note_on_c, 7, 69, 66
9, 60058, Note_off_c, 7, 69, 64
9, 60115, Note_on_c, 7, 69, 91
9, 60240, Note_off_c, 7, 69, 64
9, 60358, Note_on_c, 7, 69, 74
9, 60424, Note_off_c, 7, 69, 64
9, 60476, Note_on_c, 7, 67, 80
9, 60656, Note_off_c, 7, 67, 64
9, 60802, Note_on_c, 7, 71, 82
9, 60974, Note_off_c, 7, 71, 64
9, 61175, Note_on_c, 7, 69, 87
9, 61329, Note_off_c, 7, 69, 64
9, 61526, Note_on_c, 7, 73, 85
9, 61688, Note_off_c, 7, 73, 64
9, 61892, Note_on_c, 7, 71, 82
9, 62032, Note_off_c, 7, 71, 64
9, 62244, Note_on_c, 7, 74, 91
9, 62400, Note_off_c, 7, 74, 64
9, 62602, Note_on_c, 7, 76, 89
9, 62769, Note_off_c, 7, 76, 64
9, 62958, Note_on_c, 7, 76, 87
9, 63067, Note_off_c, 7, 76, 64
9, 63316, Note_on_c, 7, 74, 98
9, 63420, Note_on_c, 7, 73, 80
9, 63437, Note_off_c, 7, 74, 64
9, 63510, Note_off_c, 7, 73, 64
9, 63541, Note_on_c, 7, 74, 85
9, 63596, Note_off_c, 7, 74, 64
9, 63675, Note_on_c, 7, 71, 93
9, 63837, Note_off_c, 7, 71, 64
9, 63935, Note_on_c, 7, 71, 89
9, 64013, Note_off_c, 7, 71, 64
9, 64063, Note_on_c, 7, 73, 100
9, 64202, Note_off_c, 7, 73, 64
9, 64290, Note_on_c, 7, 69, 85
9, 64369, Note_off_c, 7, 69, 64
9, 64420, Note_on_c, 7, 71, 89
9, 64528, Note_off_c, 7, 71, 64
9, 64637, Note_on_c, 7, 69, 82
9, 64720, Note_off_c, 7, 69, 64
9, 64780, Note_on_c, 7, 66, 85
9, 65162, Note_off_c, 7, 66, 64
9, 65368, Note_on_c, 7, 72, 82
9, 65432, Note_off_c, 7, 72, 64
9, 65517, Note_on_c, 7, 71, 89
9, 66159, Note_off_c, 7, 71, 64
9, 66215, Note_on_c, 7, 69, 80
9, 66875, Note_off_c, 7, 69, 64
9, 66946, Note_on_c, 7, 67, 87
9, 68117, Note_on_c, 7, 69, 89
9, 68122, Note_off_c, 7, 67, 64
9, 68196, Note_off_c, 7, 69, 64
9, 68229, Note_on_c, 7, 73, 93
9, 68310, Note_off_c, 7, 73, 64
9, 68360, Note_on_c, 7, 76, 100
9, 68497, Note_off_c, 7, 76, 64
9, 68602, Note_on_c, 7, 73, 74
9, 68694, Note_off_c, 7, 73, 64
9, 68731, Note_on_c, 7, 74, 87
9, 68855, Note_off_c, 7, 74, 64
9, 68964, Note_on_c, 7, 76, 82
9, 69039, Note_off_c, 7, 76, 64
9, 69094, Note_on_c, 7, 74, 87
9, 69218, Note_off_c, 7, 74, 64
9, 69334, Note_on_c, 7, 78, 78
9, 69392, Note_off_c, 7, 78, 64
9, 69463, Note_on_c, 7, 74, 102
9, 69562, Note_on_c, 7, 73, 64
9, 69580, Note_off_c, 7, 74, 64
9, 69643, Note_off_c, 7, 73, 64
9, 69673, Note_on_c, 7, 74, 95
9, 69723, Note_off_c, 7, 74, 64
9, 69822, Note_on_c, 7, 69, 102
9, 70296, Note_off_c, 7, 69, 64
9, 70296, End_track
10, 0, Start_track
10, 0, Title_t, "Viola"
10, 0, Program_c, 8, 41
10, 0, Control_c, 8, 7, 100
10, 1306, Note_on_c, 8, 62, 102
10, 1351, Note_off_c, 8, 62, 64
10, 1432, Note_on_c, 8, 62, 105
10, 1689, Note_off_c, 8, 62, 64
10, 1785, Note_on_c, 8, 62, 107
10, 2015, Note_off_c, 8, 62, 64
10, 2132, Note_on_c, 8, 62, 105
10, 2619, Note_off_c, 8, 62, 64
10, 2717, Note_on_c, 8, 55, 82
10, 2785, Note_off_c, 8, 55, 64
10, 2844, Note_on_c, 8, 62, 85
10, 3005, Note_off_c, 8, 62, 64
10, 3088, Note_on_c, 8, 62, 87
10, 3142, Note_off_c, 8, 62, 64
10, 3205, Note_on_c, 8, 62, 91
10, 3368, Note_off_c, 8, 62, 64
10, 3441, Note_on_c, 8, 61, 82
10, 3499, Note_off_c, 8, 61, 64
10, 3581, Note_on_c, 8, 57, 91
10, 3693, Note_on_c, 8, 55, 78
10, 3717, Note_off_c, 8, 57, 64
10, 3778, Note_off_c, 8, 55, 64
10, 3812, Note_on_c, 8, 57, 91
10, 3873, Note_off_c, 8, 57, 64
10, 3942, Note_on_c, 8, 54, 100
10, 4057, Note_on_c, 8, 57, 72
10, 4075, Note_off_c, 8, 54, 64
10, 4151, Note_off_c, 8, 57, 64
10, 4176, Note_on_c, 8, 61, 87
10, 4232, Note_off_c, 8, 61, 64
10, 4317, Note_on_c, 8, 62, 85
10, 4598, Note_off_c, 8, 62, 64
10, 4689, Note_on_c, 8, 62, 89
10, 4936, Note_off_c, 8, 62, 64
10, 5039, Note_on_c, 8, 64, 82
10, 5468, Note_off_c, 8, 64, 64
10, 5653, Note_on_c, 8, 64, 82
10, 5718, Note_off_c, 8, 64, 64
10, 5777, Note_on_c, 8, 64, 98
10, 5903, Note_off_c, 8, 64, 64
10, 6004, Note_on_c, 8, 61, 80
10, 6079, Note_off_c, 8, 61, 64
10, 6135, Note_on_c, 8, 66, 87
10, 6281, Note_off_c, 8, 66, 64
10, 6367, Note_on_c, 8, 64, 78
10, 6423, Note_off_c, 8, 64, 64
10, 6489, Note_on_c, 8, 64, 100
10, 6600, Note_on_c, 8, 62, 64
10, 6623, Note_off_c, 8, 64, 64
10, 6685, Note_off_c, 8, 62, 64
10, 6716, Note_on_c, 8, 64, 82
10, 6766, Note_off_c, 8, 64, 64
10, 6844, Note_on_c, 8, 61, 91
10, 6950, Note_on_c, 8, 64, 85
10, 6973, Note_off_c, 8, 61, 64
10, 7031, Note_off_c, 8, 64, 64
10, 7069, Note_on_c, 8, 67, 85
10, 7127, Note_off_c, 8, 67, 64
10, 7196, Note_on_c, 8, 61, 98
10, 7443, Note_off_c, 8, 61, 64
10, 7556, Note_on_c, 8, 66, 89
10, 7774, Note_off_c, 8, 66, 64
10, 7912, Note_on_c, 8, 66, 82
10, 8361, Note_off_c, 8, 66, 64
10, 8496, Note_on_c, 8, 63, 78
10, 8563, Note_off_c, 8, 63, 64
10, 8621, Note_on_c, 8, 64, 85
10, 8849, Note_off_c, 8, 64, 64
10, 8970, Note_on_c, 8, 64, 87
10, 9170, Note_off_c, 8, 64, 64
10, 9324, Note_on_c, 8, 64, 93
10, 9743, Note_off_c, 8, 64, 64
10, 9914, Note_on_c, 8, 69, 87
10, 9973, Note_off_c, 8, 69, 64
10, 10043, Note_on_c, 8, 69, 93
10, 10215, Note_off_c, 8, 69, 64
10, 10280, Note_on_c, 8, 62, 76
10, 10336, Note_off_c, 8, 62, 64
10, 10407, Note_on_c, 8, 64, 91
10, 10556, Note_off_c, 8, 64, 64
10, 10649, Note_on_c, 8, 64, 68
10, 10704, Note_off_c, 8, 64, 64
10, 10777, Note_on_c, 8, 66, 85
10, 10916, Note_off_c, 8, 66, 64
10, 11012, Note_on_c, 8, 59, 64
10, 11075, Note_off_c, 8, 59, 64
10, 11141, Note_on_c, 8, 59, 87
10, 11292, Note_off_c, 8, 59, 64
10, 11392, Note_on_c, 8, 59, 68
10, 11466, Note_off_c, 8, 59, 64
10, 11517, Note_on_c, 8, 64, 87
10, 11648, Note_off_c, 8, 64, 64
10, 11755, Note_on_c, 8, 64, 68
10, 11820, Note_off_c, 8, 64, 64
10, 11889, Note_on_c, 8, 66, 89
10, 12020, Note_off_c, 8, 66, 64
10, 12101, Note_on_c, 8, 66, 82
10, 12181, Note_off_c, 8, 66, 64
10, 12244, Note_on_c, 8, 59, 82
10, 12375, Note_off_c, 8, 59, 64
10, 12474, Note_on_c, 8, 68, 66
10, 12562, Note_off_c, 8, 68, 64
10, 12602, Note_on_c, 8, 71, 87
10, 12716, Note_off_c, 8, 71, 64
10, 12840, Note_on_c, 8, 62, 80
10, 12924, Note_off_c, 8, 62, 64
10, 12972, Note_on_c, 8, 61, 87
10, 13122, Note_off_c, 8, 61, 64
10, 13181, Note_on_c, 8, 64, 85
10, 13246, Note_off_c, 8, 64, 64
10, 13314, Note_on_c, 8, 64, 85
10, 13461, Note_off_c, 8, 64, 64
10, 13537, Note_on_c, 8, 62, 78
10, 13602, Note_off_c, 8, 62, 64
10, 13675, Note_on_c, 8, 61, 87
10, 13931, Note_off_c, 8, 61, 64
10, 14047, Note_on_c, 8, 59, 87
10, 14691, Note_off_c, 8, 59, 64
10, 14746, Note_on_c, 8, 57, 98
10, 15387, Note_off_c, 8, 57, 64
10, 15478, Note_on_c, 8, 56, 98
10, 15569, Note_on_c, 8, 59, 74
10, 15596, Note_off_c, 8, 56, 64
10, 15663, Note_off_c, 8, 59, 64
10, 15688, Note_on_c, 8, 57, 70
10, 15756, Note_off_c, 8, 57, 64
10, 15827, Note_on_c, 8, 59, 91
10, 15940, Note_on_c, 8, 61, 76
10, 15963, Note_off_c, 8, 59, 64
10, 16033, Note_off_c, 8, 61, 64
10, 16056, Note_on_c, 8, 62, 74
10, 16116, Note_off_c, 8, 62, 64
10, 16187, Note_on_c, 8, 56, 87
10, 16284, Note_on_c, 8, 59, 82
10, 16308, Note_off_c, 8, 56, 64
10, 16384, Note_off_c, 8, 59, 64
10, 16407, Note_on_c, 8, 62, 80
10, 16450, Note_off_c, 8, 62, 64
10, 16541, Note_on_c, 8, 68, 105
10, 16695, Note_off_c, 8, 68, 64
10, 16763, Note_on_c, 8, 64, 82
10, 16848, Note_off_c, 8, 64, 64
10, 16887, Note_on_c, 8, 57, 72
10, 17021, Note_off_c, 8, 57, 64
10, 17116, Note_on_c, 8, 64, 80
10, 17179, Note_off_c, 8, 64, 64
10, 17237, Note_on_c, 8, 64, 93
10, 17402, Note_off_c, 8, 64, 64
10, 17489, Note_on_c, 8, 61, 82
10, 17576, Note_off_c, 8, 61, 64
10, 17609, Note_on_c, 8, 59, 91
10, 17762, Note_off_c, 8, 59, 64
10, 17858, Note_on_c, 8, 59, 87
10, 17921, Note_off_c, 8, 59, 64
10, 17982, Note_on_c, 8, 61, 107
10, 18369, Note_off_c, 8, 61, 64
10, 35796, Note_on_c, 8, 64, 85
10, 35867, Note_off_c, 8, 64, 64
10, 35934, Note_on_c, 8, 69, 87
10, 36197, Note_off_c, 8, 69, 64
10, 36304, Note_on_c, 8, 69, 98
10, 36523, Note_off_c, 8, 69, 64
10, 36659, Note_on_c, 8, 69, 87
10, 37086, Note_off_c, 8, 69, 64
10, 37244, Note_on_c, 8, 61, 82
10, 37323, Note_off_c, 8, 61, 64
10, 37394, Note_on_c, 8, 57, 82
10, 37519, Note_off_c, 8, 57, 64
10, 37620, Note_on_c, 8, 59, 82
10, 37696, Note_off_c, 8, 59, 64
10, 37752, Note_on_c, 8, 55, 85
10, 37883, Note_off_c, 8, 55, 64
10, 37984, Note_on_c, 8, 59, 82
10, 38065, Note_off_c, 8, 59, 64
10, 38113, Note_on_c, 8, 61, 82
10, 38246, Note_off_c, 8, 61, 64
10, 38357, Note_on_c, 8, 58, 68
10, 38431, Note_off_c, 8, 58, 64
10, 38494, Note_on_c, 8, 59, 102
10, 38605, Note_on_c, 8, 61, 72
10, 38617, Note_off_c, 8, 59, 64
10, 38671, Note_off_c, 8, 61, 64
10, 38723, Note_on_c, 8, 58, 80
10, 38769, Note_off_c, 8, 58, 64
10, 38845, Note_on_c, 8, 59, 95
10, 39094, Note_off_c, 8, 59, 64
10, 39227, Note_on_c, 8, 71, 91
10, 39459, Note_off_c, 8, 71, 64
10, 39595, Note_on_c, 8, 71, 87
10, 39996, Note_off_c, 8, 71, 64
10, 40190, Note_on_c, 8, 59, 85
10, 40279, Note_off_c, 8, 59, 64
10, 40322, Note_on_c, 8, 55, 85
10, 40451, Note_off_c, 8, 55, 64
10, 40536, Note_on_c, 8, 59, 80
10, 40625, Note_off_c, 8, 59, 64
10, 40668, Note_on_c, 8, 61, 87
10, 40782, Note_off_c, 8, 61, 64
10, 40899, Note_on_c, 8, 61, 82
10, 40960, Note_off_c, 8, 61, 64
10, 41048, Note_on_c, 8, 62, 95
10, 41460, Note_off_c, 8, 62, 64
10, 41619, Note_on_c, 8, 66, 80
10, 41682, Note_off_c, 8, 66, 64
10, 41766, Note_on_c, 8, 64, 85
10, 41960, Note_off_c, 8, 64, 64
10, 42112, Note_on_c, 8, 64, 87
10, 42288, Note_off_c, 8, 64, 64
10, 42468, Note_on_c, 8, 59, 82
10, 42733, Note_off_c, 8, 59, 64
10, 42823, Note_on_c, 8, 64, 82
10, 42962, Note_off_c, 8, 64, 64
10, 43046, Note_on_c, 8, 64, 82
10, 43109, Note_off_c, 8, 64, 64
10, 43162, Note_on_c, 8, 64, 82
10, 43310, Note_off_c, 8, 64, 64
10, 43399, Note_on_c, 8, 66, 82
10, 43459, Note_off_c, 8, 66, 64
10, 43518, Note_on_c, 8, 66, 85
10, 43648, Note_off_c, 8, 66, 64
10, 43742, Note_on_c, 8, 64, 87
10, 43800, Note_off_c, 8, 64, 64
10, 43874, Note_on_c, 8, 64, 105
10, 43982, Note_on_c, 8, 62, 66
10, 44009, Note_off_c, 8, 64, 64
10, 44076, Note_off_c, 8, 62, 64
10, 44100, Note_on_c, 8, 64, 76
10, 44143, Note_off_c, 8, 64, 64
10, 44224, Note_on_c, 8, 61, 102
10, 44343, Note_on_c, 8, 64, 78
10, 44363, Note_off_c, 8, 61, 64
10, 44423, Note_off_c, 8, 64, 64
10, 44451, Note_on_c, 8, 69, 80
10, 44504, Note_off_c, 8, 69, 64
10, 44590, Note_on_c, 8, 69, 89
10, 44823, Note_off_c, 8, 69, 64
10, 44959, Note_on_c, 8, 69, 89
10, 45135, Note_off_c, 8, 69, 64
10, 45325, Note_on_c, 8, 64, 91
10, 45585, Note_off_c, 8, 64, 64
10, 45681, Note_on_c, 8, 69, 85
10, 45804, Note_off_c, 8, 69, 64
10, 45915, Note_on_c, 8, 69, 80
10, 45981, Note_off_c, 8, 69, 64
10, 46040, Note_on_c, 8, 69, 95
10, 46203, Note_off_c, 8, 69, 64
10, 46297, Note_on_c, 8, 71, 82
10, 46360, Note_off_c, 8, 71, 64
10, 46415, Note_on_c, 8, 71, 85
10, 46539, Note_off_c, 8, 71, 64
10, 46655, Note_on_c, 8, 69, 76
10, 46717, Note_off_c, 8, 69, 64
10, 46796, Note_on_c, 8, 69, 93
10, 46883, Note_on_c, 8, 67, 63
10, 46908, Note_off_c, 8, 69, 64
10, 46978, Note_off_c, 8, 67, 64
10, 47009, Note_on_c, 8, 69, 70
10, 47067, Note_off_c, 8, 69, 64
10, 47138, Note_on_c, 8, 66, 78
10, 47236, Note_on_c, 8, 62, 82
10, 47249, Note_off_c, 8, 66, 64
10, 47309, Note_off_c, 8, 62, 64
10, 47362, Note_on_c, 8, 69, 85
10, 47422, Note_off_c, 8, 69, 64
10, 47503, Note_on_c, 8, 69, 100
10, 47604, Note_on_c, 8, 68, 66
10, 47630, Note_off_c, 8, 69, 64
10, 47685, Note_off_c, 8, 68, 64
10, 47718, Note_on_c, 8, 66, 85
10, 47799, Note_off_c, 8, 66, 64
10, 47850, Note_on_c, 8, 71, 95
10, 47980, Note_off_c, 8, 71, 64
10, 48094, Note_on_c, 8, 69, 80
10, 48153, Note_off_c, 8, 69, 64
10, 48220, Note_on_c, 8, 68, 91
10, 48660, Note_off_c, 8, 68, 64
10, 48816, Note_on_c, 8, 65, 72
10, 48880, Note_off_c, 8, 65, 64
10, 48948, Note_on_c, 8, 66, 95
10, 49039, Note_on_c, 8, 68, 74
10, 49073, Note_off_c, 8, 66, 64
10, 49144, Note_off_c, 8, 68, 64
10, 49160, Note_on_c, 8, 69, 82
10, 49225, Note_off_c, 8, 69, 64
10, 49296, Note_on_c, 8, 57, 76
10, 49400, Note_off_c, 8, 57, 64
10, 49518, Note_on_c, 8, 61, 78
10, 49598, Note_off_c, 8, 61, 64
10, 49660, Note_on_c, 8, 66, 91
10, 50050, Note_off_c, 8, 66, 64
10, 50243, Note_on_c, 8, 73, 82
10, 50323, Note_off_c, 8, 73, 64
10, 50381, Note_on_c, 8, 71, 82
10, 50480, Note_on_c, 8, 69, 82
10, 50517, Note_off_c, 8, 71, 64
10, 50581, Note_off_c, 8, 69, 64
10, 50596, Note_on_c, 8, 68, 76
10, 50682, Note_off_c, 8, 68, 64
10, 50734, Note_on_c, 8, 66, 95
10, 50855, Note_off_c, 8, 66, 64
10, 50974, Note_on_c, 8, 65, 82
10, 51050, Note_off_c, 8, 65, 64
10, 51098, Note_on_c, 8, 66, 89
10, 51536, Note_off_c, 8, 66, 64
10, 51671, Note_on_c, 8, 68, 85
10, 51742, Note_off_c, 8, 68, 64
10, 51798, Note_on_c, 8, 61, 89
10, 51926, Note_off_c, 8, 61, 64
10, 52035, Note_on_c, 8, 62, 89
10, 52120, Note_off_c, 8, 62, 64
10, 52163, Note_on_c, 8, 56, 68
10, 52285, Note_off_c, 8, 56, 64
10, 52391, Note_on_c, 8, 61, 80
10, 52489, Note_off_c, 8, 61, 64
10, 52525, Note_on_c, 8, 57, 85
10, 52948, Note_off_c, 8, 57, 64
10, 53136, Note_on_c, 8, 57, 82
10, 53199, Note_off_c, 8, 57, 64
10, 53257, Note_on_c, 8, 62, 93
10, 53494, Note_off_c, 8, 62, 64
10, 53628, Note_on_c, 8, 62, 93
10, 53805, Note_off_c, 8, 62, 64
10, 53983, Note_on_c, 8, 57, 89
10, 54463, Note_off_c, 8, 57, 64
10, 54557, Note_on_c, 8, 62, 87
10, 54615, Note_off_c, 8, 62, 64
10, 54695, Note_on_c, 8, 62, 91
10, 54855, Note_off_c, 8, 62, 64
10, 54945, Note_on_c, 8, 64, 82
10, 55013, Note_off_c, 8, 64, 64
10, 55067, Note_on_c, 8, 64, 98
10, 55200, Note_off_c, 8, 64, 64
10, 55294, Note_on_c, 8, 62, 89
10, 55362, Note_off_c, 8, 62, 64
10, 55428, Note_on_c, 8, 62, 87
10, 55834, Note_off_c, 8, 62, 64
10, 55920, Note_on_c, 8, 67, 80
10, 56000, Note_off_c, 8, 67, 64
10, 56029, Note_on_c, 8, 66, 89
10, 56109, Note_off_c, 8, 66, 64
10, 56160, Note_on_c, 8, 71, 89
10, 56288, Note_off_c, 8, 71, 64
10, 56400, Note_on_c, 8, 71, 89
10, 56475, Note_off_c, 8, 71, 64
10, 56520, Note_on_c, 8, 69, 87
10, 56667, Note_off_c, 8, 69, 64
10, 56750, Note_on_c, 8, 67, 76
10, 56833, Note_off_c, 8, 67, 64
10, 56882, Note_on_c, 8, 66, 89
10, 57030, Note_off_c, 8, 66, 64
10, 57104, Note_on_c, 8, 72, 78
10, 57192, Note_off_c, 8, 72, 64
10, 57235, Note_on_c, 8, 69, 95
10, 57349, Note_off_c, 8, 69, 64
10, 57467, Note_on_c, 8, 64, 82
10, 57566, Note_off_c, 8, 64, 64
10, 57599, Note_on_c, 8, 66, 89
10, 57752, Note_off_c, 8, 66, 64
10, 57831, Note_on_c, 8, 69, 80
10, 57909, Note_off_c, 8, 69, 64
10, 57951, Note_on_c, 8, 67, 91
10, 58114, Note_off_c, 8, 67, 64
10, 58184, Note_on_c, 8, 66, 76
10, 58260, Note_off_c, 8, 66, 64
10, 58314, Note_on_c, 8, 64, 85
10, 58426, Note_off_c, 8, 64, 64
10, 58528, Note_on_c, 8, 59, 68
10, 58634, Note_off_c, 8, 59, 64
10, 58664, Note_on_c, 8, 71, 93
10, 58800, Note_off_c, 8, 71, 64
10, 58898, Note_on_c, 8, 66, 78
10, 59002, Note_off_c, 8, 66, 64
10, 59023, Note_on_c, 8, 64, 89
10, 59181, Note_off_c, 8, 64, 64
10, 59269, Note_on_c, 8, 67, 76
10, 59356, Note_off_c, 8, 67, 64
10, 59393, Note_on_c, 8, 66, 89
10, 59504, Note_off_c, 8, 66, 64
10, 59616, Note_on_c, 8, 64, 82
10, 59689, Note_off_c, 8, 64, 64
10, 59749, Note_on_c, 8, 62, 87
10, 59878, Note_off_c, 8, 62, 64
10, 59983, Note_on_c, 8, 57, 82
10, 60067, Note_off_c, 8, 57, 64
10, 60107, Note_on_c, 8, 62, 95
10, 60222, Note_off_c, 8, 62, 64
10, 60340, Note_on_c, 8, 62, 80
10, 60415, Note_off_c, 8, 62, 64
10, 60471, Note_on_c, 8, 62, 95
10, 60636, Note_off_c, 8, 62, 64
10, 60829, Note_on_c, 8, 64, 91
10, 60954, Note_off_c, 8, 64, 64
10, 61176, Note_on_c, 8, 64, 89
10, 61320, Note_off_c, 8, 64, 64
10, 61542, Note_on_c, 8, 66, 89
10, 61680, Note_off_c, 8, 66, 64
10, 61910, Note_on_c, 8, 66, 85
10, 62046, Note_off_c, 8, 66, 64
10, 62269, Note_on_c, 8, 62, 91
10, 62407, Note_off_c, 8, 62, 64
10, 62630, Note_on_c, 8, 69, 91
10, 62772, Note_off_c, 8, 69, 64
10, 62984, Note_on_c, 8, 69, 93
10, 63083, Note_off_c, 8, 69, 64
10, 63326, Note_on_c, 8, 69, 100
10, 63425, Note_on_c, 8, 67, 76
10, 63442, Note_off_c, 8, 69, 64
10, 63526, Note_off_c, 8, 67, 64
10, 63539, Note_on_c, 8, 69, 78
10, 63606, Note_off_c, 8, 69, 64
10, 63669, Note_on_c, 8, 67, 98
10, 63809, Note_off_c, 8, 67, 64
10, 63919, Note_on_c, 8, 66, 80
10, 63991, Note_off_c, 8, 66, 64
10, 64056, Note_on_c, 8, 64, 100
10, 64210, Note_off_c, 8, 64, 64
10, 64293, Note_on_c, 8, 66, 82
10, 64366, Note_off_c, 8, 66, 64
10, 64415, Note_on_c, 8, 64, 98
10, 64518, Note_off_c, 8, 64, 64
10, 64642, Note_on_c, 8, 64, 82
10, 64705, Note_off_c, 8, 64, 64
10, 64796, Note_on_c, 8, 62, 105
10, 65141, Note_off_c, 8, 62, 64
10, 65378, Note_on_c, 8, 66, 82
10, 65431, Note_off_c, 8, 66, 64
10, 65505, Note_on_c, 8, 66, 80
10, 65848, Note_off_c, 8, 66, 64
10, 65863, Note_on_c, 8, 64, 85
10, 66530, Note_off_c, 8, 64, 64
10, 66572, Note_on_c, 8, 62, 82
10, 67186, Note_off_c, 8, 62, 64
10, 67289, Note_on_c, 8, 61, 85
10, 67396, Note_on_c, 8, 64, 78
10, 67418, Note_off_c, 8, 61, 64
10, 67491, Note_off_c, 8, 64, 64
10, 67520, Note_on_c, 8, 62, 66
10, 67588, Note_off_c, 8, 62, 64
10, 67651, Note_on_c, 8, 64, 107
10, 67752, Note_on_c, 8, 66, 85
10, 67779, Note_off_c, 8, 64, 64
10, 67848, Note_off_c, 8, 66, 64
10, 67867, Note_on_c, 8, 67, 72
10, 67921, Note_off_c, 8, 67, 64
10, 67996, Note_on_c, 8, 61, 87
10, 68112, Note_on_c, 8, 64, 80
10, 68123, Note_off_c, 8, 61, 64
10, 68223, Note_off_c, 8, 64, 64
10, 68224, Note_on_c, 8, 67, 74
10, 68342, Note_off_c, 8, 67, 64
10, 68358, Note_on_c, 8, 73, 91
10, 68496, Note_off_c, 8, 73, 64
10, 68594, Note_on_c, 8, 69, 80
10, 68685, Note_off_c, 8, 69, 64
10, 68721, Note_on_c, 8, 62, 89
10, 68857, Note_off_c, 8, 62, 64
10, 68950, Note_on_c, 8, 67, 85
10, 69004, Note_off_c, 8, 67, 64
10, 69085, Note_on_c, 8, 69, 98
10, 69181, Note_off_c, 8, 69, 64
10, 69332, Note_on_c, 8, 74, 100
10, 69395, Note_off_c, 8, 74, 64
10, 69470, Note_on_c, 8, 69, 100
10, 69582, Note_on_c, 8, 67, 82
10, 69589, Note_off_c, 8, 69, 64
10, 69657, Note_off_c, 8, 67, 64
10, 69693, Note_on_c, 8, 66, 98
10, 69754, Note_off_c, 8, 66, 64
10, 69827, Note_on_c, 8, 66, 105
10, 70243, Note_off_c, 8, 66, 64
10, 70243, End_track
11, 0, Start_track
11, 0, Title_t, "Cello"
11, 0, Program_c, 10, 42
11, 0, Control_c, 10, 7, 100
11, 1314, Note_on_c, 10, 50, 91
11, 1380, Note_off_c, 10, 50, 64
11, 1437, Note_on_c, 10, 62, 102
11, 1553, Note_on_c, 10, 61, 82
11, 1569, Note_off_c, 10, 62, 64
11, 1611, Note_off_c, 10, 61, 64
11, 1664, Note_on_c, 10, 62, 89
11, 1715, Note_off_c, 10, 62, 64
11, 1783, Note_on_c, 10, 62, 102
11, 1892, Note_on_c, 10, 61, 82
11, 1917, Note_off_c, 10, 62, 64
11, 1965, Note_off_c, 10, 61, 64
11, 1991, Note_on_c, 10, 62, 80
11, 2040, Note_off_c, 10, 62, 64
11, 2121, Note_on_c, 10, 62, 102
11, 2225, Note_on_c, 10, 61, 70
11, 2254, Note_off_c, 10, 62, 64
11, 2343, Note_on_c, 10, 62, 87
11, 2348, Note_off_c, 10, 61, 64
11, 2409, Note_off_c, 10, 62, 64
11, 2472, Note_on_c, 10, 50, 91
11, 2581, Note_off_c, 10, 50, 64
11, 2695, Note_on_c, 10, 52, 72
11, 2772, Note_off_c, 10, 52, 64
11, 2816, Note_on_c, 10, 54, 85
11, 2972, Note_off_c, 10, 54, 64
11, 3083, Note_on_c, 10, 55, 87
11, 3157, Note_off_c, 10, 55, 64
11, 3200, Note_on_c, 10, 57, 93
11, 3306, Note_off_c, 10, 57, 64
11, 3452, Note_on_c, 10, 45, 85
11, 3513, Note_off_c, 10, 45, 64
11, 3571, Note_on_c, 10, 50, 100
11, 4045, Note_off_c, 10, 50, 64
11, 4196, Note_on_c, 10, 49, 100
11, 4247, Note_off_c, 10, 49, 64
11, 4334, Note_on_c, 10, 47, 100
11, 4447, Note_on_c, 10, 45, 78
11, 4476, Note_off_c, 10, 47, 64
11, 4535, Note_off_c, 10, 45, 64
11, 4580, Note_on_c, 10, 47, 82
11, 4626, Note_off_c, 10, 47, 64
11, 4714, Note_on_c, 10, 45, 89
11, 4813, Note_on_c, 10, 44, 63
11, 4842, Note_off_c, 10, 45, 64
11, 4908, Note_off_c, 10, 44, 64
11, 4924, Note_on_c, 10, 45, 66
11, 4981, Note_off_c, 10, 45, 64
11, 5055, Note_on_c, 10, 44, 95
11, 5161, Note_on_c, 10, 42, 70
11, 5191, Note_off_c, 10, 44, 64
11, 5277, Note_on_c, 10, 44, 85
11, 5284, Note_off_c, 10, 42, 64
11, 5338, Note_off_c, 10, 44, 64
11, 5410, Note_on_c, 10, 40, 91
11, 5527, Note_on_c, 10, 42, 66
11, 5559, Note_off_c, 10, 40, 64
11, 5633, Note_on_c, 10, 44, 82
11, 5639, Note_off_c, 10, 42, 64
11, 5699, Note_off_c, 10, 44, 64
11, 5767, Note_on_c, 10, 45, 82
11, 5886, Note_off_c, 10, 45, 64
11, 5984, Note_on_c, 10, 54, 70
11, 6072, Note_off_c, 10, 54, 64
11, 6120, Note_on_c, 10, 50, 93
11, 6234, Note_off_c, 10, 50, 64
11, 6358, Note_on_c, 10, 52, 78
11, 6423, Note_off_c, 10, 52, 64
11, 6493, Note_on_c, 10, 45, 95
11, 6946, Note_off_c, 10, 45, 64
11, 7066, Note_on_c, 10, 43, 87
11, 7131, Note_off_c, 10, 43, 64
11, 7191, Note_on_c, 10, 42, 87
11, 7312, Note_off_c, 10, 42, 64
11, 7418, Note_on_c, 10, 55, 85
11, 7496, Note_off_c, 10, 55, 64
11, 7539, Note_on_c, 10, 54, 102
11, 7665, Note_off_c, 10, 54, 64
11, 7788, Note_on_c, 10, 52, 64
11, 7852, Note_off_c, 10, 52, 64
11, 7915, Note_on_c, 10, 51, 87
11, 8056, Note_off_c, 10, 51, 64
11, 8154, Note_on_c, 10, 54, 66
11, 8231, Note_off_c, 10, 54, 64
11, 8276, Note_on_c, 10, 51, 82
11, 8400, Note_off_c, 10, 51, 64
11, 8496, Note_on_c, 10, 47, 68
11, 8577, Note_off_c, 10, 47, 64
11, 8630, Note_on_c, 10, 52, 89
11, 8768, Note_off_c, 10, 52, 64
11, 8846, Note_on_c, 10, 54, 64
11, 8927, Note_off_c, 10, 54, 64
11, 8960, Note_on_c, 10, 52, 82
11, 9089, Note_off_c, 10, 52, 64
11, 9202, Note_on_c, 10, 50, 68
11, 9281, Note_off_c, 10, 50, 64
11, 9323, Note_on_c, 10, 49, 98
11, 9473, Note_off_c, 10, 49, 64
11, 9569, Note_on_c, 10, 52, 80
11, 9644, Note_off_c, 10, 52, 64
11, 9690, Note_on_c, 10, 49, 100
11, 9803, Note_off_c, 10, 49, 64
11, 9925, Note_on_c, 10, 45, 80
11, 9978, Note_off_c, 10, 45, 64
11, 10063, Note_on_c, 10, 50, 85
11, 10184, Note_off_c, 10, 50, 64
11, 10296, Note_on_c, 10, 62, 85
11, 10366, Note_off_c, 10, 62, 64
11, 10412, Note_on_c, 10, 61, 105
11, 10527, Note_off_c, 10, 61, 64
11, 10643, Note_on_c, 10, 49, 66
11, 10709, Note_off_c, 10, 49, 64
11, 10758, Note_on_c, 10, 47, 82
11, 10898, Note_off_c, 10, 47, 64
11, 11010, Note_on_c, 10, 59, 85
11, 11083, Note_off_c, 10, 59, 64
11, 11123, Note_on_c, 10, 57, 93
11, 11254, Note_off_c, 10, 57, 64
11, 11363, Note_on_c, 10, 45, 85
11, 11434, Note_off_c, 10, 45, 64
11, 11497, Note_on_c, 10, 44, 91
11, 11638, Note_off_c, 10, 44, 64
11, 11748, Note_on_c, 10, 56, 76
11, 11825, Note_off_c, 10, 56, 64
11, 11865, Note_on_c, 10, 54, 87
11, 11994, Note_off_c, 10, 54, 64
11, 12111, Note_on_c, 10, 42, 89
11, 12196, Note_off_c, 10, 42, 64
11, 12237, Note_on_c, 10, 40, 87
11, 12363, Note_off_c, 10, 40, 64
11, 12469, Note_on_c, 10, 52, 80
11, 12524, Note_off_c, 10, 52, 64
11, 12588, Note_on_c, 10, 50, 87
11, 12689, Note_on_c, 10, 49, 64
11, 12711, Note_off_c, 10, 50, 64
11, 12779, Note_off_c, 10, 49, 64
11, 12817, Note_on_c, 10, 47, 80
11, 12880, Note_off_c, 10, 47, 64
11, 12947, Note_on_c, 10, 49, 100
11, 13060, Note_on_c, 10, 47, 85
11, 13090, Note_off_c, 10, 49, 64
11, 13145, Note_off_c, 10, 47, 64
11, 13171, Note_on_c, 10, 45, 72
11, 13252, Note_off_c, 10, 45, 64
11, 13320, Note_on_c, 10, 52, 91
11, 13771, Note_off_c, 10, 52, 64
11, 13816, Note_on_c, 10, 54, 68
11, 13890, Note_off_c, 10, 54, 64
11, 13925, Note_on_c, 10, 52, 85
11, 13979, Note_off_c, 10, 52, 64
11, 14054, Note_on_c, 10, 51, 102
11, 14157, Note_on_c, 10, 47, 82
11, 14173, Note_off_c, 10, 51, 64
11, 14231, Note_off_c, 10, 47, 64
11, 14277, Note_on_c, 10, 49, 72
11, 14344, Note_off_c, 10, 49, 64
11, 14408, Note_on_c, 10, 50, 89
11, 14519, Note_on_c, 10, 52, 82
11, 14549, Note_off_c, 10, 50, 64
11, 14612, Note_off_c, 10, 52, 64
11, 14645, Note_on_c, 10, 50, 68
11, 14698, Note_off_c, 10, 50, 64
11, 14763, Note_on_c, 10, 49, 98
11, 14869, Note_on_c, 10, 45, 76
11, 14897, Note_off_c, 10, 49, 64
11, 14945, Note_off_c, 10, 45, 64
11, 14998, Note_on_c, 10, 47, 68
11, 15047, Note_off_c, 10, 47, 64
11, 15120, Note_on_c, 10, 48, 102
11, 15225, Note_on_c, 10, 50, 80
11, 15260, Note_off_c, 10, 48, 64
11, 15324, Note_off_c, 10, 50, 64
11, 15349, Note_on_c, 10, 48, 76
11, 15397, Note_off_c, 10, 48, 64
11, 15471, Note_on_c, 10, 47, 93
11, 15572, Note_on_c, 10, 44, 78
11, 15589, Note_off_c, 10, 47, 64
11, 15670, Note_off_c, 10, 44, 64
11, 15690, Note_on_c, 10, 45, 60
11, 15733, Note_off_c, 10, 45, 64
11, 15819, Note_on_c, 10, 44, 102
11, 15919, Note_on_c, 10, 45, 76
11, 15937, Note_off_c, 10, 44, 64
11, 16020, Note_off_c, 10, 45, 64
11, 16029, Note_on_c, 10, 47, 74
11, 16087, Note_off_c, 10, 47, 64
11, 16177, Note_on_c, 10, 40, 95
11, 16659, Note_off_c, 10, 40, 64
11, 16760, Note_on_c, 10, 52, 78
11, 16843, Note_off_c, 10, 52, 64
11, 16884, Note_on_c, 10, 54, 95
11, 17016, Note_off_c, 10, 54, 64
11, 17119, Note_on_c, 10, 56, 82
11, 17209, Note_off_c, 10, 56, 64
11, 17243, Note_on_c, 10, 57, 100
11, 17384, Note_off_c, 10, 57, 64
11, 17485, Note_on_c, 10, 49, 76
11, 17553, Note_off_c, 10, 49, 64
11, 17613, Note_on_c, 10, 52, 98
11, 17719, Note_off_c, 10, 52, 64
11, 17844, Note_on_c, 10, 40, 93
11, 17919, Note_off_c, 10, 40, 64
11, 17967, Note_on_c, 10, 45, 100
11, 18381, Note_off_c, 10, 45, 64
11, 35823, Note_on_c, 10, 45, 93
11, 35886, Note_off_c, 10, 45, 64
11, 35940, Note_on_c, 10, 57, 98
11, 36068, Note_on_c, 10, 56, 78
11, 36087, Note_off_c, 10, 57, 64
11, 36154, Note_off_c, 10, 56, 64
11, 36181, Note_on_c, 10, 57, 82
11, 36232, Note_off_c, 10, 57, 64
11, 36310, Note_on_c, 10, 57, 98
11, 36416, Note_on_c, 10, 56, 62
11, 36439, Note_off_c, 10, 57, 64
11, 36497, Note_off_c, 10, 56, 64
11, 36527, Note_on_c, 10, 57, 87
11, 36581, Note_off_c, 10, 57, 64
11, 36654, Note_on_c, 10, 57, 95
11, 36760, Note_on_c, 10, 56, 66
11, 36784, Note_off_c, 10, 57, 64
11, 36891, Note_off_c, 10, 56, 64
11, 36891, Note_on_c, 10, 57, 80
11, 36974, Note_off_c, 10, 57, 64
11, 37007, Note_on_c, 10, 49, 89
11, 37128, Note_off_c, 10, 49, 64
11, 37221, Note_on_c, 10, 45, 82
11, 37317, Note_off_c, 10, 45, 64
11, 37358, Note_on_c, 10, 50, 95
11, 37491, Note_off_c, 10, 50, 64
11, 37608, Note_on_c, 10, 47, 87
11, 37714, Note_off_c, 10, 47, 64
11, 37727, Note_on_c, 10, 52, 87
11, 37880, Note_off_c, 10, 52, 64
11, 37992, Note_on_c, 10, 55, 78
11, 38080, Note_off_c, 10, 55, 64
11, 38107, Note_on_c, 10, 54, 98
11, 38279, Note_off_c, 10, 54, 64
11, 38360, Note_on_c, 10, 52, 82
11, 38461, Note_off_c, 10, 52, 64
11, 38487, Note_on_c, 10, 50, 89
11, 38617, Note_off_c, 10, 50, 64
11, 38733, Note_on_c, 10, 49, 93
11, 38800, Note_off_c, 10, 49, 64
11, 38872, Note_on_c, 10, 47, 100
11, 38969, Note_on_c, 10, 46, 76
11, 38984, Note_off_c, 10, 47, 64
11, 39054, Note_off_c, 10, 46, 64
11, 39085, Note_on_c, 10, 47, 87
11, 39148, Note_off_c, 10, 47, 64
11, 39219, Note_on_c, 10, 47, 98
11, 39324, Note_on_c, 10, 46, 85
11, 39340, Note_off_c, 10, 47, 64
11, 39425, Note_on_c, 10, 47, 80
11, 39426, Note_off_c, 10, 46, 64
11, 39483, Note_off_c, 10, 47, 64
11, 39569, Note_on_c, 10, 47, 87
11, 39675, Note_on_c, 10, 49, 74
11, 39708, Note_off_c, 10, 47, 64
11, 39782, Note_off_c, 10, 49, 64
11, 39786, Note_on_c, 10, 50, 80
11, 39845, Note_off_c, 10, 50, 64
11, 39922, Note_on_c, 10, 50, 87
11, 40023, Note_on_c, 10, 49, 72
11, 40051, Note_off_c, 10, 50, 64
11, 40114, Note_off_c, 10, 49, 64
11, 40133, Note_on_c, 10, 47, 76
11, 40206, Note_off_c, 10, 47, 64
11, 40289, Note_on_c, 10, 52, 100
11, 40393, Note_on_c, 10, 54, 64
11, 40420, Note_off_c, 10, 52, 64
11, 40513, Note_on_c, 10, 55, 70
11, 40529, Note_off_c, 10, 54, 64
11, 40586, Note_off_c, 10, 55, 64
11, 40658, Note_on_c, 10, 54, 102
11, 40768, Note_on_c, 10, 52, 68
11, 40798, Note_off_c, 10, 54, 64
11, 40874, Note_off_c, 10, 52, 64
11, 40890, Note_on_c, 10, 54, 91
11, 40952, Note_off_c, 10, 54, 64
11, 41028, Note_on_c, 10, 47, 102
11, 41134, Note_on_c, 10, 50, 82
11, 41164, Note_off_c, 10, 47, 64
11, 41235, Note_on_c, 10, 54, 72
11, 41250, Note_off_c, 10, 50, 64
11, 41336, Note_off_c, 10, 54, 64
11, 41374, Note_on_c, 10, 59, 95
11, 41513, Note_off_c, 10, 59, 64
11, 41604, Note_on_c, 10, 57, 80
11, 41687, Note_off_c, 10, 57, 64
11, 41727, Note_on_c, 10, 56, 98
11, 41866, Note_off_c, 10, 56, 64
11, 41967, Note_on_c, 10, 59, 80
11, 42028, Note_off_c, 10, 59, 64
11, 42081, Note_on_c, 10, 59, 89
11, 42222, Note_off_c, 10, 59, 64
11, 42314, Note_on_c, 10, 56, 80
11, 42424, Note_off_c, 10, 56, 64
11, 42445, Note_on_c, 10, 52, 87
11, 42601, Note_off_c, 10, 52, 64
11, 42660, Note_on_c, 10, 56, 63
11, 42737, Note_off_c, 10, 56, 64
11, 42786, Note_on_c, 10, 56, 89
11, 42939, Note_off_c, 10, 56, 64
11, 43030, Note_on_c, 10, 52, 82
11, 43118, Note_off_c, 10, 52, 64
11, 43149, Note_on_c, 10, 49, 95
11, 43278, Note_off_c, 10, 49, 64
11, 43381, Note_on_c, 10, 54, 82
11, 43475, Note_off_c, 10, 54, 64
11, 43503, Note_on_c, 10, 50, 89
11, 43636, Note_off_c, 10, 50, 64
11, 43732, Note_on_c, 10, 52, 89
11, 43808, Note_off_c, 10, 52, 64
11, 43876, Note_on_c, 10, 45, 98
11, 44007, Note_off_c, 10, 45, 64
11, 44103, Note_on_c, 10, 57, 91
11, 44172, Note_off_c, 10, 57, 64
11, 44216, Note_on_c, 10, 57, 98
11, 44328, Note_off_c, 10, 57, 64
11, 44451, Note_on_c, 10, 52, 89
11, 44537, Note_off_c, 10, 52, 64
11, 44586, Note_on_c, 10, 49, 95
11, 44707, Note_off_c, 10, 49, 64
11, 44823, Note_on_c, 10, 52, 80
11, 44898, Note_off_c, 10, 52, 64
11, 44939, Note_on_c, 10, 52, 85
11, 45090, Note_off_c, 10, 52, 64
11, 45169, Note_on_c, 10, 49, 78
11, 45269, Note_off_c, 10, 49, 64
11, 45317, Note_on_c, 10, 45, 87
11, 45471, Note_off_c, 10, 45, 64
11, 45552, Note_on_c, 10, 49, 91
11, 45620, Note_off_c, 10, 49, 64
11, 45665, Note_on_c, 10, 49, 95
11, 45789, Note_off_c, 10, 49, 64
11, 45891, Note_on_c, 10, 45, 76
11, 45999, Note_off_c, 10, 45, 64
11, 46035, Note_on_c, 10, 42, 80
11, 46170, Note_off_c, 10, 42, 64
11, 46256, Note_on_c, 10, 47, 76
11, 46392, Note_off_c, 10, 47, 64
11, 46407, Note_on_c, 10, 43, 91
11, 46574, Note_off_c, 10, 43, 64
11, 46661, Note_on_c, 10, 45, 91
11, 46746, Note_off_c, 10, 45, 64
11, 46796, Note_on_c, 10, 38, 98
11, 46910, Note_off_c, 10, 38, 64
11, 47016, Note_on_c, 10, 50, 87
11, 47112, Note_off_c, 10, 50, 64
11, 47138, Note_on_c, 10, 54, 91
11, 47259, Note_off_c, 10, 54, 64
11, 47367, Note_on_c, 10, 57, 85
11, 47455, Note_off_c, 10, 57, 64
11, 47504, Note_on_c, 10, 62, 100
11, 47642, Note_off_c, 10, 62, 64
11, 47749, Note_on_c, 10, 61, 82
11, 47831, Note_off_c, 10, 61, 64
11, 47872, Note_on_c, 10, 59, 93
11, 48251, Note_off_c, 10, 59, 64
11, 48324, Note_on_c, 10, 56, 70
11, 48402, Note_off_c, 10, 56, 64
11, 48437, Note_on_c, 10, 53, 70
11, 48506, Note_off_c, 10, 53, 64
11, 48569, Note_on_c, 10, 49, 98
11, 48673, Note_on_c, 10, 53, 74
11, 48683, Note_off_c, 10, 49, 64
11, 48730, Note_off_c, 10, 53, 64
11, 48788, Note_on_c, 10, 49, 95
11, 48849, Note_off_c, 10, 49, 64
11, 48933, Note_on_c, 10, 54, 93
11, 49061, Note_off_c, 10, 54, 64
11, 49170, Note_on_c, 10, 42, 91
11, 49261, Note_off_c, 10, 42, 64
11, 49290, Note_on_c, 10, 54, 100
11, 49407, Note_off_c, 10, 54, 64
11, 49526, Note_on_c, 10, 52, 80
11, 49584, Note_off_c, 10, 52, 64
11, 49655, Note_on_c, 10, 50, 100
11, 49760, Note_on_c, 10, 47, 82
11, 49773, Note_off_c, 10, 50, 64
11, 49854, Note_off_c, 10, 47, 64
11, 49876, Note_on_c, 10, 50, 68
11, 49935, Note_off_c, 10, 50, 64
11, 50007, Note_on_c, 10, 54, 100
11, 50104, Note_on_c, 10, 50, 66
11, 50111, Note_off_c, 10, 54, 64
11, 50215, Note_on_c, 10, 54, 64
11, 50216, Note_off_c, 10, 50, 64
11, 50290, Note_off_c, 10, 54, 64
11, 50359, Note_on_c, 10, 59, 85
11, 50508, Note_off_c, 10, 59, 64
11, 50598, Note_on_c, 10, 61, 74
11, 50699, Note_off_c, 10, 61, 64
11, 50724, Note_on_c, 10, 62, 102
11, 50826, Note_off_c, 10, 62, 64
11, 50965, Note_on_c, 10, 56, 64
11, 51058, Note_off_c, 10, 56, 64
11, 51091, Note_on_c, 10, 57, 89
11, 51240, Note_off_c, 10, 57, 64
11, 51316, Note_on_c, 10, 54, 62
11, 51429, Note_off_c, 10, 54, 64
11, 51449, Note_on_c, 10, 59, 95
11, 51578, Note_off_c, 10, 59, 64
11, 51686, Note_on_c, 10, 53, 74
11, 51774, Note_off_c, 10, 53, 64
11, 51818, Note_on_c, 10, 54, 100
11, 51941, Note_off_c, 10, 54, 64
11, 52035, Note_on_c, 10, 47, 70
11, 52130, Note_off_c, 10, 47, 64
11, 52156, Note_on_c, 10, 49, 95
11, 52265, Note_off_c, 10, 49, 64
11, 52399, Note_on_c, 10, 37, 76
11, 52471, Note_off_c, 10, 37, 64
11, 52547, Note_on_c, 10, 42, 110
11, 52655, Note_on_c, 10, 45, 72
11, 52661, Note_off_c, 10, 42, 64
11, 52762, Note_on_c, 10, 49, 85
11, 52777, Note_off_c, 10, 45, 64
11, 52832, Note_off_c, 10, 49, 64
11, 52890, Note_on_c, 10, 54, 98
11, 52992, Note_on_c, 10, 52, 74
11, 53003, Note_off_c, 10, 54, 64
11, 53088, Note_off_c, 10, 52, 64
11, 53112, Note_on_c, 10, 54, 72
11, 53161, Note_off_c, 10, 54, 64
11, 53257, Note_on_c, 10, 50, 98
11, 53360, Note_on_c, 10, 49, 76
11, 53385, Note_off_c, 10, 50, 64
11, 53443, Note_off_c, 10, 49, 64
11, 53478, Note_on_c, 10, 50, 82
11, 53539, Note_off_c, 10, 50, 64
11, 53612, Note_on_c, 10, 50, 95
11, 53707, Note_on_c, 10, 49, 66
11, 53731, Note_off_c, 10, 50, 64
11, 53804, Note_off_c, 10, 49, 64
11, 53815, Note_on_c, 10, 50, 87
11, 53862, Note_off_c, 10, 50, 64
11, 53958, Note_on_c, 10, 50, 85
11, 54074, Note_on_c, 10, 54, 66
11, 54113, Note_off_c, 10, 50, 64
11, 54175, Note_on_c, 10, 57, 85
11, 54193, Note_off_c, 10, 54, 64
11, 54291, Note_off_c, 10, 57, 64
11, 54309, Note_on_c, 10, 62, 98
11, 54421, Note_off_c, 10, 62, 64
11, 54542, Note_on_c, 10, 54, 91
11, 54637, Note_off_c, 10, 54, 64
11, 54668, Note_on_c, 10, 55, 91
11, 54802, Note_off_c, 10, 55, 64
11, 54917, Note_on_c, 10, 52, 85
11, 55006, Note_off_c, 10, 52, 64
11, 55047, Note_on_c, 10, 48, 87
11, 55167, Note_off_c, 10, 48, 64
11, 55288, Note_on_c, 10, 50, 91
11, 55364, Note_off_c, 10, 50, 64
11, 55418, Note_on_c, 10, 43, 91
11, 55859, Note_off_c, 10, 43, 64
11, 55899, Note_on_c, 10, 47, 78
11, 56000, Note_on_c, 10, 50, 78
11, 56019, Note_off_c, 10, 47, 64
11, 56096, Note_off_c, 10, 50, 64
11, 56129, Note_on_c, 10, 55, 87
11, 56260, Note_off_c, 10, 55, 64
11, 56389, Note_on_c, 10, 52, 82
11, 56478, Note_off_c, 10, 52, 64
11, 56523, Note_on_c, 10, 57, 102
11, 56947, Note_off_c, 10, 57, 64
11, 57088, Note_on_c, 10, 40, 91
11, 57166, Note_off_c, 10, 40, 64
11, 57222, Note_on_c, 10, 42, 102
11, 57328, Note_off_c, 10, 42, 64
11, 57329, Note_on_c, 10, 45, 82
11, 57437, Note_off_c, 10, 45, 64
11, 57440, Note_on_c, 10, 48, 87
11, 57536, Note_off_c, 10, 48, 64
11, 57599, Note_on_c, 10, 54, 89
11, 57709, Note_off_c, 10, 54, 64
11, 57831, Note_on_c, 10, 51, 80
11, 57914, Note_off_c, 10, 51, 64
11, 57970, Note_on_c, 10, 55, 87
11, 58455, Note_off_c, 10, 55, 64
11, 58542, Note_on_c, 10, 39, 91
11, 58618, Note_off_c, 10, 39, 64
11, 58671, Note_on_c, 10, 40, 100
11, 58769, Note_on_c, 10, 43, 102
11, 58778, Note_off_c, 10, 40, 64
11, 58840, Note_off_c, 10, 43, 64
11, 58874, Note_on_c, 10, 47, 82
11, 58960, Note_off_c, 10, 47, 64
11, 59011, Note_on_c, 10, 52, 95
11, 59134, Note_off_c, 10, 52, 64
11, 59269, Note_on_c, 10, 49, 78
11, 59346, Note_off_c, 10, 49, 64
11, 59390, Note_on_c, 10, 54, 89
11, 59877, Note_off_c, 10, 54, 64
11, 59982, Note_on_c, 10, 37, 91
11, 60065, Note_off_c, 10, 37, 64
11, 60113, Note_on_c, 10, 38, 105
11, 60237, Note_off_c, 10, 38, 64
11, 60340, Note_on_c, 10, 42, 85
11, 60444, Note_off_c, 10, 42, 64
11, 60468, Note_on_c, 10, 43, 87
11, 60595, Note_off_c, 10, 43, 64
11, 60693, Note_on_c, 10, 47, 85
11, 60776, Note_off_c, 10, 47, 64
11, 60817, Note_on_c, 10, 44, 100
11, 60944, Note_off_c, 10, 44, 64
11, 61037, Note_on_c, 10, 40, 61
11, 61120, Note_off_c, 10, 40, 64
11, 61173, Note_on_c, 10, 45, 95
11, 61324, Note_off_c, 10, 45, 64
11, 61397, Note_on_c, 10, 49, 66
11, 61494, Note_off_c, 10, 49, 64
11, 61522, Note_on_c, 10, 46, 93
11, 61658, Note_off_c, 10, 46, 64
11, 61766, Note_on_c, 10, 42, 70
11, 61837, Note_off_c, 10, 42, 64
11, 61907, Note_on_c, 10, 47, 85
11, 62062, Note_off_c, 10, 47, 64
11, 62142, Note_on_c, 10, 45, 68
11, 62236, Note_off_c, 10, 45, 64
11, 62266, Note_on_c, 10, 47, 98
11, 62407, Note_off_c, 10, 47, 64
11, 62499, Note_on_c, 10, 43, 80
11, 62584, Note_off_c, 10, 43, 64
11, 62625, Note_on_c, 10, 49, 102
11, 62793, Note_off_c, 10, 49, 64
11, 62870, Note_on_c, 10, 47, 70
11, 62965, Note_off_c, 10, 47, 64
11, 62996, Note_on_c, 10, 49, 102
11, 63119, Note_off_c, 10, 49, 64
11, 63236, Note_on_c, 10, 45, 87
11, 63284, Note_off_c, 10, 45, 64
11, 63354, Note_on_c, 10, 50, 91
11, 63448, Note_on_c, 10, 52, 72
11, 63476, Note_off_c, 10, 50, 64
11, 63528, Note_off_c, 10, 52, 64
11, 63566, Note_on_c, 10, 54, 95
11, 63639, Note_off_c, 10, 54, 64
11, 63690, Note_on_c, 10, 55, 91
11, 64198, Note_off_c, 10, 55, 64
11, 64273, Note_on_c, 10, 54, 80
11, 64366, Note_off_c, 10, 54, 64
11, 64397, Note_on_c, 10, 55, 95
11, 64534, Note_off_c, 10, 55, 64
11, 64647, Note_on_c, 10, 57, 82
11, 64730, Note_off_c, 10, 57, 64
11, 64785, Note_on_c, 10, 59, 102
11, 64882, Note_on_c, 10, 57, 78
11, 64906, Note_off_c, 10, 59, 64
11, 64950, Note_off_c, 10, 57, 64
11, 65008, Note_on_c, 10, 55, 82
11, 65065, Note_off_c, 10, 55, 64
11, 65141, Note_on_c, 10, 54, 102
11, 65240, Note_on_c, 10, 55, 72
11, 65272, Note_off_c, 10, 54, 64
11, 65323, Note_off_c, 10, 55, 64
11, 65351, Note_on_c, 10, 52, 85
11, 65410, Note_off_c, 10, 52, 64
11, 65492, Note_on_c, 10, 51, 93
11, 65638, Note_off_c, 10, 51, 64
11, 65737, Note_on_c, 10, 59, 78
11, 65810, Note_off_c, 10, 59, 64
11, 65854, Note_on_c, 10, 50, 89
11, 66010, Note_off_c, 10, 50, 64
11, 66088, Note_on_c, 10, 59, 80
11, 66162, Note_off_c, 10, 59, 64
11, 66215, Note_on_c, 10, 49, 82
11, 66365, Note_off_c, 10, 49, 64
11, 66439, Note_on_c, 10, 57, 85
11, 66527, Note_off_c, 10, 57, 64
11, 66575, Note_on_c, 10, 48, 95
11, 66760, Note_off_c, 10, 48, 64
11, 66813, Note_on_c, 10, 57, 82
11, 66895, Note_off_c, 10, 57, 64
11, 66942, Note_on_c, 10, 47, 89
11, 67113, Note_off_c, 10, 47, 64
11, 67159, Note_on_c, 10, 55, 82
11, 67246, Note_off_c, 10, 55, 64
11, 67287, Note_on_c, 10, 46, 85
11, 67434, Note_off_c, 10, 46, 64
11, 67512, Note_on_c, 10, 55, 87
11, 67600, Note_off_c, 10, 55, 64
11, 67651, Note_on_c, 10, 45, 98
11, 68048, Note_off_c, 10, 45, 64
11, 68130, Note_on_c, 10, 49, 87
11, 68209, Note_off_c, 10, 49, 64
11, 68242, Note_on_c, 10, 52, 98
11, 68317, Note_off_c, 10, 52, 64
11, 68368, Note_on_c, 10, 55, 105
11, 68488, Note_on_c, 10, 61, 82
11, 68507, Note_off_c, 10, 55, 64
11, 68580, Note_off_c, 10, 61, 64
11, 68607, Note_on_c, 10, 64, 85
11, 68663, Note_off_c, 10, 64, 64
11, 68733, Note_on_c, 10, 55, 98
11, 68834, Note_off_c, 10, 55, 64
11, 68842, Note_on_c, 10, 54, 89
11, 68925, Note_off_c, 10, 54, 64
11, 68953, Note_on_c, 10, 52, 89
11, 69021, Note_off_c, 10, 52, 64
11, 69087, Note_on_c, 10, 54, 102
11, 69205, Note_on_c, 10, 52, 80
11, 69226, Note_off_c, 10, 54, 64
11, 69297, Note_off_c, 10, 52, 64
11, 69317, Note_on_c, 10, 50, 82
11, 69431, Note_off_c, 10, 50, 64
11, 69458, Note_on_c, 10, 57, 102
11, 69571, Note_off_c, 10, 57, 64
11, 69690, Note_on_c, 10, 45, 89
11, 69769, Note_off_c, 10, 45, 64
11, 69812, Note_on_c, 10, 50, 107
11, 70316, Note_off_c, 10, 50, 64
11, 70316, End_track
12, 0, Start_track
12, 0, Title_t, "Trumpet"
12, 0, Program_c, 0, 56
12, 0, Control_c, 0, 7, 127
12, 18574, Note_on_c, 0, 74, 82
12, 18627, Note_off_c, 0, 74, 64
12, 18698, Note_on_c, 0, 81, 87
12, 18960, Note_off_c, 0, 81, 64
12, 19052, Note_on_c, 0, 83, 85
12, 19316, Note_off_c, 0, 83, 64
12, 19410, Note_on_c, 0, 81, 93
12, 19844, Note_off_c, 0, 81, 64
12, 19892, Note_on_c, 0, 83, 80
12, 19942, Note_off_c, 0, 83, 64
12, 20013, Note_on_c, 0, 85, 74
12, 20065, Note_off_c, 0, 85, 64
12, 20139, Note_on_c, 0, 86, 89
12, 20250, Note_on_c, 0, 85, 74
12, 20262, Note_off_c, 0, 86, 64
12, 20311, Note_off_c, 0, 85, 64
12, 20371, Note_on_c, 0, 83, 66
12, 20417, Note_off_c, 0, 83, 64
12, 20504, Note_on_c, 0, 81, 89
12, 20609, Note_on_c, 0, 83, 70
12, 20615, Note_off_c, 0, 81, 64
12, 20659, Note_off_c, 0, 83, 64
12, 20736, Note_on_c, 0, 79, 74
12, 20779, Note_off_c, 0, 79, 64
12, 20874, Note_on_c, 0, 78, 87
12, 20977, Note_on_c, 0, 76, 68
12, 20988, Note_off_c, 0, 78, 64
12, 21038, Note_off_c, 0, 76, 64
12, 21104, Note_on_c, 0, 78, 80
12, 21142, Note_off_c, 0, 78, 64
12, 21248, Note_on_c, 0, 74, 93
12, 21454, Note_off_c, 0, 74, 64
12, 24349, Note_on_c, 0, 76, 87
12, 24394, Note_off_c, 0, 76, 64
12, 24474, Note_on_c, 0, 81, 98
12, 24579, Note_on_c, 0, 79, 85
12, 24595, Note_off_c, 0, 81, 64
12, 24660, Note_off_c, 0, 79, 64
12, 24700, Note_on_c, 0, 81, 70
12, 24747, Note_off_c, 0, 81, 64
12, 24827, Note_on_c, 0, 81, 98
12, 24935, Note_on_c, 0, 79, 68
12, 24945, Note_off_c, 0, 81, 64
12, 25001, Note_off_c, 0, 79, 64
12, 25050, Note_on_c, 0, 81, 82
12, 25097, Note_off_c, 0, 81, 64
12, 25178, Note_on_c, 0, 81, 93
12, 25598, Note_off_c, 0, 81, 64
12, 25655, Note_on_c, 0, 83, 82
12, 25709, Note_off_c, 0, 83, 64
12, 25773, Note_on_c, 0, 81, 89
12, 25820, Note_off_c, 0, 81, 64
12, 25891, Note_on_c, 0, 79, 98
12, 25990, Note_on_c, 0, 78, 66
12, 26015, Note_off_c, 0, 79, 64
12, 26068, Note_off_c, 0, 78, 64
12, 26120, Note_on_c, 0, 79, 78
12, 26169, Note_off_c, 0, 79, 64
12, 26245, Note_on_c, 0, 79, 95
12, 26352, Note_on_c, 0, 78, 70
12, 26366, Note_off_c, 0, 79, 64
12, 26425, Note_off_c, 0, 78, 64
12, 26475, Note_on_c, 0, 79, 85
12, 26521, Note_off_c, 0, 79, 64
12, 26606, Note_on_c, 0, 79, 98
12, 27024, Note_off_c, 0, 79, 64
12, 27090, Note_on_c, 0, 81, 85
12, 27139, Note_off_c, 0, 81, 64
12, 27201, Note_on_c, 0, 79, 87
12, 27253, Note_off_c, 0, 79, 64
12, 27326, Note_on_c, 0, 78, 100
12, 27560, Note_off_c, 0, 78, 64
12, 34418, Note_on_c, 0, 86, 87
12, 34466, Note_off_c, 0, 86, 64
12, 34546, Note_on_c, 0, 85, 100
12, 34646, Note_on_c, 0, 83, 72
12, 34660, Note_off_c, 0, 85, 64
12, 34716, Note_off_c, 0, 83, 64
12, 34768, Note_on_c, 0, 81, 72
12, 34813, Note_off_c, 0, 81, 64
12, 34886, Note_on_c, 0, 83, 98
12, 34994, Note_on_c, 0, 81, 68
12, 35000, Note_off_c, 0, 83, 64
12, 35048, Note_off_c, 0, 81, 64
12, 35115, Note_on_c, 0, 80, 82
12, 35160, Note_off_c, 0, 80, 64
12, 35251, Note_on_c, 0, 81, 102
12, 35635, Note_off_c, 0, 81, 64
12, 70415, Note_on_c, 0, 69, 85
12, 70476, Note_off_c, 0, 69, 64
12, 70541, Note_on_c, 0, 76, 98
12, 70797, Note_off_c, 0, 76, 64
12, 70892, Note_on_c, 0, 78, 87
12, 71112, Note_off_c, 0, 78, 64
12, 71242, Note_on_c, 0, 76, 105
12, 71677, Note_off_c, 0, 76, 64
12, 73314, Note_on_c, 0, 66, 102
12, 73392, Note_off_c, 0, 66, 64
12, 73435, Note_on_c, 0, 78, 107
12, 73730, Note_off_c, 0, 78, 64
12, 73811, Note_on_c, 0, 79, 98
12, 74078, Note_off_c, 0, 79, 64
12, 74167, Note_on_c, 0, 79, 107
12, 74268, Note_off_c, 0, 79, 64
12, 74278, Note_on_c, 0, 78, 102
12, 74687, Note_off_c, 0, 78, 64
12, 76206, Note_on_c, 0, 66, 87
12, 76262, Note_off_c, 0, 66, 64
12, 76333, Note_on_c, 0, 74, 105
12, 76446, Note_off_c, 0, 74, 64
12, 76454, Note_on_c, 0, 76, 85
12, 76507, Note_off_c, 0, 76, 64
12, 76563, Note_on_c, 0, 74, 95
12, 76610, Note_off_c, 0, 74, 64
12, 76689, Note_on_c, 0, 74, 102
12, 76787, Note_off_c, 0, 74, 64
12, 76792, Note_on_c, 0, 76, 76
12, 76858, Note_off_c, 0, 76, 64
12, 76908, Note_on_c, 0, 74, 100
12, 76968, Note_off_c, 0, 74, 64
12, 77042, Note_on_c, 0, 74, 98
12, 77454, Note_off_c, 0, 74, 64
12, 77522, Note_on_c, 0, 76, 98
12, 77593, Note_off_c, 0, 76, 64
12, 77625, Note_on_c, 0, 74, 95
12, 77706, Note_off_c, 0, 74, 64
12, 77751, Note_on_c, 0, 76, 102
12, 77857, Note_off_c, 0, 76, 64
12, 77966, Note_on_c, 0, 81, 93
12, 78031, Note_off_c, 0, 81, 64
12, 78087, Note_on_c, 0, 81, 98
12, 78208, Note_off_c, 0, 81, 64
12, 78319, Note_on_c, 0, 80, 91
12, 78395, Note_off_c, 0, 80, 64
12, 78445, Note_on_c, 0, 81, 95
12, 78556, Note_off_c, 0, 81, 64
12, 78668, Note_on_c, 0, 76, 87
12, 78736, Note_off_c, 0, 76, 64
12, 78798, Note_on_c, 0, 76, 100
12, 78892, Note_off_c, 0, 76, 64
12, 79026, Note_on_c, 0, 69, 89
12, 79091, Note_off_c, 0, 69, 64
12, 79150, Note_on_c, 0, 79, 100
12, 79261, Note_off_c, 0, 79, 64
12, 79261, Note_on_c, 0, 78, 78
12, 79339, Note_off_c, 0, 78, 64
12, 79379, Note_on_c, 0, 79, 76
12, 79432, Note_off_c, 0, 79, 64
12, 79509, Note_on_c, 0, 79, 98
12, 79619, Note_on_c, 0, 78, 64
12, 79624, Note_off_c, 0, 79, 64
12, 79673, Note_off_c, 0, 78, 64
12, 79731, Note_on_c, 0, 79, 68
12, 79791, Note_off_c, 0, 79, 64
12, 79869, Note_on_c, 0, 79, 100
12, 80336, Note_off_c, 0, 79, 64
12, 80392, Note_on_c, 0, 81, 76
12, 80453, Note_off_c, 0, 81, 64
12, 80506, Note_on_c, 0, 79, 87
12, 80563, Note_off_c, 0, 79, 64
12, 80634, Note_on_c, 0, 81, 102
12, 80742, Note_on_c, 0, 79, 82
12, 80763, Note_off_c, 0, 81, 64
12, 80814, Note_off_c, 0, 79, 64
12, 80854, Note_on_c, 0, 78, 85
12, 80919, Note_off_c, 0, 78, 64
12, 80975, Note_on_c, 0, 76, 93
12, 81078, Note_on_c, 0, 78, 80
12, 81103, Note_off_c, 0, 76, 64
12, 81154, Note_off_c, 0, 78, 64
12, 81218, Note_on_c, 0, 79, 80
12, 81270, Note_off_c, 0, 79, 64
12, 81351, Note_on_c, 0, 78, 100
12, 81462, Note_on_c, 0, 76, 68
12, 81474, Note_off_c, 0, 78, 64
12, 81531, Note_off_c, 0, 76, 64
12, 81581, Note_on_c, 0, 78, 89
12, 81629, Note_off_c, 0, 78, 64
12, 81724, Note_on_c, 0, 74, 102
12, 81982, Note_off_c, 0, 74, 64
12, 87703, Note_on_c, 0, 74, 89
12, 87766, Note_off_c, 0, 74, 64
12, 87829, Note_on_c, 0, 81, 98
12, 88038, Note_off_c, 0, 81, 64
12, 88183, Note_on_c, 0, 83, 91
12, 88388, Note_off_c, 0, 83, 64
12, 88548, Note_on_c, 0, 84, 100
12, 89018, Note_off_c, 0, 84, 64
12, 89063, Note_on_c, 0, 83, 89
12, 89119, Note_off_c, 0, 83, 64
12, 89167, Note_on_c, 0, 81, 82
12, 89223, Note_off_c, 0, 81, 64
12, 89291, Note_on_c, 0, 83, 105
12, 89397, Note_on_c, 0, 81, 72
12, 89400, Note_off_c, 0, 83, 64
12, 89467, Note_off_c, 0, 81, 64
12, 89503, Note_on_c, 0, 79, 80
12, 89558, Note_off_c, 0, 79, 64
12, 89633, Note_on_c, 0, 81, 102
12, 89735, Note_off_c, 0, 81, 64
12, 89737, Note_on_c, 0, 79, 70
12, 89806, Note_off_c, 0, 79, 64
12, 89861, Note_on_c, 0, 78, 74
12, 89914, Note_off_c, 0, 78, 64
12, 89983, Note_on_c, 0, 79, 102
12, 90351, Note_off_c, 0, 79, 64
12, 98155, Note_on_c, 0, 81, 89
12, 98208, Note_off_c, 0, 81, 64
12, 98267, Note_on_c, 0, 83, 102
12, 98353, Note_off_c, 0, 83, 64
12, 98375, Note_on_c, 0, 85, 89
12, 98445, Note_off_c, 0, 85, 64
12, 98491, Note_on_c, 0, 86, 68
12, 98548, Note_off_c, 0, 86, 64
12, 98613, Note_on_c, 0, 81, 102
12, 98701, Note_off_c, 0, 81, 64
12, 98718, Note_on_c, 0, 83, 68
12, 98779, Note_off_c, 0, 83, 64
12, 98842, Note_on_c, 0, 81, 76
12, 98916, Note_off_c, 0, 81, 64
12, 98971, Note_on_c, 0, 79, 95
12, 99032, Note_off_c, 0, 79, 64
12, 99085, Note_on_c, 0, 78, 62
12, 99140, Note_off_c, 0, 78, 64
12, 99206, Note_on_c, 0, 76, 93
12, 99268, Note_off_c, 0, 76, 64
12, 99337, Note_on_c, 0, 74, 100
12, 99716, Note_off_c, 0, 74, 64
12, 103543, Note_on_c, 0, 85, 98
12, 103611, Note_off_c, 0, 85, 64
12, 103669, Note_on_c, 0, 86, 102
12, 103775, Note_off_c, 0, 86, 64
12, 103903, Note_on_c, 0, 81, 87
12, 103967, Note_off_c, 0, 81, 64
12, 104022, Note_on_c, 0, 78, 98
12, 104083, Note_off_c, 0, 78, 64
12, 104126, Note_on_c, 0, 76, 78
12, 104186, Note_off_c, 0, 76, 64
12, 104245, Note_on_c, 0, 74, 100
12, 104308, Note_off_c, 0, 74, 64
12, 104383, Note_on_c, 0, 74, 102
12, 104818, Note_off_c, 0, 74, 64
12, 104818, End_track
13, 0, Start_track
13, 0, Title_t, "Trumpet"
13, 0, Program_c, 1, 56
13, 0, Control_c, 1, 7, 127
13, 18577, Note_on_c, 1, 69, 85
13, 18630, Note_off_c, 1, 69, 64
13, 18700, Note_on_c, 1, 74, 93
13, 18943, Note_off_c, 1, 74, 64
13, 19051, Note_on_c, 1, 79, 87
13, 19271, Note_off_c, 1, 79, 64
13, 19419, Note_on_c, 1, 74, 93
13, 19856, Note_off_c, 1, 74, 64
13, 20011, Note_on_c, 1, 79, 85
13, 20062, Note_off_c, 1, 79, 64
13, 20135, Note_on_c, 1, 81, 95
13, 20318, Note_off_c, 1, 81, 64
13, 20384, Note_on_c, 1, 79, 80
13, 20432, Note_off_c, 1, 79, 64
13, 20502, Note_on_c, 1, 78, 87
13, 20658, Note_off_c, 1, 78, 64
13, 20737, Note_on_c, 1, 76, 68
13, 20782, Note_off_c, 1, 76, 64
13, 20872, Note_on_c, 1, 74, 95
13, 21013, Note_off_c, 1, 74, 64
13, 21108, Note_on_c, 1, 69, 82
13, 21144, Note_off_c, 1, 69, 64
13, 21240, Note_on_c, 1, 69, 98
13, 21467, Note_off_c, 1, 69, 64
13, 24337, Note_on_c, 1, 76, 89
13, 24382, Note_off_c, 1, 76, 64
13, 24467, Note_on_c, 1, 78, 93
13, 24580, Note_on_c, 1, 76, 68
13, 24592, Note_off_c, 1, 78, 64
13, 24648, Note_off_c, 1, 76, 64
13, 24704, Note_on_c, 1, 78, 80
13, 24747, Note_off_c, 1, 78, 64
13, 24828, Note_on_c, 1, 78, 98
13, 24940, Note_on_c, 1, 76, 72
13, 24955, Note_off_c, 1, 78, 64
13, 24996, Note_off_c, 1, 76, 64
13, 25053, Note_on_c, 1, 78, 85
13, 25090, Note_off_c, 1, 78, 64
13, 25182, Note_on_c, 1, 78, 93
13, 25596, Note_off_c, 1, 78, 64
13, 25663, Note_on_c, 1, 79, 78
13, 25709, Note_off_c, 1, 79, 64
13, 25784, Note_on_c, 1, 78, 89
13, 25830, Note_off_c, 1, 78, 64
13, 25905, Note_on_c, 1, 76, 100
13, 26000, Note_on_c, 1, 74, 80
13, 26020, Note_off_c, 1, 76, 64
13, 26074, Note_off_c, 1, 74, 64
13, 26124, Note_on_c, 1, 76, 85
13, 26167, Note_off_c, 1, 76, 64
13, 26254, Note_on_c, 1, 76, 102
13, 26364, Note_on_c, 1, 74, 68
13, 26380, Note_off_c, 1, 76, 64
13, 26429, Note_off_c, 1, 74, 64
13, 26485, Note_on_c, 1, 76, 85
13, 26532, Note_off_c, 1, 76, 64
13, 26616, Note_on_c, 1, 76, 102
13, 27037, Note_off_c, 1, 76, 64
13, 27100, Note_on_c, 1, 78, 82
13, 27148, Note_off_c, 1, 78, 64
13, 27214, Note_on_c, 1, 76, 93
13, 27260, Note_off_c, 1, 76, 64
13, 27349, Note_on_c, 1, 74, 102
13, 27599, Note_off_c, 1, 74, 64
13, 34426, Note_on_c, 1, 83, 93
13, 34471, Note_off_c, 1, 83, 64
13, 34554, Note_on_c, 1, 81, 100
13, 34695, Note_off_c, 1, 81, 64
13, 34783, Note_on_c, 1, 76, 98
13, 34824, Note_off_c, 1, 76, 64
13, 34908, Note_on_c, 1, 76, 102
13, 35052, Note_off_c, 1, 76, 64
13, 35133, Note_on_c, 1, 76, 102
13, 35172, Note_off_c, 1, 76, 64
13, 35254, Note_on_c, 1, 76, 105
13, 35628, Note_off_c, 1, 76, 64
13, 70419, Note_on_c, 1, 69, 107
13, 70474, Note_off_c, 1, 69, 64
13, 70541, Note_on_c, 1, 69, 102
13, 70608, Note_off_c, 1, 69, 64
13, 70647, Note_on_c, 1, 66, 102
13, 70714, Note_off_c, 1, 66, 64
13, 70756, Note_on_c, 1, 69, 82
13, 70824, Note_off_c, 1, 69, 64
13, 70875, Note_on_c, 1, 74, 91
13, 70941, Note_off_c, 1, 74, 64
13, 70993, Note_on_c, 1, 69, 89
13, 71054, Note_off_c, 1, 69, 64
13, 71097, Note_on_c, 1, 74, 93
13, 71155, Note_off_c, 1, 74, 64
13, 71231, Note_on_c, 1, 69, 102
13, 71725, Note_off_c, 1, 69, 64
13, 73298, Note_on_c, 1, 76, 102
13, 73355, Note_off_c, 1, 76, 64
13, 73437, Note_on_c, 1, 74, 98
13, 73700, Note_off_c, 1, 74, 64
13, 73793, Note_on_c, 1, 76, 105
13, 74048, Note_off_c, 1, 76, 64
13, 74145, Note_on_c, 1, 76, 102
13, 74247, Note_off_c, 1, 76, 64
13, 74258, Note_on_c, 1, 74, 102
13, 74682, Note_off_c, 1, 74, 64
13, 77638, Note_on_c, 1, 80, 102
13, 77709, Note_off_c, 1, 80, 64
13, 77752, Note_on_c, 1, 81, 87
13, 77857, Note_off_c, 1, 81, 64
13, 77981, Note_on_c, 1, 78, 89
13, 78042, Note_off_c, 1, 78, 64
13, 78099, Note_on_c, 1, 78, 95
13, 78198, Note_off_c, 1, 78, 64
13, 78322, Note_on_c, 1, 76, 102
13, 78388, Note_off_c, 1, 76, 64
13, 78441, Note_on_c, 1, 76, 105
13, 78567, Note_off_c, 1, 76, 64
13, 78675, Note_on_c, 1, 69, 102
13, 78726, Note_off_c, 1, 69, 64
13, 78802, Note_on_c, 1, 69, 105
13, 78973, Note_off_c, 1, 69, 64
13, 80498, Note_on_c, 1, 76, 100
13, 80563, Note_off_c, 1, 76, 64
13, 80629, Note_on_c, 1, 76, 107
13, 80743, Note_off_c, 1, 76, 64
13, 80851, Note_on_c, 1, 74, 95
13, 80930, Note_off_c, 1, 74, 64
13, 80982, Note_on_c, 1, 74, 98
13, 81083, Note_off_c, 1, 74, 64
13, 81217, Note_on_c, 1, 69, 82
13, 81285, Note_off_c, 1, 69, 64
13, 81349, Note_on_c, 1, 69, 100
13, 81468, Note_off_c, 1, 69, 64
13, 81583, Note_on_c, 1, 74, 87
13, 81649, Note_off_c, 1, 74, 64
13, 81729, Note_on_c, 1, 69, 102
13, 81880, Note_off_c, 1, 69, 64
13, 87713, Note_on_c, 1, 69, 93
13, 87770, Note_off_c, 1, 69, 64
13, 87837, Note_on_c, 1, 74, 95
13, 88089, Note_off_c, 1, 74, 64
13, 88203, Note_on_c, 1, 79, 98
13, 88412, Note_off_c, 1, 79, 64
13, 88536, Note_on_c, 1, 78, 102
13, 89021, Note_off_c, 1, 78, 64
13, 89132, Note_on_c, 1, 78, 100
13, 89193, Note_off_c, 1, 78, 64
13, 89265, Note_on_c, 1, 79, 102
13, 89541, Note_off_c, 1, 79, 64
13, 89861, Note_on_c, 1, 74, 102
13, 89909, Note_off_c, 1, 74, 64
13, 90002, Note_on_c, 1, 74, 110
13, 90310, Note_off_c, 1, 74, 64
13, 98120, Note_on_c, 1, 78, 95
13, 98183, Note_off_c, 1, 78, 64
13, 98240, Note_on_c, 1, 74, 102
13, 98331, Note_off_c, 1, 74, 64
13, 98362, Note_on_c, 1, 76, 85
13, 98427, Note_off_c, 1, 76, 64
13, 98478, Note_on_c, 1, 78, 89
13, 98541, Note_off_c, 1, 78, 64
13, 98614, Note_on_c, 1, 76, 105
13, 98785, Note_off_c, 1, 76, 64
13, 98833, Note_on_c, 1, 78, 70
13, 98896, Note_off_c, 1, 78, 64
13, 98977, Note_on_c, 1, 76, 100
13, 99043, Note_off_c, 1, 76, 64
13, 99081, Note_on_c, 1, 74, 85
13, 99137, Note_off_c, 1, 74, 64
13, 99192, Note_on_c, 1, 69, 93
13, 99247, Note_off_c, 1, 69, 64
13, 99341, Note_on_c, 1, 66, 105
13, 99742, Note_off_c, 1, 66, 64
13, 103536, Note_on_c, 1, 76, 100
13, 103596, Note_off_c, 1, 76, 64
13, 103666, Note_on_c, 1, 81, 102
13, 103770, Note_off_c, 1, 81, 64
13, 103773, Note_on_c, 1, 79, 72
13, 103834, Note_off_c, 1, 79, 64
13, 103896, Note_on_c, 1, 78, 85
13, 103950, Note_off_c, 1, 78, 64
13, 104018, Note_on_c, 1, 78, 100
13, 104098, Note_off_c, 1, 78, 64
13, 104123, Note_on_c, 1, 79, 98
13, 104186, Note_off_c, 1, 79, 64
13, 104232, Note_on_c, 1, 81, 93
13, 104292, Note_off_c, 1, 81, 64
13, 104351, Note_on_c, 1, 79, 95
13, 104421, Note_on_c, 1, 78, 85
13, 104422, Note_off_c, 1, 79, 64
13, 104467, Note_off_c, 1, 78, 64
13, 104470, Note_on_c, 1, 79, 82
13, 104513, Note_on_c, 1, 78, 80
13, 104520, Note_off_c, 1, 79, 64
13, 104548, Note_on_c, 1, 79, 82
13, 104555, Note_off_c, 1, 78, 64
13, 104593, Note_on_c, 1, 78, 89
13, 104596, Note_off_c, 1, 79, 64
13, 104629, Note_on_c, 1, 79, 87
13, 104642, Note_off_c, 1, 78, 64
13, 104664, Note_on_c, 1, 78, 82
13, 104684, Note_off_c, 1, 79, 64
13, 104964, Note_off_c, 1, 78, 64
13, 104964, End_track
14, 0, Start_track
14, 0, Title_t, "Trumpet"
14, 0, Program_c, 2, 56
14, 0, Control_c, 2, 7, 100
14, 18586, Note_on_c, 2, 66, 98
14, 18624, Note_off_c, 2, 66, 64
14, 18695, Note_on_c, 2, 66, 100
14, 18947, Note_off_c, 2, 66, 64
14, 19058, Note_on_c, 2, 62, 95
14, 19293, Note_off_c, 2, 62, 64
14, 19405, Note_on_c, 2, 66, 98
14, 19824, Note_off_c, 2, 66, 64
14, 19984, Note_on_c, 2, 69, 89
14, 20050, Note_off_c, 2, 69, 64
14, 20135, Note_on_c, 2, 62, 95
14, 20273, Note_off_c, 2, 62, 64
14, 20373, Note_on_c, 2, 74, 91
14, 20422, Note_off_c, 2, 74, 64
14, 20486, Note_on_c, 2, 74, 95
14, 20597, Note_off_c, 2, 74, 64
14, 20727, Note_on_c, 2, 69, 100
14, 20770, Note_off_c, 2, 69, 64
14, 20855, Note_on_c, 2, 69, 107
14, 20986, Note_off_c, 2, 69, 64
14, 21106, Note_on_c, 2, 66, 100
14, 21144, Note_off_c, 2, 66, 64
14, 21244, Note_on_c, 2, 66, 113
14, 21405, Note_off_c, 2, 66, 64
14, 34419, Note_on_c, 2, 76, 98
14, 34470, Note_off_c, 2, 76, 64
14, 34549, Note_on_c, 2, 76, 100
14, 34710, Note_off_c, 2, 76, 64
14, 34779, Note_on_c, 2, 76, 89
14, 34824, Note_off_c, 2, 76, 64
14, 34908, Note_on_c, 2, 74, 102
14, 35034, Note_off_c, 2, 74, 64
14, 35119, Note_on_c, 2, 74, 80
14, 35158, Note_off_c, 2, 74, 64
14, 35247, Note_on_c, 2, 69, 110
14, 35622, Note_off_c, 2, 69, 64
14, 70395, Note_on_c, 2, 69, 91
14, 70446, Note_off_c, 2, 69, 64
14, 70524, Note_on_c, 2, 69, 102
14, 70744, Note_off_c, 2, 69, 64
14, 70862, Note_on_c, 2, 66, 98
14, 70938, Note_off_c, 2, 66, 64
14, 70992, Note_on_c, 2, 62, 100
14, 71057, Note_off_c, 2, 62, 64
14, 71103, Note_on_c, 2, 66, 95
14, 71158, Note_off_c, 2, 66, 64
14, 71232, Note_on_c, 2, 69, 100
14, 71799, Note_off_c, 2, 69, 64
14, 73309, Note_on_c, 2, 66, 100
14, 73355, Note_off_c, 2, 66, 64
14, 73428, Note_on_c, 2, 66, 102
14, 73804, Note_off_c, 2, 66, 64
14, 74140, Note_on_c, 2, 66, 119
14, 74758, Note_off_c, 2, 66, 64
14, 77611, Note_on_c, 2, 76, 89
14, 77678, Note_off_c, 2, 76, 64
14, 77732, Note_on_c, 2, 69, 98
14, 77832, Note_off_c, 2, 69, 64
14, 77949, Note_on_c, 2, 69, 100
14, 78024, Note_off_c, 2, 69, 64
14, 78087, Note_on_c, 2, 62, 98
14, 78178, Note_off_c, 2, 62, 64
14, 78429, Note_on_c, 2, 69, 110
14, 78534, Note_off_c, 2, 69, 64
14, 78663, Note_on_c, 2, 69, 107
14, 78716, Note_off_c, 2, 69, 64
14, 78792, Note_on_c, 2, 69, 110
14, 79022, Note_off_c, 2, 69, 64
14, 80498, Note_on_c, 2, 69, 95
14, 80564, Note_off_c, 2, 69, 64
14, 80629, Note_on_c, 2, 69, 89
14, 80748, Note_off_c, 2, 69, 64
14, 80869, Note_on_c, 2, 78, 80
14, 80945, Note_off_c, 2, 78, 64
14, 80998, Note_on_c, 2, 79, 100
14, 81119, Note_off_c, 2, 79, 64
14, 81221, Note_on_c, 2, 76, 78
14, 81276, Note_off_c, 2, 76, 64
14, 81348, Note_on_c, 2, 74, 93
14, 81442, Note_off_c, 2, 74, 64
14, 81573, Note_on_c, 2, 69, 80
14, 81632, Note_off_c, 2, 69, 64
14, 81713, Note_on_c, 2, 66, 98
14, 81866, Note_off_c, 2, 66, 64
14, 87703, Note_on_c, 2, 66, 102
14, 87756, Note_off_c, 2, 66, 64
14, 87821, Note_on_c, 2, 66, 102
14, 88054, Note_off_c, 2, 66, 64
14, 88180, Note_on_c, 2, 62, 95
14, 88372, Note_off_c, 2, 62, 64
14, 88541, Note_on_c, 2, 69, 98
14, 88957, Note_off_c, 2, 69, 64
14, 89147, Note_on_c, 2, 74, 89
14, 89200, Note_off_c, 2, 74, 64
14, 89286, Note_on_c, 2, 74, 98
14, 89622, Note_off_c, 2, 74, 64
14, 89857, Note_on_c, 2, 62, 91
14, 89902, Note_off_c, 2, 62, 64
14, 89990, Note_on_c, 2, 62, 105
14, 90366, Note_off_c, 2, 62, 64
14, 98149, Note_on_c, 2, 74, 85
14, 98210, Note_off_c, 2, 74, 64
14, 98275, Note_on_c, 2, 62, 87
14, 98388, Note_off_c, 2, 62, 64
14, 98497, Note_on_c, 2, 62, 100
14, 98571, Note_off_c, 2, 62, 64
14, 98626, Note_on_c, 2, 69, 98
14, 99007, Note_off_c, 2, 69, 64
14, 99201, Note_on_c, 2, 69, 100
14, 99250, Note_off_c, 2, 69, 64
14, 99350, Note_on_c, 2, 62, 110
14, 99724, Note_off_c, 2, 62, 64
14, 103530, Note_on_c, 2, 69, 80
14, 103586, Note_off_c, 2, 69, 64
14, 103660, Note_on_c, 2, 66, 102
14, 103741, Note_off_c, 2, 66, 64
14, 103775, Note_on_c, 2, 69, 85
14, 103835, Note_off_c, 2, 69, 64
14, 103880, Note_on_c, 2, 74, 85
14, 103942, Note_off_c, 2, 74, 64
14, 104003, Note_on_c, 2, 74, 93
14, 104111, Note_off_c, 2, 74, 64
14, 104237, Note_on_c, 2, 69, 85
14, 104281, Note_off_c, 2, 69, 64
14, 104369, Note_on_c, 2, 69, 107
14, 104896, Note_off_c, 2, 69, 64
14, 104896, End_track
15, 0, Start_track
15, 0, Title_t, "Timpani"
15, 0, Program_c, 3, 47
15, 0, Control_c, 3, 7, 100
15, 18601, Note_on_c, 3, 50, 100
15, 18632, Note_off_c, 3, 50, 64
15, 18711, Note_on_c, 3, 50, 105
15, 18750, Note_off_c, 3, 50, 64
15, 18760, Note_on_c, 3, 50, 105
15, 18799, Note_off_c, 3, 50, 64
15, 18806, Note_on_c, 3, 50, 87
15, 18838, Note_off_c, 3, 50, 64
15, 18856, Note_on_c, 3, 50, 100
15, 18923, Note_off_c, 3, 50, 64
15, 18943, Note_on_c, 3, 50, 98
15, 18972, Note_off_c, 3, 50, 64
15, 18978, Note_on_c, 3, 50, 64
15, 19006, Note_off_c, 3, 50, 64
15, 19033, Note_on_c, 3, 50, 85
15, 19100, Note_off_c, 3, 50, 64
15, 19123, Note_on_c, 3, 50, 95
15, 19154, Note_off_c, 3, 50, 64
15, 19164, Note_on_c, 3, 50, 85
15, 19192, Note_off_c, 3, 50, 64
15, 19212, Note_on_c, 3, 50, 91
15, 19272, Note_off_c, 3, 50, 64
15, 19297, Note_on_c, 3, 50, 89
15, 19350, Note_off_c, 3, 50, 64
15, 19369, Note_on_c, 3, 50, 85
15, 19434, Note_off_c, 3, 50, 64
15, 19458, Note_on_c, 3, 50, 98
15, 19513, Note_off_c, 3, 50, 64
15, 19543, Note_on_c, 3, 50, 91
15, 19598, Note_off_c, 3, 50, 64
15, 19621, Note_on_c, 3, 50, 85
15, 19674, Note_off_c, 3, 50, 64
15, 19692, Note_on_c, 3, 50, 91
15, 19738, Note_off_c, 3, 50, 64
15, 19765, Note_on_c, 3, 50, 105
15, 19802, Note_off_c, 3, 50, 64
15, 19992, Note_on_c, 3, 45, 82
15, 20040, Note_off_c, 3, 45, 64
15, 20109, Note_on_c, 3, 50, 105
15, 20165, Note_off_c, 3, 50, 64
15, 20354, Note_on_c, 3, 50, 105
15, 20406, Note_off_c, 3, 50, 64
15, 20499, Note_on_c, 3, 45, 110
15, 20553, Note_off_c, 3, 45, 64
15, 20724, Note_on_c, 3, 45, 116
15, 20769, Note_off_c, 3, 45, 64
15, 20845, Note_on_c, 3, 50, 107
15, 20900, Note_off_c, 3, 50, 64
15, 21094, Note_on_c, 3, 50, 107
15, 21134, Note_off_c, 3, 50, 64
15, 21244, Note_on_c, 3, 50, 119
15, 21306, Note_off_c, 3, 50, 64
15, 34411, Note_on_c, 3, 50, 102
15, 34469, Note_off_c, 3, 50, 64
15, 34551, Note_on_c, 3, 45, 116
15, 34626, Note_off_c, 3, 45, 64
15, 34778, Note_on_c, 3, 45, 113
15, 34833, Note_off_c, 3, 45, 64
15, 34898, Note_on_c, 3, 50, 119
15, 34963, Note_off_c, 3, 50, 64
15, 35131, Note_on_c, 3, 50, 119
15, 35176, Note_off_c, 3, 50, 64
15, 35255, Note_on_c, 3, 45, 127
15, 35349, Note_off_c, 3, 45, 64
15, 70391, Note_on_c, 3, 45, 80
15, 70429, Note_off_c, 3, 45, 64
15, 70535, Note_on_c, 3, 45, 100
15, 70572, Note_off_c, 3, 45, 64
15, 70583, Note_on_c, 3, 45, 110
15, 70623, Note_off_c, 3, 45, 64
15, 70636, Note_on_c, 3, 45, 87
15, 70678, Note_off_c, 3, 45, 64
15, 70694, Note_on_c, 3, 45, 102
15, 70729, Note_off_c, 3, 45, 64
15, 70747, Note_on_c, 3, 45, 82
15, 70785, Note_off_c, 3, 45, 64
15, 70797, Note_on_c, 3, 45, 102
15, 70833, Note_off_c, 3, 45, 64
15, 70858, Note_on_c, 3, 45, 72
15, 70895, Note_off_c, 3, 45, 64
15, 70900, Note_on_c, 3, 45, 85
15, 70936, Note_off_c, 3, 45, 64
15, 70968, Note_on_c, 3, 45, 87
15, 71004, Note_off_c, 3, 45, 64
15, 71012, Note_on_c, 3, 45, 72
15, 71047, Note_off_c, 3, 45, 64
15, 71075, Note_on_c, 3, 45, 78
15, 71153, Note_off_c, 3, 45, 64
15, 71180, Note_on_c, 3, 45, 59
15, 71252, Note_off_c, 3, 45, 64
15, 71269, Note_on_c, 3, 45, 82
15, 71310, Note_off_c, 3, 45, 64
15, 71328, Note_on_c, 3, 45, 91
15, 71401, Note_off_c, 3, 45, 64
15, 71430, Note_on_c, 3, 45, 85
15, 71501, Note_off_c, 3, 45, 64
15, 71524, Note_on_c, 3, 45, 87
15, 71567, Note_off_c, 3, 45, 64
15, 71597, Note_on_c, 3, 45, 107
15, 71633, Note_off_c, 3, 45, 64
15, 73443, Note_on_c, 3, 50, 122
15, 73539, Note_off_c, 3, 50, 64
15, 74159, Note_on_c, 3, 50, 122
15, 74270, Note_off_c, 3, 50, 64
15, 77616, Note_on_c, 3, 50, 93
15, 77676, Note_off_c, 3, 50, 64
15, 77734, Note_on_c, 3, 45, 105
15, 77798, Note_off_c, 3, 45, 64
15, 77948, Note_on_c, 3, 45, 107
15, 78010, Note_off_c, 3, 45, 64
15, 78080, Note_on_c, 3, 50, 107
15, 78161, Note_off_c, 3, 50, 64
15, 78444, Note_on_c, 3, 45, 116
15, 78511, Note_off_c, 3, 45, 64
15, 78675, Note_on_c, 3, 45, 107
15, 78721, Note_off_c, 3, 45, 64
15, 78802, Note_on_c, 3, 45, 122
15, 78885, Note_off_c, 3, 45, 64
15, 80485, Note_on_c, 3, 45, 102
15, 80547, Note_off_c, 3, 45, 64
15, 80640, Note_on_c, 3, 45, 116
15, 80710, Note_off_c, 3, 45, 64
15, 80877, Note_on_c, 3, 50, 100
15, 80938, Note_off_c, 3, 50, 64
15, 80996, Note_on_c, 3, 50, 105
15, 81069, Note_off_c, 3, 50, 64
15, 81220, Note_on_c, 3, 45, 107
15, 81276, Note_off_c, 3, 45, 64
15, 81346, Note_on_c, 3, 50, 110
15, 81417, Note_off_c, 3, 50, 64
15, 81584, Note_on_c, 3, 50, 98
15, 81640, Note_off_c, 3, 50, 64
15, 81712, Note_on_c, 3, 50, 113
15, 81796, Note_off_c, 3, 50, 64
15, 87703, Note_on_c, 3, 50, 102
15, 87746, Note_off_c, 3, 50, 64
15, 87831, Note_on_c, 3, 50, 102
15, 87874, Note_off_c, 3, 50, 64
15, 87897, Note_on_c, 3, 50, 100
15, 87932, Note_off_c, 3, 50, 64
15, 87948, Note_on_c, 3, 50, 95
15, 87987, Note_off_c, 3, 50, 64
15, 87996, Note_on_c, 3, 50, 105
15, 88033, Note_off_c, 3, 50, 64
15, 88057, Note_on_c, 3, 50, 80
15, 88092, Note_off_c, 3, 50, 64
15, 88110, Note_on_c, 3, 50, 100
15, 88145, Note_off_c, 3, 50, 64
15, 88163, Note_on_c, 3, 50, 70
15, 88201, Note_off_c, 3, 50, 64
15, 88215, Note_on_c, 3, 50, 102
15, 88254, Note_off_c, 3, 50, 64
15, 88281, Note_on_c, 3, 50, 57
15, 88311, Note_off_c, 3, 50, 64
15, 88327, Note_on_c, 3, 50, 82
15, 88359, Note_off_c, 3, 50, 64
15, 88382, Note_on_c, 3, 50, 57
15, 88418, Note_off_c, 3, 50, 64
15, 88430, Note_on_c, 3, 50, 64
15, 88465, Note_off_c, 3, 50, 64
15, 88498, Note_on_c, 3, 50, 60
15, 88528, Note_off_c, 3, 50, 64
15, 88541, Note_on_c, 3, 50, 95
15, 88579, Note_off_c, 3, 50, 64
15, 88604, Note_on_c, 3, 50, 59
15, 88675, Note_off_c, 3, 50, 64
15, 88697, Note_on_c, 3, 50, 52
15, 88758, Note_off_c, 3, 50, 64
15, 88781, Note_on_c, 3, 50, 60
15, 88821, Note_off_c, 3, 50, 64
15, 88834, Note_on_c, 3, 50, 55
15, 88864, Note_off_c, 3, 50, 64
15, 88899, Note_on_c, 3, 50, 100
15, 88951, Note_off_c, 3, 50, 64
15, 89130, Note_on_c, 3, 50, 93
15, 89172, Note_off_c, 3, 50, 64
15, 89273, Note_on_c, 3, 50, 105
15, 89342, Note_off_c, 3, 50, 64
15, 89877, Note_on_c, 3, 50, 110
15, 89929, Note_off_c, 3, 50, 64
15, 90004, Note_on_c, 3, 50, 113
15, 90089, Note_off_c, 3, 50, 64
15, 98146, Note_on_c, 3, 50, 102
15, 98192, Note_off_c, 3, 50, 64
15, 98273, Note_on_c, 3, 50, 110
15, 98376, Note_off_c, 3, 50, 64
15, 98864, Note_on_c, 3, 50, 105
15, 98920, Note_off_c, 3, 50, 64
15, 98985, Note_on_c, 3, 50, 107
15, 99053, Note_off_c, 3, 50, 64
15, 99216, Note_on_c, 3, 45, 102
15, 99277, Note_off_c, 3, 45, 64
15, 99350, Note_on_c, 3, 50, 119
15, 99451, Note_off_c, 3, 50, 64
15, 103538, Note_on_c, 3, 45, 105
15, 103599, Note_off_c, 3, 45, 64
15, 103664, Note_on_c, 3, 50, 105
15, 103743, Note_off_c, 3, 50, 64
15, 103879, Note_on_c, 3, 50, 105
15, 103945, Note_off_c, 3, 50, 64
15, 104013, Note_on_c, 3, 45, 119
15, 104073, Note_off_c, 3, 45, 64
15, 104237, Note_on_c, 3, 45, 113
15, 104285, Note_off_c, 3, 45, 64
15, 104362, Note_on_c, 3, 50, 122
15, 104450, Note_off_c, 3, 50, 64
15, 104450, End_track
16, 0, Start_track
16, 0, Title_t, "Oboe"
16, 0, Program_c, 4, 68
16, 0, Control_c, 4, 7, 100
16, 18594, Note_on_c, 4, 62, 105
16, 18655, Note_off_c, 4, 62, 64
16, 18705, Note_on_c, 4, 69, 100
16, 18982, Note_off_c, 4, 69, 64
16, 19064, Note_on_c, 4, 71, 95
16, 19297, Note_off_c, 4, 71, 64
16, 19402, Note_on_c, 4, 69, 91
16, 19830, Note_off_c, 4, 69, 64
16, 19887, Note_on_c, 4, 71, 78
16, 19945, Note_off_c, 4, 71, 64
16, 20014, Note_on_c, 4, 73, 91
16, 20060, Note_off_c, 4, 73, 64
16, 20135, Note_on_c, 4, 74, 98
16, 20249, Note_on_c, 4, 73, 63
16, 20270, Note_off_c, 4, 74, 64
16, 20309, Note_off_c, 4, 73, 64
16, 20368, Note_on_c, 4, 71, 74
16, 20410, Note_off_c, 4, 71, 64
16, 20499, Note_on_c, 4, 69, 98
16, 20606, Note_on_c, 4, 71, 78
16, 20619, Note_off_c, 4, 69, 64
16, 20665, Note_off_c, 4, 71, 64
16, 20725, Note_on_c, 4, 67, 93
16, 20774, Note_off_c, 4, 67, 64
16, 20855, Note_on_c, 4, 66, 100
16, 20976, Note_on_c, 4, 64, 80
16, 20982, Note_off_c, 4, 66, 64
16, 21045, Note_off_c, 4, 64, 64
16, 21090, Note_on_c, 4, 66, 76
16, 21130, Note_off_c, 4, 66, 64
16, 21225, Note_on_c, 4, 62, 105
16, 21345, Note_on_c, 4, 66, 72
16, 21373, Note_off_c, 4, 62, 64
16, 21434, Note_off_c, 4, 66, 64
16, 21474, Note_on_c, 4, 69, 87
16, 21523, Note_off_c, 4, 69, 64
16, 21611, Note_on_c, 4, 74, 100
16, 21858, Note_off_c, 4, 74, 64
16, 21960, Note_on_c, 4, 78, 93
16, 22204, Note_off_c, 4, 78, 64
16, 22322, Note_on_c, 4, 76, 93
16, 22750, Note_off_c, 4, 76, 64
16, 22906, Note_on_c, 4, 74, 80
16, 22968, Note_off_c, 4, 74, 64
16, 23031, Note_on_c, 4, 73, 85
16, 23150, Note_on_c, 4, 71, 82
16, 23172, Note_off_c, 4, 73, 64
16, 23214, Note_off_c, 4, 71, 64
16, 23261, Note_on_c, 4, 69, 78
16, 23315, Note_off_c, 4, 69, 64
16, 23395, Note_on_c, 4, 71, 98
16, 23500, Note_on_c, 4, 73, 68
16, 23531, Note_off_c, 4, 71, 64
16, 23582, Note_off_c, 4, 73, 64
16, 23613, Note_on_c, 4, 74, 80
16, 23663, Note_off_c, 4, 74, 64
16, 23747, Note_on_c, 4, 73, 105
16, 23862, Note_on_c, 4, 71, 64
16, 23892, Note_off_c, 4, 73, 64
16, 23948, Note_off_c, 4, 71, 64
16, 23981, Note_on_c, 4, 73, 87
16, 24030, Note_off_c, 4, 73, 64
16, 24107, Note_on_c, 4, 69, 98
16, 24223, Note_on_c, 4, 73, 66
16, 24245, Note_off_c, 4, 69, 64
16, 24297, Note_off_c, 4, 73, 64
16, 24347, Note_on_c, 4, 76, 78
16, 24386, Note_off_c, 4, 76, 64
16, 24482, Note_on_c, 4, 81, 102
16, 24583, Note_on_c, 4, 79, 72
16, 24595, Note_off_c, 4, 81, 64
16, 24642, Note_off_c, 4, 79, 64
16, 24707, Note_on_c, 4, 81, 95
16, 24756, Note_off_c, 4, 81, 64
16, 24837, Note_on_c, 4, 81, 100
16, 24949, Note_on_c, 4, 79, 78
16, 24962, Note_off_c, 4, 81, 64
16, 25007, Note_off_c, 4, 79, 64
16, 25063, Note_on_c, 4, 81, 93
16, 25108, Note_off_c, 4, 81, 64
16, 25194, Note_on_c, 4, 81, 105
16, 25300, Note_on_c, 4, 79, 66
16, 25323, Note_off_c, 4, 81, 64
16, 25397, Note_off_c, 4, 79, 64
16, 25410, Note_on_c, 4, 81, 80
16, 25449, Note_off_c, 4, 81, 64
16, 25542, Note_on_c, 4, 71, 98
16, 25659, Note_on_c, 4, 75, 72
16, 25675, Note_off_c, 4, 71, 64
16, 25711, Note_off_c, 4, 75, 64
16, 25770, Note_on_c, 4, 78, 98
16, 25820, Note_off_c, 4, 78, 64
16, 25894, Note_on_c, 4, 79, 93
16, 26017, Note_on_c, 4, 78, 95
16, 26036, Note_off_c, 4, 79, 64
16, 26085, Note_off_c, 4, 78, 64
16, 26128, Note_on_c, 4, 79, 91
16, 26176, Note_off_c, 4, 79, 64
16, 26256, Note_on_c, 4, 79, 95
16, 26369, Note_on_c, 4, 78, 58
16, 26395, Note_off_c, 4, 79, 64
16, 26448, Note_off_c, 4, 78, 64
16, 26480, Note_on_c, 4, 79, 87
16, 26529, Note_off_c, 4, 79, 64
16, 26612, Note_on_c, 4, 79, 93
16, 26724, Note_on_c, 4, 78, 89
16, 26742, Note_off_c, 4, 79, 64
16, 26805, Note_off_c, 4, 78, 64
16, 26834, Note_on_c, 4, 79, 85
16, 26883, Note_off_c, 4, 79, 64
16, 26962, Note_on_c, 4, 69, 85
16, 27076, Note_on_c, 4, 73, 70
16, 27097, Note_off_c, 4, 69, 64
16, 27156, Note_off_c, 4, 73, 64
16, 27195, Note_on_c, 4, 76, 85
16, 27240, Note_off_c, 4, 76, 64
16, 27322, Note_on_c, 4, 78, 100
16, 27430, Note_on_c, 4, 80, 74
16, 27457, Note_off_c, 4, 78, 64
16, 27522, Note_off_c, 4, 80, 64
16, 27540, Note_on_c, 4, 81, 76
16, 27594, Note_off_c, 4, 81, 64
16, 27675, Note_on_c, 4, 81, 91
16, 27787, Note_on_c, 4, 80, 89
16, 27804, Note_off_c, 4, 81, 64
16, 27889, Note_off_c, 4, 80, 64
16, 27905, Note_on_c, 4, 81, 80
16, 27956, Note_off_c, 4, 81, 64
16, 28056, Note_on_c, 4, 74, 100
16, 28170, Note_on_c, 4, 76, 82
16, 28190, Note_off_c, 4, 74, 64
16, 28281, Note_off_c, 4, 76, 64
16, 28283, Note_on_c, 4, 78, 63
16, 28336, Note_off_c, 4, 78, 64
16, 28419, Note_on_c, 4, 78, 98
16, 28536, Note_on_c, 4, 76, 66
16, 28559, Note_off_c, 4, 78, 64
16, 28648, Note_off_c, 4, 76, 64
16, 28654, Note_on_c, 4, 78, 68
16, 28713, Note_off_c, 4, 78, 64
16, 28788, Note_on_c, 4, 71, 93
16, 28896, Note_on_c, 4, 73, 58
16, 28922, Note_off_c, 4, 71, 64
16, 29001, Note_off_c, 4, 73, 64
16, 29020, Note_on_c, 4, 74, 70
16, 29069, Note_off_c, 4, 74, 64
16, 29155, Note_on_c, 4, 74, 98
16, 29261, Note_on_c, 4, 73, 62
16, 29282, Note_off_c, 4, 74, 64
16, 29354, Note_off_c, 4, 73, 64
16, 29386, Note_on_c, 4, 74, 78
16, 29433, Note_off_c, 4, 74, 64
16, 29524, Note_on_c, 4, 68, 82
16, 29629, Note_on_c, 4, 69, 72
16, 29635, Note_off_c, 4, 68, 64
16, 29743, Note_off_c, 4, 69, 64
16, 29748, Note_on_c, 4, 71, 70
16, 29798, Note_off_c, 4, 71, 64
16, 29875, Note_on_c, 4, 64, 89
16, 29993, Note_on_c, 4, 68, 78
16, 30022, Note_off_c, 4, 64, 64
16, 30081, Note_off_c, 4, 68, 64
16, 30106, Note_on_c, 4, 71, 74
16, 30166, Note_off_c, 4, 71, 64
16, 30235, Note_on_c, 4, 76, 95
16, 30349, Note_on_c, 4, 74, 68
16, 30362, Note_off_c, 4, 76, 64
16, 30464, Note_on_c, 4, 73, 53
16, 30473, Note_off_c, 4, 74, 64
16, 30533, Note_off_c, 4, 73, 64
16, 30597, Note_on_c, 4, 74, 89
16, 30709, Note_on_c, 4, 73, 59
16, 30728, Note_off_c, 4, 74, 64
16, 30805, Note_off_c, 4, 73, 64
16, 30828, Note_on_c, 4, 71, 64
16, 30886, Note_off_c, 4, 71, 64
16, 30950, Note_on_c, 4, 69, 98
16, 31112, Note_off_c, 4, 69, 64
16, 31188, Note_on_c, 4, 78, 59
16, 31242, Note_off_c, 4, 78, 64
16, 31302, Note_on_c, 4, 69, 93
16, 31475, Note_off_c, 4, 69, 64
16, 31534, Note_on_c, 4, 78, 60
16, 31597, Note_off_c, 4, 78, 64
16, 31665, Note_on_c, 4, 68, 85
16, 31836, Note_off_c, 4, 68, 64
16, 31898, Note_on_c, 4, 76, 70
16, 31966, Note_off_c, 4, 76, 64
16, 32022, Note_on_c, 4, 67, 87
16, 32205, Note_off_c, 4, 67, 64
16, 32248, Note_on_c, 4, 76, 66
16, 32315, Note_off_c, 4, 76, 64
16, 32387, Note_on_c, 4, 66, 82
16, 32571, Note_off_c, 4, 66, 64
16, 32624, Note_on_c, 4, 74, 68
16, 32688, Note_off_c, 4, 74, 64
16, 32748, Note_on_c, 4, 65, 89
16, 32932, Note_off_c, 4, 65, 64
16, 32988, Note_on_c, 4, 74, 82
16, 33039, Note_off_c, 4, 74, 64
16, 33109, Note_on_c, 4, 64, 85
16, 33492, Note_off_c, 4, 64, 64
16, 33552, Note_on_c, 4, 68, 70
16, 33618, Note_off_c, 4, 68, 64
16, 33664, Note_on_c, 4, 71, 80
16, 33707, Note_off_c, 4, 71, 64
16, 33799, Note_on_c, 4, 74, 93
16, 33906, Note_on_c, 4, 80, 72
16, 33932, Note_off_c, 4, 74, 64
16, 33971, Note_off_c, 4, 80, 64
16, 34030, Note_on_c, 4, 83, 78
16, 34083, Note_off_c, 4, 83, 64
16, 34161, Note_on_c, 4, 74, 89
16, 34277, Note_on_c, 4, 73, 62
16, 34299, Note_off_c, 4, 74, 64
16, 34358, Note_off_c, 4, 73, 64
16, 34408, Note_on_c, 4, 71, 85
16, 34460, Note_off_c, 4, 71, 64
16, 34542, Note_on_c, 4, 73, 98
16, 34591, Note_on_c, 4, 74, 80
16, 34610, Note_off_c, 4, 73, 64
16, 34669, Note_off_c, 4, 74, 64
16, 34672, Note_on_c, 4, 76, 80
16, 34722, Note_off_c, 4, 76, 64
16, 34790, Note_on_c, 4, 69, 100
16, 34833, Note_off_c, 4, 69, 64
16, 34907, Note_on_c, 4, 64, 102
16, 34971, Note_off_c, 4, 64, 64
16, 35013, Note_on_c, 4, 69, 89
16, 35065, Note_off_c, 4, 69, 64
16, 35121, Note_on_c, 4, 68, 100
16, 35169, Note_off_c, 4, 68, 64
16, 35252, Note_on_c, 4, 69, 102
16, 35641, Note_off_c, 4, 69, 64
16, 70410, Note_on_c, 4, 69, 87
16, 70471, Note_off_c, 4, 69, 64
16, 70547, Note_on_c, 4, 76, 98
16, 70802, Note_off_c, 4, 76, 64
16, 70898, Note_on_c, 4, 78, 100
16, 71140, Note_off_c, 4, 78, 64
16, 71253, Note_on_c, 4, 76, 102
16, 71672, Note_off_c, 4, 76, 64
16, 71720, Note_on_c, 4, 78, 85
16, 71779, Note_off_c, 4, 78, 64
16, 71832, Note_on_c, 4, 79, 93
16, 71894, Note_off_c, 4, 79, 64
16, 71975, Note_on_c, 4, 78, 107
16, 72081, Note_on_c, 4, 76, 64
16, 72097, Note_off_c, 4, 78, 64
16, 72147, Note_off_c, 4, 76, 64
16, 72200, Note_on_c, 4, 74, 80
16, 72245, Note_off_c, 4, 74, 64
16, 72324, Note_on_c, 4, 73, 100
16, 72432, Note_on_c, 4, 74, 70
16, 72450, Note_off_c, 4, 73, 64
16, 72481, Note_off_c, 4, 74, 64
16, 72559, Note_on_c, 4, 71, 89
16, 72616, Note_off_c, 4, 71, 64
16, 72698, Note_on_c, 4, 70, 98
16, 72804, Note_on_c, 4, 71, 74
16, 72819, Note_off_c, 4, 70, 64
16, 72879, Note_off_c, 4, 71, 64
16, 72927, Note_on_c, 4, 73, 66
16, 72982, Note_off_c, 4, 73, 64
16, 73060, Note_on_c, 4, 66, 98
16, 73162, Note_on_c, 4, 70, 68
16, 73174, Note_off_c, 4, 66, 64
16, 73232, Note_off_c, 4, 70, 64
16, 73286, Note_on_c, 4, 73, 89
16, 73339, Note_off_c, 4, 73, 64
16, 73427, Note_on_c, 4, 78, 110
16, 73722, Note_off_c, 4, 78, 64
16, 73798, Note_on_c, 4, 79, 95
16, 74061, Note_off_c, 4, 79, 64
16, 74152, Note_on_c, 4, 79, 100
16, 74252, Note_off_c, 4, 79, 64
16, 74263, Note_on_c, 4, 78, 110
16, 74583, Note_off_c, 4, 78, 64
16, 74624, Note_on_c, 4, 76, 85
16, 74697, Note_off_c, 4, 76, 64
16, 74740, Note_on_c, 4, 74, 95
16, 74803, Note_off_c, 4, 74, 64
16, 74870, Note_on_c, 4, 73, 98
16, 74984, Note_on_c, 4, 74, 68
16, 74995, Note_off_c, 4, 73, 64
16, 75033, Note_off_c, 4, 74, 64
16, 75101, Note_on_c, 4, 71, 89
16, 75153, Note_off_c, 4, 71, 64
16, 75234, Note_on_c, 4, 66, 89
16, 75340, Note_off_c, 4, 66, 64
16, 75346, Note_on_c, 4, 71, 74
16, 75418, Note_off_c, 4, 71, 64
16, 75464, Note_on_c, 4, 70, 95
16, 75528, Note_off_c, 4, 70, 64
16, 75596, Note_on_c, 4, 71, 93
16, 76012, Note_off_c, 4, 71, 64
16, 76090, Note_on_c, 4, 74, 85
16, 76151, Note_off_c, 4, 74, 64
16, 76199, Note_on_c, 4, 73, 82
16, 76259, Note_off_c, 4, 73, 64
16, 76332, Note_on_c, 4, 74, 102
16, 76441, Note_on_c, 4, 73, 76
16, 76459, Note_off_c, 4, 74, 64
16, 76506, Note_off_c, 4, 73, 64
16, 76563, Note_on_c, 4, 74, 91
16, 76621, Note_off_c, 4, 74, 64
16, 76689, Note_on_c, 4, 74, 98
16, 76795, Note_on_c, 4, 73, 66
16, 76815, Note_off_c, 4, 74, 64
16, 76867, Note_off_c, 4, 73, 64
16, 76920, Note_on_c, 4, 74, 87
16, 76976, Note_off_c, 4, 74, 64
16, 77037, Note_on_c, 4, 74, 95
16, 77146, Note_on_c, 4, 73, 62
16, 77168, Note_off_c, 4, 74, 64
16, 77241, Note_off_c, 4, 73, 64
16, 77257, Note_on_c, 4, 74, 89
16, 77300, Note_off_c, 4, 74, 64
16, 77390, Note_on_c, 4, 64, 102
16, 77489, Note_on_c, 4, 68, 63
16, 77522, Note_off_c, 4, 64, 64
16, 77565, Note_off_c, 4, 68, 64
16, 77610, Note_on_c, 4, 71, 82
16, 77666, Note_off_c, 4, 71, 64
16, 77741, Note_on_c, 4, 76, 100
16, 77862, Note_on_c, 4, 74, 76
16, 77875, Note_off_c, 4, 76, 64
16, 77920, Note_off_c, 4, 74, 64
16, 77978, Note_on_c, 4, 73, 89
16, 78034, Note_off_c, 4, 73, 64
16, 78097, Note_on_c, 4, 71, 105
16, 78213, Note_on_c, 4, 73, 64
16, 78234, Note_off_c, 4, 71, 64
16, 78292, Note_off_c, 4, 73, 64
16, 78319, Note_on_c, 4, 74, 82
16, 78375, Note_off_c, 4, 74, 64
16, 78443, Note_on_c, 4, 73, 105
16, 78554, Note_on_c, 4, 71, 82
16, 78582, Note_off_c, 4, 73, 64
16, 78647, Note_off_c, 4, 71, 64
16, 78668, Note_on_c, 4, 73, 82
16, 78715, Note_off_c, 4, 73, 64
16, 78797, Note_on_c, 4, 69, 98
16, 78895, Note_on_c, 4, 73, 63
16, 78932, Note_off_c, 4, 69, 64
16, 78985, Note_off_c, 4, 73, 64
16, 79016, Note_on_c, 4, 76, 89
16, 79077, Note_off_c, 4, 76, 64
16, 79152, Note_on_c, 4, 79, 100
16, 79254, Note_on_c, 4, 78, 72
16, 79283, Note_off_c, 4, 79, 64
16, 79334, Note_off_c, 4, 78, 64
16, 79385, Note_on_c, 4, 79, 87
16, 79432, Note_off_c, 4, 79, 64
16, 79524, Note_on_c, 4, 79, 102
16, 79624, Note_on_c, 4, 78, 78
16, 79647, Note_off_c, 4, 79, 64
16, 79695, Note_off_c, 4, 78, 64
16, 79751, Note_on_c, 4, 79, 91
16, 79813, Note_off_c, 4, 79, 64
16, 79887, Note_on_c, 4, 79, 102
16, 79981, Note_on_c, 4, 78, 70
16, 80010, Note_off_c, 4, 79, 64
16, 80081, Note_off_c, 4, 78, 64
16, 80102, Note_on_c, 4, 79, 74
16, 80152, Note_off_c, 4, 79, 64
16, 80236, Note_on_c, 4, 69, 98
16, 80349, Note_on_c, 4, 73, 63
16, 80366, Note_off_c, 4, 69, 64
16, 80437, Note_off_c, 4, 73, 64
16, 80468, Note_on_c, 4, 76, 80
16, 80535, Note_off_c, 4, 76, 64
16, 80607, Note_on_c, 4, 81, 102
16, 80723, Note_on_c, 4, 79, 78
16, 80743, Note_off_c, 4, 81, 64
16, 80793, Note_off_c, 4, 79, 64
16, 80854, Note_on_c, 4, 78, 89
16, 80919, Note_off_c, 4, 78, 64
16, 80987, Note_on_c, 4, 76, 100
16, 81098, Note_on_c, 4, 78, 74
16, 81119, Note_off_c, 4, 76, 64
16, 81177, Note_off_c, 4, 78, 64
16, 81210, Note_on_c, 4, 79, 82
16, 81270, Note_off_c, 4, 79, 64
16, 81343, Note_on_c, 4, 78, 105
16, 81452, Note_on_c, 4, 76, 63
16, 81475, Note_off_c, 4, 78, 64
16, 81560, Note_off_c, 4, 76, 64
16, 81573, Note_on_c, 4, 78, 85
16, 81629, Note_off_c, 4, 78, 64
16, 81709, Note_on_c, 4, 74, 100
16, 81813, Note_on_c, 4, 78, 64
16, 81846, Note_off_c, 4, 74, 64
16, 81897, Note_off_c, 4, 78, 64
16, 81942, Note_on_c, 4, 76, 87
16, 82002, Note_off_c, 4, 76, 64
16, 82080, Note_on_c, 4, 78, 93
16, 82191, Note_on_c, 4, 80, 68
16, 82215, Note_off_c, 4, 78, 64
16, 82270, Note_off_c, 4, 80, 64
16, 82309, Note_on_c, 4, 81, 82
16, 82369, Note_off_c, 4, 81, 64
16, 82447, Note_on_c, 4, 80, 102
16, 82563, Note_on_c, 4, 81, 74
16, 82570, Note_off_c, 4, 80, 64
16, 82643, Note_off_c, 4, 81, 64
16, 82672, Note_on_c, 4, 83, 89
16, 82740, Note_off_c, 4, 83, 64
16, 82805, Note_on_c, 4, 73, 82
16, 83221, Note_off_c, 4, 73, 64
16, 83269, Note_on_c, 4, 80, 82
16, 83337, Note_off_c, 4, 80, 64
16, 83389, Note_on_c, 4, 83, 87
16, 83449, Note_off_c, 4, 83, 64
16, 83524, Note_on_c, 4, 81, 102
16, 83626, Note_on_c, 4, 80, 64
16, 83654, Note_off_c, 4, 81, 64
16, 83696, Note_off_c, 4, 80, 64
16, 83747, Note_on_c, 4, 78, 80
16, 83827, Note_off_c, 4, 78, 64
16, 83878, Note_on_c, 4, 76, 98
16, 83984, Note_on_c, 4, 74, 82
16, 84011, Note_off_c, 4, 76, 64
16, 84042, Note_off_c, 4, 74, 64
16, 84113, Note_on_c, 4, 73, 85
16, 84176, Note_off_c, 4, 73, 64
16, 84244, Note_on_c, 4, 71, 98
16, 84648, Note_off_c, 4, 71, 64
16, 84698, Note_on_c, 4, 78, 70
16, 84765, Note_off_c, 4, 78, 64
16, 84822, Note_on_c, 4, 81, 91
16, 84887, Note_off_c, 4, 81, 64
16, 84959, Note_on_c, 4, 80, 105
16, 85057, Note_on_c, 4, 78, 63
16, 85090, Note_off_c, 4, 80, 64
16, 85163, Note_off_c, 4, 78, 64
16, 85175, Note_on_c, 4, 77, 82
16, 85251, Note_off_c, 4, 77, 64
16, 85304, Note_on_c, 4, 78, 87
16, 85416, Note_on_c, 4, 76, 68
16, 85435, Note_off_c, 4, 78, 64
16, 85508, Note_off_c, 4, 76, 64
16, 85534, Note_on_c, 4, 74, 80
16, 85605, Note_off_c, 4, 74, 64
16, 85663, Note_on_c, 4, 73, 89
16, 85771, Note_on_c, 4, 78, 63
16, 85801, Note_off_c, 4, 73, 64
16, 85859, Note_off_c, 4, 78, 64
16, 85897, Note_on_c, 4, 76, 85
16, 85960, Note_off_c, 4, 76, 64
16, 86031, Note_on_c, 4, 74, 93
16, 86135, Note_off_c, 4, 74, 64
16, 86135, Note_on_c, 4, 73, 64
16, 86226, Note_off_c, 4, 73, 64
16, 86259, Note_on_c, 4, 71, 78
16, 86309, Note_off_c, 4, 71, 64
16, 86380, Note_on_c, 4, 69, 87
16, 86491, Note_on_c, 4, 68, 66
16, 86499, Note_off_c, 4, 69, 64
16, 86599, Note_off_c, 4, 68, 64
16, 86612, Note_on_c, 4, 66, 85
16, 86677, Note_off_c, 4, 66, 64
16, 86745, Note_on_c, 4, 71, 87
16, 86859, Note_on_c, 4, 69, 80
16, 86895, Note_off_c, 4, 71, 64
16, 86945, Note_off_c, 4, 69, 64
16, 86981, Note_on_c, 4, 68, 87
16, 87041, Note_off_c, 4, 68, 64
16, 87109, Note_on_c, 4, 66, 98
16, 87546, Note_off_c, 4, 66, 64
16, 87700, Note_on_c, 4, 62, 89
16, 87761, Note_off_c, 4, 62, 64
16, 87834, Note_on_c, 4, 69, 102
16, 88098, Note_off_c, 4, 69, 64
16, 88189, Note_on_c, 4, 71, 89
16, 88425, Note_off_c, 4, 71, 64
16, 88560, Note_on_c, 4, 72, 100
16, 88972, Note_off_c, 4, 72, 64
16, 89020, Note_on_c, 4, 71, 82
16, 89086, Note_off_c, 4, 71, 64
16, 89133, Note_on_c, 4, 69, 87
16, 89189, Note_off_c, 4, 69, 64
16, 89272, Note_on_c, 4, 71, 105
16, 89364, Note_on_c, 4, 74, 80
16, 89394, Note_off_c, 4, 71, 64
16, 89465, Note_off_c, 4, 74, 64
16, 89494, Note_on_c, 4, 79, 87
16, 89550, Note_off_c, 4, 79, 64
16, 89619, Note_on_c, 4, 69, 91
16, 89729, Note_on_c, 4, 79, 82
16, 89738, Note_off_c, 4, 69, 64
16, 89823, Note_off_c, 4, 79, 64
16, 89850, Note_on_c, 4, 78, 76
16, 89903, Note_off_c, 4, 78, 64
16, 89979, Note_on_c, 4, 79, 102
16, 90086, Note_off_c, 4, 79, 64
16, 90088, Note_on_c, 4, 83, 82
16, 90151, Note_off_c, 4, 83, 64
16, 90214, Note_on_c, 4, 81, 102
16, 90272, Note_off_c, 4, 81, 64
16, 90351, Note_on_c, 4, 81, 105
16, 90421, Note_on_c, 4, 83, 80
16, 90441, Note_off_c, 4, 81, 64
16, 90792, Note_off_c, 4, 83, 64
16, 90846, Note_on_c, 4, 81, 87
16, 90916, Note_off_c, 4, 81, 64
16, 90959, Note_on_c, 4, 79, 91
16, 91014, Note_off_c, 4, 79, 64
16, 91085, Note_on_c, 4, 78, 100
16, 91196, Note_on_c, 4, 79, 78
16, 91224, Note_off_c, 4, 78, 64
16, 91260, Note_off_c, 4, 79, 64
16, 91314, Note_on_c, 4, 76, 87
16, 91380, Note_off_c, 4, 76, 64
16, 91441, Note_on_c, 4, 78, 102
16, 91564, Note_on_c, 4, 81, 82
16, 91590, Note_off_c, 4, 78, 64
16, 91632, Note_off_c, 4, 81, 64
16, 91693, Note_on_c, 4, 79, 95
16, 91751, Note_off_c, 4, 79, 64
16, 91820, Note_on_c, 4, 79, 102
16, 91900, Note_on_c, 4, 81, 89
16, 91913, Note_off_c, 4, 79, 64
16, 92242, Note_off_c, 4, 81, 64
16, 92292, Note_on_c, 4, 79, 87
16, 92358, Note_off_c, 4, 79, 64
16, 92411, Note_on_c, 4, 78, 89
16, 92474, Note_off_c, 4, 78, 64
16, 92538, Note_on_c, 4, 76, 100
16, 92649, Note_on_c, 4, 78, 80
16, 92676, Note_off_c, 4, 76, 64
16, 92714, Note_off_c, 4, 78, 64
16, 92764, Note_on_c, 4, 75, 80
16, 92824, Note_off_c, 4, 75, 64
16, 92885, Note_on_c, 4, 76, 98
16, 92988, Note_off_c, 4, 76, 64
16, 93008, Note_on_c, 4, 79, 78
16, 93069, Note_off_c, 4, 79, 64
16, 93119, Note_on_c, 4, 78, 87
16, 93178, Note_off_c, 4, 78, 64
16, 93246, Note_on_c, 4, 78, 95
16, 93317, Note_on_c, 4, 79, 87
16, 93335, Note_off_c, 4, 78, 64
16, 93677, Note_off_c, 4, 79, 64
16, 93728, Note_on_c, 4, 78, 80
16, 93786, Note_off_c, 4, 78, 64
16, 93839, Note_on_c, 4, 76, 85
16, 93902, Note_off_c, 4, 76, 64
16, 93965, Note_on_c, 4, 74, 93
16, 94069, Note_on_c, 4, 76, 63
16, 94096, Note_off_c, 4, 74, 64
16, 94132, Note_off_c, 4, 76, 64
16, 94203, Note_on_c, 4, 73, 59
16, 94258, Note_off_c, 4, 73, 64
16, 94324, Note_on_c, 4, 74, 93
16, 94440, Note_on_c, 4, 78, 64
16, 94457, Note_off_c, 4, 74, 64
16, 94518, Note_off_c, 4, 78, 64
16, 94558, Note_on_c, 4, 76, 85
16, 94620, Note_off_c, 4, 76, 64
16, 94687, Note_on_c, 4, 78, 91
16, 94791, Note_on_c, 4, 79, 80
16, 94809, Note_off_c, 4, 78, 64
16, 94866, Note_off_c, 4, 79, 64
16, 94910, Note_on_c, 4, 81, 72
16, 94954, Note_off_c, 4, 81, 64
16, 95027, Note_on_c, 4, 71, 89
16, 95142, Note_on_c, 4, 73, 62
16, 95162, Note_off_c, 4, 71, 64
16, 95223, Note_off_c, 4, 73, 64
16, 95258, Note_on_c, 4, 74, 78
16, 95323, Note_off_c, 4, 74, 64
16, 95397, Note_on_c, 4, 76, 100
16, 95503, Note_on_c, 4, 78, 68
16, 95515, Note_off_c, 4, 76, 64
16, 95581, Note_off_c, 4, 78, 64
16, 95617, Note_on_c, 4, 74, 85
16, 95679, Note_off_c, 4, 74, 64
16, 95750, Note_on_c, 4, 73, 98
16, 95848, Note_on_c, 4, 74, 80
16, 95864, Note_off_c, 4, 73, 64
16, 95922, Note_off_c, 4, 74, 64
16, 95970, Note_on_c, 4, 76, 76
16, 96018, Note_off_c, 4, 76, 64
16, 96103, Note_on_c, 4, 78, 105
16, 96217, Note_on_c, 4, 79, 68
16, 96238, Note_off_c, 4, 78, 64
16, 96281, Note_off_c, 4, 79, 64
16, 96336, Note_on_c, 4, 76, 76
16, 96388, Note_off_c, 4, 76, 64
16, 96465, Note_on_c, 4, 74, 98
16, 96575, Note_on_c, 4, 76, 66
16, 96598, Note_off_c, 4, 74, 64
16, 96641, Note_off_c, 4, 76, 64
16, 96697, Note_on_c, 4, 78, 76
16, 96760, Note_off_c, 4, 78, 64
16, 96836, Note_on_c, 4, 79, 102
16, 96947, Note_on_c, 4, 81, 70
16, 96955, Note_off_c, 4, 79, 64
16, 97016, Note_off_c, 4, 81, 64
16, 97063, Note_on_c, 4, 78, 85
16, 97118, Note_off_c, 4, 78, 64
16, 97186, Note_on_c, 4, 76, 91
16, 97287, Note_on_c, 4, 78, 62
16, 97310, Note_off_c, 4, 76, 64
16, 97370, Note_off_c, 4, 78, 64
16, 97417, Note_on_c, 4, 79, 85
16, 97470, Note_off_c, 4, 79, 64
16, 97549, Note_on_c, 4, 81, 98
16, 97656, Note_on_c, 4, 83, 82
16, 97669, Note_off_c, 4, 81, 64
16, 97730, Note_off_c, 4, 83, 64
16, 97775, Note_on_c, 4, 79, 82
16, 97830, Note_off_c, 4, 79, 64
16, 97906, Note_on_c, 4, 79, 102
16, 98017, Note_on_c, 4, 78, 85
16, 98032, Note_off_c, 4, 79, 64
16, 98307, Note_off_c, 4, 78, 64
16, 98356, Note_on_c, 4, 76, 85
16, 98434, Note_off_c, 4, 76, 64
16, 98469, Note_on_c, 4, 74, 91
16, 98544, Note_off_c, 4, 74, 64
16, 98597, Note_on_c, 4, 76, 87
16, 98704, Note_off_c, 4, 76, 64
16, 98704, Note_on_c, 4, 73, 66
16, 98779, Note_off_c, 4, 73, 64
16, 98834, Note_on_c, 4, 74, 85
16, 98893, Note_off_c, 4, 74, 64
16, 98958, Note_on_c, 4, 69, 98
16, 99059, Note_off_c, 4, 69, 64
16, 99067, Note_on_c, 4, 74, 74
16, 99146, Note_off_c, 4, 74, 64
16, 99196, Note_on_c, 4, 73, 78
16, 99261, Note_off_c, 4, 73, 64
16, 99325, Note_on_c, 4, 62, 98
16, 99448, Note_off_c, 4, 62, 64
16, 99553, Note_on_c, 4, 74, 82
16, 99625, Note_off_c, 4, 74, 64
16, 99688, Note_on_c, 4, 81, 95
16, 100126, Note_off_c, 4, 81, 64
16, 100185, Note_on_c, 4, 83, 74
16, 100261, Note_off_c, 4, 83, 64
16, 100325, Note_on_c, 4, 81, 85
16, 100382, Note_off_c, 4, 81, 64
16, 100460, Note_on_c, 4, 80, 102
16, 100559, Note_on_c, 4, 76, 64
16, 100572, Note_off_c, 4, 80, 64
16, 100633, Note_off_c, 4, 76, 64
16, 100678, Note_on_c, 4, 78, 64
16, 100736, Note_off_c, 4, 78, 64
16, 100806, Note_on_c, 4, 79, 93
16, 100917, Note_on_c, 4, 81, 64
16, 100930, Note_off_c, 4, 79, 64
16, 100973, Note_off_c, 4, 81, 64
16, 101042, Note_on_c, 4, 79, 80
16, 101090, Note_off_c, 4, 79, 64
16, 101165, Note_on_c, 4, 78, 93
16, 101274, Note_on_c, 4, 74, 80
16, 101286, Note_off_c, 4, 78, 64
16, 101344, Note_off_c, 4, 74, 64
16, 101389, Note_on_c, 4, 76, 78
16, 101435, Note_off_c, 4, 76, 64
16, 101520, Note_on_c, 4, 77, 100
16, 101622, Note_on_c, 4, 79, 72
16, 101650, Note_off_c, 4, 77, 64
16, 101698, Note_off_c, 4, 79, 64
16, 101755, Note_on_c, 4, 77, 80
16, 101804, Note_off_c, 4, 77, 64
16, 101882, Note_on_c, 4, 76, 82
16, 101983, Note_on_c, 4, 73, 68
16, 101993, Note_off_c, 4, 76, 64
16, 102051, Note_off_c, 4, 73, 64
16, 102107, Note_on_c, 4, 74, 87
16, 102159, Note_off_c, 4, 74, 64
16, 102231, Note_on_c, 4, 73, 100
16, 102336, Note_on_c, 4, 74, 82
16, 102347, Note_off_c, 4, 73, 64
16, 102425, Note_off_c, 4, 74, 64
16, 102452, Note_on_c, 4, 76, 85
16, 102515, Note_off_c, 4, 76, 64
16, 102581, Note_on_c, 4, 69, 93
16, 102972, Note_off_c, 4, 69, 64
16, 103160, Note_on_c, 4, 81, 85
16, 103235, Note_off_c, 4, 81, 64
16, 103292, Note_on_c, 4, 83, 91
16, 103401, Note_off_c, 4, 83, 64
16, 103531, Note_on_c, 4, 85, 102
16, 103593, Note_off_c, 4, 85, 64
16, 103652, Note_on_c, 4, 85, 102
16, 103715, Note_on_c, 4, 86, 102
16, 103743, Note_off_c, 4, 85, 64
16, 103823, Note_off_c, 4, 86, 64
16, 103899, Note_on_c, 4, 81, 85
16, 103950, Note_off_c, 4, 81, 64
16, 104018, Note_on_c, 4, 79, 89
16, 104068, Note_on_c, 4, 78, 85
16, 104094, Note_off_c, 4, 79, 64
16, 104152, Note_off_c, 4, 78, 64
16, 104152, Note_on_c, 4, 76, 82
16, 104217, Note_off_c, 4, 76, 64
16, 104277, Note_on_c, 4, 74, 91
16, 104343, Note_off_c, 4, 74, 64
16, 104393, Note_on_c, 4, 76, 91
16, 104477, Note_on_c, 4, 74, 74
16, 104485, Note_off_c, 4, 76, 64
16, 104523, Note_on_c, 4, 76, 80
16, 104525, Note_off_c, 4, 74, 64
16, 104573, Note_off_c, 4, 76, 64
16, 104576, Note_on_c, 4, 74, 64
16, 104608, Note_on_c, 4, 76, 80
16, 104609, Note_off_c, 4, 74, 64
16, 104646, Note_on_c, 4, 74, 68
16, 104648, Note_off_c, 4, 76, 64
16, 104684, Note_on_c, 4, 76, 98
16, 104690, Note_off_c, 4, 74, 64
16, 104724, Note_on_c, 4, 74, 80
16, 104737, Note_off_c, 4, 76, 64
16, 104975, Note_off_c, 4, 74, 64
16, 104975, End_track
17, 0, Start_track
17, 0, Title_t, "Oboe"
17, 0, Program_c, 5, 68
17, 0, Control_c, 5, 7, 100
17, 18581, Note_on_c, 5, 62, 87
17, 18640, Note_off_c, 5, 62, 64
17, 18708, Note_on_c, 5, 69, 98
17, 18966, Note_off_c, 5, 69, 64
17, 19064, Note_on_c, 5, 71, 87
17, 19304, Note_off_c, 5, 71, 64
17, 19409, Note_on_c, 5, 69, 87
17, 19836, Note_off_c, 5, 69, 64
17, 19884, Note_on_c, 5, 71, 78
17, 19942, Note_off_c, 5, 71, 64
17, 20005, Note_on_c, 5, 73, 80
17, 20057, Note_off_c, 5, 73, 64
17, 20135, Note_on_c, 5, 74, 95
17, 20243, Note_on_c, 5, 73, 68
17, 20250, Note_off_c, 5, 74, 64
17, 20329, Note_off_c, 5, 73, 64
17, 20363, Note_on_c, 5, 71, 66
17, 20403, Note_off_c, 5, 71, 64
17, 20496, Note_on_c, 5, 69, 98
17, 20601, Note_on_c, 5, 71, 78
17, 20619, Note_off_c, 5, 69, 64
17, 20681, Note_off_c, 5, 71, 64
17, 20725, Note_on_c, 5, 67, 72
17, 20772, Note_off_c, 5, 67, 64
17, 20864, Note_on_c, 5, 66, 102
17, 20980, Note_on_c, 5, 64, 66
17, 20996, Note_off_c, 5, 66, 64
17, 21068, Note_off_c, 5, 64, 64
17, 21092, Note_on_c, 5, 66, 68
17, 21136, Note_off_c, 5, 66, 64
17, 21229, Note_on_c, 5, 62, 100
17, 21345, Note_on_c, 5, 66, 68
17, 21381, Note_off_c, 5, 62, 64
17, 21424, Note_off_c, 5, 66, 64
17, 21470, Note_on_c, 5, 69, 78
17, 21519, Note_off_c, 5, 69, 64
17, 21611, Note_on_c, 5, 74, 89
17, 21850, Note_off_c, 5, 74, 64
17, 21964, Note_on_c, 5, 78, 91
17, 22207, Note_off_c, 5, 78, 64
17, 22320, Note_on_c, 5, 76, 85
17, 22805, Note_off_c, 5, 76, 64
17, 22906, Note_on_c, 5, 74, 78
17, 22960, Note_off_c, 5, 74, 64
17, 23038, Note_on_c, 5, 73, 85
17, 23150, Note_on_c, 5, 71, 70
17, 23169, Note_off_c, 5, 73, 64
17, 23215, Note_off_c, 5, 71, 64
17, 23267, Note_on_c, 5, 69, 68
17, 23323, Note_off_c, 5, 69, 64
17, 23398, Note_on_c, 5, 71, 87
17, 23509, Note_on_c, 5, 73, 59
17, 23528, Note_off_c, 5, 71, 64
17, 23582, Note_off_c, 5, 73, 64
17, 23621, Note_on_c, 5, 74, 74
17, 23666, Note_off_c, 5, 74, 64
17, 23760, Note_on_c, 5, 73, 95
17, 23876, Note_on_c, 5, 71, 56
17, 23898, Note_off_c, 5, 73, 64
17, 23949, Note_off_c, 5, 71, 64
17, 23996, Note_on_c, 5, 73, 57
17, 24040, Note_off_c, 5, 73, 64
17, 24124, Note_on_c, 5, 69, 87
17, 24235, Note_on_c, 5, 73, 62
17, 24259, Note_off_c, 5, 69, 64
17, 24308, Note_off_c, 5, 73, 64
17, 24356, Note_on_c, 5, 76, 78
17, 24393, Note_off_c, 5, 76, 64
17, 24484, Note_on_c, 5, 81, 95
17, 24593, Note_on_c, 5, 79, 57
17, 24605, Note_off_c, 5, 81, 64
17, 24655, Note_off_c, 5, 79, 64
17, 24706, Note_on_c, 5, 81, 82
17, 24749, Note_off_c, 5, 81, 64
17, 24835, Note_on_c, 5, 81, 98
17, 24949, Note_on_c, 5, 79, 66
17, 24965, Note_off_c, 5, 81, 64
17, 25008, Note_off_c, 5, 79, 64
17, 25064, Note_on_c, 5, 81, 87
17, 25115, Note_off_c, 5, 81, 64
17, 25194, Note_on_c, 5, 81, 100
17, 25292, Note_on_c, 5, 79, 59
17, 25318, Note_off_c, 5, 81, 64
17, 25386, Note_off_c, 5, 79, 64
17, 25407, Note_on_c, 5, 81, 82
17, 25447, Note_off_c, 5, 81, 64
17, 25538, Note_on_c, 5, 71, 87
17, 25652, Note_on_c, 5, 75, 66
17, 25672, Note_off_c, 5, 71, 64
17, 25714, Note_off_c, 5, 75, 64
17, 25767, Note_on_c, 5, 78, 87
17, 25814, Note_off_c, 5, 78, 64
17, 25895, Note_on_c, 5, 79, 93
17, 26010, Note_on_c, 5, 78, 66
17, 26030, Note_off_c, 5, 79, 64
17, 26072, Note_off_c, 5, 78, 64
17, 26133, Note_on_c, 5, 79, 85
17, 26176, Note_off_c, 5, 79, 64
17, 26261, Note_on_c, 5, 79, 100
17, 26373, Note_on_c, 5, 78, 62
17, 26396, Note_off_c, 5, 79, 64
17, 26434, Note_off_c, 5, 78, 64
17, 26483, Note_on_c, 5, 79, 85
17, 26523, Note_off_c, 5, 79, 64
17, 26611, Note_on_c, 5, 79, 91
17, 26724, Note_on_c, 5, 78, 93
17, 26742, Note_off_c, 5, 79, 64
17, 26798, Note_off_c, 5, 78, 64
17, 26831, Note_on_c, 5, 79, 82
17, 26880, Note_off_c, 5, 79, 64
17, 26966, Note_on_c, 5, 69, 85
17, 27069, Note_on_c, 5, 73, 61
17, 27105, Note_off_c, 5, 69, 64
17, 27147, Note_off_c, 5, 73, 64
17, 27193, Note_on_c, 5, 76, 76
17, 27236, Note_off_c, 5, 76, 64
17, 27331, Note_on_c, 5, 78, 100
17, 27434, Note_on_c, 5, 80, 68
17, 27459, Note_off_c, 5, 78, 64
17, 27545, Note_off_c, 5, 80, 64
17, 27555, Note_on_c, 5, 81, 74
17, 27603, Note_off_c, 5, 81, 64
17, 27691, Note_on_c, 5, 81, 89
17, 27803, Note_on_c, 5, 80, 82
17, 27816, Note_off_c, 5, 81, 64
17, 27879, Note_off_c, 5, 80, 64
17, 27928, Note_on_c, 5, 81, 80
17, 27977, Note_off_c, 5, 81, 64
17, 28064, Note_on_c, 5, 74, 102
17, 28175, Note_on_c, 5, 76, 70
17, 28192, Note_off_c, 5, 74, 64
17, 28260, Note_off_c, 5, 76, 64
17, 28288, Note_on_c, 5, 78, 66
17, 28334, Note_off_c, 5, 78, 64
17, 28428, Note_on_c, 5, 78, 91
17, 28539, Note_on_c, 5, 76, 61
17, 28556, Note_off_c, 5, 78, 64
17, 28612, Note_off_c, 5, 76, 64
17, 28667, Note_on_c, 5, 78, 66
17, 28720, Note_off_c, 5, 78, 64
17, 28800, Note_on_c, 5, 71, 85
17, 28909, Note_on_c, 5, 73, 57
17, 28935, Note_off_c, 5, 71, 64
17, 29016, Note_off_c, 5, 73, 64
17, 29030, Note_on_c, 5, 74, 63
17, 29077, Note_off_c, 5, 74, 64
17, 29162, Note_on_c, 5, 74, 85
17, 29272, Note_on_c, 5, 73, 66
17, 29276, Note_off_c, 5, 74, 64
17, 29355, Note_off_c, 5, 73, 64
17, 29390, Note_on_c, 5, 74, 82
17, 29448, Note_off_c, 5, 74, 64
17, 29518, Note_on_c, 5, 68, 87
17, 29630, Note_on_c, 5, 69, 63
17, 29655, Note_off_c, 5, 68, 64
17, 29708, Note_off_c, 5, 69, 64
17, 29754, Note_on_c, 5, 71, 64
17, 29793, Note_off_c, 5, 71, 64
17, 29888, Note_on_c, 5, 64, 89
17, 29992, Note_on_c, 5, 68, 64
17, 30032, Note_off_c, 5, 64, 64
17, 30077, Note_off_c, 5, 68, 64
17, 30113, Note_on_c, 5, 71, 72
17, 30155, Note_off_c, 5, 71, 64
17, 30250, Note_on_c, 5, 76, 95
17, 30350, Note_on_c, 5, 74, 68
17, 30357, Note_off_c, 5, 76, 64
17, 30445, Note_off_c, 5, 74, 64
17, 30466, Note_on_c, 5, 73, 57
17, 30516, Note_off_c, 5, 73, 64
17, 30602, Note_on_c, 5, 74, 87
17, 30716, Note_on_c, 5, 73, 59
17, 30732, Note_off_c, 5, 74, 64
17, 30797, Note_off_c, 5, 73, 64
17, 30831, Note_on_c, 5, 71, 64
17, 30884, Note_off_c, 5, 71, 64
17, 30960, Note_on_c, 5, 69, 95
17, 31145, Note_off_c, 5, 69, 64
17, 31186, Note_on_c, 5, 78, 63
17, 31230, Note_off_c, 5, 78, 64
17, 31308, Note_on_c, 5, 69, 82
17, 31492, Note_off_c, 5, 69, 64
17, 31538, Note_on_c, 5, 78, 59
17, 31592, Note_off_c, 5, 78, 64
17, 31662, Note_on_c, 5, 68, 74
17, 31845, Note_off_c, 5, 68, 64
17, 31901, Note_on_c, 5, 76, 72
17, 31952, Note_off_c, 5, 76, 64
17, 32021, Note_on_c, 5, 67, 85
17, 32222, Note_off_c, 5, 67, 64
17, 32255, Note_on_c, 5, 76, 64
17, 32302, Note_off_c, 5, 76, 64
17, 32391, Note_on_c, 5, 66, 74
17, 32581, Note_off_c, 5, 66, 64
17, 32613, Note_on_c, 5, 74, 76
17, 32675, Note_off_c, 5, 74, 64
17, 32745, Note_on_c, 5, 65, 78
17, 32932, Note_off_c, 5, 65, 64
17, 32975, Note_on_c, 5, 74, 70
17, 33017, Note_off_c, 5, 74, 64
17, 33104, Note_on_c, 5, 64, 72
17, 33465, Note_off_c, 5, 64, 64
17, 33556, Note_on_c, 5, 68, 62
17, 33626, Note_off_c, 5, 68, 64
17, 33671, Note_on_c, 5, 71, 76
17, 33710, Note_off_c, 5, 71, 64
17, 33796, Note_on_c, 5, 74, 91
17, 33904, Note_on_c, 5, 80, 68
17, 33932, Note_off_c, 5, 74, 64
17, 33956, Note_off_c, 5, 80, 64
17, 34034, Note_on_c, 5, 83, 80
17, 34077, Note_off_c, 5, 83, 64
17, 34161, Note_on_c, 5, 74, 91
17, 34269, Note_on_c, 5, 73, 62
17, 34289, Note_off_c, 5, 74, 64
17, 34351, Note_off_c, 5, 73, 64
17, 34398, Note_on_c, 5, 71, 66
17, 34453, Note_off_c, 5, 71, 64
17, 34530, Note_on_c, 5, 73, 85
17, 34584, Note_on_c, 5, 74, 85
17, 34600, Note_off_c, 5, 73, 64
17, 34652, Note_off_c, 5, 74, 64
17, 34662, Note_on_c, 5, 76, 68
17, 34705, Note_off_c, 5, 76, 64
17, 34779, Note_on_c, 5, 69, 100
17, 34823, Note_off_c, 5, 69, 64
17, 34899, Note_on_c, 5, 64, 95
17, 34964, Note_off_c, 5, 64, 64
17, 35004, Note_on_c, 5, 69, 80
17, 35059, Note_off_c, 5, 69, 64
17, 35129, Note_on_c, 5, 68, 95
17, 35177, Note_off_c, 5, 68, 64
17, 35264, Note_on_c, 5, 69, 93
17, 35622, Note_off_c, 5, 69, 64
17, 70435, Note_on_c, 5, 69, 85
17, 70492, Note_off_c, 5, 69, 64
17, 70551, Note_on_c, 5, 76, 98
17, 70785, Note_off_c, 5, 76, 64
17, 70888, Note_on_c, 5, 78, 100
17, 71130, Note_off_c, 5, 78, 64
17, 71238, Note_on_c, 5, 76, 98
17, 71660, Note_off_c, 5, 76, 64
17, 71725, Note_on_c, 5, 78, 89
17, 71784, Note_off_c, 5, 78, 64
17, 71836, Note_on_c, 5, 79, 89
17, 71892, Note_off_c, 5, 79, 64
17, 71971, Note_on_c, 5, 78, 105
17, 72069, Note_on_c, 5, 76, 66
17, 72086, Note_off_c, 5, 78, 64
17, 72137, Note_off_c, 5, 76, 64
17, 72193, Note_on_c, 5, 74, 80
17, 72236, Note_off_c, 5, 74, 64
17, 72313, Note_on_c, 5, 73, 93
17, 72427, Note_on_c, 5, 74, 68
17, 72432, Note_off_c, 5, 73, 64
17, 72490, Note_off_c, 5, 74, 64
17, 72548, Note_on_c, 5, 71, 72
17, 72599, Note_off_c, 5, 71, 64
17, 72683, Note_on_c, 5, 70, 85
17, 72792, Note_on_c, 5, 71, 68
17, 72808, Note_off_c, 5, 70, 64
17, 72871, Note_off_c, 5, 71, 64
17, 72914, Note_on_c, 5, 73, 59
17, 72963, Note_off_c, 5, 73, 64
17, 73049, Note_on_c, 5, 66, 100
17, 73154, Note_on_c, 5, 70, 76
17, 73167, Note_off_c, 5, 66, 64
17, 73228, Note_off_c, 5, 70, 64
17, 73283, Note_on_c, 5, 73, 98
17, 73336, Note_off_c, 5, 73, 64
17, 73415, Note_on_c, 5, 78, 102
17, 73733, Note_off_c, 5, 78, 64
17, 73798, Note_on_c, 5, 79, 89
17, 74051, Note_off_c, 5, 79, 64
17, 74142, Note_on_c, 5, 79, 91
17, 74245, Note_off_c, 5, 79, 64
17, 74255, Note_on_c, 5, 78, 105
17, 74583, Note_off_c, 5, 78, 64
17, 74629, Note_on_c, 5, 76, 82
17, 74702, Note_off_c, 5, 76, 64
17, 74744, Note_on_c, 5, 74, 91
17, 74801, Note_off_c, 5, 74, 64
17, 74873, Note_on_c, 5, 73, 91
17, 74975, Note_on_c, 5, 74, 74
17, 74997, Note_off_c, 5, 73, 64
17, 75033, Note_off_c, 5, 74, 64
17, 75096, Note_on_c, 5, 71, 85
17, 75154, Note_off_c, 5, 71, 64
17, 75230, Note_on_c, 5, 66, 89
17, 75338, Note_off_c, 5, 66, 64
17, 75341, Note_on_c, 5, 71, 56
17, 75418, Note_off_c, 5, 71, 64
17, 75461, Note_on_c, 5, 70, 87
17, 75514, Note_off_c, 5, 70, 64
17, 75591, Note_on_c, 5, 71, 95
17, 76015, Note_off_c, 5, 71, 64
17, 76090, Note_on_c, 5, 74, 85
17, 76153, Note_off_c, 5, 74, 64
17, 76206, Note_on_c, 5, 73, 80
17, 76260, Note_off_c, 5, 73, 64
17, 76328, Note_on_c, 5, 74, 93
17, 76443, Note_on_c, 5, 73, 64
17, 76461, Note_off_c, 5, 74, 64
17, 76504, Note_off_c, 5, 73, 64
17, 76557, Note_on_c, 5, 74, 80
17, 76610, Note_off_c, 5, 74, 64
17, 76678, Note_on_c, 5, 74, 85
17, 76790, Note_on_c, 5, 73, 66
17, 76799, Note_off_c, 5, 74, 64
17, 76857, Note_off_c, 5, 73, 64
17, 76905, Note_on_c, 5, 74, 85
17, 76959, Note_off_c, 5, 74, 64
17, 77034, Note_on_c, 5, 74, 95
17, 77133, Note_on_c, 5, 73, 55
17, 77140, Note_off_c, 5, 74, 64
17, 77234, Note_off_c, 5, 73, 64
17, 77251, Note_on_c, 5, 74, 82
17, 77300, Note_off_c, 5, 74, 64
17, 77388, Note_on_c, 5, 64, 98
17, 77484, Note_on_c, 5, 68, 62
17, 77511, Note_off_c, 5, 64, 64
17, 77554, Note_off_c, 5, 68, 64
17, 77600, Note_on_c, 5, 71, 80
17, 77660, Note_off_c, 5, 71, 64
17, 77738, Note_on_c, 5, 76, 100
17, 77850, Note_on_c, 5, 74, 74
17, 77857, Note_off_c, 5, 76, 64
17, 77920, Note_off_c, 5, 74, 64
17, 77973, Note_on_c, 5, 73, 91
17, 78032, Note_off_c, 5, 73, 64
17, 78094, Note_on_c, 5, 71, 105
17, 78205, Note_on_c, 5, 73, 68
17, 78229, Note_off_c, 5, 71, 64
17, 78309, Note_on_c, 5, 74, 82
17, 78329, Note_off_c, 5, 73, 64
17, 78370, Note_off_c, 5, 74, 64
17, 78441, Note_on_c, 5, 73, 102
17, 78548, Note_on_c, 5, 71, 70
17, 78569, Note_off_c, 5, 73, 64
17, 78630, Note_off_c, 5, 71, 64
17, 78670, Note_on_c, 5, 73, 93
17, 78721, Note_off_c, 5, 73, 64
17, 78802, Note_on_c, 5, 69, 98
17, 78908, Note_on_c, 5, 73, 61
17, 78935, Note_off_c, 5, 69, 64
17, 78985, Note_off_c, 5, 73, 64
17, 79016, Note_on_c, 5, 76, 85
17, 79081, Note_off_c, 5, 76, 64
17, 79152, Note_on_c, 5, 79, 100
17, 79256, Note_off_c, 5, 79, 64
17, 79265, Note_on_c, 5, 78, 68
17, 79324, Note_off_c, 5, 78, 64
17, 79385, Note_on_c, 5, 79, 78
17, 79438, Note_off_c, 5, 79, 64
17, 79509, Note_on_c, 5, 79, 85
17, 79627, Note_off_c, 5, 79, 64
17, 79627, Note_on_c, 5, 78, 87
17, 79705, Note_off_c, 5, 78, 64
17, 79746, Note_on_c, 5, 79, 82
17, 79796, Note_off_c, 5, 79, 64
17, 79885, Note_on_c, 5, 79, 100
17, 79986, Note_on_c, 5, 78, 66
17, 80011, Note_off_c, 5, 79, 64
17, 80076, Note_off_c, 5, 78, 64
17, 80102, Note_on_c, 5, 79, 82
17, 80162, Note_off_c, 5, 79, 64
17, 80238, Note_on_c, 5, 69, 89
17, 80354, Note_on_c, 5, 73, 47
17, 80366, Note_off_c, 5, 69, 64
17, 80443, Note_off_c, 5, 73, 64
17, 80474, Note_on_c, 5, 76, 66
17, 80541, Note_off_c, 5, 76, 64
17, 80607, Note_on_c, 5, 81, 98
17, 80728, Note_on_c, 5, 79, 72
17, 80737, Note_off_c, 5, 81, 64
17, 80795, Note_off_c, 5, 79, 64
17, 80854, Note_on_c, 5, 78, 85
17, 80927, Note_off_c, 5, 78, 64
17, 80985, Note_on_c, 5, 76, 100
17, 81099, Note_on_c, 5, 78, 70
17, 81114, Note_off_c, 5, 76, 64
17, 81189, Note_off_c, 5, 78, 64
17, 81209, Note_on_c, 5, 79, 76
17, 81270, Note_off_c, 5, 79, 64
17, 81344, Note_on_c, 5, 78, 105
17, 81451, Note_on_c, 5, 76, 66
17, 81472, Note_off_c, 5, 78, 64
17, 81546, Note_off_c, 5, 76, 64
17, 81578, Note_on_c, 5, 78, 89
17, 81629, Note_off_c, 5, 78, 64
17, 81712, Note_on_c, 5, 74, 102
17, 81825, Note_on_c, 5, 78, 74
17, 81848, Note_off_c, 5, 74, 64
17, 81897, Note_off_c, 5, 78, 64
17, 81947, Note_on_c, 5, 76, 80
17, 82017, Note_off_c, 5, 76, 64
17, 82078, Note_on_c, 5, 78, 105
17, 82186, Note_on_c, 5, 80, 80
17, 82207, Note_off_c, 5, 78, 64
17, 82263, Note_off_c, 5, 80, 64
17, 82303, Note_on_c, 5, 81, 87
17, 82366, Note_off_c, 5, 81, 64
17, 82441, Note_on_c, 5, 80, 105
17, 82545, Note_on_c, 5, 81, 78
17, 82557, Note_off_c, 5, 80, 64
17, 82623, Note_off_c, 5, 81, 64
17, 82659, Note_on_c, 5, 83, 80
17, 82722, Note_off_c, 5, 83, 64
17, 82800, Note_on_c, 5, 73, 89
17, 83202, Note_off_c, 5, 73, 64
17, 83269, Note_on_c, 5, 80, 82
17, 83337, Note_off_c, 5, 80, 64
17, 83388, Note_on_c, 5, 83, 87
17, 83444, Note_off_c, 5, 83, 64
17, 83515, Note_on_c, 5, 81, 98
17, 83616, Note_on_c, 5, 80, 60
17, 83640, Note_off_c, 5, 81, 64
17, 83717, Note_off_c, 5, 80, 64
17, 83747, Note_on_c, 5, 78, 68
17, 83805, Note_off_c, 5, 78, 64
17, 83878, Note_on_c, 5, 76, 89
17, 83981, Note_on_c, 5, 74, 82
17, 83984, Note_off_c, 5, 76, 64
17, 84044, Note_off_c, 5, 74, 64
17, 84100, Note_on_c, 5, 73, 85
17, 84160, Note_off_c, 5, 73, 64
17, 84232, Note_on_c, 5, 71, 100
17, 84635, Note_off_c, 5, 71, 64
17, 84708, Note_on_c, 5, 78, 87
17, 84772, Note_off_c, 5, 78, 64
17, 84822, Note_on_c, 5, 81, 87
17, 84888, Note_off_c, 5, 81, 64
17, 84946, Note_on_c, 5, 80, 100
17, 85037, Note_on_c, 5, 78, 64
17, 85077, Note_off_c, 5, 80, 64
17, 85137, Note_off_c, 5, 78, 64
17, 85168, Note_on_c, 5, 77, 78
17, 85228, Note_off_c, 5, 77, 64
17, 85301, Note_on_c, 5, 78, 91
17, 85408, Note_on_c, 5, 76, 76
17, 85423, Note_off_c, 5, 78, 64
17, 85489, Note_off_c, 5, 76, 64
17, 85524, Note_on_c, 5, 74, 72
17, 85594, Note_off_c, 5, 74, 64
17, 85655, Note_on_c, 5, 73, 85
17, 85771, Note_on_c, 5, 78, 70
17, 85787, Note_off_c, 5, 73, 64
17, 85839, Note_off_c, 5, 78, 64
17, 85893, Note_on_c, 5, 76, 80
17, 85960, Note_off_c, 5, 76, 64
17, 86023, Note_on_c, 5, 74, 91
17, 86125, Note_off_c, 5, 74, 64
17, 86137, Note_on_c, 5, 73, 53
17, 86226, Note_off_c, 5, 73, 64
17, 86259, Note_on_c, 5, 71, 80
17, 86306, Note_off_c, 5, 71, 64
17, 86380, Note_on_c, 5, 69, 85
17, 86495, Note_on_c, 5, 68, 72
17, 86498, Note_off_c, 5, 69, 64
17, 86599, Note_off_c, 5, 68, 64
17, 86616, Note_on_c, 5, 66, 82
17, 86675, Note_off_c, 5, 66, 64
17, 86743, Note_on_c, 5, 71, 85
17, 86857, Note_on_c, 5, 69, 74
17, 86889, Note_off_c, 5, 71, 64
17, 86932, Note_off_c, 5, 69, 64
17, 86981, Note_on_c, 5, 68, 89
17, 87039, Note_off_c, 5, 68, 64
17, 87106, Note_on_c, 5, 66, 98
17, 87551, Note_off_c, 5, 66, 64
17, 87707, Note_on_c, 5, 62, 85
17, 87761, Note_off_c, 5, 62, 64
17, 87823, Note_on_c, 5, 69, 98
17, 88064, Note_off_c, 5, 69, 64
17, 88187, Note_on_c, 5, 71, 91
17, 88420, Note_off_c, 5, 71, 64
17, 88550, Note_on_c, 5, 72, 100
17, 88975, Note_off_c, 5, 72, 64
17, 89028, Note_on_c, 5, 71, 87
17, 89093, Note_off_c, 5, 71, 64
17, 89130, Note_on_c, 5, 69, 91
17, 89194, Note_off_c, 5, 69, 64
17, 89270, Note_on_c, 5, 71, 102
17, 89383, Note_on_c, 5, 74, 82
17, 89401, Note_off_c, 5, 71, 64
17, 89459, Note_off_c, 5, 74, 64
17, 89500, Note_on_c, 5, 79, 87
17, 89560, Note_off_c, 5, 79, 64
17, 89624, Note_on_c, 5, 69, 85
17, 89727, Note_off_c, 5, 69, 64
17, 89735, Note_on_c, 5, 79, 82
17, 89816, Note_off_c, 5, 79, 64
17, 89856, Note_on_c, 5, 78, 85
17, 89910, Note_off_c, 5, 78, 64
17, 89987, Note_on_c, 5, 79, 102
17, 90103, Note_on_c, 5, 83, 82
17, 90110, Note_off_c, 5, 79, 64
17, 90164, Note_off_c, 5, 83, 64
17, 90219, Note_on_c, 5, 81, 98
17, 90278, Note_off_c, 5, 81, 64
17, 90356, Note_on_c, 5, 81, 102
17, 90414, Note_on_c, 5, 83, 78
17, 90430, Note_off_c, 5, 81, 64
17, 90798, Note_off_c, 5, 83, 64
17, 90856, Note_on_c, 5, 81, 87
17, 90923, Note_off_c, 5, 81, 64
17, 90959, Note_on_c, 5, 79, 85
17, 91020, Note_off_c, 5, 79, 64
17, 91088, Note_on_c, 5, 78, 93
17, 91194, Note_on_c, 5, 79, 76
17, 91221, Note_off_c, 5, 78, 64
17, 91259, Note_off_c, 5, 79, 64
17, 91307, Note_on_c, 5, 76, 78
17, 91368, Note_off_c, 5, 76, 64
17, 91436, Note_on_c, 5, 78, 98
17, 91552, Note_on_c, 5, 81, 82
17, 91578, Note_off_c, 5, 78, 64
17, 91615, Note_off_c, 5, 81, 64
17, 91679, Note_on_c, 5, 79, 87
17, 91736, Note_off_c, 5, 79, 64
17, 91812, Note_on_c, 5, 79, 102
17, 91886, Note_on_c, 5, 81, 78
17, 91906, Note_off_c, 5, 79, 64
17, 92249, Note_off_c, 5, 81, 64
17, 92291, Note_on_c, 5, 79, 89
17, 92353, Note_off_c, 5, 79, 64
17, 92406, Note_on_c, 5, 78, 82
17, 92469, Note_off_c, 5, 78, 64
17, 92539, Note_on_c, 5, 76, 98
17, 92642, Note_on_c, 5, 78, 63
17, 92666, Note_off_c, 5, 76, 64
17, 92705, Note_off_c, 5, 78, 64
17, 92759, Note_on_c, 5, 75, 72
17, 92815, Note_off_c, 5, 75, 64
17, 92892, Note_on_c, 5, 76, 98
17, 92992, Note_on_c, 5, 79, 72
17, 92999, Note_off_c, 5, 76, 64
17, 93064, Note_off_c, 5, 79, 64
17, 93115, Note_on_c, 5, 78, 100
17, 93167, Note_off_c, 5, 78, 64
17, 93246, Note_on_c, 5, 78, 102
17, 93319, Note_on_c, 5, 79, 87
17, 93332, Note_off_c, 5, 78, 64
17, 93656, Note_off_c, 5, 79, 64
17, 93711, Note_on_c, 5, 78, 85
17, 93771, Note_off_c, 5, 78, 64
17, 93836, Note_on_c, 5, 76, 78
17, 93895, Note_off_c, 5, 76, 64
17, 93965, Note_on_c, 5, 74, 91
17, 94071, Note_on_c, 5, 76, 72
17, 94099, Note_off_c, 5, 74, 64
17, 94134, Note_off_c, 5, 76, 64
17, 94206, Note_on_c, 5, 73, 57
17, 94256, Note_off_c, 5, 73, 64
17, 94337, Note_on_c, 5, 74, 89
17, 94448, Note_on_c, 5, 78, 57
17, 94460, Note_off_c, 5, 74, 64
17, 94510, Note_off_c, 5, 78, 64
17, 94561, Note_on_c, 5, 76, 80
17, 94616, Note_off_c, 5, 76, 64
17, 94687, Note_on_c, 5, 78, 100
17, 94788, Note_on_c, 5, 79, 80
17, 94798, Note_off_c, 5, 78, 64
17, 94857, Note_off_c, 5, 79, 64
17, 94909, Note_on_c, 5, 81, 76
17, 94962, Note_off_c, 5, 81, 64
17, 95031, Note_on_c, 5, 71, 82
17, 95142, Note_on_c, 5, 73, 62
17, 95160, Note_off_c, 5, 71, 64
17, 95222, Note_off_c, 5, 73, 64
17, 95265, Note_on_c, 5, 74, 66
17, 95318, Note_off_c, 5, 74, 64
17, 95394, Note_on_c, 5, 76, 95
17, 95501, Note_on_c, 5, 78, 66
17, 95510, Note_off_c, 5, 76, 64
17, 95584, Note_off_c, 5, 78, 64
17, 95621, Note_on_c, 5, 74, 76
17, 95667, Note_off_c, 5, 74, 64
17, 95752, Note_on_c, 5, 73, 87
17, 95864, Note_on_c, 5, 74, 68
17, 95871, Note_off_c, 5, 73, 64
17, 95925, Note_off_c, 5, 74, 64
17, 95987, Note_on_c, 5, 76, 80
17, 96031, Note_off_c, 5, 76, 64
17, 96113, Note_on_c, 5, 78, 100
17, 96217, Note_on_c, 5, 79, 66
17, 96227, Note_off_c, 5, 78, 64
17, 96280, Note_off_c, 5, 79, 64
17, 96339, Note_on_c, 5, 76, 62
17, 96381, Note_off_c, 5, 76, 64
17, 96459, Note_on_c, 5, 74, 85
17, 96570, Note_on_c, 5, 76, 66
17, 96591, Note_off_c, 5, 74, 64
17, 96628, Note_off_c, 5, 76, 64
17, 96692, Note_on_c, 5, 78, 78
17, 96743, Note_off_c, 5, 78, 64
17, 96821, Note_on_c, 5, 79, 87
17, 96937, Note_on_c, 5, 81, 72
17, 96949, Note_off_c, 5, 79, 64
17, 97002, Note_off_c, 5, 81, 64
17, 97068, Note_on_c, 5, 78, 70
17, 97114, Note_off_c, 5, 78, 64
17, 97186, Note_on_c, 5, 76, 95
17, 97298, Note_on_c, 5, 78, 60
17, 97317, Note_off_c, 5, 76, 64
17, 97366, Note_off_c, 5, 78, 64
17, 97416, Note_on_c, 5, 79, 85
17, 97477, Note_off_c, 5, 79, 64
17, 97548, Note_on_c, 5, 81, 98
17, 97654, Note_on_c, 5, 83, 78
17, 97681, Note_off_c, 5, 81, 64
17, 97725, Note_off_c, 5, 83, 64
17, 97775, Note_on_c, 5, 79, 76
17, 97830, Note_off_c, 5, 79, 64
17, 97904, Note_on_c, 5, 79, 91
17, 97994, Note_on_c, 5, 78, 53
17, 98010, Note_off_c, 5, 79, 64
17, 98298, Note_off_c, 5, 78, 64
17, 98349, Note_on_c, 5, 76, 80
17, 98424, Note_off_c, 5, 76, 64
17, 98466, Note_on_c, 5, 74, 80
17, 98537, Note_off_c, 5, 74, 64
17, 98595, Note_on_c, 5, 76, 89
17, 98701, Note_on_c, 5, 73, 59
17, 98713, Note_off_c, 5, 76, 64
17, 98779, Note_off_c, 5, 73, 64
17, 98828, Note_on_c, 5, 74, 72
17, 98880, Note_off_c, 5, 74, 64
17, 98961, Note_on_c, 5, 69, 98
17, 99069, Note_off_c, 5, 69, 64
17, 99072, Note_on_c, 5, 74, 76
17, 99160, Note_off_c, 5, 74, 64
17, 99196, Note_on_c, 5, 73, 78
17, 99267, Note_off_c, 5, 73, 64
17, 99329, Note_on_c, 5, 62, 102
17, 99436, Note_off_c, 5, 62, 64
17, 99554, Note_on_c, 5, 74, 78
17, 99617, Note_off_c, 5, 74, 64
17, 99686, Note_on_c, 5, 81, 102
17, 100118, Note_off_c, 5, 81, 64
17, 100180, Note_on_c, 5, 83, 80
17, 100251, Note_off_c, 5, 83, 64
17, 100309, Note_on_c, 5, 81, 89
17, 100365, Note_off_c, 5, 81, 64
17, 100446, Note_on_c, 5, 80, 93
17, 100537, Note_on_c, 5, 76, 66
17, 100557, Note_off_c, 5, 80, 64
17, 100602, Note_off_c, 5, 76, 64
17, 100668, Note_on_c, 5, 78, 64
17, 100720, Note_off_c, 5, 78, 64
17, 100789, Note_on_c, 5, 79, 91
17, 100897, Note_on_c, 5, 81, 68
17, 100920, Note_off_c, 5, 79, 64
17, 100961, Note_off_c, 5, 81, 64
17, 101028, Note_on_c, 5, 79, 68
17, 101076, Note_off_c, 5, 79, 64
17, 101150, Note_on_c, 5, 78, 91
17, 101261, Note_on_c, 5, 74, 80
17, 101278, Note_off_c, 5, 78, 64
17, 101346, Note_off_c, 5, 74, 64
17, 101385, Note_on_c, 5, 76, 70
17, 101428, Note_off_c, 5, 76, 64
17, 101506, Note_on_c, 5, 77, 95
17, 101619, Note_on_c, 5, 79, 66
17, 101637, Note_off_c, 5, 77, 64
17, 101690, Note_off_c, 5, 79, 64
17, 101745, Note_on_c, 5, 77, 74
17, 101796, Note_off_c, 5, 77, 64
17, 101874, Note_on_c, 5, 76, 87
17, 101988, Note_on_c, 5, 73, 64
17, 102003, Note_off_c, 5, 76, 64
17, 102072, Note_off_c, 5, 73, 64
17, 102102, Note_on_c, 5, 74, 70
17, 102149, Note_off_c, 5, 74, 64
17, 102236, Note_on_c, 5, 73, 105
17, 102329, Note_on_c, 5, 74, 82
17, 102349, Note_off_c, 5, 73, 64
17, 102410, Note_off_c, 5, 74, 64
17, 102457, Note_on_c, 5, 76, 72
17, 102501, Note_off_c, 5, 76, 64
17, 102588, Note_on_c, 5, 69, 93
17, 102983, Note_off_c, 5, 69, 64
17, 103172, Note_on_c, 5, 81, 82
17, 103250, Note_off_c, 5, 81, 64
17, 103298, Note_on_c, 5, 83, 91
17, 103401, Note_off_c, 5, 83, 64
17, 103531, Note_on_c, 5, 85, 85
17, 103591, Note_off_c, 5, 85, 64
17, 103656, Note_on_c, 5, 85, 95
17, 103738, Note_on_c, 5, 86, 87
17, 103785, Note_off_c, 5, 85, 64
17, 103843, Note_off_c, 5, 86, 64
17, 103896, Note_on_c, 5, 81, 82
17, 103940, Note_off_c, 5, 81, 64
17, 104010, Note_on_c, 5, 79, 87
17, 104061, Note_on_c, 5, 78, 87
17, 104090, Note_off_c, 5, 79, 64
17, 104161, Note_off_c, 5, 78, 64
17, 104162, Note_on_c, 5, 76, 87
17, 104224, Note_off_c, 5, 76, 64
17, 104278, Note_on_c, 5, 74, 87
17, 104335, Note_off_c, 5, 74, 64
17, 104373, Note_on_c, 5, 76, 82
17, 104442, Note_off_c, 5, 76, 64
17, 104442, Note_on_c, 5, 74, 72
17, 104489, Note_off_c, 5, 74, 64
17, 104495, Note_on_c, 5, 76, 82
17, 104532, Note_on_c, 5, 74, 80
17, 104542, Note_off_c, 5, 76, 64
17, 104570, Note_on_c, 5, 76, 80
17, 104573, Note_off_c, 5, 74, 64
17, 104614, Note_on_c, 5, 74, 80
17, 104619, Note_off_c, 5, 76, 64
17, 104644, Note_on_c, 5, 76, 74
17, 104654, Note_off_c, 5, 74, 64
17, 104682, Note_on_c, 5, 74, 82
17, 104694, Note_off_c, 5, 76, 64
17, 104957, Note_off_c, 5, 74, 64
17, 104957, End_track
18, 0, Start_track
18, 0, Title_t, "Violin"
18, 0, Program_c, 6, 40
18, 0, Control_c, 6, 7, 100
18, 18581, Note_on_c, 6, 62, 87
18, 18633, Note_off_c, 6, 62, 64
18, 18717, Note_on_c, 6, 69, 102
18, 18967, Note_off_c, 6, 69, 64
18, 19054, Note_on_c, 6, 71, 89
18, 19307, Note_off_c, 6, 71, 64
18, 19408, Note_on_c, 6, 69, 98
18, 19838, Note_off_c, 6, 69, 64
18, 19909, Note_on_c, 6, 71, 85
18, 19959, Note_off_c, 6, 71, 64
18, 20018, Note_on_c, 6, 73, 102
18, 20067, Note_off_c, 6, 73, 64
18, 20131, Note_on_c, 6, 74, 105
18, 20256, Note_on_c, 6, 73, 78
18, 20278, Note_off_c, 6, 74, 64
18, 20316, Note_off_c, 6, 73, 64
18, 20376, Note_on_c, 6, 71, 80
18, 20423, Note_off_c, 6, 71, 64
18, 20495, Note_on_c, 6, 69, 100
18, 20612, Note_on_c, 6, 71, 82
18, 20628, Note_off_c, 6, 69, 64
18, 20671, Note_off_c, 6, 71, 64
18, 20734, Note_on_c, 6, 67, 85
18, 20786, Note_off_c, 6, 67, 64
18, 20854, Note_on_c, 6, 66, 87
18, 20976, Note_on_c, 6, 64, 80
18, 21009, Note_off_c, 6, 66, 64
18, 21042, Note_off_c, 6, 64, 64
18, 21100, Note_on_c, 6, 66, 91
18, 21153, Note_off_c, 6, 66, 64
18, 21228, Note_on_c, 6, 62, 107
18, 21349, Note_on_c, 6, 66, 70
18, 21386, Note_off_c, 6, 62, 64
18, 21429, Note_off_c, 6, 66, 64
18, 21470, Note_on_c, 6, 69, 82
18, 21523, Note_off_c, 6, 69, 64
18, 21608, Note_on_c, 6, 74, 93
18, 21854, Note_off_c, 6, 74, 64
18, 21967, Note_on_c, 6, 78, 89
18, 22229, Note_off_c, 6, 78, 64
18, 22330, Note_on_c, 6, 76, 89
18, 22777, Note_off_c, 6, 76, 64
18, 22904, Note_on_c, 6, 74, 74
18, 22962, Note_off_c, 6, 74, 64
18, 23042, Note_on_c, 6, 73, 95
18, 23155, Note_on_c, 6, 71, 80
18, 23182, Note_off_c, 6, 73, 64
18, 23224, Note_off_c, 6, 71, 64
18, 23274, Note_on_c, 6, 69, 68
18, 23325, Note_off_c, 6, 69, 64
18, 23408, Note_on_c, 6, 71, 98
18, 23516, Note_on_c, 6, 73, 64
18, 23533, Note_off_c, 6, 71, 64
18, 23574, Note_off_c, 6, 73, 64
18, 23633, Note_on_c, 6, 74, 76
18, 23679, Note_off_c, 6, 74, 64
18, 23764, Note_on_c, 6, 73, 100
18, 23870, Note_on_c, 6, 71, 60
18, 23899, Note_off_c, 6, 73, 64
18, 23945, Note_off_c, 6, 71, 64
18, 23994, Note_on_c, 6, 73, 64
18, 24024, Note_off_c, 6, 73, 64
18, 24128, Note_on_c, 6, 69, 100
18, 24232, Note_on_c, 6, 73, 62
18, 24268, Note_off_c, 6, 69, 64
18, 24308, Note_off_c, 6, 73, 64
18, 24353, Note_on_c, 6, 76, 78
18, 24392, Note_off_c, 6, 76, 64
18, 24485, Note_on_c, 6, 81, 102
18, 24588, Note_on_c, 6, 79, 64
18, 24602, Note_off_c, 6, 81, 64
18, 24649, Note_off_c, 6, 79, 64
18, 24705, Note_on_c, 6, 81, 91
18, 24750, Note_off_c, 6, 81, 64
18, 24832, Note_on_c, 6, 81, 102
18, 24945, Note_on_c, 6, 79, 76
18, 24968, Note_off_c, 6, 81, 64
18, 25005, Note_off_c, 6, 79, 64
18, 25060, Note_on_c, 6, 81, 85
18, 25097, Note_off_c, 6, 81, 64
18, 25184, Note_on_c, 6, 81, 102
18, 25300, Note_on_c, 6, 79, 82
18, 25322, Note_off_c, 6, 81, 64
18, 25368, Note_off_c, 6, 79, 64
18, 25414, Note_on_c, 6, 81, 82
18, 25457, Note_off_c, 6, 81, 64
18, 25544, Note_on_c, 6, 71, 98
18, 25652, Note_on_c, 6, 75, 66
18, 25678, Note_off_c, 6, 71, 64
18, 25712, Note_off_c, 6, 75, 64
18, 25768, Note_on_c, 6, 78, 95
18, 25816, Note_off_c, 6, 78, 64
18, 25892, Note_on_c, 6, 79, 98
18, 26016, Note_on_c, 6, 78, 63
18, 26035, Note_off_c, 6, 79, 64
18, 26055, Note_off_c, 6, 78, 64
18, 26130, Note_on_c, 6, 79, 87
18, 26176, Note_off_c, 6, 79, 64
18, 26251, Note_on_c, 6, 79, 91
18, 26360, Note_on_c, 6, 78, 87
18, 26382, Note_off_c, 6, 79, 64
18, 26424, Note_off_c, 6, 78, 64
18, 26480, Note_on_c, 6, 79, 93
18, 26533, Note_off_c, 6, 79, 64
18, 26616, Note_on_c, 6, 79, 102
18, 26724, Note_on_c, 6, 78, 80
18, 26748, Note_off_c, 6, 79, 64
18, 26808, Note_off_c, 6, 78, 64
18, 26840, Note_on_c, 6, 79, 87
18, 26896, Note_off_c, 6, 79, 64
18, 26970, Note_on_c, 6, 69, 98
18, 27076, Note_on_c, 6, 73, 66
18, 27109, Note_off_c, 6, 69, 64
18, 27154, Note_off_c, 6, 73, 64
18, 27200, Note_on_c, 6, 76, 78
18, 27241, Note_off_c, 6, 76, 64
18, 27336, Note_on_c, 6, 78, 93
18, 27440, Note_on_c, 6, 80, 70
18, 27466, Note_off_c, 6, 78, 64
18, 27528, Note_off_c, 6, 80, 64
18, 27555, Note_on_c, 6, 81, 80
18, 27601, Note_off_c, 6, 81, 64
18, 27688, Note_on_c, 6, 81, 95
18, 27802, Note_on_c, 6, 80, 91
18, 27819, Note_off_c, 6, 81, 64
18, 27870, Note_off_c, 6, 80, 64
18, 27922, Note_on_c, 6, 81, 72
18, 27961, Note_off_c, 6, 81, 64
18, 28055, Note_on_c, 6, 74, 102
18, 28169, Note_on_c, 6, 76, 82
18, 28195, Note_off_c, 6, 74, 64
18, 28272, Note_off_c, 6, 76, 64
18, 28290, Note_on_c, 6, 78, 63
18, 28339, Note_off_c, 6, 78, 64
18, 28414, Note_on_c, 6, 78, 95
18, 28535, Note_on_c, 6, 76, 64
18, 28561, Note_off_c, 6, 78, 64
18, 28635, Note_off_c, 6, 76, 64
18, 28647, Note_on_c, 6, 78, 59
18, 28707, Note_off_c, 6, 78, 64
18, 28779, Note_on_c, 6, 71, 93
18, 28886, Note_on_c, 6, 73, 61
18, 28912, Note_off_c, 6, 71, 64
18, 29001, Note_on_c, 6, 74, 63
18, 29011, Note_off_c, 6, 73, 64
18, 29062, Note_off_c, 6, 74, 64
18, 29134, Note_on_c, 6, 74, 85
18, 29250, Note_on_c, 6, 73, 63
18, 29269, Note_off_c, 6, 74, 64
18, 29352, Note_off_c, 6, 73, 64
18, 29361, Note_on_c, 6, 74, 64
18, 29427, Note_off_c, 6, 74, 64
18, 29496, Note_on_c, 6, 68, 89
18, 29612, Note_on_c, 6, 69, 62
18, 29651, Note_off_c, 6, 68, 64
18, 29711, Note_off_c, 6, 69, 64
18, 29727, Note_on_c, 6, 71, 68
18, 29783, Note_off_c, 6, 71, 64
18, 29859, Note_on_c, 6, 64, 95
18, 29973, Note_on_c, 6, 68, 62
18, 30026, Note_off_c, 6, 64, 64
18, 30087, Note_off_c, 6, 68, 64
18, 30094, Note_on_c, 6, 71, 64
18, 30150, Note_off_c, 6, 71, 64
18, 30235, Note_on_c, 6, 76, 102
18, 30353, Note_on_c, 6, 74, 68
18, 30372, Note_off_c, 6, 76, 64
18, 30464, Note_on_c, 6, 73, 48
18, 30473, Note_off_c, 6, 74, 64
18, 30535, Note_off_c, 6, 73, 64
18, 30601, Note_on_c, 6, 74, 87
18, 30715, Note_on_c, 6, 73, 59
18, 30742, Note_off_c, 6, 74, 64
18, 30828, Note_on_c, 6, 71, 66
18, 30839, Note_off_c, 6, 73, 64
18, 30888, Note_off_c, 6, 71, 64
18, 30949, Note_on_c, 6, 69, 95
18, 31118, Note_off_c, 6, 69, 64
18, 31183, Note_on_c, 6, 78, 60
18, 31236, Note_off_c, 6, 78, 64
18, 31302, Note_on_c, 6, 69, 91
18, 31471, Note_off_c, 6, 69, 64
18, 31523, Note_on_c, 6, 78, 60
18, 31577, Note_off_c, 6, 78, 64
18, 31658, Note_on_c, 6, 68, 76
18, 31844, Note_off_c, 6, 68, 64
18, 31896, Note_on_c, 6, 76, 70
18, 31957, Note_off_c, 6, 76, 64
18, 32024, Note_on_c, 6, 67, 87
18, 32215, Note_off_c, 6, 67, 64
18, 32247, Note_on_c, 6, 76, 76
18, 32307, Note_off_c, 6, 76, 64
18, 32382, Note_on_c, 6, 66, 68
18, 32558, Note_off_c, 6, 66, 64
18, 32620, Note_on_c, 6, 74, 70
18, 32677, Note_off_c, 6, 74, 64
18, 32744, Note_on_c, 6, 65, 87
18, 32944, Note_off_c, 6, 65, 64
18, 32974, Note_on_c, 6, 74, 80
18, 33026, Note_off_c, 6, 74, 64
18, 33108, Note_on_c, 6, 64, 87
18, 33494, Note_off_c, 6, 64, 64
18, 33572, Note_on_c, 6, 68, 64
18, 33636, Note_off_c, 6, 68, 64
18, 33672, Note_on_c, 6, 71, 70
18, 33713, Note_off_c, 6, 71, 64
18, 33808, Note_on_c, 6, 74, 93
18, 33912, Note_on_c, 6, 80, 72
18, 33948, Note_off_c, 6, 74, 64
18, 33978, Note_off_c, 6, 80, 64
18, 34035, Note_on_c, 6, 83, 74
18, 34089, Note_off_c, 6, 83, 64
18, 34168, Note_on_c, 6, 74, 98
18, 34267, Note_on_c, 6, 73, 63
18, 34293, Note_off_c, 6, 74, 64
18, 34344, Note_off_c, 6, 73, 64
18, 34398, Note_on_c, 6, 71, 85
18, 34459, Note_off_c, 6, 71, 64
18, 34535, Note_on_c, 6, 73, 91
18, 34575, Note_on_c, 6, 74, 85
18, 34613, Note_off_c, 6, 73, 64
18, 34643, Note_on_c, 6, 76, 91
18, 34670, Note_off_c, 6, 74, 64
18, 34714, Note_off_c, 6, 76, 64
18, 34784, Note_on_c, 6, 69, 80
18, 34831, Note_off_c, 6, 69, 64
18, 34896, Note_on_c, 6, 64, 102
18, 34962, Note_off_c, 6, 64, 64
18, 35006, Note_on_c, 6, 69, 87
18, 35065, Note_off_c, 6, 69, 64
18, 35124, Note_on_c, 6, 68, 95
18, 35172, Note_off_c, 6, 68, 64
18, 35256, Note_on_c, 6, 69, 102
18, 35642, Note_off_c, 6, 69, 64
18, 70413, Note_on_c, 6, 69, 89
18, 70473, Note_off_c, 6, 69, 64
18, 70541, Note_on_c, 6, 76, 100
18, 70797, Note_off_c, 6, 76, 64
18, 70888, Note_on_c, 6, 78, 102
18, 71148, Note_off_c, 6, 78, 64
18, 71241, Note_on_c, 6, 76, 98
18, 71657, Note_off_c, 6, 76, 64
18, 71701, Note_on_c, 6, 78, 89
18, 71763, Note_off_c, 6, 78, 64
18, 71807, Note_on_c, 6, 79, 93
18, 71867, Note_off_c, 6, 79, 64
18, 71955, Note_on_c, 6, 78, 105
18, 72061, Note_on_c, 6, 76, 76
18, 72082, Note_off_c, 6, 78, 64
18, 72135, Note_off_c, 6, 76, 64
18, 72187, Note_on_c, 6, 74, 82
18, 72230, Note_off_c, 6, 74, 64
18, 72312, Note_on_c, 6, 73, 98
18, 72420, Note_on_c, 6, 74, 76
18, 72452, Note_off_c, 6, 73, 64
18, 72483, Note_off_c, 6, 74, 64
18, 72548, Note_on_c, 6, 71, 82
18, 72596, Note_off_c, 6, 71, 64
18, 72680, Note_on_c, 6, 70, 89
18, 72793, Note_on_c, 6, 71, 70
18, 72819, Note_off_c, 6, 70, 64
18, 72879, Note_off_c, 6, 71, 64
18, 72914, Note_on_c, 6, 73, 68
18, 72973, Note_off_c, 6, 73, 64
18, 73046, Note_on_c, 6, 66, 89
18, 73145, Note_on_c, 6, 70, 70
18, 73164, Note_off_c, 6, 66, 64
18, 73225, Note_off_c, 6, 70, 64
18, 73275, Note_on_c, 6, 73, 98
18, 73326, Note_off_c, 6, 73, 64
18, 73410, Note_on_c, 6, 78, 107
18, 73705, Note_off_c, 6, 78, 64
18, 73783, Note_on_c, 6, 79, 95
18, 74050, Note_off_c, 6, 79, 64
18, 74137, Note_on_c, 6, 79, 98
18, 74258, Note_on_c, 6, 78, 102
18, 74267, Note_off_c, 6, 79, 64
18, 74583, Note_off_c, 6, 78, 64
18, 74620, Note_on_c, 6, 76, 82
18, 74698, Note_off_c, 6, 76, 64
18, 74739, Note_on_c, 6, 74, 93
18, 74795, Note_off_c, 6, 74, 64
18, 74869, Note_on_c, 6, 73, 98
18, 74972, Note_on_c, 6, 74, 80
18, 74997, Note_off_c, 6, 73, 64
18, 75030, Note_off_c, 6, 74, 64
18, 75093, Note_on_c, 6, 71, 87
18, 75148, Note_off_c, 6, 71, 64
18, 75229, Note_on_c, 6, 66, 89
18, 75328, Note_off_c, 6, 66, 64
18, 75338, Note_on_c, 6, 71, 62
18, 75416, Note_off_c, 6, 71, 64
18, 75464, Note_on_c, 6, 70, 95
18, 75524, Note_off_c, 6, 70, 64
18, 75591, Note_on_c, 6, 71, 91
18, 76015, Note_off_c, 6, 71, 64
18, 76095, Note_on_c, 6, 74, 87
18, 76156, Note_off_c, 6, 74, 64
18, 76203, Note_on_c, 6, 73, 80
18, 76262, Note_off_c, 6, 73, 64
18, 76338, Note_on_c, 6, 74, 102
18, 76446, Note_on_c, 6, 73, 72
18, 76469, Note_off_c, 6, 74, 64
18, 76504, Note_off_c, 6, 73, 64
18, 76562, Note_on_c, 6, 74, 80
18, 76615, Note_off_c, 6, 74, 64
18, 76684, Note_on_c, 6, 74, 102
18, 76789, Note_on_c, 6, 73, 66
18, 76810, Note_off_c, 6, 74, 64
18, 76863, Note_off_c, 6, 73, 64
18, 76910, Note_on_c, 6, 74, 89
18, 76969, Note_off_c, 6, 74, 64
18, 77039, Note_on_c, 6, 74, 100
18, 77145, Note_on_c, 6, 73, 63
18, 77161, Note_off_c, 6, 74, 64
18, 77237, Note_off_c, 6, 73, 64
18, 77256, Note_on_c, 6, 74, 82
18, 77309, Note_off_c, 6, 74, 64
18, 77388, Note_on_c, 6, 64, 98
18, 77491, Note_on_c, 6, 68, 63
18, 77520, Note_off_c, 6, 64, 64
18, 77567, Note_off_c, 6, 68, 64
18, 77605, Note_on_c, 6, 71, 85
18, 77665, Note_off_c, 6, 71, 64
18, 77741, Note_on_c, 6, 76, 98
18, 77858, Note_on_c, 6, 74, 66
18, 77867, Note_off_c, 6, 76, 64
18, 77933, Note_off_c, 6, 74, 64
18, 77979, Note_on_c, 6, 73, 93
18, 78037, Note_off_c, 6, 73, 64
18, 78097, Note_on_c, 6, 71, 107
18, 78213, Note_on_c, 6, 73, 64
18, 78234, Note_off_c, 6, 71, 64
18, 78288, Note_off_c, 6, 73, 64
18, 78325, Note_on_c, 6, 74, 89
18, 78387, Note_off_c, 6, 74, 64
18, 78451, Note_on_c, 6, 73, 102
18, 78547, Note_on_c, 6, 71, 66
18, 78574, Note_off_c, 6, 73, 64
18, 78620, Note_off_c, 6, 71, 64
18, 78670, Note_on_c, 6, 73, 93
18, 78716, Note_off_c, 6, 73, 64
18, 78792, Note_on_c, 6, 69, 98
18, 78892, Note_on_c, 6, 73, 64
18, 78922, Note_off_c, 6, 69, 64
18, 78968, Note_off_c, 6, 73, 64
18, 79016, Note_on_c, 6, 76, 87
18, 79077, Note_off_c, 6, 76, 64
18, 79150, Note_on_c, 6, 79, 102
18, 79259, Note_on_c, 6, 78, 68
18, 79266, Note_off_c, 6, 79, 64
18, 79326, Note_off_c, 6, 78, 64
18, 79392, Note_on_c, 6, 79, 82
18, 79438, Note_off_c, 6, 79, 64
18, 79524, Note_on_c, 6, 79, 102
18, 79635, Note_on_c, 6, 78, 87
18, 79652, Note_off_c, 6, 79, 64
18, 79695, Note_off_c, 6, 78, 64
18, 79760, Note_on_c, 6, 79, 89
18, 79813, Note_off_c, 6, 79, 64
18, 79892, Note_on_c, 6, 79, 110
18, 79985, Note_on_c, 6, 78, 82
18, 80015, Note_off_c, 6, 79, 64
18, 80078, Note_off_c, 6, 78, 64
18, 80114, Note_on_c, 6, 79, 89
18, 80167, Note_off_c, 6, 79, 64
18, 80245, Note_on_c, 6, 69, 93
18, 80366, Note_on_c, 6, 73, 60
18, 80377, Note_off_c, 6, 69, 64
18, 80434, Note_off_c, 6, 73, 64
18, 80475, Note_on_c, 6, 76, 85
18, 80540, Note_off_c, 6, 76, 64
18, 80614, Note_on_c, 6, 81, 102
18, 80727, Note_on_c, 6, 79, 74
18, 80740, Note_off_c, 6, 81, 64
18, 80785, Note_off_c, 6, 79, 64
18, 80846, Note_on_c, 6, 78, 89
18, 80907, Note_off_c, 6, 78, 64
18, 80977, Note_on_c, 6, 76, 98
18, 81091, Note_on_c, 6, 78, 66
18, 81111, Note_off_c, 6, 76, 64
18, 81172, Note_off_c, 6, 78, 64
18, 81207, Note_on_c, 6, 79, 85
18, 81262, Note_off_c, 6, 79, 64
18, 81339, Note_on_c, 6, 78, 102
18, 81445, Note_on_c, 6, 76, 63
18, 81475, Note_off_c, 6, 78, 64
18, 81548, Note_off_c, 6, 76, 64
18, 81579, Note_on_c, 6, 78, 93
18, 81644, Note_off_c, 6, 78, 64
18, 81704, Note_on_c, 6, 74, 102
18, 81810, Note_on_c, 6, 78, 64
18, 81838, Note_off_c, 6, 74, 64
18, 81881, Note_off_c, 6, 78, 64
18, 81931, Note_on_c, 6, 76, 82
18, 81999, Note_off_c, 6, 76, 64
18, 82065, Note_on_c, 6, 78, 102
18, 82164, Note_on_c, 6, 80, 78
18, 82200, Note_off_c, 6, 78, 64
18, 82249, Note_off_c, 6, 80, 64
18, 82290, Note_on_c, 6, 81, 87
18, 82350, Note_off_c, 6, 81, 64
18, 82426, Note_on_c, 6, 80, 105
18, 82537, Note_on_c, 6, 81, 78
18, 82565, Note_off_c, 6, 80, 64
18, 82623, Note_off_c, 6, 81, 64
18, 82653, Note_on_c, 6, 83, 82
18, 82716, Note_off_c, 6, 83, 64
18, 82785, Note_on_c, 6, 73, 80
18, 83232, Note_off_c, 6, 73, 64
18, 83277, Note_on_c, 6, 80, 87
18, 83345, Note_off_c, 6, 80, 64
18, 83393, Note_on_c, 6, 83, 95
18, 83456, Note_off_c, 6, 83, 64
18, 83515, Note_on_c, 6, 81, 98
18, 83623, Note_on_c, 6, 80, 80
18, 83646, Note_off_c, 6, 81, 64
18, 83689, Note_off_c, 6, 80, 64
18, 83739, Note_on_c, 6, 78, 78
18, 83822, Note_off_c, 6, 78, 64
18, 83871, Note_on_c, 6, 76, 91
18, 83972, Note_on_c, 6, 74, 80
18, 84004, Note_off_c, 6, 76, 64
18, 84034, Note_off_c, 6, 74, 64
18, 84100, Note_on_c, 6, 73, 91
18, 84168, Note_off_c, 6, 73, 64
18, 84236, Note_on_c, 6, 71, 102
18, 84641, Note_off_c, 6, 71, 64
18, 84698, Note_on_c, 6, 78, 74
18, 84772, Note_off_c, 6, 78, 64
18, 84822, Note_on_c, 6, 81, 89
18, 84885, Note_off_c, 6, 81, 64
18, 84951, Note_on_c, 6, 80, 102
18, 85047, Note_on_c, 6, 78, 66
18, 85075, Note_off_c, 6, 80, 64
18, 85128, Note_off_c, 6, 78, 64
18, 85170, Note_on_c, 6, 77, 78
18, 85234, Note_off_c, 6, 77, 64
18, 85298, Note_on_c, 6, 78, 87
18, 85413, Note_on_c, 6, 76, 72
18, 85428, Note_off_c, 6, 78, 64
18, 85499, Note_off_c, 6, 76, 64
18, 85531, Note_on_c, 6, 74, 68
18, 85597, Note_off_c, 6, 74, 64
18, 85653, Note_on_c, 6, 73, 82
18, 85761, Note_on_c, 6, 78, 66
18, 85781, Note_off_c, 6, 73, 64
18, 85834, Note_off_c, 6, 78, 64
18, 85887, Note_on_c, 6, 76, 80
18, 85946, Note_off_c, 6, 76, 64
18, 86016, Note_on_c, 6, 74, 93
18, 86095, Note_off_c, 6, 74, 64
18, 86124, Note_on_c, 6, 73, 57
18, 86200, Note_off_c, 6, 73, 64
18, 86243, Note_on_c, 6, 71, 64
18, 86289, Note_off_c, 6, 71, 64
18, 86367, Note_on_c, 6, 69, 87
18, 86478, Note_on_c, 6, 68, 64
18, 86482, Note_off_c, 6, 69, 64
18, 86579, Note_off_c, 6, 68, 64
18, 86592, Note_on_c, 6, 66, 68
18, 86644, Note_off_c, 6, 66, 64
18, 86721, Note_on_c, 6, 71, 80
18, 86842, Note_on_c, 6, 69, 66
18, 86865, Note_off_c, 6, 71, 64
18, 86928, Note_off_c, 6, 69, 64
18, 86975, Note_on_c, 6, 68, 87
18, 87034, Note_off_c, 6, 68, 64
18, 87099, Note_on_c, 6, 66, 95
18, 87534, Note_off_c, 6, 66, 64
18, 87698, Note_on_c, 6, 62, 85
18, 87757, Note_off_c, 6, 62, 64
18, 87823, Note_on_c, 6, 69, 89
18, 88050, Note_off_c, 6, 69, 64
18, 88189, Note_on_c, 6, 71, 100
18, 88435, Note_off_c, 6, 71, 64
18, 88531, Note_on_c, 6, 72, 100
18, 88957, Note_off_c, 6, 72, 64
18, 89015, Note_on_c, 6, 71, 87
18, 89078, Note_off_c, 6, 71, 64
18, 89124, Note_on_c, 6, 69, 91
18, 89186, Note_off_c, 6, 69, 64
18, 89273, Note_on_c, 6, 71, 105
18, 89386, Note_on_c, 6, 74, 85
18, 89404, Note_off_c, 6, 71, 64
18, 89485, Note_off_c, 6, 74, 64
18, 89500, Note_on_c, 6, 79, 80
18, 89566, Note_off_c, 6, 79, 64
18, 89624, Note_on_c, 6, 69, 87
18, 89722, Note_off_c, 6, 69, 64
18, 89737, Note_on_c, 6, 79, 78
18, 89815, Note_off_c, 6, 79, 64
18, 89855, Note_on_c, 6, 78, 82
18, 89919, Note_off_c, 6, 78, 64
18, 89984, Note_on_c, 6, 79, 91
18, 90100, Note_on_c, 6, 83, 85
18, 90105, Note_off_c, 6, 79, 64
18, 90169, Note_off_c, 6, 83, 64
18, 90227, Note_on_c, 6, 81, 98
18, 90288, Note_off_c, 6, 81, 64
18, 90359, Note_on_c, 6, 81, 102
18, 90426, Note_on_c, 6, 83, 80
18, 90441, Note_off_c, 6, 81, 64
18, 90789, Note_off_c, 6, 83, 64
18, 90851, Note_on_c, 6, 81, 85
18, 90921, Note_off_c, 6, 81, 64
18, 90956, Note_on_c, 6, 79, 89
18, 91017, Note_off_c, 6, 79, 64
18, 91088, Note_on_c, 6, 78, 91
18, 91194, Note_on_c, 6, 79, 82
18, 91226, Note_off_c, 6, 78, 64
18, 91267, Note_off_c, 6, 79, 64
18, 91310, Note_on_c, 6, 76, 76
18, 91380, Note_off_c, 6, 76, 64
18, 91444, Note_on_c, 6, 78, 85
18, 91554, Note_on_c, 6, 81, 80
18, 91564, Note_off_c, 6, 78, 64
18, 91610, Note_off_c, 6, 81, 64
18, 91668, Note_on_c, 6, 79, 85
18, 91722, Note_off_c, 6, 79, 64
18, 91800, Note_on_c, 6, 79, 100
18, 91877, Note_on_c, 6, 81, 80
18, 91890, Note_off_c, 6, 79, 64
18, 92247, Note_off_c, 6, 81, 64
18, 92292, Note_on_c, 6, 79, 82
18, 92357, Note_off_c, 6, 79, 64
18, 92406, Note_on_c, 6, 78, 78
18, 92468, Note_off_c, 6, 78, 64
18, 92542, Note_on_c, 6, 76, 98
18, 92648, Note_on_c, 6, 78, 61
18, 92670, Note_off_c, 6, 76, 64
18, 92708, Note_off_c, 6, 78, 64
18, 92762, Note_on_c, 6, 75, 64
18, 92824, Note_off_c, 6, 75, 64
18, 92883, Note_on_c, 6, 76, 87
18, 92988, Note_off_c, 6, 76, 64
18, 92998, Note_on_c, 6, 79, 76
18, 93056, Note_off_c, 6, 79, 64
18, 93115, Note_on_c, 6, 78, 85
18, 93168, Note_off_c, 6, 78, 64
18, 93253, Note_on_c, 6, 78, 105
18, 93332, Note_on_c, 6, 79, 82
18, 93362, Note_off_c, 6, 78, 64
18, 93672, Note_off_c, 6, 79, 64
18, 93716, Note_on_c, 6, 78, 70
18, 93790, Note_off_c, 6, 78, 64
18, 93831, Note_on_c, 6, 76, 70
18, 93884, Note_off_c, 6, 76, 64
18, 93961, Note_on_c, 6, 74, 78
18, 94074, Note_off_c, 6, 74, 64
18, 94074, Note_on_c, 6, 76, 72
18, 94152, Note_off_c, 6, 76, 64
18, 94190, Note_on_c, 6, 73, 76
18, 94250, Note_off_c, 6, 73, 64
18, 94331, Note_on_c, 6, 74, 98
18, 94442, Note_on_c, 6, 78, 64
18, 94453, Note_off_c, 6, 74, 64
18, 94501, Note_off_c, 6, 78, 64
18, 94563, Note_on_c, 6, 76, 80
18, 94614, Note_off_c, 6, 76, 64
18, 94687, Note_on_c, 6, 78, 100
18, 94784, Note_on_c, 6, 79, 80
18, 94798, Note_off_c, 6, 78, 64
18, 94856, Note_off_c, 6, 79, 64
18, 94909, Note_on_c, 6, 81, 70
18, 94957, Note_off_c, 6, 81, 64
18, 95036, Note_on_c, 6, 71, 98
18, 95142, Note_on_c, 6, 73, 59
18, 95157, Note_off_c, 6, 71, 64
18, 95222, Note_off_c, 6, 73, 64
18, 95271, Note_on_c, 6, 74, 68
18, 95326, Note_off_c, 6, 74, 64
18, 95402, Note_on_c, 6, 76, 102
18, 95513, Note_on_c, 6, 78, 63
18, 95525, Note_off_c, 6, 76, 64
18, 95584, Note_off_c, 6, 78, 64
18, 95631, Note_on_c, 6, 74, 68
18, 95687, Note_off_c, 6, 74, 64
18, 95755, Note_on_c, 6, 73, 102
18, 95867, Note_on_c, 6, 74, 70
18, 95872, Note_off_c, 6, 73, 64
18, 95940, Note_off_c, 6, 74, 64
18, 95988, Note_on_c, 6, 76, 78
18, 96036, Note_off_c, 6, 76, 64
18, 96121, Note_on_c, 6, 78, 102
18, 96228, Note_on_c, 6, 79, 66
18, 96247, Note_off_c, 6, 78, 64
18, 96295, Note_off_c, 6, 79, 64
18, 96349, Note_on_c, 6, 76, 62
18, 96397, Note_off_c, 6, 76, 64
18, 96475, Note_on_c, 6, 74, 95
18, 96589, Note_on_c, 6, 76, 66
18, 96601, Note_off_c, 6, 74, 64
18, 96662, Note_off_c, 6, 76, 64
18, 96707, Note_on_c, 6, 78, 72
18, 96767, Note_off_c, 6, 78, 64
18, 96835, Note_on_c, 6, 79, 85
18, 96955, Note_on_c, 6, 81, 64
18, 96957, Note_off_c, 6, 79, 64
18, 97020, Note_off_c, 6, 81, 64
18, 97073, Note_on_c, 6, 78, 91
18, 97132, Note_off_c, 6, 78, 64
18, 97194, Note_on_c, 6, 76, 95
18, 97303, Note_on_c, 6, 78, 63
18, 97320, Note_off_c, 6, 76, 64
18, 97373, Note_off_c, 6, 78, 64
18, 97419, Note_on_c, 6, 79, 76
18, 97484, Note_off_c, 6, 79, 64
18, 97552, Note_on_c, 6, 81, 87
18, 97654, Note_on_c, 6, 83, 74
18, 97681, Note_off_c, 6, 81, 64
18, 97742, Note_off_c, 6, 83, 64
18, 97774, Note_on_c, 6, 79, 78
18, 97833, Note_off_c, 6, 79, 64
18, 97911, Note_on_c, 6, 79, 98
18, 98019, Note_on_c, 6, 78, 68
18, 98035, Note_off_c, 6, 79, 64
18, 98327, Note_off_c, 6, 78, 64
18, 98366, Note_on_c, 6, 76, 80
18, 98439, Note_off_c, 6, 76, 64
18, 98471, Note_on_c, 6, 74, 80
18, 98540, Note_off_c, 6, 74, 64
18, 98600, Note_on_c, 6, 76, 89
18, 98711, Note_on_c, 6, 73, 62
18, 98724, Note_off_c, 6, 76, 64
18, 98770, Note_off_c, 6, 73, 64
18, 98833, Note_on_c, 6, 74, 82
18, 98890, Note_off_c, 6, 74, 64
18, 98957, Note_on_c, 6, 69, 91
18, 99067, Note_off_c, 6, 69, 64
18, 99072, Note_on_c, 6, 74, 78
18, 99166, Note_off_c, 6, 74, 64
18, 99194, Note_on_c, 6, 73, 80
18, 99280, Note_off_c, 6, 73, 64
18, 99339, Note_on_c, 6, 62, 85
18, 99448, Note_off_c, 6, 62, 64
18, 99559, Note_on_c, 6, 74, 85
18, 99623, Note_off_c, 6, 74, 64
18, 99691, Note_on_c, 6, 81, 102
18, 100128, Note_off_c, 6, 81, 64
18, 100191, Note_on_c, 6, 83, 85
18, 100258, Note_off_c, 6, 83, 64
18, 100317, Note_on_c, 6, 81, 82
18, 100368, Note_off_c, 6, 81, 64
18, 100436, Note_on_c, 6, 80, 98
18, 100544, Note_on_c, 6, 76, 64
18, 100559, Note_off_c, 6, 80, 64
18, 100610, Note_off_c, 6, 76, 64
18, 100667, Note_on_c, 6, 78, 78
18, 100725, Note_off_c, 6, 78, 64
18, 100789, Note_on_c, 6, 79, 98
18, 100898, Note_on_c, 6, 81, 66
18, 100912, Note_off_c, 6, 79, 64
18, 100958, Note_off_c, 6, 81, 64
18, 101026, Note_on_c, 6, 79, 78
18, 101079, Note_off_c, 6, 79, 64
18, 101158, Note_on_c, 6, 78, 93
18, 101266, Note_on_c, 6, 74, 64
18, 101283, Note_off_c, 6, 78, 64
18, 101332, Note_off_c, 6, 74, 64
18, 101384, Note_on_c, 6, 76, 72
18, 101437, Note_off_c, 6, 76, 64
18, 101514, Note_on_c, 6, 77, 98
18, 101619, Note_on_c, 6, 79, 70
18, 101635, Note_off_c, 6, 77, 64
18, 101687, Note_off_c, 6, 79, 64
18, 101745, Note_on_c, 6, 77, 87
18, 101796, Note_off_c, 6, 77, 64
18, 101874, Note_on_c, 6, 76, 85
18, 101983, Note_on_c, 6, 73, 70
18, 101995, Note_off_c, 6, 76, 64
18, 102043, Note_off_c, 6, 73, 64
18, 102098, Note_on_c, 6, 74, 85
18, 102159, Note_off_c, 6, 74, 64
18, 102233, Note_on_c, 6, 73, 89
18, 102321, Note_on_c, 6, 74, 78
18, 102346, Note_off_c, 6, 73, 64
18, 102409, Note_off_c, 6, 74, 64
18, 102443, Note_on_c, 6, 76, 82
18, 102506, Note_off_c, 6, 76, 64
18, 102581, Note_on_c, 6, 69, 91
18, 102992, Note_off_c, 6, 69, 64
18, 103162, Note_on_c, 6, 81, 87
18, 103232, Note_off_c, 6, 81, 64
18, 103290, Note_on_c, 6, 83, 98
18, 103406, Note_off_c, 6, 83, 64
18, 103530, Note_on_c, 6, 85, 87
18, 103610, Note_off_c, 6, 85, 64
18, 103659, Note_on_c, 6, 86, 102
18, 103758, Note_off_c, 6, 86, 64
18, 103884, Note_on_c, 6, 81, 82
18, 103932, Note_off_c, 6, 81, 64
18, 104013, Note_on_c, 6, 79, 85
18, 104060, Note_on_c, 6, 78, 93
18, 104085, Note_off_c, 6, 79, 64
18, 104156, Note_off_c, 6, 78, 64
18, 104164, Note_on_c, 6, 76, 87
18, 104229, Note_off_c, 6, 76, 64
18, 104273, Note_on_c, 6, 74, 102
18, 104333, Note_off_c, 6, 74, 64
18, 104378, Note_on_c, 6, 76, 82
18, 104449, Note_on_c, 6, 74, 60
18, 104450, Note_off_c, 6, 76, 64
18, 104489, Note_off_c, 6, 74, 64
18, 104500, Note_on_c, 6, 76, 76
18, 104543, Note_off_c, 6, 76, 64
18, 104543, Note_on_c, 6, 74, 70
18, 104583, Note_off_c, 6, 74, 64
18, 104583, Note_on_c, 6, 76, 87
18, 104624, Note_on_c, 6, 74, 70
18, 104626, Note_off_c, 6, 76, 64
18, 104661, Note_off_c, 6, 74, 64
18, 104664, Note_on_c, 6, 76, 93
18, 104706, Note_on_c, 6, 74, 100
18, 104720, Note_off_c, 6, 76, 64
18, 104995, Note_off_c, 6, 74, 64
18, 104995, End_track
19, 0, Start_track
19, 0, Title_t, "Violin"
19, 0, Program_c, 7, 40
19, 0, Control_c, 7, 7, 100
19, 18608, Note_on_c, 7, 66, 102
19, 18660, Note_off_c, 7, 66, 64
19, 18704, Note_on_c, 7, 66, 100
19, 18967, Note_off_c, 7, 66, 64
19, 19063, Note_on_c, 7, 67, 93
19, 19288, Note_off_c, 7, 67, 64
19, 19402, Note_on_c, 7, 66, 93
19, 19912, Note_off_c, 7, 66, 64
19, 20013, Note_on_c, 7, 67, 82
19, 20083, Note_off_c, 7, 67, 64
19, 20128, Note_on_c, 7, 69, 91
19, 20275, Note_off_c, 7, 69, 64
19, 20373, Note_on_c, 7, 67, 80
19, 20426, Note_off_c, 7, 67, 64
19, 20499, Note_on_c, 7, 66, 89
19, 20644, Note_off_c, 7, 66, 64
19, 20734, Note_on_c, 7, 64, 80
19, 20780, Note_off_c, 7, 64, 64
19, 20872, Note_on_c, 7, 62, 98
19, 20986, Note_on_c, 7, 61, 82
19, 21012, Note_off_c, 7, 62, 64
19, 21073, Note_off_c, 7, 61, 64
19, 21096, Note_on_c, 7, 62, 80
19, 21144, Note_off_c, 7, 62, 64
19, 21234, Note_on_c, 7, 57, 89
19, 21350, Note_on_c, 7, 62, 70
19, 21375, Note_off_c, 7, 57, 64
19, 21456, Note_off_c, 7, 62, 64
19, 21467, Note_on_c, 7, 64, 78
19, 21510, Note_off_c, 7, 64, 64
19, 21610, Note_on_c, 7, 66, 93
19, 21862, Note_off_c, 7, 66, 64
19, 21987, Note_on_c, 7, 71, 85
19, 22199, Note_off_c, 7, 71, 64
19, 22342, Note_on_c, 7, 71, 85
19, 22791, Note_off_c, 7, 71, 64
19, 22913, Note_on_c, 7, 71, 78
19, 22974, Note_off_c, 7, 71, 64
19, 23042, Note_on_c, 7, 69, 80
19, 23200, Note_off_c, 7, 69, 64
19, 23282, Note_on_c, 7, 69, 76
19, 23337, Note_off_c, 7, 69, 64
19, 23408, Note_on_c, 7, 69, 91
19, 23569, Note_off_c, 7, 69, 64
19, 23633, Note_on_c, 7, 68, 68
19, 23693, Note_off_c, 7, 68, 64
19, 23773, Note_on_c, 7, 69, 100
19, 23888, Note_on_c, 7, 68, 64
19, 23903, Note_off_c, 7, 69, 64
19, 23965, Note_off_c, 7, 68, 64
19, 23994, Note_on_c, 7, 69, 82
19, 24047, Note_off_c, 7, 69, 64
19, 24132, Note_on_c, 7, 64, 87
19, 24253, Note_on_c, 7, 69, 68
19, 24259, Note_off_c, 7, 64, 64
19, 24324, Note_off_c, 7, 69, 64
19, 24360, Note_on_c, 7, 71, 78
19, 24408, Note_off_c, 7, 71, 64
19, 24485, Note_on_c, 7, 73, 98
19, 24705, Note_off_c, 7, 73, 64
19, 24824, Note_on_c, 7, 73, 91
19, 25029, Note_off_c, 7, 73, 64
19, 25188, Note_on_c, 7, 71, 85
19, 25616, Note_off_c, 7, 71, 64
19, 25787, Note_on_c, 7, 71, 89
19, 25838, Note_off_c, 7, 71, 64
19, 25891, Note_on_c, 7, 71, 98
19, 26124, Note_off_c, 7, 71, 64
19, 26243, Note_on_c, 7, 71, 87
19, 26464, Note_off_c, 7, 71, 64
19, 26611, Note_on_c, 7, 69, 82
19, 27003, Note_off_c, 7, 69, 64
19, 27214, Note_on_c, 7, 73, 70
19, 27283, Note_off_c, 7, 73, 64
19, 27333, Note_on_c, 7, 74, 89
19, 27525, Note_off_c, 7, 74, 64
19, 27565, Note_on_c, 7, 78, 64
19, 27639, Note_off_c, 7, 78, 64
19, 27696, Note_on_c, 7, 76, 89
19, 27836, Note_off_c, 7, 76, 64
19, 27914, Note_on_c, 7, 69, 70
19, 27982, Note_off_c, 7, 69, 64
19, 28055, Note_on_c, 7, 71, 85
19, 28228, Note_off_c, 7, 71, 64
19, 28287, Note_on_c, 7, 74, 70
19, 28350, Note_off_c, 7, 74, 64
19, 28419, Note_on_c, 7, 74, 82
19, 28601, Note_off_c, 7, 74, 64
19, 28664, Note_on_c, 7, 74, 80
19, 28732, Note_off_c, 7, 74, 64
19, 28797, Note_on_c, 7, 74, 87
19, 28970, Note_off_c, 7, 74, 64
19, 29035, Note_on_c, 7, 71, 64
19, 29090, Note_off_c, 7, 71, 64
19, 29160, Note_on_c, 7, 69, 89
19, 29330, Note_off_c, 7, 69, 64
19, 29403, Note_on_c, 7, 74, 66
19, 29468, Note_off_c, 7, 74, 64
19, 29532, Note_on_c, 7, 76, 98
19, 29683, Note_off_c, 7, 76, 64
19, 29752, Note_on_c, 7, 64, 68
19, 29827, Note_off_c, 7, 64, 64
19, 29872, Note_on_c, 7, 68, 87
19, 30052, Note_off_c, 7, 68, 64
19, 30112, Note_on_c, 7, 68, 70
19, 30185, Note_off_c, 7, 68, 64
19, 30244, Note_on_c, 7, 69, 87
19, 30420, Note_off_c, 7, 69, 64
19, 30481, Note_on_c, 7, 69, 80
19, 30549, Note_off_c, 7, 69, 64
19, 30612, Note_on_c, 7, 69, 93
19, 30764, Note_off_c, 7, 69, 64
19, 30834, Note_on_c, 7, 68, 80
19, 30897, Note_off_c, 7, 68, 64
19, 30978, Note_on_c, 7, 66, 89
19, 31634, Note_off_c, 7, 66, 64
19, 31670, Note_on_c, 7, 64, 85
19, 32318, Note_off_c, 7, 64, 64
19, 32389, Note_on_c, 7, 62, 85
19, 33573, Note_off_c, 7, 62, 64
19, 33584, Note_on_c, 7, 64, 87
19, 33654, Note_off_c, 7, 64, 64
19, 33684, Note_on_c, 7, 68, 85
19, 33746, Note_off_c, 7, 68, 64
19, 33805, Note_on_c, 7, 71, 98
19, 33969, Note_off_c, 7, 71, 64
19, 34040, Note_on_c, 7, 68, 80
19, 34104, Note_off_c, 7, 68, 64
19, 34164, Note_on_c, 7, 69, 89
19, 34335, Note_off_c, 7, 69, 64
19, 34391, Note_on_c, 7, 71, 82
19, 34460, Note_off_c, 7, 71, 64
19, 34525, Note_on_c, 7, 69, 89
19, 34704, Note_off_c, 7, 69, 64
19, 34763, Note_on_c, 7, 64, 78
19, 34816, Note_off_c, 7, 64, 64
19, 34903, Note_on_c, 7, 64, 98
19, 35055, Note_off_c, 7, 64, 64
19, 35124, Note_on_c, 7, 64, 85
19, 35174, Note_off_c, 7, 64, 64
19, 35255, Note_on_c, 7, 64, 100
19, 35636, Note_off_c, 7, 64, 64
19, 70383, Note_on_c, 7, 73, 89
19, 70439, Note_off_c, 7, 73, 64
19, 70515, Note_on_c, 7, 73, 100
19, 70787, Note_off_c, 7, 73, 64
19, 70873, Note_on_c, 7, 74, 93
19, 71151, Note_off_c, 7, 74, 64
19, 71232, Note_on_c, 7, 73, 98
19, 71665, Note_off_c, 7, 73, 64
19, 71713, Note_on_c, 7, 74, 85
19, 71786, Note_off_c, 7, 74, 64
19, 71810, Note_on_c, 7, 76, 82
19, 71878, Note_off_c, 7, 76, 64
19, 71949, Note_on_c, 7, 74, 89
19, 72079, Note_off_c, 7, 74, 64
19, 72183, Note_on_c, 7, 66, 60
19, 72259, Note_off_c, 7, 66, 64
19, 72319, Note_on_c, 7, 64, 82
19, 72456, Note_off_c, 7, 64, 64
19, 72554, Note_on_c, 7, 64, 82
19, 72627, Note_off_c, 7, 64, 64
19, 72691, Note_on_c, 7, 66, 72
19, 73084, Note_off_c, 7, 66, 64
19, 73188, Note_on_c, 7, 78, 93
19, 73243, Note_off_c, 7, 78, 64
19, 73296, Note_on_c, 7, 76, 74
19, 73355, Note_off_c, 7, 76, 64
19, 73427, Note_on_c, 7, 74, 98
19, 73687, Note_off_c, 7, 74, 64
19, 73798, Note_on_c, 7, 76, 91
19, 74026, Note_off_c, 7, 76, 64
19, 74154, Note_on_c, 7, 74, 89
19, 74634, Note_off_c, 7, 74, 64
19, 74737, Note_on_c, 7, 66, 76
19, 74823, Note_off_c, 7, 66, 64
19, 74864, Note_on_c, 7, 64, 72
19, 75025, Note_off_c, 7, 64, 64
19, 75103, Note_on_c, 7, 64, 76
19, 75185, Note_off_c, 7, 64, 64
19, 75227, Note_on_c, 7, 66, 80
19, 75367, Note_off_c, 7, 66, 64
19, 75478, Note_on_c, 7, 66, 68
19, 75546, Note_off_c, 7, 66, 64
19, 75603, Note_on_c, 7, 66, 95
19, 76038, Note_off_c, 7, 66, 64
19, 76177, Note_on_c, 7, 66, 66
19, 76250, Note_off_c, 7, 66, 64
19, 76313, Note_on_c, 7, 71, 85
19, 76547, Note_off_c, 7, 71, 64
19, 76676, Note_on_c, 7, 68, 80
19, 76866, Note_off_c, 7, 68, 64
19, 77042, Note_on_c, 7, 68, 80
19, 77280, Note_off_c, 7, 68, 64
19, 77382, Note_on_c, 7, 71, 85
19, 77519, Note_off_c, 7, 71, 64
19, 77610, Note_on_c, 7, 71, 95
19, 77673, Note_off_c, 7, 71, 64
19, 77724, Note_on_c, 7, 71, 102
19, 77873, Note_off_c, 7, 71, 64
19, 77957, Note_on_c, 7, 69, 78
19, 78007, Note_off_c, 7, 69, 64
19, 78078, Note_on_c, 7, 69, 102
19, 78217, Note_off_c, 7, 69, 64
19, 78304, Note_on_c, 7, 68, 89
19, 78370, Note_off_c, 7, 68, 64
19, 78436, Note_on_c, 7, 69, 102
19, 78542, Note_off_c, 7, 69, 64
19, 78547, Note_on_c, 7, 68, 87
19, 78622, Note_off_c, 7, 68, 64
19, 78660, Note_on_c, 7, 69, 87
19, 78713, Note_off_c, 7, 69, 64
19, 78776, Note_on_c, 7, 64, 95
19, 78883, Note_on_c, 7, 69, 82
19, 78896, Note_off_c, 7, 64, 64
19, 78964, Note_off_c, 7, 69, 64
19, 79007, Note_on_c, 7, 73, 93
19, 79075, Note_off_c, 7, 73, 64
19, 79137, Note_on_c, 7, 76, 85
19, 79413, Note_off_c, 7, 76, 64
19, 79522, Note_on_c, 7, 73, 78
19, 79746, Note_off_c, 7, 73, 64
19, 79883, Note_on_c, 7, 73, 78
19, 80150, Note_off_c, 7, 73, 64
19, 80246, Note_on_c, 7, 76, 89
19, 80403, Note_off_c, 7, 76, 64
19, 80481, Note_on_c, 7, 76, 91
19, 80544, Note_off_c, 7, 76, 64
19, 80604, Note_on_c, 7, 76, 95
19, 80749, Note_off_c, 7, 76, 64
19, 80842, Note_on_c, 7, 74, 91
19, 80915, Note_off_c, 7, 74, 64
19, 80975, Note_on_c, 7, 74, 89
19, 81130, Note_off_c, 7, 74, 64
19, 81216, Note_on_c, 7, 73, 74
19, 81294, Note_off_c, 7, 73, 64
19, 81356, Note_on_c, 7, 74, 100
19, 81467, Note_on_c, 7, 73, 63
19, 81481, Note_off_c, 7, 74, 64
19, 81535, Note_off_c, 7, 73, 64
19, 81577, Note_on_c, 7, 74, 82
19, 81650, Note_off_c, 7, 74, 64
19, 81697, Note_on_c, 7, 69, 95
19, 81789, Note_off_c, 7, 69, 64
19, 81808, Note_on_c, 7, 74, 85
19, 81884, Note_off_c, 7, 74, 64
19, 81925, Note_on_c, 7, 73, 85
19, 81987, Note_off_c, 7, 73, 64
19, 82063, Note_on_c, 7, 74, 95
19, 82492, Note_off_c, 7, 74, 64
19, 82533, Note_on_c, 7, 73, 87
19, 82595, Note_off_c, 7, 73, 64
19, 82642, Note_on_c, 7, 74, 85
19, 82704, Note_off_c, 7, 74, 64
19, 82785, Note_on_c, 7, 65, 91
19, 83233, Note_off_c, 7, 65, 64
19, 83389, Note_on_c, 7, 73, 98
19, 83439, Note_off_c, 7, 73, 64
19, 83503, Note_on_c, 7, 73, 93
19, 83916, Note_off_c, 7, 73, 64
19, 83974, Note_on_c, 7, 71, 72
19, 84038, Note_off_c, 7, 71, 64
19, 84078, Note_on_c, 7, 69, 85
19, 84149, Note_off_c, 7, 69, 64
19, 84203, Note_on_c, 7, 71, 85
19, 84673, Note_off_c, 7, 71, 64
19, 84798, Note_on_c, 7, 69, 80
19, 84881, Note_off_c, 7, 69, 64
19, 84952, Note_on_c, 7, 74, 102
19, 85115, Note_off_c, 7, 74, 64
19, 85188, Note_on_c, 7, 73, 60
19, 85272, Note_off_c, 7, 73, 64
19, 85310, Note_on_c, 7, 71, 80
19, 85451, Note_off_c, 7, 71, 64
19, 85540, Note_on_c, 7, 71, 72
19, 85615, Note_off_c, 7, 71, 64
19, 85671, Note_on_c, 7, 69, 85
19, 85795, Note_off_c, 7, 69, 64
19, 85895, Note_on_c, 7, 73, 82
19, 85951, Note_off_c, 7, 73, 64
19, 86027, Note_on_c, 7, 71, 100
19, 86127, Note_on_c, 7, 69, 76
19, 86131, Note_off_c, 7, 71, 64
19, 86226, Note_off_c, 7, 69, 64
19, 86232, Note_on_c, 7, 68, 63
19, 86300, Note_off_c, 7, 68, 64
19, 86372, Note_on_c, 7, 66, 74
19, 86526, Note_off_c, 7, 66, 64
19, 86605, Note_on_c, 7, 66, 68
19, 86665, Note_off_c, 7, 66, 64
19, 86720, Note_on_c, 7, 66, 89
19, 86855, Note_off_c, 7, 66, 64
19, 86940, Note_on_c, 7, 65, 57
19, 87011, Note_off_c, 7, 65, 64
19, 87092, Note_on_c, 7, 61, 66
19, 87531, Note_off_c, 7, 61, 64
19, 87691, Note_on_c, 7, 62, 93
19, 87763, Note_off_c, 7, 62, 64
19, 87817, Note_on_c, 7, 66, 100
19, 88095, Note_off_c, 7, 66, 64
19, 88183, Note_on_c, 7, 67, 87
19, 88415, Note_off_c, 7, 67, 64
19, 88531, Note_on_c, 7, 66, 89
19, 88968, Note_off_c, 7, 66, 64
19, 89008, Note_on_c, 7, 67, 91
19, 89089, Note_off_c, 7, 67, 64
19, 89109, Note_on_c, 7, 69, 70
19, 89179, Note_off_c, 7, 69, 64
19, 89253, Note_on_c, 7, 67, 98
19, 89387, Note_off_c, 7, 67, 64
19, 89487, Note_on_c, 7, 71, 82
19, 89566, Note_off_c, 7, 71, 64
19, 89631, Note_on_c, 7, 69, 89
19, 89745, Note_off_c, 7, 69, 64
19, 89862, Note_on_c, 7, 69, 85
19, 89921, Note_off_c, 7, 69, 64
19, 89988, Note_on_c, 7, 71, 93
19, 90086, Note_off_c, 7, 71, 64
19, 90104, Note_on_c, 7, 74, 80
19, 90172, Note_off_c, 7, 74, 64
19, 90202, Note_on_c, 7, 72, 82
19, 90268, Note_off_c, 7, 72, 64
19, 90343, Note_on_c, 7, 74, 102
19, 90525, Note_off_c, 7, 74, 64
19, 90584, Note_on_c, 7, 71, 74
19, 90653, Note_off_c, 7, 71, 64
19, 90710, Note_on_c, 7, 76, 98
19, 90863, Note_off_c, 7, 76, 64
19, 90945, Note_on_c, 7, 74, 70
19, 91013, Note_off_c, 7, 74, 64
19, 91073, Note_on_c, 7, 73, 85
19, 91485, Note_off_c, 7, 73, 64
19, 91545, Note_on_c, 7, 78, 63
19, 91606, Note_off_c, 7, 78, 64
19, 91651, Note_on_c, 7, 76, 82
19, 91712, Note_off_c, 7, 76, 64
19, 91793, Note_on_c, 7, 75, 102
19, 91949, Note_off_c, 7, 75, 64
19, 92030, Note_on_c, 7, 76, 66
19, 92103, Note_off_c, 7, 76, 64
19, 92151, Note_on_c, 7, 75, 100
19, 92280, Note_off_c, 7, 75, 64
19, 92394, Note_on_c, 7, 78, 74
19, 92459, Note_off_c, 7, 78, 64
19, 92522, Note_on_c, 7, 71, 82
19, 92999, Note_off_c, 7, 71, 64
19, 93102, Note_on_c, 7, 71, 82
19, 93166, Note_off_c, 7, 71, 64
19, 93231, Note_on_c, 7, 71, 98
19, 93325, Note_on_c, 7, 76, 80
19, 93338, Note_off_c, 7, 71, 64
19, 93400, Note_off_c, 7, 76, 64
19, 93448, Note_on_c, 7, 74, 80
19, 93524, Note_off_c, 7, 74, 64
19, 93574, Note_on_c, 7, 73, 85
19, 93711, Note_off_c, 7, 73, 64
19, 93814, Note_on_c, 7, 76, 82
19, 93872, Note_off_c, 7, 76, 64
19, 93944, Note_on_c, 7, 69, 85
19, 94448, Note_off_c, 7, 69, 64
19, 94546, Note_on_c, 7, 69, 66
19, 94618, Note_off_c, 7, 69, 64
19, 94675, Note_on_c, 7, 69, 91
19, 94800, Note_off_c, 7, 69, 64
19, 94918, Note_on_c, 7, 69, 74
19, 94984, Note_off_c, 7, 69, 64
19, 95036, Note_on_c, 7, 67, 80
19, 95216, Note_off_c, 7, 67, 64
19, 95362, Note_on_c, 7, 71, 82
19, 95534, Note_off_c, 7, 71, 64
19, 95735, Note_on_c, 7, 69, 87
19, 95889, Note_off_c, 7, 69, 64
19, 96086, Note_on_c, 7, 73, 85
19, 96248, Note_off_c, 7, 73, 64
19, 96452, Note_on_c, 7, 71, 82
19, 96592, Note_off_c, 7, 71, 64
19, 96804, Note_on_c, 7, 74, 91
19, 96960, Note_off_c, 7, 74, 64
19, 97162, Note_on_c, 7, 76, 89
19, 97329, Note_off_c, 7, 76, 64
19, 97518, Note_on_c, 7, 76, 87
19, 97627, Note_off_c, 7, 76, 64
19, 97876, Note_on_c, 7, 74, 98
19, 97980, Note_on_c, 7, 73, 80
19, 97997, Note_off_c, 7, 74, 64
19, 98070, Note_off_c, 7, 73, 64
19, 98101, Note_on_c, 7, 74, 85
19, 98156, Note_off_c, 7, 74, 64
19, 98235, Note_on_c, 7, 71, 93
19, 98397, Note_off_c, 7, 71, 64
19, 98495, Note_on_c, 7, 71, 89
19, 98573, Note_off_c, 7, 71, 64
19, 98623, Note_on_c, 7, 73, 100
19, 98762, Note_off_c, 7, 73, 64
19, 98850, Note_on_c, 7, 69, 85
19, 98929, Note_off_c, 7, 69, 64
19, 98980, Note_on_c, 7, 71, 89
19, 99088, Note_off_c, 7, 71, 64
19, 99197, Note_on_c, 7, 69, 82
19, 99280, Note_off_c, 7, 69, 64
19, 99340, Note_on_c, 7, 66, 85
19, 99722, Note_off_c, 7, 66, 64
19, 99928, Note_on_c, 7, 72, 82
19, 99992, Note_off_c, 7, 72, 64
19, 100077, Note_on_c, 7, 71, 89
19, 100719, Note_off_c, 7, 71, 64
19, 100775, Note_on_c, 7, 69, 80
19, 101435, Note_off_c, 7, 69, 64
19, 101506, Note_on_c, 7, 67, 87
19, 102677, Note_on_c, 7, 69, 89
19, 102682, Note_off_c, 7, 67, 64
19, 102756, Note_off_c, 7, 69, 64
19, 102789, Note_on_c, 7, 73, 93
19, 102870, Note_off_c, 7, 73, 64
19, 102920, Note_on_c, 7, 76, 100
19, 103057, Note_off_c, 7, 76, 64
19, 103162, Note_on_c, 7, 73, 74
19, 103254, Note_off_c, 7, 73, 64
19, 103291, Note_on_c, 7, 74, 87
19, 103415, Note_off_c, 7, 74, 64
19, 103524, Note_on_c, 7, 76, 82
19, 103599, Note_off_c, 7, 76, 64
19, 103654, Note_on_c, 7, 74, 87
19, 103778, Note_off_c, 7, 74, 64
19, 103894, Note_on_c, 7, 78, 78
19, 103952, Note_off_c, 7, 78, 64
19, 104023, Note_on_c, 7, 74, 102
19, 104122, Note_on_c, 7, 73, 64
19, 104140, Note_off_c, 7, 74, 64
19, 104203, Note_off_c, 7, 73, 64
19, 104233, Note_on_c, 7, 74, 95
19, 104283, Note_off_c, 7, 74, 64
19, 104382, Note_on_c, 7, 69, 102
19, 104856, Note_off_c, 7, 69, 64
19, 104856, End_track
20, 0, Start_track
20, 0, Title_t, "Viola"
20, 0, Program_c, 8, 41
20, 0, Control_c, 8, 7, 100
20, 18586, Note_on_c, 8, 62, 102
20, 18631, Note_off_c, 8, 62, 64
20, 18712, Note_on_c, 8, 62, 105
20, 18969, Note_off_c, 8, 62, 64
20, 19065, Note_on_c, 8, 62, 107
20, 19295, Note_off_c, 8, 62, 64
20, 19412, Note_on_c, 8, 62, 105
20, 19899, Note_off_c, 8, 62, 64
20, 19997, Note_on_c, 8, 55, 82
20, 20065, Note_off_c, 8, 55, 64
20, 20124, Note_on_c, 8, 62, 85
20, 20285, Note_off_c, 8, 62, 64
20, 20368, Note_on_c, 8, 62, 87
20, 20422, Note_off_c, 8, 62, 64
20, 20485, Note_on_c, 8, 62, 91
20, 20648, Note_off_c, 8, 62, 64
20, 20721, Note_on_c, 8, 61, 82
20, 20779, Note_off_c, 8, 61, 64
20, 20861, Note_on_c, 8, 57, 91
20, 20973, Note_on_c, 8, 55, 78
20, 20997, Note_off_c, 8, 57, 64
20, 21058, Note_off_c, 8, 55, 64
20, 21092, Note_on_c, 8, 57, 91
20, 21153, Note_off_c, 8, 57, 64
20, 21222, Note_on_c, 8, 54, 100
20, 21337, Note_on_c, 8, 57, 72
20, 21355, Note_off_c, 8, 54, 64
20, 21431, Note_off_c, 8, 57, 64
20, 21456, Note_on_c, 8, 61, 87
20, 21512, Note_off_c, 8, 61, 64
20, 21597, Note_on_c, 8, 62, 85
20, 21878, Note_off_c, 8, 62, 64
20, 21969, Note_on_c, 8, 62, 89
20, 22216, Note_off_c, 8, 62, 64
20, 22319, Note_on_c, 8, 64, 82
20, 22748, Note_off_c, 8, 64, 64
20, 22933, Note_on_c, 8, 64, 82
20, 22998, Note_off_c, 8, 64, 64
20, 23057, Note_on_c, 8, 64, 98
20, 23183, Note_off_c, 8, 64, 64
20, 23284, Note_on_c, 8, 61, 80
20, 23359, Note_off_c, 8, 61, 64
20, 23415, Note_on_c, 8, 66, 87
20, 23561, Note_off_c, 8, 66, 64
20, 23647, Note_on_c, 8, 64, 78
20, 23703, Note_off_c, 8, 64, 64
20, 23769, Note_on_c, 8, 64, 100
20, 23880, Note_on_c, 8, 62, 64
20, 23903, Note_off_c, 8, 64, 64
20, 23965, Note_off_c, 8, 62, 64
20, 23996, Note_on_c, 8, 64, 82
20, 24046, Note_off_c, 8, 64, 64
20, 24124, Note_on_c, 8, 61, 91
20, 24230, Note_on_c, 8, 64, 85
20, 24253, Note_off_c, 8, 61, 64
20, 24311, Note_off_c, 8, 64, 64
20, 24349, Note_on_c, 8, 67, 85
20, 24407, Note_off_c, 8, 67, 64
20, 24476, Note_on_c, 8, 61, 98
20, 24723, Note_off_c, 8, 61, 64
20, 24836, Note_on_c, 8, 66, 89
20, 25054, Note_off_c, 8, 66, 64
20, 25192, Note_on_c, 8, 66, 82
20, 25641, Note_off_c, 8, 66, 64
20, 25776, Note_on_c, 8, 63, 78
20, 25843, Note_off_c, 8, 63, 64
20, 25901, Note_on_c, 8, 64, 85
20, 26129, Note_off_c, 8, 64, 64
20, 26250, Note_on_c, 8, 64, 87
20, 26450, Note_off_c, 8, 64, 64
20, 26604, Note_on_c, 8, 64, 93
20, 27023, Note_off_c, 8, 64, 64
20, 27194, Note_on_c, 8, 69, 87
20, 27253, Note_off_c, 8, 69, 64
20, 27323, Note_on_c, 8, 69, 93
20, 27495, Note_off_c, 8, 69, 64
20, 27560, Note_on_c, 8, 62, 76
20, 27616, Note_off_c, 8, 62, 64
20, 27687, Note_on_c, 8, 64, 91
20, 27836, Note_off_c, 8, 64, 64
20, 27929, Note_on_c, 8, 64, 68
20, 27984, Note_off_c, 8, 64, 64
20, 28057, Note_on_c, 8, 66, 85
20, 28196, Note_off_c, 8, 66, 64
20, 28292, Note_on_c, 8, 59, 64
20, 28355, Note_off_c, 8, 59, 64
20, 28421, Note_on_c, 8, 59, 87
20, 28572, Note_off_c, 8, 59, 64
20, 28672, Note_on_c, 8, 59, 68
20, 28746, Note_off_c, 8, 59, 64
20, 28797, Note_on_c, 8, 64, 87
20, 28928, Note_off_c, 8, 64, 64
20, 29035, Note_on_c, 8, 64, 68
20, 29100, Note_off_c, 8, 64, 64
20, 29169, Note_on_c, 8, 66, 89
20, 29300, Note_off_c, 8, 66, 64
20, 29381, Note_on_c, 8, 66, 82
20, 29461, Note_off_c, 8, 66, 64
20, 29524, Note_on_c, 8, 59, 82
20, 29655, Note_off_c, 8, 59, 64
20, 29754, Note_on_c, 8, 68, 66
20, 29842, Note_off_c, 8, 68, 64
20, 29882, Note_on_c, 8, 71, 87
20, 29996, Note_off_c, 8, 71, 64
20, 30120, Note_on_c, 8, 62, 80
20, 30204, Note_off_c, 8, 62, 64
20, 30252, Note_on_c, 8, 61, 87
20, 30402, Note_off_c, 8, 61, 64
20, 30461, Note_on_c, 8, 64, 85
20, 30526, Note_off_c, 8, 64, 64
20, 30594, Note_on_c, 8, 64, 85
20, 30741, Note_off_c, 8, 64, 64
20, 30817, Note_on_c, 8, 62, 78
20, 30882, Note_off_c, 8, 62, 64
20, 30955, Note_on_c, 8, 61, 87
20, 31211, Note_off_c, 8, 61, 64
20, 31327, Note_on_c, 8, 59, 87
20, 31971, Note_off_c, 8, 59, 64
20, 32026, Note_on_c, 8, 57, 98
20, 32667, Note_off_c, 8, 57, 64
20, 32758, Note_on_c, 8, 56, 98
20, 32849, Note_on_c, 8, 59, 74
20, 32876, Note_off_c, 8, 56, 64
20, 32943, Note_off_c, 8, 59, 64
20, 32968, Note_on_c, 8, 57, 70
20, 33036, Note_off_c, 8, 57, 64
20, 33107, Note_on_c, 8, 59, 91
20, 33220, Note_on_c, 8, 61, 76
20, 33243, Note_off_c, 8, 59, 64
20, 33313, Note_off_c, 8, 61, 64
20, 33336, Note_on_c, 8, 62, 74
20, 33396, Note_off_c, 8, 62, 64
20, 33467, Note_on_c, 8, 56, 87
20, 33564, Note_on_c, 8, 59, 82
20, 33588, Note_off_c, 8, 56, 64
20, 33664, Note_off_c, 8, 59, 64
20, 33687, Note_on_c, 8, 62, 80
20, 33730, Note_off_c, 8, 62, 64
20, 33821, Note_on_c, 8, 68, 105
20, 33975, Note_off_c, 8, 68, 64
20, 34043, Note_on_c, 8, 64, 82
20, 34128, Note_off_c, 8, 64, 64
20, 34167, Note_on_c, 8, 57, 72
20, 34301, Note_off_c, 8, 57, 64
20, 34396, Note_on_c, 8, 64, 80
20, 34459, Note_off_c, 8, 64, 64
20, 34517, Note_on_c, 8, 64, 93
20, 34682, Note_off_c, 8, 64, 64
20, 34769, Note_on_c, 8, 61, 82
20, 34856, Note_off_c, 8, 61, 64
20, 34889, Note_on_c, 8, 59, 91
20, 35042, Note_off_c, 8, 59, 64
20, 35138, Note_on_c, 8, 59, 87
20, 35201, Note_off_c, 8, 59, 64
20, 35262, Note_on_c, 8, 61, 107
20, 35649, Note_off_c, 8, 61, 64
20, 70356, Note_on_c, 8, 64, 85
20, 70427, Note_off_c, 8, 64, 64
20, 70494, Note_on_c, 8, 69, 87
20, 70757, Note_off_c, 8, 69, 64
20, 70864, Note_on_c, 8, 69, 98
20, 71083, Note_off_c, 8, 69, 64
20, 71219, Note_on_c, 8, 69, 87
20, 71646, Note_off_c, 8, 69, 64
20, 71804, Note_on_c, 8, 61, 82
20, 71883, Note_off_c, 8, 61, 64
20, 71954, Note_on_c, 8, 57, 82
20, 72079, Note_off_c, 8, 57, 64
20, 72180, Note_on_c, 8, 59, 82
20, 72256, Note_off_c, 8, 59, 64
20, 72312, Note_on_c, 8, 55, 85
20, 72443, Note_off_c, 8, 55, 64
20, 72544, Note_on_c, 8, 59, 82
20, 72625, Note_off_c, 8, 59, 64
20, 72673, Note_on_c, 8, 61, 82
20, 72806, Note_off_c, 8, 61, 64
20, 72917, Note_on_c, 8, 58, 68
20, 72991, Note_off_c, 8, 58, 64
20, 73054, Note_on_c, 8, 59, 102
20, 73165, Note_on_c, 8, 61, 72
20, 73177, Note_off_c, 8, 59, 64
20, 73231, Note_off_c, 8, 61, 64
20, 73283, Note_on_c, 8, 58, 80
20, 73329, Note_off_c, 8, 58, 64
20, 73405, Note_on_c, 8, 59, 95
20, 73654, Note_off_c, 8, 59, 64
20, 73787, Note_on_c, 8, 71, 91
20, 74019, Note_off_c, 8, 71, 64
20, 74155, Note_on_c, 8, 71, 87
20, 74556, Note_off_c, 8, 71, 64
20, 74750, Note_on_c, 8, 59, 85
20, 74839, Note_off_c, 8, 59, 64
20, 74882, Note_on_c, 8, 55, 85
20, 75011, Note_off_c, 8, 55, 64
20, 75096, Note_on_c, 8, 59, 80
20, 75185, Note_off_c, 8, 59, 64
20, 75228, Note_on_c, 8, 61, 87
20, 75342, Note_off_c, 8, 61, 64
20, 75459, Note_on_c, 8, 61, 82
20, 75520, Note_off_c, 8, 61, 64
20, 75608, Note_on_c, 8, 62, 95
20, 76020, Note_off_c, 8, 62, 64
20, 76179, Note_on_c, 8, 66, 80
20, 76242, Note_off_c, 8, 66, 64
20, 76326, Note_on_c, 8, 64, 85
20, 76520, Note_off_c, 8, 64, 64
20, 76672, Note_on_c, 8, 64, 87
20, 76848, Note_off_c, 8, 64, 64
20, 77028, Note_on_c, 8, 59, 82
20, 77293, Note_off_c, 8, 59, 64
20, 77383, Note_on_c, 8, 64, 82
20, 77522, Note_off_c, 8, 64, 64
20, 77606, Note_on_c, 8, 64, 82
20, 77669, Note_off_c, 8, 64, 64
20, 77722, Note_on_c, 8, 64, 82
20, 77870, Note_off_c, 8, 64, 64
20, 77959, Note_on_c, 8, 66, 82
20, 78019, Note_off_c, 8, 66, 64
20, 78078, Note_on_c, 8, 66, 85
20, 78208, Note_off_c, 8, 66, 64
20, 78302, Note_on_c, 8, 64, 87
20, 78360, Note_off_c, 8, 64, 64
20, 78434, Note_on_c, 8, 64, 105
20, 78542, Note_on_c, 8, 62, 66
20, 78569, Note_off_c, 8, 64, 64
20, 78636, Note_off_c, 8, 62, 64
20, 78660, Note_on_c, 8, 64, 76
20, 78703, Note_off_c, 8, 64, 64
20, 78784, Note_on_c, 8, 61, 102
20, 78903, Note_on_c, 8, 64, 78
20, 78923, Note_off_c, 8, 61, 64
20, 78983, Note_off_c, 8, 64, 64
20, 79011, Note_on_c, 8, 69, 80
20, 79064, Note_off_c, 8, 69, 64
20, 79150, Note_on_c, 8, 69, 89
20, 79383, Note_off_c, 8, 69, 64
20, 79519, Note_on_c, 8, 69, 89
20, 79695, Note_off_c, 8, 69, 64
20, 79885, Note_on_c, 8, 64, 91
20, 80145, Note_off_c, 8, 64, 64
20, 80241, Note_on_c, 8, 69, 85
20, 80364, Note_off_c, 8, 69, 64
20, 80475, Note_on_c, 8, 69, 80
20, 80541, Note_off_c, 8, 69, 64
20, 80600, Note_on_c, 8, 69, 95
20, 80763, Note_off_c, 8, 69, 64
20, 80857, Note_on_c, 8, 71, 82
20, 80920, Note_off_c, 8, 71, 64
20, 80975, Note_on_c, 8, 71, 85
20, 81099, Note_off_c, 8, 71, 64
20, 81215, Note_on_c, 8, 69, 76
20, 81277, Note_off_c, 8, 69, 64
20, 81356, Note_on_c, 8, 69, 93
20, 81443, Note_on_c, 8, 67, 63
20, 81468, Note_off_c, 8, 69, 64
20, 81538, Note_off_c, 8, 67, 64
20, 81569, Note_on_c, 8, 69, 70
20, 81627, Note_off_c, 8, 69, 64
20, 81698, Note_on_c, 8, 66, 78
20, 81796, Note_on_c, 8, 62, 82
20, 81809, Note_off_c, 8, 66, 64
20, 81869, Note_off_c, 8, 62, 64
20, 81922, Note_on_c, 8, 69, 85
20, 81982, Note_off_c, 8, 69, 64
20, 82063, Note_on_c, 8, 69, 100
20, 82164, Note_on_c, 8, 68, 66
20, 82190, Note_off_c, 8, 69, 64
20, 82245, Note_off_c, 8, 68, 64
20, 82278, Note_on_c, 8, 66, 85
20, 82359, Note_off_c, 8, 66, 64
20, 82410, Note_on_c, 8, 71, 95
20, 82540, Note_off_c, 8, 71, 64
20, 82654, Note_on_c, 8, 69, 80
20, 82713, Note_off_c, 8, 69, 64
20, 82780, Note_on_c, 8, 68, 91
20, 83220, Note_off_c, 8, 68, 64
20, 83376, Note_on_c, 8, 65, 72
20, 83440, Note_off_c, 8, 65, 64
20, 83508, Note_on_c, 8, 66, 95
20, 83599, Note_on_c, 8, 68, 74
20, 83633, Note_off_c, 8, 66, 64
20, 83704, Note_off_c, 8, 68, 64
20, 83720, Note_on_c, 8, 69, 82
20, 83785, Note_off_c, 8, 69, 64
20, 83856, Note_on_c, 8, 57, 76
20, 83960, Note_off_c, 8, 57, 64
20, 84078, Note_on_c, 8, 61, 78
20, 84158, Note_off_c, 8, 61, 64
20, 84220, Note_on_c, 8, 66, 91
20, 84610, Note_off_c, 8, 66, 64
20, 84803, Note_on_c, 8, 73, 82
20, 84883, Note_off_c, 8, 73, 64
20, 84941, Note_on_c, 8, 71, 82
20, 85040, Note_on_c, 8, 69, 82
20, 85077, Note_off_c, 8, 71, 64
20, 85141, Note_off_c, 8, 69, 64
20, 85156, Note_on_c, 8, 68, 76
20, 85242, Note_off_c, 8, 68, 64
20, 85294, Note_on_c, 8, 66, 95
20, 85415, Note_off_c, 8, 66, 64
20, 85534, Note_on_c, 8, 65, 82
20, 85610, Note_off_c, 8, 65, 64
20, 85658, Note_on_c, 8, 66, 89
20, 86096, Note_off_c, 8, 66, 64
20, 86231, Note_on_c, 8, 68, 85
20, 86302, Note_off_c, 8, 68, 64
20, 86358, Note_on_c, 8, 61, 89
20, 86486, Note_off_c, 8, 61, 64
20, 86595, Note_on_c, 8, 62, 89
20, 86680, Note_off_c, 8, 62, 64
20, 86723, Note_on_c, 8, 56, 68
20, 86845, Note_off_c, 8, 56, 64
20, 86951, Note_on_c, 8, 61, 80
20, 87049, Note_off_c, 8, 61, 64
20, 87085, Note_on_c, 8, 57, 85
20, 87508, Note_off_c, 8, 57, 64
20, 87696, Note_on_c, 8, 57, 82
20, 87759, Note_off_c, 8, 57, 64
20, 87817, Note_on_c, 8, 62, 93
20, 88054, Note_off_c, 8, 62, 64
20, 88188, Note_on_c, 8, 62, 93
20, 88365, Note_off_c, 8, 62, 64
20, 88543, Note_on_c, 8, 57, 89
20, 89023, Note_off_c, 8, 57, 64
20, 89117, Note_on_c, 8, 62, 87
20, 89175, Note_off_c, 8, 62, 64
20, 89255, Note_on_c, 8, 62, 91
20, 89415, Note_off_c, 8, 62, 64
20, 89505, Note_on_c, 8, 64, 82
20, 89573, Note_off_c, 8, 64, 64
20, 89627, Note_on_c, 8, 64, 98
20, 89760, Note_off_c, 8, 64, 64
20, 89854, Note_on_c, 8, 62, 89
20, 89922, Note_off_c, 8, 62, 64
20, 89988, Note_on_c, 8, 62, 87
20, 90394, Note_off_c, 8, 62, 64
20, 90480, Note_on_c, 8, 67, 80
20, 90560, Note_off_c, 8, 67, 64
20, 90589, Note_on_c, 8, 66, 89
20, 90669, Note_off_c, 8, 66, 64
20, 90720, Note_on_c, 8, 71, 89
20, 90848, Note_off_c, 8, 71, 64
20, 90960, Note_on_c, 8, 71, 89
20, 91035, Note_off_c, 8, 71, 64
20, 91080, Note_on_c, 8, 69, 87
20, 91227, Note_off_c, 8, 69, 64
20, 91310, Note_on_c, 8, 67, 76
20, 91393, Note_off_c, 8, 67, 64
20, 91442, Note_on_c, 8, 66, 89
20, 91590, Note_off_c, 8, 66, 64
20, 91664, Note_on_c, 8, 72, 78
20, 91752, Note_off_c, 8, 72, 64
20, 91795, Note_on_c, 8, 69, 95
20, 91909, Note_off_c, 8, 69, 64
20, 92027, Note_on_c, 8, 64, 82
20, 92126, Note_off_c, 8, 64, 64
20, 92159, Note_on_c, 8, 66, 89
20, 92312, Note_off_c, 8, 66, 64
20, 92391, Note_on_c, 8, 69, 80
20, 92469, Note_off_c, 8, 69, 64
20, 92511, Note_on_c, 8, 67, 91
20, 92674, Note_off_c, 8, 67, 64
20, 92744, Note_on_c, 8, 66, 76
20, 92820, Note_off_c, 8, 66, 64
20, 92874, Note_on_c, 8, 64, 85
20, 92986, Note_off_c, 8, 64, 64
20, 93088, Note_on_c, 8, 59, 68
20, 93194, Note_off_c, 8, 59, 64
20, 93224, Note_on_c, 8, 71, 93
20, 93360, Note_off_c, 8, 71, 64
20, 93458, Note_on_c, 8, 66, 78
20, 93562, Note_off_c, 8, 66, 64
20, 93583, Note_on_c, 8, 64, 89
20, 93741, Note_off_c, 8, 64, 64
20, 93829, Note_on_c, 8, 67, 76
20, 93916, Note_off_c, 8, 67, 64
20, 93953, Note_on_c, 8, 66, 89
20, 94064, Note_off_c, 8, 66, 64
20, 94176, Note_on_c, 8, 64, 82
20, 94249, Note_off_c, 8, 64, 64
20, 94309, Note_on_c, 8, 62, 87
20, 94438, Note_off_c, 8, 62, 64
20, 94543, Note_on_c, 8, 57, 82
20, 94627, Note_off_c, 8, 57, 64
20, 94667, Note_on_c, 8, 62, 95
20, 94782, Note_off_c, 8, 62, 64
20, 94900, Note_on_c, 8, 62, 80
20, 94975, Note_off_c, 8, 62, 64
20, 95031, Note_on_c, 8, 62, 95
20, 95196, Note_off_c, 8, 62, 64
20, 95389, Note_on_c, 8, 64, 91
20, 95514, Note_off_c, 8, 64, 64
20, 95736, Note_on_c, 8, 64, 89
20, 95880, Note_off_c, 8, 64, 64
20, 96102, Note_on_c, 8, 66, 89
20, 96240, Note_off_c, 8, 66, 64
20, 96470, Note_on_c, 8, 66, 85
20, 96606, Note_off_c, 8, 66, 64
20, 96829, Note_on_c, 8, 62, 91
20, 96967, Note_off_c, 8, 62, 64
20, 97190, Note_on_c, 8, 69, 91
20, 97332, Note_off_c, 8, 69, 64
20, 97544, Note_on_c, 8, 69, 93
20, 97643, Note_off_c, 8, 69, 64
20, 97886, Note_on_c, 8, 69, 100
20, 97985, Note_on_c, 8, 67, 76
20, 98002, Note_off_c, 8, 69, 64
20, 98086, Note_off_c, 8, 67, 64
20, 98099, Note_on_c, 8, 69, 78
20, 98166, Note_off_c, 8, 69, 64
20, 98229, Note_on_c, 8, 67, 98
20, 98369, Note_off_c, 8, 67, 64
20, 98479, Note_on_c, 8, 66, 80
20, 98551, Note_off_c, 8, 66, 64
20, 98616, Note_on_c, 8, 64, 100
20, 98770, Note_off_c, 8, 64, 64
20, 98853, Note_on_c, 8, 66, 82
20, 98926, Note_off_c, 8, 66, 64
20, 98975, Note_on_c, 8, 64, 98
20, 99078, Note_off_c, 8, 64, 64
20, 99202, Note_on_c, 8, 64, 82
20, 99265, Note_off_c, 8, 64, 64
20, 99356, Note_on_c, 8, 62, 105
20, 99701, Note_off_c, 8, 62, 64
20, 99938, Note_on_c, 8, 66, 82
20, 99991, Note_off_c, 8, 66, 64
20, 100065, Note_on_c, 8, 66, 80
20, 100408, Note_off_c, 8, 66, 64
20, 100423, Note_on_c, 8, 64, 85
20, 101090, Note_off_c, 8, 64, 64
20, 101132, Note_on_c, 8, 62, 82
20, 101746, Note_off_c, 8, 62, 64
20, 101849, Note_on_c, 8, 61, 85
20, 101956, Note_on_c, 8, 64, 78
20, 101978, Note_off_c, 8, 61, 64
20, 102051, Note_off_c, 8, 64, 64
20, 102080, Note_on_c, 8, 62, 66
20, 102148, Note_off_c, 8, 62, 64
20, 102211, Note_on_c, 8, 64, 107
20, 102312, Note_on_c, 8, 66, 85
20, 102339, Note_off_c, 8, 64, 64
20, 102408, Note_off_c, 8, 66, 64
20, 102427, Note_on_c, 8, 67, 72
20, 102481, Note_off_c, 8, 67, 64
20, 102556, Note_on_c, 8, 61, 87
20, 102672, Note_on_c, 8, 64, 80
20, 102683, Note_off_c, 8, 61, 64
20, 102783, Note_off_c, 8, 64, 64
20, 102784, Note_on_c, 8, 67, 74
20, 102902, Note_off_c, 8, 67, 64
20, 102918, Note_on_c, 8, 73, 91
20, 103056, Note_off_c, 8, 73, 64
20, 103154, Note_on_c, 8, 69, 80
20, 103245, Note_off_c, 8, 69, 64
20, 103281, Note_on_c, 8, 62, 89
20, 103417, Note_off_c, 8, 62, 64
20, 103510, Note_on_c, 8, 67, 85
20, 103564, Note_off_c, 8, 67, 64
20, 103645, Note_on_c, 8, 69, 98
20, 103741, Note_off_c, 8, 69, 64
20, 103892, Note_on_c, 8, 74, 100
20, 103955, Note_off_c, 8, 74, 64
20, 104030, Note_on_c, 8, 69, 100
20, 104142, Note_on_c, 8, 67, 82
20, 104149, Note_off_c, 8, 69, 64
20, 104217, Note_off_c, 8, 67, 64
20, 104253, Note_on_c, 8, 66, 98
20, 104314, Note_off_c, 8, 66, 64
20, 104387, Note_on_c, 8, 66, 105
20, 104803, Note_off_c, 8, 66, 64
20, 104803, End_track
21, 0, Start_track
21, 0, Title_t, "Cello"
21, 0, Program_c, 10, 42
21, 0, Control_c, 10, 7, 100
21, 18594, Note_on_c, 10, 50, 91
21, 18660, Note_off_c, 10, 50, 64
21, 18717, Note_on_c, 10, 62, 102
21, 18833, Note_on_c, 10, 61, 82
21, 18849, Note_off_c, 10, 62, 64
21, 18891, Note_off_c, 10, 61, 64
21, 18944, Note_on_c, 10, 62, 89
21, 18995, Note_off_c, 10, 62, 64
21, 19063, Note_on_c, 10, 62, 102
21, 19172, Note_on_c, 10, 61, 82
21, 19197, Note_off_c, 10, 62, 64
21, 19245, Note_off_c, 10, 61, 64
21, 19271, Note_on_c, 10, 62, 80
21, 19320, Note_off_c, 10, 62, 64
21, 19401, Note_on_c, 10, 62, 102
21, 19505, Note_on_c, 10, 61, 70
21, 19534, Note_off_c, 10, 62, 64
21, 19623, Note_on_c, 10, 62, 87
21, 19628, Note_off_c, 10, 61, 64
21, 19689, Note_off_c, 10, 62, 64
21, 19752, Note_on_c, 10, 50, 91
21, 19861, Note_off_c, 10, 50, 64
21, 19975, Note_on_c, 10, 52, 72
21, 20052, Note_off_c, 10, 52, 64
21, 20096, Note_on_c, 10, 54, 85
21, 20252, Note_off_c, 10, 54, 64
21, 20363, Note_on_c, 10, 55, 87
21, 20437, Note_off_c, 10, 55, 64
21, 20480, Note_on_c, 10, 57, 93
21, 20586, Note_off_c, 10, 57, 64
21, 20732, Note_on_c, 10, 45, 85
21, 20793, Note_off_c, 10, 45, 64
21, 20851, Note_on_c, 10, 50, 100
21, 21325, Note_off_c, 10, 50, 64
21, 21476, Note_on_c, 10, 49, 100
21, 21527, Note_off_c, 10, 49, 64
21, 21614, Note_on_c, 10, 47, 100
21, 21727, Note_on_c, 10, 45, 78
21, 21756, Note_off_c, 10, 47, 64
21, 21815, Note_off_c, 10, 45, 64
21, 21860, Note_on_c, 10, 47, 82
21, 21906, Note_off_c, 10, 47, 64
21, 21994, Note_on_c, 10, 45, 89
21, 22093, Note_on_c, 10, 44, 63
21, 22122, Note_off_c, 10, 45, 64
21, 22188, Note_off_c, 10, 44, 64
21, 22204, Note_on_c, 10, 45, 66
21, 22261, Note_off_c, 10, 45, 64
21, 22335, Note_on_c, 10, 44, 95
21, 22441, Note_on_c, 10, 42, 70
21, 22471, Note_off_c, 10, 44, 64
21, 22557, Note_on_c, 10, 44, 85
21, 22564, Note_off_c, 10, 42, 64
21, 22618, Note_off_c, 10, 44, 64
21, 22690, Note_on_c, 10, 40, 91
21, 22807, Note_on_c, 10, 42, 66
21, 22839, Note_off_c, 10, 40, 64
21, 22913, Note_on_c, 10, 44, 82
21, 22919, Note_off_c, 10, 42, 64
21, 22979, Note_off_c, 10, 44, 64
21, 23047, Note_on_c, 10, 45, 82
21, 23166, Note_off_c, 10, 45, 64
21, 23264, Note_on_c, 10, 54, 70
21, 23352, Note_off_c, 10, 54, 64
21, 23400, Note_on_c, 10, 50, 93
21, 23514, Note_off_c, 10, 50, 64
21, 23638, Note_on_c, 10, 52, 78
21, 23703, Note_off_c, 10, 52, 64
21, 23773, Note_on_c, 10, 45, 95
21, 24226, Note_off_c, 10, 45, 64
21, 24346, Note_on_c, 10, 43, 87
21, 24411, Note_off_c, 10, 43, 64
21, 24471, Note_on_c, 10, 42, 87
21, 24592, Note_off_c, 10, 42, 64
21, 24698, Note_on_c, 10, 55, 85
21, 24776, Note_off_c, 10, 55, 64
21, 24819, Note_on_c, 10, 54, 102
21, 24945, Note_off_c, 10, 54, 64
21, 25068, Note_on_c, 10, 52, 64
21, 25132, Note_off_c, 10, 52, 64
21, 25195, Note_on_c, 10, 51, 87
21, 25336, Note_off_c, 10, 51, 64
21, 25434, Note_on_c, 10, 54, 66
21, 25511, Note_off_c, 10, 54, 64
21, 25556, Note_on_c, 10, 51, 82
21, 25680, Note_off_c, 10, 51, 64
21, 25776, Note_on_c, 10, 47, 68
21, 25857, Note_off_c, 10, 47, 64
21, 25910, Note_on_c, 10, 52, 89
21, 26048, Note_off_c, 10, 52, 64
21, 26126, Note_on_c, 10, 54, 64
21, 26207, Note_off_c, 10, 54, 64
21, 26240, Note_on_c, 10, 52, 82
21, 26369, Note_off_c, 10, 52, 64
21, 26482, Note_on_c, 10, 50, 68
21, 26561, Note_off_c, 10, 50, 64
21, 26603, Note_on_c, 10, 49, 98
21, 26753, Note_off_c, 10, 49, 64
21, 26849, Note_on_c, 10, 52, 80
21, 26924, Note_off_c, 10, 52, 64
21, 26970, Note_on_c, 10, 49, 100
21, 27083, Note_off_c, 10, 49, 64
21, 27205, Note_on_c, 10, 45, 80
21, 27258, Note_off_c, 10, 45, 64
21, 27343, Note_on_c, 10, 50, 85
21, 27464, Note_off_c, 10, 50, 64
21, 27576, Note_on_c, 10, 62, 85
21, 27646, Note_off_c, 10, 62, 64
21, 27692, Note_on_c, 10, 61, 105
21, 27807, Note_off_c, 10, 61, 64
21, 27923, Note_on_c, 10, 49, 66
21, 27989, Note_off_c, 10, 49, 64
21, 28038, Note_on_c, 10, 47, 82
21, 28178, Note_off_c, 10, 47, 64
21, 28290, Note_on_c, 10, 59, 85
21, 28363, Note_off_c, 10, 59, 64
21, 28403, Note_on_c, 10, 57, 93
21, 28534, Note_off_c, 10, 57, 64
21, 28643, Note_on_c, 10, 45, 85
21, 28714, Note_off_c, 10, 45, 64
21, 28777, Note_on_c, 10, 44, 91
21, 28918, Note_off_c, 10, 44, 64
21, 29028, Note_on_c, 10, 56, 76
21, 29105, Note_off_c, 10, 56, 64
21, 29145, Note_on_c, 10, 54, 87
21, 29274, Note_off_c, 10, 54, 64
21, 29391, Note_on_c, 10, 42, 89
21, 29476, Note_off_c, 10, 42, 64
21, 29517, Note_on_c, 10, 40, 87
21, 29643, Note_off_c, 10, 40, 64
21, 29749, Note_on_c, 10, 52, 80
21, 29804, Note_off_c, 10, 52, 64
21, 29868, Note_on_c, 10, 50, 87
21, 29969, Note_on_c, 10, 49, 64
21, 29991, Note_off_c, 10, 50, 64
21, 30059, Note_off_c, 10, 49, 64
21, 30097, Note_on_c, 10, 47, 80
21, 30160, Note_off_c, 10, 47, 64
21, 30227, Note_on_c, 10, 49, 100
21, 30340, Note_on_c, 10, 47, 85
21, 30370, Note_off_c, 10, 49, 64
21, 30425, Note_off_c, 10, 47, 64
21, 30451, Note_on_c, 10, 45, 72
21, 30532, Note_off_c, 10, 45, 64
21, 30600, Note_on_c, 10, 52, 91
21, 31051, Note_off_c, 10, 52, 64
21, 31096, Note_on_c, 10, 54, 68
21, 31170, Note_off_c, 10, 54, 64
21, 31205, Note_on_c, 10, 52, 85
21, 31259, Note_off_c, 10, 52, 64
21, 31334, Note_on_c, 10, 51, 102
21, 31437, Note_on_c, 10, 47, 82
21, 31453, Note_off_c, 10, 51, 64
21, 31511, Note_off_c, 10, 47, 64
21, 31557, Note_on_c, 10, 49, 72
21, 31624, Note_off_c, 10, 49, 64
21, 31688, Note_on_c, 10, 50, 89
21, 31799, Note_on_c, 10, 52, 82
21, 31829, Note_off_c, 10, 50, 64
21, 31892, Note_off_c, 10, 52, 64
21, 31925, Note_on_c, 10, 50, 68
21, 31978, Note_off_c, 10, 50, 64
21, 32043, Note_on_c, 10, 49, 98
21, 32149, Note_on_c, 10, 45, 76
21, 32177, Note_off_c, 10, 49, 64
21, 32225, Note_off_c, 10, 45, 64
21, 32278, Note_on_c, 10, 47, 68
21, 32327, Note_off_c, 10, 47, 64
21, 32400, Note_on_c, 10, 48, 102
21, 32505, Note_on_c, 10, 50, 80
21, 32540, Note_off_c, 10, 48, 64
21, 32604, Note_off_c, 10, 50, 64
21, 32629, Note_on_c, 10, 48, 76
21, 32677, Note_off_c, 10, 48, 64
21, 32751, Note_on_c, 10, 47, 93
21, 32852, Note_on_c, 10, 44, 78
21, 32869, Note_off_c, 10, 47, 64
21, 32950, Note_off_c, 10, 44, 64
21, 32970, Note_on_c, 10, 45, 60
21, 33013, Note_off_c, 10, 45, 64
21, 33099, Note_on_c, 10, 44, 102
21, 33199, Note_on_c, 10, 45, 76
21, 33217, Note_off_c, 10, 44, 64
21, 33300, Note_off_c, 10, 45, 64
21, 33309, Note_on_c, 10, 47, 74
21, 33367, Note_off_c, 10, 47, 64
21, 33457, Note_on_c, 10, 40, 95
21, 33939, Note_off_c, 10, 40, 64
21, 34040, Note_on_c, 10, 52, 78
21, 34123, Note_off_c, 10, 52, 64
21, 34164, Note_on_c, 10, 54, 95
21, 34296, Note_off_c, 10, 54, 64
21, 34399, Note_on_c, 10, 56, 82
21, 34489, Note_off_c, 10, 56, 64
21, 34523, Note_on_c, 10, 57, 100
21, 34664, Note_off_c, 10, 57, 64
21, 34765, Note_on_c, 10, 49, 76
21, 34833, Note_off_c, 10, 49, 64
21, 34893, Note_on_c, 10, 52, 98
21, 34999, Note_off_c, 10, 52, 64
21, 35124, Note_on_c, 10, 40, 93
21, 35199, Note_off_c, 10, 40, 64
21, 35247, Note_on_c, 10, 45, 100
21, 35661, Note_off_c, 10, 45, 64
21, 70383, Note_on_c, 10, 45, 93
21, 70446, Note_off_c, 10, 45, 64
21, 70500, Note_on_c, 10, 57, 98
21, 70628, Note_on_c, 10, 56, 78
21, 70647, Note_off_c, 10, 57, 64
21, 70714, Note_off_c, 10, 56, 64
21, 70741, Note_on_c, 10, 57, 82
21, 70792, Note_off_c, 10, 57, 64
21, 70870, Note_on_c, 10, 57, 98
21, 70976, Note_on_c, 10, 56, 62
21, 70999, Note_off_c, 10, 57, 64
21, 71057, Note_off_c, 10, 56, 64
21, 71087, Note_on_c, 10, 57, 87
21, 71141, Note_off_c, 10, 57, 64
21, 71214, Note_on_c, 10, 57, 95
21, 71320, Note_on_c, 10, 56, 66
21, 71344, Note_off_c, 10, 57, 64
21, 71451, Note_off_c, 10, 56, 64
21, 71451, Note_on_c, 10, 57, 80
21, 71534, Note_off_c, 10, 57, 64
21, 71567, Note_on_c, 10, 49, 89
21, 71688, Note_off_c, 10, 49, 64
21, 71781, Note_on_c, 10, 45, 82
21, 71877, Note_off_c, 10, 45, 64
21, 71918, Note_on_c, 10, 50, 95
21, 72051, Note_off_c, 10, 50, 64
21, 72168, Note_on_c, 10, 47, 87
21, 72274, Note_off_c, 10, 47, 64
21, 72287, Note_on_c, 10, 52, 87
21, 72440, Note_off_c, 10, 52, 64
21, 72552, Note_on_c, 10, 55, 78
21, 72640, Note_off_c, 10, 55, 64
21, 72667, Note_on_c, 10, 54, 98
21, 72839, Note_off_c, 10, 54, 64
21, 72920, Note_on_c, 10, 52, 82
21, 73021, Note_off_c, 10, 52, 64
21, 73047, Note_on_c, 10, 50, 89
21, 73177, Note_off_c, 10, 50, 64
21, 73293, Note_on_c, 10, 49, 93
21, 73360, Note_off_c, 10, 49, 64
21, 73432, Note_on_c, 10, 47, 100
21, 73529, Note_on_c, 10, 46, 76
21, 73544, Note_off_c, 10, 47, 64
21, 73614, Note_off_c, 10, 46, 64
21, 73645, Note_on_c, 10, 47, 87
21, 73708, Note_off_c, 10, 47, 64
21, 73779, Note_on_c, 10, 47, 98
21, 73884, Note_on_c, 10, 46, 85
21, 73900, Note_off_c, 10, 47, 64
21, 73985, Note_on_c, 10, 47, 80
21, 73986, Note_off_c, 10, 46, 64
21, 74043, Note_off_c, 10, 47, 64
21, 74129, Note_on_c, 10, 47, 87
21, 74235, Note_on_c, 10, 49, 74
21, 74268, Note_off_c, 10, 47, 64
21, 74342, Note_off_c, 10, 49, 64
21, 74346, Note_on_c, 10, 50, 80
21, 74405, Note_off_c, 10, 50, 64
21, 74482, Note_on_c, 10, 50, 87
21, 74583, Note_on_c, 10, 49, 72
21, 74611, Note_off_c, 10, 50, 64
21, 74674, Note_off_c, 10, 49, 64
21, 74693, Note_on_c, 10, 47, 76
21, 74766, Note_off_c, 10, 47, 64
21, 74849, Note_on_c, 10, 52, 100
21, 74953, Note_on_c, 10, 54, 64
21, 74980, Note_off_c, 10, 52, 64
21, 75073, Note_on_c, 10, 55, 70
21, 75089, Note_off_c, 10, 54, 64
21, 75146, Note_off_c, 10, 55, 64
21, 75218, Note_on_c, 10, 54, 102
21, 75328, Note_on_c, 10, 52, 68
21, 75358, Note_off_c, 10, 54, 64
21, 75434, Note_off_c, 10, 52, 64
21, 75450, Note_on_c, 10, 54, 91
21, 75512, Note_off_c, 10, 54, 64
21, 75588, Note_on_c, 10, 47, 102
21, 75694, Note_on_c, 10, 50, 82
21, 75724, Note_off_c, 10, 47, 64
21, 75795, Note_on_c, 10, 54, 72
21, 75810, Note_off_c, 10, 50, 64
21, 75896, Note_off_c, 10, 54, 64
21, 75934, Note_on_c, 10, 59, 95
21, 76073, Note_off_c, 10, 59, 64
21, 76164, Note_on_c, 10, 57, 80
21, 76247, Note_off_c, 10, 57, 64
21, 76287, Note_on_c, 10, 56, 98
21, 76426, Note_off_c, 10, 56, 64
21, 76527, Note_on_c, 10, 59, 80
21, 76588, Note_off_c, 10, 59, 64
21, 76641, Note_on_c, 10, 59, 89
21, 76782, Note_off_c, 10, 59, 64
21, 76874, Note_on_c, 10, 56, 80
21, 76984, Note_off_c, 10, 56, 64
21, 77005, Note_on_c, 10, 52, 87
21, 77161, Note_off_c, 10, 52, 64
21, 77220, Note_on_c, 10, 56, 63
21, 77297, Note_off_c, 10, 56, 64
21, 77346, Note_on_c, 10, 56, 89
21, 77499, Note_off_c, 10, 56, 64
21, 77590, Note_on_c, 10, 52, 82
21, 77678, Note_off_c, 10, 52, 64
21, 77709, Note_on_c, 10, 49, 95
21, 77838, Note_off_c, 10, 49, 64
21, 77941, Note_on_c, 10, 54, 82
21, 78035, Note_off_c, 10, 54, 64
21, 78063, Note_on_c, 10, 50, 89
21, 78196, Note_off_c, 10, 50, 64
21, 78292, Note_on_c, 10, 52, 89
21, 78368, Note_off_c, 10, 52, 64
21, 78436, Note_on_c, 10, 45, 98
21, 78567, Note_off_c, 10, 45, 64
21, 78663, Note_on_c, 10, 57, 91
21, 78732, Note_off_c, 10, 57, 64
21, 78776, Note_on_c, 10, 57, 98
21, 78888, Note_off_c, 10, 57, 64
21, 79011, Note_on_c, 10, 52, 89
21, 79097, Note_off_c, 10, 52, 64
21, 79146, Note_on_c, 10, 49, 95
21, 79267, Note_off_c, 10, 49, 64
21, 79383, Note_on_c, 10, 52, 80
21, 79458, Note_off_c, 10, 52, 64
21, 79499, Note_on_c, 10, 52, 85
21, 79650, Note_off_c, 10, 52, 64
21, 79729, Note_on_c, 10, 49, 78
21, 79829, Note_off_c, 10, 49, 64
21, 79877, Note_on_c, 10, 45, 87
21, 80031, Note_off_c, 10, 45, 64
21, 80112, Note_on_c, 10, 49, 91
21, 80180, Note_off_c, 10, 49, 64
21, 80225, Note_on_c, 10, 49, 95
21, 80349, Note_off_c, 10, 49, 64
21, 80451, Note_on_c, 10, 45, 76
21, 80559, Note_off_c, 10, 45, 64
21, 80595, Note_on_c, 10, 42, 80
21, 80730, Note_off_c, 10, 42, 64
21, 80816, Note_on_c, 10, 47, 76
21, 80952, Note_off_c, 10, 47, 64
21, 80967, Note_on_c, 10, 43, 91
21, 81134, Note_off_c, 10, 43, 64
21, 81221, Note_on_c, 10, 45, 91
21, 81306, Note_off_c, 10, 45, 64
21, 81356, Note_on_c, 10, 38, 98
21, 81470, Note_off_c, 10, 38, 64
21, 81576, Note_on_c, 10, 50, 87
21, 81672, Note_off_c, 10, 50, 64
21, 81698, Note_on_c, 10, 54, 91
21, 81819, Note_off_c, 10, 54, 64
21, 81927, Note_on_c, 10, 57, 85
21, 82015, Note_off_c, 10, 57, 64
21, 82064, Note_on_c, 10, 62, 100
21, 82202, Note_off_c, 10, 62, 64
21, 82309, Note_on_c, 10, 61, 82
21, 82391, Note_off_c, 10, 61, 64
21, 82432, Note_on_c, 10, 59, 93
21, 82811, Note_off_c, 10, 59, 64
21, 82884, Note_on_c, 10, 56, 70
21, 82962, Note_off_c, 10, 56, 64
21, 82997, Note_on_c, 10, 53, 70
21, 83066, Note_off_c, 10, 53, 64
21, 83129, Note_on_c, 10, 49, 98
21, 83233, Note_on_c, 10, 53, 74
21, 83243, Note_off_c, 10, 49, 64
21, 83290, Note_off_c, 10, 53, 64
21, 83348, Note_on_c, 10, 49, 95
21, 83409, Note_off_c, 10, 49, 64
21, 83493, Note_on_c, 10, 54, 93
21, 83621, Note_off_c, 10, 54, 64
21, 83730, Note_on_c, 10, 42, 91
21, 83821, Note_off_c, 10, 42, 64
21, 83850, Note_on_c, 10, 54, 100
21, 83967, Note_off_c, 10, 54, 64
21, 84086, Note_on_c, 10, 52, 80
21, 84144, Note_off_c, 10, 52, 64
21, 84215, Note_on_c, 10, 50, 100
21, 84320, Note_on_c, 10, 47, 82
21, 84333, Note_off_c, 10, 50, 64
21, 84414, Note_off_c, 10, 47, 64
21, 84436, Note_on_c, 10, 50, 68
21, 84495, Note_off_c, 10, 50, 64
21, 84567, Note_on_c, 10, 54, 100
21, 84664, Note_on_c, 10, 50, 66
21, 84671, Note_off_c, 10, 54, 64
21, 84775, Note_on_c, 10, 54, 64
21, 84776, Note_off_c, 10, 50, 64
21, 84850, Note_off_c, 10, 54, 64
21, 84919, Note_on_c, 10, 59, 85
21, 85068, Note_off_c, 10, 59, 64
21, 85158, Note_on_c, 10, 61, 74
21, 85259, Note_off_c, 10, 61, 64
21, 85284, Note_on_c, 10, 62, 102
21, 85386, Note_off_c, 10, 62, 64
21, 85525, Note_on_c, 10, 56, 64
21, 85618, Note_off_c, 10, 56, 64
21, 85651, Note_on_c, 10, 57, 89
21, 85800, Note_off_c, 10, 57, 64
21, 85876, Note_on_c, 10, 54, 62
21, 85989, Note_off_c, 10, 54, 64
21, 86009, Note_on_c, 10, 59, 95
21, 86138, Note_off_c, 10, 59, 64
21, 86246, Note_on_c, 10, 53, 74
21, 86334, Note_off_c, 10, 53, 64
21, 86378, Note_on_c, 10, 54, 100
21, 86501, Note_off_c, 10, 54, 64
21, 86595, Note_on_c, 10, 47, 70
21, 86690, Note_off_c, 10, 47, 64
21, 86716, Note_on_c, 10, 49, 95
21, 86825, Note_off_c, 10, 49, 64
21, 86959, Note_on_c, 10, 37, 76
21, 87031, Note_off_c, 10, 37, 64
21, 87107, Note_on_c, 10, 42, 110
21, 87215, Note_on_c, 10, 45, 72
21, 87221, Note_off_c, 10, 42, 64
21, 87322, Note_on_c, 10, 49, 85
21, 87337, Note_off_c, 10, 45, 64
21, 87392, Note_off_c, 10, 49, 64
21, 87450, Note_on_c, 10, 54, 98
21, 87552, Note_on_c, 10, 52, 74
21, 87563, Note_off_c, 10, 54, 64
21, 87648, Note_off_c, 10, 52, 64
21, 87672, Note_on_c, 10, 54, 72
21, 87721, Note_off_c, 10, 54, 64
21, 87817, Note_on_c, 10, 50, 98
21, 87920, Note_on_c, 10, 49, 76
21, 87945, Note_off_c, 10, 50, 64
21, 88003, Note_off_c, 10, 49, 64
21, 88038, Note_on_c, 10, 50, 82
21, 88099, Note_off_c, 10, 50, 64
21, 88172, Note_on_c, 10, 50, 95
21, 88267, Note_on_c, 10, 49, 66
21, 88291, Note_off_c, 10, 50, 64
21, 88364, Note_off_c, 10, 49, 64
21, 88375, Note_on_c, 10, 50, 87
21, 88422, Note_off_c, 10, 50, 64
21, 88518, Note_on_c, 10, 50, 85
21, 88634, Note_on_c, 10, 54, 66
21, 88673, Note_off_c, 10, 50, 64
21, 88735, Note_on_c, 10, 57, 85
21, 88753, Note_off_c, 10, 54, 64
21, 88851, Note_off_c, 10, 57, 64
21, 88869, Note_on_c, 10, 62, 98
21, 88981, Note_off_c, 10, 62, 64
21, 89102, Note_on_c, 10, 54, 91
21, 89197, Note_off_c, 10, 54, 64
21, 89228, Note_on_c, 10, 55, 91
21, 89362, Note_off_c, 10, 55, 64
21, 89477, Note_on_c, 10, 52, 85
21, 89566, Note_off_c, 10, 52, 64
21, 89607, Note_on_c, 10, 48, 87
21, 89727, Note_off_c, 10, 48, 64
21, 89848, Note_on_c, 10, 50, 91
21, 89924, Note_off_c, 10, 50, 64
21, 89978, Note_on_c, 10, 43, 91
21, 90419, Note_off_c, 10, 43, 64
21, 90459, Note_on_c, 10, 47, 78
21, 90560, Note_on_c, 10, 50, 78
21, 90579, Note_off_c, 10, 47, 64
21, 90656, Note_off_c, 10, 50, 64
21, 90689, Note_on_c, 10, 55, 87
21, 90820, Note_off_c, 10, 55, 64
21, 90949, Note_on_c, 10, 52, 82
21, 91038, Note_off_c, 10, 52, 64
21, 91083, Note_on_c, 10, 57, 102
21, 91507, Note_off_c, 10, 57, 64
21, 91648, Note_on_c, 10, 40, 91
21, 91726, Note_off_c, 10, 40, 64
21, 91782, Note_on_c, 10, 42, 102
21, 91888, Note_off_c, 10, 42, 64
21, 91889, Note_on_c, 10, 45, 82
21, 91997, Note_off_c, 10, 45, 64
21, 92000, Note_on_c, 10, 48, 87
21, 92096, Note_off_c, 10, 48, 64
21, 92159, Note_on_c, 10, 54, 89
21, 92269, Note_off_c, 10, 54, 64
21, 92391, Note_on_c, 10, 51, 80
21, 92474, Note_off_c, 10, 51, 64
21, 92530, Note_on_c, 10, 55, 87
21, 93015, Note_off_c, 10, 55, 64
21, 93102, Note_on_c, 10, 39, 91
21, 93178, Note_off_c, 10, 39, 64
21, 93231, Note_on_c, 10, 40, 100
21, 93329, Note_on_c, 10, 43, 102
21, 93338, Note_off_c, 10, 40, 64
21, 93400, Note_off_c, 10, 43, 64
21, 93434, Note_on_c, 10, 47, 82
21, 93520, Note_off_c, 10, 47, 64
21, 93571, Note_on_c, 10, 52, 95
21, 93694, Note_off_c, 10, 52, 64
21, 93829, Note_on_c, 10, 49, 78
21, 93906, Note_off_c, 10, 49, 64
21, 93950, Note_on_c, 10, 54, 89
21, 94437, Note_off_c, 10, 54, 64
21, 94542, Note_on_c, 10, 37, 91
21, 94625, Note_off_c, 10, 37, 64
21, 94673, Note_on_c, 10, 38, 105
21, 94797, Note_off_c, 10, 38, 64
21, 94900, Note_on_c, 10, 42, 85
21, 95004, Note_off_c, 10, 42, 64
21, 95028, Note_on_c, 10, 43, 87
21, 95155, Note_off_c, 10, 43, 64
21, 95253, Note_on_c, 10, 47, 85
21, 95336, Note_off_c, 10, 47, 64
21, 95377, Note_on_c, 10, 44, 100
21, 95504, Note_off_c, 10, 44, 64
21, 95597, Note_on_c, 10, 40, 61
21, 95680, Note_off_c, 10, 40, 64
21, 95733, Note_on_c, 10, 45, 95
21, 95884, Note_off_c, 10, 45, 64
21, 95957, Note_on_c, 10, 49, 66
21, 96054, Note_off_c, 10, 49, 64
21, 96082, Note_on_c, 10, 46, 93
21, 96218, Note_off_c, 10, 46, 64
21, 96326, Note_on_c, 10, 42, 70
21, 96397, Note_off_c, 10, 42, 64
21, 96467, Note_on_c, 10, 47, 85
21, 96622, Note_off_c, 10, 47, 64
21, 96702, Note_on_c, 10, 45, 68
21, 96796, Note_off_c, 10, 45, 64
21, 96826, Note_on_c, 10, 47, 98
21, 96967, Note_off_c, 10, 47, 64
21, 97059, Note_on_c, 10, 43, 80
21, 97144, Note_off_c, 10, 43, 64
21, 97185, Note_on_c, 10, 49, 102
21, 97353, Note_off_c, 10, 49, 64
21, 97430, Note_on_c, 10, 47, 70
21, 97525, Note_off_c, 10, 47, 64
21, 97556, Note_on_c, 10, 49, 102
21, 97679, Note_off_c, 10, 49, 64
21, 97796, Note_on_c, 10, 45, 87
21, 97844, Note_off_c, 10, 45, 64
21, 97914, Note_on_c, 10, 50, 91
21, 98008, Note_on_c, 10, 52, 72
21, 98036, Note_off_c, 10, 50, 64
21, 98088, Note_off_c, 10, 52, 64
21, 98126, Note_on_c, 10, 54, 95
21, 98199, Note_off_c, 10, 54, 64
21, 98250, Note_on_c, 10, 55, 91
21, 98758, Note_off_c, 10, 55, 64
21, 98833, Note_on_c, 10, 54, 80
21, 98926, Note_off_c, 10, 54, 64
21, 98957, Note_on_c, 10, 55, 95
21, 99094, Note_off_c, 10, 55, 64
21, 99207, Note_on_c, 10, 57, 82
21, 99290, Note_off_c, 10, 57, 64
21, 99345, Note_on_c, 10, 59, 102
21, 99442, Note_on_c, 10, 57, 78
21, 99466, Note_off_c, 10, 59, 64
21, 99510, Note_off_c, 10, 57, 64
21, 99568, Note_on_c, 10, 55, 82
21, 99625, Note_off_c, 10, 55, 64
21, 99701, Note_on_c, 10, 54, 102
21, 99800, Note_on_c, 10, 55, 72
21, 99832, Note_off_c, 10, 54, 64
21, 99883, Note_off_c, 10, 55, 64
21, 99911, Note_on_c, 10, 52, 85
21, 99970, Note_off_c, 10, 52, 64
21, 100052, Note_on_c, 10, 51, 93
21, 100198, Note_off_c, 10, 51, 64
21, 100297, Note_on_c, 10, 59, 78
21, 100370, Note_off_c, 10, 59, 64
21, 100414, Note_on_c, 10, 50, 89
21, 100570, Note_off_c, 10, 50, 64
21, 100648, Note_on_c, 10, 59, 80
21, 100722, Note_off_c, 10, 59, 64
21, 100775, Note_on_c, 10, 49, 82
21, 100925, Note_off_c, 10, 49, 64
21, 100999, Note_on_c, 10, 57, 85
21, 101087, Note_off_c, 10, 57, 64
21, 101135, Note_on_c, 10, 48, 95
21, 101320, Note_off_c, 10, 48, 64
21, 101373, Note_on_c, 10, 57, 82
21, 101455, Note_off_c, 10, 57, 64
21, 101502, Note_on_c, 10, 47, 89
21, 101673, Note_off_c, 10, 47, 64
21, 101719, Note_on_c, 10, 55, 82
21, 101806, Note_off_c, 10, 55, 64
21, 101847, Note_on_c, 10, 46, 85
21, 101994, Note_off_c, 10, 46, 64
21, 102072, Note_on_c, 10, 55, 87
21, 102160, Note_off_c, 10, 55, 64
21, 102211, Note_on_c, 10, 45, 98
21, 102608, Note_off_c, 10, 45, 64
21, 102690, Note_on_c, 10, 49, 87
21, 102769, Note_off_c, 10, 49, 64
21, 102802, Note_on_c, 10, 52, 98
21, 102877, Note_off_c, 10, 52, 64
21, 102928, Note_on_c, 10, 55, 105
21, 103048, Note_on_c, 10, 61, 82
21, 103067, Note_off_c, 10, 55, 64
21, 103140, Note_off_c, 10, 61, 64
21, 103167, Note_on_c, 10, 64, 85
21, 103223, Note_off_c, 10, 64, 64
21, 103293, Note_on_c, 10, 55, 98
21, 103394, Note_off_c, 10, 55, 64
21, 103402, Note_on_c, 10, 54, 89
21, 103485, Note_off_c, 10, 54, 64
21, 103513, Note_on_c, 10, 52, 89
21, 103581, Note_off_c, 10, 52, 64
21, 103647, Note_on_c, 10, 54, 102
21, 103765, Note_on_c, 10, 52, 80
21, 103786, Note_off_c, 10, 54, 64
21, 103857, Note_off_c, 10, 52, 64
21, 103877, Note_on_c, 10, 50, 82
21, 103991, Note_off_c, 10, 50, 64
21, 104018, Note_on_c, 10, 57, 102
21, 104131, Note_off_c, 10, 57, 64
21, 104250, Note_on_c, 10, 45, 89
21, 104329, Note_off_c, 10, 45, 64
21, 104372, Note_on_c, 10, 50, 107
21, 104876, Note_off_c, 10, 50, 64
21, 104876, End_track
0, 0, End_of_file
