0, 0, Header, 1, 8, 384
1, 0, Start_track
1, 0, Title_t, "untitled"
1, 0, SMPTE_offset, 96, 0, 3, 0, 0
1, 0, Time_signature, 3, 2, 24, 8
1, 0, Key_signature, 0, "major"
1, 0, Tempo, 300000
1, 9216, Time_signature, 2, 2, 24, 8
1, 9216, Tempo, 480000
1, 15212, Tempo, 491803
1, 15220, Tempo, 508475
1, 15224, Tempo, 517241
1, 15232, Tempo, 530973
1, 15240, Tempo, 545455
1, 15244, Tempo, 560748
1, 15252, Tempo, 576923
1, 15256, Tempo, 582524
1, 15264, Tempo, 594059
1, 15272, Tempo, 618557
1, 15276, Tempo, 645161
1, 15284, Tempo, 674157
1, 15288, Tempo, 1428571
1, 15304, Tempo, 1428571
1, 15308, Tempo, 1428571
1, 15316, Tempo, 1500000
1, 15320, Tempo, 1578947
1, 15328, Tempo, 1428571
1, 15352, Tempo, 659341
1, 15360, Time_signature, 6, 3, 12, 8
1, 15360, Tempo, 612245
1, 15368, Tempo, 1200000
1, 15374, Tempo, 612245
1, 15418, Tempo, 1500000
1, 15424, Tempo, 612245
1, 15482, Tempo, 618557
1, 15578, Tempo, 612245
1, 15584, Tempo, 600000
1, 15598, Tempo, 594059
1, 15610, Tempo, 588235
1, 15616, Tempo, 594059
1, 15624, Tempo, 612245
1, 15680, Tempo, 600000
1, 24576, Time_signature, 2, 2, 24, 8
1, 24576, Tempo, 491803
1, 36096, Time_signature, 3, 2, 24, 8
1, 36096, Tempo, 638298
1, 39560, Tempo, 645161
1, 39640, Tempo, 645161
1, 39680, Tempo, 659341
1, 39704, Tempo, 666667
1, 39720, Tempo, 674157
1, 39732, Tempo, 681818
1, 39756, Tempo, 689655
1, 39796, Tempo, 705882
1, 39816, Tempo, 722892
1, 39852, Tempo, 731707
1, 39892, Tempo, 750000
1, 39916, Tempo, 750000
1, 39956, Tempo, 769231
1, 39968, Tempo, 779221
1, 39988, Tempo, 789474
1, 40024, Tempo, 800000
1, 40072, Tempo, 800000
1, 40116, Tempo, 800000
1, 40160, Tempo, 789474
1, 40200, Tempo, 779221
1, 40204, Tempo, 769231
1, 40224, Tempo, 750000
1, 40244, Tempo, 750000
1, 40268, Tempo, 731707
1, 40308, Tempo, 731707
1, 40344, Tempo, 722892
1, 40384, Tempo, 705882
1, 40396, Tempo, 697674
1, 40408, Tempo, 689655
1, 40436, Tempo, 681818
1, 40472, Tempo, 674157
1, 40488, Tempo, 674157
1, 40500, Tempo, 659341
1, 40512, Tempo, 645161
1, 40536, Tempo, 645161
1, 40544, Tempo, 638298
1, 40584, Tempo, 625000
1, 40608, Tempo, 625000
1, 40684, Tempo, 625000
1, 44168, Tempo, 625000
1, 44176, Tempo, 625000
1, 44188, Tempo, 645161
1, 44200, Tempo, 645161
1, 44304, Tempo, 659341
1, 44328, Tempo, 666667
1, 44380, Tempo, 674157
1, 44432, Tempo, 674157
1, 44464, Tempo, 681818
1, 44476, Tempo, 689655
1, 44496, Tempo, 697674
1, 44520, Tempo, 705882
1, 44568, Tempo, 722892
1, 44612, Tempo, 731707
1, 44624, Tempo, 731707
1, 44664, Tempo, 750000
1, 44676, Tempo, 750000
1, 44712, Tempo, 769231
1, 44764, Tempo, 779221
1, 44836, Tempo, 769231
1, 44848, Tempo, 750000
1, 44872, Tempo, 750000
1, 44900, Tempo, 731707
1, 44968, Tempo, 731707
1, 44976, Tempo, 722892
1, 45000, Tempo, 705882
1, 45040, Tempo, 697674
1, 45156, Tempo, 689655
1, 45160, Tempo, 681818
1, 45168, Tempo, 674157
1, 45176, Tempo, 674157
1, 45180, Tempo, 659341
1, 45200, Tempo, 645161
1, 45220, Tempo, 645161
1, 45244, Tempo, 638298
1, 45252, Tempo, 625000
1, 45276, Tempo, 625000
1, 48772, Tempo, 625000
1, 48784, Tempo, 638298
1, 48792, Tempo, 645161
1, 48800, Tempo, 645161
1, 48812, Tempo, 659341
1, 48824, Tempo, 666667
1, 48832, Tempo, 674157
1, 48836, Tempo, 681818
1, 48856, Tempo, 689655
1, 48864, Tempo, 697674
1, 48868, Tempo, 705882
1, 48880, Tempo, 722892
1, 48908, Tempo, 731707
1, 48932, Tempo, 731707
1, 48992, Tempo, 750000
1, 49024, Tempo, 750000
1, 49068, Tempo, 769231
1, 49520, Tempo, 750000
1, 49548, Tempo, 750000
1, 49568, Tempo, 731707
1, 49600, Tempo, 731707
1, 49664, Tempo, 722892
1, 49720, Tempo, 705882
1, 49740, Tempo, 697674
1, 49760, Tempo, 689655
1, 49776, Tempo, 681818
1, 49796, Tempo, 674157
1, 49808, Tempo, 674157
1, 49824, Tempo, 666667
1, 49828, Tempo, 659341
1, 49848, Tempo, 645161
1, 49856, Tempo, 645161
1, 49860, Tempo, 638298
1, 49872, Tempo, 625000
1, 49888, Tempo, 625000
1, 49892, Tempo, 618557
1, 49904, Tempo, 612245
1, 52992, Tempo, 625000
1, 53056, Tempo, 681818
1, 53072, Tempo, 697674
1, 53076, Tempo, 705882
1, 53084, Tempo, 722892
1, 53096, Tempo, 731707
1, 53116, Tempo, 731707
1, 53120, Tempo, 750000
1, 53136, Tempo, 750000
1, 53148, Tempo, 769231
1, 53160, Tempo, 779221
1, 53172, Tempo, 789474
1, 53184, Tempo, 800000
1, 53200, Tempo, 800000
1, 53216, Tempo, 821918
1, 53224, Tempo, 833333
1, 53264, Tempo, 833333
1, 53300, Tempo, 845070
1, 53320, Tempo, 869565
1, 53360, Tempo, 869565
1, 53408, Tempo, 895522
1, 53424, Tempo, 895522
1, 53436, Tempo, 923077
1, 53448, Tempo, 937500
1, 53500, Tempo, 967742
1, 53524, Tempo, 983607
1, 53552, Tempo, 1000000
1, 53556, Tempo, 1000000
1, 53608, Tempo, 1016949
1, 53628, Tempo, 1052632
1, 53672, Tempo, 1090909
1, 53712, Tempo, 1090909
1, 53728, Tempo, 1111111
1, 53768, Tempo, 1132075
1, 53780, Tempo, 1153846
1, 53904, Tempo, 1200000
1, 54056, Tempo, 1200000
1, 54504, Tempo, 500000
1, 54512, Tempo, 500000
1, 54516, Tempo, 491803
1, 54524, Tempo, 491803
1, 54528, Time_signature, 2, 2, 24, 8
1, 54544, Tempo, 491803
1, 54720, Tempo, 491803
1, 54792, Tempo, 491803
1, 54816, Tempo, 500000
1, 54836, Tempo, 491803
1, 59904, Time_signature, 3, 2, 24, 8
1, 59904, Tempo, 300000
1, 87156, Tempo, 303030
1, 87164, Tempo, 306122
1, 87168, Tempo, 306122
1, 87176, Tempo, 307692
1, 87184, Tempo, 309278
1, 87196, Tempo, 312500
1, 87208, Tempo, 314136
1, 87216, Tempo, 315789
1, 87220, Tempo, 317460
1, 87228, Tempo, 320856
1, 87240, Tempo, 322581
1, 87248, Tempo, 324324
1, 87260, Tempo, 324324
1, 87272, Tempo, 327869
1, 87284, Tempo, 329670
1, 87292, Tempo, 329670
1, 87296, Tempo, 333333
1, 87316, Tempo, 333333
1, 87344, Tempo, 338983
1, 87356, Tempo, 338983
1, 87376, Tempo, 340909
1, 87380, Tempo, 342857
1, 87388, Tempo, 346821
1, 87408, Tempo, 348837
1, 87444, Tempo, 348837
1, 87452, Tempo, 350877
1, 87464, Tempo, 352941
1, 87476, Tempo, 357143
1, 87516, Tempo, 359281
1, 87528, Tempo, 359281
1, 87536, Tempo, 363636
1, 87560, Tempo, 363636
1, 87592, Tempo, 368098
1, 87616, Tempo, 368098
1, 87632, Tempo, 370370
1, 87636, Tempo, 375000
1, 87648, Tempo, 375000
1, 87676, Tempo, 377358
1, 87712, Tempo, 382166
1, 87752, Tempo, 384615
1, 87764, Tempo, 384615
1, 87792, Tempo, 389610
1, 87816, Tempo, 394737
1, 87840, Tempo, 397351
1, 87868, Tempo, 400000
1, 87880, Tempo, 405405
1, 87888, Tempo, 405405
1, 87900, Tempo, 413793
1, 87912, Tempo, 413793
1, 87920, Tempo, 419580
1, 87936, Tempo, 422535
1, 87952, Tempo, 428571
1, 87956, Tempo, 428571
1, 87964, Tempo, 437956
1, 87976, Tempo, 437956
1, 87988, Tempo, 444444
1, 87996, Tempo, 447761
1, 88008, Tempo, 454545
1, 88028, Tempo, 454545
1, 88032, Tempo, 458015
1, 88052, Tempo, 461538
1, 88064, Tempo, 465116
1, 88104, Tempo, 468750
1, 88104, End_track
2, 0, Start_track
2, 0, MIDI_port, 0
2, 0, Title_t, "J.S. Bach: Sinfonia to the ""Peasant Cantata,"" BWV 212"
2, 0, End_track
3, 0, Start_track
3, 0, MIDI_port, 0
3, 0, Title_t, "Sequenced & copyright 1997 by T.L. Hubeart Jr."
3, 0, Control_c, 0, 0, 0
3, 0, Control_c, 0, 32, 0
3, 0, Program_c, 0, 40
3, 0, Control_c, 0, 7, 122
3, 0, Control_c, 0, 10, 42
3, 576, Note_on_c, 0, 64, 100
3, 704, Note_on_c, 0, 64, 0
3, 768, Note_on_c, 0, 66, 100
3, 896, Note_on_c, 0, 66, 0
3, 960, Note_on_c, 0, 68, 100
3, 1088, Note_on_c, 0, 68, 0
3, 1152, Note_on_c, 0, 69, 100
3, 1340, Note_on_c, 0, 69, 0
3, 1344, Note_on_c, 0, 68, 100
3, 1532, Note_on_c, 0, 68, 0
3, 1536, Note_on_c, 0, 69, 100
3, 1664, Note_on_c, 0, 69, 0
3, 1728, Note_on_c, 0, 64, 100
3, 1856, Note_on_c, 0, 64, 0
3, 1920, Note_on_c, 0, 66, 100
3, 2048, Note_on_c, 0, 66, 0
3, 2112, Note_on_c, 0, 68, 100
3, 2240, Note_on_c, 0, 68, 0
3, 2304, Note_on_c, 0, 69, 100
3, 2492, Note_on_c, 0, 69, 0
3, 2496, Note_on_c, 0, 68, 100
3, 2684, Note_on_c, 0, 68, 0
3, 2688, Note_on_c, 0, 69, 100
3, 2816, Note_on_c, 0, 69, 0
3, 2880, Note_on_c, 0, 64, 100
3, 3008, Note_on_c, 0, 64, 0
3, 3072, Note_on_c, 0, 66, 100
3, 3200, Note_on_c, 0, 66, 0
3, 3264, Note_on_c, 0, 68, 100
3, 3392, Note_on_c, 0, 68, 0
3, 3456, Note_on_c, 0, 69, 100
3, 3644, Note_on_c, 0, 69, 0
3, 3648, Note_on_c, 0, 68, 100
3, 3836, Note_on_c, 0, 68, 0
3, 3840, Note_on_c, 0, 69, 100
3, 4028, Note_on_c, 0, 69, 0
3, 4032, Note_on_c, 0, 71, 100
3, 4220, Note_on_c, 0, 71, 0
3, 4224, Note_on_c, 0, 73, 100
3, 4412, Note_on_c, 0, 73, 0
3, 4416, Note_on_c, 0, 74, 100
3, 4604, Note_on_c, 0, 74, 0
3, 4608, Note_on_c, 0, 76, 100
3, 4988, Note_on_c, 0, 76, 0
3, 5184, Note_on_c, 0, 64, 82
3, 5312, Note_on_c, 0, 64, 0
3, 5376, Note_on_c, 0, 66, 80
3, 5504, Note_on_c, 0, 66, 0
3, 5568, Note_on_c, 0, 68, 75
3, 5696, Note_on_c, 0, 68, 0
3, 5760, Note_on_c, 0, 69, 75
3, 5948, Note_on_c, 0, 69, 0
3, 5952, Note_on_c, 0, 68, 75
3, 6140, Note_on_c, 0, 68, 0
3, 6144, Note_on_c, 0, 69, 75
3, 6272, Note_on_c, 0, 69, 0
3, 6336, Note_on_c, 0, 64, 75
3, 6464, Note_on_c, 0, 64, 0
3, 6528, Note_on_c, 0, 66, 75
3, 6656, Note_on_c, 0, 66, 0
3, 6720, Note_on_c, 0, 68, 75
3, 6848, Note_on_c, 0, 68, 0
3, 6912, Note_on_c, 0, 69, 75
3, 7100, Note_on_c, 0, 69, 0
3, 7104, Note_on_c, 0, 68, 75
3, 7292, Note_on_c, 0, 68, 0
3, 7296, Note_on_c, 0, 69, 75
3, 7424, Note_on_c, 0, 69, 0
3, 7488, Note_on_c, 0, 64, 75
3, 7616, Note_on_c, 0, 64, 0
3, 7680, Note_on_c, 0, 66, 75
3, 7808, Note_on_c, 0, 66, 0
3, 7872, Note_on_c, 0, 68, 75
3, 8000, Note_on_c, 0, 68, 0
3, 8064, Note_on_c, 0, 69, 75
3, 8252, Note_on_c, 0, 69, 0
3, 8256, Note_on_c, 0, 68, 75
3, 8444, Note_on_c, 0, 68, 0
3, 8448, Note_on_c, 0, 69, 75
3, 8636, Note_on_c, 0, 69, 0
3, 8640, Note_on_c, 0, 71, 75
3, 8828, Note_on_c, 0, 71, 0
3, 8832, Note_on_c, 0, 73, 75
3, 9020, Note_on_c, 0, 73, 0
3, 9024, Note_on_c, 0, 74, 75
3, 9212, Note_on_c, 0, 74, 0
3, 9216, Note_on_c, 0, 76, 100
3, 9404, Note_on_c, 0, 76, 0
3, 9408, Note_on_c, 0, 73, 100
3, 9536, Note_on_c, 0, 73, 0
3, 9600, Note_on_c, 0, 73, 100
3, 9788, Note_on_c, 0, 73, 0
3, 9792, Note_on_c, 0, 69, 100
3, 9920, Note_on_c, 0, 69, 0
3, 9984, Note_on_c, 0, 76, 100
3, 10172, Note_on_c, 0, 76, 0
3, 10176, Note_on_c, 0, 74, 100
3, 10304, Note_on_c, 0, 74, 0
3, 10368, Note_on_c, 0, 73, 100
3, 10624, Note_on_c, 0, 73, 0
3, 10752, Note_on_c, 0, 73, 100
3, 10880, Note_on_c, 0, 73, 0
3, 10944, Note_on_c, 0, 71, 100
3, 11008, Note_on_c, 0, 71, 0
3, 11040, Note_on_c, 0, 73, 100
3, 11104, Note_on_c, 0, 73, 0
3, 11136, Note_on_c, 0, 74, 100
3, 11264, Note_on_c, 0, 74, 0
3, 11328, Note_on_c, 0, 73, 100
3, 11456, Note_on_c, 0, 73, 0
3, 11520, Note_on_c, 0, 71, 100
3, 11900, Note_on_c, 0, 71, 0
3, 11904, Note_on_c, 0, 69, 100
3, 12160, Note_on_c, 0, 69, 0
3, 12288, Note_on_c, 0, 73, 100
3, 12416, Note_on_c, 0, 73, 0
3, 12480, Note_on_c, 0, 73, 100
3, 12544, Note_on_c, 0, 73, 0
3, 12576, Note_on_c, 0, 73, 100
3, 12640, Note_on_c, 0, 73, 0
3, 12672, Note_on_c, 0, 73, 100
3, 12860, Note_on_c, 0, 73, 0
3, 12864, Note_on_c, 0, 69, 100
3, 12992, Note_on_c, 0, 69, 0
3, 13056, Note_on_c, 0, 76, 100
3, 13244, Note_on_c, 0, 76, 0
3, 13248, Note_on_c, 0, 74, 100
3, 13376, Note_on_c, 0, 74, 0
3, 13440, Note_on_c, 0, 73, 100
3, 13696, Note_on_c, 0, 73, 0
3, 13824, Note_on_c, 0, 73, 100
3, 13952, Note_on_c, 0, 73, 0
3, 14016, Note_on_c, 0, 71, 100
3, 14080, Note_on_c, 0, 71, 0
3, 14112, Note_on_c, 0, 73, 100
3, 14176, Note_on_c, 0, 73, 0
3, 14208, Note_on_c, 0, 74, 100
3, 14336, Note_on_c, 0, 74, 0
3, 14400, Note_on_c, 0, 73, 100
3, 14528, Note_on_c, 0, 73, 0
3, 14592, Note_on_c, 0, 71, 100
3, 14972, Note_on_c, 0, 71, 0
3, 14976, Note_on_c, 0, 69, 100
3, 15232, Note_on_c, 0, 69, 0
3, 15360, Note_on_c, 0, 73, 100
3, 15740, Note_on_c, 0, 73, 0
3, 15744, Note_on_c, 0, 74, 100
3, 15932, Note_on_c, 0, 74, 0
3, 15936, Note_on_c, 0, 76, 100
3, 16124, Note_on_c, 0, 76, 0
3, 16128, Note_on_c, 0, 73, 100
3, 16316, Note_on_c, 0, 73, 0
3, 16320, Note_on_c, 0, 74, 100
3, 16508, Note_on_c, 0, 74, 0
3, 16512, Note_on_c, 0, 76, 100
3, 16700, Note_on_c, 0, 76, 0
3, 16704, Note_on_c, 0, 69, 100
3, 16892, Note_on_c, 0, 69, 0
3, 16896, Note_on_c, 0, 78, 100
3, 17084, Note_on_c, 0, 78, 0
3, 17088, Note_on_c, 0, 76, 100
3, 17372, Note_on_c, 0, 76, 0
3, 17472, Note_on_c, 0, 69, 100
3, 17564, Note_on_c, 0, 69, 0
3, 17568, Note_on_c, 0, 71, 100
3, 17660, Note_on_c, 0, 71, 0
3, 17664, Note_on_c, 0, 73, 70
3, 18044, Note_on_c, 0, 73, 0
3, 18048, Note_on_c, 0, 74, 70
3, 18236, Note_on_c, 0, 74, 0
3, 18240, Note_on_c, 0, 76, 70
3, 18428, Note_on_c, 0, 76, 0
3, 18432, Note_on_c, 0, 73, 70
3, 18620, Note_on_c, 0, 73, 0
3, 18624, Note_on_c, 0, 74, 70
3, 18812, Note_on_c, 0, 74, 0
3, 18816, Note_on_c, 0, 76, 70
3, 19004, Note_on_c, 0, 76, 0
3, 19008, Note_on_c, 0, 69, 70
3, 19196, Note_on_c, 0, 69, 0
3, 19200, Note_on_c, 0, 78, 70
3, 19388, Note_on_c, 0, 78, 0
3, 19392, Note_on_c, 0, 76, 70
3, 19676, Note_on_c, 0, 76, 0
3, 19776, Note_on_c, 0, 73, 100
3, 19868, Note_on_c, 0, 73, 0
3, 19872, Note_on_c, 0, 76, 100
3, 19964, Note_on_c, 0, 76, 0
3, 19968, Note_on_c, 0, 74, 100
3, 20348, Note_on_c, 0, 74, 0
3, 20352, Note_on_c, 0, 71, 100
3, 20444, Note_on_c, 0, 71, 0
3, 20448, Note_on_c, 0, 74, 100
3, 20540, Note_on_c, 0, 74, 0
3, 20544, Note_on_c, 0, 73, 100
3, 20924, Note_on_c, 0, 73, 0
3, 20928, Note_on_c, 0, 69, 100
3, 21020, Note_on_c, 0, 69, 0
3, 21024, Note_on_c, 0, 73, 100
3, 21116, Note_on_c, 0, 73, 0
3, 21120, Note_on_c, 0, 71, 100
3, 21308, Note_on_c, 0, 71, 0
3, 21312, Note_on_c, 0, 69, 100
3, 21500, Note_on_c, 0, 69, 0
3, 21504, Note_on_c, 0, 68, 100
3, 21692, Note_on_c, 0, 68, 0
3, 21696, Note_on_c, 0, 69, 100
3, 21980, Note_on_c, 0, 69, 0
3, 22080, Note_on_c, 0, 73, 70
3, 22172, Note_on_c, 0, 73, 0
3, 22176, Note_on_c, 0, 76, 70
3, 22268, Note_on_c, 0, 76, 0
3, 22272, Note_on_c, 0, 74, 70
3, 22652, Note_on_c, 0, 74, 0
3, 22656, Note_on_c, 0, 71, 70
3, 22748, Note_on_c, 0, 71, 0
3, 22752, Note_on_c, 0, 74, 70
3, 22844, Note_on_c, 0, 74, 0
3, 22848, Note_on_c, 0, 73, 70
3, 23228, Note_on_c, 0, 73, 0
3, 23232, Note_on_c, 0, 69, 70
3, 23324, Note_on_c, 0, 69, 0
3, 23328, Note_on_c, 0, 73, 70
3, 23420, Note_on_c, 0, 73, 0
3, 23424, Note_on_c, 0, 71, 70
3, 23612, Note_on_c, 0, 71, 0
3, 23616, Note_on_c, 0, 69, 70
3, 23804, Note_on_c, 0, 69, 0
3, 23808, Note_on_c, 0, 68, 70
3, 23996, Note_on_c, 0, 68, 0
3, 24000, Note_on_c, 0, 69, 70
3, 24284, Note_on_c, 0, 69, 0
3, 24384, Note_on_c, 0, 80, 100
3, 24448, Note_on_c, 0, 80, 0
3, 24480, Note_on_c, 0, 81, 100
3, 24544, Note_on_c, 0, 81, 0
3, 24576, Note_on_c, 0, 83, 100
3, 24704, Note_on_c, 0, 83, 0
3, 24768, Note_on_c, 0, 80, 100
3, 24896, Note_on_c, 0, 80, 0
3, 24960, Note_on_c, 0, 76, 100
3, 25088, Note_on_c, 0, 76, 0
3, 25152, Note_on_c, 0, 78, 100
3, 25216, Note_on_c, 0, 78, 0
3, 25248, Note_on_c, 0, 75, 100
3, 25312, Note_on_c, 0, 75, 0
3, 25344, Note_on_c, 0, 76, 100
3, 25472, Note_on_c, 0, 76, 0
3, 25536, Note_on_c, 0, 71, 100
3, 25664, Note_on_c, 0, 71, 0
3, 25728, Note_on_c, 0, 64, 100
3, 25856, Note_on_c, 0, 64, 0
3, 25920, Note_on_c, 0, 80, 100
3, 25984, Note_on_c, 0, 80, 0
3, 26016, Note_on_c, 0, 81, 100
3, 26080, Note_on_c, 0, 81, 0
3, 26112, Note_on_c, 0, 83, 100
3, 26240, Note_on_c, 0, 83, 0
3, 26304, Note_on_c, 0, 80, 100
3, 26432, Note_on_c, 0, 80, 0
3, 26496, Note_on_c, 0, 76, 100
3, 26624, Note_on_c, 0, 76, 0
3, 26688, Note_on_c, 0, 78, 100
3, 26752, Note_on_c, 0, 78, 0
3, 26784, Note_on_c, 0, 75, 100
3, 26848, Note_on_c, 0, 75, 0
3, 26880, Note_on_c, 0, 76, 100
3, 27264, Note_on_c, 0, 76, 0
3, 27264, Note_on_c, 0, 64, 100
3, 27392, Note_on_c, 0, 64, 0
3, 27456, Note_on_c, 0, 80, 100
3, 27520, Note_on_c, 0, 80, 0
3, 27552, Note_on_c, 0, 81, 100
3, 27616, Note_on_c, 0, 81, 0
3, 27648, Note_on_c, 0, 83, 100
3, 27776, Note_on_c, 0, 83, 0
3, 27840, Note_on_c, 0, 80, 100
3, 27968, Note_on_c, 0, 80, 0
3, 28032, Note_on_c, 0, 76, 100
3, 28160, Note_on_c, 0, 76, 0
3, 28224, Note_on_c, 0, 78, 100
3, 28288, Note_on_c, 0, 78, 0
3, 28320, Note_on_c, 0, 75, 100
3, 28384, Note_on_c, 0, 75, 0
3, 28416, Note_on_c, 0, 76, 100
3, 28544, Note_on_c, 0, 76, 0
3, 28608, Note_on_c, 0, 71, 100
3, 28736, Note_on_c, 0, 71, 0
3, 28800, Note_on_c, 0, 64, 100
3, 28928, Note_on_c, 0, 64, 0
3, 28992, Note_on_c, 0, 80, 100
3, 29056, Note_on_c, 0, 80, 0
3, 29088, Note_on_c, 0, 81, 100
3, 29152, Note_on_c, 0, 81, 0
3, 29184, Note_on_c, 0, 83, 100
3, 29312, Note_on_c, 0, 83, 0
3, 29376, Note_on_c, 0, 80, 100
3, 29504, Note_on_c, 0, 80, 0
3, 29568, Note_on_c, 0, 76, 100
3, 29696, Note_on_c, 0, 76, 0
3, 29760, Note_on_c, 0, 78, 100
3, 29824, Note_on_c, 0, 78, 0
3, 29856, Note_on_c, 0, 75, 100
3, 29920, Note_on_c, 0, 75, 0
3, 29952, Note_on_c, 0, 76, 100
3, 30336, Note_on_c, 0, 76, 0
3, 30336, Note_on_c, 0, 64, 100
3, 30464, Note_on_c, 0, 64, 0
3, 30528, Note_on_c, 0, 71, 100
3, 30592, Note_on_c, 0, 71, 0
3, 30624, Note_on_c, 0, 73, 100
3, 30688, Note_on_c, 0, 73, 0
3, 30720, Note_on_c, 0, 74, 100
3, 30848, Note_on_c, 0, 74, 0
3, 30912, Note_on_c, 0, 71, 100
3, 30976, Note_on_c, 0, 71, 0
3, 31008, Note_on_c, 0, 69, 100
3, 31072, Note_on_c, 0, 69, 0
3, 31104, Note_on_c, 0, 71, 100
3, 31360, Note_on_c, 0, 71, 0
3, 31488, Note_on_c, 0, 83, 100
3, 31616, Note_on_c, 0, 83, 0
3, 31680, Note_on_c, 0, 71, 100
3, 31744, Note_on_c, 0, 71, 0
3, 31776, Note_on_c, 0, 69, 100
3, 31840, Note_on_c, 0, 69, 0
3, 31872, Note_on_c, 0, 71, 100
3, 32000, Note_on_c, 0, 71, 0
3, 32064, Note_on_c, 0, 74, 100
3, 32192, Note_on_c, 0, 74, 0
3, 32256, Note_on_c, 0, 73, 100
3, 32384, Note_on_c, 0, 73, 0
3, 32448, Note_on_c, 0, 71, 100
3, 32512, Note_on_c, 0, 71, 0
3, 32544, Note_on_c, 0, 69, 100
3, 32608, Note_on_c, 0, 69, 0
3, 32640, Note_on_c, 0, 71, 100
3, 32768, Note_on_c, 0, 71, 0
3, 32832, Note_on_c, 0, 68, 100
3, 32960, Note_on_c, 0, 68, 0
3, 33024, Note_on_c, 0, 69, 100
3, 33408, Note_on_c, 0, 69, 0
3, 33408, Note_on_c, 0, 57, 100
3, 33536, Note_on_c, 0, 57, 0
3, 33600, Note_on_c, 0, 68, 100
3, 33664, Note_on_c, 0, 68, 0
3, 33696, Note_on_c, 0, 69, 100
3, 33760, Note_on_c, 0, 69, 0
3, 33792, Note_on_c, 0, 71, 100
3, 33920, Note_on_c, 0, 71, 0
3, 33984, Note_on_c, 0, 71, 100
3, 34048, Note_on_c, 0, 71, 0
3, 34080, Note_on_c, 0, 69, 100
3, 34144, Note_on_c, 0, 69, 0
3, 34176, Note_on_c, 0, 71, 100
3, 34432, Note_on_c, 0, 71, 0
3, 34560, Note_on_c, 0, 74, 100
3, 34688, Note_on_c, 0, 74, 0
3, 34752, Note_on_c, 0, 71, 100
3, 34816, Note_on_c, 0, 71, 0
3, 34848, Note_on_c, 0, 69, 100
3, 34912, Note_on_c, 0, 69, 0
3, 34944, Note_on_c, 0, 71, 100
3, 35072, Note_on_c, 0, 71, 0
3, 35136, Note_on_c, 0, 76, 100
3, 35264, Note_on_c, 0, 76, 0
3, 35328, Note_on_c, 0, 73, 100
3, 35456, Note_on_c, 0, 73, 0
3, 35520, Note_on_c, 0, 71, 100
3, 35584, Note_on_c, 0, 71, 0
3, 35616, Note_on_c, 0, 69, 100
3, 35680, Note_on_c, 0, 69, 0
3, 35712, Note_on_c, 0, 71, 100
3, 35840, Note_on_c, 0, 71, 0
3, 35904, Note_on_c, 0, 68, 100
3, 36032, Note_on_c, 0, 68, 0
3, 36096, Note_on_c, 0, 69, 100
3, 36224, Note_on_c, 0, 69, 0
3, 36288, Note_on_c, 0, 69, 100
3, 36380, Note_on_c, 0, 69, 0
3, 36384, Note_on_c, 0, 71, 100
3, 36476, Note_on_c, 0, 71, 0
3, 36480, Note_on_c, 0, 72, 100
3, 36668, Note_on_c, 0, 72, 0
3, 36672, Note_on_c, 0, 71, 100
3, 36860, Note_on_c, 0, 71, 0
3, 36864, Note_on_c, 0, 69, 100
3, 37052, Note_on_c, 0, 69, 0
3, 37056, Note_on_c, 0, 67, 100
3, 37244, Note_on_c, 0, 67, 0
3, 37248, Note_on_c, 0, 65, 100
3, 37436, Note_on_c, 0, 65, 0
3, 37440, Note_on_c, 0, 64, 100
3, 37568, Note_on_c, 0, 64, 0
3, 37632, Note_on_c, 0, 64, 100
3, 38244, Note_on_c, 0, 64, 0
3, 38400, Note_on_c, 0, 62, 100
3, 38588, Note_on_c, 0, 62, 0
3, 38592, Note_on_c, 0, 64, 100
3, 38780, Note_on_c, 0, 64, 0
3, 38784, Note_on_c, 0, 65, 100
3, 38972, Note_on_c, 0, 65, 0
3, 38976, Note_on_c, 0, 64, 100
3, 39164, Note_on_c, 0, 64, 0
3, 39168, Note_on_c, 0, 62, 100
3, 39356, Note_on_c, 0, 62, 0
3, 39360, Note_on_c, 0, 60, 100
3, 39548, Note_on_c, 0, 60, 0
3, 39552, Note_on_c, 0, 59, 100
3, 39740, Note_on_c, 0, 59, 0
3, 39744, Note_on_c, 0, 57, 100
3, 39872, Note_on_c, 0, 57, 0
3, 39936, Note_on_c, 0, 57, 100
3, 40448, Note_on_c, 0, 57, 0
3, 40704, Note_on_c, 0, 69, 75
3, 40892, Note_on_c, 0, 69, 0
3, 40896, Note_on_c, 0, 71, 75
3, 41084, Note_on_c, 0, 71, 0
3, 41088, Note_on_c, 0, 72, 75
3, 41276, Note_on_c, 0, 72, 0
3, 41280, Note_on_c, 0, 71, 75
3, 41468, Note_on_c, 0, 71, 0
3, 41472, Note_on_c, 0, 69, 75
3, 41660, Note_on_c, 0, 69, 0
3, 41664, Note_on_c, 0, 67, 75
3, 41852, Note_on_c, 0, 67, 0
3, 41856, Note_on_c, 0, 65, 75
3, 42044, Note_on_c, 0, 65, 0
3, 42048, Note_on_c, 0, 64, 75
3, 42176, Note_on_c, 0, 64, 0
3, 42240, Note_on_c, 0, 64, 75
3, 42852, Note_on_c, 0, 64, 0
3, 43008, Note_on_c, 0, 62, 75
3, 43196, Note_on_c, 0, 62, 0
3, 43200, Note_on_c, 0, 64, 75
3, 43388, Note_on_c, 0, 64, 0
3, 43392, Note_on_c, 0, 65, 75
3, 43580, Note_on_c, 0, 65, 0
3, 43584, Note_on_c, 0, 64, 75
3, 43772, Note_on_c, 0, 64, 0
3, 43776, Note_on_c, 0, 62, 75
3, 43964, Note_on_c, 0, 62, 0
3, 43968, Note_on_c, 0, 60, 75
3, 44156, Note_on_c, 0, 60, 0
3, 44160, Note_on_c, 0, 59, 75
3, 44348, Note_on_c, 0, 59, 0
3, 44352, Note_on_c, 0, 57, 75
3, 44480, Note_on_c, 0, 57, 0
3, 44544, Note_on_c, 0, 57, 75
3, 45056, Note_on_c, 0, 57, 0
3, 45312, Note_on_c, 0, 65, 100
3, 45500, Note_on_c, 0, 65, 0
3, 45504, Note_on_c, 0, 64, 100
3, 45632, Note_on_c, 0, 64, 0
3, 45696, Note_on_c, 0, 64, 100
3, 46308, Note_on_c, 0, 64, 0
3, 46464, Note_on_c, 0, 58, 100
3, 46652, Note_on_c, 0, 58, 0
3, 46656, Note_on_c, 0, 57, 100
3, 46784, Note_on_c, 0, 57, 0
3, 46848, Note_on_c, 0, 57, 100
3, 47360, Note_on_c, 0, 57, 0
3, 47616, Note_on_c, 0, 62, 100
3, 47804, Note_on_c, 0, 62, 0
3, 47808, Note_on_c, 0, 64, 100
3, 47996, Note_on_c, 0, 64, 0
3, 48000, Note_on_c, 0, 65, 100
3, 48188, Note_on_c, 0, 65, 0
3, 48192, Note_on_c, 0, 64, 100
3, 48380, Note_on_c, 0, 64, 0
3, 48384, Note_on_c, 0, 62, 100
3, 48572, Note_on_c, 0, 62, 0
3, 48576, Note_on_c, 0, 60, 100
3, 48764, Note_on_c, 0, 60, 0
3, 48768, Note_on_c, 0, 59, 100
3, 48956, Note_on_c, 0, 59, 0
3, 48960, Note_on_c, 0, 57, 100
3, 49088, Note_on_c, 0, 57, 0
3, 49152, Note_on_c, 0, 57, 100
3, 49664, Note_on_c, 0, 57, 0
3, 49920, Note_on_c, 0, 65, 75
3, 50108, Note_on_c, 0, 65, 0
3, 50112, Note_on_c, 0, 64, 75
3, 50240, Note_on_c, 0, 64, 0
3, 50304, Note_on_c, 0, 64, 75
3, 50916, Note_on_c, 0, 64, 0
3, 51072, Note_on_c, 0, 58, 75
3, 51260, Note_on_c, 0, 58, 0
3, 51264, Note_on_c, 0, 57, 75
3, 51392, Note_on_c, 0, 57, 0
3, 51456, Note_on_c, 0, 57, 75
3, 51968, Note_on_c, 0, 57, 0
3, 52224, Note_on_c, 0, 62, 75
3, 52412, Note_on_c, 0, 62, 0
3, 52416, Note_on_c, 0, 64, 75
3, 52604, Note_on_c, 0, 64, 0
3, 52608, Note_on_c, 0, 65, 75
3, 52796, Note_on_c, 0, 65, 0
3, 52800, Note_on_c, 0, 64, 75
3, 52988, Note_on_c, 0, 64, 0
3, 52992, Note_on_c, 0, 62, 75
3, 53180, Note_on_c, 0, 62, 0
3, 53184, Note_on_c, 0, 60, 75
3, 53372, Note_on_c, 0, 60, 0
3, 53376, Note_on_c, 0, 59, 75
3, 53564, Note_on_c, 0, 59, 0
3, 53568, Note_on_c, 0, 57, 75
3, 53696, Note_on_c, 0, 57, 0
3, 53760, Note_on_c, 0, 57, 75
3, 54272, Note_on_c, 0, 57, 0
3, 54528, Note_on_c, 0, 69, 100
3, 54620, Note_on_c, 0, 69, 0
3, 54624, Note_on_c, 0, 76, 100
3, 54716, Note_on_c, 0, 76, 0
3, 54720, Note_on_c, 0, 74, 100
3, 54812, Note_on_c, 0, 74, 0
3, 54816, Note_on_c, 0, 76, 100
3, 54908, Note_on_c, 0, 76, 0
3, 54912, Note_on_c, 0, 77, 100
3, 55040, Note_on_c, 0, 77, 0
3, 55104, Note_on_c, 0, 76, 100
3, 55232, Note_on_c, 0, 76, 0
3, 55296, Note_on_c, 0, 74, 100
3, 55424, Note_on_c, 0, 74, 0
3, 55488, Note_on_c, 0, 71, 100
3, 55616, Note_on_c, 0, 71, 0
3, 55680, Note_on_c, 0, 72, 100
3, 55936, Note_on_c, 0, 72, 0
3, 56064, Note_on_c, 0, 70, 100
3, 56252, Note_on_c, 0, 70, 0
3, 56256, Note_on_c, 0, 69, 100
3, 56384, Note_on_c, 0, 69, 0
3, 56448, Note_on_c, 0, 69, 100
3, 56636, Note_on_c, 0, 69, 0
3, 56640, Note_on_c, 0, 68, 100
3, 56768, Note_on_c, 0, 68, 0
3, 56832, Note_on_c, 0, 69, 100
3, 56924, Note_on_c, 0, 69, 0
3, 56928, Note_on_c, 0, 68, 100
3, 57020, Note_on_c, 0, 68, 0
3, 57024, Note_on_c, 0, 69, 100
3, 57116, Note_on_c, 0, 69, 0
3, 57120, Note_on_c, 0, 71, 100
3, 57212, Note_on_c, 0, 71, 0
3, 57216, Note_on_c, 0, 69, 100
3, 57308, Note_on_c, 0, 69, 0
3, 57312, Note_on_c, 0, 71, 100
3, 57404, Note_on_c, 0, 71, 0
3, 57408, Note_on_c, 0, 72, 100
3, 57500, Note_on_c, 0, 72, 0
3, 57504, Note_on_c, 0, 74, 100
3, 57596, Note_on_c, 0, 74, 0
3, 57600, Note_on_c, 0, 76, 100
3, 57728, Note_on_c, 0, 76, 0
3, 57792, Note_on_c, 0, 74, 100
3, 57884, Note_on_c, 0, 74, 0
3, 57888, Note_on_c, 0, 76, 100
3, 57980, Note_on_c, 0, 76, 0
3, 57984, Note_on_c, 0, 77, 100
3, 58112, Note_on_c, 0, 77, 0
3, 58176, Note_on_c, 0, 76, 100
3, 58304, Note_on_c, 0, 76, 0
3, 58368, Note_on_c, 0, 74, 100
3, 58496, Note_on_c, 0, 74, 0
3, 58560, Note_on_c, 0, 71, 100
3, 58688, Note_on_c, 0, 71, 0
3, 58752, Note_on_c, 0, 72, 100
3, 59008, Note_on_c, 0, 72, 0
3, 59136, Note_on_c, 0, 70, 100
3, 59324, Note_on_c, 0, 70, 0
3, 59328, Note_on_c, 0, 69, 100
3, 59456, Note_on_c, 0, 69, 0
3, 59520, Note_on_c, 0, 69, 100
3, 59708, Note_on_c, 0, 69, 0
3, 59712, Note_on_c, 0, 68, 100
3, 59840, Note_on_c, 0, 68, 0
3, 59904, Note_on_c, 0, 69, 100
3, 60092, Note_on_c, 0, 69, 0
3, 60096, Note_on_c, 0, 68, 100
3, 60284, Note_on_c, 0, 68, 0
3, 60288, Note_on_c, 0, 69, 100
3, 60416, Note_on_c, 0, 69, 0
3, 60480, Note_on_c, 0, 64, 100
3, 60608, Note_on_c, 0, 64, 0
3, 60672, Note_on_c, 0, 66, 100
3, 60800, Note_on_c, 0, 66, 0
3, 60864, Note_on_c, 0, 68, 100
3, 60992, Note_on_c, 0, 68, 0
3, 61056, Note_on_c, 0, 69, 100
3, 61244, Note_on_c, 0, 69, 0
3, 61248, Note_on_c, 0, 68, 100
3, 61436, Note_on_c, 0, 68, 0
3, 61440, Note_on_c, 0, 69, 100
3, 61568, Note_on_c, 0, 69, 0
3, 61632, Note_on_c, 0, 64, 100
3, 61760, Note_on_c, 0, 64, 0
3, 61824, Note_on_c, 0, 66, 100
3, 61952, Note_on_c, 0, 66, 0
3, 62016, Note_on_c, 0, 68, 100
3, 62144, Note_on_c, 0, 68, 0
3, 62208, Note_on_c, 0, 69, 100
3, 62396, Note_on_c, 0, 69, 0
3, 62400, Note_on_c, 0, 68, 100
3, 62588, Note_on_c, 0, 68, 0
3, 62592, Note_on_c, 0, 69, 100
3, 62780, Note_on_c, 0, 69, 0
3, 62784, Note_on_c, 0, 71, 100
3, 62972, Note_on_c, 0, 71, 0
3, 62976, Note_on_c, 0, 73, 100
3, 63164, Note_on_c, 0, 73, 0
3, 63168, Note_on_c, 0, 74, 100
3, 63356, Note_on_c, 0, 74, 0
3, 63360, Note_on_c, 0, 76, 100
3, 63740, Note_on_c, 0, 76, 0
3, 63936, Note_on_c, 0, 64, 82
3, 64064, Note_on_c, 0, 64, 0
3, 64128, Note_on_c, 0, 66, 80
3, 64256, Note_on_c, 0, 66, 0
3, 64320, Note_on_c, 0, 68, 75
3, 64448, Note_on_c, 0, 68, 0
3, 64512, Note_on_c, 0, 69, 75
3, 64700, Note_on_c, 0, 69, 0
3, 64704, Note_on_c, 0, 68, 75
3, 64892, Note_on_c, 0, 68, 0
3, 64896, Note_on_c, 0, 69, 75
3, 65024, Note_on_c, 0, 69, 0
3, 65088, Note_on_c, 0, 64, 75
3, 65216, Note_on_c, 0, 64, 0
3, 65280, Note_on_c, 0, 66, 75
3, 65408, Note_on_c, 0, 66, 0
3, 65472, Note_on_c, 0, 68, 75
3, 65600, Note_on_c, 0, 68, 0
3, 65664, Note_on_c, 0, 69, 75
3, 65852, Note_on_c, 0, 69, 0
3, 65856, Note_on_c, 0, 68, 75
3, 66044, Note_on_c, 0, 68, 0
3, 66048, Note_on_c, 0, 69, 75
3, 66176, Note_on_c, 0, 69, 0
3, 66240, Note_on_c, 0, 64, 75
3, 66368, Note_on_c, 0, 64, 0
3, 66432, Note_on_c, 0, 66, 75
3, 66560, Note_on_c, 0, 66, 0
3, 66624, Note_on_c, 0, 68, 75
3, 66752, Note_on_c, 0, 68, 0
3, 66816, Note_on_c, 0, 69, 75
3, 67004, Note_on_c, 0, 69, 0
3, 67008, Note_on_c, 0, 68, 75
3, 67196, Note_on_c, 0, 68, 0
3, 67200, Note_on_c, 0, 69, 75
3, 67388, Note_on_c, 0, 69, 0
3, 67392, Note_on_c, 0, 71, 75
3, 67580, Note_on_c, 0, 71, 0
3, 67584, Note_on_c, 0, 73, 75
3, 67772, Note_on_c, 0, 73, 0
3, 67776, Note_on_c, 0, 74, 75
3, 67964, Note_on_c, 0, 74, 0
3, 67968, Note_on_c, 0, 76, 75
3, 68572, Note_on_c, 0, 76, 0
3, 68736, Note_on_c, 0, 78, 100
3, 68924, Note_on_c, 0, 78, 0
3, 68928, Note_on_c, 0, 76, 100
3, 69056, Note_on_c, 0, 76, 0
3, 69120, Note_on_c, 0, 76, 100
3, 69308, Note_on_c, 0, 76, 0
3, 69312, Note_on_c, 0, 74, 100
3, 69440, Note_on_c, 0, 74, 0
3, 69504, Note_on_c, 0, 62, 100
3, 69692, Note_on_c, 0, 62, 0
3, 69696, Note_on_c, 0, 61, 100
3, 69824, Note_on_c, 0, 61, 0
3, 69888, Note_on_c, 0, 62, 100
3, 70076, Note_on_c, 0, 62, 0
3, 70080, Note_on_c, 0, 61, 100
3, 70208, Note_on_c, 0, 61, 0
3, 70272, Note_on_c, 0, 62, 100
3, 71036, Note_on_c, 0, 62, 0
3, 71040, Note_on_c, 0, 76, 100
3, 71228, Note_on_c, 0, 76, 0
3, 71232, Note_on_c, 0, 74, 100
3, 71360, Note_on_c, 0, 74, 0
3, 71424, Note_on_c, 0, 74, 100
3, 71612, Note_on_c, 0, 74, 0
3, 71616, Note_on_c, 0, 73, 100
3, 71744, Note_on_c, 0, 73, 0
3, 71808, Note_on_c, 0, 61, 100
3, 71996, Note_on_c, 0, 61, 0
3, 72000, Note_on_c, 0, 59, 100
3, 72128, Note_on_c, 0, 59, 0
3, 72192, Note_on_c, 0, 61, 100
3, 72380, Note_on_c, 0, 61, 0
3, 72384, Note_on_c, 0, 59, 100
3, 72512, Note_on_c, 0, 59, 0
3, 72576, Note_on_c, 0, 61, 100
3, 73340, Note_on_c, 0, 61, 0
3, 73344, Note_on_c, 0, 69, 100
3, 73472, Note_on_c, 0, 69, 0
3, 73536, Note_on_c, 0, 73, 100
3, 73664, Note_on_c, 0, 73, 0
3, 73728, Note_on_c, 0, 71, 100
3, 74108, Note_on_c, 0, 71, 0
3, 74112, Note_on_c, 0, 69, 100
3, 74368, Note_on_c, 0, 69, 0
3, 74496, Note_on_c, 0, 61, 100
3, 74624, Note_on_c, 0, 61, 0
3, 74688, Note_on_c, 0, 64, 100
3, 74816, Note_on_c, 0, 64, 0
3, 74880, Note_on_c, 0, 62, 100
3, 75260, Note_on_c, 0, 62, 0
3, 75264, Note_on_c, 0, 61, 100
3, 75520, Note_on_c, 0, 61, 0
3, 75648, Note_on_c, 0, 81, 100
3, 75836, Note_on_c, 0, 81, 0
3, 75840, Note_on_c, 0, 80, 100
3, 76028, Note_on_c, 0, 80, 0
3, 76032, Note_on_c, 0, 78, 100
3, 76220, Note_on_c, 0, 78, 0
3, 76224, Note_on_c, 0, 76, 100
3, 76412, Note_on_c, 0, 76, 0
3, 76416, Note_on_c, 0, 74, 100
3, 76604, Note_on_c, 0, 74, 0
3, 76608, Note_on_c, 0, 73, 100
3, 76796, Note_on_c, 0, 73, 0
3, 76800, Note_on_c, 0, 71, 100
3, 76988, Note_on_c, 0, 71, 0
3, 76992, Note_on_c, 0, 76, 100
3, 77180, Note_on_c, 0, 76, 0
3, 77184, Note_on_c, 0, 69, 100
3, 77440, Note_on_c, 0, 69, 0
3, 77952, Note_on_c, 0, 66, 100
3, 78140, Note_on_c, 0, 66, 0
3, 78144, Note_on_c, 0, 64, 100
3, 78272, Note_on_c, 0, 64, 0
3, 78336, Note_on_c, 0, 64, 100
3, 78524, Note_on_c, 0, 64, 0
3, 78528, Note_on_c, 0, 62, 100
3, 78656, Note_on_c, 0, 62, 0
3, 78720, Note_on_c, 0, 74, 100
3, 78908, Note_on_c, 0, 74, 0
3, 78912, Note_on_c, 0, 73, 100
3, 79040, Note_on_c, 0, 73, 0
3, 79104, Note_on_c, 0, 74, 100
3, 79292, Note_on_c, 0, 74, 0
3, 79296, Note_on_c, 0, 73, 100
3, 79424, Note_on_c, 0, 73, 0
3, 79488, Note_on_c, 0, 74, 100
3, 80060, Note_on_c, 0, 74, 0
3, 80256, Note_on_c, 0, 64, 100
3, 80444, Note_on_c, 0, 64, 0
3, 80448, Note_on_c, 0, 62, 100
3, 80576, Note_on_c, 0, 62, 0
3, 80640, Note_on_c, 0, 62, 100
3, 80828, Note_on_c, 0, 62, 0
3, 80832, Note_on_c, 0, 61, 100
3, 80960, Note_on_c, 0, 61, 0
3, 81024, Note_on_c, 0, 73, 100
3, 81212, Note_on_c, 0, 73, 0
3, 81216, Note_on_c, 0, 71, 100
3, 81344, Note_on_c, 0, 71, 0
3, 81408, Note_on_c, 0, 73, 100
3, 81596, Note_on_c, 0, 73, 0
3, 81600, Note_on_c, 0, 71, 100
3, 81728, Note_on_c, 0, 71, 0
3, 81792, Note_on_c, 0, 73, 100
3, 82364, Note_on_c, 0, 73, 0
3, 82560, Note_on_c, 0, 61, 100
3, 82688, Note_on_c, 0, 61, 0
3, 82752, Note_on_c, 0, 64, 100
3, 82880, Note_on_c, 0, 64, 0
3, 82944, Note_on_c, 0, 62, 100
3, 83324, Note_on_c, 0, 62, 0
3, 83328, Note_on_c, 0, 61, 100
3, 83584, Note_on_c, 0, 61, 0
3, 83712, Note_on_c, 0, 73, 100
3, 83840, Note_on_c, 0, 73, 0
3, 83904, Note_on_c, 0, 76, 100
3, 84032, Note_on_c, 0, 76, 0
3, 84096, Note_on_c, 0, 74, 100
3, 84476, Note_on_c, 0, 74, 0
3, 84480, Note_on_c, 0, 73, 100
3, 84736, Note_on_c, 0, 73, 0
3, 84864, Note_on_c, 0, 81, 100
3, 85052, Note_on_c, 0, 81, 0
3, 85056, Note_on_c, 0, 80, 100
3, 85244, Note_on_c, 0, 80, 0
3, 85248, Note_on_c, 0, 78, 100
3, 85436, Note_on_c, 0, 78, 0
3, 85440, Note_on_c, 0, 76, 100
3, 85628, Note_on_c, 0, 76, 0
3, 85632, Note_on_c, 0, 74, 100
3, 85820, Note_on_c, 0, 74, 0
3, 85824, Note_on_c, 0, 73, 100
3, 86012, Note_on_c, 0, 73, 0
3, 86016, Note_on_c, 0, 71, 100
3, 86204, Note_on_c, 0, 71, 0
3, 86208, Note_on_c, 0, 76, 100
3, 86396, Note_on_c, 0, 76, 0
3, 86400, Note_on_c, 0, 69, 100
3, 86912, Note_on_c, 0, 69, 0
3, 87168, Note_on_c, 0, 69, 100
3, 87296, Note_on_c, 0, 69, 0
3, 87360, Note_on_c, 0, 68, 100
3, 87488, Note_on_c, 0, 68, 0
3, 87552, Note_on_c, 0, 66, 100
3, 87680, Note_on_c, 0, 66, 0
3, 87744, Note_on_c, 0, 64, 100
3, 87872, Note_on_c, 0, 64, 0
3, 87936, Note_on_c, 0, 62, 100
3, 88064, Note_on_c, 0, 62, 0
3, 88128, Note_on_c, 0, 61, 100
3, 88256, Note_on_c, 0, 61, 0
3, 88320, Note_on_c, 0, 59, 100
3, 88448, Note_on_c, 0, 59, 0
3, 88512, Note_on_c, 0, 64, 100
3, 88640, Note_on_c, 0, 64, 0
3, 88704, Note_on_c, 0, 57, 100
3, 90244, Note_on_c, 0, 57, 0
3, 90244, End_track
4, 0, Start_track
4, 0, MIDI_port, 0
4, 0, Title_t, """Peasant Cantata""--J.S. Bach"
4, 0, Control_c, 1, 0, 0
4, 0, Control_c, 1, 32, 0
4, 0, Program_c, 1, 41
4, 0, Control_c, 1, 7, 97
4, 0, Control_c, 1, 10, 91
4, 1152, Note_on_c, 1, 61, 100
4, 1408, Note_on_c, 1, 61, 0
4, 1536, Note_on_c, 1, 61, 100
4, 1792, Note_on_c, 1, 61, 0
4, 1920, Note_on_c, 1, 62, 100
4, 2176, Note_on_c, 1, 62, 0
4, 2304, Note_on_c, 1, 61, 100
4, 2560, Note_on_c, 1, 61, 0
4, 2688, Note_on_c, 1, 61, 100
4, 2944, Note_on_c, 1, 61, 0
4, 3072, Note_on_c, 1, 59, 100
4, 3328, Note_on_c, 1, 59, 0
4, 3456, Note_on_c, 1, 61, 100
4, 3644, Note_on_c, 1, 61, 0
4, 3648, Note_on_c, 1, 62, 100
4, 3836, Note_on_c, 1, 62, 0
4, 3840, Note_on_c, 1, 61, 100
4, 4028, Note_on_c, 1, 61, 0
4, 4032, Note_on_c, 1, 59, 100
4, 4220, Note_on_c, 1, 59, 0
4, 4224, Note_on_c, 1, 57, 100
4, 4412, Note_on_c, 1, 57, 0
4, 4416, Note_on_c, 1, 59, 100
4, 4604, Note_on_c, 1, 59, 0
4, 4608, Note_on_c, 1, 61, 100
4, 4796, Note_on_c, 1, 61, 0
4, 4800, Note_on_c, 1, 62, 100
4, 4988, Note_on_c, 1, 62, 0
4, 4992, Note_on_c, 1, 64, 100
4, 5120, Note_on_c, 1, 64, 0
4, 5184, Note_on_c, 1, 62, 100
4, 5312, Note_on_c, 1, 62, 0
4, 5376, Note_on_c, 1, 61, 75
4, 5504, Note_on_c, 1, 61, 0
4, 5568, Note_on_c, 1, 59, 75
4, 5696, Note_on_c, 1, 59, 0
4, 5760, Note_on_c, 1, 61, 75
4, 6016, Note_on_c, 1, 61, 0
4, 6144, Note_on_c, 1, 61, 75
4, 6400, Note_on_c, 1, 61, 0
4, 6528, Note_on_c, 1, 62, 75
4, 6784, Note_on_c, 1, 62, 0
4, 6912, Note_on_c, 1, 61, 75
4, 7168, Note_on_c, 1, 61, 0
4, 7296, Note_on_c, 1, 61, 75
4, 7552, Note_on_c, 1, 61, 0
4, 7680, Note_on_c, 1, 59, 75
4, 7936, Note_on_c, 1, 59, 0
4, 8064, Note_on_c, 1, 61, 75
4, 8252, Note_on_c, 1, 61, 0
4, 8256, Note_on_c, 1, 62, 75
4, 8444, Note_on_c, 1, 62, 0
4, 8448, Note_on_c, 1, 61, 75
4, 8636, Note_on_c, 1, 61, 0
4, 8640, Note_on_c, 1, 59, 75
4, 8828, Note_on_c, 1, 59, 0
4, 8832, Note_on_c, 1, 57, 75
4, 9020, Note_on_c, 1, 57, 0
4, 9024, Note_on_c, 1, 59, 75
4, 9212, Note_on_c, 1, 59, 0
4, 9216, Note_on_c, 1, 61, 100
4, 9404, Note_on_c, 1, 61, 0
4, 9408, Note_on_c, 1, 64, 100
4, 9536, Note_on_c, 1, 64, 0
4, 9600, Note_on_c, 1, 61, 100
4, 9788, Note_on_c, 1, 61, 0
4, 9792, Note_on_c, 1, 57, 100
4, 9920, Note_on_c, 1, 57, 0
4, 9984, Note_on_c, 1, 64, 100
4, 10172, Note_on_c, 1, 64, 0
4, 10176, Note_on_c, 1, 62, 100
4, 10304, Note_on_c, 1, 62, 0
4, 10368, Note_on_c, 1, 61, 100
4, 10624, Note_on_c, 1, 61, 0
4, 10752, Note_on_c, 1, 61, 100
4, 10880, Note_on_c, 1, 61, 0
4, 10944, Note_on_c, 1, 59, 100
4, 11008, Note_on_c, 1, 59, 0
4, 11040, Note_on_c, 1, 61, 100
4, 11104, Note_on_c, 1, 61, 0
4, 11136, Note_on_c, 1, 62, 100
4, 11264, Note_on_c, 1, 62, 0
4, 11328, Note_on_c, 1, 61, 100
4, 11456, Note_on_c, 1, 61, 0
4, 11520, Note_on_c, 1, 59, 100
4, 11900, Note_on_c, 1, 59, 0
4, 11904, Note_on_c, 1, 57, 100
4, 12160, Note_on_c, 1, 57, 0
4, 12288, Note_on_c, 1, 61, 100
4, 12416, Note_on_c, 1, 61, 0
4, 12480, Note_on_c, 1, 61, 100
4, 12544, Note_on_c, 1, 61, 0
4, 12576, Note_on_c, 1, 61, 100
4, 12640, Note_on_c, 1, 61, 0
4, 12672, Note_on_c, 1, 61, 100
4, 12860, Note_on_c, 1, 61, 0
4, 12864, Note_on_c, 1, 57, 100
4, 12992, Note_on_c, 1, 57, 0
4, 13056, Note_on_c, 1, 64, 100
4, 13244, Note_on_c, 1, 64, 0
4, 13248, Note_on_c, 1, 62, 100
4, 13376, Note_on_c, 1, 62, 0
4, 13440, Note_on_c, 1, 61, 100
4, 13696, Note_on_c, 1, 61, 0
4, 13824, Note_on_c, 1, 61, 100
4, 13952, Note_on_c, 1, 61, 0
4, 14016, Note_on_c, 1, 59, 100
4, 14080, Note_on_c, 1, 59, 0
4, 14112, Note_on_c, 1, 61, 100
4, 14176, Note_on_c, 1, 61, 0
4, 14208, Note_on_c, 1, 62, 100
4, 14336, Note_on_c, 1, 62, 0
4, 14400, Note_on_c, 1, 61, 100
4, 14528, Note_on_c, 1, 61, 0
4, 14592, Note_on_c, 1, 59, 100
4, 14972, Note_on_c, 1, 59, 0
4, 14976, Note_on_c, 1, 57, 100
4, 15232, Note_on_c, 1, 57, 0
4, 15360, Note_on_c, 1, 69, 100
4, 16196, Note_on_c, 1, 69, 0
4, 16320, Note_on_c, 1, 69, 100
4, 16458, Note_on_c, 1, 69, 0
4, 16512, Note_on_c, 1, 69, 100
4, 16768, Note_on_c, 1, 69, 0
4, 16896, Note_on_c, 1, 69, 100
4, 17024, Note_on_c, 1, 69, 0
4, 17088, Note_on_c, 1, 69, 100
4, 17216, Note_on_c, 1, 69, 0
4, 17280, Note_on_c, 1, 64, 100
4, 17372, Note_on_c, 1, 64, 0
4, 17376, Note_on_c, 1, 62, 100
4, 17468, Note_on_c, 1, 62, 0
4, 17472, Note_on_c, 1, 61, 100
4, 17564, Note_on_c, 1, 61, 0
4, 17568, Note_on_c, 1, 59, 100
4, 17660, Note_on_c, 1, 59, 0
4, 17664, Note_on_c, 1, 57, 70
4, 18498, Note_on_c, 1, 57, 0
4, 18624, Note_on_c, 1, 57, 70
4, 18752, Note_on_c, 1, 57, 0
4, 18816, Note_on_c, 1, 57, 70
4, 19072, Note_on_c, 1, 57, 0
4, 19200, Note_on_c, 1, 57, 70
4, 19328, Note_on_c, 1, 57, 0
4, 19392, Note_on_c, 1, 57, 70
4, 19580, Note_on_c, 1, 57, 0
4, 19584, Note_on_c, 1, 61, 70
4, 19772, Note_on_c, 1, 61, 0
4, 19776, Note_on_c, 1, 64, 100
4, 19964, Note_on_c, 1, 64, 0
4, 19968, Note_on_c, 1, 56, 100
4, 20156, Note_on_c, 1, 56, 0
4, 20160, Note_on_c, 1, 59, 100
4, 20348, Note_on_c, 1, 59, 0
4, 20352, Note_on_c, 1, 64, 100
4, 20540, Note_on_c, 1, 64, 0
4, 20544, Note_on_c, 1, 57, 100
4, 20732, Note_on_c, 1, 57, 0
4, 20736, Note_on_c, 1, 61, 100
4, 20924, Note_on_c, 1, 61, 0
4, 20928, Note_on_c, 1, 64, 100
4, 21116, Note_on_c, 1, 64, 0
4, 21120, Note_on_c, 1, 66, 100
4, 21308, Note_on_c, 1, 66, 0
4, 21312, Note_on_c, 1, 64, 100
4, 21500, Note_on_c, 1, 64, 0
4, 21504, Note_on_c, 1, 62, 100
4, 21692, Note_on_c, 1, 62, 0
4, 21696, Note_on_c, 1, 61, 100
4, 21884, Note_on_c, 1, 61, 0
4, 21888, Note_on_c, 1, 59, 100
4, 22076, Note_on_c, 1, 59, 0
4, 22080, Note_on_c, 1, 57, 70
4, 22268, Note_on_c, 1, 57, 0
4, 22272, Note_on_c, 1, 56, 70
4, 22460, Note_on_c, 1, 56, 0
4, 22464, Note_on_c, 1, 59, 70
4, 22652, Note_on_c, 1, 59, 0
4, 22656, Note_on_c, 1, 64, 70
4, 22844, Note_on_c, 1, 64, 0
4, 22848, Note_on_c, 1, 57, 70
4, 23036, Note_on_c, 1, 57, 0
4, 23040, Note_on_c, 1, 61, 70
4, 23228, Note_on_c, 1, 61, 0
4, 23232, Note_on_c, 1, 64, 70
4, 23420, Note_on_c, 1, 64, 0
4, 23424, Note_on_c, 1, 66, 70
4, 23612, Note_on_c, 1, 66, 0
4, 23616, Note_on_c, 1, 64, 70
4, 23804, Note_on_c, 1, 64, 0
4, 23808, Note_on_c, 1, 62, 70
4, 23996, Note_on_c, 1, 62, 0
4, 24000, Note_on_c, 1, 61, 70
4, 24256, Note_on_c, 1, 61, 0
4, 24768, Note_on_c, 1, 64, 100
4, 24832, Note_on_c, 1, 64, 0
4, 24864, Note_on_c, 1, 66, 100
4, 24928, Note_on_c, 1, 66, 0
4, 24960, Note_on_c, 1, 68, 100
4, 25024, Note_on_c, 1, 68, 0
4, 25056, Note_on_c, 1, 69, 100
4, 25120, Note_on_c, 1, 69, 0
4, 25152, Note_on_c, 1, 66, 100
4, 25216, Note_on_c, 1, 66, 0
4, 25248, Note_on_c, 1, 69, 100
4, 25312, Note_on_c, 1, 69, 0
4, 25344, Note_on_c, 1, 68, 100
4, 25408, Note_on_c, 1, 68, 0
4, 25440, Note_on_c, 1, 69, 100
4, 25504, Note_on_c, 1, 69, 0
4, 25536, Note_on_c, 1, 71, 100
4, 25600, Note_on_c, 1, 71, 0
4, 25632, Note_on_c, 1, 69, 100
4, 25696, Note_on_c, 1, 69, 0
4, 25728, Note_on_c, 1, 68, 100
4, 25792, Note_on_c, 1, 68, 0
4, 25824, Note_on_c, 1, 66, 100
4, 25888, Note_on_c, 1, 66, 0
4, 25920, Note_on_c, 1, 64, 100
4, 25984, Note_on_c, 1, 64, 0
4, 26016, Note_on_c, 1, 66, 100
4, 26080, Note_on_c, 1, 66, 0
4, 26112, Note_on_c, 1, 68, 100
4, 26176, Note_on_c, 1, 68, 0
4, 26208, Note_on_c, 1, 66, 100
4, 26272, Note_on_c, 1, 66, 0
4, 26304, Note_on_c, 1, 64, 100
4, 26368, Note_on_c, 1, 64, 0
4, 26400, Note_on_c, 1, 66, 100
4, 26464, Note_on_c, 1, 66, 0
4, 26496, Note_on_c, 1, 68, 100
4, 26560, Note_on_c, 1, 68, 0
4, 26592, Note_on_c, 1, 69, 100
4, 26656, Note_on_c, 1, 69, 0
4, 26688, Note_on_c, 1, 66, 100
4, 26752, Note_on_c, 1, 66, 0
4, 26784, Note_on_c, 1, 69, 100
4, 26848, Note_on_c, 1, 69, 0
4, 26880, Note_on_c, 1, 68, 100
4, 27200, Note_on_c, 1, 68, 0
4, 27360, Note_on_c, 1, 66, 100
4, 27424, Note_on_c, 1, 66, 0
4, 27456, Note_on_c, 1, 64, 100
4, 27520, Note_on_c, 1, 64, 0
4, 27552, Note_on_c, 1, 66, 100
4, 27616, Note_on_c, 1, 66, 0
4, 27648, Note_on_c, 1, 68, 100
4, 27776, Note_on_c, 1, 68, 0
4, 27840, Note_on_c, 1, 71, 100
4, 27968, Note_on_c, 1, 71, 0
4, 28032, Note_on_c, 1, 68, 100
4, 28160, Note_on_c, 1, 68, 0
4, 28224, Note_on_c, 1, 69, 100
4, 28288, Note_on_c, 1, 69, 0
4, 28320, Note_on_c, 1, 66, 100
4, 28384, Note_on_c, 1, 66, 0
4, 28416, Note_on_c, 1, 68, 100
4, 28544, Note_on_c, 1, 68, 0
4, 28608, Note_on_c, 1, 69, 100
4, 28672, Note_on_c, 1, 69, 0
4, 28704, Note_on_c, 1, 66, 100
4, 28768, Note_on_c, 1, 66, 0
4, 28800, Note_on_c, 1, 68, 100
4, 28928, Note_on_c, 1, 68, 0
4, 28992, Note_on_c, 1, 71, 100
4, 29120, Note_on_c, 1, 71, 0
4, 29184, Note_on_c, 1, 68, 100
4, 29312, Note_on_c, 1, 68, 0
4, 29376, Note_on_c, 1, 71, 100
4, 29504, Note_on_c, 1, 71, 0
4, 29568, Note_on_c, 1, 68, 100
4, 29696, Note_on_c, 1, 68, 0
4, 29760, Note_on_c, 1, 69, 100
4, 29824, Note_on_c, 1, 69, 0
4, 29856, Note_on_c, 1, 66, 100
4, 29920, Note_on_c, 1, 66, 0
4, 29952, Note_on_c, 1, 68, 100
4, 30336, Note_on_c, 1, 68, 0
4, 30912, Note_on_c, 1, 68, 100
4, 30976, Note_on_c, 1, 68, 0
4, 31008, Note_on_c, 1, 66, 100
4, 31072, Note_on_c, 1, 66, 0
4, 31104, Note_on_c, 1, 68, 100
4, 31232, Note_on_c, 1, 68, 0
4, 31296, Note_on_c, 1, 59, 100
4, 31360, Note_on_c, 1, 59, 0
4, 31392, Note_on_c, 1, 61, 100
4, 31456, Note_on_c, 1, 61, 0
4, 31488, Note_on_c, 1, 62, 100
4, 31616, Note_on_c, 1, 62, 0
4, 31680, Note_on_c, 1, 56, 100
4, 31744, Note_on_c, 1, 56, 0
4, 31776, Note_on_c, 1, 54, 100
4, 31840, Note_on_c, 1, 54, 0
4, 31872, Note_on_c, 1, 56, 100
4, 32000, Note_on_c, 1, 56, 0
4, 32064, Note_on_c, 1, 52, 100
4, 32192, Note_on_c, 1, 52, 0
4, 32256, Note_on_c, 1, 64, 100
4, 32384, Note_on_c, 1, 64, 0
4, 32448, Note_on_c, 1, 62, 100
4, 32512, Note_on_c, 1, 62, 0
4, 32544, Note_on_c, 1, 61, 100
4, 32608, Note_on_c, 1, 61, 0
4, 32640, Note_on_c, 1, 62, 100
4, 32768, Note_on_c, 1, 62, 0
4, 32832, Note_on_c, 1, 59, 100
4, 32960, Note_on_c, 1, 59, 0
4, 33024, Note_on_c, 1, 61, 100
4, 33152, Note_on_c, 1, 61, 0
4, 33216, Note_on_c, 1, 62, 100
4, 33280, Note_on_c, 1, 62, 0
4, 33312, Note_on_c, 1, 59, 100
4, 33376, Note_on_c, 1, 59, 0
4, 33408, Note_on_c, 1, 61, 100
4, 33536, Note_on_c, 1, 61, 0
4, 33984, Note_on_c, 1, 68, 100
4, 34048, Note_on_c, 1, 68, 0
4, 34080, Note_on_c, 1, 66, 100
4, 34144, Note_on_c, 1, 66, 0
4, 34176, Note_on_c, 1, 68, 100
4, 34304, Note_on_c, 1, 68, 0
4, 34368, Note_on_c, 1, 71, 100
4, 34432, Note_on_c, 1, 71, 0
4, 34464, Note_on_c, 1, 69, 100
4, 34528, Note_on_c, 1, 69, 0
4, 34560, Note_on_c, 1, 71, 100
4, 34688, Note_on_c, 1, 71, 0
4, 34752, Note_on_c, 1, 74, 100
4, 34816, Note_on_c, 1, 74, 0
4, 34848, Note_on_c, 1, 73, 100
4, 34912, Note_on_c, 1, 73, 0
4, 34944, Note_on_c, 1, 74, 100
4, 35072, Note_on_c, 1, 74, 0
4, 35136, Note_on_c, 1, 68, 100
4, 35264, Note_on_c, 1, 68, 0
4, 35328, Note_on_c, 1, 64, 100
4, 35456, Note_on_c, 1, 64, 0
4, 35520, Note_on_c, 1, 62, 100
4, 35584, Note_on_c, 1, 62, 0
4, 35616, Note_on_c, 1, 61, 100
4, 35680, Note_on_c, 1, 61, 0
4, 35712, Note_on_c, 1, 62, 100
4, 35840, Note_on_c, 1, 62, 0
4, 35904, Note_on_c, 1, 59, 100
4, 36032, Note_on_c, 1, 59, 0
4, 36096, Note_on_c, 1, 57, 100
4, 36224, Note_on_c, 1, 57, 0
4, 36288, Note_on_c, 1, 69, 100
4, 36380, Note_on_c, 1, 69, 0
4, 36384, Note_on_c, 1, 71, 100
4, 36476, Note_on_c, 1, 71, 0
4, 36480, Note_on_c, 1, 72, 100
4, 36668, Note_on_c, 1, 72, 0
4, 36672, Note_on_c, 1, 71, 100
4, 36860, Note_on_c, 1, 71, 0
4, 36864, Note_on_c, 1, 69, 100
4, 37052, Note_on_c, 1, 69, 0
4, 37056, Note_on_c, 1, 67, 100
4, 37244, Note_on_c, 1, 67, 0
4, 37248, Note_on_c, 1, 65, 100
4, 37436, Note_on_c, 1, 65, 0
4, 37440, Note_on_c, 1, 64, 100
4, 37568, Note_on_c, 1, 64, 0
4, 37632, Note_on_c, 1, 64, 100
4, 38244, Note_on_c, 1, 64, 0
4, 38400, Note_on_c, 1, 62, 100
4, 38588, Note_on_c, 1, 62, 0
4, 38592, Note_on_c, 1, 64, 100
4, 38780, Note_on_c, 1, 64, 0
4, 38784, Note_on_c, 1, 65, 100
4, 38972, Note_on_c, 1, 65, 0
4, 38976, Note_on_c, 1, 64, 100
4, 39164, Note_on_c, 1, 64, 0
4, 39168, Note_on_c, 1, 62, 100
4, 39356, Note_on_c, 1, 62, 0
4, 39360, Note_on_c, 1, 60, 100
4, 39548, Note_on_c, 1, 60, 0
4, 39552, Note_on_c, 1, 59, 100
4, 39740, Note_on_c, 1, 59, 0
4, 39744, Note_on_c, 1, 57, 100
4, 39872, Note_on_c, 1, 57, 0
4, 39936, Note_on_c, 1, 57, 100
4, 40448, Note_on_c, 1, 57, 0
4, 40704, Note_on_c, 1, 57, 75
4, 40892, Note_on_c, 1, 57, 0
4, 40896, Note_on_c, 1, 59, 75
4, 41084, Note_on_c, 1, 59, 0
4, 41088, Note_on_c, 1, 60, 75
4, 41276, Note_on_c, 1, 60, 0
4, 41280, Note_on_c, 1, 59, 75
4, 41468, Note_on_c, 1, 59, 0
4, 41472, Note_on_c, 1, 57, 75
4, 41660, Note_on_c, 1, 57, 0
4, 41664, Note_on_c, 1, 55, 75
4, 41852, Note_on_c, 1, 55, 0
4, 41856, Note_on_c, 1, 65, 75
4, 42044, Note_on_c, 1, 65, 0
4, 42048, Note_on_c, 1, 64, 75
4, 42176, Note_on_c, 1, 64, 0
4, 42240, Note_on_c, 1, 64, 75
4, 42852, Note_on_c, 1, 64, 0
4, 43008, Note_on_c, 1, 62, 75
4, 43196, Note_on_c, 1, 62, 0
4, 43200, Note_on_c, 1, 64, 75
4, 43388, Note_on_c, 1, 64, 0
4, 43392, Note_on_c, 1, 65, 75
4, 43580, Note_on_c, 1, 65, 0
4, 43584, Note_on_c, 1, 64, 75
4, 43772, Note_on_c, 1, 64, 0
4, 43776, Note_on_c, 1, 62, 75
4, 43964, Note_on_c, 1, 62, 0
4, 43968, Note_on_c, 1, 60, 75
4, 44156, Note_on_c, 1, 60, 0
4, 44160, Note_on_c, 1, 59, 75
4, 44348, Note_on_c, 1, 59, 0
4, 44352, Note_on_c, 1, 57, 75
4, 44480, Note_on_c, 1, 57, 0
4, 44544, Note_on_c, 1, 57, 75
4, 45056, Note_on_c, 1, 57, 0
4, 45312, Note_on_c, 1, 65, 100
4, 45500, Note_on_c, 1, 65, 0
4, 45504, Note_on_c, 1, 64, 100
4, 45632, Note_on_c, 1, 64, 0
4, 45696, Note_on_c, 1, 64, 100
4, 46308, Note_on_c, 1, 64, 0
4, 46464, Note_on_c, 1, 58, 100
4, 46652, Note_on_c, 1, 58, 0
4, 46656, Note_on_c, 1, 57, 100
4, 46784, Note_on_c, 1, 57, 0
4, 46848, Note_on_c, 1, 57, 100
4, 47360, Note_on_c, 1, 57, 0
4, 47616, Note_on_c, 1, 62, 100
4, 47804, Note_on_c, 1, 62, 0
4, 47808, Note_on_c, 1, 64, 100
4, 47996, Note_on_c, 1, 64, 0
4, 48000, Note_on_c, 1, 65, 100
4, 48188, Note_on_c, 1, 65, 0
4, 48192, Note_on_c, 1, 64, 100
4, 48380, Note_on_c, 1, 64, 0
4, 48384, Note_on_c, 1, 62, 100
4, 48572, Note_on_c, 1, 62, 0
4, 48576, Note_on_c, 1, 60, 100
4, 48764, Note_on_c, 1, 60, 0
4, 48768, Note_on_c, 1, 59, 100
4, 48956, Note_on_c, 1, 59, 0
4, 48960, Note_on_c, 1, 57, 100
4, 49088, Note_on_c, 1, 57, 0
4, 49152, Note_on_c, 1, 57, 100
4, 49664, Note_on_c, 1, 57, 0
4, 49920, Note_on_c, 1, 65, 75
4, 50108, Note_on_c, 1, 65, 0
4, 50112, Note_on_c, 1, 64, 75
4, 50240, Note_on_c, 1, 64, 0
4, 50304, Note_on_c, 1, 64, 75
4, 50916, Note_on_c, 1, 64, 0
4, 51072, Note_on_c, 1, 58, 75
4, 51260, Note_on_c, 1, 58, 0
4, 51264, Note_on_c, 1, 57, 75
4, 51392, Note_on_c, 1, 57, 0
4, 51456, Note_on_c, 1, 57, 75
4, 51968, Note_on_c, 1, 57, 0
4, 52224, Note_on_c, 1, 62, 75
4, 52412, Note_on_c, 1, 62, 0
4, 52416, Note_on_c, 1, 64, 75
4, 52604, Note_on_c, 1, 64, 0
4, 52608, Note_on_c, 1, 65, 75
4, 52796, Note_on_c, 1, 65, 0
4, 52800, Note_on_c, 1, 64, 75
4, 52988, Note_on_c, 1, 64, 0
4, 52992, Note_on_c, 1, 62, 75
4, 53180, Note_on_c, 1, 62, 0
4, 53184, Note_on_c, 1, 60, 75
4, 53372, Note_on_c, 1, 60, 0
4, 53376, Note_on_c, 1, 59, 75
4, 53564, Note_on_c, 1, 59, 0
4, 53568, Note_on_c, 1, 57, 75
4, 53696, Note_on_c, 1, 57, 0
4, 53760, Note_on_c, 1, 57, 75
4, 54272, Note_on_c, 1, 57, 0
4, 55488, Note_on_c, 1, 64, 100
4, 55552, Note_on_c, 1, 64, 0
4, 55584, Note_on_c, 1, 65, 100
4, 55648, Note_on_c, 1, 65, 0
4, 55680, Note_on_c, 1, 64, 100
4, 55808, Note_on_c, 1, 64, 0
4, 55872, Note_on_c, 1, 64, 100
4, 55936, Note_on_c, 1, 64, 0
4, 55968, Note_on_c, 1, 67, 100
4, 56032, Note_on_c, 1, 67, 0
4, 56064, Note_on_c, 1, 65, 100
4, 56192, Note_on_c, 1, 65, 0
4, 57024, Note_on_c, 1, 60, 100
4, 57088, Note_on_c, 1, 60, 0
4, 57120, Note_on_c, 1, 62, 100
4, 57184, Note_on_c, 1, 62, 0
4, 57216, Note_on_c, 1, 60, 100
4, 57344, Note_on_c, 1, 60, 0
4, 57408, Note_on_c, 1, 60, 100
4, 57472, Note_on_c, 1, 60, 0
4, 57504, Note_on_c, 1, 64, 100
4, 57568, Note_on_c, 1, 64, 0
4, 57600, Note_on_c, 1, 57, 100
4, 57728, Note_on_c, 1, 57, 0
4, 58560, Note_on_c, 1, 64, 100
4, 58624, Note_on_c, 1, 64, 0
4, 58656, Note_on_c, 1, 65, 100
4, 58720, Note_on_c, 1, 65, 0
4, 58752, Note_on_c, 1, 64, 100
4, 58880, Note_on_c, 1, 64, 0
4, 58944, Note_on_c, 1, 64, 100
4, 59008, Note_on_c, 1, 64, 0
4, 59040, Note_on_c, 1, 67, 100
4, 59104, Note_on_c, 1, 67, 0
4, 59136, Note_on_c, 1, 65, 100
4, 59264, Note_on_c, 1, 65, 0
4, 59328, Note_on_c, 1, 59, 100
4, 59584, Note_on_c, 1, 59, 0
4, 59712, Note_on_c, 1, 61, 100
4, 59776, Note_on_c, 1, 61, 0
4, 59808, Note_on_c, 1, 62, 100
4, 59872, Note_on_c, 1, 62, 0
4, 59904, Note_on_c, 1, 61, 100
4, 60160, Note_on_c, 1, 61, 0
4, 60288, Note_on_c, 1, 61, 100
4, 60544, Note_on_c, 1, 61, 0
4, 60672, Note_on_c, 1, 62, 100
4, 60928, Note_on_c, 1, 62, 0
4, 61056, Note_on_c, 1, 61, 100
4, 61312, Note_on_c, 1, 61, 0
4, 61440, Note_on_c, 1, 61, 100
4, 61696, Note_on_c, 1, 61, 0
4, 61824, Note_on_c, 1, 59, 100
4, 62080, Note_on_c, 1, 59, 0
4, 62208, Note_on_c, 1, 61, 100
4, 62396, Note_on_c, 1, 61, 0
4, 62400, Note_on_c, 1, 62, 100
4, 62588, Note_on_c, 1, 62, 0
4, 62592, Note_on_c, 1, 61, 100
4, 62780, Note_on_c, 1, 61, 0
4, 62784, Note_on_c, 1, 59, 100
4, 62972, Note_on_c, 1, 59, 0
4, 62976, Note_on_c, 1, 57, 100
4, 63164, Note_on_c, 1, 57, 0
4, 63168, Note_on_c, 1, 59, 100
4, 63356, Note_on_c, 1, 59, 0
4, 63360, Note_on_c, 1, 61, 100
4, 63548, Note_on_c, 1, 61, 0
4, 63552, Note_on_c, 1, 62, 100
4, 63740, Note_on_c, 1, 62, 0
4, 63744, Note_on_c, 1, 64, 100
4, 63872, Note_on_c, 1, 64, 0
4, 63936, Note_on_c, 1, 62, 100
4, 64064, Note_on_c, 1, 62, 0
4, 64128, Note_on_c, 1, 61, 75
4, 64256, Note_on_c, 1, 61, 0
4, 64320, Note_on_c, 1, 59, 75
4, 64448, Note_on_c, 1, 59, 0
4, 64512, Note_on_c, 1, 61, 75
4, 64768, Note_on_c, 1, 61, 0
4, 64896, Note_on_c, 1, 61, 75
4, 65152, Note_on_c, 1, 61, 0
4, 65280, Note_on_c, 1, 62, 75
4, 65536, Note_on_c, 1, 62, 0
4, 65664, Note_on_c, 1, 61, 75
4, 65920, Note_on_c, 1, 61, 0
4, 66048, Note_on_c, 1, 61, 75
4, 66304, Note_on_c, 1, 61, 0
4, 66432, Note_on_c, 1, 59, 75
4, 66688, Note_on_c, 1, 59, 0
4, 66816, Note_on_c, 1, 61, 75
4, 67004, Note_on_c, 1, 61, 0
4, 67008, Note_on_c, 1, 62, 75
4, 67196, Note_on_c, 1, 62, 0
4, 67200, Note_on_c, 1, 61, 75
4, 67388, Note_on_c, 1, 61, 0
4, 67392, Note_on_c, 1, 59, 75
4, 67580, Note_on_c, 1, 59, 0
4, 67584, Note_on_c, 1, 57, 75
4, 67772, Note_on_c, 1, 57, 0
4, 67776, Note_on_c, 1, 59, 75
4, 67964, Note_on_c, 1, 59, 0
4, 67968, Note_on_c, 1, 61, 75
4, 68572, Note_on_c, 1, 61, 0
4, 69504, Note_on_c, 1, 62, 100
4, 69692, Note_on_c, 1, 62, 0
4, 69696, Note_on_c, 1, 61, 100
4, 69824, Note_on_c, 1, 61, 0
4, 69888, Note_on_c, 1, 62, 100
4, 70076, Note_on_c, 1, 62, 0
4, 70080, Note_on_c, 1, 61, 100
4, 70208, Note_on_c, 1, 61, 0
4, 70272, Note_on_c, 1, 62, 100
4, 71036, Note_on_c, 1, 62, 0
4, 71808, Note_on_c, 1, 61, 100
4, 71996, Note_on_c, 1, 61, 0
4, 72000, Note_on_c, 1, 59, 100
4, 72128, Note_on_c, 1, 59, 0
4, 72192, Note_on_c, 1, 61, 100
4, 72380, Note_on_c, 1, 61, 0
4, 72384, Note_on_c, 1, 59, 100
4, 72512, Note_on_c, 1, 59, 0
4, 72576, Note_on_c, 1, 61, 100
4, 73340, Note_on_c, 1, 61, 0
4, 73344, Note_on_c, 1, 61, 100
4, 73472, Note_on_c, 1, 61, 0
4, 73536, Note_on_c, 1, 64, 100
4, 73664, Note_on_c, 1, 64, 0
4, 73728, Note_on_c, 1, 62, 100
4, 74108, Note_on_c, 1, 62, 0
4, 74112, Note_on_c, 1, 61, 100
4, 74368, Note_on_c, 1, 61, 0
4, 74496, Note_on_c, 1, 69, 100
4, 74752, Note_on_c, 1, 69, 0
4, 74880, Note_on_c, 1, 68, 100
4, 75260, Note_on_c, 1, 68, 0
4, 75264, Note_on_c, 1, 69, 100
4, 75520, Note_on_c, 1, 69, 0
4, 75648, Note_on_c, 1, 69, 100
4, 75836, Note_on_c, 1, 69, 0
4, 75840, Note_on_c, 1, 68, 100
4, 76028, Note_on_c, 1, 68, 0
4, 76032, Note_on_c, 1, 66, 100
4, 76220, Note_on_c, 1, 66, 0
4, 76224, Note_on_c, 1, 64, 100
4, 76412, Note_on_c, 1, 64, 0
4, 76416, Note_on_c, 1, 62, 100
4, 76604, Note_on_c, 1, 62, 0
4, 76608, Note_on_c, 1, 61, 100
4, 76796, Note_on_c, 1, 61, 0
4, 76800, Note_on_c, 1, 59, 100
4, 76988, Note_on_c, 1, 59, 0
4, 76992, Note_on_c, 1, 64, 100
4, 77180, Note_on_c, 1, 64, 0
4, 77184, Note_on_c, 1, 57, 100
4, 77440, Note_on_c, 1, 57, 0
4, 78720, Note_on_c, 1, 62, 100
4, 78908, Note_on_c, 1, 62, 0
4, 78912, Note_on_c, 1, 61, 100
4, 79040, Note_on_c, 1, 61, 0
4, 79104, Note_on_c, 1, 62, 100
4, 79292, Note_on_c, 1, 62, 0
4, 79296, Note_on_c, 1, 61, 100
4, 79424, Note_on_c, 1, 61, 0
4, 79488, Note_on_c, 1, 62, 100
4, 80060, Note_on_c, 1, 62, 0
4, 81024, Note_on_c, 1, 61, 100
4, 81212, Note_on_c, 1, 61, 0
4, 81216, Note_on_c, 1, 59, 100
4, 81344, Note_on_c, 1, 59, 0
4, 81408, Note_on_c, 1, 61, 100
4, 81596, Note_on_c, 1, 61, 0
4, 81600, Note_on_c, 1, 59, 100
4, 81728, Note_on_c, 1, 59, 0
4, 81792, Note_on_c, 1, 61, 100
4, 82364, Note_on_c, 1, 61, 0
4, 82560, Note_on_c, 1, 57, 100
4, 82688, Note_on_c, 1, 57, 0
4, 82752, Note_on_c, 1, 61, 100
4, 82880, Note_on_c, 1, 61, 0
4, 82944, Note_on_c, 1, 59, 100
4, 83324, Note_on_c, 1, 59, 0
4, 83328, Note_on_c, 1, 57, 100
4, 83584, Note_on_c, 1, 57, 0
4, 83712, Note_on_c, 1, 64, 100
4, 83968, Note_on_c, 1, 64, 0
4, 84096, Note_on_c, 1, 68, 100
4, 84476, Note_on_c, 1, 68, 0
4, 84480, Note_on_c, 1, 69, 100
4, 84736, Note_on_c, 1, 69, 0
4, 84864, Note_on_c, 1, 69, 100
4, 85052, Note_on_c, 1, 69, 0
4, 85056, Note_on_c, 1, 68, 100
4, 85244, Note_on_c, 1, 68, 0
4, 85248, Note_on_c, 1, 66, 100
4, 85436, Note_on_c, 1, 66, 0
4, 85440, Note_on_c, 1, 64, 100
4, 85628, Note_on_c, 1, 64, 0
4, 85632, Note_on_c, 1, 62, 100
4, 85820, Note_on_c, 1, 62, 0
4, 85824, Note_on_c, 1, 61, 100
4, 86012, Note_on_c, 1, 61, 0
4, 86016, Note_on_c, 1, 59, 100
4, 86204, Note_on_c, 1, 59, 0
4, 86208, Note_on_c, 1, 64, 100
4, 86396, Note_on_c, 1, 64, 0
4, 86400, Note_on_c, 1, 57, 100
4, 86588, Note_on_c, 1, 57, 0
4, 86592, Note_on_c, 1, 64, 100
4, 86780, Note_on_c, 1, 64, 0
4, 86784, Note_on_c, 1, 69, 100
4, 86972, Note_on_c, 1, 69, 0
4, 86976, Note_on_c, 1, 68, 100
4, 87164, Note_on_c, 1, 68, 0
4, 87168, Note_on_c, 1, 69, 100
4, 87932, Note_on_c, 1, 69, 0
4, 87936, Note_on_c, 1, 57, 100
4, 88192, Note_on_c, 1, 57, 0
4, 88320, Note_on_c, 1, 56, 100
4, 88576, Note_on_c, 1, 56, 0
4, 88704, Note_on_c, 1, 57, 100
4, 90244, Note_on_c, 1, 57, 0
4, 90244, End_track
5, 0, Start_track
5, 0, MIDI_port, 0
5, 0, Title_t, "http://members.aol.com/basfawlty"
5, 0, Control_c, 2, 0, 0
5, 0, Control_c, 2, 32, 0
5, 0, Program_c, 2, 6
5, 0, Control_c, 2, 7, 93
5, 0, Control_c, 2, 10, 47
5, 1152, Note_on_c, 2, 61, 100
5, 1152, Note_on_c, 2, 64, 100
5, 1152, Note_on_c, 2, 69, 100
5, 1916, Note_on_c, 2, 69, 0
5, 1916, Note_on_c, 2, 64, 0
5, 1916, Note_on_c, 2, 61, 0
5, 1920, Note_on_c, 2, 68, 100
5, 1920, Note_on_c, 2, 62, 100
5, 1920, Note_on_c, 2, 64, 100
5, 1920, Note_on_c, 2, 71, 100
5, 2300, Note_on_c, 2, 71, 0
5, 2300, Note_on_c, 2, 68, 0
5, 2300, Note_on_c, 2, 62, 0
5, 2300, Note_on_c, 2, 64, 0
5, 2304, Note_on_c, 2, 61, 100
5, 2304, Note_on_c, 2, 64, 100
5, 2304, Note_on_c, 2, 69, 100
5, 3068, Note_on_c, 2, 69, 0
5, 3068, Note_on_c, 2, 64, 0
5, 3068, Note_on_c, 2, 61, 0
5, 3072, Note_on_c, 2, 64, 100
5, 3072, Note_on_c, 2, 68, 100
5, 3452, Note_on_c, 2, 68, 0
5, 3452, Note_on_c, 2, 64, 0
5, 3456, Note_on_c, 2, 61, 100
5, 3456, Note_on_c, 2, 64, 100
5, 3456, Note_on_c, 2, 69, 100
5, 3836, Note_on_c, 2, 69, 0
5, 3836, Note_on_c, 2, 64, 0
5, 3836, Note_on_c, 2, 61, 0
5, 3840, Note_on_c, 2, 64, 100
5, 3840, Note_on_c, 2, 69, 100
5, 3840, Note_on_c, 2, 73, 100
5, 4220, Note_on_c, 2, 73, 0
5, 4220, Note_on_c, 2, 69, 0
5, 4220, Note_on_c, 2, 64, 0
5, 4224, Note_on_c, 2, 61, 100
5, 4224, Note_on_c, 2, 64, 100
5, 4224, Note_on_c, 2, 69, 100
5, 4604, Note_on_c, 2, 69, 0
5, 4604, Note_on_c, 2, 64, 0
5, 4604, Note_on_c, 2, 61, 0
5, 4608, Note_on_c, 2, 64, 100
5, 4608, Note_on_c, 2, 69, 100
5, 4608, Note_on_c, 2, 73, 100
5, 4988, Note_on_c, 2, 73, 0
5, 4988, Note_on_c, 2, 69, 0
5, 4988, Note_on_c, 2, 64, 0
5, 4992, Note_on_c, 2, 73, 100
5, 5180, Note_on_c, 2, 73, 0
5, 5184, Note_on_c, 2, 71, 100
5, 5372, Note_on_c, 2, 71, 0
5, 5376, Note_on_c, 2, 69, 75
5, 5564, Note_on_c, 2, 69, 0
5, 5568, Note_on_c, 2, 68, 75
5, 5756, Note_on_c, 2, 68, 0
5, 5760, Note_on_c, 2, 61, 75
5, 5760, Note_on_c, 2, 64, 75
5, 5760, Note_on_c, 2, 69, 75
5, 6524, Note_on_c, 2, 69, 0
5, 6524, Note_on_c, 2, 64, 0
5, 6524, Note_on_c, 2, 61, 0
5, 6528, Note_on_c, 2, 68, 75
5, 6528, Note_on_c, 2, 62, 75
5, 6528, Note_on_c, 2, 64, 75
5, 6528, Note_on_c, 2, 71, 75
5, 6908, Note_on_c, 2, 71, 0
5, 6908, Note_on_c, 2, 68, 0
5, 6908, Note_on_c, 2, 62, 0
5, 6908, Note_on_c, 2, 64, 0
5, 6912, Note_on_c, 2, 61, 75
5, 6912, Note_on_c, 2, 64, 75
5, 6912, Note_on_c, 2, 69, 75
5, 7676, Note_on_c, 2, 69, 0
5, 7676, Note_on_c, 2, 64, 0
5, 7676, Note_on_c, 2, 61, 0
5, 7680, Note_on_c, 2, 64, 75
5, 7680, Note_on_c, 2, 68, 75
5, 8060, Note_on_c, 2, 68, 0
5, 8060, Note_on_c, 2, 64, 0
5, 8064, Note_on_c, 2, 61, 75
5, 8064, Note_on_c, 2, 64, 75
5, 8064, Note_on_c, 2, 69, 75
5, 8576, Note_on_c, 2, 69, 0
5, 8576, Note_on_c, 2, 64, 0
5, 8576, Note_on_c, 2, 61, 0
5, 8832, Note_on_c, 2, 64, 75
5, 8832, Note_on_c, 2, 69, 75
5, 8832, Note_on_c, 2, 73, 75
5, 9212, Note_on_c, 2, 73, 0
5, 9212, Note_on_c, 2, 69, 0
5, 9212, Note_on_c, 2, 64, 0
5, 9216, Note_on_c, 2, 61, 100
5, 9216, Note_on_c, 2, 64, 100
5, 9216, Note_on_c, 2, 69, 100
5, 9344, Note_on_c, 2, 69, 0
5, 9344, Note_on_c, 2, 64, 0
5, 9344, Note_on_c, 2, 61, 0
5, 9600, Note_on_c, 2, 69, 100
5, 9600, Note_on_c, 2, 73, 100
5, 9600, Note_on_c, 2, 76, 100
5, 9856, Note_on_c, 2, 76, 0
5, 9856, Note_on_c, 2, 73, 0
5, 9856, Note_on_c, 2, 69, 0
5, 9984, Note_on_c, 2, 76, 100
5, 10172, Note_on_c, 2, 76, 0
5, 10176, Note_on_c, 2, 74, 100
5, 10304, Note_on_c, 2, 74, 0
5, 10368, Note_on_c, 2, 73, 100
5, 10624, Note_on_c, 2, 73, 0
5, 10752, Note_on_c, 2, 69, 100
5, 10880, Note_on_c, 2, 69, 0
5, 10944, Note_on_c, 2, 68, 100
5, 11008, Note_on_c, 2, 68, 0
5, 11040, Note_on_c, 2, 69, 100
5, 11104, Note_on_c, 2, 69, 0
5, 11136, Note_on_c, 2, 71, 100
5, 11264, Note_on_c, 2, 71, 0
5, 11328, Note_on_c, 2, 69, 100
5, 11456, Note_on_c, 2, 69, 0
5, 11520, Note_on_c, 2, 71, 100
5, 11520, Note_on_c, 2, 68, 100
5, 11520, Note_on_c, 2, 76, 100
5, 11776, Note_on_c, 2, 76, 0
5, 11776, Note_on_c, 2, 68, 0
5, 11776, Note_on_c, 2, 71, 0
5, 11904, Note_on_c, 2, 73, 100
5, 11968, Note_on_c, 2, 73, 0
5, 12000, Note_on_c, 2, 71, 100
5, 12064, Note_on_c, 2, 71, 0
5, 12096, Note_on_c, 2, 73, 100
5, 12160, Note_on_c, 2, 73, 0
5, 12192, Note_on_c, 2, 74, 100
5, 12256, Note_on_c, 2, 74, 0
5, 13056, Note_on_c, 2, 76, 100
5, 13244, Note_on_c, 2, 76, 0
5, 13248, Note_on_c, 2, 74, 100
5, 13376, Note_on_c, 2, 74, 0
5, 13440, Note_on_c, 2, 73, 100
5, 13696, Note_on_c, 2, 73, 0
5, 13824, Note_on_c, 2, 69, 100
5, 13952, Note_on_c, 2, 69, 0
5, 14016, Note_on_c, 2, 68, 100
5, 14080, Note_on_c, 2, 68, 0
5, 14112, Note_on_c, 2, 69, 100
5, 14176, Note_on_c, 2, 69, 0
5, 14208, Note_on_c, 2, 71, 100
5, 14336, Note_on_c, 2, 71, 0
5, 14400, Note_on_c, 2, 69, 100
5, 14528, Note_on_c, 2, 69, 0
5, 14592, Note_on_c, 2, 71, 100
5, 14592, Note_on_c, 2, 68, 100
5, 14848, Note_on_c, 2, 68, 0
5, 14848, Note_on_c, 2, 71, 0
5, 14976, Note_on_c, 2, 61, 100
5, 14976, Note_on_c, 2, 64, 100
5, 14976, Note_on_c, 2, 69, 100
5, 15232, Note_on_c, 2, 69, 0
5, 15232, Note_on_c, 2, 64, 0
5, 15232, Note_on_c, 2, 61, 0
5, 15360, Note_on_c, 2, 69, 100
5, 15360, Note_on_c, 2, 73, 100
5, 15740, Note_on_c, 2, 73, 0
5, 15740, Note_on_c, 2, 69, 0
5, 15744, Note_on_c, 2, 64, 100
5, 15744, Note_on_c, 2, 71, 100
5, 15932, Note_on_c, 2, 71, 0
5, 15932, Note_on_c, 2, 64, 0
5, 15936, Note_on_c, 2, 61, 100
5, 15936, Note_on_c, 2, 64, 100
5, 15936, Note_on_c, 2, 69, 100
5, 16316, Note_on_c, 2, 69, 0
5, 16316, Note_on_c, 2, 64, 0
5, 16316, Note_on_c, 2, 61, 0
5, 16320, Note_on_c, 2, 69, 100
5, 16320, Note_on_c, 2, 62, 100
5, 16508, Note_on_c, 2, 62, 0
5, 16508, Note_on_c, 2, 69, 0
5, 16512, Note_on_c, 2, 69, 100
5, 16512, Note_on_c, 2, 64, 100
5, 16892, Note_on_c, 2, 64, 0
5, 16892, Note_on_c, 2, 69, 0
5, 16896, Note_on_c, 2, 66, 100
5, 16896, Note_on_c, 2, 69, 100
5, 17084, Note_on_c, 2, 69, 0
5, 17084, Note_on_c, 2, 66, 0
5, 17088, Note_on_c, 2, 64, 100
5, 17088, Note_on_c, 2, 69, 100
5, 17468, Note_on_c, 2, 69, 0
5, 17468, Note_on_c, 2, 64, 0
5, 17472, Note_on_c, 2, 64, 100
5, 17472, Note_on_c, 2, 69, 100
5, 17472, Note_on_c, 2, 73, 100
5, 17660, Note_on_c, 2, 73, 0
5, 17660, Note_on_c, 2, 69, 0
5, 17660, Note_on_c, 2, 64, 0
5, 17664, Note_on_c, 2, 69, 70
5, 17664, Note_on_c, 2, 73, 70
5, 18044, Note_on_c, 2, 73, 0
5, 18044, Note_on_c, 2, 69, 0
5, 18048, Note_on_c, 2, 64, 70
5, 18048, Note_on_c, 2, 71, 70
5, 18236, Note_on_c, 2, 71, 0
5, 18236, Note_on_c, 2, 64, 0
5, 18240, Note_on_c, 2, 61, 70
5, 18240, Note_on_c, 2, 64, 70
5, 18240, Note_on_c, 2, 69, 70
5, 18620, Note_on_c, 2, 69, 0
5, 18620, Note_on_c, 2, 64, 0
5, 18620, Note_on_c, 2, 61, 0
5, 18624, Note_on_c, 2, 69, 70
5, 18624, Note_on_c, 2, 62, 70
5, 18812, Note_on_c, 2, 62, 0
5, 18812, Note_on_c, 2, 69, 0
5, 18816, Note_on_c, 2, 69, 70
5, 18816, Note_on_c, 2, 64, 70
5, 19196, Note_on_c, 2, 64, 0
5, 19196, Note_on_c, 2, 69, 0
5, 19200, Note_on_c, 2, 66, 70
5, 19200, Note_on_c, 2, 69, 70
5, 19388, Note_on_c, 2, 69, 0
5, 19388, Note_on_c, 2, 66, 0
5, 19392, Note_on_c, 2, 64, 70
5, 19392, Note_on_c, 2, 69, 70
5, 19772, Note_on_c, 2, 69, 0
5, 19772, Note_on_c, 2, 64, 0
5, 19776, Note_on_c, 2, 64, 100
5, 19776, Note_on_c, 2, 69, 100
5, 19776, Note_on_c, 2, 73, 100
5, 19964, Note_on_c, 2, 73, 0
5, 19964, Note_on_c, 2, 69, 0
5, 19964, Note_on_c, 2, 64, 0
5, 19968, Note_on_c, 2, 68, 100
5, 19968, Note_on_c, 2, 64, 100
5, 19968, Note_on_c, 2, 71, 100
5, 20224, Note_on_c, 2, 71, 0
5, 20224, Note_on_c, 2, 64, 0
5, 20224, Note_on_c, 2, 68, 0
5, 20352, Note_on_c, 2, 64, 100
5, 20352, Note_on_c, 2, 71, 100
5, 20352, Note_on_c, 2, 76, 100
5, 20480, Note_on_c, 2, 76, 0
5, 20480, Note_on_c, 2, 71, 0
5, 20480, Note_on_c, 2, 64, 0
5, 20544, Note_on_c, 2, 69, 100
5, 20544, Note_on_c, 2, 73, 100
5, 20544, Note_on_c, 2, 76, 100
5, 20800, Note_on_c, 2, 76, 0
5, 20800, Note_on_c, 2, 73, 0
5, 20800, Note_on_c, 2, 69, 0
5, 20928, Note_on_c, 2, 61, 100
5, 20928, Note_on_c, 2, 69, 100
5, 21056, Note_on_c, 2, 69, 0
5, 21056, Note_on_c, 2, 61, 0
5, 21120, Note_on_c, 2, 66, 100
5, 21120, Note_on_c, 2, 71, 100
5, 21248, Note_on_c, 2, 71, 0
5, 21248, Note_on_c, 2, 66, 0
5, 21312, Note_on_c, 2, 64, 100
5, 21312, Note_on_c, 2, 69, 100
5, 21440, Note_on_c, 2, 69, 0
5, 21440, Note_on_c, 2, 64, 0
5, 21504, Note_on_c, 2, 62, 100
5, 21504, Note_on_c, 2, 68, 100
5, 21632, Note_on_c, 2, 68, 0
5, 21632, Note_on_c, 2, 62, 0
5, 21696, Note_on_c, 2, 64, 100
5, 21696, Note_on_c, 2, 61, 100
5, 21696, Note_on_c, 2, 69, 100
5, 21824, Note_on_c, 2, 69, 0
5, 21824, Note_on_c, 2, 61, 0
5, 21824, Note_on_c, 2, 64, 0
5, 21888, Note_on_c, 2, 73, 100
5, 21952, Note_on_c, 2, 73, 0
5, 21984, Note_on_c, 2, 76, 100
5, 22048, Note_on_c, 2, 76, 0
5, 22080, Note_on_c, 2, 81, 70
5, 22208, Note_on_c, 2, 81, 0
5, 22272, Note_on_c, 2, 68, 70
5, 22272, Note_on_c, 2, 64, 70
5, 22272, Note_on_c, 2, 71, 70
5, 22528, Note_on_c, 2, 71, 0
5, 22528, Note_on_c, 2, 64, 0
5, 22528, Note_on_c, 2, 68, 0
5, 22656, Note_on_c, 2, 64, 70
5, 22656, Note_on_c, 2, 71, 70
5, 22656, Note_on_c, 2, 76, 70
5, 22784, Note_on_c, 2, 76, 0
5, 22784, Note_on_c, 2, 71, 0
5, 22784, Note_on_c, 2, 64, 0
5, 22848, Note_on_c, 2, 69, 70
5, 22848, Note_on_c, 2, 73, 70
5, 22848, Note_on_c, 2, 76, 70
5, 23104, Note_on_c, 2, 76, 0
5, 23104, Note_on_c, 2, 73, 0
5, 23104, Note_on_c, 2, 69, 0
5, 23232, Note_on_c, 2, 61, 70
5, 23232, Note_on_c, 2, 69, 70
5, 23360, Note_on_c, 2, 69, 0
5, 23360, Note_on_c, 2, 61, 0
5, 23424, Note_on_c, 2, 66, 70
5, 23424, Note_on_c, 2, 71, 70
5, 23552, Note_on_c, 2, 71, 0
5, 23552, Note_on_c, 2, 66, 0
5, 23616, Note_on_c, 2, 64, 70
5, 23616, Note_on_c, 2, 69, 70
5, 23744, Note_on_c, 2, 69, 0
5, 23744, Note_on_c, 2, 64, 0
5, 23808, Note_on_c, 2, 62, 70
5, 23808, Note_on_c, 2, 68, 70
5, 23936, Note_on_c, 2, 68, 0
5, 23936, Note_on_c, 2, 62, 0
5, 24000, Note_on_c, 2, 64, 70
5, 24000, Note_on_c, 2, 61, 70
5, 24000, Note_on_c, 2, 69, 70
5, 24128, Note_on_c, 2, 69, 0
5, 24128, Note_on_c, 2, 61, 0
5, 24128, Note_on_c, 2, 64, 0
5, 24384, Note_on_c, 2, 64, 100
5, 24384, Note_on_c, 2, 68, 100
5, 24384, Note_on_c, 2, 71, 100
5, 24512, Note_on_c, 2, 71, 0
5, 24512, Note_on_c, 2, 68, 0
5, 24512, Note_on_c, 2, 64, 0
5, 24576, Note_on_c, 2, 68, 100
5, 24576, Note_on_c, 2, 76, 100
5, 24832, Note_on_c, 2, 76, 0
5, 24832, Note_on_c, 2, 68, 0
5, 24960, Note_on_c, 2, 69, 100
5, 24960, Note_on_c, 2, 63, 100
5, 24960, Note_on_c, 2, 66, 100
5, 24960, Note_on_c, 2, 71, 100
5, 25216, Note_on_c, 2, 71, 0
5, 25216, Note_on_c, 2, 69, 0
5, 25216, Note_on_c, 2, 63, 0
5, 25216, Note_on_c, 2, 66, 0
5, 25344, Note_on_c, 2, 64, 100
5, 25344, Note_on_c, 2, 68, 100
5, 25344, Note_on_c, 2, 71, 100
5, 25600, Note_on_c, 2, 71, 0
5, 25600, Note_on_c, 2, 68, 0
5, 25600, Note_on_c, 2, 64, 0
5, 25920, Note_on_c, 2, 68, 100
5, 25920, Note_on_c, 2, 76, 100
5, 26048, Note_on_c, 2, 76, 0
5, 26048, Note_on_c, 2, 68, 0
5, 26112, Note_on_c, 2, 71, 100
5, 26112, Note_on_c, 2, 68, 100
5, 26112, Note_on_c, 2, 76, 100
5, 26368, Note_on_c, 2, 76, 0
5, 26368, Note_on_c, 2, 68, 0
5, 26368, Note_on_c, 2, 71, 0
5, 26496, Note_on_c, 2, 69, 100
5, 26496, Note_on_c, 2, 64, 100
5, 26496, Note_on_c, 2, 71, 100
5, 26624, Note_on_c, 2, 64, 0
5, 26688, Note_on_c, 2, 63, 100
5, 26752, Note_on_c, 2, 71, 0
5, 26752, Note_on_c, 2, 69, 0
5, 26816, Note_on_c, 2, 63, 0
5, 26880, Note_on_c, 2, 64, 100
5, 26880, Note_on_c, 2, 68, 100
5, 26880, Note_on_c, 2, 71, 100
5, 27136, Note_on_c, 2, 71, 0
5, 27136, Note_on_c, 2, 68, 0
5, 27136, Note_on_c, 2, 64, 0
5, 27264, Note_on_c, 2, 83, 100
5, 27328, Note_on_c, 2, 83, 0
5, 27360, Note_on_c, 2, 81, 100
5, 27424, Note_on_c, 2, 81, 0
5, 27456, Note_on_c, 2, 80, 100
5, 27520, Note_on_c, 2, 80, 0
5, 27552, Note_on_c, 2, 78, 100
5, 27616, Note_on_c, 2, 78, 0
5, 27648, Note_on_c, 2, 68, 100
5, 27648, Note_on_c, 2, 76, 100
5, 27904, Note_on_c, 2, 76, 0
5, 27904, Note_on_c, 2, 68, 0
5, 28032, Note_on_c, 2, 69, 100
5, 28032, Note_on_c, 2, 63, 100
5, 28032, Note_on_c, 2, 66, 100
5, 28032, Note_on_c, 2, 71, 100
5, 28288, Note_on_c, 2, 71, 0
5, 28288, Note_on_c, 2, 69, 0
5, 28288, Note_on_c, 2, 63, 0
5, 28288, Note_on_c, 2, 66, 0
5, 28416, Note_on_c, 2, 64, 100
5, 28416, Note_on_c, 2, 68, 100
5, 28416, Note_on_c, 2, 71, 100
5, 28672, Note_on_c, 2, 71, 0
5, 28672, Note_on_c, 2, 68, 0
5, 28672, Note_on_c, 2, 64, 0
5, 28992, Note_on_c, 2, 68, 100
5, 28992, Note_on_c, 2, 76, 100
5, 29120, Note_on_c, 2, 76, 0
5, 29120, Note_on_c, 2, 68, 0
5, 29184, Note_on_c, 2, 71, 100
5, 29184, Note_on_c, 2, 68, 100
5, 29184, Note_on_c, 2, 76, 100
5, 29440, Note_on_c, 2, 76, 0
5, 29440, Note_on_c, 2, 68, 0
5, 29440, Note_on_c, 2, 71, 0
5, 29568, Note_on_c, 2, 69, 100
5, 29568, Note_on_c, 2, 64, 100
5, 29568, Note_on_c, 2, 71, 100
5, 29696, Note_on_c, 2, 64, 0
5, 29760, Note_on_c, 2, 63, 100
5, 29824, Note_on_c, 2, 71, 0
5, 29824, Note_on_c, 2, 69, 0
5, 29888, Note_on_c, 2, 63, 0
5, 29952, Note_on_c, 2, 64, 100
5, 29952, Note_on_c, 2, 68, 100
5, 29952, Note_on_c, 2, 71, 100
5, 30208, Note_on_c, 2, 71, 0
5, 30208, Note_on_c, 2, 68, 0
5, 30208, Note_on_c, 2, 64, 0
5, 30336, Note_on_c, 2, 64, 100
5, 30336, Note_on_c, 2, 68, 100
5, 30464, Note_on_c, 2, 68, 0
5, 30464, Note_on_c, 2, 64, 0
5, 30720, Note_on_c, 2, 71, 100
5, 30720, Note_on_c, 2, 64, 100
5, 30720, Note_on_c, 2, 68, 100
5, 30848, Note_on_c, 2, 68, 0
5, 30848, Note_on_c, 2, 64, 0
5, 30848, Note_on_c, 2, 71, 0
5, 31104, Note_on_c, 2, 68, 100
5, 31104, Note_on_c, 2, 71, 100
5, 31104, Note_on_c, 2, 76, 100
5, 31232, Note_on_c, 2, 76, 0
5, 31232, Note_on_c, 2, 71, 0
5, 31232, Note_on_c, 2, 68, 0
5, 31488, Note_on_c, 2, 68, 100
5, 31488, Note_on_c, 2, 71, 100
5, 31488, Note_on_c, 2, 74, 100
5, 31616, Note_on_c, 2, 74, 0
5, 31616, Note_on_c, 2, 71, 0
5, 31616, Note_on_c, 2, 68, 0
5, 31872, Note_on_c, 2, 64, 100
5, 31872, Note_on_c, 2, 74, 100
5, 32000, Note_on_c, 2, 74, 0
5, 32000, Note_on_c, 2, 64, 0
5, 32256, Note_on_c, 2, 64, 100
5, 32256, Note_on_c, 2, 69, 100
5, 32256, Note_on_c, 2, 73, 100
5, 32512, Note_on_c, 2, 73, 0
5, 32512, Note_on_c, 2, 69, 0
5, 32512, Note_on_c, 2, 64, 0
5, 32640, Note_on_c, 2, 59, 100
5, 32640, Note_on_c, 2, 64, 100
5, 32640, Note_on_c, 2, 68, 100
5, 32896, Note_on_c, 2, 68, 0
5, 32896, Note_on_c, 2, 64, 0
5, 32896, Note_on_c, 2, 59, 0
5, 33024, Note_on_c, 2, 61, 100
5, 33024, Note_on_c, 2, 64, 100
5, 33024, Note_on_c, 2, 69, 100
5, 33408, Note_on_c, 2, 69, 0
5, 33408, Note_on_c, 2, 64, 0
5, 33408, Note_on_c, 2, 61, 0
5, 33792, Note_on_c, 2, 71, 100
5, 33792, Note_on_c, 2, 64, 100
5, 33792, Note_on_c, 2, 68, 100
5, 33920, Note_on_c, 2, 68, 0
5, 33920, Note_on_c, 2, 64, 0
5, 33920, Note_on_c, 2, 71, 0
5, 34176, Note_on_c, 2, 68, 100
5, 34176, Note_on_c, 2, 71, 100
5, 34176, Note_on_c, 2, 76, 100
5, 34304, Note_on_c, 2, 76, 0
5, 34304, Note_on_c, 2, 71, 0
5, 34304, Note_on_c, 2, 68, 0
5, 34560, Note_on_c, 2, 68, 100
5, 34560, Note_on_c, 2, 71, 100
5, 34560, Note_on_c, 2, 74, 100
5, 34688, Note_on_c, 2, 74, 0
5, 34688, Note_on_c, 2, 71, 0
5, 34688, Note_on_c, 2, 68, 0
5, 34944, Note_on_c, 2, 64, 100
5, 34944, Note_on_c, 2, 74, 100
5, 35072, Note_on_c, 2, 74, 0
5, 35072, Note_on_c, 2, 64, 0
5, 35328, Note_on_c, 2, 64, 100
5, 35328, Note_on_c, 2, 69, 100
5, 35328, Note_on_c, 2, 73, 100
5, 35584, Note_on_c, 2, 73, 0
5, 35584, Note_on_c, 2, 69, 0
5, 35584, Note_on_c, 2, 64, 0
5, 35712, Note_on_c, 2, 59, 100
5, 35712, Note_on_c, 2, 64, 100
5, 35712, Note_on_c, 2, 68, 100
5, 35968, Note_on_c, 2, 68, 0
5, 35968, Note_on_c, 2, 64, 0
5, 35968, Note_on_c, 2, 59, 0
5, 36096, Note_on_c, 2, 64, 100
5, 36096, Note_on_c, 2, 57, 100
5, 36096, Note_on_c, 2, 69, 100
5, 36224, Note_on_c, 2, 69, 0
5, 36224, Note_on_c, 2, 57, 0
5, 36224, Note_on_c, 2, 64, 0
5, 36288, Note_on_c, 2, 69, 100
5, 36380, Note_on_c, 2, 69, 0
5, 36384, Note_on_c, 2, 71, 100
5, 36476, Note_on_c, 2, 71, 0
5, 36480, Note_on_c, 2, 72, 100
5, 36668, Note_on_c, 2, 72, 0
5, 36672, Note_on_c, 2, 71, 100
5, 36860, Note_on_c, 2, 71, 0
5, 36864, Note_on_c, 2, 69, 100
5, 37052, Note_on_c, 2, 69, 0
5, 37056, Note_on_c, 2, 67, 100
5, 37244, Note_on_c, 2, 67, 0
5, 37248, Note_on_c, 2, 65, 100
5, 37436, Note_on_c, 2, 65, 0
5, 37440, Note_on_c, 2, 64, 100
5, 37568, Note_on_c, 2, 64, 0
5, 37632, Note_on_c, 2, 64, 100
5, 38244, Note_on_c, 2, 64, 0
5, 38400, Note_on_c, 2, 62, 100
5, 38588, Note_on_c, 2, 62, 0
5, 38592, Note_on_c, 2, 64, 100
5, 38780, Note_on_c, 2, 64, 0
5, 38784, Note_on_c, 2, 65, 100
5, 38972, Note_on_c, 2, 65, 0
5, 38976, Note_on_c, 2, 64, 100
5, 39164, Note_on_c, 2, 64, 0
5, 39168, Note_on_c, 2, 62, 100
5, 39356, Note_on_c, 2, 62, 0
5, 39360, Note_on_c, 2, 60, 100
5, 39548, Note_on_c, 2, 60, 0
5, 39552, Note_on_c, 2, 59, 100
5, 39740, Note_on_c, 2, 59, 0
5, 39744, Note_on_c, 2, 57, 100
5, 39872, Note_on_c, 2, 57, 0
5, 39936, Note_on_c, 2, 57, 100
5, 40448, Note_on_c, 2, 57, 0
5, 40704, Note_on_c, 2, 69, 75
5, 40892, Note_on_c, 2, 69, 0
5, 40896, Note_on_c, 2, 71, 75
5, 41084, Note_on_c, 2, 71, 0
5, 41088, Note_on_c, 2, 72, 75
5, 41276, Note_on_c, 2, 72, 0
5, 41280, Note_on_c, 2, 71, 75
5, 41468, Note_on_c, 2, 71, 0
5, 41472, Note_on_c, 2, 69, 75
5, 41660, Note_on_c, 2, 69, 0
5, 41664, Note_on_c, 2, 67, 75
5, 41852, Note_on_c, 2, 67, 0
5, 41856, Note_on_c, 2, 65, 75
5, 42044, Note_on_c, 2, 65, 0
5, 42048, Note_on_c, 2, 64, 75
5, 42176, Note_on_c, 2, 64, 0
5, 42240, Note_on_c, 2, 64, 75
5, 42852, Note_on_c, 2, 64, 0
5, 43008, Note_on_c, 2, 62, 75
5, 43196, Note_on_c, 2, 62, 0
5, 43200, Note_on_c, 2, 64, 75
5, 43388, Note_on_c, 2, 64, 0
5, 43392, Note_on_c, 2, 65, 75
5, 43580, Note_on_c, 2, 65, 0
5, 43584, Note_on_c, 2, 64, 75
5, 43772, Note_on_c, 2, 64, 0
5, 43776, Note_on_c, 2, 62, 75
5, 43964, Note_on_c, 2, 62, 0
5, 43968, Note_on_c, 2, 60, 75
5, 44156, Note_on_c, 2, 60, 0
5, 44160, Note_on_c, 2, 59, 75
5, 44348, Note_on_c, 2, 59, 0
5, 44352, Note_on_c, 2, 57, 75
5, 44352, Note_on_c, 2, 57, 75
5, 44480, Note_on_c, 2, 57, 0
5, 44480, Note_on_c, 2, 57, 0
5, 44544, Note_on_c, 2, 57, 75
5, 44544, Note_on_c, 2, 57, 75
5, 45056, Note_on_c, 2, 57, 0
5, 45056, Note_on_c, 2, 57, 0
5, 45312, Note_on_c, 2, 65, 100
5, 45500, Note_on_c, 2, 65, 0
5, 45504, Note_on_c, 2, 64, 100
5, 45632, Note_on_c, 2, 64, 0
5, 45696, Note_on_c, 2, 64, 100
5, 46308, Note_on_c, 2, 64, 0
5, 46464, Note_on_c, 2, 58, 100
5, 46652, Note_on_c, 2, 58, 0
5, 46656, Note_on_c, 2, 57, 100
5, 46656, Note_on_c, 2, 57, 100
5, 46784, Note_on_c, 2, 57, 0
5, 46784, Note_on_c, 2, 57, 0
5, 46848, Note_on_c, 2, 57, 100
5, 46848, Note_on_c, 2, 57, 100
5, 47360, Note_on_c, 2, 57, 0
5, 47360, Note_on_c, 2, 57, 0
5, 47616, Note_on_c, 2, 62, 100
5, 47804, Note_on_c, 2, 62, 0
5, 47808, Note_on_c, 2, 64, 100
5, 47996, Note_on_c, 2, 64, 0
5, 48000, Note_on_c, 2, 65, 100
5, 48188, Note_on_c, 2, 65, 0
5, 48192, Note_on_c, 2, 64, 100
5, 48380, Note_on_c, 2, 64, 0
5, 48384, Note_on_c, 2, 62, 100
5, 48572, Note_on_c, 2, 62, 0
5, 48576, Note_on_c, 2, 60, 100
5, 48764, Note_on_c, 2, 60, 0
5, 48768, Note_on_c, 2, 59, 100
5, 48956, Note_on_c, 2, 59, 0
5, 48960, Note_on_c, 2, 57, 100
5, 48960, Note_on_c, 2, 57, 100
5, 49088, Note_on_c, 2, 57, 0
5, 49088, Note_on_c, 2, 57, 0
5, 49152, Note_on_c, 2, 57, 100
5, 49152, Note_on_c, 2, 57, 100
5, 49664, Note_on_c, 2, 57, 0
5, 49664, Note_on_c, 2, 57, 0
5, 49920, Note_on_c, 2, 65, 75
5, 50108, Note_on_c, 2, 65, 0
5, 50112, Note_on_c, 2, 64, 75
5, 50240, Note_on_c, 2, 64, 0
5, 50304, Note_on_c, 2, 64, 75
5, 50916, Note_on_c, 2, 64, 0
5, 51072, Note_on_c, 2, 58, 75
5, 51260, Note_on_c, 2, 58, 0
5, 51264, Note_on_c, 2, 57, 75
5, 51264, Note_on_c, 2, 57, 75
5, 51392, Note_on_c, 2, 57, 0
5, 51392, Note_on_c, 2, 57, 0
5, 51456, Note_on_c, 2, 57, 75
5, 51456, Note_on_c, 2, 57, 75
5, 51968, Note_on_c, 2, 57, 0
5, 51968, Note_on_c, 2, 57, 0
5, 52224, Note_on_c, 2, 62, 75
5, 52412, Note_on_c, 2, 62, 0
5, 52416, Note_on_c, 2, 64, 75
5, 52604, Note_on_c, 2, 64, 0
5, 52608, Note_on_c, 2, 65, 75
5, 52796, Note_on_c, 2, 65, 0
5, 52800, Note_on_c, 2, 64, 75
5, 52988, Note_on_c, 2, 64, 0
5, 52992, Note_on_c, 2, 62, 75
5, 53180, Note_on_c, 2, 62, 0
5, 53184, Note_on_c, 2, 60, 75
5, 53372, Note_on_c, 2, 60, 0
5, 53376, Note_on_c, 2, 59, 75
5, 53564, Note_on_c, 2, 59, 0
5, 53568, Note_on_c, 2, 57, 75
5, 53568, Note_on_c, 2, 57, 75
5, 53696, Note_on_c, 2, 57, 0
5, 53696, Note_on_c, 2, 57, 0
5, 53760, Note_on_c, 2, 57, 75
5, 53760, Note_on_c, 2, 57, 75
5, 54272, Note_on_c, 2, 57, 0
5, 54272, Note_on_c, 2, 57, 0
5, 54528, Note_on_c, 2, 72, 100
5, 54528, Note_on_c, 2, 69, 100
5, 54784, Note_on_c, 2, 69, 0
5, 54784, Note_on_c, 2, 72, 0
5, 54912, Note_on_c, 2, 77, 100
5, 55040, Note_on_c, 2, 77, 0
5, 55104, Note_on_c, 2, 76, 100
5, 55232, Note_on_c, 2, 76, 0
5, 55296, Note_on_c, 2, 68, 100
5, 55296, Note_on_c, 2, 64, 100
5, 55296, Note_on_c, 2, 74, 100
5, 55552, Note_on_c, 2, 74, 0
5, 55552, Note_on_c, 2, 64, 0
5, 55552, Note_on_c, 2, 68, 0
5, 55680, Note_on_c, 2, 64, 100
5, 55680, Note_on_c, 2, 69, 100
5, 55680, Note_on_c, 2, 72, 100
5, 55936, Note_on_c, 2, 72, 0
5, 55936, Note_on_c, 2, 69, 0
5, 55936, Note_on_c, 2, 64, 0
5, 56064, Note_on_c, 2, 65, 100
5, 56064, Note_on_c, 2, 70, 100
5, 56320, Note_on_c, 2, 70, 0
5, 56320, Note_on_c, 2, 65, 0
5, 56448, Note_on_c, 2, 59, 100
5, 56448, Note_on_c, 2, 64, 100
5, 56448, Note_on_c, 2, 68, 100
5, 56704, Note_on_c, 2, 68, 0
5, 56704, Note_on_c, 2, 64, 0
5, 56704, Note_on_c, 2, 59, 0
5, 56832, Note_on_c, 2, 64, 100
5, 56832, Note_on_c, 2, 60, 100
5, 56832, Note_on_c, 2, 69, 100
5, 57088, Note_on_c, 2, 69, 0
5, 57088, Note_on_c, 2, 60, 0
5, 57088, Note_on_c, 2, 64, 0
5, 57408, Note_on_c, 2, 69, 100
5, 57536, Note_on_c, 2, 69, 0
5, 57600, Note_on_c, 2, 64, 100
5, 57600, Note_on_c, 2, 72, 100
5, 57600, Note_on_c, 2, 69, 100
5, 57856, Note_on_c, 2, 69, 0
5, 57856, Note_on_c, 2, 72, 0
5, 57856, Note_on_c, 2, 64, 0
5, 57984, Note_on_c, 2, 77, 100
5, 58112, Note_on_c, 2, 77, 0
5, 58176, Note_on_c, 2, 76, 100
5, 58304, Note_on_c, 2, 76, 0
5, 58368, Note_on_c, 2, 68, 100
5, 58368, Note_on_c, 2, 64, 100
5, 58368, Note_on_c, 2, 74, 100
5, 58624, Note_on_c, 2, 74, 0
5, 58624, Note_on_c, 2, 64, 0
5, 58624, Note_on_c, 2, 68, 0
5, 58752, Note_on_c, 2, 64, 100
5, 58752, Note_on_c, 2, 69, 100
5, 58752, Note_on_c, 2, 72, 100
5, 59008, Note_on_c, 2, 72, 0
5, 59008, Note_on_c, 2, 69, 0
5, 59008, Note_on_c, 2, 64, 0
5, 59136, Note_on_c, 2, 65, 100
5, 59136, Note_on_c, 2, 70, 100
5, 59392, Note_on_c, 2, 70, 0
5, 59392, Note_on_c, 2, 65, 0
5, 59520, Note_on_c, 2, 59, 100
5, 59520, Note_on_c, 2, 64, 100
5, 59520, Note_on_c, 2, 68, 100
5, 59776, Note_on_c, 2, 68, 0
5, 59776, Note_on_c, 2, 64, 0
5, 59776, Note_on_c, 2, 59, 0
5, 59904, Note_on_c, 2, 61, 100
5, 59904, Note_on_c, 2, 64, 100
5, 59904, Note_on_c, 2, 69, 100
5, 60668, Note_on_c, 2, 69, 0
5, 60668, Note_on_c, 2, 64, 0
5, 60668, Note_on_c, 2, 61, 0
5, 60672, Note_on_c, 2, 68, 100
5, 60672, Note_on_c, 2, 62, 100
5, 60672, Note_on_c, 2, 64, 100
5, 60672, Note_on_c, 2, 71, 100
5, 61052, Note_on_c, 2, 71, 0
5, 61052, Note_on_c, 2, 68, 0
5, 61052, Note_on_c, 2, 62, 0
5, 61052, Note_on_c, 2, 64, 0
5, 61056, Note_on_c, 2, 61, 100
5, 61056, Note_on_c, 2, 64, 100
5, 61056, Note_on_c, 2, 69, 100
5, 61820, Note_on_c, 2, 69, 0
5, 61820, Note_on_c, 2, 64, 0
5, 61820, Note_on_c, 2, 61, 0
5, 61824, Note_on_c, 2, 64, 100
5, 61824, Note_on_c, 2, 68, 100
5, 62204, Note_on_c, 2, 68, 0
5, 62204, Note_on_c, 2, 64, 0
5, 62208, Note_on_c, 2, 61, 100
5, 62208, Note_on_c, 2, 64, 100
5, 62208, Note_on_c, 2, 69, 100
5, 62588, Note_on_c, 2, 69, 0
5, 62588, Note_on_c, 2, 64, 0
5, 62588, Note_on_c, 2, 61, 0
5, 62592, Note_on_c, 2, 64, 100
5, 62592, Note_on_c, 2, 69, 100
5, 62592, Note_on_c, 2, 73, 100
5, 62972, Note_on_c, 2, 73, 0
5, 62972, Note_on_c, 2, 69, 0
5, 62972, Note_on_c, 2, 64, 0
5, 62976, Note_on_c, 2, 61, 100
5, 62976, Note_on_c, 2, 64, 100
5, 62976, Note_on_c, 2, 69, 100
5, 63356, Note_on_c, 2, 69, 0
5, 63356, Note_on_c, 2, 64, 0
5, 63356, Note_on_c, 2, 61, 0
5, 63360, Note_on_c, 2, 64, 100
5, 63360, Note_on_c, 2, 69, 100
5, 63360, Note_on_c, 2, 73, 100
5, 63740, Note_on_c, 2, 73, 0
5, 63740, Note_on_c, 2, 69, 0
5, 63740, Note_on_c, 2, 64, 0
5, 63744, Note_on_c, 2, 73, 100
5, 63932, Note_on_c, 2, 73, 0
5, 63936, Note_on_c, 2, 71, 100
5, 64124, Note_on_c, 2, 71, 0
5, 64128, Note_on_c, 2, 69, 75
5, 64316, Note_on_c, 2, 69, 0
5, 64320, Note_on_c, 2, 68, 75
5, 64508, Note_on_c, 2, 68, 0
5, 64512, Note_on_c, 2, 61, 75
5, 64512, Note_on_c, 2, 64, 75
5, 64512, Note_on_c, 2, 69, 75
5, 65276, Note_on_c, 2, 69, 0
5, 65276, Note_on_c, 2, 64, 0
5, 65276, Note_on_c, 2, 61, 0
5, 65280, Note_on_c, 2, 68, 75
5, 65280, Note_on_c, 2, 62, 75
5, 65280, Note_on_c, 2, 64, 75
5, 65280, Note_on_c, 2, 71, 75
5, 65660, Note_on_c, 2, 71, 0
5, 65660, Note_on_c, 2, 68, 0
5, 65660, Note_on_c, 2, 62, 0
5, 65660, Note_on_c, 2, 64, 0
5, 65664, Note_on_c, 2, 61, 75
5, 65664, Note_on_c, 2, 64, 75
5, 65664, Note_on_c, 2, 69, 75
5, 66428, Note_on_c, 2, 69, 0
5, 66428, Note_on_c, 2, 64, 0
5, 66428, Note_on_c, 2, 61, 0
5, 66432, Note_on_c, 2, 64, 75
5, 66432, Note_on_c, 2, 68, 75
5, 66812, Note_on_c, 2, 68, 0
5, 66812, Note_on_c, 2, 64, 0
5, 66816, Note_on_c, 2, 61, 75
5, 66816, Note_on_c, 2, 64, 75
5, 66816, Note_on_c, 2, 69, 75
5, 67328, Note_on_c, 2, 69, 0
5, 67328, Note_on_c, 2, 64, 0
5, 67328, Note_on_c, 2, 61, 0
5, 67584, Note_on_c, 2, 64, 75
5, 67584, Note_on_c, 2, 69, 75
5, 67584, Note_on_c, 2, 73, 75
5, 67964, Note_on_c, 2, 73, 0
5, 67964, Note_on_c, 2, 69, 0
5, 67964, Note_on_c, 2, 64, 0
5, 67968, Note_on_c, 2, 69, 75
5, 67968, Note_on_c, 2, 61, 75
5, 67968, Note_on_c, 2, 64, 75
5, 68572, Note_on_c, 2, 64, 0
5, 68572, Note_on_c, 2, 61, 0
5, 68572, Note_on_c, 2, 69, 0
5, 69504, Note_on_c, 2, 64, 100
5, 69504, Note_on_c, 2, 68, 100
5, 69504, Note_on_c, 2, 71, 100
5, 69760, Note_on_c, 2, 71, 0
5, 69760, Note_on_c, 2, 68, 0
5, 69760, Note_on_c, 2, 64, 0
5, 69888, Note_on_c, 2, 68, 100
5, 69888, Note_on_c, 2, 71, 100
5, 69888, Note_on_c, 2, 74, 100
5, 70144, Note_on_c, 2, 74, 0
5, 70144, Note_on_c, 2, 71, 0
5, 70144, Note_on_c, 2, 68, 0
5, 70272, Note_on_c, 2, 64, 100
5, 70272, Note_on_c, 2, 68, 100
5, 70272, Note_on_c, 2, 71, 100
5, 70528, Note_on_c, 2, 71, 0
5, 70528, Note_on_c, 2, 68, 0
5, 70528, Note_on_c, 2, 64, 0
5, 70656, Note_on_c, 2, 64, 100
5, 70656, Note_on_c, 2, 76, 100
5, 70912, Note_on_c, 2, 76, 0
5, 70912, Note_on_c, 2, 64, 0
5, 71808, Note_on_c, 2, 64, 100
5, 71808, Note_on_c, 2, 61, 100
5, 71808, Note_on_c, 2, 69, 100
5, 72064, Note_on_c, 2, 69, 0
5, 72064, Note_on_c, 2, 61, 0
5, 72064, Note_on_c, 2, 64, 0
5, 72192, Note_on_c, 2, 64, 100
5, 72192, Note_on_c, 2, 69, 100
5, 72192, Note_on_c, 2, 73, 100
5, 72448, Note_on_c, 2, 73, 0
5, 72448, Note_on_c, 2, 69, 0
5, 72448, Note_on_c, 2, 64, 0
5, 72576, Note_on_c, 2, 69, 100
5, 72576, Note_on_c, 2, 73, 100
5, 72576, Note_on_c, 2, 76, 100
5, 72832, Note_on_c, 2, 76, 0
5, 72832, Note_on_c, 2, 73, 0
5, 72832, Note_on_c, 2, 69, 0
5, 72960, Note_on_c, 2, 73, 100
5, 72960, Note_on_c, 2, 81, 100
5, 72960, Note_on_c, 2, 69, 100
5, 73216, Note_on_c, 2, 69, 0
5, 73216, Note_on_c, 2, 81, 0
5, 73216, Note_on_c, 2, 73, 0
5, 74496, Note_on_c, 2, 69, 100
5, 74496, Note_on_c, 2, 73, 100
5, 74496, Note_on_c, 2, 76, 100
5, 74752, Note_on_c, 2, 76, 0
5, 74752, Note_on_c, 2, 73, 0
5, 74752, Note_on_c, 2, 69, 0
5, 74880, Note_on_c, 2, 68, 100
5, 74880, Note_on_c, 2, 74, 100
5, 74880, Note_on_c, 2, 76, 100
5, 75136, Note_on_c, 2, 76, 0
5, 75136, Note_on_c, 2, 74, 0
5, 75136, Note_on_c, 2, 68, 0
5, 75264, Note_on_c, 2, 69, 100
5, 75264, Note_on_c, 2, 73, 100
5, 75264, Note_on_c, 2, 76, 100
5, 75520, Note_on_c, 2, 76, 0
5, 75520, Note_on_c, 2, 73, 0
5, 75520, Note_on_c, 2, 69, 0
5, 75648, Note_on_c, 2, 69, 100
5, 75836, Note_on_c, 2, 69, 0
5, 75840, Note_on_c, 2, 68, 100
5, 76028, Note_on_c, 2, 68, 0
5, 76032, Note_on_c, 2, 66, 100
5, 76220, Note_on_c, 2, 66, 0
5, 76224, Note_on_c, 2, 64, 100
5, 76412, Note_on_c, 2, 64, 0
5, 76416, Note_on_c, 2, 62, 100
5, 76604, Note_on_c, 2, 62, 0
5, 76608, Note_on_c, 2, 61, 100
5, 76796, Note_on_c, 2, 61, 0
5, 76800, Note_on_c, 2, 59, 100
5, 76988, Note_on_c, 2, 59, 0
5, 76992, Note_on_c, 2, 64, 100
5, 77180, Note_on_c, 2, 64, 0
5, 77184, Note_on_c, 2, 57, 100
5, 77440, Note_on_c, 2, 57, 0
5, 78720, Note_on_c, 2, 64, 100
5, 78720, Note_on_c, 2, 68, 100
5, 78720, Note_on_c, 2, 71, 100
5, 78976, Note_on_c, 2, 71, 0
5, 78976, Note_on_c, 2, 68, 0
5, 78976, Note_on_c, 2, 64, 0
5, 79104, Note_on_c, 2, 68, 100
5, 79104, Note_on_c, 2, 71, 100
5, 79104, Note_on_c, 2, 74, 100
5, 79360, Note_on_c, 2, 74, 0
5, 79360, Note_on_c, 2, 71, 0
5, 79360, Note_on_c, 2, 68, 0
5, 79488, Note_on_c, 2, 64, 100
5, 79488, Note_on_c, 2, 68, 100
5, 79488, Note_on_c, 2, 71, 100
5, 79744, Note_on_c, 2, 71, 0
5, 79744, Note_on_c, 2, 68, 0
5, 79744, Note_on_c, 2, 64, 0
5, 79872, Note_on_c, 2, 64, 100
5, 79872, Note_on_c, 2, 76, 100
5, 80128, Note_on_c, 2, 76, 0
5, 80128, Note_on_c, 2, 64, 0
5, 81024, Note_on_c, 2, 64, 100
5, 81024, Note_on_c, 2, 61, 100
5, 81024, Note_on_c, 2, 69, 100
5, 81280, Note_on_c, 2, 69, 0
5, 81280, Note_on_c, 2, 61, 0
5, 81280, Note_on_c, 2, 64, 0
5, 81408, Note_on_c, 2, 64, 100
5, 81408, Note_on_c, 2, 69, 100
5, 81408, Note_on_c, 2, 73, 100
5, 81664, Note_on_c, 2, 73, 0
5, 81664, Note_on_c, 2, 69, 0
5, 81664, Note_on_c, 2, 64, 0
5, 81792, Note_on_c, 2, 69, 100
5, 81792, Note_on_c, 2, 73, 100
5, 81792, Note_on_c, 2, 76, 100
5, 82048, Note_on_c, 2, 76, 0
5, 82048, Note_on_c, 2, 73, 0
5, 82048, Note_on_c, 2, 69, 0
5, 82176, Note_on_c, 2, 73, 100
5, 82176, Note_on_c, 2, 81, 100
5, 82176, Note_on_c, 2, 69, 100
5, 82432, Note_on_c, 2, 69, 0
5, 82432, Note_on_c, 2, 81, 0
5, 82432, Note_on_c, 2, 73, 0
5, 83712, Note_on_c, 2, 69, 100
5, 83712, Note_on_c, 2, 73, 100
5, 83712, Note_on_c, 2, 76, 100
5, 83968, Note_on_c, 2, 76, 0
5, 83968, Note_on_c, 2, 73, 0
5, 83968, Note_on_c, 2, 69, 0
5, 84096, Note_on_c, 2, 68, 100
5, 84096, Note_on_c, 2, 74, 100
5, 84096, Note_on_c, 2, 76, 100
5, 84352, Note_on_c, 2, 76, 0
5, 84352, Note_on_c, 2, 74, 0
5, 84352, Note_on_c, 2, 68, 0
5, 84480, Note_on_c, 2, 69, 100
5, 84480, Note_on_c, 2, 73, 100
5, 84480, Note_on_c, 2, 76, 100
5, 84736, Note_on_c, 2, 76, 0
5, 84736, Note_on_c, 2, 73, 0
5, 84736, Note_on_c, 2, 69, 0
5, 86784, Note_on_c, 2, 69, 100
5, 86784, Note_on_c, 2, 61, 100
5, 86784, Note_on_c, 2, 64, 100
5, 86912, Note_on_c, 2, 64, 0
5, 86912, Note_on_c, 2, 61, 0
5, 86912, Note_on_c, 2, 69, 0
5, 87168, Note_on_c, 2, 69, 100
5, 87296, Note_on_c, 2, 69, 0
5, 87360, Note_on_c, 2, 68, 100
5, 87488, Note_on_c, 2, 68, 0
5, 87552, Note_on_c, 2, 66, 100
5, 87680, Note_on_c, 2, 66, 0
5, 87744, Note_on_c, 2, 64, 100
5, 87872, Note_on_c, 2, 64, 0
5, 87936, Note_on_c, 2, 62, 100
5, 88064, Note_on_c, 2, 62, 0
5, 88128, Note_on_c, 2, 61, 100
5, 88256, Note_on_c, 2, 61, 0
5, 88320, Note_on_c, 2, 59, 100
5, 88448, Note_on_c, 2, 59, 0
5, 88512, Note_on_c, 2, 64, 100
5, 88640, Note_on_c, 2, 64, 0
5, 88760, Note_on_c, 2, 57, 91
5, 88816, Note_on_c, 2, 61, 65
5, 88860, Note_on_c, 2, 69, 60
5, 88880, Note_on_c, 2, 64, 46
5, 90496, Note_on_c, 2, 61, 0
5, 90516, Note_on_c, 2, 64, 0
5, 90532, Note_on_c, 2, 69, 0
5, 90532, Note_on_c, 2, 57, 0
5, 90532, End_track
6, 0, Start_track
6, 0, MIDI_port, 0
6, 0, Title_t, "e-mail: basfawlty@aol.com"
6, 0, Control_c, 3, 0, 0
6, 0, Control_c, 3, 32, 0
6, 0, Program_c, 3, 6
6, 0, Control_c, 3, 7, 93
6, 0, Control_c, 3, 10, 47
6, 1152, Note_on_c, 3, 45, 100
6, 1408, Note_on_c, 3, 45, 0
6, 1536, Note_on_c, 3, 45, 100
6, 1792, Note_on_c, 3, 45, 0
6, 1920, Note_on_c, 3, 45, 100
6, 2176, Note_on_c, 3, 45, 0
6, 2304, Note_on_c, 3, 45, 100
6, 2560, Note_on_c, 3, 45, 0
6, 2688, Note_on_c, 3, 45, 100
6, 2944, Note_on_c, 3, 45, 0
6, 3072, Note_on_c, 3, 45, 100
6, 3328, Note_on_c, 3, 45, 0
6, 3456, Note_on_c, 3, 45, 100
6, 3712, Note_on_c, 3, 45, 0
6, 3840, Note_on_c, 3, 45, 100
6, 4096, Note_on_c, 3, 45, 0
6, 4224, Note_on_c, 3, 45, 100
6, 4480, Note_on_c, 3, 45, 0
6, 4608, Note_on_c, 3, 45, 100
6, 4864, Note_on_c, 3, 45, 0
6, 4992, Note_on_c, 3, 45, 100
6, 5248, Note_on_c, 3, 45, 0
6, 5376, Note_on_c, 3, 45, 75
6, 5632, Note_on_c, 3, 45, 0
6, 5760, Note_on_c, 3, 45, 75
6, 6016, Note_on_c, 3, 45, 0
6, 6144, Note_on_c, 3, 45, 75
6, 6400, Note_on_c, 3, 45, 0
6, 6528, Note_on_c, 3, 45, 75
6, 6784, Note_on_c, 3, 45, 0
6, 6912, Note_on_c, 3, 45, 75
6, 7168, Note_on_c, 3, 45, 0
6, 7296, Note_on_c, 3, 45, 75
6, 7552, Note_on_c, 3, 45, 0
6, 7680, Note_on_c, 3, 45, 75
6, 7936, Note_on_c, 3, 45, 0
6, 8064, Note_on_c, 3, 45, 75
6, 8320, Note_on_c, 3, 45, 0
6, 8448, Note_on_c, 3, 45, 75
6, 8704, Note_on_c, 3, 45, 0
6, 8832, Note_on_c, 3, 45, 75
6, 9088, Note_on_c, 3, 45, 0
6, 9216, Note_on_c, 3, 45, 100
6, 9344, Note_on_c, 3, 45, 0
6, 9408, Note_on_c, 3, 57, 100
6, 9472, Note_on_c, 3, 57, 0
6, 9504, Note_on_c, 3, 59, 100
6, 9568, Note_on_c, 3, 59, 0
6, 9600, Note_on_c, 3, 61, 100
6, 9728, Note_on_c, 3, 61, 0
6, 9792, Note_on_c, 3, 62, 100
6, 9920, Note_on_c, 3, 62, 0
6, 9984, Note_on_c, 3, 61, 100
6, 10172, Note_on_c, 3, 61, 0
6, 10176, Note_on_c, 3, 59, 100
6, 10304, Note_on_c, 3, 59, 0
6, 10368, Note_on_c, 3, 57, 100
6, 10624, Note_on_c, 3, 57, 0
6, 10752, Note_on_c, 3, 57, 100
6, 11008, Note_on_c, 3, 57, 0
6, 11136, Note_on_c, 3, 59, 100
6, 11264, Note_on_c, 3, 59, 0
6, 11328, Note_on_c, 3, 57, 100
6, 11456, Note_on_c, 3, 57, 0
6, 11520, Note_on_c, 3, 52, 100
6, 11648, Note_on_c, 3, 52, 0
6, 11712, Note_on_c, 3, 56, 100
6, 11840, Note_on_c, 3, 56, 0
6, 11904, Note_on_c, 3, 57, 100
6, 12160, Note_on_c, 3, 57, 0
6, 12288, Note_on_c, 3, 45, 100
6, 12416, Note_on_c, 3, 45, 0
6, 12480, Note_on_c, 3, 57, 100
6, 12544, Note_on_c, 3, 57, 0
6, 12576, Note_on_c, 3, 59, 100
6, 12640, Note_on_c, 3, 59, 0
6, 12672, Note_on_c, 3, 61, 100
6, 12800, Note_on_c, 3, 61, 0
6, 12864, Note_on_c, 3, 62, 100
6, 12992, Note_on_c, 3, 62, 0
6, 13056, Note_on_c, 3, 61, 100
6, 13244, Note_on_c, 3, 61, 0
6, 13248, Note_on_c, 3, 59, 100
6, 13376, Note_on_c, 3, 59, 0
6, 13440, Note_on_c, 3, 57, 100
6, 13696, Note_on_c, 3, 57, 0
6, 13824, Note_on_c, 3, 45, 100
6, 13952, Note_on_c, 3, 45, 0
6, 14016, Note_on_c, 3, 57, 100
6, 14144, Note_on_c, 3, 57, 0
6, 14208, Note_on_c, 3, 59, 100
6, 14336, Note_on_c, 3, 59, 0
6, 14400, Note_on_c, 3, 57, 100
6, 14528, Note_on_c, 3, 57, 0
6, 14592, Note_on_c, 3, 56, 100
6, 14780, Note_on_c, 3, 56, 0
6, 14784, Note_on_c, 3, 52, 100
6, 14912, Note_on_c, 3, 52, 0
6, 14976, Note_on_c, 3, 57, 100
6, 15232, Note_on_c, 3, 57, 0
6, 15360, Note_on_c, 3, 45, 100
6, 15488, Note_on_c, 3, 45, 0
6, 15552, Note_on_c, 3, 57, 100
6, 15740, Note_on_c, 3, 57, 0
6, 15744, Note_on_c, 3, 59, 100
6, 15932, Note_on_c, 3, 59, 0
6, 15936, Note_on_c, 3, 61, 100
6, 16124, Note_on_c, 3, 61, 0
6, 16128, Note_on_c, 3, 57, 100
6, 16316, Note_on_c, 3, 57, 0
6, 16320, Note_on_c, 3, 59, 100
6, 16508, Note_on_c, 3, 59, 0
6, 16512, Note_on_c, 3, 61, 100
6, 16892, Note_on_c, 3, 61, 0
6, 16896, Note_on_c, 3, 62, 100
6, 17084, Note_on_c, 3, 62, 0
6, 17088, Note_on_c, 3, 61, 100
6, 17216, Note_on_c, 3, 61, 0
6, 17280, Note_on_c, 3, 57, 100
6, 17408, Note_on_c, 3, 57, 0
6, 17472, Note_on_c, 3, 45, 100
6, 17600, Note_on_c, 3, 45, 0
6, 17664, Note_on_c, 3, 45, 70
6, 17792, Note_on_c, 3, 45, 0
6, 17856, Note_on_c, 3, 57, 70
6, 18044, Note_on_c, 3, 57, 0
6, 18048, Note_on_c, 3, 59, 70
6, 18236, Note_on_c, 3, 59, 0
6, 18240, Note_on_c, 3, 61, 70
6, 18428, Note_on_c, 3, 61, 0
6, 18432, Note_on_c, 3, 57, 70
6, 18620, Note_on_c, 3, 57, 0
6, 18624, Note_on_c, 3, 59, 70
6, 18812, Note_on_c, 3, 59, 0
6, 18816, Note_on_c, 3, 61, 70
6, 19196, Note_on_c, 3, 61, 0
6, 19200, Note_on_c, 3, 62, 70
6, 19388, Note_on_c, 3, 62, 0
6, 19392, Note_on_c, 3, 61, 70
6, 19520, Note_on_c, 3, 61, 0
6, 19584, Note_on_c, 3, 57, 70
6, 19712, Note_on_c, 3, 57, 0
6, 19776, Note_on_c, 3, 57, 100
6, 19904, Note_on_c, 3, 57, 0
6, 19968, Note_on_c, 3, 59, 100
6, 20156, Note_on_c, 3, 59, 0
6, 20160, Note_on_c, 3, 56, 100
6, 20288, Note_on_c, 3, 56, 0
6, 20352, Note_on_c, 3, 56, 100
6, 20480, Note_on_c, 3, 56, 0
6, 20544, Note_on_c, 3, 57, 100
6, 20732, Note_on_c, 3, 57, 0
6, 20736, Note_on_c, 3, 45, 100
6, 20924, Note_on_c, 3, 45, 0
6, 20928, Note_on_c, 3, 49, 100
6, 21116, Note_on_c, 3, 49, 0
6, 21120, Note_on_c, 3, 50, 100
6, 21308, Note_on_c, 3, 50, 0
6, 21312, Note_on_c, 3, 49, 100
6, 21404, Note_on_c, 3, 49, 0
6, 21408, Note_on_c, 3, 50, 100
6, 21500, Note_on_c, 3, 50, 0
6, 21504, Note_on_c, 3, 52, 100
6, 21692, Note_on_c, 3, 52, 0
6, 21696, Note_on_c, 3, 45, 100
6, 21952, Note_on_c, 3, 45, 0
6, 22080, Note_on_c, 3, 57, 70
6, 22208, Note_on_c, 3, 57, 0
6, 22272, Note_on_c, 3, 59, 70
6, 22460, Note_on_c, 3, 59, 0
6, 22464, Note_on_c, 3, 56, 70
6, 22592, Note_on_c, 3, 56, 0
6, 22656, Note_on_c, 3, 56, 70
6, 22784, Note_on_c, 3, 56, 0
6, 22848, Note_on_c, 3, 57, 70
6, 23036, Note_on_c, 3, 57, 0
6, 23040, Note_on_c, 3, 45, 70
6, 23228, Note_on_c, 3, 45, 0
6, 23232, Note_on_c, 3, 49, 70
6, 23420, Note_on_c, 3, 49, 0
6, 23424, Note_on_c, 3, 50, 70
6, 23612, Note_on_c, 3, 50, 0
6, 23616, Note_on_c, 3, 49, 70
6, 23708, Note_on_c, 3, 49, 0
6, 23712, Note_on_c, 3, 50, 70
6, 23804, Note_on_c, 3, 50, 0
6, 23808, Note_on_c, 3, 52, 70
6, 23996, Note_on_c, 3, 52, 0
6, 24000, Note_on_c, 3, 45, 70
6, 24256, Note_on_c, 3, 45, 0
6, 24384, Note_on_c, 3, 52, 100
6, 24512, Note_on_c, 3, 52, 0
6, 24576, Note_on_c, 3, 52, 100
6, 24704, Note_on_c, 3, 52, 0
6, 24768, Note_on_c, 3, 52, 100
6, 24896, Note_on_c, 3, 52, 0
6, 24960, Note_on_c, 3, 47, 100
6, 25088, Note_on_c, 3, 47, 0
6, 25152, Note_on_c, 3, 47, 100
6, 25280, Note_on_c, 3, 47, 0
6, 25344, Note_on_c, 3, 52, 100
6, 25600, Note_on_c, 3, 52, 0
6, 25920, Note_on_c, 3, 52, 100
6, 26048, Note_on_c, 3, 52, 0
6, 26112, Note_on_c, 3, 52, 100
6, 26240, Note_on_c, 3, 52, 0
6, 26304, Note_on_c, 3, 52, 100
6, 26432, Note_on_c, 3, 52, 0
6, 26496, Note_on_c, 3, 47, 100
6, 26624, Note_on_c, 3, 47, 0
6, 26688, Note_on_c, 3, 47, 100
6, 26816, Note_on_c, 3, 47, 0
6, 26880, Note_on_c, 3, 52, 100
6, 27008, Note_on_c, 3, 52, 0
6, 27072, Note_on_c, 3, 52, 100
6, 27200, Note_on_c, 3, 52, 0
6, 27264, Note_on_c, 3, 52, 100
6, 27392, Note_on_c, 3, 52, 0
6, 27456, Note_on_c, 3, 52, 100
6, 27584, Note_on_c, 3, 52, 0
6, 27648, Note_on_c, 3, 52, 100
6, 27776, Note_on_c, 3, 52, 0
6, 27840, Note_on_c, 3, 52, 100
6, 27968, Note_on_c, 3, 52, 0
6, 28032, Note_on_c, 3, 47, 100
6, 28160, Note_on_c, 3, 47, 0
6, 28224, Note_on_c, 3, 47, 100
6, 28352, Note_on_c, 3, 47, 0
6, 28416, Note_on_c, 3, 52, 100
6, 28672, Note_on_c, 3, 52, 0
6, 28992, Note_on_c, 3, 52, 100
6, 29120, Note_on_c, 3, 52, 0
6, 29184, Note_on_c, 3, 52, 100
6, 29312, Note_on_c, 3, 52, 0
6, 29376, Note_on_c, 3, 52, 100
6, 29504, Note_on_c, 3, 52, 0
6, 29568, Note_on_c, 3, 47, 100
6, 29696, Note_on_c, 3, 47, 0
6, 29760, Note_on_c, 3, 47, 100
6, 29888, Note_on_c, 3, 47, 0
6, 29952, Note_on_c, 3, 52, 100
6, 30080, Note_on_c, 3, 52, 0
6, 30144, Note_on_c, 3, 40, 100
6, 30272, Note_on_c, 3, 40, 0
6, 30336, Note_on_c, 3, 52, 100
6, 30464, Note_on_c, 3, 52, 0
6, 30720, Note_on_c, 3, 52, 100
6, 30848, Note_on_c, 3, 52, 0
6, 30912, Note_on_c, 3, 52, 100
6, 31040, Note_on_c, 3, 52, 0
6, 31104, Note_on_c, 3, 52, 100
6, 31232, Note_on_c, 3, 52, 0
6, 31488, Note_on_c, 3, 52, 100
6, 31616, Note_on_c, 3, 52, 0
6, 31680, Note_on_c, 3, 52, 100
6, 31808, Note_on_c, 3, 52, 0
6, 31872, Note_on_c, 3, 52, 100
6, 32000, Note_on_c, 3, 52, 0
6, 32256, Note_on_c, 3, 57, 100
6, 32512, Note_on_c, 3, 57, 0
6, 32640, Note_on_c, 3, 52, 100
6, 32896, Note_on_c, 3, 52, 0
6, 33024, Note_on_c, 3, 45, 100
6, 33152, Note_on_c, 3, 45, 0
6, 33216, Note_on_c, 3, 45, 100
6, 33344, Note_on_c, 3, 45, 0
6, 33408, Note_on_c, 3, 45, 100
6, 33536, Note_on_c, 3, 45, 0
6, 33792, Note_on_c, 3, 52, 100
6, 33920, Note_on_c, 3, 52, 0
6, 33984, Note_on_c, 3, 52, 100
6, 34112, Note_on_c, 3, 52, 0
6, 34176, Note_on_c, 3, 52, 100
6, 34304, Note_on_c, 3, 52, 0
6, 34560, Note_on_c, 3, 52, 100
6, 34688, Note_on_c, 3, 52, 0
6, 34752, Note_on_c, 3, 52, 100
6, 34880, Note_on_c, 3, 52, 0
6, 34944, Note_on_c, 3, 52, 100
6, 35072, Note_on_c, 3, 52, 0
6, 35328, Note_on_c, 3, 57, 100
6, 35584, Note_on_c, 3, 57, 0
6, 35712, Note_on_c, 3, 52, 100
6, 35968, Note_on_c, 3, 52, 0
6, 36096, Note_on_c, 3, 45, 100
6, 36224, Note_on_c, 3, 45, 0
6, 36288, Note_on_c, 3, 57, 100
6, 36380, Note_on_c, 3, 57, 0
6, 36384, Note_on_c, 3, 59, 100
6, 36476, Note_on_c, 3, 59, 0
6, 36480, Note_on_c, 3, 60, 100
6, 36668, Note_on_c, 3, 60, 0
6, 36672, Note_on_c, 3, 59, 100
6, 36860, Note_on_c, 3, 59, 0
6, 36864, Note_on_c, 3, 57, 100
6, 37052, Note_on_c, 3, 57, 0
6, 37056, Note_on_c, 3, 55, 100
6, 37244, Note_on_c, 3, 55, 0
6, 37248, Note_on_c, 3, 53, 100
6, 37436, Note_on_c, 3, 53, 0
6, 37440, Note_on_c, 3, 52, 100
6, 37568, Note_on_c, 3, 52, 0
6, 37632, Note_on_c, 3, 52, 100
6, 38244, Note_on_c, 3, 52, 0
6, 38400, Note_on_c, 3, 50, 100
6, 38588, Note_on_c, 3, 50, 0
6, 38592, Note_on_c, 3, 52, 100
6, 38780, Note_on_c, 3, 52, 0
6, 38784, Note_on_c, 3, 53, 100
6, 38972, Note_on_c, 3, 53, 0
6, 38976, Note_on_c, 3, 52, 100
6, 39164, Note_on_c, 3, 52, 0
6, 39168, Note_on_c, 3, 50, 100
6, 39356, Note_on_c, 3, 50, 0
6, 39360, Note_on_c, 3, 48, 100
6, 39548, Note_on_c, 3, 48, 0
6, 39552, Note_on_c, 3, 47, 100
6, 39740, Note_on_c, 3, 47, 0
6, 39744, Note_on_c, 3, 45, 100
6, 39872, Note_on_c, 3, 45, 0
6, 39936, Note_on_c, 3, 45, 100
6, 40448, Note_on_c, 3, 45, 0
6, 40704, Note_on_c, 3, 45, 75
6, 40832, Note_on_c, 3, 45, 0
6, 40896, Note_on_c, 3, 57, 75
6, 40988, Note_on_c, 3, 57, 0
6, 40992, Note_on_c, 3, 59, 75
6, 41084, Note_on_c, 3, 59, 0
6, 41088, Note_on_c, 3, 60, 75
6, 41276, Note_on_c, 3, 60, 0
6, 41280, Note_on_c, 3, 59, 75
6, 41468, Note_on_c, 3, 59, 0
6, 41472, Note_on_c, 3, 57, 75
6, 41660, Note_on_c, 3, 57, 0
6, 41664, Note_on_c, 3, 55, 75
6, 41852, Note_on_c, 3, 55, 0
6, 41856, Note_on_c, 3, 53, 75
6, 42044, Note_on_c, 3, 53, 0
6, 42048, Note_on_c, 3, 52, 75
6, 42176, Note_on_c, 3, 52, 0
6, 42240, Note_on_c, 3, 52, 75
6, 42852, Note_on_c, 3, 52, 0
6, 43008, Note_on_c, 3, 50, 75
6, 43196, Note_on_c, 3, 50, 0
6, 43200, Note_on_c, 3, 52, 75
6, 43388, Note_on_c, 3, 52, 0
6, 43392, Note_on_c, 3, 53, 75
6, 43580, Note_on_c, 3, 53, 0
6, 43584, Note_on_c, 3, 52, 75
6, 43772, Note_on_c, 3, 52, 0
6, 43776, Note_on_c, 3, 50, 75
6, 43964, Note_on_c, 3, 50, 0
6, 43968, Note_on_c, 3, 48, 75
6, 44156, Note_on_c, 3, 48, 0
6, 44160, Note_on_c, 3, 47, 75
6, 44348, Note_on_c, 3, 47, 0
6, 44352, Note_on_c, 3, 45, 75
6, 44480, Note_on_c, 3, 45, 0
6, 44544, Note_on_c, 3, 45, 75
6, 45056, Note_on_c, 3, 45, 0
6, 45312, Note_on_c, 3, 53, 100
6, 45500, Note_on_c, 3, 53, 0
6, 45504, Note_on_c, 3, 52, 100
6, 45632, Note_on_c, 3, 52, 0
6, 45696, Note_on_c, 3, 52, 100
6, 46308, Note_on_c, 3, 52, 0
6, 46464, Note_on_c, 3, 46, 100
6, 46652, Note_on_c, 3, 46, 0
6, 46656, Note_on_c, 3, 45, 100
6, 46784, Note_on_c, 3, 45, 0
6, 46848, Note_on_c, 3, 45, 100
6, 47360, Note_on_c, 3, 45, 0
6, 47616, Note_on_c, 3, 50, 100
6, 47804, Note_on_c, 3, 50, 0
6, 47808, Note_on_c, 3, 52, 100
6, 47996, Note_on_c, 3, 52, 0
6, 48000, Note_on_c, 3, 53, 100
6, 48188, Note_on_c, 3, 53, 0
6, 48192, Note_on_c, 3, 52, 100
6, 48380, Note_on_c, 3, 52, 0
6, 48384, Note_on_c, 3, 50, 100
6, 48572, Note_on_c, 3, 50, 0
6, 48576, Note_on_c, 3, 48, 100
6, 48764, Note_on_c, 3, 48, 0
6, 48768, Note_on_c, 3, 47, 100
6, 48956, Note_on_c, 3, 47, 0
6, 48960, Note_on_c, 3, 45, 100
6, 49088, Note_on_c, 3, 45, 0
6, 49152, Note_on_c, 3, 45, 100
6, 49664, Note_on_c, 3, 45, 0
6, 49920, Note_on_c, 3, 53, 75
6, 50108, Note_on_c, 3, 53, 0
6, 50112, Note_on_c, 3, 52, 75
6, 50240, Note_on_c, 3, 52, 0
6, 50304, Note_on_c, 3, 52, 75
6, 50916, Note_on_c, 3, 52, 0
6, 51072, Note_on_c, 3, 46, 75
6, 51260, Note_on_c, 3, 46, 0
6, 51264, Note_on_c, 3, 45, 75
6, 51392, Note_on_c, 3, 45, 0
6, 51456, Note_on_c, 3, 45, 75
6, 51968, Note_on_c, 3, 45, 0
6, 52224, Note_on_c, 3, 50, 75
6, 52412, Note_on_c, 3, 50, 0
6, 52416, Note_on_c, 3, 52, 75
6, 52604, Note_on_c, 3, 52, 0
6, 52608, Note_on_c, 3, 53, 75
6, 52796, Note_on_c, 3, 53, 0
6, 52800, Note_on_c, 3, 52, 75
6, 52988, Note_on_c, 3, 52, 0
6, 52992, Note_on_c, 3, 50, 75
6, 53180, Note_on_c, 3, 50, 0
6, 53184, Note_on_c, 3, 48, 75
6, 53372, Note_on_c, 3, 48, 0
6, 53376, Note_on_c, 3, 47, 75
6, 53564, Note_on_c, 3, 47, 0
6, 53568, Note_on_c, 3, 45, 75
6, 53696, Note_on_c, 3, 45, 0
6, 53760, Note_on_c, 3, 45, 75
6, 54272, Note_on_c, 3, 45, 0
6, 54528, Note_on_c, 3, 57, 100
6, 54620, Note_on_c, 3, 57, 0
6, 54624, Note_on_c, 3, 60, 100
6, 54716, Note_on_c, 3, 60, 0
6, 54720, Note_on_c, 3, 59, 100
6, 54812, Note_on_c, 3, 59, 0
6, 54816, Note_on_c, 3, 60, 100
6, 54908, Note_on_c, 3, 60, 0
6, 54912, Note_on_c, 3, 62, 100
6, 55040, Note_on_c, 3, 62, 0
6, 55104, Note_on_c, 3, 60, 100
6, 55232, Note_on_c, 3, 60, 0
6, 55296, Note_on_c, 3, 59, 100
6, 55424, Note_on_c, 3, 59, 0
6, 55488, Note_on_c, 3, 56, 100
6, 55616, Note_on_c, 3, 56, 0
6, 55680, Note_on_c, 3, 57, 100
6, 55808, Note_on_c, 3, 57, 0
6, 55872, Note_on_c, 3, 45, 100
6, 56000, Note_on_c, 3, 45, 0
6, 56064, Note_on_c, 3, 50, 100
6, 56252, Note_on_c, 3, 50, 0
6, 56256, Note_on_c, 3, 52, 100
6, 56348, Note_on_c, 3, 52, 0
6, 56352, Note_on_c, 3, 53, 100
6, 56444, Note_on_c, 3, 53, 0
6, 56448, Note_on_c, 3, 52, 100
6, 56576, Note_on_c, 3, 52, 0
6, 56640, Note_on_c, 3, 40, 100
6, 56768, Note_on_c, 3, 40, 0
6, 56832, Note_on_c, 3, 45, 100
6, 57088, Note_on_c, 3, 45, 0
6, 57408, Note_on_c, 3, 57, 100
6, 57472, Note_on_c, 3, 57, 0
6, 57504, Note_on_c, 3, 59, 100
6, 57568, Note_on_c, 3, 59, 0
6, 57600, Note_on_c, 3, 60, 100
6, 57728, Note_on_c, 3, 60, 0
6, 57792, Note_on_c, 3, 59, 100
6, 57884, Note_on_c, 3, 59, 0
6, 57888, Note_on_c, 3, 60, 100
6, 57980, Note_on_c, 3, 60, 0
6, 57984, Note_on_c, 3, 62, 100
6, 58112, Note_on_c, 3, 62, 0
6, 58176, Note_on_c, 3, 60, 100
6, 58304, Note_on_c, 3, 60, 0
6, 58368, Note_on_c, 3, 59, 100
6, 58496, Note_on_c, 3, 59, 0
6, 58560, Note_on_c, 3, 56, 100
6, 58688, Note_on_c, 3, 56, 0
6, 58752, Note_on_c, 3, 57, 100
6, 58880, Note_on_c, 3, 57, 0
6, 58944, Note_on_c, 3, 45, 100
6, 59072, Note_on_c, 3, 45, 0
6, 59136, Note_on_c, 3, 50, 100
6, 59324, Note_on_c, 3, 50, 0
6, 59328, Note_on_c, 3, 52, 100
6, 59420, Note_on_c, 3, 52, 0
6, 59424, Note_on_c, 3, 53, 100
6, 59516, Note_on_c, 3, 53, 0
6, 59520, Note_on_c, 3, 52, 100
6, 59648, Note_on_c, 3, 52, 0
6, 59712, Note_on_c, 3, 40, 100
6, 59840, Note_on_c, 3, 40, 0
6, 59904, Note_on_c, 3, 45, 100
6, 60160, Note_on_c, 3, 45, 0
6, 60288, Note_on_c, 3, 45, 100
6, 60544, Note_on_c, 3, 45, 0
6, 60672, Note_on_c, 3, 45, 100
6, 60928, Note_on_c, 3, 45, 0
6, 61056, Note_on_c, 3, 45, 100
6, 61312, Note_on_c, 3, 45, 0
6, 61440, Note_on_c, 3, 45, 100
6, 61696, Note_on_c, 3, 45, 0
6, 61824, Note_on_c, 3, 45, 100
6, 62080, Note_on_c, 3, 45, 0
6, 62208, Note_on_c, 3, 45, 100
6, 62464, Note_on_c, 3, 45, 0
6, 62592, Note_on_c, 3, 45, 100
6, 62848, Note_on_c, 3, 45, 0
6, 62976, Note_on_c, 3, 45, 100
6, 63232, Note_on_c, 3, 45, 0
6, 63360, Note_on_c, 3, 45, 100
6, 63616, Note_on_c, 3, 45, 0
6, 63744, Note_on_c, 3, 45, 100
6, 64000, Note_on_c, 3, 45, 0
6, 64128, Note_on_c, 3, 45, 75
6, 64384, Note_on_c, 3, 45, 0
6, 64512, Note_on_c, 3, 45, 75
6, 64768, Note_on_c, 3, 45, 0
6, 64896, Note_on_c, 3, 45, 75
6, 65152, Note_on_c, 3, 45, 0
6, 65280, Note_on_c, 3, 45, 75
6, 65536, Note_on_c, 3, 45, 0
6, 65664, Note_on_c, 3, 45, 75
6, 65920, Note_on_c, 3, 45, 0
6, 66048, Note_on_c, 3, 45, 75
6, 66304, Note_on_c, 3, 45, 0
6, 66432, Note_on_c, 3, 45, 75
6, 66688, Note_on_c, 3, 45, 0
6, 66816, Note_on_c, 3, 45, 75
6, 67072, Note_on_c, 3, 45, 0
6, 67200, Note_on_c, 3, 45, 75
6, 67456, Note_on_c, 3, 45, 0
6, 67584, Note_on_c, 3, 45, 75
6, 67840, Note_on_c, 3, 45, 0
6, 67968, Note_on_c, 3, 45, 75
6, 68572, Note_on_c, 3, 45, 0
6, 68736, Note_on_c, 3, 62, 100
6, 68924, Note_on_c, 3, 62, 0
6, 68928, Note_on_c, 3, 61, 100
6, 69056, Note_on_c, 3, 61, 0
6, 69120, Note_on_c, 3, 61, 100
6, 69308, Note_on_c, 3, 61, 0
6, 69312, Note_on_c, 3, 59, 100
6, 69440, Note_on_c, 3, 59, 0
6, 69504, Note_on_c, 3, 59, 100
6, 69692, Note_on_c, 3, 59, 0
6, 69696, Note_on_c, 3, 57, 100
6, 69824, Note_on_c, 3, 57, 0
6, 69888, Note_on_c, 3, 59, 100
6, 70076, Note_on_c, 3, 59, 0
6, 70080, Note_on_c, 3, 57, 100
6, 70208, Note_on_c, 3, 57, 0
6, 70272, Note_on_c, 3, 59, 100
6, 70528, Note_on_c, 3, 59, 0
6, 70656, Note_on_c, 3, 52, 100
6, 70912, Note_on_c, 3, 52, 0
6, 71040, Note_on_c, 3, 61, 100
6, 71228, Note_on_c, 3, 61, 0
6, 71232, Note_on_c, 3, 59, 100
6, 71360, Note_on_c, 3, 59, 0
6, 71424, Note_on_c, 3, 59, 100
6, 71612, Note_on_c, 3, 59, 0
6, 71616, Note_on_c, 3, 57, 100
6, 71744, Note_on_c, 3, 57, 0
6, 71808, Note_on_c, 3, 57, 100
6, 71996, Note_on_c, 3, 57, 0
6, 72000, Note_on_c, 3, 56, 100
6, 72128, Note_on_c, 3, 56, 0
6, 72192, Note_on_c, 3, 57, 100
6, 72380, Note_on_c, 3, 57, 0
6, 72384, Note_on_c, 3, 56, 100
6, 72512, Note_on_c, 3, 56, 0
6, 72576, Note_on_c, 3, 57, 100
6, 72832, Note_on_c, 3, 57, 0
6, 72960, Note_on_c, 3, 45, 100
6, 73216, Note_on_c, 3, 45, 0
6, 74496, Note_on_c, 3, 57, 100
6, 74624, Note_on_c, 3, 57, 0
6, 74688, Note_on_c, 3, 61, 100
6, 74816, Note_on_c, 3, 61, 0
6, 74880, Note_on_c, 3, 59, 100
6, 75260, Note_on_c, 3, 59, 0
6, 75264, Note_on_c, 3, 57, 100
6, 75520, Note_on_c, 3, 57, 0
6, 75648, Note_on_c, 3, 57, 100
6, 75836, Note_on_c, 3, 57, 0
6, 75840, Note_on_c, 3, 56, 100
6, 76028, Note_on_c, 3, 56, 0
6, 76032, Note_on_c, 3, 54, 100
6, 76220, Note_on_c, 3, 54, 0
6, 76224, Note_on_c, 3, 52, 100
6, 76412, Note_on_c, 3, 52, 0
6, 76416, Note_on_c, 3, 50, 100
6, 76604, Note_on_c, 3, 50, 0
6, 76608, Note_on_c, 3, 49, 100
6, 76796, Note_on_c, 3, 49, 0
6, 76800, Note_on_c, 3, 47, 100
6, 76988, Note_on_c, 3, 47, 0
6, 76992, Note_on_c, 3, 52, 100
6, 77180, Note_on_c, 3, 52, 0
6, 77184, Note_on_c, 3, 45, 100
6, 77696, Note_on_c, 3, 45, 0
6, 77952, Note_on_c, 3, 62, 100
6, 78140, Note_on_c, 3, 62, 0
6, 78144, Note_on_c, 3, 61, 100
6, 78272, Note_on_c, 3, 61, 0
6, 78336, Note_on_c, 3, 61, 100
6, 78524, Note_on_c, 3, 61, 0
6, 78528, Note_on_c, 3, 59, 100
6, 78656, Note_on_c, 3, 59, 0
6, 78720, Note_on_c, 3, 59, 100
6, 78908, Note_on_c, 3, 59, 0
6, 78912, Note_on_c, 3, 57, 100
6, 79040, Note_on_c, 3, 57, 0
6, 79104, Note_on_c, 3, 59, 100
6, 79292, Note_on_c, 3, 59, 0
6, 79296, Note_on_c, 3, 57, 100
6, 79424, Note_on_c, 3, 57, 0
6, 79488, Note_on_c, 3, 59, 100
6, 79744, Note_on_c, 3, 59, 0
6, 79872, Note_on_c, 3, 52, 100
6, 80128, Note_on_c, 3, 52, 0
6, 80256, Note_on_c, 3, 61, 100
6, 80444, Note_on_c, 3, 61, 0
6, 80448, Note_on_c, 3, 59, 100
6, 80576, Note_on_c, 3, 59, 0
6, 80640, Note_on_c, 3, 59, 100
6, 80828, Note_on_c, 3, 59, 0
6, 80832, Note_on_c, 3, 57, 100
6, 80960, Note_on_c, 3, 57, 0
6, 81024, Note_on_c, 3, 57, 100
6, 81212, Note_on_c, 3, 57, 0
6, 81216, Note_on_c, 3, 56, 100
6, 81344, Note_on_c, 3, 56, 0
6, 81408, Note_on_c, 3, 57, 100
6, 81596, Note_on_c, 3, 57, 0
6, 81600, Note_on_c, 3, 56, 100
6, 81728, Note_on_c, 3, 56, 0
6, 81792, Note_on_c, 3, 57, 100
6, 82048, Note_on_c, 3, 57, 0
6, 82176, Note_on_c, 3, 45, 100
6, 82432, Note_on_c, 3, 45, 0
6, 83712, Note_on_c, 3, 57, 100
6, 83840, Note_on_c, 3, 57, 0
6, 83904, Note_on_c, 3, 61, 100
6, 84032, Note_on_c, 3, 61, 0
6, 84096, Note_on_c, 3, 59, 100
6, 84476, Note_on_c, 3, 59, 0
6, 84480, Note_on_c, 3, 57, 100
6, 84736, Note_on_c, 3, 57, 0
6, 86592, Note_on_c, 3, 45, 100
6, 86780, Note_on_c, 3, 45, 0
6, 86784, Note_on_c, 3, 49, 100
6, 86972, Note_on_c, 3, 49, 0
6, 86976, Note_on_c, 3, 52, 100
6, 87164, Note_on_c, 3, 52, 0
6, 87168, Note_on_c, 3, 57, 100
6, 87296, Note_on_c, 3, 57, 0
6, 87360, Note_on_c, 3, 56, 100
6, 87488, Note_on_c, 3, 56, 0
6, 87552, Note_on_c, 3, 54, 100
6, 87680, Note_on_c, 3, 54, 0
6, 87744, Note_on_c, 3, 52, 100
6, 87872, Note_on_c, 3, 52, 0
6, 87936, Note_on_c, 3, 50, 100
6, 88064, Note_on_c, 3, 50, 0
6, 88128, Note_on_c, 3, 49, 100
6, 88256, Note_on_c, 3, 49, 0
6, 88320, Note_on_c, 3, 47, 100
6, 88448, Note_on_c, 3, 47, 0
6, 88512, Note_on_c, 3, 52, 100
6, 88640, Note_on_c, 3, 52, 0
6, 88704, Note_on_c, 3, 45, 100
6, 90244, Note_on_c, 3, 45, 0
6, 90244, End_track
7, 0, Start_track
7, 0, MIDI_port, 0
7, 0, Title_t, "Cantata 212: ""Mer hahn en neue Oberkeet"""
7, 0, Control_c, 4, 0, 0
7, 0, Control_c, 4, 32, 0
7, 0, Program_c, 4, 42
7, 0, Control_c, 4, 7, 97
7, 0, Control_c, 4, 10, 93
7, 1152, Note_on_c, 4, 45, 100
7, 1408, Note_on_c, 4, 45, 0
7, 1536, Note_on_c, 4, 45, 100
7, 1792, Note_on_c, 4, 45, 0
7, 1920, Note_on_c, 4, 45, 100
7, 2176, Note_on_c, 4, 45, 0
7, 2304, Note_on_c, 4, 45, 100
7, 2560, Note_on_c, 4, 45, 0
7, 2688, Note_on_c, 4, 45, 100
7, 2944, Note_on_c, 4, 45, 0
7, 3072, Note_on_c, 4, 45, 100
7, 3328, Note_on_c, 4, 45, 0
7, 3456, Note_on_c, 4, 45, 100
7, 3712, Note_on_c, 4, 45, 0
7, 3840, Note_on_c, 4, 45, 100
7, 4096, Note_on_c, 4, 45, 0
7, 4224, Note_on_c, 4, 45, 100
7, 4480, Note_on_c, 4, 45, 0
7, 4608, Note_on_c, 4, 45, 100
7, 4864, Note_on_c, 4, 45, 0
7, 4992, Note_on_c, 4, 45, 100
7, 5248, Note_on_c, 4, 45, 0
7, 5376, Note_on_c, 4, 45, 75
7, 5632, Note_on_c, 4, 45, 0
7, 5760, Note_on_c, 4, 45, 75
7, 6016, Note_on_c, 4, 45, 0
7, 6144, Note_on_c, 4, 45, 75
7, 6400, Note_on_c, 4, 45, 0
7, 6528, Note_on_c, 4, 45, 75
7, 6784, Note_on_c, 4, 45, 0
7, 6912, Note_on_c, 4, 45, 75
7, 7168, Note_on_c, 4, 45, 0
7, 7296, Note_on_c, 4, 45, 75
7, 7552, Note_on_c, 4, 45, 0
7, 7680, Note_on_c, 4, 45, 75
7, 7936, Note_on_c, 4, 45, 0
7, 8064, Note_on_c, 4, 45, 75
7, 8320, Note_on_c, 4, 45, 0
7, 8448, Note_on_c, 4, 45, 75
7, 8704, Note_on_c, 4, 45, 0
7, 8832, Note_on_c, 4, 45, 75
7, 9088, Note_on_c, 4, 45, 0
7, 9216, Note_on_c, 4, 45, 100
7, 9344, Note_on_c, 4, 45, 0
7, 9408, Note_on_c, 4, 57, 100
7, 9472, Note_on_c, 4, 57, 0
7, 9504, Note_on_c, 4, 59, 100
7, 9568, Note_on_c, 4, 59, 0
7, 9600, Note_on_c, 4, 61, 100
7, 9728, Note_on_c, 4, 61, 0
7, 9792, Note_on_c, 4, 62, 100
7, 9920, Note_on_c, 4, 62, 0
7, 9984, Note_on_c, 4, 61, 100
7, 10172, Note_on_c, 4, 61, 0
7, 10176, Note_on_c, 4, 59, 100
7, 10304, Note_on_c, 4, 59, 0
7, 10368, Note_on_c, 4, 57, 100
7, 10624, Note_on_c, 4, 57, 0
7, 10752, Note_on_c, 4, 57, 100
7, 11008, Note_on_c, 4, 57, 0
7, 11136, Note_on_c, 4, 59, 100
7, 11264, Note_on_c, 4, 59, 0
7, 11328, Note_on_c, 4, 57, 100
7, 11456, Note_on_c, 4, 57, 0
7, 11520, Note_on_c, 4, 52, 100
7, 11648, Note_on_c, 4, 52, 0
7, 11712, Note_on_c, 4, 56, 100
7, 11840, Note_on_c, 4, 56, 0
7, 11904, Note_on_c, 4, 57, 100
7, 12160, Note_on_c, 4, 57, 0
7, 12288, Note_on_c, 4, 45, 100
7, 12416, Note_on_c, 4, 45, 0
7, 12480, Note_on_c, 4, 57, 100
7, 12544, Note_on_c, 4, 57, 0
7, 12576, Note_on_c, 4, 59, 100
7, 12640, Note_on_c, 4, 59, 0
7, 12672, Note_on_c, 4, 61, 100
7, 12800, Note_on_c, 4, 61, 0
7, 12864, Note_on_c, 4, 62, 100
7, 12992, Note_on_c, 4, 62, 0
7, 13056, Note_on_c, 4, 61, 100
7, 13244, Note_on_c, 4, 61, 0
7, 13248, Note_on_c, 4, 59, 100
7, 13376, Note_on_c, 4, 59, 0
7, 13440, Note_on_c, 4, 57, 100
7, 13696, Note_on_c, 4, 57, 0
7, 13824, Note_on_c, 4, 45, 100
7, 13952, Note_on_c, 4, 45, 0
7, 14016, Note_on_c, 4, 57, 100
7, 14144, Note_on_c, 4, 57, 0
7, 14208, Note_on_c, 4, 59, 100
7, 14336, Note_on_c, 4, 59, 0
7, 14400, Note_on_c, 4, 57, 100
7, 14528, Note_on_c, 4, 57, 0
7, 14592, Note_on_c, 4, 56, 100
7, 14780, Note_on_c, 4, 56, 0
7, 14784, Note_on_c, 4, 52, 100
7, 14912, Note_on_c, 4, 52, 0
7, 14976, Note_on_c, 4, 57, 100
7, 15232, Note_on_c, 4, 57, 0
7, 15360, Note_on_c, 4, 45, 100
7, 15488, Note_on_c, 4, 45, 0
7, 15552, Note_on_c, 4, 57, 100
7, 15740, Note_on_c, 4, 57, 0
7, 15744, Note_on_c, 4, 59, 100
7, 15932, Note_on_c, 4, 59, 0
7, 15936, Note_on_c, 4, 61, 100
7, 16124, Note_on_c, 4, 61, 0
7, 16128, Note_on_c, 4, 57, 100
7, 16316, Note_on_c, 4, 57, 0
7, 16320, Note_on_c, 4, 59, 100
7, 16508, Note_on_c, 4, 59, 0
7, 16512, Note_on_c, 4, 61, 100
7, 16892, Note_on_c, 4, 61, 0
7, 16896, Note_on_c, 4, 62, 100
7, 17084, Note_on_c, 4, 62, 0
7, 17088, Note_on_c, 4, 61, 100
7, 17216, Note_on_c, 4, 61, 0
7, 17280, Note_on_c, 4, 57, 100
7, 17408, Note_on_c, 4, 57, 0
7, 17472, Note_on_c, 4, 45, 100
7, 17600, Note_on_c, 4, 45, 0
7, 17664, Note_on_c, 4, 45, 70
7, 17792, Note_on_c, 4, 45, 0
7, 17856, Note_on_c, 4, 57, 70
7, 18044, Note_on_c, 4, 57, 0
7, 18048, Note_on_c, 4, 59, 70
7, 18236, Note_on_c, 4, 59, 0
7, 18240, Note_on_c, 4, 61, 70
7, 18428, Note_on_c, 4, 61, 0
7, 18432, Note_on_c, 4, 57, 70
7, 18620, Note_on_c, 4, 57, 0
7, 18624, Note_on_c, 4, 59, 70
7, 18812, Note_on_c, 4, 59, 0
7, 18816, Note_on_c, 4, 61, 70
7, 19196, Note_on_c, 4, 61, 0
7, 19200, Note_on_c, 4, 62, 70
7, 19388, Note_on_c, 4, 62, 0
7, 19392, Note_on_c, 4, 61, 70
7, 19520, Note_on_c, 4, 61, 0
7, 19584, Note_on_c, 4, 57, 70
7, 19712, Note_on_c, 4, 57, 0
7, 19776, Note_on_c, 4, 57, 100
7, 19904, Note_on_c, 4, 57, 0
7, 19968, Note_on_c, 4, 59, 100
7, 20156, Note_on_c, 4, 59, 0
7, 20160, Note_on_c, 4, 56, 100
7, 20288, Note_on_c, 4, 56, 0
7, 20352, Note_on_c, 4, 56, 100
7, 20480, Note_on_c, 4, 56, 0
7, 20544, Note_on_c, 4, 57, 100
7, 20732, Note_on_c, 4, 57, 0
7, 20736, Note_on_c, 4, 45, 100
7, 20924, Note_on_c, 4, 45, 0
7, 20928, Note_on_c, 4, 49, 100
7, 21116, Note_on_c, 4, 49, 0
7, 21120, Note_on_c, 4, 50, 100
7, 21308, Note_on_c, 4, 50, 0
7, 21312, Note_on_c, 4, 49, 100
7, 21404, Note_on_c, 4, 49, 0
7, 21408, Note_on_c, 4, 50, 100
7, 21500, Note_on_c, 4, 50, 0
7, 21504, Note_on_c, 4, 52, 100
7, 21692, Note_on_c, 4, 52, 0
7, 21696, Note_on_c, 4, 45, 100
7, 21952, Note_on_c, 4, 45, 0
7, 22080, Note_on_c, 4, 57, 70
7, 22208, Note_on_c, 4, 57, 0
7, 22272, Note_on_c, 4, 59, 70
7, 22460, Note_on_c, 4, 59, 0
7, 22464, Note_on_c, 4, 56, 70
7, 22592, Note_on_c, 4, 56, 0
7, 22656, Note_on_c, 4, 56, 70
7, 22784, Note_on_c, 4, 56, 0
7, 22848, Note_on_c, 4, 57, 70
7, 23036, Note_on_c, 4, 57, 0
7, 23040, Note_on_c, 4, 45, 70
7, 23228, Note_on_c, 4, 45, 0
7, 23232, Note_on_c, 4, 49, 70
7, 23420, Note_on_c, 4, 49, 0
7, 23424, Note_on_c, 4, 50, 70
7, 23612, Note_on_c, 4, 50, 0
7, 23616, Note_on_c, 4, 49, 70
7, 23708, Note_on_c, 4, 49, 0
7, 23712, Note_on_c, 4, 50, 70
7, 23804, Note_on_c, 4, 50, 0
7, 23808, Note_on_c, 4, 52, 70
7, 23996, Note_on_c, 4, 52, 0
7, 24000, Note_on_c, 4, 45, 70
7, 24256, Note_on_c, 4, 45, 0
7, 24384, Note_on_c, 4, 52, 100
7, 24512, Note_on_c, 4, 52, 0
7, 24576, Note_on_c, 4, 52, 100
7, 24704, Note_on_c, 4, 52, 0
7, 24768, Note_on_c, 4, 52, 100
7, 24896, Note_on_c, 4, 52, 0
7, 24960, Note_on_c, 4, 47, 100
7, 25088, Note_on_c, 4, 47, 0
7, 25152, Note_on_c, 4, 47, 100
7, 25280, Note_on_c, 4, 47, 0
7, 25344, Note_on_c, 4, 52, 100
7, 25600, Note_on_c, 4, 52, 0
7, 25920, Note_on_c, 4, 52, 100
7, 26048, Note_on_c, 4, 52, 0
7, 26112, Note_on_c, 4, 52, 100
7, 26240, Note_on_c, 4, 52, 0
7, 26304, Note_on_c, 4, 52, 100
7, 26432, Note_on_c, 4, 52, 0
7, 26496, Note_on_c, 4, 47, 100
7, 26624, Note_on_c, 4, 47, 0
7, 26688, Note_on_c, 4, 47, 100
7, 26816, Note_on_c, 4, 47, 0
7, 26880, Note_on_c, 4, 52, 100
7, 27008, Note_on_c, 4, 52, 0
7, 27072, Note_on_c, 4, 52, 100
7, 27200, Note_on_c, 4, 52, 0
7, 27264, Note_on_c, 4, 52, 100
7, 27392, Note_on_c, 4, 52, 0
7, 27456, Note_on_c, 4, 52, 100
7, 27584, Note_on_c, 4, 52, 0
7, 27648, Note_on_c, 4, 52, 100
7, 27776, Note_on_c, 4, 52, 0
7, 27840, Note_on_c, 4, 52, 100
7, 27968, Note_on_c, 4, 52, 0
7, 28032, Note_on_c, 4, 47, 100
7, 28160, Note_on_c, 4, 47, 0
7, 28224, Note_on_c, 4, 47, 100
7, 28352, Note_on_c, 4, 47, 0
7, 28416, Note_on_c, 4, 52, 100
7, 28672, Note_on_c, 4, 52, 0
7, 28992, Note_on_c, 4, 52, 100
7, 29120, Note_on_c, 4, 52, 0
7, 29184, Note_on_c, 4, 52, 100
7, 29312, Note_on_c, 4, 52, 0
7, 29376, Note_on_c, 4, 52, 100
7, 29504, Note_on_c, 4, 52, 0
7, 29568, Note_on_c, 4, 47, 100
7, 29696, Note_on_c, 4, 47, 0
7, 29760, Note_on_c, 4, 47, 100
7, 29888, Note_on_c, 4, 47, 0
7, 29952, Note_on_c, 4, 52, 100
7, 30080, Note_on_c, 4, 52, 0
7, 30144, Note_on_c, 4, 40, 100
7, 30272, Note_on_c, 4, 40, 0
7, 30336, Note_on_c, 4, 52, 100
7, 30464, Note_on_c, 4, 52, 0
7, 30720, Note_on_c, 4, 52, 100
7, 30848, Note_on_c, 4, 52, 0
7, 30912, Note_on_c, 4, 52, 100
7, 31040, Note_on_c, 4, 52, 0
7, 31104, Note_on_c, 4, 52, 100
7, 31232, Note_on_c, 4, 52, 0
7, 31488, Note_on_c, 4, 52, 100
7, 31616, Note_on_c, 4, 52, 0
7, 31680, Note_on_c, 4, 52, 100
7, 31808, Note_on_c, 4, 52, 0
7, 31872, Note_on_c, 4, 52, 100
7, 32000, Note_on_c, 4, 52, 0
7, 32256, Note_on_c, 4, 57, 100
7, 32512, Note_on_c, 4, 57, 0
7, 32640, Note_on_c, 4, 52, 100
7, 32896, Note_on_c, 4, 52, 0
7, 33024, Note_on_c, 4, 45, 100
7, 33152, Note_on_c, 4, 45, 0
7, 33216, Note_on_c, 4, 45, 100
7, 33344, Note_on_c, 4, 45, 0
7, 33408, Note_on_c, 4, 45, 100
7, 33536, Note_on_c, 4, 45, 0
7, 33792, Note_on_c, 4, 52, 100
7, 33920, Note_on_c, 4, 52, 0
7, 33984, Note_on_c, 4, 52, 100
7, 34112, Note_on_c, 4, 52, 0
7, 34176, Note_on_c, 4, 52, 100
7, 34304, Note_on_c, 4, 52, 0
7, 34560, Note_on_c, 4, 52, 100
7, 34688, Note_on_c, 4, 52, 0
7, 34752, Note_on_c, 4, 52, 100
7, 34880, Note_on_c, 4, 52, 0
7, 34944, Note_on_c, 4, 52, 100
7, 35072, Note_on_c, 4, 52, 0
7, 35328, Note_on_c, 4, 57, 100
7, 35584, Note_on_c, 4, 57, 0
7, 35712, Note_on_c, 4, 52, 100
7, 35968, Note_on_c, 4, 52, 0
7, 36096, Note_on_c, 4, 45, 100
7, 36224, Note_on_c, 4, 45, 0
7, 36288, Note_on_c, 4, 57, 100
7, 36380, Note_on_c, 4, 57, 0
7, 36384, Note_on_c, 4, 59, 100
7, 36476, Note_on_c, 4, 59, 0
7, 36480, Note_on_c, 4, 60, 100
7, 36668, Note_on_c, 4, 60, 0
7, 36672, Note_on_c, 4, 59, 100
7, 36860, Note_on_c, 4, 59, 0
7, 36864, Note_on_c, 4, 57, 100
7, 37052, Note_on_c, 4, 57, 0
7, 37056, Note_on_c, 4, 55, 100
7, 37244, Note_on_c, 4, 55, 0
7, 37248, Note_on_c, 4, 53, 100
7, 37436, Note_on_c, 4, 53, 0
7, 37440, Note_on_c, 4, 52, 100
7, 37568, Note_on_c, 4, 52, 0
7, 37632, Note_on_c, 4, 52, 100
7, 38244, Note_on_c, 4, 52, 0
7, 38400, Note_on_c, 4, 50, 100
7, 38588, Note_on_c, 4, 50, 0
7, 38592, Note_on_c, 4, 52, 100
7, 38780, Note_on_c, 4, 52, 0
7, 38784, Note_on_c, 4, 53, 100
7, 38972, Note_on_c, 4, 53, 0
7, 38976, Note_on_c, 4, 52, 100
7, 39164, Note_on_c, 4, 52, 0
7, 39168, Note_on_c, 4, 50, 100
7, 39356, Note_on_c, 4, 50, 0
7, 39360, Note_on_c, 4, 48, 100
7, 39548, Note_on_c, 4, 48, 0
7, 39552, Note_on_c, 4, 47, 100
7, 39740, Note_on_c, 4, 47, 0
7, 39744, Note_on_c, 4, 45, 100
7, 39872, Note_on_c, 4, 45, 0
7, 39936, Note_on_c, 4, 45, 100
7, 40448, Note_on_c, 4, 45, 0
7, 40704, Note_on_c, 4, 45, 75
7, 40832, Note_on_c, 4, 45, 0
7, 40896, Note_on_c, 4, 57, 75
7, 40988, Note_on_c, 4, 57, 0
7, 40992, Note_on_c, 4, 59, 75
7, 41084, Note_on_c, 4, 59, 0
7, 41088, Note_on_c, 4, 60, 75
7, 41276, Note_on_c, 4, 60, 0
7, 41280, Note_on_c, 4, 59, 75
7, 41468, Note_on_c, 4, 59, 0
7, 41472, Note_on_c, 4, 57, 75
7, 41660, Note_on_c, 4, 57, 0
7, 41664, Note_on_c, 4, 55, 75
7, 41852, Note_on_c, 4, 55, 0
7, 41856, Note_on_c, 4, 53, 75
7, 42044, Note_on_c, 4, 53, 0
7, 42048, Note_on_c, 4, 52, 75
7, 42176, Note_on_c, 4, 52, 0
7, 42240, Note_on_c, 4, 52, 75
7, 42852, Note_on_c, 4, 52, 0
7, 43008, Note_on_c, 4, 50, 75
7, 43196, Note_on_c, 4, 50, 0
7, 43200, Note_on_c, 4, 52, 75
7, 43388, Note_on_c, 4, 52, 0
7, 43392, Note_on_c, 4, 53, 75
7, 43580, Note_on_c, 4, 53, 0
7, 43584, Note_on_c, 4, 52, 75
7, 43772, Note_on_c, 4, 52, 0
7, 43776, Note_on_c, 4, 50, 75
7, 43964, Note_on_c, 4, 50, 0
7, 43968, Note_on_c, 4, 48, 75
7, 44156, Note_on_c, 4, 48, 0
7, 44160, Note_on_c, 4, 47, 75
7, 44348, Note_on_c, 4, 47, 0
7, 44352, Note_on_c, 4, 45, 75
7, 44480, Note_on_c, 4, 45, 0
7, 44544, Note_on_c, 4, 45, 75
7, 45056, Note_on_c, 4, 45, 0
7, 45312, Note_on_c, 4, 53, 100
7, 45500, Note_on_c, 4, 53, 0
7, 45504, Note_on_c, 4, 52, 100
7, 45632, Note_on_c, 4, 52, 0
7, 45696, Note_on_c, 4, 52, 100
7, 46308, Note_on_c, 4, 52, 0
7, 46464, Note_on_c, 4, 46, 100
7, 46652, Note_on_c, 4, 46, 0
7, 46656, Note_on_c, 4, 45, 100
7, 46784, Note_on_c, 4, 45, 0
7, 46848, Note_on_c, 4, 45, 100
7, 47360, Note_on_c, 4, 45, 0
7, 47616, Note_on_c, 4, 50, 100
7, 47804, Note_on_c, 4, 50, 0
7, 47808, Note_on_c, 4, 52, 100
7, 47996, Note_on_c, 4, 52, 0
7, 48000, Note_on_c, 4, 53, 100
7, 48188, Note_on_c, 4, 53, 0
7, 48192, Note_on_c, 4, 52, 100
7, 48380, Note_on_c, 4, 52, 0
7, 48384, Note_on_c, 4, 50, 100
7, 48572, Note_on_c, 4, 50, 0
7, 48576, Note_on_c, 4, 48, 100
7, 48764, Note_on_c, 4, 48, 0
7, 48768, Note_on_c, 4, 47, 100
7, 48956, Note_on_c, 4, 47, 0
7, 48960, Note_on_c, 4, 45, 100
7, 49088, Note_on_c, 4, 45, 0
7, 49152, Note_on_c, 4, 45, 100
7, 49664, Note_on_c, 4, 45, 0
7, 49920, Note_on_c, 4, 53, 75
7, 50108, Note_on_c, 4, 53, 0
7, 50112, Note_on_c, 4, 52, 75
7, 50240, Note_on_c, 4, 52, 0
7, 50304, Note_on_c, 4, 52, 75
7, 50916, Note_on_c, 4, 52, 0
7, 51072, Note_on_c, 4, 46, 75
7, 51260, Note_on_c, 4, 46, 0
7, 51264, Note_on_c, 4, 45, 75
7, 51392, Note_on_c, 4, 45, 0
7, 51456, Note_on_c, 4, 45, 75
7, 51968, Note_on_c, 4, 45, 0
7, 52224, Note_on_c, 4, 50, 75
7, 52412, Note_on_c, 4, 50, 0
7, 52416, Note_on_c, 4, 52, 75
7, 52604, Note_on_c, 4, 52, 0
7, 52608, Note_on_c, 4, 53, 75
7, 52796, Note_on_c, 4, 53, 0
7, 52800, Note_on_c, 4, 52, 75
7, 52988, Note_on_c, 4, 52, 0
7, 52992, Note_on_c, 4, 50, 75
7, 53180, Note_on_c, 4, 50, 0
7, 53184, Note_on_c, 4, 48, 75
7, 53372, Note_on_c, 4, 48, 0
7, 53376, Note_on_c, 4, 47, 75
7, 53564, Note_on_c, 4, 47, 0
7, 53568, Note_on_c, 4, 45, 75
7, 53696, Note_on_c, 4, 45, 0
7, 53760, Note_on_c, 4, 45, 75
7, 54272, Note_on_c, 4, 45, 0
7, 54528, Note_on_c, 4, 57, 100
7, 54620, Note_on_c, 4, 57, 0
7, 54624, Note_on_c, 4, 60, 100
7, 54716, Note_on_c, 4, 60, 0
7, 54720, Note_on_c, 4, 59, 100
7, 54812, Note_on_c, 4, 59, 0
7, 54816, Note_on_c, 4, 60, 100
7, 54908, Note_on_c, 4, 60, 0
7, 54912, Note_on_c, 4, 62, 100
7, 55040, Note_on_c, 4, 62, 0
7, 55104, Note_on_c, 4, 60, 100
7, 55232, Note_on_c, 4, 60, 0
7, 55296, Note_on_c, 4, 59, 100
7, 55424, Note_on_c, 4, 59, 0
7, 55488, Note_on_c, 4, 56, 100
7, 55616, Note_on_c, 4, 56, 0
7, 55680, Note_on_c, 4, 57, 100
7, 55808, Note_on_c, 4, 57, 0
7, 55872, Note_on_c, 4, 45, 100
7, 56000, Note_on_c, 4, 45, 0
7, 56064, Note_on_c, 4, 50, 100
7, 56252, Note_on_c, 4, 50, 0
7, 56256, Note_on_c, 4, 52, 100
7, 56348, Note_on_c, 4, 52, 0
7, 56352, Note_on_c, 4, 53, 100
7, 56444, Note_on_c, 4, 53, 0
7, 56448, Note_on_c, 4, 52, 100
7, 56576, Note_on_c, 4, 52, 0
7, 56640, Note_on_c, 4, 40, 100
7, 56768, Note_on_c, 4, 40, 0
7, 56832, Note_on_c, 4, 45, 100
7, 57088, Note_on_c, 4, 45, 0
7, 57408, Note_on_c, 4, 57, 100
7, 57472, Note_on_c, 4, 57, 0
7, 57504, Note_on_c, 4, 59, 100
7, 57568, Note_on_c, 4, 59, 0
7, 57600, Note_on_c, 4, 60, 100
7, 57728, Note_on_c, 4, 60, 0
7, 57792, Note_on_c, 4, 59, 100
7, 57884, Note_on_c, 4, 59, 0
7, 57888, Note_on_c, 4, 60, 100
7, 57980, Note_on_c, 4, 60, 0
7, 57984, Note_on_c, 4, 62, 100
7, 58112, Note_on_c, 4, 62, 0
7, 58176, Note_on_c, 4, 60, 100
7, 58304, Note_on_c, 4, 60, 0
7, 58368, Note_on_c, 4, 59, 100
7, 58496, Note_on_c, 4, 59, 0
7, 58560, Note_on_c, 4, 56, 100
7, 58688, Note_on_c, 4, 56, 0
7, 58752, Note_on_c, 4, 57, 100
7, 58880, Note_on_c, 4, 57, 0
7, 58944, Note_on_c, 4, 45, 100
7, 59072, Note_on_c, 4, 45, 0
7, 59136, Note_on_c, 4, 50, 100
7, 59324, Note_on_c, 4, 50, 0
7, 59328, Note_on_c, 4, 52, 100
7, 59420, Note_on_c, 4, 52, 0
7, 59424, Note_on_c, 4, 53, 100
7, 59516, Note_on_c, 4, 53, 0
7, 59520, Note_on_c, 4, 52, 100
7, 59648, Note_on_c, 4, 52, 0
7, 59712, Note_on_c, 4, 40, 100
7, 59840, Note_on_c, 4, 40, 0
7, 59904, Note_on_c, 4, 45, 100
7, 60160, Note_on_c, 4, 45, 0
7, 60288, Note_on_c, 4, 45, 100
7, 60544, Note_on_c, 4, 45, 0
7, 60672, Note_on_c, 4, 45, 100
7, 60928, Note_on_c, 4, 45, 0
7, 61056, Note_on_c, 4, 45, 100
7, 61312, Note_on_c, 4, 45, 0
7, 61440, Note_on_c, 4, 45, 100
7, 61696, Note_on_c, 4, 45, 0
7, 61824, Note_on_c, 4, 45, 100
7, 62080, Note_on_c, 4, 45, 0
7, 62208, Note_on_c, 4, 45, 100
7, 62464, Note_on_c, 4, 45, 0
7, 62592, Note_on_c, 4, 45, 100
7, 62848, Note_on_c, 4, 45, 0
7, 62976, Note_on_c, 4, 45, 100
7, 63232, Note_on_c, 4, 45, 0
7, 63360, Note_on_c, 4, 45, 100
7, 63616, Note_on_c, 4, 45, 0
7, 63744, Note_on_c, 4, 45, 100
7, 64000, Note_on_c, 4, 45, 0
7, 64128, Note_on_c, 4, 45, 75
7, 64384, Note_on_c, 4, 45, 0
7, 64512, Note_on_c, 4, 45, 75
7, 64768, Note_on_c, 4, 45, 0
7, 64896, Note_on_c, 4, 45, 75
7, 65152, Note_on_c, 4, 45, 0
7, 65280, Note_on_c, 4, 45, 75
7, 65536, Note_on_c, 4, 45, 0
7, 65664, Note_on_c, 4, 45, 75
7, 65920, Note_on_c, 4, 45, 0
7, 66048, Note_on_c, 4, 45, 75
7, 66304, Note_on_c, 4, 45, 0
7, 66432, Note_on_c, 4, 45, 75
7, 66688, Note_on_c, 4, 45, 0
7, 66816, Note_on_c, 4, 45, 75
7, 67072, Note_on_c, 4, 45, 0
7, 67200, Note_on_c, 4, 45, 75
7, 67456, Note_on_c, 4, 45, 0
7, 67584, Note_on_c, 4, 45, 75
7, 67840, Note_on_c, 4, 45, 0
7, 67968, Note_on_c, 4, 45, 75
7, 68572, Note_on_c, 4, 45, 0
7, 68736, Note_on_c, 4, 62, 100
7, 68924, Note_on_c, 4, 62, 0
7, 68928, Note_on_c, 4, 61, 100
7, 69056, Note_on_c, 4, 61, 0
7, 69120, Note_on_c, 4, 61, 100
7, 69308, Note_on_c, 4, 61, 0
7, 69312, Note_on_c, 4, 59, 100
7, 69440, Note_on_c, 4, 59, 0
7, 69504, Note_on_c, 4, 59, 100
7, 69692, Note_on_c, 4, 59, 0
7, 69696, Note_on_c, 4, 57, 100
7, 69824, Note_on_c, 4, 57, 0
7, 69888, Note_on_c, 4, 59, 100
7, 70076, Note_on_c, 4, 59, 0
7, 70080, Note_on_c, 4, 57, 100
7, 70208, Note_on_c, 4, 57, 0
7, 70272, Note_on_c, 4, 59, 100
7, 70528, Note_on_c, 4, 59, 0
7, 70656, Note_on_c, 4, 52, 100
7, 70912, Note_on_c, 4, 52, 0
7, 71040, Note_on_c, 4, 61, 100
7, 71228, Note_on_c, 4, 61, 0
7, 71232, Note_on_c, 4, 59, 100
7, 71360, Note_on_c, 4, 59, 0
7, 71424, Note_on_c, 4, 59, 100
7, 71612, Note_on_c, 4, 59, 0
7, 71616, Note_on_c, 4, 57, 100
7, 71744, Note_on_c, 4, 57, 0
7, 71808, Note_on_c, 4, 57, 100
7, 71996, Note_on_c, 4, 57, 0
7, 72000, Note_on_c, 4, 56, 100
7, 72128, Note_on_c, 4, 56, 0
7, 72192, Note_on_c, 4, 57, 100
7, 72380, Note_on_c, 4, 57, 0
7, 72384, Note_on_c, 4, 56, 100
7, 72512, Note_on_c, 4, 56, 0
7, 72576, Note_on_c, 4, 57, 100
7, 72832, Note_on_c, 4, 57, 0
7, 72960, Note_on_c, 4, 45, 100
7, 73216, Note_on_c, 4, 45, 0
7, 74496, Note_on_c, 4, 57, 100
7, 74624, Note_on_c, 4, 57, 0
7, 74688, Note_on_c, 4, 61, 100
7, 74816, Note_on_c, 4, 61, 0
7, 74880, Note_on_c, 4, 59, 100
7, 75260, Note_on_c, 4, 59, 0
7, 75264, Note_on_c, 4, 57, 100
7, 75520, Note_on_c, 4, 57, 0
7, 75648, Note_on_c, 4, 57, 100
7, 75836, Note_on_c, 4, 57, 0
7, 75840, Note_on_c, 4, 56, 100
7, 76028, Note_on_c, 4, 56, 0
7, 76032, Note_on_c, 4, 54, 100
7, 76220, Note_on_c, 4, 54, 0
7, 76224, Note_on_c, 4, 52, 100
7, 76412, Note_on_c, 4, 52, 0
7, 76416, Note_on_c, 4, 50, 100
7, 76604, Note_on_c, 4, 50, 0
7, 76608, Note_on_c, 4, 49, 100
7, 76796, Note_on_c, 4, 49, 0
7, 76800, Note_on_c, 4, 47, 100
7, 76988, Note_on_c, 4, 47, 0
7, 76992, Note_on_c, 4, 52, 100
7, 77180, Note_on_c, 4, 52, 0
7, 77184, Note_on_c, 4, 45, 100
7, 77696, Note_on_c, 4, 45, 0
7, 77952, Note_on_c, 4, 62, 100
7, 78140, Note_on_c, 4, 62, 0
7, 78144, Note_on_c, 4, 61, 100
7, 78272, Note_on_c, 4, 61, 0
7, 78336, Note_on_c, 4, 61, 100
7, 78524, Note_on_c, 4, 61, 0
7, 78528, Note_on_c, 4, 59, 100
7, 78656, Note_on_c, 4, 59, 0
7, 78720, Note_on_c, 4, 59, 100
7, 78908, Note_on_c, 4, 59, 0
7, 78912, Note_on_c, 4, 57, 100
7, 79040, Note_on_c, 4, 57, 0
7, 79104, Note_on_c, 4, 59, 100
7, 79292, Note_on_c, 4, 59, 0
7, 79296, Note_on_c, 4, 57, 100
7, 79424, Note_on_c, 4, 57, 0
7, 79488, Note_on_c, 4, 59, 100
7, 79744, Note_on_c, 4, 59, 0
7, 79872, Note_on_c, 4, 52, 100
7, 80128, Note_on_c, 4, 52, 0
7, 80256, Note_on_c, 4, 61, 100
7, 80444, Note_on_c, 4, 61, 0
7, 80448, Note_on_c, 4, 59, 100
7, 80576, Note_on_c, 4, 59, 0
7, 80640, Note_on_c, 4, 59, 100
7, 80828, Note_on_c, 4, 59, 0
7, 80832, Note_on_c, 4, 57, 100
7, 80960, Note_on_c, 4, 57, 0
7, 81024, Note_on_c, 4, 57, 100
7, 81212, Note_on_c, 4, 57, 0
7, 81216, Note_on_c, 4, 56, 100
7, 81344, Note_on_c, 4, 56, 0
7, 81408, Note_on_c, 4, 57, 100
7, 81596, Note_on_c, 4, 57, 0
7, 81600, Note_on_c, 4, 56, 100
7, 81728, Note_on_c, 4, 56, 0
7, 81792, Note_on_c, 4, 57, 100
7, 82048, Note_on_c, 4, 57, 0
7, 82176, Note_on_c, 4, 45, 100
7, 82432, Note_on_c, 4, 45, 0
7, 83712, Note_on_c, 4, 57, 100
7, 83840, Note_on_c, 4, 57, 0
7, 83904, Note_on_c, 4, 61, 100
7, 84032, Note_on_c, 4, 61, 0
7, 84096, Note_on_c, 4, 59, 100
7, 84476, Note_on_c, 4, 59, 0
7, 84480, Note_on_c, 4, 57, 100
7, 84736, Note_on_c, 4, 57, 0
7, 86592, Note_on_c, 4, 45, 100
7, 86780, Note_on_c, 4, 45, 0
7, 86784, Note_on_c, 4, 49, 100
7, 86972, Note_on_c, 4, 49, 0
7, 86976, Note_on_c, 4, 52, 100
7, 87164, Note_on_c, 4, 52, 0
7, 87168, Note_on_c, 4, 57, 100
7, 87296, Note_on_c, 4, 57, 0
7, 87360, Note_on_c, 4, 56, 100
7, 87488, Note_on_c, 4, 56, 0
7, 87552, Note_on_c, 4, 54, 100
7, 87680, Note_on_c, 4, 54, 0
7, 87744, Note_on_c, 4, 52, 100
7, 87872, Note_on_c, 4, 52, 0
7, 87936, Note_on_c, 4, 50, 100
7, 88064, Note_on_c, 4, 50, 0
7, 88128, Note_on_c, 4, 49, 100
7, 88256, Note_on_c, 4, 49, 0
7, 88320, Note_on_c, 4, 47, 100
7, 88448, Note_on_c, 4, 47, 0
7, 88512, Note_on_c, 4, 52, 100
7, 88640, Note_on_c, 4, 52, 0
7, 88704, Note_on_c, 4, 45, 100
7, 90244, Note_on_c, 4, 45, 0
7, 90244, End_track
8, 0, Start_track
8, 0, MIDI_port, 0
8, 0, Title_t, "(Sinfonia)"
8, 0, Control_c, 5, 0, 0
8, 0, Control_c, 5, 32, 0
8, 0, Program_c, 5, 43
8, 0, Control_c, 5, 7, 97
8, 0, Control_c, 5, 10, 93
8, 1152, Note_on_c, 5, 33, 100
8, 1408, Note_on_c, 5, 33, 0
8, 1536, Note_on_c, 5, 33, 100
8, 1792, Note_on_c, 5, 33, 0
8, 1920, Note_on_c, 5, 33, 100
8, 2176, Note_on_c, 5, 33, 0
8, 2304, Note_on_c, 5, 33, 100
8, 2560, Note_on_c, 5, 33, 0
8, 2688, Note_on_c, 5, 33, 100
8, 2944, Note_on_c, 5, 33, 0
8, 3072, Note_on_c, 5, 33, 100
8, 3328, Note_on_c, 5, 33, 0
8, 3456, Note_on_c, 5, 33, 100
8, 3712, Note_on_c, 5, 33, 0
8, 3840, Note_on_c, 5, 33, 100
8, 4096, Note_on_c, 5, 33, 0
8, 4224, Note_on_c, 5, 33, 100
8, 4480, Note_on_c, 5, 33, 0
8, 4608, Note_on_c, 5, 33, 100
8, 4864, Note_on_c, 5, 33, 0
8, 4992, Note_on_c, 5, 33, 100
8, 5248, Note_on_c, 5, 33, 0
8, 5376, Note_on_c, 5, 33, 75
8, 5632, Note_on_c, 5, 33, 0
8, 5760, Note_on_c, 5, 33, 75
8, 6016, Note_on_c, 5, 33, 0
8, 6144, Note_on_c, 5, 33, 75
8, 6400, Note_on_c, 5, 33, 0
8, 6528, Note_on_c, 5, 33, 75
8, 6784, Note_on_c, 5, 33, 0
8, 6912, Note_on_c, 5, 33, 75
8, 7168, Note_on_c, 5, 33, 0
8, 7296, Note_on_c, 5, 33, 75
8, 7552, Note_on_c, 5, 33, 0
8, 7680, Note_on_c, 5, 33, 75
8, 7936, Note_on_c, 5, 33, 0
8, 8064, Note_on_c, 5, 33, 75
8, 8320, Note_on_c, 5, 33, 0
8, 8448, Note_on_c, 5, 33, 75
8, 8704, Note_on_c, 5, 33, 0
8, 8832, Note_on_c, 5, 33, 75
8, 9088, Note_on_c, 5, 33, 0
8, 9216, Note_on_c, 5, 33, 100
8, 9344, Note_on_c, 5, 33, 0
8, 9408, Note_on_c, 5, 45, 100
8, 9472, Note_on_c, 5, 45, 0
8, 9504, Note_on_c, 5, 47, 100
8, 9568, Note_on_c, 5, 47, 0
8, 9600, Note_on_c, 5, 49, 100
8, 9728, Note_on_c, 5, 49, 0
8, 9792, Note_on_c, 5, 50, 100
8, 9920, Note_on_c, 5, 50, 0
8, 9984, Note_on_c, 5, 49, 100
8, 10172, Note_on_c, 5, 49, 0
8, 10176, Note_on_c, 5, 47, 100
8, 10304, Note_on_c, 5, 47, 0
8, 10368, Note_on_c, 5, 45, 100
8, 10624, Note_on_c, 5, 45, 0
8, 10752, Note_on_c, 5, 45, 100
8, 11008, Note_on_c, 5, 45, 0
8, 11136, Note_on_c, 5, 47, 100
8, 11264, Note_on_c, 5, 47, 0
8, 11328, Note_on_c, 5, 45, 100
8, 11456, Note_on_c, 5, 45, 0
8, 11520, Note_on_c, 5, 40, 100
8, 11648, Note_on_c, 5, 40, 0
8, 11712, Note_on_c, 5, 44, 100
8, 11840, Note_on_c, 5, 44, 0
8, 11904, Note_on_c, 5, 45, 100
8, 12160, Note_on_c, 5, 45, 0
8, 12288, Note_on_c, 5, 33, 100
8, 12416, Note_on_c, 5, 33, 0
8, 12480, Note_on_c, 5, 45, 100
8, 12544, Note_on_c, 5, 45, 0
8, 12576, Note_on_c, 5, 47, 100
8, 12640, Note_on_c, 5, 47, 0
8, 12672, Note_on_c, 5, 49, 100
8, 12800, Note_on_c, 5, 49, 0
8, 12864, Note_on_c, 5, 50, 100
8, 12992, Note_on_c, 5, 50, 0
8, 13056, Note_on_c, 5, 49, 100
8, 13244, Note_on_c, 5, 49, 0
8, 13248, Note_on_c, 5, 47, 100
8, 13376, Note_on_c, 5, 47, 0
8, 13440, Note_on_c, 5, 45, 100
8, 13696, Note_on_c, 5, 45, 0
8, 13824, Note_on_c, 5, 33, 100
8, 13952, Note_on_c, 5, 33, 0
8, 14016, Note_on_c, 5, 45, 100
8, 14144, Note_on_c, 5, 45, 0
8, 14208, Note_on_c, 5, 47, 100
8, 14336, Note_on_c, 5, 47, 0
8, 14400, Note_on_c, 5, 45, 100
8, 14528, Note_on_c, 5, 45, 0
8, 14592, Note_on_c, 5, 44, 100
8, 14780, Note_on_c, 5, 44, 0
8, 14784, Note_on_c, 5, 40, 100
8, 14912, Note_on_c, 5, 40, 0
8, 14976, Note_on_c, 5, 45, 100
8, 15232, Note_on_c, 5, 45, 0
8, 15360, Note_on_c, 5, 33, 100
8, 15488, Note_on_c, 5, 33, 0
8, 15552, Note_on_c, 5, 45, 100
8, 15740, Note_on_c, 5, 45, 0
8, 15744, Note_on_c, 5, 47, 100
8, 15932, Note_on_c, 5, 47, 0
8, 15936, Note_on_c, 5, 49, 100
8, 16124, Note_on_c, 5, 49, 0
8, 16128, Note_on_c, 5, 45, 100
8, 16316, Note_on_c, 5, 45, 0
8, 16320, Note_on_c, 5, 47, 100
8, 16508, Note_on_c, 5, 47, 0
8, 16512, Note_on_c, 5, 49, 100
8, 16892, Note_on_c, 5, 49, 0
8, 16896, Note_on_c, 5, 50, 100
8, 17084, Note_on_c, 5, 50, 0
8, 17088, Note_on_c, 5, 49, 100
8, 17216, Note_on_c, 5, 49, 0
8, 17280, Note_on_c, 5, 45, 100
8, 17408, Note_on_c, 5, 45, 0
8, 17472, Note_on_c, 5, 33, 100
8, 17600, Note_on_c, 5, 33, 0
8, 17664, Note_on_c, 5, 33, 70
8, 17792, Note_on_c, 5, 33, 0
8, 17856, Note_on_c, 5, 45, 70
8, 18044, Note_on_c, 5, 45, 0
8, 18048, Note_on_c, 5, 47, 70
8, 18236, Note_on_c, 5, 47, 0
8, 18240, Note_on_c, 5, 49, 70
8, 18428, Note_on_c, 5, 49, 0
8, 18432, Note_on_c, 5, 45, 70
8, 18620, Note_on_c, 5, 45, 0
8, 18624, Note_on_c, 5, 47, 70
8, 18812, Note_on_c, 5, 47, 0
8, 18816, Note_on_c, 5, 49, 70
8, 19196, Note_on_c, 5, 49, 0
8, 19200, Note_on_c, 5, 50, 70
8, 19388, Note_on_c, 5, 50, 0
8, 19392, Note_on_c, 5, 49, 70
8, 19520, Note_on_c, 5, 49, 0
8, 19584, Note_on_c, 5, 45, 70
8, 19712, Note_on_c, 5, 45, 0
8, 19776, Note_on_c, 5, 45, 100
8, 19904, Note_on_c, 5, 45, 0
8, 19968, Note_on_c, 5, 47, 100
8, 20156, Note_on_c, 5, 47, 0
8, 20160, Note_on_c, 5, 44, 100
8, 20288, Note_on_c, 5, 44, 0
8, 20352, Note_on_c, 5, 44, 100
8, 20480, Note_on_c, 5, 44, 0
8, 20544, Note_on_c, 5, 45, 100
8, 20732, Note_on_c, 5, 45, 0
8, 20736, Note_on_c, 5, 33, 100
8, 20924, Note_on_c, 5, 33, 0
8, 20928, Note_on_c, 5, 37, 100
8, 21116, Note_on_c, 5, 37, 0
8, 21120, Note_on_c, 5, 38, 100
8, 21308, Note_on_c, 5, 38, 0
8, 21312, Note_on_c, 5, 37, 100
8, 21404, Note_on_c, 5, 37, 0
8, 21408, Note_on_c, 5, 38, 100
8, 21500, Note_on_c, 5, 38, 0
8, 21504, Note_on_c, 5, 40, 100
8, 21692, Note_on_c, 5, 40, 0
8, 21696, Note_on_c, 5, 33, 100
8, 21952, Note_on_c, 5, 33, 0
8, 22080, Note_on_c, 5, 45, 70
8, 22208, Note_on_c, 5, 45, 0
8, 22272, Note_on_c, 5, 47, 70
8, 22460, Note_on_c, 5, 47, 0
8, 22464, Note_on_c, 5, 44, 70
8, 22592, Note_on_c, 5, 44, 0
8, 22656, Note_on_c, 5, 44, 70
8, 22784, Note_on_c, 5, 44, 0
8, 22848, Note_on_c, 5, 45, 70
8, 23036, Note_on_c, 5, 45, 0
8, 23040, Note_on_c, 5, 33, 70
8, 23228, Note_on_c, 5, 33, 0
8, 23232, Note_on_c, 5, 37, 70
8, 23420, Note_on_c, 5, 37, 0
8, 23424, Note_on_c, 5, 38, 70
8, 23612, Note_on_c, 5, 38, 0
8, 23616, Note_on_c, 5, 37, 70
8, 23708, Note_on_c, 5, 37, 0
8, 23712, Note_on_c, 5, 38, 70
8, 23804, Note_on_c, 5, 38, 0
8, 23808, Note_on_c, 5, 40, 70
8, 23996, Note_on_c, 5, 40, 0
8, 24000, Note_on_c, 5, 33, 70
8, 24256, Note_on_c, 5, 33, 0
8, 24384, Note_on_c, 5, 40, 100
8, 24512, Note_on_c, 5, 40, 0
8, 24576, Note_on_c, 5, 40, 100
8, 24704, Note_on_c, 5, 40, 0
8, 24768, Note_on_c, 5, 40, 100
8, 24896, Note_on_c, 5, 40, 0
8, 24960, Note_on_c, 5, 35, 100
8, 25088, Note_on_c, 5, 35, 0
8, 25152, Note_on_c, 5, 35, 100
8, 25280, Note_on_c, 5, 35, 0
8, 25344, Note_on_c, 5, 40, 100
8, 25600, Note_on_c, 5, 40, 0
8, 25920, Note_on_c, 5, 40, 100
8, 26048, Note_on_c, 5, 40, 0
8, 26112, Note_on_c, 5, 40, 100
8, 26240, Note_on_c, 5, 40, 0
8, 26304, Note_on_c, 5, 40, 100
8, 26432, Note_on_c, 5, 40, 0
8, 26496, Note_on_c, 5, 35, 100
8, 26624, Note_on_c, 5, 35, 0
8, 26688, Note_on_c, 5, 35, 100
8, 26816, Note_on_c, 5, 35, 0
8, 26880, Note_on_c, 5, 40, 100
8, 27008, Note_on_c, 5, 40, 0
8, 27072, Note_on_c, 5, 40, 100
8, 27200, Note_on_c, 5, 40, 0
8, 27264, Note_on_c, 5, 40, 100
8, 27392, Note_on_c, 5, 40, 0
8, 27456, Note_on_c, 5, 40, 100
8, 27584, Note_on_c, 5, 40, 0
8, 27648, Note_on_c, 5, 40, 100
8, 27776, Note_on_c, 5, 40, 0
8, 27840, Note_on_c, 5, 40, 100
8, 27968, Note_on_c, 5, 40, 0
8, 28032, Note_on_c, 5, 35, 100
8, 28160, Note_on_c, 5, 35, 0
8, 28224, Note_on_c, 5, 35, 100
8, 28352, Note_on_c, 5, 35, 0
8, 28416, Note_on_c, 5, 40, 100
8, 28672, Note_on_c, 5, 40, 0
8, 28992, Note_on_c, 5, 40, 100
8, 29120, Note_on_c, 5, 40, 0
8, 29184, Note_on_c, 5, 40, 100
8, 29312, Note_on_c, 5, 40, 0
8, 29376, Note_on_c, 5, 40, 100
8, 29504, Note_on_c, 5, 40, 0
8, 29568, Note_on_c, 5, 35, 100
8, 29696, Note_on_c, 5, 35, 0
8, 29760, Note_on_c, 5, 35, 100
8, 29888, Note_on_c, 5, 35, 0
8, 29952, Note_on_c, 5, 40, 100
8, 30080, Note_on_c, 5, 40, 0
8, 30144, Note_on_c, 5, 28, 100
8, 30272, Note_on_c, 5, 28, 0
8, 30336, Note_on_c, 5, 40, 100
8, 30464, Note_on_c, 5, 40, 0
8, 30720, Note_on_c, 5, 40, 100
8, 30848, Note_on_c, 5, 40, 0
8, 30912, Note_on_c, 5, 40, 100
8, 31040, Note_on_c, 5, 40, 0
8, 31104, Note_on_c, 5, 40, 100
8, 31232, Note_on_c, 5, 40, 0
8, 31488, Note_on_c, 5, 40, 100
8, 31616, Note_on_c, 5, 40, 0
8, 31680, Note_on_c, 5, 40, 100
8, 31808, Note_on_c, 5, 40, 0
8, 31872, Note_on_c, 5, 40, 100
8, 32000, Note_on_c, 5, 40, 0
8, 32256, Note_on_c, 5, 45, 100
8, 32512, Note_on_c, 5, 45, 0
8, 32640, Note_on_c, 5, 40, 100
8, 32896, Note_on_c, 5, 40, 0
8, 33024, Note_on_c, 5, 33, 100
8, 33152, Note_on_c, 5, 33, 0
8, 33216, Note_on_c, 5, 33, 100
8, 33344, Note_on_c, 5, 33, 0
8, 33408, Note_on_c, 5, 33, 100
8, 33536, Note_on_c, 5, 33, 0
8, 33792, Note_on_c, 5, 40, 100
8, 33920, Note_on_c, 5, 40, 0
8, 33984, Note_on_c, 5, 40, 100
8, 34112, Note_on_c, 5, 40, 0
8, 34176, Note_on_c, 5, 40, 100
8, 34304, Note_on_c, 5, 40, 0
8, 34560, Note_on_c, 5, 40, 100
8, 34688, Note_on_c, 5, 40, 0
8, 34752, Note_on_c, 5, 40, 100
8, 34880, Note_on_c, 5, 40, 0
8, 34944, Note_on_c, 5, 40, 100
8, 35072, Note_on_c, 5, 40, 0
8, 35328, Note_on_c, 5, 45, 100
8, 35584, Note_on_c, 5, 45, 0
8, 35712, Note_on_c, 5, 40, 100
8, 35968, Note_on_c, 5, 40, 0
8, 36096, Note_on_c, 5, 33, 100
8, 36224, Note_on_c, 5, 33, 0
8, 36288, Note_on_c, 5, 45, 100
8, 36380, Note_on_c, 5, 45, 0
8, 36384, Note_on_c, 5, 47, 100
8, 36476, Note_on_c, 5, 47, 0
8, 36480, Note_on_c, 5, 48, 100
8, 36668, Note_on_c, 5, 48, 0
8, 36672, Note_on_c, 5, 47, 100
8, 36860, Note_on_c, 5, 47, 0
8, 36864, Note_on_c, 5, 45, 100
8, 37052, Note_on_c, 5, 45, 0
8, 37056, Note_on_c, 5, 43, 100
8, 37244, Note_on_c, 5, 43, 0
8, 37248, Note_on_c, 5, 41, 100
8, 37436, Note_on_c, 5, 41, 0
8, 37440, Note_on_c, 5, 40, 100
8, 37568, Note_on_c, 5, 40, 0
8, 37632, Note_on_c, 5, 40, 100
8, 38244, Note_on_c, 5, 40, 0
8, 38400, Note_on_c, 5, 38, 100
8, 38588, Note_on_c, 5, 38, 0
8, 38592, Note_on_c, 5, 40, 100
8, 38780, Note_on_c, 5, 40, 0
8, 38784, Note_on_c, 5, 41, 100
8, 38972, Note_on_c, 5, 41, 0
8, 38976, Note_on_c, 5, 40, 100
8, 39164, Note_on_c, 5, 40, 0
8, 39168, Note_on_c, 5, 38, 100
8, 39356, Note_on_c, 5, 38, 0
8, 39360, Note_on_c, 5, 36, 100
8, 39548, Note_on_c, 5, 36, 0
8, 39552, Note_on_c, 5, 35, 100
8, 39740, Note_on_c, 5, 35, 0
8, 39744, Note_on_c, 5, 33, 100
8, 39872, Note_on_c, 5, 33, 0
8, 39936, Note_on_c, 5, 33, 100
8, 40448, Note_on_c, 5, 33, 0
8, 40704, Note_on_c, 5, 33, 75
8, 40832, Note_on_c, 5, 33, 0
8, 40896, Note_on_c, 5, 45, 75
8, 40988, Note_on_c, 5, 45, 0
8, 40992, Note_on_c, 5, 47, 75
8, 41084, Note_on_c, 5, 47, 0
8, 41088, Note_on_c, 5, 48, 75
8, 41276, Note_on_c, 5, 48, 0
8, 41280, Note_on_c, 5, 47, 75
8, 41468, Note_on_c, 5, 47, 0
8, 41472, Note_on_c, 5, 45, 75
8, 41660, Note_on_c, 5, 45, 0
8, 41664, Note_on_c, 5, 43, 75
8, 41852, Note_on_c, 5, 43, 0
8, 41856, Note_on_c, 5, 41, 75
8, 42044, Note_on_c, 5, 41, 0
8, 42048, Note_on_c, 5, 40, 75
8, 42176, Note_on_c, 5, 40, 0
8, 42240, Note_on_c, 5, 40, 75
8, 42852, Note_on_c, 5, 40, 0
8, 43008, Note_on_c, 5, 38, 75
8, 43196, Note_on_c, 5, 38, 0
8, 43200, Note_on_c, 5, 40, 75
8, 43388, Note_on_c, 5, 40, 0
8, 43392, Note_on_c, 5, 41, 75
8, 43580, Note_on_c, 5, 41, 0
8, 43584, Note_on_c, 5, 40, 75
8, 43772, Note_on_c, 5, 40, 0
8, 43776, Note_on_c, 5, 38, 75
8, 43964, Note_on_c, 5, 38, 0
8, 43968, Note_on_c, 5, 36, 75
8, 44156, Note_on_c, 5, 36, 0
8, 44160, Note_on_c, 5, 35, 75
8, 44348, Note_on_c, 5, 35, 0
8, 44352, Note_on_c, 5, 33, 75
8, 44480, Note_on_c, 5, 33, 0
8, 44544, Note_on_c, 5, 33, 75
8, 45056, Note_on_c, 5, 33, 0
8, 45312, Note_on_c, 5, 41, 100
8, 45500, Note_on_c, 5, 41, 0
8, 45504, Note_on_c, 5, 40, 100
8, 45632, Note_on_c, 5, 40, 0
8, 45696, Note_on_c, 5, 40, 100
8, 46308, Note_on_c, 5, 40, 0
8, 46464, Note_on_c, 5, 34, 100
8, 46652, Note_on_c, 5, 34, 0
8, 46656, Note_on_c, 5, 33, 100
8, 46784, Note_on_c, 5, 33, 0
8, 46848, Note_on_c, 5, 33, 100
8, 47360, Note_on_c, 5, 33, 0
8, 47616, Note_on_c, 5, 38, 100
8, 47804, Note_on_c, 5, 38, 0
8, 47808, Note_on_c, 5, 40, 100
8, 47996, Note_on_c, 5, 40, 0
8, 48000, Note_on_c, 5, 41, 100
8, 48188, Note_on_c, 5, 41, 0
8, 48192, Note_on_c, 5, 40, 100
8, 48380, Note_on_c, 5, 40, 0
8, 48384, Note_on_c, 5, 38, 100
8, 48572, Note_on_c, 5, 38, 0
8, 48576, Note_on_c, 5, 36, 100
8, 48764, Note_on_c, 5, 36, 0
8, 48768, Note_on_c, 5, 35, 100
8, 48956, Note_on_c, 5, 35, 0
8, 48960, Note_on_c, 5, 33, 100
8, 49088, Note_on_c, 5, 33, 0
8, 49152, Note_on_c, 5, 33, 100
8, 49664, Note_on_c, 5, 33, 0
8, 49920, Note_on_c, 5, 41, 75
8, 50108, Note_on_c, 5, 41, 0
8, 50112, Note_on_c, 5, 40, 75
8, 50240, Note_on_c, 5, 40, 0
8, 50304, Note_on_c, 5, 40, 75
8, 50916, Note_on_c, 5, 40, 0
8, 51072, Note_on_c, 5, 34, 75
8, 51260, Note_on_c, 5, 34, 0
8, 51264, Note_on_c, 5, 33, 75
8, 51392, Note_on_c, 5, 33, 0
8, 51456, Note_on_c, 5, 33, 75
8, 51968, Note_on_c, 5, 33, 0
8, 52224, Note_on_c, 5, 38, 75
8, 52412, Note_on_c, 5, 38, 0
8, 52416, Note_on_c, 5, 40, 75
8, 52604, Note_on_c, 5, 40, 0
8, 52608, Note_on_c, 5, 41, 75
8, 52796, Note_on_c, 5, 41, 0
8, 52800, Note_on_c, 5, 40, 75
8, 52988, Note_on_c, 5, 40, 0
8, 52992, Note_on_c, 5, 38, 75
8, 53180, Note_on_c, 5, 38, 0
8, 53184, Note_on_c, 5, 36, 75
8, 53372, Note_on_c, 5, 36, 0
8, 53376, Note_on_c, 5, 35, 75
8, 53564, Note_on_c, 5, 35, 0
8, 53568, Note_on_c, 5, 33, 75
8, 53696, Note_on_c, 5, 33, 0
8, 53760, Note_on_c, 5, 33, 75
8, 54272, Note_on_c, 5, 33, 0
8, 54528, Note_on_c, 5, 45, 100
8, 54620, Note_on_c, 5, 45, 0
8, 54624, Note_on_c, 5, 48, 100
8, 54716, Note_on_c, 5, 48, 0
8, 54720, Note_on_c, 5, 47, 100
8, 54812, Note_on_c, 5, 47, 0
8, 54816, Note_on_c, 5, 48, 100
8, 54908, Note_on_c, 5, 48, 0
8, 54912, Note_on_c, 5, 50, 100
8, 55040, Note_on_c, 5, 50, 0
8, 55104, Note_on_c, 5, 48, 100
8, 55232, Note_on_c, 5, 48, 0
8, 55296, Note_on_c, 5, 47, 100
8, 55424, Note_on_c, 5, 47, 0
8, 55488, Note_on_c, 5, 44, 100
8, 55616, Note_on_c, 5, 44, 0
8, 55680, Note_on_c, 5, 45, 100
8, 55808, Note_on_c, 5, 45, 0
8, 55872, Note_on_c, 5, 33, 100
8, 56000, Note_on_c, 5, 33, 0
8, 56064, Note_on_c, 5, 38, 100
8, 56252, Note_on_c, 5, 38, 0
8, 56256, Note_on_c, 5, 40, 100
8, 56348, Note_on_c, 5, 40, 0
8, 56352, Note_on_c, 5, 41, 100
8, 56444, Note_on_c, 5, 41, 0
8, 56448, Note_on_c, 5, 40, 100
8, 56576, Note_on_c, 5, 40, 0
8, 56640, Note_on_c, 5, 28, 100
8, 56768, Note_on_c, 5, 28, 0
8, 56832, Note_on_c, 5, 33, 100
8, 57088, Note_on_c, 5, 33, 0
8, 57408, Note_on_c, 5, 45, 100
8, 57472, Note_on_c, 5, 45, 0
8, 57504, Note_on_c, 5, 47, 100
8, 57568, Note_on_c, 5, 47, 0
8, 57600, Note_on_c, 5, 48, 100
8, 57728, Note_on_c, 5, 48, 0
8, 57792, Note_on_c, 5, 47, 100
8, 57884, Note_on_c, 5, 47, 0
8, 57888, Note_on_c, 5, 48, 100
8, 57980, Note_on_c, 5, 48, 0
8, 57984, Note_on_c, 5, 50, 100
8, 58112, Note_on_c, 5, 50, 0
8, 58176, Note_on_c, 5, 48, 100
8, 58304, Note_on_c, 5, 48, 0
8, 58368, Note_on_c, 5, 47, 100
8, 58496, Note_on_c, 5, 47, 0
8, 58560, Note_on_c, 5, 44, 100
8, 58688, Note_on_c, 5, 44, 0
8, 58752, Note_on_c, 5, 45, 100
8, 58880, Note_on_c, 5, 45, 0
8, 58944, Note_on_c, 5, 33, 100
8, 59072, Note_on_c, 5, 33, 0
8, 59136, Note_on_c, 5, 38, 100
8, 59324, Note_on_c, 5, 38, 0
8, 59328, Note_on_c, 5, 40, 100
8, 59420, Note_on_c, 5, 40, 0
8, 59424, Note_on_c, 5, 41, 100
8, 59516, Note_on_c, 5, 41, 0
8, 59520, Note_on_c, 5, 40, 100
8, 59648, Note_on_c, 5, 40, 0
8, 59712, Note_on_c, 5, 28, 100
8, 59840, Note_on_c, 5, 28, 0
8, 59904, Note_on_c, 5, 33, 100
8, 60160, Note_on_c, 5, 33, 0
8, 60288, Note_on_c, 5, 33, 100
8, 60544, Note_on_c, 5, 33, 0
8, 60672, Note_on_c, 5, 33, 100
8, 60928, Note_on_c, 5, 33, 0
8, 61056, Note_on_c, 5, 33, 100
8, 61312, Note_on_c, 5, 33, 0
8, 61440, Note_on_c, 5, 33, 100
8, 61696, Note_on_c, 5, 33, 0
8, 61824, Note_on_c, 5, 33, 100
8, 62080, Note_on_c, 5, 33, 0
8, 62208, Note_on_c, 5, 33, 100
8, 62464, Note_on_c, 5, 33, 0
8, 62592, Note_on_c, 5, 33, 100
8, 62848, Note_on_c, 5, 33, 0
8, 62976, Note_on_c, 5, 33, 100
8, 63232, Note_on_c, 5, 33, 0
8, 63360, Note_on_c, 5, 33, 100
8, 63616, Note_on_c, 5, 33, 0
8, 63744, Note_on_c, 5, 33, 100
8, 64000, Note_on_c, 5, 33, 0
8, 64128, Note_on_c, 5, 33, 75
8, 64384, Note_on_c, 5, 33, 0
8, 64512, Note_on_c, 5, 33, 75
8, 64768, Note_on_c, 5, 33, 0
8, 64896, Note_on_c, 5, 33, 75
8, 65152, Note_on_c, 5, 33, 0
8, 65280, Note_on_c, 5, 33, 75
8, 65536, Note_on_c, 5, 33, 0
8, 65664, Note_on_c, 5, 33, 75
8, 65920, Note_on_c, 5, 33, 0
8, 66048, Note_on_c, 5, 33, 75
8, 66304, Note_on_c, 5, 33, 0
8, 66432, Note_on_c, 5, 33, 75
8, 66688, Note_on_c, 5, 33, 0
8, 66816, Note_on_c, 5, 33, 75
8, 67072, Note_on_c, 5, 33, 0
8, 67200, Note_on_c, 5, 33, 75
8, 67456, Note_on_c, 5, 33, 0
8, 67584, Note_on_c, 5, 33, 75
8, 67840, Note_on_c, 5, 33, 0
8, 67968, Note_on_c, 5, 33, 75
8, 68572, Note_on_c, 5, 33, 0
8, 68736, Note_on_c, 5, 50, 100
8, 68924, Note_on_c, 5, 50, 0
8, 68928, Note_on_c, 5, 49, 100
8, 69056, Note_on_c, 5, 49, 0
8, 69120, Note_on_c, 5, 49, 100
8, 69308, Note_on_c, 5, 49, 0
8, 69312, Note_on_c, 5, 47, 100
8, 69440, Note_on_c, 5, 47, 0
8, 69504, Note_on_c, 5, 47, 100
8, 69692, Note_on_c, 5, 47, 0
8, 69696, Note_on_c, 5, 45, 100
8, 69824, Note_on_c, 5, 45, 0
8, 69888, Note_on_c, 5, 47, 100
8, 70076, Note_on_c, 5, 47, 0
8, 70080, Note_on_c, 5, 45, 100
8, 70208, Note_on_c, 5, 45, 0
8, 70272, Note_on_c, 5, 47, 100
8, 70528, Note_on_c, 5, 47, 0
8, 70656, Note_on_c, 5, 40, 100
8, 70912, Note_on_c, 5, 40, 0
8, 71040, Note_on_c, 5, 49, 100
8, 71228, Note_on_c, 5, 49, 0
8, 71232, Note_on_c, 5, 47, 100
8, 71360, Note_on_c, 5, 47, 0
8, 71424, Note_on_c, 5, 47, 100
8, 71612, Note_on_c, 5, 47, 0
8, 71616, Note_on_c, 5, 45, 100
8, 71744, Note_on_c, 5, 45, 0
8, 71808, Note_on_c, 5, 45, 100
8, 71996, Note_on_c, 5, 45, 0
8, 72000, Note_on_c, 5, 44, 100
8, 72128, Note_on_c, 5, 44, 0
8, 72192, Note_on_c, 5, 45, 100
8, 72380, Note_on_c, 5, 45, 0
8, 72384, Note_on_c, 5, 44, 100
8, 72512, Note_on_c, 5, 44, 0
8, 72576, Note_on_c, 5, 45, 100
8, 72832, Note_on_c, 5, 45, 0
8, 72960, Note_on_c, 5, 33, 100
8, 73216, Note_on_c, 5, 33, 0
8, 74496, Note_on_c, 5, 45, 100
8, 74624, Note_on_c, 5, 45, 0
8, 74688, Note_on_c, 5, 49, 100
8, 74816, Note_on_c, 5, 49, 0
8, 74880, Note_on_c, 5, 47, 100
8, 75260, Note_on_c, 5, 47, 0
8, 75264, Note_on_c, 5, 45, 100
8, 75520, Note_on_c, 5, 45, 0
8, 75648, Note_on_c, 5, 45, 100
8, 75836, Note_on_c, 5, 45, 0
8, 75840, Note_on_c, 5, 44, 100
8, 76028, Note_on_c, 5, 44, 0
8, 76032, Note_on_c, 5, 42, 100
8, 76220, Note_on_c, 5, 42, 0
8, 76224, Note_on_c, 5, 40, 100
8, 76412, Note_on_c, 5, 40, 0
8, 76416, Note_on_c, 5, 38, 100
8, 76604, Note_on_c, 5, 38, 0
8, 76608, Note_on_c, 5, 37, 100
8, 76796, Note_on_c, 5, 37, 0
8, 76800, Note_on_c, 5, 35, 100
8, 76988, Note_on_c, 5, 35, 0
8, 76992, Note_on_c, 5, 40, 100
8, 77180, Note_on_c, 5, 40, 0
8, 77184, Note_on_c, 5, 33, 100
8, 77696, Note_on_c, 5, 33, 0
8, 77952, Note_on_c, 5, 50, 100
8, 78140, Note_on_c, 5, 50, 0
8, 78144, Note_on_c, 5, 49, 100
8, 78272, Note_on_c, 5, 49, 0
8, 78336, Note_on_c, 5, 49, 100
8, 78524, Note_on_c, 5, 49, 0
8, 78528, Note_on_c, 5, 47, 100
8, 78656, Note_on_c, 5, 47, 0
8, 78720, Note_on_c, 5, 47, 100
8, 78908, Note_on_c, 5, 47, 0
8, 78912, Note_on_c, 5, 45, 100
8, 79040, Note_on_c, 5, 45, 0
8, 79104, Note_on_c, 5, 47, 100
8, 79292, Note_on_c, 5, 47, 0
8, 79296, Note_on_c, 5, 45, 100
8, 79424, Note_on_c, 5, 45, 0
8, 79488, Note_on_c, 5, 47, 100
8, 79744, Note_on_c, 5, 47, 0
8, 79872, Note_on_c, 5, 40, 100
8, 80128, Note_on_c, 5, 40, 0
8, 80256, Note_on_c, 5, 49, 100
8, 80444, Note_on_c, 5, 49, 0
8, 80448, Note_on_c, 5, 47, 100
8, 80576, Note_on_c, 5, 47, 0
8, 80640, Note_on_c, 5, 47, 100
8, 80828, Note_on_c, 5, 47, 0
8, 80832, Note_on_c, 5, 45, 100
8, 80960, Note_on_c, 5, 45, 0
8, 81024, Note_on_c, 5, 45, 100
8, 81212, Note_on_c, 5, 45, 0
8, 81216, Note_on_c, 5, 44, 100
8, 81344, Note_on_c, 5, 44, 0
8, 81408, Note_on_c, 5, 45, 100
8, 81596, Note_on_c, 5, 45, 0
8, 81600, Note_on_c, 5, 44, 100
8, 81728, Note_on_c, 5, 44, 0
8, 81792, Note_on_c, 5, 45, 100
8, 82048, Note_on_c, 5, 45, 0
8, 82176, Note_on_c, 5, 33, 100
8, 82432, Note_on_c, 5, 33, 0
8, 83712, Note_on_c, 5, 45, 100
8, 83840, Note_on_c, 5, 45, 0
8, 83904, Note_on_c, 5, 49, 100
8, 84032, Note_on_c, 5, 49, 0
8, 84096, Note_on_c, 5, 47, 100
8, 84476, Note_on_c, 5, 47, 0
8, 84480, Note_on_c, 5, 45, 100
8, 84736, Note_on_c, 5, 45, 0
8, 86592, Note_on_c, 5, 33, 100
8, 86780, Note_on_c, 5, 33, 0
8, 86784, Note_on_c, 5, 37, 100
8, 86972, Note_on_c, 5, 37, 0
8, 86976, Note_on_c, 5, 40, 100
8, 87164, Note_on_c, 5, 40, 0
8, 87168, Note_on_c, 5, 45, 100
8, 87296, Note_on_c, 5, 45, 0
8, 87360, Note_on_c, 5, 44, 100
8, 87488, Note_on_c, 5, 44, 0
8, 87552, Note_on_c, 5, 42, 100
8, 87680, Note_on_c, 5, 42, 0
8, 87744, Note_on_c, 5, 40, 100
8, 87872, Note_on_c, 5, 40, 0
8, 87936, Note_on_c, 5, 38, 100
8, 88064, Note_on_c, 5, 38, 0
8, 88128, Note_on_c, 5, 37, 100
8, 88256, Note_on_c, 5, 37, 0
8, 88320, Note_on_c, 5, 35, 100
8, 88448, Note_on_c, 5, 35, 0
8, 88512, Note_on_c, 5, 40, 100
8, 88640, Note_on_c, 5, 40, 0
8, 88704, Note_on_c, 5, 33, 100
8, 90236, Note_on_c, 5, 33, 0
8, 90236, End_track
0, 0, End_of_file
