0, 0, Header, 1, 14, 240
1, 0, Start_track
1, 0, Title_t, "untitled"
1, 0, SMPTE_offset, 96, 0, 3, 0, 0
1, 0, Time_signature, 4, 2, 24, 8
1, 0, Key_signature, 0, "major"
1, 0, Tempo, 909091
1, 960, Tempo, 869565
1, 1724, Tempo, 967742
1, 1920, Tempo, 1090909
1, 2152, Tempo, 983607
1, 2400, Tempo, 882353
1, 2880, Tempo, 869565
1, 4220, Tempo, 1111111
1, 4332, Tempo, 1000000
1, 4336, Tempo, 1111111
1, 4468, Tempo, 952381
1, 4544, Tempo, 895522
1, 4548, Tempo, 1132075
1, 4552, Tempo, 895522
1, 4640, Tempo, 1034483
1, 4644, Tempo, 895522
1, 4712, Tempo, 909091
1, 4800, Tempo, 882353
1, 5760, Tempo, 869565
1, 7680, Tempo, 1052632
1, 7948, Tempo, 882353
1, 8640, Tempo, 869565
1, 10560, Tempo, 909091
1, 11520, Tempo, 869565
1, 13440, Tempo, 909091
1, 14400, Tempo, 869565
1, 16092, Tempo, 983607
1, 16320, Tempo, 869565
1, 18240, Tempo, 909091
1, 19200, Tempo, 869565
1, 21120, Tempo, 909091
1, 21604, Tempo, 1000000
1, 21836, Tempo, 1090909
1, 21840, Tempo, 1000000
1, 22080, Tempo, 909091
1, 23040, Tempo, 869565
1, 23520, Tempo, 1016949
1, 24000, Tempo, 869565
1, 25636, Tempo, 1016949
1, 25920, Tempo, 1034483
1, 26164, Tempo, 869565
1, 27360, Tempo, 952381
1, 27840, Tempo, 869565
1, 28324, Tempo, 967742
1, 28800, Tempo, 1000000
1, 29284, Tempo, 1132075
1, 29756, Tempo, 1538462
1, 30720, Tempo, 983607
1, 64320, Tempo, 1176471
1, 64556, Tempo, 1333333
1, 64796, Tempo, 1500000
1, 65040, Tempo, 1818182
1, 65280, Tempo, 1304348
1, 65280, End_track
2, 0, Start_track
2, 0, MIDI_port, 0
2, 0, Title_t, "Organ"
2, 0, Program_c, 0, 19
2, 0, Control_c, 0, 7, 100
2, 0, Control_c, 0, 10, 64
2, 60, Note_on_c, 0, 59, 85
2, 120, Note_on_c, 0, 59, 0
2, 120, Note_on_c, 0, 64, 85
2, 180, Note_on_c, 0, 64, 0
2, 180, Note_on_c, 0, 67, 85
2, 240, Note_on_c, 0, 67, 0
2, 240, Note_on_c, 0, 66, 85
2, 300, Note_on_c, 0, 66, 0
2, 1500, Note_on_c, 0, 64, 85
2, 1560, Note_on_c, 0, 64, 0
2, 1560, Note_on_c, 0, 60, 85
2, 1620, Note_on_c, 0, 60, 0
2, 1620, Note_on_c, 0, 57, 85
2, 1680, Note_on_c, 0, 57, 0
2, 1680, Note_on_c, 0, 72, 85
2, 1740, Note_on_c, 0, 72, 0
2, 1740, Note_on_c, 0, 64, 85
2, 1800, Note_on_c, 0, 64, 0
2, 1800, Note_on_c, 0, 60, 85
2, 1860, Note_on_c, 0, 60, 0
2, 1860, Note_on_c, 0, 57, 85
2, 1920, Note_on_c, 0, 57, 0
2, 1920, Note_on_c, 0, 69, 85
2, 1980, Note_on_c, 0, 69, 0
2, 1980, Note_on_c, 0, 74, 85
2, 2040, Note_on_c, 0, 74, 0
2, 2040, Note_on_c, 0, 72, 85
2, 2100, Note_on_c, 0, 72, 0
2, 2100, Note_on_c, 0, 71, 85
2, 2160, Note_on_c, 0, 71, 0
2, 2160, Note_on_c, 0, 69, 85
2, 2220, Note_on_c, 0, 69, 0
2, 2220, Note_on_c, 0, 71, 85
2, 2280, Note_on_c, 0, 71, 0
2, 2280, Note_on_c, 0, 72, 85
2, 2340, Note_on_c, 0, 72, 0
2, 2340, Note_on_c, 0, 68, 85
2, 2400, Note_on_c, 0, 68, 0
2, 2400, Note_on_c, 0, 69, 85
2, 2460, Note_on_c, 0, 69, 0
2, 2460, Note_on_c, 0, 71, 85
2, 2520, Note_on_c, 0, 71, 0
2, 2520, Note_on_c, 0, 72, 85
2, 2580, Note_on_c, 0, 72, 0
2, 2580, Note_on_c, 0, 71, 85
2, 2640, Note_on_c, 0, 71, 0
2, 2640, Note_on_c, 0, 69, 85
2, 2700, Note_on_c, 0, 69, 0
2, 2700, Note_on_c, 0, 67, 85
2, 2760, Note_on_c, 0, 67, 0
2, 2760, Note_on_c, 0, 66, 85
2, 2820, Note_on_c, 0, 66, 0
2, 2820, Note_on_c, 0, 64, 85
2, 2880, Note_on_c, 0, 64, 0
2, 2880, Note_on_c, 0, 63, 85
2, 2940, Note_on_c, 0, 63, 0
2, 2940, Note_on_c, 0, 64, 85
2, 3000, Note_on_c, 0, 64, 0
2, 3000, Note_on_c, 0, 66, 85
2, 3060, Note_on_c, 0, 66, 0
2, 3060, Note_on_c, 0, 64, 85
2, 3120, Note_on_c, 0, 64, 0
2, 3120, Note_on_c, 0, 63, 85
2, 3180, Note_on_c, 0, 63, 0
2, 3180, Note_on_c, 0, 61, 85
2, 3240, Note_on_c, 0, 61, 0
2, 5040, Note_on_c, 0, 75, 85
2, 5040, Note_on_c, 0, 71, 85
2, 5040, Note_on_c, 0, 66, 85
2, 5070, Note_on_c, 0, 66, 0
2, 5070, Note_on_c, 0, 71, 0
2, 5070, Note_on_c, 0, 75, 0
2, 5070, Note_on_c, 0, 76, 85
2, 5070, Note_on_c, 0, 69, 85
2, 5100, Note_on_c, 0, 69, 0
2, 5100, Note_on_c, 0, 76, 0
2, 5100, Note_on_c, 0, 75, 85
2, 5100, Note_on_c, 0, 71, 85
2, 5100, Note_on_c, 0, 66, 85
2, 5130, Note_on_c, 0, 66, 0
2, 5130, Note_on_c, 0, 71, 0
2, 5130, Note_on_c, 0, 75, 0
2, 5130, Note_on_c, 0, 76, 85
2, 5130, Note_on_c, 0, 69, 85
2, 5160, Note_on_c, 0, 69, 0
2, 5160, Note_on_c, 0, 76, 0
2, 5160, Note_on_c, 0, 75, 85
2, 5160, Note_on_c, 0, 71, 85
2, 5160, Note_on_c, 0, 66, 85
2, 5190, Note_on_c, 0, 66, 0
2, 5190, Note_on_c, 0, 71, 0
2, 5190, Note_on_c, 0, 75, 0
2, 5190, Note_on_c, 0, 76, 85
2, 5190, Note_on_c, 0, 69, 85
2, 5220, Note_on_c, 0, 69, 0
2, 5220, Note_on_c, 0, 76, 0
2, 5220, Note_on_c, 0, 73, 85
2, 5220, Note_on_c, 0, 71, 85
2, 5220, Note_on_c, 0, 66, 85
2, 5250, Note_on_c, 0, 66, 0
2, 5250, Note_on_c, 0, 71, 0
2, 5250, Note_on_c, 0, 73, 0
2, 5250, Note_on_c, 0, 75, 85
2, 5250, Note_on_c, 0, 69, 85
2, 5280, Note_on_c, 0, 69, 0
2, 5280, Note_on_c, 0, 75, 0
2, 5280, Note_on_c, 0, 76, 85
2, 5280, Note_on_c, 0, 71, 85
2, 5280, Note_on_c, 0, 67, 85
2, 5340, Note_on_c, 0, 67, 0
2, 5340, Note_on_c, 0, 71, 0
2, 5340, Note_on_c, 0, 76, 0
2, 5340, Note_on_c, 0, 78, 85
2, 5400, Note_on_c, 0, 78, 0
2, 5400, Note_on_c, 0, 79, 85
2, 5460, Note_on_c, 0, 79, 0
2, 5460, Note_on_c, 0, 75, 85
2, 5520, Note_on_c, 0, 75, 0
2, 5520, Note_on_c, 0, 76, 85
2, 5580, Note_on_c, 0, 76, 0
2, 5580, Note_on_c, 0, 69, 85
2, 5640, Note_on_c, 0, 69, 0
2, 5640, Note_on_c, 0, 71, 85
2, 5700, Note_on_c, 0, 71, 0
2, 5700, Note_on_c, 0, 72, 85
2, 5760, Note_on_c, 0, 72, 0
2, 5760, Note_on_c, 0, 71, 85
2, 5760, Note_on_c, 0, 67, 85
2, 5760, Note_on_c, 0, 64, 85
2, 5820, Note_on_c, 0, 78, 85
2, 5880, Note_on_c, 0, 78, 0
2, 5880, Note_on_c, 0, 79, 85
2, 5940, Note_on_c, 0, 79, 0
2, 5940, Note_on_c, 0, 75, 85
2, 6000, Note_on_c, 0, 75, 0
2, 6000, Note_on_c, 0, 71, 0
2, 6000, Note_on_c, 0, 67, 0
2, 6000, Note_on_c, 0, 64, 0
2, 6000, Note_on_c, 0, 76, 85
2, 6060, Note_on_c, 0, 76, 0
2, 6060, Note_on_c, 0, 71, 85
2, 6120, Note_on_c, 0, 71, 0
2, 6120, Note_on_c, 0, 72, 85
2, 6180, Note_on_c, 0, 72, 0
2, 6180, Note_on_c, 0, 74, 85
2, 6240, Note_on_c, 0, 74, 0
2, 6240, Note_on_c, 0, 72, 85
2, 6240, Note_on_c, 0, 69, 85
2, 6240, Note_on_c, 0, 64, 85
2, 6300, Note_on_c, 0, 78, 85
2, 6360, Note_on_c, 0, 78, 0
2, 6360, Note_on_c, 0, 79, 85
2, 6420, Note_on_c, 0, 79, 0
2, 6420, Note_on_c, 0, 75, 85
2, 6480, Note_on_c, 0, 75, 0
2, 6480, Note_on_c, 0, 72, 0
2, 6480, Note_on_c, 0, 69, 0
2, 6480, Note_on_c, 0, 64, 0
2, 6480, Note_on_c, 0, 76, 85
2, 6540, Note_on_c, 0, 76, 0
2, 6540, Note_on_c, 0, 69, 85
2, 6540, Note_on_c, 0, 66, 85
2, 6600, Note_on_c, 0, 66, 0
2, 6600, Note_on_c, 0, 69, 0
2, 6600, Note_on_c, 0, 71, 85
2, 6600, Note_on_c, 0, 67, 85
2, 6660, Note_on_c, 0, 67, 0
2, 6660, Note_on_c, 0, 71, 0
2, 6660, Note_on_c, 0, 69, 85
2, 6660, Note_on_c, 0, 72, 85
2, 6720, Note_on_c, 0, 72, 0
2, 6720, Note_on_c, 0, 69, 0
2, 6720, Note_on_c, 0, 71, 85
2, 6720, Note_on_c, 0, 67, 85
2, 6780, Note_on_c, 0, 78, 85
2, 6840, Note_on_c, 0, 78, 0
2, 6840, Note_on_c, 0, 79, 85
2, 6900, Note_on_c, 0, 79, 0
2, 6900, Note_on_c, 0, 75, 85
2, 6960, Note_on_c, 0, 75, 0
2, 6960, Note_on_c, 0, 67, 0
2, 6960, Note_on_c, 0, 71, 0
2, 6960, Note_on_c, 0, 73, 85
2, 6960, Note_on_c, 0, 70, 85
2, 6960, Note_on_c, 0, 64, 85
2, 6990, Note_on_c, 0, 64, 0
2, 6990, Note_on_c, 0, 70, 0
2, 6990, Note_on_c, 0, 73, 0
2, 6990, Note_on_c, 0, 76, 85
2, 6990, Note_on_c, 0, 67, 85
2, 7020, Note_on_c, 0, 67, 0
2, 7020, Note_on_c, 0, 76, 0
2, 7020, Note_on_c, 0, 73, 85
2, 7020, Note_on_c, 0, 70, 85
2, 7020, Note_on_c, 0, 64, 85
2, 7050, Note_on_c, 0, 64, 0
2, 7050, Note_on_c, 0, 70, 0
2, 7050, Note_on_c, 0, 73, 0
2, 7050, Note_on_c, 0, 76, 85
2, 7050, Note_on_c, 0, 67, 85
2, 7080, Note_on_c, 0, 67, 0
2, 7080, Note_on_c, 0, 76, 0
2, 7080, Note_on_c, 0, 73, 85
2, 7080, Note_on_c, 0, 70, 85
2, 7080, Note_on_c, 0, 64, 85
2, 7110, Note_on_c, 0, 64, 0
2, 7110, Note_on_c, 0, 70, 0
2, 7110, Note_on_c, 0, 73, 0
2, 7110, Note_on_c, 0, 76, 85
2, 7110, Note_on_c, 0, 67, 85
2, 7140, Note_on_c, 0, 67, 0
2, 7140, Note_on_c, 0, 76, 0
2, 7140, Note_on_c, 0, 73, 85
2, 7140, Note_on_c, 0, 70, 85
2, 7140, Note_on_c, 0, 64, 85
2, 7170, Note_on_c, 0, 64, 0
2, 7170, Note_on_c, 0, 70, 0
2, 7170, Note_on_c, 0, 73, 0
2, 7170, Note_on_c, 0, 76, 85
2, 7170, Note_on_c, 0, 67, 85
2, 7200, Note_on_c, 0, 67, 0
2, 7200, Note_on_c, 0, 76, 0
2, 7200, Note_on_c, 0, 75, 85
2, 7200, Note_on_c, 0, 71, 85
2, 7200, Note_on_c, 0, 66, 85
2, 7260, Note_on_c, 0, 66, 0
2, 7260, Note_on_c, 0, 71, 0
2, 7260, Note_on_c, 0, 75, 0
2, 7260, Note_on_c, 0, 59, 85
2, 7320, Note_on_c, 0, 59, 0
2, 7320, Note_on_c, 0, 63, 85
2, 7380, Note_on_c, 0, 63, 0
2, 7380, Note_on_c, 0, 66, 85
2, 7440, Note_on_c, 0, 66, 0
2, 7440, Note_on_c, 0, 75, 85
2, 7440, Note_on_c, 0, 71, 85
2, 7500, Note_on_c, 0, 71, 0
2, 7500, Note_on_c, 0, 75, 0
2, 7500, Note_on_c, 0, 78, 85
2, 7560, Note_on_c, 0, 78, 0
2, 7560, Note_on_c, 0, 83, 85
2, 7680, Note_on_c, 0, 83, 0
2, 8910, Note_on_c, 0, 76, 85
2, 8940, Note_on_c, 0, 76, 0
2, 8940, Note_on_c, 0, 74, 85
2, 8970, Note_on_c, 0, 74, 0
2, 8970, Note_on_c, 0, 72, 85
2, 9000, Note_on_c, 0, 72, 0
2, 9000, Note_on_c, 0, 71, 85
2, 9030, Note_on_c, 0, 71, 0
2, 9030, Note_on_c, 0, 69, 85
2, 9060, Note_on_c, 0, 69, 0
2, 9060, Note_on_c, 0, 68, 85
2, 9090, Note_on_c, 0, 68, 0
2, 9090, Note_on_c, 0, 66, 85
2, 9120, Note_on_c, 0, 66, 0
2, 9120, Note_on_c, 0, 64, 85
2, 9150, Note_on_c, 0, 66, 85
2, 9180, Note_on_c, 0, 66, 0
2, 9180, Note_on_c, 0, 68, 85
2, 9210, Note_on_c, 0, 68, 0
2, 9210, Note_on_c, 0, 69, 85
2, 9240, Note_on_c, 0, 69, 0
2, 9240, Note_on_c, 0, 71, 85
2, 9270, Note_on_c, 0, 71, 0
2, 9270, Note_on_c, 0, 72, 85
2, 9300, Note_on_c, 0, 72, 0
2, 9300, Note_on_c, 0, 74, 85
2, 9330, Note_on_c, 0, 74, 0
2, 9330, Note_on_c, 0, 76, 85
2, 9360, Note_on_c, 0, 76, 0
2, 9360, Note_on_c, 0, 64, 0
2, 9360, Note_on_c, 0, 74, 85
2, 9360, Note_on_c, 0, 71, 85
2, 9360, Note_on_c, 0, 68, 85
2, 9360, Note_on_c, 0, 64, 85
2, 9390, Note_on_c, 0, 68, 0
2, 9390, Note_on_c, 0, 74, 0
2, 9390, Note_on_c, 0, 71, 0
2, 9390, Note_on_c, 0, 76, 85
2, 9390, Note_on_c, 0, 71, 85
2, 9420, Note_on_c, 0, 71, 0
2, 9420, Note_on_c, 0, 76, 0
2, 9420, Note_on_c, 0, 64, 0
2, 9420, Note_on_c, 0, 74, 85
2, 9420, Note_on_c, 0, 71, 85
2, 9420, Note_on_c, 0, 68, 85
2, 9420, Note_on_c, 0, 64, 85
2, 9450, Note_on_c, 0, 68, 0
2, 9450, Note_on_c, 0, 74, 0
2, 9450, Note_on_c, 0, 71, 0
2, 9450, Note_on_c, 0, 76, 85
2, 9450, Note_on_c, 0, 71, 85
2, 9480, Note_on_c, 0, 71, 0
2, 9480, Note_on_c, 0, 76, 0
2, 9480, Note_on_c, 0, 64, 0
2, 9480, Note_on_c, 0, 74, 85
2, 9480, Note_on_c, 0, 71, 85
2, 9480, Note_on_c, 0, 68, 85
2, 9480, Note_on_c, 0, 64, 85
2, 9510, Note_on_c, 0, 68, 0
2, 9510, Note_on_c, 0, 74, 0
2, 9510, Note_on_c, 0, 71, 0
2, 9510, Note_on_c, 0, 76, 85
2, 9510, Note_on_c, 0, 71, 85
2, 9540, Note_on_c, 0, 71, 0
2, 9540, Note_on_c, 0, 76, 0
2, 9540, Note_on_c, 0, 64, 0
2, 9540, Note_on_c, 0, 64, 85
2, 9540, Note_on_c, 0, 74, 85
2, 9540, Note_on_c, 0, 71, 85
2, 9540, Note_on_c, 0, 68, 85
2, 9570, Note_on_c, 0, 68, 0
2, 9570, Note_on_c, 0, 71, 0
2, 9570, Note_on_c, 0, 74, 0
2, 9570, Note_on_c, 0, 71, 85
2, 9570, Note_on_c, 0, 76, 85
2, 9600, Note_on_c, 0, 76, 0
2, 9600, Note_on_c, 0, 71, 0
2, 9600, Note_on_c, 0, 64, 0
2, 9660, Note_on_c, 0, 68, 85
2, 9720, Note_on_c, 0, 68, 0
2, 9720, Note_on_c, 0, 69, 85
2, 9780, Note_on_c, 0, 69, 0
2, 9780, Note_on_c, 0, 71, 85
2, 9840, Note_on_c, 0, 71, 0
2, 9840, Note_on_c, 0, 69, 85
2, 9870, Note_on_c, 0, 69, 0
2, 9870, Note_on_c, 0, 71, 85
2, 9900, Note_on_c, 0, 71, 0
2, 9900, Note_on_c, 0, 69, 85
2, 10020, Note_on_c, 0, 69, 0
2, 10020, Note_on_c, 0, 68, 85
2, 10080, Note_on_c, 0, 68, 0
2, 10080, Note_on_c, 0, 72, 85
2, 10080, Note_on_c, 0, 69, 85
2, 10080, Note_on_c, 0, 64, 85
2, 10320, Note_on_c, 0, 64, 0
2, 10320, Note_on_c, 0, 69, 0
2, 10320, Note_on_c, 0, 72, 0
2, 10440, Note_on_c, 0, 64, 85
2, 10440, Note_on_c, 0, 69, 85
2, 10440, Note_on_c, 0, 72, 85
2, 10560, Note_on_c, 0, 72, 0
2, 10560, Note_on_c, 0, 69, 0
2, 10560, Note_on_c, 0, 64, 0
2, 10560, Note_on_c, 0, 71, 85
2, 10560, Note_on_c, 0, 66, 85
2, 10560, Note_on_c, 0, 63, 85
2, 10800, Note_on_c, 0, 63, 0
2, 10800, Note_on_c, 0, 66, 0
2, 10800, Note_on_c, 0, 71, 0
2, 10920, Note_on_c, 0, 71, 85
2, 10920, Note_on_c, 0, 67, 85
2, 10920, Note_on_c, 0, 64, 85
2, 11040, Note_on_c, 0, 64, 0
2, 11040, Note_on_c, 0, 67, 0
2, 11040, Note_on_c, 0, 71, 0
2, 11040, Note_on_c, 0, 69, 85
2, 11040, Note_on_c, 0, 64, 85
2, 11040, Note_on_c, 0, 61, 85
2, 11280, Note_on_c, 0, 61, 0
2, 11280, Note_on_c, 0, 64, 0
2, 11280, Note_on_c, 0, 69, 0
2, 11400, Note_on_c, 0, 63, 85
2, 11400, Note_on_c, 0, 69, 85
2, 11520, Note_on_c, 0, 69, 0
2, 11520, Note_on_c, 0, 63, 0
2, 11520, Note_on_c, 0, 67, 85
2, 11520, Note_on_c, 0, 64, 85
2, 11760, Note_on_c, 0, 64, 0
2, 11760, Note_on_c, 0, 67, 0
2, 11880, Note_on_c, 0, 72, 85
2, 11880, Note_on_c, 0, 67, 85
2, 12000, Note_on_c, 0, 67, 0
2, 12000, Note_on_c, 0, 72, 0
2, 12000, Note_on_c, 0, 66, 85
2, 12000, Note_on_c, 0, 60, 85
2, 12240, Note_on_c, 0, 60, 0
2, 12240, Note_on_c, 0, 66, 0
2, 12240, Note_on_c, 0, 66, 85
2, 12240, Note_on_c, 0, 71, 85
2, 12480, Note_on_c, 0, 66, 0
2, 12480, Note_on_c, 0, 64, 85
2, 12600, Note_on_c, 0, 71, 0
2, 12600, Note_on_c, 0, 64, 85
2, 12720, Note_on_c, 0, 64, 0
2, 12720, Note_on_c, 0, 64, 0
2, 12720, Note_on_c, 0, 69, 85
2, 12840, Note_on_c, 0, 64, 85
2, 12960, Note_on_c, 0, 64, 0
2, 12960, Note_on_c, 0, 63, 85
2, 13080, Note_on_c, 0, 69, 0
2, 13080, Note_on_c, 0, 63, 85
2, 13200, Note_on_c, 0, 63, 0
2, 13200, Note_on_c, 0, 63, 0
2, 13200, Note_on_c, 0, 64, 85
2, 13200, Note_on_c, 0, 67, 85
2, 13440, Note_on_c, 0, 64, 0
2, 13440, Note_on_c, 0, 60, 85
2, 13560, Note_on_c, 0, 67, 0
2, 13560, Note_on_c, 0, 60, 85
2, 13680, Note_on_c, 0, 60, 0
2, 13680, Note_on_c, 0, 60, 0
2, 13680, Note_on_c, 0, 66, 85
2, 13800, Note_on_c, 0, 62, 85
2, 13920, Note_on_c, 0, 62, 0
2, 13920, Note_on_c, 0, 60, 85
2, 14040, Note_on_c, 0, 66, 0
2, 14040, Note_on_c, 0, 64, 85
2, 14160, Note_on_c, 0, 64, 0
2, 14160, Note_on_c, 0, 60, 0
2, 14160, Note_on_c, 0, 69, 85
2, 14280, Note_on_c, 0, 60, 85
2, 14400, Note_on_c, 0, 60, 0
2, 14400, Note_on_c, 0, 62, 85
2, 14520, Note_on_c, 0, 69, 0
2, 14520, Note_on_c, 0, 62, 85
2, 14640, Note_on_c, 0, 62, 0
2, 14640, Note_on_c, 0, 62, 0
2, 14640, Note_on_c, 0, 67, 85
2, 14760, Note_on_c, 0, 64, 85
2, 14880, Note_on_c, 0, 64, 0
2, 14880, Note_on_c, 0, 62, 85
2, 15000, Note_on_c, 0, 67, 0
2, 15000, Note_on_c, 0, 66, 85
2, 15120, Note_on_c, 0, 66, 0
2, 15120, Note_on_c, 0, 62, 0
2, 15120, Note_on_c, 0, 71, 85
2, 15240, Note_on_c, 0, 62, 85
2, 15360, Note_on_c, 0, 62, 0
2, 15360, Note_on_c, 0, 64, 85
2, 15480, Note_on_c, 0, 71, 0
2, 15480, Note_on_c, 0, 64, 85
2, 15600, Note_on_c, 0, 64, 0
2, 15600, Note_on_c, 0, 64, 0
2, 15600, Note_on_c, 0, 69, 85
2, 15720, Note_on_c, 0, 66, 85
2, 15840, Note_on_c, 0, 66, 0
2, 15840, Note_on_c, 0, 64, 85
2, 15960, Note_on_c, 0, 69, 0
2, 15960, Note_on_c, 0, 67, 85
2, 16080, Note_on_c, 0, 67, 0
2, 16080, Note_on_c, 0, 64, 0
2, 16080, Note_on_c, 0, 72, 85
2, 16140, Note_on_c, 0, 67, 85
2, 16200, Note_on_c, 0, 67, 0
2, 16200, Note_on_c, 0, 72, 0
2, 16200, Note_on_c, 0, 71, 85
2, 16260, Note_on_c, 0, 67, 85
2, 16320, Note_on_c, 0, 67, 0
2, 16320, Note_on_c, 0, 71, 0
2, 16320, Note_on_c, 0, 70, 85
2, 16320, Note_on_c, 0, 66, 85
2, 16560, Note_on_c, 0, 66, 0
2, 16560, Note_on_c, 0, 70, 0
2, 16560, Note_on_c, 0, 71, 85
2, 16680, Note_on_c, 0, 68, 85
2, 16800, Note_on_c, 0, 68, 0
2, 16800, Note_on_c, 0, 71, 0
2, 16800, Note_on_c, 0, 71, 85
2, 16920, Note_on_c, 0, 68, 85
2, 17040, Note_on_c, 0, 68, 0
2, 17040, Note_on_c, 0, 71, 0
2, 17040, Note_on_c, 0, 71, 85
2, 17160, Note_on_c, 0, 68, 85
2, 17280, Note_on_c, 0, 68, 0
2, 17280, Note_on_c, 0, 71, 0
2, 17280, Note_on_c, 0, 70, 85
2, 17280, Note_on_c, 0, 66, 85
2, 17520, Note_on_c, 0, 66, 0
2, 17520, Note_on_c, 0, 70, 0
2, 17520, Note_on_c, 0, 67, 85
2, 17640, Note_on_c, 0, 73, 85
2, 17760, Note_on_c, 0, 73, 0
2, 17760, Note_on_c, 0, 67, 0
2, 17760, Note_on_c, 0, 67, 85
2, 17880, Note_on_c, 0, 73, 85
2, 18000, Note_on_c, 0, 73, 0
2, 18000, Note_on_c, 0, 67, 0
2, 18000, Note_on_c, 0, 66, 85
2, 18120, Note_on_c, 0, 73, 85
2, 18240, Note_on_c, 0, 73, 0
2, 18240, Note_on_c, 0, 66, 0
2, 18240, Note_on_c, 0, 74, 85
2, 18240, Note_on_c, 0, 66, 85
2, 18480, Note_on_c, 0, 66, 0
2, 18480, Note_on_c, 0, 74, 0
2, 18480, Note_on_c, 0, 72, 85
2, 18600, Note_on_c, 0, 75, 85
2, 18720, Note_on_c, 0, 75, 0
2, 18720, Note_on_c, 0, 72, 0
2, 18720, Note_on_c, 0, 72, 85
2, 18840, Note_on_c, 0, 75, 85
2, 18960, Note_on_c, 0, 75, 0
2, 18960, Note_on_c, 0, 72, 0
2, 18960, Note_on_c, 0, 71, 85
2, 19080, Note_on_c, 0, 75, 85
2, 19200, Note_on_c, 0, 75, 0
2, 19200, Note_on_c, 0, 71, 0
2, 19200, Note_on_c, 0, 76, 85
2, 19200, Note_on_c, 0, 71, 85
2, 19440, Note_on_c, 0, 71, 0
2, 19440, Note_on_c, 0, 76, 0
2, 19560, Note_on_c, 0, 74, 85
2, 19560, Note_on_c, 0, 71, 85
2, 19680, Note_on_c, 0, 71, 0
2, 19680, Note_on_c, 0, 74, 0
2, 19800, Note_on_c, 0, 74, 85
2, 19800, Note_on_c, 0, 71, 85
2, 19920, Note_on_c, 0, 71, 0
2, 19920, Note_on_c, 0, 74, 0
2, 20040, Note_on_c, 0, 71, 85
2, 20040, Note_on_c, 0, 74, 85
2, 20160, Note_on_c, 0, 74, 0
2, 20160, Note_on_c, 0, 71, 0
2, 20160, Note_on_c, 0, 72, 85
2, 20160, Note_on_c, 0, 69, 85
2, 20400, Note_on_c, 0, 69, 0
2, 20400, Note_on_c, 0, 72, 0
2, 20520, Note_on_c, 0, 78, 85
2, 20520, Note_on_c, 0, 69, 85
2, 20640, Note_on_c, 0, 69, 0
2, 20640, Note_on_c, 0, 78, 0
2, 20760, Note_on_c, 0, 78, 85
2, 20760, Note_on_c, 0, 69, 85
2, 20880, Note_on_c, 0, 69, 0
2, 20880, Note_on_c, 0, 78, 0
2, 21000, Note_on_c, 0, 69, 85
2, 21000, Note_on_c, 0, 78, 85
2, 21120, Note_on_c, 0, 78, 0
2, 21120, Note_on_c, 0, 69, 0
2, 21120, Note_on_c, 0, 71, 85
2, 21120, Note_on_c, 0, 67, 85
2, 21360, Note_on_c, 0, 67, 0
2, 21360, Note_on_c, 0, 71, 0
2, 21960, Note_on_c, 0, 69, 85
2, 21960, Note_on_c, 0, 75, 85
2, 22080, Note_on_c, 0, 75, 0
2, 22080, Note_on_c, 0, 69, 0
2, 22080, Note_on_c, 0, 76, 85
2, 22080, Note_on_c, 0, 67, 85
2, 22320, Note_on_c, 0, 67, 0
2, 22320, Note_on_c, 0, 76, 0
2, 22440, Note_on_c, 0, 74, 85
2, 22440, Note_on_c, 0, 71, 85
2, 22560, Note_on_c, 0, 71, 0
2, 22560, Note_on_c, 0, 74, 0
2, 22680, Note_on_c, 0, 74, 85
2, 22680, Note_on_c, 0, 71, 85
2, 22800, Note_on_c, 0, 71, 0
2, 22800, Note_on_c, 0, 74, 0
2, 22920, Note_on_c, 0, 71, 85
2, 22920, Note_on_c, 0, 74, 85
2, 23040, Note_on_c, 0, 74, 0
2, 23040, Note_on_c, 0, 71, 0
2, 23040, Note_on_c, 0, 72, 85
2, 23040, Note_on_c, 0, 69, 85
2, 23280, Note_on_c, 0, 69, 0
2, 23280, Note_on_c, 0, 72, 0
2, 23880, Note_on_c, 0, 74, 85
2, 23880, Note_on_c, 0, 76, 85
2, 23880, Note_on_c, 0, 80, 85
2, 24000, Note_on_c, 0, 80, 0
2, 24000, Note_on_c, 0, 76, 0
2, 24000, Note_on_c, 0, 74, 0
2, 24000, Note_on_c, 0, 81, 85
2, 24000, Note_on_c, 0, 76, 85
2, 24000, Note_on_c, 0, 72, 85
2, 24240, Note_on_c, 0, 72, 0
2, 24240, Note_on_c, 0, 76, 0
2, 24240, Note_on_c, 0, 81, 0
2, 24360, Note_on_c, 0, 81, 85
2, 24360, Note_on_c, 0, 78, 85
2, 24360, Note_on_c, 0, 72, 85
2, 24480, Note_on_c, 0, 72, 0
2, 24480, Note_on_c, 0, 78, 0
2, 24480, Note_on_c, 0, 81, 0
2, 24600, Note_on_c, 0, 81, 85
2, 24600, Note_on_c, 0, 78, 85
2, 24600, Note_on_c, 0, 72, 85
2, 24720, Note_on_c, 0, 72, 0
2, 24720, Note_on_c, 0, 78, 0
2, 24720, Note_on_c, 0, 81, 0
2, 24840, Note_on_c, 0, 71, 85
2, 24840, Note_on_c, 0, 78, 85
2, 24840, Note_on_c, 0, 81, 85
2, 24960, Note_on_c, 0, 81, 0
2, 24960, Note_on_c, 0, 78, 0
2, 24960, Note_on_c, 0, 71, 0
2, 24960, Note_on_c, 0, 79, 85
2, 24960, Note_on_c, 0, 76, 85
2, 24960, Note_on_c, 0, 71, 85
2, 25200, Note_on_c, 0, 71, 0
2, 25200, Note_on_c, 0, 76, 0
2, 25200, Note_on_c, 0, 79, 0
2, 25800, Note_on_c, 0, 63, 85
2, 25800, Note_on_c, 0, 66, 85
2, 25800, Note_on_c, 0, 71, 85
2, 25920, Note_on_c, 0, 71, 0
2, 25920, Note_on_c, 0, 66, 0
2, 25920, Note_on_c, 0, 63, 0
2, 25920, Note_on_c, 0, 71, 85
2, 26040, Note_on_c, 0, 71, 0
2, 26040, Note_on_c, 0, 69, 85
2, 26160, Note_on_c, 0, 69, 0
2, 26460, Note_on_c, 0, 76, 85
2, 26520, Note_on_c, 0, 76, 0
2, 26520, Note_on_c, 0, 70, 85
2, 26640, Note_on_c, 0, 70, 0
2, 26640, Note_on_c, 0, 73, 85
2, 26670, Note_on_c, 0, 73, 0
2, 26670, Note_on_c, 0, 76, 85
2, 26700, Note_on_c, 0, 76, 0
2, 26700, Note_on_c, 0, 73, 85
2, 26730, Note_on_c, 0, 73, 0
2, 26730, Note_on_c, 0, 76, 85
2, 26760, Note_on_c, 0, 76, 0
2, 26760, Note_on_c, 0, 73, 85
2, 26790, Note_on_c, 0, 73, 0
2, 26790, Note_on_c, 0, 76, 85
2, 26820, Note_on_c, 0, 76, 0
2, 26820, Note_on_c, 0, 73, 85
2, 26850, Note_on_c, 0, 73, 0
2, 26850, Note_on_c, 0, 76, 85
2, 26880, Note_on_c, 0, 76, 0
2, 26880, Note_on_c, 0, 75, 85
2, 26880, Note_on_c, 0, 71, 85
2, 26880, Note_on_c, 0, 66, 85
2, 27120, Note_on_c, 0, 66, 0
2, 27120, Note_on_c, 0, 71, 0
2, 27120, Note_on_c, 0, 75, 0
2, 27720, Note_on_c, 0, 64, 85
2, 27720, Note_on_c, 0, 68, 85
2, 27720, Note_on_c, 0, 74, 85
2, 27840, Note_on_c, 0, 74, 0
2, 27840, Note_on_c, 0, 68, 0
2, 27840, Note_on_c, 0, 64, 0
2, 27840, Note_on_c, 0, 72, 85
2, 27840, Note_on_c, 0, 69, 85
2, 27840, Note_on_c, 0, 64, 85
2, 28080, Note_on_c, 0, 64, 0
2, 28080, Note_on_c, 0, 69, 0
2, 28080, Note_on_c, 0, 72, 0
2, 28080, Note_on_c, 0, 78, 85
2, 28080, Note_on_c, 0, 69, 85
2, 28140, Note_on_c, 0, 69, 0
2, 28140, Note_on_c, 0, 78, 0
2, 28140, Note_on_c, 0, 79, 85
2, 28140, Note_on_c, 0, 71, 85
2, 28200, Note_on_c, 0, 71, 0
2, 28200, Note_on_c, 0, 79, 0
2, 28200, Note_on_c, 0, 76, 85
2, 28200, Note_on_c, 0, 67, 85
2, 28260, Note_on_c, 0, 67, 0
2, 28260, Note_on_c, 0, 76, 0
2, 28260, Note_on_c, 0, 78, 85
2, 28260, Note_on_c, 0, 69, 85
2, 28320, Note_on_c, 0, 69, 0
2, 28320, Note_on_c, 0, 78, 0
2, 28320, Note_on_c, 0, 75, 85
2, 28320, Note_on_c, 0, 66, 85
2, 28380, Note_on_c, 0, 66, 0
2, 28380, Note_on_c, 0, 75, 0
2, 28380, Note_on_c, 0, 76, 85
2, 28380, Note_on_c, 0, 67, 85
2, 28440, Note_on_c, 0, 67, 0
2, 28440, Note_on_c, 0, 76, 0
2, 28440, Note_on_c, 0, 73, 85
2, 28440, Note_on_c, 0, 64, 85
2, 28500, Note_on_c, 0, 64, 0
2, 28500, Note_on_c, 0, 73, 0
2, 28500, Note_on_c, 0, 76, 85
2, 28500, Note_on_c, 0, 67, 85
2, 28560, Note_on_c, 0, 67, 0
2, 28560, Note_on_c, 0, 76, 0
2, 28560, Note_on_c, 0, 75, 85
2, 28560, Note_on_c, 0, 66, 85
2, 28680, Note_on_c, 0, 66, 0
2, 28680, Note_on_c, 0, 75, 0
2, 28680, Note_on_c, 0, 59, 85
2, 28680, Note_on_c, 0, 66, 85
2, 28680, Note_on_c, 0, 69, 85
2, 28680, Note_on_c, 0, 75, 85
2, 28680, Note_on_c, 0, 71, 85
2, 28800, Note_on_c, 0, 71, 0
2, 28800, Note_on_c, 0, 69, 0
2, 28800, Note_on_c, 0, 59, 0
2, 28800, Note_on_c, 0, 66, 0
2, 28800, Note_on_c, 0, 75, 0
2, 28800, Note_on_c, 0, 76, 85
2, 28800, Note_on_c, 0, 71, 85
2, 28800, Note_on_c, 0, 67, 85
2, 28800, Note_on_c, 0, 64, 85
2, 28800, Note_on_c, 0, 59, 85
2, 29040, Note_on_c, 0, 59, 0
2, 29040, Note_on_c, 0, 67, 0
2, 29040, Note_on_c, 0, 76, 0
2, 29040, Note_on_c, 0, 71, 0
2, 29040, Note_on_c, 0, 64, 0
2, 29640, Note_on_c, 0, 59, 85
2, 29640, Note_on_c, 0, 66, 85
2, 29640, Note_on_c, 0, 69, 85
2, 29640, Note_on_c, 0, 71, 85
2, 29640, Note_on_c, 0, 75, 85
2, 29760, Note_on_c, 0, 75, 0
2, 29760, Note_on_c, 0, 69, 0
2, 29760, Note_on_c, 0, 59, 0
2, 29760, Note_on_c, 0, 66, 0
2, 29760, Note_on_c, 0, 71, 0
2, 29760, Note_on_c, 0, 76, 85
2, 29760, Note_on_c, 0, 71, 85
2, 29760, Note_on_c, 0, 67, 85
2, 30000, Note_on_c, 0, 67, 0
2, 30000, Note_on_c, 0, 71, 0
2, 30000, Note_on_c, 0, 76, 0
2, 30120, Note_on_c, 0, 63, 85
2, 30240, Note_on_c, 0, 63, 0
2, 30240, Note_on_c, 0, 64, 85
2, 30720, Note_on_c, 0, 64, 0
2, 37080, Note_on_c, 0, 71, 85
2, 37176, Note_on_c, 0, 71, 0
2, 37200, Note_on_c, 0, 71, 85
2, 37230, Note_on_c, 0, 71, 0
2, 37230, Note_on_c, 0, 70, 85
2, 37260, Note_on_c, 0, 70, 0
2, 37260, Note_on_c, 0, 71, 85
2, 37440, Note_on_c, 0, 71, 0
2, 37560, Note_on_c, 0, 71, 85
2, 37656, Note_on_c, 0, 71, 0
2, 37680, Note_on_c, 0, 71, 85
2, 37710, Note_on_c, 0, 71, 0
2, 37710, Note_on_c, 0, 70, 85
2, 37740, Note_on_c, 0, 70, 0
2, 37740, Note_on_c, 0, 71, 85
2, 37920, Note_on_c, 0, 71, 0
2, 38040, Note_on_c, 0, 71, 85
2, 38160, Note_on_c, 0, 71, 0
2, 38160, Note_on_c, 0, 64, 85
2, 38280, Note_on_c, 0, 64, 0
2, 38280, Note_on_c, 0, 66, 85
2, 38400, Note_on_c, 0, 66, 0
2, 38400, Note_on_c, 0, 67, 85
2, 38520, Note_on_c, 0, 67, 0
2, 38520, Note_on_c, 0, 71, 85
2, 38640, Note_on_c, 0, 71, 0
2, 38640, Note_on_c, 0, 64, 85
2, 38760, Note_on_c, 0, 64, 0
2, 38760, Note_on_c, 0, 66, 85
2, 38880, Note_on_c, 0, 66, 0
2, 38880, Note_on_c, 0, 67, 85
2, 39120, Note_on_c, 0, 67, 0
2, 39120, Note_on_c, 0, 72, 85
2, 39240, Note_on_c, 0, 72, 0
2, 39240, Note_on_c, 0, 71, 85
2, 39360, Note_on_c, 0, 71, 0
2, 39360, Note_on_c, 0, 69, 85
2, 39480, Note_on_c, 0, 69, 0
2, 39480, Note_on_c, 0, 67, 85
2, 39600, Note_on_c, 0, 67, 0
2, 39600, Note_on_c, 0, 66, 85
2, 39720, Note_on_c, 0, 66, 0
2, 39720, Note_on_c, 0, 64, 85
2, 39840, Note_on_c, 0, 64, 0
2, 39840, Note_on_c, 0, 63, 85
2, 40080, Note_on_c, 0, 63, 0
2, 40140, Note_on_c, 0, 63, 85
2, 40200, Note_on_c, 0, 63, 0
2, 40200, Note_on_c, 0, 64, 85
2, 40260, Note_on_c, 0, 64, 0
2, 40260, Note_on_c, 0, 66, 85
2, 40320, Note_on_c, 0, 66, 0
2, 40320, Note_on_c, 0, 67, 85
2, 40440, Note_on_c, 0, 64, 85
2, 40536, Note_on_c, 0, 64, 0
2, 40560, Note_on_c, 0, 67, 0
2, 40560, Note_on_c, 0, 64, 85
2, 40590, Note_on_c, 0, 64, 0
2, 40590, Note_on_c, 0, 63, 85
2, 40620, Note_on_c, 0, 63, 0
2, 40620, Note_on_c, 0, 64, 85
2, 40680, Note_on_c, 0, 72, 85
2, 40800, Note_on_c, 0, 72, 0
2, 40800, Note_on_c, 0, 64, 0
2, 40800, Note_on_c, 0, 71, 85
2, 40920, Note_on_c, 0, 64, 85
2, 41016, Note_on_c, 0, 64, 0
2, 41040, Note_on_c, 0, 71, 0
2, 41040, Note_on_c, 0, 64, 85
2, 41070, Note_on_c, 0, 64, 0
2, 41070, Note_on_c, 0, 63, 85
2, 41100, Note_on_c, 0, 63, 0
2, 41100, Note_on_c, 0, 64, 85
2, 41160, Note_on_c, 0, 69, 85
2, 41280, Note_on_c, 0, 69, 0
2, 41280, Note_on_c, 0, 64, 0
2, 41280, Note_on_c, 0, 67, 85
2, 41400, Note_on_c, 0, 64, 85
2, 41520, Note_on_c, 0, 64, 0
2, 41520, Note_on_c, 0, 67, 0
2, 41520, Note_on_c, 0, 59, 85
2, 41640, Note_on_c, 0, 59, 0
2, 41640, Note_on_c, 0, 70, 85
2, 41640, Note_on_c, 0, 61, 85
2, 41760, Note_on_c, 0, 61, 0
2, 41760, Note_on_c, 0, 70, 0
2, 41760, Note_on_c, 0, 71, 85
2, 41760, Note_on_c, 0, 62, 85
2, 41880, Note_on_c, 0, 62, 0
2, 41880, Note_on_c, 0, 66, 85
2, 42000, Note_on_c, 0, 66, 0
2, 42000, Note_on_c, 0, 71, 0
2, 42000, Note_on_c, 0, 59, 85
2, 42120, Note_on_c, 0, 59, 0
2, 42120, Note_on_c, 0, 61, 85
2, 42120, Note_on_c, 0, 70, 85
2, 42240, Note_on_c, 0, 70, 0
2, 42240, Note_on_c, 0, 61, 0
2, 42240, Note_on_c, 0, 71, 85
2, 42240, Note_on_c, 0, 62, 85
2, 42300, Note_on_c, 0, 71, 0
2, 42300, Note_on_c, 0, 70, 85
2, 42360, Note_on_c, 0, 70, 0
2, 42360, Note_on_c, 0, 62, 0
2, 42360, Note_on_c, 0, 71, 85
2, 42360, Note_on_c, 0, 61, 85
2, 42420, Note_on_c, 0, 71, 0
2, 42420, Note_on_c, 0, 73, 85
2, 42480, Note_on_c, 0, 73, 0
2, 42480, Note_on_c, 0, 61, 0
2, 42480, Note_on_c, 0, 70, 85
2, 42480, Note_on_c, 0, 61, 85
2, 42510, Note_on_c, 0, 70, 0
2, 42510, Note_on_c, 0, 71, 85
2, 42540, Note_on_c, 0, 71, 0
2, 42540, Note_on_c, 0, 70, 85
2, 42600, Note_on_c, 0, 61, 0
2, 42600, Note_on_c, 0, 66, 85
2, 42660, Note_on_c, 0, 66, 0
2, 42660, Note_on_c, 0, 70, 0
2, 42660, Note_on_c, 0, 71, 85
2, 42660, Note_on_c, 0, 61, 85
2, 42720, Note_on_c, 0, 61, 0
2, 42720, Note_on_c, 0, 71, 0
2, 42720, Note_on_c, 0, 71, 85
2, 42720, Note_on_c, 0, 62, 85
2, 42840, Note_on_c, 0, 62, 0
2, 42840, Note_on_c, 0, 71, 0
2, 42840, Note_on_c, 0, 78, 85
2, 42840, Note_on_c, 0, 58, 85
2, 42900, Note_on_c, 0, 78, 0
2, 42900, Note_on_c, 0, 73, 85
2, 42960, Note_on_c, 0, 73, 0
2, 42960, Note_on_c, 0, 58, 0
2, 42960, Note_on_c, 0, 74, 85
2, 42960, Note_on_c, 0, 59, 85
2, 43080, Note_on_c, 0, 59, 0
2, 43080, Note_on_c, 0, 74, 0
2, 43080, Note_on_c, 0, 70, 85
2, 43080, Note_on_c, 0, 66, 85
2, 43140, Note_on_c, 0, 66, 0
2, 43140, Note_on_c, 0, 61, 85
2, 43200, Note_on_c, 0, 61, 0
2, 43200, Note_on_c, 0, 70, 0
2, 43200, Note_on_c, 0, 71, 85
2, 43200, Note_on_c, 0, 62, 85
2, 43320, Note_on_c, 0, 62, 0
2, 43320, Note_on_c, 0, 71, 0
2, 43320, Note_on_c, 0, 78, 85
2, 43320, Note_on_c, 0, 57, 85
2, 43380, Note_on_c, 0, 78, 0
2, 43380, Note_on_c, 0, 73, 85
2, 43440, Note_on_c, 0, 73, 0
2, 43440, Note_on_c, 0, 57, 0
2, 43440, Note_on_c, 0, 74, 85
2, 43440, Note_on_c, 0, 59, 85
2, 43560, Note_on_c, 0, 59, 0
2, 43560, Note_on_c, 0, 74, 0
2, 43560, Note_on_c, 0, 70, 85
2, 43560, Note_on_c, 0, 66, 85
2, 43620, Note_on_c, 0, 66, 0
2, 43620, Note_on_c, 0, 61, 85
2, 43680, Note_on_c, 0, 61, 0
2, 43680, Note_on_c, 0, 70, 0
2, 43680, Note_on_c, 0, 71, 85
2, 43680, Note_on_c, 0, 62, 85
2, 43920, Note_on_c, 0, 62, 0
2, 43920, Note_on_c, 0, 71, 0
2, 44040, Note_on_c, 0, 70, 85
2, 44040, Note_on_c, 0, 76, 85
2, 44160, Note_on_c, 0, 76, 0
2, 44160, Note_on_c, 0, 70, 0
2, 44160, Note_on_c, 0, 78, 85
2, 44160, Note_on_c, 0, 71, 85
2, 44280, Note_on_c, 0, 71, 0
2, 44280, Note_on_c, 0, 78, 0
2, 44280, Note_on_c, 0, 73, 85
2, 44280, Note_on_c, 0, 70, 85
2, 44400, Note_on_c, 0, 70, 0
2, 44400, Note_on_c, 0, 73, 0
2, 44400, Note_on_c, 0, 74, 85
2, 44400, Note_on_c, 0, 71, 85
2, 44520, Note_on_c, 0, 74, 0
2, 44520, Note_on_c, 0, 76, 85
2, 44640, Note_on_c, 0, 76, 0
2, 44640, Note_on_c, 0, 78, 85
2, 44760, Note_on_c, 0, 78, 0
2, 44760, Note_on_c, 0, 79, 85
2, 44820, Note_on_c, 0, 79, 0
2, 44820, Note_on_c, 0, 73, 85
2, 44880, Note_on_c, 0, 73, 0
2, 44880, Note_on_c, 0, 74, 85
2, 45000, Note_on_c, 0, 74, 0
2, 45000, Note_on_c, 0, 71, 0
2, 45000, Note_on_c, 0, 73, 85
2, 45000, Note_on_c, 0, 70, 85
2, 45060, Note_on_c, 0, 70, 0
2, 45060, Note_on_c, 0, 73, 0
2, 45060, Note_on_c, 0, 71, 85
2, 45060, Note_on_c, 0, 71, 85
2, 45120, Note_on_c, 0, 71, 0
2, 45120, Note_on_c, 0, 71, 0
2, 45120, Note_on_c, 0, 71, 85
2, 45120, Note_on_c, 0, 71, 85
2, 45180, Note_on_c, 0, 71, 0
2, 45180, Note_on_c, 0, 72, 85
2, 45240, Note_on_c, 0, 72, 0
2, 45240, Note_on_c, 0, 71, 0
2, 45240, Note_on_c, 0, 71, 85
2, 45240, Note_on_c, 0, 59, 85
2, 45300, Note_on_c, 0, 71, 0
2, 45300, Note_on_c, 0, 69, 85
2, 45360, Note_on_c, 0, 69, 0
2, 45360, Note_on_c, 0, 59, 0
2, 45360, Note_on_c, 0, 67, 85
2, 45360, Note_on_c, 0, 64, 85
2, 45420, Note_on_c, 0, 67, 0
2, 45420, Note_on_c, 0, 69, 85
2, 45480, Note_on_c, 0, 69, 0
2, 45480, Note_on_c, 0, 64, 0
2, 45480, Note_on_c, 0, 66, 85
2, 45480, Note_on_c, 0, 62, 85
2, 45540, Note_on_c, 0, 66, 0
2, 45540, Note_on_c, 0, 67, 85
2, 45600, Note_on_c, 0, 67, 0
2, 45600, Note_on_c, 0, 62, 0
2, 45600, Note_on_c, 0, 69, 85
2, 45600, Note_on_c, 0, 61, 85
2, 45660, Note_on_c, 0, 69, 0
2, 45660, Note_on_c, 0, 71, 85
2, 45720, Note_on_c, 0, 71, 0
2, 45720, Note_on_c, 0, 61, 0
2, 45720, Note_on_c, 0, 69, 85
2, 45720, Note_on_c, 0, 57, 85
2, 45780, Note_on_c, 0, 69, 0
2, 45780, Note_on_c, 0, 67, 85
2, 45840, Note_on_c, 0, 67, 0
2, 45840, Note_on_c, 0, 57, 0
2, 45840, Note_on_c, 0, 66, 85
2, 45840, Note_on_c, 0, 62, 85
2, 45900, Note_on_c, 0, 66, 0
2, 45900, Note_on_c, 0, 67, 85
2, 45960, Note_on_c, 0, 67, 0
2, 45960, Note_on_c, 0, 62, 0
2, 45960, Note_on_c, 0, 60, 85
2, 45960, Note_on_c, 0, 64, 85
2, 46020, Note_on_c, 0, 64, 0
2, 46020, Note_on_c, 0, 66, 85
2, 46080, Note_on_c, 0, 66, 0
2, 46080, Note_on_c, 0, 60, 0
2, 46080, Note_on_c, 0, 67, 85
2, 46080, Note_on_c, 0, 59, 85
2, 46200, Note_on_c, 0, 59, 0
2, 46200, Note_on_c, 0, 67, 0
2, 46200, Note_on_c, 0, 74, 85
2, 46200, Note_on_c, 0, 54, 85
2, 46260, Note_on_c, 0, 74, 0
2, 46260, Note_on_c, 0, 69, 85
2, 46320, Note_on_c, 0, 69, 0
2, 46320, Note_on_c, 0, 54, 0
2, 46320, Note_on_c, 0, 71, 85
2, 46320, Note_on_c, 0, 55, 85
2, 46440, Note_on_c, 0, 55, 0
2, 46440, Note_on_c, 0, 71, 0
2, 46440, Note_on_c, 0, 76, 85
2, 46440, Note_on_c, 0, 55, 85
2, 46500, Note_on_c, 0, 76, 0
2, 46500, Note_on_c, 0, 71, 85
2, 46560, Note_on_c, 0, 71, 0
2, 46560, Note_on_c, 0, 55, 0
2, 46560, Note_on_c, 0, 73, 85
2, 46560, Note_on_c, 0, 57, 85
2, 46680, Note_on_c, 0, 57, 0
2, 46680, Note_on_c, 0, 73, 0
2, 46680, Note_on_c, 0, 78, 85
2, 46680, Note_on_c, 0, 57, 85
2, 46740, Note_on_c, 0, 78, 0
2, 46740, Note_on_c, 0, 73, 85
2, 46800, Note_on_c, 0, 73, 0
2, 46800, Note_on_c, 0, 57, 0
2, 46800, Note_on_c, 0, 75, 85
2, 46800, Note_on_c, 0, 59, 85
2, 46920, Note_on_c, 0, 59, 0
2, 46920, Note_on_c, 0, 75, 0
2, 46920, Note_on_c, 0, 71, 85
2, 46920, Note_on_c, 0, 79, 85
2, 46980, Note_on_c, 0, 79, 0
2, 46980, Note_on_c, 0, 75, 85
2, 47040, Note_on_c, 0, 75, 0
2, 47040, Note_on_c, 0, 71, 0
2, 47040, Note_on_c, 0, 76, 85
2, 47040, Note_on_c, 0, 72, 85
2, 47160, Note_on_c, 0, 72, 0
2, 47160, Note_on_c, 0, 76, 0
2, 47160, Note_on_c, 0, 81, 85
2, 47160, Note_on_c, 0, 73, 85
2, 47220, Note_on_c, 0, 81, 0
2, 47220, Note_on_c, 0, 76, 85
2, 47280, Note_on_c, 0, 76, 0
2, 47280, Note_on_c, 0, 73, 0
2, 47280, Note_on_c, 0, 78, 85
2, 47280, Note_on_c, 0, 74, 85
2, 47400, Note_on_c, 0, 74, 0
2, 47400, Note_on_c, 0, 78, 0
2, 47400, Note_on_c, 0, 83, 85
2, 47400, Note_on_c, 0, 75, 85
2, 47460, Note_on_c, 0, 83, 0
2, 47460, Note_on_c, 0, 78, 85
2, 47520, Note_on_c, 0, 78, 0
2, 47520, Note_on_c, 0, 75, 0
2, 47520, Note_on_c, 0, 79, 85
2, 47520, Note_on_c, 0, 76, 85
2, 47640, Note_on_c, 0, 76, 0
2, 47640, Note_on_c, 0, 79, 0
2, 47640, Note_on_c, 0, 75, 85
2, 47640, Note_on_c, 0, 71, 85
2, 47700, Note_on_c, 0, 71, 0
2, 47700, Note_on_c, 0, 69, 85
2, 47760, Note_on_c, 0, 69, 0
2, 47760, Note_on_c, 0, 75, 0
2, 47760, Note_on_c, 0, 76, 85
2, 47760, Note_on_c, 0, 67, 85
2, 47880, Note_on_c, 0, 67, 0
2, 47880, Note_on_c, 0, 76, 0
2, 47880, Note_on_c, 0, 68, 85
2, 47880, Note_on_c, 0, 76, 85
2, 47940, Note_on_c, 0, 76, 0
2, 47940, Note_on_c, 0, 71, 85
2, 48000, Note_on_c, 0, 71, 0
2, 48000, Note_on_c, 0, 68, 0
2, 48000, Note_on_c, 0, 72, 85
2, 48000, Note_on_c, 0, 69, 85
2, 48060, Note_on_c, 0, 69, 0
2, 48060, Note_on_c, 0, 71, 85
2, 48120, Note_on_c, 0, 71, 0
2, 48120, Note_on_c, 0, 72, 0
2, 48120, Note_on_c, 0, 71, 85
2, 48120, Note_on_c, 0, 67, 85
2, 48180, Note_on_c, 0, 67, 0
2, 48180, Note_on_c, 0, 69, 85
2, 48240, Note_on_c, 0, 69, 0
2, 48240, Note_on_c, 0, 71, 0
2, 48240, Note_on_c, 0, 69, 85
2, 48240, Note_on_c, 0, 66, 85
2, 48300, Note_on_c, 0, 66, 0
2, 48300, Note_on_c, 0, 67, 85
2, 48360, Note_on_c, 0, 67, 0
2, 48360, Note_on_c, 0, 69, 0
2, 48360, Note_on_c, 0, 72, 85
2, 48360, Note_on_c, 0, 64, 85
2, 48420, Note_on_c, 0, 64, 0
2, 48420, Note_on_c, 0, 66, 85
2, 48480, Note_on_c, 0, 66, 0
2, 48480, Note_on_c, 0, 72, 0
2, 48480, Note_on_c, 0, 71, 85
2, 48480, Note_on_c, 0, 63, 85
2, 48600, Note_on_c, 0, 63, 0
2, 48600, Note_on_c, 0, 71, 0
2, 48600, Note_on_c, 0, 78, 85
2, 48600, Note_on_c, 0, 59, 85
2, 48660, Note_on_c, 0, 78, 0
2, 48660, Note_on_c, 0, 69, 85
2, 48720, Note_on_c, 0, 69, 0
2, 48720, Note_on_c, 0, 59, 0
2, 48720, Note_on_c, 0, 67, 85
2, 48720, Note_on_c, 0, 64, 85
2, 48780, Note_on_c, 0, 67, 0
2, 48780, Note_on_c, 0, 71, 85
2, 48840, Note_on_c, 0, 71, 0
2, 48840, Note_on_c, 0, 64, 0
2, 48840, Note_on_c, 0, 67, 85
2, 48840, Note_on_c, 0, 76, 85
2, 48900, Note_on_c, 0, 76, 0
2, 48900, Note_on_c, 0, 70, 85
2, 48960, Note_on_c, 0, 70, 0
2, 48960, Note_on_c, 0, 67, 0
2, 48960, Note_on_c, 0, 75, 85
2, 48960, Note_on_c, 0, 71, 85
2, 48960, Note_on_c, 0, 66, 85
2, 49200, Note_on_c, 0, 66, 0
2, 49200, Note_on_c, 0, 71, 0
2, 49200, Note_on_c, 0, 75, 0
2, 49320, Note_on_c, 0, 75, 85
2, 49320, Note_on_c, 0, 71, 85
2, 49320, Note_on_c, 0, 66, 85
2, 49440, Note_on_c, 0, 66, 0
2, 49440, Note_on_c, 0, 71, 0
2, 49440, Note_on_c, 0, 75, 0
2, 49440, Note_on_c, 0, 76, 85
2, 49440, Note_on_c, 0, 71, 85
2, 49440, Note_on_c, 0, 67, 85
2, 49680, Note_on_c, 0, 67, 0
2, 49680, Note_on_c, 0, 71, 0
2, 49680, Note_on_c, 0, 76, 0
2, 49800, Note_on_c, 0, 66, 85
2, 49800, Note_on_c, 0, 69, 85
2, 49800, Note_on_c, 0, 78, 85
2, 49920, Note_on_c, 0, 78, 0
2, 49920, Note_on_c, 0, 69, 0
2, 49920, Note_on_c, 0, 66, 0
2, 49920, Note_on_c, 0, 71, 85
2, 49920, Note_on_c, 0, 67, 85
2, 49920, Note_on_c, 0, 64, 85
2, 50160, Note_on_c, 0, 64, 0
2, 50160, Note_on_c, 0, 67, 0
2, 50160, Note_on_c, 0, 71, 0
2, 50280, Note_on_c, 0, 71, 85
2, 50280, Note_on_c, 0, 69, 85
2, 50280, Note_on_c, 0, 66, 85
2, 50400, Note_on_c, 0, 66, 0
2, 50400, Note_on_c, 0, 69, 0
2, 50400, Note_on_c, 0, 71, 0
2, 50400, Note_on_c, 0, 71, 85
2, 50400, Note_on_c, 0, 67, 85
2, 50400, Note_on_c, 0, 64, 85
2, 50640, Note_on_c, 0, 64, 0
2, 50640, Note_on_c, 0, 67, 0
2, 50640, Note_on_c, 0, 71, 0
2, 50760, Note_on_c, 0, 63, 85
2, 50760, Note_on_c, 0, 66, 85
2, 50760, Note_on_c, 0, 69, 85
2, 50760, Note_on_c, 0, 71, 85
2, 50880, Note_on_c, 0, 71, 0
2, 50880, Note_on_c, 0, 63, 0
2, 50880, Note_on_c, 0, 66, 0
2, 50880, Note_on_c, 0, 69, 0
2, 50880, Note_on_c, 0, 71, 85
2, 50880, Note_on_c, 0, 67, 85
2, 50880, Note_on_c, 0, 64, 85
2, 51120, Note_on_c, 0, 64, 0
2, 51120, Note_on_c, 0, 67, 0
2, 51120, Note_on_c, 0, 71, 0
2, 51240, Note_on_c, 0, 72, 85
2, 51240, Note_on_c, 0, 67, 85
2, 51240, Note_on_c, 0, 64, 85
2, 51360, Note_on_c, 0, 64, 0
2, 51360, Note_on_c, 0, 67, 0
2, 51360, Note_on_c, 0, 72, 0
2, 51360, Note_on_c, 0, 69, 85
2, 51360, Note_on_c, 0, 62, 85
2, 51480, Note_on_c, 0, 69, 0
2, 51480, Note_on_c, 0, 67, 85
2, 51540, Note_on_c, 0, 67, 0
2, 51540, Note_on_c, 0, 69, 85
2, 51600, Note_on_c, 0, 69, 0
2, 51600, Note_on_c, 0, 67, 85
2, 51720, Note_on_c, 0, 67, 0
2, 51720, Note_on_c, 0, 62, 0
2, 51720, Note_on_c, 0, 60, 85
2, 51720, Note_on_c, 0, 66, 85
2, 51780, Note_on_c, 0, 66, 0
2, 51780, Note_on_c, 0, 67, 85
2, 51840, Note_on_c, 0, 67, 0
2, 51840, Note_on_c, 0, 60, 0
2, 51840, Note_on_c, 0, 67, 85
2, 51840, Note_on_c, 0, 59, 85
2, 51960, Note_on_c, 0, 67, 0
2, 51960, Note_on_c, 0, 66, 85
2, 52020, Note_on_c, 0, 66, 0
2, 52020, Note_on_c, 0, 67, 85
2, 52080, Note_on_c, 0, 67, 0
2, 52080, Note_on_c, 0, 59, 0
2, 52080, Note_on_c, 0, 64, 85
2, 52080, Note_on_c, 0, 60, 85
2, 52260, Note_on_c, 0, 64, 0
2, 52260, Note_on_c, 0, 64, 85
2, 52320, Note_on_c, 0, 64, 0
2, 52320, Note_on_c, 0, 66, 85
2, 52440, Note_on_c, 0, 66, 0
2, 52440, Note_on_c, 0, 64, 85
2, 52500, Note_on_c, 0, 64, 0
2, 52500, Note_on_c, 0, 66, 85
2, 52560, Note_on_c, 0, 66, 0
2, 52560, Note_on_c, 0, 60, 0
2, 52560, Note_on_c, 0, 59, 85
2, 52560, Note_on_c, 0, 63, 85
2, 52740, Note_on_c, 0, 63, 0
2, 52740, Note_on_c, 0, 63, 85
2, 52800, Note_on_c, 0, 63, 0
2, 52800, Note_on_c, 0, 59, 0
2, 52800, Note_on_c, 0, 64, 85
2, 52800, Note_on_c, 0, 59, 85
2, 52920, Note_on_c, 0, 64, 0
2, 52920, Note_on_c, 0, 71, 85
2, 52980, Note_on_c, 0, 71, 0
2, 52980, Note_on_c, 0, 59, 0
2, 52980, Note_on_c, 0, 64, 85
2, 52980, Note_on_c, 0, 64, 85
2, 53040, Note_on_c, 0, 64, 0
2, 53040, Note_on_c, 0, 64, 0
2, 53040, Note_on_c, 0, 72, 85
2, 53040, Note_on_c, 0, 64, 85
2, 53160, Note_on_c, 0, 64, 0
2, 53160, Note_on_c, 0, 69, 85
2, 53220, Note_on_c, 0, 69, 0
2, 53220, Note_on_c, 0, 63, 85
2, 53280, Note_on_c, 0, 63, 0
2, 53280, Note_on_c, 0, 72, 0
2, 53280, Note_on_c, 0, 71, 85
2, 53280, Note_on_c, 0, 64, 85
2, 53400, Note_on_c, 0, 64, 0
2, 53400, Note_on_c, 0, 66, 85
2, 53460, Note_on_c, 0, 66, 0
2, 53460, Note_on_c, 0, 64, 85
2, 53520, Note_on_c, 0, 64, 0
2, 53520, Note_on_c, 0, 64, 85
2, 53640, Note_on_c, 0, 64, 0
2, 53640, Note_on_c, 0, 63, 85
2, 53700, Note_on_c, 0, 63, 0
2, 53700, Note_on_c, 0, 64, 85
2, 53760, Note_on_c, 0, 64, 0
2, 53760, Note_on_c, 0, 71, 0
2, 53760, Note_on_c, 0, 71, 85
2, 53760, Note_on_c, 0, 64, 85
2, 53880, Note_on_c, 0, 71, 0
2, 53880, Note_on_c, 0, 76, 85
2, 53976, Note_on_c, 0, 76, 0
2, 54000, Note_on_c, 0, 64, 0
2, 54000, Note_on_c, 0, 76, 85
2, 54030, Note_on_c, 0, 76, 0
2, 54030, Note_on_c, 0, 75, 85
2, 54060, Note_on_c, 0, 75, 0
2, 54060, Note_on_c, 0, 76, 85
2, 54120, Note_on_c, 0, 68, 85
2, 54240, Note_on_c, 0, 68, 0
2, 54240, Note_on_c, 0, 76, 0
2, 54240, Note_on_c, 0, 69, 85
2, 54360, Note_on_c, 0, 76, 85
2, 54456, Note_on_c, 0, 76, 0
2, 54480, Note_on_c, 0, 69, 0
2, 54480, Note_on_c, 0, 76, 85
2, 54510, Note_on_c, 0, 76, 0
2, 54510, Note_on_c, 0, 75, 85
2, 54540, Note_on_c, 0, 75, 0
2, 54540, Note_on_c, 0, 76, 85
2, 54600, Note_on_c, 0, 62, 85
2, 54600, Note_on_c, 0, 68, 85
2, 54720, Note_on_c, 0, 68, 0
2, 54720, Note_on_c, 0, 62, 0
2, 54720, Note_on_c, 0, 76, 0
2, 54720, Note_on_c, 0, 69, 85
2, 54720, Note_on_c, 0, 64, 85
2, 54840, Note_on_c, 0, 76, 85
2, 54936, Note_on_c, 0, 76, 0
2, 54960, Note_on_c, 0, 64, 0
2, 54960, Note_on_c, 0, 69, 0
2, 54960, Note_on_c, 0, 76, 85
2, 54990, Note_on_c, 0, 76, 0
2, 54990, Note_on_c, 0, 75, 85
2, 55020, Note_on_c, 0, 75, 0
2, 55020, Note_on_c, 0, 76, 85
2, 55080, Note_on_c, 0, 70, 85
2, 55080, Note_on_c, 0, 64, 85
2, 55200, Note_on_c, 0, 64, 0
2, 55200, Note_on_c, 0, 70, 0
2, 55200, Note_on_c, 0, 76, 0
2, 55200, Note_on_c, 0, 71, 85
2, 55200, Note_on_c, 0, 62, 85
2, 55320, Note_on_c, 0, 78, 85
2, 55440, Note_on_c, 0, 78, 0
2, 55440, Note_on_c, 0, 62, 0
2, 55440, Note_on_c, 0, 71, 0
2, 55440, Note_on_c, 0, 71, 85
2, 55560, Note_on_c, 0, 71, 0
2, 55560, Note_on_c, 0, 64, 85
2, 55560, Note_on_c, 0, 73, 85
2, 55560, Note_on_c, 0, 66, 85
2, 55680, Note_on_c, 0, 66, 0
2, 55680, Note_on_c, 0, 73, 0
2, 55680, Note_on_c, 0, 64, 0
2, 55680, Note_on_c, 0, 66, 85
2, 55680, Note_on_c, 0, 74, 85
2, 55680, Note_on_c, 0, 62, 85
2, 55800, Note_on_c, 0, 74, 0
2, 55800, Note_on_c, 0, 78, 85
2, 55920, Note_on_c, 0, 78, 0
2, 55920, Note_on_c, 0, 62, 0
2, 55920, Note_on_c, 0, 66, 0
2, 55920, Note_on_c, 0, 71, 85
2, 56040, Note_on_c, 0, 71, 0
2, 56040, Note_on_c, 0, 73, 85
2, 56040, Note_on_c, 0, 70, 85
2, 56040, Note_on_c, 0, 64, 85
2, 56160, Note_on_c, 0, 64, 0
2, 56160, Note_on_c, 0, 70, 0
2, 56160, Note_on_c, 0, 73, 0
2, 56160, Note_on_c, 0, 74, 85
2, 56160, Note_on_c, 0, 71, 85
2, 56160, Note_on_c, 0, 66, 85
2, 56280, Note_on_c, 0, 66, 0
2, 56280, Note_on_c, 0, 71, 0
2, 56280, Note_on_c, 0, 74, 0
2, 56280, Note_on_c, 0, 78, 85
2, 56280, Note_on_c, 0, 66, 85
2, 56280, Note_on_c, 0, 61, 85
2, 56400, Note_on_c, 0, 61, 0
2, 56400, Note_on_c, 0, 78, 0
2, 56400, Note_on_c, 0, 71, 85
2, 56400, Note_on_c, 0, 62, 85
2, 56520, Note_on_c, 0, 62, 0
2, 56520, Note_on_c, 0, 71, 0
2, 56520, Note_on_c, 0, 66, 0
2, 56520, Note_on_c, 0, 64, 85
2, 56520, Note_on_c, 0, 73, 85
2, 56520, Note_on_c, 0, 61, 85
2, 56580, Note_on_c, 0, 61, 0
2, 56580, Note_on_c, 0, 59, 85
2, 56640, Note_on_c, 0, 59, 0
2, 56640, Note_on_c, 0, 73, 0
2, 56640, Note_on_c, 0, 64, 0
2, 56640, Note_on_c, 0, 74, 85
2, 56640, Note_on_c, 0, 66, 85
2, 56820, Note_on_c, 0, 74, 0
2, 56820, Note_on_c, 0, 73, 85
2, 56850, Note_on_c, 0, 73, 0
2, 56850, Note_on_c, 0, 74, 85
2, 56880, Note_on_c, 0, 74, 0
2, 56880, Note_on_c, 0, 66, 0
2, 56880, Note_on_c, 0, 73, 85
2, 56880, Note_on_c, 0, 64, 85
2, 57060, Note_on_c, 0, 73, 0
2, 57060, Note_on_c, 0, 71, 85
2, 57120, Note_on_c, 0, 71, 0
2, 57120, Note_on_c, 0, 64, 0
2, 57120, Note_on_c, 0, 71, 85
2, 57120, Note_on_c, 0, 63, 85
2, 57240, Note_on_c, 0, 63, 0
2, 57240, Note_on_c, 0, 71, 85
2, 57336, Note_on_c, 0, 71, 0
2, 57360, Note_on_c, 0, 71, 0
2, 57360, Note_on_c, 0, 71, 85
2, 57390, Note_on_c, 0, 71, 0
2, 57390, Note_on_c, 0, 70, 85
2, 57420, Note_on_c, 0, 70, 0
2, 57420, Note_on_c, 0, 71, 85
2, 57480, Note_on_c, 0, 78, 85
2, 57600, Note_on_c, 0, 78, 0
2, 57600, Note_on_c, 0, 71, 0
2, 57600, Note_on_c, 0, 79, 85
2, 57720, Note_on_c, 0, 71, 85
2, 57816, Note_on_c, 0, 71, 0
2, 57840, Note_on_c, 0, 79, 0
2, 57840, Note_on_c, 0, 71, 85
2, 57870, Note_on_c, 0, 71, 0
2, 57870, Note_on_c, 0, 70, 85
2, 57900, Note_on_c, 0, 70, 0
2, 57900, Note_on_c, 0, 71, 85
2, 57960, Note_on_c, 0, 83, 85
2, 58020, Note_on_c, 0, 83, 0
2, 58020, Note_on_c, 0, 78, 85
2, 58080, Note_on_c, 0, 78, 0
2, 58080, Note_on_c, 0, 71, 0
2, 58080, Note_on_c, 0, 79, 85
2, 58200, Note_on_c, 0, 71, 85
2, 58320, Note_on_c, 0, 71, 0
2, 58320, Note_on_c, 0, 79, 0
2, 58320, Note_on_c, 0, 64, 85
2, 58440, Note_on_c, 0, 64, 0
2, 58440, Note_on_c, 0, 66, 85
2, 58440, Note_on_c, 0, 78, 85
2, 58500, Note_on_c, 0, 78, 0
2, 58500, Note_on_c, 0, 71, 85
2, 58560, Note_on_c, 0, 71, 0
2, 58560, Note_on_c, 0, 66, 0
2, 58560, Note_on_c, 0, 76, 85
2, 58560, Note_on_c, 0, 67, 85
2, 58680, Note_on_c, 0, 67, 0
2, 58680, Note_on_c, 0, 71, 85
2, 58800, Note_on_c, 0, 71, 0
2, 58800, Note_on_c, 0, 76, 0
2, 58800, Note_on_c, 0, 64, 85
2, 58920, Note_on_c, 0, 64, 0
2, 58920, Note_on_c, 0, 83, 85
2, 58920, Note_on_c, 0, 66, 85
2, 58980, Note_on_c, 0, 83, 0
2, 58980, Note_on_c, 0, 71, 85
2, 59040, Note_on_c, 0, 71, 0
2, 59040, Note_on_c, 0, 66, 0
2, 59040, Note_on_c, 0, 76, 85
2, 59040, Note_on_c, 0, 67, 85
2, 59160, Note_on_c, 0, 67, 0
2, 59160, Note_on_c, 0, 64, 85
2, 59220, Note_on_c, 0, 76, 0
2, 59220, Note_on_c, 0, 74, 85
2, 59280, Note_on_c, 0, 74, 0
2, 59280, Note_on_c, 0, 64, 0
2, 59280, Note_on_c, 0, 69, 85
2, 59280, Note_on_c, 0, 72, 85
2, 59520, Note_on_c, 0, 69, 0
2, 59520, Note_on_c, 0, 69, 85
2, 59640, Note_on_c, 0, 69, 0
2, 59640, Note_on_c, 0, 66, 85
2, 59700, Note_on_c, 0, 66, 0
2, 59700, Note_on_c, 0, 63, 85
2, 59760, Note_on_c, 0, 63, 0
2, 59760, Note_on_c, 0, 72, 0
2, 59760, Note_on_c, 0, 71, 85
2, 59760, Note_on_c, 0, 67, 85
2, 60000, Note_on_c, 0, 67, 0
2, 60000, Note_on_c, 0, 67, 85
2, 60120, Note_on_c, 0, 67, 0
2, 60120, Note_on_c, 0, 64, 85
2, 60180, Note_on_c, 0, 64, 0
2, 60180, Note_on_c, 0, 61, 85
2, 60240, Note_on_c, 0, 61, 0
2, 60240, Note_on_c, 0, 71, 0
2, 60240, Note_on_c, 0, 66, 85
2, 60240, Note_on_c, 0, 69, 85
2, 60600, Note_on_c, 0, 66, 0
2, 60600, Note_on_c, 0, 63, 85
2, 60660, Note_on_c, 0, 63, 0
2, 60660, Note_on_c, 0, 59, 85
2, 60720, Note_on_c, 0, 59, 0
2, 60720, Note_on_c, 0, 69, 0
2, 60720, Note_on_c, 0, 67, 85
2, 60720, Note_on_c, 0, 64, 85
2, 60960, Note_on_c, 0, 67, 0
2, 60960, Note_on_c, 0, 66, 85
2, 61140, Note_on_c, 0, 66, 0
2, 61140, Note_on_c, 0, 67, 85
2, 61200, Note_on_c, 0, 67, 0
2, 61200, Note_on_c, 0, 69, 85
2, 61320, Note_on_c, 0, 69, 0
2, 61320, Note_on_c, 0, 64, 0
2, 61320, Note_on_c, 0, 64, 85
2, 61320, Note_on_c, 0, 67, 85
2, 61380, Note_on_c, 0, 67, 0
2, 61380, Note_on_c, 0, 66, 85
2, 61440, Note_on_c, 0, 66, 0
2, 61440, Note_on_c, 0, 64, 0
2, 61440, Note_on_c, 0, 67, 85
2, 61440, Note_on_c, 0, 64, 85
2, 61560, Note_on_c, 0, 67, 0
2, 61560, Note_on_c, 0, 69, 85
2, 61620, Note_on_c, 0, 69, 0
2, 61620, Note_on_c, 0, 67, 85
2, 61680, Note_on_c, 0, 67, 0
2, 61680, Note_on_c, 0, 64, 0
2, 61680, Note_on_c, 0, 66, 85
2, 61680, Note_on_c, 0, 62, 85
2, 61920, Note_on_c, 0, 66, 0
2, 61920, Note_on_c, 0, 64, 85
2, 62040, Note_on_c, 0, 62, 0
2, 62040, Note_on_c, 0, 60, 85
2, 62100, Note_on_c, 0, 60, 0
2, 62100, Note_on_c, 0, 59, 85
2, 62160, Note_on_c, 0, 59, 0
2, 62160, Note_on_c, 0, 60, 85
2, 62220, Note_on_c, 0, 64, 0
2, 62220, Note_on_c, 0, 67, 85
2, 62280, Note_on_c, 0, 67, 0
2, 62280, Note_on_c, 0, 60, 0
2, 62280, Note_on_c, 0, 59, 85
2, 62280, Note_on_c, 0, 66, 85
2, 62340, Note_on_c, 0, 66, 0
2, 62340, Note_on_c, 0, 64, 85
2, 62400, Note_on_c, 0, 64, 0
2, 62400, Note_on_c, 0, 59, 0
2, 62400, Note_on_c, 0, 63, 85
2, 62400, Note_on_c, 0, 72, 85
2, 62400, Note_on_c, 0, 57, 85
2, 62520, Note_on_c, 0, 57, 0
2, 62520, Note_on_c, 0, 55, 85
2, 62580, Note_on_c, 0, 72, 0
2, 62580, Note_on_c, 0, 63, 0
2, 62580, Note_on_c, 0, 64, 85
2, 62580, Note_on_c, 0, 64, 85
2, 62640, Note_on_c, 0, 64, 0
2, 62640, Note_on_c, 0, 55, 0
2, 62640, Note_on_c, 0, 59, 85
2, 62700, Note_on_c, 0, 64, 0
2, 62700, Note_on_c, 0, 66, 85
2, 62760, Note_on_c, 0, 66, 0
2, 62760, Note_on_c, 0, 59, 0
2, 62760, Note_on_c, 0, 67, 85
2, 62760, Note_on_c, 0, 64, 85
2, 62880, Note_on_c, 0, 64, 0
2, 62880, Note_on_c, 0, 67, 0
2, 62880, Note_on_c, 0, 66, 85
2, 62880, Note_on_c, 0, 63, 85
2, 63120, Note_on_c, 0, 63, 0
2, 63120, Note_on_c, 0, 66, 0
2, 63240, Note_on_c, 0, 66, 85
2, 63240, Note_on_c, 0, 71, 85
2, 63240, Note_on_c, 0, 75, 85
2, 63360, Note_on_c, 0, 75, 0
2, 63360, Note_on_c, 0, 71, 0
2, 63360, Note_on_c, 0, 66, 0
2, 63360, Note_on_c, 0, 76, 85
2, 63360, Note_on_c, 0, 71, 85
2, 63360, Note_on_c, 0, 67, 85
2, 63360, Note_on_c, 0, 64, 85
2, 63600, Note_on_c, 0, 64, 0
2, 63600, Note_on_c, 0, 76, 0
2, 63600, Note_on_c, 0, 71, 0
2, 63600, Note_on_c, 0, 67, 0
2, 63720, Note_on_c, 0, 73, 85
2, 63720, Note_on_c, 0, 70, 85
2, 63720, Note_on_c, 0, 64, 85
2, 63840, Note_on_c, 0, 64, 0
2, 63840, Note_on_c, 0, 70, 0
2, 63840, Note_on_c, 0, 73, 0
2, 63840, Note_on_c, 0, 75, 85
2, 63840, Note_on_c, 0, 71, 85
2, 63840, Note_on_c, 0, 66, 85
2, 63960, Note_on_c, 0, 71, 0
2, 63960, Note_on_c, 0, 69, 85
2, 64020, Note_on_c, 0, 75, 0
2, 64020, Note_on_c, 0, 75, 85
2, 64080, Note_on_c, 0, 75, 0
2, 64080, Note_on_c, 0, 69, 0
2, 64080, Note_on_c, 0, 66, 0
2, 64080, Note_on_c, 0, 76, 85
2, 64080, Note_on_c, 0, 67, 85
2, 64200, Note_on_c, 0, 67, 0
2, 64200, Note_on_c, 0, 76, 0
2, 64200, Note_on_c, 0, 69, 85
2, 64200, Note_on_c, 0, 75, 85
2, 64320, Note_on_c, 0, 75, 0
2, 64320, Note_on_c, 0, 69, 0
2, 64320, Note_on_c, 0, 76, 85
2, 64320, Note_on_c, 0, 71, 85
2, 64440, Note_on_c, 0, 71, 0
2, 64440, Note_on_c, 0, 76, 0
2, 64440, Note_on_c, 0, 66, 85
2, 64440, Note_on_c, 0, 63, 85
2, 64560, Note_on_c, 0, 63, 0
2, 64560, Note_on_c, 0, 66, 0
2, 64560, Note_on_c, 0, 67, 85
2, 64560, Note_on_c, 0, 64, 85
2, 64680, Note_on_c, 0, 64, 0
2, 64680, Note_on_c, 0, 67, 0
2, 64680, Note_on_c, 0, 69, 85
2, 64680, Note_on_c, 0, 63, 85
2, 64800, Note_on_c, 0, 63, 0
2, 64800, Note_on_c, 0, 69, 0
2, 64800, Note_on_c, 0, 71, 85
2, 64800, Note_on_c, 0, 64, 85
2, 64980, Note_on_c, 0, 71, 0
2, 64980, Note_on_c, 0, 72, 85
2, 65040, Note_on_c, 0, 72, 0
2, 65040, Note_on_c, 0, 64, 0
2, 65040, Note_on_c, 0, 66, 85
2, 65040, Note_on_c, 0, 63, 85
2, 65052, Note_on_c, 0, 66, 0
2, 65055, Note_on_c, 0, 67, 85
2, 65067, Note_on_c, 0, 67, 0
2, 65070, Note_on_c, 0, 66, 85
2, 65082, Note_on_c, 0, 66, 0
2, 65085, Note_on_c, 0, 67, 85
2, 65097, Note_on_c, 0, 67, 0
2, 65100, Note_on_c, 0, 66, 85
2, 65196, Note_on_c, 0, 66, 0
2, 65220, Note_on_c, 0, 63, 0
2, 65220, Note_on_c, 0, 64, 85
2, 65220, Note_on_c, 0, 64, 85
2, 65268, Note_on_c, 0, 64, 0
2, 65280, Note_on_c, 0, 64, 0
2, 65280, Note_on_c, 0, 64, 85
2, 65760, Note_on_c, 0, 64, 0
2, 65760, End_track
3, 0, Start_track
3, 0, MIDI_port, 0
3, 0, Title_t, "--------------------------------------"
3, 0, Program_c, 1, 19
3, 0, Control_c, 1, 7, 100
3, 0, Control_c, 1, 10, 64
3, 0, Control_c, 1, 91, 119
3, 300, Note_on_c, 1, 60, 80
3, 360, Note_on_c, 1, 60, 0
3, 360, Note_on_c, 1, 59, 80
3, 420, Note_on_c, 1, 59, 0
3, 420, Note_on_c, 1, 57, 80
3, 480, Note_on_c, 1, 57, 0
3, 480, Note_on_c, 1, 55, 80
3, 540, Note_on_c, 1, 55, 0
3, 540, Note_on_c, 1, 59, 80
3, 600, Note_on_c, 1, 59, 0
3, 600, Note_on_c, 1, 55, 80
3, 660, Note_on_c, 1, 55, 0
3, 660, Note_on_c, 1, 52, 80
3, 720, Note_on_c, 1, 52, 0
3, 720, Note_on_c, 1, 59, 80
3, 780, Note_on_c, 1, 59, 0
3, 780, Note_on_c, 1, 54, 80
3, 840, Note_on_c, 1, 54, 0
3, 840, Note_on_c, 1, 51, 80
3, 900, Note_on_c, 1, 51, 0
3, 900, Note_on_c, 1, 47, 80
3, 960, Note_on_c, 1, 47, 0
3, 960, Note_on_c, 1, 52, 80
3, 1020, Note_on_c, 1, 52, 0
3, 1020, Note_on_c, 1, 59, 80
3, 1080, Note_on_c, 1, 59, 0
3, 1080, Note_on_c, 1, 55, 80
3, 1140, Note_on_c, 1, 55, 0
3, 1140, Note_on_c, 1, 52, 80
3, 1200, Note_on_c, 1, 52, 0
3, 1200, Note_on_c, 1, 64, 80
3, 1260, Note_on_c, 1, 64, 0
3, 1260, Note_on_c, 1, 52, 80
3, 1320, Note_on_c, 1, 52, 0
3, 1320, Note_on_c, 1, 48, 80
3, 1380, Note_on_c, 1, 48, 0
3, 1380, Note_on_c, 1, 45, 80
3, 1440, Note_on_c, 1, 45, 0
3, 1440, Note_on_c, 1, 57, 80
3, 1500, Note_on_c, 1, 57, 0
3, 3240, Note_on_c, 1, 59, 80
3, 3300, Note_on_c, 1, 59, 0
3, 3300, Note_on_c, 1, 57, 80
3, 3360, Note_on_c, 1, 57, 0
3, 3360, Note_on_c, 1, 55, 80
3, 3420, Note_on_c, 1, 55, 0
3, 3420, Note_on_c, 1, 57, 80
3, 3480, Note_on_c, 1, 57, 0
3, 3480, Note_on_c, 1, 59, 80
3, 3540, Note_on_c, 1, 59, 0
3, 3540, Note_on_c, 1, 57, 80
3, 3600, Note_on_c, 1, 57, 0
3, 3600, Note_on_c, 1, 55, 80
3, 3660, Note_on_c, 1, 55, 0
3, 3660, Note_on_c, 1, 54, 80
3, 3720, Note_on_c, 1, 54, 0
3, 3720, Note_on_c, 1, 52, 80
3, 3780, Note_on_c, 1, 52, 0
3, 3780, Note_on_c, 1, 51, 80
3, 3840, Note_on_c, 1, 51, 0
3, 3840, Note_on_c, 1, 52, 80
3, 3900, Note_on_c, 1, 52, 0
3, 3900, Note_on_c, 1, 52, 80
3, 3960, Note_on_c, 1, 52, 0
3, 3960, Note_on_c, 1, 50, 80
3, 4020, Note_on_c, 1, 50, 0
3, 4020, Note_on_c, 1, 48, 80
3, 4080, Note_on_c, 1, 48, 0
3, 4080, Note_on_c, 1, 47, 80
3, 4140, Note_on_c, 1, 47, 0
3, 4140, Note_on_c, 1, 45, 80
3, 4200, Note_on_c, 1, 45, 0
3, 4200, Note_on_c, 1, 43, 80
3, 4260, Note_on_c, 1, 43, 0
3, 4260, Note_on_c, 1, 42, 80
3, 4320, Note_on_c, 1, 42, 0
3, 4320, Note_on_c, 1, 40, 80
3, 4512, Note_on_c, 1, 40, 0
3, 9660, Note_on_c, 1, 59, 80
3, 9720, Note_on_c, 1, 59, 0
3, 9720, Note_on_c, 1, 60, 80
3, 9780, Note_on_c, 1, 60, 0
3, 9780, Note_on_c, 1, 62, 80
3, 9840, Note_on_c, 1, 62, 0
3, 9840, Note_on_c, 1, 60, 80
3, 9870, Note_on_c, 1, 60, 0
3, 9870, Note_on_c, 1, 62, 80
3, 9900, Note_on_c, 1, 62, 0
3, 9900, Note_on_c, 1, 60, 80
3, 10020, Note_on_c, 1, 60, 0
3, 10020, Note_on_c, 1, 59, 80
3, 10080, Note_on_c, 1, 59, 0
3, 10080, Note_on_c, 1, 57, 80
3, 10320, Note_on_c, 1, 57, 0
3, 10440, Note_on_c, 1, 57, 80
3, 10560, Note_on_c, 1, 57, 0
3, 10560, Note_on_c, 1, 59, 80
3, 10800, Note_on_c, 1, 59, 0
3, 10920, Note_on_c, 1, 55, 80
3, 11040, Note_on_c, 1, 55, 0
3, 11040, Note_on_c, 1, 57, 80
3, 11280, Note_on_c, 1, 57, 0
3, 11400, Note_on_c, 1, 54, 80
3, 11400, Note_on_c, 1, 57, 80
3, 11520, Note_on_c, 1, 57, 0
3, 11520, Note_on_c, 1, 54, 0
3, 11520, Note_on_c, 1, 59, 80
3, 11520, Note_on_c, 1, 55, 80
3, 11760, Note_on_c, 1, 55, 0
3, 11760, Note_on_c, 1, 59, 0
3, 11880, Note_on_c, 1, 60, 80
3, 11880, Note_on_c, 1, 52, 80
3, 12000, Note_on_c, 1, 52, 0
3, 12000, Note_on_c, 1, 60, 0
3, 12000, Note_on_c, 1, 57, 80
3, 12000, Note_on_c, 1, 54, 80
3, 12240, Note_on_c, 1, 54, 0
3, 12240, Note_on_c, 1, 57, 0
3, 12240, Note_on_c, 1, 59, 80
3, 12240, Note_on_c, 1, 54, 80
3, 12360, Note_on_c, 1, 54, 0
3, 12360, Note_on_c, 1, 59, 0
3, 12360, Note_on_c, 1, 59, 80
3, 12480, Note_on_c, 1, 59, 0
3, 12480, Note_on_c, 1, 56, 80
3, 12480, Note_on_c, 1, 52, 80
3, 12720, Note_on_c, 1, 52, 0
3, 12720, Note_on_c, 1, 56, 0
3, 12840, Note_on_c, 1, 57, 80
3, 12840, Note_on_c, 1, 52, 80
3, 12960, Note_on_c, 1, 52, 0
3, 12960, Note_on_c, 1, 57, 0
3, 12960, Note_on_c, 1, 59, 80
3, 12960, Note_on_c, 1, 54, 80
3, 13200, Note_on_c, 1, 54, 0
3, 13200, Note_on_c, 1, 59, 0
3, 13200, Note_on_c, 1, 52, 80
3, 13200, Note_on_c, 1, 59, 80
3, 13440, Note_on_c, 1, 59, 0
3, 13440, Note_on_c, 1, 52, 0
3, 13440, Note_on_c, 1, 57, 80
3, 13440, Note_on_c, 1, 52, 80
3, 13680, Note_on_c, 1, 52, 0
3, 13680, Note_on_c, 1, 57, 0
3, 13800, Note_on_c, 1, 55, 80
3, 13800, Note_on_c, 1, 50, 80
3, 13920, Note_on_c, 1, 50, 0
3, 13920, Note_on_c, 1, 55, 0
3, 13920, Note_on_c, 1, 55, 80
3, 13920, Note_on_c, 1, 52, 80
3, 14160, Note_on_c, 1, 52, 0
3, 14160, Note_on_c, 1, 55, 0
3, 14280, Note_on_c, 1, 52, 80
3, 14280, Note_on_c, 1, 57, 80
3, 14400, Note_on_c, 1, 57, 0
3, 14400, Note_on_c, 1, 52, 0
3, 14400, Note_on_c, 1, 55, 80
3, 14400, Note_on_c, 1, 50, 80
3, 14640, Note_on_c, 1, 50, 0
3, 14640, Note_on_c, 1, 55, 0
3, 14760, Note_on_c, 1, 57, 80
3, 14760, Note_on_c, 1, 52, 80
3, 14880, Note_on_c, 1, 52, 0
3, 14880, Note_on_c, 1, 57, 0
3, 14880, Note_on_c, 1, 57, 80
3, 14880, Note_on_c, 1, 54, 80
3, 15120, Note_on_c, 1, 54, 0
3, 15120, Note_on_c, 1, 57, 0
3, 15240, Note_on_c, 1, 54, 80
3, 15240, Note_on_c, 1, 59, 80
3, 15360, Note_on_c, 1, 59, 0
3, 15360, Note_on_c, 1, 54, 0
3, 15360, Note_on_c, 1, 55, 80
3, 15360, Note_on_c, 1, 52, 80
3, 15600, Note_on_c, 1, 52, 0
3, 15600, Note_on_c, 1, 55, 0
3, 15720, Note_on_c, 1, 59, 80
3, 15720, Note_on_c, 1, 54, 80
3, 15840, Note_on_c, 1, 54, 0
3, 15840, Note_on_c, 1, 59, 0
3, 15840, Note_on_c, 1, 59, 80
3, 15840, Note_on_c, 1, 52, 80
3, 16080, Note_on_c, 1, 52, 0
3, 16080, Note_on_c, 1, 59, 0
3, 16080, Note_on_c, 1, 64, 80
3, 16200, Note_on_c, 1, 64, 0
3, 16200, Note_on_c, 1, 62, 80
3, 16320, Note_on_c, 1, 62, 0
3, 16320, Note_on_c, 1, 61, 80
3, 16560, Note_on_c, 1, 61, 0
3, 16680, Note_on_c, 1, 62, 80
3, 16680, Note_on_c, 1, 56, 80
3, 16800, Note_on_c, 1, 56, 0
3, 16800, Note_on_c, 1, 62, 0
3, 16920, Note_on_c, 1, 62, 80
3, 16920, Note_on_c, 1, 56, 80
3, 17040, Note_on_c, 1, 56, 0
3, 17040, Note_on_c, 1, 62, 0
3, 17160, Note_on_c, 1, 56, 80
3, 17160, Note_on_c, 1, 62, 80
3, 17280, Note_on_c, 1, 62, 0
3, 17280, Note_on_c, 1, 56, 0
3, 17280, Note_on_c, 1, 61, 80
3, 17280, Note_on_c, 1, 54, 80
3, 17520, Note_on_c, 1, 54, 0
3, 17520, Note_on_c, 1, 61, 0
3, 17640, Note_on_c, 1, 64, 80
3, 17640, Note_on_c, 1, 61, 80
3, 17760, Note_on_c, 1, 61, 0
3, 17760, Note_on_c, 1, 64, 0
3, 17880, Note_on_c, 1, 64, 80
3, 17880, Note_on_c, 1, 61, 80
3, 18000, Note_on_c, 1, 61, 0
3, 18000, Note_on_c, 1, 64, 0
3, 18120, Note_on_c, 1, 61, 80
3, 18120, Note_on_c, 1, 64, 80
3, 18240, Note_on_c, 1, 64, 0
3, 18240, Note_on_c, 1, 61, 0
3, 18240, Note_on_c, 1, 62, 80
3, 18240, Note_on_c, 1, 59, 80
3, 18480, Note_on_c, 1, 59, 0
3, 18480, Note_on_c, 1, 62, 0
3, 18600, Note_on_c, 1, 69, 80
3, 18600, Note_on_c, 1, 66, 80
3, 18720, Note_on_c, 1, 66, 0
3, 18720, Note_on_c, 1, 69, 0
3, 18840, Note_on_c, 1, 69, 80
3, 18840, Note_on_c, 1, 66, 80
3, 18960, Note_on_c, 1, 66, 0
3, 18960, Note_on_c, 1, 69, 0
3, 19080, Note_on_c, 1, 59, 80
3, 19080, Note_on_c, 1, 66, 80
3, 19200, Note_on_c, 1, 66, 0
3, 19200, Note_on_c, 1, 59, 0
3, 19200, Note_on_c, 1, 64, 80
3, 19200, Note_on_c, 1, 59, 80
3, 19440, Note_on_c, 1, 59, 0
3, 19440, Note_on_c, 1, 64, 0
3, 19440, Note_on_c, 1, 65, 80
3, 19560, Note_on_c, 1, 59, 80
3, 19680, Note_on_c, 1, 59, 0
3, 19680, Note_on_c, 1, 65, 0
3, 19680, Note_on_c, 1, 65, 80
3, 19800, Note_on_c, 1, 59, 80
3, 19920, Note_on_c, 1, 59, 0
3, 19920, Note_on_c, 1, 65, 0
3, 19920, Note_on_c, 1, 64, 80
3, 20040, Note_on_c, 1, 59, 80
3, 20160, Note_on_c, 1, 59, 0
3, 20160, Note_on_c, 1, 64, 0
3, 20160, Note_on_c, 1, 64, 80
3, 20160, Note_on_c, 1, 57, 80
3, 20400, Note_on_c, 1, 57, 0
3, 20400, Note_on_c, 1, 64, 0
3, 20400, Note_on_c, 1, 60, 80
3, 20520, Note_on_c, 1, 66, 80
3, 20640, Note_on_c, 1, 66, 0
3, 20640, Note_on_c, 1, 60, 0
3, 20640, Note_on_c, 1, 60, 80
3, 20760, Note_on_c, 1, 66, 80
3, 20880, Note_on_c, 1, 66, 0
3, 20880, Note_on_c, 1, 60, 0
3, 20880, Note_on_c, 1, 59, 80
3, 21000, Note_on_c, 1, 66, 80
3, 21120, Note_on_c, 1, 66, 0
3, 21120, Note_on_c, 1, 59, 0
3, 21120, Note_on_c, 1, 64, 80
3, 21120, Note_on_c, 1, 59, 80
3, 21360, Note_on_c, 1, 59, 0
3, 21360, Note_on_c, 1, 64, 0
3, 21960, Note_on_c, 1, 59, 80
3, 21960, Note_on_c, 1, 66, 80
3, 22080, Note_on_c, 1, 66, 0
3, 22080, Note_on_c, 1, 59, 0
3, 22080, Note_on_c, 1, 64, 80
3, 22080, Note_on_c, 1, 59, 80
3, 22320, Note_on_c, 1, 59, 0
3, 22320, Note_on_c, 1, 64, 0
3, 22320, Note_on_c, 1, 65, 80
3, 22440, Note_on_c, 1, 59, 80
3, 22560, Note_on_c, 1, 59, 0
3, 22560, Note_on_c, 1, 65, 0
3, 22560, Note_on_c, 1, 65, 80
3, 22680, Note_on_c, 1, 59, 80
3, 22800, Note_on_c, 1, 59, 0
3, 22800, Note_on_c, 1, 65, 0
3, 22800, Note_on_c, 1, 64, 80
3, 22920, Note_on_c, 1, 59, 80
3, 23040, Note_on_c, 1, 59, 0
3, 23040, Note_on_c, 1, 64, 0
3, 23040, Note_on_c, 1, 64, 80
3, 23040, Note_on_c, 1, 57, 80
3, 23040, Note_on_c, 1, 52, 69
3, 23280, Note_on_c, 1, 52, 0
3, 23280, Note_on_c, 1, 57, 0
3, 23280, Note_on_c, 1, 64, 0
3, 23880, Note_on_c, 1, 64, 80
3, 23880, Note_on_c, 1, 68, 80
3, 23880, Note_on_c, 1, 71, 80
3, 24000, Note_on_c, 1, 71, 0
3, 24000, Note_on_c, 1, 68, 0
3, 24000, Note_on_c, 1, 64, 0
3, 24000, Note_on_c, 1, 69, 80
3, 24000, Note_on_c, 1, 64, 80
3, 24240, Note_on_c, 1, 64, 0
3, 24240, Note_on_c, 1, 69, 0
3, 24240, Note_on_c, 1, 60, 80
3, 24360, Note_on_c, 1, 69, 80
3, 24360, Note_on_c, 1, 66, 80
3, 24480, Note_on_c, 1, 66, 0
3, 24480, Note_on_c, 1, 69, 0
3, 24480, Note_on_c, 1, 60, 0
3, 24480, Note_on_c, 1, 60, 80
3, 24600, Note_on_c, 1, 69, 80
3, 24600, Note_on_c, 1, 66, 80
3, 24720, Note_on_c, 1, 66, 0
3, 24720, Note_on_c, 1, 69, 0
3, 24720, Note_on_c, 1, 60, 0
3, 24720, Note_on_c, 1, 59, 80
3, 24840, Note_on_c, 1, 66, 80
3, 24960, Note_on_c, 1, 66, 0
3, 24960, Note_on_c, 1, 59, 0
3, 24960, Note_on_c, 1, 67, 80
3, 24960, Note_on_c, 1, 64, 80
3, 24960, Note_on_c, 1, 59, 80
3, 25200, Note_on_c, 1, 59, 0
3, 25200, Note_on_c, 1, 64, 0
3, 25200, Note_on_c, 1, 67, 0
3, 25800, Note_on_c, 1, 59, 80
3, 25920, Note_on_c, 1, 59, 0
3, 25920, Note_on_c, 1, 52, 80
3, 26160, Note_on_c, 1, 52, 0
3, 26640, Note_on_c, 1, 58, 80
3, 26670, Note_on_c, 1, 58, 0
3, 26670, Note_on_c, 1, 61, 80
3, 26700, Note_on_c, 1, 61, 0
3, 26700, Note_on_c, 1, 58, 80
3, 26730, Note_on_c, 1, 58, 0
3, 26730, Note_on_c, 1, 61, 80
3, 26760, Note_on_c, 1, 61, 0
3, 26760, Note_on_c, 1, 58, 80
3, 26790, Note_on_c, 1, 58, 0
3, 26790, Note_on_c, 1, 61, 80
3, 26820, Note_on_c, 1, 61, 0
3, 26820, Note_on_c, 1, 58, 80
3, 26850, Note_on_c, 1, 58, 0
3, 26850, Note_on_c, 1, 61, 80
3, 26880, Note_on_c, 1, 61, 0
3, 26880, Note_on_c, 1, 59, 80
3, 27120, Note_on_c, 1, 59, 0
3, 27720, Note_on_c, 1, 59, 80
3, 27840, Note_on_c, 1, 59, 0
3, 27840, Note_on_c, 1, 57, 80
3, 28080, Note_on_c, 1, 57, 0
3, 28800, Note_on_c, 1, 59, 80
3, 29040, Note_on_c, 1, 59, 0
3, 29760, Note_on_c, 1, 64, 80
3, 29760, Note_on_c, 1, 59, 80
3, 30000, Note_on_c, 1, 59, 0
3, 30000, Note_on_c, 1, 64, 0
3, 30120, Note_on_c, 1, 59, 80
3, 30120, Note_on_c, 1, 57, 80
3, 30120, Note_on_c, 1, 54, 80
3, 30240, Note_on_c, 1, 54, 0
3, 30240, Note_on_c, 1, 57, 0
3, 30240, Note_on_c, 1, 59, 0
3, 30240, Note_on_c, 1, 47, 80
3, 30240, Note_on_c, 1, 52, 80
3, 30240, Note_on_c, 1, 55, 80
3, 30240, Note_on_c, 1, 59, 80
3, 30720, Note_on_c, 1, 59, 0
3, 30720, Note_on_c, 1, 47, 0
3, 30720, Note_on_c, 1, 52, 0
3, 30720, Note_on_c, 1, 55, 0
3, 31800, Note_on_c, 1, 59, 80
3, 31896, Note_on_c, 1, 59, 0
3, 31920, Note_on_c, 1, 59, 80
3, 31950, Note_on_c, 1, 59, 0
3, 31950, Note_on_c, 1, 58, 80
3, 31980, Note_on_c, 1, 58, 0
3, 31980, Note_on_c, 1, 59, 80
3, 32160, Note_on_c, 1, 59, 0
3, 32280, Note_on_c, 1, 59, 80
3, 32376, Note_on_c, 1, 59, 0
3, 32400, Note_on_c, 1, 59, 80
3, 32430, Note_on_c, 1, 59, 0
3, 32430, Note_on_c, 1, 58, 80
3, 32460, Note_on_c, 1, 58, 0
3, 32460, Note_on_c, 1, 59, 80
3, 32640, Note_on_c, 1, 59, 0
3, 32760, Note_on_c, 1, 59, 80
3, 32880, Note_on_c, 1, 59, 0
3, 32880, Note_on_c, 1, 52, 80
3, 33000, Note_on_c, 1, 52, 0
3, 33000, Note_on_c, 1, 54, 80
3, 33120, Note_on_c, 1, 54, 0
3, 33120, Note_on_c, 1, 55, 80
3, 33240, Note_on_c, 1, 55, 0
3, 33240, Note_on_c, 1, 59, 80
3, 33360, Note_on_c, 1, 59, 0
3, 33360, Note_on_c, 1, 52, 80
3, 33480, Note_on_c, 1, 52, 0
3, 33480, Note_on_c, 1, 54, 80
3, 33600, Note_on_c, 1, 54, 0
3, 33600, Note_on_c, 1, 55, 80
3, 33720, Note_on_c, 1, 52, 80
3, 33816, Note_on_c, 1, 52, 0
3, 33840, Note_on_c, 1, 55, 0
3, 33840, Note_on_c, 1, 52, 80
3, 33870, Note_on_c, 1, 52, 0
3, 33870, Note_on_c, 1, 51, 80
3, 33900, Note_on_c, 1, 51, 0
3, 33900, Note_on_c, 1, 52, 80
3, 33960, Note_on_c, 1, 59, 80
3, 34020, Note_on_c, 1, 59, 0
3, 34020, Note_on_c, 1, 54, 80
3, 34080, Note_on_c, 1, 54, 0
3, 34080, Note_on_c, 1, 52, 0
3, 34080, Note_on_c, 1, 55, 80
3, 34200, Note_on_c, 1, 52, 80
3, 34296, Note_on_c, 1, 52, 0
3, 34320, Note_on_c, 1, 55, 0
3, 34320, Note_on_c, 1, 52, 80
3, 34350, Note_on_c, 1, 52, 0
3, 34350, Note_on_c, 1, 51, 80
3, 34380, Note_on_c, 1, 51, 0
3, 34380, Note_on_c, 1, 52, 80
3, 34440, Note_on_c, 1, 59, 80
3, 34500, Note_on_c, 1, 59, 0
3, 34500, Note_on_c, 1, 54, 80
3, 34560, Note_on_c, 1, 54, 0
3, 34560, Note_on_c, 1, 52, 0
3, 34560, Note_on_c, 1, 55, 80
3, 34680, Note_on_c, 1, 52, 80
3, 34800, Note_on_c, 1, 52, 0
3, 34800, Note_on_c, 1, 55, 0
3, 34800, Note_on_c, 1, 47, 80
3, 34920, Note_on_c, 1, 47, 0
3, 34920, Note_on_c, 1, 64, 80
3, 34920, Note_on_c, 1, 49, 80
3, 35040, Note_on_c, 1, 49, 0
3, 35040, Note_on_c, 1, 64, 0
3, 35040, Note_on_c, 1, 66, 80
3, 35040, Note_on_c, 1, 50, 80
3, 35160, Note_on_c, 1, 50, 0
3, 35160, Note_on_c, 1, 66, 0
3, 35160, Note_on_c, 1, 58, 80
3, 35160, Note_on_c, 1, 54, 80
3, 35280, Note_on_c, 1, 54, 0
3, 35280, Note_on_c, 1, 58, 0
3, 35280, Note_on_c, 1, 47, 80
3, 35340, Note_on_c, 1, 59, 80
3, 35400, Note_on_c, 1, 59, 0
3, 35400, Note_on_c, 1, 47, 0
3, 35400, Note_on_c, 1, 49, 80
3, 35400, Note_on_c, 1, 57, 80
3, 35460, Note_on_c, 1, 57, 0
3, 35460, Note_on_c, 1, 55, 80
3, 35520, Note_on_c, 1, 55, 0
3, 35520, Note_on_c, 1, 49, 0
3, 35520, Note_on_c, 1, 54, 80
3, 35520, Note_on_c, 1, 50, 80
3, 35640, Note_on_c, 1, 50, 0
3, 35640, Note_on_c, 1, 54, 0
3, 35640, Note_on_c, 1, 59, 80
3, 35640, Note_on_c, 1, 51, 80
3, 35700, Note_on_c, 1, 59, 0
3, 35700, Note_on_c, 1, 54, 80
3, 35760, Note_on_c, 1, 54, 0
3, 35760, Note_on_c, 1, 51, 0
3, 35760, Note_on_c, 1, 55, 80
3, 35760, Note_on_c, 1, 52, 80
3, 35880, Note_on_c, 1, 52, 0
3, 35880, Note_on_c, 1, 55, 0
3, 35880, Note_on_c, 1, 60, 80
3, 35880, Note_on_c, 1, 40, 80
3, 35940, Note_on_c, 1, 60, 0
3, 35940, Note_on_c, 1, 55, 80
3, 36000, Note_on_c, 1, 55, 0
3, 36000, Note_on_c, 1, 40, 0
3, 36000, Note_on_c, 1, 57, 80
3, 36000, Note_on_c, 1, 42, 80
3, 36120, Note_on_c, 1, 42, 0
3, 36120, Note_on_c, 1, 57, 0
3, 36120, Note_on_c, 1, 62, 80
3, 36120, Note_on_c, 1, 54, 80
3, 36180, Note_on_c, 1, 62, 0
3, 36180, Note_on_c, 1, 57, 80
3, 36240, Note_on_c, 1, 57, 0
3, 36240, Note_on_c, 1, 54, 0
3, 36240, Note_on_c, 1, 59, 80
3, 36240, Note_on_c, 1, 55, 80
3, 36360, Note_on_c, 1, 55, 0
3, 36360, Note_on_c, 1, 59, 0
3, 36360, Note_on_c, 1, 56, 80
3, 36360, Note_on_c, 1, 64, 80
3, 36420, Note_on_c, 1, 64, 0
3, 36420, Note_on_c, 1, 59, 80
3, 36480, Note_on_c, 1, 59, 0
3, 36480, Note_on_c, 1, 56, 0
3, 36480, Note_on_c, 1, 60, 80
3, 36480, Note_on_c, 1, 57, 80
3, 36600, Note_on_c, 1, 57, 0
3, 36600, Note_on_c, 1, 55, 80
3, 36660, Note_on_c, 1, 60, 0
3, 36660, Note_on_c, 1, 59, 80
3, 36720, Note_on_c, 1, 59, 0
3, 36720, Note_on_c, 1, 55, 0
3, 36720, Note_on_c, 1, 57, 80
3, 36720, Note_on_c, 1, 54, 80
3, 36840, Note_on_c, 1, 54, 0
3, 36840, Note_on_c, 1, 52, 80
3, 36900, Note_on_c, 1, 57, 0
3, 36900, Note_on_c, 1, 55, 80
3, 36960, Note_on_c, 1, 55, 0
3, 36960, Note_on_c, 1, 52, 0
3, 36960, Note_on_c, 1, 54, 80
3, 36960, Note_on_c, 1, 51, 80
3, 37200, Note_on_c, 1, 51, 0
3, 37200, Note_on_c, 1, 54, 0
3, 37320, Note_on_c, 1, 51, 80
3, 37320, Note_on_c, 1, 54, 80
3, 37440, Note_on_c, 1, 54, 0
3, 37440, Note_on_c, 1, 51, 0
3, 37440, Note_on_c, 1, 55, 80
3, 37440, Note_on_c, 1, 52, 80
3, 37680, Note_on_c, 1, 52, 0
3, 37680, Note_on_c, 1, 55, 0
3, 37800, Note_on_c, 1, 59, 80
3, 37800, Note_on_c, 1, 51, 80
3, 37860, Note_on_c, 1, 59, 0
3, 37860, Note_on_c, 1, 54, 80
3, 37920, Note_on_c, 1, 54, 0
3, 37920, Note_on_c, 1, 51, 0
3, 37920, Note_on_c, 1, 55, 80
3, 37920, Note_on_c, 1, 52, 80
3, 38160, Note_on_c, 1, 52, 0
3, 38160, Note_on_c, 1, 55, 0
3, 38280, Note_on_c, 1, 51, 80
3, 38280, Note_on_c, 1, 59, 80
3, 38400, Note_on_c, 1, 59, 0
3, 38400, Note_on_c, 1, 51, 0
3, 38400, Note_on_c, 1, 59, 80
3, 38400, Note_on_c, 1, 52, 80
3, 38520, Note_on_c, 1, 52, 0
3, 38520, Note_on_c, 1, 59, 0
3, 38520, Note_on_c, 1, 63, 80
3, 38520, Note_on_c, 1, 47, 80
3, 38580, Note_on_c, 1, 47, 0
3, 38580, Note_on_c, 1, 45, 80
3, 38640, Note_on_c, 1, 45, 0
3, 38640, Note_on_c, 1, 63, 0
3, 38640, Note_on_c, 1, 64, 80
3, 38640, Note_on_c, 1, 43, 80
3, 38760, Note_on_c, 1, 43, 0
3, 38760, Note_on_c, 1, 64, 0
3, 38760, Note_on_c, 1, 63, 80
3, 38760, Note_on_c, 1, 47, 80
3, 38880, Note_on_c, 1, 47, 0
3, 38880, Note_on_c, 1, 63, 0
3, 38880, Note_on_c, 1, 64, 80
3, 38880, Note_on_c, 1, 40, 80
3, 39000, Note_on_c, 1, 40, 0
3, 39000, Note_on_c, 1, 48, 80
3, 39060, Note_on_c, 1, 48, 0
3, 39060, Note_on_c, 1, 43, 80
3, 39120, Note_on_c, 1, 43, 0
3, 39120, Note_on_c, 1, 45, 80
3, 39240, Note_on_c, 1, 45, 0
3, 39240, Note_on_c, 1, 64, 0
3, 39240, Note_on_c, 1, 47, 80
3, 39240, Note_on_c, 1, 63, 80
3, 39360, Note_on_c, 1, 63, 0
3, 39360, Note_on_c, 1, 47, 0
3, 39360, Note_on_c, 1, 64, 80
3, 39360, Note_on_c, 1, 48, 80
3, 39480, Note_on_c, 1, 48, 0
3, 39480, Note_on_c, 1, 64, 0
3, 39480, Note_on_c, 1, 62, 80
3, 39480, Note_on_c, 1, 47, 80
3, 39600, Note_on_c, 1, 47, 0
3, 39600, Note_on_c, 1, 62, 0
3, 39600, Note_on_c, 1, 60, 80
3, 39600, Note_on_c, 1, 45, 80
3, 39840, Note_on_c, 1, 45, 0
3, 39840, Note_on_c, 1, 60, 0
3, 39840, Note_on_c, 1, 59, 80
3, 39840, Note_on_c, 1, 47, 80
3, 39960, Note_on_c, 1, 47, 0
3, 39960, Note_on_c, 1, 59, 80
3, 40020, Note_on_c, 1, 59, 0
3, 40020, Note_on_c, 1, 57, 80
3, 40080, Note_on_c, 1, 57, 0
3, 40080, Note_on_c, 1, 59, 0
3, 40080, Note_on_c, 1, 59, 80
3, 40080, Note_on_c, 1, 55, 80
3, 40200, Note_on_c, 1, 55, 0
3, 40200, Note_on_c, 1, 59, 0
3, 40200, Note_on_c, 1, 54, 80
3, 40200, Note_on_c, 1, 57, 80
3, 40320, Note_on_c, 1, 57, 0
3, 40320, Note_on_c, 1, 54, 0
3, 40320, Note_on_c, 1, 59, 80
3, 40320, Note_on_c, 1, 52, 80
3, 40560, Note_on_c, 1, 52, 0
3, 40560, Note_on_c, 1, 59, 0
3, 40680, Note_on_c, 1, 57, 80
3, 40800, Note_on_c, 1, 57, 0
3, 40800, Note_on_c, 1, 55, 80
3, 41040, Note_on_c, 1, 55, 0
3, 41160, Note_on_c, 1, 54, 80
3, 41280, Note_on_c, 1, 54, 0
3, 41280, Note_on_c, 1, 52, 80
3, 41520, Note_on_c, 1, 52, 0
3, 41580, Note_on_c, 1, 52, 80
3, 41640, Note_on_c, 1, 52, 0
3, 41640, Note_on_c, 1, 50, 80
3, 41700, Note_on_c, 1, 50, 0
3, 41700, Note_on_c, 1, 49, 80
3, 41760, Note_on_c, 1, 49, 0
3, 41760, Note_on_c, 1, 47, 80
3, 42000, Note_on_c, 1, 47, 0
3, 42060, Note_on_c, 1, 55, 80
3, 42120, Note_on_c, 1, 55, 0
3, 42120, Note_on_c, 1, 54, 80
3, 42180, Note_on_c, 1, 54, 0
3, 42180, Note_on_c, 1, 52, 80
3, 42240, Note_on_c, 1, 52, 0
3, 42240, Note_on_c, 1, 54, 80
3, 42360, Note_on_c, 1, 54, 0
3, 42360, Note_on_c, 1, 52, 80
3, 42480, Note_on_c, 1, 52, 0
3, 42480, Note_on_c, 1, 54, 80
3, 42720, Note_on_c, 1, 54, 0
3, 49080, Note_on_c, 1, 59, 80
3, 49176, Note_on_c, 1, 59, 0
3, 49200, Note_on_c, 1, 59, 80
3, 49230, Note_on_c, 1, 59, 0
3, 49230, Note_on_c, 1, 58, 80
3, 49260, Note_on_c, 1, 58, 0
3, 49260, Note_on_c, 1, 59, 80
3, 49440, Note_on_c, 1, 59, 0
3, 49560, Note_on_c, 1, 59, 80
3, 49656, Note_on_c, 1, 59, 0
3, 49680, Note_on_c, 1, 59, 80
3, 49710, Note_on_c, 1, 59, 0
3, 49710, Note_on_c, 1, 58, 80
3, 49740, Note_on_c, 1, 58, 0
3, 49740, Note_on_c, 1, 59, 80
3, 49920, Note_on_c, 1, 59, 0
3, 50040, Note_on_c, 1, 59, 80
3, 50160, Note_on_c, 1, 59, 0
3, 50160, Note_on_c, 1, 52, 80
3, 50280, Note_on_c, 1, 52, 0
3, 50280, Note_on_c, 1, 54, 80
3, 50400, Note_on_c, 1, 54, 0
3, 50400, Note_on_c, 1, 55, 80
3, 50520, Note_on_c, 1, 55, 0
3, 50520, Note_on_c, 1, 59, 80
3, 50640, Note_on_c, 1, 59, 0
3, 50640, Note_on_c, 1, 52, 80
3, 50760, Note_on_c, 1, 52, 0
3, 50760, Note_on_c, 1, 54, 80
3, 50880, Note_on_c, 1, 54, 0
3, 50880, Note_on_c, 1, 55, 80
3, 51000, Note_on_c, 1, 55, 0
3, 51000, Note_on_c, 1, 59, 80
3, 51060, Note_on_c, 1, 59, 0
3, 51060, Note_on_c, 1, 55, 80
3, 51120, Note_on_c, 1, 55, 0
3, 51120, Note_on_c, 1, 60, 80
3, 51480, Note_on_c, 1, 60, 0
3, 51480, Note_on_c, 1, 59, 80
3, 51540, Note_on_c, 1, 59, 0
3, 51540, Note_on_c, 1, 60, 80
3, 51600, Note_on_c, 1, 60, 0
3, 51600, Note_on_c, 1, 57, 80
3, 51840, Note_on_c, 1, 57, 0
3, 51840, Note_on_c, 1, 55, 80
3, 52080, Note_on_c, 1, 55, 0
3, 52080, Note_on_c, 1, 55, 80
3, 52320, Note_on_c, 1, 55, 0
3, 52320, Note_on_c, 1, 57, 80
3, 52440, Note_on_c, 1, 57, 0
3, 52440, Note_on_c, 1, 55, 80
3, 52500, Note_on_c, 1, 55, 0
3, 52500, Note_on_c, 1, 57, 80
3, 52560, Note_on_c, 1, 57, 0
3, 52560, Note_on_c, 1, 54, 80
3, 52800, Note_on_c, 1, 54, 0
3, 52800, Note_on_c, 1, 52, 80
3, 53160, Note_on_c, 1, 52, 0
3, 53160, Note_on_c, 1, 54, 80
3, 53280, Note_on_c, 1, 54, 0
3, 53280, Note_on_c, 1, 55, 80
3, 53400, Note_on_c, 1, 55, 0
3, 53400, Note_on_c, 1, 57, 80
3, 53460, Note_on_c, 1, 57, 0
3, 53460, Note_on_c, 1, 55, 80
3, 53520, Note_on_c, 1, 55, 0
3, 53520, Note_on_c, 1, 54, 80
3, 53640, Note_on_c, 1, 54, 0
3, 53640, Note_on_c, 1, 57, 80
3, 53760, Note_on_c, 1, 57, 0
3, 53760, Note_on_c, 1, 55, 80
3, 54000, Note_on_c, 1, 55, 0
3, 54120, Note_on_c, 1, 59, 80
3, 54240, Note_on_c, 1, 59, 0
3, 54240, Note_on_c, 1, 60, 80
3, 54480, Note_on_c, 1, 60, 0
3, 56640, Note_on_c, 1, 58, 80
3, 56760, Note_on_c, 1, 58, 0
3, 56760, Note_on_c, 1, 59, 80
3, 56880, Note_on_c, 1, 59, 0
3, 56880, Note_on_c, 1, 59, 80
3, 57000, Note_on_c, 1, 59, 0
3, 57000, Note_on_c, 1, 58, 80
3, 57120, Note_on_c, 1, 58, 0
3, 57120, Note_on_c, 1, 59, 80
3, 57360, Note_on_c, 1, 59, 0
3, 57480, Note_on_c, 1, 63, 80
3, 57600, Note_on_c, 1, 63, 0
3, 57600, Note_on_c, 1, 64, 80
3, 57840, Note_on_c, 1, 64, 0
3, 57960, Note_on_c, 1, 63, 80
3, 58080, Note_on_c, 1, 63, 0
3, 58080, Note_on_c, 1, 64, 80
3, 58320, Note_on_c, 1, 64, 0
3, 58440, Note_on_c, 1, 63, 80
3, 58560, Note_on_c, 1, 63, 0
3, 58560, Note_on_c, 1, 64, 80
3, 58800, Note_on_c, 1, 64, 0
3, 58920, Note_on_c, 1, 62, 80
3, 59040, Note_on_c, 1, 62, 0
3, 59040, Note_on_c, 1, 60, 80
3, 59400, Note_on_c, 1, 60, 0
3, 59400, Note_on_c, 1, 54, 80
3, 59460, Note_on_c, 1, 54, 0
3, 59460, Note_on_c, 1, 51, 80
3, 59520, Note_on_c, 1, 51, 0
3, 59520, Note_on_c, 1, 55, 80
3, 59880, Note_on_c, 1, 55, 0
3, 59880, Note_on_c, 1, 52, 80
3, 59940, Note_on_c, 1, 52, 0
3, 59940, Note_on_c, 1, 49, 80
3, 60000, Note_on_c, 1, 49, 0
3, 60000, Note_on_c, 1, 54, 80
3, 60360, Note_on_c, 1, 54, 0
3, 60360, Note_on_c, 1, 51, 80
3, 60420, Note_on_c, 1, 51, 0
3, 60420, Note_on_c, 1, 47, 80
3, 60480, Note_on_c, 1, 47, 0
3, 60480, Note_on_c, 1, 52, 80
3, 60720, Note_on_c, 1, 52, 0
3, 60720, Note_on_c, 1, 52, 80
3, 60840, Note_on_c, 1, 52, 0
3, 60840, Note_on_c, 1, 55, 80
3, 60900, Note_on_c, 1, 55, 0
3, 60900, Note_on_c, 1, 52, 80
3, 60960, Note_on_c, 1, 52, 0
3, 60960, Note_on_c, 1, 57, 80
3, 61080, Note_on_c, 1, 57, 0
3, 61080, Note_on_c, 1, 59, 80
3, 61200, Note_on_c, 1, 59, 0
3, 61200, Note_on_c, 1, 60, 80
3, 61320, Note_on_c, 1, 60, 0
3, 61320, Note_on_c, 1, 59, 80
3, 61380, Note_on_c, 1, 59, 0
3, 61380, Note_on_c, 1, 57, 80
3, 61440, Note_on_c, 1, 57, 0
3, 61440, Note_on_c, 1, 59, 80
3, 61680, Note_on_c, 1, 59, 0
3, 61680, Note_on_c, 1, 59, 80
3, 61740, Note_on_c, 1, 59, 0
3, 61740, Note_on_c, 1, 60, 80
3, 61800, Note_on_c, 1, 60, 0
3, 61800, Note_on_c, 1, 59, 80
3, 61860, Note_on_c, 1, 59, 0
3, 61860, Note_on_c, 1, 57, 80
3, 61920, Note_on_c, 1, 57, 0
3, 61920, Note_on_c, 1, 56, 80
3, 62040, Note_on_c, 1, 56, 0
3, 62040, Note_on_c, 1, 52, 80
3, 62160, Note_on_c, 1, 52, 0
3, 62160, Note_on_c, 1, 57, 80
3, 62280, Note_on_c, 1, 57, 0
3, 62280, Note_on_c, 1, 55, 80
3, 62400, Note_on_c, 1, 55, 0
3, 62400, Note_on_c, 1, 54, 80
3, 62520, Note_on_c, 1, 54, 0
3, 62520, Note_on_c, 1, 52, 80
3, 62640, Note_on_c, 1, 52, 0
3, 62640, Note_on_c, 1, 51, 80
3, 62760, Note_on_c, 1, 51, 0
3, 62760, Note_on_c, 1, 52, 80
3, 62880, Note_on_c, 1, 52, 0
3, 62880, Note_on_c, 1, 59, 80
3, 63120, Note_on_c, 1, 59, 0
3, 63240, Note_on_c, 1, 57, 80
3, 63360, Note_on_c, 1, 57, 0
3, 63360, Note_on_c, 1, 55, 80
3, 63600, Note_on_c, 1, 55, 0
3, 63720, Note_on_c, 1, 54, 80
3, 63840, Note_on_c, 1, 54, 0
3, 63840, Note_on_c, 1, 59, 80
3, 64080, Note_on_c, 1, 59, 0
3, 64440, Note_on_c, 1, 59, 80
3, 64560, Note_on_c, 1, 59, 0
3, 64560, Note_on_c, 1, 59, 80
3, 64680, Note_on_c, 1, 59, 0
3, 64680, Note_on_c, 1, 57, 80
3, 64800, Note_on_c, 1, 57, 0
3, 64800, Note_on_c, 1, 55, 80
3, 64920, Note_on_c, 1, 55, 0
3, 64920, Note_on_c, 1, 54, 80
3, 65160, Note_on_c, 1, 54, 0
3, 65160, Note_on_c, 1, 57, 80
3, 65280, Note_on_c, 1, 57, 0
3, 65280, Note_on_c, 1, 59, 80
3, 65280, Note_on_c, 1, 56, 80
3, 65280, Note_on_c, 1, 52, 80
3, 65760, Note_on_c, 1, 52, 0
3, 65760, Note_on_c, 1, 56, 0
3, 65760, Note_on_c, 1, 59, 0
3, 65760, End_track
4, 0, Start_track
4, 0, MIDI_port, 0
4, 0, Title_t, "Johann Sebastian Bach   (1685-1750)"
4, 0, Program_c, 2, 19
4, 0, Control_c, 2, 7, 100
4, 0, Control_c, 2, 10, 64
4, 4800, Note_on_c, 2, 28, 85
4, 5040, Note_on_c, 2, 28, 0
4, 5280, Note_on_c, 2, 28, 85
4, 5520, Note_on_c, 2, 28, 0
4, 5760, Note_on_c, 2, 31, 85
4, 6000, Note_on_c, 2, 31, 0
4, 6240, Note_on_c, 2, 33, 85
4, 6480, Note_on_c, 2, 33, 0
4, 6720, Note_on_c, 2, 35, 85
4, 6960, Note_on_c, 2, 35, 0
4, 7200, Note_on_c, 2, 35, 85
4, 7440, Note_on_c, 2, 35, 0
4, 7740, Note_on_c, 2, 46, 85
4, 7800, Note_on_c, 2, 46, 0
4, 7800, Note_on_c, 2, 47, 85
4, 7860, Note_on_c, 2, 47, 0
4, 7860, Note_on_c, 2, 46, 85
4, 7920, Note_on_c, 2, 46, 0
4, 7920, Note_on_c, 2, 47, 85
4, 7980, Note_on_c, 2, 47, 0
4, 7980, Note_on_c, 2, 41, 85
4, 8040, Note_on_c, 2, 41, 0
4, 8040, Note_on_c, 2, 42, 85
4, 8100, Note_on_c, 2, 42, 0
4, 8100, Note_on_c, 2, 41, 85
4, 8160, Note_on_c, 2, 41, 0
4, 8160, Note_on_c, 2, 42, 85
4, 8220, Note_on_c, 2, 42, 0
4, 8220, Note_on_c, 2, 37, 85
4, 8280, Note_on_c, 2, 37, 0
4, 8280, Note_on_c, 2, 39, 85
4, 8340, Note_on_c, 2, 39, 0
4, 8340, Note_on_c, 2, 37, 85
4, 8400, Note_on_c, 2, 37, 0
4, 8400, Note_on_c, 2, 39, 85
4, 8460, Note_on_c, 2, 39, 0
4, 8460, Note_on_c, 2, 35, 85
4, 8490, Note_on_c, 2, 35, 0
4, 8490, Note_on_c, 2, 42, 85
4, 8520, Note_on_c, 2, 42, 0
4, 8520, Note_on_c, 2, 39, 85
4, 8550, Note_on_c, 2, 39, 0
4, 8550, Note_on_c, 2, 42, 85
4, 8580, Note_on_c, 2, 42, 0
4, 8580, Note_on_c, 2, 39, 85
4, 8610, Note_on_c, 2, 39, 0
4, 8610, Note_on_c, 2, 42, 85
4, 8640, Note_on_c, 2, 42, 0
4, 8640, Note_on_c, 2, 32, 85
4, 8880, Note_on_c, 2, 32, 0
4, 9360, Note_on_c, 2, 32, 85
4, 9600, Note_on_c, 2, 32, 0
4, 9600, Note_on_c, 2, 33, 85
4, 9840, Note_on_c, 2, 33, 0
4, 10080, Note_on_c, 2, 33, 85
4, 10320, Note_on_c, 2, 33, 0
4, 10320, Note_on_c, 2, 45, 85
4, 10680, Note_on_c, 2, 45, 0
4, 10680, Note_on_c, 2, 39, 85
4, 10800, Note_on_c, 2, 39, 0
4, 10800, Note_on_c, 2, 43, 85
4, 11160, Note_on_c, 2, 43, 0
4, 11160, Note_on_c, 2, 37, 85
4, 11280, Note_on_c, 2, 37, 0
4, 11280, Note_on_c, 2, 42, 85
4, 11640, Note_on_c, 2, 42, 0
4, 11640, Note_on_c, 2, 35, 85
4, 11760, Note_on_c, 2, 35, 0
4, 11760, Note_on_c, 2, 40, 85
4, 12120, Note_on_c, 2, 40, 0
4, 12120, Note_on_c, 2, 38, 85
4, 12180, Note_on_c, 2, 38, 0
4, 12180, Note_on_c, 2, 36, 85
4, 12240, Note_on_c, 2, 36, 0
4, 12240, Note_on_c, 2, 38, 85
4, 12360, Note_on_c, 2, 38, 0
4, 12360, Note_on_c, 2, 36, 85
4, 12420, Note_on_c, 2, 36, 0
4, 12420, Note_on_c, 2, 35, 85
4, 12480, Note_on_c, 2, 35, 0
4, 12480, Note_on_c, 2, 36, 85
4, 12720, Note_on_c, 2, 36, 0
4, 12840, Note_on_c, 2, 36, 85
4, 12960, Note_on_c, 2, 36, 0
4, 12960, Note_on_c, 2, 35, 85
4, 13200, Note_on_c, 2, 35, 0
4, 13200, Note_on_c, 2, 40, 85
4, 13320, Note_on_c, 2, 40, 0
4, 13320, Note_on_c, 2, 31, 85
4, 13440, Note_on_c, 2, 31, 0
4, 13440, Note_on_c, 2, 33, 85
4, 13680, Note_on_c, 2, 33, 0
4, 13800, Note_on_c, 2, 35, 85
4, 13920, Note_on_c, 2, 35, 0
4, 13920, Note_on_c, 2, 36, 85
4, 14160, Note_on_c, 2, 36, 0
4, 14280, Note_on_c, 2, 33, 85
4, 14400, Note_on_c, 2, 33, 0
4, 14400, Note_on_c, 2, 35, 85
4, 14640, Note_on_c, 2, 35, 0
4, 14760, Note_on_c, 2, 37, 85
4, 14880, Note_on_c, 2, 37, 0
4, 14880, Note_on_c, 2, 38, 85
4, 15120, Note_on_c, 2, 38, 0
4, 15240, Note_on_c, 2, 35, 85
4, 15360, Note_on_c, 2, 35, 0
4, 15360, Note_on_c, 2, 37, 85
4, 15600, Note_on_c, 2, 37, 0
4, 15720, Note_on_c, 2, 39, 85
4, 15840, Note_on_c, 2, 39, 0
4, 15840, Note_on_c, 2, 40, 85
4, 16080, Note_on_c, 2, 40, 0
4, 16320, Note_on_c, 2, 40, 85
4, 16560, Note_on_c, 2, 40, 0
4, 16680, Note_on_c, 2, 41, 85
4, 16800, Note_on_c, 2, 41, 0
4, 16920, Note_on_c, 2, 41, 85
4, 17040, Note_on_c, 2, 41, 0
4, 17160, Note_on_c, 2, 41, 85
4, 17280, Note_on_c, 2, 41, 0
4, 17280, Note_on_c, 2, 42, 85
4, 17520, Note_on_c, 2, 42, 0
4, 17640, Note_on_c, 2, 46, 85
4, 17760, Note_on_c, 2, 46, 0
4, 17880, Note_on_c, 2, 46, 85
4, 18000, Note_on_c, 2, 46, 0
4, 18120, Note_on_c, 2, 46, 85
4, 18240, Note_on_c, 2, 46, 0
4, 18240, Note_on_c, 2, 47, 85
4, 18480, Note_on_c, 2, 47, 0
4, 18600, Note_on_c, 2, 47, 85
4, 18720, Note_on_c, 2, 47, 0
4, 18840, Note_on_c, 2, 47, 85
4, 18960, Note_on_c, 2, 47, 0
4, 19080, Note_on_c, 2, 45, 85
4, 19200, Note_on_c, 2, 45, 0
4, 19200, Note_on_c, 2, 43, 85
4, 19440, Note_on_c, 2, 43, 0
4, 19560, Note_on_c, 2, 44, 85
4, 19680, Note_on_c, 2, 44, 0
4, 19800, Note_on_c, 2, 44, 85
4, 19920, Note_on_c, 2, 44, 0
4, 20040, Note_on_c, 2, 44, 85
4, 20160, Note_on_c, 2, 44, 0
4, 20160, Note_on_c, 2, 45, 85
4, 20400, Note_on_c, 2, 45, 0
4, 20520, Note_on_c, 2, 39, 85
4, 20640, Note_on_c, 2, 39, 0
4, 20760, Note_on_c, 2, 39, 85
4, 20880, Note_on_c, 2, 39, 0
4, 21000, Note_on_c, 2, 39, 85
4, 21120, Note_on_c, 2, 39, 0
4, 21120, Note_on_c, 2, 40, 85
4, 21360, Note_on_c, 2, 40, 0
4, 21360, Note_on_c, 2, 40, 85
4, 21420, Note_on_c, 2, 40, 0
4, 21420, Note_on_c, 2, 43, 85
4, 21480, Note_on_c, 2, 43, 0
4, 21480, Note_on_c, 2, 42, 85
4, 21540, Note_on_c, 2, 42, 0
4, 21540, Note_on_c, 2, 45, 85
4, 21600, Note_on_c, 2, 45, 0
4, 21600, Note_on_c, 2, 43, 85
4, 21660, Note_on_c, 2, 43, 0
4, 21660, Note_on_c, 2, 47, 85
4, 21720, Note_on_c, 2, 47, 0
4, 21720, Note_on_c, 2, 45, 85
4, 21780, Note_on_c, 2, 45, 0
4, 21780, Note_on_c, 2, 48, 85
4, 21840, Note_on_c, 2, 48, 0
4, 21840, Note_on_c, 2, 47, 85
4, 21936, Note_on_c, 2, 47, 0
4, 21960, Note_on_c, 2, 35, 85
4, 22080, Note_on_c, 2, 35, 0
4, 22080, Note_on_c, 2, 40, 85
4, 22320, Note_on_c, 2, 40, 0
4, 22440, Note_on_c, 2, 32, 85
4, 22560, Note_on_c, 2, 32, 0
4, 22680, Note_on_c, 2, 32, 85
4, 22800, Note_on_c, 2, 32, 0
4, 22920, Note_on_c, 2, 32, 85
4, 23040, Note_on_c, 2, 32, 0
4, 23040, Note_on_c, 2, 33, 85
4, 23280, Note_on_c, 2, 33, 0
4, 23280, Note_on_c, 2, 33, 85
4, 23340, Note_on_c, 2, 33, 0
4, 23340, Note_on_c, 2, 36, 85
4, 23400, Note_on_c, 2, 36, 0
4, 23400, Note_on_c, 2, 35, 85
4, 23460, Note_on_c, 2, 35, 0
4, 23460, Note_on_c, 2, 38, 85
4, 23520, Note_on_c, 2, 38, 0
4, 23520, Note_on_c, 2, 36, 85
4, 23580, Note_on_c, 2, 36, 0
4, 23580, Note_on_c, 2, 40, 85
4, 23640, Note_on_c, 2, 40, 0
4, 23640, Note_on_c, 2, 38, 85
4, 23700, Note_on_c, 2, 38, 0
4, 23700, Note_on_c, 2, 41, 85
4, 23760, Note_on_c, 2, 41, 0
4, 23760, Note_on_c, 2, 40, 85
4, 23856, Note_on_c, 2, 40, 0
4, 23880, Note_on_c, 2, 28, 85
4, 24000, Note_on_c, 2, 28, 0
4, 24000, Note_on_c, 2, 33, 85
4, 24240, Note_on_c, 2, 33, 0
4, 24360, Note_on_c, 2, 39, 85
4, 24480, Note_on_c, 2, 39, 0
4, 24600, Note_on_c, 2, 39, 85
4, 24720, Note_on_c, 2, 39, 0
4, 24840, Note_on_c, 2, 39, 85
4, 24960, Note_on_c, 2, 39, 0
4, 24960, Note_on_c, 2, 40, 85
4, 25200, Note_on_c, 2, 40, 0
4, 25200, Note_on_c, 2, 40, 85
4, 25260, Note_on_c, 2, 40, 0
4, 25260, Note_on_c, 2, 43, 85
4, 25320, Note_on_c, 2, 43, 0
4, 25320, Note_on_c, 2, 42, 85
4, 25380, Note_on_c, 2, 42, 0
4, 25380, Note_on_c, 2, 45, 85
4, 25440, Note_on_c, 2, 45, 0
4, 25440, Note_on_c, 2, 43, 85
4, 25500, Note_on_c, 2, 43, 0
4, 25500, Note_on_c, 2, 47, 85
4, 25560, Note_on_c, 2, 47, 0
4, 25560, Note_on_c, 2, 45, 85
4, 25620, Note_on_c, 2, 45, 0
4, 25620, Note_on_c, 2, 48, 85
4, 25680, Note_on_c, 2, 48, 0
4, 25680, Note_on_c, 2, 47, 85
4, 25776, Note_on_c, 2, 47, 0
4, 25800, Note_on_c, 2, 35, 85
4, 25920, Note_on_c, 2, 35, 0
4, 25920, Note_on_c, 2, 36, 85
4, 26160, Note_on_c, 2, 36, 0
4, 26400, Note_on_c, 2, 37, 85
4, 26640, Note_on_c, 2, 37, 0
4, 26760, Note_on_c, 2, 42, 85
4, 26880, Note_on_c, 2, 42, 0
4, 26880, Note_on_c, 2, 35, 85
4, 27120, Note_on_c, 2, 35, 0
4, 27120, Note_on_c, 2, 47, 85
4, 27180, Note_on_c, 2, 47, 0
4, 27180, Note_on_c, 2, 48, 85
4, 27240, Note_on_c, 2, 48, 0
4, 27240, Note_on_c, 2, 45, 85
4, 27300, Note_on_c, 2, 45, 0
4, 27300, Note_on_c, 2, 47, 85
4, 27360, Note_on_c, 2, 47, 0
4, 27360, Note_on_c, 2, 44, 85
4, 27420, Note_on_c, 2, 44, 0
4, 27420, Note_on_c, 2, 45, 85
4, 27480, Note_on_c, 2, 45, 0
4, 27480, Note_on_c, 2, 42, 85
4, 27540, Note_on_c, 2, 42, 0
4, 27540, Note_on_c, 2, 45, 85
4, 27600, Note_on_c, 2, 45, 0
4, 27600, Note_on_c, 2, 44, 85
4, 27696, Note_on_c, 2, 44, 0
4, 27720, Note_on_c, 2, 40, 85
4, 27840, Note_on_c, 2, 40, 0
4, 27840, Note_on_c, 2, 45, 85
4, 28080, Note_on_c, 2, 45, 0
4, 28200, Note_on_c, 2, 33, 85
4, 28320, Note_on_c, 2, 33, 0
4, 28320, Note_on_c, 2, 35, 85
4, 28560, Note_on_c, 2, 35, 0
4, 28680, Note_on_c, 2, 35, 85
4, 28800, Note_on_c, 2, 35, 0
4, 28800, Note_on_c, 2, 40, 85
4, 29040, Note_on_c, 2, 40, 0
4, 29040, Note_on_c, 2, 28, 85
4, 29100, Note_on_c, 2, 28, 0
4, 29100, Note_on_c, 2, 43, 85
4, 29160, Note_on_c, 2, 43, 0
4, 29160, Note_on_c, 2, 30, 85
4, 29220, Note_on_c, 2, 30, 0
4, 29220, Note_on_c, 2, 45, 85
4, 29280, Note_on_c, 2, 45, 0
4, 29280, Note_on_c, 2, 31, 85
4, 29340, Note_on_c, 2, 31, 0
4, 29340, Note_on_c, 2, 47, 85
4, 29400, Note_on_c, 2, 47, 0
4, 29400, Note_on_c, 2, 33, 85
4, 29460, Note_on_c, 2, 33, 0
4, 29460, Note_on_c, 2, 48, 85
4, 29520, Note_on_c, 2, 48, 0
4, 29520, Note_on_c, 2, 35, 85
4, 29616, Note_on_c, 2, 35, 0
4, 29640, Note_on_c, 2, 47, 85
4, 29760, Note_on_c, 2, 47, 0
4, 29760, Note_on_c, 2, 40, 85
4, 30000, Note_on_c, 2, 40, 0
4, 30000, Note_on_c, 2, 28, 85
4, 30240, Note_on_c, 2, 28, 0
4, 30240, Note_on_c, 2, 28, 85
4, 30720, Note_on_c, 2, 28, 0
4, 42840, Note_on_c, 2, 42, 85
4, 42936, Note_on_c, 2, 42, 0
4, 42960, Note_on_c, 2, 42, 85
4, 42990, Note_on_c, 2, 42, 0
4, 42990, Note_on_c, 2, 41, 85
4, 43020, Note_on_c, 2, 41, 0
4, 43020, Note_on_c, 2, 42, 85
4, 43200, Note_on_c, 2, 42, 0
4, 43320, Note_on_c, 2, 42, 85
4, 43416, Note_on_c, 2, 42, 0
4, 43440, Note_on_c, 2, 42, 85
4, 43470, Note_on_c, 2, 42, 0
4, 43470, Note_on_c, 2, 41, 85
4, 43500, Note_on_c, 2, 41, 0
4, 43500, Note_on_c, 2, 42, 85
4, 43680, Note_on_c, 2, 42, 0
4, 43800, Note_on_c, 2, 42, 85
4, 43920, Note_on_c, 2, 42, 0
4, 43920, Note_on_c, 2, 35, 85
4, 44040, Note_on_c, 2, 35, 0
4, 44040, Note_on_c, 2, 37, 85
4, 44160, Note_on_c, 2, 37, 0
4, 44160, Note_on_c, 2, 38, 85
4, 44280, Note_on_c, 2, 38, 0
4, 44280, Note_on_c, 2, 42, 85
4, 44400, Note_on_c, 2, 42, 0
4, 44400, Note_on_c, 2, 35, 85
4, 44520, Note_on_c, 2, 35, 0
4, 44520, Note_on_c, 2, 37, 85
4, 44640, Note_on_c, 2, 37, 0
4, 44640, Note_on_c, 2, 38, 85
4, 44760, Note_on_c, 2, 38, 0
4, 44760, Note_on_c, 2, 40, 85
4, 44880, Note_on_c, 2, 40, 0
4, 44880, Note_on_c, 2, 42, 85
4, 45000, Note_on_c, 2, 42, 0
4, 45000, Note_on_c, 2, 30, 85
4, 45120, Note_on_c, 2, 30, 0
4, 45120, Note_on_c, 2, 35, 85
4, 45360, Note_on_c, 2, 35, 0
4, 49320, Note_on_c, 2, 45, 85
4, 49440, Note_on_c, 2, 45, 0
4, 49440, Note_on_c, 2, 43, 85
4, 49680, Note_on_c, 2, 43, 0
4, 49800, Note_on_c, 2, 39, 85
4, 49920, Note_on_c, 2, 39, 0
4, 49920, Note_on_c, 2, 40, 85
4, 50160, Note_on_c, 2, 40, 0
4, 50280, Note_on_c, 2, 39, 85
4, 50400, Note_on_c, 2, 39, 0
4, 50400, Note_on_c, 2, 40, 85
4, 50640, Note_on_c, 2, 40, 0
4, 50760, Note_on_c, 2, 35, 85
4, 50880, Note_on_c, 2, 35, 0
4, 50880, Note_on_c, 2, 40, 85
4, 51120, Note_on_c, 2, 40, 0
4, 51240, Note_on_c, 2, 40, 85
4, 51360, Note_on_c, 2, 40, 0
4, 51360, Note_on_c, 2, 42, 85
4, 51480, Note_on_c, 2, 42, 0
4, 51480, Note_on_c, 2, 43, 85
4, 51600, Note_on_c, 2, 43, 0
4, 51600, Note_on_c, 2, 38, 85
4, 51840, Note_on_c, 2, 38, 0
4, 51840, Note_on_c, 2, 40, 85
4, 51960, Note_on_c, 2, 40, 0
4, 51960, Note_on_c, 2, 38, 85
4, 52080, Note_on_c, 2, 38, 0
4, 52080, Note_on_c, 2, 36, 85
4, 52200, Note_on_c, 2, 36, 0
4, 52200, Note_on_c, 2, 35, 85
4, 52320, Note_on_c, 2, 35, 0
4, 52320, Note_on_c, 2, 33, 85
4, 52560, Note_on_c, 2, 33, 0
4, 52560, Note_on_c, 2, 35, 85
4, 52680, Note_on_c, 2, 35, 0
4, 52680, Note_on_c, 2, 33, 85
4, 52800, Note_on_c, 2, 33, 0
4, 52800, Note_on_c, 2, 31, 85
4, 52980, Note_on_c, 2, 31, 0
4, 52980, Note_on_c, 2, 32, 85
4, 53040, Note_on_c, 2, 32, 0
4, 53040, Note_on_c, 2, 33, 85
4, 53280, Note_on_c, 2, 33, 0
4, 53280, Note_on_c, 2, 35, 85
4, 53760, Note_on_c, 2, 35, 0
4, 53760, Note_on_c, 2, 40, 85
4, 54000, Note_on_c, 2, 40, 0
4, 54120, Note_on_c, 2, 40, 85
4, 54240, Note_on_c, 2, 40, 0
4, 54240, Note_on_c, 2, 45, 85
4, 54480, Note_on_c, 2, 45, 0
4, 54600, Note_on_c, 2, 47, 85
4, 54720, Note_on_c, 2, 47, 0
4, 54720, Note_on_c, 2, 48, 85
4, 54960, Note_on_c, 2, 48, 0
4, 55080, Note_on_c, 2, 49, 85
4, 55200, Note_on_c, 2, 49, 0
4, 55200, Note_on_c, 2, 47, 85
4, 55440, Note_on_c, 2, 47, 0
4, 55560, Note_on_c, 2, 46, 85
4, 55680, Note_on_c, 2, 46, 0
4, 55680, Note_on_c, 2, 47, 85
4, 55920, Note_on_c, 2, 47, 0
4, 56040, Note_on_c, 2, 42, 85
4, 56160, Note_on_c, 2, 42, 0
4, 56160, Note_on_c, 2, 47, 85
4, 56280, Note_on_c, 2, 47, 0
4, 56280, Note_on_c, 2, 45, 85
4, 56400, Note_on_c, 2, 45, 0
4, 56400, Note_on_c, 2, 43, 85
4, 56640, Note_on_c, 2, 43, 0
4, 56640, Note_on_c, 2, 42, 85
4, 57120, Note_on_c, 2, 42, 0
4, 57120, Note_on_c, 2, 35, 85
4, 57360, Note_on_c, 2, 35, 0
4, 63000, Note_on_c, 2, 35, 85
4, 63120, Note_on_c, 2, 35, 0
4, 63120, Note_on_c, 2, 35, 85
4, 63150, Note_on_c, 2, 35, 0
4, 63150, Note_on_c, 2, 34, 85
4, 63180, Note_on_c, 2, 34, 0
4, 63180, Note_on_c, 2, 35, 85
4, 63360, Note_on_c, 2, 35, 0
4, 63480, Note_on_c, 2, 35, 85
4, 63600, Note_on_c, 2, 35, 0
4, 63600, Note_on_c, 2, 35, 85
4, 63630, Note_on_c, 2, 35, 0
4, 63630, Note_on_c, 2, 34, 85
4, 63660, Note_on_c, 2, 34, 0
4, 63660, Note_on_c, 2, 35, 85
4, 63840, Note_on_c, 2, 35, 0
4, 63960, Note_on_c, 2, 35, 85
4, 64080, Note_on_c, 2, 35, 0
4, 64080, Note_on_c, 2, 28, 85
4, 64200, Note_on_c, 2, 28, 0
4, 64200, Note_on_c, 2, 30, 85
4, 64320, Note_on_c, 2, 30, 0
4, 64320, Note_on_c, 2, 31, 85
4, 64440, Note_on_c, 2, 31, 0
4, 64440, Note_on_c, 2, 35, 85
4, 64560, Note_on_c, 2, 35, 0
4, 64560, Note_on_c, 2, 28, 85
4, 64680, Note_on_c, 2, 28, 0
4, 64680, Note_on_c, 2, 30, 85
4, 64800, Note_on_c, 2, 30, 0
4, 64800, Note_on_c, 2, 31, 85
4, 64920, Note_on_c, 2, 31, 0
4, 64920, Note_on_c, 2, 33, 85
4, 65040, Note_on_c, 2, 33, 0
4, 65040, Note_on_c, 2, 35, 85
4, 65280, Note_on_c, 2, 35, 0
4, 65280, Note_on_c, 2, 28, 85
4, 65760, Note_on_c, 2, 28, 0
4, 65760, End_track
5, 0, Start_track
5, 0, MIDI_port, 0
5, 0, Title_t, "Prelude and Fugue in E minor - BWV 533"
5, 0, End_track
6, 0, Start_track
6, 0, MIDI_port, 0
6, 0, Title_t, "--------------------------------------"
6, 0, End_track
7, 0, Start_track
7, 0, MIDI_port, 0
7, 0, Title_t, "sequenced by Dean Lampe  1/96"
7, 0, End_track
8, 0, Start_track
8, 0, MIDI_port, 0
8, 0, Title_t, "e-mail: dlampe@tic.bisman.com"
8, 0, End_track
9, 0, Start_track
9, 0, MIDI_port, 0
9, 0, Title_t, "http://www.bisman.com/pwp/dlampe/dlampe.html"
9, 0, End_track
10, 0, Start_track
10, 0, MIDI_port, 0
10, 0, Title_t, "--------------------------------------"
10, 0, End_track
11, 0, Start_track
11, 0, MIDI_port, 0
11, 0, Title_t, "courtesy of Dave's J.S. Bach Page"
11, 0, End_track
12, 0, Start_track
12, 0, MIDI_port, 0
12, 0, Title_t, "http://www.unpronounceable.com/bach"
12, 0, End_track
13, 0, Start_track
13, 0, MIDI_port, 0
13, 0, Title_t, "--------------------------------------"
13, 0, End_track
14, 0, Start_track
14, 0, MIDI_port, 0
14, 0, Title_t, "Original Filename: jsbwv533.mid"
14, 0, End_track
0, 0, End_of_file
