0, 0, Header, 1, 15, 240
1, 0, Start_track
1, 0, Title_t, "untitled"
1, 0, SMPTE_offset, 96, 0, 3, 0, 0
1, 0, Time_signature, 4, 2, 24, 8
1, 0, Key_signature, 0, "major"
1, 0, Tempo, 952381
1, 21604, Tempo, 1000000
1, 21840, Tempo, 1071429
1, 21960, Tempo, 1132075
1, 22080, Tempo, 1016949
1, 23040, Tempo, 952381
1, 44404, Tempo, 1052632
1, 44884, Tempo, 952381
1, 49408, Tempo, 1132075
1, 49920, Tempo, 1500000
1, 50880, Time_signature, 6, 3, 12, 8
1, 50880, Tempo, 952381
1, 158160, Tempo, 1016949
1, 158880, Tempo, 1132075
1, 159244, Tempo, 1276596
1, 159420, Tempo, 1395349
1, 159600, Tempo, 1621622
1, 160320, Tempo, 1250000
1, 160320, End_track
2, 0, Start_track
2, 0, MIDI_port, 0
2, 0, Title_t, "Organ"
2, 0, Program_c, 0, 19
2, 0, Control_c, 0, 7, 100
2, 0, Control_c, 0, 10, 64
2, 0, Control_c, 0, 91, 127
2, 60, Note_on_c, 0, 69, 127
2, 120, Note_on_c, 0, 69, 0
2, 120, Note_on_c, 0, 72, 127
2, 180, Note_on_c, 0, 72, 0
2, 180, Note_on_c, 0, 69, 127
2, 240, Note_on_c, 0, 69, 0
2, 240, Note_on_c, 0, 76, 127
2, 300, Note_on_c, 0, 76, 0
2, 300, Note_on_c, 0, 69, 127
2, 360, Note_on_c, 0, 69, 0
2, 360, Note_on_c, 0, 72, 127
2, 420, Note_on_c, 0, 72, 0
2, 420, Note_on_c, 0, 69, 127
2, 480, Note_on_c, 0, 69, 0
2, 480, Note_on_c, 0, 77, 127
2, 540, Note_on_c, 0, 77, 0
2, 540, Note_on_c, 0, 68, 127
2, 600, Note_on_c, 0, 68, 0
2, 600, Note_on_c, 0, 71, 127
2, 660, Note_on_c, 0, 71, 0
2, 660, Note_on_c, 0, 68, 127
2, 720, Note_on_c, 0, 68, 0
2, 720, Note_on_c, 0, 76, 127
2, 780, Note_on_c, 0, 76, 0
2, 780, Note_on_c, 0, 67, 127
2, 840, Note_on_c, 0, 67, 0
2, 840, Note_on_c, 0, 71, 127
2, 900, Note_on_c, 0, 71, 0
2, 900, Note_on_c, 0, 67, 127
2, 960, Note_on_c, 0, 67, 0
2, 960, Note_on_c, 0, 76, 127
2, 1020, Note_on_c, 0, 76, 0
2, 1020, Note_on_c, 0, 66, 127
2, 1080, Note_on_c, 0, 66, 0
2, 1080, Note_on_c, 0, 69, 127
2, 1140, Note_on_c, 0, 69, 0
2, 1140, Note_on_c, 0, 66, 127
2, 1200, Note_on_c, 0, 66, 0
2, 1200, Note_on_c, 0, 74, 127
2, 1260, Note_on_c, 0, 74, 0
2, 1260, Note_on_c, 0, 65, 127
2, 1320, Note_on_c, 0, 65, 0
2, 1320, Note_on_c, 0, 69, 127
2, 1380, Note_on_c, 0, 69, 0
2, 1380, Note_on_c, 0, 65, 127
2, 1440, Note_on_c, 0, 65, 0
2, 1440, Note_on_c, 0, 74, 127
2, 1500, Note_on_c, 0, 74, 0
2, 1500, Note_on_c, 0, 64, 127
2, 1560, Note_on_c, 0, 64, 0
2, 1560, Note_on_c, 0, 68, 127
2, 1620, Note_on_c, 0, 68, 0
2, 1620, Note_on_c, 0, 64, 127
2, 1680, Note_on_c, 0, 64, 0
2, 1680, Note_on_c, 0, 72, 127
2, 1740, Note_on_c, 0, 72, 0
2, 1740, Note_on_c, 0, 64, 127
2, 1800, Note_on_c, 0, 64, 0
2, 1800, Note_on_c, 0, 67, 127
2, 1860, Note_on_c, 0, 67, 0
2, 1860, Note_on_c, 0, 64, 127
2, 1920, Note_on_c, 0, 64, 0
2, 1920, Note_on_c, 0, 72, 127
2, 1980, Note_on_c, 0, 72, 0
2, 1980, Note_on_c, 0, 63, 127
2, 2040, Note_on_c, 0, 63, 0
2, 2040, Note_on_c, 0, 66, 127
2, 2100, Note_on_c, 0, 66, 0
2, 2100, Note_on_c, 0, 63, 127
2, 2160, Note_on_c, 0, 63, 0
2, 2160, Note_on_c, 0, 71, 127
2, 2220, Note_on_c, 0, 71, 0
2, 2220, Note_on_c, 0, 62, 127
2, 2280, Note_on_c, 0, 62, 0
2, 2280, Note_on_c, 0, 65, 127
2, 2340, Note_on_c, 0, 65, 0
2, 2340, Note_on_c, 0, 62, 127
2, 2400, Note_on_c, 0, 62, 0
2, 2400, Note_on_c, 0, 71, 127
2, 2460, Note_on_c, 0, 71, 0
2, 2460, Note_on_c, 0, 61, 127
2, 2520, Note_on_c, 0, 61, 0
2, 2520, Note_on_c, 0, 64, 127
2, 2580, Note_on_c, 0, 64, 0
2, 2580, Note_on_c, 0, 61, 127
2, 2640, Note_on_c, 0, 61, 0
2, 2640, Note_on_c, 0, 69, 127
2, 2700, Note_on_c, 0, 69, 0
2, 2700, Note_on_c, 0, 60, 127
2, 2760, Note_on_c, 0, 60, 0
2, 2760, Note_on_c, 0, 64, 127
2, 2820, Note_on_c, 0, 64, 0
2, 2820, Note_on_c, 0, 60, 127
2, 2880, Note_on_c, 0, 60, 0
2, 2880, Note_on_c, 0, 69, 127
2, 2940, Note_on_c, 0, 69, 0
2, 2940, Note_on_c, 0, 59, 127
2, 3000, Note_on_c, 0, 59, 0
2, 3000, Note_on_c, 0, 62, 127
2, 3060, Note_on_c, 0, 62, 0
2, 3060, Note_on_c, 0, 59, 127
2, 3120, Note_on_c, 0, 59, 0
2, 3120, Note_on_c, 0, 68, 127
2, 3180, Note_on_c, 0, 68, 0
2, 3180, Note_on_c, 0, 59, 127
2, 3240, Note_on_c, 0, 59, 0
2, 3240, Note_on_c, 0, 62, 127
2, 3300, Note_on_c, 0, 62, 0
2, 3300, Note_on_c, 0, 59, 127
2, 3360, Note_on_c, 0, 59, 0
2, 3360, Note_on_c, 0, 67, 127
2, 3400, Note_on_c, 0, 67, 0
2, 3400, Note_on_c, 0, 61, 127
2, 3440, Note_on_c, 0, 61, 0
2, 3440, Note_on_c, 0, 62, 127
2, 3480, Note_on_c, 0, 62, 0
2, 3480, Note_on_c, 0, 64, 127
2, 3520, Note_on_c, 0, 64, 0
2, 3520, Note_on_c, 0, 65, 127
2, 3560, Note_on_c, 0, 65, 0
2, 3560, Note_on_c, 0, 67, 127
2, 3600, Note_on_c, 0, 67, 0
2, 3600, Note_on_c, 0, 65, 127
2, 3640, Note_on_c, 0, 65, 0
2, 3640, Note_on_c, 0, 64, 127
2, 3680, Note_on_c, 0, 64, 0
2, 3680, Note_on_c, 0, 62, 127
2, 3720, Note_on_c, 0, 62, 0
2, 3720, Note_on_c, 0, 61, 127
2, 3760, Note_on_c, 0, 61, 0
2, 3760, Note_on_c, 0, 59, 127
2, 3800, Note_on_c, 0, 59, 0
2, 3800, Note_on_c, 0, 57, 127
2, 3840, Note_on_c, 0, 57, 0
2, 3840, Note_on_c, 0, 62, 127
2, 3880, Note_on_c, 0, 62, 0
2, 3880, Note_on_c, 0, 64, 127
2, 3920, Note_on_c, 0, 64, 0
2, 3920, Note_on_c, 0, 65, 127
2, 3960, Note_on_c, 0, 65, 0
2, 3960, Note_on_c, 0, 64, 127
2, 4000, Note_on_c, 0, 64, 0
2, 4000, Note_on_c, 0, 62, 127
2, 4040, Note_on_c, 0, 62, 0
2, 4040, Note_on_c, 0, 60, 127
2, 4080, Note_on_c, 0, 60, 0
2, 4080, Note_on_c, 0, 59, 127
2, 4120, Note_on_c, 0, 59, 0
2, 4120, Note_on_c, 0, 60, 127
2, 4160, Note_on_c, 0, 60, 0
2, 4160, Note_on_c, 0, 62, 127
2, 4200, Note_on_c, 0, 62, 0
2, 4200, Note_on_c, 0, 60, 127
2, 4240, Note_on_c, 0, 60, 0
2, 4240, Note_on_c, 0, 59, 127
2, 4280, Note_on_c, 0, 59, 0
2, 4280, Note_on_c, 0, 57, 127
2, 4320, Note_on_c, 0, 57, 0
2, 4320, Note_on_c, 0, 56, 127
2, 4360, Note_on_c, 0, 56, 0
2, 4360, Note_on_c, 0, 57, 127
2, 4400, Note_on_c, 0, 57, 0
2, 4400, Note_on_c, 0, 59, 127
2, 4440, Note_on_c, 0, 59, 0
2, 4440, Note_on_c, 0, 52, 127
2, 4480, Note_on_c, 0, 52, 0
2, 4480, Note_on_c, 0, 56, 127
2, 4520, Note_on_c, 0, 56, 0
2, 4520, Note_on_c, 0, 59, 127
2, 4560, Note_on_c, 0, 59, 0
2, 4560, Note_on_c, 0, 62, 127
2, 4600, Note_on_c, 0, 62, 0
2, 4600, Note_on_c, 0, 60, 127
2, 4640, Note_on_c, 0, 60, 0
2, 4640, Note_on_c, 0, 59, 127
2, 4680, Note_on_c, 0, 59, 0
2, 4680, Note_on_c, 0, 65, 127
2, 4720, Note_on_c, 0, 65, 0
2, 4720, Note_on_c, 0, 64, 127
2, 4760, Note_on_c, 0, 64, 0
2, 4760, Note_on_c, 0, 62, 127
2, 4800, Note_on_c, 0, 62, 0
2, 4800, Note_on_c, 0, 60, 127
2, 4840, Note_on_c, 0, 60, 0
2, 4840, Note_on_c, 0, 57, 127
2, 4880, Note_on_c, 0, 57, 0
2, 4880, Note_on_c, 0, 59, 127
2, 4920, Note_on_c, 0, 59, 0
2, 4920, Note_on_c, 0, 60, 127
2, 4960, Note_on_c, 0, 60, 0
2, 4960, Note_on_c, 0, 62, 127
2, 5000, Note_on_c, 0, 62, 0
2, 5000, Note_on_c, 0, 64, 127
2, 5040, Note_on_c, 0, 64, 0
2, 5040, Note_on_c, 0, 65, 127
2, 5080, Note_on_c, 0, 65, 0
2, 5080, Note_on_c, 0, 64, 127
2, 5120, Note_on_c, 0, 64, 0
2, 5120, Note_on_c, 0, 62, 127
2, 5160, Note_on_c, 0, 62, 0
2, 5160, Note_on_c, 0, 60, 127
2, 5200, Note_on_c, 0, 60, 0
2, 5200, Note_on_c, 0, 59, 127
2, 5240, Note_on_c, 0, 59, 0
2, 5240, Note_on_c, 0, 57, 127
2, 5280, Note_on_c, 0, 57, 0
2, 5280, Note_on_c, 0, 56, 127
2, 5340, Note_on_c, 0, 56, 0
2, 5340, Note_on_c, 0, 65, 127
2, 5400, Note_on_c, 0, 65, 0
2, 5400, Note_on_c, 0, 59, 127
2, 5460, Note_on_c, 0, 59, 0
2, 5460, Note_on_c, 0, 65, 127
2, 5520, Note_on_c, 0, 65, 0
2, 5520, Note_on_c, 0, 55, 127
2, 5580, Note_on_c, 0, 55, 0
2, 5580, Note_on_c, 0, 64, 127
2, 5640, Note_on_c, 0, 64, 0
2, 5640, Note_on_c, 0, 59, 127
2, 5700, Note_on_c, 0, 59, 0
2, 5700, Note_on_c, 0, 64, 127
2, 5760, Note_on_c, 0, 64, 0
2, 5760, Note_on_c, 0, 54, 127
2, 5820, Note_on_c, 0, 54, 0
2, 5820, Note_on_c, 0, 64, 127
2, 5880, Note_on_c, 0, 64, 0
2, 5880, Note_on_c, 0, 57, 127
2, 5940, Note_on_c, 0, 57, 0
2, 5940, Note_on_c, 0, 64, 127
2, 6000, Note_on_c, 0, 64, 0
2, 6000, Note_on_c, 0, 53, 127
2, 6060, Note_on_c, 0, 53, 0
2, 6060, Note_on_c, 0, 62, 127
2, 6120, Note_on_c, 0, 62, 0
2, 6120, Note_on_c, 0, 57, 127
2, 6180, Note_on_c, 0, 57, 0
2, 6180, Note_on_c, 0, 62, 127
2, 6240, Note_on_c, 0, 62, 0
2, 6240, Note_on_c, 0, 52, 127
2, 6300, Note_on_c, 0, 52, 0
2, 6300, Note_on_c, 0, 62, 127
2, 6360, Note_on_c, 0, 62, 0
2, 6360, Note_on_c, 0, 56, 127
2, 6420, Note_on_c, 0, 56, 0
2, 6420, Note_on_c, 0, 62, 127
2, 6480, Note_on_c, 0, 62, 0
2, 6480, Note_on_c, 0, 52, 127
2, 6540, Note_on_c, 0, 52, 0
2, 6540, Note_on_c, 0, 60, 127
2, 6600, Note_on_c, 0, 60, 0
2, 6600, Note_on_c, 0, 55, 127
2, 6660, Note_on_c, 0, 55, 0
2, 6660, Note_on_c, 0, 60, 127
2, 6720, Note_on_c, 0, 60, 0
2, 6720, Note_on_c, 0, 51, 127
2, 6780, Note_on_c, 0, 51, 0
2, 6780, Note_on_c, 0, 60, 127
2, 6840, Note_on_c, 0, 60, 0
2, 6840, Note_on_c, 0, 54, 127
2, 6900, Note_on_c, 0, 54, 0
2, 6900, Note_on_c, 0, 60, 127
2, 6960, Note_on_c, 0, 60, 0
2, 6960, Note_on_c, 0, 50, 127
2, 7020, Note_on_c, 0, 50, 0
2, 7020, Note_on_c, 0, 59, 127
2, 7080, Note_on_c, 0, 59, 0
2, 7080, Note_on_c, 0, 53, 127
2, 7140, Note_on_c, 0, 53, 0
2, 7140, Note_on_c, 0, 59, 127
2, 7200, Note_on_c, 0, 59, 0
2, 7200, Note_on_c, 0, 49, 127
2, 7260, Note_on_c, 0, 49, 0
2, 7260, Note_on_c, 0, 59, 127
2, 7320, Note_on_c, 0, 59, 0
2, 7320, Note_on_c, 0, 52, 127
2, 7380, Note_on_c, 0, 52, 0
2, 7380, Note_on_c, 0, 59, 127
2, 7440, Note_on_c, 0, 59, 0
2, 7440, Note_on_c, 0, 48, 127
2, 7500, Note_on_c, 0, 48, 0
2, 7500, Note_on_c, 0, 57, 127
2, 7560, Note_on_c, 0, 57, 0
2, 7560, Note_on_c, 0, 52, 127
2, 7620, Note_on_c, 0, 52, 0
2, 7620, Note_on_c, 0, 57, 127
2, 7680, Note_on_c, 0, 57, 0
2, 7680, Note_on_c, 0, 47, 127
2, 7740, Note_on_c, 0, 47, 0
2, 7740, Note_on_c, 0, 57, 127
2, 7800, Note_on_c, 0, 57, 0
2, 7800, Note_on_c, 0, 50, 127
2, 7860, Note_on_c, 0, 50, 0
2, 7860, Note_on_c, 0, 57, 127
2, 7920, Note_on_c, 0, 57, 0
2, 7920, Note_on_c, 0, 47, 127
2, 7980, Note_on_c, 0, 47, 0
2, 7980, Note_on_c, 0, 56, 127
2, 8040, Note_on_c, 0, 56, 0
2, 8040, Note_on_c, 0, 50, 127
2, 8100, Note_on_c, 0, 50, 0
2, 8100, Note_on_c, 0, 56, 127
2, 8160, Note_on_c, 0, 56, 0
2, 8160, Note_on_c, 0, 45, 127
2, 8200, Note_on_c, 0, 45, 0
2, 8200, Note_on_c, 0, 48, 127
2, 8240, Note_on_c, 0, 48, 0
2, 8240, Note_on_c, 0, 52, 127
2, 8280, Note_on_c, 0, 52, 0
2, 8280, Note_on_c, 0, 59, 127
2, 8320, Note_on_c, 0, 59, 0
2, 8320, Note_on_c, 0, 56, 127
2, 8360, Note_on_c, 0, 56, 0
2, 8360, Note_on_c, 0, 57, 127
2, 8400, Note_on_c, 0, 57, 0
2, 8400, Note_on_c, 0, 47, 127
2, 8440, Note_on_c, 0, 47, 0
2, 8440, Note_on_c, 0, 50, 127
2, 8480, Note_on_c, 0, 50, 0
2, 8480, Note_on_c, 0, 52, 127
2, 8520, Note_on_c, 0, 52, 0
2, 8520, Note_on_c, 0, 59, 127
2, 8560, Note_on_c, 0, 59, 0
2, 8560, Note_on_c, 0, 56, 127
2, 8600, Note_on_c, 0, 56, 0
2, 8600, Note_on_c, 0, 57, 127
2, 8640, Note_on_c, 0, 57, 0
2, 8640, Note_on_c, 0, 48, 127
2, 8680, Note_on_c, 0, 48, 0
2, 8680, Note_on_c, 0, 52, 127
2, 8720, Note_on_c, 0, 52, 0
2, 8720, Note_on_c, 0, 57, 127
2, 8760, Note_on_c, 0, 57, 0
2, 8760, Note_on_c, 0, 59, 127
2, 8800, Note_on_c, 0, 59, 0
2, 8800, Note_on_c, 0, 56, 127
2, 8840, Note_on_c, 0, 56, 0
2, 8840, Note_on_c, 0, 57, 127
2, 8880, Note_on_c, 0, 57, 0
2, 8880, Note_on_c, 0, 50, 127
2, 8920, Note_on_c, 0, 50, 0
2, 8920, Note_on_c, 0, 53, 127
2, 8960, Note_on_c, 0, 53, 0
2, 8960, Note_on_c, 0, 57, 127
2, 9000, Note_on_c, 0, 57, 0
2, 9000, Note_on_c, 0, 59, 127
2, 9040, Note_on_c, 0, 59, 0
2, 9040, Note_on_c, 0, 56, 127
2, 9080, Note_on_c, 0, 56, 0
2, 9080, Note_on_c, 0, 57, 127
2, 9120, Note_on_c, 0, 57, 0
2, 9120, Note_on_c, 0, 52, 127
2, 9160, Note_on_c, 0, 52, 0
2, 9160, Note_on_c, 0, 57, 127
2, 9200, Note_on_c, 0, 57, 0
2, 9200, Note_on_c, 0, 60, 127
2, 9240, Note_on_c, 0, 60, 0
2, 9240, Note_on_c, 0, 59, 127
2, 9280, Note_on_c, 0, 59, 0
2, 9280, Note_on_c, 0, 56, 127
2, 9320, Note_on_c, 0, 56, 0
2, 9320, Note_on_c, 0, 57, 127
2, 9360, Note_on_c, 0, 57, 0
2, 9360, Note_on_c, 0, 53, 127
2, 9400, Note_on_c, 0, 53, 0
2, 9400, Note_on_c, 0, 57, 127
2, 9440, Note_on_c, 0, 57, 0
2, 9440, Note_on_c, 0, 62, 127
2, 9480, Note_on_c, 0, 62, 0
2, 9480, Note_on_c, 0, 59, 127
2, 9520, Note_on_c, 0, 59, 0
2, 9520, Note_on_c, 0, 56, 127
2, 9560, Note_on_c, 0, 56, 0
2, 9560, Note_on_c, 0, 57, 127
2, 9600, Note_on_c, 0, 57, 0
2, 9600, Note_on_c, 0, 52, 127
2, 9640, Note_on_c, 0, 57, 127
2, 9680, Note_on_c, 0, 57, 0
2, 9680, Note_on_c, 0, 60, 127
2, 9720, Note_on_c, 0, 60, 0
2, 9720, Note_on_c, 0, 64, 127
2, 9760, Note_on_c, 0, 64, 0
2, 9760, Note_on_c, 0, 68, 127
2, 9800, Note_on_c, 0, 68, 0
2, 9800, Note_on_c, 0, 69, 127
2, 9828, Note_on_c, 0, 52, 0
2, 9840, Note_on_c, 0, 69, 0
2, 9840, Note_on_c, 0, 53, 127
2, 9880, Note_on_c, 0, 57, 127
2, 9920, Note_on_c, 0, 57, 0
2, 9920, Note_on_c, 0, 62, 127
2, 9960, Note_on_c, 0, 62, 0
2, 9960, Note_on_c, 0, 65, 127
2, 10000, Note_on_c, 0, 65, 0
2, 10000, Note_on_c, 0, 68, 127
2, 10040, Note_on_c, 0, 68, 0
2, 10040, Note_on_c, 0, 69, 127
2, 10068, Note_on_c, 0, 53, 0
2, 10080, Note_on_c, 0, 69, 0
2, 10080, Note_on_c, 0, 52, 127
2, 10120, Note_on_c, 0, 57, 127
2, 10160, Note_on_c, 0, 57, 0
2, 10160, Note_on_c, 0, 60, 127
2, 10200, Note_on_c, 0, 60, 0
2, 10200, Note_on_c, 0, 64, 127
2, 10240, Note_on_c, 0, 64, 0
2, 10240, Note_on_c, 0, 68, 127
2, 10280, Note_on_c, 0, 68, 0
2, 10280, Note_on_c, 0, 69, 127
2, 10308, Note_on_c, 0, 52, 0
2, 10320, Note_on_c, 0, 69, 0
2, 10320, Note_on_c, 0, 50, 127
2, 10360, Note_on_c, 0, 56, 127
2, 10400, Note_on_c, 0, 56, 0
2, 10400, Note_on_c, 0, 59, 127
2, 10440, Note_on_c, 0, 59, 0
2, 10440, Note_on_c, 0, 65, 127
2, 10480, Note_on_c, 0, 65, 0
2, 10480, Note_on_c, 0, 64, 127
2, 10520, Note_on_c, 0, 64, 0
2, 10520, Note_on_c, 0, 62, 127
2, 10548, Note_on_c, 0, 50, 0
2, 10560, Note_on_c, 0, 62, 0
2, 10560, Note_on_c, 0, 52, 127
2, 10600, Note_on_c, 0, 52, 0
2, 10600, Note_on_c, 0, 57, 127
2, 10640, Note_on_c, 0, 57, 0
2, 10640, Note_on_c, 0, 60, 127
2, 10680, Note_on_c, 0, 60, 0
2, 10680, Note_on_c, 0, 64, 127
2, 10720, Note_on_c, 0, 64, 0
2, 10720, Note_on_c, 0, 56, 127
2, 10760, Note_on_c, 0, 56, 0
2, 10760, Note_on_c, 0, 57, 127
2, 10800, Note_on_c, 0, 57, 0
2, 10800, Note_on_c, 0, 53, 127
2, 10840, Note_on_c, 0, 53, 0
2, 10840, Note_on_c, 0, 57, 127
2, 10880, Note_on_c, 0, 57, 0
2, 10880, Note_on_c, 0, 62, 127
2, 10920, Note_on_c, 0, 62, 0
2, 10920, Note_on_c, 0, 64, 127
2, 10960, Note_on_c, 0, 64, 0
2, 10960, Note_on_c, 0, 56, 127
2, 11000, Note_on_c, 0, 56, 0
2, 11000, Note_on_c, 0, 57, 127
2, 11040, Note_on_c, 0, 57, 0
2, 11040, Note_on_c, 0, 52, 127
2, 11080, Note_on_c, 0, 52, 0
2, 11080, Note_on_c, 0, 57, 127
2, 11120, Note_on_c, 0, 57, 0
2, 11120, Note_on_c, 0, 60, 127
2, 11160, Note_on_c, 0, 60, 0
2, 11160, Note_on_c, 0, 64, 127
2, 11200, Note_on_c, 0, 64, 0
2, 11200, Note_on_c, 0, 56, 127
2, 11240, Note_on_c, 0, 56, 0
2, 11240, Note_on_c, 0, 57, 127
2, 11280, Note_on_c, 0, 57, 0
2, 11280, Note_on_c, 0, 50, 127
2, 11320, Note_on_c, 0, 50, 0
2, 11320, Note_on_c, 0, 56, 127
2, 11360, Note_on_c, 0, 56, 0
2, 11360, Note_on_c, 0, 59, 127
2, 11400, Note_on_c, 0, 59, 0
2, 11400, Note_on_c, 0, 64, 127
2, 11440, Note_on_c, 0, 64, 0
2, 11440, Note_on_c, 0, 56, 127
2, 11480, Note_on_c, 0, 56, 0
2, 11480, Note_on_c, 0, 57, 127
2, 11520, Note_on_c, 0, 57, 0
2, 11520, Note_on_c, 0, 48, 127
2, 11560, Note_on_c, 0, 52, 127
2, 11600, Note_on_c, 0, 52, 0
2, 11600, Note_on_c, 0, 57, 127
2, 11640, Note_on_c, 0, 57, 0
2, 11640, Note_on_c, 0, 60, 127
2, 11680, Note_on_c, 0, 60, 0
2, 11680, Note_on_c, 0, 62, 127
2, 11720, Note_on_c, 0, 62, 0
2, 11720, Note_on_c, 0, 64, 127
2, 11748, Note_on_c, 0, 48, 0
2, 11760, Note_on_c, 0, 64, 0
2, 11760, Note_on_c, 0, 50, 127
2, 11800, Note_on_c, 0, 53, 127
2, 11840, Note_on_c, 0, 53, 0
2, 11840, Note_on_c, 0, 57, 127
2, 11880, Note_on_c, 0, 57, 0
2, 11880, Note_on_c, 0, 62, 127
2, 11920, Note_on_c, 0, 62, 0
2, 11920, Note_on_c, 0, 64, 127
2, 11960, Note_on_c, 0, 64, 0
2, 11960, Note_on_c, 0, 65, 127
2, 11988, Note_on_c, 0, 50, 0
2, 12000, Note_on_c, 0, 65, 0
2, 12000, Note_on_c, 0, 48, 127
2, 12040, Note_on_c, 0, 52, 127
2, 12080, Note_on_c, 0, 52, 0
2, 12080, Note_on_c, 0, 57, 127
2, 12120, Note_on_c, 0, 57, 0
2, 12120, Note_on_c, 0, 60, 127
2, 12160, Note_on_c, 0, 60, 0
2, 12160, Note_on_c, 0, 62, 127
2, 12200, Note_on_c, 0, 62, 0
2, 12200, Note_on_c, 0, 64, 127
2, 12228, Note_on_c, 0, 48, 0
2, 12240, Note_on_c, 0, 64, 0
2, 12240, Note_on_c, 0, 47, 127
2, 12280, Note_on_c, 0, 50, 127
2, 12320, Note_on_c, 0, 50, 0
2, 12320, Note_on_c, 0, 56, 127
2, 12360, Note_on_c, 0, 56, 0
2, 12360, Note_on_c, 0, 59, 127
2, 12400, Note_on_c, 0, 59, 0
2, 12400, Note_on_c, 0, 60, 127
2, 12440, Note_on_c, 0, 60, 0
2, 12440, Note_on_c, 0, 62, 127
2, 12472, Note_on_c, 0, 47, 0
2, 12480, Note_on_c, 0, 62, 0
2, 12480, Note_on_c, 0, 45, 127
2, 12520, Note_on_c, 0, 45, 0
2, 12520, Note_on_c, 0, 52, 127
2, 12560, Note_on_c, 0, 52, 0
2, 12560, Note_on_c, 0, 57, 127
2, 12600, Note_on_c, 0, 57, 0
2, 12600, Note_on_c, 0, 60, 127
2, 12640, Note_on_c, 0, 60, 0
2, 12640, Note_on_c, 0, 56, 127
2, 12680, Note_on_c, 0, 56, 0
2, 12680, Note_on_c, 0, 57, 127
2, 12720, Note_on_c, 0, 57, 0
2, 12720, Note_on_c, 0, 47, 127
2, 12760, Note_on_c, 0, 47, 0
2, 12760, Note_on_c, 0, 52, 127
2, 12800, Note_on_c, 0, 52, 0
2, 12800, Note_on_c, 0, 57, 127
2, 12840, Note_on_c, 0, 57, 0
2, 12840, Note_on_c, 0, 62, 127
2, 12880, Note_on_c, 0, 62, 0
2, 12880, Note_on_c, 0, 56, 127
2, 12920, Note_on_c, 0, 56, 0
2, 12920, Note_on_c, 0, 57, 127
2, 12960, Note_on_c, 0, 57, 0
2, 12960, Note_on_c, 0, 48, 127
2, 13000, Note_on_c, 0, 48, 0
2, 13000, Note_on_c, 0, 52, 127
2, 13040, Note_on_c, 0, 52, 0
2, 13040, Note_on_c, 0, 57, 127
2, 13080, Note_on_c, 0, 57, 0
2, 13080, Note_on_c, 0, 64, 127
2, 13120, Note_on_c, 0, 64, 0
2, 13120, Note_on_c, 0, 56, 127
2, 13160, Note_on_c, 0, 56, 0
2, 13160, Note_on_c, 0, 57, 127
2, 13200, Note_on_c, 0, 57, 0
2, 13200, Note_on_c, 0, 49, 127
2, 13240, Note_on_c, 0, 49, 0
2, 13240, Note_on_c, 0, 52, 127
2, 13280, Note_on_c, 0, 52, 0
2, 13280, Note_on_c, 0, 55, 127
2, 13320, Note_on_c, 0, 55, 0
2, 13320, Note_on_c, 0, 64, 127
2, 13360, Note_on_c, 0, 64, 0
2, 13360, Note_on_c, 0, 56, 127
2, 13400, Note_on_c, 0, 56, 0
2, 13400, Note_on_c, 0, 57, 127
2, 13440, Note_on_c, 0, 57, 0
2, 13440, Note_on_c, 0, 50, 127
2, 13480, Note_on_c, 0, 53, 127
2, 13520, Note_on_c, 0, 53, 0
2, 13520, Note_on_c, 0, 57, 127
2, 13560, Note_on_c, 0, 57, 0
2, 13560, Note_on_c, 0, 62, 127
2, 13600, Note_on_c, 0, 62, 0
2, 13600, Note_on_c, 0, 64, 127
2, 13640, Note_on_c, 0, 64, 0
2, 13640, Note_on_c, 0, 65, 127
2, 13668, Note_on_c, 0, 50, 0
2, 13680, Note_on_c, 0, 65, 0
2, 13680, Note_on_c, 0, 49, 127
2, 13720, Note_on_c, 0, 52, 127
2, 13760, Note_on_c, 0, 52, 0
2, 13760, Note_on_c, 0, 57, 127
2, 13800, Note_on_c, 0, 57, 0
2, 13800, Note_on_c, 0, 64, 127
2, 13840, Note_on_c, 0, 64, 0
2, 13840, Note_on_c, 0, 65, 127
2, 13880, Note_on_c, 0, 65, 0
2, 13880, Note_on_c, 0, 67, 127
2, 13908, Note_on_c, 0, 49, 0
2, 13920, Note_on_c, 0, 67, 0
2, 13920, Note_on_c, 0, 50, 127
2, 13960, Note_on_c, 0, 53, 127
2, 14000, Note_on_c, 0, 53, 0
2, 14000, Note_on_c, 0, 57, 127
2, 14040, Note_on_c, 0, 57, 0
2, 14040, Note_on_c, 0, 62, 127
2, 14080, Note_on_c, 0, 62, 0
2, 14080, Note_on_c, 0, 64, 127
2, 14120, Note_on_c, 0, 64, 0
2, 14120, Note_on_c, 0, 65, 127
2, 14144, Note_on_c, 0, 50, 0
2, 14160, Note_on_c, 0, 65, 0
2, 14160, Note_on_c, 0, 52, 127
2, 14200, Note_on_c, 0, 55, 127
2, 14240, Note_on_c, 0, 55, 0
2, 14240, Note_on_c, 0, 57, 127
2, 14280, Note_on_c, 0, 57, 0
2, 14280, Note_on_c, 0, 61, 127
2, 14320, Note_on_c, 0, 61, 0
2, 14320, Note_on_c, 0, 62, 127
2, 14360, Note_on_c, 0, 62, 0
2, 14360, Note_on_c, 0, 64, 127
2, 14388, Note_on_c, 0, 52, 0
2, 14400, Note_on_c, 0, 64, 0
2, 14400, Note_on_c, 0, 53, 127
2, 14440, Note_on_c, 0, 53, 0
2, 14440, Note_on_c, 0, 57, 127
2, 14480, Note_on_c, 0, 57, 0
2, 14480, Note_on_c, 0, 62, 127
2, 14520, Note_on_c, 0, 62, 0
2, 14520, Note_on_c, 0, 64, 127
2, 14560, Note_on_c, 0, 64, 0
2, 14560, Note_on_c, 0, 61, 127
2, 14600, Note_on_c, 0, 61, 0
2, 14600, Note_on_c, 0, 62, 127
2, 14640, Note_on_c, 0, 62, 0
2, 14640, Note_on_c, 0, 55, 127
2, 14680, Note_on_c, 0, 55, 0
2, 14680, Note_on_c, 0, 58, 127
2, 14720, Note_on_c, 0, 58, 0
2, 14720, Note_on_c, 0, 62, 127
2, 14760, Note_on_c, 0, 62, 0
2, 14760, Note_on_c, 0, 64, 127
2, 14800, Note_on_c, 0, 64, 0
2, 14800, Note_on_c, 0, 61, 127
2, 14840, Note_on_c, 0, 61, 0
2, 14840, Note_on_c, 0, 62, 127
2, 14880, Note_on_c, 0, 62, 0
2, 14880, Note_on_c, 0, 57, 127
2, 14920, Note_on_c, 0, 57, 0
2, 14920, Note_on_c, 0, 62, 127
2, 14960, Note_on_c, 0, 62, 0
2, 14960, Note_on_c, 0, 65, 127
2, 15000, Note_on_c, 0, 65, 0
2, 15000, Note_on_c, 0, 64, 127
2, 15040, Note_on_c, 0, 64, 0
2, 15040, Note_on_c, 0, 61, 127
2, 15080, Note_on_c, 0, 61, 0
2, 15080, Note_on_c, 0, 62, 127
2, 15120, Note_on_c, 0, 62, 0
2, 15120, Note_on_c, 0, 58, 127
2, 15160, Note_on_c, 0, 58, 0
2, 15160, Note_on_c, 0, 62, 127
2, 15200, Note_on_c, 0, 62, 0
2, 15200, Note_on_c, 0, 67, 127
2, 15240, Note_on_c, 0, 67, 0
2, 15240, Note_on_c, 0, 64, 127
2, 15280, Note_on_c, 0, 64, 0
2, 15280, Note_on_c, 0, 61, 127
2, 15320, Note_on_c, 0, 61, 0
2, 15320, Note_on_c, 0, 62, 127
2, 15360, Note_on_c, 0, 62, 0
2, 15360, Note_on_c, 0, 57, 127
2, 15400, Note_on_c, 0, 62, 127
2, 15440, Note_on_c, 0, 62, 0
2, 15440, Note_on_c, 0, 65, 127
2, 15480, Note_on_c, 0, 65, 0
2, 15480, Note_on_c, 0, 69, 127
2, 15520, Note_on_c, 0, 69, 0
2, 15520, Note_on_c, 0, 73, 127
2, 15560, Note_on_c, 0, 73, 0
2, 15560, Note_on_c, 0, 74, 127
2, 15588, Note_on_c, 0, 57, 0
2, 15600, Note_on_c, 0, 74, 0
2, 15600, Note_on_c, 0, 58, 127
2, 15640, Note_on_c, 0, 62, 127
2, 15680, Note_on_c, 0, 62, 0
2, 15680, Note_on_c, 0, 67, 127
2, 15720, Note_on_c, 0, 67, 0
2, 15720, Note_on_c, 0, 70, 127
2, 15760, Note_on_c, 0, 70, 0
2, 15760, Note_on_c, 0, 73, 127
2, 15800, Note_on_c, 0, 73, 0
2, 15800, Note_on_c, 0, 74, 127
2, 15828, Note_on_c, 0, 58, 0
2, 15840, Note_on_c, 0, 74, 0
2, 15840, Note_on_c, 0, 57, 127
2, 15880, Note_on_c, 0, 62, 127
2, 15920, Note_on_c, 0, 62, 0
2, 15920, Note_on_c, 0, 65, 127
2, 15960, Note_on_c, 0, 65, 0
2, 15960, Note_on_c, 0, 69, 127
2, 16000, Note_on_c, 0, 69, 0
2, 16000, Note_on_c, 0, 73, 127
2, 16040, Note_on_c, 0, 73, 0
2, 16040, Note_on_c, 0, 74, 127
2, 16068, Note_on_c, 0, 57, 0
2, 16080, Note_on_c, 0, 74, 0
2, 16080, Note_on_c, 0, 55, 127
2, 16120, Note_on_c, 0, 61, 127
2, 16160, Note_on_c, 0, 61, 0
2, 16160, Note_on_c, 0, 64, 127
2, 16200, Note_on_c, 0, 64, 0
2, 16200, Note_on_c, 0, 70, 127
2, 16240, Note_on_c, 0, 70, 0
2, 16240, Note_on_c, 0, 69, 127
2, 16280, Note_on_c, 0, 69, 0
2, 16280, Note_on_c, 0, 67, 127
2, 16308, Note_on_c, 0, 55, 0
2, 16320, Note_on_c, 0, 67, 0
2, 16320, Note_on_c, 0, 57, 127
2, 16360, Note_on_c, 0, 57, 0
2, 16360, Note_on_c, 0, 62, 127
2, 16400, Note_on_c, 0, 62, 0
2, 16400, Note_on_c, 0, 65, 127
2, 16440, Note_on_c, 0, 65, 0
2, 16440, Note_on_c, 0, 69, 127
2, 16480, Note_on_c, 0, 69, 0
2, 16480, Note_on_c, 0, 61, 127
2, 16520, Note_on_c, 0, 61, 0
2, 16520, Note_on_c, 0, 62, 127
2, 16560, Note_on_c, 0, 62, 0
2, 16560, Note_on_c, 0, 58, 127
2, 16600, Note_on_c, 0, 58, 0
2, 16600, Note_on_c, 0, 61, 127
2, 16640, Note_on_c, 0, 61, 0
2, 16640, Note_on_c, 0, 62, 127
2, 16680, Note_on_c, 0, 62, 0
2, 16680, Note_on_c, 0, 67, 127
2, 16720, Note_on_c, 0, 67, 0
2, 16720, Note_on_c, 0, 61, 127
2, 16760, Note_on_c, 0, 61, 0
2, 16760, Note_on_c, 0, 62, 127
2, 16800, Note_on_c, 0, 62, 0
2, 16800, Note_on_c, 0, 57, 127
2, 16840, Note_on_c, 0, 57, 0
2, 16840, Note_on_c, 0, 62, 127
2, 16880, Note_on_c, 0, 62, 0
2, 16880, Note_on_c, 0, 65, 127
2, 16920, Note_on_c, 0, 65, 0
2, 16920, Note_on_c, 0, 69, 127
2, 16960, Note_on_c, 0, 69, 0
2, 16960, Note_on_c, 0, 61, 127
2, 17000, Note_on_c, 0, 61, 0
2, 17000, Note_on_c, 0, 62, 127
2, 17040, Note_on_c, 0, 62, 0
2, 17040, Note_on_c, 0, 55, 127
2, 17080, Note_on_c, 0, 55, 0
2, 17080, Note_on_c, 0, 61, 127
2, 17120, Note_on_c, 0, 61, 0
2, 17120, Note_on_c, 0, 64, 127
2, 17160, Note_on_c, 0, 64, 0
2, 17160, Note_on_c, 0, 69, 127
2, 17200, Note_on_c, 0, 69, 0
2, 17200, Note_on_c, 0, 61, 127
2, 17240, Note_on_c, 0, 61, 0
2, 17240, Note_on_c, 0, 62, 127
2, 17280, Note_on_c, 0, 62, 0
2, 17280, Note_on_c, 0, 53, 127
2, 17320, Note_on_c, 0, 57, 127
2, 17360, Note_on_c, 0, 57, 0
2, 17360, Note_on_c, 0, 62, 127
2, 17400, Note_on_c, 0, 62, 0
2, 17400, Note_on_c, 0, 65, 127
2, 17440, Note_on_c, 0, 65, 0
2, 17440, Note_on_c, 0, 67, 127
2, 17480, Note_on_c, 0, 67, 0
2, 17480, Note_on_c, 0, 69, 127
2, 17508, Note_on_c, 0, 53, 0
2, 17520, Note_on_c, 0, 69, 0
2, 17520, Note_on_c, 0, 55, 127
2, 17560, Note_on_c, 0, 61, 127
2, 17600, Note_on_c, 0, 61, 0
2, 17600, Note_on_c, 0, 64, 127
2, 17640, Note_on_c, 0, 64, 0
2, 17640, Note_on_c, 0, 67, 127
2, 17680, Note_on_c, 0, 67, 0
2, 17680, Note_on_c, 0, 69, 127
2, 17720, Note_on_c, 0, 69, 0
2, 17720, Note_on_c, 0, 70, 127
2, 17748, Note_on_c, 0, 55, 0
2, 17760, Note_on_c, 0, 70, 0
2, 17760, Note_on_c, 0, 53, 127
2, 17800, Note_on_c, 0, 57, 127
2, 17840, Note_on_c, 0, 57, 0
2, 17840, Note_on_c, 0, 62, 127
2, 17880, Note_on_c, 0, 62, 0
2, 17880, Note_on_c, 0, 65, 127
2, 17920, Note_on_c, 0, 65, 0
2, 17920, Note_on_c, 0, 67, 127
2, 17960, Note_on_c, 0, 67, 0
2, 17960, Note_on_c, 0, 69, 127
2, 17984, Note_on_c, 0, 53, 0
2, 18000, Note_on_c, 0, 69, 0
2, 18000, Note_on_c, 0, 52, 127
2, 18040, Note_on_c, 0, 55, 127
2, 18080, Note_on_c, 0, 55, 0
2, 18080, Note_on_c, 0, 61, 127
2, 18120, Note_on_c, 0, 61, 0
2, 18120, Note_on_c, 0, 64, 127
2, 18160, Note_on_c, 0, 64, 0
2, 18160, Note_on_c, 0, 65, 127
2, 18200, Note_on_c, 0, 65, 0
2, 18200, Note_on_c, 0, 67, 127
2, 18228, Note_on_c, 0, 52, 0
2, 18240, Note_on_c, 0, 67, 0
2, 18240, Note_on_c, 0, 50, 127
2, 18280, Note_on_c, 0, 50, 0
2, 18280, Note_on_c, 0, 57, 127
2, 18320, Note_on_c, 0, 57, 0
2, 18320, Note_on_c, 0, 62, 127
2, 18360, Note_on_c, 0, 62, 0
2, 18360, Note_on_c, 0, 65, 127
2, 18400, Note_on_c, 0, 65, 0
2, 18400, Note_on_c, 0, 61, 127
2, 18440, Note_on_c, 0, 61, 0
2, 18440, Note_on_c, 0, 62, 127
2, 18480, Note_on_c, 0, 62, 0
2, 18480, Note_on_c, 0, 52, 127
2, 18520, Note_on_c, 0, 52, 0
2, 18520, Note_on_c, 0, 55, 127
2, 18560, Note_on_c, 0, 55, 0
2, 18560, Note_on_c, 0, 58, 127
2, 18600, Note_on_c, 0, 58, 0
2, 18600, Note_on_c, 0, 67, 127
2, 18640, Note_on_c, 0, 67, 0
2, 18640, Note_on_c, 0, 61, 127
2, 18680, Note_on_c, 0, 61, 0
2, 18680, Note_on_c, 0, 62, 127
2, 18720, Note_on_c, 0, 62, 0
2, 18720, Note_on_c, 0, 54, 127
2, 18760, Note_on_c, 0, 54, 0
2, 18760, Note_on_c, 0, 57, 127
2, 18800, Note_on_c, 0, 57, 0
2, 18800, Note_on_c, 0, 61, 127
2, 18840, Note_on_c, 0, 61, 0
2, 18840, Note_on_c, 0, 69, 127
2, 18880, Note_on_c, 0, 69, 0
2, 18880, Note_on_c, 0, 61, 127
2, 18920, Note_on_c, 0, 61, 0
2, 18920, Note_on_c, 0, 62, 127
2, 18960, Note_on_c, 0, 62, 0
2, 18960, Note_on_c, 0, 56, 127
2, 19000, Note_on_c, 0, 56, 0
2, 19000, Note_on_c, 0, 59, 127
2, 19040, Note_on_c, 0, 59, 0
2, 19040, Note_on_c, 0, 62, 127
2, 19080, Note_on_c, 0, 62, 0
2, 19080, Note_on_c, 0, 71, 127
2, 19120, Note_on_c, 0, 71, 0
2, 19120, Note_on_c, 0, 61, 127
2, 19160, Note_on_c, 0, 61, 0
2, 19160, Note_on_c, 0, 62, 127
2, 19200, Note_on_c, 0, 62, 0
2, 19200, Note_on_c, 0, 57, 127
2, 19240, Note_on_c, 0, 60, 127
2, 19280, Note_on_c, 0, 60, 0
2, 19280, Note_on_c, 0, 64, 127
2, 19320, Note_on_c, 0, 64, 0
2, 19320, Note_on_c, 0, 69, 127
2, 19360, Note_on_c, 0, 69, 0
2, 19360, Note_on_c, 0, 71, 127
2, 19400, Note_on_c, 0, 71, 0
2, 19400, Note_on_c, 0, 72, 127
2, 19428, Note_on_c, 0, 57, 0
2, 19440, Note_on_c, 0, 72, 0
2, 19440, Note_on_c, 0, 56, 127
2, 19480, Note_on_c, 0, 59, 127
2, 19520, Note_on_c, 0, 59, 0
2, 19520, Note_on_c, 0, 64, 127
2, 19560, Note_on_c, 0, 64, 0
2, 19560, Note_on_c, 0, 71, 127
2, 19600, Note_on_c, 0, 71, 0
2, 19600, Note_on_c, 0, 72, 127
2, 19640, Note_on_c, 0, 72, 0
2, 19640, Note_on_c, 0, 74, 127
2, 19668, Note_on_c, 0, 56, 0
2, 19680, Note_on_c, 0, 74, 0
2, 19680, Note_on_c, 0, 57, 127
2, 19720, Note_on_c, 0, 60, 127
2, 19760, Note_on_c, 0, 60, 0
2, 19760, Note_on_c, 0, 64, 127
2, 19800, Note_on_c, 0, 64, 0
2, 19800, Note_on_c, 0, 69, 127
2, 19840, Note_on_c, 0, 69, 0
2, 19840, Note_on_c, 0, 71, 127
2, 19880, Note_on_c, 0, 71, 0
2, 19880, Note_on_c, 0, 72, 127
2, 19908, Note_on_c, 0, 57, 0
2, 19920, Note_on_c, 0, 72, 0
2, 19920, Note_on_c, 0, 59, 127
2, 19960, Note_on_c, 0, 62, 127
2, 20000, Note_on_c, 0, 62, 0
2, 20000, Note_on_c, 0, 65, 127
2, 20040, Note_on_c, 0, 65, 0
2, 20040, Note_on_c, 0, 68, 127
2, 20080, Note_on_c, 0, 68, 0
2, 20080, Note_on_c, 0, 69, 127
2, 20120, Note_on_c, 0, 69, 0
2, 20120, Note_on_c, 0, 71, 127
2, 20148, Note_on_c, 0, 59, 0
2, 20160, Note_on_c, 0, 71, 0
2, 20160, Note_on_c, 0, 60, 127
2, 20190, Note_on_c, 0, 60, 0
2, 20190, Note_on_c, 0, 64, 127
2, 20220, Note_on_c, 0, 64, 0
2, 20220, Note_on_c, 0, 66, 127
2, 20250, Note_on_c, 0, 66, 0
2, 20250, Note_on_c, 0, 68, 127
2, 20280, Note_on_c, 0, 68, 0
2, 20280, Note_on_c, 0, 69, 127
2, 20310, Note_on_c, 0, 69, 0
2, 20310, Note_on_c, 0, 71, 127
2, 20340, Note_on_c, 0, 71, 0
2, 20340, Note_on_c, 0, 72, 127
2, 20370, Note_on_c, 0, 72, 0
2, 20370, Note_on_c, 0, 74, 127
2, 20400, Note_on_c, 0, 74, 0
2, 20400, Note_on_c, 0, 76, 127
2, 20430, Note_on_c, 0, 76, 0
2, 20430, Note_on_c, 0, 77, 127
2, 20460, Note_on_c, 0, 77, 0
2, 20460, Note_on_c, 0, 76, 127
2, 20490, Note_on_c, 0, 76, 0
2, 20490, Note_on_c, 0, 74, 127
2, 20520, Note_on_c, 0, 74, 0
2, 20520, Note_on_c, 0, 72, 127
2, 20550, Note_on_c, 0, 72, 0
2, 20550, Note_on_c, 0, 71, 127
2, 20580, Note_on_c, 0, 71, 0
2, 20580, Note_on_c, 0, 69, 127
2, 20610, Note_on_c, 0, 69, 0
2, 20610, Note_on_c, 0, 68, 127
2, 20640, Note_on_c, 0, 68, 0
2, 20640, Note_on_c, 0, 69, 127
2, 20670, Note_on_c, 0, 69, 0
2, 20670, Note_on_c, 0, 71, 127
2, 20700, Note_on_c, 0, 71, 0
2, 20700, Note_on_c, 0, 72, 127
2, 20730, Note_on_c, 0, 72, 0
2, 20730, Note_on_c, 0, 74, 127
2, 20760, Note_on_c, 0, 74, 0
2, 20760, Note_on_c, 0, 76, 127
2, 20790, Note_on_c, 0, 76, 0
2, 20790, Note_on_c, 0, 78, 127
2, 20820, Note_on_c, 0, 78, 0
2, 20820, Note_on_c, 0, 80, 127
2, 20850, Note_on_c, 0, 80, 0
2, 20850, Note_on_c, 0, 81, 127
2, 20880, Note_on_c, 0, 81, 0
2, 20880, Note_on_c, 0, 83, 127
2, 20910, Note_on_c, 0, 83, 0
2, 20910, Note_on_c, 0, 77, 127
2, 20940, Note_on_c, 0, 77, 0
2, 20940, Note_on_c, 0, 76, 127
2, 20970, Note_on_c, 0, 76, 0
2, 20970, Note_on_c, 0, 74, 127
2, 21000, Note_on_c, 0, 74, 0
2, 21000, Note_on_c, 0, 68, 127
2, 21030, Note_on_c, 0, 68, 0
2, 21030, Note_on_c, 0, 71, 127
2, 21060, Note_on_c, 0, 71, 0
2, 21060, Note_on_c, 0, 72, 127
2, 21090, Note_on_c, 0, 72, 0
2, 21090, Note_on_c, 0, 74, 127
2, 21120, Note_on_c, 0, 74, 0
2, 21120, Note_on_c, 0, 64, 127
2, 21150, Note_on_c, 0, 64, 0
2, 21150, Note_on_c, 0, 62, 127
2, 21180, Note_on_c, 0, 62, 0
2, 21180, Note_on_c, 0, 64, 127
2, 21210, Note_on_c, 0, 64, 0
2, 21210, Note_on_c, 0, 66, 127
2, 21240, Note_on_c, 0, 66, 0
2, 21240, Note_on_c, 0, 68, 127
2, 21270, Note_on_c, 0, 68, 0
2, 21270, Note_on_c, 0, 69, 127
2, 21300, Note_on_c, 0, 69, 0
2, 21300, Note_on_c, 0, 71, 127
2, 21330, Note_on_c, 0, 71, 0
2, 21330, Note_on_c, 0, 72, 127
2, 21360, Note_on_c, 0, 72, 0
2, 21360, Note_on_c, 0, 74, 127
2, 21390, Note_on_c, 0, 74, 0
2, 21390, Note_on_c, 0, 71, 127
2, 21420, Note_on_c, 0, 71, 0
2, 21420, Note_on_c, 0, 69, 127
2, 21450, Note_on_c, 0, 69, 0
2, 21450, Note_on_c, 0, 68, 127
2, 21480, Note_on_c, 0, 68, 0
2, 21480, Note_on_c, 0, 59, 127
2, 21510, Note_on_c, 0, 59, 0
2, 21510, Note_on_c, 0, 62, 127
2, 21540, Note_on_c, 0, 62, 0
2, 21540, Note_on_c, 0, 64, 127
2, 21570, Note_on_c, 0, 64, 0
2, 21570, Note_on_c, 0, 65, 127
2, 21600, Note_on_c, 0, 65, 0
2, 21600, Note_on_c, 0, 74, 127
2, 21600, Note_on_c, 0, 71, 127
2, 21600, Note_on_c, 0, 65, 127
2, 21630, Note_on_c, 0, 65, 0
2, 21630, Note_on_c, 0, 71, 0
2, 21630, Note_on_c, 0, 74, 0
2, 21630, Note_on_c, 0, 76, 127
2, 21630, Note_on_c, 0, 56, 127
2, 21660, Note_on_c, 0, 56, 0
2, 21660, Note_on_c, 0, 76, 0
2, 21660, Note_on_c, 0, 74, 127
2, 21660, Note_on_c, 0, 71, 127
2, 21660, Note_on_c, 0, 65, 127
2, 21690, Note_on_c, 0, 65, 0
2, 21690, Note_on_c, 0, 71, 0
2, 21690, Note_on_c, 0, 74, 0
2, 21690, Note_on_c, 0, 76, 127
2, 21690, Note_on_c, 0, 56, 127
2, 21720, Note_on_c, 0, 56, 0
2, 21720, Note_on_c, 0, 76, 0
2, 21720, Note_on_c, 0, 74, 127
2, 21720, Note_on_c, 0, 65, 127
2, 21720, Note_on_c, 0, 71, 127
2, 21750, Note_on_c, 0, 71, 0
2, 21750, Note_on_c, 0, 65, 0
2, 21750, Note_on_c, 0, 74, 0
2, 21750, Note_on_c, 0, 76, 127
2, 21750, Note_on_c, 0, 56, 127
2, 21780, Note_on_c, 0, 56, 0
2, 21780, Note_on_c, 0, 76, 0
2, 21780, Note_on_c, 0, 74, 127
2, 21780, Note_on_c, 0, 65, 127
2, 21780, Note_on_c, 0, 71, 127
2, 21810, Note_on_c, 0, 71, 0
2, 21810, Note_on_c, 0, 65, 0
2, 21810, Note_on_c, 0, 74, 0
2, 21810, Note_on_c, 0, 56, 127
2, 21810, Note_on_c, 0, 76, 127
2, 21840, Note_on_c, 0, 76, 0
2, 21840, Note_on_c, 0, 56, 0
2, 21840, Note_on_c, 0, 74, 127
2, 21840, Note_on_c, 0, 65, 127
2, 21840, Note_on_c, 0, 71, 127
2, 21870, Note_on_c, 0, 71, 0
2, 21870, Note_on_c, 0, 65, 0
2, 21870, Note_on_c, 0, 74, 0
2, 21870, Note_on_c, 0, 76, 127
2, 21870, Note_on_c, 0, 56, 127
2, 21900, Note_on_c, 0, 56, 0
2, 21900, Note_on_c, 0, 76, 0
2, 21900, Note_on_c, 0, 74, 127
2, 21900, Note_on_c, 0, 65, 127
2, 21900, Note_on_c, 0, 71, 127
2, 21930, Note_on_c, 0, 71, 0
2, 21930, Note_on_c, 0, 65, 0
2, 21930, Note_on_c, 0, 74, 0
2, 21930, Note_on_c, 0, 76, 127
2, 21930, Note_on_c, 0, 56, 127
2, 21960, Note_on_c, 0, 56, 0
2, 21960, Note_on_c, 0, 76, 0
2, 21960, Note_on_c, 0, 74, 127
2, 21960, Note_on_c, 0, 71, 127
2, 21960, Note_on_c, 0, 65, 127
2, 21990, Note_on_c, 0, 65, 0
2, 21990, Note_on_c, 0, 71, 0
2, 21990, Note_on_c, 0, 74, 0
2, 21990, Note_on_c, 0, 76, 127
2, 21990, Note_on_c, 0, 56, 127
2, 22020, Note_on_c, 0, 56, 0
2, 22020, Note_on_c, 0, 76, 0
2, 22020, Note_on_c, 0, 65, 115
2, 22020, Note_on_c, 0, 71, 115
2, 22020, Note_on_c, 0, 74, 115
2, 22050, Note_on_c, 0, 74, 0
2, 22050, Note_on_c, 0, 71, 0
2, 22050, Note_on_c, 0, 65, 0
2, 22050, Note_on_c, 0, 56, 115
2, 22050, Note_on_c, 0, 76, 115
2, 22080, Note_on_c, 0, 76, 0
2, 22080, Note_on_c, 0, 56, 0
2, 22080, Note_on_c, 0, 64, 127
2, 22080, Note_on_c, 0, 69, 127
2, 22080, Note_on_c, 0, 72, 127
2, 22980, Note_on_c, 0, 72, 0
2, 22980, Note_on_c, 0, 74, 127
2, 23040, Note_on_c, 0, 74, 0
2, 23040, Note_on_c, 0, 69, 0
2, 23040, Note_on_c, 0, 64, 0
2, 23040, Note_on_c, 0, 71, 127
2, 23040, Note_on_c, 0, 69, 127
2, 23100, Note_on_c, 0, 69, 0
2, 23100, Note_on_c, 0, 69, 127
2, 23160, Note_on_c, 0, 69, 0
2, 23160, Note_on_c, 0, 68, 127
2, 23220, Note_on_c, 0, 68, 0
2, 23220, Note_on_c, 0, 66, 127
2, 23280, Note_on_c, 0, 66, 0
2, 23280, Note_on_c, 0, 71, 0
2, 23280, Note_on_c, 0, 71, 127
2, 23280, Note_on_c, 0, 68, 127
2, 23340, Note_on_c, 0, 68, 0
2, 23340, Note_on_c, 0, 71, 0
2, 23340, Note_on_c, 0, 75, 127
2, 23340, Note_on_c, 0, 66, 127
2, 23400, Note_on_c, 0, 66, 0
2, 23400, Note_on_c, 0, 75, 0
2, 23400, Note_on_c, 0, 76, 127
2, 23400, Note_on_c, 0, 68, 127
2, 23460, Note_on_c, 0, 68, 0
2, 23460, Note_on_c, 0, 63, 127
2, 23520, Note_on_c, 0, 63, 0
2, 23520, Note_on_c, 0, 76, 0
2, 23520, Note_on_c, 0, 64, 127
2, 23640, Note_on_c, 0, 64, 0
2, 26700, Note_on_c, 0, 76, 127
2, 26760, Note_on_c, 0, 76, 0
2, 26760, Note_on_c, 0, 77, 127
2, 26820, Note_on_c, 0, 77, 0
2, 26820, Note_on_c, 0, 73, 127
2, 26880, Note_on_c, 0, 73, 0
2, 26880, Note_on_c, 0, 74, 127
2, 26940, Note_on_c, 0, 69, 127
2, 27000, Note_on_c, 0, 69, 0
2, 27000, Note_on_c, 0, 70, 127
2, 27060, Note_on_c, 0, 70, 0
2, 27060, Note_on_c, 0, 67, 127
2, 27120, Note_on_c, 0, 67, 0
2, 27120, Note_on_c, 0, 69, 127
2, 27840, Note_on_c, 0, 69, 0
2, 27840, Note_on_c, 0, 74, 0
2, 27900, Note_on_c, 0, 59, 127
2, 27960, Note_on_c, 0, 59, 0
2, 27960, Note_on_c, 0, 64, 127
2, 28020, Note_on_c, 0, 64, 0
2, 28020, Note_on_c, 0, 59, 127
2, 28080, Note_on_c, 0, 59, 0
2, 28080, Note_on_c, 0, 68, 127
2, 28140, Note_on_c, 0, 68, 0
2, 28140, Note_on_c, 0, 64, 127
2, 28200, Note_on_c, 0, 64, 0
2, 28200, Note_on_c, 0, 71, 127
2, 28260, Note_on_c, 0, 71, 0
2, 28260, Note_on_c, 0, 68, 127
2, 28320, Note_on_c, 0, 68, 0
2, 28320, Note_on_c, 0, 74, 127
2, 28380, Note_on_c, 0, 74, 0
2, 28380, Note_on_c, 0, 71, 127
2, 28440, Note_on_c, 0, 71, 0
2, 28440, Note_on_c, 0, 77, 127
2, 28500, Note_on_c, 0, 77, 0
2, 28500, Note_on_c, 0, 74, 127
2, 28560, Note_on_c, 0, 74, 0
2, 28560, Note_on_c, 0, 71, 127
2, 28620, Note_on_c, 0, 71, 0
2, 28620, Note_on_c, 0, 74, 127
2, 28680, Note_on_c, 0, 74, 0
2, 28680, Note_on_c, 0, 68, 127
2, 28740, Note_on_c, 0, 68, 0
2, 28740, Note_on_c, 0, 71, 127
2, 28800, Note_on_c, 0, 71, 0
2, 28800, Note_on_c, 0, 62, 127
2, 28860, Note_on_c, 0, 62, 0
2, 28860, Note_on_c, 0, 68, 127
2, 28920, Note_on_c, 0, 68, 0
2, 28920, Note_on_c, 0, 59, 127
2, 28980, Note_on_c, 0, 59, 0
2, 28980, Note_on_c, 0, 62, 127
2, 29040, Note_on_c, 0, 62, 0
2, 29040, Note_on_c, 0, 56, 127
2, 29100, Note_on_c, 0, 56, 0
2, 29100, Note_on_c, 0, 59, 127
2, 29160, Note_on_c, 0, 59, 0
2, 29160, Note_on_c, 0, 52, 127
2, 29220, Note_on_c, 0, 52, 0
2, 29220, Note_on_c, 0, 62, 127
2, 29280, Note_on_c, 0, 62, 0
2, 29280, Note_on_c, 0, 60, 127
2, 29340, Note_on_c, 0, 60, 0
2, 29340, Note_on_c, 0, 62, 127
2, 29400, Note_on_c, 0, 62, 0
2, 29400, Note_on_c, 0, 60, 127
2, 29460, Note_on_c, 0, 60, 0
2, 29460, Note_on_c, 0, 59, 127
2, 29520, Note_on_c, 0, 59, 0
2, 29520, Note_on_c, 0, 60, 127
2, 29580, Note_on_c, 0, 60, 0
2, 29580, Note_on_c, 0, 64, 127
2, 29640, Note_on_c, 0, 64, 0
2, 29640, Note_on_c, 0, 69, 127
2, 29700, Note_on_c, 0, 69, 0
2, 29700, Note_on_c, 0, 68, 127
2, 29760, Note_on_c, 0, 68, 0
2, 29760, Note_on_c, 0, 60, 127
2, 29760, Note_on_c, 0, 69, 127
2, 29820, Note_on_c, 0, 69, 0
2, 29820, Note_on_c, 0, 74, 127
2, 29880, Note_on_c, 0, 74, 0
2, 29880, Note_on_c, 0, 60, 0
2, 29880, Note_on_c, 0, 72, 127
2, 29880, Note_on_c, 0, 62, 127
2, 29940, Note_on_c, 0, 72, 0
2, 29940, Note_on_c, 0, 71, 127
2, 30000, Note_on_c, 0, 71, 0
2, 30000, Note_on_c, 0, 62, 0
2, 30000, Note_on_c, 0, 72, 127
2, 30000, Note_on_c, 0, 64, 127
2, 30060, Note_on_c, 0, 72, 0
2, 30060, Note_on_c, 0, 76, 127
2, 30120, Note_on_c, 0, 76, 0
2, 30120, Note_on_c, 0, 64, 0
2, 30120, Note_on_c, 0, 65, 127
2, 30120, Note_on_c, 0, 81, 127
2, 30180, Note_on_c, 0, 81, 0
2, 30180, Note_on_c, 0, 80, 127
2, 30240, Note_on_c, 0, 80, 0
2, 30240, Note_on_c, 0, 65, 0
2, 30240, Note_on_c, 0, 81, 127
2, 30240, Note_on_c, 0, 64, 127
2, 30300, Note_on_c, 0, 74, 127
2, 30360, Note_on_c, 0, 74, 0
2, 30360, Note_on_c, 0, 76, 127
2, 30420, Note_on_c, 0, 76, 0
2, 30420, Note_on_c, 0, 71, 127
2, 30480, Note_on_c, 0, 71, 0
2, 30480, Note_on_c, 0, 72, 127
2, 30540, Note_on_c, 0, 72, 0
2, 30720, Note_on_c, 0, 64, 0
2, 30720, Note_on_c, 0, 72, 127
2, 30750, Note_on_c, 0, 72, 0
2, 30750, Note_on_c, 0, 72, 127
2, 30780, Note_on_c, 0, 72, 0
2, 30780, Note_on_c, 0, 71, 127
2, 30810, Note_on_c, 0, 71, 0
2, 30810, Note_on_c, 0, 72, 127
2, 30840, Note_on_c, 0, 72, 0
2, 30840, Note_on_c, 0, 81, 0
2, 30840, Note_on_c, 0, 81, 127
2, 30870, Note_on_c, 0, 72, 127
2, 30900, Note_on_c, 0, 72, 0
2, 30900, Note_on_c, 0, 71, 127
2, 30930, Note_on_c, 0, 71, 0
2, 30930, Note_on_c, 0, 72, 127
2, 30960, Note_on_c, 0, 72, 0
2, 30960, Note_on_c, 0, 81, 0
2, 30960, Note_on_c, 0, 69, 127
2, 30990, Note_on_c, 0, 69, 0
2, 30990, Note_on_c, 0, 72, 127
2, 31020, Note_on_c, 0, 72, 0
2, 31020, Note_on_c, 0, 71, 127
2, 31050, Note_on_c, 0, 71, 0
2, 31050, Note_on_c, 0, 72, 127
2, 31080, Note_on_c, 0, 72, 0
2, 31080, Note_on_c, 0, 66, 127
2, 31110, Note_on_c, 0, 66, 0
2, 31110, Note_on_c, 0, 69, 127
2, 31140, Note_on_c, 0, 69, 0
2, 31140, Note_on_c, 0, 67, 127
2, 31170, Note_on_c, 0, 67, 0
2, 31170, Note_on_c, 0, 69, 127
2, 31200, Note_on_c, 0, 69, 0
2, 31200, Note_on_c, 0, 62, 127
2, 31230, Note_on_c, 0, 62, 0
2, 31230, Note_on_c, 0, 69, 127
2, 31260, Note_on_c, 0, 69, 0
2, 31260, Note_on_c, 0, 67, 127
2, 31290, Note_on_c, 0, 67, 0
2, 31290, Note_on_c, 0, 69, 127
2, 31320, Note_on_c, 0, 69, 0
2, 31320, Note_on_c, 0, 72, 127
2, 31350, Note_on_c, 0, 72, 0
2, 31350, Note_on_c, 0, 69, 127
2, 31380, Note_on_c, 0, 69, 0
2, 31380, Note_on_c, 0, 67, 127
2, 31410, Note_on_c, 0, 67, 0
2, 31410, Note_on_c, 0, 69, 127
2, 31440, Note_on_c, 0, 69, 0
2, 31440, Note_on_c, 0, 66, 127
2, 31470, Note_on_c, 0, 66, 0
2, 31470, Note_on_c, 0, 69, 127
2, 31500, Note_on_c, 0, 69, 0
2, 31500, Note_on_c, 0, 67, 127
2, 31530, Note_on_c, 0, 67, 0
2, 31530, Note_on_c, 0, 69, 127
2, 31560, Note_on_c, 0, 69, 0
2, 31560, Note_on_c, 0, 62, 127
2, 31590, Note_on_c, 0, 62, 0
2, 31590, Note_on_c, 0, 66, 127
2, 31620, Note_on_c, 0, 66, 0
2, 31620, Note_on_c, 0, 64, 127
2, 31650, Note_on_c, 0, 64, 0
2, 31650, Note_on_c, 0, 66, 127
2, 31680, Note_on_c, 0, 66, 0
2, 31680, Note_on_c, 0, 57, 127
2, 31710, Note_on_c, 0, 57, 0
2, 31710, Note_on_c, 0, 60, 127
2, 31740, Note_on_c, 0, 60, 0
2, 31740, Note_on_c, 0, 59, 127
2, 31770, Note_on_c, 0, 59, 0
2, 31770, Note_on_c, 0, 60, 127
2, 31800, Note_on_c, 0, 60, 0
2, 31800, Note_on_c, 0, 63, 127
2, 31830, Note_on_c, 0, 63, 0
2, 31830, Note_on_c, 0, 60, 127
2, 31860, Note_on_c, 0, 60, 0
2, 31860, Note_on_c, 0, 59, 127
2, 31890, Note_on_c, 0, 59, 0
2, 31890, Note_on_c, 0, 60, 127
2, 31920, Note_on_c, 0, 60, 0
2, 31920, Note_on_c, 0, 57, 127
2, 31950, Note_on_c, 0, 57, 0
2, 31950, Note_on_c, 0, 60, 127
2, 31980, Note_on_c, 0, 60, 0
2, 31980, Note_on_c, 0, 59, 127
2, 32010, Note_on_c, 0, 59, 0
2, 32010, Note_on_c, 0, 60, 127
2, 32040, Note_on_c, 0, 60, 0
2, 32040, Note_on_c, 0, 54, 127
2, 32070, Note_on_c, 0, 54, 0
2, 32070, Note_on_c, 0, 57, 127
2, 32100, Note_on_c, 0, 57, 0
2, 32100, Note_on_c, 0, 55, 127
2, 32130, Note_on_c, 0, 55, 0
2, 32130, Note_on_c, 0, 57, 127
2, 32160, Note_on_c, 0, 57, 0
2, 32160, Note_on_c, 0, 50, 127
2, 32190, Note_on_c, 0, 50, 0
2, 32190, Note_on_c, 0, 54, 127
2, 32220, Note_on_c, 0, 54, 0
2, 32220, Note_on_c, 0, 57, 127
2, 32250, Note_on_c, 0, 57, 0
2, 32250, Note_on_c, 0, 60, 127
2, 32280, Note_on_c, 0, 60, 0
2, 32280, Note_on_c, 0, 63, 127
2, 32310, Note_on_c, 0, 63, 0
2, 32310, Note_on_c, 0, 62, 127
2, 32340, Note_on_c, 0, 62, 0
2, 32340, Note_on_c, 0, 60, 127
2, 32370, Note_on_c, 0, 60, 0
2, 32370, Note_on_c, 0, 59, 127
2, 32400, Note_on_c, 0, 59, 0
2, 32400, Note_on_c, 0, 57, 127
2, 32430, Note_on_c, 0, 57, 0
2, 32430, Note_on_c, 0, 55, 127
2, 32460, Note_on_c, 0, 55, 0
2, 32460, Note_on_c, 0, 54, 127
2, 32490, Note_on_c, 0, 54, 0
2, 32490, Note_on_c, 0, 52, 127
2, 32520, Note_on_c, 0, 52, 0
2, 32520, Note_on_c, 0, 50, 127
2, 32550, Note_on_c, 0, 50, 0
2, 32550, Note_on_c, 0, 48, 127
2, 32580, Note_on_c, 0, 48, 0
2, 32580, Note_on_c, 0, 47, 127
2, 32610, Note_on_c, 0, 47, 0
2, 32610, Note_on_c, 0, 45, 127
2, 32640, Note_on_c, 0, 45, 0
2, 32640, Note_on_c, 0, 47, 127
2, 32670, Note_on_c, 0, 47, 0
2, 32670, Note_on_c, 0, 50, 127
2, 32700, Note_on_c, 0, 50, 0
2, 32700, Note_on_c, 0, 52, 127
2, 32730, Note_on_c, 0, 52, 0
2, 32730, Note_on_c, 0, 54, 127
2, 32760, Note_on_c, 0, 54, 0
2, 32760, Note_on_c, 0, 55, 127
2, 32790, Note_on_c, 0, 55, 0
2, 32790, Note_on_c, 0, 57, 127
2, 32820, Note_on_c, 0, 57, 0
2, 32820, Note_on_c, 0, 59, 127
2, 32850, Note_on_c, 0, 59, 0
2, 32850, Note_on_c, 0, 60, 127
2, 32880, Note_on_c, 0, 60, 0
2, 32880, Note_on_c, 0, 59, 127
2, 32910, Note_on_c, 0, 59, 0
2, 32910, Note_on_c, 0, 55, 127
2, 32940, Note_on_c, 0, 55, 0
2, 32940, Note_on_c, 0, 57, 127
2, 32970, Note_on_c, 0, 57, 0
2, 32970, Note_on_c, 0, 59, 127
2, 33000, Note_on_c, 0, 59, 0
2, 33000, Note_on_c, 0, 60, 127
2, 33030, Note_on_c, 0, 60, 0
2, 33030, Note_on_c, 0, 62, 127
2, 33060, Note_on_c, 0, 62, 0
2, 33060, Note_on_c, 0, 64, 127
2, 33090, Note_on_c, 0, 64, 0
2, 33090, Note_on_c, 0, 66, 127
2, 33120, Note_on_c, 0, 66, 0
2, 33120, Note_on_c, 0, 67, 127
2, 33150, Note_on_c, 0, 67, 0
2, 33150, Note_on_c, 0, 55, 127
2, 33180, Note_on_c, 0, 55, 0
2, 33180, Note_on_c, 0, 59, 127
2, 33210, Note_on_c, 0, 59, 0
2, 33210, Note_on_c, 0, 62, 127
2, 33240, Note_on_c, 0, 62, 0
2, 33240, Note_on_c, 0, 67, 127
2, 33270, Note_on_c, 0, 67, 0
2, 33270, Note_on_c, 0, 71, 127
2, 33300, Note_on_c, 0, 71, 0
2, 33300, Note_on_c, 0, 74, 127
2, 33330, Note_on_c, 0, 74, 0
2, 33330, Note_on_c, 0, 71, 127
2, 33360, Note_on_c, 0, 71, 0
2, 33360, Note_on_c, 0, 79, 127
2, 33480, Note_on_c, 0, 79, 0
2, 33660, Note_on_c, 0, 72, 127
2, 33720, Note_on_c, 0, 72, 0
2, 33720, Note_on_c, 0, 76, 127
2, 33780, Note_on_c, 0, 76, 0
2, 33780, Note_on_c, 0, 72, 127
2, 33840, Note_on_c, 0, 72, 0
2, 33840, Note_on_c, 0, 79, 127
2, 33900, Note_on_c, 0, 79, 0
2, 33900, Note_on_c, 0, 67, 127
2, 33960, Note_on_c, 0, 67, 0
2, 33960, Note_on_c, 0, 72, 127
2, 34020, Note_on_c, 0, 72, 0
2, 34020, Note_on_c, 0, 67, 127
2, 34080, Note_on_c, 0, 67, 0
2, 34080, Note_on_c, 0, 69, 127
2, 34140, Note_on_c, 0, 69, 0
2, 34140, Note_on_c, 0, 65, 127
2, 34140, Note_on_c, 0, 74, 127
2, 34200, Note_on_c, 0, 74, 0
2, 34200, Note_on_c, 0, 65, 0
2, 34200, Note_on_c, 0, 69, 127
2, 34200, Note_on_c, 0, 77, 127
2, 34260, Note_on_c, 0, 77, 0
2, 34260, Note_on_c, 0, 69, 0
2, 34260, Note_on_c, 0, 65, 127
2, 34260, Note_on_c, 0, 74, 127
2, 34320, Note_on_c, 0, 74, 0
2, 34320, Note_on_c, 0, 65, 0
2, 34320, Note_on_c, 0, 74, 127
2, 34320, Note_on_c, 0, 81, 127
2, 34380, Note_on_c, 0, 81, 0
2, 34380, Note_on_c, 0, 74, 0
2, 34380, Note_on_c, 0, 65, 127
2, 34380, Note_on_c, 0, 69, 127
2, 34440, Note_on_c, 0, 69, 0
2, 34440, Note_on_c, 0, 65, 0
2, 34440, Note_on_c, 0, 69, 127
2, 34440, Note_on_c, 0, 74, 127
2, 34500, Note_on_c, 0, 74, 0
2, 34500, Note_on_c, 0, 69, 0
2, 34500, Note_on_c, 0, 65, 127
2, 34500, Note_on_c, 0, 69, 127
2, 34560, Note_on_c, 0, 69, 0
2, 34560, Note_on_c, 0, 65, 0
2, 34560, Note_on_c, 0, 71, 127
2, 34560, Note_on_c, 0, 62, 127
2, 34680, Note_on_c, 0, 62, 0
2, 34680, Note_on_c, 0, 71, 0
2, 34680, Note_on_c, 0, 79, 127
2, 34680, Note_on_c, 0, 74, 127
2, 34680, Note_on_c, 0, 67, 127
2, 34740, Note_on_c, 0, 67, 0
2, 34740, Note_on_c, 0, 71, 127
2, 34800, Note_on_c, 0, 71, 0
2, 34800, Note_on_c, 0, 74, 0
2, 34800, Note_on_c, 0, 79, 0
2, 34800, Note_on_c, 0, 76, 127
2, 34800, Note_on_c, 0, 79, 127
2, 34800, Note_on_c, 0, 67, 127
2, 34860, Note_on_c, 0, 67, 0
2, 34860, Note_on_c, 0, 72, 127
2, 34920, Note_on_c, 0, 72, 0
2, 34920, Note_on_c, 0, 79, 0
2, 34920, Note_on_c, 0, 76, 0
2, 34920, Note_on_c, 0, 79, 127
2, 34920, Note_on_c, 0, 76, 127
2, 34920, Note_on_c, 0, 60, 127
2, 34980, Note_on_c, 0, 60, 0
2, 34980, Note_on_c, 0, 64, 127
2, 35040, Note_on_c, 0, 64, 0
2, 35040, Note_on_c, 0, 76, 0
2, 35040, Note_on_c, 0, 79, 0
2, 35040, Note_on_c, 0, 77, 127
2, 35040, Note_on_c, 0, 76, 127
2, 35040, Note_on_c, 0, 60, 127
2, 35100, Note_on_c, 0, 60, 0
2, 35100, Note_on_c, 0, 69, 127
2, 35160, Note_on_c, 0, 76, 0
2, 35160, Note_on_c, 0, 77, 0
2, 35160, Note_on_c, 0, 74, 127
2, 35160, Note_on_c, 0, 77, 127
2, 35220, Note_on_c, 0, 69, 0
2, 35220, Note_on_c, 0, 69, 127
2, 35280, Note_on_c, 0, 77, 0
2, 35280, Note_on_c, 0, 74, 0
2, 35280, Note_on_c, 0, 77, 127
2, 35280, Note_on_c, 0, 74, 127
2, 35340, Note_on_c, 0, 69, 0
2, 35340, Note_on_c, 0, 67, 127
2, 35400, Note_on_c, 0, 74, 0
2, 35400, Note_on_c, 0, 77, 0
2, 35400, Note_on_c, 0, 77, 127
2, 35400, Note_on_c, 0, 74, 127
2, 35460, Note_on_c, 0, 67, 0
2, 35460, Note_on_c, 0, 67, 127
2, 35520, Note_on_c, 0, 74, 0
2, 35520, Note_on_c, 0, 77, 0
2, 35520, Note_on_c, 0, 72, 127
2, 35520, Note_on_c, 0, 76, 127
2, 35520, Note_on_c, 0, 67, 127
2, 35580, Note_on_c, 0, 67, 0
2, 35580, Note_on_c, 0, 67, 0
2, 35580, Note_on_c, 0, 72, 0
2, 35580, Note_on_c, 0, 76, 0
2, 35580, Note_on_c, 0, 72, 127
2, 35640, Note_on_c, 0, 72, 0
2, 35640, Note_on_c, 0, 76, 127
2, 35700, Note_on_c, 0, 76, 0
2, 35700, Note_on_c, 0, 72, 127
2, 35760, Note_on_c, 0, 72, 0
2, 35760, Note_on_c, 0, 79, 127
2, 35820, Note_on_c, 0, 79, 0
2, 35820, Note_on_c, 0, 72, 127
2, 35880, Note_on_c, 0, 72, 0
2, 35880, Note_on_c, 0, 76, 127
2, 35940, Note_on_c, 0, 76, 0
2, 35940, Note_on_c, 0, 72, 127
2, 36000, Note_on_c, 0, 72, 0
2, 36000, Note_on_c, 0, 77, 127
2, 36060, Note_on_c, 0, 77, 0
2, 36060, Note_on_c, 0, 71, 127
2, 36120, Note_on_c, 0, 71, 0
2, 36120, Note_on_c, 0, 74, 127
2, 36180, Note_on_c, 0, 74, 0
2, 36180, Note_on_c, 0, 71, 127
2, 36240, Note_on_c, 0, 71, 0
2, 36240, Note_on_c, 0, 76, 127
2, 36300, Note_on_c, 0, 76, 0
2, 36300, Note_on_c, 0, 69, 127
2, 36360, Note_on_c, 0, 69, 0
2, 36360, Note_on_c, 0, 72, 127
2, 36420, Note_on_c, 0, 72, 0
2, 36420, Note_on_c, 0, 69, 127
2, 36480, Note_on_c, 0, 69, 0
2, 36480, Note_on_c, 0, 66, 127
2, 36480, Note_on_c, 0, 74, 127
2, 36540, Note_on_c, 0, 69, 127
2, 36600, Note_on_c, 0, 69, 0
2, 36600, Note_on_c, 0, 71, 127
2, 36660, Note_on_c, 0, 71, 0
2, 36660, Note_on_c, 0, 67, 127
2, 36720, Note_on_c, 0, 67, 0
2, 36720, Note_on_c, 0, 69, 127
2, 36780, Note_on_c, 0, 66, 0
2, 36780, Note_on_c, 0, 66, 127
2, 36840, Note_on_c, 0, 66, 0
2, 36840, Note_on_c, 0, 67, 127
2, 36900, Note_on_c, 0, 67, 0
2, 36900, Note_on_c, 0, 64, 127
2, 36960, Note_on_c, 0, 64, 0
2, 36960, Note_on_c, 0, 69, 0
2, 36960, Note_on_c, 0, 74, 0
2, 36960, Note_on_c, 0, 68, 127
2, 36960, Note_on_c, 0, 74, 127
2, 36960, Note_on_c, 0, 65, 127
2, 37080, Note_on_c, 0, 68, 0
2, 37080, Note_on_c, 0, 69, 127
2, 37200, Note_on_c, 0, 69, 0
2, 37200, Note_on_c, 0, 65, 0
2, 37200, Note_on_c, 0, 71, 127
2, 37200, Note_on_c, 0, 64, 127
2, 37440, Note_on_c, 0, 74, 0
2, 37440, Note_on_c, 0, 74, 127
2, 37500, Note_on_c, 0, 74, 0
2, 37500, Note_on_c, 0, 74, 127
2, 37560, Note_on_c, 0, 74, 0
2, 37560, Note_on_c, 0, 72, 127
2, 37620, Note_on_c, 0, 72, 0
2, 37620, Note_on_c, 0, 71, 127
2, 37680, Note_on_c, 0, 71, 0
2, 37680, Note_on_c, 0, 72, 127
2, 37740, Note_on_c, 0, 71, 0
2, 37740, Note_on_c, 0, 71, 127
2, 37800, Note_on_c, 0, 71, 0
2, 37800, Note_on_c, 0, 69, 127
2, 37860, Note_on_c, 0, 69, 0
2, 37860, Note_on_c, 0, 68, 127
2, 37920, Note_on_c, 0, 68, 0
2, 37920, Note_on_c, 0, 69, 127
2, 38160, Note_on_c, 0, 69, 0
2, 38160, Note_on_c, 0, 72, 0
2, 38160, Note_on_c, 0, 64, 0
2, 38460, Note_on_c, 0, 69, 127
2, 38460, Note_on_c, 0, 72, 127
2, 38520, Note_on_c, 0, 72, 0
2, 38520, Note_on_c, 0, 69, 0
2, 38520, Note_on_c, 0, 68, 127
2, 38520, Note_on_c, 0, 71, 127
2, 38580, Note_on_c, 0, 71, 0
2, 38580, Note_on_c, 0, 68, 0
2, 38580, Note_on_c, 0, 69, 127
2, 38580, Note_on_c, 0, 72, 127
2, 38640, Note_on_c, 0, 72, 0
2, 38640, Note_on_c, 0, 69, 0
2, 38640, Note_on_c, 0, 62, 127
2, 38640, Note_on_c, 0, 69, 127
2, 38700, Note_on_c, 0, 69, 0
2, 38700, Note_on_c, 0, 62, 0
2, 38700, Note_on_c, 0, 66, 127
2, 38700, Note_on_c, 0, 81, 127
2, 38760, Note_on_c, 0, 81, 0
2, 38760, Note_on_c, 0, 66, 0
2, 38760, Note_on_c, 0, 66, 127
2, 38760, Note_on_c, 0, 69, 127
2, 38820, Note_on_c, 0, 69, 0
2, 38820, Note_on_c, 0, 66, 0
2, 38820, Note_on_c, 0, 69, 127
2, 38820, Note_on_c, 0, 72, 127
2, 38880, Note_on_c, 0, 72, 0
2, 38880, Note_on_c, 0, 69, 0
2, 38880, Note_on_c, 0, 62, 127
2, 38880, Note_on_c, 0, 67, 127
2, 38880, Note_on_c, 0, 71, 127
2, 39000, Note_on_c, 0, 71, 0
2, 39000, Note_on_c, 0, 67, 0
2, 39000, Note_on_c, 0, 62, 0
2, 39000, Note_on_c, 0, 62, 127
2, 39000, Note_on_c, 0, 67, 127
2, 39000, Note_on_c, 0, 71, 127
2, 39120, Note_on_c, 0, 71, 0
2, 39120, Note_on_c, 0, 67, 0
2, 39120, Note_on_c, 0, 62, 0
2, 39420, Note_on_c, 0, 67, 127
2, 39420, Note_on_c, 0, 70, 127
2, 39480, Note_on_c, 0, 70, 0
2, 39480, Note_on_c, 0, 67, 0
2, 39480, Note_on_c, 0, 65, 127
2, 39480, Note_on_c, 0, 69, 127
2, 39540, Note_on_c, 0, 69, 0
2, 39540, Note_on_c, 0, 65, 0
2, 39540, Note_on_c, 0, 67, 127
2, 39540, Note_on_c, 0, 70, 127
2, 39600, Note_on_c, 0, 70, 0
2, 39600, Note_on_c, 0, 67, 0
2, 39600, Note_on_c, 0, 60, 127
2, 39600, Note_on_c, 0, 67, 127
2, 39660, Note_on_c, 0, 67, 0
2, 39660, Note_on_c, 0, 60, 0
2, 39660, Note_on_c, 0, 64, 127
2, 39660, Note_on_c, 0, 79, 127
2, 39720, Note_on_c, 0, 79, 0
2, 39720, Note_on_c, 0, 64, 0
2, 39720, Note_on_c, 0, 64, 127
2, 39720, Note_on_c, 0, 67, 127
2, 39780, Note_on_c, 0, 67, 0
2, 39780, Note_on_c, 0, 64, 0
2, 39780, Note_on_c, 0, 67, 127
2, 39780, Note_on_c, 0, 70, 127
2, 39840, Note_on_c, 0, 70, 0
2, 39840, Note_on_c, 0, 67, 0
2, 39840, Note_on_c, 0, 60, 127
2, 39840, Note_on_c, 0, 65, 127
2, 39840, Note_on_c, 0, 69, 127
2, 39960, Note_on_c, 0, 69, 0
2, 39960, Note_on_c, 0, 65, 0
2, 39960, Note_on_c, 0, 60, 0
2, 39960, Note_on_c, 0, 65, 127
2, 39960, Note_on_c, 0, 60, 127
2, 39960, Note_on_c, 0, 69, 127
2, 40080, Note_on_c, 0, 69, 0
2, 40080, Note_on_c, 0, 60, 0
2, 40080, Note_on_c, 0, 65, 0
2, 40380, Note_on_c, 0, 62, 127
2, 40380, Note_on_c, 0, 70, 127
2, 40440, Note_on_c, 0, 70, 0
2, 40440, Note_on_c, 0, 62, 0
2, 40440, Note_on_c, 0, 60, 127
2, 40440, Note_on_c, 0, 69, 127
2, 40500, Note_on_c, 0, 69, 0
2, 40500, Note_on_c, 0, 60, 0
2, 40500, Note_on_c, 0, 62, 127
2, 40500, Note_on_c, 0, 70, 127
2, 40560, Note_on_c, 0, 70, 0
2, 40560, Note_on_c, 0, 62, 0
2, 40560, Note_on_c, 0, 58, 127
2, 40560, Note_on_c, 0, 65, 127
2, 40620, Note_on_c, 0, 65, 0
2, 40620, Note_on_c, 0, 58, 0
2, 40620, Note_on_c, 0, 62, 127
2, 40620, Note_on_c, 0, 77, 127
2, 40680, Note_on_c, 0, 77, 0
2, 40680, Note_on_c, 0, 62, 0
2, 40680, Note_on_c, 0, 62, 127
2, 40680, Note_on_c, 0, 70, 127
2, 40740, Note_on_c, 0, 70, 0
2, 40740, Note_on_c, 0, 62, 0
2, 40740, Note_on_c, 0, 65, 127
2, 40740, Note_on_c, 0, 74, 127
2, 40800, Note_on_c, 0, 74, 0
2, 40800, Note_on_c, 0, 65, 0
2, 40800, Note_on_c, 0, 64, 127
2, 40800, Note_on_c, 0, 59, 127
2, 40800, Note_on_c, 0, 68, 127
2, 40920, Note_on_c, 0, 68, 0
2, 40920, Note_on_c, 0, 59, 0
2, 40920, Note_on_c, 0, 64, 0
2, 40920, Note_on_c, 0, 64, 127
2, 40920, Note_on_c, 0, 59, 127
2, 40920, Note_on_c, 0, 68, 127
2, 41040, Note_on_c, 0, 68, 0
2, 41040, Note_on_c, 0, 59, 0
2, 41040, Note_on_c, 0, 64, 0
2, 41340, Note_on_c, 0, 60, 127
2, 41340, Note_on_c, 0, 69, 127
2, 41400, Note_on_c, 0, 69, 0
2, 41400, Note_on_c, 0, 60, 0
2, 41400, Note_on_c, 0, 59, 127
2, 41400, Note_on_c, 0, 68, 127
2, 41460, Note_on_c, 0, 68, 0
2, 41460, Note_on_c, 0, 59, 0
2, 41460, Note_on_c, 0, 60, 127
2, 41460, Note_on_c, 0, 69, 127
2, 41520, Note_on_c, 0, 69, 0
2, 41520, Note_on_c, 0, 60, 0
2, 41520, Note_on_c, 0, 57, 127
2, 41520, Note_on_c, 0, 64, 127
2, 41580, Note_on_c, 0, 64, 0
2, 41580, Note_on_c, 0, 57, 0
2, 41580, Note_on_c, 0, 60, 127
2, 41580, Note_on_c, 0, 76, 127
2, 41640, Note_on_c, 0, 76, 0
2, 41640, Note_on_c, 0, 60, 0
2, 41640, Note_on_c, 0, 60, 127
2, 41640, Note_on_c, 0, 69, 127
2, 41700, Note_on_c, 0, 69, 0
2, 41700, Note_on_c, 0, 60, 0
2, 41700, Note_on_c, 0, 64, 127
2, 41700, Note_on_c, 0, 72, 127
2, 41760, Note_on_c, 0, 72, 0
2, 41760, Note_on_c, 0, 64, 0
2, 41760, Note_on_c, 0, 74, 127
2, 41820, Note_on_c, 0, 66, 127
2, 41880, Note_on_c, 0, 66, 0
2, 41880, Note_on_c, 0, 64, 127
2, 41940, Note_on_c, 0, 64, 0
2, 41940, Note_on_c, 0, 66, 127
2, 42000, Note_on_c, 0, 66, 0
2, 42000, Note_on_c, 0, 67, 127
2, 42120, Note_on_c, 0, 67, 0
2, 42120, Note_on_c, 0, 65, 127
2, 42240, Note_on_c, 0, 65, 0
2, 42240, Note_on_c, 0, 74, 0
2, 42240, Note_on_c, 0, 64, 127
2, 42240, Note_on_c, 0, 72, 127
2, 42300, Note_on_c, 0, 64, 0
2, 42300, Note_on_c, 0, 67, 127
2, 42360, Note_on_c, 0, 67, 0
2, 42360, Note_on_c, 0, 65, 127
2, 42420, Note_on_c, 0, 65, 0
2, 42420, Note_on_c, 0, 67, 127
2, 42480, Note_on_c, 0, 67, 0
2, 42480, Note_on_c, 0, 60, 127
2, 42540, Note_on_c, 0, 60, 0
2, 42540, Note_on_c, 0, 69, 127
2, 42600, Note_on_c, 0, 69, 0
2, 42600, Note_on_c, 0, 67, 127
2, 42660, Note_on_c, 0, 67, 0
2, 42660, Note_on_c, 0, 69, 127
2, 42720, Note_on_c, 0, 69, 0
2, 42720, Note_on_c, 0, 72, 0
2, 42720, Note_on_c, 0, 62, 127
2, 42780, Note_on_c, 0, 71, 127
2, 42840, Note_on_c, 0, 71, 0
2, 42840, Note_on_c, 0, 62, 0
2, 42840, Note_on_c, 0, 62, 127
2, 42840, Note_on_c, 0, 69, 127
2, 42900, Note_on_c, 0, 69, 0
2, 42900, Note_on_c, 0, 71, 127
2, 42960, Note_on_c, 0, 71, 0
2, 42960, Note_on_c, 0, 62, 0
2, 42960, Note_on_c, 0, 64, 127
2, 42960, Note_on_c, 0, 64, 127
2, 43020, Note_on_c, 0, 64, 0
2, 43020, Note_on_c, 0, 76, 127
2, 43080, Note_on_c, 0, 76, 0
2, 43080, Note_on_c, 0, 64, 0
2, 43080, Note_on_c, 0, 64, 127
2, 43080, Note_on_c, 0, 71, 127
2, 43140, Note_on_c, 0, 71, 0
2, 43140, Note_on_c, 0, 74, 127
2, 43200, Note_on_c, 0, 74, 0
2, 43200, Note_on_c, 0, 64, 0
2, 43200, Note_on_c, 0, 72, 127
2, 43200, Note_on_c, 0, 64, 127
2, 43200, Note_on_c, 0, 69, 127
2, 43440, Note_on_c, 0, 69, 0
2, 43440, Note_on_c, 0, 64, 0
2, 43440, Note_on_c, 0, 72, 0
2, 44940, Note_on_c, 0, 76, 127
2, 45000, Note_on_c, 0, 76, 0
2, 45000, Note_on_c, 0, 74, 127
2, 45060, Note_on_c, 0, 74, 0
2, 45060, Note_on_c, 0, 76, 127
2, 45120, Note_on_c, 0, 76, 0
2, 45120, Note_on_c, 0, 72, 127
2, 45180, Note_on_c, 0, 72, 0
2, 45180, Note_on_c, 0, 69, 127
2, 45180, Note_on_c, 0, 72, 127
2, 45240, Note_on_c, 0, 72, 0
2, 45240, Note_on_c, 0, 69, 0
2, 45240, Note_on_c, 0, 68, 127
2, 45240, Note_on_c, 0, 71, 127
2, 45300, Note_on_c, 0, 71, 0
2, 45300, Note_on_c, 0, 68, 0
2, 45300, Note_on_c, 0, 69, 127
2, 45300, Note_on_c, 0, 72, 127
2, 45360, Note_on_c, 0, 72, 0
2, 45360, Note_on_c, 0, 69, 0
2, 45360, Note_on_c, 0, 68, 127
2, 45360, Note_on_c, 0, 71, 127
2, 45420, Note_on_c, 0, 68, 0
2, 45420, Note_on_c, 0, 68, 127
2, 45480, Note_on_c, 0, 68, 0
2, 45480, Note_on_c, 0, 66, 127
2, 45540, Note_on_c, 0, 66, 0
2, 45540, Note_on_c, 0, 68, 127
2, 45600, Note_on_c, 0, 68, 0
2, 45600, Note_on_c, 0, 64, 127
2, 45660, Note_on_c, 0, 71, 0
2, 45660, Note_on_c, 0, 66, 127
2, 45690, Note_on_c, 0, 66, 0
2, 45690, Note_on_c, 0, 68, 127
2, 45720, Note_on_c, 0, 68, 0
2, 45720, Note_on_c, 0, 69, 127
2, 45900, Note_on_c, 0, 69, 0
2, 45900, Note_on_c, 0, 71, 127
2, 45960, Note_on_c, 0, 71, 0
2, 45960, Note_on_c, 0, 68, 127
2, 46080, Note_on_c, 0, 68, 0
2, 46080, Note_on_c, 0, 64, 0
2, 46080, Note_on_c, 0, 64, 127
2, 46080, Note_on_c, 0, 69, 127
2, 46140, Note_on_c, 0, 69, 0
2, 46140, Note_on_c, 0, 81, 127
2, 46200, Note_on_c, 0, 81, 0
2, 46200, Note_on_c, 0, 79, 127
2, 46260, Note_on_c, 0, 79, 0
2, 46260, Note_on_c, 0, 81, 127
2, 46320, Note_on_c, 0, 81, 0
2, 46320, Note_on_c, 0, 64, 0
2, 46320, Note_on_c, 0, 77, 127
2, 46380, Note_on_c, 0, 77, 0
2, 46380, Note_on_c, 0, 74, 127
2, 46380, Note_on_c, 0, 77, 127
2, 46440, Note_on_c, 0, 77, 0
2, 46440, Note_on_c, 0, 74, 0
2, 46440, Note_on_c, 0, 73, 127
2, 46440, Note_on_c, 0, 76, 127
2, 46500, Note_on_c, 0, 76, 0
2, 46500, Note_on_c, 0, 73, 0
2, 46500, Note_on_c, 0, 74, 127
2, 46500, Note_on_c, 0, 77, 127
2, 46560, Note_on_c, 0, 77, 0
2, 46560, Note_on_c, 0, 74, 0
2, 46560, Note_on_c, 0, 73, 127
2, 46560, Note_on_c, 0, 76, 127
2, 46620, Note_on_c, 0, 73, 0
2, 46620, Note_on_c, 0, 73, 127
2, 46680, Note_on_c, 0, 73, 0
2, 46680, Note_on_c, 0, 71, 127
2, 46740, Note_on_c, 0, 71, 0
2, 46740, Note_on_c, 0, 73, 127
2, 46800, Note_on_c, 0, 73, 0
2, 46800, Note_on_c, 0, 69, 127
2, 46860, Note_on_c, 0, 76, 0
2, 46860, Note_on_c, 0, 71, 127
2, 46890, Note_on_c, 0, 71, 0
2, 46890, Note_on_c, 0, 73, 127
2, 46920, Note_on_c, 0, 73, 0
2, 46920, Note_on_c, 0, 74, 127
2, 47100, Note_on_c, 0, 74, 0
2, 47100, Note_on_c, 0, 76, 127
2, 47160, Note_on_c, 0, 76, 0
2, 47160, Note_on_c, 0, 73, 127
2, 47280, Note_on_c, 0, 73, 0
2, 47280, Note_on_c, 0, 69, 0
2, 47280, Note_on_c, 0, 69, 127
2, 47280, Note_on_c, 0, 74, 127
2, 47580, Note_on_c, 0, 74, 0
2, 47580, Note_on_c, 0, 73, 127
2, 47640, Note_on_c, 0, 73, 0
2, 47640, Note_on_c, 0, 69, 0
2, 47640, Note_on_c, 0, 69, 127
2, 47640, Note_on_c, 0, 74, 127
2, 47700, Note_on_c, 0, 74, 0
2, 47700, Note_on_c, 0, 73, 127
2, 47760, Note_on_c, 0, 73, 0
2, 47760, Note_on_c, 0, 69, 0
2, 47760, Note_on_c, 0, 69, 127
2, 47760, Note_on_c, 0, 74, 127
2, 48060, Note_on_c, 0, 74, 0
2, 48060, Note_on_c, 0, 73, 127
2, 48120, Note_on_c, 0, 73, 0
2, 48120, Note_on_c, 0, 69, 0
2, 48120, Note_on_c, 0, 74, 127
2, 48120, Note_on_c, 0, 69, 127
2, 48180, Note_on_c, 0, 74, 0
2, 48180, Note_on_c, 0, 73, 127
2, 48240, Note_on_c, 0, 73, 0
2, 48240, Note_on_c, 0, 69, 0
2, 48240, Note_on_c, 0, 74, 127
2, 48240, Note_on_c, 0, 69, 127
2, 48540, Note_on_c, 0, 74, 0
2, 48540, Note_on_c, 0, 73, 127
2, 48600, Note_on_c, 0, 73, 0
2, 48600, Note_on_c, 0, 69, 0
2, 48600, Note_on_c, 0, 74, 127
2, 48600, Note_on_c, 0, 69, 127
2, 48660, Note_on_c, 0, 74, 0
2, 48660, Note_on_c, 0, 76, 127
2, 48720, Note_on_c, 0, 76, 0
2, 48720, Note_on_c, 0, 69, 0
2, 48720, Note_on_c, 0, 77, 127
2, 48720, Note_on_c, 0, 74, 127
2, 49020, Note_on_c, 0, 74, 0
2, 49020, Note_on_c, 0, 77, 0
2, 49020, Note_on_c, 0, 73, 127
2, 49020, Note_on_c, 0, 76, 127
2, 49080, Note_on_c, 0, 76, 0
2, 49080, Note_on_c, 0, 73, 0
2, 49080, Note_on_c, 0, 74, 127
2, 49080, Note_on_c, 0, 77, 127
2, 49140, Note_on_c, 0, 77, 0
2, 49140, Note_on_c, 0, 74, 0
2, 49140, Note_on_c, 0, 76, 127
2, 49140, Note_on_c, 0, 79, 127
2, 49200, Note_on_c, 0, 79, 0
2, 49200, Note_on_c, 0, 76, 0
2, 49200, Note_on_c, 0, 77, 127
2, 49200, Note_on_c, 0, 81, 127
2, 49320, Note_on_c, 0, 77, 0
2, 49320, Note_on_c, 0, 76, 127
2, 49440, Note_on_c, 0, 76, 0
2, 49440, Note_on_c, 0, 74, 127
2, 49500, Note_on_c, 0, 74, 0
2, 49500, Note_on_c, 0, 81, 0
2, 49500, Note_on_c, 0, 72, 127
2, 49500, Note_on_c, 0, 83, 127
2, 49560, Note_on_c, 0, 83, 0
2, 49560, Note_on_c, 0, 72, 0
2, 49560, Note_on_c, 0, 71, 127
2, 49560, Note_on_c, 0, 80, 127
2, 49620, Note_on_c, 0, 80, 0
2, 49620, Note_on_c, 0, 71, 0
2, 49620, Note_on_c, 0, 69, 127
2, 49620, Note_on_c, 0, 81, 127
2, 49680, Note_on_c, 0, 81, 0
2, 49680, Note_on_c, 0, 69, 0
2, 49680, Note_on_c, 0, 68, 127
2, 49680, Note_on_c, 0, 77, 127
2, 49920, Note_on_c, 0, 68, 0
2, 49920, Note_on_c, 0, 69, 127
2, 49980, Note_on_c, 0, 77, 0
2, 49980, Note_on_c, 0, 77, 127
2, 50040, Note_on_c, 0, 77, 0
2, 50040, Note_on_c, 0, 76, 127
2, 50100, Note_on_c, 0, 76, 0
2, 50100, Note_on_c, 0, 74, 127
2, 50160, Note_on_c, 0, 74, 0
2, 50160, Note_on_c, 0, 69, 0
2, 50160, Note_on_c, 0, 80, 127
2, 50220, Note_on_c, 0, 77, 127
2, 50280, Note_on_c, 0, 77, 0
2, 50280, Note_on_c, 0, 76, 127
2, 50340, Note_on_c, 0, 76, 0
2, 50340, Note_on_c, 0, 74, 127
2, 50400, Note_on_c, 0, 74, 0
2, 50400, Note_on_c, 0, 80, 0
2, 50400, Note_on_c, 0, 76, 114
2, 50400, Note_on_c, 0, 81, 114
2, 50400, Note_on_c, 0, 69, 114
2, 50400, Note_on_c, 0, 73, 114
2, 50880, Note_on_c, 0, 73, 0
2, 50880, Note_on_c, 0, 76, 0
2, 50880, Note_on_c, 0, 81, 0
2, 50880, Note_on_c, 0, 69, 0
2, 51600, Note_on_c, 0, 69, 100
2, 51720, Note_on_c, 0, 69, 0
2, 51720, Note_on_c, 0, 72, 100
2, 51780, Note_on_c, 0, 72, 0
2, 51780, Note_on_c, 0, 71, 100
2, 51840, Note_on_c, 0, 71, 0
2, 51840, Note_on_c, 0, 72, 100
2, 51900, Note_on_c, 0, 72, 0
2, 51900, Note_on_c, 0, 69, 100
2, 51960, Note_on_c, 0, 69, 0
2, 51960, Note_on_c, 0, 71, 100
2, 52050, Note_on_c, 0, 71, 0
2, 52080, Note_on_c, 0, 64, 100
2, 52140, Note_on_c, 0, 64, 0
2, 52140, Note_on_c, 0, 71, 100
2, 52200, Note_on_c, 0, 71, 0
2, 52200, Note_on_c, 0, 76, 100
2, 52260, Note_on_c, 0, 76, 0
2, 52260, Note_on_c, 0, 71, 100
2, 52320, Note_on_c, 0, 71, 0
2, 52320, Note_on_c, 0, 72, 100
2, 52410, Note_on_c, 0, 72, 0
2, 52440, Note_on_c, 0, 69, 100
2, 52560, Note_on_c, 0, 69, 0
2, 52560, Note_on_c, 0, 76, 100
2, 52680, Note_on_c, 0, 76, 0
2, 52680, Note_on_c, 0, 77, 100
2, 52740, Note_on_c, 0, 77, 0
2, 52740, Note_on_c, 0, 76, 100
2, 52800, Note_on_c, 0, 76, 0
2, 52800, Note_on_c, 0, 77, 100
2, 52860, Note_on_c, 0, 77, 0
2, 52860, Note_on_c, 0, 74, 100
2, 52920, Note_on_c, 0, 74, 0
2, 52920, Note_on_c, 0, 77, 100
2, 52980, Note_on_c, 0, 77, 0
2, 52980, Note_on_c, 0, 72, 100
2, 53040, Note_on_c, 0, 72, 0
2, 53040, Note_on_c, 0, 77, 100
2, 53100, Note_on_c, 0, 77, 0
2, 53100, Note_on_c, 0, 74, 100
2, 53160, Note_on_c, 0, 74, 0
2, 53160, Note_on_c, 0, 77, 100
2, 53220, Note_on_c, 0, 77, 0
2, 53220, Note_on_c, 0, 71, 100
2, 53280, Note_on_c, 0, 71, 0
2, 53280, Note_on_c, 0, 77, 100
2, 53340, Note_on_c, 0, 77, 0
2, 53340, Note_on_c, 0, 67, 100
2, 53400, Note_on_c, 0, 67, 0
2, 53400, Note_on_c, 0, 76, 100
2, 53460, Note_on_c, 0, 76, 0
2, 53460, Note_on_c, 0, 74, 100
2, 53520, Note_on_c, 0, 74, 0
2, 53520, Note_on_c, 0, 76, 100
2, 53580, Note_on_c, 0, 76, 0
2, 53580, Note_on_c, 0, 72, 100
2, 53640, Note_on_c, 0, 72, 0
2, 53640, Note_on_c, 0, 76, 100
2, 53700, Note_on_c, 0, 76, 0
2, 53700, Note_on_c, 0, 71, 100
2, 53760, Note_on_c, 0, 71, 0
2, 53760, Note_on_c, 0, 76, 100
2, 53820, Note_on_c, 0, 76, 0
2, 53820, Note_on_c, 0, 72, 100
2, 53880, Note_on_c, 0, 72, 0
2, 53880, Note_on_c, 0, 76, 100
2, 53940, Note_on_c, 0, 76, 0
2, 53940, Note_on_c, 0, 69, 100
2, 54000, Note_on_c, 0, 69, 0
2, 54000, Note_on_c, 0, 76, 100
2, 54060, Note_on_c, 0, 76, 0
2, 54060, Note_on_c, 0, 65, 100
2, 54120, Note_on_c, 0, 65, 0
2, 54120, Note_on_c, 0, 74, 100
2, 54180, Note_on_c, 0, 74, 0
2, 54180, Note_on_c, 0, 72, 100
2, 54240, Note_on_c, 0, 72, 0
2, 54240, Note_on_c, 0, 74, 100
2, 54300, Note_on_c, 0, 74, 0
2, 54300, Note_on_c, 0, 71, 100
2, 54360, Note_on_c, 0, 71, 0
2, 54360, Note_on_c, 0, 74, 100
2, 54420, Note_on_c, 0, 74, 0
2, 54420, Note_on_c, 0, 69, 100
2, 54480, Note_on_c, 0, 69, 0
2, 54480, Note_on_c, 0, 74, 100
2, 54540, Note_on_c, 0, 74, 0
2, 54540, Note_on_c, 0, 71, 100
2, 54600, Note_on_c, 0, 71, 0
2, 54600, Note_on_c, 0, 74, 100
2, 54660, Note_on_c, 0, 74, 0
2, 54660, Note_on_c, 0, 68, 100
2, 54720, Note_on_c, 0, 68, 0
2, 54720, Note_on_c, 0, 74, 100
2, 54780, Note_on_c, 0, 74, 0
2, 54780, Note_on_c, 0, 64, 100
2, 54840, Note_on_c, 0, 64, 0
2, 54840, Note_on_c, 0, 72, 100
2, 54900, Note_on_c, 0, 72, 0
2, 54900, Note_on_c, 0, 69, 100
2, 54960, Note_on_c, 0, 69, 0
2, 54960, Note_on_c, 0, 72, 100
2, 55020, Note_on_c, 0, 72, 0
2, 55020, Note_on_c, 0, 76, 100
2, 55080, Note_on_c, 0, 76, 0
2, 55080, Note_on_c, 0, 81, 100
2, 55140, Note_on_c, 0, 81, 0
2, 55140, Note_on_c, 0, 78, 100
2, 55200, Note_on_c, 0, 78, 0
2, 55200, Note_on_c, 0, 64, 100
2, 55200, Note_on_c, 0, 79, 100
2, 55320, Note_on_c, 0, 79, 0
2, 55320, Note_on_c, 0, 64, 0
2, 55320, Note_on_c, 0, 67, 100
2, 55320, Note_on_c, 0, 76, 100
2, 55380, Note_on_c, 0, 67, 0
2, 55380, Note_on_c, 0, 66, 100
2, 55440, Note_on_c, 0, 66, 0
2, 55440, Note_on_c, 0, 67, 100
2, 55500, Note_on_c, 0, 67, 0
2, 55500, Note_on_c, 0, 64, 100
2, 55560, Note_on_c, 0, 64, 0
2, 55560, Note_on_c, 0, 66, 100
2, 55620, Note_on_c, 0, 76, 0
2, 55620, Note_on_c, 0, 75, 100
2, 55650, Note_on_c, 0, 66, 0
2, 55680, Note_on_c, 0, 75, 0
2, 55680, Note_on_c, 0, 59, 100
2, 55680, Note_on_c, 0, 76, 100
2, 55740, Note_on_c, 0, 76, 0
2, 55740, Note_on_c, 0, 59, 0
2, 55740, Note_on_c, 0, 66, 100
2, 55740, Note_on_c, 0, 73, 100
2, 55800, Note_on_c, 0, 73, 0
2, 55800, Note_on_c, 0, 66, 0
2, 55800, Note_on_c, 0, 71, 100
2, 55800, Note_on_c, 0, 75, 100
2, 55860, Note_on_c, 0, 75, 0
2, 55860, Note_on_c, 0, 71, 0
2, 55860, Note_on_c, 0, 66, 100
2, 55860, Note_on_c, 0, 78, 100
2, 55920, Note_on_c, 0, 78, 0
2, 55920, Note_on_c, 0, 66, 0
2, 55920, Note_on_c, 0, 83, 100
2, 55920, Note_on_c, 0, 67, 100
2, 56010, Note_on_c, 0, 67, 0
2, 56040, Note_on_c, 0, 64, 100
2, 56160, Note_on_c, 0, 64, 0
2, 56160, Note_on_c, 0, 71, 100
2, 56280, Note_on_c, 0, 71, 0
2, 56280, Note_on_c, 0, 72, 100
2, 56340, Note_on_c, 0, 72, 0
2, 56340, Note_on_c, 0, 71, 100
2, 56400, Note_on_c, 0, 71, 0
2, 56400, Note_on_c, 0, 83, 0
2, 56400, Note_on_c, 0, 81, 100
2, 56400, Note_on_c, 0, 72, 100
2, 56460, Note_on_c, 0, 72, 0
2, 56460, Note_on_c, 0, 81, 0
2, 56460, Note_on_c, 0, 79, 100
2, 56460, Note_on_c, 0, 69, 100
2, 56520, Note_on_c, 0, 69, 0
2, 56520, Note_on_c, 0, 79, 0
2, 56520, Note_on_c, 0, 78, 100
2, 56520, Note_on_c, 0, 72, 100
2, 56580, Note_on_c, 0, 72, 0
2, 56580, Note_on_c, 0, 78, 0
2, 56580, Note_on_c, 0, 76, 100
2, 56580, Note_on_c, 0, 67, 100
2, 56640, Note_on_c, 0, 67, 0
2, 56640, Note_on_c, 0, 76, 0
2, 56640, Note_on_c, 0, 81, 100
2, 56640, Note_on_c, 0, 72, 100
2, 56700, Note_on_c, 0, 72, 0
2, 56700, Note_on_c, 0, 69, 100
2, 56760, Note_on_c, 0, 69, 0
2, 56760, Note_on_c, 0, 72, 100
2, 56820, Note_on_c, 0, 72, 0
2, 56820, Note_on_c, 0, 66, 100
2, 56880, Note_on_c, 0, 66, 0
2, 56880, Note_on_c, 0, 72, 100
2, 56940, Note_on_c, 0, 72, 0
2, 56940, Note_on_c, 0, 62, 100
2, 57000, Note_on_c, 0, 62, 0
2, 57000, Note_on_c, 0, 71, 100
2, 57060, Note_on_c, 0, 71, 0
2, 57060, Note_on_c, 0, 69, 100
2, 57120, Note_on_c, 0, 69, 0
2, 57120, Note_on_c, 0, 81, 0
2, 57120, Note_on_c, 0, 79, 100
2, 57120, Note_on_c, 0, 71, 100
2, 57180, Note_on_c, 0, 71, 0
2, 57180, Note_on_c, 0, 79, 0
2, 57180, Note_on_c, 0, 78, 100
2, 57180, Note_on_c, 0, 67, 100
2, 57240, Note_on_c, 0, 67, 0
2, 57240, Note_on_c, 0, 78, 0
2, 57240, Note_on_c, 0, 76, 100
2, 57240, Note_on_c, 0, 71, 100
2, 57300, Note_on_c, 0, 71, 0
2, 57300, Note_on_c, 0, 76, 0
2, 57300, Note_on_c, 0, 74, 100
2, 57300, Note_on_c, 0, 66, 100
2, 57360, Note_on_c, 0, 66, 0
2, 57360, Note_on_c, 0, 74, 0
2, 57360, Note_on_c, 0, 79, 100
2, 57360, Note_on_c, 0, 71, 100
2, 57420, Note_on_c, 0, 71, 0
2, 57420, Note_on_c, 0, 67, 100
2, 57480, Note_on_c, 0, 67, 0
2, 57480, Note_on_c, 0, 71, 100
2, 57540, Note_on_c, 0, 71, 0
2, 57540, Note_on_c, 0, 64, 100
2, 57600, Note_on_c, 0, 64, 0
2, 57600, Note_on_c, 0, 71, 100
2, 57660, Note_on_c, 0, 71, 0
2, 57660, Note_on_c, 0, 60, 100
2, 57720, Note_on_c, 0, 60, 0
2, 57720, Note_on_c, 0, 69, 100
2, 57780, Note_on_c, 0, 69, 0
2, 57780, Note_on_c, 0, 67, 100
2, 57840, Note_on_c, 0, 67, 0
2, 57840, Note_on_c, 0, 79, 0
2, 57840, Note_on_c, 0, 78, 100
2, 57840, Note_on_c, 0, 69, 100
2, 57900, Note_on_c, 0, 69, 0
2, 57900, Note_on_c, 0, 78, 0
2, 57900, Note_on_c, 0, 76, 100
2, 57900, Note_on_c, 0, 66, 100
2, 57960, Note_on_c, 0, 66, 0
2, 57960, Note_on_c, 0, 76, 0
2, 57960, Note_on_c, 0, 75, 100
2, 57960, Note_on_c, 0, 69, 100
2, 58020, Note_on_c, 0, 69, 0
2, 58020, Note_on_c, 0, 75, 0
2, 58020, Note_on_c, 0, 76, 100
2, 58020, Note_on_c, 0, 64, 100
2, 58080, Note_on_c, 0, 64, 0
2, 58080, Note_on_c, 0, 76, 0
2, 58080, Note_on_c, 0, 78, 100
2, 58080, Note_on_c, 0, 69, 100
2, 58140, Note_on_c, 0, 69, 0
2, 58140, Note_on_c, 0, 66, 100
2, 58200, Note_on_c, 0, 66, 0
2, 58200, Note_on_c, 0, 69, 100
2, 58260, Note_on_c, 0, 69, 0
2, 58260, Note_on_c, 0, 63, 100
2, 58320, Note_on_c, 0, 63, 0
2, 58320, Note_on_c, 0, 69, 100
2, 58380, Note_on_c, 0, 69, 0
2, 58380, Note_on_c, 0, 59, 100
2, 58440, Note_on_c, 0, 59, 0
2, 58440, Note_on_c, 0, 67, 100
2, 58500, Note_on_c, 0, 67, 0
2, 58500, Note_on_c, 0, 66, 100
2, 58560, Note_on_c, 0, 66, 0
2, 58560, Note_on_c, 0, 78, 0
2, 58560, Note_on_c, 0, 76, 100
2, 58560, Note_on_c, 0, 67, 100
2, 58620, Note_on_c, 0, 67, 0
2, 58620, Note_on_c, 0, 76, 0
2, 58620, Note_on_c, 0, 78, 100
2, 58620, Note_on_c, 0, 71, 100
2, 58680, Note_on_c, 0, 71, 0
2, 58680, Note_on_c, 0, 78, 0
2, 58680, Note_on_c, 0, 79, 100
2, 58680, Note_on_c, 0, 76, 100
2, 58740, Note_on_c, 0, 76, 0
2, 58740, Note_on_c, 0, 73, 100
2, 58800, Note_on_c, 0, 73, 0
2, 58800, Note_on_c, 0, 74, 100
2, 58860, Note_on_c, 0, 79, 0
2, 58860, Note_on_c, 0, 79, 100
2, 58920, Note_on_c, 0, 79, 0
2, 58920, Note_on_c, 0, 78, 100
2, 58980, Note_on_c, 0, 78, 0
2, 58980, Note_on_c, 0, 76, 100
2, 59040, Note_on_c, 0, 76, 0
2, 59040, Note_on_c, 0, 78, 100
2, 59100, Note_on_c, 0, 78, 0
2, 59100, Note_on_c, 0, 74, 100
2, 59160, Note_on_c, 0, 74, 0
2, 59160, Note_on_c, 0, 76, 100
2, 59220, Note_on_c, 0, 74, 0
2, 59220, Note_on_c, 0, 68, 100
2, 59280, Note_on_c, 0, 68, 0
2, 59280, Note_on_c, 0, 76, 0
2, 59280, Note_on_c, 0, 69, 100
2, 59280, Note_on_c, 0, 81, 100
2, 59340, Note_on_c, 0, 69, 0
2, 59340, Note_on_c, 0, 72, 100
2, 59400, Note_on_c, 0, 72, 0
2, 59400, Note_on_c, 0, 78, 100
2, 59460, Note_on_c, 0, 78, 0
2, 59460, Note_on_c, 0, 75, 100
2, 59520, Note_on_c, 0, 75, 0
2, 59520, Note_on_c, 0, 76, 100
2, 59580, Note_on_c, 0, 81, 0
2, 59580, Note_on_c, 0, 81, 100
2, 59640, Note_on_c, 0, 81, 0
2, 59640, Note_on_c, 0, 80, 100
2, 59700, Note_on_c, 0, 80, 0
2, 59700, Note_on_c, 0, 78, 100
2, 59760, Note_on_c, 0, 78, 0
2, 59760, Note_on_c, 0, 80, 100
2, 59820, Note_on_c, 0, 80, 0
2, 59820, Note_on_c, 0, 76, 100
2, 59880, Note_on_c, 0, 76, 0
2, 59880, Note_on_c, 0, 84, 100
2, 59940, Note_on_c, 0, 76, 0
2, 59940, Note_on_c, 0, 74, 100
2, 60000, Note_on_c, 0, 74, 0
2, 60000, Note_on_c, 0, 72, 100
2, 60060, Note_on_c, 0, 72, 0
2, 60060, Note_on_c, 0, 71, 100
2, 60120, Note_on_c, 0, 71, 0
2, 60120, Note_on_c, 0, 72, 100
2, 60180, Note_on_c, 0, 72, 0
2, 60180, Note_on_c, 0, 69, 100
2, 60240, Note_on_c, 0, 69, 0
2, 60240, Note_on_c, 0, 74, 100
2, 60300, Note_on_c, 0, 84, 0
2, 60300, Note_on_c, 0, 84, 100
2, 60360, Note_on_c, 0, 84, 0
2, 60360, Note_on_c, 0, 83, 100
2, 60420, Note_on_c, 0, 83, 0
2, 60420, Note_on_c, 0, 81, 100
2, 60480, Note_on_c, 0, 81, 0
2, 60480, Note_on_c, 0, 79, 100
2, 60540, Note_on_c, 0, 79, 0
2, 60540, Note_on_c, 0, 78, 100
2, 60600, Note_on_c, 0, 78, 0
2, 60600, Note_on_c, 0, 76, 100
2, 60660, Note_on_c, 0, 74, 0
2, 60660, Note_on_c, 0, 74, 100
2, 60720, Note_on_c, 0, 74, 0
2, 60720, Note_on_c, 0, 72, 100
2, 60780, Note_on_c, 0, 72, 0
2, 60780, Note_on_c, 0, 71, 100
2, 60840, Note_on_c, 0, 71, 0
2, 60840, Note_on_c, 0, 69, 100
2, 60900, Note_on_c, 0, 69, 0
2, 60900, Note_on_c, 0, 67, 100
2, 60960, Note_on_c, 0, 67, 0
2, 60960, Note_on_c, 0, 65, 100
2, 61020, Note_on_c, 0, 76, 0
2, 61020, Note_on_c, 0, 76, 100
2, 61080, Note_on_c, 0, 76, 0
2, 61080, Note_on_c, 0, 74, 100
2, 61140, Note_on_c, 0, 74, 0
2, 61140, Note_on_c, 0, 72, 100
2, 61200, Note_on_c, 0, 72, 0
2, 61200, Note_on_c, 0, 71, 100
2, 61260, Note_on_c, 0, 71, 0
2, 61260, Note_on_c, 0, 69, 100
2, 61320, Note_on_c, 0, 69, 0
2, 61320, Note_on_c, 0, 68, 100
2, 61380, Note_on_c, 0, 68, 0
2, 61380, Note_on_c, 0, 65, 0
2, 61380, Note_on_c, 0, 69, 100
2, 61380, Note_on_c, 0, 64, 100
2, 61440, Note_on_c, 0, 64, 0
2, 61440, Note_on_c, 0, 69, 0
2, 61440, Note_on_c, 0, 71, 100
2, 61440, Note_on_c, 0, 62, 100
2, 61500, Note_on_c, 0, 62, 0
2, 61500, Note_on_c, 0, 71, 0
2, 61500, Note_on_c, 0, 72, 100
2, 61500, Note_on_c, 0, 64, 100
2, 61560, Note_on_c, 0, 64, 0
2, 61560, Note_on_c, 0, 72, 0
2, 61560, Note_on_c, 0, 74, 100
2, 61560, Note_on_c, 0, 66, 100
2, 61620, Note_on_c, 0, 66, 0
2, 61620, Note_on_c, 0, 74, 0
2, 61620, Note_on_c, 0, 71, 100
2, 61620, Note_on_c, 0, 68, 100
2, 61680, Note_on_c, 0, 68, 0
2, 61680, Note_on_c, 0, 71, 0
2, 61680, Note_on_c, 0, 69, 100
2, 61680, Note_on_c, 0, 72, 100
2, 61740, Note_on_c, 0, 72, 0
2, 61740, Note_on_c, 0, 74, 100
2, 61800, Note_on_c, 0, 74, 0
2, 61800, Note_on_c, 0, 76, 100
2, 61860, Note_on_c, 0, 76, 0
2, 61860, Note_on_c, 0, 74, 100
2, 61920, Note_on_c, 0, 74, 0
2, 61920, Note_on_c, 0, 76, 100
2, 61980, Note_on_c, 0, 76, 0
2, 61980, Note_on_c, 0, 77, 100
2, 62040, Note_on_c, 0, 77, 0
2, 62040, Note_on_c, 0, 74, 100
2, 62100, Note_on_c, 0, 69, 0
2, 62100, Note_on_c, 0, 68, 100
2, 62160, Note_on_c, 0, 68, 0
2, 62160, Note_on_c, 0, 69, 100
2, 62220, Note_on_c, 0, 69, 0
2, 62220, Note_on_c, 0, 66, 100
2, 62280, Note_on_c, 0, 66, 0
2, 62280, Note_on_c, 0, 68, 100
2, 62340, Note_on_c, 0, 68, 0
2, 62340, Note_on_c, 0, 71, 100
2, 62400, Note_on_c, 0, 71, 0
2, 62400, Note_on_c, 0, 64, 100
2, 62460, Note_on_c, 0, 74, 0
2, 62460, Note_on_c, 0, 74, 100
2, 62520, Note_on_c, 0, 74, 0
2, 62520, Note_on_c, 0, 64, 0
2, 62520, Note_on_c, 0, 72, 100
2, 62520, Note_on_c, 0, 76, 100
2, 62580, Note_on_c, 0, 72, 0
2, 62580, Note_on_c, 0, 71, 100
2, 62640, Note_on_c, 0, 71, 0
2, 62640, Note_on_c, 0, 69, 100
2, 62700, Note_on_c, 0, 69, 0
2, 62700, Note_on_c, 0, 68, 100
2, 62760, Note_on_c, 0, 68, 0
2, 62760, Note_on_c, 0, 69, 100
2, 62880, Note_on_c, 0, 76, 0
2, 62880, Note_on_c, 0, 74, 100
2, 62940, Note_on_c, 0, 74, 0
2, 62940, Note_on_c, 0, 72, 100
2, 63000, Note_on_c, 0, 72, 0
2, 63000, Note_on_c, 0, 71, 100
2, 63060, Note_on_c, 0, 71, 0
2, 63060, Note_on_c, 0, 69, 100
2, 63120, Note_on_c, 0, 69, 0
2, 63120, Note_on_c, 0, 69, 0
2, 63120, Note_on_c, 0, 74, 100
2, 63120, Note_on_c, 0, 81, 100
2, 63240, Note_on_c, 0, 81, 0
2, 63240, Note_on_c, 0, 79, 100
2, 63300, Note_on_c, 0, 79, 0
2, 63300, Note_on_c, 0, 77, 100
2, 63360, Note_on_c, 0, 77, 0
2, 63360, Note_on_c, 0, 76, 100
2, 63420, Note_on_c, 0, 76, 0
2, 63420, Note_on_c, 0, 74, 100
2, 63480, Note_on_c, 0, 74, 0
2, 63480, Note_on_c, 0, 79, 100
2, 63600, Note_on_c, 0, 74, 0
2, 63600, Note_on_c, 0, 72, 100
2, 63660, Note_on_c, 0, 72, 0
2, 63660, Note_on_c, 0, 71, 100
2, 63720, Note_on_c, 0, 71, 0
2, 63720, Note_on_c, 0, 69, 100
2, 63780, Note_on_c, 0, 69, 0
2, 63780, Note_on_c, 0, 67, 100
2, 63840, Note_on_c, 0, 67, 0
2, 63840, Note_on_c, 0, 72, 100
2, 63960, Note_on_c, 0, 79, 0
2, 63960, Note_on_c, 0, 77, 100
2, 64020, Note_on_c, 0, 77, 0
2, 64020, Note_on_c, 0, 76, 100
2, 64080, Note_on_c, 0, 76, 0
2, 64080, Note_on_c, 0, 74, 100
2, 64140, Note_on_c, 0, 74, 0
2, 64140, Note_on_c, 0, 72, 100
2, 64200, Note_on_c, 0, 72, 0
2, 64200, Note_on_c, 0, 77, 100
2, 64320, Note_on_c, 0, 72, 0
2, 64320, Note_on_c, 0, 71, 100
2, 64380, Note_on_c, 0, 71, 0
2, 64380, Note_on_c, 0, 69, 100
2, 64440, Note_on_c, 0, 69, 0
2, 64440, Note_on_c, 0, 68, 100
2, 64500, Note_on_c, 0, 68, 0
2, 64500, Note_on_c, 0, 69, 100
2, 64560, Note_on_c, 0, 69, 0
2, 64560, Note_on_c, 0, 71, 100
2, 64680, Note_on_c, 0, 77, 0
2, 64680, Note_on_c, 0, 76, 100
2, 64740, Note_on_c, 0, 76, 0
2, 64740, Note_on_c, 0, 74, 100
2, 64800, Note_on_c, 0, 74, 0
2, 64800, Note_on_c, 0, 72, 100
2, 64860, Note_on_c, 0, 72, 0
2, 64860, Note_on_c, 0, 74, 100
2, 64920, Note_on_c, 0, 74, 0
2, 64920, Note_on_c, 0, 76, 100
2, 65040, Note_on_c, 0, 71, 0
2, 65040, Note_on_c, 0, 69, 100
2, 65100, Note_on_c, 0, 69, 0
2, 65100, Note_on_c, 0, 71, 100
2, 65160, Note_on_c, 0, 71, 0
2, 65160, Note_on_c, 0, 72, 100
2, 65220, Note_on_c, 0, 72, 0
2, 65220, Note_on_c, 0, 69, 100
2, 65280, Note_on_c, 0, 69, 0
2, 65280, Note_on_c, 0, 76, 0
2, 65280, Note_on_c, 0, 72, 100
2, 65340, Note_on_c, 0, 76, 100
2, 65400, Note_on_c, 0, 76, 0
2, 65400, Note_on_c, 0, 81, 100
2, 65460, Note_on_c, 0, 81, 0
2, 65460, Note_on_c, 0, 79, 100
2, 65520, Note_on_c, 0, 79, 0
2, 65520, Note_on_c, 0, 78, 100
2, 65580, Note_on_c, 0, 78, 0
2, 65580, Note_on_c, 0, 76, 100
2, 65640, Note_on_c, 0, 76, 0
2, 65640, Note_on_c, 0, 74, 100
2, 65700, Note_on_c, 0, 72, 0
2, 65700, Note_on_c, 0, 72, 100
2, 65760, Note_on_c, 0, 72, 0
2, 65760, Note_on_c, 0, 71, 100
2, 65820, Note_on_c, 0, 71, 0
2, 65820, Note_on_c, 0, 69, 100
2, 65880, Note_on_c, 0, 69, 0
2, 65880, Note_on_c, 0, 71, 100
2, 66000, Note_on_c, 0, 71, 0
2, 66000, Note_on_c, 0, 74, 0
2, 66060, Note_on_c, 0, 71, 100
2, 66120, Note_on_c, 0, 76, 100
2, 66180, Note_on_c, 0, 76, 0
2, 66180, Note_on_c, 0, 78, 100
2, 66240, Note_on_c, 0, 78, 0
2, 66240, Note_on_c, 0, 71, 0
2, 66240, Note_on_c, 0, 71, 100
2, 66240, Note_on_c, 0, 79, 100
2, 66360, Note_on_c, 0, 71, 0
2, 66360, Note_on_c, 0, 69, 100
2, 66420, Note_on_c, 0, 69, 0
2, 66420, Note_on_c, 0, 73, 100
2, 66480, Note_on_c, 0, 73, 0
2, 66480, Note_on_c, 0, 76, 100
2, 66540, Note_on_c, 0, 76, 0
2, 66540, Note_on_c, 0, 74, 100
2, 66600, Note_on_c, 0, 74, 0
2, 66600, Note_on_c, 0, 73, 100
2, 66660, Note_on_c, 0, 73, 0
2, 66660, Note_on_c, 0, 71, 100
2, 66720, Note_on_c, 0, 71, 0
2, 66720, Note_on_c, 0, 69, 100
2, 66780, Note_on_c, 0, 79, 0
2, 66780, Note_on_c, 0, 73, 100
2, 66840, Note_on_c, 0, 73, 0
2, 66840, Note_on_c, 0, 69, 0
2, 66840, Note_on_c, 0, 71, 100
2, 66840, Note_on_c, 0, 74, 100
2, 66960, Note_on_c, 0, 74, 0
2, 66960, Note_on_c, 0, 71, 0
2, 66960, Note_on_c, 0, 73, 100
2, 66960, Note_on_c, 0, 76, 100
2, 67080, Note_on_c, 0, 76, 0
2, 67080, Note_on_c, 0, 77, 100
2, 67140, Note_on_c, 0, 73, 0
2, 67140, Note_on_c, 0, 69, 100
2, 67200, Note_on_c, 0, 69, 0
2, 67200, Note_on_c, 0, 71, 100
2, 67260, Note_on_c, 0, 71, 0
2, 67260, Note_on_c, 0, 73, 100
2, 67320, Note_on_c, 0, 73, 0
2, 67320, Note_on_c, 0, 74, 100
2, 67380, Note_on_c, 0, 74, 0
2, 67380, Note_on_c, 0, 69, 100
2, 67440, Note_on_c, 0, 69, 0
2, 67440, Note_on_c, 0, 77, 0
2, 67440, Note_on_c, 0, 68, 100
2, 67440, Note_on_c, 0, 76, 100
2, 67500, Note_on_c, 0, 68, 0
2, 67500, Note_on_c, 0, 64, 100
2, 67560, Note_on_c, 0, 64, 0
2, 67560, Note_on_c, 0, 69, 100
2, 67620, Note_on_c, 0, 69, 0
2, 67620, Note_on_c, 0, 71, 100
2, 67680, Note_on_c, 0, 71, 0
2, 67680, Note_on_c, 0, 72, 100
2, 67740, Note_on_c, 0, 72, 0
2, 67740, Note_on_c, 0, 69, 100
2, 67800, Note_on_c, 0, 69, 0
2, 67800, Note_on_c, 0, 76, 0
2, 67800, Note_on_c, 0, 66, 100
2, 67800, Note_on_c, 0, 74, 100
2, 67920, Note_on_c, 0, 66, 0
2, 67920, Note_on_c, 0, 68, 100
2, 68010, Note_on_c, 0, 68, 0
2, 68010, Note_on_c, 0, 71, 100
2, 68160, Note_on_c, 0, 74, 0
2, 68160, Note_on_c, 0, 72, 100
2, 68220, Note_on_c, 0, 71, 0
2, 68220, Note_on_c, 0, 71, 100
2, 68280, Note_on_c, 0, 71, 0
2, 68280, Note_on_c, 0, 69, 100
2, 68340, Note_on_c, 0, 69, 0
2, 68340, Note_on_c, 0, 68, 100
2, 68400, Note_on_c, 0, 68, 0
2, 68400, Note_on_c, 0, 69, 100
2, 68460, Note_on_c, 0, 69, 0
2, 68460, Note_on_c, 0, 64, 100
2, 68520, Note_on_c, 0, 64, 0
2, 68520, Note_on_c, 0, 65, 100
2, 68580, Note_on_c, 0, 72, 0
2, 68580, Note_on_c, 0, 72, 100
2, 68640, Note_on_c, 0, 72, 0
2, 68640, Note_on_c, 0, 71, 100
2, 68700, Note_on_c, 0, 71, 0
2, 68700, Note_on_c, 0, 69, 100
2, 68760, Note_on_c, 0, 69, 0
2, 68760, Note_on_c, 0, 71, 100
2, 68820, Note_on_c, 0, 71, 0
2, 68820, Note_on_c, 0, 74, 100
2, 68880, Note_on_c, 0, 74, 0
2, 68880, Note_on_c, 0, 65, 0
2, 68880, Note_on_c, 0, 64, 100
2, 68880, Note_on_c, 0, 68, 100
2, 69000, Note_on_c, 0, 68, 0
2, 69000, Note_on_c, 0, 69, 100
2, 69120, Note_on_c, 0, 64, 0
2, 69120, Note_on_c, 0, 66, 100
2, 69240, Note_on_c, 0, 66, 0
2, 69240, Note_on_c, 0, 69, 0
2, 69240, Note_on_c, 0, 63, 100
2, 69240, Note_on_c, 0, 69, 100
2, 69300, Note_on_c, 0, 69, 0
2, 69300, Note_on_c, 0, 69, 100
2, 69360, Note_on_c, 0, 69, 0
2, 69360, Note_on_c, 0, 63, 0
2, 69360, Note_on_c, 0, 64, 100
2, 69360, Note_on_c, 0, 67, 100
2, 69420, Note_on_c, 0, 67, 0
2, 69420, Note_on_c, 0, 66, 100
2, 69480, Note_on_c, 0, 66, 0
2, 69480, Note_on_c, 0, 67, 100
2, 69540, Note_on_c, 0, 67, 0
2, 69540, Note_on_c, 0, 64, 100
2, 69600, Note_on_c, 0, 64, 0
2, 69600, Note_on_c, 0, 64, 0
2, 69600, Note_on_c, 0, 64, 100
2, 69600, Note_on_c, 0, 72, 100
2, 69660, Note_on_c, 0, 64, 0
2, 69660, Note_on_c, 0, 64, 100
2, 69720, Note_on_c, 0, 64, 0
2, 69720, Note_on_c, 0, 63, 100
2, 69780, Note_on_c, 0, 72, 0
2, 69780, Note_on_c, 0, 72, 100
2, 69840, Note_on_c, 0, 72, 0
2, 69840, Note_on_c, 0, 71, 100
2, 69900, Note_on_c, 0, 71, 0
2, 69900, Note_on_c, 0, 69, 100
2, 69960, Note_on_c, 0, 69, 0
2, 69960, Note_on_c, 0, 63, 0
2, 69960, Note_on_c, 0, 64, 100
2, 69960, Note_on_c, 0, 67, 100
2, 70200, Note_on_c, 0, 67, 0
2, 70200, Note_on_c, 0, 64, 0
2, 70260, Note_on_c, 0, 67, 100
2, 70320, Note_on_c, 0, 67, 0
2, 70320, Note_on_c, 0, 69, 100
2, 70380, Note_on_c, 0, 69, 0
2, 70380, Note_on_c, 0, 67, 100
2, 70440, Note_on_c, 0, 67, 0
2, 70440, Note_on_c, 0, 69, 100
2, 70560, Note_on_c, 0, 78, 100
2, 70680, Note_on_c, 0, 78, 0
2, 70680, Note_on_c, 0, 83, 100
2, 70800, Note_on_c, 0, 69, 0
2, 70800, Note_on_c, 0, 67, 100
2, 70860, Note_on_c, 0, 67, 0
2, 70860, Note_on_c, 0, 66, 100
2, 70920, Note_on_c, 0, 66, 0
2, 70920, Note_on_c, 0, 67, 100
2, 70980, Note_on_c, 0, 67, 0
2, 70980, Note_on_c, 0, 71, 100
2, 71040, Note_on_c, 0, 71, 0
2, 71040, Note_on_c, 0, 76, 100
2, 71160, Note_on_c, 0, 83, 0
2, 71160, Note_on_c, 0, 81, 100
2, 71220, Note_on_c, 0, 81, 0
2, 71220, Note_on_c, 0, 79, 100
2, 71280, Note_on_c, 0, 79, 0
2, 71280, Note_on_c, 0, 78, 100
2, 71340, Note_on_c, 0, 78, 0
2, 71340, Note_on_c, 0, 76, 100
2, 71400, Note_on_c, 0, 76, 0
2, 71400, Note_on_c, 0, 81, 100
2, 71520, Note_on_c, 0, 76, 0
2, 71520, Note_on_c, 0, 74, 100
2, 71580, Note_on_c, 0, 74, 0
2, 71580, Note_on_c, 0, 72, 100
2, 71640, Note_on_c, 0, 72, 0
2, 71640, Note_on_c, 0, 71, 100
2, 71700, Note_on_c, 0, 71, 0
2, 71700, Note_on_c, 0, 69, 100
2, 71760, Note_on_c, 0, 69, 0
2, 71760, Note_on_c, 0, 74, 100
2, 71880, Note_on_c, 0, 81, 0
2, 71880, Note_on_c, 0, 79, 100
2, 71940, Note_on_c, 0, 79, 0
2, 71940, Note_on_c, 0, 78, 100
2, 72000, Note_on_c, 0, 78, 0
2, 72000, Note_on_c, 0, 76, 100
2, 72060, Note_on_c, 0, 76, 0
2, 72060, Note_on_c, 0, 74, 100
2, 72120, Note_on_c, 0, 74, 0
2, 72120, Note_on_c, 0, 79, 100
2, 72240, Note_on_c, 0, 74, 0
2, 72240, Note_on_c, 0, 72, 100
2, 72300, Note_on_c, 0, 72, 0
2, 72300, Note_on_c, 0, 71, 100
2, 72360, Note_on_c, 0, 71, 0
2, 72360, Note_on_c, 0, 69, 100
2, 72420, Note_on_c, 0, 69, 0
2, 72420, Note_on_c, 0, 67, 100
2, 72480, Note_on_c, 0, 67, 0
2, 72480, Note_on_c, 0, 72, 100
2, 72600, Note_on_c, 0, 79, 0
2, 72600, Note_on_c, 0, 78, 100
2, 72660, Note_on_c, 0, 78, 0
2, 72660, Note_on_c, 0, 76, 100
2, 72720, Note_on_c, 0, 76, 0
2, 72720, Note_on_c, 0, 74, 100
2, 72780, Note_on_c, 0, 74, 0
2, 72780, Note_on_c, 0, 72, 100
2, 72840, Note_on_c, 0, 72, 0
2, 72840, Note_on_c, 0, 78, 100
2, 72960, Note_on_c, 0, 72, 0
2, 72960, Note_on_c, 0, 71, 100
2, 73020, Note_on_c, 0, 71, 0
2, 73020, Note_on_c, 0, 69, 100
2, 73080, Note_on_c, 0, 69, 0
2, 73080, Note_on_c, 0, 67, 100
2, 73140, Note_on_c, 0, 67, 0
2, 73140, Note_on_c, 0, 66, 100
2, 73200, Note_on_c, 0, 66, 0
2, 73200, Note_on_c, 0, 71, 100
2, 73320, Note_on_c, 0, 78, 0
2, 73320, Note_on_c, 0, 76, 100
2, 73380, Note_on_c, 0, 76, 0
2, 73380, Note_on_c, 0, 78, 100
2, 73440, Note_on_c, 0, 78, 0
2, 73440, Note_on_c, 0, 79, 100
2, 73560, Note_on_c, 0, 71, 0
2, 73560, Note_on_c, 0, 69, 100
2, 73680, Note_on_c, 0, 69, 0
2, 73680, Note_on_c, 0, 79, 0
2, 73680, Note_on_c, 0, 67, 100
2, 73680, Note_on_c, 0, 69, 100
2, 73800, Note_on_c, 0, 69, 0
2, 73800, Note_on_c, 0, 67, 0
2, 73800, Note_on_c, 0, 67, 100
2, 73800, Note_on_c, 0, 73, 100
2, 73920, Note_on_c, 0, 73, 0
2, 73920, Note_on_c, 0, 67, 0
2, 73920, Note_on_c, 0, 69, 100
2, 73920, Note_on_c, 0, 74, 100
2, 73980, Note_on_c, 0, 74, 0
2, 73980, Note_on_c, 0, 73, 100
2, 74040, Note_on_c, 0, 73, 0
2, 74040, Note_on_c, 0, 74, 100
2, 74100, Note_on_c, 0, 74, 0
2, 74100, Note_on_c, 0, 76, 100
2, 74160, Note_on_c, 0, 76, 0
2, 74160, Note_on_c, 0, 77, 100
2, 74280, Note_on_c, 0, 69, 0
2, 74280, Note_on_c, 0, 67, 100
2, 74400, Note_on_c, 0, 67, 0
2, 74400, Note_on_c, 0, 77, 0
2, 74400, Note_on_c, 0, 65, 100
2, 74400, Note_on_c, 0, 67, 100
2, 74520, Note_on_c, 0, 67, 0
2, 74520, Note_on_c, 0, 65, 0
2, 74520, Note_on_c, 0, 65, 100
2, 74520, Note_on_c, 0, 71, 100
2, 74640, Note_on_c, 0, 71, 0
2, 74640, Note_on_c, 0, 65, 0
2, 74640, Note_on_c, 0, 67, 100
2, 74640, Note_on_c, 0, 72, 100
2, 74700, Note_on_c, 0, 72, 0
2, 74700, Note_on_c, 0, 71, 100
2, 74760, Note_on_c, 0, 71, 0
2, 74760, Note_on_c, 0, 72, 100
2, 74820, Note_on_c, 0, 72, 0
2, 74820, Note_on_c, 0, 74, 100
2, 74880, Note_on_c, 0, 74, 0
2, 74880, Note_on_c, 0, 67, 0
2, 74880, Note_on_c, 0, 72, 100
2, 74880, Note_on_c, 0, 76, 100
2, 75000, Note_on_c, 0, 72, 0
2, 75000, Note_on_c, 0, 65, 100
2, 75060, Note_on_c, 0, 76, 0
2, 75060, Note_on_c, 0, 71, 100
2, 75120, Note_on_c, 0, 71, 0
2, 75120, Note_on_c, 0, 72, 100
2, 75180, Note_on_c, 0, 72, 0
2, 75180, Note_on_c, 0, 74, 100
2, 75240, Note_on_c, 0, 74, 0
2, 75240, Note_on_c, 0, 76, 100
2, 75300, Note_on_c, 0, 76, 0
2, 75300, Note_on_c, 0, 72, 100
2, 75360, Note_on_c, 0, 72, 0
2, 75360, Note_on_c, 0, 77, 100
2, 75420, Note_on_c, 0, 77, 0
2, 75420, Note_on_c, 0, 79, 100
2, 75480, Note_on_c, 0, 79, 0
2, 75480, Note_on_c, 0, 77, 100
2, 75540, Note_on_c, 0, 77, 0
2, 75540, Note_on_c, 0, 76, 100
2, 75600, Note_on_c, 0, 76, 0
2, 75600, Note_on_c, 0, 74, 100
2, 75660, Note_on_c, 0, 74, 0
2, 75660, Note_on_c, 0, 72, 100
2, 75720, Note_on_c, 0, 72, 0
2, 75720, Note_on_c, 0, 71, 100
2, 75780, Note_on_c, 0, 71, 0
2, 75780, Note_on_c, 0, 69, 100
2, 75840, Note_on_c, 0, 69, 0
2, 75840, Note_on_c, 0, 65, 0
2, 75840, Note_on_c, 0, 64, 100
2, 75840, Note_on_c, 0, 71, 100
2, 75900, Note_on_c, 0, 71, 0
2, 75900, Note_on_c, 0, 72, 100
2, 75960, Note_on_c, 0, 72, 0
2, 75960, Note_on_c, 0, 74, 100
2, 76020, Note_on_c, 0, 74, 0
2, 76020, Note_on_c, 0, 71, 100
2, 76080, Note_on_c, 0, 71, 0
2, 76080, Note_on_c, 0, 72, 100
2, 76140, Note_on_c, 0, 72, 0
2, 76140, Note_on_c, 0, 64, 0
2, 76140, Note_on_c, 0, 62, 100
2, 76140, Note_on_c, 0, 71, 100
2, 76200, Note_on_c, 0, 71, 0
2, 76200, Note_on_c, 0, 62, 0
2, 76200, Note_on_c, 0, 60, 100
2, 76200, Note_on_c, 0, 69, 100
2, 76260, Note_on_c, 0, 69, 0
2, 76260, Note_on_c, 0, 60, 0
2, 76260, Note_on_c, 0, 64, 100
2, 76260, Note_on_c, 0, 72, 100
2, 76320, Note_on_c, 0, 72, 0
2, 76320, Note_on_c, 0, 64, 0
2, 76320, Note_on_c, 0, 62, 100
2, 76320, Note_on_c, 0, 71, 100
2, 76380, Note_on_c, 0, 71, 0
2, 76380, Note_on_c, 0, 62, 0
2, 76380, Note_on_c, 0, 64, 100
2, 76380, Note_on_c, 0, 72, 100
2, 76440, Note_on_c, 0, 72, 0
2, 76440, Note_on_c, 0, 64, 0
2, 76440, Note_on_c, 0, 65, 100
2, 76440, Note_on_c, 0, 74, 100
2, 76500, Note_on_c, 0, 74, 0
2, 76500, Note_on_c, 0, 65, 0
2, 76500, Note_on_c, 0, 64, 100
2, 76500, Note_on_c, 0, 72, 100
2, 76560, Note_on_c, 0, 72, 0
2, 76560, Note_on_c, 0, 64, 0
2, 76560, Note_on_c, 0, 65, 100
2, 76560, Note_on_c, 0, 74, 100
2, 76620, Note_on_c, 0, 74, 0
2, 76620, Note_on_c, 0, 65, 0
2, 76620, Note_on_c, 0, 67, 100
2, 76620, Note_on_c, 0, 76, 100
2, 76680, Note_on_c, 0, 76, 0
2, 76680, Note_on_c, 0, 67, 0
2, 76680, Note_on_c, 0, 64, 100
2, 76680, Note_on_c, 0, 72, 100
2, 76740, Note_on_c, 0, 72, 0
2, 76740, Note_on_c, 0, 64, 0
2, 76740, Note_on_c, 0, 65, 100
2, 76740, Note_on_c, 0, 74, 100
2, 76800, Note_on_c, 0, 74, 0
2, 76800, Note_on_c, 0, 65, 0
2, 76800, Note_on_c, 0, 62, 100
2, 76800, Note_on_c, 0, 71, 100
2, 76860, Note_on_c, 0, 71, 0
2, 76860, Note_on_c, 0, 62, 0
2, 76860, Note_on_c, 0, 60, 100
2, 76860, Note_on_c, 0, 69, 100
2, 76920, Note_on_c, 0, 69, 0
2, 76920, Note_on_c, 0, 60, 0
2, 76920, Note_on_c, 0, 59, 100
2, 76920, Note_on_c, 0, 67, 100
2, 76980, Note_on_c, 0, 67, 0
2, 76980, Note_on_c, 0, 59, 0
2, 76980, Note_on_c, 0, 62, 100
2, 76980, Note_on_c, 0, 71, 100
2, 77040, Note_on_c, 0, 71, 0
2, 77040, Note_on_c, 0, 62, 0
2, 77040, Note_on_c, 0, 60, 100
2, 77040, Note_on_c, 0, 69, 100
2, 77100, Note_on_c, 0, 69, 0
2, 77100, Note_on_c, 0, 60, 0
2, 77100, Note_on_c, 0, 62, 100
2, 77100, Note_on_c, 0, 71, 100
2, 77160, Note_on_c, 0, 71, 0
2, 77160, Note_on_c, 0, 62, 0
2, 77160, Note_on_c, 0, 64, 100
2, 77160, Note_on_c, 0, 72, 100
2, 77220, Note_on_c, 0, 72, 0
2, 77220, Note_on_c, 0, 64, 0
2, 77220, Note_on_c, 0, 62, 100
2, 77220, Note_on_c, 0, 71, 100
2, 77280, Note_on_c, 0, 71, 0
2, 77280, Note_on_c, 0, 62, 0
2, 77280, Note_on_c, 0, 64, 100
2, 77280, Note_on_c, 0, 72, 100
2, 77340, Note_on_c, 0, 72, 0
2, 77340, Note_on_c, 0, 64, 0
2, 77340, Note_on_c, 0, 65, 100
2, 77340, Note_on_c, 0, 74, 100
2, 77400, Note_on_c, 0, 74, 0
2, 77400, Note_on_c, 0, 65, 0
2, 77400, Note_on_c, 0, 62, 100
2, 77400, Note_on_c, 0, 71, 100
2, 77460, Note_on_c, 0, 71, 0
2, 77460, Note_on_c, 0, 62, 0
2, 77460, Note_on_c, 0, 64, 100
2, 77460, Note_on_c, 0, 72, 100
2, 77520, Note_on_c, 0, 72, 0
2, 77520, Note_on_c, 0, 64, 0
2, 77520, Note_on_c, 0, 60, 100
2, 77520, Note_on_c, 0, 69, 100
2, 77580, Note_on_c, 0, 69, 0
2, 77580, Note_on_c, 0, 60, 0
2, 77580, Note_on_c, 0, 59, 100
2, 77580, Note_on_c, 0, 68, 100
2, 77640, Note_on_c, 0, 68, 0
2, 77640, Note_on_c, 0, 59, 0
2, 77640, Note_on_c, 0, 60, 100
2, 77640, Note_on_c, 0, 69, 100
2, 77700, Note_on_c, 0, 69, 0
2, 77700, Note_on_c, 0, 60, 0
2, 77700, Note_on_c, 0, 62, 100
2, 77700, Note_on_c, 0, 71, 100
2, 77760, Note_on_c, 0, 71, 0
2, 77760, Note_on_c, 0, 62, 0
2, 77760, Note_on_c, 0, 59, 100
2, 77760, Note_on_c, 0, 68, 100
2, 77820, Note_on_c, 0, 68, 0
2, 77820, Note_on_c, 0, 59, 0
2, 77820, Note_on_c, 0, 60, 100
2, 77820, Note_on_c, 0, 69, 100
2, 77880, Note_on_c, 0, 69, 0
2, 77880, Note_on_c, 0, 60, 0
2, 77880, Note_on_c, 0, 62, 100
2, 77880, Note_on_c, 0, 71, 100
2, 77940, Note_on_c, 0, 71, 0
2, 77940, Note_on_c, 0, 62, 0
2, 77940, Note_on_c, 0, 60, 100
2, 77940, Note_on_c, 0, 69, 100
2, 78000, Note_on_c, 0, 69, 0
2, 78000, Note_on_c, 0, 60, 0
2, 78000, Note_on_c, 0, 62, 100
2, 78000, Note_on_c, 0, 71, 100
2, 78060, Note_on_c, 0, 71, 0
2, 78060, Note_on_c, 0, 62, 0
2, 78060, Note_on_c, 0, 64, 100
2, 78060, Note_on_c, 0, 72, 100
2, 78120, Note_on_c, 0, 72, 0
2, 78120, Note_on_c, 0, 64, 0
2, 78120, Note_on_c, 0, 60, 100
2, 78120, Note_on_c, 0, 69, 100
2, 78180, Note_on_c, 0, 69, 0
2, 78180, Note_on_c, 0, 60, 0
2, 78180, Note_on_c, 0, 62, 100
2, 78180, Note_on_c, 0, 71, 100
2, 78240, Note_on_c, 0, 71, 0
2, 78240, Note_on_c, 0, 62, 0
2, 78240, Note_on_c, 0, 59, 100
2, 78240, Note_on_c, 0, 68, 100
2, 78300, Note_on_c, 0, 68, 0
2, 78300, Note_on_c, 0, 69, 100
2, 78360, Note_on_c, 0, 69, 0
2, 78360, Note_on_c, 0, 71, 100
2, 78420, Note_on_c, 0, 71, 0
2, 78420, Note_on_c, 0, 72, 100
2, 78480, Note_on_c, 0, 72, 0
2, 78480, Note_on_c, 0, 74, 100
2, 78540, Note_on_c, 0, 74, 0
2, 78540, Note_on_c, 0, 71, 100
2, 78600, Note_on_c, 0, 71, 0
2, 78600, Note_on_c, 0, 59, 0
2, 78600, Note_on_c, 0, 57, 100
2, 78600, Note_on_c, 0, 76, 100
2, 78660, Note_on_c, 0, 57, 0
2, 78660, Note_on_c, 0, 59, 100
2, 78720, Note_on_c, 0, 59, 0
2, 78720, Note_on_c, 0, 60, 100
2, 78780, Note_on_c, 0, 60, 0
2, 78780, Note_on_c, 0, 62, 100
2, 78840, Note_on_c, 0, 62, 0
2, 78840, Note_on_c, 0, 64, 100
2, 78900, Note_on_c, 0, 64, 0
2, 78900, Note_on_c, 0, 60, 100
2, 78960, Note_on_c, 0, 60, 0
2, 78960, Note_on_c, 0, 65, 100
2, 79080, Note_on_c, 0, 76, 0
2, 79080, Note_on_c, 0, 74, 100
2, 79200, Note_on_c, 0, 65, 0
2, 79200, Note_on_c, 0, 65, 100
2, 79320, Note_on_c, 0, 65, 0
2, 79320, Note_on_c, 0, 64, 100
2, 79440, Note_on_c, 0, 74, 0
2, 79440, Note_on_c, 0, 72, 100
2, 79560, Note_on_c, 0, 64, 0
2, 79560, Note_on_c, 0, 64, 100
2, 79680, Note_on_c, 0, 64, 0
2, 79680, Note_on_c, 0, 72, 0
2, 79680, Note_on_c, 0, 62, 100
2, 79680, Note_on_c, 0, 72, 100
2, 79800, Note_on_c, 0, 72, 0
2, 79800, Note_on_c, 0, 71, 100
2, 79920, Note_on_c, 0, 62, 0
2, 79920, Note_on_c, 0, 62, 100
2, 80040, Note_on_c, 0, 62, 0
2, 80040, Note_on_c, 0, 60, 100
2, 80160, Note_on_c, 0, 71, 0
2, 80160, Note_on_c, 0, 69, 100
2, 80280, Note_on_c, 0, 60, 0
2, 80280, Note_on_c, 0, 60, 100
2, 80400, Note_on_c, 0, 60, 0
2, 80400, Note_on_c, 0, 59, 100
2, 80460, Note_on_c, 0, 69, 0
2, 80460, Note_on_c, 0, 68, 100
2, 80520, Note_on_c, 0, 68, 0
2, 80520, Note_on_c, 0, 69, 100
2, 80580, Note_on_c, 0, 59, 0
2, 80580, Note_on_c, 0, 60, 100
2, 80640, Note_on_c, 0, 60, 0
2, 80640, Note_on_c, 0, 57, 100
2, 80700, Note_on_c, 0, 57, 0
2, 80700, Note_on_c, 0, 59, 100
2, 80760, Note_on_c, 0, 59, 0
2, 80760, Note_on_c, 0, 60, 100
2, 80820, Note_on_c, 0, 69, 0
2, 80820, Note_on_c, 0, 68, 100
2, 80880, Note_on_c, 0, 68, 0
2, 80880, Note_on_c, 0, 69, 100
2, 80940, Note_on_c, 0, 60, 0
2, 80940, Note_on_c, 0, 62, 100
2, 81000, Note_on_c, 0, 62, 0
2, 81000, Note_on_c, 0, 59, 100
2, 81060, Note_on_c, 0, 59, 0
2, 81060, Note_on_c, 0, 60, 100
2, 81120, Note_on_c, 0, 60, 0
2, 81120, Note_on_c, 0, 62, 100
2, 81180, Note_on_c, 0, 69, 0
2, 81180, Note_on_c, 0, 68, 100
2, 81240, Note_on_c, 0, 68, 0
2, 81240, Note_on_c, 0, 69, 100
2, 81300, Note_on_c, 0, 62, 0
2, 81300, Note_on_c, 0, 64, 100
2, 81360, Note_on_c, 0, 64, 0
2, 81360, Note_on_c, 0, 60, 100
2, 81420, Note_on_c, 0, 60, 0
2, 81420, Note_on_c, 0, 62, 100
2, 81480, Note_on_c, 0, 62, 0
2, 81480, Note_on_c, 0, 69, 0
2, 81480, Note_on_c, 0, 64, 100
2, 81480, Note_on_c, 0, 69, 100
2, 81540, Note_on_c, 0, 69, 0
2, 81540, Note_on_c, 0, 68, 100
2, 81600, Note_on_c, 0, 68, 0
2, 81600, Note_on_c, 0, 69, 100
2, 81660, Note_on_c, 0, 64, 0
2, 81660, Note_on_c, 0, 65, 100
2, 81720, Note_on_c, 0, 65, 0
2, 81720, Note_on_c, 0, 62, 100
2, 81780, Note_on_c, 0, 62, 0
2, 81780, Note_on_c, 0, 64, 100
2, 81840, Note_on_c, 0, 64, 0
2, 81840, Note_on_c, 0, 65, 100
2, 81900, Note_on_c, 0, 65, 0
2, 81900, Note_on_c, 0, 69, 0
2, 81900, Note_on_c, 0, 64, 100
2, 81900, Note_on_c, 0, 68, 100
2, 81960, Note_on_c, 0, 68, 0
2, 81960, Note_on_c, 0, 64, 0
2, 81960, Note_on_c, 0, 62, 100
2, 81960, Note_on_c, 0, 69, 100
2, 82020, Note_on_c, 0, 62, 0
2, 82020, Note_on_c, 0, 65, 100
2, 82080, Note_on_c, 0, 65, 0
2, 82080, Note_on_c, 0, 69, 0
2, 82080, Note_on_c, 0, 64, 100
2, 82080, Note_on_c, 0, 71, 100
2, 82140, Note_on_c, 0, 64, 0
2, 82140, Note_on_c, 0, 62, 100
2, 82200, Note_on_c, 0, 62, 0
2, 82200, Note_on_c, 0, 71, 0
2, 82200, Note_on_c, 0, 60, 100
2, 82200, Note_on_c, 0, 64, 100
2, 82260, Note_on_c, 0, 64, 0
2, 82260, Note_on_c, 0, 60, 0
2, 82260, Note_on_c, 0, 62, 100
2, 82260, Note_on_c, 0, 69, 100
2, 82320, Note_on_c, 0, 69, 0
2, 82320, Note_on_c, 0, 62, 0
2, 82320, Note_on_c, 0, 59, 100
2, 82320, Note_on_c, 0, 68, 100
2, 82350, Note_on_c, 0, 68, 0
2, 82350, Note_on_c, 0, 59, 0
2, 82350, Note_on_c, 0, 60, 100
2, 82350, Note_on_c, 0, 69, 100
2, 82380, Note_on_c, 0, 69, 0
2, 82380, Note_on_c, 0, 60, 0
2, 82380, Note_on_c, 0, 59, 100
2, 82380, Note_on_c, 0, 68, 100
2, 82500, Note_on_c, 0, 68, 0
2, 82500, Note_on_c, 0, 59, 0
2, 82500, Note_on_c, 0, 60, 100
2, 82500, Note_on_c, 0, 69, 100
2, 82560, Note_on_c, 0, 69, 0
2, 82560, Note_on_c, 0, 60, 0
2, 82560, Note_on_c, 0, 57, 100
2, 82560, Note_on_c, 0, 69, 115
2, 82680, Note_on_c, 0, 69, 0
2, 82680, Note_on_c, 0, 72, 115
2, 82740, Note_on_c, 0, 72, 0
2, 82740, Note_on_c, 0, 71, 115
2, 82800, Note_on_c, 0, 71, 0
2, 82800, Note_on_c, 0, 72, 115
2, 82860, Note_on_c, 0, 72, 0
2, 82860, Note_on_c, 0, 69, 115
2, 82920, Note_on_c, 0, 69, 0
2, 82920, Note_on_c, 0, 71, 115
2, 83004, Note_on_c, 0, 71, 0
2, 83040, Note_on_c, 0, 64, 115
2, 83100, Note_on_c, 0, 64, 0
2, 83100, Note_on_c, 0, 71, 115
2, 83160, Note_on_c, 0, 71, 0
2, 83160, Note_on_c, 0, 57, 0
2, 83160, Note_on_c, 0, 56, 100
2, 83160, Note_on_c, 0, 76, 115
2, 83220, Note_on_c, 0, 76, 0
2, 83220, Note_on_c, 0, 71, 115
2, 83280, Note_on_c, 0, 71, 0
2, 83280, Note_on_c, 0, 56, 0
2, 83280, Note_on_c, 0, 57, 100
2, 83280, Note_on_c, 0, 72, 115
2, 83364, Note_on_c, 0, 72, 0
2, 83400, Note_on_c, 0, 69, 115
2, 83520, Note_on_c, 0, 69, 0
2, 83520, Note_on_c, 0, 76, 115
2, 83640, Note_on_c, 0, 76, 0
2, 83640, Note_on_c, 0, 77, 115
2, 83700, Note_on_c, 0, 77, 0
2, 83700, Note_on_c, 0, 76, 115
2, 83760, Note_on_c, 0, 76, 0
2, 83760, Note_on_c, 0, 77, 115
2, 83820, Note_on_c, 0, 77, 0
2, 83820, Note_on_c, 0, 74, 115
2, 83880, Note_on_c, 0, 74, 0
2, 83880, Note_on_c, 0, 57, 0
2, 83880, Note_on_c, 0, 57, 100
2, 83880, Note_on_c, 0, 77, 115
2, 83940, Note_on_c, 0, 77, 0
2, 83940, Note_on_c, 0, 72, 115
2, 84000, Note_on_c, 0, 72, 0
2, 84000, Note_on_c, 0, 57, 0
2, 84000, Note_on_c, 0, 77, 115
2, 84000, Note_on_c, 0, 77, 115
2, 84000, Note_on_c, 0, 55, 100
2, 84048, Note_on_c, 0, 77, 0
2, 84048, Note_on_c, 0, 77, 0
2, 84060, Note_on_c, 0, 74, 115
2, 84120, Note_on_c, 0, 74, 0
2, 84120, Note_on_c, 0, 77, 115
2, 84180, Note_on_c, 0, 77, 0
2, 84180, Note_on_c, 0, 71, 115
2, 84240, Note_on_c, 0, 71, 0
2, 84240, Note_on_c, 0, 77, 115
2, 84300, Note_on_c, 0, 77, 0
2, 84300, Note_on_c, 0, 67, 115
2, 84360, Note_on_c, 0, 67, 0
2, 84360, Note_on_c, 0, 76, 115
2, 84420, Note_on_c, 0, 76, 0
2, 84420, Note_on_c, 0, 74, 115
2, 84480, Note_on_c, 0, 74, 0
2, 84480, Note_on_c, 0, 76, 115
2, 84540, Note_on_c, 0, 76, 0
2, 84540, Note_on_c, 0, 72, 115
2, 84600, Note_on_c, 0, 72, 0
2, 84600, Note_on_c, 0, 55, 0
2, 84600, Note_on_c, 0, 76, 115
2, 84660, Note_on_c, 0, 76, 0
2, 84660, Note_on_c, 0, 71, 115
2, 84720, Note_on_c, 0, 71, 0
2, 84720, Note_on_c, 0, 53, 100
2, 84720, Note_on_c, 0, 76, 115
2, 84780, Note_on_c, 0, 76, 0
2, 84780, Note_on_c, 0, 72, 115
2, 84840, Note_on_c, 0, 72, 0
2, 84840, Note_on_c, 0, 76, 115
2, 84900, Note_on_c, 0, 76, 0
2, 84900, Note_on_c, 0, 69, 115
2, 84960, Note_on_c, 0, 69, 0
2, 84960, Note_on_c, 0, 53, 0
2, 84960, Note_on_c, 0, 60, 100
2, 84960, Note_on_c, 0, 76, 115
2, 85020, Note_on_c, 0, 76, 0
2, 85020, Note_on_c, 0, 65, 115
2, 85080, Note_on_c, 0, 65, 0
2, 85080, Note_on_c, 0, 60, 0
2, 85080, Note_on_c, 0, 60, 100
2, 85080, Note_on_c, 0, 74, 115
2, 85140, Note_on_c, 0, 74, 0
2, 85140, Note_on_c, 0, 72, 115
2, 85200, Note_on_c, 0, 72, 0
2, 85200, Note_on_c, 0, 60, 0
2, 85200, Note_on_c, 0, 59, 100
2, 85200, Note_on_c, 0, 74, 115
2, 85260, Note_on_c, 0, 74, 0
2, 85260, Note_on_c, 0, 59, 0
2, 85260, Note_on_c, 0, 57, 100
2, 85260, Note_on_c, 0, 71, 115
2, 85320, Note_on_c, 0, 71, 0
2, 85320, Note_on_c, 0, 57, 0
2, 85320, Note_on_c, 0, 56, 100
2, 85320, Note_on_c, 0, 74, 115
2, 85380, Note_on_c, 0, 74, 0
2, 85380, Note_on_c, 0, 56, 0
2, 85380, Note_on_c, 0, 57, 100
2, 85380, Note_on_c, 0, 69, 115
2, 85440, Note_on_c, 0, 69, 0
2, 85440, Note_on_c, 0, 57, 0
2, 85440, Note_on_c, 0, 59, 100
2, 85440, Note_on_c, 0, 74, 115
2, 85500, Note_on_c, 0, 74, 0
2, 85500, Note_on_c, 0, 71, 115
2, 85560, Note_on_c, 0, 71, 0
2, 85560, Note_on_c, 0, 74, 115
2, 85620, Note_on_c, 0, 74, 0
2, 85620, Note_on_c, 0, 68, 115
2, 85680, Note_on_c, 0, 68, 0
2, 85680, Note_on_c, 0, 74, 115
2, 85740, Note_on_c, 0, 74, 0
2, 85740, Note_on_c, 0, 64, 115
2, 85800, Note_on_c, 0, 64, 0
2, 85800, Note_on_c, 0, 59, 0
2, 85800, Note_on_c, 0, 59, 100
2, 85800, Note_on_c, 0, 72, 100
2, 85860, Note_on_c, 0, 72, 0
2, 85860, Note_on_c, 0, 69, 100
2, 85920, Note_on_c, 0, 69, 0
2, 85920, Note_on_c, 0, 59, 0
2, 85920, Note_on_c, 0, 57, 100
2, 85920, Note_on_c, 0, 72, 100
2, 85980, Note_on_c, 0, 72, 0
2, 85980, Note_on_c, 0, 76, 100
2, 86040, Note_on_c, 0, 76, 0
2, 86040, Note_on_c, 0, 57, 0
2, 86040, Note_on_c, 0, 60, 100
2, 86040, Note_on_c, 0, 81, 100
2, 86100, Note_on_c, 0, 81, 0
2, 86100, Note_on_c, 0, 78, 100
2, 86160, Note_on_c, 0, 78, 0
2, 86160, Note_on_c, 0, 79, 100
2, 86220, Note_on_c, 0, 79, 0
2, 86220, Note_on_c, 0, 78, 100
2, 86280, Note_on_c, 0, 78, 0
2, 86280, Note_on_c, 0, 60, 0
2, 86280, Note_on_c, 0, 59, 100
2, 86280, Note_on_c, 0, 79, 100
2, 86340, Note_on_c, 0, 79, 0
2, 86340, Note_on_c, 0, 83, 100
2, 86400, Note_on_c, 0, 83, 0
2, 86400, Note_on_c, 0, 59, 0
2, 86400, Note_on_c, 0, 64, 100
2, 86400, Note_on_c, 0, 84, 100
2, 86460, Note_on_c, 0, 84, 0
2, 86460, Note_on_c, 0, 81, 100
2, 86520, Note_on_c, 0, 81, 0
2, 86520, Note_on_c, 0, 64, 0
2, 86520, Note_on_c, 0, 63, 100
2, 86520, Note_on_c, 0, 83, 100
2, 86580, Note_on_c, 0, 63, 0
2, 86580, Note_on_c, 0, 66, 100
2, 86640, Note_on_c, 0, 66, 0
2, 86640, Note_on_c, 0, 71, 100
2, 86700, Note_on_c, 0, 71, 0
2, 86700, Note_on_c, 0, 83, 0
2, 86700, Note_on_c, 0, 63, 100
2, 86700, Note_on_c, 0, 78, 100
2, 86760, Note_on_c, 0, 78, 0
2, 86760, Note_on_c, 0, 63, 0
2, 86760, Note_on_c, 0, 64, 100
2, 86760, Note_on_c, 0, 79, 100
2, 86820, Note_on_c, 0, 79, 0
2, 86820, Note_on_c, 0, 75, 100
2, 86880, Note_on_c, 0, 75, 0
2, 86880, Note_on_c, 0, 76, 100
2, 86940, Note_on_c, 0, 76, 0
2, 86940, Note_on_c, 0, 64, 0
2, 86940, Note_on_c, 0, 69, 100
2, 86940, Note_on_c, 0, 78, 100
2, 87000, Note_on_c, 0, 78, 0
2, 87000, Note_on_c, 0, 69, 0
2, 87000, Note_on_c, 0, 66, 100
2, 87000, Note_on_c, 0, 75, 100
2, 87030, Note_on_c, 0, 75, 0
2, 87030, Note_on_c, 0, 66, 0
2, 87030, Note_on_c, 0, 67, 100
2, 87030, Note_on_c, 0, 76, 100
2, 87060, Note_on_c, 0, 76, 0
2, 87060, Note_on_c, 0, 67, 0
2, 87060, Note_on_c, 0, 66, 100
2, 87060, Note_on_c, 0, 75, 100
2, 87180, Note_on_c, 0, 75, 0
2, 87180, Note_on_c, 0, 66, 0
2, 87180, Note_on_c, 0, 64, 100
2, 87180, Note_on_c, 0, 76, 100
2, 87240, Note_on_c, 0, 76, 0
2, 87240, Note_on_c, 0, 64, 0
2, 87240, Note_on_c, 0, 64, 90
2, 87240, Note_on_c, 0, 76, 90
2, 87300, Note_on_c, 0, 76, 0
2, 87300, Note_on_c, 0, 71, 90
2, 87360, Note_on_c, 0, 71, 0
2, 87360, Note_on_c, 0, 72, 90
2, 87420, Note_on_c, 0, 72, 0
2, 87420, Note_on_c, 0, 69, 90
2, 87480, Note_on_c, 0, 69, 0
2, 87480, Note_on_c, 0, 64, 0
2, 87480, Note_on_c, 0, 71, 90
2, 87540, Note_on_c, 0, 71, 0
2, 87540, Note_on_c, 0, 66, 90
2, 87600, Note_on_c, 0, 66, 0
2, 87600, Note_on_c, 0, 67, 90
2, 87660, Note_on_c, 0, 63, 90
2, 87720, Note_on_c, 0, 63, 0
2, 87720, Note_on_c, 0, 59, 90
2, 87780, Note_on_c, 0, 59, 0
2, 87780, Note_on_c, 0, 60, 90
2, 87840, Note_on_c, 0, 60, 0
2, 87840, Note_on_c, 0, 67, 0
2, 87840, Note_on_c, 0, 57, 90
2, 87900, Note_on_c, 0, 57, 0
2, 87900, Note_on_c, 0, 59, 90
2, 87960, Note_on_c, 0, 67, 90
2, 88080, Note_on_c, 0, 67, 0
2, 88080, Note_on_c, 0, 71, 90
2, 88140, Note_on_c, 0, 59, 0
2, 88200, Note_on_c, 0, 71, 0
2, 88200, Note_on_c, 0, 67, 90
2, 88200, Note_on_c, 0, 76, 90
2, 88320, Note_on_c, 0, 67, 0
2, 88320, Note_on_c, 0, 66, 90
2, 88440, Note_on_c, 0, 76, 0
2, 88440, Note_on_c, 0, 75, 90
2, 88500, Note_on_c, 0, 75, 0
2, 88500, Note_on_c, 0, 76, 90
2, 88560, Note_on_c, 0, 76, 0
2, 88560, Note_on_c, 0, 78, 90
2, 88680, Note_on_c, 0, 66, 0
2, 88680, Note_on_c, 0, 71, 90
2, 88740, Note_on_c, 0, 78, 0
2, 88740, Note_on_c, 0, 75, 90
2, 88800, Note_on_c, 0, 75, 0
2, 88800, Note_on_c, 0, 76, 90
2, 88860, Note_on_c, 0, 76, 0
2, 88860, Note_on_c, 0, 78, 90
2, 88920, Note_on_c, 0, 78, 0
2, 88920, Note_on_c, 0, 79, 90
2, 88980, Note_on_c, 0, 71, 0
2, 88980, Note_on_c, 0, 75, 90
2, 89040, Note_on_c, 0, 75, 0
2, 89040, Note_on_c, 0, 76, 90
2, 89100, Note_on_c, 0, 79, 0
2, 89100, Note_on_c, 0, 79, 90
2, 89160, Note_on_c, 0, 79, 0
2, 89160, Note_on_c, 0, 81, 90
2, 89220, Note_on_c, 0, 76, 0
2, 89220, Note_on_c, 0, 78, 90
2, 89280, Note_on_c, 0, 81, 0
2, 89280, Note_on_c, 0, 81, 90
2, 89340, Note_on_c, 0, 78, 0
2, 89340, Note_on_c, 0, 76, 90
2, 89400, Note_on_c, 0, 76, 0
2, 89400, Note_on_c, 0, 81, 0
2, 89400, Note_on_c, 0, 81, 90
2, 89460, Note_on_c, 0, 78, 90
2, 89520, Note_on_c, 0, 81, 0
2, 89520, Note_on_c, 0, 81, 90
2, 89580, Note_on_c, 0, 78, 0
2, 89580, Note_on_c, 0, 74, 90
2, 89640, Note_on_c, 0, 81, 0
2, 89640, Note_on_c, 0, 81, 90
2, 89700, Note_on_c, 0, 74, 0
2, 89700, Note_on_c, 0, 69, 90
2, 89760, Note_on_c, 0, 69, 0
2, 89760, Note_on_c, 0, 74, 90
2, 89820, Note_on_c, 0, 81, 0
2, 89820, Note_on_c, 0, 78, 90
2, 89880, Note_on_c, 0, 78, 0
2, 89880, Note_on_c, 0, 79, 90
2, 89940, Note_on_c, 0, 74, 0
2, 89940, Note_on_c, 0, 76, 90
2, 90000, Note_on_c, 0, 79, 0
2, 90000, Note_on_c, 0, 79, 90
2, 90060, Note_on_c, 0, 76, 0
2, 90060, Note_on_c, 0, 75, 90
2, 90120, Note_on_c, 0, 75, 0
2, 90120, Note_on_c, 0, 79, 0
2, 90120, Note_on_c, 0, 79, 90
2, 90180, Note_on_c, 0, 76, 90
2, 90240, Note_on_c, 0, 79, 0
2, 90240, Note_on_c, 0, 79, 90
2, 90300, Note_on_c, 0, 76, 0
2, 90300, Note_on_c, 0, 72, 90
2, 90360, Note_on_c, 0, 79, 0
2, 90360, Note_on_c, 0, 79, 90
2, 90420, Note_on_c, 0, 72, 0
2, 90420, Note_on_c, 0, 67, 90
2, 90480, Note_on_c, 0, 67, 0
2, 90480, Note_on_c, 0, 72, 100
2, 90540, Note_on_c, 0, 79, 0
2, 90540, Note_on_c, 0, 76, 100
2, 90600, Note_on_c, 0, 76, 0
2, 90600, Note_on_c, 0, 72, 0
2, 90600, Note_on_c, 0, 78, 100
2, 90660, Note_on_c, 0, 75, 100
2, 90720, Note_on_c, 0, 78, 0
2, 90720, Note_on_c, 0, 78, 100
2, 90780, Note_on_c, 0, 75, 0
2, 90780, Note_on_c, 0, 73, 100
2, 90840, Note_on_c, 0, 73, 0
2, 90840, Note_on_c, 0, 78, 0
2, 90840, Note_on_c, 0, 78, 100
2, 90900, Note_on_c, 0, 75, 100
2, 90960, Note_on_c, 0, 78, 0
2, 90960, Note_on_c, 0, 78, 100
2, 91020, Note_on_c, 0, 75, 0
2, 91020, Note_on_c, 0, 71, 100
2, 91080, Note_on_c, 0, 78, 0
2, 91080, Note_on_c, 0, 78, 100
2, 91140, Note_on_c, 0, 71, 0
2, 91140, Note_on_c, 0, 66, 100
2, 91200, Note_on_c, 0, 66, 0
2, 91200, Note_on_c, 0, 71, 100
2, 91320, Note_on_c, 0, 78, 0
2, 91320, Note_on_c, 0, 76, 100
2, 91440, Note_on_c, 0, 76, 0
2, 91440, Note_on_c, 0, 74, 100
2, 91560, Note_on_c, 0, 74, 0
2, 91560, Note_on_c, 0, 72, 100
2, 91740, Note_on_c, 0, 71, 0
2, 91740, Note_on_c, 0, 69, 100
2, 91860, Note_on_c, 0, 69, 0
2, 91860, Note_on_c, 0, 67, 100
2, 91920, Note_on_c, 0, 66, 100
2, 91980, Note_on_c, 0, 67, 0
2, 92040, Note_on_c, 0, 72, 0
2, 92040, Note_on_c, 0, 69, 100
2, 92160, Note_on_c, 0, 69, 0
2, 92160, Note_on_c, 0, 74, 100
2, 92280, Note_on_c, 0, 74, 0
2, 92280, Note_on_c, 0, 66, 0
2, 92280, Note_on_c, 0, 66, 100
2, 92280, Note_on_c, 0, 71, 100
2, 92400, Note_on_c, 0, 66, 0
2, 92400, Note_on_c, 0, 62, 100
2, 92520, Note_on_c, 0, 62, 0
2, 92520, Note_on_c, 0, 67, 100
2, 92640, Note_on_c, 0, 67, 0
2, 92640, Note_on_c, 0, 64, 100
2, 92760, Note_on_c, 0, 71, 0
2, 92760, Note_on_c, 0, 76, 100
2, 92820, Note_on_c, 0, 76, 0
2, 92820, Note_on_c, 0, 74, 100
2, 92880, Note_on_c, 0, 74, 0
2, 92880, Note_on_c, 0, 72, 100
2, 92940, Note_on_c, 0, 72, 0
2, 92940, Note_on_c, 0, 71, 100
2, 93000, Note_on_c, 0, 71, 0
2, 93000, Note_on_c, 0, 69, 100
2, 93060, Note_on_c, 0, 64, 0
2, 93060, Note_on_c, 0, 67, 100
2, 93120, Note_on_c, 0, 67, 0
2, 93120, Note_on_c, 0, 66, 100
2, 93180, Note_on_c, 0, 66, 0
2, 93180, Note_on_c, 0, 64, 100
2, 93240, Note_on_c, 0, 64, 0
2, 93240, Note_on_c, 0, 63, 100
2, 93300, Note_on_c, 0, 63, 0
2, 93300, Note_on_c, 0, 64, 100
2, 93360, Note_on_c, 0, 64, 0
2, 93360, Note_on_c, 0, 63, 100
2, 93420, Note_on_c, 0, 69, 0
2, 93420, Note_on_c, 0, 72, 100
2, 93480, Note_on_c, 0, 72, 0
2, 93480, Note_on_c, 0, 71, 100
2, 93540, Note_on_c, 0, 71, 0
2, 93540, Note_on_c, 0, 69, 100
2, 93600, Note_on_c, 0, 69, 0
2, 93600, Note_on_c, 0, 67, 100
2, 93660, Note_on_c, 0, 67, 0
2, 93660, Note_on_c, 0, 66, 100
2, 93720, Note_on_c, 0, 66, 0
2, 93720, Note_on_c, 0, 63, 0
2, 93720, Note_on_c, 0, 64, 100
2, 93720, Note_on_c, 0, 67, 100
2, 93780, Note_on_c, 0, 67, 0
2, 93780, Note_on_c, 0, 66, 100
2, 93840, Note_on_c, 0, 66, 0
2, 93840, Note_on_c, 0, 67, 100
2, 93900, Note_on_c, 0, 67, 0
2, 93900, Note_on_c, 0, 69, 100
2, 93960, Note_on_c, 0, 69, 0
2, 93960, Note_on_c, 0, 64, 0
2, 93960, Note_on_c, 0, 71, 100
2, 94020, Note_on_c, 0, 71, 0
2, 94020, Note_on_c, 0, 67, 100
2, 94080, Note_on_c, 0, 67, 0
2, 94080, Note_on_c, 0, 72, 100
2, 94140, Note_on_c, 0, 72, 0
2, 94140, Note_on_c, 0, 71, 100
2, 94200, Note_on_c, 0, 71, 0
2, 94200, Note_on_c, 0, 72, 100
2, 94260, Note_on_c, 0, 72, 0
2, 94260, Note_on_c, 0, 74, 100
2, 94320, Note_on_c, 0, 74, 0
2, 94320, Note_on_c, 0, 76, 100
2, 94380, Note_on_c, 0, 76, 0
2, 94380, Note_on_c, 0, 72, 100
2, 94440, Note_on_c, 0, 72, 0
2, 94440, Note_on_c, 0, 77, 100
2, 95160, Note_on_c, 0, 77, 0
2, 95160, Note_on_c, 0, 60, 100
2, 95160, Note_on_c, 0, 76, 100
2, 95220, Note_on_c, 0, 76, 0
2, 95220, Note_on_c, 0, 60, 0
2, 95220, Note_on_c, 0, 62, 100
2, 95220, Note_on_c, 0, 74, 100
2, 95280, Note_on_c, 0, 74, 0
2, 95280, Note_on_c, 0, 62, 0
2, 95280, Note_on_c, 0, 64, 100
2, 95280, Note_on_c, 0, 72, 100
2, 95340, Note_on_c, 0, 72, 0
2, 95340, Note_on_c, 0, 64, 0
2, 95340, Note_on_c, 0, 62, 100
2, 95340, Note_on_c, 0, 71, 100
2, 95400, Note_on_c, 0, 71, 0
2, 95400, Note_on_c, 0, 62, 0
2, 95400, Note_on_c, 0, 64, 100
2, 95400, Note_on_c, 0, 72, 100
2, 95460, Note_on_c, 0, 64, 0
2, 95460, Note_on_c, 0, 60, 100
2, 95520, Note_on_c, 0, 60, 0
2, 95520, Note_on_c, 0, 62, 100
2, 95640, Note_on_c, 0, 62, 0
2, 95640, Note_on_c, 0, 72, 0
2, 95640, Note_on_c, 0, 55, 100
2, 95640, Note_on_c, 0, 71, 100
2, 95670, Note_on_c, 0, 71, 0
2, 95670, Note_on_c, 0, 72, 100
2, 95700, Note_on_c, 0, 72, 0
2, 95700, Note_on_c, 0, 55, 0
2, 95700, Note_on_c, 0, 62, 100
2, 95700, Note_on_c, 0, 71, 100
2, 95760, Note_on_c, 0, 62, 0
2, 95760, Note_on_c, 0, 67, 100
2, 95820, Note_on_c, 0, 67, 0
2, 95820, Note_on_c, 0, 71, 0
2, 95820, Note_on_c, 0, 65, 100
2, 95820, Note_on_c, 0, 69, 100
2, 95850, Note_on_c, 0, 69, 0
2, 95850, Note_on_c, 0, 71, 100
2, 95880, Note_on_c, 0, 71, 0
2, 95880, Note_on_c, 0, 65, 0
2, 95880, Note_on_c, 0, 64, 100
2, 95880, Note_on_c, 0, 72, 100
2, 95940, Note_on_c, 0, 72, 0
2, 95940, Note_on_c, 0, 64, 0
2, 95940, Note_on_c, 0, 62, 100
2, 95940, Note_on_c, 0, 71, 100
2, 96000, Note_on_c, 0, 71, 0
2, 96000, Note_on_c, 0, 62, 0
2, 96000, Note_on_c, 0, 64, 100
2, 96000, Note_on_c, 0, 72, 100
2, 96060, Note_on_c, 0, 72, 0
2, 96060, Note_on_c, 0, 64, 0
2, 96060, Note_on_c, 0, 65, 100
2, 96060, Note_on_c, 0, 74, 100
2, 96120, Note_on_c, 0, 74, 0
2, 96120, Note_on_c, 0, 65, 0
2, 96120, Note_on_c, 0, 67, 100
2, 96120, Note_on_c, 0, 76, 100
2, 96180, Note_on_c, 0, 67, 0
2, 96180, Note_on_c, 0, 64, 100
2, 96240, Note_on_c, 0, 64, 0
2, 96240, Note_on_c, 0, 69, 100
2, 96300, Note_on_c, 0, 69, 0
2, 96300, Note_on_c, 0, 67, 100
2, 96360, Note_on_c, 0, 67, 0
2, 96360, Note_on_c, 0, 69, 100
2, 96420, Note_on_c, 0, 69, 0
2, 96420, Note_on_c, 0, 65, 100
2, 96480, Note_on_c, 0, 65, 0
2, 96480, Note_on_c, 0, 69, 100
2, 96540, Note_on_c, 0, 69, 0
2, 96540, Note_on_c, 0, 64, 100
2, 96600, Note_on_c, 0, 64, 0
2, 96600, Note_on_c, 0, 76, 0
2, 96600, Note_on_c, 0, 69, 100
2, 96600, Note_on_c, 0, 74, 100
2, 96660, Note_on_c, 0, 69, 0
2, 96660, Note_on_c, 0, 65, 100
2, 96720, Note_on_c, 0, 65, 0
2, 96720, Note_on_c, 0, 69, 100
2, 96780, Note_on_c, 0, 69, 0
2, 96780, Note_on_c, 0, 62, 100
2, 96840, Note_on_c, 0, 62, 0
2, 96840, Note_on_c, 0, 69, 100
2, 96900, Note_on_c, 0, 69, 0
2, 96900, Note_on_c, 0, 59, 100
2, 96960, Note_on_c, 0, 59, 0
2, 96960, Note_on_c, 0, 67, 100
2, 97020, Note_on_c, 0, 67, 0
2, 97020, Note_on_c, 0, 65, 100
2, 97080, Note_on_c, 0, 65, 0
2, 97080, Note_on_c, 0, 67, 100
2, 97140, Note_on_c, 0, 67, 0
2, 97140, Note_on_c, 0, 64, 100
2, 97200, Note_on_c, 0, 64, 0
2, 97200, Note_on_c, 0, 67, 100
2, 97260, Note_on_c, 0, 67, 0
2, 97260, Note_on_c, 0, 62, 100
2, 97320, Note_on_c, 0, 62, 0
2, 97320, Note_on_c, 0, 74, 0
2, 97320, Note_on_c, 0, 72, 100
2, 97320, Note_on_c, 0, 67, 100
2, 97380, Note_on_c, 0, 67, 0
2, 97380, Note_on_c, 0, 64, 100
2, 97440, Note_on_c, 0, 64, 0
2, 97440, Note_on_c, 0, 67, 100
2, 97500, Note_on_c, 0, 67, 0
2, 97500, Note_on_c, 0, 60, 100
2, 97560, Note_on_c, 0, 60, 0
2, 97560, Note_on_c, 0, 67, 100
2, 97620, Note_on_c, 0, 67, 0
2, 97620, Note_on_c, 0, 57, 100
2, 97680, Note_on_c, 0, 57, 0
2, 97680, Note_on_c, 0, 65, 100
2, 97740, Note_on_c, 0, 65, 0
2, 97740, Note_on_c, 0, 64, 100
2, 97800, Note_on_c, 0, 64, 0
2, 97800, Note_on_c, 0, 65, 100
2, 97860, Note_on_c, 0, 65, 0
2, 97860, Note_on_c, 0, 62, 100
2, 97920, Note_on_c, 0, 62, 0
2, 97920, Note_on_c, 0, 65, 100
2, 97980, Note_on_c, 0, 65, 0
2, 97980, Note_on_c, 0, 60, 100
2, 98040, Note_on_c, 0, 60, 0
2, 98040, Note_on_c, 0, 72, 0
2, 98040, Note_on_c, 0, 71, 100
2, 98040, Note_on_c, 0, 65, 100
2, 98100, Note_on_c, 0, 65, 0
2, 98100, Note_on_c, 0, 62, 100
2, 98160, Note_on_c, 0, 62, 0
2, 98160, Note_on_c, 0, 65, 100
2, 98220, Note_on_c, 0, 65, 0
2, 98220, Note_on_c, 0, 59, 100
2, 98280, Note_on_c, 0, 59, 0
2, 98280, Note_on_c, 0, 65, 100
2, 98340, Note_on_c, 0, 65, 0
2, 98340, Note_on_c, 0, 55, 100
2, 98400, Note_on_c, 0, 55, 0
2, 98400, Note_on_c, 0, 64, 100
2, 98460, Note_on_c, 0, 64, 0
2, 98460, Note_on_c, 0, 62, 100
2, 98520, Note_on_c, 0, 62, 0
2, 98520, Note_on_c, 0, 64, 100
2, 98580, Note_on_c, 0, 71, 0
2, 98580, Note_on_c, 0, 67, 100
2, 98640, Note_on_c, 0, 67, 0
2, 98640, Note_on_c, 0, 72, 100
2, 98700, Note_on_c, 0, 72, 0
2, 98700, Note_on_c, 0, 71, 100
2, 98760, Note_on_c, 0, 71, 0
2, 98760, Note_on_c, 0, 64, 0
2, 98760, Note_on_c, 0, 72, 100
2, 98820, Note_on_c, 0, 69, 100
2, 98880, Note_on_c, 0, 69, 0
2, 98880, Note_on_c, 0, 64, 100
2, 98940, Note_on_c, 0, 64, 0
2, 98940, Note_on_c, 0, 60, 100
2, 99000, Note_on_c, 0, 60, 0
2, 99000, Note_on_c, 0, 67, 100
2, 99060, Note_on_c, 0, 67, 0
2, 99120, Note_on_c, 0, 66, 100
2, 99180, Note_on_c, 0, 66, 0
2, 99180, Note_on_c, 0, 64, 100
2, 99240, Note_on_c, 0, 64, 0
2, 99240, Note_on_c, 0, 66, 100
2, 99300, Note_on_c, 0, 72, 0
2, 99300, Note_on_c, 0, 69, 100
2, 99360, Note_on_c, 0, 69, 0
2, 99360, Note_on_c, 0, 74, 100
2, 99420, Note_on_c, 0, 74, 0
2, 99420, Note_on_c, 0, 72, 100
2, 99480, Note_on_c, 0, 72, 0
2, 99480, Note_on_c, 0, 66, 0
2, 99480, Note_on_c, 0, 74, 100
2, 99540, Note_on_c, 0, 71, 100
2, 99600, Note_on_c, 0, 71, 0
2, 99600, Note_on_c, 0, 66, 100
2, 99660, Note_on_c, 0, 66, 0
2, 99660, Note_on_c, 0, 62, 100
2, 99720, Note_on_c, 0, 62, 0
2, 99720, Note_on_c, 0, 69, 100
2, 99780, Note_on_c, 0, 69, 0
2, 99840, Note_on_c, 0, 67, 100
2, 99900, Note_on_c, 0, 67, 0
2, 99900, Note_on_c, 0, 66, 100
2, 99960, Note_on_c, 0, 66, 0
2, 99960, Note_on_c, 0, 67, 100
2, 100020, Note_on_c, 0, 74, 0
2, 100020, Note_on_c, 0, 71, 100
2, 100080, Note_on_c, 0, 71, 0
2, 100080, Note_on_c, 0, 76, 100
2, 100140, Note_on_c, 0, 76, 0
2, 100140, Note_on_c, 0, 74, 100
2, 100200, Note_on_c, 0, 74, 0
2, 100200, Note_on_c, 0, 67, 0
2, 100200, Note_on_c, 0, 76, 100
2, 100260, Note_on_c, 0, 72, 100
2, 100320, Note_on_c, 0, 72, 0
2, 100320, Note_on_c, 0, 67, 100
2, 100380, Note_on_c, 0, 67, 0
2, 100380, Note_on_c, 0, 64, 100
2, 100440, Note_on_c, 0, 64, 0
2, 100440, Note_on_c, 0, 71, 100
2, 100500, Note_on_c, 0, 71, 0
2, 100560, Note_on_c, 0, 69, 100
2, 100620, Note_on_c, 0, 69, 0
2, 100620, Note_on_c, 0, 67, 100
2, 100680, Note_on_c, 0, 67, 0
2, 100680, Note_on_c, 0, 69, 100
2, 100740, Note_on_c, 0, 76, 0
2, 100740, Note_on_c, 0, 76, 100
2, 100800, Note_on_c, 0, 76, 0
2, 100800, Note_on_c, 0, 74, 100
2, 100860, Note_on_c, 0, 74, 0
2, 100860, Note_on_c, 0, 72, 100
2, 100920, Note_on_c, 0, 72, 0
2, 100920, Note_on_c, 0, 71, 100
2, 100980, Note_on_c, 0, 71, 0
2, 100980, Note_on_c, 0, 69, 100
2, 101040, Note_on_c, 0, 69, 0
2, 101040, Note_on_c, 0, 71, 100
2, 101100, Note_on_c, 0, 69, 0
2, 101100, Note_on_c, 0, 69, 100
2, 101160, Note_on_c, 0, 69, 0
2, 101160, Note_on_c, 0, 67, 100
2, 101220, Note_on_c, 0, 67, 0
2, 101220, Note_on_c, 0, 66, 100
2, 101280, Note_on_c, 0, 66, 0
2, 101280, Note_on_c, 0, 71, 0
2, 101280, Note_on_c, 0, 64, 100
2, 101280, Note_on_c, 0, 71, 100
2, 101340, Note_on_c, 0, 64, 0
2, 101340, Note_on_c, 0, 62, 100
2, 101400, Note_on_c, 0, 62, 0
2, 101400, Note_on_c, 0, 64, 100
2, 101460, Note_on_c, 0, 71, 0
2, 101460, Note_on_c, 0, 71, 100
2, 101520, Note_on_c, 0, 71, 0
2, 101520, Note_on_c, 0, 69, 100
2, 101580, Note_on_c, 0, 69, 0
2, 101580, Note_on_c, 0, 67, 100
2, 101640, Note_on_c, 0, 67, 0
2, 101640, Note_on_c, 0, 64, 0
2, 101640, Note_on_c, 0, 64, 100
2, 101640, Note_on_c, 0, 66, 100
2, 101700, Note_on_c, 0, 66, 0
2, 101700, Note_on_c, 0, 64, 100
2, 101760, Note_on_c, 0, 64, 0
2, 101760, Note_on_c, 0, 66, 100
2, 101820, Note_on_c, 0, 64, 0
2, 101820, Note_on_c, 0, 64, 100
2, 101880, Note_on_c, 0, 64, 0
2, 101880, Note_on_c, 0, 62, 100
2, 101940, Note_on_c, 0, 62, 0
2, 101940, Note_on_c, 0, 60, 100
2, 102000, Note_on_c, 0, 60, 0
2, 102000, Note_on_c, 0, 66, 0
2, 102000, Note_on_c, 0, 59, 100
2, 102000, Note_on_c, 0, 67, 100
2, 102060, Note_on_c, 0, 67, 0
2, 102060, Note_on_c, 0, 69, 100
2, 102120, Note_on_c, 0, 69, 0
2, 102120, Note_on_c, 0, 59, 0
2, 102120, Note_on_c, 0, 71, 100
2, 102120, Note_on_c, 0, 55, 100
2, 102180, Note_on_c, 0, 71, 0
2, 102180, Note_on_c, 0, 69, 100
2, 102240, Note_on_c, 0, 69, 0
2, 102240, Note_on_c, 0, 55, 0
2, 102240, Note_on_c, 0, 71, 100
2, 102240, Note_on_c, 0, 60, 100
2, 102300, Note_on_c, 0, 71, 0
2, 102300, Note_on_c, 0, 67, 100
2, 102360, Note_on_c, 0, 67, 0
2, 102360, Note_on_c, 0, 69, 100
2, 102420, Note_on_c, 0, 69, 0
2, 102420, Note_on_c, 0, 62, 100
2, 102480, Note_on_c, 0, 62, 0
2, 102480, Note_on_c, 0, 60, 0
2, 102480, Note_on_c, 0, 59, 100
2, 102480, Note_on_c, 0, 66, 100
2, 102540, Note_on_c, 0, 66, 0
2, 102540, Note_on_c, 0, 69, 100
2, 102600, Note_on_c, 0, 69, 0
2, 102600, Note_on_c, 0, 59, 0
2, 102600, Note_on_c, 0, 57, 100
2, 102600, Note_on_c, 0, 74, 100
2, 102660, Note_on_c, 0, 74, 0
2, 102660, Note_on_c, 0, 72, 100
2, 102720, Note_on_c, 0, 72, 0
2, 102720, Note_on_c, 0, 57, 0
2, 102720, Note_on_c, 0, 71, 100
2, 102780, Note_on_c, 0, 71, 0
2, 102780, Note_on_c, 0, 67, 100
2, 102840, Note_on_c, 0, 67, 0
2, 102840, Note_on_c, 0, 57, 100
2, 102840, Note_on_c, 0, 71, 100
2, 102900, Note_on_c, 0, 71, 0
2, 102900, Note_on_c, 0, 74, 100
2, 102960, Note_on_c, 0, 74, 0
2, 102960, Note_on_c, 0, 57, 0
2, 102960, Note_on_c, 0, 59, 100
2, 102960, Note_on_c, 0, 79, 100
2, 103020, Note_on_c, 0, 79, 0
2, 103020, Note_on_c, 0, 77, 100
2, 103080, Note_on_c, 0, 77, 0
2, 103080, Note_on_c, 0, 59, 0
2, 103080, Note_on_c, 0, 60, 100
2, 103080, Note_on_c, 0, 76, 100
2, 103140, Note_on_c, 0, 76, 0
2, 103140, Note_on_c, 0, 74, 100
2, 103200, Note_on_c, 0, 74, 0
2, 103200, Note_on_c, 0, 76, 100
2, 103260, Note_on_c, 0, 76, 0
2, 103260, Note_on_c, 0, 72, 100
2, 103320, Note_on_c, 0, 72, 0
2, 103320, Note_on_c, 0, 76, 100
2, 103380, Note_on_c, 0, 76, 0
2, 103380, Note_on_c, 0, 71, 100
2, 103440, Note_on_c, 0, 71, 0
2, 103440, Note_on_c, 0, 76, 100
2, 103500, Note_on_c, 0, 76, 0
2, 103500, Note_on_c, 0, 72, 100
2, 103560, Note_on_c, 0, 72, 0
2, 103560, Note_on_c, 0, 60, 0
2, 103560, Note_on_c, 0, 59, 100
2, 103560, Note_on_c, 0, 76, 100
2, 103620, Note_on_c, 0, 76, 0
2, 103620, Note_on_c, 0, 69, 100
2, 103680, Note_on_c, 0, 69, 0
2, 103680, Note_on_c, 0, 59, 0
2, 103680, Note_on_c, 0, 57, 100
2, 103680, Note_on_c, 0, 76, 100
2, 103740, Note_on_c, 0, 76, 0
2, 103740, Note_on_c, 0, 66, 100
2, 103800, Note_on_c, 0, 66, 0
2, 103800, Note_on_c, 0, 57, 0
2, 103800, Note_on_c, 0, 59, 100
2, 103800, Note_on_c, 0, 74, 100
2, 103860, Note_on_c, 0, 74, 0
2, 103860, Note_on_c, 0, 72, 100
2, 103920, Note_on_c, 0, 72, 0
2, 103920, Note_on_c, 0, 74, 100
2, 103980, Note_on_c, 0, 74, 0
2, 103980, Note_on_c, 0, 71, 100
2, 104040, Note_on_c, 0, 71, 0
2, 104040, Note_on_c, 0, 74, 100
2, 104100, Note_on_c, 0, 74, 0
2, 104100, Note_on_c, 0, 69, 100
2, 104160, Note_on_c, 0, 69, 0
2, 104160, Note_on_c, 0, 74, 100
2, 104220, Note_on_c, 0, 74, 0
2, 104220, Note_on_c, 0, 71, 100
2, 104280, Note_on_c, 0, 71, 0
2, 104280, Note_on_c, 0, 59, 0
2, 104280, Note_on_c, 0, 57, 100
2, 104280, Note_on_c, 0, 74, 100
2, 104340, Note_on_c, 0, 74, 0
2, 104340, Note_on_c, 0, 67, 100
2, 104400, Note_on_c, 0, 67, 0
2, 104400, Note_on_c, 0, 57, 0
2, 104400, Note_on_c, 0, 55, 100
2, 104400, Note_on_c, 0, 74, 100
2, 104460, Note_on_c, 0, 74, 0
2, 104460, Note_on_c, 0, 64, 100
2, 104520, Note_on_c, 0, 64, 0
2, 104520, Note_on_c, 0, 55, 0
2, 104520, Note_on_c, 0, 57, 100
2, 104520, Note_on_c, 0, 72, 100
2, 104580, Note_on_c, 0, 72, 0
2, 104580, Note_on_c, 0, 71, 100
2, 104640, Note_on_c, 0, 71, 0
2, 104640, Note_on_c, 0, 72, 100
2, 104700, Note_on_c, 0, 72, 0
2, 104700, Note_on_c, 0, 69, 100
2, 104760, Note_on_c, 0, 69, 0
2, 104760, Note_on_c, 0, 72, 100
2, 104820, Note_on_c, 0, 72, 0
2, 104820, Note_on_c, 0, 67, 100
2, 104880, Note_on_c, 0, 67, 0
2, 104880, Note_on_c, 0, 57, 0
2, 104880, Note_on_c, 0, 57, 100
2, 104880, Note_on_c, 0, 72, 100
2, 104940, Note_on_c, 0, 72, 0
2, 104940, Note_on_c, 0, 69, 100
2, 105000, Note_on_c, 0, 69, 0
2, 105000, Note_on_c, 0, 57, 0
2, 105000, Note_on_c, 0, 55, 100
2, 105000, Note_on_c, 0, 72, 100
2, 105060, Note_on_c, 0, 72, 0
2, 105060, Note_on_c, 0, 66, 100
2, 105120, Note_on_c, 0, 66, 0
2, 105120, Note_on_c, 0, 55, 0
2, 105120, Note_on_c, 0, 54, 100
2, 105120, Note_on_c, 0, 72, 100
2, 105180, Note_on_c, 0, 72, 0
2, 105180, Note_on_c, 0, 62, 100
2, 105240, Note_on_c, 0, 62, 0
2, 105240, Note_on_c, 0, 54, 0
2, 105240, Note_on_c, 0, 55, 100
2, 105240, Note_on_c, 0, 71, 100
2, 105300, Note_on_c, 0, 71, 0
2, 105300, Note_on_c, 0, 69, 100
2, 105360, Note_on_c, 0, 69, 0
2, 105360, Note_on_c, 0, 55, 0
2, 105360, Note_on_c, 0, 54, 100
2, 105360, Note_on_c, 0, 71, 100
2, 105420, Note_on_c, 0, 71, 0
2, 105420, Note_on_c, 0, 67, 100
2, 105480, Note_on_c, 0, 67, 0
2, 105480, Note_on_c, 0, 54, 0
2, 105480, Note_on_c, 0, 52, 100
2, 105480, Note_on_c, 0, 71, 100
2, 105540, Note_on_c, 0, 71, 0
2, 105540, Note_on_c, 0, 62, 100
2, 105600, Note_on_c, 0, 62, 0
2, 105600, Note_on_c, 0, 52, 0
2, 105600, Note_on_c, 0, 54, 100
2, 105600, Note_on_c, 0, 69, 100
2, 105660, Note_on_c, 0, 69, 0
2, 105660, Note_on_c, 0, 67, 100
2, 105720, Note_on_c, 0, 67, 0
2, 105720, Note_on_c, 0, 54, 0
2, 105720, Note_on_c, 0, 52, 100
2, 105720, Note_on_c, 0, 69, 100
2, 105780, Note_on_c, 0, 69, 0
2, 105780, Note_on_c, 0, 66, 100
2, 105840, Note_on_c, 0, 66, 0
2, 105840, Note_on_c, 0, 52, 0
2, 105840, Note_on_c, 0, 54, 100
2, 105840, Note_on_c, 0, 69, 100
2, 105900, Note_on_c, 0, 69, 0
2, 105900, Note_on_c, 0, 62, 100
2, 105960, Note_on_c, 0, 62, 0
2, 105960, Note_on_c, 0, 54, 0
2, 105960, Note_on_c, 0, 55, 100
2, 105960, Note_on_c, 0, 71, 100
2, 106020, Note_on_c, 0, 71, 0
2, 106020, Note_on_c, 0, 69, 100
2, 106080, Note_on_c, 0, 69, 0
2, 106080, Note_on_c, 0, 55, 0
2, 106080, Note_on_c, 0, 54, 100
2, 106080, Note_on_c, 0, 71, 100
2, 106140, Note_on_c, 0, 71, 0
2, 106140, Note_on_c, 0, 67, 100
2, 106200, Note_on_c, 0, 67, 0
2, 106200, Note_on_c, 0, 54, 0
2, 106200, Note_on_c, 0, 55, 100
2, 106200, Note_on_c, 0, 71, 100
2, 106260, Note_on_c, 0, 71, 0
2, 106260, Note_on_c, 0, 62, 100
2, 106320, Note_on_c, 0, 62, 0
2, 106320, Note_on_c, 0, 55, 0
2, 106320, Note_on_c, 0, 57, 100
2, 106320, Note_on_c, 0, 72, 100
2, 106380, Note_on_c, 0, 72, 0
2, 106380, Note_on_c, 0, 69, 100
2, 106440, Note_on_c, 0, 69, 0
2, 106440, Note_on_c, 0, 57, 0
2, 106440, Note_on_c, 0, 55, 100
2, 106440, Note_on_c, 0, 72, 100
2, 106500, Note_on_c, 0, 72, 0
2, 106500, Note_on_c, 0, 66, 100
2, 106560, Note_on_c, 0, 66, 0
2, 106560, Note_on_c, 0, 55, 0
2, 106560, Note_on_c, 0, 57, 100
2, 106560, Note_on_c, 0, 72, 100
2, 106620, Note_on_c, 0, 72, 0
2, 106620, Note_on_c, 0, 62, 100
2, 106680, Note_on_c, 0, 62, 0
2, 106680, Note_on_c, 0, 57, 0
2, 106680, Note_on_c, 0, 59, 100
2, 106680, Note_on_c, 0, 74, 100
2, 106740, Note_on_c, 0, 74, 0
2, 106740, Note_on_c, 0, 71, 100
2, 106800, Note_on_c, 0, 71, 0
2, 106800, Note_on_c, 0, 59, 0
2, 106800, Note_on_c, 0, 57, 100
2, 106800, Note_on_c, 0, 74, 100
2, 106860, Note_on_c, 0, 74, 0
2, 106860, Note_on_c, 0, 67, 100
2, 106920, Note_on_c, 0, 67, 0
2, 106920, Note_on_c, 0, 57, 0
2, 106920, Note_on_c, 0, 59, 100
2, 106920, Note_on_c, 0, 74, 100
2, 106980, Note_on_c, 0, 74, 0
2, 106980, Note_on_c, 0, 62, 100
2, 107040, Note_on_c, 0, 62, 0
2, 107040, Note_on_c, 0, 59, 0
2, 107040, Note_on_c, 0, 61, 100
2, 107040, Note_on_c, 0, 76, 100
2, 107100, Note_on_c, 0, 76, 0
2, 107100, Note_on_c, 0, 73, 100
2, 107160, Note_on_c, 0, 73, 0
2, 107160, Note_on_c, 0, 76, 100
2, 107220, Note_on_c, 0, 76, 0
2, 107220, Note_on_c, 0, 61, 0
2, 107220, Note_on_c, 0, 62, 100
2, 107220, Note_on_c, 0, 71, 100
2, 107280, Note_on_c, 0, 71, 0
2, 107280, Note_on_c, 0, 62, 0
2, 107280, Note_on_c, 0, 59, 100
2, 107280, Note_on_c, 0, 76, 100
2, 107340, Note_on_c, 0, 76, 0
2, 107340, Note_on_c, 0, 59, 0
2, 107340, Note_on_c, 0, 61, 100
2, 107340, Note_on_c, 0, 69, 100
2, 107400, Note_on_c, 0, 69, 0
2, 107400, Note_on_c, 0, 61, 0
2, 107400, Note_on_c, 0, 62, 100
2, 107400, Note_on_c, 0, 77, 100
2, 107460, Note_on_c, 0, 77, 0
2, 107460, Note_on_c, 0, 62, 0
2, 107460, Note_on_c, 0, 64, 100
2, 107460, Note_on_c, 0, 76, 100
2, 107520, Note_on_c, 0, 76, 0
2, 107520, Note_on_c, 0, 64, 0
2, 107520, Note_on_c, 0, 65, 100
2, 107520, Note_on_c, 0, 74, 100
2, 107580, Note_on_c, 0, 74, 0
2, 107580, Note_on_c, 0, 65, 0
2, 107580, Note_on_c, 0, 64, 100
2, 107580, Note_on_c, 0, 73, 100
2, 107640, Note_on_c, 0, 73, 0
2, 107640, Note_on_c, 0, 64, 0
2, 107640, Note_on_c, 0, 65, 100
2, 107640, Note_on_c, 0, 74, 100
2, 107700, Note_on_c, 0, 74, 0
2, 107700, Note_on_c, 0, 65, 0
2, 107700, Note_on_c, 0, 62, 100
2, 107700, Note_on_c, 0, 77, 100
2, 107760, Note_on_c, 0, 77, 0
2, 107760, Note_on_c, 0, 62, 0
2, 107760, Note_on_c, 0, 64, 100
2, 107760, Note_on_c, 0, 79, 100
2, 107820, Note_on_c, 0, 79, 0
2, 107820, Note_on_c, 0, 77, 100
2, 107844, Note_on_c, 0, 64, 0
2, 107880, Note_on_c, 0, 77, 0
2, 107880, Note_on_c, 0, 57, 100
2, 107880, Note_on_c, 0, 76, 100
2, 107940, Note_on_c, 0, 76, 0
2, 107940, Note_on_c, 0, 57, 0
2, 107940, Note_on_c, 0, 64, 100
2, 107940, Note_on_c, 0, 74, 100
2, 108000, Note_on_c, 0, 74, 0
2, 108000, Note_on_c, 0, 64, 0
2, 108000, Note_on_c, 0, 69, 100
2, 108000, Note_on_c, 0, 76, 100
2, 108060, Note_on_c, 0, 76, 0
2, 108060, Note_on_c, 0, 69, 0
2, 108060, Note_on_c, 0, 64, 100
2, 108060, Note_on_c, 0, 79, 100
2, 108120, Note_on_c, 0, 79, 0
2, 108120, Note_on_c, 0, 64, 0
2, 108120, Note_on_c, 0, 65, 100
2, 108120, Note_on_c, 0, 81, 100
2, 108180, Note_on_c, 0, 81, 0
2, 108180, Note_on_c, 0, 79, 100
2, 108204, Note_on_c, 0, 65, 0
2, 108240, Note_on_c, 0, 79, 0
2, 108240, Note_on_c, 0, 62, 100
2, 108240, Note_on_c, 0, 77, 100
2, 108300, Note_on_c, 0, 77, 0
2, 108300, Note_on_c, 0, 76, 100
2, 108360, Note_on_c, 0, 76, 0
2, 108360, Note_on_c, 0, 62, 0
2, 108360, Note_on_c, 0, 69, 100
2, 108360, Note_on_c, 0, 77, 100
2, 108420, Note_on_c, 0, 77, 0
2, 108420, Note_on_c, 0, 81, 100
2, 108480, Note_on_c, 0, 81, 0
2, 108480, Note_on_c, 0, 69, 0
2, 108480, Note_on_c, 0, 74, 100
2, 108480, Note_on_c, 0, 70, 100
2, 108540, Note_on_c, 0, 70, 0
2, 108540, Note_on_c, 0, 69, 100
2, 108600, Note_on_c, 0, 69, 0
2, 108600, Note_on_c, 0, 74, 0
2, 108600, Note_on_c, 0, 76, 100
2, 108600, Note_on_c, 0, 70, 100
2, 108660, Note_on_c, 0, 70, 0
2, 108660, Note_on_c, 0, 67, 100
2, 108720, Note_on_c, 0, 67, 0
2, 108720, Note_on_c, 0, 76, 0
2, 108720, Note_on_c, 0, 77, 100
2, 108720, Note_on_c, 0, 70, 100
2, 108750, Note_on_c, 0, 77, 0
2, 108750, Note_on_c, 0, 76, 100
2, 108780, Note_on_c, 0, 76, 0
2, 108780, Note_on_c, 0, 70, 0
2, 108780, Note_on_c, 0, 77, 100
2, 108780, Note_on_c, 0, 65, 100
2, 108840, Note_on_c, 0, 65, 0
2, 108840, Note_on_c, 0, 77, 0
2, 108840, Note_on_c, 0, 79, 100
2, 108840, Note_on_c, 0, 70, 100
2, 108900, Note_on_c, 0, 70, 0
2, 108900, Note_on_c, 0, 67, 100
2, 108960, Note_on_c, 0, 67, 0
2, 108960, Note_on_c, 0, 70, 100
2, 109020, Note_on_c, 0, 70, 0
2, 109020, Note_on_c, 0, 64, 100
2, 109080, Note_on_c, 0, 64, 0
2, 109080, Note_on_c, 0, 70, 100
2, 109140, Note_on_c, 0, 70, 0
2, 109140, Note_on_c, 0, 61, 100
2, 109200, Note_on_c, 0, 61, 0
2, 109200, Note_on_c, 0, 79, 0
2, 109200, Note_on_c, 0, 73, 100
2, 109200, Note_on_c, 0, 69, 100
2, 109260, Note_on_c, 0, 69, 0
2, 109260, Note_on_c, 0, 67, 100
2, 109320, Note_on_c, 0, 67, 0
2, 109320, Note_on_c, 0, 73, 0
2, 109320, Note_on_c, 0, 74, 100
2, 109320, Note_on_c, 0, 69, 100
2, 109380, Note_on_c, 0, 69, 0
2, 109380, Note_on_c, 0, 65, 100
2, 109440, Note_on_c, 0, 65, 0
2, 109440, Note_on_c, 0, 74, 0
2, 109440, Note_on_c, 0, 76, 100
2, 109440, Note_on_c, 0, 69, 100
2, 109470, Note_on_c, 0, 76, 0
2, 109470, Note_on_c, 0, 75, 100
2, 109500, Note_on_c, 0, 75, 0
2, 109500, Note_on_c, 0, 69, 0
2, 109500, Note_on_c, 0, 76, 100
2, 109500, Note_on_c, 0, 64, 100
2, 109560, Note_on_c, 0, 64, 0
2, 109560, Note_on_c, 0, 76, 0
2, 109560, Note_on_c, 0, 77, 100
2, 109560, Note_on_c, 0, 69, 100
2, 109620, Note_on_c, 0, 69, 0
2, 109620, Note_on_c, 0, 65, 100
2, 109680, Note_on_c, 0, 65, 0
2, 109680, Note_on_c, 0, 69, 100
2, 109740, Note_on_c, 0, 69, 0
2, 109740, Note_on_c, 0, 62, 100
2, 109800, Note_on_c, 0, 62, 0
2, 109800, Note_on_c, 0, 69, 100
2, 109860, Note_on_c, 0, 69, 0
2, 109860, Note_on_c, 0, 59, 100
2, 109920, Note_on_c, 0, 59, 0
2, 109920, Note_on_c, 0, 67, 100
2, 109980, Note_on_c, 0, 67, 0
2, 109980, Note_on_c, 0, 65, 100
2, 110040, Note_on_c, 0, 65, 0
2, 110040, Note_on_c, 0, 77, 0
2, 110040, Note_on_c, 0, 76, 100
2, 110040, Note_on_c, 0, 67, 100
2, 110100, Note_on_c, 0, 67, 0
2, 110100, Note_on_c, 0, 76, 0
2, 110100, Note_on_c, 0, 74, 100
2, 110100, Note_on_c, 0, 64, 100
2, 110160, Note_on_c, 0, 64, 0
2, 110160, Note_on_c, 0, 74, 0
2, 110160, Note_on_c, 0, 73, 100
2, 110160, Note_on_c, 0, 67, 100
2, 110220, Note_on_c, 0, 67, 0
2, 110220, Note_on_c, 0, 73, 0
2, 110220, Note_on_c, 0, 74, 100
2, 110220, Note_on_c, 0, 62, 100
2, 110280, Note_on_c, 0, 62, 0
2, 110280, Note_on_c, 0, 74, 0
2, 110280, Note_on_c, 0, 76, 100
2, 110280, Note_on_c, 0, 67, 100
2, 110340, Note_on_c, 0, 67, 0
2, 110340, Note_on_c, 0, 76, 0
2, 110340, Note_on_c, 0, 79, 100
2, 110340, Note_on_c, 0, 64, 100
2, 110400, Note_on_c, 0, 64, 0
2, 110400, Note_on_c, 0, 79, 0
2, 110400, Note_on_c, 0, 67, 100
2, 110400, Note_on_c, 0, 82, 100
2, 110460, Note_on_c, 0, 82, 0
2, 110460, Note_on_c, 0, 67, 0
2, 110460, Note_on_c, 0, 61, 100
2, 110460, Note_on_c, 0, 79, 100
2, 110520, Note_on_c, 0, 79, 0
2, 110520, Note_on_c, 0, 61, 0
2, 110520, Note_on_c, 0, 67, 100
2, 110520, Note_on_c, 0, 76, 100
2, 110580, Note_on_c, 0, 76, 0
2, 110580, Note_on_c, 0, 67, 0
2, 110580, Note_on_c, 0, 73, 100
2, 110580, Note_on_c, 0, 57, 100
2, 110640, Note_on_c, 0, 57, 0
2, 110640, Note_on_c, 0, 73, 0
2, 110640, Note_on_c, 0, 74, 100
2, 110640, Note_on_c, 0, 65, 100
2, 110700, Note_on_c, 0, 74, 0
2, 110700, Note_on_c, 0, 77, 100
2, 110760, Note_on_c, 0, 77, 0
2, 110760, Note_on_c, 0, 65, 0
2, 110760, Note_on_c, 0, 81, 100
2, 110760, Note_on_c, 0, 62, 100
2, 110820, Note_on_c, 0, 81, 0
2, 110820, Note_on_c, 0, 77, 100
2, 110880, Note_on_c, 0, 77, 0
2, 110880, Note_on_c, 0, 62, 0
2, 110880, Note_on_c, 0, 74, 100
2, 110880, Note_on_c, 0, 65, 100
2, 110940, Note_on_c, 0, 74, 0
2, 110940, Note_on_c, 0, 72, 100
2, 111000, Note_on_c, 0, 72, 0
2, 111000, Note_on_c, 0, 65, 0
2, 111000, Note_on_c, 0, 70, 100
2, 111000, Note_on_c, 0, 55, 100
2, 111060, Note_on_c, 0, 55, 0
2, 111060, Note_on_c, 0, 70, 0
2, 111060, Note_on_c, 0, 74, 100
2, 111060, Note_on_c, 0, 58, 100
2, 111120, Note_on_c, 0, 58, 0
2, 111120, Note_on_c, 0, 74, 0
2, 111120, Note_on_c, 0, 79, 100
2, 111120, Note_on_c, 0, 62, 100
2, 111180, Note_on_c, 0, 62, 0
2, 111180, Note_on_c, 0, 79, 0
2, 111180, Note_on_c, 0, 74, 100
2, 111180, Note_on_c, 0, 65, 100
2, 111240, Note_on_c, 0, 65, 0
2, 111240, Note_on_c, 0, 74, 0
2, 111240, Note_on_c, 0, 70, 100
2, 111240, Note_on_c, 0, 67, 100
2, 111300, Note_on_c, 0, 67, 0
2, 111300, Note_on_c, 0, 70, 0
2, 111300, Note_on_c, 0, 67, 100
2, 111300, Note_on_c, 0, 65, 100
2, 111360, Note_on_c, 0, 65, 0
2, 111360, Note_on_c, 0, 67, 0
2, 111360, Note_on_c, 0, 72, 100
2, 111360, Note_on_c, 0, 64, 100
2, 111420, Note_on_c, 0, 72, 0
2, 111420, Note_on_c, 0, 76, 100
2, 111480, Note_on_c, 0, 76, 0
2, 111480, Note_on_c, 0, 64, 0
2, 111480, Note_on_c, 0, 79, 100
2, 111480, Note_on_c, 0, 60, 100
2, 111540, Note_on_c, 0, 79, 0
2, 111540, Note_on_c, 0, 76, 100
2, 111600, Note_on_c, 0, 76, 0
2, 111600, Note_on_c, 0, 60, 0
2, 111600, Note_on_c, 0, 72, 100
2, 111600, Note_on_c, 0, 64, 100
2, 111660, Note_on_c, 0, 72, 0
2, 111660, Note_on_c, 0, 70, 100
2, 111720, Note_on_c, 0, 70, 0
2, 111720, Note_on_c, 0, 64, 0
2, 111720, Note_on_c, 0, 69, 100
2, 111720, Note_on_c, 0, 53, 100
2, 111780, Note_on_c, 0, 53, 0
2, 111780, Note_on_c, 0, 69, 0
2, 111780, Note_on_c, 0, 72, 100
2, 111780, Note_on_c, 0, 57, 100
2, 111840, Note_on_c, 0, 57, 0
2, 111840, Note_on_c, 0, 72, 0
2, 111840, Note_on_c, 0, 77, 100
2, 111840, Note_on_c, 0, 60, 100
2, 111900, Note_on_c, 0, 60, 0
2, 111900, Note_on_c, 0, 77, 0
2, 111900, Note_on_c, 0, 72, 100
2, 111900, Note_on_c, 0, 63, 100
2, 111960, Note_on_c, 0, 63, 0
2, 111960, Note_on_c, 0, 72, 0
2, 111960, Note_on_c, 0, 69, 100
2, 111960, Note_on_c, 0, 65, 100
2, 112020, Note_on_c, 0, 65, 0
2, 112020, Note_on_c, 0, 69, 0
2, 112020, Note_on_c, 0, 65, 100
2, 112020, Note_on_c, 0, 63, 100
2, 112080, Note_on_c, 0, 63, 0
2, 112080, Note_on_c, 0, 65, 0
2, 112080, Note_on_c, 0, 62, 100
2, 112080, Note_on_c, 0, 70, 100
2, 112140, Note_on_c, 0, 70, 0
2, 112140, Note_on_c, 0, 74, 100
2, 112200, Note_on_c, 0, 74, 0
2, 112200, Note_on_c, 0, 77, 100
2, 112260, Note_on_c, 0, 77, 0
2, 112260, Note_on_c, 0, 74, 100
2, 112320, Note_on_c, 0, 74, 0
2, 112320, Note_on_c, 0, 70, 100
2, 112380, Note_on_c, 0, 70, 0
2, 112380, Note_on_c, 0, 69, 100
2, 112440, Note_on_c, 0, 69, 0
2, 112440, Note_on_c, 0, 68, 100
2, 112500, Note_on_c, 0, 68, 0
2, 112500, Note_on_c, 0, 71, 100
2, 112560, Note_on_c, 0, 71, 0
2, 112560, Note_on_c, 0, 62, 0
2, 112560, Note_on_c, 0, 60, 100
2, 112560, Note_on_c, 0, 76, 100
2, 112620, Note_on_c, 0, 76, 0
2, 112620, Note_on_c, 0, 60, 0
2, 112620, Note_on_c, 0, 59, 100
2, 112620, Note_on_c, 0, 72, 100
2, 112680, Note_on_c, 0, 72, 0
2, 112680, Note_on_c, 0, 59, 0
2, 112680, Note_on_c, 0, 60, 100
2, 112680, Note_on_c, 0, 69, 100
2, 112740, Note_on_c, 0, 69, 0
2, 112740, Note_on_c, 0, 67, 100
2, 112800, Note_on_c, 0, 67, 0
2, 112800, Note_on_c, 0, 66, 100
2, 112860, Note_on_c, 0, 66, 0
2, 112860, Note_on_c, 0, 69, 100
2, 112920, Note_on_c, 0, 69, 0
2, 112920, Note_on_c, 0, 60, 0
2, 112920, Note_on_c, 0, 59, 100
2, 112920, Note_on_c, 0, 74, 100
2, 112980, Note_on_c, 0, 74, 0
2, 112980, Note_on_c, 0, 59, 0
2, 112980, Note_on_c, 0, 57, 100
2, 112980, Note_on_c, 0, 71, 100
2, 113040, Note_on_c, 0, 71, 0
2, 113040, Note_on_c, 0, 57, 0
2, 113040, Note_on_c, 0, 59, 100
2, 113040, Note_on_c, 0, 67, 100
2, 113100, Note_on_c, 0, 67, 0
2, 113100, Note_on_c, 0, 65, 100
2, 113160, Note_on_c, 0, 65, 0
2, 113160, Note_on_c, 0, 64, 100
2, 113220, Note_on_c, 0, 64, 0
2, 113220, Note_on_c, 0, 67, 100
2, 113280, Note_on_c, 0, 67, 0
2, 113280, Note_on_c, 0, 59, 0
2, 113280, Note_on_c, 0, 57, 100
2, 113280, Note_on_c, 0, 72, 100
2, 113340, Note_on_c, 0, 72, 0
2, 113340, Note_on_c, 0, 57, 0
2, 113340, Note_on_c, 0, 56, 100
2, 113340, Note_on_c, 0, 69, 100
2, 113400, Note_on_c, 0, 69, 0
2, 113400, Note_on_c, 0, 56, 0
2, 113400, Note_on_c, 0, 57, 100
2, 113400, Note_on_c, 0, 65, 100
2, 113460, Note_on_c, 0, 65, 0
2, 113460, Note_on_c, 0, 64, 100
2, 113520, Note_on_c, 0, 64, 0
2, 113520, Note_on_c, 0, 62, 100
2, 113580, Note_on_c, 0, 62, 0
2, 113580, Note_on_c, 0, 71, 100
2, 113640, Note_on_c, 0, 71, 0
2, 113640, Note_on_c, 0, 57, 0
2, 113640, Note_on_c, 0, 56, 100
2, 113640, Note_on_c, 0, 62, 100
2, 113700, Note_on_c, 0, 62, 0
2, 113700, Note_on_c, 0, 56, 0
2, 113700, Note_on_c, 0, 54, 100
2, 113700, Note_on_c, 0, 71, 100
2, 113760, Note_on_c, 0, 71, 0
2, 113760, Note_on_c, 0, 54, 0
2, 113760, Note_on_c, 0, 56, 100
2, 113760, Note_on_c, 0, 62, 100
2, 113820, Note_on_c, 0, 62, 0
2, 113820, Note_on_c, 0, 71, 100
2, 113880, Note_on_c, 0, 71, 0
2, 113880, Note_on_c, 0, 56, 0
2, 113880, Note_on_c, 0, 57, 100
2, 113880, Note_on_c, 0, 60, 100
2, 113940, Note_on_c, 0, 60, 0
2, 113940, Note_on_c, 0, 69, 100
2, 114000, Note_on_c, 0, 69, 0
2, 114000, Note_on_c, 0, 57, 0
2, 114000, Note_on_c, 0, 59, 100
2, 114000, Note_on_c, 0, 62, 100
2, 114060, Note_on_c, 0, 62, 0
2, 114060, Note_on_c, 0, 69, 100
2, 114120, Note_on_c, 0, 69, 0
2, 114120, Note_on_c, 0, 59, 0
2, 114120, Note_on_c, 0, 60, 100
2, 114120, Note_on_c, 0, 64, 100
2, 114180, Note_on_c, 0, 64, 0
2, 114180, Note_on_c, 0, 69, 100
2, 114240, Note_on_c, 0, 69, 0
2, 114240, Note_on_c, 0, 60, 0
2, 114240, Note_on_c, 0, 62, 100
2, 114240, Note_on_c, 0, 65, 100
2, 114300, Note_on_c, 0, 65, 0
2, 114300, Note_on_c, 0, 69, 100
2, 114360, Note_on_c, 0, 69, 0
2, 114360, Note_on_c, 0, 65, 100
2, 114420, Note_on_c, 0, 65, 0
2, 114420, Note_on_c, 0, 71, 100
2, 114480, Note_on_c, 0, 71, 0
2, 114480, Note_on_c, 0, 62, 0
2, 114480, Note_on_c, 0, 65, 100
2, 114540, Note_on_c, 0, 65, 0
2, 114540, Note_on_c, 0, 72, 100
2, 114600, Note_on_c, 0, 72, 0
2, 114600, Note_on_c, 0, 59, 100
2, 114600, Note_on_c, 0, 62, 100
2, 114660, Note_on_c, 0, 62, 0
2, 114660, Note_on_c, 0, 74, 100
2, 114720, Note_on_c, 0, 74, 0
2, 114720, Note_on_c, 0, 59, 0
2, 114720, Note_on_c, 0, 60, 100
2, 114720, Note_on_c, 0, 64, 100
2, 114780, Note_on_c, 0, 64, 0
2, 114780, Note_on_c, 0, 74, 100
2, 114840, Note_on_c, 0, 74, 0
2, 114840, Note_on_c, 0, 60, 0
2, 114840, Note_on_c, 0, 62, 100
2, 114840, Note_on_c, 0, 65, 100
2, 114900, Note_on_c, 0, 65, 0
2, 114900, Note_on_c, 0, 74, 100
2, 114960, Note_on_c, 0, 74, 0
2, 114960, Note_on_c, 0, 62, 0
2, 114960, Note_on_c, 0, 64, 100
2, 114960, Note_on_c, 0, 67, 100
2, 115020, Note_on_c, 0, 67, 0
2, 115020, Note_on_c, 0, 71, 100
2, 115080, Note_on_c, 0, 71, 0
2, 115080, Note_on_c, 0, 67, 100
2, 115140, Note_on_c, 0, 67, 0
2, 115140, Note_on_c, 0, 72, 100
2, 115200, Note_on_c, 0, 72, 0
2, 115200, Note_on_c, 0, 64, 0
2, 115200, Note_on_c, 0, 67, 100
2, 115260, Note_on_c, 0, 67, 0
2, 115260, Note_on_c, 0, 74, 100
2, 115320, Note_on_c, 0, 74, 0
2, 115320, Note_on_c, 0, 60, 100
2, 115320, Note_on_c, 0, 64, 100
2, 115380, Note_on_c, 0, 64, 0
2, 115380, Note_on_c, 0, 76, 100
2, 115440, Note_on_c, 0, 76, 0
2, 115440, Note_on_c, 0, 60, 0
2, 115440, Note_on_c, 0, 62, 100
2, 115440, Note_on_c, 0, 65, 100
2, 115500, Note_on_c, 0, 65, 0
2, 115500, Note_on_c, 0, 76, 100
2, 115560, Note_on_c, 0, 76, 0
2, 115560, Note_on_c, 0, 62, 0
2, 115560, Note_on_c, 0, 64, 100
2, 115560, Note_on_c, 0, 67, 100
2, 115620, Note_on_c, 0, 67, 0
2, 115620, Note_on_c, 0, 76, 100
2, 115680, Note_on_c, 0, 76, 0
2, 115680, Note_on_c, 0, 64, 0
2, 115680, Note_on_c, 0, 65, 100
2, 115680, Note_on_c, 0, 69, 100
2, 115740, Note_on_c, 0, 69, 0
2, 115740, Note_on_c, 0, 72, 100
2, 115800, Note_on_c, 0, 72, 0
2, 115800, Note_on_c, 0, 69, 100
2, 115860, Note_on_c, 0, 69, 0
2, 115860, Note_on_c, 0, 74, 100
2, 115920, Note_on_c, 0, 74, 0
2, 115920, Note_on_c, 0, 65, 0
2, 115920, Note_on_c, 0, 69, 100
2, 115980, Note_on_c, 0, 69, 0
2, 115980, Note_on_c, 0, 76, 100
2, 116040, Note_on_c, 0, 76, 0
2, 116040, Note_on_c, 0, 62, 100
2, 116040, Note_on_c, 0, 77, 100
2, 116100, Note_on_c, 0, 62, 0
2, 116100, Note_on_c, 0, 65, 100
2, 116160, Note_on_c, 0, 65, 0
2, 116160, Note_on_c, 0, 62, 100
2, 116220, Note_on_c, 0, 62, 0
2, 116220, Note_on_c, 0, 67, 100
2, 116280, Note_on_c, 0, 67, 0
2, 116280, Note_on_c, 0, 77, 0
2, 116280, Note_on_c, 0, 62, 100
2, 116340, Note_on_c, 0, 62, 0
2, 116340, Note_on_c, 0, 69, 100
2, 116400, Note_on_c, 0, 69, 0
2, 116400, Note_on_c, 0, 71, 100
2, 116400, Note_on_c, 0, 55, 100
2, 116460, Note_on_c, 0, 55, 0
2, 116460, Note_on_c, 0, 67, 100
2, 116520, Note_on_c, 0, 67, 0
2, 116520, Note_on_c, 0, 71, 0
2, 116520, Note_on_c, 0, 72, 100
2, 116520, Note_on_c, 0, 57, 100
2, 116580, Note_on_c, 0, 57, 0
2, 116580, Note_on_c, 0, 67, 100
2, 116640, Note_on_c, 0, 67, 0
2, 116640, Note_on_c, 0, 72, 0
2, 116640, Note_on_c, 0, 74, 100
2, 116640, Note_on_c, 0, 59, 100
2, 116700, Note_on_c, 0, 59, 0
2, 116700, Note_on_c, 0, 67, 100
2, 116760, Note_on_c, 0, 67, 0
2, 116760, Note_on_c, 0, 74, 0
2, 116760, Note_on_c, 0, 76, 100
2, 116760, Note_on_c, 0, 60, 100
2, 116820, Note_on_c, 0, 60, 0
2, 116820, Note_on_c, 0, 64, 100
2, 116880, Note_on_c, 0, 64, 0
2, 116880, Note_on_c, 0, 60, 100
2, 116940, Note_on_c, 0, 60, 0
2, 116940, Note_on_c, 0, 65, 100
2, 117000, Note_on_c, 0, 65, 0
2, 117000, Note_on_c, 0, 76, 0
2, 117000, Note_on_c, 0, 60, 100
2, 117060, Note_on_c, 0, 60, 0
2, 117060, Note_on_c, 0, 67, 100
2, 117120, Note_on_c, 0, 67, 0
2, 117120, Note_on_c, 0, 69, 100
2, 117120, Note_on_c, 0, 53, 100
2, 117180, Note_on_c, 0, 53, 0
2, 117180, Note_on_c, 0, 65, 100
2, 117240, Note_on_c, 0, 65, 0
2, 117240, Note_on_c, 0, 69, 0
2, 117240, Note_on_c, 0, 71, 100
2, 117240, Note_on_c, 0, 55, 100
2, 117300, Note_on_c, 0, 55, 0
2, 117300, Note_on_c, 0, 65, 100
2, 117360, Note_on_c, 0, 65, 0
2, 117360, Note_on_c, 0, 71, 0
2, 117360, Note_on_c, 0, 73, 100
2, 117360, Note_on_c, 0, 57, 100
2, 117420, Note_on_c, 0, 57, 0
2, 117420, Note_on_c, 0, 65, 100
2, 117480, Note_on_c, 0, 65, 0
2, 117480, Note_on_c, 0, 73, 0
2, 117480, Note_on_c, 0, 74, 100
2, 117480, Note_on_c, 0, 58, 100
2, 117540, Note_on_c, 0, 58, 0
2, 117540, Note_on_c, 0, 62, 100
2, 117600, Note_on_c, 0, 62, 0
2, 117600, Note_on_c, 0, 74, 0
2, 117600, Note_on_c, 0, 73, 100
2, 117600, Note_on_c, 0, 58, 100
2, 117660, Note_on_c, 0, 58, 0
2, 117660, Note_on_c, 0, 64, 100
2, 117720, Note_on_c, 0, 64, 0
2, 117720, Note_on_c, 0, 73, 0
2, 117720, Note_on_c, 0, 74, 100
2, 117720, Note_on_c, 0, 58, 100
2, 117780, Note_on_c, 0, 58, 0
2, 117780, Note_on_c, 0, 65, 100
2, 117840, Note_on_c, 0, 65, 0
2, 117840, Note_on_c, 0, 56, 100
2, 117900, Note_on_c, 0, 56, 0
2, 117900, Note_on_c, 0, 64, 100
2, 117960, Note_on_c, 0, 64, 0
2, 117960, Note_on_c, 0, 74, 0
2, 117960, Note_on_c, 0, 72, 100
2, 117960, Note_on_c, 0, 57, 100
2, 118020, Note_on_c, 0, 57, 0
2, 118020, Note_on_c, 0, 72, 0
2, 118020, Note_on_c, 0, 71, 100
2, 118020, Note_on_c, 0, 64, 100
2, 118080, Note_on_c, 0, 64, 0
2, 118080, Note_on_c, 0, 71, 0
2, 118080, Note_on_c, 0, 69, 100
2, 118080, Note_on_c, 0, 59, 100
2, 118140, Note_on_c, 0, 59, 0
2, 118140, Note_on_c, 0, 69, 0
2, 118140, Note_on_c, 0, 68, 100
2, 118140, Note_on_c, 0, 64, 100
2, 118200, Note_on_c, 0, 64, 0
2, 118200, Note_on_c, 0, 68, 0
2, 118200, Note_on_c, 0, 76, 100
2, 118200, Note_on_c, 0, 60, 100
2, 118260, Note_on_c, 0, 60, 0
2, 118260, Note_on_c, 0, 64, 100
2, 118320, Note_on_c, 0, 64, 0
2, 118320, Note_on_c, 0, 76, 0
2, 118320, Note_on_c, 0, 69, 100
2, 118320, Note_on_c, 0, 60, 100
2, 118380, Note_on_c, 0, 60, 0
2, 118380, Note_on_c, 0, 66, 100
2, 118440, Note_on_c, 0, 66, 0
2, 118440, Note_on_c, 0, 69, 0
2, 118440, Note_on_c, 0, 71, 100
2, 118440, Note_on_c, 0, 60, 100
2, 118500, Note_on_c, 0, 60, 0
2, 118500, Note_on_c, 0, 68, 100
2, 118560, Note_on_c, 0, 68, 0
2, 118560, Note_on_c, 0, 71, 0
2, 118560, Note_on_c, 0, 72, 100
2, 118560, Note_on_c, 0, 57, 100
2, 118620, Note_on_c, 0, 57, 0
2, 118620, Note_on_c, 0, 72, 0
2, 118620, Note_on_c, 0, 74, 100
2, 118620, Note_on_c, 0, 69, 100
2, 118680, Note_on_c, 0, 69, 0
2, 118680, Note_on_c, 0, 74, 0
2, 118680, Note_on_c, 0, 74, 100
2, 118680, Note_on_c, 0, 67, 100
2, 118710, Note_on_c, 0, 74, 0
2, 118710, Note_on_c, 0, 76, 100
2, 118740, Note_on_c, 0, 76, 0
2, 118740, Note_on_c, 0, 67, 0
2, 118740, Note_on_c, 0, 74, 100
2, 118740, Note_on_c, 0, 69, 100
2, 118770, Note_on_c, 0, 74, 0
2, 118770, Note_on_c, 0, 76, 100
2, 118800, Note_on_c, 0, 76, 0
2, 118800, Note_on_c, 0, 69, 0
2, 118800, Note_on_c, 0, 74, 100
2, 118800, Note_on_c, 0, 65, 100
2, 118860, Note_on_c, 0, 65, 0
2, 118860, Note_on_c, 0, 74, 0
2, 118860, Note_on_c, 0, 72, 100
2, 118860, Note_on_c, 0, 69, 100
2, 118890, Note_on_c, 0, 72, 0
2, 118890, Note_on_c, 0, 74, 100
2, 118920, Note_on_c, 0, 74, 0
2, 118920, Note_on_c, 0, 69, 0
2, 118920, Note_on_c, 0, 76, 100
2, 118920, Note_on_c, 0, 64, 100
2, 118980, Note_on_c, 0, 64, 0
2, 118980, Note_on_c, 0, 68, 100
2, 119040, Note_on_c, 0, 68, 0
2, 119040, Note_on_c, 0, 64, 100
2, 119100, Note_on_c, 0, 64, 0
2, 119100, Note_on_c, 0, 69, 100
2, 119160, Note_on_c, 0, 69, 0
2, 119160, Note_on_c, 0, 64, 100
2, 119220, Note_on_c, 0, 64, 0
2, 119220, Note_on_c, 0, 71, 100
2, 119280, Note_on_c, 0, 71, 0
2, 119280, Note_on_c, 0, 60, 100
2, 119340, Note_on_c, 0, 60, 0
2, 119340, Note_on_c, 0, 64, 100
2, 119400, Note_on_c, 0, 64, 0
2, 119400, Note_on_c, 0, 60, 100
2, 119460, Note_on_c, 0, 60, 0
2, 119460, Note_on_c, 0, 66, 100
2, 119520, Note_on_c, 0, 66, 0
2, 119520, Note_on_c, 0, 60, 100
2, 119580, Note_on_c, 0, 60, 0
2, 119580, Note_on_c, 0, 68, 100
2, 119640, Note_on_c, 0, 68, 0
2, 119640, Note_on_c, 0, 60, 100
2, 119700, Note_on_c, 0, 60, 0
2, 119700, Note_on_c, 0, 64, 100
2, 119760, Note_on_c, 0, 64, 0
2, 119760, Note_on_c, 0, 69, 100
2, 119820, Note_on_c, 0, 69, 0
2, 119820, Note_on_c, 0, 68, 100
2, 119880, Note_on_c, 0, 68, 0
2, 119880, Note_on_c, 0, 69, 100
2, 119940, Note_on_c, 0, 69, 0
2, 119940, Note_on_c, 0, 64, 100
2, 120000, Note_on_c, 0, 64, 0
2, 120000, Note_on_c, 0, 62, 100
2, 120060, Note_on_c, 0, 62, 0
2, 120060, Note_on_c, 0, 69, 100
2, 120120, Note_on_c, 0, 69, 0
2, 120120, Note_on_c, 0, 68, 100
2, 120180, Note_on_c, 0, 68, 0
2, 120180, Note_on_c, 0, 66, 100
2, 120240, Note_on_c, 0, 66, 0
2, 120240, Note_on_c, 0, 68, 100
2, 120300, Note_on_c, 0, 68, 0
2, 120300, Note_on_c, 0, 71, 100
2, 120360, Note_on_c, 0, 71, 0
2, 120360, Note_on_c, 0, 64, 100
2, 120720, Note_on_c, 0, 64, 0
2, 120720, Note_on_c, 0, 71, 100
2, 121200, Note_on_c, 0, 71, 0
2, 121200, Note_on_c, 0, 69, 100
2, 121800, Note_on_c, 0, 76, 0
2, 121800, Note_on_c, 0, 74, 100
2, 121920, Note_on_c, 0, 69, 0
2, 121920, Note_on_c, 0, 67, 100
2, 122520, Note_on_c, 0, 74, 0
2, 122520, Note_on_c, 0, 72, 100
2, 122640, Note_on_c, 0, 67, 0
2, 122640, Note_on_c, 0, 65, 100
2, 123240, Note_on_c, 0, 72, 0
2, 123240, Note_on_c, 0, 71, 100
2, 123360, Note_on_c, 0, 65, 0
2, 123360, Note_on_c, 0, 64, 100
2, 123720, Note_on_c, 0, 71, 0
2, 123720, Note_on_c, 0, 69, 127
2, 123840, Note_on_c, 0, 69, 0
2, 123840, Note_on_c, 0, 64, 0
2, 123840, Note_on_c, 0, 68, 127
2, 123960, Note_on_c, 0, 68, 0
2, 123960, Note_on_c, 0, 69, 127
2, 124020, Note_on_c, 0, 69, 0
2, 124020, Note_on_c, 0, 68, 127
2, 124080, Note_on_c, 0, 68, 0
2, 124080, Note_on_c, 0, 69, 127
2, 124140, Note_on_c, 0, 69, 0
2, 124140, Note_on_c, 0, 72, 127
2, 124200, Note_on_c, 0, 72, 0
2, 124200, Note_on_c, 0, 71, 127
2, 124260, Note_on_c, 0, 71, 0
2, 124260, Note_on_c, 0, 74, 127
2, 124320, Note_on_c, 0, 74, 0
2, 124320, Note_on_c, 0, 72, 127
2, 124380, Note_on_c, 0, 72, 0
2, 124380, Note_on_c, 0, 71, 127
2, 124440, Note_on_c, 0, 71, 0
2, 124440, Note_on_c, 0, 72, 127
2, 124500, Note_on_c, 0, 72, 0
2, 124500, Note_on_c, 0, 69, 127
2, 124560, Note_on_c, 0, 69, 0
2, 124560, Note_on_c, 0, 74, 127
2, 124620, Note_on_c, 0, 74, 0
2, 124620, Note_on_c, 0, 71, 127
2, 124680, Note_on_c, 0, 71, 0
2, 124680, Note_on_c, 0, 72, 127
2, 124740, Note_on_c, 0, 72, 0
2, 124740, Note_on_c, 0, 71, 127
2, 124800, Note_on_c, 0, 71, 0
2, 124800, Note_on_c, 0, 72, 127
2, 124860, Note_on_c, 0, 72, 0
2, 124860, Note_on_c, 0, 69, 127
2, 124920, Note_on_c, 0, 69, 0
2, 124920, Note_on_c, 0, 74, 127
2, 124980, Note_on_c, 0, 74, 0
2, 124980, Note_on_c, 0, 68, 127
2, 125040, Note_on_c, 0, 68, 0
2, 125040, Note_on_c, 0, 69, 127
2, 125100, Note_on_c, 0, 69, 0
2, 125100, Note_on_c, 0, 68, 127
2, 125160, Note_on_c, 0, 68, 0
2, 125160, Note_on_c, 0, 69, 127
2, 125220, Note_on_c, 0, 69, 0
2, 125220, Note_on_c, 0, 64, 127
2, 125280, Note_on_c, 0, 64, 0
2, 125280, Note_on_c, 0, 71, 127
2, 125340, Note_on_c, 0, 71, 0
2, 125340, Note_on_c, 0, 64, 127
2, 125400, Note_on_c, 0, 64, 0
2, 125400, Note_on_c, 0, 72, 127
2, 125460, Note_on_c, 0, 72, 0
2, 125460, Note_on_c, 0, 71, 127
2, 125520, Note_on_c, 0, 71, 0
2, 125520, Note_on_c, 0, 72, 127
2, 125580, Note_on_c, 0, 72, 0
2, 125580, Note_on_c, 0, 64, 127
2, 125640, Note_on_c, 0, 64, 0
2, 125640, Note_on_c, 0, 74, 127
2, 125700, Note_on_c, 0, 74, 0
2, 125700, Note_on_c, 0, 64, 127
2, 125760, Note_on_c, 0, 64, 0
2, 125760, Note_on_c, 0, 76, 127
2, 125820, Note_on_c, 0, 76, 0
2, 125820, Note_on_c, 0, 77, 127
2, 125880, Note_on_c, 0, 77, 0
2, 125880, Note_on_c, 0, 76, 127
2, 125940, Note_on_c, 0, 76, 0
2, 125940, Note_on_c, 0, 74, 127
2, 126000, Note_on_c, 0, 74, 0
2, 126000, Note_on_c, 0, 72, 127
2, 126060, Note_on_c, 0, 72, 0
2, 126060, Note_on_c, 0, 71, 127
2, 126120, Note_on_c, 0, 71, 0
2, 126120, Note_on_c, 0, 72, 127
2, 126180, Note_on_c, 0, 72, 0
2, 126180, Note_on_c, 0, 74, 127
2, 126240, Note_on_c, 0, 74, 0
2, 126240, Note_on_c, 0, 72, 127
2, 126300, Note_on_c, 0, 72, 0
2, 126300, Note_on_c, 0, 71, 127
2, 126360, Note_on_c, 0, 71, 0
2, 126360, Note_on_c, 0, 72, 127
2, 126420, Note_on_c, 0, 72, 0
2, 126420, Note_on_c, 0, 69, 127
2, 126480, Note_on_c, 0, 69, 0
2, 126480, Note_on_c, 0, 77, 127
2, 126540, Note_on_c, 0, 77, 0
2, 126540, Note_on_c, 0, 79, 127
2, 126600, Note_on_c, 0, 79, 0
2, 126600, Note_on_c, 0, 77, 127
2, 126660, Note_on_c, 0, 77, 0
2, 126660, Note_on_c, 0, 76, 127
2, 126720, Note_on_c, 0, 76, 0
2, 126720, Note_on_c, 0, 74, 127
2, 126780, Note_on_c, 0, 74, 0
2, 126780, Note_on_c, 0, 72, 127
2, 126840, Note_on_c, 0, 72, 0
2, 126840, Note_on_c, 0, 71, 127
2, 126900, Note_on_c, 0, 71, 0
2, 126900, Note_on_c, 0, 72, 127
2, 126960, Note_on_c, 0, 72, 0
2, 126960, Note_on_c, 0, 71, 127
2, 127020, Note_on_c, 0, 71, 0
2, 127020, Note_on_c, 0, 69, 127
2, 127080, Note_on_c, 0, 69, 0
2, 127080, Note_on_c, 0, 71, 127
2, 127140, Note_on_c, 0, 71, 0
2, 127140, Note_on_c, 0, 67, 127
2, 127200, Note_on_c, 0, 67, 0
2, 127200, Note_on_c, 0, 79, 127
2, 127260, Note_on_c, 0, 79, 0
2, 127260, Note_on_c, 0, 81, 127
2, 127320, Note_on_c, 0, 81, 0
2, 127320, Note_on_c, 0, 79, 127
2, 127380, Note_on_c, 0, 79, 0
2, 127380, Note_on_c, 0, 77, 127
2, 127440, Note_on_c, 0, 77, 0
2, 127440, Note_on_c, 0, 76, 127
2, 127500, Note_on_c, 0, 76, 0
2, 127500, Note_on_c, 0, 74, 127
2, 127560, Note_on_c, 0, 74, 0
2, 127560, Note_on_c, 0, 76, 127
2, 127620, Note_on_c, 0, 76, 0
2, 127620, Note_on_c, 0, 77, 127
2, 127680, Note_on_c, 0, 77, 0
2, 127680, Note_on_c, 0, 76, 127
2, 127740, Note_on_c, 0, 76, 0
2, 127740, Note_on_c, 0, 74, 127
2, 127800, Note_on_c, 0, 74, 0
2, 127800, Note_on_c, 0, 72, 127
2, 127860, Note_on_c, 0, 72, 0
2, 127860, Note_on_c, 0, 71, 127
2, 127920, Note_on_c, 0, 71, 0
2, 127920, Note_on_c, 0, 72, 127
2, 127980, Note_on_c, 0, 72, 0
2, 127980, Note_on_c, 0, 74, 127
2, 128040, Note_on_c, 0, 74, 0
2, 128040, Note_on_c, 0, 72, 127
2, 128100, Note_on_c, 0, 72, 0
2, 128100, Note_on_c, 0, 71, 127
2, 128160, Note_on_c, 0, 71, 0
2, 128160, Note_on_c, 0, 69, 127
2, 128220, Note_on_c, 0, 69, 0
2, 128220, Note_on_c, 0, 68, 127
2, 128280, Note_on_c, 0, 68, 0
2, 128280, Note_on_c, 0, 69, 127
2, 128340, Note_on_c, 0, 69, 0
2, 128340, Note_on_c, 0, 71, 127
2, 128400, Note_on_c, 0, 71, 0
2, 128400, Note_on_c, 0, 69, 127
2, 128460, Note_on_c, 0, 69, 0
2, 128460, Note_on_c, 0, 67, 127
2, 128520, Note_on_c, 0, 67, 0
2, 128520, Note_on_c, 0, 66, 127
2, 128580, Note_on_c, 0, 66, 0
2, 128580, Note_on_c, 0, 64, 127
2, 128640, Note_on_c, 0, 64, 0
2, 128640, Note_on_c, 0, 63, 127
2, 128700, Note_on_c, 0, 63, 0
2, 128700, Note_on_c, 0, 66, 127
2, 128760, Note_on_c, 0, 66, 0
2, 128760, Note_on_c, 0, 71, 127
2, 129000, Note_on_c, 0, 71, 0
2, 129000, Note_on_c, 0, 71, 127
2, 129060, Note_on_c, 0, 71, 0
2, 129060, Note_on_c, 0, 64, 127
2, 129120, Note_on_c, 0, 64, 0
2, 129120, Note_on_c, 0, 76, 127
2, 129420, Note_on_c, 0, 76, 0
2, 129420, Note_on_c, 0, 69, 127
2, 129480, Note_on_c, 0, 69, 0
2, 129480, Note_on_c, 0, 81, 127
2, 129540, Note_on_c, 0, 81, 0
2, 129540, Note_on_c, 0, 79, 127
2, 129600, Note_on_c, 0, 79, 0
2, 129600, Note_on_c, 0, 78, 127
2, 129660, Note_on_c, 0, 78, 0
2, 129660, Note_on_c, 0, 76, 127
2, 129720, Note_on_c, 0, 76, 0
2, 129720, Note_on_c, 0, 75, 127
2, 130200, Note_on_c, 0, 75, 0
2, 130200, Note_on_c, 0, 76, 127
2, 130320, Note_on_c, 0, 76, 0
2, 130320, Note_on_c, 0, 74, 127
2, 130560, Note_on_c, 0, 74, 0
2, 130560, Note_on_c, 0, 72, 127
2, 130680, Note_on_c, 0, 72, 0
2, 130680, Note_on_c, 0, 71, 127
2, 130920, Note_on_c, 0, 71, 0
2, 130920, Note_on_c, 0, 69, 127
2, 131040, Note_on_c, 0, 69, 0
2, 131040, Note_on_c, 0, 67, 127
2, 131280, Note_on_c, 0, 67, 0
2, 131280, Note_on_c, 0, 65, 127
2, 131400, Note_on_c, 0, 65, 0
2, 131400, Note_on_c, 0, 64, 127
2, 131520, Note_on_c, 0, 64, 0
2, 131520, Note_on_c, 0, 63, 127
2, 131580, Note_on_c, 0, 63, 0
2, 131580, Note_on_c, 0, 66, 127
2, 131640, Note_on_c, 0, 66, 0
2, 131640, Note_on_c, 0, 69, 127
2, 131700, Note_on_c, 0, 69, 0
2, 131700, Note_on_c, 0, 72, 127
2, 131760, Note_on_c, 0, 72, 0
2, 131760, Note_on_c, 0, 71, 127
2, 131940, Note_on_c, 0, 71, 0
2, 131940, Note_on_c, 0, 69, 127
2, 132000, Note_on_c, 0, 69, 0
2, 132000, Note_on_c, 0, 67, 127
2, 132120, Note_on_c, 0, 67, 0
2, 132120, Note_on_c, 0, 66, 127
2, 132240, Note_on_c, 0, 66, 0
2, 132240, Note_on_c, 0, 64, 127
2, 132300, Note_on_c, 0, 64, 0
2, 132300, Note_on_c, 0, 66, 127
2, 132360, Note_on_c, 0, 66, 0
2, 132360, Note_on_c, 0, 67, 127
2, 132360, Note_on_c, 0, 71, 127
2, 132420, Note_on_c, 0, 67, 0
2, 132420, Note_on_c, 0, 66, 127
2, 132480, Note_on_c, 0, 66, 0
2, 132480, Note_on_c, 0, 71, 0
2, 132480, Note_on_c, 0, 67, 127
2, 132480, Note_on_c, 0, 76, 127
2, 132540, Note_on_c, 0, 67, 0
2, 132540, Note_on_c, 0, 64, 127
2, 132600, Note_on_c, 0, 64, 0
2, 132600, Note_on_c, 0, 66, 127
2, 132660, Note_on_c, 0, 66, 0
2, 132660, Note_on_c, 0, 59, 127
2, 132720, Note_on_c, 0, 59, 0
2, 132720, Note_on_c, 0, 76, 0
2, 132720, Note_on_c, 0, 63, 127
2, 132720, Note_on_c, 0, 75, 127
2, 132780, Note_on_c, 0, 75, 0
2, 132780, Note_on_c, 0, 63, 0
2, 132780, Note_on_c, 0, 66, 127
2, 132780, Note_on_c, 0, 73, 127
2, 132840, Note_on_c, 0, 73, 0
2, 132840, Note_on_c, 0, 66, 0
2, 132840, Note_on_c, 0, 71, 127
2, 132840, Note_on_c, 0, 75, 127
2, 132900, Note_on_c, 0, 71, 0
2, 132900, Note_on_c, 0, 66, 127
2, 132960, Note_on_c, 0, 66, 0
2, 132960, Note_on_c, 0, 75, 0
2, 132960, Note_on_c, 0, 67, 127
2, 132960, Note_on_c, 0, 76, 127
2, 133020, Note_on_c, 0, 76, 0
2, 133020, Note_on_c, 0, 78, 127
2, 133080, Note_on_c, 0, 78, 0
2, 133080, Note_on_c, 0, 67, 0
2, 133080, Note_on_c, 0, 59, 127
2, 133080, Note_on_c, 0, 79, 127
2, 133140, Note_on_c, 0, 79, 0
2, 133140, Note_on_c, 0, 78, 127
2, 133200, Note_on_c, 0, 78, 0
2, 133200, Note_on_c, 0, 59, 0
2, 133200, Note_on_c, 0, 64, 127
2, 133200, Note_on_c, 0, 79, 127
2, 133260, Note_on_c, 0, 79, 0
2, 133260, Note_on_c, 0, 76, 127
2, 133320, Note_on_c, 0, 76, 0
2, 133320, Note_on_c, 0, 64, 0
2, 133320, Note_on_c, 0, 64, 127
2, 133320, Note_on_c, 0, 78, 127
2, 133380, Note_on_c, 0, 78, 0
2, 133380, Note_on_c, 0, 71, 127
2, 133440, Note_on_c, 0, 71, 0
2, 133440, Note_on_c, 0, 64, 0
2, 133440, Note_on_c, 0, 63, 127
2, 133440, Note_on_c, 0, 75, 127
2, 133500, Note_on_c, 0, 75, 0
2, 133500, Note_on_c, 0, 63, 0
2, 133500, Note_on_c, 0, 61, 127
2, 133500, Note_on_c, 0, 78, 127
2, 133560, Note_on_c, 0, 78, 0
2, 133560, Note_on_c, 0, 61, 0
2, 133560, Note_on_c, 0, 63, 127
2, 133560, Note_on_c, 0, 81, 127
2, 133620, Note_on_c, 0, 81, 0
2, 133620, Note_on_c, 0, 78, 127
2, 133680, Note_on_c, 0, 78, 0
2, 133680, Note_on_c, 0, 63, 0
2, 133680, Note_on_c, 0, 64, 127
2, 133680, Note_on_c, 0, 79, 127
2, 133800, Note_on_c, 0, 64, 0
2, 133800, Note_on_c, 0, 71, 127
2, 133920, Note_on_c, 0, 71, 0
2, 133920, Note_on_c, 0, 79, 0
2, 133920, Note_on_c, 0, 76, 127
2, 133920, Note_on_c, 0, 83, 127
2, 134040, Note_on_c, 0, 83, 0
2, 134040, Note_on_c, 0, 81, 127
2, 134160, Note_on_c, 0, 81, 0
2, 134160, Note_on_c, 0, 76, 0
2, 134160, Note_on_c, 0, 75, 127
2, 134160, Note_on_c, 0, 78, 127
2, 134220, Note_on_c, 0, 75, 0
2, 134220, Note_on_c, 0, 73, 127
2, 134280, Note_on_c, 0, 73, 0
2, 134280, Note_on_c, 0, 75, 127
2, 134340, Note_on_c, 0, 75, 0
2, 134400, Note_on_c, 0, 78, 0
2, 134400, Note_on_c, 0, 76, 127
2, 134460, Note_on_c, 0, 64, 127
2, 134520, Note_on_c, 0, 64, 0
2, 134520, Note_on_c, 0, 67, 127
2, 134580, Note_on_c, 0, 67, 0
2, 134580, Note_on_c, 0, 71, 127
2, 134640, Note_on_c, 0, 71, 0
2, 134640, Note_on_c, 0, 76, 127
2, 134700, Note_on_c, 0, 76, 0
2, 134700, Note_on_c, 0, 71, 127
2, 134760, Note_on_c, 0, 71, 0
2, 134760, Note_on_c, 0, 72, 127
2, 134820, Note_on_c, 0, 72, 0
2, 134820, Note_on_c, 0, 71, 127
2, 134880, Note_on_c, 0, 71, 0
2, 134880, Note_on_c, 0, 72, 127
2, 134940, Note_on_c, 0, 72, 0
2, 134940, Note_on_c, 0, 69, 127
2, 135000, Note_on_c, 0, 69, 0
2, 135000, Note_on_c, 0, 72, 127
2, 135060, Note_on_c, 0, 72, 0
2, 135060, Note_on_c, 0, 67, 127
2, 135120, Note_on_c, 0, 67, 0
2, 135120, Note_on_c, 0, 76, 0
2, 135120, Note_on_c, 0, 72, 127
2, 135120, Note_on_c, 0, 74, 127
2, 135180, Note_on_c, 0, 72, 0
2, 135180, Note_on_c, 0, 69, 127
2, 135240, Note_on_c, 0, 69, 0
2, 135240, Note_on_c, 0, 72, 127
2, 135300, Note_on_c, 0, 72, 0
2, 135300, Note_on_c, 0, 66, 127
2, 135360, Note_on_c, 0, 66, 0
2, 135360, Note_on_c, 0, 72, 127
2, 135420, Note_on_c, 0, 72, 0
2, 135420, Note_on_c, 0, 62, 127
2, 135480, Note_on_c, 0, 62, 0
2, 135480, Note_on_c, 0, 71, 127
2, 135540, Note_on_c, 0, 71, 0
2, 135540, Note_on_c, 0, 69, 127
2, 135600, Note_on_c, 0, 69, 0
2, 135600, Note_on_c, 0, 71, 127
2, 135660, Note_on_c, 0, 71, 0
2, 135660, Note_on_c, 0, 67, 127
2, 135720, Note_on_c, 0, 67, 0
2, 135720, Note_on_c, 0, 71, 127
2, 135780, Note_on_c, 0, 71, 0
2, 135780, Note_on_c, 0, 66, 127
2, 135840, Note_on_c, 0, 66, 0
2, 135840, Note_on_c, 0, 74, 0
2, 135840, Note_on_c, 0, 72, 127
2, 135840, Note_on_c, 0, 71, 127
2, 135900, Note_on_c, 0, 71, 0
2, 135900, Note_on_c, 0, 67, 127
2, 135960, Note_on_c, 0, 67, 0
2, 135960, Note_on_c, 0, 71, 127
2, 136020, Note_on_c, 0, 71, 0
2, 136020, Note_on_c, 0, 64, 127
2, 136080, Note_on_c, 0, 64, 0
2, 136080, Note_on_c, 0, 71, 127
2, 136140, Note_on_c, 0, 71, 0
2, 136140, Note_on_c, 0, 60, 127
2, 136200, Note_on_c, 0, 60, 0
2, 136200, Note_on_c, 0, 69, 127
2, 136260, Note_on_c, 0, 69, 0
2, 136260, Note_on_c, 0, 67, 127
2, 136320, Note_on_c, 0, 67, 0
2, 136320, Note_on_c, 0, 69, 127
2, 136380, Note_on_c, 0, 69, 0
2, 136380, Note_on_c, 0, 66, 127
2, 136440, Note_on_c, 0, 66, 0
2, 136440, Note_on_c, 0, 69, 127
2, 136500, Note_on_c, 0, 69, 0
2, 136500, Note_on_c, 0, 64, 127
2, 136560, Note_on_c, 0, 64, 0
2, 136560, Note_on_c, 0, 72, 0
2, 136560, Note_on_c, 0, 71, 127
2, 136560, Note_on_c, 0, 69, 127
2, 136620, Note_on_c, 0, 69, 0
2, 136620, Note_on_c, 0, 66, 127
2, 136680, Note_on_c, 0, 66, 0
2, 136680, Note_on_c, 0, 69, 127
2, 136740, Note_on_c, 0, 69, 0
2, 136740, Note_on_c, 0, 63, 127
2, 136800, Note_on_c, 0, 63, 0
2, 136800, Note_on_c, 0, 69, 127
2, 136860, Note_on_c, 0, 69, 0
2, 136860, Note_on_c, 0, 59, 127
2, 136920, Note_on_c, 0, 59, 0
2, 136920, Note_on_c, 0, 67, 127
2, 137040, Note_on_c, 0, 67, 0
2, 137040, Note_on_c, 0, 71, 0
2, 137040, Note_on_c, 0, 67, 127
2, 137040, Note_on_c, 0, 64, 127
2, 137160, Note_on_c, 0, 64, 0
2, 137160, Note_on_c, 0, 67, 0
2, 137160, Note_on_c, 0, 76, 127
2, 137160, Note_on_c, 0, 67, 127
2, 137280, Note_on_c, 0, 67, 0
2, 137280, Note_on_c, 0, 76, 0
2, 137280, Note_on_c, 0, 73, 127
2, 137280, Note_on_c, 0, 64, 127
2, 137400, Note_on_c, 0, 64, 0
2, 137400, Note_on_c, 0, 73, 0
2, 137400, Note_on_c, 0, 69, 127
2, 137400, Note_on_c, 0, 61, 127
2, 137520, Note_on_c, 0, 61, 0
2, 137520, Note_on_c, 0, 69, 0
2, 137520, Note_on_c, 0, 73, 127
2, 137520, Note_on_c, 0, 64, 127
2, 137640, Note_on_c, 0, 64, 0
2, 137640, Note_on_c, 0, 73, 0
2, 137640, Note_on_c, 0, 74, 127
2, 137640, Note_on_c, 0, 65, 127
2, 137760, Note_on_c, 0, 65, 0
2, 137760, Note_on_c, 0, 74, 0
2, 137760, Note_on_c, 0, 69, 127
2, 137760, Note_on_c, 0, 62, 127
2, 137880, Note_on_c, 0, 62, 0
2, 137880, Note_on_c, 0, 69, 0
2, 137880, Note_on_c, 0, 74, 127
2, 137880, Note_on_c, 0, 65, 127
2, 138000, Note_on_c, 0, 65, 0
2, 138000, Note_on_c, 0, 74, 0
2, 138000, Note_on_c, 0, 71, 127
2, 138000, Note_on_c, 0, 62, 127
2, 138120, Note_on_c, 0, 62, 0
2, 138120, Note_on_c, 0, 71, 0
2, 138120, Note_on_c, 0, 67, 127
2, 138120, Note_on_c, 0, 59, 127
2, 138240, Note_on_c, 0, 59, 0
2, 138240, Note_on_c, 0, 67, 0
2, 138240, Note_on_c, 0, 71, 127
2, 138240, Note_on_c, 0, 62, 127
2, 138360, Note_on_c, 0, 62, 0
2, 138360, Note_on_c, 0, 71, 0
2, 138360, Note_on_c, 0, 72, 127
2, 138360, Note_on_c, 0, 64, 127
2, 138480, Note_on_c, 0, 64, 0
2, 138480, Note_on_c, 0, 72, 0
2, 138480, Note_on_c, 0, 76, 127
2, 138480, Note_on_c, 0, 67, 127
2, 138600, Note_on_c, 0, 67, 0
2, 138600, Note_on_c, 0, 76, 0
2, 138600, Note_on_c, 0, 72, 127
2, 138600, Note_on_c, 0, 64, 127
2, 138720, Note_on_c, 0, 64, 0
2, 138720, Note_on_c, 0, 72, 0
2, 138720, Note_on_c, 0, 69, 127
2, 138720, Note_on_c, 0, 60, 127
2, 138840, Note_on_c, 0, 60, 0
2, 138840, Note_on_c, 0, 69, 0
2, 138840, Note_on_c, 0, 65, 127
2, 138840, Note_on_c, 0, 57, 127
2, 138960, Note_on_c, 0, 57, 0
2, 138960, Note_on_c, 0, 65, 0
2, 138960, Note_on_c, 0, 69, 127
2, 138960, Note_on_c, 0, 60, 127
2, 139080, Note_on_c, 0, 60, 0
2, 139080, Note_on_c, 0, 69, 0
2, 139080, Note_on_c, 0, 71, 127
2, 139080, Note_on_c, 0, 62, 127
2, 139200, Note_on_c, 0, 62, 0
2, 139200, Note_on_c, 0, 71, 0
2, 139200, Note_on_c, 0, 74, 127
2, 139200, Note_on_c, 0, 65, 127
2, 139320, Note_on_c, 0, 65, 0
2, 139320, Note_on_c, 0, 74, 0
2, 139320, Note_on_c, 0, 71, 127
2, 139320, Note_on_c, 0, 62, 127
2, 139440, Note_on_c, 0, 62, 0
2, 139440, Note_on_c, 0, 71, 0
2, 139440, Note_on_c, 0, 68, 127
2, 139440, Note_on_c, 0, 59, 127
2, 139560, Note_on_c, 0, 59, 0
2, 139560, Note_on_c, 0, 68, 0
2, 139560, Note_on_c, 0, 56, 127
2, 139560, Note_on_c, 0, 64, 127
2, 139680, Note_on_c, 0, 64, 0
2, 139680, Note_on_c, 0, 56, 0
2, 139680, Note_on_c, 0, 59, 127
2, 139680, Note_on_c, 0, 68, 127
2, 139800, Note_on_c, 0, 68, 0
2, 139800, Note_on_c, 0, 59, 0
2, 139800, Note_on_c, 0, 69, 127
2, 139800, Note_on_c, 0, 60, 127
2, 140160, Note_on_c, 0, 60, 0
2, 140160, Note_on_c, 0, 62, 127
2, 140220, Note_on_c, 0, 69, 0
2, 140220, Note_on_c, 0, 71, 127
2, 140280, Note_on_c, 0, 71, 0
2, 140280, Note_on_c, 0, 72, 127
2, 140340, Note_on_c, 0, 72, 0
2, 140340, Note_on_c, 0, 74, 127
2, 140400, Note_on_c, 0, 74, 0
2, 140400, Note_on_c, 0, 62, 0
2, 140400, Note_on_c, 0, 76, 127
2, 140460, Note_on_c, 0, 76, 0
2, 140460, Note_on_c, 0, 77, 127
2, 140520, Note_on_c, 0, 77, 0
2, 140520, Note_on_c, 0, 68, 127
2, 140580, Note_on_c, 0, 68, 0
2, 140580, Note_on_c, 0, 69, 127
2, 140640, Note_on_c, 0, 69, 0
2, 140640, Note_on_c, 0, 68, 127
2, 140640, Note_on_c, 0, 71, 127
2, 140700, Note_on_c, 0, 71, 0
2, 140700, Note_on_c, 0, 72, 127
2, 140760, Note_on_c, 0, 72, 0
2, 140760, Note_on_c, 0, 68, 0
2, 140760, Note_on_c, 0, 69, 127
2, 140760, Note_on_c, 0, 74, 127
2, 140820, Note_on_c, 0, 74, 0
2, 140820, Note_on_c, 0, 76, 127
2, 140880, Note_on_c, 0, 76, 0
2, 140880, Note_on_c, 0, 69, 0
2, 140880, Note_on_c, 0, 77, 127
2, 140880, Note_on_c, 0, 71, 127
2, 140940, Note_on_c, 0, 77, 0
2, 140940, Note_on_c, 0, 76, 127
2, 141000, Note_on_c, 0, 76, 0
2, 141000, Note_on_c, 0, 74, 127
2, 141060, Note_on_c, 0, 74, 0
2, 141060, Note_on_c, 0, 77, 127
2, 141120, Note_on_c, 0, 77, 0
2, 141120, Note_on_c, 0, 71, 0
2, 141120, Note_on_c, 0, 76, 127
2, 141180, Note_on_c, 0, 76, 0
2, 141180, Note_on_c, 0, 74, 127
2, 141240, Note_on_c, 0, 74, 0
2, 141240, Note_on_c, 0, 72, 127
2, 141240, Note_on_c, 0, 64, 127
2, 141300, Note_on_c, 0, 72, 0
2, 141300, Note_on_c, 0, 76, 127
2, 141360, Note_on_c, 0, 76, 0
2, 141360, Note_on_c, 0, 64, 0
2, 141360, Note_on_c, 0, 74, 127
2, 141360, Note_on_c, 0, 69, 127
2, 141420, Note_on_c, 0, 74, 0
2, 141420, Note_on_c, 0, 72, 127
2, 141480, Note_on_c, 0, 72, 0
2, 141480, Note_on_c, 0, 69, 0
2, 141480, Note_on_c, 0, 71, 127
2, 141480, Note_on_c, 0, 65, 127
2, 141540, Note_on_c, 0, 71, 0
2, 141540, Note_on_c, 0, 69, 127
2, 141600, Note_on_c, 0, 69, 0
2, 141600, Note_on_c, 0, 65, 0
2, 141600, Note_on_c, 0, 68, 127
2, 141600, Note_on_c, 0, 65, 127
2, 141630, Note_on_c, 0, 68, 0
2, 141630, Note_on_c, 0, 67, 127
2, 141660, Note_on_c, 0, 67, 0
2, 141660, Note_on_c, 0, 65, 0
2, 141660, Note_on_c, 0, 68, 127
2, 141660, Note_on_c, 0, 64, 127
2, 141720, Note_on_c, 0, 64, 0
2, 141720, Note_on_c, 0, 62, 127
2, 141780, Note_on_c, 0, 62, 0
2, 141780, Note_on_c, 0, 65, 127
2, 141840, Note_on_c, 0, 65, 0
2, 141840, Note_on_c, 0, 64, 127
2, 141900, Note_on_c, 0, 64, 0
2, 141900, Note_on_c, 0, 69, 127
2, 141900, Note_on_c, 0, 62, 127
2, 141930, Note_on_c, 0, 69, 0
2, 141930, Note_on_c, 0, 68, 127
2, 141960, Note_on_c, 0, 68, 0
2, 141960, Note_on_c, 0, 62, 0
2, 141960, Note_on_c, 0, 68, 0
2, 141960, Note_on_c, 0, 69, 127
2, 141960, Note_on_c, 0, 60, 127
2, 142020, Note_on_c, 0, 60, 0
2, 142020, Note_on_c, 0, 64, 127
2, 142080, Note_on_c, 0, 64, 0
2, 142080, Note_on_c, 0, 62, 127
2, 142140, Note_on_c, 0, 62, 0
2, 142140, Note_on_c, 0, 60, 127
2, 142200, Note_on_c, 0, 60, 0
2, 142200, Note_on_c, 0, 59, 127
2, 142260, Note_on_c, 0, 59, 0
2, 142260, Note_on_c, 0, 69, 0
2, 142260, Note_on_c, 0, 57, 127
2, 142320, Note_on_c, 0, 57, 0
2, 142320, Note_on_c, 0, 55, 127
2, 142320, Note_on_c, 0, 71, 127
2, 142350, Note_on_c, 0, 71, 0
2, 142350, Note_on_c, 0, 70, 127
2, 142380, Note_on_c, 0, 70, 0
2, 142380, Note_on_c, 0, 71, 127
2, 142560, Note_on_c, 0, 55, 0
2, 142680, Note_on_c, 0, 71, 0
2, 142680, Note_on_c, 0, 69, 127
2, 142680, Note_on_c, 0, 72, 127
2, 142710, Note_on_c, 0, 72, 0
2, 142710, Note_on_c, 0, 71, 127
2, 142740, Note_on_c, 0, 71, 0
2, 142740, Note_on_c, 0, 72, 127
2, 142920, Note_on_c, 0, 69, 0
2, 143040, Note_on_c, 0, 72, 0
2, 143040, Note_on_c, 0, 71, 127
2, 143040, Note_on_c, 0, 74, 127
2, 143760, Note_on_c, 0, 74, 0
2, 143760, Note_on_c, 0, 72, 127
2, 144120, Note_on_c, 0, 71, 0
2, 144120, Note_on_c, 0, 69, 127
2, 144480, Note_on_c, 0, 69, 0
2, 144480, Note_on_c, 0, 72, 0
2, 144480, Note_on_c, 0, 69, 127
2, 144480, Note_on_c, 0, 71, 127
2, 144600, Note_on_c, 0, 69, 0
2, 144600, Note_on_c, 0, 68, 127
2, 144720, Note_on_c, 0, 68, 0
2, 144720, Note_on_c, 0, 69, 127
2, 144840, Note_on_c, 0, 69, 0
2, 144840, Note_on_c, 0, 71, 127
2, 144960, Note_on_c, 0, 71, 0
2, 144960, Note_on_c, 0, 72, 127
2, 145080, Note_on_c, 0, 72, 0
2, 145080, Note_on_c, 0, 74, 127
2, 145200, Note_on_c, 0, 74, 0
2, 145200, Note_on_c, 0, 72, 127
2, 145320, Note_on_c, 0, 72, 0
2, 145320, Note_on_c, 0, 71, 0
2, 145320, Note_on_c, 0, 69, 127
2, 145320, Note_on_c, 0, 74, 127
2, 145380, Note_on_c, 0, 69, 0
2, 145380, Note_on_c, 0, 68, 127
2, 145440, Note_on_c, 0, 68, 0
2, 145440, Note_on_c, 0, 74, 0
2, 145440, Note_on_c, 0, 69, 127
2, 145440, Note_on_c, 0, 76, 127
2, 145560, Note_on_c, 0, 76, 0
2, 145560, Note_on_c, 0, 69, 0
2, 145560, Note_on_c, 0, 74, 127
2, 145560, Note_on_c, 0, 77, 127
2, 145680, Note_on_c, 0, 77, 0
2, 145680, Note_on_c, 0, 74, 0
2, 145680, Note_on_c, 0, 71, 127
2, 145680, Note_on_c, 0, 76, 127
2, 145800, Note_on_c, 0, 76, 0
2, 145800, Note_on_c, 0, 74, 127
2, 145920, Note_on_c, 0, 74, 0
2, 145920, Note_on_c, 0, 72, 127
2, 146040, Note_on_c, 0, 71, 0
2, 146040, Note_on_c, 0, 64, 127
2, 146160, Note_on_c, 0, 64, 0
2, 146160, Note_on_c, 0, 69, 127
2, 146400, Note_on_c, 0, 72, 0
2, 146400, Note_on_c, 0, 81, 127
2, 146520, Note_on_c, 0, 81, 0
2, 146520, Note_on_c, 0, 72, 127
2, 146640, Note_on_c, 0, 72, 0
2, 146640, Note_on_c, 0, 69, 0
2, 146640, Note_on_c, 0, 67, 127
2, 146640, Note_on_c, 0, 71, 127
2, 147000, Note_on_c, 0, 71, 0
2, 147000, Note_on_c, 0, 70, 127
2, 147120, Note_on_c, 0, 70, 0
2, 147120, Note_on_c, 0, 79, 127
2, 147240, Note_on_c, 0, 79, 0
2, 147240, Note_on_c, 0, 70, 127
2, 147360, Note_on_c, 0, 70, 0
2, 147360, Note_on_c, 0, 67, 0
2, 147360, Note_on_c, 0, 65, 127
2, 147360, Note_on_c, 0, 69, 127
2, 147840, Note_on_c, 0, 69, 0
2, 147840, Note_on_c, 0, 77, 127
2, 147960, Note_on_c, 0, 77, 0
2, 147960, Note_on_c, 0, 69, 127
2, 148080, Note_on_c, 0, 69, 0
2, 148080, Note_on_c, 0, 65, 0
2, 148080, Note_on_c, 0, 64, 127
2, 148080, Note_on_c, 0, 68, 127
2, 148200, Note_on_c, 0, 68, 0
2, 148200, Note_on_c, 0, 76, 127
2, 148320, Note_on_c, 0, 76, 0
2, 148320, Note_on_c, 0, 68, 127
2, 148440, Note_on_c, 0, 68, 0
2, 148440, Note_on_c, 0, 64, 0
2, 148440, Note_on_c, 0, 64, 127
2, 148440, Note_on_c, 0, 69, 127
2, 148560, Note_on_c, 0, 69, 0
2, 148560, Note_on_c, 0, 76, 127
2, 148680, Note_on_c, 0, 76, 0
2, 148680, Note_on_c, 0, 64, 0
2, 148680, Note_on_c, 0, 66, 127
2, 148680, Note_on_c, 0, 69, 127
2, 148800, Note_on_c, 0, 69, 0
2, 148800, Note_on_c, 0, 66, 0
2, 148800, Note_on_c, 0, 68, 127
2, 148800, Note_on_c, 0, 71, 127
2, 148920, Note_on_c, 0, 71, 0
2, 148920, Note_on_c, 0, 76, 127
2, 149040, Note_on_c, 0, 76, 0
2, 149040, Note_on_c, 0, 68, 0
2, 149040, Note_on_c, 0, 68, 127
2, 149040, Note_on_c, 0, 71, 127
2, 149160, Note_on_c, 0, 71, 0
2, 149160, Note_on_c, 0, 68, 0
2, 149160, Note_on_c, 0, 69, 127
2, 149160, Note_on_c, 0, 72, 127
2, 149280, Note_on_c, 0, 72, 0
2, 149280, Note_on_c, 0, 78, 127
2, 149400, Note_on_c, 0, 78, 0
2, 149400, Note_on_c, 0, 69, 0
2, 149400, Note_on_c, 0, 69, 127
2, 149400, Note_on_c, 0, 72, 127
2, 149520, Note_on_c, 0, 72, 0
2, 149520, Note_on_c, 0, 69, 0
2, 149520, Note_on_c, 0, 71, 127
2, 149520, Note_on_c, 0, 74, 127
2, 149640, Note_on_c, 0, 74, 0
2, 149640, Note_on_c, 0, 71, 0
2, 149640, Note_on_c, 0, 74, 127
2, 149640, Note_on_c, 0, 77, 127
2, 149760, Note_on_c, 0, 77, 0
2, 149760, Note_on_c, 0, 74, 0
2, 149760, Note_on_c, 0, 72, 127
2, 149760, Note_on_c, 0, 76, 127
2, 149880, Note_on_c, 0, 76, 0
2, 149880, Note_on_c, 0, 72, 0
2, 149880, Note_on_c, 0, 69, 127
2, 149880, Note_on_c, 0, 72, 127
2, 150000, Note_on_c, 0, 72, 0
2, 150000, Note_on_c, 0, 69, 0
2, 150000, Note_on_c, 0, 72, 127
2, 150000, Note_on_c, 0, 76, 127
2, 150120, Note_on_c, 0, 76, 0
2, 150120, Note_on_c, 0, 72, 0
2, 150120, Note_on_c, 0, 69, 127
2, 150120, Note_on_c, 0, 72, 127
2, 150240, Note_on_c, 0, 72, 0
2, 150240, Note_on_c, 0, 69, 0
2, 150240, Note_on_c, 0, 68, 127
2, 150240, Note_on_c, 0, 71, 127
2, 150360, Note_on_c, 0, 71, 0
2, 150360, Note_on_c, 0, 74, 127
2, 150480, Note_on_c, 0, 74, 0
2, 150480, Note_on_c, 0, 68, 0
2, 150480, Note_on_c, 0, 68, 127
2, 150480, Note_on_c, 0, 71, 127
2, 150600, Note_on_c, 0, 71, 0
2, 150600, Note_on_c, 0, 68, 0
2, 150600, Note_on_c, 0, 66, 127
2, 150600, Note_on_c, 0, 69, 127
2, 150720, Note_on_c, 0, 69, 0
2, 150720, Note_on_c, 0, 72, 127
2, 150840, Note_on_c, 0, 72, 0
2, 150840, Note_on_c, 0, 66, 0
2, 150840, Note_on_c, 0, 66, 127
2, 150840, Note_on_c, 0, 69, 127
2, 150960, Note_on_c, 0, 69, 0
2, 150960, Note_on_c, 0, 66, 0
2, 150960, Note_on_c, 0, 65, 127
2, 150960, Note_on_c, 0, 68, 127
2, 151200, Note_on_c, 0, 68, 0
2, 151200, Note_on_c, 0, 65, 0
2, 151320, Note_on_c, 0, 64, 127
2, 151320, Note_on_c, 0, 71, 127
2, 151560, Note_on_c, 0, 71, 0
2, 151560, Note_on_c, 0, 64, 0
2, 151680, Note_on_c, 0, 68, 127
2, 151680, Note_on_c, 0, 71, 127
2, 151680, Note_on_c, 0, 74, 127
2, 151920, Note_on_c, 0, 74, 0
2, 151920, Note_on_c, 0, 71, 0
2, 151920, Note_on_c, 0, 68, 0
2, 152040, Note_on_c, 0, 68, 127
2, 152040, Note_on_c, 0, 71, 127
2, 152040, Note_on_c, 0, 74, 127
2, 152040, Note_on_c, 0, 77, 127
2, 152280, Note_on_c, 0, 77, 0
2, 152280, Note_on_c, 0, 68, 0
2, 152280, Note_on_c, 0, 71, 0
2, 152280, Note_on_c, 0, 74, 0
2, 152400, Note_on_c, 0, 69, 127
2, 152400, Note_on_c, 0, 72, 127
2, 152400, Note_on_c, 0, 76, 127
2, 152640, Note_on_c, 0, 76, 0
2, 152640, Note_on_c, 0, 72, 0
2, 152640, Note_on_c, 0, 69, 0
2, 156030, Note_on_c, 0, 81, 127
2, 156059, Note_on_c, 0, 81, 0
2, 156060, Note_on_c, 0, 83, 127
2, 156089, Note_on_c, 0, 83, 0
2, 156090, Note_on_c, 0, 84, 127
2, 156119, Note_on_c, 0, 84, 0
2, 156120, Note_on_c, 0, 83, 127
2, 156149, Note_on_c, 0, 83, 0
2, 156150, Note_on_c, 0, 81, 127
2, 156179, Note_on_c, 0, 81, 0
2, 156180, Note_on_c, 0, 80, 127
2, 156209, Note_on_c, 0, 80, 0
2, 156210, Note_on_c, 0, 81, 127
2, 156239, Note_on_c, 0, 81, 0
2, 156240, Note_on_c, 0, 78, 127
2, 156270, Note_on_c, 0, 78, 0
2, 156270, Note_on_c, 0, 81, 127
2, 156299, Note_on_c, 0, 81, 0
2, 156300, Note_on_c, 0, 83, 127
2, 156329, Note_on_c, 0, 83, 0
2, 156330, Note_on_c, 0, 84, 127
2, 156359, Note_on_c, 0, 84, 0
2, 156360, Note_on_c, 0, 75, 127
2, 156390, Note_on_c, 0, 75, 0
2, 156390, Note_on_c, 0, 81, 127
2, 156419, Note_on_c, 0, 81, 0
2, 156420, Note_on_c, 0, 83, 127
2, 156449, Note_on_c, 0, 83, 0
2, 156450, Note_on_c, 0, 84, 127
2, 156479, Note_on_c, 0, 84, 0
2, 156480, Note_on_c, 0, 83, 127
2, 156509, Note_on_c, 0, 83, 0
2, 156510, Note_on_c, 0, 81, 127
2, 156539, Note_on_c, 0, 81, 0
2, 156540, Note_on_c, 0, 80, 127
2, 156569, Note_on_c, 0, 80, 0
2, 156570, Note_on_c, 0, 81, 127
2, 156599, Note_on_c, 0, 81, 0
2, 156600, Note_on_c, 0, 75, 127
2, 156630, Note_on_c, 0, 75, 0
2, 156630, Note_on_c, 0, 78, 127
2, 156659, Note_on_c, 0, 78, 0
2, 156660, Note_on_c, 0, 80, 127
2, 156689, Note_on_c, 0, 80, 0
2, 156690, Note_on_c, 0, 81, 127
2, 156719, Note_on_c, 0, 81, 0
2, 156720, Note_on_c, 0, 72, 127
2, 156750, Note_on_c, 0, 72, 0
2, 156750, Note_on_c, 0, 81, 127
2, 156779, Note_on_c, 0, 81, 0
2, 156780, Note_on_c, 0, 83, 127
2, 156809, Note_on_c, 0, 83, 0
2, 156810, Note_on_c, 0, 84, 127
2, 156839, Note_on_c, 0, 84, 0
2, 156840, Note_on_c, 0, 83, 127
2, 156869, Note_on_c, 0, 83, 0
2, 156870, Note_on_c, 0, 81, 127
2, 156899, Note_on_c, 0, 81, 0
2, 156900, Note_on_c, 0, 80, 127
2, 156929, Note_on_c, 0, 80, 0
2, 156930, Note_on_c, 0, 81, 127
2, 156959, Note_on_c, 0, 81, 0
2, 156960, Note_on_c, 0, 72, 127
2, 156990, Note_on_c, 0, 72, 0
2, 156990, Note_on_c, 0, 75, 127
2, 157019, Note_on_c, 0, 75, 0
2, 157020, Note_on_c, 0, 76, 127
2, 157049, Note_on_c, 0, 76, 0
2, 157050, Note_on_c, 0, 78, 127
2, 157079, Note_on_c, 0, 78, 0
2, 157080, Note_on_c, 0, 69, 127
2, 157110, Note_on_c, 0, 69, 0
2, 157110, Note_on_c, 0, 81, 127
2, 157139, Note_on_c, 0, 81, 0
2, 157140, Note_on_c, 0, 83, 127
2, 157169, Note_on_c, 0, 83, 0
2, 157170, Note_on_c, 0, 84, 127
2, 157199, Note_on_c, 0, 84, 0
2, 157200, Note_on_c, 0, 83, 127
2, 157229, Note_on_c, 0, 83, 0
2, 157230, Note_on_c, 0, 81, 127
2, 157259, Note_on_c, 0, 81, 0
2, 157260, Note_on_c, 0, 80, 127
2, 157289, Note_on_c, 0, 80, 0
2, 157290, Note_on_c, 0, 81, 127
2, 157319, Note_on_c, 0, 81, 0
2, 157320, Note_on_c, 0, 78, 127
2, 157350, Note_on_c, 0, 78, 0
2, 157350, Note_on_c, 0, 81, 127
2, 157379, Note_on_c, 0, 81, 0
2, 157380, Note_on_c, 0, 83, 127
2, 157409, Note_on_c, 0, 83, 0
2, 157410, Note_on_c, 0, 84, 127
2, 157439, Note_on_c, 0, 84, 0
2, 157440, Note_on_c, 0, 75, 127
2, 157470, Note_on_c, 0, 75, 0
2, 157470, Note_on_c, 0, 78, 127
2, 157499, Note_on_c, 0, 78, 0
2, 157500, Note_on_c, 0, 79, 127
2, 157529, Note_on_c, 0, 79, 0
2, 157530, Note_on_c, 0, 81, 127
2, 157559, Note_on_c, 0, 81, 0
2, 157560, Note_on_c, 0, 72, 127
2, 157590, Note_on_c, 0, 72, 0
2, 157590, Note_on_c, 0, 75, 127
2, 157619, Note_on_c, 0, 75, 0
2, 157620, Note_on_c, 0, 76, 127
2, 157649, Note_on_c, 0, 76, 0
2, 157650, Note_on_c, 0, 78, 127
2, 157679, Note_on_c, 0, 78, 0
2, 157680, Note_on_c, 0, 69, 127
2, 157710, Note_on_c, 0, 69, 0
2, 157710, Note_on_c, 0, 72, 127
2, 157739, Note_on_c, 0, 72, 0
2, 157740, Note_on_c, 0, 71, 127
2, 157769, Note_on_c, 0, 71, 0
2, 157770, Note_on_c, 0, 69, 127
2, 157799, Note_on_c, 0, 69, 0
2, 157800, Note_on_c, 0, 68, 127
2, 157830, Note_on_c, 0, 68, 0
2, 157830, Note_on_c, 0, 71, 127
2, 157859, Note_on_c, 0, 71, 0
2, 157860, Note_on_c, 0, 72, 127
2, 157889, Note_on_c, 0, 72, 0
2, 157890, Note_on_c, 0, 74, 127
2, 157919, Note_on_c, 0, 74, 0
2, 157920, Note_on_c, 0, 72, 127
2, 157949, Note_on_c, 0, 72, 0
2, 157950, Note_on_c, 0, 71, 127
2, 157979, Note_on_c, 0, 71, 0
2, 157980, Note_on_c, 0, 69, 127
2, 158009, Note_on_c, 0, 69, 0
2, 158010, Note_on_c, 0, 71, 127
2, 158039, Note_on_c, 0, 71, 0
2, 158040, Note_on_c, 0, 68, 127
2, 158070, Note_on_c, 0, 68, 0
2, 158070, Note_on_c, 0, 71, 127
2, 158099, Note_on_c, 0, 71, 0
2, 158100, Note_on_c, 0, 72, 127
2, 158129, Note_on_c, 0, 72, 0
2, 158130, Note_on_c, 0, 74, 127
2, 158159, Note_on_c, 0, 74, 0
2, 158160, Note_on_c, 0, 65, 127
2, 158190, Note_on_c, 0, 65, 0
2, 158190, Note_on_c, 0, 71, 120
2, 158220, Note_on_c, 0, 71, 0
2, 158220, Note_on_c, 0, 72, 120
2, 158250, Note_on_c, 0, 72, 0
2, 158250, Note_on_c, 0, 74, 120
2, 158280, Note_on_c, 0, 74, 0
2, 158280, Note_on_c, 0, 72, 120
2, 158310, Note_on_c, 0, 72, 0
2, 158310, Note_on_c, 0, 71, 120
2, 158340, Note_on_c, 0, 71, 0
2, 158340, Note_on_c, 0, 69, 120
2, 158370, Note_on_c, 0, 69, 0
2, 158370, Note_on_c, 0, 71, 120
2, 158400, Note_on_c, 0, 71, 0
2, 158400, Note_on_c, 0, 65, 115
2, 158400, Note_on_c, 0, 68, 115
2, 158430, Note_on_c, 0, 71, 120
2, 158460, Note_on_c, 0, 71, 0
2, 158460, Note_on_c, 0, 68, 0
2, 158460, Note_on_c, 0, 65, 0
2, 158460, Note_on_c, 0, 72, 120
2, 158490, Note_on_c, 0, 72, 0
2, 158490, Note_on_c, 0, 74, 120
2, 158520, Note_on_c, 0, 74, 0
2, 158520, Note_on_c, 0, 62, 115
2, 158520, Note_on_c, 0, 65, 115
2, 158520, Note_on_c, 0, 68, 115
2, 158550, Note_on_c, 0, 71, 120
2, 158580, Note_on_c, 0, 71, 0
2, 158580, Note_on_c, 0, 72, 120
2, 158610, Note_on_c, 0, 72, 0
2, 158610, Note_on_c, 0, 74, 120
2, 158640, Note_on_c, 0, 74, 0
2, 158640, Note_on_c, 0, 62, 0
2, 158640, Note_on_c, 0, 65, 0
2, 158640, Note_on_c, 0, 68, 0
2, 158640, Note_on_c, 0, 72, 120
2, 158670, Note_on_c, 0, 72, 0
2, 158670, Note_on_c, 0, 71, 120
2, 158700, Note_on_c, 0, 71, 0
2, 158700, Note_on_c, 0, 69, 120
2, 158730, Note_on_c, 0, 69, 0
2, 158730, Note_on_c, 0, 71, 120
2, 158760, Note_on_c, 0, 71, 0
2, 158760, Note_on_c, 0, 62, 115
2, 158760, Note_on_c, 0, 65, 115
2, 158760, Note_on_c, 0, 68, 115
2, 158790, Note_on_c, 0, 71, 120
2, 158820, Note_on_c, 0, 71, 0
2, 158820, Note_on_c, 0, 62, 0
2, 158820, Note_on_c, 0, 65, 0
2, 158820, Note_on_c, 0, 68, 0
2, 158820, Note_on_c, 0, 72, 120
2, 158850, Note_on_c, 0, 72, 0
2, 158850, Note_on_c, 0, 74, 120
2, 158880, Note_on_c, 0, 74, 0
2, 158880, Note_on_c, 0, 59, 115
2, 158880, Note_on_c, 0, 62, 115
2, 158880, Note_on_c, 0, 65, 115
2, 158880, Note_on_c, 0, 68, 115
2, 158910, Note_on_c, 0, 71, 120
2, 158940, Note_on_c, 0, 71, 0
2, 158940, Note_on_c, 0, 72, 120
2, 158970, Note_on_c, 0, 72, 0
2, 158970, Note_on_c, 0, 74, 120
2, 159000, Note_on_c, 0, 74, 0
2, 159000, Note_on_c, 0, 65, 0
2, 159000, Note_on_c, 0, 59, 0
2, 159000, Note_on_c, 0, 62, 0
2, 159000, Note_on_c, 0, 68, 0
2, 159000, Note_on_c, 0, 72, 120
2, 159030, Note_on_c, 0, 72, 0
2, 159030, Note_on_c, 0, 71, 120
2, 159060, Note_on_c, 0, 71, 0
2, 159060, Note_on_c, 0, 69, 120
2, 159090, Note_on_c, 0, 69, 0
2, 159090, Note_on_c, 0, 71, 120
2, 159120, Note_on_c, 0, 71, 0
2, 159120, Note_on_c, 0, 59, 115
2, 159120, Note_on_c, 0, 62, 115
2, 159120, Note_on_c, 0, 65, 115
2, 159120, Note_on_c, 0, 68, 115
2, 159150, Note_on_c, 0, 71, 120
2, 159180, Note_on_c, 0, 71, 0
2, 159180, Note_on_c, 0, 65, 0
2, 159180, Note_on_c, 0, 59, 0
2, 159180, Note_on_c, 0, 62, 0
2, 159180, Note_on_c, 0, 68, 0
2, 159180, Note_on_c, 0, 72, 120
2, 159210, Note_on_c, 0, 72, 0
2, 159210, Note_on_c, 0, 74, 120
2, 159240, Note_on_c, 0, 74, 0
2, 159240, Note_on_c, 0, 56, 127
2, 159260, Note_on_c, 0, 56, 0
2, 159260, Note_on_c, 0, 59, 127
2, 159280, Note_on_c, 0, 59, 0
2, 159280, Note_on_c, 0, 64, 127
2, 159300, Note_on_c, 0, 64, 0
2, 159300, Note_on_c, 0, 63, 127
2, 159320, Note_on_c, 0, 63, 0
2, 159320, Note_on_c, 0, 71, 127
2, 159340, Note_on_c, 0, 71, 0
2, 159340, Note_on_c, 0, 65, 127
2, 159360, Note_on_c, 0, 65, 0
2, 159360, Note_on_c, 0, 56, 127
2, 159380, Note_on_c, 0, 56, 0
2, 159380, Note_on_c, 0, 59, 127
2, 159400, Note_on_c, 0, 59, 0
2, 159400, Note_on_c, 0, 64, 127
2, 159420, Note_on_c, 0, 64, 0
2, 159420, Note_on_c, 0, 63, 127
2, 159440, Note_on_c, 0, 63, 0
2, 159440, Note_on_c, 0, 71, 127
2, 159460, Note_on_c, 0, 71, 0
2, 159460, Note_on_c, 0, 65, 127
2, 159480, Note_on_c, 0, 65, 0
2, 159480, Note_on_c, 0, 56, 127
2, 159500, Note_on_c, 0, 56, 0
2, 159500, Note_on_c, 0, 59, 127
2, 159520, Note_on_c, 0, 59, 0
2, 159520, Note_on_c, 0, 64, 127
2, 159540, Note_on_c, 0, 64, 0
2, 159540, Note_on_c, 0, 63, 127
2, 159560, Note_on_c, 0, 63, 0
2, 159560, Note_on_c, 0, 71, 127
2, 159580, Note_on_c, 0, 71, 0
2, 159580, Note_on_c, 0, 65, 127
2, 159600, Note_on_c, 0, 65, 0
2, 159720, Note_on_c, 0, 60, 127
2, 159720, Note_on_c, 0, 64, 127
2, 159720, Note_on_c, 0, 69, 127
2, 159840, Note_on_c, 0, 69, 0
2, 159840, Note_on_c, 0, 64, 0
2, 159840, Note_on_c, 0, 60, 0
2, 159840, Note_on_c, 0, 62, 127
2, 159840, Note_on_c, 0, 59, 127
2, 159840, Note_on_c, 0, 64, 127
2, 159840, Note_on_c, 0, 68, 127
2, 159960, Note_on_c, 0, 68, 0
2, 159960, Note_on_c, 0, 62, 0
2, 159960, Note_on_c, 0, 59, 0
2, 159960, Note_on_c, 0, 64, 0
2, 159960, Note_on_c, 0, 60, 127
2, 159960, Note_on_c, 0, 64, 127
2, 159960, Note_on_c, 0, 69, 127
2, 160320, Note_on_c, 0, 69, 0
2, 160320, Note_on_c, 0, 64, 0
2, 160320, Note_on_c, 0, 60, 0
2, 160320, End_track
3, 0, Start_track
3, 0, MIDI_port, 0
3, 0, Title_t, "--------------------------------------"
3, 0, Program_c, 1, 19
3, 0, Control_c, 1, 7, 100
3, 0, Control_c, 1, 10, 64
3, 22080, Note_on_c, 1, 57, 127
3, 23040, Note_on_c, 1, 57, 0
3, 23040, Note_on_c, 1, 59, 80
3, 23424, Note_on_c, 1, 59, 0
3, 27180, Note_on_c, 1, 64, 127
3, 27240, Note_on_c, 1, 64, 0
3, 27240, Note_on_c, 1, 65, 127
3, 27300, Note_on_c, 1, 65, 0
3, 27300, Note_on_c, 1, 61, 127
3, 27360, Note_on_c, 1, 61, 0
3, 27360, Note_on_c, 1, 62, 127
3, 27420, Note_on_c, 1, 57, 127
3, 27480, Note_on_c, 1, 57, 0
3, 27480, Note_on_c, 1, 58, 127
3, 27540, Note_on_c, 1, 58, 0
3, 27540, Note_on_c, 1, 55, 127
3, 27600, Note_on_c, 1, 55, 0
3, 27600, Note_on_c, 1, 57, 127
3, 27840, Note_on_c, 1, 57, 0
3, 27840, Note_on_c, 1, 62, 0
3, 29280, Note_on_c, 1, 45, 127
3, 29400, Note_on_c, 1, 45, 0
3, 29400, Note_on_c, 1, 52, 127
3, 29520, Note_on_c, 1, 52, 0
3, 29520, Note_on_c, 1, 57, 127
3, 29640, Note_on_c, 1, 57, 0
3, 29640, Note_on_c, 1, 59, 127
3, 29760, Note_on_c, 1, 59, 0
3, 35520, Note_on_c, 1, 60, 127
3, 35580, Note_on_c, 1, 60, 0
3, 35580, Note_on_c, 1, 64, 127
3, 35640, Note_on_c, 1, 64, 0
3, 35640, Note_on_c, 1, 67, 127
3, 35700, Note_on_c, 1, 67, 0
3, 35700, Note_on_c, 1, 64, 127
3, 35760, Note_on_c, 1, 64, 0
3, 35760, Note_on_c, 1, 70, 127
3, 35820, Note_on_c, 1, 70, 0
3, 35820, Note_on_c, 1, 64, 127
3, 35880, Note_on_c, 1, 64, 0
3, 35880, Note_on_c, 1, 67, 127
3, 35940, Note_on_c, 1, 67, 0
3, 35940, Note_on_c, 1, 64, 127
3, 36000, Note_on_c, 1, 64, 0
3, 36000, Note_on_c, 1, 69, 127
3, 36060, Note_on_c, 1, 69, 0
3, 36060, Note_on_c, 1, 62, 127
3, 36120, Note_on_c, 1, 62, 0
3, 36120, Note_on_c, 1, 65, 127
3, 36180, Note_on_c, 1, 65, 0
3, 36180, Note_on_c, 1, 62, 127
3, 36240, Note_on_c, 1, 62, 0
3, 36240, Note_on_c, 1, 67, 127
3, 36300, Note_on_c, 1, 67, 0
3, 36300, Note_on_c, 1, 60, 127
3, 36360, Note_on_c, 1, 60, 0
3, 36360, Note_on_c, 1, 64, 127
3, 36420, Note_on_c, 1, 64, 0
3, 36420, Note_on_c, 1, 60, 127
3, 36480, Note_on_c, 1, 60, 0
3, 37020, Note_on_c, 1, 50, 127
3, 37080, Note_on_c, 1, 50, 0
3, 37080, Note_on_c, 1, 53, 127
3, 37140, Note_on_c, 1, 53, 0
3, 37140, Note_on_c, 1, 50, 127
3, 37200, Note_on_c, 1, 50, 0
3, 37200, Note_on_c, 1, 56, 127
3, 37260, Note_on_c, 1, 56, 0
3, 37260, Note_on_c, 1, 56, 127
3, 37320, Note_on_c, 1, 56, 0
3, 37320, Note_on_c, 1, 59, 127
3, 37380, Note_on_c, 1, 59, 0
3, 37380, Note_on_c, 1, 56, 127
3, 37440, Note_on_c, 1, 56, 0
3, 37440, Note_on_c, 1, 57, 127
3, 38160, Note_on_c, 1, 57, 0
3, 41820, Note_on_c, 1, 57, 127
3, 41880, Note_on_c, 1, 57, 0
3, 41880, Note_on_c, 1, 55, 127
3, 41940, Note_on_c, 1, 55, 0
3, 41940, Note_on_c, 1, 57, 127
3, 42000, Note_on_c, 1, 57, 0
3, 42000, Note_on_c, 1, 50, 127
3, 42060, Note_on_c, 1, 50, 0
3, 42060, Note_on_c, 1, 62, 127
3, 42120, Note_on_c, 1, 62, 0
3, 42120, Note_on_c, 1, 55, 127
3, 42180, Note_on_c, 1, 55, 0
3, 42180, Note_on_c, 1, 59, 127
3, 42240, Note_on_c, 1, 59, 0
3, 42240, Note_on_c, 1, 60, 127
3, 42300, Note_on_c, 1, 60, 0
3, 42300, Note_on_c, 1, 52, 127
3, 42360, Note_on_c, 1, 52, 0
3, 42360, Note_on_c, 1, 50, 127
3, 42420, Note_on_c, 1, 50, 0
3, 42420, Note_on_c, 1, 52, 127
3, 42480, Note_on_c, 1, 52, 0
3, 42480, Note_on_c, 1, 53, 127
3, 42600, Note_on_c, 1, 53, 0
3, 42600, Note_on_c, 1, 53, 127
3, 42720, Note_on_c, 1, 53, 0
3, 42720, Note_on_c, 1, 53, 127
3, 42840, Note_on_c, 1, 53, 0
3, 42840, Note_on_c, 1, 59, 127
3, 42840, Note_on_c, 1, 53, 127
3, 42960, Note_on_c, 1, 53, 0
3, 42960, Note_on_c, 1, 59, 0
3, 42960, Note_on_c, 1, 59, 127
3, 42960, Note_on_c, 1, 52, 127
3, 43080, Note_on_c, 1, 52, 0
3, 43080, Note_on_c, 1, 59, 0
3, 43080, Note_on_c, 1, 59, 127
3, 43080, Note_on_c, 1, 52, 127
3, 43200, Note_on_c, 1, 52, 0
3, 43200, Note_on_c, 1, 59, 0
3, 43200, Note_on_c, 1, 57, 127
3, 43200, Note_on_c, 1, 52, 127
3, 43440, Note_on_c, 1, 52, 0
3, 43440, Note_on_c, 1, 57, 0
3, 45420, Note_on_c, 1, 64, 127
3, 45480, Note_on_c, 1, 64, 0
3, 45480, Note_on_c, 1, 62, 127
3, 45540, Note_on_c, 1, 62, 0
3, 45540, Note_on_c, 1, 64, 127
3, 45600, Note_on_c, 1, 64, 0
3, 45600, Note_on_c, 1, 60, 127
3, 45780, Note_on_c, 1, 60, 0
3, 45780, Note_on_c, 1, 59, 127
3, 45810, Note_on_c, 1, 59, 0
3, 45810, Note_on_c, 1, 57, 127
3, 45840, Note_on_c, 1, 57, 0
3, 45840, Note_on_c, 1, 59, 127
3, 46020, Note_on_c, 1, 59, 0
3, 46020, Note_on_c, 1, 62, 127
3, 46080, Note_on_c, 1, 62, 0
3, 46620, Note_on_c, 1, 69, 127
3, 46680, Note_on_c, 1, 69, 0
3, 46680, Note_on_c, 1, 67, 127
3, 46740, Note_on_c, 1, 67, 0
3, 46740, Note_on_c, 1, 69, 127
3, 46800, Note_on_c, 1, 69, 0
3, 46800, Note_on_c, 1, 65, 127
3, 46980, Note_on_c, 1, 65, 0
3, 46980, Note_on_c, 1, 64, 127
3, 47010, Note_on_c, 1, 64, 0
3, 47010, Note_on_c, 1, 62, 127
3, 47040, Note_on_c, 1, 62, 0
3, 47040, Note_on_c, 1, 64, 127
3, 47220, Note_on_c, 1, 64, 0
3, 47220, Note_on_c, 1, 67, 127
3, 47280, Note_on_c, 1, 67, 0
3, 47280, Note_on_c, 1, 65, 127
3, 47580, Note_on_c, 1, 65, 0
3, 47580, Note_on_c, 1, 64, 127
3, 47640, Note_on_c, 1, 64, 0
3, 47640, Note_on_c, 1, 65, 127
3, 47700, Note_on_c, 1, 65, 0
3, 47700, Note_on_c, 1, 64, 127
3, 47760, Note_on_c, 1, 64, 0
3, 47760, Note_on_c, 1, 65, 127
3, 48060, Note_on_c, 1, 65, 0
3, 48060, Note_on_c, 1, 64, 127
3, 48120, Note_on_c, 1, 64, 0
3, 48120, Note_on_c, 1, 65, 127
3, 48180, Note_on_c, 1, 65, 0
3, 48180, Note_on_c, 1, 64, 127
3, 48240, Note_on_c, 1, 64, 0
3, 48240, Note_on_c, 1, 65, 127
3, 48540, Note_on_c, 1, 65, 0
3, 48540, Note_on_c, 1, 64, 127
3, 48600, Note_on_c, 1, 64, 0
3, 48600, Note_on_c, 1, 65, 127
3, 48660, Note_on_c, 1, 65, 0
3, 48660, Note_on_c, 1, 67, 127
3, 48720, Note_on_c, 1, 67, 0
3, 48720, Note_on_c, 1, 69, 127
3, 49200, Note_on_c, 1, 69, 0
3, 49200, Note_on_c, 1, 62, 127
3, 49320, Note_on_c, 1, 62, 0
3, 49320, Note_on_c, 1, 61, 127
3, 49440, Note_on_c, 1, 61, 0
3, 49440, Note_on_c, 1, 69, 127
3, 49680, Note_on_c, 1, 69, 0
3, 49740, Note_on_c, 1, 65, 127
3, 49800, Note_on_c, 1, 65, 0
3, 49800, Note_on_c, 1, 64, 127
3, 49860, Note_on_c, 1, 64, 0
3, 49860, Note_on_c, 1, 62, 127
3, 49920, Note_on_c, 1, 62, 0
3, 49920, Note_on_c, 1, 61, 127
3, 50040, Note_on_c, 1, 61, 0
3, 50040, Note_on_c, 1, 62, 127
3, 50100, Note_on_c, 1, 62, 0
3, 50100, Note_on_c, 1, 64, 127
3, 50160, Note_on_c, 1, 64, 0
3, 50160, Note_on_c, 1, 65, 127
3, 50220, Note_on_c, 1, 65, 0
3, 50220, Note_on_c, 1, 62, 127
3, 50280, Note_on_c, 1, 62, 0
3, 50280, Note_on_c, 1, 61, 127
3, 50340, Note_on_c, 1, 61, 0
3, 50340, Note_on_c, 1, 59, 127
3, 50400, Note_on_c, 1, 59, 0
3, 50400, Note_on_c, 1, 64, 114
3, 50400, Note_on_c, 1, 61, 114
3, 50400, Note_on_c, 1, 57, 114
3, 50880, Note_on_c, 1, 57, 0
3, 50880, Note_on_c, 1, 61, 0
3, 50880, Note_on_c, 1, 64, 0
3, 61680, Note_on_c, 1, 57, 115
3, 61800, Note_on_c, 1, 57, 0
3, 61800, Note_on_c, 1, 60, 115
3, 61860, Note_on_c, 1, 60, 0
3, 61860, Note_on_c, 1, 59, 115
3, 61920, Note_on_c, 1, 59, 0
3, 61920, Note_on_c, 1, 60, 115
3, 61980, Note_on_c, 1, 60, 0
3, 61980, Note_on_c, 1, 57, 115
3, 62040, Note_on_c, 1, 57, 0
3, 62040, Note_on_c, 1, 59, 115
3, 62130, Note_on_c, 1, 59, 0
3, 62160, Note_on_c, 1, 52, 115
3, 62220, Note_on_c, 1, 52, 0
3, 62220, Note_on_c, 1, 59, 115
3, 62280, Note_on_c, 1, 59, 0
3, 62280, Note_on_c, 1, 64, 115
3, 62340, Note_on_c, 1, 64, 0
3, 62340, Note_on_c, 1, 59, 115
3, 62400, Note_on_c, 1, 59, 0
3, 62400, Note_on_c, 1, 60, 115
3, 62490, Note_on_c, 1, 60, 0
3, 62520, Note_on_c, 1, 57, 115
3, 62640, Note_on_c, 1, 57, 0
3, 62640, Note_on_c, 1, 64, 115
3, 62760, Note_on_c, 1, 64, 0
3, 62760, Note_on_c, 1, 65, 115
3, 62820, Note_on_c, 1, 65, 0
3, 62820, Note_on_c, 1, 64, 115
3, 62880, Note_on_c, 1, 64, 0
3, 62880, Note_on_c, 1, 65, 115
3, 62940, Note_on_c, 1, 65, 0
3, 62940, Note_on_c, 1, 62, 115
3, 63000, Note_on_c, 1, 62, 0
3, 63000, Note_on_c, 1, 65, 115
3, 63060, Note_on_c, 1, 65, 0
3, 63060, Note_on_c, 1, 60, 115
3, 63120, Note_on_c, 1, 60, 0
3, 63120, Note_on_c, 1, 65, 115
3, 63180, Note_on_c, 1, 65, 0
3, 63180, Note_on_c, 1, 62, 115
3, 63240, Note_on_c, 1, 62, 0
3, 63240, Note_on_c, 1, 65, 115
3, 63300, Note_on_c, 1, 65, 0
3, 63300, Note_on_c, 1, 59, 115
3, 63360, Note_on_c, 1, 59, 0
3, 63360, Note_on_c, 1, 65, 115
3, 63420, Note_on_c, 1, 65, 0
3, 63420, Note_on_c, 1, 55, 115
3, 63480, Note_on_c, 1, 55, 0
3, 63480, Note_on_c, 1, 64, 115
3, 63540, Note_on_c, 1, 64, 0
3, 63540, Note_on_c, 1, 62, 115
3, 63600, Note_on_c, 1, 62, 0
3, 63600, Note_on_c, 1, 64, 115
3, 63660, Note_on_c, 1, 64, 0
3, 63660, Note_on_c, 1, 60, 115
3, 63720, Note_on_c, 1, 60, 0
3, 63720, Note_on_c, 1, 64, 115
3, 63780, Note_on_c, 1, 64, 0
3, 63780, Note_on_c, 1, 59, 115
3, 63840, Note_on_c, 1, 59, 0
3, 63840, Note_on_c, 1, 64, 115
3, 63900, Note_on_c, 1, 64, 0
3, 63900, Note_on_c, 1, 60, 115
3, 63960, Note_on_c, 1, 60, 0
3, 63960, Note_on_c, 1, 64, 115
3, 64020, Note_on_c, 1, 64, 0
3, 64020, Note_on_c, 1, 57, 115
3, 64080, Note_on_c, 1, 57, 0
3, 64080, Note_on_c, 1, 64, 115
3, 64140, Note_on_c, 1, 64, 0
3, 64140, Note_on_c, 1, 53, 115
3, 64200, Note_on_c, 1, 53, 0
3, 64200, Note_on_c, 1, 62, 115
3, 64260, Note_on_c, 1, 62, 0
3, 64260, Note_on_c, 1, 60, 115
3, 64320, Note_on_c, 1, 60, 0
3, 64320, Note_on_c, 1, 62, 115
3, 64380, Note_on_c, 1, 62, 0
3, 64380, Note_on_c, 1, 59, 115
3, 64440, Note_on_c, 1, 59, 0
3, 64440, Note_on_c, 1, 62, 115
3, 64500, Note_on_c, 1, 62, 0
3, 64500, Note_on_c, 1, 57, 115
3, 64560, Note_on_c, 1, 57, 0
3, 64560, Note_on_c, 1, 62, 115
3, 64620, Note_on_c, 1, 62, 0
3, 64620, Note_on_c, 1, 59, 115
3, 64680, Note_on_c, 1, 59, 0
3, 64680, Note_on_c, 1, 62, 115
3, 64740, Note_on_c, 1, 62, 0
3, 64740, Note_on_c, 1, 56, 115
3, 64800, Note_on_c, 1, 56, 0
3, 64800, Note_on_c, 1, 62, 115
3, 64860, Note_on_c, 1, 62, 0
3, 64860, Note_on_c, 1, 52, 115
3, 64920, Note_on_c, 1, 52, 0
3, 64920, Note_on_c, 1, 62, 100
3, 64980, Note_on_c, 1, 62, 0
3, 64980, Note_on_c, 1, 60, 100
3, 65040, Note_on_c, 1, 60, 0
3, 65040, Note_on_c, 1, 62, 100
3, 65100, Note_on_c, 1, 62, 0
3, 65100, Note_on_c, 1, 56, 100
3, 65160, Note_on_c, 1, 56, 0
3, 65160, Note_on_c, 1, 57, 100
3, 65220, Note_on_c, 1, 57, 0
3, 65220, Note_on_c, 1, 62, 100
3, 65280, Note_on_c, 1, 62, 0
3, 65280, Note_on_c, 1, 64, 100
3, 65340, Note_on_c, 1, 64, 0
3, 65340, Note_on_c, 1, 59, 100
3, 65400, Note_on_c, 1, 59, 0
3, 65400, Note_on_c, 1, 60, 100
3, 65460, Note_on_c, 1, 60, 0
3, 65460, Note_on_c, 1, 64, 100
3, 65520, Note_on_c, 1, 64, 0
3, 65520, Note_on_c, 1, 69, 100
3, 65580, Note_on_c, 1, 69, 0
3, 65580, Note_on_c, 1, 66, 100
3, 65640, Note_on_c, 1, 66, 0
3, 65640, Note_on_c, 1, 67, 100
3, 65820, Note_on_c, 1, 67, 0
3, 65820, Note_on_c, 1, 69, 100
3, 65880, Note_on_c, 1, 69, 0
3, 65880, Note_on_c, 1, 67, 100
3, 65940, Note_on_c, 1, 67, 0
3, 65940, Note_on_c, 1, 66, 100
3, 66000, Note_on_c, 1, 66, 0
3, 66000, Note_on_c, 1, 67, 100
3, 66180, Note_on_c, 1, 67, 0
3, 66180, Note_on_c, 1, 63, 100
3, 66240, Note_on_c, 1, 63, 0
3, 66240, Note_on_c, 1, 64, 100
3, 66300, Note_on_c, 1, 64, 0
3, 66300, Note_on_c, 1, 59, 100
3, 66360, Note_on_c, 1, 59, 0
3, 66360, Note_on_c, 1, 61, 100
3, 66420, Note_on_c, 1, 61, 0
3, 66420, Note_on_c, 1, 55, 100
3, 66480, Note_on_c, 1, 55, 0
3, 66480, Note_on_c, 1, 57, 100
3, 66540, Note_on_c, 1, 57, 0
3, 66540, Note_on_c, 1, 61, 100
3, 66600, Note_on_c, 1, 61, 0
3, 66600, Note_on_c, 1, 64, 100
3, 66660, Note_on_c, 1, 64, 0
3, 66660, Note_on_c, 1, 62, 100
3, 66720, Note_on_c, 1, 62, 0
3, 66720, Note_on_c, 1, 61, 100
3, 66780, Note_on_c, 1, 61, 0
3, 66780, Note_on_c, 1, 64, 100
3, 66840, Note_on_c, 1, 64, 0
3, 66840, Note_on_c, 1, 69, 100
3, 66900, Note_on_c, 1, 69, 0
3, 66900, Note_on_c, 1, 67, 100
3, 66960, Note_on_c, 1, 67, 0
3, 66960, Note_on_c, 1, 65, 100
3, 67020, Note_on_c, 1, 65, 0
3, 67020, Note_on_c, 1, 64, 100
3, 67080, Note_on_c, 1, 64, 0
3, 67080, Note_on_c, 1, 62, 100
3, 67560, Note_on_c, 1, 62, 0
3, 67560, Note_on_c, 1, 60, 100
3, 67860, Note_on_c, 1, 60, 0
3, 67860, Note_on_c, 1, 60, 100
3, 67920, Note_on_c, 1, 60, 0
3, 67920, Note_on_c, 1, 59, 100
3, 67980, Note_on_c, 1, 59, 0
3, 67980, Note_on_c, 1, 57, 100
3, 68040, Note_on_c, 1, 57, 0
3, 68040, Note_on_c, 1, 59, 100
3, 68100, Note_on_c, 1, 59, 0
3, 68100, Note_on_c, 1, 56, 100
3, 68160, Note_on_c, 1, 56, 0
3, 68160, Note_on_c, 1, 57, 100
3, 68280, Note_on_c, 1, 57, 0
3, 68280, Note_on_c, 1, 60, 100
3, 68400, Note_on_c, 1, 60, 0
3, 68400, Note_on_c, 1, 57, 100
3, 68520, Note_on_c, 1, 57, 0
3, 68520, Note_on_c, 1, 62, 100
3, 68940, Note_on_c, 1, 62, 0
3, 68940, Note_on_c, 1, 62, 100
3, 69000, Note_on_c, 1, 62, 0
3, 69000, Note_on_c, 1, 60, 100
3, 69060, Note_on_c, 1, 60, 0
3, 69060, Note_on_c, 1, 59, 100
3, 69120, Note_on_c, 1, 59, 0
3, 69120, Note_on_c, 1, 60, 100
3, 69180, Note_on_c, 1, 60, 0
3, 69180, Note_on_c, 1, 57, 100
3, 69240, Note_on_c, 1, 57, 0
3, 69240, Note_on_c, 1, 59, 100
3, 69360, Note_on_c, 1, 59, 0
3, 69360, Note_on_c, 1, 60, 100
3, 69480, Note_on_c, 1, 60, 0
3, 69480, Note_on_c, 1, 55, 100
3, 69600, Note_on_c, 1, 55, 0
3, 69600, Note_on_c, 1, 57, 100
3, 69720, Note_on_c, 1, 57, 0
3, 69720, Note_on_c, 1, 59, 100
3, 70020, Note_on_c, 1, 59, 0
3, 70020, Note_on_c, 1, 59, 100
3, 70080, Note_on_c, 1, 59, 0
3, 70080, Note_on_c, 1, 64, 100
3, 70140, Note_on_c, 1, 64, 0
3, 70140, Note_on_c, 1, 63, 100
3, 70200, Note_on_c, 1, 63, 0
3, 70200, Note_on_c, 1, 64, 100
3, 70440, Note_on_c, 1, 64, 0
3, 70440, Note_on_c, 1, 63, 100
3, 70500, Note_on_c, 1, 63, 0
3, 70500, Note_on_c, 1, 61, 100
3, 70560, Note_on_c, 1, 61, 0
3, 70560, Note_on_c, 1, 63, 100
3, 70680, Note_on_c, 1, 63, 0
3, 70680, Note_on_c, 1, 63, 100
3, 70800, Note_on_c, 1, 63, 0
3, 70800, Note_on_c, 1, 64, 100
3, 70920, Note_on_c, 1, 64, 0
3, 70920, Note_on_c, 1, 62, 100
3, 71040, Note_on_c, 1, 62, 0
3, 71040, Note_on_c, 1, 64, 100
3, 71160, Note_on_c, 1, 64, 0
3, 71160, Note_on_c, 1, 66, 100
3, 71280, Note_on_c, 1, 66, 0
3, 71280, Note_on_c, 1, 67, 100
3, 71400, Note_on_c, 1, 67, 0
3, 71400, Note_on_c, 1, 69, 100
3, 71640, Note_on_c, 1, 69, 0
3, 71760, Note_on_c, 1, 62, 100
3, 71880, Note_on_c, 1, 62, 0
3, 71880, Note_on_c, 1, 64, 100
3, 72000, Note_on_c, 1, 64, 0
3, 72000, Note_on_c, 1, 66, 100
3, 72120, Note_on_c, 1, 66, 0
3, 72120, Note_on_c, 1, 67, 100
3, 72360, Note_on_c, 1, 67, 0
3, 72480, Note_on_c, 1, 64, 100
3, 72600, Note_on_c, 1, 64, 0
3, 72600, Note_on_c, 1, 62, 100
3, 72660, Note_on_c, 1, 62, 0
3, 72660, Note_on_c, 1, 60, 100
3, 72720, Note_on_c, 1, 60, 0
3, 72720, Note_on_c, 1, 59, 100
3, 72780, Note_on_c, 1, 59, 0
3, 72780, Note_on_c, 1, 57, 100
3, 72840, Note_on_c, 1, 57, 0
3, 72840, Note_on_c, 1, 63, 100
3, 73320, Note_on_c, 1, 63, 0
3, 73320, Note_on_c, 1, 64, 100
3, 73560, Note_on_c, 1, 64, 0
3, 73560, Note_on_c, 1, 64, 100
3, 73680, Note_on_c, 1, 64, 0
3, 73680, Note_on_c, 1, 64, 100
3, 73800, Note_on_c, 1, 64, 0
3, 73800, Note_on_c, 1, 64, 100
3, 73920, Note_on_c, 1, 64, 0
3, 73920, Note_on_c, 1, 62, 100
3, 74280, Note_on_c, 1, 62, 0
3, 74280, Note_on_c, 1, 62, 100
3, 74400, Note_on_c, 1, 62, 0
3, 74400, Note_on_c, 1, 62, 100
3, 74520, Note_on_c, 1, 62, 0
3, 74520, Note_on_c, 1, 62, 100
3, 74640, Note_on_c, 1, 62, 0
3, 74640, Note_on_c, 1, 60, 100
3, 75000, Note_on_c, 1, 60, 0
3, 75000, Note_on_c, 1, 60, 100
3, 75360, Note_on_c, 1, 60, 0
3, 75360, Note_on_c, 1, 59, 100
3, 76080, Note_on_c, 1, 59, 0
3, 88020, Note_on_c, 1, 54, 90
3, 88080, Note_on_c, 1, 54, 0
3, 88080, Note_on_c, 1, 55, 90
3, 88140, Note_on_c, 1, 55, 0
3, 88140, Note_on_c, 1, 51, 90
3, 88200, Note_on_c, 1, 51, 0
3, 88200, Note_on_c, 1, 52, 90
3, 88260, Note_on_c, 1, 52, 0
3, 88260, Note_on_c, 1, 46, 90
3, 88320, Note_on_c, 1, 46, 0
3, 88320, Note_on_c, 1, 47, 90
3, 88380, Note_on_c, 1, 47, 0
3, 88380, Note_on_c, 1, 51, 90
3, 88440, Note_on_c, 1, 51, 0
3, 88440, Note_on_c, 1, 54, 90
3, 88500, Note_on_c, 1, 54, 0
3, 88500, Note_on_c, 1, 60, 90
3, 88560, Note_on_c, 1, 60, 0
3, 88560, Note_on_c, 1, 57, 90
3, 88620, Note_on_c, 1, 57, 0
3, 88620, Note_on_c, 1, 54, 90
3, 88680, Note_on_c, 1, 54, 0
3, 88680, Note_on_c, 1, 55, 90
3, 88800, Note_on_c, 1, 55, 0
3, 88800, Note_on_c, 1, 52, 90
3, 88920, Note_on_c, 1, 52, 0
3, 88920, Note_on_c, 1, 59, 90
3, 89040, Note_on_c, 1, 59, 0
3, 89040, Note_on_c, 1, 60, 90
3, 89100, Note_on_c, 1, 60, 0
3, 89100, Note_on_c, 1, 59, 90
3, 89160, Note_on_c, 1, 59, 0
3, 89160, Note_on_c, 1, 60, 90
3, 89220, Note_on_c, 1, 60, 0
3, 89220, Note_on_c, 1, 57, 90
3, 89280, Note_on_c, 1, 57, 0
3, 89280, Note_on_c, 1, 60, 90
3, 89340, Note_on_c, 1, 60, 0
3, 89340, Note_on_c, 1, 55, 90
3, 89400, Note_on_c, 1, 55, 0
3, 89400, Note_on_c, 1, 60, 90
3, 89460, Note_on_c, 1, 60, 0
3, 89460, Note_on_c, 1, 57, 90
3, 89520, Note_on_c, 1, 57, 0
3, 89520, Note_on_c, 1, 60, 90
3, 89580, Note_on_c, 1, 60, 0
3, 89580, Note_on_c, 1, 54, 90
3, 89640, Note_on_c, 1, 54, 0
3, 89640, Note_on_c, 1, 60, 90
3, 89700, Note_on_c, 1, 60, 0
3, 89700, Note_on_c, 1, 50, 90
3, 89760, Note_on_c, 1, 50, 0
3, 89760, Note_on_c, 1, 59, 90
3, 89820, Note_on_c, 1, 59, 0
3, 89820, Note_on_c, 1, 57, 90
3, 89880, Note_on_c, 1, 57, 0
3, 89880, Note_on_c, 1, 59, 90
3, 89940, Note_on_c, 1, 59, 0
3, 89940, Note_on_c, 1, 55, 90
3, 90000, Note_on_c, 1, 55, 0
3, 90000, Note_on_c, 1, 59, 90
3, 90060, Note_on_c, 1, 59, 0
3, 90060, Note_on_c, 1, 54, 90
3, 90120, Note_on_c, 1, 54, 0
3, 90120, Note_on_c, 1, 59, 90
3, 90180, Note_on_c, 1, 59, 0
3, 90180, Note_on_c, 1, 55, 90
3, 90240, Note_on_c, 1, 55, 0
3, 90240, Note_on_c, 1, 59, 90
3, 90300, Note_on_c, 1, 59, 0
3, 90300, Note_on_c, 1, 52, 90
3, 90360, Note_on_c, 1, 52, 0
3, 90360, Note_on_c, 1, 59, 90
3, 90420, Note_on_c, 1, 59, 0
3, 90420, Note_on_c, 1, 48, 90
3, 90480, Note_on_c, 1, 48, 0
3, 90480, Note_on_c, 1, 57, 100
3, 90540, Note_on_c, 1, 57, 0
3, 90540, Note_on_c, 1, 55, 100
3, 90600, Note_on_c, 1, 55, 0
3, 90600, Note_on_c, 1, 57, 100
3, 90660, Note_on_c, 1, 57, 0
3, 90660, Note_on_c, 1, 54, 100
3, 90720, Note_on_c, 1, 54, 0
3, 90720, Note_on_c, 1, 57, 100
3, 90780, Note_on_c, 1, 57, 0
3, 90780, Note_on_c, 1, 52, 100
3, 90840, Note_on_c, 1, 52, 0
3, 90840, Note_on_c, 1, 57, 100
3, 90900, Note_on_c, 1, 57, 0
3, 90900, Note_on_c, 1, 54, 100
3, 90960, Note_on_c, 1, 54, 0
3, 90960, Note_on_c, 1, 57, 100
3, 91020, Note_on_c, 1, 57, 0
3, 91020, Note_on_c, 1, 51, 100
3, 91080, Note_on_c, 1, 51, 0
3, 91080, Note_on_c, 1, 57, 100
3, 91140, Note_on_c, 1, 57, 0
3, 91140, Note_on_c, 1, 47, 100
3, 91200, Note_on_c, 1, 47, 0
3, 91200, Note_on_c, 1, 55, 100
3, 91260, Note_on_c, 1, 55, 0
3, 91260, Note_on_c, 1, 54, 100
3, 91320, Note_on_c, 1, 54, 0
3, 91320, Note_on_c, 1, 55, 100
3, 91380, Note_on_c, 1, 55, 0
3, 91380, Note_on_c, 1, 57, 100
3, 91440, Note_on_c, 1, 57, 0
3, 91440, Note_on_c, 1, 59, 100
3, 91500, Note_on_c, 1, 59, 0
3, 91500, Note_on_c, 1, 55, 100
3, 91560, Note_on_c, 1, 55, 0
3, 91560, Note_on_c, 1, 57, 100
3, 91620, Note_on_c, 1, 57, 0
3, 91620, Note_on_c, 1, 55, 100
3, 91680, Note_on_c, 1, 55, 0
3, 91680, Note_on_c, 1, 57, 100
3, 91740, Note_on_c, 1, 57, 0
3, 91740, Note_on_c, 1, 59, 100
3, 91800, Note_on_c, 1, 59, 0
3, 91800, Note_on_c, 1, 60, 100
3, 91860, Note_on_c, 1, 60, 0
3, 91860, Note_on_c, 1, 57, 100
3, 91920, Note_on_c, 1, 57, 0
3, 91920, Note_on_c, 1, 62, 100
3, 91980, Note_on_c, 1, 62, 0
3, 91980, Note_on_c, 1, 60, 100
3, 92040, Note_on_c, 1, 60, 0
3, 92040, Note_on_c, 1, 62, 100
3, 92100, Note_on_c, 1, 62, 0
3, 92100, Note_on_c, 1, 50, 100
3, 92160, Note_on_c, 1, 50, 0
3, 92160, Note_on_c, 1, 54, 100
3, 92220, Note_on_c, 1, 54, 0
3, 92220, Note_on_c, 1, 50, 100
3, 92280, Note_on_c, 1, 50, 0
3, 92280, Note_on_c, 1, 55, 100
3, 92340, Note_on_c, 1, 55, 0
3, 92340, Note_on_c, 1, 54, 100
3, 92400, Note_on_c, 1, 54, 0
3, 92400, Note_on_c, 1, 55, 100
3, 92460, Note_on_c, 1, 55, 0
3, 92460, Note_on_c, 1, 57, 100
3, 92520, Note_on_c, 1, 57, 0
3, 92520, Note_on_c, 1, 59, 100
3, 92580, Note_on_c, 1, 59, 0
3, 92580, Note_on_c, 1, 55, 100
3, 92640, Note_on_c, 1, 55, 0
3, 92640, Note_on_c, 1, 60, 100
3, 92700, Note_on_c, 1, 60, 0
3, 92700, Note_on_c, 1, 59, 100
3, 92760, Note_on_c, 1, 59, 0
3, 92760, Note_on_c, 1, 60, 100
3, 92820, Note_on_c, 1, 60, 0
3, 92820, Note_on_c, 1, 48, 100
3, 92880, Note_on_c, 1, 48, 0
3, 92880, Note_on_c, 1, 52, 100
3, 92940, Note_on_c, 1, 52, 0
3, 92940, Note_on_c, 1, 48, 100
3, 93000, Note_on_c, 1, 48, 0
3, 93000, Note_on_c, 1, 54, 100
3, 93060, Note_on_c, 1, 54, 0
3, 93060, Note_on_c, 1, 52, 100
3, 93120, Note_on_c, 1, 52, 0
3, 93120, Note_on_c, 1, 54, 100
3, 93180, Note_on_c, 1, 54, 0
3, 93180, Note_on_c, 1, 55, 100
3, 93240, Note_on_c, 1, 55, 0
3, 93240, Note_on_c, 1, 57, 100
3, 93300, Note_on_c, 1, 57, 0
3, 93300, Note_on_c, 1, 54, 100
3, 93360, Note_on_c, 1, 54, 0
3, 93360, Note_on_c, 1, 59, 100
3, 93420, Note_on_c, 1, 59, 0
3, 93420, Note_on_c, 1, 57, 100
3, 93480, Note_on_c, 1, 57, 0
3, 93480, Note_on_c, 1, 59, 100
3, 93540, Note_on_c, 1, 59, 0
3, 93540, Note_on_c, 1, 47, 100
3, 93600, Note_on_c, 1, 47, 0
3, 93600, Note_on_c, 1, 51, 100
3, 93660, Note_on_c, 1, 51, 0
3, 93660, Note_on_c, 1, 47, 100
3, 93720, Note_on_c, 1, 47, 0
3, 93720, Note_on_c, 1, 52, 100
3, 93780, Note_on_c, 1, 52, 0
3, 93780, Note_on_c, 1, 51, 100
3, 93840, Note_on_c, 1, 51, 0
3, 93840, Note_on_c, 1, 52, 100
3, 93900, Note_on_c, 1, 52, 0
3, 93900, Note_on_c, 1, 54, 100
3, 93960, Note_on_c, 1, 54, 0
3, 93960, Note_on_c, 1, 55, 100
3, 94020, Note_on_c, 1, 55, 0
3, 94020, Note_on_c, 1, 52, 100
3, 94080, Note_on_c, 1, 52, 0
3, 94080, Note_on_c, 1, 57, 100
3, 94140, Note_on_c, 1, 57, 0
3, 94140, Note_on_c, 1, 56, 100
3, 94200, Note_on_c, 1, 56, 0
3, 94200, Note_on_c, 1, 57, 100
3, 94260, Note_on_c, 1, 57, 0
3, 94260, Note_on_c, 1, 45, 100
3, 94320, Note_on_c, 1, 45, 0
3, 94320, Note_on_c, 1, 48, 100
3, 94380, Note_on_c, 1, 48, 0
3, 94380, Note_on_c, 1, 45, 100
3, 94440, Note_on_c, 1, 45, 0
3, 94440, Note_on_c, 1, 50, 100
3, 94500, Note_on_c, 1, 50, 0
3, 94500, Note_on_c, 1, 49, 100
3, 94560, Note_on_c, 1, 49, 0
3, 94560, Note_on_c, 1, 50, 100
3, 94620, Note_on_c, 1, 50, 0
3, 94620, Note_on_c, 1, 52, 100
3, 94680, Note_on_c, 1, 52, 0
3, 94680, Note_on_c, 1, 53, 100
3, 94740, Note_on_c, 1, 53, 0
3, 94740, Note_on_c, 1, 50, 100
3, 94800, Note_on_c, 1, 50, 0
3, 94800, Note_on_c, 1, 55, 100
3, 94860, Note_on_c, 1, 55, 0
3, 94860, Note_on_c, 1, 54, 100
3, 94920, Note_on_c, 1, 54, 0
3, 94920, Note_on_c, 1, 55, 100
3, 94980, Note_on_c, 1, 55, 0
3, 94980, Note_on_c, 1, 57, 100
3, 95040, Note_on_c, 1, 57, 0
3, 95040, Note_on_c, 1, 59, 100
3, 95100, Note_on_c, 1, 59, 0
3, 95100, Note_on_c, 1, 55, 100
3, 95160, Note_on_c, 1, 55, 0
3, 95160, Note_on_c, 1, 60, 100
3, 95280, Note_on_c, 1, 60, 0
3, 95280, Note_on_c, 1, 59, 100
3, 95400, Note_on_c, 1, 59, 0
3, 95400, Note_on_c, 1, 57, 100
3, 95520, Note_on_c, 1, 57, 0
3, 95520, Note_on_c, 1, 55, 100
3, 95880, Note_on_c, 1, 55, 0
3, 95880, Note_on_c, 1, 60, 100
3, 96240, Note_on_c, 1, 60, 0
3, 96240, Note_on_c, 1, 53, 100
3, 96300, Note_on_c, 1, 53, 0
3, 96300, Note_on_c, 1, 55, 100
3, 96360, Note_on_c, 1, 55, 0
3, 96360, Note_on_c, 1, 53, 100
3, 96420, Note_on_c, 1, 53, 0
3, 96420, Note_on_c, 1, 52, 100
3, 96480, Note_on_c, 1, 52, 0
3, 96480, Note_on_c, 1, 50, 100
3, 96540, Note_on_c, 1, 50, 0
3, 96540, Note_on_c, 1, 48, 100
3, 96600, Note_on_c, 1, 48, 0
3, 96600, Note_on_c, 1, 47, 100
3, 96720, Note_on_c, 1, 47, 0
3, 96720, Note_on_c, 1, 59, 100
3, 96840, Note_on_c, 1, 59, 0
3, 96840, Note_on_c, 1, 47, 100
3, 96960, Note_on_c, 1, 47, 0
3, 96960, Note_on_c, 1, 52, 100
3, 97020, Note_on_c, 1, 52, 0
3, 97020, Note_on_c, 1, 53, 100
3, 97080, Note_on_c, 1, 53, 0
3, 97080, Note_on_c, 1, 52, 100
3, 97140, Note_on_c, 1, 52, 0
3, 97140, Note_on_c, 1, 50, 100
3, 97200, Note_on_c, 1, 50, 0
3, 97200, Note_on_c, 1, 48, 100
3, 97260, Note_on_c, 1, 48, 0
3, 97260, Note_on_c, 1, 47, 100
3, 97320, Note_on_c, 1, 47, 0
3, 97320, Note_on_c, 1, 45, 100
3, 97440, Note_on_c, 1, 45, 0
3, 97440, Note_on_c, 1, 57, 100
3, 97560, Note_on_c, 1, 57, 0
3, 97560, Note_on_c, 1, 45, 100
3, 97680, Note_on_c, 1, 45, 0
3, 97680, Note_on_c, 1, 50, 100
3, 97740, Note_on_c, 1, 50, 0
3, 97740, Note_on_c, 1, 52, 100
3, 97800, Note_on_c, 1, 52, 0
3, 97800, Note_on_c, 1, 50, 100
3, 97860, Note_on_c, 1, 50, 0
3, 97860, Note_on_c, 1, 48, 100
3, 97920, Note_on_c, 1, 48, 0
3, 97920, Note_on_c, 1, 47, 100
3, 97980, Note_on_c, 1, 47, 0
3, 97980, Note_on_c, 1, 45, 100
3, 98040, Note_on_c, 1, 45, 0
3, 98040, Note_on_c, 1, 43, 100
3, 98160, Note_on_c, 1, 43, 0
3, 98160, Note_on_c, 1, 55, 100
3, 98280, Note_on_c, 1, 55, 0
3, 98280, Note_on_c, 1, 43, 100
3, 98400, Note_on_c, 1, 43, 0
3, 98400, Note_on_c, 1, 48, 100
3, 98520, Note_on_c, 1, 48, 0
3, 98520, Note_on_c, 1, 60, 100
3, 98640, Note_on_c, 1, 60, 0
3, 98640, Note_on_c, 1, 59, 100
3, 98760, Note_on_c, 1, 59, 0
3, 98760, Note_on_c, 1, 57, 100
3, 98880, Note_on_c, 1, 57, 0
3, 98880, Note_on_c, 1, 45, 100
3, 99000, Note_on_c, 1, 45, 0
3, 99000, Note_on_c, 1, 57, 100
3, 99120, Note_on_c, 1, 57, 0
3, 99120, Note_on_c, 1, 50, 100
3, 99240, Note_on_c, 1, 50, 0
3, 99240, Note_on_c, 1, 62, 100
3, 99360, Note_on_c, 1, 62, 0
3, 99360, Note_on_c, 1, 60, 100
3, 99480, Note_on_c, 1, 60, 0
3, 99480, Note_on_c, 1, 59, 100
3, 99600, Note_on_c, 1, 59, 0
3, 99600, Note_on_c, 1, 47, 100
3, 99720, Note_on_c, 1, 47, 0
3, 99720, Note_on_c, 1, 59, 100
3, 99840, Note_on_c, 1, 59, 0
3, 99840, Note_on_c, 1, 52, 100
3, 99960, Note_on_c, 1, 52, 0
3, 99960, Note_on_c, 1, 64, 100
3, 100080, Note_on_c, 1, 64, 0
3, 100080, Note_on_c, 1, 62, 100
3, 100200, Note_on_c, 1, 62, 0
3, 100200, Note_on_c, 1, 60, 100
3, 100320, Note_on_c, 1, 60, 0
3, 100320, Note_on_c, 1, 48, 100
3, 100440, Note_on_c, 1, 48, 0
3, 100440, Note_on_c, 1, 60, 100
3, 100560, Note_on_c, 1, 60, 0
3, 100560, Note_on_c, 1, 54, 100
3, 100680, Note_on_c, 1, 54, 0
3, 100680, Note_on_c, 1, 52, 100
3, 100800, Note_on_c, 1, 52, 0
3, 100800, Note_on_c, 1, 54, 100
3, 100920, Note_on_c, 1, 54, 0
3, 100920, Note_on_c, 1, 55, 100
3, 101040, Note_on_c, 1, 55, 0
3, 101040, Note_on_c, 1, 54, 100
3, 101160, Note_on_c, 1, 54, 0
3, 101160, Note_on_c, 1, 55, 100
3, 101280, Note_on_c, 1, 55, 0
3, 101280, Note_on_c, 1, 48, 100
3, 101400, Note_on_c, 1, 48, 0
3, 101400, Note_on_c, 1, 47, 100
3, 101520, Note_on_c, 1, 47, 0
3, 101520, Note_on_c, 1, 48, 100
3, 101640, Note_on_c, 1, 48, 0
3, 101640, Note_on_c, 1, 50, 100
3, 101760, Note_on_c, 1, 50, 0
3, 101760, Note_on_c, 1, 48, 100
3, 101880, Note_on_c, 1, 48, 0
3, 101880, Note_on_c, 1, 50, 100
3, 102000, Note_on_c, 1, 50, 0
3, 102000, Note_on_c, 1, 52, 100
3, 102360, Note_on_c, 1, 52, 0
3, 102360, Note_on_c, 1, 54, 100
3, 102720, Note_on_c, 1, 54, 0
3, 102720, Note_on_c, 1, 55, 100
3, 103200, Note_on_c, 1, 55, 0
3, 103200, Note_on_c, 1, 52, 100
3, 103320, Note_on_c, 1, 52, 0
3, 103320, Note_on_c, 1, 48, 100
3, 103440, Note_on_c, 1, 48, 0
3, 103440, Note_on_c, 1, 54, 100
3, 103920, Note_on_c, 1, 54, 0
3, 103920, Note_on_c, 1, 50, 100
3, 104040, Note_on_c, 1, 50, 0
3, 104040, Note_on_c, 1, 47, 100
3, 104160, Note_on_c, 1, 47, 0
3, 104160, Note_on_c, 1, 52, 100
3, 104640, Note_on_c, 1, 52, 0
3, 104640, Note_on_c, 1, 48, 100
3, 104760, Note_on_c, 1, 48, 0
3, 104760, Note_on_c, 1, 45, 100
3, 104880, Note_on_c, 1, 45, 0
3, 104880, Note_on_c, 1, 50, 100
3, 107520, Note_on_c, 1, 50, 0
3, 120360, Note_on_c, 1, 57, 127
3, 120480, Note_on_c, 1, 57, 0
3, 120480, Note_on_c, 1, 60, 127
3, 120540, Note_on_c, 1, 60, 0
3, 120540, Note_on_c, 1, 59, 127
3, 120600, Note_on_c, 1, 59, 0
3, 120600, Note_on_c, 1, 60, 127
3, 120660, Note_on_c, 1, 60, 0
3, 120660, Note_on_c, 1, 57, 127
3, 120720, Note_on_c, 1, 57, 0
3, 120720, Note_on_c, 1, 59, 127
3, 120804, Note_on_c, 1, 59, 0
3, 120840, Note_on_c, 1, 52, 127
3, 120900, Note_on_c, 1, 52, 0
3, 120900, Note_on_c, 1, 59, 127
3, 120960, Note_on_c, 1, 59, 0
3, 120960, Note_on_c, 1, 64, 127
3, 121020, Note_on_c, 1, 64, 0
3, 121020, Note_on_c, 1, 59, 127
3, 121080, Note_on_c, 1, 59, 0
3, 121080, Note_on_c, 1, 60, 127
3, 121164, Note_on_c, 1, 60, 0
3, 121200, Note_on_c, 1, 57, 127
3, 121320, Note_on_c, 1, 57, 0
3, 121320, Note_on_c, 1, 64, 127
3, 121440, Note_on_c, 1, 64, 0
3, 121440, Note_on_c, 1, 65, 127
3, 121500, Note_on_c, 1, 65, 0
3, 121500, Note_on_c, 1, 64, 127
3, 121560, Note_on_c, 1, 64, 0
3, 121560, Note_on_c, 1, 65, 127
3, 121620, Note_on_c, 1, 65, 0
3, 121620, Note_on_c, 1, 62, 127
3, 121680, Note_on_c, 1, 62, 0
3, 121680, Note_on_c, 1, 65, 127
3, 121740, Note_on_c, 1, 65, 0
3, 121740, Note_on_c, 1, 60, 127
3, 121800, Note_on_c, 1, 60, 0
3, 121800, Note_on_c, 1, 65, 127
3, 121860, Note_on_c, 1, 65, 0
3, 121860, Note_on_c, 1, 62, 127
3, 121920, Note_on_c, 1, 62, 0
3, 121920, Note_on_c, 1, 65, 127
3, 121980, Note_on_c, 1, 65, 0
3, 121980, Note_on_c, 1, 59, 127
3, 122040, Note_on_c, 1, 59, 0
3, 122040, Note_on_c, 1, 65, 127
3, 122100, Note_on_c, 1, 65, 0
3, 122100, Note_on_c, 1, 55, 127
3, 122160, Note_on_c, 1, 55, 0
3, 122160, Note_on_c, 1, 64, 127
3, 122220, Note_on_c, 1, 64, 0
3, 122220, Note_on_c, 1, 62, 127
3, 122280, Note_on_c, 1, 62, 0
3, 122280, Note_on_c, 1, 64, 127
3, 122340, Note_on_c, 1, 64, 0
3, 122340, Note_on_c, 1, 60, 127
3, 122400, Note_on_c, 1, 60, 0
3, 122400, Note_on_c, 1, 64, 127
3, 122460, Note_on_c, 1, 64, 0
3, 122460, Note_on_c, 1, 59, 127
3, 122520, Note_on_c, 1, 59, 0
3, 122520, Note_on_c, 1, 64, 127
3, 122580, Note_on_c, 1, 64, 0
3, 122580, Note_on_c, 1, 60, 127
3, 122640, Note_on_c, 1, 60, 0
3, 122640, Note_on_c, 1, 64, 127
3, 122700, Note_on_c, 1, 64, 0
3, 122700, Note_on_c, 1, 57, 127
3, 122760, Note_on_c, 1, 57, 0
3, 122760, Note_on_c, 1, 64, 127
3, 122820, Note_on_c, 1, 64, 0
3, 122820, Note_on_c, 1, 53, 127
3, 122880, Note_on_c, 1, 53, 0
3, 122880, Note_on_c, 1, 62, 127
3, 122940, Note_on_c, 1, 62, 0
3, 122940, Note_on_c, 1, 60, 127
3, 123000, Note_on_c, 1, 60, 0
3, 123000, Note_on_c, 1, 62, 127
3, 123060, Note_on_c, 1, 62, 0
3, 123060, Note_on_c, 1, 59, 127
3, 123120, Note_on_c, 1, 59, 0
3, 123120, Note_on_c, 1, 62, 127
3, 123180, Note_on_c, 1, 62, 0
3, 123180, Note_on_c, 1, 57, 127
3, 123240, Note_on_c, 1, 57, 0
3, 123240, Note_on_c, 1, 62, 127
3, 123300, Note_on_c, 1, 62, 0
3, 123300, Note_on_c, 1, 59, 127
3, 123360, Note_on_c, 1, 59, 0
3, 123360, Note_on_c, 1, 62, 127
3, 123420, Note_on_c, 1, 62, 0
3, 123420, Note_on_c, 1, 56, 127
3, 123480, Note_on_c, 1, 56, 0
3, 123480, Note_on_c, 1, 62, 127
3, 123540, Note_on_c, 1, 62, 0
3, 123540, Note_on_c, 1, 52, 127
3, 123600, Note_on_c, 1, 52, 0
3, 123600, Note_on_c, 1, 60, 127
3, 123660, Note_on_c, 1, 60, 0
3, 123660, Note_on_c, 1, 59, 127
3, 123720, Note_on_c, 1, 59, 0
3, 123720, Note_on_c, 1, 60, 127
3, 123780, Note_on_c, 1, 60, 0
3, 123780, Note_on_c, 1, 57, 127
3, 123840, Note_on_c, 1, 57, 0
3, 123840, Note_on_c, 1, 62, 127
3, 123900, Note_on_c, 1, 62, 0
3, 123900, Note_on_c, 1, 59, 127
3, 123960, Note_on_c, 1, 59, 0
3, 123960, Note_on_c, 1, 60, 127
3, 124020, Note_on_c, 1, 60, 0
3, 124020, Note_on_c, 1, 59, 127
3, 124080, Note_on_c, 1, 59, 0
3, 124080, Note_on_c, 1, 60, 127
3, 124140, Note_on_c, 1, 60, 0
3, 124140, Note_on_c, 1, 57, 127
3, 124200, Note_on_c, 1, 57, 0
3, 124200, Note_on_c, 1, 62, 127
3, 124260, Note_on_c, 1, 62, 0
3, 124260, Note_on_c, 1, 56, 127
3, 124320, Note_on_c, 1, 56, 0
3, 124320, Note_on_c, 1, 57, 127
3, 124380, Note_on_c, 1, 57, 0
3, 124380, Note_on_c, 1, 56, 127
3, 124440, Note_on_c, 1, 56, 0
3, 124440, Note_on_c, 1, 57, 127
3, 124500, Note_on_c, 1, 57, 0
3, 124500, Note_on_c, 1, 52, 127
3, 124560, Note_on_c, 1, 52, 0
3, 124560, Note_on_c, 1, 56, 127
3, 124620, Note_on_c, 1, 56, 0
3, 124620, Note_on_c, 1, 52, 127
3, 124680, Note_on_c, 1, 52, 0
3, 124680, Note_on_c, 1, 57, 127
3, 124740, Note_on_c, 1, 57, 0
3, 124740, Note_on_c, 1, 56, 127
3, 124800, Note_on_c, 1, 56, 0
3, 124800, Note_on_c, 1, 57, 127
3, 124860, Note_on_c, 1, 57, 0
3, 124860, Note_on_c, 1, 52, 127
3, 124920, Note_on_c, 1, 52, 0
3, 124920, Note_on_c, 1, 59, 127
3, 124980, Note_on_c, 1, 59, 0
3, 124980, Note_on_c, 1, 52, 127
3, 125040, Note_on_c, 1, 52, 0
3, 125040, Note_on_c, 1, 60, 127
3, 125100, Note_on_c, 1, 60, 0
3, 125100, Note_on_c, 1, 59, 127
3, 125160, Note_on_c, 1, 59, 0
3, 125160, Note_on_c, 1, 60, 127
3, 125220, Note_on_c, 1, 60, 0
3, 125220, Note_on_c, 1, 57, 127
3, 125280, Note_on_c, 1, 57, 0
3, 125280, Note_on_c, 1, 62, 127
3, 125340, Note_on_c, 1, 62, 0
3, 125340, Note_on_c, 1, 56, 127
3, 125400, Note_on_c, 1, 56, 0
3, 125400, Note_on_c, 1, 57, 127
3, 125460, Note_on_c, 1, 57, 0
3, 125460, Note_on_c, 1, 56, 127
3, 125520, Note_on_c, 1, 56, 0
3, 125520, Note_on_c, 1, 57, 127
3, 125580, Note_on_c, 1, 57, 0
3, 125580, Note_on_c, 1, 60, 127
3, 125640, Note_on_c, 1, 60, 0
3, 125640, Note_on_c, 1, 59, 127
3, 125700, Note_on_c, 1, 59, 0
3, 125700, Note_on_c, 1, 62, 127
3, 125760, Note_on_c, 1, 62, 0
3, 125760, Note_on_c, 1, 55, 127
3, 125880, Note_on_c, 1, 55, 0
3, 126120, Note_on_c, 1, 64, 127
3, 126180, Note_on_c, 1, 64, 0
3, 126180, Note_on_c, 1, 65, 127
3, 126240, Note_on_c, 1, 65, 0
3, 126240, Note_on_c, 1, 64, 127
3, 126300, Note_on_c, 1, 64, 0
3, 126300, Note_on_c, 1, 62, 127
3, 126360, Note_on_c, 1, 62, 0
3, 126360, Note_on_c, 1, 64, 127
3, 126420, Note_on_c, 1, 64, 0
3, 126420, Note_on_c, 1, 60, 127
3, 126480, Note_on_c, 1, 60, 0
3, 126480, Note_on_c, 1, 69, 127
3, 126540, Note_on_c, 1, 69, 0
3, 126540, Note_on_c, 1, 71, 127
3, 126600, Note_on_c, 1, 71, 0
3, 126600, Note_on_c, 1, 69, 127
3, 126660, Note_on_c, 1, 69, 0
3, 126660, Note_on_c, 1, 67, 127
3, 126720, Note_on_c, 1, 67, 0
3, 126720, Note_on_c, 1, 65, 127
3, 126780, Note_on_c, 1, 65, 0
3, 126780, Note_on_c, 1, 64, 127
3, 126840, Note_on_c, 1, 64, 0
3, 126840, Note_on_c, 1, 62, 127
3, 127200, Note_on_c, 1, 62, 0
3, 127200, Note_on_c, 1, 62, 127
3, 127620, Note_on_c, 1, 62, 0
3, 127620, Note_on_c, 1, 60, 127
3, 127680, Note_on_c, 1, 60, 0
3, 127680, Note_on_c, 1, 62, 127
3, 127740, Note_on_c, 1, 62, 0
3, 127740, Note_on_c, 1, 64, 127
3, 127800, Note_on_c, 1, 64, 0
3, 127800, Note_on_c, 1, 66, 127
3, 127860, Note_on_c, 1, 66, 0
3, 127860, Note_on_c, 1, 68, 127
3, 127920, Note_on_c, 1, 68, 0
3, 127920, Note_on_c, 1, 69, 127
3, 127980, Note_on_c, 1, 69, 0
3, 127980, Note_on_c, 1, 65, 127
3, 128040, Note_on_c, 1, 65, 0
3, 128040, Note_on_c, 1, 64, 127
3, 128100, Note_on_c, 1, 64, 0
3, 128100, Note_on_c, 1, 62, 127
3, 128160, Note_on_c, 1, 62, 0
3, 128160, Note_on_c, 1, 60, 127
3, 128220, Note_on_c, 1, 60, 0
3, 128220, Note_on_c, 1, 59, 127
3, 128280, Note_on_c, 1, 59, 0
3, 128280, Note_on_c, 1, 60, 127
3, 128640, Note_on_c, 1, 60, 0
3, 128640, Note_on_c, 1, 59, 127
3, 129000, Note_on_c, 1, 59, 0
3, 129000, Note_on_c, 1, 59, 127
3, 129360, Note_on_c, 1, 59, 0
3, 129360, Note_on_c, 1, 64, 127
3, 129480, Note_on_c, 1, 64, 0
3, 129480, Note_on_c, 1, 60, 127
3, 129600, Note_on_c, 1, 60, 0
3, 129600, Note_on_c, 1, 69, 127
3, 129840, Note_on_c, 1, 69, 0
3, 129840, Note_on_c, 1, 66, 127
3, 129960, Note_on_c, 1, 66, 0
3, 129960, Note_on_c, 1, 63, 127
3, 130080, Note_on_c, 1, 63, 0
3, 130080, Note_on_c, 1, 59, 127
3, 130200, Note_on_c, 1, 59, 0
3, 130200, Note_on_c, 1, 71, 127
3, 130320, Note_on_c, 1, 71, 0
3, 130320, Note_on_c, 1, 69, 127
3, 130440, Note_on_c, 1, 69, 0
3, 130440, Note_on_c, 1, 67, 127
3, 130680, Note_on_c, 1, 67, 0
3, 130680, Note_on_c, 1, 66, 127
3, 130800, Note_on_c, 1, 66, 0
3, 130800, Note_on_c, 1, 64, 127
3, 131040, Note_on_c, 1, 64, 0
3, 131040, Note_on_c, 1, 62, 127
3, 131160, Note_on_c, 1, 62, 0
3, 131160, Note_on_c, 1, 60, 127
3, 131220, Note_on_c, 1, 60, 0
3, 131220, Note_on_c, 1, 59, 127
3, 131280, Note_on_c, 1, 59, 0
3, 131280, Note_on_c, 1, 60, 127
3, 131340, Note_on_c, 1, 60, 0
3, 131340, Note_on_c, 1, 57, 127
3, 131400, Note_on_c, 1, 57, 0
3, 131400, Note_on_c, 1, 59, 127
3, 131460, Note_on_c, 1, 59, 0
3, 131460, Note_on_c, 1, 55, 127
3, 131520, Note_on_c, 1, 55, 0
3, 131520, Note_on_c, 1, 57, 127
3, 131760, Note_on_c, 1, 57, 0
3, 131760, Note_on_c, 1, 57, 127
3, 131820, Note_on_c, 1, 57, 0
3, 131820, Note_on_c, 1, 69, 127
3, 131880, Note_on_c, 1, 69, 0
3, 131880, Note_on_c, 1, 67, 127
3, 131940, Note_on_c, 1, 67, 0
3, 131940, Note_on_c, 1, 66, 127
3, 132000, Note_on_c, 1, 66, 0
3, 132000, Note_on_c, 1, 64, 127
3, 132060, Note_on_c, 1, 64, 0
3, 132060, Note_on_c, 1, 59, 127
3, 132120, Note_on_c, 1, 59, 0
3, 132120, Note_on_c, 1, 63, 127
3, 132180, Note_on_c, 1, 63, 0
3, 132180, Note_on_c, 1, 57, 127
3, 132240, Note_on_c, 1, 57, 0
3, 132240, Note_on_c, 1, 55, 127
3, 132480, Note_on_c, 1, 55, 0
3, 133680, Note_on_c, 1, 52, 127
3, 133740, Note_on_c, 1, 52, 0
3, 133740, Note_on_c, 1, 54, 127
3, 133800, Note_on_c, 1, 54, 0
3, 133800, Note_on_c, 1, 55, 127
3, 133860, Note_on_c, 1, 55, 0
3, 133860, Note_on_c, 1, 54, 127
3, 133920, Note_on_c, 1, 54, 0
3, 133920, Note_on_c, 1, 55, 127
3, 133980, Note_on_c, 1, 55, 0
3, 133980, Note_on_c, 1, 52, 127
3, 134040, Note_on_c, 1, 52, 0
3, 134040, Note_on_c, 1, 54, 127
3, 134100, Note_on_c, 1, 54, 0
3, 134100, Note_on_c, 1, 47, 127
3, 134160, Note_on_c, 1, 47, 0
3, 134160, Note_on_c, 1, 51, 127
3, 134220, Note_on_c, 1, 51, 0
3, 134220, Note_on_c, 1, 54, 127
3, 134280, Note_on_c, 1, 54, 0
3, 134280, Note_on_c, 1, 59, 127
3, 134340, Note_on_c, 1, 59, 0
3, 134340, Note_on_c, 1, 54, 127
3, 134400, Note_on_c, 1, 54, 0
3, 134400, Note_on_c, 1, 55, 127
3, 134520, Note_on_c, 1, 55, 0
3, 134520, Note_on_c, 1, 52, 127
3, 134640, Note_on_c, 1, 52, 0
3, 134640, Note_on_c, 1, 55, 127
3, 134880, Note_on_c, 1, 55, 0
3, 134880, Note_on_c, 1, 54, 127
3, 135000, Note_on_c, 1, 54, 0
3, 135000, Note_on_c, 1, 52, 127
3, 135120, Note_on_c, 1, 52, 0
3, 135120, Note_on_c, 1, 54, 127
3, 135240, Note_on_c, 1, 54, 0
3, 135240, Note_on_c, 1, 50, 127
3, 135360, Note_on_c, 1, 50, 0
3, 135360, Note_on_c, 1, 54, 127
3, 135600, Note_on_c, 1, 54, 0
3, 135600, Note_on_c, 1, 52, 127
3, 135720, Note_on_c, 1, 52, 0
3, 135720, Note_on_c, 1, 50, 127
3, 135840, Note_on_c, 1, 50, 0
3, 135840, Note_on_c, 1, 52, 127
3, 135960, Note_on_c, 1, 52, 0
3, 135960, Note_on_c, 1, 48, 127
3, 136080, Note_on_c, 1, 48, 0
3, 136080, Note_on_c, 1, 52, 127
3, 136320, Note_on_c, 1, 52, 0
3, 136320, Note_on_c, 1, 51, 127
3, 136440, Note_on_c, 1, 51, 0
3, 136440, Note_on_c, 1, 52, 127
3, 136560, Note_on_c, 1, 52, 0
3, 136560, Note_on_c, 1, 51, 127
3, 136680, Note_on_c, 1, 51, 0
3, 136680, Note_on_c, 1, 47, 127
3, 136800, Note_on_c, 1, 47, 0
3, 136800, Note_on_c, 1, 51, 127
3, 136920, Note_on_c, 1, 51, 0
3, 136920, Note_on_c, 1, 52, 127
3, 137040, Note_on_c, 1, 52, 0
3, 137040, Note_on_c, 1, 55, 127
3, 137160, Note_on_c, 1, 55, 0
3, 137160, Note_on_c, 1, 59, 127
3, 137280, Note_on_c, 1, 59, 0
3, 137280, Note_on_c, 1, 57, 127
3, 137400, Note_on_c, 1, 57, 0
3, 137400, Note_on_c, 1, 52, 127
3, 137520, Note_on_c, 1, 52, 0
3, 137520, Note_on_c, 1, 57, 127
3, 137760, Note_on_c, 1, 57, 0
3, 137760, Note_on_c, 1, 53, 127
3, 137880, Note_on_c, 1, 53, 0
3, 137880, Note_on_c, 1, 57, 127
3, 138000, Note_on_c, 1, 57, 0
3, 138000, Note_on_c, 1, 55, 127
3, 138120, Note_on_c, 1, 55, 0
3, 138120, Note_on_c, 1, 50, 127
3, 138240, Note_on_c, 1, 50, 0
3, 138240, Note_on_c, 1, 55, 127
3, 138480, Note_on_c, 1, 55, 0
3, 138480, Note_on_c, 1, 60, 127
3, 138600, Note_on_c, 1, 60, 0
3, 138600, Note_on_c, 1, 48, 127
3, 138720, Note_on_c, 1, 48, 0
3, 138720, Note_on_c, 1, 53, 127
3, 139080, Note_on_c, 1, 53, 0
3, 139080, Note_on_c, 1, 53, 127
3, 139200, Note_on_c, 1, 53, 0
3, 139200, Note_on_c, 1, 59, 127
3, 139320, Note_on_c, 1, 59, 0
3, 139320, Note_on_c, 1, 47, 127
3, 139440, Note_on_c, 1, 47, 0
3, 139440, Note_on_c, 1, 52, 127
3, 139800, Note_on_c, 1, 52, 0
3, 139800, Note_on_c, 1, 52, 127
3, 139860, Note_on_c, 1, 52, 0
3, 139860, Note_on_c, 1, 54, 127
3, 139920, Note_on_c, 1, 54, 0
3, 139920, Note_on_c, 1, 55, 127
3, 139980, Note_on_c, 1, 55, 0
3, 139980, Note_on_c, 1, 57, 127
3, 140040, Note_on_c, 1, 57, 0
3, 140040, Note_on_c, 1, 59, 127
3, 140100, Note_on_c, 1, 59, 0
3, 140100, Note_on_c, 1, 60, 127
3, 140160, Note_on_c, 1, 60, 0
3, 140160, Note_on_c, 1, 54, 127
3, 140400, Note_on_c, 1, 54, 0
3, 140640, Note_on_c, 1, 62, 127
3, 140760, Note_on_c, 1, 62, 0
3, 140760, Note_on_c, 1, 60, 127
3, 140880, Note_on_c, 1, 60, 0
3, 140880, Note_on_c, 1, 59, 127
3, 141120, Note_on_c, 1, 59, 0
3, 141240, Note_on_c, 1, 60, 127
3, 141480, Note_on_c, 1, 60, 0
3, 141480, Note_on_c, 1, 62, 127
3, 141600, Note_on_c, 1, 62, 0
3, 141600, Note_on_c, 1, 59, 127
3, 141840, Note_on_c, 1, 59, 0
3, 141960, Note_on_c, 1, 57, 127
3, 142200, Note_on_c, 1, 57, 0
3, 142320, Note_on_c, 1, 53, 127
3, 142380, Note_on_c, 1, 53, 0
3, 142380, Note_on_c, 1, 52, 127
3, 142440, Note_on_c, 1, 52, 0
3, 142440, Note_on_c, 1, 50, 127
3, 142500, Note_on_c, 1, 50, 0
3, 142500, Note_on_c, 1, 53, 127
3, 142560, Note_on_c, 1, 53, 0
3, 142560, Note_on_c, 1, 52, 127
3, 142620, Note_on_c, 1, 52, 0
3, 142620, Note_on_c, 1, 50, 127
3, 142680, Note_on_c, 1, 50, 0
3, 142680, Note_on_c, 1, 48, 127
3, 142740, Note_on_c, 1, 48, 0
3, 142740, Note_on_c, 1, 52, 127
3, 142800, Note_on_c, 1, 52, 0
3, 142800, Note_on_c, 1, 50, 127
3, 142860, Note_on_c, 1, 50, 0
3, 142860, Note_on_c, 1, 48, 127
3, 142920, Note_on_c, 1, 48, 0
3, 142920, Note_on_c, 1, 47, 127
3, 142980, Note_on_c, 1, 47, 0
3, 142980, Note_on_c, 1, 45, 127
3, 143040, Note_on_c, 1, 45, 0
3, 143040, Note_on_c, 1, 44, 127
3, 143100, Note_on_c, 1, 44, 0
3, 143100, Note_on_c, 1, 47, 127
3, 143160, Note_on_c, 1, 47, 0
3, 143160, Note_on_c, 1, 52, 127
3, 143220, Note_on_c, 1, 52, 0
3, 143220, Note_on_c, 1, 54, 127
3, 143280, Note_on_c, 1, 54, 0
3, 143280, Note_on_c, 1, 56, 127
3, 143340, Note_on_c, 1, 56, 0
3, 143340, Note_on_c, 1, 57, 127
3, 143400, Note_on_c, 1, 57, 0
3, 143400, Note_on_c, 1, 59, 127
3, 143460, Note_on_c, 1, 59, 0
3, 143460, Note_on_c, 1, 60, 127
3, 143520, Note_on_c, 1, 60, 0
3, 143520, Note_on_c, 1, 62, 127
3, 143580, Note_on_c, 1, 62, 0
3, 143580, Note_on_c, 1, 64, 127
3, 143640, Note_on_c, 1, 64, 0
3, 143640, Note_on_c, 1, 66, 127
3, 143700, Note_on_c, 1, 66, 0
3, 143700, Note_on_c, 1, 68, 127
3, 143760, Note_on_c, 1, 68, 0
3, 143760, Note_on_c, 1, 69, 127
3, 143820, Note_on_c, 1, 69, 0
3, 143820, Note_on_c, 1, 68, 127
3, 143880, Note_on_c, 1, 68, 0
3, 143880, Note_on_c, 1, 69, 127
3, 143940, Note_on_c, 1, 69, 0
3, 143940, Note_on_c, 1, 65, 127
3, 144000, Note_on_c, 1, 65, 0
3, 144000, Note_on_c, 1, 64, 127
3, 144060, Note_on_c, 1, 64, 0
3, 144060, Note_on_c, 1, 62, 127
3, 144120, Note_on_c, 1, 62, 0
3, 144120, Note_on_c, 1, 64, 127
3, 144180, Note_on_c, 1, 64, 0
3, 144180, Note_on_c, 1, 62, 127
3, 144240, Note_on_c, 1, 62, 0
3, 144240, Note_on_c, 1, 60, 127
3, 144300, Note_on_c, 1, 60, 0
3, 144300, Note_on_c, 1, 64, 127
3, 144360, Note_on_c, 1, 64, 0
3, 144360, Note_on_c, 1, 62, 127
3, 144420, Note_on_c, 1, 62, 0
3, 144420, Note_on_c, 1, 60, 127
3, 144480, Note_on_c, 1, 60, 0
3, 144480, Note_on_c, 1, 62, 127
3, 144540, Note_on_c, 1, 62, 0
3, 144540, Note_on_c, 1, 60, 127
3, 144600, Note_on_c, 1, 60, 0
3, 144600, Note_on_c, 1, 59, 127
3, 144660, Note_on_c, 1, 59, 0
3, 144660, Note_on_c, 1, 57, 127
3, 144720, Note_on_c, 1, 57, 0
3, 144720, Note_on_c, 1, 56, 127
3, 144780, Note_on_c, 1, 56, 0
3, 144780, Note_on_c, 1, 54, 127
3, 144840, Note_on_c, 1, 54, 0
3, 144840, Note_on_c, 1, 52, 127
3, 144900, Note_on_c, 1, 52, 0
3, 144900, Note_on_c, 1, 62, 127
3, 144960, Note_on_c, 1, 62, 0
3, 144960, Note_on_c, 1, 60, 127
3, 145020, Note_on_c, 1, 60, 0
3, 145020, Note_on_c, 1, 59, 127
3, 145080, Note_on_c, 1, 59, 0
3, 145080, Note_on_c, 1, 57, 127
3, 145140, Note_on_c, 1, 57, 0
3, 145140, Note_on_c, 1, 56, 127
3, 145200, Note_on_c, 1, 56, 0
3, 145200, Note_on_c, 1, 57, 127
3, 145260, Note_on_c, 1, 57, 0
3, 145260, Note_on_c, 1, 59, 127
3, 145320, Note_on_c, 1, 59, 0
3, 145320, Note_on_c, 1, 60, 127
3, 145380, Note_on_c, 1, 60, 0
3, 145380, Note_on_c, 1, 59, 127
3, 145440, Note_on_c, 1, 59, 0
3, 145440, Note_on_c, 1, 60, 127
3, 145500, Note_on_c, 1, 60, 0
3, 145500, Note_on_c, 1, 57, 127
3, 145560, Note_on_c, 1, 57, 0
3, 145560, Note_on_c, 1, 59, 127
3, 145644, Note_on_c, 1, 59, 0
3, 145680, Note_on_c, 1, 52, 127
3, 145740, Note_on_c, 1, 52, 0
3, 145740, Note_on_c, 1, 59, 127
3, 145800, Note_on_c, 1, 59, 0
3, 145800, Note_on_c, 1, 64, 127
3, 145860, Note_on_c, 1, 64, 0
3, 145860, Note_on_c, 1, 59, 127
3, 145920, Note_on_c, 1, 59, 0
3, 145920, Note_on_c, 1, 60, 127
3, 146004, Note_on_c, 1, 60, 0
3, 146040, Note_on_c, 1, 57, 127
3, 146160, Note_on_c, 1, 57, 0
3, 146160, Note_on_c, 1, 64, 127
3, 146280, Note_on_c, 1, 64, 0
3, 146280, Note_on_c, 1, 65, 127
3, 146340, Note_on_c, 1, 65, 0
3, 146340, Note_on_c, 1, 64, 127
3, 146400, Note_on_c, 1, 64, 0
3, 146400, Note_on_c, 1, 65, 127
3, 146460, Note_on_c, 1, 65, 0
3, 146460, Note_on_c, 1, 62, 127
3, 146520, Note_on_c, 1, 62, 0
3, 146520, Note_on_c, 1, 65, 127
3, 146580, Note_on_c, 1, 65, 0
3, 146580, Note_on_c, 1, 60, 127
3, 146640, Note_on_c, 1, 60, 0
3, 146640, Note_on_c, 1, 65, 127
3, 146700, Note_on_c, 1, 65, 0
3, 146700, Note_on_c, 1, 62, 127
3, 146760, Note_on_c, 1, 62, 0
3, 146760, Note_on_c, 1, 65, 127
3, 146820, Note_on_c, 1, 65, 0
3, 146820, Note_on_c, 1, 59, 127
3, 146880, Note_on_c, 1, 59, 0
3, 146880, Note_on_c, 1, 65, 127
3, 146940, Note_on_c, 1, 65, 0
3, 146940, Note_on_c, 1, 55, 127
3, 147000, Note_on_c, 1, 55, 0
3, 147000, Note_on_c, 1, 64, 127
3, 147060, Note_on_c, 1, 64, 0
3, 147060, Note_on_c, 1, 62, 127
3, 147120, Note_on_c, 1, 62, 0
3, 147120, Note_on_c, 1, 64, 127
3, 147180, Note_on_c, 1, 64, 0
3, 147180, Note_on_c, 1, 60, 127
3, 147240, Note_on_c, 1, 60, 0
3, 147240, Note_on_c, 1, 64, 127
3, 147300, Note_on_c, 1, 64, 0
3, 147300, Note_on_c, 1, 58, 127
3, 147360, Note_on_c, 1, 58, 0
3, 147360, Note_on_c, 1, 64, 127
3, 147420, Note_on_c, 1, 64, 0
3, 147420, Note_on_c, 1, 60, 127
3, 147480, Note_on_c, 1, 60, 0
3, 147480, Note_on_c, 1, 64, 127
3, 147540, Note_on_c, 1, 64, 0
3, 147540, Note_on_c, 1, 57, 127
3, 147600, Note_on_c, 1, 57, 0
3, 147600, Note_on_c, 1, 64, 127
3, 147660, Note_on_c, 1, 64, 0
3, 147660, Note_on_c, 1, 53, 127
3, 147720, Note_on_c, 1, 53, 0
3, 147720, Note_on_c, 1, 62, 127
3, 147780, Note_on_c, 1, 62, 0
3, 147780, Note_on_c, 1, 60, 127
3, 147840, Note_on_c, 1, 60, 0
3, 147840, Note_on_c, 1, 62, 127
3, 147900, Note_on_c, 1, 62, 0
3, 147900, Note_on_c, 1, 58, 127
3, 147960, Note_on_c, 1, 58, 0
3, 147960, Note_on_c, 1, 62, 127
3, 148020, Note_on_c, 1, 62, 0
3, 148020, Note_on_c, 1, 57, 127
3, 148080, Note_on_c, 1, 57, 0
3, 148080, Note_on_c, 1, 62, 127
3, 148140, Note_on_c, 1, 62, 0
3, 148140, Note_on_c, 1, 59, 127
3, 148200, Note_on_c, 1, 59, 0
3, 148200, Note_on_c, 1, 62, 127
3, 148260, Note_on_c, 1, 62, 0
3, 148260, Note_on_c, 1, 56, 127
3, 148320, Note_on_c, 1, 56, 0
3, 148320, Note_on_c, 1, 62, 127
3, 148380, Note_on_c, 1, 62, 0
3, 148380, Note_on_c, 1, 52, 127
3, 148440, Note_on_c, 1, 52, 0
3, 148440, Note_on_c, 1, 60, 127
3, 148500, Note_on_c, 1, 60, 0
3, 148500, Note_on_c, 1, 59, 127
3, 148560, Note_on_c, 1, 59, 0
3, 148560, Note_on_c, 1, 60, 127
3, 148620, Note_on_c, 1, 60, 0
3, 148620, Note_on_c, 1, 57, 127
3, 148680, Note_on_c, 1, 57, 0
3, 148680, Note_on_c, 1, 60, 127
3, 148740, Note_on_c, 1, 60, 0
3, 148740, Note_on_c, 1, 52, 127
3, 148800, Note_on_c, 1, 52, 0
3, 148800, Note_on_c, 1, 59, 127
3, 148860, Note_on_c, 1, 59, 0
3, 148860, Note_on_c, 1, 57, 127
3, 148920, Note_on_c, 1, 57, 0
3, 148920, Note_on_c, 1, 59, 127
3, 148980, Note_on_c, 1, 59, 0
3, 148980, Note_on_c, 1, 56, 127
3, 149040, Note_on_c, 1, 56, 0
3, 149040, Note_on_c, 1, 59, 127
3, 149100, Note_on_c, 1, 59, 0
3, 149100, Note_on_c, 1, 52, 127
3, 149160, Note_on_c, 1, 52, 0
3, 149160, Note_on_c, 1, 57, 127
3, 149220, Note_on_c, 1, 57, 0
3, 149220, Note_on_c, 1, 56, 127
3, 149280, Note_on_c, 1, 56, 0
3, 149280, Note_on_c, 1, 57, 127
3, 149340, Note_on_c, 1, 57, 0
3, 149340, Note_on_c, 1, 54, 127
3, 149400, Note_on_c, 1, 54, 0
3, 149400, Note_on_c, 1, 57, 127
3, 149460, Note_on_c, 1, 57, 0
3, 149460, Note_on_c, 1, 51, 127
3, 149520, Note_on_c, 1, 51, 0
3, 149520, Note_on_c, 1, 56, 127
3, 149580, Note_on_c, 1, 56, 0
3, 149580, Note_on_c, 1, 54, 127
3, 149640, Note_on_c, 1, 54, 0
3, 149640, Note_on_c, 1, 56, 127
3, 149700, Note_on_c, 1, 56, 0
3, 149700, Note_on_c, 1, 52, 127
3, 149760, Note_on_c, 1, 52, 0
3, 149760, Note_on_c, 1, 54, 127
3, 149820, Note_on_c, 1, 54, 0
3, 149820, Note_on_c, 1, 56, 127
3, 149880, Note_on_c, 1, 56, 0
3, 149880, Note_on_c, 1, 57, 127
3, 149940, Note_on_c, 1, 57, 0
3, 149940, Note_on_c, 1, 56, 127
3, 150000, Note_on_c, 1, 56, 0
3, 150000, Note_on_c, 1, 57, 127
3, 150060, Note_on_c, 1, 57, 0
3, 150060, Note_on_c, 1, 52, 127
3, 150120, Note_on_c, 1, 52, 0
3, 150120, Note_on_c, 1, 56, 127
3, 150180, Note_on_c, 1, 56, 0
3, 150180, Note_on_c, 1, 57, 127
3, 150240, Note_on_c, 1, 57, 0
3, 150240, Note_on_c, 1, 59, 127
3, 150300, Note_on_c, 1, 59, 0
3, 150300, Note_on_c, 1, 57, 127
3, 150360, Note_on_c, 1, 57, 0
3, 150360, Note_on_c, 1, 59, 127
3, 150420, Note_on_c, 1, 59, 0
3, 150420, Note_on_c, 1, 52, 127
3, 150480, Note_on_c, 1, 52, 0
3, 150480, Note_on_c, 1, 57, 127
3, 150540, Note_on_c, 1, 57, 0
3, 150540, Note_on_c, 1, 59, 127
3, 150600, Note_on_c, 1, 59, 0
3, 150600, Note_on_c, 1, 60, 127
3, 150660, Note_on_c, 1, 60, 0
3, 150660, Note_on_c, 1, 59, 127
3, 150720, Note_on_c, 1, 59, 0
3, 150720, Note_on_c, 1, 60, 127
3, 150780, Note_on_c, 1, 60, 0
3, 150780, Note_on_c, 1, 52, 127
3, 150840, Note_on_c, 1, 52, 0
3, 150840, Note_on_c, 1, 59, 127
3, 150900, Note_on_c, 1, 59, 0
3, 150900, Note_on_c, 1, 60, 127
3, 150960, Note_on_c, 1, 60, 0
3, 150960, Note_on_c, 1, 59, 127
3, 151200, Note_on_c, 1, 59, 0
3, 151320, Note_on_c, 1, 59, 127
3, 151320, Note_on_c, 1, 62, 127
3, 151560, Note_on_c, 1, 62, 0
3, 151560, Note_on_c, 1, 59, 0
3, 151680, Note_on_c, 1, 59, 127
3, 151680, Note_on_c, 1, 62, 127
3, 151920, Note_on_c, 1, 62, 0
3, 151920, Note_on_c, 1, 59, 0
3, 152040, Note_on_c, 1, 59, 127
3, 152040, Note_on_c, 1, 62, 127
3, 152280, Note_on_c, 1, 62, 0
3, 152280, Note_on_c, 1, 59, 0
3, 152400, Note_on_c, 1, 60, 127
3, 152640, Note_on_c, 1, 60, 0
3, 159720, Note_on_c, 1, 48, 127
3, 159720, Note_on_c, 1, 52, 127
3, 159720, Note_on_c, 1, 57, 127
3, 159840, Note_on_c, 1, 57, 0
3, 159840, Note_on_c, 1, 52, 0
3, 159840, Note_on_c, 1, 48, 0
3, 159840, Note_on_c, 1, 47, 127
3, 159840, Note_on_c, 1, 50, 127
3, 159840, Note_on_c, 1, 52, 127
3, 159960, Note_on_c, 1, 52, 0
3, 159960, Note_on_c, 1, 50, 0
3, 159960, Note_on_c, 1, 47, 0
3, 159960, Note_on_c, 1, 45, 127
3, 159960, Note_on_c, 1, 52, 127
3, 159960, Note_on_c, 1, 57, 127
3, 160320, Note_on_c, 1, 57, 0
3, 160320, Note_on_c, 1, 52, 0
3, 160320, Note_on_c, 1, 45, 0
3, 160320, End_track
4, 0, Start_track
4, 0, MIDI_port, 0
4, 0, Title_t, "Johann Sebastian Bach   (1685-1750)"
4, 0, Program_c, 2, 19
4, 0, Control_c, 2, 7, 100
4, 0, Control_c, 2, 10, 64
4, 8640, Note_on_c, 2, 33, 110
4, 22140, Note_on_c, 2, 33, 0
4, 22140, Note_on_c, 2, 33, 127
4, 22200, Note_on_c, 2, 33, 0
4, 22200, Note_on_c, 2, 36, 127
4, 22260, Note_on_c, 2, 36, 0
4, 22260, Note_on_c, 2, 33, 127
4, 22320, Note_on_c, 2, 33, 0
4, 22320, Note_on_c, 2, 40, 127
4, 22380, Note_on_c, 2, 40, 0
4, 22380, Note_on_c, 2, 36, 127
4, 22440, Note_on_c, 2, 36, 0
4, 22440, Note_on_c, 2, 40, 127
4, 22500, Note_on_c, 2, 40, 0
4, 22500, Note_on_c, 2, 36, 127
4, 22560, Note_on_c, 2, 36, 0
4, 22560, Note_on_c, 2, 45, 127
4, 22620, Note_on_c, 2, 45, 0
4, 22620, Note_on_c, 2, 40, 127
4, 22680, Note_on_c, 2, 40, 0
4, 22680, Note_on_c, 2, 45, 127
4, 22740, Note_on_c, 2, 45, 0
4, 22740, Note_on_c, 2, 40, 127
4, 22800, Note_on_c, 2, 40, 0
4, 22800, Note_on_c, 2, 48, 127
4, 22860, Note_on_c, 2, 48, 0
4, 22860, Note_on_c, 2, 39, 127
4, 22920, Note_on_c, 2, 39, 0
4, 22920, Note_on_c, 2, 40, 127
4, 23040, Note_on_c, 2, 40, 0
4, 23040, Note_on_c, 2, 40, 127
4, 23520, Note_on_c, 2, 40, 0
4, 23580, Note_on_c, 2, 40, 127
4, 23640, Note_on_c, 2, 40, 0
4, 23640, Note_on_c, 2, 44, 127
4, 23700, Note_on_c, 2, 44, 0
4, 23700, Note_on_c, 2, 40, 127
4, 23760, Note_on_c, 2, 40, 0
4, 23760, Note_on_c, 2, 47, 127
4, 23820, Note_on_c, 2, 47, 0
4, 23820, Note_on_c, 2, 40, 127
4, 23880, Note_on_c, 2, 40, 0
4, 23880, Note_on_c, 2, 44, 127
4, 23940, Note_on_c, 2, 44, 0
4, 23940, Note_on_c, 2, 40, 127
4, 24000, Note_on_c, 2, 40, 0
4, 24000, Note_on_c, 2, 48, 127
4, 24060, Note_on_c, 2, 48, 0
4, 24060, Note_on_c, 2, 39, 127
4, 24120, Note_on_c, 2, 39, 0
4, 24120, Note_on_c, 2, 42, 127
4, 24180, Note_on_c, 2, 42, 0
4, 24180, Note_on_c, 2, 39, 127
4, 24240, Note_on_c, 2, 39, 0
4, 24240, Note_on_c, 2, 47, 127
4, 24300, Note_on_c, 2, 47, 0
4, 24300, Note_on_c, 2, 38, 127
4, 24360, Note_on_c, 2, 38, 0
4, 24360, Note_on_c, 2, 41, 127
4, 24420, Note_on_c, 2, 41, 0
4, 24420, Note_on_c, 2, 38, 127
4, 24480, Note_on_c, 2, 38, 0
4, 24480, Note_on_c, 2, 47, 127
4, 24540, Note_on_c, 2, 47, 0
4, 24540, Note_on_c, 2, 37, 127
4, 24600, Note_on_c, 2, 37, 0
4, 24600, Note_on_c, 2, 40, 127
4, 24660, Note_on_c, 2, 40, 0
4, 24660, Note_on_c, 2, 37, 127
4, 24720, Note_on_c, 2, 37, 0
4, 24720, Note_on_c, 2, 45, 127
4, 24780, Note_on_c, 2, 45, 0
4, 24780, Note_on_c, 2, 36, 127
4, 24840, Note_on_c, 2, 36, 0
4, 24840, Note_on_c, 2, 40, 127
4, 24900, Note_on_c, 2, 40, 0
4, 24900, Note_on_c, 2, 36, 127
4, 24960, Note_on_c, 2, 36, 0
4, 24960, Note_on_c, 2, 45, 127
4, 25020, Note_on_c, 2, 45, 0
4, 25020, Note_on_c, 2, 35, 127
4, 25080, Note_on_c, 2, 35, 0
4, 25080, Note_on_c, 2, 39, 127
4, 25140, Note_on_c, 2, 39, 0
4, 25140, Note_on_c, 2, 35, 127
4, 25200, Note_on_c, 2, 35, 0
4, 25200, Note_on_c, 2, 44, 127
4, 25260, Note_on_c, 2, 44, 0
4, 25260, Note_on_c, 2, 35, 127
4, 25320, Note_on_c, 2, 35, 0
4, 25320, Note_on_c, 2, 38, 127
4, 25380, Note_on_c, 2, 38, 0
4, 25380, Note_on_c, 2, 35, 127
4, 25440, Note_on_c, 2, 35, 0
4, 25440, Note_on_c, 2, 43, 127
4, 25500, Note_on_c, 2, 43, 0
4, 25500, Note_on_c, 2, 37, 127
4, 25560, Note_on_c, 2, 37, 0
4, 25560, Note_on_c, 2, 40, 127
4, 25620, Note_on_c, 2, 40, 0
4, 25620, Note_on_c, 2, 33, 127
4, 25680, Note_on_c, 2, 33, 0
4, 25680, Note_on_c, 2, 41, 127
4, 25740, Note_on_c, 2, 41, 0
4, 25740, Note_on_c, 2, 37, 127
4, 25800, Note_on_c, 2, 37, 0
4, 25800, Note_on_c, 2, 38, 127
4, 25860, Note_on_c, 2, 38, 0
4, 25860, Note_on_c, 2, 32, 127
4, 25920, Note_on_c, 2, 32, 0
4, 25920, Note_on_c, 2, 37, 127
4, 25980, Note_on_c, 2, 37, 0
4, 25980, Note_on_c, 2, 33, 127
4, 26040, Note_on_c, 2, 33, 0
4, 26040, Note_on_c, 2, 40, 127
4, 26100, Note_on_c, 2, 40, 0
4, 26100, Note_on_c, 2, 37, 127
4, 26160, Note_on_c, 2, 37, 0
4, 26160, Note_on_c, 2, 43, 127
4, 26220, Note_on_c, 2, 43, 0
4, 26220, Note_on_c, 2, 40, 127
4, 26280, Note_on_c, 2, 40, 0
4, 26280, Note_on_c, 2, 46, 127
4, 26340, Note_on_c, 2, 46, 0
4, 26340, Note_on_c, 2, 43, 127
4, 26400, Note_on_c, 2, 43, 0
4, 26400, Note_on_c, 2, 49, 127
4, 26460, Note_on_c, 2, 49, 0
4, 26460, Note_on_c, 2, 43, 127
4, 26520, Note_on_c, 2, 43, 0
4, 26520, Note_on_c, 2, 45, 127
4, 26580, Note_on_c, 2, 45, 0
4, 26580, Note_on_c, 2, 40, 127
4, 26640, Note_on_c, 2, 40, 0
4, 26640, Note_on_c, 2, 41, 127
4, 27660, Note_on_c, 2, 41, 0
4, 27660, Note_on_c, 2, 40, 127
4, 27720, Note_on_c, 2, 40, 0
4, 27720, Note_on_c, 2, 41, 127
4, 27780, Note_on_c, 2, 41, 0
4, 27780, Note_on_c, 2, 38, 127
4, 27840, Note_on_c, 2, 38, 0
4, 27840, Note_on_c, 2, 44, 127
4, 29280, Note_on_c, 2, 44, 0
4, 29280, Note_on_c, 2, 33, 80
4, 30432, Note_on_c, 2, 33, 0
4, 30480, Note_on_c, 2, 45, 100
4, 30540, Note_on_c, 2, 45, 0
4, 30540, Note_on_c, 2, 43, 100
4, 30600, Note_on_c, 2, 43, 0
4, 30600, Note_on_c, 2, 45, 100
4, 30660, Note_on_c, 2, 45, 0
4, 30660, Note_on_c, 2, 40, 100
4, 30720, Note_on_c, 2, 40, 0
4, 30720, Note_on_c, 2, 42, 100
4, 32640, Note_on_c, 2, 42, 0
4, 32640, Note_on_c, 2, 43, 100
4, 33420, Note_on_c, 2, 43, 0
4, 33420, Note_on_c, 2, 43, 100
4, 33480, Note_on_c, 2, 43, 0
4, 33480, Note_on_c, 2, 38, 100
4, 33540, Note_on_c, 2, 38, 0
4, 33540, Note_on_c, 2, 43, 100
4, 33600, Note_on_c, 2, 43, 0
4, 33600, Note_on_c, 2, 40, 100
4, 33720, Note_on_c, 2, 40, 0
4, 33720, Note_on_c, 2, 40, 100
4, 33840, Note_on_c, 2, 40, 0
4, 33840, Note_on_c, 2, 40, 100
4, 33960, Note_on_c, 2, 40, 0
4, 33960, Note_on_c, 2, 40, 100
4, 34080, Note_on_c, 2, 40, 0
4, 34080, Note_on_c, 2, 41, 100
4, 34200, Note_on_c, 2, 41, 0
4, 34200, Note_on_c, 2, 41, 100
4, 34320, Note_on_c, 2, 41, 0
4, 34320, Note_on_c, 2, 41, 100
4, 34440, Note_on_c, 2, 41, 0
4, 34440, Note_on_c, 2, 41, 100
4, 34560, Note_on_c, 2, 41, 0
4, 34560, Note_on_c, 2, 41, 100
4, 34680, Note_on_c, 2, 41, 0
4, 34680, Note_on_c, 2, 41, 100
4, 34800, Note_on_c, 2, 41, 0
4, 34800, Note_on_c, 2, 40, 100
4, 34920, Note_on_c, 2, 40, 0
4, 34920, Note_on_c, 2, 40, 100
4, 35040, Note_on_c, 2, 40, 0
4, 35100, Note_on_c, 2, 38, 100
4, 35160, Note_on_c, 2, 38, 0
4, 35160, Note_on_c, 2, 41, 100
4, 35220, Note_on_c, 2, 41, 0
4, 35220, Note_on_c, 2, 38, 100
4, 35280, Note_on_c, 2, 38, 0
4, 35280, Note_on_c, 2, 43, 100
4, 35340, Note_on_c, 2, 43, 0
4, 35340, Note_on_c, 2, 31, 100
4, 35400, Note_on_c, 2, 31, 0
4, 35400, Note_on_c, 2, 38, 100
4, 35460, Note_on_c, 2, 38, 0
4, 35460, Note_on_c, 2, 31, 100
4, 35520, Note_on_c, 2, 31, 0
4, 35520, Note_on_c, 2, 36, 100
4, 35760, Note_on_c, 2, 36, 0
4, 36480, Note_on_c, 2, 36, 100
4, 36720, Note_on_c, 2, 36, 0
4, 37020, Note_on_c, 2, 35, 100
4, 37080, Note_on_c, 2, 35, 0
4, 37080, Note_on_c, 2, 38, 100
4, 37140, Note_on_c, 2, 38, 0
4, 37140, Note_on_c, 2, 35, 100
4, 37200, Note_on_c, 2, 35, 0
4, 37200, Note_on_c, 2, 40, 100
4, 37260, Note_on_c, 2, 40, 0
4, 37260, Note_on_c, 2, 28, 100
4, 37320, Note_on_c, 2, 28, 0
4, 37320, Note_on_c, 2, 32, 100
4, 37380, Note_on_c, 2, 32, 0
4, 37380, Note_on_c, 2, 28, 100
4, 37440, Note_on_c, 2, 28, 0
4, 37440, Note_on_c, 2, 33, 100
4, 37980, Note_on_c, 2, 33, 0
4, 37980, Note_on_c, 2, 45, 100
4, 38040, Note_on_c, 2, 45, 0
4, 38040, Note_on_c, 2, 44, 100
4, 38100, Note_on_c, 2, 44, 0
4, 38100, Note_on_c, 2, 45, 100
4, 38160, Note_on_c, 2, 45, 0
4, 38160, Note_on_c, 2, 40, 100
4, 38220, Note_on_c, 2, 40, 0
4, 38220, Note_on_c, 2, 48, 100
4, 38280, Note_on_c, 2, 48, 0
4, 38280, Note_on_c, 2, 40, 100
4, 38340, Note_on_c, 2, 40, 0
4, 38340, Note_on_c, 2, 43, 100
4, 38400, Note_on_c, 2, 43, 0
4, 38400, Note_on_c, 2, 42, 100
4, 38520, Note_on_c, 2, 42, 0
4, 38520, Note_on_c, 2, 42, 100
4, 38640, Note_on_c, 2, 42, 0
4, 38940, Note_on_c, 2, 43, 100
4, 39000, Note_on_c, 2, 43, 0
4, 39000, Note_on_c, 2, 42, 100
4, 39060, Note_on_c, 2, 42, 0
4, 39060, Note_on_c, 2, 43, 100
4, 39120, Note_on_c, 2, 43, 0
4, 39120, Note_on_c, 2, 38, 100
4, 39180, Note_on_c, 2, 38, 0
4, 39180, Note_on_c, 2, 47, 100
4, 39240, Note_on_c, 2, 47, 0
4, 39240, Note_on_c, 2, 38, 100
4, 39300, Note_on_c, 2, 38, 0
4, 39300, Note_on_c, 2, 41, 100
4, 39360, Note_on_c, 2, 41, 0
4, 39360, Note_on_c, 2, 40, 100
4, 39480, Note_on_c, 2, 40, 0
4, 39480, Note_on_c, 2, 28, 100
4, 39600, Note_on_c, 2, 28, 0
4, 39900, Note_on_c, 2, 41, 100
4, 39960, Note_on_c, 2, 41, 0
4, 39960, Note_on_c, 2, 40, 100
4, 40020, Note_on_c, 2, 40, 0
4, 40020, Note_on_c, 2, 41, 100
4, 40080, Note_on_c, 2, 41, 0
4, 40080, Note_on_c, 2, 36, 100
4, 40140, Note_on_c, 2, 36, 0
4, 40140, Note_on_c, 2, 45, 100
4, 40200, Note_on_c, 2, 45, 0
4, 40200, Note_on_c, 2, 36, 100
4, 40260, Note_on_c, 2, 36, 0
4, 40260, Note_on_c, 2, 40, 100
4, 40320, Note_on_c, 2, 40, 0
4, 40320, Note_on_c, 2, 38, 100
4, 40440, Note_on_c, 2, 38, 0
4, 40440, Note_on_c, 2, 26, 100
4, 40560, Note_on_c, 2, 26, 0
4, 40860, Note_on_c, 2, 40, 100
4, 40920, Note_on_c, 2, 40, 0
4, 40920, Note_on_c, 2, 38, 100
4, 40980, Note_on_c, 2, 38, 0
4, 40980, Note_on_c, 2, 40, 100
4, 41040, Note_on_c, 2, 40, 0
4, 41040, Note_on_c, 2, 35, 100
4, 41100, Note_on_c, 2, 35, 0
4, 41100, Note_on_c, 2, 44, 100
4, 41160, Note_on_c, 2, 44, 0
4, 41160, Note_on_c, 2, 35, 100
4, 41220, Note_on_c, 2, 35, 0
4, 41220, Note_on_c, 2, 38, 100
4, 41280, Note_on_c, 2, 38, 0
4, 41280, Note_on_c, 2, 36, 100
4, 41400, Note_on_c, 2, 36, 0
4, 41400, Note_on_c, 2, 36, 100
4, 41520, Note_on_c, 2, 36, 0
4, 41520, Note_on_c, 2, 36, 100
4, 41640, Note_on_c, 2, 36, 0
4, 41640, Note_on_c, 2, 36, 100
4, 41760, Note_on_c, 2, 36, 0
4, 41760, Note_on_c, 2, 36, 100
4, 41880, Note_on_c, 2, 36, 0
4, 41880, Note_on_c, 2, 36, 100
4, 42000, Note_on_c, 2, 36, 0
4, 42000, Note_on_c, 2, 35, 100
4, 42120, Note_on_c, 2, 35, 0
4, 42120, Note_on_c, 2, 35, 100
4, 42240, Note_on_c, 2, 35, 0
4, 42240, Note_on_c, 2, 35, 100
4, 42360, Note_on_c, 2, 35, 0
4, 42360, Note_on_c, 2, 35, 100
4, 42480, Note_on_c, 2, 35, 0
4, 42480, Note_on_c, 2, 33, 100
4, 42600, Note_on_c, 2, 33, 0
4, 42600, Note_on_c, 2, 33, 100
4, 42720, Note_on_c, 2, 33, 0
4, 42720, Note_on_c, 2, 33, 100
4, 42840, Note_on_c, 2, 33, 0
4, 42840, Note_on_c, 2, 33, 100
4, 42960, Note_on_c, 2, 33, 0
4, 42960, Note_on_c, 2, 32, 100
4, 43080, Note_on_c, 2, 32, 0
4, 43080, Note_on_c, 2, 32, 100
4, 43200, Note_on_c, 2, 32, 0
4, 43200, Note_on_c, 2, 33, 100
4, 43260, Note_on_c, 2, 33, 0
4, 43260, Note_on_c, 2, 45, 100
4, 43320, Note_on_c, 2, 45, 0
4, 43320, Note_on_c, 2, 44, 100
4, 43380, Note_on_c, 2, 44, 0
4, 43380, Note_on_c, 2, 45, 100
4, 43440, Note_on_c, 2, 45, 0
4, 43440, Note_on_c, 2, 40, 100
4, 43500, Note_on_c, 2, 40, 0
4, 43500, Note_on_c, 2, 48, 100
4, 43560, Note_on_c, 2, 48, 0
4, 43560, Note_on_c, 2, 40, 100
4, 43620, Note_on_c, 2, 40, 0
4, 43620, Note_on_c, 2, 45, 100
4, 43680, Note_on_c, 2, 45, 0
4, 43680, Note_on_c, 2, 36, 100
4, 43740, Note_on_c, 2, 36, 0
4, 43740, Note_on_c, 2, 40, 100
4, 43800, Note_on_c, 2, 40, 0
4, 43800, Note_on_c, 2, 39, 100
4, 43860, Note_on_c, 2, 39, 0
4, 43860, Note_on_c, 2, 40, 100
4, 43920, Note_on_c, 2, 40, 0
4, 43920, Note_on_c, 2, 36, 100
4, 43980, Note_on_c, 2, 36, 0
4, 43980, Note_on_c, 2, 45, 100
4, 44040, Note_on_c, 2, 45, 0
4, 44040, Note_on_c, 2, 36, 100
4, 44100, Note_on_c, 2, 36, 0
4, 44100, Note_on_c, 2, 40, 100
4, 44160, Note_on_c, 2, 40, 0
4, 44160, Note_on_c, 2, 33, 100
4, 44220, Note_on_c, 2, 33, 0
4, 44220, Note_on_c, 2, 36, 100
4, 44280, Note_on_c, 2, 36, 0
4, 44280, Note_on_c, 2, 35, 100
4, 44340, Note_on_c, 2, 35, 0
4, 44340, Note_on_c, 2, 36, 100
4, 44400, Note_on_c, 2, 36, 0
4, 44400, Note_on_c, 2, 33, 100
4, 44460, Note_on_c, 2, 33, 0
4, 44460, Note_on_c, 2, 40, 100
4, 44520, Note_on_c, 2, 40, 0
4, 44520, Note_on_c, 2, 33, 100
4, 44580, Note_on_c, 2, 33, 0
4, 44580, Note_on_c, 2, 36, 100
4, 44640, Note_on_c, 2, 36, 0
4, 44640, Note_on_c, 2, 28, 100
4, 46080, Note_on_c, 2, 28, 0
4, 46080, Note_on_c, 2, 33, 100
4, 47280, Note_on_c, 2, 33, 0
4, 47340, Note_on_c, 2, 38, 100
4, 47400, Note_on_c, 2, 38, 0
4, 47400, Note_on_c, 2, 37, 100
4, 47460, Note_on_c, 2, 37, 0
4, 47460, Note_on_c, 2, 38, 100
4, 47520, Note_on_c, 2, 38, 0
4, 47520, Note_on_c, 2, 33, 100
4, 47640, Note_on_c, 2, 33, 0
4, 47640, Note_on_c, 2, 45, 100
4, 47760, Note_on_c, 2, 45, 0
4, 47820, Note_on_c, 2, 38, 100
4, 47880, Note_on_c, 2, 38, 0
4, 47880, Note_on_c, 2, 37, 100
4, 47940, Note_on_c, 2, 37, 0
4, 47940, Note_on_c, 2, 38, 100
4, 48000, Note_on_c, 2, 38, 0
4, 48000, Note_on_c, 2, 33, 100
4, 48120, Note_on_c, 2, 33, 0
4, 48120, Note_on_c, 2, 45, 100
4, 48240, Note_on_c, 2, 45, 0
4, 48300, Note_on_c, 2, 41, 100
4, 48360, Note_on_c, 2, 41, 0
4, 48360, Note_on_c, 2, 40, 100
4, 48420, Note_on_c, 2, 40, 0
4, 48420, Note_on_c, 2, 41, 100
4, 48480, Note_on_c, 2, 41, 0
4, 48480, Note_on_c, 2, 38, 100
4, 48600, Note_on_c, 2, 38, 0
4, 48600, Note_on_c, 2, 45, 100
4, 48720, Note_on_c, 2, 45, 0
4, 48780, Note_on_c, 2, 41, 100
4, 48840, Note_on_c, 2, 41, 0
4, 48840, Note_on_c, 2, 40, 100
4, 48900, Note_on_c, 2, 40, 0
4, 48900, Note_on_c, 2, 41, 100
4, 48960, Note_on_c, 2, 41, 0
4, 48960, Note_on_c, 2, 38, 100
4, 49080, Note_on_c, 2, 38, 0
4, 49080, Note_on_c, 2, 45, 100
4, 49200, Note_on_c, 2, 45, 0
4, 49260, Note_on_c, 2, 45, 100
4, 49320, Note_on_c, 2, 45, 0
4, 49320, Note_on_c, 2, 43, 100
4, 49380, Note_on_c, 2, 43, 0
4, 49380, Note_on_c, 2, 45, 100
4, 49440, Note_on_c, 2, 45, 0
4, 49440, Note_on_c, 2, 41, 100
4, 49560, Note_on_c, 2, 41, 0
4, 49560, Note_on_c, 2, 50, 100
4, 49680, Note_on_c, 2, 50, 0
4, 49740, Note_on_c, 2, 47, 100
4, 49800, Note_on_c, 2, 47, 0
4, 49800, Note_on_c, 2, 44, 100
4, 49860, Note_on_c, 2, 44, 0
4, 49860, Note_on_c, 2, 47, 100
4, 49920, Note_on_c, 2, 47, 0
4, 49920, Note_on_c, 2, 33, 100
4, 50880, Note_on_c, 2, 33, 0
4, 69960, Note_on_c, 2, 40, 127
4, 70080, Note_on_c, 2, 40, 0
4, 70080, Note_on_c, 2, 43, 127
4, 70140, Note_on_c, 2, 43, 0
4, 70140, Note_on_c, 2, 42, 127
4, 70200, Note_on_c, 2, 42, 0
4, 70200, Note_on_c, 2, 43, 127
4, 70260, Note_on_c, 2, 43, 0
4, 70260, Note_on_c, 2, 40, 127
4, 70320, Note_on_c, 2, 40, 0
4, 70320, Note_on_c, 2, 42, 127
4, 70410, Note_on_c, 2, 42, 0
4, 70440, Note_on_c, 2, 35, 127
4, 70560, Note_on_c, 2, 35, 0
4, 70560, Note_on_c, 2, 47, 127
4, 70620, Note_on_c, 2, 47, 0
4, 70620, Note_on_c, 2, 42, 127
4, 70680, Note_on_c, 2, 42, 0
4, 70680, Note_on_c, 2, 43, 127
4, 70770, Note_on_c, 2, 43, 0
4, 70800, Note_on_c, 2, 40, 127
4, 70920, Note_on_c, 2, 40, 0
4, 70920, Note_on_c, 2, 47, 127
4, 71040, Note_on_c, 2, 47, 0
4, 71040, Note_on_c, 2, 48, 127
4, 71100, Note_on_c, 2, 48, 0
4, 71100, Note_on_c, 2, 47, 127
4, 71160, Note_on_c, 2, 47, 0
4, 71160, Note_on_c, 2, 48, 127
4, 71220, Note_on_c, 2, 48, 0
4, 71220, Note_on_c, 2, 45, 127
4, 71280, Note_on_c, 2, 45, 0
4, 71280, Note_on_c, 2, 48, 127
4, 71340, Note_on_c, 2, 48, 0
4, 71340, Note_on_c, 2, 43, 127
4, 71400, Note_on_c, 2, 43, 0
4, 71400, Note_on_c, 2, 48, 127
4, 71460, Note_on_c, 2, 48, 0
4, 71460, Note_on_c, 2, 45, 127
4, 71520, Note_on_c, 2, 45, 0
4, 71520, Note_on_c, 2, 48, 127
4, 71580, Note_on_c, 2, 48, 0
4, 71580, Note_on_c, 2, 42, 127
4, 71640, Note_on_c, 2, 42, 0
4, 71640, Note_on_c, 2, 48, 127
4, 71700, Note_on_c, 2, 48, 0
4, 71700, Note_on_c, 2, 38, 127
4, 71760, Note_on_c, 2, 38, 0
4, 71760, Note_on_c, 2, 47, 127
4, 71820, Note_on_c, 2, 47, 0
4, 71820, Note_on_c, 2, 45, 127
4, 71880, Note_on_c, 2, 45, 0
4, 71880, Note_on_c, 2, 47, 127
4, 71940, Note_on_c, 2, 47, 0
4, 71940, Note_on_c, 2, 43, 127
4, 72000, Note_on_c, 2, 43, 0
4, 72000, Note_on_c, 2, 47, 127
4, 72060, Note_on_c, 2, 47, 0
4, 72060, Note_on_c, 2, 42, 127
4, 72120, Note_on_c, 2, 42, 0
4, 72120, Note_on_c, 2, 47, 127
4, 72180, Note_on_c, 2, 47, 0
4, 72180, Note_on_c, 2, 43, 127
4, 72240, Note_on_c, 2, 43, 0
4, 72240, Note_on_c, 2, 47, 127
4, 72300, Note_on_c, 2, 47, 0
4, 72300, Note_on_c, 2, 40, 127
4, 72360, Note_on_c, 2, 40, 0
4, 72360, Note_on_c, 2, 47, 127
4, 72420, Note_on_c, 2, 47, 0
4, 72420, Note_on_c, 2, 36, 127
4, 72480, Note_on_c, 2, 36, 0
4, 72480, Note_on_c, 2, 45, 127
4, 72540, Note_on_c, 2, 45, 0
4, 72540, Note_on_c, 2, 43, 127
4, 72600, Note_on_c, 2, 43, 0
4, 72600, Note_on_c, 2, 45, 127
4, 72660, Note_on_c, 2, 45, 0
4, 72660, Note_on_c, 2, 42, 127
4, 72720, Note_on_c, 2, 42, 0
4, 72720, Note_on_c, 2, 45, 127
4, 72780, Note_on_c, 2, 45, 0
4, 72780, Note_on_c, 2, 40, 127
4, 72840, Note_on_c, 2, 40, 0
4, 72840, Note_on_c, 2, 45, 127
4, 72900, Note_on_c, 2, 45, 0
4, 72900, Note_on_c, 2, 42, 127
4, 72960, Note_on_c, 2, 42, 0
4, 72960, Note_on_c, 2, 45, 127
4, 73020, Note_on_c, 2, 45, 0
4, 73020, Note_on_c, 2, 39, 127
4, 73080, Note_on_c, 2, 39, 0
4, 73080, Note_on_c, 2, 45, 127
4, 73140, Note_on_c, 2, 45, 0
4, 73140, Note_on_c, 2, 35, 127
4, 73200, Note_on_c, 2, 35, 0
4, 73200, Note_on_c, 2, 43, 127
4, 73260, Note_on_c, 2, 43, 0
4, 73260, Note_on_c, 2, 42, 127
4, 73320, Note_on_c, 2, 42, 0
4, 73320, Note_on_c, 2, 43, 127
4, 73380, Note_on_c, 2, 43, 0
4, 73380, Note_on_c, 2, 39, 127
4, 73440, Note_on_c, 2, 39, 0
4, 73440, Note_on_c, 2, 40, 127
4, 73500, Note_on_c, 2, 40, 0
4, 73500, Note_on_c, 2, 35, 127
4, 73560, Note_on_c, 2, 35, 0
4, 73560, Note_on_c, 2, 37, 127
4, 73620, Note_on_c, 2, 37, 0
4, 73620, Note_on_c, 2, 35, 127
4, 73680, Note_on_c, 2, 35, 0
4, 73680, Note_on_c, 2, 37, 127
4, 73740, Note_on_c, 2, 37, 0
4, 73740, Note_on_c, 2, 33, 127
4, 73800, Note_on_c, 2, 33, 0
4, 73800, Note_on_c, 2, 40, 127
4, 73860, Note_on_c, 2, 40, 0
4, 73860, Note_on_c, 2, 37, 127
4, 73920, Note_on_c, 2, 37, 0
4, 73920, Note_on_c, 2, 41, 127
4, 73980, Note_on_c, 2, 41, 0
4, 73980, Note_on_c, 2, 40, 127
4, 74040, Note_on_c, 2, 40, 0
4, 74040, Note_on_c, 2, 41, 127
4, 74100, Note_on_c, 2, 41, 0
4, 74100, Note_on_c, 2, 37, 127
4, 74160, Note_on_c, 2, 37, 0
4, 74160, Note_on_c, 2, 38, 127
4, 74220, Note_on_c, 2, 38, 0
4, 74220, Note_on_c, 2, 33, 127
4, 74280, Note_on_c, 2, 33, 0
4, 74280, Note_on_c, 2, 35, 127
4, 74340, Note_on_c, 2, 35, 0
4, 74340, Note_on_c, 2, 33, 127
4, 74400, Note_on_c, 2, 33, 0
4, 74400, Note_on_c, 2, 35, 127
4, 74460, Note_on_c, 2, 35, 0
4, 74460, Note_on_c, 2, 31, 127
4, 74520, Note_on_c, 2, 31, 0
4, 74520, Note_on_c, 2, 38, 127
4, 74580, Note_on_c, 2, 38, 0
4, 74580, Note_on_c, 2, 35, 127
4, 74640, Note_on_c, 2, 35, 0
4, 74640, Note_on_c, 2, 40, 127
4, 74700, Note_on_c, 2, 40, 0
4, 74700, Note_on_c, 2, 38, 127
4, 74760, Note_on_c, 2, 38, 0
4, 74760, Note_on_c, 2, 40, 127
4, 74820, Note_on_c, 2, 40, 0
4, 74820, Note_on_c, 2, 35, 127
4, 74880, Note_on_c, 2, 35, 0
4, 74880, Note_on_c, 2, 36, 127
4, 74940, Note_on_c, 2, 36, 0
4, 74940, Note_on_c, 2, 32, 127
4, 75000, Note_on_c, 2, 32, 0
4, 75000, Note_on_c, 2, 33, 127
4, 75060, Note_on_c, 2, 33, 0
4, 75060, Note_on_c, 2, 31, 127
4, 75120, Note_on_c, 2, 31, 0
4, 75120, Note_on_c, 2, 33, 127
4, 75180, Note_on_c, 2, 33, 0
4, 75180, Note_on_c, 2, 29, 127
4, 75240, Note_on_c, 2, 29, 0
4, 75240, Note_on_c, 2, 36, 127
4, 75300, Note_on_c, 2, 36, 0
4, 75300, Note_on_c, 2, 33, 127
4, 75360, Note_on_c, 2, 33, 0
4, 75360, Note_on_c, 2, 38, 127
4, 75420, Note_on_c, 2, 38, 0
4, 75420, Note_on_c, 2, 36, 125
4, 75480, Note_on_c, 2, 36, 0
4, 75480, Note_on_c, 2, 38, 122
4, 75540, Note_on_c, 2, 38, 0
4, 75540, Note_on_c, 2, 35, 120
4, 75600, Note_on_c, 2, 35, 0
4, 75600, Note_on_c, 2, 41, 118
4, 75660, Note_on_c, 2, 41, 0
4, 75660, Note_on_c, 2, 38, 115
4, 75720, Note_on_c, 2, 38, 0
4, 75720, Note_on_c, 2, 44, 113
4, 75780, Note_on_c, 2, 44, 0
4, 75780, Note_on_c, 2, 42, 111
4, 75840, Note_on_c, 2, 42, 0
4, 75840, Note_on_c, 2, 44, 108
4, 75900, Note_on_c, 2, 44, 0
4, 75900, Note_on_c, 2, 40, 106
4, 75960, Note_on_c, 2, 40, 0
4, 75960, Note_on_c, 2, 47, 103
4, 76020, Note_on_c, 2, 47, 0
4, 76020, Note_on_c, 2, 44, 101
4, 76080, Note_on_c, 2, 44, 0
4, 76080, Note_on_c, 2, 45, 100
4, 76200, Note_on_c, 2, 45, 0
4, 76200, Note_on_c, 2, 33, 100
4, 76320, Note_on_c, 2, 33, 0
4, 76560, Note_on_c, 2, 38, 100
4, 76680, Note_on_c, 2, 38, 0
4, 76680, Note_on_c, 2, 41, 100
4, 76800, Note_on_c, 2, 41, 0
4, 76800, Note_on_c, 2, 43, 100
4, 76920, Note_on_c, 2, 43, 0
4, 76920, Note_on_c, 2, 31, 100
4, 77040, Note_on_c, 2, 31, 0
4, 77280, Note_on_c, 2, 36, 100
4, 77400, Note_on_c, 2, 36, 0
4, 77400, Note_on_c, 2, 40, 100
4, 77520, Note_on_c, 2, 40, 0
4, 77520, Note_on_c, 2, 41, 100
4, 77640, Note_on_c, 2, 41, 0
4, 77640, Note_on_c, 2, 45, 100
4, 77760, Note_on_c, 2, 45, 0
4, 77760, Note_on_c, 2, 41, 100
4, 77880, Note_on_c, 2, 41, 0
4, 77880, Note_on_c, 2, 38, 100
4, 78000, Note_on_c, 2, 38, 0
4, 78000, Note_on_c, 2, 35, 100
4, 78120, Note_on_c, 2, 35, 0
4, 78120, Note_on_c, 2, 38, 100
4, 78240, Note_on_c, 2, 38, 0
4, 78240, Note_on_c, 2, 40, 100
4, 78360, Note_on_c, 2, 40, 0
4, 78360, Note_on_c, 2, 44, 100
4, 78480, Note_on_c, 2, 44, 0
4, 78480, Note_on_c, 2, 40, 100
4, 78600, Note_on_c, 2, 40, 0
4, 78600, Note_on_c, 2, 36, 100
4, 78720, Note_on_c, 2, 36, 0
4, 78720, Note_on_c, 2, 33, 100
4, 78840, Note_on_c, 2, 33, 0
4, 78840, Note_on_c, 2, 45, 100
4, 78960, Note_on_c, 2, 45, 0
4, 78960, Note_on_c, 2, 45, 100
4, 79020, Note_on_c, 2, 45, 0
4, 79020, Note_on_c, 2, 48, 100
4, 79080, Note_on_c, 2, 48, 0
4, 79080, Note_on_c, 2, 47, 100
4, 79140, Note_on_c, 2, 47, 0
4, 79140, Note_on_c, 2, 48, 100
4, 79200, Note_on_c, 2, 48, 0
4, 79200, Note_on_c, 2, 45, 100
4, 79260, Note_on_c, 2, 45, 0
4, 79260, Note_on_c, 2, 47, 100
4, 79320, Note_on_c, 2, 47, 0
4, 79320, Note_on_c, 2, 44, 100
4, 79380, Note_on_c, 2, 44, 0
4, 79380, Note_on_c, 2, 47, 100
4, 79440, Note_on_c, 2, 47, 0
4, 79440, Note_on_c, 2, 45, 100
4, 79500, Note_on_c, 2, 45, 0
4, 79500, Note_on_c, 2, 47, 100
4, 79560, Note_on_c, 2, 47, 0
4, 79560, Note_on_c, 2, 44, 100
4, 79620, Note_on_c, 2, 44, 0
4, 79620, Note_on_c, 2, 45, 100
4, 79680, Note_on_c, 2, 45, 0
4, 79680, Note_on_c, 2, 42, 100
4, 79740, Note_on_c, 2, 42, 0
4, 79740, Note_on_c, 2, 45, 100
4, 79800, Note_on_c, 2, 45, 0
4, 79800, Note_on_c, 2, 44, 100
4, 79860, Note_on_c, 2, 44, 0
4, 79860, Note_on_c, 2, 45, 100
4, 79920, Note_on_c, 2, 45, 0
4, 79920, Note_on_c, 2, 42, 100
4, 79980, Note_on_c, 2, 42, 0
4, 79980, Note_on_c, 2, 43, 100
4, 80040, Note_on_c, 2, 43, 0
4, 80040, Note_on_c, 2, 45, 100
4, 80100, Note_on_c, 2, 45, 0
4, 80100, Note_on_c, 2, 40, 100
4, 80160, Note_on_c, 2, 40, 0
4, 80160, Note_on_c, 2, 41, 100
4, 80220, Note_on_c, 2, 41, 0
4, 80220, Note_on_c, 2, 40, 100
4, 80280, Note_on_c, 2, 40, 0
4, 80280, Note_on_c, 2, 41, 100
4, 80340, Note_on_c, 2, 41, 0
4, 80340, Note_on_c, 2, 36, 100
4, 80400, Note_on_c, 2, 36, 0
4, 80400, Note_on_c, 2, 38, 100
4, 80640, Note_on_c, 2, 38, 0
4, 80760, Note_on_c, 2, 40, 100
4, 81000, Note_on_c, 2, 40, 0
4, 81120, Note_on_c, 2, 41, 100
4, 81360, Note_on_c, 2, 41, 0
4, 81480, Note_on_c, 2, 36, 100
4, 81720, Note_on_c, 2, 36, 0
4, 81840, Note_on_c, 2, 38, 100
4, 82032, Note_on_c, 2, 38, 0
4, 82080, Note_on_c, 2, 32, 100
4, 82176, Note_on_c, 2, 32, 0
4, 82200, Note_on_c, 2, 33, 100
4, 82296, Note_on_c, 2, 33, 0
4, 82320, Note_on_c, 2, 40, 100
4, 82416, Note_on_c, 2, 40, 0
4, 82440, Note_on_c, 2, 28, 100
4, 82536, Note_on_c, 2, 28, 0
4, 82560, Note_on_c, 2, 33, 100
4, 82848, Note_on_c, 2, 33, 0
4, 82920, Note_on_c, 2, 40, 100
4, 83208, Note_on_c, 2, 40, 0
4, 83280, Note_on_c, 2, 33, 100
4, 83400, Note_on_c, 2, 33, 0
4, 83400, Note_on_c, 2, 36, 100
4, 83460, Note_on_c, 2, 36, 0
4, 83460, Note_on_c, 2, 35, 100
4, 83520, Note_on_c, 2, 35, 0
4, 83520, Note_on_c, 2, 36, 100
4, 83580, Note_on_c, 2, 36, 0
4, 83580, Note_on_c, 2, 33, 100
4, 83640, Note_on_c, 2, 33, 0
4, 83640, Note_on_c, 2, 38, 100
4, 83880, Note_on_c, 2, 38, 0
4, 83880, Note_on_c, 2, 33, 100
4, 84000, Note_on_c, 2, 33, 0
4, 84000, Note_on_c, 2, 35, 100
4, 84120, Note_on_c, 2, 35, 0
4, 84120, Note_on_c, 2, 31, 100
4, 84240, Note_on_c, 2, 31, 0
4, 84240, Note_on_c, 2, 35, 100
4, 84360, Note_on_c, 2, 35, 0
4, 84360, Note_on_c, 2, 36, 100
4, 84600, Note_on_c, 2, 36, 0
4, 84720, Note_on_c, 2, 33, 100
4, 84840, Note_on_c, 2, 33, 0
4, 84840, Note_on_c, 2, 29, 100
4, 84960, Note_on_c, 2, 29, 0
4, 84960, Note_on_c, 2, 33, 100
4, 85080, Note_on_c, 2, 33, 0
4, 85080, Note_on_c, 2, 35, 100
4, 85320, Note_on_c, 2, 35, 0
4, 85440, Note_on_c, 2, 32, 100
4, 85560, Note_on_c, 2, 32, 0
4, 85560, Note_on_c, 2, 28, 100
4, 85680, Note_on_c, 2, 28, 0
4, 85680, Note_on_c, 2, 32, 100
4, 85800, Note_on_c, 2, 32, 0
4, 85800, Note_on_c, 2, 33, 100
4, 85920, Note_on_c, 2, 33, 0
4, 86160, Note_on_c, 2, 40, 100
4, 86400, Note_on_c, 2, 40, 0
4, 86520, Note_on_c, 2, 47, 100
4, 86760, Note_on_c, 2, 47, 0
4, 86760, Note_on_c, 2, 43, 100
4, 86940, Note_on_c, 2, 43, 0
4, 86940, Note_on_c, 2, 45, 100
4, 87000, Note_on_c, 2, 45, 0
4, 87000, Note_on_c, 2, 47, 100
4, 87120, Note_on_c, 2, 47, 0
4, 87120, Note_on_c, 2, 35, 100
4, 87240, Note_on_c, 2, 35, 0
4, 87240, Note_on_c, 2, 40, 100
4, 87480, Note_on_c, 2, 40, 0
4, 87600, Note_on_c, 2, 28, 100
4, 87840, Note_on_c, 2, 28, 0
4, 119640, Note_on_c, 2, 33, 127
4, 119760, Note_on_c, 2, 33, 0
4, 119760, Note_on_c, 2, 36, 127
4, 119820, Note_on_c, 2, 36, 0
4, 119820, Note_on_c, 2, 35, 127
4, 119880, Note_on_c, 2, 35, 0
4, 119880, Note_on_c, 2, 36, 127
4, 119940, Note_on_c, 2, 36, 0
4, 119940, Note_on_c, 2, 33, 127
4, 120000, Note_on_c, 2, 33, 0
4, 120000, Note_on_c, 2, 35, 127
4, 120084, Note_on_c, 2, 35, 0
4, 120120, Note_on_c, 2, 28, 127
4, 120240, Note_on_c, 2, 28, 0
4, 120240, Note_on_c, 2, 40, 127
4, 120300, Note_on_c, 2, 40, 0
4, 120300, Note_on_c, 2, 35, 127
4, 120360, Note_on_c, 2, 35, 0
4, 120360, Note_on_c, 2, 36, 127
4, 120444, Note_on_c, 2, 36, 0
4, 120480, Note_on_c, 2, 33, 127
4, 120600, Note_on_c, 2, 33, 0
4, 120600, Note_on_c, 2, 45, 127
4, 120720, Note_on_c, 2, 45, 127
4, 120840, Note_on_c, 2, 45, 0
4, 120840, Note_on_c, 2, 44, 127
4, 121080, Note_on_c, 2, 44, 0
4, 121080, Note_on_c, 2, 45, 127
4, 121140, Note_on_c, 2, 45, 0
4, 121140, Note_on_c, 2, 33, 127
4, 121200, Note_on_c, 2, 33, 0
4, 121200, Note_on_c, 2, 36, 127
4, 121260, Note_on_c, 2, 36, 0
4, 121260, Note_on_c, 2, 35, 127
4, 121320, Note_on_c, 2, 35, 0
4, 121320, Note_on_c, 2, 36, 127
4, 121380, Note_on_c, 2, 36, 0
4, 121380, Note_on_c, 2, 33, 127
4, 121440, Note_on_c, 2, 33, 0
4, 121440, Note_on_c, 2, 38, 115
4, 121680, Note_on_c, 2, 38, 0
4, 121920, Note_on_c, 2, 35, 115
4, 121980, Note_on_c, 2, 35, 0
4, 121980, Note_on_c, 2, 33, 115
4, 122040, Note_on_c, 2, 33, 0
4, 122040, Note_on_c, 2, 35, 115
4, 122100, Note_on_c, 2, 35, 0
4, 122100, Note_on_c, 2, 31, 115
4, 122160, Note_on_c, 2, 31, 0
4, 122160, Note_on_c, 2, 36, 115
4, 122400, Note_on_c, 2, 36, 0
4, 122640, Note_on_c, 2, 33, 115
4, 122700, Note_on_c, 2, 33, 0
4, 122700, Note_on_c, 2, 31, 115
4, 122760, Note_on_c, 2, 31, 0
4, 122760, Note_on_c, 2, 33, 115
4, 122820, Note_on_c, 2, 33, 0
4, 122820, Note_on_c, 2, 29, 115
4, 122880, Note_on_c, 2, 29, 0
4, 122880, Note_on_c, 2, 35, 115
4, 123120, Note_on_c, 2, 35, 0
4, 123360, Note_on_c, 2, 32, 115
4, 123420, Note_on_c, 2, 32, 0
4, 123420, Note_on_c, 2, 30, 115
4, 123480, Note_on_c, 2, 30, 0
4, 123480, Note_on_c, 2, 32, 115
4, 123540, Note_on_c, 2, 32, 0
4, 123540, Note_on_c, 2, 28, 115
4, 123600, Note_on_c, 2, 28, 0
4, 123600, Note_on_c, 2, 33, 115
4, 123840, Note_on_c, 2, 33, 0
4, 124320, Note_on_c, 2, 33, 127
4, 124560, Note_on_c, 2, 33, 0
4, 125040, Note_on_c, 2, 33, 127
4, 125280, Note_on_c, 2, 33, 0
4, 125760, Note_on_c, 2, 40, 127
4, 125880, Note_on_c, 2, 40, 0
4, 125880, Note_on_c, 2, 42, 127
4, 126000, Note_on_c, 2, 42, 0
4, 126000, Note_on_c, 2, 44, 127
4, 126120, Note_on_c, 2, 44, 0
4, 126120, Note_on_c, 2, 45, 127
4, 126240, Note_on_c, 2, 45, 0
4, 126240, Note_on_c, 2, 33, 127
4, 126360, Note_on_c, 2, 33, 0
4, 126360, Note_on_c, 2, 45, 127
4, 126480, Note_on_c, 2, 45, 0
4, 126480, Note_on_c, 2, 38, 127
4, 126600, Note_on_c, 2, 38, 0
4, 126600, Note_on_c, 2, 40, 127
4, 126720, Note_on_c, 2, 40, 0
4, 126720, Note_on_c, 2, 41, 127
4, 126840, Note_on_c, 2, 41, 0
4, 126840, Note_on_c, 2, 43, 127
4, 126960, Note_on_c, 2, 43, 0
4, 126960, Note_on_c, 2, 31, 127
4, 127080, Note_on_c, 2, 31, 0
4, 127080, Note_on_c, 2, 43, 127
4, 127140, Note_on_c, 2, 43, 0
4, 127140, Note_on_c, 2, 45, 127
4, 127200, Note_on_c, 2, 45, 0
4, 127200, Note_on_c, 2, 47, 127
4, 127320, Note_on_c, 2, 47, 0
4, 127320, Note_on_c, 2, 45, 127
4, 127440, Note_on_c, 2, 45, 0
4, 127440, Note_on_c, 2, 43, 127
4, 127560, Note_on_c, 2, 43, 0
4, 127560, Note_on_c, 2, 48, 127
4, 127680, Note_on_c, 2, 48, 0
4, 127680, Note_on_c, 2, 36, 127
4, 127800, Note_on_c, 2, 36, 0
4, 127800, Note_on_c, 2, 40, 127
4, 127920, Note_on_c, 2, 40, 0
4, 127920, Note_on_c, 2, 45, 127
4, 128820, Note_on_c, 2, 45, 0
4, 128820, Note_on_c, 2, 43, 127
4, 128880, Note_on_c, 2, 43, 0
4, 128880, Note_on_c, 2, 45, 127
4, 128940, Note_on_c, 2, 45, 0
4, 128940, Note_on_c, 2, 42, 127
4, 129000, Note_on_c, 2, 42, 0
4, 129000, Note_on_c, 2, 43, 127
4, 129180, Note_on_c, 2, 43, 0
4, 129180, Note_on_c, 2, 42, 127
4, 129240, Note_on_c, 2, 42, 0
4, 129240, Note_on_c, 2, 43, 127
4, 129300, Note_on_c, 2, 43, 0
4, 129300, Note_on_c, 2, 40, 127
4, 129360, Note_on_c, 2, 40, 0
4, 129360, Note_on_c, 2, 48, 127
4, 129540, Note_on_c, 2, 48, 0
4, 129540, Note_on_c, 2, 47, 127
4, 129600, Note_on_c, 2, 47, 0
4, 129600, Note_on_c, 2, 48, 127
4, 129660, Note_on_c, 2, 48, 0
4, 129660, Note_on_c, 2, 45, 127
4, 129720, Note_on_c, 2, 45, 0
4, 129720, Note_on_c, 2, 47, 127
4, 129780, Note_on_c, 2, 47, 0
4, 129780, Note_on_c, 2, 45, 127
4, 129840, Note_on_c, 2, 45, 0
4, 129840, Note_on_c, 2, 47, 127
4, 129900, Note_on_c, 2, 47, 0
4, 129900, Note_on_c, 2, 43, 127
4, 129960, Note_on_c, 2, 43, 0
4, 129960, Note_on_c, 2, 45, 127
4, 130020, Note_on_c, 2, 45, 0
4, 130020, Note_on_c, 2, 42, 127
4, 130080, Note_on_c, 2, 42, 0
4, 130080, Note_on_c, 2, 43, 127
4, 130140, Note_on_c, 2, 43, 0
4, 130140, Note_on_c, 2, 42, 127
4, 130200, Note_on_c, 2, 42, 0
4, 130200, Note_on_c, 2, 43, 127
4, 130260, Note_on_c, 2, 43, 0
4, 130260, Note_on_c, 2, 40, 127
4, 130320, Note_on_c, 2, 40, 0
4, 130320, Note_on_c, 2, 42, 127
4, 130380, Note_on_c, 2, 42, 0
4, 130380, Note_on_c, 2, 38, 127
4, 130440, Note_on_c, 2, 38, 0
4, 130440, Note_on_c, 2, 40, 127
4, 130500, Note_on_c, 2, 40, 0
4, 130500, Note_on_c, 2, 38, 127
4, 130560, Note_on_c, 2, 38, 0
4, 130560, Note_on_c, 2, 40, 127
4, 130620, Note_on_c, 2, 40, 0
4, 130620, Note_on_c, 2, 36, 127
4, 130680, Note_on_c, 2, 36, 0
4, 130680, Note_on_c, 2, 38, 127
4, 130740, Note_on_c, 2, 38, 0
4, 130740, Note_on_c, 2, 35, 127
4, 130800, Note_on_c, 2, 35, 0
4, 130800, Note_on_c, 2, 36, 127
4, 130860, Note_on_c, 2, 36, 0
4, 130860, Note_on_c, 2, 35, 127
4, 130920, Note_on_c, 2, 35, 0
4, 130920, Note_on_c, 2, 36, 127
4, 130980, Note_on_c, 2, 36, 0
4, 130980, Note_on_c, 2, 33, 127
4, 131040, Note_on_c, 2, 33, 0
4, 131040, Note_on_c, 2, 35, 127
4, 131100, Note_on_c, 2, 35, 0
4, 131100, Note_on_c, 2, 31, 127
4, 131160, Note_on_c, 2, 31, 0
4, 131160, Note_on_c, 2, 33, 127
4, 131400, Note_on_c, 2, 33, 0
4, 131400, Note_on_c, 2, 31, 127
4, 131520, Note_on_c, 2, 31, 0
4, 131520, Note_on_c, 2, 30, 127
4, 131640, Note_on_c, 2, 30, 0
4, 131640, Note_on_c, 2, 28, 127
4, 131760, Note_on_c, 2, 28, 0
4, 131760, Note_on_c, 2, 27, 127
4, 131880, Note_on_c, 2, 27, 0
4, 131880, Note_on_c, 2, 28, 127
4, 132000, Note_on_c, 2, 28, 0
4, 132000, Note_on_c, 2, 35, 127
4, 132240, Note_on_c, 2, 35, 0
4, 132240, Note_on_c, 2, 28, 127
4, 132480, Note_on_c, 2, 28, 0
4, 132600, Note_on_c, 2, 35, 127
4, 132840, Note_on_c, 2, 35, 0
4, 132960, Note_on_c, 2, 40, 127
4, 133200, Note_on_c, 2, 40, 0
4, 133320, Note_on_c, 2, 47, 127
4, 133560, Note_on_c, 2, 47, 0
4, 133680, Note_on_c, 2, 40, 127
4, 133920, Note_on_c, 2, 40, 0
4, 134040, Note_on_c, 2, 35, 127
4, 134280, Note_on_c, 2, 35, 0
4, 134400, Note_on_c, 2, 28, 127
4, 134640, Note_on_c, 2, 28, 0
4, 134760, Note_on_c, 2, 33, 127
4, 135000, Note_on_c, 2, 33, 0
4, 135120, Note_on_c, 2, 26, 127
4, 135360, Note_on_c, 2, 26, 0
4, 135480, Note_on_c, 2, 31, 127
4, 135720, Note_on_c, 2, 31, 0
4, 135840, Note_on_c, 2, 24, 127
4, 136080, Note_on_c, 2, 24, 0
4, 136200, Note_on_c, 2, 30, 127
4, 136440, Note_on_c, 2, 30, 0
4, 136560, Note_on_c, 2, 35, 127
4, 136920, Note_on_c, 2, 35, 0
4, 136920, Note_on_c, 2, 43, 127
4, 136980, Note_on_c, 2, 43, 0
4, 136980, Note_on_c, 2, 42, 127
4, 137040, Note_on_c, 2, 42, 0
4, 137040, Note_on_c, 2, 43, 127
4, 137100, Note_on_c, 2, 43, 0
4, 137100, Note_on_c, 2, 40, 127
4, 137160, Note_on_c, 2, 40, 0
4, 137160, Note_on_c, 2, 43, 127
4, 137220, Note_on_c, 2, 43, 0
4, 137220, Note_on_c, 2, 38, 127
4, 137280, Note_on_c, 2, 38, 0
4, 137280, Note_on_c, 2, 43, 127
4, 137340, Note_on_c, 2, 43, 0
4, 137340, Note_on_c, 2, 40, 127
4, 137400, Note_on_c, 2, 40, 0
4, 137400, Note_on_c, 2, 43, 127
4, 137460, Note_on_c, 2, 43, 0
4, 137460, Note_on_c, 2, 37, 127
4, 137520, Note_on_c, 2, 37, 0
4, 137520, Note_on_c, 2, 43, 127
4, 137580, Note_on_c, 2, 43, 0
4, 137580, Note_on_c, 2, 33, 127
4, 137640, Note_on_c, 2, 33, 0
4, 137640, Note_on_c, 2, 41, 127
4, 137700, Note_on_c, 2, 41, 0
4, 137700, Note_on_c, 2, 40, 127
4, 137760, Note_on_c, 2, 40, 0
4, 137760, Note_on_c, 2, 41, 127
4, 137820, Note_on_c, 2, 41, 0
4, 137820, Note_on_c, 2, 38, 127
4, 137880, Note_on_c, 2, 38, 0
4, 137880, Note_on_c, 2, 41, 127
4, 137940, Note_on_c, 2, 41, 0
4, 137940, Note_on_c, 2, 36, 127
4, 138000, Note_on_c, 2, 36, 0
4, 138000, Note_on_c, 2, 41, 127
4, 138060, Note_on_c, 2, 41, 0
4, 138060, Note_on_c, 2, 38, 127
4, 138120, Note_on_c, 2, 38, 0
4, 138120, Note_on_c, 2, 41, 127
4, 138180, Note_on_c, 2, 41, 0
4, 138180, Note_on_c, 2, 35, 127
4, 138240, Note_on_c, 2, 35, 0
4, 138240, Note_on_c, 2, 41, 127
4, 138300, Note_on_c, 2, 41, 0
4, 138300, Note_on_c, 2, 31, 127
4, 138360, Note_on_c, 2, 31, 0
4, 138360, Note_on_c, 2, 40, 127
4, 138420, Note_on_c, 2, 40, 0
4, 138420, Note_on_c, 2, 38, 127
4, 138480, Note_on_c, 2, 38, 0
4, 138480, Note_on_c, 2, 40, 127
4, 138540, Note_on_c, 2, 40, 0
4, 138540, Note_on_c, 2, 36, 127
4, 138600, Note_on_c, 2, 36, 0
4, 138600, Note_on_c, 2, 40, 127
4, 138660, Note_on_c, 2, 40, 0
4, 138660, Note_on_c, 2, 35, 127
4, 138720, Note_on_c, 2, 35, 0
4, 138720, Note_on_c, 2, 40, 127
4, 138780, Note_on_c, 2, 40, 0
4, 138780, Note_on_c, 2, 36, 127
4, 138840, Note_on_c, 2, 36, 0
4, 138840, Note_on_c, 2, 40, 127
4, 138900, Note_on_c, 2, 40, 0
4, 138900, Note_on_c, 2, 33, 127
4, 138960, Note_on_c, 2, 33, 0
4, 138960, Note_on_c, 2, 40, 127
4, 139020, Note_on_c, 2, 40, 0
4, 139020, Note_on_c, 2, 29, 127
4, 139080, Note_on_c, 2, 29, 0
4, 139080, Note_on_c, 2, 38, 127
4, 139140, Note_on_c, 2, 38, 0
4, 139140, Note_on_c, 2, 36, 127
4, 139200, Note_on_c, 2, 36, 0
4, 139200, Note_on_c, 2, 38, 127
4, 139260, Note_on_c, 2, 38, 0
4, 139260, Note_on_c, 2, 35, 127
4, 139320, Note_on_c, 2, 35, 0
4, 139320, Note_on_c, 2, 38, 127
4, 139380, Note_on_c, 2, 38, 0
4, 139380, Note_on_c, 2, 33, 127
4, 139440, Note_on_c, 2, 33, 0
4, 139440, Note_on_c, 2, 38, 127
4, 139500, Note_on_c, 2, 38, 0
4, 139500, Note_on_c, 2, 35, 127
4, 139560, Note_on_c, 2, 35, 0
4, 139560, Note_on_c, 2, 38, 127
4, 139620, Note_on_c, 2, 38, 0
4, 139620, Note_on_c, 2, 32, 127
4, 139680, Note_on_c, 2, 32, 0
4, 139680, Note_on_c, 2, 38, 127
4, 139740, Note_on_c, 2, 38, 0
4, 139740, Note_on_c, 2, 28, 127
4, 139800, Note_on_c, 2, 28, 0
4, 139800, Note_on_c, 2, 36, 127
4, 140040, Note_on_c, 2, 36, 0
4, 140160, Note_on_c, 2, 36, 127
4, 140400, Note_on_c, 2, 36, 0
4, 140520, Note_on_c, 2, 35, 127
4, 140640, Note_on_c, 2, 35, 0
4, 140640, Note_on_c, 2, 47, 127
4, 140760, Note_on_c, 2, 47, 0
4, 140760, Note_on_c, 2, 45, 127
4, 140880, Note_on_c, 2, 45, 0
4, 140880, Note_on_c, 2, 44, 127
4, 141120, Note_on_c, 2, 44, 0
4, 141240, Note_on_c, 2, 45, 127
4, 141360, Note_on_c, 2, 45, 0
4, 141360, Note_on_c, 2, 41, 127
4, 141480, Note_on_c, 2, 41, 0
4, 141480, Note_on_c, 2, 38, 127
4, 141600, Note_on_c, 2, 38, 0
4, 141600, Note_on_c, 2, 40, 127
4, 141840, Note_on_c, 2, 40, 0
4, 142320, Note_on_c, 2, 28, 127
4, 142560, Note_on_c, 2, 28, 0
4, 143160, Note_on_c, 2, 28, 127
4, 143280, Note_on_c, 2, 28, 0
4, 143280, Note_on_c, 2, 30, 127
4, 143400, Note_on_c, 2, 30, 0
4, 143400, Note_on_c, 2, 32, 127
4, 143520, Note_on_c, 2, 32, 0
4, 143520, Note_on_c, 2, 30, 127
4, 143640, Note_on_c, 2, 30, 0
4, 143640, Note_on_c, 2, 28, 127
4, 143760, Note_on_c, 2, 28, 0
4, 143880, Note_on_c, 2, 33, 127
4, 144000, Note_on_c, 2, 33, 0
4, 144000, Note_on_c, 2, 35, 127
4, 144120, Note_on_c, 2, 35, 0
4, 144120, Note_on_c, 2, 36, 127
4, 144240, Note_on_c, 2, 36, 0
4, 144240, Note_on_c, 2, 35, 127
4, 144360, Note_on_c, 2, 35, 0
4, 144360, Note_on_c, 2, 33, 127
4, 144480, Note_on_c, 2, 33, 0
4, 144600, Note_on_c, 2, 40, 127
4, 144720, Note_on_c, 2, 40, 0
4, 144720, Note_on_c, 2, 42, 127
4, 144840, Note_on_c, 2, 42, 0
4, 144840, Note_on_c, 2, 44, 127
4, 144960, Note_on_c, 2, 44, 0
4, 144960, Note_on_c, 2, 42, 127
4, 145080, Note_on_c, 2, 42, 0
4, 145080, Note_on_c, 2, 40, 127
4, 145200, Note_on_c, 2, 40, 0
4, 145200, Note_on_c, 2, 45, 127
4, 145680, Note_on_c, 2, 45, 0
4, 145680, Note_on_c, 2, 44, 127
4, 145920, Note_on_c, 2, 44, 0
4, 145920, Note_on_c, 2, 45, 127
4, 145980, Note_on_c, 2, 45, 0
4, 145980, Note_on_c, 2, 33, 127
4, 146040, Note_on_c, 2, 33, 0
4, 146040, Note_on_c, 2, 36, 127
4, 146100, Note_on_c, 2, 36, 0
4, 146100, Note_on_c, 2, 35, 127
4, 146160, Note_on_c, 2, 35, 0
4, 146160, Note_on_c, 2, 36, 127
4, 146220, Note_on_c, 2, 36, 0
4, 146220, Note_on_c, 2, 33, 127
4, 146280, Note_on_c, 2, 33, 0
4, 146280, Note_on_c, 2, 38, 127
4, 146520, Note_on_c, 2, 38, 0
4, 146640, Note_on_c, 2, 31, 127
4, 146760, Note_on_c, 2, 31, 0
4, 146760, Note_on_c, 2, 33, 127
4, 146880, Note_on_c, 2, 33, 0
4, 146880, Note_on_c, 2, 35, 127
4, 147000, Note_on_c, 2, 35, 0
4, 147000, Note_on_c, 2, 36, 127
4, 147240, Note_on_c, 2, 36, 0
4, 147360, Note_on_c, 2, 29, 127
4, 147480, Note_on_c, 2, 29, 0
4, 147480, Note_on_c, 2, 31, 127
4, 147600, Note_on_c, 2, 31, 0
4, 147600, Note_on_c, 2, 33, 127
4, 147720, Note_on_c, 2, 33, 0
4, 147720, Note_on_c, 2, 34, 127
4, 147840, Note_on_c, 2, 34, 0
4, 147840, Note_on_c, 2, 36, 127
4, 147960, Note_on_c, 2, 36, 0
4, 147960, Note_on_c, 2, 38, 127
4, 148080, Note_on_c, 2, 38, 0
4, 148080, Note_on_c, 2, 28, 127
4, 148320, Note_on_c, 2, 28, 0
4, 148800, Note_on_c, 2, 28, 127
4, 149040, Note_on_c, 2, 28, 0
4, 149520, Note_on_c, 2, 28, 127
4, 149760, Note_on_c, 2, 28, 0
4, 150240, Note_on_c, 2, 28, 127
4, 150480, Note_on_c, 2, 28, 0
4, 151020, Note_on_c, 2, 35, 127
4, 151080, Note_on_c, 2, 35, 0
4, 151080, Note_on_c, 2, 38, 127
4, 151140, Note_on_c, 2, 38, 0
4, 151140, Note_on_c, 2, 36, 127
4, 151200, Note_on_c, 2, 36, 0
4, 151200, Note_on_c, 2, 38, 127
4, 151260, Note_on_c, 2, 38, 0
4, 151260, Note_on_c, 2, 35, 127
4, 151320, Note_on_c, 2, 35, 0
4, 151320, Note_on_c, 2, 44, 127
4, 151380, Note_on_c, 2, 44, 0
4, 151380, Note_on_c, 2, 40, 127
4, 151440, Note_on_c, 2, 40, 0
4, 151440, Note_on_c, 2, 41, 127
4, 151500, Note_on_c, 2, 41, 0
4, 151500, Note_on_c, 2, 40, 127
4, 151560, Note_on_c, 2, 40, 0
4, 151560, Note_on_c, 2, 41, 127
4, 151620, Note_on_c, 2, 41, 0
4, 151620, Note_on_c, 2, 38, 127
4, 151680, Note_on_c, 2, 38, 0
4, 151680, Note_on_c, 2, 47, 127
4, 151740, Note_on_c, 2, 47, 0
4, 151740, Note_on_c, 2, 42, 127
4, 151800, Note_on_c, 2, 42, 0
4, 151800, Note_on_c, 2, 44, 127
4, 151860, Note_on_c, 2, 44, 0
4, 151860, Note_on_c, 2, 42, 127
4, 151920, Note_on_c, 2, 42, 0
4, 151920, Note_on_c, 2, 44, 127
4, 151980, Note_on_c, 2, 44, 0
4, 151980, Note_on_c, 2, 40, 127
4, 152040, Note_on_c, 2, 40, 0
4, 152040, Note_on_c, 2, 50, 127
4, 152100, Note_on_c, 2, 50, 0
4, 152100, Note_on_c, 2, 45, 127
4, 152160, Note_on_c, 2, 45, 0
4, 152160, Note_on_c, 2, 47, 127
4, 152220, Note_on_c, 2, 47, 0
4, 152220, Note_on_c, 2, 45, 127
4, 152280, Note_on_c, 2, 45, 0
4, 152280, Note_on_c, 2, 47, 127
4, 152340, Note_on_c, 2, 47, 0
4, 152340, Note_on_c, 2, 44, 127
4, 152400, Note_on_c, 2, 44, 0
4, 152400, Note_on_c, 2, 48, 127
4, 152460, Note_on_c, 2, 48, 0
4, 152460, Note_on_c, 2, 44, 127
4, 152520, Note_on_c, 2, 44, 0
4, 152520, Note_on_c, 2, 45, 127
4, 152580, Note_on_c, 2, 45, 0
4, 152580, Note_on_c, 2, 40, 127
4, 152640, Note_on_c, 2, 40, 0
4, 152640, Note_on_c, 2, 41, 127
4, 152700, Note_on_c, 2, 41, 0
4, 152700, Note_on_c, 2, 39, 127
4, 152760, Note_on_c, 2, 39, 0
4, 152760, Note_on_c, 2, 40, 127
4, 152820, Note_on_c, 2, 40, 0
4, 152820, Note_on_c, 2, 44, 127
4, 152880, Note_on_c, 2, 44, 0
4, 152880, Note_on_c, 2, 45, 127
4, 152940, Note_on_c, 2, 45, 0
4, 152940, Note_on_c, 2, 40, 127
4, 153000, Note_on_c, 2, 40, 0
4, 153000, Note_on_c, 2, 41, 127
4, 153060, Note_on_c, 2, 41, 0
4, 153060, Note_on_c, 2, 39, 127
4, 153120, Note_on_c, 2, 39, 0
4, 153120, Note_on_c, 2, 40, 127
4, 153180, Note_on_c, 2, 40, 0
4, 153180, Note_on_c, 2, 44, 127
4, 153240, Note_on_c, 2, 44, 0
4, 153240, Note_on_c, 2, 45, 127
4, 153300, Note_on_c, 2, 45, 0
4, 153300, Note_on_c, 2, 40, 127
4, 153360, Note_on_c, 2, 40, 0
4, 153360, Note_on_c, 2, 41, 127
4, 153420, Note_on_c, 2, 41, 0
4, 153420, Note_on_c, 2, 39, 127
4, 153480, Note_on_c, 2, 39, 0
4, 153480, Note_on_c, 2, 40, 127
4, 153540, Note_on_c, 2, 40, 0
4, 153540, Note_on_c, 2, 39, 127
4, 153600, Note_on_c, 2, 39, 0
4, 153600, Note_on_c, 2, 40, 127
4, 153660, Note_on_c, 2, 40, 0
4, 153660, Note_on_c, 2, 35, 127
4, 153720, Note_on_c, 2, 35, 0
4, 153720, Note_on_c, 2, 36, 127
4, 153780, Note_on_c, 2, 36, 0
4, 153780, Note_on_c, 2, 32, 127
4, 153840, Note_on_c, 2, 32, 0
4, 153840, Note_on_c, 2, 33, 127
4, 153900, Note_on_c, 2, 33, 0
4, 153900, Note_on_c, 2, 39, 127
4, 153960, Note_on_c, 2, 39, 0
4, 153960, Note_on_c, 2, 40, 127
4, 154020, Note_on_c, 2, 40, 0
4, 154020, Note_on_c, 2, 35, 127
4, 154080, Note_on_c, 2, 35, 0
4, 154080, Note_on_c, 2, 36, 127
4, 154140, Note_on_c, 2, 36, 0
4, 154140, Note_on_c, 2, 32, 127
4, 154200, Note_on_c, 2, 32, 0
4, 154200, Note_on_c, 2, 33, 127
4, 154260, Note_on_c, 2, 33, 0
4, 154260, Note_on_c, 2, 39, 127
4, 154320, Note_on_c, 2, 39, 0
4, 154320, Note_on_c, 2, 40, 127
4, 154380, Note_on_c, 2, 40, 0
4, 154380, Note_on_c, 2, 35, 127
4, 154440, Note_on_c, 2, 35, 0
4, 154440, Note_on_c, 2, 36, 127
4, 154500, Note_on_c, 2, 36, 0
4, 154500, Note_on_c, 2, 32, 127
4, 154560, Note_on_c, 2, 32, 0
4, 154560, Note_on_c, 2, 33, 127
4, 154620, Note_on_c, 2, 33, 0
4, 154620, Note_on_c, 2, 36, 127
4, 154680, Note_on_c, 2, 36, 0
4, 154680, Note_on_c, 2, 36, 127
4, 154740, Note_on_c, 2, 36, 0
4, 154740, Note_on_c, 2, 40, 127
4, 154800, Note_on_c, 2, 40, 0
4, 154800, Note_on_c, 2, 40, 127
4, 154860, Note_on_c, 2, 40, 0
4, 154860, Note_on_c, 2, 45, 127
4, 154920, Note_on_c, 2, 45, 0
4, 154920, Note_on_c, 2, 36, 127
4, 154980, Note_on_c, 2, 36, 0
4, 154980, Note_on_c, 2, 40, 127
4, 155040, Note_on_c, 2, 40, 0
4, 155040, Note_on_c, 2, 40, 127
4, 155100, Note_on_c, 2, 40, 0
4, 155100, Note_on_c, 2, 45, 127
4, 155160, Note_on_c, 2, 45, 0
4, 155160, Note_on_c, 2, 45, 127
4, 155220, Note_on_c, 2, 45, 0
4, 155220, Note_on_c, 2, 48, 127
4, 155280, Note_on_c, 2, 48, 0
4, 155280, Note_on_c, 2, 44, 127
4, 155340, Note_on_c, 2, 44, 0
4, 155340, Note_on_c, 2, 45, 127
4, 155400, Note_on_c, 2, 45, 0
4, 155400, Note_on_c, 2, 40, 127
4, 155460, Note_on_c, 2, 40, 0
4, 155460, Note_on_c, 2, 41, 127
4, 155520, Note_on_c, 2, 41, 0
4, 155520, Note_on_c, 2, 39, 127
4, 155580, Note_on_c, 2, 39, 0
4, 155580, Note_on_c, 2, 40, 127
4, 155640, Note_on_c, 2, 40, 0
4, 155640, Note_on_c, 2, 35, 127
4, 155700, Note_on_c, 2, 35, 0
4, 155700, Note_on_c, 2, 36, 127
4, 155760, Note_on_c, 2, 36, 0
4, 155760, Note_on_c, 2, 32, 127
4, 155820, Note_on_c, 2, 32, 0
4, 155820, Note_on_c, 2, 33, 127
4, 155880, Note_on_c, 2, 33, 0
4, 155880, Note_on_c, 2, 28, 127
4, 155940, Note_on_c, 2, 28, 0
4, 155940, Note_on_c, 2, 30, 127
4, 156000, Note_on_c, 2, 30, 0
4, 156000, Note_on_c, 2, 27, 127
4, 156240, Note_on_c, 2, 27, 0
4, 157800, Note_on_c, 2, 28, 127
4, 157992, Note_on_c, 2, 28, 0
4, 159600, Note_on_c, 2, 28, 127
4, 159840, Note_on_c, 2, 28, 0
4, 159840, Note_on_c, 2, 28, 127
4, 159960, Note_on_c, 2, 28, 0
4, 159960, Note_on_c, 2, 33, 127
4, 160320, Note_on_c, 2, 33, 0
4, 160320, Note_on_c, 2, 45, 0
4, 160320, End_track
5, 0, Start_track
5, 0, MIDI_port, 0
5, 0, Title_t, "Prelude and Fugue in A minor - BWV 543"
5, 0, End_track
6, 0, Start_track
6, 0, MIDI_port, 0
6, 0, Title_t, "--------------------------------------"
6, 0, End_track
7, 0, Start_track
7, 0, MIDI_port, 0
7, 0, Title_t, "Sequenced - D. Lampe 12/95"
7, 0, End_track
8, 0, Start_track
8, 0, MIDI_port, 0
8, 0, Title_t, "e-mail: dlampe@tic.bisman.com"
8, 0, End_track
9, 0, Start_track
9, 0, MIDI_port, 0
9, 0, Title_t, "http://www.bisman.com/pwp/dlampe/dlampe.html"
9, 0, End_track
10, 0, Start_track
10, 0, MIDI_port, 0
10, 0, Title_t, "--------------------------------------"
10, 0, End_track
11, 0, Start_track
11, 0, MIDI_port, 0
11, 0, Title_t, "courtesy of Dave's J.S. Bach Page"
11, 0, End_track
12, 0, Start_track
12, 0, MIDI_port, 0
12, 0, Title_t, "http://www.unpronounceable.com/bach"
12, 0, End_track
13, 0, Start_track
13, 0, MIDI_port, 0
13, 0, Title_t, "--------------------------------------"
13, 0, End_track
14, 0, Start_track
14, 0, MIDI_port, 0
14, 0, Title_t, "Original Filename: jsbwv543.mid"
14, 0, End_track
15, 0, Start_track
15, 0, MIDI_port, 0
15, 0, End_track
0, 0, End_of_file
