0, 0, Header, 1, 14, 240
1, 0, Start_track
1, 0, Title_t, "untitled"
1, 0, SMPTE_offset, 96, 0, 3, 0, 0
1, 0, Time_signature, 3, 2, 24, 8
1, 0, Key_signature, 0, "major"
1, 0, Tempo, 722892
1, 7920, Tempo, 750000
1, 31680, Tempo, 845070
1, 32044, Tempo, 895522
1, 32252, Tempo, 909091
1, 32400, Tempo, 750000
1, 56880, Tempo, 923077
1, 57600, Tempo, 1200000
1, 57952, Tempo, 1304348
1, 58192, Tempo, 1538462
1, 58320, Tempo, 1000000
1, 59040, Time_signature, 4, 2, 24, 8
1, 59040, Tempo, 750000
1, 126492, Tempo, 810811
1, 126744, Tempo, 895522
1, 126848, Tempo, 1132075
1, 126968, Tempo, 1153846
1, 127200, Tempo, 750000
1, 127208, Tempo, 857143
1, 127292, Tempo, 750000
1, 137048, Tempo, 800000
1, 137284, Tempo, 967742
1, 137528, Tempo, 1111111
1, 137536, Tempo, 1090909
1, 137752, Tempo, 1304348
1, 137756, Tempo, 1363636
1, 137760, Tempo, 1071429
1, 137764, Tempo, 1333333
1, 138016, Tempo, 1500000
1, 138016, End_track
2, 0, Start_track
2, 0, MIDI_port, 0
2, 0, Title_t, "Organ"
2, 0, Program_c, 0, 19
2, 0, Control_c, 0, 7, 100
2, 0, Control_c, 0, 10, 64
2, 0, Control_c, 0, 91, 127
2, 60, Note_on_c, 0, 67, 115
2, 114, Note_on_c, 0, 67, 0
2, 120, Note_on_c, 0, 71, 115
2, 174, Note_on_c, 0, 71, 0
2, 180, Note_on_c, 0, 74, 115
2, 234, Note_on_c, 0, 74, 0
2, 240, Note_on_c, 0, 79, 115
2, 360, Note_on_c, 0, 79, 0
2, 360, Note_on_c, 0, 78, 115
2, 420, Note_on_c, 0, 78, 0
2, 420, Note_on_c, 0, 76, 115
2, 480, Note_on_c, 0, 76, 0
2, 480, Note_on_c, 0, 74, 115
2, 540, Note_on_c, 0, 74, 0
2, 540, Note_on_c, 0, 72, 115
2, 600, Note_on_c, 0, 72, 0
2, 600, Note_on_c, 0, 71, 115
2, 660, Note_on_c, 0, 71, 0
2, 660, Note_on_c, 0, 69, 115
2, 720, Note_on_c, 0, 69, 0
2, 720, Note_on_c, 0, 71, 115
2, 780, Note_on_c, 0, 71, 0
2, 780, Note_on_c, 0, 74, 115
2, 840, Note_on_c, 0, 74, 0
2, 840, Note_on_c, 0, 67, 115
2, 900, Note_on_c, 0, 67, 0
2, 900, Note_on_c, 0, 71, 115
2, 960, Note_on_c, 0, 71, 0
2, 960, Note_on_c, 0, 62, 115
2, 1020, Note_on_c, 0, 62, 0
2, 1020, Note_on_c, 0, 71, 115
2, 1080, Note_on_c, 0, 71, 0
2, 1080, Note_on_c, 0, 69, 115
2, 1140, Note_on_c, 0, 69, 0
2, 1140, Note_on_c, 0, 67, 115
2, 1200, Note_on_c, 0, 67, 0
2, 1200, Note_on_c, 0, 66, 115
2, 1260, Note_on_c, 0, 66, 0
2, 1260, Note_on_c, 0, 64, 115
2, 1320, Note_on_c, 0, 64, 0
2, 1320, Note_on_c, 0, 62, 115
2, 1380, Note_on_c, 0, 62, 0
2, 1380, Note_on_c, 0, 60, 115
2, 1440, Note_on_c, 0, 60, 0
2, 1440, Note_on_c, 0, 62, 115
2, 1500, Note_on_c, 0, 62, 0
2, 1500, Note_on_c, 0, 67, 115
2, 1560, Note_on_c, 0, 67, 0
2, 1560, Note_on_c, 0, 59, 115
2, 1620, Note_on_c, 0, 59, 0
2, 1620, Note_on_c, 0, 62, 115
2, 1680, Note_on_c, 0, 62, 0
2, 4560, Note_on_c, 0, 62, 115
2, 4620, Note_on_c, 0, 62, 0
2, 4620, Note_on_c, 0, 67, 115
2, 4680, Note_on_c, 0, 67, 0
2, 4680, Note_on_c, 0, 59, 115
2, 4740, Note_on_c, 0, 59, 0
2, 4740, Note_on_c, 0, 62, 115
2, 4800, Note_on_c, 0, 62, 0
2, 7200, Note_on_c, 0, 62, 115
2, 7260, Note_on_c, 0, 62, 0
2, 7260, Note_on_c, 0, 59, 115
2, 7320, Note_on_c, 0, 59, 0
2, 7320, Note_on_c, 0, 62, 115
2, 7380, Note_on_c, 0, 62, 0
2, 7380, Note_on_c, 0, 67, 115
2, 7440, Note_on_c, 0, 67, 0
2, 7440, Note_on_c, 0, 62, 115
2, 7500, Note_on_c, 0, 62, 0
2, 7500, Note_on_c, 0, 67, 115
2, 7560, Note_on_c, 0, 67, 0
2, 7560, Note_on_c, 0, 71, 115
2, 7620, Note_on_c, 0, 71, 0
2, 7620, Note_on_c, 0, 67, 115
2, 7680, Note_on_c, 0, 67, 0
2, 7680, Note_on_c, 0, 71, 115
2, 7740, Note_on_c, 0, 71, 0
2, 7740, Note_on_c, 0, 74, 115
2, 7800, Note_on_c, 0, 74, 0
2, 7800, Note_on_c, 0, 71, 115
2, 7860, Note_on_c, 0, 71, 0
2, 7860, Note_on_c, 0, 74, 115
2, 7920, Note_on_c, 0, 74, 0
2, 7920, Note_on_c, 0, 79, 115
2, 8040, Note_on_c, 0, 74, 115
2, 8040, Note_on_c, 0, 67, 115
2, 8160, Note_on_c, 0, 67, 0
2, 8160, Note_on_c, 0, 74, 0
2, 8160, Note_on_c, 0, 74, 115
2, 8160, Note_on_c, 0, 67, 115
2, 8280, Note_on_c, 0, 67, 0
2, 8280, Note_on_c, 0, 74, 0
2, 8280, Note_on_c, 0, 74, 115
2, 8280, Note_on_c, 0, 67, 115
2, 8400, Note_on_c, 0, 67, 0
2, 8400, Note_on_c, 0, 74, 0
2, 8400, Note_on_c, 0, 74, 115
2, 8400, Note_on_c, 0, 67, 115
2, 8520, Note_on_c, 0, 67, 0
2, 8520, Note_on_c, 0, 74, 0
2, 8520, Note_on_c, 0, 71, 115
2, 8520, Note_on_c, 0, 67, 115
2, 8640, Note_on_c, 0, 67, 0
2, 8640, Note_on_c, 0, 71, 0
2, 8640, Note_on_c, 0, 69, 115
2, 8640, Note_on_c, 0, 64, 115
2, 8700, Note_on_c, 0, 79, 0
2, 8700, Note_on_c, 0, 83, 115
2, 8760, Note_on_c, 0, 83, 0
2, 8760, Note_on_c, 0, 81, 115
2, 8820, Note_on_c, 0, 81, 0
2, 8820, Note_on_c, 0, 79, 115
2, 8880, Note_on_c, 0, 79, 0
2, 8880, Note_on_c, 0, 64, 0
2, 8880, Note_on_c, 0, 69, 0
2, 8880, Note_on_c, 0, 78, 115
2, 8880, Note_on_c, 0, 69, 115
2, 8880, Note_on_c, 0, 64, 115
2, 8940, Note_on_c, 0, 78, 0
2, 8940, Note_on_c, 0, 76, 115
2, 9000, Note_on_c, 0, 76, 0
2, 9000, Note_on_c, 0, 74, 115
2, 9060, Note_on_c, 0, 74, 0
2, 9060, Note_on_c, 0, 72, 115
2, 9120, Note_on_c, 0, 72, 0
2, 9120, Note_on_c, 0, 64, 0
2, 9120, Note_on_c, 0, 69, 0
2, 9120, Note_on_c, 0, 71, 115
2, 9180, Note_on_c, 0, 71, 0
2, 9180, Note_on_c, 0, 69, 115
2, 9240, Note_on_c, 0, 69, 0
2, 9240, Note_on_c, 0, 72, 115
2, 9300, Note_on_c, 0, 72, 0
2, 9300, Note_on_c, 0, 71, 115
2, 9360, Note_on_c, 0, 71, 0
2, 9360, Note_on_c, 0, 72, 115
2, 9480, Note_on_c, 0, 78, 115
2, 9540, Note_on_c, 0, 78, 0
2, 9540, Note_on_c, 0, 76, 115
2, 9600, Note_on_c, 0, 76, 0
2, 9600, Note_on_c, 0, 78, 115
2, 9660, Note_on_c, 0, 78, 0
2, 9660, Note_on_c, 0, 79, 115
2, 9720, Note_on_c, 0, 79, 0
2, 9720, Note_on_c, 0, 78, 115
2, 9780, Note_on_c, 0, 78, 0
2, 9780, Note_on_c, 0, 79, 115
2, 9840, Note_on_c, 0, 79, 0
2, 9840, Note_on_c, 0, 81, 115
2, 9900, Note_on_c, 0, 81, 0
2, 9900, Note_on_c, 0, 83, 115
2, 9960, Note_on_c, 0, 83, 0
2, 9960, Note_on_c, 0, 81, 115
2, 10020, Note_on_c, 0, 81, 0
2, 10020, Note_on_c, 0, 83, 115
2, 10080, Note_on_c, 0, 83, 0
2, 10080, Note_on_c, 0, 74, 115
2, 10140, Note_on_c, 0, 72, 0
2, 10140, Note_on_c, 0, 76, 115
2, 10200, Note_on_c, 0, 76, 0
2, 10200, Note_on_c, 0, 74, 115
2, 10260, Note_on_c, 0, 74, 0
2, 10260, Note_on_c, 0, 72, 115
2, 10320, Note_on_c, 0, 72, 0
2, 10320, Note_on_c, 0, 74, 0
2, 10320, Note_on_c, 0, 71, 115
2, 10380, Note_on_c, 0, 71, 0
2, 10380, Note_on_c, 0, 69, 115
2, 10440, Note_on_c, 0, 69, 0
2, 10440, Note_on_c, 0, 67, 115
2, 10500, Note_on_c, 0, 67, 0
2, 10500, Note_on_c, 0, 66, 115
2, 10560, Note_on_c, 0, 66, 0
2, 10560, Note_on_c, 0, 64, 115
2, 10620, Note_on_c, 0, 64, 0
2, 10620, Note_on_c, 0, 62, 115
2, 10680, Note_on_c, 0, 62, 0
2, 10680, Note_on_c, 0, 65, 115
2, 10740, Note_on_c, 0, 65, 0
2, 10740, Note_on_c, 0, 64, 115
2, 10800, Note_on_c, 0, 64, 0
2, 10800, Note_on_c, 0, 65, 115
2, 10920, Note_on_c, 0, 67, 115
2, 10920, Note_on_c, 0, 71, 115
2, 10920, Note_on_c, 0, 74, 115
2, 11040, Note_on_c, 0, 74, 0
2, 11040, Note_on_c, 0, 71, 0
2, 11040, Note_on_c, 0, 67, 0
2, 11040, Note_on_c, 0, 67, 115
2, 11040, Note_on_c, 0, 71, 115
2, 11040, Note_on_c, 0, 74, 115
2, 11160, Note_on_c, 0, 74, 0
2, 11160, Note_on_c, 0, 71, 0
2, 11160, Note_on_c, 0, 67, 0
2, 11160, Note_on_c, 0, 67, 115
2, 11160, Note_on_c, 0, 71, 115
2, 11160, Note_on_c, 0, 74, 115
2, 11280, Note_on_c, 0, 74, 0
2, 11280, Note_on_c, 0, 71, 0
2, 11280, Note_on_c, 0, 67, 0
2, 11280, Note_on_c, 0, 67, 115
2, 11280, Note_on_c, 0, 71, 115
2, 11280, Note_on_c, 0, 74, 115
2, 11400, Note_on_c, 0, 74, 0
2, 11400, Note_on_c, 0, 71, 0
2, 11400, Note_on_c, 0, 67, 0
2, 11400, Note_on_c, 0, 67, 115
2, 11400, Note_on_c, 0, 71, 115
2, 11400, Note_on_c, 0, 74, 115
2, 11520, Note_on_c, 0, 74, 0
2, 11520, Note_on_c, 0, 65, 0
2, 11520, Note_on_c, 0, 67, 0
2, 11520, Note_on_c, 0, 71, 0
2, 11520, Note_on_c, 0, 76, 115
2, 11520, Note_on_c, 0, 72, 115
2, 11520, Note_on_c, 0, 67, 115
2, 11640, Note_on_c, 0, 67, 0
2, 11640, Note_on_c, 0, 72, 0
2, 11640, Note_on_c, 0, 76, 0
2, 11640, Note_on_c, 0, 67, 115
2, 11640, Note_on_c, 0, 72, 115
2, 11640, Note_on_c, 0, 76, 115
2, 11760, Note_on_c, 0, 76, 0
2, 11760, Note_on_c, 0, 72, 0
2, 11760, Note_on_c, 0, 67, 0
2, 11760, Note_on_c, 0, 76, 115
2, 11760, Note_on_c, 0, 72, 115
2, 11760, Note_on_c, 0, 69, 115
2, 11880, Note_on_c, 0, 69, 0
2, 11880, Note_on_c, 0, 72, 0
2, 11880, Note_on_c, 0, 76, 0
2, 11880, Note_on_c, 0, 69, 115
2, 11880, Note_on_c, 0, 72, 115
2, 11880, Note_on_c, 0, 76, 115
2, 12000, Note_on_c, 0, 76, 0
2, 12000, Note_on_c, 0, 72, 0
2, 12000, Note_on_c, 0, 69, 0
2, 12000, Note_on_c, 0, 69, 115
2, 12000, Note_on_c, 0, 72, 115
2, 12000, Note_on_c, 0, 76, 115
2, 12120, Note_on_c, 0, 76, 0
2, 12120, Note_on_c, 0, 72, 0
2, 12120, Note_on_c, 0, 69, 0
2, 12120, Note_on_c, 0, 69, 115
2, 12120, Note_on_c, 0, 72, 115
2, 12120, Note_on_c, 0, 76, 115
2, 12240, Note_on_c, 0, 76, 0
2, 12240, Note_on_c, 0, 72, 0
2, 12240, Note_on_c, 0, 69, 0
2, 12240, Note_on_c, 0, 69, 115
2, 12240, Note_on_c, 0, 72, 115
2, 12240, Note_on_c, 0, 78, 115
2, 12300, Note_on_c, 0, 78, 0
2, 12300, Note_on_c, 0, 76, 115
2, 12360, Note_on_c, 0, 76, 0
2, 12360, Note_on_c, 0, 72, 0
2, 12360, Note_on_c, 0, 69, 0
2, 12360, Note_on_c, 0, 72, 115
2, 12360, Note_on_c, 0, 78, 115
2, 12420, Note_on_c, 0, 78, 0
2, 12420, Note_on_c, 0, 79, 115
2, 12480, Note_on_c, 0, 79, 0
2, 12480, Note_on_c, 0, 72, 0
2, 12480, Note_on_c, 0, 71, 115
2, 12480, Note_on_c, 0, 78, 115
2, 12540, Note_on_c, 0, 78, 0
2, 12540, Note_on_c, 0, 81, 115
2, 12600, Note_on_c, 0, 81, 0
2, 12600, Note_on_c, 0, 71, 0
2, 12600, Note_on_c, 0, 69, 115
2, 12600, Note_on_c, 0, 74, 115
2, 12660, Note_on_c, 0, 74, 0
2, 12660, Note_on_c, 0, 81, 115
2, 12720, Note_on_c, 0, 81, 0
2, 12720, Note_on_c, 0, 69, 0
2, 12720, Note_on_c, 0, 67, 115
2, 12720, Note_on_c, 0, 76, 115
2, 12780, Note_on_c, 0, 76, 0
2, 12780, Note_on_c, 0, 81, 115
2, 12840, Note_on_c, 0, 81, 0
2, 12840, Note_on_c, 0, 67, 0
2, 12840, Note_on_c, 0, 66, 115
2, 12840, Note_on_c, 0, 78, 115
2, 12900, Note_on_c, 0, 78, 0
2, 12900, Note_on_c, 0, 81, 115
2, 12960, Note_on_c, 0, 81, 0
2, 12960, Note_on_c, 0, 66, 0
2, 12960, Note_on_c, 0, 74, 115
2, 12960, Note_on_c, 0, 79, 115
2, 13020, Note_on_c, 0, 79, 0
2, 13020, Note_on_c, 0, 78, 115
2, 13080, Note_on_c, 0, 78, 0
2, 13080, Note_on_c, 0, 74, 0
2, 13080, Note_on_c, 0, 79, 115
2, 13140, Note_on_c, 0, 79, 0
2, 13140, Note_on_c, 0, 81, 115
2, 13200, Note_on_c, 0, 81, 0
2, 13200, Note_on_c, 0, 79, 115
2, 13260, Note_on_c, 0, 79, 0
2, 13260, Note_on_c, 0, 83, 115
2, 13320, Note_on_c, 0, 83, 0
2, 13320, Note_on_c, 0, 67, 115
2, 13320, Note_on_c, 0, 76, 115
2, 13380, Note_on_c, 0, 76, 0
2, 13380, Note_on_c, 0, 83, 115
2, 13440, Note_on_c, 0, 83, 0
2, 13440, Note_on_c, 0, 67, 0
2, 13440, Note_on_c, 0, 66, 115
2, 13440, Note_on_c, 0, 78, 115
2, 13500, Note_on_c, 0, 78, 0
2, 13500, Note_on_c, 0, 83, 115
2, 13560, Note_on_c, 0, 83, 0
2, 13560, Note_on_c, 0, 66, 0
2, 13560, Note_on_c, 0, 64, 115
2, 13560, Note_on_c, 0, 79, 115
2, 13620, Note_on_c, 0, 79, 0
2, 13620, Note_on_c, 0, 83, 115
2, 13680, Note_on_c, 0, 83, 0
2, 13680, Note_on_c, 0, 64, 0
2, 13680, Note_on_c, 0, 62, 115
2, 13680, Note_on_c, 0, 81, 115
2, 13740, Note_on_c, 0, 81, 0
2, 13740, Note_on_c, 0, 79, 115
2, 13800, Note_on_c, 0, 79, 0
2, 13800, Note_on_c, 0, 81, 115
2, 13860, Note_on_c, 0, 81, 0
2, 13860, Note_on_c, 0, 83, 115
2, 13920, Note_on_c, 0, 83, 0
2, 13920, Note_on_c, 0, 62, 0
2, 13920, Note_on_c, 0, 81, 115
2, 13980, Note_on_c, 0, 81, 0
2, 13980, Note_on_c, 0, 84, 115
2, 14040, Note_on_c, 0, 84, 0
2, 14040, Note_on_c, 0, 66, 115
2, 14040, Note_on_c, 0, 79, 115
2, 14100, Note_on_c, 0, 79, 0
2, 14100, Note_on_c, 0, 84, 115
2, 14160, Note_on_c, 0, 84, 0
2, 14160, Note_on_c, 0, 66, 0
2, 14160, Note_on_c, 0, 67, 115
2, 14160, Note_on_c, 0, 78, 115
2, 14220, Note_on_c, 0, 78, 0
2, 14220, Note_on_c, 0, 84, 115
2, 14280, Note_on_c, 0, 84, 0
2, 14280, Note_on_c, 0, 67, 0
2, 14280, Note_on_c, 0, 69, 115
2, 14280, Note_on_c, 0, 76, 115
2, 14340, Note_on_c, 0, 76, 0
2, 14340, Note_on_c, 0, 84, 115
2, 14400, Note_on_c, 0, 84, 0
2, 14400, Note_on_c, 0, 69, 0
2, 14400, Note_on_c, 0, 74, 115
2, 14400, Note_on_c, 0, 71, 115
2, 14520, Note_on_c, 0, 71, 0
2, 14520, Note_on_c, 0, 74, 0
2, 14520, Note_on_c, 0, 83, 115
2, 14520, Note_on_c, 0, 79, 115
2, 14520, Note_on_c, 0, 74, 115
2, 14640, Note_on_c, 0, 74, 0
2, 14640, Note_on_c, 0, 79, 0
2, 14640, Note_on_c, 0, 83, 0
2, 14640, Note_on_c, 0, 83, 115
2, 14640, Note_on_c, 0, 79, 115
2, 14640, Note_on_c, 0, 74, 115
2, 14760, Note_on_c, 0, 74, 0
2, 14760, Note_on_c, 0, 79, 0
2, 14760, Note_on_c, 0, 83, 0
2, 14760, Note_on_c, 0, 83, 115
2, 14760, Note_on_c, 0, 79, 115
2, 14760, Note_on_c, 0, 74, 115
2, 14880, Note_on_c, 0, 74, 0
2, 14880, Note_on_c, 0, 79, 0
2, 14880, Note_on_c, 0, 83, 0
2, 14880, Note_on_c, 0, 83, 115
2, 14880, Note_on_c, 0, 79, 115
2, 14880, Note_on_c, 0, 74, 115
2, 15000, Note_on_c, 0, 74, 0
2, 15000, Note_on_c, 0, 79, 0
2, 15000, Note_on_c, 0, 83, 0
2, 15000, Note_on_c, 0, 83, 115
2, 15000, Note_on_c, 0, 79, 115
2, 15000, Note_on_c, 0, 74, 115
2, 15120, Note_on_c, 0, 74, 0
2, 15120, Note_on_c, 0, 79, 0
2, 15120, Note_on_c, 0, 83, 0
2, 15120, Note_on_c, 0, 83, 115
2, 15120, Note_on_c, 0, 79, 115
2, 15120, Note_on_c, 0, 76, 115
2, 15240, Note_on_c, 0, 76, 0
2, 15240, Note_on_c, 0, 79, 0
2, 15240, Note_on_c, 0, 83, 0
2, 15240, Note_on_c, 0, 81, 115
2, 15240, Note_on_c, 0, 76, 115
2, 15240, Note_on_c, 0, 73, 115
2, 15360, Note_on_c, 0, 73, 0
2, 15360, Note_on_c, 0, 76, 0
2, 15360, Note_on_c, 0, 81, 0
2, 15360, Note_on_c, 0, 81, 115
2, 15360, Note_on_c, 0, 76, 115
2, 15360, Note_on_c, 0, 73, 115
2, 15480, Note_on_c, 0, 73, 0
2, 15480, Note_on_c, 0, 76, 0
2, 15480, Note_on_c, 0, 81, 0
2, 15480, Note_on_c, 0, 81, 115
2, 15480, Note_on_c, 0, 76, 115
2, 15480, Note_on_c, 0, 73, 115
2, 15600, Note_on_c, 0, 73, 0
2, 15600, Note_on_c, 0, 76, 0
2, 15600, Note_on_c, 0, 81, 0
2, 15600, Note_on_c, 0, 81, 115
2, 15600, Note_on_c, 0, 76, 115
2, 15600, Note_on_c, 0, 73, 115
2, 15720, Note_on_c, 0, 73, 0
2, 15720, Note_on_c, 0, 76, 0
2, 15720, Note_on_c, 0, 81, 0
2, 15720, Note_on_c, 0, 81, 115
2, 15720, Note_on_c, 0, 76, 115
2, 15720, Note_on_c, 0, 73, 115
2, 15840, Note_on_c, 0, 73, 0
2, 15840, Note_on_c, 0, 76, 0
2, 15840, Note_on_c, 0, 81, 0
2, 15840, Note_on_c, 0, 81, 115
2, 15840, Note_on_c, 0, 78, 115
2, 15840, Note_on_c, 0, 74, 115
2, 15960, Note_on_c, 0, 74, 0
2, 15960, Note_on_c, 0, 78, 0
2, 15960, Note_on_c, 0, 81, 0
2, 15960, Note_on_c, 0, 79, 115
2, 15960, Note_on_c, 0, 74, 115
2, 15960, Note_on_c, 0, 71, 115
2, 16080, Note_on_c, 0, 71, 0
2, 16080, Note_on_c, 0, 74, 0
2, 16080, Note_on_c, 0, 79, 0
2, 16080, Note_on_c, 0, 79, 115
2, 16080, Note_on_c, 0, 76, 115
2, 16080, Note_on_c, 0, 71, 115
2, 16200, Note_on_c, 0, 71, 0
2, 16200, Note_on_c, 0, 76, 0
2, 16200, Note_on_c, 0, 79, 0
2, 16200, Note_on_c, 0, 79, 115
2, 16200, Note_on_c, 0, 76, 115
2, 16200, Note_on_c, 0, 71, 115
2, 16320, Note_on_c, 0, 71, 0
2, 16320, Note_on_c, 0, 76, 0
2, 16320, Note_on_c, 0, 79, 0
2, 16320, Note_on_c, 0, 79, 115
2, 16320, Note_on_c, 0, 76, 115
2, 16320, Note_on_c, 0, 71, 115
2, 16440, Note_on_c, 0, 71, 0
2, 16440, Note_on_c, 0, 76, 0
2, 16440, Note_on_c, 0, 79, 0
2, 16440, Note_on_c, 0, 79, 115
2, 16440, Note_on_c, 0, 76, 115
2, 16440, Note_on_c, 0, 71, 115
2, 16560, Note_on_c, 0, 71, 0
2, 16560, Note_on_c, 0, 76, 0
2, 16560, Note_on_c, 0, 79, 0
2, 16560, Note_on_c, 0, 79, 115
2, 16560, Note_on_c, 0, 76, 115
2, 16560, Note_on_c, 0, 73, 115
2, 16620, Note_on_c, 0, 79, 0
2, 16620, Note_on_c, 0, 83, 115
2, 16680, Note_on_c, 0, 83, 0
2, 16680, Note_on_c, 0, 73, 0
2, 16680, Note_on_c, 0, 76, 0
2, 16680, Note_on_c, 0, 76, 115
2, 16740, Note_on_c, 0, 76, 0
2, 16740, Note_on_c, 0, 79, 115
2, 16800, Note_on_c, 0, 79, 0
2, 16800, Note_on_c, 0, 73, 115
2, 16860, Note_on_c, 0, 73, 0
2, 16860, Note_on_c, 0, 78, 115
2, 16920, Note_on_c, 0, 78, 0
2, 16920, Note_on_c, 0, 76, 115
2, 16980, Note_on_c, 0, 76, 0
2, 16980, Note_on_c, 0, 74, 115
2, 17040, Note_on_c, 0, 74, 0
2, 17040, Note_on_c, 0, 73, 115
2, 17100, Note_on_c, 0, 73, 0
2, 17100, Note_on_c, 0, 71, 115
2, 17160, Note_on_c, 0, 71, 0
2, 17160, Note_on_c, 0, 69, 115
2, 17220, Note_on_c, 0, 69, 0
2, 17220, Note_on_c, 0, 67, 115
2, 17280, Note_on_c, 0, 67, 0
2, 17280, Note_on_c, 0, 81, 115
2, 17280, Note_on_c, 0, 78, 115
2, 17280, Note_on_c, 0, 74, 115
2, 17400, Note_on_c, 0, 74, 0
2, 17400, Note_on_c, 0, 78, 0
2, 17400, Note_on_c, 0, 81, 0
2, 18000, Note_on_c, 0, 74, 115
2, 18000, Note_on_c, 0, 78, 115
2, 18000, Note_on_c, 0, 83, 115
2, 18120, Note_on_c, 0, 83, 0
2, 18120, Note_on_c, 0, 78, 0
2, 18120, Note_on_c, 0, 74, 0
2, 18840, Note_on_c, 0, 83, 115
2, 18840, Note_on_c, 0, 79, 115
2, 18960, Note_on_c, 0, 79, 0
2, 18960, Note_on_c, 0, 83, 0
2, 18960, Note_on_c, 0, 81, 115
2, 18960, Note_on_c, 0, 78, 115
2, 19080, Note_on_c, 0, 78, 0
2, 19080, Note_on_c, 0, 81, 0
2, 19080, Note_on_c, 0, 79, 115
2, 19080, Note_on_c, 0, 76, 115
2, 19200, Note_on_c, 0, 76, 0
2, 19200, Note_on_c, 0, 79, 0
2, 19200, Note_on_c, 0, 78, 115
2, 19200, Note_on_c, 0, 74, 115
2, 19320, Note_on_c, 0, 74, 0
2, 19320, Note_on_c, 0, 78, 0
2, 19320, Note_on_c, 0, 76, 115
2, 19320, Note_on_c, 0, 73, 115
2, 19440, Note_on_c, 0, 73, 0
2, 19440, Note_on_c, 0, 76, 0
2, 19440, Note_on_c, 0, 74, 115
2, 19440, Note_on_c, 0, 74, 115
2, 19500, Note_on_c, 0, 74, 0
2, 19500, Note_on_c, 0, 71, 115
2, 19560, Note_on_c, 0, 71, 0
2, 19560, Note_on_c, 0, 69, 115
2, 19620, Note_on_c, 0, 69, 0
2, 19620, Note_on_c, 0, 67, 115
2, 19680, Note_on_c, 0, 67, 0
2, 19680, Note_on_c, 0, 74, 0
2, 19680, Note_on_c, 0, 66, 115
2, 19740, Note_on_c, 0, 69, 115
2, 19800, Note_on_c, 0, 69, 0
2, 19800, Note_on_c, 0, 74, 115
2, 19860, Note_on_c, 0, 66, 0
2, 19860, Note_on_c, 0, 66, 115
2, 19920, Note_on_c, 0, 66, 0
2, 19920, Note_on_c, 0, 64, 115
2, 19980, Note_on_c, 0, 74, 0
2, 19980, Note_on_c, 0, 74, 115
2, 20040, Note_on_c, 0, 64, 0
2, 20040, Note_on_c, 0, 67, 115
2, 20040, Note_on_c, 0, 64, 115
2, 20100, Note_on_c, 0, 74, 0
2, 20100, Note_on_c, 0, 73, 115
2, 20160, Note_on_c, 0, 73, 0
2, 20160, Note_on_c, 0, 64, 0
2, 20160, Note_on_c, 0, 67, 0
2, 20160, Note_on_c, 0, 66, 115
2, 20160, Note_on_c, 0, 62, 115
2, 20160, Note_on_c, 0, 74, 115
2, 20280, Note_on_c, 0, 74, 0
2, 20280, Note_on_c, 0, 62, 0
2, 20280, Note_on_c, 0, 66, 0
2, 20280, Note_on_c, 0, 73, 115
2, 20340, Note_on_c, 0, 73, 0
2, 20340, Note_on_c, 0, 71, 115
2, 20400, Note_on_c, 0, 71, 0
2, 20400, Note_on_c, 0, 69, 115
2, 20460, Note_on_c, 0, 69, 0
2, 20460, Note_on_c, 0, 67, 115
2, 20520, Note_on_c, 0, 67, 0
2, 20520, Note_on_c, 0, 66, 115
2, 20580, Note_on_c, 0, 66, 0
2, 20580, Note_on_c, 0, 64, 115
2, 20640, Note_on_c, 0, 64, 0
2, 20640, Note_on_c, 0, 66, 115
2, 20700, Note_on_c, 0, 66, 0
2, 20700, Note_on_c, 0, 69, 115
2, 20760, Note_on_c, 0, 69, 0
2, 20760, Note_on_c, 0, 62, 115
2, 20820, Note_on_c, 0, 62, 0
2, 20820, Note_on_c, 0, 66, 115
2, 20880, Note_on_c, 0, 66, 0
2, 21840, Note_on_c, 0, 62, 115
2, 21900, Note_on_c, 0, 62, 0
2, 21900, Note_on_c, 0, 66, 115
2, 21960, Note_on_c, 0, 66, 0
2, 21960, Note_on_c, 0, 57, 115
2, 22020, Note_on_c, 0, 57, 0
2, 22020, Note_on_c, 0, 62, 115
2, 22080, Note_on_c, 0, 62, 0
2, 22080, Note_on_c, 0, 66, 115
2, 22140, Note_on_c, 0, 66, 0
2, 22140, Note_on_c, 0, 69, 115
2, 22200, Note_on_c, 0, 69, 0
2, 22200, Note_on_c, 0, 62, 115
2, 22260, Note_on_c, 0, 62, 0
2, 22260, Note_on_c, 0, 66, 115
2, 22320, Note_on_c, 0, 66, 0
2, 22320, Note_on_c, 0, 69, 115
2, 22440, Note_on_c, 0, 78, 115
2, 22500, Note_on_c, 0, 78, 0
2, 22500, Note_on_c, 0, 76, 115
2, 22560, Note_on_c, 0, 76, 0
2, 22560, Note_on_c, 0, 78, 115
2, 22620, Note_on_c, 0, 78, 0
2, 22620, Note_on_c, 0, 79, 115
2, 22680, Note_on_c, 0, 79, 0
2, 22680, Note_on_c, 0, 78, 115
2, 22740, Note_on_c, 0, 78, 0
2, 22740, Note_on_c, 0, 76, 115
2, 22800, Note_on_c, 0, 76, 0
2, 22800, Note_on_c, 0, 75, 115
2, 22860, Note_on_c, 0, 75, 0
2, 22860, Note_on_c, 0, 73, 115
2, 22920, Note_on_c, 0, 73, 0
2, 22920, Note_on_c, 0, 71, 115
2, 22980, Note_on_c, 0, 71, 0
2, 22980, Note_on_c, 0, 72, 115
2, 23040, Note_on_c, 0, 72, 0
2, 23040, Note_on_c, 0, 71, 115
2, 23100, Note_on_c, 0, 69, 0
2, 23100, Note_on_c, 0, 67, 115
2, 23160, Note_on_c, 0, 67, 0
2, 23160, Note_on_c, 0, 71, 0
2, 23160, Note_on_c, 0, 66, 115
2, 23220, Note_on_c, 0, 66, 0
2, 23220, Note_on_c, 0, 64, 115
2, 23280, Note_on_c, 0, 64, 0
2, 23280, Note_on_c, 0, 63, 115
2, 23340, Note_on_c, 0, 63, 0
2, 23340, Note_on_c, 0, 64, 115
2, 23400, Note_on_c, 0, 64, 0
2, 23400, Note_on_c, 0, 66, 115
2, 23460, Note_on_c, 0, 66, 0
2, 23460, Note_on_c, 0, 67, 115
2, 23520, Note_on_c, 0, 67, 0
2, 23520, Note_on_c, 0, 69, 115
2, 23580, Note_on_c, 0, 69, 0
2, 23580, Note_on_c, 0, 67, 115
2, 23640, Note_on_c, 0, 67, 0
2, 23640, Note_on_c, 0, 69, 115
2, 23700, Note_on_c, 0, 69, 0
2, 23700, Note_on_c, 0, 66, 115
2, 23760, Note_on_c, 0, 66, 0
2, 23760, Note_on_c, 0, 67, 115
2, 23880, Note_on_c, 0, 79, 115
2, 23940, Note_on_c, 0, 79, 0
2, 23940, Note_on_c, 0, 78, 115
2, 24000, Note_on_c, 0, 78, 0
2, 24000, Note_on_c, 0, 79, 115
2, 24060, Note_on_c, 0, 79, 0
2, 24060, Note_on_c, 0, 81, 115
2, 24120, Note_on_c, 0, 81, 0
2, 24120, Note_on_c, 0, 79, 115
2, 24180, Note_on_c, 0, 79, 0
2, 24180, Note_on_c, 0, 78, 115
2, 24240, Note_on_c, 0, 78, 0
2, 24240, Note_on_c, 0, 76, 115
2, 24300, Note_on_c, 0, 76, 0
2, 24300, Note_on_c, 0, 74, 115
2, 24360, Note_on_c, 0, 74, 0
2, 24360, Note_on_c, 0, 72, 115
2, 24420, Note_on_c, 0, 72, 0
2, 24420, Note_on_c, 0, 71, 115
2, 24480, Note_on_c, 0, 71, 0
2, 24480, Note_on_c, 0, 69, 115
2, 24540, Note_on_c, 0, 67, 0
2, 24540, Note_on_c, 0, 67, 115
2, 24600, Note_on_c, 0, 67, 0
2, 24600, Note_on_c, 0, 69, 0
2, 24600, Note_on_c, 0, 66, 115
2, 24660, Note_on_c, 0, 66, 0
2, 24660, Note_on_c, 0, 64, 115
2, 24720, Note_on_c, 0, 64, 0
2, 24720, Note_on_c, 0, 62, 115
2, 24780, Note_on_c, 0, 62, 0
2, 24780, Note_on_c, 0, 60, 115
2, 24840, Note_on_c, 0, 60, 0
2, 24840, Note_on_c, 0, 59, 115
2, 24900, Note_on_c, 0, 59, 0
2, 24900, Note_on_c, 0, 57, 115
2, 24960, Note_on_c, 0, 57, 0
2, 24960, Note_on_c, 0, 55, 115
2, 25020, Note_on_c, 0, 55, 0
2, 25020, Note_on_c, 0, 54, 115
2, 25080, Note_on_c, 0, 54, 0
2, 25080, Note_on_c, 0, 52, 115
2, 25140, Note_on_c, 0, 52, 0
2, 25140, Note_on_c, 0, 50, 115
2, 25200, Note_on_c, 0, 50, 0
2, 25200, Note_on_c, 0, 72, 115
2, 25320, Note_on_c, 0, 69, 115
2, 25380, Note_on_c, 0, 69, 0
2, 25380, Note_on_c, 0, 71, 115
2, 25440, Note_on_c, 0, 71, 0
2, 25440, Note_on_c, 0, 69, 115
2, 25500, Note_on_c, 0, 67, 115
2, 25560, Note_on_c, 0, 67, 0
2, 25560, Note_on_c, 0, 66, 115
2, 25620, Note_on_c, 0, 66, 0
2, 25620, Note_on_c, 0, 64, 115
2, 25680, Note_on_c, 0, 64, 0
2, 25680, Note_on_c, 0, 66, 115
2, 26040, Note_on_c, 0, 66, 0
2, 26040, Note_on_c, 0, 69, 0
2, 26040, Note_on_c, 0, 72, 0
2, 26640, Note_on_c, 0, 62, 115
2, 26640, Note_on_c, 0, 67, 115
2, 26640, Note_on_c, 0, 71, 115
2, 26760, Note_on_c, 0, 62, 0
2, 26760, Note_on_c, 0, 62, 115
2, 26880, Note_on_c, 0, 62, 0
2, 26880, Note_on_c, 0, 71, 0
2, 26880, Note_on_c, 0, 67, 0
2, 26880, Note_on_c, 0, 67, 115
2, 27000, Note_on_c, 0, 71, 115
2, 27120, Note_on_c, 0, 71, 0
2, 27120, Note_on_c, 0, 76, 115
2, 27240, Note_on_c, 0, 67, 0
2, 27240, Note_on_c, 0, 67, 115
2, 27360, Note_on_c, 0, 67, 0
2, 27420, Note_on_c, 0, 76, 0
2, 27420, Note_on_c, 0, 79, 115
2, 27480, Note_on_c, 0, 79, 0
2, 27480, Note_on_c, 0, 78, 115
2, 27540, Note_on_c, 0, 78, 0
2, 27540, Note_on_c, 0, 79, 115
2, 27600, Note_on_c, 0, 79, 0
2, 27600, Note_on_c, 0, 76, 115
2, 27660, Note_on_c, 0, 76, 0
2, 27660, Note_on_c, 0, 79, 115
2, 27720, Note_on_c, 0, 79, 0
2, 27720, Note_on_c, 0, 74, 115
2, 27780, Note_on_c, 0, 74, 0
2, 27780, Note_on_c, 0, 79, 115
2, 27840, Note_on_c, 0, 79, 0
2, 27840, Note_on_c, 0, 73, 115
2, 27900, Note_on_c, 0, 73, 0
2, 27900, Note_on_c, 0, 79, 115
2, 27960, Note_on_c, 0, 79, 0
2, 27960, Note_on_c, 0, 71, 115
2, 28020, Note_on_c, 0, 71, 0
2, 28020, Note_on_c, 0, 79, 115
2, 28080, Note_on_c, 0, 79, 0
2, 28080, Note_on_c, 0, 70, 115
2, 28140, Note_on_c, 0, 70, 0
2, 28140, Note_on_c, 0, 67, 115
2, 28140, Note_on_c, 0, 76, 115
2, 28200, Note_on_c, 0, 76, 0
2, 28200, Note_on_c, 0, 67, 0
2, 28200, Note_on_c, 0, 66, 115
2, 28200, Note_on_c, 0, 74, 115
2, 28260, Note_on_c, 0, 74, 0
2, 28260, Note_on_c, 0, 66, 0
2, 28260, Note_on_c, 0, 67, 115
2, 28260, Note_on_c, 0, 76, 115
2, 28320, Note_on_c, 0, 76, 0
2, 28320, Note_on_c, 0, 67, 0
2, 28320, Note_on_c, 0, 64, 115
2, 28320, Note_on_c, 0, 73, 115
2, 28380, Note_on_c, 0, 73, 0
2, 28380, Note_on_c, 0, 64, 0
2, 28380, Note_on_c, 0, 67, 115
2, 28380, Note_on_c, 0, 76, 115
2, 28440, Note_on_c, 0, 76, 0
2, 28440, Note_on_c, 0, 67, 0
2, 28440, Note_on_c, 0, 62, 115
2, 28440, Note_on_c, 0, 71, 115
2, 28500, Note_on_c, 0, 71, 0
2, 28500, Note_on_c, 0, 62, 0
2, 28500, Note_on_c, 0, 67, 115
2, 28500, Note_on_c, 0, 76, 115
2, 28560, Note_on_c, 0, 76, 0
2, 28560, Note_on_c, 0, 67, 0
2, 28560, Note_on_c, 0, 61, 115
2, 28560, Note_on_c, 0, 70, 115
2, 28620, Note_on_c, 0, 70, 0
2, 28620, Note_on_c, 0, 61, 0
2, 28620, Note_on_c, 0, 67, 115
2, 28620, Note_on_c, 0, 76, 115
2, 28680, Note_on_c, 0, 76, 0
2, 28680, Note_on_c, 0, 67, 0
2, 28680, Note_on_c, 0, 59, 115
2, 28680, Note_on_c, 0, 67, 115
2, 28740, Note_on_c, 0, 67, 0
2, 28740, Note_on_c, 0, 59, 0
2, 28740, Note_on_c, 0, 67, 115
2, 28740, Note_on_c, 0, 76, 115
2, 28800, Note_on_c, 0, 76, 0
2, 28800, Note_on_c, 0, 67, 0
2, 28800, Note_on_c, 0, 66, 115
2, 28860, Note_on_c, 0, 66, 0
2, 28860, Note_on_c, 0, 64, 115
2, 28920, Note_on_c, 0, 64, 0
2, 28920, Note_on_c, 0, 67, 115
2, 28980, Note_on_c, 0, 67, 0
2, 28980, Note_on_c, 0, 66, 115
2, 29040, Note_on_c, 0, 66, 0
2, 29040, Note_on_c, 0, 64, 115
2, 29100, Note_on_c, 0, 64, 0
2, 29100, Note_on_c, 0, 62, 115
2, 29160, Note_on_c, 0, 62, 0
2, 29160, Note_on_c, 0, 61, 115
2, 29220, Note_on_c, 0, 61, 0
2, 29220, Note_on_c, 0, 59, 115
2, 29280, Note_on_c, 0, 59, 0
2, 29640, Note_on_c, 0, 66, 115
2, 29640, Note_on_c, 0, 78, 115
2, 29760, Note_on_c, 0, 78, 0
2, 29760, Note_on_c, 0, 66, 0
2, 29760, Note_on_c, 0, 71, 115
2, 29760, Note_on_c, 0, 76, 115
2, 29820, Note_on_c, 0, 76, 0
2, 29820, Note_on_c, 0, 74, 115
2, 29880, Note_on_c, 0, 74, 0
2, 29880, Note_on_c, 0, 71, 0
2, 29880, Note_on_c, 0, 67, 115
2, 29880, Note_on_c, 0, 73, 115
2, 29940, Note_on_c, 0, 73, 0
2, 29940, Note_on_c, 0, 71, 115
2, 30000, Note_on_c, 0, 71, 0
2, 30000, Note_on_c, 0, 67, 0
2, 30000, Note_on_c, 0, 66, 115
2, 30000, Note_on_c, 0, 74, 115
2, 30060, Note_on_c, 0, 74, 0
2, 30060, Note_on_c, 0, 73, 115
2, 30120, Note_on_c, 0, 73, 0
2, 30120, Note_on_c, 0, 66, 0
2, 30120, Note_on_c, 0, 66, 115
2, 30120, Note_on_c, 0, 71, 115
2, 30180, Note_on_c, 0, 71, 0
2, 30180, Note_on_c, 0, 70, 115
2, 30240, Note_on_c, 0, 70, 0
2, 30240, Note_on_c, 0, 66, 0
2, 30240, Note_on_c, 0, 71, 115
2, 30240, Note_on_c, 0, 66, 115
2, 30300, Note_on_c, 0, 71, 0
2, 30300, Note_on_c, 0, 70, 115
2, 30360, Note_on_c, 0, 70, 0
2, 30360, Note_on_c, 0, 66, 0
2, 30360, Note_on_c, 0, 71, 115
2, 30360, Note_on_c, 0, 64, 115
2, 30420, Note_on_c, 0, 71, 0
2, 30420, Note_on_c, 0, 79, 115
2, 30480, Note_on_c, 0, 79, 0
2, 30480, Note_on_c, 0, 64, 0
2, 30480, Note_on_c, 0, 71, 115
2, 30480, Note_on_c, 0, 66, 115
2, 30540, Note_on_c, 0, 71, 0
2, 30540, Note_on_c, 0, 78, 115
2, 30600, Note_on_c, 0, 78, 0
2, 30600, Note_on_c, 0, 66, 0
2, 30600, Note_on_c, 0, 66, 115
2, 30600, Note_on_c, 0, 61, 115
2, 30660, Note_on_c, 0, 66, 0
2, 30660, Note_on_c, 0, 76, 115
2, 30720, Note_on_c, 0, 76, 0
2, 30720, Note_on_c, 0, 61, 0
2, 30720, Note_on_c, 0, 68, 115
2, 30720, Note_on_c, 0, 62, 115
2, 30780, Note_on_c, 0, 68, 0
2, 30780, Note_on_c, 0, 74, 115
2, 30840, Note_on_c, 0, 74, 0
2, 30840, Note_on_c, 0, 62, 0
2, 30840, Note_on_c, 0, 64, 115
2, 30840, Note_on_c, 0, 70, 115
2, 30900, Note_on_c, 0, 70, 0
2, 30900, Note_on_c, 0, 73, 115
2, 30960, Note_on_c, 0, 73, 0
2, 30960, Note_on_c, 0, 64, 0
2, 30960, Note_on_c, 0, 66, 115
2, 30960, Note_on_c, 0, 71, 115
2, 31020, Note_on_c, 0, 71, 0
2, 31020, Note_on_c, 0, 70, 115
2, 31080, Note_on_c, 0, 70, 0
2, 31080, Note_on_c, 0, 66, 0
2, 31080, Note_on_c, 0, 64, 115
2, 31080, Note_on_c, 0, 71, 115
2, 31140, Note_on_c, 0, 71, 0
2, 31140, Note_on_c, 0, 74, 115
2, 31200, Note_on_c, 0, 74, 0
2, 31200, Note_on_c, 0, 64, 0
2, 31200, Note_on_c, 0, 66, 115
2, 31200, Note_on_c, 0, 71, 115
2, 31260, Note_on_c, 0, 71, 0
2, 31260, Note_on_c, 0, 76, 115
2, 31320, Note_on_c, 0, 76, 0
2, 31320, Note_on_c, 0, 66, 0
2, 31320, Note_on_c, 0, 70, 115
2, 31380, Note_on_c, 0, 70, 0
2, 31380, Note_on_c, 0, 78, 115
2, 31440, Note_on_c, 0, 78, 0
2, 31440, Note_on_c, 0, 71, 115
2, 31500, Note_on_c, 0, 71, 0
2, 31500, Note_on_c, 0, 80, 115
2, 31560, Note_on_c, 0, 80, 0
2, 31560, Note_on_c, 0, 73, 115
2, 31560, Note_on_c, 0, 73, 115
2, 31620, Note_on_c, 0, 73, 0
2, 31620, Note_on_c, 0, 82, 115
2, 31680, Note_on_c, 0, 82, 0
2, 31680, Note_on_c, 0, 73, 0
2, 31680, Note_on_c, 0, 74, 115
2, 31680, Note_on_c, 0, 83, 115
2, 31800, Note_on_c, 0, 83, 0
2, 31800, Note_on_c, 0, 74, 0
2, 31800, Note_on_c, 0, 66, 115
2, 31800, Note_on_c, 0, 78, 115
2, 31920, Note_on_c, 0, 78, 0
2, 31920, Note_on_c, 0, 66, 0
2, 31920, Note_on_c, 0, 67, 115
2, 31920, Note_on_c, 0, 76, 115
2, 31980, Note_on_c, 0, 76, 0
2, 31980, Note_on_c, 0, 74, 115
2, 32040, Note_on_c, 0, 74, 0
2, 32040, Note_on_c, 0, 67, 0
2, 32040, Note_on_c, 0, 67, 115
2, 32040, Note_on_c, 0, 73, 115
2, 32100, Note_on_c, 0, 73, 0
2, 32100, Note_on_c, 0, 71, 115
2, 32160, Note_on_c, 0, 71, 0
2, 32160, Note_on_c, 0, 67, 0
2, 32160, Note_on_c, 0, 66, 115
2, 32160, Note_on_c, 0, 66, 115
2, 32280, Note_on_c, 0, 66, 0
2, 32280, Note_on_c, 0, 66, 0
2, 32280, Note_on_c, 0, 64, 115
2, 32280, Note_on_c, 0, 70, 127
2, 32310, Note_on_c, 0, 70, 0
2, 32310, Note_on_c, 0, 71, 127
2, 32340, Note_on_c, 0, 71, 0
2, 32340, Note_on_c, 0, 70, 127
2, 32388, Note_on_c, 0, 64, 0
2, 32400, Note_on_c, 0, 70, 0
2, 32400, Note_on_c, 0, 71, 115
2, 32400, Note_on_c, 0, 66, 115
2, 32520, Note_on_c, 0, 66, 0
2, 32520, Note_on_c, 0, 71, 0
2, 32520, Note_on_c, 0, 74, 115
2, 32580, Note_on_c, 0, 74, 0
2, 32580, Note_on_c, 0, 73, 115
2, 32640, Note_on_c, 0, 73, 0
2, 32640, Note_on_c, 0, 74, 115
2, 32700, Note_on_c, 0, 74, 0
2, 32700, Note_on_c, 0, 77, 115
2, 32760, Note_on_c, 0, 77, 0
2, 32760, Note_on_c, 0, 71, 115
2, 32820, Note_on_c, 0, 71, 0
2, 32820, Note_on_c, 0, 74, 115
2, 32880, Note_on_c, 0, 74, 0
2, 32880, Note_on_c, 0, 68, 115
2, 32940, Note_on_c, 0, 68, 0
2, 32940, Note_on_c, 0, 71, 115
2, 33000, Note_on_c, 0, 71, 0
2, 33000, Note_on_c, 0, 62, 115
2, 33060, Note_on_c, 0, 62, 0
2, 33060, Note_on_c, 0, 65, 115
2, 33120, Note_on_c, 0, 65, 0
2, 33120, Note_on_c, 0, 74, 115
2, 33240, Note_on_c, 0, 71, 115
2, 33300, Note_on_c, 0, 71, 0
2, 33300, Note_on_c, 0, 69, 115
2, 33360, Note_on_c, 0, 69, 0
2, 33360, Note_on_c, 0, 71, 115
2, 33420, Note_on_c, 0, 71, 0
2, 33420, Note_on_c, 0, 72, 115
2, 33480, Note_on_c, 0, 72, 0
2, 33480, Note_on_c, 0, 71, 115
2, 33540, Note_on_c, 0, 71, 0
2, 33540, Note_on_c, 0, 69, 115
2, 33600, Note_on_c, 0, 69, 0
2, 33600, Note_on_c, 0, 67, 115
2, 33660, Note_on_c, 0, 67, 0
2, 33660, Note_on_c, 0, 69, 115
2, 33720, Note_on_c, 0, 69, 0
2, 33720, Note_on_c, 0, 71, 115
2, 33780, Note_on_c, 0, 71, 0
2, 33780, Note_on_c, 0, 67, 115
2, 33840, Note_on_c, 0, 67, 0
2, 33840, Note_on_c, 0, 64, 115
2, 33900, Note_on_c, 0, 74, 0
2, 33900, Note_on_c, 0, 72, 115
2, 33960, Note_on_c, 0, 72, 0
2, 33960, Note_on_c, 0, 64, 0
2, 33960, Note_on_c, 0, 71, 115
2, 34020, Note_on_c, 0, 71, 0
2, 34020, Note_on_c, 0, 72, 115
2, 34080, Note_on_c, 0, 72, 0
2, 34080, Note_on_c, 0, 74, 115
2, 34140, Note_on_c, 0, 74, 0
2, 34140, Note_on_c, 0, 76, 115
2, 34200, Note_on_c, 0, 76, 0
2, 34200, Note_on_c, 0, 77, 115
2, 34260, Note_on_c, 0, 77, 0
2, 34260, Note_on_c, 0, 76, 115
2, 34320, Note_on_c, 0, 76, 0
2, 34320, Note_on_c, 0, 74, 115
2, 34380, Note_on_c, 0, 74, 0
2, 34380, Note_on_c, 0, 72, 115
2, 34440, Note_on_c, 0, 72, 0
2, 34440, Note_on_c, 0, 74, 115
2, 34500, Note_on_c, 0, 74, 0
2, 34500, Note_on_c, 0, 71, 115
2, 34560, Note_on_c, 0, 71, 0
2, 34560, Note_on_c, 0, 72, 115
2, 34560, Note_on_c, 0, 69, 115
2, 34800, Note_on_c, 0, 69, 0
2, 34920, Note_on_c, 0, 64, 115
2, 35040, Note_on_c, 0, 64, 0
2, 35040, Note_on_c, 0, 69, 115
2, 35160, Note_on_c, 0, 69, 0
2, 35160, Note_on_c, 0, 67, 115
2, 35280, Note_on_c, 0, 67, 0
2, 35280, Note_on_c, 0, 66, 115
2, 35340, Note_on_c, 0, 72, 0
2, 35340, Note_on_c, 0, 71, 115
2, 35400, Note_on_c, 0, 71, 0
2, 35400, Note_on_c, 0, 72, 115
2, 35460, Note_on_c, 0, 72, 0
2, 35460, Note_on_c, 0, 81, 115
2, 35520, Note_on_c, 0, 81, 0
2, 35520, Note_on_c, 0, 66, 0
2, 35520, Note_on_c, 0, 78, 115
2, 35580, Note_on_c, 0, 78, 0
2, 35580, Note_on_c, 0, 81, 115
2, 35640, Note_on_c, 0, 81, 0
2, 35640, Note_on_c, 0, 74, 115
2, 35700, Note_on_c, 0, 74, 0
2, 35700, Note_on_c, 0, 78, 115
2, 35760, Note_on_c, 0, 78, 0
2, 35760, Note_on_c, 0, 69, 115
2, 35820, Note_on_c, 0, 69, 0
2, 35820, Note_on_c, 0, 74, 115
2, 35880, Note_on_c, 0, 74, 0
2, 35880, Note_on_c, 0, 66, 115
2, 35940, Note_on_c, 0, 66, 0
2, 35940, Note_on_c, 0, 69, 115
2, 36000, Note_on_c, 0, 69, 0
2, 36000, Note_on_c, 0, 72, 115
2, 36120, Note_on_c, 0, 69, 115
2, 36180, Note_on_c, 0, 69, 0
2, 36180, Note_on_c, 0, 67, 115
2, 36240, Note_on_c, 0, 67, 0
2, 36240, Note_on_c, 0, 69, 115
2, 36300, Note_on_c, 0, 69, 0
2, 36300, Note_on_c, 0, 71, 115
2, 36360, Note_on_c, 0, 71, 0
2, 36360, Note_on_c, 0, 69, 115
2, 36420, Note_on_c, 0, 69, 0
2, 36420, Note_on_c, 0, 67, 115
2, 36480, Note_on_c, 0, 67, 0
2, 36480, Note_on_c, 0, 66, 115
2, 36540, Note_on_c, 0, 66, 0
2, 36540, Note_on_c, 0, 67, 115
2, 36600, Note_on_c, 0, 67, 0
2, 36600, Note_on_c, 0, 69, 115
2, 36660, Note_on_c, 0, 69, 0
2, 36660, Note_on_c, 0, 66, 115
2, 36720, Note_on_c, 0, 66, 0
2, 36720, Note_on_c, 0, 62, 115
2, 36780, Note_on_c, 0, 72, 0
2, 36780, Note_on_c, 0, 71, 115
2, 36840, Note_on_c, 0, 71, 0
2, 36840, Note_on_c, 0, 69, 115
2, 36900, Note_on_c, 0, 69, 0
2, 36900, Note_on_c, 0, 71, 115
2, 36960, Note_on_c, 0, 71, 0
2, 36960, Note_on_c, 0, 62, 0
2, 36960, Note_on_c, 0, 72, 115
2, 37020, Note_on_c, 0, 72, 0
2, 37020, Note_on_c, 0, 74, 115
2, 37080, Note_on_c, 0, 74, 0
2, 37080, Note_on_c, 0, 76, 115
2, 37140, Note_on_c, 0, 76, 0
2, 37140, Note_on_c, 0, 74, 115
2, 37200, Note_on_c, 0, 74, 0
2, 37200, Note_on_c, 0, 72, 115
2, 37260, Note_on_c, 0, 72, 0
2, 37260, Note_on_c, 0, 71, 115
2, 37320, Note_on_c, 0, 71, 0
2, 37320, Note_on_c, 0, 72, 115
2, 37380, Note_on_c, 0, 72, 0
2, 37380, Note_on_c, 0, 69, 115
2, 37440, Note_on_c, 0, 69, 0
2, 37440, Note_on_c, 0, 71, 115
2, 37560, Note_on_c, 0, 71, 0
2, 37560, Note_on_c, 0, 67, 115
2, 37620, Note_on_c, 0, 67, 0
2, 37620, Note_on_c, 0, 66, 115
2, 37680, Note_on_c, 0, 66, 0
2, 37680, Note_on_c, 0, 67, 115
2, 37800, Note_on_c, 0, 67, 0
2, 37800, Note_on_c, 0, 62, 115
2, 37920, Note_on_c, 0, 62, 0
2, 37920, Note_on_c, 0, 71, 115
2, 38040, Note_on_c, 0, 71, 0
2, 38040, Note_on_c, 0, 67, 115
2, 38040, Note_on_c, 0, 62, 115
2, 38160, Note_on_c, 0, 62, 0
2, 38160, Note_on_c, 0, 67, 0
2, 38160, Note_on_c, 0, 64, 115
2, 38160, Note_on_c, 0, 69, 115
2, 38280, Note_on_c, 0, 69, 0
2, 38280, Note_on_c, 0, 69, 115
2, 38340, Note_on_c, 0, 69, 0
2, 38340, Note_on_c, 0, 67, 115
2, 38400, Note_on_c, 0, 67, 0
2, 38400, Note_on_c, 0, 64, 0
2, 38400, Note_on_c, 0, 69, 115
2, 38520, Note_on_c, 0, 69, 0
2, 38520, Note_on_c, 0, 62, 115
2, 38640, Note_on_c, 0, 62, 0
2, 38640, Note_on_c, 0, 72, 115
2, 38760, Note_on_c, 0, 72, 0
2, 38760, Note_on_c, 0, 66, 115
2, 38760, Note_on_c, 0, 62, 115
2, 38760, Note_on_c, 0, 69, 115
2, 38880, Note_on_c, 0, 69, 0
2, 38880, Note_on_c, 0, 62, 0
2, 38880, Note_on_c, 0, 66, 0
2, 38880, Note_on_c, 0, 71, 115
2, 38880, Note_on_c, 0, 67, 115
2, 38880, Note_on_c, 0, 62, 115
2, 39000, Note_on_c, 0, 71, 0
2, 39000, Note_on_c, 0, 71, 115
2, 39060, Note_on_c, 0, 71, 0
2, 39060, Note_on_c, 0, 69, 115
2, 39120, Note_on_c, 0, 69, 0
2, 39120, Note_on_c, 0, 62, 0
2, 39120, Note_on_c, 0, 67, 0
2, 39120, Note_on_c, 0, 71, 115
2, 39240, Note_on_c, 0, 71, 0
2, 39240, Note_on_c, 0, 67, 115
2, 39360, Note_on_c, 0, 67, 0
2, 39360, Note_on_c, 0, 74, 115
2, 39480, Note_on_c, 0, 74, 0
2, 39480, Note_on_c, 0, 71, 115
2, 39480, Note_on_c, 0, 67, 115
2, 39480, Note_on_c, 0, 62, 115
2, 39600, Note_on_c, 0, 62, 0
2, 39600, Note_on_c, 0, 67, 0
2, 39600, Note_on_c, 0, 71, 0
2, 39600, Note_on_c, 0, 73, 115
2, 39600, Note_on_c, 0, 67, 115
2, 39600, Note_on_c, 0, 64, 115
2, 39720, Note_on_c, 0, 64, 0
2, 39720, Note_on_c, 0, 73, 0
2, 39720, Note_on_c, 0, 73, 115
2, 39720, Note_on_c, 0, 64, 115
2, 39780, Note_on_c, 0, 64, 0
2, 39780, Note_on_c, 0, 73, 0
2, 39780, Note_on_c, 0, 71, 115
2, 39780, Note_on_c, 0, 62, 115
2, 39840, Note_on_c, 0, 62, 0
2, 39840, Note_on_c, 0, 71, 0
2, 39840, Note_on_c, 0, 67, 0
2, 39840, Note_on_c, 0, 73, 115
2, 39840, Note_on_c, 0, 64, 115
2, 39960, Note_on_c, 0, 73, 0
2, 39960, Note_on_c, 0, 67, 115
2, 40080, Note_on_c, 0, 67, 0
2, 40080, Note_on_c, 0, 64, 0
2, 40080, Note_on_c, 0, 76, 115
2, 40200, Note_on_c, 0, 76, 0
2, 40200, Note_on_c, 0, 73, 115
2, 40200, Note_on_c, 0, 67, 115
2, 40200, Note_on_c, 0, 64, 115
2, 40320, Note_on_c, 0, 64, 0
2, 40320, Note_on_c, 0, 67, 0
2, 40320, Note_on_c, 0, 73, 0
2, 40320, Note_on_c, 0, 74, 115
2, 40320, Note_on_c, 0, 66, 115
2, 40320, Note_on_c, 0, 62, 115
2, 40380, Note_on_c, 0, 74, 0
2, 40380, Note_on_c, 0, 69, 115
2, 40440, Note_on_c, 0, 69, 0
2, 40440, Note_on_c, 0, 62, 0
2, 40440, Note_on_c, 0, 66, 0
2, 40440, Note_on_c, 0, 72, 115
2, 40500, Note_on_c, 0, 72, 0
2, 40500, Note_on_c, 0, 71, 115
2, 40560, Note_on_c, 0, 71, 0
2, 40560, Note_on_c, 0, 69, 115
2, 40620, Note_on_c, 0, 69, 0
2, 40620, Note_on_c, 0, 83, 115
2, 40620, Note_on_c, 0, 67, 115
2, 40680, Note_on_c, 0, 67, 0
2, 40680, Note_on_c, 0, 83, 0
2, 40680, Note_on_c, 0, 81, 115
2, 40680, Note_on_c, 0, 66, 115
2, 40740, Note_on_c, 0, 66, 0
2, 40740, Note_on_c, 0, 81, 0
2, 40740, Note_on_c, 0, 79, 115
2, 40740, Note_on_c, 0, 64, 115
2, 40800, Note_on_c, 0, 64, 0
2, 40800, Note_on_c, 0, 79, 0
2, 40800, Note_on_c, 0, 78, 115
2, 40800, Note_on_c, 0, 62, 115
2, 40860, Note_on_c, 0, 62, 0
2, 40860, Note_on_c, 0, 78, 0
2, 40860, Note_on_c, 0, 76, 115
2, 40860, Note_on_c, 0, 60, 115
2, 40920, Note_on_c, 0, 60, 0
2, 40920, Note_on_c, 0, 76, 0
2, 40920, Note_on_c, 0, 74, 115
2, 40920, Note_on_c, 0, 59, 115
2, 40980, Note_on_c, 0, 59, 0
2, 40980, Note_on_c, 0, 74, 0
2, 40980, Note_on_c, 0, 72, 115
2, 40980, Note_on_c, 0, 57, 115
2, 41040, Note_on_c, 0, 57, 0
2, 41040, Note_on_c, 0, 72, 0
2, 41040, Note_on_c, 0, 71, 115
2, 41100, Note_on_c, 0, 69, 115
2, 41160, Note_on_c, 0, 69, 0
2, 41160, Note_on_c, 0, 67, 115
2, 41220, Note_on_c, 0, 67, 0
2, 41220, Note_on_c, 0, 66, 115
2, 41280, Note_on_c, 0, 66, 0
2, 41280, Note_on_c, 0, 64, 115
2, 41340, Note_on_c, 0, 71, 0
2, 41340, Note_on_c, 0, 71, 115
2, 41400, Note_on_c, 0, 71, 0
2, 41400, Note_on_c, 0, 69, 115
2, 41460, Note_on_c, 0, 69, 0
2, 41460, Note_on_c, 0, 67, 115
2, 41520, Note_on_c, 0, 67, 0
2, 41520, Note_on_c, 0, 64, 0
2, 41520, Note_on_c, 0, 66, 115
2, 41520, Note_on_c, 0, 62, 115
2, 41580, Note_on_c, 0, 66, 0
2, 41580, Note_on_c, 0, 69, 115
2, 41640, Note_on_c, 0, 69, 0
2, 41640, Note_on_c, 0, 67, 115
2, 41700, Note_on_c, 0, 67, 0
2, 41700, Note_on_c, 0, 66, 115
2, 41760, Note_on_c, 0, 66, 0
2, 41760, Note_on_c, 0, 62, 0
2, 41760, Note_on_c, 0, 67, 115
2, 41760, Note_on_c, 0, 62, 115
2, 41820, Note_on_c, 0, 67, 0
2, 41820, Note_on_c, 0, 66, 115
2, 41880, Note_on_c, 0, 66, 0
2, 41880, Note_on_c, 0, 67, 115
2, 41940, Note_on_c, 0, 67, 0
2, 41940, Note_on_c, 0, 69, 115
2, 42000, Note_on_c, 0, 69, 0
2, 42000, Note_on_c, 0, 62, 0
2, 42000, Note_on_c, 0, 67, 115
2, 42060, Note_on_c, 0, 67, 0
2, 42060, Note_on_c, 0, 71, 115
2, 42120, Note_on_c, 0, 71, 0
2, 42120, Note_on_c, 0, 62, 115
2, 42120, Note_on_c, 0, 59, 115
2, 42180, Note_on_c, 0, 62, 0
2, 42180, Note_on_c, 0, 71, 115
2, 42240, Note_on_c, 0, 71, 0
2, 42240, Note_on_c, 0, 59, 0
2, 42240, Note_on_c, 0, 67, 115
2, 42240, Note_on_c, 0, 62, 115
2, 42300, Note_on_c, 0, 67, 0
2, 42300, Note_on_c, 0, 71, 115
2, 42360, Note_on_c, 0, 71, 0
2, 42360, Note_on_c, 0, 62, 0
2, 42360, Note_on_c, 0, 62, 115
2, 42360, Note_on_c, 0, 59, 115
2, 42420, Note_on_c, 0, 62, 0
2, 42420, Note_on_c, 0, 71, 115
2, 42480, Note_on_c, 0, 71, 0
2, 42480, Note_on_c, 0, 59, 0
2, 42480, Note_on_c, 0, 69, 115
2, 42480, Note_on_c, 0, 62, 115
2, 42540, Note_on_c, 0, 69, 0
2, 42540, Note_on_c, 0, 67, 115
2, 42600, Note_on_c, 0, 67, 0
2, 42600, Note_on_c, 0, 69, 115
2, 42660, Note_on_c, 0, 69, 0
2, 42660, Note_on_c, 0, 71, 115
2, 42720, Note_on_c, 0, 71, 0
2, 42720, Note_on_c, 0, 62, 0
2, 42720, Note_on_c, 0, 69, 115
2, 42780, Note_on_c, 0, 69, 0
2, 42780, Note_on_c, 0, 72, 115
2, 42840, Note_on_c, 0, 72, 0
2, 42840, Note_on_c, 0, 62, 115
2, 42840, Note_on_c, 0, 62, 115
2, 42900, Note_on_c, 0, 62, 0
2, 42900, Note_on_c, 0, 72, 115
2, 42960, Note_on_c, 0, 72, 0
2, 42960, Note_on_c, 0, 62, 0
2, 42960, Note_on_c, 0, 69, 115
2, 42960, Note_on_c, 0, 62, 115
2, 43020, Note_on_c, 0, 69, 0
2, 43020, Note_on_c, 0, 72, 115
2, 43080, Note_on_c, 0, 72, 0
2, 43080, Note_on_c, 0, 62, 0
2, 43080, Note_on_c, 0, 62, 115
2, 43080, Note_on_c, 0, 62, 115
2, 43140, Note_on_c, 0, 62, 0
2, 43140, Note_on_c, 0, 72, 115
2, 43200, Note_on_c, 0, 72, 0
2, 43200, Note_on_c, 0, 62, 0
2, 43200, Note_on_c, 0, 71, 115
2, 43200, Note_on_c, 0, 62, 115
2, 43320, Note_on_c, 0, 62, 0
2, 43320, Note_on_c, 0, 71, 0
2, 43320, Note_on_c, 0, 74, 115
2, 43440, Note_on_c, 0, 74, 0
2, 43440, Note_on_c, 0, 74, 115
2, 43560, Note_on_c, 0, 74, 0
2, 43560, Note_on_c, 0, 74, 115
2, 43560, Note_on_c, 0, 71, 115
2, 43680, Note_on_c, 0, 71, 0
2, 43680, Note_on_c, 0, 74, 0
2, 43680, Note_on_c, 0, 74, 115
2, 43680, Note_on_c, 0, 71, 115
2, 43800, Note_on_c, 0, 71, 0
2, 43800, Note_on_c, 0, 74, 0
2, 43800, Note_on_c, 0, 74, 115
2, 43800, Note_on_c, 0, 71, 115
2, 43920, Note_on_c, 0, 71, 0
2, 43920, Note_on_c, 0, 74, 0
2, 43920, Note_on_c, 0, 74, 115
2, 43920, Note_on_c, 0, 71, 115
2, 44040, Note_on_c, 0, 71, 0
2, 44040, Note_on_c, 0, 74, 0
2, 44040, Note_on_c, 0, 72, 115
2, 44040, Note_on_c, 0, 69, 115
2, 44100, Note_on_c, 0, 69, 0
2, 44100, Note_on_c, 0, 67, 115
2, 44160, Note_on_c, 0, 67, 0
2, 44160, Note_on_c, 0, 72, 0
2, 44160, Note_on_c, 0, 72, 115
2, 44160, Note_on_c, 0, 69, 115
2, 44280, Note_on_c, 0, 69, 0
2, 44280, Note_on_c, 0, 72, 0
2, 44280, Note_on_c, 0, 72, 115
2, 44280, Note_on_c, 0, 69, 115
2, 44400, Note_on_c, 0, 69, 0
2, 44400, Note_on_c, 0, 72, 0
2, 44400, Note_on_c, 0, 72, 115
2, 44400, Note_on_c, 0, 69, 115
2, 44520, Note_on_c, 0, 69, 0
2, 44520, Note_on_c, 0, 72, 0
2, 44520, Note_on_c, 0, 72, 115
2, 44520, Note_on_c, 0, 69, 115
2, 44640, Note_on_c, 0, 69, 0
2, 44640, Note_on_c, 0, 72, 0
2, 44640, Note_on_c, 0, 72, 115
2, 44640, Note_on_c, 0, 69, 115
2, 44880, Note_on_c, 0, 69, 0
2, 44880, Note_on_c, 0, 72, 0
2, 45000, Note_on_c, 0, 78, 115
2, 45000, Note_on_c, 0, 76, 115
2, 45120, Note_on_c, 0, 76, 0
2, 45120, Note_on_c, 0, 78, 0
2, 45120, Note_on_c, 0, 79, 115
2, 45120, Note_on_c, 0, 74, 115
2, 45240, Note_on_c, 0, 74, 0
2, 45240, Note_on_c, 0, 79, 0
2, 45240, Note_on_c, 0, 81, 115
2, 45240, Note_on_c, 0, 72, 115
2, 45360, Note_on_c, 0, 72, 0
2, 45360, Note_on_c, 0, 81, 0
2, 45360, Note_on_c, 0, 74, 115
2, 45360, Note_on_c, 0, 71, 115
2, 45600, Note_on_c, 0, 71, 0
2, 45600, Note_on_c, 0, 74, 0
2, 45720, Note_on_c, 0, 79, 115
2, 45720, Note_on_c, 0, 78, 115
2, 45840, Note_on_c, 0, 78, 0
2, 45840, Note_on_c, 0, 79, 0
2, 45840, Note_on_c, 0, 81, 115
2, 45840, Note_on_c, 0, 76, 115
2, 45960, Note_on_c, 0, 76, 0
2, 45960, Note_on_c, 0, 81, 0
2, 45960, Note_on_c, 0, 83, 115
2, 45960, Note_on_c, 0, 74, 115
2, 46080, Note_on_c, 0, 74, 0
2, 46080, Note_on_c, 0, 83, 0
2, 46080, Note_on_c, 0, 78, 115
2, 46140, Note_on_c, 0, 78, 0
2, 46140, Note_on_c, 0, 76, 115
2, 46200, Note_on_c, 0, 76, 0
2, 46200, Note_on_c, 0, 78, 115
2, 46260, Note_on_c, 0, 78, 0
2, 46260, Note_on_c, 0, 79, 115
2, 46320, Note_on_c, 0, 79, 0
2, 46320, Note_on_c, 0, 78, 115
2, 46380, Note_on_c, 0, 78, 0
2, 46380, Note_on_c, 0, 81, 115
2, 46440, Note_on_c, 0, 81, 0
2, 46440, Note_on_c, 0, 76, 115
2, 46500, Note_on_c, 0, 76, 0
2, 46500, Note_on_c, 0, 81, 115
2, 46560, Note_on_c, 0, 81, 0
2, 46560, Note_on_c, 0, 74, 115
2, 46620, Note_on_c, 0, 74, 0
2, 46620, Note_on_c, 0, 81, 115
2, 46680, Note_on_c, 0, 81, 0
2, 46680, Note_on_c, 0, 72, 115
2, 46740, Note_on_c, 0, 72, 0
2, 46740, Note_on_c, 0, 81, 115
2, 46800, Note_on_c, 0, 81, 0
2, 46800, Note_on_c, 0, 71, 115
2, 46860, Note_on_c, 0, 71, 0
2, 46860, Note_on_c, 0, 79, 115
2, 46920, Note_on_c, 0, 79, 0
2, 46920, Note_on_c, 0, 78, 115
2, 46980, Note_on_c, 0, 78, 0
2, 46980, Note_on_c, 0, 79, 115
2, 47040, Note_on_c, 0, 79, 0
2, 47040, Note_on_c, 0, 76, 115
2, 47100, Note_on_c, 0, 76, 0
2, 47100, Note_on_c, 0, 79, 115
2, 47160, Note_on_c, 0, 79, 0
2, 47160, Note_on_c, 0, 74, 115
2, 47220, Note_on_c, 0, 74, 0
2, 47220, Note_on_c, 0, 79, 115
2, 47280, Note_on_c, 0, 79, 0
2, 47280, Note_on_c, 0, 73, 115
2, 47340, Note_on_c, 0, 73, 0
2, 47340, Note_on_c, 0, 79, 115
2, 47400, Note_on_c, 0, 79, 0
2, 47400, Note_on_c, 0, 71, 115
2, 47460, Note_on_c, 0, 71, 0
2, 47460, Note_on_c, 0, 79, 115
2, 47520, Note_on_c, 0, 79, 0
2, 47520, Note_on_c, 0, 69, 115
2, 47580, Note_on_c, 0, 69, 0
2, 47580, Note_on_c, 0, 78, 115
2, 47640, Note_on_c, 0, 78, 0
2, 47640, Note_on_c, 0, 76, 115
2, 47700, Note_on_c, 0, 76, 0
2, 47700, Note_on_c, 0, 78, 115
2, 47760, Note_on_c, 0, 78, 0
2, 47760, Note_on_c, 0, 74, 115
2, 47820, Note_on_c, 0, 74, 0
2, 47820, Note_on_c, 0, 78, 115
2, 47880, Note_on_c, 0, 78, 0
2, 47880, Note_on_c, 0, 72, 115
2, 47940, Note_on_c, 0, 72, 0
2, 47940, Note_on_c, 0, 78, 115
2, 48000, Note_on_c, 0, 78, 0
2, 48000, Note_on_c, 0, 71, 115
2, 48060, Note_on_c, 0, 71, 0
2, 48060, Note_on_c, 0, 78, 115
2, 48120, Note_on_c, 0, 78, 0
2, 48120, Note_on_c, 0, 69, 115
2, 48180, Note_on_c, 0, 69, 0
2, 48180, Note_on_c, 0, 78, 115
2, 48240, Note_on_c, 0, 78, 0
2, 48240, Note_on_c, 0, 67, 115
2, 48300, Note_on_c, 0, 67, 0
2, 48300, Note_on_c, 0, 76, 115
2, 48360, Note_on_c, 0, 76, 0
2, 48360, Note_on_c, 0, 74, 115
2, 48420, Note_on_c, 0, 74, 0
2, 48420, Note_on_c, 0, 76, 115
2, 48480, Note_on_c, 0, 76, 0
2, 48480, Note_on_c, 0, 73, 115
2, 48540, Note_on_c, 0, 73, 0
2, 48540, Note_on_c, 0, 76, 115
2, 48600, Note_on_c, 0, 76, 0
2, 48600, Note_on_c, 0, 70, 115
2, 48660, Note_on_c, 0, 70, 0
2, 48660, Note_on_c, 0, 76, 115
2, 48720, Note_on_c, 0, 76, 0
2, 48720, Note_on_c, 0, 69, 115
2, 48780, Note_on_c, 0, 69, 0
2, 48780, Note_on_c, 0, 76, 115
2, 48840, Note_on_c, 0, 76, 0
2, 48840, Note_on_c, 0, 67, 115
2, 48900, Note_on_c, 0, 67, 0
2, 48900, Note_on_c, 0, 76, 115
2, 48960, Note_on_c, 0, 76, 0
2, 48960, Note_on_c, 0, 66, 115
2, 49020, Note_on_c, 0, 66, 0
2, 49020, Note_on_c, 0, 75, 115
2, 49080, Note_on_c, 0, 75, 0
2, 49080, Note_on_c, 0, 72, 115
2, 49140, Note_on_c, 0, 72, 0
2, 49140, Note_on_c, 0, 69, 115
2, 49200, Note_on_c, 0, 69, 0
2, 49200, Note_on_c, 0, 66, 115
2, 49260, Note_on_c, 0, 66, 0
2, 49500, Note_on_c, 0, 64, 115
2, 49560, Note_on_c, 0, 64, 0
2, 49560, Note_on_c, 0, 62, 115
2, 49620, Note_on_c, 0, 62, 0
2, 49620, Note_on_c, 0, 60, 115
2, 49680, Note_on_c, 0, 60, 0
2, 49680, Note_on_c, 0, 59, 115
2, 49740, Note_on_c, 0, 59, 0
2, 49740, Note_on_c, 0, 67, 115
2, 49800, Note_on_c, 0, 67, 0
2, 49800, Note_on_c, 0, 66, 115
2, 49860, Note_on_c, 0, 66, 0
2, 49860, Note_on_c, 0, 64, 115
2, 49920, Note_on_c, 0, 64, 0
2, 49920, Note_on_c, 0, 62, 115
2, 49980, Note_on_c, 0, 62, 0
2, 49980, Note_on_c, 0, 71, 115
2, 50040, Note_on_c, 0, 71, 0
2, 50040, Note_on_c, 0, 69, 115
2, 50100, Note_on_c, 0, 69, 0
2, 50100, Note_on_c, 0, 67, 115
2, 50160, Note_on_c, 0, 67, 0
2, 50160, Note_on_c, 0, 66, 115
2, 50220, Note_on_c, 0, 66, 0
2, 50220, Note_on_c, 0, 76, 115
2, 50280, Note_on_c, 0, 76, 0
2, 50280, Note_on_c, 0, 74, 115
2, 50340, Note_on_c, 0, 74, 0
2, 50340, Note_on_c, 0, 72, 115
2, 50400, Note_on_c, 0, 72, 0
2, 50400, Note_on_c, 0, 71, 115
2, 50400, Note_on_c, 0, 71, 115
2, 50460, Note_on_c, 0, 71, 0
2, 50460, Note_on_c, 0, 81, 115
2, 50520, Note_on_c, 0, 81, 0
2, 50520, Note_on_c, 0, 79, 115
2, 50580, Note_on_c, 0, 79, 0
2, 50580, Note_on_c, 0, 77, 115
2, 50640, Note_on_c, 0, 77, 0
2, 50640, Note_on_c, 0, 71, 0
2, 50640, Note_on_c, 0, 76, 115
2, 50760, Note_on_c, 0, 74, 115
2, 50880, Note_on_c, 0, 74, 0
2, 50880, Note_on_c, 0, 72, 115
2, 51000, Note_on_c, 0, 72, 0
2, 51000, Note_on_c, 0, 71, 115
2, 51120, Note_on_c, 0, 71, 0
2, 51120, Note_on_c, 0, 69, 115
2, 51360, Note_on_c, 0, 69, 0
2, 51360, Note_on_c, 0, 76, 0
2, 51480, Note_on_c, 0, 74, 115
2, 51480, Note_on_c, 0, 66, 115
2, 51600, Note_on_c, 0, 66, 0
2, 51600, Note_on_c, 0, 74, 0
2, 51600, Note_on_c, 0, 76, 115
2, 51600, Note_on_c, 0, 67, 115
2, 51720, Note_on_c, 0, 67, 0
2, 51720, Note_on_c, 0, 76, 0
2, 51720, Note_on_c, 0, 78, 115
2, 51720, Note_on_c, 0, 69, 115
2, 51840, Note_on_c, 0, 69, 0
2, 51840, Note_on_c, 0, 78, 0
2, 51840, Note_on_c, 0, 79, 115
2, 51840, Note_on_c, 0, 71, 115
2, 52080, Note_on_c, 0, 71, 0
2, 52080, Note_on_c, 0, 79, 0
2, 52080, Note_on_c, 0, 69, 115
2, 52200, Note_on_c, 0, 76, 115
2, 52320, Note_on_c, 0, 76, 0
2, 52320, Note_on_c, 0, 81, 115
2, 52440, Note_on_c, 0, 81, 0
2, 52440, Note_on_c, 0, 79, 115
2, 52560, Note_on_c, 0, 79, 0
2, 52560, Note_on_c, 0, 78, 115
2, 52620, Note_on_c, 0, 78, 0
2, 52620, Note_on_c, 0, 74, 115
2, 52680, Note_on_c, 0, 74, 0
2, 52680, Note_on_c, 0, 78, 115
2, 52740, Note_on_c, 0, 78, 0
2, 52740, Note_on_c, 0, 81, 115
2, 52800, Note_on_c, 0, 81, 0
2, 52800, Note_on_c, 0, 69, 0
2, 52800, Note_on_c, 0, 84, 115
2, 52860, Note_on_c, 0, 84, 0
2, 52860, Note_on_c, 0, 83, 115
2, 52920, Note_on_c, 0, 83, 0
2, 52920, Note_on_c, 0, 81, 115
2, 52980, Note_on_c, 0, 81, 0
2, 52980, Note_on_c, 0, 79, 115
2, 53040, Note_on_c, 0, 79, 0
2, 53040, Note_on_c, 0, 78, 115
2, 53100, Note_on_c, 0, 78, 0
2, 53100, Note_on_c, 0, 76, 115
2, 53160, Note_on_c, 0, 76, 0
2, 53160, Note_on_c, 0, 74, 115
2, 53220, Note_on_c, 0, 74, 0
2, 53220, Note_on_c, 0, 72, 115
2, 53280, Note_on_c, 0, 72, 0
2, 53280, Note_on_c, 0, 79, 115
2, 53280, Note_on_c, 0, 74, 115
2, 53280, Note_on_c, 0, 71, 115
2, 53340, Note_on_c, 0, 71, 0
2, 53340, Note_on_c, 0, 74, 115
2, 53400, Note_on_c, 0, 74, 0
2, 53400, Note_on_c, 0, 74, 0
2, 53400, Note_on_c, 0, 79, 0
2, 53400, Note_on_c, 0, 67, 115
2, 53460, Note_on_c, 0, 67, 0
2, 53460, Note_on_c, 0, 71, 115
2, 53520, Note_on_c, 0, 71, 0
2, 53520, Note_on_c, 0, 62, 115
2, 53580, Note_on_c, 0, 62, 0
2, 53580, Note_on_c, 0, 72, 115
2, 53640, Note_on_c, 0, 72, 0
2, 53640, Note_on_c, 0, 71, 115
2, 53700, Note_on_c, 0, 71, 0
2, 53700, Note_on_c, 0, 69, 115
2, 53760, Note_on_c, 0, 69, 0
2, 53760, Note_on_c, 0, 67, 115
2, 53820, Note_on_c, 0, 67, 0
2, 53820, Note_on_c, 0, 66, 115
2, 53880, Note_on_c, 0, 66, 0
2, 53880, Note_on_c, 0, 64, 115
2, 53940, Note_on_c, 0, 64, 0
2, 53940, Note_on_c, 0, 62, 115
2, 54000, Note_on_c, 0, 62, 0
2, 54000, Note_on_c, 0, 79, 115
2, 54000, Note_on_c, 0, 76, 115
2, 54000, Note_on_c, 0, 70, 115
2, 54120, Note_on_c, 0, 70, 0
2, 54120, Note_on_c, 0, 76, 0
2, 54120, Note_on_c, 0, 79, 0
2, 54780, Note_on_c, 0, 62, 115
2, 54840, Note_on_c, 0, 62, 0
2, 54840, Note_on_c, 0, 64, 115
2, 54900, Note_on_c, 0, 64, 0
2, 54900, Note_on_c, 0, 66, 115
2, 54960, Note_on_c, 0, 66, 0
2, 54960, Note_on_c, 0, 67, 115
2, 55020, Note_on_c, 0, 67, 0
2, 55020, Note_on_c, 0, 69, 115
2, 55080, Note_on_c, 0, 69, 0
2, 55080, Note_on_c, 0, 67, 115
2, 55140, Note_on_c, 0, 67, 0
2, 55140, Note_on_c, 0, 69, 115
2, 55200, Note_on_c, 0, 69, 0
2, 55200, Note_on_c, 0, 71, 115
2, 55260, Note_on_c, 0, 71, 0
2, 55260, Note_on_c, 0, 74, 115
2, 55320, Note_on_c, 0, 74, 0
2, 55320, Note_on_c, 0, 72, 115
2, 55380, Note_on_c, 0, 72, 0
2, 55380, Note_on_c, 0, 76, 115
2, 55440, Note_on_c, 0, 76, 0
2, 55440, Note_on_c, 0, 74, 115
2, 55440, Note_on_c, 0, 62, 115
2, 55500, Note_on_c, 0, 74, 0
2, 55500, Note_on_c, 0, 78, 115
2, 55560, Note_on_c, 0, 78, 0
2, 55560, Note_on_c, 0, 62, 0
2, 55560, Note_on_c, 0, 76, 115
2, 55560, Note_on_c, 0, 60, 115
2, 55620, Note_on_c, 0, 60, 0
2, 55620, Note_on_c, 0, 76, 0
2, 55620, Note_on_c, 0, 79, 115
2, 55620, Note_on_c, 0, 59, 115
2, 55680, Note_on_c, 0, 59, 0
2, 55680, Note_on_c, 0, 79, 0
2, 55680, Note_on_c, 0, 78, 115
2, 55680, Note_on_c, 0, 57, 115
2, 55740, Note_on_c, 0, 78, 0
2, 55740, Note_on_c, 0, 74, 115
2, 55800, Note_on_c, 0, 74, 0
2, 55800, Note_on_c, 0, 57, 0
2, 55800, Note_on_c, 0, 79, 115
2, 55800, Note_on_c, 0, 64, 115
2, 55860, Note_on_c, 0, 79, 0
2, 55860, Note_on_c, 0, 71, 115
2, 55920, Note_on_c, 0, 71, 0
2, 55920, Note_on_c, 0, 64, 0
2, 55920, Note_on_c, 0, 69, 115
2, 55920, Note_on_c, 0, 57, 115
2, 55980, Note_on_c, 0, 69, 0
2, 55980, Note_on_c, 0, 79, 115
2, 56040, Note_on_c, 0, 79, 0
2, 56040, Note_on_c, 0, 57, 0
2, 56040, Note_on_c, 0, 72, 115
2, 56040, Note_on_c, 0, 62, 115
2, 56100, Note_on_c, 0, 72, 0
2, 56100, Note_on_c, 0, 78, 115
2, 56160, Note_on_c, 0, 78, 0
2, 56160, Note_on_c, 0, 62, 0
2, 56160, Note_on_c, 0, 79, 115
2, 56160, Note_on_c, 0, 74, 115
2, 56160, Note_on_c, 0, 71, 115
2, 56160, Note_on_c, 0, 67, 115
2, 56160, Note_on_c, 0, 62, 115
2, 56400, Note_on_c, 0, 62, 0
2, 56400, Note_on_c, 0, 71, 0
2, 56400, Note_on_c, 0, 79, 0
2, 56400, Note_on_c, 0, 74, 0
2, 56400, Note_on_c, 0, 67, 0
2, 56520, Note_on_c, 0, 66, 115
2, 56640, Note_on_c, 0, 66, 0
2, 56640, Note_on_c, 0, 67, 115
2, 56760, Note_on_c, 0, 67, 0
2, 56760, Note_on_c, 0, 69, 115
2, 56880, Note_on_c, 0, 69, 0
2, 56880, Note_on_c, 0, 71, 115
2, 56940, Note_on_c, 0, 71, 0
2, 56940, Note_on_c, 0, 69, 115
2, 57000, Note_on_c, 0, 69, 0
2, 57000, Note_on_c, 0, 71, 115
2, 57060, Note_on_c, 0, 71, 0
2, 57060, Note_on_c, 0, 72, 115
2, 57120, Note_on_c, 0, 72, 0
2, 57120, Note_on_c, 0, 71, 115
2, 57180, Note_on_c, 0, 71, 0
2, 57180, Note_on_c, 0, 76, 115
2, 57240, Note_on_c, 0, 76, 0
2, 57240, Note_on_c, 0, 69, 115
2, 57300, Note_on_c, 0, 69, 0
2, 57300, Note_on_c, 0, 78, 115
2, 57360, Note_on_c, 0, 78, 0
2, 57360, Note_on_c, 0, 71, 115
2, 57420, Note_on_c, 0, 71, 0
2, 57420, Note_on_c, 0, 79, 115
2, 57480, Note_on_c, 0, 79, 0
2, 57480, Note_on_c, 0, 72, 115
2, 57540, Note_on_c, 0, 72, 0
2, 57540, Note_on_c, 0, 81, 115
2, 57600, Note_on_c, 0, 81, 0
2, 57600, Note_on_c, 0, 83, 127
2, 57600, Note_on_c, 0, 67, 115
2, 57690, Note_on_c, 0, 67, 0
2, 57690, Note_on_c, 0, 83, 0
2, 57720, Note_on_c, 0, 74, 127
2, 57720, Note_on_c, 0, 67, 115
2, 57720, Note_on_c, 0, 62, 115
2, 57810, Note_on_c, 0, 62, 0
2, 57810, Note_on_c, 0, 67, 0
2, 57810, Note_on_c, 0, 74, 0
2, 57840, Note_on_c, 0, 72, 127
2, 57840, Note_on_c, 0, 67, 115
2, 57840, Note_on_c, 0, 64, 115
2, 57894, Note_on_c, 0, 72, 0
2, 57900, Note_on_c, 0, 71, 127
2, 57948, Note_on_c, 0, 64, 0
2, 57948, Note_on_c, 0, 67, 0
2, 57954, Note_on_c, 0, 71, 0
2, 57960, Note_on_c, 0, 69, 127
2, 57960, Note_on_c, 0, 64, 115
2, 58014, Note_on_c, 0, 69, 0
2, 58020, Note_on_c, 0, 67, 127
2, 58065, Note_on_c, 0, 67, 0
2, 58068, Note_on_c, 0, 64, 0
2, 58080, Note_on_c, 0, 62, 127
2, 58080, Note_on_c, 0, 62, 127
2, 58080, Note_on_c, 0, 62, 127
2, 58170, Note_on_c, 0, 62, 0
2, 58170, Note_on_c, 0, 62, 0
2, 58170, Note_on_c, 0, 62, 0
2, 58200, Note_on_c, 0, 67, 127
2, 58200, Note_on_c, 0, 62, 115
2, 58200, Note_on_c, 0, 60, 115
2, 58245, Note_on_c, 0, 67, 0
2, 58260, Note_on_c, 0, 66, 127
2, 58290, Note_on_c, 0, 60, 0
2, 58290, Note_on_c, 0, 62, 0
2, 58314, Note_on_c, 0, 66, 0
2, 58320, Note_on_c, 0, 67, 115
2, 58320, Note_on_c, 0, 62, 115
2, 58320, Note_on_c, 0, 59, 115
2, 58800, Note_on_c, 0, 59, 0
2, 58800, Note_on_c, 0, 62, 0
2, 58800, Note_on_c, 0, 67, 0
2, 59160, Note_on_c, 0, 62, 105
2, 59280, Note_on_c, 0, 62, 0
2, 59280, Note_on_c, 0, 62, 105
2, 59400, Note_on_c, 0, 62, 0
2, 59400, Note_on_c, 0, 62, 105
2, 59520, Note_on_c, 0, 62, 0
2, 59520, Note_on_c, 0, 67, 105
2, 59640, Note_on_c, 0, 67, 0
2, 59640, Note_on_c, 0, 67, 105
2, 59760, Note_on_c, 0, 67, 0
2, 59760, Note_on_c, 0, 67, 105
2, 59880, Note_on_c, 0, 67, 0
2, 59880, Note_on_c, 0, 67, 105
2, 60000, Note_on_c, 0, 67, 0
2, 60000, Note_on_c, 0, 67, 105
2, 60120, Note_on_c, 0, 67, 0
2, 60120, Note_on_c, 0, 66, 105
2, 60180, Note_on_c, 0, 66, 0
2, 60180, Note_on_c, 0, 64, 105
2, 60240, Note_on_c, 0, 64, 0
2, 60240, Note_on_c, 0, 66, 105
2, 60360, Note_on_c, 0, 66, 0
2, 60360, Note_on_c, 0, 62, 105
2, 60480, Note_on_c, 0, 62, 0
2, 60480, Note_on_c, 0, 71, 105
2, 60600, Note_on_c, 0, 71, 0
2, 60600, Note_on_c, 0, 71, 105
2, 60720, Note_on_c, 0, 71, 0
2, 60720, Note_on_c, 0, 71, 105
2, 60840, Note_on_c, 0, 71, 0
2, 60840, Note_on_c, 0, 71, 105
2, 60960, Note_on_c, 0, 71, 0
2, 60960, Note_on_c, 0, 71, 105
2, 61080, Note_on_c, 0, 71, 0
2, 61080, Note_on_c, 0, 69, 105
2, 61140, Note_on_c, 0, 69, 0
2, 61140, Note_on_c, 0, 67, 105
2, 61200, Note_on_c, 0, 67, 0
2, 61200, Note_on_c, 0, 69, 105
2, 61320, Note_on_c, 0, 69, 0
2, 61320, Note_on_c, 0, 69, 105
2, 61440, Note_on_c, 0, 69, 0
2, 61440, Note_on_c, 0, 69, 105
2, 61560, Note_on_c, 0, 69, 0
2, 61560, Note_on_c, 0, 62, 105
2, 61680, Note_on_c, 0, 62, 0
2, 61680, Note_on_c, 0, 67, 105
2, 62040, Note_on_c, 0, 67, 0
2, 62040, Note_on_c, 0, 69, 105
2, 62100, Note_on_c, 0, 69, 0
2, 62100, Note_on_c, 0, 67, 105
2, 62160, Note_on_c, 0, 67, 0
2, 62160, Note_on_c, 0, 66, 105
2, 62220, Note_on_c, 0, 66, 0
2, 62220, Note_on_c, 0, 67, 105
2, 62280, Note_on_c, 0, 67, 0
2, 62280, Note_on_c, 0, 64, 105
2, 62340, Note_on_c, 0, 64, 0
2, 62340, Note_on_c, 0, 66, 105
2, 62400, Note_on_c, 0, 66, 0
2, 62400, Note_on_c, 0, 67, 105
2, 62460, Note_on_c, 0, 67, 0
2, 62460, Note_on_c, 0, 66, 105
2, 62520, Note_on_c, 0, 66, 0
2, 62520, Note_on_c, 0, 67, 105
2, 62580, Note_on_c, 0, 67, 0
2, 62580, Note_on_c, 0, 69, 105
2, 62640, Note_on_c, 0, 69, 0
2, 62640, Note_on_c, 0, 67, 105
2, 62700, Note_on_c, 0, 67, 0
2, 62700, Note_on_c, 0, 71, 105
2, 62760, Note_on_c, 0, 71, 0
2, 62760, Note_on_c, 0, 69, 105
2, 62820, Note_on_c, 0, 69, 0
2, 62820, Note_on_c, 0, 67, 105
2, 62880, Note_on_c, 0, 67, 0
2, 62880, Note_on_c, 0, 66, 105
2, 62940, Note_on_c, 0, 66, 0
2, 62940, Note_on_c, 0, 64, 105
2, 63000, Note_on_c, 0, 64, 0
2, 63000, Note_on_c, 0, 66, 105
2, 63060, Note_on_c, 0, 66, 0
2, 63060, Note_on_c, 0, 67, 105
2, 63120, Note_on_c, 0, 67, 0
2, 63120, Note_on_c, 0, 66, 105
2, 63180, Note_on_c, 0, 66, 0
2, 63180, Note_on_c, 0, 69, 105
2, 63240, Note_on_c, 0, 69, 0
2, 63240, Note_on_c, 0, 67, 105
2, 63300, Note_on_c, 0, 67, 0
2, 63300, Note_on_c, 0, 66, 105
2, 63360, Note_on_c, 0, 66, 0
2, 63360, Note_on_c, 0, 64, 105
2, 63600, Note_on_c, 0, 64, 0
2, 63600, Note_on_c, 0, 76, 105
2, 63900, Note_on_c, 0, 76, 0
2, 63900, Note_on_c, 0, 69, 105
2, 63960, Note_on_c, 0, 69, 0
2, 63960, Note_on_c, 0, 71, 105
2, 64020, Note_on_c, 0, 71, 0
2, 64020, Note_on_c, 0, 73, 105
2, 64080, Note_on_c, 0, 73, 0
2, 64080, Note_on_c, 0, 74, 105
2, 64140, Note_on_c, 0, 74, 0
2, 64140, Note_on_c, 0, 76, 105
2, 64200, Note_on_c, 0, 76, 0
2, 64200, Note_on_c, 0, 73, 105
2, 64260, Note_on_c, 0, 73, 0
2, 64260, Note_on_c, 0, 74, 105
2, 64320, Note_on_c, 0, 74, 0
2, 64320, Note_on_c, 0, 67, 105
2, 64620, Note_on_c, 0, 67, 0
2, 64620, Note_on_c, 0, 71, 105
2, 64680, Note_on_c, 0, 71, 0
2, 64680, Note_on_c, 0, 69, 105
2, 64740, Note_on_c, 0, 69, 0
2, 64740, Note_on_c, 0, 67, 105
2, 64800, Note_on_c, 0, 67, 0
2, 64800, Note_on_c, 0, 66, 105
2, 65100, Note_on_c, 0, 66, 0
2, 65100, Note_on_c, 0, 67, 105
2, 65160, Note_on_c, 0, 67, 0
2, 65160, Note_on_c, 0, 69, 105
2, 65220, Note_on_c, 0, 69, 0
2, 65220, Note_on_c, 0, 71, 105
2, 65280, Note_on_c, 0, 71, 0
2, 65280, Note_on_c, 0, 73, 105
2, 65340, Note_on_c, 0, 73, 0
2, 65340, Note_on_c, 0, 74, 105
2, 65400, Note_on_c, 0, 74, 0
2, 65400, Note_on_c, 0, 73, 105
2, 65460, Note_on_c, 0, 73, 0
2, 65460, Note_on_c, 0, 74, 105
2, 65520, Note_on_c, 0, 74, 0
2, 65520, Note_on_c, 0, 64, 105
2, 65640, Note_on_c, 0, 64, 0
2, 65640, Note_on_c, 0, 69, 105
2, 65760, Note_on_c, 0, 69, 0
2, 65760, Note_on_c, 0, 66, 105
2, 65820, Note_on_c, 0, 66, 0
2, 65820, Note_on_c, 0, 64, 105
2, 65880, Note_on_c, 0, 64, 0
2, 65880, Note_on_c, 0, 66, 105
2, 65940, Note_on_c, 0, 66, 0
2, 65940, Note_on_c, 0, 67, 105
2, 66000, Note_on_c, 0, 67, 0
2, 66000, Note_on_c, 0, 66, 105
2, 66060, Note_on_c, 0, 66, 0
2, 66060, Note_on_c, 0, 67, 105
2, 66120, Note_on_c, 0, 67, 0
2, 66120, Note_on_c, 0, 69, 105
2, 66360, Note_on_c, 0, 69, 0
2, 66360, Note_on_c, 0, 67, 105
2, 66480, Note_on_c, 0, 67, 0
2, 66600, Note_on_c, 0, 67, 105
2, 66720, Note_on_c, 0, 67, 0
2, 66720, Note_on_c, 0, 72, 105
2, 66780, Note_on_c, 0, 72, 0
2, 66780, Note_on_c, 0, 71, 105
2, 66840, Note_on_c, 0, 71, 0
2, 66840, Note_on_c, 0, 69, 105
2, 66900, Note_on_c, 0, 69, 0
2, 66900, Note_on_c, 0, 71, 105
2, 66960, Note_on_c, 0, 71, 0
2, 66960, Note_on_c, 0, 72, 105
2, 67020, Note_on_c, 0, 72, 0
2, 67020, Note_on_c, 0, 74, 105
2, 67080, Note_on_c, 0, 74, 0
2, 67080, Note_on_c, 0, 71, 105
2, 67140, Note_on_c, 0, 71, 0
2, 67140, Note_on_c, 0, 72, 105
2, 67200, Note_on_c, 0, 72, 0
2, 67200, Note_on_c, 0, 74, 105
2, 67440, Note_on_c, 0, 74, 0
2, 67560, Note_on_c, 0, 74, 105
2, 67680, Note_on_c, 0, 74, 0
2, 67680, Note_on_c, 0, 76, 105
2, 67740, Note_on_c, 0, 76, 0
2, 67740, Note_on_c, 0, 74, 105
2, 67800, Note_on_c, 0, 74, 0
2, 67800, Note_on_c, 0, 76, 105
2, 67860, Note_on_c, 0, 76, 0
2, 67860, Note_on_c, 0, 77, 105
2, 67920, Note_on_c, 0, 77, 0
2, 67920, Note_on_c, 0, 76, 105
2, 67980, Note_on_c, 0, 76, 0
2, 67980, Note_on_c, 0, 79, 105
2, 68040, Note_on_c, 0, 79, 0
2, 68040, Note_on_c, 0, 78, 105
2, 68100, Note_on_c, 0, 78, 0
2, 68100, Note_on_c, 0, 81, 105
2, 68160, Note_on_c, 0, 81, 0
2, 68160, Note_on_c, 0, 74, 105
2, 68220, Note_on_c, 0, 74, 0
2, 68220, Note_on_c, 0, 72, 105
2, 68280, Note_on_c, 0, 72, 0
2, 68280, Note_on_c, 0, 74, 105
2, 68340, Note_on_c, 0, 74, 0
2, 68340, Note_on_c, 0, 76, 105
2, 68400, Note_on_c, 0, 76, 0
2, 68400, Note_on_c, 0, 74, 105
2, 68460, Note_on_c, 0, 74, 0
2, 68460, Note_on_c, 0, 79, 105
2, 68520, Note_on_c, 0, 79, 0
2, 68520, Note_on_c, 0, 78, 105
2, 68580, Note_on_c, 0, 78, 0
2, 68580, Note_on_c, 0, 79, 105
2, 68640, Note_on_c, 0, 79, 0
2, 68640, Note_on_c, 0, 69, 105
2, 68700, Note_on_c, 0, 69, 0
2, 68700, Note_on_c, 0, 71, 105
2, 68760, Note_on_c, 0, 71, 0
2, 68760, Note_on_c, 0, 69, 105
2, 68820, Note_on_c, 0, 69, 0
2, 68820, Note_on_c, 0, 71, 105
2, 68880, Note_on_c, 0, 71, 0
2, 68880, Note_on_c, 0, 72, 105
2, 68940, Note_on_c, 0, 72, 0
2, 68940, Note_on_c, 0, 74, 105
2, 69000, Note_on_c, 0, 74, 0
2, 69000, Note_on_c, 0, 72, 105
2, 69060, Note_on_c, 0, 72, 0
2, 69060, Note_on_c, 0, 74, 105
2, 69120, Note_on_c, 0, 74, 0
2, 69120, Note_on_c, 0, 71, 105
2, 69180, Note_on_c, 0, 71, 0
2, 69180, Note_on_c, 0, 72, 105
2, 69240, Note_on_c, 0, 72, 0
2, 69240, Note_on_c, 0, 71, 105
2, 69300, Note_on_c, 0, 71, 0
2, 69300, Note_on_c, 0, 69, 105
2, 69360, Note_on_c, 0, 69, 0
2, 69360, Note_on_c, 0, 67, 105
2, 69420, Note_on_c, 0, 67, 0
2, 69420, Note_on_c, 0, 71, 105
2, 69480, Note_on_c, 0, 71, 0
2, 69480, Note_on_c, 0, 76, 105
2, 69540, Note_on_c, 0, 76, 0
2, 69540, Note_on_c, 0, 74, 105
2, 69600, Note_on_c, 0, 74, 0
2, 69600, Note_on_c, 0, 73, 105
2, 69660, Note_on_c, 0, 73, 0
2, 69660, Note_on_c, 0, 71, 105
2, 69720, Note_on_c, 0, 71, 0
2, 69720, Note_on_c, 0, 69, 105
2, 69780, Note_on_c, 0, 69, 0
2, 69780, Note_on_c, 0, 67, 105
2, 69840, Note_on_c, 0, 67, 0
2, 69840, Note_on_c, 0, 66, 105
2, 70140, Note_on_c, 0, 66, 0
2, 70140, Note_on_c, 0, 66, 105
2, 70200, Note_on_c, 0, 66, 0
2, 70200, Note_on_c, 0, 67, 105
2, 70260, Note_on_c, 0, 67, 0
2, 70260, Note_on_c, 0, 69, 105
2, 70320, Note_on_c, 0, 69, 0
2, 70320, Note_on_c, 0, 71, 105
2, 70380, Note_on_c, 0, 71, 0
2, 70380, Note_on_c, 0, 72, 105
2, 70440, Note_on_c, 0, 72, 0
2, 70440, Note_on_c, 0, 71, 105
2, 70500, Note_on_c, 0, 71, 0
2, 70500, Note_on_c, 0, 69, 105
2, 70560, Note_on_c, 0, 69, 0
2, 70560, Note_on_c, 0, 67, 105
2, 71100, Note_on_c, 0, 67, 0
2, 71100, Note_on_c, 0, 64, 105
2, 71160, Note_on_c, 0, 64, 0
2, 71160, Note_on_c, 0, 66, 105
2, 71220, Note_on_c, 0, 66, 0
2, 71220, Note_on_c, 0, 67, 105
2, 71280, Note_on_c, 0, 67, 0
2, 71280, Note_on_c, 0, 69, 105
2, 71340, Note_on_c, 0, 69, 0
2, 71340, Note_on_c, 0, 71, 105
2, 71400, Note_on_c, 0, 71, 0
2, 71400, Note_on_c, 0, 69, 105
2, 71460, Note_on_c, 0, 69, 0
2, 71460, Note_on_c, 0, 67, 105
2, 71520, Note_on_c, 0, 67, 0
2, 71520, Note_on_c, 0, 66, 105
2, 71640, Note_on_c, 0, 69, 105
2, 71760, Note_on_c, 0, 69, 0
2, 71760, Note_on_c, 0, 66, 0
2, 71760, Note_on_c, 0, 69, 105
2, 71880, Note_on_c, 0, 69, 0
2, 71880, Note_on_c, 0, 69, 105
2, 71880, Note_on_c, 0, 64, 105
2, 72000, Note_on_c, 0, 64, 0
2, 72000, Note_on_c, 0, 69, 0
2, 72000, Note_on_c, 0, 74, 105
2, 72000, Note_on_c, 0, 66, 105
2, 72120, Note_on_c, 0, 66, 0
2, 72120, Note_on_c, 0, 74, 0
2, 72120, Note_on_c, 0, 74, 105
2, 72120, Note_on_c, 0, 64, 105
2, 72240, Note_on_c, 0, 64, 0
2, 72240, Note_on_c, 0, 74, 0
2, 72240, Note_on_c, 0, 74, 105
2, 72240, Note_on_c, 0, 64, 105
2, 72360, Note_on_c, 0, 64, 0
2, 72360, Note_on_c, 0, 74, 0
2, 72360, Note_on_c, 0, 74, 105
2, 72360, Note_on_c, 0, 64, 105
2, 72480, Note_on_c, 0, 64, 0
2, 72480, Note_on_c, 0, 74, 0
2, 72480, Note_on_c, 0, 74, 105
2, 72480, Note_on_c, 0, 64, 105
2, 72600, Note_on_c, 0, 74, 0
2, 72600, Note_on_c, 0, 73, 105
2, 72660, Note_on_c, 0, 73, 0
2, 72660, Note_on_c, 0, 71, 105
2, 72720, Note_on_c, 0, 71, 0
2, 72720, Note_on_c, 0, 64, 0
2, 72720, Note_on_c, 0, 73, 105
2, 72840, Note_on_c, 0, 73, 0
2, 72840, Note_on_c, 0, 69, 105
2, 72960, Note_on_c, 0, 69, 0
2, 72960, Note_on_c, 0, 78, 105
2, 73080, Note_on_c, 0, 78, 0
2, 73080, Note_on_c, 0, 78, 105
2, 73080, Note_on_c, 0, 69, 105
2, 73200, Note_on_c, 0, 69, 0
2, 73200, Note_on_c, 0, 78, 0
2, 73200, Note_on_c, 0, 78, 105
2, 73200, Note_on_c, 0, 74, 105
2, 73320, Note_on_c, 0, 74, 0
2, 73320, Note_on_c, 0, 78, 0
2, 73320, Note_on_c, 0, 78, 105
2, 73320, Note_on_c, 0, 72, 105
2, 73440, Note_on_c, 0, 72, 0
2, 73440, Note_on_c, 0, 78, 0
2, 73440, Note_on_c, 0, 71, 105
2, 73440, Note_on_c, 0, 78, 105
2, 73560, Note_on_c, 0, 78, 0
2, 73560, Note_on_c, 0, 76, 105
2, 73620, Note_on_c, 0, 76, 0
2, 73620, Note_on_c, 0, 74, 105
2, 73680, Note_on_c, 0, 74, 0
2, 73680, Note_on_c, 0, 76, 105
2, 73800, Note_on_c, 0, 76, 0
2, 73800, Note_on_c, 0, 76, 105
2, 73920, Note_on_c, 0, 76, 0
2, 73920, Note_on_c, 0, 71, 0
2, 73920, Note_on_c, 0, 76, 105
2, 73980, Note_on_c, 0, 67, 105
2, 74040, Note_on_c, 0, 67, 0
2, 74040, Note_on_c, 0, 76, 0
2, 74040, Note_on_c, 0, 66, 105
2, 74040, Note_on_c, 0, 69, 105
2, 74100, Note_on_c, 0, 66, 0
2, 74100, Note_on_c, 0, 64, 105
2, 74160, Note_on_c, 0, 64, 0
2, 74160, Note_on_c, 0, 69, 0
2, 74160, Note_on_c, 0, 74, 105
2, 74160, Note_on_c, 0, 62, 105
2, 74280, Note_on_c, 0, 62, 0
2, 74280, Note_on_c, 0, 66, 105
2, 74400, Note_on_c, 0, 66, 0
2, 74400, Note_on_c, 0, 71, 105
2, 74520, Note_on_c, 0, 71, 0
2, 74520, Note_on_c, 0, 74, 0
2, 74520, Note_on_c, 0, 67, 105
2, 74520, Note_on_c, 0, 76, 105
2, 74580, Note_on_c, 0, 76, 0
2, 74580, Note_on_c, 0, 74, 105
2, 74640, Note_on_c, 0, 74, 0
2, 74640, Note_on_c, 0, 67, 0
2, 74640, Note_on_c, 0, 64, 105
2, 74640, Note_on_c, 0, 73, 105
2, 74700, Note_on_c, 0, 73, 0
2, 74700, Note_on_c, 0, 74, 105
2, 74760, Note_on_c, 0, 74, 0
2, 74760, Note_on_c, 0, 71, 105
2, 74820, Note_on_c, 0, 71, 0
2, 74820, Note_on_c, 0, 73, 105
2, 74880, Note_on_c, 0, 73, 0
2, 74880, Note_on_c, 0, 64, 0
2, 74880, Note_on_c, 0, 62, 105
2, 74880, Note_on_c, 0, 74, 105
2, 75000, Note_on_c, 0, 74, 0
2, 75000, Note_on_c, 0, 69, 105
2, 75060, Note_on_c, 0, 69, 0
2, 75060, Note_on_c, 0, 67, 105
2, 75120, Note_on_c, 0, 67, 0
2, 75120, Note_on_c, 0, 62, 0
2, 75120, Note_on_c, 0, 69, 105
2, 75180, Note_on_c, 0, 69, 0
2, 75180, Note_on_c, 0, 72, 105
2, 75240, Note_on_c, 0, 72, 0
2, 75240, Note_on_c, 0, 71, 105
2, 75300, Note_on_c, 0, 71, 0
2, 75300, Note_on_c, 0, 74, 105
2, 75360, Note_on_c, 0, 74, 0
2, 75360, Note_on_c, 0, 72, 105
2, 75480, Note_on_c, 0, 64, 105
2, 75540, Note_on_c, 0, 64, 0
2, 75540, Note_on_c, 0, 62, 105
2, 75600, Note_on_c, 0, 62, 0
2, 75600, Note_on_c, 0, 64, 105
2, 75660, Note_on_c, 0, 64, 0
2, 75660, Note_on_c, 0, 67, 105
2, 75720, Note_on_c, 0, 67, 0
2, 75720, Note_on_c, 0, 66, 105
2, 75780, Note_on_c, 0, 66, 0
2, 75780, Note_on_c, 0, 69, 105
2, 75840, Note_on_c, 0, 69, 0
2, 75840, Note_on_c, 0, 72, 0
2, 75840, Note_on_c, 0, 67, 105
2, 75960, Note_on_c, 0, 71, 105
2, 76020, Note_on_c, 0, 71, 0
2, 76020, Note_on_c, 0, 69, 105
2, 76080, Note_on_c, 0, 69, 0
2, 76080, Note_on_c, 0, 71, 105
2, 76140, Note_on_c, 0, 71, 0
2, 76140, Note_on_c, 0, 74, 105
2, 76200, Note_on_c, 0, 74, 0
2, 76200, Note_on_c, 0, 72, 105
2, 76260, Note_on_c, 0, 72, 0
2, 76260, Note_on_c, 0, 76, 105
2, 76320, Note_on_c, 0, 76, 0
2, 76320, Note_on_c, 0, 67, 0
2, 76320, Note_on_c, 0, 74, 105
2, 76440, Note_on_c, 0, 66, 105
2, 76500, Note_on_c, 0, 66, 0
2, 76500, Note_on_c, 0, 64, 105
2, 76560, Note_on_c, 0, 64, 0
2, 76560, Note_on_c, 0, 66, 105
2, 76620, Note_on_c, 0, 66, 0
2, 76620, Note_on_c, 0, 69, 105
2, 76680, Note_on_c, 0, 69, 0
2, 76680, Note_on_c, 0, 68, 105
2, 76740, Note_on_c, 0, 68, 0
2, 76740, Note_on_c, 0, 71, 105
2, 76800, Note_on_c, 0, 71, 0
2, 76800, Note_on_c, 0, 69, 105
2, 76920, Note_on_c, 0, 69, 0
2, 76920, Note_on_c, 0, 74, 0
2, 76920, Note_on_c, 0, 64, 105
2, 76920, Note_on_c, 0, 72, 105
2, 76980, Note_on_c, 0, 72, 0
2, 76980, Note_on_c, 0, 71, 105
2, 77040, Note_on_c, 0, 71, 0
2, 77040, Note_on_c, 0, 72, 105
2, 77160, Note_on_c, 0, 72, 0
2, 77160, Note_on_c, 0, 64, 0
2, 77160, Note_on_c, 0, 60, 105
2, 77160, Note_on_c, 0, 69, 105
2, 77280, Note_on_c, 0, 69, 0
2, 77280, Note_on_c, 0, 60, 0
2, 77280, Note_on_c, 0, 60, 105
2, 77280, Note_on_c, 0, 77, 105
2, 77400, Note_on_c, 0, 77, 0
2, 77400, Note_on_c, 0, 77, 105
2, 77520, Note_on_c, 0, 77, 0
2, 77520, Note_on_c, 0, 60, 0
2, 77520, Note_on_c, 0, 77, 105
2, 77640, Note_on_c, 0, 77, 0
2, 77640, Note_on_c, 0, 59, 105
2, 77640, Note_on_c, 0, 77, 105
2, 77760, Note_on_c, 0, 77, 0
2, 77760, Note_on_c, 0, 77, 105
2, 77880, Note_on_c, 0, 77, 0
2, 77880, Note_on_c, 0, 59, 0
2, 77880, Note_on_c, 0, 72, 105
2, 77880, Note_on_c, 0, 76, 105
2, 77940, Note_on_c, 0, 76, 0
2, 77940, Note_on_c, 0, 72, 0
2, 77940, Note_on_c, 0, 71, 105
2, 77940, Note_on_c, 0, 74, 105
2, 78000, Note_on_c, 0, 74, 0
2, 78000, Note_on_c, 0, 71, 0
2, 78000, Note_on_c, 0, 69, 105
2, 78000, Note_on_c, 0, 76, 105
2, 78060, Note_on_c, 0, 69, 0
2, 78060, Note_on_c, 0, 67, 105
2, 78120, Note_on_c, 0, 67, 0
2, 78120, Note_on_c, 0, 76, 0
2, 78120, Note_on_c, 0, 76, 105
2, 78120, Note_on_c, 0, 66, 105
2, 78180, Note_on_c, 0, 66, 0
2, 78180, Note_on_c, 0, 64, 105
2, 78240, Note_on_c, 0, 64, 0
2, 78240, Note_on_c, 0, 76, 0
2, 78240, Note_on_c, 0, 66, 105
2, 78240, Note_on_c, 0, 76, 105
2, 78360, Note_on_c, 0, 76, 0
2, 78360, Note_on_c, 0, 69, 105
2, 78480, Note_on_c, 0, 69, 0
2, 78480, Note_on_c, 0, 66, 0
2, 78480, Note_on_c, 0, 68, 105
2, 78480, Note_on_c, 0, 74, 105
2, 78600, Note_on_c, 0, 74, 0
2, 78600, Note_on_c, 0, 74, 105
2, 78720, Note_on_c, 0, 74, 0
2, 78720, Note_on_c, 0, 68, 0
2, 78720, Note_on_c, 0, 64, 105
2, 78720, Note_on_c, 0, 74, 105
2, 78840, Note_on_c, 0, 74, 0
2, 78840, Note_on_c, 0, 72, 105
2, 78900, Note_on_c, 0, 72, 0
2, 78900, Note_on_c, 0, 71, 105
2, 78960, Note_on_c, 0, 71, 0
2, 78960, Note_on_c, 0, 64, 0
2, 78960, Note_on_c, 0, 72, 105
2, 79020, Note_on_c, 0, 67, 105
2, 79080, Note_on_c, 0, 67, 0
2, 79080, Note_on_c, 0, 72, 0
2, 79080, Note_on_c, 0, 69, 105
2, 79080, Note_on_c, 0, 65, 105
2, 79140, Note_on_c, 0, 65, 0
2, 79140, Note_on_c, 0, 64, 105
2, 79200, Note_on_c, 0, 64, 0
2, 79200, Note_on_c, 0, 69, 0
2, 79200, Note_on_c, 0, 71, 105
2, 79320, Note_on_c, 0, 71, 0
2, 79320, Note_on_c, 0, 73, 105
2, 79440, Note_on_c, 0, 73, 0
2, 79440, Note_on_c, 0, 74, 105
2, 79560, Note_on_c, 0, 74, 0
2, 79560, Note_on_c, 0, 76, 105
2, 79680, Note_on_c, 0, 76, 0
2, 79680, Note_on_c, 0, 73, 105
2, 79800, Note_on_c, 0, 73, 0
2, 79800, Note_on_c, 0, 69, 105
2, 79920, Note_on_c, 0, 69, 0
2, 79920, Note_on_c, 0, 81, 105
2, 80040, Note_on_c, 0, 81, 0
2, 80040, Note_on_c, 0, 81, 105
2, 80160, Note_on_c, 0, 81, 0
2, 80160, Note_on_c, 0, 81, 105
2, 80280, Note_on_c, 0, 81, 0
2, 80280, Note_on_c, 0, 79, 105
2, 80340, Note_on_c, 0, 79, 0
2, 80340, Note_on_c, 0, 78, 105
2, 80400, Note_on_c, 0, 78, 0
2, 80400, Note_on_c, 0, 79, 105
2, 80460, Note_on_c, 0, 79, 0
2, 80460, Note_on_c, 0, 78, 105
2, 80520, Note_on_c, 0, 78, 0
2, 80520, Note_on_c, 0, 76, 105
2, 80580, Note_on_c, 0, 76, 0
2, 80580, Note_on_c, 0, 79, 105
2, 80640, Note_on_c, 0, 79, 0
2, 80640, Note_on_c, 0, 78, 105
2, 80700, Note_on_c, 0, 78, 0
2, 80700, Note_on_c, 0, 76, 105
2, 80760, Note_on_c, 0, 76, 0
2, 80760, Note_on_c, 0, 74, 105
2, 80820, Note_on_c, 0, 74, 0
2, 80820, Note_on_c, 0, 78, 105
2, 80880, Note_on_c, 0, 78, 0
2, 80880, Note_on_c, 0, 76, 105
2, 80940, Note_on_c, 0, 76, 0
2, 80940, Note_on_c, 0, 79, 105
2, 81000, Note_on_c, 0, 79, 0
2, 81000, Note_on_c, 0, 78, 105
2, 81060, Note_on_c, 0, 78, 0
2, 81060, Note_on_c, 0, 81, 105
2, 81120, Note_on_c, 0, 81, 0
2, 81120, Note_on_c, 0, 79, 105
2, 81180, Note_on_c, 0, 79, 0
2, 81180, Note_on_c, 0, 76, 105
2, 81240, Note_on_c, 0, 76, 0
2, 81240, Note_on_c, 0, 78, 105
2, 81300, Note_on_c, 0, 78, 0
2, 81300, Note_on_c, 0, 79, 105
2, 81360, Note_on_c, 0, 79, 0
2, 81360, Note_on_c, 0, 81, 105
2, 81420, Note_on_c, 0, 81, 0
2, 81420, Note_on_c, 0, 79, 105
2, 81480, Note_on_c, 0, 79, 0
2, 81480, Note_on_c, 0, 78, 105
2, 81540, Note_on_c, 0, 78, 0
2, 81540, Note_on_c, 0, 76, 105
2, 81600, Note_on_c, 0, 76, 0
2, 81600, Note_on_c, 0, 74, 105
2, 81720, Note_on_c, 0, 74, 0
2, 81720, Note_on_c, 0, 79, 105
2, 81840, Note_on_c, 0, 79, 0
2, 81840, Note_on_c, 0, 79, 105
2, 81960, Note_on_c, 0, 79, 0
2, 81960, Note_on_c, 0, 79, 105
2, 82080, Note_on_c, 0, 79, 0
2, 82080, Note_on_c, 0, 79, 105
2, 82200, Note_on_c, 0, 79, 0
2, 82200, Note_on_c, 0, 77, 105
2, 82260, Note_on_c, 0, 77, 0
2, 82260, Note_on_c, 0, 76, 105
2, 82320, Note_on_c, 0, 76, 0
2, 82320, Note_on_c, 0, 77, 105
2, 82380, Note_on_c, 0, 77, 0
2, 82380, Note_on_c, 0, 76, 105
2, 82440, Note_on_c, 0, 76, 0
2, 82440, Note_on_c, 0, 74, 105
2, 82500, Note_on_c, 0, 74, 0
2, 82500, Note_on_c, 0, 77, 105
2, 82560, Note_on_c, 0, 77, 0
2, 82560, Note_on_c, 0, 76, 105
2, 82620, Note_on_c, 0, 76, 0
2, 82620, Note_on_c, 0, 77, 105
2, 82680, Note_on_c, 0, 77, 0
2, 82680, Note_on_c, 0, 76, 105
2, 82740, Note_on_c, 0, 76, 0
2, 82740, Note_on_c, 0, 74, 105
2, 82800, Note_on_c, 0, 74, 0
2, 82800, Note_on_c, 0, 72, 105
2, 82860, Note_on_c, 0, 72, 0
2, 82860, Note_on_c, 0, 71, 105
2, 82920, Note_on_c, 0, 71, 0
2, 82920, Note_on_c, 0, 69, 105
2, 82980, Note_on_c, 0, 69, 0
2, 82980, Note_on_c, 0, 67, 105
2, 83040, Note_on_c, 0, 67, 0
2, 83040, Note_on_c, 0, 66, 105
2, 83100, Note_on_c, 0, 66, 0
2, 83100, Note_on_c, 0, 64, 105
2, 83160, Note_on_c, 0, 64, 0
2, 83160, Note_on_c, 0, 62, 105
2, 83160, Note_on_c, 0, 66, 105
2, 83220, Note_on_c, 0, 66, 0
2, 83220, Note_on_c, 0, 69, 105
2, 83280, Note_on_c, 0, 69, 0
2, 83280, Note_on_c, 0, 62, 0
2, 83280, Note_on_c, 0, 62, 105
2, 83280, Note_on_c, 0, 74, 105
2, 83400, Note_on_c, 0, 62, 0
2, 83400, Note_on_c, 0, 62, 105
2, 83520, Note_on_c, 0, 62, 0
2, 83520, Note_on_c, 0, 67, 105
2, 83640, Note_on_c, 0, 67, 0
2, 83640, Note_on_c, 0, 67, 105
2, 83760, Note_on_c, 0, 67, 0
2, 83760, Note_on_c, 0, 74, 0
2, 83760, Note_on_c, 0, 73, 105
2, 83760, Note_on_c, 0, 67, 105
2, 83880, Note_on_c, 0, 67, 0
2, 83880, Note_on_c, 0, 67, 105
2, 84000, Note_on_c, 0, 67, 0
2, 84000, Note_on_c, 0, 73, 0
2, 84000, Note_on_c, 0, 67, 105
2, 84000, Note_on_c, 0, 74, 105
2, 84120, Note_on_c, 0, 74, 0
2, 84120, Note_on_c, 0, 67, 0
2, 84120, Note_on_c, 0, 66, 105
2, 84120, Note_on_c, 0, 69, 105
2, 84180, Note_on_c, 0, 66, 0
2, 84180, Note_on_c, 0, 64, 105
2, 84240, Note_on_c, 0, 64, 0
2, 84240, Note_on_c, 0, 69, 0
2, 84240, Note_on_c, 0, 66, 105
2, 84240, Note_on_c, 0, 81, 105
2, 84360, Note_on_c, 0, 66, 0
2, 84360, Note_on_c, 0, 62, 105
2, 84480, Note_on_c, 0, 62, 0
2, 84480, Note_on_c, 0, 71, 105
2, 84540, Note_on_c, 0, 81, 0
2, 84540, Note_on_c, 0, 74, 105
2, 84600, Note_on_c, 0, 74, 0
2, 84600, Note_on_c, 0, 71, 0
2, 84600, Note_on_c, 0, 71, 105
2, 84600, Note_on_c, 0, 76, 105
2, 84660, Note_on_c, 0, 76, 0
2, 84660, Note_on_c, 0, 78, 105
2, 84720, Note_on_c, 0, 78, 0
2, 84720, Note_on_c, 0, 71, 0
2, 84720, Note_on_c, 0, 71, 105
2, 84720, Note_on_c, 0, 79, 105
2, 84780, Note_on_c, 0, 79, 0
2, 84780, Note_on_c, 0, 81, 105
2, 84840, Note_on_c, 0, 81, 0
2, 84840, Note_on_c, 0, 71, 0
2, 84840, Note_on_c, 0, 71, 105
2, 84840, Note_on_c, 0, 78, 105
2, 84900, Note_on_c, 0, 78, 0
2, 84900, Note_on_c, 0, 79, 105
2, 84960, Note_on_c, 0, 79, 0
2, 84960, Note_on_c, 0, 71, 0
2, 84960, Note_on_c, 0, 71, 105
2, 84960, Note_on_c, 0, 72, 105
2, 85080, Note_on_c, 0, 71, 0
2, 85080, Note_on_c, 0, 69, 105
2, 85140, Note_on_c, 0, 69, 0
2, 85140, Note_on_c, 0, 67, 105
2, 85200, Note_on_c, 0, 67, 0
2, 85200, Note_on_c, 0, 69, 105
2, 85260, Note_on_c, 0, 72, 0
2, 85260, Note_on_c, 0, 76, 105
2, 85320, Note_on_c, 0, 76, 0
2, 85320, Note_on_c, 0, 69, 0
2, 85320, Note_on_c, 0, 69, 105
2, 85320, Note_on_c, 0, 74, 105
2, 85380, Note_on_c, 0, 74, 0
2, 85380, Note_on_c, 0, 72, 105
2, 85440, Note_on_c, 0, 72, 0
2, 85440, Note_on_c, 0, 69, 0
2, 85440, Note_on_c, 0, 69, 105
2, 85440, Note_on_c, 0, 71, 105
2, 85500, Note_on_c, 0, 71, 0
2, 85500, Note_on_c, 0, 69, 105
2, 85560, Note_on_c, 0, 69, 0
2, 85560, Note_on_c, 0, 69, 0
2, 85560, Note_on_c, 0, 62, 105
2, 85560, Note_on_c, 0, 71, 105
2, 85620, Note_on_c, 0, 71, 0
2, 85620, Note_on_c, 0, 72, 105
2, 85680, Note_on_c, 0, 72, 0
2, 85680, Note_on_c, 0, 62, 0
2, 85680, Note_on_c, 0, 67, 105
2, 85680, Note_on_c, 0, 71, 105
2, 85740, Note_on_c, 0, 71, 0
2, 85740, Note_on_c, 0, 72, 105
2, 85800, Note_on_c, 0, 72, 0
2, 85800, Note_on_c, 0, 74, 105
2, 85860, Note_on_c, 0, 74, 0
2, 85860, Note_on_c, 0, 76, 105
2, 85920, Note_on_c, 0, 76, 0
2, 85920, Note_on_c, 0, 78, 105
2, 85980, Note_on_c, 0, 78, 0
2, 85980, Note_on_c, 0, 79, 105
2, 86040, Note_on_c, 0, 79, 0
2, 86040, Note_on_c, 0, 78, 105
2, 86100, Note_on_c, 0, 78, 0
2, 86100, Note_on_c, 0, 79, 105
2, 86160, Note_on_c, 0, 79, 0
2, 86160, Note_on_c, 0, 67, 0
2, 86160, Note_on_c, 0, 66, 105
2, 86160, Note_on_c, 0, 69, 105
2, 86220, Note_on_c, 0, 69, 0
2, 86220, Note_on_c, 0, 74, 105
2, 86280, Note_on_c, 0, 74, 0
2, 86280, Note_on_c, 0, 72, 105
2, 86340, Note_on_c, 0, 72, 0
2, 86340, Note_on_c, 0, 74, 105
2, 86400, Note_on_c, 0, 74, 0
2, 86400, Note_on_c, 0, 71, 105
2, 86460, Note_on_c, 0, 66, 0
2, 86460, Note_on_c, 0, 59, 105
2, 86520, Note_on_c, 0, 59, 0
2, 86520, Note_on_c, 0, 61, 105
2, 86580, Note_on_c, 0, 61, 0
2, 86580, Note_on_c, 0, 63, 105
2, 86640, Note_on_c, 0, 63, 0
2, 86640, Note_on_c, 0, 64, 105
2, 86700, Note_on_c, 0, 71, 0
2, 86700, Note_on_c, 0, 69, 105
2, 86760, Note_on_c, 0, 69, 0
2, 86760, Note_on_c, 0, 71, 105
2, 86820, Note_on_c, 0, 71, 0
2, 86820, Note_on_c, 0, 73, 105
2, 86880, Note_on_c, 0, 73, 0
2, 86880, Note_on_c, 0, 75, 105
2, 86940, Note_on_c, 0, 75, 0
2, 86940, Note_on_c, 0, 76, 105
2, 87000, Note_on_c, 0, 76, 0
2, 87000, Note_on_c, 0, 75, 105
2, 87060, Note_on_c, 0, 75, 0
2, 87060, Note_on_c, 0, 76, 105
2, 87120, Note_on_c, 0, 76, 0
2, 87120, Note_on_c, 0, 64, 0
2, 87120, Note_on_c, 0, 63, 105
2, 87120, Note_on_c, 0, 66, 105
2, 87180, Note_on_c, 0, 66, 0
2, 87180, Note_on_c, 0, 71, 105
2, 87240, Note_on_c, 0, 71, 0
2, 87240, Note_on_c, 0, 69, 105
2, 87300, Note_on_c, 0, 69, 0
2, 87300, Note_on_c, 0, 71, 105
2, 87360, Note_on_c, 0, 71, 0
2, 87360, Note_on_c, 0, 63, 0
2, 87360, Note_on_c, 0, 64, 105
2, 87360, Note_on_c, 0, 67, 105
2, 87420, Note_on_c, 0, 64, 0
2, 87420, Note_on_c, 0, 59, 105
2, 87480, Note_on_c, 0, 59, 0
2, 87480, Note_on_c, 0, 67, 0
2, 87480, Note_on_c, 0, 83, 105
2, 87480, Note_on_c, 0, 64, 105
2, 87540, Note_on_c, 0, 64, 0
2, 87540, Note_on_c, 0, 67, 105
2, 87600, Note_on_c, 0, 67, 0
2, 87600, Note_on_c, 0, 83, 0
2, 87600, Note_on_c, 0, 83, 105
2, 87600, Note_on_c, 0, 71, 105
2, 87660, Note_on_c, 0, 71, 0
2, 87660, Note_on_c, 0, 64, 105
2, 87720, Note_on_c, 0, 64, 0
2, 87720, Note_on_c, 0, 83, 0
2, 87720, Note_on_c, 0, 83, 105
2, 87720, Note_on_c, 0, 67, 105
2, 87780, Note_on_c, 0, 67, 0
2, 87780, Note_on_c, 0, 71, 105
2, 87840, Note_on_c, 0, 71, 0
2, 87840, Note_on_c, 0, 83, 0
2, 87840, Note_on_c, 0, 72, 105
2, 87840, Note_on_c, 0, 83, 105
2, 87900, Note_on_c, 0, 72, 0
2, 87900, Note_on_c, 0, 57, 105
2, 87960, Note_on_c, 0, 57, 0
2, 87960, Note_on_c, 0, 83, 0
2, 87960, Note_on_c, 0, 81, 105
2, 87960, Note_on_c, 0, 60, 105
2, 88020, Note_on_c, 0, 60, 0
2, 88020, Note_on_c, 0, 81, 0
2, 88020, Note_on_c, 0, 79, 105
2, 88020, Note_on_c, 0, 64, 105
2, 88080, Note_on_c, 0, 64, 0
2, 88080, Note_on_c, 0, 79, 0
2, 88080, Note_on_c, 0, 81, 105
2, 88080, Note_on_c, 0, 69, 105
2, 88140, Note_on_c, 0, 69, 0
2, 88140, Note_on_c, 0, 62, 105
2, 88200, Note_on_c, 0, 62, 0
2, 88200, Note_on_c, 0, 81, 0
2, 88200, Note_on_c, 0, 81, 105
2, 88200, Note_on_c, 0, 66, 105
2, 88260, Note_on_c, 0, 66, 0
2, 88260, Note_on_c, 0, 69, 105
2, 88320, Note_on_c, 0, 69, 0
2, 88320, Note_on_c, 0, 81, 0
2, 88320, Note_on_c, 0, 81, 105
2, 88320, Note_on_c, 0, 71, 105
2, 88380, Note_on_c, 0, 71, 0
2, 88380, Note_on_c, 0, 69, 105
2, 88440, Note_on_c, 0, 69, 0
2, 88440, Note_on_c, 0, 81, 0
2, 88440, Note_on_c, 0, 74, 105
2, 88440, Note_on_c, 0, 67, 105
2, 88500, Note_on_c, 0, 67, 0
2, 88500, Note_on_c, 0, 66, 105
2, 88560, Note_on_c, 0, 66, 0
2, 88560, Note_on_c, 0, 74, 0
2, 88560, Note_on_c, 0, 79, 105
2, 88560, Note_on_c, 0, 64, 105
2, 88620, Note_on_c, 0, 64, 0
2, 88620, Note_on_c, 0, 62, 105
2, 88680, Note_on_c, 0, 62, 0
2, 88680, Note_on_c, 0, 79, 0
2, 88680, Note_on_c, 0, 79, 105
2, 88680, Note_on_c, 0, 60, 105
2, 88740, Note_on_c, 0, 60, 0
2, 88740, Note_on_c, 0, 59, 105
2, 88800, Note_on_c, 0, 59, 0
2, 88800, Note_on_c, 0, 79, 0
2, 88800, Note_on_c, 0, 57, 105
2, 88800, Note_on_c, 0, 79, 105
2, 88860, Note_on_c, 0, 57, 0
2, 88860, Note_on_c, 0, 71, 105
2, 88920, Note_on_c, 0, 71, 0
2, 88920, Note_on_c, 0, 79, 0
2, 88920, Note_on_c, 0, 69, 105
2, 88920, Note_on_c, 0, 78, 105
2, 88980, Note_on_c, 0, 78, 0
2, 88980, Note_on_c, 0, 69, 0
2, 88980, Note_on_c, 0, 67, 105
2, 88980, Note_on_c, 0, 76, 105
2, 89040, Note_on_c, 0, 76, 0
2, 89040, Note_on_c, 0, 67, 0
2, 89040, Note_on_c, 0, 66, 105
2, 89040, Note_on_c, 0, 78, 105
2, 89100, Note_on_c, 0, 66, 0
2, 89100, Note_on_c, 0, 64, 105
2, 89160, Note_on_c, 0, 64, 0
2, 89160, Note_on_c, 0, 78, 0
2, 89160, Note_on_c, 0, 63, 105
2, 89160, Note_on_c, 0, 78, 105
2, 89220, Note_on_c, 0, 63, 0
2, 89220, Note_on_c, 0, 61, 105
2, 89280, Note_on_c, 0, 61, 0
2, 89280, Note_on_c, 0, 78, 0
2, 89280, Note_on_c, 0, 59, 105
2, 89280, Note_on_c, 0, 78, 105
2, 89340, Note_on_c, 0, 78, 0
2, 89340, Note_on_c, 0, 76, 105
2, 89400, Note_on_c, 0, 76, 0
2, 89400, Note_on_c, 0, 75, 105
2, 89460, Note_on_c, 0, 75, 0
2, 89460, Note_on_c, 0, 78, 105
2, 89520, Note_on_c, 0, 78, 0
2, 89520, Note_on_c, 0, 59, 0
2, 89520, Note_on_c, 0, 71, 105
2, 89520, Note_on_c, 0, 76, 105
2, 89580, Note_on_c, 0, 76, 0
2, 89580, Note_on_c, 0, 74, 105
2, 89640, Note_on_c, 0, 74, 0
2, 89640, Note_on_c, 0, 72, 105
2, 89700, Note_on_c, 0, 72, 0
2, 89700, Note_on_c, 0, 71, 105
2, 89760, Note_on_c, 0, 71, 0
2, 89760, Note_on_c, 0, 72, 105
2, 89820, Note_on_c, 0, 71, 0
2, 89820, Note_on_c, 0, 69, 105
2, 89880, Note_on_c, 0, 69, 0
2, 89880, Note_on_c, 0, 68, 105
2, 89940, Note_on_c, 0, 68, 0
2, 89940, Note_on_c, 0, 71, 105
2, 90000, Note_on_c, 0, 71, 0
2, 90000, Note_on_c, 0, 69, 105
2, 90060, Note_on_c, 0, 69, 0
2, 90060, Note_on_c, 0, 67, 105
2, 90120, Note_on_c, 0, 67, 0
2, 90120, Note_on_c, 0, 66, 105
2, 90180, Note_on_c, 0, 66, 0
2, 90180, Note_on_c, 0, 64, 105
2, 90240, Note_on_c, 0, 64, 0
2, 90240, Note_on_c, 0, 63, 105
2, 90300, Note_on_c, 0, 72, 0
2, 90300, Note_on_c, 0, 71, 105
2, 90360, Note_on_c, 0, 71, 0
2, 90360, Note_on_c, 0, 69, 105
2, 90420, Note_on_c, 0, 69, 0
2, 90420, Note_on_c, 0, 72, 105
2, 90480, Note_on_c, 0, 72, 0
2, 90480, Note_on_c, 0, 71, 105
2, 90540, Note_on_c, 0, 71, 0
2, 90540, Note_on_c, 0, 69, 105
2, 90600, Note_on_c, 0, 69, 0
2, 90600, Note_on_c, 0, 67, 105
2, 90660, Note_on_c, 0, 67, 0
2, 90660, Note_on_c, 0, 66, 105
2, 90720, Note_on_c, 0, 66, 0
2, 90720, Note_on_c, 0, 63, 0
2, 90720, Note_on_c, 0, 64, 105
2, 90720, Note_on_c, 0, 67, 105
2, 90780, Note_on_c, 0, 67, 0
2, 90780, Note_on_c, 0, 71, 105
2, 90840, Note_on_c, 0, 71, 0
2, 90840, Note_on_c, 0, 64, 0
2, 90840, Note_on_c, 0, 59, 105
2, 90840, Note_on_c, 0, 76, 105
2, 90900, Note_on_c, 0, 59, 0
2, 90900, Note_on_c, 0, 64, 105
2, 90960, Note_on_c, 0, 64, 0
2, 90960, Note_on_c, 0, 67, 105
2, 91020, Note_on_c, 0, 76, 0
2, 91020, Note_on_c, 0, 79, 105
2, 91080, Note_on_c, 0, 79, 0
2, 91080, Note_on_c, 0, 67, 0
2, 91080, Note_on_c, 0, 64, 105
2, 91080, Note_on_c, 0, 84, 105
2, 91140, Note_on_c, 0, 64, 0
2, 91140, Note_on_c, 0, 67, 105
2, 91200, Note_on_c, 0, 67, 0
2, 91200, Note_on_c, 0, 72, 105
2, 91260, Note_on_c, 0, 72, 0
2, 91260, Note_on_c, 0, 84, 0
2, 91260, Note_on_c, 0, 71, 105
2, 91260, Note_on_c, 0, 79, 105
2, 91320, Note_on_c, 0, 79, 0
2, 91320, Note_on_c, 0, 71, 0
2, 91320, Note_on_c, 0, 69, 105
2, 91320, Note_on_c, 0, 78, 105
2, 91380, Note_on_c, 0, 78, 0
2, 91380, Note_on_c, 0, 69, 0
2, 91380, Note_on_c, 0, 67, 105
2, 91380, Note_on_c, 0, 76, 105
2, 91440, Note_on_c, 0, 76, 0
2, 91440, Note_on_c, 0, 67, 0
2, 91440, Note_on_c, 0, 66, 105
2, 91440, Note_on_c, 0, 75, 105
2, 91500, Note_on_c, 0, 66, 0
2, 91500, Note_on_c, 0, 72, 105
2, 91560, Note_on_c, 0, 72, 0
2, 91560, Note_on_c, 0, 71, 105
2, 91620, Note_on_c, 0, 71, 0
2, 91620, Note_on_c, 0, 75, 0
2, 91620, Note_on_c, 0, 69, 105
2, 91620, Note_on_c, 0, 76, 105
2, 91680, Note_on_c, 0, 76, 0
2, 91680, Note_on_c, 0, 69, 0
2, 91680, Note_on_c, 0, 67, 105
2, 91680, Note_on_c, 0, 76, 105
2, 91800, Note_on_c, 0, 76, 0
2, 91800, Note_on_c, 0, 67, 0
2, 91800, Note_on_c, 0, 66, 105
2, 91920, Note_on_c, 0, 66, 0
2, 91920, Note_on_c, 0, 67, 105
2, 92040, Note_on_c, 0, 67, 0
2, 92040, Note_on_c, 0, 69, 105
2, 92160, Note_on_c, 0, 69, 0
2, 92160, Note_on_c, 0, 71, 105
2, 92280, Note_on_c, 0, 75, 105
2, 92400, Note_on_c, 0, 75, 0
2, 92400, Note_on_c, 0, 76, 105
2, 92520, Note_on_c, 0, 76, 0
2, 92520, Note_on_c, 0, 78, 105
2, 92640, Note_on_c, 0, 78, 0
2, 92640, Note_on_c, 0, 79, 105
2, 92760, Note_on_c, 0, 79, 0
2, 92760, Note_on_c, 0, 78, 105
2, 92820, Note_on_c, 0, 78, 0
2, 92820, Note_on_c, 0, 76, 105
2, 92880, Note_on_c, 0, 76, 0
2, 92880, Note_on_c, 0, 71, 0
2, 92880, Note_on_c, 0, 78, 105
2, 93000, Note_on_c, 0, 78, 0
2, 93000, Note_on_c, 0, 74, 105
2, 93000, Note_on_c, 0, 74, 105
2, 93120, Note_on_c, 0, 74, 0
2, 93120, Note_on_c, 0, 74, 0
2, 93120, Note_on_c, 0, 74, 105
2, 93120, Note_on_c, 0, 83, 105
2, 93240, Note_on_c, 0, 83, 0
2, 93240, Note_on_c, 0, 83, 105
2, 93360, Note_on_c, 0, 83, 0
2, 93360, Note_on_c, 0, 74, 0
2, 93360, Note_on_c, 0, 83, 105
2, 93480, Note_on_c, 0, 83, 0
2, 93480, Note_on_c, 0, 67, 105
2, 93480, Note_on_c, 0, 83, 105
2, 93600, Note_on_c, 0, 83, 0
2, 93600, Note_on_c, 0, 67, 0
2, 93600, Note_on_c, 0, 74, 105
2, 93600, Note_on_c, 0, 83, 105
2, 93720, Note_on_c, 0, 83, 0
2, 93720, Note_on_c, 0, 81, 105
2, 93780, Note_on_c, 0, 81, 0
2, 93780, Note_on_c, 0, 79, 105
2, 93840, Note_on_c, 0, 79, 0
2, 93840, Note_on_c, 0, 74, 0
2, 93840, Note_on_c, 0, 81, 105
2, 93960, Note_on_c, 0, 81, 0
2, 93960, Note_on_c, 0, 71, 105
2, 93960, Note_on_c, 0, 81, 105
2, 94080, Note_on_c, 0, 81, 0
2, 94080, Note_on_c, 0, 71, 0
2, 94080, Note_on_c, 0, 71, 105
2, 94080, Note_on_c, 0, 81, 105
2, 94200, Note_on_c, 0, 81, 0
2, 94200, Note_on_c, 0, 79, 105
2, 94260, Note_on_c, 0, 79, 0
2, 94260, Note_on_c, 0, 78, 105
2, 94320, Note_on_c, 0, 78, 0
2, 94320, Note_on_c, 0, 71, 0
2, 94320, Note_on_c, 0, 79, 105
2, 94440, Note_on_c, 0, 79, 0
2, 94440, Note_on_c, 0, 71, 105
2, 94440, Note_on_c, 0, 76, 105
2, 94560, Note_on_c, 0, 76, 0
2, 94560, Note_on_c, 0, 71, 0
2, 94560, Note_on_c, 0, 69, 105
2, 94560, Note_on_c, 0, 84, 105
2, 94620, Note_on_c, 0, 84, 0
2, 94620, Note_on_c, 0, 83, 105
2, 94680, Note_on_c, 0, 83, 0
2, 94680, Note_on_c, 0, 81, 105
2, 94740, Note_on_c, 0, 81, 0
2, 94740, Note_on_c, 0, 79, 105
2, 94800, Note_on_c, 0, 79, 0
2, 94800, Note_on_c, 0, 69, 0
2, 94800, Note_on_c, 0, 78, 105
2, 94860, Note_on_c, 0, 78, 0
2, 94860, Note_on_c, 0, 83, 105
2, 94920, Note_on_c, 0, 83, 0
2, 94920, Note_on_c, 0, 81, 105
2, 94980, Note_on_c, 0, 81, 0
2, 94980, Note_on_c, 0, 83, 105
2, 95040, Note_on_c, 0, 83, 0
2, 95040, Note_on_c, 0, 79, 105
2, 95040, Note_on_c, 0, 64, 105
2, 95100, Note_on_c, 0, 64, 0
2, 95100, Note_on_c, 0, 66, 105
2, 95160, Note_on_c, 0, 66, 0
2, 95160, Note_on_c, 0, 67, 105
2, 95220, Note_on_c, 0, 67, 0
2, 95220, Note_on_c, 0, 69, 105
2, 95280, Note_on_c, 0, 69, 0
2, 95280, Note_on_c, 0, 71, 105
2, 95340, Note_on_c, 0, 71, 0
2, 95340, Note_on_c, 0, 73, 105
2, 95400, Note_on_c, 0, 73, 0
2, 95400, Note_on_c, 0, 74, 105
2, 95460, Note_on_c, 0, 74, 0
2, 95460, Note_on_c, 0, 71, 105
2, 95520, Note_on_c, 0, 71, 0
2, 95520, Note_on_c, 0, 73, 105
2, 95640, Note_on_c, 0, 73, 0
2, 95640, Note_on_c, 0, 74, 105
2, 95760, Note_on_c, 0, 74, 0
2, 95760, Note_on_c, 0, 76, 105
2, 95880, Note_on_c, 0, 76, 0
2, 95880, Note_on_c, 0, 73, 105
2, 96000, Note_on_c, 0, 73, 0
2, 96000, Note_on_c, 0, 79, 0
2, 96000, Note_on_c, 0, 78, 105
2, 96000, Note_on_c, 0, 62, 105
2, 96060, Note_on_c, 0, 62, 0
2, 96060, Note_on_c, 0, 64, 105
2, 96120, Note_on_c, 0, 64, 0
2, 96120, Note_on_c, 0, 66, 105
2, 96180, Note_on_c, 0, 66, 0
2, 96180, Note_on_c, 0, 67, 105
2, 96240, Note_on_c, 0, 67, 0
2, 96240, Note_on_c, 0, 69, 105
2, 96300, Note_on_c, 0, 69, 0
2, 96300, Note_on_c, 0, 71, 105
2, 96360, Note_on_c, 0, 71, 0
2, 96360, Note_on_c, 0, 72, 105
2, 96420, Note_on_c, 0, 72, 0
2, 96420, Note_on_c, 0, 69, 105
2, 96480, Note_on_c, 0, 69, 0
2, 96480, Note_on_c, 0, 71, 105
2, 96600, Note_on_c, 0, 71, 0
2, 96600, Note_on_c, 0, 72, 105
2, 96720, Note_on_c, 0, 72, 0
2, 96720, Note_on_c, 0, 74, 105
2, 96840, Note_on_c, 0, 74, 0
2, 96840, Note_on_c, 0, 71, 105
2, 96960, Note_on_c, 0, 71, 0
2, 96960, Note_on_c, 0, 78, 0
2, 96960, Note_on_c, 0, 76, 105
2, 96960, Note_on_c, 0, 61, 105
2, 97020, Note_on_c, 0, 61, 0
2, 97020, Note_on_c, 0, 62, 105
2, 97080, Note_on_c, 0, 62, 0
2, 97080, Note_on_c, 0, 64, 105
2, 97140, Note_on_c, 0, 64, 0
2, 97140, Note_on_c, 0, 66, 105
2, 97200, Note_on_c, 0, 66, 0
2, 97200, Note_on_c, 0, 68, 105
2, 97260, Note_on_c, 0, 68, 0
2, 97260, Note_on_c, 0, 70, 105
2, 97320, Note_on_c, 0, 70, 0
2, 97320, Note_on_c, 0, 71, 105
2, 97380, Note_on_c, 0, 71, 0
2, 97380, Note_on_c, 0, 68, 105
2, 97440, Note_on_c, 0, 68, 0
2, 97440, Note_on_c, 0, 70, 105
2, 97560, Note_on_c, 0, 70, 0
2, 97560, Note_on_c, 0, 71, 105
2, 97680, Note_on_c, 0, 71, 0
2, 97680, Note_on_c, 0, 73, 105
2, 97800, Note_on_c, 0, 73, 0
2, 97800, Note_on_c, 0, 70, 105
2, 97920, Note_on_c, 0, 70, 0
2, 97920, Note_on_c, 0, 76, 0
2, 97920, Note_on_c, 0, 71, 105
2, 97920, Note_on_c, 0, 74, 105
2, 97980, Note_on_c, 0, 71, 0
2, 97980, Note_on_c, 0, 66, 105
2, 98040, Note_on_c, 0, 66, 0
2, 98040, Note_on_c, 0, 71, 105
2, 98100, Note_on_c, 0, 71, 0
2, 98100, Note_on_c, 0, 74, 105
2, 98160, Note_on_c, 0, 74, 0
2, 98160, Note_on_c, 0, 74, 0
2, 98160, Note_on_c, 0, 68, 105
2, 98220, Note_on_c, 0, 74, 105
2, 98280, Note_on_c, 0, 74, 0
2, 98280, Note_on_c, 0, 71, 105
2, 98340, Note_on_c, 0, 71, 0
2, 98340, Note_on_c, 0, 68, 105
2, 98400, Note_on_c, 0, 68, 0
2, 98400, Note_on_c, 0, 68, 0
2, 98400, Note_on_c, 0, 72, 105
2, 98460, Note_on_c, 0, 64, 105
2, 98520, Note_on_c, 0, 64, 0
2, 98520, Note_on_c, 0, 69, 105
2, 98580, Note_on_c, 0, 69, 0
2, 98580, Note_on_c, 0, 72, 105
2, 98640, Note_on_c, 0, 72, 0
2, 98640, Note_on_c, 0, 72, 0
2, 98640, Note_on_c, 0, 66, 105
2, 98700, Note_on_c, 0, 72, 105
2, 98760, Note_on_c, 0, 72, 0
2, 98760, Note_on_c, 0, 69, 105
2, 98820, Note_on_c, 0, 69, 0
2, 98820, Note_on_c, 0, 66, 105
2, 98880, Note_on_c, 0, 66, 0
2, 98880, Note_on_c, 0, 66, 0
2, 98880, Note_on_c, 0, 67, 105
2, 98880, Note_on_c, 0, 71, 105
2, 99000, Note_on_c, 0, 67, 0
2, 99000, Note_on_c, 0, 66, 105
2, 99120, Note_on_c, 0, 66, 0
2, 99120, Note_on_c, 0, 71, 0
2, 99120, Note_on_c, 0, 64, 105
2, 99120, Note_on_c, 0, 76, 105
2, 99240, Note_on_c, 0, 76, 0
2, 99240, Note_on_c, 0, 72, 105
2, 99360, Note_on_c, 0, 72, 0
2, 99360, Note_on_c, 0, 64, 0
2, 99360, Note_on_c, 0, 66, 105
2, 99360, Note_on_c, 0, 69, 105
2, 99480, Note_on_c, 0, 66, 0
2, 99480, Note_on_c, 0, 64, 105
2, 99600, Note_on_c, 0, 64, 0
2, 99600, Note_on_c, 0, 63, 105
2, 99660, Note_on_c, 0, 69, 0
2, 99660, Note_on_c, 0, 72, 105
2, 99720, Note_on_c, 0, 72, 0
2, 99720, Note_on_c, 0, 71, 105
2, 99780, Note_on_c, 0, 71, 0
2, 99780, Note_on_c, 0, 69, 105
2, 99840, Note_on_c, 0, 69, 0
2, 99840, Note_on_c, 0, 63, 0
2, 99840, Note_on_c, 0, 64, 105
2, 99840, Note_on_c, 0, 67, 105
2, 99900, Note_on_c, 0, 67, 0
2, 99900, Note_on_c, 0, 69, 105
2, 99960, Note_on_c, 0, 69, 0
2, 99960, Note_on_c, 0, 71, 105
2, 100020, Note_on_c, 0, 71, 0
2, 100020, Note_on_c, 0, 67, 105
2, 100080, Note_on_c, 0, 67, 0
2, 100080, Note_on_c, 0, 64, 0
2, 100080, Note_on_c, 0, 64, 105
2, 100140, Note_on_c, 0, 64, 0
2, 100140, Note_on_c, 0, 71, 105
2, 100200, Note_on_c, 0, 71, 0
2, 100200, Note_on_c, 0, 67, 105
2, 100260, Note_on_c, 0, 67, 0
2, 100260, Note_on_c, 0, 64, 105
2, 100320, Note_on_c, 0, 64, 0
2, 100320, Note_on_c, 0, 62, 105
2, 100380, Note_on_c, 0, 62, 0
2, 100380, Note_on_c, 0, 71, 105
2, 100440, Note_on_c, 0, 71, 0
2, 100440, Note_on_c, 0, 68, 105
2, 100500, Note_on_c, 0, 68, 0
2, 100500, Note_on_c, 0, 62, 105
2, 100560, Note_on_c, 0, 62, 0
2, 100560, Note_on_c, 0, 71, 105
2, 100620, Note_on_c, 0, 71, 0
2, 100620, Note_on_c, 0, 66, 105
2, 100680, Note_on_c, 0, 66, 0
2, 100680, Note_on_c, 0, 64, 105
2, 100740, Note_on_c, 0, 64, 0
2, 100740, Note_on_c, 0, 62, 105
2, 100800, Note_on_c, 0, 62, 0
2, 100800, Note_on_c, 0, 60, 105
2, 100860, Note_on_c, 0, 60, 0
2, 100860, Note_on_c, 0, 62, 105
2, 100920, Note_on_c, 0, 62, 0
2, 100920, Note_on_c, 0, 64, 105
2, 100980, Note_on_c, 0, 64, 0
2, 100980, Note_on_c, 0, 60, 105
2, 101040, Note_on_c, 0, 60, 0
2, 101040, Note_on_c, 0, 57, 105
2, 101100, Note_on_c, 0, 64, 105
2, 101160, Note_on_c, 0, 64, 0
2, 101160, Note_on_c, 0, 57, 0
2, 101160, Note_on_c, 0, 69, 105
2, 101160, Note_on_c, 0, 60, 105
2, 101220, Note_on_c, 0, 60, 0
2, 101220, Note_on_c, 0, 57, 105
2, 101280, Note_on_c, 0, 57, 0
2, 101280, Note_on_c, 0, 69, 0
2, 101280, Note_on_c, 0, 73, 105
2, 101400, Note_on_c, 0, 73, 0
2, 101400, Note_on_c, 0, 76, 105
2, 101520, Note_on_c, 0, 76, 0
2, 101520, Note_on_c, 0, 73, 105
2, 101640, Note_on_c, 0, 73, 0
2, 101640, Note_on_c, 0, 69, 105
2, 101760, Note_on_c, 0, 69, 0
2, 101760, Note_on_c, 0, 74, 105
2, 101820, Note_on_c, 0, 74, 0
2, 101820, Note_on_c, 0, 76, 105
2, 101880, Note_on_c, 0, 76, 0
2, 101880, Note_on_c, 0, 78, 105
2, 101940, Note_on_c, 0, 78, 0
2, 101940, Note_on_c, 0, 74, 105
2, 102000, Note_on_c, 0, 74, 0
2, 102000, Note_on_c, 0, 81, 105
2, 102060, Note_on_c, 0, 81, 0
2, 102060, Note_on_c, 0, 78, 105
2, 102120, Note_on_c, 0, 78, 0
2, 102120, Note_on_c, 0, 74, 105
2, 102180, Note_on_c, 0, 74, 0
2, 102180, Note_on_c, 0, 69, 105
2, 102240, Note_on_c, 0, 69, 0
2, 102240, Note_on_c, 0, 75, 105
2, 102300, Note_on_c, 0, 75, 0
2, 102300, Note_on_c, 0, 72, 105
2, 102360, Note_on_c, 0, 72, 0
2, 102360, Note_on_c, 0, 69, 105
2, 102420, Note_on_c, 0, 69, 0
2, 102420, Note_on_c, 0, 66, 105
2, 102480, Note_on_c, 0, 66, 0
2, 102480, Note_on_c, 0, 78, 105
2, 102540, Note_on_c, 0, 78, 0
2, 102540, Note_on_c, 0, 72, 105
2, 102600, Note_on_c, 0, 72, 0
2, 102600, Note_on_c, 0, 71, 105
2, 102660, Note_on_c, 0, 71, 0
2, 102660, Note_on_c, 0, 69, 105
2, 102720, Note_on_c, 0, 69, 0
2, 102720, Note_on_c, 0, 67, 105
2, 102780, Note_on_c, 0, 67, 0
2, 102780, Note_on_c, 0, 74, 105
2, 102840, Note_on_c, 0, 74, 0
2, 102840, Note_on_c, 0, 71, 105
2, 102900, Note_on_c, 0, 71, 0
2, 102900, Note_on_c, 0, 67, 105
2, 102960, Note_on_c, 0, 67, 0
2, 102960, Note_on_c, 0, 76, 105
2, 103020, Note_on_c, 0, 76, 0
2, 103020, Note_on_c, 0, 71, 105
2, 103080, Note_on_c, 0, 71, 0
2, 103080, Note_on_c, 0, 69, 105
2, 103140, Note_on_c, 0, 69, 0
2, 103140, Note_on_c, 0, 67, 105
2, 103200, Note_on_c, 0, 67, 0
2, 103200, Note_on_c, 0, 66, 105
2, 103260, Note_on_c, 0, 66, 0
2, 103260, Note_on_c, 0, 73, 105
2, 103320, Note_on_c, 0, 73, 0
2, 103320, Note_on_c, 0, 69, 105
2, 103380, Note_on_c, 0, 69, 0
2, 103380, Note_on_c, 0, 66, 105
2, 103440, Note_on_c, 0, 66, 0
2, 103440, Note_on_c, 0, 74, 105
2, 103500, Note_on_c, 0, 74, 0
2, 103500, Note_on_c, 0, 69, 105
2, 103560, Note_on_c, 0, 69, 0
2, 103560, Note_on_c, 0, 67, 105
2, 103620, Note_on_c, 0, 67, 0
2, 103620, Note_on_c, 0, 66, 105
2, 103680, Note_on_c, 0, 66, 0
2, 103680, Note_on_c, 0, 64, 105
2, 103740, Note_on_c, 0, 64, 0
2, 103740, Note_on_c, 0, 71, 105
2, 103800, Note_on_c, 0, 71, 0
2, 103800, Note_on_c, 0, 67, 105
2, 103860, Note_on_c, 0, 67, 0
2, 103860, Note_on_c, 0, 64, 105
2, 103920, Note_on_c, 0, 64, 0
2, 103920, Note_on_c, 0, 73, 105
2, 103980, Note_on_c, 0, 73, 0
2, 103980, Note_on_c, 0, 67, 105
2, 104040, Note_on_c, 0, 67, 0
2, 104040, Note_on_c, 0, 66, 105
2, 104100, Note_on_c, 0, 66, 0
2, 104100, Note_on_c, 0, 64, 105
2, 104160, Note_on_c, 0, 64, 0
2, 104160, Note_on_c, 0, 62, 105
2, 104220, Note_on_c, 0, 62, 0
2, 104220, Note_on_c, 0, 69, 105
2, 104280, Note_on_c, 0, 69, 0
2, 104280, Note_on_c, 0, 66, 105
2, 104340, Note_on_c, 0, 66, 0
2, 104340, Note_on_c, 0, 62, 105
2, 104400, Note_on_c, 0, 62, 0
2, 104400, Note_on_c, 0, 74, 105
2, 104460, Note_on_c, 0, 74, 0
2, 104460, Note_on_c, 0, 69, 105
2, 104520, Note_on_c, 0, 69, 0
2, 104520, Note_on_c, 0, 67, 105
2, 104580, Note_on_c, 0, 67, 0
2, 104580, Note_on_c, 0, 66, 105
2, 104640, Note_on_c, 0, 66, 0
2, 104640, Note_on_c, 0, 64, 105
2, 104700, Note_on_c, 0, 64, 0
2, 104700, Note_on_c, 0, 71, 105
2, 104760, Note_on_c, 0, 71, 0
2, 104760, Note_on_c, 0, 67, 105
2, 104820, Note_on_c, 0, 67, 0
2, 104820, Note_on_c, 0, 64, 105
2, 104880, Note_on_c, 0, 64, 0
2, 104880, Note_on_c, 0, 76, 105
2, 104940, Note_on_c, 0, 76, 0
2, 104940, Note_on_c, 0, 71, 105
2, 105000, Note_on_c, 0, 71, 0
2, 105000, Note_on_c, 0, 69, 105
2, 105060, Note_on_c, 0, 69, 0
2, 105060, Note_on_c, 0, 67, 105
2, 105120, Note_on_c, 0, 67, 0
2, 105120, Note_on_c, 0, 66, 105
2, 105180, Note_on_c, 0, 66, 0
2, 105180, Note_on_c, 0, 73, 105
2, 105240, Note_on_c, 0, 73, 0
2, 105240, Note_on_c, 0, 69, 105
2, 105300, Note_on_c, 0, 69, 0
2, 105300, Note_on_c, 0, 66, 105
2, 105360, Note_on_c, 0, 66, 0
2, 105360, Note_on_c, 0, 78, 105
2, 105420, Note_on_c, 0, 78, 0
2, 105420, Note_on_c, 0, 72, 105
2, 105480, Note_on_c, 0, 72, 0
2, 105480, Note_on_c, 0, 71, 105
2, 105540, Note_on_c, 0, 71, 0
2, 105540, Note_on_c, 0, 69, 105
2, 105600, Note_on_c, 0, 69, 0
2, 105600, Note_on_c, 0, 67, 105
2, 105660, Note_on_c, 0, 67, 0
2, 105660, Note_on_c, 0, 74, 105
2, 105720, Note_on_c, 0, 74, 0
2, 105720, Note_on_c, 0, 71, 105
2, 105780, Note_on_c, 0, 71, 0
2, 105780, Note_on_c, 0, 67, 105
2, 105840, Note_on_c, 0, 67, 0
2, 105840, Note_on_c, 0, 79, 105
2, 105900, Note_on_c, 0, 79, 0
2, 105900, Note_on_c, 0, 78, 105
2, 105960, Note_on_c, 0, 78, 0
2, 105960, Note_on_c, 0, 76, 105
2, 106020, Note_on_c, 0, 76, 0
2, 106020, Note_on_c, 0, 74, 105
2, 106080, Note_on_c, 0, 74, 0
2, 106080, Note_on_c, 0, 73, 105
2, 106140, Note_on_c, 0, 73, 0
2, 106140, Note_on_c, 0, 76, 105
2, 106200, Note_on_c, 0, 76, 0
2, 106200, Note_on_c, 0, 73, 105
2, 106260, Note_on_c, 0, 73, 0
2, 106260, Note_on_c, 0, 69, 105
2, 106320, Note_on_c, 0, 69, 0
2, 106320, Note_on_c, 0, 81, 105
2, 106380, Note_on_c, 0, 81, 0
2, 106380, Note_on_c, 0, 76, 105
2, 106440, Note_on_c, 0, 76, 0
2, 106440, Note_on_c, 0, 73, 105
2, 106500, Note_on_c, 0, 73, 0
2, 106500, Note_on_c, 0, 69, 105
2, 106560, Note_on_c, 0, 69, 0
2, 106560, Note_on_c, 0, 74, 105
2, 106620, Note_on_c, 0, 74, 0
2, 106620, Note_on_c, 0, 78, 105
2, 106680, Note_on_c, 0, 78, 0
2, 106680, Note_on_c, 0, 74, 105
2, 106740, Note_on_c, 0, 74, 0
2, 106740, Note_on_c, 0, 69, 105
2, 106800, Note_on_c, 0, 69, 0
2, 106800, Note_on_c, 0, 81, 105
2, 106860, Note_on_c, 0, 81, 0
2, 106860, Note_on_c, 0, 78, 105
2, 106920, Note_on_c, 0, 78, 0
2, 106920, Note_on_c, 0, 74, 105
2, 106980, Note_on_c, 0, 74, 0
2, 106980, Note_on_c, 0, 69, 105
2, 107040, Note_on_c, 0, 69, 0
2, 107040, Note_on_c, 0, 76, 105
2, 107100, Note_on_c, 0, 76, 0
2, 107100, Note_on_c, 0, 79, 105
2, 107160, Note_on_c, 0, 79, 0
2, 107160, Note_on_c, 0, 76, 105
2, 107220, Note_on_c, 0, 76, 0
2, 107220, Note_on_c, 0, 73, 105
2, 107280, Note_on_c, 0, 73, 0
2, 107280, Note_on_c, 0, 81, 105
2, 107340, Note_on_c, 0, 81, 0
2, 107340, Note_on_c, 0, 76, 105
2, 107400, Note_on_c, 0, 76, 0
2, 107400, Note_on_c, 0, 73, 105
2, 107460, Note_on_c, 0, 73, 0
2, 107460, Note_on_c, 0, 69, 105
2, 107520, Note_on_c, 0, 69, 0
2, 107520, Note_on_c, 0, 78, 105
2, 107580, Note_on_c, 0, 78, 0
2, 107580, Note_on_c, 0, 81, 105
2, 107640, Note_on_c, 0, 81, 0
2, 107640, Note_on_c, 0, 78, 105
2, 107700, Note_on_c, 0, 78, 0
2, 107700, Note_on_c, 0, 74, 105
2, 107760, Note_on_c, 0, 74, 0
2, 107760, Note_on_c, 0, 79, 105
2, 107820, Note_on_c, 0, 79, 0
2, 107820, Note_on_c, 0, 76, 105
2, 107880, Note_on_c, 0, 76, 0
2, 107880, Note_on_c, 0, 73, 105
2, 107940, Note_on_c, 0, 73, 0
2, 107940, Note_on_c, 0, 69, 105
2, 108000, Note_on_c, 0, 69, 0
2, 108000, Note_on_c, 0, 78, 105
2, 108060, Note_on_c, 0, 78, 0
2, 108060, Note_on_c, 0, 74, 105
2, 108120, Note_on_c, 0, 74, 0
2, 108120, Note_on_c, 0, 71, 105
2, 108180, Note_on_c, 0, 71, 0
2, 108180, Note_on_c, 0, 69, 105
2, 108240, Note_on_c, 0, 69, 0
2, 108240, Note_on_c, 0, 67, 105
2, 108300, Note_on_c, 0, 67, 0
2, 108300, Note_on_c, 0, 76, 105
2, 108360, Note_on_c, 0, 76, 0
2, 108360, Note_on_c, 0, 73, 105
2, 108420, Note_on_c, 0, 73, 0
2, 108420, Note_on_c, 0, 67, 105
2, 108480, Note_on_c, 0, 67, 0
2, 108480, Note_on_c, 0, 66, 105
2, 108540, Note_on_c, 0, 66, 0
2, 108540, Note_on_c, 0, 69, 105
2, 108600, Note_on_c, 0, 69, 0
2, 108600, Note_on_c, 0, 74, 105
2, 108660, Note_on_c, 0, 74, 0
2, 108660, Note_on_c, 0, 66, 105
2, 108720, Note_on_c, 0, 66, 0
2, 108720, Note_on_c, 0, 64, 105
2, 108780, Note_on_c, 0, 64, 0
2, 108780, Note_on_c, 0, 74, 105
2, 108840, Note_on_c, 0, 74, 0
2, 108840, Note_on_c, 0, 67, 105
2, 108900, Note_on_c, 0, 67, 0
2, 108900, Note_on_c, 0, 73, 105
2, 108960, Note_on_c, 0, 73, 0
2, 108960, Note_on_c, 0, 67, 105
2, 108960, Note_on_c, 0, 74, 105
2, 109020, Note_on_c, 0, 67, 0
2, 109020, Note_on_c, 0, 67, 105
2, 109080, Note_on_c, 0, 67, 0
2, 109080, Note_on_c, 0, 66, 105
2, 109140, Note_on_c, 0, 66, 0
2, 109140, Note_on_c, 0, 64, 105
2, 109200, Note_on_c, 0, 64, 0
2, 109200, Note_on_c, 0, 74, 0
2, 109200, Note_on_c, 0, 66, 105
2, 109260, Note_on_c, 0, 66, 0
2, 109260, Note_on_c, 0, 69, 105
2, 109320, Note_on_c, 0, 69, 0
2, 109320, Note_on_c, 0, 67, 105
2, 109380, Note_on_c, 0, 67, 0
2, 109380, Note_on_c, 0, 66, 105
2, 109440, Note_on_c, 0, 66, 0
2, 109440, Note_on_c, 0, 64, 105
2, 109560, Note_on_c, 0, 64, 0
2, 109680, Note_on_c, 0, 76, 105
2, 109980, Note_on_c, 0, 76, 0
2, 109980, Note_on_c, 0, 69, 105
2, 110040, Note_on_c, 0, 69, 0
2, 110040, Note_on_c, 0, 71, 105
2, 110100, Note_on_c, 0, 71, 0
2, 110100, Note_on_c, 0, 73, 105
2, 110160, Note_on_c, 0, 73, 0
2, 110160, Note_on_c, 0, 74, 105
2, 110220, Note_on_c, 0, 74, 0
2, 110220, Note_on_c, 0, 76, 105
2, 110280, Note_on_c, 0, 76, 0
2, 110280, Note_on_c, 0, 73, 105
2, 110340, Note_on_c, 0, 73, 0
2, 110340, Note_on_c, 0, 74, 105
2, 110400, Note_on_c, 0, 74, 0
2, 110400, Note_on_c, 0, 67, 105
2, 110700, Note_on_c, 0, 67, 0
2, 110700, Note_on_c, 0, 71, 105
2, 110760, Note_on_c, 0, 71, 0
2, 110760, Note_on_c, 0, 69, 105
2, 110820, Note_on_c, 0, 69, 0
2, 110820, Note_on_c, 0, 67, 105
2, 110880, Note_on_c, 0, 67, 0
2, 110880, Note_on_c, 0, 66, 105
2, 111180, Note_on_c, 0, 66, 0
2, 111180, Note_on_c, 0, 67, 105
2, 111240, Note_on_c, 0, 67, 0
2, 111240, Note_on_c, 0, 69, 105
2, 111300, Note_on_c, 0, 69, 0
2, 111300, Note_on_c, 0, 71, 105
2, 111360, Note_on_c, 0, 71, 0
2, 111360, Note_on_c, 0, 73, 105
2, 111420, Note_on_c, 0, 73, 0
2, 111420, Note_on_c, 0, 74, 105
2, 111480, Note_on_c, 0, 74, 0
2, 111480, Note_on_c, 0, 72, 105
2, 111540, Note_on_c, 0, 72, 0
2, 111540, Note_on_c, 0, 74, 105
2, 111600, Note_on_c, 0, 74, 0
2, 111600, Note_on_c, 0, 64, 105
2, 111720, Note_on_c, 0, 64, 0
2, 111720, Note_on_c, 0, 69, 105
2, 111840, Note_on_c, 0, 69, 0
2, 111840, Note_on_c, 0, 66, 105
2, 111900, Note_on_c, 0, 66, 0
2, 111900, Note_on_c, 0, 64, 105
2, 111960, Note_on_c, 0, 64, 0
2, 111960, Note_on_c, 0, 66, 105
2, 112020, Note_on_c, 0, 66, 0
2, 112020, Note_on_c, 0, 69, 105
2, 112080, Note_on_c, 0, 69, 0
2, 112080, Note_on_c, 0, 74, 105
2, 112200, Note_on_c, 0, 74, 0
2, 112200, Note_on_c, 0, 74, 105
2, 112320, Note_on_c, 0, 74, 0
2, 112320, Note_on_c, 0, 74, 105
2, 112440, Note_on_c, 0, 74, 0
2, 112440, Note_on_c, 0, 72, 105
2, 112500, Note_on_c, 0, 72, 0
2, 112500, Note_on_c, 0, 71, 105
2, 112560, Note_on_c, 0, 71, 0
2, 112560, Note_on_c, 0, 72, 105
2, 112620, Note_on_c, 0, 72, 0
2, 112620, Note_on_c, 0, 71, 105
2, 112680, Note_on_c, 0, 71, 0
2, 112680, Note_on_c, 0, 69, 105
2, 112740, Note_on_c, 0, 69, 0
2, 112740, Note_on_c, 0, 72, 105
2, 112800, Note_on_c, 0, 72, 0
2, 112800, Note_on_c, 0, 71, 105
2, 112860, Note_on_c, 0, 71, 0
2, 112860, Note_on_c, 0, 69, 105
2, 112920, Note_on_c, 0, 69, 0
2, 112920, Note_on_c, 0, 67, 105
2, 112980, Note_on_c, 0, 67, 0
2, 112980, Note_on_c, 0, 71, 105
2, 113040, Note_on_c, 0, 71, 0
2, 113040, Note_on_c, 0, 69, 105
2, 113100, Note_on_c, 0, 69, 0
2, 113100, Note_on_c, 0, 72, 105
2, 113160, Note_on_c, 0, 72, 0
2, 113160, Note_on_c, 0, 71, 105
2, 113220, Note_on_c, 0, 71, 0
2, 113220, Note_on_c, 0, 74, 105
2, 113280, Note_on_c, 0, 74, 0
2, 113280, Note_on_c, 0, 72, 105
2, 113340, Note_on_c, 0, 72, 0
2, 113340, Note_on_c, 0, 69, 105
2, 113400, Note_on_c, 0, 69, 0
2, 113400, Note_on_c, 0, 71, 105
2, 113460, Note_on_c, 0, 71, 0
2, 113460, Note_on_c, 0, 72, 105
2, 113520, Note_on_c, 0, 72, 0
2, 113520, Note_on_c, 0, 74, 105
2, 113580, Note_on_c, 0, 74, 0
2, 113580, Note_on_c, 0, 72, 105
2, 113640, Note_on_c, 0, 72, 0
2, 113640, Note_on_c, 0, 71, 105
2, 113700, Note_on_c, 0, 71, 0
2, 113700, Note_on_c, 0, 69, 105
2, 113760, Note_on_c, 0, 69, 0
2, 113760, Note_on_c, 0, 67, 105
2, 113880, Note_on_c, 0, 67, 0
2, 113880, Note_on_c, 0, 72, 105
2, 114000, Note_on_c, 0, 72, 0
2, 114000, Note_on_c, 0, 72, 105
2, 114120, Note_on_c, 0, 72, 0
2, 114120, Note_on_c, 0, 72, 105
2, 114240, Note_on_c, 0, 72, 0
2, 114240, Note_on_c, 0, 72, 105
2, 114360, Note_on_c, 0, 72, 0
2, 114360, Note_on_c, 0, 70, 105
2, 114420, Note_on_c, 0, 70, 0
2, 114420, Note_on_c, 0, 69, 105
2, 114480, Note_on_c, 0, 69, 0
2, 114480, Note_on_c, 0, 70, 105
2, 114540, Note_on_c, 0, 70, 0
2, 114540, Note_on_c, 0, 69, 105
2, 114600, Note_on_c, 0, 69, 0
2, 114600, Note_on_c, 0, 67, 105
2, 114660, Note_on_c, 0, 67, 0
2, 114660, Note_on_c, 0, 70, 105
2, 114720, Note_on_c, 0, 70, 0
2, 114720, Note_on_c, 0, 69, 105
2, 114780, Note_on_c, 0, 69, 0
2, 114780, Note_on_c, 0, 68, 105
2, 114840, Note_on_c, 0, 68, 0
2, 114840, Note_on_c, 0, 69, 105
2, 114900, Note_on_c, 0, 69, 0
2, 114900, Note_on_c, 0, 71, 105
2, 114960, Note_on_c, 0, 71, 0
2, 114960, Note_on_c, 0, 69, 105
2, 115020, Note_on_c, 0, 69, 0
2, 115020, Note_on_c, 0, 72, 105
2, 115080, Note_on_c, 0, 72, 0
2, 115080, Note_on_c, 0, 71, 105
2, 115140, Note_on_c, 0, 71, 0
2, 115140, Note_on_c, 0, 69, 105
2, 115200, Note_on_c, 0, 69, 0
2, 115200, Note_on_c, 0, 68, 105
2, 115260, Note_on_c, 0, 68, 0
2, 115260, Note_on_c, 0, 71, 105
2, 115320, Note_on_c, 0, 71, 0
2, 115320, Note_on_c, 0, 76, 105
2, 115320, Note_on_c, 0, 64, 105
2, 115380, Note_on_c, 0, 64, 0
2, 115380, Note_on_c, 0, 68, 105
2, 115440, Note_on_c, 0, 68, 0
2, 115440, Note_on_c, 0, 76, 0
2, 115440, Note_on_c, 0, 76, 105
2, 115440, Note_on_c, 0, 69, 105
2, 115500, Note_on_c, 0, 69, 0
2, 115500, Note_on_c, 0, 72, 105
2, 115560, Note_on_c, 0, 72, 0
2, 115560, Note_on_c, 0, 76, 0
2, 115560, Note_on_c, 0, 76, 105
2, 115560, Note_on_c, 0, 68, 105
2, 115620, Note_on_c, 0, 68, 0
2, 115620, Note_on_c, 0, 71, 105
2, 115680, Note_on_c, 0, 71, 0
2, 115680, Note_on_c, 0, 76, 0
2, 115680, Note_on_c, 0, 81, 105
2, 115680, Note_on_c, 0, 72, 105
2, 115740, Note_on_c, 0, 72, 0
2, 115740, Note_on_c, 0, 76, 105
2, 115800, Note_on_c, 0, 76, 0
2, 115800, Note_on_c, 0, 81, 0
2, 115800, Note_on_c, 0, 81, 105
2, 115800, Note_on_c, 0, 69, 105
2, 115920, Note_on_c, 0, 81, 0
2, 115920, Note_on_c, 0, 81, 105
2, 115980, Note_on_c, 0, 69, 0
2, 115980, Note_on_c, 0, 76, 105
2, 116040, Note_on_c, 0, 76, 0
2, 116040, Note_on_c, 0, 81, 0
2, 116040, Note_on_c, 0, 81, 105
2, 116040, Note_on_c, 0, 74, 105
2, 116100, Note_on_c, 0, 74, 0
2, 116100, Note_on_c, 0, 77, 105
2, 116160, Note_on_c, 0, 77, 0
2, 116160, Note_on_c, 0, 81, 0
2, 116160, Note_on_c, 0, 81, 105
2, 116160, Note_on_c, 0, 71, 105
2, 116280, Note_on_c, 0, 81, 0
2, 116280, Note_on_c, 0, 80, 105
2, 116340, Note_on_c, 0, 80, 0
2, 116340, Note_on_c, 0, 78, 105
2, 116400, Note_on_c, 0, 78, 0
2, 116400, Note_on_c, 0, 71, 0
2, 116400, Note_on_c, 0, 80, 105
2, 116520, Note_on_c, 0, 80, 0
2, 116520, Note_on_c, 0, 76, 105
2, 116640, Note_on_c, 0, 76, 0
2, 116640, Note_on_c, 0, 84, 105
2, 116760, Note_on_c, 0, 84, 0
2, 116760, Note_on_c, 0, 84, 105
2, 116880, Note_on_c, 0, 84, 0
2, 116880, Note_on_c, 0, 84, 105
2, 116940, Note_on_c, 0, 72, 105
2, 117000, Note_on_c, 0, 72, 0
2, 117000, Note_on_c, 0, 84, 0
2, 117000, Note_on_c, 0, 84, 105
2, 117000, Note_on_c, 0, 76, 105
2, 117060, Note_on_c, 0, 76, 0
2, 117060, Note_on_c, 0, 72, 105
2, 117120, Note_on_c, 0, 72, 0
2, 117120, Note_on_c, 0, 84, 0
2, 117120, Note_on_c, 0, 84, 105
2, 117120, Note_on_c, 0, 77, 105
2, 117240, Note_on_c, 0, 84, 0
2, 117240, Note_on_c, 0, 83, 105
2, 117300, Note_on_c, 0, 83, 0
2, 117300, Note_on_c, 0, 81, 105
2, 117360, Note_on_c, 0, 81, 0
2, 117360, Note_on_c, 0, 77, 0
2, 117360, Note_on_c, 0, 83, 105
2, 117420, Note_on_c, 0, 74, 105
2, 117480, Note_on_c, 0, 74, 0
2, 117480, Note_on_c, 0, 83, 0
2, 117480, Note_on_c, 0, 83, 105
2, 117480, Note_on_c, 0, 71, 105
2, 117540, Note_on_c, 0, 71, 0
2, 117540, Note_on_c, 0, 74, 105
2, 117600, Note_on_c, 0, 74, 0
2, 117600, Note_on_c, 0, 83, 0
2, 117600, Note_on_c, 0, 83, 105
2, 117600, Note_on_c, 0, 68, 105
2, 117720, Note_on_c, 0, 83, 0
2, 117720, Note_on_c, 0, 76, 105
2, 117840, Note_on_c, 0, 76, 0
2, 117840, Note_on_c, 0, 68, 0
2, 117840, Note_on_c, 0, 81, 105
2, 117900, Note_on_c, 0, 76, 105
2, 117960, Note_on_c, 0, 76, 0
2, 117960, Note_on_c, 0, 72, 105
2, 118020, Note_on_c, 0, 72, 0
2, 118020, Note_on_c, 0, 76, 105
2, 118080, Note_on_c, 0, 76, 0
2, 118080, Note_on_c, 0, 81, 0
2, 118080, Note_on_c, 0, 81, 105
2, 118080, Note_on_c, 0, 69, 105
2, 118200, Note_on_c, 0, 69, 0
2, 118200, Note_on_c, 0, 81, 0
2, 118200, Note_on_c, 0, 83, 105
2, 118200, Note_on_c, 0, 74, 105
2, 118260, Note_on_c, 0, 83, 0
2, 118260, Note_on_c, 0, 81, 105
2, 118320, Note_on_c, 0, 81, 0
2, 118320, Note_on_c, 0, 80, 105
2, 118380, Note_on_c, 0, 80, 0
2, 118380, Note_on_c, 0, 74, 0
2, 118380, Note_on_c, 0, 81, 105
2, 118380, Note_on_c, 0, 72, 105
2, 118440, Note_on_c, 0, 72, 0
2, 118440, Note_on_c, 0, 81, 0
2, 118440, Note_on_c, 0, 78, 105
2, 118440, Note_on_c, 0, 74, 105
2, 118500, Note_on_c, 0, 74, 0
2, 118500, Note_on_c, 0, 78, 0
2, 118500, Note_on_c, 0, 80, 105
2, 118500, Note_on_c, 0, 71, 105
2, 118560, Note_on_c, 0, 71, 0
2, 118560, Note_on_c, 0, 80, 0
2, 118560, Note_on_c, 0, 81, 105
2, 118560, Note_on_c, 0, 72, 105
2, 118800, Note_on_c, 0, 72, 0
2, 118800, Note_on_c, 0, 81, 0
2, 119640, Note_on_c, 0, 69, 105
2, 119760, Note_on_c, 0, 69, 0
2, 119760, Note_on_c, 0, 74, 105
2, 119880, Note_on_c, 0, 74, 0
2, 119880, Note_on_c, 0, 74, 105
2, 120000, Note_on_c, 0, 74, 0
2, 120000, Note_on_c, 0, 74, 105
2, 120120, Note_on_c, 0, 74, 0
2, 120120, Note_on_c, 0, 72, 105
2, 120180, Note_on_c, 0, 72, 0
2, 120180, Note_on_c, 0, 71, 105
2, 120240, Note_on_c, 0, 71, 0
2, 120240, Note_on_c, 0, 72, 105
2, 120360, Note_on_c, 0, 72, 0
2, 120360, Note_on_c, 0, 72, 105
2, 120480, Note_on_c, 0, 72, 0
2, 120480, Note_on_c, 0, 72, 105
2, 120600, Note_on_c, 0, 72, 0
2, 120600, Note_on_c, 0, 74, 105
2, 120600, Note_on_c, 0, 71, 105
2, 120660, Note_on_c, 0, 71, 0
2, 120660, Note_on_c, 0, 69, 105
2, 120720, Note_on_c, 0, 69, 0
2, 120720, Note_on_c, 0, 74, 0
2, 120720, Note_on_c, 0, 79, 105
2, 120720, Note_on_c, 0, 71, 105
2, 120840, Note_on_c, 0, 71, 0
2, 120840, Note_on_c, 0, 79, 0
2, 120840, Note_on_c, 0, 79, 105
2, 120840, Note_on_c, 0, 76, 105
2, 120960, Note_on_c, 0, 76, 0
2, 120960, Note_on_c, 0, 79, 0
2, 120960, Note_on_c, 0, 79, 105
2, 120960, Note_on_c, 0, 72, 105
2, 121080, Note_on_c, 0, 72, 0
2, 121080, Note_on_c, 0, 79, 0
2, 121080, Note_on_c, 0, 77, 105
2, 121080, Note_on_c, 0, 69, 105
2, 121140, Note_on_c, 0, 77, 0
2, 121140, Note_on_c, 0, 76, 105
2, 121200, Note_on_c, 0, 76, 0
2, 121200, Note_on_c, 0, 69, 0
2, 121200, Note_on_c, 0, 77, 105
2, 121200, Note_on_c, 0, 74, 105
2, 121320, Note_on_c, 0, 74, 0
2, 121320, Note_on_c, 0, 77, 0
2, 121320, Note_on_c, 0, 77, 105
2, 121320, Note_on_c, 0, 71, 105
2, 121440, Note_on_c, 0, 71, 0
2, 121440, Note_on_c, 0, 77, 0
2, 121440, Note_on_c, 0, 67, 105
2, 121440, Note_on_c, 0, 77, 105
2, 121560, Note_on_c, 0, 77, 0
2, 121560, Note_on_c, 0, 76, 105
2, 121620, Note_on_c, 0, 76, 0
2, 121620, Note_on_c, 0, 74, 105
2, 121680, Note_on_c, 0, 74, 0
2, 121680, Note_on_c, 0, 76, 105
2, 121740, Note_on_c, 0, 76, 0
2, 121740, Note_on_c, 0, 79, 105
2, 121800, Note_on_c, 0, 79, 0
2, 121800, Note_on_c, 0, 77, 105
2, 121860, Note_on_c, 0, 77, 0
2, 121860, Note_on_c, 0, 76, 105
2, 121920, Note_on_c, 0, 76, 0
2, 121920, Note_on_c, 0, 74, 105
2, 121980, Note_on_c, 0, 74, 0
2, 121980, Note_on_c, 0, 72, 105
2, 122040, Note_on_c, 0, 72, 0
2, 122040, Note_on_c, 0, 74, 105
2, 122100, Note_on_c, 0, 74, 0
2, 122100, Note_on_c, 0, 76, 105
2, 122160, Note_on_c, 0, 76, 0
2, 122160, Note_on_c, 0, 74, 105
2, 122220, Note_on_c, 0, 74, 0
2, 122220, Note_on_c, 0, 77, 105
2, 122280, Note_on_c, 0, 77, 0
2, 122280, Note_on_c, 0, 76, 105
2, 122340, Note_on_c, 0, 76, 0
2, 122340, Note_on_c, 0, 74, 105
2, 122400, Note_on_c, 0, 74, 0
2, 122400, Note_on_c, 0, 67, 0
2, 122400, Note_on_c, 0, 73, 105
2, 122520, Note_on_c, 0, 73, 0
2, 122520, Note_on_c, 0, 69, 105
2, 122640, Note_on_c, 0, 69, 0
2, 122640, Note_on_c, 0, 81, 105
2, 123000, Note_on_c, 0, 81, 0
2, 123000, Note_on_c, 0, 79, 105
2, 123060, Note_on_c, 0, 79, 0
2, 123060, Note_on_c, 0, 78, 105
2, 123120, Note_on_c, 0, 78, 0
2, 123120, Note_on_c, 0, 79, 105
2, 123240, Note_on_c, 0, 79, 0
2, 123240, Note_on_c, 0, 74, 105
2, 123360, Note_on_c, 0, 74, 0
2, 123360, Note_on_c, 0, 75, 105
2, 123420, Note_on_c, 0, 67, 105
2, 123480, Note_on_c, 0, 67, 0
2, 123480, Note_on_c, 0, 69, 105
2, 123540, Note_on_c, 0, 69, 0
2, 123540, Note_on_c, 0, 70, 105
2, 123600, Note_on_c, 0, 70, 0
2, 123600, Note_on_c, 0, 72, 105
2, 123660, Note_on_c, 0, 72, 0
2, 123660, Note_on_c, 0, 69, 105
2, 123720, Note_on_c, 0, 69, 0
2, 123720, Note_on_c, 0, 75, 0
2, 123720, Note_on_c, 0, 74, 105
2, 123720, Note_on_c, 0, 70, 105
2, 123780, Note_on_c, 0, 70, 0
2, 123780, Note_on_c, 0, 74, 0
2, 123780, Note_on_c, 0, 72, 105
2, 123780, Note_on_c, 0, 67, 105
2, 123840, Note_on_c, 0, 67, 0
2, 123840, Note_on_c, 0, 72, 0
2, 123840, Note_on_c, 0, 74, 105
2, 123840, Note_on_c, 0, 66, 105
2, 124080, Note_on_c, 0, 66, 0
2, 124080, Note_on_c, 0, 67, 105
2, 124140, Note_on_c, 0, 74, 0
2, 124140, Note_on_c, 0, 77, 105
2, 124200, Note_on_c, 0, 77, 0
2, 124200, Note_on_c, 0, 75, 105
2, 124260, Note_on_c, 0, 75, 0
2, 124260, Note_on_c, 0, 74, 105
2, 124320, Note_on_c, 0, 74, 0
2, 124320, Note_on_c, 0, 67, 0
2, 124320, Note_on_c, 0, 72, 105
2, 124320, Note_on_c, 0, 69, 105
2, 124380, Note_on_c, 0, 72, 0
2, 124380, Note_on_c, 0, 71, 105
2, 124440, Note_on_c, 0, 71, 0
2, 124440, Note_on_c, 0, 72, 105
2, 124500, Note_on_c, 0, 72, 0
2, 124500, Note_on_c, 0, 74, 105
2, 124560, Note_on_c, 0, 74, 0
2, 124560, Note_on_c, 0, 72, 105
2, 124620, Note_on_c, 0, 72, 0
2, 124620, Note_on_c, 0, 75, 105
2, 124680, Note_on_c, 0, 75, 0
2, 124680, Note_on_c, 0, 74, 105
2, 124740, Note_on_c, 0, 74, 0
2, 124740, Note_on_c, 0, 72, 105
2, 124800, Note_on_c, 0, 72, 0
2, 124800, Note_on_c, 0, 69, 0
2, 124800, Note_on_c, 0, 71, 105
2, 124800, Note_on_c, 0, 67, 105
2, 124860, Note_on_c, 0, 71, 0
2, 124860, Note_on_c, 0, 69, 105
2, 124920, Note_on_c, 0, 69, 0
2, 124920, Note_on_c, 0, 67, 0
2, 124920, Note_on_c, 0, 67, 105
2, 124920, Note_on_c, 0, 67, 105
2, 124980, Note_on_c, 0, 67, 0
2, 124980, Note_on_c, 0, 74, 105
2, 125040, Note_on_c, 0, 67, 0
2, 125040, Note_on_c, 0, 65, 105
2, 125100, Note_on_c, 0, 65, 0
2, 125100, Note_on_c, 0, 68, 105
2, 125160, Note_on_c, 0, 68, 0
2, 125160, Note_on_c, 0, 67, 105
2, 125220, Note_on_c, 0, 67, 0
2, 125220, Note_on_c, 0, 65, 105
2, 125280, Note_on_c, 0, 65, 0
2, 125280, Note_on_c, 0, 63, 105
2, 125340, Note_on_c, 0, 74, 0
2, 125340, Note_on_c, 0, 72, 105
2, 125370, Note_on_c, 0, 72, 0
2, 125370, Note_on_c, 0, 71, 105
2, 125400, Note_on_c, 0, 71, 0
2, 125400, Note_on_c, 0, 69, 105
2, 125460, Note_on_c, 0, 69, 0
2, 125460, Note_on_c, 0, 72, 105
2, 125520, Note_on_c, 0, 67, 105
2, 125580, Note_on_c, 0, 67, 0
2, 125580, Note_on_c, 0, 71, 105
2, 125640, Note_on_c, 0, 71, 0
2, 125640, Note_on_c, 0, 69, 105
2, 125700, Note_on_c, 0, 69, 0
2, 125700, Note_on_c, 0, 67, 105
2, 125760, Note_on_c, 0, 67, 0
2, 125760, Note_on_c, 0, 63, 0
2, 125760, Note_on_c, 0, 66, 105
2, 125760, Note_on_c, 0, 63, 105
2, 125820, Note_on_c, 0, 63, 0
2, 125820, Note_on_c, 0, 62, 105
2, 125880, Note_on_c, 0, 62, 0
2, 125880, Note_on_c, 0, 60, 105
2, 125940, Note_on_c, 0, 60, 0
2, 125940, Note_on_c, 0, 63, 105
2, 126000, Note_on_c, 0, 63, 0
2, 126000, Note_on_c, 0, 66, 0
2, 126000, Note_on_c, 0, 72, 0
2, 126120, Note_on_c, 0, 62, 105
2, 126120, Note_on_c, 0, 66, 105
2, 126120, Note_on_c, 0, 72, 105
2, 126240, Note_on_c, 0, 72, 0
2, 126240, Note_on_c, 0, 66, 0
2, 126240, Note_on_c, 0, 62, 0
2, 126240, Note_on_c, 0, 62, 105
2, 126240, Note_on_c, 0, 67, 105
2, 126240, Note_on_c, 0, 70, 105
2, 126480, Note_on_c, 0, 70, 0
2, 126480, Note_on_c, 0, 67, 0
2, 126480, Note_on_c, 0, 62, 0
2, 126600, Note_on_c, 0, 67, 105
2, 126600, Note_on_c, 0, 62, 105
2, 126600, Note_on_c, 0, 70, 105
2, 126720, Note_on_c, 0, 70, 0
2, 126720, Note_on_c, 0, 62, 0
2, 126720, Note_on_c, 0, 67, 0
2, 126720, Note_on_c, 0, 67, 105
2, 126720, Note_on_c, 0, 64, 105
2, 126720, Note_on_c, 0, 70, 105
2, 126960, Note_on_c, 0, 70, 0
2, 126960, Note_on_c, 0, 64, 0
2, 126960, Note_on_c, 0, 67, 0
2, 127020, Note_on_c, 0, 69, 105
2, 127080, Note_on_c, 0, 69, 0
2, 127080, Note_on_c, 0, 70, 105
2, 127140, Note_on_c, 0, 70, 0
2, 127140, Note_on_c, 0, 67, 105
2, 127200, Note_on_c, 0, 67, 0
2, 127200, Note_on_c, 0, 62, 105
2, 127200, Note_on_c, 0, 66, 105
2, 127320, Note_on_c, 0, 66, 0
2, 127320, Note_on_c, 0, 62, 0
2, 127320, Note_on_c, 0, 69, 105
2, 127380, Note_on_c, 0, 69, 0
2, 127380, Note_on_c, 0, 67, 105
2, 127440, Note_on_c, 0, 67, 0
2, 127440, Note_on_c, 0, 66, 105
2, 127500, Note_on_c, 0, 66, 0
2, 127500, Note_on_c, 0, 64, 105
2, 127560, Note_on_c, 0, 64, 0
2, 127560, Note_on_c, 0, 62, 105
2, 127620, Note_on_c, 0, 62, 0
2, 127620, Note_on_c, 0, 60, 105
2, 127680, Note_on_c, 0, 60, 0
2, 127800, Note_on_c, 0, 62, 105
2, 127920, Note_on_c, 0, 62, 0
2, 127920, Note_on_c, 0, 62, 105
2, 128040, Note_on_c, 0, 62, 0
2, 128040, Note_on_c, 0, 62, 105
2, 128160, Note_on_c, 0, 62, 0
2, 128160, Note_on_c, 0, 69, 105
2, 128280, Note_on_c, 0, 69, 0
2, 128280, Note_on_c, 0, 69, 105
2, 128400, Note_on_c, 0, 69, 0
2, 128400, Note_on_c, 0, 69, 105
2, 128520, Note_on_c, 0, 69, 0
2, 128520, Note_on_c, 0, 69, 105
2, 128640, Note_on_c, 0, 69, 0
2, 128640, Note_on_c, 0, 69, 105
2, 128760, Note_on_c, 0, 69, 0
2, 128760, Note_on_c, 0, 67, 105
2, 128820, Note_on_c, 0, 67, 0
2, 128820, Note_on_c, 0, 66, 105
2, 128880, Note_on_c, 0, 66, 0
2, 128880, Note_on_c, 0, 67, 105
2, 129000, Note_on_c, 0, 67, 0
2, 129000, Note_on_c, 0, 64, 105
2, 129120, Note_on_c, 0, 64, 0
2, 129120, Note_on_c, 0, 72, 105
2, 129240, Note_on_c, 0, 72, 0
2, 129240, Note_on_c, 0, 72, 105
2, 129360, Note_on_c, 0, 72, 0
2, 129360, Note_on_c, 0, 72, 105
2, 129480, Note_on_c, 0, 72, 0
2, 129480, Note_on_c, 0, 72, 105
2, 129600, Note_on_c, 0, 72, 0
2, 129600, Note_on_c, 0, 72, 105
2, 129720, Note_on_c, 0, 72, 0
2, 129720, Note_on_c, 0, 71, 105
2, 129780, Note_on_c, 0, 71, 0
2, 129780, Note_on_c, 0, 69, 105
2, 129840, Note_on_c, 0, 69, 0
2, 129840, Note_on_c, 0, 71, 105
2, 129960, Note_on_c, 0, 71, 0
2, 129960, Note_on_c, 0, 71, 105
2, 130080, Note_on_c, 0, 71, 0
2, 130080, Note_on_c, 0, 71, 105
2, 130200, Note_on_c, 0, 71, 0
2, 130200, Note_on_c, 0, 64, 105
2, 130320, Note_on_c, 0, 64, 0
2, 130320, Note_on_c, 0, 69, 105
2, 130560, Note_on_c, 0, 69, 0
2, 130560, Note_on_c, 0, 69, 105
2, 130680, Note_on_c, 0, 69, 0
2, 130680, Note_on_c, 0, 74, 105
2, 130680, Note_on_c, 0, 67, 105
2, 130740, Note_on_c, 0, 67, 0
2, 130740, Note_on_c, 0, 66, 105
2, 130800, Note_on_c, 0, 66, 0
2, 130800, Note_on_c, 0, 74, 0
2, 130800, Note_on_c, 0, 74, 105
2, 130800, Note_on_c, 0, 67, 105
2, 130920, Note_on_c, 0, 67, 0
2, 130920, Note_on_c, 0, 74, 0
2, 130920, Note_on_c, 0, 74, 105
2, 131040, Note_on_c, 0, 74, 0
2, 131040, Note_on_c, 0, 79, 105
2, 131160, Note_on_c, 0, 79, 0
2, 131160, Note_on_c, 0, 67, 105
2, 131160, Note_on_c, 0, 79, 105
2, 131280, Note_on_c, 0, 79, 0
2, 131280, Note_on_c, 0, 67, 0
2, 131280, Note_on_c, 0, 67, 105
2, 131280, Note_on_c, 0, 79, 105
2, 131400, Note_on_c, 0, 79, 0
2, 131400, Note_on_c, 0, 67, 0
2, 131400, Note_on_c, 0, 67, 105
2, 131400, Note_on_c, 0, 79, 105
2, 131520, Note_on_c, 0, 79, 0
2, 131520, Note_on_c, 0, 67, 0
2, 131520, Note_on_c, 0, 74, 105
2, 131520, Note_on_c, 0, 79, 105
2, 131640, Note_on_c, 0, 79, 0
2, 131640, Note_on_c, 0, 74, 0
2, 131640, Note_on_c, 0, 74, 105
2, 131640, Note_on_c, 0, 78, 105
2, 131700, Note_on_c, 0, 78, 0
2, 131700, Note_on_c, 0, 76, 105
2, 131760, Note_on_c, 0, 76, 0
2, 131760, Note_on_c, 0, 74, 0
2, 131760, Note_on_c, 0, 74, 105
2, 131760, Note_on_c, 0, 78, 105
2, 131880, Note_on_c, 0, 78, 0
2, 131880, Note_on_c, 0, 74, 0
2, 131880, Note_on_c, 0, 74, 105
2, 131880, Note_on_c, 0, 74, 105
2, 132000, Note_on_c, 0, 74, 0
2, 132000, Note_on_c, 0, 74, 0
2, 132000, Note_on_c, 0, 74, 105
2, 132000, Note_on_c, 0, 83, 105
2, 132120, Note_on_c, 0, 83, 0
2, 132120, Note_on_c, 0, 74, 0
2, 132120, Note_on_c, 0, 71, 105
2, 132120, Note_on_c, 0, 83, 105
2, 132180, Note_on_c, 0, 71, 0
2, 132180, Note_on_c, 0, 69, 105
2, 132240, Note_on_c, 0, 69, 0
2, 132240, Note_on_c, 0, 83, 0
2, 132240, Note_on_c, 0, 71, 105
2, 132240, Note_on_c, 0, 83, 105
2, 132360, Note_on_c, 0, 83, 0
2, 132360, Note_on_c, 0, 71, 0
2, 132360, Note_on_c, 0, 67, 105
2, 132360, Note_on_c, 0, 83, 105
2, 132480, Note_on_c, 0, 83, 0
2, 132480, Note_on_c, 0, 67, 0
2, 132480, Note_on_c, 0, 76, 105
2, 132480, Note_on_c, 0, 83, 105
2, 132600, Note_on_c, 0, 83, 0
2, 132600, Note_on_c, 0, 76, 0
2, 132600, Note_on_c, 0, 76, 105
2, 132600, Note_on_c, 0, 81, 105
2, 132660, Note_on_c, 0, 81, 0
2, 132660, Note_on_c, 0, 79, 105
2, 132720, Note_on_c, 0, 79, 0
2, 132720, Note_on_c, 0, 76, 0
2, 132720, Note_on_c, 0, 76, 105
2, 132720, Note_on_c, 0, 81, 105
2, 132840, Note_on_c, 0, 81, 0
2, 132840, Note_on_c, 0, 76, 0
2, 132840, Note_on_c, 0, 76, 105
2, 132840, Note_on_c, 0, 81, 105
2, 132960, Note_on_c, 0, 81, 0
2, 132960, Note_on_c, 0, 76, 0
2, 132960, Note_on_c, 0, 76, 105
2, 132960, Note_on_c, 0, 81, 105
2, 133080, Note_on_c, 0, 81, 0
2, 133080, Note_on_c, 0, 76, 0
2, 133080, Note_on_c, 0, 74, 105
2, 133080, Note_on_c, 0, 74, 105
2, 133140, Note_on_c, 0, 74, 0
2, 133140, Note_on_c, 0, 72, 105
2, 133200, Note_on_c, 0, 72, 0
2, 133200, Note_on_c, 0, 74, 0
2, 133200, Note_on_c, 0, 74, 105
2, 133200, Note_on_c, 0, 79, 105
2, 133320, Note_on_c, 0, 74, 0
2, 133320, Note_on_c, 0, 74, 105
2, 133440, Note_on_c, 0, 74, 0
2, 133440, Note_on_c, 0, 74, 105
2, 133560, Note_on_c, 0, 74, 0
2, 133560, Note_on_c, 0, 79, 0
2, 133560, Note_on_c, 0, 67, 105
2, 133560, Note_on_c, 0, 81, 105
2, 133620, Note_on_c, 0, 81, 0
2, 133620, Note_on_c, 0, 79, 105
2, 133680, Note_on_c, 0, 79, 0
2, 133680, Note_on_c, 0, 67, 0
2, 133680, Note_on_c, 0, 72, 105
2, 133680, Note_on_c, 0, 78, 105
2, 133740, Note_on_c, 0, 78, 0
2, 133740, Note_on_c, 0, 79, 105
2, 133800, Note_on_c, 0, 79, 0
2, 133800, Note_on_c, 0, 76, 105
2, 133860, Note_on_c, 0, 76, 0
2, 133860, Note_on_c, 0, 78, 105
2, 133920, Note_on_c, 0, 78, 0
2, 133920, Note_on_c, 0, 79, 105
2, 134040, Note_on_c, 0, 72, 0
2, 134040, Note_on_c, 0, 74, 105
2, 134100, Note_on_c, 0, 74, 0
2, 134100, Note_on_c, 0, 72, 105
2, 134160, Note_on_c, 0, 72, 0
2, 134160, Note_on_c, 0, 71, 105
2, 134220, Note_on_c, 0, 71, 0
2, 134220, Note_on_c, 0, 72, 105
2, 134280, Note_on_c, 0, 72, 0
2, 134280, Note_on_c, 0, 69, 105
2, 134340, Note_on_c, 0, 69, 0
2, 134340, Note_on_c, 0, 71, 105
2, 134400, Note_on_c, 0, 71, 0
2, 134400, Note_on_c, 0, 72, 105
2, 134460, Note_on_c, 0, 72, 0
2, 134460, Note_on_c, 0, 71, 105
2, 134520, Note_on_c, 0, 71, 0
2, 134520, Note_on_c, 0, 72, 105
2, 134580, Note_on_c, 0, 72, 0
2, 134580, Note_on_c, 0, 74, 105
2, 134640, Note_on_c, 0, 74, 0
2, 134640, Note_on_c, 0, 72, 105
2, 134700, Note_on_c, 0, 72, 0
2, 134700, Note_on_c, 0, 74, 105
2, 134760, Note_on_c, 0, 74, 0
2, 134760, Note_on_c, 0, 71, 105
2, 134820, Note_on_c, 0, 71, 0
2, 134820, Note_on_c, 0, 72, 105
2, 134880, Note_on_c, 0, 72, 0
2, 134880, Note_on_c, 0, 74, 105
2, 134940, Note_on_c, 0, 74, 0
2, 134940, Note_on_c, 0, 72, 105
2, 135000, Note_on_c, 0, 72, 0
2, 135000, Note_on_c, 0, 74, 105
2, 135060, Note_on_c, 0, 74, 0
2, 135060, Note_on_c, 0, 76, 105
2, 135120, Note_on_c, 0, 76, 0
2, 135120, Note_on_c, 0, 74, 105
2, 135180, Note_on_c, 0, 74, 0
2, 135180, Note_on_c, 0, 76, 105
2, 135240, Note_on_c, 0, 76, 0
2, 135240, Note_on_c, 0, 72, 105
2, 135300, Note_on_c, 0, 72, 0
2, 135300, Note_on_c, 0, 74, 105
2, 135360, Note_on_c, 0, 74, 0
2, 135360, Note_on_c, 0, 76, 105
2, 135420, Note_on_c, 0, 76, 0
2, 135420, Note_on_c, 0, 74, 105
2, 135480, Note_on_c, 0, 74, 0
2, 135480, Note_on_c, 0, 72, 105
2, 135540, Note_on_c, 0, 72, 0
2, 135540, Note_on_c, 0, 71, 105
2, 135600, Note_on_c, 0, 71, 0
2, 135600, Note_on_c, 0, 72, 105
2, 135960, Note_on_c, 0, 72, 0
2, 135960, Note_on_c, 0, 71, 105
2, 136020, Note_on_c, 0, 71, 0
2, 136020, Note_on_c, 0, 69, 105
2, 136080, Note_on_c, 0, 69, 0
2, 136080, Note_on_c, 0, 71, 105
2, 136200, Note_on_c, 0, 71, 0
2, 136200, Note_on_c, 0, 72, 105
2, 136260, Note_on_c, 0, 72, 0
2, 136260, Note_on_c, 0, 74, 105
2, 136320, Note_on_c, 0, 74, 0
2, 136320, Note_on_c, 0, 76, 105
2, 136380, Note_on_c, 0, 76, 0
2, 136380, Note_on_c, 0, 74, 105
2, 136440, Note_on_c, 0, 74, 0
2, 136440, Note_on_c, 0, 76, 105
2, 136500, Note_on_c, 0, 76, 0
2, 136500, Note_on_c, 0, 77, 105
2, 136560, Note_on_c, 0, 77, 0
2, 136560, Note_on_c, 0, 76, 105
2, 136620, Note_on_c, 0, 76, 0
2, 136620, Note_on_c, 0, 79, 105
2, 136680, Note_on_c, 0, 79, 0
2, 136680, Note_on_c, 0, 77, 105
2, 136740, Note_on_c, 0, 77, 0
2, 136740, Note_on_c, 0, 76, 105
2, 136800, Note_on_c, 0, 76, 0
2, 136800, Note_on_c, 0, 74, 105
2, 136860, Note_on_c, 0, 74, 0
2, 136860, Note_on_c, 0, 72, 105
2, 136920, Note_on_c, 0, 72, 0
2, 136920, Note_on_c, 0, 71, 105
2, 136980, Note_on_c, 0, 71, 0
2, 136980, Note_on_c, 0, 72, 105
2, 137040, Note_on_c, 0, 72, 0
2, 137040, Note_on_c, 0, 74, 105
2, 137100, Note_on_c, 0, 74, 0
2, 137100, Note_on_c, 0, 77, 105
2, 137160, Note_on_c, 0, 77, 0
2, 137160, Note_on_c, 0, 76, 105
2, 137220, Note_on_c, 0, 76, 0
2, 137220, Note_on_c, 0, 74, 105
2, 137280, Note_on_c, 0, 74, 0
2, 137280, Note_on_c, 0, 72, 105
2, 137400, Note_on_c, 0, 79, 0
2, 137400, Note_on_c, 0, 81, 105
2, 137460, Note_on_c, 0, 81, 0
2, 137460, Note_on_c, 0, 79, 105
2, 137520, Note_on_c, 0, 79, 0
2, 137520, Note_on_c, 0, 78, 105
2, 137580, Note_on_c, 0, 78, 0
2, 137580, Note_on_c, 0, 79, 105
2, 137640, Note_on_c, 0, 79, 0
2, 137640, Note_on_c, 0, 76, 105
2, 137700, Note_on_c, 0, 76, 0
2, 137700, Note_on_c, 0, 78, 105
2, 137760, Note_on_c, 0, 78, 0
2, 137760, Note_on_c, 0, 72, 0
2, 137760, Note_on_c, 0, 79, 105
2, 137760, Note_on_c, 0, 67, 105
2, 137760, Note_on_c, 0, 62, 105
2, 137760, Note_on_c, 0, 72, 105
2, 137880, Note_on_c, 0, 72, 0
2, 137880, Note_on_c, 0, 74, 105
2, 137940, Note_on_c, 0, 74, 0
2, 137940, Note_on_c, 0, 72, 105
2, 138000, Note_on_c, 0, 72, 0
2, 138000, Note_on_c, 0, 71, 105
2, 138060, Note_on_c, 0, 71, 0
2, 138060, Note_on_c, 0, 72, 105
2, 138120, Note_on_c, 0, 72, 0
2, 138120, Note_on_c, 0, 69, 105
2, 138180, Note_on_c, 0, 69, 0
2, 138180, Note_on_c, 0, 72, 105
2, 138240, Note_on_c, 0, 72, 0
2, 138240, Note_on_c, 0, 71, 105
2, 138720, Note_on_c, 0, 71, 0
2, 138720, Note_on_c, 0, 62, 0
2, 138720, Note_on_c, 0, 67, 0
2, 138720, Note_on_c, 0, 79, 0
2, 138720, End_track
3, 0, Start_track
3, 0, MIDI_port, 0
3, 0, Title_t, "--------------------------------------"
3, 0, Program_c, 1, 19
3, 0, Control_c, 1, 7, 100
3, 0, Control_c, 1, 10, 64
3, 1680, Note_on_c, 1, 55, 115
3, 1740, Note_on_c, 1, 55, 0
3, 1740, Note_on_c, 1, 62, 115
3, 1800, Note_on_c, 1, 62, 0
3, 1800, Note_on_c, 1, 60, 115
3, 1860, Note_on_c, 1, 60, 0
3, 1860, Note_on_c, 1, 59, 115
3, 1920, Note_on_c, 1, 59, 0
3, 1920, Note_on_c, 1, 57, 115
3, 1980, Note_on_c, 1, 57, 0
3, 1980, Note_on_c, 1, 55, 115
3, 2040, Note_on_c, 1, 55, 0
3, 2040, Note_on_c, 1, 54, 115
3, 2100, Note_on_c, 1, 54, 0
3, 2100, Note_on_c, 1, 52, 115
3, 2160, Note_on_c, 1, 52, 0
3, 2160, Note_on_c, 1, 54, 115
3, 2220, Note_on_c, 1, 54, 0
3, 2220, Note_on_c, 1, 57, 115
3, 2280, Note_on_c, 1, 57, 0
3, 2280, Note_on_c, 1, 50, 115
3, 2340, Note_on_c, 1, 50, 0
3, 2340, Note_on_c, 1, 54, 115
3, 2400, Note_on_c, 1, 54, 0
3, 2400, Note_on_c, 1, 57, 115
3, 2460, Note_on_c, 1, 57, 0
3, 2460, Note_on_c, 1, 60, 115
3, 2520, Note_on_c, 1, 60, 0
3, 2520, Note_on_c, 1, 54, 115
3, 2580, Note_on_c, 1, 54, 0
3, 2580, Note_on_c, 1, 57, 115
3, 2640, Note_on_c, 1, 57, 0
3, 2640, Note_on_c, 1, 50, 115
3, 2700, Note_on_c, 1, 50, 0
3, 2700, Note_on_c, 1, 60, 115
3, 2760, Note_on_c, 1, 60, 0
3, 2760, Note_on_c, 1, 59, 115
3, 2820, Note_on_c, 1, 59, 0
3, 2820, Note_on_c, 1, 57, 115
3, 2880, Note_on_c, 1, 57, 0
3, 2880, Note_on_c, 1, 55, 115
3, 2940, Note_on_c, 1, 55, 0
3, 2940, Note_on_c, 1, 59, 115
3, 3000, Note_on_c, 1, 59, 0
3, 3000, Note_on_c, 1, 50, 115
3, 3060, Note_on_c, 1, 50, 0
3, 3060, Note_on_c, 1, 55, 115
3, 3120, Note_on_c, 1, 55, 0
3, 3120, Note_on_c, 1, 59, 115
3, 3180, Note_on_c, 1, 59, 0
3, 3180, Note_on_c, 1, 62, 115
3, 3240, Note_on_c, 1, 62, 0
3, 3240, Note_on_c, 1, 55, 115
3, 3300, Note_on_c, 1, 55, 0
3, 3300, Note_on_c, 1, 59, 115
3, 3360, Note_on_c, 1, 59, 0
3, 3360, Note_on_c, 1, 50, 115
3, 3420, Note_on_c, 1, 50, 0
3, 3420, Note_on_c, 1, 62, 115
3, 3480, Note_on_c, 1, 62, 0
3, 3480, Note_on_c, 1, 60, 115
3, 3540, Note_on_c, 1, 60, 0
3, 3540, Note_on_c, 1, 59, 115
3, 3600, Note_on_c, 1, 59, 0
3, 3600, Note_on_c, 1, 57, 115
3, 3660, Note_on_c, 1, 57, 0
3, 3660, Note_on_c, 1, 60, 115
3, 3720, Note_on_c, 1, 60, 0
3, 3720, Note_on_c, 1, 54, 115
3, 3780, Note_on_c, 1, 54, 0
3, 3780, Note_on_c, 1, 57, 115
3, 3840, Note_on_c, 1, 57, 0
3, 3840, Note_on_c, 1, 60, 115
3, 3900, Note_on_c, 1, 60, 0
3, 3900, Note_on_c, 1, 66, 115
3, 3960, Note_on_c, 1, 66, 0
3, 3960, Note_on_c, 1, 57, 115
3, 4020, Note_on_c, 1, 57, 0
3, 4020, Note_on_c, 1, 60, 115
3, 4080, Note_on_c, 1, 60, 0
3, 4080, Note_on_c, 1, 50, 115
3, 4140, Note_on_c, 1, 50, 0
3, 4140, Note_on_c, 1, 64, 115
3, 4200, Note_on_c, 1, 64, 0
3, 4200, Note_on_c, 1, 62, 115
3, 4260, Note_on_c, 1, 62, 0
3, 4260, Note_on_c, 1, 60, 115
3, 4320, Note_on_c, 1, 60, 0
3, 4320, Note_on_c, 1, 59, 115
3, 4380, Note_on_c, 1, 59, 0
3, 4380, Note_on_c, 1, 62, 115
3, 4440, Note_on_c, 1, 62, 0
3, 4440, Note_on_c, 1, 55, 115
3, 4500, Note_on_c, 1, 55, 0
3, 4500, Note_on_c, 1, 59, 115
3, 4560, Note_on_c, 1, 59, 0
3, 4800, Note_on_c, 1, 55, 115
3, 4860, Note_on_c, 1, 55, 0
3, 4860, Note_on_c, 1, 59, 115
3, 4920, Note_on_c, 1, 59, 0
3, 4920, Note_on_c, 1, 50, 115
3, 4980, Note_on_c, 1, 50, 0
3, 4980, Note_on_c, 1, 55, 115
3, 5040, Note_on_c, 1, 55, 0
3, 5040, Note_on_c, 1, 59, 115
3, 5100, Note_on_c, 1, 59, 0
3, 5100, Note_on_c, 1, 62, 115
3, 5160, Note_on_c, 1, 62, 0
3, 5160, Note_on_c, 1, 55, 115
3, 5220, Note_on_c, 1, 55, 0
3, 5220, Note_on_c, 1, 59, 115
3, 5280, Note_on_c, 1, 59, 0
3, 5280, Note_on_c, 1, 50, 115
3, 5340, Note_on_c, 1, 50, 0
3, 5340, Note_on_c, 1, 55, 115
3, 5400, Note_on_c, 1, 55, 0
3, 5400, Note_on_c, 1, 47, 115
3, 5460, Note_on_c, 1, 47, 0
3, 5460, Note_on_c, 1, 50, 115
3, 5520, Note_on_c, 1, 50, 0
3, 5520, Note_on_c, 1, 55, 115
3, 5580, Note_on_c, 1, 55, 0
3, 5580, Note_on_c, 1, 59, 115
3, 5640, Note_on_c, 1, 59, 0
3, 5640, Note_on_c, 1, 50, 115
3, 5700, Note_on_c, 1, 50, 0
3, 5700, Note_on_c, 1, 55, 115
3, 5760, Note_on_c, 1, 55, 0
3, 5760, Note_on_c, 1, 47, 115
3, 5820, Note_on_c, 1, 47, 0
3, 5820, Note_on_c, 1, 50, 115
3, 5880, Note_on_c, 1, 50, 0
3, 5880, Note_on_c, 1, 43, 115
3, 5940, Note_on_c, 1, 43, 0
3, 5940, Note_on_c, 1, 47, 115
3, 6000, Note_on_c, 1, 47, 0
3, 6000, Note_on_c, 1, 50, 115
3, 6060, Note_on_c, 1, 50, 0
3, 6060, Note_on_c, 1, 55, 115
3, 6120, Note_on_c, 1, 55, 0
3, 6120, Note_on_c, 1, 47, 115
3, 6180, Note_on_c, 1, 47, 0
3, 6180, Note_on_c, 1, 50, 115
3, 6240, Note_on_c, 1, 50, 0
3, 6240, Note_on_c, 1, 43, 115
3, 6300, Note_on_c, 1, 43, 0
3, 6300, Note_on_c, 1, 47, 115
3, 6360, Note_on_c, 1, 47, 0
3, 6360, Note_on_c, 1, 38, 115
3, 6420, Note_on_c, 1, 38, 0
3, 6420, Note_on_c, 1, 43, 115
3, 6480, Note_on_c, 1, 43, 0
3, 6480, Note_on_c, 1, 47, 115
3, 6540, Note_on_c, 1, 47, 0
3, 6540, Note_on_c, 1, 43, 115
3, 6600, Note_on_c, 1, 43, 0
3, 6600, Note_on_c, 1, 47, 115
3, 6660, Note_on_c, 1, 47, 0
3, 6660, Note_on_c, 1, 50, 115
3, 6720, Note_on_c, 1, 50, 0
3, 6720, Note_on_c, 1, 47, 115
3, 6780, Note_on_c, 1, 47, 0
3, 6780, Note_on_c, 1, 50, 115
3, 6840, Note_on_c, 1, 50, 0
3, 6840, Note_on_c, 1, 55, 115
3, 6900, Note_on_c, 1, 55, 0
3, 6900, Note_on_c, 1, 50, 115
3, 6960, Note_on_c, 1, 50, 0
3, 6960, Note_on_c, 1, 55, 115
3, 7020, Note_on_c, 1, 55, 0
3, 7020, Note_on_c, 1, 59, 115
3, 7080, Note_on_c, 1, 59, 0
3, 7080, Note_on_c, 1, 55, 115
3, 7140, Note_on_c, 1, 55, 0
3, 7140, Note_on_c, 1, 59, 115
3, 7200, Note_on_c, 1, 59, 0
3, 8040, Note_on_c, 1, 59, 115
3, 8100, Note_on_c, 1, 59, 0
3, 8100, Note_on_c, 1, 57, 115
3, 8160, Note_on_c, 1, 57, 0
3, 8160, Note_on_c, 1, 59, 115
3, 8220, Note_on_c, 1, 59, 0
3, 8220, Note_on_c, 1, 60, 115
3, 8280, Note_on_c, 1, 60, 0
3, 8280, Note_on_c, 1, 59, 115
3, 8340, Note_on_c, 1, 59, 0
3, 8340, Note_on_c, 1, 60, 115
3, 8400, Note_on_c, 1, 60, 0
3, 8400, Note_on_c, 1, 62, 115
3, 8460, Note_on_c, 1, 62, 0
3, 8460, Note_on_c, 1, 64, 115
3, 8520, Note_on_c, 1, 64, 0
3, 8520, Note_on_c, 1, 62, 115
3, 8580, Note_on_c, 1, 62, 0
3, 8580, Note_on_c, 1, 64, 115
3, 8640, Note_on_c, 1, 64, 0
3, 8640, Note_on_c, 1, 60, 115
3, 8880, Note_on_c, 1, 60, 0
3, 8880, Note_on_c, 1, 60, 115
3, 9120, Note_on_c, 1, 60, 0
3, 9480, Note_on_c, 1, 62, 115
3, 9480, Note_on_c, 1, 69, 115
3, 9600, Note_on_c, 1, 69, 0
3, 9600, Note_on_c, 1, 62, 0
3, 9600, Note_on_c, 1, 62, 115
3, 9600, Note_on_c, 1, 69, 115
3, 9720, Note_on_c, 1, 69, 0
3, 9720, Note_on_c, 1, 62, 0
3, 9720, Note_on_c, 1, 62, 115
3, 9720, Note_on_c, 1, 69, 115
3, 9840, Note_on_c, 1, 69, 0
3, 9840, Note_on_c, 1, 62, 0
3, 9840, Note_on_c, 1, 62, 115
3, 9840, Note_on_c, 1, 66, 115
3, 9960, Note_on_c, 1, 66, 0
3, 9960, Note_on_c, 1, 62, 0
3, 9960, Note_on_c, 1, 62, 115
3, 9960, Note_on_c, 1, 66, 115
3, 10080, Note_on_c, 1, 66, 0
3, 10080, Note_on_c, 1, 62, 0
3, 10080, Note_on_c, 1, 62, 115
3, 10080, Note_on_c, 1, 67, 115
3, 10320, Note_on_c, 1, 67, 0
3, 10320, Note_on_c, 1, 62, 0
3, 10320, Note_on_c, 1, 62, 115
3, 10320, Note_on_c, 1, 67, 115
3, 10560, Note_on_c, 1, 67, 0
3, 10560, Note_on_c, 1, 62, 0
3, 11520, Note_on_c, 1, 64, 115
3, 11640, Note_on_c, 1, 67, 115
3, 11760, Note_on_c, 1, 67, 0
3, 11760, Note_on_c, 1, 67, 115
3, 11880, Note_on_c, 1, 67, 0
3, 11880, Note_on_c, 1, 67, 115
3, 12000, Note_on_c, 1, 67, 0
3, 12000, Note_on_c, 1, 67, 115
3, 12120, Note_on_c, 1, 67, 0
3, 12120, Note_on_c, 1, 67, 115
3, 12240, Note_on_c, 1, 67, 0
3, 12240, Note_on_c, 1, 66, 115
3, 12360, Note_on_c, 1, 66, 0
3, 12360, Note_on_c, 1, 64, 0
3, 12360, Note_on_c, 1, 64, 115
3, 12480, Note_on_c, 1, 64, 0
3, 12480, Note_on_c, 1, 62, 115
3, 12600, Note_on_c, 1, 62, 0
3, 12600, Note_on_c, 1, 66, 115
3, 12600, Note_on_c, 1, 60, 115
3, 12720, Note_on_c, 1, 60, 0
3, 12720, Note_on_c, 1, 66, 0
3, 12720, Note_on_c, 1, 62, 115
3, 12720, Note_on_c, 1, 59, 115
3, 12840, Note_on_c, 1, 59, 0
3, 12840, Note_on_c, 1, 62, 0
3, 12840, Note_on_c, 1, 60, 115
3, 12840, Note_on_c, 1, 57, 115
3, 12960, Note_on_c, 1, 57, 0
3, 12960, Note_on_c, 1, 60, 0
3, 12960, Note_on_c, 1, 62, 115
3, 12960, Note_on_c, 1, 59, 115
3, 13080, Note_on_c, 1, 59, 0
3, 13080, Note_on_c, 1, 62, 0
3, 13080, Note_on_c, 1, 60, 115
3, 13080, Note_on_c, 1, 57, 115
3, 13200, Note_on_c, 1, 57, 0
3, 13200, Note_on_c, 1, 60, 0
3, 13200, Note_on_c, 1, 62, 115
3, 13200, Note_on_c, 1, 59, 115
3, 13320, Note_on_c, 1, 59, 0
3, 13320, Note_on_c, 1, 62, 0
3, 13320, Note_on_c, 1, 62, 115
3, 13320, Note_on_c, 1, 59, 115
3, 13440, Note_on_c, 1, 59, 0
3, 13440, Note_on_c, 1, 62, 0
3, 13440, Note_on_c, 1, 57, 115
3, 13440, Note_on_c, 1, 60, 115
3, 13560, Note_on_c, 1, 60, 0
3, 13560, Note_on_c, 1, 57, 0
3, 13560, Note_on_c, 1, 55, 115
3, 13560, Note_on_c, 1, 59, 115
3, 13680, Note_on_c, 1, 59, 0
3, 13680, Note_on_c, 1, 55, 0
3, 13680, Note_on_c, 1, 54, 115
3, 13680, Note_on_c, 1, 60, 115
3, 13800, Note_on_c, 1, 54, 0
3, 13800, Note_on_c, 1, 57, 115
3, 13920, Note_on_c, 1, 57, 0
3, 13920, Note_on_c, 1, 60, 0
3, 13920, Note_on_c, 1, 62, 115
3, 14160, Note_on_c, 1, 64, 115
3, 14280, Note_on_c, 1, 64, 0
3, 14280, Note_on_c, 1, 66, 115
3, 14400, Note_on_c, 1, 66, 0
3, 14400, Note_on_c, 1, 62, 0
3, 14400, Note_on_c, 1, 67, 115
3, 14400, Note_on_c, 1, 62, 115
3, 14520, Note_on_c, 1, 62, 0
3, 14520, Note_on_c, 1, 67, 0
3, 14520, Note_on_c, 1, 67, 115
3, 14520, Note_on_c, 1, 62, 115
3, 14640, Note_on_c, 1, 62, 0
3, 14640, Note_on_c, 1, 67, 0
3, 14640, Note_on_c, 1, 67, 115
3, 14640, Note_on_c, 1, 62, 115
3, 14760, Note_on_c, 1, 62, 0
3, 14760, Note_on_c, 1, 67, 0
3, 14760, Note_on_c, 1, 67, 115
3, 14760, Note_on_c, 1, 62, 115
3, 14880, Note_on_c, 1, 62, 0
3, 14880, Note_on_c, 1, 67, 0
3, 14880, Note_on_c, 1, 67, 115
3, 14880, Note_on_c, 1, 62, 115
3, 15000, Note_on_c, 1, 62, 0
3, 15000, Note_on_c, 1, 67, 0
3, 15000, Note_on_c, 1, 66, 115
3, 15000, Note_on_c, 1, 62, 115
3, 15120, Note_on_c, 1, 62, 0
3, 15120, Note_on_c, 1, 66, 0
3, 15120, Note_on_c, 1, 67, 115
3, 15120, Note_on_c, 1, 64, 115
3, 15240, Note_on_c, 1, 64, 0
3, 15240, Note_on_c, 1, 67, 0
3, 15240, Note_on_c, 1, 64, 115
3, 15240, Note_on_c, 1, 69, 115
3, 15360, Note_on_c, 1, 69, 0
3, 15360, Note_on_c, 1, 64, 0
3, 15360, Note_on_c, 1, 61, 115
3, 15360, Note_on_c, 1, 69, 115
3, 15480, Note_on_c, 1, 69, 0
3, 15480, Note_on_c, 1, 61, 0
3, 15480, Note_on_c, 1, 61, 115
3, 15480, Note_on_c, 1, 69, 115
3, 15600, Note_on_c, 1, 69, 0
3, 15600, Note_on_c, 1, 61, 0
3, 15600, Note_on_c, 1, 69, 115
3, 15600, Note_on_c, 1, 66, 115
3, 15720, Note_on_c, 1, 66, 0
3, 15720, Note_on_c, 1, 69, 0
3, 15720, Note_on_c, 1, 69, 115
3, 15720, Note_on_c, 1, 64, 115
3, 15840, Note_on_c, 1, 64, 0
3, 15840, Note_on_c, 1, 69, 0
3, 15840, Note_on_c, 1, 62, 115
3, 15840, Note_on_c, 1, 66, 115
3, 15960, Note_on_c, 1, 66, 0
3, 15960, Note_on_c, 1, 62, 0
3, 15960, Note_on_c, 1, 67, 115
3, 15960, Note_on_c, 1, 62, 115
3, 16080, Note_on_c, 1, 62, 0
3, 16080, Note_on_c, 1, 67, 0
3, 16080, Note_on_c, 1, 67, 115
3, 16080, Note_on_c, 1, 62, 115
3, 16200, Note_on_c, 1, 62, 0
3, 16200, Note_on_c, 1, 67, 0
3, 16200, Note_on_c, 1, 67, 115
3, 16200, Note_on_c, 1, 59, 115
3, 16320, Note_on_c, 1, 59, 0
3, 16320, Note_on_c, 1, 67, 0
3, 16320, Note_on_c, 1, 67, 115
3, 16320, Note_on_c, 1, 64, 115
3, 16440, Note_on_c, 1, 64, 0
3, 16440, Note_on_c, 1, 67, 0
3, 16440, Note_on_c, 1, 67, 115
3, 16440, Note_on_c, 1, 62, 115
3, 16560, Note_on_c, 1, 62, 0
3, 16560, Note_on_c, 1, 67, 0
3, 16560, Note_on_c, 1, 69, 115
3, 16560, Note_on_c, 1, 64, 115
3, 16560, Note_on_c, 1, 61, 115
3, 16680, Note_on_c, 1, 61, 0
3, 16680, Note_on_c, 1, 64, 0
3, 16680, Note_on_c, 1, 69, 0
3, 17280, Note_on_c, 1, 66, 115
3, 17340, Note_on_c, 1, 66, 0
3, 17340, Note_on_c, 1, 69, 115
3, 17400, Note_on_c, 1, 69, 0
3, 17400, Note_on_c, 1, 62, 115
3, 17460, Note_on_c, 1, 62, 0
3, 17460, Note_on_c, 1, 66, 115
3, 17520, Note_on_c, 1, 66, 0
3, 17520, Note_on_c, 1, 57, 115
3, 17580, Note_on_c, 1, 57, 0
3, 17580, Note_on_c, 1, 67, 115
3, 17640, Note_on_c, 1, 67, 0
3, 17640, Note_on_c, 1, 66, 115
3, 17700, Note_on_c, 1, 66, 0
3, 17700, Note_on_c, 1, 64, 115
3, 17760, Note_on_c, 1, 64, 0
3, 17760, Note_on_c, 1, 62, 115
3, 17820, Note_on_c, 1, 62, 0
3, 17820, Note_on_c, 1, 61, 115
3, 17880, Note_on_c, 1, 61, 0
3, 17880, Note_on_c, 1, 59, 115
3, 17940, Note_on_c, 1, 59, 0
3, 17940, Note_on_c, 1, 57, 115
3, 18000, Note_on_c, 1, 57, 0
3, 18000, Note_on_c, 1, 56, 115
3, 18060, Note_on_c, 1, 56, 0
3, 18060, Note_on_c, 1, 59, 115
3, 18120, Note_on_c, 1, 59, 0
3, 18120, Note_on_c, 1, 50, 115
3, 18180, Note_on_c, 1, 50, 0
3, 18180, Note_on_c, 1, 53, 115
3, 18240, Note_on_c, 1, 53, 0
3, 18240, Note_on_c, 1, 47, 115
3, 18300, Note_on_c, 1, 47, 0
3, 18300, Note_on_c, 1, 50, 115
3, 18360, Note_on_c, 1, 50, 0
3, 18360, Note_on_c, 1, 53, 115
3, 18420, Note_on_c, 1, 53, 0
3, 18420, Note_on_c, 1, 57, 115
3, 18480, Note_on_c, 1, 57, 0
3, 18480, Note_on_c, 1, 56, 115
3, 18540, Note_on_c, 1, 56, 0
3, 18540, Note_on_c, 1, 59, 115
3, 18600, Note_on_c, 1, 59, 0
3, 18600, Note_on_c, 1, 52, 115
3, 18660, Note_on_c, 1, 52, 0
3, 18660, Note_on_c, 1, 50, 115
3, 18720, Note_on_c, 1, 50, 0
3, 18720, Note_on_c, 1, 49, 115
3, 18780, Note_on_c, 1, 49, 0
3, 18780, Note_on_c, 1, 45, 115
3, 18840, Note_on_c, 1, 45, 0
3, 18840, Note_on_c, 1, 47, 115
3, 18900, Note_on_c, 1, 47, 0
3, 18900, Note_on_c, 1, 49, 115
3, 18960, Note_on_c, 1, 49, 0
3, 18960, Note_on_c, 1, 50, 115
3, 19020, Note_on_c, 1, 50, 0
3, 19020, Note_on_c, 1, 52, 115
3, 19080, Note_on_c, 1, 52, 0
3, 19080, Note_on_c, 1, 50, 115
3, 19140, Note_on_c, 1, 50, 0
3, 19140, Note_on_c, 1, 52, 115
3, 19200, Note_on_c, 1, 52, 0
3, 19200, Note_on_c, 1, 54, 115
3, 19260, Note_on_c, 1, 54, 0
3, 19260, Note_on_c, 1, 57, 115
3, 19320, Note_on_c, 1, 57, 0
3, 19320, Note_on_c, 1, 55, 115
3, 19380, Note_on_c, 1, 55, 0
3, 19380, Note_on_c, 1, 59, 115
3, 19440, Note_on_c, 1, 59, 0
3, 19440, Note_on_c, 1, 57, 115
3, 19560, Note_on_c, 1, 57, 0
3, 19560, Note_on_c, 1, 59, 115
3, 19680, Note_on_c, 1, 59, 0
3, 19680, Note_on_c, 1, 61, 115
3, 19800, Note_on_c, 1, 61, 0
3, 19800, Note_on_c, 1, 62, 115
3, 19920, Note_on_c, 1, 62, 0
3, 19920, Note_on_c, 1, 57, 115
3, 20040, Note_on_c, 1, 57, 0
3, 20040, Note_on_c, 1, 57, 115
3, 20160, Note_on_c, 1, 57, 0
3, 20160, Note_on_c, 1, 57, 115
3, 20280, Note_on_c, 1, 57, 0
3, 20880, Note_on_c, 1, 57, 115
3, 20940, Note_on_c, 1, 57, 0
3, 20940, Note_on_c, 1, 62, 115
3, 21000, Note_on_c, 1, 62, 0
3, 21000, Note_on_c, 1, 61, 115
3, 21060, Note_on_c, 1, 61, 0
3, 21060, Note_on_c, 1, 59, 115
3, 21120, Note_on_c, 1, 59, 0
3, 21120, Note_on_c, 1, 57, 115
3, 21180, Note_on_c, 1, 57, 0
3, 21180, Note_on_c, 1, 55, 115
3, 21240, Note_on_c, 1, 55, 0
3, 21240, Note_on_c, 1, 54, 115
3, 21300, Note_on_c, 1, 54, 0
3, 21300, Note_on_c, 1, 52, 115
3, 21360, Note_on_c, 1, 52, 0
3, 21360, Note_on_c, 1, 54, 115
3, 21420, Note_on_c, 1, 54, 0
3, 21420, Note_on_c, 1, 57, 115
3, 21480, Note_on_c, 1, 57, 0
3, 21480, Note_on_c, 1, 50, 115
3, 21540, Note_on_c, 1, 50, 0
3, 21540, Note_on_c, 1, 54, 115
3, 21600, Note_on_c, 1, 54, 0
3, 21600, Note_on_c, 1, 57, 115
3, 21660, Note_on_c, 1, 57, 0
3, 21660, Note_on_c, 1, 62, 115
3, 21720, Note_on_c, 1, 62, 0
3, 21720, Note_on_c, 1, 54, 115
3, 21780, Note_on_c, 1, 54, 0
3, 21780, Note_on_c, 1, 57, 115
3, 21840, Note_on_c, 1, 57, 0
3, 22440, Note_on_c, 1, 66, 115
3, 22440, Note_on_c, 1, 59, 115
3, 22560, Note_on_c, 1, 59, 0
3, 22560, Note_on_c, 1, 66, 0
3, 22560, Note_on_c, 1, 66, 115
3, 22560, Note_on_c, 1, 59, 115
3, 22680, Note_on_c, 1, 59, 0
3, 22680, Note_on_c, 1, 66, 0
3, 22680, Note_on_c, 1, 66, 115
3, 22680, Note_on_c, 1, 59, 115
3, 22800, Note_on_c, 1, 59, 0
3, 22800, Note_on_c, 1, 66, 0
3, 22800, Note_on_c, 1, 66, 115
3, 22800, Note_on_c, 1, 59, 115
3, 22920, Note_on_c, 1, 59, 0
3, 22920, Note_on_c, 1, 66, 0
3, 22920, Note_on_c, 1, 66, 115
3, 22920, Note_on_c, 1, 59, 115
3, 23040, Note_on_c, 1, 59, 0
3, 23040, Note_on_c, 1, 66, 0
3, 23040, Note_on_c, 1, 64, 115
3, 23040, Note_on_c, 1, 59, 115
3, 23160, Note_on_c, 1, 59, 0
3, 23160, Note_on_c, 1, 64, 0
3, 23880, Note_on_c, 1, 64, 115
3, 23880, Note_on_c, 1, 59, 115
3, 24000, Note_on_c, 1, 59, 0
3, 24000, Note_on_c, 1, 64, 0
3, 24000, Note_on_c, 1, 64, 115
3, 24000, Note_on_c, 1, 59, 115
3, 24120, Note_on_c, 1, 59, 0
3, 24120, Note_on_c, 1, 64, 0
3, 24120, Note_on_c, 1, 64, 115
3, 24120, Note_on_c, 1, 59, 115
3, 24240, Note_on_c, 1, 59, 0
3, 24240, Note_on_c, 1, 64, 0
3, 24240, Note_on_c, 1, 64, 115
3, 24240, Note_on_c, 1, 59, 115
3, 24360, Note_on_c, 1, 59, 0
3, 24360, Note_on_c, 1, 64, 0
3, 24360, Note_on_c, 1, 64, 115
3, 24360, Note_on_c, 1, 60, 115
3, 24480, Note_on_c, 1, 60, 0
3, 24480, Note_on_c, 1, 64, 0
3, 24480, Note_on_c, 1, 64, 115
3, 24480, Note_on_c, 1, 60, 115
3, 24600, Note_on_c, 1, 60, 0
3, 24600, Note_on_c, 1, 64, 0
3, 25320, Note_on_c, 1, 62, 115
3, 25320, Note_on_c, 1, 57, 115
3, 25440, Note_on_c, 1, 57, 0
3, 25440, Note_on_c, 1, 62, 0
3, 25440, Note_on_c, 1, 62, 115
3, 25440, Note_on_c, 1, 57, 115
3, 25560, Note_on_c, 1, 57, 0
3, 25560, Note_on_c, 1, 62, 0
3, 25560, Note_on_c, 1, 62, 115
3, 25560, Note_on_c, 1, 57, 115
3, 25680, Note_on_c, 1, 57, 0
3, 25680, Note_on_c, 1, 62, 0
3, 25680, Note_on_c, 1, 62, 115
3, 25680, Note_on_c, 1, 57, 115
3, 25740, Note_on_c, 1, 57, 0
3, 25740, Note_on_c, 1, 60, 115
3, 25800, Note_on_c, 1, 60, 0
3, 25800, Note_on_c, 1, 59, 115
3, 25860, Note_on_c, 1, 59, 0
3, 25860, Note_on_c, 1, 57, 115
3, 25920, Note_on_c, 1, 57, 0
3, 25920, Note_on_c, 1, 55, 115
3, 25980, Note_on_c, 1, 55, 0
3, 25980, Note_on_c, 1, 57, 115
3, 26040, Note_on_c, 1, 57, 0
3, 26040, Note_on_c, 1, 62, 0
3, 26040, Note_on_c, 1, 59, 115
3, 26100, Note_on_c, 1, 59, 0
3, 26100, Note_on_c, 1, 60, 115
3, 26160, Note_on_c, 1, 60, 0
3, 26160, Note_on_c, 1, 62, 115
3, 26220, Note_on_c, 1, 62, 0
3, 26220, Note_on_c, 1, 64, 115
3, 26280, Note_on_c, 1, 64, 0
3, 26280, Note_on_c, 1, 66, 115
3, 26340, Note_on_c, 1, 66, 0
3, 26340, Note_on_c, 1, 67, 115
3, 26400, Note_on_c, 1, 67, 0
3, 26400, Note_on_c, 1, 69, 115
3, 26460, Note_on_c, 1, 69, 0
3, 26460, Note_on_c, 1, 71, 115
3, 26520, Note_on_c, 1, 71, 0
3, 26520, Note_on_c, 1, 72, 115
3, 26580, Note_on_c, 1, 72, 0
3, 26580, Note_on_c, 1, 66, 115
3, 26640, Note_on_c, 1, 66, 0
3, 26640, Note_on_c, 1, 55, 115
3, 26880, Note_on_c, 1, 55, 0
3, 27000, Note_on_c, 1, 66, 115
3, 27120, Note_on_c, 1, 66, 0
3, 27120, Note_on_c, 1, 64, 115
3, 27240, Note_on_c, 1, 64, 0
3, 27240, Note_on_c, 1, 62, 115
3, 27360, Note_on_c, 1, 62, 0
3, 27360, Note_on_c, 1, 61, 115
3, 27600, Note_on_c, 1, 61, 0
3, 28800, Note_on_c, 1, 58, 115
3, 29040, Note_on_c, 1, 58, 0
3, 29280, Note_on_c, 1, 58, 115
3, 29340, Note_on_c, 1, 58, 0
3, 29340, Note_on_c, 1, 55, 115
3, 29400, Note_on_c, 1, 55, 0
3, 29400, Note_on_c, 1, 54, 115
3, 29460, Note_on_c, 1, 54, 0
3, 29460, Note_on_c, 1, 52, 115
3, 29520, Note_on_c, 1, 52, 0
3, 29520, Note_on_c, 1, 50, 115
3, 29640, Note_on_c, 1, 50, 0
3, 29640, Note_on_c, 1, 62, 115
3, 29640, Note_on_c, 1, 59, 115
3, 29760, Note_on_c, 1, 59, 0
3, 29760, Note_on_c, 1, 62, 0
3, 29760, Note_on_c, 1, 64, 115
3, 29760, Note_on_c, 1, 59, 115
3, 29880, Note_on_c, 1, 59, 0
3, 29880, Note_on_c, 1, 64, 0
3, 29880, Note_on_c, 1, 64, 115
3, 29880, Note_on_c, 1, 59, 115
3, 30000, Note_on_c, 1, 59, 0
3, 30000, Note_on_c, 1, 64, 0
3, 30000, Note_on_c, 1, 62, 115
3, 30000, Note_on_c, 1, 59, 115
3, 30120, Note_on_c, 1, 59, 0
3, 30120, Note_on_c, 1, 62, 0
3, 30120, Note_on_c, 1, 64, 115
3, 30120, Note_on_c, 1, 61, 115
3, 30240, Note_on_c, 1, 61, 0
3, 30240, Note_on_c, 1, 64, 0
3, 30240, Note_on_c, 1, 62, 115
3, 30240, Note_on_c, 1, 59, 115
3, 30360, Note_on_c, 1, 59, 0
3, 30360, Note_on_c, 1, 62, 0
3, 30360, Note_on_c, 1, 61, 115
3, 30480, Note_on_c, 1, 61, 0
3, 30480, Note_on_c, 1, 62, 115
3, 30600, Note_on_c, 1, 62, 0
3, 30600, Note_on_c, 1, 58, 115
3, 30720, Note_on_c, 1, 58, 0
3, 30720, Note_on_c, 1, 59, 115
3, 30840, Note_on_c, 1, 59, 0
3, 30840, Note_on_c, 1, 61, 115
3, 30960, Note_on_c, 1, 61, 0
3, 30960, Note_on_c, 1, 62, 115
3, 31080, Note_on_c, 1, 62, 0
3, 31080, Note_on_c, 1, 61, 115
3, 31200, Note_on_c, 1, 61, 0
3, 31200, Note_on_c, 1, 62, 115
3, 31320, Note_on_c, 1, 62, 0
3, 31320, Note_on_c, 1, 61, 115
3, 31440, Note_on_c, 1, 61, 0
3, 31440, Note_on_c, 1, 62, 115
3, 31560, Note_on_c, 1, 62, 0
3, 31560, Note_on_c, 1, 64, 115
3, 31680, Note_on_c, 1, 64, 0
3, 31680, Note_on_c, 1, 66, 115
3, 31800, Note_on_c, 1, 66, 0
3, 31800, Note_on_c, 1, 62, 115
3, 31800, Note_on_c, 1, 59, 115
3, 31920, Note_on_c, 1, 59, 0
3, 31920, Note_on_c, 1, 62, 0
3, 31920, Note_on_c, 1, 64, 115
3, 31920, Note_on_c, 1, 59, 115
3, 32040, Note_on_c, 1, 59, 0
3, 32040, Note_on_c, 1, 64, 0
3, 32040, Note_on_c, 1, 64, 115
3, 32040, Note_on_c, 1, 59, 115
3, 32160, Note_on_c, 1, 59, 0
3, 32160, Note_on_c, 1, 64, 0
3, 32160, Note_on_c, 1, 62, 115
3, 32160, Note_on_c, 1, 59, 115
3, 32280, Note_on_c, 1, 59, 0
3, 32280, Note_on_c, 1, 62, 0
3, 32280, Note_on_c, 1, 61, 115
3, 32280, Note_on_c, 1, 54, 115
3, 32388, Note_on_c, 1, 54, 0
3, 32388, Note_on_c, 1, 61, 0
3, 32400, Note_on_c, 1, 62, 115
3, 32400, Note_on_c, 1, 59, 115
3, 32400, Note_on_c, 1, 54, 115
3, 32520, Note_on_c, 1, 54, 0
3, 32520, Note_on_c, 1, 59, 0
3, 32520, Note_on_c, 1, 62, 0
3, 33120, Note_on_c, 1, 59, 115
3, 33240, Note_on_c, 1, 64, 115
3, 33360, Note_on_c, 1, 64, 0
3, 33360, Note_on_c, 1, 64, 115
3, 33480, Note_on_c, 1, 64, 0
3, 33480, Note_on_c, 1, 64, 115
3, 33600, Note_on_c, 1, 64, 0
3, 33600, Note_on_c, 1, 64, 115
3, 33720, Note_on_c, 1, 64, 0
3, 33720, Note_on_c, 1, 64, 115
3, 33840, Note_on_c, 1, 64, 0
3, 33900, Note_on_c, 1, 59, 0
3, 33900, Note_on_c, 1, 57, 115
3, 33960, Note_on_c, 1, 57, 0
3, 33960, Note_on_c, 1, 56, 115
3, 34020, Note_on_c, 1, 56, 0
3, 34020, Note_on_c, 1, 57, 115
3, 34080, Note_on_c, 1, 57, 0
3, 34080, Note_on_c, 1, 59, 115
3, 34140, Note_on_c, 1, 59, 0
3, 34140, Note_on_c, 1, 60, 115
3, 34200, Note_on_c, 1, 60, 0
3, 34200, Note_on_c, 1, 62, 115
3, 34260, Note_on_c, 1, 62, 0
3, 34260, Note_on_c, 1, 60, 115
3, 34320, Note_on_c, 1, 60, 0
3, 34320, Note_on_c, 1, 59, 115
3, 34380, Note_on_c, 1, 59, 0
3, 34380, Note_on_c, 1, 57, 115
3, 34440, Note_on_c, 1, 57, 0
3, 34440, Note_on_c, 1, 59, 115
3, 34500, Note_on_c, 1, 59, 0
3, 34500, Note_on_c, 1, 56, 115
3, 34560, Note_on_c, 1, 56, 0
3, 34560, Note_on_c, 1, 64, 115
3, 34560, Note_on_c, 1, 57, 115
3, 34800, Note_on_c, 1, 57, 0
3, 34800, Note_on_c, 1, 64, 0
3, 34920, Note_on_c, 1, 57, 115
3, 35040, Note_on_c, 1, 57, 0
3, 35040, Note_on_c, 1, 57, 115
3, 35160, Note_on_c, 1, 57, 0
3, 35160, Note_on_c, 1, 57, 115
3, 35280, Note_on_c, 1, 57, 0
3, 35280, Note_on_c, 1, 62, 115
3, 35280, Note_on_c, 1, 57, 115
3, 35520, Note_on_c, 1, 57, 0
3, 35520, Note_on_c, 1, 62, 0
3, 36000, Note_on_c, 1, 57, 115
3, 36360, Note_on_c, 1, 62, 115
3, 36480, Note_on_c, 1, 62, 0
3, 36480, Note_on_c, 1, 62, 115
3, 36600, Note_on_c, 1, 62, 0
3, 36600, Note_on_c, 1, 62, 115
3, 36720, Note_on_c, 1, 62, 0
3, 36720, Note_on_c, 1, 57, 0
3, 36720, Note_on_c, 1, 62, 115
3, 36720, Note_on_c, 1, 57, 115
3, 36780, Note_on_c, 1, 57, 0
3, 36780, Note_on_c, 1, 55, 115
3, 36840, Note_on_c, 1, 55, 0
3, 36840, Note_on_c, 1, 54, 115
3, 36900, Note_on_c, 1, 54, 0
3, 36900, Note_on_c, 1, 55, 115
3, 36960, Note_on_c, 1, 55, 0
3, 36960, Note_on_c, 1, 62, 0
3, 36960, Note_on_c, 1, 57, 115
3, 37020, Note_on_c, 1, 57, 0
3, 37020, Note_on_c, 1, 59, 115
3, 37080, Note_on_c, 1, 59, 0
3, 37080, Note_on_c, 1, 60, 115
3, 37140, Note_on_c, 1, 60, 0
3, 37140, Note_on_c, 1, 59, 115
3, 37200, Note_on_c, 1, 59, 0
3, 37200, Note_on_c, 1, 57, 115
3, 37260, Note_on_c, 1, 57, 0
3, 37260, Note_on_c, 1, 55, 115
3, 37320, Note_on_c, 1, 55, 0
3, 37320, Note_on_c, 1, 57, 115
3, 37380, Note_on_c, 1, 57, 0
3, 37380, Note_on_c, 1, 54, 115
3, 37440, Note_on_c, 1, 54, 0
3, 37440, Note_on_c, 1, 55, 115
3, 37500, Note_on_c, 1, 55, 0
3, 37500, Note_on_c, 1, 50, 115
3, 37560, Note_on_c, 1, 50, 0
3, 37560, Note_on_c, 1, 47, 115
3, 37620, Note_on_c, 1, 47, 0
3, 37620, Note_on_c, 1, 50, 115
3, 37680, Note_on_c, 1, 50, 0
3, 37740, Note_on_c, 1, 50, 115
3, 37800, Note_on_c, 1, 50, 0
3, 37800, Note_on_c, 1, 52, 115
3, 37860, Note_on_c, 1, 52, 0
3, 37860, Note_on_c, 1, 54, 115
3, 37920, Note_on_c, 1, 54, 0
3, 37920, Note_on_c, 1, 55, 115
3, 37980, Note_on_c, 1, 55, 0
3, 37980, Note_on_c, 1, 57, 115
3, 38040, Note_on_c, 1, 57, 0
3, 38040, Note_on_c, 1, 59, 115
3, 38100, Note_on_c, 1, 59, 0
3, 38100, Note_on_c, 1, 55, 115
3, 38160, Note_on_c, 1, 55, 0
3, 38160, Note_on_c, 1, 60, 115
3, 38220, Note_on_c, 1, 60, 0
3, 38220, Note_on_c, 1, 62, 115
3, 38280, Note_on_c, 1, 62, 0
3, 38280, Note_on_c, 1, 60, 115
3, 38340, Note_on_c, 1, 60, 0
3, 38340, Note_on_c, 1, 59, 115
3, 38400, Note_on_c, 1, 59, 0
3, 38400, Note_on_c, 1, 57, 115
3, 38460, Note_on_c, 1, 57, 0
3, 38460, Note_on_c, 1, 55, 115
3, 38520, Note_on_c, 1, 55, 0
3, 38520, Note_on_c, 1, 54, 115
3, 38580, Note_on_c, 1, 54, 0
3, 38580, Note_on_c, 1, 52, 115
3, 38640, Note_on_c, 1, 52, 0
3, 38640, Note_on_c, 1, 50, 115
3, 38700, Note_on_c, 1, 50, 0
3, 38700, Note_on_c, 1, 48, 115
3, 38760, Note_on_c, 1, 48, 0
3, 38760, Note_on_c, 1, 47, 115
3, 38820, Note_on_c, 1, 47, 0
3, 38820, Note_on_c, 1, 45, 115
3, 38880, Note_on_c, 1, 45, 0
3, 38880, Note_on_c, 1, 43, 115
3, 38940, Note_on_c, 1, 43, 0
3, 38940, Note_on_c, 1, 50, 115
3, 39000, Note_on_c, 1, 50, 0
3, 39000, Note_on_c, 1, 52, 115
3, 39060, Note_on_c, 1, 52, 0
3, 39060, Note_on_c, 1, 53, 115
3, 39120, Note_on_c, 1, 53, 0
3, 39120, Note_on_c, 1, 55, 115
3, 39180, Note_on_c, 1, 55, 0
3, 39180, Note_on_c, 1, 57, 115
3, 39240, Note_on_c, 1, 57, 0
3, 39240, Note_on_c, 1, 59, 115
3, 39300, Note_on_c, 1, 59, 0
3, 39300, Note_on_c, 1, 60, 115
3, 39360, Note_on_c, 1, 60, 0
3, 39360, Note_on_c, 1, 59, 115
3, 39420, Note_on_c, 1, 59, 0
3, 39420, Note_on_c, 1, 57, 115
3, 39480, Note_on_c, 1, 57, 0
3, 39480, Note_on_c, 1, 55, 115
3, 39540, Note_on_c, 1, 55, 0
3, 39540, Note_on_c, 1, 57, 115
3, 39600, Note_on_c, 1, 57, 0
3, 39600, Note_on_c, 1, 58, 115
3, 39660, Note_on_c, 1, 58, 0
3, 39660, Note_on_c, 1, 57, 115
3, 39720, Note_on_c, 1, 57, 0
3, 39720, Note_on_c, 1, 55, 115
3, 39780, Note_on_c, 1, 55, 0
3, 39780, Note_on_c, 1, 54, 115
3, 39840, Note_on_c, 1, 54, 0
3, 39840, Note_on_c, 1, 55, 115
3, 39900, Note_on_c, 1, 55, 0
3, 39900, Note_on_c, 1, 57, 115
3, 39960, Note_on_c, 1, 57, 0
3, 39960, Note_on_c, 1, 58, 115
3, 40020, Note_on_c, 1, 58, 0
3, 40020, Note_on_c, 1, 57, 115
3, 40080, Note_on_c, 1, 57, 0
3, 40080, Note_on_c, 1, 55, 115
3, 40140, Note_on_c, 1, 55, 0
3, 40140, Note_on_c, 1, 58, 115
3, 40200, Note_on_c, 1, 58, 0
3, 40200, Note_on_c, 1, 57, 115
3, 40260, Note_on_c, 1, 57, 0
3, 40260, Note_on_c, 1, 55, 115
3, 40320, Note_on_c, 1, 55, 0
3, 40320, Note_on_c, 1, 57, 115
3, 40440, Note_on_c, 1, 57, 0
3, 40440, Note_on_c, 1, 50, 115
3, 40560, Note_on_c, 1, 50, 0
3, 41040, Note_on_c, 1, 55, 115
3, 41280, Note_on_c, 1, 55, 0
3, 41340, Note_on_c, 1, 62, 115
3, 41400, Note_on_c, 1, 62, 0
3, 41400, Note_on_c, 1, 60, 115
3, 41460, Note_on_c, 1, 60, 0
3, 41460, Note_on_c, 1, 59, 115
3, 41520, Note_on_c, 1, 59, 0
3, 41520, Note_on_c, 1, 57, 115
3, 41580, Note_on_c, 1, 57, 0
3, 41580, Note_on_c, 1, 60, 115
3, 41640, Note_on_c, 1, 60, 0
3, 41640, Note_on_c, 1, 59, 115
3, 41700, Note_on_c, 1, 59, 0
3, 41700, Note_on_c, 1, 57, 115
3, 41760, Note_on_c, 1, 57, 0
3, 41760, Note_on_c, 1, 59, 115
3, 42000, Note_on_c, 1, 59, 0
3, 42120, Note_on_c, 1, 55, 115
3, 42240, Note_on_c, 1, 55, 0
3, 42240, Note_on_c, 1, 55, 115
3, 42360, Note_on_c, 1, 55, 0
3, 42360, Note_on_c, 1, 55, 115
3, 42480, Note_on_c, 1, 55, 0
3, 42480, Note_on_c, 1, 54, 115
3, 42720, Note_on_c, 1, 54, 0
3, 42840, Note_on_c, 1, 54, 115
3, 42960, Note_on_c, 1, 54, 0
3, 42960, Note_on_c, 1, 57, 115
3, 43080, Note_on_c, 1, 57, 0
3, 43080, Note_on_c, 1, 54, 115
3, 43200, Note_on_c, 1, 54, 0
3, 43200, Note_on_c, 1, 55, 115
3, 43320, Note_on_c, 1, 55, 0
3, 43560, Note_on_c, 1, 62, 115
3, 43680, Note_on_c, 1, 62, 0
3, 43680, Note_on_c, 1, 67, 115
3, 43800, Note_on_c, 1, 67, 0
3, 43800, Note_on_c, 1, 65, 115
3, 43920, Note_on_c, 1, 65, 0
3, 43920, Note_on_c, 1, 64, 115
3, 44160, Note_on_c, 1, 64, 0
3, 44280, Note_on_c, 1, 64, 115
3, 44400, Note_on_c, 1, 64, 0
3, 44400, Note_on_c, 1, 62, 115
3, 44520, Note_on_c, 1, 62, 0
3, 44520, Note_on_c, 1, 64, 115
3, 44640, Note_on_c, 1, 64, 0
3, 44640, Note_on_c, 1, 66, 115
3, 44700, Note_on_c, 1, 66, 0
3, 44700, Note_on_c, 1, 64, 115
3, 44760, Note_on_c, 1, 64, 0
3, 44760, Note_on_c, 1, 66, 115
3, 44820, Note_on_c, 1, 66, 0
3, 44820, Note_on_c, 1, 67, 115
3, 44880, Note_on_c, 1, 67, 0
3, 44880, Note_on_c, 1, 66, 115
3, 44940, Note_on_c, 1, 66, 0
3, 44940, Note_on_c, 1, 69, 115
3, 45000, Note_on_c, 1, 69, 0
3, 45000, Note_on_c, 1, 62, 115
3, 45060, Note_on_c, 1, 62, 0
3, 45060, Note_on_c, 1, 69, 115
3, 45120, Note_on_c, 1, 69, 0
3, 45120, Note_on_c, 1, 64, 115
3, 45180, Note_on_c, 1, 64, 0
3, 45180, Note_on_c, 1, 69, 115
3, 45240, Note_on_c, 1, 69, 0
3, 45240, Note_on_c, 1, 66, 115
3, 45300, Note_on_c, 1, 66, 0
3, 45300, Note_on_c, 1, 69, 115
3, 45360, Note_on_c, 1, 69, 0
3, 45360, Note_on_c, 1, 67, 115
3, 45420, Note_on_c, 1, 67, 0
3, 45420, Note_on_c, 1, 66, 115
3, 45480, Note_on_c, 1, 66, 0
3, 45480, Note_on_c, 1, 67, 115
3, 45540, Note_on_c, 1, 67, 0
3, 45540, Note_on_c, 1, 69, 115
3, 45600, Note_on_c, 1, 69, 0
3, 45600, Note_on_c, 1, 67, 115
3, 45660, Note_on_c, 1, 67, 0
3, 45660, Note_on_c, 1, 71, 115
3, 45720, Note_on_c, 1, 71, 0
3, 45720, Note_on_c, 1, 64, 115
3, 45780, Note_on_c, 1, 64, 0
3, 45780, Note_on_c, 1, 71, 115
3, 45840, Note_on_c, 1, 71, 0
3, 45840, Note_on_c, 1, 66, 115
3, 45900, Note_on_c, 1, 66, 0
3, 45900, Note_on_c, 1, 71, 115
3, 45960, Note_on_c, 1, 71, 0
3, 45960, Note_on_c, 1, 67, 115
3, 46020, Note_on_c, 1, 67, 0
3, 46020, Note_on_c, 1, 71, 115
3, 46080, Note_on_c, 1, 71, 0
3, 46080, Note_on_c, 1, 69, 115
3, 46140, Note_on_c, 1, 69, 0
3, 46140, Note_on_c, 1, 67, 115
3, 46200, Note_on_c, 1, 67, 0
3, 46200, Note_on_c, 1, 69, 115
3, 46260, Note_on_c, 1, 69, 0
3, 46260, Note_on_c, 1, 71, 115
3, 46320, Note_on_c, 1, 71, 0
3, 46320, Note_on_c, 1, 69, 115
3, 46380, Note_on_c, 1, 69, 0
3, 46380, Note_on_c, 1, 72, 115
3, 46440, Note_on_c, 1, 72, 0
3, 46440, Note_on_c, 1, 67, 115
3, 46500, Note_on_c, 1, 67, 0
3, 46500, Note_on_c, 1, 72, 115
3, 46560, Note_on_c, 1, 72, 0
3, 46560, Note_on_c, 1, 66, 115
3, 46620, Note_on_c, 1, 66, 0
3, 46620, Note_on_c, 1, 72, 115
3, 46680, Note_on_c, 1, 72, 0
3, 46680, Note_on_c, 1, 64, 115
3, 46740, Note_on_c, 1, 64, 0
3, 46740, Note_on_c, 1, 72, 115
3, 46800, Note_on_c, 1, 72, 0
3, 46800, Note_on_c, 1, 62, 115
3, 46860, Note_on_c, 1, 62, 0
3, 46860, Note_on_c, 1, 71, 115
3, 46920, Note_on_c, 1, 71, 0
3, 46920, Note_on_c, 1, 69, 115
3, 46980, Note_on_c, 1, 69, 0
3, 46980, Note_on_c, 1, 71, 115
3, 47040, Note_on_c, 1, 71, 0
3, 47040, Note_on_c, 1, 67, 115
3, 47100, Note_on_c, 1, 67, 0
3, 47100, Note_on_c, 1, 71, 115
3, 47160, Note_on_c, 1, 71, 0
3, 47160, Note_on_c, 1, 66, 115
3, 47220, Note_on_c, 1, 66, 0
3, 47220, Note_on_c, 1, 71, 115
3, 47280, Note_on_c, 1, 71, 0
3, 47280, Note_on_c, 1, 66, 115
3, 47340, Note_on_c, 1, 66, 0
3, 47340, Note_on_c, 1, 71, 115
3, 47400, Note_on_c, 1, 71, 0
3, 47400, Note_on_c, 1, 64, 115
3, 47460, Note_on_c, 1, 64, 0
3, 47460, Note_on_c, 1, 71, 115
3, 47520, Note_on_c, 1, 71, 0
3, 47520, Note_on_c, 1, 62, 115
3, 47580, Note_on_c, 1, 62, 0
3, 47580, Note_on_c, 1, 69, 115
3, 47640, Note_on_c, 1, 69, 0
3, 47640, Note_on_c, 1, 67, 115
3, 47700, Note_on_c, 1, 67, 0
3, 47700, Note_on_c, 1, 69, 115
3, 47760, Note_on_c, 1, 69, 0
3, 47760, Note_on_c, 1, 66, 115
3, 47820, Note_on_c, 1, 66, 0
3, 47820, Note_on_c, 1, 69, 115
3, 47880, Note_on_c, 1, 69, 0
3, 47880, Note_on_c, 1, 64, 115
3, 47940, Note_on_c, 1, 64, 0
3, 47940, Note_on_c, 1, 69, 115
3, 48000, Note_on_c, 1, 69, 0
3, 48000, Note_on_c, 1, 62, 115
3, 48060, Note_on_c, 1, 62, 0
3, 48060, Note_on_c, 1, 69, 115
3, 48120, Note_on_c, 1, 69, 0
3, 48120, Note_on_c, 1, 60, 115
3, 48180, Note_on_c, 1, 60, 0
3, 48180, Note_on_c, 1, 69, 115
3, 48240, Note_on_c, 1, 69, 0
3, 48240, Note_on_c, 1, 58, 115
3, 48300, Note_on_c, 1, 58, 0
3, 48300, Note_on_c, 1, 67, 115
3, 48360, Note_on_c, 1, 67, 0
3, 48360, Note_on_c, 1, 66, 115
3, 48420, Note_on_c, 1, 66, 0
3, 48420, Note_on_c, 1, 67, 115
3, 48480, Note_on_c, 1, 67, 0
3, 48480, Note_on_c, 1, 64, 115
3, 48540, Note_on_c, 1, 64, 0
3, 48540, Note_on_c, 1, 67, 115
3, 48600, Note_on_c, 1, 67, 0
3, 48600, Note_on_c, 1, 62, 115
3, 48660, Note_on_c, 1, 62, 0
3, 48660, Note_on_c, 1, 67, 115
3, 48720, Note_on_c, 1, 67, 0
3, 48720, Note_on_c, 1, 61, 115
3, 48780, Note_on_c, 1, 61, 0
3, 48780, Note_on_c, 1, 67, 115
3, 48840, Note_on_c, 1, 67, 0
3, 48840, Note_on_c, 1, 58, 115
3, 48900, Note_on_c, 1, 58, 0
3, 48900, Note_on_c, 1, 61, 115
3, 48960, Note_on_c, 1, 61, 0
3, 48960, Note_on_c, 1, 57, 115
3, 48960, Note_on_c, 1, 62, 115
3, 49080, Note_on_c, 1, 62, 0
3, 49080, Note_on_c, 1, 57, 0
3, 49260, Note_on_c, 1, 60, 115
3, 49320, Note_on_c, 1, 60, 0
3, 49320, Note_on_c, 1, 57, 115
3, 49380, Note_on_c, 1, 57, 0
3, 49380, Note_on_c, 1, 54, 115
3, 49440, Note_on_c, 1, 54, 0
3, 49440, Note_on_c, 1, 50, 115
3, 49560, Note_on_c, 1, 50, 0
3, 49560, Note_on_c, 1, 52, 115
3, 49620, Note_on_c, 1, 52, 0
3, 49620, Note_on_c, 1, 54, 115
3, 49680, Note_on_c, 1, 54, 0
3, 49680, Note_on_c, 1, 55, 115
3, 49740, Note_on_c, 1, 55, 0
3, 49740, Note_on_c, 1, 54, 115
3, 49800, Note_on_c, 1, 54, 0
3, 49800, Note_on_c, 1, 55, 115
3, 49860, Note_on_c, 1, 55, 0
3, 49860, Note_on_c, 1, 57, 115
3, 49920, Note_on_c, 1, 57, 0
3, 49920, Note_on_c, 1, 59, 115
3, 49980, Note_on_c, 1, 59, 0
3, 49980, Note_on_c, 1, 57, 115
3, 50040, Note_on_c, 1, 57, 0
3, 50040, Note_on_c, 1, 59, 115
3, 50100, Note_on_c, 1, 59, 0
3, 50100, Note_on_c, 1, 60, 115
3, 50160, Note_on_c, 1, 60, 0
3, 50160, Note_on_c, 1, 62, 115
3, 50220, Note_on_c, 1, 62, 0
3, 50220, Note_on_c, 1, 60, 115
3, 50280, Note_on_c, 1, 60, 0
3, 50280, Note_on_c, 1, 59, 115
3, 50340, Note_on_c, 1, 59, 0
3, 50340, Note_on_c, 1, 57, 115
3, 50400, Note_on_c, 1, 57, 0
3, 50400, Note_on_c, 1, 55, 115
3, 50460, Note_on_c, 1, 55, 0
3, 50460, Note_on_c, 1, 65, 115
3, 50520, Note_on_c, 1, 65, 0
3, 50520, Note_on_c, 1, 64, 115
3, 50580, Note_on_c, 1, 64, 0
3, 50580, Note_on_c, 1, 62, 115
3, 50640, Note_on_c, 1, 62, 0
3, 50640, Note_on_c, 1, 60, 115
3, 50760, Note_on_c, 1, 64, 115
3, 50880, Note_on_c, 1, 64, 0
3, 50880, Note_on_c, 1, 66, 115
3, 51000, Note_on_c, 1, 66, 0
3, 51000, Note_on_c, 1, 67, 115
3, 51120, Note_on_c, 1, 67, 0
3, 51180, Note_on_c, 1, 60, 0
3, 51180, Note_on_c, 1, 67, 115
3, 51240, Note_on_c, 1, 67, 0
3, 51240, Note_on_c, 1, 66, 115
3, 51300, Note_on_c, 1, 66, 0
3, 51300, Note_on_c, 1, 64, 115
3, 51360, Note_on_c, 1, 64, 0
3, 51360, Note_on_c, 1, 59, 115
3, 51360, Note_on_c, 1, 62, 115
3, 51900, Note_on_c, 1, 62, 0
3, 51900, Note_on_c, 1, 60, 115
3, 51960, Note_on_c, 1, 60, 0
3, 51960, Note_on_c, 1, 59, 0
3, 51960, Note_on_c, 1, 52, 115
3, 51960, Note_on_c, 1, 59, 115
3, 52020, Note_on_c, 1, 59, 0
3, 52020, Note_on_c, 1, 62, 115
3, 52080, Note_on_c, 1, 62, 0
3, 52080, Note_on_c, 1, 52, 0
3, 52080, Note_on_c, 1, 57, 115
3, 52080, Note_on_c, 1, 60, 115
3, 52800, Note_on_c, 1, 60, 0
3, 52800, Note_on_c, 1, 57, 0
3, 54000, Note_on_c, 1, 61, 115
3, 54060, Note_on_c, 1, 61, 0
3, 54060, Note_on_c, 1, 64, 115
3, 54120, Note_on_c, 1, 64, 0
3, 54120, Note_on_c, 1, 55, 115
3, 54180, Note_on_c, 1, 55, 0
3, 54180, Note_on_c, 1, 58, 115
3, 54240, Note_on_c, 1, 58, 0
3, 54240, Note_on_c, 1, 52, 115
3, 54300, Note_on_c, 1, 52, 0
3, 54300, Note_on_c, 1, 55, 115
3, 54360, Note_on_c, 1, 55, 0
3, 54360, Note_on_c, 1, 58, 115
3, 54420, Note_on_c, 1, 58, 0
3, 54420, Note_on_c, 1, 62, 115
3, 54480, Note_on_c, 1, 62, 0
3, 54480, Note_on_c, 1, 61, 115
3, 54540, Note_on_c, 1, 61, 0
3, 54540, Note_on_c, 1, 64, 115
3, 54600, Note_on_c, 1, 64, 0
3, 54600, Note_on_c, 1, 57, 115
3, 54660, Note_on_c, 1, 57, 0
3, 54660, Note_on_c, 1, 55, 115
3, 54720, Note_on_c, 1, 55, 0
3, 54720, Note_on_c, 1, 54, 115
3, 54840, Note_on_c, 1, 54, 0
3, 54840, Note_on_c, 1, 60, 115
3, 54960, Note_on_c, 1, 60, 0
3, 54960, Note_on_c, 1, 59, 115
3, 55080, Note_on_c, 1, 59, 0
3, 55080, Note_on_c, 1, 60, 115
3, 55080, Note_on_c, 1, 57, 115
3, 55200, Note_on_c, 1, 57, 0
3, 55200, Note_on_c, 1, 60, 0
3, 55200, Note_on_c, 1, 59, 115
3, 55200, Note_on_c, 1, 55, 115
3, 55320, Note_on_c, 1, 55, 0
3, 55320, Note_on_c, 1, 59, 0
3, 55320, Note_on_c, 1, 57, 115
3, 55320, Note_on_c, 1, 54, 115
3, 55440, Note_on_c, 1, 54, 0
3, 55440, Note_on_c, 1, 57, 0
3, 55440, Note_on_c, 1, 55, 115
3, 55680, Note_on_c, 1, 55, 0
3, 55800, Note_on_c, 1, 55, 115
3, 55920, Note_on_c, 1, 55, 0
3, 55920, Note_on_c, 1, 62, 115
3, 56040, Note_on_c, 1, 62, 0
3, 56040, Note_on_c, 1, 57, 115
3, 56160, Note_on_c, 1, 57, 0
3, 56160, Note_on_c, 1, 55, 115
3, 56220, Note_on_c, 1, 55, 0
3, 56220, Note_on_c, 1, 54, 115
3, 56280, Note_on_c, 1, 54, 0
3, 56280, Note_on_c, 1, 55, 115
3, 56340, Note_on_c, 1, 55, 0
3, 56340, Note_on_c, 1, 57, 115
3, 56400, Note_on_c, 1, 57, 0
3, 56400, Note_on_c, 1, 55, 115
3, 56460, Note_on_c, 1, 55, 0
3, 56460, Note_on_c, 1, 59, 115
3, 56520, Note_on_c, 1, 59, 0
3, 56520, Note_on_c, 1, 50, 115
3, 56580, Note_on_c, 1, 50, 0
3, 56580, Note_on_c, 1, 59, 115
3, 56640, Note_on_c, 1, 59, 0
3, 56640, Note_on_c, 1, 52, 115
3, 56700, Note_on_c, 1, 52, 0
3, 56700, Note_on_c, 1, 59, 115
3, 56760, Note_on_c, 1, 59, 0
3, 56760, Note_on_c, 1, 54, 115
3, 56820, Note_on_c, 1, 54, 0
3, 56820, Note_on_c, 1, 59, 115
3, 56880, Note_on_c, 1, 59, 0
3, 56880, Note_on_c, 1, 55, 115
3, 56940, Note_on_c, 1, 55, 0
3, 56940, Note_on_c, 1, 54, 115
3, 57000, Note_on_c, 1, 54, 0
3, 57000, Note_on_c, 1, 55, 115
3, 57060, Note_on_c, 1, 55, 0
3, 57060, Note_on_c, 1, 57, 115
3, 57120, Note_on_c, 1, 57, 0
3, 57120, Note_on_c, 1, 55, 115
3, 57180, Note_on_c, 1, 55, 0
3, 57180, Note_on_c, 1, 60, 115
3, 57240, Note_on_c, 1, 60, 0
3, 57240, Note_on_c, 1, 54, 115
3, 57300, Note_on_c, 1, 54, 0
3, 57300, Note_on_c, 1, 62, 120
3, 57360, Note_on_c, 1, 62, 0
3, 57360, Note_on_c, 1, 55, 115
3, 57420, Note_on_c, 1, 55, 0
3, 57420, Note_on_c, 1, 64, 120
3, 57480, Note_on_c, 1, 64, 0
3, 57480, Note_on_c, 1, 57, 115
3, 57540, Note_on_c, 1, 57, 0
3, 57540, Note_on_c, 1, 66, 127
3, 57600, Note_on_c, 1, 66, 0
3, 57720, Note_on_c, 1, 55, 115
3, 57810, Note_on_c, 1, 55, 0
3, 57840, Note_on_c, 1, 55, 115
3, 57948, Note_on_c, 1, 55, 0
3, 57960, Note_on_c, 1, 60, 115
3, 58068, Note_on_c, 1, 60, 0
3, 58080, Note_on_c, 1, 59, 115
3, 58170, Note_on_c, 1, 59, 0
3, 58200, Note_on_c, 1, 57, 115
3, 58290, Note_on_c, 1, 57, 0
3, 58320, Note_on_c, 1, 55, 115
3, 58800, Note_on_c, 1, 55, 0
3, 62520, Note_on_c, 1, 55, 100
3, 62640, Note_on_c, 1, 55, 0
3, 62640, Note_on_c, 1, 55, 100
3, 62760, Note_on_c, 1, 55, 0
3, 62760, Note_on_c, 1, 55, 100
3, 62880, Note_on_c, 1, 55, 0
3, 62880, Note_on_c, 1, 62, 100
3, 63000, Note_on_c, 1, 62, 0
3, 63000, Note_on_c, 1, 62, 100
3, 63120, Note_on_c, 1, 62, 0
3, 63120, Note_on_c, 1, 62, 100
3, 63240, Note_on_c, 1, 62, 0
3, 63240, Note_on_c, 1, 62, 100
3, 63360, Note_on_c, 1, 62, 0
3, 63360, Note_on_c, 1, 62, 100
3, 63480, Note_on_c, 1, 62, 0
3, 63480, Note_on_c, 1, 61, 100
3, 63540, Note_on_c, 1, 61, 0
3, 63540, Note_on_c, 1, 59, 100
3, 63600, Note_on_c, 1, 59, 0
3, 63600, Note_on_c, 1, 61, 100
3, 63720, Note_on_c, 1, 61, 0
3, 63720, Note_on_c, 1, 57, 100
3, 63840, Note_on_c, 1, 57, 0
3, 63840, Note_on_c, 1, 66, 100
3, 63960, Note_on_c, 1, 66, 0
3, 63960, Note_on_c, 1, 66, 100
3, 64080, Note_on_c, 1, 66, 0
3, 64080, Note_on_c, 1, 66, 100
3, 64200, Note_on_c, 1, 66, 0
3, 64200, Note_on_c, 1, 66, 100
3, 64320, Note_on_c, 1, 66, 0
3, 64320, Note_on_c, 1, 66, 100
3, 64440, Note_on_c, 1, 66, 0
3, 64440, Note_on_c, 1, 64, 100
3, 64500, Note_on_c, 1, 64, 0
3, 64500, Note_on_c, 1, 62, 100
3, 64560, Note_on_c, 1, 62, 0
3, 64560, Note_on_c, 1, 64, 100
3, 64680, Note_on_c, 1, 64, 0
3, 64680, Note_on_c, 1, 64, 100
3, 64800, Note_on_c, 1, 64, 0
3, 64800, Note_on_c, 1, 64, 100
3, 64920, Note_on_c, 1, 64, 0
3, 64920, Note_on_c, 1, 57, 100
3, 65040, Note_on_c, 1, 57, 0
3, 65040, Note_on_c, 1, 62, 100
3, 65400, Note_on_c, 1, 62, 0
3, 65400, Note_on_c, 1, 64, 100
3, 65460, Note_on_c, 1, 64, 0
3, 65460, Note_on_c, 1, 62, 100
3, 65520, Note_on_c, 1, 62, 0
3, 65520, Note_on_c, 1, 61, 100
3, 65580, Note_on_c, 1, 61, 0
3, 65580, Note_on_c, 1, 62, 100
3, 65640, Note_on_c, 1, 62, 0
3, 65640, Note_on_c, 1, 59, 100
3, 65700, Note_on_c, 1, 59, 0
3, 65700, Note_on_c, 1, 61, 100
3, 65760, Note_on_c, 1, 61, 0
3, 65760, Note_on_c, 1, 62, 100
3, 65820, Note_on_c, 1, 62, 0
3, 65820, Note_on_c, 1, 61, 100
3, 65880, Note_on_c, 1, 61, 0
3, 65880, Note_on_c, 1, 62, 100
3, 65940, Note_on_c, 1, 62, 0
3, 65940, Note_on_c, 1, 64, 100
3, 66000, Note_on_c, 1, 64, 0
3, 66000, Note_on_c, 1, 62, 100
3, 66060, Note_on_c, 1, 62, 0
3, 66060, Note_on_c, 1, 64, 100
3, 66120, Note_on_c, 1, 64, 0
3, 66120, Note_on_c, 1, 62, 100
3, 66180, Note_on_c, 1, 62, 0
3, 66180, Note_on_c, 1, 60, 100
3, 66240, Note_on_c, 1, 60, 0
3, 66240, Note_on_c, 1, 59, 100
3, 66300, Note_on_c, 1, 59, 0
3, 66300, Note_on_c, 1, 57, 100
3, 66360, Note_on_c, 1, 57, 0
3, 66360, Note_on_c, 1, 59, 100
3, 66420, Note_on_c, 1, 59, 0
3, 66420, Note_on_c, 1, 60, 100
3, 66480, Note_on_c, 1, 60, 0
3, 66480, Note_on_c, 1, 59, 100
3, 66540, Note_on_c, 1, 59, 0
3, 66540, Note_on_c, 1, 62, 100
3, 66600, Note_on_c, 1, 62, 0
3, 66600, Note_on_c, 1, 60, 100
3, 66660, Note_on_c, 1, 60, 0
3, 66660, Note_on_c, 1, 59, 100
3, 66720, Note_on_c, 1, 59, 0
3, 66720, Note_on_c, 1, 57, 100
3, 66960, Note_on_c, 1, 57, 0
3, 66960, Note_on_c, 1, 69, 100
3, 67260, Note_on_c, 1, 69, 0
3, 67260, Note_on_c, 1, 62, 100
3, 67320, Note_on_c, 1, 62, 0
3, 67320, Note_on_c, 1, 64, 100
3, 67380, Note_on_c, 1, 64, 0
3, 67380, Note_on_c, 1, 66, 100
3, 67440, Note_on_c, 1, 66, 0
3, 67440, Note_on_c, 1, 67, 100
3, 67500, Note_on_c, 1, 67, 0
3, 67500, Note_on_c, 1, 69, 100
3, 67560, Note_on_c, 1, 69, 0
3, 67560, Note_on_c, 1, 66, 100
3, 67620, Note_on_c, 1, 66, 0
3, 67620, Note_on_c, 1, 67, 100
3, 67680, Note_on_c, 1, 67, 0
3, 67680, Note_on_c, 1, 60, 100
3, 67980, Note_on_c, 1, 60, 0
3, 67980, Note_on_c, 1, 64, 100
3, 68040, Note_on_c, 1, 64, 0
3, 68040, Note_on_c, 1, 62, 100
3, 68100, Note_on_c, 1, 62, 0
3, 68100, Note_on_c, 1, 60, 100
3, 68160, Note_on_c, 1, 60, 0
3, 68160, Note_on_c, 1, 59, 100
3, 68460, Note_on_c, 1, 59, 0
3, 68460, Note_on_c, 1, 60, 100
3, 68520, Note_on_c, 1, 60, 0
3, 68520, Note_on_c, 1, 62, 100
3, 68580, Note_on_c, 1, 62, 0
3, 68580, Note_on_c, 1, 64, 100
3, 68640, Note_on_c, 1, 64, 0
3, 68640, Note_on_c, 1, 66, 100
3, 68700, Note_on_c, 1, 66, 0
3, 68700, Note_on_c, 1, 67, 100
3, 68760, Note_on_c, 1, 67, 0
3, 68760, Note_on_c, 1, 66, 100
3, 68820, Note_on_c, 1, 66, 0
3, 68820, Note_on_c, 1, 67, 100
3, 68880, Note_on_c, 1, 67, 0
3, 68880, Note_on_c, 1, 57, 100
3, 69000, Note_on_c, 1, 57, 0
3, 69000, Note_on_c, 1, 62, 100
3, 69240, Note_on_c, 1, 62, 0
3, 69240, Note_on_c, 1, 59, 100
3, 69360, Note_on_c, 1, 59, 0
3, 69360, Note_on_c, 1, 64, 100
3, 69900, Note_on_c, 1, 64, 0
3, 69900, Note_on_c, 1, 64, 100
3, 69960, Note_on_c, 1, 64, 0
3, 69960, Note_on_c, 1, 62, 100
3, 70020, Note_on_c, 1, 62, 0
3, 70020, Note_on_c, 1, 61, 100
3, 70080, Note_on_c, 1, 61, 0
3, 70080, Note_on_c, 1, 62, 100
3, 70620, Note_on_c, 1, 62, 0
3, 70620, Note_on_c, 1, 59, 100
3, 70680, Note_on_c, 1, 59, 0
3, 70680, Note_on_c, 1, 61, 100
3, 70740, Note_on_c, 1, 61, 0
3, 70740, Note_on_c, 1, 62, 100
3, 70800, Note_on_c, 1, 62, 0
3, 70800, Note_on_c, 1, 64, 100
3, 70860, Note_on_c, 1, 64, 0
3, 70860, Note_on_c, 1, 66, 100
3, 70920, Note_on_c, 1, 66, 0
3, 70920, Note_on_c, 1, 64, 100
3, 70980, Note_on_c, 1, 64, 0
3, 70980, Note_on_c, 1, 62, 100
3, 71040, Note_on_c, 1, 62, 0
3, 71040, Note_on_c, 1, 61, 100
3, 71340, Note_on_c, 1, 61, 0
3, 71340, Note_on_c, 1, 57, 100
3, 71400, Note_on_c, 1, 57, 0
3, 71400, Note_on_c, 1, 59, 100
3, 71460, Note_on_c, 1, 59, 0
3, 71460, Note_on_c, 1, 61, 100
3, 71520, Note_on_c, 1, 61, 0
3, 71520, Note_on_c, 1, 62, 100
3, 71760, Note_on_c, 1, 62, 0
3, 71880, Note_on_c, 1, 57, 100
3, 72000, Note_on_c, 1, 57, 0
3, 72000, Note_on_c, 1, 57, 100
3, 72120, Note_on_c, 1, 57, 0
3, 72120, Note_on_c, 1, 56, 100
3, 72180, Note_on_c, 1, 56, 0
3, 72180, Note_on_c, 1, 54, 100
3, 72240, Note_on_c, 1, 54, 0
3, 72240, Note_on_c, 1, 56, 100
3, 72480, Note_on_c, 1, 56, 0
3, 72480, Note_on_c, 1, 57, 100
3, 72720, Note_on_c, 1, 57, 0
3, 73320, Note_on_c, 1, 62, 100
3, 73440, Note_on_c, 1, 62, 0
3, 73440, Note_on_c, 1, 67, 100
3, 73500, Note_on_c, 1, 67, 0
3, 73500, Note_on_c, 1, 69, 100
3, 73560, Note_on_c, 1, 69, 0
3, 73560, Note_on_c, 1, 67, 100
3, 73620, Note_on_c, 1, 67, 0
3, 73620, Note_on_c, 1, 66, 100
3, 73680, Note_on_c, 1, 66, 0
3, 73680, Note_on_c, 1, 64, 100
3, 73740, Note_on_c, 1, 64, 0
3, 73740, Note_on_c, 1, 62, 100
3, 73800, Note_on_c, 1, 62, 0
3, 73800, Note_on_c, 1, 61, 100
3, 73860, Note_on_c, 1, 61, 0
3, 73860, Note_on_c, 1, 59, 100
3, 73920, Note_on_c, 1, 59, 0
3, 73920, Note_on_c, 1, 57, 100
3, 74220, Note_on_c, 1, 57, 0
3, 74220, Note_on_c, 1, 55, 100
3, 74280, Note_on_c, 1, 55, 0
3, 74280, Note_on_c, 1, 57, 100
3, 74340, Note_on_c, 1, 57, 0
3, 74340, Note_on_c, 1, 54, 100
3, 74400, Note_on_c, 1, 54, 0
3, 74400, Note_on_c, 1, 55, 100
3, 74460, Note_on_c, 1, 55, 0
3, 74460, Note_on_c, 1, 54, 100
3, 74520, Note_on_c, 1, 54, 0
3, 74520, Note_on_c, 1, 55, 100
3, 74580, Note_on_c, 1, 55, 0
3, 74580, Note_on_c, 1, 57, 100
3, 74640, Note_on_c, 1, 57, 0
3, 74640, Note_on_c, 1, 55, 100
3, 74700, Note_on_c, 1, 55, 0
3, 74700, Note_on_c, 1, 59, 100
3, 74760, Note_on_c, 1, 59, 0
3, 74760, Note_on_c, 1, 57, 100
3, 74820, Note_on_c, 1, 57, 0
3, 74820, Note_on_c, 1, 55, 100
3, 74880, Note_on_c, 1, 55, 0
3, 74880, Note_on_c, 1, 54, 100
3, 75000, Note_on_c, 1, 54, 0
3, 75000, Note_on_c, 1, 52, 100
3, 75120, Note_on_c, 1, 52, 0
3, 75120, Note_on_c, 1, 54, 100
3, 75240, Note_on_c, 1, 54, 0
3, 75240, Note_on_c, 1, 56, 100
3, 75360, Note_on_c, 1, 56, 0
3, 75360, Note_on_c, 1, 57, 100
3, 75840, Note_on_c, 1, 57, 0
3, 75960, Note_on_c, 1, 54, 100
3, 76080, Note_on_c, 1, 54, 0
3, 76080, Note_on_c, 1, 55, 100
3, 76200, Note_on_c, 1, 55, 0
3, 76200, Note_on_c, 1, 57, 100
3, 76320, Note_on_c, 1, 57, 0
3, 76320, Note_on_c, 1, 59, 100
3, 76800, Note_on_c, 1, 59, 0
3, 76920, Note_on_c, 1, 59, 100
3, 77160, Note_on_c, 1, 59, 0
3, 77160, Note_on_c, 1, 57, 100
3, 77220, Note_on_c, 1, 57, 0
3, 77220, Note_on_c, 1, 56, 100
3, 77280, Note_on_c, 1, 56, 0
3, 77280, Note_on_c, 1, 57, 100
3, 77400, Note_on_c, 1, 57, 0
3, 77400, Note_on_c, 1, 57, 100
3, 77520, Note_on_c, 1, 57, 0
3, 77520, Note_on_c, 1, 62, 100
3, 77640, Note_on_c, 1, 62, 0
3, 77640, Note_on_c, 1, 62, 100
3, 77760, Note_on_c, 1, 62, 0
3, 77760, Note_on_c, 1, 62, 100
3, 77880, Note_on_c, 1, 62, 0
3, 77880, Note_on_c, 1, 55, 100
3, 78000, Note_on_c, 1, 55, 0
3, 78000, Note_on_c, 1, 60, 100
3, 78240, Note_on_c, 1, 60, 0
3, 78240, Note_on_c, 1, 57, 100
3, 78480, Note_on_c, 1, 57, 0
3, 78480, Note_on_c, 1, 59, 100
3, 78840, Note_on_c, 1, 59, 0
3, 78840, Note_on_c, 1, 57, 100
3, 78900, Note_on_c, 1, 57, 0
3, 78900, Note_on_c, 1, 56, 100
3, 78960, Note_on_c, 1, 56, 0
3, 78960, Note_on_c, 1, 57, 100
3, 79080, Note_on_c, 1, 57, 0
3, 79080, Note_on_c, 1, 60, 100
3, 79200, Note_on_c, 1, 60, 0
3, 79200, Note_on_c, 1, 59, 100
3, 79200, Note_on_c, 1, 62, 100
3, 79260, Note_on_c, 1, 62, 0
3, 79260, Note_on_c, 1, 64, 100
3, 79320, Note_on_c, 1, 64, 0
3, 79320, Note_on_c, 1, 62, 100
3, 79380, Note_on_c, 1, 62, 0
3, 79380, Note_on_c, 1, 61, 100
3, 79440, Note_on_c, 1, 61, 0
3, 79440, Note_on_c, 1, 59, 0
3, 79440, Note_on_c, 1, 52, 100
3, 79440, Note_on_c, 1, 59, 100
3, 79500, Note_on_c, 1, 59, 0
3, 79500, Note_on_c, 1, 64, 100
3, 79560, Note_on_c, 1, 64, 0
3, 79560, Note_on_c, 1, 62, 100
3, 79620, Note_on_c, 1, 62, 0
3, 79620, Note_on_c, 1, 64, 100
3, 79680, Note_on_c, 1, 64, 0
3, 79680, Note_on_c, 1, 57, 100
3, 79800, Note_on_c, 1, 57, 0
3, 79800, Note_on_c, 1, 52, 0
3, 79800, Note_on_c, 1, 50, 100
3, 79920, Note_on_c, 1, 50, 0
3, 79980, Note_on_c, 1, 57, 100
3, 80040, Note_on_c, 1, 57, 0
3, 80040, Note_on_c, 1, 59, 100
3, 80100, Note_on_c, 1, 59, 0
3, 80100, Note_on_c, 1, 61, 100
3, 80160, Note_on_c, 1, 61, 0
3, 80160, Note_on_c, 1, 62, 100
3, 80220, Note_on_c, 1, 62, 0
3, 80220, Note_on_c, 1, 64, 100
3, 80280, Note_on_c, 1, 64, 0
3, 80280, Note_on_c, 1, 61, 100
3, 80340, Note_on_c, 1, 61, 0
3, 80340, Note_on_c, 1, 62, 100
3, 80400, Note_on_c, 1, 62, 0
3, 80400, Note_on_c, 1, 64, 100
3, 80460, Note_on_c, 1, 64, 0
3, 80460, Note_on_c, 1, 62, 100
3, 80520, Note_on_c, 1, 62, 0
3, 80520, Note_on_c, 1, 61, 100
3, 80580, Note_on_c, 1, 61, 0
3, 80580, Note_on_c, 1, 59, 100
3, 80640, Note_on_c, 1, 59, 0
3, 80640, Note_on_c, 1, 57, 100
3, 80760, Note_on_c, 1, 57, 0
3, 80760, Note_on_c, 1, 62, 100
3, 80880, Note_on_c, 1, 62, 0
3, 80880, Note_on_c, 1, 62, 100
3, 81000, Note_on_c, 1, 62, 0
3, 81000, Note_on_c, 1, 62, 100
3, 81120, Note_on_c, 1, 62, 0
3, 81120, Note_on_c, 1, 62, 100
3, 81240, Note_on_c, 1, 62, 0
3, 81240, Note_on_c, 1, 60, 100
3, 81300, Note_on_c, 1, 60, 0
3, 81300, Note_on_c, 1, 59, 100
3, 81360, Note_on_c, 1, 59, 0
3, 81360, Note_on_c, 1, 60, 100
3, 81420, Note_on_c, 1, 60, 0
3, 81420, Note_on_c, 1, 59, 100
3, 81480, Note_on_c, 1, 59, 0
3, 81480, Note_on_c, 1, 57, 100
3, 81540, Note_on_c, 1, 57, 0
3, 81540, Note_on_c, 1, 60, 100
3, 81600, Note_on_c, 1, 60, 0
3, 81600, Note_on_c, 1, 59, 100
3, 81660, Note_on_c, 1, 59, 0
3, 81660, Note_on_c, 1, 57, 100
3, 81720, Note_on_c, 1, 57, 0
3, 81720, Note_on_c, 1, 55, 100
3, 81780, Note_on_c, 1, 55, 0
3, 81780, Note_on_c, 1, 59, 100
3, 81840, Note_on_c, 1, 59, 0
3, 81840, Note_on_c, 1, 57, 100
3, 81900, Note_on_c, 1, 57, 0
3, 81900, Note_on_c, 1, 60, 100
3, 81960, Note_on_c, 1, 60, 0
3, 81960, Note_on_c, 1, 59, 100
3, 82020, Note_on_c, 1, 59, 0
3, 82020, Note_on_c, 1, 62, 100
3, 82080, Note_on_c, 1, 62, 0
3, 82080, Note_on_c, 1, 60, 100
3, 82140, Note_on_c, 1, 60, 0
3, 82140, Note_on_c, 1, 57, 100
3, 82200, Note_on_c, 1, 57, 0
3, 82200, Note_on_c, 1, 59, 100
3, 82260, Note_on_c, 1, 59, 0
3, 82260, Note_on_c, 1, 60, 100
3, 82320, Note_on_c, 1, 60, 0
3, 82320, Note_on_c, 1, 62, 100
3, 82380, Note_on_c, 1, 62, 0
3, 82380, Note_on_c, 1, 60, 100
3, 82440, Note_on_c, 1, 60, 0
3, 82440, Note_on_c, 1, 59, 100
3, 82500, Note_on_c, 1, 59, 0
3, 82500, Note_on_c, 1, 57, 100
3, 82560, Note_on_c, 1, 57, 0
3, 82560, Note_on_c, 1, 55, 100
3, 82680, Note_on_c, 1, 55, 0
3, 82680, Note_on_c, 1, 55, 100
3, 82800, Note_on_c, 1, 55, 0
3, 82800, Note_on_c, 1, 57, 100
3, 83160, Note_on_c, 1, 57, 0
3, 83160, Note_on_c, 1, 57, 100
3, 83280, Note_on_c, 1, 57, 0
3, 83280, Note_on_c, 1, 59, 100
3, 83340, Note_on_c, 1, 59, 0
3, 83340, Note_on_c, 1, 60, 100
3, 83400, Note_on_c, 1, 60, 0
3, 83400, Note_on_c, 1, 59, 100
3, 83460, Note_on_c, 1, 59, 0
3, 83460, Note_on_c, 1, 57, 100
3, 83520, Note_on_c, 1, 57, 0
3, 83520, Note_on_c, 1, 55, 100
3, 83580, Note_on_c, 1, 55, 0
3, 83580, Note_on_c, 1, 57, 100
3, 83640, Note_on_c, 1, 57, 0
3, 83640, Note_on_c, 1, 55, 100
3, 83700, Note_on_c, 1, 55, 0
3, 83700, Note_on_c, 1, 54, 100
3, 83760, Note_on_c, 1, 54, 0
3, 83760, Note_on_c, 1, 52, 100
3, 83820, Note_on_c, 1, 52, 0
3, 83820, Note_on_c, 1, 55, 100
3, 83880, Note_on_c, 1, 55, 0
3, 83880, Note_on_c, 1, 54, 100
3, 83940, Note_on_c, 1, 54, 0
3, 83940, Note_on_c, 1, 52, 100
3, 84000, Note_on_c, 1, 52, 0
3, 84000, Note_on_c, 1, 50, 100
3, 84240, Note_on_c, 1, 50, 0
3, 91680, Note_on_c, 1, 59, 100
3, 91800, Note_on_c, 1, 59, 0
3, 91800, Note_on_c, 1, 59, 100
3, 91920, Note_on_c, 1, 59, 0
3, 91920, Note_on_c, 1, 59, 100
3, 92040, Note_on_c, 1, 59, 0
3, 92040, Note_on_c, 1, 64, 100
3, 92160, Note_on_c, 1, 64, 0
3, 92160, Note_on_c, 1, 64, 100
3, 92280, Note_on_c, 1, 64, 0
3, 92280, Note_on_c, 1, 64, 100
3, 92400, Note_on_c, 1, 64, 0
3, 92400, Note_on_c, 1, 64, 100
3, 92520, Note_on_c, 1, 64, 0
3, 92520, Note_on_c, 1, 64, 100
3, 92640, Note_on_c, 1, 64, 0
3, 92640, Note_on_c, 1, 64, 100
3, 92760, Note_on_c, 1, 64, 0
3, 92760, Note_on_c, 1, 62, 100
3, 92820, Note_on_c, 1, 62, 0
3, 92820, Note_on_c, 1, 61, 100
3, 92880, Note_on_c, 1, 61, 0
3, 92880, Note_on_c, 1, 62, 100
3, 93000, Note_on_c, 1, 62, 0
3, 93000, Note_on_c, 1, 59, 100
3, 93120, Note_on_c, 1, 59, 0
3, 93120, Note_on_c, 1, 67, 100
3, 93240, Note_on_c, 1, 67, 0
3, 93240, Note_on_c, 1, 67, 100
3, 93360, Note_on_c, 1, 67, 0
3, 93360, Note_on_c, 1, 67, 100
3, 93480, Note_on_c, 1, 67, 0
3, 93480, Note_on_c, 1, 67, 100
3, 93600, Note_on_c, 1, 67, 0
3, 93600, Note_on_c, 1, 67, 100
3, 93720, Note_on_c, 1, 67, 0
3, 93720, Note_on_c, 1, 66, 100
3, 93780, Note_on_c, 1, 66, 0
3, 93780, Note_on_c, 1, 64, 100
3, 93840, Note_on_c, 1, 64, 0
3, 93840, Note_on_c, 1, 66, 100
3, 93960, Note_on_c, 1, 66, 0
3, 93960, Note_on_c, 1, 66, 100
3, 94080, Note_on_c, 1, 66, 0
3, 94080, Note_on_c, 1, 66, 100
3, 94200, Note_on_c, 1, 66, 0
3, 94200, Note_on_c, 1, 64, 100
3, 94260, Note_on_c, 1, 64, 0
3, 94260, Note_on_c, 1, 63, 100
3, 94320, Note_on_c, 1, 63, 0
3, 94320, Note_on_c, 1, 64, 100
3, 94560, Note_on_c, 1, 64, 0
3, 94560, Note_on_c, 1, 64, 100
3, 94680, Note_on_c, 1, 64, 0
3, 94680, Note_on_c, 1, 66, 100
3, 94740, Note_on_c, 1, 66, 0
3, 94740, Note_on_c, 1, 64, 100
3, 94800, Note_on_c, 1, 64, 0
3, 94800, Note_on_c, 1, 62, 100
3, 94860, Note_on_c, 1, 62, 0
3, 94860, Note_on_c, 1, 64, 100
3, 94920, Note_on_c, 1, 64, 0
3, 94920, Note_on_c, 1, 61, 100
3, 94980, Note_on_c, 1, 61, 0
3, 94980, Note_on_c, 1, 62, 100
3, 95040, Note_on_c, 1, 62, 0
3, 95040, Note_on_c, 1, 64, 100
3, 95280, Note_on_c, 1, 64, 0
3, 95400, Note_on_c, 1, 64, 100
3, 95520, Note_on_c, 1, 64, 0
3, 95520, Note_on_c, 1, 69, 100
3, 95580, Note_on_c, 1, 69, 0
3, 95580, Note_on_c, 1, 67, 100
3, 95640, Note_on_c, 1, 67, 0
3, 95640, Note_on_c, 1, 66, 100
3, 95700, Note_on_c, 1, 66, 0
3, 95700, Note_on_c, 1, 64, 100
3, 95760, Note_on_c, 1, 64, 0
3, 95760, Note_on_c, 1, 62, 100
3, 95820, Note_on_c, 1, 62, 0
3, 95820, Note_on_c, 1, 61, 100
3, 95880, Note_on_c, 1, 61, 0
3, 95880, Note_on_c, 1, 59, 100
3, 95940, Note_on_c, 1, 59, 0
3, 95940, Note_on_c, 1, 57, 100
3, 96000, Note_on_c, 1, 57, 0
3, 96000, Note_on_c, 1, 62, 100
3, 96240, Note_on_c, 1, 62, 0
3, 96360, Note_on_c, 1, 62, 100
3, 96480, Note_on_c, 1, 62, 0
3, 96480, Note_on_c, 1, 67, 100
3, 96540, Note_on_c, 1, 67, 0
3, 96540, Note_on_c, 1, 66, 100
3, 96600, Note_on_c, 1, 66, 0
3, 96600, Note_on_c, 1, 64, 100
3, 96660, Note_on_c, 1, 64, 0
3, 96660, Note_on_c, 1, 62, 100
3, 96720, Note_on_c, 1, 62, 0
3, 96720, Note_on_c, 1, 60, 100
3, 96780, Note_on_c, 1, 60, 0
3, 96780, Note_on_c, 1, 59, 100
3, 96840, Note_on_c, 1, 59, 0
3, 96840, Note_on_c, 1, 57, 100
3, 96900, Note_on_c, 1, 57, 0
3, 96900, Note_on_c, 1, 55, 100
3, 96960, Note_on_c, 1, 55, 0
3, 96960, Note_on_c, 1, 61, 100
3, 97200, Note_on_c, 1, 61, 0
3, 97320, Note_on_c, 1, 61, 100
3, 97440, Note_on_c, 1, 61, 0
3, 97440, Note_on_c, 1, 66, 100
3, 97500, Note_on_c, 1, 66, 0
3, 97500, Note_on_c, 1, 64, 100
3, 97560, Note_on_c, 1, 64, 0
3, 97560, Note_on_c, 1, 62, 100
3, 97620, Note_on_c, 1, 62, 0
3, 97620, Note_on_c, 1, 61, 100
3, 97680, Note_on_c, 1, 61, 0
3, 97680, Note_on_c, 1, 59, 100
3, 97740, Note_on_c, 1, 59, 0
3, 97740, Note_on_c, 1, 58, 100
3, 97800, Note_on_c, 1, 58, 0
3, 97800, Note_on_c, 1, 56, 100
3, 97860, Note_on_c, 1, 56, 0
3, 97860, Note_on_c, 1, 54, 100
3, 97920, Note_on_c, 1, 54, 0
3, 97920, Note_on_c, 1, 59, 100
3, 98040, Note_on_c, 1, 59, 0
3, 98040, Note_on_c, 1, 62, 100
3, 98160, Note_on_c, 1, 62, 0
3, 98160, Note_on_c, 1, 64, 100
3, 98280, Note_on_c, 1, 64, 0
3, 98280, Note_on_c, 1, 52, 100
3, 98400, Note_on_c, 1, 52, 0
3, 98400, Note_on_c, 1, 57, 100
3, 98520, Note_on_c, 1, 57, 0
3, 98520, Note_on_c, 1, 60, 100
3, 98640, Note_on_c, 1, 60, 0
3, 98640, Note_on_c, 1, 62, 100
3, 98760, Note_on_c, 1, 62, 0
3, 98760, Note_on_c, 1, 50, 100
3, 98880, Note_on_c, 1, 50, 0
3, 98940, Note_on_c, 1, 55, 100
3, 99000, Note_on_c, 1, 55, 0
3, 99000, Note_on_c, 1, 59, 100
3, 99060, Note_on_c, 1, 59, 0
3, 99060, Note_on_c, 1, 62, 100
3, 99120, Note_on_c, 1, 62, 0
3, 99120, Note_on_c, 1, 48, 100
3, 99180, Note_on_c, 1, 48, 0
3, 99180, Note_on_c, 1, 55, 100
3, 99240, Note_on_c, 1, 55, 0
3, 99240, Note_on_c, 1, 52, 100
3, 99300, Note_on_c, 1, 52, 0
3, 99300, Note_on_c, 1, 48, 100
3, 99360, Note_on_c, 1, 48, 0
3, 99420, Note_on_c, 1, 54, 100
3, 99480, Note_on_c, 1, 54, 0
3, 99480, Note_on_c, 1, 57, 100
3, 99540, Note_on_c, 1, 57, 0
3, 99540, Note_on_c, 1, 60, 100
3, 99600, Note_on_c, 1, 60, 0
3, 99600, Note_on_c, 1, 47, 100
3, 99660, Note_on_c, 1, 47, 0
3, 99660, Note_on_c, 1, 54, 100
3, 99720, Note_on_c, 1, 54, 0
3, 99720, Note_on_c, 1, 51, 100
3, 99780, Note_on_c, 1, 51, 0
3, 99780, Note_on_c, 1, 47, 100
3, 99840, Note_on_c, 1, 47, 0
3, 99840, Note_on_c, 1, 52, 100
3, 99960, Note_on_c, 1, 52, 0
3, 99960, Note_on_c, 1, 40, 100
3, 100080, Note_on_c, 1, 40, 0
3, 100200, Note_on_c, 1, 52, 100
3, 100320, Note_on_c, 1, 52, 0
3, 100320, Note_on_c, 1, 56, 100
3, 100440, Note_on_c, 1, 56, 0
3, 100440, Note_on_c, 1, 59, 100
3, 100560, Note_on_c, 1, 59, 0
3, 100560, Note_on_c, 1, 56, 100
3, 100680, Note_on_c, 1, 56, 0
3, 100680, Note_on_c, 1, 52, 100
3, 100800, Note_on_c, 1, 52, 0
3, 100800, Note_on_c, 1, 57, 100
3, 100920, Note_on_c, 1, 57, 0
3, 100920, Note_on_c, 1, 45, 100
3, 101040, Note_on_c, 1, 45, 0
3, 101280, Note_on_c, 1, 55, 100
3, 101340, Note_on_c, 1, 55, 0
3, 101340, Note_on_c, 1, 64, 100
3, 101400, Note_on_c, 1, 64, 0
3, 101400, Note_on_c, 1, 61, 100
3, 101460, Note_on_c, 1, 61, 0
3, 101460, Note_on_c, 1, 55, 100
3, 101520, Note_on_c, 1, 55, 0
3, 101520, Note_on_c, 1, 64, 100
3, 101580, Note_on_c, 1, 64, 0
3, 101580, Note_on_c, 1, 58, 100
3, 101640, Note_on_c, 1, 58, 0
3, 101640, Note_on_c, 1, 57, 100
3, 101700, Note_on_c, 1, 57, 0
3, 101700, Note_on_c, 1, 55, 100
3, 101760, Note_on_c, 1, 55, 0
3, 101760, Note_on_c, 1, 54, 100
3, 101820, Note_on_c, 1, 54, 0
3, 101820, Note_on_c, 1, 55, 100
3, 101880, Note_on_c, 1, 55, 0
3, 101880, Note_on_c, 1, 57, 100
3, 101940, Note_on_c, 1, 57, 0
3, 101940, Note_on_c, 1, 54, 100
3, 102000, Note_on_c, 1, 54, 0
3, 102000, Note_on_c, 1, 50, 100
3, 102060, Note_on_c, 1, 57, 100
3, 102120, Note_on_c, 1, 57, 0
3, 102120, Note_on_c, 1, 50, 0
3, 102120, Note_on_c, 1, 54, 100
3, 102180, Note_on_c, 1, 54, 0
3, 102180, Note_on_c, 1, 50, 100
3, 102240, Note_on_c, 1, 50, 0
3, 102240, Note_on_c, 1, 48, 100
3, 102300, Note_on_c, 1, 48, 0
3, 102300, Note_on_c, 1, 57, 100
3, 102360, Note_on_c, 1, 57, 0
3, 102360, Note_on_c, 1, 54, 100
3, 102420, Note_on_c, 1, 54, 0
3, 102420, Note_on_c, 1, 48, 100
3, 102480, Note_on_c, 1, 48, 0
3, 102480, Note_on_c, 1, 57, 100
3, 102540, Note_on_c, 1, 57, 0
3, 102540, Note_on_c, 1, 51, 100
3, 102600, Note_on_c, 1, 51, 0
3, 102600, Note_on_c, 1, 50, 100
3, 102660, Note_on_c, 1, 50, 0
3, 102660, Note_on_c, 1, 48, 100
3, 102720, Note_on_c, 1, 48, 0
3, 102720, Note_on_c, 1, 47, 100
3, 102840, Note_on_c, 1, 55, 100
3, 102960, Note_on_c, 1, 55, 0
3, 102960, Note_on_c, 1, 47, 0
3, 102960, Note_on_c, 1, 49, 100
3, 103020, Note_on_c, 1, 55, 100
3, 103080, Note_on_c, 1, 55, 0
3, 103080, Note_on_c, 1, 54, 100
3, 103140, Note_on_c, 1, 54, 0
3, 103140, Note_on_c, 1, 52, 100
3, 103200, Note_on_c, 1, 52, 0
3, 103200, Note_on_c, 1, 49, 0
3, 103200, Note_on_c, 1, 57, 100
3, 103320, Note_on_c, 1, 57, 0
3, 103320, Note_on_c, 1, 54, 100
3, 103440, Note_on_c, 1, 54, 0
3, 103440, Note_on_c, 1, 47, 100
3, 103500, Note_on_c, 1, 54, 100
3, 103560, Note_on_c, 1, 54, 0
3, 103560, Note_on_c, 1, 47, 0
3, 103560, Note_on_c, 1, 52, 100
3, 103620, Note_on_c, 1, 52, 0
3, 103620, Note_on_c, 1, 50, 100
3, 103680, Note_on_c, 1, 50, 0
3, 103680, Note_on_c, 1, 55, 100
3, 103800, Note_on_c, 1, 55, 0
3, 103800, Note_on_c, 1, 52, 100
3, 103920, Note_on_c, 1, 52, 0
3, 103920, Note_on_c, 1, 45, 100
3, 103980, Note_on_c, 1, 52, 100
3, 104040, Note_on_c, 1, 52, 0
3, 104040, Note_on_c, 1, 45, 0
3, 104040, Note_on_c, 1, 50, 100
3, 104100, Note_on_c, 1, 50, 0
3, 104100, Note_on_c, 1, 49, 100
3, 104160, Note_on_c, 1, 49, 0
3, 104160, Note_on_c, 1, 42, 100
3, 104280, Note_on_c, 1, 50, 100
3, 104340, Note_on_c, 1, 50, 0
3, 104340, Note_on_c, 1, 52, 100
3, 104400, Note_on_c, 1, 52, 0
3, 104400, Note_on_c, 1, 42, 0
3, 104400, Note_on_c, 1, 54, 100
3, 104520, Note_on_c, 1, 54, 0
3, 104520, Note_on_c, 1, 50, 100
3, 104640, Note_on_c, 1, 50, 0
3, 104640, Note_on_c, 1, 43, 100
3, 104760, Note_on_c, 1, 52, 100
3, 104820, Note_on_c, 1, 52, 0
3, 104820, Note_on_c, 1, 54, 100
3, 104880, Note_on_c, 1, 54, 0
3, 104880, Note_on_c, 1, 43, 0
3, 104880, Note_on_c, 1, 55, 100
3, 105000, Note_on_c, 1, 55, 0
3, 105000, Note_on_c, 1, 52, 100
3, 105120, Note_on_c, 1, 52, 0
3, 105120, Note_on_c, 1, 45, 100
3, 105240, Note_on_c, 1, 54, 100
3, 105300, Note_on_c, 1, 54, 0
3, 105300, Note_on_c, 1, 55, 100
3, 105360, Note_on_c, 1, 55, 0
3, 105360, Note_on_c, 1, 45, 0
3, 105360, Note_on_c, 1, 57, 100
3, 105480, Note_on_c, 1, 57, 0
3, 105480, Note_on_c, 1, 54, 100
3, 105600, Note_on_c, 1, 54, 0
3, 105600, Note_on_c, 1, 47, 100
3, 105720, Note_on_c, 1, 55, 100
3, 105780, Note_on_c, 1, 55, 0
3, 105780, Note_on_c, 1, 57, 100
3, 105840, Note_on_c, 1, 57, 0
3, 105840, Note_on_c, 1, 47, 0
3, 105840, Note_on_c, 1, 59, 100
3, 105960, Note_on_c, 1, 59, 0
3, 105960, Note_on_c, 1, 55, 100
3, 106080, Note_on_c, 1, 55, 0
3, 106080, Note_on_c, 1, 45, 100
3, 106200, Note_on_c, 1, 55, 100
3, 106260, Note_on_c, 1, 55, 0
3, 106260, Note_on_c, 1, 54, 100
3, 106320, Note_on_c, 1, 54, 0
3, 106320, Note_on_c, 1, 45, 0
3, 106320, Note_on_c, 1, 52, 100
3, 106440, Note_on_c, 1, 52, 0
3, 106440, Note_on_c, 1, 55, 100
3, 106560, Note_on_c, 1, 55, 0
3, 106560, Note_on_c, 1, 45, 100
3, 106680, Note_on_c, 1, 54, 100
3, 106740, Note_on_c, 1, 54, 0
3, 106740, Note_on_c, 1, 52, 100
3, 106800, Note_on_c, 1, 52, 0
3, 106800, Note_on_c, 1, 45, 0
3, 106800, Note_on_c, 1, 50, 100
3, 106920, Note_on_c, 1, 50, 0
3, 106920, Note_on_c, 1, 54, 100
3, 107040, Note_on_c, 1, 54, 0
3, 107040, Note_on_c, 1, 45, 100
3, 107160, Note_on_c, 1, 52, 100
3, 107220, Note_on_c, 1, 52, 0
3, 107220, Note_on_c, 1, 50, 100
3, 107280, Note_on_c, 1, 50, 0
3, 107280, Note_on_c, 1, 45, 0
3, 107280, Note_on_c, 1, 49, 100
3, 107400, Note_on_c, 1, 49, 0
3, 107400, Note_on_c, 1, 52, 100
3, 107520, Note_on_c, 1, 52, 0
3, 107520, Note_on_c, 1, 45, 100
3, 107640, Note_on_c, 1, 45, 0
3, 107640, Note_on_c, 1, 50, 100
3, 107670, Note_on_c, 1, 50, 0
3, 107670, Note_on_c, 1, 49, 100
3, 107700, Note_on_c, 1, 49, 0
3, 107700, Note_on_c, 1, 50, 100
3, 107760, Note_on_c, 1, 50, 0
3, 107760, Note_on_c, 1, 45, 100
3, 107880, Note_on_c, 1, 45, 0
3, 107880, Note_on_c, 1, 52, 100
3, 107910, Note_on_c, 1, 52, 0
3, 107910, Note_on_c, 1, 50, 100
3, 107940, Note_on_c, 1, 50, 0
3, 107940, Note_on_c, 1, 52, 100
3, 108000, Note_on_c, 1, 52, 0
3, 108000, Note_on_c, 1, 45, 100
3, 108120, Note_on_c, 1, 45, 0
3, 108120, Note_on_c, 1, 54, 100
3, 108150, Note_on_c, 1, 54, 0
3, 108150, Note_on_c, 1, 52, 100
3, 108180, Note_on_c, 1, 52, 0
3, 108180, Note_on_c, 1, 54, 100
3, 108240, Note_on_c, 1, 54, 0
3, 108240, Note_on_c, 1, 45, 100
3, 108360, Note_on_c, 1, 45, 0
3, 108360, Note_on_c, 1, 55, 100
3, 108390, Note_on_c, 1, 55, 0
3, 108390, Note_on_c, 1, 54, 100
3, 108420, Note_on_c, 1, 54, 0
3, 108420, Note_on_c, 1, 55, 100
3, 108480, Note_on_c, 1, 55, 0
3, 108480, Note_on_c, 1, 57, 100
3, 108540, Note_on_c, 1, 55, 100
3, 108600, Note_on_c, 1, 55, 0
3, 108600, Note_on_c, 1, 57, 0
3, 108600, Note_on_c, 1, 54, 100
3, 108660, Note_on_c, 1, 54, 0
3, 108660, Note_on_c, 1, 55, 100
3, 108720, Note_on_c, 1, 55, 0
3, 108720, Note_on_c, 1, 57, 100
3, 108960, Note_on_c, 1, 57, 0
3, 108960, Note_on_c, 1, 57, 100
3, 109500, Note_on_c, 1, 57, 0
3, 109500, Note_on_c, 1, 62, 100
3, 109560, Note_on_c, 1, 62, 0
3, 109560, Note_on_c, 1, 64, 100
3, 109620, Note_on_c, 1, 64, 0
3, 109620, Note_on_c, 1, 66, 100
3, 109680, Note_on_c, 1, 66, 0
3, 109680, Note_on_c, 1, 64, 100
3, 109740, Note_on_c, 1, 64, 0
3, 109740, Note_on_c, 1, 62, 100
3, 109800, Note_on_c, 1, 62, 0
3, 109800, Note_on_c, 1, 61, 100
3, 109860, Note_on_c, 1, 61, 0
3, 109860, Note_on_c, 1, 59, 100
3, 109920, Note_on_c, 1, 59, 0
3, 109920, Note_on_c, 1, 57, 100
3, 110160, Note_on_c, 1, 57, 0
3, 110280, Note_on_c, 1, 57, 100
3, 110400, Note_on_c, 1, 57, 0
3, 110400, Note_on_c, 1, 59, 100
3, 110460, Note_on_c, 1, 59, 0
3, 110460, Note_on_c, 1, 57, 100
3, 110520, Note_on_c, 1, 57, 0
3, 110520, Note_on_c, 1, 59, 100
3, 110580, Note_on_c, 1, 59, 0
3, 110580, Note_on_c, 1, 62, 100
3, 110640, Note_on_c, 1, 62, 0
3, 110640, Note_on_c, 1, 61, 100
3, 110700, Note_on_c, 1, 61, 0
3, 110700, Note_on_c, 1, 62, 100
3, 110760, Note_on_c, 1, 62, 0
3, 110760, Note_on_c, 1, 61, 100
3, 110820, Note_on_c, 1, 61, 0
3, 110820, Note_on_c, 1, 59, 100
3, 110880, Note_on_c, 1, 59, 0
3, 110880, Note_on_c, 1, 57, 100
3, 110940, Note_on_c, 1, 57, 0
3, 110940, Note_on_c, 1, 55, 100
3, 111000, Note_on_c, 1, 55, 0
3, 111000, Note_on_c, 1, 54, 100
3, 111060, Note_on_c, 1, 54, 0
3, 111060, Note_on_c, 1, 52, 100
3, 111120, Note_on_c, 1, 52, 0
3, 111120, Note_on_c, 1, 50, 100
3, 111180, Note_on_c, 1, 50, 0
3, 111180, Note_on_c, 1, 52, 100
3, 111240, Note_on_c, 1, 52, 0
3, 111240, Note_on_c, 1, 54, 100
3, 111300, Note_on_c, 1, 54, 0
3, 111300, Note_on_c, 1, 55, 100
3, 111360, Note_on_c, 1, 55, 0
3, 111360, Note_on_c, 1, 57, 100
3, 111420, Note_on_c, 1, 57, 0
3, 111420, Note_on_c, 1, 55, 100
3, 111480, Note_on_c, 1, 55, 0
3, 111480, Note_on_c, 1, 57, 100
3, 111540, Note_on_c, 1, 57, 0
3, 111540, Note_on_c, 1, 59, 100
3, 111600, Note_on_c, 1, 59, 0
3, 111600, Note_on_c, 1, 57, 100
3, 111660, Note_on_c, 1, 57, 0
3, 111660, Note_on_c, 1, 55, 100
3, 111720, Note_on_c, 1, 55, 0
3, 111720, Note_on_c, 1, 54, 100
3, 111780, Note_on_c, 1, 54, 0
3, 111780, Note_on_c, 1, 52, 100
3, 111840, Note_on_c, 1, 52, 0
3, 111840, Note_on_c, 1, 50, 100
3, 111960, Note_on_c, 1, 50, 0
3, 112140, Note_on_c, 1, 57, 100
3, 112200, Note_on_c, 1, 57, 0
3, 112200, Note_on_c, 1, 62, 100
3, 112260, Note_on_c, 1, 62, 0
3, 112260, Note_on_c, 1, 66, 100
3, 112320, Note_on_c, 1, 66, 0
3, 112320, Note_on_c, 1, 67, 100
3, 112380, Note_on_c, 1, 67, 0
3, 112380, Note_on_c, 1, 64, 100
3, 112440, Note_on_c, 1, 64, 0
3, 112440, Note_on_c, 1, 66, 100
3, 112500, Note_on_c, 1, 66, 0
3, 112500, Note_on_c, 1, 67, 100
3, 112560, Note_on_c, 1, 67, 0
3, 112560, Note_on_c, 1, 69, 100
3, 112620, Note_on_c, 1, 69, 0
3, 112620, Note_on_c, 1, 67, 100
3, 112680, Note_on_c, 1, 67, 0
3, 112680, Note_on_c, 1, 66, 100
3, 112740, Note_on_c, 1, 66, 0
3, 112740, Note_on_c, 1, 64, 100
3, 112800, Note_on_c, 1, 64, 0
3, 112800, Note_on_c, 1, 62, 100
3, 112920, Note_on_c, 1, 62, 0
3, 112920, Note_on_c, 1, 67, 100
3, 113040, Note_on_c, 1, 67, 0
3, 113040, Note_on_c, 1, 67, 100
3, 113160, Note_on_c, 1, 67, 0
3, 113160, Note_on_c, 1, 67, 100
3, 113280, Note_on_c, 1, 67, 0
3, 113280, Note_on_c, 1, 67, 100
3, 113400, Note_on_c, 1, 67, 0
3, 113400, Note_on_c, 1, 66, 100
3, 113460, Note_on_c, 1, 66, 0
3, 113460, Note_on_c, 1, 64, 100
3, 113520, Note_on_c, 1, 64, 0
3, 113520, Note_on_c, 1, 66, 100
3, 113580, Note_on_c, 1, 66, 0
3, 113580, Note_on_c, 1, 64, 100
3, 113640, Note_on_c, 1, 64, 0
3, 113640, Note_on_c, 1, 62, 100
3, 113700, Note_on_c, 1, 62, 0
3, 113700, Note_on_c, 1, 66, 100
3, 113760, Note_on_c, 1, 66, 0
3, 113760, Note_on_c, 1, 64, 100
3, 113820, Note_on_c, 1, 64, 0
3, 113820, Note_on_c, 1, 62, 100
3, 113880, Note_on_c, 1, 62, 0
3, 113880, Note_on_c, 1, 60, 100
3, 113940, Note_on_c, 1, 60, 0
3, 113940, Note_on_c, 1, 64, 100
3, 114000, Note_on_c, 1, 64, 0
3, 114000, Note_on_c, 1, 62, 100
3, 114060, Note_on_c, 1, 62, 0
3, 114060, Note_on_c, 1, 65, 100
3, 114120, Note_on_c, 1, 65, 0
3, 114120, Note_on_c, 1, 64, 100
3, 114180, Note_on_c, 1, 64, 0
3, 114180, Note_on_c, 1, 67, 100
3, 114240, Note_on_c, 1, 67, 0
3, 114240, Note_on_c, 1, 65, 100
3, 114300, Note_on_c, 1, 65, 0
3, 114300, Note_on_c, 1, 62, 100
3, 114360, Note_on_c, 1, 62, 0
3, 114360, Note_on_c, 1, 64, 100
3, 114420, Note_on_c, 1, 64, 0
3, 114420, Note_on_c, 1, 65, 100
3, 114480, Note_on_c, 1, 65, 0
3, 114480, Note_on_c, 1, 67, 100
3, 114540, Note_on_c, 1, 67, 0
3, 114540, Note_on_c, 1, 65, 100
3, 114600, Note_on_c, 1, 65, 0
3, 114600, Note_on_c, 1, 64, 100
3, 114660, Note_on_c, 1, 64, 0
3, 114660, Note_on_c, 1, 62, 100
3, 114720, Note_on_c, 1, 62, 0
3, 114720, Note_on_c, 1, 60, 100
3, 114780, Note_on_c, 1, 60, 0
3, 114780, Note_on_c, 1, 59, 100
3, 114840, Note_on_c, 1, 59, 0
3, 114840, Note_on_c, 1, 60, 100
3, 114900, Note_on_c, 1, 60, 0
3, 114900, Note_on_c, 1, 62, 100
3, 114960, Note_on_c, 1, 62, 0
3, 114960, Note_on_c, 1, 60, 100
3, 115020, Note_on_c, 1, 60, 0
3, 115020, Note_on_c, 1, 64, 100
3, 115080, Note_on_c, 1, 64, 0
3, 115080, Note_on_c, 1, 62, 100
3, 115140, Note_on_c, 1, 62, 0
3, 115140, Note_on_c, 1, 60, 100
3, 115200, Note_on_c, 1, 60, 0
3, 115200, Note_on_c, 1, 59, 100
3, 115260, Note_on_c, 1, 59, 0
3, 115260, Note_on_c, 1, 62, 100
3, 115320, Note_on_c, 1, 62, 0
3, 115320, Note_on_c, 1, 56, 100
3, 115380, Note_on_c, 1, 56, 0
3, 115380, Note_on_c, 1, 59, 100
3, 115440, Note_on_c, 1, 59, 0
3, 115440, Note_on_c, 1, 60, 100
3, 115500, Note_on_c, 1, 60, 0
3, 115500, Note_on_c, 1, 64, 100
3, 115560, Note_on_c, 1, 64, 0
3, 115560, Note_on_c, 1, 62, 100
3, 115620, Note_on_c, 1, 62, 0
3, 115620, Note_on_c, 1, 59, 100
3, 115680, Note_on_c, 1, 59, 0
3, 115680, Note_on_c, 1, 64, 100
3, 115740, Note_on_c, 1, 64, 0
3, 115740, Note_on_c, 1, 62, 100
3, 115800, Note_on_c, 1, 62, 0
3, 115800, Note_on_c, 1, 60, 100
3, 115860, Note_on_c, 1, 60, 0
3, 115860, Note_on_c, 1, 62, 100
3, 115920, Note_on_c, 1, 62, 0
3, 115920, Note_on_c, 1, 64, 100
3, 115980, Note_on_c, 1, 64, 0
3, 115980, Note_on_c, 1, 60, 100
3, 116040, Note_on_c, 1, 60, 0
3, 116040, Note_on_c, 1, 59, 100
3, 116100, Note_on_c, 1, 59, 0
3, 116100, Note_on_c, 1, 57, 100
3, 116160, Note_on_c, 1, 57, 0
3, 116160, Note_on_c, 1, 64, 100
3, 116280, Note_on_c, 1, 64, 0
3, 116280, Note_on_c, 1, 59, 100
3, 116400, Note_on_c, 1, 59, 0
3, 116400, Note_on_c, 1, 64, 100
3, 116700, Note_on_c, 1, 64, 0
3, 116700, Note_on_c, 1, 64, 100
3, 116760, Note_on_c, 1, 64, 0
3, 116760, Note_on_c, 1, 68, 100
3, 116820, Note_on_c, 1, 68, 0
3, 116820, Note_on_c, 1, 64, 100
3, 116880, Note_on_c, 1, 64, 0
3, 116880, Note_on_c, 1, 69, 100
3, 117180, Note_on_c, 1, 69, 0
3, 117180, Note_on_c, 1, 69, 100
3, 117240, Note_on_c, 1, 69, 0
3, 117240, Note_on_c, 1, 65, 100
3, 117300, Note_on_c, 1, 65, 0
3, 117300, Note_on_c, 1, 69, 100
3, 117360, Note_on_c, 1, 69, 0
3, 117360, Note_on_c, 1, 62, 100
3, 117660, Note_on_c, 1, 62, 0
3, 117660, Note_on_c, 1, 66, 100
3, 117720, Note_on_c, 1, 66, 0
3, 117720, Note_on_c, 1, 59, 100
3, 117780, Note_on_c, 1, 59, 0
3, 117780, Note_on_c, 1, 62, 100
3, 117840, Note_on_c, 1, 62, 0
3, 117840, Note_on_c, 1, 60, 100
3, 118200, Note_on_c, 1, 60, 0
3, 118200, Note_on_c, 1, 66, 100
3, 118320, Note_on_c, 1, 66, 0
3, 118320, Note_on_c, 1, 64, 100
3, 118680, Note_on_c, 1, 64, 0
3, 118680, Note_on_c, 1, 64, 100
3, 118800, Note_on_c, 1, 64, 0
3, 118800, Note_on_c, 1, 69, 100
3, 118920, Note_on_c, 1, 69, 0
3, 118920, Note_on_c, 1, 69, 100
3, 119040, Note_on_c, 1, 69, 0
3, 119040, Note_on_c, 1, 69, 100
3, 119160, Note_on_c, 1, 69, 0
3, 119160, Note_on_c, 1, 67, 100
3, 119220, Note_on_c, 1, 67, 0
3, 119220, Note_on_c, 1, 66, 100
3, 119280, Note_on_c, 1, 66, 0
3, 119280, Note_on_c, 1, 67, 100
3, 119400, Note_on_c, 1, 67, 0
3, 119400, Note_on_c, 1, 67, 100
3, 119520, Note_on_c, 1, 67, 0
3, 119520, Note_on_c, 1, 67, 100
3, 119640, Note_on_c, 1, 67, 0
3, 119640, Note_on_c, 1, 66, 100
3, 119700, Note_on_c, 1, 66, 0
3, 119700, Note_on_c, 1, 64, 100
3, 119760, Note_on_c, 1, 64, 0
3, 119760, Note_on_c, 1, 66, 100
3, 119880, Note_on_c, 1, 66, 0
3, 119880, Note_on_c, 1, 71, 100
3, 120000, Note_on_c, 1, 71, 0
3, 120000, Note_on_c, 1, 67, 100
3, 120120, Note_on_c, 1, 67, 0
3, 120120, Note_on_c, 1, 64, 100
3, 120240, Note_on_c, 1, 64, 0
3, 120240, Note_on_c, 1, 69, 100
3, 120360, Note_on_c, 1, 69, 0
3, 120360, Note_on_c, 1, 66, 100
3, 120480, Note_on_c, 1, 66, 0
3, 120480, Note_on_c, 1, 62, 100
3, 120600, Note_on_c, 1, 62, 0
3, 120600, Note_on_c, 1, 67, 100
3, 120660, Note_on_c, 1, 67, 0
3, 120660, Note_on_c, 1, 66, 100
3, 120720, Note_on_c, 1, 66, 0
3, 120720, Note_on_c, 1, 67, 100
3, 120840, Note_on_c, 1, 67, 0
3, 120840, Note_on_c, 1, 67, 100
3, 120960, Note_on_c, 1, 67, 0
3, 120960, Note_on_c, 1, 64, 100
3, 121080, Note_on_c, 1, 64, 0
3, 121080, Note_on_c, 1, 60, 100
3, 121200, Note_on_c, 1, 60, 0
3, 121200, Note_on_c, 1, 59, 100
3, 121320, Note_on_c, 1, 59, 0
3, 121320, Note_on_c, 1, 55, 100
3, 121440, Note_on_c, 1, 55, 0
3, 121440, Note_on_c, 1, 55, 100
3, 121560, Note_on_c, 1, 55, 0
3, 121560, Note_on_c, 1, 55, 100
3, 121680, Note_on_c, 1, 55, 0
3, 121680, Note_on_c, 1, 60, 100
3, 122040, Note_on_c, 1, 60, 0
3, 122040, Note_on_c, 1, 59, 100
3, 122100, Note_on_c, 1, 59, 0
3, 122100, Note_on_c, 1, 57, 100
3, 122160, Note_on_c, 1, 57, 0
3, 122160, Note_on_c, 1, 59, 100
3, 122280, Note_on_c, 1, 59, 0
3, 122280, Note_on_c, 1, 58, 100
3, 122400, Note_on_c, 1, 58, 0
3, 122400, Note_on_c, 1, 57, 100
3, 122460, Note_on_c, 1, 57, 0
3, 122460, Note_on_c, 1, 55, 100
3, 122520, Note_on_c, 1, 55, 0
3, 122520, Note_on_c, 1, 57, 100
3, 122580, Note_on_c, 1, 57, 0
3, 122580, Note_on_c, 1, 58, 100
3, 122640, Note_on_c, 1, 58, 0
3, 122640, Note_on_c, 1, 57, 100
3, 122700, Note_on_c, 1, 57, 0
3, 122700, Note_on_c, 1, 55, 100
3, 122760, Note_on_c, 1, 55, 0
3, 122760, Note_on_c, 1, 54, 100
3, 122820, Note_on_c, 1, 54, 0
3, 122820, Note_on_c, 1, 52, 100
3, 122880, Note_on_c, 1, 52, 0
3, 122880, Note_on_c, 1, 50, 100
3, 122940, Note_on_c, 1, 50, 0
3, 122940, Note_on_c, 1, 54, 100
3, 123000, Note_on_c, 1, 54, 0
3, 123000, Note_on_c, 1, 55, 100
3, 123060, Note_on_c, 1, 55, 0
3, 123060, Note_on_c, 1, 57, 100
3, 123120, Note_on_c, 1, 57, 0
3, 123120, Note_on_c, 1, 58, 100
3, 123180, Note_on_c, 1, 58, 0
3, 123180, Note_on_c, 1, 55, 100
3, 123240, Note_on_c, 1, 55, 0
3, 123240, Note_on_c, 1, 57, 100
3, 123300, Note_on_c, 1, 57, 0
3, 123300, Note_on_c, 1, 58, 100
3, 123360, Note_on_c, 1, 58, 0
3, 123360, Note_on_c, 1, 60, 100
3, 123900, Note_on_c, 1, 60, 0
3, 123900, Note_on_c, 1, 63, 100
3, 123960, Note_on_c, 1, 63, 0
3, 123960, Note_on_c, 1, 62, 100
3, 124020, Note_on_c, 1, 62, 0
3, 124020, Note_on_c, 1, 60, 100
3, 124080, Note_on_c, 1, 60, 0
3, 124080, Note_on_c, 1, 59, 100
3, 124140, Note_on_c, 1, 59, 0
3, 124140, Note_on_c, 1, 62, 100
3, 124200, Note_on_c, 1, 62, 0
3, 124200, Note_on_c, 1, 60, 100
3, 124260, Note_on_c, 1, 60, 0
3, 124260, Note_on_c, 1, 59, 100
3, 124320, Note_on_c, 1, 59, 0
3, 124320, Note_on_c, 1, 57, 100
3, 124560, Note_on_c, 1, 57, 0
3, 124560, Note_on_c, 1, 62, 100
3, 124800, Note_on_c, 1, 62, 0
3, 124800, Note_on_c, 1, 62, 100
3, 125040, Note_on_c, 1, 62, 0
3, 125160, Note_on_c, 1, 55, 100
3, 125160, Note_on_c, 1, 59, 100
3, 125280, Note_on_c, 1, 59, 0
3, 125280, Note_on_c, 1, 55, 0
3, 125280, Note_on_c, 1, 55, 100
3, 125280, Note_on_c, 1, 60, 100
3, 125520, Note_on_c, 1, 60, 0
3, 125520, Note_on_c, 1, 55, 0
3, 125640, Note_on_c, 1, 60, 100
3, 125760, Note_on_c, 1, 60, 0
3, 125760, Note_on_c, 1, 57, 100
3, 126000, Note_on_c, 1, 57, 0
3, 126000, Note_on_c, 1, 57, 100
3, 126060, Note_on_c, 1, 57, 0
3, 126060, Note_on_c, 1, 60, 100
3, 126120, Note_on_c, 1, 60, 0
3, 126120, Note_on_c, 1, 58, 100
3, 126180, Note_on_c, 1, 58, 0
3, 126180, Note_on_c, 1, 57, 100
3, 126240, Note_on_c, 1, 57, 0
3, 126240, Note_on_c, 1, 55, 100
3, 126300, Note_on_c, 1, 55, 0
3, 126300, Note_on_c, 1, 53, 100
3, 126360, Note_on_c, 1, 53, 0
3, 126360, Note_on_c, 1, 51, 100
3, 126420, Note_on_c, 1, 51, 0
3, 126420, Note_on_c, 1, 55, 100
3, 126480, Note_on_c, 1, 55, 0
3, 126480, Note_on_c, 1, 50, 100
3, 126540, Note_on_c, 1, 50, 0
3, 126540, Note_on_c, 1, 54, 100
3, 126600, Note_on_c, 1, 54, 0
3, 126600, Note_on_c, 1, 51, 100
3, 126660, Note_on_c, 1, 51, 0
3, 126660, Note_on_c, 1, 50, 100
3, 126720, Note_on_c, 1, 50, 0
3, 126720, Note_on_c, 1, 49, 100
3, 126960, Note_on_c, 1, 49, 0
3, 127200, Note_on_c, 1, 57, 100
3, 127200, Note_on_c, 1, 50, 100
3, 127320, Note_on_c, 1, 50, 0
3, 127320, Note_on_c, 1, 57, 0
3, 127680, Note_on_c, 1, 59, 100
3, 127740, Note_on_c, 1, 59, 0
3, 127740, Note_on_c, 1, 57, 100
3, 127800, Note_on_c, 1, 57, 0
3, 127800, Note_on_c, 1, 59, 100
3, 127860, Note_on_c, 1, 59, 0
3, 127860, Note_on_c, 1, 60, 100
3, 127920, Note_on_c, 1, 60, 0
3, 127920, Note_on_c, 1, 59, 100
3, 127980, Note_on_c, 1, 59, 0
3, 127980, Note_on_c, 1, 60, 100
3, 128040, Note_on_c, 1, 60, 0
3, 128040, Note_on_c, 1, 57, 100
3, 128100, Note_on_c, 1, 57, 0
3, 128100, Note_on_c, 1, 59, 100
3, 128160, Note_on_c, 1, 59, 0
3, 128160, Note_on_c, 1, 60, 100
3, 128220, Note_on_c, 1, 60, 0
3, 128220, Note_on_c, 1, 59, 100
3, 128280, Note_on_c, 1, 59, 0
3, 128280, Note_on_c, 1, 60, 100
3, 128340, Note_on_c, 1, 60, 0
3, 128340, Note_on_c, 1, 62, 100
3, 128400, Note_on_c, 1, 62, 0
3, 128400, Note_on_c, 1, 60, 100
3, 128460, Note_on_c, 1, 60, 0
3, 128460, Note_on_c, 1, 62, 100
3, 128520, Note_on_c, 1, 62, 0
3, 128520, Note_on_c, 1, 59, 100
3, 128580, Note_on_c, 1, 59, 0
3, 128580, Note_on_c, 1, 60, 100
3, 128640, Note_on_c, 1, 60, 0
3, 128640, Note_on_c, 1, 62, 100
3, 128700, Note_on_c, 1, 62, 0
3, 128700, Note_on_c, 1, 60, 100
3, 128760, Note_on_c, 1, 60, 0
3, 128760, Note_on_c, 1, 62, 100
3, 128820, Note_on_c, 1, 62, 0
3, 128820, Note_on_c, 1, 64, 100
3, 128880, Note_on_c, 1, 64, 0
3, 128880, Note_on_c, 1, 62, 100
3, 128940, Note_on_c, 1, 62, 0
3, 128940, Note_on_c, 1, 64, 100
3, 129000, Note_on_c, 1, 64, 0
3, 129000, Note_on_c, 1, 60, 100
3, 129060, Note_on_c, 1, 60, 0
3, 129060, Note_on_c, 1, 62, 100
3, 129120, Note_on_c, 1, 62, 0
3, 129120, Note_on_c, 1, 64, 100
3, 129180, Note_on_c, 1, 64, 0
3, 129180, Note_on_c, 1, 62, 100
3, 129240, Note_on_c, 1, 62, 0
3, 129240, Note_on_c, 1, 64, 100
3, 129300, Note_on_c, 1, 64, 0
3, 129300, Note_on_c, 1, 66, 100
3, 129360, Note_on_c, 1, 66, 0
3, 129360, Note_on_c, 1, 64, 100
3, 129420, Note_on_c, 1, 64, 0
3, 129420, Note_on_c, 1, 66, 100
3, 129480, Note_on_c, 1, 66, 0
3, 129480, Note_on_c, 1, 62, 100
3, 129540, Note_on_c, 1, 62, 0
3, 129540, Note_on_c, 1, 64, 100
3, 129600, Note_on_c, 1, 64, 0
3, 129600, Note_on_c, 1, 66, 100
3, 129660, Note_on_c, 1, 66, 0
3, 129660, Note_on_c, 1, 69, 100
3, 129720, Note_on_c, 1, 69, 0
3, 129720, Note_on_c, 1, 67, 100
3, 129780, Note_on_c, 1, 67, 0
3, 129780, Note_on_c, 1, 66, 100
3, 129840, Note_on_c, 1, 66, 0
3, 129840, Note_on_c, 1, 64, 100
3, 129900, Note_on_c, 1, 64, 0
3, 129900, Note_on_c, 1, 62, 100
3, 129960, Note_on_c, 1, 62, 0
3, 129960, Note_on_c, 1, 60, 100
3, 130020, Note_on_c, 1, 60, 0
3, 130020, Note_on_c, 1, 59, 100
3, 130080, Note_on_c, 1, 59, 0
3, 130080, Note_on_c, 1, 60, 100
3, 130140, Note_on_c, 1, 60, 0
3, 130140, Note_on_c, 1, 59, 100
3, 130200, Note_on_c, 1, 59, 0
3, 130200, Note_on_c, 1, 60, 100
3, 130260, Note_on_c, 1, 60, 0
3, 130260, Note_on_c, 1, 62, 100
3, 130320, Note_on_c, 1, 62, 0
3, 130320, Note_on_c, 1, 60, 100
3, 130380, Note_on_c, 1, 60, 0
3, 130380, Note_on_c, 1, 64, 100
3, 130440, Note_on_c, 1, 64, 0
3, 130440, Note_on_c, 1, 62, 100
3, 130500, Note_on_c, 1, 62, 0
3, 130500, Note_on_c, 1, 60, 100
3, 130560, Note_on_c, 1, 60, 0
3, 130560, Note_on_c, 1, 59, 100
3, 130620, Note_on_c, 1, 59, 0
3, 130620, Note_on_c, 1, 57, 100
3, 130680, Note_on_c, 1, 57, 0
3, 130680, Note_on_c, 1, 59, 100
3, 130740, Note_on_c, 1, 59, 0
3, 130740, Note_on_c, 1, 60, 100
3, 130800, Note_on_c, 1, 60, 0
3, 130800, Note_on_c, 1, 59, 100
3, 130860, Note_on_c, 1, 59, 0
3, 130860, Note_on_c, 1, 60, 100
3, 130920, Note_on_c, 1, 60, 0
3, 130920, Note_on_c, 1, 57, 100
3, 130980, Note_on_c, 1, 57, 0
3, 130980, Note_on_c, 1, 59, 100
3, 131040, Note_on_c, 1, 59, 0
3, 131040, Note_on_c, 1, 61, 100
3, 131100, Note_on_c, 1, 61, 0
3, 131100, Note_on_c, 1, 59, 100
3, 131160, Note_on_c, 1, 59, 0
3, 131160, Note_on_c, 1, 61, 100
3, 131220, Note_on_c, 1, 61, 0
3, 131220, Note_on_c, 1, 62, 100
3, 131280, Note_on_c, 1, 62, 0
3, 131280, Note_on_c, 1, 61, 100
3, 131340, Note_on_c, 1, 61, 0
3, 131340, Note_on_c, 1, 62, 100
3, 131400, Note_on_c, 1, 62, 0
3, 131400, Note_on_c, 1, 59, 100
3, 131460, Note_on_c, 1, 59, 0
3, 131460, Note_on_c, 1, 61, 100
3, 131520, Note_on_c, 1, 61, 0
3, 131520, Note_on_c, 1, 62, 100
3, 131580, Note_on_c, 1, 62, 0
3, 131580, Note_on_c, 1, 61, 100
3, 131640, Note_on_c, 1, 61, 0
3, 131640, Note_on_c, 1, 62, 100
3, 131700, Note_on_c, 1, 62, 0
3, 131700, Note_on_c, 1, 64, 100
3, 131760, Note_on_c, 1, 64, 0
3, 131760, Note_on_c, 1, 62, 100
3, 131820, Note_on_c, 1, 62, 0
3, 131820, Note_on_c, 1, 64, 100
3, 131880, Note_on_c, 1, 64, 0
3, 131880, Note_on_c, 1, 66, 100
3, 131940, Note_on_c, 1, 66, 0
3, 131940, Note_on_c, 1, 62, 100
3, 132000, Note_on_c, 1, 62, 0
3, 132000, Note_on_c, 1, 67, 100
3, 132540, Note_on_c, 1, 67, 0
3, 132540, Note_on_c, 1, 67, 100
3, 132600, Note_on_c, 1, 67, 0
3, 132600, Note_on_c, 1, 69, 100
3, 132660, Note_on_c, 1, 69, 0
3, 132660, Note_on_c, 1, 71, 100
3, 132720, Note_on_c, 1, 71, 0
3, 132720, Note_on_c, 1, 72, 100
3, 132840, Note_on_c, 1, 72, 0
3, 132840, Note_on_c, 1, 72, 100
3, 132960, Note_on_c, 1, 72, 0
3, 132960, Note_on_c, 1, 72, 100
3, 133080, Note_on_c, 1, 72, 0
3, 133080, Note_on_c, 1, 71, 100
3, 133140, Note_on_c, 1, 71, 0
3, 133140, Note_on_c, 1, 69, 100
3, 133200, Note_on_c, 1, 69, 0
3, 133200, Note_on_c, 1, 67, 100
3, 133320, Note_on_c, 1, 67, 0
3, 133320, Note_on_c, 1, 71, 100
3, 133560, Note_on_c, 1, 71, 0
3, 133560, Note_on_c, 1, 72, 100
3, 133620, Note_on_c, 1, 72, 0
3, 133620, Note_on_c, 1, 71, 100
3, 133680, Note_on_c, 1, 71, 0
3, 133680, Note_on_c, 1, 69, 100
3, 133920, Note_on_c, 1, 69, 0
3, 133920, Note_on_c, 1, 67, 100
3, 134040, Note_on_c, 1, 55, 100
3, 134160, Note_on_c, 1, 55, 0
3, 134160, Note_on_c, 1, 67, 0
3, 134160, Note_on_c, 1, 55, 100
3, 134280, Note_on_c, 1, 55, 0
3, 134280, Note_on_c, 1, 55, 100
3, 134280, Note_on_c, 1, 62, 100
3, 134400, Note_on_c, 1, 62, 0
3, 134400, Note_on_c, 1, 55, 0
3, 134400, Note_on_c, 1, 60, 100
3, 134400, Note_on_c, 1, 64, 100
3, 134520, Note_on_c, 1, 60, 0
3, 134520, Note_on_c, 1, 60, 100
3, 134640, Note_on_c, 1, 60, 0
3, 134640, Note_on_c, 1, 64, 0
3, 134640, Note_on_c, 1, 60, 100
3, 134760, Note_on_c, 1, 60, 0
3, 134760, Note_on_c, 1, 60, 100
3, 134760, Note_on_c, 1, 64, 100
3, 134880, Note_on_c, 1, 64, 0
3, 134880, Note_on_c, 1, 60, 0
3, 134880, Note_on_c, 1, 60, 100
3, 134880, Note_on_c, 1, 65, 100
3, 135000, Note_on_c, 1, 60, 0
3, 135000, Note_on_c, 1, 59, 100
3, 135060, Note_on_c, 1, 59, 0
3, 135060, Note_on_c, 1, 57, 100
3, 135120, Note_on_c, 1, 57, 0
3, 135120, Note_on_c, 1, 65, 0
3, 135120, Note_on_c, 1, 59, 100
3, 135240, Note_on_c, 1, 59, 0
3, 135240, Note_on_c, 1, 55, 100
3, 135240, Note_on_c, 1, 65, 100
3, 135360, Note_on_c, 1, 65, 0
3, 135360, Note_on_c, 1, 55, 0
3, 135360, Note_on_c, 1, 64, 100
3, 135360, Note_on_c, 1, 67, 100
3, 135480, Note_on_c, 1, 64, 0
3, 135480, Note_on_c, 1, 64, 100
3, 135600, Note_on_c, 1, 64, 0
3, 135600, Note_on_c, 1, 64, 100
3, 135660, Note_on_c, 1, 67, 0
3, 135660, Note_on_c, 1, 69, 100
3, 135720, Note_on_c, 1, 69, 0
3, 135720, Note_on_c, 1, 64, 0
3, 135720, Note_on_c, 1, 64, 100
3, 135720, Note_on_c, 1, 67, 100
3, 135780, Note_on_c, 1, 67, 0
3, 135780, Note_on_c, 1, 66, 100
3, 135840, Note_on_c, 1, 66, 0
3, 135840, Note_on_c, 1, 64, 0
3, 135840, Note_on_c, 1, 64, 100
3, 135840, Note_on_c, 1, 67, 100
3, 135960, Note_on_c, 1, 64, 0
3, 135960, Note_on_c, 1, 62, 100
3, 136020, Note_on_c, 1, 62, 0
3, 136020, Note_on_c, 1, 60, 100
3, 136080, Note_on_c, 1, 60, 0
3, 136080, Note_on_c, 1, 62, 100
3, 136200, Note_on_c, 1, 62, 0
3, 136200, Note_on_c, 1, 62, 100
3, 136320, Note_on_c, 1, 62, 0
3, 136320, Note_on_c, 1, 67, 0
3, 136320, Note_on_c, 1, 62, 100
3, 136320, Note_on_c, 1, 67, 100
3, 136440, Note_on_c, 1, 67, 0
3, 136440, Note_on_c, 1, 62, 0
3, 136440, Note_on_c, 1, 55, 100
3, 136440, Note_on_c, 1, 71, 100
3, 136560, Note_on_c, 1, 71, 0
3, 136560, Note_on_c, 1, 55, 0
3, 136560, Note_on_c, 1, 60, 100
3, 136560, Note_on_c, 1, 72, 100
3, 136800, Note_on_c, 1, 72, 0
3, 136800, Note_on_c, 1, 67, 100
3, 136920, Note_on_c, 1, 60, 0
3, 136920, Note_on_c, 1, 62, 100
3, 136980, Note_on_c, 1, 62, 0
3, 136980, Note_on_c, 1, 60, 100
3, 137040, Note_on_c, 1, 60, 0
3, 137040, Note_on_c, 1, 62, 100
3, 137040, Note_on_c, 1, 59, 100
3, 137100, Note_on_c, 1, 59, 0
3, 137100, Note_on_c, 1, 60, 100
3, 137160, Note_on_c, 1, 60, 0
3, 137160, Note_on_c, 1, 57, 100
3, 137220, Note_on_c, 1, 57, 0
3, 137220, Note_on_c, 1, 59, 100
3, 137280, Note_on_c, 1, 59, 0
3, 137280, Note_on_c, 1, 62, 0
3, 137280, Note_on_c, 1, 67, 0
3, 137280, Note_on_c, 1, 60, 100
3, 137280, Note_on_c, 1, 63, 100
3, 137280, Note_on_c, 1, 69, 100
3, 137760, Note_on_c, 1, 69, 0
3, 137760, Note_on_c, 1, 63, 0
3, 137760, Note_on_c, 1, 60, 0
3, 137760, Note_on_c, 1, 55, 100
3, 138720, Note_on_c, 1, 55, 0
3, 138720, End_track
4, 0, Start_track
4, 0, MIDI_port, 0
4, 0, Title_t, "Johann Sebastian Bach   (1685-1750)"
4, 0, Program_c, 2, 19
4, 0, Control_c, 2, 7, 100
4, 0, Control_c, 2, 10, 64
4, 8040, Note_on_c, 2, 43, 120
4, 8100, Note_on_c, 2, 43, 0
4, 8100, Note_on_c, 2, 42, 120
4, 8160, Note_on_c, 2, 42, 0
4, 8160, Note_on_c, 2, 43, 120
4, 8280, Note_on_c, 2, 43, 0
4, 8280, Note_on_c, 2, 38, 120
4, 8400, Note_on_c, 2, 38, 0
4, 8400, Note_on_c, 2, 47, 120
4, 8520, Note_on_c, 2, 47, 0
4, 8520, Note_on_c, 2, 43, 120
4, 8640, Note_on_c, 2, 43, 0
4, 8640, Note_on_c, 2, 45, 120
4, 8880, Note_on_c, 2, 45, 0
4, 8880, Note_on_c, 2, 38, 120
4, 9120, Note_on_c, 2, 38, 0
4, 9480, Note_on_c, 2, 45, 120
4, 9540, Note_on_c, 2, 45, 0
4, 9540, Note_on_c, 2, 43, 120
4, 9600, Note_on_c, 2, 43, 0
4, 9600, Note_on_c, 2, 45, 120
4, 9720, Note_on_c, 2, 45, 0
4, 9720, Note_on_c, 2, 38, 120
4, 9840, Note_on_c, 2, 38, 0
4, 9840, Note_on_c, 2, 48, 120
4, 9960, Note_on_c, 2, 48, 0
4, 9960, Note_on_c, 2, 45, 120
4, 10080, Note_on_c, 2, 45, 0
4, 10080, Note_on_c, 2, 47, 120
4, 10320, Note_on_c, 2, 47, 0
4, 10320, Note_on_c, 2, 38, 120
4, 10560, Note_on_c, 2, 38, 0
4, 10860, Note_on_c, 2, 47, 120
4, 10920, Note_on_c, 2, 47, 0
4, 10920, Note_on_c, 2, 45, 120
4, 10980, Note_on_c, 2, 45, 0
4, 10980, Note_on_c, 2, 47, 120
4, 11040, Note_on_c, 2, 47, 0
4, 11040, Note_on_c, 2, 43, 120
4, 11100, Note_on_c, 2, 43, 0
4, 11100, Note_on_c, 2, 45, 120
4, 11160, Note_on_c, 2, 45, 0
4, 11160, Note_on_c, 2, 41, 120
4, 11220, Note_on_c, 2, 41, 0
4, 11220, Note_on_c, 2, 43, 120
4, 11280, Note_on_c, 2, 43, 0
4, 11280, Note_on_c, 2, 40, 120
4, 11340, Note_on_c, 2, 40, 0
4, 11340, Note_on_c, 2, 41, 120
4, 11400, Note_on_c, 2, 41, 0
4, 11400, Note_on_c, 2, 38, 120
4, 11460, Note_on_c, 2, 38, 0
4, 11460, Note_on_c, 2, 40, 120
4, 11520, Note_on_c, 2, 40, 0
4, 11520, Note_on_c, 2, 36, 120
4, 11580, Note_on_c, 2, 36, 0
4, 11580, Note_on_c, 2, 48, 120
4, 11640, Note_on_c, 2, 48, 0
4, 11640, Note_on_c, 2, 47, 120
4, 11700, Note_on_c, 2, 47, 0
4, 11700, Note_on_c, 2, 48, 120
4, 11760, Note_on_c, 2, 48, 0
4, 11760, Note_on_c, 2, 45, 120
4, 11820, Note_on_c, 2, 45, 0
4, 11820, Note_on_c, 2, 47, 120
4, 11880, Note_on_c, 2, 47, 0
4, 11880, Note_on_c, 2, 43, 120
4, 11940, Note_on_c, 2, 43, 0
4, 11940, Note_on_c, 2, 45, 120
4, 12000, Note_on_c, 2, 45, 0
4, 12000, Note_on_c, 2, 42, 120
4, 12060, Note_on_c, 2, 42, 0
4, 12060, Note_on_c, 2, 43, 120
4, 12120, Note_on_c, 2, 43, 0
4, 12120, Note_on_c, 2, 40, 120
4, 12180, Note_on_c, 2, 40, 0
4, 12180, Note_on_c, 2, 42, 120
4, 12240, Note_on_c, 2, 42, 0
4, 12240, Note_on_c, 2, 38, 120
4, 12480, Note_on_c, 2, 38, 0
4, 12600, Note_on_c, 2, 38, 120
4, 12720, Note_on_c, 2, 38, 0
4, 12720, Note_on_c, 2, 38, 120
4, 12840, Note_on_c, 2, 38, 0
4, 12840, Note_on_c, 2, 38, 120
4, 12960, Note_on_c, 2, 38, 0
4, 12960, Note_on_c, 2, 38, 120
4, 13200, Note_on_c, 2, 38, 0
4, 13320, Note_on_c, 2, 38, 120
4, 13440, Note_on_c, 2, 38, 0
4, 13440, Note_on_c, 2, 38, 120
4, 13560, Note_on_c, 2, 38, 0
4, 13560, Note_on_c, 2, 38, 120
4, 13680, Note_on_c, 2, 38, 0
4, 13680, Note_on_c, 2, 38, 120
4, 13920, Note_on_c, 2, 38, 0
4, 14040, Note_on_c, 2, 38, 120
4, 14160, Note_on_c, 2, 38, 0
4, 14160, Note_on_c, 2, 38, 120
4, 14280, Note_on_c, 2, 38, 0
4, 14280, Note_on_c, 2, 38, 120
4, 14400, Note_on_c, 2, 38, 0
4, 14400, Note_on_c, 2, 31, 120
4, 14460, Note_on_c, 2, 31, 0
4, 14460, Note_on_c, 2, 47, 120
4, 14520, Note_on_c, 2, 47, 0
4, 14520, Note_on_c, 2, 45, 120
4, 14580, Note_on_c, 2, 45, 0
4, 14580, Note_on_c, 2, 47, 120
4, 14640, Note_on_c, 2, 47, 0
4, 14640, Note_on_c, 2, 43, 120
4, 14700, Note_on_c, 2, 43, 0
4, 14700, Note_on_c, 2, 47, 120
4, 14760, Note_on_c, 2, 47, 0
4, 14760, Note_on_c, 2, 42, 120
4, 14820, Note_on_c, 2, 42, 0
4, 14820, Note_on_c, 2, 47, 120
4, 14880, Note_on_c, 2, 47, 0
4, 14880, Note_on_c, 2, 40, 120
4, 14940, Note_on_c, 2, 40, 0
4, 14940, Note_on_c, 2, 47, 120
4, 15000, Note_on_c, 2, 47, 0
4, 15000, Note_on_c, 2, 38, 120
4, 15060, Note_on_c, 2, 38, 0
4, 15060, Note_on_c, 2, 47, 120
4, 15120, Note_on_c, 2, 47, 0
4, 15120, Note_on_c, 2, 37, 120
4, 15180, Note_on_c, 2, 37, 0
4, 15180, Note_on_c, 2, 45, 120
4, 15240, Note_on_c, 2, 45, 0
4, 15240, Note_on_c, 2, 43, 120
4, 15300, Note_on_c, 2, 43, 0
4, 15300, Note_on_c, 2, 45, 120
4, 15360, Note_on_c, 2, 45, 0
4, 15360, Note_on_c, 2, 42, 120
4, 15420, Note_on_c, 2, 42, 0
4, 15420, Note_on_c, 2, 45, 120
4, 15480, Note_on_c, 2, 45, 0
4, 15480, Note_on_c, 2, 40, 120
4, 15540, Note_on_c, 2, 40, 0
4, 15540, Note_on_c, 2, 45, 120
4, 15600, Note_on_c, 2, 45, 0
4, 15600, Note_on_c, 2, 38, 120
4, 15660, Note_on_c, 2, 38, 0
4, 15660, Note_on_c, 2, 45, 120
4, 15720, Note_on_c, 2, 45, 0
4, 15720, Note_on_c, 2, 37, 120
4, 15780, Note_on_c, 2, 37, 0
4, 15780, Note_on_c, 2, 45, 120
4, 15840, Note_on_c, 2, 45, 0
4, 15840, Note_on_c, 2, 35, 120
4, 15900, Note_on_c, 2, 35, 0
4, 15900, Note_on_c, 2, 43, 120
4, 15960, Note_on_c, 2, 43, 0
4, 15960, Note_on_c, 2, 42, 120
4, 16020, Note_on_c, 2, 42, 0
4, 16020, Note_on_c, 2, 43, 120
4, 16080, Note_on_c, 2, 43, 0
4, 16080, Note_on_c, 2, 40, 120
4, 16140, Note_on_c, 2, 40, 0
4, 16140, Note_on_c, 2, 43, 120
4, 16200, Note_on_c, 2, 43, 0
4, 16200, Note_on_c, 2, 38, 120
4, 16260, Note_on_c, 2, 38, 0
4, 16260, Note_on_c, 2, 43, 120
4, 16320, Note_on_c, 2, 43, 0
4, 16320, Note_on_c, 2, 37, 120
4, 16380, Note_on_c, 2, 37, 0
4, 16380, Note_on_c, 2, 43, 120
4, 16440, Note_on_c, 2, 43, 0
4, 16440, Note_on_c, 2, 35, 120
4, 16500, Note_on_c, 2, 35, 0
4, 16500, Note_on_c, 2, 43, 120
4, 16560, Note_on_c, 2, 43, 0
4, 16560, Note_on_c, 2, 33, 120
4, 16680, Note_on_c, 2, 33, 0
4, 17280, Note_on_c, 2, 33, 120
4, 17400, Note_on_c, 2, 33, 0
4, 18000, Note_on_c, 2, 33, 120
4, 18120, Note_on_c, 2, 33, 0
4, 18840, Note_on_c, 2, 33, 120
4, 18960, Note_on_c, 2, 33, 0
4, 18960, Note_on_c, 2, 35, 120
4, 19080, Note_on_c, 2, 35, 0
4, 19080, Note_on_c, 2, 37, 120
4, 19200, Note_on_c, 2, 37, 0
4, 19200, Note_on_c, 2, 38, 120
4, 19320, Note_on_c, 2, 38, 0
4, 19320, Note_on_c, 2, 40, 120
4, 19440, Note_on_c, 2, 40, 0
4, 19440, Note_on_c, 2, 42, 120
4, 19560, Note_on_c, 2, 42, 0
4, 19560, Note_on_c, 2, 43, 120
4, 19680, Note_on_c, 2, 43, 0
4, 19680, Note_on_c, 2, 45, 120
4, 19800, Note_on_c, 2, 45, 0
4, 19800, Note_on_c, 2, 44, 120
4, 19920, Note_on_c, 2, 44, 0
4, 19920, Note_on_c, 2, 45, 120
4, 20040, Note_on_c, 2, 45, 0
4, 20040, Note_on_c, 2, 33, 120
4, 20160, Note_on_c, 2, 33, 0
4, 20160, Note_on_c, 2, 38, 120
4, 20400, Note_on_c, 2, 38, 0
4, 22440, Note_on_c, 2, 39, 120
4, 22500, Note_on_c, 2, 39, 0
4, 22500, Note_on_c, 2, 37, 120
4, 22560, Note_on_c, 2, 37, 0
4, 22560, Note_on_c, 2, 39, 120
4, 22680, Note_on_c, 2, 39, 0
4, 22680, Note_on_c, 2, 35, 120
4, 22800, Note_on_c, 2, 35, 0
4, 22800, Note_on_c, 2, 42, 120
4, 22920, Note_on_c, 2, 42, 0
4, 22920, Note_on_c, 2, 39, 120
4, 23040, Note_on_c, 2, 39, 0
4, 23040, Note_on_c, 2, 40, 120
4, 23280, Note_on_c, 2, 40, 0
4, 23280, Note_on_c, 2, 28, 120
4, 23520, Note_on_c, 2, 28, 0
4, 23880, Note_on_c, 2, 40, 120
4, 23940, Note_on_c, 2, 40, 0
4, 23940, Note_on_c, 2, 39, 120
4, 24000, Note_on_c, 2, 39, 0
4, 24000, Note_on_c, 2, 40, 120
4, 24120, Note_on_c, 2, 40, 0
4, 24120, Note_on_c, 2, 35, 120
4, 24240, Note_on_c, 2, 35, 0
4, 24240, Note_on_c, 2, 43, 120
4, 24360, Note_on_c, 2, 43, 0
4, 24360, Note_on_c, 2, 40, 120
4, 24480, Note_on_c, 2, 40, 0
4, 24480, Note_on_c, 2, 42, 120
4, 24720, Note_on_c, 2, 42, 0
4, 24720, Note_on_c, 2, 30, 120
4, 24960, Note_on_c, 2, 30, 0
4, 25320, Note_on_c, 2, 42, 120
4, 25380, Note_on_c, 2, 42, 0
4, 25380, Note_on_c, 2, 40, 120
4, 25440, Note_on_c, 2, 40, 0
4, 25440, Note_on_c, 2, 42, 120
4, 25560, Note_on_c, 2, 42, 0
4, 25560, Note_on_c, 2, 38, 120
4, 25680, Note_on_c, 2, 38, 0
4, 25680, Note_on_c, 2, 45, 120
4, 25800, Note_on_c, 2, 45, 0
4, 25800, Note_on_c, 2, 42, 120
4, 25920, Note_on_c, 2, 42, 0
4, 25920, Note_on_c, 2, 43, 120
4, 26160, Note_on_c, 2, 43, 0
4, 26160, Note_on_c, 2, 31, 120
4, 26400, Note_on_c, 2, 31, 0
4, 26700, Note_on_c, 2, 43, 120
4, 26760, Note_on_c, 2, 43, 0
4, 26760, Note_on_c, 2, 42, 120
4, 26820, Note_on_c, 2, 42, 0
4, 26820, Note_on_c, 2, 43, 120
4, 26880, Note_on_c, 2, 43, 0
4, 26880, Note_on_c, 2, 40, 120
4, 26940, Note_on_c, 2, 40, 0
4, 26940, Note_on_c, 2, 43, 120
4, 27000, Note_on_c, 2, 43, 0
4, 27000, Note_on_c, 2, 38, 120
4, 27060, Note_on_c, 2, 38, 0
4, 27060, Note_on_c, 2, 43, 120
4, 27120, Note_on_c, 2, 43, 0
4, 27120, Note_on_c, 2, 37, 120
4, 27180, Note_on_c, 2, 37, 0
4, 27180, Note_on_c, 2, 43, 120
4, 27240, Note_on_c, 2, 43, 0
4, 27240, Note_on_c, 2, 35, 120
4, 27300, Note_on_c, 2, 35, 0
4, 27300, Note_on_c, 2, 43, 120
4, 27360, Note_on_c, 2, 43, 0
4, 27360, Note_on_c, 2, 34, 120
4, 27600, Note_on_c, 2, 34, 0
4, 28080, Note_on_c, 2, 37, 120
4, 28320, Note_on_c, 2, 37, 0
4, 28800, Note_on_c, 2, 40, 120
4, 29040, Note_on_c, 2, 40, 0
4, 29640, Note_on_c, 2, 38, 120
4, 29760, Note_on_c, 2, 38, 0
4, 29760, Note_on_c, 2, 43, 120
4, 29880, Note_on_c, 2, 43, 0
4, 29880, Note_on_c, 2, 40, 120
4, 30000, Note_on_c, 2, 40, 0
4, 30000, Note_on_c, 2, 42, 120
4, 30120, Note_on_c, 2, 42, 0
4, 30120, Note_on_c, 2, 30, 120
4, 30240, Note_on_c, 2, 30, 0
4, 30240, Note_on_c, 2, 35, 120
4, 30480, Note_on_c, 2, 35, 0
4, 30960, Note_on_c, 2, 35, 120
4, 31200, Note_on_c, 2, 35, 0
4, 31800, Note_on_c, 2, 38, 120
4, 31920, Note_on_c, 2, 38, 0
4, 31920, Note_on_c, 2, 43, 120
4, 32040, Note_on_c, 2, 43, 0
4, 32040, Note_on_c, 2, 40, 120
4, 32160, Note_on_c, 2, 40, 0
4, 32160, Note_on_c, 2, 42, 120
4, 32280, Note_on_c, 2, 42, 0
4, 32280, Note_on_c, 2, 30, 120
4, 32388, Note_on_c, 2, 30, 0
4, 32400, Note_on_c, 2, 35, 120
4, 32640, Note_on_c, 2, 35, 0
4, 33240, Note_on_c, 2, 44, 120
4, 33300, Note_on_c, 2, 44, 0
4, 33300, Note_on_c, 2, 42, 120
4, 33360, Note_on_c, 2, 42, 0
4, 33360, Note_on_c, 2, 44, 120
4, 33480, Note_on_c, 2, 44, 0
4, 33480, Note_on_c, 2, 40, 120
4, 33600, Note_on_c, 2, 40, 0
4, 33600, Note_on_c, 2, 47, 120
4, 33720, Note_on_c, 2, 47, 0
4, 33720, Note_on_c, 2, 44, 120
4, 33840, Note_on_c, 2, 44, 0
4, 33840, Note_on_c, 2, 45, 120
4, 34080, Note_on_c, 2, 45, 0
4, 34080, Note_on_c, 2, 33, 120
4, 34320, Note_on_c, 2, 33, 0
4, 34620, Note_on_c, 2, 48, 120
4, 34680, Note_on_c, 2, 48, 0
4, 34680, Note_on_c, 2, 47, 120
4, 34740, Note_on_c, 2, 47, 0
4, 34740, Note_on_c, 2, 48, 120
4, 34800, Note_on_c, 2, 48, 0
4, 34800, Note_on_c, 2, 45, 120
4, 34860, Note_on_c, 2, 45, 0
4, 34860, Note_on_c, 2, 48, 120
4, 34920, Note_on_c, 2, 48, 0
4, 34920, Note_on_c, 2, 43, 120
4, 34980, Note_on_c, 2, 43, 0
4, 34980, Note_on_c, 2, 48, 120
4, 35040, Note_on_c, 2, 48, 0
4, 35040, Note_on_c, 2, 42, 120
4, 35100, Note_on_c, 2, 42, 0
4, 35100, Note_on_c, 2, 48, 120
4, 35160, Note_on_c, 2, 48, 0
4, 35160, Note_on_c, 2, 40, 120
4, 35220, Note_on_c, 2, 40, 0
4, 35220, Note_on_c, 2, 48, 120
4, 35280, Note_on_c, 2, 48, 0
4, 35280, Note_on_c, 2, 38, 120
4, 35520, Note_on_c, 2, 38, 0
4, 35520, Note_on_c, 2, 50, 120
4, 35760, Note_on_c, 2, 50, 0
4, 36120, Note_on_c, 2, 42, 120
4, 36180, Note_on_c, 2, 42, 0
4, 36180, Note_on_c, 2, 40, 120
4, 36240, Note_on_c, 2, 40, 0
4, 36240, Note_on_c, 2, 42, 120
4, 36360, Note_on_c, 2, 42, 0
4, 36360, Note_on_c, 2, 38, 120
4, 36480, Note_on_c, 2, 38, 0
4, 36480, Note_on_c, 2, 45, 120
4, 36600, Note_on_c, 2, 45, 0
4, 36600, Note_on_c, 2, 42, 120
4, 36720, Note_on_c, 2, 42, 0
4, 36720, Note_on_c, 2, 43, 120
4, 36960, Note_on_c, 2, 43, 0
4, 36960, Note_on_c, 2, 31, 120
4, 37200, Note_on_c, 2, 31, 0
4, 37680, Note_on_c, 2, 43, 120
4, 38400, Note_on_c, 2, 43, 0
4, 38400, Note_on_c, 2, 42, 120
4, 38880, Note_on_c, 2, 42, 0
4, 38880, Note_on_c, 2, 41, 120
4, 39600, Note_on_c, 2, 41, 0
4, 39600, Note_on_c, 2, 40, 120
4, 40320, Note_on_c, 2, 40, 0
4, 40320, Note_on_c, 2, 42, 120
4, 40560, Note_on_c, 2, 42, 0
4, 41160, Note_on_c, 2, 35, 120
4, 41280, Note_on_c, 2, 35, 0
4, 41280, Note_on_c, 2, 36, 120
4, 41400, Note_on_c, 2, 36, 0
4, 41400, Note_on_c, 2, 33, 120
4, 41520, Note_on_c, 2, 33, 0
4, 41520, Note_on_c, 2, 38, 120
4, 41640, Note_on_c, 2, 38, 0
4, 41640, Note_on_c, 2, 26, 120
4, 41760, Note_on_c, 2, 26, 0
4, 41760, Note_on_c, 2, 31, 120
4, 42000, Note_on_c, 2, 31, 0
4, 42120, Note_on_c, 2, 31, 120
4, 42240, Note_on_c, 2, 31, 0
4, 42240, Note_on_c, 2, 35, 120
4, 42360, Note_on_c, 2, 35, 0
4, 42360, Note_on_c, 2, 31, 120
4, 42480, Note_on_c, 2, 31, 0
4, 42480, Note_on_c, 2, 38, 120
4, 42720, Note_on_c, 2, 38, 0
4, 42840, Note_on_c, 2, 38, 120
4, 42960, Note_on_c, 2, 38, 0
4, 42960, Note_on_c, 2, 42, 120
4, 43080, Note_on_c, 2, 42, 0
4, 43080, Note_on_c, 2, 38, 120
4, 43200, Note_on_c, 2, 38, 0
4, 43200, Note_on_c, 2, 43, 120
4, 43260, Note_on_c, 2, 43, 0
4, 43260, Note_on_c, 2, 47, 120
4, 43320, Note_on_c, 2, 47, 0
4, 43320, Note_on_c, 2, 45, 120
4, 43380, Note_on_c, 2, 45, 0
4, 43380, Note_on_c, 2, 47, 120
4, 43440, Note_on_c, 2, 47, 0
4, 43440, Note_on_c, 2, 43, 120
4, 43500, Note_on_c, 2, 43, 0
4, 43500, Note_on_c, 2, 45, 120
4, 43560, Note_on_c, 2, 45, 0
4, 43560, Note_on_c, 2, 41, 120
4, 43620, Note_on_c, 2, 41, 0
4, 43620, Note_on_c, 2, 43, 120
4, 43680, Note_on_c, 2, 43, 0
4, 43680, Note_on_c, 2, 40, 120
4, 43740, Note_on_c, 2, 40, 0
4, 43740, Note_on_c, 2, 41, 120
4, 43800, Note_on_c, 2, 41, 0
4, 43800, Note_on_c, 2, 38, 120
4, 43860, Note_on_c, 2, 38, 0
4, 43860, Note_on_c, 2, 40, 120
4, 43920, Note_on_c, 2, 40, 0
4, 43920, Note_on_c, 2, 36, 120
4, 43980, Note_on_c, 2, 36, 0
4, 43980, Note_on_c, 2, 48, 120
4, 44040, Note_on_c, 2, 48, 0
4, 44040, Note_on_c, 2, 47, 120
4, 44100, Note_on_c, 2, 47, 0
4, 44100, Note_on_c, 2, 48, 120
4, 44160, Note_on_c, 2, 48, 0
4, 44160, Note_on_c, 2, 45, 120
4, 44220, Note_on_c, 2, 45, 0
4, 44220, Note_on_c, 2, 47, 120
4, 44280, Note_on_c, 2, 47, 0
4, 44280, Note_on_c, 2, 43, 120
4, 44340, Note_on_c, 2, 43, 0
4, 44340, Note_on_c, 2, 45, 120
4, 44400, Note_on_c, 2, 45, 0
4, 44400, Note_on_c, 2, 42, 120
4, 44460, Note_on_c, 2, 42, 0
4, 44460, Note_on_c, 2, 43, 120
4, 44520, Note_on_c, 2, 43, 0
4, 44520, Note_on_c, 2, 40, 120
4, 44580, Note_on_c, 2, 40, 0
4, 44580, Note_on_c, 2, 42, 120
4, 44640, Note_on_c, 2, 42, 0
4, 44640, Note_on_c, 2, 38, 120
4, 44880, Note_on_c, 2, 38, 0
4, 45000, Note_on_c, 2, 38, 120
4, 45120, Note_on_c, 2, 38, 0
4, 45120, Note_on_c, 2, 38, 120
4, 45240, Note_on_c, 2, 38, 0
4, 45240, Note_on_c, 2, 38, 120
4, 45360, Note_on_c, 2, 38, 0
4, 45360, Note_on_c, 2, 38, 120
4, 45600, Note_on_c, 2, 38, 0
4, 45720, Note_on_c, 2, 38, 120
4, 45840, Note_on_c, 2, 38, 0
4, 45840, Note_on_c, 2, 38, 120
4, 45960, Note_on_c, 2, 38, 0
4, 45960, Note_on_c, 2, 38, 120
4, 46080, Note_on_c, 2, 38, 0
4, 46080, Note_on_c, 2, 38, 120
4, 46320, Note_on_c, 2, 38, 0
4, 46440, Note_on_c, 2, 38, 120
4, 46560, Note_on_c, 2, 38, 0
4, 46560, Note_on_c, 2, 38, 120
4, 46680, Note_on_c, 2, 38, 0
4, 46680, Note_on_c, 2, 38, 120
4, 46800, Note_on_c, 2, 38, 0
4, 46800, Note_on_c, 2, 38, 120
4, 47040, Note_on_c, 2, 38, 0
4, 47160, Note_on_c, 2, 38, 120
4, 47280, Note_on_c, 2, 38, 0
4, 47280, Note_on_c, 2, 38, 120
4, 47400, Note_on_c, 2, 38, 0
4, 47400, Note_on_c, 2, 38, 120
4, 47520, Note_on_c, 2, 38, 0
4, 47520, Note_on_c, 2, 38, 120
4, 47760, Note_on_c, 2, 38, 0
4, 47880, Note_on_c, 2, 38, 120
4, 48000, Note_on_c, 2, 38, 0
4, 48000, Note_on_c, 2, 38, 120
4, 48120, Note_on_c, 2, 38, 0
4, 48120, Note_on_c, 2, 38, 120
4, 48240, Note_on_c, 2, 38, 0
4, 48240, Note_on_c, 2, 38, 120
4, 48480, Note_on_c, 2, 38, 0
4, 48600, Note_on_c, 2, 38, 120
4, 48720, Note_on_c, 2, 38, 0
4, 48720, Note_on_c, 2, 38, 120
4, 48840, Note_on_c, 2, 38, 0
4, 48840, Note_on_c, 2, 38, 120
4, 48960, Note_on_c, 2, 38, 0
4, 48960, Note_on_c, 2, 38, 120
4, 49200, Note_on_c, 2, 38, 0
4, 49320, Note_on_c, 2, 38, 120
4, 49440, Note_on_c, 2, 38, 0
4, 49440, Note_on_c, 2, 38, 120
4, 49560, Note_on_c, 2, 38, 0
4, 49560, Note_on_c, 2, 38, 120
4, 49680, Note_on_c, 2, 38, 0
4, 49680, Note_on_c, 2, 38, 120
4, 49800, Note_on_c, 2, 38, 0
4, 49800, Note_on_c, 2, 38, 120
4, 49920, Note_on_c, 2, 38, 0
4, 49920, Note_on_c, 2, 38, 120
4, 50040, Note_on_c, 2, 38, 0
4, 50040, Note_on_c, 2, 38, 120
4, 50160, Note_on_c, 2, 38, 0
4, 50160, Note_on_c, 2, 38, 120
4, 50280, Note_on_c, 2, 38, 0
4, 50280, Note_on_c, 2, 38, 120
4, 50400, Note_on_c, 2, 38, 0
4, 50400, Note_on_c, 2, 40, 120
4, 50520, Note_on_c, 2, 40, 0
4, 50520, Note_on_c, 2, 43, 120
4, 50640, Note_on_c, 2, 43, 0
4, 50640, Note_on_c, 2, 36, 120
4, 50700, Note_on_c, 2, 36, 0
4, 50700, Note_on_c, 2, 48, 120
4, 50760, Note_on_c, 2, 48, 0
4, 50760, Note_on_c, 2, 47, 120
4, 50820, Note_on_c, 2, 47, 0
4, 50820, Note_on_c, 2, 48, 120
4, 50880, Note_on_c, 2, 48, 0
4, 50880, Note_on_c, 2, 45, 120
4, 50940, Note_on_c, 2, 45, 0
4, 50940, Note_on_c, 2, 48, 120
4, 51000, Note_on_c, 2, 48, 0
4, 51000, Note_on_c, 2, 43, 120
4, 51060, Note_on_c, 2, 43, 0
4, 51060, Note_on_c, 2, 48, 120
4, 51120, Note_on_c, 2, 48, 0
4, 51120, Note_on_c, 2, 42, 120
4, 51360, Note_on_c, 2, 42, 0
4, 51420, Note_on_c, 2, 47, 120
4, 51480, Note_on_c, 2, 47, 0
4, 51480, Note_on_c, 2, 45, 120
4, 51540, Note_on_c, 2, 45, 0
4, 51540, Note_on_c, 2, 47, 120
4, 51600, Note_on_c, 2, 47, 0
4, 51600, Note_on_c, 2, 43, 120
4, 51660, Note_on_c, 2, 43, 0
4, 51660, Note_on_c, 2, 47, 120
4, 51720, Note_on_c, 2, 47, 0
4, 51720, Note_on_c, 2, 42, 120
4, 51780, Note_on_c, 2, 42, 0
4, 51780, Note_on_c, 2, 47, 120
4, 51840, Note_on_c, 2, 47, 0
4, 51840, Note_on_c, 2, 40, 120
4, 52080, Note_on_c, 2, 40, 0
4, 52140, Note_on_c, 2, 45, 120
4, 52200, Note_on_c, 2, 45, 0
4, 52200, Note_on_c, 2, 43, 120
4, 52260, Note_on_c, 2, 43, 0
4, 52260, Note_on_c, 2, 45, 120
4, 52320, Note_on_c, 2, 45, 0
4, 52320, Note_on_c, 2, 42, 120
4, 52380, Note_on_c, 2, 42, 0
4, 52380, Note_on_c, 2, 45, 120
4, 52440, Note_on_c, 2, 45, 0
4, 52440, Note_on_c, 2, 40, 120
4, 52500, Note_on_c, 2, 40, 0
4, 52500, Note_on_c, 2, 45, 120
4, 52560, Note_on_c, 2, 45, 0
4, 52560, Note_on_c, 2, 38, 120
4, 52800, Note_on_c, 2, 38, 0
4, 53280, Note_on_c, 2, 38, 120
4, 53520, Note_on_c, 2, 38, 0
4, 54000, Note_on_c, 2, 38, 120
4, 54240, Note_on_c, 2, 38, 0
4, 54840, Note_on_c, 2, 26, 120
4, 54960, Note_on_c, 2, 26, 0
4, 54960, Note_on_c, 2, 28, 120
4, 55080, Note_on_c, 2, 28, 0
4, 55080, Note_on_c, 2, 30, 120
4, 55200, Note_on_c, 2, 30, 0
4, 55200, Note_on_c, 2, 31, 120
4, 55320, Note_on_c, 2, 31, 0
4, 55320, Note_on_c, 2, 33, 120
4, 55440, Note_on_c, 2, 33, 0
4, 55440, Note_on_c, 2, 35, 120
4, 55560, Note_on_c, 2, 35, 0
4, 55560, Note_on_c, 2, 36, 120
4, 55680, Note_on_c, 2, 36, 0
4, 55680, Note_on_c, 2, 38, 120
4, 55800, Note_on_c, 2, 38, 0
4, 55800, Note_on_c, 2, 36, 120
4, 55920, Note_on_c, 2, 36, 0
4, 55920, Note_on_c, 2, 38, 120
4, 56040, Note_on_c, 2, 38, 0
4, 56040, Note_on_c, 2, 26, 120
4, 56160, Note_on_c, 2, 26, 0
4, 56160, Note_on_c, 2, 31, 120
4, 56400, Note_on_c, 2, 31, 0
4, 56880, Note_on_c, 2, 31, 120
4, 57120, Note_on_c, 2, 31, 0
4, 57720, Note_on_c, 2, 35, 120
4, 57840, Note_on_c, 2, 35, 0
4, 57840, Note_on_c, 2, 40, 120
4, 57960, Note_on_c, 2, 40, 0
4, 57960, Note_on_c, 2, 36, 120
4, 58080, Note_on_c, 2, 36, 0
4, 58080, Note_on_c, 2, 38, 120
4, 58170, Note_on_c, 2, 38, 0
4, 58200, Note_on_c, 2, 26, 120
4, 58290, Note_on_c, 2, 26, 0
4, 58320, Note_on_c, 2, 31, 120
4, 58800, Note_on_c, 2, 31, 0
4, 65880, Note_on_c, 2, 38, 100
4, 66000, Note_on_c, 2, 38, 0
4, 66000, Note_on_c, 2, 38, 100
4, 66120, Note_on_c, 2, 38, 0
4, 66120, Note_on_c, 2, 38, 100
4, 66240, Note_on_c, 2, 38, 0
4, 66240, Note_on_c, 2, 43, 100
4, 66360, Note_on_c, 2, 43, 0
4, 66360, Note_on_c, 2, 43, 100
4, 66480, Note_on_c, 2, 43, 0
4, 66480, Note_on_c, 2, 43, 100
4, 66600, Note_on_c, 2, 43, 0
4, 66600, Note_on_c, 2, 43, 100
4, 66720, Note_on_c, 2, 43, 0
4, 66720, Note_on_c, 2, 43, 100
4, 66840, Note_on_c, 2, 43, 0
4, 66840, Note_on_c, 2, 42, 100
4, 66900, Note_on_c, 2, 42, 0
4, 66900, Note_on_c, 2, 40, 100
4, 66960, Note_on_c, 2, 40, 0
4, 66960, Note_on_c, 2, 42, 100
4, 67080, Note_on_c, 2, 42, 0
4, 67080, Note_on_c, 2, 38, 100
4, 67200, Note_on_c, 2, 38, 0
4, 67200, Note_on_c, 2, 47, 100
4, 67320, Note_on_c, 2, 47, 0
4, 67320, Note_on_c, 2, 47, 100
4, 67440, Note_on_c, 2, 47, 0
4, 67440, Note_on_c, 2, 47, 100
4, 67560, Note_on_c, 2, 47, 0
4, 67560, Note_on_c, 2, 47, 100
4, 67680, Note_on_c, 2, 47, 0
4, 67680, Note_on_c, 2, 47, 100
4, 67800, Note_on_c, 2, 47, 0
4, 67800, Note_on_c, 2, 45, 100
4, 67860, Note_on_c, 2, 45, 0
4, 67860, Note_on_c, 2, 43, 100
4, 67920, Note_on_c, 2, 43, 0
4, 67920, Note_on_c, 2, 45, 100
4, 68040, Note_on_c, 2, 45, 0
4, 68040, Note_on_c, 2, 45, 100
4, 68160, Note_on_c, 2, 45, 0
4, 68160, Note_on_c, 2, 45, 100
4, 68280, Note_on_c, 2, 45, 0
4, 68280, Note_on_c, 2, 38, 100
4, 68400, Note_on_c, 2, 38, 0
4, 68400, Note_on_c, 2, 43, 100
4, 68880, Note_on_c, 2, 43, 0
4, 68880, Note_on_c, 2, 42, 100
4, 69120, Note_on_c, 2, 42, 0
4, 69120, Note_on_c, 2, 43, 100
4, 69360, Note_on_c, 2, 43, 0
4, 69480, Note_on_c, 2, 43, 100
4, 69600, Note_on_c, 2, 43, 0
4, 69600, Note_on_c, 2, 45, 100
4, 69720, Note_on_c, 2, 45, 0
4, 69720, Note_on_c, 2, 43, 100
4, 69840, Note_on_c, 2, 43, 0
4, 69840, Note_on_c, 2, 45, 100
4, 69960, Note_on_c, 2, 45, 0
4, 69960, Note_on_c, 2, 42, 100
4, 70080, Note_on_c, 2, 42, 0
4, 70080, Note_on_c, 2, 47, 100
4, 70200, Note_on_c, 2, 47, 0
4, 70200, Note_on_c, 2, 45, 100
4, 70320, Note_on_c, 2, 45, 0
4, 70320, Note_on_c, 2, 43, 100
4, 70440, Note_on_c, 2, 43, 0
4, 70440, Note_on_c, 2, 42, 100
4, 70560, Note_on_c, 2, 42, 0
4, 70560, Note_on_c, 2, 40, 100
4, 70680, Note_on_c, 2, 40, 0
4, 70680, Note_on_c, 2, 38, 100
4, 70800, Note_on_c, 2, 38, 0
4, 70800, Note_on_c, 2, 37, 100
4, 70920, Note_on_c, 2, 37, 0
4, 70920, Note_on_c, 2, 35, 100
4, 71040, Note_on_c, 2, 35, 0
4, 71040, Note_on_c, 2, 33, 100
4, 71160, Note_on_c, 2, 33, 0
4, 71160, Note_on_c, 2, 43, 100
4, 71280, Note_on_c, 2, 43, 0
4, 71280, Note_on_c, 2, 42, 100
4, 71400, Note_on_c, 2, 42, 0
4, 71400, Note_on_c, 2, 40, 100
4, 71520, Note_on_c, 2, 40, 0
4, 71520, Note_on_c, 2, 38, 100
4, 71580, Note_on_c, 2, 38, 0
4, 71580, Note_on_c, 2, 42, 100
4, 71640, Note_on_c, 2, 42, 0
4, 71640, Note_on_c, 2, 40, 100
4, 71700, Note_on_c, 2, 40, 0
4, 71700, Note_on_c, 2, 42, 100
4, 71760, Note_on_c, 2, 42, 0
4, 71760, Note_on_c, 2, 38, 100
4, 71820, Note_on_c, 2, 38, 0
4, 71820, Note_on_c, 2, 40, 100
4, 71880, Note_on_c, 2, 40, 0
4, 71880, Note_on_c, 2, 37, 100
4, 71940, Note_on_c, 2, 37, 0
4, 71940, Note_on_c, 2, 38, 100
4, 72000, Note_on_c, 2, 38, 0
4, 72000, Note_on_c, 2, 35, 100
4, 72060, Note_on_c, 2, 35, 0
4, 72060, Note_on_c, 2, 40, 100
4, 72120, Note_on_c, 2, 40, 0
4, 72120, Note_on_c, 2, 38, 100
4, 72180, Note_on_c, 2, 38, 0
4, 72180, Note_on_c, 2, 40, 100
4, 72240, Note_on_c, 2, 40, 0
4, 72240, Note_on_c, 2, 37, 100
4, 72300, Note_on_c, 2, 37, 0
4, 72300, Note_on_c, 2, 38, 100
4, 72360, Note_on_c, 2, 38, 0
4, 72360, Note_on_c, 2, 35, 100
4, 72420, Note_on_c, 2, 35, 0
4, 72420, Note_on_c, 2, 37, 100
4, 72480, Note_on_c, 2, 37, 0
4, 72480, Note_on_c, 2, 33, 100
4, 72540, Note_on_c, 2, 33, 0
4, 72540, Note_on_c, 2, 45, 100
4, 72600, Note_on_c, 2, 45, 0
4, 72600, Note_on_c, 2, 43, 100
4, 72660, Note_on_c, 2, 43, 0
4, 72660, Note_on_c, 2, 45, 100
4, 72720, Note_on_c, 2, 45, 0
4, 72720, Note_on_c, 2, 42, 100
4, 72780, Note_on_c, 2, 42, 0
4, 72780, Note_on_c, 2, 43, 100
4, 72840, Note_on_c, 2, 43, 0
4, 72840, Note_on_c, 2, 40, 100
4, 72900, Note_on_c, 2, 40, 0
4, 72900, Note_on_c, 2, 42, 100
4, 72960, Note_on_c, 2, 42, 0
4, 72960, Note_on_c, 2, 38, 100
4, 73020, Note_on_c, 2, 38, 0
4, 73020, Note_on_c, 2, 40, 100
4, 73080, Note_on_c, 2, 40, 0
4, 73080, Note_on_c, 2, 37, 100
4, 73140, Note_on_c, 2, 37, 0
4, 73140, Note_on_c, 2, 38, 100
4, 73200, Note_on_c, 2, 38, 0
4, 73200, Note_on_c, 2, 35, 100
4, 73260, Note_on_c, 2, 35, 0
4, 73260, Note_on_c, 2, 36, 100
4, 73320, Note_on_c, 2, 36, 0
4, 73320, Note_on_c, 2, 33, 100
4, 73380, Note_on_c, 2, 33, 0
4, 73380, Note_on_c, 2, 35, 100
4, 73440, Note_on_c, 2, 35, 0
4, 73440, Note_on_c, 2, 31, 100
4, 73560, Note_on_c, 2, 31, 0
4, 73560, Note_on_c, 2, 43, 100
4, 73740, Note_on_c, 2, 43, 0
4, 73740, Note_on_c, 2, 42, 100
4, 73800, Note_on_c, 2, 42, 0
4, 73800, Note_on_c, 2, 43, 100
4, 73860, Note_on_c, 2, 43, 0
4, 73860, Note_on_c, 2, 40, 100
4, 73920, Note_on_c, 2, 40, 0
4, 73920, Note_on_c, 2, 42, 100
4, 74220, Note_on_c, 2, 42, 0
4, 74220, Note_on_c, 2, 40, 100
4, 74280, Note_on_c, 2, 40, 0
4, 74280, Note_on_c, 2, 42, 100
4, 74340, Note_on_c, 2, 42, 0
4, 74340, Note_on_c, 2, 38, 100
4, 74400, Note_on_c, 2, 38, 0
4, 74400, Note_on_c, 2, 40, 100
4, 74640, Note_on_c, 2, 40, 0
4, 74640, Note_on_c, 2, 33, 100
4, 74880, Note_on_c, 2, 33, 0
4, 74880, Note_on_c, 2, 38, 100
4, 75120, Note_on_c, 2, 38, 0
4, 75360, Note_on_c, 2, 33, 100
4, 75480, Note_on_c, 2, 33, 0
4, 75480, Note_on_c, 2, 35, 100
4, 75600, Note_on_c, 2, 35, 0
4, 75600, Note_on_c, 2, 36, 100
4, 75720, Note_on_c, 2, 36, 0
4, 75720, Note_on_c, 2, 38, 100
4, 75840, Note_on_c, 2, 38, 0
4, 75840, Note_on_c, 2, 40, 100
4, 76080, Note_on_c, 2, 40, 0
4, 76320, Note_on_c, 2, 35, 100
4, 76440, Note_on_c, 2, 35, 0
4, 76440, Note_on_c, 2, 36, 100
4, 76560, Note_on_c, 2, 36, 0
4, 76560, Note_on_c, 2, 38, 100
4, 76680, Note_on_c, 2, 38, 0
4, 76680, Note_on_c, 2, 40, 100
4, 76800, Note_on_c, 2, 40, 0
4, 76800, Note_on_c, 2, 42, 100
4, 76920, Note_on_c, 2, 42, 0
4, 76920, Note_on_c, 2, 44, 100
4, 77040, Note_on_c, 2, 44, 0
4, 77040, Note_on_c, 2, 45, 100
4, 77160, Note_on_c, 2, 45, 0
4, 77160, Note_on_c, 2, 33, 100
4, 77280, Note_on_c, 2, 33, 0
4, 77280, Note_on_c, 2, 38, 100
4, 77340, Note_on_c, 2, 38, 0
4, 77340, Note_on_c, 2, 41, 100
4, 77400, Note_on_c, 2, 41, 0
4, 77400, Note_on_c, 2, 40, 100
4, 77460, Note_on_c, 2, 40, 0
4, 77460, Note_on_c, 2, 43, 100
4, 77520, Note_on_c, 2, 43, 0
4, 77520, Note_on_c, 2, 41, 100
4, 77580, Note_on_c, 2, 41, 0
4, 77580, Note_on_c, 2, 45, 100
4, 77640, Note_on_c, 2, 45, 0
4, 77640, Note_on_c, 2, 43, 100
4, 77700, Note_on_c, 2, 43, 0
4, 77700, Note_on_c, 2, 47, 100
4, 77760, Note_on_c, 2, 47, 0
4, 77760, Note_on_c, 2, 36, 100
4, 78000, Note_on_c, 2, 36, 0
4, 78120, Note_on_c, 2, 36, 100
4, 78240, Note_on_c, 2, 36, 0
4, 78240, Note_on_c, 2, 38, 100
4, 78300, Note_on_c, 2, 38, 0
4, 78300, Note_on_c, 2, 40, 100
4, 78360, Note_on_c, 2, 40, 0
4, 78360, Note_on_c, 2, 36, 100
4, 78420, Note_on_c, 2, 36, 0
4, 78420, Note_on_c, 2, 38, 100
4, 78480, Note_on_c, 2, 38, 0
4, 78480, Note_on_c, 2, 35, 100
4, 78540, Note_on_c, 2, 35, 0
4, 78540, Note_on_c, 2, 40, 100
4, 78600, Note_on_c, 2, 40, 0
4, 78600, Note_on_c, 2, 38, 100
4, 78660, Note_on_c, 2, 38, 0
4, 78660, Note_on_c, 2, 40, 100
4, 78720, Note_on_c, 2, 40, 0
4, 78720, Note_on_c, 2, 33, 100
4, 78960, Note_on_c, 2, 33, 0
4, 78960, Note_on_c, 2, 45, 100
4, 79440, Note_on_c, 2, 45, 0
4, 79440, Note_on_c, 2, 43, 100
4, 79800, Note_on_c, 2, 43, 0
4, 79800, Note_on_c, 2, 42, 100
4, 79860, Note_on_c, 2, 42, 0
4, 79860, Note_on_c, 2, 40, 100
4, 79920, Note_on_c, 2, 40, 0
4, 79920, Note_on_c, 2, 42, 100
4, 80040, Note_on_c, 2, 42, 0
4, 80040, Note_on_c, 2, 33, 100
4, 80160, Note_on_c, 2, 33, 0
4, 80160, Note_on_c, 2, 35, 100
4, 80280, Note_on_c, 2, 35, 0
4, 80280, Note_on_c, 2, 35, 100
4, 80400, Note_on_c, 2, 35, 0
4, 80400, Note_on_c, 2, 37, 100
4, 80520, Note_on_c, 2, 37, 0
4, 80520, Note_on_c, 2, 37, 100
4, 80640, Note_on_c, 2, 37, 0
4, 80640, Note_on_c, 2, 38, 100
4, 80880, Note_on_c, 2, 38, 0
4, 81000, Note_on_c, 2, 38, 100
4, 81120, Note_on_c, 2, 38, 0
4, 81120, Note_on_c, 2, 40, 100
4, 81240, Note_on_c, 2, 40, 0
4, 81240, Note_on_c, 2, 40, 100
4, 81360, Note_on_c, 2, 40, 0
4, 81360, Note_on_c, 2, 42, 100
4, 81480, Note_on_c, 2, 42, 0
4, 81480, Note_on_c, 2, 42, 100
4, 81600, Note_on_c, 2, 42, 0
4, 81600, Note_on_c, 2, 43, 100
4, 81840, Note_on_c, 2, 43, 0
4, 81960, Note_on_c, 2, 31, 100
4, 82080, Note_on_c, 2, 31, 0
4, 82080, Note_on_c, 2, 33, 100
4, 82200, Note_on_c, 2, 33, 0
4, 82200, Note_on_c, 2, 33, 100
4, 82320, Note_on_c, 2, 33, 0
4, 82320, Note_on_c, 2, 35, 100
4, 82440, Note_on_c, 2, 35, 0
4, 82440, Note_on_c, 2, 35, 100
4, 82560, Note_on_c, 2, 35, 0
4, 82560, Note_on_c, 2, 36, 100
4, 82800, Note_on_c, 2, 36, 0
4, 82920, Note_on_c, 2, 37, 100
4, 83040, Note_on_c, 2, 37, 0
4, 83040, Note_on_c, 2, 38, 100
4, 83280, Note_on_c, 2, 38, 0
4, 83400, Note_on_c, 2, 35, 100
4, 83520, Note_on_c, 2, 35, 0
4, 83520, Note_on_c, 2, 40, 100
4, 83760, Note_on_c, 2, 40, 0
4, 83760, Note_on_c, 2, 33, 100
4, 84000, Note_on_c, 2, 33, 0
4, 84000, Note_on_c, 2, 38, 100
4, 84120, Note_on_c, 2, 38, 0
4, 84120, Note_on_c, 2, 26, 100
4, 84240, Note_on_c, 2, 26, 0
4, 84300, Note_on_c, 2, 38, 100
4, 84360, Note_on_c, 2, 38, 0
4, 84360, Note_on_c, 2, 42, 100
4, 84420, Note_on_c, 2, 42, 0
4, 84420, Note_on_c, 2, 38, 100
4, 84480, Note_on_c, 2, 38, 0
4, 84480, Note_on_c, 2, 43, 100
4, 84600, Note_on_c, 2, 43, 0
4, 84600, Note_on_c, 2, 31, 100
4, 84720, Note_on_c, 2, 31, 0
4, 84780, Note_on_c, 2, 40, 100
4, 84840, Note_on_c, 2, 40, 0
4, 84840, Note_on_c, 2, 43, 100
4, 84900, Note_on_c, 2, 43, 0
4, 84900, Note_on_c, 2, 40, 100
4, 84960, Note_on_c, 2, 40, 0
4, 84960, Note_on_c, 2, 45, 100
4, 85080, Note_on_c, 2, 45, 0
4, 85080, Note_on_c, 2, 43, 100
4, 85200, Note_on_c, 2, 43, 0
4, 85200, Note_on_c, 2, 42, 100
4, 85320, Note_on_c, 2, 42, 0
4, 85320, Note_on_c, 2, 38, 100
4, 85440, Note_on_c, 2, 38, 0
4, 85440, Note_on_c, 2, 43, 100
4, 85560, Note_on_c, 2, 43, 0
4, 85560, Note_on_c, 2, 42, 100
4, 85680, Note_on_c, 2, 42, 0
4, 85680, Note_on_c, 2, 40, 100
4, 85800, Note_on_c, 2, 40, 0
4, 85800, Note_on_c, 2, 38, 100
4, 85920, Note_on_c, 2, 38, 0
4, 85920, Note_on_c, 2, 36, 100
4, 86040, Note_on_c, 2, 36, 0
4, 86040, Note_on_c, 2, 33, 100
4, 86160, Note_on_c, 2, 33, 0
4, 86160, Note_on_c, 2, 38, 100
4, 86280, Note_on_c, 2, 38, 0
4, 86280, Note_on_c, 2, 26, 100
4, 86400, Note_on_c, 2, 26, 0
4, 86400, Note_on_c, 2, 31, 100
4, 86640, Note_on_c, 2, 31, 0
4, 86760, Note_on_c, 2, 43, 100
4, 86880, Note_on_c, 2, 43, 0
4, 86880, Note_on_c, 2, 48, 100
4, 87000, Note_on_c, 2, 48, 0
4, 87000, Note_on_c, 2, 45, 100
4, 87120, Note_on_c, 2, 45, 0
4, 87120, Note_on_c, 2, 47, 100
4, 87240, Note_on_c, 2, 47, 0
4, 87240, Note_on_c, 2, 35, 100
4, 87360, Note_on_c, 2, 35, 0
4, 87360, Note_on_c, 2, 40, 100
4, 87600, Note_on_c, 2, 40, 0
4, 87720, Note_on_c, 2, 40, 100
4, 87840, Note_on_c, 2, 40, 0
4, 87840, Note_on_c, 2, 45, 100
4, 87960, Note_on_c, 2, 45, 0
4, 87960, Note_on_c, 2, 43, 100
4, 88080, Note_on_c, 2, 43, 0
4, 88080, Note_on_c, 2, 42, 100
4, 88200, Note_on_c, 2, 42, 0
4, 88200, Note_on_c, 2, 38, 100
4, 88320, Note_on_c, 2, 38, 0
4, 88320, Note_on_c, 2, 43, 100
4, 88560, Note_on_c, 2, 43, 0
4, 88680, Note_on_c, 2, 40, 100
4, 88800, Note_on_c, 2, 40, 0
4, 88800, Note_on_c, 2, 42, 100
4, 88920, Note_on_c, 2, 42, 0
4, 88920, Note_on_c, 2, 40, 100
4, 89040, Note_on_c, 2, 40, 0
4, 89040, Note_on_c, 2, 38, 100
4, 89160, Note_on_c, 2, 38, 0
4, 89160, Note_on_c, 2, 35, 100
4, 89280, Note_on_c, 2, 35, 0
4, 89280, Note_on_c, 2, 31, 100
4, 89400, Note_on_c, 2, 31, 0
4, 89400, Note_on_c, 2, 43, 100
4, 89460, Note_on_c, 2, 43, 0
4, 89460, Note_on_c, 2, 42, 100
4, 89520, Note_on_c, 2, 42, 0
4, 89520, Note_on_c, 2, 43, 100
4, 89640, Note_on_c, 2, 43, 0
4, 89640, Note_on_c, 2, 40, 100
4, 89760, Note_on_c, 2, 40, 0
4, 89760, Note_on_c, 2, 45, 100
4, 89880, Note_on_c, 2, 45, 0
4, 89880, Note_on_c, 2, 40, 100
4, 90000, Note_on_c, 2, 40, 0
4, 90000, Note_on_c, 2, 36, 100
4, 90120, Note_on_c, 2, 36, 0
4, 90120, Note_on_c, 2, 33, 100
4, 90240, Note_on_c, 2, 33, 0
4, 90240, Note_on_c, 2, 35, 100
4, 90360, Note_on_c, 2, 35, 0
4, 90360, Note_on_c, 2, 47, 100
4, 90420, Note_on_c, 2, 47, 0
4, 90420, Note_on_c, 2, 45, 100
4, 90480, Note_on_c, 2, 45, 0
4, 90480, Note_on_c, 2, 47, 100
4, 90600, Note_on_c, 2, 47, 0
4, 90600, Note_on_c, 2, 35, 100
4, 90720, Note_on_c, 2, 35, 0
4, 90720, Note_on_c, 2, 40, 100
4, 90840, Note_on_c, 2, 40, 0
4, 90840, Note_on_c, 2, 38, 100
4, 90960, Note_on_c, 2, 38, 0
4, 90960, Note_on_c, 2, 36, 100
4, 91080, Note_on_c, 2, 36, 0
4, 91080, Note_on_c, 2, 35, 100
4, 91200, Note_on_c, 2, 35, 0
4, 91200, Note_on_c, 2, 33, 100
4, 91320, Note_on_c, 2, 33, 0
4, 91320, Note_on_c, 2, 45, 100
4, 91440, Note_on_c, 2, 45, 0
4, 91440, Note_on_c, 2, 47, 100
4, 91560, Note_on_c, 2, 47, 0
4, 91560, Note_on_c, 2, 35, 100
4, 91680, Note_on_c, 2, 35, 0
4, 91680, Note_on_c, 2, 40, 100
4, 91740, Note_on_c, 2, 40, 0
4, 91740, Note_on_c, 2, 42, 100
4, 91800, Note_on_c, 2, 42, 0
4, 91800, Note_on_c, 2, 39, 100
4, 91860, Note_on_c, 2, 39, 0
4, 91860, Note_on_c, 2, 42, 100
4, 91920, Note_on_c, 2, 42, 0
4, 91920, Note_on_c, 2, 40, 100
4, 91980, Note_on_c, 2, 40, 0
4, 91980, Note_on_c, 2, 43, 100
4, 92040, Note_on_c, 2, 43, 0
4, 92040, Note_on_c, 2, 42, 100
4, 92100, Note_on_c, 2, 42, 0
4, 92100, Note_on_c, 2, 45, 100
4, 92160, Note_on_c, 2, 45, 0
4, 92160, Note_on_c, 2, 43, 100
4, 92220, Note_on_c, 2, 43, 0
4, 92220, Note_on_c, 2, 45, 100
4, 92280, Note_on_c, 2, 45, 0
4, 92280, Note_on_c, 2, 42, 100
4, 92340, Note_on_c, 2, 42, 0
4, 92340, Note_on_c, 2, 45, 100
4, 92400, Note_on_c, 2, 45, 0
4, 92400, Note_on_c, 2, 43, 100
4, 92460, Note_on_c, 2, 43, 0
4, 92460, Note_on_c, 2, 47, 100
4, 92520, Note_on_c, 2, 47, 0
4, 92520, Note_on_c, 2, 45, 100
4, 92580, Note_on_c, 2, 45, 0
4, 92580, Note_on_c, 2, 48, 100
4, 92640, Note_on_c, 2, 48, 0
4, 92640, Note_on_c, 2, 47, 100
4, 92760, Note_on_c, 2, 47, 0
4, 92760, Note_on_c, 2, 35, 100
4, 92880, Note_on_c, 2, 35, 0
4, 92940, Note_on_c, 2, 35, 100
4, 93000, Note_on_c, 2, 35, 0
4, 93000, Note_on_c, 2, 33, 100
4, 93060, Note_on_c, 2, 33, 0
4, 93060, Note_on_c, 2, 35, 100
4, 93120, Note_on_c, 2, 35, 0
4, 93120, Note_on_c, 2, 31, 100
4, 93180, Note_on_c, 2, 31, 0
4, 93180, Note_on_c, 2, 35, 100
4, 93240, Note_on_c, 2, 35, 0
4, 93240, Note_on_c, 2, 33, 100
4, 93300, Note_on_c, 2, 33, 0
4, 93300, Note_on_c, 2, 36, 100
4, 93360, Note_on_c, 2, 36, 0
4, 93360, Note_on_c, 2, 35, 100
4, 93420, Note_on_c, 2, 35, 0
4, 93420, Note_on_c, 2, 38, 100
4, 93480, Note_on_c, 2, 38, 0
4, 93480, Note_on_c, 2, 37, 100
4, 93540, Note_on_c, 2, 37, 0
4, 93540, Note_on_c, 2, 40, 100
4, 93600, Note_on_c, 2, 40, 0
4, 93600, Note_on_c, 2, 38, 100
4, 93720, Note_on_c, 2, 38, 0
4, 93720, Note_on_c, 2, 26, 100
4, 93840, Note_on_c, 2, 26, 0
4, 93900, Note_on_c, 2, 38, 100
4, 93960, Note_on_c, 2, 38, 0
4, 93960, Note_on_c, 2, 39, 100
4, 94020, Note_on_c, 2, 39, 0
4, 94020, Note_on_c, 2, 35, 100
4, 94080, Note_on_c, 2, 35, 0
4, 94080, Note_on_c, 2, 40, 100
4, 94200, Note_on_c, 2, 40, 0
4, 94200, Note_on_c, 2, 28, 100
4, 94320, Note_on_c, 2, 28, 0
4, 94380, Note_on_c, 2, 40, 100
4, 94440, Note_on_c, 2, 40, 0
4, 94440, Note_on_c, 2, 43, 100
4, 94500, Note_on_c, 2, 43, 0
4, 94500, Note_on_c, 2, 40, 100
4, 94560, Note_on_c, 2, 40, 0
4, 94560, Note_on_c, 2, 45, 100
4, 94680, Note_on_c, 2, 45, 0
4, 94680, Note_on_c, 2, 42, 100
4, 94800, Note_on_c, 2, 42, 0
4, 94800, Note_on_c, 2, 47, 100
4, 94920, Note_on_c, 2, 47, 0
4, 94920, Note_on_c, 2, 35, 100
4, 95040, Note_on_c, 2, 35, 0
4, 95040, Note_on_c, 2, 28, 100
4, 95232, Note_on_c, 2, 28, 0
4, 108600, Note_on_c, 2, 33, 100
4, 108720, Note_on_c, 2, 33, 0
4, 108720, Note_on_c, 2, 33, 100
4, 108840, Note_on_c, 2, 33, 0
4, 108840, Note_on_c, 2, 33, 100
4, 108960, Note_on_c, 2, 33, 0
4, 108960, Note_on_c, 2, 38, 100
4, 109080, Note_on_c, 2, 38, 0
4, 109080, Note_on_c, 2, 38, 100
4, 109200, Note_on_c, 2, 38, 0
4, 109200, Note_on_c, 2, 38, 100
4, 109320, Note_on_c, 2, 38, 0
4, 109320, Note_on_c, 2, 38, 100
4, 109440, Note_on_c, 2, 38, 0
4, 109440, Note_on_c, 2, 38, 100
4, 109560, Note_on_c, 2, 38, 0
4, 109560, Note_on_c, 2, 37, 100
4, 109620, Note_on_c, 2, 37, 0
4, 109620, Note_on_c, 2, 35, 100
4, 109680, Note_on_c, 2, 35, 0
4, 109680, Note_on_c, 2, 37, 100
4, 109800, Note_on_c, 2, 37, 0
4, 109800, Note_on_c, 2, 33, 100
4, 109920, Note_on_c, 2, 33, 0
4, 109920, Note_on_c, 2, 42, 100
4, 110040, Note_on_c, 2, 42, 0
4, 110040, Note_on_c, 2, 42, 100
4, 110160, Note_on_c, 2, 42, 0
4, 110160, Note_on_c, 2, 42, 100
4, 110280, Note_on_c, 2, 42, 0
4, 110280, Note_on_c, 2, 42, 100
4, 110400, Note_on_c, 2, 42, 0
4, 110400, Note_on_c, 2, 42, 100
4, 110520, Note_on_c, 2, 42, 0
4, 110520, Note_on_c, 2, 40, 100
4, 110580, Note_on_c, 2, 40, 0
4, 110580, Note_on_c, 2, 38, 100
4, 110640, Note_on_c, 2, 38, 0
4, 110640, Note_on_c, 2, 40, 100
4, 110760, Note_on_c, 2, 40, 0
4, 110760, Note_on_c, 2, 40, 100
4, 110880, Note_on_c, 2, 40, 0
4, 110880, Note_on_c, 2, 40, 100
4, 111000, Note_on_c, 2, 40, 0
4, 111000, Note_on_c, 2, 33, 100
4, 111120, Note_on_c, 2, 33, 0
4, 111120, Note_on_c, 2, 38, 100
4, 111600, Note_on_c, 2, 38, 0
4, 111600, Note_on_c, 2, 37, 100
4, 111840, Note_on_c, 2, 37, 0
4, 111840, Note_on_c, 2, 38, 100
4, 111960, Note_on_c, 2, 38, 0
4, 111960, Note_on_c, 2, 40, 100
4, 112080, Note_on_c, 2, 40, 0
4, 112080, Note_on_c, 2, 42, 100
4, 112200, Note_on_c, 2, 42, 0
4, 112200, Note_on_c, 2, 38, 100
4, 112320, Note_on_c, 2, 38, 0
4, 112320, Note_on_c, 2, 40, 100
4, 112440, Note_on_c, 2, 40, 0
4, 112440, Note_on_c, 2, 40, 100
4, 112560, Note_on_c, 2, 40, 0
4, 112560, Note_on_c, 2, 42, 100
4, 112680, Note_on_c, 2, 42, 0
4, 112680, Note_on_c, 2, 42, 100
4, 112800, Note_on_c, 2, 42, 0
4, 112800, Note_on_c, 2, 43, 100
4, 113040, Note_on_c, 2, 43, 0
4, 113160, Note_on_c, 2, 31, 100
4, 113280, Note_on_c, 2, 31, 0
4, 113280, Note_on_c, 2, 33, 100
4, 113400, Note_on_c, 2, 33, 0
4, 113400, Note_on_c, 2, 33, 100
4, 113520, Note_on_c, 2, 33, 0
4, 113520, Note_on_c, 2, 35, 100
4, 113640, Note_on_c, 2, 35, 0
4, 113640, Note_on_c, 2, 35, 100
4, 113760, Note_on_c, 2, 35, 0
4, 113760, Note_on_c, 2, 36, 100
4, 114000, Note_on_c, 2, 36, 0
4, 114120, Note_on_c, 2, 36, 100
4, 114240, Note_on_c, 2, 36, 0
4, 114240, Note_on_c, 2, 38, 100
4, 114360, Note_on_c, 2, 38, 0
4, 114360, Note_on_c, 2, 38, 100
4, 114480, Note_on_c, 2, 38, 0
4, 114480, Note_on_c, 2, 40, 100
4, 114600, Note_on_c, 2, 40, 0
4, 114600, Note_on_c, 2, 40, 100
4, 114720, Note_on_c, 2, 40, 0
4, 114720, Note_on_c, 2, 41, 100
4, 114840, Note_on_c, 2, 41, 0
4, 114840, Note_on_c, 2, 40, 100
4, 114960, Note_on_c, 2, 40, 0
4, 114960, Note_on_c, 2, 41, 100
4, 115080, Note_on_c, 2, 41, 0
4, 115080, Note_on_c, 2, 38, 100
4, 115200, Note_on_c, 2, 38, 0
4, 115200, Note_on_c, 2, 40, 100
4, 115320, Note_on_c, 2, 40, 0
4, 115320, Note_on_c, 2, 38, 100
4, 115440, Note_on_c, 2, 38, 0
4, 115440, Note_on_c, 2, 36, 100
4, 115560, Note_on_c, 2, 36, 0
4, 115560, Note_on_c, 2, 35, 100
4, 115680, Note_on_c, 2, 35, 0
4, 115680, Note_on_c, 2, 33, 100
4, 115800, Note_on_c, 2, 33, 0
4, 115800, Note_on_c, 2, 31, 100
4, 115920, Note_on_c, 2, 31, 0
4, 115920, Note_on_c, 2, 29, 100
4, 116160, Note_on_c, 2, 29, 0
4, 116160, Note_on_c, 2, 28, 100
4, 116280, Note_on_c, 2, 28, 0
4, 116280, Note_on_c, 2, 40, 100
4, 116400, Note_on_c, 2, 40, 0
4, 116460, Note_on_c, 2, 40, 100
4, 116520, Note_on_c, 2, 40, 0
4, 116520, Note_on_c, 2, 44, 100
4, 116580, Note_on_c, 2, 44, 0
4, 116580, Note_on_c, 2, 40, 100
4, 116640, Note_on_c, 2, 40, 0
4, 116640, Note_on_c, 2, 45, 100
4, 116760, Note_on_c, 2, 45, 0
4, 116760, Note_on_c, 2, 33, 100
4, 116880, Note_on_c, 2, 33, 0
4, 116940, Note_on_c, 2, 33, 100
4, 117000, Note_on_c, 2, 33, 0
4, 117000, Note_on_c, 2, 36, 100
4, 117060, Note_on_c, 2, 36, 0
4, 117060, Note_on_c, 2, 33, 100
4, 117120, Note_on_c, 2, 33, 0
4, 117120, Note_on_c, 2, 38, 100
4, 117240, Note_on_c, 2, 38, 0
4, 117240, Note_on_c, 2, 26, 100
4, 117360, Note_on_c, 2, 26, 0
4, 117420, Note_on_c, 2, 35, 100
4, 117480, Note_on_c, 2, 35, 0
4, 117480, Note_on_c, 2, 38, 100
4, 117540, Note_on_c, 2, 38, 0
4, 117540, Note_on_c, 2, 35, 100
4, 117600, Note_on_c, 2, 35, 0
4, 117600, Note_on_c, 2, 36, 100
4, 117720, Note_on_c, 2, 36, 0
4, 117720, Note_on_c, 2, 24, 100
4, 117840, Note_on_c, 2, 24, 0
4, 117900, Note_on_c, 2, 36, 100
4, 117960, Note_on_c, 2, 36, 0
4, 117960, Note_on_c, 2, 40, 100
4, 118020, Note_on_c, 2, 40, 0
4, 118020, Note_on_c, 2, 36, 100
4, 118080, Note_on_c, 2, 36, 0
4, 118080, Note_on_c, 2, 41, 100
4, 118200, Note_on_c, 2, 41, 0
4, 118200, Note_on_c, 2, 38, 100
4, 118320, Note_on_c, 2, 38, 0
4, 118320, Note_on_c, 2, 40, 100
4, 118440, Note_on_c, 2, 40, 0
4, 118440, Note_on_c, 2, 28, 100
4, 118560, Note_on_c, 2, 28, 0
4, 118560, Note_on_c, 2, 33, 100
4, 118800, Note_on_c, 2, 33, 0
4, 118860, Note_on_c, 2, 33, 100
4, 118920, Note_on_c, 2, 33, 0
4, 118920, Note_on_c, 2, 36, 100
4, 118980, Note_on_c, 2, 36, 0
4, 118980, Note_on_c, 2, 33, 100
4, 119040, Note_on_c, 2, 33, 0
4, 119040, Note_on_c, 2, 35, 100
4, 119280, Note_on_c, 2, 35, 0
4, 119340, Note_on_c, 2, 37, 100
4, 119400, Note_on_c, 2, 37, 0
4, 119400, Note_on_c, 2, 40, 100
4, 119460, Note_on_c, 2, 40, 0
4, 119460, Note_on_c, 2, 37, 100
4, 119520, Note_on_c, 2, 37, 0
4, 119520, Note_on_c, 2, 38, 100
4, 119760, Note_on_c, 2, 38, 0
4, 119820, Note_on_c, 2, 38, 100
4, 119880, Note_on_c, 2, 38, 0
4, 119880, Note_on_c, 2, 42, 100
4, 119940, Note_on_c, 2, 42, 0
4, 119940, Note_on_c, 2, 38, 100
4, 120000, Note_on_c, 2, 38, 0
4, 120000, Note_on_c, 2, 40, 100
4, 120240, Note_on_c, 2, 40, 0
4, 120300, Note_on_c, 2, 42, 100
4, 120360, Note_on_c, 2, 42, 0
4, 120360, Note_on_c, 2, 45, 100
4, 120420, Note_on_c, 2, 45, 0
4, 120420, Note_on_c, 2, 42, 100
4, 120480, Note_on_c, 2, 42, 0
4, 120480, Note_on_c, 2, 43, 100
4, 120720, Note_on_c, 2, 43, 0
4, 120780, Note_on_c, 2, 43, 100
4, 120840, Note_on_c, 2, 43, 0
4, 120840, Note_on_c, 2, 47, 100
4, 120900, Note_on_c, 2, 47, 0
4, 120900, Note_on_c, 2, 43, 100
4, 120960, Note_on_c, 2, 43, 0
4, 120960, Note_on_c, 2, 45, 100
4, 121200, Note_on_c, 2, 45, 0
4, 121260, Note_on_c, 2, 47, 100
4, 121320, Note_on_c, 2, 47, 0
4, 121320, Note_on_c, 2, 50, 100
4, 121380, Note_on_c, 2, 50, 0
4, 121380, Note_on_c, 2, 47, 100
4, 121440, Note_on_c, 2, 47, 0
4, 121440, Note_on_c, 2, 48, 100
4, 121560, Note_on_c, 2, 48, 0
4, 121560, Note_on_c, 2, 36, 100
4, 121680, Note_on_c, 2, 36, 0
4, 121680, Note_on_c, 2, 36, 100
4, 121800, Note_on_c, 2, 36, 0
4, 121800, Note_on_c, 2, 36, 100
4, 121920, Note_on_c, 2, 36, 0
4, 121920, Note_on_c, 2, 43, 100
4, 122040, Note_on_c, 2, 43, 0
4, 122040, Note_on_c, 2, 43, 100
4, 122160, Note_on_c, 2, 43, 0
4, 122160, Note_on_c, 2, 43, 100
4, 122280, Note_on_c, 2, 43, 0
4, 122280, Note_on_c, 2, 43, 100
4, 122400, Note_on_c, 2, 43, 0
4, 122400, Note_on_c, 2, 43, 100
4, 122520, Note_on_c, 2, 43, 0
4, 122520, Note_on_c, 2, 42, 100
4, 122580, Note_on_c, 2, 42, 0
4, 122580, Note_on_c, 2, 40, 100
4, 122640, Note_on_c, 2, 40, 0
4, 122640, Note_on_c, 2, 42, 100
4, 122760, Note_on_c, 2, 42, 0
4, 122760, Note_on_c, 2, 38, 100
4, 122880, Note_on_c, 2, 38, 0
4, 122880, Note_on_c, 2, 46, 100
4, 123000, Note_on_c, 2, 46, 0
4, 123000, Note_on_c, 2, 46, 100
4, 123120, Note_on_c, 2, 46, 0
4, 123120, Note_on_c, 2, 46, 100
4, 123240, Note_on_c, 2, 46, 0
4, 123240, Note_on_c, 2, 46, 100
4, 123360, Note_on_c, 2, 46, 0
4, 123360, Note_on_c, 2, 46, 100
4, 123480, Note_on_c, 2, 46, 0
4, 123480, Note_on_c, 2, 45, 100
4, 123540, Note_on_c, 2, 45, 0
4, 123540, Note_on_c, 2, 43, 100
4, 123600, Note_on_c, 2, 43, 0
4, 123600, Note_on_c, 2, 45, 100
4, 123720, Note_on_c, 2, 45, 0
4, 123720, Note_on_c, 2, 45, 100
4, 123840, Note_on_c, 2, 45, 0
4, 123840, Note_on_c, 2, 45, 100
4, 123960, Note_on_c, 2, 45, 0
4, 123960, Note_on_c, 2, 38, 100
4, 124080, Note_on_c, 2, 38, 0
4, 124080, Note_on_c, 2, 43, 100
4, 124560, Note_on_c, 2, 43, 0
4, 124560, Note_on_c, 2, 42, 100
4, 124800, Note_on_c, 2, 42, 0
4, 124800, Note_on_c, 2, 43, 100
4, 125040, Note_on_c, 2, 43, 0
4, 125160, Note_on_c, 2, 31, 100
4, 125280, Note_on_c, 2, 31, 0
4, 125280, Note_on_c, 2, 36, 100
4, 125520, Note_on_c, 2, 36, 0
4, 125640, Note_on_c, 2, 36, 100
4, 125760, Note_on_c, 2, 36, 0
4, 125760, Note_on_c, 2, 38, 100
4, 126000, Note_on_c, 2, 38, 0
4, 126240, Note_on_c, 2, 38, 100
4, 126480, Note_on_c, 2, 38, 0
4, 126720, Note_on_c, 2, 26, 100
4, 126960, Note_on_c, 2, 26, 0
4, 127200, Note_on_c, 2, 26, 100
4, 127320, Note_on_c, 2, 26, 0
4, 127320, Note_on_c, 2, 38, 100
4, 127440, Note_on_c, 2, 38, 0
4, 127440, Note_on_c, 2, 38, 100
4, 127560, Note_on_c, 2, 38, 0
4, 127560, Note_on_c, 2, 38, 100
4, 127680, Note_on_c, 2, 38, 0
4, 127680, Note_on_c, 2, 43, 100
4, 127800, Note_on_c, 2, 43, 0
4, 127800, Note_on_c, 2, 43, 100
4, 127920, Note_on_c, 2, 43, 0
4, 127920, Note_on_c, 2, 43, 100
4, 128040, Note_on_c, 2, 43, 0
4, 128040, Note_on_c, 2, 43, 100
4, 128160, Note_on_c, 2, 43, 0
4, 128160, Note_on_c, 2, 43, 100
4, 128280, Note_on_c, 2, 43, 0
4, 128280, Note_on_c, 2, 42, 100
4, 128340, Note_on_c, 2, 42, 0
4, 128340, Note_on_c, 2, 40, 100
4, 128400, Note_on_c, 2, 40, 0
4, 128400, Note_on_c, 2, 42, 100
4, 128520, Note_on_c, 2, 42, 0
4, 128520, Note_on_c, 2, 38, 100
4, 128640, Note_on_c, 2, 38, 0
4, 128640, Note_on_c, 2, 47, 100
4, 128760, Note_on_c, 2, 47, 0
4, 128760, Note_on_c, 2, 47, 100
4, 128880, Note_on_c, 2, 47, 0
4, 128880, Note_on_c, 2, 47, 100
4, 129000, Note_on_c, 2, 47, 0
4, 129000, Note_on_c, 2, 47, 100
4, 129120, Note_on_c, 2, 47, 0
4, 129120, Note_on_c, 2, 47, 100
4, 129240, Note_on_c, 2, 47, 0
4, 129240, Note_on_c, 2, 45, 100
4, 129300, Note_on_c, 2, 45, 0
4, 129300, Note_on_c, 2, 43, 100
4, 129360, Note_on_c, 2, 43, 0
4, 129360, Note_on_c, 2, 45, 100
4, 129480, Note_on_c, 2, 45, 0
4, 129480, Note_on_c, 2, 45, 100
4, 129600, Note_on_c, 2, 45, 0
4, 129600, Note_on_c, 2, 45, 100
4, 129720, Note_on_c, 2, 45, 0
4, 129720, Note_on_c, 2, 38, 100
4, 129840, Note_on_c, 2, 38, 0
4, 129840, Note_on_c, 2, 43, 100
4, 130320, Note_on_c, 2, 43, 0
4, 130320, Note_on_c, 2, 42, 100
4, 130560, Note_on_c, 2, 42, 0
4, 130560, Note_on_c, 2, 43, 100
4, 130800, Note_on_c, 2, 43, 0
4, 130920, Note_on_c, 2, 42, 100
4, 131040, Note_on_c, 2, 42, 0
4, 131040, Note_on_c, 2, 40, 100
4, 131520, Note_on_c, 2, 40, 0
4, 131520, Note_on_c, 2, 38, 100
4, 131640, Note_on_c, 2, 38, 0
4, 131640, Note_on_c, 2, 36, 100
4, 131760, Note_on_c, 2, 36, 0
4, 131760, Note_on_c, 2, 35, 100
4, 131880, Note_on_c, 2, 35, 0
4, 131880, Note_on_c, 2, 33, 100
4, 132000, Note_on_c, 2, 33, 0
4, 132000, Note_on_c, 2, 31, 100
4, 132060, Note_on_c, 2, 31, 0
4, 132060, Note_on_c, 2, 43, 100
4, 132120, Note_on_c, 2, 43, 0
4, 132120, Note_on_c, 2, 42, 100
4, 132180, Note_on_c, 2, 42, 0
4, 132180, Note_on_c, 2, 43, 100
4, 132240, Note_on_c, 2, 43, 0
4, 132240, Note_on_c, 2, 40, 100
4, 132300, Note_on_c, 2, 40, 0
4, 132300, Note_on_c, 2, 42, 100
4, 132360, Note_on_c, 2, 42, 0
4, 132360, Note_on_c, 2, 38, 100
4, 132420, Note_on_c, 2, 38, 0
4, 132420, Note_on_c, 2, 40, 100
4, 132480, Note_on_c, 2, 40, 0
4, 132480, Note_on_c, 2, 36, 100
4, 132720, Note_on_c, 2, 36, 0
4, 132780, Note_on_c, 2, 48, 100
4, 132840, Note_on_c, 2, 48, 0
4, 132840, Note_on_c, 2, 47, 100
4, 132900, Note_on_c, 2, 47, 0
4, 132900, Note_on_c, 2, 48, 100
4, 132960, Note_on_c, 2, 48, 0
4, 132960, Note_on_c, 2, 42, 100
4, 133020, Note_on_c, 2, 42, 0
4, 133020, Note_on_c, 2, 43, 100
4, 133080, Note_on_c, 2, 43, 0
4, 133080, Note_on_c, 2, 42, 100
4, 133140, Note_on_c, 2, 42, 0
4, 133140, Note_on_c, 2, 45, 100
4, 133200, Note_on_c, 2, 45, 0
4, 133200, Note_on_c, 2, 35, 100
4, 133260, Note_on_c, 2, 35, 0
4, 133260, Note_on_c, 2, 36, 100
4, 133320, Note_on_c, 2, 36, 0
4, 133320, Note_on_c, 2, 35, 100
4, 133380, Note_on_c, 2, 35, 0
4, 133380, Note_on_c, 2, 38, 100
4, 133440, Note_on_c, 2, 38, 0
4, 133440, Note_on_c, 2, 28, 100
4, 133560, Note_on_c, 2, 28, 0
4, 133560, Note_on_c, 2, 40, 100
4, 133680, Note_on_c, 2, 40, 0
4, 133680, Note_on_c, 2, 33, 100
4, 133800, Note_on_c, 2, 33, 0
4, 133800, Note_on_c, 2, 38, 100
4, 133920, Note_on_c, 2, 38, 0
4, 133920, Note_on_c, 2, 31, 100
4, 134160, Note_on_c, 2, 31, 0
4, 134280, Note_on_c, 2, 29, 100
4, 134400, Note_on_c, 2, 29, 0
4, 134400, Note_on_c, 2, 28, 100
4, 134640, Note_on_c, 2, 28, 0
4, 134760, Note_on_c, 2, 28, 100
4, 134880, Note_on_c, 2, 28, 0
4, 134880, Note_on_c, 2, 26, 100
4, 135120, Note_on_c, 2, 26, 0
4, 135240, Note_on_c, 2, 26, 100
4, 135360, Note_on_c, 2, 26, 0
4, 135360, Note_on_c, 2, 24, 100
4, 135600, Note_on_c, 2, 24, 0
4, 135720, Note_on_c, 2, 24, 100
4, 135840, Note_on_c, 2, 24, 0
4, 135840, Note_on_c, 2, 31, 100
4, 138720, Note_on_c, 2, 31, 0
4, 138720, End_track
5, 0, Start_track
5, 0, MIDI_port, 0
5, 0, Title_t, "Prelude and Fugue in G Major - BWV 541"
5, 0, End_track
6, 0, Start_track
6, 0, MIDI_port, 0
6, 0, Title_t, "--------------------------------------"
6, 0, End_track
7, 0, Start_track
7, 0, MIDI_port, 0
7, 0, Title_t, "sequenced by Dean Lampe  1/96"
7, 0, End_track
8, 0, Start_track
8, 0, MIDI_port, 0
8, 0, Title_t, "e-mail: dlampe@tic.bisman.com"
8, 0, End_track
9, 0, Start_track
9, 0, MIDI_port, 0
9, 0, Title_t, "http://www.bisman.com/pwp/dlampe/dlampe.html"
9, 0, End_track
10, 0, Start_track
10, 0, MIDI_port, 0
10, 0, Title_t, "--------------------------------------"
10, 0, End_track
11, 0, Start_track
11, 0, MIDI_port, 0
11, 0, Title_t, "courtesy of Dave's J.S. Bach Page"
11, 0, End_track
12, 0, Start_track
12, 0, MIDI_port, 0
12, 0, Title_t, "http://www.unpronounceable.com/bach"
12, 0, End_track
13, 0, Start_track
13, 0, MIDI_port, 0
13, 0, Title_t, "--------------------------------------"
13, 0, End_track
14, 0, Start_track
14, 0, MIDI_port, 0
14, 0, Title_t, "Original Filename: jsbwv541.mid"
14, 0, End_track
0, 0, End_of_file
