0, 0, Header, 1, 14, 240
1, 0, Start_track
1, 0, Title_t, "untitled"
1, 0, SMPTE_offset, 96, 0, 3, 0, 0
1, 0, Time_signature, 4, 2, 24, 8
1, 0, Key_signature, 0, "major"
1, 0, Tempo, 600000
1, 14400, Tempo, 645161
1, 15360, Tempo, 689655
1, 16320, Tempo, 600000
1, 28320, Tempo, 638298
1, 28324, Tempo, 606061
1, 28328, Tempo, 600000
1, 28800, Tempo, 689655
1, 29044, Tempo, 705882
1, 29048, Tempo, 697674
1, 29308, Tempo, 800000
1, 29536, Tempo, 810811
1, 29760, Tempo, 571429
1, 34560, Tempo, 600000
1, 92160, Tempo, 645161
1, 92640, Tempo, 689655
1, 93120, Tempo, 769231
1, 93600, Tempo, 845070
1, 94080, Tempo, 600000
1, 104640, Tempo, 666667
1, 105600, Tempo, 705882
1, 106560, Tempo, 600000
1, 165120, Tempo, 631579
1, 165584, Tempo, 674157
1, 166080, Tempo, 666667
1, 166548, Tempo, 722892
1, 166804, Tempo, 779221
1, 167040, Tempo, 600000
1, 193920, Tempo, 652174
1, 194880, Tempo, 705882
1, 195356, Tempo, 769231
1, 195840, Tempo, 779221
1, 195856, Tempo, 857143
1, 196312, Tempo, 845070
1, 196800, Tempo, 857143
1, 197760, Time_signature, 8, 2, 24, 8
1, 197760, Tempo, 441176
1, 262084, Tempo, 465116
1, 264000, Tempo, 487805
1, 266880, Time_signature, 6, 2, 24, 8
1, 266880, Tempo, 363636
1, 328800, Tempo, 382166
1, 329520, Tempo, 402685
1, 330240, Tempo, 451128
1, 330956, Tempo, 472441
1, 331680, Time_signature, 12, 3, 12, 8
1, 331680, Tempo, 666667
1, 380644, Tempo, 750000
1, 381368, Tempo, 857143
1, 382080, Tempo, 1071429
1, 382448, Tempo, 1463415
1, 383160, Tempo, 2000000
1, 383160, End_track
2, 0, Start_track
2, 0, MIDI_port, 0
2, 0, Title_t, "Organ"
2, 0, Program_c, 0, 19
2, 0, Control_c, 0, 7, 100
2, 0, Control_c, 0, 10, 64
2, 0, Control_c, 0, 91, 120
2, 0, Note_on_c, 0, 63, 115
2, 0, Note_on_c, 0, 70, 115
2, 30, Note_on_c, 0, 70, 0
2, 30, Note_on_c, 0, 68, 115
2, 60, Note_on_c, 0, 68, 0
2, 60, Note_on_c, 0, 70, 115
2, 300, Note_on_c, 0, 70, 0
2, 300, Note_on_c, 0, 68, 115
2, 360, Note_on_c, 0, 68, 0
2, 360, Note_on_c, 0, 67, 115
2, 420, Note_on_c, 0, 67, 0
2, 420, Note_on_c, 0, 65, 115
2, 480, Note_on_c, 0, 65, 0
2, 480, Note_on_c, 0, 63, 0
2, 480, Note_on_c, 0, 63, 115
2, 840, Note_on_c, 0, 63, 0
2, 840, Note_on_c, 0, 75, 115
2, 840, Note_on_c, 0, 70, 115
2, 840, Note_on_c, 0, 63, 115
2, 960, Note_on_c, 0, 63, 0
2, 960, Note_on_c, 0, 70, 0
2, 960, Note_on_c, 0, 75, 0
2, 960, Note_on_c, 0, 68, 115
2, 960, Note_on_c, 0, 65, 115
2, 960, Note_on_c, 0, 75, 115
2, 1440, Note_on_c, 0, 75, 0
2, 1440, Note_on_c, 0, 74, 115
2, 1920, Note_on_c, 0, 74, 0
2, 1920, Note_on_c, 0, 77, 115
2, 2100, Note_on_c, 0, 77, 0
2, 2100, Note_on_c, 0, 75, 115
2, 2160, Note_on_c, 0, 75, 0
2, 2160, Note_on_c, 0, 74, 115
2, 2340, Note_on_c, 0, 74, 0
2, 2340, Note_on_c, 0, 72, 115
2, 2400, Note_on_c, 0, 72, 0
2, 2400, Note_on_c, 0, 65, 0
2, 2400, Note_on_c, 0, 68, 0
2, 2400, Note_on_c, 0, 70, 115
2, 2760, Note_on_c, 0, 70, 0
2, 2760, Note_on_c, 0, 62, 115
2, 2760, Note_on_c, 0, 68, 115
2, 2760, Note_on_c, 0, 65, 115
2, 2880, Note_on_c, 0, 65, 0
2, 2880, Note_on_c, 0, 68, 0
2, 2880, Note_on_c, 0, 62, 0
2, 2880, Note_on_c, 0, 62, 115
2, 2880, Note_on_c, 0, 68, 115
2, 2880, Note_on_c, 0, 65, 115
2, 3360, Note_on_c, 0, 65, 0
2, 3360, Note_on_c, 0, 68, 0
2, 3360, Note_on_c, 0, 62, 0
2, 3360, Note_on_c, 0, 67, 115
2, 3360, Note_on_c, 0, 63, 115
2, 3390, Note_on_c, 0, 63, 0
2, 3390, Note_on_c, 0, 62, 115
2, 3420, Note_on_c, 0, 62, 0
2, 3420, Note_on_c, 0, 63, 115
2, 3840, Note_on_c, 0, 63, 0
2, 3840, Note_on_c, 0, 67, 0
2, 3840, Note_on_c, 0, 79, 115
2, 3870, Note_on_c, 0, 79, 0
2, 3870, Note_on_c, 0, 77, 115
2, 3900, Note_on_c, 0, 77, 0
2, 3900, Note_on_c, 0, 79, 115
2, 4020, Note_on_c, 0, 79, 0
2, 4020, Note_on_c, 0, 80, 115
2, 4080, Note_on_c, 0, 80, 0
2, 4080, Note_on_c, 0, 79, 115
2, 4260, Note_on_c, 0, 79, 0
2, 4260, Note_on_c, 0, 77, 115
2, 4320, Note_on_c, 0, 77, 0
2, 4320, Note_on_c, 0, 79, 115
2, 4500, Note_on_c, 0, 79, 0
2, 4500, Note_on_c, 0, 75, 115
2, 4560, Note_on_c, 0, 75, 0
2, 4560, Note_on_c, 0, 74, 115
2, 4590, Note_on_c, 0, 74, 0
2, 4590, Note_on_c, 0, 75, 115
2, 4620, Note_on_c, 0, 75, 0
2, 4620, Note_on_c, 0, 74, 115
2, 4740, Note_on_c, 0, 74, 0
2, 4740, Note_on_c, 0, 72, 115
2, 4800, Note_on_c, 0, 72, 0
2, 4800, Note_on_c, 0, 77, 115
2, 4830, Note_on_c, 0, 77, 0
2, 4830, Note_on_c, 0, 75, 115
2, 4860, Note_on_c, 0, 75, 0
2, 4860, Note_on_c, 0, 77, 115
2, 4980, Note_on_c, 0, 77, 0
2, 4980, Note_on_c, 0, 79, 115
2, 5040, Note_on_c, 0, 79, 0
2, 5040, Note_on_c, 0, 77, 115
2, 5220, Note_on_c, 0, 77, 0
2, 5220, Note_on_c, 0, 75, 115
2, 5280, Note_on_c, 0, 75, 0
2, 5280, Note_on_c, 0, 77, 115
2, 5460, Note_on_c, 0, 77, 0
2, 5460, Note_on_c, 0, 74, 115
2, 5520, Note_on_c, 0, 74, 0
2, 5520, Note_on_c, 0, 72, 115
2, 5550, Note_on_c, 0, 72, 0
2, 5550, Note_on_c, 0, 74, 115
2, 5580, Note_on_c, 0, 74, 0
2, 5580, Note_on_c, 0, 72, 115
2, 5700, Note_on_c, 0, 72, 0
2, 5700, Note_on_c, 0, 70, 115
2, 5760, Note_on_c, 0, 70, 0
2, 5760, Note_on_c, 0, 75, 115
2, 5940, Note_on_c, 0, 75, 0
2, 5940, Note_on_c, 0, 77, 115
2, 6000, Note_on_c, 0, 77, 0
2, 6000, Note_on_c, 0, 75, 115
2, 6180, Note_on_c, 0, 75, 0
2, 6180, Note_on_c, 0, 74, 115
2, 6240, Note_on_c, 0, 74, 0
2, 6240, Note_on_c, 0, 75, 115
2, 6420, Note_on_c, 0, 72, 115
2, 6480, Note_on_c, 0, 72, 0
2, 6480, Note_on_c, 0, 70, 115
2, 6660, Note_on_c, 0, 70, 0
2, 6660, Note_on_c, 0, 69, 115
2, 6720, Note_on_c, 0, 69, 0
2, 6720, Note_on_c, 0, 67, 115
2, 6900, Note_on_c, 0, 75, 0
2, 6900, Note_on_c, 0, 77, 115
2, 6960, Note_on_c, 0, 77, 0
2, 6960, Note_on_c, 0, 75, 115
2, 7140, Note_on_c, 0, 75, 0
2, 7140, Note_on_c, 0, 74, 115
2, 7200, Note_on_c, 0, 74, 0
2, 7200, Note_on_c, 0, 75, 115
2, 7380, Note_on_c, 0, 67, 0
2, 7380, Note_on_c, 0, 70, 115
2, 7440, Note_on_c, 0, 70, 0
2, 7440, Note_on_c, 0, 69, 115
2, 7620, Note_on_c, 0, 69, 0
2, 7620, Note_on_c, 0, 67, 115
2, 7680, Note_on_c, 0, 67, 0
2, 7680, Note_on_c, 0, 65, 115
2, 7860, Note_on_c, 0, 75, 0
2, 7860, Note_on_c, 0, 77, 115
2, 7920, Note_on_c, 0, 77, 0
2, 7920, Note_on_c, 0, 75, 115
2, 8100, Note_on_c, 0, 75, 0
2, 8100, Note_on_c, 0, 74, 115
2, 8160, Note_on_c, 0, 74, 0
2, 8160, Note_on_c, 0, 75, 115
2, 8340, Note_on_c, 0, 65, 0
2, 8340, Note_on_c, 0, 67, 115
2, 8400, Note_on_c, 0, 67, 0
2, 8400, Note_on_c, 0, 69, 115
2, 8580, Note_on_c, 0, 69, 0
2, 8580, Note_on_c, 0, 70, 115
2, 8640, Note_on_c, 0, 70, 0
2, 8640, Note_on_c, 0, 69, 115
2, 8820, Note_on_c, 0, 75, 0
2, 8820, Note_on_c, 0, 77, 115
2, 8880, Note_on_c, 0, 77, 0
2, 8880, Note_on_c, 0, 75, 115
2, 9060, Note_on_c, 0, 75, 0
2, 9060, Note_on_c, 0, 74, 115
2, 9120, Note_on_c, 0, 74, 0
2, 9120, Note_on_c, 0, 75, 115
2, 9300, Note_on_c, 0, 69, 0
2, 9300, Note_on_c, 0, 69, 115
2, 9360, Note_on_c, 0, 69, 0
2, 9360, Note_on_c, 0, 70, 115
2, 9540, Note_on_c, 0, 70, 0
2, 9540, Note_on_c, 0, 72, 115
2, 9600, Note_on_c, 0, 72, 0
2, 9600, Note_on_c, 0, 65, 115
2, 9780, Note_on_c, 0, 75, 0
2, 9780, Note_on_c, 0, 75, 115
2, 9840, Note_on_c, 0, 75, 0
2, 9840, Note_on_c, 0, 74, 115
2, 10020, Note_on_c, 0, 74, 0
2, 10020, Note_on_c, 0, 72, 115
2, 10080, Note_on_c, 0, 72, 0
2, 10080, Note_on_c, 0, 74, 115
2, 10560, Note_on_c, 0, 65, 0
2, 10560, Note_on_c, 0, 65, 115
2, 10920, Note_on_c, 0, 65, 0
2, 10980, Note_on_c, 0, 65, 115
2, 11040, Note_on_c, 0, 65, 0
2, 11040, Note_on_c, 0, 74, 0
2, 11040, Note_on_c, 0, 72, 115
2, 11040, Note_on_c, 0, 63, 115
2, 11070, Note_on_c, 0, 63, 0
2, 11070, Note_on_c, 0, 65, 115
2, 11100, Note_on_c, 0, 65, 0
2, 11100, Note_on_c, 0, 63, 115
2, 11340, Note_on_c, 0, 63, 0
2, 11460, Note_on_c, 0, 62, 115
2, 11520, Note_on_c, 0, 62, 0
2, 11520, Note_on_c, 0, 60, 115
2, 11700, Note_on_c, 0, 72, 0
2, 11700, Note_on_c, 0, 72, 115
2, 11760, Note_on_c, 0, 72, 0
2, 11760, Note_on_c, 0, 60, 0
2, 11760, Note_on_c, 0, 74, 115
2, 11940, Note_on_c, 0, 74, 0
2, 11940, Note_on_c, 0, 75, 115
2, 12000, Note_on_c, 0, 75, 0
2, 12000, Note_on_c, 0, 77, 115
2, 12180, Note_on_c, 0, 65, 115
2, 12240, Note_on_c, 0, 65, 0
2, 12240, Note_on_c, 0, 67, 115
2, 12420, Note_on_c, 0, 67, 0
2, 12420, Note_on_c, 0, 69, 115
2, 12480, Note_on_c, 0, 69, 0
2, 12480, Note_on_c, 0, 70, 115
2, 12660, Note_on_c, 0, 62, 115
2, 12720, Note_on_c, 0, 62, 0
2, 12720, Note_on_c, 0, 63, 115
2, 12900, Note_on_c, 0, 63, 0
2, 12900, Note_on_c, 0, 65, 115
2, 12960, Note_on_c, 0, 65, 0
2, 12960, Note_on_c, 0, 70, 0
2, 12960, Note_on_c, 0, 77, 0
2, 12960, Note_on_c, 0, 75, 115
2, 12960, Note_on_c, 0, 67, 115
2, 12960, Note_on_c, 0, 70, 115
2, 13140, Note_on_c, 0, 70, 0
2, 13140, Note_on_c, 0, 70, 115
2, 13200, Note_on_c, 0, 70, 0
2, 13200, Note_on_c, 0, 72, 115
2, 13380, Note_on_c, 0, 72, 0
2, 13380, Note_on_c, 0, 74, 115
2, 13440, Note_on_c, 0, 74, 0
2, 13440, Note_on_c, 0, 67, 0
2, 13440, Note_on_c, 0, 72, 115
2, 13620, Note_on_c, 0, 65, 115
2, 13680, Note_on_c, 0, 65, 0
2, 13680, Note_on_c, 0, 67, 115
2, 13860, Note_on_c, 0, 67, 0
2, 13860, Note_on_c, 0, 69, 115
2, 13920, Note_on_c, 0, 69, 0
2, 13920, Note_on_c, 0, 72, 0
2, 13920, Note_on_c, 0, 75, 0
2, 13920, Note_on_c, 0, 70, 115
2, 14100, Note_on_c, 0, 72, 115
2, 14160, Note_on_c, 0, 72, 0
2, 14160, Note_on_c, 0, 74, 115
2, 14340, Note_on_c, 0, 74, 0
2, 14340, Note_on_c, 0, 75, 115
2, 14400, Note_on_c, 0, 75, 0
2, 14400, Note_on_c, 0, 70, 0
2, 14400, Note_on_c, 0, 72, 115
2, 14400, Note_on_c, 0, 70, 115
2, 14580, Note_on_c, 0, 74, 115
2, 14640, Note_on_c, 0, 74, 0
2, 14640, Note_on_c, 0, 75, 115
2, 14820, Note_on_c, 0, 75, 0
2, 14820, Note_on_c, 0, 79, 115
2, 14880, Note_on_c, 0, 79, 0
2, 14880, Note_on_c, 0, 70, 0
2, 14880, Note_on_c, 0, 69, 115
2, 14880, Note_on_c, 0, 77, 115
2, 15060, Note_on_c, 0, 77, 0
2, 15060, Note_on_c, 0, 75, 115
2, 15120, Note_on_c, 0, 75, 0
2, 15120, Note_on_c, 0, 74, 115
2, 15300, Note_on_c, 0, 74, 0
2, 15300, Note_on_c, 0, 75, 115
2, 15360, Note_on_c, 0, 75, 0
2, 15360, Note_on_c, 0, 69, 0
2, 15360, Note_on_c, 0, 72, 0
2, 15360, Note_on_c, 0, 65, 115
2, 15360, Note_on_c, 0, 70, 115
2, 15360, Note_on_c, 0, 74, 115
2, 15840, Note_on_c, 0, 74, 0
2, 15840, Note_on_c, 0, 70, 0
2, 15840, Note_on_c, 0, 65, 0
2, 16200, Note_on_c, 0, 77, 115
2, 16200, Note_on_c, 0, 74, 115
2, 16200, Note_on_c, 0, 65, 115
2, 16320, Note_on_c, 0, 65, 0
2, 16320, Note_on_c, 0, 74, 0
2, 16320, Note_on_c, 0, 77, 0
2, 16320, Note_on_c, 0, 77, 115
2, 16320, Note_on_c, 0, 65, 115
2, 16320, Note_on_c, 0, 74, 115
2, 16800, Note_on_c, 0, 65, 0
2, 16800, Note_on_c, 0, 67, 115
2, 17160, Note_on_c, 0, 74, 0
2, 17220, Note_on_c, 0, 72, 115
2, 17280, Note_on_c, 0, 72, 0
2, 17280, Note_on_c, 0, 71, 115
2, 17295, Note_on_c, 0, 71, 0
2, 17295, Note_on_c, 0, 72, 115
2, 17310, Note_on_c, 0, 72, 0
2, 17310, Note_on_c, 0, 71, 115
2, 17325, Note_on_c, 0, 71, 0
2, 17325, Note_on_c, 0, 72, 115
2, 17340, Note_on_c, 0, 72, 0
2, 17340, Note_on_c, 0, 71, 115
2, 17760, Note_on_c, 0, 71, 0
2, 17760, Note_on_c, 0, 67, 0
2, 17760, Note_on_c, 0, 77, 0
2, 18120, Note_on_c, 0, 74, 115
2, 18120, Note_on_c, 0, 67, 115
2, 18120, Note_on_c, 0, 62, 115
2, 18240, Note_on_c, 0, 62, 0
2, 18240, Note_on_c, 0, 67, 0
2, 18240, Note_on_c, 0, 74, 0
2, 18240, Note_on_c, 0, 67, 115
2, 18240, Note_on_c, 0, 74, 115
2, 18720, Note_on_c, 0, 74, 0
2, 18720, Note_on_c, 0, 72, 115
2, 19200, Note_on_c, 0, 67, 0
2, 19200, Note_on_c, 0, 68, 115
2, 19380, Note_on_c, 0, 68, 0
2, 19380, Note_on_c, 0, 70, 115
2, 19440, Note_on_c, 0, 70, 0
2, 19440, Note_on_c, 0, 68, 115
2, 19620, Note_on_c, 0, 68, 0
2, 19620, Note_on_c, 0, 67, 115
2, 19680, Note_on_c, 0, 67, 0
2, 19680, Note_on_c, 0, 72, 0
2, 19680, Note_on_c, 0, 70, 115
2, 19680, Note_on_c, 0, 68, 115
2, 19860, Note_on_c, 0, 68, 0
2, 19860, Note_on_c, 0, 65, 115
2, 19920, Note_on_c, 0, 65, 0
2, 19920, Note_on_c, 0, 63, 115
2, 20100, Note_on_c, 0, 63, 0
2, 20100, Note_on_c, 0, 62, 115
2, 20160, Note_on_c, 0, 62, 0
2, 20160, Note_on_c, 0, 67, 115
2, 20160, Note_on_c, 0, 55, 115
2, 20340, Note_on_c, 0, 55, 0
2, 20340, Note_on_c, 0, 65, 115
2, 20400, Note_on_c, 0, 65, 0
2, 20400, Note_on_c, 0, 63, 115
2, 20580, Note_on_c, 0, 63, 0
2, 20580, Note_on_c, 0, 62, 115
2, 20640, Note_on_c, 0, 62, 0
2, 20640, Note_on_c, 0, 63, 115
2, 20820, Note_on_c, 0, 63, 0
2, 20820, Note_on_c, 0, 58, 115
2, 20880, Note_on_c, 0, 58, 0
2, 20880, Note_on_c, 0, 56, 115
2, 21060, Note_on_c, 0, 56, 0
2, 21060, Note_on_c, 0, 55, 115
2, 21120, Note_on_c, 0, 55, 0
2, 21480, Note_on_c, 0, 67, 0
2, 21480, Note_on_c, 0, 70, 0
2, 21540, Note_on_c, 0, 67, 115
2, 21540, Note_on_c, 0, 70, 115
2, 21600, Note_on_c, 0, 70, 0
2, 21600, Note_on_c, 0, 67, 0
2, 21600, Note_on_c, 0, 65, 115
2, 21600, Note_on_c, 0, 68, 115
2, 21630, Note_on_c, 0, 68, 0
2, 21630, Note_on_c, 0, 67, 115
2, 21660, Note_on_c, 0, 67, 0
2, 21660, Note_on_c, 0, 68, 115
2, 21960, Note_on_c, 0, 68, 0
2, 21960, Note_on_c, 0, 65, 0
2, 22020, Note_on_c, 0, 67, 115
2, 22020, Note_on_c, 0, 63, 115
2, 22080, Note_on_c, 0, 63, 0
2, 22080, Note_on_c, 0, 67, 0
2, 22080, Note_on_c, 0, 63, 115
2, 22080, Note_on_c, 0, 67, 115
2, 22560, Note_on_c, 0, 67, 0
2, 22560, Note_on_c, 0, 63, 0
2, 22560, Note_on_c, 0, 62, 115
2, 22560, Note_on_c, 0, 65, 115
2, 22920, Note_on_c, 0, 65, 0
2, 22980, Note_on_c, 0, 67, 115
2, 23040, Note_on_c, 0, 67, 0
2, 23040, Note_on_c, 0, 62, 0
2, 23040, Note_on_c, 0, 68, 115
2, 23220, Note_on_c, 0, 68, 0
2, 23220, Note_on_c, 0, 70, 115
2, 23280, Note_on_c, 0, 70, 0
2, 23280, Note_on_c, 0, 68, 115
2, 23460, Note_on_c, 0, 68, 0
2, 23460, Note_on_c, 0, 67, 115
2, 23520, Note_on_c, 0, 67, 0
2, 23520, Note_on_c, 0, 68, 115
2, 23700, Note_on_c, 0, 68, 0
2, 23700, Note_on_c, 0, 77, 115
2, 23760, Note_on_c, 0, 77, 0
2, 23760, Note_on_c, 0, 70, 115
2, 23940, Note_on_c, 0, 70, 0
2, 23940, Note_on_c, 0, 68, 115
2, 24000, Note_on_c, 0, 68, 0
2, 24000, Note_on_c, 0, 67, 115
2, 24180, Note_on_c, 0, 67, 0
2, 24180, Note_on_c, 0, 68, 115
2, 24240, Note_on_c, 0, 68, 0
2, 24240, Note_on_c, 0, 67, 115
2, 24420, Note_on_c, 0, 67, 0
2, 24420, Note_on_c, 0, 65, 115
2, 24480, Note_on_c, 0, 65, 0
2, 24480, Note_on_c, 0, 67, 115
2, 24660, Note_on_c, 0, 67, 0
2, 24660, Note_on_c, 0, 75, 115
2, 24720, Note_on_c, 0, 75, 0
2, 24720, Note_on_c, 0, 67, 115
2, 24900, Note_on_c, 0, 67, 0
2, 24900, Note_on_c, 0, 65, 115
2, 24960, Note_on_c, 0, 65, 0
2, 24960, Note_on_c, 0, 63, 115
2, 25140, Note_on_c, 0, 63, 0
2, 25140, Note_on_c, 0, 65, 115
2, 25200, Note_on_c, 0, 65, 0
2, 25200, Note_on_c, 0, 63, 115
2, 25380, Note_on_c, 0, 63, 0
2, 25380, Note_on_c, 0, 62, 115
2, 25440, Note_on_c, 0, 62, 0
2, 25440, Note_on_c, 0, 63, 115
2, 25620, Note_on_c, 0, 63, 0
2, 25620, Note_on_c, 0, 72, 115
2, 25680, Note_on_c, 0, 72, 0
2, 25680, Note_on_c, 0, 65, 115
2, 25860, Note_on_c, 0, 65, 0
2, 25860, Note_on_c, 0, 63, 115
2, 25920, Note_on_c, 0, 63, 0
2, 25920, Note_on_c, 0, 62, 115
2, 26100, Note_on_c, 0, 62, 0
2, 26100, Note_on_c, 0, 63, 115
2, 26160, Note_on_c, 0, 63, 0
2, 26160, Note_on_c, 0, 62, 115
2, 26340, Note_on_c, 0, 62, 0
2, 26340, Note_on_c, 0, 60, 115
2, 26400, Note_on_c, 0, 60, 0
2, 26400, Note_on_c, 0, 62, 115
2, 26580, Note_on_c, 0, 62, 0
2, 26580, Note_on_c, 0, 58, 115
2, 26640, Note_on_c, 0, 58, 0
2, 26640, Note_on_c, 0, 62, 115
2, 26820, Note_on_c, 0, 62, 0
2, 26820, Note_on_c, 0, 65, 115
2, 26880, Note_on_c, 0, 65, 0
2, 26880, Note_on_c, 0, 70, 115
2, 27060, Note_on_c, 0, 70, 0
2, 27060, Note_on_c, 0, 72, 115
2, 27120, Note_on_c, 0, 72, 0
2, 27120, Note_on_c, 0, 70, 115
2, 27300, Note_on_c, 0, 70, 0
2, 27300, Note_on_c, 0, 68, 115
2, 27360, Note_on_c, 0, 68, 0
2, 27360, Note_on_c, 0, 70, 115
2, 27540, Note_on_c, 0, 70, 0
2, 27540, Note_on_c, 0, 63, 115
2, 27600, Note_on_c, 0, 63, 0
2, 27600, Note_on_c, 0, 67, 115
2, 27780, Note_on_c, 0, 67, 0
2, 27780, Note_on_c, 0, 70, 115
2, 27840, Note_on_c, 0, 70, 0
2, 27840, Note_on_c, 0, 75, 115
2, 28020, Note_on_c, 0, 60, 115
2, 28080, Note_on_c, 0, 60, 0
2, 28080, Note_on_c, 0, 62, 115
2, 28140, Note_on_c, 0, 75, 0
2, 28140, Note_on_c, 0, 74, 115
2, 28200, Note_on_c, 0, 74, 0
2, 28200, Note_on_c, 0, 72, 115
2, 28260, Note_on_c, 0, 72, 0
2, 28260, Note_on_c, 0, 62, 0
2, 28260, Note_on_c, 0, 63, 115
2, 28260, Note_on_c, 0, 70, 115
2, 28320, Note_on_c, 0, 70, 0
2, 28320, Note_on_c, 0, 63, 0
2, 28320, Note_on_c, 0, 65, 115
2, 28320, Note_on_c, 0, 68, 115
2, 28500, Note_on_c, 0, 68, 0
2, 28500, Note_on_c, 0, 77, 115
2, 28560, Note_on_c, 0, 77, 0
2, 28560, Note_on_c, 0, 70, 115
2, 28740, Note_on_c, 0, 70, 0
2, 28740, Note_on_c, 0, 68, 115
2, 28800, Note_on_c, 0, 68, 0
2, 28800, Note_on_c, 0, 67, 115
2, 28980, Note_on_c, 0, 67, 0
2, 28980, Note_on_c, 0, 68, 115
2, 29040, Note_on_c, 0, 68, 0
2, 29040, Note_on_c, 0, 65, 0
2, 29040, Note_on_c, 0, 70, 115
2, 29040, Note_on_c, 0, 63, 115
2, 29220, Note_on_c, 0, 70, 0
2, 29220, Note_on_c, 0, 63, 115
2, 29280, Note_on_c, 0, 63, 0
2, 29280, Note_on_c, 0, 63, 0
2, 29280, Note_on_c, 0, 67, 115
2, 29280, Note_on_c, 0, 60, 115
2, 29460, Note_on_c, 0, 67, 0
2, 29460, Note_on_c, 0, 65, 115
2, 29520, Note_on_c, 0, 65, 0
2, 29520, Note_on_c, 0, 60, 0
2, 29520, Note_on_c, 0, 58, 115
2, 29520, Note_on_c, 0, 63, 115
2, 29550, Note_on_c, 0, 63, 0
2, 29550, Note_on_c, 0, 65, 115
2, 29580, Note_on_c, 0, 65, 0
2, 29580, Note_on_c, 0, 63, 115
2, 29700, Note_on_c, 0, 63, 0
2, 29700, Note_on_c, 0, 62, 115
2, 29760, Note_on_c, 0, 62, 0
2, 29760, Note_on_c, 0, 58, 0
2, 29760, Note_on_c, 0, 58, 115
2, 29760, Note_on_c, 0, 62, 115
2, 30240, Note_on_c, 0, 62, 0
2, 30240, Note_on_c, 0, 63, 115
2, 30540, Note_on_c, 0, 63, 0
2, 30540, Note_on_c, 0, 67, 115
2, 30600, Note_on_c, 0, 67, 0
2, 30600, Note_on_c, 0, 65, 115
2, 30660, Note_on_c, 0, 65, 0
2, 30660, Note_on_c, 0, 63, 115
2, 30720, Note_on_c, 0, 63, 0
2, 30720, Note_on_c, 0, 58, 0
2, 30720, Note_on_c, 0, 70, 115
2, 30840, Note_on_c, 0, 70, 0
2, 30960, Note_on_c, 0, 63, 115
2, 30960, Note_on_c, 0, 72, 115
2, 31080, Note_on_c, 0, 72, 0
2, 31080, Note_on_c, 0, 63, 0
2, 31200, Note_on_c, 0, 68, 115
2, 31200, Note_on_c, 0, 62, 115
2, 31215, Note_on_c, 0, 68, 0
2, 31230, Note_on_c, 0, 70, 115
2, 31245, Note_on_c, 0, 70, 0
2, 31260, Note_on_c, 0, 68, 115
2, 31320, Note_on_c, 0, 62, 0
2, 31350, Note_on_c, 0, 68, 0
2, 31440, Note_on_c, 0, 67, 115
2, 31440, Note_on_c, 0, 63, 115
2, 31560, Note_on_c, 0, 63, 0
2, 31560, Note_on_c, 0, 67, 0
2, 32400, Note_on_c, 0, 68, 60
2, 32460, Note_on_c, 0, 68, 0
2, 32460, Note_on_c, 0, 67, 60
2, 32520, Note_on_c, 0, 67, 0
2, 32520, Note_on_c, 0, 65, 60
2, 32580, Note_on_c, 0, 65, 0
2, 32580, Note_on_c, 0, 63, 60
2, 32640, Note_on_c, 0, 63, 0
2, 32640, Note_on_c, 0, 70, 60
2, 32760, Note_on_c, 0, 70, 0
2, 32880, Note_on_c, 0, 63, 60
2, 32880, Note_on_c, 0, 72, 60
2, 33000, Note_on_c, 0, 72, 0
2, 33000, Note_on_c, 0, 63, 0
2, 33120, Note_on_c, 0, 68, 60
2, 33120, Note_on_c, 0, 62, 60
2, 33135, Note_on_c, 0, 68, 0
2, 33150, Note_on_c, 0, 70, 60
2, 33165, Note_on_c, 0, 70, 0
2, 33180, Note_on_c, 0, 68, 60
2, 33240, Note_on_c, 0, 62, 0
2, 33270, Note_on_c, 0, 68, 0
2, 33360, Note_on_c, 0, 67, 60
2, 33360, Note_on_c, 0, 63, 60
2, 33480, Note_on_c, 0, 63, 0
2, 33480, Note_on_c, 0, 67, 0
2, 34320, Note_on_c, 0, 75, 115
2, 34380, Note_on_c, 0, 75, 0
2, 34380, Note_on_c, 0, 74, 115
2, 34440, Note_on_c, 0, 74, 0
2, 34440, Note_on_c, 0, 72, 115
2, 34500, Note_on_c, 0, 72, 0
2, 34500, Note_on_c, 0, 70, 115
2, 34560, Note_on_c, 0, 70, 0
2, 34560, Note_on_c, 0, 77, 115
2, 34680, Note_on_c, 0, 77, 0
2, 34800, Note_on_c, 0, 70, 115
2, 34800, Note_on_c, 0, 79, 115
2, 34920, Note_on_c, 0, 79, 0
2, 34920, Note_on_c, 0, 70, 0
2, 35040, Note_on_c, 0, 69, 115
2, 35040, Note_on_c, 0, 75, 115
2, 35055, Note_on_c, 0, 75, 0
2, 35070, Note_on_c, 0, 77, 115
2, 35085, Note_on_c, 0, 77, 0
2, 35100, Note_on_c, 0, 75, 115
2, 35160, Note_on_c, 0, 69, 0
2, 35190, Note_on_c, 0, 75, 0
2, 35280, Note_on_c, 0, 70, 115
2, 35280, Note_on_c, 0, 74, 115
2, 35400, Note_on_c, 0, 74, 0
2, 35400, Note_on_c, 0, 70, 0
2, 35520, Note_on_c, 0, 63, 115
2, 35535, Note_on_c, 0, 63, 0
2, 35550, Note_on_c, 0, 65, 115
2, 35565, Note_on_c, 0, 65, 0
2, 35580, Note_on_c, 0, 63, 115
2, 35670, Note_on_c, 0, 63, 0
2, 35760, Note_on_c, 0, 62, 115
2, 35880, Note_on_c, 0, 62, 0
2, 36240, Note_on_c, 0, 75, 60
2, 36300, Note_on_c, 0, 75, 0
2, 36300, Note_on_c, 0, 74, 60
2, 36360, Note_on_c, 0, 74, 0
2, 36360, Note_on_c, 0, 72, 60
2, 36420, Note_on_c, 0, 72, 0
2, 36420, Note_on_c, 0, 70, 60
2, 36480, Note_on_c, 0, 70, 0
2, 36480, Note_on_c, 0, 77, 60
2, 36600, Note_on_c, 0, 77, 0
2, 36720, Note_on_c, 0, 79, 60
2, 36720, Note_on_c, 0, 70, 60
2, 36840, Note_on_c, 0, 70, 0
2, 36840, Note_on_c, 0, 79, 0
2, 36960, Note_on_c, 0, 75, 60
2, 36960, Note_on_c, 0, 69, 60
2, 36975, Note_on_c, 0, 75, 0
2, 36990, Note_on_c, 0, 77, 60
2, 37005, Note_on_c, 0, 77, 0
2, 37020, Note_on_c, 0, 75, 60
2, 37080, Note_on_c, 0, 69, 0
2, 37110, Note_on_c, 0, 75, 0
2, 37200, Note_on_c, 0, 74, 60
2, 37200, Note_on_c, 0, 70, 60
2, 37320, Note_on_c, 0, 70, 0
2, 37320, Note_on_c, 0, 74, 0
2, 37440, Note_on_c, 0, 63, 60
2, 37455, Note_on_c, 0, 63, 0
2, 37470, Note_on_c, 0, 65, 60
2, 37485, Note_on_c, 0, 65, 0
2, 37500, Note_on_c, 0, 63, 60
2, 37590, Note_on_c, 0, 63, 0
2, 37680, Note_on_c, 0, 62, 60
2, 37800, Note_on_c, 0, 62, 0
2, 38160, Note_on_c, 0, 65, 115
2, 38280, Note_on_c, 0, 74, 115
2, 38400, Note_on_c, 0, 65, 0
2, 38400, Note_on_c, 0, 67, 115
2, 38520, Note_on_c, 0, 74, 0
2, 38520, Note_on_c, 0, 71, 115
2, 38640, Note_on_c, 0, 67, 0
2, 38640, Note_on_c, 0, 65, 115
2, 38760, Note_on_c, 0, 71, 0
2, 38760, Note_on_c, 0, 72, 115
2, 38880, Note_on_c, 0, 65, 0
2, 38880, Note_on_c, 0, 67, 115
2, 38940, Note_on_c, 0, 72, 0
2, 38940, Note_on_c, 0, 75, 115
2, 39000, Note_on_c, 0, 75, 0
2, 39000, Note_on_c, 0, 77, 115
2, 39060, Note_on_c, 0, 77, 0
2, 39060, Note_on_c, 0, 79, 115
2, 39120, Note_on_c, 0, 79, 0
2, 39120, Note_on_c, 0, 67, 0
2, 39120, Note_on_c, 0, 77, 115
2, 39180, Note_on_c, 0, 77, 0
2, 39180, Note_on_c, 0, 75, 115
2, 39240, Note_on_c, 0, 75, 0
2, 39240, Note_on_c, 0, 74, 115
2, 39300, Note_on_c, 0, 74, 0
2, 39300, Note_on_c, 0, 72, 115
2, 39360, Note_on_c, 0, 65, 115
2, 39480, Note_on_c, 0, 72, 0
2, 39480, Note_on_c, 0, 69, 115
2, 39600, Note_on_c, 0, 65, 0
2, 39600, Note_on_c, 0, 63, 115
2, 39720, Note_on_c, 0, 69, 0
2, 39720, Note_on_c, 0, 70, 115
2, 39840, Note_on_c, 0, 63, 0
2, 39840, Note_on_c, 0, 65, 115
2, 39900, Note_on_c, 0, 70, 0
2, 39900, Note_on_c, 0, 74, 115
2, 39960, Note_on_c, 0, 74, 0
2, 39960, Note_on_c, 0, 75, 115
2, 40020, Note_on_c, 0, 75, 0
2, 40020, Note_on_c, 0, 77, 115
2, 40080, Note_on_c, 0, 77, 0
2, 40080, Note_on_c, 0, 65, 0
2, 40080, Note_on_c, 0, 75, 115
2, 40140, Note_on_c, 0, 75, 0
2, 40140, Note_on_c, 0, 74, 115
2, 40200, Note_on_c, 0, 74, 0
2, 40200, Note_on_c, 0, 72, 115
2, 40260, Note_on_c, 0, 72, 0
2, 40260, Note_on_c, 0, 70, 115
2, 40320, Note_on_c, 0, 63, 115
2, 40440, Note_on_c, 0, 70, 0
2, 40440, Note_on_c, 0, 67, 115
2, 40560, Note_on_c, 0, 63, 0
2, 40560, Note_on_c, 0, 62, 115
2, 40680, Note_on_c, 0, 67, 0
2, 40680, Note_on_c, 0, 69, 115
2, 40800, Note_on_c, 0, 62, 0
2, 40800, Note_on_c, 0, 63, 115
2, 40860, Note_on_c, 0, 69, 0
2, 40860, Note_on_c, 0, 70, 115
2, 40920, Note_on_c, 0, 70, 0
2, 40920, Note_on_c, 0, 72, 115
2, 40980, Note_on_c, 0, 72, 0
2, 40980, Note_on_c, 0, 74, 115
2, 41040, Note_on_c, 0, 74, 0
2, 41040, Note_on_c, 0, 63, 0
2, 41040, Note_on_c, 0, 72, 115
2, 41100, Note_on_c, 0, 72, 0
2, 41100, Note_on_c, 0, 70, 115
2, 41160, Note_on_c, 0, 70, 0
2, 41160, Note_on_c, 0, 69, 115
2, 41220, Note_on_c, 0, 69, 0
2, 41220, Note_on_c, 0, 67, 115
2, 41400, Note_on_c, 0, 67, 0
2, 41400, Note_on_c, 0, 64, 115
2, 41640, Note_on_c, 0, 64, 0
2, 41640, Note_on_c, 0, 65, 115
2, 41880, Note_on_c, 0, 65, 0
2, 41880, Note_on_c, 0, 75, 115
2, 42120, Note_on_c, 0, 75, 0
2, 42120, Note_on_c, 0, 73, 115
2, 42300, Note_on_c, 0, 73, 0
2, 42300, Note_on_c, 0, 70, 115
2, 42360, Note_on_c, 0, 70, 0
2, 42360, Note_on_c, 0, 69, 115
2, 42420, Note_on_c, 0, 69, 0
2, 42420, Note_on_c, 0, 70, 115
2, 42450, Note_on_c, 0, 70, 0
2, 42450, Note_on_c, 0, 70, 115
2, 42480, Note_on_c, 0, 70, 0
2, 42480, Note_on_c, 0, 77, 115
2, 42840, Note_on_c, 0, 77, 0
2, 42840, Note_on_c, 0, 76, 115
2, 42900, Note_on_c, 0, 76, 0
2, 42900, Note_on_c, 0, 77, 115
2, 42960, Note_on_c, 0, 77, 0
2, 42960, Note_on_c, 0, 78, 115
2, 43020, Note_on_c, 0, 78, 0
2, 43020, Note_on_c, 0, 77, 115
2, 43080, Note_on_c, 0, 77, 0
2, 43080, Note_on_c, 0, 76, 115
2, 43140, Note_on_c, 0, 76, 0
2, 43140, Note_on_c, 0, 77, 115
2, 43200, Note_on_c, 0, 77, 0
2, 43200, Note_on_c, 0, 60, 115
2, 43200, Note_on_c, 0, 70, 115
2, 43320, Note_on_c, 0, 70, 0
2, 43320, Note_on_c, 0, 69, 115
2, 43440, Note_on_c, 0, 60, 0
2, 43500, Note_on_c, 0, 69, 0
2, 43500, Note_on_c, 0, 70, 115
2, 43560, Note_on_c, 0, 70, 0
2, 43560, Note_on_c, 0, 72, 115
2, 43620, Note_on_c, 0, 72, 0
2, 43620, Note_on_c, 0, 69, 115
2, 43680, Note_on_c, 0, 69, 0
2, 43680, Note_on_c, 0, 65, 115
2, 43800, Note_on_c, 0, 65, 0
2, 43800, Note_on_c, 0, 75, 115
2, 43920, Note_on_c, 0, 65, 115
2, 44040, Note_on_c, 0, 75, 0
2, 44040, Note_on_c, 0, 73, 115
2, 44160, Note_on_c, 0, 65, 0
2, 44160, Note_on_c, 0, 65, 115
2, 44220, Note_on_c, 0, 73, 0
2, 44220, Note_on_c, 0, 70, 115
2, 44280, Note_on_c, 0, 70, 0
2, 44280, Note_on_c, 0, 69, 115
2, 44340, Note_on_c, 0, 69, 0
2, 44340, Note_on_c, 0, 70, 115
2, 44370, Note_on_c, 0, 70, 0
2, 44370, Note_on_c, 0, 70, 115
2, 44400, Note_on_c, 0, 70, 0
2, 44400, Note_on_c, 0, 65, 0
2, 44400, Note_on_c, 0, 77, 115
2, 44760, Note_on_c, 0, 77, 0
2, 44760, Note_on_c, 0, 76, 115
2, 44820, Note_on_c, 0, 76, 0
2, 44820, Note_on_c, 0, 77, 115
2, 44880, Note_on_c, 0, 77, 0
2, 44880, Note_on_c, 0, 61, 115
2, 44880, Note_on_c, 0, 78, 115
2, 44940, Note_on_c, 0, 78, 0
2, 44940, Note_on_c, 0, 77, 115
2, 45000, Note_on_c, 0, 77, 0
2, 45000, Note_on_c, 0, 76, 115
2, 45060, Note_on_c, 0, 76, 0
2, 45060, Note_on_c, 0, 77, 115
2, 45120, Note_on_c, 0, 77, 0
2, 45120, Note_on_c, 0, 61, 0
2, 45120, Note_on_c, 0, 70, 115
2, 45120, Note_on_c, 0, 63, 115
2, 45240, Note_on_c, 0, 70, 0
2, 45240, Note_on_c, 0, 69, 115
2, 45360, Note_on_c, 0, 63, 0
2, 45360, Note_on_c, 0, 61, 115
2, 45420, Note_on_c, 0, 69, 0
2, 45420, Note_on_c, 0, 70, 115
2, 45480, Note_on_c, 0, 70, 0
2, 45480, Note_on_c, 0, 72, 115
2, 45540, Note_on_c, 0, 72, 0
2, 45540, Note_on_c, 0, 69, 115
2, 45600, Note_on_c, 0, 69, 0
2, 45600, Note_on_c, 0, 61, 0
2, 45600, Note_on_c, 0, 65, 115
2, 45720, Note_on_c, 0, 65, 0
2, 45720, Note_on_c, 0, 75, 115
2, 45960, Note_on_c, 0, 75, 0
2, 45960, Note_on_c, 0, 73, 115
2, 46080, Note_on_c, 0, 65, 115
2, 46200, Note_on_c, 0, 73, 0
2, 46200, Note_on_c, 0, 72, 115
2, 46260, Note_on_c, 0, 72, 0
2, 46260, Note_on_c, 0, 70, 115
2, 46320, Note_on_c, 0, 70, 0
2, 46320, Note_on_c, 0, 65, 0
2, 46320, Note_on_c, 0, 72, 115
2, 46320, Note_on_c, 0, 63, 115
2, 46440, Note_on_c, 0, 72, 0
2, 46440, Note_on_c, 0, 67, 115
2, 46560, Note_on_c, 0, 67, 0
2, 46560, Note_on_c, 0, 63, 0
2, 46560, Note_on_c, 0, 70, 115
2, 46560, Note_on_c, 0, 61, 115
2, 46800, Note_on_c, 0, 61, 0
2, 46800, Note_on_c, 0, 70, 0
2, 46800, Note_on_c, 0, 60, 115
2, 46800, Note_on_c, 0, 69, 115
2, 46830, Note_on_c, 0, 69, 0
2, 46830, Note_on_c, 0, 70, 115
2, 46860, Note_on_c, 0, 70, 0
2, 46860, Note_on_c, 0, 69, 115
2, 46980, Note_on_c, 0, 69, 0
2, 46980, Note_on_c, 0, 70, 115
2, 47040, Note_on_c, 0, 70, 0
2, 47040, Note_on_c, 0, 60, 0
2, 47040, Note_on_c, 0, 70, 115
2, 47220, Note_on_c, 0, 63, 115
2, 47220, Note_on_c, 0, 67, 115
2, 47280, Note_on_c, 0, 67, 0
2, 47280, Note_on_c, 0, 63, 0
2, 47280, Note_on_c, 0, 62, 115
2, 47280, Note_on_c, 0, 65, 115
2, 47460, Note_on_c, 0, 65, 0
2, 47460, Note_on_c, 0, 62, 0
2, 47460, Note_on_c, 0, 60, 115
2, 47460, Note_on_c, 0, 63, 115
2, 47520, Note_on_c, 0, 63, 0
2, 47520, Note_on_c, 0, 60, 0
2, 47520, Note_on_c, 0, 65, 115
2, 47520, Note_on_c, 0, 62, 115
2, 47700, Note_on_c, 0, 62, 0
2, 47700, Note_on_c, 0, 65, 0
2, 47700, Note_on_c, 0, 60, 115
2, 47700, Note_on_c, 0, 63, 115
2, 47760, Note_on_c, 0, 63, 0
2, 47760, Note_on_c, 0, 60, 0
2, 47760, Note_on_c, 0, 58, 115
2, 47760, Note_on_c, 0, 62, 115
2, 47940, Note_on_c, 0, 62, 0
2, 47940, Note_on_c, 0, 58, 0
2, 47940, Note_on_c, 0, 60, 115
2, 47940, Note_on_c, 0, 57, 115
2, 48000, Note_on_c, 0, 57, 0
2, 48000, Note_on_c, 0, 60, 0
2, 48000, Note_on_c, 0, 70, 0
2, 48000, Note_on_c, 0, 62, 115
2, 48000, Note_on_c, 0, 70, 115
2, 48480, Note_on_c, 0, 70, 0
2, 48480, Note_on_c, 0, 62, 0
2, 48840, Note_on_c, 0, 62, 115
2, 48960, Note_on_c, 0, 62, 0
2, 48960, Note_on_c, 0, 63, 115
2, 48960, Note_on_c, 0, 79, 115
2, 49140, Note_on_c, 0, 79, 0
2, 49140, Note_on_c, 0, 77, 115
2, 49200, Note_on_c, 0, 77, 0
2, 49200, Note_on_c, 0, 75, 115
2, 49380, Note_on_c, 0, 75, 0
2, 49380, Note_on_c, 0, 74, 115
2, 49440, Note_on_c, 0, 74, 0
2, 49440, Note_on_c, 0, 72, 115
2, 49800, Note_on_c, 0, 72, 0
2, 49860, Note_on_c, 0, 72, 115
2, 49860, Note_on_c, 0, 77, 115
2, 49860, Note_on_c, 0, 84, 115
2, 49920, Note_on_c, 0, 84, 0
2, 49920, Note_on_c, 0, 77, 0
2, 49920, Note_on_c, 0, 72, 0
2, 49920, Note_on_c, 0, 72, 115
2, 49920, Note_on_c, 0, 77, 115
2, 49920, Note_on_c, 0, 82, 115
2, 50400, Note_on_c, 0, 82, 0
2, 50400, Note_on_c, 0, 63, 0
2, 50400, Note_on_c, 0, 81, 115
2, 50880, Note_on_c, 0, 81, 0
2, 50880, Note_on_c, 0, 77, 0
2, 50880, Note_on_c, 0, 72, 0
2, 50880, Note_on_c, 0, 82, 115
2, 50880, Note_on_c, 0, 77, 115
2, 50880, Note_on_c, 0, 70, 115
2, 51000, Note_on_c, 0, 70, 0
2, 51000, Note_on_c, 0, 77, 0
2, 51000, Note_on_c, 0, 82, 0
2, 51000, Note_on_c, 0, 81, 115
2, 51060, Note_on_c, 0, 81, 0
2, 51060, Note_on_c, 0, 79, 115
2, 51120, Note_on_c, 0, 79, 0
2, 51120, Note_on_c, 0, 77, 115
2, 51180, Note_on_c, 0, 77, 0
2, 51180, Note_on_c, 0, 75, 115
2, 51240, Note_on_c, 0, 75, 0
2, 51240, Note_on_c, 0, 74, 115
2, 51300, Note_on_c, 0, 74, 0
2, 51300, Note_on_c, 0, 72, 115
2, 51360, Note_on_c, 0, 72, 0
2, 51360, Note_on_c, 0, 70, 115
2, 51480, Note_on_c, 0, 70, 0
2, 51480, Note_on_c, 0, 69, 115
2, 51540, Note_on_c, 0, 69, 0
2, 51540, Note_on_c, 0, 67, 115
2, 51600, Note_on_c, 0, 67, 0
2, 51600, Note_on_c, 0, 65, 115
2, 51660, Note_on_c, 0, 65, 0
2, 51660, Note_on_c, 0, 63, 115
2, 51720, Note_on_c, 0, 63, 0
2, 51720, Note_on_c, 0, 62, 115
2, 51780, Note_on_c, 0, 62, 0
2, 51780, Note_on_c, 0, 60, 115
2, 51840, Note_on_c, 0, 60, 0
2, 51840, Note_on_c, 0, 58, 115
2, 52080, Note_on_c, 0, 58, 0
2, 52560, Note_on_c, 0, 70, 115
2, 52560, Note_on_c, 0, 74, 115
2, 52560, Note_on_c, 0, 77, 115
2, 52800, Note_on_c, 0, 77, 0
2, 52800, Note_on_c, 0, 74, 0
2, 52800, Note_on_c, 0, 70, 0
2, 52800, Note_on_c, 0, 77, 115
2, 52800, Note_on_c, 0, 74, 115
2, 52800, Note_on_c, 0, 70, 115
2, 53040, Note_on_c, 0, 70, 0
2, 53040, Note_on_c, 0, 74, 0
2, 53040, Note_on_c, 0, 77, 0
2, 53040, Note_on_c, 0, 75, 115
2, 53040, Note_on_c, 0, 70, 115
2, 53040, Note_on_c, 0, 67, 115
2, 53280, Note_on_c, 0, 67, 0
2, 53280, Note_on_c, 0, 70, 0
2, 53280, Note_on_c, 0, 75, 0
2, 53340, Note_on_c, 0, 75, 115
2, 53400, Note_on_c, 0, 75, 0
2, 53400, Note_on_c, 0, 74, 115
2, 53460, Note_on_c, 0, 74, 0
2, 53460, Note_on_c, 0, 72, 115
2, 53520, Note_on_c, 0, 72, 0
2, 53520, Note_on_c, 0, 70, 115
2, 53580, Note_on_c, 0, 70, 0
2, 53580, Note_on_c, 0, 68, 115
2, 53640, Note_on_c, 0, 68, 0
2, 53640, Note_on_c, 0, 67, 115
2, 53700, Note_on_c, 0, 67, 0
2, 53700, Note_on_c, 0, 65, 115
2, 53760, Note_on_c, 0, 65, 0
2, 53760, Note_on_c, 0, 63, 115
2, 54000, Note_on_c, 0, 63, 0
2, 54480, Note_on_c, 0, 75, 115
2, 54480, Note_on_c, 0, 79, 115
2, 54480, Note_on_c, 0, 82, 115
2, 54720, Note_on_c, 0, 82, 0
2, 54720, Note_on_c, 0, 79, 0
2, 54720, Note_on_c, 0, 75, 0
2, 54720, Note_on_c, 0, 82, 115
2, 54720, Note_on_c, 0, 79, 115
2, 54720, Note_on_c, 0, 75, 115
2, 54960, Note_on_c, 0, 75, 0
2, 54960, Note_on_c, 0, 79, 0
2, 54960, Note_on_c, 0, 82, 0
2, 54960, Note_on_c, 0, 80, 115
2, 54960, Note_on_c, 0, 75, 115
2, 54960, Note_on_c, 0, 72, 115
2, 55200, Note_on_c, 0, 72, 0
2, 55200, Note_on_c, 0, 75, 0
2, 55200, Note_on_c, 0, 80, 0
2, 55440, Note_on_c, 0, 63, 115
2, 55440, Note_on_c, 0, 70, 115
2, 55440, Note_on_c, 0, 75, 115
2, 55680, Note_on_c, 0, 70, 0
2, 55680, Note_on_c, 0, 63, 0
2, 55680, Note_on_c, 0, 65, 115
2, 55680, Note_on_c, 0, 68, 115
2, 55860, Note_on_c, 0, 68, 0
2, 55860, Note_on_c, 0, 70, 115
2, 55920, Note_on_c, 0, 70, 0
2, 55920, Note_on_c, 0, 68, 115
2, 56040, Note_on_c, 0, 75, 0
2, 56100, Note_on_c, 0, 68, 0
2, 56100, Note_on_c, 0, 67, 115
2, 56100, Note_on_c, 0, 75, 115
2, 56160, Note_on_c, 0, 75, 0
2, 56160, Note_on_c, 0, 67, 0
2, 56160, Note_on_c, 0, 65, 0
2, 56160, Note_on_c, 0, 74, 115
2, 56160, Note_on_c, 0, 68, 115
2, 56340, Note_on_c, 0, 68, 0
2, 56340, Note_on_c, 0, 65, 115
2, 56400, Note_on_c, 0, 65, 0
2, 56400, Note_on_c, 0, 63, 115
2, 56580, Note_on_c, 0, 63, 0
2, 56580, Note_on_c, 0, 62, 115
2, 56640, Note_on_c, 0, 62, 0
2, 56640, Note_on_c, 0, 67, 115
2, 56820, Note_on_c, 0, 67, 0
2, 56820, Note_on_c, 0, 68, 115
2, 56880, Note_on_c, 0, 68, 0
2, 56880, Note_on_c, 0, 67, 115
2, 57000, Note_on_c, 0, 74, 0
2, 57060, Note_on_c, 0, 67, 0
2, 57060, Note_on_c, 0, 74, 115
2, 57060, Note_on_c, 0, 65, 115
2, 57120, Note_on_c, 0, 65, 0
2, 57120, Note_on_c, 0, 74, 0
2, 57120, Note_on_c, 0, 72, 115
2, 57120, Note_on_c, 0, 67, 115
2, 57300, Note_on_c, 0, 67, 0
2, 57300, Note_on_c, 0, 63, 115
2, 57360, Note_on_c, 0, 63, 0
2, 57360, Note_on_c, 0, 62, 115
2, 57540, Note_on_c, 0, 62, 0
2, 57540, Note_on_c, 0, 60, 115
2, 57600, Note_on_c, 0, 60, 0
2, 57600, Note_on_c, 0, 65, 115
2, 57780, Note_on_c, 0, 65, 0
2, 57780, Note_on_c, 0, 67, 115
2, 57840, Note_on_c, 0, 67, 0
2, 57840, Note_on_c, 0, 65, 115
2, 58020, Note_on_c, 0, 65, 0
2, 58020, Note_on_c, 0, 63, 115
2, 58080, Note_on_c, 0, 63, 0
2, 58080, Note_on_c, 0, 65, 115
2, 58260, Note_on_c, 0, 72, 0
2, 58260, Note_on_c, 0, 71, 115
2, 58320, Note_on_c, 0, 71, 0
2, 58320, Note_on_c, 0, 69, 115
2, 58500, Note_on_c, 0, 69, 0
2, 58500, Note_on_c, 0, 67, 115
2, 58560, Note_on_c, 0, 67, 0
2, 58560, Note_on_c, 0, 72, 115
2, 58740, Note_on_c, 0, 65, 0
2, 58740, Note_on_c, 0, 67, 115
2, 58800, Note_on_c, 0, 67, 0
2, 58800, Note_on_c, 0, 65, 115
2, 58980, Note_on_c, 0, 65, 0
2, 58980, Note_on_c, 0, 63, 115
2, 59040, Note_on_c, 0, 63, 0
2, 59040, Note_on_c, 0, 65, 115
2, 59220, Note_on_c, 0, 72, 0
2, 59220, Note_on_c, 0, 75, 115
2, 59280, Note_on_c, 0, 75, 0
2, 59280, Note_on_c, 0, 74, 115
2, 59460, Note_on_c, 0, 74, 0
2, 59460, Note_on_c, 0, 72, 115
2, 59520, Note_on_c, 0, 72, 0
2, 59520, Note_on_c, 0, 74, 115
2, 59700, Note_on_c, 0, 65, 0
2, 59700, Note_on_c, 0, 67, 115
2, 59760, Note_on_c, 0, 67, 0
2, 59760, Note_on_c, 0, 65, 115
2, 59940, Note_on_c, 0, 65, 0
2, 59940, Note_on_c, 0, 63, 115
2, 60000, Note_on_c, 0, 63, 0
2, 60000, Note_on_c, 0, 65, 115
2, 60180, Note_on_c, 0, 74, 0
2, 60180, Note_on_c, 0, 72, 115
2, 60240, Note_on_c, 0, 72, 0
2, 60240, Note_on_c, 0, 71, 115
2, 60420, Note_on_c, 0, 71, 0
2, 60420, Note_on_c, 0, 69, 115
2, 60480, Note_on_c, 0, 69, 0
2, 60480, Note_on_c, 0, 71, 115
2, 60660, Note_on_c, 0, 65, 0
2, 60660, Note_on_c, 0, 67, 115
2, 60720, Note_on_c, 0, 67, 0
2, 60720, Note_on_c, 0, 65, 115
2, 60900, Note_on_c, 0, 65, 0
2, 60900, Note_on_c, 0, 63, 115
2, 60960, Note_on_c, 0, 63, 0
2, 60960, Note_on_c, 0, 65, 115
2, 61140, Note_on_c, 0, 71, 0
2, 61140, Note_on_c, 0, 71, 115
2, 61200, Note_on_c, 0, 71, 0
2, 61200, Note_on_c, 0, 72, 115
2, 61380, Note_on_c, 0, 72, 0
2, 61380, Note_on_c, 0, 74, 115
2, 61440, Note_on_c, 0, 74, 0
2, 61440, Note_on_c, 0, 65, 0
2, 61440, Note_on_c, 0, 65, 115
2, 61440, Note_on_c, 0, 67, 115
2, 61620, Note_on_c, 0, 65, 0
2, 61620, Note_on_c, 0, 65, 115
2, 61680, Note_on_c, 0, 65, 0
2, 61680, Note_on_c, 0, 63, 115
2, 61860, Note_on_c, 0, 63, 0
2, 61860, Note_on_c, 0, 62, 115
2, 61920, Note_on_c, 0, 62, 0
2, 61920, Note_on_c, 0, 63, 115
2, 62100, Note_on_c, 0, 67, 0
2, 62100, Note_on_c, 0, 67, 115
2, 62160, Note_on_c, 0, 67, 0
2, 62160, Note_on_c, 0, 65, 115
2, 62340, Note_on_c, 0, 65, 0
2, 62340, Note_on_c, 0, 67, 115
2, 62400, Note_on_c, 0, 67, 0
2, 62400, Note_on_c, 0, 69, 115
2, 62880, Note_on_c, 0, 63, 0
2, 62880, Note_on_c, 0, 62, 115
2, 63060, Note_on_c, 0, 69, 0
2, 63060, Note_on_c, 0, 69, 115
2, 63120, Note_on_c, 0, 69, 0
2, 63120, Note_on_c, 0, 67, 115
2, 63300, Note_on_c, 0, 67, 0
2, 63300, Note_on_c, 0, 69, 115
2, 63360, Note_on_c, 0, 69, 0
2, 63360, Note_on_c, 0, 71, 115
2, 63540, Note_on_c, 0, 62, 0
2, 63540, Note_on_c, 0, 62, 115
2, 63600, Note_on_c, 0, 62, 0
2, 63600, Note_on_c, 0, 63, 115
2, 63780, Note_on_c, 0, 63, 0
2, 63780, Note_on_c, 0, 65, 115
2, 63840, Note_on_c, 0, 65, 0
2, 63840, Note_on_c, 0, 67, 115
2, 64020, Note_on_c, 0, 71, 0
2, 64020, Note_on_c, 0, 71, 115
2, 64080, Note_on_c, 0, 71, 0
2, 64080, Note_on_c, 0, 72, 115
2, 64260, Note_on_c, 0, 72, 0
2, 64260, Note_on_c, 0, 74, 115
2, 64320, Note_on_c, 0, 74, 0
2, 64320, Note_on_c, 0, 72, 115
2, 64800, Note_on_c, 0, 67, 0
2, 64800, Note_on_c, 0, 65, 115
2, 64980, Note_on_c, 0, 72, 0
2, 64980, Note_on_c, 0, 72, 115
2, 65040, Note_on_c, 0, 72, 0
2, 65040, Note_on_c, 0, 74, 115
2, 65220, Note_on_c, 0, 74, 0
2, 65220, Note_on_c, 0, 75, 115
2, 65280, Note_on_c, 0, 75, 0
2, 65280, Note_on_c, 0, 74, 115
2, 65280, Note_on_c, 0, 67, 115
2, 65460, Note_on_c, 0, 67, 0
2, 65460, Note_on_c, 0, 59, 115
2, 65520, Note_on_c, 0, 59, 0
2, 65520, Note_on_c, 0, 60, 115
2, 65700, Note_on_c, 0, 60, 0
2, 65700, Note_on_c, 0, 62, 115
2, 65760, Note_on_c, 0, 62, 0
2, 65760, Note_on_c, 0, 65, 0
2, 65760, Note_on_c, 0, 60, 115
2, 65760, Note_on_c, 0, 63, 115
2, 65940, Note_on_c, 0, 74, 0
2, 65940, Note_on_c, 0, 71, 115
2, 66000, Note_on_c, 0, 71, 0
2, 66000, Note_on_c, 0, 72, 115
2, 66240, Note_on_c, 0, 63, 0
2, 66240, Note_on_c, 0, 60, 0
2, 66240, Note_on_c, 0, 62, 115
2, 66420, Note_on_c, 0, 62, 0
2, 66420, Note_on_c, 0, 63, 115
2, 66480, Note_on_c, 0, 63, 0
2, 66480, Note_on_c, 0, 65, 115
2, 66660, Note_on_c, 0, 65, 0
2, 66660, Note_on_c, 0, 68, 115
2, 66720, Note_on_c, 0, 68, 0
2, 66720, Note_on_c, 0, 72, 0
2, 66720, Note_on_c, 0, 71, 115
2, 66720, Note_on_c, 0, 67, 115
2, 66900, Note_on_c, 0, 67, 0
2, 66900, Note_on_c, 0, 65, 115
2, 66960, Note_on_c, 0, 65, 0
2, 66960, Note_on_c, 0, 63, 115
2, 67140, Note_on_c, 0, 63, 0
2, 67140, Note_on_c, 0, 62, 115
2, 67200, Note_on_c, 0, 62, 0
2, 67200, Note_on_c, 0, 71, 0
2, 67200, Note_on_c, 0, 63, 115
2, 67200, Note_on_c, 0, 72, 115
2, 67320, Note_on_c, 0, 72, 0
2, 67320, Note_on_c, 0, 63, 0
2, 67320, Note_on_c, 0, 72, 100
2, 67560, Note_on_c, 0, 72, 0
2, 67560, Note_on_c, 0, 72, 100
2, 67740, Note_on_c, 0, 72, 0
2, 67740, Note_on_c, 0, 70, 100
2, 67800, Note_on_c, 0, 70, 0
2, 67800, Note_on_c, 0, 68, 100
2, 67860, Note_on_c, 0, 68, 0
2, 67860, Note_on_c, 0, 67, 100
2, 67920, Note_on_c, 0, 67, 0
2, 67920, Note_on_c, 0, 65, 100
2, 67980, Note_on_c, 0, 65, 0
2, 67980, Note_on_c, 0, 63, 100
2, 68040, Note_on_c, 0, 63, 0
2, 68040, Note_on_c, 0, 62, 100
2, 68100, Note_on_c, 0, 62, 0
2, 68100, Note_on_c, 0, 60, 100
2, 68160, Note_on_c, 0, 60, 0
2, 68160, Note_on_c, 0, 59, 100
2, 68220, Note_on_c, 0, 59, 0
2, 68220, Note_on_c, 0, 62, 100
2, 68280, Note_on_c, 0, 62, 0
2, 68280, Note_on_c, 0, 59, 100
2, 68340, Note_on_c, 0, 59, 0
2, 68340, Note_on_c, 0, 62, 100
2, 68400, Note_on_c, 0, 62, 0
2, 68400, Note_on_c, 0, 60, 100
2, 68460, Note_on_c, 0, 60, 0
2, 68460, Note_on_c, 0, 63, 100
2, 68520, Note_on_c, 0, 63, 0
2, 68520, Note_on_c, 0, 60, 100
2, 68580, Note_on_c, 0, 60, 0
2, 68580, Note_on_c, 0, 63, 100
2, 68640, Note_on_c, 0, 63, 0
2, 68640, Note_on_c, 0, 60, 100
2, 68700, Note_on_c, 0, 60, 0
2, 68700, Note_on_c, 0, 65, 100
2, 68760, Note_on_c, 0, 65, 0
2, 68760, Note_on_c, 0, 60, 100
2, 68820, Note_on_c, 0, 60, 0
2, 68820, Note_on_c, 0, 65, 100
2, 68880, Note_on_c, 0, 65, 0
2, 68880, Note_on_c, 0, 59, 100
2, 68940, Note_on_c, 0, 59, 0
2, 68940, Note_on_c, 0, 65, 100
2, 69000, Note_on_c, 0, 65, 0
2, 69000, Note_on_c, 0, 59, 100
2, 69060, Note_on_c, 0, 59, 0
2, 69060, Note_on_c, 0, 65, 100
2, 69120, Note_on_c, 0, 65, 0
2, 69120, Note_on_c, 0, 63, 100
2, 69240, Note_on_c, 0, 79, 100
2, 69360, Note_on_c, 0, 63, 0
2, 69360, Note_on_c, 0, 62, 100
2, 69480, Note_on_c, 0, 79, 0
2, 69480, Note_on_c, 0, 79, 100
2, 69600, Note_on_c, 0, 62, 0
2, 69600, Note_on_c, 0, 60, 100
2, 69660, Note_on_c, 0, 79, 0
2, 69660, Note_on_c, 0, 77, 100
2, 69720, Note_on_c, 0, 77, 0
2, 69720, Note_on_c, 0, 75, 100
2, 69780, Note_on_c, 0, 75, 0
2, 69780, Note_on_c, 0, 74, 100
2, 69840, Note_on_c, 0, 74, 0
2, 69840, Note_on_c, 0, 60, 0
2, 69840, Note_on_c, 0, 62, 100
2, 69840, Note_on_c, 0, 72, 100
2, 69900, Note_on_c, 0, 72, 0
2, 69900, Note_on_c, 0, 70, 100
2, 69960, Note_on_c, 0, 70, 0
2, 69960, Note_on_c, 0, 69, 100
2, 70020, Note_on_c, 0, 69, 0
2, 70020, Note_on_c, 0, 67, 100
2, 70080, Note_on_c, 0, 67, 0
2, 70080, Note_on_c, 0, 62, 0
2, 70080, Note_on_c, 0, 63, 100
2, 70080, Note_on_c, 0, 66, 100
2, 70140, Note_on_c, 0, 66, 0
2, 70140, Note_on_c, 0, 69, 100
2, 70200, Note_on_c, 0, 69, 0
2, 70200, Note_on_c, 0, 66, 100
2, 70260, Note_on_c, 0, 66, 0
2, 70260, Note_on_c, 0, 69, 100
2, 70320, Note_on_c, 0, 69, 0
2, 70320, Note_on_c, 0, 63, 0
2, 70320, Note_on_c, 0, 62, 100
2, 70320, Note_on_c, 0, 67, 100
2, 70380, Note_on_c, 0, 67, 0
2, 70380, Note_on_c, 0, 70, 100
2, 70440, Note_on_c, 0, 70, 0
2, 70440, Note_on_c, 0, 67, 100
2, 70500, Note_on_c, 0, 67, 0
2, 70500, Note_on_c, 0, 70, 100
2, 70560, Note_on_c, 0, 70, 0
2, 70560, Note_on_c, 0, 62, 0
2, 70560, Note_on_c, 0, 60, 100
2, 70560, Note_on_c, 0, 67, 100
2, 70620, Note_on_c, 0, 67, 0
2, 70620, Note_on_c, 0, 72, 100
2, 70680, Note_on_c, 0, 72, 0
2, 70680, Note_on_c, 0, 67, 100
2, 70740, Note_on_c, 0, 67, 0
2, 70740, Note_on_c, 0, 72, 100
2, 70800, Note_on_c, 0, 72, 0
2, 70800, Note_on_c, 0, 60, 0
2, 70800, Note_on_c, 0, 62, 100
2, 70800, Note_on_c, 0, 66, 100
2, 70860, Note_on_c, 0, 66, 0
2, 70860, Note_on_c, 0, 72, 100
2, 70920, Note_on_c, 0, 72, 0
2, 70920, Note_on_c, 0, 66, 100
2, 70980, Note_on_c, 0, 66, 0
2, 70980, Note_on_c, 0, 72, 100
2, 71040, Note_on_c, 0, 72, 0
2, 71040, Note_on_c, 0, 70, 100
2, 71100, Note_on_c, 0, 70, 0
2, 71100, Note_on_c, 0, 69, 100
2, 71160, Note_on_c, 0, 69, 0
2, 71160, Note_on_c, 0, 67, 100
2, 71220, Note_on_c, 0, 67, 0
2, 71220, Note_on_c, 0, 66, 100
2, 71280, Note_on_c, 0, 66, 0
2, 71280, Note_on_c, 0, 67, 100
2, 71340, Note_on_c, 0, 67, 0
2, 71340, Note_on_c, 0, 70, 100
2, 71400, Note_on_c, 0, 70, 0
2, 71400, Note_on_c, 0, 67, 100
2, 71460, Note_on_c, 0, 67, 0
2, 71460, Note_on_c, 0, 70, 100
2, 71520, Note_on_c, 0, 70, 0
2, 71520, Note_on_c, 0, 75, 100
2, 71580, Note_on_c, 0, 62, 0
2, 71580, Note_on_c, 0, 62, 100
2, 71640, Note_on_c, 0, 62, 0
2, 71640, Note_on_c, 0, 60, 100
2, 71700, Note_on_c, 0, 60, 0
2, 71700, Note_on_c, 0, 59, 100
2, 71760, Note_on_c, 0, 59, 0
2, 71760, Note_on_c, 0, 60, 100
2, 71820, Note_on_c, 0, 60, 0
2, 71820, Note_on_c, 0, 58, 100
2, 71880, Note_on_c, 0, 58, 0
2, 71880, Note_on_c, 0, 57, 100
2, 71940, Note_on_c, 0, 57, 0
2, 71940, Note_on_c, 0, 55, 100
2, 72000, Note_on_c, 0, 55, 0
2, 72060, Note_on_c, 0, 75, 0
2, 72060, Note_on_c, 0, 70, 100
2, 72120, Note_on_c, 0, 70, 0
2, 72120, Note_on_c, 0, 69, 100
2, 72180, Note_on_c, 0, 69, 0
2, 72180, Note_on_c, 0, 67, 100
2, 72240, Note_on_c, 0, 67, 0
2, 72240, Note_on_c, 0, 69, 100
2, 72300, Note_on_c, 0, 69, 0
2, 72300, Note_on_c, 0, 72, 100
2, 72360, Note_on_c, 0, 72, 0
2, 72360, Note_on_c, 0, 69, 100
2, 72420, Note_on_c, 0, 69, 0
2, 72420, Note_on_c, 0, 72, 100
2, 72480, Note_on_c, 0, 72, 0
2, 72480, Note_on_c, 0, 77, 100
2, 72960, Note_on_c, 0, 59, 100
2, 73020, Note_on_c, 0, 77, 0
2, 73020, Note_on_c, 0, 80, 100
2, 73080, Note_on_c, 0, 80, 0
2, 73080, Note_on_c, 0, 59, 0
2, 73080, Note_on_c, 0, 60, 100
2, 73080, Note_on_c, 0, 79, 100
2, 73140, Note_on_c, 0, 79, 0
2, 73140, Note_on_c, 0, 77, 100
2, 73200, Note_on_c, 0, 77, 0
2, 73200, Note_on_c, 0, 60, 0
2, 73200, Note_on_c, 0, 62, 100
2, 73200, Note_on_c, 0, 79, 100
2, 73260, Note_on_c, 0, 79, 0
2, 73260, Note_on_c, 0, 77, 100
2, 73320, Note_on_c, 0, 77, 0
2, 73320, Note_on_c, 0, 62, 0
2, 73320, Note_on_c, 0, 59, 100
2, 73320, Note_on_c, 0, 75, 100
2, 73380, Note_on_c, 0, 75, 0
2, 73380, Note_on_c, 0, 74, 100
2, 73440, Note_on_c, 0, 74, 0
2, 73440, Note_on_c, 0, 59, 0
2, 73440, Note_on_c, 0, 60, 100
2, 73440, Note_on_c, 0, 75, 100
2, 73500, Note_on_c, 0, 75, 0
2, 73500, Note_on_c, 0, 60, 0
2, 73500, Note_on_c, 0, 68, 100
2, 73500, Note_on_c, 0, 77, 100
2, 73560, Note_on_c, 0, 77, 0
2, 73560, Note_on_c, 0, 68, 0
2, 73560, Note_on_c, 0, 67, 100
2, 73560, Note_on_c, 0, 75, 100
2, 73620, Note_on_c, 0, 75, 0
2, 73620, Note_on_c, 0, 67, 0
2, 73620, Note_on_c, 0, 65, 100
2, 73620, Note_on_c, 0, 74, 100
2, 73680, Note_on_c, 0, 74, 0
2, 73680, Note_on_c, 0, 65, 0
2, 73680, Note_on_c, 0, 67, 100
2, 73680, Note_on_c, 0, 75, 100
2, 73740, Note_on_c, 0, 75, 0
2, 73740, Note_on_c, 0, 67, 0
2, 73740, Note_on_c, 0, 65, 100
2, 73740, Note_on_c, 0, 74, 100
2, 73800, Note_on_c, 0, 74, 0
2, 73800, Note_on_c, 0, 65, 0
2, 73800, Note_on_c, 0, 63, 100
2, 73800, Note_on_c, 0, 72, 100
2, 73860, Note_on_c, 0, 72, 0
2, 73860, Note_on_c, 0, 63, 0
2, 73860, Note_on_c, 0, 71, 100
2, 73860, Note_on_c, 0, 62, 100
2, 73920, Note_on_c, 0, 62, 0
2, 73920, Note_on_c, 0, 71, 0
2, 73920, Note_on_c, 0, 72, 100
2, 73920, Note_on_c, 0, 63, 100
2, 74160, Note_on_c, 0, 63, 0
2, 74160, Note_on_c, 0, 72, 0
2, 74160, Note_on_c, 0, 65, 100
2, 74160, Note_on_c, 0, 74, 100
2, 74400, Note_on_c, 0, 74, 0
2, 74400, Note_on_c, 0, 65, 0
2, 74400, Note_on_c, 0, 67, 100
2, 74400, Note_on_c, 0, 75, 100
2, 74640, Note_on_c, 0, 75, 0
2, 74640, Note_on_c, 0, 67, 0
2, 74640, Note_on_c, 0, 68, 100
2, 74640, Note_on_c, 0, 77, 100
2, 74880, Note_on_c, 0, 68, 0
2, 74880, Note_on_c, 0, 67, 100
2, 75120, Note_on_c, 0, 77, 0
2, 75120, Note_on_c, 0, 75, 100
2, 75360, Note_on_c, 0, 75, 0
2, 75360, Note_on_c, 0, 67, 0
2, 75360, Note_on_c, 0, 68, 100
2, 75360, Note_on_c, 0, 74, 100
2, 75600, Note_on_c, 0, 74, 0
2, 75600, Note_on_c, 0, 68, 0
2, 75600, Note_on_c, 0, 67, 100
2, 75600, Note_on_c, 0, 79, 100
2, 75720, Note_on_c, 0, 79, 0
2, 75720, Note_on_c, 0, 74, 100
2, 75840, Note_on_c, 0, 74, 0
2, 75840, Note_on_c, 0, 75, 100
2, 76080, Note_on_c, 0, 67, 0
2, 76080, Note_on_c, 0, 72, 100
2, 76200, Note_on_c, 0, 72, 0
2, 76200, Note_on_c, 0, 67, 100
2, 76320, Note_on_c, 0, 67, 0
2, 76320, Note_on_c, 0, 68, 100
2, 76440, Note_on_c, 0, 75, 0
2, 76440, Note_on_c, 0, 75, 100
2, 76560, Note_on_c, 0, 75, 0
2, 76560, Note_on_c, 0, 72, 100
2, 76680, Note_on_c, 0, 72, 0
2, 76680, Note_on_c, 0, 77, 100
2, 76800, Note_on_c, 0, 77, 0
2, 76800, Note_on_c, 0, 74, 100
2, 76920, Note_on_c, 0, 68, 0
2, 76920, Note_on_c, 0, 68, 100
2, 77040, Note_on_c, 0, 68, 0
2, 77040, Note_on_c, 0, 65, 100
2, 77160, Note_on_c, 0, 65, 0
2, 77160, Note_on_c, 0, 70, 100
2, 77280, Note_on_c, 0, 70, 0
2, 77280, Note_on_c, 0, 67, 100
2, 77520, Note_on_c, 0, 74, 0
2, 77520, Note_on_c, 0, 73, 100
2, 77760, Note_on_c, 0, 73, 0
2, 77760, Note_on_c, 0, 67, 0
2, 77760, Note_on_c, 0, 72, 100
2, 78300, Note_on_c, 0, 72, 0
2, 78300, Note_on_c, 0, 72, 100
2, 78360, Note_on_c, 0, 72, 0
2, 78360, Note_on_c, 0, 70, 100
2, 78420, Note_on_c, 0, 70, 0
2, 78420, Note_on_c, 0, 68, 100
2, 78480, Note_on_c, 0, 68, 0
2, 78480, Note_on_c, 0, 70, 100
2, 78540, Note_on_c, 0, 70, 0
2, 78540, Note_on_c, 0, 68, 100
2, 78600, Note_on_c, 0, 68, 0
2, 78600, Note_on_c, 0, 67, 100
2, 78660, Note_on_c, 0, 67, 0
2, 78660, Note_on_c, 0, 65, 100
2, 78720, Note_on_c, 0, 65, 0
2, 78720, Note_on_c, 0, 63, 100
2, 78780, Note_on_c, 0, 63, 0
2, 78780, Note_on_c, 0, 67, 100
2, 78840, Note_on_c, 0, 67, 0
2, 78840, Note_on_c, 0, 65, 100
2, 78900, Note_on_c, 0, 65, 0
2, 78900, Note_on_c, 0, 63, 100
2, 78960, Note_on_c, 0, 63, 0
2, 78960, Note_on_c, 0, 72, 100
2, 79260, Note_on_c, 0, 72, 0
2, 79260, Note_on_c, 0, 75, 100
2, 79320, Note_on_c, 0, 75, 0
2, 79320, Note_on_c, 0, 74, 100
2, 79380, Note_on_c, 0, 74, 0
2, 79380, Note_on_c, 0, 72, 100
2, 79440, Note_on_c, 0, 72, 0
2, 79440, Note_on_c, 0, 77, 100
2, 79560, Note_on_c, 0, 77, 0
2, 79560, Note_on_c, 0, 68, 100
2, 79680, Note_on_c, 0, 68, 0
2, 79680, Note_on_c, 0, 67, 100
2, 79800, Note_on_c, 0, 75, 100
2, 79920, Note_on_c, 0, 67, 0
2, 79920, Note_on_c, 0, 68, 100
2, 80040, Note_on_c, 0, 75, 0
2, 80040, Note_on_c, 0, 75, 100
2, 80160, Note_on_c, 0, 68, 0
2, 80160, Note_on_c, 0, 70, 100
2, 80220, Note_on_c, 0, 75, 0
2, 80220, Note_on_c, 0, 74, 100
2, 80280, Note_on_c, 0, 74, 0
2, 80280, Note_on_c, 0, 72, 100
2, 80340, Note_on_c, 0, 72, 0
2, 80340, Note_on_c, 0, 70, 100
2, 80400, Note_on_c, 0, 70, 0
2, 80400, Note_on_c, 0, 70, 0
2, 80400, Note_on_c, 0, 72, 100
2, 80400, Note_on_c, 0, 68, 100
2, 80460, Note_on_c, 0, 68, 0
2, 80460, Note_on_c, 0, 67, 100
2, 80520, Note_on_c, 0, 67, 0
2, 80520, Note_on_c, 0, 65, 100
2, 80580, Note_on_c, 0, 65, 0
2, 80580, Note_on_c, 0, 63, 100
2, 80640, Note_on_c, 0, 63, 0
2, 80640, Note_on_c, 0, 72, 0
2, 80640, Note_on_c, 0, 62, 100
2, 80640, Note_on_c, 0, 70, 100
2, 80700, Note_on_c, 0, 62, 0
2, 80700, Note_on_c, 0, 65, 100
2, 80760, Note_on_c, 0, 65, 0
2, 80760, Note_on_c, 0, 62, 100
2, 80820, Note_on_c, 0, 62, 0
2, 80820, Note_on_c, 0, 65, 100
2, 80880, Note_on_c, 0, 65, 0
2, 80880, Note_on_c, 0, 63, 100
2, 80940, Note_on_c, 0, 63, 0
2, 80940, Note_on_c, 0, 67, 100
2, 81000, Note_on_c, 0, 67, 0
2, 81000, Note_on_c, 0, 63, 100
2, 81060, Note_on_c, 0, 63, 0
2, 81060, Note_on_c, 0, 67, 100
2, 81120, Note_on_c, 0, 67, 0
2, 81120, Note_on_c, 0, 70, 0
2, 81120, Note_on_c, 0, 63, 100
2, 81120, Note_on_c, 0, 72, 100
2, 81180, Note_on_c, 0, 63, 0
2, 81180, Note_on_c, 0, 68, 100
2, 81240, Note_on_c, 0, 68, 0
2, 81240, Note_on_c, 0, 63, 100
2, 81300, Note_on_c, 0, 63, 0
2, 81300, Note_on_c, 0, 68, 100
2, 81360, Note_on_c, 0, 68, 0
2, 81360, Note_on_c, 0, 72, 0
2, 81360, Note_on_c, 0, 70, 100
2, 81360, Note_on_c, 0, 62, 100
2, 81420, Note_on_c, 0, 62, 0
2, 81420, Note_on_c, 0, 68, 100
2, 81480, Note_on_c, 0, 68, 0
2, 81480, Note_on_c, 0, 62, 100
2, 81540, Note_on_c, 0, 62, 0
2, 81540, Note_on_c, 0, 68, 100
2, 81600, Note_on_c, 0, 68, 0
2, 81600, Note_on_c, 0, 67, 100
2, 81660, Note_on_c, 0, 67, 0
2, 81660, Note_on_c, 0, 68, 100
2, 81720, Note_on_c, 0, 68, 0
2, 81720, Note_on_c, 0, 67, 100
2, 81780, Note_on_c, 0, 67, 0
2, 81780, Note_on_c, 0, 65, 100
2, 81840, Note_on_c, 0, 65, 0
2, 81840, Note_on_c, 0, 70, 0
2, 81840, Note_on_c, 0, 67, 100
2, 81900, Note_on_c, 0, 67, 0
2, 81900, Note_on_c, 0, 70, 100
2, 81960, Note_on_c, 0, 70, 0
2, 81960, Note_on_c, 0, 67, 100
2, 82020, Note_on_c, 0, 67, 0
2, 82020, Note_on_c, 0, 70, 100
2, 82080, Note_on_c, 0, 70, 0
2, 82080, Note_on_c, 0, 63, 100
2, 82140, Note_on_c, 0, 63, 0
2, 82140, Note_on_c, 0, 74, 100
2, 82200, Note_on_c, 0, 74, 0
2, 82200, Note_on_c, 0, 72, 100
2, 82260, Note_on_c, 0, 72, 0
2, 82260, Note_on_c, 0, 70, 100
2, 82320, Note_on_c, 0, 70, 0
2, 82320, Note_on_c, 0, 72, 100
2, 82380, Note_on_c, 0, 72, 0
2, 82380, Note_on_c, 0, 75, 100
2, 82440, Note_on_c, 0, 75, 0
2, 82440, Note_on_c, 0, 72, 100
2, 82500, Note_on_c, 0, 72, 0
2, 82500, Note_on_c, 0, 75, 100
2, 82560, Note_on_c, 0, 75, 0
2, 82560, Note_on_c, 0, 69, 100
2, 82620, Note_on_c, 0, 69, 0
2, 82620, Note_on_c, 0, 70, 100
2, 82680, Note_on_c, 0, 70, 0
2, 82680, Note_on_c, 0, 69, 100
2, 82740, Note_on_c, 0, 69, 0
2, 82740, Note_on_c, 0, 67, 100
2, 82800, Note_on_c, 0, 67, 0
2, 82800, Note_on_c, 0, 69, 100
2, 82860, Note_on_c, 0, 69, 0
2, 82860, Note_on_c, 0, 72, 100
2, 82920, Note_on_c, 0, 72, 0
2, 82920, Note_on_c, 0, 69, 100
2, 82980, Note_on_c, 0, 69, 0
2, 82980, Note_on_c, 0, 72, 100
2, 83040, Note_on_c, 0, 72, 0
2, 83040, Note_on_c, 0, 65, 100
2, 83100, Note_on_c, 0, 65, 0
2, 83100, Note_on_c, 0, 75, 100
2, 83160, Note_on_c, 0, 75, 0
2, 83160, Note_on_c, 0, 74, 100
2, 83220, Note_on_c, 0, 74, 0
2, 83220, Note_on_c, 0, 72, 100
2, 83280, Note_on_c, 0, 72, 0
2, 83280, Note_on_c, 0, 74, 100
2, 83340, Note_on_c, 0, 74, 0
2, 83340, Note_on_c, 0, 77, 100
2, 83400, Note_on_c, 0, 77, 0
2, 83400, Note_on_c, 0, 74, 100
2, 83460, Note_on_c, 0, 74, 0
2, 83460, Note_on_c, 0, 77, 100
2, 83520, Note_on_c, 0, 77, 0
2, 83520, Note_on_c, 0, 70, 100
2, 83640, Note_on_c, 0, 82, 100
2, 83760, Note_on_c, 0, 70, 0
2, 83760, Note_on_c, 0, 72, 100
2, 83880, Note_on_c, 0, 82, 0
2, 83880, Note_on_c, 0, 82, 100
2, 84000, Note_on_c, 0, 72, 0
2, 84000, Note_on_c, 0, 74, 100
2, 84060, Note_on_c, 0, 82, 0
2, 84060, Note_on_c, 0, 81, 100
2, 84120, Note_on_c, 0, 81, 0
2, 84120, Note_on_c, 0, 79, 100
2, 84180, Note_on_c, 0, 79, 0
2, 84180, Note_on_c, 0, 77, 100
2, 84240, Note_on_c, 0, 77, 0
2, 84240, Note_on_c, 0, 74, 0
2, 84240, Note_on_c, 0, 75, 100
2, 84240, Note_on_c, 0, 75, 100
2, 84300, Note_on_c, 0, 75, 0
2, 84300, Note_on_c, 0, 74, 100
2, 84360, Note_on_c, 0, 74, 0
2, 84360, Note_on_c, 0, 72, 100
2, 84420, Note_on_c, 0, 72, 0
2, 84420, Note_on_c, 0, 70, 100
2, 84480, Note_on_c, 0, 70, 0
2, 84480, Note_on_c, 0, 69, 100
2, 84540, Note_on_c, 0, 69, 0
2, 84540, Note_on_c, 0, 72, 100
2, 84600, Note_on_c, 0, 72, 0
2, 84600, Note_on_c, 0, 69, 100
2, 84660, Note_on_c, 0, 69, 0
2, 84660, Note_on_c, 0, 72, 100
2, 84720, Note_on_c, 0, 72, 0
2, 84720, Note_on_c, 0, 75, 0
2, 84720, Note_on_c, 0, 70, 100
2, 84780, Note_on_c, 0, 70, 0
2, 84780, Note_on_c, 0, 74, 100
2, 84840, Note_on_c, 0, 74, 0
2, 84840, Note_on_c, 0, 65, 100
2, 84840, Note_on_c, 0, 70, 100
2, 84900, Note_on_c, 0, 70, 0
2, 84900, Note_on_c, 0, 74, 100
2, 84960, Note_on_c, 0, 74, 0
2, 84960, Note_on_c, 0, 65, 0
2, 84960, Note_on_c, 0, 67, 100
2, 84960, Note_on_c, 0, 70, 100
2, 85020, Note_on_c, 0, 70, 0
2, 85020, Note_on_c, 0, 75, 100
2, 85080, Note_on_c, 0, 75, 0
2, 85080, Note_on_c, 0, 70, 100
2, 85140, Note_on_c, 0, 70, 0
2, 85140, Note_on_c, 0, 75, 100
2, 85200, Note_on_c, 0, 75, 0
2, 85200, Note_on_c, 0, 67, 0
2, 85200, Note_on_c, 0, 65, 100
2, 85200, Note_on_c, 0, 69, 100
2, 85260, Note_on_c, 0, 69, 0
2, 85260, Note_on_c, 0, 75, 100
2, 85320, Note_on_c, 0, 75, 0
2, 85320, Note_on_c, 0, 65, 0
2, 85320, Note_on_c, 0, 63, 100
2, 85320, Note_on_c, 0, 69, 100
2, 85380, Note_on_c, 0, 69, 0
2, 85380, Note_on_c, 0, 75, 100
2, 85440, Note_on_c, 0, 75, 0
2, 85440, Note_on_c, 0, 63, 0
2, 85440, Note_on_c, 0, 65, 100
2, 85440, Note_on_c, 0, 74, 100
2, 85500, Note_on_c, 0, 74, 0
2, 85500, Note_on_c, 0, 72, 100
2, 85560, Note_on_c, 0, 72, 0
2, 85560, Note_on_c, 0, 70, 100
2, 85620, Note_on_c, 0, 70, 0
2, 85620, Note_on_c, 0, 69, 100
2, 85680, Note_on_c, 0, 69, 0
2, 85680, Note_on_c, 0, 70, 100
2, 85740, Note_on_c, 0, 70, 0
2, 85740, Note_on_c, 0, 74, 100
2, 85800, Note_on_c, 0, 74, 0
2, 85800, Note_on_c, 0, 72, 100
2, 85860, Note_on_c, 0, 72, 0
2, 85860, Note_on_c, 0, 70, 100
2, 85920, Note_on_c, 0, 70, 0
2, 85920, Note_on_c, 0, 79, 100
2, 85980, Note_on_c, 0, 79, 0
2, 85980, Note_on_c, 0, 80, 100
2, 86040, Note_on_c, 0, 80, 0
2, 86040, Note_on_c, 0, 79, 100
2, 86100, Note_on_c, 0, 79, 0
2, 86100, Note_on_c, 0, 77, 100
2, 86160, Note_on_c, 0, 77, 0
2, 86160, Note_on_c, 0, 65, 0
2, 86160, Note_on_c, 0, 63, 100
2, 86160, Note_on_c, 0, 79, 100
2, 86220, Note_on_c, 0, 79, 0
2, 86220, Note_on_c, 0, 77, 100
2, 86280, Note_on_c, 0, 77, 0
2, 86280, Note_on_c, 0, 75, 100
2, 86340, Note_on_c, 0, 75, 0
2, 86340, Note_on_c, 0, 74, 100
2, 86400, Note_on_c, 0, 74, 0
2, 86400, Note_on_c, 0, 72, 100
2, 86460, Note_on_c, 0, 72, 0
2, 86460, Note_on_c, 0, 74, 100
2, 86520, Note_on_c, 0, 74, 0
2, 86520, Note_on_c, 0, 72, 100
2, 86580, Note_on_c, 0, 72, 0
2, 86580, Note_on_c, 0, 70, 100
2, 86640, Note_on_c, 0, 70, 0
2, 86640, Note_on_c, 0, 72, 100
2, 86700, Note_on_c, 0, 72, 0
2, 86700, Note_on_c, 0, 75, 100
2, 86760, Note_on_c, 0, 75, 0
2, 86760, Note_on_c, 0, 74, 100
2, 86820, Note_on_c, 0, 74, 0
2, 86820, Note_on_c, 0, 72, 100
2, 86880, Note_on_c, 0, 72, 0
2, 86880, Note_on_c, 0, 63, 0
2, 86880, Note_on_c, 0, 62, 100
2, 86880, Note_on_c, 0, 81, 100
2, 86940, Note_on_c, 0, 81, 0
2, 86940, Note_on_c, 0, 82, 100
2, 87000, Note_on_c, 0, 82, 0
2, 87000, Note_on_c, 0, 81, 100
2, 87060, Note_on_c, 0, 81, 0
2, 87060, Note_on_c, 0, 79, 100
2, 87120, Note_on_c, 0, 79, 0
2, 87120, Note_on_c, 0, 78, 100
2, 87180, Note_on_c, 0, 78, 0
2, 87180, Note_on_c, 0, 76, 100
2, 87240, Note_on_c, 0, 76, 0
2, 87240, Note_on_c, 0, 74, 100
2, 87300, Note_on_c, 0, 74, 0
2, 87300, Note_on_c, 0, 72, 100
2, 87360, Note_on_c, 0, 72, 0
2, 87360, Note_on_c, 0, 70, 100
2, 87420, Note_on_c, 0, 70, 0
2, 87420, Note_on_c, 0, 74, 100
2, 87480, Note_on_c, 0, 74, 0
2, 87480, Note_on_c, 0, 67, 100
2, 87480, Note_on_c, 0, 70, 100
2, 87540, Note_on_c, 0, 70, 0
2, 87540, Note_on_c, 0, 74, 100
2, 87600, Note_on_c, 0, 74, 0
2, 87600, Note_on_c, 0, 62, 0
2, 87600, Note_on_c, 0, 69, 100
2, 87600, Note_on_c, 0, 72, 100
2, 87660, Note_on_c, 0, 72, 0
2, 87660, Note_on_c, 0, 75, 100
2, 87720, Note_on_c, 0, 75, 0
2, 87720, Note_on_c, 0, 67, 0
2, 87720, Note_on_c, 0, 67, 100
2, 87720, Note_on_c, 0, 72, 100
2, 87780, Note_on_c, 0, 72, 0
2, 87780, Note_on_c, 0, 75, 100
2, 87840, Note_on_c, 0, 75, 0
2, 87840, Note_on_c, 0, 69, 0
2, 87840, Note_on_c, 0, 70, 100
2, 87840, Note_on_c, 0, 74, 100
2, 87900, Note_on_c, 0, 67, 0
2, 87900, Note_on_c, 0, 65, 100
2, 87960, Note_on_c, 0, 65, 0
2, 87960, Note_on_c, 0, 63, 100
2, 88020, Note_on_c, 0, 63, 0
2, 88020, Note_on_c, 0, 62, 100
2, 88080, Note_on_c, 0, 62, 0
2, 88080, Note_on_c, 0, 74, 0
2, 88080, Note_on_c, 0, 70, 0
2, 88080, Note_on_c, 0, 75, 100
2, 88080, Note_on_c, 0, 72, 100
2, 88080, Note_on_c, 0, 60, 100
2, 88140, Note_on_c, 0, 60, 0
2, 88140, Note_on_c, 0, 58, 100
2, 88200, Note_on_c, 0, 58, 0
2, 88200, Note_on_c, 0, 57, 100
2, 88260, Note_on_c, 0, 57, 0
2, 88260, Note_on_c, 0, 55, 100
2, 88320, Note_on_c, 0, 55, 0
2, 88320, Note_on_c, 0, 75, 0
2, 88320, Note_on_c, 0, 74, 100
2, 88512, Note_on_c, 0, 72, 0
2, 88560, Note_on_c, 0, 70, 100
2, 88752, Note_on_c, 0, 70, 0
2, 88800, Note_on_c, 0, 74, 0
2, 88800, Note_on_c, 0, 69, 100
2, 88800, Note_on_c, 0, 75, 100
2, 89040, Note_on_c, 0, 75, 0
2, 89040, Note_on_c, 0, 74, 100
2, 89184, Note_on_c, 0, 69, 0
2, 89280, Note_on_c, 0, 70, 100
2, 89340, Note_on_c, 0, 70, 0
2, 89340, Note_on_c, 0, 69, 100
2, 89400, Note_on_c, 0, 69, 0
2, 89400, Note_on_c, 0, 67, 100
2, 89460, Note_on_c, 0, 67, 0
2, 89460, Note_on_c, 0, 66, 100
2, 89520, Note_on_c, 0, 66, 0
2, 89520, Note_on_c, 0, 67, 100
2, 89580, Note_on_c, 0, 67, 0
2, 89580, Note_on_c, 0, 70, 100
2, 89640, Note_on_c, 0, 70, 0
2, 89640, Note_on_c, 0, 67, 100
2, 89700, Note_on_c, 0, 67, 0
2, 89700, Note_on_c, 0, 70, 100
2, 89760, Note_on_c, 0, 70, 0
2, 89760, Note_on_c, 0, 63, 100
2, 89820, Note_on_c, 0, 74, 0
2, 89820, Note_on_c, 0, 77, 100
2, 89880, Note_on_c, 0, 77, 0
2, 89880, Note_on_c, 0, 63, 0
2, 89880, Note_on_c, 0, 75, 100
2, 89940, Note_on_c, 0, 75, 0
2, 89940, Note_on_c, 0, 74, 100
2, 90000, Note_on_c, 0, 74, 0
2, 90000, Note_on_c, 0, 75, 100
2, 90060, Note_on_c, 0, 75, 0
2, 90060, Note_on_c, 0, 79, 100
2, 90120, Note_on_c, 0, 79, 0
2, 90120, Note_on_c, 0, 75, 100
2, 90180, Note_on_c, 0, 75, 0
2, 90180, Note_on_c, 0, 79, 100
2, 90240, Note_on_c, 0, 79, 0
2, 90240, Note_on_c, 0, 80, 100
2, 90300, Note_on_c, 0, 79, 100
2, 90360, Note_on_c, 0, 79, 0
2, 90360, Note_on_c, 0, 77, 100
2, 90420, Note_on_c, 0, 77, 0
2, 90420, Note_on_c, 0, 75, 100
2, 90480, Note_on_c, 0, 75, 0
2, 90480, Note_on_c, 0, 77, 100
2, 90780, Note_on_c, 0, 77, 0
2, 90780, Note_on_c, 0, 75, 100
2, 90840, Note_on_c, 0, 75, 0
2, 90840, Note_on_c, 0, 74, 100
2, 90900, Note_on_c, 0, 74, 0
2, 90900, Note_on_c, 0, 72, 100
2, 90960, Note_on_c, 0, 72, 0
2, 90960, Note_on_c, 0, 74, 100
2, 91200, Note_on_c, 0, 80, 0
2, 91200, Note_on_c, 0, 79, 100
2, 91260, Note_on_c, 0, 74, 0
2, 91260, Note_on_c, 0, 77, 100
2, 91320, Note_on_c, 0, 77, 0
2, 91320, Note_on_c, 0, 75, 100
2, 91380, Note_on_c, 0, 75, 0
2, 91380, Note_on_c, 0, 74, 100
2, 91440, Note_on_c, 0, 74, 0
2, 91440, Note_on_c, 0, 75, 100
2, 91740, Note_on_c, 0, 75, 0
2, 91740, Note_on_c, 0, 74, 100
2, 91800, Note_on_c, 0, 74, 0
2, 91800, Note_on_c, 0, 72, 100
2, 91860, Note_on_c, 0, 72, 0
2, 91860, Note_on_c, 0, 71, 100
2, 91920, Note_on_c, 0, 71, 0
2, 91920, Note_on_c, 0, 72, 100
2, 92160, Note_on_c, 0, 79, 0
2, 92160, Note_on_c, 0, 77, 100
2, 92220, Note_on_c, 0, 72, 0
2, 92220, Note_on_c, 0, 75, 100
2, 92280, Note_on_c, 0, 75, 0
2, 92280, Note_on_c, 0, 73, 100
2, 92340, Note_on_c, 0, 73, 0
2, 92340, Note_on_c, 0, 72, 100
2, 92400, Note_on_c, 0, 72, 0
2, 92400, Note_on_c, 0, 73, 100
2, 92700, Note_on_c, 0, 73, 0
2, 92700, Note_on_c, 0, 72, 100
2, 92760, Note_on_c, 0, 72, 0
2, 92760, Note_on_c, 0, 70, 100
2, 92820, Note_on_c, 0, 70, 0
2, 92820, Note_on_c, 0, 68, 100
2, 92880, Note_on_c, 0, 68, 0
2, 92880, Note_on_c, 0, 70, 100
2, 93120, Note_on_c, 0, 77, 0
2, 93120, Note_on_c, 0, 76, 100
2, 93180, Note_on_c, 0, 70, 0
2, 93180, Note_on_c, 0, 72, 100
2, 93240, Note_on_c, 0, 72, 0
2, 93240, Note_on_c, 0, 70, 100
2, 93300, Note_on_c, 0, 70, 0
2, 93300, Note_on_c, 0, 68, 100
2, 93360, Note_on_c, 0, 68, 0
2, 93360, Note_on_c, 0, 67, 100
2, 93420, Note_on_c, 0, 67, 0
2, 93420, Note_on_c, 0, 65, 100
2, 93480, Note_on_c, 0, 65, 0
2, 93480, Note_on_c, 0, 64, 100
2, 93540, Note_on_c, 0, 64, 0
2, 93540, Note_on_c, 0, 62, 100
2, 93600, Note_on_c, 0, 62, 0
2, 93600, Note_on_c, 0, 76, 0
2, 93600, Note_on_c, 0, 60, 100
2, 93960, Note_on_c, 0, 60, 0
2, 93960, Note_on_c, 0, 79, 115
2, 93960, Note_on_c, 0, 67, 115
2, 93960, Note_on_c, 0, 72, 115
2, 94080, Note_on_c, 0, 72, 0
2, 94080, Note_on_c, 0, 67, 0
2, 94080, Note_on_c, 0, 79, 0
2, 94080, Note_on_c, 0, 72, 115
2, 94080, Note_on_c, 0, 60, 115
2, 94080, Note_on_c, 0, 79, 115
2, 94560, Note_on_c, 0, 79, 0
2, 94560, Note_on_c, 0, 77, 115
2, 95040, Note_on_c, 0, 60, 0
2, 95040, Note_on_c, 0, 72, 0
2, 95040, Note_on_c, 0, 73, 115
2, 95220, Note_on_c, 0, 73, 0
2, 95220, Note_on_c, 0, 75, 115
2, 95280, Note_on_c, 0, 75, 0
2, 95280, Note_on_c, 0, 73, 115
2, 95460, Note_on_c, 0, 73, 0
2, 95460, Note_on_c, 0, 72, 115
2, 95520, Note_on_c, 0, 72, 0
2, 95520, Note_on_c, 0, 77, 0
2, 95520, Note_on_c, 0, 75, 115
2, 95520, Note_on_c, 0, 73, 115
2, 95700, Note_on_c, 0, 73, 0
2, 95700, Note_on_c, 0, 70, 115
2, 95760, Note_on_c, 0, 70, 0
2, 95760, Note_on_c, 0, 68, 115
2, 95940, Note_on_c, 0, 68, 0
2, 95940, Note_on_c, 0, 67, 115
2, 96000, Note_on_c, 0, 67, 0
2, 96000, Note_on_c, 0, 72, 115
2, 96000, Note_on_c, 0, 60, 115
2, 96180, Note_on_c, 0, 60, 0
2, 96180, Note_on_c, 0, 70, 115
2, 96240, Note_on_c, 0, 70, 0
2, 96240, Note_on_c, 0, 68, 115
2, 96420, Note_on_c, 0, 68, 0
2, 96420, Note_on_c, 0, 67, 115
2, 96480, Note_on_c, 0, 67, 0
2, 96480, Note_on_c, 0, 68, 115
2, 96660, Note_on_c, 0, 68, 0
2, 96660, Note_on_c, 0, 63, 115
2, 96720, Note_on_c, 0, 63, 0
2, 96720, Note_on_c, 0, 61, 115
2, 96900, Note_on_c, 0, 61, 0
2, 96900, Note_on_c, 0, 60, 115
2, 96960, Note_on_c, 0, 60, 0
2, 96960, Note_on_c, 0, 65, 115
2, 97320, Note_on_c, 0, 72, 0
2, 97320, Note_on_c, 0, 75, 0
2, 97380, Note_on_c, 0, 72, 115
2, 97380, Note_on_c, 0, 75, 115
2, 97440, Note_on_c, 0, 75, 0
2, 97440, Note_on_c, 0, 72, 0
2, 97440, Note_on_c, 0, 70, 115
2, 97440, Note_on_c, 0, 73, 115
2, 97800, Note_on_c, 0, 73, 0
2, 97800, Note_on_c, 0, 70, 0
2, 97800, Note_on_c, 0, 65, 0
2, 97860, Note_on_c, 0, 72, 115
2, 97860, Note_on_c, 0, 68, 115
2, 97860, Note_on_c, 0, 65, 115
2, 97920, Note_on_c, 0, 65, 0
2, 97920, Note_on_c, 0, 68, 0
2, 97920, Note_on_c, 0, 72, 0
2, 97920, Note_on_c, 0, 63, 115
2, 97920, Note_on_c, 0, 68, 115
2, 97920, Note_on_c, 0, 72, 115
2, 98280, Note_on_c, 0, 63, 0
2, 98340, Note_on_c, 0, 65, 115
2, 98400, Note_on_c, 0, 65, 0
2, 98400, Note_on_c, 0, 72, 0
2, 98400, Note_on_c, 0, 68, 0
2, 98400, Note_on_c, 0, 67, 115
2, 98400, Note_on_c, 0, 70, 115
2, 98760, Note_on_c, 0, 70, 0
2, 98820, Note_on_c, 0, 75, 115
2, 98880, Note_on_c, 0, 75, 0
2, 98880, Note_on_c, 0, 67, 0
2, 98880, Note_on_c, 0, 75, 115
2, 98910, Note_on_c, 0, 75, 0
2, 98910, Note_on_c, 0, 73, 115
2, 98940, Note_on_c, 0, 73, 0
2, 98940, Note_on_c, 0, 75, 115
2, 98970, Note_on_c, 0, 75, 0
2, 98970, Note_on_c, 0, 73, 115
2, 99000, Note_on_c, 0, 73, 0
2, 99000, Note_on_c, 0, 75, 115
2, 99030, Note_on_c, 0, 75, 0
2, 99030, Note_on_c, 0, 73, 115
2, 99060, Note_on_c, 0, 73, 0
2, 99060, Note_on_c, 0, 75, 115
2, 99060, Note_on_c, 0, 72, 115
2, 99090, Note_on_c, 0, 75, 0
2, 99090, Note_on_c, 0, 73, 115
2, 99120, Note_on_c, 0, 73, 0
2, 99120, Note_on_c, 0, 72, 0
2, 99120, Note_on_c, 0, 75, 115
2, 99120, Note_on_c, 0, 70, 115
2, 99150, Note_on_c, 0, 75, 0
2, 99150, Note_on_c, 0, 73, 115
2, 99180, Note_on_c, 0, 73, 0
2, 99180, Note_on_c, 0, 75, 115
2, 99210, Note_on_c, 0, 75, 0
2, 99210, Note_on_c, 0, 73, 115
2, 99240, Note_on_c, 0, 73, 0
2, 99240, Note_on_c, 0, 75, 115
2, 99270, Note_on_c, 0, 75, 0
2, 99270, Note_on_c, 0, 73, 115
2, 99300, Note_on_c, 0, 73, 0
2, 99300, Note_on_c, 0, 70, 0
2, 99300, Note_on_c, 0, 75, 115
2, 99300, Note_on_c, 0, 68, 115
2, 99330, Note_on_c, 0, 75, 0
2, 99330, Note_on_c, 0, 73, 115
2, 99360, Note_on_c, 0, 73, 0
2, 99360, Note_on_c, 0, 68, 0
2, 99360, Note_on_c, 0, 75, 115
2, 99360, Note_on_c, 0, 70, 115
2, 99390, Note_on_c, 0, 75, 0
2, 99390, Note_on_c, 0, 73, 115
2, 99420, Note_on_c, 0, 73, 0
2, 99420, Note_on_c, 0, 75, 115
2, 99450, Note_on_c, 0, 75, 0
2, 99450, Note_on_c, 0, 73, 115
2, 99480, Note_on_c, 0, 73, 0
2, 99480, Note_on_c, 0, 70, 0
2, 99480, Note_on_c, 0, 75, 115
2, 99510, Note_on_c, 0, 75, 0
2, 99510, Note_on_c, 0, 73, 115
2, 99540, Note_on_c, 0, 73, 0
2, 99540, Note_on_c, 0, 75, 115
2, 99570, Note_on_c, 0, 75, 0
2, 99570, Note_on_c, 0, 73, 115
2, 99600, Note_on_c, 0, 73, 0
2, 99600, Note_on_c, 0, 75, 115
2, 99630, Note_on_c, 0, 75, 0
2, 99630, Note_on_c, 0, 73, 115
2, 99660, Note_on_c, 0, 73, 0
2, 99660, Note_on_c, 0, 75, 115
2, 99690, Note_on_c, 0, 75, 0
2, 99690, Note_on_c, 0, 73, 115
2, 99720, Note_on_c, 0, 73, 0
2, 99720, Note_on_c, 0, 75, 115
2, 99750, Note_on_c, 0, 75, 0
2, 99750, Note_on_c, 0, 73, 115
2, 99780, Note_on_c, 0, 73, 0
2, 99780, Note_on_c, 0, 75, 115
2, 99810, Note_on_c, 0, 75, 0
2, 99810, Note_on_c, 0, 73, 115
2, 99840, Note_on_c, 0, 73, 0
2, 99840, Note_on_c, 0, 75, 115
2, 99870, Note_on_c, 0, 75, 0
2, 99870, Note_on_c, 0, 73, 115
2, 99900, Note_on_c, 0, 73, 0
2, 99900, Note_on_c, 0, 75, 115
2, 99930, Note_on_c, 0, 75, 0
2, 99930, Note_on_c, 0, 73, 115
2, 99960, Note_on_c, 0, 73, 0
2, 99960, Note_on_c, 0, 75, 115
2, 99990, Note_on_c, 0, 75, 0
2, 99990, Note_on_c, 0, 73, 115
2, 100020, Note_on_c, 0, 73, 0
2, 100020, Note_on_c, 0, 70, 115
2, 100020, Note_on_c, 0, 75, 115
2, 100050, Note_on_c, 0, 75, 0
2, 100050, Note_on_c, 0, 73, 115
2, 100080, Note_on_c, 0, 73, 0
2, 100080, Note_on_c, 0, 70, 0
2, 100080, Note_on_c, 0, 68, 115
2, 100080, Note_on_c, 0, 75, 115
2, 100110, Note_on_c, 0, 75, 0
2, 100110, Note_on_c, 0, 73, 115
2, 100140, Note_on_c, 0, 73, 0
2, 100140, Note_on_c, 0, 75, 115
2, 100170, Note_on_c, 0, 75, 0
2, 100170, Note_on_c, 0, 73, 115
2, 100200, Note_on_c, 0, 73, 0
2, 100200, Note_on_c, 0, 75, 115
2, 100230, Note_on_c, 0, 75, 0
2, 100230, Note_on_c, 0, 73, 115
2, 100260, Note_on_c, 0, 73, 0
2, 100260, Note_on_c, 0, 68, 0
2, 100260, Note_on_c, 0, 67, 115
2, 100260, Note_on_c, 0, 75, 115
2, 100290, Note_on_c, 0, 75, 0
2, 100290, Note_on_c, 0, 73, 115
2, 100320, Note_on_c, 0, 73, 0
2, 100320, Note_on_c, 0, 67, 0
2, 100320, Note_on_c, 0, 68, 115
2, 100320, Note_on_c, 0, 75, 115
2, 100350, Note_on_c, 0, 75, 0
2, 100350, Note_on_c, 0, 73, 115
2, 100380, Note_on_c, 0, 73, 0
2, 100380, Note_on_c, 0, 75, 115
2, 100410, Note_on_c, 0, 75, 0
2, 100410, Note_on_c, 0, 73, 115
2, 100440, Note_on_c, 0, 73, 0
2, 100440, Note_on_c, 0, 68, 0
2, 100440, Note_on_c, 0, 75, 115
2, 100470, Note_on_c, 0, 75, 0
2, 100470, Note_on_c, 0, 73, 115
2, 100500, Note_on_c, 0, 73, 0
2, 100500, Note_on_c, 0, 75, 115
2, 100530, Note_on_c, 0, 75, 0
2, 100530, Note_on_c, 0, 73, 115
2, 100560, Note_on_c, 0, 73, 0
2, 100560, Note_on_c, 0, 75, 115
2, 100590, Note_on_c, 0, 75, 0
2, 100590, Note_on_c, 0, 73, 115
2, 100620, Note_on_c, 0, 73, 0
2, 100620, Note_on_c, 0, 75, 115
2, 100650, Note_on_c, 0, 75, 0
2, 100650, Note_on_c, 0, 73, 115
2, 100680, Note_on_c, 0, 73, 0
2, 100680, Note_on_c, 0, 75, 115
2, 100710, Note_on_c, 0, 75, 0
2, 100710, Note_on_c, 0, 73, 115
2, 100740, Note_on_c, 0, 73, 0
2, 100740, Note_on_c, 0, 75, 115
2, 100770, Note_on_c, 0, 75, 0
2, 100770, Note_on_c, 0, 73, 115
2, 100800, Note_on_c, 0, 73, 0
2, 100800, Note_on_c, 0, 75, 115
2, 100830, Note_on_c, 0, 75, 0
2, 100830, Note_on_c, 0, 73, 115
2, 100860, Note_on_c, 0, 73, 0
2, 100860, Note_on_c, 0, 75, 115
2, 100890, Note_on_c, 0, 75, 0
2, 100890, Note_on_c, 0, 73, 115
2, 100920, Note_on_c, 0, 73, 0
2, 100920, Note_on_c, 0, 75, 115
2, 100950, Note_on_c, 0, 75, 0
2, 100950, Note_on_c, 0, 73, 115
2, 100980, Note_on_c, 0, 73, 0
2, 100980, Note_on_c, 0, 61, 115
2, 100980, Note_on_c, 0, 75, 115
2, 101010, Note_on_c, 0, 75, 0
2, 101010, Note_on_c, 0, 73, 115
2, 101040, Note_on_c, 0, 73, 0
2, 101040, Note_on_c, 0, 61, 0
2, 101040, Note_on_c, 0, 60, 115
2, 101040, Note_on_c, 0, 75, 115
2, 101070, Note_on_c, 0, 75, 0
2, 101070, Note_on_c, 0, 73, 115
2, 101100, Note_on_c, 0, 73, 0
2, 101100, Note_on_c, 0, 75, 115
2, 101130, Note_on_c, 0, 75, 0
2, 101130, Note_on_c, 0, 73, 115
2, 101160, Note_on_c, 0, 73, 0
2, 101160, Note_on_c, 0, 75, 115
2, 101190, Note_on_c, 0, 75, 0
2, 101190, Note_on_c, 0, 73, 115
2, 101220, Note_on_c, 0, 73, 0
2, 101220, Note_on_c, 0, 60, 0
2, 101220, Note_on_c, 0, 58, 115
2, 101220, Note_on_c, 0, 75, 115
2, 101250, Note_on_c, 0, 75, 0
2, 101250, Note_on_c, 0, 73, 115
2, 101280, Note_on_c, 0, 73, 0
2, 101280, Note_on_c, 0, 58, 0
2, 101280, Note_on_c, 0, 60, 115
2, 101280, Note_on_c, 0, 75, 115
2, 101400, Note_on_c, 0, 60, 0
2, 101460, Note_on_c, 0, 75, 0
2, 101460, Note_on_c, 0, 74, 115
2, 101520, Note_on_c, 0, 74, 0
2, 101520, Note_on_c, 0, 75, 115
2, 101700, Note_on_c, 0, 75, 0
2, 101700, Note_on_c, 0, 77, 115
2, 101760, Note_on_c, 0, 77, 0
2, 101760, Note_on_c, 0, 70, 115
2, 101940, Note_on_c, 0, 65, 115
2, 102000, Note_on_c, 0, 65, 0
2, 102000, Note_on_c, 0, 63, 115
2, 102180, Note_on_c, 0, 63, 0
2, 102180, Note_on_c, 0, 62, 115
2, 102240, Note_on_c, 0, 62, 0
2, 102240, Note_on_c, 0, 63, 115
2, 102480, Note_on_c, 0, 63, 0
2, 102720, Note_on_c, 0, 63, 115
2, 102900, Note_on_c, 0, 63, 0
2, 102900, Note_on_c, 0, 65, 115
2, 102960, Note_on_c, 0, 65, 0
2, 102960, Note_on_c, 0, 63, 115
2, 103080, Note_on_c, 0, 70, 0
2, 103140, Note_on_c, 0, 63, 0
2, 103140, Note_on_c, 0, 61, 115
2, 103140, Note_on_c, 0, 70, 115
2, 103200, Note_on_c, 0, 70, 0
2, 103200, Note_on_c, 0, 61, 0
2, 103200, Note_on_c, 0, 63, 115
2, 103200, Note_on_c, 0, 68, 115
2, 103380, Note_on_c, 0, 63, 0
2, 103380, Note_on_c, 0, 56, 115
2, 103440, Note_on_c, 0, 56, 0
2, 103440, Note_on_c, 0, 60, 115
2, 103560, Note_on_c, 0, 68, 0
2, 103620, Note_on_c, 0, 60, 0
2, 103620, Note_on_c, 0, 72, 115
2, 103620, Note_on_c, 0, 63, 115
2, 103680, Note_on_c, 0, 63, 0
2, 103680, Note_on_c, 0, 72, 0
2, 103680, Note_on_c, 0, 68, 115
2, 103680, Note_on_c, 0, 73, 115
2, 103860, Note_on_c, 0, 77, 115
2, 103920, Note_on_c, 0, 77, 0
2, 103920, Note_on_c, 0, 79, 115
2, 103980, Note_on_c, 0, 68, 0
2, 103980, Note_on_c, 0, 67, 115
2, 104040, Note_on_c, 0, 67, 0
2, 104040, Note_on_c, 0, 65, 115
2, 104100, Note_on_c, 0, 65, 0
2, 104100, Note_on_c, 0, 79, 0
2, 104100, Note_on_c, 0, 63, 115
2, 104100, Note_on_c, 0, 80, 115
2, 104160, Note_on_c, 0, 80, 0
2, 104160, Note_on_c, 0, 63, 0
2, 104160, Note_on_c, 0, 73, 0
2, 104160, Note_on_c, 0, 82, 115
2, 104160, Note_on_c, 0, 61, 115
2, 104340, Note_on_c, 0, 61, 0
2, 104340, Note_on_c, 0, 70, 115
2, 104400, Note_on_c, 0, 70, 0
2, 104400, Note_on_c, 0, 63, 115
2, 104580, Note_on_c, 0, 63, 0
2, 104580, Note_on_c, 0, 61, 115
2, 104640, Note_on_c, 0, 61, 0
2, 104880, Note_on_c, 0, 82, 0
2, 104880, Note_on_c, 0, 75, 115
2, 104880, Note_on_c, 0, 80, 115
2, 105120, Note_on_c, 0, 80, 0
2, 105120, Note_on_c, 0, 77, 115
2, 105300, Note_on_c, 0, 75, 0
2, 105300, Note_on_c, 0, 73, 115
2, 105360, Note_on_c, 0, 73, 0
2, 105360, Note_on_c, 0, 72, 115
2, 105480, Note_on_c, 0, 77, 0
2, 105540, Note_on_c, 0, 72, 0
2, 105540, Note_on_c, 0, 75, 115
2, 105540, Note_on_c, 0, 70, 115
2, 105600, Note_on_c, 0, 70, 0
2, 105600, Note_on_c, 0, 75, 0
2, 105600, Note_on_c, 0, 70, 115
2, 105600, Note_on_c, 0, 73, 115
2, 106080, Note_on_c, 0, 73, 0
2, 106080, Note_on_c, 0, 70, 0
2, 106080, Note_on_c, 0, 68, 115
2, 106080, Note_on_c, 0, 72, 115
2, 106320, Note_on_c, 0, 68, 0
2, 106380, Note_on_c, 0, 72, 0
2, 106380, Note_on_c, 0, 72, 115
2, 106440, Note_on_c, 0, 72, 0
2, 106440, Note_on_c, 0, 70, 115
2, 106500, Note_on_c, 0, 70, 0
2, 106500, Note_on_c, 0, 68, 115
2, 106560, Note_on_c, 0, 68, 0
2, 106560, Note_on_c, 0, 75, 115
2, 106680, Note_on_c, 0, 75, 0
2, 106800, Note_on_c, 0, 68, 115
2, 106800, Note_on_c, 0, 77, 115
2, 106920, Note_on_c, 0, 77, 0
2, 106920, Note_on_c, 0, 68, 0
2, 107040, Note_on_c, 0, 67, 115
2, 107040, Note_on_c, 0, 73, 115
2, 107055, Note_on_c, 0, 73, 0
2, 107070, Note_on_c, 0, 75, 115
2, 107085, Note_on_c, 0, 75, 0
2, 107100, Note_on_c, 0, 73, 115
2, 107160, Note_on_c, 0, 67, 0
2, 107190, Note_on_c, 0, 73, 0
2, 107280, Note_on_c, 0, 68, 115
2, 107280, Note_on_c, 0, 72, 115
2, 107400, Note_on_c, 0, 72, 0
2, 107400, Note_on_c, 0, 68, 0
2, 107520, Note_on_c, 0, 61, 115
2, 107535, Note_on_c, 0, 61, 0
2, 107550, Note_on_c, 0, 63, 115
2, 107565, Note_on_c, 0, 63, 0
2, 107580, Note_on_c, 0, 61, 115
2, 107670, Note_on_c, 0, 61, 0
2, 107760, Note_on_c, 0, 60, 115
2, 107880, Note_on_c, 0, 60, 0
2, 108240, Note_on_c, 0, 73, 60
2, 108300, Note_on_c, 0, 73, 0
2, 108300, Note_on_c, 0, 72, 60
2, 108360, Note_on_c, 0, 72, 0
2, 108360, Note_on_c, 0, 70, 60
2, 108420, Note_on_c, 0, 70, 0
2, 108420, Note_on_c, 0, 68, 60
2, 108480, Note_on_c, 0, 68, 0
2, 108480, Note_on_c, 0, 75, 60
2, 108600, Note_on_c, 0, 75, 0
2, 108720, Note_on_c, 0, 68, 60
2, 108720, Note_on_c, 0, 77, 60
2, 108840, Note_on_c, 0, 77, 0
2, 108840, Note_on_c, 0, 68, 0
2, 108960, Note_on_c, 0, 67, 60
2, 108960, Note_on_c, 0, 73, 60
2, 108975, Note_on_c, 0, 73, 0
2, 108990, Note_on_c, 0, 75, 60
2, 109005, Note_on_c, 0, 75, 0
2, 109020, Note_on_c, 0, 73, 60
2, 109080, Note_on_c, 0, 67, 0
2, 109110, Note_on_c, 0, 73, 0
2, 109200, Note_on_c, 0, 68, 60
2, 109200, Note_on_c, 0, 72, 60
2, 109320, Note_on_c, 0, 72, 0
2, 109320, Note_on_c, 0, 68, 0
2, 109440, Note_on_c, 0, 61, 60
2, 109455, Note_on_c, 0, 61, 0
2, 109470, Note_on_c, 0, 63, 60
2, 109485, Note_on_c, 0, 63, 0
2, 109500, Note_on_c, 0, 61, 60
2, 109590, Note_on_c, 0, 61, 0
2, 109680, Note_on_c, 0, 60, 60
2, 109800, Note_on_c, 0, 60, 0
2, 110160, Note_on_c, 0, 68, 115
2, 110220, Note_on_c, 0, 68, 0
2, 110220, Note_on_c, 0, 67, 115
2, 110280, Note_on_c, 0, 67, 0
2, 110280, Note_on_c, 0, 65, 115
2, 110340, Note_on_c, 0, 65, 0
2, 110340, Note_on_c, 0, 63, 115
2, 110400, Note_on_c, 0, 63, 0
2, 110400, Note_on_c, 0, 70, 115
2, 110520, Note_on_c, 0, 70, 0
2, 110640, Note_on_c, 0, 72, 115
2, 110640, Note_on_c, 0, 75, 115
2, 110760, Note_on_c, 0, 75, 0
2, 110760, Note_on_c, 0, 72, 0
2, 110880, Note_on_c, 0, 68, 115
2, 110880, Note_on_c, 0, 74, 115
2, 110895, Note_on_c, 0, 68, 0
2, 110910, Note_on_c, 0, 70, 115
2, 110925, Note_on_c, 0, 70, 0
2, 110940, Note_on_c, 0, 68, 115
2, 111000, Note_on_c, 0, 74, 0
2, 111030, Note_on_c, 0, 68, 0
2, 111120, Note_on_c, 0, 67, 115
2, 111120, Note_on_c, 0, 75, 115
2, 111240, Note_on_c, 0, 75, 0
2, 111240, Note_on_c, 0, 67, 0
2, 111360, Note_on_c, 0, 56, 115
2, 111375, Note_on_c, 0, 56, 0
2, 111390, Note_on_c, 0, 58, 115
2, 111405, Note_on_c, 0, 58, 0
2, 111420, Note_on_c, 0, 56, 115
2, 111510, Note_on_c, 0, 56, 0
2, 111600, Note_on_c, 0, 55, 115
2, 111720, Note_on_c, 0, 55, 0
2, 112080, Note_on_c, 0, 68, 60
2, 112140, Note_on_c, 0, 68, 0
2, 112140, Note_on_c, 0, 67, 60
2, 112200, Note_on_c, 0, 67, 0
2, 112200, Note_on_c, 0, 65, 60
2, 112260, Note_on_c, 0, 65, 0
2, 112260, Note_on_c, 0, 63, 60
2, 112320, Note_on_c, 0, 63, 0
2, 112320, Note_on_c, 0, 70, 60
2, 112440, Note_on_c, 0, 70, 0
2, 112560, Note_on_c, 0, 72, 60
2, 112560, Note_on_c, 0, 75, 60
2, 112680, Note_on_c, 0, 75, 0
2, 112680, Note_on_c, 0, 72, 0
2, 112800, Note_on_c, 0, 68, 60
2, 112800, Note_on_c, 0, 74, 60
2, 112815, Note_on_c, 0, 68, 0
2, 112830, Note_on_c, 0, 70, 60
2, 112845, Note_on_c, 0, 70, 0
2, 112860, Note_on_c, 0, 68, 60
2, 112920, Note_on_c, 0, 74, 0
2, 112950, Note_on_c, 0, 68, 0
2, 113040, Note_on_c, 0, 67, 60
2, 113040, Note_on_c, 0, 75, 60
2, 113160, Note_on_c, 0, 75, 0
2, 113160, Note_on_c, 0, 67, 0
2, 113280, Note_on_c, 0, 56, 60
2, 113295, Note_on_c, 0, 56, 0
2, 113310, Note_on_c, 0, 58, 60
2, 113325, Note_on_c, 0, 58, 0
2, 113340, Note_on_c, 0, 56, 60
2, 113430, Note_on_c, 0, 56, 0
2, 113520, Note_on_c, 0, 55, 60
2, 113610, Note_on_c, 0, 55, 0
2, 114000, Note_on_c, 0, 63, 115
2, 114000, Note_on_c, 0, 70, 115
2, 114120, Note_on_c, 0, 79, 115
2, 114240, Note_on_c, 0, 70, 0
2, 114240, Note_on_c, 0, 63, 0
2, 114240, Note_on_c, 0, 72, 115
2, 114240, Note_on_c, 0, 68, 115
2, 114360, Note_on_c, 0, 79, 0
2, 114360, Note_on_c, 0, 76, 115
2, 114480, Note_on_c, 0, 68, 0
2, 114480, Note_on_c, 0, 72, 0
2, 114480, Note_on_c, 0, 67, 115
2, 114480, Note_on_c, 0, 70, 115
2, 114600, Note_on_c, 0, 76, 0
2, 114600, Note_on_c, 0, 77, 115
2, 114720, Note_on_c, 0, 70, 0
2, 114720, Note_on_c, 0, 67, 0
2, 114720, Note_on_c, 0, 72, 115
2, 114720, Note_on_c, 0, 68, 115
2, 114780, Note_on_c, 0, 77, 0
2, 114780, Note_on_c, 0, 80, 115
2, 114840, Note_on_c, 0, 80, 0
2, 114840, Note_on_c, 0, 82, 115
2, 114900, Note_on_c, 0, 82, 0
2, 114900, Note_on_c, 0, 84, 115
2, 114960, Note_on_c, 0, 84, 0
2, 114960, Note_on_c, 0, 68, 0
2, 114960, Note_on_c, 0, 72, 0
2, 114960, Note_on_c, 0, 65, 115
2, 114960, Note_on_c, 0, 82, 115
2, 115020, Note_on_c, 0, 82, 0
2, 115020, Note_on_c, 0, 80, 115
2, 115080, Note_on_c, 0, 80, 0
2, 115080, Note_on_c, 0, 79, 115
2, 115140, Note_on_c, 0, 79, 0
2, 115140, Note_on_c, 0, 77, 115
2, 115200, Note_on_c, 0, 65, 0
2, 115200, Note_on_c, 0, 70, 115
2, 115200, Note_on_c, 0, 67, 115
2, 115320, Note_on_c, 0, 77, 0
2, 115320, Note_on_c, 0, 74, 115
2, 115440, Note_on_c, 0, 67, 0
2, 115440, Note_on_c, 0, 70, 0
2, 115440, Note_on_c, 0, 65, 115
2, 115440, Note_on_c, 0, 68, 115
2, 115560, Note_on_c, 0, 74, 0
2, 115560, Note_on_c, 0, 75, 115
2, 115680, Note_on_c, 0, 68, 0
2, 115680, Note_on_c, 0, 65, 0
2, 115680, Note_on_c, 0, 70, 115
2, 115680, Note_on_c, 0, 67, 115
2, 115740, Note_on_c, 0, 75, 0
2, 115740, Note_on_c, 0, 79, 115
2, 115800, Note_on_c, 0, 79, 0
2, 115800, Note_on_c, 0, 80, 115
2, 115860, Note_on_c, 0, 80, 0
2, 115860, Note_on_c, 0, 82, 115
2, 115920, Note_on_c, 0, 82, 0
2, 115920, Note_on_c, 0, 67, 0
2, 115920, Note_on_c, 0, 70, 0
2, 115920, Note_on_c, 0, 63, 115
2, 115920, Note_on_c, 0, 80, 115
2, 115980, Note_on_c, 0, 80, 0
2, 115980, Note_on_c, 0, 79, 115
2, 116040, Note_on_c, 0, 79, 0
2, 116040, Note_on_c, 0, 77, 115
2, 116100, Note_on_c, 0, 77, 0
2, 116100, Note_on_c, 0, 75, 115
2, 116160, Note_on_c, 0, 63, 0
2, 116160, Note_on_c, 0, 68, 115
2, 116160, Note_on_c, 0, 65, 115
2, 116280, Note_on_c, 0, 75, 0
2, 116280, Note_on_c, 0, 72, 115
2, 116400, Note_on_c, 0, 65, 0
2, 116400, Note_on_c, 0, 68, 0
2, 116400, Note_on_c, 0, 63, 115
2, 116400, Note_on_c, 0, 67, 115
2, 116520, Note_on_c, 0, 72, 0
2, 116520, Note_on_c, 0, 74, 115
2, 116640, Note_on_c, 0, 67, 0
2, 116640, Note_on_c, 0, 63, 0
2, 116640, Note_on_c, 0, 68, 115
2, 116640, Note_on_c, 0, 65, 115
2, 116700, Note_on_c, 0, 74, 0
2, 116700, Note_on_c, 0, 75, 115
2, 116760, Note_on_c, 0, 75, 0
2, 116760, Note_on_c, 0, 77, 115
2, 116820, Note_on_c, 0, 77, 0
2, 116820, Note_on_c, 0, 79, 115
2, 116880, Note_on_c, 0, 79, 0
2, 116880, Note_on_c, 0, 65, 0
2, 116880, Note_on_c, 0, 68, 0
2, 116880, Note_on_c, 0, 60, 115
2, 116880, Note_on_c, 0, 77, 115
2, 116940, Note_on_c, 0, 77, 0
2, 116940, Note_on_c, 0, 75, 115
2, 117000, Note_on_c, 0, 75, 0
2, 117000, Note_on_c, 0, 74, 115
2, 117060, Note_on_c, 0, 74, 0
2, 117060, Note_on_c, 0, 72, 115
2, 117120, Note_on_c, 0, 60, 0
2, 117120, Note_on_c, 0, 65, 115
2, 117120, Note_on_c, 0, 62, 115
2, 117240, Note_on_c, 0, 72, 0
2, 117240, Note_on_c, 0, 69, 115
2, 117360, Note_on_c, 0, 62, 0
2, 117360, Note_on_c, 0, 65, 0
2, 117360, Note_on_c, 0, 60, 115
2, 117360, Note_on_c, 0, 63, 115
2, 117480, Note_on_c, 0, 69, 0
2, 117480, Note_on_c, 0, 70, 115
2, 117600, Note_on_c, 0, 63, 0
2, 117600, Note_on_c, 0, 60, 0
2, 117600, Note_on_c, 0, 65, 115
2, 117600, Note_on_c, 0, 62, 115
2, 117720, Note_on_c, 0, 70, 0
2, 117720, Note_on_c, 0, 80, 115
2, 117840, Note_on_c, 0, 62, 0
2, 117840, Note_on_c, 0, 65, 0
2, 117840, Note_on_c, 0, 62, 115
2, 117840, Note_on_c, 0, 58, 115
2, 117960, Note_on_c, 0, 80, 0
2, 117960, Note_on_c, 0, 78, 115
2, 118080, Note_on_c, 0, 58, 0
2, 118080, Note_on_c, 0, 62, 0
2, 118080, Note_on_c, 0, 63, 115
2, 118140, Note_on_c, 0, 78, 0
2, 118140, Note_on_c, 0, 75, 115
2, 118200, Note_on_c, 0, 75, 0
2, 118200, Note_on_c, 0, 74, 115
2, 118260, Note_on_c, 0, 74, 0
2, 118260, Note_on_c, 0, 75, 115
2, 118320, Note_on_c, 0, 75, 0
2, 118320, Note_on_c, 0, 63, 0
2, 118320, Note_on_c, 0, 82, 115
2, 118680, Note_on_c, 0, 82, 0
2, 118680, Note_on_c, 0, 81, 115
2, 118740, Note_on_c, 0, 81, 0
2, 118740, Note_on_c, 0, 82, 115
2, 118800, Note_on_c, 0, 82, 0
2, 118800, Note_on_c, 0, 63, 115
2, 118800, Note_on_c, 0, 83, 115
2, 118860, Note_on_c, 0, 83, 0
2, 118860, Note_on_c, 0, 82, 115
2, 118920, Note_on_c, 0, 82, 0
2, 118920, Note_on_c, 0, 81, 115
2, 118980, Note_on_c, 0, 81, 0
2, 118980, Note_on_c, 0, 82, 115
2, 119040, Note_on_c, 0, 82, 0
2, 119040, Note_on_c, 0, 63, 0
2, 119040, Note_on_c, 0, 65, 115
2, 119040, Note_on_c, 0, 75, 115
2, 119160, Note_on_c, 0, 75, 0
2, 119160, Note_on_c, 0, 74, 115
2, 119280, Note_on_c, 0, 65, 0
2, 119340, Note_on_c, 0, 74, 0
2, 119340, Note_on_c, 0, 75, 115
2, 119400, Note_on_c, 0, 75, 0
2, 119400, Note_on_c, 0, 77, 115
2, 119460, Note_on_c, 0, 77, 0
2, 119460, Note_on_c, 0, 74, 115
2, 119520, Note_on_c, 0, 74, 0
2, 119520, Note_on_c, 0, 70, 115
2, 119640, Note_on_c, 0, 70, 0
2, 119640, Note_on_c, 0, 80, 115
2, 119760, Note_on_c, 0, 70, 115
2, 119880, Note_on_c, 0, 80, 0
2, 119880, Note_on_c, 0, 78, 115
2, 120000, Note_on_c, 0, 70, 0
2, 120000, Note_on_c, 0, 70, 115
2, 120000, Note_on_c, 0, 63, 115
2, 120060, Note_on_c, 0, 78, 0
2, 120060, Note_on_c, 0, 75, 115
2, 120120, Note_on_c, 0, 75, 0
2, 120120, Note_on_c, 0, 74, 115
2, 120180, Note_on_c, 0, 74, 0
2, 120180, Note_on_c, 0, 75, 115
2, 120240, Note_on_c, 0, 75, 0
2, 120240, Note_on_c, 0, 63, 0
2, 120240, Note_on_c, 0, 70, 0
2, 120240, Note_on_c, 0, 65, 115
2, 120240, Note_on_c, 0, 82, 115
2, 120480, Note_on_c, 0, 65, 0
2, 120480, Note_on_c, 0, 66, 115
2, 120600, Note_on_c, 0, 82, 0
2, 120600, Note_on_c, 0, 81, 115
2, 120660, Note_on_c, 0, 81, 0
2, 120660, Note_on_c, 0, 82, 115
2, 120720, Note_on_c, 0, 82, 0
2, 120720, Note_on_c, 0, 66, 0
2, 120720, Note_on_c, 0, 63, 115
2, 120720, Note_on_c, 0, 66, 115
2, 120720, Note_on_c, 0, 83, 115
2, 120780, Note_on_c, 0, 83, 0
2, 120780, Note_on_c, 0, 82, 115
2, 120840, Note_on_c, 0, 82, 0
2, 120840, Note_on_c, 0, 81, 115
2, 120900, Note_on_c, 0, 81, 0
2, 120900, Note_on_c, 0, 82, 115
2, 120960, Note_on_c, 0, 82, 0
2, 120960, Note_on_c, 0, 66, 0
2, 120960, Note_on_c, 0, 63, 0
2, 120960, Note_on_c, 0, 68, 115
2, 120960, Note_on_c, 0, 65, 115
2, 120960, Note_on_c, 0, 75, 115
2, 121080, Note_on_c, 0, 75, 0
2, 121080, Note_on_c, 0, 74, 115
2, 121200, Note_on_c, 0, 65, 0
2, 121200, Note_on_c, 0, 68, 0
2, 121200, Note_on_c, 0, 66, 115
2, 121200, Note_on_c, 0, 63, 115
2, 121260, Note_on_c, 0, 74, 0
2, 121260, Note_on_c, 0, 75, 115
2, 121320, Note_on_c, 0, 75, 0
2, 121320, Note_on_c, 0, 77, 115
2, 121380, Note_on_c, 0, 77, 0
2, 121380, Note_on_c, 0, 74, 115
2, 121440, Note_on_c, 0, 74, 0
2, 121440, Note_on_c, 0, 63, 0
2, 121440, Note_on_c, 0, 66, 0
2, 121440, Note_on_c, 0, 65, 115
2, 121440, Note_on_c, 0, 62, 115
2, 121440, Note_on_c, 0, 70, 115
2, 121560, Note_on_c, 0, 70, 0
2, 121560, Note_on_c, 0, 80, 115
2, 121680, Note_on_c, 0, 62, 0
2, 121680, Note_on_c, 0, 65, 0
2, 121680, Note_on_c, 0, 62, 115
2, 121680, Note_on_c, 0, 58, 115
2, 121800, Note_on_c, 0, 80, 0
2, 121800, Note_on_c, 0, 78, 115
2, 121920, Note_on_c, 0, 58, 0
2, 121920, Note_on_c, 0, 62, 0
2, 121920, Note_on_c, 0, 70, 115
2, 121920, Note_on_c, 0, 63, 115
2, 122040, Note_on_c, 0, 78, 0
2, 122040, Note_on_c, 0, 77, 115
2, 122100, Note_on_c, 0, 77, 0
2, 122100, Note_on_c, 0, 75, 115
2, 122160, Note_on_c, 0, 75, 0
2, 122160, Note_on_c, 0, 63, 0
2, 122160, Note_on_c, 0, 70, 0
2, 122160, Note_on_c, 0, 56, 115
2, 122160, Note_on_c, 0, 68, 115
2, 122160, Note_on_c, 0, 77, 115
2, 122280, Note_on_c, 0, 77, 0
2, 122280, Note_on_c, 0, 72, 115
2, 122400, Note_on_c, 0, 72, 0
2, 122400, Note_on_c, 0, 68, 0
2, 122400, Note_on_c, 0, 56, 0
2, 122400, Note_on_c, 0, 66, 115
2, 122400, Note_on_c, 0, 75, 115
2, 122640, Note_on_c, 0, 75, 0
2, 122640, Note_on_c, 0, 66, 0
2, 122640, Note_on_c, 0, 65, 115
2, 122640, Note_on_c, 0, 74, 115
2, 122670, Note_on_c, 0, 74, 0
2, 122670, Note_on_c, 0, 75, 115
2, 122700, Note_on_c, 0, 75, 0
2, 122700, Note_on_c, 0, 74, 115
2, 122820, Note_on_c, 0, 74, 0
2, 122820, Note_on_c, 0, 75, 115
2, 122880, Note_on_c, 0, 75, 0
2, 122880, Note_on_c, 0, 65, 0
2, 122880, Note_on_c, 0, 75, 115
2, 123060, Note_on_c, 0, 72, 115
2, 123060, Note_on_c, 0, 68, 115
2, 123120, Note_on_c, 0, 68, 0
2, 123120, Note_on_c, 0, 72, 0
2, 123120, Note_on_c, 0, 70, 115
2, 123120, Note_on_c, 0, 67, 115
2, 123300, Note_on_c, 0, 67, 0
2, 123300, Note_on_c, 0, 70, 0
2, 123300, Note_on_c, 0, 68, 115
2, 123300, Note_on_c, 0, 65, 115
2, 123360, Note_on_c, 0, 65, 0
2, 123360, Note_on_c, 0, 68, 0
2, 123360, Note_on_c, 0, 70, 115
2, 123360, Note_on_c, 0, 67, 115
2, 123540, Note_on_c, 0, 67, 0
2, 123540, Note_on_c, 0, 70, 0
2, 123540, Note_on_c, 0, 68, 115
2, 123540, Note_on_c, 0, 65, 115
2, 123600, Note_on_c, 0, 65, 0
2, 123600, Note_on_c, 0, 68, 0
2, 123600, Note_on_c, 0, 67, 115
2, 123600, Note_on_c, 0, 63, 115
2, 123780, Note_on_c, 0, 63, 0
2, 123780, Note_on_c, 0, 67, 0
2, 123780, Note_on_c, 0, 65, 115
2, 123780, Note_on_c, 0, 62, 115
2, 123840, Note_on_c, 0, 62, 0
2, 123840, Note_on_c, 0, 65, 0
2, 123840, Note_on_c, 0, 63, 115
2, 123840, Note_on_c, 0, 67, 115
2, 123960, Note_on_c, 0, 63, 0
2, 124080, Note_on_c, 0, 67, 0
2, 124080, Note_on_c, 0, 75, 0
2, 125880, Note_on_c, 0, 70, 115
2, 126120, Note_on_c, 0, 70, 0
2, 126120, Note_on_c, 0, 70, 115
2, 126300, Note_on_c, 0, 70, 0
2, 126300, Note_on_c, 0, 69, 115
2, 126360, Note_on_c, 0, 69, 0
2, 126360, Note_on_c, 0, 67, 115
2, 126420, Note_on_c, 0, 67, 0
2, 126420, Note_on_c, 0, 65, 115
2, 126480, Note_on_c, 0, 65, 0
2, 126480, Note_on_c, 0, 63, 115
2, 126540, Note_on_c, 0, 63, 0
2, 126540, Note_on_c, 0, 62, 115
2, 126600, Note_on_c, 0, 62, 0
2, 126600, Note_on_c, 0, 60, 115
2, 126660, Note_on_c, 0, 60, 0
2, 126660, Note_on_c, 0, 58, 115
2, 126720, Note_on_c, 0, 58, 0
2, 126720, Note_on_c, 0, 57, 115
2, 126780, Note_on_c, 0, 57, 0
2, 126780, Note_on_c, 0, 60, 115
2, 126840, Note_on_c, 0, 60, 0
2, 126840, Note_on_c, 0, 57, 115
2, 126900, Note_on_c, 0, 57, 0
2, 126900, Note_on_c, 0, 60, 115
2, 126960, Note_on_c, 0, 60, 0
2, 126960, Note_on_c, 0, 58, 115
2, 127020, Note_on_c, 0, 58, 0
2, 127020, Note_on_c, 0, 62, 115
2, 127080, Note_on_c, 0, 62, 0
2, 127080, Note_on_c, 0, 58, 115
2, 127140, Note_on_c, 0, 58, 0
2, 127140, Note_on_c, 0, 62, 115
2, 127200, Note_on_c, 0, 62, 0
2, 127200, Note_on_c, 0, 58, 115
2, 127260, Note_on_c, 0, 58, 0
2, 127260, Note_on_c, 0, 63, 115
2, 127320, Note_on_c, 0, 63, 0
2, 127320, Note_on_c, 0, 58, 115
2, 127380, Note_on_c, 0, 58, 0
2, 127380, Note_on_c, 0, 63, 115
2, 127440, Note_on_c, 0, 63, 0
2, 127440, Note_on_c, 0, 57, 115
2, 127500, Note_on_c, 0, 57, 0
2, 127500, Note_on_c, 0, 63, 115
2, 127560, Note_on_c, 0, 63, 0
2, 127560, Note_on_c, 0, 57, 115
2, 127620, Note_on_c, 0, 57, 0
2, 127620, Note_on_c, 0, 63, 115
2, 127680, Note_on_c, 0, 63, 0
2, 127680, Note_on_c, 0, 62, 115
2, 127740, Note_on_c, 0, 62, 0
2, 127740, Note_on_c, 0, 60, 115
2, 127800, Note_on_c, 0, 60, 0
2, 127800, Note_on_c, 0, 58, 115
2, 127860, Note_on_c, 0, 58, 0
2, 127860, Note_on_c, 0, 57, 115
2, 127920, Note_on_c, 0, 57, 0
2, 127920, Note_on_c, 0, 58, 115
2, 127980, Note_on_c, 0, 58, 0
2, 127980, Note_on_c, 0, 62, 115
2, 128040, Note_on_c, 0, 62, 0
2, 128040, Note_on_c, 0, 58, 115
2, 128100, Note_on_c, 0, 58, 0
2, 128100, Note_on_c, 0, 62, 115
2, 128160, Note_on_c, 0, 62, 0
2, 128160, Note_on_c, 0, 67, 115
2, 128700, Note_on_c, 0, 67, 0
2, 128700, Note_on_c, 0, 67, 115
2, 128760, Note_on_c, 0, 67, 0
2, 128760, Note_on_c, 0, 65, 115
2, 128820, Note_on_c, 0, 65, 0
2, 128820, Note_on_c, 0, 64, 115
2, 128880, Note_on_c, 0, 64, 0
2, 128880, Note_on_c, 0, 65, 115
2, 128940, Note_on_c, 0, 65, 0
2, 128940, Note_on_c, 0, 68, 115
2, 129000, Note_on_c, 0, 68, 0
2, 129000, Note_on_c, 0, 65, 115
2, 129060, Note_on_c, 0, 65, 0
2, 129060, Note_on_c, 0, 68, 115
2, 129120, Note_on_c, 0, 68, 0
2, 129120, Note_on_c, 0, 62, 115
2, 129180, Note_on_c, 0, 62, 0
2, 129180, Note_on_c, 0, 65, 115
2, 129240, Note_on_c, 0, 65, 0
2, 129240, Note_on_c, 0, 63, 115
2, 129300, Note_on_c, 0, 63, 0
2, 129300, Note_on_c, 0, 62, 115
2, 129360, Note_on_c, 0, 62, 0
2, 129360, Note_on_c, 0, 63, 115
2, 129420, Note_on_c, 0, 63, 0
2, 129420, Note_on_c, 0, 67, 115
2, 129480, Note_on_c, 0, 67, 0
2, 129480, Note_on_c, 0, 63, 115
2, 129540, Note_on_c, 0, 63, 0
2, 129540, Note_on_c, 0, 67, 115
2, 129600, Note_on_c, 0, 67, 0
2, 129600, Note_on_c, 0, 60, 115
2, 129720, Note_on_c, 0, 75, 115
2, 129840, Note_on_c, 0, 60, 0
2, 129840, Note_on_c, 0, 68, 115
2, 129960, Note_on_c, 0, 75, 0
2, 129960, Note_on_c, 0, 75, 115
2, 130080, Note_on_c, 0, 68, 0
2, 130080, Note_on_c, 0, 67, 115
2, 130140, Note_on_c, 0, 75, 0
2, 130140, Note_on_c, 0, 74, 115
2, 130200, Note_on_c, 0, 74, 0
2, 130200, Note_on_c, 0, 72, 115
2, 130260, Note_on_c, 0, 72, 0
2, 130260, Note_on_c, 0, 70, 115
2, 130320, Note_on_c, 0, 70, 0
2, 130320, Note_on_c, 0, 67, 0
2, 130320, Note_on_c, 0, 65, 115
2, 130320, Note_on_c, 0, 68, 115
2, 130380, Note_on_c, 0, 68, 0
2, 130380, Note_on_c, 0, 65, 0
2, 130380, Note_on_c, 0, 63, 115
2, 130380, Note_on_c, 0, 67, 115
2, 130440, Note_on_c, 0, 67, 0
2, 130440, Note_on_c, 0, 63, 0
2, 130440, Note_on_c, 0, 62, 115
2, 130440, Note_on_c, 0, 65, 115
2, 130500, Note_on_c, 0, 65, 0
2, 130500, Note_on_c, 0, 62, 0
2, 130500, Note_on_c, 0, 63, 115
2, 130500, Note_on_c, 0, 60, 115
2, 130560, Note_on_c, 0, 60, 0
2, 130560, Note_on_c, 0, 63, 0
2, 130560, Note_on_c, 0, 62, 115
2, 130620, Note_on_c, 0, 62, 0
2, 130620, Note_on_c, 0, 65, 115
2, 130680, Note_on_c, 0, 65, 0
2, 130680, Note_on_c, 0, 62, 115
2, 130740, Note_on_c, 0, 62, 0
2, 130740, Note_on_c, 0, 65, 115
2, 130800, Note_on_c, 0, 65, 0
2, 130800, Note_on_c, 0, 63, 115
2, 130860, Note_on_c, 0, 63, 0
2, 130860, Note_on_c, 0, 67, 115
2, 130920, Note_on_c, 0, 67, 0
2, 130920, Note_on_c, 0, 63, 115
2, 130980, Note_on_c, 0, 63, 0
2, 130980, Note_on_c, 0, 67, 115
2, 131040, Note_on_c, 0, 67, 0
2, 131040, Note_on_c, 0, 63, 115
2, 131100, Note_on_c, 0, 63, 0
2, 131100, Note_on_c, 0, 68, 115
2, 131160, Note_on_c, 0, 68, 0
2, 131160, Note_on_c, 0, 63, 115
2, 131220, Note_on_c, 0, 63, 0
2, 131220, Note_on_c, 0, 68, 115
2, 131280, Note_on_c, 0, 68, 0
2, 131280, Note_on_c, 0, 62, 115
2, 131340, Note_on_c, 0, 62, 0
2, 131340, Note_on_c, 0, 68, 115
2, 131400, Note_on_c, 0, 68, 0
2, 131400, Note_on_c, 0, 62, 115
2, 131460, Note_on_c, 0, 62, 0
2, 131460, Note_on_c, 0, 68, 115
2, 131520, Note_on_c, 0, 68, 0
2, 131520, Note_on_c, 0, 67, 115
2, 131580, Note_on_c, 0, 67, 0
2, 131580, Note_on_c, 0, 65, 115
2, 131640, Note_on_c, 0, 65, 0
2, 131640, Note_on_c, 0, 63, 115
2, 131700, Note_on_c, 0, 63, 0
2, 131700, Note_on_c, 0, 62, 115
2, 131760, Note_on_c, 0, 62, 0
2, 131760, Note_on_c, 0, 63, 115
2, 131820, Note_on_c, 0, 63, 0
2, 131820, Note_on_c, 0, 67, 115
2, 131880, Note_on_c, 0, 67, 0
2, 131880, Note_on_c, 0, 63, 115
2, 131940, Note_on_c, 0, 63, 0
2, 131940, Note_on_c, 0, 67, 115
2, 132000, Note_on_c, 0, 67, 0
2, 132000, Note_on_c, 0, 72, 115
2, 132480, Note_on_c, 0, 72, 0
2, 132480, Note_on_c, 0, 72, 115
2, 132540, Note_on_c, 0, 72, 0
2, 132540, Note_on_c, 0, 63, 115
2, 132600, Note_on_c, 0, 63, 0
2, 132600, Note_on_c, 0, 62, 115
2, 132660, Note_on_c, 0, 62, 0
2, 132660, Note_on_c, 0, 60, 115
2, 132720, Note_on_c, 0, 60, 0
2, 132720, Note_on_c, 0, 62, 115
2, 132780, Note_on_c, 0, 62, 0
2, 132780, Note_on_c, 0, 65, 115
2, 132840, Note_on_c, 0, 65, 0
2, 132840, Note_on_c, 0, 62, 115
2, 132900, Note_on_c, 0, 62, 0
2, 132900, Note_on_c, 0, 65, 115
2, 132960, Note_on_c, 0, 65, 0
2, 132960, Note_on_c, 0, 70, 115
2, 133500, Note_on_c, 0, 70, 0
2, 133500, Note_on_c, 0, 62, 115
2, 133560, Note_on_c, 0, 62, 0
2, 133560, Note_on_c, 0, 60, 115
2, 133620, Note_on_c, 0, 60, 0
2, 133620, Note_on_c, 0, 58, 115
2, 133680, Note_on_c, 0, 58, 0
2, 133680, Note_on_c, 0, 60, 115
2, 133740, Note_on_c, 0, 60, 0
2, 133740, Note_on_c, 0, 63, 115
2, 133800, Note_on_c, 0, 63, 0
2, 133800, Note_on_c, 0, 60, 115
2, 133860, Note_on_c, 0, 60, 0
2, 133860, Note_on_c, 0, 63, 115
2, 133920, Note_on_c, 0, 63, 0
2, 133920, Note_on_c, 0, 69, 115
2, 133980, Note_on_c, 0, 69, 0
2, 133980, Note_on_c, 0, 70, 115
2, 134040, Note_on_c, 0, 70, 0
2, 134040, Note_on_c, 0, 69, 115
2, 134100, Note_on_c, 0, 69, 0
2, 134100, Note_on_c, 0, 67, 115
2, 134160, Note_on_c, 0, 67, 0
2, 134160, Note_on_c, 0, 69, 115
2, 134220, Note_on_c, 0, 69, 0
2, 134220, Note_on_c, 0, 72, 115
2, 134280, Note_on_c, 0, 72, 0
2, 134280, Note_on_c, 0, 69, 115
2, 134340, Note_on_c, 0, 69, 0
2, 134340, Note_on_c, 0, 72, 115
2, 134400, Note_on_c, 0, 72, 0
2, 134400, Note_on_c, 0, 74, 115
2, 134460, Note_on_c, 0, 74, 0
2, 134460, Note_on_c, 0, 75, 115
2, 134520, Note_on_c, 0, 75, 0
2, 134520, Note_on_c, 0, 74, 115
2, 134580, Note_on_c, 0, 74, 0
2, 134580, Note_on_c, 0, 72, 115
2, 134640, Note_on_c, 0, 72, 0
2, 134640, Note_on_c, 0, 74, 115
2, 134700, Note_on_c, 0, 74, 0
2, 134700, Note_on_c, 0, 77, 115
2, 134760, Note_on_c, 0, 77, 0
2, 134760, Note_on_c, 0, 74, 115
2, 134820, Note_on_c, 0, 74, 0
2, 134820, Note_on_c, 0, 77, 115
2, 134880, Note_on_c, 0, 77, 0
2, 134880, Note_on_c, 0, 82, 115
2, 134940, Note_on_c, 0, 82, 0
2, 134940, Note_on_c, 0, 81, 115
2, 135000, Note_on_c, 0, 81, 0
2, 135000, Note_on_c, 0, 79, 115
2, 135060, Note_on_c, 0, 79, 0
2, 135060, Note_on_c, 0, 77, 115
2, 135120, Note_on_c, 0, 77, 0
2, 135120, Note_on_c, 0, 75, 115
2, 135180, Note_on_c, 0, 75, 0
2, 135180, Note_on_c, 0, 74, 115
2, 135240, Note_on_c, 0, 74, 0
2, 135240, Note_on_c, 0, 72, 115
2, 135300, Note_on_c, 0, 72, 0
2, 135300, Note_on_c, 0, 70, 115
2, 135360, Note_on_c, 0, 70, 0
2, 135360, Note_on_c, 0, 69, 115
2, 135420, Note_on_c, 0, 69, 0
2, 135420, Note_on_c, 0, 72, 115
2, 135480, Note_on_c, 0, 72, 0
2, 135480, Note_on_c, 0, 69, 115
2, 135540, Note_on_c, 0, 69, 0
2, 135540, Note_on_c, 0, 72, 115
2, 135600, Note_on_c, 0, 72, 0
2, 135600, Note_on_c, 0, 70, 115
2, 135660, Note_on_c, 0, 70, 0
2, 135660, Note_on_c, 0, 74, 115
2, 135720, Note_on_c, 0, 74, 0
2, 135720, Note_on_c, 0, 70, 115
2, 135780, Note_on_c, 0, 70, 0
2, 135780, Note_on_c, 0, 74, 115
2, 135840, Note_on_c, 0, 74, 0
2, 135840, Note_on_c, 0, 70, 115
2, 135900, Note_on_c, 0, 70, 0
2, 135900, Note_on_c, 0, 75, 115
2, 135960, Note_on_c, 0, 75, 0
2, 135960, Note_on_c, 0, 70, 115
2, 136020, Note_on_c, 0, 70, 0
2, 136020, Note_on_c, 0, 75, 115
2, 136080, Note_on_c, 0, 75, 0
2, 136080, Note_on_c, 0, 69, 115
2, 136140, Note_on_c, 0, 69, 0
2, 136140, Note_on_c, 0, 75, 115
2, 136200, Note_on_c, 0, 75, 0
2, 136200, Note_on_c, 0, 69, 115
2, 136260, Note_on_c, 0, 69, 0
2, 136260, Note_on_c, 0, 75, 115
2, 136320, Note_on_c, 0, 75, 0
2, 136320, Note_on_c, 0, 74, 115
2, 136380, Note_on_c, 0, 74, 0
2, 136380, Note_on_c, 0, 75, 115
2, 136440, Note_on_c, 0, 75, 0
2, 136440, Note_on_c, 0, 74, 115
2, 136500, Note_on_c, 0, 74, 0
2, 136500, Note_on_c, 0, 72, 115
2, 136560, Note_on_c, 0, 72, 0
2, 136560, Note_on_c, 0, 74, 115
2, 136620, Note_on_c, 0, 74, 0
2, 136620, Note_on_c, 0, 72, 115
2, 136680, Note_on_c, 0, 72, 0
2, 136680, Note_on_c, 0, 70, 115
2, 136740, Note_on_c, 0, 70, 0
2, 136740, Note_on_c, 0, 69, 115
2, 136800, Note_on_c, 0, 69, 0
2, 136800, Note_on_c, 0, 70, 115
2, 136860, Note_on_c, 0, 70, 0
2, 136860, Note_on_c, 0, 72, 115
2, 136920, Note_on_c, 0, 72, 0
2, 136920, Note_on_c, 0, 70, 115
2, 136980, Note_on_c, 0, 70, 0
2, 136980, Note_on_c, 0, 69, 115
2, 137040, Note_on_c, 0, 69, 0
2, 137040, Note_on_c, 0, 70, 115
2, 137100, Note_on_c, 0, 70, 0
2, 137100, Note_on_c, 0, 68, 115
2, 137160, Note_on_c, 0, 68, 0
2, 137160, Note_on_c, 0, 67, 115
2, 137220, Note_on_c, 0, 67, 0
2, 137220, Note_on_c, 0, 65, 115
2, 137280, Note_on_c, 0, 65, 0
2, 137280, Note_on_c, 0, 67, 115
2, 137400, Note_on_c, 0, 67, 0
2, 138720, Note_on_c, 0, 80, 115
2, 138960, Note_on_c, 0, 77, 115
2, 139200, Note_on_c, 0, 80, 0
2, 139200, Note_on_c, 0, 62, 115
2, 139200, Note_on_c, 0, 79, 115
2, 139440, Note_on_c, 0, 62, 0
2, 139440, Note_on_c, 0, 77, 0
2, 139440, Note_on_c, 0, 63, 115
2, 139440, Note_on_c, 0, 75, 115
2, 139680, Note_on_c, 0, 75, 0
2, 139680, Note_on_c, 0, 63, 0
2, 139680, Note_on_c, 0, 79, 0
2, 139680, Note_on_c, 0, 74, 115
2, 139680, Note_on_c, 0, 77, 115
2, 139680, Note_on_c, 0, 65, 115
2, 139920, Note_on_c, 0, 65, 0
2, 139920, Note_on_c, 0, 67, 115
2, 140160, Note_on_c, 0, 77, 0
2, 140160, Note_on_c, 0, 74, 0
2, 140160, Note_on_c, 0, 75, 115
2, 140160, Note_on_c, 0, 72, 115
2, 140220, Note_on_c, 0, 75, 0
2, 140220, Note_on_c, 0, 77, 115
2, 140280, Note_on_c, 0, 77, 0
2, 140280, Note_on_c, 0, 72, 0
2, 140280, Note_on_c, 0, 67, 0
2, 140280, Note_on_c, 0, 75, 115
2, 140340, Note_on_c, 0, 75, 0
2, 140340, Note_on_c, 0, 74, 115
2, 140400, Note_on_c, 0, 74, 0
2, 140400, Note_on_c, 0, 75, 115
2, 140460, Note_on_c, 0, 75, 0
2, 140460, Note_on_c, 0, 74, 115
2, 140520, Note_on_c, 0, 74, 0
2, 140520, Note_on_c, 0, 72, 115
2, 140580, Note_on_c, 0, 72, 0
2, 140580, Note_on_c, 0, 71, 115
2, 140640, Note_on_c, 0, 71, 0
2, 140640, Note_on_c, 0, 72, 115
2, 140700, Note_on_c, 0, 72, 0
2, 140700, Note_on_c, 0, 74, 115
2, 140760, Note_on_c, 0, 74, 0
2, 140760, Note_on_c, 0, 72, 115
2, 140820, Note_on_c, 0, 72, 0
2, 140820, Note_on_c, 0, 71, 115
2, 140880, Note_on_c, 0, 71, 0
2, 140880, Note_on_c, 0, 72, 115
2, 140940, Note_on_c, 0, 72, 0
2, 140940, Note_on_c, 0, 70, 115
2, 141000, Note_on_c, 0, 70, 0
2, 141000, Note_on_c, 0, 69, 115
2, 141060, Note_on_c, 0, 69, 0
2, 141060, Note_on_c, 0, 67, 115
2, 141120, Note_on_c, 0, 67, 0
2, 141120, Note_on_c, 0, 65, 115
2, 141120, Note_on_c, 0, 69, 115
2, 141180, Note_on_c, 0, 65, 0
2, 141180, Note_on_c, 0, 70, 115
2, 141240, Note_on_c, 0, 70, 0
2, 141240, Note_on_c, 0, 69, 0
2, 141240, Note_on_c, 0, 69, 115
2, 141300, Note_on_c, 0, 69, 0
2, 141300, Note_on_c, 0, 67, 115
2, 141360, Note_on_c, 0, 67, 0
2, 141360, Note_on_c, 0, 69, 115
2, 141420, Note_on_c, 0, 69, 0
2, 141420, Note_on_c, 0, 67, 115
2, 141480, Note_on_c, 0, 67, 0
2, 141480, Note_on_c, 0, 65, 115
2, 141540, Note_on_c, 0, 65, 0
2, 141540, Note_on_c, 0, 64, 115
2, 141600, Note_on_c, 0, 64, 0
2, 141600, Note_on_c, 0, 65, 115
2, 141660, Note_on_c, 0, 65, 0
2, 141660, Note_on_c, 0, 67, 115
2, 141720, Note_on_c, 0, 67, 0
2, 141720, Note_on_c, 0, 65, 115
2, 141780, Note_on_c, 0, 65, 0
2, 141780, Note_on_c, 0, 64, 115
2, 141840, Note_on_c, 0, 64, 0
2, 141840, Note_on_c, 0, 65, 115
2, 141900, Note_on_c, 0, 65, 0
2, 141900, Note_on_c, 0, 63, 115
2, 141960, Note_on_c, 0, 63, 0
2, 141960, Note_on_c, 0, 62, 115
2, 142020, Note_on_c, 0, 62, 0
2, 142020, Note_on_c, 0, 60, 115
2, 142080, Note_on_c, 0, 60, 0
2, 142560, Note_on_c, 0, 79, 115
2, 142800, Note_on_c, 0, 75, 115
2, 143040, Note_on_c, 0, 79, 0
2, 143040, Note_on_c, 0, 77, 115
2, 143280, Note_on_c, 0, 75, 0
2, 143280, Note_on_c, 0, 74, 115
2, 143520, Note_on_c, 0, 74, 0
2, 143520, Note_on_c, 0, 77, 0
2, 143520, Note_on_c, 0, 72, 115
2, 143520, Note_on_c, 0, 75, 115
2, 144000, Note_on_c, 0, 75, 0
2, 144000, Note_on_c, 0, 72, 0
2, 144000, Note_on_c, 0, 70, 115
2, 144000, Note_on_c, 0, 74, 115
2, 144060, Note_on_c, 0, 67, 115
2, 144120, Note_on_c, 0, 67, 0
2, 144120, Note_on_c, 0, 65, 115
2, 144180, Note_on_c, 0, 65, 0
2, 144180, Note_on_c, 0, 64, 115
2, 144240, Note_on_c, 0, 64, 0
2, 144240, Note_on_c, 0, 74, 0
2, 144240, Note_on_c, 0, 70, 0
2, 144240, Note_on_c, 0, 79, 115
2, 144240, Note_on_c, 0, 73, 115
2, 144240, Note_on_c, 0, 82, 115
2, 144240, Note_on_c, 0, 65, 115
2, 144300, Note_on_c, 0, 65, 0
2, 144300, Note_on_c, 0, 67, 115
2, 144360, Note_on_c, 0, 67, 0
2, 144360, Note_on_c, 0, 65, 115
2, 144420, Note_on_c, 0, 65, 0
2, 144420, Note_on_c, 0, 64, 115
2, 144480, Note_on_c, 0, 64, 0
2, 144480, Note_on_c, 0, 82, 0
2, 144480, Note_on_c, 0, 73, 0
2, 144480, Note_on_c, 0, 80, 115
2, 144480, Note_on_c, 0, 72, 115
2, 144480, Note_on_c, 0, 65, 115
2, 144540, Note_on_c, 0, 65, 0
2, 144540, Note_on_c, 0, 63, 115
2, 144600, Note_on_c, 0, 63, 0
2, 144600, Note_on_c, 0, 79, 0
2, 144600, Note_on_c, 0, 77, 115
2, 144600, Note_on_c, 0, 61, 115
2, 144660, Note_on_c, 0, 61, 0
2, 144660, Note_on_c, 0, 60, 115
2, 144720, Note_on_c, 0, 60, 0
2, 144720, Note_on_c, 0, 77, 0
2, 144720, Note_on_c, 0, 73, 115
2, 144720, Note_on_c, 0, 58, 115
2, 144780, Note_on_c, 0, 58, 0
2, 144780, Note_on_c, 0, 56, 115
2, 144840, Note_on_c, 0, 56, 0
2, 144840, Note_on_c, 0, 72, 0
2, 144840, Note_on_c, 0, 70, 115
2, 144840, Note_on_c, 0, 55, 115
2, 144900, Note_on_c, 0, 55, 0
2, 144900, Note_on_c, 0, 53, 115
2, 144960, Note_on_c, 0, 53, 0
2, 144960, Note_on_c, 0, 80, 0
2, 144960, Note_on_c, 0, 79, 115
2, 145080, Note_on_c, 0, 73, 0
2, 145080, Note_on_c, 0, 72, 115
2, 145200, Note_on_c, 0, 72, 0
2, 145200, Note_on_c, 0, 79, 0
2, 145200, Note_on_c, 0, 70, 0
2, 145200, Note_on_c, 0, 68, 115
2, 145200, Note_on_c, 0, 72, 115
2, 145320, Note_on_c, 0, 72, 0
2, 145320, Note_on_c, 0, 72, 115
2, 145440, Note_on_c, 0, 72, 0
2, 145440, Note_on_c, 0, 68, 0
2, 145440, Note_on_c, 0, 73, 115
2, 145560, Note_on_c, 0, 70, 115
2, 145680, Note_on_c, 0, 70, 0
2, 145680, Note_on_c, 0, 67, 115
2, 145800, Note_on_c, 0, 73, 0
2, 145800, Note_on_c, 0, 72, 115
2, 145920, Note_on_c, 0, 67, 0
2, 145920, Note_on_c, 0, 65, 115
2, 146400, Note_on_c, 0, 65, 0
2, 146400, Note_on_c, 0, 72, 0
2, 146400, Note_on_c, 0, 77, 115
2, 146400, Note_on_c, 0, 65, 115
2, 146400, Note_on_c, 0, 72, 115
2, 146520, Note_on_c, 0, 72, 0
2, 146520, Note_on_c, 0, 65, 0
2, 146520, Note_on_c, 0, 75, 115
2, 146520, Note_on_c, 0, 65, 115
2, 146640, Note_on_c, 0, 65, 0
2, 146640, Note_on_c, 0, 75, 0
2, 146640, Note_on_c, 0, 73, 115
2, 146640, Note_on_c, 0, 67, 115
2, 146760, Note_on_c, 0, 67, 0
2, 146760, Note_on_c, 0, 73, 0
2, 146760, Note_on_c, 0, 72, 115
2, 146760, Note_on_c, 0, 68, 115
2, 146880, Note_on_c, 0, 77, 0
2, 146880, Note_on_c, 0, 70, 115
2, 146880, Note_on_c, 0, 75, 115
2, 147000, Note_on_c, 0, 68, 0
2, 147000, Note_on_c, 0, 72, 0
2, 147120, Note_on_c, 0, 70, 0
2, 147120, Note_on_c, 0, 68, 115
2, 147120, Note_on_c, 0, 63, 115
2, 147360, Note_on_c, 0, 63, 0
2, 147360, Note_on_c, 0, 68, 0
2, 147360, Note_on_c, 0, 75, 0
2, 147360, Note_on_c, 0, 73, 115
2, 147360, Note_on_c, 0, 70, 115
2, 147360, Note_on_c, 0, 65, 115
2, 147600, Note_on_c, 0, 65, 0
2, 147600, Note_on_c, 0, 63, 115
2, 147840, Note_on_c, 0, 73, 0
2, 147840, Note_on_c, 0, 72, 115
2, 147900, Note_on_c, 0, 70, 0
2, 147900, Note_on_c, 0, 70, 115
2, 147960, Note_on_c, 0, 70, 0
2, 147960, Note_on_c, 0, 68, 115
2, 148020, Note_on_c, 0, 68, 0
2, 148020, Note_on_c, 0, 67, 115
2, 148080, Note_on_c, 0, 67, 0
2, 148080, Note_on_c, 0, 63, 0
2, 148080, Note_on_c, 0, 65, 115
2, 148140, Note_on_c, 0, 65, 0
2, 148140, Note_on_c, 0, 68, 115
2, 148200, Note_on_c, 0, 68, 0
2, 148200, Note_on_c, 0, 65, 115
2, 148260, Note_on_c, 0, 65, 0
2, 148260, Note_on_c, 0, 68, 115
2, 148320, Note_on_c, 0, 68, 0
2, 148320, Note_on_c, 0, 72, 0
2, 148320, Note_on_c, 0, 74, 115
2, 148320, Note_on_c, 0, 62, 115
2, 148440, Note_on_c, 0, 62, 0
2, 148440, Note_on_c, 0, 65, 115
2, 148560, Note_on_c, 0, 65, 0
2, 148560, Note_on_c, 0, 70, 115
2, 148800, Note_on_c, 0, 74, 0
2, 148800, Note_on_c, 0, 75, 115
2, 148860, Note_on_c, 0, 70, 0
2, 148860, Note_on_c, 0, 73, 115
2, 148920, Note_on_c, 0, 73, 0
2, 148920, Note_on_c, 0, 72, 115
2, 148980, Note_on_c, 0, 72, 0
2, 148980, Note_on_c, 0, 70, 115
2, 149040, Note_on_c, 0, 70, 0
2, 149040, Note_on_c, 0, 68, 115
2, 149100, Note_on_c, 0, 68, 0
2, 149100, Note_on_c, 0, 72, 115
2, 149160, Note_on_c, 0, 72, 0
2, 149160, Note_on_c, 0, 68, 115
2, 149220, Note_on_c, 0, 68, 0
2, 149220, Note_on_c, 0, 72, 115
2, 149280, Note_on_c, 0, 72, 0
2, 149280, Note_on_c, 0, 75, 0
2, 149280, Note_on_c, 0, 77, 115
2, 149280, Note_on_c, 0, 65, 115
2, 149400, Note_on_c, 0, 65, 0
2, 149400, Note_on_c, 0, 67, 115
2, 149520, Note_on_c, 0, 67, 0
2, 149520, Note_on_c, 0, 68, 115
2, 149760, Note_on_c, 0, 68, 0
2, 149760, Note_on_c, 0, 67, 115
2, 149820, Note_on_c, 0, 77, 0
2, 149820, Note_on_c, 0, 70, 115
2, 149880, Note_on_c, 0, 70, 0
2, 149880, Note_on_c, 0, 75, 115
2, 149940, Note_on_c, 0, 67, 0
2, 149940, Note_on_c, 0, 68, 115
2, 150000, Note_on_c, 0, 68, 0
2, 150000, Note_on_c, 0, 70, 115
2, 150060, Note_on_c, 0, 75, 0
2, 150060, Note_on_c, 0, 74, 115
2, 150120, Note_on_c, 0, 74, 0
2, 150120, Note_on_c, 0, 75, 115
2, 150180, Note_on_c, 0, 70, 0
2, 150180, Note_on_c, 0, 58, 115
2, 150240, Note_on_c, 0, 58, 0
2, 150300, Note_on_c, 0, 75, 0
2, 150300, Note_on_c, 0, 74, 115
2, 150360, Note_on_c, 0, 74, 0
2, 150360, Note_on_c, 0, 72, 115
2, 150420, Note_on_c, 0, 72, 0
2, 150420, Note_on_c, 0, 70, 115
2, 150480, Note_on_c, 0, 70, 0
2, 150480, Note_on_c, 0, 68, 115
2, 150540, Note_on_c, 0, 68, 0
2, 150540, Note_on_c, 0, 67, 115
2, 150600, Note_on_c, 0, 67, 0
2, 150600, Note_on_c, 0, 65, 115
2, 150660, Note_on_c, 0, 65, 0
2, 150660, Note_on_c, 0, 63, 115
2, 150720, Note_on_c, 0, 63, 0
2, 150720, Note_on_c, 0, 62, 115
2, 150780, Note_on_c, 0, 62, 0
2, 150780, Note_on_c, 0, 65, 115
2, 150840, Note_on_c, 0, 65, 0
2, 150840, Note_on_c, 0, 62, 115
2, 150900, Note_on_c, 0, 62, 0
2, 150900, Note_on_c, 0, 65, 115
2, 150960, Note_on_c, 0, 65, 0
2, 150960, Note_on_c, 0, 63, 115
2, 151020, Note_on_c, 0, 63, 0
2, 151020, Note_on_c, 0, 67, 115
2, 151080, Note_on_c, 0, 67, 0
2, 151080, Note_on_c, 0, 63, 115
2, 151140, Note_on_c, 0, 63, 0
2, 151140, Note_on_c, 0, 67, 115
2, 151200, Note_on_c, 0, 67, 0
2, 151200, Note_on_c, 0, 63, 115
2, 151260, Note_on_c, 0, 63, 0
2, 151260, Note_on_c, 0, 68, 115
2, 151320, Note_on_c, 0, 68, 0
2, 151320, Note_on_c, 0, 63, 115
2, 151380, Note_on_c, 0, 63, 0
2, 151380, Note_on_c, 0, 68, 115
2, 151440, Note_on_c, 0, 68, 0
2, 151440, Note_on_c, 0, 62, 115
2, 151500, Note_on_c, 0, 62, 0
2, 151500, Note_on_c, 0, 68, 115
2, 151560, Note_on_c, 0, 68, 0
2, 151560, Note_on_c, 0, 62, 115
2, 151620, Note_on_c, 0, 62, 0
2, 151620, Note_on_c, 0, 68, 115
2, 151680, Note_on_c, 0, 68, 0
2, 151680, Note_on_c, 0, 67, 115
2, 152220, Note_on_c, 0, 67, 0
2, 152220, Note_on_c, 0, 67, 115
2, 152280, Note_on_c, 0, 67, 0
2, 152280, Note_on_c, 0, 65, 115
2, 152340, Note_on_c, 0, 65, 0
2, 152340, Note_on_c, 0, 63, 115
2, 152400, Note_on_c, 0, 63, 0
2, 152400, Note_on_c, 0, 65, 115
2, 152460, Note_on_c, 0, 65, 0
2, 152460, Note_on_c, 0, 63, 115
2, 152520, Note_on_c, 0, 63, 0
2, 152520, Note_on_c, 0, 62, 115
2, 152580, Note_on_c, 0, 62, 0
2, 152580, Note_on_c, 0, 60, 115
2, 152640, Note_on_c, 0, 60, 0
2, 152640, Note_on_c, 0, 58, 115
2, 152700, Note_on_c, 0, 58, 0
2, 152700, Note_on_c, 0, 62, 115
2, 152760, Note_on_c, 0, 62, 0
2, 152760, Note_on_c, 0, 60, 115
2, 152820, Note_on_c, 0, 60, 0
2, 152820, Note_on_c, 0, 58, 115
2, 152880, Note_on_c, 0, 58, 0
2, 152880, Note_on_c, 0, 67, 115
2, 153180, Note_on_c, 0, 67, 0
2, 153180, Note_on_c, 0, 70, 115
2, 153240, Note_on_c, 0, 70, 0
2, 153240, Note_on_c, 0, 69, 115
2, 153300, Note_on_c, 0, 69, 0
2, 153300, Note_on_c, 0, 67, 115
2, 153360, Note_on_c, 0, 67, 0
2, 153360, Note_on_c, 0, 72, 115
2, 153480, Note_on_c, 0, 72, 0
2, 153480, Note_on_c, 0, 63, 115
2, 153600, Note_on_c, 0, 63, 0
2, 153600, Note_on_c, 0, 61, 115
2, 153720, Note_on_c, 0, 70, 115
2, 153840, Note_on_c, 0, 61, 0
2, 153840, Note_on_c, 0, 63, 115
2, 153960, Note_on_c, 0, 70, 0
2, 153960, Note_on_c, 0, 70, 115
2, 154080, Note_on_c, 0, 63, 0
2, 154080, Note_on_c, 0, 65, 115
2, 154140, Note_on_c, 0, 70, 0
2, 154140, Note_on_c, 0, 68, 115
2, 154200, Note_on_c, 0, 68, 0
2, 154200, Note_on_c, 0, 66, 115
2, 154260, Note_on_c, 0, 66, 0
2, 154260, Note_on_c, 0, 65, 115
2, 154320, Note_on_c, 0, 65, 0
2, 154320, Note_on_c, 0, 65, 0
2, 154320, Note_on_c, 0, 66, 115
2, 154320, Note_on_c, 0, 63, 115
2, 154380, Note_on_c, 0, 63, 0
2, 154380, Note_on_c, 0, 61, 115
2, 154440, Note_on_c, 0, 61, 0
2, 154440, Note_on_c, 0, 60, 115
2, 154500, Note_on_c, 0, 60, 0
2, 154500, Note_on_c, 0, 58, 115
2, 154560, Note_on_c, 0, 58, 0
2, 154560, Note_on_c, 0, 66, 0
2, 154560, Note_on_c, 0, 65, 115
2, 155040, Note_on_c, 0, 65, 0
2, 155040, Note_on_c, 0, 66, 115
2, 155280, Note_on_c, 0, 66, 0
2, 155280, Note_on_c, 0, 65, 115
2, 155520, Note_on_c, 0, 61, 115
2, 155580, Note_on_c, 0, 61, 0
2, 155580, Note_on_c, 0, 63, 115
2, 155640, Note_on_c, 0, 63, 0
2, 155640, Note_on_c, 0, 61, 115
2, 155700, Note_on_c, 0, 61, 0
2, 155700, Note_on_c, 0, 60, 115
2, 155760, Note_on_c, 0, 60, 0
2, 155760, Note_on_c, 0, 65, 0
2, 155760, Note_on_c, 0, 61, 115
2, 155820, Note_on_c, 0, 61, 0
2, 155820, Note_on_c, 0, 65, 115
2, 155880, Note_on_c, 0, 65, 0
2, 155880, Note_on_c, 0, 61, 115
2, 155940, Note_on_c, 0, 61, 0
2, 155940, Note_on_c, 0, 65, 115
2, 156000, Note_on_c, 0, 65, 0
2, 156000, Note_on_c, 0, 58, 115
2, 156060, Note_on_c, 0, 58, 0
2, 156060, Note_on_c, 0, 68, 115
2, 156120, Note_on_c, 0, 68, 0
2, 156120, Note_on_c, 0, 67, 115
2, 156180, Note_on_c, 0, 67, 0
2, 156180, Note_on_c, 0, 65, 115
2, 156240, Note_on_c, 0, 65, 0
2, 156240, Note_on_c, 0, 67, 115
2, 156300, Note_on_c, 0, 67, 0
2, 156300, Note_on_c, 0, 70, 115
2, 156360, Note_on_c, 0, 70, 0
2, 156360, Note_on_c, 0, 67, 115
2, 156420, Note_on_c, 0, 67, 0
2, 156420, Note_on_c, 0, 70, 115
2, 156480, Note_on_c, 0, 70, 0
2, 156480, Note_on_c, 0, 64, 115
2, 156540, Note_on_c, 0, 64, 0
2, 156540, Note_on_c, 0, 65, 115
2, 156600, Note_on_c, 0, 65, 0
2, 156600, Note_on_c, 0, 64, 115
2, 156660, Note_on_c, 0, 64, 0
2, 156660, Note_on_c, 0, 62, 115
2, 156720, Note_on_c, 0, 62, 0
2, 156720, Note_on_c, 0, 64, 115
2, 156780, Note_on_c, 0, 64, 0
2, 156780, Note_on_c, 0, 67, 115
2, 156840, Note_on_c, 0, 67, 0
2, 156840, Note_on_c, 0, 64, 115
2, 156900, Note_on_c, 0, 64, 0
2, 156900, Note_on_c, 0, 67, 115
2, 156960, Note_on_c, 0, 67, 0
2, 156960, Note_on_c, 0, 60, 115
2, 157020, Note_on_c, 0, 60, 0
2, 157020, Note_on_c, 0, 70, 115
2, 157080, Note_on_c, 0, 70, 0
2, 157080, Note_on_c, 0, 68, 115
2, 157140, Note_on_c, 0, 68, 0
2, 157140, Note_on_c, 0, 67, 115
2, 157200, Note_on_c, 0, 67, 0
2, 157200, Note_on_c, 0, 68, 115
2, 157260, Note_on_c, 0, 68, 0
2, 157260, Note_on_c, 0, 72, 115
2, 157320, Note_on_c, 0, 72, 0
2, 157320, Note_on_c, 0, 68, 115
2, 157380, Note_on_c, 0, 68, 0
2, 157380, Note_on_c, 0, 72, 115
2, 157440, Note_on_c, 0, 72, 0
2, 157440, Note_on_c, 0, 65, 115
2, 157560, Note_on_c, 0, 77, 115
2, 157680, Note_on_c, 0, 65, 0
2, 157680, Note_on_c, 0, 67, 115
2, 157800, Note_on_c, 0, 77, 0
2, 157800, Note_on_c, 0, 77, 115
2, 157920, Note_on_c, 0, 67, 0
2, 157920, Note_on_c, 0, 68, 115
2, 157980, Note_on_c, 0, 77, 0
2, 157980, Note_on_c, 0, 75, 115
2, 158040, Note_on_c, 0, 75, 0
2, 158040, Note_on_c, 0, 73, 115
2, 158100, Note_on_c, 0, 73, 0
2, 158100, Note_on_c, 0, 72, 115
2, 158160, Note_on_c, 0, 72, 0
2, 158160, Note_on_c, 0, 68, 0
2, 158160, Note_on_c, 0, 70, 115
2, 158160, Note_on_c, 0, 70, 115
2, 158220, Note_on_c, 0, 70, 0
2, 158220, Note_on_c, 0, 68, 115
2, 158280, Note_on_c, 0, 68, 0
2, 158280, Note_on_c, 0, 67, 115
2, 158340, Note_on_c, 0, 67, 0
2, 158340, Note_on_c, 0, 65, 115
2, 158400, Note_on_c, 0, 65, 0
2, 158400, Note_on_c, 0, 64, 115
2, 158460, Note_on_c, 0, 64, 0
2, 158460, Note_on_c, 0, 67, 115
2, 158520, Note_on_c, 0, 67, 0
2, 158520, Note_on_c, 0, 64, 115
2, 158580, Note_on_c, 0, 64, 0
2, 158580, Note_on_c, 0, 67, 115
2, 158640, Note_on_c, 0, 67, 0
2, 158640, Note_on_c, 0, 70, 0
2, 158640, Note_on_c, 0, 65, 115
2, 158640, Note_on_c, 0, 60, 115
2, 158700, Note_on_c, 0, 65, 0
2, 158700, Note_on_c, 0, 68, 115
2, 158760, Note_on_c, 0, 68, 0
2, 158760, Note_on_c, 0, 65, 115
2, 158820, Note_on_c, 0, 65, 0
2, 158820, Note_on_c, 0, 68, 115
2, 158880, Note_on_c, 0, 68, 0
2, 158880, Note_on_c, 0, 60, 0
2, 158880, Note_on_c, 0, 65, 115
2, 158880, Note_on_c, 0, 61, 115
2, 158940, Note_on_c, 0, 65, 0
2, 158940, Note_on_c, 0, 70, 115
2, 159000, Note_on_c, 0, 70, 0
2, 159000, Note_on_c, 0, 65, 115
2, 159060, Note_on_c, 0, 65, 0
2, 159060, Note_on_c, 0, 70, 115
2, 159120, Note_on_c, 0, 70, 0
2, 159120, Note_on_c, 0, 61, 0
2, 159120, Note_on_c, 0, 64, 115
2, 159120, Note_on_c, 0, 60, 115
2, 159180, Note_on_c, 0, 64, 0
2, 159180, Note_on_c, 0, 70, 115
2, 159240, Note_on_c, 0, 70, 0
2, 159240, Note_on_c, 0, 60, 0
2, 159240, Note_on_c, 0, 58, 115
2, 159240, Note_on_c, 0, 64, 115
2, 159300, Note_on_c, 0, 64, 0
2, 159300, Note_on_c, 0, 70, 115
2, 159360, Note_on_c, 0, 70, 0
2, 159360, Note_on_c, 0, 58, 0
2, 159360, Note_on_c, 0, 68, 115
2, 159420, Note_on_c, 0, 68, 0
2, 159420, Note_on_c, 0, 67, 115
2, 159480, Note_on_c, 0, 67, 0
2, 159480, Note_on_c, 0, 65, 115
2, 159540, Note_on_c, 0, 65, 0
2, 159540, Note_on_c, 0, 64, 115
2, 159600, Note_on_c, 0, 64, 0
2, 159600, Note_on_c, 0, 65, 115
2, 159660, Note_on_c, 0, 65, 0
2, 159660, Note_on_c, 0, 68, 115
2, 159720, Note_on_c, 0, 68, 0
2, 159720, Note_on_c, 0, 67, 115
2, 159780, Note_on_c, 0, 67, 0
2, 159780, Note_on_c, 0, 65, 115
2, 159840, Note_on_c, 0, 65, 0
2, 159840, Note_on_c, 0, 74, 115
2, 159900, Note_on_c, 0, 74, 0
2, 159900, Note_on_c, 0, 75, 115
2, 159960, Note_on_c, 0, 75, 0
2, 159960, Note_on_c, 0, 74, 115
2, 160020, Note_on_c, 0, 74, 0
2, 160020, Note_on_c, 0, 72, 115
2, 160080, Note_on_c, 0, 72, 0
2, 160080, Note_on_c, 0, 74, 115
2, 160140, Note_on_c, 0, 74, 0
2, 160140, Note_on_c, 0, 72, 115
2, 160200, Note_on_c, 0, 72, 0
2, 160200, Note_on_c, 0, 70, 115
2, 160260, Note_on_c, 0, 70, 0
2, 160260, Note_on_c, 0, 68, 115
2, 160320, Note_on_c, 0, 68, 0
2, 160320, Note_on_c, 0, 67, 115
2, 160380, Note_on_c, 0, 67, 0
2, 160380, Note_on_c, 0, 68, 115
2, 160440, Note_on_c, 0, 68, 0
2, 160440, Note_on_c, 0, 67, 115
2, 160500, Note_on_c, 0, 67, 0
2, 160500, Note_on_c, 0, 65, 115
2, 160560, Note_on_c, 0, 65, 0
2, 160560, Note_on_c, 0, 67, 115
2, 160620, Note_on_c, 0, 67, 0
2, 160620, Note_on_c, 0, 69, 115
2, 160680, Note_on_c, 0, 69, 0
2, 160680, Note_on_c, 0, 71, 115
2, 160740, Note_on_c, 0, 71, 0
2, 160740, Note_on_c, 0, 72, 115
2, 160800, Note_on_c, 0, 72, 0
2, 160800, Note_on_c, 0, 71, 115
2, 160860, Note_on_c, 0, 71, 0
2, 160860, Note_on_c, 0, 72, 115
2, 160920, Note_on_c, 0, 72, 0
2, 160920, Note_on_c, 0, 74, 115
2, 160980, Note_on_c, 0, 74, 0
2, 160980, Note_on_c, 0, 75, 115
2, 161040, Note_on_c, 0, 75, 0
2, 161040, Note_on_c, 0, 77, 115
2, 161100, Note_on_c, 0, 77, 0
2, 161100, Note_on_c, 0, 80, 115
2, 161160, Note_on_c, 0, 80, 0
2, 161160, Note_on_c, 0, 79, 115
2, 161220, Note_on_c, 0, 79, 0
2, 161220, Note_on_c, 0, 77, 115
2, 161280, Note_on_c, 0, 77, 0
2, 161280, Note_on_c, 0, 72, 115
2, 161280, Note_on_c, 0, 75, 115
2, 161340, Note_on_c, 0, 75, 0
2, 161340, Note_on_c, 0, 79, 115
2, 161400, Note_on_c, 0, 79, 0
2, 161400, Note_on_c, 0, 75, 115
2, 161460, Note_on_c, 0, 75, 0
2, 161460, Note_on_c, 0, 79, 115
2, 161520, Note_on_c, 0, 79, 0
2, 161520, Note_on_c, 0, 72, 0
2, 161520, Note_on_c, 0, 74, 115
2, 161520, Note_on_c, 0, 77, 115
2, 161580, Note_on_c, 0, 77, 0
2, 161580, Note_on_c, 0, 80, 115
2, 161640, Note_on_c, 0, 80, 0
2, 161640, Note_on_c, 0, 77, 115
2, 161700, Note_on_c, 0, 77, 0
2, 161700, Note_on_c, 0, 80, 115
2, 161760, Note_on_c, 0, 80, 0
2, 161760, Note_on_c, 0, 74, 0
2, 161760, Note_on_c, 0, 75, 115
2, 161760, Note_on_c, 0, 79, 115
2, 162000, Note_on_c, 0, 79, 0
2, 162000, Note_on_c, 0, 75, 0
2, 162000, Note_on_c, 0, 80, 115
2, 162000, Note_on_c, 0, 77, 115
2, 162240, Note_on_c, 0, 80, 0
2, 162240, Note_on_c, 0, 79, 115
2, 162480, Note_on_c, 0, 77, 0
2, 162480, Note_on_c, 0, 75, 115
2, 162720, Note_on_c, 0, 75, 0
2, 162720, Note_on_c, 0, 79, 0
2, 162720, Note_on_c, 0, 74, 115
2, 162720, Note_on_c, 0, 80, 115
2, 162960, Note_on_c, 0, 80, 0
2, 162960, Note_on_c, 0, 79, 115
2, 163080, Note_on_c, 0, 79, 0
2, 163080, Note_on_c, 0, 77, 115
2, 163200, Note_on_c, 0, 77, 0
2, 163200, Note_on_c, 0, 75, 115
2, 163260, Note_on_c, 0, 74, 0
2, 163260, Note_on_c, 0, 74, 115
2, 163320, Note_on_c, 0, 74, 0
2, 163320, Note_on_c, 0, 72, 115
2, 163380, Note_on_c, 0, 72, 0
2, 163380, Note_on_c, 0, 71, 115
2, 163440, Note_on_c, 0, 71, 0
2, 163440, Note_on_c, 0, 72, 115
2, 163740, Note_on_c, 0, 72, 0
2, 163740, Note_on_c, 0, 70, 115
2, 163800, Note_on_c, 0, 70, 0
2, 163800, Note_on_c, 0, 68, 115
2, 163860, Note_on_c, 0, 68, 0
2, 163860, Note_on_c, 0, 67, 115
2, 163920, Note_on_c, 0, 67, 0
2, 163920, Note_on_c, 0, 68, 115
2, 164160, Note_on_c, 0, 75, 0
2, 164160, Note_on_c, 0, 73, 115
2, 164220, Note_on_c, 0, 68, 0
2, 164220, Note_on_c, 0, 72, 115
2, 164280, Note_on_c, 0, 72, 0
2, 164280, Note_on_c, 0, 70, 115
2, 164340, Note_on_c, 0, 70, 0
2, 164340, Note_on_c, 0, 68, 115
2, 164400, Note_on_c, 0, 68, 0
2, 164400, Note_on_c, 0, 70, 115
2, 164700, Note_on_c, 0, 70, 0
2, 164700, Note_on_c, 0, 68, 115
2, 164760, Note_on_c, 0, 68, 0
2, 164760, Note_on_c, 0, 67, 115
2, 164820, Note_on_c, 0, 67, 0
2, 164820, Note_on_c, 0, 65, 115
2, 164880, Note_on_c, 0, 65, 0
2, 164880, Note_on_c, 0, 67, 115
2, 165120, Note_on_c, 0, 73, 0
2, 165120, Note_on_c, 0, 72, 115
2, 165180, Note_on_c, 0, 67, 0
2, 165180, Note_on_c, 0, 70, 115
2, 165240, Note_on_c, 0, 70, 0
2, 165240, Note_on_c, 0, 68, 115
2, 165300, Note_on_c, 0, 68, 0
2, 165300, Note_on_c, 0, 67, 115
2, 165360, Note_on_c, 0, 67, 0
2, 165360, Note_on_c, 0, 68, 115
2, 165660, Note_on_c, 0, 68, 0
2, 165660, Note_on_c, 0, 67, 115
2, 165720, Note_on_c, 0, 67, 0
2, 165720, Note_on_c, 0, 65, 115
2, 165780, Note_on_c, 0, 65, 0
2, 165780, Note_on_c, 0, 63, 115
2, 165840, Note_on_c, 0, 63, 0
2, 165840, Note_on_c, 0, 65, 115
2, 166080, Note_on_c, 0, 72, 0
2, 166080, Note_on_c, 0, 71, 115
2, 166140, Note_on_c, 0, 65, 0
2, 166140, Note_on_c, 0, 67, 115
2, 166200, Note_on_c, 0, 67, 0
2, 166200, Note_on_c, 0, 65, 115
2, 166260, Note_on_c, 0, 65, 0
2, 166260, Note_on_c, 0, 63, 115
2, 166320, Note_on_c, 0, 63, 0
2, 166320, Note_on_c, 0, 62, 115
2, 166380, Note_on_c, 0, 62, 0
2, 166380, Note_on_c, 0, 60, 115
2, 166440, Note_on_c, 0, 60, 0
2, 166440, Note_on_c, 0, 59, 115
2, 166500, Note_on_c, 0, 59, 0
2, 166500, Note_on_c, 0, 57, 115
2, 166560, Note_on_c, 0, 57, 0
2, 166560, Note_on_c, 0, 71, 0
2, 166920, Note_on_c, 0, 71, 115
2, 166920, Note_on_c, 0, 74, 115
2, 166920, Note_on_c, 0, 67, 115
2, 167040, Note_on_c, 0, 67, 0
2, 167040, Note_on_c, 0, 74, 0
2, 167040, Note_on_c, 0, 71, 0
2, 167040, Note_on_c, 0, 67, 115
2, 167040, Note_on_c, 0, 71, 115
2, 167040, Note_on_c, 0, 74, 115
2, 167520, Note_on_c, 0, 74, 0
2, 167520, Note_on_c, 0, 71, 0
2, 167520, Note_on_c, 0, 67, 0
2, 167520, Note_on_c, 0, 72, 115
2, 167550, Note_on_c, 0, 72, 0
2, 167550, Note_on_c, 0, 71, 115
2, 167580, Note_on_c, 0, 71, 0
2, 167580, Note_on_c, 0, 72, 115
2, 168000, Note_on_c, 0, 72, 0
2, 168000, Note_on_c, 0, 77, 115
2, 168180, Note_on_c, 0, 77, 0
2, 168180, Note_on_c, 0, 75, 115
2, 168240, Note_on_c, 0, 75, 0
2, 168240, Note_on_c, 0, 74, 115
2, 168420, Note_on_c, 0, 74, 0
2, 168420, Note_on_c, 0, 72, 115
2, 168480, Note_on_c, 0, 72, 0
2, 168480, Note_on_c, 0, 70, 115
2, 168840, Note_on_c, 0, 70, 0
2, 168840, Note_on_c, 0, 65, 115
2, 168840, Note_on_c, 0, 68, 115
2, 168840, Note_on_c, 0, 62, 115
2, 168960, Note_on_c, 0, 62, 0
2, 168960, Note_on_c, 0, 68, 0
2, 168960, Note_on_c, 0, 65, 0
2, 168960, Note_on_c, 0, 65, 115
2, 168960, Note_on_c, 0, 68, 115
2, 168960, Note_on_c, 0, 62, 115
2, 169440, Note_on_c, 0, 62, 0
2, 169440, Note_on_c, 0, 68, 0
2, 169440, Note_on_c, 0, 65, 0
2, 169440, Note_on_c, 0, 67, 115
2, 169440, Note_on_c, 0, 63, 115
2, 169470, Note_on_c, 0, 63, 0
2, 169470, Note_on_c, 0, 62, 115
2, 169500, Note_on_c, 0, 62, 0
2, 169500, Note_on_c, 0, 63, 115
2, 169920, Note_on_c, 0, 63, 0
2, 169920, Note_on_c, 0, 67, 0
2, 169920, Note_on_c, 0, 79, 115
2, 169950, Note_on_c, 0, 79, 0
2, 169950, Note_on_c, 0, 77, 115
2, 169980, Note_on_c, 0, 77, 0
2, 169980, Note_on_c, 0, 79, 115
2, 170100, Note_on_c, 0, 79, 0
2, 170100, Note_on_c, 0, 80, 115
2, 170160, Note_on_c, 0, 80, 0
2, 170160, Note_on_c, 0, 79, 115
2, 170340, Note_on_c, 0, 79, 0
2, 170340, Note_on_c, 0, 77, 115
2, 170400, Note_on_c, 0, 77, 0
2, 170400, Note_on_c, 0, 79, 115
2, 170580, Note_on_c, 0, 79, 0
2, 170580, Note_on_c, 0, 75, 115
2, 170640, Note_on_c, 0, 75, 0
2, 170640, Note_on_c, 0, 74, 115
2, 170670, Note_on_c, 0, 74, 0
2, 170670, Note_on_c, 0, 75, 115
2, 170700, Note_on_c, 0, 75, 0
2, 170700, Note_on_c, 0, 74, 115
2, 170820, Note_on_c, 0, 74, 0
2, 170820, Note_on_c, 0, 72, 115
2, 170880, Note_on_c, 0, 72, 0
2, 170880, Note_on_c, 0, 77, 115
2, 170910, Note_on_c, 0, 77, 0
2, 170910, Note_on_c, 0, 75, 115
2, 170940, Note_on_c, 0, 75, 0
2, 170940, Note_on_c, 0, 77, 115
2, 171060, Note_on_c, 0, 77, 0
2, 171060, Note_on_c, 0, 79, 115
2, 171120, Note_on_c, 0, 79, 0
2, 171120, Note_on_c, 0, 77, 115
2, 171300, Note_on_c, 0, 77, 0
2, 171300, Note_on_c, 0, 75, 115
2, 171360, Note_on_c, 0, 75, 0
2, 171360, Note_on_c, 0, 77, 115
2, 171540, Note_on_c, 0, 77, 0
2, 171540, Note_on_c, 0, 74, 115
2, 171600, Note_on_c, 0, 74, 0
2, 171600, Note_on_c, 0, 72, 115
2, 171630, Note_on_c, 0, 72, 0
2, 171630, Note_on_c, 0, 74, 115
2, 171660, Note_on_c, 0, 74, 0
2, 171660, Note_on_c, 0, 72, 115
2, 171780, Note_on_c, 0, 72, 0
2, 171780, Note_on_c, 0, 70, 115
2, 171840, Note_on_c, 0, 70, 0
2, 171840, Note_on_c, 0, 75, 115
2, 172020, Note_on_c, 0, 75, 0
2, 172020, Note_on_c, 0, 77, 115
2, 172080, Note_on_c, 0, 77, 0
2, 172080, Note_on_c, 0, 75, 115
2, 172260, Note_on_c, 0, 75, 0
2, 172260, Note_on_c, 0, 74, 115
2, 172320, Note_on_c, 0, 74, 0
2, 172320, Note_on_c, 0, 75, 115
2, 172500, Note_on_c, 0, 72, 115
2, 172560, Note_on_c, 0, 72, 0
2, 172560, Note_on_c, 0, 70, 115
2, 172740, Note_on_c, 0, 70, 0
2, 172740, Note_on_c, 0, 69, 115
2, 172800, Note_on_c, 0, 69, 0
2, 172800, Note_on_c, 0, 67, 115
2, 172980, Note_on_c, 0, 75, 0
2, 172980, Note_on_c, 0, 77, 115
2, 173040, Note_on_c, 0, 77, 0
2, 173040, Note_on_c, 0, 75, 115
2, 173220, Note_on_c, 0, 75, 0
2, 173220, Note_on_c, 0, 74, 115
2, 173280, Note_on_c, 0, 74, 0
2, 173280, Note_on_c, 0, 75, 115
2, 173460, Note_on_c, 0, 67, 0
2, 173460, Note_on_c, 0, 70, 115
2, 173520, Note_on_c, 0, 70, 0
2, 173520, Note_on_c, 0, 69, 115
2, 173700, Note_on_c, 0, 69, 0
2, 173700, Note_on_c, 0, 67, 115
2, 173760, Note_on_c, 0, 67, 0
2, 173760, Note_on_c, 0, 65, 115
2, 173940, Note_on_c, 0, 75, 0
2, 173940, Note_on_c, 0, 77, 115
2, 174000, Note_on_c, 0, 77, 0
2, 174000, Note_on_c, 0, 75, 115
2, 174180, Note_on_c, 0, 75, 0
2, 174180, Note_on_c, 0, 74, 115
2, 174240, Note_on_c, 0, 74, 0
2, 174240, Note_on_c, 0, 75, 115
2, 174420, Note_on_c, 0, 65, 0
2, 174420, Note_on_c, 0, 67, 115
2, 174480, Note_on_c, 0, 67, 0
2, 174480, Note_on_c, 0, 69, 115
2, 174660, Note_on_c, 0, 69, 0
2, 174660, Note_on_c, 0, 70, 115
2, 174720, Note_on_c, 0, 70, 0
2, 174720, Note_on_c, 0, 69, 115
2, 174900, Note_on_c, 0, 75, 0
2, 174900, Note_on_c, 0, 77, 115
2, 174960, Note_on_c, 0, 77, 0
2, 174960, Note_on_c, 0, 75, 115
2, 175140, Note_on_c, 0, 75, 0
2, 175140, Note_on_c, 0, 74, 115
2, 175200, Note_on_c, 0, 74, 0
2, 175200, Note_on_c, 0, 75, 115
2, 175380, Note_on_c, 0, 69, 0
2, 175380, Note_on_c, 0, 69, 115
2, 175440, Note_on_c, 0, 69, 0
2, 175440, Note_on_c, 0, 70, 115
2, 175620, Note_on_c, 0, 70, 0
2, 175620, Note_on_c, 0, 72, 115
2, 175680, Note_on_c, 0, 72, 0
2, 175680, Note_on_c, 0, 65, 115
2, 175860, Note_on_c, 0, 75, 0
2, 175860, Note_on_c, 0, 75, 115
2, 175920, Note_on_c, 0, 75, 0
2, 175920, Note_on_c, 0, 74, 115
2, 176100, Note_on_c, 0, 74, 0
2, 176100, Note_on_c, 0, 72, 115
2, 176160, Note_on_c, 0, 72, 0
2, 176160, Note_on_c, 0, 74, 115
2, 176640, Note_on_c, 0, 65, 0
2, 176640, Note_on_c, 0, 65, 115
2, 177000, Note_on_c, 0, 65, 0
2, 177060, Note_on_c, 0, 65, 115
2, 177120, Note_on_c, 0, 65, 0
2, 177120, Note_on_c, 0, 74, 0
2, 177120, Note_on_c, 0, 72, 115
2, 177120, Note_on_c, 0, 63, 115
2, 177150, Note_on_c, 0, 63, 0
2, 177150, Note_on_c, 0, 65, 115
2, 177180, Note_on_c, 0, 65, 0
2, 177180, Note_on_c, 0, 63, 115
2, 177420, Note_on_c, 0, 63, 0
2, 177540, Note_on_c, 0, 62, 115
2, 177600, Note_on_c, 0, 62, 0
2, 177600, Note_on_c, 0, 60, 115
2, 177780, Note_on_c, 0, 72, 0
2, 177780, Note_on_c, 0, 72, 115
2, 177840, Note_on_c, 0, 72, 0
2, 177840, Note_on_c, 0, 60, 0
2, 177840, Note_on_c, 0, 74, 115
2, 178020, Note_on_c, 0, 74, 0
2, 178020, Note_on_c, 0, 75, 115
2, 178080, Note_on_c, 0, 75, 0
2, 178080, Note_on_c, 0, 77, 115
2, 178260, Note_on_c, 0, 65, 115
2, 178320, Note_on_c, 0, 65, 0
2, 178320, Note_on_c, 0, 67, 115
2, 178500, Note_on_c, 0, 67, 0
2, 178500, Note_on_c, 0, 69, 115
2, 178560, Note_on_c, 0, 69, 0
2, 178560, Note_on_c, 0, 70, 115
2, 178740, Note_on_c, 0, 62, 115
2, 178800, Note_on_c, 0, 62, 0
2, 178800, Note_on_c, 0, 63, 115
2, 178980, Note_on_c, 0, 63, 0
2, 178980, Note_on_c, 0, 65, 115
2, 179040, Note_on_c, 0, 65, 0
2, 179040, Note_on_c, 0, 70, 0
2, 179040, Note_on_c, 0, 77, 0
2, 179040, Note_on_c, 0, 67, 115
2, 179040, Note_on_c, 0, 75, 115
2, 179040, Note_on_c, 0, 70, 115
2, 179220, Note_on_c, 0, 70, 0
2, 179220, Note_on_c, 0, 70, 115
2, 179280, Note_on_c, 0, 70, 0
2, 179280, Note_on_c, 0, 72, 115
2, 179460, Note_on_c, 0, 72, 0
2, 179460, Note_on_c, 0, 74, 115
2, 179520, Note_on_c, 0, 74, 0
2, 179520, Note_on_c, 0, 67, 0
2, 179520, Note_on_c, 0, 72, 115
2, 179700, Note_on_c, 0, 65, 115
2, 179760, Note_on_c, 0, 65, 0
2, 179760, Note_on_c, 0, 67, 115
2, 179940, Note_on_c, 0, 67, 0
2, 179940, Note_on_c, 0, 69, 115
2, 180000, Note_on_c, 0, 69, 0
2, 180000, Note_on_c, 0, 72, 0
2, 180000, Note_on_c, 0, 75, 0
2, 180000, Note_on_c, 0, 70, 115
2, 180180, Note_on_c, 0, 72, 115
2, 180240, Note_on_c, 0, 72, 0
2, 180240, Note_on_c, 0, 74, 115
2, 180420, Note_on_c, 0, 74, 0
2, 180420, Note_on_c, 0, 75, 115
2, 180480, Note_on_c, 0, 75, 0
2, 180480, Note_on_c, 0, 70, 0
2, 180480, Note_on_c, 0, 72, 115
2, 180480, Note_on_c, 0, 70, 115
2, 180660, Note_on_c, 0, 74, 115
2, 180720, Note_on_c, 0, 74, 0
2, 180720, Note_on_c, 0, 75, 115
2, 180900, Note_on_c, 0, 75, 0
2, 180900, Note_on_c, 0, 79, 115
2, 180960, Note_on_c, 0, 79, 0
2, 180960, Note_on_c, 0, 70, 0
2, 180960, Note_on_c, 0, 69, 115
2, 180960, Note_on_c, 0, 77, 115
2, 181140, Note_on_c, 0, 77, 0
2, 181140, Note_on_c, 0, 75, 115
2, 181200, Note_on_c, 0, 75, 0
2, 181200, Note_on_c, 0, 74, 115
2, 181380, Note_on_c, 0, 74, 0
2, 181380, Note_on_c, 0, 75, 115
2, 181440, Note_on_c, 0, 75, 0
2, 181440, Note_on_c, 0, 69, 0
2, 181440, Note_on_c, 0, 72, 0
2, 181440, Note_on_c, 0, 74, 115
2, 181440, Note_on_c, 0, 70, 115
2, 181440, Note_on_c, 0, 65, 115
2, 181920, Note_on_c, 0, 65, 0
2, 181920, Note_on_c, 0, 70, 0
2, 181920, Note_on_c, 0, 74, 0
2, 182280, Note_on_c, 0, 65, 115
2, 182280, Note_on_c, 0, 74, 115
2, 182280, Note_on_c, 0, 77, 115
2, 182400, Note_on_c, 0, 77, 0
2, 182400, Note_on_c, 0, 74, 0
2, 182400, Note_on_c, 0, 65, 0
2, 182400, Note_on_c, 0, 77, 115
2, 182400, Note_on_c, 0, 74, 115
2, 182400, Note_on_c, 0, 65, 115
2, 182880, Note_on_c, 0, 65, 0
2, 182880, Note_on_c, 0, 67, 115
2, 183240, Note_on_c, 0, 74, 0
2, 183300, Note_on_c, 0, 72, 115
2, 183360, Note_on_c, 0, 72, 0
2, 183360, Note_on_c, 0, 71, 115
2, 183375, Note_on_c, 0, 71, 0
2, 183375, Note_on_c, 0, 72, 115
2, 183390, Note_on_c, 0, 72, 0
2, 183390, Note_on_c, 0, 71, 115
2, 183405, Note_on_c, 0, 71, 0
2, 183405, Note_on_c, 0, 72, 115
2, 183420, Note_on_c, 0, 72, 0
2, 183420, Note_on_c, 0, 71, 115
2, 183840, Note_on_c, 0, 71, 0
2, 183840, Note_on_c, 0, 67, 0
2, 183840, Note_on_c, 0, 77, 0
2, 184200, Note_on_c, 0, 62, 115
2, 184200, Note_on_c, 0, 67, 115
2, 184200, Note_on_c, 0, 74, 115
2, 184320, Note_on_c, 0, 74, 0
2, 184320, Note_on_c, 0, 67, 0
2, 184320, Note_on_c, 0, 62, 0
2, 184320, Note_on_c, 0, 67, 115
2, 184320, Note_on_c, 0, 74, 115
2, 184800, Note_on_c, 0, 74, 0
2, 184800, Note_on_c, 0, 72, 115
2, 185280, Note_on_c, 0, 67, 0
2, 185280, Note_on_c, 0, 68, 115
2, 185460, Note_on_c, 0, 68, 0
2, 185460, Note_on_c, 0, 70, 115
2, 185520, Note_on_c, 0, 70, 0
2, 185520, Note_on_c, 0, 68, 115
2, 185700, Note_on_c, 0, 68, 0
2, 185700, Note_on_c, 0, 67, 115
2, 185760, Note_on_c, 0, 67, 0
2, 185760, Note_on_c, 0, 72, 0
2, 185760, Note_on_c, 0, 70, 115
2, 185760, Note_on_c, 0, 68, 115
2, 185940, Note_on_c, 0, 68, 0
2, 185940, Note_on_c, 0, 65, 115
2, 186000, Note_on_c, 0, 65, 0
2, 186000, Note_on_c, 0, 63, 115
2, 186180, Note_on_c, 0, 63, 0
2, 186180, Note_on_c, 0, 62, 115
2, 186240, Note_on_c, 0, 62, 0
2, 186240, Note_on_c, 0, 67, 115
2, 186240, Note_on_c, 0, 55, 115
2, 186420, Note_on_c, 0, 55, 0
2, 186420, Note_on_c, 0, 65, 115
2, 186480, Note_on_c, 0, 65, 0
2, 186480, Note_on_c, 0, 63, 115
2, 186660, Note_on_c, 0, 63, 0
2, 186660, Note_on_c, 0, 62, 115
2, 186720, Note_on_c, 0, 62, 0
2, 186720, Note_on_c, 0, 63, 115
2, 186900, Note_on_c, 0, 63, 0
2, 186900, Note_on_c, 0, 58, 115
2, 186960, Note_on_c, 0, 58, 0
2, 186960, Note_on_c, 0, 56, 115
2, 187140, Note_on_c, 0, 56, 0
2, 187140, Note_on_c, 0, 55, 115
2, 187200, Note_on_c, 0, 55, 0
2, 187560, Note_on_c, 0, 67, 0
2, 187560, Note_on_c, 0, 70, 0
2, 187620, Note_on_c, 0, 70, 115
2, 187620, Note_on_c, 0, 67, 115
2, 187680, Note_on_c, 0, 67, 0
2, 187680, Note_on_c, 0, 70, 0
2, 187680, Note_on_c, 0, 68, 115
2, 187680, Note_on_c, 0, 65, 115
2, 187710, Note_on_c, 0, 68, 0
2, 187710, Note_on_c, 0, 67, 115
2, 187740, Note_on_c, 0, 67, 0
2, 187740, Note_on_c, 0, 68, 115
2, 188040, Note_on_c, 0, 68, 0
2, 188040, Note_on_c, 0, 65, 0
2, 188100, Note_on_c, 0, 63, 115
2, 188100, Note_on_c, 0, 67, 115
2, 188160, Note_on_c, 0, 67, 0
2, 188160, Note_on_c, 0, 63, 0
2, 188160, Note_on_c, 0, 67, 115
2, 188160, Note_on_c, 0, 63, 115
2, 188640, Note_on_c, 0, 63, 0
2, 188640, Note_on_c, 0, 67, 0
2, 188640, Note_on_c, 0, 62, 115
2, 188640, Note_on_c, 0, 65, 115
2, 189000, Note_on_c, 0, 65, 0
2, 189060, Note_on_c, 0, 67, 115
2, 189120, Note_on_c, 0, 67, 0
2, 189120, Note_on_c, 0, 62, 0
2, 189120, Note_on_c, 0, 68, 115
2, 189300, Note_on_c, 0, 68, 0
2, 189300, Note_on_c, 0, 70, 115
2, 189360, Note_on_c, 0, 70, 0
2, 189360, Note_on_c, 0, 68, 115
2, 189540, Note_on_c, 0, 68, 0
2, 189540, Note_on_c, 0, 67, 115
2, 189600, Note_on_c, 0, 67, 0
2, 189600, Note_on_c, 0, 68, 115
2, 189780, Note_on_c, 0, 68, 0
2, 189780, Note_on_c, 0, 77, 115
2, 189840, Note_on_c, 0, 77, 0
2, 189840, Note_on_c, 0, 70, 115
2, 190020, Note_on_c, 0, 70, 0
2, 190020, Note_on_c, 0, 68, 115
2, 190080, Note_on_c, 0, 68, 0
2, 190080, Note_on_c, 0, 67, 115
2, 190260, Note_on_c, 0, 67, 0
2, 190260, Note_on_c, 0, 68, 115
2, 190320, Note_on_c, 0, 68, 0
2, 190320, Note_on_c, 0, 67, 115
2, 190500, Note_on_c, 0, 67, 0
2, 190500, Note_on_c, 0, 65, 115
2, 190560, Note_on_c, 0, 65, 0
2, 190560, Note_on_c, 0, 67, 115
2, 190740, Note_on_c, 0, 67, 0
2, 190740, Note_on_c, 0, 75, 115
2, 190800, Note_on_c, 0, 75, 0
2, 190800, Note_on_c, 0, 67, 115
2, 190980, Note_on_c, 0, 67, 0
2, 190980, Note_on_c, 0, 65, 115
2, 191040, Note_on_c, 0, 65, 0
2, 191040, Note_on_c, 0, 63, 115
2, 191220, Note_on_c, 0, 63, 0
2, 191220, Note_on_c, 0, 65, 115
2, 191280, Note_on_c, 0, 65, 0
2, 191280, Note_on_c, 0, 63, 115
2, 191460, Note_on_c, 0, 63, 0
2, 191460, Note_on_c, 0, 62, 115
2, 191520, Note_on_c, 0, 62, 0
2, 191520, Note_on_c, 0, 63, 115
2, 191700, Note_on_c, 0, 63, 0
2, 191700, Note_on_c, 0, 72, 115
2, 191760, Note_on_c, 0, 72, 0
2, 191760, Note_on_c, 0, 65, 115
2, 191940, Note_on_c, 0, 65, 0
2, 191940, Note_on_c, 0, 63, 115
2, 192000, Note_on_c, 0, 63, 0
2, 192000, Note_on_c, 0, 62, 115
2, 192180, Note_on_c, 0, 62, 0
2, 192180, Note_on_c, 0, 63, 115
2, 192240, Note_on_c, 0, 63, 0
2, 192240, Note_on_c, 0, 62, 115
2, 192420, Note_on_c, 0, 62, 0
2, 192420, Note_on_c, 0, 60, 115
2, 192480, Note_on_c, 0, 60, 0
2, 192480, Note_on_c, 0, 62, 115
2, 192660, Note_on_c, 0, 62, 0
2, 192660, Note_on_c, 0, 58, 115
2, 192720, Note_on_c, 0, 58, 0
2, 192720, Note_on_c, 0, 62, 115
2, 192900, Note_on_c, 0, 62, 0
2, 192900, Note_on_c, 0, 65, 115
2, 192960, Note_on_c, 0, 65, 0
2, 192960, Note_on_c, 0, 70, 115
2, 193140, Note_on_c, 0, 70, 0
2, 193140, Note_on_c, 0, 72, 115
2, 193200, Note_on_c, 0, 72, 0
2, 193200, Note_on_c, 0, 70, 115
2, 193380, Note_on_c, 0, 70, 0
2, 193380, Note_on_c, 0, 68, 115
2, 193440, Note_on_c, 0, 68, 0
2, 193440, Note_on_c, 0, 70, 115
2, 193620, Note_on_c, 0, 70, 0
2, 193620, Note_on_c, 0, 63, 115
2, 193680, Note_on_c, 0, 63, 0
2, 193680, Note_on_c, 0, 67, 115
2, 193860, Note_on_c, 0, 67, 0
2, 193860, Note_on_c, 0, 70, 115
2, 193920, Note_on_c, 0, 70, 0
2, 193920, Note_on_c, 0, 75, 115
2, 194100, Note_on_c, 0, 60, 115
2, 194160, Note_on_c, 0, 60, 0
2, 194160, Note_on_c, 0, 62, 115
2, 194220, Note_on_c, 0, 75, 0
2, 194220, Note_on_c, 0, 74, 115
2, 194280, Note_on_c, 0, 74, 0
2, 194280, Note_on_c, 0, 72, 115
2, 194340, Note_on_c, 0, 72, 0
2, 194340, Note_on_c, 0, 62, 0
2, 194340, Note_on_c, 0, 70, 115
2, 194340, Note_on_c, 0, 63, 115
2, 194400, Note_on_c, 0, 63, 0
2, 194400, Note_on_c, 0, 70, 0
2, 194400, Note_on_c, 0, 65, 115
2, 194400, Note_on_c, 0, 68, 115
2, 194580, Note_on_c, 0, 68, 0
2, 194580, Note_on_c, 0, 77, 115
2, 194640, Note_on_c, 0, 77, 0
2, 194640, Note_on_c, 0, 70, 115
2, 194820, Note_on_c, 0, 70, 0
2, 194820, Note_on_c, 0, 68, 115
2, 194880, Note_on_c, 0, 68, 0
2, 194880, Note_on_c, 0, 67, 115
2, 195060, Note_on_c, 0, 67, 0
2, 195060, Note_on_c, 0, 68, 115
2, 195120, Note_on_c, 0, 68, 0
2, 195120, Note_on_c, 0, 65, 0
2, 195120, Note_on_c, 0, 63, 115
2, 195120, Note_on_c, 0, 70, 115
2, 195300, Note_on_c, 0, 70, 0
2, 195300, Note_on_c, 0, 63, 115
2, 195360, Note_on_c, 0, 63, 0
2, 195360, Note_on_c, 0, 63, 0
2, 195360, Note_on_c, 0, 60, 115
2, 195360, Note_on_c, 0, 67, 115
2, 195540, Note_on_c, 0, 67, 0
2, 195540, Note_on_c, 0, 65, 115
2, 195600, Note_on_c, 0, 65, 0
2, 195600, Note_on_c, 0, 60, 0
2, 195600, Note_on_c, 0, 58, 115
2, 195600, Note_on_c, 0, 63, 115
2, 195780, Note_on_c, 0, 63, 0
2, 195780, Note_on_c, 0, 62, 115
2, 195840, Note_on_c, 0, 62, 0
2, 195840, Note_on_c, 0, 58, 0
2, 195840, Note_on_c, 0, 58, 115
2, 195840, Note_on_c, 0, 62, 115
2, 196320, Note_on_c, 0, 62, 0
2, 196320, Note_on_c, 0, 63, 115
2, 197184, Note_on_c, 0, 63, 0
2, 197184, Note_on_c, 0, 58, 0
2, 201600, Note_on_c, 0, 63, 100
2, 201840, Note_on_c, 0, 63, 0
2, 201840, Note_on_c, 0, 65, 100
2, 202080, Note_on_c, 0, 65, 0
2, 202080, Note_on_c, 0, 67, 100
2, 202320, Note_on_c, 0, 67, 0
2, 202320, Note_on_c, 0, 68, 100
2, 202560, Note_on_c, 0, 68, 0
2, 202560, Note_on_c, 0, 70, 100
2, 202800, Note_on_c, 0, 70, 0
2, 202800, Note_on_c, 0, 58, 100
2, 203040, Note_on_c, 0, 58, 0
2, 203040, Note_on_c, 0, 63, 100
2, 203280, Note_on_c, 0, 63, 0
2, 203280, Note_on_c, 0, 65, 100
2, 203520, Note_on_c, 0, 65, 0
2, 203520, Note_on_c, 0, 67, 100
2, 203760, Note_on_c, 0, 67, 0
2, 203760, Note_on_c, 0, 65, 100
2, 204000, Note_on_c, 0, 65, 0
2, 204000, Note_on_c, 0, 63, 100
2, 204240, Note_on_c, 0, 63, 0
2, 204240, Note_on_c, 0, 62, 100
2, 204480, Note_on_c, 0, 62, 0
2, 204480, Note_on_c, 0, 63, 100
2, 204720, Note_on_c, 0, 63, 0
2, 204720, Note_on_c, 0, 60, 100
2, 204960, Note_on_c, 0, 60, 0
2, 204960, Note_on_c, 0, 65, 100
2, 205200, Note_on_c, 0, 65, 0
2, 205200, Note_on_c, 0, 63, 100
2, 205440, Note_on_c, 0, 63, 0
2, 205440, Note_on_c, 0, 62, 100
2, 205920, Note_on_c, 0, 62, 0
2, 205920, Note_on_c, 0, 70, 100
2, 206880, Note_on_c, 0, 70, 0
2, 206880, Note_on_c, 0, 68, 100
2, 207840, Note_on_c, 0, 68, 0
2, 207840, Note_on_c, 0, 67, 100
2, 208560, Note_on_c, 0, 67, 0
2, 208560, Note_on_c, 0, 60, 100
2, 208800, Note_on_c, 0, 60, 0
2, 208800, Note_on_c, 0, 65, 100
2, 209040, Note_on_c, 0, 65, 0
2, 209040, Note_on_c, 0, 63, 100
2, 209280, Note_on_c, 0, 63, 0
2, 209280, Note_on_c, 0, 70, 100
2, 209280, Note_on_c, 0, 62, 100
2, 209520, Note_on_c, 0, 62, 0
2, 209520, Note_on_c, 0, 58, 100
2, 209760, Note_on_c, 0, 58, 0
2, 209760, Note_on_c, 0, 60, 100
2, 210000, Note_on_c, 0, 60, 0
2, 210000, Note_on_c, 0, 62, 100
2, 210240, Note_on_c, 0, 62, 0
2, 210240, Note_on_c, 0, 70, 0
2, 210240, Note_on_c, 0, 67, 100
2, 210240, Note_on_c, 0, 63, 100
2, 210720, Note_on_c, 0, 63, 0
2, 210720, Note_on_c, 0, 67, 0
2, 210720, Note_on_c, 0, 68, 100
2, 210720, Note_on_c, 0, 72, 100
2, 211200, Note_on_c, 0, 72, 0
2, 211200, Note_on_c, 0, 68, 0
2, 211200, Note_on_c, 0, 67, 100
2, 211200, Note_on_c, 0, 70, 100
2, 211680, Note_on_c, 0, 70, 0
2, 211680, Note_on_c, 0, 75, 100
2, 212160, Note_on_c, 0, 67, 0
2, 212160, Note_on_c, 0, 65, 100
2, 212640, Note_on_c, 0, 75, 0
2, 212640, Note_on_c, 0, 74, 100
2, 213120, Note_on_c, 0, 74, 0
2, 213120, Note_on_c, 0, 65, 0
2, 213120, Note_on_c, 0, 75, 100
2, 213120, Note_on_c, 0, 63, 100
2, 213600, Note_on_c, 0, 75, 0
2, 213600, Note_on_c, 0, 70, 100
2, 214080, Note_on_c, 0, 63, 0
2, 214080, Note_on_c, 0, 62, 100
2, 214320, Note_on_c, 0, 70, 0
2, 214320, Note_on_c, 0, 68, 100
2, 214560, Note_on_c, 0, 68, 0
2, 214560, Note_on_c, 0, 62, 0
2, 214560, Note_on_c, 0, 67, 100
2, 214560, Note_on_c, 0, 67, 100
2, 214800, Note_on_c, 0, 67, 0
2, 214800, Note_on_c, 0, 68, 100
2, 215040, Note_on_c, 0, 68, 0
2, 215040, Note_on_c, 0, 67, 0
2, 215040, Note_on_c, 0, 63, 100
2, 215040, Note_on_c, 0, 70, 100
2, 215280, Note_on_c, 0, 70, 0
2, 215280, Note_on_c, 0, 72, 100
2, 215520, Note_on_c, 0, 72, 0
2, 215520, Note_on_c, 0, 63, 0
2, 215520, Note_on_c, 0, 70, 100
2, 215520, Note_on_c, 0, 74, 100
2, 216000, Note_on_c, 0, 74, 0
2, 216000, Note_on_c, 0, 72, 100
2, 216480, Note_on_c, 0, 70, 0
2, 216480, Note_on_c, 0, 69, 100
2, 216960, Note_on_c, 0, 69, 0
2, 216960, Note_on_c, 0, 72, 0
2, 216960, Note_on_c, 0, 70, 100
2, 216960, Note_on_c, 0, 70, 100
2, 217200, Note_on_c, 0, 70, 0
2, 217200, Note_on_c, 0, 72, 100
2, 217440, Note_on_c, 0, 72, 0
2, 217440, Note_on_c, 0, 74, 100
2, 217680, Note_on_c, 0, 74, 0
2, 217680, Note_on_c, 0, 75, 100
2, 217920, Note_on_c, 0, 75, 0
2, 217920, Note_on_c, 0, 77, 100
2, 218400, Note_on_c, 0, 77, 0
2, 218400, Note_on_c, 0, 70, 0
2, 218400, Note_on_c, 0, 68, 100
2, 218400, Note_on_c, 0, 72, 100
2, 218640, Note_on_c, 0, 72, 0
2, 218640, Note_on_c, 0, 74, 100
2, 218880, Note_on_c, 0, 74, 0
2, 218880, Note_on_c, 0, 75, 100
2, 219120, Note_on_c, 0, 75, 0
2, 219120, Note_on_c, 0, 77, 100
2, 219360, Note_on_c, 0, 77, 0
2, 219360, Note_on_c, 0, 68, 0
2, 219360, Note_on_c, 0, 67, 100
2, 219360, Note_on_c, 0, 79, 100
2, 219600, Note_on_c, 0, 67, 0
2, 219600, Note_on_c, 0, 68, 100
2, 219840, Note_on_c, 0, 68, 0
2, 219840, Note_on_c, 0, 70, 100
2, 220080, Note_on_c, 0, 70, 0
2, 220080, Note_on_c, 0, 72, 100
2, 220320, Note_on_c, 0, 72, 0
2, 220320, Note_on_c, 0, 74, 100
2, 220560, Note_on_c, 0, 79, 0
2, 220560, Note_on_c, 0, 77, 100
2, 220800, Note_on_c, 0, 77, 0
2, 220800, Note_on_c, 0, 74, 0
2, 220800, Note_on_c, 0, 67, 100
2, 220800, Note_on_c, 0, 75, 100
2, 221040, Note_on_c, 0, 75, 0
2, 221040, Note_on_c, 0, 72, 100
2, 221280, Note_on_c, 0, 72, 0
2, 221280, Note_on_c, 0, 67, 0
2, 221280, Note_on_c, 0, 65, 100
2, 221280, Note_on_c, 0, 77, 100
2, 221520, Note_on_c, 0, 77, 0
2, 221520, Note_on_c, 0, 75, 100
2, 221760, Note_on_c, 0, 75, 0
2, 221760, Note_on_c, 0, 74, 100
2, 222000, Note_on_c, 0, 74, 0
2, 222000, Note_on_c, 0, 70, 100
2, 222240, Note_on_c, 0, 70, 0
2, 222240, Note_on_c, 0, 65, 0
2, 222240, Note_on_c, 0, 75, 100
2, 222240, Note_on_c, 0, 67, 100
2, 222720, Note_on_c, 0, 67, 0
2, 222720, Note_on_c, 0, 65, 100
2, 222960, Note_on_c, 0, 65, 0
2, 222960, Note_on_c, 0, 63, 100
2, 223200, Note_on_c, 0, 63, 0
2, 223200, Note_on_c, 0, 75, 0
2, 223200, Note_on_c, 0, 65, 100
2, 223200, Note_on_c, 0, 74, 100
2, 223680, Note_on_c, 0, 74, 0
2, 223680, Note_on_c, 0, 65, 0
2, 223680, Note_on_c, 0, 75, 100
2, 223680, Note_on_c, 0, 67, 100
2, 224160, Note_on_c, 0, 67, 0
2, 224160, Note_on_c, 0, 65, 100
2, 224400, Note_on_c, 0, 65, 0
2, 224400, Note_on_c, 0, 63, 100
2, 224640, Note_on_c, 0, 63, 0
2, 224640, Note_on_c, 0, 75, 0
2, 224640, Note_on_c, 0, 62, 100
2, 224880, Note_on_c, 0, 82, 100
2, 225120, Note_on_c, 0, 82, 0
2, 225120, Note_on_c, 0, 62, 0
2, 225120, Note_on_c, 0, 63, 100
2, 225120, Note_on_c, 0, 80, 100
2, 225360, Note_on_c, 0, 80, 0
2, 225360, Note_on_c, 0, 79, 100
2, 225600, Note_on_c, 0, 79, 0
2, 225600, Note_on_c, 0, 63, 0
2, 225600, Note_on_c, 0, 65, 100
2, 225600, Note_on_c, 0, 80, 100
2, 225840, Note_on_c, 0, 80, 0
2, 225840, Note_on_c, 0, 77, 100
2, 226080, Note_on_c, 0, 77, 0
2, 226080, Note_on_c, 0, 82, 100
2, 226320, Note_on_c, 0, 82, 0
2, 226320, Note_on_c, 0, 80, 100
2, 226560, Note_on_c, 0, 80, 0
2, 226560, Note_on_c, 0, 65, 0
2, 226560, Note_on_c, 0, 63, 100
2, 226560, Note_on_c, 0, 79, 100
2, 226800, Note_on_c, 0, 63, 0
2, 226800, Note_on_c, 0, 75, 100
2, 227040, Note_on_c, 0, 75, 0
2, 227040, Note_on_c, 0, 79, 0
2, 227040, Note_on_c, 0, 74, 100
2, 227040, Note_on_c, 0, 80, 100
2, 227280, Note_on_c, 0, 74, 0
2, 227280, Note_on_c, 0, 72, 100
2, 227520, Note_on_c, 0, 72, 0
2, 227520, Note_on_c, 0, 74, 100
2, 227760, Note_on_c, 0, 74, 0
2, 227760, Note_on_c, 0, 70, 100
2, 228000, Note_on_c, 0, 70, 0
2, 228000, Note_on_c, 0, 80, 0
2, 228000, Note_on_c, 0, 79, 100
2, 228000, Note_on_c, 0, 75, 100
2, 228240, Note_on_c, 0, 75, 0
2, 228240, Note_on_c, 0, 74, 100
2, 228480, Note_on_c, 0, 74, 0
2, 228480, Note_on_c, 0, 72, 100
2, 228720, Note_on_c, 0, 70, 100
2, 228960, Note_on_c, 0, 70, 0
2, 228960, Note_on_c, 0, 79, 0
2, 228960, Note_on_c, 0, 68, 100
2, 228960, Note_on_c, 0, 77, 100
2, 229200, Note_on_c, 0, 68, 0
2, 229200, Note_on_c, 0, 67, 100
2, 229440, Note_on_c, 0, 67, 0
2, 229440, Note_on_c, 0, 72, 0
2, 229440, Note_on_c, 0, 74, 100
2, 229440, Note_on_c, 0, 68, 100
2, 229680, Note_on_c, 0, 68, 0
2, 229680, Note_on_c, 0, 77, 0
2, 229680, Note_on_c, 0, 65, 100
2, 229680, Note_on_c, 0, 80, 100
2, 229920, Note_on_c, 0, 80, 0
2, 229920, Note_on_c, 0, 65, 0
2, 229920, Note_on_c, 0, 70, 100
2, 229920, Note_on_c, 0, 79, 100
2, 230160, Note_on_c, 0, 79, 0
2, 230160, Note_on_c, 0, 70, 0
2, 230160, Note_on_c, 0, 77, 100
2, 230160, Note_on_c, 0, 68, 100
2, 230400, Note_on_c, 0, 68, 0
2, 230400, Note_on_c, 0, 77, 0
2, 230400, Note_on_c, 0, 67, 100
2, 230400, Note_on_c, 0, 75, 100
2, 230880, Note_on_c, 0, 74, 0
2, 230880, Note_on_c, 0, 72, 100
2, 231120, Note_on_c, 0, 72, 0
2, 231120, Note_on_c, 0, 70, 100
2, 231360, Note_on_c, 0, 70, 0
2, 231360, Note_on_c, 0, 67, 0
2, 231360, Note_on_c, 0, 72, 100
2, 231360, Note_on_c, 0, 65, 100
2, 231840, Note_on_c, 0, 75, 0
2, 231840, Note_on_c, 0, 74, 100
2, 232320, Note_on_c, 0, 65, 0
2, 232320, Note_on_c, 0, 72, 0
2, 232320, Note_on_c, 0, 67, 100
2, 232320, Note_on_c, 0, 70, 100
2, 232800, Note_on_c, 0, 70, 0
2, 232800, Note_on_c, 0, 74, 0
2, 232800, Note_on_c, 0, 72, 100
2, 232800, Note_on_c, 0, 75, 100
2, 233280, Note_on_c, 0, 75, 0
2, 233280, Note_on_c, 0, 67, 0
2, 233280, Note_on_c, 0, 77, 100
2, 233280, Note_on_c, 0, 65, 100
2, 233520, Note_on_c, 0, 72, 0
2, 233520, Note_on_c, 0, 75, 100
2, 233760, Note_on_c, 0, 75, 0
2, 233760, Note_on_c, 0, 65, 0
2, 233760, Note_on_c, 0, 69, 100
2, 233760, Note_on_c, 0, 74, 100
2, 234000, Note_on_c, 0, 74, 0
2, 234000, Note_on_c, 0, 72, 100
2, 234240, Note_on_c, 0, 72, 0
2, 234240, Note_on_c, 0, 69, 0
2, 234240, Note_on_c, 0, 70, 100
2, 234240, Note_on_c, 0, 74, 100
2, 234480, Note_on_c, 0, 70, 0
2, 234480, Note_on_c, 0, 77, 0
2, 234480, Note_on_c, 0, 69, 100
2, 234480, Note_on_c, 0, 81, 100
2, 234720, Note_on_c, 0, 81, 0
2, 234720, Note_on_c, 0, 69, 0
2, 234720, Note_on_c, 0, 67, 100
2, 234720, Note_on_c, 0, 82, 100
2, 234960, Note_on_c, 0, 82, 0
2, 234960, Note_on_c, 0, 74, 0
2, 234960, Note_on_c, 0, 72, 100
2, 234960, Note_on_c, 0, 75, 100
2, 235200, Note_on_c, 0, 75, 0
2, 235200, Note_on_c, 0, 67, 0
2, 235200, Note_on_c, 0, 65, 100
2, 235200, Note_on_c, 0, 74, 100
2, 235440, Note_on_c, 0, 72, 0
2, 235440, Note_on_c, 0, 70, 100
2, 235680, Note_on_c, 0, 74, 0
2, 235680, Note_on_c, 0, 72, 100
2, 235920, Note_on_c, 0, 70, 0
2, 235920, Note_on_c, 0, 69, 100
2, 236160, Note_on_c, 0, 69, 0
2, 236160, Note_on_c, 0, 72, 0
2, 236160, Note_on_c, 0, 70, 100
2, 236400, Note_on_c, 0, 65, 0
2, 236400, Note_on_c, 0, 58, 100
2, 236640, Note_on_c, 0, 58, 0
2, 236640, Note_on_c, 0, 70, 0
2, 236640, Note_on_c, 0, 60, 100
2, 236640, Note_on_c, 0, 70, 100
2, 236880, Note_on_c, 0, 60, 0
2, 236880, Note_on_c, 0, 62, 100
2, 237120, Note_on_c, 0, 62, 0
2, 237120, Note_on_c, 0, 70, 0
2, 237120, Note_on_c, 0, 63, 100
2, 237120, Note_on_c, 0, 67, 100
2, 237360, Note_on_c, 0, 63, 0
2, 237360, Note_on_c, 0, 62, 100
2, 237600, Note_on_c, 0, 62, 0
2, 237600, Note_on_c, 0, 67, 0
2, 237600, Note_on_c, 0, 75, 100
2, 237600, Note_on_c, 0, 72, 100
2, 237600, Note_on_c, 0, 63, 100
2, 237840, Note_on_c, 0, 63, 0
2, 237840, Note_on_c, 0, 65, 100
2, 238080, Note_on_c, 0, 65, 0
2, 238080, Note_on_c, 0, 72, 0
2, 238080, Note_on_c, 0, 75, 0
2, 238080, Note_on_c, 0, 70, 100
2, 238080, Note_on_c, 0, 74, 100
2, 238080, Note_on_c, 0, 67, 100
2, 238320, Note_on_c, 0, 67, 0
2, 238320, Note_on_c, 0, 65, 100
2, 238560, Note_on_c, 0, 65, 0
2, 238560, Note_on_c, 0, 74, 0
2, 238560, Note_on_c, 0, 70, 0
2, 238560, Note_on_c, 0, 79, 100
2, 238560, Note_on_c, 0, 75, 100
2, 238560, Note_on_c, 0, 67, 100
2, 238800, Note_on_c, 0, 67, 0
2, 238800, Note_on_c, 0, 68, 100
2, 239040, Note_on_c, 0, 68, 0
2, 239040, Note_on_c, 0, 79, 0
2, 239040, Note_on_c, 0, 70, 100
2, 239040, Note_on_c, 0, 77, 100
2, 239280, Note_on_c, 0, 70, 0
2, 239280, Note_on_c, 0, 65, 100
2, 239520, Note_on_c, 0, 77, 0
2, 239520, Note_on_c, 0, 75, 0
2, 239520, Note_on_c, 0, 74, 100
2, 239520, Note_on_c, 0, 82, 100
2, 239760, Note_on_c, 0, 65, 0
2, 239760, Note_on_c, 0, 62, 100
2, 240000, Note_on_c, 0, 62, 0
2, 240000, Note_on_c, 0, 74, 0
2, 240000, Note_on_c, 0, 75, 100
2, 240240, Note_on_c, 0, 75, 0
2, 240240, Note_on_c, 0, 79, 100
2, 240480, Note_on_c, 0, 79, 0
2, 240480, Note_on_c, 0, 82, 0
2, 240480, Note_on_c, 0, 77, 100
2, 240480, Note_on_c, 0, 80, 100
2, 240720, Note_on_c, 0, 77, 0
2, 240720, Note_on_c, 0, 75, 100
2, 240960, Note_on_c, 0, 75, 0
2, 240960, Note_on_c, 0, 77, 100
2, 241200, Note_on_c, 0, 77, 0
2, 241200, Note_on_c, 0, 74, 100
2, 241440, Note_on_c, 0, 74, 0
2, 241440, Note_on_c, 0, 80, 0
2, 241440, Note_on_c, 0, 79, 100
2, 241440, Note_on_c, 0, 75, 100
2, 241680, Note_on_c, 0, 70, 100
2, 241920, Note_on_c, 0, 70, 0
2, 241920, Note_on_c, 0, 75, 0
2, 241920, Note_on_c, 0, 79, 0
2, 241920, Note_on_c, 0, 68, 100
2, 241920, Note_on_c, 0, 72, 100
2, 241920, Note_on_c, 0, 77, 100
2, 242160, Note_on_c, 0, 68, 0
2, 242160, Note_on_c, 0, 67, 100
2, 242400, Note_on_c, 0, 67, 0
2, 242400, Note_on_c, 0, 72, 0
2, 242400, Note_on_c, 0, 68, 100
2, 242400, Note_on_c, 0, 70, 100
2, 242640, Note_on_c, 0, 68, 0
2, 242640, Note_on_c, 0, 65, 100
2, 242880, Note_on_c, 0, 65, 0
2, 242880, Note_on_c, 0, 67, 100
2, 243120, Note_on_c, 0, 77, 0
2, 243120, Note_on_c, 0, 75, 100
2, 243360, Note_on_c, 0, 75, 0
2, 243360, Note_on_c, 0, 67, 0
2, 243360, Note_on_c, 0, 70, 0
2, 243360, Note_on_c, 0, 68, 100
2, 243360, Note_on_c, 0, 74, 100
2, 243600, Note_on_c, 0, 74, 0
2, 243600, Note_on_c, 0, 72, 100
2, 243840, Note_on_c, 0, 72, 0
2, 243840, Note_on_c, 0, 74, 100
2, 244080, Note_on_c, 0, 74, 0
2, 244080, Note_on_c, 0, 70, 100
2, 244320, Note_on_c, 0, 70, 0
2, 244320, Note_on_c, 0, 68, 0
2, 244320, Note_on_c, 0, 75, 100
2, 244320, Note_on_c, 0, 67, 100
2, 244560, Note_on_c, 0, 75, 0
2, 244560, Note_on_c, 0, 74, 100
2, 244800, Note_on_c, 0, 74, 0
2, 244800, Note_on_c, 0, 72, 100
2, 245040, Note_on_c, 0, 67, 0
2, 245040, Note_on_c, 0, 67, 100
2, 245280, Note_on_c, 0, 67, 0
2, 245280, Note_on_c, 0, 65, 100
2, 245520, Note_on_c, 0, 65, 0
2, 245520, Note_on_c, 0, 63, 100
2, 245760, Note_on_c, 0, 63, 0
2, 245760, Note_on_c, 0, 72, 0
2, 245760, Note_on_c, 0, 65, 100
2, 245760, Note_on_c, 0, 70, 100
2, 246000, Note_on_c, 0, 65, 0
2, 246000, Note_on_c, 0, 62, 100
2, 246240, Note_on_c, 0, 62, 0
2, 246240, Note_on_c, 0, 67, 100
2, 246480, Note_on_c, 0, 67, 0
2, 246480, Note_on_c, 0, 65, 100
2, 246720, Note_on_c, 0, 65, 0
2, 246720, Note_on_c, 0, 70, 0
2, 246720, Note_on_c, 0, 68, 100
2, 246720, Note_on_c, 0, 63, 100
2, 247200, Note_on_c, 0, 63, 0
2, 247200, Note_on_c, 0, 65, 100
2, 247680, Note_on_c, 0, 68, 0
2, 247680, Note_on_c, 0, 67, 100
2, 248160, Note_on_c, 0, 67, 0
2, 248160, Note_on_c, 0, 65, 0
2, 248160, Note_on_c, 0, 63, 100
2, 248160, Note_on_c, 0, 72, 100
2, 248640, Note_on_c, 0, 72, 0
2, 248640, Note_on_c, 0, 63, 0
2, 248640, Note_on_c, 0, 62, 100
2, 248640, Note_on_c, 0, 70, 100
2, 249120, Note_on_c, 0, 70, 0
2, 249120, Note_on_c, 0, 62, 0
2, 249120, Note_on_c, 0, 75, 100
2, 249120, Note_on_c, 0, 67, 100
2, 249600, Note_on_c, 0, 67, 0
2, 249600, Note_on_c, 0, 65, 100
2, 250080, Note_on_c, 0, 65, 0
2, 250080, Note_on_c, 0, 75, 0
2, 250080, Note_on_c, 0, 70, 100
2, 250080, Note_on_c, 0, 74, 100
2, 250560, Note_on_c, 0, 74, 0
2, 250560, Note_on_c, 0, 67, 100
2, 250560, Note_on_c, 0, 76, 100
2, 250800, Note_on_c, 0, 67, 0
2, 251040, Note_on_c, 0, 76, 0
2, 251040, Note_on_c, 0, 70, 0
2, 251040, Note_on_c, 0, 77, 100
2, 251040, Note_on_c, 0, 68, 100
2, 251520, Note_on_c, 0, 68, 0
2, 251520, Note_on_c, 0, 67, 100
2, 252000, Note_on_c, 0, 77, 0
2, 252000, Note_on_c, 0, 75, 100
2, 252480, Note_on_c, 0, 67, 0
2, 252480, Note_on_c, 0, 65, 100
2, 252960, Note_on_c, 0, 75, 0
2, 252960, Note_on_c, 0, 74, 100
2, 253440, Note_on_c, 0, 74, 0
2, 253440, Note_on_c, 0, 72, 100
2, 254400, Note_on_c, 0, 72, 0
2, 254400, Note_on_c, 0, 70, 100
2, 254640, Note_on_c, 0, 65, 0
2, 254640, Note_on_c, 0, 62, 100
2, 254880, Note_on_c, 0, 62, 0
2, 254880, Note_on_c, 0, 63, 100
2, 255120, Note_on_c, 0, 63, 0
2, 255120, Note_on_c, 0, 65, 100
2, 255360, Note_on_c, 0, 65, 0
2, 255360, Note_on_c, 0, 67, 100
2, 255600, Note_on_c, 0, 70, 0
2, 255600, Note_on_c, 0, 70, 100
2, 255840, Note_on_c, 0, 70, 0
2, 255840, Note_on_c, 0, 67, 0
2, 255840, Note_on_c, 0, 65, 100
2, 255840, Note_on_c, 0, 72, 100
2, 256080, Note_on_c, 0, 72, 0
2, 256080, Note_on_c, 0, 74, 100
2, 256320, Note_on_c, 0, 74, 0
2, 256320, Note_on_c, 0, 65, 0
2, 256320, Note_on_c, 0, 63, 100
2, 256320, Note_on_c, 0, 75, 100
2, 256560, Note_on_c, 0, 75, 0
2, 256560, Note_on_c, 0, 63, 0
2, 256560, Note_on_c, 0, 65, 100
2, 256560, Note_on_c, 0, 74, 100
2, 256800, Note_on_c, 0, 74, 0
2, 256800, Note_on_c, 0, 65, 0
2, 256800, Note_on_c, 0, 67, 100
2, 256800, Note_on_c, 0, 75, 100
2, 257040, Note_on_c, 0, 75, 0
2, 257040, Note_on_c, 0, 67, 0
2, 257040, Note_on_c, 0, 77, 100
2, 257040, Note_on_c, 0, 68, 100
2, 257280, Note_on_c, 0, 68, 0
2, 257280, Note_on_c, 0, 77, 0
2, 257280, Note_on_c, 0, 58, 100
2, 257280, Note_on_c, 0, 70, 100
2, 257280, Note_on_c, 0, 79, 100
2, 257520, Note_on_c, 0, 79, 0
2, 257520, Note_on_c, 0, 70, 0
2, 257520, Note_on_c, 0, 68, 100
2, 257520, Note_on_c, 0, 77, 100
2, 257760, Note_on_c, 0, 77, 0
2, 257760, Note_on_c, 0, 68, 0
2, 257760, Note_on_c, 0, 58, 0
2, 257760, Note_on_c, 0, 67, 100
2, 257760, Note_on_c, 0, 70, 100
2, 257760, Note_on_c, 0, 79, 100
2, 258000, Note_on_c, 0, 79, 0
2, 258000, Note_on_c, 0, 70, 0
2, 258000, Note_on_c, 0, 72, 100
2, 258000, Note_on_c, 0, 80, 100
2, 258240, Note_on_c, 0, 80, 0
2, 258240, Note_on_c, 0, 72, 0
2, 258240, Note_on_c, 0, 67, 0
2, 258240, Note_on_c, 0, 65, 100
2, 258240, Note_on_c, 0, 74, 100
2, 258240, Note_on_c, 0, 82, 100
2, 258480, Note_on_c, 0, 82, 0
2, 258480, Note_on_c, 0, 74, 0
2, 258480, Note_on_c, 0, 75, 100
2, 258480, Note_on_c, 0, 84, 100
2, 258720, Note_on_c, 0, 84, 0
2, 258720, Note_on_c, 0, 75, 0
2, 258720, Note_on_c, 0, 65, 0
2, 258720, Note_on_c, 0, 77, 100
2, 258720, Note_on_c, 0, 70, 100
2, 258720, Note_on_c, 0, 82, 100
2, 258960, Note_on_c, 0, 82, 0
2, 258960, Note_on_c, 0, 80, 100
2, 259200, Note_on_c, 0, 80, 0
2, 259200, Note_on_c, 0, 70, 0
2, 259200, Note_on_c, 0, 77, 0
2, 259200, Note_on_c, 0, 70, 100
2, 259200, Note_on_c, 0, 75, 100
2, 259200, Note_on_c, 0, 79, 100
2, 259440, Note_on_c, 0, 79, 0
2, 259440, Note_on_c, 0, 75, 100
2, 259680, Note_on_c, 0, 75, 0
2, 259680, Note_on_c, 0, 70, 0
2, 259680, Note_on_c, 0, 72, 100
2, 259680, Note_on_c, 0, 80, 100
2, 260160, Note_on_c, 0, 72, 0
2, 260160, Note_on_c, 0, 75, 0
2, 260160, Note_on_c, 0, 70, 100
2, 260160, Note_on_c, 0, 77, 100
2, 260640, Note_on_c, 0, 77, 0
2, 260640, Note_on_c, 0, 80, 0
2, 260640, Note_on_c, 0, 79, 100
2, 260640, Note_on_c, 0, 75, 100
2, 261120, Note_on_c, 0, 70, 0
2, 261120, Note_on_c, 0, 68, 100
2, 261600, Note_on_c, 0, 75, 0
2, 261600, Note_on_c, 0, 79, 0
2, 261600, Note_on_c, 0, 70, 100
2, 261600, Note_on_c, 0, 77, 100
2, 262080, Note_on_c, 0, 68, 0
2, 262080, Note_on_c, 0, 67, 100
2, 262320, Note_on_c, 0, 70, 0
2, 262320, Note_on_c, 0, 74, 100
2, 262560, Note_on_c, 0, 74, 0
2, 262560, Note_on_c, 0, 77, 0
2, 262560, Note_on_c, 0, 75, 100
2, 262560, Note_on_c, 0, 75, 100
2, 262800, Note_on_c, 0, 75, 0
2, 262800, Note_on_c, 0, 70, 100
2, 263040, Note_on_c, 0, 70, 0
2, 263040, Note_on_c, 0, 67, 0
2, 263040, Note_on_c, 0, 65, 100
2, 263520, Note_on_c, 0, 75, 0
2, 263520, Note_on_c, 0, 73, 100
2, 264000, Note_on_c, 0, 65, 0
2, 264000, Note_on_c, 0, 63, 100
2, 264480, Note_on_c, 0, 73, 0
2, 264480, Note_on_c, 0, 68, 100
2, 264480, Note_on_c, 0, 72, 100
2, 264720, Note_on_c, 0, 72, 0
2, 264720, Note_on_c, 0, 68, 0
2, 264720, Note_on_c, 0, 63, 0
2, 264720, Note_on_c, 0, 77, 100
2, 264720, Note_on_c, 0, 72, 100
2, 264720, Note_on_c, 0, 68, 100
2, 264960, Note_on_c, 0, 68, 0
2, 264960, Note_on_c, 0, 72, 0
2, 264960, Note_on_c, 0, 77, 0
2, 264960, Note_on_c, 0, 65, 100
2, 264960, Note_on_c, 0, 70, 100
2, 264960, Note_on_c, 0, 74, 100
2, 265200, Note_on_c, 0, 74, 0
2, 265200, Note_on_c, 0, 70, 100
2, 265440, Note_on_c, 0, 70, 0
2, 265440, Note_on_c, 0, 70, 0
2, 265440, Note_on_c, 0, 65, 0
2, 265440, Note_on_c, 0, 67, 100
2, 265440, Note_on_c, 0, 70, 100
2, 265440, Note_on_c, 0, 75, 100
2, 265920, Note_on_c, 0, 70, 0
2, 265920, Note_on_c, 0, 67, 0
2, 265920, Note_on_c, 0, 70, 100
2, 265920, Note_on_c, 0, 65, 100
2, 266400, Note_on_c, 0, 75, 0
2, 266400, Note_on_c, 0, 74, 100
2, 266880, Note_on_c, 0, 74, 0
2, 266880, Note_on_c, 0, 65, 0
2, 266880, Note_on_c, 0, 70, 0
2, 266880, Note_on_c, 0, 63, 115
2, 266880, Note_on_c, 0, 70, 115
2, 266880, Note_on_c, 0, 75, 115
2, 267600, Note_on_c, 0, 75, 0
2, 267600, Note_on_c, 0, 70, 0
2, 267600, Note_on_c, 0, 63, 0
2, 275760, Note_on_c, 0, 63, 100
2, 275880, Note_on_c, 0, 63, 0
2, 275880, Note_on_c, 0, 62, 100
2, 276000, Note_on_c, 0, 62, 0
2, 276000, Note_on_c, 0, 63, 100
2, 276120, Note_on_c, 0, 63, 0
2, 276120, Note_on_c, 0, 65, 100
2, 276240, Note_on_c, 0, 65, 0
2, 276240, Note_on_c, 0, 67, 100
2, 276360, Note_on_c, 0, 67, 0
2, 276360, Note_on_c, 0, 65, 100
2, 276480, Note_on_c, 0, 65, 0
2, 276480, Note_on_c, 0, 67, 100
2, 276600, Note_on_c, 0, 67, 0
2, 276600, Note_on_c, 0, 68, 100
2, 276720, Note_on_c, 0, 68, 0
2, 276720, Note_on_c, 0, 67, 100
2, 276840, Note_on_c, 0, 67, 0
2, 276840, Note_on_c, 0, 68, 100
2, 276960, Note_on_c, 0, 68, 0
2, 276960, Note_on_c, 0, 65, 100
2, 277080, Note_on_c, 0, 65, 0
2, 277080, Note_on_c, 0, 63, 100
2, 277200, Note_on_c, 0, 63, 0
2, 277200, Note_on_c, 0, 65, 100
2, 277320, Note_on_c, 0, 65, 0
2, 277320, Note_on_c, 0, 67, 100
2, 277440, Note_on_c, 0, 67, 0
2, 277440, Note_on_c, 0, 65, 100
2, 277560, Note_on_c, 0, 65, 0
2, 277560, Note_on_c, 0, 67, 100
2, 277680, Note_on_c, 0, 67, 0
2, 277680, Note_on_c, 0, 68, 100
2, 277800, Note_on_c, 0, 68, 0
2, 277800, Note_on_c, 0, 67, 100
2, 277920, Note_on_c, 0, 67, 0
2, 277920, Note_on_c, 0, 68, 100
2, 278040, Note_on_c, 0, 68, 0
2, 278040, Note_on_c, 0, 70, 100
2, 278160, Note_on_c, 0, 70, 0
2, 278160, Note_on_c, 0, 68, 100
2, 278280, Note_on_c, 0, 68, 0
2, 278280, Note_on_c, 0, 70, 100
2, 278400, Note_on_c, 0, 70, 0
2, 278400, Note_on_c, 0, 67, 100
2, 278640, Note_on_c, 0, 67, 0
2, 278640, Note_on_c, 0, 67, 100
2, 278640, Note_on_c, 0, 70, 100
2, 278760, Note_on_c, 0, 70, 0
2, 278760, Note_on_c, 0, 69, 100
2, 278880, Note_on_c, 0, 69, 0
2, 278880, Note_on_c, 0, 70, 100
2, 279000, Note_on_c, 0, 70, 0
2, 279000, Note_on_c, 0, 72, 100
2, 279120, Note_on_c, 0, 72, 0
2, 279120, Note_on_c, 0, 67, 0
2, 279120, Note_on_c, 0, 65, 100
2, 279120, Note_on_c, 0, 74, 100
2, 279240, Note_on_c, 0, 74, 0
2, 279240, Note_on_c, 0, 72, 100
2, 279360, Note_on_c, 0, 72, 0
2, 279360, Note_on_c, 0, 65, 0
2, 279360, Note_on_c, 0, 70, 100
2, 279360, Note_on_c, 0, 74, 100
2, 279480, Note_on_c, 0, 74, 0
2, 279480, Note_on_c, 0, 75, 100
2, 279600, Note_on_c, 0, 75, 0
2, 279600, Note_on_c, 0, 70, 0
2, 279600, Note_on_c, 0, 69, 100
2, 279600, Note_on_c, 0, 74, 100
2, 279720, Note_on_c, 0, 74, 0
2, 279720, Note_on_c, 0, 75, 100
2, 279840, Note_on_c, 0, 75, 0
2, 279840, Note_on_c, 0, 69, 0
2, 279840, Note_on_c, 0, 67, 100
2, 279840, Note_on_c, 0, 72, 100
2, 279960, Note_on_c, 0, 72, 0
2, 279960, Note_on_c, 0, 70, 100
2, 280080, Note_on_c, 0, 70, 0
2, 280080, Note_on_c, 0, 72, 100
2, 280200, Note_on_c, 0, 72, 0
2, 280200, Note_on_c, 0, 74, 100
2, 280320, Note_on_c, 0, 74, 0
2, 280320, Note_on_c, 0, 72, 100
2, 280440, Note_on_c, 0, 72, 0
2, 280440, Note_on_c, 0, 74, 100
2, 280560, Note_on_c, 0, 74, 0
2, 280560, Note_on_c, 0, 75, 100
2, 280680, Note_on_c, 0, 75, 0
2, 280680, Note_on_c, 0, 74, 100
2, 280800, Note_on_c, 0, 74, 0
2, 280800, Note_on_c, 0, 67, 0
2, 280800, Note_on_c, 0, 65, 100
2, 280800, Note_on_c, 0, 75, 100
2, 280920, Note_on_c, 0, 75, 0
2, 280920, Note_on_c, 0, 77, 100
2, 281040, Note_on_c, 0, 77, 0
2, 281040, Note_on_c, 0, 75, 100
2, 281160, Note_on_c, 0, 75, 0
2, 281160, Note_on_c, 0, 77, 100
2, 281280, Note_on_c, 0, 77, 0
2, 281280, Note_on_c, 0, 74, 100
2, 281400, Note_on_c, 0, 74, 0
2, 281400, Note_on_c, 0, 72, 100
2, 281520, Note_on_c, 0, 72, 0
2, 281520, Note_on_c, 0, 65, 0
2, 281520, Note_on_c, 0, 70, 100
2, 281520, Note_on_c, 0, 74, 100
2, 281640, Note_on_c, 0, 74, 0
2, 281640, Note_on_c, 0, 70, 0
2, 281640, Note_on_c, 0, 72, 100
2, 281640, Note_on_c, 0, 75, 100
2, 281760, Note_on_c, 0, 75, 0
2, 281760, Note_on_c, 0, 72, 0
2, 281760, Note_on_c, 0, 70, 100
2, 281760, Note_on_c, 0, 77, 100
2, 281880, Note_on_c, 0, 77, 0
2, 281880, Note_on_c, 0, 70, 0
2, 281880, Note_on_c, 0, 68, 100
2, 281880, Note_on_c, 0, 74, 100
2, 282000, Note_on_c, 0, 74, 0
2, 282000, Note_on_c, 0, 68, 0
2, 282000, Note_on_c, 0, 67, 100
2, 282000, Note_on_c, 0, 75, 100
2, 282120, Note_on_c, 0, 67, 0
2, 282120, Note_on_c, 0, 68, 100
2, 282192, Note_on_c, 0, 75, 0
2, 282240, Note_on_c, 0, 68, 0
2, 282240, Note_on_c, 0, 67, 100
2, 282240, Note_on_c, 0, 82, 100
2, 282360, Note_on_c, 0, 67, 0
2, 282360, Note_on_c, 0, 65, 100
2, 282432, Note_on_c, 0, 82, 0
2, 282480, Note_on_c, 0, 65, 0
2, 282480, Note_on_c, 0, 73, 100
2, 282480, Note_on_c, 0, 67, 100
2, 282600, Note_on_c, 0, 67, 0
2, 282600, Note_on_c, 0, 63, 100
2, 282720, Note_on_c, 0, 63, 0
2, 282720, Note_on_c, 0, 68, 100
2, 282840, Note_on_c, 0, 68, 0
2, 282840, Note_on_c, 0, 70, 100
2, 282960, Note_on_c, 0, 70, 0
2, 282960, Note_on_c, 0, 73, 0
2, 282960, Note_on_c, 0, 68, 100
2, 282960, Note_on_c, 0, 72, 100
2, 283080, Note_on_c, 0, 72, 0
2, 283080, Note_on_c, 0, 68, 0
2, 283080, Note_on_c, 0, 67, 100
2, 283080, Note_on_c, 0, 71, 100
2, 283200, Note_on_c, 0, 71, 0
2, 283200, Note_on_c, 0, 67, 0
2, 283200, Note_on_c, 0, 68, 100
2, 283200, Note_on_c, 0, 72, 100
2, 283320, Note_on_c, 0, 72, 0
2, 283320, Note_on_c, 0, 68, 0
2, 283320, Note_on_c, 0, 67, 100
2, 283320, Note_on_c, 0, 75, 100
2, 283440, Note_on_c, 0, 75, 0
2, 283440, Note_on_c, 0, 67, 0
2, 283440, Note_on_c, 0, 65, 100
2, 283440, Note_on_c, 0, 74, 100
2, 283560, Note_on_c, 0, 65, 0
2, 283560, Note_on_c, 0, 67, 100
2, 283632, Note_on_c, 0, 74, 0
2, 283680, Note_on_c, 0, 67, 0
2, 283680, Note_on_c, 0, 65, 100
2, 283680, Note_on_c, 0, 80, 100
2, 283800, Note_on_c, 0, 65, 0
2, 283800, Note_on_c, 0, 63, 100
2, 283872, Note_on_c, 0, 80, 0
2, 283920, Note_on_c, 0, 63, 0
2, 283920, Note_on_c, 0, 72, 100
2, 283920, Note_on_c, 0, 65, 100
2, 284040, Note_on_c, 0, 65, 0
2, 284040, Note_on_c, 0, 62, 100
2, 284160, Note_on_c, 0, 62, 0
2, 284160, Note_on_c, 0, 67, 100
2, 284280, Note_on_c, 0, 67, 0
2, 284280, Note_on_c, 0, 68, 100
2, 284400, Note_on_c, 0, 68, 0
2, 284400, Note_on_c, 0, 72, 0
2, 284400, Note_on_c, 0, 67, 100
2, 284400, Note_on_c, 0, 70, 100
2, 284520, Note_on_c, 0, 70, 0
2, 284520, Note_on_c, 0, 74, 100
2, 284640, Note_on_c, 0, 74, 0
2, 284640, Note_on_c, 0, 72, 100
2, 284760, Note_on_c, 0, 72, 0
2, 284760, Note_on_c, 0, 70, 100
2, 284880, Note_on_c, 0, 70, 0
2, 284880, Note_on_c, 0, 75, 100
2, 285120, Note_on_c, 0, 67, 0
2, 285120, Note_on_c, 0, 68, 100
2, 285360, Note_on_c, 0, 68, 0
2, 285360, Note_on_c, 0, 67, 100
2, 285600, Note_on_c, 0, 67, 0
2, 285600, Note_on_c, 0, 65, 100
2, 285840, Note_on_c, 0, 75, 0
2, 285840, Note_on_c, 0, 77, 100
2, 286080, Note_on_c, 0, 77, 0
2, 286080, Note_on_c, 0, 75, 100
2, 286320, Note_on_c, 0, 75, 0
2, 286320, Note_on_c, 0, 65, 0
2, 286320, Note_on_c, 0, 74, 100
2, 286320, Note_on_c, 0, 65, 100
2, 286560, Note_on_c, 0, 65, 0
2, 286560, Note_on_c, 0, 67, 100
2, 286800, Note_on_c, 0, 67, 0
2, 286800, Note_on_c, 0, 65, 100
2, 287040, Note_on_c, 0, 65, 0
2, 287040, Note_on_c, 0, 63, 100
2, 287160, Note_on_c, 0, 74, 0
2, 287160, Note_on_c, 0, 67, 100
2, 287280, Note_on_c, 0, 67, 0
2, 287280, Note_on_c, 0, 63, 0
2, 287280, Note_on_c, 0, 65, 100
2, 287280, Note_on_c, 0, 72, 100
2, 287520, Note_on_c, 0, 72, 0
2, 287520, Note_on_c, 0, 65, 0
2, 287520, Note_on_c, 0, 67, 100
2, 287520, Note_on_c, 0, 71, 100
2, 287760, Note_on_c, 0, 71, 0
2, 287760, Note_on_c, 0, 67, 0
2, 287760, Note_on_c, 0, 68, 100
2, 287760, Note_on_c, 0, 72, 100
2, 288000, Note_on_c, 0, 72, 0
2, 288000, Note_on_c, 0, 74, 100
2, 288240, Note_on_c, 0, 74, 0
2, 288240, Note_on_c, 0, 72, 100
2, 288480, Note_on_c, 0, 72, 0
2, 288480, Note_on_c, 0, 68, 0
2, 288480, Note_on_c, 0, 67, 100
2, 288480, Note_on_c, 0, 70, 100
2, 289440, Note_on_c, 0, 70, 0
2, 289440, Note_on_c, 0, 72, 100
2, 289680, Note_on_c, 0, 72, 0
2, 289680, Note_on_c, 0, 70, 100
2, 289920, Note_on_c, 0, 70, 0
2, 289920, Note_on_c, 0, 67, 0
2, 289920, Note_on_c, 0, 67, 100
2, 289920, Note_on_c, 0, 68, 100
2, 290040, Note_on_c, 0, 67, 0
2, 290040, Note_on_c, 0, 67, 100
2, 290160, Note_on_c, 0, 67, 0
2, 290160, Note_on_c, 0, 65, 100
2, 290280, Note_on_c, 0, 65, 0
2, 290280, Note_on_c, 0, 64, 100
2, 290400, Note_on_c, 0, 64, 0
2, 290400, Note_on_c, 0, 68, 0
2, 290400, Note_on_c, 0, 65, 100
2, 290400, Note_on_c, 0, 70, 100
2, 290520, Note_on_c, 0, 65, 0
2, 290520, Note_on_c, 0, 67, 100
2, 290640, Note_on_c, 0, 67, 0
2, 290640, Note_on_c, 0, 70, 0
2, 290640, Note_on_c, 0, 68, 100
2, 290640, Note_on_c, 0, 72, 100
2, 290760, Note_on_c, 0, 68, 0
2, 290760, Note_on_c, 0, 67, 100
2, 290880, Note_on_c, 0, 67, 0
2, 290880, Note_on_c, 0, 68, 100
2, 291000, Note_on_c, 0, 68, 0
2, 291000, Note_on_c, 0, 70, 100
2, 291120, Note_on_c, 0, 70, 0
2, 291120, Note_on_c, 0, 72, 0
2, 291120, Note_on_c, 0, 74, 100
2, 291120, Note_on_c, 0, 68, 100
2, 291240, Note_on_c, 0, 68, 0
2, 291240, Note_on_c, 0, 70, 100
2, 291360, Note_on_c, 0, 70, 0
2, 291360, Note_on_c, 0, 74, 0
2, 291360, Note_on_c, 0, 67, 100
2, 291360, Note_on_c, 0, 75, 100
2, 291480, Note_on_c, 0, 67, 0
2, 291480, Note_on_c, 0, 65, 100
2, 291600, Note_on_c, 0, 65, 0
2, 291600, Note_on_c, 0, 67, 100
2, 291720, Note_on_c, 0, 67, 0
2, 291720, Note_on_c, 0, 69, 100
2, 291840, Note_on_c, 0, 69, 0
2, 291840, Note_on_c, 0, 67, 100
2, 291960, Note_on_c, 0, 67, 0
2, 291960, Note_on_c, 0, 69, 100
2, 292080, Note_on_c, 0, 69, 0
2, 292080, Note_on_c, 0, 75, 0
2, 292080, Note_on_c, 0, 70, 100
2, 292080, Note_on_c, 0, 74, 100
2, 292320, Note_on_c, 0, 74, 0
2, 292320, Note_on_c, 0, 79, 100
2, 292560, Note_on_c, 0, 70, 0
2, 292560, Note_on_c, 0, 75, 100
2, 292800, Note_on_c, 0, 79, 0
2, 292800, Note_on_c, 0, 77, 100
2, 293040, Note_on_c, 0, 75, 0
2, 293040, Note_on_c, 0, 65, 100
2, 293280, Note_on_c, 0, 65, 0
2, 293280, Note_on_c, 0, 69, 100
2, 293520, Note_on_c, 0, 69, 0
2, 293520, Note_on_c, 0, 72, 100
2, 293640, Note_on_c, 0, 72, 0
2, 293640, Note_on_c, 0, 70, 100
2, 293760, Note_on_c, 0, 70, 0
2, 293760, Note_on_c, 0, 72, 100
2, 293880, Note_on_c, 0, 72, 0
2, 293880, Note_on_c, 0, 74, 100
2, 294000, Note_on_c, 0, 74, 0
2, 294000, Note_on_c, 0, 72, 100
2, 294120, Note_on_c, 0, 72, 0
2, 294120, Note_on_c, 0, 74, 100
2, 294240, Note_on_c, 0, 74, 0
2, 294240, Note_on_c, 0, 70, 100
2, 294360, Note_on_c, 0, 77, 0
2, 294360, Note_on_c, 0, 75, 100
2, 294480, Note_on_c, 0, 75, 0
2, 294480, Note_on_c, 0, 77, 100
2, 294600, Note_on_c, 0, 77, 0
2, 294600, Note_on_c, 0, 79, 100
2, 294720, Note_on_c, 0, 79, 0
2, 294720, Note_on_c, 0, 70, 0
2, 294720, Note_on_c, 0, 77, 100
2, 294840, Note_on_c, 0, 77, 0
2, 294840, Note_on_c, 0, 79, 100
2, 294960, Note_on_c, 0, 79, 0
2, 294960, Note_on_c, 0, 80, 100
2, 295080, Note_on_c, 0, 80, 0
2, 295080, Note_on_c, 0, 79, 100
2, 295200, Note_on_c, 0, 79, 0
2, 295200, Note_on_c, 0, 77, 100
2, 295200, Note_on_c, 0, 80, 100
2, 295320, Note_on_c, 0, 80, 0
2, 295320, Note_on_c, 0, 82, 100
2, 295440, Note_on_c, 0, 82, 0
2, 295440, Note_on_c, 0, 80, 100
2, 295560, Note_on_c, 0, 80, 0
2, 295560, Note_on_c, 0, 82, 100
2, 295680, Note_on_c, 0, 82, 0
2, 295680, Note_on_c, 0, 77, 0
2, 295680, Note_on_c, 0, 75, 100
2, 295680, Note_on_c, 0, 79, 100
2, 295800, Note_on_c, 0, 79, 0
2, 295800, Note_on_c, 0, 77, 100
2, 295920, Note_on_c, 0, 77, 0
2, 295920, Note_on_c, 0, 75, 0
2, 295920, Note_on_c, 0, 79, 100
2, 296040, Note_on_c, 0, 79, 0
2, 296040, Note_on_c, 0, 81, 100
2, 296160, Note_on_c, 0, 81, 0
2, 296160, Note_on_c, 0, 79, 100
2, 296280, Note_on_c, 0, 79, 0
2, 296280, Note_on_c, 0, 81, 100
2, 296400, Note_on_c, 0, 81, 0
2, 296400, Note_on_c, 0, 82, 100
2, 296520, Note_on_c, 0, 82, 0
2, 296520, Note_on_c, 0, 81, 100
2, 296640, Note_on_c, 0, 81, 0
2, 296640, Note_on_c, 0, 79, 100
2, 296640, Note_on_c, 0, 82, 100
2, 296760, Note_on_c, 0, 82, 0
2, 296760, Note_on_c, 0, 84, 100
2, 296880, Note_on_c, 0, 84, 0
2, 296880, Note_on_c, 0, 82, 100
2, 297000, Note_on_c, 0, 82, 0
2, 297000, Note_on_c, 0, 84, 100
2, 297120, Note_on_c, 0, 84, 0
2, 297120, Note_on_c, 0, 81, 100
2, 297240, Note_on_c, 0, 79, 0
2, 297240, Note_on_c, 0, 79, 100
2, 297360, Note_on_c, 0, 79, 0
2, 297360, Note_on_c, 0, 77, 100
2, 297480, Note_on_c, 0, 77, 0
2, 297480, Note_on_c, 0, 75, 100
2, 297600, Note_on_c, 0, 75, 0
2, 297600, Note_on_c, 0, 81, 0
2, 297600, Note_on_c, 0, 74, 100
2, 297600, Note_on_c, 0, 82, 100
2, 297720, Note_on_c, 0, 74, 0
2, 297720, Note_on_c, 0, 72, 100
2, 297840, Note_on_c, 0, 72, 0
2, 297840, Note_on_c, 0, 74, 100
2, 297960, Note_on_c, 0, 74, 0
2, 297960, Note_on_c, 0, 75, 100
2, 298080, Note_on_c, 0, 75, 0
2, 298080, Note_on_c, 0, 82, 0
2, 298080, Note_on_c, 0, 72, 100
2, 298080, Note_on_c, 0, 81, 100
2, 298110, Note_on_c, 0, 81, 0
2, 298110, Note_on_c, 0, 82, 100
2, 298140, Note_on_c, 0, 82, 0
2, 298140, Note_on_c, 0, 81, 100
2, 298560, Note_on_c, 0, 81, 0
2, 298560, Note_on_c, 0, 72, 0
2, 298560, Note_on_c, 0, 74, 100
2, 298560, Note_on_c, 0, 82, 100
2, 299280, Note_on_c, 0, 82, 0
2, 299280, Note_on_c, 0, 74, 0
2, 303120, Note_on_c, 0, 63, 100
2, 303600, Note_on_c, 0, 63, 0
2, 303600, Note_on_c, 0, 62, 100
2, 303840, Note_on_c, 0, 62, 0
2, 303840, Note_on_c, 0, 67, 100
2, 304320, Note_on_c, 0, 67, 0
2, 304320, Note_on_c, 0, 65, 100
2, 304320, Note_on_c, 0, 62, 100
2, 304440, Note_on_c, 0, 62, 0
2, 304440, Note_on_c, 0, 60, 100
2, 304560, Note_on_c, 0, 60, 0
2, 304560, Note_on_c, 0, 65, 0
2, 304560, Note_on_c, 0, 70, 100
2, 304560, Note_on_c, 0, 62, 100
2, 304680, Note_on_c, 0, 62, 0
2, 304680, Note_on_c, 0, 63, 100
2, 304800, Note_on_c, 0, 63, 0
2, 304800, Note_on_c, 0, 62, 100
2, 304920, Note_on_c, 0, 62, 0
2, 304920, Note_on_c, 0, 63, 100
2, 305040, Note_on_c, 0, 63, 0
2, 305040, Note_on_c, 0, 65, 100
2, 305160, Note_on_c, 0, 65, 0
2, 305160, Note_on_c, 0, 63, 100
2, 305280, Note_on_c, 0, 63, 0
2, 305280, Note_on_c, 0, 70, 0
2, 305280, Note_on_c, 0, 69, 100
2, 305280, Note_on_c, 0, 65, 100
2, 305400, Note_on_c, 0, 65, 0
2, 305400, Note_on_c, 0, 67, 100
2, 305520, Note_on_c, 0, 67, 0
2, 305520, Note_on_c, 0, 65, 100
2, 305640, Note_on_c, 0, 65, 0
2, 305640, Note_on_c, 0, 63, 100
2, 305760, Note_on_c, 0, 63, 0
2, 305760, Note_on_c, 0, 69, 0
2, 305760, Note_on_c, 0, 62, 100
2, 305760, Note_on_c, 0, 70, 100
2, 305880, Note_on_c, 0, 62, 0
2, 305880, Note_on_c, 0, 60, 100
2, 306000, Note_on_c, 0, 60, 0
2, 306000, Note_on_c, 0, 62, 100
2, 306120, Note_on_c, 0, 62, 0
2, 306120, Note_on_c, 0, 63, 100
2, 306240, Note_on_c, 0, 63, 0
2, 306240, Note_on_c, 0, 70, 0
2, 306240, Note_on_c, 0, 65, 100
2, 306480, Note_on_c, 0, 70, 100
2, 306720, Note_on_c, 0, 65, 0
2, 306720, Note_on_c, 0, 63, 100
2, 306960, Note_on_c, 0, 63, 0
2, 306960, Note_on_c, 0, 70, 0
2, 306960, Note_on_c, 0, 68, 100
2, 306960, Note_on_c, 0, 62, 100
2, 307200, Note_on_c, 0, 62, 0
2, 307200, Note_on_c, 0, 68, 0
2, 307200, Note_on_c, 0, 63, 100
2, 307200, Note_on_c, 0, 67, 100
2, 307320, Note_on_c, 0, 63, 0
2, 307320, Note_on_c, 0, 62, 100
2, 307440, Note_on_c, 0, 62, 0
2, 307440, Note_on_c, 0, 63, 100
2, 307560, Note_on_c, 0, 63, 0
2, 307560, Note_on_c, 0, 65, 100
2, 307680, Note_on_c, 0, 65, 0
2, 307680, Note_on_c, 0, 67, 0
2, 307680, Note_on_c, 0, 67, 100
2, 307920, Note_on_c, 0, 72, 100
2, 308160, Note_on_c, 0, 67, 0
2, 308160, Note_on_c, 0, 65, 100
2, 308400, Note_on_c, 0, 65, 0
2, 308400, Note_on_c, 0, 72, 0
2, 308400, Note_on_c, 0, 70, 100
2, 308400, Note_on_c, 0, 64, 100
2, 308640, Note_on_c, 0, 64, 0
2, 308640, Note_on_c, 0, 65, 100
2, 308880, Note_on_c, 0, 65, 0
2, 308880, Note_on_c, 0, 70, 0
2, 308880, Note_on_c, 0, 60, 100
2, 308880, Note_on_c, 0, 68, 100
2, 309120, Note_on_c, 0, 68, 0
2, 309120, Note_on_c, 0, 67, 100
2, 309360, Note_on_c, 0, 67, 0
2, 309360, Note_on_c, 0, 65, 100
2, 309600, Note_on_c, 0, 60, 0
2, 309600, Note_on_c, 0, 58, 100
2, 309840, Note_on_c, 0, 58, 0
2, 309840, Note_on_c, 0, 56, 100
2, 310080, Note_on_c, 0, 56, 0
2, 310320, Note_on_c, 0, 65, 0
2, 310320, Note_on_c, 0, 64, 100
2, 310560, Note_on_c, 0, 64, 0
2, 310560, Note_on_c, 0, 67, 100
2, 310800, Note_on_c, 0, 67, 0
2, 310800, Note_on_c, 0, 60, 100
2, 311040, Note_on_c, 0, 65, 100
2, 311160, Note_on_c, 0, 65, 0
2, 311160, Note_on_c, 0, 64, 100
2, 311280, Note_on_c, 0, 64, 0
2, 311280, Note_on_c, 0, 60, 0
2, 311280, Note_on_c, 0, 58, 100
2, 311280, Note_on_c, 0, 65, 100
2, 311400, Note_on_c, 0, 65, 0
2, 311400, Note_on_c, 0, 67, 100
2, 311520, Note_on_c, 0, 67, 0
2, 311520, Note_on_c, 0, 58, 0
2, 311520, Note_on_c, 0, 60, 100
2, 311520, Note_on_c, 0, 68, 100
2, 311640, Note_on_c, 0, 68, 0
2, 311640, Note_on_c, 0, 67, 100
2, 311760, Note_on_c, 0, 67, 0
2, 311760, Note_on_c, 0, 68, 100
2, 311880, Note_on_c, 0, 68, 0
2, 311880, Note_on_c, 0, 70, 100
2, 312000, Note_on_c, 0, 70, 0
2, 312000, Note_on_c, 0, 60, 0
2, 312000, Note_on_c, 0, 65, 100
2, 312000, Note_on_c, 0, 68, 100
2, 312120, Note_on_c, 0, 68, 0
2, 312120, Note_on_c, 0, 70, 100
2, 312240, Note_on_c, 0, 70, 0
2, 312240, Note_on_c, 0, 65, 0
2, 312240, Note_on_c, 0, 67, 100
2, 312240, Note_on_c, 0, 72, 100
2, 312360, Note_on_c, 0, 72, 0
2, 312360, Note_on_c, 0, 70, 100
2, 312480, Note_on_c, 0, 70, 0
2, 312480, Note_on_c, 0, 72, 100
2, 312600, Note_on_c, 0, 72, 0
2, 312600, Note_on_c, 0, 73, 100
2, 312720, Note_on_c, 0, 73, 0
2, 312720, Note_on_c, 0, 72, 100
2, 312840, Note_on_c, 0, 72, 0
2, 312840, Note_on_c, 0, 70, 100
2, 312960, Note_on_c, 0, 70, 0
2, 312960, Note_on_c, 0, 68, 100
2, 313080, Note_on_c, 0, 68, 0
2, 313080, Note_on_c, 0, 67, 100
2, 313200, Note_on_c, 0, 67, 0
2, 313200, Note_on_c, 0, 67, 0
2, 313200, Note_on_c, 0, 65, 100
2, 313200, Note_on_c, 0, 68, 100
2, 313320, Note_on_c, 0, 68, 0
2, 313320, Note_on_c, 0, 70, 100
2, 313440, Note_on_c, 0, 70, 0
2, 313440, Note_on_c, 0, 68, 100
2, 313560, Note_on_c, 0, 68, 0
2, 313560, Note_on_c, 0, 70, 100
2, 313680, Note_on_c, 0, 70, 0
2, 313680, Note_on_c, 0, 65, 0
2, 313680, Note_on_c, 0, 63, 100
2, 313680, Note_on_c, 0, 72, 100
2, 313800, Note_on_c, 0, 72, 0
2, 313800, Note_on_c, 0, 70, 100
2, 313920, Note_on_c, 0, 70, 0
2, 313920, Note_on_c, 0, 63, 0
2, 313920, Note_on_c, 0, 68, 100
2, 313920, Note_on_c, 0, 72, 100
2, 314040, Note_on_c, 0, 72, 0
2, 314040, Note_on_c, 0, 74, 100
2, 314160, Note_on_c, 0, 74, 0
2, 314160, Note_on_c, 0, 72, 100
2, 314280, Note_on_c, 0, 72, 0
2, 314280, Note_on_c, 0, 74, 100
2, 314400, Note_on_c, 0, 74, 0
2, 314400, Note_on_c, 0, 68, 0
2, 314400, Note_on_c, 0, 67, 100
2, 314400, Note_on_c, 0, 75, 100
2, 314520, Note_on_c, 0, 75, 0
2, 314520, Note_on_c, 0, 74, 100
2, 314640, Note_on_c, 0, 74, 0
2, 314640, Note_on_c, 0, 67, 0
2, 314640, Note_on_c, 0, 72, 100
2, 314640, Note_on_c, 0, 75, 100
2, 314760, Note_on_c, 0, 75, 0
2, 314760, Note_on_c, 0, 77, 100
2, 314880, Note_on_c, 0, 77, 0
2, 314880, Note_on_c, 0, 75, 100
2, 315000, Note_on_c, 0, 75, 0
2, 315000, Note_on_c, 0, 77, 100
2, 315120, Note_on_c, 0, 77, 0
2, 315120, Note_on_c, 0, 79, 100
2, 315240, Note_on_c, 0, 79, 0
2, 315240, Note_on_c, 0, 77, 100
2, 315360, Note_on_c, 0, 77, 0
2, 315360, Note_on_c, 0, 72, 0
2, 315360, Note_on_c, 0, 71, 100
2, 315360, Note_on_c, 0, 79, 100
2, 315480, Note_on_c, 0, 79, 0
2, 315480, Note_on_c, 0, 80, 100
2, 315600, Note_on_c, 0, 80, 0
2, 315600, Note_on_c, 0, 79, 100
2, 315720, Note_on_c, 0, 79, 0
2, 315720, Note_on_c, 0, 77, 100
2, 315840, Note_on_c, 0, 77, 0
2, 315840, Note_on_c, 0, 71, 0
2, 315840, Note_on_c, 0, 72, 100
2, 315840, Note_on_c, 0, 75, 100
2, 315960, Note_on_c, 0, 75, 0
2, 315960, Note_on_c, 0, 74, 100
2, 316080, Note_on_c, 0, 74, 0
2, 316080, Note_on_c, 0, 72, 0
2, 316080, Note_on_c, 0, 72, 100
2, 316080, Note_on_c, 0, 75, 100
2, 316200, Note_on_c, 0, 75, 0
2, 316200, Note_on_c, 0, 72, 0
2, 316200, Note_on_c, 0, 74, 100
2, 316200, Note_on_c, 0, 77, 100
2, 316320, Note_on_c, 0, 77, 0
2, 316320, Note_on_c, 0, 74, 0
2, 316320, Note_on_c, 0, 72, 100
2, 316320, Note_on_c, 0, 79, 100
2, 316440, Note_on_c, 0, 72, 0
2, 316440, Note_on_c, 0, 70, 100
2, 316560, Note_on_c, 0, 70, 0
2, 316560, Note_on_c, 0, 68, 100
2, 316680, Note_on_c, 0, 68, 0
2, 316680, Note_on_c, 0, 70, 100
2, 316800, Note_on_c, 0, 70, 0
2, 316800, Note_on_c, 0, 79, 0
2, 316800, Note_on_c, 0, 68, 100
2, 316800, Note_on_c, 0, 77, 100
2, 316920, Note_on_c, 0, 68, 0
2, 316920, Note_on_c, 0, 67, 100
2, 317040, Note_on_c, 0, 67, 0
2, 317040, Note_on_c, 0, 77, 0
2, 317040, Note_on_c, 0, 75, 100
2, 317040, Note_on_c, 0, 68, 100
2, 317160, Note_on_c, 0, 68, 0
2, 317160, Note_on_c, 0, 67, 100
2, 317280, Note_on_c, 0, 67, 0
2, 317280, Note_on_c, 0, 65, 100
2, 317400, Note_on_c, 0, 75, 0
2, 317400, Note_on_c, 0, 72, 100
2, 317520, Note_on_c, 0, 72, 0
2, 317520, Note_on_c, 0, 65, 0
2, 317520, Note_on_c, 0, 70, 100
2, 317520, Note_on_c, 0, 74, 100
2, 317640, Note_on_c, 0, 74, 0
2, 317640, Note_on_c, 0, 70, 0
2, 317640, Note_on_c, 0, 72, 100
2, 317640, Note_on_c, 0, 75, 100
2, 317760, Note_on_c, 0, 75, 0
2, 317760, Note_on_c, 0, 72, 0
2, 317760, Note_on_c, 0, 70, 100
2, 317760, Note_on_c, 0, 77, 100
2, 317880, Note_on_c, 0, 70, 0
2, 317880, Note_on_c, 0, 68, 100
2, 318000, Note_on_c, 0, 68, 0
2, 318000, Note_on_c, 0, 67, 100
2, 318120, Note_on_c, 0, 67, 0
2, 318120, Note_on_c, 0, 68, 100
2, 318240, Note_on_c, 0, 68, 0
2, 318240, Note_on_c, 0, 77, 0
2, 318240, Note_on_c, 0, 67, 100
2, 318240, Note_on_c, 0, 75, 100
2, 318360, Note_on_c, 0, 67, 0
2, 318360, Note_on_c, 0, 65, 100
2, 318480, Note_on_c, 0, 65, 0
2, 318480, Note_on_c, 0, 75, 0
2, 318480, Note_on_c, 0, 80, 100
2, 318480, Note_on_c, 0, 67, 100
2, 318600, Note_on_c, 0, 67, 0
2, 318600, Note_on_c, 0, 65, 100
2, 318720, Note_on_c, 0, 65, 0
2, 318720, Note_on_c, 0, 63, 100
2, 318840, Note_on_c, 0, 63, 0
2, 318840, Note_on_c, 0, 65, 100
2, 318960, Note_on_c, 0, 65, 0
2, 318960, Note_on_c, 0, 80, 0
2, 318960, Note_on_c, 0, 63, 100
2, 318960, Note_on_c, 0, 79, 100
2, 319080, Note_on_c, 0, 63, 0
2, 319080, Note_on_c, 0, 62, 100
2, 319200, Note_on_c, 0, 62, 0
2, 319200, Note_on_c, 0, 79, 0
2, 319200, Note_on_c, 0, 63, 100
2, 319200, Note_on_c, 0, 78, 100
2, 319320, Note_on_c, 0, 63, 0
2, 319320, Note_on_c, 0, 60, 100
2, 319440, Note_on_c, 0, 60, 0
2, 319440, Note_on_c, 0, 78, 0
2, 319440, Note_on_c, 0, 62, 100
2, 319440, Note_on_c, 0, 79, 100
2, 319560, Note_on_c, 0, 79, 0
2, 319560, Note_on_c, 0, 77, 100
2, 319680, Note_on_c, 0, 77, 0
2, 319680, Note_on_c, 0, 62, 0
2, 319680, Note_on_c, 0, 79, 100
2, 319800, Note_on_c, 0, 79, 0
2, 319800, Note_on_c, 0, 80, 100
2, 319920, Note_on_c, 0, 80, 0
2, 319920, Note_on_c, 0, 67, 100
2, 319920, Note_on_c, 0, 79, 100
2, 320040, Note_on_c, 0, 79, 0
2, 320040, Note_on_c, 0, 77, 100
2, 320160, Note_on_c, 0, 77, 0
2, 320160, Note_on_c, 0, 67, 0
2, 320160, Note_on_c, 0, 72, 100
2, 320160, Note_on_c, 0, 75, 100
2, 320280, Note_on_c, 0, 75, 0
2, 320280, Note_on_c, 0, 77, 100
2, 320400, Note_on_c, 0, 77, 0
2, 320400, Note_on_c, 0, 75, 100
2, 320520, Note_on_c, 0, 75, 0
2, 320520, Note_on_c, 0, 74, 100
2, 320640, Note_on_c, 0, 74, 0
2, 320640, Note_on_c, 0, 72, 0
2, 320640, Note_on_c, 0, 70, 100
2, 320640, Note_on_c, 0, 75, 100
2, 320760, Note_on_c, 0, 75, 0
2, 320760, Note_on_c, 0, 74, 100
2, 320880, Note_on_c, 0, 74, 0
2, 320880, Note_on_c, 0, 70, 0
2, 320880, Note_on_c, 0, 69, 100
2, 320880, Note_on_c, 0, 72, 100
2, 321000, Note_on_c, 0, 72, 0
2, 321000, Note_on_c, 0, 70, 100
2, 321120, Note_on_c, 0, 70, 0
2, 321120, Note_on_c, 0, 72, 100
2, 321240, Note_on_c, 0, 72, 0
2, 321240, Note_on_c, 0, 75, 100
2, 321360, Note_on_c, 0, 75, 0
2, 321360, Note_on_c, 0, 74, 100
2, 321480, Note_on_c, 0, 74, 0
2, 321480, Note_on_c, 0, 72, 100
2, 321600, Note_on_c, 0, 72, 0
2, 321600, Note_on_c, 0, 70, 100
2, 321840, Note_on_c, 0, 69, 0
2, 321840, Note_on_c, 0, 67, 100
2, 322080, Note_on_c, 0, 70, 0
2, 322080, Note_on_c, 0, 70, 100
2, 322320, Note_on_c, 0, 70, 0
2, 322320, Note_on_c, 0, 75, 100
2, 322560, Note_on_c, 0, 67, 0
2, 322560, Note_on_c, 0, 72, 100
2, 322800, Note_on_c, 0, 75, 0
2, 322800, Note_on_c, 0, 76, 100
2, 323040, Note_on_c, 0, 76, 0
2, 323040, Note_on_c, 0, 77, 100
2, 323280, Note_on_c, 0, 72, 0
2, 323280, Note_on_c, 0, 69, 100
2, 323520, Note_on_c, 0, 77, 0
2, 323520, Note_on_c, 0, 72, 100
2, 323760, Note_on_c, 0, 72, 0
2, 323760, Note_on_c, 0, 77, 100
2, 324000, Note_on_c, 0, 69, 0
2, 324000, Note_on_c, 0, 74, 100
2, 324240, Note_on_c, 0, 77, 0
2, 324240, Note_on_c, 0, 78, 100
2, 324480, Note_on_c, 0, 78, 0
2, 324480, Note_on_c, 0, 79, 100
2, 324600, Note_on_c, 0, 74, 0
2, 324600, Note_on_c, 0, 72, 100
2, 324720, Note_on_c, 0, 72, 0
2, 324720, Note_on_c, 0, 74, 100
2, 324840, Note_on_c, 0, 74, 0
2, 324840, Note_on_c, 0, 75, 100
2, 324960, Note_on_c, 0, 75, 0
2, 324960, Note_on_c, 0, 72, 100
2, 325080, Note_on_c, 0, 72, 0
2, 325080, Note_on_c, 0, 74, 100
2, 325200, Note_on_c, 0, 74, 0
2, 325200, Note_on_c, 0, 75, 100
2, 325320, Note_on_c, 0, 75, 0
2, 325320, Note_on_c, 0, 74, 100
2, 325440, Note_on_c, 0, 74, 0
2, 325440, Note_on_c, 0, 79, 0
2, 325440, Note_on_c, 0, 84, 100
2, 325440, Note_on_c, 0, 75, 100
2, 325560, Note_on_c, 0, 75, 0
2, 325560, Note_on_c, 0, 77, 100
2, 325680, Note_on_c, 0, 77, 0
2, 325680, Note_on_c, 0, 75, 100
2, 325800, Note_on_c, 0, 75, 0
2, 325800, Note_on_c, 0, 77, 100
2, 325920, Note_on_c, 0, 77, 0
2, 325920, Note_on_c, 0, 84, 0
2, 325920, Note_on_c, 0, 79, 100
2, 325920, Note_on_c, 0, 82, 100
2, 326160, Note_on_c, 0, 82, 0
2, 326160, Note_on_c, 0, 80, 100
2, 326280, Note_on_c, 0, 79, 0
2, 326280, Note_on_c, 0, 72, 100
2, 326400, Note_on_c, 0, 72, 0
2, 326400, Note_on_c, 0, 77, 100
2, 326520, Note_on_c, 0, 77, 0
2, 326520, Note_on_c, 0, 75, 100
2, 326640, Note_on_c, 0, 75, 0
2, 326640, Note_on_c, 0, 74, 100
2, 326880, Note_on_c, 0, 80, 0
2, 326880, Note_on_c, 0, 79, 100
2, 327000, Note_on_c, 0, 74, 0
2, 327000, Note_on_c, 0, 77, 100
2, 327120, Note_on_c, 0, 77, 0
2, 327120, Note_on_c, 0, 75, 100
2, 327240, Note_on_c, 0, 75, 0
2, 327240, Note_on_c, 0, 74, 100
2, 327360, Note_on_c, 0, 74, 0
2, 327360, Note_on_c, 0, 72, 100
2, 327600, Note_on_c, 0, 79, 0
2, 327600, Note_on_c, 0, 80, 100
2, 327840, Note_on_c, 0, 80, 0
2, 327840, Note_on_c, 0, 79, 100
2, 328320, Note_on_c, 0, 79, 0
2, 328320, Note_on_c, 0, 77, 100
2, 328560, Note_on_c, 0, 77, 0
2, 328560, Note_on_c, 0, 75, 100
2, 329040, Note_on_c, 0, 75, 0
2, 329040, Note_on_c, 0, 72, 0
2, 329040, Note_on_c, 0, 71, 100
2, 329040, Note_on_c, 0, 74, 100
2, 329280, Note_on_c, 0, 74, 0
2, 329280, Note_on_c, 0, 71, 0
2, 329280, Note_on_c, 0, 72, 100
2, 329280, Note_on_c, 0, 72, 100
2, 329520, Note_on_c, 0, 72, 0
2, 329520, Note_on_c, 0, 72, 0
2, 329520, Note_on_c, 0, 77, 100
2, 329520, Note_on_c, 0, 72, 100
2, 329760, Note_on_c, 0, 72, 0
2, 329760, Note_on_c, 0, 71, 100
2, 330000, Note_on_c, 0, 71, 0
2, 330000, Note_on_c, 0, 74, 100
2, 330240, Note_on_c, 0, 74, 0
2, 330240, Note_on_c, 0, 67, 100
2, 330360, Note_on_c, 0, 77, 0
2, 330360, Note_on_c, 0, 77, 100
2, 330480, Note_on_c, 0, 77, 0
2, 330480, Note_on_c, 0, 67, 0
2, 330480, Note_on_c, 0, 71, 100
2, 330480, Note_on_c, 0, 75, 100
2, 330600, Note_on_c, 0, 75, 0
2, 330600, Note_on_c, 0, 74, 100
2, 330720, Note_on_c, 0, 74, 0
2, 330720, Note_on_c, 0, 71, 0
2, 330720, Note_on_c, 0, 72, 100
2, 330720, Note_on_c, 0, 75, 100
2, 331080, Note_on_c, 0, 75, 0
2, 331080, Note_on_c, 0, 77, 100
2, 331200, Note_on_c, 0, 77, 0
2, 331200, Note_on_c, 0, 72, 0
2, 331200, Note_on_c, 0, 71, 100
2, 331200, Note_on_c, 0, 74, 100
2, 331560, Note_on_c, 0, 74, 0
2, 331560, Note_on_c, 0, 72, 100
2, 331680, Note_on_c, 0, 72, 0
2, 331680, Note_on_c, 0, 71, 0
2, 331680, Note_on_c, 0, 63, 115
2, 331680, Note_on_c, 0, 67, 115
2, 331680, Note_on_c, 0, 72, 115
2, 332040, Note_on_c, 0, 72, 0
2, 332040, Note_on_c, 0, 67, 0
2, 332040, Note_on_c, 0, 63, 0
2, 333480, Note_on_c, 0, 67, 115
2, 333600, Note_on_c, 0, 67, 0
2, 333600, Note_on_c, 0, 65, 115
2, 333720, Note_on_c, 0, 65, 0
2, 333720, Note_on_c, 0, 67, 115
2, 333840, Note_on_c, 0, 67, 0
2, 333840, Note_on_c, 0, 60, 115
2, 333936, Note_on_c, 0, 60, 0
2, 333960, Note_on_c, 0, 63, 115
2, 334020, Note_on_c, 0, 63, 0
2, 334020, Note_on_c, 0, 62, 115
2, 334080, Note_on_c, 0, 62, 0
2, 334080, Note_on_c, 0, 63, 115
2, 334140, Note_on_c, 0, 63, 0
2, 334140, Note_on_c, 0, 60, 115
2, 334200, Note_on_c, 0, 60, 0
2, 334200, Note_on_c, 0, 65, 115
2, 334320, Note_on_c, 0, 65, 0
2, 334320, Note_on_c, 0, 63, 115
2, 334440, Note_on_c, 0, 63, 0
2, 334440, Note_on_c, 0, 65, 115
2, 334560, Note_on_c, 0, 65, 0
2, 334560, Note_on_c, 0, 58, 115
2, 334656, Note_on_c, 0, 58, 0
2, 334680, Note_on_c, 0, 62, 115
2, 334740, Note_on_c, 0, 62, 0
2, 334740, Note_on_c, 0, 60, 115
2, 334800, Note_on_c, 0, 60, 0
2, 334800, Note_on_c, 0, 62, 115
2, 334860, Note_on_c, 0, 62, 0
2, 334860, Note_on_c, 0, 58, 115
2, 334920, Note_on_c, 0, 58, 0
2, 334920, Note_on_c, 0, 63, 115
2, 335040, Note_on_c, 0, 63, 0
2, 335280, Note_on_c, 0, 62, 115
2, 335340, Note_on_c, 0, 62, 0
2, 335340, Note_on_c, 0, 60, 115
2, 335400, Note_on_c, 0, 60, 0
2, 335400, Note_on_c, 0, 58, 115
2, 335460, Note_on_c, 0, 58, 0
2, 335460, Note_on_c, 0, 60, 115
2, 335520, Note_on_c, 0, 60, 0
2, 335520, Note_on_c, 0, 62, 115
2, 335580, Note_on_c, 0, 62, 0
2, 335580, Note_on_c, 0, 63, 115
2, 335640, Note_on_c, 0, 63, 0
2, 335640, Note_on_c, 0, 65, 115
2, 335760, Note_on_c, 0, 65, 0
2, 336000, Note_on_c, 0, 63, 115
2, 336060, Note_on_c, 0, 63, 0
2, 336060, Note_on_c, 0, 65, 115
2, 336120, Note_on_c, 0, 65, 0
2, 336120, Note_on_c, 0, 67, 115
2, 336180, Note_on_c, 0, 67, 0
2, 336180, Note_on_c, 0, 65, 115
2, 336240, Note_on_c, 0, 65, 0
2, 336240, Note_on_c, 0, 63, 115
2, 336300, Note_on_c, 0, 63, 0
2, 336300, Note_on_c, 0, 62, 115
2, 336360, Note_on_c, 0, 62, 0
2, 336360, Note_on_c, 0, 60, 115
2, 336360, Note_on_c, 0, 72, 115
2, 336480, Note_on_c, 0, 72, 0
2, 336480, Note_on_c, 0, 60, 0
2, 336480, Note_on_c, 0, 61, 115
2, 336480, Note_on_c, 0, 70, 115
2, 336600, Note_on_c, 0, 70, 0
2, 336600, Note_on_c, 0, 61, 0
2, 336600, Note_on_c, 0, 63, 115
2, 336600, Note_on_c, 0, 72, 115
2, 336720, Note_on_c, 0, 72, 0
2, 336720, Note_on_c, 0, 63, 0
2, 336720, Note_on_c, 0, 61, 115
2, 336720, Note_on_c, 0, 65, 115
2, 336840, Note_on_c, 0, 65, 0
2, 336840, Note_on_c, 0, 68, 115
2, 336900, Note_on_c, 0, 68, 0
2, 336900, Note_on_c, 0, 67, 115
2, 336960, Note_on_c, 0, 67, 0
2, 336960, Note_on_c, 0, 68, 115
2, 337020, Note_on_c, 0, 68, 0
2, 337020, Note_on_c, 0, 65, 115
2, 337080, Note_on_c, 0, 65, 0
2, 337080, Note_on_c, 0, 70, 115
2, 337200, Note_on_c, 0, 70, 0
2, 337200, Note_on_c, 0, 61, 0
2, 337200, Note_on_c, 0, 60, 115
2, 337200, Note_on_c, 0, 68, 115
2, 337320, Note_on_c, 0, 68, 0
2, 337320, Note_on_c, 0, 60, 0
2, 337320, Note_on_c, 0, 70, 115
2, 337320, Note_on_c, 0, 58, 115
2, 337440, Note_on_c, 0, 58, 0
2, 337440, Note_on_c, 0, 70, 0
2, 337440, Note_on_c, 0, 60, 115
2, 337440, Note_on_c, 0, 63, 115
2, 337560, Note_on_c, 0, 63, 0
2, 337560, Note_on_c, 0, 67, 115
2, 337620, Note_on_c, 0, 67, 0
2, 337620, Note_on_c, 0, 65, 115
2, 337680, Note_on_c, 0, 65, 0
2, 337680, Note_on_c, 0, 67, 115
2, 337740, Note_on_c, 0, 67, 0
2, 337740, Note_on_c, 0, 63, 115
2, 337800, Note_on_c, 0, 63, 0
2, 337800, Note_on_c, 0, 68, 115
2, 338040, Note_on_c, 0, 60, 0
2, 338040, Note_on_c, 0, 60, 115
2, 338160, Note_on_c, 0, 60, 0
2, 338160, Note_on_c, 0, 62, 115
2, 338280, Note_on_c, 0, 62, 0
2, 338280, Note_on_c, 0, 65, 115
2, 338340, Note_on_c, 0, 65, 0
2, 338340, Note_on_c, 0, 63, 115
2, 338400, Note_on_c, 0, 63, 0
2, 338400, Note_on_c, 0, 65, 115
2, 338460, Note_on_c, 0, 65, 0
2, 338460, Note_on_c, 0, 62, 115
2, 338520, Note_on_c, 0, 62, 0
2, 338520, Note_on_c, 0, 68, 0
2, 338520, Note_on_c, 0, 67, 115
2, 338520, Note_on_c, 0, 58, 115
2, 338880, Note_on_c, 0, 58, 0
2, 338880, Note_on_c, 0, 60, 115
2, 339000, Note_on_c, 0, 60, 0
2, 339000, Note_on_c, 0, 63, 115
2, 339060, Note_on_c, 0, 63, 0
2, 339060, Note_on_c, 0, 62, 115
2, 339120, Note_on_c, 0, 62, 0
2, 339120, Note_on_c, 0, 63, 115
2, 339180, Note_on_c, 0, 63, 0
2, 339180, Note_on_c, 0, 60, 115
2, 339240, Note_on_c, 0, 60, 0
2, 339240, Note_on_c, 0, 67, 0
2, 339240, Note_on_c, 0, 57, 115
2, 339240, Note_on_c, 0, 66, 115
2, 339480, Note_on_c, 0, 57, 0
2, 339480, Note_on_c, 0, 60, 115
2, 339600, Note_on_c, 0, 60, 0
2, 339600, Note_on_c, 0, 66, 0
2, 339600, Note_on_c, 0, 60, 115
2, 339600, Note_on_c, 0, 67, 115
2, 339720, Note_on_c, 0, 60, 0
2, 339720, Note_on_c, 0, 58, 115
2, 339840, Note_on_c, 0, 58, 0
2, 339840, Note_on_c, 0, 57, 115
2, 339960, Note_on_c, 0, 57, 0
2, 339960, Note_on_c, 0, 67, 0
2, 339960, Note_on_c, 0, 58, 115
2, 339960, Note_on_c, 0, 79, 115
2, 340080, Note_on_c, 0, 79, 0
2, 340080, Note_on_c, 0, 77, 115
2, 340200, Note_on_c, 0, 77, 0
2, 340200, Note_on_c, 0, 79, 115
2, 340320, Note_on_c, 0, 79, 0
2, 340320, Note_on_c, 0, 72, 115
2, 340428, Note_on_c, 0, 72, 0
2, 340440, Note_on_c, 0, 58, 0
2, 340440, Note_on_c, 0, 76, 115
2, 340500, Note_on_c, 0, 76, 0
2, 340500, Note_on_c, 0, 74, 115
2, 340560, Note_on_c, 0, 74, 0
2, 340560, Note_on_c, 0, 76, 115
2, 340620, Note_on_c, 0, 76, 0
2, 340620, Note_on_c, 0, 72, 115
2, 340680, Note_on_c, 0, 72, 0
2, 340680, Note_on_c, 0, 77, 115
2, 340800, Note_on_c, 0, 77, 0
2, 340800, Note_on_c, 0, 75, 115
2, 340920, Note_on_c, 0, 75, 0
2, 340920, Note_on_c, 0, 77, 115
2, 341040, Note_on_c, 0, 77, 0
2, 341040, Note_on_c, 0, 70, 115
2, 341148, Note_on_c, 0, 70, 0
2, 341160, Note_on_c, 0, 74, 115
2, 341220, Note_on_c, 0, 74, 0
2, 341220, Note_on_c, 0, 72, 115
2, 341280, Note_on_c, 0, 72, 0
2, 341280, Note_on_c, 0, 74, 115
2, 341340, Note_on_c, 0, 74, 0
2, 341340, Note_on_c, 0, 70, 115
2, 341400, Note_on_c, 0, 70, 0
2, 341400, Note_on_c, 0, 75, 115
2, 341760, Note_on_c, 0, 58, 115
2, 341820, Note_on_c, 0, 58, 0
2, 341820, Note_on_c, 0, 56, 115
2, 341880, Note_on_c, 0, 56, 0
2, 341880, Note_on_c, 0, 58, 115
2, 341940, Note_on_c, 0, 58, 0
2, 341940, Note_on_c, 0, 60, 115
2, 342000, Note_on_c, 0, 60, 0
2, 342000, Note_on_c, 0, 62, 115
2, 342060, Note_on_c, 0, 62, 0
2, 342060, Note_on_c, 0, 63, 115
2, 342120, Note_on_c, 0, 63, 0
2, 342120, Note_on_c, 0, 75, 0
2, 342120, Note_on_c, 0, 65, 115
2, 342120, Note_on_c, 0, 74, 115
2, 342180, Note_on_c, 0, 65, 0
2, 342180, Note_on_c, 0, 63, 115
2, 342240, Note_on_c, 0, 63, 0
2, 342240, Note_on_c, 0, 65, 115
2, 342300, Note_on_c, 0, 65, 0
2, 342300, Note_on_c, 0, 67, 115
2, 342360, Note_on_c, 0, 67, 0
2, 342360, Note_on_c, 0, 68, 115
2, 342420, Note_on_c, 0, 68, 0
2, 342420, Note_on_c, 0, 70, 115
2, 342480, Note_on_c, 0, 70, 0
2, 342480, Note_on_c, 0, 74, 0
2, 342480, Note_on_c, 0, 79, 115
2, 342540, Note_on_c, 0, 67, 115
2, 342600, Note_on_c, 0, 67, 0
2, 342600, Note_on_c, 0, 68, 115
2, 342660, Note_on_c, 0, 68, 0
2, 342660, Note_on_c, 0, 70, 115
2, 342720, Note_on_c, 0, 70, 0
2, 342720, Note_on_c, 0, 72, 115
2, 342780, Note_on_c, 0, 72, 0
2, 342780, Note_on_c, 0, 74, 115
2, 342840, Note_on_c, 0, 74, 0
2, 342840, Note_on_c, 0, 75, 115
2, 343200, Note_on_c, 0, 79, 0
2, 343200, Note_on_c, 0, 77, 115
2, 343560, Note_on_c, 0, 77, 0
2, 343560, Note_on_c, 0, 75, 0
2, 343560, Note_on_c, 0, 82, 115
2, 343560, Note_on_c, 0, 74, 115
2, 343680, Note_on_c, 0, 74, 0
2, 343680, Note_on_c, 0, 75, 115
2, 343800, Note_on_c, 0, 75, 0
2, 343800, Note_on_c, 0, 74, 115
2, 344040, Note_on_c, 0, 74, 0
2, 344040, Note_on_c, 0, 75, 115
2, 344160, Note_on_c, 0, 75, 0
2, 344160, Note_on_c, 0, 72, 115
2, 344280, Note_on_c, 0, 82, 0
2, 344280, Note_on_c, 0, 81, 115
2, 344400, Note_on_c, 0, 72, 0
2, 344400, Note_on_c, 0, 70, 115
2, 344520, Note_on_c, 0, 70, 0
2, 344520, Note_on_c, 0, 72, 115
2, 344640, Note_on_c, 0, 72, 0
2, 344640, Note_on_c, 0, 81, 0
2, 344640, Note_on_c, 0, 82, 115
2, 344640, Note_on_c, 0, 65, 115
2, 344760, Note_on_c, 0, 65, 0
2, 344760, Note_on_c, 0, 82, 0
2, 344760, Note_on_c, 0, 67, 115
2, 344820, Note_on_c, 0, 67, 0
2, 344820, Note_on_c, 0, 69, 115
2, 344880, Note_on_c, 0, 69, 0
2, 344880, Note_on_c, 0, 70, 115
2, 344940, Note_on_c, 0, 70, 0
2, 344940, Note_on_c, 0, 72, 115
2, 345000, Note_on_c, 0, 72, 0
2, 345000, Note_on_c, 0, 82, 115
2, 345000, Note_on_c, 0, 74, 115
2, 345120, Note_on_c, 0, 82, 0
2, 345120, Note_on_c, 0, 80, 115
2, 345240, Note_on_c, 0, 80, 0
2, 345240, Note_on_c, 0, 82, 115
2, 345360, Note_on_c, 0, 82, 0
2, 345360, Note_on_c, 0, 74, 0
2, 345360, Note_on_c, 0, 72, 115
2, 345360, Note_on_c, 0, 67, 115
2, 345360, Note_on_c, 0, 75, 115
2, 345480, Note_on_c, 0, 75, 0
2, 345480, Note_on_c, 0, 79, 115
2, 345540, Note_on_c, 0, 79, 0
2, 345540, Note_on_c, 0, 77, 115
2, 345600, Note_on_c, 0, 77, 0
2, 345600, Note_on_c, 0, 79, 115
2, 345660, Note_on_c, 0, 79, 0
2, 345660, Note_on_c, 0, 75, 115
2, 345720, Note_on_c, 0, 75, 0
2, 345720, Note_on_c, 0, 80, 115
2, 345840, Note_on_c, 0, 80, 0
2, 345840, Note_on_c, 0, 79, 115
2, 345960, Note_on_c, 0, 79, 0
2, 345960, Note_on_c, 0, 80, 115
2, 346080, Note_on_c, 0, 80, 0
2, 346080, Note_on_c, 0, 67, 0
2, 346080, Note_on_c, 0, 72, 0
2, 346080, Note_on_c, 0, 65, 115
2, 346080, Note_on_c, 0, 70, 115
2, 346080, Note_on_c, 0, 74, 115
2, 346200, Note_on_c, 0, 74, 0
2, 346200, Note_on_c, 0, 77, 115
2, 346260, Note_on_c, 0, 77, 0
2, 346260, Note_on_c, 0, 75, 115
2, 346320, Note_on_c, 0, 75, 0
2, 346320, Note_on_c, 0, 77, 115
2, 346380, Note_on_c, 0, 77, 0
2, 346380, Note_on_c, 0, 74, 115
2, 346440, Note_on_c, 0, 74, 0
2, 346440, Note_on_c, 0, 70, 0
2, 346440, Note_on_c, 0, 65, 0
2, 346440, Note_on_c, 0, 75, 115
2, 346440, Note_on_c, 0, 70, 115
2, 346440, Note_on_c, 0, 79, 115
2, 347160, Note_on_c, 0, 79, 0
2, 347160, Note_on_c, 0, 70, 0
2, 347160, Note_on_c, 0, 75, 0
2, 347160, Note_on_c, 0, 72, 115
2, 347160, Note_on_c, 0, 68, 115
2, 347160, Note_on_c, 0, 77, 115
2, 347400, Note_on_c, 0, 77, 0
2, 347400, Note_on_c, 0, 75, 115
2, 347520, Note_on_c, 0, 75, 0
2, 347520, Note_on_c, 0, 72, 0
2, 347520, Note_on_c, 0, 74, 115
2, 347520, Note_on_c, 0, 70, 115
2, 347880, Note_on_c, 0, 70, 0
2, 347880, Note_on_c, 0, 74, 0
2, 347880, Note_on_c, 0, 68, 0
2, 347880, Note_on_c, 0, 72, 115
2, 347940, Note_on_c, 0, 72, 0
2, 347940, Note_on_c, 0, 74, 115
2, 348000, Note_on_c, 0, 74, 0
2, 348000, Note_on_c, 0, 75, 115
2, 348060, Note_on_c, 0, 75, 0
2, 348060, Note_on_c, 0, 74, 115
2, 348120, Note_on_c, 0, 74, 0
2, 348120, Note_on_c, 0, 72, 115
2, 348180, Note_on_c, 0, 72, 0
2, 348180, Note_on_c, 0, 70, 115
2, 348240, Note_on_c, 0, 70, 0
2, 348240, Note_on_c, 0, 77, 115
2, 348240, Note_on_c, 0, 69, 115
2, 348300, Note_on_c, 0, 69, 0
2, 348300, Note_on_c, 0, 70, 115
2, 348420, Note_on_c, 0, 70, 0
2, 348420, Note_on_c, 0, 72, 115
2, 348480, Note_on_c, 0, 72, 0
2, 348480, Note_on_c, 0, 70, 115
2, 348480, Note_on_c, 0, 72, 115
2, 348540, Note_on_c, 0, 72, 0
2, 348540, Note_on_c, 0, 70, 0
2, 348540, Note_on_c, 0, 69, 115
2, 348600, Note_on_c, 0, 69, 0
2, 348600, Note_on_c, 0, 70, 115
2, 348660, Note_on_c, 0, 70, 0
2, 348660, Note_on_c, 0, 72, 115
2, 348720, Note_on_c, 0, 72, 0
2, 348720, Note_on_c, 0, 73, 115
2, 348780, Note_on_c, 0, 73, 0
2, 348780, Note_on_c, 0, 72, 115
2, 348840, Note_on_c, 0, 72, 0
2, 348840, Note_on_c, 0, 70, 115
2, 348900, Note_on_c, 0, 70, 0
2, 348900, Note_on_c, 0, 68, 115
2, 348960, Note_on_c, 0, 68, 0
2, 348960, Note_on_c, 0, 77, 0
2, 348960, Note_on_c, 0, 67, 115
2, 348960, Note_on_c, 0, 75, 115
2, 349020, Note_on_c, 0, 67, 0
2, 349020, Note_on_c, 0, 68, 115
2, 349080, Note_on_c, 0, 68, 0
2, 349080, Note_on_c, 0, 70, 115
2, 349140, Note_on_c, 0, 70, 0
2, 349140, Note_on_c, 0, 68, 115
2, 349200, Note_on_c, 0, 68, 0
2, 349200, Note_on_c, 0, 70, 115
2, 349260, Note_on_c, 0, 70, 0
2, 349260, Note_on_c, 0, 67, 115
2, 349320, Note_on_c, 0, 67, 0
2, 349320, Note_on_c, 0, 68, 115
2, 349440, Note_on_c, 0, 68, 0
2, 349440, Note_on_c, 0, 75, 0
2, 349440, Note_on_c, 0, 73, 115
2, 349560, Note_on_c, 0, 73, 0
2, 349560, Note_on_c, 0, 75, 115
2, 349680, Note_on_c, 0, 75, 0
2, 349680, Note_on_c, 0, 68, 115
2, 349800, Note_on_c, 0, 68, 0
2, 349800, Note_on_c, 0, 72, 115
2, 349860, Note_on_c, 0, 72, 0
2, 349860, Note_on_c, 0, 70, 115
2, 349920, Note_on_c, 0, 70, 0
2, 349920, Note_on_c, 0, 72, 115
2, 349980, Note_on_c, 0, 72, 0
2, 349980, Note_on_c, 0, 68, 115
2, 350040, Note_on_c, 0, 68, 0
2, 350040, Note_on_c, 0, 73, 115
2, 350160, Note_on_c, 0, 73, 0
2, 350160, Note_on_c, 0, 72, 115
2, 350280, Note_on_c, 0, 72, 0
2, 350280, Note_on_c, 0, 73, 115
2, 350400, Note_on_c, 0, 73, 0
2, 350400, Note_on_c, 0, 67, 115
2, 350520, Note_on_c, 0, 67, 0
2, 350520, Note_on_c, 0, 70, 115
2, 350580, Note_on_c, 0, 70, 0
2, 350580, Note_on_c, 0, 68, 115
2, 350640, Note_on_c, 0, 68, 0
2, 350640, Note_on_c, 0, 70, 115
2, 350700, Note_on_c, 0, 70, 0
2, 350700, Note_on_c, 0, 67, 115
2, 350760, Note_on_c, 0, 67, 0
2, 350760, Note_on_c, 0, 72, 115
2, 350760, Note_on_c, 0, 75, 115
2, 350880, Note_on_c, 0, 72, 0
2, 350880, Note_on_c, 0, 70, 115
2, 351000, Note_on_c, 0, 70, 0
2, 351000, Note_on_c, 0, 72, 115
2, 351120, Note_on_c, 0, 72, 0
2, 351120, Note_on_c, 0, 75, 0
2, 351120, Note_on_c, 0, 73, 115
2, 351120, Note_on_c, 0, 65, 115
2, 351240, Note_on_c, 0, 65, 0
2, 351240, Note_on_c, 0, 68, 115
2, 351300, Note_on_c, 0, 68, 0
2, 351300, Note_on_c, 0, 67, 115
2, 351360, Note_on_c, 0, 67, 0
2, 351360, Note_on_c, 0, 68, 115
2, 351420, Note_on_c, 0, 68, 0
2, 351420, Note_on_c, 0, 65, 115
2, 351480, Note_on_c, 0, 65, 0
2, 351480, Note_on_c, 0, 70, 115
2, 351600, Note_on_c, 0, 70, 0
2, 351600, Note_on_c, 0, 68, 115
2, 351720, Note_on_c, 0, 68, 0
2, 351720, Note_on_c, 0, 70, 115
2, 351840, Note_on_c, 0, 70, 0
2, 351840, Note_on_c, 0, 63, 115
2, 351960, Note_on_c, 0, 63, 0
2, 351960, Note_on_c, 0, 73, 0
2, 351960, Note_on_c, 0, 65, 115
2, 351960, Note_on_c, 0, 72, 115
2, 352020, Note_on_c, 0, 65, 0
2, 352020, Note_on_c, 0, 67, 115
2, 352080, Note_on_c, 0, 67, 0
2, 352080, Note_on_c, 0, 72, 0
2, 352080, Note_on_c, 0, 68, 115
2, 352140, Note_on_c, 0, 68, 0
2, 352140, Note_on_c, 0, 70, 115
2, 352200, Note_on_c, 0, 70, 0
2, 352200, Note_on_c, 0, 72, 115
2, 352260, Note_on_c, 0, 72, 0
2, 352260, Note_on_c, 0, 68, 115
2, 352320, Note_on_c, 0, 68, 0
2, 352320, Note_on_c, 0, 70, 115
2, 352380, Note_on_c, 0, 70, 0
2, 352380, Note_on_c, 0, 72, 115
2, 352440, Note_on_c, 0, 72, 0
2, 352440, Note_on_c, 0, 74, 115
2, 352500, Note_on_c, 0, 74, 0
2, 352500, Note_on_c, 0, 75, 115
2, 352560, Note_on_c, 0, 75, 0
2, 352560, Note_on_c, 0, 77, 115
2, 352620, Note_on_c, 0, 77, 0
2, 352620, Note_on_c, 0, 75, 115
2, 352680, Note_on_c, 0, 75, 0
2, 352680, Note_on_c, 0, 77, 115
2, 352740, Note_on_c, 0, 77, 0
2, 352740, Note_on_c, 0, 79, 115
2, 352800, Note_on_c, 0, 79, 0
2, 352800, Note_on_c, 0, 80, 115
2, 352860, Note_on_c, 0, 80, 0
2, 352860, Note_on_c, 0, 77, 115
2, 352920, Note_on_c, 0, 77, 0
2, 352920, Note_on_c, 0, 70, 115
2, 352920, Note_on_c, 0, 82, 115
2, 352980, Note_on_c, 0, 82, 0
2, 352980, Note_on_c, 0, 84, 115
2, 353040, Note_on_c, 0, 84, 0
2, 353040, Note_on_c, 0, 82, 115
2, 353100, Note_on_c, 0, 82, 0
2, 353100, Note_on_c, 0, 80, 115
2, 353160, Note_on_c, 0, 80, 0
2, 353160, Note_on_c, 0, 79, 115
2, 353220, Note_on_c, 0, 79, 0
2, 353220, Note_on_c, 0, 77, 115
2, 353280, Note_on_c, 0, 77, 0
2, 353280, Note_on_c, 0, 67, 115
2, 353280, Note_on_c, 0, 76, 115
2, 353340, Note_on_c, 0, 76, 0
2, 353340, Note_on_c, 0, 79, 115
2, 353400, Note_on_c, 0, 79, 0
2, 353400, Note_on_c, 0, 77, 115
2, 353460, Note_on_c, 0, 77, 0
2, 353460, Note_on_c, 0, 76, 115
2, 353520, Note_on_c, 0, 76, 0
2, 353520, Note_on_c, 0, 74, 115
2, 353580, Note_on_c, 0, 74, 0
2, 353580, Note_on_c, 0, 72, 115
2, 353640, Note_on_c, 0, 72, 0
2, 353640, Note_on_c, 0, 67, 0
2, 353640, Note_on_c, 0, 70, 0
2, 353640, Note_on_c, 0, 65, 115
2, 353640, Note_on_c, 0, 68, 115
2, 353640, Note_on_c, 0, 77, 115
2, 354000, Note_on_c, 0, 68, 0
2, 354000, Note_on_c, 0, 65, 0
2, 354000, Note_on_c, 0, 67, 115
2, 354000, Note_on_c, 0, 72, 115
2, 354360, Note_on_c, 0, 72, 0
2, 354360, Note_on_c, 0, 77, 0
2, 354360, Note_on_c, 0, 76, 115
2, 354360, Note_on_c, 0, 70, 115
2, 354720, Note_on_c, 0, 70, 0
2, 354720, Note_on_c, 0, 76, 0
2, 354720, Note_on_c, 0, 67, 0
2, 354720, Note_on_c, 0, 68, 115
2, 354720, Note_on_c, 0, 65, 115
2, 354720, Note_on_c, 0, 77, 115
2, 355080, Note_on_c, 0, 77, 0
2, 355080, Note_on_c, 0, 65, 0
2, 355080, Note_on_c, 0, 73, 115
2, 355440, Note_on_c, 0, 68, 0
2, 355440, Note_on_c, 0, 67, 115
2, 355800, Note_on_c, 0, 73, 0
2, 355800, Note_on_c, 0, 75, 115
2, 355800, Note_on_c, 0, 72, 115
2, 356160, Note_on_c, 0, 67, 0
2, 356160, Note_on_c, 0, 65, 115
2, 356520, Note_on_c, 0, 72, 0
2, 356520, Note_on_c, 0, 75, 0
2, 356520, Note_on_c, 0, 70, 115
2, 356520, Note_on_c, 0, 73, 115
2, 356880, Note_on_c, 0, 65, 0
2, 356880, Note_on_c, 0, 63, 115
2, 357240, Note_on_c, 0, 63, 0
2, 357240, Note_on_c, 0, 73, 0
2, 357240, Note_on_c, 0, 70, 0
2, 357240, Note_on_c, 0, 72, 115
2, 357240, Note_on_c, 0, 68, 115
2, 357240, Note_on_c, 0, 68, 115
2, 357600, Note_on_c, 0, 68, 0
2, 357600, Note_on_c, 0, 72, 0
2, 357600, Note_on_c, 0, 70, 115
2, 357720, Note_on_c, 0, 70, 0
2, 357720, Note_on_c, 0, 72, 115
2, 357780, Note_on_c, 0, 72, 0
2, 357780, Note_on_c, 0, 74, 115
2, 357840, Note_on_c, 0, 74, 0
2, 357840, Note_on_c, 0, 75, 115
2, 357900, Note_on_c, 0, 75, 0
2, 357900, Note_on_c, 0, 77, 115
2, 357960, Note_on_c, 0, 77, 0
2, 357960, Note_on_c, 0, 68, 0
2, 357960, Note_on_c, 0, 79, 115
2, 357960, Note_on_c, 0, 67, 115
2, 358020, Note_on_c, 0, 79, 0
2, 358020, Note_on_c, 0, 80, 115
2, 358080, Note_on_c, 0, 80, 0
2, 358080, Note_on_c, 0, 79, 115
2, 358140, Note_on_c, 0, 79, 0
2, 358140, Note_on_c, 0, 77, 115
2, 358200, Note_on_c, 0, 77, 0
2, 358200, Note_on_c, 0, 75, 115
2, 358260, Note_on_c, 0, 75, 0
2, 358260, Note_on_c, 0, 74, 115
2, 358320, Note_on_c, 0, 74, 0
2, 358320, Note_on_c, 0, 72, 115
2, 358440, Note_on_c, 0, 72, 0
2, 358440, Note_on_c, 0, 74, 115
2, 358500, Note_on_c, 0, 74, 0
2, 358500, Note_on_c, 0, 75, 115
2, 358560, Note_on_c, 0, 75, 0
2, 358560, Note_on_c, 0, 77, 115
2, 358620, Note_on_c, 0, 77, 0
2, 358620, Note_on_c, 0, 79, 115
2, 358680, Note_on_c, 0, 79, 0
2, 358680, Note_on_c, 0, 67, 0
2, 358680, Note_on_c, 0, 65, 115
2, 358680, Note_on_c, 0, 80, 115
2, 358740, Note_on_c, 0, 80, 0
2, 358740, Note_on_c, 0, 79, 115
2, 358800, Note_on_c, 0, 79, 0
2, 358800, Note_on_c, 0, 77, 115
2, 358860, Note_on_c, 0, 77, 0
2, 358860, Note_on_c, 0, 75, 115
2, 358920, Note_on_c, 0, 75, 0
2, 358920, Note_on_c, 0, 74, 115
2, 358980, Note_on_c, 0, 74, 0
2, 358980, Note_on_c, 0, 72, 115
2, 359040, Note_on_c, 0, 72, 0
2, 359040, Note_on_c, 0, 71, 115
2, 359100, Note_on_c, 0, 71, 0
2, 359100, Note_on_c, 0, 74, 115
2, 359160, Note_on_c, 0, 74, 0
2, 359160, Note_on_c, 0, 72, 115
2, 359220, Note_on_c, 0, 72, 0
2, 359220, Note_on_c, 0, 71, 115
2, 359280, Note_on_c, 0, 71, 0
2, 359280, Note_on_c, 0, 69, 115
2, 359340, Note_on_c, 0, 69, 0
2, 359340, Note_on_c, 0, 67, 115
2, 359400, Note_on_c, 0, 67, 0
2, 359400, Note_on_c, 0, 65, 0
2, 359400, Note_on_c, 0, 75, 115
2, 359400, Note_on_c, 0, 63, 115
2, 359760, Note_on_c, 0, 63, 0
2, 359760, Note_on_c, 0, 75, 0
2, 359760, Note_on_c, 0, 74, 115
2, 359760, Note_on_c, 0, 65, 115
2, 359880, Note_on_c, 0, 65, 0
2, 359880, Note_on_c, 0, 68, 115
2, 359940, Note_on_c, 0, 68, 0
2, 359940, Note_on_c, 0, 67, 115
2, 360000, Note_on_c, 0, 67, 0
2, 360000, Note_on_c, 0, 68, 115
2, 360060, Note_on_c, 0, 68, 0
2, 360060, Note_on_c, 0, 65, 115
2, 360120, Note_on_c, 0, 65, 0
2, 360120, Note_on_c, 0, 62, 115
2, 360240, Note_on_c, 0, 62, 0
2, 360240, Note_on_c, 0, 67, 115
2, 360840, Note_on_c, 0, 67, 0
2, 360840, Note_on_c, 0, 74, 0
2, 360840, Note_on_c, 0, 72, 115
2, 360900, Note_on_c, 0, 72, 0
2, 360900, Note_on_c, 0, 67, 115
2, 360960, Note_on_c, 0, 67, 0
2, 360960, Note_on_c, 0, 69, 115
2, 361020, Note_on_c, 0, 69, 0
2, 361020, Note_on_c, 0, 71, 115
2, 361080, Note_on_c, 0, 71, 0
2, 361080, Note_on_c, 0, 72, 115
2, 361140, Note_on_c, 0, 72, 0
2, 361140, Note_on_c, 0, 74, 115
2, 361200, Note_on_c, 0, 74, 0
2, 361200, Note_on_c, 0, 75, 115
2, 361680, Note_on_c, 0, 75, 0
2, 361680, Note_on_c, 0, 74, 115
2, 361800, Note_on_c, 0, 74, 0
2, 361800, Note_on_c, 0, 75, 115
2, 361920, Note_on_c, 0, 75, 0
2, 361920, Note_on_c, 0, 68, 115
2, 362040, Note_on_c, 0, 68, 0
2, 362040, Note_on_c, 0, 72, 115
2, 362100, Note_on_c, 0, 72, 0
2, 362100, Note_on_c, 0, 70, 115
2, 362160, Note_on_c, 0, 70, 0
2, 362160, Note_on_c, 0, 72, 115
2, 362220, Note_on_c, 0, 72, 0
2, 362220, Note_on_c, 0, 68, 115
2, 362280, Note_on_c, 0, 68, 0
2, 362280, Note_on_c, 0, 69, 115
2, 362280, Note_on_c, 0, 74, 115
2, 362340, Note_on_c, 0, 74, 0
2, 362340, Note_on_c, 0, 72, 115
2, 362400, Note_on_c, 0, 72, 0
2, 362400, Note_on_c, 0, 74, 115
2, 362460, Note_on_c, 0, 74, 0
2, 362460, Note_on_c, 0, 75, 115
2, 362520, Note_on_c, 0, 75, 0
2, 362520, Note_on_c, 0, 74, 115
2, 362580, Note_on_c, 0, 74, 0
2, 362580, Note_on_c, 0, 72, 115
2, 362640, Note_on_c, 0, 72, 0
2, 362640, Note_on_c, 0, 70, 115
2, 363000, Note_on_c, 0, 70, 0
2, 363000, Note_on_c, 0, 69, 0
2, 363000, Note_on_c, 0, 63, 115
2, 363000, Note_on_c, 0, 67, 115
2, 363060, Note_on_c, 0, 70, 115
2, 363120, Note_on_c, 0, 70, 0
2, 363120, Note_on_c, 0, 72, 115
2, 363180, Note_on_c, 0, 72, 0
2, 363180, Note_on_c, 0, 74, 115
2, 363240, Note_on_c, 0, 74, 0
2, 363240, Note_on_c, 0, 75, 115
2, 363300, Note_on_c, 0, 75, 0
2, 363300, Note_on_c, 0, 77, 115
2, 363360, Note_on_c, 0, 77, 0
2, 363360, Note_on_c, 0, 67, 0
2, 363360, Note_on_c, 0, 63, 0
2, 363360, Note_on_c, 0, 79, 115
2, 363360, Note_on_c, 0, 72, 115
2, 363780, Note_on_c, 0, 79, 0
2, 363780, Note_on_c, 0, 82, 115
2, 363840, Note_on_c, 0, 82, 0
2, 363840, Note_on_c, 0, 80, 115
2, 363900, Note_on_c, 0, 80, 0
2, 363900, Note_on_c, 0, 79, 115
2, 363960, Note_on_c, 0, 79, 0
2, 363960, Note_on_c, 0, 77, 115
2, 364020, Note_on_c, 0, 77, 0
2, 364020, Note_on_c, 0, 75, 115
2, 364080, Note_on_c, 0, 75, 0
2, 364080, Note_on_c, 0, 72, 0
2, 364080, Note_on_c, 0, 74, 115
2, 364080, Note_on_c, 0, 70, 115
2, 364140, Note_on_c, 0, 74, 0
2, 364140, Note_on_c, 0, 72, 115
2, 364200, Note_on_c, 0, 72, 0
2, 364200, Note_on_c, 0, 74, 115
2, 364260, Note_on_c, 0, 74, 0
2, 364260, Note_on_c, 0, 77, 115
2, 364320, Note_on_c, 0, 77, 0
2, 364320, Note_on_c, 0, 75, 115
2, 364380, Note_on_c, 0, 75, 0
2, 364380, Note_on_c, 0, 74, 115
2, 364440, Note_on_c, 0, 74, 0
2, 364440, Note_on_c, 0, 70, 0
2, 364440, Note_on_c, 0, 75, 115
2, 364440, Note_on_c, 0, 75, 115
2, 364500, Note_on_c, 0, 75, 0
2, 364500, Note_on_c, 0, 74, 115
2, 364560, Note_on_c, 0, 74, 0
2, 364560, Note_on_c, 0, 75, 115
2, 364620, Note_on_c, 0, 75, 0
2, 364620, Note_on_c, 0, 79, 115
2, 364680, Note_on_c, 0, 79, 0
2, 364680, Note_on_c, 0, 77, 115
2, 364740, Note_on_c, 0, 77, 0
2, 364740, Note_on_c, 0, 75, 115
2, 364800, Note_on_c, 0, 75, 0
2, 364800, Note_on_c, 0, 75, 0
2, 364800, Note_on_c, 0, 75, 115
2, 364800, Note_on_c, 0, 80, 115
2, 365160, Note_on_c, 0, 75, 0
2, 365160, Note_on_c, 0, 74, 115
2, 365520, Note_on_c, 0, 74, 0
2, 365520, Note_on_c, 0, 80, 0
2, 365520, Note_on_c, 0, 75, 115
2, 365520, Note_on_c, 0, 79, 115
2, 365580, Note_on_c, 0, 79, 0
2, 365580, Note_on_c, 0, 80, 115
2, 365640, Note_on_c, 0, 80, 0
2, 365640, Note_on_c, 0, 82, 115
2, 365700, Note_on_c, 0, 82, 0
2, 365700, Note_on_c, 0, 80, 115
2, 365760, Note_on_c, 0, 80, 0
2, 365760, Note_on_c, 0, 82, 115
2, 365820, Note_on_c, 0, 82, 0
2, 365820, Note_on_c, 0, 79, 115
2, 365880, Note_on_c, 0, 79, 0
2, 365880, Note_on_c, 0, 75, 0
2, 365880, Note_on_c, 0, 84, 115
2, 365880, Note_on_c, 0, 75, 115
2, 365940, Note_on_c, 0, 75, 0
2, 365940, Note_on_c, 0, 74, 115
2, 366000, Note_on_c, 0, 74, 0
2, 366000, Note_on_c, 0, 75, 115
2, 366060, Note_on_c, 0, 75, 0
2, 366060, Note_on_c, 0, 77, 115
2, 366120, Note_on_c, 0, 77, 0
2, 366120, Note_on_c, 0, 74, 115
2, 366180, Note_on_c, 0, 74, 0
2, 366180, Note_on_c, 0, 75, 115
2, 366240, Note_on_c, 0, 75, 0
2, 366240, Note_on_c, 0, 77, 115
2, 366240, Note_on_c, 0, 62, 115
2, 366600, Note_on_c, 0, 84, 0
2, 366600, Note_on_c, 0, 82, 115
2, 366660, Note_on_c, 0, 77, 0
2, 366660, Note_on_c, 0, 75, 115
2, 366720, Note_on_c, 0, 75, 0
2, 366720, Note_on_c, 0, 77, 115
2, 366780, Note_on_c, 0, 77, 0
2, 366780, Note_on_c, 0, 79, 115
2, 366840, Note_on_c, 0, 79, 0
2, 366840, Note_on_c, 0, 77, 115
2, 366900, Note_on_c, 0, 77, 0
2, 366900, Note_on_c, 0, 79, 115
2, 366960, Note_on_c, 0, 79, 0
2, 366960, Note_on_c, 0, 62, 0
2, 366960, Note_on_c, 0, 60, 115
2, 366960, Note_on_c, 0, 75, 115
2, 367320, Note_on_c, 0, 82, 0
2, 367320, Note_on_c, 0, 80, 115
2, 367380, Note_on_c, 0, 75, 0
2, 367380, Note_on_c, 0, 74, 115
2, 367440, Note_on_c, 0, 74, 0
2, 367440, Note_on_c, 0, 75, 115
2, 367500, Note_on_c, 0, 75, 0
2, 367500, Note_on_c, 0, 77, 115
2, 367560, Note_on_c, 0, 77, 0
2, 367560, Note_on_c, 0, 75, 115
2, 367620, Note_on_c, 0, 75, 0
2, 367620, Note_on_c, 0, 77, 115
2, 367680, Note_on_c, 0, 77, 0
2, 367680, Note_on_c, 0, 60, 0
2, 367680, Note_on_c, 0, 74, 115
2, 367680, Note_on_c, 0, 80, 115
2, 367740, Note_on_c, 0, 74, 0
2, 367740, Note_on_c, 0, 75, 115
2, 367800, Note_on_c, 0, 75, 0
2, 367800, Note_on_c, 0, 77, 115
2, 367860, Note_on_c, 0, 77, 0
2, 367860, Note_on_c, 0, 75, 115
2, 367920, Note_on_c, 0, 75, 0
2, 367920, Note_on_c, 0, 74, 115
2, 367980, Note_on_c, 0, 74, 0
2, 367980, Note_on_c, 0, 72, 115
2, 368040, Note_on_c, 0, 72, 0
2, 368040, Note_on_c, 0, 80, 0
2, 368040, Note_on_c, 0, 80, 0
2, 368040, Note_on_c, 0, 70, 115
2, 368040, Note_on_c, 0, 79, 115
2, 368160, Note_on_c, 0, 79, 0
2, 368160, Note_on_c, 0, 70, 0
2, 368160, Note_on_c, 0, 68, 115
2, 368160, Note_on_c, 0, 77, 115
2, 368280, Note_on_c, 0, 77, 0
2, 368280, Note_on_c, 0, 68, 0
2, 368280, Note_on_c, 0, 70, 115
2, 368280, Note_on_c, 0, 79, 115
2, 368400, Note_on_c, 0, 79, 0
2, 368400, Note_on_c, 0, 70, 0
2, 368400, Note_on_c, 0, 67, 115
2, 368400, Note_on_c, 0, 72, 115
2, 368520, Note_on_c, 0, 72, 0
2, 368520, Note_on_c, 0, 75, 115
2, 368580, Note_on_c, 0, 75, 0
2, 368580, Note_on_c, 0, 74, 115
2, 368640, Note_on_c, 0, 74, 0
2, 368640, Note_on_c, 0, 75, 115
2, 368700, Note_on_c, 0, 75, 0
2, 368700, Note_on_c, 0, 72, 115
2, 368760, Note_on_c, 0, 72, 0
2, 368760, Note_on_c, 0, 67, 0
2, 368760, Note_on_c, 0, 68, 115
2, 368760, Note_on_c, 0, 77, 115
2, 368880, Note_on_c, 0, 77, 0
2, 368880, Note_on_c, 0, 68, 0
2, 368880, Note_on_c, 0, 67, 115
2, 368880, Note_on_c, 0, 75, 115
2, 369000, Note_on_c, 0, 75, 0
2, 369000, Note_on_c, 0, 67, 0
2, 369000, Note_on_c, 0, 77, 115
2, 369000, Note_on_c, 0, 68, 115
2, 369120, Note_on_c, 0, 68, 0
2, 369120, Note_on_c, 0, 77, 0
2, 369120, Note_on_c, 0, 65, 115
2, 369120, Note_on_c, 0, 70, 115
2, 369240, Note_on_c, 0, 70, 0
2, 369240, Note_on_c, 0, 74, 115
2, 369300, Note_on_c, 0, 74, 0
2, 369300, Note_on_c, 0, 72, 115
2, 369360, Note_on_c, 0, 72, 0
2, 369360, Note_on_c, 0, 74, 115
2, 369420, Note_on_c, 0, 74, 0
2, 369420, Note_on_c, 0, 70, 115
2, 369480, Note_on_c, 0, 70, 0
2, 369480, Note_on_c, 0, 65, 0
2, 369480, Note_on_c, 0, 67, 115
2, 369480, Note_on_c, 0, 70, 115
2, 369480, Note_on_c, 0, 75, 115
2, 369600, Note_on_c, 0, 75, 0
2, 369840, Note_on_c, 0, 70, 115
2, 369900, Note_on_c, 0, 70, 0
2, 369900, Note_on_c, 0, 73, 115
2, 369960, Note_on_c, 0, 73, 0
2, 369960, Note_on_c, 0, 72, 115
2, 370020, Note_on_c, 0, 72, 0
2, 370020, Note_on_c, 0, 70, 115
2, 370080, Note_on_c, 0, 70, 0
2, 370080, Note_on_c, 0, 68, 115
2, 370140, Note_on_c, 0, 68, 0
2, 370140, Note_on_c, 0, 67, 115
2, 370200, Note_on_c, 0, 70, 0
2, 370200, Note_on_c, 0, 67, 0
2, 370200, Note_on_c, 0, 75, 115
2, 370200, Note_on_c, 0, 68, 115
2, 370560, Note_on_c, 0, 68, 0
2, 370560, Note_on_c, 0, 67, 0
2, 370560, Note_on_c, 0, 65, 115
2, 370560, Note_on_c, 0, 68, 115
2, 370920, Note_on_c, 0, 75, 0
2, 370920, Note_on_c, 0, 74, 115
2, 371280, Note_on_c, 0, 74, 0
2, 371280, Note_on_c, 0, 68, 0
2, 371280, Note_on_c, 0, 65, 0
2, 371280, Note_on_c, 0, 79, 115
2, 371340, Note_on_c, 0, 77, 115
2, 371400, Note_on_c, 0, 77, 0
2, 371400, Note_on_c, 0, 75, 115
2, 371460, Note_on_c, 0, 75, 0
2, 371460, Note_on_c, 0, 73, 115
2, 371520, Note_on_c, 0, 73, 0
2, 371520, Note_on_c, 0, 72, 115
2, 371580, Note_on_c, 0, 72, 0
2, 371580, Note_on_c, 0, 70, 115
2, 371640, Note_on_c, 0, 70, 0
2, 371640, Note_on_c, 0, 72, 115
2, 371700, Note_on_c, 0, 70, 115
2, 371760, Note_on_c, 0, 70, 0
2, 371760, Note_on_c, 0, 68, 115
2, 371820, Note_on_c, 0, 68, 0
2, 371820, Note_on_c, 0, 67, 115
2, 371880, Note_on_c, 0, 67, 0
2, 371880, Note_on_c, 0, 65, 115
2, 371940, Note_on_c, 0, 65, 0
2, 371940, Note_on_c, 0, 63, 115
2, 372000, Note_on_c, 0, 63, 0
2, 372000, Note_on_c, 0, 72, 0
2, 372000, Note_on_c, 0, 79, 0
2, 372000, Note_on_c, 0, 70, 115
2, 372000, Note_on_c, 0, 74, 115
2, 372000, Note_on_c, 0, 77, 115
2, 372360, Note_on_c, 0, 77, 0
2, 372360, Note_on_c, 0, 74, 0
2, 372360, Note_on_c, 0, 70, 0
2, 372360, Note_on_c, 0, 82, 115
2, 372420, Note_on_c, 0, 80, 115
2, 372480, Note_on_c, 0, 80, 0
2, 372480, Note_on_c, 0, 79, 115
2, 372540, Note_on_c, 0, 79, 0
2, 372540, Note_on_c, 0, 77, 115
2, 372600, Note_on_c, 0, 77, 0
2, 372600, Note_on_c, 0, 75, 115
2, 372660, Note_on_c, 0, 75, 0
2, 372660, Note_on_c, 0, 74, 115
2, 372720, Note_on_c, 0, 74, 0
2, 372780, Note_on_c, 0, 74, 115
2, 372840, Note_on_c, 0, 74, 0
2, 372840, Note_on_c, 0, 72, 115
2, 372900, Note_on_c, 0, 72, 0
2, 372900, Note_on_c, 0, 70, 115
2, 372960, Note_on_c, 0, 70, 0
2, 372960, Note_on_c, 0, 69, 115
2, 373020, Note_on_c, 0, 69, 0
2, 373020, Note_on_c, 0, 67, 115
2, 373080, Note_on_c, 0, 67, 0
2, 373080, Note_on_c, 0, 82, 0
2, 373080, Note_on_c, 0, 81, 115
2, 373080, Note_on_c, 0, 72, 115
2, 373440, Note_on_c, 0, 72, 0
2, 373440, Note_on_c, 0, 81, 0
2, 373440, Note_on_c, 0, 74, 115
2, 373440, Note_on_c, 0, 82, 115
2, 373500, Note_on_c, 0, 74, 0
2, 373500, Note_on_c, 0, 70, 115
2, 373560, Note_on_c, 0, 70, 0
2, 373560, Note_on_c, 0, 72, 115
2, 373620, Note_on_c, 0, 72, 0
2, 373620, Note_on_c, 0, 74, 115
2, 373680, Note_on_c, 0, 74, 0
2, 373680, Note_on_c, 0, 75, 115
2, 373740, Note_on_c, 0, 75, 0
2, 373740, Note_on_c, 0, 77, 115
2, 373800, Note_on_c, 0, 77, 0
2, 373800, Note_on_c, 0, 79, 115
2, 373920, Note_on_c, 0, 79, 0
2, 373920, Note_on_c, 0, 77, 115
2, 374040, Note_on_c, 0, 77, 0
2, 374040, Note_on_c, 0, 79, 115
2, 374160, Note_on_c, 0, 79, 0
2, 374160, Note_on_c, 0, 72, 115
2, 374280, Note_on_c, 0, 72, 0
2, 374280, Note_on_c, 0, 75, 115
2, 374340, Note_on_c, 0, 75, 0
2, 374340, Note_on_c, 0, 74, 115
2, 374400, Note_on_c, 0, 74, 0
2, 374400, Note_on_c, 0, 75, 115
2, 374460, Note_on_c, 0, 75, 0
2, 374460, Note_on_c, 0, 72, 115
2, 374520, Note_on_c, 0, 72, 0
2, 374520, Note_on_c, 0, 82, 0
2, 374520, Note_on_c, 0, 80, 115
2, 374520, Note_on_c, 0, 77, 115
2, 374640, Note_on_c, 0, 77, 0
2, 374640, Note_on_c, 0, 75, 115
2, 374760, Note_on_c, 0, 75, 0
2, 374760, Note_on_c, 0, 77, 115
2, 374880, Note_on_c, 0, 77, 0
2, 374880, Note_on_c, 0, 70, 115
2, 375000, Note_on_c, 0, 70, 0
2, 375000, Note_on_c, 0, 74, 115
2, 375060, Note_on_c, 0, 74, 0
2, 375060, Note_on_c, 0, 72, 115
2, 375120, Note_on_c, 0, 72, 0
2, 375120, Note_on_c, 0, 74, 115
2, 375180, Note_on_c, 0, 74, 0
2, 375180, Note_on_c, 0, 70, 115
2, 375240, Note_on_c, 0, 70, 0
2, 375240, Note_on_c, 0, 80, 0
2, 375240, Note_on_c, 0, 75, 115
2, 375240, Note_on_c, 0, 72, 115
2, 375240, Note_on_c, 0, 79, 115
2, 375360, Note_on_c, 0, 72, 0
2, 375360, Note_on_c, 0, 70, 115
2, 375480, Note_on_c, 0, 70, 0
2, 375480, Note_on_c, 0, 72, 115
2, 375600, Note_on_c, 0, 72, 0
2, 375600, Note_on_c, 0, 79, 0
2, 375600, Note_on_c, 0, 80, 115
2, 375600, Note_on_c, 0, 65, 115
2, 375720, Note_on_c, 0, 65, 0
2, 375720, Note_on_c, 0, 68, 115
2, 375780, Note_on_c, 0, 68, 0
2, 375780, Note_on_c, 0, 67, 115
2, 375840, Note_on_c, 0, 67, 0
2, 375840, Note_on_c, 0, 68, 115
2, 375900, Note_on_c, 0, 68, 0
2, 375900, Note_on_c, 0, 65, 115
2, 375960, Note_on_c, 0, 65, 0
2, 375960, Note_on_c, 0, 75, 0
2, 375960, Note_on_c, 0, 74, 80
2, 375960, Note_on_c, 0, 70, 115
2, 376080, Note_on_c, 0, 70, 0
2, 376080, Note_on_c, 0, 68, 115
2, 376200, Note_on_c, 0, 68, 0
2, 376200, Note_on_c, 0, 70, 115
2, 376248, Note_on_c, 0, 74, 0
2, 376320, Note_on_c, 0, 70, 0
2, 376320, Note_on_c, 0, 80, 0
2, 376320, Note_on_c, 0, 75, 115
2, 376320, Note_on_c, 0, 63, 115
2, 376320, Note_on_c, 0, 79, 115
2, 376380, Note_on_c, 0, 75, 0
2, 376380, Note_on_c, 0, 77, 115
2, 376440, Note_on_c, 0, 77, 0
2, 376440, Note_on_c, 0, 63, 0
2, 376440, Note_on_c, 0, 75, 115
2, 376440, Note_on_c, 0, 67, 115
2, 376500, Note_on_c, 0, 67, 0
2, 376500, Note_on_c, 0, 75, 0
2, 376500, Note_on_c, 0, 74, 115
2, 376500, Note_on_c, 0, 65, 115
2, 376560, Note_on_c, 0, 65, 0
2, 376560, Note_on_c, 0, 74, 0
2, 376560, Note_on_c, 0, 75, 115
2, 376560, Note_on_c, 0, 67, 115
2, 376620, Note_on_c, 0, 67, 0
2, 376620, Note_on_c, 0, 75, 0
2, 376620, Note_on_c, 0, 79, 115
2, 376620, Note_on_c, 0, 63, 115
2, 376680, Note_on_c, 0, 63, 0
2, 376680, Note_on_c, 0, 79, 0
2, 376680, Note_on_c, 0, 79, 115
2, 376680, Note_on_c, 0, 72, 115
2, 376680, Note_on_c, 0, 68, 115
2, 376740, Note_on_c, 0, 79, 0
2, 376740, Note_on_c, 0, 82, 115
2, 376800, Note_on_c, 0, 82, 0
2, 376800, Note_on_c, 0, 80, 115
2, 376860, Note_on_c, 0, 80, 0
2, 376860, Note_on_c, 0, 79, 115
2, 376920, Note_on_c, 0, 79, 0
2, 376920, Note_on_c, 0, 77, 115
2, 376980, Note_on_c, 0, 77, 0
2, 376980, Note_on_c, 0, 75, 115
2, 377040, Note_on_c, 0, 75, 0
2, 377040, Note_on_c, 0, 79, 0
2, 377040, Note_on_c, 0, 72, 0
2, 377040, Note_on_c, 0, 74, 115
2, 377040, Note_on_c, 0, 70, 115
2, 377100, Note_on_c, 0, 74, 0
2, 377100, Note_on_c, 0, 75, 115
2, 377160, Note_on_c, 0, 75, 0
2, 377160, Note_on_c, 0, 77, 115
2, 377220, Note_on_c, 0, 77, 0
2, 377220, Note_on_c, 0, 75, 115
2, 377280, Note_on_c, 0, 75, 0
2, 377280, Note_on_c, 0, 77, 115
2, 377340, Note_on_c, 0, 77, 0
2, 377340, Note_on_c, 0, 74, 115
2, 377400, Note_on_c, 0, 74, 0
2, 377400, Note_on_c, 0, 70, 0
2, 377400, Note_on_c, 0, 68, 0
2, 377400, Note_on_c, 0, 70, 115
2, 377400, Note_on_c, 0, 67, 115
2, 377400, Note_on_c, 0, 79, 115
2, 377460, Note_on_c, 0, 79, 0
2, 377460, Note_on_c, 0, 80, 115
2, 377520, Note_on_c, 0, 80, 0
2, 377520, Note_on_c, 0, 79, 115
2, 377580, Note_on_c, 0, 79, 0
2, 377580, Note_on_c, 0, 77, 115
2, 377640, Note_on_c, 0, 77, 0
2, 377640, Note_on_c, 0, 75, 115
2, 377700, Note_on_c, 0, 75, 0
2, 377700, Note_on_c, 0, 74, 115
2, 377760, Note_on_c, 0, 74, 0
2, 377760, Note_on_c, 0, 70, 0
2, 377760, Note_on_c, 0, 72, 115
2, 377820, Note_on_c, 0, 72, 0
2, 377820, Note_on_c, 0, 74, 115
2, 377880, Note_on_c, 0, 74, 0
2, 377880, Note_on_c, 0, 75, 115
2, 377940, Note_on_c, 0, 75, 0
2, 377940, Note_on_c, 0, 74, 115
2, 378000, Note_on_c, 0, 74, 0
2, 378000, Note_on_c, 0, 75, 115
2, 378060, Note_on_c, 0, 75, 0
2, 378060, Note_on_c, 0, 72, 115
2, 378120, Note_on_c, 0, 72, 0
2, 378120, Note_on_c, 0, 67, 0
2, 378120, Note_on_c, 0, 77, 127
2, 378120, Note_on_c, 0, 65, 127
2, 378180, Note_on_c, 0, 77, 0
2, 378180, Note_on_c, 0, 79, 127
2, 378240, Note_on_c, 0, 79, 0
2, 378240, Note_on_c, 0, 77, 127
2, 378300, Note_on_c, 0, 77, 0
2, 378300, Note_on_c, 0, 75, 127
2, 378360, Note_on_c, 0, 75, 0
2, 378360, Note_on_c, 0, 65, 0
2, 378360, Note_on_c, 0, 74, 127
2, 378360, Note_on_c, 0, 63, 127
2, 378420, Note_on_c, 0, 74, 0
2, 378420, Note_on_c, 0, 72, 127
2, 378480, Note_on_c, 0, 72, 0
2, 378480, Note_on_c, 0, 63, 0
2, 378480, Note_on_c, 0, 70, 127
2, 378480, Note_on_c, 0, 62, 127
2, 378540, Note_on_c, 0, 62, 0
2, 378540, Note_on_c, 0, 70, 0
2, 378540, Note_on_c, 0, 72, 127
2, 378540, Note_on_c, 0, 63, 127
2, 378600, Note_on_c, 0, 63, 0
2, 378600, Note_on_c, 0, 72, 0
2, 378600, Note_on_c, 0, 74, 127
2, 378600, Note_on_c, 0, 65, 127
2, 378660, Note_on_c, 0, 65, 0
2, 378660, Note_on_c, 0, 74, 0
2, 378660, Note_on_c, 0, 72, 127
2, 378660, Note_on_c, 0, 63, 127
2, 378720, Note_on_c, 0, 63, 0
2, 378720, Note_on_c, 0, 72, 0
2, 378720, Note_on_c, 0, 74, 127
2, 378720, Note_on_c, 0, 65, 127
2, 378780, Note_on_c, 0, 65, 0
2, 378780, Note_on_c, 0, 74, 0
2, 378780, Note_on_c, 0, 70, 127
2, 378780, Note_on_c, 0, 62, 127
2, 378840, Note_on_c, 0, 62, 0
2, 378840, Note_on_c, 0, 70, 0
2, 378840, Note_on_c, 0, 67, 127
2, 378840, Note_on_c, 0, 70, 127
2, 378840, Note_on_c, 0, 75, 127
2, 379560, Note_on_c, 0, 70, 0
2, 379560, Note_on_c, 0, 67, 0
2, 379560, Note_on_c, 0, 68, 127
2, 379560, Note_on_c, 0, 65, 127
2, 379560, Note_on_c, 0, 68, 127
2, 379800, Note_on_c, 0, 65, 0
2, 379800, Note_on_c, 0, 68, 0
2, 379800, Note_on_c, 0, 63, 127
2, 379920, Note_on_c, 0, 63, 0
2, 379920, Note_on_c, 0, 75, 0
2, 379920, Note_on_c, 0, 70, 127
2, 379920, Note_on_c, 0, 77, 127
2, 379920, Note_on_c, 0, 68, 127
2, 380280, Note_on_c, 0, 68, 0
2, 380280, Note_on_c, 0, 77, 0
2, 380280, Note_on_c, 0, 68, 0
2, 380280, Note_on_c, 0, 67, 127
2, 380280, Note_on_c, 0, 75, 127
2, 380640, Note_on_c, 0, 75, 0
2, 380640, Note_on_c, 0, 67, 0
2, 380640, Note_on_c, 0, 70, 0
2, 380640, Note_on_c, 0, 77, 127
2, 380640, Note_on_c, 0, 80, 127
2, 380640, Note_on_c, 0, 68, 127
2, 381000, Note_on_c, 0, 68, 0
2, 381000, Note_on_c, 0, 70, 127
2, 381420, Note_on_c, 0, 70, 0
2, 381420, Note_on_c, 0, 62, 127
2, 381480, Note_on_c, 0, 62, 0
2, 381480, Note_on_c, 0, 80, 0
2, 381480, Note_on_c, 0, 77, 0
2, 381480, Note_on_c, 0, 75, 127
2, 381480, Note_on_c, 0, 79, 127
2, 381480, Note_on_c, 0, 63, 127
2, 381540, Note_on_c, 0, 63, 0
2, 381540, Note_on_c, 0, 65, 127
2, 381600, Note_on_c, 0, 65, 0
2, 381600, Note_on_c, 0, 79, 0
2, 381600, Note_on_c, 0, 75, 0
2, 381600, Note_on_c, 0, 74, 127
2, 381600, Note_on_c, 0, 77, 127
2, 381600, Note_on_c, 0, 67, 127
2, 381660, Note_on_c, 0, 67, 0
2, 381660, Note_on_c, 0, 68, 127
2, 381720, Note_on_c, 0, 68, 0
2, 381720, Note_on_c, 0, 70, 127
2, 381840, Note_on_c, 0, 77, 0
2, 381840, Note_on_c, 0, 74, 0
2, 381840, Note_on_c, 0, 75, 127
2, 381960, Note_on_c, 0, 75, 0
2, 381960, Note_on_c, 0, 70, 0
2, 381960, Note_on_c, 0, 68, 127
2, 381960, Note_on_c, 0, 77, 127
2, 381960, Note_on_c, 0, 72, 127
2, 382080, Note_on_c, 0, 72, 0
2, 382080, Note_on_c, 0, 77, 0
2, 382080, Note_on_c, 0, 68, 0
2, 382080, Note_on_c, 0, 70, 127
2, 382080, Note_on_c, 0, 67, 127
2, 382110, Note_on_c, 0, 70, 0
2, 382110, Note_on_c, 0, 68, 127
2, 382140, Note_on_c, 0, 68, 0
2, 382140, Note_on_c, 0, 70, 127
2, 382440, Note_on_c, 0, 70, 0
2, 382440, Note_on_c, 0, 67, 0
2, 382440, Note_on_c, 0, 65, 127
2, 382440, Note_on_c, 0, 68, 127
2, 382440, Note_on_c, 0, 75, 127
2, 382500, Note_on_c, 0, 75, 0
2, 382500, Note_on_c, 0, 74, 127
2, 382560, Note_on_c, 0, 74, 0
2, 382560, Note_on_c, 0, 72, 127
2, 382620, Note_on_c, 0, 72, 0
2, 382620, Note_on_c, 0, 74, 127
2, 382650, Note_on_c, 0, 74, 0
2, 382650, Note_on_c, 0, 75, 127
2, 382680, Note_on_c, 0, 75, 0
2, 382680, Note_on_c, 0, 74, 127
2, 382710, Note_on_c, 0, 74, 0
2, 382710, Note_on_c, 0, 75, 127
2, 382740, Note_on_c, 0, 75, 0
2, 382740, Note_on_c, 0, 74, 127
2, 382770, Note_on_c, 0, 74, 0
2, 382770, Note_on_c, 0, 75, 127
2, 382800, Note_on_c, 0, 75, 0
2, 382800, Note_on_c, 0, 74, 127
2, 382830, Note_on_c, 0, 74, 0
2, 382830, Note_on_c, 0, 72, 127
2, 382890, Note_on_c, 0, 72, 0
2, 382890, Note_on_c, 0, 74, 127
2, 383010, Note_on_c, 0, 74, 0
2, 383010, Note_on_c, 0, 68, 0
2, 383010, Note_on_c, 0, 65, 0
2, 383010, Note_on_c, 0, 75, 127
2, 383010, Note_on_c, 0, 67, 127
2, 383010, Note_on_c, 0, 63, 127
2, 383520, Note_on_c, 0, 63, 0
2, 383520, Note_on_c, 0, 67, 0
2, 383520, Note_on_c, 0, 75, 0
2, 383520, End_track
3, 0, Start_track
3, 0, MIDI_port, 0
3, 0, Title_t, "--------------------------------------"
3, 0, Program_c, 1, 19
3, 0, Control_c, 1, 7, 100
3, 0, Control_c, 1, 10, 64
3, 0, Note_on_c, 1, 55, 115
3, 0, Note_on_c, 1, 58, 115
3, 480, Note_on_c, 1, 58, 0
3, 480, Note_on_c, 1, 55, 0
3, 840, Note_on_c, 1, 58, 115
3, 960, Note_on_c, 1, 58, 0
3, 960, Note_on_c, 1, 58, 115
3, 2400, Note_on_c, 1, 58, 0
3, 2760, Note_on_c, 1, 53, 115
3, 2760, Note_on_c, 1, 58, 115
3, 2880, Note_on_c, 1, 58, 0
3, 2880, Note_on_c, 1, 53, 0
3, 2880, Note_on_c, 1, 58, 115
3, 2880, Note_on_c, 1, 51, 115
3, 3840, Note_on_c, 1, 51, 0
3, 3840, Note_on_c, 1, 58, 0
3, 4260, Note_on_c, 1, 55, 115
3, 4320, Note_on_c, 1, 55, 0
3, 4320, Note_on_c, 1, 60, 115
3, 4740, Note_on_c, 1, 55, 115
3, 4800, Note_on_c, 1, 55, 0
3, 5160, Note_on_c, 1, 60, 0
3, 5220, Note_on_c, 1, 60, 115
3, 5280, Note_on_c, 1, 60, 0
3, 5280, Note_on_c, 1, 58, 115
3, 5760, Note_on_c, 1, 55, 115
3, 6120, Note_on_c, 1, 55, 0
3, 6180, Note_on_c, 1, 53, 115
3, 6240, Note_on_c, 1, 53, 0
3, 6240, Note_on_c, 1, 55, 115
3, 6420, Note_on_c, 1, 58, 0
3, 6420, Note_on_c, 1, 57, 115
3, 6480, Note_on_c, 1, 57, 0
3, 6480, Note_on_c, 1, 55, 0
3, 6480, Note_on_c, 1, 55, 115
3, 6660, Note_on_c, 1, 55, 0
3, 6660, Note_on_c, 1, 53, 115
3, 6720, Note_on_c, 1, 53, 0
3, 6720, Note_on_c, 1, 58, 115
3, 7140, Note_on_c, 1, 53, 115
3, 7200, Note_on_c, 1, 53, 0
3, 7200, Note_on_c, 1, 55, 115
3, 7380, Note_on_c, 1, 58, 0
3, 7380, Note_on_c, 1, 62, 115
3, 7440, Note_on_c, 1, 62, 0
3, 7440, Note_on_c, 1, 55, 0
3, 7440, Note_on_c, 1, 60, 115
3, 7620, Note_on_c, 1, 60, 0
3, 7620, Note_on_c, 1, 58, 115
3, 7680, Note_on_c, 1, 58, 0
3, 7680, Note_on_c, 1, 60, 115
3, 8100, Note_on_c, 1, 53, 115
3, 8160, Note_on_c, 1, 53, 0
3, 8160, Note_on_c, 1, 48, 115
3, 8340, Note_on_c, 1, 60, 0
3, 8340, Note_on_c, 1, 58, 115
3, 8400, Note_on_c, 1, 58, 0
3, 8400, Note_on_c, 1, 48, 0
3, 8400, Note_on_c, 1, 57, 115
3, 8580, Note_on_c, 1, 57, 0
3, 8580, Note_on_c, 1, 55, 115
3, 8640, Note_on_c, 1, 55, 0
3, 8640, Note_on_c, 1, 53, 115
3, 9060, Note_on_c, 1, 41, 115
3, 9120, Note_on_c, 1, 41, 0
3, 9300, Note_on_c, 1, 53, 0
3, 9300, Note_on_c, 1, 51, 115
3, 9360, Note_on_c, 1, 51, 0
3, 9360, Note_on_c, 1, 50, 115
3, 9540, Note_on_c, 1, 50, 0
3, 9540, Note_on_c, 1, 48, 115
3, 9540, Note_on_c, 1, 53, 115
3, 9600, Note_on_c, 1, 53, 0
3, 9600, Note_on_c, 1, 48, 0
3, 9600, Note_on_c, 1, 46, 115
3, 9600, Note_on_c, 1, 53, 115
3, 10080, Note_on_c, 1, 53, 0
3, 10080, Note_on_c, 1, 46, 0
3, 10260, Note_on_c, 1, 53, 115
3, 10320, Note_on_c, 1, 53, 0
3, 10320, Note_on_c, 1, 51, 115
3, 10500, Note_on_c, 1, 51, 0
3, 10500, Note_on_c, 1, 53, 115
3, 10560, Note_on_c, 1, 53, 0
3, 10560, Note_on_c, 1, 55, 115
3, 10740, Note_on_c, 1, 46, 115
3, 10800, Note_on_c, 1, 46, 0
3, 10800, Note_on_c, 1, 48, 115
3, 10980, Note_on_c, 1, 48, 0
3, 10980, Note_on_c, 1, 50, 115
3, 11040, Note_on_c, 1, 50, 0
3, 11040, Note_on_c, 1, 51, 115
3, 11220, Note_on_c, 1, 55, 0
3, 11220, Note_on_c, 1, 55, 115
3, 11280, Note_on_c, 1, 55, 0
3, 11280, Note_on_c, 1, 53, 115
3, 11460, Note_on_c, 1, 53, 0
3, 11460, Note_on_c, 1, 55, 115
3, 11520, Note_on_c, 1, 55, 0
3, 11520, Note_on_c, 1, 57, 115
3, 12000, Note_on_c, 1, 57, 0
3, 12000, Note_on_c, 1, 51, 0
3, 12000, Note_on_c, 1, 50, 115
3, 12720, Note_on_c, 1, 50, 0
3, 13140, Note_on_c, 1, 55, 115
3, 13200, Note_on_c, 1, 55, 0
3, 13200, Note_on_c, 1, 57, 115
3, 13380, Note_on_c, 1, 57, 0
3, 13380, Note_on_c, 1, 58, 115
3, 13440, Note_on_c, 1, 58, 0
3, 13440, Note_on_c, 1, 60, 115
3, 13920, Note_on_c, 1, 60, 0
3, 13920, Note_on_c, 1, 65, 115
3, 15360, Note_on_c, 1, 65, 0
3, 15360, Note_on_c, 1, 53, 115
3, 15660, Note_on_c, 1, 53, 0
3, 15660, Note_on_c, 1, 51, 115
3, 15720, Note_on_c, 1, 51, 0
3, 15720, Note_on_c, 1, 50, 115
3, 15780, Note_on_c, 1, 50, 0
3, 15780, Note_on_c, 1, 48, 115
3, 15840, Note_on_c, 1, 48, 0
3, 15840, Note_on_c, 1, 46, 115
3, 16200, Note_on_c, 1, 46, 0
3, 16200, Note_on_c, 1, 56, 115
3, 16320, Note_on_c, 1, 56, 0
3, 16320, Note_on_c, 1, 56, 115
3, 16800, Note_on_c, 1, 56, 0
3, 16800, Note_on_c, 1, 55, 115
3, 17280, Note_on_c, 1, 55, 0
3, 17280, Note_on_c, 1, 62, 115
3, 17580, Note_on_c, 1, 62, 0
3, 17580, Note_on_c, 1, 60, 115
3, 17640, Note_on_c, 1, 60, 0
3, 17640, Note_on_c, 1, 59, 115
3, 17700, Note_on_c, 1, 59, 0
3, 17700, Note_on_c, 1, 57, 115
3, 17760, Note_on_c, 1, 57, 0
3, 17760, Note_on_c, 1, 55, 115
3, 18120, Note_on_c, 1, 55, 0
3, 18120, Note_on_c, 1, 53, 115
3, 18240, Note_on_c, 1, 53, 0
3, 18240, Note_on_c, 1, 55, 115
3, 18240, Note_on_c, 1, 53, 115
3, 18720, Note_on_c, 1, 53, 0
3, 18720, Note_on_c, 1, 51, 115
3, 19200, Note_on_c, 1, 55, 0
3, 19200, Note_on_c, 1, 53, 115
3, 19560, Note_on_c, 1, 51, 0
3, 19620, Note_on_c, 1, 51, 115
3, 19680, Note_on_c, 1, 51, 0
3, 19680, Note_on_c, 1, 53, 0
3, 19680, Note_on_c, 1, 50, 115
3, 20100, Note_on_c, 1, 53, 115
3, 20160, Note_on_c, 1, 53, 0
3, 20160, Note_on_c, 1, 50, 0
3, 20160, Note_on_c, 1, 51, 115
3, 20640, Note_on_c, 1, 51, 0
3, 21120, Note_on_c, 1, 60, 115
3, 21300, Note_on_c, 1, 55, 115
3, 21360, Note_on_c, 1, 55, 0
3, 21360, Note_on_c, 1, 53, 115
3, 21540, Note_on_c, 1, 53, 0
3, 21540, Note_on_c, 1, 51, 115
3, 21600, Note_on_c, 1, 51, 0
3, 21600, Note_on_c, 1, 53, 115
3, 21780, Note_on_c, 1, 53, 0
3, 21780, Note_on_c, 1, 48, 115
3, 21840, Note_on_c, 1, 48, 0
3, 21840, Note_on_c, 1, 50, 115
3, 21960, Note_on_c, 1, 60, 0
3, 22020, Note_on_c, 1, 50, 0
3, 22020, Note_on_c, 1, 60, 115
3, 22020, Note_on_c, 1, 51, 115
3, 22080, Note_on_c, 1, 51, 0
3, 22080, Note_on_c, 1, 60, 0
3, 22080, Note_on_c, 1, 46, 115
3, 22080, Note_on_c, 1, 58, 115
3, 22260, Note_on_c, 1, 46, 0
3, 22260, Note_on_c, 1, 51, 115
3, 22320, Note_on_c, 1, 51, 0
3, 22320, Note_on_c, 1, 55, 115
3, 22440, Note_on_c, 1, 58, 0
3, 22500, Note_on_c, 1, 55, 0
3, 22500, Note_on_c, 1, 57, 115
3, 22500, Note_on_c, 1, 60, 115
3, 22560, Note_on_c, 1, 60, 0
3, 22560, Note_on_c, 1, 57, 0
3, 22560, Note_on_c, 1, 58, 115
3, 22920, Note_on_c, 1, 58, 0
3, 22980, Note_on_c, 1, 58, 115
3, 23040, Note_on_c, 1, 58, 0
3, 23040, Note_on_c, 1, 58, 100
3, 23070, Note_on_c, 1, 58, 0
3, 23070, Note_on_c, 1, 60, 100
3, 23100, Note_on_c, 1, 60, 0
3, 23100, Note_on_c, 1, 58, 100
3, 23130, Note_on_c, 1, 58, 0
3, 23130, Note_on_c, 1, 60, 100
3, 23160, Note_on_c, 1, 60, 0
3, 23160, Note_on_c, 1, 58, 100
3, 23190, Note_on_c, 1, 58, 0
3, 23190, Note_on_c, 1, 60, 100
3, 23220, Note_on_c, 1, 60, 0
3, 23220, Note_on_c, 1, 58, 100
3, 23250, Note_on_c, 1, 58, 0
3, 23250, Note_on_c, 1, 60, 100
3, 23280, Note_on_c, 1, 60, 0
3, 23280, Note_on_c, 1, 58, 100
3, 23310, Note_on_c, 1, 58, 0
3, 23310, Note_on_c, 1, 60, 100
3, 23340, Note_on_c, 1, 60, 0
3, 23340, Note_on_c, 1, 58, 100
3, 23370, Note_on_c, 1, 58, 0
3, 23370, Note_on_c, 1, 60, 100
3, 23400, Note_on_c, 1, 60, 0
3, 23400, Note_on_c, 1, 58, 100
3, 23430, Note_on_c, 1, 58, 0
3, 23430, Note_on_c, 1, 60, 100
3, 23460, Note_on_c, 1, 60, 0
3, 23460, Note_on_c, 1, 58, 100
3, 23490, Note_on_c, 1, 58, 0
3, 23490, Note_on_c, 1, 60, 100
3, 23520, Note_on_c, 1, 60, 0
3, 23520, Note_on_c, 1, 58, 100
3, 23550, Note_on_c, 1, 58, 0
3, 23550, Note_on_c, 1, 60, 100
3, 23580, Note_on_c, 1, 60, 0
3, 23580, Note_on_c, 1, 58, 100
3, 23610, Note_on_c, 1, 58, 0
3, 23610, Note_on_c, 1, 60, 100
3, 23640, Note_on_c, 1, 60, 0
3, 23640, Note_on_c, 1, 58, 100
3, 23670, Note_on_c, 1, 58, 0
3, 23670, Note_on_c, 1, 60, 100
3, 23700, Note_on_c, 1, 60, 0
3, 23700, Note_on_c, 1, 58, 100
3, 23730, Note_on_c, 1, 58, 0
3, 23730, Note_on_c, 1, 60, 100
3, 23760, Note_on_c, 1, 60, 0
3, 23760, Note_on_c, 1, 58, 100
3, 23790, Note_on_c, 1, 58, 0
3, 23790, Note_on_c, 1, 60, 100
3, 23820, Note_on_c, 1, 60, 0
3, 23820, Note_on_c, 1, 58, 100
3, 23850, Note_on_c, 1, 58, 0
3, 23850, Note_on_c, 1, 60, 100
3, 23880, Note_on_c, 1, 60, 0
3, 23880, Note_on_c, 1, 58, 100
3, 23910, Note_on_c, 1, 58, 0
3, 23910, Note_on_c, 1, 60, 100
3, 23940, Note_on_c, 1, 60, 0
3, 23940, Note_on_c, 1, 58, 100
3, 23970, Note_on_c, 1, 58, 0
3, 23970, Note_on_c, 1, 60, 100
3, 24000, Note_on_c, 1, 60, 0
3, 24000, Note_on_c, 1, 58, 100
3, 24030, Note_on_c, 1, 58, 0
3, 24030, Note_on_c, 1, 60, 100
3, 24060, Note_on_c, 1, 60, 0
3, 24060, Note_on_c, 1, 58, 100
3, 24090, Note_on_c, 1, 58, 0
3, 24090, Note_on_c, 1, 60, 100
3, 24120, Note_on_c, 1, 60, 0
3, 24120, Note_on_c, 1, 58, 100
3, 24150, Note_on_c, 1, 58, 0
3, 24150, Note_on_c, 1, 60, 100
3, 24180, Note_on_c, 1, 60, 0
3, 24180, Note_on_c, 1, 58, 100
3, 24210, Note_on_c, 1, 58, 0
3, 24210, Note_on_c, 1, 60, 100
3, 24240, Note_on_c, 1, 60, 0
3, 24240, Note_on_c, 1, 58, 100
3, 24270, Note_on_c, 1, 58, 0
3, 24270, Note_on_c, 1, 60, 100
3, 24300, Note_on_c, 1, 60, 0
3, 24300, Note_on_c, 1, 58, 100
3, 24330, Note_on_c, 1, 58, 0
3, 24330, Note_on_c, 1, 60, 100
3, 24360, Note_on_c, 1, 60, 0
3, 24360, Note_on_c, 1, 58, 100
3, 24390, Note_on_c, 1, 58, 0
3, 24390, Note_on_c, 1, 60, 100
3, 24420, Note_on_c, 1, 60, 0
3, 24420, Note_on_c, 1, 58, 100
3, 24450, Note_on_c, 1, 58, 0
3, 24450, Note_on_c, 1, 60, 100
3, 24480, Note_on_c, 1, 60, 0
3, 24480, Note_on_c, 1, 58, 100
3, 24510, Note_on_c, 1, 58, 0
3, 24510, Note_on_c, 1, 60, 100
3, 24540, Note_on_c, 1, 60, 0
3, 24540, Note_on_c, 1, 58, 100
3, 24570, Note_on_c, 1, 58, 0
3, 24570, Note_on_c, 1, 60, 100
3, 24600, Note_on_c, 1, 60, 0
3, 24600, Note_on_c, 1, 58, 100
3, 24630, Note_on_c, 1, 58, 0
3, 24630, Note_on_c, 1, 60, 100
3, 24660, Note_on_c, 1, 60, 0
3, 24660, Note_on_c, 1, 58, 100
3, 24690, Note_on_c, 1, 58, 0
3, 24690, Note_on_c, 1, 60, 100
3, 24720, Note_on_c, 1, 60, 0
3, 24720, Note_on_c, 1, 58, 100
3, 24750, Note_on_c, 1, 58, 0
3, 24750, Note_on_c, 1, 60, 100
3, 24780, Note_on_c, 1, 60, 0
3, 24780, Note_on_c, 1, 58, 100
3, 24810, Note_on_c, 1, 58, 0
3, 24810, Note_on_c, 1, 60, 100
3, 24840, Note_on_c, 1, 60, 0
3, 24840, Note_on_c, 1, 58, 100
3, 24870, Note_on_c, 1, 58, 0
3, 24870, Note_on_c, 1, 60, 100
3, 24900, Note_on_c, 1, 60, 0
3, 24900, Note_on_c, 1, 58, 100
3, 24930, Note_on_c, 1, 58, 0
3, 24930, Note_on_c, 1, 60, 100
3, 24960, Note_on_c, 1, 60, 0
3, 24960, Note_on_c, 1, 58, 115
3, 25140, Note_on_c, 1, 58, 0
3, 25140, Note_on_c, 1, 56, 115
3, 25200, Note_on_c, 1, 56, 0
3, 25200, Note_on_c, 1, 55, 115
3, 25380, Note_on_c, 1, 55, 0
3, 25380, Note_on_c, 1, 53, 115
3, 25440, Note_on_c, 1, 53, 0
3, 25440, Note_on_c, 1, 55, 115
3, 25620, Note_on_c, 1, 55, 0
3, 25620, Note_on_c, 1, 51, 115
3, 25680, Note_on_c, 1, 51, 0
3, 25680, Note_on_c, 1, 50, 115
3, 25710, Note_on_c, 1, 50, 0
3, 25710, Note_on_c, 1, 51, 115
3, 25740, Note_on_c, 1, 51, 0
3, 25740, Note_on_c, 1, 50, 115
3, 25860, Note_on_c, 1, 50, 0
3, 25860, Note_on_c, 1, 48, 115
3, 25920, Note_on_c, 1, 48, 0
3, 25920, Note_on_c, 1, 46, 115
3, 26100, Note_on_c, 1, 46, 0
3, 26100, Note_on_c, 1, 55, 115
3, 26160, Note_on_c, 1, 55, 0
3, 26160, Note_on_c, 1, 53, 115
3, 26340, Note_on_c, 1, 53, 0
3, 26340, Note_on_c, 1, 51, 115
3, 26400, Note_on_c, 1, 51, 0
3, 26400, Note_on_c, 1, 53, 115
3, 27240, Note_on_c, 1, 53, 0
3, 27300, Note_on_c, 1, 53, 115
3, 27360, Note_on_c, 1, 53, 0
3, 27360, Note_on_c, 1, 51, 115
3, 27720, Note_on_c, 1, 51, 0
3, 27780, Note_on_c, 1, 55, 115
3, 27840, Note_on_c, 1, 55, 0
3, 27840, Note_on_c, 1, 56, 115
3, 28320, Note_on_c, 1, 56, 0
3, 28740, Note_on_c, 1, 58, 115
3, 28740, Note_on_c, 1, 53, 115
3, 28800, Note_on_c, 1, 53, 0
3, 28800, Note_on_c, 1, 58, 0
3, 28800, Note_on_c, 1, 58, 115
3, 28800, Note_on_c, 1, 55, 115
3, 29040, Note_on_c, 1, 55, 0
3, 29040, Note_on_c, 1, 58, 0
3, 29040, Note_on_c, 1, 55, 115
3, 29040, Note_on_c, 1, 58, 115
3, 29280, Note_on_c, 1, 58, 0
3, 29280, Note_on_c, 1, 55, 0
3, 29280, Note_on_c, 1, 51, 115
3, 29280, Note_on_c, 1, 56, 115
3, 29520, Note_on_c, 1, 56, 0
3, 29520, Note_on_c, 1, 51, 0
3, 29520, Note_on_c, 1, 56, 115
3, 29520, Note_on_c, 1, 46, 115
3, 29760, Note_on_c, 1, 46, 0
3, 29760, Note_on_c, 1, 56, 0
3, 29760, Note_on_c, 1, 46, 115
3, 29760, Note_on_c, 1, 56, 115
3, 30240, Note_on_c, 1, 56, 0
3, 30240, Note_on_c, 1, 55, 115
3, 30480, Note_on_c, 1, 55, 0
3, 30720, Note_on_c, 1, 46, 0
3, 30960, Note_on_c, 1, 56, 115
3, 31080, Note_on_c, 1, 56, 0
3, 31200, Note_on_c, 1, 53, 115
3, 31320, Note_on_c, 1, 53, 0
3, 31440, Note_on_c, 1, 51, 115
3, 31560, Note_on_c, 1, 51, 0
3, 31680, Note_on_c, 1, 56, 115
3, 31680, Note_on_c, 1, 50, 115
3, 31695, Note_on_c, 1, 56, 0
3, 31710, Note_on_c, 1, 58, 115
3, 31725, Note_on_c, 1, 58, 0
3, 31740, Note_on_c, 1, 56, 115
3, 31800, Note_on_c, 1, 50, 0
3, 31830, Note_on_c, 1, 56, 0
3, 31920, Note_on_c, 1, 55, 115
3, 31920, Note_on_c, 1, 51, 115
3, 32040, Note_on_c, 1, 51, 0
3, 32040, Note_on_c, 1, 55, 0
3, 32880, Note_on_c, 1, 56, 60
3, 33000, Note_on_c, 1, 56, 0
3, 33120, Note_on_c, 1, 53, 60
3, 33240, Note_on_c, 1, 53, 0
3, 33360, Note_on_c, 1, 51, 60
3, 33480, Note_on_c, 1, 51, 0
3, 33600, Note_on_c, 1, 56, 60
3, 33600, Note_on_c, 1, 50, 60
3, 33615, Note_on_c, 1, 56, 0
3, 33630, Note_on_c, 1, 58, 60
3, 33645, Note_on_c, 1, 58, 0
3, 33660, Note_on_c, 1, 56, 60
3, 33720, Note_on_c, 1, 50, 0
3, 33750, Note_on_c, 1, 56, 0
3, 33840, Note_on_c, 1, 55, 60
3, 33840, Note_on_c, 1, 51, 60
3, 33960, Note_on_c, 1, 51, 0
3, 33960, Note_on_c, 1, 55, 0
3, 34800, Note_on_c, 1, 63, 115
3, 34920, Note_on_c, 1, 63, 0
3, 35040, Note_on_c, 1, 60, 115
3, 35160, Note_on_c, 1, 60, 0
3, 35280, Note_on_c, 1, 58, 115
3, 35400, Note_on_c, 1, 58, 0
3, 35520, Note_on_c, 1, 57, 115
3, 35640, Note_on_c, 1, 57, 0
3, 35760, Note_on_c, 1, 58, 115
3, 35880, Note_on_c, 1, 58, 0
3, 36720, Note_on_c, 1, 63, 60
3, 36840, Note_on_c, 1, 63, 0
3, 36960, Note_on_c, 1, 60, 60
3, 37080, Note_on_c, 1, 60, 0
3, 37200, Note_on_c, 1, 58, 60
3, 37320, Note_on_c, 1, 58, 0
3, 37440, Note_on_c, 1, 57, 60
3, 37560, Note_on_c, 1, 57, 0
3, 37680, Note_on_c, 1, 58, 60
3, 37800, Note_on_c, 1, 58, 0
3, 38160, Note_on_c, 1, 58, 115
3, 38400, Note_on_c, 1, 58, 0
3, 38400, Note_on_c, 1, 63, 115
3, 38640, Note_on_c, 1, 63, 0
3, 38640, Note_on_c, 1, 62, 115
3, 38880, Note_on_c, 1, 62, 0
3, 38880, Note_on_c, 1, 63, 115
3, 39120, Note_on_c, 1, 63, 0
3, 39120, Note_on_c, 1, 60, 115
3, 39360, Note_on_c, 1, 60, 0
3, 39360, Note_on_c, 1, 62, 115
3, 39600, Note_on_c, 1, 62, 0
3, 39600, Note_on_c, 1, 60, 115
3, 39840, Note_on_c, 1, 60, 0
3, 39840, Note_on_c, 1, 62, 115
3, 40080, Note_on_c, 1, 62, 0
3, 40080, Note_on_c, 1, 58, 115
3, 40320, Note_on_c, 1, 58, 0
3, 40320, Note_on_c, 1, 60, 115
3, 40560, Note_on_c, 1, 60, 0
3, 40560, Note_on_c, 1, 58, 115
3, 40800, Note_on_c, 1, 58, 0
3, 40800, Note_on_c, 1, 60, 115
3, 41040, Note_on_c, 1, 60, 0
3, 41040, Note_on_c, 1, 55, 115
3, 41280, Note_on_c, 1, 55, 0
3, 41280, Note_on_c, 1, 60, 115
3, 41280, Note_on_c, 1, 57, 115
3, 41520, Note_on_c, 1, 57, 0
3, 41520, Note_on_c, 1, 60, 0
3, 41520, Note_on_c, 1, 58, 115
3, 41520, Note_on_c, 1, 55, 115
3, 41760, Note_on_c, 1, 55, 0
3, 41760, Note_on_c, 1, 58, 0
3, 41760, Note_on_c, 1, 60, 115
3, 41760, Note_on_c, 1, 57, 115
3, 42000, Note_on_c, 1, 57, 0
3, 42000, Note_on_c, 1, 60, 0
3, 42000, Note_on_c, 1, 53, 115
3, 42000, Note_on_c, 1, 57, 115
3, 42240, Note_on_c, 1, 57, 0
3, 42240, Note_on_c, 1, 53, 0
3, 42240, Note_on_c, 1, 58, 115
3, 42240, Note_on_c, 1, 46, 115
3, 42480, Note_on_c, 1, 46, 0
3, 42480, Note_on_c, 1, 58, 0
3, 42480, Note_on_c, 1, 48, 115
3, 42720, Note_on_c, 1, 48, 0
3, 42720, Note_on_c, 1, 49, 115
3, 42960, Note_on_c, 1, 49, 0
3, 42960, Note_on_c, 1, 46, 115
3, 42960, Note_on_c, 1, 58, 115
3, 43200, Note_on_c, 1, 58, 0
3, 43200, Note_on_c, 1, 46, 0
3, 43200, Note_on_c, 1, 53, 115
3, 43440, Note_on_c, 1, 53, 0
3, 43440, Note_on_c, 1, 55, 115
3, 43680, Note_on_c, 1, 55, 0
3, 43680, Note_on_c, 1, 57, 115
3, 43920, Note_on_c, 1, 57, 0
3, 43920, Note_on_c, 1, 53, 115
3, 44160, Note_on_c, 1, 53, 0
3, 44160, Note_on_c, 1, 58, 115
3, 44400, Note_on_c, 1, 58, 0
3, 44400, Note_on_c, 1, 60, 115
3, 44640, Note_on_c, 1, 60, 0
3, 44640, Note_on_c, 1, 61, 115
3, 44880, Note_on_c, 1, 61, 0
3, 44880, Note_on_c, 1, 58, 115
3, 45120, Note_on_c, 1, 58, 0
3, 45120, Note_on_c, 1, 60, 115
3, 45360, Note_on_c, 1, 60, 0
3, 45360, Note_on_c, 1, 58, 115
3, 45600, Note_on_c, 1, 58, 0
3, 45600, Note_on_c, 1, 57, 115
3, 45600, Note_on_c, 1, 60, 115
3, 45840, Note_on_c, 1, 60, 0
3, 45840, Note_on_c, 1, 57, 0
3, 45840, Note_on_c, 1, 53, 115
3, 45840, Note_on_c, 1, 57, 115
3, 46080, Note_on_c, 1, 57, 0
3, 46080, Note_on_c, 1, 53, 0
3, 46080, Note_on_c, 1, 58, 115
3, 46320, Note_on_c, 1, 58, 0
3, 46320, Note_on_c, 1, 51, 115
3, 46560, Note_on_c, 1, 51, 0
3, 46560, Note_on_c, 1, 53, 115
3, 47040, Note_on_c, 1, 53, 0
3, 47040, Note_on_c, 1, 46, 115
3, 47040, Note_on_c, 1, 58, 115
3, 47520, Note_on_c, 1, 58, 0
3, 47520, Note_on_c, 1, 46, 0
3, 47520, Note_on_c, 1, 58, 115
3, 47700, Note_on_c, 1, 58, 0
3, 47700, Note_on_c, 1, 55, 115
3, 47760, Note_on_c, 1, 55, 0
3, 47760, Note_on_c, 1, 53, 115
3, 47940, Note_on_c, 1, 53, 0
3, 47940, Note_on_c, 1, 51, 115
3, 48000, Note_on_c, 1, 51, 0
3, 48000, Note_on_c, 1, 53, 110
3, 48000, Note_on_c, 1, 58, 110
3, 48300, Note_on_c, 1, 53, 0
3, 48300, Note_on_c, 1, 51, 110
3, 48360, Note_on_c, 1, 51, 0
3, 48360, Note_on_c, 1, 50, 110
3, 48420, Note_on_c, 1, 50, 0
3, 48420, Note_on_c, 1, 48, 110
3, 48480, Note_on_c, 1, 48, 0
3, 48480, Note_on_c, 1, 58, 0
3, 48480, Note_on_c, 1, 46, 110
3, 48840, Note_on_c, 1, 46, 0
3, 48840, Note_on_c, 1, 58, 110
3, 48960, Note_on_c, 1, 58, 0
3, 48960, Note_on_c, 1, 58, 110
3, 49440, Note_on_c, 1, 58, 0
3, 49440, Note_on_c, 1, 57, 110
3, 49470, Note_on_c, 1, 57, 0
3, 49470, Note_on_c, 1, 58, 110
3, 49500, Note_on_c, 1, 58, 0
3, 49500, Note_on_c, 1, 57, 110
3, 49920, Note_on_c, 1, 57, 0
3, 49920, Note_on_c, 1, 60, 115
3, 50100, Note_on_c, 1, 60, 0
3, 50100, Note_on_c, 1, 58, 115
3, 50160, Note_on_c, 1, 58, 0
3, 50160, Note_on_c, 1, 57, 115
3, 50340, Note_on_c, 1, 57, 0
3, 50340, Note_on_c, 1, 55, 115
3, 50400, Note_on_c, 1, 55, 0
3, 50400, Note_on_c, 1, 53, 115
3, 50760, Note_on_c, 1, 53, 0
3, 50760, Note_on_c, 1, 51, 115
3, 50880, Note_on_c, 1, 51, 0
3, 50880, Note_on_c, 1, 51, 115
3, 51360, Note_on_c, 1, 51, 0
3, 51360, Note_on_c, 1, 50, 115
3, 51390, Note_on_c, 1, 50, 0
3, 51390, Note_on_c, 1, 51, 115
3, 51420, Note_on_c, 1, 51, 0
3, 51420, Note_on_c, 1, 50, 115
3, 51840, Note_on_c, 1, 50, 0
3, 51960, Note_on_c, 1, 46, 115
3, 52020, Note_on_c, 1, 46, 0
3, 52020, Note_on_c, 1, 48, 115
3, 52080, Note_on_c, 1, 48, 0
3, 52080, Note_on_c, 1, 50, 115
3, 52140, Note_on_c, 1, 50, 0
3, 52140, Note_on_c, 1, 51, 115
3, 52200, Note_on_c, 1, 51, 0
3, 52200, Note_on_c, 1, 53, 115
3, 52260, Note_on_c, 1, 53, 0
3, 52260, Note_on_c, 1, 55, 115
3, 52320, Note_on_c, 1, 55, 0
3, 52320, Note_on_c, 1, 56, 115
3, 52800, Note_on_c, 1, 56, 0
3, 52800, Note_on_c, 1, 56, 115
3, 52920, Note_on_c, 1, 56, 0
3, 52920, Note_on_c, 1, 55, 115
3, 52980, Note_on_c, 1, 55, 0
3, 52980, Note_on_c, 1, 56, 115
3, 53040, Note_on_c, 1, 56, 0
3, 53040, Note_on_c, 1, 58, 115
3, 53100, Note_on_c, 1, 58, 0
3, 53100, Note_on_c, 1, 56, 115
3, 53160, Note_on_c, 1, 56, 0
3, 53160, Note_on_c, 1, 55, 115
3, 53220, Note_on_c, 1, 55, 0
3, 53220, Note_on_c, 1, 53, 115
3, 53280, Note_on_c, 1, 53, 0
3, 53280, Note_on_c, 1, 55, 115
3, 53520, Note_on_c, 1, 55, 0
3, 53880, Note_on_c, 1, 51, 115
3, 53940, Note_on_c, 1, 51, 0
3, 53940, Note_on_c, 1, 53, 115
3, 54000, Note_on_c, 1, 53, 0
3, 54000, Note_on_c, 1, 55, 115
3, 54060, Note_on_c, 1, 55, 0
3, 54060, Note_on_c, 1, 56, 115
3, 54120, Note_on_c, 1, 56, 0
3, 54120, Note_on_c, 1, 58, 115
3, 54180, Note_on_c, 1, 58, 0
3, 54180, Note_on_c, 1, 60, 115
3, 54240, Note_on_c, 1, 60, 0
3, 54240, Note_on_c, 1, 61, 115
3, 54840, Note_on_c, 1, 61, 0
3, 54840, Note_on_c, 1, 60, 115
3, 54900, Note_on_c, 1, 60, 0
3, 54900, Note_on_c, 1, 61, 115
3, 54960, Note_on_c, 1, 61, 0
3, 54960, Note_on_c, 1, 63, 115
3, 55020, Note_on_c, 1, 63, 0
3, 55020, Note_on_c, 1, 61, 115
3, 55080, Note_on_c, 1, 61, 0
3, 55080, Note_on_c, 1, 60, 115
3, 55140, Note_on_c, 1, 60, 0
3, 55140, Note_on_c, 1, 58, 115
3, 55200, Note_on_c, 1, 58, 0
3, 55200, Note_on_c, 1, 60, 115
3, 55380, Note_on_c, 1, 60, 0
3, 55380, Note_on_c, 1, 62, 115
3, 55440, Note_on_c, 1, 62, 0
3, 55440, Note_on_c, 1, 58, 115
3, 55680, Note_on_c, 1, 58, 0
3, 55680, Note_on_c, 1, 60, 115
3, 56160, Note_on_c, 1, 60, 0
3, 56580, Note_on_c, 1, 56, 80
3, 56580, Note_on_c, 1, 59, 80
3, 56628, Note_on_c, 1, 59, 0
3, 56628, Note_on_c, 1, 56, 0
3, 56640, Note_on_c, 1, 55, 115
3, 56640, Note_on_c, 1, 59, 115
3, 57120, Note_on_c, 1, 59, 0
3, 57120, Note_on_c, 1, 55, 0
3, 57540, Note_on_c, 1, 60, 115
3, 57540, Note_on_c, 1, 55, 115
3, 57600, Note_on_c, 1, 55, 0
3, 57600, Note_on_c, 1, 60, 0
3, 57600, Note_on_c, 1, 53, 115
3, 57600, Note_on_c, 1, 62, 115
3, 58080, Note_on_c, 1, 53, 0
3, 58260, Note_on_c, 1, 62, 0
3, 58260, Note_on_c, 1, 62, 115
3, 58320, Note_on_c, 1, 62, 0
3, 58320, Note_on_c, 1, 60, 115
3, 58500, Note_on_c, 1, 60, 0
3, 58500, Note_on_c, 1, 59, 115
3, 58500, Note_on_c, 1, 55, 115
3, 58560, Note_on_c, 1, 55, 0
3, 58560, Note_on_c, 1, 59, 0
3, 58560, Note_on_c, 1, 56, 115
3, 58560, Note_on_c, 1, 60, 115
3, 58920, Note_on_c, 1, 56, 0
3, 58980, Note_on_c, 1, 55, 115
3, 59040, Note_on_c, 1, 55, 0
3, 59040, Note_on_c, 1, 60, 0
3, 59040, Note_on_c, 1, 56, 115
3, 59220, Note_on_c, 1, 60, 115
3, 59280, Note_on_c, 1, 60, 0
3, 59280, Note_on_c, 1, 62, 115
3, 59460, Note_on_c, 1, 62, 0
3, 59460, Note_on_c, 1, 63, 115
3, 59520, Note_on_c, 1, 63, 0
3, 59520, Note_on_c, 1, 62, 115
3, 59880, Note_on_c, 1, 56, 0
3, 59940, Note_on_c, 1, 55, 115
3, 60000, Note_on_c, 1, 55, 0
3, 60000, Note_on_c, 1, 56, 115
3, 60360, Note_on_c, 1, 56, 0
3, 60420, Note_on_c, 1, 53, 115
3, 60480, Note_on_c, 1, 53, 0
3, 60480, Note_on_c, 1, 55, 115
3, 60660, Note_on_c, 1, 62, 0
3, 60660, Note_on_c, 1, 63, 115
3, 60720, Note_on_c, 1, 63, 0
3, 60720, Note_on_c, 1, 62, 115
3, 60900, Note_on_c, 1, 62, 0
3, 60900, Note_on_c, 1, 60, 115
3, 60960, Note_on_c, 1, 60, 0
3, 60960, Note_on_c, 1, 55, 0
3, 60960, Note_on_c, 1, 62, 115
3, 61320, Note_on_c, 1, 62, 0
3, 61380, Note_on_c, 1, 55, 115
3, 61380, Note_on_c, 1, 50, 115
3, 61440, Note_on_c, 1, 50, 0
3, 61440, Note_on_c, 1, 55, 0
3, 61440, Note_on_c, 1, 55, 115
3, 61440, Note_on_c, 1, 51, 115
3, 61920, Note_on_c, 1, 51, 0
3, 62580, Note_on_c, 1, 48, 115
3, 62640, Note_on_c, 1, 48, 0
3, 62640, Note_on_c, 1, 50, 115
3, 62820, Note_on_c, 1, 50, 0
3, 62820, Note_on_c, 1, 51, 115
3, 62880, Note_on_c, 1, 51, 0
3, 62880, Note_on_c, 1, 55, 0
3, 62880, Note_on_c, 1, 53, 115
3, 63300, Note_on_c, 1, 51, 115
3, 63360, Note_on_c, 1, 51, 0
3, 63360, Note_on_c, 1, 50, 115
3, 63840, Note_on_c, 1, 50, 0
3, 63840, Note_on_c, 1, 53, 0
3, 63840, Note_on_c, 1, 51, 115
3, 64020, Note_on_c, 1, 55, 115
3, 64080, Note_on_c, 1, 55, 0
3, 64080, Note_on_c, 1, 57, 115
3, 64260, Note_on_c, 1, 57, 0
3, 64260, Note_on_c, 1, 59, 115
3, 64320, Note_on_c, 1, 59, 0
3, 64320, Note_on_c, 1, 60, 115
3, 64500, Note_on_c, 1, 51, 0
3, 64500, Note_on_c, 1, 51, 115
3, 64560, Note_on_c, 1, 51, 0
3, 64560, Note_on_c, 1, 53, 115
3, 64740, Note_on_c, 1, 53, 0
3, 64740, Note_on_c, 1, 55, 115
3, 64800, Note_on_c, 1, 55, 0
3, 64800, Note_on_c, 1, 56, 115
3, 64980, Note_on_c, 1, 56, 0
3, 64980, Note_on_c, 1, 63, 115
3, 65040, Note_on_c, 1, 63, 0
3, 65040, Note_on_c, 1, 60, 0
3, 65040, Note_on_c, 1, 62, 115
3, 65220, Note_on_c, 1, 62, 0
3, 65220, Note_on_c, 1, 60, 115
3, 65280, Note_on_c, 1, 60, 0
3, 65460, Note_on_c, 1, 55, 115
3, 65520, Note_on_c, 1, 55, 0
3, 65520, Note_on_c, 1, 57, 115
3, 65700, Note_on_c, 1, 57, 0
3, 65700, Note_on_c, 1, 59, 115
3, 65760, Note_on_c, 1, 59, 0
3, 65760, Note_on_c, 1, 55, 115
3, 66240, Note_on_c, 1, 62, 115
3, 67200, Note_on_c, 1, 62, 0
3, 67200, Note_on_c, 1, 60, 115
3, 67440, Note_on_c, 1, 60, 0
3, 67440, Note_on_c, 1, 55, 0
3, 67440, Note_on_c, 1, 50, 90
3, 67680, Note_on_c, 1, 50, 0
3, 67680, Note_on_c, 1, 51, 90
3, 67920, Note_on_c, 1, 51, 0
3, 67920, Note_on_c, 1, 53, 90
3, 68400, Note_on_c, 1, 53, 0
3, 68400, Note_on_c, 1, 51, 90
3, 68640, Note_on_c, 1, 51, 0
3, 68640, Note_on_c, 1, 50, 90
3, 68880, Note_on_c, 1, 50, 0
3, 68880, Note_on_c, 1, 55, 90
3, 69120, Note_on_c, 1, 55, 0
3, 69120, Note_on_c, 1, 60, 90
3, 69360, Note_on_c, 1, 60, 0
3, 69360, Note_on_c, 1, 58, 90
3, 69600, Note_on_c, 1, 58, 0
3, 69600, Note_on_c, 1, 57, 90
3, 69840, Note_on_c, 1, 57, 0
3, 69840, Note_on_c, 1, 58, 90
3, 70080, Note_on_c, 1, 58, 0
3, 70080, Note_on_c, 1, 60, 90
3, 70320, Note_on_c, 1, 60, 0
3, 70320, Note_on_c, 1, 58, 90
3, 70560, Note_on_c, 1, 58, 0
3, 70560, Note_on_c, 1, 57, 90
3, 70800, Note_on_c, 1, 57, 0
3, 70800, Note_on_c, 1, 50, 90
3, 71040, Note_on_c, 1, 50, 0
3, 71040, Note_on_c, 1, 55, 90
3, 71280, Note_on_c, 1, 55, 0
3, 71280, Note_on_c, 1, 58, 90
3, 71520, Note_on_c, 1, 58, 0
3, 71520, Note_on_c, 1, 48, 90
3, 71760, Note_on_c, 1, 48, 0
3, 72000, Note_on_c, 1, 53, 90
3, 72000, Note_on_c, 1, 57, 90
3, 72240, Note_on_c, 1, 57, 0
3, 72240, Note_on_c, 1, 53, 0
3, 72240, Note_on_c, 1, 51, 90
3, 72240, Note_on_c, 1, 60, 90
3, 72480, Note_on_c, 1, 60, 0
3, 72480, Note_on_c, 1, 51, 0
3, 72480, Note_on_c, 1, 50, 90
3, 72480, Note_on_c, 1, 60, 90
3, 72540, Note_on_c, 1, 60, 0
3, 72540, Note_on_c, 1, 63, 90
3, 72600, Note_on_c, 1, 63, 0
3, 72600, Note_on_c, 1, 62, 90
3, 72660, Note_on_c, 1, 62, 0
3, 72660, Note_on_c, 1, 60, 90
3, 72720, Note_on_c, 1, 60, 0
3, 72720, Note_on_c, 1, 50, 0
3, 72720, Note_on_c, 1, 62, 90
3, 72780, Note_on_c, 1, 62, 0
3, 72780, Note_on_c, 1, 60, 90
3, 72840, Note_on_c, 1, 60, 0
3, 72840, Note_on_c, 1, 59, 90
3, 72900, Note_on_c, 1, 59, 0
3, 72900, Note_on_c, 1, 57, 90
3, 72960, Note_on_c, 1, 57, 0
3, 72960, Note_on_c, 1, 55, 90
3, 73560, Note_on_c, 1, 55, 0
3, 74040, Note_on_c, 1, 60, 90
3, 74280, Note_on_c, 1, 60, 0
3, 74280, Note_on_c, 1, 60, 90
3, 74460, Note_on_c, 1, 60, 0
3, 74460, Note_on_c, 1, 58, 90
3, 74520, Note_on_c, 1, 58, 0
3, 74520, Note_on_c, 1, 56, 90
3, 74580, Note_on_c, 1, 56, 0
3, 74580, Note_on_c, 1, 55, 90
3, 74640, Note_on_c, 1, 55, 0
3, 74640, Note_on_c, 1, 53, 90
3, 74700, Note_on_c, 1, 53, 0
3, 74700, Note_on_c, 1, 51, 90
3, 74760, Note_on_c, 1, 51, 0
3, 74760, Note_on_c, 1, 50, 90
3, 74820, Note_on_c, 1, 50, 0
3, 74820, Note_on_c, 1, 48, 90
3, 74880, Note_on_c, 1, 48, 0
3, 74880, Note_on_c, 1, 47, 90
3, 74940, Note_on_c, 1, 47, 0
3, 74940, Note_on_c, 1, 50, 90
3, 75000, Note_on_c, 1, 50, 0
3, 75000, Note_on_c, 1, 47, 90
3, 75060, Note_on_c, 1, 47, 0
3, 75060, Note_on_c, 1, 50, 90
3, 75120, Note_on_c, 1, 50, 0
3, 75120, Note_on_c, 1, 48, 90
3, 75180, Note_on_c, 1, 48, 0
3, 75180, Note_on_c, 1, 51, 90
3, 75240, Note_on_c, 1, 51, 0
3, 75240, Note_on_c, 1, 48, 90
3, 75300, Note_on_c, 1, 48, 0
3, 75300, Note_on_c, 1, 51, 90
3, 75360, Note_on_c, 1, 51, 0
3, 75360, Note_on_c, 1, 48, 90
3, 75420, Note_on_c, 1, 48, 0
3, 75420, Note_on_c, 1, 53, 90
3, 75480, Note_on_c, 1, 53, 0
3, 75480, Note_on_c, 1, 48, 90
3, 75540, Note_on_c, 1, 48, 0
3, 75540, Note_on_c, 1, 53, 90
3, 75600, Note_on_c, 1, 53, 0
3, 75600, Note_on_c, 1, 47, 90
3, 75660, Note_on_c, 1, 47, 0
3, 75660, Note_on_c, 1, 53, 90
3, 75720, Note_on_c, 1, 53, 0
3, 75720, Note_on_c, 1, 47, 90
3, 75780, Note_on_c, 1, 47, 0
3, 75780, Note_on_c, 1, 53, 90
3, 75840, Note_on_c, 1, 53, 0
3, 75840, Note_on_c, 1, 48, 90
3, 75900, Note_on_c, 1, 48, 0
3, 75900, Note_on_c, 1, 53, 90
3, 75960, Note_on_c, 1, 53, 0
3, 75960, Note_on_c, 1, 51, 90
3, 76020, Note_on_c, 1, 51, 0
3, 76020, Note_on_c, 1, 50, 90
3, 76080, Note_on_c, 1, 50, 0
3, 76080, Note_on_c, 1, 51, 90
3, 76140, Note_on_c, 1, 51, 0
3, 76140, Note_on_c, 1, 55, 90
3, 76200, Note_on_c, 1, 55, 0
3, 76200, Note_on_c, 1, 51, 90
3, 76260, Note_on_c, 1, 51, 0
3, 76260, Note_on_c, 1, 55, 90
3, 76320, Note_on_c, 1, 55, 0
3, 76320, Note_on_c, 1, 41, 90
3, 76380, Note_on_c, 1, 41, 0
3, 76380, Note_on_c, 1, 55, 90
3, 76440, Note_on_c, 1, 55, 0
3, 76440, Note_on_c, 1, 53, 90
3, 76500, Note_on_c, 1, 53, 0
3, 76500, Note_on_c, 1, 51, 90
3, 76560, Note_on_c, 1, 51, 0
3, 76560, Note_on_c, 1, 53, 90
3, 76620, Note_on_c, 1, 53, 0
3, 76620, Note_on_c, 1, 56, 90
3, 76680, Note_on_c, 1, 56, 0
3, 76680, Note_on_c, 1, 53, 90
3, 76740, Note_on_c, 1, 53, 0
3, 76740, Note_on_c, 1, 56, 90
3, 76800, Note_on_c, 1, 56, 0
3, 76800, Note_on_c, 1, 46, 90
3, 76860, Note_on_c, 1, 46, 0
3, 76860, Note_on_c, 1, 51, 90
3, 76920, Note_on_c, 1, 51, 0
3, 76920, Note_on_c, 1, 50, 90
3, 76980, Note_on_c, 1, 50, 0
3, 76980, Note_on_c, 1, 48, 90
3, 77040, Note_on_c, 1, 48, 0
3, 77040, Note_on_c, 1, 50, 90
3, 77100, Note_on_c, 1, 50, 0
3, 77100, Note_on_c, 1, 53, 90
3, 77160, Note_on_c, 1, 53, 0
3, 77160, Note_on_c, 1, 50, 90
3, 77220, Note_on_c, 1, 50, 0
3, 77220, Note_on_c, 1, 53, 90
3, 77280, Note_on_c, 1, 53, 0
3, 77280, Note_on_c, 1, 39, 90
3, 77340, Note_on_c, 1, 39, 0
3, 77340, Note_on_c, 1, 53, 90
3, 77400, Note_on_c, 1, 53, 0
3, 77400, Note_on_c, 1, 51, 90
3, 77460, Note_on_c, 1, 51, 0
3, 77460, Note_on_c, 1, 50, 90
3, 77520, Note_on_c, 1, 50, 0
3, 77520, Note_on_c, 1, 51, 90
3, 77580, Note_on_c, 1, 51, 0
3, 77580, Note_on_c, 1, 55, 90
3, 77640, Note_on_c, 1, 55, 0
3, 77640, Note_on_c, 1, 51, 90
3, 77700, Note_on_c, 1, 51, 0
3, 77700, Note_on_c, 1, 55, 90
3, 77760, Note_on_c, 1, 55, 0
3, 77760, Note_on_c, 1, 44, 90
3, 77820, Note_on_c, 1, 44, 0
3, 77820, Note_on_c, 1, 55, 90
3, 77880, Note_on_c, 1, 55, 0
3, 77880, Note_on_c, 1, 53, 90
3, 77940, Note_on_c, 1, 53, 0
3, 77940, Note_on_c, 1, 51, 90
3, 78000, Note_on_c, 1, 51, 0
3, 78000, Note_on_c, 1, 53, 90
3, 78060, Note_on_c, 1, 53, 0
3, 78060, Note_on_c, 1, 51, 90
3, 78120, Note_on_c, 1, 51, 0
3, 78120, Note_on_c, 1, 50, 90
3, 78180, Note_on_c, 1, 50, 0
3, 78180, Note_on_c, 1, 48, 90
3, 78240, Note_on_c, 1, 48, 0
3, 78240, Note_on_c, 1, 46, 90
3, 78300, Note_on_c, 1, 46, 0
3, 78300, Note_on_c, 1, 56, 90
3, 78360, Note_on_c, 1, 56, 0
3, 78360, Note_on_c, 1, 55, 90
3, 78420, Note_on_c, 1, 55, 0
3, 78420, Note_on_c, 1, 53, 90
3, 78480, Note_on_c, 1, 53, 0
3, 78480, Note_on_c, 1, 55, 90
3, 78540, Note_on_c, 1, 55, 0
3, 78540, Note_on_c, 1, 53, 90
3, 78600, Note_on_c, 1, 53, 0
3, 78600, Note_on_c, 1, 51, 90
3, 78660, Note_on_c, 1, 51, 0
3, 78660, Note_on_c, 1, 50, 90
3, 78720, Note_on_c, 1, 50, 0
3, 78720, Note_on_c, 1, 48, 90
3, 78780, Note_on_c, 1, 48, 0
3, 78780, Note_on_c, 1, 58, 90
3, 78840, Note_on_c, 1, 58, 0
3, 78840, Note_on_c, 1, 56, 90
3, 78900, Note_on_c, 1, 56, 0
3, 78900, Note_on_c, 1, 55, 90
3, 78960, Note_on_c, 1, 55, 0
3, 78960, Note_on_c, 1, 56, 90
3, 79020, Note_on_c, 1, 56, 0
3, 79020, Note_on_c, 1, 55, 90
3, 79080, Note_on_c, 1, 55, 0
3, 79080, Note_on_c, 1, 53, 90
3, 79140, Note_on_c, 1, 53, 0
3, 79140, Note_on_c, 1, 51, 90
3, 79200, Note_on_c, 1, 51, 0
3, 79200, Note_on_c, 1, 50, 90
3, 79260, Note_on_c, 1, 50, 0
3, 79260, Note_on_c, 1, 60, 90
3, 79320, Note_on_c, 1, 60, 0
3, 79320, Note_on_c, 1, 58, 90
3, 79380, Note_on_c, 1, 58, 0
3, 79380, Note_on_c, 1, 56, 90
3, 79440, Note_on_c, 1, 56, 0
3, 79440, Note_on_c, 1, 58, 90
3, 79500, Note_on_c, 1, 58, 0
3, 79500, Note_on_c, 1, 56, 90
3, 79560, Note_on_c, 1, 56, 0
3, 79560, Note_on_c, 1, 55, 90
3, 79620, Note_on_c, 1, 55, 0
3, 79620, Note_on_c, 1, 53, 90
3, 79680, Note_on_c, 1, 53, 0
3, 79680, Note_on_c, 1, 51, 90
3, 79920, Note_on_c, 1, 51, 0
3, 79920, Note_on_c, 1, 53, 90
3, 80160, Note_on_c, 1, 53, 0
3, 80160, Note_on_c, 1, 55, 90
3, 80400, Note_on_c, 1, 55, 0
3, 80400, Note_on_c, 1, 56, 90
3, 80880, Note_on_c, 1, 56, 0
3, 80880, Note_on_c, 1, 55, 90
3, 81120, Note_on_c, 1, 55, 0
3, 81120, Note_on_c, 1, 53, 90
3, 81360, Note_on_c, 1, 53, 0
3, 81360, Note_on_c, 1, 58, 90
3, 81600, Note_on_c, 1, 58, 0
3, 81600, Note_on_c, 1, 51, 90
3, 81720, Note_on_c, 1, 51, 0
3, 81720, Note_on_c, 1, 58, 90
3, 81840, Note_on_c, 1, 58, 0
3, 81840, Note_on_c, 1, 63, 90
3, 81960, Note_on_c, 1, 63, 0
3, 81960, Note_on_c, 1, 62, 90
3, 82080, Note_on_c, 1, 62, 0
3, 82080, Note_on_c, 1, 60, 90
3, 82200, Note_on_c, 1, 60, 0
3, 82200, Note_on_c, 1, 63, 90
3, 82320, Note_on_c, 1, 63, 0
3, 82320, Note_on_c, 1, 57, 90
3, 82440, Note_on_c, 1, 57, 0
3, 82440, Note_on_c, 1, 60, 90
3, 82560, Note_on_c, 1, 60, 0
3, 82560, Note_on_c, 1, 53, 90
3, 82680, Note_on_c, 1, 53, 0
3, 82680, Note_on_c, 1, 60, 90
3, 82800, Note_on_c, 1, 60, 0
3, 82800, Note_on_c, 1, 65, 90
3, 82920, Note_on_c, 1, 65, 0
3, 82920, Note_on_c, 1, 63, 90
3, 83040, Note_on_c, 1, 63, 0
3, 83040, Note_on_c, 1, 62, 90
3, 83160, Note_on_c, 1, 62, 0
3, 83160, Note_on_c, 1, 65, 90
3, 83280, Note_on_c, 1, 65, 0
3, 83280, Note_on_c, 1, 58, 90
3, 83400, Note_on_c, 1, 58, 0
3, 83400, Note_on_c, 1, 62, 90
3, 83520, Note_on_c, 1, 62, 0
3, 83520, Note_on_c, 1, 55, 90
3, 83760, Note_on_c, 1, 55, 0
3, 83760, Note_on_c, 1, 51, 90
3, 84000, Note_on_c, 1, 51, 0
3, 84000, Note_on_c, 1, 53, 90
3, 84240, Note_on_c, 1, 53, 0
3, 84240, Note_on_c, 1, 55, 90
3, 84480, Note_on_c, 1, 55, 0
3, 84480, Note_on_c, 1, 53, 90
3, 84600, Note_on_c, 1, 53, 0
3, 84600, Note_on_c, 1, 58, 90
3, 84720, Note_on_c, 1, 58, 0
3, 84720, Note_on_c, 1, 62, 90
3, 85200, Note_on_c, 1, 62, 0
3, 85200, Note_on_c, 1, 60, 90
3, 85440, Note_on_c, 1, 60, 0
3, 85440, Note_on_c, 1, 58, 90
3, 85680, Note_on_c, 1, 58, 0
3, 85800, Note_on_c, 1, 62, 90
3, 85920, Note_on_c, 1, 62, 0
3, 85920, Note_on_c, 1, 63, 90
3, 86040, Note_on_c, 1, 63, 0
3, 86040, Note_on_c, 1, 62, 90
3, 86160, Note_on_c, 1, 62, 0
3, 86160, Note_on_c, 1, 60, 90
3, 86280, Note_on_c, 1, 60, 0
3, 86280, Note_on_c, 1, 58, 90
3, 86400, Note_on_c, 1, 58, 0
3, 86400, Note_on_c, 1, 57, 90
3, 86520, Note_on_c, 1, 57, 0
3, 86520, Note_on_c, 1, 58, 90
3, 86640, Note_on_c, 1, 58, 0
3, 86640, Note_on_c, 1, 57, 90
3, 86760, Note_on_c, 1, 57, 0
3, 86760, Note_on_c, 1, 55, 90
3, 86880, Note_on_c, 1, 55, 0
3, 86880, Note_on_c, 1, 54, 90
3, 87000, Note_on_c, 1, 54, 0
3, 87000, Note_on_c, 1, 50, 90
3, 87120, Note_on_c, 1, 50, 0
3, 87120, Note_on_c, 1, 52, 90
3, 87240, Note_on_c, 1, 52, 0
3, 87240, Note_on_c, 1, 54, 90
3, 87360, Note_on_c, 1, 54, 0
3, 87360, Note_on_c, 1, 55, 90
3, 87480, Note_on_c, 1, 55, 0
3, 88320, Note_on_c, 1, 54, 90
3, 88380, Note_on_c, 1, 54, 0
3, 88380, Note_on_c, 1, 57, 90
3, 88440, Note_on_c, 1, 57, 0
3, 88440, Note_on_c, 1, 54, 90
3, 88500, Note_on_c, 1, 54, 0
3, 88500, Note_on_c, 1, 57, 90
3, 88560, Note_on_c, 1, 57, 0
3, 88560, Note_on_c, 1, 55, 90
3, 88620, Note_on_c, 1, 55, 0
3, 88620, Note_on_c, 1, 58, 90
3, 88680, Note_on_c, 1, 58, 0
3, 88680, Note_on_c, 1, 55, 90
3, 88740, Note_on_c, 1, 55, 0
3, 88740, Note_on_c, 1, 58, 90
3, 88800, Note_on_c, 1, 58, 0
3, 88800, Note_on_c, 1, 55, 90
3, 88860, Note_on_c, 1, 55, 0
3, 88860, Note_on_c, 1, 60, 90
3, 88920, Note_on_c, 1, 60, 0
3, 88920, Note_on_c, 1, 55, 90
3, 88980, Note_on_c, 1, 55, 0
3, 88980, Note_on_c, 1, 60, 90
3, 89040, Note_on_c, 1, 60, 0
3, 89040, Note_on_c, 1, 54, 90
3, 89100, Note_on_c, 1, 54, 0
3, 89100, Note_on_c, 1, 60, 90
3, 89160, Note_on_c, 1, 60, 0
3, 89160, Note_on_c, 1, 54, 90
3, 89220, Note_on_c, 1, 54, 0
3, 89220, Note_on_c, 1, 60, 90
3, 89280, Note_on_c, 1, 60, 0
3, 89280, Note_on_c, 1, 55, 90
3, 89340, Note_on_c, 1, 55, 0
3, 89340, Note_on_c, 1, 60, 90
3, 89400, Note_on_c, 1, 60, 0
3, 89400, Note_on_c, 1, 58, 90
3, 89460, Note_on_c, 1, 58, 0
3, 89460, Note_on_c, 1, 57, 90
3, 89520, Note_on_c, 1, 57, 0
3, 89520, Note_on_c, 1, 58, 90
3, 89580, Note_on_c, 1, 58, 0
3, 89580, Note_on_c, 1, 62, 90
3, 89640, Note_on_c, 1, 62, 0
3, 89640, Note_on_c, 1, 58, 90
3, 89700, Note_on_c, 1, 58, 0
3, 89700, Note_on_c, 1, 62, 90
3, 89760, Note_on_c, 1, 62, 0
3, 89760, Note_on_c, 1, 48, 90
3, 89820, Note_on_c, 1, 48, 0
3, 89820, Note_on_c, 1, 62, 90
3, 89880, Note_on_c, 1, 62, 0
3, 89880, Note_on_c, 1, 60, 90
3, 89940, Note_on_c, 1, 60, 0
3, 89940, Note_on_c, 1, 58, 90
3, 90000, Note_on_c, 1, 58, 0
3, 90000, Note_on_c, 1, 60, 90
3, 90060, Note_on_c, 1, 60, 0
3, 90060, Note_on_c, 1, 63, 90
3, 90120, Note_on_c, 1, 63, 0
3, 90120, Note_on_c, 1, 60, 90
3, 90180, Note_on_c, 1, 60, 0
3, 90180, Note_on_c, 1, 63, 90
3, 90240, Note_on_c, 1, 63, 0
3, 90240, Note_on_c, 1, 53, 90
3, 90300, Note_on_c, 1, 53, 0
3, 90300, Note_on_c, 1, 58, 90
3, 90360, Note_on_c, 1, 58, 0
3, 90360, Note_on_c, 1, 56, 90
3, 90420, Note_on_c, 1, 56, 0
3, 90420, Note_on_c, 1, 55, 90
3, 90480, Note_on_c, 1, 55, 0
3, 90480, Note_on_c, 1, 56, 90
3, 90540, Note_on_c, 1, 56, 0
3, 90540, Note_on_c, 1, 60, 90
3, 90600, Note_on_c, 1, 60, 0
3, 90600, Note_on_c, 1, 56, 90
3, 90660, Note_on_c, 1, 56, 0
3, 90660, Note_on_c, 1, 60, 90
3, 90720, Note_on_c, 1, 60, 0
3, 90720, Note_on_c, 1, 46, 90
3, 90780, Note_on_c, 1, 46, 0
3, 90780, Note_on_c, 1, 60, 90
3, 90840, Note_on_c, 1, 60, 0
3, 90840, Note_on_c, 1, 58, 90
3, 90900, Note_on_c, 1, 58, 0
3, 90900, Note_on_c, 1, 56, 90
3, 90960, Note_on_c, 1, 56, 0
3, 90960, Note_on_c, 1, 58, 90
3, 91020, Note_on_c, 1, 58, 0
3, 91020, Note_on_c, 1, 62, 90
3, 91080, Note_on_c, 1, 62, 0
3, 91080, Note_on_c, 1, 58, 90
3, 91140, Note_on_c, 1, 58, 0
3, 91140, Note_on_c, 1, 62, 90
3, 91200, Note_on_c, 1, 62, 0
3, 91200, Note_on_c, 1, 51, 90
3, 91260, Note_on_c, 1, 51, 0
3, 91260, Note_on_c, 1, 56, 90
3, 91320, Note_on_c, 1, 56, 0
3, 91320, Note_on_c, 1, 55, 90
3, 91380, Note_on_c, 1, 55, 0
3, 91380, Note_on_c, 1, 53, 90
3, 91440, Note_on_c, 1, 53, 0
3, 91440, Note_on_c, 1, 55, 90
3, 91500, Note_on_c, 1, 55, 0
3, 91500, Note_on_c, 1, 58, 90
3, 91560, Note_on_c, 1, 58, 0
3, 91560, Note_on_c, 1, 55, 90
3, 91620, Note_on_c, 1, 55, 0
3, 91620, Note_on_c, 1, 58, 90
3, 91680, Note_on_c, 1, 58, 0
3, 91680, Note_on_c, 1, 44, 90
3, 91740, Note_on_c, 1, 44, 0
3, 91740, Note_on_c, 1, 58, 90
3, 91800, Note_on_c, 1, 58, 0
3, 91800, Note_on_c, 1, 56, 90
3, 91860, Note_on_c, 1, 56, 0
3, 91860, Note_on_c, 1, 55, 90
3, 91920, Note_on_c, 1, 55, 0
3, 91920, Note_on_c, 1, 56, 90
3, 91980, Note_on_c, 1, 56, 0
3, 91980, Note_on_c, 1, 60, 90
3, 92040, Note_on_c, 1, 60, 0
3, 92040, Note_on_c, 1, 56, 90
3, 92100, Note_on_c, 1, 56, 0
3, 92100, Note_on_c, 1, 60, 90
3, 92160, Note_on_c, 1, 60, 0
3, 92160, Note_on_c, 1, 49, 90
3, 92220, Note_on_c, 1, 49, 0
3, 92220, Note_on_c, 1, 55, 90
3, 92280, Note_on_c, 1, 55, 0
3, 92280, Note_on_c, 1, 53, 90
3, 92340, Note_on_c, 1, 53, 0
3, 92340, Note_on_c, 1, 52, 90
3, 92400, Note_on_c, 1, 52, 0
3, 92400, Note_on_c, 1, 53, 90
3, 92460, Note_on_c, 1, 53, 0
3, 92460, Note_on_c, 1, 56, 90
3, 92520, Note_on_c, 1, 56, 0
3, 92520, Note_on_c, 1, 53, 90
3, 92580, Note_on_c, 1, 53, 0
3, 92580, Note_on_c, 1, 56, 90
3, 92640, Note_on_c, 1, 56, 0
3, 92640, Note_on_c, 1, 43, 90
3, 92700, Note_on_c, 1, 43, 0
3, 92700, Note_on_c, 1, 56, 90
3, 92760, Note_on_c, 1, 56, 0
3, 92760, Note_on_c, 1, 55, 90
3, 92820, Note_on_c, 1, 55, 0
3, 92820, Note_on_c, 1, 53, 90
3, 92880, Note_on_c, 1, 53, 0
3, 92880, Note_on_c, 1, 55, 90
3, 92940, Note_on_c, 1, 55, 0
3, 92940, Note_on_c, 1, 58, 90
3, 93000, Note_on_c, 1, 58, 0
3, 93000, Note_on_c, 1, 55, 90
3, 93060, Note_on_c, 1, 55, 0
3, 93060, Note_on_c, 1, 58, 90
3, 93120, Note_on_c, 1, 58, 0
3, 93120, Note_on_c, 1, 48, 90
3, 93360, Note_on_c, 1, 48, 0
3, 93600, Note_on_c, 1, 60, 90
3, 93960, Note_on_c, 1, 60, 0
3, 93960, Note_on_c, 1, 58, 115
3, 94080, Note_on_c, 1, 58, 0
3, 94080, Note_on_c, 1, 58, 115
3, 94560, Note_on_c, 1, 58, 0
3, 94560, Note_on_c, 1, 56, 115
3, 95040, Note_on_c, 1, 58, 115
3, 95400, Note_on_c, 1, 56, 0
3, 95460, Note_on_c, 1, 56, 115
3, 95520, Note_on_c, 1, 56, 0
3, 95520, Note_on_c, 1, 58, 0
3, 95520, Note_on_c, 1, 55, 115
3, 95940, Note_on_c, 1, 58, 115
3, 96000, Note_on_c, 1, 58, 0
3, 96000, Note_on_c, 1, 55, 0
3, 96000, Note_on_c, 1, 56, 115
3, 96480, Note_on_c, 1, 56, 0
3, 97140, Note_on_c, 1, 60, 115
3, 97200, Note_on_c, 1, 60, 0
3, 97200, Note_on_c, 1, 58, 115
3, 97380, Note_on_c, 1, 58, 0
3, 97380, Note_on_c, 1, 56, 115
3, 97440, Note_on_c, 1, 56, 0
3, 97440, Note_on_c, 1, 58, 115
3, 97620, Note_on_c, 1, 58, 0
3, 97620, Note_on_c, 1, 53, 115
3, 97680, Note_on_c, 1, 53, 0
3, 97680, Note_on_c, 1, 55, 115
3, 97860, Note_on_c, 1, 55, 0
3, 97860, Note_on_c, 1, 56, 115
3, 97920, Note_on_c, 1, 56, 0
3, 97920, Note_on_c, 1, 51, 115
3, 98100, Note_on_c, 1, 51, 0
3, 98100, Note_on_c, 1, 56, 115
3, 98160, Note_on_c, 1, 56, 0
3, 98160, Note_on_c, 1, 60, 115
3, 98340, Note_on_c, 1, 60, 0
3, 98340, Note_on_c, 1, 62, 115
3, 98400, Note_on_c, 1, 62, 0
3, 98400, Note_on_c, 1, 63, 115
3, 98760, Note_on_c, 1, 63, 0
3, 98820, Note_on_c, 1, 60, 115
3, 98880, Note_on_c, 1, 60, 0
3, 98880, Note_on_c, 1, 61, 115
3, 99060, Note_on_c, 1, 61, 0
3, 99060, Note_on_c, 1, 63, 115
3, 99120, Note_on_c, 1, 63, 0
3, 99120, Note_on_c, 1, 61, 115
3, 99300, Note_on_c, 1, 61, 0
3, 99300, Note_on_c, 1, 60, 115
3, 99360, Note_on_c, 1, 60, 0
3, 99360, Note_on_c, 1, 61, 115
3, 99540, Note_on_c, 1, 61, 0
3, 99540, Note_on_c, 1, 70, 115
3, 99600, Note_on_c, 1, 70, 0
3, 99600, Note_on_c, 1, 63, 115
3, 99780, Note_on_c, 1, 63, 0
3, 99780, Note_on_c, 1, 61, 115
3, 99840, Note_on_c, 1, 61, 0
3, 99840, Note_on_c, 1, 60, 115
3, 100020, Note_on_c, 1, 60, 0
3, 100020, Note_on_c, 1, 61, 115
3, 100080, Note_on_c, 1, 61, 0
3, 100080, Note_on_c, 1, 60, 115
3, 100260, Note_on_c, 1, 60, 0
3, 100260, Note_on_c, 1, 58, 115
3, 100320, Note_on_c, 1, 58, 0
3, 100320, Note_on_c, 1, 60, 115
3, 100500, Note_on_c, 1, 60, 0
3, 100500, Note_on_c, 1, 68, 115
3, 100560, Note_on_c, 1, 68, 0
3, 100560, Note_on_c, 1, 60, 115
3, 100740, Note_on_c, 1, 60, 0
3, 100740, Note_on_c, 1, 58, 115
3, 100800, Note_on_c, 1, 58, 0
3, 100800, Note_on_c, 1, 56, 115
3, 100980, Note_on_c, 1, 56, 0
3, 100980, Note_on_c, 1, 58, 115
3, 101040, Note_on_c, 1, 58, 0
3, 101040, Note_on_c, 1, 56, 115
3, 101220, Note_on_c, 1, 56, 0
3, 101220, Note_on_c, 1, 55, 115
3, 101280, Note_on_c, 1, 55, 0
3, 101280, Note_on_c, 1, 56, 115
3, 101460, Note_on_c, 1, 56, 0
3, 101460, Note_on_c, 1, 65, 115
3, 101520, Note_on_c, 1, 65, 0
3, 101520, Note_on_c, 1, 58, 115
3, 101700, Note_on_c, 1, 58, 0
3, 101700, Note_on_c, 1, 56, 115
3, 101760, Note_on_c, 1, 56, 0
3, 101760, Note_on_c, 1, 55, 115
3, 101940, Note_on_c, 1, 55, 0
3, 101940, Note_on_c, 1, 56, 115
3, 102000, Note_on_c, 1, 56, 0
3, 102000, Note_on_c, 1, 55, 115
3, 102180, Note_on_c, 1, 55, 0
3, 102180, Note_on_c, 1, 53, 115
3, 102240, Note_on_c, 1, 53, 0
3, 102240, Note_on_c, 1, 55, 115
3, 102420, Note_on_c, 1, 55, 0
3, 102420, Note_on_c, 1, 51, 115
3, 102480, Note_on_c, 1, 51, 0
3, 102480, Note_on_c, 1, 55, 115
3, 102660, Note_on_c, 1, 55, 0
3, 102660, Note_on_c, 1, 58, 115
3, 102720, Note_on_c, 1, 58, 0
3, 104640, Note_on_c, 1, 60, 115
3, 104820, Note_on_c, 1, 60, 0
3, 104820, Note_on_c, 1, 61, 115
3, 104880, Note_on_c, 1, 61, 0
3, 104880, Note_on_c, 1, 63, 115
3, 105060, Note_on_c, 1, 63, 0
3, 105060, Note_on_c, 1, 56, 115
3, 105120, Note_on_c, 1, 56, 0
3, 105120, Note_on_c, 1, 60, 115
3, 105300, Note_on_c, 1, 60, 0
3, 105300, Note_on_c, 1, 58, 115
3, 105360, Note_on_c, 1, 58, 0
3, 105360, Note_on_c, 1, 56, 115
3, 105540, Note_on_c, 1, 56, 0
3, 105540, Note_on_c, 1, 55, 115
3, 105540, Note_on_c, 1, 63, 115
3, 105600, Note_on_c, 1, 63, 0
3, 105600, Note_on_c, 1, 55, 0
3, 105600, Note_on_c, 1, 63, 115
3, 105600, Note_on_c, 1, 55, 115
3, 106080, Note_on_c, 1, 55, 0
3, 106080, Note_on_c, 1, 56, 115
3, 106560, Note_on_c, 1, 56, 0
3, 106560, Note_on_c, 1, 63, 0
3, 106800, Note_on_c, 1, 61, 115
3, 106920, Note_on_c, 1, 61, 0
3, 107040, Note_on_c, 1, 58, 115
3, 107160, Note_on_c, 1, 58, 0
3, 107280, Note_on_c, 1, 56, 115
3, 107400, Note_on_c, 1, 56, 0
3, 107520, Note_on_c, 1, 55, 115
3, 107640, Note_on_c, 1, 55, 0
3, 107760, Note_on_c, 1, 56, 115
3, 107880, Note_on_c, 1, 56, 0
3, 108720, Note_on_c, 1, 61, 60
3, 108840, Note_on_c, 1, 61, 0
3, 108960, Note_on_c, 1, 58, 60
3, 109080, Note_on_c, 1, 58, 0
3, 109200, Note_on_c, 1, 56, 60
3, 109320, Note_on_c, 1, 56, 0
3, 109440, Note_on_c, 1, 55, 60
3, 109560, Note_on_c, 1, 55, 0
3, 109680, Note_on_c, 1, 56, 60
3, 109800, Note_on_c, 1, 56, 0
3, 110640, Note_on_c, 1, 56, 115
3, 110760, Note_on_c, 1, 56, 0
3, 110880, Note_on_c, 1, 53, 115
3, 111000, Note_on_c, 1, 53, 0
3, 111120, Note_on_c, 1, 51, 115
3, 111240, Note_on_c, 1, 51, 0
3, 111360, Note_on_c, 1, 50, 115
3, 111480, Note_on_c, 1, 50, 0
3, 111600, Note_on_c, 1, 51, 115
3, 111720, Note_on_c, 1, 51, 0
3, 112560, Note_on_c, 1, 56, 60
3, 112680, Note_on_c, 1, 56, 0
3, 112800, Note_on_c, 1, 53, 60
3, 112920, Note_on_c, 1, 53, 0
3, 113040, Note_on_c, 1, 51, 60
3, 113160, Note_on_c, 1, 51, 0
3, 113280, Note_on_c, 1, 50, 60
3, 113400, Note_on_c, 1, 50, 0
3, 113520, Note_on_c, 1, 51, 60
3, 113640, Note_on_c, 1, 51, 0
3, 118080, Note_on_c, 1, 51, 115
3, 118320, Note_on_c, 1, 51, 0
3, 118320, Note_on_c, 1, 53, 115
3, 118560, Note_on_c, 1, 53, 0
3, 118560, Note_on_c, 1, 54, 115
3, 118800, Note_on_c, 1, 54, 0
3, 118800, Note_on_c, 1, 51, 115
3, 119040, Note_on_c, 1, 51, 0
3, 119040, Note_on_c, 1, 58, 115
3, 119280, Note_on_c, 1, 58, 0
3, 119280, Note_on_c, 1, 60, 115
3, 119520, Note_on_c, 1, 60, 0
3, 119520, Note_on_c, 1, 62, 115
3, 119760, Note_on_c, 1, 62, 0
3, 119760, Note_on_c, 1, 58, 115
3, 120000, Note_on_c, 1, 58, 0
3, 122400, Note_on_c, 1, 58, 115
3, 122880, Note_on_c, 1, 58, 0
3, 122880, Note_on_c, 1, 51, 115
3, 122880, Note_on_c, 1, 63, 115
3, 123360, Note_on_c, 1, 51, 0
3, 123540, Note_on_c, 1, 63, 0
3, 123540, Note_on_c, 1, 60, 115
3, 123600, Note_on_c, 1, 60, 0
3, 123600, Note_on_c, 1, 58, 115
3, 123780, Note_on_c, 1, 58, 0
3, 123780, Note_on_c, 1, 56, 115
3, 123840, Note_on_c, 1, 56, 0
3, 123840, Note_on_c, 1, 58, 115
3, 123960, Note_on_c, 1, 58, 0
3, 123960, Note_on_c, 1, 63, 115
3, 124200, Note_on_c, 1, 63, 0
3, 124200, Note_on_c, 1, 63, 115
3, 124380, Note_on_c, 1, 63, 0
3, 124380, Note_on_c, 1, 62, 115
3, 124440, Note_on_c, 1, 62, 0
3, 124440, Note_on_c, 1, 60, 115
3, 124500, Note_on_c, 1, 60, 0
3, 124500, Note_on_c, 1, 58, 115
3, 124560, Note_on_c, 1, 58, 0
3, 124560, Note_on_c, 1, 56, 115
3, 124620, Note_on_c, 1, 56, 0
3, 124620, Note_on_c, 1, 55, 115
3, 124680, Note_on_c, 1, 55, 0
3, 124680, Note_on_c, 1, 53, 115
3, 124740, Note_on_c, 1, 53, 0
3, 124740, Note_on_c, 1, 51, 115
3, 124800, Note_on_c, 1, 51, 0
3, 124800, Note_on_c, 1, 50, 115
3, 124860, Note_on_c, 1, 50, 0
3, 124860, Note_on_c, 1, 53, 115
3, 124920, Note_on_c, 1, 53, 0
3, 124920, Note_on_c, 1, 50, 115
3, 124980, Note_on_c, 1, 50, 0
3, 124980, Note_on_c, 1, 53, 115
3, 125040, Note_on_c, 1, 53, 0
3, 125040, Note_on_c, 1, 51, 115
3, 125100, Note_on_c, 1, 51, 0
3, 125100, Note_on_c, 1, 55, 115
3, 125160, Note_on_c, 1, 55, 0
3, 125160, Note_on_c, 1, 51, 115
3, 125220, Note_on_c, 1, 51, 0
3, 125220, Note_on_c, 1, 55, 115
3, 125280, Note_on_c, 1, 55, 0
3, 125280, Note_on_c, 1, 51, 115
3, 125340, Note_on_c, 1, 51, 0
3, 125340, Note_on_c, 1, 56, 115
3, 125400, Note_on_c, 1, 56, 0
3, 125400, Note_on_c, 1, 51, 115
3, 125460, Note_on_c, 1, 51, 0
3, 125460, Note_on_c, 1, 56, 115
3, 125520, Note_on_c, 1, 56, 0
3, 125520, Note_on_c, 1, 50, 115
3, 125580, Note_on_c, 1, 50, 0
3, 125580, Note_on_c, 1, 56, 115
3, 125640, Note_on_c, 1, 56, 0
3, 125640, Note_on_c, 1, 50, 115
3, 125700, Note_on_c, 1, 50, 0
3, 125700, Note_on_c, 1, 56, 115
3, 125760, Note_on_c, 1, 56, 0
3, 125760, Note_on_c, 1, 55, 115
3, 126000, Note_on_c, 1, 55, 0
3, 126000, Note_on_c, 1, 53, 115
3, 126240, Note_on_c, 1, 53, 0
3, 126240, Note_on_c, 1, 51, 115
3, 126960, Note_on_c, 1, 51, 0
3, 126960, Note_on_c, 1, 50, 115
3, 127200, Note_on_c, 1, 50, 0
3, 127200, Note_on_c, 1, 48, 115
3, 127680, Note_on_c, 1, 48, 0
3, 127680, Note_on_c, 1, 46, 115
3, 127920, Note_on_c, 1, 46, 0
3, 127920, Note_on_c, 1, 53, 115
3, 128220, Note_on_c, 1, 53, 0
3, 128220, Note_on_c, 1, 53, 115
3, 128280, Note_on_c, 1, 53, 0
3, 128280, Note_on_c, 1, 51, 115
3, 128340, Note_on_c, 1, 51, 0
3, 128340, Note_on_c, 1, 50, 115
3, 128400, Note_on_c, 1, 50, 0
3, 128400, Note_on_c, 1, 51, 115
3, 128460, Note_on_c, 1, 51, 0
3, 128460, Note_on_c, 1, 55, 115
3, 128520, Note_on_c, 1, 55, 0
3, 128520, Note_on_c, 1, 51, 115
3, 128580, Note_on_c, 1, 51, 0
3, 128580, Note_on_c, 1, 55, 115
3, 128640, Note_on_c, 1, 55, 0
3, 128640, Note_on_c, 1, 60, 115
3, 129120, Note_on_c, 1, 60, 0
3, 129120, Note_on_c, 1, 58, 115
3, 129600, Note_on_c, 1, 58, 0
3, 129600, Note_on_c, 1, 56, 115
3, 130080, Note_on_c, 1, 56, 0
3, 130080, Note_on_c, 1, 58, 115
3, 130320, Note_on_c, 1, 58, 0
3, 130320, Note_on_c, 1, 60, 115
3, 130560, Note_on_c, 1, 60, 0
3, 130560, Note_on_c, 1, 53, 115
3, 130560, Note_on_c, 1, 58, 115
3, 130800, Note_on_c, 1, 53, 0
3, 130800, Note_on_c, 1, 55, 115
3, 131040, Note_on_c, 1, 55, 0
3, 131040, Note_on_c, 1, 58, 0
3, 131040, Note_on_c, 1, 56, 115
3, 131040, Note_on_c, 1, 60, 115
3, 131280, Note_on_c, 1, 60, 0
3, 131280, Note_on_c, 1, 56, 0
3, 131280, Note_on_c, 1, 58, 115
3, 131280, Note_on_c, 1, 53, 115
3, 131520, Note_on_c, 1, 53, 0
3, 131520, Note_on_c, 1, 58, 0
3, 131520, Note_on_c, 1, 51, 115
3, 131520, Note_on_c, 1, 58, 115
3, 132060, Note_on_c, 1, 58, 0
3, 132060, Note_on_c, 1, 58, 115
3, 132120, Note_on_c, 1, 58, 0
3, 132120, Note_on_c, 1, 56, 115
3, 132180, Note_on_c, 1, 56, 0
3, 132180, Note_on_c, 1, 55, 115
3, 132240, Note_on_c, 1, 55, 0
3, 132240, Note_on_c, 1, 56, 115
3, 132300, Note_on_c, 1, 56, 0
3, 132300, Note_on_c, 1, 60, 115
3, 132360, Note_on_c, 1, 60, 0
3, 132360, Note_on_c, 1, 56, 115
3, 132420, Note_on_c, 1, 56, 0
3, 132420, Note_on_c, 1, 60, 115
3, 132480, Note_on_c, 1, 60, 0
3, 132480, Note_on_c, 1, 51, 0
3, 132480, Note_on_c, 1, 50, 115
3, 132480, Note_on_c, 1, 53, 115
3, 133020, Note_on_c, 1, 53, 0
3, 133020, Note_on_c, 1, 56, 115
3, 133080, Note_on_c, 1, 56, 0
3, 133080, Note_on_c, 1, 55, 115
3, 133140, Note_on_c, 1, 55, 0
3, 133140, Note_on_c, 1, 53, 115
3, 133200, Note_on_c, 1, 53, 0
3, 133200, Note_on_c, 1, 55, 115
3, 133260, Note_on_c, 1, 55, 0
3, 133260, Note_on_c, 1, 58, 115
3, 133320, Note_on_c, 1, 58, 0
3, 133320, Note_on_c, 1, 55, 115
3, 133380, Note_on_c, 1, 55, 0
3, 133380, Note_on_c, 1, 58, 115
3, 133440, Note_on_c, 1, 58, 0
3, 133440, Note_on_c, 1, 50, 0
3, 133440, Note_on_c, 1, 48, 115
3, 133440, Note_on_c, 1, 51, 115
3, 133980, Note_on_c, 1, 51, 0
3, 133980, Note_on_c, 1, 55, 115
3, 134040, Note_on_c, 1, 55, 0
3, 134040, Note_on_c, 1, 53, 115
3, 134100, Note_on_c, 1, 53, 0
3, 134100, Note_on_c, 1, 51, 115
3, 134160, Note_on_c, 1, 51, 0
3, 134160, Note_on_c, 1, 48, 0
3, 134160, Note_on_c, 1, 53, 115
3, 134220, Note_on_c, 1, 53, 0
3, 134220, Note_on_c, 1, 57, 115
3, 134280, Note_on_c, 1, 57, 0
3, 134280, Note_on_c, 1, 53, 115
3, 134340, Note_on_c, 1, 53, 0
3, 134340, Note_on_c, 1, 57, 115
3, 134400, Note_on_c, 1, 57, 0
3, 134400, Note_on_c, 1, 58, 115
3, 134460, Note_on_c, 1, 58, 0
3, 134460, Note_on_c, 1, 60, 115
3, 134520, Note_on_c, 1, 60, 0
3, 134520, Note_on_c, 1, 58, 115
3, 134580, Note_on_c, 1, 58, 0
3, 134580, Note_on_c, 1, 57, 115
3, 134640, Note_on_c, 1, 57, 0
3, 134640, Note_on_c, 1, 58, 115
3, 134700, Note_on_c, 1, 58, 0
3, 134700, Note_on_c, 1, 62, 115
3, 134760, Note_on_c, 1, 62, 0
3, 134760, Note_on_c, 1, 58, 115
3, 134820, Note_on_c, 1, 58, 0
3, 134820, Note_on_c, 1, 62, 115
3, 134880, Note_on_c, 1, 62, 0
3, 134880, Note_on_c, 1, 63, 115
3, 135360, Note_on_c, 1, 53, 115
3, 135600, Note_on_c, 1, 53, 0
3, 135600, Note_on_c, 1, 63, 0
3, 135600, Note_on_c, 1, 58, 115
3, 135600, Note_on_c, 1, 62, 115
3, 135840, Note_on_c, 1, 62, 0
3, 135840, Note_on_c, 1, 58, 0
3, 135840, Note_on_c, 1, 60, 115
3, 135840, Note_on_c, 1, 55, 115
3, 136080, Note_on_c, 1, 55, 0
3, 136080, Note_on_c, 1, 53, 115
3, 136320, Note_on_c, 1, 60, 0
3, 136320, Note_on_c, 1, 58, 115
3, 136440, Note_on_c, 1, 58, 0
3, 136440, Note_on_c, 1, 53, 0
3, 136440, Note_on_c, 1, 45, 115
3, 136560, Note_on_c, 1, 45, 0
3, 136560, Note_on_c, 1, 46, 115
3, 136680, Note_on_c, 1, 46, 0
3, 136680, Note_on_c, 1, 48, 115
3, 136680, Note_on_c, 1, 51, 115
3, 136800, Note_on_c, 1, 51, 0
3, 136800, Note_on_c, 1, 48, 0
3, 136800, Note_on_c, 1, 50, 115
3, 136800, Note_on_c, 1, 53, 115
3, 136920, Note_on_c, 1, 53, 0
3, 136920, Note_on_c, 1, 50, 0
3, 136920, Note_on_c, 1, 46, 115
3, 137040, Note_on_c, 1, 46, 0
3, 137040, Note_on_c, 1, 48, 115
3, 137160, Note_on_c, 1, 48, 0
3, 137160, Note_on_c, 1, 58, 115
3, 137160, Note_on_c, 1, 50, 115
3, 137280, Note_on_c, 1, 50, 0
3, 137280, Note_on_c, 1, 51, 115
3, 137340, Note_on_c, 1, 58, 0
3, 137340, Note_on_c, 1, 68, 115
3, 137400, Note_on_c, 1, 68, 0
3, 137400, Note_on_c, 1, 51, 0
3, 137400, Note_on_c, 1, 50, 115
3, 137400, Note_on_c, 1, 67, 115
3, 137460, Note_on_c, 1, 67, 0
3, 137460, Note_on_c, 1, 65, 115
3, 137520, Note_on_c, 1, 65, 0
3, 137520, Note_on_c, 1, 50, 0
3, 137520, Note_on_c, 1, 51, 115
3, 137520, Note_on_c, 1, 67, 115
3, 137580, Note_on_c, 1, 67, 0
3, 137580, Note_on_c, 1, 65, 115
3, 137640, Note_on_c, 1, 65, 0
3, 137640, Note_on_c, 1, 51, 0
3, 137640, Note_on_c, 1, 53, 115
3, 137640, Note_on_c, 1, 63, 115
3, 137700, Note_on_c, 1, 63, 0
3, 137700, Note_on_c, 1, 62, 115
3, 137760, Note_on_c, 1, 62, 0
3, 137760, Note_on_c, 1, 53, 0
3, 137760, Note_on_c, 1, 55, 115
3, 137760, Note_on_c, 1, 63, 115
3, 137820, Note_on_c, 1, 63, 0
3, 137820, Note_on_c, 1, 65, 115
3, 137880, Note_on_c, 1, 65, 0
3, 137880, Note_on_c, 1, 55, 0
3, 137880, Note_on_c, 1, 51, 115
3, 137880, Note_on_c, 1, 63, 115
3, 137940, Note_on_c, 1, 63, 0
3, 137940, Note_on_c, 1, 62, 115
3, 138000, Note_on_c, 1, 62, 0
3, 138000, Note_on_c, 1, 51, 0
3, 138000, Note_on_c, 1, 53, 115
3, 138000, Note_on_c, 1, 63, 115
3, 138060, Note_on_c, 1, 63, 0
3, 138060, Note_on_c, 1, 62, 115
3, 138120, Note_on_c, 1, 62, 0
3, 138120, Note_on_c, 1, 53, 0
3, 138120, Note_on_c, 1, 55, 115
3, 138120, Note_on_c, 1, 60, 115
3, 138180, Note_on_c, 1, 60, 0
3, 138180, Note_on_c, 1, 59, 115
3, 138240, Note_on_c, 1, 59, 0
3, 138240, Note_on_c, 1, 55, 0
3, 138240, Note_on_c, 1, 56, 115
3, 138240, Note_on_c, 1, 60, 115
3, 138960, Note_on_c, 1, 60, 0
3, 138960, Note_on_c, 1, 56, 0
3, 138960, Note_on_c, 1, 59, 115
3, 139080, Note_on_c, 1, 59, 0
3, 139080, Note_on_c, 1, 60, 115
3, 139200, Note_on_c, 1, 60, 0
3, 139440, Note_on_c, 1, 55, 115
3, 139680, Note_on_c, 1, 55, 0
3, 139680, Note_on_c, 1, 56, 115
3, 139920, Note_on_c, 1, 56, 0
3, 139920, Note_on_c, 1, 55, 115
3, 140160, Note_on_c, 1, 60, 115
3, 140280, Note_on_c, 1, 60, 0
3, 140280, Note_on_c, 1, 55, 0
3, 140280, Note_on_c, 1, 59, 115
3, 140400, Note_on_c, 1, 59, 0
3, 140400, Note_on_c, 1, 60, 115
3, 140520, Note_on_c, 1, 60, 0
3, 140520, Note_on_c, 1, 62, 115
3, 140640, Note_on_c, 1, 62, 0
3, 140640, Note_on_c, 1, 63, 115
3, 140760, Note_on_c, 1, 63, 0
3, 140760, Note_on_c, 1, 60, 115
3, 140880, Note_on_c, 1, 60, 0
3, 140880, Note_on_c, 1, 62, 115
3, 141000, Note_on_c, 1, 62, 0
3, 141000, Note_on_c, 1, 64, 115
3, 141120, Note_on_c, 1, 64, 0
3, 141240, Note_on_c, 1, 60, 115
3, 141360, Note_on_c, 1, 60, 0
3, 141360, Note_on_c, 1, 53, 115
3, 141480, Note_on_c, 1, 53, 0
3, 141480, Note_on_c, 1, 55, 115
3, 141600, Note_on_c, 1, 55, 0
3, 141600, Note_on_c, 1, 57, 115
3, 141720, Note_on_c, 1, 57, 0
3, 141720, Note_on_c, 1, 53, 115
3, 141840, Note_on_c, 1, 53, 0
3, 141840, Note_on_c, 1, 55, 115
3, 141960, Note_on_c, 1, 55, 0
3, 141960, Note_on_c, 1, 57, 115
3, 142080, Note_on_c, 1, 57, 0
3, 142080, Note_on_c, 1, 58, 115
3, 142080, Note_on_c, 1, 62, 115
3, 142680, Note_on_c, 1, 62, 0
3, 142680, Note_on_c, 1, 58, 0
3, 142680, Note_on_c, 1, 65, 115
3, 142680, Note_on_c, 1, 55, 115
3, 142800, Note_on_c, 1, 55, 0
3, 142800, Note_on_c, 1, 65, 0
3, 142800, Note_on_c, 1, 57, 115
3, 142800, Note_on_c, 1, 63, 115
3, 142920, Note_on_c, 1, 63, 0
3, 142920, Note_on_c, 1, 57, 0
3, 142920, Note_on_c, 1, 58, 115
3, 142920, Note_on_c, 1, 62, 115
3, 143040, Note_on_c, 1, 62, 0
3, 143040, Note_on_c, 1, 58, 0
3, 143040, Note_on_c, 1, 60, 115
3, 143280, Note_on_c, 1, 60, 0
3, 143280, Note_on_c, 1, 53, 115
3, 143280, Note_on_c, 1, 62, 115
3, 143520, Note_on_c, 1, 62, 0
3, 143520, Note_on_c, 1, 53, 0
3, 143520, Note_on_c, 1, 63, 115
3, 143520, Note_on_c, 1, 55, 115
3, 143760, Note_on_c, 1, 55, 0
3, 143760, Note_on_c, 1, 63, 0
3, 143760, Note_on_c, 1, 65, 115
3, 143760, Note_on_c, 1, 53, 115
3, 144000, Note_on_c, 1, 53, 0
3, 144000, Note_on_c, 1, 58, 115
3, 144060, Note_on_c, 1, 65, 0
3, 144240, Note_on_c, 1, 58, 0
3, 144960, Note_on_c, 1, 52, 115
3, 145020, Note_on_c, 1, 52, 0
3, 145020, Note_on_c, 1, 55, 115
3, 145080, Note_on_c, 1, 55, 0
3, 145080, Note_on_c, 1, 52, 115
3, 145140, Note_on_c, 1, 52, 0
3, 145140, Note_on_c, 1, 55, 115
3, 145200, Note_on_c, 1, 55, 0
3, 145200, Note_on_c, 1, 53, 115
3, 145260, Note_on_c, 1, 53, 0
3, 145260, Note_on_c, 1, 56, 115
3, 145320, Note_on_c, 1, 56, 0
3, 145320, Note_on_c, 1, 53, 115
3, 145380, Note_on_c, 1, 53, 0
3, 145380, Note_on_c, 1, 56, 115
3, 145440, Note_on_c, 1, 56, 0
3, 145440, Note_on_c, 1, 53, 115
3, 145500, Note_on_c, 1, 53, 0
3, 145500, Note_on_c, 1, 58, 115
3, 145560, Note_on_c, 1, 58, 0
3, 145560, Note_on_c, 1, 53, 115
3, 145620, Note_on_c, 1, 53, 0
3, 145620, Note_on_c, 1, 58, 115
3, 145680, Note_on_c, 1, 58, 0
3, 145680, Note_on_c, 1, 52, 115
3, 145740, Note_on_c, 1, 52, 0
3, 145740, Note_on_c, 1, 58, 115
3, 145800, Note_on_c, 1, 58, 0
3, 145800, Note_on_c, 1, 52, 115
3, 145860, Note_on_c, 1, 52, 0
3, 145860, Note_on_c, 1, 58, 115
3, 145920, Note_on_c, 1, 58, 0
3, 145920, Note_on_c, 1, 56, 115
3, 146400, Note_on_c, 1, 56, 0
3, 146400, Note_on_c, 1, 56, 115
3, 146640, Note_on_c, 1, 56, 0
3, 146640, Note_on_c, 1, 61, 115
3, 147120, Note_on_c, 1, 61, 0
3, 147120, Note_on_c, 1, 60, 115
3, 147360, Note_on_c, 1, 60, 0
3, 147360, Note_on_c, 1, 58, 115
3, 147840, Note_on_c, 1, 58, 0
3, 147840, Note_on_c, 1, 60, 115
3, 148080, Note_on_c, 1, 60, 0
3, 148080, Note_on_c, 1, 60, 115
3, 148080, Note_on_c, 1, 56, 115
3, 148320, Note_on_c, 1, 56, 0
3, 148320, Note_on_c, 1, 60, 0
3, 148320, Note_on_c, 1, 58, 115
3, 148320, Note_on_c, 1, 56, 115
3, 148380, Note_on_c, 1, 56, 0
3, 148380, Note_on_c, 1, 58, 0
3, 148380, Note_on_c, 1, 60, 115
3, 148440, Note_on_c, 1, 60, 0
3, 148440, Note_on_c, 1, 58, 115
3, 148500, Note_on_c, 1, 58, 0
3, 148500, Note_on_c, 1, 56, 115
3, 148560, Note_on_c, 1, 56, 0
3, 148560, Note_on_c, 1, 55, 115
3, 148620, Note_on_c, 1, 55, 0
3, 148620, Note_on_c, 1, 58, 115
3, 148680, Note_on_c, 1, 58, 0
3, 148680, Note_on_c, 1, 55, 115
3, 148740, Note_on_c, 1, 55, 0
3, 148740, Note_on_c, 1, 58, 115
3, 148800, Note_on_c, 1, 58, 0
3, 148800, Note_on_c, 1, 51, 115
3, 148920, Note_on_c, 1, 51, 0
3, 148920, Note_on_c, 1, 55, 115
3, 149040, Note_on_c, 1, 55, 0
3, 149040, Note_on_c, 1, 60, 115
3, 149340, Note_on_c, 1, 60, 0
3, 149340, Note_on_c, 1, 63, 115
3, 149400, Note_on_c, 1, 63, 0
3, 149400, Note_on_c, 1, 62, 115
3, 149460, Note_on_c, 1, 62, 0
3, 149460, Note_on_c, 1, 60, 115
3, 149520, Note_on_c, 1, 60, 0
3, 149520, Note_on_c, 1, 58, 115
3, 149580, Note_on_c, 1, 58, 0
3, 149580, Note_on_c, 1, 56, 115
3, 149640, Note_on_c, 1, 56, 0
3, 149640, Note_on_c, 1, 55, 115
3, 149700, Note_on_c, 1, 55, 0
3, 149700, Note_on_c, 1, 53, 115
3, 149760, Note_on_c, 1, 53, 0
3, 149760, Note_on_c, 1, 51, 115
3, 149940, Note_on_c, 1, 51, 0
3, 149940, Note_on_c, 1, 53, 115
3, 150000, Note_on_c, 1, 53, 0
3, 150000, Note_on_c, 1, 55, 115
3, 150240, Note_on_c, 1, 55, 0
3, 150240, Note_on_c, 1, 56, 115
3, 150240, Note_on_c, 1, 60, 115
3, 150720, Note_on_c, 1, 60, 0
3, 150720, Note_on_c, 1, 58, 115
3, 150960, Note_on_c, 1, 58, 0
3, 150960, Note_on_c, 1, 56, 0
3, 150960, Note_on_c, 1, 51, 115
3, 150960, Note_on_c, 1, 55, 115
3, 151200, Note_on_c, 1, 55, 0
3, 151200, Note_on_c, 1, 51, 0
3, 151200, Note_on_c, 1, 53, 115
3, 151200, Note_on_c, 1, 60, 115
3, 151440, Note_on_c, 1, 60, 0
3, 151440, Note_on_c, 1, 58, 115
3, 151680, Note_on_c, 1, 58, 0
3, 151680, Note_on_c, 1, 53, 0
3, 151680, Note_on_c, 1, 51, 115
3, 151680, Note_on_c, 1, 58, 115
3, 151740, Note_on_c, 1, 58, 0
3, 151740, Note_on_c, 1, 51, 0
3, 151740, Note_on_c, 1, 50, 115
3, 151740, Note_on_c, 1, 65, 115
3, 151800, Note_on_c, 1, 65, 0
3, 151800, Note_on_c, 1, 50, 0
3, 151800, Note_on_c, 1, 48, 115
3, 151800, Note_on_c, 1, 63, 115
3, 151860, Note_on_c, 1, 63, 0
3, 151860, Note_on_c, 1, 48, 0
3, 151860, Note_on_c, 1, 46, 115
3, 151860, Note_on_c, 1, 62, 115
3, 151920, Note_on_c, 1, 62, 0
3, 151920, Note_on_c, 1, 46, 0
3, 151920, Note_on_c, 1, 48, 115
3, 151920, Note_on_c, 1, 63, 115
3, 151980, Note_on_c, 1, 63, 0
3, 151980, Note_on_c, 1, 48, 0
3, 151980, Note_on_c, 1, 46, 115
3, 151980, Note_on_c, 1, 62, 115
3, 152040, Note_on_c, 1, 62, 0
3, 152040, Note_on_c, 1, 46, 0
3, 152040, Note_on_c, 1, 44, 115
3, 152040, Note_on_c, 1, 60, 115
3, 152100, Note_on_c, 1, 60, 0
3, 152100, Note_on_c, 1, 44, 0
3, 152100, Note_on_c, 1, 43, 115
3, 152100, Note_on_c, 1, 58, 115
3, 152160, Note_on_c, 1, 58, 0
3, 152160, Note_on_c, 1, 43, 0
3, 152160, Note_on_c, 1, 41, 115
3, 152160, Note_on_c, 1, 56, 115
3, 152220, Note_on_c, 1, 41, 0
3, 152220, Note_on_c, 1, 51, 115
3, 152280, Note_on_c, 1, 51, 0
3, 152280, Note_on_c, 1, 50, 115
3, 152340, Note_on_c, 1, 50, 0
3, 152340, Note_on_c, 1, 48, 115
3, 152400, Note_on_c, 1, 48, 0
3, 152400, Note_on_c, 1, 56, 0
3, 152400, Note_on_c, 1, 50, 115
3, 152460, Note_on_c, 1, 50, 0
3, 152460, Note_on_c, 1, 48, 115
3, 152520, Note_on_c, 1, 48, 0
3, 152520, Note_on_c, 1, 46, 115
3, 152580, Note_on_c, 1, 46, 0
3, 152580, Note_on_c, 1, 44, 115
3, 152640, Note_on_c, 1, 44, 0
3, 152640, Note_on_c, 1, 43, 115
3, 152700, Note_on_c, 1, 43, 0
3, 152700, Note_on_c, 1, 53, 115
3, 152760, Note_on_c, 1, 53, 0
3, 152760, Note_on_c, 1, 51, 115
3, 152820, Note_on_c, 1, 51, 0
3, 152820, Note_on_c, 1, 50, 115
3, 152880, Note_on_c, 1, 50, 0
3, 152880, Note_on_c, 1, 51, 115
3, 152940, Note_on_c, 1, 51, 0
3, 152940, Note_on_c, 1, 50, 115
3, 153000, Note_on_c, 1, 50, 0
3, 153000, Note_on_c, 1, 48, 115
3, 153060, Note_on_c, 1, 48, 0
3, 153060, Note_on_c, 1, 46, 115
3, 153120, Note_on_c, 1, 46, 0
3, 153120, Note_on_c, 1, 45, 115
3, 153180, Note_on_c, 1, 45, 0
3, 153180, Note_on_c, 1, 54, 115
3, 153240, Note_on_c, 1, 54, 0
3, 153240, Note_on_c, 1, 53, 115
3, 153300, Note_on_c, 1, 53, 0
3, 153300, Note_on_c, 1, 51, 115
3, 153360, Note_on_c, 1, 51, 0
3, 153360, Note_on_c, 1, 53, 115
3, 153420, Note_on_c, 1, 53, 0
3, 153420, Note_on_c, 1, 51, 115
3, 153480, Note_on_c, 1, 51, 0
3, 153480, Note_on_c, 1, 49, 115
3, 153540, Note_on_c, 1, 49, 0
3, 153540, Note_on_c, 1, 48, 115
3, 153600, Note_on_c, 1, 48, 0
3, 153600, Note_on_c, 1, 46, 115
3, 153840, Note_on_c, 1, 46, 0
3, 153840, Note_on_c, 1, 48, 115
3, 154080, Note_on_c, 1, 48, 0
3, 154080, Note_on_c, 1, 49, 115
3, 154320, Note_on_c, 1, 49, 0
3, 154320, Note_on_c, 1, 51, 115
3, 154560, Note_on_c, 1, 51, 0
3, 154560, Note_on_c, 1, 57, 115
3, 154560, Note_on_c, 1, 51, 115
3, 154620, Note_on_c, 1, 57, 0
3, 154620, Note_on_c, 1, 60, 115
3, 154680, Note_on_c, 1, 60, 0
3, 154680, Note_on_c, 1, 57, 115
3, 154740, Note_on_c, 1, 57, 0
3, 154740, Note_on_c, 1, 60, 115
3, 154800, Note_on_c, 1, 60, 0
3, 154800, Note_on_c, 1, 51, 0
3, 154800, Note_on_c, 1, 58, 115
3, 154800, Note_on_c, 1, 49, 115
3, 154860, Note_on_c, 1, 58, 0
3, 154860, Note_on_c, 1, 61, 115
3, 154920, Note_on_c, 1, 61, 0
3, 154920, Note_on_c, 1, 58, 115
3, 154980, Note_on_c, 1, 58, 0
3, 154980, Note_on_c, 1, 61, 115
3, 155040, Note_on_c, 1, 61, 0
3, 155040, Note_on_c, 1, 49, 0
3, 155040, Note_on_c, 1, 58, 115
3, 155040, Note_on_c, 1, 48, 115
3, 155100, Note_on_c, 1, 58, 0
3, 155100, Note_on_c, 1, 63, 115
3, 155160, Note_on_c, 1, 63, 0
3, 155160, Note_on_c, 1, 58, 115
3, 155220, Note_on_c, 1, 58, 0
3, 155220, Note_on_c, 1, 63, 115
3, 155280, Note_on_c, 1, 63, 0
3, 155280, Note_on_c, 1, 48, 0
3, 155280, Note_on_c, 1, 53, 115
3, 155280, Note_on_c, 1, 57, 115
3, 155340, Note_on_c, 1, 57, 0
3, 155340, Note_on_c, 1, 63, 115
3, 155400, Note_on_c, 1, 63, 0
3, 155400, Note_on_c, 1, 57, 115
3, 155460, Note_on_c, 1, 57, 0
3, 155460, Note_on_c, 1, 63, 115
3, 155520, Note_on_c, 1, 63, 0
3, 155520, Note_on_c, 1, 53, 0
3, 155520, Note_on_c, 1, 46, 115
3, 155640, Note_on_c, 1, 46, 0
3, 155640, Note_on_c, 1, 53, 115
3, 155760, Note_on_c, 1, 53, 0
3, 155760, Note_on_c, 1, 58, 115
3, 155880, Note_on_c, 1, 58, 0
3, 155880, Note_on_c, 1, 56, 115
3, 156000, Note_on_c, 1, 56, 0
3, 156000, Note_on_c, 1, 55, 115
3, 156120, Note_on_c, 1, 55, 0
3, 156120, Note_on_c, 1, 58, 115
3, 156240, Note_on_c, 1, 58, 0
3, 156240, Note_on_c, 1, 52, 115
3, 156360, Note_on_c, 1, 52, 0
3, 156360, Note_on_c, 1, 55, 115
3, 156480, Note_on_c, 1, 55, 0
3, 156480, Note_on_c, 1, 48, 115
3, 156600, Note_on_c, 1, 48, 0
3, 156600, Note_on_c, 1, 55, 115
3, 156720, Note_on_c, 1, 55, 0
3, 156720, Note_on_c, 1, 60, 115
3, 156840, Note_on_c, 1, 60, 0
3, 156840, Note_on_c, 1, 58, 115
3, 156960, Note_on_c, 1, 58, 0
3, 156960, Note_on_c, 1, 56, 115
3, 157080, Note_on_c, 1, 56, 0
3, 157080, Note_on_c, 1, 60, 115
3, 157200, Note_on_c, 1, 60, 0
3, 157200, Note_on_c, 1, 53, 115
3, 157320, Note_on_c, 1, 53, 0
3, 157320, Note_on_c, 1, 56, 115
3, 157440, Note_on_c, 1, 56, 0
3, 157440, Note_on_c, 1, 49, 115
3, 157680, Note_on_c, 1, 49, 0
3, 157680, Note_on_c, 1, 46, 115
3, 157920, Note_on_c, 1, 46, 0
3, 157920, Note_on_c, 1, 48, 115
3, 158160, Note_on_c, 1, 48, 0
3, 158160, Note_on_c, 1, 49, 115
3, 158400, Note_on_c, 1, 49, 0
3, 158400, Note_on_c, 1, 48, 115
3, 158520, Note_on_c, 1, 48, 0
3, 158520, Note_on_c, 1, 41, 115
3, 158640, Note_on_c, 1, 41, 0
3, 158640, Note_on_c, 1, 56, 115
3, 159120, Note_on_c, 1, 56, 0
3, 159120, Note_on_c, 1, 55, 115
3, 159360, Note_on_c, 1, 55, 0
3, 159360, Note_on_c, 1, 53, 115
3, 159360, Note_on_c, 1, 60, 115
3, 159600, Note_on_c, 1, 53, 0
3, 159720, Note_on_c, 1, 56, 115
3, 159840, Note_on_c, 1, 60, 0
3, 159840, Note_on_c, 1, 58, 115
3, 159960, Note_on_c, 1, 56, 0
3, 159960, Note_on_c, 1, 56, 115
3, 160080, Note_on_c, 1, 56, 0
3, 160080, Note_on_c, 1, 55, 115
3, 160200, Note_on_c, 1, 55, 0
3, 160200, Note_on_c, 1, 53, 115
3, 160320, Note_on_c, 1, 53, 0
3, 160320, Note_on_c, 1, 58, 0
3, 160320, Note_on_c, 1, 51, 115
3, 160380, Note_on_c, 1, 51, 0
3, 160380, Note_on_c, 1, 53, 115
3, 160440, Note_on_c, 1, 53, 0
3, 160440, Note_on_c, 1, 51, 115
3, 160500, Note_on_c, 1, 51, 0
3, 160500, Note_on_c, 1, 50, 115
3, 160560, Note_on_c, 1, 50, 0
3, 160560, Note_on_c, 1, 51, 115
3, 160620, Note_on_c, 1, 51, 0
3, 160620, Note_on_c, 1, 55, 115
3, 160680, Note_on_c, 1, 55, 0
3, 160680, Note_on_c, 1, 53, 115
3, 160740, Note_on_c, 1, 53, 0
3, 160740, Note_on_c, 1, 51, 115
3, 160800, Note_on_c, 1, 51, 0
3, 160800, Note_on_c, 1, 50, 115
3, 160860, Note_on_c, 1, 50, 0
3, 160860, Note_on_c, 1, 48, 115
3, 160920, Note_on_c, 1, 48, 0
3, 160920, Note_on_c, 1, 47, 115
3, 160980, Note_on_c, 1, 47, 0
3, 160980, Note_on_c, 1, 45, 115
3, 161040, Note_on_c, 1, 45, 0
3, 161040, Note_on_c, 1, 43, 115
3, 161100, Note_on_c, 1, 43, 0
3, 161100, Note_on_c, 1, 41, 115
3, 161160, Note_on_c, 1, 41, 0
3, 161160, Note_on_c, 1, 39, 115
3, 161220, Note_on_c, 1, 39, 0
3, 161220, Note_on_c, 1, 38, 115
3, 161280, Note_on_c, 1, 38, 0
3, 161280, Note_on_c, 1, 36, 115
3, 161400, Note_on_c, 1, 36, 0
3, 161400, Note_on_c, 1, 60, 115
3, 161640, Note_on_c, 1, 60, 0
3, 161640, Note_on_c, 1, 60, 115
3, 161820, Note_on_c, 1, 60, 0
3, 161820, Note_on_c, 1, 58, 115
3, 161880, Note_on_c, 1, 58, 0
3, 161880, Note_on_c, 1, 56, 115
3, 161940, Note_on_c, 1, 56, 0
3, 161940, Note_on_c, 1, 55, 115
3, 162000, Note_on_c, 1, 55, 0
3, 162000, Note_on_c, 1, 53, 115
3, 162060, Note_on_c, 1, 53, 0
3, 162060, Note_on_c, 1, 51, 115
3, 162120, Note_on_c, 1, 51, 0
3, 162120, Note_on_c, 1, 50, 115
3, 162180, Note_on_c, 1, 50, 0
3, 162180, Note_on_c, 1, 48, 115
3, 162240, Note_on_c, 1, 48, 0
3, 162240, Note_on_c, 1, 47, 115
3, 162300, Note_on_c, 1, 47, 0
3, 162300, Note_on_c, 1, 50, 115
3, 162360, Note_on_c, 1, 50, 0
3, 162360, Note_on_c, 1, 47, 115
3, 162420, Note_on_c, 1, 47, 0
3, 162420, Note_on_c, 1, 50, 115
3, 162480, Note_on_c, 1, 50, 0
3, 162480, Note_on_c, 1, 48, 115
3, 162540, Note_on_c, 1, 48, 0
3, 162540, Note_on_c, 1, 51, 115
3, 162600, Note_on_c, 1, 51, 0
3, 162600, Note_on_c, 1, 48, 115
3, 162660, Note_on_c, 1, 48, 0
3, 162660, Note_on_c, 1, 51, 115
3, 162720, Note_on_c, 1, 51, 0
3, 162720, Note_on_c, 1, 48, 115
3, 162780, Note_on_c, 1, 48, 0
3, 162780, Note_on_c, 1, 53, 115
3, 162840, Note_on_c, 1, 53, 0
3, 162840, Note_on_c, 1, 48, 115
3, 162900, Note_on_c, 1, 48, 0
3, 162900, Note_on_c, 1, 53, 115
3, 162960, Note_on_c, 1, 53, 0
3, 162960, Note_on_c, 1, 47, 115
3, 163020, Note_on_c, 1, 47, 0
3, 163020, Note_on_c, 1, 55, 115
3, 163080, Note_on_c, 1, 55, 0
3, 163080, Note_on_c, 1, 47, 115
3, 163140, Note_on_c, 1, 47, 0
3, 163140, Note_on_c, 1, 55, 115
3, 163200, Note_on_c, 1, 55, 0
3, 163200, Note_on_c, 1, 48, 115
3, 163260, Note_on_c, 1, 48, 0
3, 163260, Note_on_c, 1, 53, 115
3, 163320, Note_on_c, 1, 53, 0
3, 163320, Note_on_c, 1, 51, 115
3, 163380, Note_on_c, 1, 51, 0
3, 163380, Note_on_c, 1, 50, 115
3, 163440, Note_on_c, 1, 50, 0
3, 163440, Note_on_c, 1, 51, 115
3, 163500, Note_on_c, 1, 51, 0
3, 163500, Note_on_c, 1, 55, 115
3, 163560, Note_on_c, 1, 55, 0
3, 163560, Note_on_c, 1, 51, 115
3, 163620, Note_on_c, 1, 51, 0
3, 163620, Note_on_c, 1, 55, 115
3, 163680, Note_on_c, 1, 55, 0
3, 163680, Note_on_c, 1, 41, 115
3, 163740, Note_on_c, 1, 41, 0
3, 163740, Note_on_c, 1, 55, 115
3, 163800, Note_on_c, 1, 55, 0
3, 163800, Note_on_c, 1, 53, 115
3, 163860, Note_on_c, 1, 53, 0
3, 163860, Note_on_c, 1, 51, 115
3, 163920, Note_on_c, 1, 51, 0
3, 163920, Note_on_c, 1, 53, 115
3, 163980, Note_on_c, 1, 53, 0
3, 163980, Note_on_c, 1, 56, 115
3, 164040, Note_on_c, 1, 56, 0
3, 164040, Note_on_c, 1, 53, 115
3, 164100, Note_on_c, 1, 53, 0
3, 164100, Note_on_c, 1, 56, 115
3, 164160, Note_on_c, 1, 56, 0
3, 164160, Note_on_c, 1, 46, 115
3, 164220, Note_on_c, 1, 46, 0
3, 164220, Note_on_c, 1, 51, 115
3, 164280, Note_on_c, 1, 51, 0
3, 164280, Note_on_c, 1, 49, 115
3, 164340, Note_on_c, 1, 49, 0
3, 164340, Note_on_c, 1, 48, 115
3, 164400, Note_on_c, 1, 48, 0
3, 164400, Note_on_c, 1, 49, 115
3, 164460, Note_on_c, 1, 49, 0
3, 164460, Note_on_c, 1, 53, 115
3, 164520, Note_on_c, 1, 53, 0
3, 164520, Note_on_c, 1, 49, 115
3, 164580, Note_on_c, 1, 49, 0
3, 164580, Note_on_c, 1, 53, 115
3, 164640, Note_on_c, 1, 53, 0
3, 164640, Note_on_c, 1, 39, 115
3, 164700, Note_on_c, 1, 39, 0
3, 164700, Note_on_c, 1, 53, 115
3, 164760, Note_on_c, 1, 53, 0
3, 164760, Note_on_c, 1, 51, 115
3, 164820, Note_on_c, 1, 51, 0
3, 164820, Note_on_c, 1, 49, 115
3, 164880, Note_on_c, 1, 49, 0
3, 164880, Note_on_c, 1, 51, 115
3, 164940, Note_on_c, 1, 51, 0
3, 164940, Note_on_c, 1, 55, 115
3, 165000, Note_on_c, 1, 55, 0
3, 165000, Note_on_c, 1, 51, 115
3, 165060, Note_on_c, 1, 51, 0
3, 165060, Note_on_c, 1, 55, 115
3, 165120, Note_on_c, 1, 55, 0
3, 165120, Note_on_c, 1, 44, 115
3, 165180, Note_on_c, 1, 44, 0
3, 165180, Note_on_c, 1, 49, 115
3, 165240, Note_on_c, 1, 49, 0
3, 165240, Note_on_c, 1, 48, 115
3, 165300, Note_on_c, 1, 48, 0
3, 165300, Note_on_c, 1, 46, 115
3, 165360, Note_on_c, 1, 46, 0
3, 165360, Note_on_c, 1, 48, 115
3, 165420, Note_on_c, 1, 48, 0
3, 165420, Note_on_c, 1, 51, 115
3, 165480, Note_on_c, 1, 51, 0
3, 165480, Note_on_c, 1, 48, 115
3, 165540, Note_on_c, 1, 48, 0
3, 165540, Note_on_c, 1, 51, 115
3, 165600, Note_on_c, 1, 51, 0
3, 165600, Note_on_c, 1, 38, 115
3, 165660, Note_on_c, 1, 38, 0
3, 165660, Note_on_c, 1, 51, 115
3, 165720, Note_on_c, 1, 51, 0
3, 165720, Note_on_c, 1, 50, 115
3, 165780, Note_on_c, 1, 50, 0
3, 165780, Note_on_c, 1, 48, 115
3, 165840, Note_on_c, 1, 48, 0
3, 165840, Note_on_c, 1, 50, 115
3, 165900, Note_on_c, 1, 50, 0
3, 165900, Note_on_c, 1, 53, 115
3, 165960, Note_on_c, 1, 53, 0
3, 165960, Note_on_c, 1, 50, 115
3, 166020, Note_on_c, 1, 50, 0
3, 166020, Note_on_c, 1, 53, 115
3, 166080, Note_on_c, 1, 53, 0
3, 166080, Note_on_c, 1, 43, 115
3, 166320, Note_on_c, 1, 43, 0
3, 166560, Note_on_c, 1, 55, 115
3, 166920, Note_on_c, 1, 55, 0
3, 166920, Note_on_c, 1, 55, 115
3, 166920, Note_on_c, 1, 65, 115
3, 167040, Note_on_c, 1, 65, 0
3, 167040, Note_on_c, 1, 55, 0
3, 167040, Note_on_c, 1, 55, 115
3, 167040, Note_on_c, 1, 65, 115
3, 167520, Note_on_c, 1, 65, 0
3, 167520, Note_on_c, 1, 63, 115
3, 168000, Note_on_c, 1, 63, 0
3, 168000, Note_on_c, 1, 55, 0
3, 168840, Note_on_c, 1, 58, 115
3, 168840, Note_on_c, 1, 53, 115
3, 168960, Note_on_c, 1, 53, 0
3, 168960, Note_on_c, 1, 58, 0
3, 168960, Note_on_c, 1, 51, 115
3, 168960, Note_on_c, 1, 58, 115
3, 169920, Note_on_c, 1, 58, 0
3, 169920, Note_on_c, 1, 51, 0
3, 170340, Note_on_c, 1, 55, 115
3, 170400, Note_on_c, 1, 55, 0
3, 170400, Note_on_c, 1, 60, 115
3, 170820, Note_on_c, 1, 55, 115
3, 170880, Note_on_c, 1, 55, 0
3, 171240, Note_on_c, 1, 60, 0
3, 171300, Note_on_c, 1, 60, 115
3, 171360, Note_on_c, 1, 60, 0
3, 171360, Note_on_c, 1, 58, 115
3, 171840, Note_on_c, 1, 55, 115
3, 172200, Note_on_c, 1, 55, 0
3, 172260, Note_on_c, 1, 53, 115
3, 172320, Note_on_c, 1, 53, 0
3, 172320, Note_on_c, 1, 55, 115
3, 172500, Note_on_c, 1, 58, 0
3, 172500, Note_on_c, 1, 57, 115
3, 172560, Note_on_c, 1, 57, 0
3, 172560, Note_on_c, 1, 55, 0
3, 172560, Note_on_c, 1, 55, 115
3, 172740, Note_on_c, 1, 55, 0
3, 172740, Note_on_c, 1, 53, 115
3, 172800, Note_on_c, 1, 53, 0
3, 172800, Note_on_c, 1, 58, 115
3, 173220, Note_on_c, 1, 53, 115
3, 173280, Note_on_c, 1, 53, 0
3, 173280, Note_on_c, 1, 55, 115
3, 173460, Note_on_c, 1, 58, 0
3, 173460, Note_on_c, 1, 62, 115
3, 173520, Note_on_c, 1, 62, 0
3, 173520, Note_on_c, 1, 55, 0
3, 173520, Note_on_c, 1, 60, 115
3, 173700, Note_on_c, 1, 60, 0
3, 173700, Note_on_c, 1, 58, 115
3, 173760, Note_on_c, 1, 58, 0
3, 173760, Note_on_c, 1, 60, 115
3, 174180, Note_on_c, 1, 53, 115
3, 174240, Note_on_c, 1, 53, 0
3, 174240, Note_on_c, 1, 48, 115
3, 174420, Note_on_c, 1, 60, 0
3, 174420, Note_on_c, 1, 58, 115
3, 174480, Note_on_c, 1, 58, 0
3, 174480, Note_on_c, 1, 48, 0
3, 174480, Note_on_c, 1, 57, 115
3, 174660, Note_on_c, 1, 57, 0
3, 174660, Note_on_c, 1, 55, 115
3, 174720, Note_on_c, 1, 55, 0
3, 174720, Note_on_c, 1, 53, 115
3, 175140, Note_on_c, 1, 41, 115
3, 175200, Note_on_c, 1, 41, 0
3, 175380, Note_on_c, 1, 53, 0
3, 175380, Note_on_c, 1, 51, 115
3, 175440, Note_on_c, 1, 51, 0
3, 175440, Note_on_c, 1, 50, 115
3, 175620, Note_on_c, 1, 50, 0
3, 175620, Note_on_c, 1, 53, 115
3, 175620, Note_on_c, 1, 48, 115
3, 175680, Note_on_c, 1, 48, 0
3, 175680, Note_on_c, 1, 53, 0
3, 175680, Note_on_c, 1, 53, 115
3, 175680, Note_on_c, 1, 46, 115
3, 176160, Note_on_c, 1, 46, 0
3, 176160, Note_on_c, 1, 53, 0
3, 176340, Note_on_c, 1, 53, 115
3, 176400, Note_on_c, 1, 53, 0
3, 176400, Note_on_c, 1, 51, 115
3, 176580, Note_on_c, 1, 51, 0
3, 176580, Note_on_c, 1, 53, 115
3, 176640, Note_on_c, 1, 53, 0
3, 176640, Note_on_c, 1, 55, 115
3, 176820, Note_on_c, 1, 46, 115
3, 176880, Note_on_c, 1, 46, 0
3, 176880, Note_on_c, 1, 48, 115
3, 177060, Note_on_c, 1, 48, 0
3, 177060, Note_on_c, 1, 50, 115
3, 177120, Note_on_c, 1, 50, 0
3, 177120, Note_on_c, 1, 51, 115
3, 177300, Note_on_c, 1, 55, 0
3, 177300, Note_on_c, 1, 55, 115
3, 177360, Note_on_c, 1, 55, 0
3, 177360, Note_on_c, 1, 53, 115
3, 177540, Note_on_c, 1, 53, 0
3, 177540, Note_on_c, 1, 55, 115
3, 177600, Note_on_c, 1, 55, 0
3, 177600, Note_on_c, 1, 57, 115
3, 178080, Note_on_c, 1, 57, 0
3, 178080, Note_on_c, 1, 51, 0
3, 178080, Note_on_c, 1, 50, 115
3, 178800, Note_on_c, 1, 50, 0
3, 179220, Note_on_c, 1, 55, 115
3, 179280, Note_on_c, 1, 55, 0
3, 179280, Note_on_c, 1, 57, 115
3, 179460, Note_on_c, 1, 57, 0
3, 179460, Note_on_c, 1, 58, 115
3, 179520, Note_on_c, 1, 58, 0
3, 179520, Note_on_c, 1, 60, 115
3, 180000, Note_on_c, 1, 60, 0
3, 180000, Note_on_c, 1, 65, 115
3, 181440, Note_on_c, 1, 65, 0
3, 181440, Note_on_c, 1, 53, 115
3, 181740, Note_on_c, 1, 53, 0
3, 181740, Note_on_c, 1, 51, 115
3, 181800, Note_on_c, 1, 51, 0
3, 181800, Note_on_c, 1, 50, 115
3, 181860, Note_on_c, 1, 50, 0
3, 181860, Note_on_c, 1, 48, 115
3, 181920, Note_on_c, 1, 48, 0
3, 181920, Note_on_c, 1, 46, 115
3, 182280, Note_on_c, 1, 46, 0
3, 182280, Note_on_c, 1, 56, 115
3, 182400, Note_on_c, 1, 56, 0
3, 182400, Note_on_c, 1, 56, 115
3, 182880, Note_on_c, 1, 56, 0
3, 182880, Note_on_c, 1, 55, 115
3, 183360, Note_on_c, 1, 55, 0
3, 183360, Note_on_c, 1, 62, 115
3, 183660, Note_on_c, 1, 62, 0
3, 183660, Note_on_c, 1, 60, 115
3, 183720, Note_on_c, 1, 60, 0
3, 183720, Note_on_c, 1, 59, 115
3, 183780, Note_on_c, 1, 59, 0
3, 183780, Note_on_c, 1, 57, 115
3, 183840, Note_on_c, 1, 57, 0
3, 183840, Note_on_c, 1, 55, 115
3, 184200, Note_on_c, 1, 55, 0
3, 184200, Note_on_c, 1, 53, 115
3, 184320, Note_on_c, 1, 53, 0
3, 184320, Note_on_c, 1, 55, 115
3, 184320, Note_on_c, 1, 53, 115
3, 184800, Note_on_c, 1, 53, 0
3, 184800, Note_on_c, 1, 51, 115
3, 185280, Note_on_c, 1, 55, 0
3, 185280, Note_on_c, 1, 53, 115
3, 185640, Note_on_c, 1, 51, 0
3, 185700, Note_on_c, 1, 51, 115
3, 185760, Note_on_c, 1, 51, 0
3, 185760, Note_on_c, 1, 53, 0
3, 185760, Note_on_c, 1, 50, 115
3, 186180, Note_on_c, 1, 53, 115
3, 186240, Note_on_c, 1, 53, 0
3, 186240, Note_on_c, 1, 50, 0
3, 186240, Note_on_c, 1, 51, 115
3, 186720, Note_on_c, 1, 51, 0
3, 187200, Note_on_c, 1, 60, 115
3, 187380, Note_on_c, 1, 55, 115
3, 187440, Note_on_c, 1, 55, 0
3, 187440, Note_on_c, 1, 53, 115
3, 187620, Note_on_c, 1, 53, 0
3, 187620, Note_on_c, 1, 51, 115
3, 187680, Note_on_c, 1, 51, 0
3, 187680, Note_on_c, 1, 53, 115
3, 187860, Note_on_c, 1, 53, 0
3, 187860, Note_on_c, 1, 48, 115
3, 187920, Note_on_c, 1, 48, 0
3, 187920, Note_on_c, 1, 50, 115
3, 188040, Note_on_c, 1, 60, 0
3, 188100, Note_on_c, 1, 50, 0
3, 188100, Note_on_c, 1, 51, 115
3, 188100, Note_on_c, 1, 60, 115
3, 188160, Note_on_c, 1, 60, 0
3, 188160, Note_on_c, 1, 51, 0
3, 188160, Note_on_c, 1, 58, 115
3, 188160, Note_on_c, 1, 46, 115
3, 188340, Note_on_c, 1, 46, 0
3, 188340, Note_on_c, 1, 51, 115
3, 188400, Note_on_c, 1, 51, 0
3, 188400, Note_on_c, 1, 55, 115
3, 188520, Note_on_c, 1, 58, 0
3, 188580, Note_on_c, 1, 55, 0
3, 188580, Note_on_c, 1, 60, 115
3, 188580, Note_on_c, 1, 57, 115
3, 188640, Note_on_c, 1, 57, 0
3, 188640, Note_on_c, 1, 60, 0
3, 188640, Note_on_c, 1, 58, 115
3, 189000, Note_on_c, 1, 58, 0
3, 189060, Note_on_c, 1, 58, 115
3, 189120, Note_on_c, 1, 58, 0
3, 189120, Note_on_c, 1, 58, 115
3, 189150, Note_on_c, 1, 58, 0
3, 189150, Note_on_c, 1, 60, 115
3, 189180, Note_on_c, 1, 60, 0
3, 189180, Note_on_c, 1, 58, 115
3, 189210, Note_on_c, 1, 58, 0
3, 189210, Note_on_c, 1, 60, 115
3, 189240, Note_on_c, 1, 60, 0
3, 189240, Note_on_c, 1, 58, 115
3, 189270, Note_on_c, 1, 58, 0
3, 189270, Note_on_c, 1, 60, 115
3, 189300, Note_on_c, 1, 60, 0
3, 189300, Note_on_c, 1, 58, 115
3, 189330, Note_on_c, 1, 58, 0
3, 189330, Note_on_c, 1, 60, 115
3, 189360, Note_on_c, 1, 60, 0
3, 189360, Note_on_c, 1, 58, 115
3, 189390, Note_on_c, 1, 58, 0
3, 189390, Note_on_c, 1, 60, 115
3, 189420, Note_on_c, 1, 60, 0
3, 189420, Note_on_c, 1, 58, 115
3, 189450, Note_on_c, 1, 58, 0
3, 189450, Note_on_c, 1, 60, 115
3, 189480, Note_on_c, 1, 60, 0
3, 189480, Note_on_c, 1, 58, 115
3, 189510, Note_on_c, 1, 58, 0
3, 189510, Note_on_c, 1, 60, 115
3, 189540, Note_on_c, 1, 60, 0
3, 189540, Note_on_c, 1, 58, 115
3, 189570, Note_on_c, 1, 58, 0
3, 189570, Note_on_c, 1, 60, 115
3, 189600, Note_on_c, 1, 60, 0
3, 189600, Note_on_c, 1, 58, 115
3, 189630, Note_on_c, 1, 58, 0
3, 189630, Note_on_c, 1, 60, 115
3, 189660, Note_on_c, 1, 60, 0
3, 189660, Note_on_c, 1, 58, 115
3, 189690, Note_on_c, 1, 58, 0
3, 189690, Note_on_c, 1, 60, 115
3, 189720, Note_on_c, 1, 60, 0
3, 189720, Note_on_c, 1, 58, 115
3, 189750, Note_on_c, 1, 58, 0
3, 189750, Note_on_c, 1, 60, 115
3, 189780, Note_on_c, 1, 60, 0
3, 189780, Note_on_c, 1, 58, 115
3, 189810, Note_on_c, 1, 58, 0
3, 189810, Note_on_c, 1, 60, 115
3, 189840, Note_on_c, 1, 60, 0
3, 189840, Note_on_c, 1, 58, 115
3, 189870, Note_on_c, 1, 58, 0
3, 189870, Note_on_c, 1, 60, 115
3, 189900, Note_on_c, 1, 60, 0
3, 189900, Note_on_c, 1, 58, 115
3, 189930, Note_on_c, 1, 58, 0
3, 189930, Note_on_c, 1, 60, 115
3, 189960, Note_on_c, 1, 60, 0
3, 189960, Note_on_c, 1, 58, 115
3, 189990, Note_on_c, 1, 58, 0
3, 189990, Note_on_c, 1, 60, 115
3, 190020, Note_on_c, 1, 60, 0
3, 190020, Note_on_c, 1, 58, 115
3, 190050, Note_on_c, 1, 58, 0
3, 190050, Note_on_c, 1, 60, 115
3, 190080, Note_on_c, 1, 60, 0
3, 190080, Note_on_c, 1, 58, 115
3, 190110, Note_on_c, 1, 58, 0
3, 190110, Note_on_c, 1, 60, 115
3, 190140, Note_on_c, 1, 60, 0
3, 190140, Note_on_c, 1, 58, 115
3, 190170, Note_on_c, 1, 58, 0
3, 190170, Note_on_c, 1, 60, 115
3, 190200, Note_on_c, 1, 60, 0
3, 190200, Note_on_c, 1, 58, 115
3, 190230, Note_on_c, 1, 58, 0
3, 190230, Note_on_c, 1, 60, 115
3, 190260, Note_on_c, 1, 60, 0
3, 190260, Note_on_c, 1, 58, 115
3, 190290, Note_on_c, 1, 58, 0
3, 190290, Note_on_c, 1, 60, 115
3, 190320, Note_on_c, 1, 60, 0
3, 190320, Note_on_c, 1, 58, 115
3, 190350, Note_on_c, 1, 58, 0
3, 190350, Note_on_c, 1, 60, 115
3, 190380, Note_on_c, 1, 60, 0
3, 190380, Note_on_c, 1, 58, 115
3, 190410, Note_on_c, 1, 58, 0
3, 190410, Note_on_c, 1, 60, 115
3, 190440, Note_on_c, 1, 60, 0
3, 190440, Note_on_c, 1, 58, 115
3, 190470, Note_on_c, 1, 58, 0
3, 190470, Note_on_c, 1, 60, 115
3, 190500, Note_on_c, 1, 60, 0
3, 190500, Note_on_c, 1, 58, 115
3, 190530, Note_on_c, 1, 58, 0
3, 190530, Note_on_c, 1, 60, 115
3, 190560, Note_on_c, 1, 60, 0
3, 190560, Note_on_c, 1, 58, 115
3, 190590, Note_on_c, 1, 58, 0
3, 190590, Note_on_c, 1, 60, 115
3, 190620, Note_on_c, 1, 60, 0
3, 190620, Note_on_c, 1, 58, 115
3, 190650, Note_on_c, 1, 58, 0
3, 190650, Note_on_c, 1, 60, 115
3, 190680, Note_on_c, 1, 60, 0
3, 190680, Note_on_c, 1, 58, 115
3, 190710, Note_on_c, 1, 58, 0
3, 190710, Note_on_c, 1, 60, 115
3, 190740, Note_on_c, 1, 60, 0
3, 190740, Note_on_c, 1, 58, 115
3, 190770, Note_on_c, 1, 58, 0
3, 190770, Note_on_c, 1, 60, 115
3, 190800, Note_on_c, 1, 60, 0
3, 190800, Note_on_c, 1, 58, 115
3, 190830, Note_on_c, 1, 58, 0
3, 190830, Note_on_c, 1, 60, 115
3, 190860, Note_on_c, 1, 60, 0
3, 190860, Note_on_c, 1, 58, 115
3, 190890, Note_on_c, 1, 58, 0
3, 190890, Note_on_c, 1, 60, 115
3, 190920, Note_on_c, 1, 60, 0
3, 190920, Note_on_c, 1, 58, 115
3, 190950, Note_on_c, 1, 58, 0
3, 190950, Note_on_c, 1, 60, 115
3, 190980, Note_on_c, 1, 60, 0
3, 190980, Note_on_c, 1, 58, 115
3, 191010, Note_on_c, 1, 58, 0
3, 191010, Note_on_c, 1, 60, 115
3, 191040, Note_on_c, 1, 60, 0
3, 191040, Note_on_c, 1, 58, 115
3, 191220, Note_on_c, 1, 58, 0
3, 191220, Note_on_c, 1, 56, 115
3, 191280, Note_on_c, 1, 56, 0
3, 191280, Note_on_c, 1, 55, 115
3, 191460, Note_on_c, 1, 55, 0
3, 191460, Note_on_c, 1, 53, 115
3, 191520, Note_on_c, 1, 53, 0
3, 191520, Note_on_c, 1, 55, 115
3, 191700, Note_on_c, 1, 55, 0
3, 191700, Note_on_c, 1, 51, 115
3, 191760, Note_on_c, 1, 51, 0
3, 191760, Note_on_c, 1, 50, 115
3, 191790, Note_on_c, 1, 50, 0
3, 191790, Note_on_c, 1, 51, 115
3, 191820, Note_on_c, 1, 51, 0
3, 191820, Note_on_c, 1, 50, 115
3, 191940, Note_on_c, 1, 50, 0
3, 191940, Note_on_c, 1, 48, 115
3, 192000, Note_on_c, 1, 48, 0
3, 192000, Note_on_c, 1, 46, 115
3, 192180, Note_on_c, 1, 46, 0
3, 192180, Note_on_c, 1, 55, 115
3, 192240, Note_on_c, 1, 55, 0
3, 192240, Note_on_c, 1, 53, 115
3, 192420, Note_on_c, 1, 53, 0
3, 192420, Note_on_c, 1, 51, 115
3, 192480, Note_on_c, 1, 51, 0
3, 192480, Note_on_c, 1, 53, 115
3, 193320, Note_on_c, 1, 53, 0
3, 193380, Note_on_c, 1, 53, 115
3, 193440, Note_on_c, 1, 53, 0
3, 193440, Note_on_c, 1, 51, 115
3, 193800, Note_on_c, 1, 51, 0
3, 193860, Note_on_c, 1, 55, 115
3, 193920, Note_on_c, 1, 55, 0
3, 193920, Note_on_c, 1, 56, 115
3, 194400, Note_on_c, 1, 56, 0
3, 194820, Note_on_c, 1, 53, 115
3, 194820, Note_on_c, 1, 58, 115
3, 194880, Note_on_c, 1, 58, 0
3, 194880, Note_on_c, 1, 53, 0
3, 194880, Note_on_c, 1, 55, 115
3, 194880, Note_on_c, 1, 58, 115
3, 195120, Note_on_c, 1, 58, 0
3, 195120, Note_on_c, 1, 55, 0
3, 195120, Note_on_c, 1, 55, 115
3, 195120, Note_on_c, 1, 58, 115
3, 195360, Note_on_c, 1, 58, 0
3, 195360, Note_on_c, 1, 55, 0
3, 195360, Note_on_c, 1, 51, 115
3, 195360, Note_on_c, 1, 56, 115
3, 195600, Note_on_c, 1, 56, 0
3, 195600, Note_on_c, 1, 51, 0
3, 195600, Note_on_c, 1, 56, 115
3, 195600, Note_on_c, 1, 53, 115
3, 195600, Note_on_c, 1, 46, 115
3, 195840, Note_on_c, 1, 46, 0
3, 195840, Note_on_c, 1, 53, 0
3, 195840, Note_on_c, 1, 56, 0
3, 195840, Note_on_c, 1, 51, 115
3, 195840, Note_on_c, 1, 46, 115
3, 195840, Note_on_c, 1, 56, 115
3, 196320, Note_on_c, 1, 56, 0
3, 196320, Note_on_c, 1, 55, 115
3, 197184, Note_on_c, 1, 55, 0
3, 197184, Note_on_c, 1, 46, 0
3, 197184, Note_on_c, 1, 51, 0
3, 197760, Note_on_c, 1, 58, 100
3, 198720, Note_on_c, 1, 58, 0
3, 198720, Note_on_c, 1, 55, 100
3, 199200, Note_on_c, 1, 55, 0
3, 199200, Note_on_c, 1, 60, 100
3, 199680, Note_on_c, 1, 60, 0
3, 199680, Note_on_c, 1, 58, 100
3, 200160, Note_on_c, 1, 58, 0
3, 200160, Note_on_c, 1, 63, 100
3, 201120, Note_on_c, 1, 63, 0
3, 201120, Note_on_c, 1, 62, 100
3, 201600, Note_on_c, 1, 62, 0
3, 201600, Note_on_c, 1, 51, 100
3, 202560, Note_on_c, 1, 51, 0
3, 202560, Note_on_c, 1, 50, 100
3, 203040, Note_on_c, 1, 50, 0
3, 203040, Note_on_c, 1, 55, 100
3, 203520, Note_on_c, 1, 55, 0
3, 203520, Note_on_c, 1, 51, 100
3, 204000, Note_on_c, 1, 51, 0
3, 204000, Note_on_c, 1, 58, 100
3, 204960, Note_on_c, 1, 58, 0
3, 204960, Note_on_c, 1, 57, 100
3, 205440, Note_on_c, 1, 57, 0
3, 205440, Note_on_c, 1, 58, 100
3, 205680, Note_on_c, 1, 58, 0
3, 205680, Note_on_c, 1, 60, 100
3, 205920, Note_on_c, 1, 60, 0
3, 205920, Note_on_c, 1, 62, 100
3, 206160, Note_on_c, 1, 62, 0
3, 206160, Note_on_c, 1, 63, 100
3, 206400, Note_on_c, 1, 63, 0
3, 206400, Note_on_c, 1, 65, 100
3, 206640, Note_on_c, 1, 65, 0
3, 206640, Note_on_c, 1, 53, 100
3, 206880, Note_on_c, 1, 53, 0
3, 206880, Note_on_c, 1, 60, 100
3, 207120, Note_on_c, 1, 60, 0
3, 207120, Note_on_c, 1, 62, 100
3, 207360, Note_on_c, 1, 62, 0
3, 207360, Note_on_c, 1, 63, 100
3, 207600, Note_on_c, 1, 63, 0
3, 207600, Note_on_c, 1, 51, 100
3, 207840, Note_on_c, 1, 51, 0
3, 207840, Note_on_c, 1, 53, 100
3, 208080, Note_on_c, 1, 53, 0
3, 208080, Note_on_c, 1, 55, 100
3, 208320, Note_on_c, 1, 55, 0
3, 208320, Note_on_c, 1, 56, 100
3, 209520, Note_on_c, 1, 56, 0
3, 209520, Note_on_c, 1, 55, 100
3, 209760, Note_on_c, 1, 55, 0
3, 209760, Note_on_c, 1, 56, 100
3, 210000, Note_on_c, 1, 56, 0
3, 210000, Note_on_c, 1, 58, 100
3, 210240, Note_on_c, 1, 58, 0
3, 210240, Note_on_c, 1, 60, 100
3, 210480, Note_on_c, 1, 60, 0
3, 210480, Note_on_c, 1, 58, 100
3, 210720, Note_on_c, 1, 58, 0
3, 210720, Note_on_c, 1, 60, 100
3, 210960, Note_on_c, 1, 60, 0
3, 210960, Note_on_c, 1, 62, 100
3, 211200, Note_on_c, 1, 62, 0
3, 211200, Note_on_c, 1, 63, 100
3, 211440, Note_on_c, 1, 63, 0
3, 211440, Note_on_c, 1, 62, 100
3, 211680, Note_on_c, 1, 62, 0
3, 211680, Note_on_c, 1, 60, 100
3, 211920, Note_on_c, 1, 60, 0
3, 211920, Note_on_c, 1, 58, 100
3, 212160, Note_on_c, 1, 58, 0
3, 212160, Note_on_c, 1, 56, 100
3, 212400, Note_on_c, 1, 56, 0
3, 212400, Note_on_c, 1, 53, 100
3, 212640, Note_on_c, 1, 53, 0
3, 212640, Note_on_c, 1, 58, 100
3, 212880, Note_on_c, 1, 58, 0
3, 212880, Note_on_c, 1, 56, 100
3, 213120, Note_on_c, 1, 56, 0
3, 213120, Note_on_c, 1, 58, 100
3, 213120, Note_on_c, 1, 55, 100
3, 213360, Note_on_c, 1, 55, 0
3, 213360, Note_on_c, 1, 58, 0
3, 213360, Note_on_c, 1, 56, 100
3, 213360, Note_on_c, 1, 53, 100
3, 213600, Note_on_c, 1, 53, 0
3, 213600, Note_on_c, 1, 56, 0
3, 213600, Note_on_c, 1, 58, 100
3, 213600, Note_on_c, 1, 55, 100
3, 213840, Note_on_c, 1, 55, 0
3, 213840, Note_on_c, 1, 58, 0
3, 213840, Note_on_c, 1, 60, 100
3, 213840, Note_on_c, 1, 56, 100
3, 214080, Note_on_c, 1, 56, 0
3, 214080, Note_on_c, 1, 60, 0
3, 214080, Note_on_c, 1, 62, 100
3, 214080, Note_on_c, 1, 58, 100
3, 214320, Note_on_c, 1, 58, 0
3, 214320, Note_on_c, 1, 46, 100
3, 214560, Note_on_c, 1, 46, 0
3, 214560, Note_on_c, 1, 62, 0
3, 214560, Note_on_c, 1, 58, 100
3, 214560, Note_on_c, 1, 51, 100
3, 214800, Note_on_c, 1, 51, 0
3, 214800, Note_on_c, 1, 53, 100
3, 215040, Note_on_c, 1, 53, 0
3, 215040, Note_on_c, 1, 55, 100
3, 215280, Note_on_c, 1, 55, 0
3, 215280, Note_on_c, 1, 58, 0
3, 215280, Note_on_c, 1, 53, 100
3, 215280, Note_on_c, 1, 56, 100
3, 215520, Note_on_c, 1, 56, 0
3, 215520, Note_on_c, 1, 53, 0
3, 215520, Note_on_c, 1, 51, 100
3, 215520, Note_on_c, 1, 55, 100
3, 215760, Note_on_c, 1, 55, 0
3, 215760, Note_on_c, 1, 51, 0
3, 215760, Note_on_c, 1, 50, 100
3, 215760, Note_on_c, 1, 53, 100
3, 216000, Note_on_c, 1, 53, 0
3, 216000, Note_on_c, 1, 50, 0
3, 216000, Note_on_c, 1, 51, 100
3, 216000, Note_on_c, 1, 55, 100
3, 216240, Note_on_c, 1, 51, 0
3, 216240, Note_on_c, 1, 48, 100
3, 216480, Note_on_c, 1, 48, 0
3, 216480, Note_on_c, 1, 55, 0
3, 216480, Note_on_c, 1, 53, 100
3, 216480, Note_on_c, 1, 53, 100
3, 216720, Note_on_c, 1, 53, 0
3, 216720, Note_on_c, 1, 51, 100
3, 216960, Note_on_c, 1, 51, 0
3, 216960, Note_on_c, 1, 50, 100
3, 217200, Note_on_c, 1, 50, 0
3, 217200, Note_on_c, 1, 48, 100
3, 217440, Note_on_c, 1, 48, 0
3, 217440, Note_on_c, 1, 46, 100
3, 217680, Note_on_c, 1, 46, 0
3, 217680, Note_on_c, 1, 48, 100
3, 217920, Note_on_c, 1, 48, 0
3, 217920, Note_on_c, 1, 50, 100
3, 218160, Note_on_c, 1, 50, 0
3, 218160, Note_on_c, 1, 53, 0
3, 218160, Note_on_c, 1, 51, 100
3, 218160, Note_on_c, 1, 55, 100
3, 218400, Note_on_c, 1, 55, 0
3, 218400, Note_on_c, 1, 51, 0
3, 218400, Note_on_c, 1, 53, 100
3, 218400, Note_on_c, 1, 56, 100
3, 218640, Note_on_c, 1, 56, 0
3, 218640, Note_on_c, 1, 58, 100
3, 218880, Note_on_c, 1, 58, 0
3, 218880, Note_on_c, 1, 53, 0
3, 218880, Note_on_c, 1, 60, 100
3, 218880, Note_on_c, 1, 48, 100
3, 219120, Note_on_c, 1, 48, 0
3, 219120, Note_on_c, 1, 50, 100
3, 219360, Note_on_c, 1, 50, 0
3, 219360, Note_on_c, 1, 60, 0
3, 219360, Note_on_c, 1, 58, 100
3, 219360, Note_on_c, 1, 51, 100
3, 219600, Note_on_c, 1, 51, 0
3, 219600, Note_on_c, 1, 53, 100
3, 219840, Note_on_c, 1, 53, 0
3, 219840, Note_on_c, 1, 58, 0
3, 219840, Note_on_c, 1, 63, 100
3, 219840, Note_on_c, 1, 55, 100
3, 220080, Note_on_c, 1, 55, 0
3, 220080, Note_on_c, 1, 56, 100
3, 220320, Note_on_c, 1, 56, 0
3, 220320, Note_on_c, 1, 63, 0
3, 220320, Note_on_c, 1, 58, 100
3, 220320, Note_on_c, 1, 62, 100
3, 220800, Note_on_c, 1, 62, 0
3, 220800, Note_on_c, 1, 60, 100
3, 221280, Note_on_c, 1, 58, 0
3, 221280, Note_on_c, 1, 56, 100
3, 221760, Note_on_c, 1, 60, 0
3, 221760, Note_on_c, 1, 58, 100
3, 222240, Note_on_c, 1, 56, 0
3, 222240, Note_on_c, 1, 55, 100
3, 222480, Note_on_c, 1, 55, 0
3, 222480, Note_on_c, 1, 51, 100
3, 222720, Note_on_c, 1, 51, 0
3, 222720, Note_on_c, 1, 53, 100
3, 223440, Note_on_c, 1, 53, 0
3, 223440, Note_on_c, 1, 46, 100
3, 223680, Note_on_c, 1, 46, 0
3, 223680, Note_on_c, 1, 51, 100
3, 223920, Note_on_c, 1, 51, 0
3, 223920, Note_on_c, 1, 53, 100
3, 224160, Note_on_c, 1, 53, 0
3, 224160, Note_on_c, 1, 58, 0
3, 224160, Note_on_c, 1, 60, 100
3, 224160, Note_on_c, 1, 55, 100
3, 224400, Note_on_c, 1, 55, 0
3, 224400, Note_on_c, 1, 57, 100
3, 224640, Note_on_c, 1, 57, 0
3, 224640, Note_on_c, 1, 60, 0
3, 224640, Note_on_c, 1, 58, 100
3, 224640, Note_on_c, 1, 53, 100
3, 225120, Note_on_c, 1, 53, 0
3, 225600, Note_on_c, 1, 58, 0
3, 225600, Note_on_c, 1, 60, 100
3, 226080, Note_on_c, 1, 60, 0
3, 226080, Note_on_c, 1, 58, 100
3, 227040, Note_on_c, 1, 58, 0
3, 232560, Note_on_c, 1, 65, 100
3, 232800, Note_on_c, 1, 65, 0
3, 232800, Note_on_c, 1, 63, 100
3, 233040, Note_on_c, 1, 63, 0
3, 233040, Note_on_c, 1, 62, 100
3, 233280, Note_on_c, 1, 62, 0
3, 233280, Note_on_c, 1, 63, 100
3, 233520, Note_on_c, 1, 63, 0
3, 233520, Note_on_c, 1, 60, 100
3, 233760, Note_on_c, 1, 60, 0
3, 233760, Note_on_c, 1, 65, 100
3, 234000, Note_on_c, 1, 65, 0
3, 234000, Note_on_c, 1, 63, 100
3, 234240, Note_on_c, 1, 63, 0
3, 234240, Note_on_c, 1, 62, 100
3, 234960, Note_on_c, 1, 62, 0
3, 234960, Note_on_c, 1, 55, 100
3, 235200, Note_on_c, 1, 55, 0
3, 235200, Note_on_c, 1, 57, 100
3, 235440, Note_on_c, 1, 57, 0
3, 235440, Note_on_c, 1, 58, 100
3, 235680, Note_on_c, 1, 58, 0
3, 235680, Note_on_c, 1, 60, 100
3, 236160, Note_on_c, 1, 60, 0
3, 236160, Note_on_c, 1, 62, 100
3, 236640, Note_on_c, 1, 62, 0
3, 239040, Note_on_c, 1, 58, 100
3, 240000, Note_on_c, 1, 58, 0
3, 240000, Note_on_c, 1, 55, 100
3, 240000, Note_on_c, 1, 58, 100
3, 240480, Note_on_c, 1, 58, 0
3, 240480, Note_on_c, 1, 55, 0
3, 240480, Note_on_c, 1, 60, 100
3, 240480, Note_on_c, 1, 63, 100
3, 240960, Note_on_c, 1, 63, 0
3, 240960, Note_on_c, 1, 60, 0
3, 240960, Note_on_c, 1, 58, 100
3, 240960, Note_on_c, 1, 62, 100
3, 241440, Note_on_c, 1, 62, 0
3, 241440, Note_on_c, 1, 58, 0
3, 241440, Note_on_c, 1, 63, 100
3, 242400, Note_on_c, 1, 63, 0
3, 242400, Note_on_c, 1, 62, 100
3, 242880, Note_on_c, 1, 62, 0
3, 242880, Note_on_c, 1, 63, 100
3, 243360, Note_on_c, 1, 63, 0
3, 243360, Note_on_c, 1, 65, 100
3, 243840, Note_on_c, 1, 58, 100
3, 244320, Note_on_c, 1, 58, 0
3, 244320, Note_on_c, 1, 65, 0
3, 244320, Note_on_c, 1, 60, 100
3, 244320, Note_on_c, 1, 63, 100
3, 244560, Note_on_c, 1, 60, 0
3, 244560, Note_on_c, 1, 58, 100
3, 244800, Note_on_c, 1, 58, 0
3, 244800, Note_on_c, 1, 56, 100
3, 245040, Note_on_c, 1, 63, 0
3, 245040, Note_on_c, 1, 63, 100
3, 245280, Note_on_c, 1, 63, 0
3, 245280, Note_on_c, 1, 62, 100
3, 245520, Note_on_c, 1, 62, 0
3, 245520, Note_on_c, 1, 60, 100
3, 245760, Note_on_c, 1, 60, 0
3, 245760, Note_on_c, 1, 62, 100
3, 246000, Note_on_c, 1, 62, 0
3, 246000, Note_on_c, 1, 58, 100
3, 246240, Note_on_c, 1, 58, 0
3, 246240, Note_on_c, 1, 56, 0
3, 246240, Note_on_c, 1, 63, 100
3, 246240, Note_on_c, 1, 55, 100
3, 246480, Note_on_c, 1, 63, 0
3, 246480, Note_on_c, 1, 62, 100
3, 246720, Note_on_c, 1, 62, 0
3, 246720, Note_on_c, 1, 60, 100
3, 246960, Note_on_c, 1, 55, 0
3, 246960, Note_on_c, 1, 53, 100
3, 247200, Note_on_c, 1, 53, 0
3, 247200, Note_on_c, 1, 60, 0
3, 247200, Note_on_c, 1, 62, 100
3, 247200, Note_on_c, 1, 51, 100
3, 247440, Note_on_c, 1, 51, 0
3, 247440, Note_on_c, 1, 50, 100
3, 247680, Note_on_c, 1, 50, 0
3, 247680, Note_on_c, 1, 51, 100
3, 247920, Note_on_c, 1, 62, 0
3, 247920, Note_on_c, 1, 53, 100
3, 248160, Note_on_c, 1, 53, 0
3, 248160, Note_on_c, 1, 55, 100
3, 248400, Note_on_c, 1, 55, 0
3, 248400, Note_on_c, 1, 51, 0
3, 248400, Note_on_c, 1, 56, 100
3, 248400, Note_on_c, 1, 53, 100
3, 248640, Note_on_c, 1, 53, 0
3, 248640, Note_on_c, 1, 56, 0
3, 248640, Note_on_c, 1, 58, 100
3, 248640, Note_on_c, 1, 55, 100
3, 248880, Note_on_c, 1, 58, 0
3, 248880, Note_on_c, 1, 56, 100
3, 249120, Note_on_c, 1, 56, 0
3, 249120, Note_on_c, 1, 58, 100
3, 249360, Note_on_c, 1, 58, 0
3, 249360, Note_on_c, 1, 55, 0
3, 249360, Note_on_c, 1, 56, 100
3, 249360, Note_on_c, 1, 60, 100
3, 249600, Note_on_c, 1, 60, 0
3, 249600, Note_on_c, 1, 56, 0
3, 249600, Note_on_c, 1, 58, 115
3, 249600, Note_on_c, 1, 62, 100
3, 249840, Note_on_c, 1, 62, 0
3, 249840, Note_on_c, 1, 63, 100
3, 250080, Note_on_c, 1, 63, 0
3, 250080, Note_on_c, 1, 65, 100
3, 250320, Note_on_c, 1, 58, 0
3, 250320, Note_on_c, 1, 56, 115
3, 250560, Note_on_c, 1, 56, 0
3, 250560, Note_on_c, 1, 65, 0
3, 250560, Note_on_c, 1, 55, 115
3, 250800, Note_on_c, 1, 55, 100
3, 251040, Note_on_c, 1, 55, 0
3, 251040, Note_on_c, 1, 55, 0
3, 251040, Note_on_c, 1, 53, 115
3, 251040, Note_on_c, 1, 56, 100
3, 251280, Note_on_c, 1, 56, 0
3, 251280, Note_on_c, 1, 58, 100
3, 251520, Note_on_c, 1, 58, 0
3, 251520, Note_on_c, 1, 53, 0
3, 251520, Note_on_c, 1, 48, 100
3, 251520, Note_on_c, 1, 60, 100
3, 251760, Note_on_c, 1, 60, 0
3, 251760, Note_on_c, 1, 55, 100
3, 252000, Note_on_c, 1, 55, 0
3, 252000, Note_on_c, 1, 60, 100
3, 252240, Note_on_c, 1, 60, 0
3, 252240, Note_on_c, 1, 58, 100
3, 252480, Note_on_c, 1, 58, 0
3, 252480, Note_on_c, 1, 48, 0
3, 252480, Note_on_c, 1, 50, 100
3, 252480, Note_on_c, 1, 57, 100
3, 252720, Note_on_c, 1, 50, 0
3, 252720, Note_on_c, 1, 48, 100
3, 252960, Note_on_c, 1, 48, 0
3, 252960, Note_on_c, 1, 57, 0
3, 252960, Note_on_c, 1, 58, 100
3, 252960, Note_on_c, 1, 50, 100
3, 253200, Note_on_c, 1, 50, 0
3, 253200, Note_on_c, 1, 51, 100
3, 253440, Note_on_c, 1, 51, 0
3, 253440, Note_on_c, 1, 53, 100
3, 253680, Note_on_c, 1, 53, 0
3, 253680, Note_on_c, 1, 48, 100
3, 253920, Note_on_c, 1, 48, 0
3, 253920, Note_on_c, 1, 58, 0
3, 253920, Note_on_c, 1, 53, 100
3, 253920, Note_on_c, 1, 56, 100
3, 254160, Note_on_c, 1, 53, 0
3, 254160, Note_on_c, 1, 51, 100
3, 254400, Note_on_c, 1, 51, 0
3, 254400, Note_on_c, 1, 50, 100
3, 254640, Note_on_c, 1, 50, 0
3, 254640, Note_on_c, 1, 46, 100
3, 254880, Note_on_c, 1, 46, 0
3, 254880, Note_on_c, 1, 56, 0
3, 254880, Note_on_c, 1, 51, 100
3, 254880, Note_on_c, 1, 55, 100
3, 255120, Note_on_c, 1, 55, 0
3, 255120, Note_on_c, 1, 56, 100
3, 255360, Note_on_c, 1, 56, 0
3, 255360, Note_on_c, 1, 58, 100
3, 255600, Note_on_c, 1, 51, 0
3, 255600, Note_on_c, 1, 50, 100
3, 255840, Note_on_c, 1, 50, 0
3, 255840, Note_on_c, 1, 51, 100
3, 256080, Note_on_c, 1, 51, 0
3, 256080, Note_on_c, 1, 53, 100
3, 256320, Note_on_c, 1, 53, 0
3, 256320, Note_on_c, 1, 55, 100
3, 256800, Note_on_c, 1, 55, 0
3, 256800, Note_on_c, 1, 58, 0
3, 256800, Note_on_c, 1, 63, 100
3, 256800, Note_on_c, 1, 51, 100
3, 257280, Note_on_c, 1, 51, 0
3, 257280, Note_on_c, 1, 63, 0
3, 257280, Note_on_c, 1, 58, 100
3, 259200, Note_on_c, 1, 58, 0
3, 259200, Note_on_c, 1, 63, 100
3, 259920, Note_on_c, 1, 63, 0
3, 259920, Note_on_c, 1, 56, 100
3, 260160, Note_on_c, 1, 56, 0
3, 260160, Note_on_c, 1, 53, 100
3, 260640, Note_on_c, 1, 53, 0
3, 260640, Note_on_c, 1, 55, 100
3, 261120, Note_on_c, 1, 55, 0
3, 261120, Note_on_c, 1, 60, 100
3, 261600, Note_on_c, 1, 60, 0
3, 261840, Note_on_c, 1, 53, 100
3, 262080, Note_on_c, 1, 53, 0
3, 262080, Note_on_c, 1, 55, 100
3, 262320, Note_on_c, 1, 55, 0
3, 262320, Note_on_c, 1, 56, 100
3, 262560, Note_on_c, 1, 56, 0
3, 262560, Note_on_c, 1, 58, 100
3, 262800, Note_on_c, 1, 58, 0
3, 262800, Note_on_c, 1, 63, 100
3, 263040, Note_on_c, 1, 63, 0
3, 263040, Note_on_c, 1, 60, 100
3, 263280, Note_on_c, 1, 60, 0
3, 263280, Note_on_c, 1, 56, 100
3, 263520, Note_on_c, 1, 56, 0
3, 263520, Note_on_c, 1, 61, 100
3, 263760, Note_on_c, 1, 61, 0
3, 263760, Note_on_c, 1, 60, 100
3, 264000, Note_on_c, 1, 60, 0
3, 264000, Note_on_c, 1, 58, 100
3, 264240, Note_on_c, 1, 58, 0
3, 264240, Note_on_c, 1, 55, 100
3, 264480, Note_on_c, 1, 55, 0
3, 264480, Note_on_c, 1, 60, 100
3, 264720, Note_on_c, 1, 60, 0
3, 264720, Note_on_c, 1, 56, 100
3, 264960, Note_on_c, 1, 56, 0
3, 264960, Note_on_c, 1, 58, 100
3, 266160, Note_on_c, 1, 58, 0
3, 266160, Note_on_c, 1, 60, 100
3, 266400, Note_on_c, 1, 60, 0
3, 266400, Note_on_c, 1, 58, 100
3, 266640, Note_on_c, 1, 58, 0
3, 266640, Note_on_c, 1, 56, 100
3, 266880, Note_on_c, 1, 56, 0
3, 266880, Note_on_c, 1, 55, 115
3, 267120, Note_on_c, 1, 55, 0
3, 267120, Note_on_c, 1, 51, 90
3, 267240, Note_on_c, 1, 51, 0
3, 267240, Note_on_c, 1, 50, 90
3, 267360, Note_on_c, 1, 50, 0
3, 267360, Note_on_c, 1, 51, 90
3, 267480, Note_on_c, 1, 51, 0
3, 267480, Note_on_c, 1, 53, 90
3, 267600, Note_on_c, 1, 53, 0
3, 267600, Note_on_c, 1, 55, 90
3, 267720, Note_on_c, 1, 55, 0
3, 267720, Note_on_c, 1, 53, 90
3, 267840, Note_on_c, 1, 53, 0
3, 267840, Note_on_c, 1, 55, 90
3, 267960, Note_on_c, 1, 55, 0
3, 267960, Note_on_c, 1, 56, 90
3, 268080, Note_on_c, 1, 56, 0
3, 268080, Note_on_c, 1, 55, 90
3, 268200, Note_on_c, 1, 55, 0
3, 268200, Note_on_c, 1, 56, 90
3, 268320, Note_on_c, 1, 56, 0
3, 268320, Note_on_c, 1, 53, 90
3, 268440, Note_on_c, 1, 53, 0
3, 268440, Note_on_c, 1, 51, 90
3, 268560, Note_on_c, 1, 51, 0
3, 268560, Note_on_c, 1, 53, 90
3, 268680, Note_on_c, 1, 53, 0
3, 268680, Note_on_c, 1, 55, 90
3, 268800, Note_on_c, 1, 55, 0
3, 268800, Note_on_c, 1, 53, 90
3, 268920, Note_on_c, 1, 53, 0
3, 268920, Note_on_c, 1, 55, 90
3, 269040, Note_on_c, 1, 55, 0
3, 269040, Note_on_c, 1, 56, 90
3, 269160, Note_on_c, 1, 56, 0
3, 269160, Note_on_c, 1, 55, 90
3, 269280, Note_on_c, 1, 55, 0
3, 269280, Note_on_c, 1, 56, 90
3, 269400, Note_on_c, 1, 56, 0
3, 269400, Note_on_c, 1, 58, 90
3, 269520, Note_on_c, 1, 58, 0
3, 269520, Note_on_c, 1, 56, 90
3, 269640, Note_on_c, 1, 56, 0
3, 269640, Note_on_c, 1, 58, 90
3, 269760, Note_on_c, 1, 58, 0
3, 269760, Note_on_c, 1, 55, 90
3, 269880, Note_on_c, 1, 55, 0
3, 269880, Note_on_c, 1, 53, 90
3, 270000, Note_on_c, 1, 53, 0
3, 270000, Note_on_c, 1, 58, 90
3, 270000, Note_on_c, 1, 51, 90
3, 270120, Note_on_c, 1, 51, 0
3, 270120, Note_on_c, 1, 58, 0
3, 270120, Note_on_c, 1, 57, 90
3, 270120, Note_on_c, 1, 53, 90
3, 270240, Note_on_c, 1, 53, 0
3, 270240, Note_on_c, 1, 57, 0
3, 270240, Note_on_c, 1, 58, 90
3, 270240, Note_on_c, 1, 55, 90
3, 270360, Note_on_c, 1, 55, 0
3, 270360, Note_on_c, 1, 58, 0
3, 270360, Note_on_c, 1, 60, 90
3, 270360, Note_on_c, 1, 57, 90
3, 270480, Note_on_c, 1, 57, 0
3, 270480, Note_on_c, 1, 60, 0
3, 270480, Note_on_c, 1, 62, 90
3, 270480, Note_on_c, 1, 58, 90
3, 270600, Note_on_c, 1, 62, 0
3, 270600, Note_on_c, 1, 60, 90
3, 270672, Note_on_c, 1, 58, 0
3, 270720, Note_on_c, 1, 60, 0
3, 270720, Note_on_c, 1, 62, 90
3, 270720, Note_on_c, 1, 53, 90
3, 270840, Note_on_c, 1, 62, 0
3, 270840, Note_on_c, 1, 63, 90
3, 270912, Note_on_c, 1, 53, 0
3, 270960, Note_on_c, 1, 63, 0
3, 270960, Note_on_c, 1, 62, 90
3, 270960, Note_on_c, 1, 58, 90
3, 271080, Note_on_c, 1, 62, 0
3, 271080, Note_on_c, 1, 63, 90
3, 271152, Note_on_c, 1, 58, 0
3, 271200, Note_on_c, 1, 63, 0
3, 271200, Note_on_c, 1, 60, 90
3, 271200, Note_on_c, 1, 58, 90
3, 271320, Note_on_c, 1, 60, 0
3, 271320, Note_on_c, 1, 58, 90
3, 271440, Note_on_c, 1, 58, 0
3, 271440, Note_on_c, 1, 58, 0
3, 271440, Note_on_c, 1, 60, 90
3, 271440, Note_on_c, 1, 57, 90
3, 271560, Note_on_c, 1, 57, 0
3, 271560, Note_on_c, 1, 60, 0
3, 271560, Note_on_c, 1, 62, 90
3, 271560, Note_on_c, 1, 55, 90
3, 271680, Note_on_c, 1, 55, 0
3, 271680, Note_on_c, 1, 62, 0
3, 271680, Note_on_c, 1, 60, 90
3, 271680, Note_on_c, 1, 57, 90
3, 271800, Note_on_c, 1, 57, 0
3, 271800, Note_on_c, 1, 60, 0
3, 271800, Note_on_c, 1, 62, 90
3, 271800, Note_on_c, 1, 58, 90
3, 271920, Note_on_c, 1, 58, 0
3, 271920, Note_on_c, 1, 62, 0
3, 271920, Note_on_c, 1, 63, 90
3, 271920, Note_on_c, 1, 60, 90
3, 272040, Note_on_c, 1, 63, 0
3, 272040, Note_on_c, 1, 62, 90
3, 272112, Note_on_c, 1, 60, 0
3, 272160, Note_on_c, 1, 62, 0
3, 272160, Note_on_c, 1, 63, 90
3, 272160, Note_on_c, 1, 55, 90
3, 272280, Note_on_c, 1, 63, 0
3, 272280, Note_on_c, 1, 65, 90
3, 272352, Note_on_c, 1, 55, 0
3, 272400, Note_on_c, 1, 65, 0
3, 272400, Note_on_c, 1, 63, 90
3, 272400, Note_on_c, 1, 57, 90
3, 272520, Note_on_c, 1, 63, 0
3, 272520, Note_on_c, 1, 65, 90
3, 272592, Note_on_c, 1, 57, 0
3, 272640, Note_on_c, 1, 65, 0
3, 272640, Note_on_c, 1, 62, 90
3, 272640, Note_on_c, 1, 58, 90
3, 272760, Note_on_c, 1, 62, 0
3, 272760, Note_on_c, 1, 63, 90
3, 272880, Note_on_c, 1, 63, 0
3, 272880, Note_on_c, 1, 58, 0
3, 272880, Note_on_c, 1, 62, 90
3, 272880, Note_on_c, 1, 53, 90
3, 273000, Note_on_c, 1, 53, 0
3, 273000, Note_on_c, 1, 62, 0
3, 273000, Note_on_c, 1, 60, 90
3, 273000, Note_on_c, 1, 51, 90
3, 273120, Note_on_c, 1, 51, 0
3, 273120, Note_on_c, 1, 60, 0
3, 273120, Note_on_c, 1, 62, 90
3, 273120, Note_on_c, 1, 53, 90
3, 273240, Note_on_c, 1, 53, 0
3, 273240, Note_on_c, 1, 62, 0
3, 273240, Note_on_c, 1, 58, 90
3, 273240, Note_on_c, 1, 55, 90
3, 273360, Note_on_c, 1, 55, 0
3, 273360, Note_on_c, 1, 58, 0
3, 273360, Note_on_c, 1, 60, 90
3, 273360, Note_on_c, 1, 56, 90
3, 273480, Note_on_c, 1, 60, 0
3, 273480, Note_on_c, 1, 58, 90
3, 273600, Note_on_c, 1, 58, 0
3, 273600, Note_on_c, 1, 56, 0
3, 273600, Note_on_c, 1, 60, 90
3, 273600, Note_on_c, 1, 51, 90
3, 273720, Note_on_c, 1, 60, 0
3, 273720, Note_on_c, 1, 62, 90
3, 273840, Note_on_c, 1, 62, 0
3, 273840, Note_on_c, 1, 51, 0
3, 273840, Note_on_c, 1, 53, 90
3, 273840, Note_on_c, 1, 60, 90
3, 273960, Note_on_c, 1, 60, 0
3, 273960, Note_on_c, 1, 62, 90
3, 274080, Note_on_c, 1, 62, 0
3, 274080, Note_on_c, 1, 53, 0
3, 274080, Note_on_c, 1, 58, 90
3, 274080, Note_on_c, 1, 55, 90
3, 274200, Note_on_c, 1, 58, 0
3, 274200, Note_on_c, 1, 60, 90
3, 274320, Note_on_c, 1, 60, 0
3, 274320, Note_on_c, 1, 55, 0
3, 274320, Note_on_c, 1, 58, 90
3, 274320, Note_on_c, 1, 50, 90
3, 274440, Note_on_c, 1, 50, 0
3, 274440, Note_on_c, 1, 58, 0
3, 274440, Note_on_c, 1, 56, 90
3, 274440, Note_on_c, 1, 48, 90
3, 274560, Note_on_c, 1, 48, 0
3, 274560, Note_on_c, 1, 56, 0
3, 274560, Note_on_c, 1, 58, 90
3, 274560, Note_on_c, 1, 50, 90
3, 274680, Note_on_c, 1, 50, 0
3, 274680, Note_on_c, 1, 58, 0
3, 274680, Note_on_c, 1, 55, 90
3, 274680, Note_on_c, 1, 51, 90
3, 274800, Note_on_c, 1, 51, 0
3, 274800, Note_on_c, 1, 55, 0
3, 274800, Note_on_c, 1, 56, 90
3, 274800, Note_on_c, 1, 53, 90
3, 274920, Note_on_c, 1, 56, 0
3, 274920, Note_on_c, 1, 55, 90
3, 275040, Note_on_c, 1, 55, 0
3, 275040, Note_on_c, 1, 53, 0
3, 275040, Note_on_c, 1, 56, 90
3, 275040, Note_on_c, 1, 48, 90
3, 275160, Note_on_c, 1, 56, 0
3, 275160, Note_on_c, 1, 58, 90
3, 275280, Note_on_c, 1, 58, 0
3, 275280, Note_on_c, 1, 48, 0
3, 275280, Note_on_c, 1, 50, 90
3, 275280, Note_on_c, 1, 56, 90
3, 275400, Note_on_c, 1, 56, 0
3, 275400, Note_on_c, 1, 58, 90
3, 275520, Note_on_c, 1, 58, 0
3, 275520, Note_on_c, 1, 50, 0
3, 275520, Note_on_c, 1, 51, 90
3, 275520, Note_on_c, 1, 55, 90
3, 275640, Note_on_c, 1, 55, 0
3, 275640, Note_on_c, 1, 53, 90
3, 275760, Note_on_c, 1, 53, 0
3, 275760, Note_on_c, 1, 55, 90
3, 275880, Note_on_c, 1, 55, 0
3, 275880, Note_on_c, 1, 56, 90
3, 276000, Note_on_c, 1, 56, 0
3, 276000, Note_on_c, 1, 51, 0
3, 276000, Note_on_c, 1, 55, 90
3, 276000, Note_on_c, 1, 50, 90
3, 276120, Note_on_c, 1, 55, 0
3, 276120, Note_on_c, 1, 53, 90
3, 276240, Note_on_c, 1, 53, 0
3, 276240, Note_on_c, 1, 50, 0
3, 276240, Note_on_c, 1, 51, 90
3, 276240, Note_on_c, 1, 48, 90
3, 276480, Note_on_c, 1, 48, 0
3, 276480, Note_on_c, 1, 51, 0
3, 276480, Note_on_c, 1, 63, 90
3, 276480, Note_on_c, 1, 60, 90
3, 276720, Note_on_c, 1, 60, 0
3, 276720, Note_on_c, 1, 58, 90
3, 276960, Note_on_c, 1, 58, 0
3, 276960, Note_on_c, 1, 56, 90
3, 277200, Note_on_c, 1, 56, 0
3, 277200, Note_on_c, 1, 55, 90
3, 277440, Note_on_c, 1, 55, 0
3, 277440, Note_on_c, 1, 56, 90
3, 277680, Note_on_c, 1, 56, 0
3, 277680, Note_on_c, 1, 53, 90
3, 277920, Note_on_c, 1, 53, 0
3, 277920, Note_on_c, 1, 63, 0
3, 277920, Note_on_c, 1, 62, 90
3, 277920, Note_on_c, 1, 58, 90
3, 278160, Note_on_c, 1, 58, 0
3, 278160, Note_on_c, 1, 46, 90
3, 278400, Note_on_c, 1, 46, 0
3, 278400, Note_on_c, 1, 62, 0
3, 278400, Note_on_c, 1, 63, 90
3, 278400, Note_on_c, 1, 51, 90
3, 278520, Note_on_c, 1, 51, 0
3, 278520, Note_on_c, 1, 50, 90
3, 278640, Note_on_c, 1, 50, 0
3, 278640, Note_on_c, 1, 63, 0
3, 278640, Note_on_c, 1, 63, 90
3, 278640, Note_on_c, 1, 51, 90
3, 278760, Note_on_c, 1, 51, 0
3, 278760, Note_on_c, 1, 53, 90
3, 278880, Note_on_c, 1, 53, 0
3, 278880, Note_on_c, 1, 55, 90
3, 279000, Note_on_c, 1, 55, 0
3, 279000, Note_on_c, 1, 57, 90
3, 279120, Note_on_c, 1, 57, 0
3, 279120, Note_on_c, 1, 63, 0
3, 279120, Note_on_c, 1, 58, 90
3, 279120, Note_on_c, 1, 62, 90
3, 279360, Note_on_c, 1, 62, 0
3, 279360, Note_on_c, 1, 67, 90
3, 279600, Note_on_c, 1, 67, 0
3, 279600, Note_on_c, 1, 65, 90
3, 279840, Note_on_c, 1, 65, 0
3, 279840, Note_on_c, 1, 63, 90
3, 279960, Note_on_c, 1, 63, 0
3, 279960, Note_on_c, 1, 62, 90
3, 280080, Note_on_c, 1, 62, 0
3, 280080, Note_on_c, 1, 63, 90
3, 280200, Note_on_c, 1, 63, 0
3, 280200, Note_on_c, 1, 65, 90
3, 280320, Note_on_c, 1, 65, 0
3, 280320, Note_on_c, 1, 63, 90
3, 280440, Note_on_c, 1, 63, 0
3, 280440, Note_on_c, 1, 62, 90
3, 280560, Note_on_c, 1, 62, 0
3, 280560, Note_on_c, 1, 60, 90
3, 280800, Note_on_c, 1, 58, 0
3, 280800, Note_on_c, 1, 57, 90
3, 281280, Note_on_c, 1, 57, 0
3, 281280, Note_on_c, 1, 60, 0
3, 281280, Note_on_c, 1, 58, 90
3, 281520, Note_on_c, 1, 58, 0
3, 284400, Note_on_c, 1, 63, 90
3, 284520, Note_on_c, 1, 63, 0
3, 284520, Note_on_c, 1, 65, 90
3, 284640, Note_on_c, 1, 65, 0
3, 284640, Note_on_c, 1, 63, 90
3, 284760, Note_on_c, 1, 63, 0
3, 284760, Note_on_c, 1, 62, 90
3, 284880, Note_on_c, 1, 62, 0
3, 284880, Note_on_c, 1, 60, 90
3, 285000, Note_on_c, 1, 60, 0
3, 285000, Note_on_c, 1, 62, 90
3, 285120, Note_on_c, 1, 62, 0
3, 285120, Note_on_c, 1, 60, 90
3, 285240, Note_on_c, 1, 60, 0
3, 285240, Note_on_c, 1, 59, 90
3, 285360, Note_on_c, 1, 59, 0
3, 285360, Note_on_c, 1, 60, 90
3, 285480, Note_on_c, 1, 60, 0
3, 285480, Note_on_c, 1, 57, 90
3, 285600, Note_on_c, 1, 57, 0
3, 285600, Note_on_c, 1, 62, 90
3, 285720, Note_on_c, 1, 62, 0
3, 285720, Note_on_c, 1, 63, 90
3, 285840, Note_on_c, 1, 63, 0
3, 285840, Note_on_c, 1, 62, 90
3, 285960, Note_on_c, 1, 62, 0
3, 285960, Note_on_c, 1, 60, 90
3, 286080, Note_on_c, 1, 60, 0
3, 286080, Note_on_c, 1, 62, 90
3, 286200, Note_on_c, 1, 62, 0
3, 286200, Note_on_c, 1, 60, 90
3, 286320, Note_on_c, 1, 60, 0
3, 286320, Note_on_c, 1, 59, 90
3, 286440, Note_on_c, 1, 59, 0
3, 286440, Note_on_c, 1, 60, 90
3, 286560, Note_on_c, 1, 60, 0
3, 286560, Note_on_c, 1, 59, 90
3, 286680, Note_on_c, 1, 59, 0
3, 286680, Note_on_c, 1, 57, 90
3, 286800, Note_on_c, 1, 57, 0
3, 286800, Note_on_c, 1, 59, 90
3, 286920, Note_on_c, 1, 59, 0
3, 286920, Note_on_c, 1, 55, 90
3, 287040, Note_on_c, 1, 55, 0
3, 287040, Note_on_c, 1, 60, 90
3, 287280, Note_on_c, 1, 60, 0
3, 287280, Note_on_c, 1, 56, 90
3, 287280, Note_on_c, 1, 62, 90
3, 287400, Note_on_c, 1, 56, 0
3, 287400, Note_on_c, 1, 58, 90
3, 287520, Note_on_c, 1, 58, 0
3, 287520, Note_on_c, 1, 62, 0
3, 287520, Note_on_c, 1, 56, 90
3, 287520, Note_on_c, 1, 63, 90
3, 287640, Note_on_c, 1, 56, 0
3, 287640, Note_on_c, 1, 55, 90
3, 287760, Note_on_c, 1, 55, 0
3, 287760, Note_on_c, 1, 63, 0
3, 287760, Note_on_c, 1, 53, 90
3, 287760, Note_on_c, 1, 65, 90
3, 287880, Note_on_c, 1, 53, 0
3, 287880, Note_on_c, 1, 55, 90
3, 288000, Note_on_c, 1, 55, 0
3, 288000, Note_on_c, 1, 53, 90
3, 288120, Note_on_c, 1, 53, 0
3, 288120, Note_on_c, 1, 51, 90
3, 288240, Note_on_c, 1, 51, 0
3, 288240, Note_on_c, 1, 65, 0
3, 288240, Note_on_c, 1, 65, 90
3, 288240, Note_on_c, 1, 53, 90
3, 288360, Note_on_c, 1, 53, 0
3, 288360, Note_on_c, 1, 50, 90
3, 288480, Note_on_c, 1, 50, 0
3, 288480, Note_on_c, 1, 65, 0
3, 288480, Note_on_c, 1, 55, 90
3, 288480, Note_on_c, 1, 65, 90
3, 288600, Note_on_c, 1, 55, 0
3, 288600, Note_on_c, 1, 56, 90
3, 288720, Note_on_c, 1, 56, 0
3, 288720, Note_on_c, 1, 65, 0
3, 288720, Note_on_c, 1, 55, 90
3, 288720, Note_on_c, 1, 63, 90
3, 288840, Note_on_c, 1, 55, 0
3, 288840, Note_on_c, 1, 53, 90
3, 288960, Note_on_c, 1, 53, 0
3, 288960, Note_on_c, 1, 63, 0
3, 288960, Note_on_c, 1, 55, 90
3, 288960, Note_on_c, 1, 62, 90
3, 289080, Note_on_c, 1, 55, 0
3, 289080, Note_on_c, 1, 53, 90
3, 289200, Note_on_c, 1, 53, 0
3, 289200, Note_on_c, 1, 62, 0
3, 289200, Note_on_c, 1, 60, 90
3, 289200, Note_on_c, 1, 52, 90
3, 289320, Note_on_c, 1, 52, 0
3, 289320, Note_on_c, 1, 53, 90
3, 289440, Note_on_c, 1, 53, 0
3, 289440, Note_on_c, 1, 52, 90
3, 289560, Note_on_c, 1, 52, 0
3, 289560, Note_on_c, 1, 50, 90
3, 289680, Note_on_c, 1, 50, 0
3, 289680, Note_on_c, 1, 52, 90
3, 289800, Note_on_c, 1, 52, 0
3, 289800, Note_on_c, 1, 48, 90
3, 289920, Note_on_c, 1, 48, 0
3, 289920, Note_on_c, 1, 53, 90
3, 290400, Note_on_c, 1, 60, 0
3, 290400, Note_on_c, 1, 61, 90
3, 290640, Note_on_c, 1, 61, 0
3, 290640, Note_on_c, 1, 60, 90
3, 290880, Note_on_c, 1, 60, 0
3, 290880, Note_on_c, 1, 65, 90
3, 291120, Note_on_c, 1, 53, 0
3, 291120, Note_on_c, 1, 53, 90
3, 291360, Note_on_c, 1, 53, 0
3, 291360, Note_on_c, 1, 65, 0
3, 291360, Note_on_c, 1, 55, 90
3, 291360, Note_on_c, 1, 58, 90
3, 291480, Note_on_c, 1, 58, 0
3, 291480, Note_on_c, 1, 57, 90
3, 291600, Note_on_c, 1, 57, 0
3, 291600, Note_on_c, 1, 58, 90
3, 291720, Note_on_c, 1, 58, 0
3, 291720, Note_on_c, 1, 60, 90
3, 291840, Note_on_c, 1, 60, 0
3, 291840, Note_on_c, 1, 58, 90
3, 291960, Note_on_c, 1, 58, 0
3, 291960, Note_on_c, 1, 60, 90
3, 292080, Note_on_c, 1, 60, 0
3, 292080, Note_on_c, 1, 62, 90
3, 292200, Note_on_c, 1, 62, 0
3, 292200, Note_on_c, 1, 60, 90
3, 292320, Note_on_c, 1, 60, 0
3, 292320, Note_on_c, 1, 62, 90
3, 292440, Note_on_c, 1, 62, 0
3, 292440, Note_on_c, 1, 63, 90
3, 292560, Note_on_c, 1, 63, 0
3, 292560, Note_on_c, 1, 62, 90
3, 292680, Note_on_c, 1, 62, 0
3, 292680, Note_on_c, 1, 63, 90
3, 292800, Note_on_c, 1, 63, 0
3, 292800, Note_on_c, 1, 55, 0
3, 292800, Note_on_c, 1, 57, 90
3, 292800, Note_on_c, 1, 60, 90
3, 292920, Note_on_c, 1, 60, 0
3, 292920, Note_on_c, 1, 58, 90
3, 293040, Note_on_c, 1, 58, 0
3, 293040, Note_on_c, 1, 60, 90
3, 293160, Note_on_c, 1, 60, 0
3, 293160, Note_on_c, 1, 62, 90
3, 293280, Note_on_c, 1, 62, 0
3, 293280, Note_on_c, 1, 60, 90
3, 293400, Note_on_c, 1, 60, 0
3, 293400, Note_on_c, 1, 62, 90
3, 293520, Note_on_c, 1, 62, 0
3, 293520, Note_on_c, 1, 63, 90
3, 293640, Note_on_c, 1, 63, 0
3, 293640, Note_on_c, 1, 62, 90
3, 293760, Note_on_c, 1, 62, 0
3, 293760, Note_on_c, 1, 63, 90
3, 293880, Note_on_c, 1, 63, 0
3, 293880, Note_on_c, 1, 65, 90
3, 294000, Note_on_c, 1, 65, 0
3, 294000, Note_on_c, 1, 63, 90
3, 294120, Note_on_c, 1, 63, 0
3, 294120, Note_on_c, 1, 65, 90
3, 294240, Note_on_c, 1, 65, 0
3, 294240, Note_on_c, 1, 57, 0
3, 294240, Note_on_c, 1, 58, 90
3, 294240, Note_on_c, 1, 62, 90
3, 294360, Note_on_c, 1, 62, 0
3, 294360, Note_on_c, 1, 60, 90
3, 294480, Note_on_c, 1, 60, 0
3, 294480, Note_on_c, 1, 62, 90
3, 294600, Note_on_c, 1, 62, 0
3, 294600, Note_on_c, 1, 63, 90
3, 294720, Note_on_c, 1, 63, 0
3, 294720, Note_on_c, 1, 62, 90
3, 294840, Note_on_c, 1, 62, 0
3, 294840, Note_on_c, 1, 63, 90
3, 294960, Note_on_c, 1, 63, 0
3, 294960, Note_on_c, 1, 58, 0
3, 294960, Note_on_c, 1, 65, 90
3, 295200, Note_on_c, 1, 65, 0
3, 295200, Note_on_c, 1, 58, 90
3, 295200, Note_on_c, 1, 50, 90
3, 295440, Note_on_c, 1, 50, 0
3, 295440, Note_on_c, 1, 46, 90
3, 295680, Note_on_c, 1, 46, 0
3, 295680, Note_on_c, 1, 51, 90
3, 295920, Note_on_c, 1, 51, 0
3, 295920, Note_on_c, 1, 58, 0
3, 295920, Note_on_c, 1, 63, 90
3, 296040, Note_on_c, 1, 63, 0
3, 296040, Note_on_c, 1, 65, 90
3, 296160, Note_on_c, 1, 65, 0
3, 296160, Note_on_c, 1, 63, 90
3, 296280, Note_on_c, 1, 63, 0
3, 296280, Note_on_c, 1, 65, 90
3, 296400, Note_on_c, 1, 65, 0
3, 296400, Note_on_c, 1, 67, 90
3, 296640, Note_on_c, 1, 67, 0
3, 296640, Note_on_c, 1, 60, 90
3, 296640, Note_on_c, 1, 52, 90
3, 296880, Note_on_c, 1, 52, 0
3, 296880, Note_on_c, 1, 48, 90
3, 297120, Note_on_c, 1, 48, 0
3, 297120, Note_on_c, 1, 53, 90
3, 297360, Note_on_c, 1, 53, 0
3, 297360, Note_on_c, 1, 50, 90
3, 297600, Note_on_c, 1, 50, 0
3, 297600, Note_on_c, 1, 60, 0
3, 297600, Note_on_c, 1, 55, 90
3, 297600, Note_on_c, 1, 58, 90
3, 297840, Note_on_c, 1, 58, 0
3, 297840, Note_on_c, 1, 55, 0
3, 297840, Note_on_c, 1, 51, 90
3, 297840, Note_on_c, 1, 55, 90
3, 298080, Note_on_c, 1, 55, 0
3, 298080, Note_on_c, 1, 51, 0
3, 298080, Note_on_c, 1, 53, 90
3, 298200, Note_on_c, 1, 57, 90
3, 298320, Note_on_c, 1, 57, 0
3, 298320, Note_on_c, 1, 60, 90
3, 298440, Note_on_c, 1, 60, 0
3, 298440, Note_on_c, 1, 65, 90
3, 298560, Note_on_c, 1, 53, 0
3, 298560, Note_on_c, 1, 58, 90
3, 298800, Note_on_c, 1, 58, 0
3, 298800, Note_on_c, 1, 65, 0
3, 298800, Note_on_c, 1, 46, 90
3, 298920, Note_on_c, 1, 46, 0
3, 298920, Note_on_c, 1, 45, 90
3, 299040, Note_on_c, 1, 45, 0
3, 299040, Note_on_c, 1, 46, 90
3, 299160, Note_on_c, 1, 46, 0
3, 299160, Note_on_c, 1, 48, 90
3, 299280, Note_on_c, 1, 48, 0
3, 299280, Note_on_c, 1, 50, 90
3, 299400, Note_on_c, 1, 50, 0
3, 299400, Note_on_c, 1, 48, 90
3, 299520, Note_on_c, 1, 48, 0
3, 299520, Note_on_c, 1, 58, 90
3, 299520, Note_on_c, 1, 50, 90
3, 299640, Note_on_c, 1, 50, 0
3, 299640, Note_on_c, 1, 51, 90
3, 299760, Note_on_c, 1, 51, 0
3, 299760, Note_on_c, 1, 48, 90
3, 299880, Note_on_c, 1, 48, 0
3, 299880, Note_on_c, 1, 50, 90
3, 300000, Note_on_c, 1, 50, 0
3, 300000, Note_on_c, 1, 58, 0
3, 300000, Note_on_c, 1, 51, 90
3, 300000, Note_on_c, 1, 55, 90
3, 300120, Note_on_c, 1, 51, 0
3, 300120, Note_on_c, 1, 50, 90
3, 300240, Note_on_c, 1, 50, 0
3, 300240, Note_on_c, 1, 55, 0
3, 300240, Note_on_c, 1, 51, 90
3, 300240, Note_on_c, 1, 60, 90
3, 300360, Note_on_c, 1, 51, 0
3, 300360, Note_on_c, 1, 53, 90
3, 300480, Note_on_c, 1, 53, 0
3, 300480, Note_on_c, 1, 51, 90
3, 300600, Note_on_c, 1, 51, 0
3, 300600, Note_on_c, 1, 53, 90
3, 300720, Note_on_c, 1, 53, 0
3, 300720, Note_on_c, 1, 60, 0
3, 300720, Note_on_c, 1, 55, 90
3, 300720, Note_on_c, 1, 58, 90
3, 300840, Note_on_c, 1, 55, 0
3, 300840, Note_on_c, 1, 53, 90
3, 300960, Note_on_c, 1, 53, 0
3, 300960, Note_on_c, 1, 58, 0
3, 300960, Note_on_c, 1, 63, 90
3, 300960, Note_on_c, 1, 55, 90
3, 301080, Note_on_c, 1, 55, 0
3, 301080, Note_on_c, 1, 56, 90
3, 301200, Note_on_c, 1, 56, 0
3, 301200, Note_on_c, 1, 55, 90
3, 301320, Note_on_c, 1, 55, 0
3, 301320, Note_on_c, 1, 56, 90
3, 301440, Note_on_c, 1, 56, 0
3, 301440, Note_on_c, 1, 58, 90
3, 301560, Note_on_c, 1, 58, 0
3, 301560, Note_on_c, 1, 56, 90
3, 301680, Note_on_c, 1, 56, 0
3, 301680, Note_on_c, 1, 63, 0
3, 301680, Note_on_c, 1, 58, 90
3, 301680, Note_on_c, 1, 62, 90
3, 301710, Note_on_c, 1, 62, 0
3, 301710, Note_on_c, 1, 63, 90
3, 301740, Note_on_c, 1, 63, 0
3, 301740, Note_on_c, 1, 62, 90
3, 301800, Note_on_c, 1, 58, 0
3, 301800, Note_on_c, 1, 60, 90
3, 301920, Note_on_c, 1, 60, 0
3, 301920, Note_on_c, 1, 58, 90
3, 302040, Note_on_c, 1, 58, 0
3, 302040, Note_on_c, 1, 56, 90
3, 302160, Note_on_c, 1, 56, 0
3, 302160, Note_on_c, 1, 62, 0
3, 302160, Note_on_c, 1, 55, 90
3, 302160, Note_on_c, 1, 63, 90
3, 302280, Note_on_c, 1, 55, 0
3, 302280, Note_on_c, 1, 56, 90
3, 302400, Note_on_c, 1, 56, 0
3, 302400, Note_on_c, 1, 63, 0
3, 302400, Note_on_c, 1, 58, 90
3, 302400, Note_on_c, 1, 51, 90
3, 302520, Note_on_c, 1, 51, 0
3, 302520, Note_on_c, 1, 50, 90
3, 302640, Note_on_c, 1, 50, 0
3, 302640, Note_on_c, 1, 58, 0
3, 302640, Note_on_c, 1, 55, 90
3, 302640, Note_on_c, 1, 51, 90
3, 302760, Note_on_c, 1, 51, 0
3, 302760, Note_on_c, 1, 53, 90
3, 302880, Note_on_c, 1, 53, 0
3, 302880, Note_on_c, 1, 55, 0
3, 302880, Note_on_c, 1, 51, 90
3, 302880, Note_on_c, 1, 55, 90
3, 303000, Note_on_c, 1, 55, 0
3, 303000, Note_on_c, 1, 53, 90
3, 303120, Note_on_c, 1, 53, 0
3, 303120, Note_on_c, 1, 51, 0
3, 303120, Note_on_c, 1, 55, 90
3, 303240, Note_on_c, 1, 55, 0
3, 303240, Note_on_c, 1, 57, 90
3, 303360, Note_on_c, 1, 57, 0
3, 303360, Note_on_c, 1, 48, 90
3, 303360, Note_on_c, 1, 55, 90
3, 303480, Note_on_c, 1, 55, 0
3, 303480, Note_on_c, 1, 57, 90
3, 303600, Note_on_c, 1, 57, 0
3, 303600, Note_on_c, 1, 48, 0
3, 303600, Note_on_c, 1, 55, 90
3, 303600, Note_on_c, 1, 58, 90
3, 303720, Note_on_c, 1, 58, 0
3, 303720, Note_on_c, 1, 57, 90
3, 303840, Note_on_c, 1, 57, 0
3, 303840, Note_on_c, 1, 55, 0
3, 303840, Note_on_c, 1, 58, 90
3, 303960, Note_on_c, 1, 58, 0
3, 303960, Note_on_c, 1, 60, 90
3, 304080, Note_on_c, 1, 60, 0
3, 304080, Note_on_c, 1, 51, 90
3, 304080, Note_on_c, 1, 58, 90
3, 304200, Note_on_c, 1, 58, 0
3, 304200, Note_on_c, 1, 60, 90
3, 304320, Note_on_c, 1, 60, 0
3, 304320, Note_on_c, 1, 51, 0
3, 304320, Note_on_c, 1, 58, 90
3, 304560, Note_on_c, 1, 58, 0
3, 304800, Note_on_c, 1, 55, 90
3, 305040, Note_on_c, 1, 55, 0
3, 305040, Note_on_c, 1, 50, 90
3, 305280, Note_on_c, 1, 50, 0
3, 305280, Note_on_c, 1, 51, 90
3, 305520, Note_on_c, 1, 51, 0
3, 305520, Note_on_c, 1, 53, 90
3, 305760, Note_on_c, 1, 53, 0
3, 305760, Note_on_c, 1, 46, 90
3, 306000, Note_on_c, 1, 46, 0
3, 306000, Note_on_c, 1, 58, 90
3, 306120, Note_on_c, 1, 58, 0
3, 306120, Note_on_c, 1, 60, 90
3, 306240, Note_on_c, 1, 60, 0
3, 306240, Note_on_c, 1, 58, 90
3, 306360, Note_on_c, 1, 58, 0
3, 306360, Note_on_c, 1, 56, 90
3, 306480, Note_on_c, 1, 56, 0
3, 306480, Note_on_c, 1, 55, 90
3, 306600, Note_on_c, 1, 55, 0
3, 306600, Note_on_c, 1, 56, 90
3, 306720, Note_on_c, 1, 56, 0
3, 306720, Note_on_c, 1, 55, 90
3, 306840, Note_on_c, 1, 55, 0
3, 306840, Note_on_c, 1, 53, 90
3, 306960, Note_on_c, 1, 53, 0
3, 306960, Note_on_c, 1, 55, 90
3, 307080, Note_on_c, 1, 55, 0
3, 307080, Note_on_c, 1, 53, 90
3, 307200, Note_on_c, 1, 53, 0
3, 307200, Note_on_c, 1, 51, 90
3, 307320, Note_on_c, 1, 51, 0
3, 307320, Note_on_c, 1, 55, 90
3, 307440, Note_on_c, 1, 55, 0
3, 307440, Note_on_c, 1, 60, 90
3, 307560, Note_on_c, 1, 60, 0
3, 307560, Note_on_c, 1, 61, 90
3, 307680, Note_on_c, 1, 61, 0
3, 307680, Note_on_c, 1, 60, 90
3, 307800, Note_on_c, 1, 60, 0
3, 307800, Note_on_c, 1, 58, 90
3, 307920, Note_on_c, 1, 58, 0
3, 307920, Note_on_c, 1, 56, 90
3, 308040, Note_on_c, 1, 56, 0
3, 308040, Note_on_c, 1, 58, 90
3, 308160, Note_on_c, 1, 58, 0
3, 308160, Note_on_c, 1, 56, 90
3, 308280, Note_on_c, 1, 56, 0
3, 308280, Note_on_c, 1, 55, 90
3, 308400, Note_on_c, 1, 55, 0
3, 308400, Note_on_c, 1, 56, 90
3, 308520, Note_on_c, 1, 56, 0
3, 308520, Note_on_c, 1, 55, 90
3, 308640, Note_on_c, 1, 55, 0
3, 308640, Note_on_c, 1, 53, 90
3, 308760, Note_on_c, 1, 53, 0
3, 308760, Note_on_c, 1, 55, 90
3, 308880, Note_on_c, 1, 55, 0
3, 308880, Note_on_c, 1, 53, 90
3, 309000, Note_on_c, 1, 53, 0
3, 309000, Note_on_c, 1, 51, 90
3, 309120, Note_on_c, 1, 51, 0
3, 309120, Note_on_c, 1, 53, 90
3, 309240, Note_on_c, 1, 53, 0
3, 309240, Note_on_c, 1, 51, 90
3, 309360, Note_on_c, 1, 51, 0
3, 309360, Note_on_c, 1, 49, 90
3, 309480, Note_on_c, 1, 49, 0
3, 309480, Note_on_c, 1, 51, 90
3, 309600, Note_on_c, 1, 51, 0
3, 309600, Note_on_c, 1, 49, 90
3, 309720, Note_on_c, 1, 49, 0
3, 309720, Note_on_c, 1, 48, 90
3, 309840, Note_on_c, 1, 48, 0
3, 309840, Note_on_c, 1, 49, 90
3, 309960, Note_on_c, 1, 49, 0
3, 309960, Note_on_c, 1, 48, 90
3, 310080, Note_on_c, 1, 48, 0
3, 310080, Note_on_c, 1, 46, 90
3, 310080, Note_on_c, 1, 55, 90
3, 310200, Note_on_c, 1, 46, 0
3, 310200, Note_on_c, 1, 44, 90
3, 310320, Note_on_c, 1, 44, 0
3, 310320, Note_on_c, 1, 46, 90
3, 310440, Note_on_c, 1, 46, 0
3, 310440, Note_on_c, 1, 49, 90
3, 310560, Note_on_c, 1, 49, 0
3, 310560, Note_on_c, 1, 48, 90
3, 310680, Note_on_c, 1, 48, 0
3, 310680, Note_on_c, 1, 46, 90
3, 310800, Note_on_c, 1, 46, 0
3, 310800, Note_on_c, 1, 44, 90
3, 311040, Note_on_c, 1, 44, 0
3, 311040, Note_on_c, 1, 55, 0
3, 311040, Note_on_c, 1, 53, 90
3, 311040, Note_on_c, 1, 49, 90
3, 311520, Note_on_c, 1, 49, 0
3, 311520, Note_on_c, 1, 53, 0
3, 311520, Note_on_c, 1, 48, 90
3, 311520, Note_on_c, 1, 52, 90
3, 311760, Note_on_c, 1, 52, 0
3, 311760, Note_on_c, 1, 48, 0
3, 311760, Note_on_c, 1, 53, 90
3, 311760, Note_on_c, 1, 53, 90
3, 312000, Note_on_c, 1, 53, 0
3, 312000, Note_on_c, 1, 61, 90
3, 312240, Note_on_c, 1, 61, 0
3, 312240, Note_on_c, 1, 55, 90
3, 312480, Note_on_c, 1, 53, 0
3, 312480, Note_on_c, 1, 52, 90
3, 312720, Note_on_c, 1, 55, 0
3, 312720, Note_on_c, 1, 60, 90
3, 312960, Note_on_c, 1, 52, 0
3, 312960, Note_on_c, 1, 53, 90
3, 313200, Note_on_c, 1, 60, 0
3, 313440, Note_on_c, 1, 53, 0
3, 313440, Note_on_c, 1, 55, 90
3, 313680, Note_on_c, 1, 55, 0
3, 313680, Note_on_c, 1, 56, 90
3, 313920, Note_on_c, 1, 56, 0
3, 314160, Note_on_c, 1, 53, 90
3, 314400, Note_on_c, 1, 53, 0
3, 314400, Note_on_c, 1, 60, 90
3, 314640, Note_on_c, 1, 60, 0
3, 314880, Note_on_c, 1, 56, 90
3, 315120, Note_on_c, 1, 56, 0
3, 315120, Note_on_c, 1, 51, 90
3, 315360, Note_on_c, 1, 51, 0
3, 315360, Note_on_c, 1, 53, 90
3, 315600, Note_on_c, 1, 53, 0
3, 315600, Note_on_c, 1, 55, 90
3, 315840, Note_on_c, 1, 55, 0
3, 315840, Note_on_c, 1, 48, 90
3, 316080, Note_on_c, 1, 48, 0
3, 318960, Note_on_c, 1, 60, 90
3, 319440, Note_on_c, 1, 60, 0
3, 319440, Note_on_c, 1, 59, 90
3, 319680, Note_on_c, 1, 59, 0
3, 319680, Note_on_c, 1, 63, 90
3, 320160, Note_on_c, 1, 63, 0
3, 320160, Note_on_c, 1, 60, 90
3, 320400, Note_on_c, 1, 60, 0
3, 320400, Note_on_c, 1, 67, 90
3, 320880, Note_on_c, 1, 67, 0
3, 320880, Note_on_c, 1, 67, 90
3, 321120, Note_on_c, 1, 67, 0
3, 321120, Note_on_c, 1, 66, 90
3, 321600, Note_on_c, 1, 66, 0
3, 321600, Note_on_c, 1, 67, 90
3, 321720, Note_on_c, 1, 67, 0
3, 321720, Note_on_c, 1, 65, 90
3, 321840, Note_on_c, 1, 65, 0
3, 321840, Note_on_c, 1, 63, 90
3, 321960, Note_on_c, 1, 63, 0
3, 321960, Note_on_c, 1, 65, 90
3, 322080, Note_on_c, 1, 65, 0
3, 322080, Note_on_c, 1, 63, 90
3, 322200, Note_on_c, 1, 63, 0
3, 322200, Note_on_c, 1, 62, 90
3, 322320, Note_on_c, 1, 62, 0
3, 322320, Note_on_c, 1, 60, 90
3, 322440, Note_on_c, 1, 60, 0
3, 322440, Note_on_c, 1, 62, 90
3, 322560, Note_on_c, 1, 62, 0
3, 322560, Note_on_c, 1, 60, 90
3, 322680, Note_on_c, 1, 60, 0
3, 322680, Note_on_c, 1, 58, 90
3, 322800, Note_on_c, 1, 58, 0
3, 322800, Note_on_c, 1, 60, 90
3, 322920, Note_on_c, 1, 60, 0
3, 322920, Note_on_c, 1, 58, 90
3, 323040, Note_on_c, 1, 58, 0
3, 323040, Note_on_c, 1, 57, 90
3, 323160, Note_on_c, 1, 57, 0
3, 323160, Note_on_c, 1, 60, 90
3, 323280, Note_on_c, 1, 60, 0
3, 323280, Note_on_c, 1, 65, 90
3, 323400, Note_on_c, 1, 65, 0
3, 323400, Note_on_c, 1, 67, 90
3, 323520, Note_on_c, 1, 67, 0
3, 323520, Note_on_c, 1, 65, 90
3, 323640, Note_on_c, 1, 65, 0
3, 323640, Note_on_c, 1, 63, 90
3, 323760, Note_on_c, 1, 63, 0
3, 323760, Note_on_c, 1, 62, 90
3, 323880, Note_on_c, 1, 62, 0
3, 323880, Note_on_c, 1, 63, 90
3, 324000, Note_on_c, 1, 63, 0
3, 324000, Note_on_c, 1, 62, 90
3, 324120, Note_on_c, 1, 62, 0
3, 324120, Note_on_c, 1, 60, 90
3, 324240, Note_on_c, 1, 60, 0
3, 324240, Note_on_c, 1, 62, 90
3, 324360, Note_on_c, 1, 62, 0
3, 324360, Note_on_c, 1, 60, 90
3, 324480, Note_on_c, 1, 60, 0
3, 324480, Note_on_c, 1, 59, 90
3, 324600, Note_on_c, 1, 59, 0
3, 324600, Note_on_c, 1, 57, 90
3, 324720, Note_on_c, 1, 57, 0
3, 324720, Note_on_c, 1, 55, 90
3, 324720, Note_on_c, 1, 59, 90
3, 324840, Note_on_c, 1, 59, 0
3, 324840, Note_on_c, 1, 60, 90
3, 324960, Note_on_c, 1, 60, 0
3, 324960, Note_on_c, 1, 57, 90
3, 325080, Note_on_c, 1, 57, 0
3, 325080, Note_on_c, 1, 59, 90
3, 325200, Note_on_c, 1, 59, 0
3, 325200, Note_on_c, 1, 55, 0
3, 325200, Note_on_c, 1, 51, 90
3, 325200, Note_on_c, 1, 60, 90
3, 325320, Note_on_c, 1, 60, 0
3, 325320, Note_on_c, 1, 59, 90
3, 325440, Note_on_c, 1, 59, 0
3, 325440, Note_on_c, 1, 51, 0
3, 325440, Note_on_c, 1, 56, 90
3, 325440, Note_on_c, 1, 60, 90
3, 325560, Note_on_c, 1, 60, 0
3, 325560, Note_on_c, 1, 62, 90
3, 325680, Note_on_c, 1, 62, 0
3, 325680, Note_on_c, 1, 60, 90
3, 325800, Note_on_c, 1, 60, 0
3, 325800, Note_on_c, 1, 62, 90
3, 325920, Note_on_c, 1, 62, 0
3, 325920, Note_on_c, 1, 56, 0
3, 325920, Note_on_c, 1, 55, 90
3, 325920, Note_on_c, 1, 63, 90
3, 326040, Note_on_c, 1, 63, 0
3, 326040, Note_on_c, 1, 62, 90
3, 326160, Note_on_c, 1, 62, 0
3, 326160, Note_on_c, 1, 55, 0
3, 326160, Note_on_c, 1, 60, 90
3, 326160, Note_on_c, 1, 63, 90
3, 326280, Note_on_c, 1, 63, 0
3, 326280, Note_on_c, 1, 65, 90
3, 326400, Note_on_c, 1, 65, 0
3, 326400, Note_on_c, 1, 63, 90
3, 326520, Note_on_c, 1, 63, 0
3, 326520, Note_on_c, 1, 65, 90
3, 326640, Note_on_c, 1, 65, 0
3, 326640, Note_on_c, 1, 67, 90
3, 326760, Note_on_c, 1, 67, 0
3, 326760, Note_on_c, 1, 65, 90
3, 326880, Note_on_c, 1, 65, 0
3, 326880, Note_on_c, 1, 60, 0
3, 326880, Note_on_c, 1, 59, 90
3, 326880, Note_on_c, 1, 67, 90
3, 327000, Note_on_c, 1, 67, 0
3, 327000, Note_on_c, 1, 68, 90
3, 327120, Note_on_c, 1, 68, 0
3, 327120, Note_on_c, 1, 67, 90
3, 327240, Note_on_c, 1, 67, 0
3, 327240, Note_on_c, 1, 65, 90
3, 327360, Note_on_c, 1, 65, 0
3, 327360, Note_on_c, 1, 59, 0
3, 327360, Note_on_c, 1, 60, 90
3, 327360, Note_on_c, 1, 63, 90
3, 327480, Note_on_c, 1, 63, 0
3, 327480, Note_on_c, 1, 65, 90
3, 327600, Note_on_c, 1, 65, 0
3, 327600, Note_on_c, 1, 63, 90
3, 327720, Note_on_c, 1, 63, 0
3, 327720, Note_on_c, 1, 62, 90
3, 327840, Note_on_c, 1, 62, 0
3, 327840, Note_on_c, 1, 60, 0
3, 327840, Note_on_c, 1, 58, 90
3, 327840, Note_on_c, 1, 63, 90
3, 327960, Note_on_c, 1, 63, 0
3, 327960, Note_on_c, 1, 62, 90
3, 328080, Note_on_c, 1, 62, 0
3, 328080, Note_on_c, 1, 58, 0
3, 328080, Note_on_c, 1, 56, 90
3, 328080, Note_on_c, 1, 60, 90
3, 328200, Note_on_c, 1, 60, 0
3, 328200, Note_on_c, 1, 61, 90
3, 328320, Note_on_c, 1, 61, 0
3, 328320, Note_on_c, 1, 60, 90
3, 328440, Note_on_c, 1, 60, 0
3, 328440, Note_on_c, 1, 58, 90
3, 328560, Note_on_c, 1, 58, 0
3, 328560, Note_on_c, 1, 56, 0
3, 328560, Note_on_c, 1, 55, 90
3, 328560, Note_on_c, 1, 60, 90
3, 328680, Note_on_c, 1, 60, 0
3, 328680, Note_on_c, 1, 58, 90
3, 328800, Note_on_c, 1, 58, 0
3, 328800, Note_on_c, 1, 55, 0
3, 328800, Note_on_c, 1, 53, 90
3, 328800, Note_on_c, 1, 56, 90
3, 328920, Note_on_c, 1, 56, 0
3, 328920, Note_on_c, 1, 58, 90
3, 329040, Note_on_c, 1, 58, 0
3, 329040, Note_on_c, 1, 56, 90
3, 329160, Note_on_c, 1, 56, 0
3, 329160, Note_on_c, 1, 55, 90
3, 329280, Note_on_c, 1, 55, 0
3, 329280, Note_on_c, 1, 53, 0
3, 329280, Note_on_c, 1, 51, 90
3, 329280, Note_on_c, 1, 56, 90
3, 329400, Note_on_c, 1, 56, 0
3, 329400, Note_on_c, 1, 55, 90
3, 329520, Note_on_c, 1, 55, 0
3, 329520, Note_on_c, 1, 51, 0
3, 329520, Note_on_c, 1, 50, 90
3, 329520, Note_on_c, 1, 53, 90
3, 329640, Note_on_c, 1, 53, 0
3, 329640, Note_on_c, 1, 55, 90
3, 329760, Note_on_c, 1, 55, 0
3, 329760, Note_on_c, 1, 53, 90
3, 329880, Note_on_c, 1, 53, 0
3, 329880, Note_on_c, 1, 51, 90
3, 330000, Note_on_c, 1, 51, 0
3, 330000, Note_on_c, 1, 50, 0
3, 330000, Note_on_c, 1, 48, 90
3, 330000, Note_on_c, 1, 53, 90
3, 330120, Note_on_c, 1, 53, 0
3, 330120, Note_on_c, 1, 51, 90
3, 330240, Note_on_c, 1, 51, 0
3, 330240, Note_on_c, 1, 48, 0
3, 330240, Note_on_c, 1, 47, 90
3, 330240, Note_on_c, 1, 50, 90
3, 330480, Note_on_c, 1, 50, 0
3, 330480, Note_on_c, 1, 47, 0
3, 330480, Note_on_c, 1, 43, 90
3, 330480, Note_on_c, 1, 55, 90
3, 330720, Note_on_c, 1, 43, 0
3, 330720, Note_on_c, 1, 48, 90
3, 330960, Note_on_c, 1, 48, 0
3, 330960, Note_on_c, 1, 55, 0
3, 330960, Note_on_c, 1, 53, 90
3, 330960, Note_on_c, 1, 56, 90
3, 331200, Note_on_c, 1, 56, 0
3, 331200, Note_on_c, 1, 53, 0
3, 331200, Note_on_c, 1, 55, 90
3, 331320, Note_on_c, 1, 59, 90
3, 331440, Note_on_c, 1, 59, 0
3, 331440, Note_on_c, 1, 62, 90
3, 331560, Note_on_c, 1, 62, 0
3, 331560, Note_on_c, 1, 65, 90
3, 331680, Note_on_c, 1, 65, 0
3, 331680, Note_on_c, 1, 55, 0
3, 331680, Note_on_c, 1, 48, 110
3, 331800, Note_on_c, 1, 48, 0
3, 331800, Note_on_c, 1, 51, 110
3, 331920, Note_on_c, 1, 51, 0
3, 331920, Note_on_c, 1, 55, 110
3, 332040, Note_on_c, 1, 55, 0
3, 332040, Note_on_c, 1, 60, 110
3, 332160, Note_on_c, 1, 60, 0
3, 332160, Note_on_c, 1, 58, 110
3, 332280, Note_on_c, 1, 58, 0
3, 332280, Note_on_c, 1, 60, 110
3, 332400, Note_on_c, 1, 60, 0
3, 332400, Note_on_c, 1, 53, 110
3, 332496, Note_on_c, 1, 53, 0
3, 332520, Note_on_c, 1, 56, 110
3, 332580, Note_on_c, 1, 56, 0
3, 332580, Note_on_c, 1, 55, 110
3, 332640, Note_on_c, 1, 55, 0
3, 332640, Note_on_c, 1, 56, 110
3, 332700, Note_on_c, 1, 56, 0
3, 332700, Note_on_c, 1, 53, 110
3, 332760, Note_on_c, 1, 53, 0
3, 332760, Note_on_c, 1, 58, 110
3, 332880, Note_on_c, 1, 58, 0
3, 332880, Note_on_c, 1, 56, 110
3, 333000, Note_on_c, 1, 56, 0
3, 333000, Note_on_c, 1, 58, 110
3, 333120, Note_on_c, 1, 58, 0
3, 333120, Note_on_c, 1, 51, 110
3, 333216, Note_on_c, 1, 51, 0
3, 333240, Note_on_c, 1, 55, 110
3, 333300, Note_on_c, 1, 55, 0
3, 333300, Note_on_c, 1, 53, 110
3, 333360, Note_on_c, 1, 53, 0
3, 333360, Note_on_c, 1, 55, 110
3, 333420, Note_on_c, 1, 55, 0
3, 333420, Note_on_c, 1, 51, 110
3, 333480, Note_on_c, 1, 51, 0
3, 333480, Note_on_c, 1, 58, 110
3, 334200, Note_on_c, 1, 58, 0
3, 334200, Note_on_c, 1, 56, 110
3, 334920, Note_on_c, 1, 56, 0
3, 334920, Note_on_c, 1, 55, 110
3, 334980, Note_on_c, 1, 55, 0
3, 334980, Note_on_c, 1, 53, 110
3, 335040, Note_on_c, 1, 53, 0
3, 335040, Note_on_c, 1, 51, 110
3, 335100, Note_on_c, 1, 51, 0
3, 335100, Note_on_c, 1, 53, 110
3, 335160, Note_on_c, 1, 53, 0
3, 335160, Note_on_c, 1, 55, 110
3, 335220, Note_on_c, 1, 55, 0
3, 335220, Note_on_c, 1, 56, 110
3, 335280, Note_on_c, 1, 56, 0
3, 335280, Note_on_c, 1, 58, 110
3, 335400, Note_on_c, 1, 58, 0
3, 335640, Note_on_c, 1, 56, 110
3, 335700, Note_on_c, 1, 56, 0
3, 335700, Note_on_c, 1, 55, 110
3, 335760, Note_on_c, 1, 55, 0
3, 335760, Note_on_c, 1, 53, 110
3, 335820, Note_on_c, 1, 53, 0
3, 335820, Note_on_c, 1, 55, 110
3, 335880, Note_on_c, 1, 55, 0
3, 335880, Note_on_c, 1, 56, 110
3, 335940, Note_on_c, 1, 56, 0
3, 335940, Note_on_c, 1, 58, 110
3, 336000, Note_on_c, 1, 58, 0
3, 336000, Note_on_c, 1, 60, 110
3, 336240, Note_on_c, 1, 60, 0
3, 336240, Note_on_c, 1, 58, 110
3, 336360, Note_on_c, 1, 58, 0
3, 336360, Note_on_c, 1, 56, 110
3, 336720, Note_on_c, 1, 56, 0
3, 336720, Note_on_c, 1, 56, 110
3, 336840, Note_on_c, 1, 56, 0
3, 336840, Note_on_c, 1, 55, 110
3, 336960, Note_on_c, 1, 55, 0
3, 336960, Note_on_c, 1, 53, 110
3, 337080, Note_on_c, 1, 53, 0
3, 337080, Note_on_c, 1, 55, 110
3, 337560, Note_on_c, 1, 55, 0
3, 337560, Note_on_c, 1, 53, 110
3, 337680, Note_on_c, 1, 53, 0
3, 337680, Note_on_c, 1, 51, 110
3, 337800, Note_on_c, 1, 51, 0
3, 337800, Note_on_c, 1, 53, 110
3, 337920, Note_on_c, 1, 53, 0
3, 337920, Note_on_c, 1, 51, 110
3, 338040, Note_on_c, 1, 51, 0
3, 338040, Note_on_c, 1, 53, 110
3, 338160, Note_on_c, 1, 53, 0
3, 338160, Note_on_c, 1, 46, 110
3, 338280, Note_on_c, 1, 46, 0
3, 338280, Note_on_c, 1, 50, 110
3, 338340, Note_on_c, 1, 50, 0
3, 338340, Note_on_c, 1, 48, 110
3, 338400, Note_on_c, 1, 48, 0
3, 338400, Note_on_c, 1, 50, 110
3, 338460, Note_on_c, 1, 50, 0
3, 338460, Note_on_c, 1, 46, 110
3, 338520, Note_on_c, 1, 46, 0
3, 338520, Note_on_c, 1, 51, 110
3, 338640, Note_on_c, 1, 51, 0
3, 338640, Note_on_c, 1, 50, 110
3, 338760, Note_on_c, 1, 50, 0
3, 338760, Note_on_c, 1, 51, 110
3, 338880, Note_on_c, 1, 51, 0
3, 338880, Note_on_c, 1, 45, 110
3, 339000, Note_on_c, 1, 45, 0
3, 339000, Note_on_c, 1, 48, 110
3, 339060, Note_on_c, 1, 48, 0
3, 339060, Note_on_c, 1, 46, 110
3, 339120, Note_on_c, 1, 46, 0
3, 339120, Note_on_c, 1, 48, 110
3, 339180, Note_on_c, 1, 48, 0
3, 339180, Note_on_c, 1, 45, 110
3, 339240, Note_on_c, 1, 45, 0
3, 339240, Note_on_c, 1, 50, 110
3, 339360, Note_on_c, 1, 50, 0
3, 339360, Note_on_c, 1, 48, 110
3, 339480, Note_on_c, 1, 48, 0
3, 339480, Note_on_c, 1, 50, 110
3, 339600, Note_on_c, 1, 50, 0
3, 339600, Note_on_c, 1, 43, 110
3, 339960, Note_on_c, 1, 43, 0
3, 340440, Note_on_c, 1, 56, 110
3, 340560, Note_on_c, 1, 56, 0
3, 340560, Note_on_c, 1, 55, 110
3, 340680, Note_on_c, 1, 55, 0
3, 340680, Note_on_c, 1, 56, 110
3, 341160, Note_on_c, 1, 56, 0
3, 341160, Note_on_c, 1, 55, 110
3, 341280, Note_on_c, 1, 55, 0
3, 341280, Note_on_c, 1, 53, 110
3, 341400, Note_on_c, 1, 53, 0
3, 341400, Note_on_c, 1, 55, 110
3, 341460, Note_on_c, 1, 55, 0
3, 341460, Note_on_c, 1, 53, 110
3, 341520, Note_on_c, 1, 53, 0
3, 341520, Note_on_c, 1, 51, 110
3, 341580, Note_on_c, 1, 51, 0
3, 341580, Note_on_c, 1, 53, 110
3, 341640, Note_on_c, 1, 53, 0
3, 341640, Note_on_c, 1, 55, 110
3, 341700, Note_on_c, 1, 55, 0
3, 341700, Note_on_c, 1, 56, 110
3, 341760, Note_on_c, 1, 56, 0
3, 342480, Note_on_c, 1, 63, 110
3, 342840, Note_on_c, 1, 63, 0
3, 342900, Note_on_c, 1, 65, 110
3, 342960, Note_on_c, 1, 65, 0
3, 342960, Note_on_c, 1, 63, 110
3, 343020, Note_on_c, 1, 63, 0
3, 343020, Note_on_c, 1, 62, 110
3, 343080, Note_on_c, 1, 62, 0
3, 343080, Note_on_c, 1, 60, 110
3, 343140, Note_on_c, 1, 60, 0
3, 343140, Note_on_c, 1, 58, 110
3, 343200, Note_on_c, 1, 58, 0
3, 343200, Note_on_c, 1, 57, 110
3, 343260, Note_on_c, 1, 57, 0
3, 343260, Note_on_c, 1, 53, 110
3, 343320, Note_on_c, 1, 53, 0
3, 343320, Note_on_c, 1, 55, 110
3, 343380, Note_on_c, 1, 55, 0
3, 343380, Note_on_c, 1, 57, 110
3, 343440, Note_on_c, 1, 57, 0
3, 343440, Note_on_c, 1, 58, 110
3, 343500, Note_on_c, 1, 58, 0
3, 343500, Note_on_c, 1, 60, 110
3, 343560, Note_on_c, 1, 60, 0
3, 343560, Note_on_c, 1, 62, 110
3, 343620, Note_on_c, 1, 62, 0
3, 343620, Note_on_c, 1, 58, 110
3, 343680, Note_on_c, 1, 58, 0
3, 343680, Note_on_c, 1, 60, 110
3, 343740, Note_on_c, 1, 60, 0
3, 343740, Note_on_c, 1, 62, 110
3, 343800, Note_on_c, 1, 62, 0
3, 343800, Note_on_c, 1, 63, 110
3, 343860, Note_on_c, 1, 63, 0
3, 343860, Note_on_c, 1, 65, 110
3, 343920, Note_on_c, 1, 65, 0
3, 343920, Note_on_c, 1, 67, 110
3, 343980, Note_on_c, 1, 67, 0
3, 343980, Note_on_c, 1, 68, 110
3, 344040, Note_on_c, 1, 68, 0
3, 344040, Note_on_c, 1, 67, 110
3, 344100, Note_on_c, 1, 67, 0
3, 344100, Note_on_c, 1, 65, 110
3, 344160, Note_on_c, 1, 65, 0
3, 344160, Note_on_c, 1, 63, 110
3, 344220, Note_on_c, 1, 63, 0
3, 344220, Note_on_c, 1, 62, 110
3, 344280, Note_on_c, 1, 62, 0
3, 344280, Note_on_c, 1, 60, 110
3, 344640, Note_on_c, 1, 60, 0
3, 344640, Note_on_c, 1, 58, 110
3, 345720, Note_on_c, 1, 58, 0
3, 345720, Note_on_c, 1, 56, 110
3, 346440, Note_on_c, 1, 56, 0
3, 346440, Note_on_c, 1, 55, 110
3, 346560, Note_on_c, 1, 55, 0
3, 346560, Note_on_c, 1, 56, 110
3, 346680, Note_on_c, 1, 56, 0
3, 346680, Note_on_c, 1, 58, 110
3, 346800, Note_on_c, 1, 58, 0
3, 346800, Note_on_c, 1, 60, 110
3, 347040, Note_on_c, 1, 60, 0
3, 347040, Note_on_c, 1, 55, 110
3, 347160, Note_on_c, 1, 55, 0
3, 347160, Note_on_c, 1, 56, 110
3, 347280, Note_on_c, 1, 56, 0
3, 347280, Note_on_c, 1, 55, 110
3, 347400, Note_on_c, 1, 55, 0
3, 347400, Note_on_c, 1, 56, 110
3, 347520, Note_on_c, 1, 56, 0
3, 347520, Note_on_c, 1, 58, 110
3, 347880, Note_on_c, 1, 58, 0
3, 347880, Note_on_c, 1, 67, 110
3, 348000, Note_on_c, 1, 67, 0
3, 348000, Note_on_c, 1, 65, 110
3, 348120, Note_on_c, 1, 65, 0
3, 348120, Note_on_c, 1, 67, 110
3, 348240, Note_on_c, 1, 67, 0
3, 348240, Note_on_c, 1, 60, 110
3, 348360, Note_on_c, 1, 60, 0
3, 348360, Note_on_c, 1, 63, 110
3, 348420, Note_on_c, 1, 63, 0
3, 348420, Note_on_c, 1, 62, 110
3, 348480, Note_on_c, 1, 62, 0
3, 348480, Note_on_c, 1, 63, 110
3, 348540, Note_on_c, 1, 63, 0
3, 348540, Note_on_c, 1, 60, 110
3, 348600, Note_on_c, 1, 60, 0
3, 348600, Note_on_c, 1, 65, 110
3, 348720, Note_on_c, 1, 65, 0
3, 348720, Note_on_c, 1, 63, 110
3, 348840, Note_on_c, 1, 63, 0
3, 348840, Note_on_c, 1, 65, 110
3, 348960, Note_on_c, 1, 65, 0
3, 348960, Note_on_c, 1, 58, 110
3, 349320, Note_on_c, 1, 58, 0
3, 349320, Note_on_c, 1, 63, 110
3, 349380, Note_on_c, 1, 63, 0
3, 349380, Note_on_c, 1, 51, 110
3, 349440, Note_on_c, 1, 51, 0
3, 349440, Note_on_c, 1, 53, 110
3, 349500, Note_on_c, 1, 53, 0
3, 349500, Note_on_c, 1, 55, 110
3, 349560, Note_on_c, 1, 55, 0
3, 349560, Note_on_c, 1, 56, 110
3, 349620, Note_on_c, 1, 56, 0
3, 349620, Note_on_c, 1, 58, 110
3, 349680, Note_on_c, 1, 58, 0
3, 349680, Note_on_c, 1, 60, 110
3, 350040, Note_on_c, 1, 60, 0
3, 350040, Note_on_c, 1, 60, 110
3, 350100, Note_on_c, 1, 60, 0
3, 350100, Note_on_c, 1, 49, 110
3, 350160, Note_on_c, 1, 49, 0
3, 350160, Note_on_c, 1, 51, 110
3, 350220, Note_on_c, 1, 51, 0
3, 350220, Note_on_c, 1, 53, 110
3, 350280, Note_on_c, 1, 53, 0
3, 350280, Note_on_c, 1, 55, 110
3, 350340, Note_on_c, 1, 55, 0
3, 350340, Note_on_c, 1, 56, 110
3, 350400, Note_on_c, 1, 56, 0
3, 350400, Note_on_c, 1, 58, 110
3, 350460, Note_on_c, 1, 58, 0
3, 350460, Note_on_c, 1, 60, 110
3, 350520, Note_on_c, 1, 60, 0
3, 350520, Note_on_c, 1, 61, 110
3, 350580, Note_on_c, 1, 61, 0
3, 350580, Note_on_c, 1, 60, 110
3, 350640, Note_on_c, 1, 60, 0
3, 350640, Note_on_c, 1, 61, 110
3, 350700, Note_on_c, 1, 61, 0
3, 350700, Note_on_c, 1, 58, 110
3, 350760, Note_on_c, 1, 58, 0
3, 350760, Note_on_c, 1, 60, 110
3, 350820, Note_on_c, 1, 60, 0
3, 350820, Note_on_c, 1, 61, 110
3, 350880, Note_on_c, 1, 61, 0
3, 350880, Note_on_c, 1, 63, 110
3, 350940, Note_on_c, 1, 63, 0
3, 350940, Note_on_c, 1, 61, 110
3, 351000, Note_on_c, 1, 61, 0
3, 351000, Note_on_c, 1, 63, 110
3, 351060, Note_on_c, 1, 63, 0
3, 351060, Note_on_c, 1, 60, 110
3, 351120, Note_on_c, 1, 60, 0
3, 351120, Note_on_c, 1, 58, 110
3, 351840, Note_on_c, 1, 58, 0
3, 351840, Note_on_c, 1, 56, 110
3, 352560, Note_on_c, 1, 56, 0
3, 352560, Note_on_c, 1, 56, 110
3, 352680, Note_on_c, 1, 56, 0
3, 352680, Note_on_c, 1, 60, 110
3, 352800, Note_on_c, 1, 60, 0
3, 352800, Note_on_c, 1, 65, 110
3, 353040, Note_on_c, 1, 65, 0
3, 353040, Note_on_c, 1, 63, 110
3, 353160, Note_on_c, 1, 63, 0
3, 353160, Note_on_c, 1, 65, 110
3, 353280, Note_on_c, 1, 65, 0
3, 353640, Note_on_c, 1, 62, 110
3, 353760, Note_on_c, 1, 62, 0
3, 353760, Note_on_c, 1, 60, 110
3, 353880, Note_on_c, 1, 60, 0
3, 353880, Note_on_c, 1, 62, 110
3, 354000, Note_on_c, 1, 62, 0
3, 354000, Note_on_c, 1, 55, 110
3, 354120, Note_on_c, 1, 55, 0
3, 354120, Note_on_c, 1, 58, 110
3, 354180, Note_on_c, 1, 58, 0
3, 354180, Note_on_c, 1, 56, 110
3, 354240, Note_on_c, 1, 56, 0
3, 354240, Note_on_c, 1, 58, 110
3, 354300, Note_on_c, 1, 58, 0
3, 354300, Note_on_c, 1, 55, 110
3, 354360, Note_on_c, 1, 55, 0
3, 354360, Note_on_c, 1, 60, 110
3, 354480, Note_on_c, 1, 60, 0
3, 354480, Note_on_c, 1, 58, 110
3, 354600, Note_on_c, 1, 58, 0
3, 354600, Note_on_c, 1, 60, 110
3, 354720, Note_on_c, 1, 60, 0
3, 354720, Note_on_c, 1, 53, 110
3, 354840, Note_on_c, 1, 53, 0
3, 354840, Note_on_c, 1, 56, 110
3, 354900, Note_on_c, 1, 56, 0
3, 354900, Note_on_c, 1, 55, 110
3, 354960, Note_on_c, 1, 55, 0
3, 354960, Note_on_c, 1, 56, 110
3, 355020, Note_on_c, 1, 56, 0
3, 355020, Note_on_c, 1, 53, 110
3, 355080, Note_on_c, 1, 53, 0
3, 355080, Note_on_c, 1, 58, 110
3, 355200, Note_on_c, 1, 58, 0
3, 355200, Note_on_c, 1, 56, 110
3, 355320, Note_on_c, 1, 56, 0
3, 355320, Note_on_c, 1, 58, 110
3, 355440, Note_on_c, 1, 58, 0
3, 355440, Note_on_c, 1, 51, 110
3, 355560, Note_on_c, 1, 51, 0
3, 355560, Note_on_c, 1, 55, 110
3, 355620, Note_on_c, 1, 55, 0
3, 355620, Note_on_c, 1, 53, 110
3, 355680, Note_on_c, 1, 53, 0
3, 355680, Note_on_c, 1, 55, 110
3, 355740, Note_on_c, 1, 55, 0
3, 355740, Note_on_c, 1, 51, 110
3, 355800, Note_on_c, 1, 51, 0
3, 355800, Note_on_c, 1, 56, 110
3, 355920, Note_on_c, 1, 56, 0
3, 355920, Note_on_c, 1, 55, 110
3, 356040, Note_on_c, 1, 55, 0
3, 356040, Note_on_c, 1, 56, 110
3, 356160, Note_on_c, 1, 56, 0
3, 356160, Note_on_c, 1, 49, 110
3, 356280, Note_on_c, 1, 49, 0
3, 356280, Note_on_c, 1, 51, 110
3, 356340, Note_on_c, 1, 51, 0
3, 356340, Note_on_c, 1, 53, 110
3, 356400, Note_on_c, 1, 53, 0
3, 356400, Note_on_c, 1, 55, 110
3, 356460, Note_on_c, 1, 55, 0
3, 356460, Note_on_c, 1, 57, 110
3, 356520, Note_on_c, 1, 57, 0
3, 356520, Note_on_c, 1, 58, 110
3, 356580, Note_on_c, 1, 58, 0
3, 356580, Note_on_c, 1, 60, 110
3, 356640, Note_on_c, 1, 60, 0
3, 356640, Note_on_c, 1, 58, 110
3, 356700, Note_on_c, 1, 58, 0
3, 356700, Note_on_c, 1, 56, 110
3, 356760, Note_on_c, 1, 56, 0
3, 356760, Note_on_c, 1, 55, 110
3, 356820, Note_on_c, 1, 55, 0
3, 356820, Note_on_c, 1, 53, 110
3, 356880, Note_on_c, 1, 53, 0
3, 356880, Note_on_c, 1, 55, 110
3, 356940, Note_on_c, 1, 55, 0
3, 356940, Note_on_c, 1, 51, 110
3, 357000, Note_on_c, 1, 51, 0
3, 357000, Note_on_c, 1, 53, 110
3, 357060, Note_on_c, 1, 53, 0
3, 357060, Note_on_c, 1, 55, 110
3, 357120, Note_on_c, 1, 55, 0
3, 357120, Note_on_c, 1, 56, 110
3, 357180, Note_on_c, 1, 56, 0
3, 357180, Note_on_c, 1, 58, 110
3, 357240, Note_on_c, 1, 58, 0
3, 357240, Note_on_c, 1, 60, 110
3, 357300, Note_on_c, 1, 60, 0
3, 357300, Note_on_c, 1, 58, 110
3, 357360, Note_on_c, 1, 58, 0
3, 357360, Note_on_c, 1, 56, 110
3, 357420, Note_on_c, 1, 56, 0
3, 357420, Note_on_c, 1, 58, 110
3, 357480, Note_on_c, 1, 58, 0
3, 357480, Note_on_c, 1, 60, 110
3, 357540, Note_on_c, 1, 60, 0
3, 357540, Note_on_c, 1, 61, 110
3, 357600, Note_on_c, 1, 61, 0
3, 357600, Note_on_c, 1, 63, 110
3, 358320, Note_on_c, 1, 63, 0
3, 358320, Note_on_c, 1, 56, 110
3, 359040, Note_on_c, 1, 56, 0
3, 359040, Note_on_c, 1, 55, 110
3, 359400, Note_on_c, 1, 55, 0
3, 359400, Note_on_c, 1, 56, 110
3, 359520, Note_on_c, 1, 56, 0
3, 359520, Note_on_c, 1, 55, 110
3, 359640, Note_on_c, 1, 55, 0
3, 359640, Note_on_c, 1, 56, 110
3, 359760, Note_on_c, 1, 56, 0
3, 359760, Note_on_c, 1, 50, 110
3, 359880, Note_on_c, 1, 50, 0
3, 359880, Note_on_c, 1, 53, 110
3, 359940, Note_on_c, 1, 53, 0
3, 359940, Note_on_c, 1, 51, 110
3, 360000, Note_on_c, 1, 51, 0
3, 360000, Note_on_c, 1, 53, 110
3, 360060, Note_on_c, 1, 53, 0
3, 360060, Note_on_c, 1, 50, 110
3, 360120, Note_on_c, 1, 50, 0
3, 360120, Note_on_c, 1, 55, 110
3, 360240, Note_on_c, 1, 55, 0
3, 360240, Note_on_c, 1, 53, 110
3, 360360, Note_on_c, 1, 53, 0
3, 360360, Note_on_c, 1, 55, 110
3, 360480, Note_on_c, 1, 55, 0
3, 360480, Note_on_c, 1, 48, 110
3, 360540, Note_on_c, 1, 55, 110
3, 360600, Note_on_c, 1, 55, 0
3, 360600, Note_on_c, 1, 48, 0
3, 360600, Note_on_c, 1, 57, 110
3, 360660, Note_on_c, 1, 57, 0
3, 360660, Note_on_c, 1, 59, 110
3, 360720, Note_on_c, 1, 59, 0
3, 360720, Note_on_c, 1, 60, 110
3, 360780, Note_on_c, 1, 60, 0
3, 360780, Note_on_c, 1, 62, 110
3, 360840, Note_on_c, 1, 62, 0
3, 360840, Note_on_c, 1, 63, 110
3, 360900, Note_on_c, 1, 63, 0
3, 360900, Note_on_c, 1, 62, 110
3, 360960, Note_on_c, 1, 62, 0
3, 360960, Note_on_c, 1, 60, 110
3, 361020, Note_on_c, 1, 60, 0
3, 361020, Note_on_c, 1, 62, 110
3, 361080, Note_on_c, 1, 62, 0
3, 361080, Note_on_c, 1, 63, 110
3, 361140, Note_on_c, 1, 63, 0
3, 361140, Note_on_c, 1, 65, 110
3, 361200, Note_on_c, 1, 65, 0
3, 361200, Note_on_c, 1, 67, 110
3, 361260, Note_on_c, 1, 67, 0
3, 361260, Note_on_c, 1, 68, 110
3, 361320, Note_on_c, 1, 68, 0
3, 361320, Note_on_c, 1, 67, 110
3, 361380, Note_on_c, 1, 67, 0
3, 361380, Note_on_c, 1, 65, 110
3, 361440, Note_on_c, 1, 65, 0
3, 361440, Note_on_c, 1, 63, 110
3, 361500, Note_on_c, 1, 63, 0
3, 361500, Note_on_c, 1, 62, 110
3, 361560, Note_on_c, 1, 62, 0
3, 361560, Note_on_c, 1, 60, 110
3, 361620, Note_on_c, 1, 60, 0
3, 361620, Note_on_c, 1, 62, 110
3, 361680, Note_on_c, 1, 62, 0
3, 361680, Note_on_c, 1, 60, 110
3, 361740, Note_on_c, 1, 60, 0
3, 361740, Note_on_c, 1, 58, 110
3, 361800, Note_on_c, 1, 58, 0
3, 361800, Note_on_c, 1, 57, 110
3, 361860, Note_on_c, 1, 57, 0
3, 361860, Note_on_c, 1, 58, 110
3, 361920, Note_on_c, 1, 58, 0
3, 361920, Note_on_c, 1, 60, 110
3, 362040, Note_on_c, 1, 60, 0
3, 362040, Note_on_c, 1, 62, 110
3, 362160, Note_on_c, 1, 62, 0
3, 362160, Note_on_c, 1, 63, 110
3, 362280, Note_on_c, 1, 63, 0
3, 362280, Note_on_c, 1, 57, 110
3, 362640, Note_on_c, 1, 57, 0
3, 362640, Note_on_c, 1, 58, 110
3, 362700, Note_on_c, 1, 58, 0
3, 362700, Note_on_c, 1, 55, 110
3, 362760, Note_on_c, 1, 55, 0
3, 362760, Note_on_c, 1, 57, 110
3, 362820, Note_on_c, 1, 57, 0
3, 362820, Note_on_c, 1, 58, 110
3, 362880, Note_on_c, 1, 58, 0
3, 362880, Note_on_c, 1, 60, 110
3, 362940, Note_on_c, 1, 60, 0
3, 362940, Note_on_c, 1, 62, 110
3, 363000, Note_on_c, 1, 62, 0
3, 363000, Note_on_c, 1, 63, 110
3, 363360, Note_on_c, 1, 63, 0
3, 363360, Note_on_c, 1, 63, 110
3, 363420, Note_on_c, 1, 63, 0
3, 363420, Note_on_c, 1, 60, 110
3, 363480, Note_on_c, 1, 60, 0
3, 363480, Note_on_c, 1, 62, 110
3, 363540, Note_on_c, 1, 62, 0
3, 363540, Note_on_c, 1, 63, 110
3, 363600, Note_on_c, 1, 63, 0
3, 363600, Note_on_c, 1, 65, 110
3, 363660, Note_on_c, 1, 65, 0
3, 363660, Note_on_c, 1, 67, 110
3, 363720, Note_on_c, 1, 67, 0
3, 363720, Note_on_c, 1, 68, 110
3, 364440, Note_on_c, 1, 68, 0
3, 364440, Note_on_c, 1, 67, 110
3, 364800, Note_on_c, 1, 67, 0
3, 364800, Note_on_c, 1, 65, 110
3, 365520, Note_on_c, 1, 65, 0
3, 365520, Note_on_c, 1, 63, 110
3, 365880, Note_on_c, 1, 60, 110
3, 366000, Note_on_c, 1, 60, 0
3, 366000, Note_on_c, 1, 58, 110
3, 366120, Note_on_c, 1, 58, 0
3, 366120, Note_on_c, 1, 60, 110
3, 366240, Note_on_c, 1, 60, 0
3, 366240, Note_on_c, 1, 63, 0
3, 366240, Note_on_c, 1, 53, 110
3, 366360, Note_on_c, 1, 53, 0
3, 366360, Note_on_c, 1, 56, 110
3, 366420, Note_on_c, 1, 56, 0
3, 366420, Note_on_c, 1, 55, 110
3, 366480, Note_on_c, 1, 55, 0
3, 366480, Note_on_c, 1, 56, 110
3, 366540, Note_on_c, 1, 56, 0
3, 366540, Note_on_c, 1, 53, 110
3, 366600, Note_on_c, 1, 53, 0
3, 366600, Note_on_c, 1, 58, 110
3, 366720, Note_on_c, 1, 58, 0
3, 366720, Note_on_c, 1, 56, 110
3, 366840, Note_on_c, 1, 56, 0
3, 366840, Note_on_c, 1, 58, 110
3, 366960, Note_on_c, 1, 58, 0
3, 366960, Note_on_c, 1, 51, 110
3, 367080, Note_on_c, 1, 51, 0
3, 367080, Note_on_c, 1, 55, 110
3, 367140, Note_on_c, 1, 55, 0
3, 367140, Note_on_c, 1, 53, 110
3, 367200, Note_on_c, 1, 53, 0
3, 367200, Note_on_c, 1, 55, 110
3, 367260, Note_on_c, 1, 55, 0
3, 367260, Note_on_c, 1, 51, 110
3, 367320, Note_on_c, 1, 51, 0
3, 367320, Note_on_c, 1, 56, 110
3, 367440, Note_on_c, 1, 56, 0
3, 367440, Note_on_c, 1, 55, 110
3, 367560, Note_on_c, 1, 55, 0
3, 367560, Note_on_c, 1, 56, 110
3, 367680, Note_on_c, 1, 56, 0
3, 367680, Note_on_c, 1, 53, 110
3, 367680, Note_on_c, 1, 58, 110
3, 367800, Note_on_c, 1, 53, 0
3, 367800, Note_on_c, 1, 55, 110
3, 367920, Note_on_c, 1, 55, 0
3, 367920, Note_on_c, 1, 58, 0
3, 367920, Note_on_c, 1, 56, 110
3, 367920, Note_on_c, 1, 60, 110
3, 368040, Note_on_c, 1, 60, 0
3, 368040, Note_on_c, 1, 56, 0
3, 368040, Note_on_c, 1, 58, 110
3, 368040, Note_on_c, 1, 62, 110
3, 368400, Note_on_c, 1, 62, 0
3, 368400, Note_on_c, 1, 58, 0
3, 368400, Note_on_c, 1, 58, 110
3, 368400, Note_on_c, 1, 63, 110
3, 368760, Note_on_c, 1, 63, 0
3, 368760, Note_on_c, 1, 58, 0
3, 368760, Note_on_c, 1, 60, 110
3, 368760, Note_on_c, 1, 56, 110
3, 369120, Note_on_c, 1, 60, 0
3, 369120, Note_on_c, 1, 62, 110
3, 369480, Note_on_c, 1, 62, 0
3, 369480, Note_on_c, 1, 56, 0
3, 369480, Note_on_c, 1, 55, 110
3, 369540, Note_on_c, 1, 55, 0
3, 369540, Note_on_c, 1, 51, 110
3, 369600, Note_on_c, 1, 51, 0
3, 369600, Note_on_c, 1, 53, 110
3, 369660, Note_on_c, 1, 53, 0
3, 369660, Note_on_c, 1, 55, 110
3, 369720, Note_on_c, 1, 55, 0
3, 369720, Note_on_c, 1, 56, 110
3, 369780, Note_on_c, 1, 56, 0
3, 369780, Note_on_c, 1, 58, 110
3, 369840, Note_on_c, 1, 58, 0
3, 369840, Note_on_c, 1, 60, 110
3, 370260, Note_on_c, 1, 60, 0
3, 370260, Note_on_c, 1, 61, 110
3, 370320, Note_on_c, 1, 61, 0
3, 370320, Note_on_c, 1, 60, 110
3, 370380, Note_on_c, 1, 60, 0
3, 370380, Note_on_c, 1, 58, 110
3, 370440, Note_on_c, 1, 58, 0
3, 370440, Note_on_c, 1, 56, 110
3, 370500, Note_on_c, 1, 56, 0
3, 370500, Note_on_c, 1, 55, 110
3, 370560, Note_on_c, 1, 55, 0
3, 370560, Note_on_c, 1, 56, 110
3, 370620, Note_on_c, 1, 56, 0
3, 370620, Note_on_c, 1, 58, 110
3, 370680, Note_on_c, 1, 58, 0
3, 370680, Note_on_c, 1, 56, 110
3, 370740, Note_on_c, 1, 56, 0
3, 370740, Note_on_c, 1, 55, 110
3, 370800, Note_on_c, 1, 55, 0
3, 370800, Note_on_c, 1, 53, 110
3, 370860, Note_on_c, 1, 53, 0
3, 370860, Note_on_c, 1, 51, 110
3, 370920, Note_on_c, 1, 51, 0
3, 370920, Note_on_c, 1, 53, 110
3, 370980, Note_on_c, 1, 53, 0
3, 370980, Note_on_c, 1, 56, 110
3, 371040, Note_on_c, 1, 56, 0
3, 371040, Note_on_c, 1, 55, 110
3, 371100, Note_on_c, 1, 55, 0
3, 371100, Note_on_c, 1, 53, 110
3, 371160, Note_on_c, 1, 53, 0
3, 371160, Note_on_c, 1, 51, 110
3, 371220, Note_on_c, 1, 51, 0
3, 371220, Note_on_c, 1, 50, 110
3, 371280, Note_on_c, 1, 50, 0
3, 371280, Note_on_c, 1, 58, 110
3, 371280, Note_on_c, 1, 51, 110
3, 371640, Note_on_c, 1, 51, 0
3, 371640, Note_on_c, 1, 58, 0
3, 372060, Note_on_c, 1, 67, 110
3, 372120, Note_on_c, 1, 67, 0
3, 372120, Note_on_c, 1, 65, 110
3, 372180, Note_on_c, 1, 65, 0
3, 372180, Note_on_c, 1, 63, 110
3, 372240, Note_on_c, 1, 63, 0
3, 372240, Note_on_c, 1, 62, 110
3, 372300, Note_on_c, 1, 62, 0
3, 372300, Note_on_c, 1, 60, 110
3, 372360, Note_on_c, 1, 60, 0
3, 372360, Note_on_c, 1, 58, 110
3, 372720, Note_on_c, 1, 58, 0
3, 372720, Note_on_c, 1, 75, 110
3, 373140, Note_on_c, 1, 67, 110
3, 373200, Note_on_c, 1, 67, 0
3, 373200, Note_on_c, 1, 65, 110
3, 373260, Note_on_c, 1, 65, 0
3, 373260, Note_on_c, 1, 63, 110
3, 373320, Note_on_c, 1, 63, 0
3, 373320, Note_on_c, 1, 62, 110
3, 373380, Note_on_c, 1, 62, 0
3, 373380, Note_on_c, 1, 60, 110
3, 373440, Note_on_c, 1, 60, 0
3, 373440, Note_on_c, 1, 75, 0
3, 373440, Note_on_c, 1, 65, 110
3, 373440, Note_on_c, 1, 58, 110
3, 373560, Note_on_c, 1, 58, 0
3, 373560, Note_on_c, 1, 65, 0
3, 376680, Note_on_c, 1, 65, 110
3, 376800, Note_on_c, 1, 65, 0
3, 376800, Note_on_c, 1, 63, 110
3, 376920, Note_on_c, 1, 63, 0
3, 376920, Note_on_c, 1, 65, 110
3, 377040, Note_on_c, 1, 65, 0
3, 377040, Note_on_c, 1, 58, 110
3, 377160, Note_on_c, 1, 58, 0
3, 377160, Note_on_c, 1, 62, 110
3, 377220, Note_on_c, 1, 62, 0
3, 377220, Note_on_c, 1, 60, 110
3, 377280, Note_on_c, 1, 60, 0
3, 377280, Note_on_c, 1, 62, 110
3, 377340, Note_on_c, 1, 62, 0
3, 377340, Note_on_c, 1, 58, 110
3, 377400, Note_on_c, 1, 58, 0
3, 377400, Note_on_c, 1, 63, 110
3, 377520, Note_on_c, 1, 63, 0
3, 377520, Note_on_c, 1, 62, 110
3, 377640, Note_on_c, 1, 62, 0
3, 377640, Note_on_c, 1, 63, 110
3, 377760, Note_on_c, 1, 63, 0
3, 377760, Note_on_c, 1, 56, 110
3, 378480, Note_on_c, 1, 56, 0
3, 378480, Note_on_c, 1, 58, 127
3, 378840, Note_on_c, 1, 58, 0
3, 378840, Note_on_c, 1, 58, 127
3, 378960, Note_on_c, 1, 58, 0
3, 378960, Note_on_c, 1, 56, 127
3, 379080, Note_on_c, 1, 56, 0
3, 379080, Note_on_c, 1, 58, 127
3, 379200, Note_on_c, 1, 58, 0
3, 379200, Note_on_c, 1, 51, 127
3, 379320, Note_on_c, 1, 51, 0
3, 379320, Note_on_c, 1, 55, 127
3, 379380, Note_on_c, 1, 55, 0
3, 379380, Note_on_c, 1, 53, 127
3, 379440, Note_on_c, 1, 53, 0
3, 379440, Note_on_c, 1, 55, 127
3, 379500, Note_on_c, 1, 55, 0
3, 379500, Note_on_c, 1, 51, 127
3, 379560, Note_on_c, 1, 51, 0
3, 379560, Note_on_c, 1, 56, 127
3, 379680, Note_on_c, 1, 56, 0
3, 379680, Note_on_c, 1, 55, 127
3, 379800, Note_on_c, 1, 55, 0
3, 379800, Note_on_c, 1, 56, 127
3, 379920, Note_on_c, 1, 56, 0
3, 379920, Note_on_c, 1, 50, 127
3, 379980, Note_on_c, 1, 50, 0
3, 379980, Note_on_c, 1, 46, 127
3, 380040, Note_on_c, 1, 46, 0
3, 380040, Note_on_c, 1, 48, 127
3, 380100, Note_on_c, 1, 48, 0
3, 380100, Note_on_c, 1, 50, 127
3, 380160, Note_on_c, 1, 50, 0
3, 380160, Note_on_c, 1, 51, 127
3, 380220, Note_on_c, 1, 51, 0
3, 380220, Note_on_c, 1, 53, 127
3, 380280, Note_on_c, 1, 53, 0
3, 380280, Note_on_c, 1, 55, 127
3, 380340, Note_on_c, 1, 55, 0
3, 380340, Note_on_c, 1, 51, 127
3, 380400, Note_on_c, 1, 51, 0
3, 380400, Note_on_c, 1, 53, 127
3, 380460, Note_on_c, 1, 53, 0
3, 380460, Note_on_c, 1, 55, 127
3, 380520, Note_on_c, 1, 55, 0
3, 380520, Note_on_c, 1, 56, 127
3, 380580, Note_on_c, 1, 56, 0
3, 380580, Note_on_c, 1, 58, 127
3, 380640, Note_on_c, 1, 58, 0
3, 380640, Note_on_c, 1, 60, 127
3, 380700, Note_on_c, 1, 60, 0
3, 380700, Note_on_c, 1, 56, 127
3, 380760, Note_on_c, 1, 56, 0
3, 380760, Note_on_c, 1, 58, 127
3, 380820, Note_on_c, 1, 58, 0
3, 380820, Note_on_c, 1, 60, 127
3, 380880, Note_on_c, 1, 60, 0
3, 380880, Note_on_c, 1, 62, 127
3, 380940, Note_on_c, 1, 62, 0
3, 380940, Note_on_c, 1, 63, 127
3, 381000, Note_on_c, 1, 63, 0
3, 381000, Note_on_c, 1, 65, 127
3, 381060, Note_on_c, 1, 65, 0
3, 381060, Note_on_c, 1, 67, 127
3, 381120, Note_on_c, 1, 67, 0
3, 381120, Note_on_c, 1, 65, 127
3, 381180, Note_on_c, 1, 65, 0
3, 381180, Note_on_c, 1, 63, 127
3, 381240, Note_on_c, 1, 63, 0
3, 381240, Note_on_c, 1, 62, 127
3, 381300, Note_on_c, 1, 62, 0
3, 381300, Note_on_c, 1, 60, 127
3, 381360, Note_on_c, 1, 60, 0
3, 381360, Note_on_c, 1, 58, 127
3, 381840, Note_on_c, 1, 58, 0
3, 381840, Note_on_c, 1, 63, 127
3, 382200, Note_on_c, 1, 63, 0
3, 382200, Note_on_c, 1, 55, 127
3, 382320, Note_on_c, 1, 55, 0
3, 382320, Note_on_c, 1, 56, 127
3, 382440, Note_on_c, 1, 56, 0
3, 382440, Note_on_c, 1, 58, 127
3, 383010, Note_on_c, 1, 58, 0
3, 383010, Note_on_c, 1, 58, 127
3, 383520, Note_on_c, 1, 58, 0
3, 383520, End_track
4, 0, Start_track
4, 0, MIDI_port, 0
4, 0, Title_t, "Johann Sebastian Bach   (1685-1750)"
4, 0, Program_c, 2, 19
4, 0, Control_c, 2, 7, 100
4, 0, Control_c, 2, 10, 64
4, 0, Note_on_c, 2, 39, 127
4, 480, Note_on_c, 2, 39, 0
4, 840, Note_on_c, 2, 43, 127
4, 960, Note_on_c, 2, 43, 0
4, 960, Note_on_c, 2, 41, 127
4, 1620, Note_on_c, 2, 41, 0
4, 1620, Note_on_c, 2, 44, 127
4, 1680, Note_on_c, 2, 44, 0
4, 1680, Note_on_c, 2, 43, 127
4, 1860, Note_on_c, 2, 43, 0
4, 1860, Note_on_c, 2, 44, 127
4, 1920, Note_on_c, 2, 44, 0
4, 1920, Note_on_c, 2, 38, 127
4, 2400, Note_on_c, 2, 38, 0
4, 2760, Note_on_c, 2, 34, 127
4, 2880, Note_on_c, 2, 34, 0
4, 2880, Note_on_c, 2, 39, 127
4, 3540, Note_on_c, 2, 39, 0
4, 3540, Note_on_c, 2, 34, 127
4, 3600, Note_on_c, 2, 34, 0
4, 3600, Note_on_c, 2, 31, 127
4, 3780, Note_on_c, 2, 31, 0
4, 3780, Note_on_c, 2, 34, 127
4, 3840, Note_on_c, 2, 34, 0
4, 3840, Note_on_c, 2, 27, 127
4, 4320, Note_on_c, 2, 27, 0
4, 4740, Note_on_c, 2, 39, 127
4, 4800, Note_on_c, 2, 39, 0
4, 4800, Note_on_c, 2, 38, 127
4, 5280, Note_on_c, 2, 38, 0
4, 5700, Note_on_c, 2, 38, 127
4, 5760, Note_on_c, 2, 38, 0
4, 5760, Note_on_c, 2, 36, 127
4, 6240, Note_on_c, 2, 36, 0
4, 6660, Note_on_c, 2, 36, 127
4, 6720, Note_on_c, 2, 36, 0
4, 6720, Note_on_c, 2, 34, 127
4, 7200, Note_on_c, 2, 34, 0
4, 7620, Note_on_c, 2, 34, 127
4, 7680, Note_on_c, 2, 34, 0
4, 7680, Note_on_c, 2, 33, 127
4, 8160, Note_on_c, 2, 33, 0
4, 8580, Note_on_c, 2, 36, 127
4, 8640, Note_on_c, 2, 36, 0
4, 8640, Note_on_c, 2, 29, 127
4, 9120, Note_on_c, 2, 29, 0
4, 9540, Note_on_c, 2, 33, 127
4, 9600, Note_on_c, 2, 33, 0
4, 9600, Note_on_c, 2, 34, 127
4, 9960, Note_on_c, 2, 34, 0
4, 10020, Note_on_c, 2, 33, 127
4, 10080, Note_on_c, 2, 33, 0
4, 10080, Note_on_c, 2, 34, 127
4, 10440, Note_on_c, 2, 34, 0
4, 10500, Note_on_c, 2, 26, 127
4, 10560, Note_on_c, 2, 26, 0
4, 10560, Note_on_c, 2, 27, 127
4, 10920, Note_on_c, 2, 27, 0
4, 10980, Note_on_c, 2, 34, 127
4, 11040, Note_on_c, 2, 34, 0
4, 11040, Note_on_c, 2, 36, 127
4, 11400, Note_on_c, 2, 36, 0
4, 11460, Note_on_c, 2, 27, 127
4, 11520, Note_on_c, 2, 27, 0
4, 11520, Note_on_c, 2, 29, 127
4, 11880, Note_on_c, 2, 29, 0
4, 11940, Note_on_c, 2, 36, 127
4, 12000, Note_on_c, 2, 36, 0
4, 12000, Note_on_c, 2, 38, 127
4, 12360, Note_on_c, 2, 38, 0
4, 12420, Note_on_c, 2, 29, 127
4, 12480, Note_on_c, 2, 29, 0
4, 12480, Note_on_c, 2, 31, 127
4, 12840, Note_on_c, 2, 31, 0
4, 12900, Note_on_c, 2, 38, 127
4, 12960, Note_on_c, 2, 38, 0
4, 12960, Note_on_c, 2, 39, 127
4, 13320, Note_on_c, 2, 39, 0
4, 13380, Note_on_c, 2, 31, 127
4, 13440, Note_on_c, 2, 31, 0
4, 13440, Note_on_c, 2, 33, 127
4, 13800, Note_on_c, 2, 33, 0
4, 13860, Note_on_c, 2, 41, 127
4, 13920, Note_on_c, 2, 41, 0
4, 13920, Note_on_c, 2, 38, 127
4, 14280, Note_on_c, 2, 38, 0
4, 14340, Note_on_c, 2, 34, 127
4, 14400, Note_on_c, 2, 34, 0
4, 14400, Note_on_c, 2, 41, 127
4, 14880, Note_on_c, 2, 41, 0
4, 14880, Note_on_c, 2, 29, 127
4, 15360, Note_on_c, 2, 29, 0
4, 15360, Note_on_c, 2, 34, 127
4, 15840, Note_on_c, 2, 34, 0
4, 16200, Note_on_c, 2, 34, 127
4, 16320, Note_on_c, 2, 34, 0
4, 16320, Note_on_c, 2, 35, 127
4, 16980, Note_on_c, 2, 35, 0
4, 16980, Note_on_c, 2, 38, 127
4, 17040, Note_on_c, 2, 38, 0
4, 17040, Note_on_c, 2, 36, 127
4, 17220, Note_on_c, 2, 36, 0
4, 17220, Note_on_c, 2, 38, 127
4, 17280, Note_on_c, 2, 38, 0
4, 17280, Note_on_c, 2, 31, 127
4, 17760, Note_on_c, 2, 31, 0
4, 18120, Note_on_c, 2, 35, 127
4, 18240, Note_on_c, 2, 35, 0
4, 18240, Note_on_c, 2, 36, 127
4, 18900, Note_on_c, 2, 36, 0
4, 18900, Note_on_c, 2, 39, 127
4, 18960, Note_on_c, 2, 39, 0
4, 18960, Note_on_c, 2, 38, 127
4, 19140, Note_on_c, 2, 38, 0
4, 19140, Note_on_c, 2, 39, 127
4, 19200, Note_on_c, 2, 39, 0
4, 19200, Note_on_c, 2, 29, 127
4, 19680, Note_on_c, 2, 29, 0
4, 20100, Note_on_c, 2, 34, 127
4, 20160, Note_on_c, 2, 34, 0
4, 20160, Note_on_c, 2, 27, 127
4, 20640, Note_on_c, 2, 27, 0
4, 21060, Note_on_c, 2, 39, 127
4, 21120, Note_on_c, 2, 39, 0
4, 21120, Note_on_c, 2, 32, 127
4, 21600, Note_on_c, 2, 32, 0
4, 22020, Note_on_c, 2, 33, 127
4, 22080, Note_on_c, 2, 33, 0
4, 22080, Note_on_c, 2, 34, 127
4, 22740, Note_on_c, 2, 34, 0
4, 22740, Note_on_c, 2, 38, 127
4, 22800, Note_on_c, 2, 38, 0
4, 22800, Note_on_c, 2, 36, 127
4, 22980, Note_on_c, 2, 36, 0
4, 22980, Note_on_c, 2, 39, 127
4, 23040, Note_on_c, 2, 39, 0
4, 23040, Note_on_c, 2, 34, 127
4, 23520, Note_on_c, 2, 34, 0
4, 23940, Note_on_c, 2, 34, 127
4, 24000, Note_on_c, 2, 34, 0
4, 24000, Note_on_c, 2, 39, 127
4, 24480, Note_on_c, 2, 39, 0
4, 24900, Note_on_c, 2, 34, 127
4, 24960, Note_on_c, 2, 34, 0
4, 24960, Note_on_c, 2, 43, 127
4, 25440, Note_on_c, 2, 43, 0
4, 25860, Note_on_c, 2, 33, 127
4, 25920, Note_on_c, 2, 33, 0
4, 25920, Note_on_c, 2, 34, 127
4, 26400, Note_on_c, 2, 34, 0
4, 26820, Note_on_c, 2, 32, 127
4, 26880, Note_on_c, 2, 32, 0
4, 26880, Note_on_c, 2, 31, 127
4, 27360, Note_on_c, 2, 31, 0
4, 27780, Note_on_c, 2, 31, 127
4, 27840, Note_on_c, 2, 31, 0
4, 27840, Note_on_c, 2, 36, 127
4, 28320, Note_on_c, 2, 36, 0
4, 28740, Note_on_c, 2, 38, 127
4, 28800, Note_on_c, 2, 38, 0
4, 28800, Note_on_c, 2, 39, 127
4, 29040, Note_on_c, 2, 39, 0
4, 29040, Note_on_c, 2, 31, 127
4, 29280, Note_on_c, 2, 31, 0
4, 29280, Note_on_c, 2, 32, 127
4, 29520, Note_on_c, 2, 32, 0
4, 29520, Note_on_c, 2, 34, 127
4, 29760, Note_on_c, 2, 34, 0
4, 29760, Note_on_c, 2, 27, 127
4, 30720, Note_on_c, 2, 27, 0
4, 32160, Note_on_c, 2, 27, 127
4, 32400, Note_on_c, 2, 27, 0
4, 34080, Note_on_c, 2, 27, 127
4, 34320, Note_on_c, 2, 27, 0
4, 36000, Note_on_c, 2, 34, 127
4, 36192, Note_on_c, 2, 34, 0
4, 37920, Note_on_c, 2, 34, 80
4, 38112, Note_on_c, 2, 34, 0
4, 48000, Note_on_c, 2, 34, 127
4, 48384, Note_on_c, 2, 34, 0
4, 48840, Note_on_c, 2, 34, 127
4, 48936, Note_on_c, 2, 34, 0
4, 48960, Note_on_c, 2, 36, 127
4, 49620, Note_on_c, 2, 36, 0
4, 49620, Note_on_c, 2, 39, 127
4, 49680, Note_on_c, 2, 39, 0
4, 49680, Note_on_c, 2, 38, 127
4, 49860, Note_on_c, 2, 38, 0
4, 49860, Note_on_c, 2, 39, 127
4, 49920, Note_on_c, 2, 39, 0
4, 49920, Note_on_c, 2, 29, 127
4, 50400, Note_on_c, 2, 29, 0
4, 50760, Note_on_c, 2, 29, 127
4, 50880, Note_on_c, 2, 29, 0
4, 50880, Note_on_c, 2, 34, 127
4, 51360, Note_on_c, 2, 34, 0
4, 51360, Note_on_c, 2, 34, 127
4, 51540, Note_on_c, 2, 34, 0
4, 51540, Note_on_c, 2, 38, 127
4, 51600, Note_on_c, 2, 38, 0
4, 51600, Note_on_c, 2, 36, 127
4, 51780, Note_on_c, 2, 36, 0
4, 51780, Note_on_c, 2, 39, 127
4, 51840, Note_on_c, 2, 39, 0
4, 51840, Note_on_c, 2, 38, 127
4, 52500, Note_on_c, 2, 38, 0
4, 52500, Note_on_c, 2, 36, 127
4, 52560, Note_on_c, 2, 36, 0
4, 52560, Note_on_c, 2, 38, 127
4, 52740, Note_on_c, 2, 38, 0
4, 52740, Note_on_c, 2, 34, 127
4, 52800, Note_on_c, 2, 34, 0
4, 52800, Note_on_c, 2, 39, 127
4, 53460, Note_on_c, 2, 39, 0
4, 53460, Note_on_c, 2, 43, 127
4, 53520, Note_on_c, 2, 43, 0
4, 53520, Note_on_c, 2, 41, 127
4, 53700, Note_on_c, 2, 41, 0
4, 53700, Note_on_c, 2, 44, 127
4, 53760, Note_on_c, 2, 44, 0
4, 53760, Note_on_c, 2, 43, 127
4, 54420, Note_on_c, 2, 43, 0
4, 54420, Note_on_c, 2, 41, 127
4, 54480, Note_on_c, 2, 41, 0
4, 54480, Note_on_c, 2, 43, 127
4, 54660, Note_on_c, 2, 43, 0
4, 54660, Note_on_c, 2, 39, 127
4, 54720, Note_on_c, 2, 39, 0
4, 54720, Note_on_c, 2, 44, 127
4, 55380, Note_on_c, 2, 44, 0
4, 55380, Note_on_c, 2, 46, 127
4, 55440, Note_on_c, 2, 46, 0
4, 55440, Note_on_c, 2, 43, 127
4, 55620, Note_on_c, 2, 43, 0
4, 55620, Note_on_c, 2, 44, 127
4, 55680, Note_on_c, 2, 44, 0
4, 55680, Note_on_c, 2, 41, 127
4, 56160, Note_on_c, 2, 41, 0
4, 56580, Note_on_c, 2, 41, 127
4, 56640, Note_on_c, 2, 41, 0
4, 56640, Note_on_c, 2, 39, 127
4, 57120, Note_on_c, 2, 39, 0
4, 57540, Note_on_c, 2, 39, 127
4, 57600, Note_on_c, 2, 39, 0
4, 57600, Note_on_c, 2, 38, 115
4, 58080, Note_on_c, 2, 38, 0
4, 58500, Note_on_c, 2, 38, 115
4, 58560, Note_on_c, 2, 38, 0
4, 58560, Note_on_c, 2, 36, 115
4, 59040, Note_on_c, 2, 36, 0
4, 59460, Note_on_c, 2, 36, 115
4, 59520, Note_on_c, 2, 36, 0
4, 59520, Note_on_c, 2, 35, 127
4, 60000, Note_on_c, 2, 35, 0
4, 60420, Note_on_c, 2, 38, 127
4, 60480, Note_on_c, 2, 38, 0
4, 60480, Note_on_c, 2, 31, 127
4, 60960, Note_on_c, 2, 31, 0
4, 61380, Note_on_c, 2, 35, 127
4, 61440, Note_on_c, 2, 35, 0
4, 61440, Note_on_c, 2, 36, 127
4, 61800, Note_on_c, 2, 36, 0
4, 61860, Note_on_c, 2, 35, 127
4, 61920, Note_on_c, 2, 35, 0
4, 61920, Note_on_c, 2, 36, 127
4, 62280, Note_on_c, 2, 36, 0
4, 62340, Note_on_c, 2, 27, 127
4, 62400, Note_on_c, 2, 27, 0
4, 62400, Note_on_c, 2, 29, 127
4, 62760, Note_on_c, 2, 29, 0
4, 62820, Note_on_c, 2, 36, 127
4, 62880, Note_on_c, 2, 36, 0
4, 62880, Note_on_c, 2, 38, 127
4, 63240, Note_on_c, 2, 38, 0
4, 63300, Note_on_c, 2, 29, 127
4, 63360, Note_on_c, 2, 29, 0
4, 63360, Note_on_c, 2, 31, 127
4, 63720, Note_on_c, 2, 31, 0
4, 63780, Note_on_c, 2, 38, 127
4, 63840, Note_on_c, 2, 38, 0
4, 63840, Note_on_c, 2, 39, 127
4, 64200, Note_on_c, 2, 39, 0
4, 64260, Note_on_c, 2, 31, 127
4, 64320, Note_on_c, 2, 31, 0
4, 64320, Note_on_c, 2, 32, 127
4, 64680, Note_on_c, 2, 32, 0
4, 64740, Note_on_c, 2, 39, 127
4, 64800, Note_on_c, 2, 39, 0
4, 64800, Note_on_c, 2, 41, 127
4, 65160, Note_on_c, 2, 41, 0
4, 65220, Note_on_c, 2, 33, 127
4, 65280, Note_on_c, 2, 33, 0
4, 65280, Note_on_c, 2, 35, 127
4, 65640, Note_on_c, 2, 35, 0
4, 65700, Note_on_c, 2, 43, 127
4, 65760, Note_on_c, 2, 43, 0
4, 65760, Note_on_c, 2, 39, 127
4, 66120, Note_on_c, 2, 39, 0
4, 66180, Note_on_c, 2, 36, 127
4, 66240, Note_on_c, 2, 36, 0
4, 66240, Note_on_c, 2, 43, 127
4, 66720, Note_on_c, 2, 43, 0
4, 66720, Note_on_c, 2, 31, 127
4, 67200, Note_on_c, 2, 31, 0
4, 67200, Note_on_c, 2, 36, 127
4, 67440, Note_on_c, 2, 36, 0
4, 93960, Note_on_c, 2, 40, 127
4, 94080, Note_on_c, 2, 40, 0
4, 94080, Note_on_c, 2, 41, 127
4, 94740, Note_on_c, 2, 41, 0
4, 94740, Note_on_c, 2, 44, 127
4, 94800, Note_on_c, 2, 44, 0
4, 94800, Note_on_c, 2, 43, 127
4, 94980, Note_on_c, 2, 43, 0
4, 94980, Note_on_c, 2, 44, 127
4, 95040, Note_on_c, 2, 44, 0
4, 95040, Note_on_c, 2, 34, 127
4, 95520, Note_on_c, 2, 34, 0
4, 95940, Note_on_c, 2, 39, 127
4, 96000, Note_on_c, 2, 39, 0
4, 96000, Note_on_c, 2, 32, 127
4, 96480, Note_on_c, 2, 32, 0
4, 96900, Note_on_c, 2, 44, 127
4, 96960, Note_on_c, 2, 44, 0
4, 96960, Note_on_c, 2, 37, 127
4, 97440, Note_on_c, 2, 37, 0
4, 97860, Note_on_c, 2, 38, 127
4, 97920, Note_on_c, 2, 38, 0
4, 97920, Note_on_c, 2, 39, 127
4, 98580, Note_on_c, 2, 39, 0
4, 98580, Note_on_c, 2, 43, 127
4, 98640, Note_on_c, 2, 43, 0
4, 98640, Note_on_c, 2, 41, 127
4, 98820, Note_on_c, 2, 41, 0
4, 98820, Note_on_c, 2, 44, 127
4, 98880, Note_on_c, 2, 44, 0
4, 98880, Note_on_c, 2, 43, 127
4, 99360, Note_on_c, 2, 43, 0
4, 99780, Note_on_c, 2, 39, 127
4, 99840, Note_on_c, 2, 39, 0
4, 99840, Note_on_c, 2, 44, 127
4, 100320, Note_on_c, 2, 44, 0
4, 100740, Note_on_c, 2, 37, 127
4, 100800, Note_on_c, 2, 37, 0
4, 100800, Note_on_c, 2, 36, 127
4, 101280, Note_on_c, 2, 36, 0
4, 101700, Note_on_c, 2, 38, 127
4, 101760, Note_on_c, 2, 38, 0
4, 101760, Note_on_c, 2, 39, 127
4, 102240, Note_on_c, 2, 39, 0
4, 102660, Note_on_c, 2, 37, 127
4, 102720, Note_on_c, 2, 37, 0
4, 102720, Note_on_c, 2, 36, 127
4, 103200, Note_on_c, 2, 36, 0
4, 103620, Note_on_c, 2, 36, 127
4, 103680, Note_on_c, 2, 36, 0
4, 103680, Note_on_c, 2, 29, 127
4, 104160, Note_on_c, 2, 29, 0
4, 104580, Note_on_c, 2, 31, 127
4, 104640, Note_on_c, 2, 31, 0
4, 104640, Note_on_c, 2, 32, 127
4, 104880, Note_on_c, 2, 32, 0
4, 104880, Note_on_c, 2, 36, 127
4, 105120, Note_on_c, 2, 36, 0
4, 105120, Note_on_c, 2, 37, 127
4, 105360, Note_on_c, 2, 37, 0
4, 105360, Note_on_c, 2, 39, 127
4, 105600, Note_on_c, 2, 39, 0
4, 105600, Note_on_c, 2, 32, 127
4, 106560, Note_on_c, 2, 32, 0
4, 108000, Note_on_c, 2, 32, 127
4, 108240, Note_on_c, 2, 32, 0
4, 109920, Note_on_c, 2, 32, 127
4, 110160, Note_on_c, 2, 32, 0
4, 111840, Note_on_c, 2, 27, 127
4, 112080, Note_on_c, 2, 27, 0
4, 113760, Note_on_c, 2, 27, 127
4, 114000, Note_on_c, 2, 27, 0
4, 123840, Note_on_c, 2, 27, 127
4, 124080, Note_on_c, 2, 27, 0
4, 124080, Note_on_c, 2, 29, 127
4, 124320, Note_on_c, 2, 29, 0
4, 124320, Note_on_c, 2, 31, 127
4, 124560, Note_on_c, 2, 31, 0
4, 124560, Note_on_c, 2, 32, 127
4, 125040, Note_on_c, 2, 32, 0
4, 125040, Note_on_c, 2, 31, 127
4, 125280, Note_on_c, 2, 31, 0
4, 125280, Note_on_c, 2, 29, 127
4, 125520, Note_on_c, 2, 29, 0
4, 125520, Note_on_c, 2, 34, 127
4, 125760, Note_on_c, 2, 34, 0
4, 125760, Note_on_c, 2, 27, 127
4, 126000, Note_on_c, 2, 27, 0
4, 126000, Note_on_c, 2, 26, 127
4, 126240, Note_on_c, 2, 26, 0
4, 126240, Note_on_c, 2, 24, 127
4, 126480, Note_on_c, 2, 24, 0
4, 126480, Note_on_c, 2, 36, 127
4, 126720, Note_on_c, 2, 36, 0
4, 126720, Note_on_c, 2, 29, 127
4, 126960, Note_on_c, 2, 29, 0
4, 126960, Note_on_c, 2, 31, 127
4, 127200, Note_on_c, 2, 31, 0
4, 127200, Note_on_c, 2, 24, 127
4, 127440, Note_on_c, 2, 24, 0
4, 127440, Note_on_c, 2, 29, 127
4, 127680, Note_on_c, 2, 29, 0
4, 127680, Note_on_c, 2, 34, 127
4, 127920, Note_on_c, 2, 34, 0
4, 127920, Note_on_c, 2, 26, 127
4, 128160, Note_on_c, 2, 26, 0
4, 128160, Note_on_c, 2, 27, 127
4, 128400, Note_on_c, 2, 27, 0
4, 128400, Note_on_c, 2, 31, 127
4, 128640, Note_on_c, 2, 31, 0
4, 128640, Note_on_c, 2, 32, 127
4, 128880, Note_on_c, 2, 32, 0
4, 128880, Note_on_c, 2, 44, 127
4, 129360, Note_on_c, 2, 44, 0
4, 129360, Note_on_c, 2, 43, 127
4, 129840, Note_on_c, 2, 43, 0
4, 129840, Note_on_c, 2, 41, 127
4, 130080, Note_on_c, 2, 41, 0
4, 130080, Note_on_c, 2, 43, 127
4, 130320, Note_on_c, 2, 43, 0
4, 130320, Note_on_c, 2, 44, 127
4, 130800, Note_on_c, 2, 44, 0
4, 130800, Note_on_c, 2, 43, 127
4, 131040, Note_on_c, 2, 43, 0
4, 131040, Note_on_c, 2, 41, 127
4, 131280, Note_on_c, 2, 41, 0
4, 131280, Note_on_c, 2, 34, 127
4, 131520, Note_on_c, 2, 34, 0
4, 131520, Note_on_c, 2, 39, 127
4, 131760, Note_on_c, 2, 39, 0
4, 131760, Note_on_c, 2, 31, 127
4, 132000, Note_on_c, 2, 31, 0
4, 132000, Note_on_c, 2, 32, 127
4, 132240, Note_on_c, 2, 32, 0
4, 132240, Note_on_c, 2, 36, 127
4, 132480, Note_on_c, 2, 36, 0
4, 132480, Note_on_c, 2, 38, 127
4, 132720, Note_on_c, 2, 38, 0
4, 132720, Note_on_c, 2, 29, 127
4, 132960, Note_on_c, 2, 29, 0
4, 132960, Note_on_c, 2, 31, 127
4, 133200, Note_on_c, 2, 31, 0
4, 133200, Note_on_c, 2, 34, 127
4, 133440, Note_on_c, 2, 34, 0
4, 133440, Note_on_c, 2, 36, 127
4, 133680, Note_on_c, 2, 36, 0
4, 133680, Note_on_c, 2, 27, 127
4, 133920, Note_on_c, 2, 27, 0
4, 133920, Note_on_c, 2, 29, 127
4, 134160, Note_on_c, 2, 29, 0
4, 134400, Note_on_c, 2, 32, 127
4, 134640, Note_on_c, 2, 32, 0
4, 134880, Note_on_c, 2, 31, 127
4, 135120, Note_on_c, 2, 31, 0
4, 135120, Note_on_c, 2, 36, 127
4, 135360, Note_on_c, 2, 36, 0
4, 135360, Note_on_c, 2, 29, 127
4, 135600, Note_on_c, 2, 29, 0
4, 135600, Note_on_c, 2, 31, 127
4, 135840, Note_on_c, 2, 31, 0
4, 135840, Note_on_c, 2, 24, 127
4, 136080, Note_on_c, 2, 24, 0
4, 136080, Note_on_c, 2, 29, 127
4, 136320, Note_on_c, 2, 29, 0
4, 136320, Note_on_c, 2, 34, 127
4, 136560, Note_on_c, 2, 34, 0
4, 138300, Note_on_c, 2, 48, 127
4, 138360, Note_on_c, 2, 48, 0
4, 138360, Note_on_c, 2, 46, 127
4, 138420, Note_on_c, 2, 46, 0
4, 138420, Note_on_c, 2, 48, 127
4, 138480, Note_on_c, 2, 48, 0
4, 138480, Note_on_c, 2, 44, 127
4, 138540, Note_on_c, 2, 44, 0
4, 138540, Note_on_c, 2, 46, 127
4, 138600, Note_on_c, 2, 46, 0
4, 138600, Note_on_c, 2, 43, 127
4, 138660, Note_on_c, 2, 43, 0
4, 138660, Note_on_c, 2, 44, 127
4, 138720, Note_on_c, 2, 44, 0
4, 138720, Note_on_c, 2, 41, 127
4, 138780, Note_on_c, 2, 41, 0
4, 138780, Note_on_c, 2, 43, 127
4, 138840, Note_on_c, 2, 43, 0
4, 138840, Note_on_c, 2, 39, 127
4, 138900, Note_on_c, 2, 39, 0
4, 138900, Note_on_c, 2, 41, 127
4, 138960, Note_on_c, 2, 41, 0
4, 138960, Note_on_c, 2, 38, 127
4, 139020, Note_on_c, 2, 38, 0
4, 139020, Note_on_c, 2, 39, 127
4, 139080, Note_on_c, 2, 39, 0
4, 139080, Note_on_c, 2, 36, 127
4, 139140, Note_on_c, 2, 36, 0
4, 139140, Note_on_c, 2, 38, 127
4, 139200, Note_on_c, 2, 38, 0
4, 139200, Note_on_c, 2, 35, 127
4, 139260, Note_on_c, 2, 35, 0
4, 139260, Note_on_c, 2, 38, 127
4, 139320, Note_on_c, 2, 38, 0
4, 139320, Note_on_c, 2, 35, 127
4, 139380, Note_on_c, 2, 35, 0
4, 139380, Note_on_c, 2, 38, 127
4, 139440, Note_on_c, 2, 38, 0
4, 139440, Note_on_c, 2, 36, 127
4, 139500, Note_on_c, 2, 36, 0
4, 139500, Note_on_c, 2, 39, 127
4, 139560, Note_on_c, 2, 39, 0
4, 139560, Note_on_c, 2, 36, 127
4, 139620, Note_on_c, 2, 36, 0
4, 139620, Note_on_c, 2, 39, 127
4, 139680, Note_on_c, 2, 39, 0
4, 139680, Note_on_c, 2, 36, 127
4, 139740, Note_on_c, 2, 36, 0
4, 139740, Note_on_c, 2, 41, 127
4, 139800, Note_on_c, 2, 41, 0
4, 139800, Note_on_c, 2, 36, 127
4, 139860, Note_on_c, 2, 36, 0
4, 139860, Note_on_c, 2, 41, 127
4, 139920, Note_on_c, 2, 41, 0
4, 139920, Note_on_c, 2, 35, 127
4, 139980, Note_on_c, 2, 35, 0
4, 139980, Note_on_c, 2, 43, 127
4, 140040, Note_on_c, 2, 43, 0
4, 140040, Note_on_c, 2, 35, 127
4, 140100, Note_on_c, 2, 35, 0
4, 140100, Note_on_c, 2, 43, 127
4, 140160, Note_on_c, 2, 43, 0
4, 140160, Note_on_c, 2, 36, 127
4, 140400, Note_on_c, 2, 36, 0
4, 142140, Note_on_c, 2, 46, 127
4, 142200, Note_on_c, 2, 46, 0
4, 142200, Note_on_c, 2, 45, 127
4, 142260, Note_on_c, 2, 45, 0
4, 142260, Note_on_c, 2, 46, 127
4, 142320, Note_on_c, 2, 46, 0
4, 142320, Note_on_c, 2, 43, 127
4, 142380, Note_on_c, 2, 43, 0
4, 142380, Note_on_c, 2, 45, 127
4, 142440, Note_on_c, 2, 45, 0
4, 142440, Note_on_c, 2, 41, 127
4, 142500, Note_on_c, 2, 41, 0
4, 142500, Note_on_c, 2, 43, 127
4, 142560, Note_on_c, 2, 43, 0
4, 142560, Note_on_c, 2, 39, 127
4, 142620, Note_on_c, 2, 39, 0
4, 142620, Note_on_c, 2, 41, 127
4, 142680, Note_on_c, 2, 41, 0
4, 142680, Note_on_c, 2, 38, 127
4, 142740, Note_on_c, 2, 38, 0
4, 142740, Note_on_c, 2, 39, 127
4, 142800, Note_on_c, 2, 39, 0
4, 142800, Note_on_c, 2, 36, 127
4, 142860, Note_on_c, 2, 36, 0
4, 142860, Note_on_c, 2, 38, 127
4, 142920, Note_on_c, 2, 38, 0
4, 142920, Note_on_c, 2, 34, 127
4, 142980, Note_on_c, 2, 34, 0
4, 142980, Note_on_c, 2, 36, 127
4, 143040, Note_on_c, 2, 36, 0
4, 143040, Note_on_c, 2, 33, 127
4, 143100, Note_on_c, 2, 33, 0
4, 143100, Note_on_c, 2, 36, 127
4, 143160, Note_on_c, 2, 36, 0
4, 143160, Note_on_c, 2, 33, 127
4, 143220, Note_on_c, 2, 33, 0
4, 143220, Note_on_c, 2, 36, 127
4, 143280, Note_on_c, 2, 36, 0
4, 143280, Note_on_c, 2, 34, 127
4, 143340, Note_on_c, 2, 34, 0
4, 143340, Note_on_c, 2, 38, 127
4, 143400, Note_on_c, 2, 38, 0
4, 143400, Note_on_c, 2, 34, 127
4, 143460, Note_on_c, 2, 34, 0
4, 143460, Note_on_c, 2, 38, 127
4, 143520, Note_on_c, 2, 38, 0
4, 143520, Note_on_c, 2, 34, 127
4, 143580, Note_on_c, 2, 34, 0
4, 143580, Note_on_c, 2, 39, 127
4, 143640, Note_on_c, 2, 39, 0
4, 143640, Note_on_c, 2, 34, 127
4, 143700, Note_on_c, 2, 34, 0
4, 143700, Note_on_c, 2, 39, 127
4, 143760, Note_on_c, 2, 39, 0
4, 143760, Note_on_c, 2, 33, 127
4, 143820, Note_on_c, 2, 33, 0
4, 143820, Note_on_c, 2, 41, 127
4, 143880, Note_on_c, 2, 41, 0
4, 143880, Note_on_c, 2, 33, 127
4, 143940, Note_on_c, 2, 33, 0
4, 143940, Note_on_c, 2, 41, 127
4, 144000, Note_on_c, 2, 41, 0
4, 144000, Note_on_c, 2, 34, 127
4, 144240, Note_on_c, 2, 34, 0
4, 145980, Note_on_c, 2, 44, 127
4, 146040, Note_on_c, 2, 44, 0
4, 146040, Note_on_c, 2, 43, 127
4, 146100, Note_on_c, 2, 43, 0
4, 146100, Note_on_c, 2, 44, 127
4, 146160, Note_on_c, 2, 44, 0
4, 146160, Note_on_c, 2, 41, 127
4, 146220, Note_on_c, 2, 41, 0
4, 146220, Note_on_c, 2, 43, 127
4, 146280, Note_on_c, 2, 43, 0
4, 146280, Note_on_c, 2, 39, 127
4, 146340, Note_on_c, 2, 39, 0
4, 146340, Note_on_c, 2, 41, 127
4, 146400, Note_on_c, 2, 41, 0
4, 146400, Note_on_c, 2, 37, 127
4, 146460, Note_on_c, 2, 37, 0
4, 146460, Note_on_c, 2, 39, 127
4, 146520, Note_on_c, 2, 39, 0
4, 146520, Note_on_c, 2, 36, 127
4, 146580, Note_on_c, 2, 36, 0
4, 146580, Note_on_c, 2, 37, 127
4, 146640, Note_on_c, 2, 37, 0
4, 146640, Note_on_c, 2, 34, 127
4, 146700, Note_on_c, 2, 34, 0
4, 146700, Note_on_c, 2, 36, 127
4, 146760, Note_on_c, 2, 36, 0
4, 146760, Note_on_c, 2, 32, 127
4, 146820, Note_on_c, 2, 32, 0
4, 146820, Note_on_c, 2, 34, 127
4, 146880, Note_on_c, 2, 34, 0
4, 146880, Note_on_c, 2, 31, 127
4, 146940, Note_on_c, 2, 31, 0
4, 146940, Note_on_c, 2, 34, 127
4, 147000, Note_on_c, 2, 34, 0
4, 147000, Note_on_c, 2, 31, 127
4, 147060, Note_on_c, 2, 31, 0
4, 147060, Note_on_c, 2, 34, 127
4, 147120, Note_on_c, 2, 34, 0
4, 147120, Note_on_c, 2, 32, 127
4, 147180, Note_on_c, 2, 32, 0
4, 147180, Note_on_c, 2, 36, 127
4, 147240, Note_on_c, 2, 36, 0
4, 147240, Note_on_c, 2, 32, 127
4, 147300, Note_on_c, 2, 32, 0
4, 147300, Note_on_c, 2, 36, 127
4, 147360, Note_on_c, 2, 36, 0
4, 147360, Note_on_c, 2, 32, 127
4, 147420, Note_on_c, 2, 32, 0
4, 147420, Note_on_c, 2, 37, 127
4, 147480, Note_on_c, 2, 37, 0
4, 147480, Note_on_c, 2, 32, 127
4, 147540, Note_on_c, 2, 32, 0
4, 147540, Note_on_c, 2, 37, 127
4, 147600, Note_on_c, 2, 37, 0
4, 147600, Note_on_c, 2, 31, 127
4, 147660, Note_on_c, 2, 31, 0
4, 147660, Note_on_c, 2, 39, 127
4, 147720, Note_on_c, 2, 39, 0
4, 147720, Note_on_c, 2, 31, 127
4, 147780, Note_on_c, 2, 31, 0
4, 147780, Note_on_c, 2, 39, 127
4, 147840, Note_on_c, 2, 39, 0
4, 147840, Note_on_c, 2, 32, 127
4, 148320, Note_on_c, 2, 32, 0
4, 148320, Note_on_c, 2, 34, 127
4, 148800, Note_on_c, 2, 34, 0
4, 148800, Note_on_c, 2, 36, 127
4, 149280, Note_on_c, 2, 36, 0
4, 149280, Note_on_c, 2, 38, 127
4, 149760, Note_on_c, 2, 38, 0
4, 149760, Note_on_c, 2, 39, 127
4, 150000, Note_on_c, 2, 39, 0
4, 150000, Note_on_c, 2, 38, 127
4, 150240, Note_on_c, 2, 38, 0
4, 150240, Note_on_c, 2, 36, 127
4, 150480, Note_on_c, 2, 36, 0
4, 150480, Note_on_c, 2, 41, 127
4, 150720, Note_on_c, 2, 41, 0
4, 150720, Note_on_c, 2, 34, 127
4, 150912, Note_on_c, 2, 34, 0
4, 150960, Note_on_c, 2, 36, 127
4, 151152, Note_on_c, 2, 36, 0
4, 151200, Note_on_c, 2, 29, 127
4, 151392, Note_on_c, 2, 29, 0
4, 151440, Note_on_c, 2, 34, 127
4, 151632, Note_on_c, 2, 34, 0
4, 151680, Note_on_c, 2, 27, 127
4, 151872, Note_on_c, 2, 27, 0
4, 166920, Note_on_c, 2, 31, 127
4, 167016, Note_on_c, 2, 31, 0
4, 167040, Note_on_c, 2, 36, 127
4, 167664, Note_on_c, 2, 36, 0
4, 167700, Note_on_c, 2, 36, 127
4, 167748, Note_on_c, 2, 36, 0
4, 167760, Note_on_c, 2, 38, 127
4, 167904, Note_on_c, 2, 38, 0
4, 167940, Note_on_c, 2, 39, 127
4, 167988, Note_on_c, 2, 39, 0
4, 168000, Note_on_c, 2, 38, 127
4, 168480, Note_on_c, 2, 38, 0
4, 168840, Note_on_c, 2, 34, 127
4, 168960, Note_on_c, 2, 34, 0
4, 168960, Note_on_c, 2, 39, 127
4, 169620, Note_on_c, 2, 39, 0
4, 169620, Note_on_c, 2, 34, 127
4, 169680, Note_on_c, 2, 34, 0
4, 169680, Note_on_c, 2, 31, 127
4, 169860, Note_on_c, 2, 31, 0
4, 169860, Note_on_c, 2, 34, 127
4, 169920, Note_on_c, 2, 34, 0
4, 169920, Note_on_c, 2, 27, 127
4, 170400, Note_on_c, 2, 27, 0
4, 170820, Note_on_c, 2, 39, 127
4, 170880, Note_on_c, 2, 39, 0
4, 170880, Note_on_c, 2, 38, 127
4, 171360, Note_on_c, 2, 38, 0
4, 171780, Note_on_c, 2, 38, 127
4, 171840, Note_on_c, 2, 38, 0
4, 171840, Note_on_c, 2, 36, 127
4, 172320, Note_on_c, 2, 36, 0
4, 172740, Note_on_c, 2, 36, 127
4, 172800, Note_on_c, 2, 36, 0
4, 172800, Note_on_c, 2, 34, 127
4, 173280, Note_on_c, 2, 34, 0
4, 173700, Note_on_c, 2, 34, 127
4, 173760, Note_on_c, 2, 34, 0
4, 173760, Note_on_c, 2, 33, 127
4, 174240, Note_on_c, 2, 33, 0
4, 174660, Note_on_c, 2, 36, 127
4, 174720, Note_on_c, 2, 36, 0
4, 174720, Note_on_c, 2, 29, 127
4, 175200, Note_on_c, 2, 29, 0
4, 175620, Note_on_c, 2, 33, 127
4, 175680, Note_on_c, 2, 33, 0
4, 175680, Note_on_c, 2, 34, 127
4, 176040, Note_on_c, 2, 34, 0
4, 176100, Note_on_c, 2, 33, 127
4, 176160, Note_on_c, 2, 33, 0
4, 176160, Note_on_c, 2, 34, 127
4, 176520, Note_on_c, 2, 34, 0
4, 176580, Note_on_c, 2, 26, 127
4, 176640, Note_on_c, 2, 26, 0
4, 176640, Note_on_c, 2, 27, 127
4, 177000, Note_on_c, 2, 27, 0
4, 177060, Note_on_c, 2, 34, 127
4, 177120, Note_on_c, 2, 34, 0
4, 177120, Note_on_c, 2, 36, 127
4, 177480, Note_on_c, 2, 36, 0
4, 177540, Note_on_c, 2, 27, 127
4, 177600, Note_on_c, 2, 27, 0
4, 177600, Note_on_c, 2, 29, 127
4, 177960, Note_on_c, 2, 29, 0
4, 178020, Note_on_c, 2, 36, 127
4, 178080, Note_on_c, 2, 36, 0
4, 178080, Note_on_c, 2, 38, 127
4, 178440, Note_on_c, 2, 38, 0
4, 178500, Note_on_c, 2, 29, 127
4, 178560, Note_on_c, 2, 29, 0
4, 178560, Note_on_c, 2, 31, 127
4, 178920, Note_on_c, 2, 31, 0
4, 178980, Note_on_c, 2, 38, 127
4, 179040, Note_on_c, 2, 38, 0
4, 179040, Note_on_c, 2, 39, 127
4, 179400, Note_on_c, 2, 39, 0
4, 179460, Note_on_c, 2, 31, 127
4, 179520, Note_on_c, 2, 31, 0
4, 179520, Note_on_c, 2, 33, 127
4, 179880, Note_on_c, 2, 33, 0
4, 179940, Note_on_c, 2, 41, 127
4, 180000, Note_on_c, 2, 41, 0
4, 180000, Note_on_c, 2, 38, 127
4, 180360, Note_on_c, 2, 38, 0
4, 180420, Note_on_c, 2, 34, 127
4, 180480, Note_on_c, 2, 34, 0
4, 180480, Note_on_c, 2, 41, 127
4, 180960, Note_on_c, 2, 41, 0
4, 180960, Note_on_c, 2, 29, 127
4, 181440, Note_on_c, 2, 29, 0
4, 181440, Note_on_c, 2, 34, 127
4, 181920, Note_on_c, 2, 34, 0
4, 182280, Note_on_c, 2, 34, 127
4, 182400, Note_on_c, 2, 34, 0
4, 182400, Note_on_c, 2, 35, 127
4, 183060, Note_on_c, 2, 35, 0
4, 183060, Note_on_c, 2, 38, 127
4, 183120, Note_on_c, 2, 38, 0
4, 183120, Note_on_c, 2, 36, 127
4, 183300, Note_on_c, 2, 36, 0
4, 183300, Note_on_c, 2, 38, 127
4, 183360, Note_on_c, 2, 38, 0
4, 183360, Note_on_c, 2, 31, 127
4, 183840, Note_on_c, 2, 31, 0
4, 184200, Note_on_c, 2, 35, 127
4, 184320, Note_on_c, 2, 35, 0
4, 184320, Note_on_c, 2, 36, 127
4, 184980, Note_on_c, 2, 36, 0
4, 184980, Note_on_c, 2, 39, 127
4, 185040, Note_on_c, 2, 39, 0
4, 185040, Note_on_c, 2, 38, 127
4, 185220, Note_on_c, 2, 38, 0
4, 185220, Note_on_c, 2, 39, 127
4, 185280, Note_on_c, 2, 39, 0
4, 185280, Note_on_c, 2, 29, 127
4, 185760, Note_on_c, 2, 29, 0
4, 186180, Note_on_c, 2, 34, 127
4, 186240, Note_on_c, 2, 34, 0
4, 186240, Note_on_c, 2, 27, 127
4, 186720, Note_on_c, 2, 27, 0
4, 187140, Note_on_c, 2, 39, 127
4, 187200, Note_on_c, 2, 39, 0
4, 187200, Note_on_c, 2, 32, 127
4, 187680, Note_on_c, 2, 32, 0
4, 188100, Note_on_c, 2, 33, 127
4, 188160, Note_on_c, 2, 33, 0
4, 188160, Note_on_c, 2, 34, 127
4, 188820, Note_on_c, 2, 34, 0
4, 188820, Note_on_c, 2, 38, 127
4, 188880, Note_on_c, 2, 38, 0
4, 188880, Note_on_c, 2, 36, 127
4, 189060, Note_on_c, 2, 36, 0
4, 189060, Note_on_c, 2, 39, 127
4, 189120, Note_on_c, 2, 39, 0
4, 189120, Note_on_c, 2, 34, 127
4, 189600, Note_on_c, 2, 34, 0
4, 190020, Note_on_c, 2, 34, 127
4, 190080, Note_on_c, 2, 34, 0
4, 190080, Note_on_c, 2, 39, 127
4, 190560, Note_on_c, 2, 39, 0
4, 190980, Note_on_c, 2, 34, 127
4, 191040, Note_on_c, 2, 34, 0
4, 191040, Note_on_c, 2, 43, 127
4, 191520, Note_on_c, 2, 43, 0
4, 191940, Note_on_c, 2, 33, 127
4, 192000, Note_on_c, 2, 33, 0
4, 192000, Note_on_c, 2, 34, 127
4, 192480, Note_on_c, 2, 34, 0
4, 192900, Note_on_c, 2, 32, 127
4, 192960, Note_on_c, 2, 32, 0
4, 192960, Note_on_c, 2, 31, 127
4, 193440, Note_on_c, 2, 31, 0
4, 193860, Note_on_c, 2, 31, 127
4, 193920, Note_on_c, 2, 31, 0
4, 193920, Note_on_c, 2, 36, 127
4, 194400, Note_on_c, 2, 36, 0
4, 194820, Note_on_c, 2, 38, 127
4, 194880, Note_on_c, 2, 38, 0
4, 194880, Note_on_c, 2, 39, 127
4, 195072, Note_on_c, 2, 39, 0
4, 195120, Note_on_c, 2, 31, 127
4, 195312, Note_on_c, 2, 31, 0
4, 195360, Note_on_c, 2, 32, 127
4, 195552, Note_on_c, 2, 32, 0
4, 195600, Note_on_c, 2, 34, 127
4, 195792, Note_on_c, 2, 34, 0
4, 195840, Note_on_c, 2, 27, 127
4, 197184, Note_on_c, 2, 27, 0
4, 222720, Note_on_c, 2, 34, 115
4, 223680, Note_on_c, 2, 34, 0
4, 223680, Note_on_c, 2, 31, 115
4, 224160, Note_on_c, 2, 31, 0
4, 224160, Note_on_c, 2, 36, 115
4, 224640, Note_on_c, 2, 36, 0
4, 224640, Note_on_c, 2, 34, 115
4, 225120, Note_on_c, 2, 34, 0
4, 225120, Note_on_c, 2, 39, 115
4, 226080, Note_on_c, 2, 39, 0
4, 226080, Note_on_c, 2, 38, 115
4, 226560, Note_on_c, 2, 38, 0
4, 226560, Note_on_c, 2, 39, 115
4, 227040, Note_on_c, 2, 39, 0
4, 227040, Note_on_c, 2, 41, 115
4, 227520, Note_on_c, 2, 41, 0
4, 227520, Note_on_c, 2, 34, 115
4, 228000, Note_on_c, 2, 34, 0
4, 228000, Note_on_c, 2, 36, 115
4, 228480, Note_on_c, 2, 36, 0
4, 228480, Note_on_c, 2, 32, 115
4, 229440, Note_on_c, 2, 32, 0
4, 229440, Note_on_c, 2, 34, 115
4, 230400, Note_on_c, 2, 34, 0
4, 230400, Note_on_c, 2, 36, 115
4, 230640, Note_on_c, 2, 36, 0
4, 230640, Note_on_c, 2, 46, 115
4, 230880, Note_on_c, 2, 46, 0
4, 230880, Note_on_c, 2, 45, 115
4, 231120, Note_on_c, 2, 45, 0
4, 231120, Note_on_c, 2, 43, 115
4, 231360, Note_on_c, 2, 43, 0
4, 231360, Note_on_c, 2, 45, 115
4, 231600, Note_on_c, 2, 45, 0
4, 231600, Note_on_c, 2, 41, 115
4, 231840, Note_on_c, 2, 41, 0
4, 231840, Note_on_c, 2, 46, 115
4, 232080, Note_on_c, 2, 46, 0
4, 232080, Note_on_c, 2, 45, 115
4, 232320, Note_on_c, 2, 45, 0
4, 232320, Note_on_c, 2, 43, 115
4, 232800, Note_on_c, 2, 43, 0
4, 232800, Note_on_c, 2, 48, 115
4, 233280, Note_on_c, 2, 48, 0
4, 233280, Note_on_c, 2, 45, 115
4, 233760, Note_on_c, 2, 45, 0
4, 233760, Note_on_c, 2, 41, 115
4, 234240, Note_on_c, 2, 41, 0
4, 234240, Note_on_c, 2, 46, 115
4, 234480, Note_on_c, 2, 46, 0
4, 234480, Note_on_c, 2, 41, 115
4, 234720, Note_on_c, 2, 41, 0
4, 234720, Note_on_c, 2, 43, 115
4, 234960, Note_on_c, 2, 43, 0
4, 234960, Note_on_c, 2, 39, 115
4, 235200, Note_on_c, 2, 39, 0
4, 235200, Note_on_c, 2, 41, 115
4, 235680, Note_on_c, 2, 41, 0
4, 235680, Note_on_c, 2, 29, 115
4, 236160, Note_on_c, 2, 29, 0
4, 236160, Note_on_c, 2, 34, 115
4, 236640, Note_on_c, 2, 34, 0
4, 255360, Note_on_c, 2, 34, 115
4, 256320, Note_on_c, 2, 34, 0
4, 256320, Note_on_c, 2, 31, 115
4, 256800, Note_on_c, 2, 31, 0
4, 256800, Note_on_c, 2, 36, 115
4, 257280, Note_on_c, 2, 36, 0
4, 257280, Note_on_c, 2, 34, 115
4, 257760, Note_on_c, 2, 34, 0
4, 257760, Note_on_c, 2, 39, 115
4, 258720, Note_on_c, 2, 39, 0
4, 258720, Note_on_c, 2, 37, 115
4, 259440, Note_on_c, 2, 37, 0
4, 259440, Note_on_c, 2, 39, 115
4, 259680, Note_on_c, 2, 39, 0
4, 259680, Note_on_c, 2, 37, 115
4, 259920, Note_on_c, 2, 37, 0
4, 259920, Note_on_c, 2, 36, 115
4, 260160, Note_on_c, 2, 36, 0
4, 260160, Note_on_c, 2, 37, 115
4, 260400, Note_on_c, 2, 37, 0
4, 260400, Note_on_c, 2, 34, 115
4, 260640, Note_on_c, 2, 34, 0
4, 260640, Note_on_c, 2, 39, 115
4, 260880, Note_on_c, 2, 39, 0
4, 260880, Note_on_c, 2, 37, 115
4, 261120, Note_on_c, 2, 37, 0
4, 261120, Note_on_c, 2, 36, 115
4, 261360, Note_on_c, 2, 36, 0
4, 261360, Note_on_c, 2, 34, 115
4, 261600, Note_on_c, 2, 34, 0
4, 261600, Note_on_c, 2, 36, 115
4, 261840, Note_on_c, 2, 36, 0
4, 261840, Note_on_c, 2, 38, 115
4, 262080, Note_on_c, 2, 38, 0
4, 262080, Note_on_c, 2, 39, 115
4, 262320, Note_on_c, 2, 39, 0
4, 262320, Note_on_c, 2, 41, 115
4, 262560, Note_on_c, 2, 41, 0
4, 262560, Note_on_c, 2, 43, 115
4, 262800, Note_on_c, 2, 43, 0
4, 262800, Note_on_c, 2, 39, 115
4, 263040, Note_on_c, 2, 39, 0
4, 263040, Note_on_c, 2, 44, 115
4, 263280, Note_on_c, 2, 44, 0
4, 263280, Note_on_c, 2, 41, 115
4, 263520, Note_on_c, 2, 41, 0
4, 263520, Note_on_c, 2, 46, 115
4, 263760, Note_on_c, 2, 46, 0
4, 263760, Note_on_c, 2, 44, 115
4, 264000, Note_on_c, 2, 44, 0
4, 264000, Note_on_c, 2, 43, 115
4, 264240, Note_on_c, 2, 43, 0
4, 264240, Note_on_c, 2, 39, 115
4, 264480, Note_on_c, 2, 39, 0
4, 264480, Note_on_c, 2, 44, 115
4, 265440, Note_on_c, 2, 44, 0
4, 265440, Note_on_c, 2, 43, 115
4, 265680, Note_on_c, 2, 43, 0
4, 265680, Note_on_c, 2, 39, 115
4, 265920, Note_on_c, 2, 39, 0
4, 265920, Note_on_c, 2, 46, 115
4, 266400, Note_on_c, 2, 46, 0
4, 266400, Note_on_c, 2, 34, 115
4, 266880, Note_on_c, 2, 34, 0
4, 266880, Note_on_c, 2, 27, 80
4, 267600, Note_on_c, 2, 27, 0
4, 346440, Note_on_c, 2, 43, 127
4, 346560, Note_on_c, 2, 43, 0
4, 346560, Note_on_c, 2, 41, 127
4, 346680, Note_on_c, 2, 41, 0
4, 346680, Note_on_c, 2, 43, 127
4, 346800, Note_on_c, 2, 43, 0
4, 346800, Note_on_c, 2, 36, 127
4, 346920, Note_on_c, 2, 36, 0
4, 346920, Note_on_c, 2, 39, 127
4, 346980, Note_on_c, 2, 39, 0
4, 346980, Note_on_c, 2, 38, 127
4, 347040, Note_on_c, 2, 38, 0
4, 347040, Note_on_c, 2, 39, 127
4, 347100, Note_on_c, 2, 39, 0
4, 347100, Note_on_c, 2, 36, 127
4, 347160, Note_on_c, 2, 36, 0
4, 347160, Note_on_c, 2, 41, 127
4, 347280, Note_on_c, 2, 41, 0
4, 347280, Note_on_c, 2, 39, 127
4, 347400, Note_on_c, 2, 39, 0
4, 347400, Note_on_c, 2, 41, 127
4, 347520, Note_on_c, 2, 41, 0
4, 347520, Note_on_c, 2, 34, 127
4, 347640, Note_on_c, 2, 34, 0
4, 347640, Note_on_c, 2, 38, 127
4, 347700, Note_on_c, 2, 38, 0
4, 347700, Note_on_c, 2, 36, 127
4, 347760, Note_on_c, 2, 36, 0
4, 347760, Note_on_c, 2, 38, 127
4, 347820, Note_on_c, 2, 38, 0
4, 347820, Note_on_c, 2, 34, 127
4, 347880, Note_on_c, 2, 34, 0
4, 347880, Note_on_c, 2, 39, 127
4, 348600, Note_on_c, 2, 39, 0
4, 348600, Note_on_c, 2, 37, 127
4, 349320, Note_on_c, 2, 37, 0
4, 349320, Note_on_c, 2, 36, 127
4, 349680, Note_on_c, 2, 36, 0
4, 349680, Note_on_c, 2, 41, 127
4, 350400, Note_on_c, 2, 41, 0
4, 350400, Note_on_c, 2, 39, 127
4, 350760, Note_on_c, 2, 39, 0
4, 350760, Note_on_c, 2, 44, 127
4, 351480, Note_on_c, 2, 44, 0
4, 351480, Note_on_c, 2, 43, 127
4, 351840, Note_on_c, 2, 43, 0
4, 351840, Note_on_c, 2, 44, 127
4, 352200, Note_on_c, 2, 44, 0
4, 352200, Note_on_c, 2, 41, 127
4, 352560, Note_on_c, 2, 41, 0
4, 352560, Note_on_c, 2, 37, 127
4, 353280, Note_on_c, 2, 37, 0
4, 353280, Note_on_c, 2, 36, 127
4, 353880, Note_on_c, 2, 36, 0
4, 353880, Note_on_c, 2, 35, 127
4, 354000, Note_on_c, 2, 35, 0
4, 354000, Note_on_c, 2, 36, 127
4, 354360, Note_on_c, 2, 36, 0
4, 354360, Note_on_c, 2, 24, 127
4, 354720, Note_on_c, 2, 24, 0
4, 354720, Note_on_c, 2, 29, 127
4, 355080, Note_on_c, 2, 29, 0
4, 359400, Note_on_c, 2, 36, 127
4, 360120, Note_on_c, 2, 36, 0
4, 360120, Note_on_c, 2, 35, 127
4, 360480, Note_on_c, 2, 35, 0
4, 360480, Note_on_c, 2, 39, 127
4, 361200, Note_on_c, 2, 39, 0
4, 361200, Note_on_c, 2, 36, 127
4, 361560, Note_on_c, 2, 36, 0
4, 361560, Note_on_c, 2, 43, 127
4, 362280, Note_on_c, 2, 43, 0
4, 362280, Note_on_c, 2, 42, 127
4, 362640, Note_on_c, 2, 42, 0
4, 362640, Note_on_c, 2, 43, 127
4, 363000, Note_on_c, 2, 43, 0
4, 364440, Note_on_c, 2, 48, 127
4, 364560, Note_on_c, 2, 48, 0
4, 364560, Note_on_c, 2, 46, 127
4, 364680, Note_on_c, 2, 46, 0
4, 364680, Note_on_c, 2, 48, 127
4, 364800, Note_on_c, 2, 48, 0
4, 364800, Note_on_c, 2, 41, 127
4, 364920, Note_on_c, 2, 41, 0
4, 364920, Note_on_c, 2, 44, 127
4, 364980, Note_on_c, 2, 44, 0
4, 364980, Note_on_c, 2, 43, 127
4, 365040, Note_on_c, 2, 43, 0
4, 365040, Note_on_c, 2, 44, 127
4, 365100, Note_on_c, 2, 44, 0
4, 365100, Note_on_c, 2, 41, 127
4, 365160, Note_on_c, 2, 41, 0
4, 365160, Note_on_c, 2, 46, 127
4, 365280, Note_on_c, 2, 46, 0
4, 365280, Note_on_c, 2, 44, 127
4, 365400, Note_on_c, 2, 44, 0
4, 365400, Note_on_c, 2, 46, 127
4, 365520, Note_on_c, 2, 46, 0
4, 365520, Note_on_c, 2, 39, 127
4, 365640, Note_on_c, 2, 39, 0
4, 365640, Note_on_c, 2, 43, 127
4, 365700, Note_on_c, 2, 43, 0
4, 365700, Note_on_c, 2, 41, 127
4, 365760, Note_on_c, 2, 41, 0
4, 365760, Note_on_c, 2, 43, 127
4, 365820, Note_on_c, 2, 43, 0
4, 365820, Note_on_c, 2, 39, 127
4, 365880, Note_on_c, 2, 39, 0
4, 365880, Note_on_c, 2, 44, 127
4, 366000, Note_on_c, 2, 44, 0
4, 366000, Note_on_c, 2, 43, 127
4, 366120, Note_on_c, 2, 43, 0
4, 366120, Note_on_c, 2, 44, 127
4, 366240, Note_on_c, 2, 44, 0
4, 366240, Note_on_c, 2, 38, 127
4, 366360, Note_on_c, 2, 38, 0
4, 366360, Note_on_c, 2, 41, 127
4, 366420, Note_on_c, 2, 41, 0
4, 366420, Note_on_c, 2, 39, 127
4, 366480, Note_on_c, 2, 39, 0
4, 366480, Note_on_c, 2, 41, 127
4, 366540, Note_on_c, 2, 41, 0
4, 366540, Note_on_c, 2, 38, 127
4, 366600, Note_on_c, 2, 38, 0
4, 366600, Note_on_c, 2, 43, 127
4, 366720, Note_on_c, 2, 43, 0
4, 366720, Note_on_c, 2, 41, 127
4, 366840, Note_on_c, 2, 41, 0
4, 366840, Note_on_c, 2, 43, 127
4, 366960, Note_on_c, 2, 43, 0
4, 366960, Note_on_c, 2, 36, 127
4, 367080, Note_on_c, 2, 36, 0
4, 367080, Note_on_c, 2, 39, 127
4, 367140, Note_on_c, 2, 39, 0
4, 367140, Note_on_c, 2, 38, 127
4, 367200, Note_on_c, 2, 38, 0
4, 367200, Note_on_c, 2, 39, 127
4, 367260, Note_on_c, 2, 39, 0
4, 367260, Note_on_c, 2, 36, 127
4, 367320, Note_on_c, 2, 36, 0
4, 367320, Note_on_c, 2, 41, 127
4, 367440, Note_on_c, 2, 41, 0
4, 367440, Note_on_c, 2, 39, 127
4, 367560, Note_on_c, 2, 39, 0
4, 367560, Note_on_c, 2, 41, 127
4, 367680, Note_on_c, 2, 41, 0
4, 367680, Note_on_c, 2, 34, 127
4, 368040, Note_on_c, 2, 34, 0
4, 369480, Note_on_c, 2, 39, 127
4, 370200, Note_on_c, 2, 39, 0
4, 370200, Note_on_c, 2, 36, 127
4, 370560, Note_on_c, 2, 36, 0
4, 370560, Note_on_c, 2, 41, 127
4, 371280, Note_on_c, 2, 41, 0
4, 371280, Note_on_c, 2, 39, 127
4, 371640, Note_on_c, 2, 39, 0
4, 371640, Note_on_c, 2, 44, 127
4, 372360, Note_on_c, 2, 44, 0
4, 372360, Note_on_c, 2, 43, 127
4, 372720, Note_on_c, 2, 43, 0
4, 372720, Note_on_c, 2, 48, 127
4, 373440, Note_on_c, 2, 48, 0
4, 373440, Note_on_c, 2, 46, 127
4, 373800, Note_on_c, 2, 46, 0
4, 378120, Note_on_c, 2, 32, 127
4, 378840, Note_on_c, 2, 32, 0
4, 378840, Note_on_c, 2, 31, 127
4, 379200, Note_on_c, 2, 31, 0
4, 379200, Note_on_c, 2, 36, 127
4, 379920, Note_on_c, 2, 36, 0
4, 379920, Note_on_c, 2, 34, 127
4, 380280, Note_on_c, 2, 34, 0
4, 380280, Note_on_c, 2, 39, 127
4, 381000, Note_on_c, 2, 39, 0
4, 381000, Note_on_c, 2, 38, 127
4, 381360, Note_on_c, 2, 38, 0
4, 381360, Note_on_c, 2, 39, 127
4, 381600, Note_on_c, 2, 39, 0
4, 381600, Note_on_c, 2, 41, 127
4, 381720, Note_on_c, 2, 41, 0
4, 381720, Note_on_c, 2, 43, 127
4, 381960, Note_on_c, 2, 43, 0
4, 381960, Note_on_c, 2, 44, 127
4, 382080, Note_on_c, 2, 44, 0
4, 382080, Note_on_c, 2, 46, 127
4, 382440, Note_on_c, 2, 46, 0
4, 382440, Note_on_c, 2, 34, 127
4, 383010, Note_on_c, 2, 34, 0
4, 383010, Note_on_c, 2, 27, 127
4, 383520, Note_on_c, 2, 27, 0
4, 383520, End_track
5, 0, Start_track
5, 0, MIDI_port, 0
5, 0, Title_t, "Prelude and Fugue in Eb Major - BWV 552"
5, 0, End_track
6, 0, Start_track
6, 0, MIDI_port, 0
6, 0, Title_t, "--------------------------------------"
6, 0, End_track
7, 0, Start_track
7, 0, MIDI_port, 0
7, 0, Title_t, "sequenced by Dean & Alicia Lampe"
7, 0, End_track
8, 0, Start_track
8, 0, MIDI_port, 0
8, 0, Title_t, "e-mail: dlampe@tic.bisman.com"
8, 0, End_track
9, 0, Start_track
9, 0, MIDI_port, 0
9, 0, Title_t, "http://www.bisman.com/pwp/dlampe/dlampe.html"
9, 0, End_track
10, 0, Start_track
10, 0, MIDI_port, 0
10, 0, Title_t, "--------------------------------------"
10, 0, End_track
11, 0, Start_track
11, 0, MIDI_port, 0
11, 0, Title_t, "courtesy of Dave's J.S. Bach Page"
11, 0, End_track
12, 0, Start_track
12, 0, MIDI_port, 0
12, 0, Title_t, "http://www.unpronounceable.com/bach"
12, 0, End_track
13, 0, Start_track
13, 0, MIDI_port, 0
13, 0, Title_t, "--------------------------------------"
13, 0, End_track
14, 0, Start_track
14, 0, MIDI_port, 0
14, 0, Title_t, "Original Filename: jsbwv552.mid"
14, 0, End_track
0, 0, End_of_file
