0, 0, Header, 1, 14, 240
1, 0, Start_track
1, 0, Title_t, "untitled"
1, 0, SMPTE_offset, 96, 0, 3, 0, 0
1, 0, Time_signature, 4, 2, 24, 8
1, 0, Key_signature, 0, "major"
1, 0, Tempo, 1000000
1, 7200, Tempo, 1111111
1, 7448, Tempo, 1276596
1, 7680, Tempo, 1000000
1, 12960, Tempo, 1132075
1, 13200, Tempo, 1250000
1, 13440, Tempo, 1000000
1, 17772, Tempo, 1111111
1, 18020, Tempo, 1250000
1, 18600, Tempo, 1132075
1, 18852, Tempo, 1000000
1, 21588, Tempo, 1111111
1, 21848, Tempo, 1333333
1, 21852, Tempo, 1200000
1, 22084, Tempo, 1132075
1, 22320, Tempo, 1090909
1, 22324, Tempo, 1071429
1, 22328, Tempo, 1111111
1, 22332, Tempo, 1071429
1, 22464, Tempo, 1052632
1, 22560, Tempo, 1000000
1, 22564, Tempo, 1052632
1, 23040, Tempo, 1000000
1, 25436, Tempo, 1132075
1, 25440, Tempo, 1000000
1, 25680, Tempo, 1304348
1, 25684, Tempo, 1071429
1, 25920, Tempo, 1621622
1, 25924, Tempo, 1153846
1, 26016, Tempo, 1363636
1, 26020, Tempo, 1200000
1, 26172, Tempo, 1463415
1, 26176, Tempo, 1200000
1, 26408, Tempo, 1395349
1, 26640, Tempo, 2400000
1, 26880, Tempo, 1111111
1, 27840, Tempo, 800000
1, 63608, Tempo, 833333
1, 63852, Tempo, 895522
1, 64092, Tempo, 952381
1, 64096, Tempo, 895522
1, 64320, Tempo, 909091
1, 64812, Tempo, 800000
1, 70568, Tempo, 857143
1, 70808, Tempo, 952381
1, 71040, Tempo, 800000
1, 76324, Tempo, 869565
1, 76572, Tempo, 983607
1, 76804, Tempo, 1250000
1, 76936, Tempo, 895522
1, 76940, Tempo, 833333
1, 77044, Tempo, 779221
1, 77048, Tempo, 821918
1, 77052, Tempo, 789474
1, 77136, Tempo, 697674
1, 79680, Tempo, 800000
1, 80168, Tempo, 895522
1, 80292, Tempo, 1034483
1, 80404, Tempo, 1132075
1, 80640, Tempo, 800000
1, 80888, Tempo, 952381
1, 81372, Tempo, 857143
1, 81492, Tempo, 800000
1, 81844, Tempo, 845070
1, 82092, Tempo, 937500
1, 82328, Tempo, 1071429
1, 82432, Tempo, 1363636
1, 82436, Tempo, 2068966
1, 82560, Tempo, 1052632
1, 82800, Tempo, 923077
1, 83040, Tempo, 845070
1, 83292, Tempo, 967742
1, 83412, Tempo, 1090909
1, 83520, Tempo, 1111111
1, 83656, Tempo, 1578947
1, 83756, Tempo, 2222222
1, 83884, Tempo, 2857143
1, 84008, Tempo, 1200000
1, 84072, Tempo, 1304348
1, 84076, Tempo, 1200000
1, 84480, Tempo, 800000
1, 84480, End_track
2, 0, Start_track
2, 0, MIDI_port, 0
2, 0, Title_t, "Organ"
2, 0, Program_c, 0, 19
2, 0, Control_c, 0, 7, 100
2, 0, Control_c, 0, 10, 64
2, 0, Control_c, 0, 91, 127
2, 7740, Note_on_c, 0, 67, 105
2, 7800, Note_on_c, 0, 67, 0
2, 7800, Note_on_c, 0, 72, 105
2, 7860, Note_on_c, 0, 72, 0
2, 7860, Note_on_c, 0, 71, 105
2, 7920, Note_on_c, 0, 71, 0
2, 7920, Note_on_c, 0, 72, 105
2, 7950, Note_on_c, 0, 72, 0
2, 7950, Note_on_c, 0, 71, 105
2, 7980, Note_on_c, 0, 71, 0
2, 7980, Note_on_c, 0, 63, 105
2, 7980, Note_on_c, 0, 72, 105
2, 8040, Note_on_c, 0, 63, 0
2, 8040, Note_on_c, 0, 68, 105
2, 8100, Note_on_c, 0, 68, 0
2, 8100, Note_on_c, 0, 67, 105
2, 8160, Note_on_c, 0, 67, 0
2, 8160, Note_on_c, 0, 68, 105
2, 8220, Note_on_c, 0, 72, 0
2, 8220, Note_on_c, 0, 72, 105
2, 8280, Note_on_c, 0, 72, 0
2, 8280, Note_on_c, 0, 77, 105
2, 8340, Note_on_c, 0, 77, 0
2, 8340, Note_on_c, 0, 76, 105
2, 8400, Note_on_c, 0, 76, 0
2, 8400, Note_on_c, 0, 68, 0
2, 8400, Note_on_c, 0, 77, 105
2, 8520, Note_on_c, 0, 68, 105
2, 8700, Note_on_c, 0, 68, 0
2, 8700, Note_on_c, 0, 68, 105
2, 8760, Note_on_c, 0, 68, 0
2, 8760, Note_on_c, 0, 67, 105
2, 8820, Note_on_c, 0, 77, 0
2, 8820, Note_on_c, 0, 77, 105
2, 8880, Note_on_c, 0, 77, 0
2, 8880, Note_on_c, 0, 75, 105
2, 9120, Note_on_c, 0, 67, 0
2, 9120, Note_on_c, 0, 65, 105
2, 9180, Note_on_c, 0, 75, 0
2, 9180, Note_on_c, 0, 75, 105
2, 9240, Note_on_c, 0, 75, 0
2, 9240, Note_on_c, 0, 74, 105
2, 9255, Note_on_c, 0, 74, 0
2, 9255, Note_on_c, 0, 75, 105
2, 9270, Note_on_c, 0, 75, 0
2, 9270, Note_on_c, 0, 74, 105
2, 9300, Note_on_c, 0, 74, 0
2, 9300, Note_on_c, 0, 72, 105
2, 9360, Note_on_c, 0, 72, 0
2, 9360, Note_on_c, 0, 74, 105
2, 9480, Note_on_c, 0, 65, 0
2, 9480, Note_on_c, 0, 67, 105
2, 9540, Note_on_c, 0, 67, 0
2, 9540, Note_on_c, 0, 68, 105
2, 9600, Note_on_c, 0, 68, 0
2, 9600, Note_on_c, 0, 63, 105
2, 9660, Note_on_c, 0, 74, 0
2, 9660, Note_on_c, 0, 74, 105
2, 9720, Note_on_c, 0, 74, 0
2, 9720, Note_on_c, 0, 72, 105
2, 9750, Note_on_c, 0, 72, 0
2, 9750, Note_on_c, 0, 74, 105
2, 9780, Note_on_c, 0, 74, 0
2, 9780, Note_on_c, 0, 71, 105
2, 9840, Note_on_c, 0, 71, 0
2, 9840, Note_on_c, 0, 72, 105
2, 9900, Note_on_c, 0, 63, 0
2, 9900, Note_on_c, 0, 63, 105
2, 9960, Note_on_c, 0, 63, 0
2, 9960, Note_on_c, 0, 65, 105
2, 10020, Note_on_c, 0, 65, 0
2, 10020, Note_on_c, 0, 67, 105
2, 10080, Note_on_c, 0, 67, 0
2, 10080, Note_on_c, 0, 62, 105
2, 10140, Note_on_c, 0, 72, 0
2, 10140, Note_on_c, 0, 72, 105
2, 10200, Note_on_c, 0, 72, 0
2, 10200, Note_on_c, 0, 74, 105
2, 10260, Note_on_c, 0, 74, 0
2, 10260, Note_on_c, 0, 72, 105
2, 10320, Note_on_c, 0, 72, 0
2, 10320, Note_on_c, 0, 71, 105
2, 10380, Note_on_c, 0, 71, 0
2, 10380, Note_on_c, 0, 72, 105
2, 10440, Note_on_c, 0, 72, 0
2, 10440, Note_on_c, 0, 69, 105
2, 10500, Note_on_c, 0, 69, 0
2, 10500, Note_on_c, 0, 71, 105
2, 10560, Note_on_c, 0, 71, 0
2, 10560, Note_on_c, 0, 62, 0
2, 10560, Note_on_c, 0, 63, 105
2, 10560, Note_on_c, 0, 72, 105
2, 11040, Note_on_c, 0, 63, 0
2, 11040, Note_on_c, 0, 62, 105
2, 11100, Note_on_c, 0, 72, 0
2, 11100, Note_on_c, 0, 72, 105
2, 11160, Note_on_c, 0, 72, 0
2, 11160, Note_on_c, 0, 74, 105
2, 11220, Note_on_c, 0, 74, 0
2, 11220, Note_on_c, 0, 72, 105
2, 11280, Note_on_c, 0, 72, 0
2, 11280, Note_on_c, 0, 70, 105
2, 11340, Note_on_c, 0, 70, 0
2, 11340, Note_on_c, 0, 72, 105
2, 11400, Note_on_c, 0, 72, 0
2, 11400, Note_on_c, 0, 69, 105
2, 11460, Note_on_c, 0, 69, 0
2, 11460, Note_on_c, 0, 72, 105
2, 11520, Note_on_c, 0, 72, 0
2, 11520, Note_on_c, 0, 70, 105
2, 12060, Note_on_c, 0, 62, 0
2, 12060, Note_on_c, 0, 66, 105
2, 12120, Note_on_c, 0, 66, 0
2, 12120, Note_on_c, 0, 67, 105
2, 12180, Note_on_c, 0, 67, 0
2, 12180, Note_on_c, 0, 65, 105
2, 12240, Note_on_c, 0, 65, 0
2, 12240, Note_on_c, 0, 64, 105
2, 12300, Note_on_c, 0, 64, 0
2, 12300, Note_on_c, 0, 65, 105
2, 12360, Note_on_c, 0, 65, 0
2, 12360, Note_on_c, 0, 62, 105
2, 12420, Note_on_c, 0, 62, 0
2, 12420, Note_on_c, 0, 64, 105
2, 12480, Note_on_c, 0, 64, 0
2, 12480, Note_on_c, 0, 70, 0
2, 12480, Note_on_c, 0, 61, 105
2, 12480, Note_on_c, 0, 70, 105
2, 12540, Note_on_c, 0, 70, 0
2, 12540, Note_on_c, 0, 70, 105
2, 12600, Note_on_c, 0, 70, 0
2, 12600, Note_on_c, 0, 69, 105
2, 12660, Note_on_c, 0, 69, 0
2, 12660, Note_on_c, 0, 67, 105
2, 12720, Note_on_c, 0, 67, 0
2, 12720, Note_on_c, 0, 69, 105
2, 12780, Note_on_c, 0, 69, 0
2, 12780, Note_on_c, 0, 70, 105
2, 12840, Note_on_c, 0, 70, 0
2, 12840, Note_on_c, 0, 64, 105
2, 12900, Note_on_c, 0, 64, 0
2, 12900, Note_on_c, 0, 67, 105
2, 12960, Note_on_c, 0, 67, 0
2, 12960, Note_on_c, 0, 61, 0
2, 12960, Note_on_c, 0, 62, 105
2, 12960, Note_on_c, 0, 66, 105
2, 13440, Note_on_c, 0, 66, 0
2, 13440, Note_on_c, 0, 62, 0
2, 13500, Note_on_c, 0, 74, 105
2, 13560, Note_on_c, 0, 74, 0
2, 13560, Note_on_c, 0, 75, 105
2, 13620, Note_on_c, 0, 75, 0
2, 13620, Note_on_c, 0, 74, 105
2, 13680, Note_on_c, 0, 74, 0
2, 13680, Note_on_c, 0, 72, 105
2, 13740, Note_on_c, 0, 72, 0
2, 13740, Note_on_c, 0, 75, 105
2, 13800, Note_on_c, 0, 75, 0
2, 13800, Note_on_c, 0, 74, 105
2, 13860, Note_on_c, 0, 74, 0
2, 13860, Note_on_c, 0, 72, 105
2, 13920, Note_on_c, 0, 72, 0
2, 13920, Note_on_c, 0, 81, 105
2, 13980, Note_on_c, 0, 72, 105
2, 14040, Note_on_c, 0, 72, 0
2, 14040, Note_on_c, 0, 74, 105
2, 14100, Note_on_c, 0, 74, 0
2, 14100, Note_on_c, 0, 75, 105
2, 14160, Note_on_c, 0, 75, 0
2, 14160, Note_on_c, 0, 74, 105
2, 14220, Note_on_c, 0, 74, 0
2, 14220, Note_on_c, 0, 72, 105
2, 14280, Note_on_c, 0, 72, 0
2, 14280, Note_on_c, 0, 70, 105
2, 14340, Note_on_c, 0, 70, 0
2, 14340, Note_on_c, 0, 69, 105
2, 14400, Note_on_c, 0, 69, 0
2, 14400, Note_on_c, 0, 81, 0
2, 14400, Note_on_c, 0, 70, 105
2, 14400, Note_on_c, 0, 74, 105
2, 14880, Note_on_c, 0, 70, 0
2, 14880, Note_on_c, 0, 67, 105
2, 14940, Note_on_c, 0, 74, 0
2, 14940, Note_on_c, 0, 74, 105
2, 15000, Note_on_c, 0, 74, 0
2, 15000, Note_on_c, 0, 75, 105
2, 15060, Note_on_c, 0, 75, 0
2, 15060, Note_on_c, 0, 74, 105
2, 15120, Note_on_c, 0, 74, 0
2, 15120, Note_on_c, 0, 72, 105
2, 15180, Note_on_c, 0, 72, 0
2, 15180, Note_on_c, 0, 70, 105
2, 15240, Note_on_c, 0, 70, 0
2, 15240, Note_on_c, 0, 69, 105
2, 15300, Note_on_c, 0, 69, 0
2, 15300, Note_on_c, 0, 67, 105
2, 15360, Note_on_c, 0, 67, 0
2, 15360, Note_on_c, 0, 67, 0
2, 15360, Note_on_c, 0, 72, 105
2, 15360, Note_on_c, 0, 74, 105
2, 15840, Note_on_c, 0, 74, 0
2, 15840, Note_on_c, 0, 79, 105
2, 15900, Note_on_c, 0, 72, 0
2, 15900, Note_on_c, 0, 72, 105
2, 15960, Note_on_c, 0, 72, 0
2, 15960, Note_on_c, 0, 70, 105
2, 16020, Note_on_c, 0, 70, 0
2, 16020, Note_on_c, 0, 69, 105
2, 16080, Note_on_c, 0, 69, 0
2, 16080, Note_on_c, 0, 70, 105
2, 16140, Note_on_c, 0, 79, 0
2, 16140, Note_on_c, 0, 79, 105
2, 16200, Note_on_c, 0, 79, 0
2, 16200, Note_on_c, 0, 77, 105
2, 16260, Note_on_c, 0, 77, 0
2, 16260, Note_on_c, 0, 75, 105
2, 16320, Note_on_c, 0, 75, 0
2, 16320, Note_on_c, 0, 74, 105
2, 16380, Note_on_c, 0, 74, 0
2, 16380, Note_on_c, 0, 75, 105
2, 16440, Note_on_c, 0, 75, 0
2, 16440, Note_on_c, 0, 70, 0
2, 16440, Note_on_c, 0, 69, 105
2, 16440, Note_on_c, 0, 72, 105
2, 16500, Note_on_c, 0, 72, 0
2, 16500, Note_on_c, 0, 74, 105
2, 16560, Note_on_c, 0, 74, 0
2, 16560, Note_on_c, 0, 69, 0
2, 16560, Note_on_c, 0, 67, 105
2, 16560, Note_on_c, 0, 70, 105
2, 16620, Note_on_c, 0, 70, 0
2, 16620, Note_on_c, 0, 72, 105
2, 16680, Note_on_c, 0, 72, 0
2, 16680, Note_on_c, 0, 67, 0
2, 16680, Note_on_c, 0, 66, 105
2, 16680, Note_on_c, 0, 69, 105
2, 16740, Note_on_c, 0, 69, 0
2, 16740, Note_on_c, 0, 72, 105
2, 16800, Note_on_c, 0, 72, 0
2, 16800, Note_on_c, 0, 66, 0
2, 16800, Note_on_c, 0, 67, 105
2, 16800, Note_on_c, 0, 70, 105
2, 17340, Note_on_c, 0, 70, 0
2, 17340, Note_on_c, 0, 70, 105
2, 17400, Note_on_c, 0, 70, 0
2, 17400, Note_on_c, 0, 72, 105
2, 17460, Note_on_c, 0, 72, 0
2, 17460, Note_on_c, 0, 73, 105
2, 17520, Note_on_c, 0, 73, 0
2, 17520, Note_on_c, 0, 67, 105
2, 17580, Note_on_c, 0, 67, 0
2, 17580, Note_on_c, 0, 68, 105
2, 17640, Note_on_c, 0, 68, 0
2, 17640, Note_on_c, 0, 70, 105
2, 17700, Note_on_c, 0, 70, 0
2, 17700, Note_on_c, 0, 72, 105
2, 17760, Note_on_c, 0, 72, 0
2, 17760, Note_on_c, 0, 68, 105
2, 17820, Note_on_c, 0, 67, 0
2, 17820, Note_on_c, 0, 67, 105
2, 17880, Note_on_c, 0, 67, 0
2, 17880, Note_on_c, 0, 65, 105
2, 17940, Note_on_c, 0, 65, 0
2, 17940, Note_on_c, 0, 64, 105
2, 18000, Note_on_c, 0, 64, 0
2, 18000, Note_on_c, 0, 65, 105
2, 18240, Note_on_c, 0, 65, 0
2, 18240, Note_on_c, 0, 68, 0
2, 18240, Note_on_c, 0, 62, 105
2, 18240, Note_on_c, 0, 67, 105
2, 18330, Note_on_c, 0, 67, 0
2, 18330, Note_on_c, 0, 62, 0
2, 18360, Note_on_c, 0, 62, 105
2, 18360, Note_on_c, 0, 67, 105
2, 18450, Note_on_c, 0, 67, 0
2, 18450, Note_on_c, 0, 62, 0
2, 18480, Note_on_c, 0, 62, 105
2, 18480, Note_on_c, 0, 67, 105
2, 18570, Note_on_c, 0, 67, 0
2, 18570, Note_on_c, 0, 62, 0
2, 18600, Note_on_c, 0, 62, 105
2, 18600, Note_on_c, 0, 67, 105
2, 18690, Note_on_c, 0, 62, 0
2, 18720, Note_on_c, 0, 63, 105
2, 18780, Note_on_c, 0, 67, 0
2, 18780, Note_on_c, 0, 67, 105
2, 18840, Note_on_c, 0, 67, 0
2, 18840, Note_on_c, 0, 72, 105
2, 18900, Note_on_c, 0, 63, 0
2, 18900, Note_on_c, 0, 63, 105
2, 18960, Note_on_c, 0, 63, 0
2, 18960, Note_on_c, 0, 67, 105
2, 19020, Note_on_c, 0, 72, 0
2, 19020, Note_on_c, 0, 72, 105
2, 19080, Note_on_c, 0, 72, 0
2, 19080, Note_on_c, 0, 75, 105
2, 19140, Note_on_c, 0, 67, 0
2, 19140, Note_on_c, 0, 67, 105
2, 19200, Note_on_c, 0, 67, 0
2, 19200, Note_on_c, 0, 72, 105
2, 19260, Note_on_c, 0, 75, 0
2, 19260, Note_on_c, 0, 75, 105
2, 19320, Note_on_c, 0, 75, 0
2, 19320, Note_on_c, 0, 79, 105
2, 19380, Note_on_c, 0, 79, 0
2, 19380, Note_on_c, 0, 74, 105
2, 19440, Note_on_c, 0, 74, 0
2, 19440, Note_on_c, 0, 75, 105
2, 19500, Note_on_c, 0, 72, 0
2, 19500, Note_on_c, 0, 71, 105
2, 19560, Note_on_c, 0, 71, 0
2, 19560, Note_on_c, 0, 72, 105
2, 20220, Note_on_c, 0, 75, 0
2, 20220, Note_on_c, 0, 75, 105
2, 20280, Note_on_c, 0, 72, 0
2, 20280, Note_on_c, 0, 72, 105
2, 20340, Note_on_c, 0, 75, 0
2, 20340, Note_on_c, 0, 75, 105
2, 20400, Note_on_c, 0, 72, 0
2, 20400, Note_on_c, 0, 65, 105
2, 20460, Note_on_c, 0, 75, 0
2, 20460, Note_on_c, 0, 75, 105
2, 20520, Note_on_c, 0, 75, 0
2, 20520, Note_on_c, 0, 74, 105
2, 20580, Note_on_c, 0, 74, 0
2, 20580, Note_on_c, 0, 72, 105
2, 20640, Note_on_c, 0, 72, 0
2, 20640, Note_on_c, 0, 71, 105
2, 20700, Note_on_c, 0, 71, 0
2, 20700, Note_on_c, 0, 74, 105
2, 20760, Note_on_c, 0, 74, 0
2, 20760, Note_on_c, 0, 65, 0
2, 20760, Note_on_c, 0, 65, 105
2, 20760, Note_on_c, 0, 67, 105
2, 20820, Note_on_c, 0, 67, 0
2, 20820, Note_on_c, 0, 71, 105
2, 20880, Note_on_c, 0, 71, 0
2, 20880, Note_on_c, 0, 65, 0
2, 20880, Note_on_c, 0, 72, 105
2, 20940, Note_on_c, 0, 67, 105
2, 21000, Note_on_c, 0, 72, 0
2, 21000, Note_on_c, 0, 72, 105
2, 21180, Note_on_c, 0, 72, 0
2, 21180, Note_on_c, 0, 72, 105
2, 21240, Note_on_c, 0, 72, 0
2, 21240, Note_on_c, 0, 71, 105
2, 21300, Note_on_c, 0, 71, 0
2, 21300, Note_on_c, 0, 74, 105
2, 21360, Note_on_c, 0, 74, 0
2, 21360, Note_on_c, 0, 79, 105
2, 21420, Note_on_c, 0, 79, 0
2, 21420, Note_on_c, 0, 74, 105
2, 21480, Note_on_c, 0, 74, 0
2, 21480, Note_on_c, 0, 75, 105
2, 21540, Note_on_c, 0, 75, 0
2, 21540, Note_on_c, 0, 71, 105
2, 21600, Note_on_c, 0, 71, 0
2, 21600, Note_on_c, 0, 72, 105
2, 21660, Note_on_c, 0, 67, 0
2, 21660, Note_on_c, 0, 67, 105
2, 21720, Note_on_c, 0, 67, 0
2, 21720, Note_on_c, 0, 69, 105
2, 21780, Note_on_c, 0, 69, 0
2, 21780, Note_on_c, 0, 67, 105
2, 21840, Note_on_c, 0, 67, 0
2, 21840, Note_on_c, 0, 66, 105
2, 22080, Note_on_c, 0, 66, 0
2, 22080, Note_on_c, 0, 72, 0
2, 22080, Note_on_c, 0, 67, 105
2, 22080, Note_on_c, 0, 71, 105
2, 22170, Note_on_c, 0, 71, 0
2, 22170, Note_on_c, 0, 67, 0
2, 22200, Note_on_c, 0, 71, 105
2, 22200, Note_on_c, 0, 67, 105
2, 22290, Note_on_c, 0, 67, 0
2, 22290, Note_on_c, 0, 71, 0
2, 22320, Note_on_c, 0, 71, 105
2, 22320, Note_on_c, 0, 67, 105
2, 22410, Note_on_c, 0, 67, 0
2, 22410, Note_on_c, 0, 71, 0
2, 22440, Note_on_c, 0, 71, 105
2, 22440, Note_on_c, 0, 67, 105
2, 22560, Note_on_c, 0, 67, 0
2, 22560, Note_on_c, 0, 71, 0
2, 22560, Note_on_c, 0, 70, 105
2, 22560, Note_on_c, 0, 67, 105
2, 22650, Note_on_c, 0, 67, 0
2, 22650, Note_on_c, 0, 70, 0
2, 22680, Note_on_c, 0, 70, 105
2, 22680, Note_on_c, 0, 67, 105
2, 22770, Note_on_c, 0, 67, 0
2, 22770, Note_on_c, 0, 70, 0
2, 22800, Note_on_c, 0, 70, 105
2, 22800, Note_on_c, 0, 67, 105
2, 22890, Note_on_c, 0, 67, 0
2, 22890, Note_on_c, 0, 70, 0
2, 22920, Note_on_c, 0, 70, 105
2, 22920, Note_on_c, 0, 67, 105
2, 23040, Note_on_c, 0, 67, 0
2, 23040, Note_on_c, 0, 70, 0
2, 23040, Note_on_c, 0, 65, 105
2, 23040, Note_on_c, 0, 68, 105
2, 23280, Note_on_c, 0, 68, 0
2, 23280, Note_on_c, 0, 65, 0
2, 23340, Note_on_c, 0, 72, 105
2, 23400, Note_on_c, 0, 72, 0
2, 23400, Note_on_c, 0, 67, 105
2, 23460, Note_on_c, 0, 67, 0
2, 23460, Note_on_c, 0, 70, 105
2, 23520, Note_on_c, 0, 70, 0
2, 23520, Note_on_c, 0, 68, 105
2, 23520, Note_on_c, 0, 72, 105
2, 23820, Note_on_c, 0, 72, 0
2, 23820, Note_on_c, 0, 72, 105
2, 23880, Note_on_c, 0, 72, 0
2, 23880, Note_on_c, 0, 76, 105
2, 23940, Note_on_c, 0, 76, 0
2, 23940, Note_on_c, 0, 72, 105
2, 24000, Note_on_c, 0, 72, 0
2, 24000, Note_on_c, 0, 77, 105
2, 24300, Note_on_c, 0, 77, 0
2, 24300, Note_on_c, 0, 77, 105
2, 24360, Note_on_c, 0, 77, 0
2, 24360, Note_on_c, 0, 72, 105
2, 24420, Note_on_c, 0, 72, 0
2, 24420, Note_on_c, 0, 73, 105
2, 24480, Note_on_c, 0, 73, 0
2, 24480, Note_on_c, 0, 72, 105
2, 24780, Note_on_c, 0, 72, 0
2, 24780, Note_on_c, 0, 77, 105
2, 24840, Note_on_c, 0, 77, 0
2, 24840, Note_on_c, 0, 68, 105
2, 24900, Note_on_c, 0, 68, 0
2, 24900, Note_on_c, 0, 70, 105
2, 24960, Note_on_c, 0, 70, 0
2, 24960, Note_on_c, 0, 68, 0
2, 24960, Note_on_c, 0, 72, 105
2, 25020, Note_on_c, 0, 67, 105
2, 25080, Note_on_c, 0, 67, 0
2, 25080, Note_on_c, 0, 68, 105
2, 25140, Note_on_c, 0, 68, 0
2, 25140, Note_on_c, 0, 70, 105
2, 25200, Note_on_c, 0, 70, 0
2, 25200, Note_on_c, 0, 68, 105
2, 25620, Note_on_c, 0, 68, 0
2, 25620, Note_on_c, 0, 67, 105
2, 25680, Note_on_c, 0, 67, 0
2, 25680, Note_on_c, 0, 68, 105
2, 25740, Note_on_c, 0, 72, 0
2, 25740, Note_on_c, 0, 70, 105
2, 25800, Note_on_c, 0, 70, 0
2, 25800, Note_on_c, 0, 72, 105
2, 25860, Note_on_c, 0, 72, 0
2, 25860, Note_on_c, 0, 73, 105
2, 25920, Note_on_c, 0, 73, 0
2, 25920, Note_on_c, 0, 72, 105
2, 25980, Note_on_c, 0, 72, 0
2, 25980, Note_on_c, 0, 73, 105
2, 26040, Note_on_c, 0, 73, 0
2, 26040, Note_on_c, 0, 68, 0
2, 26040, Note_on_c, 0, 67, 105
2, 26040, Note_on_c, 0, 70, 105
2, 26100, Note_on_c, 0, 70, 0
2, 26100, Note_on_c, 0, 72, 105
2, 26160, Note_on_c, 0, 72, 0
2, 26160, Note_on_c, 0, 67, 0
2, 26160, Note_on_c, 0, 68, 105
2, 26220, Note_on_c, 0, 65, 105
2, 26340, Note_on_c, 0, 68, 0
2, 26340, Note_on_c, 0, 67, 105
2, 26460, Note_on_c, 0, 65, 0
2, 26460, Note_on_c, 0, 64, 105
2, 26520, Note_on_c, 0, 64, 0
2, 26520, Note_on_c, 0, 62, 105
2, 26580, Note_on_c, 0, 62, 0
2, 26580, Note_on_c, 0, 64, 105
2, 26700, Note_on_c, 0, 67, 0
2, 26700, Note_on_c, 0, 72, 105
2, 26760, Note_on_c, 0, 64, 0
2, 26760, Note_on_c, 0, 65, 105
2, 26820, Note_on_c, 0, 72, 0
2, 26820, Note_on_c, 0, 71, 105
2, 26880, Note_on_c, 0, 71, 0
2, 26880, Note_on_c, 0, 65, 0
2, 26880, Note_on_c, 0, 64, 105
2, 26880, Note_on_c, 0, 60, 105
2, 26880, Note_on_c, 0, 67, 105
2, 26880, Note_on_c, 0, 72, 105
2, 27360, Note_on_c, 0, 72, 0
2, 27360, Note_on_c, 0, 64, 0
2, 27360, Note_on_c, 0, 60, 0
2, 27360, Note_on_c, 0, 67, 0
2, 35520, Note_on_c, 0, 60, 80
2, 35580, Note_on_c, 0, 60, 0
2, 35580, Note_on_c, 0, 63, 80
2, 35640, Note_on_c, 0, 63, 0
2, 35640, Note_on_c, 0, 62, 80
2, 35700, Note_on_c, 0, 62, 0
2, 35700, Note_on_c, 0, 63, 80
2, 35760, Note_on_c, 0, 63, 0
2, 35760, Note_on_c, 0, 60, 80
2, 35856, Note_on_c, 0, 60, 0
2, 35880, Note_on_c, 0, 63, 80
2, 35976, Note_on_c, 0, 63, 0
2, 36000, Note_on_c, 0, 62, 80
2, 36240, Note_on_c, 0, 62, 0
2, 36240, Note_on_c, 0, 55, 80
2, 36432, Note_on_c, 0, 55, 0
2, 36480, Note_on_c, 0, 60, 80
2, 36540, Note_on_c, 0, 60, 0
2, 36540, Note_on_c, 0, 63, 80
2, 36600, Note_on_c, 0, 63, 0
2, 36600, Note_on_c, 0, 62, 80
2, 36660, Note_on_c, 0, 62, 0
2, 36660, Note_on_c, 0, 63, 80
2, 36720, Note_on_c, 0, 63, 0
2, 36720, Note_on_c, 0, 62, 80
2, 36780, Note_on_c, 0, 62, 0
2, 36780, Note_on_c, 0, 65, 80
2, 36840, Note_on_c, 0, 65, 0
2, 36840, Note_on_c, 0, 63, 80
2, 36900, Note_on_c, 0, 63, 0
2, 36900, Note_on_c, 0, 65, 80
2, 36960, Note_on_c, 0, 65, 0
2, 36960, Note_on_c, 0, 63, 80
2, 37200, Note_on_c, 0, 63, 0
2, 37200, Note_on_c, 0, 60, 80
2, 37392, Note_on_c, 0, 60, 0
2, 37440, Note_on_c, 0, 63, 80
2, 37500, Note_on_c, 0, 63, 0
2, 37500, Note_on_c, 0, 67, 80
2, 37560, Note_on_c, 0, 67, 0
2, 37560, Note_on_c, 0, 65, 80
2, 37620, Note_on_c, 0, 65, 0
2, 37620, Note_on_c, 0, 67, 80
2, 37680, Note_on_c, 0, 67, 0
2, 37680, Note_on_c, 0, 65, 80
2, 37740, Note_on_c, 0, 65, 0
2, 37740, Note_on_c, 0, 68, 80
2, 37800, Note_on_c, 0, 68, 0
2, 37800, Note_on_c, 0, 67, 80
2, 37860, Note_on_c, 0, 67, 0
2, 37860, Note_on_c, 0, 68, 80
2, 37920, Note_on_c, 0, 68, 0
2, 37920, Note_on_c, 0, 67, 80
2, 38100, Note_on_c, 0, 67, 0
2, 38100, Note_on_c, 0, 68, 80
2, 38160, Note_on_c, 0, 68, 0
2, 38160, Note_on_c, 0, 67, 80
2, 38220, Note_on_c, 0, 67, 0
2, 38220, Note_on_c, 0, 65, 80
2, 38280, Note_on_c, 0, 65, 0
2, 38280, Note_on_c, 0, 63, 80
2, 38340, Note_on_c, 0, 63, 0
2, 38340, Note_on_c, 0, 62, 80
2, 38400, Note_on_c, 0, 62, 0
2, 38400, Note_on_c, 0, 63, 80
2, 38460, Note_on_c, 0, 63, 0
2, 38460, Note_on_c, 0, 62, 80
2, 38520, Note_on_c, 0, 62, 0
2, 38520, Note_on_c, 0, 63, 80
2, 38580, Note_on_c, 0, 63, 0
2, 38580, Note_on_c, 0, 65, 80
2, 38640, Note_on_c, 0, 65, 0
2, 38640, Note_on_c, 0, 62, 80
2, 38670, Note_on_c, 0, 62, 0
2, 38670, Note_on_c, 0, 63, 80
2, 38700, Note_on_c, 0, 63, 0
2, 38700, Note_on_c, 0, 62, 80
2, 38820, Note_on_c, 0, 62, 0
2, 38820, Note_on_c, 0, 60, 80
2, 38880, Note_on_c, 0, 60, 0
2, 38880, Note_on_c, 0, 60, 80
2, 39000, Note_on_c, 0, 60, 0
2, 39000, Note_on_c, 0, 58, 80
2, 39060, Note_on_c, 0, 58, 0
2, 39060, Note_on_c, 0, 60, 80
2, 39120, Note_on_c, 0, 60, 0
2, 39120, Note_on_c, 0, 57, 80
2, 39150, Note_on_c, 0, 57, 0
2, 39150, Note_on_c, 0, 58, 80
2, 39180, Note_on_c, 0, 58, 0
2, 39180, Note_on_c, 0, 57, 80
2, 39300, Note_on_c, 0, 57, 0
2, 39300, Note_on_c, 0, 55, 80
2, 39360, Note_on_c, 0, 55, 0
2, 39360, Note_on_c, 0, 67, 90
2, 39420, Note_on_c, 0, 67, 0
2, 39420, Note_on_c, 0, 70, 90
2, 39480, Note_on_c, 0, 70, 0
2, 39480, Note_on_c, 0, 69, 90
2, 39540, Note_on_c, 0, 69, 0
2, 39540, Note_on_c, 0, 70, 90
2, 39600, Note_on_c, 0, 70, 0
2, 39600, Note_on_c, 0, 67, 90
2, 39696, Note_on_c, 0, 67, 0
2, 39720, Note_on_c, 0, 70, 90
2, 39816, Note_on_c, 0, 70, 0
2, 39840, Note_on_c, 0, 69, 90
2, 40080, Note_on_c, 0, 69, 0
2, 40080, Note_on_c, 0, 62, 90
2, 40272, Note_on_c, 0, 62, 0
2, 40320, Note_on_c, 0, 67, 90
2, 40380, Note_on_c, 0, 67, 0
2, 40380, Note_on_c, 0, 70, 90
2, 40440, Note_on_c, 0, 70, 0
2, 40440, Note_on_c, 0, 69, 90
2, 40500, Note_on_c, 0, 69, 0
2, 40500, Note_on_c, 0, 70, 90
2, 40560, Note_on_c, 0, 70, 0
2, 40560, Note_on_c, 0, 69, 90
2, 40620, Note_on_c, 0, 69, 0
2, 40620, Note_on_c, 0, 72, 90
2, 40680, Note_on_c, 0, 72, 0
2, 40680, Note_on_c, 0, 70, 90
2, 40740, Note_on_c, 0, 70, 0
2, 40740, Note_on_c, 0, 72, 90
2, 40800, Note_on_c, 0, 72, 0
2, 40800, Note_on_c, 0, 70, 90
2, 41040, Note_on_c, 0, 70, 0
2, 41040, Note_on_c, 0, 67, 90
2, 41232, Note_on_c, 0, 67, 0
2, 41280, Note_on_c, 0, 70, 90
2, 41340, Note_on_c, 0, 70, 0
2, 41340, Note_on_c, 0, 74, 90
2, 41400, Note_on_c, 0, 74, 0
2, 41400, Note_on_c, 0, 72, 90
2, 41460, Note_on_c, 0, 72, 0
2, 41460, Note_on_c, 0, 74, 90
2, 41520, Note_on_c, 0, 74, 0
2, 41520, Note_on_c, 0, 72, 90
2, 41580, Note_on_c, 0, 72, 0
2, 41580, Note_on_c, 0, 75, 90
2, 41640, Note_on_c, 0, 75, 0
2, 41640, Note_on_c, 0, 74, 90
2, 41700, Note_on_c, 0, 74, 0
2, 41700, Note_on_c, 0, 75, 90
2, 41760, Note_on_c, 0, 75, 0
2, 41760, Note_on_c, 0, 74, 90
2, 41940, Note_on_c, 0, 74, 0
2, 41940, Note_on_c, 0, 75, 90
2, 42000, Note_on_c, 0, 75, 0
2, 42000, Note_on_c, 0, 74, 90
2, 42060, Note_on_c, 0, 74, 0
2, 42060, Note_on_c, 0, 72, 90
2, 42120, Note_on_c, 0, 72, 0
2, 42120, Note_on_c, 0, 70, 90
2, 42180, Note_on_c, 0, 70, 0
2, 42180, Note_on_c, 0, 69, 90
2, 42240, Note_on_c, 0, 69, 0
2, 42240, Note_on_c, 0, 70, 90
2, 42300, Note_on_c, 0, 70, 0
2, 42300, Note_on_c, 0, 69, 90
2, 42360, Note_on_c, 0, 69, 0
2, 42360, Note_on_c, 0, 70, 90
2, 42420, Note_on_c, 0, 70, 0
2, 42420, Note_on_c, 0, 72, 90
2, 42480, Note_on_c, 0, 72, 0
2, 42480, Note_on_c, 0, 69, 90
2, 42600, Note_on_c, 0, 69, 0
2, 42600, Note_on_c, 0, 71, 90
2, 42660, Note_on_c, 0, 71, 0
2, 42660, Note_on_c, 0, 72, 90
2, 42720, Note_on_c, 0, 72, 0
2, 42720, Note_on_c, 0, 71, 90
2, 42780, Note_on_c, 0, 71, 0
2, 42780, Note_on_c, 0, 67, 90
2, 42840, Note_on_c, 0, 67, 0
2, 42840, Note_on_c, 0, 72, 90
2, 42900, Note_on_c, 0, 72, 0
2, 42900, Note_on_c, 0, 74, 90
2, 42960, Note_on_c, 0, 74, 0
2, 42960, Note_on_c, 0, 71, 90
2, 42990, Note_on_c, 0, 71, 0
2, 42990, Note_on_c, 0, 72, 90
2, 43020, Note_on_c, 0, 72, 0
2, 43020, Note_on_c, 0, 71, 90
2, 43140, Note_on_c, 0, 71, 0
2, 43140, Note_on_c, 0, 72, 90
2, 43200, Note_on_c, 0, 72, 0
2, 43200, Note_on_c, 0, 72, 90
2, 43260, Note_on_c, 0, 72, 0
2, 43260, Note_on_c, 0, 75, 90
2, 43320, Note_on_c, 0, 75, 0
2, 43320, Note_on_c, 0, 74, 90
2, 43380, Note_on_c, 0, 74, 0
2, 43380, Note_on_c, 0, 75, 90
2, 43440, Note_on_c, 0, 75, 0
2, 43440, Note_on_c, 0, 72, 90
2, 43536, Note_on_c, 0, 72, 0
2, 43560, Note_on_c, 0, 75, 90
2, 43656, Note_on_c, 0, 75, 0
2, 43680, Note_on_c, 0, 74, 90
2, 43920, Note_on_c, 0, 74, 0
2, 43920, Note_on_c, 0, 67, 90
2, 44112, Note_on_c, 0, 67, 0
2, 44160, Note_on_c, 0, 72, 90
2, 44220, Note_on_c, 0, 72, 0
2, 44220, Note_on_c, 0, 75, 90
2, 44280, Note_on_c, 0, 75, 0
2, 44280, Note_on_c, 0, 74, 90
2, 44340, Note_on_c, 0, 74, 0
2, 44340, Note_on_c, 0, 75, 90
2, 44400, Note_on_c, 0, 75, 0
2, 44400, Note_on_c, 0, 74, 90
2, 44460, Note_on_c, 0, 74, 0
2, 44460, Note_on_c, 0, 77, 90
2, 44520, Note_on_c, 0, 77, 0
2, 44520, Note_on_c, 0, 75, 90
2, 44580, Note_on_c, 0, 75, 0
2, 44580, Note_on_c, 0, 77, 90
2, 44640, Note_on_c, 0, 77, 0
2, 44640, Note_on_c, 0, 75, 90
2, 44880, Note_on_c, 0, 75, 0
2, 44880, Note_on_c, 0, 72, 90
2, 45072, Note_on_c, 0, 72, 0
2, 45120, Note_on_c, 0, 75, 90
2, 45180, Note_on_c, 0, 75, 0
2, 45180, Note_on_c, 0, 79, 90
2, 45240, Note_on_c, 0, 79, 0
2, 45240, Note_on_c, 0, 77, 90
2, 45300, Note_on_c, 0, 77, 0
2, 45300, Note_on_c, 0, 79, 90
2, 45360, Note_on_c, 0, 79, 0
2, 45360, Note_on_c, 0, 77, 90
2, 45420, Note_on_c, 0, 77, 0
2, 45420, Note_on_c, 0, 80, 90
2, 45480, Note_on_c, 0, 80, 0
2, 45480, Note_on_c, 0, 79, 90
2, 45540, Note_on_c, 0, 79, 0
2, 45540, Note_on_c, 0, 80, 90
2, 45600, Note_on_c, 0, 80, 0
2, 45600, Note_on_c, 0, 79, 90
2, 45780, Note_on_c, 0, 79, 0
2, 45780, Note_on_c, 0, 80, 90
2, 45840, Note_on_c, 0, 80, 0
2, 45840, Note_on_c, 0, 79, 90
2, 45900, Note_on_c, 0, 79, 0
2, 45900, Note_on_c, 0, 77, 90
2, 45960, Note_on_c, 0, 77, 0
2, 45960, Note_on_c, 0, 75, 90
2, 46020, Note_on_c, 0, 75, 0
2, 46020, Note_on_c, 0, 74, 90
2, 46080, Note_on_c, 0, 74, 0
2, 46080, Note_on_c, 0, 75, 90
2, 46140, Note_on_c, 0, 75, 0
2, 46140, Note_on_c, 0, 74, 90
2, 46200, Note_on_c, 0, 74, 0
2, 46200, Note_on_c, 0, 75, 90
2, 46260, Note_on_c, 0, 75, 0
2, 46260, Note_on_c, 0, 77, 90
2, 46320, Note_on_c, 0, 77, 0
2, 46320, Note_on_c, 0, 74, 90
2, 46350, Note_on_c, 0, 74, 0
2, 46350, Note_on_c, 0, 75, 90
2, 46380, Note_on_c, 0, 75, 0
2, 46380, Note_on_c, 0, 74, 90
2, 46500, Note_on_c, 0, 74, 0
2, 46500, Note_on_c, 0, 72, 90
2, 46560, Note_on_c, 0, 72, 0
2, 46560, Note_on_c, 0, 72, 90
2, 46860, Note_on_c, 0, 72, 0
2, 46860, Note_on_c, 0, 75, 90
2, 46920, Note_on_c, 0, 75, 0
2, 46920, Note_on_c, 0, 74, 90
2, 46980, Note_on_c, 0, 74, 0
2, 46980, Note_on_c, 0, 72, 90
2, 47040, Note_on_c, 0, 72, 0
2, 47040, Note_on_c, 0, 62, 90
2, 47040, Note_on_c, 0, 70, 90
2, 47100, Note_on_c, 0, 70, 0
2, 47100, Note_on_c, 0, 72, 90
2, 47160, Note_on_c, 0, 72, 0
2, 47160, Note_on_c, 0, 62, 0
2, 47160, Note_on_c, 0, 67, 90
2, 47160, Note_on_c, 0, 70, 90
2, 47220, Note_on_c, 0, 70, 0
2, 47220, Note_on_c, 0, 69, 90
2, 47280, Note_on_c, 0, 69, 0
2, 47280, Note_on_c, 0, 69, 90
2, 47310, Note_on_c, 0, 69, 0
2, 47310, Note_on_c, 0, 70, 90
2, 47340, Note_on_c, 0, 70, 0
2, 47340, Note_on_c, 0, 69, 90
2, 47400, Note_on_c, 0, 67, 0
2, 47400, Note_on_c, 0, 66, 90
2, 47460, Note_on_c, 0, 69, 0
2, 47460, Note_on_c, 0, 67, 90
2, 47520, Note_on_c, 0, 67, 0
2, 47520, Note_on_c, 0, 66, 0
2, 47520, Note_on_c, 0, 67, 90
2, 47580, Note_on_c, 0, 79, 90
2, 47640, Note_on_c, 0, 79, 0
2, 47640, Note_on_c, 0, 67, 0
2, 47640, Note_on_c, 0, 71, 90
2, 47640, Note_on_c, 0, 77, 90
2, 47700, Note_on_c, 0, 77, 0
2, 47700, Note_on_c, 0, 79, 90
2, 47760, Note_on_c, 0, 79, 0
2, 47760, Note_on_c, 0, 71, 0
2, 47760, Note_on_c, 0, 72, 90
2, 47760, Note_on_c, 0, 75, 90
2, 47820, Note_on_c, 0, 75, 0
2, 47820, Note_on_c, 0, 72, 90
2, 47880, Note_on_c, 0, 72, 0
2, 47880, Note_on_c, 0, 74, 90
2, 47940, Note_on_c, 0, 74, 0
2, 47940, Note_on_c, 0, 75, 90
2, 48000, Note_on_c, 0, 75, 0
2, 48000, Note_on_c, 0, 77, 90
2, 48060, Note_on_c, 0, 77, 0
2, 48060, Note_on_c, 0, 80, 90
2, 48120, Note_on_c, 0, 80, 0
2, 48120, Note_on_c, 0, 72, 0
2, 48120, Note_on_c, 0, 72, 90
2, 48120, Note_on_c, 0, 79, 90
2, 48180, Note_on_c, 0, 79, 0
2, 48180, Note_on_c, 0, 80, 90
2, 48240, Note_on_c, 0, 80, 0
2, 48240, Note_on_c, 0, 72, 0
2, 48240, Note_on_c, 0, 71, 90
2, 48240, Note_on_c, 0, 74, 90
2, 48300, Note_on_c, 0, 74, 0
2, 48300, Note_on_c, 0, 77, 90
2, 48360, Note_on_c, 0, 77, 0
2, 48360, Note_on_c, 0, 75, 90
2, 48420, Note_on_c, 0, 75, 0
2, 48420, Note_on_c, 0, 74, 90
2, 48480, Note_on_c, 0, 74, 0
2, 48480, Note_on_c, 0, 71, 0
2, 48480, Note_on_c, 0, 72, 90
2, 48480, Note_on_c, 0, 75, 90
2, 48540, Note_on_c, 0, 75, 0
2, 48540, Note_on_c, 0, 79, 90
2, 48600, Note_on_c, 0, 79, 0
2, 48600, Note_on_c, 0, 72, 0
2, 48600, Note_on_c, 0, 77, 90
2, 48660, Note_on_c, 0, 77, 0
2, 48660, Note_on_c, 0, 79, 90
2, 48720, Note_on_c, 0, 79, 0
2, 48720, Note_on_c, 0, 80, 90
2, 48780, Note_on_c, 0, 80, 0
2, 48780, Note_on_c, 0, 79, 90
2, 48840, Note_on_c, 0, 79, 0
2, 48840, Note_on_c, 0, 77, 90
2, 48900, Note_on_c, 0, 77, 0
2, 48900, Note_on_c, 0, 75, 90
2, 48960, Note_on_c, 0, 75, 0
2, 48960, Note_on_c, 0, 74, 90
2, 49020, Note_on_c, 0, 74, 0
2, 49020, Note_on_c, 0, 77, 90
2, 49080, Note_on_c, 0, 77, 0
2, 49080, Note_on_c, 0, 75, 90
2, 49140, Note_on_c, 0, 75, 0
2, 49140, Note_on_c, 0, 77, 90
2, 49200, Note_on_c, 0, 77, 0
2, 49200, Note_on_c, 0, 79, 90
2, 49260, Note_on_c, 0, 79, 0
2, 49260, Note_on_c, 0, 77, 90
2, 49320, Note_on_c, 0, 77, 0
2, 49320, Note_on_c, 0, 75, 90
2, 49380, Note_on_c, 0, 75, 0
2, 49380, Note_on_c, 0, 74, 90
2, 49440, Note_on_c, 0, 74, 0
2, 49440, Note_on_c, 0, 72, 90
2, 49500, Note_on_c, 0, 72, 0
2, 49500, Note_on_c, 0, 74, 90
2, 49560, Note_on_c, 0, 74, 0
2, 49560, Note_on_c, 0, 71, 90
2, 49620, Note_on_c, 0, 71, 0
2, 49620, Note_on_c, 0, 72, 90
2, 49680, Note_on_c, 0, 72, 0
2, 49680, Note_on_c, 0, 74, 90
2, 49740, Note_on_c, 0, 74, 0
2, 49740, Note_on_c, 0, 75, 90
2, 49800, Note_on_c, 0, 75, 0
2, 49800, Note_on_c, 0, 74, 90
2, 49860, Note_on_c, 0, 74, 0
2, 49860, Note_on_c, 0, 72, 90
2, 49920, Note_on_c, 0, 72, 0
2, 49920, Note_on_c, 0, 71, 90
2, 49980, Note_on_c, 0, 71, 0
2, 49980, Note_on_c, 0, 74, 90
2, 50040, Note_on_c, 0, 74, 0
2, 50040, Note_on_c, 0, 75, 90
2, 50100, Note_on_c, 0, 75, 0
2, 50100, Note_on_c, 0, 77, 90
2, 50160, Note_on_c, 0, 77, 0
2, 50160, Note_on_c, 0, 79, 90
2, 50220, Note_on_c, 0, 79, 0
2, 50220, Note_on_c, 0, 80, 90
2, 50280, Note_on_c, 0, 80, 0
2, 50280, Note_on_c, 0, 79, 90
2, 50340, Note_on_c, 0, 79, 0
2, 50340, Note_on_c, 0, 77, 90
2, 50400, Note_on_c, 0, 77, 0
2, 50400, Note_on_c, 0, 75, 90
2, 50460, Note_on_c, 0, 75, 0
2, 50460, Note_on_c, 0, 79, 90
2, 50520, Note_on_c, 0, 79, 0
2, 50520, Note_on_c, 0, 77, 90
2, 50580, Note_on_c, 0, 77, 0
2, 50580, Note_on_c, 0, 79, 90
2, 50640, Note_on_c, 0, 79, 0
2, 50640, Note_on_c, 0, 75, 90
2, 50700, Note_on_c, 0, 75, 0
2, 50700, Note_on_c, 0, 79, 90
2, 50760, Note_on_c, 0, 79, 0
2, 50760, Note_on_c, 0, 77, 90
2, 50820, Note_on_c, 0, 77, 0
2, 50820, Note_on_c, 0, 79, 90
2, 50880, Note_on_c, 0, 79, 0
2, 50880, Note_on_c, 0, 71, 90
2, 50940, Note_on_c, 0, 71, 0
2, 50940, Note_on_c, 0, 77, 90
2, 51000, Note_on_c, 0, 77, 0
2, 51000, Note_on_c, 0, 75, 90
2, 51060, Note_on_c, 0, 75, 0
2, 51060, Note_on_c, 0, 77, 90
2, 51120, Note_on_c, 0, 77, 0
2, 51120, Note_on_c, 0, 71, 90
2, 51180, Note_on_c, 0, 71, 0
2, 51180, Note_on_c, 0, 77, 90
2, 51240, Note_on_c, 0, 77, 0
2, 51240, Note_on_c, 0, 75, 90
2, 51300, Note_on_c, 0, 75, 0
2, 51300, Note_on_c, 0, 74, 90
2, 51360, Note_on_c, 0, 74, 0
2, 51360, Note_on_c, 0, 75, 90
2, 51420, Note_on_c, 0, 75, 0
2, 51420, Note_on_c, 0, 79, 90
2, 51480, Note_on_c, 0, 79, 0
2, 51480, Note_on_c, 0, 77, 90
2, 51540, Note_on_c, 0, 77, 0
2, 51540, Note_on_c, 0, 79, 90
2, 51600, Note_on_c, 0, 79, 0
2, 51600, Note_on_c, 0, 71, 90
2, 51660, Note_on_c, 0, 71, 0
2, 51660, Note_on_c, 0, 74, 90
2, 51720, Note_on_c, 0, 74, 0
2, 51720, Note_on_c, 0, 72, 90
2, 51780, Note_on_c, 0, 72, 0
2, 51780, Note_on_c, 0, 71, 90
2, 51840, Note_on_c, 0, 71, 0
2, 51840, Note_on_c, 0, 72, 90
2, 51900, Note_on_c, 0, 72, 0
2, 51900, Note_on_c, 0, 75, 90
2, 51960, Note_on_c, 0, 75, 0
2, 51960, Note_on_c, 0, 74, 90
2, 52020, Note_on_c, 0, 74, 0
2, 52020, Note_on_c, 0, 77, 90
2, 52080, Note_on_c, 0, 77, 0
2, 52080, Note_on_c, 0, 75, 90
2, 52140, Note_on_c, 0, 75, 0
2, 52140, Note_on_c, 0, 79, 90
2, 52200, Note_on_c, 0, 79, 0
2, 52200, Note_on_c, 0, 77, 90
2, 52260, Note_on_c, 0, 77, 0
2, 52260, Note_on_c, 0, 80, 90
2, 52320, Note_on_c, 0, 80, 0
2, 52320, Note_on_c, 0, 79, 90
2, 52380, Note_on_c, 0, 79, 0
2, 52380, Note_on_c, 0, 75, 90
2, 52440, Note_on_c, 0, 75, 0
2, 52440, Note_on_c, 0, 74, 90
2, 52500, Note_on_c, 0, 74, 0
2, 52500, Note_on_c, 0, 75, 90
2, 52560, Note_on_c, 0, 75, 0
2, 52560, Note_on_c, 0, 74, 90
2, 52620, Note_on_c, 0, 74, 0
2, 52620, Note_on_c, 0, 77, 90
2, 52680, Note_on_c, 0, 77, 0
2, 52680, Note_on_c, 0, 75, 90
2, 52740, Note_on_c, 0, 75, 0
2, 52740, Note_on_c, 0, 77, 90
2, 52800, Note_on_c, 0, 77, 0
2, 52800, Note_on_c, 0, 71, 90
2, 52860, Note_on_c, 0, 71, 0
2, 52860, Note_on_c, 0, 67, 90
2, 52920, Note_on_c, 0, 67, 0
2, 52920, Note_on_c, 0, 72, 90
2, 52980, Note_on_c, 0, 72, 0
2, 52980, Note_on_c, 0, 74, 90
2, 53040, Note_on_c, 0, 74, 0
2, 53040, Note_on_c, 0, 71, 90
2, 53070, Note_on_c, 0, 71, 0
2, 53070, Note_on_c, 0, 72, 90
2, 53100, Note_on_c, 0, 72, 0
2, 53100, Note_on_c, 0, 71, 90
2, 53220, Note_on_c, 0, 71, 0
2, 53220, Note_on_c, 0, 71, 90
2, 53280, Note_on_c, 0, 71, 0
2, 53280, Note_on_c, 0, 75, 90
2, 53340, Note_on_c, 0, 75, 0
2, 53340, Note_on_c, 0, 66, 90
2, 53400, Note_on_c, 0, 66, 0
2, 53400, Note_on_c, 0, 67, 90
2, 53460, Note_on_c, 0, 67, 0
2, 53460, Note_on_c, 0, 69, 90
2, 53520, Note_on_c, 0, 69, 0
2, 53520, Note_on_c, 0, 66, 90
2, 53550, Note_on_c, 0, 66, 0
2, 53550, Note_on_c, 0, 67, 90
2, 53580, Note_on_c, 0, 67, 0
2, 53580, Note_on_c, 0, 66, 90
2, 53700, Note_on_c, 0, 66, 0
2, 53700, Note_on_c, 0, 67, 90
2, 53760, Note_on_c, 0, 67, 0
2, 53760, Note_on_c, 0, 67, 90
2, 53820, Note_on_c, 0, 67, 0
2, 53820, Note_on_c, 0, 70, 90
2, 53880, Note_on_c, 0, 70, 0
2, 53880, Note_on_c, 0, 69, 90
2, 53940, Note_on_c, 0, 69, 0
2, 53940, Note_on_c, 0, 70, 90
2, 54000, Note_on_c, 0, 70, 0
2, 54000, Note_on_c, 0, 67, 90
2, 54120, Note_on_c, 0, 67, 0
2, 54120, Note_on_c, 0, 79, 90
2, 54120, Note_on_c, 0, 70, 90
2, 54240, Note_on_c, 0, 70, 0
2, 54240, Note_on_c, 0, 79, 0
2, 54240, Note_on_c, 0, 79, 90
2, 54240, Note_on_c, 0, 69, 90
2, 54300, Note_on_c, 0, 79, 0
2, 54300, Note_on_c, 0, 79, 90
2, 54360, Note_on_c, 0, 79, 0
2, 54360, Note_on_c, 0, 78, 90
2, 54420, Note_on_c, 0, 78, 0
2, 54420, Note_on_c, 0, 76, 90
2, 54480, Note_on_c, 0, 76, 0
2, 54480, Note_on_c, 0, 69, 0
2, 54480, Note_on_c, 0, 78, 90
2, 54480, Note_on_c, 0, 62, 90
2, 54540, Note_on_c, 0, 78, 0
2, 54540, Note_on_c, 0, 76, 90
2, 54600, Note_on_c, 0, 76, 0
2, 54600, Note_on_c, 0, 74, 90
2, 54660, Note_on_c, 0, 74, 0
2, 54660, Note_on_c, 0, 72, 90
2, 54720, Note_on_c, 0, 72, 0
2, 54720, Note_on_c, 0, 62, 0
2, 54720, Note_on_c, 0, 67, 90
2, 54720, Note_on_c, 0, 70, 90
2, 54780, Note_on_c, 0, 67, 0
2, 54780, Note_on_c, 0, 70, 90
2, 54840, Note_on_c, 0, 70, 0
2, 54840, Note_on_c, 0, 70, 0
2, 54840, Note_on_c, 0, 69, 90
2, 54840, Note_on_c, 0, 79, 90
2, 54900, Note_on_c, 0, 69, 0
2, 54900, Note_on_c, 0, 70, 90
2, 54960, Note_on_c, 0, 70, 0
2, 54960, Note_on_c, 0, 69, 90
2, 55020, Note_on_c, 0, 69, 0
2, 55020, Note_on_c, 0, 72, 90
2, 55080, Note_on_c, 0, 72, 0
2, 55080, Note_on_c, 0, 79, 0
2, 55080, Note_on_c, 0, 70, 90
2, 55080, Note_on_c, 0, 78, 90
2, 55140, Note_on_c, 0, 70, 0
2, 55140, Note_on_c, 0, 72, 90
2, 55200, Note_on_c, 0, 72, 0
2, 55200, Note_on_c, 0, 78, 0
2, 55200, Note_on_c, 0, 70, 90
2, 55200, Note_on_c, 0, 79, 90
2, 55260, Note_on_c, 0, 79, 0
2, 55260, Note_on_c, 0, 81, 90
2, 55320, Note_on_c, 0, 81, 0
2, 55320, Note_on_c, 0, 79, 90
2, 55380, Note_on_c, 0, 79, 0
2, 55380, Note_on_c, 0, 81, 90
2, 55440, Note_on_c, 0, 81, 0
2, 55440, Note_on_c, 0, 70, 0
2, 55440, Note_on_c, 0, 67, 90
2, 55440, Note_on_c, 0, 82, 90
2, 55500, Note_on_c, 0, 82, 0
2, 55500, Note_on_c, 0, 79, 90
2, 55560, Note_on_c, 0, 79, 0
2, 55560, Note_on_c, 0, 77, 90
2, 55620, Note_on_c, 0, 77, 0
2, 55620, Note_on_c, 0, 75, 90
2, 55680, Note_on_c, 0, 75, 0
2, 55680, Note_on_c, 0, 67, 0
2, 55680, Note_on_c, 0, 70, 90
2, 55680, Note_on_c, 0, 74, 90
2, 55740, Note_on_c, 0, 70, 0
2, 55740, Note_on_c, 0, 74, 90
2, 55800, Note_on_c, 0, 74, 0
2, 55800, Note_on_c, 0, 74, 0
2, 55800, Note_on_c, 0, 72, 90
2, 55860, Note_on_c, 0, 72, 0
2, 55860, Note_on_c, 0, 74, 90
2, 55920, Note_on_c, 0, 74, 0
2, 55920, Note_on_c, 0, 72, 90
2, 55980, Note_on_c, 0, 72, 0
2, 55980, Note_on_c, 0, 75, 90
2, 56040, Note_on_c, 0, 75, 0
2, 56040, Note_on_c, 0, 74, 90
2, 56100, Note_on_c, 0, 74, 0
2, 56100, Note_on_c, 0, 75, 90
2, 56160, Note_on_c, 0, 75, 0
2, 56160, Note_on_c, 0, 74, 90
2, 56340, Note_on_c, 0, 74, 0
2, 56340, Note_on_c, 0, 75, 90
2, 56400, Note_on_c, 0, 75, 0
2, 56400, Note_on_c, 0, 74, 90
2, 56460, Note_on_c, 0, 74, 0
2, 56460, Note_on_c, 0, 72, 90
2, 56520, Note_on_c, 0, 72, 0
2, 56520, Note_on_c, 0, 70, 90
2, 56580, Note_on_c, 0, 70, 0
2, 56580, Note_on_c, 0, 69, 90
2, 56640, Note_on_c, 0, 69, 0
2, 56640, Note_on_c, 0, 70, 90
2, 56700, Note_on_c, 0, 70, 0
2, 56700, Note_on_c, 0, 75, 90
2, 56760, Note_on_c, 0, 75, 0
2, 56760, Note_on_c, 0, 70, 90
2, 56820, Note_on_c, 0, 70, 0
2, 56820, Note_on_c, 0, 75, 90
2, 56880, Note_on_c, 0, 75, 0
2, 56880, Note_on_c, 0, 69, 90
2, 56940, Note_on_c, 0, 69, 0
2, 56940, Note_on_c, 0, 74, 90
2, 57000, Note_on_c, 0, 74, 0
2, 57000, Note_on_c, 0, 69, 90
2, 57060, Note_on_c, 0, 69, 0
2, 57060, Note_on_c, 0, 74, 90
2, 57120, Note_on_c, 0, 74, 0
2, 57120, Note_on_c, 0, 71, 90
2, 57180, Note_on_c, 0, 71, 0
2, 57180, Note_on_c, 0, 67, 90
2, 57240, Note_on_c, 0, 67, 0
2, 57240, Note_on_c, 0, 69, 90
2, 57300, Note_on_c, 0, 69, 0
2, 57300, Note_on_c, 0, 71, 90
2, 57360, Note_on_c, 0, 71, 0
2, 57360, Note_on_c, 0, 72, 90
2, 57420, Note_on_c, 0, 72, 0
2, 57420, Note_on_c, 0, 79, 90
2, 57480, Note_on_c, 0, 79, 0
2, 57480, Note_on_c, 0, 72, 90
2, 57540, Note_on_c, 0, 72, 0
2, 57540, Note_on_c, 0, 79, 90
2, 57600, Note_on_c, 0, 79, 0
2, 57600, Note_on_c, 0, 72, 90
2, 57660, Note_on_c, 0, 72, 0
2, 57660, Note_on_c, 0, 77, 90
2, 57720, Note_on_c, 0, 77, 0
2, 57720, Note_on_c, 0, 72, 90
2, 57780, Note_on_c, 0, 72, 0
2, 57780, Note_on_c, 0, 77, 90
2, 57840, Note_on_c, 0, 77, 0
2, 57840, Note_on_c, 0, 71, 90
2, 57900, Note_on_c, 0, 71, 0
2, 57900, Note_on_c, 0, 77, 90
2, 57960, Note_on_c, 0, 77, 0
2, 57960, Note_on_c, 0, 71, 90
2, 58020, Note_on_c, 0, 71, 0
2, 58020, Note_on_c, 0, 77, 90
2, 58080, Note_on_c, 0, 77, 0
2, 58080, Note_on_c, 0, 72, 90
2, 58140, Note_on_c, 0, 72, 0
2, 58140, Note_on_c, 0, 75, 90
2, 58200, Note_on_c, 0, 75, 0
2, 58200, Note_on_c, 0, 67, 90
2, 58260, Note_on_c, 0, 67, 0
2, 58260, Note_on_c, 0, 72, 90
2, 58320, Note_on_c, 0, 72, 0
2, 58320, Note_on_c, 0, 71, 90
2, 58380, Note_on_c, 0, 71, 0
2, 58380, Note_on_c, 0, 68, 90
2, 58440, Note_on_c, 0, 68, 0
2, 58440, Note_on_c, 0, 67, 90
2, 58500, Note_on_c, 0, 67, 0
2, 58500, Note_on_c, 0, 65, 90
2, 58560, Note_on_c, 0, 65, 0
2, 58560, Note_on_c, 0, 63, 90
2, 58620, Note_on_c, 0, 63, 0
2, 58620, Note_on_c, 0, 67, 90
2, 58680, Note_on_c, 0, 67, 0
2, 58680, Note_on_c, 0, 65, 90
2, 58740, Note_on_c, 0, 65, 0
2, 58740, Note_on_c, 0, 67, 90
2, 58800, Note_on_c, 0, 67, 0
2, 58800, Note_on_c, 0, 63, 90
2, 58920, Note_on_c, 0, 63, 0
2, 58920, Note_on_c, 0, 63, 90
2, 59040, Note_on_c, 0, 63, 0
2, 59040, Note_on_c, 0, 65, 90
2, 59160, Note_on_c, 0, 65, 0
2, 59160, Note_on_c, 0, 65, 90
2, 59280, Note_on_c, 0, 65, 0
2, 59280, Note_on_c, 0, 65, 90
2, 59400, Note_on_c, 0, 65, 0
2, 59400, Note_on_c, 0, 65, 90
2, 59520, Note_on_c, 0, 65, 0
2, 59520, Note_on_c, 0, 63, 90
2, 59700, Note_on_c, 0, 63, 0
2, 59700, Note_on_c, 0, 60, 90
2, 59760, Note_on_c, 0, 60, 0
2, 59760, Note_on_c, 0, 59, 100
2, 59820, Note_on_c, 0, 59, 0
2, 59820, Note_on_c, 0, 62, 90
2, 59880, Note_on_c, 0, 62, 0
2, 59880, Note_on_c, 0, 60, 90
2, 59940, Note_on_c, 0, 60, 0
2, 59940, Note_on_c, 0, 62, 90
2, 60000, Note_on_c, 0, 62, 0
2, 60000, Note_on_c, 0, 60, 90
2, 60060, Note_on_c, 0, 60, 0
2, 60060, Note_on_c, 0, 67, 90
2, 60120, Note_on_c, 0, 67, 0
2, 60120, Note_on_c, 0, 60, 90
2, 60180, Note_on_c, 0, 60, 0
2, 60180, Note_on_c, 0, 65, 90
2, 60240, Note_on_c, 0, 65, 0
2, 60240, Note_on_c, 0, 60, 90
2, 60300, Note_on_c, 0, 60, 0
2, 60300, Note_on_c, 0, 63, 90
2, 60360, Note_on_c, 0, 63, 0
2, 60360, Note_on_c, 0, 59, 100
2, 60420, Note_on_c, 0, 59, 0
2, 60420, Note_on_c, 0, 62, 90
2, 60480, Note_on_c, 0, 62, 0
2, 60480, Note_on_c, 0, 60, 90
2, 60600, Note_on_c, 0, 60, 0
2, 60600, Note_on_c, 0, 63, 90
2, 60720, Note_on_c, 0, 63, 0
2, 60720, Note_on_c, 0, 62, 90
2, 60840, Note_on_c, 0, 62, 0
2, 60840, Note_on_c, 0, 65, 90
2, 60960, Note_on_c, 0, 65, 0
2, 60960, Note_on_c, 0, 65, 90
2, 61020, Note_on_c, 0, 65, 0
2, 61020, Note_on_c, 0, 62, 90
2, 61080, Note_on_c, 0, 62, 0
2, 61080, Note_on_c, 0, 63, 90
2, 61140, Note_on_c, 0, 63, 0
2, 61140, Note_on_c, 0, 65, 90
2, 61200, Note_on_c, 0, 65, 0
2, 61200, Note_on_c, 0, 67, 90
2, 61260, Note_on_c, 0, 67, 0
2, 61260, Note_on_c, 0, 68, 90
2, 61320, Note_on_c, 0, 68, 0
2, 61320, Note_on_c, 0, 67, 90
2, 61380, Note_on_c, 0, 67, 0
2, 61380, Note_on_c, 0, 65, 90
2, 61440, Note_on_c, 0, 65, 0
2, 61440, Note_on_c, 0, 60, 90
2, 61440, Note_on_c, 0, 63, 90
2, 61500, Note_on_c, 0, 63, 0
2, 61500, Note_on_c, 0, 62, 90
2, 61560, Note_on_c, 0, 62, 0
2, 61560, Note_on_c, 0, 63, 90
2, 61620, Note_on_c, 0, 63, 0
2, 61620, Note_on_c, 0, 65, 90
2, 61680, Note_on_c, 0, 65, 0
2, 61680, Note_on_c, 0, 60, 0
2, 61680, Note_on_c, 0, 62, 90
2, 61710, Note_on_c, 0, 62, 0
2, 61710, Note_on_c, 0, 63, 90
2, 61740, Note_on_c, 0, 63, 0
2, 61740, Note_on_c, 0, 62, 90
2, 61800, Note_on_c, 0, 58, 90
2, 61860, Note_on_c, 0, 62, 0
2, 61860, Note_on_c, 0, 62, 90
2, 61920, Note_on_c, 0, 62, 0
2, 61920, Note_on_c, 0, 58, 0
2, 61920, Note_on_c, 0, 57, 90
2, 61920, Note_on_c, 0, 60, 90
2, 61980, Note_on_c, 0, 60, 0
2, 61980, Note_on_c, 0, 72, 90
2, 62040, Note_on_c, 0, 57, 0
2, 62040, Note_on_c, 0, 69, 90
2, 62100, Note_on_c, 0, 72, 0
2, 62100, Note_on_c, 0, 72, 90
2, 62160, Note_on_c, 0, 72, 0
2, 62160, Note_on_c, 0, 70, 90
2, 62220, Note_on_c, 0, 69, 0
2, 62220, Note_on_c, 0, 67, 90
2, 62280, Note_on_c, 0, 67, 0
2, 62280, Note_on_c, 0, 65, 90
2, 62340, Note_on_c, 0, 70, 0
2, 62340, Note_on_c, 0, 68, 90
2, 62400, Note_on_c, 0, 68, 0
2, 62400, Note_on_c, 0, 65, 0
2, 62400, Note_on_c, 0, 67, 90
2, 62460, Note_on_c, 0, 79, 90
2, 62520, Note_on_c, 0, 67, 0
2, 62520, Note_on_c, 0, 74, 90
2, 62580, Note_on_c, 0, 79, 0
2, 62580, Note_on_c, 0, 77, 90
2, 62640, Note_on_c, 0, 77, 0
2, 62640, Note_on_c, 0, 75, 90
2, 62700, Note_on_c, 0, 74, 0
2, 62700, Note_on_c, 0, 72, 90
2, 62760, Note_on_c, 0, 72, 0
2, 62760, Note_on_c, 0, 70, 90
2, 62820, Note_on_c, 0, 75, 0
2, 62820, Note_on_c, 0, 74, 90
2, 62880, Note_on_c, 0, 74, 0
2, 62880, Note_on_c, 0, 72, 90
2, 62940, Note_on_c, 0, 70, 0
2, 62940, Note_on_c, 0, 69, 90
2, 63000, Note_on_c, 0, 69, 0
2, 63000, Note_on_c, 0, 67, 90
2, 63060, Note_on_c, 0, 72, 0
2, 63060, Note_on_c, 0, 70, 90
2, 63120, Note_on_c, 0, 70, 0
2, 63120, Note_on_c, 0, 68, 90
2, 63180, Note_on_c, 0, 67, 0
2, 63180, Note_on_c, 0, 67, 90
2, 63240, Note_on_c, 0, 67, 0
2, 63240, Note_on_c, 0, 65, 90
2, 63300, Note_on_c, 0, 68, 0
2, 63300, Note_on_c, 0, 70, 90
2, 63360, Note_on_c, 0, 70, 0
2, 63360, Note_on_c, 0, 67, 90
2, 63420, Note_on_c, 0, 65, 0
2, 63420, Note_on_c, 0, 65, 90
2, 63480, Note_on_c, 0, 65, 0
2, 63480, Note_on_c, 0, 63, 90
2, 63540, Note_on_c, 0, 63, 0
2, 63540, Note_on_c, 0, 62, 90
2, 63600, Note_on_c, 0, 62, 0
2, 63600, Note_on_c, 0, 63, 90
2, 63660, Note_on_c, 0, 67, 0
2, 63660, Note_on_c, 0, 68, 90
2, 63720, Note_on_c, 0, 63, 0
2, 63720, Note_on_c, 0, 62, 90
2, 63780, Note_on_c, 0, 68, 0
2, 63780, Note_on_c, 0, 67, 90
2, 63840, Note_on_c, 0, 62, 0
2, 63840, Note_on_c, 0, 60, 90
2, 63900, Note_on_c, 0, 67, 0
2, 63900, Note_on_c, 0, 65, 90
2, 63960, Note_on_c, 0, 60, 0
2, 64020, Note_on_c, 0, 65, 0
2, 64020, Note_on_c, 0, 63, 90
2, 64140, Note_on_c, 0, 63, 0
2, 64140, Note_on_c, 0, 62, 90
2, 64260, Note_on_c, 0, 62, 0
2, 64260, Note_on_c, 0, 60, 90
2, 64380, Note_on_c, 0, 60, 0
2, 64380, Note_on_c, 0, 60, 90
2, 64440, Note_on_c, 0, 60, 0
2, 64440, Note_on_c, 0, 62, 90
2, 64500, Note_on_c, 0, 62, 0
2, 64500, Note_on_c, 0, 60, 90
2, 64560, Note_on_c, 0, 60, 0
2, 64560, Note_on_c, 0, 59, 90
2, 64620, Note_on_c, 0, 59, 0
2, 64620, Note_on_c, 0, 60, 90
2, 64680, Note_on_c, 0, 60, 0
2, 64680, Note_on_c, 0, 57, 90
2, 64740, Note_on_c, 0, 57, 0
2, 64740, Note_on_c, 0, 59, 90
2, 64800, Note_on_c, 0, 59, 0
2, 64800, Note_on_c, 0, 60, 110
2, 64860, Note_on_c, 0, 60, 0
2, 64860, Note_on_c, 0, 63, 110
2, 64920, Note_on_c, 0, 63, 0
2, 64920, Note_on_c, 0, 62, 110
2, 64980, Note_on_c, 0, 62, 0
2, 64980, Note_on_c, 0, 63, 110
2, 65040, Note_on_c, 0, 63, 0
2, 65040, Note_on_c, 0, 60, 110
2, 65160, Note_on_c, 0, 60, 0
2, 65160, Note_on_c, 0, 60, 110
2, 65160, Note_on_c, 0, 63, 110
2, 65280, Note_on_c, 0, 63, 0
2, 65280, Note_on_c, 0, 60, 0
2, 65280, Note_on_c, 0, 59, 110
2, 65280, Note_on_c, 0, 62, 110
2, 65520, Note_on_c, 0, 62, 0
2, 65520, Note_on_c, 0, 59, 0
2, 65520, Note_on_c, 0, 59, 110
2, 65520, Note_on_c, 0, 62, 110
2, 65760, Note_on_c, 0, 62, 0
2, 65760, Note_on_c, 0, 59, 0
2, 65760, Note_on_c, 0, 60, 110
2, 65760, Note_on_c, 0, 63, 110
2, 66000, Note_on_c, 0, 63, 0
2, 66000, Note_on_c, 0, 60, 0
2, 66180, Note_on_c, 0, 72, 110
2, 66180, Note_on_c, 0, 67, 110
2, 66180, Note_on_c, 0, 63, 110
2, 66240, Note_on_c, 0, 63, 0
2, 66240, Note_on_c, 0, 67, 0
2, 66240, Note_on_c, 0, 72, 0
2, 66300, Note_on_c, 0, 72, 110
2, 66300, Note_on_c, 0, 68, 110
2, 66300, Note_on_c, 0, 65, 110
2, 66300, Note_on_c, 0, 62, 110
2, 66360, Note_on_c, 0, 62, 0
2, 66360, Note_on_c, 0, 72, 0
2, 66360, Note_on_c, 0, 68, 0
2, 66360, Note_on_c, 0, 65, 0
2, 66420, Note_on_c, 0, 72, 110
2, 66420, Note_on_c, 0, 68, 110
2, 66420, Note_on_c, 0, 65, 110
2, 66420, Note_on_c, 0, 62, 110
2, 66480, Note_on_c, 0, 62, 0
2, 66480, Note_on_c, 0, 72, 0
2, 66480, Note_on_c, 0, 68, 0
2, 66480, Note_on_c, 0, 65, 0
2, 66540, Note_on_c, 0, 71, 110
2, 66540, Note_on_c, 0, 67, 110
2, 66540, Note_on_c, 0, 65, 110
2, 66540, Note_on_c, 0, 62, 110
2, 66600, Note_on_c, 0, 62, 0
2, 66600, Note_on_c, 0, 71, 0
2, 66600, Note_on_c, 0, 67, 0
2, 66600, Note_on_c, 0, 65, 0
2, 66660, Note_on_c, 0, 71, 110
2, 66660, Note_on_c, 0, 67, 110
2, 66660, Note_on_c, 0, 65, 110
2, 66660, Note_on_c, 0, 62, 110
2, 66720, Note_on_c, 0, 62, 0
2, 66720, Note_on_c, 0, 71, 0
2, 66720, Note_on_c, 0, 67, 0
2, 66720, Note_on_c, 0, 65, 0
2, 66720, Note_on_c, 0, 72, 110
2, 66720, Note_on_c, 0, 67, 110
2, 66720, Note_on_c, 0, 63, 110
2, 66720, Note_on_c, 0, 60, 110
2, 66840, Note_on_c, 0, 60, 0
2, 66840, Note_on_c, 0, 72, 0
2, 66840, Note_on_c, 0, 67, 0
2, 66840, Note_on_c, 0, 63, 0
2, 66960, Note_on_c, 0, 71, 110
2, 66960, Note_on_c, 0, 67, 110
2, 66960, Note_on_c, 0, 65, 110
2, 67080, Note_on_c, 0, 65, 0
2, 67080, Note_on_c, 0, 67, 0
2, 67080, Note_on_c, 0, 71, 0
2, 67260, Note_on_c, 0, 72, 110
2, 67260, Note_on_c, 0, 67, 110
2, 67260, Note_on_c, 0, 63, 110
2, 67320, Note_on_c, 0, 63, 0
2, 67320, Note_on_c, 0, 67, 0
2, 67320, Note_on_c, 0, 72, 0
2, 67380, Note_on_c, 0, 74, 110
2, 67380, Note_on_c, 0, 71, 110
2, 67380, Note_on_c, 0, 67, 110
2, 67380, Note_on_c, 0, 65, 110
2, 67440, Note_on_c, 0, 65, 0
2, 67440, Note_on_c, 0, 74, 0
2, 67440, Note_on_c, 0, 71, 0
2, 67440, Note_on_c, 0, 67, 0
2, 67500, Note_on_c, 0, 75, 110
2, 67500, Note_on_c, 0, 72, 110
2, 67500, Note_on_c, 0, 67, 110
2, 67560, Note_on_c, 0, 67, 0
2, 67560, Note_on_c, 0, 72, 0
2, 67560, Note_on_c, 0, 75, 0
2, 67620, Note_on_c, 0, 77, 110
2, 67620, Note_on_c, 0, 74, 110
2, 67620, Note_on_c, 0, 71, 110
2, 67620, Note_on_c, 0, 67, 110
2, 67680, Note_on_c, 0, 67, 0
2, 67680, Note_on_c, 0, 77, 0
2, 67680, Note_on_c, 0, 74, 0
2, 67680, Note_on_c, 0, 71, 0
2, 67680, Note_on_c, 0, 79, 110
2, 67680, Note_on_c, 0, 75, 110
2, 67680, Note_on_c, 0, 72, 110
2, 67680, Note_on_c, 0, 67, 110
2, 67800, Note_on_c, 0, 67, 0
2, 67800, Note_on_c, 0, 79, 0
2, 67800, Note_on_c, 0, 75, 0
2, 67800, Note_on_c, 0, 72, 0
2, 67920, Note_on_c, 0, 72, 110
2, 67920, Note_on_c, 0, 68, 110
2, 67920, Note_on_c, 0, 65, 110
2, 68040, Note_on_c, 0, 65, 0
2, 68040, Note_on_c, 0, 68, 0
2, 68040, Note_on_c, 0, 72, 0
2, 68160, Note_on_c, 0, 71, 110
2, 68160, Note_on_c, 0, 67, 110
2, 68160, Note_on_c, 0, 62, 110
2, 68280, Note_on_c, 0, 62, 0
2, 68280, Note_on_c, 0, 67, 0
2, 68280, Note_on_c, 0, 71, 0
2, 68640, Note_on_c, 0, 72, 110
2, 68640, Note_on_c, 0, 67, 110
2, 68640, Note_on_c, 0, 63, 110
2, 68760, Note_on_c, 0, 63, 0
2, 68760, Note_on_c, 0, 67, 0
2, 68760, Note_on_c, 0, 72, 0
2, 69120, Note_on_c, 0, 65, 110
2, 69120, Note_on_c, 0, 68, 110
2, 69120, Note_on_c, 0, 72, 110
2, 69240, Note_on_c, 0, 72, 0
2, 69240, Note_on_c, 0, 68, 0
2, 69240, Note_on_c, 0, 65, 0
2, 69600, Note_on_c, 0, 77, 110
2, 69600, Note_on_c, 0, 74, 110
2, 69600, Note_on_c, 0, 71, 110
2, 69600, Note_on_c, 0, 68, 110
2, 69720, Note_on_c, 0, 68, 0
2, 69720, Note_on_c, 0, 77, 0
2, 69720, Note_on_c, 0, 74, 0
2, 69720, Note_on_c, 0, 71, 0
2, 70080, Note_on_c, 0, 79, 110
2, 70080, Note_on_c, 0, 74, 110
2, 70080, Note_on_c, 0, 71, 110
2, 70080, Note_on_c, 0, 67, 110
2, 70200, Note_on_c, 0, 67, 0
2, 70200, Note_on_c, 0, 79, 0
2, 70200, Note_on_c, 0, 74, 0
2, 70200, Note_on_c, 0, 71, 0
2, 70560, Note_on_c, 0, 67, 110
2, 70560, Note_on_c, 0, 63, 110
2, 70560, Note_on_c, 0, 72, 110
2, 70656, Note_on_c, 0, 72, 0
2, 70656, Note_on_c, 0, 63, 0
2, 70656, Note_on_c, 0, 67, 0
2, 70680, Note_on_c, 0, 68, 110
2, 70680, Note_on_c, 0, 65, 110
2, 70680, Note_on_c, 0, 74, 110
2, 70776, Note_on_c, 0, 74, 0
2, 70776, Note_on_c, 0, 65, 0
2, 70776, Note_on_c, 0, 68, 0
2, 70800, Note_on_c, 0, 67, 110
2, 70800, Note_on_c, 0, 65, 110
2, 70800, Note_on_c, 0, 62, 110
2, 70800, Note_on_c, 0, 71, 110
2, 70944, Note_on_c, 0, 71, 0
2, 70980, Note_on_c, 0, 72, 110
2, 70992, Note_on_c, 0, 67, 0
2, 70992, Note_on_c, 0, 62, 0
2, 70992, Note_on_c, 0, 65, 0
2, 71028, Note_on_c, 0, 72, 0
2, 71040, Note_on_c, 0, 72, 110
2, 71040, Note_on_c, 0, 67, 110
2, 71040, Note_on_c, 0, 63, 110
2, 71100, Note_on_c, 0, 72, 0
2, 71100, Note_on_c, 0, 75, 110
2, 71160, Note_on_c, 0, 75, 0
2, 71160, Note_on_c, 0, 63, 0
2, 71160, Note_on_c, 0, 67, 0
2, 71160, Note_on_c, 0, 74, 110
2, 71220, Note_on_c, 0, 74, 0
2, 71220, Note_on_c, 0, 75, 110
2, 71280, Note_on_c, 0, 75, 0
2, 71280, Note_on_c, 0, 72, 110
2, 71340, Note_on_c, 0, 72, 0
2, 71340, Note_on_c, 0, 75, 110
2, 71400, Note_on_c, 0, 75, 0
2, 71400, Note_on_c, 0, 74, 110
2, 71400, Note_on_c, 0, 60, 110
2, 71460, Note_on_c, 0, 74, 0
2, 71460, Note_on_c, 0, 75, 110
2, 71520, Note_on_c, 0, 75, 0
2, 71520, Note_on_c, 0, 60, 0
2, 71520, Note_on_c, 0, 74, 110
2, 71520, Note_on_c, 0, 62, 110
2, 71580, Note_on_c, 0, 74, 0
2, 71580, Note_on_c, 0, 77, 110
2, 71640, Note_on_c, 0, 77, 0
2, 71640, Note_on_c, 0, 62, 0
2, 71640, Note_on_c, 0, 75, 110
2, 71700, Note_on_c, 0, 75, 0
2, 71700, Note_on_c, 0, 77, 110
2, 71760, Note_on_c, 0, 77, 0
2, 71760, Note_on_c, 0, 74, 110
2, 71760, Note_on_c, 0, 59, 110
2, 71820, Note_on_c, 0, 74, 0
2, 71820, Note_on_c, 0, 77, 110
2, 71880, Note_on_c, 0, 77, 0
2, 71880, Note_on_c, 0, 59, 0
2, 71880, Note_on_c, 0, 75, 110
2, 71940, Note_on_c, 0, 75, 0
2, 71940, Note_on_c, 0, 77, 110
2, 72000, Note_on_c, 0, 77, 0
2, 72000, Note_on_c, 0, 60, 110
2, 72000, Note_on_c, 0, 75, 110
2, 72060, Note_on_c, 0, 75, 0
2, 72060, Note_on_c, 0, 60, 0
2, 72060, Note_on_c, 0, 63, 110
2, 72060, Note_on_c, 0, 79, 110
2, 72120, Note_on_c, 0, 79, 0
2, 72120, Note_on_c, 0, 63, 0
2, 72120, Note_on_c, 0, 62, 110
2, 72120, Note_on_c, 0, 77, 110
2, 72180, Note_on_c, 0, 77, 0
2, 72180, Note_on_c, 0, 62, 0
2, 72180, Note_on_c, 0, 63, 110
2, 72180, Note_on_c, 0, 79, 110
2, 72240, Note_on_c, 0, 79, 0
2, 72240, Note_on_c, 0, 63, 0
2, 72240, Note_on_c, 0, 60, 110
2, 72240, Note_on_c, 0, 75, 110
2, 72300, Note_on_c, 0, 75, 0
2, 72300, Note_on_c, 0, 60, 0
2, 72300, Note_on_c, 0, 63, 110
2, 72300, Note_on_c, 0, 79, 110
2, 72360, Note_on_c, 0, 79, 0
2, 72360, Note_on_c, 0, 63, 0
2, 72360, Note_on_c, 0, 62, 110
2, 72360, Note_on_c, 0, 77, 110
2, 72420, Note_on_c, 0, 77, 0
2, 72420, Note_on_c, 0, 62, 0
2, 72420, Note_on_c, 0, 63, 110
2, 72420, Note_on_c, 0, 79, 110
2, 72480, Note_on_c, 0, 79, 0
2, 72480, Note_on_c, 0, 63, 0
2, 72480, Note_on_c, 0, 62, 110
2, 72480, Note_on_c, 0, 77, 110
2, 72540, Note_on_c, 0, 77, 0
2, 72540, Note_on_c, 0, 62, 0
2, 72540, Note_on_c, 0, 65, 110
2, 72540, Note_on_c, 0, 80, 110
2, 72600, Note_on_c, 0, 80, 0
2, 72600, Note_on_c, 0, 65, 0
2, 72600, Note_on_c, 0, 63, 110
2, 72600, Note_on_c, 0, 79, 110
2, 72660, Note_on_c, 0, 79, 0
2, 72660, Note_on_c, 0, 63, 0
2, 72660, Note_on_c, 0, 65, 110
2, 72660, Note_on_c, 0, 80, 110
2, 72720, Note_on_c, 0, 80, 0
2, 72720, Note_on_c, 0, 65, 0
2, 72720, Note_on_c, 0, 62, 110
2, 72720, Note_on_c, 0, 77, 110
2, 72780, Note_on_c, 0, 77, 0
2, 72780, Note_on_c, 0, 62, 0
2, 72780, Note_on_c, 0, 65, 110
2, 72780, Note_on_c, 0, 80, 110
2, 72840, Note_on_c, 0, 80, 0
2, 72840, Note_on_c, 0, 65, 0
2, 72840, Note_on_c, 0, 63, 110
2, 72840, Note_on_c, 0, 79, 110
2, 72900, Note_on_c, 0, 79, 0
2, 72900, Note_on_c, 0, 63, 0
2, 72900, Note_on_c, 0, 65, 110
2, 72900, Note_on_c, 0, 80, 110
2, 72960, Note_on_c, 0, 80, 0
2, 72960, Note_on_c, 0, 65, 0
2, 72960, Note_on_c, 0, 63, 110
2, 72960, Note_on_c, 0, 79, 110
2, 73020, Note_on_c, 0, 79, 0
2, 73020, Note_on_c, 0, 63, 0
2, 73020, Note_on_c, 0, 67, 110
2, 73020, Note_on_c, 0, 75, 110
2, 73080, Note_on_c, 0, 75, 0
2, 73080, Note_on_c, 0, 67, 0
2, 73080, Note_on_c, 0, 72, 110
2, 73080, Note_on_c, 0, 79, 110
2, 73140, Note_on_c, 0, 79, 0
2, 73140, Note_on_c, 0, 72, 0
2, 73140, Note_on_c, 0, 67, 110
2, 73140, Note_on_c, 0, 75, 110
2, 73200, Note_on_c, 0, 75, 0
2, 73200, Note_on_c, 0, 67, 0
2, 73200, Note_on_c, 0, 63, 110
2, 73200, Note_on_c, 0, 79, 110
2, 73260, Note_on_c, 0, 79, 0
2, 73260, Note_on_c, 0, 63, 0
2, 73260, Note_on_c, 0, 67, 110
2, 73260, Note_on_c, 0, 75, 110
2, 73320, Note_on_c, 0, 75, 0
2, 73320, Note_on_c, 0, 67, 0
2, 73320, Note_on_c, 0, 72, 110
2, 73320, Note_on_c, 0, 79, 110
2, 73380, Note_on_c, 0, 79, 0
2, 73380, Note_on_c, 0, 72, 0
2, 73380, Note_on_c, 0, 67, 110
2, 73380, Note_on_c, 0, 75, 110
2, 73440, Note_on_c, 0, 75, 0
2, 73440, Note_on_c, 0, 67, 0
2, 73440, Note_on_c, 0, 63, 110
2, 73440, Note_on_c, 0, 79, 110
2, 73500, Note_on_c, 0, 79, 0
2, 73500, Note_on_c, 0, 63, 0
2, 73500, Note_on_c, 0, 67, 110
2, 73500, Note_on_c, 0, 75, 110
2, 73560, Note_on_c, 0, 75, 0
2, 73560, Note_on_c, 0, 67, 0
2, 73560, Note_on_c, 0, 72, 110
2, 73560, Note_on_c, 0, 79, 110
2, 73620, Note_on_c, 0, 79, 0
2, 73620, Note_on_c, 0, 72, 0
2, 73620, Note_on_c, 0, 67, 110
2, 73620, Note_on_c, 0, 75, 110
2, 73680, Note_on_c, 0, 75, 0
2, 73680, Note_on_c, 0, 67, 0
2, 73680, Note_on_c, 0, 63, 110
2, 73680, Note_on_c, 0, 79, 110
2, 73740, Note_on_c, 0, 79, 0
2, 73740, Note_on_c, 0, 63, 0
2, 73740, Note_on_c, 0, 67, 110
2, 73740, Note_on_c, 0, 75, 110
2, 73800, Note_on_c, 0, 75, 0
2, 73800, Note_on_c, 0, 67, 0
2, 73800, Note_on_c, 0, 72, 110
2, 73800, Note_on_c, 0, 79, 110
2, 73860, Note_on_c, 0, 79, 0
2, 73860, Note_on_c, 0, 72, 0
2, 73860, Note_on_c, 0, 67, 110
2, 73860, Note_on_c, 0, 75, 110
2, 73920, Note_on_c, 0, 75, 0
2, 73920, Note_on_c, 0, 67, 0
2, 73920, Note_on_c, 0, 62, 110
2, 73920, Note_on_c, 0, 77, 110
2, 73980, Note_on_c, 0, 77, 0
2, 73980, Note_on_c, 0, 62, 0
2, 73980, Note_on_c, 0, 65, 110
2, 73980, Note_on_c, 0, 74, 110
2, 74040, Note_on_c, 0, 74, 0
2, 74040, Note_on_c, 0, 65, 0
2, 74040, Note_on_c, 0, 68, 110
2, 74040, Note_on_c, 0, 77, 110
2, 74100, Note_on_c, 0, 77, 0
2, 74100, Note_on_c, 0, 68, 0
2, 74100, Note_on_c, 0, 65, 110
2, 74100, Note_on_c, 0, 74, 110
2, 74160, Note_on_c, 0, 74, 0
2, 74160, Note_on_c, 0, 65, 0
2, 74160, Note_on_c, 0, 62, 110
2, 74160, Note_on_c, 0, 77, 110
2, 74220, Note_on_c, 0, 77, 0
2, 74220, Note_on_c, 0, 62, 0
2, 74220, Note_on_c, 0, 65, 110
2, 74220, Note_on_c, 0, 74, 110
2, 74280, Note_on_c, 0, 74, 0
2, 74280, Note_on_c, 0, 65, 0
2, 74280, Note_on_c, 0, 71, 110
2, 74280, Note_on_c, 0, 77, 110
2, 74340, Note_on_c, 0, 77, 0
2, 74340, Note_on_c, 0, 71, 0
2, 74340, Note_on_c, 0, 65, 110
2, 74340, Note_on_c, 0, 74, 110
2, 74400, Note_on_c, 0, 74, 0
2, 74400, Note_on_c, 0, 65, 0
2, 74400, Note_on_c, 0, 62, 110
2, 74400, Note_on_c, 0, 77, 110
2, 74460, Note_on_c, 0, 77, 0
2, 74460, Note_on_c, 0, 62, 0
2, 74460, Note_on_c, 0, 65, 110
2, 74460, Note_on_c, 0, 74, 110
2, 74520, Note_on_c, 0, 74, 0
2, 74520, Note_on_c, 0, 65, 0
2, 74520, Note_on_c, 0, 68, 110
2, 74520, Note_on_c, 0, 77, 110
2, 74580, Note_on_c, 0, 77, 0
2, 74580, Note_on_c, 0, 68, 0
2, 74580, Note_on_c, 0, 65, 110
2, 74580, Note_on_c, 0, 74, 110
2, 74640, Note_on_c, 0, 74, 0
2, 74640, Note_on_c, 0, 65, 0
2, 74640, Note_on_c, 0, 62, 110
2, 74640, Note_on_c, 0, 77, 110
2, 74700, Note_on_c, 0, 77, 0
2, 74700, Note_on_c, 0, 62, 0
2, 74700, Note_on_c, 0, 65, 110
2, 74700, Note_on_c, 0, 74, 110
2, 74760, Note_on_c, 0, 74, 0
2, 74760, Note_on_c, 0, 65, 0
2, 74760, Note_on_c, 0, 71, 110
2, 74760, Note_on_c, 0, 77, 110
2, 74820, Note_on_c, 0, 77, 0
2, 74820, Note_on_c, 0, 71, 0
2, 74820, Note_on_c, 0, 65, 110
2, 74820, Note_on_c, 0, 74, 110
2, 74880, Note_on_c, 0, 74, 0
2, 74880, Note_on_c, 0, 65, 0
2, 74880, Note_on_c, 0, 75, 110
2, 74880, Note_on_c, 0, 72, 110
2, 74880, Note_on_c, 0, 67, 110
2, 74880, Note_on_c, 0, 63, 110
2, 75000, Note_on_c, 0, 63, 0
2, 75000, Note_on_c, 0, 75, 0
2, 75000, Note_on_c, 0, 72, 0
2, 75000, Note_on_c, 0, 67, 0
2, 75360, Note_on_c, 0, 74, 110
2, 75360, Note_on_c, 0, 71, 110
2, 75360, Note_on_c, 0, 67, 110
2, 75360, Note_on_c, 0, 62, 110
2, 75480, Note_on_c, 0, 62, 0
2, 75480, Note_on_c, 0, 74, 0
2, 75480, Note_on_c, 0, 71, 0
2, 75480, Note_on_c, 0, 67, 0
2, 75840, Note_on_c, 0, 72, 110
2, 75840, Note_on_c, 0, 67, 110
2, 75840, Note_on_c, 0, 63, 110
2, 75840, Note_on_c, 0, 60, 110
2, 75960, Note_on_c, 0, 60, 0
2, 75960, Note_on_c, 0, 72, 0
2, 75960, Note_on_c, 0, 67, 0
2, 75960, Note_on_c, 0, 63, 0
2, 76320, Note_on_c, 0, 72, 110
2, 76320, Note_on_c, 0, 68, 110
2, 76320, Note_on_c, 0, 65, 110
2, 76320, Note_on_c, 0, 60, 110
2, 76440, Note_on_c, 0, 60, 0
2, 76440, Note_on_c, 0, 72, 0
2, 76440, Note_on_c, 0, 68, 0
2, 76440, Note_on_c, 0, 65, 0
2, 76800, Note_on_c, 0, 62, 110
2, 76800, Note_on_c, 0, 67, 110
2, 76800, Note_on_c, 0, 71, 110
2, 76920, Note_on_c, 0, 71, 0
2, 76920, Note_on_c, 0, 67, 0
2, 76920, Note_on_c, 0, 62, 0
2, 77100, Note_on_c, 0, 62, 110
2, 77100, Note_on_c, 0, 77, 110
2, 77160, Note_on_c, 0, 77, 0
2, 77160, Note_on_c, 0, 62, 0
2, 77160, Note_on_c, 0, 63, 110
2, 77160, Note_on_c, 0, 79, 110
2, 77220, Note_on_c, 0, 79, 0
2, 77220, Note_on_c, 0, 63, 0
2, 77220, Note_on_c, 0, 65, 110
2, 77220, Note_on_c, 0, 80, 110
2, 77280, Note_on_c, 0, 80, 0
2, 77280, Note_on_c, 0, 65, 0
2, 77280, Note_on_c, 0, 63, 110
2, 77280, Note_on_c, 0, 79, 110
2, 77340, Note_on_c, 0, 79, 0
2, 77340, Note_on_c, 0, 63, 0
2, 77340, Note_on_c, 0, 65, 110
2, 77340, Note_on_c, 0, 80, 110
2, 77400, Note_on_c, 0, 80, 0
2, 77400, Note_on_c, 0, 65, 0
2, 77400, Note_on_c, 0, 63, 110
2, 77400, Note_on_c, 0, 79, 110
2, 77460, Note_on_c, 0, 79, 0
2, 77460, Note_on_c, 0, 63, 0
2, 77460, Note_on_c, 0, 62, 110
2, 77460, Note_on_c, 0, 77, 110
2, 77520, Note_on_c, 0, 77, 0
2, 77520, Note_on_c, 0, 62, 0
2, 77520, Note_on_c, 0, 60, 110
2, 77520, Note_on_c, 0, 75, 110
2, 77580, Note_on_c, 0, 75, 0
2, 77580, Note_on_c, 0, 60, 0
2, 77580, Note_on_c, 0, 63, 110
2, 77580, Note_on_c, 0, 80, 110
2, 77640, Note_on_c, 0, 80, 0
2, 77640, Note_on_c, 0, 63, 0
2, 77640, Note_on_c, 0, 60, 110
2, 77640, Note_on_c, 0, 75, 110
2, 77700, Note_on_c, 0, 75, 0
2, 77700, Note_on_c, 0, 60, 0
2, 77700, Note_on_c, 0, 63, 110
2, 77700, Note_on_c, 0, 80, 110
2, 77760, Note_on_c, 0, 80, 0
2, 77760, Note_on_c, 0, 63, 0
2, 77760, Note_on_c, 0, 77, 110
2, 77820, Note_on_c, 0, 77, 0
2, 77820, Note_on_c, 0, 79, 110
2, 77880, Note_on_c, 0, 79, 0
2, 77880, Note_on_c, 0, 77, 110
2, 77940, Note_on_c, 0, 77, 0
2, 77940, Note_on_c, 0, 75, 110
2, 78000, Note_on_c, 0, 75, 0
2, 78000, Note_on_c, 0, 74, 110
2, 78060, Note_on_c, 0, 74, 0
2, 78060, Note_on_c, 0, 79, 110
2, 78120, Note_on_c, 0, 79, 0
2, 78120, Note_on_c, 0, 74, 110
2, 78180, Note_on_c, 0, 74, 0
2, 78180, Note_on_c, 0, 79, 110
2, 78240, Note_on_c, 0, 79, 0
2, 78240, Note_on_c, 0, 75, 110
2, 78300, Note_on_c, 0, 75, 0
2, 78300, Note_on_c, 0, 77, 110
2, 78360, Note_on_c, 0, 77, 0
2, 78360, Note_on_c, 0, 75, 110
2, 78420, Note_on_c, 0, 75, 0
2, 78420, Note_on_c, 0, 74, 110
2, 78480, Note_on_c, 0, 74, 0
2, 78480, Note_on_c, 0, 72, 110
2, 78540, Note_on_c, 0, 72, 0
2, 78540, Note_on_c, 0, 77, 110
2, 78600, Note_on_c, 0, 77, 0
2, 78600, Note_on_c, 0, 72, 110
2, 78660, Note_on_c, 0, 72, 0
2, 78660, Note_on_c, 0, 77, 110
2, 78720, Note_on_c, 0, 77, 0
2, 78720, Note_on_c, 0, 74, 110
2, 78780, Note_on_c, 0, 74, 0
2, 78780, Note_on_c, 0, 75, 110
2, 78840, Note_on_c, 0, 75, 0
2, 78840, Note_on_c, 0, 74, 110
2, 78900, Note_on_c, 0, 74, 0
2, 78900, Note_on_c, 0, 72, 110
2, 78960, Note_on_c, 0, 72, 0
2, 78960, Note_on_c, 0, 71, 110
2, 79020, Note_on_c, 0, 71, 0
2, 79020, Note_on_c, 0, 80, 110
2, 79080, Note_on_c, 0, 80, 0
2, 79080, Note_on_c, 0, 71, 110
2, 79140, Note_on_c, 0, 71, 0
2, 79140, Note_on_c, 0, 80, 110
2, 79200, Note_on_c, 0, 80, 0
2, 79200, Note_on_c, 0, 79, 110
2, 79260, Note_on_c, 0, 79, 0
2, 79260, Note_on_c, 0, 80, 110
2, 79320, Note_on_c, 0, 80, 0
2, 79320, Note_on_c, 0, 75, 110
2, 79380, Note_on_c, 0, 75, 0
2, 79380, Note_on_c, 0, 79, 110
2, 79440, Note_on_c, 0, 79, 0
2, 79440, Note_on_c, 0, 77, 110
2, 79500, Note_on_c, 0, 77, 0
2, 79500, Note_on_c, 0, 74, 110
2, 79560, Note_on_c, 0, 74, 0
2, 79560, Note_on_c, 0, 71, 110
2, 79620, Note_on_c, 0, 71, 0
2, 79620, Note_on_c, 0, 79, 110
2, 79680, Note_on_c, 0, 79, 0
2, 79680, Note_on_c, 0, 75, 110
2, 79740, Note_on_c, 0, 75, 0
2, 79740, Note_on_c, 0, 72, 110
2, 79800, Note_on_c, 0, 72, 0
2, 79800, Note_on_c, 0, 77, 110
2, 79860, Note_on_c, 0, 77, 0
2, 79860, Note_on_c, 0, 75, 110
2, 79920, Note_on_c, 0, 75, 0
2, 79920, Note_on_c, 0, 74, 110
2, 79980, Note_on_c, 0, 74, 0
2, 79980, Note_on_c, 0, 72, 110
2, 80040, Note_on_c, 0, 72, 0
2, 80040, Note_on_c, 0, 71, 110
2, 80100, Note_on_c, 0, 71, 0
2, 80100, Note_on_c, 0, 74, 110
2, 80160, Note_on_c, 0, 74, 0
2, 80160, Note_on_c, 0, 72, 110
2, 80220, Note_on_c, 0, 72, 0
2, 80220, Note_on_c, 0, 69, 110
2, 80280, Note_on_c, 0, 69, 0
2, 80280, Note_on_c, 0, 74, 110
2, 80340, Note_on_c, 0, 74, 0
2, 80340, Note_on_c, 0, 72, 110
2, 80400, Note_on_c, 0, 72, 0
2, 80400, Note_on_c, 0, 71, 110
2, 80520, Note_on_c, 0, 71, 0
2, 80880, Note_on_c, 0, 72, 110
2, 80880, Note_on_c, 0, 67, 110
2, 80880, Note_on_c, 0, 64, 110
2, 80880, Note_on_c, 0, 60, 110
2, 81120, Note_on_c, 0, 60, 0
2, 81120, Note_on_c, 0, 72, 0
2, 81120, Note_on_c, 0, 67, 0
2, 81120, Note_on_c, 0, 64, 0
2, 81390, Note_on_c, 0, 55, 110
2, 81420, Note_on_c, 0, 55, 0
2, 81420, Note_on_c, 0, 57, 110
2, 81450, Note_on_c, 0, 57, 0
2, 81450, Note_on_c, 0, 59, 110
2, 81480, Note_on_c, 0, 59, 0
2, 81480, Note_on_c, 0, 60, 110
2, 81510, Note_on_c, 0, 60, 0
2, 81510, Note_on_c, 0, 62, 110
2, 81540, Note_on_c, 0, 62, 0
2, 81540, Note_on_c, 0, 64, 110
2, 81570, Note_on_c, 0, 64, 0
2, 81570, Note_on_c, 0, 65, 110
2, 81600, Note_on_c, 0, 65, 0
2, 81600, Note_on_c, 0, 67, 110
2, 81630, Note_on_c, 0, 67, 0
2, 81630, Note_on_c, 0, 72, 110
2, 81660, Note_on_c, 0, 72, 0
2, 81660, Note_on_c, 0, 71, 110
2, 81690, Note_on_c, 0, 71, 0
2, 81690, Note_on_c, 0, 69, 110
2, 81720, Note_on_c, 0, 69, 0
2, 81720, Note_on_c, 0, 67, 110
2, 81750, Note_on_c, 0, 67, 0
2, 81750, Note_on_c, 0, 77, 110
2, 81780, Note_on_c, 0, 77, 0
2, 81780, Note_on_c, 0, 76, 110
2, 81810, Note_on_c, 0, 76, 0
2, 81810, Note_on_c, 0, 74, 110
2, 81840, Note_on_c, 0, 74, 0
2, 81840, Note_on_c, 0, 72, 110
2, 81870, Note_on_c, 0, 72, 0
2, 81870, Note_on_c, 0, 80, 110
2, 81900, Note_on_c, 0, 80, 0
2, 81900, Note_on_c, 0, 79, 110
2, 81930, Note_on_c, 0, 79, 0
2, 81930, Note_on_c, 0, 77, 110
2, 81960, Note_on_c, 0, 77, 0
2, 81960, Note_on_c, 0, 79, 110
2, 81990, Note_on_c, 0, 79, 0
2, 81990, Note_on_c, 0, 77, 110
2, 82020, Note_on_c, 0, 77, 0
2, 82020, Note_on_c, 0, 76, 110
2, 82050, Note_on_c, 0, 76, 0
2, 82050, Note_on_c, 0, 74, 110
2, 82080, Note_on_c, 0, 74, 0
2, 82080, Note_on_c, 0, 72, 110
2, 82110, Note_on_c, 0, 72, 0
2, 82110, Note_on_c, 0, 76, 110
2, 82140, Note_on_c, 0, 76, 0
2, 82140, Note_on_c, 0, 74, 110
2, 82170, Note_on_c, 0, 74, 0
2, 82170, Note_on_c, 0, 72, 110
2, 82200, Note_on_c, 0, 72, 0
2, 82200, Note_on_c, 0, 71, 110
2, 82230, Note_on_c, 0, 71, 0
2, 82230, Note_on_c, 0, 72, 110
2, 82260, Note_on_c, 0, 72, 0
2, 82260, Note_on_c, 0, 69, 110
2, 82290, Note_on_c, 0, 69, 0
2, 82290, Note_on_c, 0, 71, 110
2, 82320, Note_on_c, 0, 71, 0
2, 82320, Note_on_c, 0, 72, 110
2, 82350, Note_on_c, 0, 72, 0
2, 82350, Note_on_c, 0, 67, 110
2, 82380, Note_on_c, 0, 67, 0
2, 82380, Note_on_c, 0, 68, 110
2, 82410, Note_on_c, 0, 68, 0
2, 82410, Note_on_c, 0, 70, 110
2, 82440, Note_on_c, 0, 70, 0
2, 82440, Note_on_c, 0, 68, 110
2, 82470, Note_on_c, 0, 68, 0
2, 82470, Note_on_c, 0, 70, 110
2, 82500, Note_on_c, 0, 70, 0
2, 82500, Note_on_c, 0, 68, 110
2, 82500, Note_on_c, 0, 68, 110
2, 82515, Note_on_c, 0, 68, 0
2, 82515, Note_on_c, 0, 68, 0
2, 82515, Note_on_c, 0, 68, 110
2, 82530, Note_on_c, 0, 68, 0
2, 82530, Note_on_c, 0, 67, 110
2, 82560, Note_on_c, 0, 67, 0
2, 82560, Note_on_c, 0, 68, 110
2, 82590, Note_on_c, 0, 68, 0
2, 82590, Note_on_c, 0, 60, 110
2, 82620, Note_on_c, 0, 60, 0
2, 82620, Note_on_c, 0, 62, 110
2, 82650, Note_on_c, 0, 62, 0
2, 82650, Note_on_c, 0, 64, 110
2, 82680, Note_on_c, 0, 64, 0
2, 82680, Note_on_c, 0, 65, 110
2, 82710, Note_on_c, 0, 65, 0
2, 82710, Note_on_c, 0, 67, 110
2, 82740, Note_on_c, 0, 67, 0
2, 82740, Note_on_c, 0, 68, 110
2, 82770, Note_on_c, 0, 68, 0
2, 82770, Note_on_c, 0, 70, 110
2, 82800, Note_on_c, 0, 70, 0
2, 82800, Note_on_c, 0, 68, 110
2, 82830, Note_on_c, 0, 68, 0
2, 82830, Note_on_c, 0, 65, 110
2, 82860, Note_on_c, 0, 65, 0
2, 82860, Note_on_c, 0, 67, 110
2, 82890, Note_on_c, 0, 67, 0
2, 82890, Note_on_c, 0, 68, 110
2, 82920, Note_on_c, 0, 68, 0
2, 82920, Note_on_c, 0, 70, 110
2, 82950, Note_on_c, 0, 70, 0
2, 82950, Note_on_c, 0, 73, 110
2, 82980, Note_on_c, 0, 73, 0
2, 82980, Note_on_c, 0, 72, 110
2, 83010, Note_on_c, 0, 72, 0
2, 83010, Note_on_c, 0, 70, 110
2, 83040, Note_on_c, 0, 70, 0
2, 83040, Note_on_c, 0, 72, 110
2, 83070, Note_on_c, 0, 72, 0
2, 83070, Note_on_c, 0, 70, 110
2, 83100, Note_on_c, 0, 70, 0
2, 83100, Note_on_c, 0, 68, 110
2, 83130, Note_on_c, 0, 68, 0
2, 83130, Note_on_c, 0, 67, 110
2, 83160, Note_on_c, 0, 67, 0
2, 83160, Note_on_c, 0, 65, 110
2, 83190, Note_on_c, 0, 65, 0
2, 83190, Note_on_c, 0, 70, 110
2, 83220, Note_on_c, 0, 70, 0
2, 83220, Note_on_c, 0, 68, 110
2, 83250, Note_on_c, 0, 68, 0
2, 83250, Note_on_c, 0, 67, 110
2, 83280, Note_on_c, 0, 67, 0
2, 83280, Note_on_c, 0, 65, 110
2, 83310, Note_on_c, 0, 65, 0
2, 83310, Note_on_c, 0, 61, 110
2, 83340, Note_on_c, 0, 61, 0
2, 83340, Note_on_c, 0, 60, 110
2, 83370, Note_on_c, 0, 60, 0
2, 83370, Note_on_c, 0, 59, 110
2, 83400, Note_on_c, 0, 59, 0
2, 83400, Note_on_c, 0, 60, 110
2, 83430, Note_on_c, 0, 60, 0
2, 83430, Note_on_c, 0, 62, 110
2, 83460, Note_on_c, 0, 62, 0
2, 83460, Note_on_c, 0, 64, 110
2, 83490, Note_on_c, 0, 64, 0
2, 83490, Note_on_c, 0, 65, 110
2, 83520, Note_on_c, 0, 65, 0
2, 83520, Note_on_c, 0, 67, 110
2, 83550, Note_on_c, 0, 65, 110
2, 83580, Note_on_c, 0, 65, 0
2, 83580, Note_on_c, 0, 64, 110
2, 83610, Note_on_c, 0, 64, 0
2, 83610, Note_on_c, 0, 62, 110
2, 83640, Note_on_c, 0, 62, 0
2, 83640, Note_on_c, 0, 64, 110
2, 84480, Note_on_c, 0, 64, 0
2, 84480, Note_on_c, 0, 67, 0
2, 84480, End_track
3, 0, Start_track
3, 0, MIDI_port, 0
3, 0, Title_t, "--------------------------------------"
3, 0, Program_c, 1, 19
3, 0, Control_c, 1, 7, 100
3, 0, Control_c, 1, 10, 64
3, 8460, Note_on_c, 1, 53, 95
3, 8520, Note_on_c, 1, 53, 0
3, 8520, Note_on_c, 1, 56, 95
3, 8580, Note_on_c, 1, 56, 0
3, 8580, Note_on_c, 1, 53, 95
3, 8640, Note_on_c, 1, 53, 0
3, 8640, Note_on_c, 1, 60, 95
3, 8670, Note_on_c, 1, 60, 0
3, 8670, Note_on_c, 1, 58, 95
3, 8700, Note_on_c, 1, 58, 0
3, 8700, Note_on_c, 1, 60, 95
3, 8940, Note_on_c, 1, 60, 0
3, 8940, Note_on_c, 1, 48, 95
3, 9000, Note_on_c, 1, 48, 0
3, 9000, Note_on_c, 1, 56, 95
3, 9060, Note_on_c, 1, 56, 0
3, 9060, Note_on_c, 1, 55, 95
3, 9120, Note_on_c, 1, 55, 0
3, 9120, Note_on_c, 1, 56, 95
3, 9420, Note_on_c, 1, 56, 0
3, 9420, Note_on_c, 1, 56, 95
3, 9480, Note_on_c, 1, 56, 0
3, 9480, Note_on_c, 1, 55, 95
3, 9540, Note_on_c, 1, 55, 0
3, 9540, Note_on_c, 1, 53, 95
3, 9600, Note_on_c, 1, 53, 0
3, 9600, Note_on_c, 1, 55, 95
3, 9900, Note_on_c, 1, 55, 0
3, 9900, Note_on_c, 1, 55, 95
3, 9960, Note_on_c, 1, 55, 0
3, 9960, Note_on_c, 1, 53, 95
3, 10020, Note_on_c, 1, 53, 0
3, 10020, Note_on_c, 1, 51, 95
3, 10080, Note_on_c, 1, 51, 0
3, 10080, Note_on_c, 1, 53, 95
3, 10560, Note_on_c, 1, 53, 0
3, 10560, Note_on_c, 1, 55, 95
3, 10620, Note_on_c, 1, 59, 95
3, 10680, Note_on_c, 1, 59, 0
3, 10680, Note_on_c, 1, 60, 95
3, 10740, Note_on_c, 1, 60, 0
3, 10740, Note_on_c, 1, 58, 95
3, 10800, Note_on_c, 1, 58, 0
3, 10800, Note_on_c, 1, 55, 0
3, 10800, Note_on_c, 1, 57, 95
3, 10860, Note_on_c, 1, 57, 0
3, 10860, Note_on_c, 1, 58, 95
3, 10920, Note_on_c, 1, 58, 0
3, 10920, Note_on_c, 1, 55, 95
3, 10980, Note_on_c, 1, 55, 0
3, 10980, Note_on_c, 1, 57, 95
3, 11040, Note_on_c, 1, 57, 0
3, 11040, Note_on_c, 1, 54, 95
3, 11580, Note_on_c, 1, 54, 0
3, 11580, Note_on_c, 1, 57, 95
3, 11640, Note_on_c, 1, 57, 0
3, 11640, Note_on_c, 1, 58, 95
3, 11700, Note_on_c, 1, 58, 0
3, 11700, Note_on_c, 1, 57, 95
3, 11760, Note_on_c, 1, 57, 0
3, 11760, Note_on_c, 1, 55, 95
3, 11820, Note_on_c, 1, 55, 0
3, 11820, Note_on_c, 1, 57, 95
3, 11880, Note_on_c, 1, 57, 0
3, 11880, Note_on_c, 1, 54, 95
3, 11940, Note_on_c, 1, 54, 0
3, 11940, Note_on_c, 1, 57, 95
3, 12000, Note_on_c, 1, 57, 0
3, 12000, Note_on_c, 1, 55, 95
3, 12480, Note_on_c, 1, 55, 0
3, 12480, Note_on_c, 1, 52, 95
3, 12960, Note_on_c, 1, 52, 0
3, 12960, Note_on_c, 1, 57, 95
3, 13440, Note_on_c, 1, 57, 0
3, 14460, Note_on_c, 1, 66, 95
3, 14520, Note_on_c, 1, 66, 0
3, 14520, Note_on_c, 1, 67, 95
3, 14580, Note_on_c, 1, 67, 0
3, 14580, Note_on_c, 1, 68, 95
3, 14640, Note_on_c, 1, 68, 0
3, 14640, Note_on_c, 1, 67, 95
3, 14700, Note_on_c, 1, 67, 0
3, 14700, Note_on_c, 1, 65, 95
3, 14760, Note_on_c, 1, 65, 0
3, 14760, Note_on_c, 1, 63, 95
3, 14820, Note_on_c, 1, 63, 0
3, 14820, Note_on_c, 1, 62, 95
3, 14880, Note_on_c, 1, 62, 0
3, 14880, Note_on_c, 1, 63, 95
3, 15360, Note_on_c, 1, 63, 0
3, 15360, Note_on_c, 1, 66, 95
3, 15420, Note_on_c, 1, 57, 95
3, 15480, Note_on_c, 1, 57, 0
3, 15480, Note_on_c, 1, 58, 95
3, 15540, Note_on_c, 1, 58, 0
3, 15540, Note_on_c, 1, 60, 95
3, 15600, Note_on_c, 1, 60, 0
3, 15600, Note_on_c, 1, 58, 95
3, 15660, Note_on_c, 1, 58, 0
3, 15660, Note_on_c, 1, 57, 95
3, 15720, Note_on_c, 1, 57, 0
3, 15720, Note_on_c, 1, 55, 95
3, 15780, Note_on_c, 1, 55, 0
3, 15780, Note_on_c, 1, 54, 95
3, 15840, Note_on_c, 1, 54, 0
3, 15840, Note_on_c, 1, 66, 0
3, 15840, Note_on_c, 1, 55, 95
3, 15840, Note_on_c, 1, 62, 95
3, 16320, Note_on_c, 1, 62, 0
3, 16320, Note_on_c, 1, 62, 95
3, 16440, Note_on_c, 1, 62, 0
3, 16440, Note_on_c, 1, 63, 95
3, 16560, Note_on_c, 1, 63, 0
3, 16560, Note_on_c, 1, 62, 95
3, 16680, Note_on_c, 1, 62, 0
3, 16680, Note_on_c, 1, 60, 95
3, 16800, Note_on_c, 1, 60, 0
3, 16800, Note_on_c, 1, 55, 0
3, 16800, Note_on_c, 1, 62, 95
3, 16860, Note_on_c, 1, 58, 95
3, 16920, Note_on_c, 1, 58, 0
3, 16920, Note_on_c, 1, 60, 95
3, 16980, Note_on_c, 1, 60, 0
3, 16980, Note_on_c, 1, 62, 95
3, 17040, Note_on_c, 1, 62, 0
3, 17040, Note_on_c, 1, 55, 95
3, 17100, Note_on_c, 1, 55, 0
3, 17100, Note_on_c, 1, 57, 95
3, 17160, Note_on_c, 1, 57, 0
3, 17160, Note_on_c, 1, 58, 95
3, 17220, Note_on_c, 1, 58, 0
3, 17220, Note_on_c, 1, 50, 95
3, 17280, Note_on_c, 1, 50, 0
3, 17280, Note_on_c, 1, 62, 0
3, 17280, Note_on_c, 1, 52, 95
3, 17280, Note_on_c, 1, 60, 95
3, 17760, Note_on_c, 1, 52, 0
3, 17760, Note_on_c, 1, 48, 95
3, 18000, Note_on_c, 1, 48, 0
3, 18060, Note_on_c, 1, 51, 95
3, 18120, Note_on_c, 1, 51, 0
3, 18120, Note_on_c, 1, 50, 95
3, 18180, Note_on_c, 1, 50, 0
3, 18180, Note_on_c, 1, 48, 95
3, 18240, Note_on_c, 1, 48, 0
3, 18240, Note_on_c, 1, 60, 0
3, 18240, Note_on_c, 1, 47, 95
3, 18240, Note_on_c, 1, 50, 95
3, 18240, Note_on_c, 1, 55, 95
3, 18240, Note_on_c, 1, 59, 95
3, 18330, Note_on_c, 1, 59, 0
3, 18330, Note_on_c, 1, 47, 0
3, 18330, Note_on_c, 1, 50, 0
3, 18330, Note_on_c, 1, 55, 0
3, 18360, Note_on_c, 1, 47, 95
3, 18360, Note_on_c, 1, 50, 95
3, 18360, Note_on_c, 1, 55, 95
3, 18360, Note_on_c, 1, 59, 95
3, 18450, Note_on_c, 1, 59, 0
3, 18450, Note_on_c, 1, 47, 0
3, 18450, Note_on_c, 1, 50, 0
3, 18450, Note_on_c, 1, 55, 0
3, 18480, Note_on_c, 1, 47, 95
3, 18480, Note_on_c, 1, 50, 95
3, 18480, Note_on_c, 1, 55, 95
3, 18480, Note_on_c, 1, 59, 95
3, 18570, Note_on_c, 1, 59, 0
3, 18570, Note_on_c, 1, 47, 0
3, 18570, Note_on_c, 1, 50, 0
3, 18570, Note_on_c, 1, 55, 0
3, 18600, Note_on_c, 1, 47, 95
3, 18600, Note_on_c, 1, 50, 95
3, 18600, Note_on_c, 1, 55, 95
3, 18600, Note_on_c, 1, 59, 95
3, 18690, Note_on_c, 1, 59, 0
3, 18690, Note_on_c, 1, 47, 0
3, 18690, Note_on_c, 1, 50, 0
3, 18690, Note_on_c, 1, 55, 0
3, 18720, Note_on_c, 1, 60, 95
3, 18720, Note_on_c, 1, 48, 95
3, 18720, Note_on_c, 1, 51, 95
3, 18720, Note_on_c, 1, 55, 95
3, 18840, Note_on_c, 1, 55, 0
3, 18840, Note_on_c, 1, 51, 0
3, 18840, Note_on_c, 1, 48, 0
3, 18900, Note_on_c, 1, 60, 0
3, 18900, Note_on_c, 1, 60, 95
3, 18960, Note_on_c, 1, 60, 0
3, 18960, Note_on_c, 1, 63, 95
3, 19140, Note_on_c, 1, 63, 0
3, 19140, Note_on_c, 1, 63, 95
3, 19200, Note_on_c, 1, 63, 0
3, 19200, Note_on_c, 1, 67, 95
3, 19620, Note_on_c, 1, 67, 0
3, 19620, Note_on_c, 1, 67, 95
3, 19680, Note_on_c, 1, 67, 0
3, 19680, Note_on_c, 1, 63, 105
3, 19720, Note_on_c, 1, 63, 0
3, 19720, Note_on_c, 1, 65, 105
3, 19760, Note_on_c, 1, 65, 0
3, 19760, Note_on_c, 1, 67, 105
3, 19800, Note_on_c, 1, 67, 0
3, 19800, Note_on_c, 1, 60, 105
3, 19840, Note_on_c, 1, 60, 0
3, 19840, Note_on_c, 1, 62, 105
3, 19880, Note_on_c, 1, 62, 0
3, 19880, Note_on_c, 1, 63, 105
3, 19920, Note_on_c, 1, 63, 0
3, 19920, Note_on_c, 1, 55, 105
3, 19980, Note_on_c, 1, 55, 0
3, 19980, Note_on_c, 1, 60, 105
3, 20040, Note_on_c, 1, 60, 0
3, 20040, Note_on_c, 1, 51, 105
3, 20080, Note_on_c, 1, 51, 0
3, 20080, Note_on_c, 1, 53, 105
3, 20120, Note_on_c, 1, 53, 0
3, 20120, Note_on_c, 1, 55, 105
3, 20160, Note_on_c, 1, 55, 0
3, 20160, Note_on_c, 1, 53, 95
3, 20640, Note_on_c, 1, 53, 0
3, 20640, Note_on_c, 1, 55, 95
3, 20880, Note_on_c, 1, 63, 95
3, 21060, Note_on_c, 1, 63, 0
3, 21060, Note_on_c, 1, 63, 95
3, 21120, Note_on_c, 1, 63, 0
3, 21120, Note_on_c, 1, 62, 95
3, 21300, Note_on_c, 1, 62, 0
3, 21300, Note_on_c, 1, 65, 95
3, 21360, Note_on_c, 1, 65, 0
3, 21360, Note_on_c, 1, 63, 95
3, 21420, Note_on_c, 1, 63, 0
3, 21420, Note_on_c, 1, 59, 95
3, 21480, Note_on_c, 1, 59, 0
3, 21480, Note_on_c, 1, 60, 95
3, 21540, Note_on_c, 1, 60, 0
3, 21540, Note_on_c, 1, 62, 95
3, 21600, Note_on_c, 1, 62, 0
3, 21600, Note_on_c, 1, 63, 95
3, 21840, Note_on_c, 1, 55, 0
3, 21840, Note_on_c, 1, 57, 95
3, 21900, Note_on_c, 1, 63, 0
3, 21900, Note_on_c, 1, 63, 95
3, 21960, Note_on_c, 1, 63, 0
3, 21960, Note_on_c, 1, 62, 95
3, 22020, Note_on_c, 1, 62, 0
3, 22020, Note_on_c, 1, 60, 95
3, 22080, Note_on_c, 1, 60, 0
3, 22080, Note_on_c, 1, 57, 0
3, 22080, Note_on_c, 1, 62, 95
3, 22080, Note_on_c, 1, 55, 95
3, 22170, Note_on_c, 1, 55, 0
3, 22170, Note_on_c, 1, 62, 0
3, 22200, Note_on_c, 1, 62, 95
3, 22200, Note_on_c, 1, 55, 95
3, 22290, Note_on_c, 1, 55, 0
3, 22290, Note_on_c, 1, 62, 0
3, 22320, Note_on_c, 1, 62, 95
3, 22320, Note_on_c, 1, 55, 95
3, 22410, Note_on_c, 1, 55, 0
3, 22410, Note_on_c, 1, 62, 0
3, 22440, Note_on_c, 1, 62, 95
3, 22440, Note_on_c, 1, 55, 95
3, 22560, Note_on_c, 1, 55, 0
3, 22560, Note_on_c, 1, 62, 0
3, 22560, Note_on_c, 1, 55, 95
3, 22560, Note_on_c, 1, 60, 95
3, 22560, Note_on_c, 1, 48, 95
3, 22560, Note_on_c, 1, 52, 95
3, 22650, Note_on_c, 1, 52, 0
3, 22650, Note_on_c, 1, 55, 0
3, 22650, Note_on_c, 1, 60, 0
3, 22650, Note_on_c, 1, 48, 0
3, 22680, Note_on_c, 1, 60, 95
3, 22680, Note_on_c, 1, 52, 95
3, 22680, Note_on_c, 1, 55, 95
3, 22680, Note_on_c, 1, 48, 95
3, 22770, Note_on_c, 1, 48, 0
3, 22770, Note_on_c, 1, 60, 0
3, 22770, Note_on_c, 1, 52, 0
3, 22770, Note_on_c, 1, 55, 0
3, 22800, Note_on_c, 1, 55, 95
3, 22800, Note_on_c, 1, 52, 95
3, 22800, Note_on_c, 1, 60, 95
3, 22800, Note_on_c, 1, 48, 95
3, 22890, Note_on_c, 1, 48, 0
3, 22890, Note_on_c, 1, 55, 0
3, 22890, Note_on_c, 1, 52, 0
3, 22890, Note_on_c, 1, 60, 0
3, 22920, Note_on_c, 1, 60, 95
3, 22920, Note_on_c, 1, 52, 95
3, 22920, Note_on_c, 1, 55, 95
3, 22920, Note_on_c, 1, 48, 95
3, 23040, Note_on_c, 1, 48, 0
3, 23040, Note_on_c, 1, 60, 0
3, 23040, Note_on_c, 1, 52, 0
3, 23040, Note_on_c, 1, 55, 0
3, 23040, Note_on_c, 1, 48, 95
3, 23040, Note_on_c, 1, 53, 95
3, 23040, Note_on_c, 1, 60, 95
3, 23280, Note_on_c, 1, 60, 0
3, 23280, Note_on_c, 1, 53, 0
3, 23280, Note_on_c, 1, 48, 0
3, 23580, Note_on_c, 1, 65, 95
3, 23640, Note_on_c, 1, 65, 0
3, 23640, Note_on_c, 1, 64, 95
3, 23700, Note_on_c, 1, 64, 0
3, 23700, Note_on_c, 1, 60, 95
3, 23760, Note_on_c, 1, 60, 0
3, 23760, Note_on_c, 1, 65, 95
3, 24060, Note_on_c, 1, 65, 0
3, 24060, Note_on_c, 1, 65, 95
3, 24120, Note_on_c, 1, 65, 0
3, 24120, Note_on_c, 1, 64, 95
3, 24180, Note_on_c, 1, 64, 0
3, 24180, Note_on_c, 1, 60, 95
3, 24240, Note_on_c, 1, 60, 0
3, 24240, Note_on_c, 1, 65, 95
3, 24540, Note_on_c, 1, 65, 0
3, 24540, Note_on_c, 1, 65, 95
3, 24600, Note_on_c, 1, 65, 0
3, 24600, Note_on_c, 1, 64, 95
3, 24660, Note_on_c, 1, 64, 0
3, 24660, Note_on_c, 1, 60, 95
3, 24720, Note_on_c, 1, 60, 0
3, 24720, Note_on_c, 1, 65, 95
3, 25200, Note_on_c, 1, 65, 0
3, 25260, Note_on_c, 1, 64, 95
3, 25320, Note_on_c, 1, 64, 0
3, 25320, Note_on_c, 1, 65, 95
3, 25380, Note_on_c, 1, 65, 0
3, 25380, Note_on_c, 1, 59, 95
3, 25440, Note_on_c, 1, 59, 0
3, 25440, Note_on_c, 1, 60, 95
3, 25500, Note_on_c, 1, 64, 95
3, 25560, Note_on_c, 1, 64, 0
3, 25560, Note_on_c, 1, 65, 95
3, 26100, Note_on_c, 1, 65, 0
3, 26100, Note_on_c, 1, 64, 95
3, 26160, Note_on_c, 1, 64, 0
3, 26160, Note_on_c, 1, 60, 0
3, 26280, Note_on_c, 1, 59, 95
3, 26280, Note_on_c, 1, 62, 95
3, 26400, Note_on_c, 1, 62, 0
3, 26400, Note_on_c, 1, 59, 0
3, 26400, Note_on_c, 1, 60, 95
3, 26640, Note_on_c, 1, 55, 95
3, 26760, Note_on_c, 1, 55, 0
3, 26760, Note_on_c, 1, 60, 0
3, 26760, Note_on_c, 1, 53, 95
3, 26760, Note_on_c, 1, 62, 95
3, 26880, Note_on_c, 1, 62, 0
3, 26880, Note_on_c, 1, 53, 0
3, 26880, Note_on_c, 1, 52, 95
3, 26880, Note_on_c, 1, 55, 95
3, 27360, Note_on_c, 1, 55, 0
3, 27360, Note_on_c, 1, 52, 0
3, 27840, Note_on_c, 1, 48, 64
3, 27900, Note_on_c, 1, 48, 0
3, 27900, Note_on_c, 1, 51, 64
3, 27960, Note_on_c, 1, 51, 0
3, 27960, Note_on_c, 1, 50, 64
3, 28020, Note_on_c, 1, 50, 0
3, 28020, Note_on_c, 1, 51, 64
3, 28080, Note_on_c, 1, 51, 0
3, 28080, Note_on_c, 1, 48, 64
3, 28170, Note_on_c, 1, 48, 0
3, 28200, Note_on_c, 1, 51, 64
3, 28290, Note_on_c, 1, 51, 0
3, 28320, Note_on_c, 1, 50, 64
3, 28560, Note_on_c, 1, 50, 0
3, 28560, Note_on_c, 1, 43, 64
3, 28740, Note_on_c, 1, 43, 0
3, 28800, Note_on_c, 1, 48, 64
3, 28860, Note_on_c, 1, 48, 0
3, 28860, Note_on_c, 1, 51, 64
3, 28920, Note_on_c, 1, 51, 0
3, 28920, Note_on_c, 1, 50, 64
3, 28980, Note_on_c, 1, 50, 0
3, 28980, Note_on_c, 1, 51, 64
3, 29040, Note_on_c, 1, 51, 0
3, 29040, Note_on_c, 1, 50, 64
3, 29100, Note_on_c, 1, 50, 0
3, 29100, Note_on_c, 1, 53, 64
3, 29160, Note_on_c, 1, 53, 0
3, 29160, Note_on_c, 1, 51, 64
3, 29220, Note_on_c, 1, 51, 0
3, 29220, Note_on_c, 1, 53, 64
3, 29280, Note_on_c, 1, 53, 0
3, 29280, Note_on_c, 1, 51, 64
3, 29520, Note_on_c, 1, 51, 0
3, 29520, Note_on_c, 1, 48, 64
3, 29700, Note_on_c, 1, 48, 0
3, 29760, Note_on_c, 1, 51, 64
3, 29820, Note_on_c, 1, 51, 0
3, 29820, Note_on_c, 1, 55, 64
3, 29880, Note_on_c, 1, 55, 0
3, 29880, Note_on_c, 1, 53, 64
3, 29940, Note_on_c, 1, 53, 0
3, 29940, Note_on_c, 1, 55, 64
3, 30000, Note_on_c, 1, 55, 0
3, 30000, Note_on_c, 1, 53, 64
3, 30060, Note_on_c, 1, 53, 0
3, 30060, Note_on_c, 1, 56, 64
3, 30120, Note_on_c, 1, 56, 0
3, 30120, Note_on_c, 1, 55, 64
3, 30180, Note_on_c, 1, 55, 0
3, 30180, Note_on_c, 1, 56, 64
3, 30240, Note_on_c, 1, 56, 0
3, 30240, Note_on_c, 1, 55, 64
3, 30420, Note_on_c, 1, 55, 0
3, 30420, Note_on_c, 1, 56, 64
3, 30480, Note_on_c, 1, 56, 0
3, 30480, Note_on_c, 1, 55, 64
3, 30540, Note_on_c, 1, 55, 0
3, 30540, Note_on_c, 1, 53, 64
3, 30600, Note_on_c, 1, 53, 0
3, 30600, Note_on_c, 1, 51, 64
3, 30660, Note_on_c, 1, 51, 0
3, 30660, Note_on_c, 1, 50, 64
3, 30720, Note_on_c, 1, 50, 0
3, 30720, Note_on_c, 1, 51, 64
3, 30780, Note_on_c, 1, 51, 0
3, 30780, Note_on_c, 1, 50, 64
3, 30840, Note_on_c, 1, 50, 0
3, 30840, Note_on_c, 1, 51, 64
3, 30900, Note_on_c, 1, 51, 0
3, 30900, Note_on_c, 1, 53, 64
3, 30960, Note_on_c, 1, 53, 0
3, 30960, Note_on_c, 1, 50, 64
3, 30990, Note_on_c, 1, 50, 0
3, 30990, Note_on_c, 1, 51, 64
3, 31020, Note_on_c, 1, 51, 0
3, 31020, Note_on_c, 1, 50, 64
3, 31140, Note_on_c, 1, 50, 0
3, 31140, Note_on_c, 1, 48, 64
3, 31200, Note_on_c, 1, 48, 0
3, 31200, Note_on_c, 1, 48, 64
3, 31320, Note_on_c, 1, 48, 0
3, 31320, Note_on_c, 1, 46, 64
3, 31380, Note_on_c, 1, 46, 0
3, 31380, Note_on_c, 1, 48, 64
3, 31440, Note_on_c, 1, 48, 0
3, 31440, Note_on_c, 1, 45, 64
3, 31470, Note_on_c, 1, 45, 0
3, 31470, Note_on_c, 1, 46, 64
3, 31500, Note_on_c, 1, 46, 0
3, 31500, Note_on_c, 1, 45, 64
3, 31620, Note_on_c, 1, 45, 0
3, 31620, Note_on_c, 1, 43, 64
3, 31680, Note_on_c, 1, 43, 0
3, 31680, Note_on_c, 1, 55, 64
3, 31680, Note_on_c, 1, 43, 64
3, 31740, Note_on_c, 1, 55, 0
3, 31740, Note_on_c, 1, 58, 64
3, 31800, Note_on_c, 1, 58, 0
3, 31800, Note_on_c, 1, 57, 64
3, 31860, Note_on_c, 1, 57, 0
3, 31860, Note_on_c, 1, 58, 64
3, 31920, Note_on_c, 1, 58, 0
3, 31920, Note_on_c, 1, 43, 0
3, 31920, Note_on_c, 1, 55, 64
3, 32016, Note_on_c, 1, 55, 0
3, 32040, Note_on_c, 1, 58, 64
3, 32136, Note_on_c, 1, 58, 0
3, 32160, Note_on_c, 1, 57, 64
3, 32280, Note_on_c, 1, 38, 64
3, 32328, Note_on_c, 1, 38, 0
3, 32340, Note_on_c, 1, 40, 64
3, 32388, Note_on_c, 1, 40, 0
3, 32400, Note_on_c, 1, 57, 0
3, 32400, Note_on_c, 1, 50, 64
3, 32400, Note_on_c, 1, 42, 64
3, 32496, Note_on_c, 1, 42, 0
3, 32520, Note_on_c, 1, 40, 64
3, 32568, Note_on_c, 1, 40, 0
3, 32580, Note_on_c, 1, 42, 64
3, 32592, Note_on_c, 1, 50, 0
3, 32628, Note_on_c, 1, 42, 0
3, 32640, Note_on_c, 1, 55, 64
3, 32640, Note_on_c, 1, 43, 64
3, 32700, Note_on_c, 1, 55, 0
3, 32700, Note_on_c, 1, 58, 64
3, 32760, Note_on_c, 1, 58, 0
3, 32760, Note_on_c, 1, 43, 0
3, 32760, Note_on_c, 1, 57, 64
3, 32760, Note_on_c, 1, 55, 64
3, 32820, Note_on_c, 1, 57, 0
3, 32820, Note_on_c, 1, 58, 64
3, 32880, Note_on_c, 1, 58, 0
3, 32880, Note_on_c, 1, 55, 0
3, 32880, Note_on_c, 1, 57, 64
3, 32880, Note_on_c, 1, 54, 64
3, 32940, Note_on_c, 1, 57, 0
3, 32940, Note_on_c, 1, 60, 64
3, 33000, Note_on_c, 1, 60, 0
3, 33000, Note_on_c, 1, 54, 0
3, 33000, Note_on_c, 1, 58, 64
3, 33000, Note_on_c, 1, 50, 64
3, 33060, Note_on_c, 1, 58, 0
3, 33060, Note_on_c, 1, 60, 64
3, 33120, Note_on_c, 1, 60, 0
3, 33120, Note_on_c, 1, 50, 0
3, 33120, Note_on_c, 1, 58, 64
3, 33120, Note_on_c, 1, 55, 64
3, 33240, Note_on_c, 1, 55, 0
3, 33240, Note_on_c, 1, 43, 64
3, 33300, Note_on_c, 1, 43, 0
3, 33300, Note_on_c, 1, 45, 64
3, 33360, Note_on_c, 1, 45, 0
3, 33360, Note_on_c, 1, 58, 0
3, 33360, Note_on_c, 1, 55, 64
3, 33360, Note_on_c, 1, 46, 64
3, 33480, Note_on_c, 1, 46, 0
3, 33480, Note_on_c, 1, 45, 64
3, 33540, Note_on_c, 1, 45, 0
3, 33540, Note_on_c, 1, 46, 64
3, 33600, Note_on_c, 1, 46, 0
3, 33600, Note_on_c, 1, 55, 0
3, 33600, Note_on_c, 1, 43, 64
3, 33600, Note_on_c, 1, 58, 64
3, 33660, Note_on_c, 1, 58, 0
3, 33660, Note_on_c, 1, 62, 64
3, 33720, Note_on_c, 1, 62, 0
3, 33720, Note_on_c, 1, 43, 0
3, 33720, Note_on_c, 1, 55, 64
3, 33720, Note_on_c, 1, 60, 64
3, 33780, Note_on_c, 1, 60, 0
3, 33780, Note_on_c, 1, 62, 64
3, 33840, Note_on_c, 1, 62, 0
3, 33840, Note_on_c, 1, 55, 0
3, 33840, Note_on_c, 1, 51, 64
3, 33840, Note_on_c, 1, 60, 64
3, 33900, Note_on_c, 1, 60, 0
3, 33900, Note_on_c, 1, 63, 64
3, 33960, Note_on_c, 1, 63, 0
3, 33960, Note_on_c, 1, 51, 0
3, 33960, Note_on_c, 1, 48, 64
3, 33960, Note_on_c, 1, 62, 64
3, 34020, Note_on_c, 1, 62, 0
3, 34020, Note_on_c, 1, 63, 64
3, 34080, Note_on_c, 1, 63, 0
3, 34080, Note_on_c, 1, 62, 64
3, 34200, Note_on_c, 1, 48, 0
3, 34200, Note_on_c, 1, 46, 64
3, 34260, Note_on_c, 1, 62, 0
3, 34260, Note_on_c, 1, 63, 64
3, 34320, Note_on_c, 1, 63, 0
3, 34320, Note_on_c, 1, 46, 0
3, 34320, Note_on_c, 1, 42, 64
3, 34320, Note_on_c, 1, 62, 64
3, 34380, Note_on_c, 1, 62, 0
3, 34380, Note_on_c, 1, 60, 64
3, 34440, Note_on_c, 1, 60, 0
3, 34440, Note_on_c, 1, 58, 64
3, 34500, Note_on_c, 1, 58, 0
3, 34500, Note_on_c, 1, 57, 64
3, 34560, Note_on_c, 1, 57, 0
3, 34560, Note_on_c, 1, 42, 0
3, 34560, Note_on_c, 1, 43, 64
3, 34560, Note_on_c, 1, 58, 64
3, 34620, Note_on_c, 1, 58, 0
3, 34620, Note_on_c, 1, 57, 64
3, 34680, Note_on_c, 1, 57, 0
3, 34680, Note_on_c, 1, 43, 0
3, 34680, Note_on_c, 1, 46, 64
3, 34680, Note_on_c, 1, 58, 64
3, 34740, Note_on_c, 1, 58, 0
3, 34740, Note_on_c, 1, 60, 64
3, 34800, Note_on_c, 1, 60, 0
3, 34800, Note_on_c, 1, 46, 0
3, 34800, Note_on_c, 1, 48, 64
3, 34800, Note_on_c, 1, 57, 64
3, 34830, Note_on_c, 1, 57, 0
3, 34830, Note_on_c, 1, 58, 64
3, 34860, Note_on_c, 1, 58, 0
3, 34860, Note_on_c, 1, 57, 64
3, 34920, Note_on_c, 1, 48, 0
3, 34920, Note_on_c, 1, 50, 64
3, 34980, Note_on_c, 1, 57, 0
3, 34980, Note_on_c, 1, 55, 64
3, 35040, Note_on_c, 1, 55, 0
3, 35040, Note_on_c, 1, 50, 0
3, 35040, Note_on_c, 1, 47, 64
3, 35040, Note_on_c, 1, 55, 64
3, 35100, Note_on_c, 1, 55, 0
3, 35100, Note_on_c, 1, 53, 64
3, 35160, Note_on_c, 1, 53, 0
3, 35160, Note_on_c, 1, 47, 0
3, 35160, Note_on_c, 1, 48, 64
3, 35160, Note_on_c, 1, 51, 64
3, 35220, Note_on_c, 1, 51, 0
3, 35220, Note_on_c, 1, 53, 64
3, 35280, Note_on_c, 1, 53, 0
3, 35280, Note_on_c, 1, 48, 0
3, 35280, Note_on_c, 1, 41, 64
3, 35280, Note_on_c, 1, 50, 64
3, 35310, Note_on_c, 1, 50, 0
3, 35310, Note_on_c, 1, 51, 64
3, 35340, Note_on_c, 1, 51, 0
3, 35340, Note_on_c, 1, 50, 64
3, 35400, Note_on_c, 1, 41, 0
3, 35400, Note_on_c, 1, 43, 64
3, 35460, Note_on_c, 1, 50, 0
3, 35460, Note_on_c, 1, 48, 64
3, 35520, Note_on_c, 1, 48, 0
3, 35520, Note_on_c, 1, 43, 0
3, 35520, Note_on_c, 1, 48, 64
3, 35520, Note_on_c, 1, 44, 64
3, 35760, Note_on_c, 1, 44, 0
3, 35760, Note_on_c, 1, 48, 0
3, 35760, Note_on_c, 1, 39, 64
3, 35880, Note_on_c, 1, 39, 0
3, 35880, Note_on_c, 1, 36, 64
3, 36000, Note_on_c, 1, 36, 0
3, 36000, Note_on_c, 1, 43, 64
3, 36120, Note_on_c, 1, 43, 0
3, 36120, Note_on_c, 1, 43, 64
3, 36180, Note_on_c, 1, 43, 0
3, 36180, Note_on_c, 1, 45, 64
3, 36240, Note_on_c, 1, 45, 0
3, 36240, Note_on_c, 1, 47, 64
3, 36360, Note_on_c, 1, 47, 0
3, 36360, Note_on_c, 1, 45, 64
3, 36420, Note_on_c, 1, 45, 0
3, 36420, Note_on_c, 1, 47, 64
3, 36480, Note_on_c, 1, 47, 0
3, 36480, Note_on_c, 1, 48, 64
3, 36600, Note_on_c, 1, 48, 0
3, 36600, Note_on_c, 1, 39, 64
3, 36720, Note_on_c, 1, 39, 0
3, 36720, Note_on_c, 1, 41, 64
3, 36840, Note_on_c, 1, 41, 0
3, 36840, Note_on_c, 1, 43, 64
3, 36960, Note_on_c, 1, 43, 0
3, 36960, Note_on_c, 1, 36, 64
3, 37080, Note_on_c, 1, 36, 0
3, 37080, Note_on_c, 1, 48, 64
3, 37140, Note_on_c, 1, 48, 0
3, 37140, Note_on_c, 1, 50, 64
3, 37200, Note_on_c, 1, 50, 0
3, 37200, Note_on_c, 1, 51, 64
3, 37320, Note_on_c, 1, 51, 0
3, 37320, Note_on_c, 1, 50, 64
3, 37380, Note_on_c, 1, 50, 0
3, 37380, Note_on_c, 1, 51, 64
3, 37440, Note_on_c, 1, 51, 0
3, 37440, Note_on_c, 1, 48, 64
3, 37560, Note_on_c, 1, 48, 0
3, 37560, Note_on_c, 1, 60, 64
3, 37560, Note_on_c, 1, 48, 64
3, 37680, Note_on_c, 1, 48, 0
3, 37680, Note_on_c, 1, 60, 0
3, 37680, Note_on_c, 1, 56, 64
3, 37680, Note_on_c, 1, 53, 64
3, 37800, Note_on_c, 1, 53, 0
3, 37800, Note_on_c, 1, 56, 0
3, 37800, Note_on_c, 1, 53, 64
3, 37800, Note_on_c, 1, 50, 64
3, 37920, Note_on_c, 1, 50, 0
3, 37920, Note_on_c, 1, 53, 0
3, 37920, Note_on_c, 1, 55, 64
3, 37920, Note_on_c, 1, 47, 64
3, 38040, Note_on_c, 1, 47, 0
3, 38040, Note_on_c, 1, 55, 0
3, 38040, Note_on_c, 1, 51, 64
3, 38040, Note_on_c, 1, 48, 64
3, 38160, Note_on_c, 1, 48, 0
3, 38160, Note_on_c, 1, 51, 0
3, 38160, Note_on_c, 1, 50, 64
3, 38160, Note_on_c, 1, 47, 64
3, 38280, Note_on_c, 1, 47, 0
3, 38280, Note_on_c, 1, 50, 0
3, 38280, Note_on_c, 1, 55, 64
3, 38400, Note_on_c, 1, 55, 0
3, 38400, Note_on_c, 1, 48, 64
3, 38520, Note_on_c, 1, 55, 64
3, 38640, Note_on_c, 1, 55, 0
3, 38640, Note_on_c, 1, 54, 64
3, 38760, Note_on_c, 1, 54, 0
3, 38760, Note_on_c, 1, 48, 0
3, 38760, Note_on_c, 1, 55, 64
3, 38760, Note_on_c, 1, 46, 64
3, 38880, Note_on_c, 1, 46, 0
3, 38880, Note_on_c, 1, 55, 0
3, 38880, Note_on_c, 1, 54, 64
3, 38880, Note_on_c, 1, 45, 64
3, 39000, Note_on_c, 1, 45, 0
3, 39000, Note_on_c, 1, 54, 0
3, 39000, Note_on_c, 1, 55, 64
3, 39000, Note_on_c, 1, 43, 64
3, 39120, Note_on_c, 1, 43, 0
3, 39120, Note_on_c, 1, 48, 64
3, 39240, Note_on_c, 1, 48, 0
3, 39240, Note_on_c, 1, 55, 0
3, 39240, Note_on_c, 1, 54, 64
3, 39240, Note_on_c, 1, 50, 64
3, 39360, Note_on_c, 1, 50, 0
3, 39360, Note_on_c, 1, 54, 0
3, 39360, Note_on_c, 1, 43, 64
3, 39360, Note_on_c, 1, 55, 64
3, 39600, Note_on_c, 1, 55, 0
3, 39600, Note_on_c, 1, 43, 0
3, 39960, Note_on_c, 1, 50, 64
3, 40020, Note_on_c, 1, 50, 0
3, 40020, Note_on_c, 1, 52, 64
3, 40080, Note_on_c, 1, 52, 0
3, 40080, Note_on_c, 1, 54, 64
3, 40200, Note_on_c, 1, 54, 0
3, 40200, Note_on_c, 1, 52, 64
3, 40260, Note_on_c, 1, 52, 0
3, 40260, Note_on_c, 1, 54, 64
3, 40320, Note_on_c, 1, 54, 0
3, 40320, Note_on_c, 1, 55, 64
3, 40440, Note_on_c, 1, 55, 0
3, 40440, Note_on_c, 1, 63, 64
3, 40560, Note_on_c, 1, 63, 0
3, 40560, Note_on_c, 1, 60, 64
3, 40680, Note_on_c, 1, 60, 0
3, 40680, Note_on_c, 1, 62, 64
3, 40800, Note_on_c, 1, 62, 0
3, 40800, Note_on_c, 1, 55, 64
3, 40920, Note_on_c, 1, 55, 0
3, 40920, Note_on_c, 1, 55, 64
3, 40980, Note_on_c, 1, 55, 0
3, 40980, Note_on_c, 1, 57, 64
3, 41040, Note_on_c, 1, 57, 0
3, 41040, Note_on_c, 1, 58, 64
3, 41160, Note_on_c, 1, 58, 0
3, 41160, Note_on_c, 1, 57, 64
3, 41220, Note_on_c, 1, 57, 0
3, 41220, Note_on_c, 1, 58, 64
3, 41280, Note_on_c, 1, 58, 0
3, 41280, Note_on_c, 1, 55, 64
3, 41400, Note_on_c, 1, 55, 0
3, 41400, Note_on_c, 1, 67, 64
3, 41520, Note_on_c, 1, 67, 0
3, 41520, Note_on_c, 1, 63, 64
3, 41640, Note_on_c, 1, 63, 0
3, 41640, Note_on_c, 1, 60, 64
3, 41760, Note_on_c, 1, 60, 0
3, 41760, Note_on_c, 1, 54, 64
3, 41880, Note_on_c, 1, 54, 0
3, 41880, Note_on_c, 1, 62, 64
3, 42000, Note_on_c, 1, 62, 0
3, 42000, Note_on_c, 1, 64, 64
3, 42120, Note_on_c, 1, 64, 0
3, 42120, Note_on_c, 1, 66, 64
3, 42240, Note_on_c, 1, 66, 0
3, 42240, Note_on_c, 1, 67, 64
3, 42540, Note_on_c, 1, 67, 0
3, 42540, Note_on_c, 1, 60, 64
3, 42600, Note_on_c, 1, 60, 0
3, 42600, Note_on_c, 1, 65, 64
3, 42840, Note_on_c, 1, 65, 0
3, 42840, Note_on_c, 1, 63, 64
3, 42900, Note_on_c, 1, 63, 0
3, 42900, Note_on_c, 1, 65, 64
3, 42960, Note_on_c, 1, 65, 0
3, 42960, Note_on_c, 1, 62, 64
3, 43020, Note_on_c, 1, 62, 0
3, 43020, Note_on_c, 1, 68, 64
3, 43080, Note_on_c, 1, 68, 0
3, 43080, Note_on_c, 1, 67, 64
3, 43140, Note_on_c, 1, 67, 0
3, 43140, Note_on_c, 1, 65, 64
3, 43200, Note_on_c, 1, 65, 0
3, 43200, Note_on_c, 1, 63, 64
3, 43260, Note_on_c, 1, 63, 0
3, 43260, Note_on_c, 1, 67, 64
3, 43320, Note_on_c, 1, 67, 0
3, 43320, Note_on_c, 1, 65, 64
3, 43380, Note_on_c, 1, 65, 0
3, 43380, Note_on_c, 1, 67, 64
3, 43440, Note_on_c, 1, 67, 0
3, 43440, Note_on_c, 1, 63, 64
3, 43500, Note_on_c, 1, 63, 0
3, 43500, Note_on_c, 1, 62, 64
3, 43560, Note_on_c, 1, 62, 0
3, 43560, Note_on_c, 1, 60, 64
3, 43800, Note_on_c, 1, 60, 0
3, 43800, Note_on_c, 1, 59, 64
3, 43860, Note_on_c, 1, 59, 0
3, 43860, Note_on_c, 1, 57, 64
3, 43920, Note_on_c, 1, 57, 0
3, 43920, Note_on_c, 1, 59, 64
3, 44040, Note_on_c, 1, 55, 64
3, 44100, Note_on_c, 1, 55, 0
3, 44100, Note_on_c, 1, 53, 64
3, 44160, Note_on_c, 1, 53, 0
3, 44160, Note_on_c, 1, 59, 0
3, 44160, Note_on_c, 1, 51, 64
3, 44160, Note_on_c, 1, 55, 64
3, 44280, Note_on_c, 1, 55, 0
3, 44280, Note_on_c, 1, 60, 64
3, 44400, Note_on_c, 1, 51, 0
3, 44400, Note_on_c, 1, 53, 64
3, 44520, Note_on_c, 1, 53, 0
3, 44520, Note_on_c, 1, 60, 0
3, 44520, Note_on_c, 1, 55, 64
3, 44520, Note_on_c, 1, 59, 64
3, 44640, Note_on_c, 1, 59, 0
3, 44640, Note_on_c, 1, 55, 0
3, 44640, Note_on_c, 1, 48, 64
3, 44640, Note_on_c, 1, 60, 64
3, 44700, Note_on_c, 1, 60, 0
3, 44700, Note_on_c, 1, 55, 64
3, 44760, Note_on_c, 1, 55, 0
3, 44760, Note_on_c, 1, 53, 64
3, 44820, Note_on_c, 1, 53, 0
3, 44820, Note_on_c, 1, 55, 64
3, 44880, Note_on_c, 1, 55, 0
3, 44880, Note_on_c, 1, 51, 64
3, 44940, Note_on_c, 1, 51, 0
3, 44940, Note_on_c, 1, 53, 64
3, 45000, Note_on_c, 1, 53, 0
3, 45000, Note_on_c, 1, 51, 64
3, 45060, Note_on_c, 1, 51, 0
3, 45060, Note_on_c, 1, 53, 64
3, 45120, Note_on_c, 1, 53, 0
3, 45120, Note_on_c, 1, 55, 64
3, 45240, Note_on_c, 1, 55, 0
3, 45240, Note_on_c, 1, 60, 64
3, 45360, Note_on_c, 1, 48, 0
3, 45360, Note_on_c, 1, 50, 64
3, 45480, Note_on_c, 1, 60, 0
3, 45480, Note_on_c, 1, 59, 64
3, 45600, Note_on_c, 1, 59, 0
3, 45600, Note_on_c, 1, 50, 0
3, 45600, Note_on_c, 1, 60, 64
3, 45600, Note_on_c, 1, 51, 64
3, 45720, Note_on_c, 1, 60, 0
3, 45720, Note_on_c, 1, 55, 64
3, 45840, Note_on_c, 1, 51, 0
3, 45840, Note_on_c, 1, 47, 64
3, 45960, Note_on_c, 1, 55, 0
3, 45960, Note_on_c, 1, 55, 64
3, 46080, Note_on_c, 1, 47, 0
3, 46080, Note_on_c, 1, 48, 64
3, 46200, Note_on_c, 1, 55, 0
3, 46200, Note_on_c, 1, 60, 64
3, 46320, Note_on_c, 1, 48, 0
3, 46320, Note_on_c, 1, 55, 64
3, 46440, Note_on_c, 1, 60, 0
3, 46440, Note_on_c, 1, 59, 64
3, 46560, Note_on_c, 1, 59, 0
3, 46560, Note_on_c, 1, 57, 64
3, 46680, Note_on_c, 1, 55, 0
3, 46680, Note_on_c, 1, 55, 64
3, 46800, Note_on_c, 1, 55, 0
3, 46800, Note_on_c, 1, 54, 64
3, 47040, Note_on_c, 1, 54, 0
3, 47040, Note_on_c, 1, 57, 0
3, 47040, Note_on_c, 1, 55, 64
3, 47280, Note_on_c, 1, 55, 0
3, 47280, Note_on_c, 1, 60, 64
3, 47400, Note_on_c, 1, 60, 0
3, 47400, Note_on_c, 1, 62, 64
3, 47520, Note_on_c, 1, 62, 0
3, 47520, Note_on_c, 1, 63, 64
3, 47880, Note_on_c, 1, 63, 0
3, 47880, Note_on_c, 1, 68, 64
3, 48000, Note_on_c, 1, 68, 0
3, 48000, Note_on_c, 1, 62, 64
3, 48360, Note_on_c, 1, 62, 0
3, 48360, Note_on_c, 1, 67, 64
3, 48480, Note_on_c, 1, 67, 0
3, 48480, Note_on_c, 1, 60, 64
3, 48540, Note_on_c, 1, 60, 0
3, 48540, Note_on_c, 1, 63, 64
3, 48600, Note_on_c, 1, 63, 0
3, 48600, Note_on_c, 1, 62, 64
3, 48660, Note_on_c, 1, 62, 0
3, 48660, Note_on_c, 1, 63, 64
3, 48720, Note_on_c, 1, 63, 0
3, 48720, Note_on_c, 1, 65, 64
3, 48780, Note_on_c, 1, 65, 0
3, 48780, Note_on_c, 1, 63, 64
3, 48840, Note_on_c, 1, 63, 0
3, 48840, Note_on_c, 1, 62, 64
3, 48900, Note_on_c, 1, 62, 0
3, 48900, Note_on_c, 1, 60, 64
3, 48960, Note_on_c, 1, 60, 0
3, 48960, Note_on_c, 1, 58, 64
3, 49020, Note_on_c, 1, 58, 0
3, 49020, Note_on_c, 1, 62, 64
3, 49080, Note_on_c, 1, 62, 0
3, 49080, Note_on_c, 1, 60, 64
3, 49140, Note_on_c, 1, 60, 0
3, 49140, Note_on_c, 1, 62, 64
3, 49200, Note_on_c, 1, 62, 0
3, 49200, Note_on_c, 1, 63, 64
3, 49260, Note_on_c, 1, 63, 0
3, 49260, Note_on_c, 1, 67, 64
3, 49320, Note_on_c, 1, 67, 0
3, 49320, Note_on_c, 1, 65, 64
3, 49380, Note_on_c, 1, 65, 0
3, 49380, Note_on_c, 1, 67, 64
3, 49440, Note_on_c, 1, 67, 0
3, 49440, Note_on_c, 1, 68, 64
3, 49560, Note_on_c, 1, 68, 0
3, 49560, Note_on_c, 1, 67, 64
3, 49680, Note_on_c, 1, 67, 0
3, 49680, Note_on_c, 1, 65, 64
3, 49740, Note_on_c, 1, 65, 0
3, 49740, Note_on_c, 1, 67, 64
3, 49800, Note_on_c, 1, 67, 0
3, 49800, Note_on_c, 1, 63, 64
3, 49860, Note_on_c, 1, 63, 0
3, 49860, Note_on_c, 1, 65, 64
3, 49920, Note_on_c, 1, 65, 0
3, 49920, Note_on_c, 1, 67, 64
3, 50040, Note_on_c, 1, 67, 0
3, 50040, Note_on_c, 1, 65, 64
3, 50160, Note_on_c, 1, 65, 0
3, 50160, Note_on_c, 1, 63, 64
3, 50280, Note_on_c, 1, 63, 0
3, 50280, Note_on_c, 1, 62, 64
3, 50400, Note_on_c, 1, 62, 0
3, 50400, Note_on_c, 1, 60, 90
3, 50460, Note_on_c, 1, 60, 0
3, 50460, Note_on_c, 1, 63, 90
3, 50520, Note_on_c, 1, 63, 0
3, 50520, Note_on_c, 1, 62, 90
3, 50580, Note_on_c, 1, 62, 0
3, 50580, Note_on_c, 1, 63, 90
3, 50640, Note_on_c, 1, 63, 0
3, 50640, Note_on_c, 1, 60, 90
3, 50736, Note_on_c, 1, 60, 0
3, 50760, Note_on_c, 1, 63, 90
3, 50856, Note_on_c, 1, 63, 0
3, 50880, Note_on_c, 1, 62, 90
3, 51120, Note_on_c, 1, 62, 0
3, 51120, Note_on_c, 1, 55, 90
3, 51360, Note_on_c, 1, 55, 0
3, 51360, Note_on_c, 1, 60, 90
3, 51420, Note_on_c, 1, 60, 0
3, 51420, Note_on_c, 1, 63, 90
3, 51480, Note_on_c, 1, 63, 0
3, 51480, Note_on_c, 1, 62, 90
3, 51540, Note_on_c, 1, 62, 0
3, 51540, Note_on_c, 1, 63, 90
3, 51600, Note_on_c, 1, 63, 0
3, 51600, Note_on_c, 1, 62, 90
3, 51660, Note_on_c, 1, 62, 0
3, 51660, Note_on_c, 1, 65, 90
3, 51720, Note_on_c, 1, 65, 0
3, 51720, Note_on_c, 1, 63, 90
3, 51780, Note_on_c, 1, 63, 0
3, 51780, Note_on_c, 1, 65, 90
3, 51840, Note_on_c, 1, 65, 0
3, 51840, Note_on_c, 1, 63, 90
3, 52032, Note_on_c, 1, 63, 0
3, 52080, Note_on_c, 1, 60, 90
3, 52272, Note_on_c, 1, 60, 0
3, 52320, Note_on_c, 1, 63, 90
3, 52380, Note_on_c, 1, 63, 0
3, 52380, Note_on_c, 1, 67, 90
3, 52440, Note_on_c, 1, 67, 0
3, 52440, Note_on_c, 1, 65, 90
3, 52500, Note_on_c, 1, 65, 0
3, 52500, Note_on_c, 1, 67, 90
3, 52560, Note_on_c, 1, 67, 0
3, 52560, Note_on_c, 1, 65, 90
3, 52620, Note_on_c, 1, 65, 0
3, 52620, Note_on_c, 1, 68, 90
3, 52680, Note_on_c, 1, 68, 0
3, 52680, Note_on_c, 1, 67, 90
3, 52740, Note_on_c, 1, 67, 0
3, 52740, Note_on_c, 1, 68, 90
3, 52800, Note_on_c, 1, 68, 0
3, 52800, Note_on_c, 1, 67, 90
3, 52860, Note_on_c, 1, 67, 0
3, 52860, Note_on_c, 1, 65, 90
3, 52920, Note_on_c, 1, 65, 0
3, 52920, Note_on_c, 1, 63, 90
3, 52980, Note_on_c, 1, 63, 0
3, 52980, Note_on_c, 1, 65, 90
3, 53040, Note_on_c, 1, 65, 0
3, 53040, Note_on_c, 1, 62, 90
3, 53220, Note_on_c, 1, 62, 0
3, 53220, Note_on_c, 1, 62, 90
3, 53280, Note_on_c, 1, 62, 0
3, 53280, Note_on_c, 1, 60, 90
3, 53400, Note_on_c, 1, 60, 0
3, 53400, Note_on_c, 1, 58, 90
3, 53460, Note_on_c, 1, 58, 0
3, 53460, Note_on_c, 1, 60, 90
3, 53520, Note_on_c, 1, 60, 0
3, 53520, Note_on_c, 1, 57, 90
3, 53550, Note_on_c, 1, 57, 0
3, 53550, Note_on_c, 1, 58, 90
3, 53580, Note_on_c, 1, 58, 0
3, 53580, Note_on_c, 1, 57, 90
3, 53700, Note_on_c, 1, 57, 0
3, 53700, Note_on_c, 1, 55, 90
3, 53760, Note_on_c, 1, 55, 0
3, 53760, Note_on_c, 1, 55, 90
3, 54060, Note_on_c, 1, 55, 0
3, 54060, Note_on_c, 1, 63, 64
3, 54120, Note_on_c, 1, 63, 0
3, 54120, Note_on_c, 1, 62, 90
3, 54180, Note_on_c, 1, 62, 0
3, 54180, Note_on_c, 1, 60, 90
3, 54240, Note_on_c, 1, 60, 0
3, 54240, Note_on_c, 1, 62, 90
3, 54600, Note_on_c, 1, 62, 0
3, 54600, Note_on_c, 1, 54, 90
3, 54720, Note_on_c, 1, 54, 0
3, 54720, Note_on_c, 1, 55, 64
3, 54840, Note_on_c, 1, 55, 0
3, 54840, Note_on_c, 1, 63, 64
3, 54960, Note_on_c, 1, 63, 0
3, 54960, Note_on_c, 1, 60, 64
3, 55080, Note_on_c, 1, 60, 0
3, 55080, Note_on_c, 1, 62, 64
3, 55200, Note_on_c, 1, 62, 0
3, 55200, Note_on_c, 1, 67, 64
3, 55320, Note_on_c, 1, 67, 0
3, 55320, Note_on_c, 1, 65, 64
3, 55440, Note_on_c, 1, 65, 0
3, 55440, Note_on_c, 1, 63, 64
3, 55560, Note_on_c, 1, 63, 0
3, 55560, Note_on_c, 1, 60, 64
3, 55680, Note_on_c, 1, 60, 0
3, 55680, Note_on_c, 1, 67, 64
3, 55740, Note_on_c, 1, 67, 0
3, 55740, Note_on_c, 1, 65, 64
3, 55800, Note_on_c, 1, 65, 0
3, 55800, Note_on_c, 1, 63, 64
3, 55860, Note_on_c, 1, 63, 0
3, 55860, Note_on_c, 1, 62, 64
3, 55920, Note_on_c, 1, 62, 0
3, 55920, Note_on_c, 1, 63, 64
3, 55980, Note_on_c, 1, 63, 0
3, 55980, Note_on_c, 1, 67, 64
3, 56040, Note_on_c, 1, 67, 0
3, 56040, Note_on_c, 1, 66, 64
3, 56100, Note_on_c, 1, 66, 0
3, 56100, Note_on_c, 1, 67, 64
3, 56160, Note_on_c, 1, 67, 0
3, 56160, Note_on_c, 1, 66, 64
3, 56220, Note_on_c, 1, 66, 0
3, 56220, Note_on_c, 1, 69, 64
3, 56280, Note_on_c, 1, 69, 0
3, 56280, Note_on_c, 1, 67, 64
3, 56340, Note_on_c, 1, 67, 0
3, 56340, Note_on_c, 1, 69, 64
3, 56400, Note_on_c, 1, 69, 0
3, 56400, Note_on_c, 1, 70, 64
3, 56460, Note_on_c, 1, 70, 0
3, 56460, Note_on_c, 1, 69, 64
3, 56520, Note_on_c, 1, 69, 0
3, 56520, Note_on_c, 1, 67, 64
3, 56580, Note_on_c, 1, 67, 0
3, 56580, Note_on_c, 1, 66, 64
3, 56640, Note_on_c, 1, 66, 0
3, 56640, Note_on_c, 1, 67, 64
3, 57000, Note_on_c, 1, 67, 0
3, 57000, Note_on_c, 1, 65, 64
3, 57240, Note_on_c, 1, 65, 0
3, 57240, Note_on_c, 1, 63, 64
3, 57300, Note_on_c, 1, 63, 0
3, 57300, Note_on_c, 1, 62, 64
3, 57360, Note_on_c, 1, 62, 0
3, 57360, Note_on_c, 1, 63, 64
3, 57480, Note_on_c, 1, 63, 0
3, 57480, Note_on_c, 1, 68, 64
3, 57600, Note_on_c, 1, 68, 0
3, 57600, Note_on_c, 1, 62, 64
3, 57720, Note_on_c, 1, 62, 0
3, 57720, Note_on_c, 1, 65, 64
3, 57840, Note_on_c, 1, 65, 0
3, 57840, Note_on_c, 1, 67, 64
3, 57960, Note_on_c, 1, 67, 0
3, 57960, Note_on_c, 1, 55, 64
3, 58080, Note_on_c, 1, 55, 0
3, 58080, Note_on_c, 1, 60, 64
3, 58200, Note_on_c, 1, 60, 0
3, 58200, Note_on_c, 1, 63, 64
3, 58320, Note_on_c, 1, 63, 0
3, 58320, Note_on_c, 1, 62, 64
3, 58440, Note_on_c, 1, 62, 0
3, 58440, Note_on_c, 1, 59, 64
3, 58560, Note_on_c, 1, 59, 0
3, 58560, Note_on_c, 1, 48, 85
3, 58560, Note_on_c, 1, 60, 85
3, 58620, Note_on_c, 1, 48, 0
3, 58620, Note_on_c, 1, 51, 85
3, 58680, Note_on_c, 1, 51, 0
3, 58680, Note_on_c, 1, 50, 85
3, 58740, Note_on_c, 1, 50, 0
3, 58740, Note_on_c, 1, 51, 85
3, 58800, Note_on_c, 1, 51, 0
3, 58800, Note_on_c, 1, 48, 85
3, 58860, Note_on_c, 1, 60, 0
3, 58860, Note_on_c, 1, 55, 85
3, 58920, Note_on_c, 1, 55, 0
3, 58920, Note_on_c, 1, 48, 0
3, 58920, Note_on_c, 1, 51, 85
3, 58920, Note_on_c, 1, 60, 85
3, 58980, Note_on_c, 1, 60, 0
3, 58980, Note_on_c, 1, 55, 85
3, 59040, Note_on_c, 1, 55, 0
3, 59040, Note_on_c, 1, 51, 0
3, 59040, Note_on_c, 1, 50, 85
3, 59040, Note_on_c, 1, 60, 85
3, 59100, Note_on_c, 1, 60, 0
3, 59100, Note_on_c, 1, 53, 85
3, 59160, Note_on_c, 1, 53, 0
3, 59160, Note_on_c, 1, 60, 85
3, 59220, Note_on_c, 1, 60, 0
3, 59220, Note_on_c, 1, 53, 85
3, 59280, Note_on_c, 1, 53, 0
3, 59280, Note_on_c, 1, 50, 0
3, 59280, Note_on_c, 1, 43, 85
3, 59280, Note_on_c, 1, 59, 85
3, 59340, Note_on_c, 1, 59, 0
3, 59340, Note_on_c, 1, 55, 85
3, 59400, Note_on_c, 1, 55, 0
3, 59400, Note_on_c, 1, 59, 85
3, 59460, Note_on_c, 1, 59, 0
3, 59460, Note_on_c, 1, 55, 85
3, 59520, Note_on_c, 1, 55, 0
3, 59520, Note_on_c, 1, 43, 0
3, 59520, Note_on_c, 1, 48, 85
3, 59520, Note_on_c, 1, 55, 85
3, 59580, Note_on_c, 1, 48, 0
3, 59580, Note_on_c, 1, 51, 85
3, 59640, Note_on_c, 1, 51, 0
3, 59640, Note_on_c, 1, 50, 85
3, 59700, Note_on_c, 1, 50, 0
3, 59700, Note_on_c, 1, 55, 0
3, 59700, Note_on_c, 1, 51, 85
3, 59700, Note_on_c, 1, 55, 85
3, 59760, Note_on_c, 1, 55, 0
3, 59760, Note_on_c, 1, 51, 0
3, 59760, Note_on_c, 1, 50, 85
3, 59760, Note_on_c, 1, 53, 85
3, 59820, Note_on_c, 1, 50, 0
3, 59820, Note_on_c, 1, 53, 85
3, 59880, Note_on_c, 1, 53, 0
3, 59880, Note_on_c, 1, 51, 85
3, 59940, Note_on_c, 1, 51, 0
3, 59940, Note_on_c, 1, 53, 85
3, 60000, Note_on_c, 1, 53, 0
3, 60000, Note_on_c, 1, 53, 0
3, 60000, Note_on_c, 1, 51, 85
3, 60000, Note_on_c, 1, 55, 85
3, 60120, Note_on_c, 1, 55, 0
3, 60120, Note_on_c, 1, 55, 85
3, 60240, Note_on_c, 1, 51, 0
3, 60240, Note_on_c, 1, 48, 85
3, 60360, Note_on_c, 1, 55, 0
3, 60360, Note_on_c, 1, 53, 85
3, 60480, Note_on_c, 1, 53, 0
3, 60480, Note_on_c, 1, 48, 0
3, 60480, Note_on_c, 1, 51, 85
3, 60480, Note_on_c, 1, 55, 85
3, 60540, Note_on_c, 1, 51, 0
3, 60540, Note_on_c, 1, 55, 85
3, 60600, Note_on_c, 1, 55, 0
3, 60600, Note_on_c, 1, 55, 0
3, 60600, Note_on_c, 1, 53, 85
3, 60600, Note_on_c, 1, 60, 85
3, 60660, Note_on_c, 1, 53, 0
3, 60660, Note_on_c, 1, 55, 85
3, 60720, Note_on_c, 1, 55, 0
3, 60720, Note_on_c, 1, 53, 85
3, 60780, Note_on_c, 1, 53, 0
3, 60780, Note_on_c, 1, 56, 85
3, 60840, Note_on_c, 1, 56, 0
3, 60840, Note_on_c, 1, 60, 0
3, 60840, Note_on_c, 1, 55, 85
3, 60840, Note_on_c, 1, 60, 85
3, 60900, Note_on_c, 1, 55, 0
3, 60900, Note_on_c, 1, 56, 85
3, 60960, Note_on_c, 1, 56, 0
3, 60960, Note_on_c, 1, 60, 0
3, 60960, Note_on_c, 1, 55, 85
3, 60960, Note_on_c, 1, 59, 85
3, 61140, Note_on_c, 1, 55, 0
3, 61140, Note_on_c, 1, 56, 85
3, 61200, Note_on_c, 1, 56, 0
3, 61200, Note_on_c, 1, 55, 85
3, 61260, Note_on_c, 1, 55, 0
3, 61260, Note_on_c, 1, 53, 85
3, 61320, Note_on_c, 1, 53, 0
3, 61320, Note_on_c, 1, 51, 85
3, 61380, Note_on_c, 1, 51, 0
3, 61380, Note_on_c, 1, 50, 85
3, 61440, Note_on_c, 1, 50, 0
3, 61440, Note_on_c, 1, 59, 0
3, 61440, Note_on_c, 1, 48, 85
3, 61560, Note_on_c, 1, 48, 0
3, 61560, Note_on_c, 1, 56, 85
3, 61680, Note_on_c, 1, 56, 0
3, 61680, Note_on_c, 1, 53, 85
3, 61800, Note_on_c, 1, 53, 0
3, 61800, Note_on_c, 1, 55, 85
3, 62040, Note_on_c, 1, 55, 0
3, 62040, Note_on_c, 1, 54, 85
3, 62160, Note_on_c, 1, 54, 0
3, 62160, Note_on_c, 1, 55, 85
3, 62280, Note_on_c, 1, 55, 0
3, 62280, Note_on_c, 1, 50, 85
3, 62400, Note_on_c, 1, 50, 0
3, 62400, Note_on_c, 1, 51, 85
3, 62520, Note_on_c, 1, 51, 0
3, 62520, Note_on_c, 1, 47, 85
3, 62640, Note_on_c, 1, 47, 0
3, 62640, Note_on_c, 1, 48, 85
3, 62760, Note_on_c, 1, 48, 0
3, 62760, Note_on_c, 1, 55, 85
3, 62880, Note_on_c, 1, 55, 0
3, 62880, Note_on_c, 1, 54, 85
3, 63000, Note_on_c, 1, 54, 0
3, 63000, Note_on_c, 1, 55, 85
3, 63120, Note_on_c, 1, 55, 0
3, 63120, Note_on_c, 1, 60, 85
3, 63240, Note_on_c, 1, 60, 0
3, 63240, Note_on_c, 1, 62, 85
3, 63360, Note_on_c, 1, 62, 0
3, 63360, Note_on_c, 1, 63, 85
3, 63480, Note_on_c, 1, 63, 0
3, 63480, Note_on_c, 1, 58, 85
3, 63600, Note_on_c, 1, 58, 0
3, 63600, Note_on_c, 1, 60, 85
3, 63720, Note_on_c, 1, 60, 0
3, 63720, Note_on_c, 1, 58, 85
3, 63840, Note_on_c, 1, 58, 0
3, 63840, Note_on_c, 1, 56, 85
3, 63960, Note_on_c, 1, 56, 0
3, 63960, Note_on_c, 1, 55, 85
3, 63960, Note_on_c, 1, 58, 85
3, 64080, Note_on_c, 1, 58, 0
3, 64080, Note_on_c, 1, 55, 0
3, 64080, Note_on_c, 1, 56, 85
3, 64080, Note_on_c, 1, 53, 85
3, 64200, Note_on_c, 1, 53, 0
3, 64200, Note_on_c, 1, 56, 0
3, 64200, Note_on_c, 1, 51, 85
3, 64200, Note_on_c, 1, 55, 85
3, 64320, Note_on_c, 1, 55, 0
3, 64320, Note_on_c, 1, 51, 0
3, 64320, Note_on_c, 1, 53, 85
3, 64320, Note_on_c, 1, 50, 85
3, 64560, Note_on_c, 1, 50, 0
3, 64560, Note_on_c, 1, 53, 0
3, 64560, Note_on_c, 1, 55, 85
3, 64560, Note_on_c, 1, 43, 85
3, 64680, Note_on_c, 1, 55, 0
3, 64680, Note_on_c, 1, 53, 85
3, 64800, Note_on_c, 1, 53, 0
3, 64800, Note_on_c, 1, 43, 0
3, 64800, Note_on_c, 1, 51, 85
3, 64800, Note_on_c, 1, 48, 85
3, 65040, Note_on_c, 1, 48, 0
3, 65040, Note_on_c, 1, 51, 0
3, 65040, Note_on_c, 1, 36, 85
3, 65160, Note_on_c, 1, 55, 85
3, 65280, Note_on_c, 1, 55, 0
3, 65280, Note_on_c, 1, 36, 0
3, 65280, Note_on_c, 1, 55, 85
3, 65280, Note_on_c, 1, 43, 85
3, 65340, Note_on_c, 1, 43, 0
3, 65340, Note_on_c, 1, 47, 85
3, 65400, Note_on_c, 1, 47, 0
3, 65400, Note_on_c, 1, 45, 85
3, 65460, Note_on_c, 1, 45, 0
3, 65460, Note_on_c, 1, 47, 85
3, 65520, Note_on_c, 1, 47, 0
3, 65520, Note_on_c, 1, 55, 0
3, 65520, Note_on_c, 1, 55, 85
3, 65520, Note_on_c, 1, 43, 85
3, 65580, Note_on_c, 1, 43, 0
3, 65580, Note_on_c, 1, 47, 85
3, 65640, Note_on_c, 1, 47, 0
3, 65640, Note_on_c, 1, 45, 85
3, 65700, Note_on_c, 1, 45, 0
3, 65700, Note_on_c, 1, 47, 85
3, 65760, Note_on_c, 1, 47, 0
3, 65760, Note_on_c, 1, 55, 0
3, 65760, Note_on_c, 1, 55, 85
3, 66000, Note_on_c, 1, 55, 0
3, 66120, Note_on_c, 1, 60, 85
3, 66120, Note_on_c, 1, 55, 85
3, 66240, Note_on_c, 1, 55, 0
3, 66240, Note_on_c, 1, 60, 0
3, 66240, Note_on_c, 1, 53, 100
3, 66240, Note_on_c, 1, 56, 100
3, 66360, Note_on_c, 1, 56, 0
3, 66360, Note_on_c, 1, 53, 0
3, 66360, Note_on_c, 1, 53, 100
3, 66360, Note_on_c, 1, 56, 100
3, 66480, Note_on_c, 1, 56, 0
3, 66480, Note_on_c, 1, 53, 0
3, 66480, Note_on_c, 1, 50, 100
3, 66480, Note_on_c, 1, 55, 100
3, 66600, Note_on_c, 1, 55, 0
3, 66600, Note_on_c, 1, 50, 0
3, 66600, Note_on_c, 1, 50, 100
3, 66600, Note_on_c, 1, 55, 100
3, 66720, Note_on_c, 1, 55, 0
3, 66720, Note_on_c, 1, 50, 0
3, 66720, Note_on_c, 1, 51, 100
3, 66720, Note_on_c, 1, 55, 100
3, 66840, Note_on_c, 1, 55, 0
3, 66840, Note_on_c, 1, 51, 0
3, 66960, Note_on_c, 1, 62, 100
3, 66960, Note_on_c, 1, 59, 100
3, 67080, Note_on_c, 1, 59, 0
3, 67080, Note_on_c, 1, 62, 0
3, 67200, Note_on_c, 1, 55, 100
3, 67200, Note_on_c, 1, 60, 100
3, 67320, Note_on_c, 1, 60, 0
3, 67320, Note_on_c, 1, 55, 0
3, 67320, Note_on_c, 1, 53, 100
3, 67320, Note_on_c, 1, 55, 100
3, 67320, Note_on_c, 1, 59, 100
3, 67440, Note_on_c, 1, 59, 0
3, 67440, Note_on_c, 1, 55, 0
3, 67440, Note_on_c, 1, 53, 0
3, 67440, Note_on_c, 1, 51, 100
3, 67440, Note_on_c, 1, 55, 100
3, 67440, Note_on_c, 1, 60, 100
3, 67560, Note_on_c, 1, 60, 0
3, 67560, Note_on_c, 1, 55, 0
3, 67560, Note_on_c, 1, 51, 0
3, 67560, Note_on_c, 1, 50, 100
3, 67560, Note_on_c, 1, 53, 100
3, 67560, Note_on_c, 1, 59, 100
3, 67680, Note_on_c, 1, 59, 0
3, 67680, Note_on_c, 1, 53, 0
3, 67680, Note_on_c, 1, 50, 0
3, 67680, Note_on_c, 1, 63, 100
3, 67680, Note_on_c, 1, 60, 100
3, 67680, Note_on_c, 1, 55, 100
3, 67800, Note_on_c, 1, 55, 0
3, 67800, Note_on_c, 1, 60, 0
3, 67800, Note_on_c, 1, 63, 0
3, 67920, Note_on_c, 1, 60, 100
3, 67920, Note_on_c, 1, 56, 100
3, 68040, Note_on_c, 1, 56, 0
3, 68040, Note_on_c, 1, 60, 0
3, 68160, Note_on_c, 1, 59, 100
3, 68160, Note_on_c, 1, 55, 100
3, 68280, Note_on_c, 1, 55, 0
3, 68280, Note_on_c, 1, 59, 0
3, 68640, Note_on_c, 1, 60, 100
3, 68640, Note_on_c, 1, 55, 100
3, 68760, Note_on_c, 1, 55, 0
3, 68760, Note_on_c, 1, 60, 0
3, 69120, Note_on_c, 1, 60, 100
3, 69120, Note_on_c, 1, 56, 100
3, 69240, Note_on_c, 1, 56, 0
3, 69240, Note_on_c, 1, 60, 0
3, 69600, Note_on_c, 1, 62, 100
3, 69600, Note_on_c, 1, 56, 100
3, 69720, Note_on_c, 1, 56, 0
3, 69720, Note_on_c, 1, 62, 0
3, 70080, Note_on_c, 1, 62, 100
3, 70080, Note_on_c, 1, 59, 100
3, 70080, Note_on_c, 1, 55, 100
3, 70200, Note_on_c, 1, 55, 0
3, 70200, Note_on_c, 1, 59, 0
3, 70200, Note_on_c, 1, 62, 0
3, 70560, Note_on_c, 1, 60, 100
3, 70560, Note_on_c, 1, 55, 100
3, 70560, Note_on_c, 1, 51, 100
3, 70656, Note_on_c, 1, 51, 0
3, 70656, Note_on_c, 1, 55, 0
3, 70656, Note_on_c, 1, 60, 0
3, 70680, Note_on_c, 1, 62, 100
3, 70680, Note_on_c, 1, 56, 100
3, 70680, Note_on_c, 1, 53, 100
3, 70776, Note_on_c, 1, 53, 0
3, 70776, Note_on_c, 1, 56, 0
3, 70776, Note_on_c, 1, 62, 0
3, 70800, Note_on_c, 1, 59, 100
3, 70800, Note_on_c, 1, 55, 100
3, 70800, Note_on_c, 1, 50, 100
3, 70992, Note_on_c, 1, 50, 0
3, 70992, Note_on_c, 1, 55, 0
3, 70992, Note_on_c, 1, 59, 0
3, 71040, Note_on_c, 1, 60, 100
3, 71040, Note_on_c, 1, 55, 100
3, 71040, Note_on_c, 1, 51, 100
3, 71040, Note_on_c, 1, 48, 100
3, 71160, Note_on_c, 1, 48, 0
3, 71160, Note_on_c, 1, 60, 0
3, 71160, Note_on_c, 1, 55, 0
3, 71160, Note_on_c, 1, 51, 0
3, 71400, Note_on_c, 1, 55, 100
3, 71400, Note_on_c, 1, 51, 100
3, 71520, Note_on_c, 1, 51, 0
3, 71520, Note_on_c, 1, 55, 0
3, 71520, Note_on_c, 1, 55, 100
3, 71520, Note_on_c, 1, 53, 100
3, 71520, Note_on_c, 1, 50, 100
3, 71640, Note_on_c, 1, 50, 0
3, 71640, Note_on_c, 1, 53, 0
3, 71640, Note_on_c, 1, 55, 0
3, 71760, Note_on_c, 1, 55, 100
3, 71760, Note_on_c, 1, 50, 100
3, 71880, Note_on_c, 1, 50, 0
3, 71880, Note_on_c, 1, 55, 0
3, 72000, Note_on_c, 1, 55, 100
3, 72000, Note_on_c, 1, 48, 100
3, 72120, Note_on_c, 1, 48, 0
3, 72120, Note_on_c, 1, 55, 0
3, 74880, Note_on_c, 1, 60, 100
3, 74880, Note_on_c, 1, 55, 100
3, 75000, Note_on_c, 1, 55, 0
3, 75000, Note_on_c, 1, 60, 0
3, 75360, Note_on_c, 1, 59, 100
3, 75360, Note_on_c, 1, 55, 100
3, 75480, Note_on_c, 1, 55, 0
3, 75480, Note_on_c, 1, 59, 0
3, 75840, Note_on_c, 1, 55, 100
3, 75840, Note_on_c, 1, 51, 100
3, 75960, Note_on_c, 1, 51, 0
3, 75960, Note_on_c, 1, 55, 0
3, 76320, Note_on_c, 1, 56, 100
3, 76320, Note_on_c, 1, 53, 100
3, 76440, Note_on_c, 1, 53, 0
3, 76440, Note_on_c, 1, 56, 0
3, 76800, Note_on_c, 1, 50, 100
3, 76800, Note_on_c, 1, 55, 100
3, 76920, Note_on_c, 1, 55, 0
3, 76920, Note_on_c, 1, 50, 0
3, 77760, Note_on_c, 1, 62, 100
3, 77820, Note_on_c, 1, 62, 0
3, 77820, Note_on_c, 1, 63, 100
3, 77880, Note_on_c, 1, 63, 0
3, 77880, Note_on_c, 1, 62, 100
3, 77940, Note_on_c, 1, 62, 0
3, 77940, Note_on_c, 1, 60, 100
3, 78000, Note_on_c, 1, 60, 0
3, 78000, Note_on_c, 1, 59, 100
3, 78060, Note_on_c, 1, 59, 0
3, 78060, Note_on_c, 1, 62, 100
3, 78120, Note_on_c, 1, 62, 0
3, 78120, Note_on_c, 1, 59, 100
3, 78180, Note_on_c, 1, 59, 0
3, 78180, Note_on_c, 1, 62, 100
3, 78240, Note_on_c, 1, 62, 0
3, 78240, Note_on_c, 1, 55, 100
3, 78300, Note_on_c, 1, 55, 0
3, 78300, Note_on_c, 1, 56, 100
3, 78360, Note_on_c, 1, 56, 0
3, 78360, Note_on_c, 1, 55, 100
3, 78420, Note_on_c, 1, 55, 0
3, 78420, Note_on_c, 1, 53, 100
3, 78480, Note_on_c, 1, 53, 0
3, 78480, Note_on_c, 1, 51, 100
3, 78540, Note_on_c, 1, 51, 0
3, 78540, Note_on_c, 1, 56, 100
3, 78600, Note_on_c, 1, 56, 0
3, 78600, Note_on_c, 1, 51, 100
3, 78660, Note_on_c, 1, 51, 0
3, 78660, Note_on_c, 1, 56, 100
3, 78720, Note_on_c, 1, 56, 0
3, 78720, Note_on_c, 1, 53, 100
3, 78780, Note_on_c, 1, 53, 0
3, 78780, Note_on_c, 1, 55, 100
3, 78840, Note_on_c, 1, 55, 0
3, 78840, Note_on_c, 1, 53, 100
3, 78900, Note_on_c, 1, 53, 0
3, 78900, Note_on_c, 1, 51, 100
3, 78960, Note_on_c, 1, 51, 0
3, 78960, Note_on_c, 1, 50, 100
3, 79020, Note_on_c, 1, 50, 0
3, 79020, Note_on_c, 1, 53, 100
3, 79080, Note_on_c, 1, 53, 0
3, 79080, Note_on_c, 1, 50, 100
3, 79140, Note_on_c, 1, 50, 0
3, 79140, Note_on_c, 1, 53, 100
3, 79200, Note_on_c, 1, 53, 0
3, 79200, Note_on_c, 1, 51, 100
3, 79260, Note_on_c, 1, 51, 0
3, 79260, Note_on_c, 1, 53, 100
3, 79320, Note_on_c, 1, 53, 0
3, 79320, Note_on_c, 1, 55, 100
3, 79380, Note_on_c, 1, 55, 0
3, 79380, Note_on_c, 1, 51, 100
3, 79440, Note_on_c, 1, 51, 0
3, 79440, Note_on_c, 1, 50, 100
3, 79500, Note_on_c, 1, 50, 0
3, 79500, Note_on_c, 1, 59, 100
3, 79560, Note_on_c, 1, 59, 0
3, 79560, Note_on_c, 1, 55, 100
3, 79620, Note_on_c, 1, 55, 0
3, 79620, Note_on_c, 1, 59, 100
3, 79680, Note_on_c, 1, 59, 0
3, 79680, Note_on_c, 1, 60, 100
3, 79740, Note_on_c, 1, 60, 0
3, 79740, Note_on_c, 1, 58, 100
3, 79800, Note_on_c, 1, 58, 0
3, 79800, Note_on_c, 1, 57, 100
3, 79860, Note_on_c, 1, 57, 0
3, 79860, Note_on_c, 1, 60, 100
3, 79920, Note_on_c, 1, 60, 0
3, 79920, Note_on_c, 1, 59, 100
3, 79980, Note_on_c, 1, 59, 0
3, 79980, Note_on_c, 1, 60, 100
3, 80040, Note_on_c, 1, 60, 0
3, 80040, Note_on_c, 1, 62, 100
3, 80100, Note_on_c, 1, 62, 0
3, 80100, Note_on_c, 1, 59, 100
3, 80160, Note_on_c, 1, 59, 0
3, 80160, Note_on_c, 1, 57, 100
3, 80220, Note_on_c, 1, 57, 0
3, 80220, Note_on_c, 1, 55, 100
3, 80280, Note_on_c, 1, 55, 0
3, 80280, Note_on_c, 1, 54, 100
3, 80340, Note_on_c, 1, 54, 0
3, 80340, Note_on_c, 1, 57, 100
3, 80400, Note_on_c, 1, 57, 0
3, 80400, Note_on_c, 1, 55, 100
3, 80430, Note_on_c, 1, 55, 0
3, 80430, Note_on_c, 1, 50, 100
3, 80460, Note_on_c, 1, 50, 0
3, 80460, Note_on_c, 1, 47, 100
3, 80490, Note_on_c, 1, 47, 0
3, 80490, Note_on_c, 1, 50, 100
3, 80520, Note_on_c, 1, 50, 0
3, 80520, Note_on_c, 1, 43, 100
3, 80580, Note_on_c, 1, 43, 0
3, 80580, Note_on_c, 1, 41, 100
3, 80640, Note_on_c, 1, 41, 0
3, 80880, Note_on_c, 1, 55, 100
3, 80880, Note_on_c, 1, 52, 100
3, 80880, Note_on_c, 1, 48, 100
3, 81120, Note_on_c, 1, 48, 0
3, 81120, Note_on_c, 1, 52, 0
3, 81120, Note_on_c, 1, 55, 0
3, 81150, Note_on_c, 1, 48, 100
3, 81180, Note_on_c, 1, 48, 0
3, 81180, Note_on_c, 1, 50, 100
3, 81210, Note_on_c, 1, 50, 0
3, 81210, Note_on_c, 1, 52, 100
3, 81240, Note_on_c, 1, 52, 0
3, 81240, Note_on_c, 1, 53, 100
3, 81270, Note_on_c, 1, 53, 0
3, 81270, Note_on_c, 1, 55, 100
3, 81300, Note_on_c, 1, 55, 0
3, 81300, Note_on_c, 1, 57, 100
3, 81330, Note_on_c, 1, 57, 0
3, 81330, Note_on_c, 1, 59, 100
3, 81360, Note_on_c, 1, 59, 0
3, 81360, Note_on_c, 1, 60, 100
3, 81390, Note_on_c, 1, 60, 0
3, 83670, Note_on_c, 1, 62, 100
3, 83700, Note_on_c, 1, 62, 0
3, 83700, Note_on_c, 1, 60, 100
3, 83730, Note_on_c, 1, 60, 0
3, 83730, Note_on_c, 1, 59, 100
3, 83760, Note_on_c, 1, 59, 0
3, 83760, Note_on_c, 1, 60, 100
3, 83790, Note_on_c, 1, 56, 100
3, 83820, Note_on_c, 1, 56, 0
3, 83820, Note_on_c, 1, 55, 100
3, 83850, Note_on_c, 1, 55, 0
3, 83850, Note_on_c, 1, 53, 100
3, 83880, Note_on_c, 1, 53, 0
3, 83880, Note_on_c, 1, 55, 100
3, 83910, Note_on_c, 1, 55, 0
3, 83910, Note_on_c, 1, 52, 100
3, 83940, Note_on_c, 1, 52, 0
3, 83940, Note_on_c, 1, 53, 100
3, 83970, Note_on_c, 1, 53, 0
3, 83970, Note_on_c, 1, 55, 100
3, 84000, Note_on_c, 1, 48, 100
3, 84000, Note_on_c, 1, 52, 100
3, 84480, Note_on_c, 1, 52, 0
3, 84480, Note_on_c, 1, 60, 0
3, 84480, Note_on_c, 1, 55, 0
3, 84480, Note_on_c, 1, 48, 0
3, 84480, End_track
4, 0, Start_track
4, 0, MIDI_port, 0
4, 0, Title_t, "Johann Sebastian Bach   (1685-1750)"
4, 0, Program_c, 2, 19
4, 0, Control_c, 2, 7, 100
4, 0, Control_c, 2, 10, 64
4, 0, Note_on_c, 2, 36, 95
4, 30, Note_on_c, 2, 36, 0
4, 30, Note_on_c, 2, 35, 95
4, 60, Note_on_c, 2, 35, 0
4, 60, Note_on_c, 2, 36, 95
4, 240, Note_on_c, 2, 36, 0
4, 300, Note_on_c, 2, 31, 95
4, 360, Note_on_c, 2, 31, 0
4, 360, Note_on_c, 2, 36, 95
4, 420, Note_on_c, 2, 36, 0
4, 420, Note_on_c, 2, 35, 95
4, 480, Note_on_c, 2, 35, 0
4, 480, Note_on_c, 2, 36, 95
4, 510, Note_on_c, 2, 36, 0
4, 510, Note_on_c, 2, 35, 95
4, 540, Note_on_c, 2, 35, 0
4, 540, Note_on_c, 2, 36, 95
4, 720, Note_on_c, 2, 36, 0
4, 780, Note_on_c, 2, 36, 95
4, 840, Note_on_c, 2, 36, 0
4, 840, Note_on_c, 2, 39, 95
4, 900, Note_on_c, 2, 39, 0
4, 900, Note_on_c, 2, 38, 95
4, 960, Note_on_c, 2, 38, 0
4, 960, Note_on_c, 2, 39, 95
4, 990, Note_on_c, 2, 39, 0
4, 990, Note_on_c, 2, 38, 95
4, 1020, Note_on_c, 2, 38, 0
4, 1020, Note_on_c, 2, 39, 95
4, 1200, Note_on_c, 2, 39, 0
4, 1260, Note_on_c, 2, 39, 95
4, 1320, Note_on_c, 2, 39, 0
4, 1320, Note_on_c, 2, 43, 95
4, 1380, Note_on_c, 2, 43, 0
4, 1380, Note_on_c, 2, 41, 95
4, 1440, Note_on_c, 2, 41, 0
4, 1440, Note_on_c, 2, 43, 95
4, 1470, Note_on_c, 2, 43, 0
4, 1470, Note_on_c, 2, 41, 95
4, 1500, Note_on_c, 2, 41, 0
4, 1500, Note_on_c, 2, 43, 95
4, 1680, Note_on_c, 2, 43, 0
4, 1740, Note_on_c, 2, 43, 95
4, 1800, Note_on_c, 2, 43, 0
4, 1800, Note_on_c, 2, 48, 95
4, 1860, Note_on_c, 2, 48, 0
4, 1860, Note_on_c, 2, 47, 95
4, 1920, Note_on_c, 2, 47, 0
4, 1920, Note_on_c, 2, 48, 95
4, 1950, Note_on_c, 2, 48, 0
4, 1950, Note_on_c, 2, 47, 95
4, 1980, Note_on_c, 2, 47, 0
4, 1980, Note_on_c, 2, 48, 95
4, 2160, Note_on_c, 2, 48, 0
4, 2220, Note_on_c, 2, 48, 95
4, 2280, Note_on_c, 2, 48, 0
4, 2280, Note_on_c, 2, 43, 95
4, 2340, Note_on_c, 2, 43, 0
4, 2340, Note_on_c, 2, 46, 95
4, 2400, Note_on_c, 2, 46, 0
4, 2400, Note_on_c, 2, 44, 95
4, 2460, Note_on_c, 2, 44, 0
4, 2460, Note_on_c, 2, 48, 95
4, 2520, Note_on_c, 2, 48, 0
4, 2520, Note_on_c, 2, 41, 95
4, 2580, Note_on_c, 2, 41, 0
4, 2580, Note_on_c, 2, 44, 95
4, 2640, Note_on_c, 2, 44, 0
4, 2640, Note_on_c, 2, 38, 95
4, 2700, Note_on_c, 2, 38, 0
4, 2700, Note_on_c, 2, 46, 95
4, 2760, Note_on_c, 2, 46, 0
4, 2760, Note_on_c, 2, 44, 95
4, 2820, Note_on_c, 2, 44, 0
4, 2820, Note_on_c, 2, 46, 95
4, 2880, Note_on_c, 2, 46, 0
4, 2880, Note_on_c, 2, 43, 95
4, 2940, Note_on_c, 2, 43, 0
4, 2940, Note_on_c, 2, 46, 95
4, 3000, Note_on_c, 2, 46, 0
4, 3000, Note_on_c, 2, 39, 95
4, 3060, Note_on_c, 2, 39, 0
4, 3060, Note_on_c, 2, 43, 95
4, 3120, Note_on_c, 2, 43, 0
4, 3120, Note_on_c, 2, 36, 95
4, 3180, Note_on_c, 2, 36, 0
4, 3180, Note_on_c, 2, 44, 95
4, 3240, Note_on_c, 2, 44, 0
4, 3240, Note_on_c, 2, 43, 95
4, 3300, Note_on_c, 2, 43, 0
4, 3300, Note_on_c, 2, 44, 95
4, 3360, Note_on_c, 2, 44, 0
4, 3360, Note_on_c, 2, 41, 95
4, 3420, Note_on_c, 2, 41, 0
4, 3420, Note_on_c, 2, 44, 95
4, 3480, Note_on_c, 2, 44, 0
4, 3480, Note_on_c, 2, 38, 95
4, 3540, Note_on_c, 2, 38, 0
4, 3540, Note_on_c, 2, 41, 95
4, 3600, Note_on_c, 2, 41, 0
4, 3600, Note_on_c, 2, 35, 95
4, 3660, Note_on_c, 2, 35, 0
4, 3660, Note_on_c, 2, 43, 95
4, 3720, Note_on_c, 2, 43, 0
4, 3720, Note_on_c, 2, 41, 95
4, 3780, Note_on_c, 2, 41, 0
4, 3780, Note_on_c, 2, 43, 95
4, 3840, Note_on_c, 2, 43, 0
4, 3840, Note_on_c, 2, 39, 95
4, 3900, Note_on_c, 2, 39, 0
4, 3900, Note_on_c, 2, 43, 95
4, 3960, Note_on_c, 2, 43, 0
4, 3960, Note_on_c, 2, 41, 95
4, 4020, Note_on_c, 2, 41, 0
4, 4020, Note_on_c, 2, 43, 95
4, 4080, Note_on_c, 2, 43, 0
4, 4080, Note_on_c, 2, 38, 95
4, 4140, Note_on_c, 2, 38, 0
4, 4140, Note_on_c, 2, 43, 95
4, 4200, Note_on_c, 2, 43, 0
4, 4200, Note_on_c, 2, 41, 95
4, 4260, Note_on_c, 2, 41, 0
4, 4260, Note_on_c, 2, 43, 95
4, 4320, Note_on_c, 2, 43, 0
4, 4320, Note_on_c, 2, 39, 95
4, 4380, Note_on_c, 2, 39, 0
4, 4380, Note_on_c, 2, 43, 95
4, 4440, Note_on_c, 2, 43, 0
4, 4440, Note_on_c, 2, 36, 95
4, 4500, Note_on_c, 2, 36, 0
4, 4500, Note_on_c, 2, 41, 95
4, 4560, Note_on_c, 2, 41, 0
4, 4560, Note_on_c, 2, 38, 95
4, 4620, Note_on_c, 2, 38, 0
4, 4620, Note_on_c, 2, 41, 95
4, 4680, Note_on_c, 2, 41, 0
4, 4680, Note_on_c, 2, 34, 95
4, 4740, Note_on_c, 2, 34, 0
4, 4740, Note_on_c, 2, 39, 95
4, 4800, Note_on_c, 2, 39, 0
4, 4800, Note_on_c, 2, 36, 95
4, 4860, Note_on_c, 2, 36, 0
4, 4860, Note_on_c, 2, 39, 95
4, 4920, Note_on_c, 2, 39, 0
4, 4920, Note_on_c, 2, 33, 95
4, 4980, Note_on_c, 2, 33, 0
4, 4980, Note_on_c, 2, 38, 95
4, 5040, Note_on_c, 2, 38, 0
4, 5040, Note_on_c, 2, 34, 95
4, 5100, Note_on_c, 2, 34, 0
4, 5100, Note_on_c, 2, 38, 95
4, 5160, Note_on_c, 2, 38, 0
4, 5160, Note_on_c, 2, 31, 95
4, 5220, Note_on_c, 2, 31, 0
4, 5220, Note_on_c, 2, 36, 95
4, 5280, Note_on_c, 2, 36, 0
4, 5280, Note_on_c, 2, 32, 95
4, 5340, Note_on_c, 2, 32, 0
4, 5340, Note_on_c, 2, 36, 95
4, 5400, Note_on_c, 2, 36, 0
4, 5400, Note_on_c, 2, 29, 95
4, 5460, Note_on_c, 2, 29, 0
4, 5460, Note_on_c, 2, 34, 95
4, 5520, Note_on_c, 2, 34, 0
4, 5520, Note_on_c, 2, 31, 95
4, 5580, Note_on_c, 2, 31, 0
4, 5580, Note_on_c, 2, 34, 95
4, 5640, Note_on_c, 2, 34, 0
4, 5640, Note_on_c, 2, 27, 95
4, 5700, Note_on_c, 2, 27, 0
4, 5700, Note_on_c, 2, 39, 95
4, 5760, Note_on_c, 2, 39, 0
4, 5760, Note_on_c, 2, 36, 95
4, 5820, Note_on_c, 2, 36, 0
4, 5820, Note_on_c, 2, 39, 95
4, 5880, Note_on_c, 2, 39, 0
4, 5880, Note_on_c, 2, 32, 95
4, 5940, Note_on_c, 2, 32, 0
4, 5940, Note_on_c, 2, 41, 95
4, 6000, Note_on_c, 2, 41, 0
4, 6000, Note_on_c, 2, 38, 95
4, 6060, Note_on_c, 2, 38, 0
4, 6060, Note_on_c, 2, 41, 95
4, 6120, Note_on_c, 2, 41, 0
4, 6120, Note_on_c, 2, 35, 95
4, 6180, Note_on_c, 2, 35, 0
4, 6180, Note_on_c, 2, 43, 95
4, 6240, Note_on_c, 2, 43, 0
4, 6240, Note_on_c, 2, 39, 95
4, 6300, Note_on_c, 2, 39, 0
4, 6300, Note_on_c, 2, 43, 95
4, 6360, Note_on_c, 2, 43, 0
4, 6360, Note_on_c, 2, 36, 95
4, 6420, Note_on_c, 2, 36, 0
4, 6420, Note_on_c, 2, 45, 95
4, 6480, Note_on_c, 2, 45, 0
4, 6480, Note_on_c, 2, 38, 95
4, 6540, Note_on_c, 2, 38, 0
4, 6540, Note_on_c, 2, 47, 95
4, 6600, Note_on_c, 2, 47, 0
4, 6600, Note_on_c, 2, 39, 95
4, 6660, Note_on_c, 2, 39, 0
4, 6660, Note_on_c, 2, 48, 95
4, 6720, Note_on_c, 2, 48, 0
4, 6720, Note_on_c, 2, 41, 95
4, 6780, Note_on_c, 2, 41, 0
4, 6780, Note_on_c, 2, 44, 95
4, 6840, Note_on_c, 2, 44, 0
4, 6840, Note_on_c, 2, 38, 95
4, 6900, Note_on_c, 2, 38, 0
4, 6900, Note_on_c, 2, 41, 95
4, 6960, Note_on_c, 2, 41, 0
4, 6960, Note_on_c, 2, 39, 95
4, 7020, Note_on_c, 2, 39, 0
4, 7020, Note_on_c, 2, 43, 95
4, 7080, Note_on_c, 2, 43, 0
4, 7080, Note_on_c, 2, 36, 95
4, 7140, Note_on_c, 2, 36, 0
4, 7140, Note_on_c, 2, 39, 95
4, 7200, Note_on_c, 2, 39, 0
4, 7200, Note_on_c, 2, 29, 95
4, 7260, Note_on_c, 2, 29, 0
4, 7260, Note_on_c, 2, 44, 95
4, 7320, Note_on_c, 2, 44, 0
4, 7320, Note_on_c, 2, 43, 95
4, 7380, Note_on_c, 2, 43, 0
4, 7380, Note_on_c, 2, 41, 95
4, 7440, Note_on_c, 2, 41, 0
4, 7440, Note_on_c, 2, 43, 95
4, 7470, Note_on_c, 2, 43, 0
4, 7470, Note_on_c, 2, 42, 95
4, 7500, Note_on_c, 2, 42, 0
4, 7500, Note_on_c, 2, 43, 95
4, 7560, Note_on_c, 2, 43, 0
4, 7560, Note_on_c, 2, 31, 95
4, 7680, Note_on_c, 2, 31, 0
4, 7680, Note_on_c, 2, 36, 95
4, 11040, Note_on_c, 2, 36, 0
4, 11040, Note_on_c, 2, 38, 95
4, 12480, Note_on_c, 2, 38, 0
4, 12480, Note_on_c, 2, 26, 95
4, 12960, Note_on_c, 2, 26, 0
4, 12960, Note_on_c, 2, 26, 95
4, 13020, Note_on_c, 2, 26, 0
4, 13020, Note_on_c, 2, 38, 95
4, 13080, Note_on_c, 2, 38, 0
4, 13080, Note_on_c, 2, 39, 95
4, 13140, Note_on_c, 2, 39, 0
4, 13140, Note_on_c, 2, 38, 95
4, 13200, Note_on_c, 2, 38, 0
4, 13200, Note_on_c, 2, 36, 95
4, 13260, Note_on_c, 2, 36, 0
4, 13260, Note_on_c, 2, 34, 95
4, 13320, Note_on_c, 2, 34, 0
4, 13320, Note_on_c, 2, 33, 95
4, 13380, Note_on_c, 2, 33, 0
4, 13380, Note_on_c, 2, 31, 95
4, 13440, Note_on_c, 2, 31, 0
4, 13440, Note_on_c, 2, 30, 95
4, 14400, Note_on_c, 2, 30, 0
4, 14400, Note_on_c, 2, 31, 95
4, 17280, Note_on_c, 2, 31, 0
4, 17280, Note_on_c, 2, 28, 95
4, 17760, Note_on_c, 2, 28, 0
4, 17760, Note_on_c, 2, 29, 95
4, 18720, Note_on_c, 2, 29, 0
4, 18720, Note_on_c, 2, 27, 95
4, 20160, Note_on_c, 2, 27, 0
4, 20160, Note_on_c, 2, 32, 95
4, 20640, Note_on_c, 2, 32, 0
4, 20640, Note_on_c, 2, 31, 95
4, 22560, Note_on_c, 2, 31, 0
4, 22560, Note_on_c, 2, 28, 95
4, 23040, Note_on_c, 2, 28, 0
4, 23040, Note_on_c, 2, 29, 95
4, 25440, Note_on_c, 2, 29, 0
4, 25440, Note_on_c, 2, 24, 95
4, 26880, Note_on_c, 2, 24, 0
4, 26880, Note_on_c, 2, 36, 95
4, 27360, Note_on_c, 2, 36, 0
4, 65760, Note_on_c, 2, 36, 115
4, 65820, Note_on_c, 2, 36, 0
4, 65820, Note_on_c, 2, 39, 115
4, 65880, Note_on_c, 2, 39, 0
4, 65880, Note_on_c, 2, 38, 115
4, 65940, Note_on_c, 2, 38, 0
4, 65940, Note_on_c, 2, 39, 115
4, 66000, Note_on_c, 2, 39, 0
4, 66000, Note_on_c, 2, 36, 115
4, 66120, Note_on_c, 2, 36, 0
4, 66120, Note_on_c, 2, 39, 115
4, 66240, Note_on_c, 2, 39, 0
4, 66240, Note_on_c, 2, 38, 115
4, 66480, Note_on_c, 2, 38, 0
4, 66480, Note_on_c, 2, 31, 115
4, 66720, Note_on_c, 2, 31, 0
4, 66720, Note_on_c, 2, 36, 115
4, 66780, Note_on_c, 2, 36, 0
4, 66780, Note_on_c, 2, 39, 115
4, 66840, Note_on_c, 2, 39, 0
4, 66840, Note_on_c, 2, 38, 115
4, 66900, Note_on_c, 2, 38, 0
4, 66900, Note_on_c, 2, 39, 115
4, 66960, Note_on_c, 2, 39, 0
4, 66960, Note_on_c, 2, 38, 115
4, 67020, Note_on_c, 2, 38, 0
4, 67020, Note_on_c, 2, 41, 115
4, 67080, Note_on_c, 2, 41, 0
4, 67080, Note_on_c, 2, 39, 115
4, 67140, Note_on_c, 2, 39, 0
4, 67140, Note_on_c, 2, 41, 115
4, 67200, Note_on_c, 2, 41, 0
4, 67200, Note_on_c, 2, 39, 115
4, 67440, Note_on_c, 2, 39, 0
4, 67440, Note_on_c, 2, 36, 115
4, 67680, Note_on_c, 2, 36, 0
4, 67680, Note_on_c, 2, 39, 115
4, 67740, Note_on_c, 2, 39, 0
4, 67740, Note_on_c, 2, 43, 115
4, 67800, Note_on_c, 2, 43, 0
4, 67800, Note_on_c, 2, 41, 115
4, 67860, Note_on_c, 2, 41, 0
4, 67860, Note_on_c, 2, 43, 115
4, 67920, Note_on_c, 2, 43, 0
4, 67920, Note_on_c, 2, 41, 115
4, 67980, Note_on_c, 2, 41, 0
4, 67980, Note_on_c, 2, 44, 115
4, 68040, Note_on_c, 2, 44, 0
4, 68040, Note_on_c, 2, 43, 115
4, 68100, Note_on_c, 2, 43, 0
4, 68100, Note_on_c, 2, 44, 115
4, 68160, Note_on_c, 2, 44, 0
4, 68160, Note_on_c, 2, 43, 115
4, 68220, Note_on_c, 2, 43, 0
4, 68220, Note_on_c, 2, 44, 115
4, 68280, Note_on_c, 2, 44, 0
4, 68280, Note_on_c, 2, 41, 115
4, 68340, Note_on_c, 2, 41, 0
4, 68340, Note_on_c, 2, 43, 115
4, 68400, Note_on_c, 2, 43, 0
4, 68400, Note_on_c, 2, 39, 115
4, 68460, Note_on_c, 2, 39, 0
4, 68460, Note_on_c, 2, 41, 115
4, 68520, Note_on_c, 2, 41, 0
4, 68520, Note_on_c, 2, 38, 115
4, 68580, Note_on_c, 2, 38, 0
4, 68580, Note_on_c, 2, 39, 115
4, 68640, Note_on_c, 2, 39, 0
4, 68640, Note_on_c, 2, 36, 115
4, 68700, Note_on_c, 2, 36, 0
4, 68700, Note_on_c, 2, 38, 115
4, 68760, Note_on_c, 2, 38, 0
4, 68760, Note_on_c, 2, 34, 115
4, 68820, Note_on_c, 2, 34, 0
4, 68820, Note_on_c, 2, 36, 115
4, 68880, Note_on_c, 2, 36, 0
4, 68880, Note_on_c, 2, 32, 115
4, 68940, Note_on_c, 2, 32, 0
4, 68940, Note_on_c, 2, 34, 115
4, 69000, Note_on_c, 2, 34, 0
4, 69000, Note_on_c, 2, 31, 115
4, 69060, Note_on_c, 2, 31, 0
4, 69060, Note_on_c, 2, 32, 115
4, 69120, Note_on_c, 2, 32, 0
4, 69120, Note_on_c, 2, 29, 115
4, 69180, Note_on_c, 2, 29, 0
4, 69180, Note_on_c, 2, 44, 115
4, 69240, Note_on_c, 2, 44, 0
4, 69240, Note_on_c, 2, 43, 115
4, 69300, Note_on_c, 2, 43, 0
4, 69300, Note_on_c, 2, 44, 115
4, 69360, Note_on_c, 2, 44, 0
4, 69360, Note_on_c, 2, 41, 115
4, 69420, Note_on_c, 2, 41, 0
4, 69420, Note_on_c, 2, 43, 115
4, 69480, Note_on_c, 2, 43, 0
4, 69480, Note_on_c, 2, 39, 115
4, 69540, Note_on_c, 2, 39, 0
4, 69540, Note_on_c, 2, 41, 115
4, 69600, Note_on_c, 2, 41, 0
4, 69600, Note_on_c, 2, 38, 115
4, 69660, Note_on_c, 2, 38, 0
4, 69660, Note_on_c, 2, 41, 115
4, 69720, Note_on_c, 2, 41, 0
4, 69720, Note_on_c, 2, 39, 115
4, 69780, Note_on_c, 2, 39, 0
4, 69780, Note_on_c, 2, 41, 115
4, 69840, Note_on_c, 2, 41, 0
4, 69840, Note_on_c, 2, 38, 115
4, 69900, Note_on_c, 2, 38, 0
4, 69900, Note_on_c, 2, 39, 115
4, 69960, Note_on_c, 2, 39, 0
4, 69960, Note_on_c, 2, 36, 115
4, 70020, Note_on_c, 2, 36, 0
4, 70020, Note_on_c, 2, 38, 115
4, 70080, Note_on_c, 2, 38, 0
4, 70080, Note_on_c, 2, 35, 115
4, 70140, Note_on_c, 2, 35, 0
4, 70140, Note_on_c, 2, 38, 115
4, 70200, Note_on_c, 2, 38, 0
4, 70200, Note_on_c, 2, 36, 115
4, 70260, Note_on_c, 2, 36, 0
4, 70260, Note_on_c, 2, 38, 115
4, 70320, Note_on_c, 2, 38, 0
4, 70320, Note_on_c, 2, 31, 115
4, 70380, Note_on_c, 2, 31, 0
4, 70380, Note_on_c, 2, 35, 115
4, 70440, Note_on_c, 2, 35, 0
4, 70440, Note_on_c, 2, 33, 115
4, 70500, Note_on_c, 2, 33, 0
4, 70500, Note_on_c, 2, 35, 115
4, 70560, Note_on_c, 2, 35, 0
4, 70560, Note_on_c, 2, 27, 115
4, 70680, Note_on_c, 2, 27, 0
4, 70680, Note_on_c, 2, 29, 115
4, 70800, Note_on_c, 2, 29, 0
4, 70800, Note_on_c, 2, 31, 115
4, 71040, Note_on_c, 2, 31, 0
4, 71040, Note_on_c, 2, 24, 115
4, 71160, Note_on_c, 2, 24, 0
4, 71400, Note_on_c, 2, 36, 115
4, 71520, Note_on_c, 2, 36, 0
4, 71520, Note_on_c, 2, 35, 115
4, 71640, Note_on_c, 2, 35, 0
4, 71760, Note_on_c, 2, 31, 115
4, 71880, Note_on_c, 2, 31, 0
4, 72000, Note_on_c, 2, 24, 115
4, 72120, Note_on_c, 2, 24, 0
4, 74880, Note_on_c, 2, 24, 115
4, 74940, Note_on_c, 2, 24, 0
4, 74940, Note_on_c, 2, 27, 115
4, 75000, Note_on_c, 2, 27, 0
4, 75000, Note_on_c, 2, 26, 115
4, 75060, Note_on_c, 2, 26, 0
4, 75060, Note_on_c, 2, 27, 115
4, 75120, Note_on_c, 2, 27, 0
4, 75120, Note_on_c, 2, 24, 115
4, 75180, Note_on_c, 2, 24, 0
4, 75180, Note_on_c, 2, 27, 115
4, 75240, Note_on_c, 2, 27, 0
4, 75240, Note_on_c, 2, 26, 115
4, 75300, Note_on_c, 2, 26, 0
4, 75300, Note_on_c, 2, 27, 115
4, 75360, Note_on_c, 2, 27, 0
4, 75360, Note_on_c, 2, 26, 115
4, 75420, Note_on_c, 2, 26, 0
4, 75420, Note_on_c, 2, 29, 115
4, 75480, Note_on_c, 2, 29, 0
4, 75480, Note_on_c, 2, 27, 115
4, 75540, Note_on_c, 2, 27, 0
4, 75540, Note_on_c, 2, 29, 115
4, 75600, Note_on_c, 2, 29, 0
4, 75600, Note_on_c, 2, 26, 115
4, 75660, Note_on_c, 2, 26, 0
4, 75660, Note_on_c, 2, 29, 115
4, 75720, Note_on_c, 2, 29, 0
4, 75720, Note_on_c, 2, 27, 115
4, 75780, Note_on_c, 2, 27, 0
4, 75780, Note_on_c, 2, 29, 115
4, 75840, Note_on_c, 2, 29, 0
4, 75840, Note_on_c, 2, 27, 115
4, 75900, Note_on_c, 2, 27, 0
4, 75900, Note_on_c, 2, 31, 115
4, 75960, Note_on_c, 2, 31, 0
4, 75960, Note_on_c, 2, 29, 115
4, 76020, Note_on_c, 2, 29, 0
4, 76020, Note_on_c, 2, 31, 115
4, 76080, Note_on_c, 2, 31, 0
4, 76080, Note_on_c, 2, 27, 115
4, 76140, Note_on_c, 2, 27, 0
4, 76140, Note_on_c, 2, 31, 115
4, 76200, Note_on_c, 2, 31, 0
4, 76200, Note_on_c, 2, 29, 115
4, 76260, Note_on_c, 2, 29, 0
4, 76260, Note_on_c, 2, 31, 115
4, 76320, Note_on_c, 2, 31, 0
4, 76320, Note_on_c, 2, 29, 115
4, 76380, Note_on_c, 2, 29, 0
4, 76380, Note_on_c, 2, 32, 115
4, 76440, Note_on_c, 2, 32, 0
4, 76440, Note_on_c, 2, 31, 115
4, 76500, Note_on_c, 2, 31, 0
4, 76500, Note_on_c, 2, 32, 115
4, 76560, Note_on_c, 2, 32, 0
4, 76560, Note_on_c, 2, 29, 115
4, 76620, Note_on_c, 2, 29, 0
4, 76620, Note_on_c, 2, 32, 115
4, 76680, Note_on_c, 2, 32, 0
4, 76680, Note_on_c, 2, 31, 115
4, 76740, Note_on_c, 2, 31, 0
4, 76740, Note_on_c, 2, 32, 115
4, 76800, Note_on_c, 2, 32, 0
4, 76800, Note_on_c, 2, 31, 115
4, 76920, Note_on_c, 2, 31, 0
4, 80640, Note_on_c, 2, 28, 115
4, 81120, Note_on_c, 2, 28, 0
4, 82560, Note_on_c, 2, 29, 115
4, 83040, Note_on_c, 2, 29, 0
4, 84000, Note_on_c, 2, 24, 115
4, 84480, Note_on_c, 2, 24, 0
4, 84480, End_track
5, 0, Start_track
5, 0, MIDI_port, 0
5, 0, Title_t, "Prelude and Fugue in C minor - BWV 549"
5, 0, End_track
6, 0, Start_track
6, 0, MIDI_port, 0
6, 0, Title_t, "--------------------------------------"
6, 0, End_track
7, 0, Start_track
7, 0, MIDI_port, 0
7, 0, Title_t, "sequenced by Dean Lampe  1/96"
7, 0, End_track
8, 0, Start_track
8, 0, MIDI_port, 0
8, 0, Title_t, "e-mail: dlampe@tic.bisman.com"
8, 0, End_track
9, 0, Start_track
9, 0, MIDI_port, 0
9, 0, Title_t, "http://www.bisman.com/pwp/dlampe/dlampe.html"
9, 0, End_track
10, 0, Start_track
10, 0, MIDI_port, 0
10, 0, Title_t, "--------------------------------------"
10, 0, End_track
11, 0, Start_track
11, 0, MIDI_port, 0
11, 0, Title_t, "courtesy of Dave's J.S. Bach Page"
11, 0, End_track
12, 0, Start_track
12, 0, MIDI_port, 0
12, 0, Title_t, "http://www.unpronounceable.com/bach"
12, 0, End_track
13, 0, Start_track
13, 0, MIDI_port, 0
13, 0, Title_t, "--------------------------------------"
13, 0, End_track
14, 0, Start_track
14, 0, MIDI_port, 0
14, 0, Title_t, "Original Filename: jsbwv549.mid"
14, 0, End_track
0, 0, End_of_file
