0, 0, Header, 1, 14, 240
1, 0, Start_track
1, 0, Title_t, "untitled"
1, 0, SMPTE_offset, 96, 0, 3, 0, 0
1, 0, Time_signature, 4, 2, 24, 8
1, 0, Key_signature, 0, "major"
1, 0, Tempo, 750000
1, 7200, Tempo, 789474
1, 7444, Tempo, 923077
1, 7680, Tempo, 1071429
1, 7928, Tempo, 750000
1, 8640, Tempo, 857143
1, 13920, Tempo, 731707
1, 14400, Tempo, 545455
1, 28800, Tempo, 571429
1, 29276, Tempo, 545455
1, 89764, Tempo, 566038
1, 90004, Tempo, 588235
1, 90236, Tempo, 600000
1, 90240, Tempo, 625000
1, 90480, Tempo, 652174
1, 90728, Tempo, 714286
1, 90964, Tempo, 800000
1, 91200, Tempo, 1200000
1, 91328, Tempo, 1428571
1, 91440, Tempo, 2608696
1, 91556, Tempo, 3750000
1, 91684, Tempo, 1395349
1, 92160, Tempo, 1200000
1, 92168, Tempo, 1363636
1, 92412, Tempo, 923077
1, 92640, Tempo, 1363636
1, 93600, Tempo, 1224490
1, 93660, Tempo, 1200000
1, 93676, Tempo, 1016949
1, 93968, Tempo, 1363636
1, 96000, Tempo, 1200000
1, 96004, Tempo, 1363636
1, 99840, Tempo, 1200000
1, 99844, Tempo, 1363636
1, 101288, Tempo, 1578947
1, 101760, Tempo, 1200000
1, 101764, Tempo, 1578947
1, 102720, Tempo, 750000
1, 103680, Tempo, 652174
1, 233528, Tempo, 697674
1, 233760, Tempo, 750000
1, 234000, Tempo, 800000
1, 234240, Tempo, 857143
1, 234492, Tempo, 952381
1, 234724, Tempo, 1052632
1, 234924, Tempo, 1395349
1, 234960, Tempo, 1428571
1, 234964, Tempo, 1250000
1, 234968, Tempo, 1395349
1, 235052, Tempo, 1666667
1, 235200, Tempo, 652174
1, 235200, End_track
2, 0, Start_track
2, 0, MIDI_port, 0
2, 0, Title_t, "Organ"
2, 0, Program_c, 0, 19
2, 0, Control_c, 0, 7, 100
2, 0, Control_c, 0, 10, 64
2, 0, Control_c, 0, 91, 127
2, 540, Note_on_c, 0, 69, 110
2, 600, Note_on_c, 0, 69, 0
2, 600, Note_on_c, 0, 74, 110
2, 600, Note_on_c, 0, 78, 110
2, 660, Note_on_c, 0, 66, 110
2, 720, Note_on_c, 0, 66, 0
2, 720, Note_on_c, 0, 78, 0
2, 720, Note_on_c, 0, 74, 0
2, 720, Note_on_c, 0, 69, 110
2, 720, Note_on_c, 0, 74, 110
2, 720, Note_on_c, 0, 78, 110
2, 840, Note_on_c, 0, 78, 0
2, 840, Note_on_c, 0, 74, 0
2, 840, Note_on_c, 0, 69, 0
2, 840, Note_on_c, 0, 69, 110
2, 840, Note_on_c, 0, 74, 110
2, 840, Note_on_c, 0, 78, 110
2, 960, Note_on_c, 0, 78, 0
2, 960, Note_on_c, 0, 74, 0
2, 960, Note_on_c, 0, 69, 0
2, 960, Note_on_c, 0, 69, 110
2, 960, Note_on_c, 0, 74, 110
2, 960, Note_on_c, 0, 78, 110
2, 1080, Note_on_c, 0, 78, 0
2, 1080, Note_on_c, 0, 74, 0
2, 1080, Note_on_c, 0, 69, 0
2, 1500, Note_on_c, 0, 62, 110
2, 1560, Note_on_c, 0, 62, 0
2, 1560, Note_on_c, 0, 64, 110
2, 1620, Note_on_c, 0, 64, 0
2, 1620, Note_on_c, 0, 66, 110
2, 1680, Note_on_c, 0, 66, 0
2, 1680, Note_on_c, 0, 67, 110
2, 1740, Note_on_c, 0, 67, 0
2, 1740, Note_on_c, 0, 69, 110
2, 1800, Note_on_c, 0, 69, 0
2, 1800, Note_on_c, 0, 71, 110
2, 1860, Note_on_c, 0, 71, 0
2, 1860, Note_on_c, 0, 73, 110
2, 1920, Note_on_c, 0, 73, 0
2, 1920, Note_on_c, 0, 74, 110
2, 2040, Note_on_c, 0, 74, 0
2, 2460, Note_on_c, 0, 57, 110
2, 2520, Note_on_c, 0, 57, 0
2, 2520, Note_on_c, 0, 62, 110
2, 2520, Note_on_c, 0, 66, 110
2, 2640, Note_on_c, 0, 66, 0
2, 2640, Note_on_c, 0, 62, 0
2, 2640, Note_on_c, 0, 62, 110
2, 2640, Note_on_c, 0, 66, 110
2, 2760, Note_on_c, 0, 66, 0
2, 2760, Note_on_c, 0, 62, 0
2, 2760, Note_on_c, 0, 62, 110
2, 2760, Note_on_c, 0, 66, 110
2, 2880, Note_on_c, 0, 66, 0
2, 2880, Note_on_c, 0, 62, 0
2, 2880, Note_on_c, 0, 62, 110
2, 2880, Note_on_c, 0, 66, 110
2, 3000, Note_on_c, 0, 66, 0
2, 3000, Note_on_c, 0, 62, 0
2, 3420, Note_on_c, 0, 69, 110
2, 3480, Note_on_c, 0, 69, 0
2, 3480, Note_on_c, 0, 74, 110
2, 3480, Note_on_c, 0, 78, 110
2, 3540, Note_on_c, 0, 66, 110
2, 3600, Note_on_c, 0, 66, 0
2, 3600, Note_on_c, 0, 78, 0
2, 3600, Note_on_c, 0, 74, 0
2, 3600, Note_on_c, 0, 69, 110
2, 3600, Note_on_c, 0, 74, 110
2, 3600, Note_on_c, 0, 78, 110
2, 3720, Note_on_c, 0, 78, 0
2, 3720, Note_on_c, 0, 74, 0
2, 3720, Note_on_c, 0, 69, 0
2, 3720, Note_on_c, 0, 69, 110
2, 3720, Note_on_c, 0, 74, 110
2, 3720, Note_on_c, 0, 78, 110
2, 3840, Note_on_c, 0, 78, 0
2, 3840, Note_on_c, 0, 74, 0
2, 3840, Note_on_c, 0, 69, 0
2, 3840, Note_on_c, 0, 69, 110
2, 3840, Note_on_c, 0, 74, 110
2, 3840, Note_on_c, 0, 78, 110
2, 4080, Note_on_c, 0, 78, 0
2, 4080, Note_on_c, 0, 74, 0
2, 4080, Note_on_c, 0, 69, 0
2, 4380, Note_on_c, 0, 73, 110
2, 4380, Note_on_c, 0, 76, 110
2, 4440, Note_on_c, 0, 76, 0
2, 4440, Note_on_c, 0, 73, 0
2, 4440, Note_on_c, 0, 78, 110
2, 4440, Note_on_c, 0, 74, 110
2, 4500, Note_on_c, 0, 74, 0
2, 4500, Note_on_c, 0, 78, 0
2, 4500, Note_on_c, 0, 71, 110
2, 4500, Note_on_c, 0, 80, 110
2, 4560, Note_on_c, 0, 80, 0
2, 4560, Note_on_c, 0, 71, 0
2, 4560, Note_on_c, 0, 81, 110
2, 4560, Note_on_c, 0, 73, 110
2, 4620, Note_on_c, 0, 73, 0
2, 4620, Note_on_c, 0, 81, 0
2, 4620, Note_on_c, 0, 74, 110
2, 4620, Note_on_c, 0, 71, 110
2, 4680, Note_on_c, 0, 71, 0
2, 4680, Note_on_c, 0, 74, 0
2, 4680, Note_on_c, 0, 73, 110
2, 4680, Note_on_c, 0, 69, 110
2, 4740, Note_on_c, 0, 69, 0
2, 4740, Note_on_c, 0, 73, 0
2, 4740, Note_on_c, 0, 68, 110
2, 4740, Note_on_c, 0, 71, 110
2, 4800, Note_on_c, 0, 71, 0
2, 4800, Note_on_c, 0, 68, 0
2, 4800, Note_on_c, 0, 69, 110
2, 4800, Note_on_c, 0, 73, 110
2, 4860, Note_on_c, 0, 69, 0
2, 4860, Note_on_c, 0, 64, 110
2, 4920, Note_on_c, 0, 64, 0
2, 4920, Note_on_c, 0, 73, 0
2, 4920, Note_on_c, 0, 66, 110
2, 4920, Note_on_c, 0, 74, 110
2, 4980, Note_on_c, 0, 74, 0
2, 4980, Note_on_c, 0, 66, 0
2, 4980, Note_on_c, 0, 68, 110
2, 4980, Note_on_c, 0, 71, 110
2, 5040, Note_on_c, 0, 71, 0
2, 5040, Note_on_c, 0, 68, 0
2, 5040, Note_on_c, 0, 69, 110
2, 5040, Note_on_c, 0, 73, 110
2, 5100, Note_on_c, 0, 73, 0
2, 5100, Note_on_c, 0, 69, 0
2, 5100, Note_on_c, 0, 62, 110
2, 5100, Note_on_c, 0, 71, 110
2, 5160, Note_on_c, 0, 71, 0
2, 5160, Note_on_c, 0, 62, 0
2, 5160, Note_on_c, 0, 61, 110
2, 5160, Note_on_c, 0, 69, 110
2, 5220, Note_on_c, 0, 69, 0
2, 5220, Note_on_c, 0, 61, 0
2, 5220, Note_on_c, 0, 59, 110
2, 5220, Note_on_c, 0, 68, 110
2, 5280, Note_on_c, 0, 68, 0
2, 5280, Note_on_c, 0, 59, 0
2, 5280, Note_on_c, 0, 61, 110
2, 5280, Note_on_c, 0, 69, 110
2, 5340, Note_on_c, 0, 69, 0
2, 5340, Note_on_c, 0, 64, 110
2, 5400, Note_on_c, 0, 64, 0
2, 5400, Note_on_c, 0, 61, 0
2, 5400, Note_on_c, 0, 62, 110
2, 5400, Note_on_c, 0, 66, 110
2, 5460, Note_on_c, 0, 66, 0
2, 5460, Note_on_c, 0, 62, 0
2, 5460, Note_on_c, 0, 59, 110
2, 5460, Note_on_c, 0, 68, 110
2, 5520, Note_on_c, 0, 68, 0
2, 5520, Note_on_c, 0, 59, 0
2, 5520, Note_on_c, 0, 61, 110
2, 5520, Note_on_c, 0, 69, 110
2, 5580, Note_on_c, 0, 69, 0
2, 5580, Note_on_c, 0, 61, 0
2, 5580, Note_on_c, 0, 59, 110
2, 5580, Note_on_c, 0, 62, 110
2, 5640, Note_on_c, 0, 62, 0
2, 5640, Note_on_c, 0, 59, 0
2, 5640, Note_on_c, 0, 57, 110
2, 5640, Note_on_c, 0, 61, 110
2, 5700, Note_on_c, 0, 61, 0
2, 5700, Note_on_c, 0, 57, 0
2, 5700, Note_on_c, 0, 56, 110
2, 5700, Note_on_c, 0, 59, 110
2, 5760, Note_on_c, 0, 59, 0
2, 5760, Note_on_c, 0, 56, 0
2, 5760, Note_on_c, 0, 61, 110
2, 5880, Note_on_c, 0, 61, 0
2, 5880, Note_on_c, 0, 62, 110
2, 5940, Note_on_c, 0, 62, 0
2, 5940, Note_on_c, 0, 59, 110
2, 6000, Note_on_c, 0, 59, 0
2, 6000, Note_on_c, 0, 61, 110
2, 6060, Note_on_c, 0, 61, 0
2, 6060, Note_on_c, 0, 64, 110
2, 6120, Note_on_c, 0, 64, 0
2, 6120, Note_on_c, 0, 66, 110
2, 6180, Note_on_c, 0, 66, 0
2, 6180, Note_on_c, 0, 68, 110
2, 6240, Note_on_c, 0, 68, 0
2, 6240, Note_on_c, 0, 69, 110
2, 6300, Note_on_c, 0, 69, 0
2, 6300, Note_on_c, 0, 62, 110
2, 6360, Note_on_c, 0, 62, 0
2, 6360, Note_on_c, 0, 61, 110
2, 6420, Note_on_c, 0, 61, 0
2, 6420, Note_on_c, 0, 59, 110
2, 6480, Note_on_c, 0, 59, 0
2, 6480, Note_on_c, 0, 61, 110
2, 6540, Note_on_c, 0, 61, 0
2, 6540, Note_on_c, 0, 64, 110
2, 6600, Note_on_c, 0, 64, 0
2, 6600, Note_on_c, 0, 66, 110
2, 6660, Note_on_c, 0, 66, 0
2, 6660, Note_on_c, 0, 68, 110
2, 6720, Note_on_c, 0, 68, 0
2, 6720, Note_on_c, 0, 69, 110
2, 6780, Note_on_c, 0, 69, 0
2, 6780, Note_on_c, 0, 68, 110
2, 6840, Note_on_c, 0, 68, 0
2, 6840, Note_on_c, 0, 69, 110
2, 6900, Note_on_c, 0, 69, 0
2, 6900, Note_on_c, 0, 71, 110
2, 6960, Note_on_c, 0, 71, 0
2, 6960, Note_on_c, 0, 73, 110
2, 7020, Note_on_c, 0, 73, 0
2, 7020, Note_on_c, 0, 71, 110
2, 7080, Note_on_c, 0, 71, 0
2, 7080, Note_on_c, 0, 69, 110
2, 7140, Note_on_c, 0, 69, 0
2, 7140, Note_on_c, 0, 68, 110
2, 7200, Note_on_c, 0, 68, 0
2, 7200, Note_on_c, 0, 69, 110
2, 7260, Note_on_c, 0, 69, 0
2, 7260, Note_on_c, 0, 64, 110
2, 7320, Note_on_c, 0, 64, 0
2, 7320, Note_on_c, 0, 66, 110
2, 7380, Note_on_c, 0, 66, 0
2, 7380, Note_on_c, 0, 62, 110
2, 7440, Note_on_c, 0, 62, 0
2, 7440, Note_on_c, 0, 64, 110
2, 7500, Note_on_c, 0, 64, 0
2, 7500, Note_on_c, 0, 69, 110
2, 7560, Note_on_c, 0, 69, 0
2, 7560, Note_on_c, 0, 62, 110
2, 7620, Note_on_c, 0, 62, 0
2, 7620, Note_on_c, 0, 68, 110
2, 7680, Note_on_c, 0, 68, 0
2, 7680, Note_on_c, 0, 61, 110
2, 7680, Note_on_c, 0, 64, 110
2, 7680, Note_on_c, 0, 69, 110
2, 7920, Note_on_c, 0, 69, 0
2, 7920, Note_on_c, 0, 64, 0
2, 7920, Note_on_c, 0, 61, 0
2, 8820, Note_on_c, 0, 76, 110
2, 8880, Note_on_c, 0, 76, 0
2, 8880, Note_on_c, 0, 70, 110
2, 9060, Note_on_c, 0, 70, 0
2, 9060, Note_on_c, 0, 73, 110
2, 9120, Note_on_c, 0, 73, 0
2, 9120, Note_on_c, 0, 64, 110
2, 9300, Note_on_c, 0, 64, 0
2, 9300, Note_on_c, 0, 67, 110
2, 9360, Note_on_c, 0, 67, 0
2, 9360, Note_on_c, 0, 58, 110
2, 9540, Note_on_c, 0, 58, 0
2, 9540, Note_on_c, 0, 64, 110
2, 9600, Note_on_c, 0, 64, 0
2, 9780, Note_on_c, 0, 83, 110
2, 9840, Note_on_c, 0, 83, 0
2, 9840, Note_on_c, 0, 74, 110
2, 10020, Note_on_c, 0, 74, 0
2, 10020, Note_on_c, 0, 78, 110
2, 10080, Note_on_c, 0, 78, 0
2, 10080, Note_on_c, 0, 71, 110
2, 10260, Note_on_c, 0, 71, 0
2, 10260, Note_on_c, 0, 74, 110
2, 10320, Note_on_c, 0, 74, 0
2, 10320, Note_on_c, 0, 68, 110
2, 10500, Note_on_c, 0, 68, 0
2, 10500, Note_on_c, 0, 71, 110
2, 10560, Note_on_c, 0, 71, 0
2, 10560, Note_on_c, 0, 65, 110
2, 10740, Note_on_c, 0, 74, 110
2, 10800, Note_on_c, 0, 74, 0
2, 10800, Note_on_c, 0, 71, 110
2, 10980, Note_on_c, 0, 71, 0
2, 10980, Note_on_c, 0, 74, 110
2, 11040, Note_on_c, 0, 74, 0
2, 11040, Note_on_c, 0, 68, 110
2, 11070, Note_on_c, 0, 68, 0
2, 11070, Note_on_c, 0, 71, 110
2, 11100, Note_on_c, 0, 71, 0
2, 11100, Note_on_c, 0, 68, 110
2, 11130, Note_on_c, 0, 68, 0
2, 11130, Note_on_c, 0, 71, 110
2, 11160, Note_on_c, 0, 71, 0
2, 11160, Note_on_c, 0, 68, 110
2, 11190, Note_on_c, 0, 68, 0
2, 11190, Note_on_c, 0, 71, 110
2, 11220, Note_on_c, 0, 71, 0
2, 11220, Note_on_c, 0, 68, 110
2, 11250, Note_on_c, 0, 68, 0
2, 11250, Note_on_c, 0, 71, 110
2, 11280, Note_on_c, 0, 71, 0
2, 11280, Note_on_c, 0, 68, 110
2, 11310, Note_on_c, 0, 68, 0
2, 11310, Note_on_c, 0, 71, 110
2, 11340, Note_on_c, 0, 71, 0
2, 11340, Note_on_c, 0, 68, 110
2, 11370, Note_on_c, 0, 68, 0
2, 11370, Note_on_c, 0, 71, 110
2, 11400, Note_on_c, 0, 71, 0
2, 11400, Note_on_c, 0, 68, 110
2, 11430, Note_on_c, 0, 68, 0
2, 11430, Note_on_c, 0, 71, 110
2, 11460, Note_on_c, 0, 71, 0
2, 11460, Note_on_c, 0, 68, 110
2, 11490, Note_on_c, 0, 68, 0
2, 11490, Note_on_c, 0, 71, 110
2, 11520, Note_on_c, 0, 71, 0
2, 11520, Note_on_c, 0, 68, 110
2, 11550, Note_on_c, 0, 68, 0
2, 11550, Note_on_c, 0, 71, 110
2, 11580, Note_on_c, 0, 71, 0
2, 11580, Note_on_c, 0, 68, 110
2, 11610, Note_on_c, 0, 68, 0
2, 11610, Note_on_c, 0, 71, 110
2, 11640, Note_on_c, 0, 71, 0
2, 11640, Note_on_c, 0, 68, 110
2, 11670, Note_on_c, 0, 68, 0
2, 11670, Note_on_c, 0, 71, 110
2, 11700, Note_on_c, 0, 71, 0
2, 11700, Note_on_c, 0, 68, 110
2, 11730, Note_on_c, 0, 68, 0
2, 11730, Note_on_c, 0, 71, 110
2, 11760, Note_on_c, 0, 71, 0
2, 11760, Note_on_c, 0, 68, 110
2, 11790, Note_on_c, 0, 68, 0
2, 11790, Note_on_c, 0, 71, 110
2, 11820, Note_on_c, 0, 71, 0
2, 11820, Note_on_c, 0, 68, 110
2, 11850, Note_on_c, 0, 68, 0
2, 11850, Note_on_c, 0, 71, 110
2, 11880, Note_on_c, 0, 71, 0
2, 11880, Note_on_c, 0, 68, 110
2, 11910, Note_on_c, 0, 68, 0
2, 11910, Note_on_c, 0, 71, 110
2, 11940, Note_on_c, 0, 71, 0
2, 11940, Note_on_c, 0, 68, 110
2, 11970, Note_on_c, 0, 68, 0
2, 11970, Note_on_c, 0, 71, 110
2, 12000, Note_on_c, 0, 71, 0
2, 12000, Note_on_c, 0, 68, 110
2, 12030, Note_on_c, 0, 68, 0
2, 12030, Note_on_c, 0, 71, 110
2, 12060, Note_on_c, 0, 71, 0
2, 12060, Note_on_c, 0, 68, 110
2, 12090, Note_on_c, 0, 68, 0
2, 12090, Note_on_c, 0, 71, 110
2, 12120, Note_on_c, 0, 71, 0
2, 12120, Note_on_c, 0, 68, 110
2, 12150, Note_on_c, 0, 68, 0
2, 12150, Note_on_c, 0, 71, 110
2, 12180, Note_on_c, 0, 71, 0
2, 12180, Note_on_c, 0, 68, 110
2, 12210, Note_on_c, 0, 68, 0
2, 12210, Note_on_c, 0, 71, 110
2, 12240, Note_on_c, 0, 71, 0
2, 12240, Note_on_c, 0, 68, 110
2, 12270, Note_on_c, 0, 68, 0
2, 12270, Note_on_c, 0, 71, 110
2, 12300, Note_on_c, 0, 71, 0
2, 12300, Note_on_c, 0, 68, 110
2, 12330, Note_on_c, 0, 68, 0
2, 12330, Note_on_c, 0, 71, 110
2, 12360, Note_on_c, 0, 71, 0
2, 12360, Note_on_c, 0, 68, 110
2, 12390, Note_on_c, 0, 68, 0
2, 12390, Note_on_c, 0, 71, 110
2, 12420, Note_on_c, 0, 71, 0
2, 12420, Note_on_c, 0, 68, 110
2, 12450, Note_on_c, 0, 68, 0
2, 12450, Note_on_c, 0, 71, 110
2, 12480, Note_on_c, 0, 71, 0
2, 12480, Note_on_c, 0, 68, 110
2, 12510, Note_on_c, 0, 68, 0
2, 12510, Note_on_c, 0, 71, 110
2, 12540, Note_on_c, 0, 71, 0
2, 12540, Note_on_c, 0, 68, 110
2, 12570, Note_on_c, 0, 68, 0
2, 12570, Note_on_c, 0, 71, 110
2, 12600, Note_on_c, 0, 71, 0
2, 12600, Note_on_c, 0, 68, 110
2, 12660, Note_on_c, 0, 68, 0
2, 12660, Note_on_c, 0, 65, 0
2, 12660, Note_on_c, 0, 68, 110
2, 12660, Note_on_c, 0, 71, 110
2, 12720, Note_on_c, 0, 71, 0
2, 12720, Note_on_c, 0, 68, 0
2, 12720, Note_on_c, 0, 66, 110
2, 12720, Note_on_c, 0, 70, 110
2, 12900, Note_on_c, 0, 70, 0
2, 12900, Note_on_c, 0, 66, 0
2, 12900, Note_on_c, 0, 65, 110
2, 12900, Note_on_c, 0, 68, 110
2, 12960, Note_on_c, 0, 68, 0
2, 12960, Note_on_c, 0, 65, 0
2, 12960, Note_on_c, 0, 66, 110
2, 12960, Note_on_c, 0, 70, 110
2, 13140, Note_on_c, 0, 70, 0
2, 13140, Note_on_c, 0, 66, 0
2, 13140, Note_on_c, 0, 62, 110
2, 13140, Note_on_c, 0, 68, 110
2, 13200, Note_on_c, 0, 68, 0
2, 13200, Note_on_c, 0, 62, 0
2, 13200, Note_on_c, 0, 61, 110
2, 13200, Note_on_c, 0, 66, 110
2, 13380, Note_on_c, 0, 66, 0
2, 13380, Note_on_c, 0, 61, 0
2, 13380, Note_on_c, 0, 59, 110
2, 13380, Note_on_c, 0, 65, 110
2, 13440, Note_on_c, 0, 65, 0
2, 13440, Note_on_c, 0, 59, 0
2, 13440, Note_on_c, 0, 66, 110
2, 13440, Note_on_c, 0, 61, 110
2, 13680, Note_on_c, 0, 61, 0
2, 13680, Note_on_c, 0, 66, 0
2, 14160, Note_on_c, 0, 64, 110
2, 14190, Note_on_c, 0, 64, 0
2, 14190, Note_on_c, 0, 66, 110
2, 14220, Note_on_c, 0, 66, 0
2, 14220, Note_on_c, 0, 67, 110
2, 14250, Note_on_c, 0, 67, 0
2, 14250, Note_on_c, 0, 69, 110
2, 14280, Note_on_c, 0, 69, 0
2, 14280, Note_on_c, 0, 71, 110
2, 14310, Note_on_c, 0, 71, 0
2, 14310, Note_on_c, 0, 73, 110
2, 14340, Note_on_c, 0, 73, 0
2, 14340, Note_on_c, 0, 74, 110
2, 14370, Note_on_c, 0, 74, 0
2, 14370, Note_on_c, 0, 76, 110
2, 14400, Note_on_c, 0, 76, 0
2, 14400, Note_on_c, 0, 66, 110
2, 14400, Note_on_c, 0, 69, 110
2, 14400, Note_on_c, 0, 74, 110
2, 14400, Note_on_c, 0, 78, 110
2, 14880, Note_on_c, 0, 78, 0
2, 14880, Note_on_c, 0, 66, 0
2, 14880, Note_on_c, 0, 69, 0
2, 14880, Note_on_c, 0, 74, 0
2, 15120, Note_on_c, 0, 66, 90
2, 15120, Note_on_c, 0, 69, 90
2, 15360, Note_on_c, 0, 69, 0
2, 15360, Note_on_c, 0, 71, 90
2, 15480, Note_on_c, 0, 66, 0
2, 15480, Note_on_c, 0, 66, 90
2, 15600, Note_on_c, 0, 66, 0
2, 15600, Note_on_c, 0, 64, 90
2, 15840, Note_on_c, 0, 71, 0
2, 15840, Note_on_c, 0, 69, 90
2, 16080, Note_on_c, 0, 64, 0
2, 16080, Note_on_c, 0, 66, 90
2, 16200, Note_on_c, 0, 69, 0
2, 16200, Note_on_c, 0, 74, 90
2, 16320, Note_on_c, 0, 74, 0
2, 16320, Note_on_c, 0, 66, 0
2, 16320, Note_on_c, 0, 67, 90
2, 16320, Note_on_c, 0, 76, 90
2, 16440, Note_on_c, 0, 76, 0
2, 16440, Note_on_c, 0, 78, 90
2, 16560, Note_on_c, 0, 78, 0
2, 16560, Note_on_c, 0, 67, 0
2, 16560, Note_on_c, 0, 69, 90
2, 16560, Note_on_c, 0, 79, 90
2, 16680, Note_on_c, 0, 79, 0
2, 16680, Note_on_c, 0, 81, 90
2, 16800, Note_on_c, 0, 81, 0
2, 16800, Note_on_c, 0, 78, 90
2, 16920, Note_on_c, 0, 69, 0
2, 16920, Note_on_c, 0, 73, 90
2, 17040, Note_on_c, 0, 73, 0
2, 17040, Note_on_c, 0, 71, 90
2, 17160, Note_on_c, 0, 71, 0
2, 17160, Note_on_c, 0, 69, 90
2, 17280, Note_on_c, 0, 69, 0
2, 17280, Note_on_c, 0, 78, 0
2, 17280, Note_on_c, 0, 68, 90
2, 17280, Note_on_c, 0, 71, 90
2, 17400, Note_on_c, 0, 68, 0
2, 17400, Note_on_c, 0, 64, 90
2, 17520, Note_on_c, 0, 64, 0
2, 17520, Note_on_c, 0, 71, 0
2, 17520, Note_on_c, 0, 69, 90
2, 17640, Note_on_c, 0, 73, 90
2, 17760, Note_on_c, 0, 73, 0
2, 17760, Note_on_c, 0, 74, 90
2, 17880, Note_on_c, 0, 74, 0
2, 17880, Note_on_c, 0, 78, 90
2, 18000, Note_on_c, 0, 78, 0
2, 18000, Note_on_c, 0, 69, 0
2, 18000, Note_on_c, 0, 68, 90
2, 18000, Note_on_c, 0, 76, 90
2, 18120, Note_on_c, 0, 76, 0
2, 18120, Note_on_c, 0, 74, 90
2, 18240, Note_on_c, 0, 74, 0
2, 18240, Note_on_c, 0, 68, 0
2, 18240, Note_on_c, 0, 69, 90
2, 18240, Note_on_c, 0, 73, 90
2, 18360, Note_on_c, 0, 73, 0
2, 18360, Note_on_c, 0, 69, 90
2, 18456, Note_on_c, 0, 69, 0
2, 18480, Note_on_c, 0, 69, 0
2, 18480, Note_on_c, 0, 69, 90
2, 18600, Note_on_c, 0, 69, 90
2, 18672, Note_on_c, 0, 69, 0
2, 18696, Note_on_c, 0, 69, 0
2, 18720, Note_on_c, 0, 67, 90
2, 18720, Note_on_c, 0, 71, 90
2, 18840, Note_on_c, 0, 71, 0
2, 18840, Note_on_c, 0, 74, 90
2, 18960, Note_on_c, 0, 74, 0
2, 18960, Note_on_c, 0, 67, 0
2, 18960, Note_on_c, 0, 64, 90
2, 18960, Note_on_c, 0, 67, 90
2, 19080, Note_on_c, 0, 67, 0
2, 19080, Note_on_c, 0, 71, 90
2, 19200, Note_on_c, 0, 71, 0
2, 19200, Note_on_c, 0, 69, 90
2, 19320, Note_on_c, 0, 69, 0
2, 19320, Note_on_c, 0, 73, 90
2, 19440, Note_on_c, 0, 73, 0
2, 19440, Note_on_c, 0, 64, 0
2, 19440, Note_on_c, 0, 62, 90
2, 19440, Note_on_c, 0, 66, 90
2, 19560, Note_on_c, 0, 66, 0
2, 19560, Note_on_c, 0, 69, 90
2, 19680, Note_on_c, 0, 69, 0
2, 19680, Note_on_c, 0, 67, 90
2, 19800, Note_on_c, 0, 67, 0
2, 19800, Note_on_c, 0, 71, 90
2, 19920, Note_on_c, 0, 71, 0
2, 19920, Note_on_c, 0, 62, 0
2, 19920, Note_on_c, 0, 61, 90
2, 19920, Note_on_c, 0, 64, 90
2, 20040, Note_on_c, 0, 64, 0
2, 20040, Note_on_c, 0, 67, 90
2, 20160, Note_on_c, 0, 67, 0
2, 20160, Note_on_c, 0, 61, 0
2, 20160, Note_on_c, 0, 62, 90
2, 20160, Note_on_c, 0, 66, 90
2, 20280, Note_on_c, 0, 66, 0
2, 20280, Note_on_c, 0, 62, 90
2, 20400, Note_on_c, 0, 62, 0
2, 20400, Note_on_c, 0, 62, 0
2, 20400, Note_on_c, 0, 64, 90
2, 20520, Note_on_c, 0, 69, 90
2, 20640, Note_on_c, 0, 69, 0
2, 20640, Note_on_c, 0, 64, 0
2, 20640, Note_on_c, 0, 66, 90
2, 20640, Note_on_c, 0, 74, 90
2, 20760, Note_on_c, 0, 74, 0
2, 20760, Note_on_c, 0, 78, 90
2, 20880, Note_on_c, 0, 78, 0
2, 20880, Note_on_c, 0, 66, 0
2, 20880, Note_on_c, 0, 64, 90
2, 20880, Note_on_c, 0, 71, 90
2, 21000, Note_on_c, 0, 71, 0
2, 21000, Note_on_c, 0, 74, 90
2, 21120, Note_on_c, 0, 74, 0
2, 21120, Note_on_c, 0, 64, 0
2, 21120, Note_on_c, 0, 64, 90
2, 21120, Note_on_c, 0, 73, 90
2, 21240, Note_on_c, 0, 73, 0
2, 21240, Note_on_c, 0, 69, 90
2, 21360, Note_on_c, 0, 69, 0
2, 21360, Note_on_c, 0, 64, 0
2, 21360, Note_on_c, 0, 69, 90
2, 21360, Note_on_c, 0, 74, 90
2, 21600, Note_on_c, 0, 69, 0
2, 21600, Note_on_c, 0, 71, 90
2, 21840, Note_on_c, 0, 71, 0
2, 21840, Note_on_c, 0, 74, 0
2, 21840, Note_on_c, 0, 67, 90
2, 21840, Note_on_c, 0, 73, 90
2, 22080, Note_on_c, 0, 67, 0
2, 22080, Note_on_c, 0, 69, 90
2, 22320, Note_on_c, 0, 69, 0
2, 22320, Note_on_c, 0, 73, 0
2, 22320, Note_on_c, 0, 71, 90
2, 22320, Note_on_c, 0, 66, 90
2, 22560, Note_on_c, 0, 66, 0
2, 22560, Note_on_c, 0, 67, 90
2, 22800, Note_on_c, 0, 67, 0
2, 22800, Note_on_c, 0, 71, 0
2, 22800, Note_on_c, 0, 70, 90
2, 22800, Note_on_c, 0, 64, 90
2, 23040, Note_on_c, 0, 64, 0
2, 23040, Note_on_c, 0, 70, 0
2, 23040, Note_on_c, 0, 71, 90
2, 23040, Note_on_c, 0, 66, 90
2, 23280, Note_on_c, 0, 66, 0
2, 23280, Note_on_c, 0, 71, 0
2, 23280, Note_on_c, 0, 66, 90
2, 23400, Note_on_c, 0, 74, 90
2, 23520, Note_on_c, 0, 74, 0
2, 23520, Note_on_c, 0, 66, 0
2, 23520, Note_on_c, 0, 76, 90
2, 23520, Note_on_c, 0, 67, 90
2, 23640, Note_on_c, 0, 76, 0
2, 23640, Note_on_c, 0, 79, 90
2, 23760, Note_on_c, 0, 79, 0
2, 23760, Note_on_c, 0, 67, 0
2, 23760, Note_on_c, 0, 73, 90
2, 23760, Note_on_c, 0, 66, 90
2, 23880, Note_on_c, 0, 73, 0
2, 23880, Note_on_c, 0, 76, 90
2, 24000, Note_on_c, 0, 76, 0
2, 24000, Note_on_c, 0, 66, 0
2, 24000, Note_on_c, 0, 74, 90
2, 24000, Note_on_c, 0, 66, 90
2, 24120, Note_on_c, 0, 74, 0
2, 24120, Note_on_c, 0, 71, 90
2, 24240, Note_on_c, 0, 71, 0
2, 24240, Note_on_c, 0, 66, 0
2, 24240, Note_on_c, 0, 78, 90
2, 24240, Note_on_c, 0, 69, 90
2, 24480, Note_on_c, 0, 69, 0
2, 24480, Note_on_c, 0, 68, 90
2, 24720, Note_on_c, 0, 78, 0
2, 24720, Note_on_c, 0, 77, 90
2, 24960, Note_on_c, 0, 77, 0
2, 24960, Note_on_c, 0, 68, 0
2, 24960, Note_on_c, 0, 78, 90
2, 24960, Note_on_c, 0, 69, 90
2, 25152, Note_on_c, 0, 69, 0
2, 25152, Note_on_c, 0, 78, 0
2, 25200, Note_on_c, 0, 78, 90
2, 25200, Note_on_c, 0, 69, 90
2, 25440, Note_on_c, 0, 69, 0
2, 25440, Note_on_c, 0, 78, 0
2, 25440, Note_on_c, 0, 76, 90
2, 25440, Note_on_c, 0, 71, 90
2, 25680, Note_on_c, 0, 71, 0
2, 25680, Note_on_c, 0, 67, 90
2, 25920, Note_on_c, 0, 67, 0
2, 25920, Note_on_c, 0, 76, 0
2, 25920, Note_on_c, 0, 74, 90
2, 25920, Note_on_c, 0, 69, 90
2, 26160, Note_on_c, 0, 69, 0
2, 26160, Note_on_c, 0, 66, 90
2, 26400, Note_on_c, 0, 66, 0
2, 26400, Note_on_c, 0, 74, 0
2, 26400, Note_on_c, 0, 73, 90
2, 26400, Note_on_c, 0, 67, 90
2, 26640, Note_on_c, 0, 67, 0
2, 26640, Note_on_c, 0, 64, 90
2, 26880, Note_on_c, 0, 64, 0
2, 26880, Note_on_c, 0, 73, 0
2, 26880, Note_on_c, 0, 71, 90
2, 26880, Note_on_c, 0, 66, 90
2, 27120, Note_on_c, 0, 66, 0
2, 27120, Note_on_c, 0, 62, 90
2, 27360, Note_on_c, 0, 62, 0
2, 27360, Note_on_c, 0, 71, 0
2, 27360, Note_on_c, 0, 69, 90
2, 27360, Note_on_c, 0, 64, 90
2, 27600, Note_on_c, 0, 64, 0
2, 27600, Note_on_c, 0, 61, 90
2, 27840, Note_on_c, 0, 61, 0
2, 27840, Note_on_c, 0, 69, 0
2, 27840, Note_on_c, 0, 62, 90
2, 27840, Note_on_c, 0, 67, 90
2, 28080, Note_on_c, 0, 62, 0
2, 28080, Note_on_c, 0, 64, 90
2, 28320, Note_on_c, 0, 67, 0
2, 28320, Note_on_c, 0, 66, 90
2, 28560, Note_on_c, 0, 64, 0
2, 28560, Note_on_c, 0, 62, 90
2, 28800, Note_on_c, 0, 66, 0
2, 28800, Note_on_c, 0, 64, 90
2, 29040, Note_on_c, 0, 62, 0
2, 29040, Note_on_c, 0, 61, 90
2, 29280, Note_on_c, 0, 61, 0
2, 29280, Note_on_c, 0, 64, 0
2, 29280, Note_on_c, 0, 62, 90
2, 29280, Note_on_c, 0, 62, 90
2, 29520, Note_on_c, 0, 62, 0
2, 29520, Note_on_c, 0, 62, 0
2, 29520, Note_on_c, 0, 78, 90
2, 29520, Note_on_c, 0, 74, 90
2, 29760, Note_on_c, 0, 78, 0
2, 29760, Note_on_c, 0, 76, 90
2, 30000, Note_on_c, 0, 74, 0
2, 30000, Note_on_c, 0, 73, 90
2, 30240, Note_on_c, 0, 76, 0
2, 30240, Note_on_c, 0, 74, 90
2, 30480, Note_on_c, 0, 73, 0
2, 30480, Note_on_c, 0, 71, 90
2, 30720, Note_on_c, 0, 74, 0
2, 30720, Note_on_c, 0, 73, 90
2, 30960, Note_on_c, 0, 71, 0
2, 30960, Note_on_c, 0, 70, 90
2, 31200, Note_on_c, 0, 70, 0
2, 31200, Note_on_c, 0, 73, 0
2, 31200, Note_on_c, 0, 71, 90
2, 31200, Note_on_c, 0, 71, 90
2, 31440, Note_on_c, 0, 71, 0
2, 31440, Note_on_c, 0, 71, 0
2, 31440, Note_on_c, 0, 73, 90
2, 31440, Note_on_c, 0, 81, 90
2, 31680, Note_on_c, 0, 73, 0
2, 31680, Note_on_c, 0, 71, 90
2, 31920, Note_on_c, 0, 71, 0
2, 31920, Note_on_c, 0, 81, 0
2, 31920, Note_on_c, 0, 71, 90
2, 31920, Note_on_c, 0, 80, 90
2, 32160, Note_on_c, 0, 71, 0
2, 32160, Note_on_c, 0, 69, 90
2, 32400, Note_on_c, 0, 69, 0
2, 32400, Note_on_c, 0, 80, 0
2, 32400, Note_on_c, 0, 69, 90
2, 32400, Note_on_c, 0, 78, 90
2, 32640, Note_on_c, 0, 69, 0
2, 32640, Note_on_c, 0, 68, 90
2, 32880, Note_on_c, 0, 78, 0
2, 32880, Note_on_c, 0, 77, 90
2, 33120, Note_on_c, 0, 77, 0
2, 33120, Note_on_c, 0, 68, 0
2, 33120, Note_on_c, 0, 66, 90
2, 33120, Note_on_c, 0, 78, 90
2, 33360, Note_on_c, 0, 78, 0
2, 33360, Note_on_c, 0, 66, 0
2, 33360, Note_on_c, 0, 74, 90
2, 33480, Note_on_c, 0, 66, 90
2, 33600, Note_on_c, 0, 66, 0
2, 33600, Note_on_c, 0, 67, 90
2, 33720, Note_on_c, 0, 67, 0
2, 33720, Note_on_c, 0, 71, 90
2, 33840, Note_on_c, 0, 71, 0
2, 33840, Note_on_c, 0, 74, 0
2, 33840, Note_on_c, 0, 64, 90
2, 33840, Note_on_c, 0, 73, 90
2, 33960, Note_on_c, 0, 64, 0
2, 33960, Note_on_c, 0, 67, 90
2, 34080, Note_on_c, 0, 67, 0
2, 34080, Note_on_c, 0, 66, 90
2, 34200, Note_on_c, 0, 66, 0
2, 34200, Note_on_c, 0, 69, 90
2, 34320, Note_on_c, 0, 69, 0
2, 34320, Note_on_c, 0, 73, 0
2, 34320, Note_on_c, 0, 62, 90
2, 34320, Note_on_c, 0, 71, 90
2, 34440, Note_on_c, 0, 62, 0
2, 34440, Note_on_c, 0, 66, 90
2, 34560, Note_on_c, 0, 66, 0
2, 34560, Note_on_c, 0, 64, 90
2, 34680, Note_on_c, 0, 64, 0
2, 34680, Note_on_c, 0, 67, 90
2, 34800, Note_on_c, 0, 67, 0
2, 34800, Note_on_c, 0, 71, 0
2, 34800, Note_on_c, 0, 61, 90
2, 34800, Note_on_c, 0, 70, 90
2, 34920, Note_on_c, 0, 61, 0
2, 34920, Note_on_c, 0, 64, 90
2, 35040, Note_on_c, 0, 64, 0
2, 35040, Note_on_c, 0, 70, 0
2, 35040, Note_on_c, 0, 62, 90
2, 35040, Note_on_c, 0, 71, 90
2, 35160, Note_on_c, 0, 71, 0
2, 35160, Note_on_c, 0, 74, 90
2, 35280, Note_on_c, 0, 74, 0
2, 35280, Note_on_c, 0, 62, 0
2, 35280, Note_on_c, 0, 61, 90
2, 35280, Note_on_c, 0, 70, 90
2, 35400, Note_on_c, 0, 70, 0
2, 35400, Note_on_c, 0, 73, 90
2, 35520, Note_on_c, 0, 73, 0
2, 35520, Note_on_c, 0, 61, 0
2, 35520, Note_on_c, 0, 62, 90
2, 35520, Note_on_c, 0, 71, 90
2, 35640, Note_on_c, 0, 71, 0
2, 35640, Note_on_c, 0, 74, 90
2, 35760, Note_on_c, 0, 74, 0
2, 35760, Note_on_c, 0, 62, 0
2, 35760, Note_on_c, 0, 64, 90
2, 35760, Note_on_c, 0, 70, 90
2, 35880, Note_on_c, 0, 70, 0
2, 35880, Note_on_c, 0, 73, 90
2, 36000, Note_on_c, 0, 73, 0
2, 36000, Note_on_c, 0, 64, 0
2, 36000, Note_on_c, 0, 66, 90
2, 36000, Note_on_c, 0, 71, 90
2, 36120, Note_on_c, 0, 71, 0
2, 36120, Note_on_c, 0, 74, 90
2, 36240, Note_on_c, 0, 74, 0
2, 36240, Note_on_c, 0, 66, 0
2, 36240, Note_on_c, 0, 64, 90
2, 36240, Note_on_c, 0, 70, 90
2, 36360, Note_on_c, 0, 70, 0
2, 36360, Note_on_c, 0, 73, 90
2, 36480, Note_on_c, 0, 73, 0
2, 36480, Note_on_c, 0, 64, 0
2, 36480, Note_on_c, 0, 66, 90
2, 36480, Note_on_c, 0, 71, 90
2, 36600, Note_on_c, 0, 71, 0
2, 36600, Note_on_c, 0, 74, 90
2, 36720, Note_on_c, 0, 74, 0
2, 36720, Note_on_c, 0, 66, 0
2, 36720, Note_on_c, 0, 64, 90
2, 36720, Note_on_c, 0, 70, 90
2, 36840, Note_on_c, 0, 70, 0
2, 36840, Note_on_c, 0, 73, 90
2, 36960, Note_on_c, 0, 73, 0
2, 36960, Note_on_c, 0, 64, 0
2, 36960, Note_on_c, 0, 66, 90
2, 36960, Note_on_c, 0, 71, 90
2, 37080, Note_on_c, 0, 71, 0
2, 37080, Note_on_c, 0, 74, 90
2, 37200, Note_on_c, 0, 74, 0
2, 37200, Note_on_c, 0, 66, 0
2, 37200, Note_on_c, 0, 61, 90
2, 37200, Note_on_c, 0, 70, 90
2, 37320, Note_on_c, 0, 70, 0
2, 37320, Note_on_c, 0, 73, 90
2, 37440, Note_on_c, 0, 73, 0
2, 37440, Note_on_c, 0, 61, 0
2, 37440, Note_on_c, 0, 62, 90
2, 37440, Note_on_c, 0, 71, 90
2, 37560, Note_on_c, 0, 71, 0
2, 37560, Note_on_c, 0, 74, 90
2, 37680, Note_on_c, 0, 74, 0
2, 37680, Note_on_c, 0, 62, 0
2, 37680, Note_on_c, 0, 64, 90
2, 37680, Note_on_c, 0, 70, 90
2, 37800, Note_on_c, 0, 70, 0
2, 37800, Note_on_c, 0, 73, 90
2, 37920, Note_on_c, 0, 73, 0
2, 37920, Note_on_c, 0, 64, 0
2, 37920, Note_on_c, 0, 66, 90
2, 37920, Note_on_c, 0, 71, 90
2, 38040, Note_on_c, 0, 71, 0
2, 38040, Note_on_c, 0, 69, 90
2, 38100, Note_on_c, 0, 69, 0
2, 38100, Note_on_c, 0, 71, 90
2, 38160, Note_on_c, 0, 71, 0
2, 38160, Note_on_c, 0, 73, 90
2, 38280, Note_on_c, 0, 66, 0
2, 38280, Note_on_c, 0, 65, 90
2, 38400, Note_on_c, 0, 65, 0
2, 38400, Note_on_c, 0, 73, 0
2, 38400, Note_on_c, 0, 66, 90
2, 38400, Note_on_c, 0, 73, 90
2, 38520, Note_on_c, 0, 66, 0
2, 38520, Note_on_c, 0, 69, 90
2, 38640, Note_on_c, 0, 69, 0
2, 38640, Note_on_c, 0, 73, 0
2, 38640, Note_on_c, 0, 65, 90
2, 38640, Note_on_c, 0, 73, 90
2, 38760, Note_on_c, 0, 65, 0
2, 38760, Note_on_c, 0, 68, 90
2, 38880, Note_on_c, 0, 68, 0
2, 38880, Note_on_c, 0, 73, 0
2, 38880, Note_on_c, 0, 66, 90
2, 38880, Note_on_c, 0, 73, 90
2, 39000, Note_on_c, 0, 66, 0
2, 39000, Note_on_c, 0, 69, 90
2, 39120, Note_on_c, 0, 69, 0
2, 39120, Note_on_c, 0, 73, 0
2, 39120, Note_on_c, 0, 65, 90
2, 39120, Note_on_c, 0, 73, 90
2, 39240, Note_on_c, 0, 65, 0
2, 39240, Note_on_c, 0, 68, 90
2, 39360, Note_on_c, 0, 68, 0
2, 39360, Note_on_c, 0, 73, 0
2, 39360, Note_on_c, 0, 66, 90
2, 39360, Note_on_c, 0, 73, 90
2, 39480, Note_on_c, 0, 66, 0
2, 39480, Note_on_c, 0, 69, 90
2, 39600, Note_on_c, 0, 69, 0
2, 39600, Note_on_c, 0, 73, 0
2, 39600, Note_on_c, 0, 65, 90
2, 39600, Note_on_c, 0, 73, 90
2, 39720, Note_on_c, 0, 65, 0
2, 39720, Note_on_c, 0, 68, 90
2, 39840, Note_on_c, 0, 68, 0
2, 39840, Note_on_c, 0, 73, 0
2, 39840, Note_on_c, 0, 66, 90
2, 39840, Note_on_c, 0, 73, 90
2, 39960, Note_on_c, 0, 66, 0
2, 39960, Note_on_c, 0, 69, 90
2, 40080, Note_on_c, 0, 69, 0
2, 40080, Note_on_c, 0, 73, 0
2, 40080, Note_on_c, 0, 65, 90
2, 40080, Note_on_c, 0, 73, 90
2, 40200, Note_on_c, 0, 65, 0
2, 40200, Note_on_c, 0, 68, 90
2, 40320, Note_on_c, 0, 68, 0
2, 40320, Note_on_c, 0, 73, 0
2, 40320, Note_on_c, 0, 73, 90
2, 40320, Note_on_c, 0, 66, 90
2, 40440, Note_on_c, 0, 66, 0
2, 40440, Note_on_c, 0, 69, 90
2, 40560, Note_on_c, 0, 69, 0
2, 40560, Note_on_c, 0, 73, 0
2, 40560, Note_on_c, 0, 73, 90
2, 40560, Note_on_c, 0, 65, 90
2, 40680, Note_on_c, 0, 65, 0
2, 40680, Note_on_c, 0, 68, 90
2, 40800, Note_on_c, 0, 68, 0
2, 40800, Note_on_c, 0, 73, 0
2, 40800, Note_on_c, 0, 73, 90
2, 40800, Note_on_c, 0, 66, 90
2, 40920, Note_on_c, 0, 66, 0
2, 40920, Note_on_c, 0, 69, 90
2, 41040, Note_on_c, 0, 69, 0
2, 41040, Note_on_c, 0, 73, 0
2, 41040, Note_on_c, 0, 73, 90
2, 41040, Note_on_c, 0, 65, 90
2, 41160, Note_on_c, 0, 65, 0
2, 41160, Note_on_c, 0, 68, 90
2, 41280, Note_on_c, 0, 68, 0
2, 41280, Note_on_c, 0, 73, 0
2, 41280, Note_on_c, 0, 73, 90
2, 41280, Note_on_c, 0, 66, 90
2, 41400, Note_on_c, 0, 66, 0
2, 41400, Note_on_c, 0, 69, 90
2, 41520, Note_on_c, 0, 69, 0
2, 41520, Note_on_c, 0, 73, 0
2, 41520, Note_on_c, 0, 74, 90
2, 41520, Note_on_c, 0, 68, 90
2, 41640, Note_on_c, 0, 68, 0
2, 41640, Note_on_c, 0, 66, 90
2, 41760, Note_on_c, 0, 66, 0
2, 41760, Note_on_c, 0, 74, 0
2, 41760, Note_on_c, 0, 68, 90
2, 41760, Note_on_c, 0, 65, 90
2, 41880, Note_on_c, 0, 65, 0
2, 41880, Note_on_c, 0, 61, 90
2, 42000, Note_on_c, 0, 61, 0
2, 42000, Note_on_c, 0, 68, 0
2, 42000, Note_on_c, 0, 68, 90
2, 42120, Note_on_c, 0, 73, 90
2, 42240, Note_on_c, 0, 73, 0
2, 42240, Note_on_c, 0, 68, 0
2, 42240, Note_on_c, 0, 74, 90
2, 42240, Note_on_c, 0, 69, 90
2, 42480, Note_on_c, 0, 69, 0
2, 42480, Note_on_c, 0, 74, 0
2, 42480, Note_on_c, 0, 73, 90
2, 42480, Note_on_c, 0, 68, 90
2, 42720, Note_on_c, 0, 68, 0
2, 42720, Note_on_c, 0, 73, 0
2, 42720, Note_on_c, 0, 74, 90
2, 42720, Note_on_c, 0, 69, 90
2, 42960, Note_on_c, 0, 69, 0
2, 42960, Note_on_c, 0, 74, 0
2, 42960, Note_on_c, 0, 73, 90
2, 42960, Note_on_c, 0, 68, 90
2, 43200, Note_on_c, 0, 68, 0
2, 43200, Note_on_c, 0, 73, 0
2, 43200, Note_on_c, 0, 69, 90
2, 43200, Note_on_c, 0, 74, 90
2, 43440, Note_on_c, 0, 74, 0
2, 43440, Note_on_c, 0, 69, 0
2, 43440, Note_on_c, 0, 68, 90
2, 43440, Note_on_c, 0, 73, 90
2, 43680, Note_on_c, 0, 73, 0
2, 43680, Note_on_c, 0, 68, 0
2, 43680, Note_on_c, 0, 66, 90
2, 43680, Note_on_c, 0, 71, 90
2, 43920, Note_on_c, 0, 71, 0
2, 43920, Note_on_c, 0, 66, 0
2, 43920, Note_on_c, 0, 64, 90
2, 43920, Note_on_c, 0, 69, 90
2, 44160, Note_on_c, 0, 69, 0
2, 44160, Note_on_c, 0, 64, 0
2, 44160, Note_on_c, 0, 62, 90
2, 44160, Note_on_c, 0, 68, 90
2, 44400, Note_on_c, 0, 68, 0
2, 44400, Note_on_c, 0, 62, 0
2, 44400, Note_on_c, 0, 61, 90
2, 44400, Note_on_c, 0, 68, 90
2, 44520, Note_on_c, 0, 61, 0
2, 44520, Note_on_c, 0, 59, 90
2, 44640, Note_on_c, 0, 59, 0
2, 44640, Note_on_c, 0, 68, 0
2, 44640, Note_on_c, 0, 57, 90
2, 44640, Note_on_c, 0, 66, 90
2, 44760, Note_on_c, 0, 57, 0
2, 44760, Note_on_c, 0, 59, 90
2, 44880, Note_on_c, 0, 59, 0
2, 44880, Note_on_c, 0, 66, 0
2, 44880, Note_on_c, 0, 61, 90
2, 45000, Note_on_c, 0, 69, 90
2, 45120, Note_on_c, 0, 69, 0
2, 45120, Note_on_c, 0, 61, 0
2, 45120, Note_on_c, 0, 68, 90
2, 45240, Note_on_c, 0, 68, 0
2, 45240, Note_on_c, 0, 71, 90
2, 45360, Note_on_c, 0, 71, 0
2, 45360, Note_on_c, 0, 68, 90
2, 45480, Note_on_c, 0, 68, 0
2, 45480, Note_on_c, 0, 71, 90
2, 45600, Note_on_c, 0, 71, 0
2, 45600, Note_on_c, 0, 69, 90
2, 45720, Note_on_c, 0, 69, 0
2, 45720, Note_on_c, 0, 73, 90
2, 45840, Note_on_c, 0, 73, 0
2, 45840, Note_on_c, 0, 66, 90
2, 45960, Note_on_c, 0, 66, 0
2, 45960, Note_on_c, 0, 69, 90
2, 46080, Note_on_c, 0, 69, 0
2, 46080, Note_on_c, 0, 67, 90
2, 46200, Note_on_c, 0, 67, 0
2, 46200, Note_on_c, 0, 71, 90
2, 46320, Note_on_c, 0, 71, 0
2, 46320, Note_on_c, 0, 64, 90
2, 46440, Note_on_c, 0, 64, 0
2, 46440, Note_on_c, 0, 67, 90
2, 46560, Note_on_c, 0, 67, 0
2, 46560, Note_on_c, 0, 66, 90
2, 46680, Note_on_c, 0, 66, 0
2, 46680, Note_on_c, 0, 62, 90
2, 46800, Note_on_c, 0, 62, 0
2, 46800, Note_on_c, 0, 69, 90
2, 47040, Note_on_c, 0, 62, 90
2, 47160, Note_on_c, 0, 62, 0
2, 47160, Note_on_c, 0, 66, 90
2, 47280, Note_on_c, 0, 66, 0
2, 47280, Note_on_c, 0, 69, 0
2, 47280, Note_on_c, 0, 59, 90
2, 47280, Note_on_c, 0, 67, 90
2, 47400, Note_on_c, 0, 59, 0
2, 47400, Note_on_c, 0, 62, 90
2, 47520, Note_on_c, 0, 62, 0
2, 47520, Note_on_c, 0, 61, 90
2, 47640, Note_on_c, 0, 61, 0
2, 47640, Note_on_c, 0, 57, 90
2, 47760, Note_on_c, 0, 57, 0
2, 47760, Note_on_c, 0, 67, 0
2, 47760, Note_on_c, 0, 62, 90
2, 47760, Note_on_c, 0, 66, 90
2, 48000, Note_on_c, 0, 66, 0
2, 48000, Note_on_c, 0, 64, 90
2, 48120, Note_on_c, 0, 62, 0
2, 48120, Note_on_c, 0, 62, 90
2, 48240, Note_on_c, 0, 62, 0
2, 48240, Note_on_c, 0, 64, 0
2, 48240, Note_on_c, 0, 61, 90
2, 48360, Note_on_c, 0, 69, 90
2, 48480, Note_on_c, 0, 69, 0
2, 48480, Note_on_c, 0, 61, 0
2, 48480, Note_on_c, 0, 62, 90
2, 48480, Note_on_c, 0, 66, 90
2, 48600, Note_on_c, 0, 66, 0
2, 48600, Note_on_c, 0, 69, 90
2, 48720, Note_on_c, 0, 69, 0
2, 48720, Note_on_c, 0, 62, 0
2, 48720, Note_on_c, 0, 61, 90
2, 48720, Note_on_c, 0, 64, 90
2, 48840, Note_on_c, 0, 64, 0
2, 48840, Note_on_c, 0, 69, 90
2, 48960, Note_on_c, 0, 69, 0
2, 48960, Note_on_c, 0, 61, 0
2, 48960, Note_on_c, 0, 57, 90
2, 48960, Note_on_c, 0, 66, 90
2, 49080, Note_on_c, 0, 66, 0
2, 49080, Note_on_c, 0, 69, 90
2, 49200, Note_on_c, 0, 69, 0
2, 49200, Note_on_c, 0, 57, 0
2, 49200, Note_on_c, 0, 57, 90
2, 49200, Note_on_c, 0, 64, 90
2, 49320, Note_on_c, 0, 64, 0
2, 49320, Note_on_c, 0, 69, 90
2, 49440, Note_on_c, 0, 69, 0
2, 49440, Note_on_c, 0, 57, 0
2, 49440, Note_on_c, 0, 57, 90
2, 49440, Note_on_c, 0, 66, 90
2, 49560, Note_on_c, 0, 66, 0
2, 49560, Note_on_c, 0, 69, 90
2, 49680, Note_on_c, 0, 69, 0
2, 49680, Note_on_c, 0, 57, 0
2, 49680, Note_on_c, 0, 61, 90
2, 49680, Note_on_c, 0, 64, 90
2, 49800, Note_on_c, 0, 64, 0
2, 49800, Note_on_c, 0, 69, 90
2, 49920, Note_on_c, 0, 69, 0
2, 49920, Note_on_c, 0, 61, 0
2, 49920, Note_on_c, 0, 62, 90
2, 49920, Note_on_c, 0, 66, 90
2, 50040, Note_on_c, 0, 66, 0
2, 50040, Note_on_c, 0, 69, 90
2, 50160, Note_on_c, 0, 69, 0
2, 50160, Note_on_c, 0, 62, 0
2, 50160, Note_on_c, 0, 64, 90
2, 50160, Note_on_c, 0, 64, 90
2, 50280, Note_on_c, 0, 64, 0
2, 50280, Note_on_c, 0, 69, 90
2, 50400, Note_on_c, 0, 69, 0
2, 50400, Note_on_c, 0, 64, 0
2, 50400, Note_on_c, 0, 62, 90
2, 50400, Note_on_c, 0, 66, 90
2, 50520, Note_on_c, 0, 66, 0
2, 50520, Note_on_c, 0, 74, 90
2, 50640, Note_on_c, 0, 74, 0
2, 50640, Note_on_c, 0, 62, 0
2, 50640, Note_on_c, 0, 66, 90
2, 50640, Note_on_c, 0, 69, 90
2, 50760, Note_on_c, 0, 69, 0
2, 50760, Note_on_c, 0, 74, 90
2, 50880, Note_on_c, 0, 74, 0
2, 50880, Note_on_c, 0, 66, 0
2, 50880, Note_on_c, 0, 62, 90
2, 50880, Note_on_c, 0, 71, 90
2, 51000, Note_on_c, 0, 71, 0
2, 51000, Note_on_c, 0, 74, 90
2, 51120, Note_on_c, 0, 74, 0
2, 51120, Note_on_c, 0, 62, 0
2, 51120, Note_on_c, 0, 62, 90
2, 51120, Note_on_c, 0, 69, 90
2, 51240, Note_on_c, 0, 69, 0
2, 51240, Note_on_c, 0, 74, 90
2, 51360, Note_on_c, 0, 74, 0
2, 51360, Note_on_c, 0, 62, 0
2, 51360, Note_on_c, 0, 62, 90
2, 51360, Note_on_c, 0, 71, 90
2, 51480, Note_on_c, 0, 71, 0
2, 51480, Note_on_c, 0, 74, 90
2, 51600, Note_on_c, 0, 74, 0
2, 51600, Note_on_c, 0, 62, 0
2, 51600, Note_on_c, 0, 66, 90
2, 51600, Note_on_c, 0, 69, 90
2, 51720, Note_on_c, 0, 69, 0
2, 51720, Note_on_c, 0, 74, 90
2, 51840, Note_on_c, 0, 74, 0
2, 51840, Note_on_c, 0, 66, 0
2, 51840, Note_on_c, 0, 67, 90
2, 51840, Note_on_c, 0, 71, 90
2, 51960, Note_on_c, 0, 71, 0
2, 51960, Note_on_c, 0, 74, 90
2, 52080, Note_on_c, 0, 74, 0
2, 52080, Note_on_c, 0, 67, 0
2, 52080, Note_on_c, 0, 69, 90
2, 52080, Note_on_c, 0, 69, 90
2, 52200, Note_on_c, 0, 69, 0
2, 52200, Note_on_c, 0, 74, 90
2, 52320, Note_on_c, 0, 74, 0
2, 52320, Note_on_c, 0, 69, 0
2, 52320, Note_on_c, 0, 67, 90
2, 52320, Note_on_c, 0, 71, 90
2, 52440, Note_on_c, 0, 71, 0
2, 52440, Note_on_c, 0, 76, 90
2, 52560, Note_on_c, 0, 76, 0
2, 52560, Note_on_c, 0, 67, 0
2, 52560, Note_on_c, 0, 68, 90
2, 52560, Note_on_c, 0, 71, 90
2, 52680, Note_on_c, 0, 71, 0
2, 52680, Note_on_c, 0, 76, 90
2, 52800, Note_on_c, 0, 76, 0
2, 52800, Note_on_c, 0, 68, 0
2, 52800, Note_on_c, 0, 64, 90
2, 52800, Note_on_c, 0, 73, 90
2, 52920, Note_on_c, 0, 73, 0
2, 52920, Note_on_c, 0, 76, 90
2, 53040, Note_on_c, 0, 76, 0
2, 53040, Note_on_c, 0, 64, 0
2, 53040, Note_on_c, 0, 64, 90
2, 53040, Note_on_c, 0, 71, 90
2, 53160, Note_on_c, 0, 71, 0
2, 53160, Note_on_c, 0, 76, 90
2, 53280, Note_on_c, 0, 76, 0
2, 53280, Note_on_c, 0, 64, 0
2, 53280, Note_on_c, 0, 64, 90
2, 53280, Note_on_c, 0, 73, 90
2, 53400, Note_on_c, 0, 73, 0
2, 53400, Note_on_c, 0, 76, 90
2, 53520, Note_on_c, 0, 76, 0
2, 53520, Note_on_c, 0, 64, 0
2, 53520, Note_on_c, 0, 68, 90
2, 53520, Note_on_c, 0, 71, 90
2, 53640, Note_on_c, 0, 71, 0
2, 53640, Note_on_c, 0, 76, 90
2, 53760, Note_on_c, 0, 76, 0
2, 53760, Note_on_c, 0, 68, 0
2, 53760, Note_on_c, 0, 69, 90
2, 53760, Note_on_c, 0, 73, 90
2, 53880, Note_on_c, 0, 73, 0
2, 53880, Note_on_c, 0, 76, 90
2, 54000, Note_on_c, 0, 76, 0
2, 54000, Note_on_c, 0, 69, 0
2, 54000, Note_on_c, 0, 71, 90
2, 54000, Note_on_c, 0, 71, 90
2, 54120, Note_on_c, 0, 71, 0
2, 54120, Note_on_c, 0, 76, 90
2, 54240, Note_on_c, 0, 76, 0
2, 54240, Note_on_c, 0, 71, 0
2, 54240, Note_on_c, 0, 69, 90
2, 54240, Note_on_c, 0, 73, 90
2, 54360, Note_on_c, 0, 73, 0
2, 54360, Note_on_c, 0, 81, 90
2, 54480, Note_on_c, 0, 81, 0
2, 54480, Note_on_c, 0, 69, 0
2, 54480, Note_on_c, 0, 73, 90
2, 54480, Note_on_c, 0, 76, 90
2, 54600, Note_on_c, 0, 76, 0
2, 54600, Note_on_c, 0, 81, 90
2, 54720, Note_on_c, 0, 81, 0
2, 54720, Note_on_c, 0, 73, 0
2, 54720, Note_on_c, 0, 69, 90
2, 54720, Note_on_c, 0, 78, 90
2, 54840, Note_on_c, 0, 78, 0
2, 54840, Note_on_c, 0, 81, 90
2, 54960, Note_on_c, 0, 81, 0
2, 54960, Note_on_c, 0, 69, 0
2, 54960, Note_on_c, 0, 69, 90
2, 54960, Note_on_c, 0, 76, 90
2, 55080, Note_on_c, 0, 76, 0
2, 55080, Note_on_c, 0, 81, 90
2, 55200, Note_on_c, 0, 81, 0
2, 55200, Note_on_c, 0, 69, 0
2, 55200, Note_on_c, 0, 69, 90
2, 55200, Note_on_c, 0, 78, 90
2, 55320, Note_on_c, 0, 78, 0
2, 55320, Note_on_c, 0, 81, 90
2, 55440, Note_on_c, 0, 81, 0
2, 55440, Note_on_c, 0, 69, 0
2, 55440, Note_on_c, 0, 73, 90
2, 55440, Note_on_c, 0, 76, 90
2, 55560, Note_on_c, 0, 76, 0
2, 55560, Note_on_c, 0, 81, 90
2, 55680, Note_on_c, 0, 81, 0
2, 55680, Note_on_c, 0, 73, 0
2, 55680, Note_on_c, 0, 74, 90
2, 55680, Note_on_c, 0, 78, 90
2, 55800, Note_on_c, 0, 78, 0
2, 55800, Note_on_c, 0, 81, 90
2, 55920, Note_on_c, 0, 81, 0
2, 55920, Note_on_c, 0, 74, 0
2, 55920, Note_on_c, 0, 76, 90
2, 55920, Note_on_c, 0, 76, 90
2, 56040, Note_on_c, 0, 76, 0
2, 56040, Note_on_c, 0, 81, 90
2, 56160, Note_on_c, 0, 81, 0
2, 56160, Note_on_c, 0, 76, 0
2, 56160, Note_on_c, 0, 74, 90
2, 56160, Note_on_c, 0, 78, 90
2, 56280, Note_on_c, 0, 78, 0
2, 56280, Note_on_c, 0, 74, 90
2, 56400, Note_on_c, 0, 74, 0
2, 56400, Note_on_c, 0, 74, 0
2, 56400, Note_on_c, 0, 74, 90
2, 56400, Note_on_c, 0, 78, 90
2, 56640, Note_on_c, 0, 78, 0
2, 56640, Note_on_c, 0, 74, 0
2, 56640, Note_on_c, 0, 74, 90
2, 56640, Note_on_c, 0, 76, 90
2, 56880, Note_on_c, 0, 74, 0
2, 56880, Note_on_c, 0, 73, 90
2, 57120, Note_on_c, 0, 76, 0
2, 57120, Note_on_c, 0, 74, 90
2, 57360, Note_on_c, 0, 73, 0
2, 57360, Note_on_c, 0, 71, 90
2, 57600, Note_on_c, 0, 74, 0
2, 57600, Note_on_c, 0, 73, 90
2, 57840, Note_on_c, 0, 71, 0
2, 57840, Note_on_c, 0, 69, 90
2, 58080, Note_on_c, 0, 73, 0
2, 58080, Note_on_c, 0, 71, 90
2, 58320, Note_on_c, 0, 69, 0
2, 58320, Note_on_c, 0, 68, 90
2, 58560, Note_on_c, 0, 68, 0
2, 58560, Note_on_c, 0, 71, 0
2, 58560, Note_on_c, 0, 69, 90
2, 58752, Note_on_c, 0, 69, 0
2, 58800, Note_on_c, 0, 69, 100
2, 58992, Note_on_c, 0, 69, 0
2, 59040, Note_on_c, 0, 69, 100
2, 59232, Note_on_c, 0, 69, 0
2, 59280, Note_on_c, 0, 69, 90
2, 59472, Note_on_c, 0, 69, 0
2, 59520, Note_on_c, 0, 69, 90
2, 59712, Note_on_c, 0, 69, 0
2, 59760, Note_on_c, 0, 69, 100
2, 59952, Note_on_c, 0, 69, 0
2, 60000, Note_on_c, 0, 69, 100
2, 60192, Note_on_c, 0, 69, 0
2, 60240, Note_on_c, 0, 69, 90
2, 60432, Note_on_c, 0, 69, 0
2, 60480, Note_on_c, 0, 69, 90
2, 60672, Note_on_c, 0, 69, 0
2, 60720, Note_on_c, 0, 64, 90
2, 60720, Note_on_c, 0, 69, 90
2, 60960, Note_on_c, 0, 64, 0
2, 60960, Note_on_c, 0, 66, 90
2, 61200, Note_on_c, 0, 66, 0
2, 61200, Note_on_c, 0, 69, 0
2, 61200, Note_on_c, 0, 64, 90
2, 61200, Note_on_c, 0, 68, 90
2, 61320, Note_on_c, 0, 64, 0
2, 61320, Note_on_c, 0, 62, 90
2, 61440, Note_on_c, 0, 62, 0
2, 61440, Note_on_c, 0, 68, 0
2, 61440, Note_on_c, 0, 61, 90
2, 61440, Note_on_c, 0, 69, 90
2, 61560, Note_on_c, 0, 61, 0
2, 61560, Note_on_c, 0, 57, 90
2, 61680, Note_on_c, 0, 57, 0
2, 61680, Note_on_c, 0, 69, 0
2, 61680, Note_on_c, 0, 73, 90
2, 61920, Note_on_c, 0, 73, 0
2, 61920, Note_on_c, 0, 71, 90
2, 62400, Note_on_c, 0, 71, 0
2, 62400, Note_on_c, 0, 69, 90
2, 62880, Note_on_c, 0, 69, 0
2, 62880, Note_on_c, 0, 67, 90
2, 63360, Note_on_c, 0, 67, 0
2, 63360, Note_on_c, 0, 66, 90
2, 63840, Note_on_c, 0, 66, 0
2, 63840, Note_on_c, 0, 64, 90
2, 64560, Note_on_c, 0, 64, 0
2, 64560, Note_on_c, 0, 62, 90
2, 65040, Note_on_c, 0, 62, 0
2, 65040, Note_on_c, 0, 61, 90
2, 65280, Note_on_c, 0, 61, 0
2, 65280, Note_on_c, 0, 62, 90
2, 65400, Note_on_c, 0, 62, 0
2, 65400, Note_on_c, 0, 64, 90
2, 65520, Note_on_c, 0, 64, 0
2, 65520, Note_on_c, 0, 66, 90
2, 65520, Note_on_c, 0, 74, 90
2, 65760, Note_on_c, 0, 66, 0
2, 65760, Note_on_c, 0, 64, 90
2, 66000, Note_on_c, 0, 74, 0
2, 66000, Note_on_c, 0, 72, 90
2, 66240, Note_on_c, 0, 64, 0
2, 66240, Note_on_c, 0, 62, 90
2, 66480, Note_on_c, 0, 72, 0
2, 66480, Note_on_c, 0, 71, 90
2, 66720, Note_on_c, 0, 71, 0
2, 66720, Note_on_c, 0, 62, 0
2, 66720, Note_on_c, 0, 64, 90
2, 66720, Note_on_c, 0, 69, 90
2, 66960, Note_on_c, 0, 64, 0
2, 66960, Note_on_c, 0, 62, 90
2, 67080, Note_on_c, 0, 62, 0
2, 67080, Note_on_c, 0, 60, 90
2, 67200, Note_on_c, 0, 60, 0
2, 67200, Note_on_c, 0, 69, 0
2, 67200, Note_on_c, 0, 59, 90
2, 67200, Note_on_c, 0, 67, 90
2, 67320, Note_on_c, 0, 67, 0
2, 67320, Note_on_c, 0, 62, 90
2, 67440, Note_on_c, 0, 62, 0
2, 67440, Note_on_c, 0, 59, 0
2, 67440, Note_on_c, 0, 67, 90
2, 67560, Note_on_c, 0, 62, 90
2, 67680, Note_on_c, 0, 62, 0
2, 67680, Note_on_c, 0, 64, 90
2, 67800, Note_on_c, 0, 64, 0
2, 67800, Note_on_c, 0, 65, 90
2, 67920, Note_on_c, 0, 65, 0
2, 67920, Note_on_c, 0, 62, 90
2, 68040, Note_on_c, 0, 62, 0
2, 68040, Note_on_c, 0, 65, 90
2, 68160, Note_on_c, 0, 65, 0
2, 68160, Note_on_c, 0, 64, 90
2, 68280, Note_on_c, 0, 64, 0
2, 68280, Note_on_c, 0, 65, 90
2, 68400, Note_on_c, 0, 65, 0
2, 68400, Note_on_c, 0, 62, 90
2, 68520, Note_on_c, 0, 62, 0
2, 68520, Note_on_c, 0, 65, 90
2, 68640, Note_on_c, 0, 65, 0
2, 68640, Note_on_c, 0, 64, 90
2, 68760, Note_on_c, 0, 64, 0
2, 68760, Note_on_c, 0, 65, 90
2, 68880, Note_on_c, 0, 65, 0
2, 68880, Note_on_c, 0, 62, 90
2, 69000, Note_on_c, 0, 62, 0
2, 69000, Note_on_c, 0, 65, 90
2, 69120, Note_on_c, 0, 65, 0
2, 69120, Note_on_c, 0, 64, 90
2, 69240, Note_on_c, 0, 67, 0
2, 69240, Note_on_c, 0, 64, 90
2, 69360, Note_on_c, 0, 64, 0
2, 69360, Note_on_c, 0, 64, 0
2, 69360, Note_on_c, 0, 69, 90
2, 69480, Note_on_c, 0, 64, 90
2, 69600, Note_on_c, 0, 64, 0
2, 69600, Note_on_c, 0, 66, 90
2, 69720, Note_on_c, 0, 66, 0
2, 69720, Note_on_c, 0, 67, 90
2, 69840, Note_on_c, 0, 67, 0
2, 69840, Note_on_c, 0, 64, 90
2, 69960, Note_on_c, 0, 64, 0
2, 69960, Note_on_c, 0, 67, 90
2, 70080, Note_on_c, 0, 67, 0
2, 70080, Note_on_c, 0, 66, 90
2, 70200, Note_on_c, 0, 66, 0
2, 70200, Note_on_c, 0, 67, 90
2, 70320, Note_on_c, 0, 67, 0
2, 70320, Note_on_c, 0, 64, 90
2, 70440, Note_on_c, 0, 64, 0
2, 70440, Note_on_c, 0, 67, 90
2, 70560, Note_on_c, 0, 67, 0
2, 70560, Note_on_c, 0, 66, 90
2, 70680, Note_on_c, 0, 66, 0
2, 70680, Note_on_c, 0, 67, 90
2, 70800, Note_on_c, 0, 67, 0
2, 70800, Note_on_c, 0, 64, 90
2, 70920, Note_on_c, 0, 64, 0
2, 70920, Note_on_c, 0, 67, 90
2, 71040, Note_on_c, 0, 67, 0
2, 71040, Note_on_c, 0, 66, 90
2, 71160, Note_on_c, 0, 69, 0
2, 71160, Note_on_c, 0, 69, 90
2, 71280, Note_on_c, 0, 69, 0
2, 71280, Note_on_c, 0, 66, 0
2, 71280, Note_on_c, 0, 74, 90
2, 71400, Note_on_c, 0, 69, 90
2, 71520, Note_on_c, 0, 69, 0
2, 71520, Note_on_c, 0, 71, 90
2, 71640, Note_on_c, 0, 71, 0
2, 71640, Note_on_c, 0, 72, 90
2, 71760, Note_on_c, 0, 72, 0
2, 71760, Note_on_c, 0, 69, 90
2, 71880, Note_on_c, 0, 69, 0
2, 71880, Note_on_c, 0, 72, 90
2, 72000, Note_on_c, 0, 72, 0
2, 72000, Note_on_c, 0, 71, 90
2, 72120, Note_on_c, 0, 71, 0
2, 72120, Note_on_c, 0, 72, 90
2, 72240, Note_on_c, 0, 72, 0
2, 72240, Note_on_c, 0, 69, 90
2, 72360, Note_on_c, 0, 69, 0
2, 72360, Note_on_c, 0, 72, 90
2, 72480, Note_on_c, 0, 72, 0
2, 72480, Note_on_c, 0, 71, 90
2, 72600, Note_on_c, 0, 71, 0
2, 72600, Note_on_c, 0, 72, 90
2, 72720, Note_on_c, 0, 72, 0
2, 72720, Note_on_c, 0, 69, 90
2, 72840, Note_on_c, 0, 69, 0
2, 72840, Note_on_c, 0, 72, 90
2, 72960, Note_on_c, 0, 72, 0
2, 72960, Note_on_c, 0, 71, 90
2, 73080, Note_on_c, 0, 74, 0
2, 73080, Note_on_c, 0, 74, 90
2, 73200, Note_on_c, 0, 74, 0
2, 73200, Note_on_c, 0, 71, 0
2, 73200, Note_on_c, 0, 79, 90
2, 73320, Note_on_c, 0, 74, 90
2, 73440, Note_on_c, 0, 74, 0
2, 73440, Note_on_c, 0, 76, 90
2, 73560, Note_on_c, 0, 76, 0
2, 73560, Note_on_c, 0, 77, 90
2, 73680, Note_on_c, 0, 77, 0
2, 73680, Note_on_c, 0, 74, 90
2, 73800, Note_on_c, 0, 74, 0
2, 73800, Note_on_c, 0, 77, 90
2, 73920, Note_on_c, 0, 77, 0
2, 73920, Note_on_c, 0, 76, 90
2, 74040, Note_on_c, 0, 76, 0
2, 74040, Note_on_c, 0, 77, 90
2, 74160, Note_on_c, 0, 77, 0
2, 74160, Note_on_c, 0, 74, 90
2, 74280, Note_on_c, 0, 74, 0
2, 74280, Note_on_c, 0, 77, 90
2, 74400, Note_on_c, 0, 77, 0
2, 74400, Note_on_c, 0, 76, 90
2, 74520, Note_on_c, 0, 76, 0
2, 74520, Note_on_c, 0, 77, 90
2, 74640, Note_on_c, 0, 77, 0
2, 74640, Note_on_c, 0, 74, 90
2, 74760, Note_on_c, 0, 79, 0
2, 74760, Note_on_c, 0, 77, 90
2, 74880, Note_on_c, 0, 77, 0
2, 74880, Note_on_c, 0, 74, 0
2, 74880, Note_on_c, 0, 72, 90
2, 74880, Note_on_c, 0, 76, 90
2, 75000, Note_on_c, 0, 76, 0
2, 75000, Note_on_c, 0, 79, 90
2, 75120, Note_on_c, 0, 79, 0
2, 75120, Note_on_c, 0, 72, 0
2, 75120, Note_on_c, 0, 72, 90
2, 75240, Note_on_c, 0, 72, 0
2, 75240, Note_on_c, 0, 72, 90
2, 75240, Note_on_c, 0, 76, 90
2, 75360, Note_on_c, 0, 76, 0
2, 75360, Note_on_c, 0, 72, 0
2, 75360, Note_on_c, 0, 72, 90
2, 75360, Note_on_c, 0, 77, 90
2, 75480, Note_on_c, 0, 77, 0
2, 75480, Note_on_c, 0, 79, 90
2, 75600, Note_on_c, 0, 79, 0
2, 75600, Note_on_c, 0, 76, 90
2, 75720, Note_on_c, 0, 76, 0
2, 75720, Note_on_c, 0, 77, 90
2, 75840, Note_on_c, 0, 77, 0
2, 75840, Note_on_c, 0, 72, 0
2, 75840, Note_on_c, 0, 71, 90
2, 75840, Note_on_c, 0, 75, 90
2, 75960, Note_on_c, 0, 75, 0
2, 75960, Note_on_c, 0, 78, 90
2, 76080, Note_on_c, 0, 78, 0
2, 76080, Note_on_c, 0, 71, 0
2, 76080, Note_on_c, 0, 71, 90
2, 76200, Note_on_c, 0, 66, 90
2, 76320, Note_on_c, 0, 66, 0
2, 76320, Note_on_c, 0, 71, 0
2, 76320, Note_on_c, 0, 67, 90
2, 76320, Note_on_c, 0, 72, 90
2, 76440, Note_on_c, 0, 72, 0
2, 76440, Note_on_c, 0, 74, 90
2, 76560, Note_on_c, 0, 74, 0
2, 76560, Note_on_c, 0, 67, 0
2, 76560, Note_on_c, 0, 66, 90
2, 76560, Note_on_c, 0, 71, 90
2, 76680, Note_on_c, 0, 71, 0
2, 76680, Note_on_c, 0, 74, 90
2, 76800, Note_on_c, 0, 74, 0
2, 76800, Note_on_c, 0, 66, 0
2, 76800, Note_on_c, 0, 67, 90
2, 76800, Note_on_c, 0, 72, 90
2, 76920, Note_on_c, 0, 72, 0
2, 76920, Note_on_c, 0, 74, 90
2, 77040, Note_on_c, 0, 74, 0
2, 77040, Note_on_c, 0, 67, 0
2, 77040, Note_on_c, 0, 66, 90
2, 77040, Note_on_c, 0, 71, 90
2, 77280, Note_on_c, 0, 71, 0
2, 77280, Note_on_c, 0, 66, 0
2, 77280, Note_on_c, 0, 64, 90
2, 77280, Note_on_c, 0, 69, 90
2, 77520, Note_on_c, 0, 69, 0
2, 77520, Note_on_c, 0, 64, 0
2, 77520, Note_on_c, 0, 62, 90
2, 77520, Note_on_c, 0, 67, 90
2, 77760, Note_on_c, 0, 67, 0
2, 77760, Note_on_c, 0, 62, 0
2, 77760, Note_on_c, 0, 63, 90
2, 77760, Note_on_c, 0, 66, 90
2, 78000, Note_on_c, 0, 66, 0
2, 78000, Note_on_c, 0, 63, 0
2, 78000, Note_on_c, 0, 64, 90
2, 78000, Note_on_c, 0, 67, 90
2, 78240, Note_on_c, 0, 67, 0
2, 78240, Note_on_c, 0, 66, 90
2, 78480, Note_on_c, 0, 64, 0
2, 78480, Note_on_c, 0, 63, 90
2, 78720, Note_on_c, 0, 63, 0
2, 78720, Note_on_c, 0, 66, 0
2, 78720, Note_on_c, 0, 59, 90
2, 78720, Note_on_c, 0, 64, 90
2, 78960, Note_on_c, 0, 64, 0
2, 78960, Note_on_c, 0, 59, 0
2, 79080, Note_on_c, 0, 71, 90
2, 79080, Note_on_c, 0, 76, 90
2, 79200, Note_on_c, 0, 76, 0
2, 79200, Note_on_c, 0, 71, 0
2, 79200, Note_on_c, 0, 69, 90
2, 79200, Note_on_c, 0, 73, 90
2, 79320, Note_on_c, 0, 73, 0
2, 79320, Note_on_c, 0, 74, 90
2, 79440, Note_on_c, 0, 74, 0
2, 79440, Note_on_c, 0, 69, 0
2, 79440, Note_on_c, 0, 71, 90
2, 79440, Note_on_c, 0, 71, 90
2, 79560, Note_on_c, 0, 71, 0
2, 79560, Note_on_c, 0, 74, 90
2, 79680, Note_on_c, 0, 74, 0
2, 79680, Note_on_c, 0, 71, 0
2, 79680, Note_on_c, 0, 69, 90
2, 79680, Note_on_c, 0, 73, 90
2, 79800, Note_on_c, 0, 73, 0
2, 79800, Note_on_c, 0, 74, 90
2, 79920, Note_on_c, 0, 74, 0
2, 79920, Note_on_c, 0, 69, 0
2, 79920, Note_on_c, 0, 68, 90
2, 79920, Note_on_c, 0, 71, 90
2, 80040, Note_on_c, 0, 71, 0
2, 80040, Note_on_c, 0, 74, 90
2, 80160, Note_on_c, 0, 74, 0
2, 80160, Note_on_c, 0, 68, 0
2, 80160, Note_on_c, 0, 69, 90
2, 80160, Note_on_c, 0, 73, 90
2, 80280, Note_on_c, 0, 73, 0
2, 80280, Note_on_c, 0, 74, 90
2, 80400, Note_on_c, 0, 74, 0
2, 80400, Note_on_c, 0, 69, 0
2, 80400, Note_on_c, 0, 68, 90
2, 80400, Note_on_c, 0, 71, 90
2, 80520, Note_on_c, 0, 71, 0
2, 80520, Note_on_c, 0, 74, 90
2, 80640, Note_on_c, 0, 74, 0
2, 80640, Note_on_c, 0, 68, 0
2, 80640, Note_on_c, 0, 69, 90
2, 80640, Note_on_c, 0, 73, 90
2, 80760, Note_on_c, 0, 73, 0
2, 80760, Note_on_c, 0, 69, 90
2, 80880, Note_on_c, 0, 69, 0
2, 80880, Note_on_c, 0, 69, 0
2, 80880, Note_on_c, 0, 74, 90
2, 81000, Note_on_c, 0, 74, 0
2, 81000, Note_on_c, 0, 69, 90
2, 81120, Note_on_c, 0, 69, 0
2, 81120, Note_on_c, 0, 71, 90
2, 81240, Note_on_c, 0, 71, 0
2, 81240, Note_on_c, 0, 74, 90
2, 81360, Note_on_c, 0, 74, 0
2, 81360, Note_on_c, 0, 67, 90
2, 81480, Note_on_c, 0, 67, 0
2, 81480, Note_on_c, 0, 71, 90
2, 81600, Note_on_c, 0, 71, 0
2, 81600, Note_on_c, 0, 69, 90
2, 81720, Note_on_c, 0, 69, 0
2, 81720, Note_on_c, 0, 73, 90
2, 81840, Note_on_c, 0, 73, 0
2, 81840, Note_on_c, 0, 66, 90
2, 81960, Note_on_c, 0, 66, 0
2, 81960, Note_on_c, 0, 69, 90
2, 82080, Note_on_c, 0, 69, 0
2, 82080, Note_on_c, 0, 67, 90
2, 82200, Note_on_c, 0, 67, 0
2, 82200, Note_on_c, 0, 71, 90
2, 82320, Note_on_c, 0, 71, 0
2, 82320, Note_on_c, 0, 64, 90
2, 82440, Note_on_c, 0, 64, 0
2, 82440, Note_on_c, 0, 67, 90
2, 82560, Note_on_c, 0, 67, 0
2, 82560, Note_on_c, 0, 66, 90
2, 82680, Note_on_c, 0, 66, 0
2, 82680, Note_on_c, 0, 69, 90
2, 82800, Note_on_c, 0, 69, 0
2, 82800, Note_on_c, 0, 62, 90
2, 82920, Note_on_c, 0, 62, 0
2, 82920, Note_on_c, 0, 78, 90
2, 83040, Note_on_c, 0, 78, 0
2, 83040, Note_on_c, 0, 76, 90
2, 83160, Note_on_c, 0, 76, 0
2, 83160, Note_on_c, 0, 79, 90
2, 83280, Note_on_c, 0, 79, 0
2, 83280, Note_on_c, 0, 78, 90
2, 83400, Note_on_c, 0, 78, 0
2, 83400, Note_on_c, 0, 81, 90
2, 83520, Note_on_c, 0, 81, 0
2, 83520, Note_on_c, 0, 79, 90
2, 83640, Note_on_c, 0, 79, 0
2, 83640, Note_on_c, 0, 81, 90
2, 83760, Note_on_c, 0, 81, 0
2, 83760, Note_on_c, 0, 78, 90
2, 83880, Note_on_c, 0, 78, 0
2, 83880, Note_on_c, 0, 76, 90
2, 84000, Note_on_c, 0, 76, 0
2, 84000, Note_on_c, 0, 78, 90
2, 84240, Note_on_c, 0, 78, 0
2, 84240, Note_on_c, 0, 76, 90
2, 84360, Note_on_c, 0, 76, 0
2, 84360, Note_on_c, 0, 74, 90
2, 84480, Note_on_c, 0, 74, 0
2, 84480, Note_on_c, 0, 74, 90
2, 84600, Note_on_c, 0, 74, 0
2, 84600, Note_on_c, 0, 69, 90
2, 84720, Note_on_c, 0, 69, 0
2, 84720, Note_on_c, 0, 78, 90
2, 84840, Note_on_c, 0, 69, 90
2, 84960, Note_on_c, 0, 69, 0
2, 84960, Note_on_c, 0, 78, 0
2, 84960, Note_on_c, 0, 67, 90
2, 84960, Note_on_c, 0, 76, 90
2, 85080, Note_on_c, 0, 67, 0
2, 85080, Note_on_c, 0, 71, 90
2, 85200, Note_on_c, 0, 71, 0
2, 85200, Note_on_c, 0, 64, 90
2, 85320, Note_on_c, 0, 64, 0
2, 85320, Note_on_c, 0, 67, 90
2, 85440, Note_on_c, 0, 67, 0
2, 85440, Note_on_c, 0, 76, 0
2, 85440, Note_on_c, 0, 66, 90
2, 85440, Note_on_c, 0, 74, 90
2, 85560, Note_on_c, 0, 66, 0
2, 85560, Note_on_c, 0, 69, 90
2, 85680, Note_on_c, 0, 69, 0
2, 85680, Note_on_c, 0, 62, 90
2, 85800, Note_on_c, 0, 62, 0
2, 85800, Note_on_c, 0, 66, 90
2, 85920, Note_on_c, 0, 66, 0
2, 85920, Note_on_c, 0, 74, 0
2, 85920, Note_on_c, 0, 64, 90
2, 85920, Note_on_c, 0, 73, 90
2, 86040, Note_on_c, 0, 64, 0
2, 86040, Note_on_c, 0, 67, 90
2, 86160, Note_on_c, 0, 67, 0
2, 86160, Note_on_c, 0, 61, 90
2, 86280, Note_on_c, 0, 61, 0
2, 86280, Note_on_c, 0, 64, 90
2, 86400, Note_on_c, 0, 64, 0
2, 86400, Note_on_c, 0, 73, 0
2, 86400, Note_on_c, 0, 62, 90
2, 86400, Note_on_c, 0, 71, 90
2, 86520, Note_on_c, 0, 62, 0
2, 86520, Note_on_c, 0, 66, 90
2, 86640, Note_on_c, 0, 66, 0
2, 86640, Note_on_c, 0, 59, 90
2, 86760, Note_on_c, 0, 59, 0
2, 86760, Note_on_c, 0, 62, 90
2, 86880, Note_on_c, 0, 62, 0
2, 86880, Note_on_c, 0, 71, 0
2, 86880, Note_on_c, 0, 61, 90
2, 86880, Note_on_c, 0, 69, 90
2, 87000, Note_on_c, 0, 61, 0
2, 87000, Note_on_c, 0, 64, 90
2, 87120, Note_on_c, 0, 64, 0
2, 87120, Note_on_c, 0, 57, 90
2, 87240, Note_on_c, 0, 57, 0
2, 87240, Note_on_c, 0, 61, 90
2, 87360, Note_on_c, 0, 61, 0
2, 87360, Note_on_c, 0, 69, 0
2, 87360, Note_on_c, 0, 59, 90
2, 87360, Note_on_c, 0, 67, 90
2, 87480, Note_on_c, 0, 59, 0
2, 87480, Note_on_c, 0, 62, 90
2, 87600, Note_on_c, 0, 62, 0
2, 87600, Note_on_c, 0, 55, 90
2, 87720, Note_on_c, 0, 55, 0
2, 87720, Note_on_c, 0, 59, 90
2, 87840, Note_on_c, 0, 59, 0
2, 87840, Note_on_c, 0, 57, 90
2, 87960, Note_on_c, 0, 57, 0
2, 87960, Note_on_c, 0, 61, 90
2, 88080, Note_on_c, 0, 61, 0
2, 88080, Note_on_c, 0, 67, 0
2, 88080, Note_on_c, 0, 54, 90
2, 88080, Note_on_c, 0, 66, 90
2, 88200, Note_on_c, 0, 54, 0
2, 88200, Note_on_c, 0, 57, 90
2, 88320, Note_on_c, 0, 57, 0
2, 88320, Note_on_c, 0, 66, 0
2, 88320, Note_on_c, 0, 55, 90
2, 88320, Note_on_c, 0, 64, 90
2, 88440, Note_on_c, 0, 55, 0
2, 88440, Note_on_c, 0, 59, 90
2, 88560, Note_on_c, 0, 59, 0
2, 88560, Note_on_c, 0, 52, 90
2, 88680, Note_on_c, 0, 52, 0
2, 88680, Note_on_c, 0, 55, 90
2, 88800, Note_on_c, 0, 55, 0
2, 88800, Note_on_c, 0, 64, 0
2, 88800, Note_on_c, 0, 54, 90
2, 88920, Note_on_c, 0, 62, 90
2, 89040, Note_on_c, 0, 54, 0
2, 89040, Note_on_c, 0, 57, 90
2, 89160, Note_on_c, 0, 62, 0
2, 89160, Note_on_c, 0, 62, 90
2, 89280, Note_on_c, 0, 62, 0
2, 89280, Note_on_c, 0, 57, 0
2, 89280, Note_on_c, 0, 59, 90
2, 89400, Note_on_c, 0, 62, 90
2, 89520, Note_on_c, 0, 59, 0
2, 89520, Note_on_c, 0, 57, 90
2, 89640, Note_on_c, 0, 62, 0
2, 89640, Note_on_c, 0, 61, 90
2, 89760, Note_on_c, 0, 61, 0
2, 89760, Note_on_c, 0, 57, 0
2, 89760, Note_on_c, 0, 54, 90
2, 89760, Note_on_c, 0, 62, 90
2, 89880, Note_on_c, 0, 62, 0
2, 89880, Note_on_c, 0, 74, 90
2, 90000, Note_on_c, 0, 54, 0
2, 90000, Note_on_c, 0, 66, 90
2, 90120, Note_on_c, 0, 74, 0
2, 90120, Note_on_c, 0, 74, 90
2, 90240, Note_on_c, 0, 74, 0
2, 90240, Note_on_c, 0, 66, 0
2, 90240, Note_on_c, 0, 64, 90
2, 90360, Note_on_c, 0, 74, 90
2, 90480, Note_on_c, 0, 64, 0
2, 90480, Note_on_c, 0, 64, 90
2, 90600, Note_on_c, 0, 74, 0
2, 90600, Note_on_c, 0, 73, 90
2, 90720, Note_on_c, 0, 73, 0
2, 90720, Note_on_c, 0, 64, 0
2, 90720, Note_on_c, 0, 62, 90
2, 90840, Note_on_c, 0, 74, 90
2, 90960, Note_on_c, 0, 62, 0
2, 90960, Note_on_c, 0, 66, 90
2, 91080, Note_on_c, 0, 74, 0
2, 91080, Note_on_c, 0, 74, 90
2, 91200, Note_on_c, 0, 74, 0
2, 91200, Note_on_c, 0, 66, 0
2, 91200, Note_on_c, 0, 64, 90
2, 91320, Note_on_c, 0, 74, 90
2, 91440, Note_on_c, 0, 64, 0
2, 91440, Note_on_c, 0, 64, 90
2, 91560, Note_on_c, 0, 74, 0
2, 91560, Note_on_c, 0, 73, 90
2, 91656, Note_on_c, 0, 73, 0
2, 91680, Note_on_c, 0, 64, 0
2, 91680, Note_on_c, 0, 66, 115
2, 91680, Note_on_c, 0, 72, 115
2, 91920, Note_on_c, 0, 72, 0
2, 91920, Note_on_c, 0, 71, 115
2, 92040, Note_on_c, 0, 71, 0
2, 92040, Note_on_c, 0, 69, 115
2, 92160, Note_on_c, 0, 69, 0
2, 92160, Note_on_c, 0, 66, 0
2, 92160, Note_on_c, 0, 59, 115
2, 92160, Note_on_c, 0, 67, 115
2, 92400, Note_on_c, 0, 67, 0
2, 92400, Note_on_c, 0, 59, 0
2, 92400, Note_on_c, 0, 64, 115
2, 92430, Note_on_c, 0, 64, 0
2, 92430, Note_on_c, 0, 66, 115
2, 92460, Note_on_c, 0, 66, 0
2, 92460, Note_on_c, 0, 67, 115
2, 92490, Note_on_c, 0, 67, 0
2, 92490, Note_on_c, 0, 69, 115
2, 92520, Note_on_c, 0, 69, 0
2, 92520, Note_on_c, 0, 71, 115
2, 92550, Note_on_c, 0, 71, 0
2, 92550, Note_on_c, 0, 72, 115
2, 92580, Note_on_c, 0, 72, 0
2, 92580, Note_on_c, 0, 74, 115
2, 92610, Note_on_c, 0, 74, 0
2, 92610, Note_on_c, 0, 76, 115
2, 92640, Note_on_c, 0, 76, 0
2, 92640, Note_on_c, 0, 71, 115
2, 92640, Note_on_c, 0, 77, 115
2, 92880, Note_on_c, 0, 77, 0
2, 92880, Note_on_c, 0, 76, 115
2, 93000, Note_on_c, 0, 76, 0
2, 93000, Note_on_c, 0, 74, 115
2, 93120, Note_on_c, 0, 74, 0
2, 93120, Note_on_c, 0, 72, 115
2, 93360, Note_on_c, 0, 71, 0
2, 93360, Note_on_c, 0, 69, 115
2, 93480, Note_on_c, 0, 69, 0
2, 93480, Note_on_c, 0, 67, 115
2, 93600, Note_on_c, 0, 67, 0
2, 93600, Note_on_c, 0, 72, 0
2, 93600, Note_on_c, 0, 65, 115
2, 93600, Note_on_c, 0, 70, 115
2, 93720, Note_on_c, 0, 70, 0
2, 93720, Note_on_c, 0, 65, 0
2, 93750, Note_on_c, 0, 65, 115
2, 93780, Note_on_c, 0, 65, 0
2, 93780, Note_on_c, 0, 67, 115
2, 93810, Note_on_c, 0, 67, 0
2, 93810, Note_on_c, 0, 69, 115
2, 93840, Note_on_c, 0, 69, 0
2, 93840, Note_on_c, 0, 70, 115
2, 93870, Note_on_c, 0, 70, 0
2, 93870, Note_on_c, 0, 72, 115
2, 93900, Note_on_c, 0, 72, 0
2, 93900, Note_on_c, 0, 74, 115
2, 93930, Note_on_c, 0, 74, 0
2, 93930, Note_on_c, 0, 75, 115
2, 93960, Note_on_c, 0, 75, 0
2, 93960, Note_on_c, 0, 77, 115
2, 93990, Note_on_c, 0, 77, 0
2, 93990, Note_on_c, 0, 79, 115
2, 94020, Note_on_c, 0, 79, 0
2, 94020, Note_on_c, 0, 81, 115
2, 94050, Note_on_c, 0, 81, 0
2, 94050, Note_on_c, 0, 82, 115
2, 94080, Note_on_c, 0, 82, 0
2, 94080, Note_on_c, 0, 64, 115
2, 94080, Note_on_c, 0, 68, 115
2, 94320, Note_on_c, 0, 68, 0
2, 94320, Note_on_c, 0, 69, 115
2, 94800, Note_on_c, 0, 69, 0
2, 94800, Note_on_c, 0, 64, 0
2, 94800, Note_on_c, 0, 63, 115
2, 94800, Note_on_c, 0, 68, 115
2, 94920, Note_on_c, 0, 68, 0
2, 94920, Note_on_c, 0, 66, 115
2, 95040, Note_on_c, 0, 66, 0
2, 95040, Note_on_c, 0, 68, 115
2, 95280, Note_on_c, 0, 63, 0
2, 95280, Note_on_c, 0, 64, 115
2, 95400, Note_on_c, 0, 64, 0
2, 95400, Note_on_c, 0, 66, 115
2, 95520, Note_on_c, 0, 66, 0
2, 95520, Note_on_c, 0, 64, 115
2, 95760, Note_on_c, 0, 64, 0
2, 95760, Note_on_c, 0, 68, 0
2, 95760, Note_on_c, 0, 59, 115
2, 95760, Note_on_c, 0, 68, 115
2, 95940, Note_on_c, 0, 68, 0
2, 95940, Note_on_c, 0, 68, 115
2, 96000, Note_on_c, 0, 68, 0
2, 96000, Note_on_c, 0, 59, 0
2, 96000, Note_on_c, 0, 64, 115
2, 96000, Note_on_c, 0, 69, 115
2, 97080, Note_on_c, 0, 69, 0
2, 97080, Note_on_c, 0, 72, 115
2, 97200, Note_on_c, 0, 72, 0
2, 97200, Note_on_c, 0, 71, 115
2, 97320, Note_on_c, 0, 71, 0
2, 97320, Note_on_c, 0, 69, 115
2, 97440, Note_on_c, 0, 69, 0
2, 97440, Note_on_c, 0, 68, 115
2, 97680, Note_on_c, 0, 64, 0
2, 97680, Note_on_c, 0, 65, 115
2, 97800, Note_on_c, 0, 68, 0
2, 97800, Note_on_c, 0, 68, 115
2, 97920, Note_on_c, 0, 68, 0
2, 97920, Note_on_c, 0, 65, 0
2, 97920, Note_on_c, 0, 67, 115
2, 97920, Note_on_c, 0, 70, 115
2, 98160, Note_on_c, 0, 70, 0
2, 98160, Note_on_c, 0, 67, 0
2, 98160, Note_on_c, 0, 69, 115
2, 98280, Note_on_c, 0, 69, 0
2, 98280, Note_on_c, 0, 67, 115
2, 98280, Note_on_c, 0, 76, 115
2, 98400, Note_on_c, 0, 67, 0
2, 98400, Note_on_c, 0, 65, 115
2, 98520, Note_on_c, 0, 76, 0
2, 98520, Note_on_c, 0, 77, 115
2, 98580, Note_on_c, 0, 77, 0
2, 98580, Note_on_c, 0, 76, 115
2, 98640, Note_on_c, 0, 76, 0
2, 98640, Note_on_c, 0, 74, 115
2, 98760, Note_on_c, 0, 74, 0
2, 98760, Note_on_c, 0, 81, 115
2, 98820, Note_on_c, 0, 81, 0
2, 98820, Note_on_c, 0, 69, 115
2, 98880, Note_on_c, 0, 69, 0
2, 98880, Note_on_c, 0, 65, 0
2, 98880, Note_on_c, 0, 62, 115
2, 98880, Note_on_c, 0, 70, 115
2, 99120, Note_on_c, 0, 70, 0
2, 99120, Note_on_c, 0, 62, 0
2, 99180, Note_on_c, 0, 79, 115
2, 99240, Note_on_c, 0, 79, 0
2, 99240, Note_on_c, 0, 82, 115
2, 99300, Note_on_c, 0, 82, 0
2, 99300, Note_on_c, 0, 79, 115
2, 99360, Note_on_c, 0, 79, 0
2, 99360, Note_on_c, 0, 75, 115
2, 99420, Note_on_c, 0, 75, 0
2, 99420, Note_on_c, 0, 77, 115
2, 99480, Note_on_c, 0, 77, 0
2, 99480, Note_on_c, 0, 79, 115
2, 99540, Note_on_c, 0, 79, 0
2, 99540, Note_on_c, 0, 74, 115
2, 99600, Note_on_c, 0, 74, 0
2, 99600, Note_on_c, 0, 75, 115
2, 99660, Note_on_c, 0, 75, 0
2, 99660, Note_on_c, 0, 70, 115
2, 99720, Note_on_c, 0, 70, 0
2, 99720, Note_on_c, 0, 67, 115
2, 99780, Note_on_c, 0, 67, 0
2, 99780, Note_on_c, 0, 63, 115
2, 99840, Note_on_c, 0, 63, 0
2, 99960, Note_on_c, 0, 69, 115
2, 99960, Note_on_c, 0, 73, 115
2, 100080, Note_on_c, 0, 73, 0
2, 100080, Note_on_c, 0, 69, 0
2, 100080, Note_on_c, 0, 67, 115
2, 100080, Note_on_c, 0, 74, 115
2, 100200, Note_on_c, 0, 67, 0
2, 100200, Note_on_c, 0, 65, 115
2, 100320, Note_on_c, 0, 65, 0
2, 100320, Note_on_c, 0, 67, 115
2, 100560, Note_on_c, 0, 67, 0
2, 100560, Note_on_c, 0, 74, 0
2, 100560, Note_on_c, 0, 69, 115
2, 100560, Note_on_c, 0, 73, 115
2, 100800, Note_on_c, 0, 73, 0
2, 100800, Note_on_c, 0, 69, 0
2, 100800, Note_on_c, 0, 70, 115
2, 100800, Note_on_c, 0, 74, 115
2, 101040, Note_on_c, 0, 74, 0
2, 101100, Note_on_c, 0, 70, 0
2, 101100, Note_on_c, 0, 69, 115
2, 101160, Note_on_c, 0, 69, 0
2, 101160, Note_on_c, 0, 67, 115
2, 101220, Note_on_c, 0, 67, 0
2, 101220, Note_on_c, 0, 69, 115
2, 101250, Note_on_c, 0, 69, 0
2, 101250, Note_on_c, 0, 70, 115
2, 101280, Note_on_c, 0, 70, 0
2, 101280, Note_on_c, 0, 58, 115
2, 101280, Note_on_c, 0, 61, 115
2, 101520, Note_on_c, 0, 58, 0
2, 101520, Note_on_c, 0, 57, 115
2, 101640, Note_on_c, 0, 61, 0
2, 101640, Note_on_c, 0, 61, 115
2, 101760, Note_on_c, 0, 61, 0
2, 101760, Note_on_c, 0, 57, 0
2, 101760, Note_on_c, 0, 57, 115
2, 101760, Note_on_c, 0, 62, 115
2, 102720, Note_on_c, 0, 62, 0
2, 102720, Note_on_c, 0, 57, 0
2, 108960, Note_on_c, 0, 69, 90
2, 109020, Note_on_c, 0, 69, 0
2, 109020, Note_on_c, 0, 71, 90
2, 109080, Note_on_c, 0, 71, 0
2, 109080, Note_on_c, 0, 73, 90
2, 109140, Note_on_c, 0, 73, 0
2, 109140, Note_on_c, 0, 71, 90
2, 109200, Note_on_c, 0, 71, 0
2, 109200, Note_on_c, 0, 69, 90
2, 109260, Note_on_c, 0, 69, 0
2, 109260, Note_on_c, 0, 71, 90
2, 109320, Note_on_c, 0, 71, 0
2, 109320, Note_on_c, 0, 73, 90
2, 109380, Note_on_c, 0, 73, 0
2, 109380, Note_on_c, 0, 71, 90
2, 109440, Note_on_c, 0, 71, 0
2, 109440, Note_on_c, 0, 69, 90
2, 109500, Note_on_c, 0, 69, 0
2, 109500, Note_on_c, 0, 71, 90
2, 109560, Note_on_c, 0, 71, 0
2, 109560, Note_on_c, 0, 73, 90
2, 109620, Note_on_c, 0, 73, 0
2, 109620, Note_on_c, 0, 71, 90
2, 109680, Note_on_c, 0, 71, 0
2, 109680, Note_on_c, 0, 69, 90
2, 109740, Note_on_c, 0, 69, 0
2, 109740, Note_on_c, 0, 71, 90
2, 109800, Note_on_c, 0, 71, 0
2, 109800, Note_on_c, 0, 73, 90
2, 109860, Note_on_c, 0, 73, 0
2, 109860, Note_on_c, 0, 71, 90
2, 109920, Note_on_c, 0, 71, 0
2, 109920, Note_on_c, 0, 69, 90
2, 110040, Note_on_c, 0, 69, 0
2, 110640, Note_on_c, 0, 78, 90
2, 110700, Note_on_c, 0, 78, 0
2, 110700, Note_on_c, 0, 76, 90
2, 110760, Note_on_c, 0, 76, 0
2, 110760, Note_on_c, 0, 78, 90
2, 110820, Note_on_c, 0, 78, 0
2, 110820, Note_on_c, 0, 73, 90
2, 110880, Note_on_c, 0, 73, 0
2, 110880, Note_on_c, 0, 74, 90
2, 110940, Note_on_c, 0, 74, 0
2, 110940, Note_on_c, 0, 73, 90
2, 111000, Note_on_c, 0, 73, 0
2, 111000, Note_on_c, 0, 74, 90
2, 111060, Note_on_c, 0, 74, 0
2, 111060, Note_on_c, 0, 71, 90
2, 111120, Note_on_c, 0, 71, 0
2, 111120, Note_on_c, 0, 76, 90
2, 111180, Note_on_c, 0, 76, 0
2, 111180, Note_on_c, 0, 74, 90
2, 111240, Note_on_c, 0, 74, 0
2, 111240, Note_on_c, 0, 76, 90
2, 111300, Note_on_c, 0, 76, 0
2, 111300, Note_on_c, 0, 71, 90
2, 111360, Note_on_c, 0, 71, 0
2, 111360, Note_on_c, 0, 73, 90
2, 111420, Note_on_c, 0, 73, 0
2, 111420, Note_on_c, 0, 71, 90
2, 111480, Note_on_c, 0, 71, 0
2, 111480, Note_on_c, 0, 73, 90
2, 111540, Note_on_c, 0, 73, 0
2, 111540, Note_on_c, 0, 69, 90
2, 111600, Note_on_c, 0, 69, 0
2, 111600, Note_on_c, 0, 74, 90
2, 111660, Note_on_c, 0, 74, 0
2, 111660, Note_on_c, 0, 73, 90
2, 111720, Note_on_c, 0, 73, 0
2, 111720, Note_on_c, 0, 74, 90
2, 111780, Note_on_c, 0, 74, 0
2, 111780, Note_on_c, 0, 69, 90
2, 111840, Note_on_c, 0, 69, 0
2, 111840, Note_on_c, 0, 71, 90
2, 111900, Note_on_c, 0, 71, 0
2, 111900, Note_on_c, 0, 69, 90
2, 111960, Note_on_c, 0, 69, 0
2, 111960, Note_on_c, 0, 71, 90
2, 112020, Note_on_c, 0, 71, 0
2, 112020, Note_on_c, 0, 68, 90
2, 112080, Note_on_c, 0, 68, 0
2, 112080, Note_on_c, 0, 73, 90
2, 112140, Note_on_c, 0, 73, 0
2, 112140, Note_on_c, 0, 71, 90
2, 112200, Note_on_c, 0, 71, 0
2, 112200, Note_on_c, 0, 73, 90
2, 112260, Note_on_c, 0, 73, 0
2, 112260, Note_on_c, 0, 68, 90
2, 112320, Note_on_c, 0, 68, 0
2, 112320, Note_on_c, 0, 69, 90
2, 112380, Note_on_c, 0, 69, 0
2, 112380, Note_on_c, 0, 68, 90
2, 112440, Note_on_c, 0, 68, 0
2, 112440, Note_on_c, 0, 69, 90
2, 112500, Note_on_c, 0, 69, 0
2, 112500, Note_on_c, 0, 66, 90
2, 112560, Note_on_c, 0, 66, 0
2, 112560, Note_on_c, 0, 71, 90
2, 112620, Note_on_c, 0, 71, 0
2, 112620, Note_on_c, 0, 69, 90
2, 112680, Note_on_c, 0, 69, 0
2, 112680, Note_on_c, 0, 71, 90
2, 112740, Note_on_c, 0, 71, 0
2, 112740, Note_on_c, 0, 66, 90
2, 112800, Note_on_c, 0, 66, 0
2, 112800, Note_on_c, 0, 68, 90
2, 112860, Note_on_c, 0, 68, 0
2, 112860, Note_on_c, 0, 66, 90
2, 112920, Note_on_c, 0, 66, 0
2, 112920, Note_on_c, 0, 68, 90
2, 112980, Note_on_c, 0, 68, 0
2, 112980, Note_on_c, 0, 64, 90
2, 113040, Note_on_c, 0, 64, 0
2, 113040, Note_on_c, 0, 69, 90
2, 113340, Note_on_c, 0, 69, 0
2, 113340, Note_on_c, 0, 71, 90
2, 113400, Note_on_c, 0, 71, 0
2, 113400, Note_on_c, 0, 69, 90
2, 113460, Note_on_c, 0, 69, 0
2, 113460, Note_on_c, 0, 71, 90
2, 113520, Note_on_c, 0, 71, 0
2, 113520, Note_on_c, 0, 68, 90
2, 113550, Note_on_c, 0, 68, 0
2, 113550, Note_on_c, 0, 66, 90
2, 113580, Note_on_c, 0, 66, 0
2, 113580, Note_on_c, 0, 68, 90
2, 113700, Note_on_c, 0, 68, 0
2, 113700, Note_on_c, 0, 69, 90
2, 113760, Note_on_c, 0, 69, 0
2, 113760, Note_on_c, 0, 69, 90
2, 113820, Note_on_c, 0, 69, 0
2, 113820, Note_on_c, 0, 73, 90
2, 113880, Note_on_c, 0, 73, 0
2, 113880, Note_on_c, 0, 69, 90
2, 113940, Note_on_c, 0, 69, 0
2, 113940, Note_on_c, 0, 64, 90
2, 114000, Note_on_c, 0, 64, 0
2, 114240, Note_on_c, 0, 74, 90
2, 114300, Note_on_c, 0, 74, 0
2, 114300, Note_on_c, 0, 78, 90
2, 114360, Note_on_c, 0, 78, 0
2, 114360, Note_on_c, 0, 74, 90
2, 114420, Note_on_c, 0, 74, 0
2, 114420, Note_on_c, 0, 69, 90
2, 114480, Note_on_c, 0, 69, 0
2, 114720, Note_on_c, 0, 67, 90
2, 114780, Note_on_c, 0, 67, 0
2, 114780, Note_on_c, 0, 71, 90
2, 114840, Note_on_c, 0, 71, 0
2, 114840, Note_on_c, 0, 67, 90
2, 114900, Note_on_c, 0, 67, 0
2, 114900, Note_on_c, 0, 62, 90
2, 114960, Note_on_c, 0, 62, 0
2, 115260, Note_on_c, 0, 64, 90
2, 115320, Note_on_c, 0, 64, 0
2, 115320, Note_on_c, 0, 69, 90
2, 115380, Note_on_c, 0, 69, 0
2, 115380, Note_on_c, 0, 64, 90
2, 115440, Note_on_c, 0, 64, 0
2, 115440, Note_on_c, 0, 66, 90
2, 115560, Note_on_c, 0, 66, 0
2, 115560, Note_on_c, 0, 66, 90
2, 115680, Note_on_c, 0, 66, 0
2, 115680, Note_on_c, 0, 67, 90
2, 115740, Note_on_c, 0, 67, 0
2, 115740, Note_on_c, 0, 69, 90
2, 115800, Note_on_c, 0, 69, 0
2, 115800, Note_on_c, 0, 66, 90
2, 115860, Note_on_c, 0, 66, 0
2, 115860, Note_on_c, 0, 67, 90
2, 115920, Note_on_c, 0, 67, 0
2, 115920, Note_on_c, 0, 64, 90
2, 115950, Note_on_c, 0, 64, 0
2, 115950, Note_on_c, 0, 62, 90
2, 115980, Note_on_c, 0, 62, 0
2, 115980, Note_on_c, 0, 64, 90
2, 116100, Note_on_c, 0, 64, 0
2, 116100, Note_on_c, 0, 62, 90
2, 116160, Note_on_c, 0, 62, 0
2, 116160, Note_on_c, 0, 74, 90
2, 116220, Note_on_c, 0, 74, 0
2, 116220, Note_on_c, 0, 76, 90
2, 116280, Note_on_c, 0, 76, 0
2, 116280, Note_on_c, 0, 78, 90
2, 116340, Note_on_c, 0, 78, 0
2, 116340, Note_on_c, 0, 76, 90
2, 116400, Note_on_c, 0, 76, 0
2, 116400, Note_on_c, 0, 74, 90
2, 116460, Note_on_c, 0, 74, 0
2, 116460, Note_on_c, 0, 76, 90
2, 116520, Note_on_c, 0, 76, 0
2, 116520, Note_on_c, 0, 78, 90
2, 116580, Note_on_c, 0, 78, 0
2, 116580, Note_on_c, 0, 76, 90
2, 116640, Note_on_c, 0, 76, 0
2, 116640, Note_on_c, 0, 74, 90
2, 116700, Note_on_c, 0, 74, 0
2, 116700, Note_on_c, 0, 76, 90
2, 116760, Note_on_c, 0, 76, 0
2, 116760, Note_on_c, 0, 78, 90
2, 116820, Note_on_c, 0, 78, 0
2, 116820, Note_on_c, 0, 76, 90
2, 116880, Note_on_c, 0, 76, 0
2, 116880, Note_on_c, 0, 74, 90
2, 116940, Note_on_c, 0, 74, 0
2, 116940, Note_on_c, 0, 76, 90
2, 117000, Note_on_c, 0, 76, 0
2, 117000, Note_on_c, 0, 78, 90
2, 117060, Note_on_c, 0, 78, 0
2, 117060, Note_on_c, 0, 76, 90
2, 117120, Note_on_c, 0, 76, 0
2, 117120, Note_on_c, 0, 74, 90
2, 117240, Note_on_c, 0, 74, 0
2, 117840, Note_on_c, 0, 83, 90
2, 117900, Note_on_c, 0, 83, 0
2, 117900, Note_on_c, 0, 81, 90
2, 117960, Note_on_c, 0, 81, 0
2, 117960, Note_on_c, 0, 83, 90
2, 118020, Note_on_c, 0, 83, 0
2, 118020, Note_on_c, 0, 78, 90
2, 118080, Note_on_c, 0, 78, 0
2, 118080, Note_on_c, 0, 79, 90
2, 118140, Note_on_c, 0, 79, 0
2, 118140, Note_on_c, 0, 78, 90
2, 118200, Note_on_c, 0, 78, 0
2, 118200, Note_on_c, 0, 79, 90
2, 118260, Note_on_c, 0, 79, 0
2, 118260, Note_on_c, 0, 76, 90
2, 118320, Note_on_c, 0, 76, 0
2, 118320, Note_on_c, 0, 81, 90
2, 118380, Note_on_c, 0, 81, 0
2, 118380, Note_on_c, 0, 79, 90
2, 118440, Note_on_c, 0, 79, 0
2, 118440, Note_on_c, 0, 81, 90
2, 118500, Note_on_c, 0, 81, 0
2, 118500, Note_on_c, 0, 76, 90
2, 118560, Note_on_c, 0, 76, 0
2, 118560, Note_on_c, 0, 78, 90
2, 118620, Note_on_c, 0, 78, 0
2, 118620, Note_on_c, 0, 76, 90
2, 118680, Note_on_c, 0, 76, 0
2, 118680, Note_on_c, 0, 78, 90
2, 118740, Note_on_c, 0, 78, 0
2, 118740, Note_on_c, 0, 74, 90
2, 118800, Note_on_c, 0, 74, 0
2, 118800, Note_on_c, 0, 79, 90
2, 118860, Note_on_c, 0, 79, 0
2, 118860, Note_on_c, 0, 78, 90
2, 118920, Note_on_c, 0, 78, 0
2, 118920, Note_on_c, 0, 79, 90
2, 118980, Note_on_c, 0, 79, 0
2, 118980, Note_on_c, 0, 74, 90
2, 119040, Note_on_c, 0, 74, 0
2, 119040, Note_on_c, 0, 76, 90
2, 119100, Note_on_c, 0, 76, 0
2, 119100, Note_on_c, 0, 74, 90
2, 119160, Note_on_c, 0, 74, 0
2, 119160, Note_on_c, 0, 76, 90
2, 119220, Note_on_c, 0, 76, 0
2, 119220, Note_on_c, 0, 73, 90
2, 119280, Note_on_c, 0, 73, 0
2, 119280, Note_on_c, 0, 78, 90
2, 119340, Note_on_c, 0, 78, 0
2, 119340, Note_on_c, 0, 76, 90
2, 119400, Note_on_c, 0, 76, 0
2, 119400, Note_on_c, 0, 78, 90
2, 119460, Note_on_c, 0, 78, 0
2, 119460, Note_on_c, 0, 73, 90
2, 119520, Note_on_c, 0, 73, 0
2, 119520, Note_on_c, 0, 74, 90
2, 119580, Note_on_c, 0, 74, 0
2, 119580, Note_on_c, 0, 73, 90
2, 119640, Note_on_c, 0, 73, 0
2, 119640, Note_on_c, 0, 74, 90
2, 119700, Note_on_c, 0, 74, 0
2, 119700, Note_on_c, 0, 71, 90
2, 119760, Note_on_c, 0, 71, 0
2, 119760, Note_on_c, 0, 76, 90
2, 119820, Note_on_c, 0, 76, 0
2, 119820, Note_on_c, 0, 74, 90
2, 119880, Note_on_c, 0, 74, 0
2, 119880, Note_on_c, 0, 76, 90
2, 119940, Note_on_c, 0, 76, 0
2, 119940, Note_on_c, 0, 71, 90
2, 120000, Note_on_c, 0, 71, 0
2, 120000, Note_on_c, 0, 73, 90
2, 120060, Note_on_c, 0, 73, 0
2, 120060, Note_on_c, 0, 71, 90
2, 120120, Note_on_c, 0, 71, 0
2, 120120, Note_on_c, 0, 73, 90
2, 120180, Note_on_c, 0, 73, 0
2, 120180, Note_on_c, 0, 69, 90
2, 120240, Note_on_c, 0, 69, 0
2, 120240, Note_on_c, 0, 74, 90
2, 120480, Note_on_c, 0, 74, 0
2, 120480, Note_on_c, 0, 74, 90
2, 120540, Note_on_c, 0, 74, 0
2, 120540, Note_on_c, 0, 76, 90
2, 120600, Note_on_c, 0, 76, 0
2, 120600, Note_on_c, 0, 74, 90
2, 120660, Note_on_c, 0, 74, 0
2, 120660, Note_on_c, 0, 76, 90
2, 120720, Note_on_c, 0, 76, 0
2, 120720, Note_on_c, 0, 73, 90
2, 120750, Note_on_c, 0, 73, 0
2, 120750, Note_on_c, 0, 71, 90
2, 120780, Note_on_c, 0, 71, 0
2, 120780, Note_on_c, 0, 73, 90
2, 120900, Note_on_c, 0, 73, 0
2, 120900, Note_on_c, 0, 74, 90
2, 120960, Note_on_c, 0, 74, 0
2, 120960, Note_on_c, 0, 74, 90
2, 121020, Note_on_c, 0, 74, 0
2, 121020, Note_on_c, 0, 78, 90
2, 121080, Note_on_c, 0, 78, 0
2, 121080, Note_on_c, 0, 74, 90
2, 121140, Note_on_c, 0, 74, 0
2, 121140, Note_on_c, 0, 69, 90
2, 121200, Note_on_c, 0, 69, 0
2, 121200, Note_on_c, 0, 66, 90
2, 121260, Note_on_c, 0, 66, 0
2, 121260, Note_on_c, 0, 69, 90
2, 121320, Note_on_c, 0, 69, 0
2, 121320, Note_on_c, 0, 66, 90
2, 121380, Note_on_c, 0, 66, 0
2, 121380, Note_on_c, 0, 62, 90
2, 121440, Note_on_c, 0, 71, 90
2, 121440, Note_on_c, 0, 80, 90
2, 121500, Note_on_c, 0, 80, 0
2, 121500, Note_on_c, 0, 83, 90
2, 121560, Note_on_c, 0, 83, 0
2, 121560, Note_on_c, 0, 80, 90
2, 121620, Note_on_c, 0, 80, 0
2, 121620, Note_on_c, 0, 76, 90
2, 121680, Note_on_c, 0, 76, 0
2, 121680, Note_on_c, 0, 71, 0
2, 121680, Note_on_c, 0, 62, 0
2, 121680, Note_on_c, 0, 81, 90
2, 121740, Note_on_c, 0, 76, 90
2, 121800, Note_on_c, 0, 76, 0
2, 121800, Note_on_c, 0, 73, 90
2, 121860, Note_on_c, 0, 73, 0
2, 121860, Note_on_c, 0, 69, 90
2, 121920, Note_on_c, 0, 69, 0
2, 121920, Note_on_c, 0, 74, 90
2, 122160, Note_on_c, 0, 74, 0
2, 122160, Note_on_c, 0, 81, 0
2, 122280, Note_on_c, 0, 74, 90
2, 122280, Note_on_c, 0, 80, 90
2, 122400, Note_on_c, 0, 80, 0
2, 122400, Note_on_c, 0, 74, 0
2, 122400, Note_on_c, 0, 73, 90
2, 122400, Note_on_c, 0, 81, 90
2, 122640, Note_on_c, 0, 81, 0
2, 122640, Note_on_c, 0, 73, 0
2, 123480, Note_on_c, 0, 64, 90
2, 123480, Note_on_c, 0, 69, 90
2, 123540, Note_on_c, 0, 69, 0
2, 123540, Note_on_c, 0, 68, 90
2, 123600, Note_on_c, 0, 68, 0
2, 123600, Note_on_c, 0, 64, 0
2, 123600, Note_on_c, 0, 69, 90
2, 123600, Note_on_c, 0, 64, 90
2, 123660, Note_on_c, 0, 69, 0
2, 123660, Note_on_c, 0, 68, 90
2, 123720, Note_on_c, 0, 68, 0
2, 123720, Note_on_c, 0, 64, 0
2, 123720, Note_on_c, 0, 64, 90
2, 123720, Note_on_c, 0, 69, 90
2, 123780, Note_on_c, 0, 69, 0
2, 123780, Note_on_c, 0, 68, 90
2, 123840, Note_on_c, 0, 68, 0
2, 123840, Note_on_c, 0, 64, 0
2, 123840, Note_on_c, 0, 64, 90
2, 123840, Note_on_c, 0, 69, 90
2, 123936, Note_on_c, 0, 69, 0
2, 123960, Note_on_c, 0, 57, 90
2, 124080, Note_on_c, 0, 57, 0
2, 124080, Note_on_c, 0, 64, 0
2, 124200, Note_on_c, 0, 69, 90
2, 124200, Note_on_c, 0, 73, 90
2, 124200, Note_on_c, 0, 81, 90
2, 124296, Note_on_c, 0, 81, 0
2, 124296, Note_on_c, 0, 73, 0
2, 124296, Note_on_c, 0, 69, 0
2, 124320, Note_on_c, 0, 66, 90
2, 124320, Note_on_c, 0, 71, 90
2, 124320, Note_on_c, 0, 81, 90
2, 124560, Note_on_c, 0, 81, 0
2, 124560, Note_on_c, 0, 71, 0
2, 124560, Note_on_c, 0, 66, 0
2, 124680, Note_on_c, 0, 68, 90
2, 124680, Note_on_c, 0, 71, 90
2, 124680, Note_on_c, 0, 80, 90
2, 124776, Note_on_c, 0, 80, 0
2, 124776, Note_on_c, 0, 71, 0
2, 124776, Note_on_c, 0, 68, 0
2, 124800, Note_on_c, 0, 64, 90
2, 124800, Note_on_c, 0, 69, 90
2, 124800, Note_on_c, 0, 80, 90
2, 125040, Note_on_c, 0, 80, 0
2, 125040, Note_on_c, 0, 69, 0
2, 125040, Note_on_c, 0, 64, 0
2, 125160, Note_on_c, 0, 66, 90
2, 125160, Note_on_c, 0, 69, 90
2, 125160, Note_on_c, 0, 78, 90
2, 125256, Note_on_c, 0, 78, 0
2, 125256, Note_on_c, 0, 69, 0
2, 125256, Note_on_c, 0, 66, 0
2, 125280, Note_on_c, 0, 62, 90
2, 125280, Note_on_c, 0, 68, 90
2, 125280, Note_on_c, 0, 78, 90
2, 125520, Note_on_c, 0, 78, 0
2, 125520, Note_on_c, 0, 68, 0
2, 125520, Note_on_c, 0, 62, 0
2, 125640, Note_on_c, 0, 64, 90
2, 125640, Note_on_c, 0, 68, 90
2, 125640, Note_on_c, 0, 76, 90
2, 125736, Note_on_c, 0, 76, 0
2, 125736, Note_on_c, 0, 68, 0
2, 125736, Note_on_c, 0, 64, 0
2, 125760, Note_on_c, 0, 61, 90
2, 125760, Note_on_c, 0, 66, 90
2, 125760, Note_on_c, 0, 76, 90
2, 126000, Note_on_c, 0, 76, 0
2, 126000, Note_on_c, 0, 66, 0
2, 126000, Note_on_c, 0, 61, 0
2, 126120, Note_on_c, 0, 66, 90
2, 126120, Note_on_c, 0, 74, 90
2, 126216, Note_on_c, 0, 74, 0
2, 126216, Note_on_c, 0, 66, 0
2, 126240, Note_on_c, 0, 64, 90
2, 126240, Note_on_c, 0, 74, 90
2, 126480, Note_on_c, 0, 74, 0
2, 126480, Note_on_c, 0, 64, 0
2, 126480, Note_on_c, 0, 73, 90
2, 126540, Note_on_c, 0, 61, 90
2, 126600, Note_on_c, 0, 61, 0
2, 126600, Note_on_c, 0, 66, 90
2, 126660, Note_on_c, 0, 66, 0
2, 126660, Note_on_c, 0, 61, 90
2, 126720, Note_on_c, 0, 61, 0
2, 126720, Note_on_c, 0, 73, 0
2, 126720, Note_on_c, 0, 62, 90
2, 126720, Note_on_c, 0, 71, 90
2, 126960, Note_on_c, 0, 71, 0
2, 126960, Note_on_c, 0, 62, 0
2, 126960, Note_on_c, 0, 71, 90
2, 127020, Note_on_c, 0, 59, 90
2, 127080, Note_on_c, 0, 59, 0
2, 127080, Note_on_c, 0, 64, 90
2, 127140, Note_on_c, 0, 64, 0
2, 127140, Note_on_c, 0, 59, 90
2, 127200, Note_on_c, 0, 59, 0
2, 127200, Note_on_c, 0, 61, 90
2, 127260, Note_on_c, 0, 71, 0
2, 127260, Note_on_c, 0, 64, 90
2, 127320, Note_on_c, 0, 64, 0
2, 127320, Note_on_c, 0, 68, 90
2, 127380, Note_on_c, 0, 68, 0
2, 127380, Note_on_c, 0, 64, 90
2, 127440, Note_on_c, 0, 64, 0
2, 127440, Note_on_c, 0, 61, 0
2, 127440, Note_on_c, 0, 69, 90
2, 127560, Note_on_c, 0, 64, 90
2, 127680, Note_on_c, 0, 64, 0
2, 127680, Note_on_c, 0, 66, 90
2, 127740, Note_on_c, 0, 69, 0
2, 127740, Note_on_c, 0, 71, 90
2, 127800, Note_on_c, 0, 71, 0
2, 127800, Note_on_c, 0, 66, 0
2, 127800, Note_on_c, 0, 62, 90
2, 127800, Note_on_c, 0, 69, 90
2, 127860, Note_on_c, 0, 69, 0
2, 127860, Note_on_c, 0, 71, 90
2, 127920, Note_on_c, 0, 71, 0
2, 127920, Note_on_c, 0, 62, 0
2, 127920, Note_on_c, 0, 64, 90
2, 127920, Note_on_c, 0, 68, 90
2, 127980, Note_on_c, 0, 68, 0
2, 127980, Note_on_c, 0, 69, 90
2, 128040, Note_on_c, 0, 69, 0
2, 128040, Note_on_c, 0, 66, 90
2, 128100, Note_on_c, 0, 66, 0
2, 128100, Note_on_c, 0, 68, 90
2, 128160, Note_on_c, 0, 68, 0
2, 128160, Note_on_c, 0, 64, 0
2, 128160, Note_on_c, 0, 64, 90
2, 128160, Note_on_c, 0, 69, 90
2, 128220, Note_on_c, 0, 69, 0
2, 128220, Note_on_c, 0, 71, 90
2, 128280, Note_on_c, 0, 71, 0
2, 128280, Note_on_c, 0, 64, 0
2, 128280, Note_on_c, 0, 73, 90
2, 128340, Note_on_c, 0, 73, 0
2, 128340, Note_on_c, 0, 71, 90
2, 128400, Note_on_c, 0, 71, 0
2, 128400, Note_on_c, 0, 69, 90
2, 128460, Note_on_c, 0, 69, 0
2, 128460, Note_on_c, 0, 71, 90
2, 128520, Note_on_c, 0, 71, 0
2, 128520, Note_on_c, 0, 73, 90
2, 128580, Note_on_c, 0, 73, 0
2, 128580, Note_on_c, 0, 71, 90
2, 128640, Note_on_c, 0, 71, 0
2, 128640, Note_on_c, 0, 69, 90
2, 128700, Note_on_c, 0, 69, 0
2, 128700, Note_on_c, 0, 71, 90
2, 128760, Note_on_c, 0, 71, 0
2, 128760, Note_on_c, 0, 73, 90
2, 128820, Note_on_c, 0, 73, 0
2, 128820, Note_on_c, 0, 71, 90
2, 128880, Note_on_c, 0, 71, 0
2, 128880, Note_on_c, 0, 69, 90
2, 128940, Note_on_c, 0, 69, 0
2, 128940, Note_on_c, 0, 71, 90
2, 129000, Note_on_c, 0, 71, 0
2, 129000, Note_on_c, 0, 73, 90
2, 129060, Note_on_c, 0, 73, 0
2, 129060, Note_on_c, 0, 71, 90
2, 129120, Note_on_c, 0, 71, 0
2, 129120, Note_on_c, 0, 69, 90
2, 129180, Note_on_c, 0, 69, 0
2, 129180, Note_on_c, 0, 73, 90
2, 129240, Note_on_c, 0, 73, 0
2, 129240, Note_on_c, 0, 69, 90
2, 129300, Note_on_c, 0, 69, 0
2, 129300, Note_on_c, 0, 64, 90
2, 129360, Note_on_c, 0, 64, 0
2, 129660, Note_on_c, 0, 69, 90
2, 129720, Note_on_c, 0, 69, 0
2, 129720, Note_on_c, 0, 74, 90
2, 129780, Note_on_c, 0, 74, 0
2, 129780, Note_on_c, 0, 69, 90
2, 129840, Note_on_c, 0, 69, 0
2, 129840, Note_on_c, 0, 71, 90
2, 129900, Note_on_c, 0, 71, 0
2, 129900, Note_on_c, 0, 74, 90
2, 129960, Note_on_c, 0, 74, 0
2, 129960, Note_on_c, 0, 79, 90
2, 130020, Note_on_c, 0, 79, 0
2, 130020, Note_on_c, 0, 71, 90
2, 130080, Note_on_c, 0, 71, 0
2, 130080, Note_on_c, 0, 73, 90
2, 130140, Note_on_c, 0, 73, 0
2, 130140, Note_on_c, 0, 76, 90
2, 130200, Note_on_c, 0, 76, 0
2, 130200, Note_on_c, 0, 81, 90
2, 130260, Note_on_c, 0, 81, 0
2, 130260, Note_on_c, 0, 73, 90
2, 130320, Note_on_c, 0, 73, 0
2, 130320, Note_on_c, 0, 74, 90
2, 130380, Note_on_c, 0, 74, 0
2, 130380, Note_on_c, 0, 78, 90
2, 130440, Note_on_c, 0, 78, 0
2, 130440, Note_on_c, 0, 83, 90
2, 130500, Note_on_c, 0, 83, 0
2, 130500, Note_on_c, 0, 74, 90
2, 130560, Note_on_c, 0, 74, 0
2, 130560, Note_on_c, 0, 76, 90
2, 130620, Note_on_c, 0, 76, 0
2, 130620, Note_on_c, 0, 81, 90
2, 130680, Note_on_c, 0, 81, 0
2, 130680, Note_on_c, 0, 79, 90
2, 130740, Note_on_c, 0, 79, 0
2, 130740, Note_on_c, 0, 81, 90
2, 130800, Note_on_c, 0, 81, 0
2, 130800, Note_on_c, 0, 78, 90
2, 130860, Note_on_c, 0, 78, 0
2, 130860, Note_on_c, 0, 76, 90
2, 130920, Note_on_c, 0, 76, 0
2, 130920, Note_on_c, 0, 78, 90
2, 130980, Note_on_c, 0, 78, 0
2, 130980, Note_on_c, 0, 74, 90
2, 131040, Note_on_c, 0, 74, 0
2, 131040, Note_on_c, 0, 79, 90
2, 131100, Note_on_c, 0, 79, 0
2, 131100, Note_on_c, 0, 78, 90
2, 131160, Note_on_c, 0, 78, 0
2, 131160, Note_on_c, 0, 79, 90
2, 131220, Note_on_c, 0, 79, 0
2, 131220, Note_on_c, 0, 81, 90
2, 131280, Note_on_c, 0, 81, 0
2, 131280, Note_on_c, 0, 76, 90
2, 131460, Note_on_c, 0, 76, 0
2, 131460, Note_on_c, 0, 74, 90
2, 131520, Note_on_c, 0, 74, 0
2, 131520, Note_on_c, 0, 62, 90
2, 131520, Note_on_c, 0, 74, 90
2, 131580, Note_on_c, 0, 62, 0
2, 131580, Note_on_c, 0, 64, 90
2, 131640, Note_on_c, 0, 64, 0
2, 131640, Note_on_c, 0, 66, 90
2, 131700, Note_on_c, 0, 66, 0
2, 131700, Note_on_c, 0, 64, 90
2, 131760, Note_on_c, 0, 64, 0
2, 131760, Note_on_c, 0, 74, 0
2, 131760, Note_on_c, 0, 62, 90
2, 131820, Note_on_c, 0, 62, 0
2, 131820, Note_on_c, 0, 64, 90
2, 131880, Note_on_c, 0, 64, 0
2, 131880, Note_on_c, 0, 66, 90
2, 131880, Note_on_c, 0, 76, 90
2, 131940, Note_on_c, 0, 66, 0
2, 131940, Note_on_c, 0, 64, 90
2, 132000, Note_on_c, 0, 64, 0
2, 132000, Note_on_c, 0, 76, 0
2, 132000, Note_on_c, 0, 62, 90
2, 132000, Note_on_c, 0, 78, 90
2, 132060, Note_on_c, 0, 62, 0
2, 132060, Note_on_c, 0, 64, 90
2, 132120, Note_on_c, 0, 64, 0
2, 132120, Note_on_c, 0, 78, 0
2, 132120, Note_on_c, 0, 66, 90
2, 132120, Note_on_c, 0, 79, 90
2, 132180, Note_on_c, 0, 66, 0
2, 132180, Note_on_c, 0, 64, 90
2, 132240, Note_on_c, 0, 64, 0
2, 132240, Note_on_c, 0, 79, 0
2, 132240, Note_on_c, 0, 62, 90
2, 132240, Note_on_c, 0, 81, 90
2, 132300, Note_on_c, 0, 62, 0
2, 132300, Note_on_c, 0, 64, 90
2, 132360, Note_on_c, 0, 64, 0
2, 132360, Note_on_c, 0, 81, 0
2, 132360, Note_on_c, 0, 66, 90
2, 132360, Note_on_c, 0, 69, 90
2, 132420, Note_on_c, 0, 66, 0
2, 132420, Note_on_c, 0, 64, 90
2, 132480, Note_on_c, 0, 64, 0
2, 132480, Note_on_c, 0, 69, 0
2, 132480, Note_on_c, 0, 62, 90
2, 132480, Note_on_c, 0, 74, 90
2, 132600, Note_on_c, 0, 74, 0
2, 132600, Note_on_c, 0, 62, 0
2, 133200, Note_on_c, 0, 71, 90
2, 133260, Note_on_c, 0, 71, 0
2, 133260, Note_on_c, 0, 69, 90
2, 133320, Note_on_c, 0, 69, 0
2, 133320, Note_on_c, 0, 71, 90
2, 133320, Note_on_c, 0, 78, 90
2, 133380, Note_on_c, 0, 71, 0
2, 133380, Note_on_c, 0, 66, 90
2, 133416, Note_on_c, 0, 78, 0
2, 133440, Note_on_c, 0, 66, 0
2, 133440, Note_on_c, 0, 67, 90
2, 133440, Note_on_c, 0, 76, 90
2, 133500, Note_on_c, 0, 67, 0
2, 133500, Note_on_c, 0, 66, 90
2, 133560, Note_on_c, 0, 66, 0
2, 133560, Note_on_c, 0, 67, 90
2, 133620, Note_on_c, 0, 67, 0
2, 133620, Note_on_c, 0, 64, 90
2, 133680, Note_on_c, 0, 64, 0
2, 133680, Note_on_c, 0, 76, 0
2, 133680, Note_on_c, 0, 69, 90
2, 133740, Note_on_c, 0, 69, 0
2, 133740, Note_on_c, 0, 67, 90
2, 133800, Note_on_c, 0, 67, 0
2, 133800, Note_on_c, 0, 69, 90
2, 133800, Note_on_c, 0, 76, 90
2, 133860, Note_on_c, 0, 69, 0
2, 133860, Note_on_c, 0, 64, 90
2, 133896, Note_on_c, 0, 76, 0
2, 133920, Note_on_c, 0, 64, 0
2, 133920, Note_on_c, 0, 66, 90
2, 133920, Note_on_c, 0, 74, 90
2, 133980, Note_on_c, 0, 66, 0
2, 133980, Note_on_c, 0, 64, 90
2, 134040, Note_on_c, 0, 64, 0
2, 134040, Note_on_c, 0, 66, 90
2, 134100, Note_on_c, 0, 66, 0
2, 134100, Note_on_c, 0, 62, 90
2, 134160, Note_on_c, 0, 62, 0
2, 134160, Note_on_c, 0, 74, 0
2, 134160, Note_on_c, 0, 67, 90
2, 134220, Note_on_c, 0, 67, 0
2, 134220, Note_on_c, 0, 66, 90
2, 134280, Note_on_c, 0, 66, 0
2, 134280, Note_on_c, 0, 67, 90
2, 134280, Note_on_c, 0, 74, 90
2, 134340, Note_on_c, 0, 67, 0
2, 134340, Note_on_c, 0, 62, 90
2, 134376, Note_on_c, 0, 74, 0
2, 134400, Note_on_c, 0, 62, 0
2, 134400, Note_on_c, 0, 64, 90
2, 134400, Note_on_c, 0, 73, 90
2, 134460, Note_on_c, 0, 64, 0
2, 134460, Note_on_c, 0, 62, 90
2, 134520, Note_on_c, 0, 62, 0
2, 134520, Note_on_c, 0, 64, 90
2, 134580, Note_on_c, 0, 64, 0
2, 134580, Note_on_c, 0, 61, 90
2, 134640, Note_on_c, 0, 61, 0
2, 134640, Note_on_c, 0, 73, 0
2, 134640, Note_on_c, 0, 66, 90
2, 134700, Note_on_c, 0, 66, 0
2, 134700, Note_on_c, 0, 64, 90
2, 134760, Note_on_c, 0, 64, 0
2, 134760, Note_on_c, 0, 66, 90
2, 134760, Note_on_c, 0, 73, 90
2, 134820, Note_on_c, 0, 66, 0
2, 134820, Note_on_c, 0, 61, 90
2, 134856, Note_on_c, 0, 73, 0
2, 134880, Note_on_c, 0, 61, 0
2, 134880, Note_on_c, 0, 62, 90
2, 134880, Note_on_c, 0, 71, 90
2, 134940, Note_on_c, 0, 62, 0
2, 134940, Note_on_c, 0, 61, 90
2, 135000, Note_on_c, 0, 61, 0
2, 135000, Note_on_c, 0, 62, 90
2, 135060, Note_on_c, 0, 62, 0
2, 135060, Note_on_c, 0, 59, 90
2, 135120, Note_on_c, 0, 59, 0
2, 135120, Note_on_c, 0, 71, 0
2, 135120, Note_on_c, 0, 64, 90
2, 135180, Note_on_c, 0, 64, 0
2, 135180, Note_on_c, 0, 62, 90
2, 135240, Note_on_c, 0, 62, 0
2, 135240, Note_on_c, 0, 64, 90
2, 135240, Note_on_c, 0, 71, 90
2, 135300, Note_on_c, 0, 64, 0
2, 135300, Note_on_c, 0, 59, 90
2, 135336, Note_on_c, 0, 71, 0
2, 135360, Note_on_c, 0, 59, 0
2, 135360, Note_on_c, 0, 61, 90
2, 135360, Note_on_c, 0, 69, 90
2, 135420, Note_on_c, 0, 61, 0
2, 135420, Note_on_c, 0, 59, 90
2, 135480, Note_on_c, 0, 59, 0
2, 135480, Note_on_c, 0, 61, 90
2, 135540, Note_on_c, 0, 61, 0
2, 135540, Note_on_c, 0, 57, 90
2, 135600, Note_on_c, 0, 57, 0
2, 135600, Note_on_c, 0, 69, 0
2, 135600, Note_on_c, 0, 62, 90
2, 135660, Note_on_c, 0, 69, 90
2, 135720, Note_on_c, 0, 69, 0
2, 135720, Note_on_c, 0, 74, 90
2, 135780, Note_on_c, 0, 74, 0
2, 135780, Note_on_c, 0, 69, 90
2, 135840, Note_on_c, 0, 69, 0
2, 135840, Note_on_c, 0, 71, 90
2, 135900, Note_on_c, 0, 62, 0
2, 135900, Note_on_c, 0, 64, 90
2, 135960, Note_on_c, 0, 64, 0
2, 135960, Note_on_c, 0, 71, 0
2, 135960, Note_on_c, 0, 62, 90
2, 135960, Note_on_c, 0, 79, 90
2, 136020, Note_on_c, 0, 62, 0
2, 136020, Note_on_c, 0, 64, 90
2, 136080, Note_on_c, 0, 64, 0
2, 136080, Note_on_c, 0, 79, 0
2, 136080, Note_on_c, 0, 61, 90
2, 136080, Note_on_c, 0, 78, 90
2, 136260, Note_on_c, 0, 78, 0
2, 136260, Note_on_c, 0, 61, 0
2, 136260, Note_on_c, 0, 62, 90
2, 136260, Note_on_c, 0, 76, 90
2, 136320, Note_on_c, 0, 76, 0
2, 136320, Note_on_c, 0, 62, 0
2, 136320, Note_on_c, 0, 62, 90
2, 136320, Note_on_c, 0, 74, 90
2, 136380, Note_on_c, 0, 74, 0
2, 136380, Note_on_c, 0, 76, 90
2, 136440, Note_on_c, 0, 76, 0
2, 136440, Note_on_c, 0, 62, 0
2, 136440, Note_on_c, 0, 64, 90
2, 136440, Note_on_c, 0, 78, 90
2, 136500, Note_on_c, 0, 78, 0
2, 136500, Note_on_c, 0, 76, 90
2, 136560, Note_on_c, 0, 76, 0
2, 136560, Note_on_c, 0, 64, 0
2, 136560, Note_on_c, 0, 66, 90
2, 136560, Note_on_c, 0, 74, 90
2, 136620, Note_on_c, 0, 74, 0
2, 136620, Note_on_c, 0, 78, 90
2, 136680, Note_on_c, 0, 78, 0
2, 136680, Note_on_c, 0, 66, 0
2, 136680, Note_on_c, 0, 68, 90
2, 136680, Note_on_c, 0, 76, 90
2, 136740, Note_on_c, 0, 76, 0
2, 136740, Note_on_c, 0, 74, 90
2, 136800, Note_on_c, 0, 74, 0
2, 136800, Note_on_c, 0, 68, 0
2, 136800, Note_on_c, 0, 69, 90
2, 136800, Note_on_c, 0, 73, 90
2, 136860, Note_on_c, 0, 73, 0
2, 136860, Note_on_c, 0, 69, 0
2, 136860, Note_on_c, 0, 71, 90
2, 136860, Note_on_c, 0, 74, 90
2, 136920, Note_on_c, 0, 74, 0
2, 136920, Note_on_c, 0, 71, 0
2, 136920, Note_on_c, 0, 73, 90
2, 136920, Note_on_c, 0, 76, 90
2, 136980, Note_on_c, 0, 76, 0
2, 136980, Note_on_c, 0, 73, 0
2, 136980, Note_on_c, 0, 71, 90
2, 136980, Note_on_c, 0, 74, 90
2, 137040, Note_on_c, 0, 74, 0
2, 137040, Note_on_c, 0, 71, 0
2, 137040, Note_on_c, 0, 69, 90
2, 137040, Note_on_c, 0, 73, 90
2, 137100, Note_on_c, 0, 73, 0
2, 137100, Note_on_c, 0, 69, 0
2, 137100, Note_on_c, 0, 73, 90
2, 137100, Note_on_c, 0, 76, 90
2, 137160, Note_on_c, 0, 76, 0
2, 137160, Note_on_c, 0, 73, 0
2, 137160, Note_on_c, 0, 71, 90
2, 137160, Note_on_c, 0, 74, 90
2, 137220, Note_on_c, 0, 74, 0
2, 137220, Note_on_c, 0, 71, 0
2, 137220, Note_on_c, 0, 69, 90
2, 137220, Note_on_c, 0, 73, 90
2, 137280, Note_on_c, 0, 73, 0
2, 137280, Note_on_c, 0, 69, 0
2, 137280, Note_on_c, 0, 68, 90
2, 137280, Note_on_c, 0, 71, 90
2, 137340, Note_on_c, 0, 68, 0
2, 137340, Note_on_c, 0, 66, 90
2, 137400, Note_on_c, 0, 66, 0
2, 137400, Note_on_c, 0, 71, 0
2, 137400, Note_on_c, 0, 68, 90
2, 137400, Note_on_c, 0, 76, 90
2, 137460, Note_on_c, 0, 68, 0
2, 137460, Note_on_c, 0, 64, 90
2, 137520, Note_on_c, 0, 64, 0
2, 137520, Note_on_c, 0, 76, 0
2, 137520, Note_on_c, 0, 66, 90
2, 137520, Note_on_c, 0, 74, 90
2, 137580, Note_on_c, 0, 74, 0
2, 137580, Note_on_c, 0, 73, 90
2, 137640, Note_on_c, 0, 73, 0
2, 137640, Note_on_c, 0, 66, 0
2, 137640, Note_on_c, 0, 68, 90
2, 137640, Note_on_c, 0, 74, 90
2, 137700, Note_on_c, 0, 74, 0
2, 137700, Note_on_c, 0, 71, 90
2, 137760, Note_on_c, 0, 71, 0
2, 137760, Note_on_c, 0, 68, 0
2, 137760, Note_on_c, 0, 69, 90
2, 137760, Note_on_c, 0, 73, 90
2, 137820, Note_on_c, 0, 73, 0
2, 137820, Note_on_c, 0, 71, 90
2, 137880, Note_on_c, 0, 71, 0
2, 137880, Note_on_c, 0, 69, 0
2, 137880, Note_on_c, 0, 66, 90
2, 137880, Note_on_c, 0, 69, 90
2, 137940, Note_on_c, 0, 69, 0
2, 137940, Note_on_c, 0, 71, 90
2, 138000, Note_on_c, 0, 71, 0
2, 138000, Note_on_c, 0, 66, 0
2, 138000, Note_on_c, 0, 59, 90
2, 138000, Note_on_c, 0, 68, 90
2, 138120, Note_on_c, 0, 59, 0
2, 138120, Note_on_c, 0, 62, 90
2, 138180, Note_on_c, 0, 68, 0
2, 138180, Note_on_c, 0, 69, 90
2, 138240, Note_on_c, 0, 69, 0
2, 138240, Note_on_c, 0, 62, 0
2, 138240, Note_on_c, 0, 61, 90
2, 138240, Note_on_c, 0, 69, 90
2, 138300, Note_on_c, 0, 61, 0
2, 138300, Note_on_c, 0, 64, 90
2, 138360, Note_on_c, 0, 64, 0
2, 138360, Note_on_c, 0, 69, 0
2, 138360, Note_on_c, 0, 69, 90
2, 138420, Note_on_c, 0, 69, 0
2, 138420, Note_on_c, 0, 64, 90
2, 138480, Note_on_c, 0, 64, 0
2, 138480, Note_on_c, 0, 61, 90
2, 138540, Note_on_c, 0, 61, 0
2, 138540, Note_on_c, 0, 64, 90
2, 138600, Note_on_c, 0, 64, 0
2, 138600, Note_on_c, 0, 69, 90
2, 138660, Note_on_c, 0, 69, 0
2, 138660, Note_on_c, 0, 64, 90
2, 138720, Note_on_c, 0, 64, 0
2, 138720, Note_on_c, 0, 61, 90
2, 138780, Note_on_c, 0, 61, 0
2, 138780, Note_on_c, 0, 64, 90
2, 138840, Note_on_c, 0, 64, 0
2, 138840, Note_on_c, 0, 69, 90
2, 138900, Note_on_c, 0, 69, 0
2, 138900, Note_on_c, 0, 64, 90
2, 138960, Note_on_c, 0, 64, 0
2, 138960, Note_on_c, 0, 61, 90
2, 139020, Note_on_c, 0, 61, 0
2, 139020, Note_on_c, 0, 64, 90
2, 139080, Note_on_c, 0, 64, 0
2, 139080, Note_on_c, 0, 69, 90
2, 139140, Note_on_c, 0, 69, 0
2, 139140, Note_on_c, 0, 64, 90
2, 139200, Note_on_c, 0, 64, 0
2, 139200, Note_on_c, 0, 61, 90
2, 139320, Note_on_c, 0, 61, 0
2, 139320, Note_on_c, 0, 73, 90
2, 139320, Note_on_c, 0, 81, 90
2, 139380, Note_on_c, 0, 81, 0
2, 139380, Note_on_c, 0, 73, 0
2, 139380, Note_on_c, 0, 71, 90
2, 139380, Note_on_c, 0, 80, 90
2, 139440, Note_on_c, 0, 80, 0
2, 139440, Note_on_c, 0, 71, 0
2, 139440, Note_on_c, 0, 73, 90
2, 139440, Note_on_c, 0, 81, 90
2, 139500, Note_on_c, 0, 81, 0
2, 139500, Note_on_c, 0, 73, 0
2, 139500, Note_on_c, 0, 71, 90
2, 139500, Note_on_c, 0, 80, 90
2, 139560, Note_on_c, 0, 80, 0
2, 139560, Note_on_c, 0, 71, 0
2, 139560, Note_on_c, 0, 73, 90
2, 139560, Note_on_c, 0, 81, 90
2, 139620, Note_on_c, 0, 81, 0
2, 139620, Note_on_c, 0, 73, 0
2, 139620, Note_on_c, 0, 71, 90
2, 139620, Note_on_c, 0, 80, 90
2, 139680, Note_on_c, 0, 80, 0
2, 139680, Note_on_c, 0, 71, 0
2, 139680, Note_on_c, 0, 73, 90
2, 139680, Note_on_c, 0, 81, 90
2, 139776, Note_on_c, 0, 81, 0
2, 139776, Note_on_c, 0, 73, 0
2, 139800, Note_on_c, 0, 69, 90
2, 139800, Note_on_c, 0, 69, 90
2, 139920, Note_on_c, 0, 69, 0
2, 139920, Note_on_c, 0, 69, 0
2, 140040, Note_on_c, 0, 69, 90
2, 140040, Note_on_c, 0, 73, 90
2, 140136, Note_on_c, 0, 73, 0
2, 140136, Note_on_c, 0, 69, 0
2, 140160, Note_on_c, 0, 69, 90
2, 140160, Note_on_c, 0, 71, 90
2, 140400, Note_on_c, 0, 71, 0
2, 140400, Note_on_c, 0, 69, 0
2, 140520, Note_on_c, 0, 68, 90
2, 140520, Note_on_c, 0, 71, 90
2, 140616, Note_on_c, 0, 71, 0
2, 140616, Note_on_c, 0, 68, 0
2, 140640, Note_on_c, 0, 68, 90
2, 140640, Note_on_c, 0, 69, 90
2, 140880, Note_on_c, 0, 69, 0
2, 140880, Note_on_c, 0, 68, 0
2, 141000, Note_on_c, 0, 66, 90
2, 141000, Note_on_c, 0, 69, 90
2, 141096, Note_on_c, 0, 69, 0
2, 141096, Note_on_c, 0, 66, 0
2, 141120, Note_on_c, 0, 66, 90
2, 141120, Note_on_c, 0, 68, 90
2, 141360, Note_on_c, 0, 68, 0
2, 141360, Note_on_c, 0, 66, 0
2, 141480, Note_on_c, 0, 64, 90
2, 141480, Note_on_c, 0, 68, 90
2, 141576, Note_on_c, 0, 68, 0
2, 141576, Note_on_c, 0, 64, 0
2, 141600, Note_on_c, 0, 64, 90
2, 141600, Note_on_c, 0, 66, 90
2, 141840, Note_on_c, 0, 66, 0
2, 141840, Note_on_c, 0, 64, 0
2, 141960, Note_on_c, 0, 62, 90
2, 141960, Note_on_c, 0, 66, 90
2, 142056, Note_on_c, 0, 66, 0
2, 142056, Note_on_c, 0, 62, 0
2, 142080, Note_on_c, 0, 62, 90
2, 142080, Note_on_c, 0, 64, 90
2, 142320, Note_on_c, 0, 62, 0
2, 142320, Note_on_c, 0, 61, 90
2, 142380, Note_on_c, 0, 64, 0
2, 142380, Note_on_c, 0, 69, 90
2, 142440, Note_on_c, 0, 69, 0
2, 142440, Note_on_c, 0, 64, 90
2, 142500, Note_on_c, 0, 64, 0
2, 142500, Note_on_c, 0, 61, 90
2, 142560, Note_on_c, 0, 61, 0
2, 142560, Note_on_c, 0, 61, 0
2, 142560, Note_on_c, 0, 59, 90
2, 142560, Note_on_c, 0, 62, 90
2, 142860, Note_on_c, 0, 62, 0
2, 142860, Note_on_c, 0, 64, 90
2, 142920, Note_on_c, 0, 64, 0
2, 142920, Note_on_c, 0, 62, 90
2, 142980, Note_on_c, 0, 62, 0
2, 142980, Note_on_c, 0, 64, 90
2, 143040, Note_on_c, 0, 64, 0
2, 143040, Note_on_c, 0, 59, 0
2, 143040, Note_on_c, 0, 61, 90
2, 143100, Note_on_c, 0, 61, 0
2, 143100, Note_on_c, 0, 64, 90
2, 143160, Note_on_c, 0, 64, 0
2, 143160, Note_on_c, 0, 61, 90
2, 143220, Note_on_c, 0, 61, 0
2, 143220, Note_on_c, 0, 57, 90
2, 143280, Note_on_c, 0, 57, 0
2, 143520, Note_on_c, 0, 57, 90
2, 143580, Note_on_c, 0, 57, 0
2, 143580, Note_on_c, 0, 61, 90
2, 143640, Note_on_c, 0, 61, 0
2, 143640, Note_on_c, 0, 57, 90
2, 143700, Note_on_c, 0, 57, 0
2, 143700, Note_on_c, 0, 52, 90
2, 143760, Note_on_c, 0, 52, 0
2, 144060, Note_on_c, 0, 57, 90
2, 144120, Note_on_c, 0, 57, 0
2, 144120, Note_on_c, 0, 62, 90
2, 144180, Note_on_c, 0, 62, 0
2, 144180, Note_on_c, 0, 57, 90
2, 144240, Note_on_c, 0, 57, 0
2, 144240, Note_on_c, 0, 59, 90
2, 144480, Note_on_c, 0, 59, 0
2, 144540, Note_on_c, 0, 59, 90
2, 144600, Note_on_c, 0, 59, 0
2, 144600, Note_on_c, 0, 64, 90
2, 144660, Note_on_c, 0, 64, 0
2, 144660, Note_on_c, 0, 59, 90
2, 144720, Note_on_c, 0, 59, 0
2, 144720, Note_on_c, 0, 61, 90
2, 144960, Note_on_c, 0, 61, 0
2, 145020, Note_on_c, 0, 61, 90
2, 145080, Note_on_c, 0, 61, 0
2, 145080, Note_on_c, 0, 66, 90
2, 145140, Note_on_c, 0, 66, 0
2, 145140, Note_on_c, 0, 61, 90
2, 145200, Note_on_c, 0, 61, 0
2, 145200, Note_on_c, 0, 62, 90
2, 145260, Note_on_c, 0, 62, 0
2, 145260, Note_on_c, 0, 59, 90
2, 145320, Note_on_c, 0, 59, 0
2, 145320, Note_on_c, 0, 71, 90
2, 145380, Note_on_c, 0, 71, 0
2, 145380, Note_on_c, 0, 62, 90
2, 145440, Note_on_c, 0, 62, 0
2, 145440, Note_on_c, 0, 64, 90
2, 145500, Note_on_c, 0, 64, 0
2, 145500, Note_on_c, 0, 57, 90
2, 145560, Note_on_c, 0, 57, 0
2, 145560, Note_on_c, 0, 69, 90
2, 145620, Note_on_c, 0, 69, 0
2, 145620, Note_on_c, 0, 71, 90
2, 145680, Note_on_c, 0, 71, 0
2, 145680, Note_on_c, 0, 69, 90
2, 145740, Note_on_c, 0, 69, 0
2, 145740, Note_on_c, 0, 71, 90
2, 145800, Note_on_c, 0, 71, 0
2, 145800, Note_on_c, 0, 69, 90
2, 145860, Note_on_c, 0, 69, 0
2, 145860, Note_on_c, 0, 67, 90
2, 145920, Note_on_c, 0, 67, 0
2, 145920, Note_on_c, 0, 66, 90
2, 145980, Note_on_c, 0, 66, 0
2, 145980, Note_on_c, 0, 69, 90
2, 146040, Note_on_c, 0, 69, 0
2, 146040, Note_on_c, 0, 74, 90
2, 146100, Note_on_c, 0, 74, 0
2, 146100, Note_on_c, 0, 69, 90
2, 146160, Note_on_c, 0, 69, 0
2, 146160, Note_on_c, 0, 71, 90
2, 146220, Note_on_c, 0, 71, 0
2, 146220, Note_on_c, 0, 74, 90
2, 146280, Note_on_c, 0, 74, 0
2, 146280, Note_on_c, 0, 79, 90
2, 146340, Note_on_c, 0, 79, 0
2, 146340, Note_on_c, 0, 71, 90
2, 146400, Note_on_c, 0, 71, 0
2, 146400, Note_on_c, 0, 73, 90
2, 146520, Note_on_c, 0, 73, 0
2, 146520, Note_on_c, 0, 74, 90
2, 146820, Note_on_c, 0, 74, 0
2, 146820, Note_on_c, 0, 73, 90
2, 146880, Note_on_c, 0, 73, 0
2, 146880, Note_on_c, 0, 66, 90
2, 146880, Note_on_c, 0, 74, 90
2, 147120, Note_on_c, 0, 74, 0
2, 147120, Note_on_c, 0, 66, 0
2, 147840, Note_on_c, 0, 78, 90
2, 147900, Note_on_c, 0, 78, 0
2, 147900, Note_on_c, 0, 69, 90
2, 147960, Note_on_c, 0, 69, 0
2, 147960, Note_on_c, 0, 74, 90
2, 148020, Note_on_c, 0, 74, 0
2, 148020, Note_on_c, 0, 69, 90
2, 148080, Note_on_c, 0, 69, 0
2, 148080, Note_on_c, 0, 78, 90
2, 148140, Note_on_c, 0, 78, 0
2, 148140, Note_on_c, 0, 69, 90
2, 148200, Note_on_c, 0, 69, 0
2, 148200, Note_on_c, 0, 74, 90
2, 148260, Note_on_c, 0, 74, 0
2, 148260, Note_on_c, 0, 69, 90
2, 148320, Note_on_c, 0, 69, 0
2, 148320, Note_on_c, 0, 78, 90
2, 148380, Note_on_c, 0, 78, 0
2, 148380, Note_on_c, 0, 69, 90
2, 148440, Note_on_c, 0, 69, 0
2, 148440, Note_on_c, 0, 74, 90
2, 148500, Note_on_c, 0, 74, 0
2, 148500, Note_on_c, 0, 69, 90
2, 148560, Note_on_c, 0, 69, 0
2, 148560, Note_on_c, 0, 78, 90
2, 148680, Note_on_c, 0, 78, 0
2, 148680, Note_on_c, 0, 74, 90
2, 148680, Note_on_c, 0, 78, 90
2, 148800, Note_on_c, 0, 78, 0
2, 148800, Note_on_c, 0, 74, 0
2, 148800, Note_on_c, 0, 71, 90
2, 148800, Note_on_c, 0, 76, 90
2, 149040, Note_on_c, 0, 76, 0
2, 149040, Note_on_c, 0, 71, 0
2, 149160, Note_on_c, 0, 73, 90
2, 149160, Note_on_c, 0, 76, 90
2, 149256, Note_on_c, 0, 76, 0
2, 149256, Note_on_c, 0, 73, 0
2, 149280, Note_on_c, 0, 69, 90
2, 149280, Note_on_c, 0, 74, 90
2, 149520, Note_on_c, 0, 74, 0
2, 149520, Note_on_c, 0, 69, 0
2, 149640, Note_on_c, 0, 71, 90
2, 149640, Note_on_c, 0, 74, 90
2, 149736, Note_on_c, 0, 74, 0
2, 149736, Note_on_c, 0, 71, 0
2, 149760, Note_on_c, 0, 67, 90
2, 149760, Note_on_c, 0, 73, 90
2, 150000, Note_on_c, 0, 73, 0
2, 150000, Note_on_c, 0, 67, 0
2, 150120, Note_on_c, 0, 73, 90
2, 150120, Note_on_c, 0, 69, 90
2, 150216, Note_on_c, 0, 69, 0
2, 150216, Note_on_c, 0, 73, 0
2, 150240, Note_on_c, 0, 71, 90
2, 150240, Note_on_c, 0, 66, 90
2, 150480, Note_on_c, 0, 66, 0
2, 150480, Note_on_c, 0, 71, 0
2, 150600, Note_on_c, 0, 71, 90
2, 150600, Note_on_c, 0, 67, 90
2, 150696, Note_on_c, 0, 67, 0
2, 150696, Note_on_c, 0, 71, 0
2, 150720, Note_on_c, 0, 64, 90
2, 150720, Note_on_c, 0, 69, 90
2, 150960, Note_on_c, 0, 64, 0
2, 150960, Note_on_c, 0, 62, 90
2, 151020, Note_on_c, 0, 69, 0
2, 151020, Note_on_c, 0, 74, 90
2, 151080, Note_on_c, 0, 62, 0
2, 151080, Note_on_c, 0, 66, 90
2, 151140, Note_on_c, 0, 74, 0
2, 151140, Note_on_c, 0, 74, 90
2, 151200, Note_on_c, 0, 74, 0
2, 151200, Note_on_c, 0, 66, 0
2, 151200, Note_on_c, 0, 67, 90
2, 151200, Note_on_c, 0, 76, 90
2, 151440, Note_on_c, 0, 76, 0
2, 151440, Note_on_c, 0, 67, 0
2, 151440, Note_on_c, 0, 76, 90
2, 151500, Note_on_c, 0, 76, 0
2, 151500, Note_on_c, 0, 76, 90
2, 151560, Note_on_c, 0, 67, 90
2, 151596, Note_on_c, 0, 76, 0
2, 151620, Note_on_c, 0, 76, 90
2, 151680, Note_on_c, 0, 67, 0
2, 151680, Note_on_c, 0, 66, 90
2, 151728, Note_on_c, 0, 76, 0
2, 151740, Note_on_c, 0, 76, 90
2, 151800, Note_on_c, 0, 66, 0
2, 151800, Note_on_c, 0, 66, 90
2, 151836, Note_on_c, 0, 76, 0
2, 151860, Note_on_c, 0, 76, 90
2, 151908, Note_on_c, 0, 76, 0
2, 151920, Note_on_c, 0, 66, 0
2, 151920, Note_on_c, 0, 66, 90
2, 151980, Note_on_c, 0, 74, 90
2, 152040, Note_on_c, 0, 66, 0
2, 152040, Note_on_c, 0, 66, 90
2, 152076, Note_on_c, 0, 74, 0
2, 152100, Note_on_c, 0, 74, 90
2, 152148, Note_on_c, 0, 74, 0
2, 152160, Note_on_c, 0, 66, 0
2, 152160, Note_on_c, 0, 64, 90
2, 152220, Note_on_c, 0, 74, 90
2, 152280, Note_on_c, 0, 64, 0
2, 152280, Note_on_c, 0, 64, 90
2, 152316, Note_on_c, 0, 74, 0
2, 152340, Note_on_c, 0, 74, 90
2, 152388, Note_on_c, 0, 74, 0
2, 152400, Note_on_c, 0, 64, 0
2, 152400, Note_on_c, 0, 64, 90
2, 152460, Note_on_c, 0, 73, 90
2, 152520, Note_on_c, 0, 64, 0
2, 152520, Note_on_c, 0, 64, 90
2, 152556, Note_on_c, 0, 73, 0
2, 152580, Note_on_c, 0, 73, 90
2, 152640, Note_on_c, 0, 64, 0
2, 152640, Note_on_c, 0, 62, 90
2, 152688, Note_on_c, 0, 73, 0
2, 152700, Note_on_c, 0, 73, 90
2, 152760, Note_on_c, 0, 62, 0
2, 152760, Note_on_c, 0, 62, 90
2, 152796, Note_on_c, 0, 73, 0
2, 152820, Note_on_c, 0, 73, 90
2, 152868, Note_on_c, 0, 73, 0
2, 152880, Note_on_c, 0, 62, 0
2, 152880, Note_on_c, 0, 62, 90
2, 152940, Note_on_c, 0, 71, 90
2, 153000, Note_on_c, 0, 62, 0
2, 153000, Note_on_c, 0, 62, 90
2, 153036, Note_on_c, 0, 71, 0
2, 153060, Note_on_c, 0, 71, 90
2, 153108, Note_on_c, 0, 71, 0
2, 153120, Note_on_c, 0, 62, 0
2, 153120, Note_on_c, 0, 61, 90
2, 153180, Note_on_c, 0, 71, 90
2, 153240, Note_on_c, 0, 61, 0
2, 153240, Note_on_c, 0, 61, 90
2, 153276, Note_on_c, 0, 71, 0
2, 153300, Note_on_c, 0, 71, 90
2, 153348, Note_on_c, 0, 71, 0
2, 153360, Note_on_c, 0, 61, 0
2, 153360, Note_on_c, 0, 61, 90
2, 153420, Note_on_c, 0, 70, 90
2, 153480, Note_on_c, 0, 61, 0
2, 153480, Note_on_c, 0, 61, 90
2, 153516, Note_on_c, 0, 70, 0
2, 153540, Note_on_c, 0, 70, 90
2, 153588, Note_on_c, 0, 70, 0
2, 153600, Note_on_c, 0, 61, 0
2, 153600, Note_on_c, 0, 71, 90
2, 153600, Note_on_c, 0, 62, 90
2, 153840, Note_on_c, 0, 62, 0
2, 153840, Note_on_c, 0, 71, 0
2, 154560, Note_on_c, 0, 62, 90
2, 154620, Note_on_c, 0, 62, 0
2, 154620, Note_on_c, 0, 66, 90
2, 154680, Note_on_c, 0, 66, 0
2, 154680, Note_on_c, 0, 71, 90
2, 154740, Note_on_c, 0, 71, 0
2, 154740, Note_on_c, 0, 66, 90
2, 154800, Note_on_c, 0, 66, 0
2, 154800, Note_on_c, 0, 62, 90
2, 154860, Note_on_c, 0, 62, 0
2, 154860, Note_on_c, 0, 66, 90
2, 154920, Note_on_c, 0, 66, 0
2, 154920, Note_on_c, 0, 71, 90
2, 154980, Note_on_c, 0, 71, 0
2, 154980, Note_on_c, 0, 66, 90
2, 155040, Note_on_c, 0, 66, 0
2, 155040, Note_on_c, 0, 62, 90
2, 155100, Note_on_c, 0, 62, 0
2, 155100, Note_on_c, 0, 66, 90
2, 155160, Note_on_c, 0, 66, 0
2, 155160, Note_on_c, 0, 71, 90
2, 155220, Note_on_c, 0, 71, 0
2, 155220, Note_on_c, 0, 66, 90
2, 155280, Note_on_c, 0, 66, 0
2, 155280, Note_on_c, 0, 62, 90
2, 155340, Note_on_c, 0, 62, 0
2, 155340, Note_on_c, 0, 66, 90
2, 155400, Note_on_c, 0, 66, 0
2, 155400, Note_on_c, 0, 71, 90
2, 155460, Note_on_c, 0, 71, 0
2, 155460, Note_on_c, 0, 66, 90
2, 155520, Note_on_c, 0, 66, 0
2, 155640, Note_on_c, 0, 83, 90
2, 155700, Note_on_c, 0, 83, 0
2, 155700, Note_on_c, 0, 82, 90
2, 155760, Note_on_c, 0, 82, 0
2, 155760, Note_on_c, 0, 83, 90
2, 155820, Note_on_c, 0, 83, 0
2, 155820, Note_on_c, 0, 82, 90
2, 155880, Note_on_c, 0, 82, 0
2, 155880, Note_on_c, 0, 83, 90
2, 155940, Note_on_c, 0, 83, 0
2, 155940, Note_on_c, 0, 82, 90
2, 156000, Note_on_c, 0, 82, 0
2, 156000, Note_on_c, 0, 83, 90
2, 156096, Note_on_c, 0, 83, 0
2, 156120, Note_on_c, 0, 71, 90
2, 156240, Note_on_c, 0, 71, 0
2, 158640, Note_on_c, 0, 79, 90
2, 158700, Note_on_c, 0, 79, 0
2, 158700, Note_on_c, 0, 78, 90
2, 158760, Note_on_c, 0, 78, 0
2, 158760, Note_on_c, 0, 62, 90
2, 158760, Note_on_c, 0, 79, 90
2, 158820, Note_on_c, 0, 79, 0
2, 158820, Note_on_c, 0, 74, 90
2, 158880, Note_on_c, 0, 74, 0
2, 158880, Note_on_c, 0, 62, 0
2, 158880, Note_on_c, 0, 61, 90
2, 158880, Note_on_c, 0, 76, 90
2, 158940, Note_on_c, 0, 76, 0
2, 158940, Note_on_c, 0, 74, 90
2, 159000, Note_on_c, 0, 74, 0
2, 159000, Note_on_c, 0, 76, 90
2, 159060, Note_on_c, 0, 76, 0
2, 159060, Note_on_c, 0, 73, 90
2, 159120, Note_on_c, 0, 73, 0
2, 159120, Note_on_c, 0, 61, 0
2, 159120, Note_on_c, 0, 78, 90
2, 159180, Note_on_c, 0, 78, 0
2, 159180, Note_on_c, 0, 76, 90
2, 159240, Note_on_c, 0, 76, 0
2, 159240, Note_on_c, 0, 61, 90
2, 159240, Note_on_c, 0, 78, 90
2, 159300, Note_on_c, 0, 78, 0
2, 159300, Note_on_c, 0, 73, 90
2, 159360, Note_on_c, 0, 73, 0
2, 159360, Note_on_c, 0, 61, 0
2, 159360, Note_on_c, 0, 74, 90
2, 159420, Note_on_c, 0, 74, 0
2, 159420, Note_on_c, 0, 73, 90
2, 159480, Note_on_c, 0, 73, 0
2, 159480, Note_on_c, 0, 74, 90
2, 159540, Note_on_c, 0, 74, 0
2, 159540, Note_on_c, 0, 71, 90
2, 159600, Note_on_c, 0, 71, 0
2, 159600, Note_on_c, 0, 74, 90
2, 159720, Note_on_c, 0, 74, 0
2, 159720, Note_on_c, 0, 71, 90
2, 159720, Note_on_c, 0, 74, 90
2, 159840, Note_on_c, 0, 74, 0
2, 159840, Note_on_c, 0, 71, 0
2, 159840, Note_on_c, 0, 71, 90
2, 159840, Note_on_c, 0, 73, 90
2, 160080, Note_on_c, 0, 73, 0
2, 160080, Note_on_c, 0, 71, 0
2, 160200, Note_on_c, 0, 70, 90
2, 160200, Note_on_c, 0, 73, 90
2, 160320, Note_on_c, 0, 73, 0
2, 160320, Note_on_c, 0, 70, 0
2, 160320, Note_on_c, 0, 71, 90
2, 160320, Note_on_c, 0, 71, 90
2, 160380, Note_on_c, 0, 71, 0
2, 160380, Note_on_c, 0, 83, 90
2, 160440, Note_on_c, 0, 83, 0
2, 160440, Note_on_c, 0, 82, 90
2, 160500, Note_on_c, 0, 82, 0
2, 160500, Note_on_c, 0, 83, 90
2, 160560, Note_on_c, 0, 83, 0
2, 160560, Note_on_c, 0, 71, 0
2, 160560, Note_on_c, 0, 74, 90
2, 160860, Note_on_c, 0, 74, 0
2, 160860, Note_on_c, 0, 83, 90
2, 160920, Note_on_c, 0, 83, 0
2, 160920, Note_on_c, 0, 82, 90
2, 160980, Note_on_c, 0, 82, 0
2, 160980, Note_on_c, 0, 83, 90
2, 161040, Note_on_c, 0, 83, 0
2, 161040, Note_on_c, 0, 74, 90
2, 161340, Note_on_c, 0, 74, 0
2, 161340, Note_on_c, 0, 83, 90
2, 161400, Note_on_c, 0, 83, 0
2, 161400, Note_on_c, 0, 82, 90
2, 161460, Note_on_c, 0, 82, 0
2, 161460, Note_on_c, 0, 83, 90
2, 161520, Note_on_c, 0, 83, 0
2, 161520, Note_on_c, 0, 74, 90
2, 161820, Note_on_c, 0, 74, 0
2, 161820, Note_on_c, 0, 83, 90
2, 161880, Note_on_c, 0, 83, 0
2, 161880, Note_on_c, 0, 82, 90
2, 161940, Note_on_c, 0, 82, 0
2, 161940, Note_on_c, 0, 83, 90
2, 162000, Note_on_c, 0, 83, 0
2, 162000, Note_on_c, 0, 74, 90
2, 162300, Note_on_c, 0, 74, 0
2, 162300, Note_on_c, 0, 83, 90
2, 162360, Note_on_c, 0, 83, 0
2, 162360, Note_on_c, 0, 82, 90
2, 162420, Note_on_c, 0, 82, 0
2, 162420, Note_on_c, 0, 83, 90
2, 162480, Note_on_c, 0, 83, 0
2, 162480, Note_on_c, 0, 77, 90
2, 162720, Note_on_c, 0, 77, 0
2, 162780, Note_on_c, 0, 73, 90
2, 162840, Note_on_c, 0, 73, 0
2, 162840, Note_on_c, 0, 78, 90
2, 162900, Note_on_c, 0, 78, 0
2, 162900, Note_on_c, 0, 73, 90
2, 162960, Note_on_c, 0, 73, 0
2, 162960, Note_on_c, 0, 74, 90
2, 163200, Note_on_c, 0, 74, 0
2, 163260, Note_on_c, 0, 68, 90
2, 163320, Note_on_c, 0, 68, 0
2, 163320, Note_on_c, 0, 73, 90
2, 163380, Note_on_c, 0, 73, 0
2, 163380, Note_on_c, 0, 68, 90
2, 163440, Note_on_c, 0, 68, 0
2, 163440, Note_on_c, 0, 69, 90
2, 163680, Note_on_c, 0, 69, 0
2, 163740, Note_on_c, 0, 74, 90
2, 163800, Note_on_c, 0, 74, 0
2, 163800, Note_on_c, 0, 79, 90
2, 163860, Note_on_c, 0, 79, 0
2, 163860, Note_on_c, 0, 78, 90
2, 163920, Note_on_c, 0, 78, 0
2, 163920, Note_on_c, 0, 77, 90
2, 163980, Note_on_c, 0, 77, 0
2, 163980, Note_on_c, 0, 73, 90
2, 164040, Note_on_c, 0, 73, 0
2, 164040, Note_on_c, 0, 78, 90
2, 164100, Note_on_c, 0, 78, 0
2, 164100, Note_on_c, 0, 73, 90
2, 164160, Note_on_c, 0, 73, 0
2, 164160, Note_on_c, 0, 74, 90
2, 164220, Note_on_c, 0, 74, 0
2, 164220, Note_on_c, 0, 78, 90
2, 164280, Note_on_c, 0, 78, 0
2, 164280, Note_on_c, 0, 77, 90
2, 164340, Note_on_c, 0, 77, 0
2, 164340, Note_on_c, 0, 78, 90
2, 164400, Note_on_c, 0, 78, 0
2, 164400, Note_on_c, 0, 69, 90
2, 164460, Note_on_c, 0, 69, 0
2, 164460, Note_on_c, 0, 78, 90
2, 164520, Note_on_c, 0, 78, 0
2, 164520, Note_on_c, 0, 68, 90
2, 164580, Note_on_c, 0, 68, 0
2, 164580, Note_on_c, 0, 77, 90
2, 164640, Note_on_c, 0, 77, 0
2, 164640, Note_on_c, 0, 66, 90
2, 164640, Note_on_c, 0, 78, 90
2, 164700, Note_on_c, 0, 66, 0
2, 164700, Note_on_c, 0, 68, 90
2, 164760, Note_on_c, 0, 68, 0
2, 164760, Note_on_c, 0, 78, 0
2, 164760, Note_on_c, 0, 69, 90
2, 164820, Note_on_c, 0, 69, 0
2, 164820, Note_on_c, 0, 68, 90
2, 164880, Note_on_c, 0, 68, 0
2, 164880, Note_on_c, 0, 66, 90
2, 164940, Note_on_c, 0, 66, 0
2, 164940, Note_on_c, 0, 68, 90
2, 165000, Note_on_c, 0, 68, 0
2, 165000, Note_on_c, 0, 69, 90
2, 165060, Note_on_c, 0, 69, 0
2, 165060, Note_on_c, 0, 68, 90
2, 165120, Note_on_c, 0, 68, 0
2, 165120, Note_on_c, 0, 66, 90
2, 165180, Note_on_c, 0, 66, 0
2, 165180, Note_on_c, 0, 68, 90
2, 165240, Note_on_c, 0, 68, 0
2, 165240, Note_on_c, 0, 69, 90
2, 165300, Note_on_c, 0, 69, 0
2, 165300, Note_on_c, 0, 68, 90
2, 165360, Note_on_c, 0, 68, 0
2, 165360, Note_on_c, 0, 66, 90
2, 165420, Note_on_c, 0, 66, 0
2, 165420, Note_on_c, 0, 68, 90
2, 165480, Note_on_c, 0, 68, 0
2, 165480, Note_on_c, 0, 69, 90
2, 165540, Note_on_c, 0, 69, 0
2, 165540, Note_on_c, 0, 68, 90
2, 165600, Note_on_c, 0, 68, 0
2, 165600, Note_on_c, 0, 66, 90
2, 165840, Note_on_c, 0, 66, 0
2, 166320, Note_on_c, 0, 74, 90
2, 166380, Note_on_c, 0, 74, 0
2, 166380, Note_on_c, 0, 73, 90
2, 166440, Note_on_c, 0, 73, 0
2, 166440, Note_on_c, 0, 74, 90
2, 166500, Note_on_c, 0, 74, 0
2, 166500, Note_on_c, 0, 69, 90
2, 166560, Note_on_c, 0, 69, 0
2, 166560, Note_on_c, 0, 71, 90
2, 166620, Note_on_c, 0, 71, 0
2, 166620, Note_on_c, 0, 69, 90
2, 166680, Note_on_c, 0, 69, 0
2, 166680, Note_on_c, 0, 71, 90
2, 166740, Note_on_c, 0, 71, 0
2, 166740, Note_on_c, 0, 68, 90
2, 166800, Note_on_c, 0, 68, 0
2, 166800, Note_on_c, 0, 73, 90
2, 166860, Note_on_c, 0, 73, 0
2, 166860, Note_on_c, 0, 71, 90
2, 166920, Note_on_c, 0, 71, 0
2, 166920, Note_on_c, 0, 73, 90
2, 166980, Note_on_c, 0, 73, 0
2, 166980, Note_on_c, 0, 68, 90
2, 167040, Note_on_c, 0, 68, 0
2, 167040, Note_on_c, 0, 69, 90
2, 167100, Note_on_c, 0, 69, 0
2, 167100, Note_on_c, 0, 68, 90
2, 167160, Note_on_c, 0, 68, 0
2, 167160, Note_on_c, 0, 69, 90
2, 167220, Note_on_c, 0, 69, 0
2, 167220, Note_on_c, 0, 66, 90
2, 167280, Note_on_c, 0, 66, 0
2, 167280, Note_on_c, 0, 71, 90
2, 167340, Note_on_c, 0, 71, 0
2, 167340, Note_on_c, 0, 69, 90
2, 167400, Note_on_c, 0, 69, 0
2, 167400, Note_on_c, 0, 71, 90
2, 167460, Note_on_c, 0, 71, 0
2, 167460, Note_on_c, 0, 66, 90
2, 167520, Note_on_c, 0, 66, 0
2, 167520, Note_on_c, 0, 68, 90
2, 167580, Note_on_c, 0, 68, 0
2, 167580, Note_on_c, 0, 66, 90
2, 167640, Note_on_c, 0, 66, 0
2, 167640, Note_on_c, 0, 68, 90
2, 167700, Note_on_c, 0, 68, 0
2, 167700, Note_on_c, 0, 64, 90
2, 167760, Note_on_c, 0, 64, 0
2, 167760, Note_on_c, 0, 69, 90
2, 167820, Note_on_c, 0, 69, 0
2, 167820, Note_on_c, 0, 68, 90
2, 167880, Note_on_c, 0, 68, 0
2, 167880, Note_on_c, 0, 69, 90
2, 167940, Note_on_c, 0, 69, 0
2, 167940, Note_on_c, 0, 64, 90
2, 168000, Note_on_c, 0, 64, 0
2, 168000, Note_on_c, 0, 66, 90
2, 168060, Note_on_c, 0, 66, 0
2, 168060, Note_on_c, 0, 64, 90
2, 168120, Note_on_c, 0, 64, 0
2, 168120, Note_on_c, 0, 66, 90
2, 168180, Note_on_c, 0, 66, 0
2, 168180, Note_on_c, 0, 63, 90
2, 168240, Note_on_c, 0, 63, 0
2, 168240, Note_on_c, 0, 68, 90
2, 168300, Note_on_c, 0, 68, 0
2, 168300, Note_on_c, 0, 66, 90
2, 168360, Note_on_c, 0, 66, 0
2, 168360, Note_on_c, 0, 68, 90
2, 168420, Note_on_c, 0, 68, 0
2, 168420, Note_on_c, 0, 63, 90
2, 168480, Note_on_c, 0, 63, 0
2, 168480, Note_on_c, 0, 65, 90
2, 168540, Note_on_c, 0, 65, 0
2, 168540, Note_on_c, 0, 63, 90
2, 168600, Note_on_c, 0, 63, 0
2, 168600, Note_on_c, 0, 65, 90
2, 168660, Note_on_c, 0, 65, 0
2, 168660, Note_on_c, 0, 61, 90
2, 168720, Note_on_c, 0, 61, 0
2, 168720, Note_on_c, 0, 66, 90
2, 168840, Note_on_c, 0, 66, 0
2, 168840, Note_on_c, 0, 73, 90
2, 168960, Note_on_c, 0, 73, 0
2, 168960, Note_on_c, 0, 74, 90
2, 169020, Note_on_c, 0, 74, 0
2, 169020, Note_on_c, 0, 65, 90
2, 169080, Note_on_c, 0, 65, 0
2, 169080, Note_on_c, 0, 66, 90
2, 169140, Note_on_c, 0, 66, 0
2, 169140, Note_on_c, 0, 68, 90
2, 169200, Note_on_c, 0, 68, 0
2, 169200, Note_on_c, 0, 65, 90
2, 169230, Note_on_c, 0, 65, 0
2, 169230, Note_on_c, 0, 63, 90
2, 169260, Note_on_c, 0, 63, 0
2, 169260, Note_on_c, 0, 65, 90
2, 169380, Note_on_c, 0, 65, 0
2, 169380, Note_on_c, 0, 66, 90
2, 169440, Note_on_c, 0, 66, 0
2, 169440, Note_on_c, 0, 66, 90
2, 169560, Note_on_c, 0, 66, 0
2, 169560, Note_on_c, 0, 78, 90
2, 169560, Note_on_c, 0, 69, 90
2, 169620, Note_on_c, 0, 69, 0
2, 169620, Note_on_c, 0, 78, 0
2, 169620, Note_on_c, 0, 77, 90
2, 169620, Note_on_c, 0, 68, 90
2, 169680, Note_on_c, 0, 68, 0
2, 169680, Note_on_c, 0, 77, 0
2, 169680, Note_on_c, 0, 78, 90
2, 169680, Note_on_c, 0, 69, 90
2, 169740, Note_on_c, 0, 69, 0
2, 169740, Note_on_c, 0, 78, 0
2, 169740, Note_on_c, 0, 77, 90
2, 169740, Note_on_c, 0, 68, 90
2, 169800, Note_on_c, 0, 68, 0
2, 169800, Note_on_c, 0, 77, 0
2, 169800, Note_on_c, 0, 78, 90
2, 169800, Note_on_c, 0, 69, 90
2, 169860, Note_on_c, 0, 69, 0
2, 169860, Note_on_c, 0, 78, 0
2, 169860, Note_on_c, 0, 77, 90
2, 169860, Note_on_c, 0, 68, 90
2, 169920, Note_on_c, 0, 68, 0
2, 169920, Note_on_c, 0, 77, 0
2, 169920, Note_on_c, 0, 69, 90
2, 169920, Note_on_c, 0, 78, 90
2, 170160, Note_on_c, 0, 78, 0
2, 170160, Note_on_c, 0, 69, 0
2, 170520, Note_on_c, 0, 66, 90
2, 170520, Note_on_c, 0, 73, 90
2, 170580, Note_on_c, 0, 66, 0
2, 170580, Note_on_c, 0, 65, 90
2, 170640, Note_on_c, 0, 65, 0
2, 170640, Note_on_c, 0, 73, 0
2, 170640, Note_on_c, 0, 66, 90
2, 170640, Note_on_c, 0, 73, 90
2, 170700, Note_on_c, 0, 66, 0
2, 170700, Note_on_c, 0, 65, 90
2, 170760, Note_on_c, 0, 65, 0
2, 170760, Note_on_c, 0, 73, 0
2, 170760, Note_on_c, 0, 66, 90
2, 170760, Note_on_c, 0, 73, 90
2, 170820, Note_on_c, 0, 66, 0
2, 170820, Note_on_c, 0, 65, 90
2, 170880, Note_on_c, 0, 65, 0
2, 170880, Note_on_c, 0, 73, 0
2, 170880, Note_on_c, 0, 66, 90
2, 170880, Note_on_c, 0, 73, 90
2, 171120, Note_on_c, 0, 73, 0
2, 171120, Note_on_c, 0, 66, 0
2, 171480, Note_on_c, 0, 61, 90
2, 171480, Note_on_c, 0, 69, 90
2, 171540, Note_on_c, 0, 69, 0
2, 171540, Note_on_c, 0, 68, 90
2, 171600, Note_on_c, 0, 68, 0
2, 171600, Note_on_c, 0, 61, 0
2, 171600, Note_on_c, 0, 61, 90
2, 171600, Note_on_c, 0, 69, 90
2, 171660, Note_on_c, 0, 69, 0
2, 171660, Note_on_c, 0, 68, 90
2, 171720, Note_on_c, 0, 68, 0
2, 171720, Note_on_c, 0, 61, 0
2, 171720, Note_on_c, 0, 61, 90
2, 171720, Note_on_c, 0, 69, 90
2, 171780, Note_on_c, 0, 69, 0
2, 171780, Note_on_c, 0, 68, 90
2, 171840, Note_on_c, 0, 68, 0
2, 171840, Note_on_c, 0, 61, 0
2, 171840, Note_on_c, 0, 61, 90
2, 171840, Note_on_c, 0, 69, 90
2, 172032, Note_on_c, 0, 69, 0
2, 172032, Note_on_c, 0, 61, 0
2, 172200, Note_on_c, 0, 66, 90
2, 172200, Note_on_c, 0, 81, 90
2, 172296, Note_on_c, 0, 81, 0
2, 172296, Note_on_c, 0, 66, 0
2, 172320, Note_on_c, 0, 66, 90
2, 172320, Note_on_c, 0, 80, 90
2, 172560, Note_on_c, 0, 80, 0
2, 172560, Note_on_c, 0, 66, 0
2, 172680, Note_on_c, 0, 64, 90
2, 172680, Note_on_c, 0, 80, 90
2, 172776, Note_on_c, 0, 80, 0
2, 172776, Note_on_c, 0, 64, 0
2, 172800, Note_on_c, 0, 64, 90
2, 172800, Note_on_c, 0, 78, 90
2, 173040, Note_on_c, 0, 78, 0
2, 173040, Note_on_c, 0, 64, 0
2, 173160, Note_on_c, 0, 62, 90
2, 173160, Note_on_c, 0, 78, 90
2, 173256, Note_on_c, 0, 78, 0
2, 173256, Note_on_c, 0, 62, 0
2, 173280, Note_on_c, 0, 62, 90
2, 173280, Note_on_c, 0, 76, 90
2, 173520, Note_on_c, 0, 76, 0
2, 173520, Note_on_c, 0, 62, 0
2, 173640, Note_on_c, 0, 61, 90
2, 173640, Note_on_c, 0, 76, 90
2, 173736, Note_on_c, 0, 76, 0
2, 173736, Note_on_c, 0, 61, 0
2, 173760, Note_on_c, 0, 61, 90
2, 173760, Note_on_c, 0, 75, 90
2, 174000, Note_on_c, 0, 75, 0
2, 174000, Note_on_c, 0, 61, 0
2, 174120, Note_on_c, 0, 75, 90
2, 174216, Note_on_c, 0, 75, 0
2, 174240, Note_on_c, 0, 80, 90
2, 174336, Note_on_c, 0, 80, 0
2, 174360, Note_on_c, 0, 73, 90
2, 174480, Note_on_c, 0, 73, 0
2, 174480, Note_on_c, 0, 73, 90
2, 174540, Note_on_c, 0, 73, 0
2, 174540, Note_on_c, 0, 74, 90
2, 174600, Note_on_c, 0, 74, 0
2, 174600, Note_on_c, 0, 73, 90
2, 174660, Note_on_c, 0, 73, 0
2, 174660, Note_on_c, 0, 74, 90
2, 174720, Note_on_c, 0, 74, 0
2, 174720, Note_on_c, 0, 71, 90
2, 175020, Note_on_c, 0, 71, 0
2, 175020, Note_on_c, 0, 73, 90
2, 175080, Note_on_c, 0, 73, 0
2, 175080, Note_on_c, 0, 71, 90
2, 175140, Note_on_c, 0, 71, 0
2, 175140, Note_on_c, 0, 73, 90
2, 175200, Note_on_c, 0, 73, 0
2, 175200, Note_on_c, 0, 69, 90
2, 175500, Note_on_c, 0, 69, 0
2, 175500, Note_on_c, 0, 71, 90
2, 175560, Note_on_c, 0, 71, 0
2, 175560, Note_on_c, 0, 69, 90
2, 175620, Note_on_c, 0, 69, 0
2, 175620, Note_on_c, 0, 71, 90
2, 175680, Note_on_c, 0, 71, 0
2, 175680, Note_on_c, 0, 68, 90
2, 175740, Note_on_c, 0, 68, 0
2, 175740, Note_on_c, 0, 69, 90
2, 175800, Note_on_c, 0, 69, 0
2, 175800, Note_on_c, 0, 66, 90
2, 175860, Note_on_c, 0, 66, 0
2, 175860, Note_on_c, 0, 68, 90
2, 175920, Note_on_c, 0, 68, 0
2, 175920, Note_on_c, 0, 66, 90
2, 175980, Note_on_c, 0, 66, 0
2, 175980, Note_on_c, 0, 68, 90
2, 176040, Note_on_c, 0, 68, 0
2, 176040, Note_on_c, 0, 66, 90
2, 176100, Note_on_c, 0, 66, 0
2, 176100, Note_on_c, 0, 65, 90
2, 176160, Note_on_c, 0, 65, 0
2, 176160, Note_on_c, 0, 66, 90
2, 176220, Note_on_c, 0, 66, 0
2, 176220, Note_on_c, 0, 69, 90
2, 176280, Note_on_c, 0, 69, 0
2, 176280, Note_on_c, 0, 66, 90
2, 176340, Note_on_c, 0, 66, 0
2, 176340, Note_on_c, 0, 61, 90
2, 176400, Note_on_c, 0, 61, 0
2, 176400, Note_on_c, 0, 57, 90
2, 176460, Note_on_c, 0, 57, 0
2, 176460, Note_on_c, 0, 61, 90
2, 176520, Note_on_c, 0, 61, 0
2, 176520, Note_on_c, 0, 57, 90
2, 176580, Note_on_c, 0, 57, 0
2, 176580, Note_on_c, 0, 54, 90
2, 176640, Note_on_c, 0, 54, 0
2, 176640, Note_on_c, 0, 78, 90
2, 176700, Note_on_c, 0, 78, 0
2, 176700, Note_on_c, 0, 81, 90
2, 176760, Note_on_c, 0, 81, 0
2, 176760, Note_on_c, 0, 78, 90
2, 176820, Note_on_c, 0, 78, 0
2, 176820, Note_on_c, 0, 73, 90
2, 176880, Note_on_c, 0, 73, 0
2, 176880, Note_on_c, 0, 69, 90
2, 176940, Note_on_c, 0, 69, 0
2, 176940, Note_on_c, 0, 73, 90
2, 177000, Note_on_c, 0, 73, 0
2, 177000, Note_on_c, 0, 69, 90
2, 177060, Note_on_c, 0, 69, 0
2, 177060, Note_on_c, 0, 66, 90
2, 177120, Note_on_c, 0, 66, 0
2, 178200, Note_on_c, 0, 78, 90
2, 178260, Note_on_c, 0, 78, 0
2, 178260, Note_on_c, 0, 76, 90
2, 178320, Note_on_c, 0, 76, 0
2, 178320, Note_on_c, 0, 78, 90
2, 178380, Note_on_c, 0, 78, 0
2, 178380, Note_on_c, 0, 76, 90
2, 178440, Note_on_c, 0, 76, 0
2, 178440, Note_on_c, 0, 78, 90
2, 178500, Note_on_c, 0, 78, 0
2, 178500, Note_on_c, 0, 76, 90
2, 178560, Note_on_c, 0, 76, 0
2, 178560, Note_on_c, 0, 75, 90
2, 178680, Note_on_c, 0, 75, 0
2, 178680, Note_on_c, 0, 68, 90
2, 178740, Note_on_c, 0, 68, 0
2, 178740, Note_on_c, 0, 66, 90
2, 178800, Note_on_c, 0, 66, 0
2, 178800, Note_on_c, 0, 68, 90
2, 178860, Note_on_c, 0, 68, 0
2, 178860, Note_on_c, 0, 66, 90
2, 178920, Note_on_c, 0, 66, 0
2, 178920, Note_on_c, 0, 68, 90
2, 178980, Note_on_c, 0, 68, 0
2, 178980, Note_on_c, 0, 66, 90
2, 179040, Note_on_c, 0, 66, 0
2, 179040, Note_on_c, 0, 64, 90
2, 179040, Note_on_c, 0, 76, 90
2, 179100, Note_on_c, 0, 76, 0
2, 179100, Note_on_c, 0, 78, 90
2, 179160, Note_on_c, 0, 78, 0
2, 179160, Note_on_c, 0, 64, 0
2, 179160, Note_on_c, 0, 80, 90
2, 179220, Note_on_c, 0, 80, 0
2, 179220, Note_on_c, 0, 78, 90
2, 179280, Note_on_c, 0, 78, 0
2, 179280, Note_on_c, 0, 76, 90
2, 179340, Note_on_c, 0, 76, 0
2, 179340, Note_on_c, 0, 78, 90
2, 179400, Note_on_c, 0, 78, 0
2, 179400, Note_on_c, 0, 80, 90
2, 179460, Note_on_c, 0, 80, 0
2, 179460, Note_on_c, 0, 78, 90
2, 179520, Note_on_c, 0, 78, 0
2, 179520, Note_on_c, 0, 76, 90
2, 179640, Note_on_c, 0, 76, 0
2, 180600, Note_on_c, 0, 68, 90
2, 180600, Note_on_c, 0, 73, 90
2, 180660, Note_on_c, 0, 73, 0
2, 180660, Note_on_c, 0, 72, 90
2, 180720, Note_on_c, 0, 72, 0
2, 180720, Note_on_c, 0, 68, 0
2, 180720, Note_on_c, 0, 68, 90
2, 180720, Note_on_c, 0, 73, 90
2, 180780, Note_on_c, 0, 73, 0
2, 180780, Note_on_c, 0, 72, 90
2, 180840, Note_on_c, 0, 72, 0
2, 180840, Note_on_c, 0, 68, 0
2, 180840, Note_on_c, 0, 68, 90
2, 180840, Note_on_c, 0, 73, 90
2, 180900, Note_on_c, 0, 73, 0
2, 180900, Note_on_c, 0, 72, 90
2, 180960, Note_on_c, 0, 72, 0
2, 180960, Note_on_c, 0, 68, 0
2, 180960, Note_on_c, 0, 68, 90
2, 180960, Note_on_c, 0, 73, 90
2, 181056, Note_on_c, 0, 73, 0
2, 181080, Note_on_c, 0, 61, 90
2, 181152, Note_on_c, 0, 68, 0
2, 181200, Note_on_c, 0, 61, 0
2, 181320, Note_on_c, 0, 64, 90
2, 181320, Note_on_c, 0, 73, 90
2, 181416, Note_on_c, 0, 73, 0
2, 181416, Note_on_c, 0, 64, 0
2, 181440, Note_on_c, 0, 63, 90
2, 181440, Note_on_c, 0, 73, 90
2, 181680, Note_on_c, 0, 73, 0
2, 181680, Note_on_c, 0, 63, 0
2, 181800, Note_on_c, 0, 72, 90
2, 181896, Note_on_c, 0, 72, 0
2, 181920, Note_on_c, 0, 73, 90
2, 181980, Note_on_c, 0, 73, 0
2, 181980, Note_on_c, 0, 75, 90
2, 182040, Note_on_c, 0, 75, 0
2, 182040, Note_on_c, 0, 76, 90
2, 182100, Note_on_c, 0, 76, 0
2, 182100, Note_on_c, 0, 73, 90
2, 182160, Note_on_c, 0, 73, 0
2, 182160, Note_on_c, 0, 81, 90
2, 182220, Note_on_c, 0, 81, 0
2, 182220, Note_on_c, 0, 80, 90
2, 182280, Note_on_c, 0, 80, 0
2, 182280, Note_on_c, 0, 81, 90
2, 182340, Note_on_c, 0, 81, 0
2, 182340, Note_on_c, 0, 76, 90
2, 182400, Note_on_c, 0, 76, 0
2, 182400, Note_on_c, 0, 78, 90
2, 182460, Note_on_c, 0, 78, 0
2, 182460, Note_on_c, 0, 76, 90
2, 182520, Note_on_c, 0, 76, 0
2, 182520, Note_on_c, 0, 78, 90
2, 182580, Note_on_c, 0, 78, 0
2, 182580, Note_on_c, 0, 75, 90
2, 182640, Note_on_c, 0, 75, 0
2, 182640, Note_on_c, 0, 80, 90
2, 182700, Note_on_c, 0, 80, 0
2, 182700, Note_on_c, 0, 78, 90
2, 182760, Note_on_c, 0, 78, 0
2, 182760, Note_on_c, 0, 80, 90
2, 182820, Note_on_c, 0, 80, 0
2, 182820, Note_on_c, 0, 75, 90
2, 182880, Note_on_c, 0, 75, 0
2, 182880, Note_on_c, 0, 76, 90
2, 182940, Note_on_c, 0, 76, 0
2, 182940, Note_on_c, 0, 75, 90
2, 183000, Note_on_c, 0, 75, 0
2, 183000, Note_on_c, 0, 76, 90
2, 183060, Note_on_c, 0, 76, 0
2, 183060, Note_on_c, 0, 73, 90
2, 183120, Note_on_c, 0, 73, 0
2, 183120, Note_on_c, 0, 78, 90
2, 183180, Note_on_c, 0, 78, 0
2, 183180, Note_on_c, 0, 76, 90
2, 183240, Note_on_c, 0, 76, 0
2, 183240, Note_on_c, 0, 74, 90
2, 183300, Note_on_c, 0, 74, 0
2, 183300, Note_on_c, 0, 73, 90
2, 183360, Note_on_c, 0, 73, 0
2, 183360, Note_on_c, 0, 72, 90
2, 183420, Note_on_c, 0, 72, 0
2, 183420, Note_on_c, 0, 75, 90
2, 183480, Note_on_c, 0, 75, 0
2, 183480, Note_on_c, 0, 73, 90
2, 183540, Note_on_c, 0, 73, 0
2, 183540, Note_on_c, 0, 75, 90
2, 183600, Note_on_c, 0, 75, 0
2, 183600, Note_on_c, 0, 72, 90
2, 183780, Note_on_c, 0, 72, 0
2, 183780, Note_on_c, 0, 73, 90
2, 183840, Note_on_c, 0, 73, 0
2, 183840, Note_on_c, 0, 73, 90
2, 183900, Note_on_c, 0, 73, 0
2, 183900, Note_on_c, 0, 76, 90
2, 183960, Note_on_c, 0, 76, 0
2, 183960, Note_on_c, 0, 73, 90
2, 184020, Note_on_c, 0, 73, 0
2, 184020, Note_on_c, 0, 68, 90
2, 184080, Note_on_c, 0, 68, 0
2, 184320, Note_on_c, 0, 64, 90
2, 184380, Note_on_c, 0, 64, 0
2, 184380, Note_on_c, 0, 68, 90
2, 184440, Note_on_c, 0, 68, 0
2, 184440, Note_on_c, 0, 64, 90
2, 184500, Note_on_c, 0, 64, 0
2, 184500, Note_on_c, 0, 61, 90
2, 184560, Note_on_c, 0, 61, 0
2, 184560, Note_on_c, 0, 56, 90
2, 184620, Note_on_c, 0, 56, 0
2, 184620, Note_on_c, 0, 61, 90
2, 184680, Note_on_c, 0, 61, 0
2, 184680, Note_on_c, 0, 56, 90
2, 184740, Note_on_c, 0, 56, 0
2, 184740, Note_on_c, 0, 52, 90
2, 184800, Note_on_c, 0, 52, 0
2, 184800, Note_on_c, 0, 61, 90
2, 184860, Note_on_c, 0, 61, 0
2, 184860, Note_on_c, 0, 64, 90
2, 184920, Note_on_c, 0, 64, 0
2, 184920, Note_on_c, 0, 61, 90
2, 184980, Note_on_c, 0, 61, 0
2, 184980, Note_on_c, 0, 56, 90
2, 185040, Note_on_c, 0, 56, 0
2, 185040, Note_on_c, 0, 52, 90
2, 185100, Note_on_c, 0, 52, 0
2, 185100, Note_on_c, 0, 56, 90
2, 185160, Note_on_c, 0, 56, 0
2, 185160, Note_on_c, 0, 52, 90
2, 185220, Note_on_c, 0, 52, 0
2, 185220, Note_on_c, 0, 49, 90
2, 185280, Note_on_c, 0, 49, 0
2, 185340, Note_on_c, 0, 70, 90
2, 185400, Note_on_c, 0, 70, 0
2, 185400, Note_on_c, 0, 64, 90
2, 185460, Note_on_c, 0, 64, 0
2, 185460, Note_on_c, 0, 70, 90
2, 185520, Note_on_c, 0, 70, 0
2, 185520, Note_on_c, 0, 63, 90
2, 185580, Note_on_c, 0, 63, 0
2, 185580, Note_on_c, 0, 71, 90
2, 185640, Note_on_c, 0, 71, 0
2, 185640, Note_on_c, 0, 61, 90
2, 185700, Note_on_c, 0, 61, 0
2, 185700, Note_on_c, 0, 73, 90
2, 185760, Note_on_c, 0, 73, 0
2, 185760, Note_on_c, 0, 66, 90
2, 185820, Note_on_c, 0, 66, 0
2, 185820, Note_on_c, 0, 75, 90
2, 185880, Note_on_c, 0, 75, 0
2, 185880, Note_on_c, 0, 68, 90
2, 185940, Note_on_c, 0, 68, 0
2, 185940, Note_on_c, 0, 73, 90
2, 186000, Note_on_c, 0, 73, 0
2, 186000, Note_on_c, 0, 70, 90
2, 186060, Note_on_c, 0, 70, 0
2, 186060, Note_on_c, 0, 73, 90
2, 186120, Note_on_c, 0, 73, 0
2, 186120, Note_on_c, 0, 70, 90
2, 186180, Note_on_c, 0, 70, 0
2, 186180, Note_on_c, 0, 66, 90
2, 186240, Note_on_c, 0, 66, 0
2, 186240, Note_on_c, 0, 71, 90
2, 186360, Note_on_c, 0, 71, 0
2, 186480, Note_on_c, 0, 68, 90
2, 186540, Note_on_c, 0, 68, 0
2, 186540, Note_on_c, 0, 71, 90
2, 186600, Note_on_c, 0, 71, 0
2, 186600, Note_on_c, 0, 68, 90
2, 186660, Note_on_c, 0, 68, 0
2, 186660, Note_on_c, 0, 64, 90
2, 186720, Note_on_c, 0, 64, 0
2, 186720, Note_on_c, 0, 69, 90
2, 186780, Note_on_c, 0, 69, 0
2, 186780, Note_on_c, 0, 64, 90
2, 186840, Note_on_c, 0, 64, 0
2, 186840, Note_on_c, 0, 71, 90
2, 186900, Note_on_c, 0, 71, 0
2, 186900, Note_on_c, 0, 64, 90
2, 186960, Note_on_c, 0, 64, 0
2, 186960, Note_on_c, 0, 73, 90
2, 187020, Note_on_c, 0, 73, 0
2, 187020, Note_on_c, 0, 68, 90
2, 187080, Note_on_c, 0, 68, 0
2, 187080, Note_on_c, 0, 66, 90
2, 187140, Note_on_c, 0, 66, 0
2, 187140, Note_on_c, 0, 64, 90
2, 187200, Note_on_c, 0, 64, 0
2, 187200, Note_on_c, 0, 63, 90
2, 187260, Note_on_c, 0, 63, 0
2, 187260, Note_on_c, 0, 61, 90
2, 187320, Note_on_c, 0, 61, 0
2, 187320, Note_on_c, 0, 59, 90
2, 187440, Note_on_c, 0, 59, 0
2, 187500, Note_on_c, 0, 59, 90
2, 187560, Note_on_c, 0, 59, 0
2, 187560, Note_on_c, 0, 64, 90
2, 187620, Note_on_c, 0, 64, 0
2, 187620, Note_on_c, 0, 59, 90
2, 187680, Note_on_c, 0, 59, 0
2, 187680, Note_on_c, 0, 61, 90
2, 187740, Note_on_c, 0, 61, 0
2, 187740, Note_on_c, 0, 64, 90
2, 187800, Note_on_c, 0, 64, 0
2, 187800, Note_on_c, 0, 69, 90
2, 187860, Note_on_c, 0, 69, 0
2, 187860, Note_on_c, 0, 61, 90
2, 187920, Note_on_c, 0, 61, 0
2, 187920, Note_on_c, 0, 63, 90
2, 187980, Note_on_c, 0, 63, 0
2, 187980, Note_on_c, 0, 66, 90
2, 188040, Note_on_c, 0, 66, 0
2, 188040, Note_on_c, 0, 71, 90
2, 188100, Note_on_c, 0, 71, 0
2, 188100, Note_on_c, 0, 63, 90
2, 188160, Note_on_c, 0, 63, 0
2, 188160, Note_on_c, 0, 64, 90
2, 188220, Note_on_c, 0, 64, 0
2, 188220, Note_on_c, 0, 68, 90
2, 188280, Note_on_c, 0, 68, 0
2, 188280, Note_on_c, 0, 73, 90
2, 188340, Note_on_c, 0, 73, 0
2, 188340, Note_on_c, 0, 64, 90
2, 188400, Note_on_c, 0, 64, 0
2, 188400, Note_on_c, 0, 66, 90
2, 188460, Note_on_c, 0, 66, 0
2, 188460, Note_on_c, 0, 71, 90
2, 188520, Note_on_c, 0, 71, 0
2, 188520, Note_on_c, 0, 69, 90
2, 188580, Note_on_c, 0, 69, 0
2, 188580, Note_on_c, 0, 71, 90
2, 188640, Note_on_c, 0, 71, 0
2, 188640, Note_on_c, 0, 68, 90
2, 188700, Note_on_c, 0, 68, 0
2, 188700, Note_on_c, 0, 71, 90
2, 188760, Note_on_c, 0, 71, 0
2, 188760, Note_on_c, 0, 76, 90
2, 188820, Note_on_c, 0, 76, 0
2, 188820, Note_on_c, 0, 68, 90
2, 188880, Note_on_c, 0, 68, 0
2, 188880, Note_on_c, 0, 66, 90
2, 189060, Note_on_c, 0, 66, 0
2, 189060, Note_on_c, 0, 64, 90
2, 189120, Note_on_c, 0, 64, 0
2, 189120, Note_on_c, 0, 64, 90
2, 189240, Note_on_c, 0, 64, 0
2, 190080, Note_on_c, 0, 76, 90
2, 190140, Note_on_c, 0, 76, 0
2, 190140, Note_on_c, 0, 78, 90
2, 190200, Note_on_c, 0, 78, 0
2, 190200, Note_on_c, 0, 80, 90
2, 190260, Note_on_c, 0, 80, 0
2, 190260, Note_on_c, 0, 78, 90
2, 190320, Note_on_c, 0, 78, 0
2, 190320, Note_on_c, 0, 76, 90
2, 190380, Note_on_c, 0, 76, 0
2, 190380, Note_on_c, 0, 78, 90
2, 190440, Note_on_c, 0, 78, 0
2, 190440, Note_on_c, 0, 80, 90
2, 190500, Note_on_c, 0, 80, 0
2, 190500, Note_on_c, 0, 78, 90
2, 190560, Note_on_c, 0, 78, 0
2, 190560, Note_on_c, 0, 76, 90
2, 190620, Note_on_c, 0, 76, 0
2, 190620, Note_on_c, 0, 78, 90
2, 190680, Note_on_c, 0, 78, 0
2, 190680, Note_on_c, 0, 80, 90
2, 190740, Note_on_c, 0, 80, 0
2, 190740, Note_on_c, 0, 78, 90
2, 190800, Note_on_c, 0, 78, 0
2, 190800, Note_on_c, 0, 76, 90
2, 190860, Note_on_c, 0, 76, 0
2, 190860, Note_on_c, 0, 78, 90
2, 190920, Note_on_c, 0, 78, 0
2, 190920, Note_on_c, 0, 80, 90
2, 190980, Note_on_c, 0, 80, 0
2, 190980, Note_on_c, 0, 78, 90
2, 191040, Note_on_c, 0, 78, 0
2, 191040, Note_on_c, 0, 76, 90
2, 191160, Note_on_c, 0, 76, 0
2, 191160, Note_on_c, 0, 68, 90
2, 191220, Note_on_c, 0, 68, 0
2, 191220, Note_on_c, 0, 66, 90
2, 191280, Note_on_c, 0, 66, 0
2, 191280, Note_on_c, 0, 68, 90
2, 191340, Note_on_c, 0, 68, 0
2, 191340, Note_on_c, 0, 66, 90
2, 191400, Note_on_c, 0, 66, 0
2, 191400, Note_on_c, 0, 68, 90
2, 191460, Note_on_c, 0, 68, 0
2, 191460, Note_on_c, 0, 66, 90
2, 191520, Note_on_c, 0, 66, 0
2, 191520, Note_on_c, 0, 68, 90
2, 191712, Note_on_c, 0, 68, 0
2, 191760, Note_on_c, 0, 73, 90
2, 191820, Note_on_c, 0, 73, 0
2, 191820, Note_on_c, 0, 71, 90
2, 191880, Note_on_c, 0, 71, 0
2, 191880, Note_on_c, 0, 64, 90
2, 191880, Note_on_c, 0, 68, 90
2, 191880, Note_on_c, 0, 73, 90
2, 191940, Note_on_c, 0, 73, 0
2, 191940, Note_on_c, 0, 68, 90
2, 191976, Note_on_c, 0, 68, 0
2, 191976, Note_on_c, 0, 64, 0
2, 192000, Note_on_c, 0, 68, 0
2, 192000, Note_on_c, 0, 61, 90
2, 192000, Note_on_c, 0, 66, 90
2, 192000, Note_on_c, 0, 69, 90
2, 192060, Note_on_c, 0, 69, 0
2, 192060, Note_on_c, 0, 68, 90
2, 192120, Note_on_c, 0, 68, 0
2, 192120, Note_on_c, 0, 69, 90
2, 192180, Note_on_c, 0, 69, 0
2, 192180, Note_on_c, 0, 66, 90
2, 192240, Note_on_c, 0, 66, 0
2, 192240, Note_on_c, 0, 66, 0
2, 192240, Note_on_c, 0, 61, 0
2, 192240, Note_on_c, 0, 71, 90
2, 192300, Note_on_c, 0, 71, 0
2, 192300, Note_on_c, 0, 69, 90
2, 192360, Note_on_c, 0, 69, 0
2, 192360, Note_on_c, 0, 59, 90
2, 192360, Note_on_c, 0, 66, 90
2, 192360, Note_on_c, 0, 71, 90
2, 192420, Note_on_c, 0, 71, 0
2, 192420, Note_on_c, 0, 66, 90
2, 192456, Note_on_c, 0, 66, 0
2, 192456, Note_on_c, 0, 59, 0
2, 192480, Note_on_c, 0, 66, 0
2, 192480, Note_on_c, 0, 59, 90
2, 192480, Note_on_c, 0, 64, 90
2, 192480, Note_on_c, 0, 68, 90
2, 192540, Note_on_c, 0, 68, 0
2, 192540, Note_on_c, 0, 66, 90
2, 192600, Note_on_c, 0, 66, 0
2, 192600, Note_on_c, 0, 68, 90
2, 192660, Note_on_c, 0, 68, 0
2, 192660, Note_on_c, 0, 64, 90
2, 192720, Note_on_c, 0, 64, 0
2, 192720, Note_on_c, 0, 64, 0
2, 192720, Note_on_c, 0, 59, 0
2, 192720, Note_on_c, 0, 61, 90
2, 192720, Note_on_c, 0, 76, 90
2, 192780, Note_on_c, 0, 61, 0
2, 192780, Note_on_c, 0, 59, 90
2, 192840, Note_on_c, 0, 59, 0
2, 192840, Note_on_c, 0, 76, 0
2, 192840, Note_on_c, 0, 61, 90
2, 192840, Note_on_c, 0, 76, 90
2, 192900, Note_on_c, 0, 61, 0
2, 192900, Note_on_c, 0, 56, 90
2, 192960, Note_on_c, 0, 56, 0
2, 192960, Note_on_c, 0, 76, 0
2, 192960, Note_on_c, 0, 66, 90
2, 192960, Note_on_c, 0, 76, 90
2, 193200, Note_on_c, 0, 76, 0
2, 193200, Note_on_c, 0, 66, 0
2, 193320, Note_on_c, 0, 66, 90
2, 193320, Note_on_c, 0, 75, 90
2, 193416, Note_on_c, 0, 75, 0
2, 193416, Note_on_c, 0, 66, 0
2, 193440, Note_on_c, 0, 64, 90
2, 193440, Note_on_c, 0, 76, 90
2, 193680, Note_on_c, 0, 76, 0
2, 193680, Note_on_c, 0, 64, 0
2, 193800, Note_on_c, 0, 66, 90
2, 193800, Note_on_c, 0, 76, 90
2, 193896, Note_on_c, 0, 76, 0
2, 193896, Note_on_c, 0, 66, 0
2, 193920, Note_on_c, 0, 66, 90
2, 193920, Note_on_c, 0, 74, 90
2, 194160, Note_on_c, 0, 74, 0
2, 194160, Note_on_c, 0, 66, 0
2, 194280, Note_on_c, 0, 74, 90
2, 194280, Note_on_c, 0, 64, 90
2, 194376, Note_on_c, 0, 64, 0
2, 194376, Note_on_c, 0, 74, 0
2, 194400, Note_on_c, 0, 64, 90
2, 194400, Note_on_c, 0, 73, 90
2, 194640, Note_on_c, 0, 64, 0
2, 194640, Note_on_c, 0, 62, 90
2, 194700, Note_on_c, 0, 73, 0
2, 194700, Note_on_c, 0, 71, 90
2, 194760, Note_on_c, 0, 71, 0
2, 194760, Note_on_c, 0, 73, 90
2, 194820, Note_on_c, 0, 73, 0
2, 194820, Note_on_c, 0, 69, 90
2, 194880, Note_on_c, 0, 69, 0
2, 194880, Note_on_c, 0, 62, 0
2, 194880, Note_on_c, 0, 62, 90
2, 194880, Note_on_c, 0, 71, 90
2, 194940, Note_on_c, 0, 71, 0
2, 194940, Note_on_c, 0, 76, 90
2, 195000, Note_on_c, 0, 76, 0
2, 195000, Note_on_c, 0, 62, 0
2, 195000, Note_on_c, 0, 61, 90
2, 195000, Note_on_c, 0, 81, 90
2, 195060, Note_on_c, 0, 81, 0
2, 195060, Note_on_c, 0, 69, 90
2, 195120, Note_on_c, 0, 69, 0
2, 195120, Note_on_c, 0, 61, 0
2, 195120, Note_on_c, 0, 59, 90
2, 195120, Note_on_c, 0, 69, 90
2, 195150, Note_on_c, 0, 69, 0
2, 195150, Note_on_c, 0, 68, 90
2, 195180, Note_on_c, 0, 68, 0
2, 195180, Note_on_c, 0, 69, 90
2, 195240, Note_on_c, 0, 59, 0
2, 195240, Note_on_c, 0, 62, 90
2, 195300, Note_on_c, 0, 69, 0
2, 195300, Note_on_c, 0, 68, 90
2, 195360, Note_on_c, 0, 68, 0
2, 195360, Note_on_c, 0, 62, 0
2, 195360, Note_on_c, 0, 61, 90
2, 195360, Note_on_c, 0, 69, 90
2, 195420, Note_on_c, 0, 69, 0
2, 195420, Note_on_c, 0, 61, 0
2, 195420, Note_on_c, 0, 62, 90
2, 195420, Note_on_c, 0, 71, 90
2, 195480, Note_on_c, 0, 71, 0
2, 195480, Note_on_c, 0, 62, 0
2, 195480, Note_on_c, 0, 64, 90
2, 195480, Note_on_c, 0, 73, 90
2, 195540, Note_on_c, 0, 73, 0
2, 195540, Note_on_c, 0, 64, 0
2, 195540, Note_on_c, 0, 62, 90
2, 195540, Note_on_c, 0, 71, 90
2, 195600, Note_on_c, 0, 71, 0
2, 195600, Note_on_c, 0, 62, 0
2, 195600, Note_on_c, 0, 61, 90
2, 195600, Note_on_c, 0, 69, 90
2, 195660, Note_on_c, 0, 69, 0
2, 195660, Note_on_c, 0, 61, 0
2, 195660, Note_on_c, 0, 62, 90
2, 195660, Note_on_c, 0, 71, 90
2, 195720, Note_on_c, 0, 71, 0
2, 195720, Note_on_c, 0, 62, 0
2, 195720, Note_on_c, 0, 64, 90
2, 195720, Note_on_c, 0, 73, 90
2, 195780, Note_on_c, 0, 73, 0
2, 195780, Note_on_c, 0, 64, 0
2, 195780, Note_on_c, 0, 62, 90
2, 195780, Note_on_c, 0, 71, 90
2, 195840, Note_on_c, 0, 71, 0
2, 195840, Note_on_c, 0, 62, 0
2, 195840, Note_on_c, 0, 69, 90
2, 195900, Note_on_c, 0, 69, 0
2, 195900, Note_on_c, 0, 71, 90
2, 195960, Note_on_c, 0, 71, 0
2, 195960, Note_on_c, 0, 73, 90
2, 196020, Note_on_c, 0, 73, 0
2, 196020, Note_on_c, 0, 71, 90
2, 196080, Note_on_c, 0, 71, 0
2, 196080, Note_on_c, 0, 69, 90
2, 196140, Note_on_c, 0, 69, 0
2, 196140, Note_on_c, 0, 71, 90
2, 196200, Note_on_c, 0, 71, 0
2, 196200, Note_on_c, 0, 73, 90
2, 196260, Note_on_c, 0, 73, 0
2, 196260, Note_on_c, 0, 71, 90
2, 196320, Note_on_c, 0, 71, 0
2, 196320, Note_on_c, 0, 69, 90
2, 196560, Note_on_c, 0, 69, 0
2, 197040, Note_on_c, 0, 78, 90
2, 197100, Note_on_c, 0, 78, 0
2, 197100, Note_on_c, 0, 76, 90
2, 197160, Note_on_c, 0, 76, 0
2, 197160, Note_on_c, 0, 78, 90
2, 197160, Note_on_c, 0, 73, 90
2, 197160, Note_on_c, 0, 69, 90
2, 197220, Note_on_c, 0, 78, 0
2, 197220, Note_on_c, 0, 73, 90
2, 197280, Note_on_c, 0, 73, 0
2, 197280, Note_on_c, 0, 69, 0
2, 197280, Note_on_c, 0, 73, 0
2, 197280, Note_on_c, 0, 74, 90
2, 197280, Note_on_c, 0, 71, 90
2, 197280, Note_on_c, 0, 69, 90
2, 197340, Note_on_c, 0, 74, 0
2, 197340, Note_on_c, 0, 73, 90
2, 197400, Note_on_c, 0, 73, 0
2, 197400, Note_on_c, 0, 74, 90
2, 197460, Note_on_c, 0, 74, 0
2, 197460, Note_on_c, 0, 71, 90
2, 197520, Note_on_c, 0, 71, 0
2, 197520, Note_on_c, 0, 69, 0
2, 197520, Note_on_c, 0, 71, 0
2, 197520, Note_on_c, 0, 76, 90
2, 197580, Note_on_c, 0, 76, 0
2, 197580, Note_on_c, 0, 74, 90
2, 197640, Note_on_c, 0, 74, 0
2, 197640, Note_on_c, 0, 76, 90
2, 197640, Note_on_c, 0, 71, 90
2, 197640, Note_on_c, 0, 68, 90
2, 197700, Note_on_c, 0, 76, 0
2, 197700, Note_on_c, 0, 71, 90
2, 197760, Note_on_c, 0, 71, 0
2, 197760, Note_on_c, 0, 68, 0
2, 197760, Note_on_c, 0, 71, 0
2, 197760, Note_on_c, 0, 73, 90
2, 197760, Note_on_c, 0, 69, 90
2, 197760, Note_on_c, 0, 68, 90
2, 197820, Note_on_c, 0, 73, 0
2, 197820, Note_on_c, 0, 71, 90
2, 197880, Note_on_c, 0, 71, 0
2, 197880, Note_on_c, 0, 73, 90
2, 197940, Note_on_c, 0, 73, 0
2, 197940, Note_on_c, 0, 69, 90
2, 198000, Note_on_c, 0, 69, 0
2, 198000, Note_on_c, 0, 68, 0
2, 198000, Note_on_c, 0, 69, 0
2, 198000, Note_on_c, 0, 74, 90
2, 198060, Note_on_c, 0, 74, 0
2, 198060, Note_on_c, 0, 73, 90
2, 198120, Note_on_c, 0, 73, 0
2, 198120, Note_on_c, 0, 74, 90
2, 198120, Note_on_c, 0, 69, 90
2, 198120, Note_on_c, 0, 66, 90
2, 198180, Note_on_c, 0, 74, 0
2, 198180, Note_on_c, 0, 69, 90
2, 198240, Note_on_c, 0, 69, 0
2, 198240, Note_on_c, 0, 66, 0
2, 198240, Note_on_c, 0, 69, 0
2, 198240, Note_on_c, 0, 71, 90
2, 198240, Note_on_c, 0, 68, 90
2, 198240, Note_on_c, 0, 66, 90
2, 198300, Note_on_c, 0, 71, 0
2, 198300, Note_on_c, 0, 69, 90
2, 198360, Note_on_c, 0, 69, 0
2, 198360, Note_on_c, 0, 71, 90
2, 198420, Note_on_c, 0, 71, 0
2, 198420, Note_on_c, 0, 68, 90
2, 198480, Note_on_c, 0, 68, 0
2, 198480, Note_on_c, 0, 66, 0
2, 198480, Note_on_c, 0, 68, 0
2, 198480, Note_on_c, 0, 73, 90
2, 198540, Note_on_c, 0, 73, 0
2, 198540, Note_on_c, 0, 71, 90
2, 198600, Note_on_c, 0, 71, 0
2, 198600, Note_on_c, 0, 73, 90
2, 198600, Note_on_c, 0, 68, 90
2, 198600, Note_on_c, 0, 64, 90
2, 198660, Note_on_c, 0, 73, 0
2, 198660, Note_on_c, 0, 68, 90
2, 198720, Note_on_c, 0, 68, 0
2, 198720, Note_on_c, 0, 64, 0
2, 198720, Note_on_c, 0, 68, 0
2, 198720, Note_on_c, 0, 69, 90
2, 198780, Note_on_c, 0, 69, 0
2, 198780, Note_on_c, 0, 68, 90
2, 198840, Note_on_c, 0, 68, 0
2, 198840, Note_on_c, 0, 69, 90
2, 198900, Note_on_c, 0, 69, 0
2, 198900, Note_on_c, 0, 66, 90
2, 198960, Note_on_c, 0, 66, 0
2, 198960, Note_on_c, 0, 71, 90
2, 199020, Note_on_c, 0, 71, 0
2, 199020, Note_on_c, 0, 69, 90
2, 199080, Note_on_c, 0, 69, 0
2, 199080, Note_on_c, 0, 71, 90
2, 199140, Note_on_c, 0, 71, 0
2, 199140, Note_on_c, 0, 66, 90
2, 199200, Note_on_c, 0, 66, 0
2, 199200, Note_on_c, 0, 68, 90
2, 199260, Note_on_c, 0, 68, 0
2, 199260, Note_on_c, 0, 66, 90
2, 199320, Note_on_c, 0, 66, 0
2, 199320, Note_on_c, 0, 68, 90
2, 199380, Note_on_c, 0, 68, 0
2, 199380, Note_on_c, 0, 64, 90
2, 199440, Note_on_c, 0, 64, 0
2, 199440, Note_on_c, 0, 69, 90
2, 199680, Note_on_c, 0, 66, 90
2, 199740, Note_on_c, 0, 69, 0
2, 199740, Note_on_c, 0, 68, 90
2, 199800, Note_on_c, 0, 68, 0
2, 199800, Note_on_c, 0, 69, 90
2, 199860, Note_on_c, 0, 69, 0
2, 199860, Note_on_c, 0, 66, 90
2, 199920, Note_on_c, 0, 66, 0
2, 199920, Note_on_c, 0, 71, 90
2, 200040, Note_on_c, 0, 66, 0
2, 200040, Note_on_c, 0, 66, 90
2, 200160, Note_on_c, 0, 66, 0
2, 200160, Note_on_c, 0, 68, 90
2, 200220, Note_on_c, 0, 71, 0
2, 200220, Note_on_c, 0, 69, 90
2, 200280, Note_on_c, 0, 69, 0
2, 200280, Note_on_c, 0, 71, 90
2, 200340, Note_on_c, 0, 71, 0
2, 200340, Note_on_c, 0, 68, 90
2, 200400, Note_on_c, 0, 68, 0
2, 200400, Note_on_c, 0, 68, 0
2, 200400, Note_on_c, 0, 73, 90
2, 200400, Note_on_c, 0, 68, 90
2, 200520, Note_on_c, 0, 68, 0
2, 200520, Note_on_c, 0, 68, 90
2, 200640, Note_on_c, 0, 68, 0
2, 200640, Note_on_c, 0, 69, 90
2, 200700, Note_on_c, 0, 73, 0
2, 200700, Note_on_c, 0, 71, 90
2, 200760, Note_on_c, 0, 71, 0
2, 200760, Note_on_c, 0, 73, 90
2, 200820, Note_on_c, 0, 73, 0
2, 200820, Note_on_c, 0, 69, 90
2, 200880, Note_on_c, 0, 69, 0
2, 200880, Note_on_c, 0, 74, 90
2, 200940, Note_on_c, 0, 74, 0
2, 200940, Note_on_c, 0, 73, 90
2, 201000, Note_on_c, 0, 73, 0
2, 201000, Note_on_c, 0, 69, 0
2, 201000, Note_on_c, 0, 74, 90
2, 201000, Note_on_c, 0, 69, 90
2, 201060, Note_on_c, 0, 74, 0
2, 201060, Note_on_c, 0, 73, 90
2, 201120, Note_on_c, 0, 73, 0
2, 201120, Note_on_c, 0, 69, 0
2, 201120, Note_on_c, 0, 74, 90
2, 201120, Note_on_c, 0, 69, 90
2, 201180, Note_on_c, 0, 74, 0
2, 201180, Note_on_c, 0, 73, 90
2, 201240, Note_on_c, 0, 73, 0
2, 201240, Note_on_c, 0, 71, 90
2, 201300, Note_on_c, 0, 71, 0
2, 201300, Note_on_c, 0, 74, 90
2, 201360, Note_on_c, 0, 74, 0
2, 201360, Note_on_c, 0, 73, 90
2, 201480, Note_on_c, 0, 73, 0
2, 201480, Note_on_c, 0, 69, 0
2, 201480, Note_on_c, 0, 71, 90
2, 201480, Note_on_c, 0, 68, 90
2, 201540, Note_on_c, 0, 71, 0
2, 201540, Note_on_c, 0, 69, 90
2, 201600, Note_on_c, 0, 69, 0
2, 201600, Note_on_c, 0, 68, 0
2, 201600, Note_on_c, 0, 69, 120
2, 201600, Note_on_c, 0, 61, 120
2, 201720, Note_on_c, 0, 61, 0
2, 201720, Note_on_c, 0, 69, 0
2, 202560, Note_on_c, 0, 69, 120
2, 202560, Note_on_c, 0, 76, 120
2, 202620, Note_on_c, 0, 76, 0
2, 202620, Note_on_c, 0, 78, 120
2, 202680, Note_on_c, 0, 78, 0
2, 202680, Note_on_c, 0, 69, 0
2, 202680, Note_on_c, 0, 79, 120
2, 202740, Note_on_c, 0, 79, 0
2, 202740, Note_on_c, 0, 78, 120
2, 202800, Note_on_c, 0, 78, 0
2, 202800, Note_on_c, 0, 69, 120
2, 202800, Note_on_c, 0, 76, 120
2, 202860, Note_on_c, 0, 76, 0
2, 202860, Note_on_c, 0, 78, 120
2, 202920, Note_on_c, 0, 78, 0
2, 202920, Note_on_c, 0, 69, 0
2, 202920, Note_on_c, 0, 79, 120
2, 202980, Note_on_c, 0, 79, 0
2, 202980, Note_on_c, 0, 78, 120
2, 203040, Note_on_c, 0, 78, 0
2, 203040, Note_on_c, 0, 69, 120
2, 203040, Note_on_c, 0, 76, 120
2, 203100, Note_on_c, 0, 76, 0
2, 203100, Note_on_c, 0, 78, 120
2, 203160, Note_on_c, 0, 78, 0
2, 203160, Note_on_c, 0, 69, 0
2, 203160, Note_on_c, 0, 79, 120
2, 203220, Note_on_c, 0, 79, 0
2, 203220, Note_on_c, 0, 78, 120
2, 203280, Note_on_c, 0, 78, 0
2, 203280, Note_on_c, 0, 69, 120
2, 203280, Note_on_c, 0, 76, 120
2, 203340, Note_on_c, 0, 76, 0
2, 203340, Note_on_c, 0, 78, 120
2, 203400, Note_on_c, 0, 78, 0
2, 203400, Note_on_c, 0, 69, 0
2, 203400, Note_on_c, 0, 79, 120
2, 203460, Note_on_c, 0, 79, 0
2, 203460, Note_on_c, 0, 78, 120
2, 203520, Note_on_c, 0, 78, 0
2, 203520, Note_on_c, 0, 69, 120
2, 203520, Note_on_c, 0, 76, 120
2, 203760, Note_on_c, 0, 76, 0
2, 203760, Note_on_c, 0, 69, 0
2, 204480, Note_on_c, 0, 69, 120
2, 204480, Note_on_c, 0, 73, 120
2, 204540, Note_on_c, 0, 73, 0
2, 204540, Note_on_c, 0, 74, 120
2, 204600, Note_on_c, 0, 74, 0
2, 204600, Note_on_c, 0, 69, 0
2, 204600, Note_on_c, 0, 76, 120
2, 204660, Note_on_c, 0, 76, 0
2, 204660, Note_on_c, 0, 74, 120
2, 204720, Note_on_c, 0, 74, 0
2, 204720, Note_on_c, 0, 69, 120
2, 204720, Note_on_c, 0, 73, 120
2, 204780, Note_on_c, 0, 73, 0
2, 204780, Note_on_c, 0, 74, 120
2, 204840, Note_on_c, 0, 74, 0
2, 204840, Note_on_c, 0, 69, 0
2, 204840, Note_on_c, 0, 76, 120
2, 204900, Note_on_c, 0, 76, 0
2, 204900, Note_on_c, 0, 74, 120
2, 204960, Note_on_c, 0, 74, 0
2, 204960, Note_on_c, 0, 69, 120
2, 204960, Note_on_c, 0, 73, 120
2, 205020, Note_on_c, 0, 73, 0
2, 205020, Note_on_c, 0, 74, 120
2, 205080, Note_on_c, 0, 74, 0
2, 205080, Note_on_c, 0, 69, 0
2, 205080, Note_on_c, 0, 76, 120
2, 205140, Note_on_c, 0, 76, 0
2, 205140, Note_on_c, 0, 74, 120
2, 205200, Note_on_c, 0, 74, 0
2, 205200, Note_on_c, 0, 69, 120
2, 205200, Note_on_c, 0, 73, 120
2, 205260, Note_on_c, 0, 73, 0
2, 205260, Note_on_c, 0, 74, 120
2, 205320, Note_on_c, 0, 74, 0
2, 205320, Note_on_c, 0, 69, 0
2, 205320, Note_on_c, 0, 76, 120
2, 205380, Note_on_c, 0, 76, 0
2, 205380, Note_on_c, 0, 74, 120
2, 205440, Note_on_c, 0, 74, 0
2, 205440, Note_on_c, 0, 69, 120
2, 205440, Note_on_c, 0, 73, 120
2, 205500, Note_on_c, 0, 73, 0
2, 205500, Note_on_c, 0, 71, 120
2, 205560, Note_on_c, 0, 71, 0
2, 205560, Note_on_c, 0, 69, 0
2, 205560, Note_on_c, 0, 73, 120
2, 205620, Note_on_c, 0, 73, 0
2, 205620, Note_on_c, 0, 69, 120
2, 205680, Note_on_c, 0, 69, 0
2, 205680, Note_on_c, 0, 74, 120
2, 205740, Note_on_c, 0, 74, 0
2, 205740, Note_on_c, 0, 76, 120
2, 205800, Note_on_c, 0, 76, 0
2, 205800, Note_on_c, 0, 78, 120
2, 205860, Note_on_c, 0, 78, 0
2, 205860, Note_on_c, 0, 76, 120
2, 205920, Note_on_c, 0, 76, 0
2, 205920, Note_on_c, 0, 74, 120
2, 205980, Note_on_c, 0, 74, 0
2, 205980, Note_on_c, 0, 73, 120
2, 206040, Note_on_c, 0, 73, 0
2, 206040, Note_on_c, 0, 74, 120
2, 206100, Note_on_c, 0, 74, 0
2, 206100, Note_on_c, 0, 71, 120
2, 206160, Note_on_c, 0, 71, 0
2, 206160, Note_on_c, 0, 76, 120
2, 206220, Note_on_c, 0, 76, 0
2, 206220, Note_on_c, 0, 78, 120
2, 206280, Note_on_c, 0, 78, 0
2, 206280, Note_on_c, 0, 79, 120
2, 206340, Note_on_c, 0, 79, 0
2, 206340, Note_on_c, 0, 78, 120
2, 206400, Note_on_c, 0, 78, 0
2, 206400, Note_on_c, 0, 76, 120
2, 206460, Note_on_c, 0, 76, 0
2, 206460, Note_on_c, 0, 74, 120
2, 206520, Note_on_c, 0, 74, 0
2, 206520, Note_on_c, 0, 76, 120
2, 206580, Note_on_c, 0, 76, 0
2, 206580, Note_on_c, 0, 73, 120
2, 206640, Note_on_c, 0, 73, 0
2, 206640, Note_on_c, 0, 74, 120
2, 206700, Note_on_c, 0, 74, 0
2, 206700, Note_on_c, 0, 76, 120
2, 206760, Note_on_c, 0, 76, 0
2, 206760, Note_on_c, 0, 78, 120
2, 206820, Note_on_c, 0, 78, 0
2, 206820, Note_on_c, 0, 76, 120
2, 206880, Note_on_c, 0, 76, 0
2, 206880, Note_on_c, 0, 74, 120
2, 206940, Note_on_c, 0, 74, 0
2, 206940, Note_on_c, 0, 73, 120
2, 207000, Note_on_c, 0, 73, 0
2, 207000, Note_on_c, 0, 74, 120
2, 207060, Note_on_c, 0, 74, 0
2, 207060, Note_on_c, 0, 71, 120
2, 207120, Note_on_c, 0, 71, 0
2, 207120, Note_on_c, 0, 76, 120
2, 207180, Note_on_c, 0, 76, 0
2, 207180, Note_on_c, 0, 78, 120
2, 207240, Note_on_c, 0, 78, 0
2, 207240, Note_on_c, 0, 79, 120
2, 207300, Note_on_c, 0, 79, 0
2, 207300, Note_on_c, 0, 78, 120
2, 207360, Note_on_c, 0, 78, 0
2, 207360, Note_on_c, 0, 76, 120
2, 207420, Note_on_c, 0, 76, 0
2, 207420, Note_on_c, 0, 74, 120
2, 207480, Note_on_c, 0, 74, 0
2, 207480, Note_on_c, 0, 76, 120
2, 207540, Note_on_c, 0, 76, 0
2, 207540, Note_on_c, 0, 73, 120
2, 207600, Note_on_c, 0, 73, 0
2, 207600, Note_on_c, 0, 78, 120
2, 207660, Note_on_c, 0, 78, 0
2, 207660, Note_on_c, 0, 79, 120
2, 207720, Note_on_c, 0, 79, 0
2, 207720, Note_on_c, 0, 81, 120
2, 207780, Note_on_c, 0, 81, 0
2, 207780, Note_on_c, 0, 79, 120
2, 207840, Note_on_c, 0, 79, 0
2, 207840, Note_on_c, 0, 78, 120
2, 207900, Note_on_c, 0, 78, 0
2, 207900, Note_on_c, 0, 76, 120
2, 207960, Note_on_c, 0, 76, 0
2, 207960, Note_on_c, 0, 78, 120
2, 208020, Note_on_c, 0, 78, 0
2, 208020, Note_on_c, 0, 74, 120
2, 208080, Note_on_c, 0, 74, 0
2, 208080, Note_on_c, 0, 79, 120
2, 208140, Note_on_c, 0, 79, 0
2, 208140, Note_on_c, 0, 81, 120
2, 208200, Note_on_c, 0, 81, 0
2, 208200, Note_on_c, 0, 83, 120
2, 208260, Note_on_c, 0, 83, 0
2, 208260, Note_on_c, 0, 81, 120
2, 208320, Note_on_c, 0, 81, 0
2, 208320, Note_on_c, 0, 79, 120
2, 208380, Note_on_c, 0, 79, 0
2, 208380, Note_on_c, 0, 78, 120
2, 208440, Note_on_c, 0, 78, 0
2, 208440, Note_on_c, 0, 79, 120
2, 208500, Note_on_c, 0, 79, 0
2, 208500, Note_on_c, 0, 76, 120
2, 208560, Note_on_c, 0, 76, 0
2, 208560, Note_on_c, 0, 78, 120
2, 208620, Note_on_c, 0, 78, 0
2, 208620, Note_on_c, 0, 79, 120
2, 208680, Note_on_c, 0, 79, 0
2, 208680, Note_on_c, 0, 81, 120
2, 208740, Note_on_c, 0, 81, 0
2, 208740, Note_on_c, 0, 79, 120
2, 208800, Note_on_c, 0, 79, 0
2, 208800, Note_on_c, 0, 78, 120
2, 208860, Note_on_c, 0, 78, 0
2, 208860, Note_on_c, 0, 76, 120
2, 208920, Note_on_c, 0, 76, 0
2, 208920, Note_on_c, 0, 78, 120
2, 208980, Note_on_c, 0, 78, 0
2, 208980, Note_on_c, 0, 74, 120
2, 209040, Note_on_c, 0, 74, 0
2, 209040, Note_on_c, 0, 79, 120
2, 209100, Note_on_c, 0, 79, 0
2, 209100, Note_on_c, 0, 81, 120
2, 209160, Note_on_c, 0, 81, 0
2, 209160, Note_on_c, 0, 83, 120
2, 209220, Note_on_c, 0, 83, 0
2, 209220, Note_on_c, 0, 81, 120
2, 209280, Note_on_c, 0, 81, 0
2, 209280, Note_on_c, 0, 79, 120
2, 209340, Note_on_c, 0, 79, 0
2, 209340, Note_on_c, 0, 78, 120
2, 209400, Note_on_c, 0, 78, 0
2, 209400, Note_on_c, 0, 79, 120
2, 209460, Note_on_c, 0, 79, 0
2, 209460, Note_on_c, 0, 76, 120
2, 209520, Note_on_c, 0, 76, 0
2, 209520, Note_on_c, 0, 78, 120
2, 209580, Note_on_c, 0, 78, 0
2, 209580, Note_on_c, 0, 76, 120
2, 209640, Note_on_c, 0, 76, 0
2, 209640, Note_on_c, 0, 74, 120
2, 209700, Note_on_c, 0, 74, 0
2, 209700, Note_on_c, 0, 76, 120
2, 209760, Note_on_c, 0, 76, 0
2, 209760, Note_on_c, 0, 69, 120
2, 209760, Note_on_c, 0, 73, 120
2, 210000, Note_on_c, 0, 73, 0
2, 210000, Note_on_c, 0, 69, 0
2, 210000, Note_on_c, 0, 69, 120
2, 210060, Note_on_c, 0, 73, 120
2, 210120, Note_on_c, 0, 73, 0
2, 210120, Note_on_c, 0, 69, 0
2, 210120, Note_on_c, 0, 69, 120
2, 210120, Note_on_c, 0, 74, 120
2, 210180, Note_on_c, 0, 74, 0
2, 210180, Note_on_c, 0, 73, 120
2, 210240, Note_on_c, 0, 73, 0
2, 210240, Note_on_c, 0, 69, 0
2, 210240, Note_on_c, 0, 69, 120
2, 210240, Note_on_c, 0, 74, 120
2, 210480, Note_on_c, 0, 74, 0
2, 210480, Note_on_c, 0, 69, 0
2, 210480, Note_on_c, 0, 69, 120
2, 210540, Note_on_c, 0, 74, 120
2, 210600, Note_on_c, 0, 74, 0
2, 210600, Note_on_c, 0, 69, 0
2, 210600, Note_on_c, 0, 69, 120
2, 210600, Note_on_c, 0, 76, 120
2, 210660, Note_on_c, 0, 76, 0
2, 210660, Note_on_c, 0, 74, 120
2, 210720, Note_on_c, 0, 74, 0
2, 210720, Note_on_c, 0, 69, 0
2, 210720, Note_on_c, 0, 69, 120
2, 210720, Note_on_c, 0, 76, 120
2, 210960, Note_on_c, 0, 76, 0
2, 210960, Note_on_c, 0, 69, 0
2, 210960, Note_on_c, 0, 69, 120
2, 211020, Note_on_c, 0, 73, 120
2, 211080, Note_on_c, 0, 73, 0
2, 211080, Note_on_c, 0, 69, 0
2, 211080, Note_on_c, 0, 69, 120
2, 211080, Note_on_c, 0, 74, 120
2, 211140, Note_on_c, 0, 74, 0
2, 211140, Note_on_c, 0, 73, 120
2, 211200, Note_on_c, 0, 73, 0
2, 211200, Note_on_c, 0, 69, 0
2, 211200, Note_on_c, 0, 74, 120
2, 211200, Note_on_c, 0, 69, 120
2, 211440, Note_on_c, 0, 69, 0
2, 211440, Note_on_c, 0, 74, 0
2, 211440, Note_on_c, 0, 69, 120
2, 211500, Note_on_c, 0, 74, 120
2, 211560, Note_on_c, 0, 74, 0
2, 211560, Note_on_c, 0, 69, 0
2, 211560, Note_on_c, 0, 76, 120
2, 211560, Note_on_c, 0, 69, 120
2, 211620, Note_on_c, 0, 76, 0
2, 211620, Note_on_c, 0, 74, 120
2, 211680, Note_on_c, 0, 74, 0
2, 211680, Note_on_c, 0, 69, 0
2, 211680, Note_on_c, 0, 76, 120
2, 211680, Note_on_c, 0, 69, 120
2, 211920, Note_on_c, 0, 69, 0
2, 211920, Note_on_c, 0, 76, 0
2, 211920, Note_on_c, 0, 69, 120
2, 211980, Note_on_c, 0, 73, 120
2, 212040, Note_on_c, 0, 73, 0
2, 212040, Note_on_c, 0, 69, 0
2, 212040, Note_on_c, 0, 74, 120
2, 212040, Note_on_c, 0, 69, 120
2, 212100, Note_on_c, 0, 74, 0
2, 212100, Note_on_c, 0, 73, 120
2, 212160, Note_on_c, 0, 73, 0
2, 212160, Note_on_c, 0, 69, 0
2, 212160, Note_on_c, 0, 74, 120
2, 212160, Note_on_c, 0, 69, 120
2, 212400, Note_on_c, 0, 69, 0
2, 212400, Note_on_c, 0, 74, 0
2, 212400, Note_on_c, 0, 68, 120
2, 212460, Note_on_c, 0, 71, 120
2, 212520, Note_on_c, 0, 71, 0
2, 212520, Note_on_c, 0, 68, 0
2, 212520, Note_on_c, 0, 73, 120
2, 212520, Note_on_c, 0, 68, 120
2, 212580, Note_on_c, 0, 73, 0
2, 212580, Note_on_c, 0, 71, 120
2, 212640, Note_on_c, 0, 71, 0
2, 212640, Note_on_c, 0, 68, 0
2, 212640, Note_on_c, 0, 73, 120
2, 212640, Note_on_c, 0, 69, 120
2, 212700, Note_on_c, 0, 73, 0
2, 212700, Note_on_c, 0, 74, 120
2, 212760, Note_on_c, 0, 74, 0
2, 212760, Note_on_c, 0, 69, 0
2, 212760, Note_on_c, 0, 76, 120
2, 212820, Note_on_c, 0, 76, 0
2, 212820, Note_on_c, 0, 74, 120
2, 212880, Note_on_c, 0, 74, 0
2, 212880, Note_on_c, 0, 73, 120
2, 212940, Note_on_c, 0, 73, 0
2, 212940, Note_on_c, 0, 74, 120
2, 213000, Note_on_c, 0, 74, 0
2, 213000, Note_on_c, 0, 76, 120
2, 213060, Note_on_c, 0, 76, 0
2, 213060, Note_on_c, 0, 74, 120
2, 213120, Note_on_c, 0, 74, 0
2, 213120, Note_on_c, 0, 73, 120
2, 213180, Note_on_c, 0, 73, 0
2, 213180, Note_on_c, 0, 74, 120
2, 213240, Note_on_c, 0, 74, 0
2, 213240, Note_on_c, 0, 76, 120
2, 213300, Note_on_c, 0, 76, 0
2, 213300, Note_on_c, 0, 74, 120
2, 213360, Note_on_c, 0, 74, 0
2, 213360, Note_on_c, 0, 73, 120
2, 213420, Note_on_c, 0, 73, 0
2, 213420, Note_on_c, 0, 74, 120
2, 213480, Note_on_c, 0, 74, 0
2, 213480, Note_on_c, 0, 76, 120
2, 213540, Note_on_c, 0, 76, 0
2, 213540, Note_on_c, 0, 74, 120
2, 213600, Note_on_c, 0, 74, 0
2, 213600, Note_on_c, 0, 73, 120
2, 213660, Note_on_c, 0, 73, 0
2, 213660, Note_on_c, 0, 74, 120
2, 213720, Note_on_c, 0, 74, 0
2, 213720, Note_on_c, 0, 76, 120
2, 213780, Note_on_c, 0, 76, 0
2, 213780, Note_on_c, 0, 74, 120
2, 213840, Note_on_c, 0, 74, 0
2, 213840, Note_on_c, 0, 73, 120
2, 213900, Note_on_c, 0, 73, 0
2, 213900, Note_on_c, 0, 74, 120
2, 213960, Note_on_c, 0, 74, 0
2, 213960, Note_on_c, 0, 76, 120
2, 214020, Note_on_c, 0, 76, 0
2, 214020, Note_on_c, 0, 74, 120
2, 214080, Note_on_c, 0, 74, 0
2, 214080, Note_on_c, 0, 73, 120
2, 214140, Note_on_c, 0, 73, 0
2, 214140, Note_on_c, 0, 74, 120
2, 214200, Note_on_c, 0, 74, 0
2, 214200, Note_on_c, 0, 76, 120
2, 214260, Note_on_c, 0, 76, 0
2, 214260, Note_on_c, 0, 74, 120
2, 214320, Note_on_c, 0, 74, 0
2, 214320, Note_on_c, 0, 73, 120
2, 214380, Note_on_c, 0, 73, 0
2, 214380, Note_on_c, 0, 74, 120
2, 214440, Note_on_c, 0, 74, 0
2, 214440, Note_on_c, 0, 76, 120
2, 214500, Note_on_c, 0, 76, 0
2, 214500, Note_on_c, 0, 73, 120
2, 214560, Note_on_c, 0, 73, 0
2, 214560, Note_on_c, 0, 74, 120
2, 214620, Note_on_c, 0, 74, 0
2, 214620, Note_on_c, 0, 76, 120
2, 214680, Note_on_c, 0, 76, 0
2, 214680, Note_on_c, 0, 78, 120
2, 214740, Note_on_c, 0, 78, 0
2, 214740, Note_on_c, 0, 76, 120
2, 214800, Note_on_c, 0, 76, 0
2, 214800, Note_on_c, 0, 74, 120
2, 214860, Note_on_c, 0, 74, 0
2, 214860, Note_on_c, 0, 76, 120
2, 214920, Note_on_c, 0, 76, 0
2, 214920, Note_on_c, 0, 78, 120
2, 214980, Note_on_c, 0, 78, 0
2, 214980, Note_on_c, 0, 76, 120
2, 215040, Note_on_c, 0, 76, 0
2, 215040, Note_on_c, 0, 74, 120
2, 215100, Note_on_c, 0, 74, 0
2, 215100, Note_on_c, 0, 78, 120
2, 215160, Note_on_c, 0, 78, 0
2, 215160, Note_on_c, 0, 74, 120
2, 215220, Note_on_c, 0, 74, 0
2, 215220, Note_on_c, 0, 69, 120
2, 215280, Note_on_c, 0, 69, 0
2, 215280, Note_on_c, 0, 66, 120
2, 215340, Note_on_c, 0, 66, 0
2, 215340, Note_on_c, 0, 69, 120
2, 215400, Note_on_c, 0, 69, 0
2, 215400, Note_on_c, 0, 66, 120
2, 215460, Note_on_c, 0, 66, 0
2, 215460, Note_on_c, 0, 62, 120
2, 215520, Note_on_c, 0, 62, 0
2, 215520, Note_on_c, 0, 69, 120
2, 215580, Note_on_c, 0, 69, 0
2, 215580, Note_on_c, 0, 74, 120
2, 215640, Note_on_c, 0, 74, 0
2, 215640, Note_on_c, 0, 69, 120
2, 215700, Note_on_c, 0, 69, 0
2, 215700, Note_on_c, 0, 66, 120
2, 215760, Note_on_c, 0, 66, 0
2, 215760, Note_on_c, 0, 62, 120
2, 215820, Note_on_c, 0, 62, 0
2, 215820, Note_on_c, 0, 66, 120
2, 215880, Note_on_c, 0, 66, 0
2, 215880, Note_on_c, 0, 62, 120
2, 215940, Note_on_c, 0, 62, 0
2, 215940, Note_on_c, 0, 57, 120
2, 216000, Note_on_c, 0, 57, 0
2, 216000, Note_on_c, 0, 66, 120
2, 216060, Note_on_c, 0, 66, 0
2, 216060, Note_on_c, 0, 69, 120
2, 216120, Note_on_c, 0, 69, 0
2, 216120, Note_on_c, 0, 66, 120
2, 216180, Note_on_c, 0, 66, 0
2, 216180, Note_on_c, 0, 62, 120
2, 216240, Note_on_c, 0, 62, 0
2, 216480, Note_on_c, 0, 62, 120
2, 216540, Note_on_c, 0, 62, 0
2, 216540, Note_on_c, 0, 66, 120
2, 216600, Note_on_c, 0, 66, 0
2, 216600, Note_on_c, 0, 62, 120
2, 216660, Note_on_c, 0, 62, 0
2, 216660, Note_on_c, 0, 57, 120
2, 216720, Note_on_c, 0, 57, 0
2, 218040, Note_on_c, 0, 81, 120
2, 218040, Note_on_c, 0, 74, 120
2, 218100, Note_on_c, 0, 74, 0
2, 218100, Note_on_c, 0, 73, 120
2, 218160, Note_on_c, 0, 73, 0
2, 218160, Note_on_c, 0, 81, 0
2, 218160, Note_on_c, 0, 81, 120
2, 218160, Note_on_c, 0, 74, 120
2, 218220, Note_on_c, 0, 74, 0
2, 218220, Note_on_c, 0, 73, 120
2, 218280, Note_on_c, 0, 73, 0
2, 218280, Note_on_c, 0, 81, 0
2, 218280, Note_on_c, 0, 81, 120
2, 218280, Note_on_c, 0, 74, 120
2, 218340, Note_on_c, 0, 74, 0
2, 218340, Note_on_c, 0, 73, 120
2, 218400, Note_on_c, 0, 73, 0
2, 218400, Note_on_c, 0, 81, 0
2, 218400, Note_on_c, 0, 81, 120
2, 218400, Note_on_c, 0, 74, 120
2, 218520, Note_on_c, 0, 74, 0
2, 218520, Note_on_c, 0, 81, 0
2, 218760, Note_on_c, 0, 78, 120
2, 218760, Note_on_c, 0, 74, 120
2, 218760, Note_on_c, 0, 71, 120
2, 218856, Note_on_c, 0, 71, 0
2, 218856, Note_on_c, 0, 74, 0
2, 218856, Note_on_c, 0, 78, 0
2, 218880, Note_on_c, 0, 76, 120
2, 218880, Note_on_c, 0, 74, 120
2, 218880, Note_on_c, 0, 71, 120
2, 219120, Note_on_c, 0, 71, 0
2, 219120, Note_on_c, 0, 74, 0
2, 219120, Note_on_c, 0, 76, 0
2, 219240, Note_on_c, 0, 76, 120
2, 219240, Note_on_c, 0, 73, 120
2, 219240, Note_on_c, 0, 69, 120
2, 219336, Note_on_c, 0, 69, 0
2, 219336, Note_on_c, 0, 73, 0
2, 219336, Note_on_c, 0, 76, 0
2, 219360, Note_on_c, 0, 74, 120
2, 219360, Note_on_c, 0, 73, 120
2, 219360, Note_on_c, 0, 69, 120
2, 219600, Note_on_c, 0, 69, 0
2, 219600, Note_on_c, 0, 73, 0
2, 219600, Note_on_c, 0, 74, 0
2, 219720, Note_on_c, 0, 74, 120
2, 219720, Note_on_c, 0, 71, 120
2, 219720, Note_on_c, 0, 67, 120
2, 219816, Note_on_c, 0, 67, 0
2, 219816, Note_on_c, 0, 71, 0
2, 219816, Note_on_c, 0, 74, 0
2, 219840, Note_on_c, 0, 73, 120
2, 219840, Note_on_c, 0, 71, 120
2, 219840, Note_on_c, 0, 67, 120
2, 220080, Note_on_c, 0, 67, 0
2, 220080, Note_on_c, 0, 71, 0
2, 220080, Note_on_c, 0, 73, 0
2, 220200, Note_on_c, 0, 73, 120
2, 220200, Note_on_c, 0, 69, 120
2, 220200, Note_on_c, 0, 66, 120
2, 220296, Note_on_c, 0, 66, 0
2, 220296, Note_on_c, 0, 69, 0
2, 220296, Note_on_c, 0, 73, 0
2, 220320, Note_on_c, 0, 71, 120
2, 220320, Note_on_c, 0, 69, 120
2, 220320, Note_on_c, 0, 66, 120
2, 220560, Note_on_c, 0, 66, 0
2, 220560, Note_on_c, 0, 69, 0
2, 220560, Note_on_c, 0, 71, 0
2, 220680, Note_on_c, 0, 71, 120
2, 220680, Note_on_c, 0, 67, 120
2, 220680, Note_on_c, 0, 64, 120
2, 220776, Note_on_c, 0, 64, 0
2, 220776, Note_on_c, 0, 67, 0
2, 220776, Note_on_c, 0, 71, 0
2, 220800, Note_on_c, 0, 69, 120
2, 220800, Note_on_c, 0, 67, 120
2, 220800, Note_on_c, 0, 64, 120
2, 221040, Note_on_c, 0, 64, 0
2, 221040, Note_on_c, 0, 67, 0
2, 221040, Note_on_c, 0, 66, 120
2, 221040, Note_on_c, 0, 62, 120
2, 221100, Note_on_c, 0, 69, 0
2, 221100, Note_on_c, 0, 71, 120
2, 221160, Note_on_c, 0, 71, 0
2, 221160, Note_on_c, 0, 69, 120
2, 221220, Note_on_c, 0, 69, 0
2, 221220, Note_on_c, 0, 71, 120
2, 221280, Note_on_c, 0, 71, 0
2, 221280, Note_on_c, 0, 62, 0
2, 221280, Note_on_c, 0, 66, 0
2, 221280, Note_on_c, 0, 67, 120
2, 221280, Note_on_c, 0, 64, 120
2, 221520, Note_on_c, 0, 64, 0
2, 221520, Note_on_c, 0, 64, 120
2, 221580, Note_on_c, 0, 67, 0
2, 221580, Note_on_c, 0, 69, 120
2, 221640, Note_on_c, 0, 69, 0
2, 221640, Note_on_c, 0, 67, 120
2, 221700, Note_on_c, 0, 67, 0
2, 221700, Note_on_c, 0, 69, 120
2, 221760, Note_on_c, 0, 69, 0
2, 221760, Note_on_c, 0, 64, 0
2, 221760, Note_on_c, 0, 66, 120
2, 221760, Note_on_c, 0, 62, 120
2, 221760, Note_on_c, 0, 57, 120
2, 222000, Note_on_c, 0, 57, 0
2, 222000, Note_on_c, 0, 62, 0
2, 222000, Note_on_c, 0, 66, 0
2, 222120, Note_on_c, 0, 66, 120
2, 222120, Note_on_c, 0, 62, 120
2, 222216, Note_on_c, 0, 62, 0
2, 222216, Note_on_c, 0, 66, 0
2, 222240, Note_on_c, 0, 64, 120
2, 222240, Note_on_c, 0, 59, 120
2, 222480, Note_on_c, 0, 59, 0
2, 222480, Note_on_c, 0, 64, 0
2, 222600, Note_on_c, 0, 64, 120
2, 222600, Note_on_c, 0, 61, 120
2, 222696, Note_on_c, 0, 61, 0
2, 222696, Note_on_c, 0, 64, 0
2, 222720, Note_on_c, 0, 62, 120
2, 222720, Note_on_c, 0, 57, 120
2, 222960, Note_on_c, 0, 57, 0
2, 222960, Note_on_c, 0, 62, 0
2, 223080, Note_on_c, 0, 62, 120
2, 223080, Note_on_c, 0, 59, 120
2, 223176, Note_on_c, 0, 59, 0
2, 223176, Note_on_c, 0, 62, 0
2, 223200, Note_on_c, 0, 61, 120
2, 223200, Note_on_c, 0, 55, 120
2, 223440, Note_on_c, 0, 55, 0
2, 223440, Note_on_c, 0, 61, 0
2, 223560, Note_on_c, 0, 61, 120
2, 223560, Note_on_c, 0, 57, 120
2, 223656, Note_on_c, 0, 57, 0
2, 223656, Note_on_c, 0, 61, 0
2, 223680, Note_on_c, 0, 59, 120
2, 223680, Note_on_c, 0, 54, 120
2, 223920, Note_on_c, 0, 54, 0
2, 223920, Note_on_c, 0, 59, 0
2, 224640, Note_on_c, 0, 66, 120
2, 224700, Note_on_c, 0, 66, 0
2, 224700, Note_on_c, 0, 62, 120
2, 224760, Note_on_c, 0, 62, 0
2, 224760, Note_on_c, 0, 69, 120
2, 224820, Note_on_c, 0, 69, 0
2, 224820, Note_on_c, 0, 66, 120
2, 224880, Note_on_c, 0, 66, 0
2, 224880, Note_on_c, 0, 74, 120
2, 224940, Note_on_c, 0, 74, 0
2, 224940, Note_on_c, 0, 69, 120
2, 225000, Note_on_c, 0, 69, 0
2, 225000, Note_on_c, 0, 78, 120
2, 225060, Note_on_c, 0, 78, 0
2, 225060, Note_on_c, 0, 74, 120
2, 225120, Note_on_c, 0, 74, 0
2, 225120, Note_on_c, 0, 81, 120
2, 225360, Note_on_c, 0, 81, 0
2, 225660, Note_on_c, 0, 81, 120
2, 225720, Note_on_c, 0, 81, 0
2, 225720, Note_on_c, 0, 78, 120
2, 225780, Note_on_c, 0, 78, 0
2, 225780, Note_on_c, 0, 74, 120
2, 225840, Note_on_c, 0, 74, 0
2, 225840, Note_on_c, 0, 69, 120
2, 225900, Note_on_c, 0, 69, 0
2, 225900, Note_on_c, 0, 74, 120
2, 225960, Note_on_c, 0, 74, 0
2, 225960, Note_on_c, 0, 69, 120
2, 226020, Note_on_c, 0, 69, 0
2, 226020, Note_on_c, 0, 66, 120
2, 226080, Note_on_c, 0, 66, 0
2, 226080, Note_on_c, 0, 62, 120
2, 226140, Note_on_c, 0, 62, 0
2, 226140, Note_on_c, 0, 74, 120
2, 226200, Note_on_c, 0, 74, 0
2, 226200, Note_on_c, 0, 69, 120
2, 226260, Note_on_c, 0, 69, 0
2, 226260, Note_on_c, 0, 66, 120
2, 226320, Note_on_c, 0, 66, 0
2, 226320, Note_on_c, 0, 62, 120
2, 226380, Note_on_c, 0, 62, 0
2, 226380, Note_on_c, 0, 69, 120
2, 226440, Note_on_c, 0, 69, 0
2, 226440, Note_on_c, 0, 66, 120
2, 226500, Note_on_c, 0, 66, 0
2, 226500, Note_on_c, 0, 62, 120
2, 226560, Note_on_c, 0, 62, 0
2, 226560, Note_on_c, 0, 57, 120
2, 226680, Note_on_c, 0, 57, 0
2, 232800, Note_on_c, 0, 74, 120
2, 232860, Note_on_c, 0, 74, 0
2, 232860, Note_on_c, 0, 76, 120
2, 232920, Note_on_c, 0, 76, 0
2, 232920, Note_on_c, 0, 78, 120
2, 232980, Note_on_c, 0, 78, 0
2, 232980, Note_on_c, 0, 76, 120
2, 233040, Note_on_c, 0, 76, 0
2, 233040, Note_on_c, 0, 74, 120
2, 233100, Note_on_c, 0, 74, 0
2, 233100, Note_on_c, 0, 76, 120
2, 233160, Note_on_c, 0, 76, 0
2, 233160, Note_on_c, 0, 78, 120
2, 233220, Note_on_c, 0, 78, 0
2, 233220, Note_on_c, 0, 76, 120
2, 233280, Note_on_c, 0, 76, 0
2, 233280, Note_on_c, 0, 74, 120
2, 233400, Note_on_c, 0, 74, 0
2, 233760, Note_on_c, 0, 69, 120
2, 233760, Note_on_c, 0, 74, 120
2, 233820, Note_on_c, 0, 74, 0
2, 233820, Note_on_c, 0, 73, 120
2, 233880, Note_on_c, 0, 73, 0
2, 233880, Note_on_c, 0, 69, 0
2, 233880, Note_on_c, 0, 69, 120
2, 233880, Note_on_c, 0, 74, 120
2, 233940, Note_on_c, 0, 74, 0
2, 233940, Note_on_c, 0, 73, 120
2, 234000, Note_on_c, 0, 73, 0
2, 234000, Note_on_c, 0, 69, 0
2, 234000, Note_on_c, 0, 69, 120
2, 234000, Note_on_c, 0, 74, 120
2, 234060, Note_on_c, 0, 74, 0
2, 234060, Note_on_c, 0, 73, 120
2, 234120, Note_on_c, 0, 73, 0
2, 234120, Note_on_c, 0, 69, 0
2, 234120, Note_on_c, 0, 69, 120
2, 234120, Note_on_c, 0, 74, 120
2, 234180, Note_on_c, 0, 74, 0
2, 234180, Note_on_c, 0, 73, 120
2, 234240, Note_on_c, 0, 73, 0
2, 234240, Note_on_c, 0, 69, 0
2, 234240, Note_on_c, 0, 74, 120
2, 234240, Note_on_c, 0, 69, 120
2, 234360, Note_on_c, 0, 69, 0
2, 234360, Note_on_c, 0, 74, 0
2, 234480, Note_on_c, 0, 74, 120
2, 234540, Note_on_c, 0, 74, 0
2, 234540, Note_on_c, 0, 76, 120
2, 234600, Note_on_c, 0, 76, 0
2, 234600, Note_on_c, 0, 78, 120
2, 234660, Note_on_c, 0, 78, 0
2, 234660, Note_on_c, 0, 76, 120
2, 234720, Note_on_c, 0, 76, 0
2, 234720, Note_on_c, 0, 74, 120
2, 234720, Note_on_c, 0, 69, 120
2, 234840, Note_on_c, 0, 69, 0
2, 234840, Note_on_c, 0, 74, 0
2, 234840, End_track
3, 0, Start_track
3, 0, MIDI_port, 0
3, 0, Title_t, "--------------------------------------"
3, 0, Program_c, 1, 19
3, 0, Control_c, 1, 7, 100
3, 0, Control_c, 1, 10, 64
3, 780, Note_on_c, 1, 62, 110
3, 840, Note_on_c, 1, 62, 0
3, 840, Note_on_c, 1, 66, 110
3, 900, Note_on_c, 1, 57, 110
3, 960, Note_on_c, 1, 57, 0
3, 960, Note_on_c, 1, 66, 0
3, 960, Note_on_c, 1, 66, 110
3, 960, Note_on_c, 1, 62, 110
3, 1080, Note_on_c, 1, 62, 0
3, 1080, Note_on_c, 1, 66, 0
3, 2580, Note_on_c, 1, 54, 110
3, 2640, Note_on_c, 1, 54, 0
3, 2640, Note_on_c, 1, 57, 110
3, 2700, Note_on_c, 1, 50, 110
3, 2760, Note_on_c, 1, 50, 0
3, 2760, Note_on_c, 1, 57, 0
3, 2760, Note_on_c, 1, 54, 110
3, 2760, Note_on_c, 1, 57, 110
3, 2820, Note_on_c, 1, 45, 110
3, 2880, Note_on_c, 1, 45, 0
3, 2880, Note_on_c, 1, 57, 0
3, 2880, Note_on_c, 1, 54, 0
3, 2880, Note_on_c, 1, 50, 110
3, 2880, Note_on_c, 1, 54, 110
3, 2880, Note_on_c, 1, 57, 110
3, 3000, Note_on_c, 1, 57, 0
3, 3000, Note_on_c, 1, 54, 0
3, 3000, Note_on_c, 1, 50, 0
3, 3660, Note_on_c, 1, 62, 110
3, 3720, Note_on_c, 1, 62, 0
3, 3720, Note_on_c, 1, 66, 110
3, 3780, Note_on_c, 1, 57, 110
3, 3840, Note_on_c, 1, 57, 0
3, 3840, Note_on_c, 1, 66, 0
3, 3840, Note_on_c, 1, 66, 110
3, 3840, Note_on_c, 1, 62, 110
3, 4080, Note_on_c, 1, 62, 0
3, 4080, Note_on_c, 1, 66, 0
3, 5760, Note_on_c, 1, 57, 110
3, 5820, Note_on_c, 1, 57, 0
3, 5820, Note_on_c, 1, 52, 110
3, 5880, Note_on_c, 1, 52, 0
3, 5880, Note_on_c, 1, 54, 110
3, 5940, Note_on_c, 1, 54, 0
3, 5940, Note_on_c, 1, 56, 110
3, 6000, Note_on_c, 1, 56, 0
3, 6000, Note_on_c, 1, 57, 110
3, 6060, Note_on_c, 1, 57, 0
3, 6060, Note_on_c, 1, 50, 110
3, 6120, Note_on_c, 1, 50, 0
3, 6120, Note_on_c, 1, 49, 110
3, 6180, Note_on_c, 1, 49, 0
3, 6180, Note_on_c, 1, 47, 110
3, 6240, Note_on_c, 1, 47, 0
3, 6240, Note_on_c, 1, 49, 110
3, 6300, Note_on_c, 1, 49, 0
3, 6300, Note_on_c, 1, 52, 110
3, 6360, Note_on_c, 1, 52, 0
3, 6360, Note_on_c, 1, 54, 110
3, 6420, Note_on_c, 1, 54, 0
3, 6420, Note_on_c, 1, 56, 110
3, 6480, Note_on_c, 1, 56, 0
3, 6480, Note_on_c, 1, 57, 110
3, 6540, Note_on_c, 1, 57, 0
3, 6540, Note_on_c, 1, 49, 110
3, 6600, Note_on_c, 1, 49, 0
3, 6600, Note_on_c, 1, 50, 110
3, 6660, Note_on_c, 1, 50, 0
3, 6660, Note_on_c, 1, 47, 110
3, 6720, Note_on_c, 1, 47, 0
3, 6720, Note_on_c, 1, 49, 110
3, 6780, Note_on_c, 1, 49, 0
3, 6780, Note_on_c, 1, 52, 110
3, 6840, Note_on_c, 1, 52, 0
3, 6840, Note_on_c, 1, 54, 110
3, 6900, Note_on_c, 1, 54, 0
3, 6900, Note_on_c, 1, 56, 110
3, 6960, Note_on_c, 1, 56, 0
3, 6960, Note_on_c, 1, 57, 110
3, 7020, Note_on_c, 1, 57, 0
3, 7020, Note_on_c, 1, 62, 110
3, 7080, Note_on_c, 1, 62, 0
3, 7080, Note_on_c, 1, 61, 110
3, 7140, Note_on_c, 1, 61, 0
3, 7140, Note_on_c, 1, 59, 110
3, 7200, Note_on_c, 1, 59, 0
3, 7200, Note_on_c, 1, 61, 110
3, 7320, Note_on_c, 1, 61, 0
3, 7320, Note_on_c, 1, 62, 110
3, 7380, Note_on_c, 1, 62, 0
3, 7380, Note_on_c, 1, 59, 110
3, 7440, Note_on_c, 1, 59, 0
3, 7440, Note_on_c, 1, 61, 110
3, 7500, Note_on_c, 1, 61, 0
3, 7500, Note_on_c, 1, 57, 110
3, 7560, Note_on_c, 1, 57, 0
3, 7560, Note_on_c, 1, 59, 110
3, 7620, Note_on_c, 1, 59, 0
3, 7620, Note_on_c, 1, 52, 110
3, 7680, Note_on_c, 1, 52, 0
3, 7680, Note_on_c, 1, 57, 110
3, 7740, Note_on_c, 1, 57, 0
3, 7740, Note_on_c, 1, 52, 110
3, 7800, Note_on_c, 1, 52, 0
3, 7800, Note_on_c, 1, 45, 110
3, 7920, Note_on_c, 1, 45, 0
3, 9600, Note_on_c, 1, 62, 110
3, 10260, Note_on_c, 1, 62, 0
3, 10260, Note_on_c, 1, 61, 110
3, 10320, Note_on_c, 1, 61, 0
3, 10320, Note_on_c, 1, 59, 110
3, 10500, Note_on_c, 1, 59, 0
3, 10500, Note_on_c, 1, 57, 110
3, 10560, Note_on_c, 1, 57, 0
3, 10560, Note_on_c, 1, 56, 110
3, 11040, Note_on_c, 1, 56, 0
3, 11220, Note_on_c, 1, 62, 110
3, 11280, Note_on_c, 1, 62, 0
3, 11280, Note_on_c, 1, 59, 110
3, 11460, Note_on_c, 1, 59, 0
3, 11460, Note_on_c, 1, 62, 110
3, 11520, Note_on_c, 1, 62, 0
3, 11520, Note_on_c, 1, 56, 110
3, 11700, Note_on_c, 1, 56, 0
3, 11700, Note_on_c, 1, 62, 110
3, 11760, Note_on_c, 1, 62, 0
3, 11760, Note_on_c, 1, 59, 110
3, 11940, Note_on_c, 1, 59, 0
3, 11940, Note_on_c, 1, 62, 110
3, 12000, Note_on_c, 1, 62, 0
3, 12000, Note_on_c, 1, 53, 110
3, 12030, Note_on_c, 1, 53, 0
3, 12030, Note_on_c, 1, 49, 110
3, 12060, Note_on_c, 1, 49, 0
3, 12060, Note_on_c, 1, 53, 110
3, 12090, Note_on_c, 1, 53, 0
3, 12090, Note_on_c, 1, 49, 110
3, 12120, Note_on_c, 1, 49, 0
3, 12120, Note_on_c, 1, 53, 110
3, 12150, Note_on_c, 1, 53, 0
3, 12150, Note_on_c, 1, 49, 110
3, 12180, Note_on_c, 1, 49, 0
3, 12180, Note_on_c, 1, 53, 110
3, 12210, Note_on_c, 1, 53, 0
3, 12210, Note_on_c, 1, 49, 110
3, 12240, Note_on_c, 1, 49, 0
3, 12240, Note_on_c, 1, 53, 110
3, 12270, Note_on_c, 1, 53, 0
3, 12270, Note_on_c, 1, 49, 110
3, 12300, Note_on_c, 1, 49, 0
3, 12300, Note_on_c, 1, 53, 110
3, 12330, Note_on_c, 1, 53, 0
3, 12330, Note_on_c, 1, 49, 110
3, 12360, Note_on_c, 1, 49, 0
3, 12360, Note_on_c, 1, 53, 110
3, 12390, Note_on_c, 1, 53, 0
3, 12390, Note_on_c, 1, 49, 110
3, 12420, Note_on_c, 1, 49, 0
3, 12420, Note_on_c, 1, 53, 110
3, 12450, Note_on_c, 1, 53, 0
3, 12450, Note_on_c, 1, 49, 110
3, 12480, Note_on_c, 1, 49, 0
3, 12480, Note_on_c, 1, 54, 110
3, 12660, Note_on_c, 1, 62, 110
3, 12720, Note_on_c, 1, 62, 0
3, 12720, Note_on_c, 1, 61, 110
3, 12900, Note_on_c, 1, 61, 0
3, 12900, Note_on_c, 1, 59, 110
3, 12960, Note_on_c, 1, 59, 0
3, 12960, Note_on_c, 1, 61, 110
3, 13140, Note_on_c, 1, 61, 0
3, 13140, Note_on_c, 1, 59, 110
3, 13200, Note_on_c, 1, 59, 0
3, 13200, Note_on_c, 1, 58, 110
3, 13380, Note_on_c, 1, 58, 0
3, 13380, Note_on_c, 1, 56, 110
3, 13440, Note_on_c, 1, 56, 0
3, 13440, Note_on_c, 1, 58, 110
3, 13680, Note_on_c, 1, 58, 0
3, 13680, Note_on_c, 1, 54, 0
3, 13920, Note_on_c, 1, 50, 110
3, 13950, Note_on_c, 1, 50, 0
3, 13950, Note_on_c, 1, 52, 110
3, 13980, Note_on_c, 1, 52, 0
3, 13980, Note_on_c, 1, 54, 110
3, 14010, Note_on_c, 1, 54, 0
3, 14010, Note_on_c, 1, 55, 110
3, 14040, Note_on_c, 1, 55, 0
3, 14040, Note_on_c, 1, 57, 110
3, 14070, Note_on_c, 1, 57, 0
3, 14070, Note_on_c, 1, 59, 110
3, 14100, Note_on_c, 1, 59, 0
3, 14100, Note_on_c, 1, 61, 110
3, 14130, Note_on_c, 1, 61, 0
3, 14130, Note_on_c, 1, 62, 110
3, 14160, Note_on_c, 1, 62, 0
3, 14400, Note_on_c, 1, 50, 110
3, 14400, Note_on_c, 1, 57, 110
3, 14400, Note_on_c, 1, 62, 110
3, 14880, Note_on_c, 1, 62, 0
3, 14880, Note_on_c, 1, 57, 0
3, 14880, Note_on_c, 1, 50, 0
3, 15120, Note_on_c, 1, 62, 90
3, 15360, Note_on_c, 1, 62, 0
3, 15360, Note_on_c, 1, 62, 90
3, 15720, Note_on_c, 1, 62, 0
3, 15720, Note_on_c, 1, 62, 90
3, 15840, Note_on_c, 1, 62, 0
3, 15840, Note_on_c, 1, 61, 90
3, 16080, Note_on_c, 1, 61, 0
3, 16080, Note_on_c, 1, 62, 90
3, 16560, Note_on_c, 1, 62, 0
3, 16560, Note_on_c, 1, 61, 90
3, 16800, Note_on_c, 1, 61, 0
3, 16800, Note_on_c, 1, 62, 90
3, 17040, Note_on_c, 1, 62, 0
3, 17040, Note_on_c, 1, 66, 90
3, 17280, Note_on_c, 1, 66, 0
3, 17280, Note_on_c, 1, 64, 90
3, 17640, Note_on_c, 1, 64, 0
3, 17640, Note_on_c, 1, 64, 90
3, 17760, Note_on_c, 1, 64, 0
3, 17760, Note_on_c, 1, 66, 90
3, 18000, Note_on_c, 1, 66, 0
3, 18000, Note_on_c, 1, 62, 90
3, 18240, Note_on_c, 1, 62, 0
3, 18240, Note_on_c, 1, 64, 90
3, 18480, Note_on_c, 1, 64, 0
3, 18480, Note_on_c, 1, 62, 90
3, 18960, Note_on_c, 1, 62, 0
3, 18960, Note_on_c, 1, 59, 90
3, 19200, Note_on_c, 1, 59, 0
3, 19200, Note_on_c, 1, 61, 90
3, 19440, Note_on_c, 1, 61, 0
3, 19440, Note_on_c, 1, 57, 90
3, 19680, Note_on_c, 1, 57, 0
3, 19680, Note_on_c, 1, 59, 90
3, 19920, Note_on_c, 1, 59, 0
3, 19920, Note_on_c, 1, 55, 90
3, 20160, Note_on_c, 1, 55, 0
3, 20160, Note_on_c, 1, 57, 90
3, 20400, Note_on_c, 1, 57, 0
3, 20400, Note_on_c, 1, 57, 90
3, 20880, Note_on_c, 1, 57, 0
3, 20880, Note_on_c, 1, 56, 90
3, 21120, Note_on_c, 1, 56, 0
3, 21120, Note_on_c, 1, 57, 90
3, 21360, Note_on_c, 1, 57, 0
3, 21360, Note_on_c, 1, 66, 90
3, 21600, Note_on_c, 1, 66, 0
3, 21600, Note_on_c, 1, 64, 90
3, 22080, Note_on_c, 1, 64, 0
3, 22080, Note_on_c, 1, 62, 90
3, 22560, Note_on_c, 1, 62, 0
3, 22560, Note_on_c, 1, 61, 90
3, 23040, Note_on_c, 1, 61, 0
3, 23040, Note_on_c, 1, 62, 90
3, 23280, Note_on_c, 1, 62, 0
3, 23280, Note_on_c, 1, 62, 90
3, 23520, Note_on_c, 1, 62, 0
3, 23520, Note_on_c, 1, 61, 90
3, 24000, Note_on_c, 1, 61, 0
3, 24000, Note_on_c, 1, 59, 90
3, 24240, Note_on_c, 1, 59, 0
3, 24240, Note_on_c, 1, 61, 90
3, 24480, Note_on_c, 1, 61, 0
3, 24480, Note_on_c, 1, 62, 90
3, 24720, Note_on_c, 1, 62, 0
3, 24720, Note_on_c, 1, 59, 90
3, 24960, Note_on_c, 1, 59, 0
3, 24960, Note_on_c, 1, 61, 90
3, 25200, Note_on_c, 1, 61, 0
3, 25200, Note_on_c, 1, 62, 90
3, 25680, Note_on_c, 1, 62, 0
3, 25680, Note_on_c, 1, 61, 90
3, 26160, Note_on_c, 1, 61, 0
3, 26160, Note_on_c, 1, 59, 90
3, 26640, Note_on_c, 1, 59, 0
3, 26640, Note_on_c, 1, 57, 90
3, 27120, Note_on_c, 1, 57, 0
3, 27120, Note_on_c, 1, 55, 90
3, 27600, Note_on_c, 1, 55, 0
3, 27600, Note_on_c, 1, 54, 90
3, 28080, Note_on_c, 1, 54, 0
3, 28080, Note_on_c, 1, 52, 90
3, 28320, Note_on_c, 1, 52, 0
3, 28320, Note_on_c, 1, 57, 90
3, 28800, Note_on_c, 1, 57, 0
3, 28800, Note_on_c, 1, 59, 90
3, 29040, Note_on_c, 1, 59, 0
3, 29040, Note_on_c, 1, 57, 90
3, 29160, Note_on_c, 1, 57, 0
3, 29160, Note_on_c, 1, 55, 90
3, 29280, Note_on_c, 1, 55, 0
3, 29280, Note_on_c, 1, 54, 90
3, 29280, Note_on_c, 1, 57, 90
3, 29520, Note_on_c, 1, 57, 0
3, 29520, Note_on_c, 1, 54, 0
3, 29640, Note_on_c, 1, 66, 90
3, 29760, Note_on_c, 1, 66, 0
3, 29760, Note_on_c, 1, 67, 90
3, 29880, Note_on_c, 1, 67, 0
3, 29880, Note_on_c, 1, 71, 90
3, 30000, Note_on_c, 1, 71, 0
3, 30000, Note_on_c, 1, 64, 90
3, 30120, Note_on_c, 1, 64, 0
3, 30120, Note_on_c, 1, 67, 90
3, 30240, Note_on_c, 1, 67, 0
3, 30240, Note_on_c, 1, 66, 90
3, 30360, Note_on_c, 1, 66, 0
3, 30360, Note_on_c, 1, 69, 90
3, 30480, Note_on_c, 1, 69, 0
3, 30480, Note_on_c, 1, 62, 90
3, 30600, Note_on_c, 1, 62, 0
3, 30600, Note_on_c, 1, 66, 90
3, 30720, Note_on_c, 1, 66, 0
3, 30720, Note_on_c, 1, 64, 90
3, 30840, Note_on_c, 1, 64, 0
3, 30840, Note_on_c, 1, 67, 90
3, 30960, Note_on_c, 1, 67, 0
3, 30960, Note_on_c, 1, 61, 90
3, 31080, Note_on_c, 1, 61, 0
3, 31080, Note_on_c, 1, 64, 90
3, 31200, Note_on_c, 1, 64, 0
3, 31200, Note_on_c, 1, 62, 90
3, 31320, Note_on_c, 1, 62, 0
3, 31320, Note_on_c, 1, 59, 90
3, 31440, Note_on_c, 1, 59, 0
3, 31560, Note_on_c, 1, 66, 90
3, 31680, Note_on_c, 1, 66, 0
3, 31680, Note_on_c, 1, 68, 90
3, 31800, Note_on_c, 1, 68, 0
3, 31800, Note_on_c, 1, 71, 90
3, 31920, Note_on_c, 1, 71, 0
3, 31920, Note_on_c, 1, 65, 90
3, 32040, Note_on_c, 1, 65, 0
3, 32040, Note_on_c, 1, 68, 90
3, 32160, Note_on_c, 1, 68, 0
3, 32160, Note_on_c, 1, 66, 90
3, 32280, Note_on_c, 1, 66, 0
3, 32280, Note_on_c, 1, 69, 90
3, 32400, Note_on_c, 1, 69, 0
3, 32400, Note_on_c, 1, 62, 90
3, 32520, Note_on_c, 1, 62, 0
3, 32520, Note_on_c, 1, 66, 90
3, 32640, Note_on_c, 1, 66, 0
3, 32640, Note_on_c, 1, 59, 90
3, 32760, Note_on_c, 1, 59, 0
3, 32760, Note_on_c, 1, 62, 90
3, 32880, Note_on_c, 1, 62, 0
3, 32880, Note_on_c, 1, 56, 90
3, 33000, Note_on_c, 1, 56, 0
3, 33000, Note_on_c, 1, 59, 90
3, 33120, Note_on_c, 1, 59, 0
3, 33120, Note_on_c, 1, 57, 90
3, 33240, Note_on_c, 1, 57, 0
3, 33240, Note_on_c, 1, 54, 90
3, 33360, Note_on_c, 1, 54, 0
3, 33360, Note_on_c, 1, 59, 90
3, 33600, Note_on_c, 1, 59, 0
3, 33600, Note_on_c, 1, 52, 90
3, 33840, Note_on_c, 1, 52, 0
3, 33840, Note_on_c, 1, 57, 90
3, 34080, Note_on_c, 1, 57, 0
3, 34080, Note_on_c, 1, 50, 90
3, 34320, Note_on_c, 1, 50, 0
3, 34320, Note_on_c, 1, 55, 90
3, 34560, Note_on_c, 1, 55, 0
3, 34560, Note_on_c, 1, 49, 90
3, 34800, Note_on_c, 1, 49, 0
3, 34800, Note_on_c, 1, 54, 90
3, 35040, Note_on_c, 1, 54, 0
3, 35040, Note_on_c, 1, 47, 90
3, 35280, Note_on_c, 1, 47, 0
3, 35280, Note_on_c, 1, 54, 90
3, 35520, Note_on_c, 1, 54, 0
3, 35520, Note_on_c, 1, 59, 90
3, 35760, Note_on_c, 1, 59, 0
3, 35760, Note_on_c, 1, 61, 90
3, 36000, Note_on_c, 1, 61, 0
3, 36000, Note_on_c, 1, 62, 90
3, 36240, Note_on_c, 1, 62, 0
3, 36240, Note_on_c, 1, 61, 90
3, 36480, Note_on_c, 1, 61, 0
3, 36480, Note_on_c, 1, 62, 90
3, 36720, Note_on_c, 1, 62, 0
3, 36720, Note_on_c, 1, 61, 90
3, 36960, Note_on_c, 1, 61, 0
3, 36960, Note_on_c, 1, 54, 90
3, 37200, Note_on_c, 1, 54, 0
3, 37200, Note_on_c, 1, 54, 90
3, 37440, Note_on_c, 1, 54, 0
3, 37440, Note_on_c, 1, 59, 90
3, 37680, Note_on_c, 1, 59, 0
3, 37680, Note_on_c, 1, 61, 90
3, 37920, Note_on_c, 1, 61, 0
3, 37920, Note_on_c, 1, 62, 90
3, 38160, Note_on_c, 1, 62, 0
3, 38160, Note_on_c, 1, 56, 90
3, 38400, Note_on_c, 1, 56, 0
3, 38400, Note_on_c, 1, 57, 90
3, 38640, Note_on_c, 1, 57, 0
3, 38640, Note_on_c, 1, 59, 90
3, 38880, Note_on_c, 1, 59, 0
3, 38880, Note_on_c, 1, 61, 90
3, 39120, Note_on_c, 1, 61, 0
3, 39120, Note_on_c, 1, 49, 90
3, 39360, Note_on_c, 1, 49, 0
3, 39360, Note_on_c, 1, 54, 90
3, 39600, Note_on_c, 1, 54, 0
3, 39600, Note_on_c, 1, 56, 90
3, 39840, Note_on_c, 1, 56, 0
3, 39840, Note_on_c, 1, 57, 90
3, 40080, Note_on_c, 1, 57, 0
3, 40080, Note_on_c, 1, 56, 90
3, 40320, Note_on_c, 1, 56, 0
3, 40320, Note_on_c, 1, 57, 90
3, 40560, Note_on_c, 1, 57, 0
3, 40560, Note_on_c, 1, 59, 90
3, 40800, Note_on_c, 1, 59, 0
3, 40800, Note_on_c, 1, 61, 90
3, 41040, Note_on_c, 1, 61, 0
3, 41040, Note_on_c, 1, 62, 90
3, 41280, Note_on_c, 1, 62, 0
3, 41280, Note_on_c, 1, 61, 90
3, 41520, Note_on_c, 1, 61, 0
3, 44880, Note_on_c, 1, 54, 90
3, 45120, Note_on_c, 1, 59, 90
3, 45360, Note_on_c, 1, 59, 0
3, 45360, Note_on_c, 1, 54, 0
3, 45360, Note_on_c, 1, 53, 90
3, 45360, Note_on_c, 1, 61, 90
3, 45600, Note_on_c, 1, 53, 0
3, 45600, Note_on_c, 1, 54, 90
3, 45840, Note_on_c, 1, 61, 0
3, 45840, Note_on_c, 1, 62, 90
3, 46080, Note_on_c, 1, 54, 0
3, 46080, Note_on_c, 1, 52, 90
3, 46320, Note_on_c, 1, 62, 0
3, 46320, Note_on_c, 1, 61, 90
3, 46560, Note_on_c, 1, 61, 0
3, 46560, Note_on_c, 1, 52, 0
3, 46560, Note_on_c, 1, 50, 90
3, 46560, Note_on_c, 1, 62, 90
3, 46800, Note_on_c, 1, 62, 0
3, 46800, Note_on_c, 1, 50, 0
3, 46800, Note_on_c, 1, 54, 90
3, 46920, Note_on_c, 1, 61, 90
3, 47040, Note_on_c, 1, 61, 0
3, 47040, Note_on_c, 1, 54, 0
3, 47040, Note_on_c, 1, 47, 90
3, 47280, Note_on_c, 1, 47, 0
3, 47280, Note_on_c, 1, 52, 90
3, 47520, Note_on_c, 1, 52, 0
3, 47520, Note_on_c, 1, 45, 90
3, 47760, Note_on_c, 1, 45, 0
3, 47880, Note_on_c, 1, 47, 90
3, 48000, Note_on_c, 1, 47, 0
3, 48000, Note_on_c, 1, 43, 90
3, 48240, Note_on_c, 1, 43, 0
3, 48240, Note_on_c, 1, 45, 90
3, 48480, Note_on_c, 1, 45, 0
3, 48480, Note_on_c, 1, 38, 90
3, 48720, Note_on_c, 1, 38, 0
3, 48720, Note_on_c, 1, 45, 90
3, 48960, Note_on_c, 1, 45, 0
3, 48960, Note_on_c, 1, 50, 90
3, 49200, Note_on_c, 1, 50, 0
3, 49200, Note_on_c, 1, 49, 90
3, 49440, Note_on_c, 1, 49, 0
3, 49440, Note_on_c, 1, 50, 90
3, 49680, Note_on_c, 1, 50, 0
3, 49680, Note_on_c, 1, 57, 90
3, 49920, Note_on_c, 1, 57, 0
3, 49920, Note_on_c, 1, 57, 90
3, 50160, Note_on_c, 1, 57, 0
3, 50160, Note_on_c, 1, 57, 90
3, 50400, Note_on_c, 1, 57, 0
3, 50400, Note_on_c, 1, 57, 90
3, 50640, Note_on_c, 1, 57, 0
3, 50640, Note_on_c, 1, 50, 90
3, 50880, Note_on_c, 1, 50, 0
3, 50880, Note_on_c, 1, 55, 90
3, 51120, Note_on_c, 1, 55, 0
3, 51120, Note_on_c, 1, 54, 90
3, 51360, Note_on_c, 1, 54, 0
3, 51360, Note_on_c, 1, 55, 90
3, 51600, Note_on_c, 1, 55, 0
3, 51600, Note_on_c, 1, 62, 90
3, 51840, Note_on_c, 1, 62, 0
3, 51840, Note_on_c, 1, 62, 90
3, 52080, Note_on_c, 1, 62, 0
3, 52080, Note_on_c, 1, 62, 90
3, 52320, Note_on_c, 1, 62, 0
3, 52320, Note_on_c, 1, 62, 90
3, 52560, Note_on_c, 1, 62, 0
3, 52560, Note_on_c, 1, 52, 90
3, 52800, Note_on_c, 1, 52, 0
3, 52800, Note_on_c, 1, 57, 90
3, 53040, Note_on_c, 1, 57, 0
3, 53040, Note_on_c, 1, 56, 90
3, 53280, Note_on_c, 1, 56, 0
3, 53280, Note_on_c, 1, 57, 90
3, 53520, Note_on_c, 1, 57, 0
3, 53520, Note_on_c, 1, 64, 90
3, 53760, Note_on_c, 1, 64, 0
3, 53760, Note_on_c, 1, 64, 90
3, 54000, Note_on_c, 1, 64, 0
3, 54000, Note_on_c, 1, 64, 90
3, 54240, Note_on_c, 1, 64, 0
3, 54240, Note_on_c, 1, 64, 90
3, 54480, Note_on_c, 1, 64, 0
3, 54480, Note_on_c, 1, 57, 90
3, 54720, Note_on_c, 1, 57, 0
3, 54720, Note_on_c, 1, 62, 90
3, 54960, Note_on_c, 1, 62, 0
3, 54960, Note_on_c, 1, 61, 90
3, 55200, Note_on_c, 1, 61, 0
3, 55200, Note_on_c, 1, 62, 90
3, 55440, Note_on_c, 1, 62, 0
3, 55440, Note_on_c, 1, 69, 90
3, 55680, Note_on_c, 1, 69, 0
3, 55680, Note_on_c, 1, 69, 90
3, 55920, Note_on_c, 1, 69, 0
3, 55920, Note_on_c, 1, 69, 90
3, 56160, Note_on_c, 1, 69, 0
3, 56160, Note_on_c, 1, 69, 90
3, 56400, Note_on_c, 1, 69, 0
3, 56520, Note_on_c, 1, 66, 90
3, 56640, Note_on_c, 1, 66, 0
3, 56640, Note_on_c, 1, 67, 90
3, 56760, Note_on_c, 1, 67, 0
3, 56760, Note_on_c, 1, 71, 90
3, 56880, Note_on_c, 1, 71, 0
3, 56880, Note_on_c, 1, 64, 90
3, 57000, Note_on_c, 1, 64, 0
3, 57000, Note_on_c, 1, 67, 90
3, 57120, Note_on_c, 1, 67, 0
3, 57120, Note_on_c, 1, 66, 90
3, 57240, Note_on_c, 1, 66, 0
3, 57240, Note_on_c, 1, 69, 90
3, 57360, Note_on_c, 1, 69, 0
3, 57360, Note_on_c, 1, 62, 90
3, 57480, Note_on_c, 1, 62, 0
3, 57480, Note_on_c, 1, 66, 90
3, 57600, Note_on_c, 1, 66, 0
3, 57600, Note_on_c, 1, 64, 90
3, 57720, Note_on_c, 1, 64, 0
3, 57720, Note_on_c, 1, 67, 90
3, 57840, Note_on_c, 1, 67, 0
3, 57840, Note_on_c, 1, 61, 90
3, 57960, Note_on_c, 1, 61, 0
3, 57960, Note_on_c, 1, 64, 90
3, 58080, Note_on_c, 1, 64, 0
3, 58080, Note_on_c, 1, 62, 90
3, 58200, Note_on_c, 1, 62, 0
3, 58200, Note_on_c, 1, 66, 90
3, 58320, Note_on_c, 1, 66, 0
3, 58320, Note_on_c, 1, 59, 90
3, 58440, Note_on_c, 1, 59, 0
3, 58440, Note_on_c, 1, 62, 90
3, 58560, Note_on_c, 1, 62, 0
3, 58560, Note_on_c, 1, 61, 90
3, 58680, Note_on_c, 1, 61, 0
3, 58680, Note_on_c, 1, 64, 90
3, 58800, Note_on_c, 1, 64, 0
3, 58800, Note_on_c, 1, 57, 90
3, 58920, Note_on_c, 1, 57, 0
3, 58920, Note_on_c, 1, 61, 90
3, 59040, Note_on_c, 1, 61, 0
3, 59040, Note_on_c, 1, 62, 90
3, 59160, Note_on_c, 1, 62, 0
3, 59160, Note_on_c, 1, 66, 90
3, 59280, Note_on_c, 1, 66, 0
3, 59280, Note_on_c, 1, 59, 90
3, 59400, Note_on_c, 1, 59, 0
3, 59400, Note_on_c, 1, 62, 90
3, 59520, Note_on_c, 1, 62, 0
3, 59520, Note_on_c, 1, 61, 90
3, 59640, Note_on_c, 1, 61, 0
3, 59640, Note_on_c, 1, 64, 90
3, 59760, Note_on_c, 1, 64, 0
3, 59760, Note_on_c, 1, 57, 90
3, 59880, Note_on_c, 1, 57, 0
3, 59880, Note_on_c, 1, 61, 90
3, 60000, Note_on_c, 1, 61, 0
3, 60000, Note_on_c, 1, 62, 90
3, 60120, Note_on_c, 1, 62, 0
3, 60120, Note_on_c, 1, 66, 90
3, 60240, Note_on_c, 1, 66, 0
3, 60240, Note_on_c, 1, 59, 90
3, 60360, Note_on_c, 1, 59, 0
3, 60360, Note_on_c, 1, 62, 90
3, 60480, Note_on_c, 1, 62, 0
3, 60480, Note_on_c, 1, 61, 90
3, 60600, Note_on_c, 1, 61, 0
3, 60600, Note_on_c, 1, 57, 90
3, 60720, Note_on_c, 1, 57, 0
3, 60720, Note_on_c, 1, 61, 90
3, 60960, Note_on_c, 1, 61, 0
3, 60960, Note_on_c, 1, 59, 90
3, 61200, Note_on_c, 1, 59, 0
3, 61200, Note_on_c, 1, 59, 90
3, 61440, Note_on_c, 1, 59, 0
3, 61440, Note_on_c, 1, 57, 90
3, 61680, Note_on_c, 1, 57, 0
3, 61800, Note_on_c, 1, 61, 90
3, 61920, Note_on_c, 1, 61, 0
3, 61920, Note_on_c, 1, 62, 90
3, 62040, Note_on_c, 1, 62, 0
3, 62040, Note_on_c, 1, 66, 90
3, 62160, Note_on_c, 1, 66, 0
3, 62160, Note_on_c, 1, 59, 90
3, 62280, Note_on_c, 1, 59, 0
3, 62280, Note_on_c, 1, 62, 90
3, 62400, Note_on_c, 1, 62, 0
3, 62400, Note_on_c, 1, 61, 90
3, 62520, Note_on_c, 1, 61, 0
3, 62520, Note_on_c, 1, 64, 90
3, 62640, Note_on_c, 1, 64, 0
3, 62640, Note_on_c, 1, 57, 90
3, 62760, Note_on_c, 1, 57, 0
3, 62760, Note_on_c, 1, 61, 90
3, 62880, Note_on_c, 1, 61, 0
3, 62880, Note_on_c, 1, 59, 90
3, 63000, Note_on_c, 1, 59, 0
3, 63000, Note_on_c, 1, 62, 90
3, 63120, Note_on_c, 1, 62, 0
3, 63120, Note_on_c, 1, 55, 90
3, 63240, Note_on_c, 1, 55, 0
3, 63240, Note_on_c, 1, 59, 90
3, 63360, Note_on_c, 1, 59, 0
3, 63360, Note_on_c, 1, 57, 90
3, 63480, Note_on_c, 1, 57, 0
3, 63480, Note_on_c, 1, 61, 90
3, 63600, Note_on_c, 1, 61, 0
3, 63600, Note_on_c, 1, 54, 90
3, 63720, Note_on_c, 1, 54, 0
3, 63720, Note_on_c, 1, 57, 90
3, 63840, Note_on_c, 1, 57, 0
3, 63840, Note_on_c, 1, 55, 90
3, 63960, Note_on_c, 1, 55, 0
3, 63960, Note_on_c, 1, 59, 90
3, 64080, Note_on_c, 1, 59, 0
3, 64080, Note_on_c, 1, 52, 90
3, 64200, Note_on_c, 1, 52, 0
3, 64200, Note_on_c, 1, 55, 90
3, 64320, Note_on_c, 1, 55, 0
3, 64320, Note_on_c, 1, 54, 90
3, 64440, Note_on_c, 1, 54, 0
3, 64440, Note_on_c, 1, 57, 90
3, 64560, Note_on_c, 1, 57, 0
3, 64560, Note_on_c, 1, 50, 90
3, 64680, Note_on_c, 1, 50, 0
3, 64680, Note_on_c, 1, 54, 90
3, 64800, Note_on_c, 1, 54, 0
3, 64800, Note_on_c, 1, 52, 90
3, 64920, Note_on_c, 1, 52, 0
3, 64920, Note_on_c, 1, 55, 90
3, 65040, Note_on_c, 1, 55, 0
3, 65040, Note_on_c, 1, 52, 90
3, 65160, Note_on_c, 1, 52, 0
3, 65160, Note_on_c, 1, 55, 90
3, 65280, Note_on_c, 1, 55, 0
3, 65280, Note_on_c, 1, 54, 90
3, 65400, Note_on_c, 1, 54, 0
3, 65400, Note_on_c, 1, 55, 90
3, 65520, Note_on_c, 1, 55, 0
3, 65520, Note_on_c, 1, 57, 90
3, 65760, Note_on_c, 1, 57, 0
3, 65760, Note_on_c, 1, 59, 90
3, 66000, Note_on_c, 1, 59, 0
3, 66000, Note_on_c, 1, 55, 90
3, 66240, Note_on_c, 1, 55, 0
3, 66240, Note_on_c, 1, 57, 90
3, 66480, Note_on_c, 1, 57, 0
3, 66480, Note_on_c, 1, 55, 90
3, 66960, Note_on_c, 1, 55, 0
3, 66960, Note_on_c, 1, 54, 90
3, 67200, Note_on_c, 1, 54, 0
3, 67200, Note_on_c, 1, 55, 90
3, 67440, Note_on_c, 1, 55, 0
3, 67560, Note_on_c, 1, 55, 90
3, 67680, Note_on_c, 1, 55, 0
3, 67680, Note_on_c, 1, 60, 90
3, 67920, Note_on_c, 1, 60, 0
3, 67920, Note_on_c, 1, 59, 90
3, 68160, Note_on_c, 1, 59, 0
3, 68160, Note_on_c, 1, 60, 90
3, 68400, Note_on_c, 1, 60, 0
3, 68400, Note_on_c, 1, 59, 90
3, 68640, Note_on_c, 1, 59, 0
3, 68640, Note_on_c, 1, 60, 90
3, 68880, Note_on_c, 1, 60, 0
3, 68880, Note_on_c, 1, 55, 90
3, 69120, Note_on_c, 1, 55, 0
3, 69120, Note_on_c, 1, 60, 90
3, 69360, Note_on_c, 1, 60, 0
3, 69480, Note_on_c, 1, 57, 90
3, 69600, Note_on_c, 1, 57, 0
3, 69600, Note_on_c, 1, 62, 90
3, 69840, Note_on_c, 1, 62, 0
3, 69840, Note_on_c, 1, 61, 90
3, 70080, Note_on_c, 1, 61, 0
3, 70080, Note_on_c, 1, 62, 90
3, 70320, Note_on_c, 1, 62, 0
3, 70320, Note_on_c, 1, 61, 90
3, 70560, Note_on_c, 1, 61, 0
3, 70560, Note_on_c, 1, 62, 90
3, 70800, Note_on_c, 1, 62, 0
3, 70800, Note_on_c, 1, 57, 90
3, 71040, Note_on_c, 1, 57, 0
3, 71040, Note_on_c, 1, 62, 90
3, 71280, Note_on_c, 1, 62, 0
3, 71400, Note_on_c, 1, 62, 90
3, 71520, Note_on_c, 1, 62, 0
3, 71520, Note_on_c, 1, 67, 90
3, 71760, Note_on_c, 1, 67, 0
3, 71760, Note_on_c, 1, 66, 90
3, 72000, Note_on_c, 1, 66, 0
3, 72000, Note_on_c, 1, 67, 90
3, 72240, Note_on_c, 1, 67, 0
3, 72240, Note_on_c, 1, 66, 90
3, 72480, Note_on_c, 1, 66, 0
3, 72480, Note_on_c, 1, 67, 90
3, 72720, Note_on_c, 1, 67, 0
3, 72720, Note_on_c, 1, 62, 90
3, 72960, Note_on_c, 1, 62, 0
3, 72960, Note_on_c, 1, 67, 90
3, 73200, Note_on_c, 1, 67, 0
3, 73320, Note_on_c, 1, 67, 90
3, 73440, Note_on_c, 1, 67, 0
3, 73440, Note_on_c, 1, 72, 90
3, 73680, Note_on_c, 1, 72, 0
3, 73680, Note_on_c, 1, 71, 90
3, 73920, Note_on_c, 1, 71, 0
3, 73920, Note_on_c, 1, 72, 90
3, 74160, Note_on_c, 1, 72, 0
3, 74160, Note_on_c, 1, 71, 90
3, 74400, Note_on_c, 1, 71, 0
3, 74400, Note_on_c, 1, 72, 90
3, 74640, Note_on_c, 1, 72, 0
3, 74640, Note_on_c, 1, 67, 90
3, 74880, Note_on_c, 1, 67, 0
3, 74880, Note_on_c, 1, 67, 90
3, 75120, Note_on_c, 1, 67, 0
3, 75240, Note_on_c, 1, 67, 90
3, 75360, Note_on_c, 1, 67, 0
3, 75360, Note_on_c, 1, 69, 90
3, 75600, Note_on_c, 1, 69, 0
3, 75600, Note_on_c, 1, 67, 90
3, 75840, Note_on_c, 1, 67, 0
3, 75840, Note_on_c, 1, 66, 90
3, 76080, Note_on_c, 1, 66, 0
3, 76080, Note_on_c, 1, 63, 90
3, 76320, Note_on_c, 1, 63, 0
3, 76320, Note_on_c, 1, 64, 90
3, 76560, Note_on_c, 1, 64, 0
3, 76560, Note_on_c, 1, 63, 90
3, 76800, Note_on_c, 1, 63, 0
3, 76800, Note_on_c, 1, 64, 90
3, 77040, Note_on_c, 1, 64, 0
3, 77040, Note_on_c, 1, 63, 90
3, 77280, Note_on_c, 1, 63, 0
3, 77280, Note_on_c, 1, 64, 90
3, 77520, Note_on_c, 1, 64, 0
3, 77520, Note_on_c, 1, 59, 90
3, 77760, Note_on_c, 1, 59, 0
3, 77760, Note_on_c, 1, 60, 90
3, 78000, Note_on_c, 1, 60, 0
3, 78000, Note_on_c, 1, 59, 90
3, 78240, Note_on_c, 1, 59, 0
3, 78240, Note_on_c, 1, 60, 90
3, 78480, Note_on_c, 1, 60, 0
3, 78480, Note_on_c, 1, 59, 90
3, 78600, Note_on_c, 1, 59, 0
3, 78600, Note_on_c, 1, 57, 90
3, 78720, Note_on_c, 1, 57, 0
3, 78720, Note_on_c, 1, 56, 90
3, 78840, Note_on_c, 1, 56, 0
3, 78840, Note_on_c, 1, 59, 90
3, 78960, Note_on_c, 1, 59, 0
3, 78960, Note_on_c, 1, 64, 90
3, 80880, Note_on_c, 1, 64, 0
3, 80880, Note_on_c, 1, 66, 90
3, 81360, Note_on_c, 1, 66, 0
3, 81360, Note_on_c, 1, 64, 90
3, 81840, Note_on_c, 1, 64, 0
3, 81840, Note_on_c, 1, 62, 90
3, 82320, Note_on_c, 1, 62, 0
3, 82320, Note_on_c, 1, 61, 90
3, 82560, Note_on_c, 1, 61, 0
3, 82560, Note_on_c, 1, 62, 90
3, 82800, Note_on_c, 1, 62, 0
3, 82920, Note_on_c, 1, 62, 90
3, 83016, Note_on_c, 1, 62, 0
3, 83040, Note_on_c, 1, 62, 90
3, 83136, Note_on_c, 1, 62, 0
3, 83160, Note_on_c, 1, 62, 90
3, 83256, Note_on_c, 1, 62, 0
3, 83280, Note_on_c, 1, 62, 90
3, 83376, Note_on_c, 1, 62, 0
3, 83400, Note_on_c, 1, 62, 90
3, 83496, Note_on_c, 1, 62, 0
3, 83520, Note_on_c, 1, 62, 90
3, 83616, Note_on_c, 1, 62, 0
3, 83640, Note_on_c, 1, 62, 90
3, 83736, Note_on_c, 1, 62, 0
3, 83760, Note_on_c, 1, 62, 90
3, 83856, Note_on_c, 1, 62, 0
3, 83880, Note_on_c, 1, 62, 90
3, 83976, Note_on_c, 1, 62, 0
3, 84000, Note_on_c, 1, 62, 90
3, 84096, Note_on_c, 1, 62, 0
3, 84120, Note_on_c, 1, 62, 90
3, 84216, Note_on_c, 1, 62, 0
3, 84240, Note_on_c, 1, 61, 90
3, 84336, Note_on_c, 1, 61, 0
3, 84360, Note_on_c, 1, 62, 90
3, 84456, Note_on_c, 1, 62, 0
3, 84480, Note_on_c, 1, 62, 90
3, 84720, Note_on_c, 1, 62, 0
3, 84720, Note_on_c, 1, 57, 90
3, 84960, Note_on_c, 1, 57, 0
3, 84960, Note_on_c, 1, 59, 90
3, 85200, Note_on_c, 1, 59, 0
3, 85200, Note_on_c, 1, 61, 90
3, 85440, Note_on_c, 1, 61, 0
3, 85440, Note_on_c, 1, 57, 90
3, 85680, Note_on_c, 1, 57, 0
3, 85680, Note_on_c, 1, 59, 90
3, 85920, Note_on_c, 1, 59, 0
3, 85920, Note_on_c, 1, 55, 90
3, 86160, Note_on_c, 1, 55, 0
3, 86160, Note_on_c, 1, 57, 90
3, 86400, Note_on_c, 1, 57, 0
3, 86400, Note_on_c, 1, 54, 90
3, 86640, Note_on_c, 1, 54, 0
3, 86640, Note_on_c, 1, 55, 90
3, 86880, Note_on_c, 1, 55, 0
3, 86880, Note_on_c, 1, 52, 90
3, 87120, Note_on_c, 1, 52, 0
3, 87120, Note_on_c, 1, 54, 90
3, 87360, Note_on_c, 1, 54, 0
3, 87360, Note_on_c, 1, 50, 90
3, 87600, Note_on_c, 1, 50, 0
3, 87600, Note_on_c, 1, 52, 90
3, 87840, Note_on_c, 1, 52, 0
3, 87840, Note_on_c, 1, 49, 90
3, 88080, Note_on_c, 1, 49, 0
3, 88080, Note_on_c, 1, 50, 90
3, 88560, Note_on_c, 1, 50, 0
3, 88560, Note_on_c, 1, 49, 90
3, 88800, Note_on_c, 1, 49, 0
3, 88800, Note_on_c, 1, 50, 90
3, 89040, Note_on_c, 1, 50, 0
3, 89040, Note_on_c, 1, 54, 90
3, 89280, Note_on_c, 1, 54, 0
3, 89280, Note_on_c, 1, 52, 90
3, 89520, Note_on_c, 1, 52, 0
3, 89520, Note_on_c, 1, 52, 90
3, 89760, Note_on_c, 1, 52, 0
3, 89760, Note_on_c, 1, 50, 90
3, 90000, Note_on_c, 1, 50, 0
3, 90000, Note_on_c, 1, 54, 90
3, 90240, Note_on_c, 1, 54, 0
3, 90240, Note_on_c, 1, 55, 90
3, 90480, Note_on_c, 1, 55, 0
3, 90480, Note_on_c, 1, 57, 90
3, 90720, Note_on_c, 1, 57, 0
3, 90720, Note_on_c, 1, 59, 90
3, 90960, Note_on_c, 1, 59, 0
3, 90960, Note_on_c, 1, 57, 90
3, 91200, Note_on_c, 1, 57, 0
3, 91200, Note_on_c, 1, 59, 90
3, 91440, Note_on_c, 1, 59, 0
3, 91440, Note_on_c, 1, 57, 90
3, 91680, Note_on_c, 1, 57, 0
3, 91680, Note_on_c, 1, 57, 115
3, 91920, Note_on_c, 1, 57, 0
3, 91920, Note_on_c, 1, 55, 115
3, 92040, Note_on_c, 1, 55, 0
3, 92040, Note_on_c, 1, 54, 115
3, 92160, Note_on_c, 1, 54, 0
3, 92160, Note_on_c, 1, 52, 115
3, 92400, Note_on_c, 1, 52, 0
3, 92640, Note_on_c, 1, 62, 115
3, 92880, Note_on_c, 1, 62, 0
3, 92880, Note_on_c, 1, 60, 115
3, 93000, Note_on_c, 1, 60, 0
3, 93000, Note_on_c, 1, 59, 115
3, 93120, Note_on_c, 1, 59, 0
3, 93120, Note_on_c, 1, 64, 115
3, 93240, Note_on_c, 1, 64, 0
3, 93240, Note_on_c, 1, 62, 115
3, 93360, Note_on_c, 1, 62, 0
3, 93360, Note_on_c, 1, 60, 115
3, 93480, Note_on_c, 1, 60, 0
3, 93480, Note_on_c, 1, 64, 115
3, 93600, Note_on_c, 1, 64, 0
3, 93600, Note_on_c, 1, 62, 115
3, 93720, Note_on_c, 1, 62, 0
3, 94080, Note_on_c, 1, 59, 115
3, 94320, Note_on_c, 1, 59, 0
3, 94320, Note_on_c, 1, 57, 115
3, 94800, Note_on_c, 1, 57, 0
3, 94800, Note_on_c, 1, 59, 115
3, 95760, Note_on_c, 1, 59, 0
3, 95760, Note_on_c, 1, 59, 115
3, 96000, Note_on_c, 1, 59, 0
3, 96000, Note_on_c, 1, 60, 115
3, 97080, Note_on_c, 1, 60, 0
3, 97080, Note_on_c, 1, 64, 115
3, 97200, Note_on_c, 1, 64, 0
3, 97200, Note_on_c, 1, 62, 115
3, 97320, Note_on_c, 1, 62, 0
3, 97320, Note_on_c, 1, 60, 115
3, 97440, Note_on_c, 1, 60, 0
3, 97440, Note_on_c, 1, 59, 115
3, 97920, Note_on_c, 1, 59, 0
3, 97920, Note_on_c, 1, 64, 115
3, 98400, Note_on_c, 1, 64, 0
3, 98400, Note_on_c, 1, 57, 115
3, 99000, Note_on_c, 1, 57, 0
3, 99000, Note_on_c, 1, 55, 115
3, 99060, Note_on_c, 1, 55, 0
3, 99060, Note_on_c, 1, 54, 115
3, 99120, Note_on_c, 1, 54, 0
3, 99120, Note_on_c, 1, 55, 115
3, 99360, Note_on_c, 1, 55, 0
3, 99960, Note_on_c, 1, 65, 115
3, 100080, Note_on_c, 1, 65, 0
3, 100080, Note_on_c, 1, 64, 115
3, 100200, Note_on_c, 1, 64, 0
3, 100200, Note_on_c, 1, 62, 115
3, 100320, Note_on_c, 1, 62, 0
3, 100320, Note_on_c, 1, 64, 115
3, 100800, Note_on_c, 1, 64, 0
3, 100800, Note_on_c, 1, 62, 115
3, 101040, Note_on_c, 1, 62, 0
3, 101280, Note_on_c, 1, 52, 115
3, 101280, Note_on_c, 1, 55, 115
3, 101640, Note_on_c, 1, 55, 0
3, 101640, Note_on_c, 1, 52, 0
3, 101640, Note_on_c, 1, 52, 115
3, 101640, Note_on_c, 1, 55, 115
3, 101760, Note_on_c, 1, 52, 0
3, 101760, Note_on_c, 1, 50, 115
3, 102000, Note_on_c, 1, 55, 0
3, 102000, Note_on_c, 1, 54, 115
3, 102120, Note_on_c, 1, 54, 0
3, 102120, Note_on_c, 1, 52, 115
3, 102240, Note_on_c, 1, 52, 0
3, 102240, Note_on_c, 1, 54, 115
3, 102720, Note_on_c, 1, 54, 0
3, 102720, Note_on_c, 1, 50, 0
3, 103680, Note_on_c, 1, 62, 90
3, 103740, Note_on_c, 1, 62, 0
3, 103740, Note_on_c, 1, 64, 90
3, 103800, Note_on_c, 1, 64, 0
3, 103800, Note_on_c, 1, 66, 90
3, 103860, Note_on_c, 1, 66, 0
3, 103860, Note_on_c, 1, 64, 90
3, 103920, Note_on_c, 1, 64, 0
3, 103920, Note_on_c, 1, 62, 90
3, 103980, Note_on_c, 1, 62, 0
3, 103980, Note_on_c, 1, 64, 90
3, 104040, Note_on_c, 1, 64, 0
3, 104040, Note_on_c, 1, 66, 90
3, 104100, Note_on_c, 1, 66, 0
3, 104100, Note_on_c, 1, 64, 90
3, 104160, Note_on_c, 1, 64, 0
3, 104160, Note_on_c, 1, 62, 90
3, 104220, Note_on_c, 1, 62, 0
3, 104220, Note_on_c, 1, 64, 90
3, 104280, Note_on_c, 1, 64, 0
3, 104280, Note_on_c, 1, 66, 90
3, 104340, Note_on_c, 1, 66, 0
3, 104340, Note_on_c, 1, 64, 90
3, 104400, Note_on_c, 1, 64, 0
3, 104400, Note_on_c, 1, 62, 90
3, 104460, Note_on_c, 1, 62, 0
3, 104460, Note_on_c, 1, 64, 90
3, 104520, Note_on_c, 1, 64, 0
3, 104520, Note_on_c, 1, 66, 90
3, 104580, Note_on_c, 1, 66, 0
3, 104580, Note_on_c, 1, 64, 90
3, 104640, Note_on_c, 1, 64, 0
3, 104640, Note_on_c, 1, 62, 90
3, 104760, Note_on_c, 1, 62, 0
3, 105360, Note_on_c, 1, 71, 90
3, 105420, Note_on_c, 1, 71, 0
3, 105420, Note_on_c, 1, 69, 90
3, 105480, Note_on_c, 1, 69, 0
3, 105480, Note_on_c, 1, 71, 90
3, 105540, Note_on_c, 1, 71, 0
3, 105540, Note_on_c, 1, 66, 90
3, 105600, Note_on_c, 1, 66, 0
3, 105600, Note_on_c, 1, 67, 90
3, 105660, Note_on_c, 1, 67, 0
3, 105660, Note_on_c, 1, 66, 90
3, 105720, Note_on_c, 1, 66, 0
3, 105720, Note_on_c, 1, 67, 90
3, 105780, Note_on_c, 1, 67, 0
3, 105780, Note_on_c, 1, 64, 90
3, 105840, Note_on_c, 1, 64, 0
3, 105840, Note_on_c, 1, 69, 90
3, 105900, Note_on_c, 1, 69, 0
3, 105900, Note_on_c, 1, 67, 90
3, 105960, Note_on_c, 1, 67, 0
3, 105960, Note_on_c, 1, 69, 90
3, 106020, Note_on_c, 1, 69, 0
3, 106020, Note_on_c, 1, 64, 90
3, 106080, Note_on_c, 1, 64, 0
3, 106080, Note_on_c, 1, 66, 90
3, 106140, Note_on_c, 1, 66, 0
3, 106140, Note_on_c, 1, 64, 90
3, 106200, Note_on_c, 1, 64, 0
3, 106200, Note_on_c, 1, 66, 90
3, 106260, Note_on_c, 1, 66, 0
3, 106260, Note_on_c, 1, 62, 90
3, 106320, Note_on_c, 1, 62, 0
3, 106320, Note_on_c, 1, 67, 90
3, 106380, Note_on_c, 1, 67, 0
3, 106380, Note_on_c, 1, 66, 90
3, 106440, Note_on_c, 1, 66, 0
3, 106440, Note_on_c, 1, 67, 90
3, 106500, Note_on_c, 1, 67, 0
3, 106500, Note_on_c, 1, 62, 90
3, 106560, Note_on_c, 1, 62, 0
3, 106560, Note_on_c, 1, 64, 90
3, 106620, Note_on_c, 1, 64, 0
3, 106620, Note_on_c, 1, 62, 90
3, 106680, Note_on_c, 1, 62, 0
3, 106680, Note_on_c, 1, 64, 90
3, 106740, Note_on_c, 1, 64, 0
3, 106740, Note_on_c, 1, 61, 90
3, 106800, Note_on_c, 1, 61, 0
3, 106800, Note_on_c, 1, 66, 90
3, 106860, Note_on_c, 1, 66, 0
3, 106860, Note_on_c, 1, 64, 90
3, 106920, Note_on_c, 1, 64, 0
3, 106920, Note_on_c, 1, 66, 90
3, 106980, Note_on_c, 1, 66, 0
3, 106980, Note_on_c, 1, 61, 90
3, 107040, Note_on_c, 1, 61, 0
3, 107040, Note_on_c, 1, 62, 90
3, 107100, Note_on_c, 1, 62, 0
3, 107100, Note_on_c, 1, 61, 90
3, 107160, Note_on_c, 1, 61, 0
3, 107160, Note_on_c, 1, 62, 90
3, 107220, Note_on_c, 1, 62, 0
3, 107220, Note_on_c, 1, 59, 90
3, 107280, Note_on_c, 1, 59, 0
3, 107280, Note_on_c, 1, 64, 90
3, 107340, Note_on_c, 1, 64, 0
3, 107340, Note_on_c, 1, 62, 90
3, 107400, Note_on_c, 1, 62, 0
3, 107400, Note_on_c, 1, 64, 90
3, 107460, Note_on_c, 1, 64, 0
3, 107460, Note_on_c, 1, 59, 90
3, 107520, Note_on_c, 1, 59, 0
3, 107520, Note_on_c, 1, 61, 90
3, 107580, Note_on_c, 1, 61, 0
3, 107580, Note_on_c, 1, 59, 90
3, 107640, Note_on_c, 1, 59, 0
3, 107640, Note_on_c, 1, 61, 90
3, 107700, Note_on_c, 1, 61, 0
3, 107700, Note_on_c, 1, 57, 90
3, 107760, Note_on_c, 1, 57, 0
3, 107760, Note_on_c, 1, 62, 90
3, 108060, Note_on_c, 1, 62, 0
3, 108060, Note_on_c, 1, 64, 90
3, 108120, Note_on_c, 1, 64, 0
3, 108120, Note_on_c, 1, 62, 90
3, 108180, Note_on_c, 1, 62, 0
3, 108180, Note_on_c, 1, 64, 90
3, 108240, Note_on_c, 1, 64, 0
3, 108240, Note_on_c, 1, 61, 90
3, 108270, Note_on_c, 1, 61, 0
3, 108270, Note_on_c, 1, 59, 90
3, 108300, Note_on_c, 1, 59, 0
3, 108300, Note_on_c, 1, 61, 90
3, 108420, Note_on_c, 1, 61, 0
3, 108420, Note_on_c, 1, 62, 90
3, 108480, Note_on_c, 1, 62, 0
3, 108480, Note_on_c, 1, 62, 90
3, 108540, Note_on_c, 1, 62, 0
3, 108540, Note_on_c, 1, 66, 90
3, 108600, Note_on_c, 1, 66, 0
3, 108600, Note_on_c, 1, 62, 90
3, 108660, Note_on_c, 1, 62, 0
3, 108660, Note_on_c, 1, 57, 90
3, 108720, Note_on_c, 1, 57, 0
3, 108720, Note_on_c, 1, 54, 90
3, 108780, Note_on_c, 1, 54, 0
3, 108780, Note_on_c, 1, 57, 90
3, 108840, Note_on_c, 1, 57, 0
3, 108840, Note_on_c, 1, 54, 90
3, 108900, Note_on_c, 1, 54, 0
3, 108900, Note_on_c, 1, 50, 90
3, 108960, Note_on_c, 1, 50, 0
3, 108960, Note_on_c, 1, 57, 90
3, 109080, Note_on_c, 1, 57, 0
3, 110040, Note_on_c, 1, 57, 90
3, 110100, Note_on_c, 1, 57, 0
3, 110100, Note_on_c, 1, 56, 90
3, 110160, Note_on_c, 1, 56, 0
3, 110160, Note_on_c, 1, 57, 90
3, 110220, Note_on_c, 1, 57, 0
3, 110220, Note_on_c, 1, 56, 90
3, 110280, Note_on_c, 1, 56, 0
3, 110280, Note_on_c, 1, 57, 90
3, 110340, Note_on_c, 1, 57, 0
3, 110340, Note_on_c, 1, 56, 90
3, 110400, Note_on_c, 1, 56, 0
3, 110400, Note_on_c, 1, 57, 90
3, 110496, Note_on_c, 1, 57, 0
3, 110520, Note_on_c, 1, 45, 90
3, 110640, Note_on_c, 1, 45, 0
3, 110760, Note_on_c, 1, 69, 90
3, 110856, Note_on_c, 1, 69, 0
3, 110880, Note_on_c, 1, 69, 90
3, 111120, Note_on_c, 1, 69, 0
3, 111240, Note_on_c, 1, 68, 90
3, 111336, Note_on_c, 1, 68, 0
3, 111360, Note_on_c, 1, 68, 90
3, 111600, Note_on_c, 1, 68, 0
3, 111720, Note_on_c, 1, 66, 90
3, 111816, Note_on_c, 1, 66, 0
3, 111840, Note_on_c, 1, 66, 90
3, 112080, Note_on_c, 1, 66, 0
3, 112200, Note_on_c, 1, 64, 90
3, 112296, Note_on_c, 1, 64, 0
3, 112320, Note_on_c, 1, 64, 90
3, 112560, Note_on_c, 1, 64, 0
3, 112680, Note_on_c, 1, 62, 90
3, 112776, Note_on_c, 1, 62, 0
3, 112800, Note_on_c, 1, 62, 90
3, 113040, Note_on_c, 1, 62, 0
3, 113100, Note_on_c, 1, 61, 90
3, 113160, Note_on_c, 1, 61, 0
3, 113160, Note_on_c, 1, 66, 90
3, 113220, Note_on_c, 1, 66, 0
3, 113220, Note_on_c, 1, 61, 90
3, 113280, Note_on_c, 1, 61, 0
3, 113280, Note_on_c, 1, 62, 90
3, 113400, Note_on_c, 1, 62, 0
3, 113400, Note_on_c, 1, 59, 90
3, 113520, Note_on_c, 1, 59, 0
3, 113580, Note_on_c, 1, 59, 90
3, 113640, Note_on_c, 1, 59, 0
3, 113640, Note_on_c, 1, 64, 90
3, 113700, Note_on_c, 1, 64, 0
3, 113700, Note_on_c, 1, 59, 90
3, 113760, Note_on_c, 1, 59, 0
3, 113760, Note_on_c, 1, 61, 90
3, 113880, Note_on_c, 1, 61, 0
3, 114000, Note_on_c, 1, 61, 90
3, 114060, Note_on_c, 1, 61, 0
3, 114060, Note_on_c, 1, 64, 90
3, 114120, Note_on_c, 1, 64, 0
3, 114120, Note_on_c, 1, 61, 90
3, 114180, Note_on_c, 1, 61, 0
3, 114180, Note_on_c, 1, 57, 90
3, 114240, Note_on_c, 1, 57, 0
3, 114240, Note_on_c, 1, 54, 90
3, 114360, Note_on_c, 1, 54, 0
3, 114480, Note_on_c, 1, 66, 90
3, 114540, Note_on_c, 1, 66, 0
3, 114540, Note_on_c, 1, 69, 90
3, 114600, Note_on_c, 1, 69, 0
3, 114600, Note_on_c, 1, 66, 90
3, 114660, Note_on_c, 1, 66, 0
3, 114660, Note_on_c, 1, 62, 90
3, 114720, Note_on_c, 1, 62, 0
3, 114720, Note_on_c, 1, 59, 90
3, 114840, Note_on_c, 1, 59, 0
3, 114960, Note_on_c, 1, 64, 90
3, 115020, Note_on_c, 1, 64, 0
3, 115020, Note_on_c, 1, 67, 90
3, 115080, Note_on_c, 1, 67, 0
3, 115080, Note_on_c, 1, 64, 90
3, 115140, Note_on_c, 1, 64, 0
3, 115140, Note_on_c, 1, 59, 90
3, 115200, Note_on_c, 1, 59, 0
3, 115200, Note_on_c, 1, 61, 90
3, 115320, Note_on_c, 1, 61, 0
3, 115320, Note_on_c, 1, 57, 90
3, 115440, Note_on_c, 1, 57, 0
3, 115500, Note_on_c, 1, 57, 90
3, 115560, Note_on_c, 1, 57, 0
3, 115560, Note_on_c, 1, 62, 90
3, 115620, Note_on_c, 1, 62, 0
3, 115620, Note_on_c, 1, 57, 90
3, 115680, Note_on_c, 1, 57, 0
3, 115680, Note_on_c, 1, 59, 90
3, 115740, Note_on_c, 1, 59, 0
3, 115740, Note_on_c, 1, 61, 90
3, 115800, Note_on_c, 1, 61, 0
3, 115800, Note_on_c, 1, 62, 90
3, 116040, Note_on_c, 1, 62, 0
3, 116040, Note_on_c, 1, 61, 90
3, 116160, Note_on_c, 1, 61, 0
3, 116160, Note_on_c, 1, 62, 90
3, 116280, Note_on_c, 1, 62, 0
3, 116280, Note_on_c, 1, 50, 90
3, 116400, Note_on_c, 1, 50, 0
3, 116520, Note_on_c, 1, 52, 90
3, 116640, Note_on_c, 1, 52, 0
3, 116640, Note_on_c, 1, 54, 90
3, 116760, Note_on_c, 1, 54, 0
3, 116760, Note_on_c, 1, 55, 90
3, 116880, Note_on_c, 1, 55, 0
3, 116880, Note_on_c, 1, 57, 90
3, 117000, Note_on_c, 1, 57, 0
3, 117000, Note_on_c, 1, 45, 90
3, 117120, Note_on_c, 1, 45, 0
3, 117120, Note_on_c, 1, 50, 90
3, 117240, Note_on_c, 1, 50, 0
3, 117240, Note_on_c, 1, 62, 90
3, 117300, Note_on_c, 1, 62, 0
3, 117300, Note_on_c, 1, 61, 90
3, 117360, Note_on_c, 1, 61, 0
3, 117360, Note_on_c, 1, 62, 90
3, 117420, Note_on_c, 1, 62, 0
3, 117420, Note_on_c, 1, 61, 90
3, 117480, Note_on_c, 1, 61, 0
3, 117480, Note_on_c, 1, 62, 90
3, 117540, Note_on_c, 1, 62, 0
3, 117540, Note_on_c, 1, 61, 90
3, 117600, Note_on_c, 1, 61, 0
3, 117600, Note_on_c, 1, 62, 90
3, 117696, Note_on_c, 1, 62, 0
3, 117720, Note_on_c, 1, 50, 90
3, 117840, Note_on_c, 1, 50, 0
3, 117960, Note_on_c, 1, 62, 90
3, 117960, Note_on_c, 1, 66, 90
3, 118056, Note_on_c, 1, 66, 0
3, 118056, Note_on_c, 1, 62, 0
3, 118080, Note_on_c, 1, 62, 90
3, 118080, Note_on_c, 1, 64, 90
3, 118320, Note_on_c, 1, 64, 0
3, 118320, Note_on_c, 1, 62, 0
3, 118440, Note_on_c, 1, 64, 90
3, 118440, Note_on_c, 1, 61, 90
3, 118536, Note_on_c, 1, 61, 0
3, 118536, Note_on_c, 1, 64, 0
3, 118560, Note_on_c, 1, 62, 90
3, 118560, Note_on_c, 1, 61, 90
3, 118800, Note_on_c, 1, 61, 0
3, 118800, Note_on_c, 1, 62, 0
3, 118920, Note_on_c, 1, 62, 90
3, 118920, Note_on_c, 1, 59, 90
3, 119016, Note_on_c, 1, 59, 0
3, 119016, Note_on_c, 1, 62, 0
3, 119040, Note_on_c, 1, 61, 90
3, 119040, Note_on_c, 1, 59, 90
3, 119280, Note_on_c, 1, 59, 0
3, 119280, Note_on_c, 1, 61, 0
3, 119400, Note_on_c, 1, 61, 90
3, 119400, Note_on_c, 1, 57, 90
3, 119496, Note_on_c, 1, 57, 0
3, 119496, Note_on_c, 1, 61, 0
3, 119520, Note_on_c, 1, 59, 90
3, 119520, Note_on_c, 1, 57, 90
3, 119760, Note_on_c, 1, 57, 0
3, 119760, Note_on_c, 1, 59, 0
3, 119880, Note_on_c, 1, 59, 90
3, 119880, Note_on_c, 1, 55, 90
3, 119976, Note_on_c, 1, 55, 0
3, 119976, Note_on_c, 1, 59, 0
3, 120000, Note_on_c, 1, 57, 90
3, 120000, Note_on_c, 1, 55, 90
3, 120240, Note_on_c, 1, 55, 0
3, 120240, Note_on_c, 1, 57, 0
3, 120240, Note_on_c, 1, 54, 90
3, 120300, Note_on_c, 1, 57, 90
3, 120360, Note_on_c, 1, 57, 0
3, 120360, Note_on_c, 1, 62, 90
3, 120420, Note_on_c, 1, 62, 0
3, 120420, Note_on_c, 1, 57, 90
3, 120480, Note_on_c, 1, 57, 0
3, 120480, Note_on_c, 1, 54, 0
3, 120480, Note_on_c, 1, 59, 90
3, 120480, Note_on_c, 1, 55, 90
3, 120600, Note_on_c, 1, 55, 0
3, 120600, Note_on_c, 1, 59, 0
3, 120600, Note_on_c, 1, 57, 90
3, 120600, Note_on_c, 1, 54, 90
3, 120720, Note_on_c, 1, 54, 0
3, 120720, Note_on_c, 1, 57, 0
3, 120720, Note_on_c, 1, 55, 90
3, 120720, Note_on_c, 1, 52, 90
3, 120840, Note_on_c, 1, 52, 0
3, 120840, Note_on_c, 1, 45, 90
3, 120960, Note_on_c, 1, 45, 0
3, 120960, Note_on_c, 1, 55, 0
3, 120960, Note_on_c, 1, 50, 90
3, 120960, Note_on_c, 1, 54, 90
3, 121200, Note_on_c, 1, 54, 0
3, 121200, Note_on_c, 1, 50, 0
3, 121800, Note_on_c, 1, 61, 90
3, 121920, Note_on_c, 1, 61, 0
3, 121920, Note_on_c, 1, 59, 90
3, 121980, Note_on_c, 1, 59, 0
3, 121980, Note_on_c, 1, 66, 90
3, 122040, Note_on_c, 1, 66, 0
3, 122040, Note_on_c, 1, 62, 90
3, 122100, Note_on_c, 1, 62, 0
3, 122100, Note_on_c, 1, 59, 90
3, 122160, Note_on_c, 1, 59, 0
3, 122160, Note_on_c, 1, 64, 90
3, 122220, Note_on_c, 1, 64, 0
3, 122220, Note_on_c, 1, 59, 90
3, 122280, Note_on_c, 1, 59, 0
3, 122280, Note_on_c, 1, 56, 90
3, 122340, Note_on_c, 1, 56, 0
3, 122340, Note_on_c, 1, 52, 90
3, 122400, Note_on_c, 1, 52, 0
3, 122400, Note_on_c, 1, 57, 90
3, 122640, Note_on_c, 1, 57, 0
3, 123480, Note_on_c, 1, 61, 90
3, 123540, Note_on_c, 1, 61, 0
3, 123540, Note_on_c, 1, 59, 90
3, 123600, Note_on_c, 1, 59, 0
3, 123600, Note_on_c, 1, 61, 90
3, 123660, Note_on_c, 1, 61, 0
3, 123660, Note_on_c, 1, 59, 90
3, 123720, Note_on_c, 1, 59, 0
3, 123720, Note_on_c, 1, 61, 90
3, 123780, Note_on_c, 1, 61, 0
3, 123780, Note_on_c, 1, 59, 90
3, 123840, Note_on_c, 1, 59, 0
3, 123840, Note_on_c, 1, 61, 90
3, 124080, Note_on_c, 1, 61, 0
3, 126120, Note_on_c, 1, 62, 90
3, 126216, Note_on_c, 1, 62, 0
3, 126240, Note_on_c, 1, 59, 90
3, 126480, Note_on_c, 1, 59, 0
3, 126480, Note_on_c, 1, 57, 90
3, 126720, Note_on_c, 1, 57, 0
3, 126720, Note_on_c, 1, 54, 90
3, 126960, Note_on_c, 1, 54, 0
3, 126960, Note_on_c, 1, 52, 90
3, 127200, Note_on_c, 1, 52, 0
3, 127200, Note_on_c, 1, 52, 90
3, 127440, Note_on_c, 1, 52, 0
3, 127560, Note_on_c, 1, 61, 90
3, 127680, Note_on_c, 1, 61, 0
3, 127680, Note_on_c, 1, 59, 90
3, 127920, Note_on_c, 1, 59, 0
3, 127920, Note_on_c, 1, 59, 90
3, 128040, Note_on_c, 1, 59, 0
3, 128040, Note_on_c, 1, 62, 90
3, 128160, Note_on_c, 1, 62, 0
3, 128160, Note_on_c, 1, 61, 90
3, 128220, Note_on_c, 1, 61, 0
3, 128220, Note_on_c, 1, 62, 90
3, 128280, Note_on_c, 1, 62, 0
3, 128280, Note_on_c, 1, 64, 90
3, 128340, Note_on_c, 1, 64, 0
3, 128340, Note_on_c, 1, 62, 90
3, 128400, Note_on_c, 1, 62, 0
3, 128400, Note_on_c, 1, 61, 90
3, 128460, Note_on_c, 1, 61, 0
3, 128460, Note_on_c, 1, 62, 90
3, 128520, Note_on_c, 1, 62, 0
3, 128520, Note_on_c, 1, 64, 90
3, 128580, Note_on_c, 1, 64, 0
3, 128580, Note_on_c, 1, 62, 90
3, 128640, Note_on_c, 1, 62, 0
3, 128640, Note_on_c, 1, 61, 90
3, 128700, Note_on_c, 1, 61, 0
3, 128700, Note_on_c, 1, 62, 90
3, 128760, Note_on_c, 1, 62, 0
3, 128760, Note_on_c, 1, 64, 90
3, 128820, Note_on_c, 1, 64, 0
3, 128820, Note_on_c, 1, 62, 90
3, 128880, Note_on_c, 1, 62, 0
3, 128880, Note_on_c, 1, 61, 90
3, 128940, Note_on_c, 1, 61, 0
3, 128940, Note_on_c, 1, 62, 90
3, 129000, Note_on_c, 1, 62, 0
3, 129000, Note_on_c, 1, 64, 90
3, 129060, Note_on_c, 1, 64, 0
3, 129060, Note_on_c, 1, 62, 90
3, 129120, Note_on_c, 1, 62, 0
3, 129120, Note_on_c, 1, 61, 90
3, 129360, Note_on_c, 1, 61, 0
3, 129360, Note_on_c, 1, 61, 90
3, 129420, Note_on_c, 1, 61, 0
3, 129420, Note_on_c, 1, 64, 90
3, 129480, Note_on_c, 1, 64, 0
3, 129480, Note_on_c, 1, 61, 90
3, 129540, Note_on_c, 1, 61, 0
3, 129540, Note_on_c, 1, 57, 90
3, 129600, Note_on_c, 1, 57, 0
3, 129600, Note_on_c, 1, 54, 90
3, 129720, Note_on_c, 1, 54, 0
3, 129720, Note_on_c, 1, 66, 90
3, 129840, Note_on_c, 1, 66, 0
3, 129840, Note_on_c, 1, 67, 90
3, 129960, Note_on_c, 1, 67, 0
3, 129960, Note_on_c, 1, 64, 90
3, 130080, Note_on_c, 1, 64, 0
3, 130080, Note_on_c, 1, 69, 90
3, 130200, Note_on_c, 1, 69, 0
3, 130200, Note_on_c, 1, 66, 90
3, 130320, Note_on_c, 1, 66, 0
3, 130320, Note_on_c, 1, 71, 90
3, 130440, Note_on_c, 1, 71, 0
3, 130440, Note_on_c, 1, 59, 90
3, 130560, Note_on_c, 1, 59, 0
3, 130560, Note_on_c, 1, 61, 90
3, 130680, Note_on_c, 1, 61, 0
3, 130680, Note_on_c, 1, 57, 90
3, 130800, Note_on_c, 1, 57, 0
3, 130800, Note_on_c, 1, 62, 90
3, 130920, Note_on_c, 1, 62, 0
3, 130920, Note_on_c, 1, 61, 90
3, 131040, Note_on_c, 1, 61, 0
3, 131040, Note_on_c, 1, 59, 90
3, 131160, Note_on_c, 1, 59, 0
3, 131160, Note_on_c, 1, 55, 90
3, 131280, Note_on_c, 1, 55, 0
3, 131280, Note_on_c, 1, 57, 90
3, 131400, Note_on_c, 1, 57, 0
3, 131400, Note_on_c, 1, 45, 90
3, 131520, Note_on_c, 1, 45, 0
3, 131520, Note_on_c, 1, 50, 90
3, 131640, Note_on_c, 1, 50, 0
3, 132600, Note_on_c, 1, 54, 90
3, 132660, Note_on_c, 1, 54, 0
3, 132660, Note_on_c, 1, 52, 90
3, 132720, Note_on_c, 1, 52, 0
3, 132720, Note_on_c, 1, 54, 90
3, 132780, Note_on_c, 1, 54, 0
3, 132780, Note_on_c, 1, 52, 90
3, 132840, Note_on_c, 1, 52, 0
3, 132840, Note_on_c, 1, 54, 90
3, 132900, Note_on_c, 1, 54, 0
3, 132900, Note_on_c, 1, 52, 90
3, 132960, Note_on_c, 1, 52, 0
3, 132960, Note_on_c, 1, 54, 90
3, 133200, Note_on_c, 1, 54, 0
3, 138240, Note_on_c, 1, 57, 90
3, 138300, Note_on_c, 1, 57, 0
3, 138300, Note_on_c, 1, 59, 90
3, 138360, Note_on_c, 1, 59, 0
3, 138360, Note_on_c, 1, 61, 90
3, 138420, Note_on_c, 1, 61, 0
3, 138420, Note_on_c, 1, 59, 90
3, 138480, Note_on_c, 1, 59, 0
3, 138480, Note_on_c, 1, 57, 90
3, 138540, Note_on_c, 1, 57, 0
3, 138540, Note_on_c, 1, 59, 90
3, 138600, Note_on_c, 1, 59, 0
3, 138600, Note_on_c, 1, 61, 90
3, 138660, Note_on_c, 1, 61, 0
3, 138660, Note_on_c, 1, 59, 90
3, 138720, Note_on_c, 1, 59, 0
3, 138720, Note_on_c, 1, 57, 90
3, 138780, Note_on_c, 1, 57, 0
3, 138780, Note_on_c, 1, 59, 90
3, 138840, Note_on_c, 1, 59, 0
3, 138840, Note_on_c, 1, 61, 90
3, 138900, Note_on_c, 1, 61, 0
3, 138900, Note_on_c, 1, 59, 90
3, 138960, Note_on_c, 1, 59, 0
3, 138960, Note_on_c, 1, 57, 90
3, 139020, Note_on_c, 1, 57, 0
3, 139020, Note_on_c, 1, 59, 90
3, 139080, Note_on_c, 1, 59, 0
3, 139080, Note_on_c, 1, 61, 90
3, 139140, Note_on_c, 1, 61, 0
3, 139140, Note_on_c, 1, 59, 90
3, 139200, Note_on_c, 1, 59, 0
3, 139200, Note_on_c, 1, 57, 90
3, 139320, Note_on_c, 1, 57, 0
3, 139920, Note_on_c, 1, 66, 90
3, 139980, Note_on_c, 1, 66, 0
3, 139980, Note_on_c, 1, 64, 90
3, 140040, Note_on_c, 1, 64, 0
3, 140040, Note_on_c, 1, 66, 90
3, 140100, Note_on_c, 1, 66, 0
3, 140100, Note_on_c, 1, 61, 90
3, 140160, Note_on_c, 1, 61, 0
3, 140160, Note_on_c, 1, 62, 90
3, 140220, Note_on_c, 1, 62, 0
3, 140220, Note_on_c, 1, 61, 90
3, 140280, Note_on_c, 1, 61, 0
3, 140280, Note_on_c, 1, 62, 90
3, 140340, Note_on_c, 1, 62, 0
3, 140340, Note_on_c, 1, 59, 90
3, 140400, Note_on_c, 1, 59, 0
3, 140400, Note_on_c, 1, 64, 90
3, 140460, Note_on_c, 1, 64, 0
3, 140460, Note_on_c, 1, 62, 90
3, 140520, Note_on_c, 1, 62, 0
3, 140520, Note_on_c, 1, 64, 90
3, 140580, Note_on_c, 1, 64, 0
3, 140580, Note_on_c, 1, 59, 90
3, 140640, Note_on_c, 1, 59, 0
3, 140640, Note_on_c, 1, 61, 90
3, 140700, Note_on_c, 1, 61, 0
3, 140700, Note_on_c, 1, 59, 90
3, 140760, Note_on_c, 1, 59, 0
3, 140760, Note_on_c, 1, 61, 90
3, 140820, Note_on_c, 1, 61, 0
3, 140820, Note_on_c, 1, 57, 90
3, 140880, Note_on_c, 1, 57, 0
3, 140880, Note_on_c, 1, 62, 90
3, 140940, Note_on_c, 1, 62, 0
3, 140940, Note_on_c, 1, 61, 90
3, 141000, Note_on_c, 1, 61, 0
3, 141000, Note_on_c, 1, 62, 90
3, 141060, Note_on_c, 1, 62, 0
3, 141060, Note_on_c, 1, 57, 90
3, 141120, Note_on_c, 1, 57, 0
3, 141120, Note_on_c, 1, 59, 90
3, 141180, Note_on_c, 1, 59, 0
3, 141180, Note_on_c, 1, 57, 90
3, 141240, Note_on_c, 1, 57, 0
3, 141240, Note_on_c, 1, 59, 90
3, 141300, Note_on_c, 1, 59, 0
3, 141300, Note_on_c, 1, 56, 90
3, 141360, Note_on_c, 1, 56, 0
3, 141360, Note_on_c, 1, 61, 90
3, 141420, Note_on_c, 1, 61, 0
3, 141420, Note_on_c, 1, 59, 90
3, 141480, Note_on_c, 1, 59, 0
3, 141480, Note_on_c, 1, 61, 90
3, 141540, Note_on_c, 1, 61, 0
3, 141540, Note_on_c, 1, 56, 90
3, 141600, Note_on_c, 1, 56, 0
3, 141600, Note_on_c, 1, 57, 90
3, 141660, Note_on_c, 1, 57, 0
3, 141660, Note_on_c, 1, 56, 90
3, 141720, Note_on_c, 1, 56, 0
3, 141720, Note_on_c, 1, 57, 90
3, 141780, Note_on_c, 1, 57, 0
3, 141780, Note_on_c, 1, 54, 90
3, 141840, Note_on_c, 1, 54, 0
3, 141840, Note_on_c, 1, 59, 90
3, 141900, Note_on_c, 1, 59, 0
3, 141900, Note_on_c, 1, 57, 90
3, 141960, Note_on_c, 1, 57, 0
3, 141960, Note_on_c, 1, 59, 90
3, 142020, Note_on_c, 1, 59, 0
3, 142020, Note_on_c, 1, 54, 90
3, 142080, Note_on_c, 1, 54, 0
3, 142080, Note_on_c, 1, 56, 90
3, 142140, Note_on_c, 1, 56, 0
3, 142140, Note_on_c, 1, 54, 90
3, 142200, Note_on_c, 1, 54, 0
3, 142200, Note_on_c, 1, 56, 90
3, 142260, Note_on_c, 1, 56, 0
3, 142260, Note_on_c, 1, 52, 90
3, 142320, Note_on_c, 1, 52, 0
3, 142320, Note_on_c, 1, 57, 90
3, 142620, Note_on_c, 1, 57, 0
3, 142620, Note_on_c, 1, 59, 90
3, 142680, Note_on_c, 1, 59, 0
3, 142680, Note_on_c, 1, 57, 90
3, 142740, Note_on_c, 1, 57, 0
3, 142740, Note_on_c, 1, 59, 90
3, 142800, Note_on_c, 1, 59, 0
3, 142800, Note_on_c, 1, 56, 90
3, 142980, Note_on_c, 1, 56, 0
3, 142980, Note_on_c, 1, 57, 90
3, 143040, Note_on_c, 1, 57, 0
3, 143040, Note_on_c, 1, 57, 90
3, 143280, Note_on_c, 1, 57, 0
3, 143280, Note_on_c, 1, 52, 90
3, 143340, Note_on_c, 1, 52, 0
3, 143340, Note_on_c, 1, 57, 90
3, 143400, Note_on_c, 1, 57, 0
3, 143400, Note_on_c, 1, 52, 90
3, 143460, Note_on_c, 1, 52, 0
3, 143460, Note_on_c, 1, 49, 90
3, 143520, Note_on_c, 1, 49, 0
3, 143760, Note_on_c, 1, 49, 90
3, 143820, Note_on_c, 1, 49, 0
3, 143820, Note_on_c, 1, 52, 90
3, 143880, Note_on_c, 1, 52, 0
3, 143880, Note_on_c, 1, 49, 90
3, 143940, Note_on_c, 1, 49, 0
3, 143940, Note_on_c, 1, 45, 90
3, 144000, Note_on_c, 1, 45, 0
3, 144000, Note_on_c, 1, 42, 90
3, 144240, Note_on_c, 1, 42, 0
3, 144240, Note_on_c, 1, 43, 90
3, 144300, Note_on_c, 1, 50, 90
3, 144360, Note_on_c, 1, 50, 0
3, 144360, Note_on_c, 1, 55, 90
3, 144420, Note_on_c, 1, 55, 0
3, 144420, Note_on_c, 1, 50, 90
3, 144480, Note_on_c, 1, 50, 0
3, 144480, Note_on_c, 1, 52, 90
3, 144720, Note_on_c, 1, 52, 0
3, 144720, Note_on_c, 1, 43, 0
3, 144720, Note_on_c, 1, 45, 90
3, 144780, Note_on_c, 1, 52, 90
3, 144840, Note_on_c, 1, 52, 0
3, 144840, Note_on_c, 1, 57, 90
3, 144900, Note_on_c, 1, 57, 0
3, 144900, Note_on_c, 1, 52, 90
3, 144960, Note_on_c, 1, 52, 0
3, 144960, Note_on_c, 1, 54, 90
3, 145200, Note_on_c, 1, 45, 0
3, 145200, Note_on_c, 1, 47, 90
3, 145320, Note_on_c, 1, 54, 0
3, 145320, Note_on_c, 1, 55, 90
3, 145440, Note_on_c, 1, 47, 0
3, 145440, Note_on_c, 1, 49, 90
3, 145560, Note_on_c, 1, 49, 0
3, 145560, Note_on_c, 1, 55, 0
3, 145560, Note_on_c, 1, 50, 90
3, 145560, Note_on_c, 1, 54, 90
3, 145680, Note_on_c, 1, 54, 0
3, 145680, Note_on_c, 1, 52, 90
3, 145800, Note_on_c, 1, 52, 0
3, 145800, Note_on_c, 1, 50, 0
3, 145800, Note_on_c, 1, 49, 90
3, 145800, Note_on_c, 1, 57, 90
3, 145920, Note_on_c, 1, 57, 0
3, 145920, Note_on_c, 1, 49, 0
3, 145920, Note_on_c, 1, 50, 90
3, 145920, Note_on_c, 1, 57, 90
3, 146040, Note_on_c, 1, 50, 0
3, 146040, Note_on_c, 1, 54, 90
3, 146160, Note_on_c, 1, 54, 0
3, 146160, Note_on_c, 1, 57, 0
3, 146160, Note_on_c, 1, 55, 90
3, 146160, Note_on_c, 1, 55, 90
3, 146280, Note_on_c, 1, 55, 0
3, 146280, Note_on_c, 1, 64, 90
3, 146400, Note_on_c, 1, 64, 0
3, 146400, Note_on_c, 1, 55, 0
3, 146400, Note_on_c, 1, 57, 90
3, 146400, Note_on_c, 1, 64, 90
3, 146460, Note_on_c, 1, 64, 0
3, 146460, Note_on_c, 1, 67, 90
3, 146520, Note_on_c, 1, 67, 0
3, 146520, Note_on_c, 1, 66, 90
3, 146580, Note_on_c, 1, 66, 0
3, 146580, Note_on_c, 1, 67, 90
3, 146640, Note_on_c, 1, 67, 0
3, 146640, Note_on_c, 1, 64, 90
3, 146700, Note_on_c, 1, 64, 0
3, 146700, Note_on_c, 1, 66, 90
3, 146760, Note_on_c, 1, 66, 0
3, 146760, Note_on_c, 1, 67, 90
3, 146880, Note_on_c, 1, 67, 0
3, 146880, Note_on_c, 1, 57, 0
3, 146880, Note_on_c, 1, 57, 90
3, 147120, Note_on_c, 1, 57, 0
3, 147840, Note_on_c, 1, 62, 90
3, 147900, Note_on_c, 1, 62, 0
3, 147900, Note_on_c, 1, 64, 90
3, 147960, Note_on_c, 1, 64, 0
3, 147960, Note_on_c, 1, 66, 90
3, 148020, Note_on_c, 1, 66, 0
3, 148020, Note_on_c, 1, 64, 90
3, 148080, Note_on_c, 1, 64, 0
3, 148080, Note_on_c, 1, 62, 90
3, 148140, Note_on_c, 1, 62, 0
3, 148140, Note_on_c, 1, 64, 90
3, 148200, Note_on_c, 1, 64, 0
3, 148200, Note_on_c, 1, 66, 90
3, 148260, Note_on_c, 1, 66, 0
3, 148260, Note_on_c, 1, 64, 90
3, 148320, Note_on_c, 1, 64, 0
3, 148320, Note_on_c, 1, 62, 90
3, 148380, Note_on_c, 1, 62, 0
3, 148380, Note_on_c, 1, 64, 90
3, 148440, Note_on_c, 1, 64, 0
3, 148440, Note_on_c, 1, 66, 90
3, 148500, Note_on_c, 1, 66, 0
3, 148500, Note_on_c, 1, 64, 90
3, 148560, Note_on_c, 1, 64, 0
3, 148560, Note_on_c, 1, 62, 90
3, 148680, Note_on_c, 1, 62, 0
3, 148680, Note_on_c, 1, 62, 90
3, 148800, Note_on_c, 1, 62, 0
3, 148800, Note_on_c, 1, 62, 90
3, 149040, Note_on_c, 1, 62, 0
3, 149160, Note_on_c, 1, 61, 90
3, 149256, Note_on_c, 1, 61, 0
3, 149280, Note_on_c, 1, 61, 90
3, 149520, Note_on_c, 1, 61, 0
3, 149640, Note_on_c, 1, 59, 90
3, 149736, Note_on_c, 1, 59, 0
3, 149760, Note_on_c, 1, 59, 90
3, 150000, Note_on_c, 1, 59, 0
3, 150120, Note_on_c, 1, 57, 90
3, 150216, Note_on_c, 1, 57, 0
3, 150240, Note_on_c, 1, 57, 90
3, 150480, Note_on_c, 1, 57, 0
3, 150600, Note_on_c, 1, 55, 90
3, 150696, Note_on_c, 1, 55, 0
3, 150720, Note_on_c, 1, 55, 90
3, 150960, Note_on_c, 1, 55, 0
3, 150960, Note_on_c, 1, 54, 90
3, 151080, Note_on_c, 1, 54, 0
3, 151080, Note_on_c, 1, 57, 90
3, 151200, Note_on_c, 1, 57, 0
3, 151200, Note_on_c, 1, 59, 90
3, 151440, Note_on_c, 1, 59, 0
3, 151440, Note_on_c, 1, 57, 90
3, 151680, Note_on_c, 1, 57, 0
3, 151680, Note_on_c, 1, 57, 90
3, 151920, Note_on_c, 1, 57, 0
3, 152040, Note_on_c, 1, 57, 90
3, 152160, Note_on_c, 1, 57, 0
3, 152160, Note_on_c, 1, 59, 90
3, 152400, Note_on_c, 1, 59, 0
3, 152520, Note_on_c, 1, 61, 90
3, 152640, Note_on_c, 1, 61, 0
3, 152640, Note_on_c, 1, 62, 90
3, 152880, Note_on_c, 1, 62, 0
3, 153000, Note_on_c, 1, 59, 90
3, 153120, Note_on_c, 1, 59, 0
3, 153120, Note_on_c, 1, 55, 90
3, 153360, Note_on_c, 1, 55, 0
3, 153480, Note_on_c, 1, 54, 90
3, 153600, Note_on_c, 1, 54, 0
3, 153600, Note_on_c, 1, 54, 90
3, 153840, Note_on_c, 1, 54, 0
3, 154560, Note_on_c, 1, 59, 90
3, 154620, Note_on_c, 1, 59, 0
3, 154620, Note_on_c, 1, 61, 90
3, 154680, Note_on_c, 1, 61, 0
3, 154680, Note_on_c, 1, 62, 90
3, 154740, Note_on_c, 1, 62, 0
3, 154740, Note_on_c, 1, 61, 90
3, 154800, Note_on_c, 1, 61, 0
3, 154800, Note_on_c, 1, 59, 90
3, 154860, Note_on_c, 1, 59, 0
3, 154860, Note_on_c, 1, 61, 90
3, 154920, Note_on_c, 1, 61, 0
3, 154920, Note_on_c, 1, 62, 90
3, 154980, Note_on_c, 1, 62, 0
3, 154980, Note_on_c, 1, 61, 90
3, 155040, Note_on_c, 1, 61, 0
3, 155040, Note_on_c, 1, 59, 90
3, 155100, Note_on_c, 1, 59, 0
3, 155100, Note_on_c, 1, 61, 90
3, 155160, Note_on_c, 1, 61, 0
3, 155160, Note_on_c, 1, 62, 90
3, 155220, Note_on_c, 1, 62, 0
3, 155220, Note_on_c, 1, 61, 90
3, 155280, Note_on_c, 1, 61, 0
3, 155280, Note_on_c, 1, 59, 90
3, 155340, Note_on_c, 1, 59, 0
3, 155340, Note_on_c, 1, 61, 90
3, 155400, Note_on_c, 1, 61, 0
3, 155400, Note_on_c, 1, 62, 90
3, 155460, Note_on_c, 1, 62, 0
3, 155460, Note_on_c, 1, 61, 90
3, 155520, Note_on_c, 1, 61, 0
3, 155520, Note_on_c, 1, 59, 90
3, 155520, Note_on_c, 1, 62, 90
3, 155760, Note_on_c, 1, 62, 0
3, 155760, Note_on_c, 1, 59, 0
3, 155880, Note_on_c, 1, 64, 90
3, 155880, Note_on_c, 1, 61, 90
3, 156000, Note_on_c, 1, 61, 0
3, 156000, Note_on_c, 1, 64, 0
3, 156000, Note_on_c, 1, 66, 90
3, 156000, Note_on_c, 1, 62, 90
3, 156192, Note_on_c, 1, 62, 0
3, 156192, Note_on_c, 1, 66, 0
3, 156360, Note_on_c, 1, 62, 90
3, 156360, Note_on_c, 1, 71, 90
3, 156456, Note_on_c, 1, 71, 0
3, 156456, Note_on_c, 1, 62, 0
3, 156480, Note_on_c, 1, 61, 90
3, 156480, Note_on_c, 1, 71, 90
3, 156720, Note_on_c, 1, 71, 0
3, 156720, Note_on_c, 1, 61, 0
3, 156840, Note_on_c, 1, 69, 90
3, 156840, Note_on_c, 1, 61, 90
3, 156936, Note_on_c, 1, 61, 0
3, 156936, Note_on_c, 1, 69, 0
3, 156960, Note_on_c, 1, 59, 90
3, 156960, Note_on_c, 1, 69, 90
3, 157200, Note_on_c, 1, 69, 0
3, 157200, Note_on_c, 1, 59, 0
3, 157320, Note_on_c, 1, 59, 90
3, 157320, Note_on_c, 1, 67, 90
3, 157416, Note_on_c, 1, 67, 0
3, 157416, Note_on_c, 1, 59, 0
3, 157440, Note_on_c, 1, 67, 90
3, 157440, Note_on_c, 1, 57, 90
3, 157680, Note_on_c, 1, 57, 0
3, 157680, Note_on_c, 1, 67, 0
3, 157800, Note_on_c, 1, 57, 90
3, 157800, Note_on_c, 1, 66, 90
3, 157896, Note_on_c, 1, 66, 0
3, 157896, Note_on_c, 1, 57, 0
3, 157920, Note_on_c, 1, 66, 90
3, 157920, Note_on_c, 1, 56, 90
3, 158160, Note_on_c, 1, 56, 0
3, 158160, Note_on_c, 1, 66, 0
3, 158280, Note_on_c, 1, 56, 90
3, 158280, Note_on_c, 1, 64, 90
3, 158376, Note_on_c, 1, 64, 0
3, 158376, Note_on_c, 1, 56, 0
3, 158400, Note_on_c, 1, 54, 90
3, 158400, Note_on_c, 1, 64, 90
3, 158640, Note_on_c, 1, 64, 0
3, 158640, Note_on_c, 1, 54, 0
3, 159360, Note_on_c, 1, 59, 90
3, 159600, Note_on_c, 1, 59, 0
3, 159600, Note_on_c, 1, 67, 90
3, 159660, Note_on_c, 1, 67, 0
3, 159660, Note_on_c, 1, 66, 90
3, 159720, Note_on_c, 1, 66, 0
3, 159720, Note_on_c, 1, 67, 90
3, 159780, Note_on_c, 1, 67, 0
3, 159780, Note_on_c, 1, 62, 90
3, 159840, Note_on_c, 1, 62, 0
3, 159840, Note_on_c, 1, 64, 90
3, 159900, Note_on_c, 1, 64, 0
3, 159900, Note_on_c, 1, 62, 90
3, 159960, Note_on_c, 1, 62, 0
3, 159960, Note_on_c, 1, 64, 90
3, 160020, Note_on_c, 1, 64, 0
3, 160020, Note_on_c, 1, 61, 90
3, 160080, Note_on_c, 1, 61, 0
3, 160080, Note_on_c, 1, 66, 90
3, 160140, Note_on_c, 1, 66, 0
3, 160140, Note_on_c, 1, 64, 90
3, 160200, Note_on_c, 1, 64, 0
3, 160200, Note_on_c, 1, 66, 90
3, 160260, Note_on_c, 1, 66, 0
3, 160260, Note_on_c, 1, 61, 90
3, 160320, Note_on_c, 1, 61, 0
3, 160320, Note_on_c, 1, 62, 90
3, 160560, Note_on_c, 1, 62, 0
3, 160620, Note_on_c, 1, 71, 90
3, 160680, Note_on_c, 1, 71, 0
3, 160680, Note_on_c, 1, 70, 90
3, 160740, Note_on_c, 1, 70, 0
3, 160740, Note_on_c, 1, 71, 90
3, 160800, Note_on_c, 1, 64, 90
3, 161040, Note_on_c, 1, 64, 0
3, 161100, Note_on_c, 1, 71, 0
3, 161100, Note_on_c, 1, 71, 90
3, 161160, Note_on_c, 1, 71, 0
3, 161160, Note_on_c, 1, 70, 90
3, 161220, Note_on_c, 1, 70, 0
3, 161220, Note_on_c, 1, 71, 90
3, 161280, Note_on_c, 1, 66, 90
3, 161520, Note_on_c, 1, 66, 0
3, 161580, Note_on_c, 1, 71, 0
3, 161580, Note_on_c, 1, 71, 90
3, 161640, Note_on_c, 1, 71, 0
3, 161640, Note_on_c, 1, 70, 90
3, 161700, Note_on_c, 1, 70, 0
3, 161700, Note_on_c, 1, 71, 90
3, 161760, Note_on_c, 1, 67, 90
3, 162000, Note_on_c, 1, 67, 0
3, 162060, Note_on_c, 1, 71, 0
3, 162060, Note_on_c, 1, 71, 90
3, 162120, Note_on_c, 1, 71, 0
3, 162120, Note_on_c, 1, 70, 90
3, 162180, Note_on_c, 1, 70, 0
3, 162180, Note_on_c, 1, 71, 90
3, 162240, Note_on_c, 1, 68, 90
3, 162480, Note_on_c, 1, 71, 0
3, 162540, Note_on_c, 1, 68, 0
3, 162540, Note_on_c, 1, 73, 90
3, 162600, Note_on_c, 1, 73, 0
3, 162600, Note_on_c, 1, 71, 90
3, 162660, Note_on_c, 1, 71, 0
3, 162660, Note_on_c, 1, 73, 90
3, 162720, Note_on_c, 1, 73, 0
3, 162720, Note_on_c, 1, 69, 90
3, 162960, Note_on_c, 1, 69, 0
3, 163020, Note_on_c, 1, 66, 90
3, 163080, Note_on_c, 1, 66, 0
3, 163080, Note_on_c, 1, 71, 90
3, 163140, Note_on_c, 1, 71, 0
3, 163140, Note_on_c, 1, 68, 90
3, 163200, Note_on_c, 1, 68, 0
3, 163200, Note_on_c, 1, 65, 90
3, 163440, Note_on_c, 1, 65, 0
3, 163500, Note_on_c, 1, 61, 90
3, 163560, Note_on_c, 1, 61, 0
3, 163560, Note_on_c, 1, 66, 90
3, 163620, Note_on_c, 1, 66, 0
3, 163620, Note_on_c, 1, 62, 90
3, 163680, Note_on_c, 1, 62, 0
3, 163680, Note_on_c, 1, 59, 90
3, 164040, Note_on_c, 1, 59, 0
3, 164040, Note_on_c, 1, 57, 90
3, 164160, Note_on_c, 1, 57, 0
3, 164160, Note_on_c, 1, 59, 90
3, 164280, Note_on_c, 1, 59, 0
3, 164280, Note_on_c, 1, 56, 90
3, 164400, Note_on_c, 1, 56, 0
3, 164400, Note_on_c, 1, 61, 90
3, 164520, Note_on_c, 1, 61, 0
3, 164520, Note_on_c, 1, 49, 90
3, 164640, Note_on_c, 1, 49, 0
3, 164640, Note_on_c, 1, 54, 90
3, 164880, Note_on_c, 1, 54, 0
3, 165000, Note_on_c, 1, 56, 90
3, 165120, Note_on_c, 1, 56, 0
3, 165120, Note_on_c, 1, 57, 90
3, 165240, Note_on_c, 1, 57, 0
3, 165240, Note_on_c, 1, 59, 90
3, 165360, Note_on_c, 1, 59, 0
3, 165360, Note_on_c, 1, 61, 90
3, 165480, Note_on_c, 1, 61, 0
3, 165480, Note_on_c, 1, 49, 90
3, 165600, Note_on_c, 1, 49, 0
3, 165600, Note_on_c, 1, 54, 90
3, 165840, Note_on_c, 1, 54, 0
3, 166440, Note_on_c, 1, 57, 90
3, 166536, Note_on_c, 1, 57, 0
3, 166560, Note_on_c, 1, 56, 90
3, 166800, Note_on_c, 1, 56, 0
3, 166920, Note_on_c, 1, 56, 90
3, 167016, Note_on_c, 1, 56, 0
3, 167040, Note_on_c, 1, 54, 90
3, 167280, Note_on_c, 1, 54, 0
3, 167400, Note_on_c, 1, 54, 90
3, 167496, Note_on_c, 1, 54, 0
3, 167520, Note_on_c, 1, 52, 90
3, 167760, Note_on_c, 1, 52, 0
3, 167880, Note_on_c, 1, 52, 90
3, 167976, Note_on_c, 1, 52, 0
3, 168000, Note_on_c, 1, 51, 90
3, 168240, Note_on_c, 1, 51, 0
3, 168360, Note_on_c, 1, 51, 90
3, 168480, Note_on_c, 1, 51, 0
3, 168480, Note_on_c, 1, 49, 90
3, 168780, Note_on_c, 1, 49, 0
3, 168780, Note_on_c, 1, 54, 90
3, 168840, Note_on_c, 1, 54, 0
3, 168840, Note_on_c, 1, 53, 90
3, 168900, Note_on_c, 1, 53, 0
3, 168900, Note_on_c, 1, 54, 90
3, 168960, Note_on_c, 1, 54, 0
3, 169020, Note_on_c, 1, 56, 90
3, 169080, Note_on_c, 1, 56, 0
3, 169080, Note_on_c, 1, 57, 90
3, 169140, Note_on_c, 1, 57, 0
3, 169140, Note_on_c, 1, 59, 90
3, 169200, Note_on_c, 1, 59, 0
3, 169200, Note_on_c, 1, 56, 90
3, 169230, Note_on_c, 1, 56, 0
3, 169230, Note_on_c, 1, 54, 90
3, 169260, Note_on_c, 1, 54, 0
3, 169260, Note_on_c, 1, 56, 90
3, 169380, Note_on_c, 1, 56, 0
3, 169380, Note_on_c, 1, 57, 90
3, 169440, Note_on_c, 1, 57, 0
3, 169440, Note_on_c, 1, 57, 90
3, 169560, Note_on_c, 1, 57, 0
3, 169560, Note_on_c, 1, 61, 90
3, 169680, Note_on_c, 1, 61, 0
3, 169680, Note_on_c, 1, 61, 90
3, 169800, Note_on_c, 1, 61, 0
3, 169800, Note_on_c, 1, 61, 90
3, 169920, Note_on_c, 1, 61, 0
3, 169920, Note_on_c, 1, 61, 90
3, 170160, Note_on_c, 1, 61, 0
3, 170520, Note_on_c, 1, 57, 90
3, 170580, Note_on_c, 1, 57, 0
3, 170580, Note_on_c, 1, 56, 90
3, 170640, Note_on_c, 1, 56, 0
3, 170640, Note_on_c, 1, 57, 90
3, 170700, Note_on_c, 1, 57, 0
3, 170700, Note_on_c, 1, 56, 90
3, 170760, Note_on_c, 1, 56, 0
3, 170760, Note_on_c, 1, 57, 90
3, 170820, Note_on_c, 1, 57, 0
3, 170820, Note_on_c, 1, 56, 90
3, 170880, Note_on_c, 1, 56, 0
3, 170880, Note_on_c, 1, 57, 90
3, 171120, Note_on_c, 1, 57, 0
3, 171480, Note_on_c, 1, 54, 90
3, 171540, Note_on_c, 1, 54, 0
3, 171540, Note_on_c, 1, 53, 90
3, 171600, Note_on_c, 1, 53, 0
3, 171600, Note_on_c, 1, 54, 90
3, 171660, Note_on_c, 1, 54, 0
3, 171660, Note_on_c, 1, 53, 90
3, 171720, Note_on_c, 1, 53, 0
3, 171720, Note_on_c, 1, 54, 90
3, 171780, Note_on_c, 1, 54, 0
3, 171780, Note_on_c, 1, 53, 90
3, 171840, Note_on_c, 1, 53, 0
3, 171840, Note_on_c, 1, 54, 90
3, 171936, Note_on_c, 1, 54, 0
3, 171960, Note_on_c, 1, 42, 90
3, 172080, Note_on_c, 1, 42, 0
3, 174120, Note_on_c, 1, 59, 90
3, 174216, Note_on_c, 1, 59, 0
3, 174240, Note_on_c, 1, 59, 90
3, 174432, Note_on_c, 1, 59, 0
3, 174480, Note_on_c, 1, 57, 90
3, 174540, Note_on_c, 1, 57, 0
3, 174540, Note_on_c, 1, 59, 90
3, 174600, Note_on_c, 1, 59, 0
3, 174600, Note_on_c, 1, 57, 90
3, 174660, Note_on_c, 1, 57, 0
3, 174660, Note_on_c, 1, 59, 90
3, 174720, Note_on_c, 1, 59, 0
3, 174720, Note_on_c, 1, 56, 90
3, 174960, Note_on_c, 1, 56, 0
3, 174960, Note_on_c, 1, 61, 90
3, 175260, Note_on_c, 1, 61, 0
3, 175260, Note_on_c, 1, 62, 90
3, 175320, Note_on_c, 1, 62, 0
3, 175320, Note_on_c, 1, 61, 90
3, 175380, Note_on_c, 1, 61, 0
3, 175380, Note_on_c, 1, 62, 90
3, 175440, Note_on_c, 1, 62, 0
3, 175440, Note_on_c, 1, 59, 90
3, 175740, Note_on_c, 1, 59, 0
3, 175740, Note_on_c, 1, 61, 90
3, 175800, Note_on_c, 1, 61, 0
3, 175800, Note_on_c, 1, 57, 90
3, 175860, Note_on_c, 1, 57, 0
3, 175860, Note_on_c, 1, 59, 90
3, 175920, Note_on_c, 1, 59, 0
3, 175920, Note_on_c, 1, 56, 90
3, 176160, Note_on_c, 1, 56, 0
3, 176160, Note_on_c, 1, 57, 90
3, 176400, Note_on_c, 1, 57, 0
3, 176400, Note_on_c, 1, 57, 90
3, 176460, Note_on_c, 1, 57, 0
3, 176460, Note_on_c, 1, 61, 90
3, 176520, Note_on_c, 1, 61, 0
3, 176520, Note_on_c, 1, 57, 90
3, 176580, Note_on_c, 1, 57, 0
3, 176580, Note_on_c, 1, 54, 90
3, 176640, Note_on_c, 1, 54, 0
3, 178200, Note_on_c, 1, 63, 90
3, 178260, Note_on_c, 1, 63, 0
3, 178260, Note_on_c, 1, 61, 90
3, 178320, Note_on_c, 1, 61, 0
3, 178320, Note_on_c, 1, 63, 90
3, 178380, Note_on_c, 1, 63, 0
3, 178380, Note_on_c, 1, 61, 90
3, 178440, Note_on_c, 1, 61, 0
3, 178440, Note_on_c, 1, 63, 90
3, 178500, Note_on_c, 1, 63, 0
3, 178500, Note_on_c, 1, 61, 90
3, 178560, Note_on_c, 1, 61, 0
3, 178560, Note_on_c, 1, 60, 90
3, 178680, Note_on_c, 1, 60, 0
3, 179040, Note_on_c, 1, 61, 90
3, 179100, Note_on_c, 1, 61, 0
3, 179100, Note_on_c, 1, 63, 90
3, 179160, Note_on_c, 1, 63, 0
3, 179160, Note_on_c, 1, 64, 90
3, 179220, Note_on_c, 1, 64, 0
3, 179220, Note_on_c, 1, 63, 90
3, 179280, Note_on_c, 1, 63, 0
3, 179280, Note_on_c, 1, 61, 90
3, 179340, Note_on_c, 1, 61, 0
3, 179340, Note_on_c, 1, 63, 90
3, 179400, Note_on_c, 1, 63, 0
3, 179400, Note_on_c, 1, 64, 90
3, 179460, Note_on_c, 1, 64, 0
3, 179460, Note_on_c, 1, 63, 90
3, 179520, Note_on_c, 1, 63, 0
3, 179520, Note_on_c, 1, 61, 90
3, 179640, Note_on_c, 1, 61, 0
3, 180600, Note_on_c, 1, 64, 90
3, 180660, Note_on_c, 1, 64, 0
3, 180660, Note_on_c, 1, 63, 90
3, 180720, Note_on_c, 1, 63, 0
3, 180720, Note_on_c, 1, 64, 90
3, 180780, Note_on_c, 1, 64, 0
3, 180780, Note_on_c, 1, 63, 90
3, 180840, Note_on_c, 1, 63, 0
3, 180840, Note_on_c, 1, 64, 90
3, 180900, Note_on_c, 1, 64, 0
3, 180900, Note_on_c, 1, 63, 90
3, 180960, Note_on_c, 1, 63, 0
3, 180960, Note_on_c, 1, 64, 90
3, 181152, Note_on_c, 1, 64, 0
3, 181320, Note_on_c, 1, 61, 90
3, 181416, Note_on_c, 1, 61, 0
3, 181440, Note_on_c, 1, 57, 90
3, 181680, Note_on_c, 1, 57, 0
3, 181800, Note_on_c, 1, 63, 90
3, 181800, Note_on_c, 1, 56, 90
3, 181896, Note_on_c, 1, 56, 0
3, 181896, Note_on_c, 1, 63, 0
3, 181920, Note_on_c, 1, 61, 90
3, 181920, Note_on_c, 1, 56, 90
3, 182160, Note_on_c, 1, 56, 0
3, 182160, Note_on_c, 1, 61, 0
3, 182280, Note_on_c, 1, 64, 90
3, 182280, Note_on_c, 1, 73, 90
3, 182400, Note_on_c, 1, 73, 0
3, 182400, Note_on_c, 1, 64, 0
3, 182400, Note_on_c, 1, 63, 90
3, 182400, Note_on_c, 1, 69, 90
3, 182640, Note_on_c, 1, 69, 0
3, 182640, Note_on_c, 1, 63, 0
3, 182760, Note_on_c, 1, 63, 90
3, 182760, Note_on_c, 1, 68, 90
3, 182880, Note_on_c, 1, 68, 0
3, 182880, Note_on_c, 1, 63, 0
3, 182880, Note_on_c, 1, 61, 90
3, 182880, Note_on_c, 1, 68, 90
3, 183120, Note_on_c, 1, 68, 0
3, 183120, Note_on_c, 1, 61, 0
3, 183240, Note_on_c, 1, 66, 90
3, 183240, Note_on_c, 1, 69, 90
3, 183360, Note_on_c, 1, 69, 0
3, 183360, Note_on_c, 1, 66, 0
3, 183360, Note_on_c, 1, 66, 90
3, 183360, Note_on_c, 1, 68, 90
3, 183480, Note_on_c, 1, 66, 0
3, 183480, Note_on_c, 1, 64, 90
3, 183600, Note_on_c, 1, 64, 0
3, 183600, Note_on_c, 1, 63, 90
3, 183720, Note_on_c, 1, 68, 0
3, 183720, Note_on_c, 1, 66, 90
3, 183840, Note_on_c, 1, 66, 0
3, 183840, Note_on_c, 1, 63, 0
3, 183840, Note_on_c, 1, 61, 90
3, 183840, Note_on_c, 1, 64, 90
3, 184080, Note_on_c, 1, 64, 0
3, 184080, Note_on_c, 1, 61, 0
3, 184080, Note_on_c, 1, 64, 90
3, 184140, Note_on_c, 1, 64, 0
3, 184140, Note_on_c, 1, 68, 90
3, 184200, Note_on_c, 1, 68, 0
3, 184200, Note_on_c, 1, 64, 90
3, 184260, Note_on_c, 1, 64, 0
3, 184260, Note_on_c, 1, 61, 90
3, 184320, Note_on_c, 1, 61, 0
3, 185280, Note_on_c, 1, 54, 90
3, 185520, Note_on_c, 1, 54, 0
3, 185520, Note_on_c, 1, 56, 90
3, 185640, Note_on_c, 1, 56, 0
3, 185640, Note_on_c, 1, 58, 90
3, 185760, Note_on_c, 1, 58, 0
3, 185760, Note_on_c, 1, 59, 90
3, 185880, Note_on_c, 1, 59, 0
3, 185880, Note_on_c, 1, 64, 90
3, 186000, Note_on_c, 1, 64, 0
3, 186000, Note_on_c, 1, 66, 90
3, 186120, Note_on_c, 1, 66, 0
3, 186120, Note_on_c, 1, 64, 90
3, 186240, Note_on_c, 1, 64, 0
3, 186240, Note_on_c, 1, 63, 90
3, 186300, Note_on_c, 1, 63, 0
3, 186300, Note_on_c, 1, 66, 90
3, 186360, Note_on_c, 1, 66, 0
3, 186360, Note_on_c, 1, 63, 90
3, 186420, Note_on_c, 1, 63, 0
3, 186420, Note_on_c, 1, 59, 90
3, 186480, Note_on_c, 1, 59, 0
3, 186480, Note_on_c, 1, 64, 90
3, 186600, Note_on_c, 1, 64, 0
3, 186600, Note_on_c, 1, 63, 90
3, 186720, Note_on_c, 1, 63, 0
3, 186720, Note_on_c, 1, 61, 90
3, 186840, Note_on_c, 1, 61, 0
3, 186840, Note_on_c, 1, 56, 90
3, 186960, Note_on_c, 1, 56, 0
3, 186960, Note_on_c, 1, 57, 90
3, 187080, Note_on_c, 1, 57, 0
3, 187080, Note_on_c, 1, 54, 90
3, 187200, Note_on_c, 1, 54, 0
3, 187200, Note_on_c, 1, 59, 90
3, 187380, Note_on_c, 1, 59, 0
3, 187380, Note_on_c, 1, 57, 90
3, 187440, Note_on_c, 1, 57, 0
3, 187440, Note_on_c, 1, 56, 90
3, 187560, Note_on_c, 1, 56, 0
3, 187560, Note_on_c, 1, 52, 90
3, 187680, Note_on_c, 1, 52, 0
3, 187680, Note_on_c, 1, 57, 90
3, 187800, Note_on_c, 1, 57, 0
3, 187800, Note_on_c, 1, 54, 90
3, 187920, Note_on_c, 1, 54, 0
3, 187920, Note_on_c, 1, 59, 90
3, 188040, Note_on_c, 1, 59, 0
3, 188040, Note_on_c, 1, 56, 90
3, 188160, Note_on_c, 1, 56, 0
3, 188160, Note_on_c, 1, 61, 90
3, 188280, Note_on_c, 1, 61, 0
3, 188280, Note_on_c, 1, 49, 90
3, 188400, Note_on_c, 1, 49, 0
3, 188400, Note_on_c, 1, 51, 90
3, 188520, Note_on_c, 1, 51, 0
3, 188520, Note_on_c, 1, 47, 90
3, 188640, Note_on_c, 1, 47, 0
3, 188640, Note_on_c, 1, 52, 90
3, 188760, Note_on_c, 1, 52, 0
3, 188760, Note_on_c, 1, 49, 90
3, 188880, Note_on_c, 1, 49, 0
3, 188880, Note_on_c, 1, 45, 90
3, 189000, Note_on_c, 1, 45, 0
3, 189000, Note_on_c, 1, 47, 90
3, 189120, Note_on_c, 1, 47, 0
3, 189120, Note_on_c, 1, 52, 90
3, 189180, Note_on_c, 1, 52, 0
3, 189180, Note_on_c, 1, 54, 90
3, 189240, Note_on_c, 1, 54, 0
3, 189240, Note_on_c, 1, 56, 90
3, 189300, Note_on_c, 1, 56, 0
3, 189300, Note_on_c, 1, 54, 90
3, 189360, Note_on_c, 1, 54, 0
3, 189360, Note_on_c, 1, 56, 90
3, 189360, Note_on_c, 1, 52, 90
3, 189420, Note_on_c, 1, 52, 0
3, 189420, Note_on_c, 1, 56, 0
3, 189420, Note_on_c, 1, 59, 90
3, 189420, Note_on_c, 1, 54, 90
3, 189480, Note_on_c, 1, 54, 0
3, 189480, Note_on_c, 1, 59, 0
3, 189480, Note_on_c, 1, 64, 90
3, 189480, Note_on_c, 1, 56, 90
3, 189540, Note_on_c, 1, 56, 0
3, 189540, Note_on_c, 1, 64, 0
3, 189540, Note_on_c, 1, 59, 90
3, 189540, Note_on_c, 1, 54, 90
3, 189600, Note_on_c, 1, 54, 0
3, 189600, Note_on_c, 1, 59, 0
3, 189600, Note_on_c, 1, 56, 90
3, 189600, Note_on_c, 1, 52, 90
3, 189660, Note_on_c, 1, 52, 0
3, 189660, Note_on_c, 1, 56, 0
3, 189660, Note_on_c, 1, 59, 90
3, 189660, Note_on_c, 1, 54, 90
3, 189720, Note_on_c, 1, 54, 0
3, 189720, Note_on_c, 1, 59, 0
3, 189720, Note_on_c, 1, 64, 90
3, 189720, Note_on_c, 1, 56, 90
3, 189780, Note_on_c, 1, 56, 0
3, 189780, Note_on_c, 1, 64, 0
3, 189780, Note_on_c, 1, 59, 90
3, 189780, Note_on_c, 1, 54, 90
3, 189840, Note_on_c, 1, 54, 0
3, 189840, Note_on_c, 1, 59, 0
3, 189840, Note_on_c, 1, 56, 90
3, 189840, Note_on_c, 1, 52, 90
3, 189900, Note_on_c, 1, 52, 0
3, 189900, Note_on_c, 1, 56, 0
3, 189900, Note_on_c, 1, 59, 90
3, 189900, Note_on_c, 1, 54, 90
3, 189960, Note_on_c, 1, 54, 0
3, 189960, Note_on_c, 1, 59, 0
3, 189960, Note_on_c, 1, 64, 90
3, 189960, Note_on_c, 1, 56, 90
3, 190020, Note_on_c, 1, 56, 0
3, 190020, Note_on_c, 1, 64, 0
3, 190020, Note_on_c, 1, 59, 90
3, 190020, Note_on_c, 1, 54, 90
3, 190080, Note_on_c, 1, 54, 0
3, 190080, Note_on_c, 1, 59, 0
3, 190080, Note_on_c, 1, 52, 90
3, 190080, Note_on_c, 1, 56, 90
3, 190200, Note_on_c, 1, 56, 0
3, 190200, Note_on_c, 1, 52, 0
3, 190440, Note_on_c, 1, 54, 90
3, 190560, Note_on_c, 1, 54, 0
3, 190560, Note_on_c, 1, 56, 90
3, 190680, Note_on_c, 1, 56, 0
3, 190680, Note_on_c, 1, 57, 90
3, 190800, Note_on_c, 1, 57, 0
3, 190800, Note_on_c, 1, 59, 90
3, 190920, Note_on_c, 1, 59, 0
3, 190920, Note_on_c, 1, 47, 90
3, 191040, Note_on_c, 1, 47, 0
3, 191040, Note_on_c, 1, 52, 90
3, 191160, Note_on_c, 1, 52, 0
3, 192960, Note_on_c, 1, 57, 90
3, 193020, Note_on_c, 1, 57, 0
3, 193020, Note_on_c, 1, 56, 90
3, 193080, Note_on_c, 1, 56, 0
3, 193080, Note_on_c, 1, 57, 90
3, 193140, Note_on_c, 1, 57, 0
3, 193140, Note_on_c, 1, 54, 90
3, 193200, Note_on_c, 1, 54, 0
3, 193200, Note_on_c, 1, 59, 90
3, 193260, Note_on_c, 1, 59, 0
3, 193260, Note_on_c, 1, 57, 90
3, 193320, Note_on_c, 1, 57, 0
3, 193320, Note_on_c, 1, 59, 90
3, 193380, Note_on_c, 1, 59, 0
3, 193380, Note_on_c, 1, 54, 90
3, 193440, Note_on_c, 1, 54, 0
3, 193440, Note_on_c, 1, 56, 90
3, 193500, Note_on_c, 1, 56, 0
3, 193500, Note_on_c, 1, 54, 90
3, 193560, Note_on_c, 1, 54, 0
3, 193560, Note_on_c, 1, 56, 90
3, 193620, Note_on_c, 1, 56, 0
3, 193620, Note_on_c, 1, 52, 90
3, 193680, Note_on_c, 1, 52, 0
3, 193680, Note_on_c, 1, 57, 90
3, 193740, Note_on_c, 1, 57, 0
3, 193740, Note_on_c, 1, 56, 90
3, 193800, Note_on_c, 1, 56, 0
3, 193800, Note_on_c, 1, 57, 90
3, 193860, Note_on_c, 1, 57, 0
3, 193860, Note_on_c, 1, 54, 90
3, 193920, Note_on_c, 1, 54, 0
3, 193920, Note_on_c, 1, 59, 90
3, 193980, Note_on_c, 1, 59, 0
3, 193980, Note_on_c, 1, 57, 90
3, 194040, Note_on_c, 1, 57, 0
3, 194040, Note_on_c, 1, 59, 90
3, 194100, Note_on_c, 1, 59, 0
3, 194100, Note_on_c, 1, 54, 90
3, 194160, Note_on_c, 1, 54, 0
3, 194160, Note_on_c, 1, 56, 90
3, 194220, Note_on_c, 1, 56, 0
3, 194220, Note_on_c, 1, 54, 90
3, 194280, Note_on_c, 1, 54, 0
3, 194280, Note_on_c, 1, 56, 90
3, 194340, Note_on_c, 1, 56, 0
3, 194340, Note_on_c, 1, 52, 90
3, 194400, Note_on_c, 1, 52, 0
3, 194400, Note_on_c, 1, 57, 90
3, 194460, Note_on_c, 1, 57, 0
3, 194460, Note_on_c, 1, 56, 90
3, 194520, Note_on_c, 1, 56, 0
3, 194520, Note_on_c, 1, 57, 90
3, 194580, Note_on_c, 1, 57, 0
3, 194580, Note_on_c, 1, 52, 90
3, 194640, Note_on_c, 1, 52, 0
3, 194640, Note_on_c, 1, 54, 90
3, 194880, Note_on_c, 1, 54, 0
3, 194880, Note_on_c, 1, 56, 90
3, 195000, Note_on_c, 1, 56, 0
3, 195000, Note_on_c, 1, 57, 90
3, 195120, Note_on_c, 1, 57, 0
3, 195120, Note_on_c, 1, 52, 90
3, 195360, Note_on_c, 1, 52, 0
3, 195360, Note_on_c, 1, 57, 90
3, 195600, Note_on_c, 1, 57, 0
3, 195840, Note_on_c, 1, 61, 90
3, 195900, Note_on_c, 1, 61, 0
3, 195900, Note_on_c, 1, 62, 90
3, 195960, Note_on_c, 1, 62, 0
3, 195960, Note_on_c, 1, 64, 90
3, 196020, Note_on_c, 1, 64, 0
3, 196020, Note_on_c, 1, 62, 90
3, 196080, Note_on_c, 1, 62, 0
3, 196080, Note_on_c, 1, 61, 90
3, 196140, Note_on_c, 1, 61, 0
3, 196140, Note_on_c, 1, 62, 90
3, 196200, Note_on_c, 1, 62, 0
3, 196200, Note_on_c, 1, 64, 90
3, 196260, Note_on_c, 1, 64, 0
3, 196260, Note_on_c, 1, 62, 90
3, 196320, Note_on_c, 1, 62, 0
3, 196320, Note_on_c, 1, 61, 90
3, 196440, Note_on_c, 1, 57, 90
3, 196500, Note_on_c, 1, 57, 0
3, 196500, Note_on_c, 1, 56, 90
3, 196560, Note_on_c, 1, 56, 0
3, 196560, Note_on_c, 1, 61, 0
3, 196560, Note_on_c, 1, 57, 90
3, 196620, Note_on_c, 1, 57, 0
3, 196620, Note_on_c, 1, 56, 90
3, 196680, Note_on_c, 1, 56, 0
3, 196680, Note_on_c, 1, 57, 90
3, 196740, Note_on_c, 1, 57, 0
3, 196740, Note_on_c, 1, 56, 90
3, 196800, Note_on_c, 1, 56, 0
3, 196800, Note_on_c, 1, 57, 90
3, 196896, Note_on_c, 1, 57, 0
3, 196920, Note_on_c, 1, 45, 90
3, 197016, Note_on_c, 1, 45, 0
3, 198720, Note_on_c, 1, 66, 90
3, 198720, Note_on_c, 1, 64, 90
3, 198960, Note_on_c, 1, 64, 0
3, 198960, Note_on_c, 1, 66, 0
3, 199080, Note_on_c, 1, 66, 90
3, 199080, Note_on_c, 1, 62, 90
3, 199200, Note_on_c, 1, 62, 0
3, 199200, Note_on_c, 1, 66, 0
3, 199200, Note_on_c, 1, 64, 90
3, 199200, Note_on_c, 1, 62, 90
3, 199440, Note_on_c, 1, 62, 0
3, 199440, Note_on_c, 1, 64, 0
3, 199440, Note_on_c, 1, 61, 90
3, 199440, Note_on_c, 1, 64, 90
3, 199500, Note_on_c, 1, 61, 0
3, 199500, Note_on_c, 1, 59, 90
3, 199560, Note_on_c, 1, 59, 0
3, 199560, Note_on_c, 1, 64, 0
3, 199560, Note_on_c, 1, 61, 90
3, 199560, Note_on_c, 1, 64, 90
3, 199620, Note_on_c, 1, 61, 0
3, 199620, Note_on_c, 1, 57, 90
3, 199680, Note_on_c, 1, 57, 0
3, 199680, Note_on_c, 1, 64, 0
3, 199680, Note_on_c, 1, 62, 90
3, 199980, Note_on_c, 1, 62, 0
3, 199980, Note_on_c, 1, 61, 90
3, 200040, Note_on_c, 1, 61, 0
3, 200040, Note_on_c, 1, 62, 90
3, 200100, Note_on_c, 1, 62, 0
3, 200100, Note_on_c, 1, 59, 90
3, 200160, Note_on_c, 1, 59, 0
3, 200160, Note_on_c, 1, 64, 90
3, 200460, Note_on_c, 1, 64, 0
3, 200460, Note_on_c, 1, 62, 90
3, 200520, Note_on_c, 1, 62, 0
3, 200520, Note_on_c, 1, 64, 90
3, 200580, Note_on_c, 1, 64, 0
3, 200580, Note_on_c, 1, 61, 90
3, 200640, Note_on_c, 1, 61, 0
3, 200640, Note_on_c, 1, 66, 90
3, 200940, Note_on_c, 1, 66, 0
3, 200940, Note_on_c, 1, 64, 90
3, 201000, Note_on_c, 1, 64, 0
3, 201000, Note_on_c, 1, 66, 90
3, 201060, Note_on_c, 1, 66, 0
3, 201060, Note_on_c, 1, 64, 90
3, 201120, Note_on_c, 1, 64, 0
3, 201120, Note_on_c, 1, 66, 90
3, 201180, Note_on_c, 1, 66, 0
3, 201180, Note_on_c, 1, 64, 90
3, 201240, Note_on_c, 1, 64, 0
3, 201240, Note_on_c, 1, 62, 90
3, 201300, Note_on_c, 1, 62, 0
3, 201300, Note_on_c, 1, 66, 90
3, 201360, Note_on_c, 1, 66, 0
3, 201360, Note_on_c, 1, 64, 90
3, 201480, Note_on_c, 1, 64, 0
3, 201480, Note_on_c, 1, 52, 90
3, 201600, Note_on_c, 1, 52, 0
3, 202560, Note_on_c, 1, 61, 120
3, 202620, Note_on_c, 1, 61, 0
3, 202620, Note_on_c, 1, 62, 120
3, 202680, Note_on_c, 1, 62, 0
3, 202680, Note_on_c, 1, 64, 120
3, 202740, Note_on_c, 1, 64, 0
3, 202740, Note_on_c, 1, 62, 120
3, 202800, Note_on_c, 1, 62, 0
3, 202800, Note_on_c, 1, 61, 120
3, 202860, Note_on_c, 1, 61, 0
3, 202860, Note_on_c, 1, 62, 120
3, 202920, Note_on_c, 1, 62, 0
3, 202920, Note_on_c, 1, 64, 120
3, 202980, Note_on_c, 1, 64, 0
3, 202980, Note_on_c, 1, 62, 120
3, 203040, Note_on_c, 1, 62, 0
3, 203040, Note_on_c, 1, 61, 120
3, 203100, Note_on_c, 1, 61, 0
3, 203100, Note_on_c, 1, 62, 120
3, 203160, Note_on_c, 1, 62, 0
3, 203160, Note_on_c, 1, 64, 120
3, 203220, Note_on_c, 1, 64, 0
3, 203220, Note_on_c, 1, 62, 120
3, 203280, Note_on_c, 1, 62, 0
3, 203280, Note_on_c, 1, 61, 120
3, 203340, Note_on_c, 1, 61, 0
3, 203340, Note_on_c, 1, 62, 120
3, 203400, Note_on_c, 1, 62, 0
3, 203400, Note_on_c, 1, 64, 120
3, 203460, Note_on_c, 1, 64, 0
3, 203460, Note_on_c, 1, 62, 120
3, 203520, Note_on_c, 1, 62, 0
3, 203520, Note_on_c, 1, 61, 120
3, 203760, Note_on_c, 1, 61, 0
3, 204480, Note_on_c, 1, 64, 120
3, 204540, Note_on_c, 1, 64, 0
3, 204540, Note_on_c, 1, 66, 120
3, 204600, Note_on_c, 1, 66, 0
3, 204600, Note_on_c, 1, 67, 120
3, 204660, Note_on_c, 1, 67, 0
3, 204660, Note_on_c, 1, 66, 120
3, 204720, Note_on_c, 1, 66, 0
3, 204720, Note_on_c, 1, 64, 120
3, 204780, Note_on_c, 1, 64, 0
3, 204780, Note_on_c, 1, 66, 120
3, 204840, Note_on_c, 1, 66, 0
3, 204840, Note_on_c, 1, 67, 120
3, 204900, Note_on_c, 1, 67, 0
3, 204900, Note_on_c, 1, 66, 120
3, 204960, Note_on_c, 1, 66, 0
3, 204960, Note_on_c, 1, 64, 120
3, 205020, Note_on_c, 1, 64, 0
3, 205020, Note_on_c, 1, 66, 120
3, 205080, Note_on_c, 1, 66, 0
3, 205080, Note_on_c, 1, 67, 120
3, 205140, Note_on_c, 1, 67, 0
3, 205140, Note_on_c, 1, 66, 120
3, 205200, Note_on_c, 1, 66, 0
3, 205200, Note_on_c, 1, 64, 120
3, 205260, Note_on_c, 1, 64, 0
3, 205260, Note_on_c, 1, 66, 120
3, 205320, Note_on_c, 1, 66, 0
3, 205320, Note_on_c, 1, 67, 120
3, 205380, Note_on_c, 1, 67, 0
3, 205380, Note_on_c, 1, 66, 120
3, 205440, Note_on_c, 1, 66, 0
3, 205440, Note_on_c, 1, 64, 120
3, 205500, Note_on_c, 1, 64, 0
3, 205500, Note_on_c, 1, 62, 120
3, 205560, Note_on_c, 1, 62, 0
3, 205560, Note_on_c, 1, 64, 120
3, 205620, Note_on_c, 1, 64, 0
3, 205620, Note_on_c, 1, 61, 120
3, 205680, Note_on_c, 1, 61, 0
3, 205680, Note_on_c, 1, 66, 120
3, 205740, Note_on_c, 1, 66, 0
3, 205740, Note_on_c, 1, 67, 120
3, 205800, Note_on_c, 1, 67, 0
3, 205800, Note_on_c, 1, 69, 120
3, 205860, Note_on_c, 1, 69, 0
3, 205860, Note_on_c, 1, 67, 120
3, 205920, Note_on_c, 1, 67, 0
3, 205920, Note_on_c, 1, 66, 120
3, 205980, Note_on_c, 1, 66, 0
3, 205980, Note_on_c, 1, 64, 120
3, 206040, Note_on_c, 1, 64, 0
3, 206040, Note_on_c, 1, 66, 120
3, 206100, Note_on_c, 1, 66, 0
3, 206100, Note_on_c, 1, 62, 120
3, 206160, Note_on_c, 1, 62, 0
3, 206160, Note_on_c, 1, 67, 120
3, 206220, Note_on_c, 1, 67, 0
3, 206220, Note_on_c, 1, 69, 120
3, 206280, Note_on_c, 1, 69, 0
3, 206280, Note_on_c, 1, 71, 120
3, 206340, Note_on_c, 1, 71, 0
3, 206340, Note_on_c, 1, 69, 120
3, 206400, Note_on_c, 1, 69, 0
3, 206400, Note_on_c, 1, 67, 120
3, 206460, Note_on_c, 1, 67, 0
3, 206460, Note_on_c, 1, 66, 120
3, 206520, Note_on_c, 1, 66, 0
3, 206520, Note_on_c, 1, 67, 120
3, 206580, Note_on_c, 1, 67, 0
3, 206580, Note_on_c, 1, 64, 120
3, 206640, Note_on_c, 1, 64, 0
3, 206640, Note_on_c, 1, 66, 120
3, 206700, Note_on_c, 1, 66, 0
3, 206700, Note_on_c, 1, 67, 120
3, 206760, Note_on_c, 1, 67, 0
3, 206760, Note_on_c, 1, 69, 120
3, 206820, Note_on_c, 1, 69, 0
3, 206820, Note_on_c, 1, 67, 120
3, 206880, Note_on_c, 1, 67, 0
3, 206880, Note_on_c, 1, 66, 120
3, 206940, Note_on_c, 1, 66, 0
3, 206940, Note_on_c, 1, 64, 120
3, 207000, Note_on_c, 1, 64, 0
3, 207000, Note_on_c, 1, 66, 120
3, 207060, Note_on_c, 1, 66, 0
3, 207060, Note_on_c, 1, 62, 120
3, 207120, Note_on_c, 1, 62, 0
3, 207120, Note_on_c, 1, 67, 120
3, 207180, Note_on_c, 1, 67, 0
3, 207180, Note_on_c, 1, 69, 120
3, 207240, Note_on_c, 1, 69, 0
3, 207240, Note_on_c, 1, 71, 120
3, 207300, Note_on_c, 1, 71, 0
3, 207300, Note_on_c, 1, 69, 120
3, 207360, Note_on_c, 1, 69, 0
3, 207360, Note_on_c, 1, 67, 120
3, 207420, Note_on_c, 1, 67, 0
3, 207420, Note_on_c, 1, 66, 120
3, 207480, Note_on_c, 1, 66, 0
3, 207480, Note_on_c, 1, 67, 120
3, 207540, Note_on_c, 1, 67, 0
3, 207540, Note_on_c, 1, 64, 120
3, 207600, Note_on_c, 1, 64, 0
3, 207600, Note_on_c, 1, 62, 120
3, 207660, Note_on_c, 1, 62, 0
3, 207660, Note_on_c, 1, 64, 120
3, 207720, Note_on_c, 1, 64, 0
3, 207720, Note_on_c, 1, 66, 120
3, 207780, Note_on_c, 1, 66, 0
3, 207780, Note_on_c, 1, 64, 120
3, 207840, Note_on_c, 1, 64, 0
3, 207840, Note_on_c, 1, 62, 120
3, 207900, Note_on_c, 1, 62, 0
3, 207900, Note_on_c, 1, 61, 120
3, 207960, Note_on_c, 1, 61, 0
3, 207960, Note_on_c, 1, 62, 120
3, 208020, Note_on_c, 1, 62, 0
3, 208020, Note_on_c, 1, 59, 120
3, 208080, Note_on_c, 1, 59, 0
3, 208080, Note_on_c, 1, 64, 120
3, 208140, Note_on_c, 1, 64, 0
3, 208140, Note_on_c, 1, 66, 120
3, 208200, Note_on_c, 1, 66, 0
3, 208200, Note_on_c, 1, 67, 120
3, 208260, Note_on_c, 1, 67, 0
3, 208260, Note_on_c, 1, 66, 120
3, 208320, Note_on_c, 1, 66, 0
3, 208320, Note_on_c, 1, 64, 120
3, 208380, Note_on_c, 1, 64, 0
3, 208380, Note_on_c, 1, 62, 120
3, 208440, Note_on_c, 1, 62, 0
3, 208440, Note_on_c, 1, 64, 120
3, 208500, Note_on_c, 1, 64, 0
3, 208500, Note_on_c, 1, 61, 120
3, 208560, Note_on_c, 1, 61, 0
3, 208560, Note_on_c, 1, 62, 120
3, 208620, Note_on_c, 1, 62, 0
3, 208620, Note_on_c, 1, 64, 120
3, 208680, Note_on_c, 1, 64, 0
3, 208680, Note_on_c, 1, 66, 120
3, 208740, Note_on_c, 1, 66, 0
3, 208740, Note_on_c, 1, 64, 120
3, 208800, Note_on_c, 1, 64, 0
3, 208800, Note_on_c, 1, 62, 120
3, 208860, Note_on_c, 1, 62, 0
3, 208860, Note_on_c, 1, 61, 120
3, 208920, Note_on_c, 1, 61, 0
3, 208920, Note_on_c, 1, 62, 120
3, 208980, Note_on_c, 1, 62, 0
3, 208980, Note_on_c, 1, 59, 120
3, 209040, Note_on_c, 1, 59, 0
3, 209040, Note_on_c, 1, 64, 120
3, 209100, Note_on_c, 1, 64, 0
3, 209100, Note_on_c, 1, 66, 120
3, 209160, Note_on_c, 1, 66, 0
3, 209160, Note_on_c, 1, 67, 120
3, 209220, Note_on_c, 1, 67, 0
3, 209220, Note_on_c, 1, 66, 120
3, 209280, Note_on_c, 1, 66, 0
3, 209280, Note_on_c, 1, 64, 120
3, 209340, Note_on_c, 1, 64, 0
3, 209340, Note_on_c, 1, 62, 120
3, 209400, Note_on_c, 1, 62, 0
3, 209400, Note_on_c, 1, 64, 120
3, 209460, Note_on_c, 1, 64, 0
3, 209460, Note_on_c, 1, 61, 120
3, 209520, Note_on_c, 1, 61, 0
3, 209520, Note_on_c, 1, 62, 120
3, 209580, Note_on_c, 1, 62, 0
3, 209580, Note_on_c, 1, 64, 120
3, 209640, Note_on_c, 1, 64, 0
3, 209640, Note_on_c, 1, 66, 120
3, 209700, Note_on_c, 1, 66, 0
3, 209700, Note_on_c, 1, 67, 120
3, 209760, Note_on_c, 1, 67, 0
3, 209760, Note_on_c, 1, 64, 120
3, 210000, Note_on_c, 1, 64, 0
3, 210060, Note_on_c, 1, 64, 120
3, 210120, Note_on_c, 1, 64, 0
3, 210120, Note_on_c, 1, 66, 120
3, 210180, Note_on_c, 1, 66, 0
3, 210180, Note_on_c, 1, 64, 120
3, 210240, Note_on_c, 1, 64, 0
3, 210240, Note_on_c, 1, 66, 120
3, 210480, Note_on_c, 1, 66, 0
3, 210540, Note_on_c, 1, 66, 120
3, 210600, Note_on_c, 1, 66, 0
3, 210600, Note_on_c, 1, 67, 120
3, 210660, Note_on_c, 1, 67, 0
3, 210660, Note_on_c, 1, 66, 120
3, 210720, Note_on_c, 1, 66, 0
3, 210720, Note_on_c, 1, 67, 120
3, 210960, Note_on_c, 1, 67, 0
3, 211020, Note_on_c, 1, 64, 120
3, 211080, Note_on_c, 1, 64, 0
3, 211080, Note_on_c, 1, 66, 120
3, 211140, Note_on_c, 1, 66, 0
3, 211140, Note_on_c, 1, 64, 120
3, 211200, Note_on_c, 1, 64, 0
3, 211200, Note_on_c, 1, 66, 120
3, 211440, Note_on_c, 1, 66, 0
3, 211500, Note_on_c, 1, 66, 120
3, 211560, Note_on_c, 1, 66, 0
3, 211560, Note_on_c, 1, 67, 120
3, 211620, Note_on_c, 1, 67, 0
3, 211620, Note_on_c, 1, 66, 120
3, 211680, Note_on_c, 1, 66, 0
3, 211680, Note_on_c, 1, 67, 120
3, 211920, Note_on_c, 1, 67, 0
3, 211980, Note_on_c, 1, 64, 120
3, 212040, Note_on_c, 1, 64, 0
3, 212040, Note_on_c, 1, 66, 120
3, 212100, Note_on_c, 1, 66, 0
3, 212100, Note_on_c, 1, 64, 120
3, 212160, Note_on_c, 1, 64, 0
3, 212160, Note_on_c, 1, 66, 120
3, 212400, Note_on_c, 1, 66, 0
3, 212460, Note_on_c, 1, 62, 120
3, 212520, Note_on_c, 1, 62, 0
3, 212520, Note_on_c, 1, 64, 120
3, 212580, Note_on_c, 1, 64, 0
3, 212580, Note_on_c, 1, 62, 120
3, 212640, Note_on_c, 1, 62, 0
3, 212640, Note_on_c, 1, 64, 120
3, 212700, Note_on_c, 1, 64, 0
3, 212700, Note_on_c, 1, 66, 120
3, 212760, Note_on_c, 1, 66, 0
3, 212760, Note_on_c, 1, 67, 120
3, 212820, Note_on_c, 1, 67, 0
3, 212820, Note_on_c, 1, 66, 120
3, 212880, Note_on_c, 1, 66, 0
3, 212880, Note_on_c, 1, 64, 120
3, 212940, Note_on_c, 1, 64, 0
3, 212940, Note_on_c, 1, 66, 120
3, 213000, Note_on_c, 1, 66, 0
3, 213000, Note_on_c, 1, 67, 120
3, 213060, Note_on_c, 1, 67, 0
3, 213060, Note_on_c, 1, 66, 120
3, 213120, Note_on_c, 1, 66, 0
3, 213120, Note_on_c, 1, 64, 120
3, 213180, Note_on_c, 1, 64, 0
3, 213180, Note_on_c, 1, 66, 120
3, 213240, Note_on_c, 1, 66, 0
3, 213240, Note_on_c, 1, 67, 120
3, 213300, Note_on_c, 1, 67, 0
3, 213300, Note_on_c, 1, 66, 120
3, 213360, Note_on_c, 1, 66, 0
3, 213360, Note_on_c, 1, 64, 120
3, 213420, Note_on_c, 1, 64, 0
3, 213420, Note_on_c, 1, 66, 120
3, 213480, Note_on_c, 1, 66, 0
3, 213480, Note_on_c, 1, 67, 120
3, 213540, Note_on_c, 1, 67, 0
3, 213540, Note_on_c, 1, 66, 120
3, 213600, Note_on_c, 1, 66, 0
3, 213600, Note_on_c, 1, 64, 120
3, 213660, Note_on_c, 1, 64, 0
3, 213660, Note_on_c, 1, 66, 120
3, 213720, Note_on_c, 1, 66, 0
3, 213720, Note_on_c, 1, 67, 120
3, 213780, Note_on_c, 1, 67, 0
3, 213780, Note_on_c, 1, 66, 120
3, 213840, Note_on_c, 1, 66, 0
3, 213840, Note_on_c, 1, 64, 120
3, 213900, Note_on_c, 1, 64, 0
3, 213900, Note_on_c, 1, 66, 120
3, 213960, Note_on_c, 1, 66, 0
3, 213960, Note_on_c, 1, 67, 120
3, 214020, Note_on_c, 1, 67, 0
3, 214020, Note_on_c, 1, 66, 120
3, 214080, Note_on_c, 1, 66, 0
3, 214080, Note_on_c, 1, 64, 120
3, 214140, Note_on_c, 1, 64, 0
3, 214140, Note_on_c, 1, 66, 120
3, 214200, Note_on_c, 1, 66, 0
3, 214200, Note_on_c, 1, 67, 120
3, 214260, Note_on_c, 1, 67, 0
3, 214260, Note_on_c, 1, 66, 120
3, 214320, Note_on_c, 1, 66, 0
3, 214320, Note_on_c, 1, 64, 120
3, 214380, Note_on_c, 1, 64, 0
3, 214380, Note_on_c, 1, 66, 120
3, 214440, Note_on_c, 1, 66, 0
3, 214440, Note_on_c, 1, 67, 120
3, 214500, Note_on_c, 1, 67, 0
3, 214500, Note_on_c, 1, 64, 120
3, 214560, Note_on_c, 1, 64, 0
3, 214560, Note_on_c, 1, 66, 120
3, 214620, Note_on_c, 1, 66, 0
3, 214620, Note_on_c, 1, 67, 120
3, 214680, Note_on_c, 1, 67, 0
3, 214680, Note_on_c, 1, 69, 120
3, 214740, Note_on_c, 1, 69, 0
3, 214740, Note_on_c, 1, 67, 120
3, 214800, Note_on_c, 1, 67, 0
3, 214800, Note_on_c, 1, 66, 120
3, 214860, Note_on_c, 1, 66, 0
3, 214860, Note_on_c, 1, 67, 120
3, 214920, Note_on_c, 1, 67, 0
3, 214920, Note_on_c, 1, 69, 120
3, 214980, Note_on_c, 1, 69, 0
3, 214980, Note_on_c, 1, 67, 120
3, 215040, Note_on_c, 1, 67, 0
3, 215040, Note_on_c, 1, 66, 120
3, 215280, Note_on_c, 1, 66, 0
3, 216240, Note_on_c, 1, 57, 120
3, 216300, Note_on_c, 1, 57, 0
3, 216300, Note_on_c, 1, 62, 120
3, 216360, Note_on_c, 1, 62, 0
3, 216360, Note_on_c, 1, 57, 120
3, 216420, Note_on_c, 1, 57, 0
3, 216420, Note_on_c, 1, 54, 120
3, 216480, Note_on_c, 1, 54, 0
3, 216720, Note_on_c, 1, 54, 120
3, 216780, Note_on_c, 1, 54, 0
3, 216780, Note_on_c, 1, 57, 120
3, 216840, Note_on_c, 1, 57, 0
3, 216840, Note_on_c, 1, 54, 120
3, 216900, Note_on_c, 1, 54, 0
3, 216900, Note_on_c, 1, 50, 120
3, 216960, Note_on_c, 1, 50, 0
3, 218040, Note_on_c, 1, 62, 120
3, 218040, Note_on_c, 1, 66, 120
3, 218100, Note_on_c, 1, 66, 0
3, 218100, Note_on_c, 1, 64, 120
3, 218160, Note_on_c, 1, 64, 0
3, 218160, Note_on_c, 1, 62, 0
3, 218160, Note_on_c, 1, 62, 120
3, 218160, Note_on_c, 1, 66, 120
3, 218220, Note_on_c, 1, 66, 0
3, 218220, Note_on_c, 1, 64, 120
3, 218280, Note_on_c, 1, 64, 0
3, 218280, Note_on_c, 1, 62, 0
3, 218280, Note_on_c, 1, 62, 120
3, 218280, Note_on_c, 1, 66, 120
3, 218340, Note_on_c, 1, 66, 0
3, 218340, Note_on_c, 1, 64, 120
3, 218400, Note_on_c, 1, 64, 0
3, 218400, Note_on_c, 1, 62, 0
3, 218400, Note_on_c, 1, 62, 120
3, 218400, Note_on_c, 1, 66, 120
3, 218520, Note_on_c, 1, 66, 0
3, 218520, Note_on_c, 1, 62, 0
3, 218520, Note_on_c, 1, 50, 120
3, 218640, Note_on_c, 1, 50, 0
3, 218760, Note_on_c, 1, 59, 120
3, 218760, Note_on_c, 1, 62, 120
3, 218760, Note_on_c, 1, 66, 120
3, 218856, Note_on_c, 1, 66, 0
3, 218856, Note_on_c, 1, 62, 0
3, 218856, Note_on_c, 1, 59, 0
3, 218880, Note_on_c, 1, 59, 120
3, 218880, Note_on_c, 1, 64, 120
3, 218880, Note_on_c, 1, 67, 120
3, 219120, Note_on_c, 1, 67, 0
3, 219120, Note_on_c, 1, 64, 0
3, 219120, Note_on_c, 1, 59, 0
3, 219240, Note_on_c, 1, 57, 120
3, 219240, Note_on_c, 1, 61, 120
3, 219240, Note_on_c, 1, 64, 120
3, 219336, Note_on_c, 1, 64, 0
3, 219336, Note_on_c, 1, 61, 0
3, 219336, Note_on_c, 1, 57, 0
3, 219360, Note_on_c, 1, 57, 120
3, 219360, Note_on_c, 1, 62, 120
3, 219360, Note_on_c, 1, 66, 120
3, 219600, Note_on_c, 1, 66, 0
3, 219600, Note_on_c, 1, 62, 0
3, 219600, Note_on_c, 1, 57, 0
3, 219720, Note_on_c, 1, 62, 120
3, 219720, Note_on_c, 1, 59, 120
3, 219720, Note_on_c, 1, 55, 120
3, 219816, Note_on_c, 1, 55, 0
3, 219816, Note_on_c, 1, 59, 0
3, 219816, Note_on_c, 1, 62, 0
3, 219840, Note_on_c, 1, 64, 120
3, 219840, Note_on_c, 1, 61, 120
3, 219840, Note_on_c, 1, 55, 120
3, 220080, Note_on_c, 1, 55, 0
3, 220080, Note_on_c, 1, 61, 0
3, 220080, Note_on_c, 1, 64, 0
3, 220200, Note_on_c, 1, 61, 120
3, 220200, Note_on_c, 1, 57, 120
3, 220200, Note_on_c, 1, 54, 120
3, 220296, Note_on_c, 1, 54, 0
3, 220296, Note_on_c, 1, 57, 0
3, 220296, Note_on_c, 1, 61, 0
3, 220320, Note_on_c, 1, 62, 120
3, 220320, Note_on_c, 1, 59, 120
3, 220320, Note_on_c, 1, 54, 120
3, 220560, Note_on_c, 1, 54, 0
3, 220560, Note_on_c, 1, 59, 0
3, 220560, Note_on_c, 1, 62, 0
3, 220680, Note_on_c, 1, 59, 120
3, 220680, Note_on_c, 1, 55, 120
3, 220680, Note_on_c, 1, 52, 120
3, 220776, Note_on_c, 1, 52, 0
3, 220776, Note_on_c, 1, 55, 0
3, 220776, Note_on_c, 1, 59, 0
3, 220800, Note_on_c, 1, 61, 120
3, 220800, Note_on_c, 1, 57, 120
3, 220800, Note_on_c, 1, 52, 120
3, 221040, Note_on_c, 1, 52, 0
3, 221040, Note_on_c, 1, 57, 0
3, 221040, Note_on_c, 1, 61, 0
3, 221040, Note_on_c, 1, 54, 120
3, 221040, Note_on_c, 1, 57, 120
3, 221280, Note_on_c, 1, 57, 0
3, 221280, Note_on_c, 1, 54, 0
3, 221280, Note_on_c, 1, 59, 120
3, 221280, Note_on_c, 1, 55, 120
3, 221280, Note_on_c, 1, 52, 120
3, 221520, Note_on_c, 1, 52, 0
3, 221520, Note_on_c, 1, 55, 0
3, 221520, Note_on_c, 1, 59, 0
3, 221520, Note_on_c, 1, 57, 120
3, 221520, Note_on_c, 1, 52, 120
3, 221760, Note_on_c, 1, 52, 0
3, 221760, Note_on_c, 1, 57, 0
3, 221820, Note_on_c, 1, 54, 120
3, 221880, Note_on_c, 1, 54, 0
3, 221880, Note_on_c, 1, 55, 120
3, 221940, Note_on_c, 1, 55, 0
3, 221940, Note_on_c, 1, 57, 120
3, 222000, Note_on_c, 1, 57, 0
3, 222000, Note_on_c, 1, 59, 120
3, 222060, Note_on_c, 1, 59, 0
3, 222060, Note_on_c, 1, 57, 120
3, 222120, Note_on_c, 1, 57, 0
3, 222120, Note_on_c, 1, 59, 120
3, 222180, Note_on_c, 1, 59, 0
3, 222180, Note_on_c, 1, 54, 120
3, 222240, Note_on_c, 1, 54, 0
3, 222240, Note_on_c, 1, 55, 120
3, 222300, Note_on_c, 1, 55, 0
3, 222300, Note_on_c, 1, 54, 120
3, 222360, Note_on_c, 1, 54, 0
3, 222360, Note_on_c, 1, 55, 120
3, 222420, Note_on_c, 1, 55, 0
3, 222420, Note_on_c, 1, 52, 120
3, 222480, Note_on_c, 1, 52, 0
3, 222480, Note_on_c, 1, 57, 120
3, 222540, Note_on_c, 1, 57, 0
3, 222540, Note_on_c, 1, 55, 120
3, 222600, Note_on_c, 1, 55, 0
3, 222600, Note_on_c, 1, 57, 120
3, 222660, Note_on_c, 1, 57, 0
3, 222660, Note_on_c, 1, 52, 120
3, 222720, Note_on_c, 1, 52, 0
3, 222720, Note_on_c, 1, 54, 120
3, 222780, Note_on_c, 1, 54, 0
3, 222780, Note_on_c, 1, 52, 120
3, 222840, Note_on_c, 1, 52, 0
3, 222840, Note_on_c, 1, 54, 120
3, 222900, Note_on_c, 1, 54, 0
3, 222900, Note_on_c, 1, 50, 120
3, 222960, Note_on_c, 1, 50, 0
3, 222960, Note_on_c, 1, 55, 120
3, 223020, Note_on_c, 1, 55, 0
3, 223020, Note_on_c, 1, 54, 120
3, 223080, Note_on_c, 1, 54, 0
3, 223080, Note_on_c, 1, 55, 120
3, 223140, Note_on_c, 1, 55, 0
3, 223140, Note_on_c, 1, 50, 120
3, 223200, Note_on_c, 1, 50, 0
3, 223200, Note_on_c, 1, 52, 120
3, 223260, Note_on_c, 1, 52, 0
3, 223260, Note_on_c, 1, 50, 120
3, 223320, Note_on_c, 1, 50, 0
3, 223320, Note_on_c, 1, 52, 120
3, 223380, Note_on_c, 1, 52, 0
3, 223380, Note_on_c, 1, 49, 120
3, 223440, Note_on_c, 1, 49, 0
3, 223440, Note_on_c, 1, 54, 120
3, 223500, Note_on_c, 1, 54, 0
3, 223500, Note_on_c, 1, 52, 120
3, 223560, Note_on_c, 1, 52, 0
3, 223560, Note_on_c, 1, 54, 120
3, 223620, Note_on_c, 1, 54, 0
3, 223620, Note_on_c, 1, 49, 120
3, 223680, Note_on_c, 1, 49, 0
3, 223680, Note_on_c, 1, 50, 120
3, 223740, Note_on_c, 1, 50, 0
3, 223740, Note_on_c, 1, 49, 120
3, 223800, Note_on_c, 1, 49, 0
3, 223800, Note_on_c, 1, 50, 120
3, 223860, Note_on_c, 1, 50, 0
3, 223860, Note_on_c, 1, 47, 120
3, 223920, Note_on_c, 1, 47, 0
3, 223920, Note_on_c, 1, 52, 120
3, 223980, Note_on_c, 1, 52, 0
3, 223980, Note_on_c, 1, 50, 120
3, 224040, Note_on_c, 1, 50, 0
3, 224040, Note_on_c, 1, 59, 120
3, 224040, Note_on_c, 1, 55, 120
3, 224040, Note_on_c, 1, 52, 120
3, 224100, Note_on_c, 1, 52, 0
3, 224100, Note_on_c, 1, 47, 120
3, 224136, Note_on_c, 1, 55, 0
3, 224136, Note_on_c, 1, 59, 0
3, 224160, Note_on_c, 1, 47, 0
3, 224160, Note_on_c, 1, 57, 120
3, 224160, Note_on_c, 1, 52, 120
3, 224160, Note_on_c, 1, 49, 120
3, 224220, Note_on_c, 1, 49, 0
3, 224220, Note_on_c, 1, 47, 120
3, 224280, Note_on_c, 1, 47, 0
3, 224280, Note_on_c, 1, 49, 120
3, 224340, Note_on_c, 1, 49, 0
3, 224340, Note_on_c, 1, 45, 120
3, 224400, Note_on_c, 1, 45, 0
3, 224400, Note_on_c, 1, 52, 0
3, 224400, Note_on_c, 1, 50, 120
3, 224460, Note_on_c, 1, 57, 0
3, 224460, Note_on_c, 1, 57, 120
3, 224520, Note_on_c, 1, 57, 0
3, 224520, Note_on_c, 1, 62, 120
3, 224580, Note_on_c, 1, 62, 0
3, 224580, Note_on_c, 1, 57, 120
3, 224640, Note_on_c, 1, 57, 0
3, 224640, Note_on_c, 1, 50, 0
3, 227100, Note_on_c, 1, 62, 120
3, 227160, Note_on_c, 1, 62, 0
3, 227160, Note_on_c, 1, 57, 120
3, 227220, Note_on_c, 1, 57, 0
3, 227220, Note_on_c, 1, 54, 120
3, 227280, Note_on_c, 1, 54, 0
3, 227280, Note_on_c, 1, 50, 120
3, 227340, Note_on_c, 1, 50, 0
3, 227340, Note_on_c, 1, 57, 120
3, 227400, Note_on_c, 1, 57, 0
3, 227400, Note_on_c, 1, 54, 120
3, 227460, Note_on_c, 1, 54, 0
3, 227460, Note_on_c, 1, 50, 120
3, 227520, Note_on_c, 1, 50, 0
3, 227520, Note_on_c, 1, 45, 120
3, 227640, Note_on_c, 1, 45, 0
3, 228060, Note_on_c, 1, 57, 120
3, 228120, Note_on_c, 1, 57, 0
3, 228120, Note_on_c, 1, 54, 120
3, 228180, Note_on_c, 1, 54, 0
3, 228180, Note_on_c, 1, 50, 120
3, 228240, Note_on_c, 1, 50, 0
3, 228240, Note_on_c, 1, 45, 120
3, 228300, Note_on_c, 1, 45, 0
3, 228300, Note_on_c, 1, 50, 120
3, 228360, Note_on_c, 1, 50, 0
3, 228360, Note_on_c, 1, 45, 120
3, 228420, Note_on_c, 1, 45, 0
3, 228420, Note_on_c, 1, 42, 120
3, 228480, Note_on_c, 1, 42, 0
3, 228480, Note_on_c, 1, 38, 120
3, 228600, Note_on_c, 1, 38, 0
3, 232800, Note_on_c, 1, 66, 120
3, 232860, Note_on_c, 1, 66, 0
3, 232860, Note_on_c, 1, 67, 120
3, 232920, Note_on_c, 1, 67, 0
3, 232920, Note_on_c, 1, 69, 120
3, 232980, Note_on_c, 1, 69, 0
3, 232980, Note_on_c, 1, 67, 120
3, 233040, Note_on_c, 1, 67, 0
3, 233040, Note_on_c, 1, 66, 120
3, 233100, Note_on_c, 1, 66, 0
3, 233100, Note_on_c, 1, 67, 120
3, 233160, Note_on_c, 1, 67, 0
3, 233160, Note_on_c, 1, 69, 120
3, 233220, Note_on_c, 1, 69, 0
3, 233220, Note_on_c, 1, 67, 120
3, 233280, Note_on_c, 1, 67, 0
3, 233280, Note_on_c, 1, 66, 120
3, 233400, Note_on_c, 1, 66, 0
3, 233760, Note_on_c, 1, 66, 120
3, 233820, Note_on_c, 1, 66, 0
3, 233820, Note_on_c, 1, 64, 120
3, 233880, Note_on_c, 1, 64, 0
3, 233880, Note_on_c, 1, 66, 120
3, 233940, Note_on_c, 1, 66, 0
3, 233940, Note_on_c, 1, 64, 120
3, 234000, Note_on_c, 1, 64, 0
3, 234000, Note_on_c, 1, 66, 120
3, 234060, Note_on_c, 1, 66, 0
3, 234060, Note_on_c, 1, 64, 120
3, 234120, Note_on_c, 1, 64, 0
3, 234120, Note_on_c, 1, 66, 120
3, 234180, Note_on_c, 1, 66, 0
3, 234180, Note_on_c, 1, 64, 120
3, 234240, Note_on_c, 1, 64, 0
3, 234240, Note_on_c, 1, 66, 120
3, 234360, Note_on_c, 1, 66, 0
3, 234480, Note_on_c, 1, 66, 120
3, 234540, Note_on_c, 1, 66, 0
3, 234540, Note_on_c, 1, 67, 120
3, 234600, Note_on_c, 1, 67, 0
3, 234600, Note_on_c, 1, 69, 120
3, 234660, Note_on_c, 1, 69, 0
3, 234660, Note_on_c, 1, 67, 120
3, 234720, Note_on_c, 1, 67, 0
3, 234720, Note_on_c, 1, 66, 120
3, 234840, Note_on_c, 1, 66, 0
3, 234840, End_track
4, 0, Start_track
4, 0, MIDI_port, 0
4, 0, Title_t, "Johann Sebastian Bach   (1685-1750)"
4, 0, Program_c, 2, 19
4, 0, Control_c, 2, 7, 100
4, 0, Control_c, 2, 10, 64
4, 60, Note_on_c, 2, 38, 110
4, 120, Note_on_c, 2, 38, 0
4, 120, Note_on_c, 2, 40, 110
4, 180, Note_on_c, 2, 40, 0
4, 180, Note_on_c, 2, 42, 110
4, 240, Note_on_c, 2, 42, 0
4, 240, Note_on_c, 2, 43, 110
4, 300, Note_on_c, 2, 43, 0
4, 300, Note_on_c, 2, 45, 110
4, 360, Note_on_c, 2, 45, 0
4, 360, Note_on_c, 2, 47, 110
4, 420, Note_on_c, 2, 47, 0
4, 420, Note_on_c, 2, 49, 110
4, 480, Note_on_c, 2, 49, 0
4, 480, Note_on_c, 2, 50, 110
4, 660, Note_on_c, 2, 50, 0
4, 1020, Note_on_c, 2, 38, 110
4, 1080, Note_on_c, 2, 38, 0
4, 1080, Note_on_c, 2, 40, 110
4, 1140, Note_on_c, 2, 40, 0
4, 1140, Note_on_c, 2, 42, 110
4, 1200, Note_on_c, 2, 42, 0
4, 1200, Note_on_c, 2, 43, 110
4, 1260, Note_on_c, 2, 43, 0
4, 1260, Note_on_c, 2, 45, 110
4, 1320, Note_on_c, 2, 45, 0
4, 1320, Note_on_c, 2, 47, 110
4, 1380, Note_on_c, 2, 47, 0
4, 1380, Note_on_c, 2, 49, 110
4, 1440, Note_on_c, 2, 49, 0
4, 1440, Note_on_c, 2, 50, 110
4, 1620, Note_on_c, 2, 50, 0
4, 1980, Note_on_c, 2, 45, 110
4, 2040, Note_on_c, 2, 45, 0
4, 2040, Note_on_c, 2, 50, 110
4, 2100, Note_on_c, 2, 50, 0
4, 2100, Note_on_c, 2, 42, 110
4, 2160, Note_on_c, 2, 42, 0
4, 2160, Note_on_c, 2, 45, 110
4, 2220, Note_on_c, 2, 45, 0
4, 2220, Note_on_c, 2, 38, 110
4, 2280, Note_on_c, 2, 38, 0
4, 2280, Note_on_c, 2, 42, 110
4, 2340, Note_on_c, 2, 42, 0
4, 2340, Note_on_c, 2, 33, 110
4, 2400, Note_on_c, 2, 33, 0
4, 2400, Note_on_c, 2, 38, 110
4, 2580, Note_on_c, 2, 38, 0
4, 2940, Note_on_c, 2, 38, 110
4, 3000, Note_on_c, 2, 38, 0
4, 3000, Note_on_c, 2, 40, 110
4, 3060, Note_on_c, 2, 40, 0
4, 3060, Note_on_c, 2, 42, 110
4, 3120, Note_on_c, 2, 42, 0
4, 3120, Note_on_c, 2, 43, 110
4, 3180, Note_on_c, 2, 43, 0
4, 3180, Note_on_c, 2, 45, 110
4, 3240, Note_on_c, 2, 45, 0
4, 3240, Note_on_c, 2, 47, 110
4, 3300, Note_on_c, 2, 47, 0
4, 3300, Note_on_c, 2, 49, 110
4, 3360, Note_on_c, 2, 49, 0
4, 3360, Note_on_c, 2, 50, 110
4, 3540, Note_on_c, 2, 50, 0
4, 3900, Note_on_c, 2, 42, 110
4, 3960, Note_on_c, 2, 42, 0
4, 3960, Note_on_c, 2, 45, 110
4, 4020, Note_on_c, 2, 45, 0
4, 4020, Note_on_c, 2, 38, 110
4, 4080, Note_on_c, 2, 38, 0
4, 4080, Note_on_c, 2, 42, 110
4, 4140, Note_on_c, 2, 42, 0
4, 4140, Note_on_c, 2, 33, 110
4, 4200, Note_on_c, 2, 33, 0
4, 4200, Note_on_c, 2, 38, 110
4, 4260, Note_on_c, 2, 38, 0
4, 4260, Note_on_c, 2, 30, 110
4, 4320, Note_on_c, 2, 30, 0
4, 4320, Note_on_c, 2, 33, 110
4, 7920, Note_on_c, 2, 33, 0
4, 8640, Note_on_c, 2, 30, 110
4, 13680, Note_on_c, 2, 30, 0
4, 14400, Note_on_c, 2, 26, 110
4, 14880, Note_on_c, 2, 26, 0
4, 15120, Note_on_c, 2, 38, 100
4, 15360, Note_on_c, 2, 38, 0
4, 15360, Note_on_c, 2, 43, 100
4, 15960, Note_on_c, 2, 43, 0
4, 15960, Note_on_c, 2, 43, 100
4, 16080, Note_on_c, 2, 43, 0
4, 16080, Note_on_c, 2, 42, 100
4, 16320, Note_on_c, 2, 42, 0
4, 16320, Note_on_c, 2, 40, 100
4, 16560, Note_on_c, 2, 40, 0
4, 16560, Note_on_c, 2, 33, 100
4, 16800, Note_on_c, 2, 33, 0
4, 16800, Note_on_c, 2, 38, 100
4, 17040, Note_on_c, 2, 38, 0
4, 17040, Note_on_c, 2, 50, 100
4, 17520, Note_on_c, 2, 50, 0
4, 17520, Note_on_c, 2, 49, 100
4, 17760, Note_on_c, 2, 49, 0
4, 17760, Note_on_c, 2, 47, 100
4, 18240, Note_on_c, 2, 47, 0
4, 18240, Note_on_c, 2, 45, 100
4, 18480, Note_on_c, 2, 45, 0
4, 18480, Note_on_c, 2, 42, 100
4, 18720, Note_on_c, 2, 42, 0
4, 18720, Note_on_c, 2, 43, 100
4, 19200, Note_on_c, 2, 43, 0
4, 19200, Note_on_c, 2, 42, 100
4, 19680, Note_on_c, 2, 42, 0
4, 19680, Note_on_c, 2, 40, 100
4, 20160, Note_on_c, 2, 40, 0
4, 20160, Note_on_c, 2, 38, 100
4, 20400, Note_on_c, 2, 38, 0
4, 20400, Note_on_c, 2, 37, 100
4, 20640, Note_on_c, 2, 37, 0
4, 20640, Note_on_c, 2, 35, 100
4, 20880, Note_on_c, 2, 35, 0
4, 20880, Note_on_c, 2, 40, 100
4, 21120, Note_on_c, 2, 40, 0
4, 21120, Note_on_c, 2, 33, 100
4, 21360, Note_on_c, 2, 33, 0
4, 21480, Note_on_c, 2, 42, 100
4, 21600, Note_on_c, 2, 42, 0
4, 21600, Note_on_c, 2, 43, 100
4, 21720, Note_on_c, 2, 43, 0
4, 21720, Note_on_c, 2, 47, 100
4, 21840, Note_on_c, 2, 47, 0
4, 21840, Note_on_c, 2, 40, 100
4, 21960, Note_on_c, 2, 40, 0
4, 21960, Note_on_c, 2, 43, 100
4, 22080, Note_on_c, 2, 43, 0
4, 22080, Note_on_c, 2, 42, 100
4, 22200, Note_on_c, 2, 42, 0
4, 22200, Note_on_c, 2, 45, 100
4, 22320, Note_on_c, 2, 45, 0
4, 22320, Note_on_c, 2, 38, 100
4, 22440, Note_on_c, 2, 38, 0
4, 22440, Note_on_c, 2, 42, 100
4, 22560, Note_on_c, 2, 42, 0
4, 22560, Note_on_c, 2, 40, 100
4, 22680, Note_on_c, 2, 40, 0
4, 22680, Note_on_c, 2, 43, 100
4, 22800, Note_on_c, 2, 43, 0
4, 22800, Note_on_c, 2, 37, 100
4, 22920, Note_on_c, 2, 37, 0
4, 22920, Note_on_c, 2, 40, 100
4, 23040, Note_on_c, 2, 40, 0
4, 23040, Note_on_c, 2, 38, 100
4, 23160, Note_on_c, 2, 38, 0
4, 23160, Note_on_c, 2, 35, 100
4, 23280, Note_on_c, 2, 35, 0
4, 23280, Note_on_c, 2, 47, 100
4, 23760, Note_on_c, 2, 47, 0
4, 23760, Note_on_c, 2, 46, 100
4, 24000, Note_on_c, 2, 46, 0
4, 24000, Note_on_c, 2, 47, 100
4, 24240, Note_on_c, 2, 47, 0
4, 24360, Note_on_c, 2, 45, 100
4, 24480, Note_on_c, 2, 45, 0
4, 24480, Note_on_c, 2, 47, 100
4, 24600, Note_on_c, 2, 47, 0
4, 24600, Note_on_c, 2, 50, 100
4, 24720, Note_on_c, 2, 50, 0
4, 24720, Note_on_c, 2, 44, 100
4, 24840, Note_on_c, 2, 44, 0
4, 24840, Note_on_c, 2, 47, 100
4, 24960, Note_on_c, 2, 47, 0
4, 24960, Note_on_c, 2, 45, 100
4, 25080, Note_on_c, 2, 45, 0
4, 25080, Note_on_c, 2, 49, 100
4, 25200, Note_on_c, 2, 49, 0
4, 25200, Note_on_c, 2, 42, 100
4, 25320, Note_on_c, 2, 42, 0
4, 25320, Note_on_c, 2, 45, 100
4, 25440, Note_on_c, 2, 45, 0
4, 25440, Note_on_c, 2, 43, 100
4, 25560, Note_on_c, 2, 43, 0
4, 25560, Note_on_c, 2, 47, 100
4, 25680, Note_on_c, 2, 47, 0
4, 25680, Note_on_c, 2, 40, 100
4, 25800, Note_on_c, 2, 40, 0
4, 25800, Note_on_c, 2, 43, 100
4, 25920, Note_on_c, 2, 43, 0
4, 25920, Note_on_c, 2, 42, 100
4, 26040, Note_on_c, 2, 42, 0
4, 26040, Note_on_c, 2, 45, 100
4, 26160, Note_on_c, 2, 45, 0
4, 26160, Note_on_c, 2, 38, 100
4, 26280, Note_on_c, 2, 38, 0
4, 26280, Note_on_c, 2, 42, 100
4, 26400, Note_on_c, 2, 42, 0
4, 26400, Note_on_c, 2, 40, 100
4, 26520, Note_on_c, 2, 40, 0
4, 26520, Note_on_c, 2, 43, 100
4, 26640, Note_on_c, 2, 43, 0
4, 26640, Note_on_c, 2, 37, 100
4, 26760, Note_on_c, 2, 37, 0
4, 26760, Note_on_c, 2, 40, 100
4, 26880, Note_on_c, 2, 40, 0
4, 26880, Note_on_c, 2, 38, 100
4, 27000, Note_on_c, 2, 38, 0
4, 27000, Note_on_c, 2, 42, 100
4, 27120, Note_on_c, 2, 42, 0
4, 27120, Note_on_c, 2, 35, 100
4, 27240, Note_on_c, 2, 35, 0
4, 27240, Note_on_c, 2, 38, 100
4, 27360, Note_on_c, 2, 38, 0
4, 27360, Note_on_c, 2, 37, 100
4, 27480, Note_on_c, 2, 37, 0
4, 27480, Note_on_c, 2, 40, 100
4, 27600, Note_on_c, 2, 40, 0
4, 27600, Note_on_c, 2, 33, 100
4, 27720, Note_on_c, 2, 33, 0
4, 27720, Note_on_c, 2, 37, 100
4, 27840, Note_on_c, 2, 37, 0
4, 27840, Note_on_c, 2, 35, 100
4, 27960, Note_on_c, 2, 35, 0
4, 27960, Note_on_c, 2, 38, 100
4, 28080, Note_on_c, 2, 38, 0
4, 28080, Note_on_c, 2, 37, 100
4, 28200, Note_on_c, 2, 37, 0
4, 28200, Note_on_c, 2, 40, 100
4, 28320, Note_on_c, 2, 40, 0
4, 28320, Note_on_c, 2, 38, 100
4, 28440, Note_on_c, 2, 38, 0
4, 28440, Note_on_c, 2, 40, 100
4, 28560, Note_on_c, 2, 40, 0
4, 28560, Note_on_c, 2, 42, 100
4, 28680, Note_on_c, 2, 42, 0
4, 28680, Note_on_c, 2, 38, 100
4, 28800, Note_on_c, 2, 38, 0
4, 28800, Note_on_c, 2, 43, 100
4, 28920, Note_on_c, 2, 43, 0
4, 28920, Note_on_c, 2, 40, 100
4, 29040, Note_on_c, 2, 40, 0
4, 29040, Note_on_c, 2, 45, 100
4, 29160, Note_on_c, 2, 45, 0
4, 29160, Note_on_c, 2, 33, 100
4, 29280, Note_on_c, 2, 33, 0
4, 29280, Note_on_c, 2, 38, 100
4, 29400, Note_on_c, 2, 38, 0
4, 29400, Note_on_c, 2, 26, 100
4, 29520, Note_on_c, 2, 26, 0
4, 36240, Note_on_c, 2, 30, 100
4, 36480, Note_on_c, 2, 30, 0
4, 36480, Note_on_c, 2, 35, 100
4, 36720, Note_on_c, 2, 35, 0
4, 36720, Note_on_c, 2, 37, 100
4, 36960, Note_on_c, 2, 37, 0
4, 36960, Note_on_c, 2, 38, 100
4, 37200, Note_on_c, 2, 38, 0
4, 38160, Note_on_c, 2, 37, 100
4, 38400, Note_on_c, 2, 37, 0
4, 38400, Note_on_c, 2, 42, 100
4, 38640, Note_on_c, 2, 42, 0
4, 38640, Note_on_c, 2, 44, 100
4, 38880, Note_on_c, 2, 44, 0
4, 38880, Note_on_c, 2, 45, 100
4, 39120, Note_on_c, 2, 45, 0
4, 40080, Note_on_c, 2, 37, 100
4, 40320, Note_on_c, 2, 37, 0
4, 40320, Note_on_c, 2, 42, 100
4, 40560, Note_on_c, 2, 42, 0
4, 40560, Note_on_c, 2, 44, 100
4, 40800, Note_on_c, 2, 44, 0
4, 40800, Note_on_c, 2, 45, 100
4, 41040, Note_on_c, 2, 45, 0
4, 41040, Note_on_c, 2, 47, 100
4, 41280, Note_on_c, 2, 47, 0
4, 41280, Note_on_c, 2, 45, 100
4, 41520, Note_on_c, 2, 45, 0
4, 41520, Note_on_c, 2, 47, 100
4, 41760, Note_on_c, 2, 47, 0
4, 41760, Note_on_c, 2, 49, 100
4, 42000, Note_on_c, 2, 49, 0
4, 42120, Note_on_c, 2, 41, 100
4, 42240, Note_on_c, 2, 41, 0
4, 42240, Note_on_c, 2, 42, 100
4, 42360, Note_on_c, 2, 42, 0
4, 42360, Note_on_c, 2, 45, 100
4, 42480, Note_on_c, 2, 45, 0
4, 42480, Note_on_c, 2, 41, 100
4, 42600, Note_on_c, 2, 41, 0
4, 42600, Note_on_c, 2, 44, 100
4, 42720, Note_on_c, 2, 44, 0
4, 42720, Note_on_c, 2, 42, 100
4, 42840, Note_on_c, 2, 42, 0
4, 42840, Note_on_c, 2, 45, 100
4, 42960, Note_on_c, 2, 45, 0
4, 42960, Note_on_c, 2, 41, 100
4, 43080, Note_on_c, 2, 41, 0
4, 43080, Note_on_c, 2, 44, 100
4, 43200, Note_on_c, 2, 44, 0
4, 43200, Note_on_c, 2, 42, 100
4, 43320, Note_on_c, 2, 42, 0
4, 43320, Note_on_c, 2, 45, 100
4, 43440, Note_on_c, 2, 45, 0
4, 43440, Note_on_c, 2, 40, 100
4, 43560, Note_on_c, 2, 40, 0
4, 43560, Note_on_c, 2, 44, 100
4, 43680, Note_on_c, 2, 44, 0
4, 43680, Note_on_c, 2, 38, 100
4, 43800, Note_on_c, 2, 38, 0
4, 43800, Note_on_c, 2, 42, 100
4, 43920, Note_on_c, 2, 42, 0
4, 43920, Note_on_c, 2, 37, 100
4, 44040, Note_on_c, 2, 37, 0
4, 44040, Note_on_c, 2, 42, 100
4, 44160, Note_on_c, 2, 42, 0
4, 44160, Note_on_c, 2, 35, 100
4, 44280, Note_on_c, 2, 35, 0
4, 44280, Note_on_c, 2, 42, 100
4, 44400, Note_on_c, 2, 42, 0
4, 44400, Note_on_c, 2, 37, 100
4, 44520, Note_on_c, 2, 37, 0
4, 44520, Note_on_c, 2, 41, 100
4, 44640, Note_on_c, 2, 41, 0
4, 44640, Note_on_c, 2, 30, 100
4, 44880, Note_on_c, 2, 30, 0
4, 49680, Note_on_c, 2, 33, 100
4, 49920, Note_on_c, 2, 33, 0
4, 49920, Note_on_c, 2, 38, 100
4, 50160, Note_on_c, 2, 38, 0
4, 50160, Note_on_c, 2, 37, 100
4, 50400, Note_on_c, 2, 37, 0
4, 50400, Note_on_c, 2, 38, 100
4, 50640, Note_on_c, 2, 38, 0
4, 51600, Note_on_c, 2, 38, 100
4, 51840, Note_on_c, 2, 38, 0
4, 51840, Note_on_c, 2, 43, 100
4, 52080, Note_on_c, 2, 43, 0
4, 52080, Note_on_c, 2, 42, 100
4, 52320, Note_on_c, 2, 42, 0
4, 52320, Note_on_c, 2, 43, 100
4, 52560, Note_on_c, 2, 43, 0
4, 53520, Note_on_c, 2, 40, 100
4, 53760, Note_on_c, 2, 40, 0
4, 53760, Note_on_c, 2, 45, 100
4, 54000, Note_on_c, 2, 45, 0
4, 54000, Note_on_c, 2, 44, 100
4, 54240, Note_on_c, 2, 44, 0
4, 54240, Note_on_c, 2, 45, 100
4, 54480, Note_on_c, 2, 45, 0
4, 55440, Note_on_c, 2, 45, 100
4, 55680, Note_on_c, 2, 45, 0
4, 55680, Note_on_c, 2, 50, 100
4, 55920, Note_on_c, 2, 50, 0
4, 55920, Note_on_c, 2, 49, 100
4, 56160, Note_on_c, 2, 49, 0
4, 56160, Note_on_c, 2, 50, 100
4, 56400, Note_on_c, 2, 50, 0
4, 60840, Note_on_c, 2, 37, 100
4, 60960, Note_on_c, 2, 37, 0
4, 60960, Note_on_c, 2, 38, 100
4, 61080, Note_on_c, 2, 38, 0
4, 61080, Note_on_c, 2, 35, 100
4, 61200, Note_on_c, 2, 35, 0
4, 61200, Note_on_c, 2, 40, 100
4, 61320, Note_on_c, 2, 40, 0
4, 61320, Note_on_c, 2, 28, 100
4, 61440, Note_on_c, 2, 28, 0
4, 61440, Note_on_c, 2, 33, 100
4, 61680, Note_on_c, 2, 33, 0
4, 61680, Note_on_c, 2, 45, 100
4, 62160, Note_on_c, 2, 45, 0
4, 62160, Note_on_c, 2, 43, 100
4, 62640, Note_on_c, 2, 43, 0
4, 62640, Note_on_c, 2, 42, 100
4, 63120, Note_on_c, 2, 42, 0
4, 63120, Note_on_c, 2, 40, 100
4, 63600, Note_on_c, 2, 40, 0
4, 63600, Note_on_c, 2, 38, 100
4, 64080, Note_on_c, 2, 38, 0
4, 64080, Note_on_c, 2, 37, 100
4, 64320, Note_on_c, 2, 37, 0
4, 64320, Note_on_c, 2, 38, 100
4, 64560, Note_on_c, 2, 38, 0
4, 64560, Note_on_c, 2, 35, 100
4, 64800, Note_on_c, 2, 35, 0
4, 64800, Note_on_c, 2, 31, 100
4, 65040, Note_on_c, 2, 31, 0
4, 65040, Note_on_c, 2, 33, 100
4, 65280, Note_on_c, 2, 33, 0
4, 65280, Note_on_c, 2, 26, 100
4, 65520, Note_on_c, 2, 26, 0
4, 65640, Note_on_c, 2, 42, 100
4, 65760, Note_on_c, 2, 42, 0
4, 65760, Note_on_c, 2, 43, 100
4, 65880, Note_on_c, 2, 43, 0
4, 65880, Note_on_c, 2, 47, 100
4, 66000, Note_on_c, 2, 47, 0
4, 66000, Note_on_c, 2, 40, 100
4, 66120, Note_on_c, 2, 40, 0
4, 66120, Note_on_c, 2, 43, 100
4, 66240, Note_on_c, 2, 43, 0
4, 66240, Note_on_c, 2, 42, 100
4, 66360, Note_on_c, 2, 42, 0
4, 66360, Note_on_c, 2, 38, 100
4, 66480, Note_on_c, 2, 38, 0
4, 66480, Note_on_c, 2, 43, 100
4, 66600, Note_on_c, 2, 43, 0
4, 66600, Note_on_c, 2, 35, 100
4, 66720, Note_on_c, 2, 35, 0
4, 66720, Note_on_c, 2, 36, 100
4, 66840, Note_on_c, 2, 36, 0
4, 66840, Note_on_c, 2, 33, 100
4, 66960, Note_on_c, 2, 33, 0
4, 66960, Note_on_c, 2, 38, 100
4, 67080, Note_on_c, 2, 38, 0
4, 67080, Note_on_c, 2, 26, 100
4, 67200, Note_on_c, 2, 26, 0
4, 67200, Note_on_c, 2, 31, 100
4, 67440, Note_on_c, 2, 31, 0
4, 68520, Note_on_c, 2, 31, 100
4, 68640, Note_on_c, 2, 31, 0
4, 68640, Note_on_c, 2, 36, 100
4, 68880, Note_on_c, 2, 36, 0
4, 68880, Note_on_c, 2, 35, 100
4, 69120, Note_on_c, 2, 35, 0
4, 69120, Note_on_c, 2, 36, 100
4, 69360, Note_on_c, 2, 36, 0
4, 70440, Note_on_c, 2, 33, 100
4, 70560, Note_on_c, 2, 33, 0
4, 70560, Note_on_c, 2, 38, 100
4, 70800, Note_on_c, 2, 38, 0
4, 70800, Note_on_c, 2, 37, 100
4, 71040, Note_on_c, 2, 37, 0
4, 71040, Note_on_c, 2, 38, 100
4, 71280, Note_on_c, 2, 38, 0
4, 72360, Note_on_c, 2, 38, 100
4, 72480, Note_on_c, 2, 38, 0
4, 72480, Note_on_c, 2, 43, 100
4, 72720, Note_on_c, 2, 43, 0
4, 72720, Note_on_c, 2, 42, 100
4, 72960, Note_on_c, 2, 42, 0
4, 72960, Note_on_c, 2, 43, 100
4, 73200, Note_on_c, 2, 43, 0
4, 74280, Note_on_c, 2, 43, 100
4, 74400, Note_on_c, 2, 43, 0
4, 74400, Note_on_c, 2, 48, 100
4, 74640, Note_on_c, 2, 48, 0
4, 74640, Note_on_c, 2, 47, 100
4, 74880, Note_on_c, 2, 47, 0
4, 74880, Note_on_c, 2, 48, 100
4, 75120, Note_on_c, 2, 48, 0
4, 75240, Note_on_c, 2, 47, 100
4, 75360, Note_on_c, 2, 47, 0
4, 75360, Note_on_c, 2, 45, 100
4, 75840, Note_on_c, 2, 45, 0
4, 75840, Note_on_c, 2, 47, 100
4, 76080, Note_on_c, 2, 47, 0
4, 77160, Note_on_c, 2, 47, 100
4, 77280, Note_on_c, 2, 47, 0
4, 77280, Note_on_c, 2, 48, 100
4, 77400, Note_on_c, 2, 48, 0
4, 77400, Note_on_c, 2, 50, 100
4, 77520, Note_on_c, 2, 50, 0
4, 77520, Note_on_c, 2, 47, 100
4, 77640, Note_on_c, 2, 47, 0
4, 77640, Note_on_c, 2, 50, 100
4, 77760, Note_on_c, 2, 50, 0
4, 77760, Note_on_c, 2, 45, 100
4, 77880, Note_on_c, 2, 45, 0
4, 77880, Note_on_c, 2, 48, 100
4, 78000, Note_on_c, 2, 48, 0
4, 78000, Note_on_c, 2, 43, 100
4, 78120, Note_on_c, 2, 43, 0
4, 78120, Note_on_c, 2, 47, 100
4, 78240, Note_on_c, 2, 47, 0
4, 78240, Note_on_c, 2, 45, 100
4, 78360, Note_on_c, 2, 45, 0
4, 78360, Note_on_c, 2, 48, 100
4, 78480, Note_on_c, 2, 48, 0
4, 78480, Note_on_c, 2, 35, 100
4, 78600, Note_on_c, 2, 35, 0
4, 78600, Note_on_c, 2, 47, 100
4, 78720, Note_on_c, 2, 47, 0
4, 78720, Note_on_c, 2, 40, 100
4, 78960, Note_on_c, 2, 40, 0
4, 79080, Note_on_c, 2, 44, 100
4, 79200, Note_on_c, 2, 44, 0
4, 79200, Note_on_c, 2, 45, 100
4, 79440, Note_on_c, 2, 45, 0
4, 79440, Note_on_c, 2, 44, 100
4, 79680, Note_on_c, 2, 44, 0
4, 79680, Note_on_c, 2, 45, 100
4, 79920, Note_on_c, 2, 45, 0
4, 80400, Note_on_c, 2, 40, 100
4, 80640, Note_on_c, 2, 40, 0
4, 80640, Note_on_c, 2, 33, 100
4, 80880, Note_on_c, 2, 33, 0
4, 81000, Note_on_c, 2, 42, 100
4, 81120, Note_on_c, 2, 42, 0
4, 81120, Note_on_c, 2, 43, 100
4, 81600, Note_on_c, 2, 43, 0
4, 81600, Note_on_c, 2, 42, 100
4, 82080, Note_on_c, 2, 42, 0
4, 82080, Note_on_c, 2, 40, 100
4, 82560, Note_on_c, 2, 40, 0
4, 82560, Note_on_c, 2, 38, 100
4, 82800, Note_on_c, 2, 38, 0
4, 82800, Note_on_c, 2, 42, 100
4, 83040, Note_on_c, 2, 42, 0
4, 83040, Note_on_c, 2, 43, 100
4, 83280, Note_on_c, 2, 43, 0
4, 83280, Note_on_c, 2, 45, 100
4, 83520, Note_on_c, 2, 45, 0
4, 83520, Note_on_c, 2, 47, 100
4, 83760, Note_on_c, 2, 47, 0
4, 83760, Note_on_c, 2, 43, 100
4, 84000, Note_on_c, 2, 43, 0
4, 84000, Note_on_c, 2, 45, 100
4, 84240, Note_on_c, 2, 45, 0
4, 84240, Note_on_c, 2, 33, 100
4, 84480, Note_on_c, 2, 33, 0
4, 84480, Note_on_c, 2, 38, 100
4, 84720, Note_on_c, 2, 38, 0
4, 84720, Note_on_c, 2, 38, 100
4, 85200, Note_on_c, 2, 38, 0
4, 85200, Note_on_c, 2, 37, 100
4, 85680, Note_on_c, 2, 37, 0
4, 85680, Note_on_c, 2, 35, 100
4, 86160, Note_on_c, 2, 35, 0
4, 86160, Note_on_c, 2, 33, 100
4, 86640, Note_on_c, 2, 33, 0
4, 86640, Note_on_c, 2, 31, 100
4, 87120, Note_on_c, 2, 31, 0
4, 87120, Note_on_c, 2, 30, 100
4, 87600, Note_on_c, 2, 30, 0
4, 87600, Note_on_c, 2, 28, 100
4, 87840, Note_on_c, 2, 28, 0
4, 87840, Note_on_c, 2, 30, 100
4, 88320, Note_on_c, 2, 30, 0
4, 88320, Note_on_c, 2, 31, 100
4, 88560, Note_on_c, 2, 31, 0
4, 88560, Note_on_c, 2, 33, 100
4, 88800, Note_on_c, 2, 33, 0
4, 88800, Note_on_c, 2, 35, 100
4, 89040, Note_on_c, 2, 35, 0
4, 89040, Note_on_c, 2, 30, 100
4, 89280, Note_on_c, 2, 30, 0
4, 89280, Note_on_c, 2, 31, 100
4, 89520, Note_on_c, 2, 31, 0
4, 89520, Note_on_c, 2, 33, 100
4, 89760, Note_on_c, 2, 33, 0
4, 89760, Note_on_c, 2, 35, 100
4, 90000, Note_on_c, 2, 35, 0
4, 90960, Note_on_c, 2, 30, 100
4, 91200, Note_on_c, 2, 30, 0
4, 91200, Note_on_c, 2, 31, 100
4, 91440, Note_on_c, 2, 31, 0
4, 91440, Note_on_c, 2, 33, 100
4, 91680, Note_on_c, 2, 33, 0
4, 91680, Note_on_c, 2, 27, 120
4, 92160, Note_on_c, 2, 27, 0
4, 92160, Note_on_c, 2, 28, 120
4, 92400, Note_on_c, 2, 28, 0
4, 92640, Note_on_c, 2, 44, 120
4, 93120, Note_on_c, 2, 44, 0
4, 93120, Note_on_c, 2, 45, 120
4, 93360, Note_on_c, 2, 45, 0
4, 93360, Note_on_c, 2, 33, 120
4, 93600, Note_on_c, 2, 33, 0
4, 93600, Note_on_c, 2, 38, 120
4, 93720, Note_on_c, 2, 38, 0
4, 94080, Note_on_c, 2, 38, 120
4, 94320, Note_on_c, 2, 38, 0
4, 94320, Note_on_c, 2, 36, 120
4, 94440, Note_on_c, 2, 36, 0
4, 94440, Note_on_c, 2, 35, 120
4, 94500, Note_on_c, 2, 35, 0
4, 94500, Note_on_c, 2, 33, 120
4, 94560, Note_on_c, 2, 33, 0
4, 94560, Note_on_c, 2, 42, 120
4, 94800, Note_on_c, 2, 35, 120
4, 95040, Note_on_c, 2, 35, 0
4, 95040, Note_on_c, 2, 28, 120
4, 95280, Note_on_c, 2, 42, 0
4, 95280, Note_on_c, 2, 40, 120
4, 95400, Note_on_c, 2, 40, 0
4, 95400, Note_on_c, 2, 39, 120
4, 95520, Note_on_c, 2, 39, 0
4, 95520, Note_on_c, 2, 40, 120
4, 95760, Note_on_c, 2, 40, 0
4, 95760, Note_on_c, 2, 28, 0
4, 95760, Note_on_c, 2, 26, 120
4, 95760, Note_on_c, 2, 41, 120
4, 96000, Note_on_c, 2, 41, 0
4, 96000, Note_on_c, 2, 26, 0
4, 96000, Note_on_c, 2, 24, 120
4, 96000, Note_on_c, 2, 40, 120
4, 96120, Note_on_c, 2, 24, 0
4, 96120, Note_on_c, 2, 36, 120
4, 96240, Note_on_c, 2, 36, 0
4, 96240, Note_on_c, 2, 40, 0
4, 96240, Note_on_c, 2, 35, 120
4, 96360, Note_on_c, 2, 35, 0
4, 96360, Note_on_c, 2, 33, 120
4, 96480, Note_on_c, 2, 33, 0
4, 96480, Note_on_c, 2, 40, 120
4, 96600, Note_on_c, 2, 48, 120
4, 96720, Note_on_c, 2, 48, 0
4, 96720, Note_on_c, 2, 47, 120
4, 96840, Note_on_c, 2, 47, 0
4, 96840, Note_on_c, 2, 45, 120
4, 96960, Note_on_c, 2, 45, 0
4, 96960, Note_on_c, 2, 44, 120
4, 97200, Note_on_c, 2, 44, 0
4, 97200, Note_on_c, 2, 45, 120
4, 97440, Note_on_c, 2, 45, 0
4, 97440, Note_on_c, 2, 47, 120
4, 97680, Note_on_c, 2, 40, 0
4, 97680, Note_on_c, 2, 38, 120
4, 97920, Note_on_c, 2, 38, 0
4, 97920, Note_on_c, 2, 47, 0
4, 97920, Note_on_c, 2, 37, 120
4, 97920, Note_on_c, 2, 49, 120
4, 98400, Note_on_c, 2, 37, 0
4, 98400, Note_on_c, 2, 29, 120
4, 98640, Note_on_c, 2, 49, 0
4, 98640, Note_on_c, 2, 50, 120
4, 98880, Note_on_c, 2, 29, 0
4, 98880, Note_on_c, 2, 31, 120
4, 99360, Note_on_c, 2, 31, 0
4, 99360, Note_on_c, 2, 50, 0
4, 99840, Note_on_c, 2, 33, 120
4, 100440, Note_on_c, 2, 46, 120
4, 100560, Note_on_c, 2, 46, 0
4, 100560, Note_on_c, 2, 45, 120
4, 100680, Note_on_c, 2, 45, 0
4, 100680, Note_on_c, 2, 43, 120
4, 100800, Note_on_c, 2, 43, 0
4, 100800, Note_on_c, 2, 33, 0
4, 100800, Note_on_c, 2, 26, 120
4, 100800, Note_on_c, 2, 42, 120
4, 100920, Note_on_c, 2, 42, 0
4, 100920, Note_on_c, 2, 38, 120
4, 101040, Note_on_c, 2, 38, 0
4, 101040, Note_on_c, 2, 43, 120
4, 101280, Note_on_c, 2, 43, 0
4, 101280, Note_on_c, 2, 26, 0
4, 101760, Note_on_c, 2, 26, 120
4, 101760, Note_on_c, 2, 38, 120
4, 102720, Note_on_c, 2, 38, 0
4, 102720, Note_on_c, 2, 26, 0
4, 122400, Note_on_c, 2, 33, 100
4, 122460, Note_on_c, 2, 33, 0
4, 122460, Note_on_c, 2, 35, 100
4, 122520, Note_on_c, 2, 35, 0
4, 122520, Note_on_c, 2, 37, 100
4, 122580, Note_on_c, 2, 37, 0
4, 122580, Note_on_c, 2, 35, 100
4, 122640, Note_on_c, 2, 35, 0
4, 122640, Note_on_c, 2, 33, 100
4, 122700, Note_on_c, 2, 33, 0
4, 122700, Note_on_c, 2, 35, 100
4, 122760, Note_on_c, 2, 35, 0
4, 122760, Note_on_c, 2, 37, 100
4, 122820, Note_on_c, 2, 37, 0
4, 122820, Note_on_c, 2, 35, 100
4, 122880, Note_on_c, 2, 35, 0
4, 122880, Note_on_c, 2, 33, 100
4, 122940, Note_on_c, 2, 33, 0
4, 122940, Note_on_c, 2, 35, 100
4, 123000, Note_on_c, 2, 35, 0
4, 123000, Note_on_c, 2, 37, 100
4, 123060, Note_on_c, 2, 37, 0
4, 123060, Note_on_c, 2, 35, 100
4, 123120, Note_on_c, 2, 35, 0
4, 123120, Note_on_c, 2, 33, 100
4, 123180, Note_on_c, 2, 33, 0
4, 123180, Note_on_c, 2, 35, 100
4, 123240, Note_on_c, 2, 35, 0
4, 123240, Note_on_c, 2, 37, 100
4, 123300, Note_on_c, 2, 37, 0
4, 123300, Note_on_c, 2, 35, 100
4, 123360, Note_on_c, 2, 35, 0
4, 123360, Note_on_c, 2, 33, 100
4, 123480, Note_on_c, 2, 33, 0
4, 124080, Note_on_c, 2, 42, 100
4, 124140, Note_on_c, 2, 42, 0
4, 124140, Note_on_c, 2, 40, 100
4, 124200, Note_on_c, 2, 40, 0
4, 124200, Note_on_c, 2, 42, 100
4, 124260, Note_on_c, 2, 42, 0
4, 124260, Note_on_c, 2, 37, 100
4, 124320, Note_on_c, 2, 37, 0
4, 124320, Note_on_c, 2, 38, 100
4, 124380, Note_on_c, 2, 38, 0
4, 124380, Note_on_c, 2, 37, 100
4, 124440, Note_on_c, 2, 37, 0
4, 124440, Note_on_c, 2, 38, 100
4, 124500, Note_on_c, 2, 38, 0
4, 124500, Note_on_c, 2, 35, 100
4, 124560, Note_on_c, 2, 35, 0
4, 124560, Note_on_c, 2, 40, 100
4, 124620, Note_on_c, 2, 40, 0
4, 124620, Note_on_c, 2, 38, 100
4, 124680, Note_on_c, 2, 38, 0
4, 124680, Note_on_c, 2, 40, 100
4, 124740, Note_on_c, 2, 40, 0
4, 124740, Note_on_c, 2, 35, 100
4, 124800, Note_on_c, 2, 35, 0
4, 124800, Note_on_c, 2, 37, 100
4, 124860, Note_on_c, 2, 37, 0
4, 124860, Note_on_c, 2, 35, 100
4, 124920, Note_on_c, 2, 35, 0
4, 124920, Note_on_c, 2, 37, 100
4, 124980, Note_on_c, 2, 37, 0
4, 124980, Note_on_c, 2, 33, 100
4, 125040, Note_on_c, 2, 33, 0
4, 125040, Note_on_c, 2, 38, 100
4, 125100, Note_on_c, 2, 38, 0
4, 125100, Note_on_c, 2, 37, 100
4, 125160, Note_on_c, 2, 37, 0
4, 125160, Note_on_c, 2, 38, 100
4, 125220, Note_on_c, 2, 38, 0
4, 125220, Note_on_c, 2, 33, 100
4, 125280, Note_on_c, 2, 33, 0
4, 125280, Note_on_c, 2, 35, 100
4, 125340, Note_on_c, 2, 35, 0
4, 125340, Note_on_c, 2, 33, 100
4, 125400, Note_on_c, 2, 33, 0
4, 125400, Note_on_c, 2, 35, 100
4, 125460, Note_on_c, 2, 35, 0
4, 125460, Note_on_c, 2, 32, 100
4, 125520, Note_on_c, 2, 32, 0
4, 125520, Note_on_c, 2, 37, 100
4, 125580, Note_on_c, 2, 37, 0
4, 125580, Note_on_c, 2, 35, 100
4, 125640, Note_on_c, 2, 35, 0
4, 125640, Note_on_c, 2, 37, 100
4, 125700, Note_on_c, 2, 37, 0
4, 125700, Note_on_c, 2, 32, 100
4, 125760, Note_on_c, 2, 32, 0
4, 125760, Note_on_c, 2, 33, 100
4, 125820, Note_on_c, 2, 33, 0
4, 125820, Note_on_c, 2, 32, 100
4, 125880, Note_on_c, 2, 32, 0
4, 125880, Note_on_c, 2, 33, 100
4, 125940, Note_on_c, 2, 33, 0
4, 125940, Note_on_c, 2, 30, 100
4, 126000, Note_on_c, 2, 30, 0
4, 126000, Note_on_c, 2, 35, 100
4, 126060, Note_on_c, 2, 35, 0
4, 126060, Note_on_c, 2, 33, 100
4, 126120, Note_on_c, 2, 33, 0
4, 126120, Note_on_c, 2, 35, 100
4, 126180, Note_on_c, 2, 35, 0
4, 126180, Note_on_c, 2, 30, 100
4, 126240, Note_on_c, 2, 30, 0
4, 126240, Note_on_c, 2, 32, 100
4, 126300, Note_on_c, 2, 32, 0
4, 126300, Note_on_c, 2, 30, 100
4, 126360, Note_on_c, 2, 30, 0
4, 126360, Note_on_c, 2, 32, 100
4, 126420, Note_on_c, 2, 32, 0
4, 126420, Note_on_c, 2, 28, 100
4, 126480, Note_on_c, 2, 28, 0
4, 126480, Note_on_c, 2, 33, 100
4, 126780, Note_on_c, 2, 33, 0
4, 126780, Note_on_c, 2, 35, 100
4, 126840, Note_on_c, 2, 35, 0
4, 126840, Note_on_c, 2, 33, 100
4, 126900, Note_on_c, 2, 33, 0
4, 126900, Note_on_c, 2, 35, 100
4, 126960, Note_on_c, 2, 35, 0
4, 126960, Note_on_c, 2, 32, 100
4, 127200, Note_on_c, 2, 32, 0
4, 127200, Note_on_c, 2, 33, 100
4, 127440, Note_on_c, 2, 33, 0
4, 127500, Note_on_c, 2, 33, 100
4, 127560, Note_on_c, 2, 33, 0
4, 127560, Note_on_c, 2, 37, 100
4, 127620, Note_on_c, 2, 37, 0
4, 127620, Note_on_c, 2, 33, 100
4, 127680, Note_on_c, 2, 33, 0
4, 127680, Note_on_c, 2, 38, 100
4, 127800, Note_on_c, 2, 38, 0
4, 127800, Note_on_c, 2, 35, 100
4, 127920, Note_on_c, 2, 35, 0
4, 127920, Note_on_c, 2, 40, 100
4, 128040, Note_on_c, 2, 40, 0
4, 128040, Note_on_c, 2, 28, 100
4, 128160, Note_on_c, 2, 28, 0
4, 128160, Note_on_c, 2, 33, 100
4, 128400, Note_on_c, 2, 33, 0
4, 128520, Note_on_c, 2, 35, 100
4, 128640, Note_on_c, 2, 35, 0
4, 128640, Note_on_c, 2, 37, 100
4, 128760, Note_on_c, 2, 37, 0
4, 128760, Note_on_c, 2, 38, 100
4, 128880, Note_on_c, 2, 38, 0
4, 128880, Note_on_c, 2, 40, 100
4, 129000, Note_on_c, 2, 40, 0
4, 129000, Note_on_c, 2, 28, 100
4, 129120, Note_on_c, 2, 28, 0
4, 129120, Note_on_c, 2, 33, 100
4, 129360, Note_on_c, 2, 33, 0
4, 132600, Note_on_c, 2, 38, 100
4, 132660, Note_on_c, 2, 38, 0
4, 132660, Note_on_c, 2, 37, 100
4, 132720, Note_on_c, 2, 37, 0
4, 132720, Note_on_c, 2, 38, 100
4, 132780, Note_on_c, 2, 38, 0
4, 132780, Note_on_c, 2, 37, 100
4, 132840, Note_on_c, 2, 37, 0
4, 132840, Note_on_c, 2, 38, 100
4, 132900, Note_on_c, 2, 38, 0
4, 132900, Note_on_c, 2, 37, 100
4, 132960, Note_on_c, 2, 37, 0
4, 132960, Note_on_c, 2, 38, 100
4, 133080, Note_on_c, 2, 38, 0
4, 133080, Note_on_c, 2, 26, 100
4, 133200, Note_on_c, 2, 26, 0
4, 133320, Note_on_c, 2, 50, 100
4, 133416, Note_on_c, 2, 50, 0
4, 133440, Note_on_c, 2, 50, 100
4, 133680, Note_on_c, 2, 50, 0
4, 133800, Note_on_c, 2, 49, 100
4, 133896, Note_on_c, 2, 49, 0
4, 133920, Note_on_c, 2, 49, 100
4, 134160, Note_on_c, 2, 49, 0
4, 134280, Note_on_c, 2, 47, 100
4, 134376, Note_on_c, 2, 47, 0
4, 134400, Note_on_c, 2, 47, 100
4, 134640, Note_on_c, 2, 47, 0
4, 134760, Note_on_c, 2, 45, 100
4, 134856, Note_on_c, 2, 45, 0
4, 134880, Note_on_c, 2, 45, 100
4, 135120, Note_on_c, 2, 45, 0
4, 135240, Note_on_c, 2, 43, 100
4, 135336, Note_on_c, 2, 43, 0
4, 135360, Note_on_c, 2, 43, 100
4, 135600, Note_on_c, 2, 43, 0
4, 135600, Note_on_c, 2, 42, 100
4, 135720, Note_on_c, 2, 42, 0
4, 135720, Note_on_c, 2, 47, 100
4, 135780, Note_on_c, 2, 47, 0
4, 135780, Note_on_c, 2, 42, 100
4, 135840, Note_on_c, 2, 42, 0
4, 135840, Note_on_c, 2, 43, 100
4, 135960, Note_on_c, 2, 43, 0
4, 135960, Note_on_c, 2, 40, 100
4, 136080, Note_on_c, 2, 40, 0
4, 136080, Note_on_c, 2, 45, 100
4, 136200, Note_on_c, 2, 45, 0
4, 136200, Note_on_c, 2, 33, 100
4, 136320, Note_on_c, 2, 33, 0
4, 136320, Note_on_c, 2, 38, 100
4, 136560, Note_on_c, 2, 38, 0
4, 136680, Note_on_c, 2, 47, 100
4, 136800, Note_on_c, 2, 47, 0
4, 136800, Note_on_c, 2, 49, 100
4, 137040, Note_on_c, 2, 49, 0
4, 137160, Note_on_c, 2, 38, 100
4, 137280, Note_on_c, 2, 38, 0
4, 137280, Note_on_c, 2, 40, 100
4, 137520, Note_on_c, 2, 40, 0
4, 137520, Note_on_c, 2, 35, 100
4, 137640, Note_on_c, 2, 35, 0
4, 137640, Note_on_c, 2, 40, 100
4, 137760, Note_on_c, 2, 40, 0
4, 137760, Note_on_c, 2, 33, 100
4, 137880, Note_on_c, 2, 33, 0
4, 137880, Note_on_c, 2, 38, 100
4, 138000, Note_on_c, 2, 38, 0
4, 138000, Note_on_c, 2, 40, 100
4, 138120, Note_on_c, 2, 40, 0
4, 138120, Note_on_c, 2, 28, 100
4, 138240, Note_on_c, 2, 28, 0
4, 138240, Note_on_c, 2, 33, 100
4, 138480, Note_on_c, 2, 33, 0
4, 146880, Note_on_c, 2, 38, 100
4, 146940, Note_on_c, 2, 38, 0
4, 146940, Note_on_c, 2, 40, 100
4, 147000, Note_on_c, 2, 40, 0
4, 147000, Note_on_c, 2, 42, 100
4, 147060, Note_on_c, 2, 42, 0
4, 147060, Note_on_c, 2, 40, 100
4, 147120, Note_on_c, 2, 40, 0
4, 147120, Note_on_c, 2, 38, 100
4, 147180, Note_on_c, 2, 38, 0
4, 147180, Note_on_c, 2, 40, 100
4, 147240, Note_on_c, 2, 40, 0
4, 147240, Note_on_c, 2, 42, 100
4, 147300, Note_on_c, 2, 42, 0
4, 147300, Note_on_c, 2, 40, 100
4, 147360, Note_on_c, 2, 40, 0
4, 147360, Note_on_c, 2, 38, 100
4, 147420, Note_on_c, 2, 38, 0
4, 147420, Note_on_c, 2, 40, 100
4, 147480, Note_on_c, 2, 40, 0
4, 147480, Note_on_c, 2, 42, 100
4, 147540, Note_on_c, 2, 42, 0
4, 147540, Note_on_c, 2, 40, 100
4, 147600, Note_on_c, 2, 40, 0
4, 147600, Note_on_c, 2, 38, 100
4, 147660, Note_on_c, 2, 38, 0
4, 147660, Note_on_c, 2, 40, 100
4, 147720, Note_on_c, 2, 40, 0
4, 147720, Note_on_c, 2, 42, 100
4, 147780, Note_on_c, 2, 42, 0
4, 147780, Note_on_c, 2, 40, 100
4, 147840, Note_on_c, 2, 40, 0
4, 147840, Note_on_c, 2, 38, 100
4, 148080, Note_on_c, 2, 38, 0
4, 148560, Note_on_c, 2, 47, 100
4, 148620, Note_on_c, 2, 47, 0
4, 148620, Note_on_c, 2, 45, 100
4, 148680, Note_on_c, 2, 45, 0
4, 148680, Note_on_c, 2, 47, 100
4, 148740, Note_on_c, 2, 47, 0
4, 148740, Note_on_c, 2, 42, 100
4, 148800, Note_on_c, 2, 42, 0
4, 148800, Note_on_c, 2, 43, 100
4, 148860, Note_on_c, 2, 43, 0
4, 148860, Note_on_c, 2, 42, 100
4, 148920, Note_on_c, 2, 42, 0
4, 148920, Note_on_c, 2, 43, 100
4, 148980, Note_on_c, 2, 43, 0
4, 148980, Note_on_c, 2, 40, 100
4, 149040, Note_on_c, 2, 40, 0
4, 149040, Note_on_c, 2, 45, 100
4, 149100, Note_on_c, 2, 45, 0
4, 149100, Note_on_c, 2, 43, 100
4, 149160, Note_on_c, 2, 43, 0
4, 149160, Note_on_c, 2, 45, 100
4, 149220, Note_on_c, 2, 45, 0
4, 149220, Note_on_c, 2, 40, 100
4, 149280, Note_on_c, 2, 40, 0
4, 149280, Note_on_c, 2, 42, 100
4, 149340, Note_on_c, 2, 42, 0
4, 149340, Note_on_c, 2, 40, 100
4, 149400, Note_on_c, 2, 40, 0
4, 149400, Note_on_c, 2, 42, 100
4, 149460, Note_on_c, 2, 42, 0
4, 149460, Note_on_c, 2, 38, 100
4, 149520, Note_on_c, 2, 38, 0
4, 149520, Note_on_c, 2, 43, 100
4, 149580, Note_on_c, 2, 43, 0
4, 149580, Note_on_c, 2, 42, 100
4, 149640, Note_on_c, 2, 42, 0
4, 149640, Note_on_c, 2, 43, 100
4, 149700, Note_on_c, 2, 43, 0
4, 149700, Note_on_c, 2, 38, 100
4, 149760, Note_on_c, 2, 38, 0
4, 149760, Note_on_c, 2, 40, 100
4, 149820, Note_on_c, 2, 40, 0
4, 149820, Note_on_c, 2, 38, 100
4, 149880, Note_on_c, 2, 38, 0
4, 149880, Note_on_c, 2, 40, 100
4, 149940, Note_on_c, 2, 40, 0
4, 149940, Note_on_c, 2, 37, 100
4, 150000, Note_on_c, 2, 37, 0
4, 150000, Note_on_c, 2, 42, 100
4, 150060, Note_on_c, 2, 42, 0
4, 150060, Note_on_c, 2, 40, 100
4, 150120, Note_on_c, 2, 40, 0
4, 150120, Note_on_c, 2, 42, 100
4, 150180, Note_on_c, 2, 42, 0
4, 150180, Note_on_c, 2, 37, 100
4, 150240, Note_on_c, 2, 37, 0
4, 150240, Note_on_c, 2, 38, 100
4, 150300, Note_on_c, 2, 38, 0
4, 150300, Note_on_c, 2, 37, 100
4, 150360, Note_on_c, 2, 37, 0
4, 150360, Note_on_c, 2, 38, 100
4, 150420, Note_on_c, 2, 38, 0
4, 150420, Note_on_c, 2, 35, 100
4, 150480, Note_on_c, 2, 35, 0
4, 150480, Note_on_c, 2, 40, 100
4, 150540, Note_on_c, 2, 40, 0
4, 150540, Note_on_c, 2, 38, 100
4, 150600, Note_on_c, 2, 38, 0
4, 150600, Note_on_c, 2, 40, 100
4, 150660, Note_on_c, 2, 40, 0
4, 150660, Note_on_c, 2, 35, 100
4, 150720, Note_on_c, 2, 35, 0
4, 150720, Note_on_c, 2, 37, 100
4, 150780, Note_on_c, 2, 37, 0
4, 150780, Note_on_c, 2, 35, 100
4, 150840, Note_on_c, 2, 35, 0
4, 150840, Note_on_c, 2, 37, 100
4, 150900, Note_on_c, 2, 37, 0
4, 150900, Note_on_c, 2, 33, 100
4, 150960, Note_on_c, 2, 33, 0
4, 150960, Note_on_c, 2, 38, 100
4, 151260, Note_on_c, 2, 38, 0
4, 151260, Note_on_c, 2, 40, 100
4, 151320, Note_on_c, 2, 40, 0
4, 151320, Note_on_c, 2, 38, 100
4, 151380, Note_on_c, 2, 38, 0
4, 151380, Note_on_c, 2, 40, 100
4, 151440, Note_on_c, 2, 40, 0
4, 151440, Note_on_c, 2, 37, 100
4, 151680, Note_on_c, 2, 37, 0
4, 151680, Note_on_c, 2, 38, 100
4, 151920, Note_on_c, 2, 38, 0
4, 152040, Note_on_c, 2, 42, 100
4, 152160, Note_on_c, 2, 42, 0
4, 152160, Note_on_c, 2, 44, 100
4, 152400, Note_on_c, 2, 44, 0
4, 152520, Note_on_c, 2, 46, 100
4, 152640, Note_on_c, 2, 46, 0
4, 152640, Note_on_c, 2, 47, 100
4, 152880, Note_on_c, 2, 47, 0
4, 153000, Note_on_c, 2, 43, 100
4, 153120, Note_on_c, 2, 43, 0
4, 153120, Note_on_c, 2, 40, 100
4, 153360, Note_on_c, 2, 40, 0
4, 153480, Note_on_c, 2, 42, 100
4, 153600, Note_on_c, 2, 42, 0
4, 153600, Note_on_c, 2, 35, 100
4, 153660, Note_on_c, 2, 35, 0
4, 153660, Note_on_c, 2, 37, 100
4, 153720, Note_on_c, 2, 37, 0
4, 153720, Note_on_c, 2, 38, 100
4, 153780, Note_on_c, 2, 38, 0
4, 153780, Note_on_c, 2, 37, 100
4, 153840, Note_on_c, 2, 37, 0
4, 153840, Note_on_c, 2, 35, 100
4, 153900, Note_on_c, 2, 35, 0
4, 153900, Note_on_c, 2, 37, 100
4, 153960, Note_on_c, 2, 37, 0
4, 153960, Note_on_c, 2, 38, 100
4, 154020, Note_on_c, 2, 38, 0
4, 154020, Note_on_c, 2, 37, 100
4, 154080, Note_on_c, 2, 37, 0
4, 154080, Note_on_c, 2, 35, 100
4, 154140, Note_on_c, 2, 35, 0
4, 154140, Note_on_c, 2, 37, 100
4, 154200, Note_on_c, 2, 37, 0
4, 154200, Note_on_c, 2, 38, 100
4, 154260, Note_on_c, 2, 38, 0
4, 154260, Note_on_c, 2, 37, 100
4, 154320, Note_on_c, 2, 37, 0
4, 154320, Note_on_c, 2, 35, 100
4, 154380, Note_on_c, 2, 35, 0
4, 154380, Note_on_c, 2, 37, 100
4, 154440, Note_on_c, 2, 37, 0
4, 154440, Note_on_c, 2, 38, 100
4, 154500, Note_on_c, 2, 38, 0
4, 154500, Note_on_c, 2, 37, 100
4, 154560, Note_on_c, 2, 37, 0
4, 154560, Note_on_c, 2, 35, 100
4, 154800, Note_on_c, 2, 35, 0
4, 156240, Note_on_c, 2, 43, 100
4, 156300, Note_on_c, 2, 43, 0
4, 156300, Note_on_c, 2, 42, 100
4, 156360, Note_on_c, 2, 42, 0
4, 156360, Note_on_c, 2, 43, 100
4, 156420, Note_on_c, 2, 43, 0
4, 156420, Note_on_c, 2, 38, 100
4, 156480, Note_on_c, 2, 38, 0
4, 156480, Note_on_c, 2, 40, 100
4, 156540, Note_on_c, 2, 40, 0
4, 156540, Note_on_c, 2, 38, 100
4, 156600, Note_on_c, 2, 38, 0
4, 156600, Note_on_c, 2, 40, 100
4, 156660, Note_on_c, 2, 40, 0
4, 156660, Note_on_c, 2, 37, 100
4, 156720, Note_on_c, 2, 37, 0
4, 156720, Note_on_c, 2, 42, 100
4, 156780, Note_on_c, 2, 42, 0
4, 156780, Note_on_c, 2, 40, 100
4, 156840, Note_on_c, 2, 40, 0
4, 156840, Note_on_c, 2, 42, 100
4, 156900, Note_on_c, 2, 42, 0
4, 156900, Note_on_c, 2, 37, 100
4, 156960, Note_on_c, 2, 37, 0
4, 156960, Note_on_c, 2, 38, 100
4, 157020, Note_on_c, 2, 38, 0
4, 157020, Note_on_c, 2, 37, 100
4, 157080, Note_on_c, 2, 37, 0
4, 157080, Note_on_c, 2, 38, 100
4, 157140, Note_on_c, 2, 38, 0
4, 157140, Note_on_c, 2, 35, 100
4, 157200, Note_on_c, 2, 35, 0
4, 157200, Note_on_c, 2, 40, 100
4, 157260, Note_on_c, 2, 40, 0
4, 157260, Note_on_c, 2, 38, 100
4, 157320, Note_on_c, 2, 38, 0
4, 157320, Note_on_c, 2, 40, 100
4, 157380, Note_on_c, 2, 40, 0
4, 157380, Note_on_c, 2, 35, 100
4, 157440, Note_on_c, 2, 35, 0
4, 157440, Note_on_c, 2, 37, 100
4, 157500, Note_on_c, 2, 37, 0
4, 157500, Note_on_c, 2, 35, 100
4, 157560, Note_on_c, 2, 35, 0
4, 157560, Note_on_c, 2, 37, 100
4, 157620, Note_on_c, 2, 37, 0
4, 157620, Note_on_c, 2, 33, 100
4, 157680, Note_on_c, 2, 33, 0
4, 157680, Note_on_c, 2, 38, 100
4, 157740, Note_on_c, 2, 38, 0
4, 157740, Note_on_c, 2, 37, 100
4, 157800, Note_on_c, 2, 37, 0
4, 157800, Note_on_c, 2, 38, 100
4, 157860, Note_on_c, 2, 38, 0
4, 157860, Note_on_c, 2, 33, 100
4, 157920, Note_on_c, 2, 33, 0
4, 157920, Note_on_c, 2, 35, 100
4, 157980, Note_on_c, 2, 35, 0
4, 157980, Note_on_c, 2, 33, 100
4, 158040, Note_on_c, 2, 33, 0
4, 158040, Note_on_c, 2, 35, 100
4, 158100, Note_on_c, 2, 35, 0
4, 158100, Note_on_c, 2, 32, 100
4, 158160, Note_on_c, 2, 32, 0
4, 158160, Note_on_c, 2, 37, 100
4, 158220, Note_on_c, 2, 37, 0
4, 158220, Note_on_c, 2, 35, 100
4, 158280, Note_on_c, 2, 35, 0
4, 158280, Note_on_c, 2, 37, 100
4, 158340, Note_on_c, 2, 37, 0
4, 158340, Note_on_c, 2, 32, 100
4, 158400, Note_on_c, 2, 32, 0
4, 158400, Note_on_c, 2, 34, 100
4, 158460, Note_on_c, 2, 34, 0
4, 158460, Note_on_c, 2, 32, 100
4, 158520, Note_on_c, 2, 32, 0
4, 158520, Note_on_c, 2, 34, 100
4, 158580, Note_on_c, 2, 34, 0
4, 158580, Note_on_c, 2, 30, 100
4, 158640, Note_on_c, 2, 30, 0
4, 158640, Note_on_c, 2, 35, 100
4, 158760, Note_on_c, 2, 35, 0
4, 158760, Note_on_c, 2, 35, 100
4, 158880, Note_on_c, 2, 35, 0
4, 158880, Note_on_c, 2, 35, 100
4, 159120, Note_on_c, 2, 35, 0
4, 159240, Note_on_c, 2, 34, 100
4, 159360, Note_on_c, 2, 34, 0
4, 159360, Note_on_c, 2, 35, 100
4, 159600, Note_on_c, 2, 35, 0
4, 165720, Note_on_c, 2, 42, 100
4, 165780, Note_on_c, 2, 42, 0
4, 165780, Note_on_c, 2, 41, 100
4, 165840, Note_on_c, 2, 41, 0
4, 165840, Note_on_c, 2, 42, 100
4, 165900, Note_on_c, 2, 42, 0
4, 165900, Note_on_c, 2, 41, 100
4, 165960, Note_on_c, 2, 41, 0
4, 165960, Note_on_c, 2, 42, 100
4, 166020, Note_on_c, 2, 42, 0
4, 166020, Note_on_c, 2, 41, 100
4, 166080, Note_on_c, 2, 41, 0
4, 166080, Note_on_c, 2, 42, 100
4, 166176, Note_on_c, 2, 42, 0
4, 166200, Note_on_c, 2, 30, 100
4, 166320, Note_on_c, 2, 30, 0
4, 166440, Note_on_c, 2, 42, 100
4, 166536, Note_on_c, 2, 42, 0
4, 166560, Note_on_c, 2, 42, 100
4, 166800, Note_on_c, 2, 42, 0
4, 166920, Note_on_c, 2, 40, 100
4, 167016, Note_on_c, 2, 40, 0
4, 167040, Note_on_c, 2, 40, 100
4, 167280, Note_on_c, 2, 40, 0
4, 167400, Note_on_c, 2, 38, 100
4, 167496, Note_on_c, 2, 38, 0
4, 167520, Note_on_c, 2, 38, 100
4, 167760, Note_on_c, 2, 38, 0
4, 167880, Note_on_c, 2, 37, 100
4, 167976, Note_on_c, 2, 37, 0
4, 168000, Note_on_c, 2, 37, 100
4, 168240, Note_on_c, 2, 37, 0
4, 168360, Note_on_c, 2, 35, 100
4, 168480, Note_on_c, 2, 35, 0
4, 168480, Note_on_c, 2, 35, 100
4, 168720, Note_on_c, 2, 35, 0
4, 168720, Note_on_c, 2, 33, 100
4, 168960, Note_on_c, 2, 33, 0
4, 168960, Note_on_c, 2, 35, 100
4, 169200, Note_on_c, 2, 35, 0
4, 169200, Note_on_c, 2, 37, 100
4, 169440, Note_on_c, 2, 37, 0
4, 169440, Note_on_c, 2, 30, 100
4, 169680, Note_on_c, 2, 30, 0
4, 170040, Note_on_c, 2, 42, 100
4, 170100, Note_on_c, 2, 42, 0
4, 170100, Note_on_c, 2, 41, 100
4, 170160, Note_on_c, 2, 41, 0
4, 170160, Note_on_c, 2, 42, 100
4, 170220, Note_on_c, 2, 42, 0
4, 170220, Note_on_c, 2, 41, 100
4, 170280, Note_on_c, 2, 41, 0
4, 170280, Note_on_c, 2, 42, 100
4, 170340, Note_on_c, 2, 42, 0
4, 170340, Note_on_c, 2, 41, 100
4, 170400, Note_on_c, 2, 41, 0
4, 170400, Note_on_c, 2, 42, 100
4, 170640, Note_on_c, 2, 42, 0
4, 171000, Note_on_c, 2, 30, 100
4, 171060, Note_on_c, 2, 30, 0
4, 171060, Note_on_c, 2, 29, 100
4, 171120, Note_on_c, 2, 29, 0
4, 171120, Note_on_c, 2, 30, 100
4, 171180, Note_on_c, 2, 30, 0
4, 171180, Note_on_c, 2, 29, 100
4, 171240, Note_on_c, 2, 29, 0
4, 171240, Note_on_c, 2, 30, 100
4, 171300, Note_on_c, 2, 30, 0
4, 171300, Note_on_c, 2, 29, 100
4, 171360, Note_on_c, 2, 29, 0
4, 171360, Note_on_c, 2, 30, 100
4, 171600, Note_on_c, 2, 30, 0
4, 172080, Note_on_c, 2, 50, 100
4, 172140, Note_on_c, 2, 50, 0
4, 172140, Note_on_c, 2, 49, 100
4, 172200, Note_on_c, 2, 49, 0
4, 172200, Note_on_c, 2, 50, 100
4, 172260, Note_on_c, 2, 50, 0
4, 172260, Note_on_c, 2, 45, 100
4, 172320, Note_on_c, 2, 45, 0
4, 172320, Note_on_c, 2, 47, 100
4, 172380, Note_on_c, 2, 47, 0
4, 172380, Note_on_c, 2, 45, 100
4, 172440, Note_on_c, 2, 45, 0
4, 172440, Note_on_c, 2, 47, 100
4, 172500, Note_on_c, 2, 47, 0
4, 172500, Note_on_c, 2, 44, 100
4, 172560, Note_on_c, 2, 44, 0
4, 172560, Note_on_c, 2, 49, 100
4, 172620, Note_on_c, 2, 49, 0
4, 172620, Note_on_c, 2, 47, 100
4, 172680, Note_on_c, 2, 47, 0
4, 172680, Note_on_c, 2, 49, 100
4, 172740, Note_on_c, 2, 49, 0
4, 172740, Note_on_c, 2, 44, 100
4, 172800, Note_on_c, 2, 44, 0
4, 172800, Note_on_c, 2, 45, 100
4, 172860, Note_on_c, 2, 45, 0
4, 172860, Note_on_c, 2, 44, 100
4, 172920, Note_on_c, 2, 44, 0
4, 172920, Note_on_c, 2, 45, 100
4, 172980, Note_on_c, 2, 45, 0
4, 172980, Note_on_c, 2, 42, 100
4, 173040, Note_on_c, 2, 42, 0
4, 173040, Note_on_c, 2, 47, 100
4, 173100, Note_on_c, 2, 47, 0
4, 173100, Note_on_c, 2, 45, 100
4, 173160, Note_on_c, 2, 45, 0
4, 173160, Note_on_c, 2, 47, 100
4, 173220, Note_on_c, 2, 47, 0
4, 173220, Note_on_c, 2, 42, 100
4, 173280, Note_on_c, 2, 42, 0
4, 173280, Note_on_c, 2, 44, 100
4, 173340, Note_on_c, 2, 44, 0
4, 173340, Note_on_c, 2, 42, 100
4, 173400, Note_on_c, 2, 42, 0
4, 173400, Note_on_c, 2, 44, 100
4, 173460, Note_on_c, 2, 44, 0
4, 173460, Note_on_c, 2, 40, 100
4, 173520, Note_on_c, 2, 40, 0
4, 173520, Note_on_c, 2, 45, 100
4, 173580, Note_on_c, 2, 45, 0
4, 173580, Note_on_c, 2, 44, 100
4, 173640, Note_on_c, 2, 44, 0
4, 173640, Note_on_c, 2, 45, 100
4, 173700, Note_on_c, 2, 45, 0
4, 173700, Note_on_c, 2, 40, 100
4, 173760, Note_on_c, 2, 40, 0
4, 173760, Note_on_c, 2, 42, 100
4, 173820, Note_on_c, 2, 42, 0
4, 173820, Note_on_c, 2, 40, 100
4, 173880, Note_on_c, 2, 40, 0
4, 173880, Note_on_c, 2, 42, 100
4, 173940, Note_on_c, 2, 42, 0
4, 173940, Note_on_c, 2, 39, 100
4, 174000, Note_on_c, 2, 39, 0
4, 174000, Note_on_c, 2, 44, 100
4, 174060, Note_on_c, 2, 44, 0
4, 174060, Note_on_c, 2, 42, 100
4, 174120, Note_on_c, 2, 42, 0
4, 174120, Note_on_c, 2, 44, 100
4, 174180, Note_on_c, 2, 44, 0
4, 174180, Note_on_c, 2, 39, 100
4, 174240, Note_on_c, 2, 39, 0
4, 174240, Note_on_c, 2, 41, 100
4, 174300, Note_on_c, 2, 41, 0
4, 174300, Note_on_c, 2, 39, 100
4, 174360, Note_on_c, 2, 39, 0
4, 174360, Note_on_c, 2, 41, 100
4, 174420, Note_on_c, 2, 41, 0
4, 174420, Note_on_c, 2, 37, 100
4, 174480, Note_on_c, 2, 37, 0
4, 174480, Note_on_c, 2, 42, 100
4, 174720, Note_on_c, 2, 42, 0
4, 174720, Note_on_c, 2, 42, 100
4, 174780, Note_on_c, 2, 42, 0
4, 174780, Note_on_c, 2, 44, 100
4, 174840, Note_on_c, 2, 44, 0
4, 174840, Note_on_c, 2, 42, 100
4, 174900, Note_on_c, 2, 42, 0
4, 174900, Note_on_c, 2, 44, 100
4, 174960, Note_on_c, 2, 44, 0
4, 174960, Note_on_c, 2, 41, 100
4, 175200, Note_on_c, 2, 41, 0
4, 175200, Note_on_c, 2, 42, 100
4, 175440, Note_on_c, 2, 42, 0
4, 175440, Note_on_c, 2, 39, 100
4, 175680, Note_on_c, 2, 39, 0
4, 175680, Note_on_c, 2, 41, 100
4, 175800, Note_on_c, 2, 41, 0
4, 175800, Note_on_c, 2, 42, 100
4, 175920, Note_on_c, 2, 42, 0
4, 175920, Note_on_c, 2, 35, 100
4, 176040, Note_on_c, 2, 35, 0
4, 176040, Note_on_c, 2, 37, 100
4, 176160, Note_on_c, 2, 37, 0
4, 176160, Note_on_c, 2, 30, 100
4, 176400, Note_on_c, 2, 30, 0
4, 177120, Note_on_c, 2, 42, 100
4, 177180, Note_on_c, 2, 42, 0
4, 177180, Note_on_c, 2, 44, 100
4, 177240, Note_on_c, 2, 44, 0
4, 177240, Note_on_c, 2, 45, 100
4, 177300, Note_on_c, 2, 45, 0
4, 177300, Note_on_c, 2, 44, 100
4, 177360, Note_on_c, 2, 44, 0
4, 177360, Note_on_c, 2, 42, 100
4, 177420, Note_on_c, 2, 42, 0
4, 177420, Note_on_c, 2, 44, 100
4, 177480, Note_on_c, 2, 44, 0
4, 177480, Note_on_c, 2, 45, 100
4, 177540, Note_on_c, 2, 45, 0
4, 177540, Note_on_c, 2, 44, 100
4, 177600, Note_on_c, 2, 44, 0
4, 177600, Note_on_c, 2, 42, 100
4, 177660, Note_on_c, 2, 42, 0
4, 177660, Note_on_c, 2, 44, 100
4, 177720, Note_on_c, 2, 44, 0
4, 177720, Note_on_c, 2, 45, 100
4, 177780, Note_on_c, 2, 45, 0
4, 177780, Note_on_c, 2, 44, 100
4, 177840, Note_on_c, 2, 44, 0
4, 177840, Note_on_c, 2, 42, 100
4, 177900, Note_on_c, 2, 42, 0
4, 177900, Note_on_c, 2, 44, 100
4, 177960, Note_on_c, 2, 44, 0
4, 177960, Note_on_c, 2, 45, 100
4, 178020, Note_on_c, 2, 45, 0
4, 178020, Note_on_c, 2, 44, 100
4, 178080, Note_on_c, 2, 44, 0
4, 178080, Note_on_c, 2, 42, 100
4, 178200, Note_on_c, 2, 42, 0
4, 178560, Note_on_c, 2, 44, 100
4, 178680, Note_on_c, 2, 44, 0
4, 179040, Note_on_c, 2, 37, 100
4, 179160, Note_on_c, 2, 37, 0
4, 179520, Note_on_c, 2, 37, 100
4, 179580, Note_on_c, 2, 37, 0
4, 179580, Note_on_c, 2, 39, 100
4, 179640, Note_on_c, 2, 39, 0
4, 179640, Note_on_c, 2, 40, 100
4, 179700, Note_on_c, 2, 40, 0
4, 179700, Note_on_c, 2, 39, 100
4, 179760, Note_on_c, 2, 39, 0
4, 179760, Note_on_c, 2, 37, 100
4, 179820, Note_on_c, 2, 37, 0
4, 179820, Note_on_c, 2, 39, 100
4, 179880, Note_on_c, 2, 39, 0
4, 179880, Note_on_c, 2, 40, 100
4, 179940, Note_on_c, 2, 40, 0
4, 179940, Note_on_c, 2, 39, 100
4, 180000, Note_on_c, 2, 39, 0
4, 180000, Note_on_c, 2, 37, 100
4, 180060, Note_on_c, 2, 37, 0
4, 180060, Note_on_c, 2, 39, 100
4, 180120, Note_on_c, 2, 39, 0
4, 180120, Note_on_c, 2, 40, 100
4, 180180, Note_on_c, 2, 40, 0
4, 180180, Note_on_c, 2, 39, 100
4, 180240, Note_on_c, 2, 39, 0
4, 180240, Note_on_c, 2, 37, 100
4, 180300, Note_on_c, 2, 37, 0
4, 180300, Note_on_c, 2, 39, 100
4, 180360, Note_on_c, 2, 39, 0
4, 180360, Note_on_c, 2, 40, 100
4, 180420, Note_on_c, 2, 40, 0
4, 180420, Note_on_c, 2, 39, 100
4, 180480, Note_on_c, 2, 39, 0
4, 180480, Note_on_c, 2, 37, 100
4, 180600, Note_on_c, 2, 37, 0
4, 181200, Note_on_c, 2, 45, 100
4, 181260, Note_on_c, 2, 45, 0
4, 181260, Note_on_c, 2, 44, 100
4, 181320, Note_on_c, 2, 44, 0
4, 181320, Note_on_c, 2, 45, 100
4, 181380, Note_on_c, 2, 45, 0
4, 181380, Note_on_c, 2, 40, 100
4, 181440, Note_on_c, 2, 40, 0
4, 181440, Note_on_c, 2, 42, 100
4, 181500, Note_on_c, 2, 42, 0
4, 181500, Note_on_c, 2, 40, 100
4, 181560, Note_on_c, 2, 40, 0
4, 181560, Note_on_c, 2, 42, 100
4, 181620, Note_on_c, 2, 42, 0
4, 181620, Note_on_c, 2, 39, 100
4, 181680, Note_on_c, 2, 39, 0
4, 181680, Note_on_c, 2, 44, 100
4, 181740, Note_on_c, 2, 44, 0
4, 181740, Note_on_c, 2, 42, 100
4, 181800, Note_on_c, 2, 42, 0
4, 181800, Note_on_c, 2, 44, 100
4, 181860, Note_on_c, 2, 44, 0
4, 181860, Note_on_c, 2, 39, 100
4, 181920, Note_on_c, 2, 39, 0
4, 181920, Note_on_c, 2, 40, 100
4, 182040, Note_on_c, 2, 40, 0
4, 182040, Note_on_c, 2, 37, 100
4, 182160, Note_on_c, 2, 37, 0
4, 182280, Note_on_c, 2, 49, 100
4, 182400, Note_on_c, 2, 49, 0
4, 182400, Note_on_c, 2, 49, 100
4, 182640, Note_on_c, 2, 49, 0
4, 182760, Note_on_c, 2, 48, 100
4, 182880, Note_on_c, 2, 48, 0
4, 182880, Note_on_c, 2, 49, 100
4, 183120, Note_on_c, 2, 49, 0
4, 183240, Note_on_c, 2, 42, 100
4, 183360, Note_on_c, 2, 42, 0
4, 183360, Note_on_c, 2, 44, 100
4, 183480, Note_on_c, 2, 44, 0
4, 183480, Note_on_c, 2, 37, 100
4, 183600, Note_on_c, 2, 37, 0
4, 183600, Note_on_c, 2, 44, 100
4, 183720, Note_on_c, 2, 44, 0
4, 183720, Note_on_c, 2, 32, 100
4, 183840, Note_on_c, 2, 32, 0
4, 183840, Note_on_c, 2, 37, 100
4, 184080, Note_on_c, 2, 37, 0
4, 191160, Note_on_c, 2, 40, 100
4, 191220, Note_on_c, 2, 40, 0
4, 191220, Note_on_c, 2, 39, 100
4, 191280, Note_on_c, 2, 39, 0
4, 191280, Note_on_c, 2, 40, 100
4, 191340, Note_on_c, 2, 40, 0
4, 191340, Note_on_c, 2, 39, 100
4, 191400, Note_on_c, 2, 39, 0
4, 191400, Note_on_c, 2, 40, 100
4, 191460, Note_on_c, 2, 40, 0
4, 191460, Note_on_c, 2, 39, 100
4, 191520, Note_on_c, 2, 39, 0
4, 191520, Note_on_c, 2, 40, 100
4, 191616, Note_on_c, 2, 40, 0
4, 191640, Note_on_c, 2, 28, 100
4, 191736, Note_on_c, 2, 28, 0
4, 191880, Note_on_c, 2, 40, 100
4, 191976, Note_on_c, 2, 40, 0
4, 192000, Note_on_c, 2, 40, 100
4, 192240, Note_on_c, 2, 40, 0
4, 192360, Note_on_c, 2, 39, 100
4, 192456, Note_on_c, 2, 39, 0
4, 192480, Note_on_c, 2, 40, 100
4, 192720, Note_on_c, 2, 40, 0
4, 195360, Note_on_c, 2, 33, 100
4, 195600, Note_on_c, 2, 33, 0
4, 195720, Note_on_c, 2, 35, 100
4, 195840, Note_on_c, 2, 35, 0
4, 195840, Note_on_c, 2, 37, 100
4, 195960, Note_on_c, 2, 37, 0
4, 195960, Note_on_c, 2, 38, 100
4, 196080, Note_on_c, 2, 38, 0
4, 196080, Note_on_c, 2, 40, 100
4, 196200, Note_on_c, 2, 40, 0
4, 196200, Note_on_c, 2, 28, 100
4, 196320, Note_on_c, 2, 28, 0
4, 196320, Note_on_c, 2, 33, 100
4, 196560, Note_on_c, 2, 33, 0
4, 201600, Note_on_c, 2, 45, 127
4, 201660, Note_on_c, 2, 45, 0
4, 201660, Note_on_c, 2, 47, 127
4, 201720, Note_on_c, 2, 47, 0
4, 201720, Note_on_c, 2, 49, 127
4, 201780, Note_on_c, 2, 49, 0
4, 201780, Note_on_c, 2, 47, 127
4, 201840, Note_on_c, 2, 47, 0
4, 201840, Note_on_c, 2, 45, 127
4, 201900, Note_on_c, 2, 45, 0
4, 201900, Note_on_c, 2, 47, 127
4, 201960, Note_on_c, 2, 47, 0
4, 201960, Note_on_c, 2, 49, 127
4, 202020, Note_on_c, 2, 49, 0
4, 202020, Note_on_c, 2, 47, 127
4, 202080, Note_on_c, 2, 47, 0
4, 202080, Note_on_c, 2, 45, 127
4, 202140, Note_on_c, 2, 45, 0
4, 202140, Note_on_c, 2, 47, 127
4, 202200, Note_on_c, 2, 47, 0
4, 202200, Note_on_c, 2, 49, 127
4, 202260, Note_on_c, 2, 49, 0
4, 202260, Note_on_c, 2, 47, 127
4, 202320, Note_on_c, 2, 47, 0
4, 202320, Note_on_c, 2, 45, 127
4, 202380, Note_on_c, 2, 45, 0
4, 202380, Note_on_c, 2, 47, 127
4, 202440, Note_on_c, 2, 47, 0
4, 202440, Note_on_c, 2, 49, 127
4, 202500, Note_on_c, 2, 49, 0
4, 202500, Note_on_c, 2, 47, 127
4, 202560, Note_on_c, 2, 47, 0
4, 202560, Note_on_c, 2, 45, 127
4, 202800, Note_on_c, 2, 45, 0
4, 203520, Note_on_c, 2, 33, 127
4, 203580, Note_on_c, 2, 33, 0
4, 203580, Note_on_c, 2, 35, 127
4, 203640, Note_on_c, 2, 35, 0
4, 203640, Note_on_c, 2, 37, 127
4, 203700, Note_on_c, 2, 37, 0
4, 203700, Note_on_c, 2, 35, 127
4, 203760, Note_on_c, 2, 35, 0
4, 203760, Note_on_c, 2, 33, 127
4, 203820, Note_on_c, 2, 33, 0
4, 203820, Note_on_c, 2, 35, 127
4, 203880, Note_on_c, 2, 35, 0
4, 203880, Note_on_c, 2, 37, 127
4, 203940, Note_on_c, 2, 37, 0
4, 203940, Note_on_c, 2, 35, 127
4, 204000, Note_on_c, 2, 35, 0
4, 204000, Note_on_c, 2, 33, 127
4, 204060, Note_on_c, 2, 33, 0
4, 204060, Note_on_c, 2, 35, 127
4, 204120, Note_on_c, 2, 35, 0
4, 204120, Note_on_c, 2, 37, 127
4, 204180, Note_on_c, 2, 37, 0
4, 204180, Note_on_c, 2, 35, 127
4, 204240, Note_on_c, 2, 35, 0
4, 204240, Note_on_c, 2, 33, 127
4, 204300, Note_on_c, 2, 33, 0
4, 204300, Note_on_c, 2, 35, 127
4, 204360, Note_on_c, 2, 35, 0
4, 204360, Note_on_c, 2, 37, 127
4, 204420, Note_on_c, 2, 37, 0
4, 204420, Note_on_c, 2, 35, 127
4, 204480, Note_on_c, 2, 35, 0
4, 204480, Note_on_c, 2, 33, 127
4, 204720, Note_on_c, 2, 33, 0
4, 205560, Note_on_c, 2, 45, 127
4, 205680, Note_on_c, 2, 45, 0
4, 205680, Note_on_c, 2, 42, 127
4, 205920, Note_on_c, 2, 42, 0
4, 206040, Note_on_c, 2, 47, 127
4, 206160, Note_on_c, 2, 47, 0
4, 206160, Note_on_c, 2, 43, 127
4, 206400, Note_on_c, 2, 43, 0
4, 206520, Note_on_c, 2, 45, 127
4, 206640, Note_on_c, 2, 45, 0
4, 206640, Note_on_c, 2, 42, 127
4, 206880, Note_on_c, 2, 42, 0
4, 207000, Note_on_c, 2, 47, 127
4, 207120, Note_on_c, 2, 47, 0
4, 207120, Note_on_c, 2, 43, 127
4, 207360, Note_on_c, 2, 43, 0
4, 207480, Note_on_c, 2, 45, 127
4, 207600, Note_on_c, 2, 45, 0
4, 207600, Note_on_c, 2, 42, 127
4, 207840, Note_on_c, 2, 42, 0
4, 207960, Note_on_c, 2, 47, 127
4, 208080, Note_on_c, 2, 47, 0
4, 208080, Note_on_c, 2, 43, 127
4, 208320, Note_on_c, 2, 43, 0
4, 208440, Note_on_c, 2, 45, 127
4, 208560, Note_on_c, 2, 45, 0
4, 208560, Note_on_c, 2, 42, 127
4, 208800, Note_on_c, 2, 42, 0
4, 208920, Note_on_c, 2, 47, 127
4, 209040, Note_on_c, 2, 47, 0
4, 209040, Note_on_c, 2, 43, 127
4, 209280, Note_on_c, 2, 43, 0
4, 209400, Note_on_c, 2, 45, 127
4, 209520, Note_on_c, 2, 45, 0
4, 209520, Note_on_c, 2, 38, 127
4, 209760, Note_on_c, 2, 38, 0
4, 209820, Note_on_c, 2, 44, 127
4, 209880, Note_on_c, 2, 44, 0
4, 209880, Note_on_c, 2, 45, 127
4, 209940, Note_on_c, 2, 45, 0
4, 209940, Note_on_c, 2, 44, 127
4, 210000, Note_on_c, 2, 44, 0
4, 210000, Note_on_c, 2, 45, 127
4, 210240, Note_on_c, 2, 45, 0
4, 210300, Note_on_c, 2, 44, 127
4, 210360, Note_on_c, 2, 44, 0
4, 210360, Note_on_c, 2, 45, 127
4, 210420, Note_on_c, 2, 45, 0
4, 210420, Note_on_c, 2, 44, 127
4, 210480, Note_on_c, 2, 44, 0
4, 210480, Note_on_c, 2, 45, 127
4, 210720, Note_on_c, 2, 45, 0
4, 210780, Note_on_c, 2, 44, 127
4, 210840, Note_on_c, 2, 44, 0
4, 210840, Note_on_c, 2, 45, 127
4, 210900, Note_on_c, 2, 45, 0
4, 210900, Note_on_c, 2, 44, 127
4, 210960, Note_on_c, 2, 44, 0
4, 210960, Note_on_c, 2, 45, 127
4, 211200, Note_on_c, 2, 45, 0
4, 211260, Note_on_c, 2, 44, 127
4, 211320, Note_on_c, 2, 44, 0
4, 211320, Note_on_c, 2, 45, 127
4, 211380, Note_on_c, 2, 45, 0
4, 211380, Note_on_c, 2, 44, 127
4, 211440, Note_on_c, 2, 44, 0
4, 211440, Note_on_c, 2, 45, 127
4, 211680, Note_on_c, 2, 45, 0
4, 211740, Note_on_c, 2, 44, 127
4, 211800, Note_on_c, 2, 44, 0
4, 211800, Note_on_c, 2, 45, 127
4, 211860, Note_on_c, 2, 45, 0
4, 211860, Note_on_c, 2, 44, 127
4, 211920, Note_on_c, 2, 44, 0
4, 211920, Note_on_c, 2, 45, 127
4, 212160, Note_on_c, 2, 45, 0
4, 212220, Note_on_c, 2, 44, 127
4, 212280, Note_on_c, 2, 44, 0
4, 212280, Note_on_c, 2, 45, 127
4, 212340, Note_on_c, 2, 45, 0
4, 212340, Note_on_c, 2, 44, 127
4, 212400, Note_on_c, 2, 44, 0
4, 212400, Note_on_c, 2, 45, 127
4, 212640, Note_on_c, 2, 45, 0
4, 212760, Note_on_c, 2, 45, 127
4, 212880, Note_on_c, 2, 45, 0
4, 212880, Note_on_c, 2, 33, 127
4, 213120, Note_on_c, 2, 33, 0
4, 213240, Note_on_c, 2, 43, 127
4, 213360, Note_on_c, 2, 43, 0
4, 213360, Note_on_c, 2, 31, 127
4, 213600, Note_on_c, 2, 31, 0
4, 213720, Note_on_c, 2, 42, 127
4, 213840, Note_on_c, 2, 42, 0
4, 213840, Note_on_c, 2, 30, 127
4, 214080, Note_on_c, 2, 30, 0
4, 214200, Note_on_c, 2, 40, 127
4, 214320, Note_on_c, 2, 40, 0
4, 214320, Note_on_c, 2, 28, 127
4, 214560, Note_on_c, 2, 28, 0
4, 214680, Note_on_c, 2, 38, 127
4, 214800, Note_on_c, 2, 38, 0
4, 214800, Note_on_c, 2, 26, 127
4, 215040, Note_on_c, 2, 26, 0
4, 216960, Note_on_c, 2, 38, 127
4, 217020, Note_on_c, 2, 38, 0
4, 217020, Note_on_c, 2, 40, 127
4, 217080, Note_on_c, 2, 40, 0
4, 217080, Note_on_c, 2, 42, 127
4, 217140, Note_on_c, 2, 42, 0
4, 217140, Note_on_c, 2, 40, 127
4, 217200, Note_on_c, 2, 40, 0
4, 217200, Note_on_c, 2, 38, 127
4, 217260, Note_on_c, 2, 38, 0
4, 217260, Note_on_c, 2, 40, 127
4, 217320, Note_on_c, 2, 40, 0
4, 217320, Note_on_c, 2, 42, 127
4, 217380, Note_on_c, 2, 42, 0
4, 217380, Note_on_c, 2, 40, 127
4, 217440, Note_on_c, 2, 40, 0
4, 217440, Note_on_c, 2, 38, 127
4, 217500, Note_on_c, 2, 38, 0
4, 217500, Note_on_c, 2, 40, 127
4, 217560, Note_on_c, 2, 40, 0
4, 217560, Note_on_c, 2, 42, 127
4, 217620, Note_on_c, 2, 42, 0
4, 217620, Note_on_c, 2, 40, 127
4, 217680, Note_on_c, 2, 40, 0
4, 217680, Note_on_c, 2, 38, 127
4, 217740, Note_on_c, 2, 38, 0
4, 217740, Note_on_c, 2, 40, 127
4, 217800, Note_on_c, 2, 40, 0
4, 217800, Note_on_c, 2, 42, 127
4, 217860, Note_on_c, 2, 42, 0
4, 217860, Note_on_c, 2, 40, 127
4, 217920, Note_on_c, 2, 40, 0
4, 217920, Note_on_c, 2, 38, 127
4, 218040, Note_on_c, 2, 38, 0
4, 218640, Note_on_c, 2, 47, 127
4, 218700, Note_on_c, 2, 47, 0
4, 218700, Note_on_c, 2, 45, 127
4, 218760, Note_on_c, 2, 45, 0
4, 218760, Note_on_c, 2, 47, 127
4, 218820, Note_on_c, 2, 47, 0
4, 218820, Note_on_c, 2, 42, 127
4, 218880, Note_on_c, 2, 42, 0
4, 218880, Note_on_c, 2, 43, 127
4, 218940, Note_on_c, 2, 43, 0
4, 218940, Note_on_c, 2, 42, 127
4, 219000, Note_on_c, 2, 42, 0
4, 219000, Note_on_c, 2, 43, 127
4, 219060, Note_on_c, 2, 43, 0
4, 219060, Note_on_c, 2, 40, 127
4, 219120, Note_on_c, 2, 40, 0
4, 219120, Note_on_c, 2, 45, 127
4, 219180, Note_on_c, 2, 45, 0
4, 219180, Note_on_c, 2, 43, 127
4, 219240, Note_on_c, 2, 43, 0
4, 219240, Note_on_c, 2, 45, 127
4, 219300, Note_on_c, 2, 45, 0
4, 219300, Note_on_c, 2, 40, 127
4, 219360, Note_on_c, 2, 40, 0
4, 219360, Note_on_c, 2, 42, 127
4, 219420, Note_on_c, 2, 42, 0
4, 219420, Note_on_c, 2, 40, 127
4, 219480, Note_on_c, 2, 40, 0
4, 219480, Note_on_c, 2, 42, 127
4, 219540, Note_on_c, 2, 42, 0
4, 219540, Note_on_c, 2, 38, 127
4, 219600, Note_on_c, 2, 38, 0
4, 219600, Note_on_c, 2, 43, 127
4, 219660, Note_on_c, 2, 43, 0
4, 219660, Note_on_c, 2, 42, 127
4, 219720, Note_on_c, 2, 42, 0
4, 219720, Note_on_c, 2, 43, 127
4, 219780, Note_on_c, 2, 43, 0
4, 219780, Note_on_c, 2, 38, 127
4, 219840, Note_on_c, 2, 38, 0
4, 219840, Note_on_c, 2, 40, 127
4, 219900, Note_on_c, 2, 40, 0
4, 219900, Note_on_c, 2, 38, 127
4, 219960, Note_on_c, 2, 38, 0
4, 219960, Note_on_c, 2, 40, 127
4, 220020, Note_on_c, 2, 40, 0
4, 220020, Note_on_c, 2, 37, 127
4, 220080, Note_on_c, 2, 37, 0
4, 220080, Note_on_c, 2, 42, 127
4, 220140, Note_on_c, 2, 42, 0
4, 220140, Note_on_c, 2, 40, 127
4, 220200, Note_on_c, 2, 40, 0
4, 220200, Note_on_c, 2, 42, 127
4, 220260, Note_on_c, 2, 42, 0
4, 220260, Note_on_c, 2, 37, 127
4, 220320, Note_on_c, 2, 37, 0
4, 220320, Note_on_c, 2, 38, 127
4, 220380, Note_on_c, 2, 38, 0
4, 220380, Note_on_c, 2, 37, 127
4, 220440, Note_on_c, 2, 37, 0
4, 220440, Note_on_c, 2, 38, 127
4, 220500, Note_on_c, 2, 38, 0
4, 220500, Note_on_c, 2, 35, 127
4, 220560, Note_on_c, 2, 35, 0
4, 220560, Note_on_c, 2, 40, 127
4, 220620, Note_on_c, 2, 40, 0
4, 220620, Note_on_c, 2, 38, 127
4, 220680, Note_on_c, 2, 38, 0
4, 220680, Note_on_c, 2, 40, 127
4, 220740, Note_on_c, 2, 40, 0
4, 220740, Note_on_c, 2, 35, 127
4, 220800, Note_on_c, 2, 35, 0
4, 220800, Note_on_c, 2, 37, 127
4, 220860, Note_on_c, 2, 37, 0
4, 220860, Note_on_c, 2, 35, 127
4, 220920, Note_on_c, 2, 35, 0
4, 220920, Note_on_c, 2, 37, 127
4, 220980, Note_on_c, 2, 37, 0
4, 220980, Note_on_c, 2, 33, 127
4, 221040, Note_on_c, 2, 33, 0
4, 221040, Note_on_c, 2, 38, 127
4, 221340, Note_on_c, 2, 38, 0
4, 221340, Note_on_c, 2, 40, 127
4, 221400, Note_on_c, 2, 40, 0
4, 221400, Note_on_c, 2, 38, 127
4, 221460, Note_on_c, 2, 38, 0
4, 221460, Note_on_c, 2, 40, 127
4, 221520, Note_on_c, 2, 40, 0
4, 221520, Note_on_c, 2, 37, 127
4, 221760, Note_on_c, 2, 37, 0
4, 221760, Note_on_c, 2, 38, 127
4, 222000, Note_on_c, 2, 38, 0
4, 222120, Note_on_c, 2, 38, 127
4, 222216, Note_on_c, 2, 38, 0
4, 222240, Note_on_c, 2, 38, 127
4, 222480, Note_on_c, 2, 38, 0
4, 222600, Note_on_c, 2, 37, 127
4, 222696, Note_on_c, 2, 37, 0
4, 222720, Note_on_c, 2, 37, 127
4, 222960, Note_on_c, 2, 37, 0
4, 223080, Note_on_c, 2, 35, 127
4, 223176, Note_on_c, 2, 35, 0
4, 223200, Note_on_c, 2, 35, 127
4, 223440, Note_on_c, 2, 35, 0
4, 223560, Note_on_c, 2, 33, 127
4, 223656, Note_on_c, 2, 33, 0
4, 223680, Note_on_c, 2, 33, 127
4, 223920, Note_on_c, 2, 33, 0
4, 224040, Note_on_c, 2, 31, 127
4, 224136, Note_on_c, 2, 31, 0
4, 224160, Note_on_c, 2, 31, 127
4, 224400, Note_on_c, 2, 31, 0
4, 224400, Note_on_c, 2, 30, 127
4, 224640, Note_on_c, 2, 30, 0
4, 225180, Note_on_c, 2, 26, 127
4, 225240, Note_on_c, 2, 26, 0
4, 225240, Note_on_c, 2, 30, 127
4, 225300, Note_on_c, 2, 30, 0
4, 225300, Note_on_c, 2, 26, 127
4, 225360, Note_on_c, 2, 26, 0
4, 225360, Note_on_c, 2, 33, 127
4, 225420, Note_on_c, 2, 33, 0
4, 225420, Note_on_c, 2, 30, 127
4, 225480, Note_on_c, 2, 30, 0
4, 225480, Note_on_c, 2, 38, 127
4, 225540, Note_on_c, 2, 38, 0
4, 225540, Note_on_c, 2, 33, 127
4, 225600, Note_on_c, 2, 33, 0
4, 225600, Note_on_c, 2, 42, 127
4, 225840, Note_on_c, 2, 42, 0
4, 226620, Note_on_c, 2, 33, 127
4, 226680, Note_on_c, 2, 33, 0
4, 226680, Note_on_c, 2, 38, 127
4, 226740, Note_on_c, 2, 38, 0
4, 226740, Note_on_c, 2, 33, 127
4, 226800, Note_on_c, 2, 33, 0
4, 226800, Note_on_c, 2, 42, 127
4, 226860, Note_on_c, 2, 42, 0
4, 226860, Note_on_c, 2, 38, 127
4, 226920, Note_on_c, 2, 38, 0
4, 226920, Note_on_c, 2, 45, 127
4, 226980, Note_on_c, 2, 45, 0
4, 226980, Note_on_c, 2, 42, 127
4, 227040, Note_on_c, 2, 42, 0
4, 227040, Note_on_c, 2, 50, 127
4, 227100, Note_on_c, 2, 50, 0
4, 227580, Note_on_c, 2, 50, 127
4, 227640, Note_on_c, 2, 50, 0
4, 227640, Note_on_c, 2, 45, 127
4, 227700, Note_on_c, 2, 45, 0
4, 227700, Note_on_c, 2, 50, 127
4, 227760, Note_on_c, 2, 50, 0
4, 227760, Note_on_c, 2, 42, 127
4, 227820, Note_on_c, 2, 42, 0
4, 227820, Note_on_c, 2, 45, 127
4, 227880, Note_on_c, 2, 45, 0
4, 227880, Note_on_c, 2, 38, 127
4, 227940, Note_on_c, 2, 38, 0
4, 227940, Note_on_c, 2, 42, 127
4, 228000, Note_on_c, 2, 42, 0
4, 228000, Note_on_c, 2, 33, 127
4, 228060, Note_on_c, 2, 33, 0
4, 228540, Note_on_c, 2, 45, 127
4, 228600, Note_on_c, 2, 45, 0
4, 228600, Note_on_c, 2, 42, 127
4, 228660, Note_on_c, 2, 42, 0
4, 228660, Note_on_c, 2, 45, 127
4, 228720, Note_on_c, 2, 45, 0
4, 228720, Note_on_c, 2, 38, 127
4, 228780, Note_on_c, 2, 38, 0
4, 228780, Note_on_c, 2, 42, 127
4, 228840, Note_on_c, 2, 42, 0
4, 228840, Note_on_c, 2, 33, 127
4, 228900, Note_on_c, 2, 33, 0
4, 228900, Note_on_c, 2, 38, 127
4, 228960, Note_on_c, 2, 38, 0
4, 228960, Note_on_c, 2, 30, 127
4, 229020, Note_on_c, 2, 30, 0
4, 229020, Note_on_c, 2, 42, 127
4, 229080, Note_on_c, 2, 42, 0
4, 229080, Note_on_c, 2, 38, 127
4, 229140, Note_on_c, 2, 38, 0
4, 229140, Note_on_c, 2, 42, 127
4, 229200, Note_on_c, 2, 42, 0
4, 229200, Note_on_c, 2, 33, 127
4, 229260, Note_on_c, 2, 33, 0
4, 229260, Note_on_c, 2, 38, 127
4, 229320, Note_on_c, 2, 38, 0
4, 229320, Note_on_c, 2, 30, 127
4, 229380, Note_on_c, 2, 30, 0
4, 229380, Note_on_c, 2, 33, 127
4, 229440, Note_on_c, 2, 33, 0
4, 229440, Note_on_c, 2, 26, 127
4, 229500, Note_on_c, 2, 26, 0
4, 229500, Note_on_c, 2, 28, 127
4, 229560, Note_on_c, 2, 28, 0
4, 229560, Note_on_c, 2, 30, 127
4, 229620, Note_on_c, 2, 30, 0
4, 229620, Note_on_c, 2, 28, 127
4, 229680, Note_on_c, 2, 28, 0
4, 229680, Note_on_c, 2, 26, 127
4, 229740, Note_on_c, 2, 26, 0
4, 229740, Note_on_c, 2, 30, 127
4, 229800, Note_on_c, 2, 30, 0
4, 229800, Note_on_c, 2, 28, 127
4, 229860, Note_on_c, 2, 28, 0
4, 229860, Note_on_c, 2, 31, 127
4, 229920, Note_on_c, 2, 31, 0
4, 229920, Note_on_c, 2, 30, 127
4, 229980, Note_on_c, 2, 30, 0
4, 229980, Note_on_c, 2, 31, 127
4, 230040, Note_on_c, 2, 31, 0
4, 230040, Note_on_c, 2, 33, 127
4, 230100, Note_on_c, 2, 33, 0
4, 230100, Note_on_c, 2, 31, 127
4, 230160, Note_on_c, 2, 31, 0
4, 230160, Note_on_c, 2, 30, 127
4, 230220, Note_on_c, 2, 30, 0
4, 230220, Note_on_c, 2, 33, 127
4, 230280, Note_on_c, 2, 33, 0
4, 230280, Note_on_c, 2, 31, 127
4, 230340, Note_on_c, 2, 31, 0
4, 230340, Note_on_c, 2, 35, 127
4, 230400, Note_on_c, 2, 35, 0
4, 230400, Note_on_c, 2, 33, 127
4, 230460, Note_on_c, 2, 33, 0
4, 230460, Note_on_c, 2, 35, 127
4, 230520, Note_on_c, 2, 35, 0
4, 230520, Note_on_c, 2, 37, 127
4, 230580, Note_on_c, 2, 37, 0
4, 230580, Note_on_c, 2, 35, 127
4, 230640, Note_on_c, 2, 35, 0
4, 230640, Note_on_c, 2, 33, 127
4, 230700, Note_on_c, 2, 33, 0
4, 230700, Note_on_c, 2, 37, 127
4, 230760, Note_on_c, 2, 37, 0
4, 230760, Note_on_c, 2, 35, 127
4, 230820, Note_on_c, 2, 35, 0
4, 230820, Note_on_c, 2, 38, 127
4, 230880, Note_on_c, 2, 38, 0
4, 230880, Note_on_c, 2, 37, 127
4, 230940, Note_on_c, 2, 37, 0
4, 230940, Note_on_c, 2, 38, 127
4, 231000, Note_on_c, 2, 38, 0
4, 231000, Note_on_c, 2, 40, 127
4, 231060, Note_on_c, 2, 40, 0
4, 231060, Note_on_c, 2, 38, 127
4, 231120, Note_on_c, 2, 38, 0
4, 231120, Note_on_c, 2, 37, 127
4, 231180, Note_on_c, 2, 37, 0
4, 231180, Note_on_c, 2, 40, 127
4, 231240, Note_on_c, 2, 40, 0
4, 231240, Note_on_c, 2, 38, 127
4, 231300, Note_on_c, 2, 38, 0
4, 231300, Note_on_c, 2, 42, 127
4, 231360, Note_on_c, 2, 42, 0
4, 231360, Note_on_c, 2, 40, 127
4, 231420, Note_on_c, 2, 40, 0
4, 231420, Note_on_c, 2, 42, 127
4, 231480, Note_on_c, 2, 42, 0
4, 231480, Note_on_c, 2, 43, 127
4, 231540, Note_on_c, 2, 43, 0
4, 231540, Note_on_c, 2, 42, 127
4, 231600, Note_on_c, 2, 42, 0
4, 231600, Note_on_c, 2, 40, 127
4, 231660, Note_on_c, 2, 40, 0
4, 231660, Note_on_c, 2, 43, 127
4, 231720, Note_on_c, 2, 43, 0
4, 231720, Note_on_c, 2, 42, 127
4, 231780, Note_on_c, 2, 42, 0
4, 231780, Note_on_c, 2, 45, 127
4, 231840, Note_on_c, 2, 45, 0
4, 231840, Note_on_c, 2, 43, 127
4, 231900, Note_on_c, 2, 43, 0
4, 231900, Note_on_c, 2, 45, 127
4, 231960, Note_on_c, 2, 45, 0
4, 231960, Note_on_c, 2, 47, 127
4, 232020, Note_on_c, 2, 47, 0
4, 232020, Note_on_c, 2, 45, 127
4, 232080, Note_on_c, 2, 45, 0
4, 232080, Note_on_c, 2, 43, 127
4, 232140, Note_on_c, 2, 43, 0
4, 232140, Note_on_c, 2, 47, 127
4, 232200, Note_on_c, 2, 47, 0
4, 232200, Note_on_c, 2, 45, 127
4, 232260, Note_on_c, 2, 45, 0
4, 232260, Note_on_c, 2, 43, 127
4, 232320, Note_on_c, 2, 43, 0
4, 232320, Note_on_c, 2, 50, 127
4, 232380, Note_on_c, 2, 50, 0
4, 232380, Note_on_c, 2, 49, 127
4, 232440, Note_on_c, 2, 49, 0
4, 232440, Note_on_c, 2, 50, 127
4, 232500, Note_on_c, 2, 50, 0
4, 232500, Note_on_c, 2, 49, 127
4, 232560, Note_on_c, 2, 49, 0
4, 232560, Note_on_c, 2, 50, 127
4, 232620, Note_on_c, 2, 50, 0
4, 232620, Note_on_c, 2, 49, 127
4, 232680, Note_on_c, 2, 49, 0
4, 232680, Note_on_c, 2, 50, 127
4, 232740, Note_on_c, 2, 50, 0
4, 232740, Note_on_c, 2, 49, 127
4, 232800, Note_on_c, 2, 49, 0
4, 232800, Note_on_c, 2, 50, 127
4, 232920, Note_on_c, 2, 50, 0
4, 233280, Note_on_c, 2, 38, 127
4, 233340, Note_on_c, 2, 38, 0
4, 233340, Note_on_c, 2, 40, 127
4, 233400, Note_on_c, 2, 40, 0
4, 233400, Note_on_c, 2, 42, 127
4, 233460, Note_on_c, 2, 42, 0
4, 233460, Note_on_c, 2, 40, 127
4, 233520, Note_on_c, 2, 40, 0
4, 233520, Note_on_c, 2, 38, 127
4, 233580, Note_on_c, 2, 38, 0
4, 233580, Note_on_c, 2, 40, 127
4, 233640, Note_on_c, 2, 40, 0
4, 233640, Note_on_c, 2, 42, 127
4, 233700, Note_on_c, 2, 42, 0
4, 233700, Note_on_c, 2, 40, 127
4, 233760, Note_on_c, 2, 40, 0
4, 233760, Note_on_c, 2, 38, 127
4, 233880, Note_on_c, 2, 38, 0
4, 234360, Note_on_c, 2, 50, 127
4, 234480, Note_on_c, 2, 50, 0
4, 234480, Note_on_c, 2, 38, 127
4, 234720, Note_on_c, 2, 38, 0
4, 234840, Note_on_c, 2, 38, 127
4, 234960, Note_on_c, 2, 38, 0
4, 234960, Note_on_c, 2, 26, 127
4, 235200, Note_on_c, 2, 26, 0
4, 235200, End_track
5, 0, Start_track
5, 0, MIDI_port, 0
5, 0, Title_t, "Prelude and Fugue in D Major - BWV 532"
5, 0, End_track
6, 0, Start_track
6, 0, MIDI_port, 0
6, 0, Title_t, "--------------------------------------"
6, 0, End_track
7, 0, Start_track
7, 0, MIDI_port, 0
7, 0, Title_t, "sequenced by Dean Lampe  1/96"
7, 0, End_track
8, 0, Start_track
8, 0, MIDI_port, 0
8, 0, Title_t, "e-mail: dlampe@tic.bisman.com"
8, 0, End_track
9, 0, Start_track
9, 0, MIDI_port, 0
9, 0, Title_t, "http://www.bisman.com/pwp/dlampe/dlampe.html"
9, 0, End_track
10, 0, Start_track
10, 0, MIDI_port, 0
10, 0, Title_t, "--------------------------------------"
10, 0, End_track
11, 0, Start_track
11, 0, MIDI_port, 0
11, 0, Title_t, "courtesy of Dave's J.S. Bach Page"
11, 0, End_track
12, 0, Start_track
12, 0, MIDI_port, 0
12, 0, Title_t, "http://www.unpronounceable.com/bach"
12, 0, End_track
13, 0, Start_track
13, 0, MIDI_port, 0
13, 0, Title_t, "--------------------------------------"
13, 0, End_track
14, 0, Start_track
14, 0, MIDI_port, 0
14, 0, Title_t, "Original Filename: jsbwv532.mid"
14, 0, End_track
0, 0, End_of_file
