0, 0, Header, 1, 11, 240
1, 0, Start_track
1, 0, Time_signature, 3, 2, 24, 8
1, 0, Tempo, 555556
1, 34080, Tempo, 600000
1, 34320, Tempo, 659341
1, 34560, Tempo, 731707
1, 34692, Tempo, 566038
1, 34968, Tempo, 472441
1, 35280, Tempo, 555556
1, 35280, End_track
2, 0, Start_track
2, 0, Title_t, "Violin1"
2, 0, Program_c, 0, 40
2, 0, Control_c, 0, 7, 100
2, 705, Note_on_c, 0, 71, 80
2, 816, Note_on_c, 0, 73, 52
2, 836, Note_off_c, 0, 71, 64
2, 947, Note_on_c, 0, 74, 61
2, 951, Note_off_c, 0, 73, 64
2, 1011, Note_off_c, 0, 74, 64
2, 1058, Note_on_c, 0, 78, 57
2, 1116, Note_off_c, 0, 78, 64
2, 1195, Note_on_c, 0, 83, 82
2, 1287, Note_off_c, 0, 83, 64
2, 1432, Note_on_c, 0, 81, 66
2, 1670, Note_on_c, 0, 79, 57
2, 1693, Note_off_c, 0, 81, 64
2, 2302, Note_off_c, 0, 79, 64
2, 2380, Note_on_c, 0, 78, 60
2, 2514, Note_off_c, 0, 78, 64
2, 2620, Note_on_c, 0, 76, 51
2, 2773, Note_off_c, 0, 76, 64
2, 2869, Note_on_c, 0, 76, 62
2, 2967, Note_on_c, 0, 74, 51
2, 2976, Note_off_c, 0, 76, 64
2, 3010, Note_on_c, 0, 76, 61
2, 3018, Note_off_c, 0, 74, 64
2, 3049, Note_on_c, 0, 74, 70
2, 3055, Note_off_c, 0, 76, 64
2, 3099, Note_on_c, 0, 73, 57
2, 3105, Note_off_c, 0, 74, 64
2, 3217, Note_on_c, 0, 74, 54
2, 3219, Note_off_c, 0, 73, 64
2, 3320, Note_off_c, 0, 74, 64
2, 3344, Note_on_c, 0, 71, 57
2, 3465, Note_off_c, 0, 71, 64
2, 3595, Note_on_c, 0, 79, 70
2, 3705, Note_on_c, 0, 78, 52
2, 3730, Note_off_c, 0, 79, 64
2, 3826, Note_on_c, 0, 76, 57
2, 3834, Note_off_c, 0, 78, 64
2, 3887, Note_off_c, 0, 76, 64
2, 3943, Note_on_c, 0, 82, 58
2, 3991, Note_off_c, 0, 82, 64
2, 4068, Note_on_c, 0, 83, 61
2, 4123, Note_off_c, 0, 83, 64
2, 4190, Note_on_c, 0, 79, 68
2, 4227, Note_off_c, 0, 79, 64
2, 4317, Note_on_c, 0, 78, 64
2, 4424, Note_on_c, 0, 76, 57
2, 4446, Note_off_c, 0, 78, 64
2, 4546, Note_off_c, 0, 76, 64
2, 4549, Note_on_c, 0, 74, 53
2, 4614, Note_off_c, 0, 74, 64
2, 4664, Note_on_c, 0, 82, 55
2, 4718, Note_off_c, 0, 82, 64
2, 4786, Note_on_c, 0, 83, 57
2, 4838, Note_off_c, 0, 83, 64
2, 4906, Note_on_c, 0, 78, 59
2, 4952, Note_off_c, 0, 78, 64
2, 5032, Note_on_c, 0, 76, 76
2, 5131, Note_on_c, 0, 74, 53
2, 5154, Note_off_c, 0, 76, 64
2, 5258, Note_on_c, 0, 73, 53
2, 5260, Note_off_c, 0, 74, 64
2, 5331, Note_off_c, 0, 73, 64
2, 5368, Note_on_c, 0, 78, 58
2, 5430, Note_off_c, 0, 78, 64
2, 5496, Note_on_c, 0, 74, 70
2, 5539, Note_off_c, 0, 74, 64
2, 5610, Note_on_c, 0, 71, 60
2, 5670, Note_off_c, 0, 71, 64
2, 5760, Note_on_c, 0, 74, 68
2, 5995, Note_on_c, 0, 73, 43
2, 6009, Note_off_c, 0, 74, 64
2, 6290, Note_off_c, 0, 73, 64
2, 6464, Note_on_c, 0, 71, 63
2, 6588, Note_on_c, 0, 73, 53
2, 6603, Note_off_c, 0, 71, 64
2, 6710, Note_on_c, 0, 74, 63
2, 6712, Note_off_c, 0, 73, 64
2, 6776, Note_off_c, 0, 74, 64
2, 6819, Note_on_c, 0, 78, 58
2, 6876, Note_off_c, 0, 78, 64
2, 6952, Note_on_c, 0, 83, 72
2, 7012, Note_off_c, 0, 83, 64
2, 7182, Note_on_c, 0, 81, 64
2, 7364, Note_off_c, 0, 81, 64
2, 7368, Note_on_c, 0, 79, 36
2, 7398, Note_on_c, 0, 81, 61
2, 7403, Note_off_c, 0, 79, 64
2, 7436, Note_on_c, 0, 79, 60
2, 7447, Note_off_c, 0, 81, 64
2, 8089, Note_off_c, 0, 79, 64
2, 8146, Note_on_c, 0, 78, 57
2, 8317, Note_off_c, 0, 78, 64
2, 8386, Note_on_c, 0, 76, 63
2, 8551, Note_off_c, 0, 76, 64
2, 8631, Note_on_c, 0, 76, 63
2, 8722, Note_on_c, 0, 74, 43
2, 8728, Note_off_c, 0, 76, 64
2, 8762, Note_on_c, 0, 76, 59
2, 8763, Note_off_c, 0, 74, 64
2, 8800, Note_on_c, 0, 74, 62
2, 8809, Note_off_c, 0, 76, 64
2, 8851, Note_on_c, 0, 73, 53
2, 8856, Note_off_c, 0, 74, 64
2, 8973, Note_off_c, 0, 73, 64
2, 8977, Note_on_c, 0, 74, 55
2, 9079, Note_off_c, 0, 74, 64
2, 9099, Note_on_c, 0, 71, 52
2, 9213, Note_off_c, 0, 71, 64
2, 9348, Note_on_c, 0, 79, 82
2, 9463, Note_on_c, 0, 78, 48
2, 9483, Note_off_c, 0, 79, 64
2, 9594, Note_off_c, 0, 78, 64
2, 9594, Note_on_c, 0, 76, 57
2, 9648, Note_off_c, 0, 76, 64
2, 9708, Note_on_c, 0, 82, 52
2, 9746, Note_off_c, 0, 82, 64
2, 9830, Note_on_c, 0, 83, 50
2, 9886, Note_off_c, 0, 83, 64
2, 9954, Note_on_c, 0, 79, 60
2, 10003, Note_off_c, 0, 79, 64
2, 10075, Note_on_c, 0, 78, 61
2, 10195, Note_on_c, 0, 76, 60
2, 10214, Note_off_c, 0, 78, 64
2, 10292, Note_off_c, 0, 76, 64
2, 10317, Note_on_c, 0, 74, 57
2, 10372, Note_off_c, 0, 74, 64
2, 10426, Note_on_c, 0, 82, 57
2, 10476, Note_off_c, 0, 82, 64
2, 10549, Note_on_c, 0, 83, 57
2, 10598, Note_off_c, 0, 83, 64
2, 10666, Note_on_c, 0, 78, 59
2, 10714, Note_off_c, 0, 78, 64
2, 10790, Note_on_c, 0, 76, 66
2, 10899, Note_on_c, 0, 74, 57
2, 10920, Note_off_c, 0, 76, 64
2, 11018, Note_off_c, 0, 74, 64
2, 11023, Note_on_c, 0, 73, 52
2, 11086, Note_off_c, 0, 73, 64
2, 11128, Note_on_c, 0, 78, 60
2, 11188, Note_off_c, 0, 78, 64
2, 11258, Note_on_c, 0, 74, 70
2, 11314, Note_off_c, 0, 74, 64
2, 11378, Note_on_c, 0, 71, 61
2, 11442, Note_off_c, 0, 71, 64
2, 11506, Note_on_c, 0, 74, 70
2, 11638, Note_off_c, 0, 74, 64
2, 11640, Note_on_c, 0, 73, 38
2, 11671, Note_on_c, 0, 74, 63
2, 11677, Note_off_c, 0, 73, 64
2, 11703, Note_on_c, 0, 73, 54
2, 11710, Note_off_c, 0, 74, 64
2, 11727, Note_on_c, 0, 74, 66
2, 11734, Note_off_c, 0, 73, 64
2, 11756, Note_on_c, 0, 73, 58
2, 11773, Note_off_c, 0, 74, 64
2, 12026, Note_off_c, 0, 73, 64
2, 23744, Note_on_c, 0, 66, 64
2, 23865, Note_on_c, 0, 68, 66
2, 23895, Note_off_c, 0, 66, 64
2, 23982, Note_off_c, 0, 68, 64
2, 23982, Note_on_c, 0, 70, 64
2, 24028, Note_off_c, 0, 70, 64
2, 24105, Note_on_c, 0, 73, 57
2, 24164, Note_off_c, 0, 73, 64
2, 24231, Note_on_c, 0, 78, 68
2, 24304, Note_off_c, 0, 78, 64
2, 24472, Note_on_c, 0, 76, 74
2, 24720, Note_on_c, 0, 74, 53
2, 24728, Note_off_c, 0, 76, 64
2, 25027, Note_off_c, 0, 74, 64
2, 25180, Note_on_c, 0, 69, 80
2, 25310, Note_on_c, 0, 71, 68
2, 25330, Note_off_c, 0, 69, 64
2, 25422, Note_off_c, 0, 71, 64
2, 25430, Note_on_c, 0, 73, 57
2, 25482, Note_off_c, 0, 73, 64
2, 25533, Note_on_c, 0, 76, 66
2, 25590, Note_off_c, 0, 76, 64
2, 25668, Note_on_c, 0, 81, 85
2, 25738, Note_off_c, 0, 81, 64
2, 25904, Note_on_c, 0, 79, 70
2, 26144, Note_on_c, 0, 78, 55
2, 26160, Note_off_c, 0, 79, 64
2, 26479, Note_off_c, 0, 78, 64
2, 26630, Note_on_c, 0, 71, 74
2, 26751, Note_on_c, 0, 69, 64
2, 26770, Note_off_c, 0, 71, 64
2, 26834, Note_off_c, 0, 69, 64
2, 26863, Note_on_c, 0, 67, 59
2, 26920, Note_off_c, 0, 67, 64
2, 26983, Note_on_c, 0, 73, 55
2, 27037, Note_off_c, 0, 73, 64
2, 27098, Note_on_c, 0, 74, 62
2, 27157, Note_off_c, 0, 74, 64
2, 27222, Note_on_c, 0, 71, 58
2, 27271, Note_off_c, 0, 71, 64
2, 27350, Note_on_c, 0, 69, 82
2, 27445, Note_on_c, 0, 67, 60
2, 27470, Note_off_c, 0, 69, 64
2, 27564, Note_off_c, 0, 67, 64
2, 27570, Note_on_c, 0, 66, 57
2, 27640, Note_off_c, 0, 66, 64
2, 27687, Note_on_c, 0, 73, 56
2, 27753, Note_off_c, 0, 73, 64
2, 27811, Note_on_c, 0, 74, 63
2, 27850, Note_off_c, 0, 74, 64
2, 27922, Note_on_c, 0, 69, 64
2, 27980, Note_off_c, 0, 69, 64
2, 28053, Note_on_c, 0, 67, 68
2, 28152, Note_off_c, 0, 67, 64
2, 28303, Note_on_c, 0, 66, 62
2, 28398, Note_off_c, 0, 66, 64
2, 28537, Note_on_c, 0, 66, 78
2, 28578, Note_off_c, 0, 66, 64
2, 28578, Note_on_c, 0, 64, 55
2, 28604, Note_on_c, 0, 66, 61
2, 28616, Note_off_c, 0, 64, 64
2, 28639, Note_on_c, 0, 64, 64
2, 28652, Note_off_c, 0, 66, 64
2, 28714, Note_off_c, 0, 64, 64
2, 28784, Note_on_c, 0, 62, 60
2, 29289, Note_off_c, 0, 62, 64
2, 29506, Note_on_c, 0, 78, 80
2, 29624, Note_on_c, 0, 76, 66
2, 29647, Note_off_c, 0, 78, 64
2, 29720, Note_off_c, 0, 76, 64
2, 29740, Note_on_c, 0, 75, 60
2, 29796, Note_off_c, 0, 75, 64
2, 29860, Note_on_c, 0, 71, 64
2, 29918, Note_off_c, 0, 71, 64
2, 29988, Note_on_c, 0, 81, 68
2, 30067, Note_off_c, 0, 81, 64
2, 30225, Note_on_c, 0, 81, 72
2, 30469, Note_on_c, 0, 79, 57
2, 30494, Note_off_c, 0, 81, 64
2, 30790, Note_off_c, 0, 79, 64
2, 30946, Note_on_c, 0, 73, 59
2, 31059, Note_on_c, 0, 74, 74
2, 31088, Note_off_c, 0, 73, 64
2, 31179, Note_on_c, 0, 76, 68
2, 31186, Note_off_c, 0, 74, 64
2, 31232, Note_off_c, 0, 76, 64
2, 31293, Note_on_c, 0, 81, 68
2, 31351, Note_off_c, 0, 81, 64
2, 31420, Note_on_c, 0, 79, 74
2, 31509, Note_off_c, 0, 79, 64
2, 31673, Note_on_c, 0, 79, 74
2, 31912, Note_on_c, 0, 78, 53
2, 31934, Note_off_c, 0, 79, 64
2, 32226, Note_off_c, 0, 78, 64
2, 32374, Note_on_c, 0, 70, 60
2, 32505, Note_on_c, 0, 71, 64
2, 32532, Note_off_c, 0, 70, 64
2, 32620, Note_on_c, 0, 73, 58
2, 32629, Note_off_c, 0, 71, 64
2, 32685, Note_off_c, 0, 73, 64
2, 32731, Note_on_c, 0, 76, 72
2, 32787, Note_off_c, 0, 76, 64
2, 32856, Note_on_c, 0, 74, 72
2, 32912, Note_off_c, 0, 74, 64
2, 32974, Note_on_c, 0, 71, 63
2, 33026, Note_off_c, 0, 71, 64
2, 33110, Note_on_c, 0, 67, 76
2, 33226, Note_on_c, 0, 66, 60
2, 33241, Note_off_c, 0, 67, 64
2, 33333, Note_off_c, 0, 66, 64
2, 33344, Note_on_c, 0, 64, 61
2, 33394, Note_off_c, 0, 64, 64
2, 33464, Note_on_c, 0, 74, 66
2, 33513, Note_off_c, 0, 74, 64
2, 33583, Note_on_c, 0, 73, 58
2, 33651, Note_off_c, 0, 73, 64
2, 33703, Note_on_c, 0, 82, 60
2, 33752, Note_off_c, 0, 82, 64
2, 33827, Note_on_c, 0, 82, 93
2, 33934, Note_on_c, 0, 83, 68
2, 33952, Note_off_c, 0, 82, 64
2, 34016, Note_off_c, 0, 83, 64
2, 34066, Note_on_c, 0, 78, 68
2, 34176, Note_on_c, 0, 76, 62
2, 34197, Note_off_c, 0, 78, 64
2, 34236, Note_off_c, 0, 76, 64
2, 34306, Note_on_c, 0, 74, 72
2, 34412, Note_on_c, 0, 73, 58
2, 34416, Note_off_c, 0, 74, 64
2, 34498, Note_off_c, 0, 73, 64
2, 34552, Note_on_c, 0, 71, 52
2, 35281, Note_off_c, 0, 71, 64
2, 35281, End_track
3, 0, Start_track
3, 0, Title_t, "Violin2"
3, 0, Program_c, 1, 40
3, 0, Control_c, 1, 7, 100
3, 710, Note_on_c, 1, 66, 56
3, 861, Note_off_c, 1, 66, 64
3, 955, Note_on_c, 1, 71, 68
3, 1078, Note_off_c, 1, 71, 64
3, 1197, Note_on_c, 1, 71, 60
3, 1309, Note_off_c, 1, 71, 64
3, 1436, Note_on_c, 1, 71, 53
3, 2065, Note_off_c, 1, 71, 64
3, 2152, Note_on_c, 1, 73, 58
3, 2268, Note_on_c, 1, 74, 66
3, 2296, Note_off_c, 1, 73, 64
3, 2338, Note_off_c, 1, 74, 64
3, 2392, Note_on_c, 1, 73, 52
3, 2505, Note_on_c, 1, 71, 53
3, 2535, Note_off_c, 1, 73, 64
3, 2586, Note_off_c, 1, 71, 64
3, 2629, Note_on_c, 1, 73, 58
3, 2735, Note_on_c, 1, 70, 46
3, 2748, Note_off_c, 1, 73, 64
3, 2798, Note_off_c, 1, 70, 64
3, 2871, Note_on_c, 1, 71, 58
3, 3026, Note_off_c, 1, 71, 64
3, 3109, Note_on_c, 1, 66, 53
3, 3230, Note_off_c, 1, 66, 64
3, 3344, Note_on_c, 1, 71, 61
3, 3454, Note_off_c, 1, 71, 64
3, 3596, Note_on_c, 1, 71, 64
3, 3723, Note_off_c, 1, 71, 64
3, 3826, Note_on_c, 1, 76, 58
3, 3934, Note_off_c, 1, 76, 64
3, 4069, Note_on_c, 1, 79, 68
3, 4170, Note_off_c, 1, 79, 64
3, 4321, Note_on_c, 1, 71, 60
3, 4436, Note_off_c, 1, 71, 64
3, 4546, Note_on_c, 1, 74, 64
3, 4661, Note_off_c, 1, 74, 64
3, 4780, Note_on_c, 1, 78, 60
3, 4891, Note_off_c, 1, 78, 64
3, 5028, Note_on_c, 1, 70, 61
3, 5144, Note_off_c, 1, 70, 64
3, 5276, Note_on_c, 1, 73, 59
3, 5383, Note_off_c, 1, 73, 64
3, 5502, Note_on_c, 1, 71, 64
3, 5618, Note_off_c, 1, 71, 64
3, 5742, Note_on_c, 1, 71, 76
3, 5990, Note_on_c, 1, 70, 39
3, 6008, Note_off_c, 1, 71, 64
3, 6306, Note_off_c, 1, 70, 64
3, 6486, Note_on_c, 1, 66, 59
3, 6588, Note_off_c, 1, 66, 64
3, 6718, Note_on_c, 1, 71, 66
3, 6812, Note_off_c, 1, 71, 64
3, 6950, Note_on_c, 1, 71, 68
3, 7050, Note_off_c, 1, 71, 64
3, 7203, Note_on_c, 1, 71, 55
3, 7802, Note_off_c, 1, 71, 64
3, 7902, Note_on_c, 1, 73, 59
3, 8018, Note_on_c, 1, 74, 68
3, 8047, Note_off_c, 1, 73, 64
3, 8096, Note_off_c, 1, 74, 64
3, 8145, Note_on_c, 1, 73, 57
3, 8264, Note_on_c, 1, 71, 61
3, 8293, Note_off_c, 1, 73, 64
3, 8334, Note_off_c, 1, 71, 64
3, 8390, Note_on_c, 1, 73, 62
3, 8494, Note_on_c, 1, 70, 57
3, 8506, Note_off_c, 1, 73, 64
3, 8568, Note_off_c, 1, 70, 64
3, 8634, Note_on_c, 1, 71, 66
3, 8756, Note_off_c, 1, 71, 64
3, 8868, Note_on_c, 1, 66, 57
3, 8959, Note_off_c, 1, 66, 64
3, 9112, Note_on_c, 1, 71, 60
3, 9204, Note_off_c, 1, 71, 64
3, 9358, Note_on_c, 1, 71, 72
3, 9499, Note_off_c, 1, 71, 64
3, 9596, Note_on_c, 1, 76, 59
3, 9685, Note_off_c, 1, 76, 64
3, 9825, Note_on_c, 1, 79, 58
3, 9918, Note_off_c, 1, 79, 64
3, 10083, Note_on_c, 1, 71, 68
3, 10224, Note_off_c, 1, 71, 64
3, 10312, Note_on_c, 1, 74, 62
3, 10414, Note_off_c, 1, 74, 64
3, 10544, Note_on_c, 1, 78, 59
3, 10642, Note_off_c, 1, 78, 64
3, 10784, Note_on_c, 1, 70, 63
3, 10900, Note_off_c, 1, 70, 64
3, 11031, Note_on_c, 1, 73, 58
3, 11134, Note_off_c, 1, 73, 64
3, 11264, Note_on_c, 1, 71, 68
3, 11376, Note_off_c, 1, 71, 64
3, 11510, Note_on_c, 1, 71, 64
3, 11617, Note_on_c, 1, 70, 58
3, 11624, Note_off_c, 1, 71, 64
3, 11658, Note_on_c, 1, 71, 64
3, 11660, Note_off_c, 1, 70, 64
3, 11692, Note_on_c, 1, 70, 60
3, 11703, Note_off_c, 1, 71, 64
3, 11720, Note_off_c, 1, 70, 64
3, 11720, Note_on_c, 1, 71, 68
3, 11749, Note_on_c, 1, 70, 68
3, 11764, Note_off_c, 1, 71, 64
3, 12040, Note_off_c, 1, 70, 64
3, 23743, Note_on_c, 1, 66, 56
3, 23847, Note_off_c, 1, 66, 64
3, 23977, Note_on_c, 1, 73, 57
3, 24082, Note_off_c, 1, 73, 64
3, 24220, Note_on_c, 1, 73, 56
3, 24316, Note_off_c, 1, 73, 64
3, 24469, Note_on_c, 1, 73, 63
3, 24705, Note_on_c, 1, 71, 53
3, 24724, Note_off_c, 1, 73, 64
3, 25060, Note_off_c, 1, 71, 64
3, 25194, Note_on_c, 1, 64, 57
3, 25280, Note_off_c, 1, 64, 64
3, 25429, Note_on_c, 1, 69, 60
3, 25522, Note_off_c, 1, 69, 64
3, 25665, Note_on_c, 1, 69, 70
3, 25744, Note_off_c, 1, 69, 64
3, 25914, Note_on_c, 1, 69, 64
3, 26422, Note_off_c, 1, 69, 64
3, 26625, Note_on_c, 1, 67, 64
3, 26728, Note_off_c, 1, 67, 64
3, 26860, Note_on_c, 1, 62, 54
3, 26938, Note_off_c, 1, 62, 64
3, 27102, Note_on_c, 1, 67, 59
3, 27193, Note_off_c, 1, 67, 64
3, 27345, Note_on_c, 1, 69, 76
3, 27458, Note_off_c, 1, 69, 64
3, 27585, Note_on_c, 1, 62, 55
3, 27675, Note_off_c, 1, 62, 64
3, 27823, Note_on_c, 1, 66, 66
3, 27906, Note_off_c, 1, 66, 64
3, 28062, Note_on_c, 1, 55, 66
3, 28167, Note_off_c, 1, 55, 64
3, 28180, Note_on_c, 1, 57, 70
3, 28260, Note_off_c, 1, 57, 64
3, 28299, Note_on_c, 1, 59, 74
3, 28408, Note_off_c, 1, 59, 64
3, 28558, Note_on_c, 1, 61, 64
3, 28659, Note_off_c, 1, 61, 64
3, 28799, Note_on_c, 1, 57, 63
3, 29343, Note_off_c, 1, 57, 64
3, 29510, Note_on_c, 1, 75, 66
3, 29620, Note_on_c, 1, 76, 68
3, 29625, Note_off_c, 1, 75, 64
3, 29718, Note_off_c, 1, 76, 64
3, 29748, Note_on_c, 1, 78, 60
3, 29838, Note_off_c, 1, 78, 64
3, 29983, Note_on_c, 1, 78, 68
3, 30084, Note_off_c, 1, 78, 64
3, 30237, Note_on_c, 1, 78, 85
3, 30487, Note_on_c, 1, 76, 46
3, 30490, Note_off_c, 1, 78, 64
3, 30780, Note_off_c, 1, 76, 64
3, 30951, Note_on_c, 1, 64, 66
3, 31054, Note_off_c, 1, 64, 64
3, 31179, Note_on_c, 1, 69, 70
3, 31274, Note_off_c, 1, 69, 64
3, 31417, Note_on_c, 1, 73, 64
3, 31506, Note_off_c, 1, 73, 64
3, 31672, Note_on_c, 1, 73, 63
3, 31911, Note_on_c, 1, 74, 64
3, 31928, Note_off_c, 1, 73, 64
3, 32218, Note_off_c, 1, 74, 64
3, 32408, Note_on_c, 1, 76, 72
3, 32503, Note_off_c, 1, 76, 64
3, 32628, Note_on_c, 1, 70, 62
3, 32709, Note_off_c, 1, 70, 64
3, 32859, Note_on_c, 1, 71, 70
3, 33234, Note_off_c, 1, 71, 64
3, 33344, Note_on_c, 1, 76, 66
3, 33440, Note_off_c, 1, 76, 64
3, 33578, Note_on_c, 1, 79, 70
3, 33696, Note_off_c, 1, 79, 64
3, 33817, Note_on_c, 1, 78, 74
3, 33936, Note_on_c, 1, 76, 64
3, 33952, Note_off_c, 1, 78, 64
3, 34003, Note_off_c, 1, 76, 64
3, 34058, Note_on_c, 1, 74, 76
3, 34170, Note_on_c, 1, 73, 63
3, 34174, Note_off_c, 1, 74, 64
3, 34234, Note_off_c, 1, 73, 64
3, 34300, Note_on_c, 1, 71, 68
3, 34420, Note_on_c, 1, 70, 68
3, 34429, Note_off_c, 1, 71, 64
3, 34488, Note_off_c, 1, 70, 64
3, 34566, Note_on_c, 1, 71, 58
3, 34568, Note_on_c, 1, 66, 53
3, 35299, Note_off_c, 1, 66, 64
3, 35307, Note_off_c, 1, 71, 64
3, 35307, End_track
4, 0, Start_track
4, 0, Title_t, "Viola"
4, 0, Program_c, 2, 41
4, 0, Control_c, 2, 7, 100
4, 722, Note_on_c, 2, 62, 63
4, 838, Note_off_c, 2, 62, 64
4, 951, Note_on_c, 2, 66, 66
4, 1050, Note_off_c, 2, 66, 64
4, 1189, Note_on_c, 2, 66, 60
4, 1287, Note_off_c, 2, 66, 64
4, 1430, Note_on_c, 2, 64, 57
4, 2198, Note_off_c, 2, 64, 64
4, 2384, Note_on_c, 2, 61, 59
4, 2485, Note_off_c, 2, 61, 64
4, 2616, Note_on_c, 2, 70, 70
4, 2710, Note_off_c, 2, 70, 64
4, 2868, Note_on_c, 2, 66, 60
4, 3183, Note_off_c, 2, 66, 64
4, 3219, Note_on_c, 2, 62, 68
4, 3265, Note_off_c, 2, 62, 64
4, 3343, Note_on_c, 2, 64, 68
4, 3393, Note_off_c, 2, 64, 64
4, 3465, Note_on_c, 2, 66, 64
4, 3528, Note_off_c, 2, 66, 64
4, 3589, Note_on_c, 2, 64, 62
4, 3690, Note_off_c, 2, 64, 64
4, 3830, Note_on_c, 2, 59, 63
4, 3918, Note_off_c, 2, 59, 64
4, 4069, Note_on_c, 2, 64, 64
4, 4161, Note_off_c, 2, 64, 64
4, 4311, Note_on_c, 2, 66, 68
4, 4413, Note_off_c, 2, 66, 64
4, 4558, Note_on_c, 2, 59, 63
4, 4650, Note_off_c, 2, 59, 64
4, 4786, Note_on_c, 2, 62, 68
4, 4880, Note_off_c, 2, 62, 64
4, 5034, Note_on_c, 2, 64, 68
4, 5130, Note_off_c, 2, 64, 64
4, 5264, Note_on_c, 2, 66, 63
4, 5362, Note_off_c, 2, 66, 64
4, 5498, Note_on_c, 2, 66, 59
4, 5599, Note_off_c, 2, 66, 64
4, 5748, Note_on_c, 2, 66, 57
4, 6369, Note_off_c, 2, 66, 64
4, 6484, Note_on_c, 2, 62, 66
4, 6573, Note_off_c, 2, 62, 64
4, 6705, Note_on_c, 2, 66, 60
4, 6795, Note_off_c, 2, 66, 64
4, 6950, Note_on_c, 2, 66, 61
4, 7040, Note_off_c, 2, 66, 64
4, 7192, Note_on_c, 2, 66, 68
4, 7435, Note_on_c, 2, 64, 43
4, 7453, Note_off_c, 2, 66, 64
4, 7978, Note_off_c, 2, 64, 64
4, 8150, Note_on_c, 2, 61, 62
4, 8248, Note_off_c, 2, 61, 64
4, 8378, Note_on_c, 2, 70, 64
4, 8474, Note_off_c, 2, 70, 64
4, 8628, Note_on_c, 2, 66, 57
4, 8938, Note_off_c, 2, 66, 64
4, 8979, Note_on_c, 2, 62, 68
4, 9033, Note_off_c, 2, 62, 64
4, 9103, Note_on_c, 2, 64, 62
4, 9164, Note_off_c, 2, 64, 64
4, 9226, Note_on_c, 2, 66, 68
4, 9288, Note_off_c, 2, 66, 64
4, 9360, Note_on_c, 2, 64, 68
4, 9469, Note_off_c, 2, 64, 64
4, 9594, Note_on_c, 2, 59, 57
4, 9676, Note_off_c, 2, 59, 64
4, 9823, Note_on_c, 2, 64, 66
4, 9925, Note_off_c, 2, 64, 64
4, 10072, Note_on_c, 2, 66, 64
4, 10186, Note_off_c, 2, 66, 64
4, 10311, Note_on_c, 2, 59, 59
4, 10407, Note_off_c, 2, 59, 64
4, 10549, Note_on_c, 2, 62, 66
4, 10654, Note_off_c, 2, 62, 64
4, 10797, Note_on_c, 2, 64, 66
4, 10903, Note_off_c, 2, 64, 64
4, 11031, Note_on_c, 2, 66, 60
4, 11131, Note_off_c, 2, 66, 64
4, 11266, Note_on_c, 2, 66, 60
4, 11364, Note_off_c, 2, 66, 64
4, 11511, Note_on_c, 2, 66, 59
4, 12038, Note_off_c, 2, 66, 64
4, 23755, Note_on_c, 2, 61, 59
4, 23852, Note_off_c, 2, 61, 64
4, 23980, Note_on_c, 2, 66, 59
4, 24081, Note_off_c, 2, 66, 64
4, 24224, Note_on_c, 2, 66, 60
4, 24320, Note_off_c, 2, 66, 64
4, 24462, Note_on_c, 2, 66, 64
4, 25024, Note_off_c, 2, 66, 64
4, 25194, Note_on_c, 2, 69, 72
4, 25302, Note_off_c, 2, 69, 64
4, 25414, Note_on_c, 2, 64, 68
4, 25530, Note_off_c, 2, 64, 64
4, 25664, Note_on_c, 2, 64, 70
4, 25762, Note_off_c, 2, 64, 64
4, 25917, Note_on_c, 2, 64, 72
4, 26155, Note_on_c, 2, 62, 52
4, 26173, Note_off_c, 2, 64, 64
4, 26474, Note_off_c, 2, 62, 64
4, 26629, Note_on_c, 2, 62, 66
4, 26731, Note_off_c, 2, 62, 64
4, 26872, Note_on_c, 2, 67, 64
4, 26966, Note_off_c, 2, 67, 64
4, 27111, Note_on_c, 2, 71, 80
4, 27202, Note_off_c, 2, 71, 64
4, 27350, Note_on_c, 2, 62, 76
4, 27462, Note_off_c, 2, 62, 64
4, 27584, Note_on_c, 2, 66, 63
4, 27679, Note_off_c, 2, 66, 64
4, 27819, Note_on_c, 2, 69, 70
4, 27916, Note_off_c, 2, 69, 64
4, 28065, Note_on_c, 2, 62, 78
4, 28170, Note_off_c, 2, 62, 64
4, 28306, Note_on_c, 2, 62, 70
4, 28410, Note_off_c, 2, 62, 64
4, 28556, Note_on_c, 2, 57, 70
4, 28647, Note_off_c, 2, 57, 64
4, 28796, Note_on_c, 2, 54, 70
4, 29295, Note_off_c, 2, 54, 64
4, 29523, Note_on_c, 2, 59, 68
4, 29614, Note_off_c, 2, 59, 64
4, 29759, Note_on_c, 2, 59, 68
4, 29848, Note_off_c, 2, 59, 64
4, 29991, Note_on_c, 2, 59, 66
4, 30094, Note_off_c, 2, 59, 64
4, 30237, Note_on_c, 2, 59, 60
4, 30796, Note_off_c, 2, 59, 64
4, 30954, Note_on_c, 2, 57, 68
4, 31063, Note_off_c, 2, 57, 64
4, 31190, Note_on_c, 2, 57, 66
4, 31289, Note_off_c, 2, 57, 64
4, 31420, Note_on_c, 2, 57, 68
4, 31513, Note_off_c, 2, 57, 64
4, 31672, Note_on_c, 2, 57, 76
4, 32184, Note_off_c, 2, 57, 64
4, 32401, Note_on_c, 2, 67, 66
4, 32511, Note_off_c, 2, 67, 64
4, 32626, Note_on_c, 2, 66, 59
4, 32721, Note_off_c, 2, 66, 64
4, 32874, Note_on_c, 2, 66, 55
4, 32956, Note_off_c, 2, 66, 64
4, 33114, Note_on_c, 2, 64, 70
4, 33220, Note_off_c, 2, 64, 64
4, 33339, Note_on_c, 2, 59, 63
4, 33445, Note_off_c, 2, 59, 64
4, 33577, Note_on_c, 2, 61, 54
4, 33686, Note_off_c, 2, 61, 64
4, 33832, Note_on_c, 2, 62, 76
4, 33932, Note_off_c, 2, 62, 64
4, 33938, Note_on_c, 2, 61, 66
4, 34010, Note_off_c, 2, 61, 64
4, 34063, Note_on_c, 2, 59, 63
4, 34153, Note_off_c, 2, 59, 64
4, 34315, Note_on_c, 2, 66, 82
4, 34408, Note_off_c, 2, 66, 64
4, 34562, Note_on_c, 2, 62, 61
4, 35305, Note_off_c, 2, 62, 64
4, 35305, End_track
5, 0, Start_track
5, 0, Title_t, "Cello"
5, 0, Program_c, 3, 42
5, 0, Control_c, 3, 7, 100
5, 705, Note_on_c, 3, 59, 68
5, 823, Note_off_c, 3, 59, 64
5, 951, Note_on_c, 3, 47, 74
5, 1058, Note_off_c, 3, 47, 64
5, 1186, Note_on_c, 3, 50, 63
5, 1284, Note_off_c, 3, 50, 64
5, 1428, Note_on_c, 3, 52, 76
5, 1546, Note_on_c, 3, 54, 62
5, 1564, Note_off_c, 3, 52, 64
5, 1658, Note_off_c, 3, 54, 64
5, 1670, Note_on_c, 3, 55, 62
5, 1722, Note_off_c, 3, 55, 64
5, 1773, Note_on_c, 3, 59, 64
5, 1834, Note_off_c, 3, 59, 64
5, 1893, Note_on_c, 3, 64, 76
5, 1946, Note_off_c, 3, 64, 64
5, 2007, Note_on_c, 3, 61, 64
5, 2067, Note_off_c, 3, 61, 64
5, 2142, Note_on_c, 3, 59, 74
5, 2376, Note_on_c, 3, 58, 51
5, 2388, Note_off_c, 3, 59, 64
5, 2515, Note_off_c, 3, 58, 64
5, 2626, Note_on_c, 3, 54, 66
5, 2720, Note_off_c, 3, 54, 64
5, 2875, Note_on_c, 3, 59, 66
5, 3152, Note_off_c, 3, 59, 64
5, 3217, Note_on_c, 3, 47, 60
5, 3282, Note_off_c, 3, 47, 64
5, 3333, Note_on_c, 3, 49, 63
5, 3392, Note_off_c, 3, 49, 64
5, 3454, Note_on_c, 3, 50, 68
5, 3520, Note_off_c, 3, 50, 64
5, 3585, Note_on_c, 3, 52, 80
5, 3699, Note_off_c, 3, 52, 64
5, 3837, Note_on_c, 3, 55, 53
5, 3937, Note_off_c, 3, 55, 64
5, 4068, Note_on_c, 3, 49, 55
5, 4164, Note_off_c, 3, 49, 64
5, 4317, Note_on_c, 3, 50, 82
5, 4423, Note_off_c, 3, 50, 64
5, 4548, Note_on_c, 3, 54, 60
5, 4636, Note_off_c, 3, 54, 64
5, 4780, Note_on_c, 3, 47, 58
5, 4884, Note_off_c, 3, 47, 64
5, 5028, Note_on_c, 3, 49, 64
5, 5138, Note_off_c, 3, 49, 64
5, 5264, Note_on_c, 3, 46, 58
5, 5355, Note_off_c, 3, 46, 64
5, 5492, Note_on_c, 3, 47, 72
5, 5587, Note_off_c, 3, 47, 64
5, 5749, Note_on_c, 3, 42, 59
5, 5953, Note_off_c, 3, 42, 64
5, 5992, Note_on_c, 3, 54, 53
5, 6067, Note_off_c, 3, 54, 64
5, 6102, Note_on_c, 3, 56, 70
5, 6160, Note_off_c, 3, 56, 64
5, 6222, Note_on_c, 3, 58, 82
5, 6282, Note_off_c, 3, 58, 64
5, 6333, Note_on_c, 3, 54, 55
5, 6391, Note_off_c, 3, 54, 64
5, 6472, Note_on_c, 3, 59, 76
5, 6579, Note_off_c, 3, 59, 64
5, 6709, Note_on_c, 3, 47, 60
5, 6806, Note_off_c, 3, 47, 64
5, 6955, Note_on_c, 3, 50, 70
5, 7040, Note_off_c, 3, 50, 64
5, 7195, Note_on_c, 3, 52, 76
5, 7306, Note_on_c, 3, 54, 64
5, 7328, Note_off_c, 3, 52, 64
5, 7423, Note_off_c, 3, 54, 64
5, 7433, Note_on_c, 3, 55, 74
5, 7485, Note_off_c, 3, 55, 64
5, 7544, Note_on_c, 3, 59, 68
5, 7606, Note_off_c, 3, 59, 64
5, 7670, Note_on_c, 3, 64, 78
5, 7735, Note_off_c, 3, 64, 64
5, 7786, Note_on_c, 3, 61, 68
5, 7834, Note_off_c, 3, 61, 64
5, 7908, Note_on_c, 3, 59, 76
5, 8048, Note_on_c, 3, 58, 55
5, 8050, Note_off_c, 3, 59, 64
5, 8083, Note_on_c, 3, 59, 70
5, 8086, Note_off_c, 3, 58, 64
5, 8118, Note_on_c, 3, 58, 68
5, 8131, Note_off_c, 3, 59, 64
5, 8151, Note_on_c, 3, 59, 78
5, 8154, Note_off_c, 3, 58, 64
5, 8180, Note_on_c, 3, 58, 72
5, 8199, Note_off_c, 3, 59, 64
5, 8320, Note_off_c, 3, 58, 64
5, 8396, Note_on_c, 3, 54, 59
5, 8504, Note_off_c, 3, 54, 64
5, 8630, Note_on_c, 3, 59, 66
5, 8908, Note_off_c, 3, 59, 64
5, 8984, Note_on_c, 3, 47, 68
5, 9044, Note_off_c, 3, 47, 64
5, 9109, Note_on_c, 3, 49, 66
5, 9172, Note_off_c, 3, 49, 64
5, 9227, Note_on_c, 3, 50, 68
5, 9286, Note_off_c, 3, 50, 64
5, 9358, Note_on_c, 3, 52, 82
5, 9477, Note_off_c, 3, 52, 64
5, 9594, Note_on_c, 3, 55, 58
5, 9699, Note_off_c, 3, 55, 64
5, 9833, Note_on_c, 3, 49, 46
5, 9934, Note_off_c, 3, 49, 64
5, 10081, Note_on_c, 3, 50, 80
5, 10200, Note_off_c, 3, 50, 64
5, 10310, Note_on_c, 3, 54, 59
5, 10406, Note_off_c, 3, 54, 64
5, 10539, Note_on_c, 3, 47, 58
5, 10645, Note_off_c, 3, 47, 64
5, 10794, Note_on_c, 3, 49, 70
5, 10908, Note_off_c, 3, 49, 64
5, 11029, Note_on_c, 3, 46, 63
5, 11124, Note_off_c, 3, 46, 64
5, 11272, Note_on_c, 3, 47, 78
5, 11362, Note_off_c, 3, 47, 64
5, 11523, Note_on_c, 3, 42, 61
5, 12039, Note_off_c, 3, 42, 64
5, 23749, Note_on_c, 3, 46, 58
5, 23836, Note_off_c, 3, 46, 64
5, 23998, Note_on_c, 3, 42, 63
5, 24087, Note_off_c, 3, 42, 64
5, 24237, Note_on_c, 3, 46, 59
5, 24325, Note_off_c, 3, 46, 64
5, 24471, Note_on_c, 3, 47, 72
5, 24585, Note_on_c, 3, 49, 63
5, 24614, Note_off_c, 3, 47, 64
5, 24706, Note_on_c, 3, 50, 70
5, 24724, Note_off_c, 3, 49, 64
5, 24778, Note_off_c, 3, 50, 64
5, 24820, Note_on_c, 3, 54, 58
5, 24884, Note_off_c, 3, 54, 64
5, 24939, Note_on_c, 3, 59, 66
5, 24996, Note_off_c, 3, 59, 64
5, 25059, Note_on_c, 3, 47, 68
5, 25129, Note_off_c, 3, 47, 64
5, 25190, Note_on_c, 3, 49, 57
5, 25276, Note_off_c, 3, 49, 64
5, 25437, Note_on_c, 3, 45, 68
5, 25515, Note_off_c, 3, 45, 64
5, 25662, Note_on_c, 3, 49, 53
5, 25755, Note_off_c, 3, 49, 64
5, 25920, Note_on_c, 3, 50, 72
5, 26036, Note_on_c, 3, 52, 66
5, 26059, Note_off_c, 3, 50, 64
5, 26144, Note_on_c, 3, 54, 52
5, 26163, Note_off_c, 3, 52, 64
5, 26226, Note_off_c, 3, 54, 64
5, 26259, Note_on_c, 3, 57, 66
5, 26322, Note_off_c, 3, 57, 64
5, 26370, Note_on_c, 3, 62, 82
5, 26436, Note_off_c, 3, 62, 64
5, 26485, Note_on_c, 3, 50, 66
5, 26557, Note_off_c, 3, 50, 64
5, 26622, Note_on_c, 3, 55, 68
5, 26718, Note_off_c, 3, 55, 64
5, 26869, Note_on_c, 3, 59, 78
5, 26960, Note_off_c, 3, 59, 64
5, 27109, Note_on_c, 3, 52, 51
5, 27204, Note_off_c, 3, 52, 64
5, 27350, Note_on_c, 3, 54, 60
5, 27442, Note_off_c, 3, 54, 64
5, 27590, Note_on_c, 3, 57, 87
5, 27667, Note_off_c, 3, 57, 64
5, 27826, Note_on_c, 3, 50, 68
5, 27910, Note_off_c, 3, 50, 64
5, 28059, Note_on_c, 3, 47, 68
5, 28161, Note_off_c, 3, 47, 64
5, 28305, Note_on_c, 3, 43, 68
5, 28406, Note_off_c, 3, 43, 64
5, 28546, Note_on_c, 3, 45, 66
5, 28635, Note_off_c, 3, 45, 64
5, 28796, Note_on_c, 3, 38, 78
5, 28903, Note_on_c, 3, 42, 66
5, 28929, Note_off_c, 3, 38, 64
5, 29020, Note_on_c, 3, 45, 74
5, 29029, Note_off_c, 3, 42, 64
5, 29134, Note_on_c, 3, 50, 70
5, 29142, Note_off_c, 3, 45, 64
5, 29251, Note_on_c, 3, 54, 63
5, 29253, Note_off_c, 3, 50, 64
5, 29362, Note_off_c, 3, 54, 64
5, 29366, Note_on_c, 3, 57, 78
5, 29449, Note_off_c, 3, 57, 64
5, 29503, Note_on_c, 3, 47, 70
5, 29630, Note_off_c, 3, 47, 64
5, 29752, Note_on_c, 3, 59, 78
5, 29844, Note_off_c, 3, 59, 64
5, 29990, Note_on_c, 3, 51, 66
5, 30079, Note_off_c, 3, 51, 64
5, 30237, Note_on_c, 3, 52, 64
5, 30349, Note_on_c, 3, 54, 62
5, 30369, Note_off_c, 3, 52, 64
5, 30459, Note_on_c, 3, 55, 68
5, 30477, Note_off_c, 3, 54, 64
5, 30547, Note_off_c, 3, 55, 64
5, 30572, Note_on_c, 3, 59, 74
5, 30633, Note_off_c, 3, 59, 64
5, 30685, Note_on_c, 3, 64, 80
5, 30745, Note_off_c, 3, 64, 64
5, 30807, Note_on_c, 3, 52, 78
5, 30885, Note_off_c, 3, 52, 64
5, 30938, Note_on_c, 3, 57, 70
5, 31022, Note_off_c, 3, 57, 64
5, 31186, Note_on_c, 3, 49, 72
5, 31267, Note_off_c, 3, 49, 64
5, 31425, Note_on_c, 3, 45, 74
5, 31495, Note_off_c, 3, 45, 64
5, 31677, Note_on_c, 3, 38, 80
5, 31784, Note_on_c, 3, 40, 78
5, 31815, Note_off_c, 3, 38, 64
5, 31899, Note_off_c, 3, 40, 64
5, 31904, Note_on_c, 3, 42, 64
5, 31987, Note_off_c, 3, 42, 64
5, 32008, Note_on_c, 3, 45, 59
5, 32094, Note_off_c, 3, 45, 64
5, 32143, Note_on_c, 3, 50, 80
5, 32221, Note_off_c, 3, 50, 64
5, 32250, Note_on_c, 3, 54, 66
5, 32325, Note_off_c, 3, 54, 64
5, 32379, Note_on_c, 3, 49, 72
5, 32467, Note_off_c, 3, 49, 64
5, 32634, Note_on_c, 3, 42, 66
5, 32736, Note_off_c, 3, 42, 64
5, 32872, Note_on_c, 3, 47, 74
5, 32953, Note_off_c, 3, 47, 64
5, 33114, Note_on_c, 3, 40, 82
5, 33212, Note_off_c, 3, 40, 64
5, 33344, Note_on_c, 3, 55, 74
5, 33456, Note_off_c, 3, 55, 64
5, 33460, Note_on_c, 3, 54, 56
5, 33541, Note_off_c, 3, 54, 64
5, 33577, Note_on_c, 3, 52, 64
5, 33666, Note_off_c, 3, 52, 64
5, 33694, Note_on_c, 3, 54, 64
5, 33771, Note_off_c, 3, 54, 64
5, 33818, Note_on_c, 3, 50, 68
5, 33895, Note_off_c, 3, 50, 64
5, 33927, Note_on_c, 3, 52, 68
5, 33997, Note_off_c, 3, 52, 64
5, 34070, Note_on_c, 3, 54, 78
5, 34208, Note_off_c, 3, 54, 64
5, 34318, Note_on_c, 3, 42, 64
5, 34441, Note_off_c, 3, 42, 64
5, 34557, Note_on_c, 3, 47, 70
5, 35305, Note_off_c, 3, 47, 64
5, 35305, End_track
6, 0, Start_track
6, 0, Title_t, "Flute"
6, 0, Program_c, 4, 73
6, 0, Control_c, 4, 7, 127
6, 705, Note_on_c, 4, 71, 64
6, 829, Note_on_c, 4, 73, 57
6, 844, Note_off_c, 4, 71, 64
6, 946, Note_on_c, 4, 74, 59
6, 952, Note_off_c, 4, 73, 64
6, 1011, Note_off_c, 4, 74, 64
6, 1064, Note_on_c, 4, 78, 59
6, 1113, Note_off_c, 4, 78, 64
6, 1192, Note_on_c, 4, 83, 64
6, 1263, Note_off_c, 4, 83, 64
6, 1443, Note_on_c, 4, 81, 59
6, 1676, Note_on_c, 4, 79, 39
6, 1693, Note_off_c, 4, 81, 64
6, 2330, Note_off_c, 4, 79, 64
6, 2383, Note_on_c, 4, 78, 49
6, 2554, Note_off_c, 4, 78, 64
6, 2622, Note_on_c, 4, 76, 53
6, 2768, Note_off_c, 4, 76, 64
6, 2875, Note_on_c, 4, 76, 62
6, 2965, Note_off_c, 4, 76, 64
6, 2974, Note_on_c, 4, 74, 37
6, 3002, Note_on_c, 4, 76, 59
6, 3006, Note_off_c, 4, 74, 64
6, 3042, Note_on_c, 4, 74, 66
6, 3046, Note_off_c, 4, 76, 64
6, 3086, Note_on_c, 4, 73, 52
6, 3097, Note_off_c, 4, 74, 64
6, 3205, Note_on_c, 4, 74, 63
6, 3206, Note_off_c, 4, 73, 64
6, 3320, Note_off_c, 4, 74, 64
6, 3344, Note_on_c, 4, 71, 57
6, 3439, Note_off_c, 4, 71, 64
6, 3585, Note_on_c, 4, 79, 76
6, 3706, Note_on_c, 4, 78, 49
6, 3723, Note_off_c, 4, 79, 64
6, 3830, Note_off_c, 4, 78, 64
6, 3832, Note_on_c, 4, 76, 53
6, 3885, Note_off_c, 4, 76, 64
6, 3944, Note_on_c, 4, 82, 55
6, 3988, Note_off_c, 4, 82, 64
6, 4069, Note_on_c, 4, 83, 54
6, 4120, Note_off_c, 4, 83, 64
6, 4195, Note_on_c, 4, 79, 60
6, 4237, Note_off_c, 4, 79, 64
6, 4318, Note_on_c, 4, 78, 60
6, 4431, Note_on_c, 4, 76, 53
6, 4461, Note_off_c, 4, 78, 64
6, 4555, Note_off_c, 4, 76, 64
6, 4557, Note_on_c, 4, 74, 57
6, 4624, Note_off_c, 4, 74, 64
6, 4666, Note_on_c, 4, 82, 58
6, 4714, Note_off_c, 4, 82, 64
6, 4792, Note_on_c, 4, 83, 68
6, 4845, Note_off_c, 4, 83, 64
6, 4911, Note_on_c, 4, 78, 57
6, 4957, Note_off_c, 4, 78, 64
6, 5043, Note_on_c, 4, 76, 72
6, 5143, Note_on_c, 4, 74, 59
6, 5162, Note_off_c, 4, 76, 64
6, 5266, Note_on_c, 4, 73, 54
6, 5270, Note_off_c, 4, 74, 64
6, 5337, Note_off_c, 4, 73, 64
6, 5377, Note_on_c, 4, 78, 60
6, 5440, Note_off_c, 4, 78, 64
6, 5504, Note_on_c, 4, 74, 70
6, 5560, Note_off_c, 4, 74, 64
6, 5618, Note_on_c, 4, 71, 59
6, 5684, Note_off_c, 4, 71, 64
6, 5758, Note_on_c, 4, 74, 63
6, 6000, Note_on_c, 4, 73, 47
6, 6013, Note_off_c, 4, 74, 64
6, 6312, Note_off_c, 4, 73, 64
6, 6474, Note_on_c, 4, 71, 63
6, 6589, Note_on_c, 4, 73, 49
6, 6609, Note_off_c, 4, 71, 64
6, 6715, Note_on_c, 4, 74, 63
6, 6718, Note_off_c, 4, 73, 64
6, 6775, Note_off_c, 4, 74, 64
6, 6825, Note_on_c, 4, 78, 57
6, 6879, Note_off_c, 4, 78, 64
6, 6957, Note_on_c, 4, 83, 72
6, 7024, Note_off_c, 4, 83, 64
6, 7207, Note_on_c, 4, 81, 64
6, 7364, Note_off_c, 4, 81, 64
6, 7369, Note_on_c, 4, 79, 47
6, 7393, Note_on_c, 4, 81, 61
6, 7400, Note_off_c, 4, 79, 64
6, 7431, Note_on_c, 4, 79, 60
6, 7444, Note_off_c, 4, 81, 64
6, 8070, Note_off_c, 4, 79, 64
6, 8133, Note_on_c, 4, 78, 55
6, 8294, Note_off_c, 4, 78, 64
6, 8374, Note_on_c, 4, 76, 40
6, 8532, Note_off_c, 4, 76, 64
6, 8634, Note_on_c, 4, 76, 60
6, 8739, Note_on_c, 4, 74, 48
6, 8746, Note_off_c, 4, 76, 64
6, 8781, Note_off_c, 4, 74, 64
6, 8782, Note_on_c, 4, 76, 52
6, 8806, Note_on_c, 4, 74, 66
6, 8814, Note_off_c, 4, 76, 64
6, 8857, Note_on_c, 4, 73, 58
6, 8863, Note_off_c, 4, 74, 64
6, 8977, Note_off_c, 4, 73, 64
6, 8977, Note_on_c, 4, 74, 60
6, 9085, Note_off_c, 4, 74, 64
6, 9105, Note_on_c, 4, 71, 58
6, 9220, Note_off_c, 4, 71, 64
6, 9355, Note_on_c, 4, 79, 82
6, 9470, Note_on_c, 4, 78, 50
6, 9488, Note_off_c, 4, 79, 64
6, 9580, Note_off_c, 4, 78, 64
6, 9584, Note_on_c, 4, 76, 55
6, 9639, Note_off_c, 4, 76, 64
6, 9702, Note_on_c, 4, 82, 55
6, 9748, Note_off_c, 4, 82, 64
6, 9829, Note_on_c, 4, 83, 64
6, 9891, Note_off_c, 4, 83, 64
6, 9955, Note_on_c, 4, 79, 58
6, 9999, Note_off_c, 4, 79, 64
6, 10069, Note_on_c, 4, 78, 59
6, 10186, Note_on_c, 4, 76, 57
6, 10214, Note_off_c, 4, 78, 64
6, 10297, Note_off_c, 4, 76, 64
6, 10302, Note_on_c, 4, 74, 60
6, 10366, Note_off_c, 4, 74, 64
6, 10422, Note_on_c, 4, 82, 59
6, 10481, Note_off_c, 4, 82, 64
6, 10552, Note_on_c, 4, 83, 68
6, 10606, Note_off_c, 4, 83, 64
6, 10668, Note_on_c, 4, 78, 64
6, 10710, Note_off_c, 4, 78, 64
6, 10794, Note_on_c, 4, 76, 70
6, 10897, Note_on_c, 4, 74, 57
6, 10922, Note_off_c, 4, 76, 64
6, 11019, Note_on_c, 4, 73, 56
6, 11023, Note_off_c, 4, 74, 64
6, 11086, Note_off_c, 4, 73, 64
6, 11134, Note_on_c, 4, 78, 61
6, 11199, Note_off_c, 4, 78, 64
6, 11263, Note_on_c, 4, 74, 68
6, 11329, Note_off_c, 4, 74, 64
6, 11372, Note_on_c, 4, 71, 57
6, 11436, Note_off_c, 4, 71, 64
6, 11504, Note_on_c, 4, 74, 70
6, 11680, Note_on_c, 4, 73, 42
6, 11684, Note_off_c, 4, 74, 64
6, 11713, Note_on_c, 4, 74, 62
6, 11719, Note_off_c, 4, 73, 64
6, 11749, Note_on_c, 4, 73, 57
6, 11763, Note_off_c, 4, 74, 64
6, 12044, Note_off_c, 4, 73, 64
6, 23749, Note_on_c, 4, 66, 62
6, 23868, Note_on_c, 4, 68, 70
6, 23894, Note_off_c, 4, 66, 64
6, 23984, Note_on_c, 4, 70, 70
6, 23994, Note_off_c, 4, 68, 64
6, 24033, Note_off_c, 4, 70, 64
6, 24099, Note_on_c, 4, 73, 58
6, 24146, Note_off_c, 4, 73, 64
6, 24226, Note_on_c, 4, 78, 64
6, 24302, Note_off_c, 4, 78, 64
6, 24462, Note_on_c, 4, 76, 78
6, 24702, Note_on_c, 4, 74, 44
6, 24711, Note_off_c, 4, 76, 64
6, 25048, Note_off_c, 4, 74, 64
6, 25180, Note_on_c, 4, 69, 78
6, 25302, Note_on_c, 4, 71, 72
6, 25318, Note_off_c, 4, 69, 64
6, 25419, Note_on_c, 4, 73, 62
6, 25424, Note_off_c, 4, 71, 64
6, 25472, Note_off_c, 4, 73, 64
6, 25528, Note_on_c, 4, 76, 66
6, 25586, Note_off_c, 4, 76, 64
6, 25660, Note_on_c, 4, 81, 82
6, 25731, Note_off_c, 4, 81, 64
6, 25908, Note_on_c, 4, 79, 72
6, 26155, Note_on_c, 4, 78, 47
6, 26170, Note_off_c, 4, 79, 64
6, 26470, Note_off_c, 4, 78, 64
6, 26623, Note_on_c, 4, 71, 68
6, 26744, Note_on_c, 4, 69, 59
6, 26758, Note_off_c, 4, 71, 64
6, 26845, Note_off_c, 4, 69, 64
6, 26856, Note_on_c, 4, 67, 60
6, 26922, Note_off_c, 4, 67, 64
6, 26974, Note_on_c, 4, 73, 59
6, 27027, Note_off_c, 4, 73, 64
6, 27098, Note_on_c, 4, 74, 70
6, 27156, Note_off_c, 4, 74, 64
6, 27214, Note_on_c, 4, 71, 57
6, 27261, Note_off_c, 4, 71, 64
6, 27355, Note_on_c, 4, 69, 76
6, 27469, Note_on_c, 4, 67, 52
6, 27484, Note_off_c, 4, 69, 64
6, 27577, Note_off_c, 4, 67, 64
6, 27580, Note_on_c, 4, 66, 59
6, 27646, Note_off_c, 4, 66, 64
6, 27693, Note_on_c, 4, 73, 58
6, 27763, Note_off_c, 4, 73, 64
6, 27811, Note_on_c, 4, 74, 68
6, 27867, Note_off_c, 4, 74, 64
6, 27939, Note_on_c, 4, 69, 60
6, 27996, Note_off_c, 4, 69, 64
6, 28059, Note_on_c, 4, 67, 68
6, 28184, Note_off_c, 4, 67, 64
6, 28311, Note_on_c, 4, 66, 60
6, 28432, Note_off_c, 4, 66, 64
6, 28543, Note_on_c, 4, 66, 80
6, 28581, Note_on_c, 4, 64, 61
6, 28582, Note_off_c, 4, 66, 64
6, 28616, Note_on_c, 4, 66, 78
6, 28627, Note_off_c, 4, 64, 64
6, 28651, Note_on_c, 4, 64, 66
6, 28663, Note_off_c, 4, 66, 64
6, 28722, Note_off_c, 4, 64, 64
6, 28789, Note_on_c, 4, 62, 63
6, 29302, Note_off_c, 4, 62, 64
6, 29511, Note_on_c, 4, 78, 66
6, 29625, Note_on_c, 4, 76, 59
6, 29647, Note_off_c, 4, 78, 64
6, 29721, Note_off_c, 4, 76, 64
6, 29736, Note_on_c, 4, 75, 52
6, 29792, Note_off_c, 4, 75, 64
6, 29850, Note_on_c, 4, 71, 59
6, 29911, Note_off_c, 4, 71, 64
6, 29988, Note_on_c, 4, 81, 72
6, 30066, Note_off_c, 4, 81, 64
6, 30234, Note_on_c, 4, 81, 74
6, 30465, Note_on_c, 4, 79, 55
6, 30495, Note_off_c, 4, 81, 64
6, 30795, Note_off_c, 4, 79, 64
6, 30950, Note_on_c, 4, 73, 63
6, 31056, Note_on_c, 4, 74, 72
6, 31081, Note_off_c, 4, 73, 64
6, 31166, Note_on_c, 4, 76, 58
6, 31171, Note_off_c, 4, 74, 64
6, 31230, Note_off_c, 4, 76, 64
6, 31288, Note_on_c, 4, 81, 68
6, 31346, Note_off_c, 4, 81, 64
6, 31426, Note_on_c, 4, 79, 70
6, 31507, Note_off_c, 4, 79, 64
6, 31664, Note_on_c, 4, 79, 76
6, 31923, Note_on_c, 4, 78, 53
6, 31939, Note_off_c, 4, 79, 64
6, 32239, Note_off_c, 4, 78, 64
6, 32389, Note_on_c, 4, 70, 66
6, 32507, Note_on_c, 4, 71, 61
6, 32552, Note_off_c, 4, 70, 64
6, 32624, Note_on_c, 4, 73, 56
6, 32631, Note_off_c, 4, 71, 64
6, 32686, Note_off_c, 4, 73, 64
6, 32740, Note_on_c, 4, 76, 66
6, 32796, Note_off_c, 4, 76, 64
6, 32865, Note_on_c, 4, 74, 70
6, 32924, Note_off_c, 4, 74, 64
6, 32974, Note_on_c, 4, 71, 63
6, 33020, Note_off_c, 4, 71, 64
6, 33106, Note_on_c, 4, 67, 78
6, 33221, Note_on_c, 4, 66, 58
6, 33238, Note_off_c, 4, 67, 64
6, 33338, Note_off_c, 4, 66, 64
6, 33346, Note_on_c, 4, 64, 64
6, 33388, Note_off_c, 4, 64, 64
6, 33460, Note_on_c, 4, 74, 58
6, 33513, Note_off_c, 4, 74, 64
6, 33592, Note_on_c, 4, 73, 55
6, 33655, Note_off_c, 4, 73, 64
6, 33706, Note_on_c, 4, 82, 66
6, 33754, Note_off_c, 4, 82, 64
6, 33820, Note_on_c, 4, 82, 87
6, 33932, Note_on_c, 4, 83, 64
6, 33944, Note_off_c, 4, 82, 64
6, 34002, Note_off_c, 4, 83, 64
6, 34063, Note_on_c, 4, 78, 64
6, 34180, Note_on_c, 4, 76, 63
6, 34200, Note_off_c, 4, 78, 64
6, 34240, Note_off_c, 4, 76, 64
6, 34312, Note_on_c, 4, 74, 74
6, 34419, Note_on_c, 4, 73, 55
6, 34425, Note_off_c, 4, 74, 64
6, 34492, Note_off_c, 4, 73, 64
6, 34555, Note_on_c, 4, 71, 57
6, 35311, Note_off_c, 4, 71, 64
6, 35311, End_track
7, 0, Start_track
7, 0, Title_t, "Violin1"
7, 0, Program_c, 0, 40
7, 0, Control_c, 0, 7, 100
7, 12225, Note_on_c, 0, 66, 82
7, 12344, Note_on_c, 0, 68, 64
7, 12373, Note_off_c, 0, 66, 64
7, 12452, Note_off_c, 0, 68, 64
7, 12463, Note_on_c, 0, 70, 59
7, 12512, Note_off_c, 0, 70, 64
7, 12586, Note_on_c, 0, 73, 54
7, 12636, Note_off_c, 0, 73, 64
7, 12712, Note_on_c, 0, 78, 68
7, 12783, Note_off_c, 0, 78, 64
7, 12956, Note_on_c, 0, 76, 80
7, 13213, Note_on_c, 0, 74, 47
7, 13221, Note_off_c, 0, 76, 64
7, 13507, Note_off_c, 0, 74, 64
7, 13666, Note_on_c, 0, 69, 82
7, 13800, Note_on_c, 0, 71, 66
7, 13826, Note_off_c, 0, 69, 64
7, 13912, Note_off_c, 0, 71, 64
7, 13916, Note_on_c, 0, 73, 61
7, 13962, Note_off_c, 0, 73, 64
7, 14026, Note_on_c, 0, 76, 60
7, 14070, Note_off_c, 0, 76, 64
7, 14152, Note_on_c, 0, 81, 70
7, 14222, Note_off_c, 0, 81, 64
7, 14390, Note_on_c, 0, 79, 82
7, 14634, Note_on_c, 0, 78, 52
7, 14642, Note_off_c, 0, 79, 64
7, 14931, Note_off_c, 0, 78, 64
7, 15106, Note_on_c, 0, 71, 82
7, 15229, Note_on_c, 0, 69, 68
7, 15252, Note_off_c, 0, 71, 64
7, 15322, Note_off_c, 0, 69, 64
7, 15338, Note_on_c, 0, 67, 60
7, 15390, Note_off_c, 0, 67, 64
7, 15456, Note_on_c, 0, 73, 63
7, 15496, Note_off_c, 0, 73, 64
7, 15578, Note_on_c, 0, 74, 68
7, 15639, Note_off_c, 0, 74, 64
7, 15704, Note_on_c, 0, 71, 66
7, 15754, Note_off_c, 0, 71, 64
7, 15832, Note_on_c, 0, 69, 82
7, 15939, Note_on_c, 0, 67, 61
7, 15962, Note_off_c, 0, 69, 64
7, 16054, Note_off_c, 0, 67, 64
7, 16060, Note_on_c, 0, 66, 58
7, 16125, Note_off_c, 0, 66, 64
7, 16176, Note_on_c, 0, 73, 57
7, 16240, Note_off_c, 0, 73, 64
7, 16294, Note_on_c, 0, 74, 76
7, 16347, Note_off_c, 0, 74, 64
7, 16408, Note_on_c, 0, 69, 63
7, 16466, Note_off_c, 0, 69, 64
7, 16540, Note_on_c, 0, 67, 59
7, 16623, Note_off_c, 0, 67, 64
7, 16790, Note_on_c, 0, 66, 61
7, 16881, Note_off_c, 0, 66, 64
7, 17016, Note_on_c, 0, 66, 68
7, 17054, Note_on_c, 0, 64, 60
7, 17059, Note_off_c, 0, 66, 64
7, 17088, Note_on_c, 0, 66, 70
7, 17096, Note_off_c, 0, 64, 64
7, 17121, Note_on_c, 0, 64, 66
7, 17134, Note_off_c, 0, 66, 64
7, 17187, Note_off_c, 0, 64, 64
7, 17275, Note_on_c, 0, 62, 57
7, 17779, Note_off_c, 0, 62, 64
7, 17992, Note_on_c, 0, 78, 80
7, 18106, Note_on_c, 0, 76, 68
7, 18133, Note_off_c, 0, 78, 64
7, 18189, Note_off_c, 0, 76, 64
7, 18218, Note_on_c, 0, 75, 56
7, 18276, Note_off_c, 0, 75, 64
7, 18336, Note_on_c, 0, 71, 61
7, 18392, Note_off_c, 0, 71, 64
7, 18468, Note_on_c, 0, 81, 72
7, 18536, Note_off_c, 0, 81, 64
7, 18715, Note_on_c, 0, 81, 72
7, 18948, Note_on_c, 0, 79, 62
7, 18979, Note_off_c, 0, 81, 64
7, 19244, Note_off_c, 0, 79, 64
7, 19424, Note_on_c, 0, 73, 63
7, 19536, Note_on_c, 0, 74, 74
7, 19575, Note_off_c, 0, 73, 64
7, 19650, Note_off_c, 0, 74, 64
7, 19658, Note_on_c, 0, 76, 60
7, 19708, Note_off_c, 0, 76, 64
7, 19768, Note_on_c, 0, 81, 66
7, 19822, Note_off_c, 0, 81, 64
7, 19900, Note_on_c, 0, 79, 70
7, 19975, Note_off_c, 0, 79, 64
7, 20150, Note_on_c, 0, 79, 76
7, 20385, Note_on_c, 0, 78, 52
7, 20407, Note_off_c, 0, 79, 64
7, 20691, Note_off_c, 0, 78, 64
7, 20863, Note_on_c, 0, 70, 64
7, 20990, Note_on_c, 0, 71, 60
7, 21022, Note_off_c, 0, 70, 64
7, 21096, Note_off_c, 0, 71, 64
7, 21102, Note_on_c, 0, 73, 60
7, 21151, Note_off_c, 0, 73, 64
7, 21213, Note_on_c, 0, 76, 78
7, 21272, Note_off_c, 0, 76, 64
7, 21340, Note_on_c, 0, 74, 76
7, 21403, Note_off_c, 0, 74, 64
7, 21465, Note_on_c, 0, 71, 70
7, 21508, Note_off_c, 0, 71, 64
7, 21595, Note_on_c, 0, 67, 85
7, 21715, Note_on_c, 0, 66, 57
7, 21732, Note_off_c, 0, 67, 64
7, 21804, Note_off_c, 0, 66, 64
7, 21831, Note_on_c, 0, 64, 66
7, 21876, Note_off_c, 0, 64, 64
7, 21946, Note_on_c, 0, 74, 58
7, 21997, Note_off_c, 0, 74, 64
7, 22068, Note_on_c, 0, 73, 56
7, 22138, Note_off_c, 0, 73, 64
7, 22188, Note_on_c, 0, 82, 74
7, 22240, Note_off_c, 0, 82, 64
7, 22308, Note_on_c, 0, 82, 93
7, 22416, Note_on_c, 0, 83, 66
7, 22438, Note_off_c, 0, 82, 64
7, 22483, Note_off_c, 0, 83, 64
7, 22549, Note_on_c, 0, 78, 66
7, 22671, Note_on_c, 0, 76, 66
7, 22686, Note_off_c, 0, 78, 64
7, 22719, Note_off_c, 0, 76, 64
7, 22795, Note_on_c, 0, 74, 72
7, 22898, Note_on_c, 0, 73, 59
7, 22903, Note_off_c, 0, 74, 64
7, 22983, Note_off_c, 0, 73, 64
7, 23040, Note_on_c, 0, 71, 55
7, 23552, Note_off_c, 0, 71, 64
7, 23552, End_track
8, 0, Start_track
8, 0, Title_t, "Violin2"
8, 0, Program_c, 1, 40
8, 0, Control_c, 1, 7, 100
8, 12242, Note_on_c, 1, 66, 53
8, 12375, Note_off_c, 1, 66, 64
8, 12473, Note_on_c, 1, 73, 52
8, 12599, Note_off_c, 1, 73, 64
8, 12707, Note_on_c, 1, 73, 57
8, 12819, Note_off_c, 1, 73, 64
8, 12953, Note_on_c, 1, 71, 52
8, 13515, Note_off_c, 1, 71, 64
8, 13664, Note_on_c, 1, 64, 63
8, 13791, Note_off_c, 1, 64, 64
8, 13908, Note_on_c, 1, 69, 59
8, 14019, Note_off_c, 1, 69, 64
8, 14138, Note_on_c, 1, 69, 63
8, 14248, Note_off_c, 1, 69, 64
8, 14388, Note_on_c, 1, 69, 58
8, 14945, Note_off_c, 1, 69, 64
8, 15111, Note_on_c, 1, 67, 66
8, 15233, Note_off_c, 1, 67, 64
8, 15351, Note_on_c, 1, 62, 60
8, 15453, Note_off_c, 1, 62, 64
8, 15589, Note_on_c, 1, 67, 64
8, 15688, Note_off_c, 1, 67, 64
8, 15839, Note_on_c, 1, 69, 78
8, 15966, Note_off_c, 1, 69, 64
8, 16071, Note_on_c, 1, 62, 60
8, 16182, Note_off_c, 1, 62, 64
8, 16311, Note_on_c, 1, 66, 61
8, 16421, Note_off_c, 1, 66, 64
8, 16551, Note_on_c, 1, 55, 68
8, 16678, Note_off_c, 1, 55, 64
8, 16796, Note_on_c, 1, 59, 66
8, 16904, Note_off_c, 1, 59, 64
8, 17034, Note_on_c, 1, 61, 58
8, 17145, Note_off_c, 1, 61, 64
8, 17286, Note_on_c, 1, 57, 57
8, 17784, Note_off_c, 1, 57, 64
8, 17997, Note_on_c, 1, 75, 70
8, 18101, Note_on_c, 1, 76, 68
8, 18106, Note_off_c, 1, 75, 64
8, 18220, Note_off_c, 1, 76, 64
8, 18225, Note_on_c, 1, 78, 52
8, 18322, Note_off_c, 1, 78, 64
8, 18471, Note_on_c, 1, 78, 64
8, 18552, Note_off_c, 1, 78, 64
8, 18710, Note_on_c, 1, 76, 68
8, 19230, Note_off_c, 1, 76, 64
8, 19431, Note_on_c, 1, 64, 63
8, 19545, Note_off_c, 1, 64, 64
8, 19661, Note_on_c, 1, 69, 64
8, 19768, Note_off_c, 1, 69, 64
8, 19899, Note_on_c, 1, 73, 64
8, 20004, Note_off_c, 1, 73, 64
8, 20146, Note_on_c, 1, 74, 68
8, 20723, Note_off_c, 1, 74, 64
8, 20866, Note_on_c, 1, 76, 64
8, 20978, Note_off_c, 1, 76, 64
8, 21117, Note_on_c, 1, 70, 60
8, 21207, Note_off_c, 1, 70, 64
8, 21350, Note_on_c, 1, 71, 66
8, 21728, Note_off_c, 1, 71, 64
8, 21827, Note_on_c, 1, 76, 64
8, 21936, Note_off_c, 1, 76, 64
8, 22056, Note_on_c, 1, 79, 70
8, 22184, Note_off_c, 1, 79, 64
8, 22317, Note_on_c, 1, 78, 80
8, 22418, Note_on_c, 1, 76, 72
8, 22436, Note_off_c, 1, 78, 64
8, 22487, Note_off_c, 1, 76, 64
8, 22548, Note_on_c, 1, 74, 74
8, 22659, Note_on_c, 1, 73, 63
8, 22665, Note_off_c, 1, 74, 64
8, 22720, Note_off_c, 1, 73, 64
8, 22791, Note_on_c, 1, 71, 66
8, 22899, Note_on_c, 1, 70, 58
8, 22902, Note_off_c, 1, 71, 64
8, 22964, Note_off_c, 1, 70, 64
8, 23030, Note_on_c, 1, 71, 60
8, 23038, Note_on_c, 1, 66, 59
8, 23535, Note_off_c, 1, 66, 64
8, 23542, Note_off_c, 1, 71, 64
8, 23542, End_track
9, 0, Start_track
9, 0, Title_t, "Viola"
9, 0, Program_c, 2, 41
9, 0, Control_c, 2, 7, 100
9, 12226, Note_on_c, 2, 61, 56
9, 12358, Note_off_c, 2, 61, 64
9, 12464, Note_on_c, 2, 66, 59
9, 12580, Note_off_c, 2, 66, 64
9, 12706, Note_on_c, 2, 66, 61
9, 12813, Note_off_c, 2, 66, 64
9, 12954, Note_on_c, 2, 66, 57
9, 13551, Note_off_c, 2, 66, 64
9, 13678, Note_on_c, 2, 69, 70
9, 13788, Note_off_c, 2, 69, 64
9, 13908, Note_on_c, 2, 64, 64
9, 14032, Note_off_c, 2, 64, 64
9, 14151, Note_on_c, 2, 64, 66
9, 14272, Note_off_c, 2, 64, 64
9, 14398, Note_on_c, 2, 62, 60
9, 14974, Note_off_c, 2, 62, 64
9, 15098, Note_on_c, 2, 62, 66
9, 15232, Note_off_c, 2, 62, 64
9, 15342, Note_on_c, 2, 67, 61
9, 15456, Note_off_c, 2, 67, 64
9, 15580, Note_on_c, 2, 71, 63
9, 15698, Note_off_c, 2, 71, 64
9, 15834, Note_on_c, 2, 62, 70
9, 15943, Note_off_c, 2, 62, 64
9, 16059, Note_on_c, 2, 66, 60
9, 16168, Note_off_c, 2, 66, 64
9, 16304, Note_on_c, 2, 69, 68
9, 16419, Note_off_c, 2, 69, 64
9, 16546, Note_on_c, 2, 62, 63
9, 16639, Note_off_c, 2, 62, 64
9, 16788, Note_on_c, 2, 62, 72
9, 16894, Note_off_c, 2, 62, 64
9, 17030, Note_on_c, 2, 57, 64
9, 17148, Note_off_c, 2, 57, 64
9, 17276, Note_on_c, 2, 54, 63
9, 17800, Note_off_c, 2, 54, 64
9, 18006, Note_on_c, 2, 59, 60
9, 18123, Note_off_c, 2, 59, 64
9, 18238, Note_on_c, 2, 59, 64
9, 18351, Note_off_c, 2, 59, 64
9, 18474, Note_on_c, 2, 59, 57
9, 18579, Note_off_c, 2, 59, 64
9, 18727, Note_on_c, 2, 59, 52
9, 19303, Note_off_c, 2, 59, 64
9, 19420, Note_on_c, 2, 57, 56
9, 19560, Note_off_c, 2, 57, 64
9, 19671, Note_on_c, 2, 57, 70
9, 19788, Note_off_c, 2, 57, 64
9, 19897, Note_on_c, 2, 57, 70
9, 20008, Note_off_c, 2, 57, 64
9, 20150, Note_on_c, 2, 57, 66
9, 20652, Note_off_c, 2, 57, 64
9, 20864, Note_on_c, 2, 67, 66
9, 21026, Note_off_c, 2, 67, 64
9, 21115, Note_on_c, 2, 66, 53
9, 21229, Note_off_c, 2, 66, 64
9, 21346, Note_on_c, 2, 66, 60
9, 21459, Note_off_c, 2, 66, 64
9, 21586, Note_on_c, 2, 64, 66
9, 21724, Note_off_c, 2, 64, 64
9, 21826, Note_on_c, 2, 59, 62
9, 21958, Note_off_c, 2, 59, 64
9, 22071, Note_on_c, 2, 61, 56
9, 22200, Note_off_c, 2, 61, 64
9, 22314, Note_on_c, 2, 62, 72
9, 22414, Note_off_c, 2, 62, 64
9, 22422, Note_on_c, 2, 61, 64
9, 22502, Note_off_c, 2, 61, 64
9, 22545, Note_on_c, 2, 59, 68
9, 22652, Note_off_c, 2, 59, 64
9, 22796, Note_on_c, 2, 66, 78
9, 22903, Note_off_c, 2, 66, 64
9, 23041, Note_on_c, 2, 62, 60
9, 23558, Note_off_c, 2, 62, 64
9, 23558, End_track
10, 0, Start_track
10, 0, Title_t, "Cello"
10, 0, Program_c, 3, 42
10, 0, Control_c, 3, 7, 100
10, 12224, Note_on_c, 3, 46, 52
10, 12333, Note_off_c, 3, 46, 64
10, 12471, Note_on_c, 3, 42, 60
10, 12571, Note_off_c, 3, 42, 64
10, 12711, Note_on_c, 3, 46, 64
10, 12796, Note_off_c, 3, 46, 64
10, 12945, Note_on_c, 3, 47, 78
10, 13063, Note_on_c, 3, 49, 66
10, 13081, Note_off_c, 3, 47, 64
10, 13160, Note_off_c, 3, 49, 64
10, 13180, Note_on_c, 3, 50, 66
10, 13249, Note_off_c, 3, 50, 64
10, 13294, Note_on_c, 3, 54, 66
10, 13359, Note_off_c, 3, 54, 64
10, 13418, Note_on_c, 3, 59, 70
10, 13478, Note_off_c, 3, 59, 64
10, 13528, Note_on_c, 3, 47, 58
10, 13614, Note_off_c, 3, 47, 64
10, 13662, Note_on_c, 3, 49, 66
10, 13774, Note_off_c, 3, 49, 64
10, 13908, Note_on_c, 3, 45, 58
10, 14017, Note_off_c, 3, 45, 64
10, 14144, Note_on_c, 3, 49, 61
10, 14238, Note_off_c, 3, 49, 64
10, 14389, Note_on_c, 3, 50, 80
10, 14504, Note_on_c, 3, 52, 76
10, 14518, Note_off_c, 3, 50, 64
10, 14588, Note_off_c, 3, 52, 64
10, 14616, Note_on_c, 3, 54, 60
10, 14684, Note_off_c, 3, 54, 64
10, 14720, Note_on_c, 3, 57, 60
10, 14764, Note_off_c, 3, 57, 64
10, 14865, Note_on_c, 3, 62, 56
10, 14932, Note_off_c, 3, 62, 64
10, 14976, Note_on_c, 3, 50, 52
10, 15052, Note_off_c, 3, 50, 64
10, 15106, Note_on_c, 3, 55, 66
10, 15199, Note_off_c, 3, 55, 64
10, 15352, Note_on_c, 3, 59, 64
10, 15445, Note_off_c, 3, 59, 64
10, 15591, Note_on_c, 3, 52, 68
10, 15687, Note_off_c, 3, 52, 64
10, 15840, Note_on_c, 3, 54, 68
10, 15946, Note_off_c, 3, 54, 64
10, 16071, Note_on_c, 3, 57, 76
10, 16153, Note_off_c, 3, 57, 64
10, 16316, Note_on_c, 3, 50, 74
10, 16400, Note_off_c, 3, 50, 64
10, 16550, Note_on_c, 3, 47, 68
10, 16652, Note_off_c, 3, 47, 64
10, 16786, Note_on_c, 3, 43, 64
10, 16885, Note_off_c, 3, 43, 64
10, 17035, Note_on_c, 3, 45, 66
10, 17127, Note_off_c, 3, 45, 64
10, 17273, Note_on_c, 3, 38, 70
10, 17384, Note_on_c, 3, 42, 60
10, 17410, Note_off_c, 3, 38, 64
10, 17509, Note_on_c, 3, 45, 64
10, 17522, Note_off_c, 3, 42, 64
10, 17624, Note_on_c, 3, 50, 63
10, 17629, Note_off_c, 3, 45, 64
10, 17743, Note_on_c, 3, 54, 60
10, 17746, Note_off_c, 3, 50, 64
10, 17829, Note_off_c, 3, 54, 64
10, 17850, Note_on_c, 3, 57, 74
10, 17938, Note_off_c, 3, 57, 64
10, 17983, Note_on_c, 3, 47, 70
10, 18120, Note_off_c, 3, 47, 64
10, 18230, Note_on_c, 3, 59, 80
10, 18331, Note_off_c, 3, 59, 64
10, 18471, Note_on_c, 3, 51, 68
10, 18567, Note_off_c, 3, 51, 64
10, 18705, Note_on_c, 3, 52, 76
10, 18818, Note_on_c, 3, 54, 61
10, 18835, Note_off_c, 3, 52, 64
10, 18928, Note_off_c, 3, 54, 64
10, 18939, Note_on_c, 3, 55, 68
10, 19021, Note_off_c, 3, 55, 64
10, 19050, Note_on_c, 3, 59, 66
10, 19114, Note_off_c, 3, 59, 64
10, 19174, Note_on_c, 3, 64, 66
10, 19232, Note_off_c, 3, 64, 64
10, 19288, Note_on_c, 3, 52, 58
10, 19364, Note_off_c, 3, 52, 64
10, 19417, Note_on_c, 3, 57, 64
10, 19514, Note_off_c, 3, 57, 64
10, 19666, Note_on_c, 3, 49, 68
10, 19760, Note_off_c, 3, 49, 64
10, 19896, Note_on_c, 3, 45, 64
10, 19989, Note_off_c, 3, 45, 64
10, 20156, Note_on_c, 3, 38, 70
10, 20257, Note_on_c, 3, 40, 60
10, 20287, Note_off_c, 3, 38, 64
10, 20382, Note_off_c, 3, 40, 64
10, 20383, Note_on_c, 3, 42, 66
10, 20494, Note_off_c, 3, 42, 64
10, 20496, Note_on_c, 3, 45, 63
10, 20589, Note_off_c, 3, 45, 64
10, 20606, Note_on_c, 3, 50, 66
10, 20698, Note_off_c, 3, 50, 64
10, 20720, Note_on_c, 3, 54, 64
10, 20806, Note_off_c, 3, 54, 64
10, 20848, Note_on_c, 3, 49, 66
10, 20961, Note_off_c, 3, 49, 64
10, 21117, Note_on_c, 3, 42, 66
10, 21218, Note_off_c, 3, 42, 64
10, 21336, Note_on_c, 3, 47, 64
10, 21440, Note_off_c, 3, 47, 64
10, 21600, Note_on_c, 3, 40, 70
10, 21728, Note_off_c, 3, 40, 64
10, 21831, Note_on_c, 3, 55, 74
10, 21921, Note_off_c, 3, 55, 64
10, 21942, Note_on_c, 3, 54, 59
10, 22020, Note_off_c, 3, 54, 64
10, 22056, Note_on_c, 3, 52, 61
10, 22148, Note_off_c, 3, 52, 64
10, 22173, Note_on_c, 3, 54, 63
10, 22252, Note_off_c, 3, 54, 64
10, 22296, Note_on_c, 3, 50, 64
10, 22395, Note_off_c, 3, 50, 64
10, 22420, Note_on_c, 3, 52, 80
10, 22513, Note_off_c, 3, 52, 64
10, 22542, Note_on_c, 3, 54, 68
10, 22633, Note_off_c, 3, 54, 64
10, 22792, Note_on_c, 3, 42, 68
10, 22902, Note_off_c, 3, 42, 64
10, 23047, Note_on_c, 3, 47, 74
10, 23527, Note_off_c, 3, 47, 64
10, 23527, End_track
11, 0, Start_track
11, 0, Title_t, "Flute"
11, 0, Program_c, 4, 73
11, 0, Control_c, 4, 7, 127
11, 12229, Note_on_c, 4, 66, 59
11, 12354, Note_on_c, 4, 68, 68
11, 12384, Note_off_c, 4, 66, 64
11, 12468, Note_on_c, 4, 70, 66
11, 12469, Note_off_c, 4, 68, 64
11, 12512, Note_off_c, 4, 70, 64
11, 12585, Note_on_c, 4, 73, 51
11, 12624, Note_off_c, 4, 73, 64
11, 12716, Note_on_c, 4, 78, 60
11, 12794, Note_off_c, 4, 78, 64
11, 12950, Note_on_c, 4, 76, 63
11, 13184, Note_on_c, 4, 74, 44
11, 13195, Note_off_c, 4, 76, 64
11, 13522, Note_off_c, 4, 74, 64
11, 13670, Note_on_c, 4, 69, 58
11, 13796, Note_on_c, 4, 71, 66
11, 13819, Note_off_c, 4, 69, 64
11, 13906, Note_off_c, 4, 71, 64
11, 13910, Note_on_c, 4, 73, 57
11, 13968, Note_off_c, 4, 73, 64
11, 14025, Note_on_c, 4, 76, 76
11, 14070, Note_off_c, 4, 76, 64
11, 14146, Note_on_c, 4, 81, 80
11, 14228, Note_off_c, 4, 81, 64
11, 14388, Note_on_c, 4, 79, 80
11, 14628, Note_on_c, 4, 78, 47
11, 14638, Note_off_c, 4, 79, 64
11, 14904, Note_off_c, 4, 78, 64
11, 15103, Note_on_c, 4, 71, 78
11, 15225, Note_on_c, 4, 69, 62
11, 15243, Note_off_c, 4, 71, 64
11, 15322, Note_off_c, 4, 69, 64
11, 15342, Note_on_c, 4, 67, 52
11, 15397, Note_off_c, 4, 67, 64
11, 15457, Note_on_c, 4, 73, 62
11, 15499, Note_off_c, 4, 73, 64
11, 15577, Note_on_c, 4, 74, 68
11, 15642, Note_off_c, 4, 74, 64
11, 15703, Note_on_c, 4, 71, 66
11, 15757, Note_off_c, 4, 71, 64
11, 15823, Note_on_c, 4, 69, 82
11, 15928, Note_on_c, 4, 67, 60
11, 15949, Note_off_c, 4, 69, 64
11, 16059, Note_off_c, 4, 67, 64
11, 16060, Note_on_c, 4, 66, 60
11, 16140, Note_off_c, 4, 66, 64
11, 16179, Note_on_c, 4, 73, 57
11, 16244, Note_off_c, 4, 73, 64
11, 16298, Note_on_c, 4, 74, 66
11, 16353, Note_off_c, 4, 74, 64
11, 16418, Note_on_c, 4, 69, 78
11, 16472, Note_off_c, 4, 69, 64
11, 16545, Note_on_c, 4, 67, 74
11, 16646, Note_off_c, 4, 67, 64
11, 16790, Note_on_c, 4, 66, 64
11, 16892, Note_off_c, 4, 66, 64
11, 17019, Note_on_c, 4, 66, 80
11, 17054, Note_on_c, 4, 64, 68
11, 17058, Note_off_c, 4, 66, 64
11, 17091, Note_on_c, 4, 66, 64
11, 17098, Note_off_c, 4, 64, 64
11, 17122, Note_on_c, 4, 64, 63
11, 17139, Note_off_c, 4, 66, 64
11, 17190, Note_off_c, 4, 64, 64
11, 17280, Note_on_c, 4, 62, 57
11, 17762, Note_off_c, 4, 62, 64
11, 17988, Note_on_c, 4, 78, 74
11, 18102, Note_on_c, 4, 76, 63
11, 18122, Note_off_c, 4, 78, 64
11, 18211, Note_off_c, 4, 76, 64
11, 18216, Note_on_c, 4, 75, 57
11, 18265, Note_off_c, 4, 75, 64
11, 18328, Note_on_c, 4, 71, 60
11, 18385, Note_off_c, 4, 71, 64
11, 18465, Note_on_c, 4, 81, 66
11, 18538, Note_off_c, 4, 81, 64
11, 18715, Note_on_c, 4, 81, 72
11, 18949, Note_on_c, 4, 79, 57
11, 18980, Note_off_c, 4, 81, 64
11, 19274, Note_off_c, 4, 79, 64
11, 19434, Note_on_c, 4, 73, 72
11, 19544, Note_on_c, 4, 74, 72
11, 19573, Note_off_c, 4, 73, 64
11, 19654, Note_off_c, 4, 74, 64
11, 19662, Note_on_c, 4, 76, 61
11, 19713, Note_off_c, 4, 76, 64
11, 19774, Note_on_c, 4, 81, 68
11, 19830, Note_off_c, 4, 81, 64
11, 19909, Note_on_c, 4, 79, 74
11, 19986, Note_off_c, 4, 79, 64
11, 20158, Note_on_c, 4, 79, 80
11, 20407, Note_on_c, 4, 78, 53
11, 20413, Note_off_c, 4, 79, 64
11, 20702, Note_off_c, 4, 78, 64
11, 20882, Note_on_c, 4, 70, 64
11, 20995, Note_on_c, 4, 71, 60
11, 21032, Note_off_c, 4, 70, 64
11, 21120, Note_on_c, 4, 73, 58
11, 21131, Note_off_c, 4, 71, 64
11, 21183, Note_off_c, 4, 73, 64
11, 21228, Note_on_c, 4, 76, 70
11, 21274, Note_off_c, 4, 76, 64
11, 21346, Note_on_c, 4, 74, 66
11, 21400, Note_off_c, 4, 74, 64
11, 21459, Note_on_c, 4, 71, 61
11, 21496, Note_off_c, 4, 71, 64
11, 21591, Note_on_c, 4, 67, 72
11, 21710, Note_on_c, 4, 66, 54
11, 21728, Note_off_c, 4, 67, 64
11, 21810, Note_off_c, 4, 66, 64
11, 21834, Note_on_c, 4, 64, 64
11, 21877, Note_off_c, 4, 64, 64
11, 21950, Note_on_c, 4, 74, 64
11, 22008, Note_off_c, 4, 74, 64
11, 22069, Note_on_c, 4, 73, 68
11, 22111, Note_off_c, 4, 73, 64
11, 22178, Note_on_c, 4, 82, 57
11, 22231, Note_off_c, 4, 82, 64
11, 22314, Note_on_c, 4, 82, 89
11, 22427, Note_on_c, 4, 83, 61
11, 22436, Note_off_c, 4, 82, 64
11, 22494, Note_off_c, 4, 83, 64
11, 22570, Note_on_c, 4, 78, 85
11, 22666, Note_on_c, 4, 76, 64
11, 22682, Note_off_c, 4, 78, 64
11, 22722, Note_off_c, 4, 76, 64
11, 22800, Note_on_c, 4, 74, 72
11, 22903, Note_on_c, 4, 73, 48
11, 22904, Note_off_c, 4, 74, 64
11, 22983, Note_off_c, 4, 73, 64
11, 23041, Note_on_c, 4, 71, 48
11, 23529, Note_off_c, 4, 71, 64
11, 23529, End_track
0, 0, End_of_file
