0, 0, Header, 1, 2, 480
1, 0, Start_track
1, 0, Time_signature, 4, 2, 24, 8
1, 0, Tempo, 500000
1, 0, Title_t, "untitled"
1, 0, SMPTE_offset, 96, 0, 3, 0, 0
1, 0, End_track
2, 0, Start_track
2, 0, MIDI_port, 0
2, 0, Control_c, 0, 7, 100
2, 0, Control_c, 0, 10, 74
2, 120, Note_on_c, 0, 43, 100
2, 240, Note_on_c, 0, 58, 100
2, 360, Note_on_c, 0, 58, 0
2, 360, Note_on_c, 0, 60, 100
2, 480, Note_on_c, 0, 60, 0
2, 480, Note_on_c, 0, 62, 100
2, 600, Note_on_c, 0, 43, 0
2, 600, Note_on_c, 0, 55, 100
2, 600, Note_on_c, 0, 63, 100
2, 660, Note_on_c, 0, 62, 0
2, 720, Note_on_c, 0, 63, 0
2, 720, Note_on_c, 0, 62, 100
2, 840, Note_on_c, 0, 62, 0
2, 840, Note_on_c, 0, 60, 100
2, 960, Note_on_c, 0, 60, 0
2, 960, Note_on_c, 0, 58, 100
2, 1080, Note_on_c, 0, 55, 0
2, 1080, Note_on_c, 0, 54, 100
2, 1080, Note_on_c, 0, 57, 100
2, 1140, Note_on_c, 0, 58, 0
2, 1200, Note_on_c, 0, 69, 100
2, 1320, Note_on_c, 0, 57, 0
2, 1320, Note_on_c, 0, 63, 100
2, 1320, Note_on_c, 0, 70, 100
2, 1380, Note_on_c, 0, 69, 0
2, 1440, Note_on_c, 0, 70, 0
2, 1440, Note_on_c, 0, 72, 100
2, 1560, Note_on_c, 0, 54, 0
2, 1560, Note_on_c, 0, 72, 0
2, 1560, Note_on_c, 0, 53, 100
2, 1560, Note_on_c, 0, 57, 100
2, 1560, Note_on_c, 0, 74, 100
2, 1620, Note_on_c, 0, 63, 0
2, 1680, Note_on_c, 0, 74, 0
2, 1680, Note_on_c, 0, 72, 100
2, 1800, Note_on_c, 0, 57, 0
2, 1800, Note_on_c, 0, 62, 100
2, 1800, Note_on_c, 0, 70, 100
2, 1860, Note_on_c, 0, 72, 0
2, 1920, Note_on_c, 0, 70, 0
2, 1920, Note_on_c, 0, 69, 100
2, 2040, Note_on_c, 0, 53, 0
2, 2040, Note_on_c, 0, 69, 0
2, 2040, Note_on_c, 0, 52, 100
2, 2040, Note_on_c, 0, 67, 100
2, 2160, Note_on_c, 0, 62, 0
2, 2160, Note_on_c, 0, 55, 100
2, 2280, Note_on_c, 0, 67, 0
2, 2280, Note_on_c, 0, 57, 100
2, 2280, Note_on_c, 0, 74, 100
2, 2340, Note_on_c, 0, 55, 0
2, 2400, Note_on_c, 0, 57, 0
2, 2400, Note_on_c, 0, 58, 100
2, 2520, Note_on_c, 0, 52, 0
2, 2520, Note_on_c, 0, 58, 0
2, 2520, Note_on_c, 0, 51, 100
2, 2520, Note_on_c, 0, 60, 100
2, 2520, Note_on_c, 0, 67, 100
2, 2580, Note_on_c, 0, 74, 0
2, 2640, Note_on_c, 0, 60, 0
2, 2640, Note_on_c, 0, 58, 100
2, 2760, Note_on_c, 0, 67, 0
2, 2760, Note_on_c, 0, 57, 100
2, 2760, Note_on_c, 0, 72, 100
2, 2820, Note_on_c, 0, 58, 0
2, 2880, Note_on_c, 0, 57, 0
2, 2880, Note_on_c, 0, 55, 100
2, 3000, Note_on_c, 0, 51, 0
2, 3000, Note_on_c, 0, 55, 0
2, 3000, Note_on_c, 0, 50, 100
2, 3000, Note_on_c, 0, 57, 100
2, 3120, Note_on_c, 0, 72, 0
2, 3120, Note_on_c, 0, 45, 100
2, 3120, Note_on_c, 0, 66, 100
2, 3180, Note_on_c, 0, 50, 0
2, 3240, Note_on_c, 0, 57, 0
2, 3240, Note_on_c, 0, 66, 0
2, 3240, Note_on_c, 0, 46, 100
2, 3240, Note_on_c, 0, 67, 100
2, 3300, Note_on_c, 0, 45, 0
2, 3360, Note_on_c, 0, 46, 0
2, 3360, Note_on_c, 0, 48, 100
2, 3360, Note_on_c, 0, 69, 100
2, 3420, Note_on_c, 0, 67, 0
2, 3480, Note_on_c, 0, 48, 0
2, 3480, Note_on_c, 0, 50, 100
2, 3480, Note_on_c, 0, 70, 100
2, 3540, Note_on_c, 0, 69, 0
2, 3600, Note_on_c, 0, 70, 0
2, 3600, Note_on_c, 0, 69, 100
2, 3720, Note_on_c, 0, 50, 0
2, 3720, Note_on_c, 0, 38, 100
2, 3720, Note_on_c, 0, 57, 100
2, 3720, Note_on_c, 0, 67, 100
2, 3780, Note_on_c, 0, 69, 0
2, 3840, Note_on_c, 0, 67, 0
2, 3840, Note_on_c, 0, 66, 100
2, 3960, Note_on_c, 0, 38, 0
2, 3960, Note_on_c, 0, 66, 0
2, 3960, Note_on_c, 0, 43, 100
2, 3960, Note_on_c, 0, 58, 100
2, 3960, Note_on_c, 0, 67, 100
2, 4020, Note_on_c, 0, 57, 0
2, 4080, Note_on_c, 0, 43, 0
2, 4080, Note_on_c, 0, 50, 100
2, 4200, Note_on_c, 0, 58, 0
2, 4200, Note_on_c, 0, 50, 0
2, 4200, Note_on_c, 0, 52, 100
2, 4200, Note_on_c, 0, 57, 100
2, 4260, Note_on_c, 0, 67, 0
2, 4320, Note_on_c, 0, 52, 0
2, 4320, Note_on_c, 0, 54, 100
2, 4440, Note_on_c, 0, 57, 0
2, 4440, Note_on_c, 0, 55, 100
2, 4440, Note_on_c, 0, 58, 100
2, 4500, Note_on_c, 0, 54, 0
2, 4560, Note_on_c, 0, 55, 0
2, 4560, Note_on_c, 0, 53, 100
2, 4680, Note_on_c, 0, 58, 0
2, 4680, Note_on_c, 0, 51, 100
2, 4680, Note_on_c, 0, 59, 100
2, 4680, Note_on_c, 0, 67, 100
2, 4740, Note_on_c, 0, 53, 0
2, 4800, Note_on_c, 0, 51, 0
2, 4800, Note_on_c, 0, 50, 100
2, 4920, Note_on_c, 0, 59, 0
2, 4920, Note_on_c, 0, 50, 0
2, 4920, Note_on_c, 0, 48, 100
2, 4920, Note_on_c, 0, 60, 100
2, 4920, Note_on_c, 0, 68, 100
2, 4980, Note_on_c, 0, 67, 0
2, 5040, Note_on_c, 0, 60, 0
2, 5040, Note_on_c, 0, 62, 100
2, 5160, Note_on_c, 0, 48, 0
2, 5160, Note_on_c, 0, 62, 0
2, 5160, Note_on_c, 0, 47, 100
2, 5160, Note_on_c, 0, 63, 100
2, 5160, Note_on_c, 0, 67, 100
2, 5220, Note_on_c, 0, 68, 0
2, 5280, Note_on_c, 0, 63, 0
2, 5280, Note_on_c, 0, 62, 100
2, 5400, Note_on_c, 0, 47, 0
2, 5400, Note_on_c, 0, 62, 0
2, 5400, Note_on_c, 0, 48, 100
2, 5400, Note_on_c, 0, 60, 100
2, 5400, Note_on_c, 0, 68, 100
2, 5460, Note_on_c, 0, 67, 0
2, 5520, Note_on_c, 0, 60, 0
2, 5520, Note_on_c, 0, 58, 100
2, 5640, Note_on_c, 0, 48, 0
2, 5640, Note_on_c, 0, 58, 0
2, 5640, Note_on_c, 0, 49, 100
2, 5640, Note_on_c, 0, 57, 100
2, 5640, Note_on_c, 0, 69, 100
2, 5700, Note_on_c, 0, 68, 0
2, 5760, Note_on_c, 0, 57, 0
2, 5760, Note_on_c, 0, 55, 100
2, 5880, Note_on_c, 0, 49, 0
2, 5880, Note_on_c, 0, 55, 0
2, 5880, Note_on_c, 0, 50, 100
2, 5880, Note_on_c, 0, 66, 100
2, 5880, Note_on_c, 0, 70, 100
2, 5940, Note_on_c, 0, 69, 0
2, 6000, Note_on_c, 0, 70, 0
2, 6000, Note_on_c, 0, 72, 100
2, 6120, Note_on_c, 0, 50, 0
2, 6120, Note_on_c, 0, 72, 0
2, 6120, Note_on_c, 0, 46, 100
2, 6120, Note_on_c, 0, 74, 100
2, 6180, Note_on_c, 0, 66, 0
2, 6240, Note_on_c, 0, 74, 0
2, 6240, Note_on_c, 0, 72, 100
2, 6360, Note_on_c, 0, 46, 0
2, 6360, Note_on_c, 0, 48, 100
2, 6360, Note_on_c, 0, 70, 100
2, 6420, Note_on_c, 0, 72, 0
2, 6480, Note_on_c, 0, 70, 0
2, 6480, Note_on_c, 0, 69, 100
2, 6600, Note_on_c, 0, 48, 0
2, 6600, Note_on_c, 0, 50, 100
2, 6600, Note_on_c, 0, 62, 100
2, 6600, Note_on_c, 0, 67, 100
2, 6660, Note_on_c, 0, 69, 0
2, 6720, Note_on_c, 0, 67, 0
2, 6720, Note_on_c, 0, 66, 100
2, 6840, Note_on_c, 0, 50, 0
2, 6840, Note_on_c, 0, 66, 0
2, 6840, Note_on_c, 0, 55, 100
2, 6840, Note_on_c, 0, 75, 100
2, 6900, Note_on_c, 0, 62, 0
2, 6960, Note_on_c, 0, 62, 100
2, 7080, Note_on_c, 0, 75, 0
2, 7080, Note_on_c, 0, 60, 100
2, 7140, Note_on_c, 0, 62, 0
2, 7200, Note_on_c, 0, 60, 0
2, 7200, Note_on_c, 0, 58, 100
2, 7320, Note_on_c, 0, 58, 0
2, 7320, Note_on_c, 0, 60, 100
2, 7440, Note_on_c, 0, 55, 0
2, 7440, Note_on_c, 0, 54, 100
2, 7440, Note_on_c, 0, 62, 100
2, 7500, Note_on_c, 0, 60, 0
2, 7560, Note_on_c, 0, 54, 0
2, 7560, Note_on_c, 0, 55, 100
2, 7560, Note_on_c, 0, 64, 100
2, 7560, Note_on_c, 0, 72, 100
2, 7620, Note_on_c, 0, 62, 0
2, 7680, Note_on_c, 0, 55, 0
2, 7680, Note_on_c, 0, 57, 100
2, 7680, Note_on_c, 0, 66, 100
2, 7740, Note_on_c, 0, 64, 0
2, 7800, Note_on_c, 0, 57, 0
2, 7800, Note_on_c, 0, 58, 100
2, 7800, Note_on_c, 0, 67, 100
2, 7860, Note_on_c, 0, 72, 0
2, 7920, Note_on_c, 0, 66, 0
2, 7920, Note_on_c, 0, 60, 100
2, 7920, Note_on_c, 0, 72, 100
2, 7980, Note_on_c, 0, 58, 0
2, 8040, Note_on_c, 0, 67, 0
2, 8040, Note_on_c, 0, 72, 0
2, 8040, Note_on_c, 0, 62, 100
2, 8040, Note_on_c, 0, 66, 100
2, 8040, Note_on_c, 0, 70, 100
2, 8100, Note_on_c, 0, 60, 0
2, 8160, Note_on_c, 0, 70, 0
2, 8160, Note_on_c, 0, 69, 100
2, 8280, Note_on_c, 0, 62, 0
2, 8280, Note_on_c, 0, 69, 0
2, 8280, Note_on_c, 0, 55, 100
2, 8280, Note_on_c, 0, 67, 100
2, 8280, Note_on_c, 0, 70, 100
2, 8340, Note_on_c, 0, 66, 0
2, 8400, Note_on_c, 0, 67, 0
2, 8400, Note_on_c, 0, 69, 100
2, 8400, Note_on_c, 0, 72, 100
2, 8460, Note_on_c, 0, 70, 0
2, 8520, Note_on_c, 0, 55, 0
2, 8520, Note_on_c, 0, 72, 0
2, 8520, Note_on_c, 0, 67, 100
2, 8520, Note_on_c, 0, 70, 100
2, 8520, Note_on_c, 0, 74, 100
2, 8580, Note_on_c, 0, 69, 0
2, 8640, Note_on_c, 0, 74, 0
2, 8640, Note_on_c, 0, 76, 100
2, 8760, Note_on_c, 0, 67, 0
2, 8760, Note_on_c, 0, 76, 0
2, 8760, Note_on_c, 0, 62, 100
2, 8760, Note_on_c, 0, 77, 100
2, 8880, Note_on_c, 0, 70, 0
2, 8880, Note_on_c, 0, 69, 100
2, 9000, Note_on_c, 0, 77, 0
2, 9000, Note_on_c, 0, 67, 100
2, 9000, Note_on_c, 0, 76, 100
2, 9060, Note_on_c, 0, 69, 0
2, 9120, Note_on_c, 0, 67, 0
2, 9120, Note_on_c, 0, 70, 100
2, 9240, Note_on_c, 0, 76, 0
2, 9240, Note_on_c, 0, 69, 100
2, 9240, Note_on_c, 0, 77, 100
2, 9300, Note_on_c, 0, 70, 0
2, 9360, Note_on_c, 0, 69, 0
2, 9360, Note_on_c, 0, 67, 100
2, 9360, Note_on_c, 0, 79, 100
2, 9420, Note_on_c, 0, 77, 0
2, 9480, Note_on_c, 0, 62, 0
2, 9480, Note_on_c, 0, 79, 0
2, 9480, Note_on_c, 0, 60, 100
2, 9480, Note_on_c, 0, 65, 100
2, 9480, Note_on_c, 0, 81, 100
2, 9540, Note_on_c, 0, 67, 0
2, 9600, Note_on_c, 0, 65, 0
2, 9600, Note_on_c, 0, 64, 100
2, 9660, Note_on_c, 0, 64, 0
2, 9720, Note_on_c, 0, 60, 0
2, 9720, Note_on_c, 0, 58, 100
2, 9720, Note_on_c, 0, 64, 100
2, 9780, Note_on_c, 0, 64, 0
2, 9840, Note_on_c, 0, 81, 0
2, 9840, Note_on_c, 0, 62, 100
2, 9840, Note_on_c, 0, 79, 100
2, 9900, Note_on_c, 0, 62, 0
2, 9960, Note_on_c, 0, 58, 0
2, 9960, Note_on_c, 0, 57, 100
2, 9960, Note_on_c, 0, 77, 100
2, 10020, Note_on_c, 0, 79, 0
2, 10020, Note_on_c, 0, 64, 100
2, 10080, Note_on_c, 0, 77, 0
2, 10080, Note_on_c, 0, 61, 100
2, 10080, Note_on_c, 0, 81, 100
2, 10140, Note_on_c, 0, 64, 0
2, 10200, Note_on_c, 0, 57, 0
2, 10200, Note_on_c, 0, 81, 0
2, 10200, Note_on_c, 0, 58, 100
2, 10200, Note_on_c, 0, 62, 100
2, 10200, Note_on_c, 0, 79, 100
2, 10260, Note_on_c, 0, 61, 0
2, 10320, Note_on_c, 0, 62, 0
2, 10320, Note_on_c, 0, 64, 100
2, 10320, Note_on_c, 0, 77, 100
2, 10380, Note_on_c, 0, 79, 0
2, 10440, Note_on_c, 0, 58, 0
2, 10440, Note_on_c, 0, 77, 0
2, 10440, Note_on_c, 0, 55, 100
2, 10440, Note_on_c, 0, 65, 100
2, 10440, Note_on_c, 0, 76, 100
2, 10500, Note_on_c, 0, 64, 0
2, 10560, Note_on_c, 0, 76, 0
2, 10560, Note_on_c, 0, 74, 100
2, 10620, Note_on_c, 0, 74, 0
2, 10680, Note_on_c, 0, 55, 0
2, 10680, Note_on_c, 0, 57, 100
2, 10680, Note_on_c, 0, 64, 100
2, 10680, Note_on_c, 0, 74, 100
2, 10740, Note_on_c, 0, 65, 0
2, 10740, Note_on_c, 0, 74, 0
2, 10740, Note_on_c, 0, 73, 100
2, 10800, Note_on_c, 0, 57, 0
2, 10800, Note_on_c, 0, 73, 0
2, 10800, Note_on_c, 0, 52, 100
2, 10800, Note_on_c, 0, 71, 100
2, 10860, Note_on_c, 0, 71, 0
2, 10860, Note_on_c, 0, 73, 100
2, 10920, Note_on_c, 0, 64, 0
2, 10920, Note_on_c, 0, 73, 0
2, 10920, Note_on_c, 0, 53, 100
2, 10980, Note_on_c, 0, 52, 0
2, 10980, Note_on_c, 0, 74, 100
2, 11040, Note_on_c, 0, 53, 0
2, 11040, Note_on_c, 0, 55, 100
2, 11040, Note_on_c, 0, 71, 100
2, 11100, Note_on_c, 0, 74, 0
2, 11160, Note_on_c, 0, 55, 0
2, 11160, Note_on_c, 0, 57, 100
2, 11160, Note_on_c, 0, 73, 100
2, 11220, Note_on_c, 0, 71, 0
2, 11280, Note_on_c, 0, 57, 0
2, 11280, Note_on_c, 0, 59, 100
2, 11280, Note_on_c, 0, 74, 100
2, 11340, Note_on_c, 0, 73, 0
2, 11400, Note_on_c, 0, 59, 0
2, 11400, Note_on_c, 0, 61, 100
2, 11400, Note_on_c, 0, 64, 100
2, 11400, Note_on_c, 0, 76, 100
2, 11460, Note_on_c, 0, 74, 0
2, 11520, Note_on_c, 0, 61, 0
2, 11520, Note_on_c, 0, 57, 100
2, 11640, Note_on_c, 0, 64, 0
2, 11640, Note_on_c, 0, 57, 0
2, 11640, Note_on_c, 0, 62, 100
2, 11640, Note_on_c, 0, 65, 100
2, 11640, Note_on_c, 0, 74, 100
2, 11700, Note_on_c, 0, 76, 0
2, 11760, Note_on_c, 0, 62, 0
2, 11760, Note_on_c, 0, 53, 100
2, 11880, Note_on_c, 0, 65, 0
2, 11880, Note_on_c, 0, 53, 0
2, 11880, Note_on_c, 0, 55, 100
2, 11880, Note_on_c, 0, 64, 100
2, 11940, Note_on_c, 0, 74, 0
2, 12000, Note_on_c, 0, 55, 0
2, 12000, Note_on_c, 0, 57, 100
2, 12120, Note_on_c, 0, 64, 0
2, 12120, Note_on_c, 0, 50, 100
2, 12120, Note_on_c, 0, 65, 100
2, 12180, Note_on_c, 0, 57, 0
2, 12240, Note_on_c, 0, 50, 0
2, 12240, Note_on_c, 0, 60, 100
2, 12360, Note_on_c, 0, 65, 0
2, 12360, Note_on_c, 0, 58, 100
2, 12360, Note_on_c, 0, 66, 100
2, 12360, Note_on_c, 0, 74, 100
2, 12420, Note_on_c, 0, 60, 0
2, 12480, Note_on_c, 0, 58, 0
2, 12480, Note_on_c, 0, 57, 100
2, 12600, Note_on_c, 0, 66, 0
2, 12600, Note_on_c, 0, 57, 0
2, 12600, Note_on_c, 0, 55, 100
2, 12600, Note_on_c, 0, 67, 100
2, 12600, Note_on_c, 0, 75, 100
2, 12660, Note_on_c, 0, 74, 0
2, 12720, Note_on_c, 0, 55, 0
2, 12720, Note_on_c, 0, 46, 100
2, 12840, Note_on_c, 0, 67, 0
2, 12840, Note_on_c, 0, 46, 0
2, 12840, Note_on_c, 0, 48, 100
2, 12840, Note_on_c, 0, 69, 100
2, 12840, Note_on_c, 0, 74, 100
2, 12900, Note_on_c, 0, 75, 0
2, 12960, Note_on_c, 0, 48, 0
2, 12960, Note_on_c, 0, 50, 100
2, 13080, Note_on_c, 0, 69, 0
2, 13080, Note_on_c, 0, 50, 0
2, 13080, Note_on_c, 0, 43, 100
2, 13080, Note_on_c, 0, 70, 100
2, 13080, Note_on_c, 0, 75, 100
2, 13140, Note_on_c, 0, 74, 0
2, 13200, Note_on_c, 0, 43, 0
2, 13200, Note_on_c, 0, 55, 100
2, 13320, Note_on_c, 0, 70, 0
2, 13320, Note_on_c, 0, 69, 100
2, 13320, Note_on_c, 0, 76, 100
2, 13380, Note_on_c, 0, 75, 0
2, 13440, Note_on_c, 0, 55, 0
2, 13440, Note_on_c, 0, 49, 100
2, 13560, Note_on_c, 0, 76, 0
2, 13560, Note_on_c, 0, 50, 100
2, 13560, Note_on_c, 0, 77, 100
2, 13620, Note_on_c, 0, 49, 0
2, 13680, Note_on_c, 0, 50, 0
2, 13680, Note_on_c, 0, 57, 100
2, 13800, Note_on_c, 0, 69, 0
2, 13800, Note_on_c, 0, 57, 0
2, 13800, Note_on_c, 0, 62, 100
2, 13800, Note_on_c, 0, 67, 100
2, 13800, Note_on_c, 0, 79, 100
2, 13860, Note_on_c, 0, 77, 0
2, 13920, Note_on_c, 0, 67, 0
2, 13920, Note_on_c, 0, 65, 100
2, 14040, Note_on_c, 0, 79, 0
2, 14040, Note_on_c, 0, 64, 100
2, 14040, Note_on_c, 0, 81, 100
2, 14100, Note_on_c, 0, 62, 0
2, 14160, Note_on_c, 0, 65, 0
2, 14160, Note_on_c, 0, 62, 100
2, 14220, Note_on_c, 0, 64, 0
2, 14280, Note_on_c, 0, 81, 0
2, 14280, Note_on_c, 0, 64, 100
2, 14280, Note_on_c, 0, 79, 100
2, 14400, Note_on_c, 0, 62, 0
2, 14400, Note_on_c, 0, 61, 100
2, 14520, Note_on_c, 0, 64, 0
2, 14520, Note_on_c, 0, 61, 0
2, 14520, Note_on_c, 0, 62, 100
2, 14640, Note_on_c, 0, 58, 100
2, 14760, Note_on_c, 0, 79, 0
2, 14760, Note_on_c, 0, 58, 0
2, 14760, Note_on_c, 0, 57, 100
2, 14760, Note_on_c, 0, 78, 100
2, 14880, Note_on_c, 0, 57, 0
2, 14880, Note_on_c, 0, 55, 100
2, 14880, Note_on_c, 0, 76, 100
2, 14940, Note_on_c, 0, 78, 0
2, 15000, Note_on_c, 0, 62, 0
2, 15000, Note_on_c, 0, 76, 0
2, 15000, Note_on_c, 0, 54, 100
2, 15000, Note_on_c, 0, 74, 100
2, 15060, Note_on_c, 0, 55, 0
2, 15120, Note_on_c, 0, 54, 0
2, 15120, Note_on_c, 0, 57, 100
2, 15120, Note_on_c, 0, 73, 100
2, 15180, Note_on_c, 0, 74, 0
2, 15240, Note_on_c, 0, 57, 0
2, 15240, Note_on_c, 0, 54, 100
2, 15240, Note_on_c, 0, 74, 100
2, 15300, Note_on_c, 0, 73, 0
2, 15360, Note_on_c, 0, 54, 0
2, 15360, Note_on_c, 0, 50, 100
2, 15480, Note_on_c, 0, 74, 0
2, 15480, Note_on_c, 0, 43, 100
2, 15540, Note_on_c, 0, 50, 0
2, 15600, Note_on_c, 0, 58, 100
2, 15720, Note_on_c, 0, 58, 0
2, 15720, Note_on_c, 0, 60, 100
2, 15840, Note_on_c, 0, 60, 0
2, 15840, Note_on_c, 0, 62, 100
2, 15960, Note_on_c, 0, 43, 0
2, 15960, Note_on_c, 0, 55, 100
2, 15960, Note_on_c, 0, 63, 100
2, 16020, Note_on_c, 0, 62, 0
2, 16080, Note_on_c, 0, 63, 0
2, 16080, Note_on_c, 0, 62, 100
2, 16200, Note_on_c, 0, 62, 0
2, 16200, Note_on_c, 0, 60, 100
2, 16320, Note_on_c, 0, 60, 0
2, 16320, Note_on_c, 0, 58, 100
2, 16440, Note_on_c, 0, 55, 0
2, 16440, Note_on_c, 0, 54, 100
2, 16440, Note_on_c, 0, 57, 100
2, 16500, Note_on_c, 0, 58, 0
2, 16560, Note_on_c, 0, 69, 100
2, 16680, Note_on_c, 0, 57, 0
2, 16680, Note_on_c, 0, 63, 100
2, 16680, Note_on_c, 0, 70, 100
2, 16740, Note_on_c, 0, 69, 0
2, 16800, Note_on_c, 0, 70, 0
2, 16800, Note_on_c, 0, 72, 100
2, 16920, Note_on_c, 0, 54, 0
2, 16920, Note_on_c, 0, 72, 0
2, 16920, Note_on_c, 0, 53, 100
2, 16920, Note_on_c, 0, 57, 100
2, 16920, Note_on_c, 0, 74, 100
2, 16980, Note_on_c, 0, 63, 0
2, 17040, Note_on_c, 0, 74, 0
2, 17040, Note_on_c, 0, 72, 100
2, 17160, Note_on_c, 0, 57, 0
2, 17160, Note_on_c, 0, 62, 100
2, 17160, Note_on_c, 0, 70, 100
2, 17220, Note_on_c, 0, 72, 0
2, 17280, Note_on_c, 0, 70, 0
2, 17280, Note_on_c, 0, 69, 100
2, 17400, Note_on_c, 0, 53, 0
2, 17400, Note_on_c, 0, 69, 0
2, 17400, Note_on_c, 0, 52, 100
2, 17400, Note_on_c, 0, 67, 100
2, 17520, Note_on_c, 0, 62, 0
2, 17520, Note_on_c, 0, 55, 100
2, 17640, Note_on_c, 0, 67, 0
2, 17640, Note_on_c, 0, 57, 100
2, 17640, Note_on_c, 0, 74, 100
2, 17700, Note_on_c, 0, 55, 0
2, 17760, Note_on_c, 0, 57, 0
2, 17760, Note_on_c, 0, 58, 100
2, 17880, Note_on_c, 0, 52, 0
2, 17880, Note_on_c, 0, 58, 0
2, 17880, Note_on_c, 0, 51, 100
2, 17880, Note_on_c, 0, 60, 100
2, 17880, Note_on_c, 0, 67, 100
2, 17940, Note_on_c, 0, 74, 0
2, 18000, Note_on_c, 0, 60, 0
2, 18000, Note_on_c, 0, 58, 100
2, 18120, Note_on_c, 0, 67, 0
2, 18120, Note_on_c, 0, 57, 100
2, 18120, Note_on_c, 0, 72, 100
2, 18180, Note_on_c, 0, 58, 0
2, 18240, Note_on_c, 0, 57, 0
2, 18240, Note_on_c, 0, 55, 100
2, 18360, Note_on_c, 0, 51, 0
2, 18360, Note_on_c, 0, 55, 0
2, 18360, Note_on_c, 0, 50, 100
2, 18360, Note_on_c, 0, 57, 100
2, 18480, Note_on_c, 0, 72, 0
2, 18480, Note_on_c, 0, 45, 100
2, 18480, Note_on_c, 0, 66, 100
2, 18540, Note_on_c, 0, 50, 0
2, 18600, Note_on_c, 0, 57, 0
2, 18600, Note_on_c, 0, 66, 0
2, 18600, Note_on_c, 0, 46, 100
2, 18600, Note_on_c, 0, 67, 100
2, 18660, Note_on_c, 0, 45, 0
2, 18720, Note_on_c, 0, 46, 0
2, 18720, Note_on_c, 0, 48, 100
2, 18720, Note_on_c, 0, 69, 100
2, 18780, Note_on_c, 0, 67, 0
2, 18840, Note_on_c, 0, 48, 0
2, 18840, Note_on_c, 0, 50, 100
2, 18840, Note_on_c, 0, 70, 100
2, 18900, Note_on_c, 0, 69, 0
2, 18960, Note_on_c, 0, 70, 0
2, 18960, Note_on_c, 0, 69, 100
2, 19080, Note_on_c, 0, 50, 0
2, 19080, Note_on_c, 0, 38, 100
2, 19080, Note_on_c, 0, 57, 100
2, 19080, Note_on_c, 0, 67, 100
2, 19140, Note_on_c, 0, 69, 0
2, 19200, Note_on_c, 0, 67, 0
2, 19200, Note_on_c, 0, 66, 100
2, 19320, Note_on_c, 0, 38, 0
2, 19320, Note_on_c, 0, 66, 0
2, 19320, Note_on_c, 0, 43, 100
2, 19320, Note_on_c, 0, 58, 100
2, 19320, Note_on_c, 0, 67, 100
2, 19380, Note_on_c, 0, 57, 0
2, 19440, Note_on_c, 0, 43, 0
2, 19440, Note_on_c, 0, 50, 100
2, 19560, Note_on_c, 0, 58, 0
2, 19560, Note_on_c, 0, 50, 0
2, 19560, Note_on_c, 0, 52, 100
2, 19560, Note_on_c, 0, 57, 100
2, 19620, Note_on_c, 0, 67, 0
2, 19680, Note_on_c, 0, 52, 0
2, 19680, Note_on_c, 0, 54, 100
2, 19800, Note_on_c, 0, 57, 0
2, 19800, Note_on_c, 0, 55, 100
2, 19800, Note_on_c, 0, 58, 100
2, 19860, Note_on_c, 0, 54, 0
2, 19920, Note_on_c, 0, 55, 0
2, 19920, Note_on_c, 0, 53, 100
2, 20040, Note_on_c, 0, 58, 0
2, 20040, Note_on_c, 0, 51, 100
2, 20040, Note_on_c, 0, 59, 100
2, 20040, Note_on_c, 0, 67, 100
2, 20100, Note_on_c, 0, 53, 0
2, 20160, Note_on_c, 0, 51, 0
2, 20160, Note_on_c, 0, 50, 100
2, 20280, Note_on_c, 0, 59, 0
2, 20280, Note_on_c, 0, 50, 0
2, 20280, Note_on_c, 0, 48, 100
2, 20280, Note_on_c, 0, 60, 100
2, 20280, Note_on_c, 0, 68, 100
2, 20340, Note_on_c, 0, 67, 0
2, 20400, Note_on_c, 0, 60, 0
2, 20400, Note_on_c, 0, 62, 100
2, 20520, Note_on_c, 0, 48, 0
2, 20520, Note_on_c, 0, 62, 0
2, 20520, Note_on_c, 0, 47, 100
2, 20520, Note_on_c, 0, 63, 100
2, 20520, Note_on_c, 0, 67, 100
2, 20580, Note_on_c, 0, 68, 0
2, 20640, Note_on_c, 0, 63, 0
2, 20640, Note_on_c, 0, 62, 100
2, 20760, Note_on_c, 0, 47, 0
2, 20760, Note_on_c, 0, 62, 0
2, 20760, Note_on_c, 0, 48, 100
2, 20760, Note_on_c, 0, 60, 100
2, 20760, Note_on_c, 0, 68, 100
2, 20820, Note_on_c, 0, 67, 0
2, 20880, Note_on_c, 0, 60, 0
2, 20880, Note_on_c, 0, 58, 100
2, 21000, Note_on_c, 0, 48, 0
2, 21000, Note_on_c, 0, 58, 0
2, 21000, Note_on_c, 0, 49, 100
2, 21000, Note_on_c, 0, 57, 100
2, 21000, Note_on_c, 0, 69, 100
2, 21060, Note_on_c, 0, 68, 0
2, 21120, Note_on_c, 0, 57, 0
2, 21120, Note_on_c, 0, 55, 100
2, 21240, Note_on_c, 0, 49, 0
2, 21240, Note_on_c, 0, 55, 0
2, 21240, Note_on_c, 0, 50, 100
2, 21240, Note_on_c, 0, 66, 100
2, 21240, Note_on_c, 0, 70, 100
2, 21300, Note_on_c, 0, 69, 0
2, 21360, Note_on_c, 0, 70, 0
2, 21360, Note_on_c, 0, 72, 100
2, 21480, Note_on_c, 0, 50, 0
2, 21480, Note_on_c, 0, 72, 0
2, 21480, Note_on_c, 0, 46, 100
2, 21480, Note_on_c, 0, 74, 100
2, 21540, Note_on_c, 0, 66, 0
2, 21600, Note_on_c, 0, 74, 0
2, 21600, Note_on_c, 0, 72, 100
2, 21720, Note_on_c, 0, 46, 0
2, 21720, Note_on_c, 0, 48, 100
2, 21720, Note_on_c, 0, 70, 100
2, 21780, Note_on_c, 0, 72, 0
2, 21840, Note_on_c, 0, 70, 0
2, 21840, Note_on_c, 0, 69, 100
2, 21960, Note_on_c, 0, 48, 0
2, 21960, Note_on_c, 0, 50, 100
2, 21960, Note_on_c, 0, 62, 100
2, 21960, Note_on_c, 0, 67, 100
2, 22020, Note_on_c, 0, 69, 0
2, 22080, Note_on_c, 0, 67, 0
2, 22080, Note_on_c, 0, 66, 100
2, 22200, Note_on_c, 0, 50, 0
2, 22200, Note_on_c, 0, 66, 0
2, 22200, Note_on_c, 0, 55, 100
2, 22200, Note_on_c, 0, 75, 100
2, 22260, Note_on_c, 0, 62, 0
2, 22320, Note_on_c, 0, 62, 100
2, 22440, Note_on_c, 0, 75, 0
2, 22440, Note_on_c, 0, 60, 100
2, 22500, Note_on_c, 0, 62, 0
2, 22560, Note_on_c, 0, 60, 0
2, 22560, Note_on_c, 0, 58, 100
2, 22680, Note_on_c, 0, 58, 0
2, 22680, Note_on_c, 0, 60, 100
2, 22800, Note_on_c, 0, 55, 0
2, 22800, Note_on_c, 0, 54, 100
2, 22800, Note_on_c, 0, 62, 100
2, 22860, Note_on_c, 0, 60, 0
2, 22920, Note_on_c, 0, 54, 0
2, 22920, Note_on_c, 0, 55, 100
2, 22920, Note_on_c, 0, 64, 100
2, 22920, Note_on_c, 0, 72, 100
2, 22980, Note_on_c, 0, 62, 0
2, 23040, Note_on_c, 0, 55, 0
2, 23040, Note_on_c, 0, 57, 100
2, 23040, Note_on_c, 0, 66, 100
2, 23100, Note_on_c, 0, 64, 0
2, 23160, Note_on_c, 0, 57, 0
2, 23160, Note_on_c, 0, 58, 100
2, 23160, Note_on_c, 0, 67, 100
2, 23220, Note_on_c, 0, 72, 0
2, 23280, Note_on_c, 0, 66, 0
2, 23280, Note_on_c, 0, 60, 100
2, 23280, Note_on_c, 0, 72, 100
2, 23340, Note_on_c, 0, 58, 0
2, 23400, Note_on_c, 0, 67, 0
2, 23400, Note_on_c, 0, 72, 0
2, 23400, Note_on_c, 0, 62, 100
2, 23400, Note_on_c, 0, 66, 100
2, 23400, Note_on_c, 0, 70, 100
2, 23460, Note_on_c, 0, 60, 0
2, 23520, Note_on_c, 0, 70, 0
2, 23520, Note_on_c, 0, 69, 100
2, 23640, Note_on_c, 0, 62, 0
2, 23640, Note_on_c, 0, 69, 0
2, 23640, Note_on_c, 0, 55, 100
2, 23640, Note_on_c, 0, 67, 100
2, 23640, Note_on_c, 0, 70, 100
2, 23700, Note_on_c, 0, 66, 0
2, 23760, Note_on_c, 0, 67, 0
2, 23760, Note_on_c, 0, 69, 100
2, 23760, Note_on_c, 0, 72, 100
2, 23820, Note_on_c, 0, 70, 0
2, 23880, Note_on_c, 0, 55, 0
2, 23880, Note_on_c, 0, 72, 0
2, 23880, Note_on_c, 0, 67, 100
2, 23880, Note_on_c, 0, 70, 100
2, 23880, Note_on_c, 0, 74, 100
2, 23940, Note_on_c, 0, 69, 0
2, 24000, Note_on_c, 0, 74, 0
2, 24000, Note_on_c, 0, 76, 100
2, 24120, Note_on_c, 0, 67, 0
2, 24120, Note_on_c, 0, 76, 0
2, 24120, Note_on_c, 0, 62, 100
2, 24120, Note_on_c, 0, 77, 100
2, 24240, Note_on_c, 0, 70, 0
2, 24240, Note_on_c, 0, 69, 100
2, 24360, Note_on_c, 0, 77, 0
2, 24360, Note_on_c, 0, 67, 100
2, 24360, Note_on_c, 0, 76, 100
2, 24420, Note_on_c, 0, 69, 0
2, 24480, Note_on_c, 0, 67, 0
2, 24480, Note_on_c, 0, 70, 100
2, 24600, Note_on_c, 0, 76, 0
2, 24600, Note_on_c, 0, 69, 100
2, 24600, Note_on_c, 0, 77, 100
2, 24660, Note_on_c, 0, 70, 0
2, 24720, Note_on_c, 0, 69, 0
2, 24720, Note_on_c, 0, 67, 100
2, 24720, Note_on_c, 0, 79, 100
2, 24780, Note_on_c, 0, 77, 0
2, 24840, Note_on_c, 0, 62, 0
2, 24840, Note_on_c, 0, 79, 0
2, 24840, Note_on_c, 0, 60, 100
2, 24840, Note_on_c, 0, 65, 100
2, 24840, Note_on_c, 0, 81, 100
2, 24900, Note_on_c, 0, 67, 0
2, 24960, Note_on_c, 0, 65, 0
2, 24960, Note_on_c, 0, 64, 100
2, 25020, Note_on_c, 0, 64, 0
2, 25080, Note_on_c, 0, 60, 0
2, 25080, Note_on_c, 0, 58, 100
2, 25080, Note_on_c, 0, 64, 100
2, 25140, Note_on_c, 0, 64, 0
2, 25200, Note_on_c, 0, 81, 0
2, 25200, Note_on_c, 0, 62, 100
2, 25200, Note_on_c, 0, 79, 100
2, 25260, Note_on_c, 0, 62, 0
2, 25320, Note_on_c, 0, 58, 0
2, 25320, Note_on_c, 0, 57, 100
2, 25320, Note_on_c, 0, 77, 100
2, 25380, Note_on_c, 0, 79, 0
2, 25380, Note_on_c, 0, 64, 100
2, 25440, Note_on_c, 0, 77, 0
2, 25440, Note_on_c, 0, 61, 100
2, 25440, Note_on_c, 0, 81, 100
2, 25500, Note_on_c, 0, 64, 0
2, 25560, Note_on_c, 0, 57, 0
2, 25560, Note_on_c, 0, 81, 0
2, 25560, Note_on_c, 0, 58, 100
2, 25560, Note_on_c, 0, 62, 100
2, 25560, Note_on_c, 0, 79, 100
2, 25620, Note_on_c, 0, 61, 0
2, 25680, Note_on_c, 0, 62, 0
2, 25680, Note_on_c, 0, 64, 100
2, 25680, Note_on_c, 0, 77, 100
2, 25740, Note_on_c, 0, 79, 0
2, 25800, Note_on_c, 0, 58, 0
2, 25800, Note_on_c, 0, 77, 0
2, 25800, Note_on_c, 0, 55, 100
2, 25800, Note_on_c, 0, 65, 100
2, 25800, Note_on_c, 0, 76, 100
2, 25860, Note_on_c, 0, 64, 0
2, 25920, Note_on_c, 0, 76, 0
2, 25920, Note_on_c, 0, 74, 100
2, 25980, Note_on_c, 0, 74, 0
2, 26040, Note_on_c, 0, 55, 0
2, 26040, Note_on_c, 0, 57, 100
2, 26040, Note_on_c, 0, 64, 100
2, 26040, Note_on_c, 0, 74, 100
2, 26100, Note_on_c, 0, 65, 0
2, 26100, Note_on_c, 0, 74, 0
2, 26100, Note_on_c, 0, 73, 100
2, 26160, Note_on_c, 0, 57, 0
2, 26160, Note_on_c, 0, 73, 0
2, 26160, Note_on_c, 0, 52, 100
2, 26160, Note_on_c, 0, 71, 100
2, 26220, Note_on_c, 0, 71, 0
2, 26220, Note_on_c, 0, 73, 100
2, 26280, Note_on_c, 0, 64, 0
2, 26280, Note_on_c, 0, 73, 0
2, 26280, Note_on_c, 0, 53, 100
2, 26340, Note_on_c, 0, 52, 0
2, 26340, Note_on_c, 0, 74, 100
2, 26400, Note_on_c, 0, 53, 0
2, 26400, Note_on_c, 0, 55, 100
2, 26400, Note_on_c, 0, 71, 100
2, 26460, Note_on_c, 0, 74, 0
2, 26520, Note_on_c, 0, 55, 0
2, 26520, Note_on_c, 0, 57, 100
2, 26520, Note_on_c, 0, 73, 100
2, 26580, Note_on_c, 0, 71, 0
2, 26640, Note_on_c, 0, 57, 0
2, 26640, Note_on_c, 0, 59, 100
2, 26640, Note_on_c, 0, 74, 100
2, 26700, Note_on_c, 0, 73, 0
2, 26760, Note_on_c, 0, 59, 0
2, 26760, Note_on_c, 0, 61, 100
2, 26760, Note_on_c, 0, 64, 100
2, 26760, Note_on_c, 0, 76, 100
2, 26820, Note_on_c, 0, 74, 0
2, 26880, Note_on_c, 0, 61, 0
2, 26880, Note_on_c, 0, 57, 100
2, 27000, Note_on_c, 0, 64, 0
2, 27000, Note_on_c, 0, 57, 0
2, 27000, Note_on_c, 0, 62, 100
2, 27000, Note_on_c, 0, 65, 100
2, 27000, Note_on_c, 0, 74, 100
2, 27060, Note_on_c, 0, 76, 0
2, 27120, Note_on_c, 0, 62, 0
2, 27120, Note_on_c, 0, 53, 100
2, 27240, Note_on_c, 0, 65, 0
2, 27240, Note_on_c, 0, 53, 0
2, 27240, Note_on_c, 0, 55, 100
2, 27240, Note_on_c, 0, 64, 100
2, 27300, Note_on_c, 0, 74, 0
2, 27360, Note_on_c, 0, 55, 0
2, 27360, Note_on_c, 0, 57, 100
2, 27480, Note_on_c, 0, 64, 0
2, 27480, Note_on_c, 0, 50, 100
2, 27480, Note_on_c, 0, 65, 100
2, 27540, Note_on_c, 0, 57, 0
2, 27600, Note_on_c, 0, 50, 0
2, 27600, Note_on_c, 0, 60, 100
2, 27720, Note_on_c, 0, 65, 0
2, 27720, Note_on_c, 0, 58, 100
2, 27720, Note_on_c, 0, 66, 100
2, 27720, Note_on_c, 0, 74, 100
2, 27780, Note_on_c, 0, 60, 0
2, 27840, Note_on_c, 0, 58, 0
2, 27840, Note_on_c, 0, 57, 100
2, 27960, Note_on_c, 0, 66, 0
2, 27960, Note_on_c, 0, 57, 0
2, 27960, Note_on_c, 0, 55, 100
2, 27960, Note_on_c, 0, 67, 100
2, 27960, Note_on_c, 0, 75, 100
2, 28020, Note_on_c, 0, 74, 0
2, 28080, Note_on_c, 0, 55, 0
2, 28080, Note_on_c, 0, 46, 100
2, 28200, Note_on_c, 0, 67, 0
2, 28200, Note_on_c, 0, 46, 0
2, 28200, Note_on_c, 0, 48, 100
2, 28200, Note_on_c, 0, 69, 100
2, 28200, Note_on_c, 0, 74, 100
2, 28260, Note_on_c, 0, 75, 0
2, 28320, Note_on_c, 0, 48, 0
2, 28320, Note_on_c, 0, 50, 100
2, 28440, Note_on_c, 0, 69, 0
2, 28440, Note_on_c, 0, 50, 0
2, 28440, Note_on_c, 0, 43, 100
2, 28440, Note_on_c, 0, 70, 100
2, 28440, Note_on_c, 0, 75, 100
2, 28500, Note_on_c, 0, 74, 0
2, 28560, Note_on_c, 0, 43, 0
2, 28560, Note_on_c, 0, 55, 100
2, 28680, Note_on_c, 0, 70, 0
2, 28680, Note_on_c, 0, 69, 100
2, 28680, Note_on_c, 0, 76, 100
2, 28740, Note_on_c, 0, 75, 0
2, 28800, Note_on_c, 0, 55, 0
2, 28800, Note_on_c, 0, 49, 100
2, 28920, Note_on_c, 0, 76, 0
2, 28920, Note_on_c, 0, 50, 100
2, 28920, Note_on_c, 0, 77, 100
2, 28980, Note_on_c, 0, 49, 0
2, 29040, Note_on_c, 0, 50, 0
2, 29040, Note_on_c, 0, 57, 100
2, 29160, Note_on_c, 0, 69, 0
2, 29160, Note_on_c, 0, 57, 0
2, 29160, Note_on_c, 0, 62, 100
2, 29160, Note_on_c, 0, 67, 100
2, 29160, Note_on_c, 0, 79, 100
2, 29220, Note_on_c, 0, 77, 0
2, 29280, Note_on_c, 0, 67, 0
2, 29280, Note_on_c, 0, 65, 100
2, 29400, Note_on_c, 0, 79, 0
2, 29400, Note_on_c, 0, 64, 100
2, 29400, Note_on_c, 0, 81, 100
2, 29460, Note_on_c, 0, 62, 0
2, 29520, Note_on_c, 0, 65, 0
2, 29520, Note_on_c, 0, 62, 100
2, 29580, Note_on_c, 0, 64, 0
2, 29640, Note_on_c, 0, 81, 0
2, 29640, Note_on_c, 0, 64, 100
2, 29640, Note_on_c, 0, 79, 100
2, 29760, Note_on_c, 0, 62, 0
2, 29760, Note_on_c, 0, 61, 100
2, 29880, Note_on_c, 0, 64, 0
2, 29880, Note_on_c, 0, 61, 0
2, 29880, Note_on_c, 0, 62, 100
2, 30000, Note_on_c, 0, 58, 100
2, 30120, Note_on_c, 0, 79, 0
2, 30120, Note_on_c, 0, 58, 0
2, 30120, Note_on_c, 0, 57, 100
2, 30120, Note_on_c, 0, 78, 100
2, 30240, Note_on_c, 0, 57, 0
2, 30240, Note_on_c, 0, 55, 100
2, 30240, Note_on_c, 0, 76, 100
2, 30300, Note_on_c, 0, 78, 0
2, 30360, Note_on_c, 0, 62, 0
2, 30360, Note_on_c, 0, 76, 0
2, 30360, Note_on_c, 0, 54, 100
2, 30360, Note_on_c, 0, 74, 100
2, 30420, Note_on_c, 0, 55, 0
2, 30480, Note_on_c, 0, 54, 0
2, 30480, Note_on_c, 0, 57, 100
2, 30480, Note_on_c, 0, 73, 100
2, 30540, Note_on_c, 0, 74, 0
2, 30600, Note_on_c, 0, 57, 0
2, 30600, Note_on_c, 0, 54, 100
2, 30600, Note_on_c, 0, 74, 100
2, 30660, Note_on_c, 0, 73, 0
2, 30720, Note_on_c, 0, 54, 0
2, 30720, Note_on_c, 0, 50, 100
2, 30780, Note_on_c, 0, 50, 0
2, 30840, Note_on_c, 0, 74, 0
2, 30840, Note_on_c, 0, 50, 100
2, 30960, Note_on_c, 0, 70, 100
2, 31080, Note_on_c, 0, 50, 0
2, 31080, Note_on_c, 0, 62, 100
2, 31080, Note_on_c, 0, 69, 100
2, 31140, Note_on_c, 0, 70, 0
2, 31200, Note_on_c, 0, 69, 0
2, 31200, Note_on_c, 0, 67, 100
2, 31320, Note_on_c, 0, 67, 0
2, 31320, Note_on_c, 0, 66, 100
2, 31440, Note_on_c, 0, 66, 0
2, 31440, Note_on_c, 0, 67, 100
2, 31560, Note_on_c, 0, 62, 0
2, 31560, Note_on_c, 0, 60, 100
2, 31560, Note_on_c, 0, 69, 100
2, 31620, Note_on_c, 0, 67, 0
2, 31680, Note_on_c, 0, 69, 0
2, 31680, Note_on_c, 0, 66, 100
2, 31800, Note_on_c, 0, 60, 0
2, 31800, Note_on_c, 0, 59, 100
2, 31800, Note_on_c, 0, 62, 100
2, 31860, Note_on_c, 0, 66, 0
2, 31920, Note_on_c, 0, 80, 100
2, 32040, Note_on_c, 0, 59, 0
2, 32040, Note_on_c, 0, 80, 0
2, 32040, Note_on_c, 0, 58, 100
2, 32040, Note_on_c, 0, 64, 100
2, 32040, Note_on_c, 0, 79, 100
2, 32100, Note_on_c, 0, 62, 0
2, 32160, Note_on_c, 0, 64, 0
2, 32160, Note_on_c, 0, 65, 100
2, 32160, Note_on_c, 0, 77, 100
2, 32220, Note_on_c, 0, 79, 0
2, 32280, Note_on_c, 0, 65, 0
2, 32280, Note_on_c, 0, 67, 100
2, 32280, Note_on_c, 0, 76, 100
2, 32340, Note_on_c, 0, 77, 0
2, 32400, Note_on_c, 0, 76, 0
2, 32400, Note_on_c, 0, 77, 100
2, 32520, Note_on_c, 0, 58, 0
2, 32520, Note_on_c, 0, 77, 0
2, 32520, Note_on_c, 0, 57, 100
2, 32520, Note_on_c, 0, 60, 100
2, 32520, Note_on_c, 0, 79, 100
2, 32580, Note_on_c, 0, 67, 0
2, 32640, Note_on_c, 0, 57, 0
2, 32640, Note_on_c, 0, 79, 0
2, 32640, Note_on_c, 0, 55, 100
2, 32640, Note_on_c, 0, 76, 100
2, 32760, Note_on_c, 0, 60, 0
2, 32760, Note_on_c, 0, 76, 0
2, 32760, Note_on_c, 0, 57, 100
2, 32760, Note_on_c, 0, 72, 100
2, 32820, Note_on_c, 0, 55, 0
2, 32880, Note_on_c, 0, 67, 100
2, 33000, Note_on_c, 0, 57, 0
2, 33000, Note_on_c, 0, 67, 0
2, 33000, Note_on_c, 0, 56, 100
2, 33000, Note_on_c, 0, 65, 100
2, 33000, Note_on_c, 0, 74, 100
2, 33060, Note_on_c, 0, 72, 0
2, 33120, Note_on_c, 0, 65, 0
2, 33120, Note_on_c, 0, 63, 100
2, 33120, Note_on_c, 0, 75, 100
2, 33180, Note_on_c, 0, 74, 0
2, 33240, Note_on_c, 0, 63, 0
2, 33240, Note_on_c, 0, 62, 100
2, 33240, Note_on_c, 0, 77, 100
2, 33300, Note_on_c, 0, 75, 0
2, 33360, Note_on_c, 0, 62, 0
2, 33360, Note_on_c, 0, 65, 100
2, 33480, Note_on_c, 0, 56, 0
2, 33480, Note_on_c, 0, 65, 0
2, 33480, Note_on_c, 0, 55, 100
2, 33480, Note_on_c, 0, 63, 100
2, 33480, Note_on_c, 0, 70, 100
2, 33540, Note_on_c, 0, 77, 0
2, 33600, Note_on_c, 0, 63, 0
2, 33600, Note_on_c, 0, 67, 100
2, 33720, Note_on_c, 0, 55, 0
2, 33720, Note_on_c, 0, 67, 0
2, 33720, Note_on_c, 0, 50, 100
2, 33720, Note_on_c, 0, 65, 100
2, 33780, Note_on_c, 0, 70, 0
2, 33840, Note_on_c, 0, 77, 100
2, 33960, Note_on_c, 0, 50, 0
2, 33960, Note_on_c, 0, 77, 0
2, 33960, Note_on_c, 0, 51, 100
2, 33960, Note_on_c, 0, 67, 100
2, 33960, Note_on_c, 0, 75, 100
2, 34020, Note_on_c, 0, 65, 0
2, 34080, Note_on_c, 0, 75, 0
2, 34080, Note_on_c, 0, 74, 100
2, 34200, Note_on_c, 0, 51, 0
2, 34200, Note_on_c, 0, 74, 0
2, 34200, Note_on_c, 0, 53, 100
2, 34200, Note_on_c, 0, 68, 100
2, 34200, Note_on_c, 0, 72, 100
2, 34260, Note_on_c, 0, 67, 0
2, 34320, Note_on_c, 0, 72, 0
2, 34320, Note_on_c, 0, 75, 100
2, 34440, Note_on_c, 0, 53, 0
2, 34440, Note_on_c, 0, 75, 0
2, 34440, Note_on_c, 0, 46, 100
2, 34440, Note_on_c, 0, 74, 100
2, 34560, Note_on_c, 0, 74, 0
2, 34560, Note_on_c, 0, 77, 100
2, 34680, Note_on_c, 0, 46, 0
2, 34680, Note_on_c, 0, 51, 100
2, 34680, Note_on_c, 0, 75, 100
2, 34740, Note_on_c, 0, 77, 0
2, 34800, Note_on_c, 0, 68, 0
2, 34800, Note_on_c, 0, 67, 100
2, 34920, Note_on_c, 0, 51, 0
2, 34920, Note_on_c, 0, 67, 0
2, 34920, Note_on_c, 0, 68, 100
2, 34920, Note_on_c, 0, 77, 100
2, 34980, Note_on_c, 0, 75, 0
2, 35040, Note_on_c, 0, 68, 0
2, 35040, Note_on_c, 0, 70, 100
2, 35160, Note_on_c, 0, 77, 0
2, 35160, Note_on_c, 0, 63, 100
2, 35160, Note_on_c, 0, 79, 100
2, 35220, Note_on_c, 0, 70, 0
2, 35280, Note_on_c, 0, 63, 0
2, 35280, Note_on_c, 0, 62, 100
2, 35400, Note_on_c, 0, 62, 0
2, 35400, Note_on_c, 0, 51, 100
2, 35400, Note_on_c, 0, 63, 100
2, 35520, Note_on_c, 0, 63, 0
2, 35520, Note_on_c, 0, 67, 100
2, 35640, Note_on_c, 0, 51, 0
2, 35640, Note_on_c, 0, 56, 100
2, 35640, Note_on_c, 0, 60, 100
2, 35700, Note_on_c, 0, 67, 0
2, 35760, Note_on_c, 0, 79, 0
2, 35760, Note_on_c, 0, 60, 0
2, 35760, Note_on_c, 0, 62, 100
2, 35760, Note_on_c, 0, 77, 100
2, 35880, Note_on_c, 0, 62, 0
2, 35880, Note_on_c, 0, 63, 100
2, 35880, Note_on_c, 0, 79, 100
2, 35940, Note_on_c, 0, 77, 0
2, 36000, Note_on_c, 0, 63, 0
2, 36000, Note_on_c, 0, 60, 100
2, 36000, Note_on_c, 0, 80, 100
2, 36060, Note_on_c, 0, 79, 0
2, 36120, Note_on_c, 0, 60, 0
2, 36120, Note_on_c, 0, 65, 100
2, 36120, Note_on_c, 0, 74, 100
2, 36180, Note_on_c, 0, 80, 0
2, 36240, Note_on_c, 0, 74, 0
2, 36240, Note_on_c, 0, 72, 100
2, 36360, Note_on_c, 0, 56, 0
2, 36360, Note_on_c, 0, 72, 0
2, 36360, Note_on_c, 0, 55, 100
2, 36360, Note_on_c, 0, 58, 100
2, 36360, Note_on_c, 0, 74, 100
2, 36420, Note_on_c, 0, 65, 0
2, 36480, Note_on_c, 0, 55, 0
2, 36480, Note_on_c, 0, 74, 0
2, 36480, Note_on_c, 0, 53, 100
2, 36480, Note_on_c, 0, 77, 100
2, 36600, Note_on_c, 0, 53, 0
2, 36600, Note_on_c, 0, 55, 100
2, 36600, Note_on_c, 0, 70, 100
2, 36660, Note_on_c, 0, 77, 0
2, 36720, Note_on_c, 0, 70, 0
2, 36720, Note_on_c, 0, 72, 100
2, 36840, Note_on_c, 0, 58, 0
2, 36840, Note_on_c, 0, 72, 0
2, 36840, Note_on_c, 0, 56, 100
2, 36840, Note_on_c, 0, 74, 100
2, 36900, Note_on_c, 0, 55, 0
2, 36960, Note_on_c, 0, 56, 0
2, 36960, Note_on_c, 0, 55, 100
2, 36960, Note_on_c, 0, 70, 100
2, 37020, Note_on_c, 0, 74, 0
2, 37080, Note_on_c, 0, 70, 0
2, 37080, Note_on_c, 0, 56, 100
2, 37080, Note_on_c, 0, 75, 100
2, 37200, Note_on_c, 0, 55, 0
2, 37200, Note_on_c, 0, 53, 100
2, 37320, Note_on_c, 0, 56, 0
2, 37320, Note_on_c, 0, 53, 0
2, 37320, Note_on_c, 0, 51, 100
2, 37320, Note_on_c, 0, 65, 100
2, 37320, Note_on_c, 0, 68, 100
2, 37380, Note_on_c, 0, 75, 0
2, 37440, Note_on_c, 0, 51, 0
2, 37440, Note_on_c, 0, 50, 100
2, 37560, Note_on_c, 0, 50, 0
2, 37560, Note_on_c, 0, 51, 100
2, 37680, Note_on_c, 0, 51, 0
2, 37680, Note_on_c, 0, 43, 100
2, 37800, Note_on_c, 0, 65, 0
2, 37800, Note_on_c, 0, 43, 0
2, 37800, Note_on_c, 0, 44, 100
2, 37800, Note_on_c, 0, 63, 100
2, 37800, Note_on_c, 0, 67, 100
2, 37860, Note_on_c, 0, 68, 0
2, 37920, Note_on_c, 0, 44, 0
2, 37920, Note_on_c, 0, 67, 0
2, 37920, Note_on_c, 0, 46, 100
2, 37920, Note_on_c, 0, 62, 100
2, 37920, Note_on_c, 0, 65, 100
2, 37980, Note_on_c, 0, 63, 0
2, 38040, Note_on_c, 0, 46, 0
2, 38040, Note_on_c, 0, 65, 0
2, 38040, Note_on_c, 0, 39, 100
2, 38040, Note_on_c, 0, 63, 100
2, 38040, Note_on_c, 0, 67, 100
2, 38100, Note_on_c, 0, 62, 0
2, 38160, Note_on_c, 0, 39, 0
2, 38160, Note_on_c, 0, 43, 100
2, 38280, Note_on_c, 0, 63, 0
2, 38280, Note_on_c, 0, 43, 0
2, 38280, Note_on_c, 0, 45, 100
2, 38280, Note_on_c, 0, 75, 100
2, 38340, Note_on_c, 0, 67, 0
2, 38400, Note_on_c, 0, 45, 0
2, 38400, Note_on_c, 0, 47, 100
2, 38520, Note_on_c, 0, 47, 0
2, 38520, Note_on_c, 0, 48, 100
2, 38640, Note_on_c, 0, 54, 100
2, 38760, Note_on_c, 0, 75, 0
2, 38760, Note_on_c, 0, 54, 0
2, 38760, Note_on_c, 0, 55, 100
2, 38760, Note_on_c, 0, 74, 100
2, 38880, Note_on_c, 0, 55, 0
2, 38880, Note_on_c, 0, 57, 100
2, 38880, Note_on_c, 0, 72, 100
2, 38940, Note_on_c, 0, 74, 0
2, 39000, Note_on_c, 0, 48, 0
2, 39000, Note_on_c, 0, 72, 0
2, 39000, Note_on_c, 0, 55, 100
2, 39000, Note_on_c, 0, 74, 100
2, 39060, Note_on_c, 0, 57, 0
2, 39120, Note_on_c, 0, 55, 0
2, 39120, Note_on_c, 0, 54, 100
2, 39240, Note_on_c, 0, 74, 0
2, 39240, Note_on_c, 0, 48, 100
2, 39240, Note_on_c, 0, 52, 100
2, 39300, Note_on_c, 0, 54, 0
2, 39360, Note_on_c, 0, 52, 0
2, 39360, Note_on_c, 0, 50, 100
2, 39480, Note_on_c, 0, 48, 0
2, 39480, Note_on_c, 0, 46, 100
2, 39480, Note_on_c, 0, 62, 100
2, 39540, Note_on_c, 0, 50, 0
2, 39600, Note_on_c, 0, 62, 0
2, 39600, Note_on_c, 0, 60, 100
2, 39600, Note_on_c, 0, 64, 100
2, 39720, Note_on_c, 0, 60, 0
2, 39720, Note_on_c, 0, 62, 100
2, 39720, Note_on_c, 0, 65, 100
2, 39780, Note_on_c, 0, 64, 0
2, 39840, Note_on_c, 0, 65, 0
2, 39840, Note_on_c, 0, 67, 100
2, 39960, Note_on_c, 0, 46, 0
2, 39960, Note_on_c, 0, 67, 0
2, 39960, Note_on_c, 0, 55, 100
2, 39960, Note_on_c, 0, 65, 100
2, 40020, Note_on_c, 0, 62, 0
2, 40080, Note_on_c, 0, 65, 0
2, 40080, Note_on_c, 0, 64, 100
2, 40200, Note_on_c, 0, 55, 0
2, 40200, Note_on_c, 0, 46, 100
2, 40200, Note_on_c, 0, 62, 100
2, 40260, Note_on_c, 0, 64, 0
2, 40320, Note_on_c, 0, 62, 0
2, 40320, Note_on_c, 0, 60, 100
2, 40440, Note_on_c, 0, 46, 0
2, 40440, Note_on_c, 0, 45, 100
2, 40440, Note_on_c, 0, 72, 100
2, 40500, Note_on_c, 0, 60, 0
2, 40560, Note_on_c, 0, 45, 0
2, 40560, Note_on_c, 0, 43, 100
2, 40560, Note_on_c, 0, 70, 100
2, 40620, Note_on_c, 0, 72, 0
2, 40680, Note_on_c, 0, 43, 0
2, 40680, Note_on_c, 0, 45, 100
2, 40680, Note_on_c, 0, 63, 100
2, 40680, Note_on_c, 0, 72, 100
2, 40740, Note_on_c, 0, 70, 0
2, 40800, Note_on_c, 0, 45, 0
2, 40800, Note_on_c, 0, 46, 100
2, 40800, Note_on_c, 0, 62, 100
2, 40860, Note_on_c, 0, 63, 0
2, 40920, Note_on_c, 0, 72, 0
2, 40920, Note_on_c, 0, 62, 0
2, 40920, Note_on_c, 0, 45, 100
2, 40920, Note_on_c, 0, 60, 100
2, 40920, Note_on_c, 0, 66, 100
2, 40980, Note_on_c, 0, 46, 0
2, 41040, Note_on_c, 0, 45, 0
2, 41040, Note_on_c, 0, 43, 100
2, 41040, Note_on_c, 0, 58, 100
2, 41100, Note_on_c, 0, 60, 0
2, 41160, Note_on_c, 0, 66, 0
2, 41160, Note_on_c, 0, 58, 0
2, 41160, Note_on_c, 0, 42, 100
2, 41160, Note_on_c, 0, 57, 100
2, 41220, Note_on_c, 0, 43, 0
2, 41280, Note_on_c, 0, 42, 0
2, 41280, Note_on_c, 0, 40, 100
2, 41280, Note_on_c, 0, 55, 100
2, 41340, Note_on_c, 0, 57, 0
2, 41400, Note_on_c, 0, 40, 0
2, 41400, Note_on_c, 0, 38, 100
2, 41400, Note_on_c, 0, 54, 100
2, 41460, Note_on_c, 0, 55, 0
2, 41520, Note_on_c, 0, 38, 0
2, 41520, Note_on_c, 0, 48, 100
2, 41640, Note_on_c, 0, 54, 0
2, 41640, Note_on_c, 0, 50, 100
2, 41640, Note_on_c, 0, 74, 100
2, 41700, Note_on_c, 0, 48, 0
2, 41760, Note_on_c, 0, 50, 0
2, 41760, Note_on_c, 0, 51, 100
2, 41760, Note_on_c, 0, 72, 100
2, 41820, Note_on_c, 0, 74, 0
2, 41880, Note_on_c, 0, 51, 0
2, 41880, Note_on_c, 0, 50, 100
2, 41880, Note_on_c, 0, 70, 100
2, 41940, Note_on_c, 0, 72, 0
2, 42000, Note_on_c, 0, 50, 0
2, 42000, Note_on_c, 0, 48, 100
2, 42000, Note_on_c, 0, 69, 100
2, 42060, Note_on_c, 0, 70, 0
2, 42120, Note_on_c, 0, 48, 0
2, 42120, Note_on_c, 0, 46, 100
2, 42120, Note_on_c, 0, 62, 100
2, 42120, Note_on_c, 0, 67, 100
2, 42180, Note_on_c, 0, 69, 0
2, 42240, Note_on_c, 0, 46, 0
2, 42240, Note_on_c, 0, 67, 0
2, 42240, Note_on_c, 0, 45, 100
2, 42240, Note_on_c, 0, 65, 100
2, 42360, Note_on_c, 0, 45, 0
2, 42360, Note_on_c, 0, 43, 100
2, 42360, Note_on_c, 0, 63, 100
2, 42420, Note_on_c, 0, 65, 0
2, 42480, Note_on_c, 0, 43, 0
2, 42480, Note_on_c, 0, 53, 100
2, 42600, Note_on_c, 0, 62, 0
2, 42600, Note_on_c, 0, 53, 0
2, 42600, Note_on_c, 0, 55, 100
2, 42600, Note_on_c, 0, 60, 100
2, 42660, Note_on_c, 0, 63, 0
2, 42720, Note_on_c, 0, 55, 0
2, 42720, Note_on_c, 0, 56, 100
2, 42840, Note_on_c, 0, 60, 0
2, 42840, Note_on_c, 0, 55, 100
2, 42840, Note_on_c, 0, 59, 100
2, 42900, Note_on_c, 0, 56, 0
2, 42960, Note_on_c, 0, 55, 0
2, 42960, Note_on_c, 0, 53, 100
2, 43080, Note_on_c, 0, 59, 0
2, 43080, Note_on_c, 0, 51, 100
2, 43080, Note_on_c, 0, 60, 100
2, 43080, Note_on_c, 0, 72, 100
2, 43140, Note_on_c, 0, 53, 0
2, 43200, Note_on_c, 0, 51, 0
2, 43200, Note_on_c, 0, 50, 100
2, 43200, Note_on_c, 0, 62, 100
2, 43260, Note_on_c, 0, 60, 0
2, 43320, Note_on_c, 0, 50, 0
2, 43320, Note_on_c, 0, 48, 100
2, 43320, Note_on_c, 0, 63, 100
2, 43380, Note_on_c, 0, 62, 0
2, 43440, Note_on_c, 0, 48, 0
2, 43440, Note_on_c, 0, 47, 100
2, 43560, Note_on_c, 0, 72, 0
2, 43560, Note_on_c, 0, 47, 0
2, 43560, Note_on_c, 0, 48, 100
2, 43560, Note_on_c, 0, 55, 100
2, 43560, Note_on_c, 0, 70, 100
2, 43620, Note_on_c, 0, 63, 0
2, 43680, Note_on_c, 0, 48, 0
2, 43680, Note_on_c, 0, 49, 100
2, 43800, Note_on_c, 0, 55, 0
2, 43800, Note_on_c, 0, 49, 0
2, 43800, Note_on_c, 0, 50, 100
2, 43800, Note_on_c, 0, 54, 100
2, 43800, Note_on_c, 0, 69, 100
2, 43860, Note_on_c, 0, 70, 0
2, 43920, Note_on_c, 0, 50, 0
2, 43920, Note_on_c, 0, 51, 100
2, 44040, Note_on_c, 0, 54, 0
2, 44040, Note_on_c, 0, 51, 0
2, 44040, Note_on_c, 0, 50, 100
2, 44040, Note_on_c, 0, 62, 100
2, 44040, Note_on_c, 0, 70, 100
2, 44100, Note_on_c, 0, 69, 0
2, 44160, Note_on_c, 0, 50, 0
2, 44160, Note_on_c, 0, 70, 0
2, 44160, Note_on_c, 0, 48, 100
2, 44160, Note_on_c, 0, 72, 100
2, 44280, Note_on_c, 0, 48, 0
2, 44280, Note_on_c, 0, 46, 100
2, 44280, Note_on_c, 0, 74, 100
2, 44340, Note_on_c, 0, 72, 0
2, 44400, Note_on_c, 0, 62, 0
2, 44400, Note_on_c, 0, 45, 100
2, 44400, Note_on_c, 0, 60, 100
2, 44460, Note_on_c, 0, 46, 0
2, 44460, Note_on_c, 0, 60, 0
2, 44460, Note_on_c, 0, 58, 100
2, 44520, Note_on_c, 0, 74, 0
2, 44520, Note_on_c, 0, 58, 0
2, 44520, Note_on_c, 0, 46, 100
2, 44520, Note_on_c, 0, 57, 100
2, 44520, Note_on_c, 0, 65, 100
2, 44580, Note_on_c, 0, 45, 0
2, 44580, Note_on_c, 0, 57, 0
2, 44580, Note_on_c, 0, 58, 100
2, 44640, Note_on_c, 0, 46, 0
2, 44640, Note_on_c, 0, 58, 0
2, 44640, Note_on_c, 0, 47, 100
2, 44640, Note_on_c, 0, 55, 100
2, 44760, Note_on_c, 0, 65, 0
2, 44760, Note_on_c, 0, 55, 0
2, 44760, Note_on_c, 0, 48, 100
2, 44760, Note_on_c, 0, 56, 100
2, 44760, Note_on_c, 0, 63, 100
2, 44820, Note_on_c, 0, 47, 0
2, 44880, Note_on_c, 0, 56, 0
2, 44880, Note_on_c, 0, 55, 100
2, 45000, Note_on_c, 0, 48, 0
2, 45000, Note_on_c, 0, 50, 100
2, 45000, Note_on_c, 0, 72, 100
2, 45060, Note_on_c, 0, 63, 0
2, 45120, Note_on_c, 0, 55, 0
2, 45120, Note_on_c, 0, 54, 100
2, 45240, Note_on_c, 0, 50, 0
2, 45240, Note_on_c, 0, 54, 0
2, 45240, Note_on_c, 0, 43, 100
2, 45240, Note_on_c, 0, 55, 100
2, 45360, Note_on_c, 0, 72, 0
2, 45360, Note_on_c, 0, 50, 100
2, 45360, Note_on_c, 0, 70, 100
2, 45420, Note_on_c, 0, 43, 0
2, 45420, Note_on_c, 0, 70, 0
2, 45420, Note_on_c, 0, 69, 100
2, 45480, Note_on_c, 0, 50, 0
2, 45480, Note_on_c, 0, 46, 100
2, 45480, Note_on_c, 0, 67, 100
2, 45540, Note_on_c, 0, 67, 0
2, 45600, Note_on_c, 0, 69, 0
2, 45600, Note_on_c, 0, 50, 100
2, 45600, Note_on_c, 0, 66, 100
2, 45660, Note_on_c, 0, 55, 0
2, 45720, Note_on_c, 0, 46, 0
2, 45720, Note_on_c, 0, 66, 0
2, 45720, Note_on_c, 0, 55, 100
2, 45720, Note_on_c, 0, 67, 100
2, 45780, Note_on_c, 0, 50, 0
2, 45840, Note_on_c, 0, 55, 0
2, 45840, Note_on_c, 0, 50, 100
2, 45960, Note_on_c, 0, 50, 0
2, 45960, Note_on_c, 0, 46, 100
2, 46080, Note_on_c, 0, 46, 0
2, 46080, Note_on_c, 0, 43, 100
2, 46200, Note_on_c, 0, 67, 0
2, 46200, Note_on_c, 0, 50, 100
2, 46260, Note_on_c, 0, 43, 0
2, 46320, Note_on_c, 0, 70, 100
2, 46440, Note_on_c, 0, 50, 0
2, 46440, Note_on_c, 0, 62, 100
2, 46440, Note_on_c, 0, 69, 100
2, 46500, Note_on_c, 0, 70, 0
2, 46560, Note_on_c, 0, 69, 0
2, 46560, Note_on_c, 0, 67, 100
2, 46680, Note_on_c, 0, 67, 0
2, 46680, Note_on_c, 0, 66, 100
2, 46800, Note_on_c, 0, 66, 0
2, 46800, Note_on_c, 0, 67, 100
2, 46920, Note_on_c, 0, 62, 0
2, 46920, Note_on_c, 0, 60, 100
2, 46920, Note_on_c, 0, 69, 100
2, 46980, Note_on_c, 0, 67, 0
2, 47040, Note_on_c, 0, 69, 0
2, 47040, Note_on_c, 0, 66, 100
2, 47160, Note_on_c, 0, 60, 0
2, 47160, Note_on_c, 0, 59, 100
2, 47160, Note_on_c, 0, 62, 100
2, 47220, Note_on_c, 0, 66, 0
2, 47280, Note_on_c, 0, 80, 100
2, 47400, Note_on_c, 0, 59, 0
2, 47400, Note_on_c, 0, 80, 0
2, 47400, Note_on_c, 0, 58, 100
2, 47400, Note_on_c, 0, 64, 100
2, 47400, Note_on_c, 0, 79, 100
2, 47460, Note_on_c, 0, 62, 0
2, 47520, Note_on_c, 0, 64, 0
2, 47520, Note_on_c, 0, 65, 100
2, 47520, Note_on_c, 0, 77, 100
2, 47580, Note_on_c, 0, 79, 0
2, 47640, Note_on_c, 0, 65, 0
2, 47640, Note_on_c, 0, 67, 100
2, 47640, Note_on_c, 0, 76, 100
2, 47700, Note_on_c, 0, 77, 0
2, 47760, Note_on_c, 0, 76, 0
2, 47760, Note_on_c, 0, 77, 100
2, 47880, Note_on_c, 0, 58, 0
2, 47880, Note_on_c, 0, 77, 0
2, 47880, Note_on_c, 0, 57, 100
2, 47880, Note_on_c, 0, 60, 100
2, 47880, Note_on_c, 0, 79, 100
2, 47940, Note_on_c, 0, 67, 0
2, 48000, Note_on_c, 0, 57, 0
2, 48000, Note_on_c, 0, 79, 0
2, 48000, Note_on_c, 0, 55, 100
2, 48000, Note_on_c, 0, 76, 100
2, 48120, Note_on_c, 0, 60, 0
2, 48120, Note_on_c, 0, 76, 0
2, 48120, Note_on_c, 0, 57, 100
2, 48120, Note_on_c, 0, 72, 100
2, 48180, Note_on_c, 0, 55, 0
2, 48240, Note_on_c, 0, 67, 100
2, 48360, Note_on_c, 0, 57, 0
2, 48360, Note_on_c, 0, 67, 0
2, 48360, Note_on_c, 0, 56, 100
2, 48360, Note_on_c, 0, 65, 100
2, 48360, Note_on_c, 0, 74, 100
2, 48420, Note_on_c, 0, 72, 0
2, 48480, Note_on_c, 0, 65, 0
2, 48480, Note_on_c, 0, 63, 100
2, 48480, Note_on_c, 0, 75, 100
2, 48540, Note_on_c, 0, 74, 0
2, 48600, Note_on_c, 0, 63, 0
2, 48600, Note_on_c, 0, 62, 100
2, 48600, Note_on_c, 0, 77, 100
2, 48660, Note_on_c, 0, 75, 0
2, 48720, Note_on_c, 0, 62, 0
2, 48720, Note_on_c, 0, 65, 100
2, 48840, Note_on_c, 0, 56, 0
2, 48840, Note_on_c, 0, 65, 0
2, 48840, Note_on_c, 0, 55, 100
2, 48840, Note_on_c, 0, 63, 100
2, 48840, Note_on_c, 0, 70, 100
2, 48900, Note_on_c, 0, 77, 0
2, 48960, Note_on_c, 0, 63, 0
2, 48960, Note_on_c, 0, 67, 100
2, 49080, Note_on_c, 0, 55, 0
2, 49080, Note_on_c, 0, 67, 0
2, 49080, Note_on_c, 0, 50, 100
2, 49080, Note_on_c, 0, 65, 100
2, 49140, Note_on_c, 0, 70, 0
2, 49200, Note_on_c, 0, 77, 100
2, 49320, Note_on_c, 0, 50, 0
2, 49320, Note_on_c, 0, 77, 0
2, 49320, Note_on_c, 0, 51, 100
2, 49320, Note_on_c, 0, 67, 100
2, 49320, Note_on_c, 0, 75, 100
2, 49380, Note_on_c, 0, 65, 0
2, 49440, Note_on_c, 0, 75, 0
2, 49440, Note_on_c, 0, 74, 100
2, 49560, Note_on_c, 0, 51, 0
2, 49560, Note_on_c, 0, 74, 0
2, 49560, Note_on_c, 0, 53, 100
2, 49560, Note_on_c, 0, 68, 100
2, 49560, Note_on_c, 0, 72, 100
2, 49620, Note_on_c, 0, 67, 0
2, 49680, Note_on_c, 0, 72, 0
2, 49680, Note_on_c, 0, 75, 100
2, 49800, Note_on_c, 0, 53, 0
2, 49800, Note_on_c, 0, 75, 0
2, 49800, Note_on_c, 0, 46, 100
2, 49800, Note_on_c, 0, 74, 100
2, 49920, Note_on_c, 0, 74, 0
2, 49920, Note_on_c, 0, 77, 100
2, 50040, Note_on_c, 0, 46, 0
2, 50040, Note_on_c, 0, 51, 100
2, 50040, Note_on_c, 0, 75, 100
2, 50100, Note_on_c, 0, 77, 0
2, 50160, Note_on_c, 0, 68, 0
2, 50160, Note_on_c, 0, 67, 100
2, 50280, Note_on_c, 0, 51, 0
2, 50280, Note_on_c, 0, 67, 0
2, 50280, Note_on_c, 0, 68, 100
2, 50280, Note_on_c, 0, 77, 100
2, 50340, Note_on_c, 0, 75, 0
2, 50400, Note_on_c, 0, 68, 0
2, 50400, Note_on_c, 0, 70, 100
2, 50520, Note_on_c, 0, 77, 0
2, 50520, Note_on_c, 0, 63, 100
2, 50520, Note_on_c, 0, 79, 100
2, 50580, Note_on_c, 0, 70, 0
2, 50640, Note_on_c, 0, 63, 0
2, 50640, Note_on_c, 0, 62, 100
2, 50760, Note_on_c, 0, 62, 0
2, 50760, Note_on_c, 0, 51, 100
2, 50760, Note_on_c, 0, 63, 100
2, 50880, Note_on_c, 0, 63, 0
2, 50880, Note_on_c, 0, 67, 100
2, 51000, Note_on_c, 0, 51, 0
2, 51000, Note_on_c, 0, 56, 100
2, 51000, Note_on_c, 0, 60, 100
2, 51060, Note_on_c, 0, 67, 0
2, 51120, Note_on_c, 0, 79, 0
2, 51120, Note_on_c, 0, 60, 0
2, 51120, Note_on_c, 0, 62, 100
2, 51120, Note_on_c, 0, 77, 100
2, 51240, Note_on_c, 0, 62, 0
2, 51240, Note_on_c, 0, 63, 100
2, 51240, Note_on_c, 0, 79, 100
2, 51300, Note_on_c, 0, 77, 0
2, 51360, Note_on_c, 0, 63, 0
2, 51360, Note_on_c, 0, 60, 100
2, 51360, Note_on_c, 0, 80, 100
2, 51420, Note_on_c, 0, 79, 0
2, 51480, Note_on_c, 0, 60, 0
2, 51480, Note_on_c, 0, 65, 100
2, 51480, Note_on_c, 0, 74, 100
2, 51540, Note_on_c, 0, 80, 0
2, 51600, Note_on_c, 0, 74, 0
2, 51600, Note_on_c, 0, 72, 100
2, 51720, Note_on_c, 0, 56, 0
2, 51720, Note_on_c, 0, 72, 0
2, 51720, Note_on_c, 0, 55, 100
2, 51720, Note_on_c, 0, 58, 100
2, 51720, Note_on_c, 0, 74, 100
2, 51780, Note_on_c, 0, 65, 0
2, 51840, Note_on_c, 0, 55, 0
2, 51840, Note_on_c, 0, 74, 0
2, 51840, Note_on_c, 0, 53, 100
2, 51840, Note_on_c, 0, 77, 100
2, 51960, Note_on_c, 0, 53, 0
2, 51960, Note_on_c, 0, 55, 100
2, 51960, Note_on_c, 0, 70, 100
2, 52020, Note_on_c, 0, 77, 0
2, 52080, Note_on_c, 0, 70, 0
2, 52080, Note_on_c, 0, 72, 100
2, 52200, Note_on_c, 0, 58, 0
2, 52200, Note_on_c, 0, 72, 0
2, 52200, Note_on_c, 0, 56, 100
2, 52200, Note_on_c, 0, 74, 100
2, 52260, Note_on_c, 0, 55, 0
2, 52320, Note_on_c, 0, 56, 0
2, 52320, Note_on_c, 0, 55, 100
2, 52320, Note_on_c, 0, 70, 100
2, 52380, Note_on_c, 0, 74, 0
2, 52440, Note_on_c, 0, 70, 0
2, 52440, Note_on_c, 0, 56, 100
2, 52440, Note_on_c, 0, 75, 100
2, 52560, Note_on_c, 0, 55, 0
2, 52560, Note_on_c, 0, 53, 100
2, 52680, Note_on_c, 0, 56, 0
2, 52680, Note_on_c, 0, 53, 0
2, 52680, Note_on_c, 0, 51, 100
2, 52680, Note_on_c, 0, 65, 100
2, 52680, Note_on_c, 0, 68, 100
2, 52740, Note_on_c, 0, 75, 0
2, 52800, Note_on_c, 0, 51, 0
2, 52800, Note_on_c, 0, 50, 100
2, 52920, Note_on_c, 0, 50, 0
2, 52920, Note_on_c, 0, 51, 100
2, 53040, Note_on_c, 0, 51, 0
2, 53040, Note_on_c, 0, 43, 100
2, 53160, Note_on_c, 0, 65, 0
2, 53160, Note_on_c, 0, 43, 0
2, 53160, Note_on_c, 0, 44, 100
2, 53160, Note_on_c, 0, 63, 100
2, 53160, Note_on_c, 0, 67, 100
2, 53220, Note_on_c, 0, 68, 0
2, 53280, Note_on_c, 0, 44, 0
2, 53280, Note_on_c, 0, 67, 0
2, 53280, Note_on_c, 0, 46, 100
2, 53280, Note_on_c, 0, 62, 100
2, 53280, Note_on_c, 0, 65, 100
2, 53340, Note_on_c, 0, 63, 0
2, 53400, Note_on_c, 0, 46, 0
2, 53400, Note_on_c, 0, 65, 0
2, 53400, Note_on_c, 0, 39, 100
2, 53400, Note_on_c, 0, 63, 100
2, 53400, Note_on_c, 0, 67, 100
2, 53460, Note_on_c, 0, 62, 0
2, 53520, Note_on_c, 0, 39, 0
2, 53520, Note_on_c, 0, 43, 100
2, 53640, Note_on_c, 0, 63, 0
2, 53640, Note_on_c, 0, 43, 0
2, 53640, Note_on_c, 0, 45, 100
2, 53640, Note_on_c, 0, 75, 100
2, 53700, Note_on_c, 0, 67, 0
2, 53760, Note_on_c, 0, 45, 0
2, 53760, Note_on_c, 0, 47, 100
2, 53880, Note_on_c, 0, 47, 0
2, 53880, Note_on_c, 0, 48, 100
2, 54000, Note_on_c, 0, 54, 100
2, 54120, Note_on_c, 0, 75, 0
2, 54120, Note_on_c, 0, 54, 0
2, 54120, Note_on_c, 0, 55, 100
2, 54120, Note_on_c, 0, 74, 100
2, 54240, Note_on_c, 0, 55, 0
2, 54240, Note_on_c, 0, 57, 100
2, 54240, Note_on_c, 0, 72, 100
2, 54300, Note_on_c, 0, 74, 0
2, 54360, Note_on_c, 0, 48, 0
2, 54360, Note_on_c, 0, 72, 0
2, 54360, Note_on_c, 0, 55, 100
2, 54360, Note_on_c, 0, 74, 100
2, 54420, Note_on_c, 0, 57, 0
2, 54480, Note_on_c, 0, 55, 0
2, 54480, Note_on_c, 0, 54, 100
2, 54600, Note_on_c, 0, 74, 0
2, 54600, Note_on_c, 0, 48, 100
2, 54600, Note_on_c, 0, 52, 100
2, 54660, Note_on_c, 0, 54, 0
2, 54720, Note_on_c, 0, 52, 0
2, 54720, Note_on_c, 0, 50, 100
2, 54840, Note_on_c, 0, 48, 0
2, 54840, Note_on_c, 0, 46, 100
2, 54840, Note_on_c, 0, 62, 100
2, 54900, Note_on_c, 0, 50, 0
2, 54960, Note_on_c, 0, 62, 0
2, 54960, Note_on_c, 0, 60, 100
2, 54960, Note_on_c, 0, 64, 100
2, 55080, Note_on_c, 0, 60, 0
2, 55080, Note_on_c, 0, 62, 100
2, 55080, Note_on_c, 0, 65, 100
2, 55140, Note_on_c, 0, 64, 0
2, 55200, Note_on_c, 0, 65, 0
2, 55200, Note_on_c, 0, 67, 100
2, 55320, Note_on_c, 0, 46, 0
2, 55320, Note_on_c, 0, 67, 0
2, 55320, Note_on_c, 0, 55, 100
2, 55320, Note_on_c, 0, 65, 100
2, 55380, Note_on_c, 0, 62, 0
2, 55440, Note_on_c, 0, 65, 0
2, 55440, Note_on_c, 0, 64, 100
2, 55560, Note_on_c, 0, 55, 0
2, 55560, Note_on_c, 0, 46, 100
2, 55560, Note_on_c, 0, 62, 100
2, 55620, Note_on_c, 0, 64, 0
2, 55680, Note_on_c, 0, 62, 0
2, 55680, Note_on_c, 0, 60, 100
2, 55800, Note_on_c, 0, 46, 0
2, 55800, Note_on_c, 0, 45, 100
2, 55800, Note_on_c, 0, 72, 100
2, 55860, Note_on_c, 0, 60, 0
2, 55920, Note_on_c, 0, 45, 0
2, 55920, Note_on_c, 0, 43, 100
2, 55920, Note_on_c, 0, 70, 100
2, 55980, Note_on_c, 0, 72, 0
2, 56040, Note_on_c, 0, 43, 0
2, 56040, Note_on_c, 0, 45, 100
2, 56040, Note_on_c, 0, 63, 100
2, 56040, Note_on_c, 0, 72, 100
2, 56100, Note_on_c, 0, 70, 0
2, 56160, Note_on_c, 0, 45, 0
2, 56160, Note_on_c, 0, 46, 100
2, 56160, Note_on_c, 0, 62, 100
2, 56220, Note_on_c, 0, 63, 0
2, 56280, Note_on_c, 0, 72, 0
2, 56280, Note_on_c, 0, 62, 0
2, 56280, Note_on_c, 0, 45, 100
2, 56280, Note_on_c, 0, 60, 100
2, 56280, Note_on_c, 0, 66, 100
2, 56340, Note_on_c, 0, 46, 0
2, 56400, Note_on_c, 0, 45, 0
2, 56400, Note_on_c, 0, 43, 100
2, 56400, Note_on_c, 0, 58, 100
2, 56460, Note_on_c, 0, 60, 0
2, 56520, Note_on_c, 0, 66, 0
2, 56520, Note_on_c, 0, 58, 0
2, 56520, Note_on_c, 0, 42, 100
2, 56520, Note_on_c, 0, 57, 100
2, 56580, Note_on_c, 0, 43, 0
2, 56640, Note_on_c, 0, 42, 0
2, 56640, Note_on_c, 0, 40, 100
2, 56640, Note_on_c, 0, 55, 100
2, 56700, Note_on_c, 0, 57, 0
2, 56760, Note_on_c, 0, 40, 0
2, 56760, Note_on_c, 0, 38, 100
2, 56760, Note_on_c, 0, 54, 100
2, 56820, Note_on_c, 0, 55, 0
2, 56880, Note_on_c, 0, 38, 0
2, 56880, Note_on_c, 0, 48, 100
2, 57000, Note_on_c, 0, 54, 0
2, 57000, Note_on_c, 0, 50, 100
2, 57000, Note_on_c, 0, 74, 100
2, 57060, Note_on_c, 0, 48, 0
2, 57120, Note_on_c, 0, 50, 0
2, 57120, Note_on_c, 0, 51, 100
2, 57120, Note_on_c, 0, 72, 100
2, 57180, Note_on_c, 0, 74, 0
2, 57240, Note_on_c, 0, 51, 0
2, 57240, Note_on_c, 0, 50, 100
2, 57240, Note_on_c, 0, 70, 100
2, 57300, Note_on_c, 0, 72, 0
2, 57360, Note_on_c, 0, 50, 0
2, 57360, Note_on_c, 0, 48, 100
2, 57360, Note_on_c, 0, 69, 100
2, 57420, Note_on_c, 0, 70, 0
2, 57480, Note_on_c, 0, 48, 0
2, 57480, Note_on_c, 0, 46, 100
2, 57480, Note_on_c, 0, 62, 100
2, 57480, Note_on_c, 0, 67, 100
2, 57540, Note_on_c, 0, 69, 0
2, 57600, Note_on_c, 0, 46, 0
2, 57600, Note_on_c, 0, 67, 0
2, 57600, Note_on_c, 0, 45, 100
2, 57600, Note_on_c, 0, 65, 100
2, 57720, Note_on_c, 0, 45, 0
2, 57720, Note_on_c, 0, 43, 100
2, 57720, Note_on_c, 0, 63, 100
2, 57780, Note_on_c, 0, 65, 0
2, 57840, Note_on_c, 0, 43, 0
2, 57840, Note_on_c, 0, 53, 100
2, 57960, Note_on_c, 0, 62, 0
2, 57960, Note_on_c, 0, 53, 0
2, 57960, Note_on_c, 0, 55, 100
2, 57960, Note_on_c, 0, 60, 100
2, 58020, Note_on_c, 0, 63, 0
2, 58080, Note_on_c, 0, 55, 0
2, 58080, Note_on_c, 0, 56, 100
2, 58200, Note_on_c, 0, 60, 0
2, 58200, Note_on_c, 0, 55, 100
2, 58200, Note_on_c, 0, 59, 100
2, 58260, Note_on_c, 0, 56, 0
2, 58320, Note_on_c, 0, 55, 0
2, 58320, Note_on_c, 0, 53, 100
2, 58440, Note_on_c, 0, 59, 0
2, 58440, Note_on_c, 0, 51, 100
2, 58440, Note_on_c, 0, 60, 100
2, 58440, Note_on_c, 0, 72, 100
2, 58500, Note_on_c, 0, 53, 0
2, 58560, Note_on_c, 0, 51, 0
2, 58560, Note_on_c, 0, 50, 100
2, 58560, Note_on_c, 0, 62, 100
2, 58620, Note_on_c, 0, 60, 0
2, 58680, Note_on_c, 0, 50, 0
2, 58680, Note_on_c, 0, 48, 100
2, 58680, Note_on_c, 0, 63, 100
2, 58740, Note_on_c, 0, 62, 0
2, 58800, Note_on_c, 0, 48, 0
2, 58800, Note_on_c, 0, 47, 100
2, 58920, Note_on_c, 0, 72, 0
2, 58920, Note_on_c, 0, 47, 0
2, 58920, Note_on_c, 0, 48, 100
2, 58920, Note_on_c, 0, 55, 100
2, 58920, Note_on_c, 0, 70, 100
2, 58980, Note_on_c, 0, 63, 0
2, 59040, Note_on_c, 0, 48, 0
2, 59040, Note_on_c, 0, 49, 100
2, 59160, Note_on_c, 0, 55, 0
2, 59160, Note_on_c, 0, 49, 0
2, 59160, Note_on_c, 0, 50, 100
2, 59160, Note_on_c, 0, 54, 100
2, 59160, Note_on_c, 0, 69, 100
2, 59220, Note_on_c, 0, 70, 0
2, 59280, Note_on_c, 0, 50, 0
2, 59280, Note_on_c, 0, 51, 100
2, 59400, Note_on_c, 0, 54, 0
2, 59400, Note_on_c, 0, 51, 0
2, 59400, Note_on_c, 0, 50, 100
2, 59400, Note_on_c, 0, 62, 100
2, 59400, Note_on_c, 0, 70, 100
2, 59460, Note_on_c, 0, 69, 0
2, 59520, Note_on_c, 0, 50, 0
2, 59520, Note_on_c, 0, 70, 0
2, 59520, Note_on_c, 0, 48, 100
2, 59520, Note_on_c, 0, 72, 100
2, 59640, Note_on_c, 0, 48, 0
2, 59640, Note_on_c, 0, 46, 100
2, 59640, Note_on_c, 0, 74, 100
2, 59700, Note_on_c, 0, 72, 0
2, 59760, Note_on_c, 0, 62, 0
2, 59760, Note_on_c, 0, 45, 100
2, 59760, Note_on_c, 0, 60, 100
2, 59820, Note_on_c, 0, 46, 0
2, 59820, Note_on_c, 0, 60, 0
2, 59820, Note_on_c, 0, 58, 100
2, 59880, Note_on_c, 0, 74, 0
2, 59880, Note_on_c, 0, 58, 0
2, 59880, Note_on_c, 0, 46, 100
2, 59880, Note_on_c, 0, 57, 100
2, 59880, Note_on_c, 0, 65, 100
2, 59940, Note_on_c, 0, 45, 0
2, 59940, Note_on_c, 0, 57, 0
2, 59940, Note_on_c, 0, 58, 100
2, 60000, Note_on_c, 0, 46, 0
2, 60000, Note_on_c, 0, 58, 0
2, 60000, Note_on_c, 0, 47, 100
2, 60000, Note_on_c, 0, 55, 100
2, 60120, Note_on_c, 0, 65, 0
2, 60120, Note_on_c, 0, 55, 0
2, 60120, Note_on_c, 0, 48, 100
2, 60120, Note_on_c, 0, 56, 100
2, 60120, Note_on_c, 0, 63, 100
2, 60180, Note_on_c, 0, 47, 0
2, 60240, Note_on_c, 0, 56, 0
2, 60240, Note_on_c, 0, 55, 100
2, 60360, Note_on_c, 0, 48, 0
2, 60360, Note_on_c, 0, 50, 100
2, 60360, Note_on_c, 0, 72, 100
2, 60420, Note_on_c, 0, 63, 0
2, 60480, Note_on_c, 0, 55, 0
2, 60480, Note_on_c, 0, 54, 100
2, 60600, Note_on_c, 0, 50, 0
2, 60600, Note_on_c, 0, 54, 0
2, 60600, Note_on_c, 0, 43, 100
2, 60600, Note_on_c, 0, 55, 100
2, 60720, Note_on_c, 0, 72, 0
2, 60720, Note_on_c, 0, 50, 100
2, 60720, Note_on_c, 0, 70, 100
2, 60780, Note_on_c, 0, 43, 0
2, 60780, Note_on_c, 0, 70, 0
2, 60780, Note_on_c, 0, 69, 100
2, 60840, Note_on_c, 0, 50, 0
2, 60840, Note_on_c, 0, 46, 100
2, 60840, Note_on_c, 0, 67, 100
2, 60900, Note_on_c, 0, 67, 0
2, 60960, Note_on_c, 0, 69, 0
2, 60960, Note_on_c, 0, 50, 100
2, 60960, Note_on_c, 0, 66, 100
2, 61020, Note_on_c, 0, 55, 0
2, 61080, Note_on_c, 0, 46, 0
2, 61080, Note_on_c, 0, 66, 0
2, 61080, Note_on_c, 0, 55, 100
2, 61080, Note_on_c, 0, 67, 100
2, 61140, Note_on_c, 0, 50, 0
2, 61200, Note_on_c, 0, 55, 0
2, 61200, Note_on_c, 0, 50, 100
2, 61320, Note_on_c, 0, 50, 0
2, 61320, Note_on_c, 0, 46, 100
2, 61440, Note_on_c, 0, 46, 0
2, 61440, Note_on_c, 0, 43, 100
2, 61560, End_track
0, 0, End_of_file
