0, 0, Header, 1, 11, 240
1, 0, Start_track
1, 0, Time_signature, 4, 2, 12, 8
1, 0, Tempo, 789474
1, 0, Marker_t, "Section A"
1, 37884, Tempo, 882353
1, 38292, Tempo, 1578947
1, 38400, Tempo, 789474
1, 39120, Tempo, 576923
1, 39360, Time_signature, 2, 1, 48, 8
1, 39360, Tempo, 300000
1, 39360, Marker_t, "Section B"
1, 208656, Tempo, 359281
1, 208932, Tempo, 422535
1, 209184, Tempo, 571429
1, 209280, Time_signature, 3, 2, 12, 8
1, 209280, Tempo, 789474
1, 209280, Marker_t, "Section C (A in 3/4)"
1, 221316, Tempo, 895522
1, 221436, Tempo, 1111111
1, 221520, Time_signature, 4, 2, 12, 8
1, 221520, Tempo, 789474
1, 222264, Tempo, 571429
1, 222480, Time_signature, 2, 1, 48, 8
1, 222480, Tempo, 300000
1, 222480, Marker_t, "Section B Repeat"
1, 391812, Tempo, 329670
1, 391980, Tempo, 370370
1, 392208, Tempo, 454545
1, 392400, Time_signature, 3, 2, 12, 8
1, 392400, Tempo, 789474
1, 392400, Marker_t, "Section C Repeat"
1, 404028, Tempo, 882353
1, 404604, Tempo, 2857143
1, 404640, Tempo, 789474
1, 404640, End_track
2, 0, Start_track
2, 0, Title_t, "Violin1"
2, 0, Program_c, 0, 40
2, 0, Control_c, 0, 7, 100
2, 1142, Note_on_c, 0, 71, 85
2, 1162, Note_on_c, 0, 73, 64
2, 1182, Note_off_c, 0, 71, 64
2, 1189, Note_on_c, 0, 74, 76
2, 1196, Note_off_c, 0, 73, 64
2, 1220, Note_on_c, 0, 73, 66
2, 1227, Note_off_c, 0, 74, 64
2, 1242, Note_on_c, 0, 74, 70
2, 1246, Note_off_c, 0, 73, 64
2, 1265, Note_on_c, 0, 73, 61
2, 1269, Note_off_c, 0, 74, 64
2, 1286, Note_on_c, 0, 74, 78
2, 1288, Note_off_c, 0, 73, 64
2, 1305, Note_on_c, 0, 73, 63
2, 1309, Note_off_c, 0, 74, 64
2, 1326, Note_on_c, 0, 74, 70
2, 1330, Note_off_c, 0, 73, 64
2, 1344, Note_on_c, 0, 73, 63
2, 1353, Note_off_c, 0, 74, 64
2, 1365, Note_on_c, 0, 71, 82
2, 1372, Note_off_c, 0, 73, 64
2, 1393, Note_on_c, 0, 73, 66
2, 1410, Note_off_c, 0, 71, 64
2, 1421, Note_on_c, 0, 74, 100
2, 1425, Note_off_c, 0, 73, 64
2, 1513, Note_off_c, 0, 74, 64
2, 1601, Note_on_c, 0, 73, 63
2, 1625, Note_on_c, 0, 71, 78
2, 1638, Note_off_c, 0, 73, 64
2, 1660, Note_off_c, 0, 71, 64
2, 1663, Note_on_c, 0, 79, 95
2, 1750, Note_off_c, 0, 79, 64
2, 1868, Note_on_c, 0, 79, 89
2, 1892, Note_off_c, 0, 79, 64
2, 1918, Note_on_c, 0, 79, 100
2, 2036, Note_on_c, 0, 78, 56
2, 2044, Note_off_c, 0, 79, 64
2, 2289, Note_off_c, 0, 78, 64
2, 2348, Note_on_c, 0, 78, 80
2, 2383, Note_off_c, 0, 78, 64
2, 2400, Note_on_c, 0, 71, 66
2, 2552, Note_off_c, 0, 71, 64
2, 2634, Note_on_c, 0, 76, 80
2, 2998, Note_off_c, 0, 76, 64
2, 3047, Note_on_c, 0, 78, 82
2, 3074, Note_on_c, 0, 79, 76
2, 3075, Note_off_c, 0, 78, 64
2, 3101, Note_off_c, 0, 79, 64
2, 3111, Note_on_c, 0, 78, 91
2, 3208, Note_off_c, 0, 78, 64
2, 3282, Note_on_c, 0, 79, 64
2, 3312, Note_on_c, 0, 76, 70
2, 3323, Note_off_c, 0, 79, 64
2, 3336, Note_off_c, 0, 76, 64
2, 3359, Note_on_c, 0, 76, 82
2, 3424, Note_on_c, 0, 74, 53
2, 3434, Note_off_c, 0, 76, 64
2, 3459, Note_off_c, 0, 74, 64
2, 3459, Note_on_c, 0, 76, 64
2, 3488, Note_on_c, 0, 74, 62
2, 3489, Note_off_c, 0, 76, 64
2, 3508, Note_off_c, 0, 74, 64
2, 3511, Note_on_c, 0, 76, 70
2, 3530, Note_on_c, 0, 74, 68
2, 3532, Note_off_c, 0, 76, 64
2, 3549, Note_on_c, 0, 76, 66
2, 3553, Note_off_c, 0, 74, 64
2, 3568, Note_on_c, 0, 74, 72
2, 3573, Note_off_c, 0, 76, 64
2, 3588, Note_on_c, 0, 76, 56
2, 3600, Note_off_c, 0, 76, 64
2, 3697, Note_off_c, 0, 74, 64
2, 3769, Note_on_c, 0, 73, 82
2, 3802, Note_off_c, 0, 73, 64
2, 3825, Note_on_c, 0, 73, 68
2, 4176, Note_off_c, 0, 73, 64
2, 4262, Note_on_c, 0, 73, 78
2, 4294, Note_off_c, 0, 73, 64
2, 4313, Note_on_c, 0, 78, 72
2, 4633, Note_off_c, 0, 78, 64
2, 4732, Note_on_c, 0, 79, 87
2, 4762, Note_off_c, 0, 79, 64
2, 4794, Note_on_c, 0, 76, 91
2, 4906, Note_on_c, 0, 75, 52
2, 4916, Note_off_c, 0, 76, 64
2, 5128, Note_off_c, 0, 75, 64
2, 5222, Note_on_c, 0, 75, 70
2, 5261, Note_off_c, 0, 75, 64
2, 5268, Note_on_c, 0, 76, 82
2, 5345, Note_off_c, 0, 76, 64
2, 5462, Note_on_c, 0, 75, 72
2, 5501, Note_off_c, 0, 75, 64
2, 5511, Note_on_c, 0, 76, 87
2, 5591, Note_off_c, 0, 76, 64
2, 5694, Note_on_c, 0, 78, 82
2, 5725, Note_off_c, 0, 78, 64
2, 5754, Note_on_c, 0, 78, 91
2, 5879, Note_on_c, 0, 79, 68
2, 5887, Note_off_c, 0, 78, 64
2, 6111, Note_off_c, 0, 79, 64
2, 6184, Note_on_c, 0, 83, 85
2, 6223, Note_off_c, 0, 83, 64
2, 6232, Note_on_c, 0, 76, 76
2, 6304, Note_off_c, 0, 76, 64
2, 6413, Note_on_c, 0, 76, 80
2, 6458, Note_off_c, 0, 76, 64
2, 6466, Note_on_c, 0, 78, 82
2, 6548, Note_off_c, 0, 78, 64
2, 6653, Note_on_c, 0, 79, 85
2, 6688, Note_off_c, 0, 79, 64
2, 6709, Note_on_c, 0, 74, 89
2, 6848, Note_on_c, 0, 73, 53
2, 6852, Note_off_c, 0, 74, 64
2, 7053, Note_off_c, 0, 73, 64
2, 7133, Note_on_c, 0, 73, 74
2, 7174, Note_off_c, 0, 73, 64
2, 7179, Note_on_c, 0, 74, 87
2, 7260, Note_off_c, 0, 74, 64
2, 7375, Note_on_c, 0, 73, 64
2, 7418, Note_off_c, 0, 73, 64
2, 7424, Note_on_c, 0, 74, 82
2, 7507, Note_off_c, 0, 74, 64
2, 7613, Note_on_c, 0, 76, 76
2, 7654, Note_off_c, 0, 76, 64
2, 7665, Note_on_c, 0, 78, 80
2, 7782, Note_off_c, 0, 78, 64
2, 7830, Note_on_c, 0, 79, 63
2, 7851, Note_on_c, 0, 78, 74
2, 7860, Note_off_c, 0, 79, 64
2, 7882, Note_on_c, 0, 79, 70
2, 7892, Note_off_c, 0, 78, 64
2, 7905, Note_on_c, 0, 81, 82
2, 7916, Note_off_c, 0, 79, 64
2, 7942, Note_off_c, 0, 81, 64
2, 7943, Note_on_c, 0, 79, 66
2, 7964, Note_on_c, 0, 81, 70
2, 7968, Note_off_c, 0, 79, 64
2, 7990, Note_on_c, 0, 79, 72
2, 7992, Note_off_c, 0, 81, 64
2, 8010, Note_on_c, 0, 81, 66
2, 8013, Note_off_c, 0, 79, 64
2, 8028, Note_on_c, 0, 79, 72
2, 8040, Note_off_c, 0, 79, 64
2, 8058, Note_on_c, 0, 79, 80
2, 8067, Note_off_c, 0, 81, 64
2, 8083, Note_on_c, 0, 78, 66
2, 8086, Note_off_c, 0, 79, 64
2, 8103, Note_on_c, 0, 79, 85
2, 8113, Note_off_c, 0, 78, 64
2, 8140, Note_on_c, 0, 81, 87
2, 8145, Note_off_c, 0, 79, 64
2, 8251, Note_off_c, 0, 81, 64
2, 8332, Note_on_c, 0, 79, 82
2, 8352, Note_on_c, 0, 78, 60
2, 8366, Note_off_c, 0, 79, 64
2, 8382, Note_off_c, 0, 78, 64
2, 8389, Note_on_c, 0, 83, 80
2, 8472, Note_off_c, 0, 83, 64
2, 8575, Note_on_c, 0, 76, 78
2, 8613, Note_off_c, 0, 76, 64
2, 8629, Note_on_c, 0, 81, 87
2, 8940, Note_off_c, 0, 81, 64
2, 9053, Note_on_c, 0, 74, 80
2, 9081, Note_off_c, 0, 74, 64
2, 9118, Note_on_c, 0, 74, 89
2, 9233, Note_on_c, 0, 73, 52
2, 9241, Note_off_c, 0, 74, 64
2, 9446, Note_off_c, 0, 73, 64
2, 9531, Note_on_c, 0, 79, 72
2, 9560, Note_off_c, 0, 79, 64
2, 9597, Note_on_c, 0, 79, 80
2, 9622, Note_on_c, 0, 78, 91
2, 9628, Note_off_c, 0, 79, 64
2, 9646, Note_on_c, 0, 79, 68
2, 9650, Note_off_c, 0, 78, 64
2, 9666, Note_on_c, 0, 78, 72
2, 9680, Note_off_c, 0, 79, 64
2, 9725, Note_off_c, 0, 78, 64
2, 9772, Note_on_c, 0, 76, 76
2, 9799, Note_on_c, 0, 74, 80
2, 9806, Note_off_c, 0, 76, 64
2, 9835, Note_on_c, 0, 76, 80
2, 9838, Note_off_c, 0, 74, 64
2, 9925, Note_off_c, 0, 76, 64
2, 10004, Note_on_c, 0, 71, 78
2, 10040, Note_off_c, 0, 71, 64
2, 10062, Note_on_c, 0, 74, 80
2, 10141, Note_on_c, 0, 73, 51
2, 10150, Note_off_c, 0, 74, 64
2, 10177, Note_on_c, 0, 74, 68
2, 10180, Note_off_c, 0, 73, 64
2, 10210, Note_on_c, 0, 73, 49
2, 10212, Note_off_c, 0, 74, 64
2, 10228, Note_off_c, 0, 73, 64
2, 10228, Note_on_c, 0, 74, 68
2, 10250, Note_on_c, 0, 73, 59
2, 10253, Note_off_c, 0, 74, 64
2, 10269, Note_on_c, 0, 74, 66
2, 10271, Note_off_c, 0, 73, 64
2, 10291, Note_on_c, 0, 73, 70
2, 10297, Note_off_c, 0, 74, 64
2, 10423, Note_off_c, 0, 73, 64
2, 10491, Note_on_c, 0, 74, 80
2, 10525, Note_off_c, 0, 74, 64
2, 10547, Note_on_c, 0, 74, 78
2, 10669, Note_off_c, 0, 74, 64
2, 10734, Note_on_c, 0, 62, 59
2, 10760, Note_on_c, 0, 64, 72
2, 10772, Note_off_c, 0, 62, 64
2, 10786, Note_on_c, 0, 66, 57
2, 10791, Note_off_c, 0, 64, 64
2, 10815, Note_on_c, 0, 64, 62
2, 10817, Note_off_c, 0, 66, 64
2, 10838, Note_on_c, 0, 66, 63
2, 10841, Note_off_c, 0, 64, 64
2, 10858, Note_on_c, 0, 64, 55
2, 10860, Note_off_c, 0, 66, 64
2, 10875, Note_off_c, 0, 64, 64
2, 10875, Note_on_c, 0, 66, 55
2, 10892, Note_on_c, 0, 64, 61
2, 10912, Note_off_c, 0, 64, 64
2, 10923, Note_on_c, 0, 64, 58
2, 10932, Note_off_c, 0, 66, 64
2, 10956, Note_off_c, 0, 64, 64
2, 10956, Note_on_c, 0, 62, 66
2, 10981, Note_on_c, 0, 64, 72
2, 10999, Note_off_c, 0, 62, 64
2, 11011, Note_on_c, 0, 66, 80
2, 11020, Note_off_c, 0, 64, 64
2, 11150, Note_off_c, 0, 66, 64
2, 11200, Note_on_c, 0, 64, 62
2, 11226, Note_on_c, 0, 62, 70
2, 11235, Note_off_c, 0, 64, 64
2, 11263, Note_off_c, 0, 62, 64
2, 11265, Note_on_c, 0, 71, 82
2, 11357, Note_off_c, 0, 71, 64
2, 11450, Note_on_c, 0, 73, 66
2, 11486, Note_off_c, 0, 73, 64
2, 11509, Note_on_c, 0, 69, 85
2, 11629, Note_on_c, 0, 68, 53
2, 11636, Note_off_c, 0, 69, 64
2, 11862, Note_off_c, 0, 68, 64
2, 11948, Note_on_c, 0, 69, 74
2, 11993, Note_off_c, 0, 69, 64
2, 11997, Note_on_c, 0, 71, 85
2, 12083, Note_off_c, 0, 71, 64
2, 12182, Note_on_c, 0, 73, 61
2, 12228, Note_off_c, 0, 73, 64
2, 12234, Note_on_c, 0, 74, 82
2, 12319, Note_off_c, 0, 74, 64
2, 12435, Note_on_c, 0, 71, 64
2, 12473, Note_off_c, 0, 71, 64
2, 12483, Note_on_c, 0, 73, 85
2, 12592, Note_off_c, 0, 73, 64
2, 12655, Note_on_c, 0, 73, 57
2, 12677, Note_on_c, 0, 74, 78
2, 12686, Note_off_c, 0, 73, 64
2, 12712, Note_off_c, 0, 74, 64
2, 12719, Note_on_c, 0, 76, 85
2, 12796, Note_off_c, 0, 76, 64
2, 12884, Note_on_c, 0, 78, 61
2, 12904, Note_on_c, 0, 79, 78
2, 12917, Note_off_c, 0, 78, 64
2, 12936, Note_off_c, 0, 79, 64
2, 12946, Note_on_c, 0, 81, 87
2, 13299, Note_off_c, 0, 81, 64
2, 13381, Note_on_c, 0, 81, 80
2, 13410, Note_off_c, 0, 81, 64
2, 13430, Note_on_c, 0, 81, 87
2, 13556, Note_off_c, 0, 81, 64
2, 13621, Note_on_c, 0, 78, 55
2, 13642, Note_on_c, 0, 79, 72
2, 13652, Note_off_c, 0, 78, 64
2, 13673, Note_off_c, 0, 79, 64
2, 13680, Note_on_c, 0, 81, 74
2, 13782, Note_off_c, 0, 81, 64
2, 13855, Note_on_c, 0, 79, 70
2, 13883, Note_on_c, 0, 78, 70
2, 13891, Note_off_c, 0, 79, 64
2, 13908, Note_off_c, 0, 78, 64
2, 13923, Note_on_c, 0, 83, 98
2, 14006, Note_off_c, 0, 83, 64
2, 14091, Note_on_c, 0, 81, 66
2, 14127, Note_off_c, 0, 81, 64
2, 14142, Note_on_c, 0, 79, 87
2, 14226, Note_off_c, 0, 79, 64
2, 14334, Note_on_c, 0, 78, 68
2, 14364, Note_off_c, 0, 78, 64
2, 14386, Note_on_c, 0, 78, 85
2, 14518, Note_on_c, 0, 79, 72
2, 14528, Note_off_c, 0, 78, 64
2, 14971, Note_off_c, 0, 79, 64
2, 15045, Note_on_c, 0, 69, 64
2, 15070, Note_on_c, 0, 71, 78
2, 15082, Note_off_c, 0, 69, 64
2, 15095, Note_off_c, 0, 71, 64
2, 15110, Note_on_c, 0, 73, 78
2, 15196, Note_off_c, 0, 73, 64
2, 15285, Note_on_c, 0, 74, 72
2, 15311, Note_on_c, 0, 76, 68
2, 15321, Note_off_c, 0, 74, 64
2, 15339, Note_off_c, 0, 76, 64
2, 15353, Note_on_c, 0, 78, 64
2, 15921, Note_off_c, 0, 78, 64
2, 16009, Note_on_c, 0, 71, 64
2, 16031, Note_on_c, 0, 73, 57
2, 16041, Note_off_c, 0, 71, 64
2, 16061, Note_off_c, 0, 73, 64
2, 16068, Note_on_c, 0, 74, 87
2, 16156, Note_off_c, 0, 74, 64
2, 16237, Note_on_c, 0, 73, 59
2, 16263, Note_on_c, 0, 71, 68
2, 16272, Note_off_c, 0, 73, 64
2, 16298, Note_off_c, 0, 71, 64
2, 16303, Note_on_c, 0, 76, 66
2, 16897, Note_off_c, 0, 76, 64
2, 16964, Note_on_c, 0, 78, 64
2, 16989, Note_on_c, 0, 79, 82
2, 16998, Note_off_c, 0, 78, 64
2, 17021, Note_off_c, 0, 79, 64
2, 17033, Note_on_c, 0, 73, 66
2, 17126, Note_off_c, 0, 73, 64
2, 17200, Note_on_c, 0, 74, 61
2, 17226, Note_on_c, 0, 76, 78
2, 17232, Note_off_c, 0, 74, 64
2, 17259, Note_off_c, 0, 76, 64
2, 17265, Note_on_c, 0, 70, 60
2, 17374, Note_off_c, 0, 70, 64
2, 17445, Note_on_c, 0, 76, 80
2, 17469, Note_on_c, 0, 78, 60
2, 17480, Note_off_c, 0, 76, 64
2, 17500, Note_off_c, 0, 78, 64
2, 17504, Note_on_c, 0, 79, 82
2, 17588, Note_off_c, 0, 79, 64
2, 17679, Note_on_c, 0, 78, 59
2, 17705, Note_on_c, 0, 76, 66
2, 17710, Note_off_c, 0, 78, 64
2, 17737, Note_off_c, 0, 76, 64
2, 17746, Note_on_c, 0, 85, 80
2, 17841, Note_off_c, 0, 85, 64
2, 17945, Note_on_c, 0, 76, 74
2, 17977, Note_off_c, 0, 76, 64
2, 17989, Note_on_c, 0, 78, 74
2, 18086, Note_off_c, 0, 78, 64
2, 18176, Note_on_c, 0, 73, 60
2, 18202, Note_off_c, 0, 73, 64
2, 18225, Note_on_c, 0, 73, 82
2, 18346, Note_on_c, 0, 74, 72
2, 18351, Note_off_c, 0, 73, 64
2, 18559, Note_off_c, 0, 74, 64
2, 18619, Note_on_c, 0, 76, 80
2, 18648, Note_on_c, 0, 73, 63
2, 18661, Note_off_c, 0, 76, 64
2, 18680, Note_on_c, 0, 74, 70
2, 18693, Note_off_c, 0, 73, 64
2, 18718, Note_on_c, 0, 76, 64
2, 18722, Note_off_c, 0, 74, 64
2, 18768, Note_on_c, 0, 74, 74
2, 18781, Note_off_c, 0, 76, 64
2, 18804, Note_on_c, 0, 76, 64
2, 18807, Note_off_c, 0, 74, 64
2, 18832, Note_on_c, 0, 74, 64
2, 18836, Note_off_c, 0, 76, 64
2, 18854, Note_off_c, 0, 74, 64
2, 18858, Note_on_c, 0, 76, 68
2, 18877, Note_on_c, 0, 74, 68
2, 18880, Note_off_c, 0, 76, 64
2, 18898, Note_on_c, 0, 76, 82
2, 18900, Note_off_c, 0, 74, 64
2, 18917, Note_on_c, 0, 74, 68
2, 18920, Note_off_c, 0, 76, 64
2, 18933, Note_on_c, 0, 76, 70
2, 18936, Note_off_c, 0, 74, 64
2, 18951, Note_on_c, 0, 74, 80
2, 18961, Note_off_c, 0, 76, 64
2, 19090, Note_off_c, 0, 74, 64
2, 19139, Note_on_c, 0, 73, 82
2, 19170, Note_off_c, 0, 73, 64
2, 19192, Note_on_c, 0, 73, 63
2, 19669, Note_off_c, 0, 73, 64
2, 39243, Note_on_c, 0, 78, 80
2, 39284, Note_off_c, 0, 78, 64
2, 39357, Note_on_c, 0, 79, 82
2, 39450, Note_off_c, 0, 79, 64
2, 39587, Note_on_c, 0, 78, 72
2, 39944, Note_off_c, 0, 78, 64
2, 40064, Note_on_c, 0, 76, 78
2, 40207, Note_off_c, 0, 76, 64
2, 40304, Note_on_c, 0, 78, 89
2, 40402, Note_on_c, 0, 76, 80
2, 40411, Note_off_c, 0, 78, 64
2, 40501, Note_off_c, 0, 76, 64
2, 40513, Note_on_c, 0, 74, 64
2, 40634, Note_on_c, 0, 76, 76
2, 40654, Note_off_c, 0, 74, 64
2, 40732, Note_off_c, 0, 76, 64
2, 40763, Note_on_c, 0, 78, 70
2, 40851, Note_off_c, 0, 78, 64
2, 40999, Note_on_c, 0, 71, 66
2, 41095, Note_off_c, 0, 71, 64
2, 41252, Note_on_c, 0, 76, 85
2, 41332, Note_off_c, 0, 76, 64
2, 41498, Note_on_c, 0, 74, 82
2, 41865, Note_off_c, 0, 74, 64
2, 41980, Note_on_c, 0, 73, 66
2, 42140, Note_off_c, 0, 73, 64
2, 42219, Note_on_c, 0, 74, 78
2, 42328, Note_on_c, 0, 76, 70
2, 42352, Note_off_c, 0, 74, 64
2, 42427, Note_off_c, 0, 76, 64
2, 42454, Note_on_c, 0, 74, 64
2, 42554, Note_off_c, 0, 74, 64
2, 42573, Note_on_c, 0, 73, 51
2, 42674, Note_off_c, 0, 73, 64
2, 42699, Note_on_c, 0, 71, 63
2, 42812, Note_off_c, 0, 71, 64
2, 42818, Note_on_c, 0, 73, 56
2, 42928, Note_off_c, 0, 73, 64
2, 42941, Note_on_c, 0, 74, 70
2, 43049, Note_off_c, 0, 74, 64
2, 43056, Note_on_c, 0, 76, 72
2, 43153, Note_off_c, 0, 76, 64
2, 43173, Note_on_c, 0, 78, 70
2, 43291, Note_on_c, 0, 80, 68
2, 43300, Note_off_c, 0, 78, 64
2, 43383, Note_off_c, 0, 80, 64
2, 43414, Note_on_c, 0, 81, 82
2, 43519, Note_off_c, 0, 81, 64
2, 43525, Note_on_c, 0, 78, 57
2, 43618, Note_off_c, 0, 78, 64
2, 43660, Note_on_c, 0, 80, 78
2, 43766, Note_on_c, 0, 81, 76
2, 43771, Note_off_c, 0, 80, 64
2, 43859, Note_off_c, 0, 81, 64
2, 43888, Note_on_c, 0, 83, 82
2, 44001, Note_off_c, 0, 83, 64
2, 44003, Note_on_c, 0, 80, 64
2, 44084, Note_off_c, 0, 80, 64
2, 44127, Note_on_c, 0, 81, 82
2, 44678, Note_off_c, 0, 81, 64
2, 44730, Note_on_c, 0, 80, 66
2, 44829, Note_off_c, 0, 80, 64
2, 44844, Note_on_c, 0, 81, 70
2, 44940, Note_off_c, 0, 81, 64
2, 44960, Note_on_c, 0, 83, 76
2, 45044, Note_off_c, 0, 83, 64
2, 45093, Note_on_c, 0, 81, 87
2, 45208, Note_off_c, 0, 81, 64
2, 45212, Note_on_c, 0, 80, 64
2, 45321, Note_off_c, 0, 80, 64
2, 45332, Note_on_c, 0, 78, 52
2, 45445, Note_off_c, 0, 78, 64
2, 45447, Note_on_c, 0, 81, 66
2, 45528, Note_off_c, 0, 81, 64
2, 45575, Note_on_c, 0, 80, 80
2, 45692, Note_on_c, 0, 78, 57
2, 45699, Note_off_c, 0, 80, 64
2, 45783, Note_off_c, 0, 78, 64
2, 45807, Note_on_c, 0, 77, 52
2, 45888, Note_off_c, 0, 77, 64
2, 45918, Note_on_c, 0, 80, 58
2, 46007, Note_off_c, 0, 80, 64
2, 46049, Note_on_c, 0, 78, 80
2, 46148, Note_off_c, 0, 78, 64
2, 46295, Note_on_c, 0, 73, 51
2, 46361, Note_off_c, 0, 73, 64
2, 46536, Note_on_c, 0, 78, 63
2, 46615, Note_off_c, 0, 78, 64
2, 46784, Note_on_c, 0, 66, 64
2, 46874, Note_off_c, 0, 66, 64
2, 47025, Note_on_c, 0, 76, 82
2, 47107, Note_off_c, 0, 76, 64
2, 47248, Note_on_c, 0, 70, 57
2, 47313, Note_off_c, 0, 70, 64
2, 47494, Note_on_c, 0, 76, 76
2, 47582, Note_off_c, 0, 76, 64
2, 47729, Note_on_c, 0, 66, 60
2, 47804, Note_off_c, 0, 66, 64
2, 47994, Note_on_c, 0, 74, 68
2, 48078, Note_off_c, 0, 74, 64
2, 48227, Note_on_c, 0, 83, 82
2, 48306, Note_off_c, 0, 83, 64
2, 48468, Note_on_c, 0, 82, 64
2, 48555, Note_off_c, 0, 82, 64
2, 48577, Note_on_c, 0, 83, 72
2, 48659, Note_off_c, 0, 83, 64
2, 48701, Note_on_c, 0, 85, 76
2, 49039, Note_off_c, 0, 85, 64
2, 49183, Note_on_c, 0, 78, 70
2, 49267, Note_off_c, 0, 78, 64
2, 49424, Note_on_c, 0, 83, 85
2, 49949, Note_off_c, 0, 83, 64
2, 50015, Note_on_c, 0, 81, 80
2, 50108, Note_off_c, 0, 81, 64
2, 50130, Note_on_c, 0, 79, 66
2, 50224, Note_off_c, 0, 79, 64
2, 50241, Note_on_c, 0, 78, 60
2, 50323, Note_off_c, 0, 78, 64
2, 50352, Note_on_c, 0, 76, 63
2, 50469, Note_on_c, 0, 78, 63
2, 50493, Note_off_c, 0, 76, 64
2, 50551, Note_off_c, 0, 78, 64
2, 50591, Note_on_c, 0, 79, 78
2, 50989, Note_off_c, 0, 79, 64
2, 51091, Note_on_c, 0, 78, 82
2, 51197, Note_on_c, 0, 76, 72
2, 51198, Note_off_c, 0, 78, 64
2, 51302, Note_off_c, 0, 76, 64
2, 51311, Note_on_c, 0, 74, 59
2, 51426, Note_off_c, 0, 74, 64
2, 51428, Note_on_c, 0, 73, 42
2, 51538, Note_off_c, 0, 73, 64
2, 51549, Note_on_c, 0, 71, 66
2, 51662, Note_on_c, 0, 70, 53
2, 51667, Note_off_c, 0, 71, 64
2, 51766, Note_off_c, 0, 70, 64
2, 51795, Note_on_c, 0, 71, 78
2, 51939, Note_off_c, 0, 71, 64
2, 52061, Note_on_c, 0, 73, 57
2, 52156, Note_off_c, 0, 73, 64
2, 52158, Note_on_c, 0, 69, 64
2, 52240, Note_off_c, 0, 69, 64
2, 52302, Note_on_c, 0, 74, 78
2, 52395, Note_off_c, 0, 74, 64
2, 52546, Note_on_c, 0, 65, 80
2, 52979, Note_off_c, 0, 65, 64
2, 53037, Note_on_c, 0, 66, 64
2, 53152, Note_on_c, 0, 68, 68
2, 53156, Note_off_c, 0, 66, 64
2, 53243, Note_off_c, 0, 68, 64
2, 53263, Note_on_c, 0, 69, 72
2, 53365, Note_on_c, 0, 71, 70
2, 53384, Note_off_c, 0, 69, 64
2, 53478, Note_off_c, 0, 71, 64
2, 53494, Note_on_c, 0, 73, 68
2, 53608, Note_off_c, 0, 73, 64
2, 53741, Note_on_c, 0, 62, 82
2, 53858, Note_off_c, 0, 62, 64
2, 53980, Note_on_c, 0, 71, 68
2, 54084, Note_off_c, 0, 71, 64
2, 54228, Note_on_c, 0, 74, 78
2, 54299, Note_off_c, 0, 74, 64
2, 54474, Note_on_c, 0, 83, 87
2, 54768, Note_off_c, 0, 83, 64
2, 54932, Note_on_c, 0, 73, 62
2, 55029, Note_off_c, 0, 73, 64
2, 55177, Note_on_c, 0, 81, 85
2, 55242, Note_off_c, 0, 81, 64
2, 55411, Note_on_c, 0, 78, 68
2, 55749, Note_off_c, 0, 78, 64
2, 55902, Note_on_c, 0, 76, 80
2, 55996, Note_off_c, 0, 76, 64
2, 56149, Note_on_c, 0, 85, 87
2, 56253, Note_off_c, 0, 85, 64
2, 56379, Note_on_c, 0, 76, 70
2, 56732, Note_off_c, 0, 76, 64
2, 56864, Note_on_c, 0, 74, 68
2, 56948, Note_off_c, 0, 74, 64
2, 57105, Note_on_c, 0, 79, 82
2, 57651, Note_off_c, 0, 79, 64
2, 57827, Note_on_c, 0, 78, 66
2, 57925, Note_off_c, 0, 78, 64
2, 57925, Note_on_c, 0, 76, 66
2, 58007, Note_off_c, 0, 76, 64
2, 58058, Note_on_c, 0, 78, 63
2, 58157, Note_off_c, 0, 78, 64
2, 58303, Note_on_c, 0, 80, 70
2, 58387, Note_off_c, 0, 80, 64
2, 58540, Note_on_c, 0, 81, 87
2, 58637, Note_off_c, 0, 81, 64
2, 58780, Note_on_c, 0, 76, 66
2, 58856, Note_off_c, 0, 76, 64
2, 59022, Note_on_c, 0, 73, 57
2, 59129, Note_off_c, 0, 73, 64
2, 59268, Note_on_c, 0, 81, 82
2, 59653, Note_off_c, 0, 81, 64
2, 59757, Note_on_c, 0, 80, 74
2, 59839, Note_off_c, 0, 80, 64
2, 59851, Note_on_c, 0, 78, 64
2, 59939, Note_off_c, 0, 78, 64
2, 59985, Note_on_c, 0, 80, 85
2, 60082, Note_off_c, 0, 80, 64
2, 60227, Note_on_c, 0, 82, 82
2, 60315, Note_off_c, 0, 82, 64
2, 60461, Note_on_c, 0, 83, 89
2, 60588, Note_off_c, 0, 83, 64
2, 60696, Note_on_c, 0, 71, 64
2, 60804, Note_off_c, 0, 71, 64
2, 60809, Note_on_c, 0, 73, 63
2, 60909, Note_off_c, 0, 73, 64
2, 60933, Note_on_c, 0, 74, 66
2, 61039, Note_on_c, 0, 76, 66
2, 61040, Note_off_c, 0, 74, 64
2, 61125, Note_off_c, 0, 76, 64
2, 61171, Note_on_c, 0, 78, 78
2, 61291, Note_off_c, 0, 78, 64
2, 61413, Note_on_c, 0, 79, 85
2, 61495, Note_off_c, 0, 79, 64
2, 61659, Note_on_c, 0, 78, 74
2, 62024, Note_off_c, 0, 78, 64
2, 62141, Note_on_c, 0, 76, 70
2, 62270, Note_off_c, 0, 76, 64
2, 62381, Note_on_c, 0, 78, 89
2, 62483, Note_on_c, 0, 76, 68
2, 62491, Note_off_c, 0, 78, 64
2, 62593, Note_off_c, 0, 76, 64
2, 62606, Note_on_c, 0, 74, 60
2, 62722, Note_on_c, 0, 76, 66
2, 62724, Note_off_c, 0, 74, 64
2, 62805, Note_off_c, 0, 76, 64
2, 62854, Note_on_c, 0, 78, 63
2, 62965, Note_off_c, 0, 78, 64
2, 63080, Note_on_c, 0, 71, 64
2, 63177, Note_off_c, 0, 71, 64
2, 63335, Note_on_c, 0, 76, 82
2, 63419, Note_off_c, 0, 76, 64
2, 63578, Note_on_c, 0, 74, 78
2, 63952, Note_off_c, 0, 74, 64
2, 64062, Note_on_c, 0, 73, 59
2, 64220, Note_off_c, 0, 73, 64
2, 64317, Note_on_c, 0, 74, 80
2, 64428, Note_on_c, 0, 76, 64
2, 64446, Note_off_c, 0, 74, 64
2, 64545, Note_off_c, 0, 76, 64
2, 64545, Note_on_c, 0, 74, 63
2, 64650, Note_off_c, 0, 74, 64
2, 64656, Note_on_c, 0, 73, 52
2, 64758, Note_off_c, 0, 73, 64
2, 64769, Note_on_c, 0, 71, 64
2, 64877, Note_on_c, 0, 73, 57
2, 64882, Note_off_c, 0, 71, 64
2, 64977, Note_off_c, 0, 73, 64
2, 64993, Note_on_c, 0, 74, 68
2, 65110, Note_on_c, 0, 76, 66
2, 65114, Note_off_c, 0, 74, 64
2, 65207, Note_off_c, 0, 76, 64
2, 65241, Note_on_c, 0, 78, 82
2, 65360, Note_on_c, 0, 79, 60
2, 65376, Note_off_c, 0, 78, 64
2, 65469, Note_on_c, 0, 78, 53
2, 65482, Note_off_c, 0, 79, 64
2, 65586, Note_off_c, 0, 78, 64
2, 65593, Note_on_c, 0, 76, 60
2, 65721, Note_off_c, 0, 76, 64
2, 65727, Note_on_c, 0, 75, 57
2, 65845, Note_on_c, 0, 76, 59
2, 65856, Note_off_c, 0, 75, 64
2, 65958, Note_off_c, 0, 76, 64
2, 65967, Note_on_c, 0, 78, 60
2, 66075, Note_on_c, 0, 75, 63
2, 66086, Note_off_c, 0, 78, 64
2, 66159, Note_off_c, 0, 75, 64
2, 66199, Note_on_c, 0, 76, 85
2, 66316, Note_on_c, 0, 78, 64
2, 66332, Note_off_c, 0, 76, 64
2, 66442, Note_on_c, 0, 76, 66
2, 66453, Note_off_c, 0, 78, 64
2, 66547, Note_off_c, 0, 76, 64
2, 66547, Note_on_c, 0, 74, 58
2, 66670, Note_off_c, 0, 74, 64
2, 66677, Note_on_c, 0, 73, 58
2, 66784, Note_off_c, 0, 73, 64
2, 66786, Note_on_c, 0, 74, 64
2, 66912, Note_off_c, 0, 74, 64
2, 66914, Note_on_c, 0, 76, 62
2, 67031, Note_on_c, 0, 78, 58
2, 67037, Note_off_c, 0, 76, 64
2, 67124, Note_off_c, 0, 78, 64
2, 67153, Note_on_c, 0, 79, 85
2, 67273, Note_on_c, 0, 81, 63
2, 67275, Note_off_c, 0, 79, 64
2, 67394, Note_off_c, 0, 81, 64
2, 67401, Note_on_c, 0, 79, 61
2, 67494, Note_off_c, 0, 79, 64
2, 67521, Note_on_c, 0, 78, 46
2, 67620, Note_off_c, 0, 78, 64
2, 67651, Note_on_c, 0, 76, 68
2, 67775, Note_on_c, 0, 78, 58
2, 67795, Note_off_c, 0, 76, 64
2, 67893, Note_off_c, 0, 78, 64
2, 67906, Note_on_c, 0, 79, 68
2, 68014, Note_off_c, 0, 79, 64
2, 68016, Note_on_c, 0, 76, 66
2, 68089, Note_off_c, 0, 76, 64
2, 68129, Note_on_c, 0, 78, 78
2, 68245, Note_on_c, 0, 79, 68
2, 68269, Note_off_c, 0, 78, 64
2, 68348, Note_off_c, 0, 79, 64
2, 68366, Note_on_c, 0, 78, 55
2, 68475, Note_off_c, 0, 78, 64
2, 68475, Note_on_c, 0, 76, 60
2, 68588, Note_off_c, 0, 76, 64
2, 68601, Note_on_c, 0, 74, 63
2, 68716, Note_on_c, 0, 76, 60
2, 68729, Note_off_c, 0, 74, 64
2, 68847, Note_on_c, 0, 78, 52
2, 68849, Note_off_c, 0, 76, 64
2, 68950, Note_off_c, 0, 78, 64
2, 68968, Note_on_c, 0, 79, 70
2, 69050, Note_off_c, 0, 79, 64
2, 69085, Note_on_c, 0, 81, 76
2, 69205, Note_on_c, 0, 83, 66
2, 69223, Note_off_c, 0, 81, 64
2, 69333, Note_on_c, 0, 81, 59
2, 69334, Note_off_c, 0, 83, 64
2, 69442, Note_off_c, 0, 81, 64
2, 69449, Note_on_c, 0, 79, 58
2, 69575, Note_off_c, 0, 79, 64
2, 69579, Note_on_c, 0, 78, 61
2, 69690, Note_off_c, 0, 78, 64
2, 69690, Note_on_c, 0, 79, 62
2, 69801, Note_off_c, 0, 79, 64
2, 69814, Note_on_c, 0, 81, 57
2, 69918, Note_on_c, 0, 78, 59
2, 69925, Note_off_c, 0, 81, 64
2, 69995, Note_off_c, 0, 78, 64
2, 70040, Note_on_c, 0, 79, 74
2, 70166, Note_on_c, 0, 81, 59
2, 70181, Note_off_c, 0, 79, 64
2, 70303, Note_on_c, 0, 79, 61
2, 70310, Note_off_c, 0, 81, 64
2, 70412, Note_on_c, 0, 78, 53
2, 70425, Note_off_c, 0, 79, 64
2, 70533, Note_on_c, 0, 76, 66
2, 70538, Note_off_c, 0, 78, 64
2, 70642, Note_on_c, 0, 74, 62
2, 70659, Note_off_c, 0, 76, 64
2, 70753, Note_off_c, 0, 74, 64
2, 70761, Note_on_c, 0, 73, 53
2, 70872, Note_off_c, 0, 73, 64
2, 70878, Note_on_c, 0, 71, 64
2, 70947, Note_off_c, 0, 71, 64
2, 71002, Note_on_c, 0, 78, 80
2, 71251, Note_off_c, 0, 78, 64
2, 71355, Note_on_c, 0, 79, 70
2, 71416, Note_off_c, 0, 79, 64
2, 71474, Note_on_c, 0, 74, 85
2, 71536, Note_off_c, 0, 74, 64
2, 71536, Note_on_c, 0, 73, 58
2, 71574, Note_on_c, 0, 74, 63
2, 71651, Note_off_c, 0, 74, 64
2, 71769, Note_off_c, 0, 73, 64
2, 71852, Note_on_c, 0, 71, 68
2, 71910, Note_off_c, 0, 71, 64
2, 71987, Note_on_c, 0, 71, 68
2, 72444, Note_off_c, 0, 71, 64
2, 72689, Note_on_c, 0, 71, 64
2, 72740, Note_off_c, 0, 71, 64
2, 72935, Note_on_c, 0, 64, 58
2, 73007, Note_off_c, 0, 64, 64
2, 73168, Note_on_c, 0, 67, 66
2, 73238, Note_off_c, 0, 67, 64
2, 73404, Note_on_c, 0, 69, 70
2, 73466, Note_off_c, 0, 69, 64
2, 73650, Note_on_c, 0, 73, 61
2, 73727, Note_off_c, 0, 73, 64
2, 73889, Note_on_c, 0, 62, 60
2, 73969, Note_off_c, 0, 62, 64
2, 74122, Note_on_c, 0, 66, 60
2, 74203, Note_off_c, 0, 66, 64
2, 74363, Note_on_c, 0, 71, 68
2, 74433, Note_off_c, 0, 71, 64
2, 74606, Note_on_c, 0, 74, 76
2, 74684, Note_off_c, 0, 74, 64
2, 74845, Note_on_c, 0, 64, 61
2, 74927, Note_off_c, 0, 64, 64
2, 75087, Note_on_c, 0, 73, 64
2, 75160, Note_off_c, 0, 73, 64
2, 75321, Note_on_c, 0, 66, 64
2, 75407, Note_off_c, 0, 66, 64
2, 75569, Note_on_c, 0, 70, 70
2, 75642, Note_off_c, 0, 70, 64
2, 75802, Note_on_c, 0, 71, 60
2, 75866, Note_off_c, 0, 71, 64
2, 76041, Note_on_c, 0, 66, 62
2, 76129, Note_off_c, 0, 66, 64
2, 76278, Note_on_c, 0, 62, 66
2, 76377, Note_off_c, 0, 62, 64
2, 76528, Note_on_c, 0, 71, 76
2, 76616, Note_off_c, 0, 71, 64
2, 76776, Note_on_c, 0, 70, 68
2, 76860, Note_off_c, 0, 70, 64
2, 77024, Note_on_c, 0, 73, 64
2, 77099, Note_off_c, 0, 73, 64
2, 77272, Note_on_c, 0, 66, 68
2, 77356, Note_off_c, 0, 66, 64
2, 77511, Note_on_c, 0, 71, 78
2, 77581, Note_off_c, 0, 71, 64
2, 77752, Note_on_c, 0, 70, 61
2, 77840, Note_off_c, 0, 70, 64
2, 77997, Note_on_c, 0, 73, 66
2, 78073, Note_off_c, 0, 73, 64
2, 78237, Note_on_c, 0, 66, 70
2, 78316, Note_off_c, 0, 66, 64
2, 78469, Note_on_c, 0, 76, 80
2, 78546, Note_off_c, 0, 76, 64
2, 78712, Note_on_c, 0, 74, 80
2, 78794, Note_off_c, 0, 74, 64
2, 78956, Note_on_c, 0, 83, 85
2, 79023, Note_off_c, 0, 83, 64
2, 79195, Note_on_c, 0, 82, 72
2, 79283, Note_off_c, 0, 82, 64
2, 79447, Note_on_c, 0, 83, 87
2, 79512, Note_off_c, 0, 83, 64
2, 79693, Note_on_c, 0, 85, 89
2, 79759, Note_off_c, 0, 85, 64
2, 79912, Note_on_c, 0, 78, 82
2, 80202, Note_off_c, 0, 78, 64
2, 109662, Note_on_c, 0, 62, 70
2, 109765, Note_off_c, 0, 62, 64
2, 109769, Note_on_c, 0, 61, 66
2, 109869, Note_off_c, 0, 61, 64
2, 109909, Note_on_c, 0, 62, 76
2, 110011, Note_off_c, 0, 62, 64
2, 110143, Note_on_c, 0, 64, 78
2, 110216, Note_off_c, 0, 64, 64
2, 110369, Note_on_c, 0, 66, 63
2, 110460, Note_off_c, 0, 66, 64
2, 110608, Note_on_c, 0, 69, 78
2, 110697, Note_off_c, 0, 69, 64
2, 110858, Note_on_c, 0, 62, 76
2, 110947, Note_off_c, 0, 62, 64
2, 111100, Note_on_c, 0, 69, 78
2, 111179, Note_off_c, 0, 69, 64
2, 111334, Note_on_c, 0, 61, 64
2, 111429, Note_off_c, 0, 61, 64
2, 111589, Note_on_c, 0, 69, 70
2, 111653, Note_off_c, 0, 69, 64
2, 111810, Note_on_c, 0, 64, 64
2, 111887, Note_off_c, 0, 64, 64
2, 112056, Note_on_c, 0, 69, 68
2, 112135, Note_off_c, 0, 69, 64
2, 112291, Note_on_c, 0, 61, 63
2, 112377, Note_off_c, 0, 61, 64
2, 112534, Note_on_c, 0, 69, 76
2, 112603, Note_off_c, 0, 69, 64
2, 112788, Note_on_c, 0, 57, 76
2, 112881, Note_off_c, 0, 57, 64
2, 113017, Note_on_c, 0, 67, 68
2, 113110, Note_off_c, 0, 67, 64
2, 113255, Note_on_c, 0, 62, 78
2, 113346, Note_off_c, 0, 62, 64
2, 113486, Note_on_c, 0, 69, 76
2, 113568, Note_off_c, 0, 69, 64
2, 113729, Note_on_c, 0, 66, 63
2, 113813, Note_off_c, 0, 66, 64
2, 113973, Note_on_c, 0, 69, 72
2, 114048, Note_off_c, 0, 69, 64
2, 114218, Note_on_c, 0, 72, 80
2, 114305, Note_off_c, 0, 72, 64
2, 114455, Note_on_c, 0, 69, 66
2, 114548, Note_off_c, 0, 69, 64
2, 114694, Note_on_c, 0, 66, 60
2, 114801, Note_off_c, 0, 66, 64
2, 114933, Note_on_c, 0, 74, 76
2, 115007, Note_off_c, 0, 74, 64
2, 115166, Note_on_c, 0, 67, 70
2, 115263, Note_off_c, 0, 67, 64
2, 115412, Note_on_c, 0, 71, 80
2, 115487, Note_off_c, 0, 71, 64
2, 115657, Note_on_c, 0, 76, 66
2, 115730, Note_off_c, 0, 76, 64
2, 115883, Note_on_c, 0, 67, 64
2, 115974, Note_off_c, 0, 67, 64
2, 116125, Note_on_c, 0, 66, 66
2, 116231, Note_off_c, 0, 66, 64
2, 116368, Note_on_c, 0, 75, 66
2, 116450, Note_off_c, 0, 75, 64
2, 116609, Note_on_c, 0, 76, 66
2, 116680, Note_off_c, 0, 76, 64
2, 116839, Note_on_c, 0, 71, 68
2, 116935, Note_off_c, 0, 71, 64
2, 117081, Note_on_c, 0, 75, 66
2, 117174, Note_off_c, 0, 75, 64
2, 117329, Note_on_c, 0, 78, 63
2, 117402, Note_off_c, 0, 78, 64
2, 117576, Note_on_c, 0, 83, 66
2, 117645, Note_off_c, 0, 83, 64
2, 117829, Note_on_c, 0, 83, 91
2, 117911, Note_off_c, 0, 83, 64
2, 118074, Note_on_c, 0, 84, 95
2, 118158, Note_off_c, 0, 84, 64
2, 118312, Note_on_c, 0, 83, 85
2, 118668, Note_off_c, 0, 83, 64
2, 118803, Note_on_c, 0, 81, 78
2, 118903, Note_off_c, 0, 81, 64
2, 119048, Note_on_c, 0, 83, 85
2, 119142, Note_off_c, 0, 83, 64
2, 119152, Note_on_c, 0, 81, 80
2, 119257, Note_off_c, 0, 81, 64
2, 119268, Note_on_c, 0, 79, 70
2, 119352, Note_off_c, 0, 79, 64
2, 119376, Note_on_c, 0, 81, 82
2, 119460, Note_off_c, 0, 81, 64
2, 119498, Note_on_c, 0, 83, 89
2, 119586, Note_off_c, 0, 83, 64
2, 119726, Note_on_c, 0, 76, 78
2, 119815, Note_off_c, 0, 76, 64
2, 119974, Note_on_c, 0, 81, 85
2, 120058, Note_off_c, 0, 81, 64
2, 120220, Note_on_c, 0, 79, 82
2, 120598, Note_off_c, 0, 79, 64
2, 120715, Note_on_c, 0, 78, 87
2, 120853, Note_off_c, 0, 78, 64
2, 120948, Note_on_c, 0, 79, 95
2, 121056, Note_on_c, 0, 81, 82
2, 121085, Note_off_c, 0, 79, 64
2, 121156, Note_off_c, 0, 81, 64
2, 121169, Note_on_c, 0, 79, 68
2, 121275, Note_off_c, 0, 79, 64
2, 121278, Note_on_c, 0, 78, 58
2, 121386, Note_off_c, 0, 78, 64
2, 121404, Note_on_c, 0, 76, 61
2, 121514, Note_on_c, 0, 78, 62
2, 121519, Note_off_c, 0, 76, 64
2, 121610, Note_off_c, 0, 78, 64
2, 121638, Note_on_c, 0, 79, 62
2, 121760, Note_off_c, 0, 79, 64
2, 121760, Note_on_c, 0, 81, 76
2, 121846, Note_off_c, 0, 81, 64
2, 121875, Note_on_c, 0, 83, 78
2, 121990, Note_off_c, 0, 83, 64
2, 121995, Note_on_c, 0, 85, 78
2, 122103, Note_off_c, 0, 85, 64
2, 122117, Note_on_c, 0, 86, 85
2, 122223, Note_off_c, 0, 86, 64
2, 122230, Note_on_c, 0, 83, 60
2, 122312, Note_off_c, 0, 83, 64
2, 122354, Note_on_c, 0, 85, 72
2, 122468, Note_on_c, 0, 86, 82
2, 122488, Note_off_c, 0, 85, 64
2, 122564, Note_off_c, 0, 86, 64
2, 122592, Note_on_c, 0, 88, 82
2, 122692, Note_off_c, 0, 88, 64
2, 122701, Note_on_c, 0, 85, 59
2, 122789, Note_off_c, 0, 85, 64
2, 122829, Note_on_c, 0, 86, 80
2, 123378, Note_off_c, 0, 86, 64
2, 123447, Note_on_c, 0, 85, 78
2, 123567, Note_off_c, 0, 85, 64
2, 123570, Note_on_c, 0, 86, 85
2, 123662, Note_off_c, 0, 86, 64
2, 123680, Note_on_c, 0, 88, 68
2, 123763, Note_off_c, 0, 88, 64
2, 123805, Note_on_c, 0, 86, 87
2, 123916, Note_off_c, 0, 86, 64
2, 123925, Note_on_c, 0, 85, 64
2, 124020, Note_off_c, 0, 85, 64
2, 124034, Note_on_c, 0, 83, 60
2, 124140, Note_off_c, 0, 83, 64
2, 124160, Note_on_c, 0, 86, 70
2, 124246, Note_off_c, 0, 86, 64
2, 124290, Note_on_c, 0, 85, 80
2, 124400, Note_on_c, 0, 83, 64
2, 124406, Note_off_c, 0, 85, 64
2, 124490, Note_off_c, 0, 83, 64
2, 124518, Note_on_c, 0, 82, 55
2, 124624, Note_on_c, 0, 85, 63
2, 124634, Note_off_c, 0, 82, 64
2, 124717, Note_off_c, 0, 85, 64
2, 124757, Note_on_c, 0, 83, 82
2, 124848, Note_off_c, 0, 83, 64
2, 125003, Note_on_c, 0, 78, 61
2, 125083, Note_off_c, 0, 78, 64
2, 125253, Note_on_c, 0, 83, 70
2, 125324, Note_off_c, 0, 83, 64
2, 125499, Note_on_c, 0, 71, 68
2, 125581, Note_off_c, 0, 71, 64
2, 125743, Note_on_c, 0, 81, 80
2, 125827, Note_off_c, 0, 81, 64
2, 125982, Note_on_c, 0, 75, 63
2, 126054, Note_off_c, 0, 75, 64
2, 126230, Note_on_c, 0, 81, 72
2, 126307, Note_off_c, 0, 81, 64
2, 126458, Note_on_c, 0, 71, 72
2, 126530, Note_off_c, 0, 71, 64
2, 126703, Note_on_c, 0, 79, 82
2, 126807, Note_on_c, 0, 81, 70
2, 126823, Note_off_c, 0, 79, 64
2, 126911, Note_off_c, 0, 81, 64
2, 126938, Note_on_c, 0, 83, 76
2, 127038, Note_on_c, 0, 79, 68
2, 127048, Note_off_c, 0, 83, 64
2, 127133, Note_off_c, 0, 79, 64
2, 127170, Note_on_c, 0, 81, 66
2, 127287, Note_on_c, 0, 83, 70
2, 127296, Note_off_c, 0, 81, 64
2, 127387, Note_off_c, 0, 83, 64
2, 127414, Note_on_c, 0, 84, 63
2, 127516, Note_on_c, 0, 81, 76
2, 127518, Note_off_c, 0, 84, 64
2, 127575, Note_off_c, 0, 81, 64
2, 127653, Note_on_c, 0, 75, 80
2, 127755, Note_off_c, 0, 75, 64
2, 127892, Note_on_c, 0, 71, 80
2, 127992, Note_off_c, 0, 71, 64
2, 128151, Note_on_c, 0, 76, 82
2, 128669, Note_off_c, 0, 76, 64
2, 128738, Note_on_c, 0, 74, 72
2, 128844, Note_off_c, 0, 74, 64
2, 128850, Note_on_c, 0, 72, 66
2, 128948, Note_off_c, 0, 72, 64
2, 128965, Note_on_c, 0, 71, 62
2, 129050, Note_off_c, 0, 71, 64
2, 129098, Note_on_c, 0, 69, 68
2, 129205, Note_on_c, 0, 71, 68
2, 129207, Note_off_c, 0, 69, 64
2, 129291, Note_off_c, 0, 71, 64
2, 129337, Note_on_c, 0, 72, 66
2, 129764, Note_off_c, 0, 72, 64
2, 129842, Note_on_c, 0, 71, 95
2, 129937, Note_on_c, 0, 69, 80
2, 129942, Note_off_c, 0, 71, 64
2, 130044, Note_off_c, 0, 69, 64
2, 130055, Note_on_c, 0, 67, 63
2, 130161, Note_on_c, 0, 66, 60
2, 130167, Note_off_c, 0, 67, 64
2, 130271, Note_off_c, 0, 66, 64
2, 130287, Note_on_c, 0, 64, 70
2, 130398, Note_on_c, 0, 63, 63
2, 130404, Note_off_c, 0, 64, 64
2, 130486, Note_off_c, 0, 63, 64
2, 130531, Note_on_c, 0, 64, 59
2, 130632, Note_off_c, 0, 64, 64
2, 130787, Note_on_c, 0, 71, 76
2, 130885, Note_off_c, 0, 71, 64
2, 131024, Note_on_c, 0, 70, 82
2, 131119, Note_off_c, 0, 70, 64
2, 131126, Note_on_c, 0, 71, 82
2, 131215, Note_off_c, 0, 71, 64
2, 131248, Note_on_c, 0, 73, 72
2, 131626, Note_off_c, 0, 73, 64
2, 131737, Note_on_c, 0, 66, 66
2, 131825, Note_off_c, 0, 66, 64
2, 131980, Note_on_c, 0, 71, 82
2, 132479, Note_off_c, 0, 71, 64
2, 132715, Note_on_c, 0, 83, 82
2, 132799, Note_off_c, 0, 83, 64
2, 132946, Note_on_c, 0, 82, 68
2, 133047, Note_off_c, 0, 82, 64
2, 133049, Note_on_c, 0, 83, 68
2, 133138, Note_off_c, 0, 83, 64
2, 133176, Note_on_c, 0, 85, 64
2, 133275, Note_off_c, 0, 85, 64
2, 133408, Note_on_c, 0, 78, 76
2, 133486, Note_off_c, 0, 78, 64
2, 133661, Note_on_c, 0, 71, 74
2, 133754, Note_on_c, 0, 70, 68
2, 133765, Note_off_c, 0, 71, 64
2, 133838, Note_off_c, 0, 70, 64
2, 133891, Note_on_c, 0, 71, 66
2, 133966, Note_off_c, 0, 71, 64
2, 134132, Note_on_c, 0, 59, 70
2, 134229, Note_off_c, 0, 59, 64
2, 134370, Note_on_c, 0, 64, 70
2, 134462, Note_off_c, 0, 64, 64
2, 134610, Note_on_c, 0, 67, 70
2, 134705, Note_off_c, 0, 67, 64
2, 134851, Note_on_c, 0, 69, 64
2, 134931, Note_off_c, 0, 69, 64
2, 135092, Note_on_c, 0, 73, 63
2, 135179, Note_off_c, 0, 73, 64
2, 135347, Note_on_c, 0, 62, 66
2, 135433, Note_off_c, 0, 62, 64
2, 135582, Note_on_c, 0, 66, 61
2, 135671, Note_off_c, 0, 66, 64
2, 135825, Note_on_c, 0, 71, 68
2, 135910, Note_off_c, 0, 71, 64
2, 136065, Note_on_c, 0, 74, 70
2, 136138, Note_off_c, 0, 74, 64
2, 136305, Note_on_c, 0, 64, 64
2, 136397, Note_off_c, 0, 64, 64
2, 136540, Note_on_c, 0, 73, 62
2, 136624, Note_off_c, 0, 73, 64
2, 136775, Note_on_c, 0, 66, 63
2, 136863, Note_off_c, 0, 66, 64
2, 137016, Note_on_c, 0, 70, 68
2, 137107, Note_off_c, 0, 70, 64
2, 137260, Note_on_c, 0, 71, 70
2, 137351, Note_off_c, 0, 71, 64
2, 137497, Note_on_c, 0, 66, 66
2, 137587, Note_off_c, 0, 66, 64
2, 137733, Note_on_c, 0, 62, 68
2, 137827, Note_off_c, 0, 62, 64
2, 137981, Note_on_c, 0, 71, 78
2, 138074, Note_off_c, 0, 71, 64
2, 138227, Note_on_c, 0, 70, 68
2, 138320, Note_off_c, 0, 70, 64
2, 138471, Note_on_c, 0, 73, 63
2, 138557, Note_off_c, 0, 73, 64
2, 138701, Note_on_c, 0, 66, 63
2, 138792, Note_off_c, 0, 66, 64
2, 138942, Note_on_c, 0, 71, 80
2, 139022, Note_off_c, 0, 71, 64
2, 139179, Note_on_c, 0, 70, 64
2, 139274, Note_off_c, 0, 70, 64
2, 139418, Note_on_c, 0, 73, 63
2, 139515, Note_off_c, 0, 73, 64
2, 139664, Note_on_c, 0, 66, 64
2, 139748, Note_off_c, 0, 66, 64
2, 139890, Note_on_c, 0, 76, 74
2, 139985, Note_off_c, 0, 76, 64
2, 140138, Note_on_c, 0, 74, 72
2, 140236, Note_off_c, 0, 74, 64
2, 140390, Note_on_c, 0, 83, 68
2, 140470, Note_off_c, 0, 83, 64
2, 140627, Note_on_c, 0, 82, 68
2, 140709, Note_off_c, 0, 82, 64
2, 140861, Note_on_c, 0, 83, 85
2, 140943, Note_off_c, 0, 83, 64
2, 141105, Note_on_c, 0, 85, 95
2, 141178, Note_off_c, 0, 85, 64
2, 141346, Note_on_c, 0, 78, 78
2, 141691, Note_off_c, 0, 78, 64
2, 141720, Note_on_c, 0, 76, 80
2, 141835, Note_off_c, 0, 76, 64
2, 141844, Note_on_c, 0, 74, 66
2, 141939, Note_off_c, 0, 74, 64
2, 141952, Note_on_c, 0, 73, 78
2, 142045, Note_off_c, 0, 73, 64
2, 142074, Note_on_c, 0, 74, 91
2, 142178, Note_off_c, 0, 74, 64
2, 142195, Note_on_c, 0, 73, 87
2, 142280, Note_off_c, 0, 73, 64
2, 142300, Note_on_c, 0, 71, 63
2, 142421, Note_off_c, 0, 71, 64
2, 142421, Note_on_c, 0, 73, 58
2, 142502, Note_off_c, 0, 73, 64
2, 142533, Note_on_c, 0, 74, 72
2, 142650, Note_off_c, 0, 74, 64
2, 142652, Note_on_c, 0, 78, 58
2, 142727, Note_off_c, 0, 78, 64
2, 142760, Note_on_c, 0, 76, 55
2, 142851, Note_off_c, 0, 76, 64
2, 142871, Note_on_c, 0, 74, 78
2, 142936, Note_off_c, 0, 74, 64
2, 143006, Note_on_c, 0, 73, 80
2, 143113, Note_off_c, 0, 73, 64
2, 143254, Note_on_c, 0, 76, 85
2, 143340, Note_off_c, 0, 76, 64
2, 143495, Note_on_c, 0, 81, 87
2, 143580, Note_off_c, 0, 81, 64
2, 143735, Note_on_c, 0, 78, 70
2, 143827, Note_off_c, 0, 78, 64
2, 143987, Note_on_c, 0, 75, 93
2, 144093, Note_on_c, 0, 78, 82
2, 144118, Note_off_c, 0, 75, 64
2, 144217, Note_on_c, 0, 83, 85
2, 144237, Note_off_c, 0, 78, 64
2, 144334, Note_on_c, 0, 81, 76
2, 144345, Note_off_c, 0, 83, 64
2, 144421, Note_off_c, 0, 81, 64
2, 144460, Note_on_c, 0, 79, 66
2, 144542, Note_off_c, 0, 79, 64
2, 144574, Note_on_c, 0, 78, 63
2, 144666, Note_off_c, 0, 78, 64
2, 144700, Note_on_c, 0, 76, 68
2, 144782, Note_off_c, 0, 76, 64
2, 144810, Note_on_c, 0, 75, 78
2, 144884, Note_off_c, 0, 75, 64
2, 144932, Note_on_c, 0, 76, 74
2, 145011, Note_off_c, 0, 76, 64
2, 145162, Note_on_c, 0, 71, 68
2, 145261, Note_off_c, 0, 71, 64
2, 145408, Note_on_c, 0, 79, 82
2, 145494, Note_off_c, 0, 79, 64
2, 145638, Note_on_c, 0, 76, 70
2, 145738, Note_off_c, 0, 76, 64
2, 145890, Note_on_c, 0, 73, 89
2, 145990, Note_on_c, 0, 76, 87
2, 146030, Note_off_c, 0, 73, 64
2, 146112, Note_on_c, 0, 81, 82
2, 146136, Note_off_c, 0, 76, 64
2, 146238, Note_on_c, 0, 79, 76
2, 146243, Note_off_c, 0, 81, 64
2, 146320, Note_off_c, 0, 79, 64
2, 146360, Note_on_c, 0, 78, 58
2, 146440, Note_off_c, 0, 78, 64
2, 146485, Note_on_c, 0, 76, 61
2, 146579, Note_off_c, 0, 76, 64
2, 146619, Note_on_c, 0, 74, 70
2, 146714, Note_off_c, 0, 74, 64
2, 146740, Note_on_c, 0, 73, 56
2, 146798, Note_off_c, 0, 73, 64
2, 146836, Note_on_c, 0, 74, 60
2, 146942, Note_off_c, 0, 74, 64
2, 146964, Note_on_c, 0, 69, 63
2, 147093, Note_off_c, 0, 69, 64
2, 147095, Note_on_c, 0, 71, 57
2, 147196, Note_off_c, 0, 71, 64
2, 147221, Note_on_c, 0, 73, 62
2, 147321, Note_off_c, 0, 73, 64
2, 147358, Note_on_c, 0, 74, 68
2, 147447, Note_off_c, 0, 74, 64
2, 147460, Note_on_c, 0, 76, 72
2, 147540, Note_off_c, 0, 76, 64
2, 147579, Note_on_c, 0, 78, 70
2, 147666, Note_off_c, 0, 78, 64
2, 147699, Note_on_c, 0, 79, 74
2, 147781, Note_off_c, 0, 79, 64
2, 147816, Note_on_c, 0, 81, 74
2, 150757, Note_off_c, 0, 81, 64
2, 150812, Note_on_c, 0, 83, 80
2, 150933, Note_on_c, 0, 81, 70
2, 150957, Note_off_c, 0, 83, 64
2, 151026, Note_off_c, 0, 81, 64
2, 151048, Note_on_c, 0, 79, 72
2, 151135, Note_off_c, 0, 79, 64
2, 151161, Note_on_c, 0, 78, 60
2, 151272, Note_off_c, 0, 78, 64
2, 151274, Note_on_c, 0, 76, 68
2, 151371, Note_off_c, 0, 76, 64
2, 151409, Note_on_c, 0, 74, 57
2, 151495, Note_off_c, 0, 74, 64
2, 151520, Note_on_c, 0, 78, 47
2, 151615, Note_off_c, 0, 78, 64
2, 179737, Note_on_c, 0, 79, 76
2, 179806, Note_off_c, 0, 79, 64
2, 179967, Note_on_c, 0, 78, 66
2, 180049, Note_off_c, 0, 78, 64
2, 180211, Note_on_c, 0, 83, 85
2, 180295, Note_off_c, 0, 83, 64
2, 180443, Note_on_c, 0, 79, 82
2, 180521, Note_off_c, 0, 79, 64
2, 180693, Note_on_c, 0, 76, 82
2, 180768, Note_off_c, 0, 76, 64
2, 180930, Note_on_c, 0, 79, 82
2, 181003, Note_off_c, 0, 79, 64
2, 181167, Note_on_c, 0, 71, 76
2, 181245, Note_off_c, 0, 71, 64
2, 181402, Note_on_c, 0, 79, 82
2, 181475, Note_off_c, 0, 79, 64
2, 181636, Note_on_c, 0, 73, 64
2, 181709, Note_off_c, 0, 73, 64
2, 181882, Note_on_c, 0, 79, 85
2, 181957, Note_off_c, 0, 79, 64
2, 182110, Note_on_c, 0, 69, 72
2, 182201, Note_off_c, 0, 69, 64
2, 182369, Note_on_c, 0, 78, 78
2, 182452, Note_off_c, 0, 78, 64
2, 182599, Note_on_c, 0, 74, 82
2, 182675, Note_off_c, 0, 74, 64
2, 182841, Note_on_c, 0, 78, 68
2, 182918, Note_off_c, 0, 78, 64
2, 183084, Note_on_c, 0, 69, 72
2, 183170, Note_off_c, 0, 69, 64
2, 183327, Note_on_c, 0, 78, 82
2, 183400, Note_off_c, 0, 78, 64
2, 183562, Note_on_c, 0, 71, 72
2, 183648, Note_off_c, 0, 71, 64
2, 183808, Note_on_c, 0, 78, 74
2, 183884, Note_off_c, 0, 78, 64
2, 184045, Note_on_c, 0, 67, 66
2, 184131, Note_off_c, 0, 67, 64
2, 184286, Note_on_c, 0, 76, 85
2, 184354, Note_off_c, 0, 76, 64
2, 184514, Note_on_c, 0, 73, 63
2, 184591, Note_off_c, 0, 73, 64
2, 184751, Note_on_c, 0, 76, 82
2, 184819, Note_off_c, 0, 76, 64
2, 184992, Note_on_c, 0, 67, 70
2, 185081, Note_off_c, 0, 67, 64
2, 185247, Note_on_c, 0, 76, 82
2, 185317, Note_off_c, 0, 76, 64
2, 185483, Note_on_c, 0, 70, 58
2, 185552, Note_off_c, 0, 70, 64
2, 185727, Note_on_c, 0, 76, 80
2, 185807, Note_off_c, 0, 76, 64
2, 185966, Note_on_c, 0, 66, 62
2, 186044, Note_off_c, 0, 66, 64
2, 186220, Note_on_c, 0, 74, 89
2, 186327, Note_on_c, 0, 76, 82
2, 186334, Note_off_c, 0, 74, 64
2, 186440, Note_off_c, 0, 76, 64
2, 186448, Note_on_c, 0, 74, 70
2, 186562, Note_off_c, 0, 74, 64
2, 186584, Note_on_c, 0, 73, 56
2, 186680, Note_off_c, 0, 73, 64
2, 186697, Note_on_c, 0, 71, 61
2, 186810, Note_off_c, 0, 71, 64
2, 186823, Note_on_c, 0, 73, 58
2, 186918, Note_off_c, 0, 73, 64
2, 186931, Note_on_c, 0, 74, 70
2, 186998, Note_off_c, 0, 74, 64
2, 187037, Note_on_c, 0, 71, 57
2, 187116, Note_off_c, 0, 71, 64
2, 187159, Note_on_c, 0, 79, 85
2, 187243, Note_off_c, 0, 79, 64
2, 187416, Note_on_c, 0, 78, 72
2, 187788, Note_off_c, 0, 78, 64
2, 187903, Note_on_c, 0, 76, 78
2, 188034, Note_off_c, 0, 76, 64
2, 188149, Note_on_c, 0, 78, 87
2, 188242, Note_off_c, 0, 78, 64
2, 188255, Note_on_c, 0, 76, 70
2, 188363, Note_off_c, 0, 76, 64
2, 188377, Note_on_c, 0, 74, 57
2, 188476, Note_off_c, 0, 74, 64
2, 188483, Note_on_c, 0, 76, 64
2, 188571, Note_off_c, 0, 76, 64
2, 188624, Note_on_c, 0, 78, 70
2, 188717, Note_off_c, 0, 78, 64
2, 188848, Note_on_c, 0, 71, 66
2, 188935, Note_off_c, 0, 71, 64
2, 189096, Note_on_c, 0, 76, 85
2, 189173, Note_off_c, 0, 76, 64
2, 189337, Note_on_c, 0, 74, 82
2, 189689, Note_off_c, 0, 74, 64
2, 189831, Note_on_c, 0, 73, 62
2, 189970, Note_off_c, 0, 73, 64
2, 190074, Note_on_c, 0, 74, 85
2, 190181, Note_on_c, 0, 76, 66
2, 190200, Note_off_c, 0, 74, 64
2, 190291, Note_off_c, 0, 76, 64
2, 190298, Note_on_c, 0, 74, 63
2, 190415, Note_off_c, 0, 74, 64
2, 190418, Note_on_c, 0, 73, 50
2, 190522, Note_off_c, 0, 73, 64
2, 190537, Note_on_c, 0, 71, 63
2, 190646, Note_on_c, 0, 73, 55
2, 190652, Note_off_c, 0, 71, 64
2, 190752, Note_off_c, 0, 73, 64
2, 190772, Note_on_c, 0, 74, 63
2, 190887, Note_on_c, 0, 76, 70
2, 190900, Note_off_c, 0, 74, 64
2, 190975, Note_off_c, 0, 76, 64
2, 191011, Note_on_c, 0, 78, 98
2, 191126, Note_on_c, 0, 79, 68
2, 191146, Note_off_c, 0, 78, 64
2, 191254, Note_on_c, 0, 78, 52
2, 191256, Note_off_c, 0, 79, 64
2, 191372, Note_on_c, 0, 76, 62
2, 191380, Note_off_c, 0, 78, 64
2, 191476, Note_off_c, 0, 76, 64
2, 191500, Note_on_c, 0, 75, 63
2, 191606, Note_off_c, 0, 75, 64
2, 191608, Note_on_c, 0, 76, 66
2, 191728, Note_off_c, 0, 76, 64
2, 191733, Note_on_c, 0, 78, 59
2, 191841, Note_on_c, 0, 75, 62
2, 191861, Note_off_c, 0, 78, 64
2, 191918, Note_off_c, 0, 75, 64
2, 191971, Note_on_c, 0, 76, 80
2, 192087, Note_on_c, 0, 78, 66
2, 192106, Note_off_c, 0, 76, 64
2, 192210, Note_on_c, 0, 76, 64
2, 192219, Note_off_c, 0, 78, 64
2, 192308, Note_off_c, 0, 76, 64
2, 192326, Note_on_c, 0, 74, 60
2, 192430, Note_off_c, 0, 74, 64
2, 192443, Note_on_c, 0, 73, 57
2, 192552, Note_off_c, 0, 73, 64
2, 192554, Note_on_c, 0, 74, 68
2, 192662, Note_off_c, 0, 74, 64
2, 192676, Note_on_c, 0, 76, 64
2, 192768, Note_off_c, 0, 76, 64
2, 192790, Note_on_c, 0, 78, 66
2, 192888, Note_off_c, 0, 78, 64
2, 192929, Note_on_c, 0, 79, 89
2, 193040, Note_on_c, 0, 81, 80
2, 193060, Note_off_c, 0, 79, 64
2, 193174, Note_on_c, 0, 79, 68
2, 193185, Note_off_c, 0, 81, 64
2, 193286, Note_on_c, 0, 78, 64
2, 193289, Note_off_c, 0, 79, 64
2, 193393, Note_off_c, 0, 78, 64
2, 193412, Note_on_c, 0, 76, 66
2, 193523, Note_on_c, 0, 78, 70
2, 193539, Note_off_c, 0, 76, 64
2, 193630, Note_off_c, 0, 78, 64
2, 193643, Note_on_c, 0, 79, 68
2, 193754, Note_on_c, 0, 76, 64
2, 193756, Note_off_c, 0, 79, 64
2, 193837, Note_off_c, 0, 76, 64
2, 193884, Note_on_c, 0, 78, 82
2, 193999, Note_on_c, 0, 79, 72
2, 194023, Note_off_c, 0, 78, 64
2, 194105, Note_off_c, 0, 79, 64
2, 194125, Note_on_c, 0, 78, 68
2, 194238, Note_on_c, 0, 76, 70
2, 194247, Note_off_c, 0, 78, 64
2, 194344, Note_off_c, 0, 76, 64
2, 194367, Note_on_c, 0, 74, 68
2, 194482, Note_on_c, 0, 76, 68
2, 194493, Note_off_c, 0, 74, 64
2, 194604, Note_off_c, 0, 76, 64
2, 194614, Note_on_c, 0, 78, 57
2, 194718, Note_off_c, 0, 78, 64
2, 194723, Note_on_c, 0, 79, 76
2, 194823, Note_off_c, 0, 79, 64
2, 194849, Note_on_c, 0, 81, 87
2, 194966, Note_on_c, 0, 83, 74
2, 194975, Note_off_c, 0, 81, 64
2, 195066, Note_off_c, 0, 83, 64
2, 195090, Note_on_c, 0, 81, 68
2, 195195, Note_off_c, 0, 81, 64
2, 195195, Note_on_c, 0, 79, 63
2, 195318, Note_off_c, 0, 79, 64
2, 195330, Note_on_c, 0, 78, 70
2, 195420, Note_on_c, 0, 79, 66
2, 195427, Note_off_c, 0, 78, 64
2, 195535, Note_off_c, 0, 79, 64
2, 195558, Note_on_c, 0, 81, 64
2, 195659, Note_off_c, 0, 81, 64
2, 195682, Note_on_c, 0, 78, 60
2, 195775, Note_off_c, 0, 78, 64
2, 195814, Note_on_c, 0, 79, 85
2, 195932, Note_on_c, 0, 81, 70
2, 195951, Note_off_c, 0, 79, 64
2, 196042, Note_off_c, 0, 81, 64
2, 196053, Note_on_c, 0, 79, 72
2, 196164, Note_on_c, 0, 78, 63
2, 196177, Note_off_c, 0, 79, 64
2, 196286, Note_on_c, 0, 76, 78
2, 196299, Note_off_c, 0, 78, 64
2, 196376, Note_off_c, 0, 76, 64
2, 196392, Note_on_c, 0, 74, 66
2, 196518, Note_on_c, 0, 73, 57
2, 196526, Note_off_c, 0, 74, 64
2, 196607, Note_off_c, 0, 73, 64
2, 196629, Note_on_c, 0, 71, 59
2, 196729, Note_off_c, 0, 71, 64
2, 196771, Note_on_c, 0, 78, 87
2, 197027, Note_off_c, 0, 78, 64
2, 197118, Note_on_c, 0, 79, 72
2, 197173, Note_off_c, 0, 79, 64
2, 197240, Note_on_c, 0, 74, 95
2, 197298, Note_on_c, 0, 73, 52
2, 197313, Note_off_c, 0, 74, 64
2, 197331, Note_on_c, 0, 74, 51
2, 197355, Note_off_c, 0, 73, 64
2, 197392, Note_on_c, 0, 73, 57
2, 197417, Note_off_c, 0, 74, 64
2, 197525, Note_off_c, 0, 73, 64
2, 197614, Note_on_c, 0, 71, 68
2, 197676, Note_off_c, 0, 71, 64
2, 197753, Note_on_c, 0, 71, 66
2, 200215, Note_off_c, 0, 71, 64
2, 200376, Note_on_c, 0, 71, 82
2, 200461, Note_off_c, 0, 71, 64
2, 200625, Note_on_c, 0, 79, 87
2, 200718, Note_off_c, 0, 79, 64
2, 200872, Note_on_c, 0, 78, 64
2, 201240, Note_off_c, 0, 78, 64
2, 201348, Note_on_c, 0, 76, 66
2, 201477, Note_off_c, 0, 76, 64
2, 201592, Note_on_c, 0, 78, 91
2, 201689, Note_on_c, 0, 79, 82
2, 201696, Note_off_c, 0, 78, 64
2, 201793, Note_off_c, 0, 79, 64
2, 201823, Note_on_c, 0, 81, 89
2, 202121, Note_off_c, 0, 81, 64
2, 202194, Note_on_c, 0, 79, 76
2, 202293, Note_off_c, 0, 79, 64
2, 202304, Note_on_c, 0, 78, 80
2, 202408, Note_off_c, 0, 78, 64
2, 202415, Note_on_c, 0, 76, 58
2, 202497, Note_off_c, 0, 76, 64
2, 202532, Note_on_c, 0, 75, 78
2, 202636, Note_on_c, 0, 73, 55
2, 202645, Note_off_c, 0, 75, 64
2, 202774, Note_off_c, 0, 73, 64
2, 202776, Note_on_c, 0, 75, 61
2, 202878, Note_off_c, 0, 75, 64
2, 202898, Note_on_c, 0, 76, 78
2, 202982, Note_off_c, 0, 76, 64
2, 203024, Note_on_c, 0, 78, 68
2, 203132, Note_off_c, 0, 78, 64
2, 203139, Note_on_c, 0, 79, 78
2, 203225, Note_off_c, 0, 79, 64
2, 203256, Note_on_c, 0, 81, 85
2, 203341, Note_off_c, 0, 81, 64
2, 203372, Note_on_c, 0, 78, 64
2, 203450, Note_off_c, 0, 78, 64
2, 203491, Note_on_c, 0, 79, 87
2, 203591, Note_off_c, 0, 79, 64
2, 203613, Note_on_c, 0, 81, 70
2, 203713, Note_off_c, 0, 81, 64
2, 203728, Note_on_c, 0, 79, 74
2, 203812, Note_off_c, 0, 79, 64
2, 203838, Note_on_c, 0, 78, 68
2, 203925, Note_off_c, 0, 78, 64
2, 203971, Note_on_c, 0, 76, 82
2, 204060, Note_off_c, 0, 76, 64
2, 204082, Note_on_c, 0, 78, 78
2, 204169, Note_off_c, 0, 78, 64
2, 204200, Note_on_c, 0, 79, 82
2, 204290, Note_off_c, 0, 79, 64
2, 204315, Note_on_c, 0, 76, 76
2, 204396, Note_off_c, 0, 76, 64
2, 204458, Note_on_c, 0, 73, 82
2, 204555, Note_off_c, 0, 73, 64
2, 204711, Note_on_c, 0, 81, 95
2, 205069, Note_off_c, 0, 81, 64
2, 205193, Note_on_c, 0, 73, 72
2, 205288, Note_off_c, 0, 73, 64
2, 205437, Note_on_c, 0, 74, 87
2, 205724, Note_off_c, 0, 74, 64
2, 205775, Note_on_c, 0, 76, 82
2, 205833, Note_off_c, 0, 76, 64
2, 205900, Note_on_c, 0, 78, 85
2, 206001, Note_off_c, 0, 78, 64
2, 206010, Note_on_c, 0, 80, 82
2, 206085, Note_off_c, 0, 80, 64
2, 206123, Note_on_c, 0, 82, 68
2, 206214, Note_off_c, 0, 82, 64
2, 206242, Note_on_c, 0, 83, 76
2, 206329, Note_off_c, 0, 83, 64
2, 206375, Note_on_c, 0, 85, 91
2, 206460, Note_off_c, 0, 85, 64
2, 206608, Note_on_c, 0, 76, 87
2, 206931, Note_off_c, 0, 76, 64
2, 206986, Note_on_c, 0, 74, 74
2, 207061, Note_off_c, 0, 74, 64
2, 207099, Note_on_c, 0, 73, 66
2, 207179, Note_off_c, 0, 73, 64
2, 207210, Note_on_c, 0, 76, 68
2, 207285, Note_off_c, 0, 76, 64
2, 207341, Note_on_c, 0, 74, 82
2, 207420, Note_off_c, 0, 74, 64
2, 207577, Note_on_c, 0, 73, 85
2, 207874, Note_off_c, 0, 73, 64
2, 207938, Note_on_c, 0, 71, 82
2, 208018, Note_off_c, 0, 71, 64
2, 208053, Note_on_c, 0, 70, 80
2, 208124, Note_off_c, 0, 70, 64
2, 208153, Note_on_c, 0, 73, 64
2, 208230, Note_off_c, 0, 73, 64
2, 208284, Note_on_c, 0, 66, 80
2, 208407, Note_off_c, 0, 66, 64
2, 208551, Note_on_c, 0, 78, 89
2, 208677, Note_off_c, 0, 78, 64
2, 208782, Note_on_c, 0, 76, 93
2, 208885, Note_on_c, 0, 74, 80
2, 208906, Note_off_c, 0, 76, 64
2, 208954, Note_off_c, 0, 74, 64
2, 209013, Note_on_c, 0, 73, 85
2, 209118, Note_on_c, 0, 71, 61
2, 209144, Note_off_c, 0, 73, 64
2, 209235, Note_off_c, 0, 71, 64
2, 222363, Note_on_c, 0, 78, 80
2, 222404, Note_off_c, 0, 78, 64
2, 222477, Note_on_c, 0, 79, 82
2, 222570, Note_off_c, 0, 79, 64
2, 222707, Note_on_c, 0, 78, 72
2, 223064, Note_off_c, 0, 78, 64
2, 223184, Note_on_c, 0, 76, 78
2, 223327, Note_off_c, 0, 76, 64
2, 223424, Note_on_c, 0, 78, 89
2, 223522, Note_on_c, 0, 76, 80
2, 223531, Note_off_c, 0, 78, 64
2, 223621, Note_off_c, 0, 76, 64
2, 223633, Note_on_c, 0, 74, 64
2, 223754, Note_on_c, 0, 76, 76
2, 223774, Note_off_c, 0, 74, 64
2, 223852, Note_off_c, 0, 76, 64
2, 223883, Note_on_c, 0, 78, 70
2, 223971, Note_off_c, 0, 78, 64
2, 224119, Note_on_c, 0, 71, 66
2, 224215, Note_off_c, 0, 71, 64
2, 224372, Note_on_c, 0, 76, 85
2, 224452, Note_off_c, 0, 76, 64
2, 224618, Note_on_c, 0, 74, 82
2, 224985, Note_off_c, 0, 74, 64
2, 225100, Note_on_c, 0, 73, 66
2, 225260, Note_off_c, 0, 73, 64
2, 225339, Note_on_c, 0, 74, 78
2, 225448, Note_on_c, 0, 76, 70
2, 225472, Note_off_c, 0, 74, 64
2, 225547, Note_off_c, 0, 76, 64
2, 225574, Note_on_c, 0, 74, 64
2, 225674, Note_off_c, 0, 74, 64
2, 225693, Note_on_c, 0, 73, 51
2, 225794, Note_off_c, 0, 73, 64
2, 225819, Note_on_c, 0, 71, 63
2, 225932, Note_off_c, 0, 71, 64
2, 225938, Note_on_c, 0, 73, 56
2, 226048, Note_off_c, 0, 73, 64
2, 226061, Note_on_c, 0, 74, 70
2, 226169, Note_off_c, 0, 74, 64
2, 226176, Note_on_c, 0, 76, 72
2, 226273, Note_off_c, 0, 76, 64
2, 226293, Note_on_c, 0, 78, 70
2, 226411, Note_on_c, 0, 80, 68
2, 226420, Note_off_c, 0, 78, 64
2, 226503, Note_off_c, 0, 80, 64
2, 226534, Note_on_c, 0, 81, 82
2, 226639, Note_off_c, 0, 81, 64
2, 226645, Note_on_c, 0, 78, 57
2, 226738, Note_off_c, 0, 78, 64
2, 226780, Note_on_c, 0, 80, 78
2, 226886, Note_on_c, 0, 81, 76
2, 226891, Note_off_c, 0, 80, 64
2, 226979, Note_off_c, 0, 81, 64
2, 227008, Note_on_c, 0, 83, 82
2, 227121, Note_off_c, 0, 83, 64
2, 227123, Note_on_c, 0, 80, 64
2, 227204, Note_off_c, 0, 80, 64
2, 227247, Note_on_c, 0, 81, 82
2, 227798, Note_off_c, 0, 81, 64
2, 227850, Note_on_c, 0, 80, 66
2, 227949, Note_off_c, 0, 80, 64
2, 227964, Note_on_c, 0, 81, 70
2, 228060, Note_off_c, 0, 81, 64
2, 228080, Note_on_c, 0, 83, 76
2, 228164, Note_off_c, 0, 83, 64
2, 228213, Note_on_c, 0, 81, 87
2, 228328, Note_off_c, 0, 81, 64
2, 228332, Note_on_c, 0, 80, 64
2, 228441, Note_off_c, 0, 80, 64
2, 228452, Note_on_c, 0, 78, 52
2, 228565, Note_off_c, 0, 78, 64
2, 228567, Note_on_c, 0, 81, 66
2, 228648, Note_off_c, 0, 81, 64
2, 228695, Note_on_c, 0, 80, 80
2, 228812, Note_on_c, 0, 78, 57
2, 228819, Note_off_c, 0, 80, 64
2, 228903, Note_off_c, 0, 78, 64
2, 228927, Note_on_c, 0, 77, 52
2, 229008, Note_off_c, 0, 77, 64
2, 229038, Note_on_c, 0, 80, 58
2, 229127, Note_off_c, 0, 80, 64
2, 229169, Note_on_c, 0, 78, 80
2, 229268, Note_off_c, 0, 78, 64
2, 229415, Note_on_c, 0, 73, 51
2, 229481, Note_off_c, 0, 73, 64
2, 229656, Note_on_c, 0, 78, 63
2, 229735, Note_off_c, 0, 78, 64
2, 229904, Note_on_c, 0, 66, 64
2, 229994, Note_off_c, 0, 66, 64
2, 230145, Note_on_c, 0, 76, 82
2, 230227, Note_off_c, 0, 76, 64
2, 230368, Note_on_c, 0, 70, 57
2, 230433, Note_off_c, 0, 70, 64
2, 230614, Note_on_c, 0, 76, 76
2, 230702, Note_off_c, 0, 76, 64
2, 230849, Note_on_c, 0, 66, 60
2, 230924, Note_off_c, 0, 66, 64
2, 231114, Note_on_c, 0, 74, 68
2, 231198, Note_off_c, 0, 74, 64
2, 231347, Note_on_c, 0, 83, 82
2, 231426, Note_off_c, 0, 83, 64
2, 231588, Note_on_c, 0, 82, 64
2, 231675, Note_off_c, 0, 82, 64
2, 231697, Note_on_c, 0, 83, 72
2, 231779, Note_off_c, 0, 83, 64
2, 231821, Note_on_c, 0, 85, 76
2, 232159, Note_off_c, 0, 85, 64
2, 232303, Note_on_c, 0, 78, 70
2, 232387, Note_off_c, 0, 78, 64
2, 232544, Note_on_c, 0, 83, 85
2, 233069, Note_off_c, 0, 83, 64
2, 233135, Note_on_c, 0, 81, 80
2, 233228, Note_off_c, 0, 81, 64
2, 233250, Note_on_c, 0, 79, 66
2, 233344, Note_off_c, 0, 79, 64
2, 233361, Note_on_c, 0, 78, 60
2, 233443, Note_off_c, 0, 78, 64
2, 233472, Note_on_c, 0, 76, 63
2, 233589, Note_on_c, 0, 78, 63
2, 233613, Note_off_c, 0, 76, 64
2, 233671, Note_off_c, 0, 78, 64
2, 233711, Note_on_c, 0, 79, 78
2, 234109, Note_off_c, 0, 79, 64
2, 234211, Note_on_c, 0, 78, 82
2, 234317, Note_on_c, 0, 76, 72
2, 234318, Note_off_c, 0, 78, 64
2, 234422, Note_off_c, 0, 76, 64
2, 234431, Note_on_c, 0, 74, 59
2, 234546, Note_off_c, 0, 74, 64
2, 234548, Note_on_c, 0, 73, 42
2, 234658, Note_off_c, 0, 73, 64
2, 234669, Note_on_c, 0, 71, 66
2, 234782, Note_on_c, 0, 70, 53
2, 234787, Note_off_c, 0, 71, 64
2, 234886, Note_off_c, 0, 70, 64
2, 234915, Note_on_c, 0, 71, 78
2, 235059, Note_off_c, 0, 71, 64
2, 235181, Note_on_c, 0, 73, 57
2, 235276, Note_off_c, 0, 73, 64
2, 235278, Note_on_c, 0, 69, 64
2, 235360, Note_off_c, 0, 69, 64
2, 235422, Note_on_c, 0, 74, 78
2, 235515, Note_off_c, 0, 74, 64
2, 235666, Note_on_c, 0, 65, 80
2, 236099, Note_off_c, 0, 65, 64
2, 236157, Note_on_c, 0, 66, 64
2, 236272, Note_on_c, 0, 68, 68
2, 236276, Note_off_c, 0, 66, 64
2, 236363, Note_off_c, 0, 68, 64
2, 236383, Note_on_c, 0, 69, 72
2, 236485, Note_on_c, 0, 71, 70
2, 236504, Note_off_c, 0, 69, 64
2, 236598, Note_off_c, 0, 71, 64
2, 236614, Note_on_c, 0, 73, 68
2, 236728, Note_off_c, 0, 73, 64
2, 236861, Note_on_c, 0, 62, 82
2, 236978, Note_off_c, 0, 62, 64
2, 237100, Note_on_c, 0, 71, 68
2, 237204, Note_off_c, 0, 71, 64
2, 237348, Note_on_c, 0, 74, 78
2, 237419, Note_off_c, 0, 74, 64
2, 237594, Note_on_c, 0, 83, 87
2, 237888, Note_off_c, 0, 83, 64
2, 238052, Note_on_c, 0, 73, 62
2, 238149, Note_off_c, 0, 73, 64
2, 238297, Note_on_c, 0, 81, 85
2, 238362, Note_off_c, 0, 81, 64
2, 238531, Note_on_c, 0, 78, 68
2, 238869, Note_off_c, 0, 78, 64
2, 239022, Note_on_c, 0, 76, 80
2, 239116, Note_off_c, 0, 76, 64
2, 239269, Note_on_c, 0, 85, 87
2, 239373, Note_off_c, 0, 85, 64
2, 239499, Note_on_c, 0, 76, 70
2, 239852, Note_off_c, 0, 76, 64
2, 239984, Note_on_c, 0, 74, 68
2, 240068, Note_off_c, 0, 74, 64
2, 240225, Note_on_c, 0, 79, 82
2, 240771, Note_off_c, 0, 79, 64
2, 240947, Note_on_c, 0, 78, 66
2, 241045, Note_off_c, 0, 78, 64
2, 241045, Note_on_c, 0, 76, 66
2, 241127, Note_off_c, 0, 76, 64
2, 241178, Note_on_c, 0, 78, 63
2, 241277, Note_off_c, 0, 78, 64
2, 241423, Note_on_c, 0, 80, 70
2, 241507, Note_off_c, 0, 80, 64
2, 241660, Note_on_c, 0, 81, 87
2, 241757, Note_off_c, 0, 81, 64
2, 241900, Note_on_c, 0, 76, 66
2, 241976, Note_off_c, 0, 76, 64
2, 242142, Note_on_c, 0, 73, 57
2, 242249, Note_off_c, 0, 73, 64
2, 242388, Note_on_c, 0, 81, 82
2, 242773, Note_off_c, 0, 81, 64
2, 242877, Note_on_c, 0, 80, 74
2, 242959, Note_off_c, 0, 80, 64
2, 242971, Note_on_c, 0, 78, 64
2, 243059, Note_off_c, 0, 78, 64
2, 243105, Note_on_c, 0, 80, 85
2, 243202, Note_off_c, 0, 80, 64
2, 243347, Note_on_c, 0, 82, 82
2, 243435, Note_off_c, 0, 82, 64
2, 243581, Note_on_c, 0, 83, 89
2, 243708, Note_off_c, 0, 83, 64
2, 243816, Note_on_c, 0, 71, 64
2, 243924, Note_off_c, 0, 71, 64
2, 243929, Note_on_c, 0, 73, 63
2, 244029, Note_off_c, 0, 73, 64
2, 244053, Note_on_c, 0, 74, 66
2, 244159, Note_on_c, 0, 76, 66
2, 244160, Note_off_c, 0, 74, 64
2, 244245, Note_off_c, 0, 76, 64
2, 244291, Note_on_c, 0, 78, 78
2, 244411, Note_off_c, 0, 78, 64
2, 244533, Note_on_c, 0, 79, 85
2, 244615, Note_off_c, 0, 79, 64
2, 244779, Note_on_c, 0, 78, 74
2, 245144, Note_off_c, 0, 78, 64
2, 245261, Note_on_c, 0, 76, 70
2, 245390, Note_off_c, 0, 76, 64
2, 245501, Note_on_c, 0, 78, 89
2, 245603, Note_on_c, 0, 76, 68
2, 245611, Note_off_c, 0, 78, 64
2, 245713, Note_off_c, 0, 76, 64
2, 245726, Note_on_c, 0, 74, 60
2, 245842, Note_on_c, 0, 76, 66
2, 245844, Note_off_c, 0, 74, 64
2, 245925, Note_off_c, 0, 76, 64
2, 245974, Note_on_c, 0, 78, 63
2, 246085, Note_off_c, 0, 78, 64
2, 246200, Note_on_c, 0, 71, 64
2, 246297, Note_off_c, 0, 71, 64
2, 246455, Note_on_c, 0, 76, 82
2, 246539, Note_off_c, 0, 76, 64
2, 246698, Note_on_c, 0, 74, 78
2, 247072, Note_off_c, 0, 74, 64
2, 247182, Note_on_c, 0, 73, 59
2, 247340, Note_off_c, 0, 73, 64
2, 247437, Note_on_c, 0, 74, 80
2, 247548, Note_on_c, 0, 76, 64
2, 247566, Note_off_c, 0, 74, 64
2, 247665, Note_off_c, 0, 76, 64
2, 247665, Note_on_c, 0, 74, 63
2, 247770, Note_off_c, 0, 74, 64
2, 247776, Note_on_c, 0, 73, 52
2, 247878, Note_off_c, 0, 73, 64
2, 247889, Note_on_c, 0, 71, 64
2, 247997, Note_on_c, 0, 73, 57
2, 248002, Note_off_c, 0, 71, 64
2, 248097, Note_off_c, 0, 73, 64
2, 248113, Note_on_c, 0, 74, 68
2, 248230, Note_on_c, 0, 76, 66
2, 248234, Note_off_c, 0, 74, 64
2, 248327, Note_off_c, 0, 76, 64
2, 248361, Note_on_c, 0, 78, 82
2, 248480, Note_on_c, 0, 79, 60
2, 248496, Note_off_c, 0, 78, 64
2, 248589, Note_on_c, 0, 78, 53
2, 248602, Note_off_c, 0, 79, 64
2, 248706, Note_off_c, 0, 78, 64
2, 248713, Note_on_c, 0, 76, 60
2, 248841, Note_off_c, 0, 76, 64
2, 248847, Note_on_c, 0, 75, 57
2, 248965, Note_on_c, 0, 76, 59
2, 248976, Note_off_c, 0, 75, 64
2, 249078, Note_off_c, 0, 76, 64
2, 249087, Note_on_c, 0, 78, 60
2, 249195, Note_on_c, 0, 75, 63
2, 249206, Note_off_c, 0, 78, 64
2, 249279, Note_off_c, 0, 75, 64
2, 249319, Note_on_c, 0, 76, 85
2, 249436, Note_on_c, 0, 78, 64
2, 249452, Note_off_c, 0, 76, 64
2, 249562, Note_on_c, 0, 76, 66
2, 249573, Note_off_c, 0, 78, 64
2, 249667, Note_off_c, 0, 76, 64
2, 249667, Note_on_c, 0, 74, 58
2, 249790, Note_off_c, 0, 74, 64
2, 249797, Note_on_c, 0, 73, 58
2, 249904, Note_off_c, 0, 73, 64
2, 249906, Note_on_c, 0, 74, 64
2, 250032, Note_off_c, 0, 74, 64
2, 250034, Note_on_c, 0, 76, 62
2, 250151, Note_on_c, 0, 78, 58
2, 250157, Note_off_c, 0, 76, 64
2, 250244, Note_off_c, 0, 78, 64
2, 250273, Note_on_c, 0, 79, 85
2, 250393, Note_on_c, 0, 81, 63
2, 250395, Note_off_c, 0, 79, 64
2, 250514, Note_off_c, 0, 81, 64
2, 250521, Note_on_c, 0, 79, 61
2, 250614, Note_off_c, 0, 79, 64
2, 250641, Note_on_c, 0, 78, 46
2, 250740, Note_off_c, 0, 78, 64
2, 250771, Note_on_c, 0, 76, 68
2, 250895, Note_on_c, 0, 78, 58
2, 250915, Note_off_c, 0, 76, 64
2, 251013, Note_off_c, 0, 78, 64
2, 251026, Note_on_c, 0, 79, 68
2, 251134, Note_off_c, 0, 79, 64
2, 251136, Note_on_c, 0, 76, 66
2, 251209, Note_off_c, 0, 76, 64
2, 251249, Note_on_c, 0, 78, 78
2, 251365, Note_on_c, 0, 79, 68
2, 251389, Note_off_c, 0, 78, 64
2, 251468, Note_off_c, 0, 79, 64
2, 251486, Note_on_c, 0, 78, 55
2, 251595, Note_off_c, 0, 78, 64
2, 251595, Note_on_c, 0, 76, 60
2, 251708, Note_off_c, 0, 76, 64
2, 251721, Note_on_c, 0, 74, 63
2, 251836, Note_on_c, 0, 76, 60
2, 251849, Note_off_c, 0, 74, 64
2, 251967, Note_on_c, 0, 78, 52
2, 251969, Note_off_c, 0, 76, 64
2, 252070, Note_off_c, 0, 78, 64
2, 252088, Note_on_c, 0, 79, 70
2, 252170, Note_off_c, 0, 79, 64
2, 252205, Note_on_c, 0, 81, 76
2, 252325, Note_on_c, 0, 83, 66
2, 252343, Note_off_c, 0, 81, 64
2, 252453, Note_on_c, 0, 81, 59
2, 252454, Note_off_c, 0, 83, 64
2, 252562, Note_off_c, 0, 81, 64
2, 252569, Note_on_c, 0, 79, 58
2, 252695, Note_off_c, 0, 79, 64
2, 252699, Note_on_c, 0, 78, 61
2, 252810, Note_off_c, 0, 78, 64
2, 252810, Note_on_c, 0, 79, 62
2, 252921, Note_off_c, 0, 79, 64
2, 252934, Note_on_c, 0, 81, 57
2, 253038, Note_on_c, 0, 78, 59
2, 253045, Note_off_c, 0, 81, 64
2, 253115, Note_off_c, 0, 78, 64
2, 253160, Note_on_c, 0, 79, 74
2, 253286, Note_on_c, 0, 81, 59
2, 253301, Note_off_c, 0, 79, 64
2, 253423, Note_on_c, 0, 79, 61
2, 253430, Note_off_c, 0, 81, 64
2, 253532, Note_on_c, 0, 78, 53
2, 253545, Note_off_c, 0, 79, 64
2, 253653, Note_on_c, 0, 76, 66
2, 253658, Note_off_c, 0, 78, 64
2, 253762, Note_on_c, 0, 74, 62
2, 253779, Note_off_c, 0, 76, 64
2, 253873, Note_off_c, 0, 74, 64
2, 253881, Note_on_c, 0, 73, 53
2, 253992, Note_off_c, 0, 73, 64
2, 253998, Note_on_c, 0, 71, 64
2, 254067, Note_off_c, 0, 71, 64
2, 254122, Note_on_c, 0, 78, 80
2, 254371, Note_off_c, 0, 78, 64
2, 254475, Note_on_c, 0, 79, 70
2, 254536, Note_off_c, 0, 79, 64
2, 254594, Note_on_c, 0, 74, 85
2, 254656, Note_off_c, 0, 74, 64
2, 254656, Note_on_c, 0, 73, 58
2, 254694, Note_on_c, 0, 74, 63
2, 254771, Note_off_c, 0, 74, 64
2, 254889, Note_off_c, 0, 73, 64
2, 254972, Note_on_c, 0, 71, 68
2, 255030, Note_off_c, 0, 71, 64
2, 255107, Note_on_c, 0, 71, 68
2, 255564, Note_off_c, 0, 71, 64
2, 255809, Note_on_c, 0, 71, 64
2, 255860, Note_off_c, 0, 71, 64
2, 256055, Note_on_c, 0, 64, 58
2, 256127, Note_off_c, 0, 64, 64
2, 256288, Note_on_c, 0, 67, 66
2, 256358, Note_off_c, 0, 67, 64
2, 256524, Note_on_c, 0, 69, 70
2, 256586, Note_off_c, 0, 69, 64
2, 256770, Note_on_c, 0, 73, 61
2, 256847, Note_off_c, 0, 73, 64
2, 257009, Note_on_c, 0, 62, 60
2, 257089, Note_off_c, 0, 62, 64
2, 257242, Note_on_c, 0, 66, 60
2, 257323, Note_off_c, 0, 66, 64
2, 257483, Note_on_c, 0, 71, 68
2, 257553, Note_off_c, 0, 71, 64
2, 257726, Note_on_c, 0, 74, 76
2, 257804, Note_off_c, 0, 74, 64
2, 257965, Note_on_c, 0, 64, 61
2, 258047, Note_off_c, 0, 64, 64
2, 258207, Note_on_c, 0, 73, 64
2, 258280, Note_off_c, 0, 73, 64
2, 258441, Note_on_c, 0, 66, 64
2, 258527, Note_off_c, 0, 66, 64
2, 258689, Note_on_c, 0, 70, 70
2, 258762, Note_off_c, 0, 70, 64
2, 258922, Note_on_c, 0, 71, 60
2, 258986, Note_off_c, 0, 71, 64
2, 259161, Note_on_c, 0, 66, 62
2, 259249, Note_off_c, 0, 66, 64
2, 259398, Note_on_c, 0, 62, 66
2, 259497, Note_off_c, 0, 62, 64
2, 259648, Note_on_c, 0, 71, 76
2, 259736, Note_off_c, 0, 71, 64
2, 259896, Note_on_c, 0, 70, 68
2, 259980, Note_off_c, 0, 70, 64
2, 260144, Note_on_c, 0, 73, 64
2, 260219, Note_off_c, 0, 73, 64
2, 260392, Note_on_c, 0, 66, 68
2, 260476, Note_off_c, 0, 66, 64
2, 260631, Note_on_c, 0, 71, 78
2, 260701, Note_off_c, 0, 71, 64
2, 260872, Note_on_c, 0, 70, 61
2, 260960, Note_off_c, 0, 70, 64
2, 261117, Note_on_c, 0, 73, 66
2, 261193, Note_off_c, 0, 73, 64
2, 261357, Note_on_c, 0, 66, 70
2, 261436, Note_off_c, 0, 66, 64
2, 261589, Note_on_c, 0, 76, 80
2, 261666, Note_off_c, 0, 76, 64
2, 261832, Note_on_c, 0, 74, 80
2, 261914, Note_off_c, 0, 74, 64
2, 262076, Note_on_c, 0, 83, 85
2, 262143, Note_off_c, 0, 83, 64
2, 262315, Note_on_c, 0, 82, 72
2, 262403, Note_off_c, 0, 82, 64
2, 262567, Note_on_c, 0, 83, 87
2, 262632, Note_off_c, 0, 83, 64
2, 262813, Note_on_c, 0, 85, 89
2, 262879, Note_off_c, 0, 85, 64
2, 263032, Note_on_c, 0, 78, 82
2, 263322, Note_off_c, 0, 78, 64
2, 292782, Note_on_c, 0, 62, 70
2, 292885, Note_off_c, 0, 62, 64
2, 292889, Note_on_c, 0, 61, 66
2, 292989, Note_off_c, 0, 61, 64
2, 293029, Note_on_c, 0, 62, 76
2, 293131, Note_off_c, 0, 62, 64
2, 293263, Note_on_c, 0, 64, 78
2, 293336, Note_off_c, 0, 64, 64
2, 293489, Note_on_c, 0, 66, 63
2, 293580, Note_off_c, 0, 66, 64
2, 293728, Note_on_c, 0, 69, 78
2, 293817, Note_off_c, 0, 69, 64
2, 293978, Note_on_c, 0, 62, 76
2, 294067, Note_off_c, 0, 62, 64
2, 294220, Note_on_c, 0, 69, 78
2, 294299, Note_off_c, 0, 69, 64
2, 294454, Note_on_c, 0, 61, 64
2, 294549, Note_off_c, 0, 61, 64
2, 294709, Note_on_c, 0, 69, 70
2, 294773, Note_off_c, 0, 69, 64
2, 294930, Note_on_c, 0, 64, 64
2, 295007, Note_off_c, 0, 64, 64
2, 295176, Note_on_c, 0, 69, 68
2, 295255, Note_off_c, 0, 69, 64
2, 295411, Note_on_c, 0, 61, 63
2, 295497, Note_off_c, 0, 61, 64
2, 295654, Note_on_c, 0, 69, 76
2, 295723, Note_off_c, 0, 69, 64
2, 295908, Note_on_c, 0, 57, 76
2, 296001, Note_off_c, 0, 57, 64
2, 296137, Note_on_c, 0, 67, 68
2, 296230, Note_off_c, 0, 67, 64
2, 296375, Note_on_c, 0, 62, 78
2, 296466, Note_off_c, 0, 62, 64
2, 296606, Note_on_c, 0, 69, 76
2, 296688, Note_off_c, 0, 69, 64
2, 296849, Note_on_c, 0, 66, 63
2, 296933, Note_off_c, 0, 66, 64
2, 297093, Note_on_c, 0, 69, 72
2, 297168, Note_off_c, 0, 69, 64
2, 297338, Note_on_c, 0, 72, 80
2, 297425, Note_off_c, 0, 72, 64
2, 297575, Note_on_c, 0, 69, 66
2, 297668, Note_off_c, 0, 69, 64
2, 297814, Note_on_c, 0, 66, 60
2, 297921, Note_off_c, 0, 66, 64
2, 298053, Note_on_c, 0, 74, 76
2, 298127, Note_off_c, 0, 74, 64
2, 298286, Note_on_c, 0, 67, 70
2, 298383, Note_off_c, 0, 67, 64
2, 298532, Note_on_c, 0, 71, 80
2, 298607, Note_off_c, 0, 71, 64
2, 298777, Note_on_c, 0, 76, 66
2, 298850, Note_off_c, 0, 76, 64
2, 299003, Note_on_c, 0, 67, 64
2, 299094, Note_off_c, 0, 67, 64
2, 299245, Note_on_c, 0, 66, 66
2, 299351, Note_off_c, 0, 66, 64
2, 299488, Note_on_c, 0, 75, 66
2, 299570, Note_off_c, 0, 75, 64
2, 299729, Note_on_c, 0, 76, 66
2, 299800, Note_off_c, 0, 76, 64
2, 299959, Note_on_c, 0, 71, 68
2, 300055, Note_off_c, 0, 71, 64
2, 300201, Note_on_c, 0, 75, 66
2, 300294, Note_off_c, 0, 75, 64
2, 300449, Note_on_c, 0, 78, 63
2, 300522, Note_off_c, 0, 78, 64
2, 300696, Note_on_c, 0, 83, 66
2, 300765, Note_off_c, 0, 83, 64
2, 300949, Note_on_c, 0, 83, 91
2, 301031, Note_off_c, 0, 83, 64
2, 301194, Note_on_c, 0, 84, 95
2, 301278, Note_off_c, 0, 84, 64
2, 301432, Note_on_c, 0, 83, 85
2, 301788, Note_off_c, 0, 83, 64
2, 301923, Note_on_c, 0, 81, 78
2, 302023, Note_off_c, 0, 81, 64
2, 302168, Note_on_c, 0, 83, 85
2, 302262, Note_off_c, 0, 83, 64
2, 302272, Note_on_c, 0, 81, 80
2, 302377, Note_off_c, 0, 81, 64
2, 302388, Note_on_c, 0, 79, 70
2, 302472, Note_off_c, 0, 79, 64
2, 302496, Note_on_c, 0, 81, 82
2, 302580, Note_off_c, 0, 81, 64
2, 302618, Note_on_c, 0, 83, 89
2, 302706, Note_off_c, 0, 83, 64
2, 302846, Note_on_c, 0, 76, 78
2, 302935, Note_off_c, 0, 76, 64
2, 303094, Note_on_c, 0, 81, 85
2, 303178, Note_off_c, 0, 81, 64
2, 303340, Note_on_c, 0, 79, 82
2, 303718, Note_off_c, 0, 79, 64
2, 303835, Note_on_c, 0, 78, 87
2, 303973, Note_off_c, 0, 78, 64
2, 304068, Note_on_c, 0, 79, 95
2, 304176, Note_on_c, 0, 81, 82
2, 304205, Note_off_c, 0, 79, 64
2, 304276, Note_off_c, 0, 81, 64
2, 304289, Note_on_c, 0, 79, 68
2, 304395, Note_off_c, 0, 79, 64
2, 304398, Note_on_c, 0, 78, 58
2, 304506, Note_off_c, 0, 78, 64
2, 304524, Note_on_c, 0, 76, 61
2, 304634, Note_on_c, 0, 78, 62
2, 304639, Note_off_c, 0, 76, 64
2, 304730, Note_off_c, 0, 78, 64
2, 304758, Note_on_c, 0, 79, 62
2, 304880, Note_off_c, 0, 79, 64
2, 304880, Note_on_c, 0, 81, 76
2, 304966, Note_off_c, 0, 81, 64
2, 304995, Note_on_c, 0, 83, 78
2, 305110, Note_off_c, 0, 83, 64
2, 305115, Note_on_c, 0, 85, 78
2, 305223, Note_off_c, 0, 85, 64
2, 305237, Note_on_c, 0, 86, 85
2, 305343, Note_off_c, 0, 86, 64
2, 305350, Note_on_c, 0, 83, 60
2, 305432, Note_off_c, 0, 83, 64
2, 305474, Note_on_c, 0, 85, 72
2, 305588, Note_on_c, 0, 86, 82
2, 305608, Note_off_c, 0, 85, 64
2, 305684, Note_off_c, 0, 86, 64
2, 305712, Note_on_c, 0, 88, 82
2, 305812, Note_off_c, 0, 88, 64
2, 305821, Note_on_c, 0, 85, 59
2, 305909, Note_off_c, 0, 85, 64
2, 305949, Note_on_c, 0, 86, 80
2, 306498, Note_off_c, 0, 86, 64
2, 306567, Note_on_c, 0, 85, 78
2, 306687, Note_off_c, 0, 85, 64
2, 306690, Note_on_c, 0, 86, 85
2, 306782, Note_off_c, 0, 86, 64
2, 306800, Note_on_c, 0, 88, 68
2, 306883, Note_off_c, 0, 88, 64
2, 306925, Note_on_c, 0, 86, 87
2, 307036, Note_off_c, 0, 86, 64
2, 307045, Note_on_c, 0, 85, 64
2, 307140, Note_off_c, 0, 85, 64
2, 307154, Note_on_c, 0, 83, 60
2, 307260, Note_off_c, 0, 83, 64
2, 307280, Note_on_c, 0, 86, 70
2, 307366, Note_off_c, 0, 86, 64
2, 307410, Note_on_c, 0, 85, 80
2, 307520, Note_on_c, 0, 83, 64
2, 307526, Note_off_c, 0, 85, 64
2, 307610, Note_off_c, 0, 83, 64
2, 307638, Note_on_c, 0, 82, 55
2, 307744, Note_on_c, 0, 85, 63
2, 307754, Note_off_c, 0, 82, 64
2, 307837, Note_off_c, 0, 85, 64
2, 307877, Note_on_c, 0, 83, 82
2, 307968, Note_off_c, 0, 83, 64
2, 308123, Note_on_c, 0, 78, 61
2, 308203, Note_off_c, 0, 78, 64
2, 308373, Note_on_c, 0, 83, 70
2, 308444, Note_off_c, 0, 83, 64
2, 308619, Note_on_c, 0, 71, 68
2, 308701, Note_off_c, 0, 71, 64
2, 308863, Note_on_c, 0, 81, 80
2, 308947, Note_off_c, 0, 81, 64
2, 309102, Note_on_c, 0, 75, 63
2, 309174, Note_off_c, 0, 75, 64
2, 309350, Note_on_c, 0, 81, 72
2, 309427, Note_off_c, 0, 81, 64
2, 309578, Note_on_c, 0, 71, 72
2, 309650, Note_off_c, 0, 71, 64
2, 309823, Note_on_c, 0, 79, 82
2, 309927, Note_on_c, 0, 81, 70
2, 309943, Note_off_c, 0, 79, 64
2, 310031, Note_off_c, 0, 81, 64
2, 310058, Note_on_c, 0, 83, 76
2, 310158, Note_on_c, 0, 79, 68
2, 310168, Note_off_c, 0, 83, 64
2, 310253, Note_off_c, 0, 79, 64
2, 310290, Note_on_c, 0, 81, 66
2, 310407, Note_on_c, 0, 83, 70
2, 310416, Note_off_c, 0, 81, 64
2, 310507, Note_off_c, 0, 83, 64
2, 310534, Note_on_c, 0, 84, 63
2, 310636, Note_on_c, 0, 81, 76
2, 310638, Note_off_c, 0, 84, 64
2, 310695, Note_off_c, 0, 81, 64
2, 310773, Note_on_c, 0, 75, 80
2, 310875, Note_off_c, 0, 75, 64
2, 311012, Note_on_c, 0, 71, 80
2, 311112, Note_off_c, 0, 71, 64
2, 311271, Note_on_c, 0, 76, 82
2, 311789, Note_off_c, 0, 76, 64
2, 311858, Note_on_c, 0, 74, 72
2, 311964, Note_off_c, 0, 74, 64
2, 311970, Note_on_c, 0, 72, 66
2, 312068, Note_off_c, 0, 72, 64
2, 312085, Note_on_c, 0, 71, 62
2, 312170, Note_off_c, 0, 71, 64
2, 312218, Note_on_c, 0, 69, 68
2, 312325, Note_on_c, 0, 71, 68
2, 312327, Note_off_c, 0, 69, 64
2, 312411, Note_off_c, 0, 71, 64
2, 312457, Note_on_c, 0, 72, 66
2, 312884, Note_off_c, 0, 72, 64
2, 312962, Note_on_c, 0, 71, 95
2, 313057, Note_on_c, 0, 69, 80
2, 313062, Note_off_c, 0, 71, 64
2, 313164, Note_off_c, 0, 69, 64
2, 313175, Note_on_c, 0, 67, 63
2, 313281, Note_on_c, 0, 66, 60
2, 313287, Note_off_c, 0, 67, 64
2, 313391, Note_off_c, 0, 66, 64
2, 313407, Note_on_c, 0, 64, 70
2, 313518, Note_on_c, 0, 63, 63
2, 313524, Note_off_c, 0, 64, 64
2, 313606, Note_off_c, 0, 63, 64
2, 313651, Note_on_c, 0, 64, 59
2, 313752, Note_off_c, 0, 64, 64
2, 313907, Note_on_c, 0, 71, 76
2, 314005, Note_off_c, 0, 71, 64
2, 314144, Note_on_c, 0, 70, 82
2, 314239, Note_off_c, 0, 70, 64
2, 314246, Note_on_c, 0, 71, 82
2, 314335, Note_off_c, 0, 71, 64
2, 314368, Note_on_c, 0, 73, 72
2, 314746, Note_off_c, 0, 73, 64
2, 314857, Note_on_c, 0, 66, 66
2, 314945, Note_off_c, 0, 66, 64
2, 315100, Note_on_c, 0, 71, 82
2, 315599, Note_off_c, 0, 71, 64
2, 315835, Note_on_c, 0, 83, 82
2, 315919, Note_off_c, 0, 83, 64
2, 316066, Note_on_c, 0, 82, 68
2, 316167, Note_off_c, 0, 82, 64
2, 316169, Note_on_c, 0, 83, 68
2, 316258, Note_off_c, 0, 83, 64
2, 316296, Note_on_c, 0, 85, 64
2, 316395, Note_off_c, 0, 85, 64
2, 316528, Note_on_c, 0, 78, 76
2, 316606, Note_off_c, 0, 78, 64
2, 316781, Note_on_c, 0, 71, 74
2, 316874, Note_on_c, 0, 70, 68
2, 316885, Note_off_c, 0, 71, 64
2, 316958, Note_off_c, 0, 70, 64
2, 317011, Note_on_c, 0, 71, 66
2, 317086, Note_off_c, 0, 71, 64
2, 317252, Note_on_c, 0, 59, 70
2, 317349, Note_off_c, 0, 59, 64
2, 317490, Note_on_c, 0, 64, 70
2, 317582, Note_off_c, 0, 64, 64
2, 317730, Note_on_c, 0, 67, 70
2, 317825, Note_off_c, 0, 67, 64
2, 317971, Note_on_c, 0, 69, 64
2, 318051, Note_off_c, 0, 69, 64
2, 318212, Note_on_c, 0, 73, 63
2, 318299, Note_off_c, 0, 73, 64
2, 318467, Note_on_c, 0, 62, 66
2, 318553, Note_off_c, 0, 62, 64
2, 318702, Note_on_c, 0, 66, 61
2, 318791, Note_off_c, 0, 66, 64
2, 318945, Note_on_c, 0, 71, 68
2, 319030, Note_off_c, 0, 71, 64
2, 319185, Note_on_c, 0, 74, 70
2, 319258, Note_off_c, 0, 74, 64
2, 319425, Note_on_c, 0, 64, 64
2, 319517, Note_off_c, 0, 64, 64
2, 319660, Note_on_c, 0, 73, 62
2, 319744, Note_off_c, 0, 73, 64
2, 319895, Note_on_c, 0, 66, 63
2, 319983, Note_off_c, 0, 66, 64
2, 320136, Note_on_c, 0, 70, 68
2, 320227, Note_off_c, 0, 70, 64
2, 320380, Note_on_c, 0, 71, 70
2, 320471, Note_off_c, 0, 71, 64
2, 320617, Note_on_c, 0, 66, 66
2, 320707, Note_off_c, 0, 66, 64
2, 320853, Note_on_c, 0, 62, 68
2, 320947, Note_off_c, 0, 62, 64
2, 321101, Note_on_c, 0, 71, 78
2, 321194, Note_off_c, 0, 71, 64
2, 321347, Note_on_c, 0, 70, 68
2, 321440, Note_off_c, 0, 70, 64
2, 321591, Note_on_c, 0, 73, 63
2, 321677, Note_off_c, 0, 73, 64
2, 321821, Note_on_c, 0, 66, 63
2, 321912, Note_off_c, 0, 66, 64
2, 322062, Note_on_c, 0, 71, 80
2, 322142, Note_off_c, 0, 71, 64
2, 322299, Note_on_c, 0, 70, 64
2, 322394, Note_off_c, 0, 70, 64
2, 322538, Note_on_c, 0, 73, 63
2, 322635, Note_off_c, 0, 73, 64
2, 322784, Note_on_c, 0, 66, 64
2, 322868, Note_off_c, 0, 66, 64
2, 323010, Note_on_c, 0, 76, 74
2, 323105, Note_off_c, 0, 76, 64
2, 323258, Note_on_c, 0, 74, 72
2, 323356, Note_off_c, 0, 74, 64
2, 323510, Note_on_c, 0, 83, 68
2, 323590, Note_off_c, 0, 83, 64
2, 323747, Note_on_c, 0, 82, 68
2, 323829, Note_off_c, 0, 82, 64
2, 323981, Note_on_c, 0, 83, 85
2, 324063, Note_off_c, 0, 83, 64
2, 324225, Note_on_c, 0, 85, 95
2, 324298, Note_off_c, 0, 85, 64
2, 324466, Note_on_c, 0, 78, 78
2, 324811, Note_off_c, 0, 78, 64
2, 324840, Note_on_c, 0, 76, 80
2, 324955, Note_off_c, 0, 76, 64
2, 324964, Note_on_c, 0, 74, 66
2, 325059, Note_off_c, 0, 74, 64
2, 325072, Note_on_c, 0, 73, 78
2, 325165, Note_off_c, 0, 73, 64
2, 325194, Note_on_c, 0, 74, 91
2, 325298, Note_off_c, 0, 74, 64
2, 325315, Note_on_c, 0, 73, 87
2, 325400, Note_off_c, 0, 73, 64
2, 325420, Note_on_c, 0, 71, 63
2, 325541, Note_off_c, 0, 71, 64
2, 325541, Note_on_c, 0, 73, 58
2, 325622, Note_off_c, 0, 73, 64
2, 325653, Note_on_c, 0, 74, 72
2, 325770, Note_off_c, 0, 74, 64
2, 325772, Note_on_c, 0, 78, 58
2, 325847, Note_off_c, 0, 78, 64
2, 325880, Note_on_c, 0, 76, 55
2, 325971, Note_off_c, 0, 76, 64
2, 325991, Note_on_c, 0, 74, 78
2, 326056, Note_off_c, 0, 74, 64
2, 326126, Note_on_c, 0, 73, 80
2, 326233, Note_off_c, 0, 73, 64
2, 326374, Note_on_c, 0, 76, 85
2, 326460, Note_off_c, 0, 76, 64
2, 326615, Note_on_c, 0, 81, 87
2, 326700, Note_off_c, 0, 81, 64
2, 326855, Note_on_c, 0, 78, 70
2, 326947, Note_off_c, 0, 78, 64
2, 327107, Note_on_c, 0, 75, 93
2, 327213, Note_on_c, 0, 78, 82
2, 327238, Note_off_c, 0, 75, 64
2, 327337, Note_on_c, 0, 83, 85
2, 327357, Note_off_c, 0, 78, 64
2, 327454, Note_on_c, 0, 81, 76
2, 327465, Note_off_c, 0, 83, 64
2, 327541, Note_off_c, 0, 81, 64
2, 327580, Note_on_c, 0, 79, 66
2, 327662, Note_off_c, 0, 79, 64
2, 327694, Note_on_c, 0, 78, 63
2, 327786, Note_off_c, 0, 78, 64
2, 327820, Note_on_c, 0, 76, 68
2, 327902, Note_off_c, 0, 76, 64
2, 327930, Note_on_c, 0, 75, 78
2, 328004, Note_off_c, 0, 75, 64
2, 328052, Note_on_c, 0, 76, 74
2, 328131, Note_off_c, 0, 76, 64
2, 328282, Note_on_c, 0, 71, 68
2, 328381, Note_off_c, 0, 71, 64
2, 328528, Note_on_c, 0, 79, 82
2, 328614, Note_off_c, 0, 79, 64
2, 328758, Note_on_c, 0, 76, 70
2, 328858, Note_off_c, 0, 76, 64
2, 329010, Note_on_c, 0, 73, 89
2, 329110, Note_on_c, 0, 76, 87
2, 329150, Note_off_c, 0, 73, 64
2, 329232, Note_on_c, 0, 81, 82
2, 329256, Note_off_c, 0, 76, 64
2, 329358, Note_on_c, 0, 79, 76
2, 329363, Note_off_c, 0, 81, 64
2, 329440, Note_off_c, 0, 79, 64
2, 329480, Note_on_c, 0, 78, 58
2, 329560, Note_off_c, 0, 78, 64
2, 329605, Note_on_c, 0, 76, 61
2, 329699, Note_off_c, 0, 76, 64
2, 329739, Note_on_c, 0, 74, 70
2, 329834, Note_off_c, 0, 74, 64
2, 329860, Note_on_c, 0, 73, 56
2, 329918, Note_off_c, 0, 73, 64
2, 329956, Note_on_c, 0, 74, 60
2, 330062, Note_off_c, 0, 74, 64
2, 330084, Note_on_c, 0, 69, 63
2, 330213, Note_off_c, 0, 69, 64
2, 330215, Note_on_c, 0, 71, 57
2, 330316, Note_off_c, 0, 71, 64
2, 330341, Note_on_c, 0, 73, 62
2, 330441, Note_off_c, 0, 73, 64
2, 330478, Note_on_c, 0, 74, 68
2, 330567, Note_off_c, 0, 74, 64
2, 330580, Note_on_c, 0, 76, 72
2, 330660, Note_off_c, 0, 76, 64
2, 330699, Note_on_c, 0, 78, 70
2, 330786, Note_off_c, 0, 78, 64
2, 330819, Note_on_c, 0, 79, 74
2, 330901, Note_off_c, 0, 79, 64
2, 330936, Note_on_c, 0, 81, 74
2, 333877, Note_off_c, 0, 81, 64
2, 333932, Note_on_c, 0, 83, 80
2, 334053, Note_on_c, 0, 81, 70
2, 334077, Note_off_c, 0, 83, 64
2, 334146, Note_off_c, 0, 81, 64
2, 334168, Note_on_c, 0, 79, 72
2, 334255, Note_off_c, 0, 79, 64
2, 334281, Note_on_c, 0, 78, 60
2, 334392, Note_off_c, 0, 78, 64
2, 334394, Note_on_c, 0, 76, 68
2, 334491, Note_off_c, 0, 76, 64
2, 334529, Note_on_c, 0, 74, 57
2, 334615, Note_off_c, 0, 74, 64
2, 334640, Note_on_c, 0, 78, 47
2, 334735, Note_off_c, 0, 78, 64
2, 362857, Note_on_c, 0, 79, 76
2, 362926, Note_off_c, 0, 79, 64
2, 363087, Note_on_c, 0, 78, 66
2, 363169, Note_off_c, 0, 78, 64
2, 363331, Note_on_c, 0, 83, 85
2, 363415, Note_off_c, 0, 83, 64
2, 363563, Note_on_c, 0, 79, 82
2, 363641, Note_off_c, 0, 79, 64
2, 363813, Note_on_c, 0, 76, 82
2, 363888, Note_off_c, 0, 76, 64
2, 364050, Note_on_c, 0, 79, 82
2, 364123, Note_off_c, 0, 79, 64
2, 364287, Note_on_c, 0, 71, 76
2, 364365, Note_off_c, 0, 71, 64
2, 364522, Note_on_c, 0, 79, 82
2, 364595, Note_off_c, 0, 79, 64
2, 364756, Note_on_c, 0, 73, 64
2, 364829, Note_off_c, 0, 73, 64
2, 365002, Note_on_c, 0, 79, 85
2, 365077, Note_off_c, 0, 79, 64
2, 365230, Note_on_c, 0, 69, 72
2, 365321, Note_off_c, 0, 69, 64
2, 365489, Note_on_c, 0, 78, 78
2, 365572, Note_off_c, 0, 78, 64
2, 365719, Note_on_c, 0, 74, 82
2, 365795, Note_off_c, 0, 74, 64
2, 365961, Note_on_c, 0, 78, 68
2, 366038, Note_off_c, 0, 78, 64
2, 366204, Note_on_c, 0, 69, 72
2, 366290, Note_off_c, 0, 69, 64
2, 366447, Note_on_c, 0, 78, 82
2, 366520, Note_off_c, 0, 78, 64
2, 366682, Note_on_c, 0, 71, 72
2, 366768, Note_off_c, 0, 71, 64
2, 366928, Note_on_c, 0, 78, 74
2, 367004, Note_off_c, 0, 78, 64
2, 367165, Note_on_c, 0, 67, 66
2, 367251, Note_off_c, 0, 67, 64
2, 367406, Note_on_c, 0, 76, 85
2, 367474, Note_off_c, 0, 76, 64
2, 367634, Note_on_c, 0, 73, 63
2, 367711, Note_off_c, 0, 73, 64
2, 367871, Note_on_c, 0, 76, 82
2, 367939, Note_off_c, 0, 76, 64
2, 368112, Note_on_c, 0, 67, 70
2, 368201, Note_off_c, 0, 67, 64
2, 368367, Note_on_c, 0, 76, 82
2, 368437, Note_off_c, 0, 76, 64
2, 368603, Note_on_c, 0, 70, 58
2, 368672, Note_off_c, 0, 70, 64
2, 368847, Note_on_c, 0, 76, 80
2, 368927, Note_off_c, 0, 76, 64
2, 369086, Note_on_c, 0, 66, 62
2, 369164, Note_off_c, 0, 66, 64
2, 369340, Note_on_c, 0, 74, 89
2, 369447, Note_on_c, 0, 76, 82
2, 369454, Note_off_c, 0, 74, 64
2, 369560, Note_off_c, 0, 76, 64
2, 369568, Note_on_c, 0, 74, 70
2, 369682, Note_off_c, 0, 74, 64
2, 369704, Note_on_c, 0, 73, 56
2, 369800, Note_off_c, 0, 73, 64
2, 369817, Note_on_c, 0, 71, 61
2, 369930, Note_off_c, 0, 71, 64
2, 369943, Note_on_c, 0, 73, 58
2, 370038, Note_off_c, 0, 73, 64
2, 370051, Note_on_c, 0, 74, 70
2, 370118, Note_off_c, 0, 74, 64
2, 370157, Note_on_c, 0, 71, 57
2, 370236, Note_off_c, 0, 71, 64
2, 370279, Note_on_c, 0, 79, 85
2, 370363, Note_off_c, 0, 79, 64
2, 370536, Note_on_c, 0, 78, 72
2, 370908, Note_off_c, 0, 78, 64
2, 371023, Note_on_c, 0, 76, 78
2, 371154, Note_off_c, 0, 76, 64
2, 371269, Note_on_c, 0, 78, 87
2, 371362, Note_off_c, 0, 78, 64
2, 371375, Note_on_c, 0, 76, 70
2, 371483, Note_off_c, 0, 76, 64
2, 371497, Note_on_c, 0, 74, 57
2, 371596, Note_off_c, 0, 74, 64
2, 371603, Note_on_c, 0, 76, 64
2, 371691, Note_off_c, 0, 76, 64
2, 371744, Note_on_c, 0, 78, 70
2, 371837, Note_off_c, 0, 78, 64
2, 371968, Note_on_c, 0, 71, 66
2, 372055, Note_off_c, 0, 71, 64
2, 372216, Note_on_c, 0, 76, 85
2, 372293, Note_off_c, 0, 76, 64
2, 372457, Note_on_c, 0, 74, 82
2, 372809, Note_off_c, 0, 74, 64
2, 372951, Note_on_c, 0, 73, 62
2, 373090, Note_off_c, 0, 73, 64
2, 373194, Note_on_c, 0, 74, 85
2, 373301, Note_on_c, 0, 76, 66
2, 373320, Note_off_c, 0, 74, 64
2, 373411, Note_off_c, 0, 76, 64
2, 373418, Note_on_c, 0, 74, 63
2, 373535, Note_off_c, 0, 74, 64
2, 373538, Note_on_c, 0, 73, 50
2, 373642, Note_off_c, 0, 73, 64
2, 373657, Note_on_c, 0, 71, 63
2, 373766, Note_on_c, 0, 73, 55
2, 373772, Note_off_c, 0, 71, 64
2, 373872, Note_off_c, 0, 73, 64
2, 373892, Note_on_c, 0, 74, 63
2, 374007, Note_on_c, 0, 76, 70
2, 374020, Note_off_c, 0, 74, 64
2, 374095, Note_off_c, 0, 76, 64
2, 374131, Note_on_c, 0, 78, 98
2, 374246, Note_on_c, 0, 79, 68
2, 374266, Note_off_c, 0, 78, 64
2, 374374, Note_on_c, 0, 78, 52
2, 374376, Note_off_c, 0, 79, 64
2, 374492, Note_on_c, 0, 76, 62
2, 374500, Note_off_c, 0, 78, 64
2, 374596, Note_off_c, 0, 76, 64
2, 374620, Note_on_c, 0, 75, 63
2, 374726, Note_off_c, 0, 75, 64
2, 374728, Note_on_c, 0, 76, 66
2, 374848, Note_off_c, 0, 76, 64
2, 374853, Note_on_c, 0, 78, 59
2, 374961, Note_on_c, 0, 75, 62
2, 374981, Note_off_c, 0, 78, 64
2, 375038, Note_off_c, 0, 75, 64
2, 375091, Note_on_c, 0, 76, 80
2, 375207, Note_on_c, 0, 78, 66
2, 375226, Note_off_c, 0, 76, 64
2, 375330, Note_on_c, 0, 76, 64
2, 375339, Note_off_c, 0, 78, 64
2, 375428, Note_off_c, 0, 76, 64
2, 375446, Note_on_c, 0, 74, 60
2, 375550, Note_off_c, 0, 74, 64
2, 375563, Note_on_c, 0, 73, 57
2, 375672, Note_off_c, 0, 73, 64
2, 375674, Note_on_c, 0, 74, 68
2, 375782, Note_off_c, 0, 74, 64
2, 375796, Note_on_c, 0, 76, 64
2, 375888, Note_off_c, 0, 76, 64
2, 375910, Note_on_c, 0, 78, 66
2, 376008, Note_off_c, 0, 78, 64
2, 376049, Note_on_c, 0, 79, 89
2, 376160, Note_on_c, 0, 81, 80
2, 376180, Note_off_c, 0, 79, 64
2, 376294, Note_on_c, 0, 79, 68
2, 376305, Note_off_c, 0, 81, 64
2, 376406, Note_on_c, 0, 78, 64
2, 376409, Note_off_c, 0, 79, 64
2, 376513, Note_off_c, 0, 78, 64
2, 376532, Note_on_c, 0, 76, 66
2, 376643, Note_on_c, 0, 78, 70
2, 376659, Note_off_c, 0, 76, 64
2, 376750, Note_off_c, 0, 78, 64
2, 376763, Note_on_c, 0, 79, 68
2, 376874, Note_on_c, 0, 76, 64
2, 376876, Note_off_c, 0, 79, 64
2, 376957, Note_off_c, 0, 76, 64
2, 377004, Note_on_c, 0, 78, 82
2, 377119, Note_on_c, 0, 79, 72
2, 377143, Note_off_c, 0, 78, 64
2, 377225, Note_off_c, 0, 79, 64
2, 377245, Note_on_c, 0, 78, 68
2, 377358, Note_on_c, 0, 76, 70
2, 377367, Note_off_c, 0, 78, 64
2, 377464, Note_off_c, 0, 76, 64
2, 377487, Note_on_c, 0, 74, 68
2, 377602, Note_on_c, 0, 76, 68
2, 377613, Note_off_c, 0, 74, 64
2, 377724, Note_off_c, 0, 76, 64
2, 377734, Note_on_c, 0, 78, 57
2, 377838, Note_off_c, 0, 78, 64
2, 377843, Note_on_c, 0, 79, 76
2, 377943, Note_off_c, 0, 79, 64
2, 377969, Note_on_c, 0, 81, 87
2, 378086, Note_on_c, 0, 83, 74
2, 378095, Note_off_c, 0, 81, 64
2, 378186, Note_off_c, 0, 83, 64
2, 378210, Note_on_c, 0, 81, 68
2, 378315, Note_off_c, 0, 81, 64
2, 378315, Note_on_c, 0, 79, 63
2, 378438, Note_off_c, 0, 79, 64
2, 378450, Note_on_c, 0, 78, 70
2, 378540, Note_on_c, 0, 79, 66
2, 378547, Note_off_c, 0, 78, 64
2, 378655, Note_off_c, 0, 79, 64
2, 378678, Note_on_c, 0, 81, 64
2, 378779, Note_off_c, 0, 81, 64
2, 378802, Note_on_c, 0, 78, 60
2, 378895, Note_off_c, 0, 78, 64
2, 378934, Note_on_c, 0, 79, 85
2, 379052, Note_on_c, 0, 81, 70
2, 379071, Note_off_c, 0, 79, 64
2, 379162, Note_off_c, 0, 81, 64
2, 379173, Note_on_c, 0, 79, 72
2, 379284, Note_on_c, 0, 78, 63
2, 379297, Note_off_c, 0, 79, 64
2, 379406, Note_on_c, 0, 76, 78
2, 379419, Note_off_c, 0, 78, 64
2, 379496, Note_off_c, 0, 76, 64
2, 379512, Note_on_c, 0, 74, 66
2, 379638, Note_on_c, 0, 73, 57
2, 379646, Note_off_c, 0, 74, 64
2, 379727, Note_off_c, 0, 73, 64
2, 379749, Note_on_c, 0, 71, 59
2, 379849, Note_off_c, 0, 71, 64
2, 379891, Note_on_c, 0, 78, 87
2, 380147, Note_off_c, 0, 78, 64
2, 380238, Note_on_c, 0, 79, 72
2, 380293, Note_off_c, 0, 79, 64
2, 380360, Note_on_c, 0, 74, 95
2, 380418, Note_on_c, 0, 73, 52
2, 380433, Note_off_c, 0, 74, 64
2, 380451, Note_on_c, 0, 74, 51
2, 380475, Note_off_c, 0, 73, 64
2, 380512, Note_on_c, 0, 73, 57
2, 380537, Note_off_c, 0, 74, 64
2, 380645, Note_off_c, 0, 73, 64
2, 380734, Note_on_c, 0, 71, 68
2, 380796, Note_off_c, 0, 71, 64
2, 380873, Note_on_c, 0, 71, 66
2, 383335, Note_off_c, 0, 71, 64
2, 383496, Note_on_c, 0, 71, 82
2, 383581, Note_off_c, 0, 71, 64
2, 383745, Note_on_c, 0, 79, 87
2, 383838, Note_off_c, 0, 79, 64
2, 383992, Note_on_c, 0, 78, 64
2, 384360, Note_off_c, 0, 78, 64
2, 384468, Note_on_c, 0, 76, 66
2, 384597, Note_off_c, 0, 76, 64
2, 384712, Note_on_c, 0, 78, 91
2, 384809, Note_on_c, 0, 79, 82
2, 384816, Note_off_c, 0, 78, 64
2, 384913, Note_off_c, 0, 79, 64
2, 384943, Note_on_c, 0, 81, 89
2, 385241, Note_off_c, 0, 81, 64
2, 385314, Note_on_c, 0, 79, 76
2, 385413, Note_off_c, 0, 79, 64
2, 385424, Note_on_c, 0, 78, 80
2, 385528, Note_off_c, 0, 78, 64
2, 385535, Note_on_c, 0, 76, 58
2, 385617, Note_off_c, 0, 76, 64
2, 385652, Note_on_c, 0, 75, 78
2, 385756, Note_on_c, 0, 73, 55
2, 385765, Note_off_c, 0, 75, 64
2, 385894, Note_off_c, 0, 73, 64
2, 385896, Note_on_c, 0, 75, 61
2, 385998, Note_off_c, 0, 75, 64
2, 386018, Note_on_c, 0, 76, 78
2, 386102, Note_off_c, 0, 76, 64
2, 386144, Note_on_c, 0, 78, 68
2, 386252, Note_off_c, 0, 78, 64
2, 386259, Note_on_c, 0, 79, 78
2, 386345, Note_off_c, 0, 79, 64
2, 386376, Note_on_c, 0, 81, 85
2, 386461, Note_off_c, 0, 81, 64
2, 386492, Note_on_c, 0, 78, 64
2, 386570, Note_off_c, 0, 78, 64
2, 386611, Note_on_c, 0, 79, 87
2, 386711, Note_off_c, 0, 79, 64
2, 386733, Note_on_c, 0, 81, 70
2, 386833, Note_off_c, 0, 81, 64
2, 386848, Note_on_c, 0, 79, 74
2, 386932, Note_off_c, 0, 79, 64
2, 386958, Note_on_c, 0, 78, 68
2, 387045, Note_off_c, 0, 78, 64
2, 387091, Note_on_c, 0, 76, 82
2, 387180, Note_off_c, 0, 76, 64
2, 387202, Note_on_c, 0, 78, 78
2, 387289, Note_off_c, 0, 78, 64
2, 387320, Note_on_c, 0, 79, 82
2, 387410, Note_off_c, 0, 79, 64
2, 387435, Note_on_c, 0, 76, 76
2, 387516, Note_off_c, 0, 76, 64
2, 387578, Note_on_c, 0, 73, 82
2, 387675, Note_off_c, 0, 73, 64
2, 387831, Note_on_c, 0, 81, 95
2, 388189, Note_off_c, 0, 81, 64
2, 388313, Note_on_c, 0, 73, 72
2, 388408, Note_off_c, 0, 73, 64
2, 388557, Note_on_c, 0, 74, 87
2, 388844, Note_off_c, 0, 74, 64
2, 388895, Note_on_c, 0, 76, 82
2, 388953, Note_off_c, 0, 76, 64
2, 389020, Note_on_c, 0, 78, 85
2, 389121, Note_off_c, 0, 78, 64
2, 389130, Note_on_c, 0, 80, 82
2, 389205, Note_off_c, 0, 80, 64
2, 389243, Note_on_c, 0, 82, 68
2, 389334, Note_off_c, 0, 82, 64
2, 389362, Note_on_c, 0, 83, 76
2, 389449, Note_off_c, 0, 83, 64
2, 389495, Note_on_c, 0, 85, 91
2, 389580, Note_off_c, 0, 85, 64
2, 389728, Note_on_c, 0, 76, 87
2, 390051, Note_off_c, 0, 76, 64
2, 390106, Note_on_c, 0, 74, 74
2, 390181, Note_off_c, 0, 74, 64
2, 390219, Note_on_c, 0, 73, 66
2, 390299, Note_off_c, 0, 73, 64
2, 390330, Note_on_c, 0, 76, 68
2, 390405, Note_off_c, 0, 76, 64
2, 390461, Note_on_c, 0, 74, 82
2, 390540, Note_off_c, 0, 74, 64
2, 390697, Note_on_c, 0, 73, 85
2, 390994, Note_off_c, 0, 73, 64
2, 391058, Note_on_c, 0, 71, 82
2, 391138, Note_off_c, 0, 71, 64
2, 391173, Note_on_c, 0, 70, 80
2, 391244, Note_off_c, 0, 70, 64
2, 391273, Note_on_c, 0, 73, 64
2, 391350, Note_off_c, 0, 73, 64
2, 391404, Note_on_c, 0, 66, 80
2, 391527, Note_off_c, 0, 66, 64
2, 391671, Note_on_c, 0, 78, 89
2, 391797, Note_off_c, 0, 78, 64
2, 391902, Note_on_c, 0, 76, 93
2, 392005, Note_on_c, 0, 74, 80
2, 392026, Note_off_c, 0, 76, 64
2, 392074, Note_off_c, 0, 74, 64
2, 392133, Note_on_c, 0, 73, 85
2, 392238, Note_on_c, 0, 71, 61
2, 392264, Note_off_c, 0, 73, 64
2, 392355, Note_off_c, 0, 71, 64
2, 392355, End_track
3, 0, Start_track
3, 0, Title_t, "Violin2"
3, 0, Program_c, 1, 40
3, 0, Control_c, 1, 7, 100
3, 960, Note_on_c, 1, 66, 60
3, 1206, Note_off_c, 1, 66, 64
3, 1361, Note_on_c, 1, 70, 57
3, 1386, Note_off_c, 1, 70, 64
3, 1413, Note_on_c, 1, 70, 68
3, 1541, Note_on_c, 1, 71, 64
3, 1551, Note_off_c, 1, 70, 64
3, 1721, Note_off_c, 1, 71, 64
3, 1846, Note_on_c, 1, 73, 59
3, 1876, Note_off_c, 1, 73, 64
3, 1899, Note_on_c, 1, 74, 78
3, 2034, Note_off_c, 1, 74, 64
3, 2088, Note_on_c, 1, 73, 57
3, 2113, Note_on_c, 1, 71, 68
3, 2125, Note_off_c, 1, 73, 64
3, 2148, Note_on_c, 1, 70, 63
3, 2155, Note_off_c, 1, 71, 64
3, 2244, Note_off_c, 1, 70, 64
3, 2334, Note_on_c, 1, 70, 60
3, 2376, Note_off_c, 1, 70, 64
3, 2386, Note_on_c, 1, 71, 78
3, 2490, Note_off_c, 1, 71, 64
3, 2580, Note_on_c, 1, 74, 72
3, 2617, Note_off_c, 1, 74, 64
3, 2630, Note_on_c, 1, 73, 68
3, 2718, Note_off_c, 1, 73, 64
3, 2800, Note_on_c, 1, 71, 78
3, 2833, Note_off_c, 1, 71, 64
3, 2863, Note_on_c, 1, 71, 76
3, 2944, Note_on_c, 1, 70, 64
3, 2953, Note_off_c, 1, 71, 64
3, 2981, Note_on_c, 1, 71, 66
3, 2984, Note_off_c, 1, 70, 64
3, 3015, Note_on_c, 1, 70, 66
3, 3017, Note_off_c, 1, 71, 64
3, 3036, Note_on_c, 1, 71, 66
3, 3038, Note_off_c, 1, 70, 64
3, 3057, Note_on_c, 1, 70, 64
3, 3060, Note_off_c, 1, 71, 64
3, 3076, Note_on_c, 1, 71, 78
3, 3078, Note_off_c, 1, 70, 64
3, 3102, Note_on_c, 1, 70, 93
3, 3109, Note_off_c, 1, 71, 64
3, 3209, Note_off_c, 1, 70, 64
3, 3285, Note_on_c, 1, 70, 62
3, 3317, Note_off_c, 1, 70, 64
3, 3336, Note_on_c, 1, 73, 59
3, 3390, Note_on_c, 1, 71, 56
3, 3402, Note_off_c, 1, 73, 64
3, 3428, Note_off_c, 1, 71, 64
3, 3428, Note_on_c, 1, 73, 54
3, 3452, Note_on_c, 1, 71, 63
3, 3455, Note_off_c, 1, 73, 64
3, 3474, Note_off_c, 1, 71, 64
3, 3478, Note_on_c, 1, 73, 57
3, 3498, Note_off_c, 1, 73, 64
3, 3498, Note_on_c, 1, 71, 63
3, 3518, Note_off_c, 1, 71, 64
3, 3520, Note_on_c, 1, 73, 80
3, 3541, Note_on_c, 1, 71, 66
3, 3544, Note_off_c, 1, 73, 64
3, 3565, Note_on_c, 1, 73, 82
3, 3567, Note_off_c, 1, 71, 64
3, 3588, Note_on_c, 1, 71, 82
3, 3593, Note_off_c, 1, 73, 64
3, 3709, Note_off_c, 1, 71, 64
3, 3760, Note_on_c, 1, 70, 64
3, 3790, Note_off_c, 1, 70, 64
3, 3820, Note_on_c, 1, 70, 66
3, 3955, Note_off_c, 1, 70, 64
3, 3978, Note_on_c, 1, 71, 60
3, 4003, Note_on_c, 1, 70, 78
3, 4014, Note_off_c, 1, 71, 64
3, 4035, Note_on_c, 1, 71, 70
3, 4052, Note_off_c, 1, 70, 64
3, 4065, Note_on_c, 1, 73, 62
3, 4073, Note_off_c, 1, 71, 64
3, 4104, Note_on_c, 1, 71, 63
3, 4108, Note_off_c, 1, 73, 64
3, 4129, Note_on_c, 1, 73, 58
3, 4133, Note_off_c, 1, 71, 64
3, 4156, Note_on_c, 1, 71, 64
3, 4159, Note_off_c, 1, 73, 64
3, 4180, Note_on_c, 1, 73, 64
3, 4183, Note_off_c, 1, 71, 64
3, 4193, Note_on_c, 1, 71, 53
3, 4211, Note_off_c, 1, 71, 64
3, 4228, Note_on_c, 1, 71, 78
3, 4230, Note_off_c, 1, 73, 64
3, 4246, Note_on_c, 1, 70, 60
3, 4253, Note_off_c, 1, 71, 64
3, 4272, Note_on_c, 1, 71, 68
3, 4286, Note_off_c, 1, 70, 64
3, 4310, Note_on_c, 1, 73, 82
3, 4318, Note_off_c, 1, 71, 64
3, 4427, Note_off_c, 1, 73, 64
3, 4486, Note_on_c, 1, 71, 57
3, 4510, Note_on_c, 1, 70, 80
3, 4519, Note_off_c, 1, 71, 64
3, 4537, Note_off_c, 1, 70, 64
3, 4546, Note_on_c, 1, 71, 72
3, 4633, Note_off_c, 1, 71, 64
3, 4735, Note_on_c, 1, 71, 80
3, 4762, Note_off_c, 1, 71, 64
3, 4791, Note_on_c, 1, 71, 87
3, 5105, Note_off_c, 1, 71, 64
3, 5210, Note_on_c, 1, 71, 87
3, 5252, Note_off_c, 1, 71, 64
3, 5274, Note_on_c, 1, 59, 85
3, 5352, Note_off_c, 1, 59, 64
3, 5454, Note_on_c, 1, 71, 87
3, 5495, Note_off_c, 1, 71, 64
3, 5507, Note_on_c, 1, 73, 82
3, 5595, Note_off_c, 1, 73, 64
3, 5695, Note_on_c, 1, 75, 85
3, 5732, Note_off_c, 1, 75, 64
3, 5753, Note_on_c, 1, 76, 87
3, 6302, Note_off_c, 1, 76, 64
3, 6416, Note_on_c, 1, 74, 80
3, 6457, Note_off_c, 1, 74, 64
3, 6471, Note_on_c, 1, 73, 93
3, 6549, Note_off_c, 1, 73, 64
3, 6647, Note_on_c, 1, 71, 78
3, 6681, Note_off_c, 1, 71, 64
3, 6704, Note_on_c, 1, 69, 72
3, 7073, Note_off_c, 1, 69, 64
3, 7141, Note_on_c, 1, 69, 82
3, 7184, Note_off_c, 1, 69, 64
3, 7200, Note_on_c, 1, 57, 85
3, 7273, Note_off_c, 1, 57, 64
3, 7366, Note_on_c, 1, 69, 85
3, 7414, Note_off_c, 1, 69, 64
3, 7421, Note_on_c, 1, 71, 87
3, 7513, Note_off_c, 1, 71, 64
3, 7597, Note_on_c, 1, 73, 62
3, 7645, Note_off_c, 1, 73, 64
3, 7667, Note_on_c, 1, 74, 85
3, 8276, Note_off_c, 1, 74, 64
3, 8337, Note_on_c, 1, 74, 76
3, 8369, Note_off_c, 1, 74, 64
3, 8390, Note_on_c, 1, 74, 82
3, 8482, Note_off_c, 1, 74, 64
3, 8581, Note_on_c, 1, 76, 70
3, 8625, Note_off_c, 1, 76, 64
3, 8633, Note_on_c, 1, 73, 89
3, 8723, Note_off_c, 1, 73, 64
3, 8822, Note_on_c, 1, 69, 80
3, 8864, Note_off_c, 1, 69, 64
3, 8884, Note_on_c, 1, 74, 93
3, 8957, Note_off_c, 1, 74, 64
3, 9062, Note_on_c, 1, 62, 66
3, 9103, Note_off_c, 1, 62, 64
3, 9115, Note_on_c, 1, 67, 87
3, 9199, Note_off_c, 1, 67, 64
3, 9298, Note_on_c, 1, 66, 68
3, 9338, Note_off_c, 1, 66, 64
3, 9356, Note_on_c, 1, 64, 87
3, 9431, Note_off_c, 1, 64, 64
3, 9536, Note_on_c, 1, 76, 78
3, 9587, Note_off_c, 1, 76, 64
3, 9595, Note_on_c, 1, 74, 82
3, 9761, Note_off_c, 1, 74, 64
3, 9825, Note_on_c, 1, 71, 64
3, 9967, Note_off_c, 1, 71, 64
3, 10075, Note_on_c, 1, 69, 64
3, 10419, Note_off_c, 1, 69, 64
3, 10498, Note_on_c, 1, 69, 80
3, 10529, Note_off_c, 1, 69, 64
3, 10560, Note_on_c, 1, 69, 82
3, 10849, Note_off_c, 1, 69, 64
3, 10965, Note_on_c, 1, 61, 68
3, 11005, Note_off_c, 1, 61, 64
3, 11024, Note_on_c, 1, 62, 80
3, 11358, Note_off_c, 1, 62, 64
3, 11459, Note_on_c, 1, 66, 87
3, 11489, Note_off_c, 1, 66, 64
3, 11516, Note_on_c, 1, 66, 85
3, 11639, Note_on_c, 1, 64, 66
3, 11652, Note_off_c, 1, 66, 64
3, 11857, Note_off_c, 1, 64, 64
3, 11941, Note_on_c, 1, 61, 78
3, 11982, Note_off_c, 1, 61, 64
3, 11993, Note_on_c, 1, 66, 78
3, 12104, Note_off_c, 1, 66, 64
3, 12227, Note_on_c, 1, 64, 70
3, 12323, Note_off_c, 1, 64, 64
3, 12475, Note_on_c, 1, 64, 63
3, 12583, Note_off_c, 1, 64, 64
3, 12662, Note_on_c, 1, 69, 70
3, 12685, Note_on_c, 1, 71, 70
3, 12697, Note_off_c, 1, 69, 64
3, 12718, Note_off_c, 1, 71, 64
3, 12720, Note_on_c, 1, 73, 76
3, 12817, Note_off_c, 1, 73, 64
3, 12893, Note_on_c, 1, 74, 64
3, 12913, Note_on_c, 1, 71, 70
3, 12925, Note_off_c, 1, 74, 64
3, 12951, Note_on_c, 1, 73, 58
3, 12958, Note_off_c, 1, 71, 64
3, 13054, Note_off_c, 1, 73, 64
3, 13135, Note_on_c, 1, 73, 64
3, 13178, Note_off_c, 1, 73, 64
3, 13186, Note_on_c, 1, 75, 91
3, 13267, Note_off_c, 1, 75, 64
3, 13374, Note_on_c, 1, 76, 85
3, 13407, Note_off_c, 1, 76, 64
3, 13432, Note_on_c, 1, 76, 89
3, 13554, Note_on_c, 1, 78, 58
3, 13568, Note_off_c, 1, 76, 64
3, 13981, Note_off_c, 1, 78, 64
3, 14092, Note_on_c, 1, 75, 78
3, 14136, Note_off_c, 1, 75, 64
3, 14143, Note_on_c, 1, 76, 89
3, 14218, Note_off_c, 1, 76, 64
3, 14328, Note_on_c, 1, 78, 66
3, 14368, Note_off_c, 1, 78, 64
3, 14396, Note_on_c, 1, 71, 87
3, 14498, Note_off_c, 1, 71, 64
3, 14564, Note_on_c, 1, 64, 63
3, 14590, Note_on_c, 1, 66, 66
3, 14602, Note_off_c, 1, 64, 64
3, 14622, Note_off_c, 1, 66, 64
3, 14631, Note_on_c, 1, 67, 89
3, 14728, Note_off_c, 1, 67, 64
3, 14812, Note_on_c, 1, 69, 68
3, 14833, Note_on_c, 1, 71, 85
3, 14848, Note_off_c, 1, 69, 64
3, 14866, Note_off_c, 1, 71, 64
3, 14879, Note_on_c, 1, 73, 80
3, 15436, Note_off_c, 1, 73, 64
3, 15521, Note_on_c, 1, 78, 64
3, 15550, Note_on_c, 1, 76, 82
3, 15559, Note_off_c, 1, 78, 64
3, 15586, Note_off_c, 1, 76, 64
3, 15593, Note_on_c, 1, 74, 87
3, 15684, Note_off_c, 1, 74, 64
3, 15763, Note_on_c, 1, 76, 82
3, 15794, Note_on_c, 1, 78, 60
3, 15800, Note_off_c, 1, 76, 64
3, 15826, Note_off_c, 1, 78, 64
3, 15829, Note_on_c, 1, 71, 72
3, 16398, Note_off_c, 1, 71, 64
3, 16474, Note_on_c, 1, 64, 64
3, 16493, Note_on_c, 1, 66, 74
3, 16513, Note_off_c, 1, 64, 64
3, 16527, Note_off_c, 1, 66, 64
3, 16542, Note_on_c, 1, 67, 85
3, 16642, Note_off_c, 1, 67, 64
3, 16709, Note_on_c, 1, 66, 60
3, 16740, Note_on_c, 1, 64, 70
3, 16752, Note_off_c, 1, 66, 64
3, 16779, Note_on_c, 1, 70, 80
3, 16785, Note_off_c, 1, 64, 64
3, 16868, Note_off_c, 1, 70, 64
3, 16962, Note_on_c, 1, 66, 64
3, 17015, Note_off_c, 1, 66, 64
3, 17016, Note_on_c, 1, 76, 95
3, 17100, Note_off_c, 1, 76, 64
3, 17222, Note_on_c, 1, 76, 80
3, 17252, Note_off_c, 1, 76, 64
3, 17275, Note_on_c, 1, 76, 89
3, 17836, Note_off_c, 1, 76, 64
3, 17941, Note_on_c, 1, 73, 70
3, 17986, Note_off_c, 1, 73, 64
3, 17992, Note_on_c, 1, 74, 85
3, 18075, Note_off_c, 1, 74, 64
3, 18178, Note_on_c, 1, 70, 63
3, 18221, Note_off_c, 1, 70, 64
3, 18234, Note_on_c, 1, 71, 85
3, 18358, Note_off_c, 1, 71, 64
3, 18413, Note_on_c, 1, 66, 57
3, 18432, Note_on_c, 1, 68, 68
3, 18450, Note_off_c, 1, 66, 64
3, 18471, Note_off_c, 1, 68, 64
3, 18474, Note_on_c, 1, 70, 82
3, 18580, Note_off_c, 1, 70, 64
3, 18645, Note_on_c, 1, 68, 61
3, 18670, Note_on_c, 1, 66, 74
3, 18682, Note_off_c, 1, 68, 64
3, 18707, Note_off_c, 1, 66, 64
3, 18708, Note_on_c, 1, 71, 87
3, 18830, Note_off_c, 1, 71, 64
3, 18902, Note_on_c, 1, 66, 72
3, 18944, Note_off_c, 1, 66, 64
3, 18956, Note_on_c, 1, 73, 62
3, 18984, Note_on_c, 1, 71, 89
3, 18993, Note_off_c, 1, 73, 64
3, 19012, Note_on_c, 1, 73, 66
3, 19015, Note_off_c, 1, 71, 64
3, 19033, Note_on_c, 1, 71, 89
3, 19047, Note_off_c, 1, 73, 64
3, 19132, Note_off_c, 1, 71, 64
3, 19154, Note_on_c, 1, 73, 72
3, 19188, Note_off_c, 1, 73, 64
3, 19204, Note_on_c, 1, 70, 78
3, 19679, Note_off_c, 1, 70, 64
3, 42960, Note_on_c, 1, 71, 82
3, 43042, Note_off_c, 1, 71, 64
3, 43192, Note_on_c, 1, 74, 87
3, 43277, Note_off_c, 1, 74, 64
3, 43434, Note_on_c, 1, 73, 70
3, 43810, Note_off_c, 1, 73, 64
3, 43916, Note_on_c, 1, 71, 66
3, 44083, Note_off_c, 1, 71, 64
3, 44158, Note_on_c, 1, 73, 80
3, 44259, Note_off_c, 1, 73, 64
3, 44259, Note_on_c, 1, 71, 74
3, 44365, Note_off_c, 1, 71, 64
3, 44370, Note_on_c, 1, 69, 70
3, 44468, Note_off_c, 1, 69, 64
3, 44479, Note_on_c, 1, 71, 74
3, 44581, Note_off_c, 1, 71, 64
3, 44620, Note_on_c, 1, 73, 59
3, 44729, Note_off_c, 1, 73, 64
3, 44860, Note_on_c, 1, 66, 72
3, 44953, Note_off_c, 1, 66, 64
3, 45098, Note_on_c, 1, 71, 82
3, 45176, Note_off_c, 1, 71, 64
3, 45340, Note_on_c, 1, 69, 85
3, 45683, Note_off_c, 1, 69, 64
3, 45814, Note_on_c, 1, 68, 63
3, 45962, Note_off_c, 1, 68, 64
3, 46070, Note_on_c, 1, 69, 85
3, 46172, Note_on_c, 1, 71, 66
3, 46180, Note_off_c, 1, 69, 64
3, 46274, Note_off_c, 1, 71, 64
3, 46294, Note_on_c, 1, 69, 59
3, 46409, Note_on_c, 1, 68, 57
3, 46411, Note_off_c, 1, 69, 64
3, 46514, Note_off_c, 1, 68, 64
3, 46535, Note_on_c, 1, 66, 61
3, 46653, Note_on_c, 1, 68, 66
3, 46655, Note_off_c, 1, 66, 64
3, 46752, Note_off_c, 1, 68, 64
3, 46779, Note_on_c, 1, 69, 60
3, 46896, Note_on_c, 1, 71, 74
3, 46898, Note_off_c, 1, 69, 64
3, 46969, Note_off_c, 1, 71, 64
3, 47018, Note_on_c, 1, 73, 95
3, 47135, Note_on_c, 1, 74, 72
3, 47154, Note_off_c, 1, 73, 64
3, 47230, Note_off_c, 1, 74, 64
3, 47255, Note_on_c, 1, 73, 54
3, 47359, Note_off_c, 1, 73, 64
3, 47365, Note_on_c, 1, 71, 60
3, 47463, Note_off_c, 1, 71, 64
3, 47489, Note_on_c, 1, 70, 66
3, 47606, Note_on_c, 1, 71, 64
3, 47607, Note_off_c, 1, 70, 64
3, 47713, Note_off_c, 1, 71, 64
3, 47733, Note_on_c, 1, 73, 57
3, 47845, Note_off_c, 1, 73, 64
3, 47845, Note_on_c, 1, 70, 60
3, 47927, Note_off_c, 1, 70, 64
3, 47976, Note_on_c, 1, 71, 85
3, 48100, Note_on_c, 1, 73, 66
3, 48109, Note_off_c, 1, 71, 64
3, 48202, Note_off_c, 1, 73, 64
3, 48215, Note_on_c, 1, 74, 66
3, 48302, Note_off_c, 1, 74, 64
3, 48306, Note_on_c, 1, 71, 68
3, 48397, Note_off_c, 1, 71, 64
3, 48441, Note_on_c, 1, 73, 78
3, 48554, Note_on_c, 1, 74, 68
3, 48581, Note_off_c, 1, 73, 64
3, 48662, Note_off_c, 1, 74, 64
3, 48682, Note_on_c, 1, 76, 58
3, 48775, Note_off_c, 1, 76, 64
3, 48791, Note_on_c, 1, 73, 57
3, 48885, Note_off_c, 1, 73, 64
3, 48933, Note_on_c, 1, 74, 82
3, 49501, Note_off_c, 1, 74, 64
3, 49530, Note_on_c, 1, 73, 66
3, 49630, Note_off_c, 1, 73, 64
3, 49639, Note_on_c, 1, 74, 70
3, 49755, Note_off_c, 1, 74, 64
3, 49762, Note_on_c, 1, 76, 64
3, 49847, Note_off_c, 1, 76, 64
3, 49898, Note_on_c, 1, 74, 91
3, 50011, Note_on_c, 1, 73, 61
3, 50024, Note_off_c, 1, 74, 64
3, 50115, Note_off_c, 1, 73, 64
3, 50132, Note_on_c, 1, 71, 57
3, 50219, Note_off_c, 1, 71, 64
3, 50247, Note_on_c, 1, 74, 64
3, 50322, Note_off_c, 1, 74, 64
3, 50367, Note_on_c, 1, 73, 98
3, 50480, Note_on_c, 1, 71, 62
3, 50482, Note_off_c, 1, 73, 64
3, 50573, Note_off_c, 1, 71, 64
3, 50601, Note_on_c, 1, 70, 60
3, 50694, Note_off_c, 1, 70, 64
3, 50699, Note_on_c, 1, 73, 58
3, 50790, Note_off_c, 1, 73, 64
3, 50824, Note_on_c, 1, 71, 87
3, 50925, Note_off_c, 1, 71, 64
3, 51078, Note_on_c, 1, 66, 62
3, 51168, Note_off_c, 1, 66, 64
3, 51330, Note_on_c, 1, 71, 72
3, 51412, Note_off_c, 1, 71, 64
3, 51565, Note_on_c, 1, 59, 80
3, 51669, Note_off_c, 1, 59, 64
3, 51810, Note_on_c, 1, 71, 72
3, 51888, Note_off_c, 1, 71, 64
3, 52060, Note_on_c, 1, 78, 74
3, 52142, Note_off_c, 1, 78, 64
3, 52315, Note_on_c, 1, 77, 82
3, 52405, Note_on_c, 1, 78, 80
3, 52410, Note_off_c, 1, 77, 64
3, 52487, Note_off_c, 1, 78, 64
3, 52531, Note_on_c, 1, 80, 100
3, 52944, Note_off_c, 1, 80, 64
3, 53017, Note_on_c, 1, 73, 64
3, 53125, Note_off_c, 1, 73, 64
3, 53273, Note_on_c, 1, 78, 91
3, 53820, Note_off_c, 1, 78, 64
3, 53873, Note_on_c, 1, 76, 80
3, 53973, Note_off_c, 1, 76, 64
3, 53984, Note_on_c, 1, 74, 78
3, 54090, Note_off_c, 1, 74, 64
3, 54094, Note_on_c, 1, 73, 68
3, 54190, Note_off_c, 1, 73, 64
3, 54221, Note_on_c, 1, 71, 87
3, 54334, Note_off_c, 1, 71, 64
3, 54335, Note_on_c, 1, 73, 76
3, 54449, Note_on_c, 1, 74, 68
3, 54457, Note_off_c, 1, 73, 64
3, 54522, Note_off_c, 1, 74, 64
3, 54551, Note_on_c, 1, 71, 63
3, 54674, Note_off_c, 1, 71, 64
3, 54710, Note_on_c, 1, 73, 80
3, 54867, Note_off_c, 1, 73, 64
3, 54934, Note_on_c, 1, 78, 76
3, 55024, Note_off_c, 1, 78, 64
3, 55042, Note_on_c, 1, 77, 78
3, 55139, Note_off_c, 1, 77, 64
3, 55179, Note_on_c, 1, 78, 87
3, 55270, Note_off_c, 1, 78, 64
3, 55427, Note_on_c, 1, 73, 82
3, 55753, Note_off_c, 1, 73, 64
3, 55779, Note_on_c, 1, 71, 78
3, 55874, Note_on_c, 1, 70, 63
3, 55881, Note_off_c, 1, 71, 64
3, 55987, Note_on_c, 1, 68, 80
3, 56016, Note_off_c, 1, 70, 64
3, 56080, Note_off_c, 1, 68, 64
3, 56129, Note_on_c, 1, 66, 66
3, 56250, Note_off_c, 1, 66, 64
3, 56372, Note_on_c, 1, 73, 68
3, 56729, Note_off_c, 1, 73, 64
3, 56857, Note_on_c, 1, 66, 70
3, 56937, Note_off_c, 1, 66, 64
3, 57098, Note_on_c, 1, 71, 87
3, 57174, Note_off_c, 1, 71, 64
3, 57331, Note_on_c, 1, 62, 78
3, 57415, Note_off_c, 1, 62, 64
3, 57576, Note_on_c, 1, 69, 80
3, 57649, Note_off_c, 1, 69, 64
3, 57829, Note_on_c, 1, 62, 80
3, 57895, Note_off_c, 1, 62, 64
3, 58076, Note_on_c, 1, 74, 85
3, 58163, Note_off_c, 1, 74, 64
3, 58302, Note_on_c, 1, 71, 78
3, 58398, Note_off_c, 1, 71, 64
3, 58548, Note_on_c, 1, 76, 89
3, 58617, Note_off_c, 1, 76, 64
3, 58779, Note_on_c, 1, 69, 72
3, 58865, Note_off_c, 1, 69, 64
3, 59029, Note_on_c, 1, 76, 91
3, 59111, Note_off_c, 1, 76, 64
3, 59259, Note_on_c, 1, 73, 63
3, 59358, Note_off_c, 1, 73, 64
3, 59504, Note_on_c, 1, 71, 80
3, 59582, Note_off_c, 1, 71, 64
3, 59748, Note_on_c, 1, 64, 66
3, 59823, Note_off_c, 1, 64, 64
3, 60005, Note_on_c, 1, 76, 82
3, 60087, Note_off_c, 1, 76, 64
3, 60231, Note_on_c, 1, 73, 68
3, 60317, Note_off_c, 1, 73, 64
3, 60470, Note_on_c, 1, 78, 95
3, 60561, Note_off_c, 1, 78, 64
3, 60707, Note_on_c, 1, 66, 66
3, 60773, Note_off_c, 1, 66, 64
3, 60954, Note_on_c, 1, 71, 74
3, 61030, Note_off_c, 1, 71, 64
3, 61185, Note_on_c, 1, 74, 82
3, 61512, Note_off_c, 1, 74, 64
3, 61552, Note_on_c, 1, 73, 64
3, 61654, Note_off_c, 1, 73, 64
3, 61665, Note_on_c, 1, 74, 72
3, 61749, Note_off_c, 1, 74, 64
3, 61769, Note_on_c, 1, 71, 63
3, 61847, Note_off_c, 1, 71, 64
3, 61895, Note_on_c, 1, 73, 82
3, 62013, Note_on_c, 1, 74, 82
3, 62043, Note_off_c, 1, 73, 64
3, 62110, Note_off_c, 1, 74, 64
3, 62137, Note_on_c, 1, 76, 78
3, 62225, Note_off_c, 1, 76, 64
3, 62258, Note_on_c, 1, 73, 57
3, 62340, Note_off_c, 1, 73, 64
3, 62395, Note_on_c, 1, 74, 82
3, 62925, Note_off_c, 1, 74, 64
3, 62955, Note_on_c, 1, 73, 68
3, 63053, Note_off_c, 1, 73, 64
3, 63080, Note_on_c, 1, 74, 80
3, 63173, Note_off_c, 1, 74, 64
3, 63203, Note_on_c, 1, 76, 68
3, 63266, Note_off_c, 1, 76, 64
3, 63325, Note_on_c, 1, 74, 74
3, 63448, Note_off_c, 1, 74, 64
3, 63451, Note_on_c, 1, 73, 63
3, 63546, Note_off_c, 1, 73, 64
3, 63575, Note_on_c, 1, 71, 64
3, 63680, Note_off_c, 1, 71, 64
3, 63690, Note_on_c, 1, 74, 74
3, 63771, Note_off_c, 1, 74, 64
3, 63814, Note_on_c, 1, 73, 91
3, 63925, Note_on_c, 1, 71, 70
3, 63946, Note_off_c, 1, 73, 64
3, 64011, Note_off_c, 1, 71, 64
3, 64055, Note_on_c, 1, 70, 66
3, 64160, Note_on_c, 1, 73, 64
3, 64166, Note_off_c, 1, 70, 64
3, 64264, Note_off_c, 1, 73, 64
3, 64293, Note_on_c, 1, 71, 85
3, 64405, Note_off_c, 1, 71, 64
3, 64540, Note_on_c, 1, 66, 66
3, 64638, Note_off_c, 1, 66, 64
3, 64773, Note_on_c, 1, 71, 80
3, 65397, Note_off_c, 1, 71, 64
3, 65483, Note_on_c, 1, 63, 57
3, 65594, Note_off_c, 1, 63, 64
3, 65734, Note_on_c, 1, 66, 72
3, 65810, Note_off_c, 1, 66, 64
3, 65975, Note_on_c, 1, 71, 80
3, 66345, Note_off_c, 1, 71, 64
3, 66451, Note_on_c, 1, 73, 80
3, 66541, Note_off_c, 1, 73, 64
3, 66561, Note_on_c, 1, 74, 85
3, 66657, Note_off_c, 1, 74, 64
3, 66688, Note_on_c, 1, 76, 87
3, 66772, Note_off_c, 1, 76, 64
3, 66931, Note_on_c, 1, 71, 78
3, 67007, Note_off_c, 1, 71, 64
3, 67175, Note_on_c, 1, 76, 85
3, 67257, Note_off_c, 1, 76, 64
3, 67414, Note_on_c, 1, 74, 78
3, 67504, Note_off_c, 1, 74, 64
3, 67653, Note_on_c, 1, 76, 76
3, 67739, Note_off_c, 1, 76, 64
3, 67894, Note_on_c, 1, 73, 59
3, 67978, Note_off_c, 1, 73, 64
3, 68138, Note_on_c, 1, 74, 87
3, 68228, Note_off_c, 1, 74, 64
3, 68383, Note_on_c, 1, 73, 63
3, 68463, Note_off_c, 1, 73, 64
3, 68622, Note_on_c, 1, 74, 85
3, 68706, Note_off_c, 1, 74, 64
3, 68862, Note_on_c, 1, 69, 66
3, 68939, Note_off_c, 1, 69, 64
3, 69103, Note_on_c, 1, 66, 72
3, 69202, Note_off_c, 1, 66, 64
3, 69335, Note_on_c, 1, 76, 80
3, 69420, Note_off_c, 1, 76, 64
3, 69581, Note_on_c, 1, 78, 91
3, 69674, Note_off_c, 1, 78, 64
3, 69815, Note_on_c, 1, 75, 78
3, 69906, Note_off_c, 1, 75, 64
3, 70061, Note_on_c, 1, 76, 85
3, 70163, Note_off_c, 1, 76, 64
3, 70300, Note_on_c, 1, 71, 78
3, 70396, Note_off_c, 1, 71, 64
3, 70544, Note_on_c, 1, 73, 66
3, 70635, Note_off_c, 1, 73, 64
3, 70778, Note_on_c, 1, 70, 70
3, 70878, Note_off_c, 1, 70, 64
3, 71011, Note_on_c, 1, 71, 85
3, 71270, Note_off_c, 1, 71, 64
3, 71352, Note_on_c, 1, 70, 78
3, 71422, Note_off_c, 1, 70, 64
3, 71473, Note_on_c, 1, 71, 76
3, 71527, Note_on_c, 1, 70, 87
3, 71546, Note_off_c, 1, 71, 64
3, 71578, Note_on_c, 1, 71, 70
3, 71584, Note_off_c, 1, 70, 64
3, 71640, Note_on_c, 1, 70, 61
3, 71666, Note_off_c, 1, 71, 64
3, 71752, Note_off_c, 1, 70, 64
3, 71832, Note_on_c, 1, 66, 63
3, 71898, Note_off_c, 1, 66, 64
3, 71958, Note_on_c, 1, 66, 66
3, 72478, Note_off_c, 1, 66, 64
3, 76523, Note_on_c, 1, 59, 58
3, 76731, Note_off_c, 1, 59, 64
3, 76784, Note_on_c, 1, 66, 59
3, 80188, Note_off_c, 1, 66, 64
3, 110863, Note_on_c, 1, 69, 57
3, 111230, Note_off_c, 1, 69, 64
3, 111350, Note_on_c, 1, 69, 57
3, 111903, Note_off_c, 1, 69, 64
3, 112793, Note_on_c, 1, 69, 47
3, 113129, Note_off_c, 1, 69, 64
3, 113275, Note_on_c, 1, 69, 49
3, 113809, Note_off_c, 1, 69, 64
3, 114719, Note_on_c, 1, 74, 58
3, 115053, Note_off_c, 1, 74, 64
3, 115186, Note_on_c, 1, 74, 57
3, 115686, Note_off_c, 1, 74, 64
3, 116614, Note_on_c, 1, 76, 57
3, 116972, Note_off_c, 1, 76, 64
3, 117067, Note_on_c, 1, 78, 57
3, 117588, Note_off_c, 1, 78, 64
3, 117809, Note_on_c, 1, 71, 80
3, 117908, Note_off_c, 1, 71, 64
3, 118059, Note_on_c, 1, 76, 82
3, 119595, Note_off_c, 1, 76, 64
3, 119739, Note_on_c, 1, 71, 82
3, 119832, Note_on_c, 1, 73, 78
3, 119854, Note_off_c, 1, 71, 64
3, 119943, Note_off_c, 1, 73, 64
3, 119963, Note_on_c, 1, 75, 85
3, 120062, Note_off_c, 1, 75, 64
3, 120211, Note_on_c, 1, 76, 87
3, 120299, Note_off_c, 1, 76, 64
3, 120467, Note_on_c, 1, 69, 82
3, 120567, Note_off_c, 1, 69, 64
3, 120689, Note_on_c, 1, 71, 85
3, 120775, Note_off_c, 1, 71, 64
3, 120965, Note_on_c, 1, 64, 87
3, 121154, Note_off_c, 1, 64, 64
3, 121205, Note_on_c, 1, 76, 80
3, 121297, Note_on_c, 1, 75, 78
3, 121300, Note_off_c, 1, 76, 64
3, 121380, Note_off_c, 1, 75, 64
3, 121417, Note_on_c, 1, 76, 68
3, 121528, Note_off_c, 1, 76, 64
3, 121669, Note_on_c, 1, 76, 80
3, 121756, Note_off_c, 1, 76, 64
3, 121758, Note_on_c, 1, 78, 68
3, 121833, Note_off_c, 1, 78, 64
3, 121880, Note_on_c, 1, 79, 93
3, 121994, Note_off_c, 1, 79, 64
3, 122137, Note_on_c, 1, 78, 85
3, 122535, Note_off_c, 1, 78, 64
3, 122616, Note_on_c, 1, 76, 74
3, 122762, Note_off_c, 1, 76, 64
3, 122851, Note_on_c, 1, 78, 91
3, 122951, Note_on_c, 1, 76, 80
3, 122956, Note_off_c, 1, 78, 64
3, 123060, Note_off_c, 1, 76, 64
3, 123068, Note_on_c, 1, 74, 80
3, 123153, Note_off_c, 1, 74, 64
3, 123179, Note_on_c, 1, 76, 87
3, 123260, Note_off_c, 1, 76, 64
3, 123314, Note_on_c, 1, 78, 78
3, 123411, Note_off_c, 1, 78, 64
3, 123555, Note_on_c, 1, 71, 80
3, 123642, Note_off_c, 1, 71, 64
3, 123805, Note_on_c, 1, 76, 89
3, 123883, Note_off_c, 1, 76, 64
3, 124051, Note_on_c, 1, 74, 87
3, 124414, Note_off_c, 1, 74, 64
3, 124541, Note_on_c, 1, 73, 74
3, 124671, Note_off_c, 1, 73, 64
3, 124786, Note_on_c, 1, 74, 91
3, 124895, Note_on_c, 1, 76, 82
3, 124917, Note_off_c, 1, 74, 64
3, 125007, Note_off_c, 1, 76, 64
3, 125010, Note_on_c, 1, 74, 74
3, 125111, Note_off_c, 1, 74, 64
3, 125125, Note_on_c, 1, 73, 57
3, 125225, Note_off_c, 1, 73, 64
3, 125251, Note_on_c, 1, 71, 68
3, 125360, Note_on_c, 1, 73, 62
3, 125366, Note_off_c, 1, 71, 64
3, 125463, Note_off_c, 1, 73, 64
3, 125473, Note_on_c, 1, 74, 76
3, 125587, Note_off_c, 1, 74, 64
3, 125592, Note_on_c, 1, 76, 68
3, 125676, Note_off_c, 1, 76, 64
3, 125727, Note_on_c, 1, 78, 98
3, 125847, Note_on_c, 1, 79, 68
3, 125866, Note_off_c, 1, 78, 64
3, 125946, Note_off_c, 1, 79, 64
3, 125968, Note_on_c, 1, 78, 64
3, 126074, Note_off_c, 1, 78, 64
3, 126081, Note_on_c, 1, 76, 60
3, 126178, Note_off_c, 1, 76, 64
3, 126210, Note_on_c, 1, 75, 80
3, 126333, Note_on_c, 1, 76, 76
3, 126340, Note_off_c, 1, 75, 64
3, 126457, Note_off_c, 1, 76, 64
3, 126466, Note_on_c, 1, 78, 57
3, 126566, Note_on_c, 1, 75, 60
3, 126586, Note_off_c, 1, 78, 64
3, 126648, Note_off_c, 1, 75, 64
3, 126701, Note_on_c, 1, 76, 85
3, 126825, Note_on_c, 1, 78, 80
3, 126841, Note_off_c, 1, 76, 64
3, 126924, Note_off_c, 1, 78, 64
3, 126949, Note_on_c, 1, 79, 70
3, 127038, Note_off_c, 1, 79, 64
3, 127049, Note_on_c, 1, 76, 59
3, 127141, Note_off_c, 1, 76, 64
3, 127184, Note_on_c, 1, 78, 89
3, 127288, Note_on_c, 1, 79, 78
3, 127308, Note_off_c, 1, 78, 64
3, 127381, Note_off_c, 1, 79, 64
3, 127412, Note_on_c, 1, 81, 70
3, 127493, Note_off_c, 1, 81, 64
3, 127513, Note_on_c, 1, 78, 70
3, 127593, Note_off_c, 1, 78, 64
3, 127648, Note_on_c, 1, 79, 85
3, 128204, Note_off_c, 1, 79, 64
3, 128257, Note_on_c, 1, 78, 82
3, 128346, Note_off_c, 1, 78, 64
3, 128366, Note_on_c, 1, 79, 80
3, 128465, Note_off_c, 1, 79, 64
3, 128487, Note_on_c, 1, 81, 74
3, 128552, Note_off_c, 1, 81, 64
3, 128618, Note_on_c, 1, 79, 82
3, 128733, Note_on_c, 1, 78, 82
3, 128748, Note_off_c, 1, 79, 64
3, 128824, Note_off_c, 1, 78, 64
3, 128846, Note_on_c, 1, 76, 72
3, 128921, Note_off_c, 1, 76, 64
3, 128956, Note_on_c, 1, 79, 72
3, 129030, Note_off_c, 1, 79, 64
3, 129085, Note_on_c, 1, 78, 102
3, 129193, Note_on_c, 1, 76, 76
3, 129208, Note_off_c, 1, 78, 64
3, 129300, Note_off_c, 1, 76, 64
3, 129315, Note_on_c, 1, 75, 66
3, 129391, Note_off_c, 1, 75, 64
3, 129421, Note_on_c, 1, 78, 74
3, 129521, Note_off_c, 1, 78, 64
3, 129567, Note_on_c, 1, 76, 85
3, 129681, Note_off_c, 1, 76, 64
3, 129805, Note_on_c, 1, 71, 82
3, 129891, Note_off_c, 1, 71, 64
3, 130061, Note_on_c, 1, 76, 87
3, 130692, Note_off_c, 1, 76, 64
3, 130789, Note_on_c, 1, 78, 85
3, 130867, Note_off_c, 1, 78, 64
3, 130891, Note_on_c, 1, 74, 82
3, 130982, Note_off_c, 1, 74, 64
3, 131024, Note_on_c, 1, 79, 89
3, 131106, Note_off_c, 1, 79, 64
3, 131261, Note_on_c, 1, 70, 87
3, 131651, Note_off_c, 1, 70, 64
3, 131739, Note_on_c, 1, 71, 85
3, 131848, Note_on_c, 1, 73, 72
3, 131850, Note_off_c, 1, 71, 64
3, 131945, Note_off_c, 1, 73, 64
3, 131976, Note_on_c, 1, 74, 78
3, 132087, Note_on_c, 1, 76, 80
3, 132098, Note_off_c, 1, 74, 64
3, 132189, Note_off_c, 1, 76, 64
3, 132215, Note_on_c, 1, 78, 87
3, 132310, Note_off_c, 1, 78, 64
3, 132458, Note_on_c, 1, 67, 85
3, 132541, Note_off_c, 1, 67, 64
3, 132693, Note_on_c, 1, 66, 93
3, 133094, Note_off_c, 1, 66, 64
3, 133191, Note_on_c, 1, 64, 82
3, 133308, Note_off_c, 1, 64, 64
3, 133430, Note_on_c, 1, 66, 102
3, 133525, Note_on_c, 1, 67, 85
3, 133541, Note_off_c, 1, 66, 64
3, 133616, Note_off_c, 1, 67, 64
3, 133643, Note_on_c, 1, 66, 89
3, 133753, Note_off_c, 1, 66, 64
3, 133754, Note_on_c, 1, 64, 70
3, 133851, Note_off_c, 1, 64, 64
3, 133895, Note_on_c, 1, 62, 82
3, 134085, Note_off_c, 1, 62, 64
3, 137977, Note_on_c, 1, 59, 64
3, 138138, Note_off_c, 1, 59, 64
3, 138236, Note_on_c, 1, 66, 55
3, 141204, Note_off_c, 1, 66, 64
3, 141222, Note_on_c, 1, 68, 62
3, 141333, Note_on_c, 1, 70, 62
3, 141353, Note_off_c, 1, 68, 64
3, 141435, Note_on_c, 1, 71, 74
3, 141439, Note_off_c, 1, 70, 64
3, 141539, Note_off_c, 1, 71, 64
3, 141574, Note_on_c, 1, 73, 78
3, 141669, Note_off_c, 1, 73, 64
3, 141818, Note_on_c, 1, 66, 78
3, 142196, Note_off_c, 1, 66, 64
3, 142216, Note_on_c, 1, 64, 78
3, 142327, Note_on_c, 1, 62, 70
3, 142332, Note_off_c, 1, 64, 64
3, 142429, Note_off_c, 1, 62, 64
3, 142435, Note_on_c, 1, 64, 78
3, 142521, Note_off_c, 1, 64, 64
3, 142557, Note_on_c, 1, 66, 82
3, 142639, Note_off_c, 1, 66, 64
3, 142778, Note_on_c, 1, 71, 72
3, 142851, Note_off_c, 1, 71, 64
3, 143013, Note_on_c, 1, 69, 63
3, 143113, Note_off_c, 1, 69, 64
3, 143263, Note_on_c, 1, 73, 64
3, 143349, Note_off_c, 1, 73, 64
3, 143511, Note_on_c, 1, 78, 72
3, 143584, Note_off_c, 1, 78, 64
3, 143748, Note_on_c, 1, 73, 70
3, 143872, Note_off_c, 1, 73, 64
3, 143980, Note_on_c, 1, 71, 80
3, 144064, Note_off_c, 1, 71, 64
3, 144224, Note_on_c, 1, 75, 70
3, 144303, Note_off_c, 1, 75, 64
3, 144469, Note_on_c, 1, 76, 78
3, 144542, Note_off_c, 1, 76, 64
3, 144697, Note_on_c, 1, 69, 80
3, 144779, Note_off_c, 1, 69, 64
3, 144945, Note_on_c, 1, 71, 78
3, 145027, Note_off_c, 1, 71, 64
3, 145180, Note_on_c, 1, 76, 85
3, 145262, Note_off_c, 1, 76, 64
3, 145421, Note_on_c, 1, 71, 78
3, 145517, Note_off_c, 1, 71, 64
3, 145652, Note_on_c, 1, 67, 72
3, 145734, Note_off_c, 1, 67, 64
3, 145897, Note_on_c, 1, 64, 68
3, 145996, Note_off_c, 1, 64, 64
3, 146130, Note_on_c, 1, 73, 64
3, 146211, Note_off_c, 1, 73, 64
3, 146369, Note_on_c, 1, 74, 82
3, 146459, Note_off_c, 1, 74, 64
3, 146608, Note_on_c, 1, 67, 74
3, 146694, Note_off_c, 1, 67, 64
3, 146865, Note_on_c, 1, 69, 80
3, 146957, Note_off_c, 1, 69, 64
3, 147086, Note_on_c, 1, 67, 66
3, 147186, Note_off_c, 1, 67, 64
3, 147340, Note_on_c, 1, 66, 64
3, 147436, Note_off_c, 1, 66, 64
3, 147588, Note_on_c, 1, 62, 64
3, 147679, Note_off_c, 1, 62, 64
3, 147828, Note_on_c, 1, 61, 59
3, 147932, Note_off_c, 1, 61, 64
3, 148071, Note_on_c, 1, 64, 66
3, 148160, Note_off_c, 1, 64, 64
3, 148314, Note_on_c, 1, 57, 64
3, 148419, Note_off_c, 1, 57, 64
3, 148554, Note_on_c, 1, 62, 80
3, 148636, Note_off_c, 1, 62, 64
3, 148784, Note_on_c, 1, 61, 64
3, 148879, Note_off_c, 1, 61, 64
3, 149027, Note_on_c, 1, 64, 76
3, 149113, Note_off_c, 1, 64, 64
3, 149257, Note_on_c, 1, 57, 66
3, 149342, Note_off_c, 1, 57, 64
3, 149486, Note_on_c, 1, 67, 70
3, 149576, Note_off_c, 1, 67, 64
3, 149733, Note_on_c, 1, 66, 64
3, 149817, Note_off_c, 1, 66, 64
3, 149983, Note_on_c, 1, 74, 80
3, 150057, Note_off_c, 1, 74, 64
3, 150217, Note_on_c, 1, 73, 63
3, 150318, Note_off_c, 1, 73, 64
3, 150457, Note_on_c, 1, 74, 85
3, 150530, Note_off_c, 1, 74, 64
3, 150699, Note_on_c, 1, 76, 82
3, 150771, Note_off_c, 1, 76, 64
3, 150942, Note_on_c, 1, 69, 85
3, 151259, Note_off_c, 1, 69, 64
3, 179768, Note_on_c, 1, 76, 85
3, 180124, Note_off_c, 1, 76, 64
3, 180233, Note_on_c, 1, 75, 87
3, 180326, Note_off_c, 1, 75, 64
3, 180469, Note_on_c, 1, 76, 80
3, 180547, Note_off_c, 1, 76, 64
3, 180959, Note_on_c, 1, 76, 78
3, 181045, Note_off_c, 1, 76, 64
3, 181426, Note_on_c, 1, 76, 80
3, 181508, Note_off_c, 1, 76, 64
3, 182133, Note_on_c, 1, 76, 80
3, 182212, Note_off_c, 1, 76, 64
3, 182371, Note_on_c, 1, 74, 78
3, 182452, Note_off_c, 1, 74, 64
3, 182852, Note_on_c, 1, 74, 78
3, 182945, Note_off_c, 1, 74, 64
3, 183327, Note_on_c, 1, 74, 78
3, 183421, Note_off_c, 1, 74, 64
3, 184049, Note_on_c, 1, 74, 82
3, 184140, Note_off_c, 1, 74, 64
3, 184293, Note_on_c, 1, 70, 74
3, 184374, Note_off_c, 1, 70, 64
3, 184772, Note_on_c, 1, 73, 66
3, 184873, Note_off_c, 1, 73, 64
3, 185256, Note_on_c, 1, 73, 85
3, 185361, Note_off_c, 1, 73, 64
3, 185981, Note_on_c, 1, 73, 62
3, 186085, Note_off_c, 1, 73, 64
3, 186225, Note_on_c, 1, 71, 78
3, 186323, Note_off_c, 1, 71, 64
3, 186466, Note_on_c, 1, 66, 70
3, 186548, Note_off_c, 1, 66, 64
3, 186703, Note_on_c, 1, 66, 85
3, 186785, Note_off_c, 1, 66, 64
3, 186936, Note_on_c, 1, 71, 82
3, 187276, Note_off_c, 1, 71, 64
3, 187287, Note_on_c, 1, 73, 72
3, 187391, Note_off_c, 1, 73, 64
3, 187401, Note_on_c, 1, 74, 70
3, 187484, Note_off_c, 1, 74, 64
3, 187505, Note_on_c, 1, 71, 68
3, 187593, Note_off_c, 1, 71, 64
3, 187653, Note_on_c, 1, 73, 72
3, 187769, Note_on_c, 1, 74, 70
3, 187788, Note_off_c, 1, 73, 64
3, 187863, Note_off_c, 1, 74, 64
3, 187901, Note_on_c, 1, 76, 61
3, 187961, Note_off_c, 1, 76, 64
3, 188005, Note_on_c, 1, 73, 57
3, 188084, Note_off_c, 1, 73, 64
3, 188149, Note_on_c, 1, 74, 87
3, 188700, Note_off_c, 1, 74, 64
3, 188735, Note_on_c, 1, 73, 68
3, 188826, Note_off_c, 1, 73, 64
3, 188842, Note_on_c, 1, 74, 78
3, 188939, Note_off_c, 1, 74, 64
3, 188961, Note_on_c, 1, 76, 70
3, 189030, Note_off_c, 1, 76, 64
3, 189089, Note_on_c, 1, 74, 87
3, 189189, Note_off_c, 1, 74, 64
3, 189202, Note_on_c, 1, 73, 64
3, 189295, Note_off_c, 1, 73, 64
3, 189320, Note_on_c, 1, 71, 66
3, 189401, Note_off_c, 1, 71, 64
3, 189433, Note_on_c, 1, 74, 72
3, 189512, Note_off_c, 1, 74, 64
3, 189568, Note_on_c, 1, 73, 89
3, 189678, Note_on_c, 1, 71, 70
3, 189692, Note_off_c, 1, 73, 64
3, 189764, Note_off_c, 1, 71, 64
3, 189795, Note_on_c, 1, 70, 68
3, 189878, Note_off_c, 1, 70, 64
3, 189909, Note_on_c, 1, 73, 57
3, 189990, Note_off_c, 1, 73, 64
3, 190043, Note_on_c, 1, 71, 82
3, 190150, Note_off_c, 1, 71, 64
3, 190287, Note_on_c, 1, 66, 64
3, 190375, Note_off_c, 1, 66, 64
3, 190531, Note_on_c, 1, 71, 85
3, 191082, Note_off_c, 1, 71, 64
3, 191248, Note_on_c, 1, 63, 78
3, 191339, Note_off_c, 1, 63, 64
3, 191493, Note_on_c, 1, 66, 80
3, 191582, Note_off_c, 1, 66, 64
3, 191732, Note_on_c, 1, 71, 82
3, 192127, Note_off_c, 1, 71, 64
3, 192217, Note_on_c, 1, 73, 89
3, 192317, Note_off_c, 1, 73, 64
3, 192326, Note_on_c, 1, 74, 82
3, 192403, Note_off_c, 1, 74, 64
3, 192454, Note_on_c, 1, 76, 89
3, 192538, Note_off_c, 1, 76, 64
3, 192695, Note_on_c, 1, 71, 80
3, 192782, Note_off_c, 1, 71, 64
3, 192935, Note_on_c, 1, 76, 87
3, 193022, Note_off_c, 1, 76, 64
3, 193174, Note_on_c, 1, 74, 82
3, 193262, Note_off_c, 1, 74, 64
3, 193412, Note_on_c, 1, 76, 78
3, 193501, Note_off_c, 1, 76, 64
3, 193650, Note_on_c, 1, 73, 60
3, 193755, Note_off_c, 1, 73, 64
3, 193888, Note_on_c, 1, 74, 82
3, 193990, Note_off_c, 1, 74, 64
3, 194132, Note_on_c, 1, 73, 63
3, 194231, Note_off_c, 1, 73, 64
3, 194369, Note_on_c, 1, 74, 82
3, 194469, Note_off_c, 1, 74, 64
3, 194610, Note_on_c, 1, 69, 72
3, 194694, Note_off_c, 1, 69, 64
3, 194860, Note_on_c, 1, 66, 64
3, 194980, Note_off_c, 1, 66, 64
3, 195090, Note_on_c, 1, 76, 82
3, 195177, Note_off_c, 1, 76, 64
3, 195327, Note_on_c, 1, 78, 76
3, 195433, Note_off_c, 1, 78, 64
3, 195557, Note_on_c, 1, 75, 74
3, 195657, Note_off_c, 1, 75, 64
3, 195808, Note_on_c, 1, 76, 89
3, 195905, Note_off_c, 1, 76, 64
3, 196044, Note_on_c, 1, 71, 82
3, 196151, Note_off_c, 1, 71, 64
3, 196288, Note_on_c, 1, 73, 74
3, 196385, Note_off_c, 1, 73, 64
3, 196522, Note_on_c, 1, 70, 80
3, 196607, Note_off_c, 1, 70, 64
3, 196762, Note_on_c, 1, 71, 85
3, 196983, Note_off_c, 1, 71, 64
3, 197140, Note_on_c, 1, 67, 80
3, 197185, Note_off_c, 1, 67, 64
3, 197233, Note_on_c, 1, 67, 80
3, 197293, Note_on_c, 1, 66, 68
3, 197300, Note_off_c, 1, 67, 64
3, 197337, Note_on_c, 1, 67, 68
3, 197359, Note_off_c, 1, 66, 64
3, 197384, Note_on_c, 1, 66, 72
3, 197396, Note_off_c, 1, 67, 64
3, 197454, Note_off_c, 1, 66, 64
3, 197501, Note_on_c, 1, 73, 98
3, 197588, Note_off_c, 1, 73, 64
3, 197740, Note_on_c, 1, 78, 89
3, 197815, Note_off_c, 1, 78, 64
3, 197982, Note_on_c, 1, 76, 87
3, 198320, Note_off_c, 1, 76, 64
3, 198462, Note_on_c, 1, 75, 68
3, 198575, Note_off_c, 1, 75, 64
3, 198688, Note_on_c, 1, 76, 85
3, 198794, Note_on_c, 1, 78, 74
3, 198803, Note_off_c, 1, 76, 64
3, 198907, Note_off_c, 1, 78, 64
3, 198924, Note_on_c, 1, 79, 76
3, 199037, Note_on_c, 1, 78, 82
3, 199077, Note_off_c, 1, 79, 64
3, 199128, Note_off_c, 1, 78, 64
3, 199174, Note_on_c, 1, 76, 78
3, 199288, Note_on_c, 1, 75, 64
3, 199298, Note_off_c, 1, 76, 64
3, 199369, Note_off_c, 1, 75, 64
3, 199411, Note_on_c, 1, 76, 66
3, 199513, Note_off_c, 1, 76, 64
3, 199535, Note_on_c, 1, 73, 57
3, 199617, Note_off_c, 1, 73, 64
3, 199662, Note_on_c, 1, 75, 76
3, 199767, Note_off_c, 1, 75, 64
3, 199774, Note_on_c, 1, 76, 74
3, 199887, Note_off_c, 1, 76, 64
3, 199892, Note_on_c, 1, 78, 63
3, 199987, Note_off_c, 1, 78, 64
3, 200000, Note_on_c, 1, 76, 80
3, 200080, Note_off_c, 1, 76, 64
3, 200129, Note_on_c, 1, 75, 95
3, 200228, Note_off_c, 1, 75, 64
3, 200231, Note_on_c, 1, 76, 64
3, 200337, Note_off_c, 1, 76, 64
3, 200354, Note_on_c, 1, 75, 53
3, 200460, Note_off_c, 1, 75, 64
3, 200467, Note_on_c, 1, 73, 57
3, 200567, Note_off_c, 1, 73, 64
3, 200609, Note_on_c, 1, 71, 70
3, 203622, Note_off_c, 1, 71, 64
3, 203735, Note_on_c, 1, 71, 87
3, 203821, Note_off_c, 1, 71, 64
3, 203971, Note_on_c, 1, 76, 87
3, 204527, Note_off_c, 1, 76, 64
3, 204580, Note_on_c, 1, 78, 62
3, 204669, Note_off_c, 1, 78, 64
3, 204695, Note_on_c, 1, 76, 68
3, 204801, Note_off_c, 1, 76, 64
3, 204802, Note_on_c, 1, 74, 76
3, 204916, Note_off_c, 1, 74, 64
3, 204936, Note_on_c, 1, 73, 78
3, 205043, Note_on_c, 1, 74, 82
3, 205052, Note_off_c, 1, 73, 64
3, 205147, Note_off_c, 1, 74, 64
3, 205176, Note_on_c, 1, 76, 76
3, 205255, Note_off_c, 1, 76, 64
3, 205297, Note_on_c, 1, 73, 66
3, 205382, Note_off_c, 1, 73, 64
3, 205435, Note_on_c, 1, 69, 76
3, 206003, Note_off_c, 1, 69, 64
3, 206136, Note_on_c, 1, 78, 85
3, 206260, Note_off_c, 1, 78, 64
3, 206373, Note_on_c, 1, 76, 78
3, 206473, Note_on_c, 1, 74, 70
3, 206504, Note_off_c, 1, 76, 64
3, 206552, Note_off_c, 1, 74, 64
3, 206606, Note_on_c, 1, 73, 82
3, 206712, Note_on_c, 1, 71, 70
3, 206730, Note_off_c, 1, 73, 64
3, 206805, Note_off_c, 1, 71, 64
3, 206845, Note_on_c, 1, 70, 82
3, 206946, Note_on_c, 1, 71, 80
3, 206962, Note_off_c, 1, 70, 64
3, 207019, Note_off_c, 1, 71, 64
3, 207071, Note_on_c, 1, 73, 72
3, 207166, Note_off_c, 1, 73, 64
3, 207188, Note_on_c, 1, 70, 85
3, 207253, Note_off_c, 1, 70, 64
3, 207334, Note_on_c, 1, 66, 95
3, 207493, Note_off_c, 1, 66, 64
3, 207586, Note_on_c, 1, 64, 82
3, 207692, Note_on_c, 1, 66, 87
3, 207695, Note_off_c, 1, 64, 64
3, 207772, Note_off_c, 1, 66, 64
3, 207810, Note_on_c, 1, 67, 85
3, 207927, Note_off_c, 1, 67, 64
3, 208066, Note_on_c, 1, 76, 95
3, 208467, Note_off_c, 1, 76, 64
3, 208542, Note_on_c, 1, 74, 87
3, 208631, Note_off_c, 1, 74, 64
3, 208644, Note_on_c, 1, 73, 85
3, 208737, Note_off_c, 1, 73, 64
3, 208775, Note_on_c, 1, 71, 87
3, 208899, Note_off_c, 1, 71, 64
3, 209018, Note_on_c, 1, 70, 91
3, 209171, Note_off_c, 1, 70, 64
3, 226080, Note_on_c, 1, 71, 82
3, 226162, Note_off_c, 1, 71, 64
3, 226312, Note_on_c, 1, 74, 87
3, 226397, Note_off_c, 1, 74, 64
3, 226554, Note_on_c, 1, 73, 70
3, 226930, Note_off_c, 1, 73, 64
3, 227036, Note_on_c, 1, 71, 66
3, 227203, Note_off_c, 1, 71, 64
3, 227278, Note_on_c, 1, 73, 80
3, 227379, Note_off_c, 1, 73, 64
3, 227379, Note_on_c, 1, 71, 74
3, 227485, Note_off_c, 1, 71, 64
3, 227490, Note_on_c, 1, 69, 70
3, 227588, Note_off_c, 1, 69, 64
3, 227599, Note_on_c, 1, 71, 74
3, 227701, Note_off_c, 1, 71, 64
3, 227740, Note_on_c, 1, 73, 59
3, 227849, Note_off_c, 1, 73, 64
3, 227980, Note_on_c, 1, 66, 72
3, 228073, Note_off_c, 1, 66, 64
3, 228218, Note_on_c, 1, 71, 82
3, 228296, Note_off_c, 1, 71, 64
3, 228460, Note_on_c, 1, 69, 85
3, 228803, Note_off_c, 1, 69, 64
3, 228934, Note_on_c, 1, 68, 63
3, 229082, Note_off_c, 1, 68, 64
3, 229190, Note_on_c, 1, 69, 85
3, 229292, Note_on_c, 1, 71, 66
3, 229300, Note_off_c, 1, 69, 64
3, 229394, Note_off_c, 1, 71, 64
3, 229414, Note_on_c, 1, 69, 59
3, 229529, Note_on_c, 1, 68, 57
3, 229531, Note_off_c, 1, 69, 64
3, 229634, Note_off_c, 1, 68, 64
3, 229655, Note_on_c, 1, 66, 61
3, 229773, Note_on_c, 1, 68, 66
3, 229775, Note_off_c, 1, 66, 64
3, 229872, Note_off_c, 1, 68, 64
3, 229899, Note_on_c, 1, 69, 60
3, 230016, Note_on_c, 1, 71, 74
3, 230018, Note_off_c, 1, 69, 64
3, 230089, Note_off_c, 1, 71, 64
3, 230138, Note_on_c, 1, 73, 95
3, 230255, Note_on_c, 1, 74, 72
3, 230274, Note_off_c, 1, 73, 64
3, 230350, Note_off_c, 1, 74, 64
3, 230375, Note_on_c, 1, 73, 54
3, 230479, Note_off_c, 1, 73, 64
3, 230485, Note_on_c, 1, 71, 60
3, 230583, Note_off_c, 1, 71, 64
3, 230609, Note_on_c, 1, 70, 66
3, 230726, Note_on_c, 1, 71, 64
3, 230727, Note_off_c, 1, 70, 64
3, 230833, Note_off_c, 1, 71, 64
3, 230853, Note_on_c, 1, 73, 57
3, 230965, Note_off_c, 1, 73, 64
3, 230965, Note_on_c, 1, 70, 60
3, 231047, Note_off_c, 1, 70, 64
3, 231096, Note_on_c, 1, 71, 85
3, 231220, Note_on_c, 1, 73, 66
3, 231229, Note_off_c, 1, 71, 64
3, 231322, Note_off_c, 1, 73, 64
3, 231335, Note_on_c, 1, 74, 66
3, 231422, Note_off_c, 1, 74, 64
3, 231426, Note_on_c, 1, 71, 68
3, 231517, Note_off_c, 1, 71, 64
3, 231561, Note_on_c, 1, 73, 78
3, 231674, Note_on_c, 1, 74, 68
3, 231701, Note_off_c, 1, 73, 64
3, 231782, Note_off_c, 1, 74, 64
3, 231802, Note_on_c, 1, 76, 58
3, 231895, Note_off_c, 1, 76, 64
3, 231911, Note_on_c, 1, 73, 57
3, 232005, Note_off_c, 1, 73, 64
3, 232053, Note_on_c, 1, 74, 82
3, 232621, Note_off_c, 1, 74, 64
3, 232650, Note_on_c, 1, 73, 66
3, 232750, Note_off_c, 1, 73, 64
3, 232759, Note_on_c, 1, 74, 70
3, 232875, Note_off_c, 1, 74, 64
3, 232882, Note_on_c, 1, 76, 64
3, 232967, Note_off_c, 1, 76, 64
3, 233018, Note_on_c, 1, 74, 91
3, 233131, Note_on_c, 1, 73, 61
3, 233144, Note_off_c, 1, 74, 64
3, 233235, Note_off_c, 1, 73, 64
3, 233252, Note_on_c, 1, 71, 57
3, 233339, Note_off_c, 1, 71, 64
3, 233367, Note_on_c, 1, 74, 64
3, 233442, Note_off_c, 1, 74, 64
3, 233487, Note_on_c, 1, 73, 98
3, 233600, Note_on_c, 1, 71, 62
3, 233602, Note_off_c, 1, 73, 64
3, 233693, Note_off_c, 1, 71, 64
3, 233721, Note_on_c, 1, 70, 60
3, 233814, Note_off_c, 1, 70, 64
3, 233819, Note_on_c, 1, 73, 58
3, 233910, Note_off_c, 1, 73, 64
3, 233944, Note_on_c, 1, 71, 87
3, 234045, Note_off_c, 1, 71, 64
3, 234198, Note_on_c, 1, 66, 62
3, 234288, Note_off_c, 1, 66, 64
3, 234450, Note_on_c, 1, 71, 72
3, 234532, Note_off_c, 1, 71, 64
3, 234685, Note_on_c, 1, 59, 80
3, 234789, Note_off_c, 1, 59, 64
3, 234930, Note_on_c, 1, 71, 72
3, 235008, Note_off_c, 1, 71, 64
3, 235180, Note_on_c, 1, 78, 74
3, 235262, Note_off_c, 1, 78, 64
3, 235435, Note_on_c, 1, 77, 82
3, 235525, Note_on_c, 1, 78, 80
3, 235530, Note_off_c, 1, 77, 64
3, 235607, Note_off_c, 1, 78, 64
3, 235651, Note_on_c, 1, 80, 100
3, 236064, Note_off_c, 1, 80, 64
3, 236137, Note_on_c, 1, 73, 64
3, 236245, Note_off_c, 1, 73, 64
3, 236393, Note_on_c, 1, 78, 91
3, 236940, Note_off_c, 1, 78, 64
3, 236993, Note_on_c, 1, 76, 80
3, 237093, Note_off_c, 1, 76, 64
3, 237104, Note_on_c, 1, 74, 78
3, 237210, Note_off_c, 1, 74, 64
3, 237214, Note_on_c, 1, 73, 68
3, 237310, Note_off_c, 1, 73, 64
3, 237341, Note_on_c, 1, 71, 87
3, 237454, Note_off_c, 1, 71, 64
3, 237455, Note_on_c, 1, 73, 76
3, 237569, Note_on_c, 1, 74, 68
3, 237577, Note_off_c, 1, 73, 64
3, 237642, Note_off_c, 1, 74, 64
3, 237671, Note_on_c, 1, 71, 63
3, 237794, Note_off_c, 1, 71, 64
3, 237830, Note_on_c, 1, 73, 80
3, 237987, Note_off_c, 1, 73, 64
3, 238054, Note_on_c, 1, 78, 76
3, 238144, Note_off_c, 1, 78, 64
3, 238162, Note_on_c, 1, 77, 78
3, 238259, Note_off_c, 1, 77, 64
3, 238299, Note_on_c, 1, 78, 87
3, 238390, Note_off_c, 1, 78, 64
3, 238547, Note_on_c, 1, 73, 82
3, 238873, Note_off_c, 1, 73, 64
3, 238899, Note_on_c, 1, 71, 78
3, 238994, Note_on_c, 1, 70, 63
3, 239001, Note_off_c, 1, 71, 64
3, 239107, Note_on_c, 1, 68, 80
3, 239136, Note_off_c, 1, 70, 64
3, 239200, Note_off_c, 1, 68, 64
3, 239249, Note_on_c, 1, 66, 66
3, 239370, Note_off_c, 1, 66, 64
3, 239492, Note_on_c, 1, 73, 68
3, 239849, Note_off_c, 1, 73, 64
3, 239977, Note_on_c, 1, 66, 70
3, 240057, Note_off_c, 1, 66, 64
3, 240218, Note_on_c, 1, 71, 87
3, 240294, Note_off_c, 1, 71, 64
3, 240451, Note_on_c, 1, 62, 78
3, 240535, Note_off_c, 1, 62, 64
3, 240696, Note_on_c, 1, 69, 80
3, 240769, Note_off_c, 1, 69, 64
3, 240949, Note_on_c, 1, 62, 80
3, 241015, Note_off_c, 1, 62, 64
3, 241196, Note_on_c, 1, 74, 85
3, 241283, Note_off_c, 1, 74, 64
3, 241422, Note_on_c, 1, 71, 78
3, 241518, Note_off_c, 1, 71, 64
3, 241668, Note_on_c, 1, 76, 89
3, 241737, Note_off_c, 1, 76, 64
3, 241899, Note_on_c, 1, 69, 72
3, 241985, Note_off_c, 1, 69, 64
3, 242149, Note_on_c, 1, 76, 91
3, 242231, Note_off_c, 1, 76, 64
3, 242379, Note_on_c, 1, 73, 63
3, 242478, Note_off_c, 1, 73, 64
3, 242624, Note_on_c, 1, 71, 80
3, 242702, Note_off_c, 1, 71, 64
3, 242868, Note_on_c, 1, 64, 66
3, 242943, Note_off_c, 1, 64, 64
3, 243125, Note_on_c, 1, 76, 82
3, 243207, Note_off_c, 1, 76, 64
3, 243351, Note_on_c, 1, 73, 68
3, 243437, Note_off_c, 1, 73, 64
3, 243590, Note_on_c, 1, 78, 95
3, 243681, Note_off_c, 1, 78, 64
3, 243827, Note_on_c, 1, 66, 66
3, 243893, Note_off_c, 1, 66, 64
3, 244074, Note_on_c, 1, 71, 74
3, 244150, Note_off_c, 1, 71, 64
3, 244305, Note_on_c, 1, 74, 82
3, 244632, Note_off_c, 1, 74, 64
3, 244672, Note_on_c, 1, 73, 64
3, 244774, Note_off_c, 1, 73, 64
3, 244785, Note_on_c, 1, 74, 72
3, 244869, Note_off_c, 1, 74, 64
3, 244889, Note_on_c, 1, 71, 63
3, 244967, Note_off_c, 1, 71, 64
3, 245015, Note_on_c, 1, 73, 82
3, 245133, Note_on_c, 1, 74, 82
3, 245163, Note_off_c, 1, 73, 64
3, 245230, Note_off_c, 1, 74, 64
3, 245257, Note_on_c, 1, 76, 78
3, 245345, Note_off_c, 1, 76, 64
3, 245378, Note_on_c, 1, 73, 57
3, 245460, Note_off_c, 1, 73, 64
3, 245515, Note_on_c, 1, 74, 82
3, 246045, Note_off_c, 1, 74, 64
3, 246075, Note_on_c, 1, 73, 68
3, 246173, Note_off_c, 1, 73, 64
3, 246200, Note_on_c, 1, 74, 80
3, 246293, Note_off_c, 1, 74, 64
3, 246323, Note_on_c, 1, 76, 68
3, 246386, Note_off_c, 1, 76, 64
3, 246445, Note_on_c, 1, 74, 74
3, 246568, Note_off_c, 1, 74, 64
3, 246571, Note_on_c, 1, 73, 63
3, 246666, Note_off_c, 1, 73, 64
3, 246695, Note_on_c, 1, 71, 64
3, 246800, Note_off_c, 1, 71, 64
3, 246810, Note_on_c, 1, 74, 74
3, 246891, Note_off_c, 1, 74, 64
3, 246934, Note_on_c, 1, 73, 91
3, 247045, Note_on_c, 1, 71, 70
3, 247066, Note_off_c, 1, 73, 64
3, 247131, Note_off_c, 1, 71, 64
3, 247175, Note_on_c, 1, 70, 66
3, 247280, Note_on_c, 1, 73, 64
3, 247286, Note_off_c, 1, 70, 64
3, 247384, Note_off_c, 1, 73, 64
3, 247413, Note_on_c, 1, 71, 85
3, 247525, Note_off_c, 1, 71, 64
3, 247660, Note_on_c, 1, 66, 66
3, 247758, Note_off_c, 1, 66, 64
3, 247893, Note_on_c, 1, 71, 80
3, 248517, Note_off_c, 1, 71, 64
3, 248603, Note_on_c, 1, 63, 57
3, 248714, Note_off_c, 1, 63, 64
3, 248854, Note_on_c, 1, 66, 72
3, 248930, Note_off_c, 1, 66, 64
3, 249095, Note_on_c, 1, 71, 80
3, 249465, Note_off_c, 1, 71, 64
3, 249571, Note_on_c, 1, 73, 80
3, 249661, Note_off_c, 1, 73, 64
3, 249681, Note_on_c, 1, 74, 85
3, 249777, Note_off_c, 1, 74, 64
3, 249808, Note_on_c, 1, 76, 87
3, 249892, Note_off_c, 1, 76, 64
3, 250051, Note_on_c, 1, 71, 78
3, 250127, Note_off_c, 1, 71, 64
3, 250295, Note_on_c, 1, 76, 85
3, 250377, Note_off_c, 1, 76, 64
3, 250534, Note_on_c, 1, 74, 78
3, 250624, Note_off_c, 1, 74, 64
3, 250773, Note_on_c, 1, 76, 76
3, 250859, Note_off_c, 1, 76, 64
3, 251014, Note_on_c, 1, 73, 59
3, 251098, Note_off_c, 1, 73, 64
3, 251258, Note_on_c, 1, 74, 87
3, 251348, Note_off_c, 1, 74, 64
3, 251503, Note_on_c, 1, 73, 63
3, 251583, Note_off_c, 1, 73, 64
3, 251742, Note_on_c, 1, 74, 85
3, 251826, Note_off_c, 1, 74, 64
3, 251982, Note_on_c, 1, 69, 66
3, 252059, Note_off_c, 1, 69, 64
3, 252223, Note_on_c, 1, 66, 72
3, 252322, Note_off_c, 1, 66, 64
3, 252455, Note_on_c, 1, 76, 80
3, 252540, Note_off_c, 1, 76, 64
3, 252701, Note_on_c, 1, 78, 91
3, 252794, Note_off_c, 1, 78, 64
3, 252935, Note_on_c, 1, 75, 78
3, 253026, Note_off_c, 1, 75, 64
3, 253181, Note_on_c, 1, 76, 85
3, 253283, Note_off_c, 1, 76, 64
3, 253420, Note_on_c, 1, 71, 78
3, 253516, Note_off_c, 1, 71, 64
3, 253664, Note_on_c, 1, 73, 66
3, 253755, Note_off_c, 1, 73, 64
3, 253898, Note_on_c, 1, 70, 70
3, 253998, Note_off_c, 1, 70, 64
3, 254131, Note_on_c, 1, 71, 85
3, 254390, Note_off_c, 1, 71, 64
3, 254472, Note_on_c, 1, 70, 78
3, 254542, Note_off_c, 1, 70, 64
3, 254593, Note_on_c, 1, 71, 76
3, 254647, Note_on_c, 1, 70, 87
3, 254666, Note_off_c, 1, 71, 64
3, 254698, Note_on_c, 1, 71, 70
3, 254704, Note_off_c, 1, 70, 64
3, 254760, Note_on_c, 1, 70, 61
3, 254786, Note_off_c, 1, 71, 64
3, 254872, Note_off_c, 1, 70, 64
3, 254952, Note_on_c, 1, 66, 63
3, 255018, Note_off_c, 1, 66, 64
3, 255078, Note_on_c, 1, 66, 66
3, 255598, Note_off_c, 1, 66, 64
3, 259643, Note_on_c, 1, 59, 58
3, 259851, Note_off_c, 1, 59, 64
3, 259904, Note_on_c, 1, 66, 59
3, 263308, Note_off_c, 1, 66, 64
3, 293983, Note_on_c, 1, 69, 57
3, 294350, Note_off_c, 1, 69, 64
3, 294470, Note_on_c, 1, 69, 57
3, 295023, Note_off_c, 1, 69, 64
3, 295913, Note_on_c, 1, 69, 47
3, 296249, Note_off_c, 1, 69, 64
3, 296395, Note_on_c, 1, 69, 49
3, 296929, Note_off_c, 1, 69, 64
3, 297839, Note_on_c, 1, 74, 58
3, 298173, Note_off_c, 1, 74, 64
3, 298306, Note_on_c, 1, 74, 57
3, 298806, Note_off_c, 1, 74, 64
3, 299734, Note_on_c, 1, 76, 57
3, 300092, Note_off_c, 1, 76, 64
3, 300187, Note_on_c, 1, 78, 57
3, 300708, Note_off_c, 1, 78, 64
3, 300929, Note_on_c, 1, 71, 80
3, 301028, Note_off_c, 1, 71, 64
3, 301179, Note_on_c, 1, 76, 82
3, 302715, Note_off_c, 1, 76, 64
3, 302859, Note_on_c, 1, 71, 82
3, 302952, Note_on_c, 1, 73, 78
3, 302974, Note_off_c, 1, 71, 64
3, 303063, Note_off_c, 1, 73, 64
3, 303083, Note_on_c, 1, 75, 85
3, 303182, Note_off_c, 1, 75, 64
3, 303331, Note_on_c, 1, 76, 87
3, 303419, Note_off_c, 1, 76, 64
3, 303587, Note_on_c, 1, 69, 82
3, 303687, Note_off_c, 1, 69, 64
3, 303809, Note_on_c, 1, 71, 85
3, 303895, Note_off_c, 1, 71, 64
3, 304085, Note_on_c, 1, 64, 87
3, 304274, Note_off_c, 1, 64, 64
3, 304325, Note_on_c, 1, 76, 80
3, 304417, Note_on_c, 1, 75, 78
3, 304420, Note_off_c, 1, 76, 64
3, 304500, Note_off_c, 1, 75, 64
3, 304537, Note_on_c, 1, 76, 68
3, 304648, Note_off_c, 1, 76, 64
3, 304789, Note_on_c, 1, 76, 80
3, 304876, Note_off_c, 1, 76, 64
3, 304878, Note_on_c, 1, 78, 68
3, 304953, Note_off_c, 1, 78, 64
3, 305000, Note_on_c, 1, 79, 93
3, 305114, Note_off_c, 1, 79, 64
3, 305257, Note_on_c, 1, 78, 85
3, 305655, Note_off_c, 1, 78, 64
3, 305736, Note_on_c, 1, 76, 74
3, 305882, Note_off_c, 1, 76, 64
3, 305971, Note_on_c, 1, 78, 91
3, 306071, Note_on_c, 1, 76, 80
3, 306076, Note_off_c, 1, 78, 64
3, 306180, Note_off_c, 1, 76, 64
3, 306188, Note_on_c, 1, 74, 80
3, 306273, Note_off_c, 1, 74, 64
3, 306299, Note_on_c, 1, 76, 87
3, 306380, Note_off_c, 1, 76, 64
3, 306434, Note_on_c, 1, 78, 78
3, 306531, Note_off_c, 1, 78, 64
3, 306675, Note_on_c, 1, 71, 80
3, 306762, Note_off_c, 1, 71, 64
3, 306925, Note_on_c, 1, 76, 89
3, 307003, Note_off_c, 1, 76, 64
3, 307171, Note_on_c, 1, 74, 87
3, 307534, Note_off_c, 1, 74, 64
3, 307661, Note_on_c, 1, 73, 74
3, 307791, Note_off_c, 1, 73, 64
3, 307906, Note_on_c, 1, 74, 91
3, 308015, Note_on_c, 1, 76, 82
3, 308037, Note_off_c, 1, 74, 64
3, 308127, Note_off_c, 1, 76, 64
3, 308130, Note_on_c, 1, 74, 74
3, 308231, Note_off_c, 1, 74, 64
3, 308245, Note_on_c, 1, 73, 57
3, 308345, Note_off_c, 1, 73, 64
3, 308371, Note_on_c, 1, 71, 68
3, 308480, Note_on_c, 1, 73, 62
3, 308486, Note_off_c, 1, 71, 64
3, 308583, Note_off_c, 1, 73, 64
3, 308593, Note_on_c, 1, 74, 76
3, 308707, Note_off_c, 1, 74, 64
3, 308712, Note_on_c, 1, 76, 68
3, 308796, Note_off_c, 1, 76, 64
3, 308847, Note_on_c, 1, 78, 98
3, 308967, Note_on_c, 1, 79, 68
3, 308986, Note_off_c, 1, 78, 64
3, 309066, Note_off_c, 1, 79, 64
3, 309088, Note_on_c, 1, 78, 64
3, 309194, Note_off_c, 1, 78, 64
3, 309201, Note_on_c, 1, 76, 60
3, 309298, Note_off_c, 1, 76, 64
3, 309330, Note_on_c, 1, 75, 80
3, 309453, Note_on_c, 1, 76, 76
3, 309460, Note_off_c, 1, 75, 64
3, 309577, Note_off_c, 1, 76, 64
3, 309586, Note_on_c, 1, 78, 57
3, 309686, Note_on_c, 1, 75, 60
3, 309706, Note_off_c, 1, 78, 64
3, 309768, Note_off_c, 1, 75, 64
3, 309821, Note_on_c, 1, 76, 85
3, 309945, Note_on_c, 1, 78, 80
3, 309961, Note_off_c, 1, 76, 64
3, 310044, Note_off_c, 1, 78, 64
3, 310069, Note_on_c, 1, 79, 70
3, 310158, Note_off_c, 1, 79, 64
3, 310169, Note_on_c, 1, 76, 59
3, 310261, Note_off_c, 1, 76, 64
3, 310304, Note_on_c, 1, 78, 89
3, 310408, Note_on_c, 1, 79, 78
3, 310428, Note_off_c, 1, 78, 64
3, 310501, Note_off_c, 1, 79, 64
3, 310532, Note_on_c, 1, 81, 70
3, 310613, Note_off_c, 1, 81, 64
3, 310633, Note_on_c, 1, 78, 70
3, 310713, Note_off_c, 1, 78, 64
3, 310768, Note_on_c, 1, 79, 85
3, 311324, Note_off_c, 1, 79, 64
3, 311377, Note_on_c, 1, 78, 82
3, 311466, Note_off_c, 1, 78, 64
3, 311486, Note_on_c, 1, 79, 80
3, 311585, Note_off_c, 1, 79, 64
3, 311607, Note_on_c, 1, 81, 74
3, 311672, Note_off_c, 1, 81, 64
3, 311738, Note_on_c, 1, 79, 82
3, 311853, Note_on_c, 1, 78, 82
3, 311868, Note_off_c, 1, 79, 64
3, 311944, Note_off_c, 1, 78, 64
3, 311966, Note_on_c, 1, 76, 72
3, 312041, Note_off_c, 1, 76, 64
3, 312076, Note_on_c, 1, 79, 72
3, 312150, Note_off_c, 1, 79, 64
3, 312205, Note_on_c, 1, 78, 102
3, 312313, Note_on_c, 1, 76, 76
3, 312328, Note_off_c, 1, 78, 64
3, 312420, Note_off_c, 1, 76, 64
3, 312435, Note_on_c, 1, 75, 66
3, 312511, Note_off_c, 1, 75, 64
3, 312541, Note_on_c, 1, 78, 74
3, 312641, Note_off_c, 1, 78, 64
3, 312687, Note_on_c, 1, 76, 85
3, 312801, Note_off_c, 1, 76, 64
3, 312925, Note_on_c, 1, 71, 82
3, 313011, Note_off_c, 1, 71, 64
3, 313181, Note_on_c, 1, 76, 87
3, 313812, Note_off_c, 1, 76, 64
3, 313909, Note_on_c, 1, 78, 85
3, 313987, Note_off_c, 1, 78, 64
3, 314011, Note_on_c, 1, 74, 82
3, 314102, Note_off_c, 1, 74, 64
3, 314144, Note_on_c, 1, 79, 89
3, 314226, Note_off_c, 1, 79, 64
3, 314381, Note_on_c, 1, 70, 87
3, 314771, Note_off_c, 1, 70, 64
3, 314859, Note_on_c, 1, 71, 85
3, 314968, Note_on_c, 1, 73, 72
3, 314970, Note_off_c, 1, 71, 64
3, 315065, Note_off_c, 1, 73, 64
3, 315096, Note_on_c, 1, 74, 78
3, 315207, Note_on_c, 1, 76, 80
3, 315218, Note_off_c, 1, 74, 64
3, 315309, Note_off_c, 1, 76, 64
3, 315335, Note_on_c, 1, 78, 87
3, 315430, Note_off_c, 1, 78, 64
3, 315578, Note_on_c, 1, 67, 85
3, 315661, Note_off_c, 1, 67, 64
3, 315813, Note_on_c, 1, 66, 93
3, 316214, Note_off_c, 1, 66, 64
3, 316311, Note_on_c, 1, 64, 82
3, 316428, Note_off_c, 1, 64, 64
3, 316550, Note_on_c, 1, 66, 102
3, 316645, Note_on_c, 1, 67, 85
3, 316661, Note_off_c, 1, 66, 64
3, 316736, Note_off_c, 1, 67, 64
3, 316763, Note_on_c, 1, 66, 89
3, 316873, Note_off_c, 1, 66, 64
3, 316874, Note_on_c, 1, 64, 70
3, 316971, Note_off_c, 1, 64, 64
3, 317015, Note_on_c, 1, 62, 82
3, 317205, Note_off_c, 1, 62, 64
3, 321097, Note_on_c, 1, 59, 64
3, 321258, Note_off_c, 1, 59, 64
3, 321356, Note_on_c, 1, 66, 55
3, 324324, Note_off_c, 1, 66, 64
3, 324342, Note_on_c, 1, 68, 62
3, 324453, Note_on_c, 1, 70, 62
3, 324473, Note_off_c, 1, 68, 64
3, 324555, Note_on_c, 1, 71, 74
3, 324559, Note_off_c, 1, 70, 64
3, 324659, Note_off_c, 1, 71, 64
3, 324694, Note_on_c, 1, 73, 78
3, 324789, Note_off_c, 1, 73, 64
3, 324938, Note_on_c, 1, 66, 78
3, 325316, Note_off_c, 1, 66, 64
3, 325336, Note_on_c, 1, 64, 78
3, 325447, Note_on_c, 1, 62, 70
3, 325452, Note_off_c, 1, 64, 64
3, 325549, Note_off_c, 1, 62, 64
3, 325555, Note_on_c, 1, 64, 78
3, 325641, Note_off_c, 1, 64, 64
3, 325677, Note_on_c, 1, 66, 82
3, 325759, Note_off_c, 1, 66, 64
3, 325898, Note_on_c, 1, 71, 72
3, 325971, Note_off_c, 1, 71, 64
3, 326133, Note_on_c, 1, 69, 63
3, 326233, Note_off_c, 1, 69, 64
3, 326383, Note_on_c, 1, 73, 64
3, 326469, Note_off_c, 1, 73, 64
3, 326631, Note_on_c, 1, 78, 72
3, 326704, Note_off_c, 1, 78, 64
3, 326868, Note_on_c, 1, 73, 70
3, 326992, Note_off_c, 1, 73, 64
3, 327100, Note_on_c, 1, 71, 80
3, 327184, Note_off_c, 1, 71, 64
3, 327344, Note_on_c, 1, 75, 70
3, 327423, Note_off_c, 1, 75, 64
3, 327589, Note_on_c, 1, 76, 78
3, 327662, Note_off_c, 1, 76, 64
3, 327817, Note_on_c, 1, 69, 80
3, 327899, Note_off_c, 1, 69, 64
3, 328065, Note_on_c, 1, 71, 78
3, 328147, Note_off_c, 1, 71, 64
3, 328300, Note_on_c, 1, 76, 85
3, 328382, Note_off_c, 1, 76, 64
3, 328541, Note_on_c, 1, 71, 78
3, 328637, Note_off_c, 1, 71, 64
3, 328772, Note_on_c, 1, 67, 72
3, 328854, Note_off_c, 1, 67, 64
3, 329017, Note_on_c, 1, 64, 68
3, 329116, Note_off_c, 1, 64, 64
3, 329250, Note_on_c, 1, 73, 64
3, 329331, Note_off_c, 1, 73, 64
3, 329489, Note_on_c, 1, 74, 82
3, 329579, Note_off_c, 1, 74, 64
3, 329728, Note_on_c, 1, 67, 74
3, 329814, Note_off_c, 1, 67, 64
3, 329985, Note_on_c, 1, 69, 80
3, 330077, Note_off_c, 1, 69, 64
3, 330206, Note_on_c, 1, 67, 66
3, 330306, Note_off_c, 1, 67, 64
3, 330460, Note_on_c, 1, 66, 64
3, 330556, Note_off_c, 1, 66, 64
3, 330708, Note_on_c, 1, 62, 64
3, 330799, Note_off_c, 1, 62, 64
3, 330948, Note_on_c, 1, 61, 59
3, 331052, Note_off_c, 1, 61, 64
3, 331191, Note_on_c, 1, 64, 66
3, 331280, Note_off_c, 1, 64, 64
3, 331434, Note_on_c, 1, 57, 64
3, 331539, Note_off_c, 1, 57, 64
3, 331674, Note_on_c, 1, 62, 80
3, 331756, Note_off_c, 1, 62, 64
3, 331904, Note_on_c, 1, 61, 64
3, 331999, Note_off_c, 1, 61, 64
3, 332147, Note_on_c, 1, 64, 76
3, 332233, Note_off_c, 1, 64, 64
3, 332377, Note_on_c, 1, 57, 66
3, 332462, Note_off_c, 1, 57, 64
3, 332606, Note_on_c, 1, 67, 70
3, 332696, Note_off_c, 1, 67, 64
3, 332853, Note_on_c, 1, 66, 64
3, 332937, Note_off_c, 1, 66, 64
3, 333103, Note_on_c, 1, 74, 80
3, 333177, Note_off_c, 1, 74, 64
3, 333337, Note_on_c, 1, 73, 63
3, 333438, Note_off_c, 1, 73, 64
3, 333577, Note_on_c, 1, 74, 85
3, 333650, Note_off_c, 1, 74, 64
3, 333819, Note_on_c, 1, 76, 82
3, 333891, Note_off_c, 1, 76, 64
3, 334062, Note_on_c, 1, 69, 85
3, 334379, Note_off_c, 1, 69, 64
3, 362888, Note_on_c, 1, 76, 85
3, 363244, Note_off_c, 1, 76, 64
3, 363353, Note_on_c, 1, 75, 87
3, 363446, Note_off_c, 1, 75, 64
3, 363589, Note_on_c, 1, 76, 80
3, 363667, Note_off_c, 1, 76, 64
3, 364079, Note_on_c, 1, 76, 78
3, 364165, Note_off_c, 1, 76, 64
3, 364546, Note_on_c, 1, 76, 80
3, 364628, Note_off_c, 1, 76, 64
3, 365253, Note_on_c, 1, 76, 80
3, 365332, Note_off_c, 1, 76, 64
3, 365491, Note_on_c, 1, 74, 78
3, 365572, Note_off_c, 1, 74, 64
3, 365972, Note_on_c, 1, 74, 78
3, 366065, Note_off_c, 1, 74, 64
3, 366447, Note_on_c, 1, 74, 78
3, 366541, Note_off_c, 1, 74, 64
3, 367169, Note_on_c, 1, 74, 82
3, 367260, Note_off_c, 1, 74, 64
3, 367413, Note_on_c, 1, 70, 74
3, 367494, Note_off_c, 1, 70, 64
3, 367892, Note_on_c, 1, 73, 66
3, 367993, Note_off_c, 1, 73, 64
3, 368376, Note_on_c, 1, 73, 85
3, 368481, Note_off_c, 1, 73, 64
3, 369101, Note_on_c, 1, 73, 62
3, 369205, Note_off_c, 1, 73, 64
3, 369345, Note_on_c, 1, 71, 78
3, 369443, Note_off_c, 1, 71, 64
3, 369586, Note_on_c, 1, 66, 70
3, 369668, Note_off_c, 1, 66, 64
3, 369823, Note_on_c, 1, 66, 85
3, 369905, Note_off_c, 1, 66, 64
3, 370056, Note_on_c, 1, 71, 82
3, 370396, Note_off_c, 1, 71, 64
3, 370407, Note_on_c, 1, 73, 72
3, 370511, Note_off_c, 1, 73, 64
3, 370521, Note_on_c, 1, 74, 70
3, 370604, Note_off_c, 1, 74, 64
3, 370625, Note_on_c, 1, 71, 68
3, 370713, Note_off_c, 1, 71, 64
3, 370773, Note_on_c, 1, 73, 72
3, 370889, Note_on_c, 1, 74, 70
3, 370908, Note_off_c, 1, 73, 64
3, 370983, Note_off_c, 1, 74, 64
3, 371021, Note_on_c, 1, 76, 61
3, 371081, Note_off_c, 1, 76, 64
3, 371125, Note_on_c, 1, 73, 57
3, 371204, Note_off_c, 1, 73, 64
3, 371269, Note_on_c, 1, 74, 87
3, 371820, Note_off_c, 1, 74, 64
3, 371855, Note_on_c, 1, 73, 68
3, 371946, Note_off_c, 1, 73, 64
3, 371962, Note_on_c, 1, 74, 78
3, 372059, Note_off_c, 1, 74, 64
3, 372081, Note_on_c, 1, 76, 70
3, 372150, Note_off_c, 1, 76, 64
3, 372209, Note_on_c, 1, 74, 87
3, 372309, Note_off_c, 1, 74, 64
3, 372322, Note_on_c, 1, 73, 64
3, 372415, Note_off_c, 1, 73, 64
3, 372440, Note_on_c, 1, 71, 66
3, 372521, Note_off_c, 1, 71, 64
3, 372553, Note_on_c, 1, 74, 72
3, 372632, Note_off_c, 1, 74, 64
3, 372688, Note_on_c, 1, 73, 89
3, 372798, Note_on_c, 1, 71, 70
3, 372812, Note_off_c, 1, 73, 64
3, 372884, Note_off_c, 1, 71, 64
3, 372915, Note_on_c, 1, 70, 68
3, 372998, Note_off_c, 1, 70, 64
3, 373029, Note_on_c, 1, 73, 57
3, 373110, Note_off_c, 1, 73, 64
3, 373163, Note_on_c, 1, 71, 82
3, 373270, Note_off_c, 1, 71, 64
3, 373407, Note_on_c, 1, 66, 64
3, 373495, Note_off_c, 1, 66, 64
3, 373651, Note_on_c, 1, 71, 85
3, 374202, Note_off_c, 1, 71, 64
3, 374368, Note_on_c, 1, 63, 78
3, 374459, Note_off_c, 1, 63, 64
3, 374613, Note_on_c, 1, 66, 80
3, 374702, Note_off_c, 1, 66, 64
3, 374852, Note_on_c, 1, 71, 82
3, 375247, Note_off_c, 1, 71, 64
3, 375337, Note_on_c, 1, 73, 89
3, 375437, Note_off_c, 1, 73, 64
3, 375446, Note_on_c, 1, 74, 82
3, 375523, Note_off_c, 1, 74, 64
3, 375574, Note_on_c, 1, 76, 89
3, 375658, Note_off_c, 1, 76, 64
3, 375815, Note_on_c, 1, 71, 80
3, 375902, Note_off_c, 1, 71, 64
3, 376055, Note_on_c, 1, 76, 87
3, 376142, Note_off_c, 1, 76, 64
3, 376294, Note_on_c, 1, 74, 82
3, 376382, Note_off_c, 1, 74, 64
3, 376532, Note_on_c, 1, 76, 78
3, 376621, Note_off_c, 1, 76, 64
3, 376770, Note_on_c, 1, 73, 60
3, 376875, Note_off_c, 1, 73, 64
3, 377008, Note_on_c, 1, 74, 82
3, 377110, Note_off_c, 1, 74, 64
3, 377252, Note_on_c, 1, 73, 63
3, 377351, Note_off_c, 1, 73, 64
3, 377489, Note_on_c, 1, 74, 82
3, 377589, Note_off_c, 1, 74, 64
3, 377730, Note_on_c, 1, 69, 72
3, 377814, Note_off_c, 1, 69, 64
3, 377980, Note_on_c, 1, 66, 64
3, 378100, Note_off_c, 1, 66, 64
3, 378210, Note_on_c, 1, 76, 82
3, 378297, Note_off_c, 1, 76, 64
3, 378447, Note_on_c, 1, 78, 76
3, 378553, Note_off_c, 1, 78, 64
3, 378677, Note_on_c, 1, 75, 74
3, 378777, Note_off_c, 1, 75, 64
3, 378928, Note_on_c, 1, 76, 89
3, 379025, Note_off_c, 1, 76, 64
3, 379164, Note_on_c, 1, 71, 82
3, 379271, Note_off_c, 1, 71, 64
3, 379408, Note_on_c, 1, 73, 74
3, 379505, Note_off_c, 1, 73, 64
3, 379642, Note_on_c, 1, 70, 80
3, 379727, Note_off_c, 1, 70, 64
3, 379882, Note_on_c, 1, 71, 85
3, 380103, Note_off_c, 1, 71, 64
3, 380260, Note_on_c, 1, 67, 80
3, 380305, Note_off_c, 1, 67, 64
3, 380353, Note_on_c, 1, 67, 80
3, 380413, Note_on_c, 1, 66, 68
3, 380420, Note_off_c, 1, 67, 64
3, 380457, Note_on_c, 1, 67, 68
3, 380479, Note_off_c, 1, 66, 64
3, 380504, Note_on_c, 1, 66, 72
3, 380516, Note_off_c, 1, 67, 64
3, 380574, Note_off_c, 1, 66, 64
3, 380621, Note_on_c, 1, 73, 98
3, 380708, Note_off_c, 1, 73, 64
3, 380860, Note_on_c, 1, 78, 89
3, 380935, Note_off_c, 1, 78, 64
3, 381102, Note_on_c, 1, 76, 87
3, 381440, Note_off_c, 1, 76, 64
3, 381582, Note_on_c, 1, 75, 68
3, 381695, Note_off_c, 1, 75, 64
3, 381808, Note_on_c, 1, 76, 85
3, 381914, Note_on_c, 1, 78, 74
3, 381923, Note_off_c, 1, 76, 64
3, 382027, Note_off_c, 1, 78, 64
3, 382044, Note_on_c, 1, 79, 76
3, 382157, Note_on_c, 1, 78, 82
3, 382197, Note_off_c, 1, 79, 64
3, 382248, Note_off_c, 1, 78, 64
3, 382294, Note_on_c, 1, 76, 78
3, 382408, Note_on_c, 1, 75, 64
3, 382418, Note_off_c, 1, 76, 64
3, 382489, Note_off_c, 1, 75, 64
3, 382531, Note_on_c, 1, 76, 66
3, 382633, Note_off_c, 1, 76, 64
3, 382655, Note_on_c, 1, 73, 57
3, 382737, Note_off_c, 1, 73, 64
3, 382782, Note_on_c, 1, 75, 76
3, 382887, Note_off_c, 1, 75, 64
3, 382894, Note_on_c, 1, 76, 74
3, 383007, Note_off_c, 1, 76, 64
3, 383012, Note_on_c, 1, 78, 63
3, 383107, Note_off_c, 1, 78, 64
3, 383120, Note_on_c, 1, 76, 80
3, 383200, Note_off_c, 1, 76, 64
3, 383249, Note_on_c, 1, 75, 95
3, 383348, Note_off_c, 1, 75, 64
3, 383351, Note_on_c, 1, 76, 64
3, 383457, Note_off_c, 1, 76, 64
3, 383474, Note_on_c, 1, 75, 53
3, 383580, Note_off_c, 1, 75, 64
3, 383587, Note_on_c, 1, 73, 57
3, 383687, Note_off_c, 1, 73, 64
3, 383729, Note_on_c, 1, 71, 70
3, 386742, Note_off_c, 1, 71, 64
3, 386855, Note_on_c, 1, 71, 87
3, 386941, Note_off_c, 1, 71, 64
3, 387091, Note_on_c, 1, 76, 87
3, 387647, Note_off_c, 1, 76, 64
3, 387700, Note_on_c, 1, 78, 62
3, 387789, Note_off_c, 1, 78, 64
3, 387815, Note_on_c, 1, 76, 68
3, 387921, Note_off_c, 1, 76, 64
3, 387922, Note_on_c, 1, 74, 76
3, 388036, Note_off_c, 1, 74, 64
3, 388056, Note_on_c, 1, 73, 78
3, 388163, Note_on_c, 1, 74, 82
3, 388172, Note_off_c, 1, 73, 64
3, 388267, Note_off_c, 1, 74, 64
3, 388296, Note_on_c, 1, 76, 76
3, 388375, Note_off_c, 1, 76, 64
3, 388417, Note_on_c, 1, 73, 66
3, 388502, Note_off_c, 1, 73, 64
3, 388555, Note_on_c, 1, 69, 76
3, 389123, Note_off_c, 1, 69, 64
3, 389256, Note_on_c, 1, 78, 85
3, 389380, Note_off_c, 1, 78, 64
3, 389493, Note_on_c, 1, 76, 78
3, 389593, Note_on_c, 1, 74, 70
3, 389624, Note_off_c, 1, 76, 64
3, 389672, Note_off_c, 1, 74, 64
3, 389726, Note_on_c, 1, 73, 82
3, 389832, Note_on_c, 1, 71, 70
3, 389850, Note_off_c, 1, 73, 64
3, 389925, Note_off_c, 1, 71, 64
3, 389965, Note_on_c, 1, 70, 82
3, 390066, Note_on_c, 1, 71, 80
3, 390082, Note_off_c, 1, 70, 64
3, 390139, Note_off_c, 1, 71, 64
3, 390191, Note_on_c, 1, 73, 72
3, 390286, Note_off_c, 1, 73, 64
3, 390308, Note_on_c, 1, 70, 85
3, 390373, Note_off_c, 1, 70, 64
3, 390454, Note_on_c, 1, 66, 95
3, 390613, Note_off_c, 1, 66, 64
3, 390706, Note_on_c, 1, 64, 82
3, 390812, Note_on_c, 1, 66, 87
3, 390815, Note_off_c, 1, 64, 64
3, 390892, Note_off_c, 1, 66, 64
3, 390930, Note_on_c, 1, 67, 85
3, 391047, Note_off_c, 1, 67, 64
3, 391186, Note_on_c, 1, 76, 95
3, 391587, Note_off_c, 1, 76, 64
3, 391662, Note_on_c, 1, 74, 87
3, 391751, Note_off_c, 1, 74, 64
3, 391764, Note_on_c, 1, 73, 85
3, 391857, Note_off_c, 1, 73, 64
3, 391895, Note_on_c, 1, 71, 87
3, 392019, Note_off_c, 1, 71, 64
3, 392138, Note_on_c, 1, 70, 91
3, 392291, Note_off_c, 1, 70, 64
3, 392291, End_track
4, 0, Start_track
4, 0, Title_t, "Viola"
4, 0, Program_c, 2, 41
4, 0, Control_c, 2, 7, 100
4, 947, Note_on_c, 2, 62, 58
4, 1294, Note_off_c, 2, 62, 64
4, 1358, Note_on_c, 2, 64, 62
4, 1383, Note_off_c, 2, 64, 64
4, 1419, Note_on_c, 2, 64, 62
4, 1544, Note_on_c, 2, 66, 60
4, 1558, Note_off_c, 2, 64, 64
4, 1770, Note_off_c, 2, 66, 64
4, 1841, Note_on_c, 2, 70, 72
4, 1872, Note_off_c, 2, 70, 64
4, 1899, Note_on_c, 2, 71, 74
4, 2043, Note_off_c, 2, 71, 64
4, 2084, Note_on_c, 2, 62, 72
4, 2113, Note_on_c, 2, 64, 76
4, 2126, Note_off_c, 2, 62, 64
4, 2150, Note_off_c, 2, 64, 64
4, 2150, Note_on_c, 2, 66, 66
4, 2182, Note_on_c, 2, 64, 59
4, 2185, Note_off_c, 2, 66, 64
4, 2205, Note_off_c, 2, 64, 64
4, 2207, Note_on_c, 2, 66, 64
4, 2228, Note_on_c, 2, 64, 66
4, 2232, Note_off_c, 2, 66, 64
4, 2252, Note_on_c, 2, 66, 68
4, 2254, Note_off_c, 2, 64, 64
4, 2269, Note_off_c, 2, 66, 64
4, 2269, Note_on_c, 2, 64, 57
4, 2286, Note_off_c, 2, 64, 64
4, 2286, Note_on_c, 2, 66, 66
4, 2305, Note_on_c, 2, 64, 70
4, 2319, Note_off_c, 2, 66, 64
4, 2332, Note_on_c, 2, 62, 70
4, 2335, Note_off_c, 2, 64, 64
4, 2358, Note_on_c, 2, 64, 78
4, 2372, Note_off_c, 2, 62, 64
4, 2391, Note_on_c, 2, 66, 72
4, 2394, Note_off_c, 2, 64, 64
4, 2511, Note_off_c, 2, 66, 64
4, 2567, Note_on_c, 2, 64, 68
4, 2596, Note_on_c, 2, 62, 72
4, 2602, Note_off_c, 2, 64, 64
4, 2632, Note_on_c, 2, 64, 80
4, 2642, Note_off_c, 2, 62, 64
4, 2734, Note_off_c, 2, 64, 64
4, 2816, Note_on_c, 2, 67, 76
4, 2853, Note_off_c, 2, 67, 64
4, 2870, Note_on_c, 2, 61, 78
4, 3216, Note_off_c, 2, 61, 64
4, 3294, Note_on_c, 2, 61, 82
4, 3324, Note_off_c, 2, 61, 64
4, 3353, Note_on_c, 2, 54, 76
4, 3481, Note_off_c, 2, 54, 64
4, 3523, Note_on_c, 2, 62, 70
4, 3552, Note_on_c, 2, 64, 78
4, 3563, Note_off_c, 2, 62, 64
4, 3588, Note_on_c, 2, 66, 62
4, 3592, Note_off_c, 2, 64, 64
4, 3619, Note_on_c, 2, 64, 64
4, 3625, Note_off_c, 2, 66, 64
4, 3644, Note_off_c, 2, 64, 64
4, 3645, Note_on_c, 2, 66, 68
4, 3665, Note_on_c, 2, 64, 68
4, 3668, Note_off_c, 2, 66, 64
4, 3690, Note_off_c, 2, 64, 64
4, 3695, Note_on_c, 2, 66, 59
4, 3710, Note_on_c, 2, 64, 64
4, 3725, Note_off_c, 2, 64, 64
4, 3744, Note_on_c, 2, 64, 76
4, 3755, Note_off_c, 2, 66, 64
4, 3766, Note_on_c, 2, 62, 66
4, 3772, Note_off_c, 2, 64, 64
4, 3789, Note_on_c, 2, 64, 70
4, 3801, Note_off_c, 2, 62, 64
4, 3825, Note_off_c, 2, 64, 64
4, 3829, Note_on_c, 2, 66, 72
4, 3945, Note_off_c, 2, 66, 64
4, 4018, Note_on_c, 2, 66, 72
4, 4057, Note_off_c, 2, 66, 64
4, 4077, Note_on_c, 2, 64, 58
4, 4082, Note_on_c, 2, 66, 64
4, 4095, Note_off_c, 2, 66, 64
4, 4155, Note_off_c, 2, 64, 64
4, 4256, Note_on_c, 2, 62, 82
4, 4297, Note_off_c, 2, 62, 64
4, 4307, Note_on_c, 2, 61, 85
4, 4401, Note_off_c, 2, 61, 64
4, 4498, Note_on_c, 2, 61, 87
4, 4544, Note_off_c, 2, 61, 64
4, 4552, Note_on_c, 2, 63, 82
4, 4643, Note_off_c, 2, 63, 64
4, 4743, Note_on_c, 2, 64, 78
4, 4784, Note_off_c, 2, 64, 64
4, 4801, Note_on_c, 2, 66, 85
4, 5097, Note_off_c, 2, 66, 64
4, 5220, Note_on_c, 2, 66, 80
4, 5262, Note_off_c, 2, 66, 64
4, 5275, Note_on_c, 2, 67, 82
4, 5350, Note_off_c, 2, 67, 64
4, 5455, Note_on_c, 2, 66, 82
4, 5498, Note_off_c, 2, 66, 64
4, 5507, Note_on_c, 2, 67, 89
4, 5594, Note_off_c, 2, 67, 64
4, 5698, Note_on_c, 2, 69, 82
4, 5739, Note_off_c, 2, 69, 64
4, 5753, Note_on_c, 2, 71, 80
4, 6318, Note_off_c, 2, 71, 64
4, 6418, Note_on_c, 2, 71, 87
4, 6465, Note_off_c, 2, 71, 64
4, 6476, Note_on_c, 2, 69, 82
4, 6545, Note_off_c, 2, 69, 64
4, 6648, Note_on_c, 2, 62, 68
4, 6685, Note_off_c, 2, 62, 64
4, 6706, Note_on_c, 2, 64, 70
4, 7027, Note_off_c, 2, 64, 64
4, 7137, Note_on_c, 2, 64, 82
4, 7177, Note_off_c, 2, 64, 64
4, 7192, Note_on_c, 2, 66, 80
4, 7271, Note_off_c, 2, 66, 64
4, 7365, Note_on_c, 2, 64, 80
4, 7410, Note_off_c, 2, 64, 64
4, 7419, Note_on_c, 2, 66, 87
4, 7508, Note_off_c, 2, 66, 64
4, 7607, Note_on_c, 2, 67, 72
4, 7650, Note_off_c, 2, 67, 64
4, 7664, Note_on_c, 2, 69, 74
4, 8249, Note_off_c, 2, 69, 64
4, 8335, Note_on_c, 2, 69, 76
4, 8373, Note_off_c, 2, 69, 64
4, 8386, Note_on_c, 2, 67, 85
4, 8480, Note_off_c, 2, 67, 64
4, 8576, Note_on_c, 2, 71, 78
4, 8613, Note_off_c, 2, 71, 64
4, 8634, Note_on_c, 2, 64, 87
4, 8780, Note_off_c, 2, 64, 64
4, 8829, Note_on_c, 2, 66, 70
4, 8848, Note_on_c, 2, 67, 70
4, 8864, Note_off_c, 2, 66, 64
4, 8881, Note_off_c, 2, 67, 64
4, 8883, Note_on_c, 2, 69, 85
4, 8972, Note_off_c, 2, 69, 64
4, 9059, Note_on_c, 2, 66, 70
4, 9094, Note_off_c, 2, 66, 64
4, 9111, Note_on_c, 2, 64, 98
4, 9207, Note_off_c, 2, 64, 64
4, 9301, Note_on_c, 2, 62, 82
4, 9337, Note_off_c, 2, 62, 64
4, 9354, Note_on_c, 2, 61, 85
4, 9427, Note_off_c, 2, 61, 64
4, 9536, Note_on_c, 2, 57, 70
4, 9581, Note_off_c, 2, 57, 64
4, 9594, Note_on_c, 2, 69, 85
4, 9763, Note_off_c, 2, 69, 64
4, 9834, Note_on_c, 2, 67, 70
4, 9982, Note_off_c, 2, 67, 64
4, 10075, Note_on_c, 2, 66, 80
4, 10149, Note_on_c, 2, 64, 57
4, 10159, Note_off_c, 2, 66, 64
4, 10187, Note_on_c, 2, 66, 58
4, 10188, Note_off_c, 2, 64, 64
4, 10215, Note_on_c, 2, 64, 66
4, 10220, Note_off_c, 2, 66, 64
4, 10241, Note_off_c, 2, 64, 64
4, 10241, Note_on_c, 2, 66, 66
4, 10265, Note_off_c, 2, 66, 64
4, 10265, Note_on_c, 2, 64, 68
4, 10287, Note_off_c, 2, 64, 64
4, 10287, Note_on_c, 2, 66, 82
4, 10310, Note_on_c, 2, 64, 82
4, 10317, Note_off_c, 2, 66, 64
4, 10434, Note_off_c, 2, 64, 64
4, 10495, Note_on_c, 2, 66, 72
4, 10527, Note_off_c, 2, 66, 64
4, 10554, Note_on_c, 2, 66, 82
4, 10805, Note_off_c, 2, 66, 64
4, 10974, Note_on_c, 2, 55, 64
4, 11011, Note_off_c, 2, 55, 64
4, 11030, Note_on_c, 2, 57, 78
4, 11300, Note_off_c, 2, 57, 64
4, 11449, Note_on_c, 2, 57, 72
4, 11484, Note_off_c, 2, 57, 64
4, 11508, Note_on_c, 2, 59, 76
4, 11846, Note_off_c, 2, 59, 64
4, 11944, Note_on_c, 2, 57, 72
4, 11978, Note_off_c, 2, 57, 64
4, 11997, Note_on_c, 2, 57, 82
4, 12157, Note_off_c, 2, 57, 64
4, 12232, Note_on_c, 2, 57, 80
4, 12256, Note_on_c, 2, 56, 87
4, 12261, Note_off_c, 2, 57, 64
4, 12280, Note_on_c, 2, 57, 68
4, 12285, Note_off_c, 2, 56, 64
4, 12304, Note_on_c, 2, 56, 70
4, 12318, Note_off_c, 2, 57, 64
4, 12382, Note_off_c, 2, 56, 64
4, 12486, Note_on_c, 2, 57, 82
4, 12596, Note_off_c, 2, 57, 64
4, 12669, Note_on_c, 2, 64, 70
4, 12709, Note_off_c, 2, 64, 64
4, 12724, Note_on_c, 2, 69, 91
4, 12816, Note_off_c, 2, 69, 64
4, 12900, Note_on_c, 2, 62, 80
4, 12927, Note_off_c, 2, 62, 64
4, 12958, Note_on_c, 2, 64, 80
4, 13072, Note_off_c, 2, 64, 64
4, 13139, Note_on_c, 2, 66, 68
4, 13161, Note_on_c, 2, 67, 78
4, 13173, Note_off_c, 2, 66, 64
4, 13195, Note_off_c, 2, 67, 64
4, 13204, Note_on_c, 2, 69, 87
4, 13280, Note_off_c, 2, 69, 64
4, 13369, Note_on_c, 2, 71, 66
4, 13393, Note_on_c, 2, 72, 80
4, 13398, Note_off_c, 2, 71, 64
4, 13422, Note_off_c, 2, 72, 64
4, 13436, Note_on_c, 2, 71, 87
4, 14025, Note_off_c, 2, 71, 64
4, 14101, Note_on_c, 2, 71, 89
4, 14142, Note_off_c, 2, 71, 64
4, 14152, Note_on_c, 2, 64, 91
4, 14228, Note_off_c, 2, 64, 64
4, 14330, Note_on_c, 2, 59, 76
4, 14366, Note_off_c, 2, 59, 64
4, 14382, Note_on_c, 2, 64, 80
4, 14974, Note_off_c, 2, 64, 64
4, 15041, Note_on_c, 2, 61, 68
4, 15072, Note_on_c, 2, 62, 70
4, 15079, Note_off_c, 2, 61, 64
4, 15104, Note_off_c, 2, 62, 64
4, 15106, Note_on_c, 2, 64, 82
4, 15199, Note_off_c, 2, 64, 64
4, 15290, Note_on_c, 2, 66, 64
4, 15311, Note_on_c, 2, 67, 76
4, 15326, Note_off_c, 2, 66, 64
4, 15350, Note_off_c, 2, 67, 64
4, 15358, Note_on_c, 2, 69, 87
4, 15490, Note_off_c, 2, 69, 64
4, 15544, Note_on_c, 2, 70, 82
4, 15589, Note_off_c, 2, 70, 64
4, 15595, Note_on_c, 2, 71, 85
4, 15673, Note_off_c, 2, 71, 64
4, 15780, Note_on_c, 2, 66, 68
4, 15816, Note_off_c, 2, 66, 64
4, 15833, Note_on_c, 2, 67, 85
4, 16388, Note_off_c, 2, 67, 64
4, 16499, Note_on_c, 2, 59, 70
4, 16543, Note_off_c, 2, 59, 64
4, 16553, Note_on_c, 2, 61, 82
4, 16626, Note_off_c, 2, 61, 64
4, 16732, Note_on_c, 2, 62, 66
4, 16782, Note_off_c, 2, 62, 64
4, 16790, Note_on_c, 2, 64, 85
4, 16849, Note_off_c, 2, 64, 64
4, 16961, Note_on_c, 2, 61, 70
4, 17009, Note_off_c, 2, 61, 64
4, 17022, Note_on_c, 2, 67, 98
4, 17095, Note_off_c, 2, 67, 64
4, 17206, Note_on_c, 2, 59, 74
4, 17249, Note_off_c, 2, 59, 64
4, 17268, Note_on_c, 2, 61, 87
4, 17337, Note_off_c, 2, 61, 64
4, 17451, Note_on_c, 2, 59, 80
4, 17498, Note_off_c, 2, 59, 64
4, 17512, Note_on_c, 2, 58, 80
4, 17585, Note_off_c, 2, 58, 64
4, 17689, Note_on_c, 2, 61, 78
4, 17731, Note_off_c, 2, 61, 64
4, 17752, Note_on_c, 2, 54, 85
4, 17854, Note_off_c, 2, 54, 64
4, 17926, Note_on_c, 2, 66, 58
4, 17953, Note_on_c, 2, 64, 74
4, 17968, Note_off_c, 2, 66, 64
4, 17992, Note_off_c, 2, 64, 64
4, 17996, Note_on_c, 2, 62, 82
4, 18088, Note_off_c, 2, 62, 64
4, 18162, Note_on_c, 2, 64, 70
4, 18193, Note_on_c, 2, 66, 64
4, 18202, Note_off_c, 2, 64, 64
4, 18230, Note_off_c, 2, 66, 64
4, 18244, Note_on_c, 2, 59, 91
4, 18392, Note_off_c, 2, 59, 64
4, 18430, Note_on_c, 2, 62, 82
4, 18459, Note_off_c, 2, 62, 64
4, 18486, Note_on_c, 2, 66, 85
4, 18564, Note_off_c, 2, 66, 64
4, 18650, Note_on_c, 2, 70, 76
4, 18692, Note_off_c, 2, 70, 64
4, 18705, Note_on_c, 2, 66, 82
4, 18833, Note_off_c, 2, 66, 64
4, 18884, Note_on_c, 2, 59, 68
4, 18916, Note_on_c, 2, 61, 72
4, 18923, Note_off_c, 2, 59, 64
4, 18948, Note_off_c, 2, 61, 64
4, 18951, Note_on_c, 2, 62, 85
4, 19031, Note_off_c, 2, 62, 64
4, 19127, Note_on_c, 2, 66, 78
4, 19156, Note_on_c, 2, 65, 74
4, 19167, Note_off_c, 2, 66, 64
4, 19186, Note_off_c, 2, 65, 64
4, 19193, Note_on_c, 2, 66, 89
4, 19684, Note_off_c, 2, 66, 64
4, 47748, Note_on_c, 2, 66, 82
4, 47821, Note_off_c, 2, 66, 64
4, 47987, Note_on_c, 2, 67, 76
4, 48078, Note_off_c, 2, 67, 64
4, 48233, Note_on_c, 2, 66, 76
4, 48616, Note_off_c, 2, 66, 64
4, 48691, Note_on_c, 2, 64, 76
4, 48806, Note_off_c, 2, 64, 64
4, 48941, Note_on_c, 2, 66, 80
4, 49049, Note_off_c, 2, 66, 64
4, 49050, Note_on_c, 2, 64, 72
4, 49147, Note_off_c, 2, 64, 64
4, 49169, Note_on_c, 2, 62, 80
4, 49253, Note_off_c, 2, 62, 64
4, 49284, Note_on_c, 2, 64, 87
4, 49357, Note_off_c, 2, 64, 64
4, 49417, Note_on_c, 2, 66, 78
4, 49513, Note_off_c, 2, 66, 64
4, 49659, Note_on_c, 2, 59, 76
4, 49749, Note_off_c, 2, 59, 64
4, 49906, Note_on_c, 2, 64, 85
4, 49979, Note_off_c, 2, 64, 64
4, 50137, Note_on_c, 2, 62, 85
4, 50506, Note_off_c, 2, 62, 64
4, 50615, Note_on_c, 2, 61, 82
4, 50739, Note_off_c, 2, 61, 64
4, 50865, Note_on_c, 2, 62, 89
4, 50960, Note_on_c, 2, 64, 78
4, 50965, Note_off_c, 2, 62, 64
4, 51053, Note_off_c, 2, 64, 64
4, 51078, Note_on_c, 2, 62, 78
4, 51182, Note_off_c, 2, 62, 64
4, 51188, Note_on_c, 2, 61, 70
4, 51301, Note_off_c, 2, 61, 64
4, 51325, Note_on_c, 2, 59, 66
4, 51438, Note_off_c, 2, 59, 64
4, 51438, Note_on_c, 2, 61, 68
4, 51551, Note_off_c, 2, 61, 64
4, 51565, Note_on_c, 2, 62, 64
4, 51658, Note_off_c, 2, 62, 64
4, 51680, Note_on_c, 2, 64, 66
4, 51766, Note_off_c, 2, 64, 64
4, 51800, Note_on_c, 2, 66, 72
4, 51914, Note_off_c, 2, 66, 64
4, 51919, Note_on_c, 2, 68, 60
4, 52005, Note_off_c, 2, 68, 64
4, 52045, Note_on_c, 2, 69, 70
4, 52140, Note_off_c, 2, 69, 64
4, 52162, Note_on_c, 2, 66, 62
4, 52253, Note_off_c, 2, 66, 64
4, 52295, Note_on_c, 2, 68, 91
4, 52410, Note_on_c, 2, 69, 85
4, 52428, Note_off_c, 2, 68, 64
4, 52508, Note_off_c, 2, 69, 64
4, 52538, Note_on_c, 2, 71, 76
4, 52631, Note_off_c, 2, 71, 64
4, 52654, Note_on_c, 2, 68, 66
4, 52741, Note_off_c, 2, 68, 64
4, 52789, Note_on_c, 2, 69, 82
4, 53369, Note_off_c, 2, 69, 64
4, 53404, Note_on_c, 2, 68, 76
4, 53498, Note_off_c, 2, 68, 64
4, 53519, Note_on_c, 2, 69, 76
4, 53606, Note_off_c, 2, 69, 64
4, 53620, Note_on_c, 2, 71, 72
4, 53698, Note_off_c, 2, 71, 64
4, 53749, Note_on_c, 2, 69, 91
4, 53860, Note_on_c, 2, 68, 85
4, 53871, Note_off_c, 2, 69, 64
4, 53946, Note_off_c, 2, 68, 64
4, 53979, Note_on_c, 2, 66, 78
4, 54061, Note_off_c, 2, 66, 64
4, 54090, Note_on_c, 2, 69, 80
4, 54183, Note_off_c, 2, 69, 64
4, 54223, Note_on_c, 2, 68, 91
4, 54325, Note_off_c, 2, 68, 64
4, 54329, Note_on_c, 2, 66, 66
4, 54449, Note_off_c, 2, 66, 64
4, 54449, Note_on_c, 2, 65, 76
4, 54571, Note_on_c, 2, 68, 70
4, 54582, Note_off_c, 2, 65, 64
4, 54670, Note_off_c, 2, 68, 64
4, 54699, Note_on_c, 2, 66, 74
4, 54814, Note_off_c, 2, 66, 64
4, 54943, Note_on_c, 2, 69, 82
4, 55036, Note_off_c, 2, 69, 64
4, 55184, Note_on_c, 2, 73, 87
4, 55283, Note_off_c, 2, 73, 64
4, 55430, Note_on_c, 2, 69, 82
4, 55514, Note_off_c, 2, 69, 64
4, 55660, Note_on_c, 2, 68, 66
4, 55874, Note_off_c, 2, 68, 64
4, 55916, Note_on_c, 2, 70, 91
4, 56011, Note_off_c, 2, 70, 64
4, 56016, Note_on_c, 2, 71, 85
4, 56100, Note_off_c, 2, 71, 64
4, 56140, Note_on_c, 2, 73, 87
4, 56231, Note_off_c, 2, 73, 64
4, 56368, Note_on_c, 2, 70, 68
4, 56465, Note_off_c, 2, 70, 64
4, 56616, Note_on_c, 2, 66, 76
4, 56715, Note_off_c, 2, 66, 64
4, 56877, Note_on_c, 2, 71, 82
4, 56957, Note_off_c, 2, 71, 64
4, 57129, Note_on_c, 2, 74, 78
4, 57211, Note_off_c, 2, 74, 64
4, 57351, Note_on_c, 2, 67, 82
4, 57444, Note_off_c, 2, 67, 64
4, 57597, Note_on_c, 2, 62, 59
4, 57703, Note_off_c, 2, 62, 64
4, 57829, Note_on_c, 2, 69, 82
4, 57926, Note_off_c, 2, 69, 64
4, 58070, Note_on_c, 2, 62, 85
4, 58163, Note_off_c, 2, 62, 64
4, 58318, Note_on_c, 2, 64, 85
4, 58405, Note_off_c, 2, 64, 64
4, 58555, Note_on_c, 2, 57, 80
4, 58648, Note_off_c, 2, 57, 64
4, 58796, Note_on_c, 2, 61, 80
4, 58880, Note_off_c, 2, 61, 64
4, 59051, Note_on_c, 2, 64, 85
4, 59609, Note_off_c, 2, 64, 64
4, 59748, Note_on_c, 2, 71, 82
4, 59837, Note_off_c, 2, 71, 64
4, 59990, Note_on_c, 2, 64, 85
4, 60083, Note_off_c, 2, 64, 64
4, 60224, Note_on_c, 2, 66, 85
4, 60311, Note_off_c, 2, 66, 64
4, 60472, Note_on_c, 2, 59, 85
4, 60576, Note_off_c, 2, 59, 64
4, 60705, Note_on_c, 2, 62, 78
4, 60813, Note_off_c, 2, 62, 64
4, 60950, Note_on_c, 2, 66, 78
4, 61030, Note_off_c, 2, 66, 64
4, 61185, Note_on_c, 2, 71, 85
4, 61280, Note_off_c, 2, 71, 64
4, 61422, Note_on_c, 2, 67, 82
4, 61515, Note_off_c, 2, 67, 64
4, 61661, Note_on_c, 2, 69, 85
4, 61745, Note_off_c, 2, 69, 64
4, 61911, Note_on_c, 2, 57, 80
4, 61995, Note_off_c, 2, 57, 64
4, 62148, Note_on_c, 2, 69, 87
4, 62464, Note_off_c, 2, 69, 64
4, 62502, Note_on_c, 2, 67, 80
4, 62588, Note_off_c, 2, 67, 64
4, 62621, Note_on_c, 2, 66, 66
4, 62714, Note_off_c, 2, 66, 64
4, 62719, Note_on_c, 2, 64, 76
4, 62805, Note_off_c, 2, 64, 64
4, 62841, Note_on_c, 2, 62, 80
4, 62947, Note_off_c, 2, 62, 64
4, 63080, Note_on_c, 2, 66, 78
4, 63182, Note_off_c, 2, 66, 64
4, 63334, Note_on_c, 2, 59, 82
4, 63441, Note_off_c, 2, 59, 64
4, 63580, Note_on_c, 2, 62, 85
4, 63669, Note_off_c, 2, 62, 64
4, 63825, Note_on_c, 2, 67, 80
4, 63918, Note_off_c, 2, 67, 64
4, 64054, Note_on_c, 2, 61, 80
4, 64149, Note_off_c, 2, 61, 64
4, 64313, Note_on_c, 2, 54, 82
4, 64412, Note_off_c, 2, 54, 64
4, 64419, Note_on_c, 2, 61, 80
4, 64540, Note_off_c, 2, 61, 64
4, 64543, Note_on_c, 2, 62, 87
4, 64649, Note_off_c, 2, 62, 64
4, 64665, Note_on_c, 2, 64, 74
4, 64740, Note_off_c, 2, 64, 64
4, 64777, Note_on_c, 2, 66, 85
4, 64870, Note_off_c, 2, 66, 64
4, 64888, Note_on_c, 2, 67, 76
4, 64977, Note_off_c, 2, 67, 64
4, 65012, Note_on_c, 2, 66, 66
4, 65099, Note_off_c, 2, 66, 64
4, 65125, Note_on_c, 2, 64, 70
4, 65202, Note_off_c, 2, 64, 64
4, 65264, Note_on_c, 2, 63, 76
4, 65386, Note_off_c, 2, 63, 64
4, 65512, Note_on_c, 2, 66, 78
4, 65593, Note_off_c, 2, 66, 64
4, 65751, Note_on_c, 2, 71, 85
4, 65851, Note_off_c, 2, 71, 64
4, 65988, Note_on_c, 2, 66, 80
4, 66070, Note_off_c, 2, 66, 64
4, 66225, Note_on_c, 2, 59, 80
4, 66378, Note_off_c, 2, 59, 64
4, 66462, Note_on_c, 2, 64, 85
4, 66571, Note_off_c, 2, 64, 64
4, 66571, Note_on_c, 2, 66, 78
4, 66654, Note_off_c, 2, 66, 64
4, 66695, Note_on_c, 2, 67, 82
4, 66792, Note_off_c, 2, 67, 64
4, 66799, Note_on_c, 2, 69, 70
4, 66909, Note_off_c, 2, 69, 64
4, 66925, Note_on_c, 2, 67, 76
4, 67011, Note_off_c, 2, 67, 64
4, 67035, Note_on_c, 2, 66, 68
4, 67119, Note_off_c, 2, 66, 64
4, 67162, Note_on_c, 2, 64, 72
4, 67567, Note_off_c, 2, 64, 64
4, 67662, Note_on_c, 2, 69, 82
4, 68308, Note_off_c, 2, 69, 64
4, 68383, Note_on_c, 2, 67, 80
4, 68492, Note_off_c, 2, 67, 64
4, 68620, Note_on_c, 2, 69, 80
4, 68716, Note_off_c, 2, 69, 64
4, 68853, Note_on_c, 2, 72, 78
4, 68957, Note_off_c, 2, 72, 64
4, 69101, Note_on_c, 2, 71, 82
4, 69202, Note_off_c, 2, 71, 64
4, 69338, Note_on_c, 2, 64, 80
4, 69442, Note_off_c, 2, 64, 64
4, 69601, Note_on_c, 2, 71, 87
4, 70159, Note_off_c, 2, 71, 64
4, 70285, Note_on_c, 2, 64, 80
4, 70389, Note_off_c, 2, 64, 64
4, 70389, Note_on_c, 2, 66, 82
4, 70486, Note_off_c, 2, 66, 64
4, 70524, Note_on_c, 2, 67, 85
4, 70635, Note_off_c, 2, 67, 64
4, 70640, Note_on_c, 2, 66, 68
4, 70725, Note_off_c, 2, 66, 64
4, 70778, Note_on_c, 2, 67, 80
4, 70861, Note_off_c, 2, 67, 64
4, 71017, Note_on_c, 2, 66, 87
4, 71270, Note_off_c, 2, 66, 64
4, 71363, Note_on_c, 2, 64, 80
4, 71427, Note_off_c, 2, 64, 64
4, 71482, Note_on_c, 2, 66, 89
4, 71541, Note_on_c, 2, 64, 82
4, 71547, Note_off_c, 2, 66, 64
4, 71595, Note_on_c, 2, 66, 78
4, 71600, Note_off_c, 2, 64, 64
4, 71639, Note_on_c, 2, 64, 78
4, 71668, Note_off_c, 2, 66, 64
4, 71741, Note_off_c, 2, 64, 64
4, 71837, Note_on_c, 2, 62, 82
4, 71898, Note_off_c, 2, 62, 64
4, 71975, Note_on_c, 2, 62, 76
4, 72474, Note_off_c, 2, 62, 64
4, 76536, Note_on_c, 2, 59, 58
4, 76675, Note_off_c, 2, 59, 64
4, 76800, Note_on_c, 2, 66, 59
4, 80166, Note_off_c, 2, 66, 64
4, 110874, Note_on_c, 2, 62, 61
4, 111195, Note_off_c, 2, 62, 64
4, 111355, Note_on_c, 2, 61, 58
4, 111877, Note_off_c, 2, 61, 64
4, 112793, Note_on_c, 2, 64, 57
4, 113140, Note_off_c, 2, 64, 64
4, 113287, Note_on_c, 2, 62, 58
4, 113785, Note_off_c, 2, 62, 64
4, 114710, Note_on_c, 2, 69, 51
4, 115069, Note_off_c, 2, 69, 64
4, 115182, Note_on_c, 2, 67, 49
4, 115713, Note_off_c, 2, 67, 64
4, 116590, Note_on_c, 2, 71, 59
4, 116928, Note_off_c, 2, 71, 64
4, 117098, Note_on_c, 2, 71, 62
4, 117645, Note_off_c, 2, 71, 64
4, 117687, Note_on_c, 2, 69, 78
4, 117804, Note_on_c, 2, 67, 74
4, 117813, Note_off_c, 2, 69, 64
4, 117904, Note_off_c, 2, 67, 64
4, 117915, Note_on_c, 2, 66, 78
4, 117997, Note_off_c, 2, 66, 64
4, 118052, Note_on_c, 2, 67, 87
4, 118165, Note_on_c, 2, 69, 82
4, 118177, Note_off_c, 2, 67, 64
4, 118261, Note_off_c, 2, 69, 64
4, 118289, Note_on_c, 2, 71, 78
4, 118382, Note_off_c, 2, 71, 64
4, 118396, Note_on_c, 2, 67, 80
4, 118488, Note_off_c, 2, 67, 64
4, 118531, Note_on_c, 2, 69, 76
4, 118644, Note_on_c, 2, 71, 85
4, 118654, Note_off_c, 2, 69, 64
4, 118723, Note_off_c, 2, 71, 64
4, 118763, Note_on_c, 2, 72, 72
4, 118851, Note_off_c, 2, 72, 64
4, 118871, Note_on_c, 2, 69, 70
4, 118949, Note_off_c, 2, 69, 64
4, 119018, Note_on_c, 2, 76, 85
4, 119117, Note_off_c, 2, 76, 64
4, 119254, Note_on_c, 2, 71, 82
4, 119358, Note_off_c, 2, 71, 64
4, 119494, Note_on_c, 2, 67, 80
4, 119597, Note_off_c, 2, 67, 64
4, 119732, Note_on_c, 2, 71, 82
4, 119832, Note_off_c, 2, 71, 64
4, 119972, Note_on_c, 2, 69, 70
4, 120085, Note_off_c, 2, 69, 64
4, 120213, Note_on_c, 2, 71, 80
4, 120310, Note_off_c, 2, 71, 64
4, 120456, Note_on_c, 2, 72, 76
4, 120547, Note_off_c, 2, 72, 64
4, 120693, Note_on_c, 2, 66, 78
4, 120810, Note_off_c, 2, 66, 64
4, 120957, Note_on_c, 2, 71, 89
4, 121061, Note_on_c, 2, 72, 70
4, 121086, Note_off_c, 2, 71, 64
4, 121163, Note_off_c, 2, 72, 64
4, 121182, Note_on_c, 2, 71, 60
4, 121282, Note_on_c, 2, 69, 70
4, 121304, Note_off_c, 2, 71, 64
4, 121368, Note_off_c, 2, 69, 64
4, 121406, Note_on_c, 2, 71, 82
4, 121532, Note_on_c, 2, 69, 68
4, 121537, Note_off_c, 2, 71, 64
4, 121625, Note_off_c, 2, 69, 64
4, 121645, Note_on_c, 2, 67, 66
4, 121736, Note_off_c, 2, 67, 64
4, 121749, Note_on_c, 2, 66, 70
4, 121836, Note_off_c, 2, 66, 64
4, 121880, Note_on_c, 2, 64, 78
4, 121968, Note_off_c, 2, 64, 64
4, 122125, Note_on_c, 2, 69, 82
4, 122203, Note_off_c, 2, 69, 64
4, 122364, Note_on_c, 2, 69, 74
4, 122447, Note_off_c, 2, 69, 64
4, 122601, Note_on_c, 2, 69, 70
4, 122688, Note_off_c, 2, 69, 64
4, 122825, Note_on_c, 2, 69, 70
4, 123040, Note_off_c, 2, 69, 64
4, 123082, Note_on_c, 2, 74, 87
4, 123188, Note_on_c, 2, 73, 89
4, 123212, Note_off_c, 2, 74, 64
4, 123294, Note_off_c, 2, 73, 64
4, 123303, Note_on_c, 2, 71, 85
4, 123416, Note_on_c, 2, 69, 82
4, 123425, Note_off_c, 2, 71, 64
4, 123529, Note_off_c, 2, 69, 64
4, 123531, Note_on_c, 2, 67, 66
4, 123600, Note_off_c, 2, 67, 64
4, 123637, Note_on_c, 2, 66, 66
4, 123733, Note_off_c, 2, 66, 64
4, 123785, Note_on_c, 2, 67, 74
4, 124116, Note_off_c, 2, 67, 64
4, 124284, Note_on_c, 2, 66, 80
4, 124588, Note_off_c, 2, 66, 64
4, 124780, Note_on_c, 2, 66, 80
4, 125107, Note_off_c, 2, 66, 64
4, 126466, Note_on_c, 2, 71, 82
4, 126550, Note_off_c, 2, 71, 64
4, 126712, Note_on_c, 2, 72, 82
4, 126803, Note_off_c, 2, 72, 64
4, 126953, Note_on_c, 2, 71, 82
4, 127327, Note_off_c, 2, 71, 64
4, 127422, Note_on_c, 2, 69, 68
4, 127573, Note_off_c, 2, 69, 64
4, 127670, Note_on_c, 2, 71, 85
4, 127774, Note_on_c, 2, 69, 80
4, 127784, Note_off_c, 2, 71, 64
4, 127876, Note_off_c, 2, 69, 64
4, 127887, Note_on_c, 2, 67, 85
4, 127992, Note_off_c, 2, 67, 64
4, 127993, Note_on_c, 2, 69, 80
4, 128089, Note_off_c, 2, 69, 64
4, 128124, Note_on_c, 2, 71, 85
4, 128226, Note_off_c, 2, 71, 64
4, 128366, Note_on_c, 2, 64, 76
4, 128459, Note_off_c, 2, 64, 64
4, 128618, Note_on_c, 2, 69, 85
4, 128704, Note_off_c, 2, 69, 64
4, 128857, Note_on_c, 2, 67, 82
4, 129224, Note_off_c, 2, 67, 64
4, 129335, Note_on_c, 2, 66, 76
4, 129470, Note_off_c, 2, 66, 64
4, 129577, Note_on_c, 2, 67, 93
4, 129683, Note_on_c, 2, 69, 82
4, 129702, Note_off_c, 2, 67, 64
4, 129784, Note_off_c, 2, 69, 64
4, 129804, Note_on_c, 2, 67, 76
4, 129919, Note_on_c, 2, 66, 80
4, 129920, Note_off_c, 2, 67, 64
4, 130021, Note_off_c, 2, 66, 64
4, 130048, Note_on_c, 2, 64, 78
4, 130163, Note_on_c, 2, 66, 72
4, 130170, Note_off_c, 2, 64, 64
4, 130274, Note_off_c, 2, 66, 64
4, 130291, Note_on_c, 2, 67, 80
4, 130407, Note_on_c, 2, 69, 78
4, 130409, Note_off_c, 2, 67, 64
4, 130502, Note_off_c, 2, 69, 64
4, 130526, Note_on_c, 2, 71, 87
4, 130647, Note_on_c, 2, 73, 80
4, 130650, Note_off_c, 2, 71, 64
4, 130752, Note_off_c, 2, 73, 64
4, 130767, Note_on_c, 2, 74, 85
4, 130863, Note_off_c, 2, 74, 64
4, 130873, Note_on_c, 2, 71, 80
4, 130973, Note_off_c, 2, 71, 64
4, 130998, Note_on_c, 2, 73, 82
4, 131106, Note_off_c, 2, 73, 64
4, 131117, Note_on_c, 2, 74, 85
4, 131206, Note_off_c, 2, 74, 64
4, 131237, Note_on_c, 2, 76, 82
4, 131338, Note_off_c, 2, 76, 64
4, 131354, Note_on_c, 2, 73, 76
4, 131443, Note_off_c, 2, 73, 64
4, 131491, Note_on_c, 2, 74, 82
4, 132078, Note_off_c, 2, 74, 64
4, 132100, Note_on_c, 2, 73, 74
4, 132189, Note_off_c, 2, 73, 64
4, 132215, Note_on_c, 2, 74, 82
4, 132312, Note_off_c, 2, 74, 64
4, 132328, Note_on_c, 2, 76, 80
4, 132401, Note_off_c, 2, 76, 64
4, 132463, Note_on_c, 2, 74, 93
4, 132578, Note_on_c, 2, 73, 80
4, 132585, Note_off_c, 2, 74, 64
4, 132667, Note_off_c, 2, 73, 64
4, 132695, Note_on_c, 2, 71, 70
4, 132775, Note_off_c, 2, 71, 64
4, 132800, Note_on_c, 2, 74, 68
4, 132877, Note_off_c, 2, 74, 64
4, 132930, Note_on_c, 2, 73, 95
4, 133036, Note_off_c, 2, 73, 64
4, 133039, Note_on_c, 2, 71, 74
4, 133134, Note_off_c, 2, 71, 64
4, 133154, Note_on_c, 2, 70, 70
4, 133244, Note_off_c, 2, 70, 64
4, 133258, Note_on_c, 2, 73, 59
4, 133373, Note_off_c, 2, 73, 64
4, 133408, Note_on_c, 2, 71, 89
4, 133556, Note_off_c, 2, 71, 64
4, 133656, Note_on_c, 2, 62, 80
4, 133742, Note_on_c, 2, 64, 82
4, 133754, Note_off_c, 2, 62, 64
4, 133835, Note_off_c, 2, 64, 64
4, 133877, Note_on_c, 2, 66, 82
4, 134101, Note_off_c, 2, 66, 64
4, 137982, Note_on_c, 2, 59, 59
4, 138143, Note_off_c, 2, 59, 64
4, 138221, Note_on_c, 2, 66, 59
4, 141222, Note_on_c, 2, 65, 70
4, 141247, Note_off_c, 2, 66, 64
4, 141340, Note_on_c, 2, 66, 70
4, 141373, Note_off_c, 2, 65, 64
4, 141452, Note_on_c, 2, 68, 72
4, 141468, Note_off_c, 2, 66, 64
4, 141579, Note_on_c, 2, 70, 66
4, 141607, Note_off_c, 2, 68, 64
4, 141660, Note_off_c, 2, 70, 64
4, 141691, Note_on_c, 2, 71, 76
4, 141800, Note_off_c, 2, 71, 64
4, 141829, Note_on_c, 2, 73, 87
4, 141953, Note_off_c, 2, 73, 64
4, 142074, Note_on_c, 2, 71, 87
4, 142172, Note_off_c, 2, 71, 64
4, 142309, Note_on_c, 2, 66, 78
4, 142406, Note_off_c, 2, 66, 64
4, 142547, Note_on_c, 2, 71, 85
4, 142637, Note_off_c, 2, 71, 64
4, 142772, Note_on_c, 2, 64, 70
4, 142840, Note_off_c, 2, 64, 64
4, 143015, Note_on_c, 2, 64, 82
4, 143119, Note_off_c, 2, 64, 64
4, 143261, Note_on_c, 2, 69, 72
4, 143365, Note_off_c, 2, 69, 64
4, 143504, Note_on_c, 2, 73, 80
4, 143599, Note_off_c, 2, 73, 64
4, 143737, Note_on_c, 2, 69, 82
4, 143827, Note_off_c, 2, 69, 64
4, 143983, Note_on_c, 2, 66, 70
4, 144314, Note_off_c, 2, 66, 64
4, 144456, Note_on_c, 2, 59, 66
4, 144562, Note_off_c, 2, 59, 64
4, 144697, Note_on_c, 2, 66, 80
4, 144799, Note_off_c, 2, 66, 64
4, 144934, Note_on_c, 2, 64, 70
4, 145042, Note_off_c, 2, 64, 64
4, 145178, Note_on_c, 2, 67, 82
4, 145284, Note_off_c, 2, 67, 64
4, 145421, Note_on_c, 2, 67, 74
4, 145524, Note_off_c, 2, 67, 64
4, 145656, Note_on_c, 2, 71, 80
4, 145760, Note_off_c, 2, 71, 64
4, 145891, Note_on_c, 2, 69, 82
4, 146223, Note_off_c, 2, 69, 64
4, 146353, Note_on_c, 2, 57, 74
4, 146448, Note_off_c, 2, 57, 64
4, 146603, Note_on_c, 2, 64, 80
4, 146705, Note_off_c, 2, 64, 64
4, 146858, Note_on_c, 2, 62, 76
4, 146969, Note_on_c, 2, 61, 78
4, 146977, Note_off_c, 2, 62, 64
4, 147075, Note_off_c, 2, 61, 64
4, 147088, Note_on_c, 2, 62, 68
4, 147196, Note_off_c, 2, 62, 64
4, 147201, Note_on_c, 2, 64, 72
4, 147305, Note_off_c, 2, 64, 64
4, 147327, Note_on_c, 2, 66, 64
4, 147417, Note_off_c, 2, 66, 64
4, 147443, Note_on_c, 2, 67, 72
4, 147517, Note_off_c, 2, 67, 64
4, 147575, Note_on_c, 2, 69, 80
4, 147697, Note_off_c, 2, 69, 64
4, 147845, Note_on_c, 2, 57, 52
4, 148354, Note_off_c, 2, 57, 64
4, 148565, Note_on_c, 2, 59, 66
4, 148675, Note_off_c, 2, 59, 64
4, 148812, Note_on_c, 2, 61, 63
4, 149320, Note_off_c, 2, 61, 64
4, 149510, Note_on_c, 2, 61, 64
4, 149618, Note_off_c, 2, 61, 64
4, 149758, Note_on_c, 2, 62, 64
4, 150282, Note_off_c, 2, 62, 64
4, 150453, Note_on_c, 2, 66, 63
4, 150546, Note_off_c, 2, 66, 64
4, 150709, Note_on_c, 2, 69, 61
4, 151196, Note_off_c, 2, 69, 64
4, 179739, Note_on_c, 2, 71, 87
4, 179825, Note_off_c, 2, 71, 64
4, 179976, Note_on_c, 2, 59, 78
4, 180067, Note_off_c, 2, 59, 64
4, 180211, Note_on_c, 2, 71, 87
4, 180286, Note_off_c, 2, 71, 64
4, 180476, Note_on_c, 2, 71, 98
4, 180552, Note_off_c, 2, 71, 64
4, 180946, Note_on_c, 2, 71, 85
4, 181027, Note_off_c, 2, 71, 64
4, 181419, Note_on_c, 2, 69, 93
4, 181507, Note_off_c, 2, 69, 64
4, 182148, Note_on_c, 2, 69, 85
4, 182218, Note_off_c, 2, 69, 64
4, 182378, Note_on_c, 2, 69, 89
4, 182457, Note_off_c, 2, 69, 64
4, 182869, Note_on_c, 2, 69, 93
4, 182949, Note_off_c, 2, 69, 64
4, 183356, Note_on_c, 2, 67, 78
4, 183443, Note_off_c, 2, 67, 64
4, 184049, Note_on_c, 2, 67, 80
4, 184113, Note_off_c, 2, 67, 64
4, 184295, Note_on_c, 2, 67, 82
4, 184374, Note_off_c, 2, 67, 64
4, 184780, Note_on_c, 2, 67, 82
4, 184870, Note_off_c, 2, 67, 64
4, 185273, Note_on_c, 2, 66, 89
4, 185362, Note_off_c, 2, 66, 64
4, 185999, Note_on_c, 2, 66, 82
4, 186075, Note_off_c, 2, 66, 64
4, 186251, Note_on_c, 2, 66, 95
4, 186345, Note_on_c, 2, 67, 74
4, 186349, Note_off_c, 2, 66, 64
4, 186435, Note_off_c, 2, 67, 64
4, 186455, Note_on_c, 2, 66, 70
4, 186548, Note_off_c, 2, 66, 64
4, 186573, Note_on_c, 2, 64, 60
4, 186657, Note_off_c, 2, 64, 64
4, 186688, Note_on_c, 2, 62, 72
4, 186780, Note_off_c, 2, 62, 64
4, 186925, Note_on_c, 2, 66, 64
4, 187009, Note_off_c, 2, 66, 64
4, 187175, Note_on_c, 2, 64, 72
4, 187256, Note_off_c, 2, 64, 64
4, 187409, Note_on_c, 2, 69, 76
4, 187482, Note_off_c, 2, 69, 64
4, 187646, Note_on_c, 2, 57, 70
4, 187728, Note_off_c, 2, 57, 64
4, 187894, Note_on_c, 2, 69, 91
4, 188224, Note_off_c, 2, 69, 64
4, 188256, Note_on_c, 2, 67, 80
4, 188335, Note_off_c, 2, 67, 64
4, 188368, Note_on_c, 2, 66, 66
4, 188458, Note_off_c, 2, 66, 64
4, 188489, Note_on_c, 2, 64, 66
4, 188565, Note_off_c, 2, 64, 64
4, 188608, Note_on_c, 2, 62, 76
4, 188713, Note_off_c, 2, 62, 64
4, 188850, Note_on_c, 2, 66, 78
4, 188923, Note_off_c, 2, 66, 64
4, 189089, Note_on_c, 2, 59, 74
4, 189184, Note_off_c, 2, 59, 64
4, 189339, Note_on_c, 2, 62, 80
4, 189426, Note_off_c, 2, 62, 64
4, 189581, Note_on_c, 2, 67, 80
4, 189660, Note_off_c, 2, 67, 64
4, 189822, Note_on_c, 2, 61, 85
4, 189905, Note_off_c, 2, 61, 64
4, 190066, Note_on_c, 2, 54, 68
4, 190158, Note_off_c, 2, 54, 64
4, 190181, Note_on_c, 2, 61, 68
4, 190283, Note_off_c, 2, 61, 64
4, 190309, Note_on_c, 2, 62, 66
4, 190409, Note_off_c, 2, 62, 64
4, 190413, Note_on_c, 2, 64, 76
4, 190477, Note_off_c, 2, 64, 64
4, 190531, Note_on_c, 2, 66, 85
4, 190645, Note_on_c, 2, 67, 66
4, 190648, Note_off_c, 2, 66, 64
4, 190725, Note_off_c, 2, 67, 64
4, 190767, Note_on_c, 2, 66, 63
4, 190858, Note_off_c, 2, 66, 64
4, 190874, Note_on_c, 2, 64, 58
4, 190958, Note_off_c, 2, 64, 64
4, 191015, Note_on_c, 2, 63, 74
4, 191110, Note_off_c, 2, 63, 64
4, 191252, Note_on_c, 2, 66, 85
4, 191338, Note_off_c, 2, 66, 64
4, 191491, Note_on_c, 2, 71, 85
4, 191578, Note_off_c, 2, 71, 64
4, 191723, Note_on_c, 2, 66, 82
4, 191819, Note_off_c, 2, 66, 64
4, 191969, Note_on_c, 2, 59, 82
4, 192095, Note_off_c, 2, 59, 64
4, 192213, Note_on_c, 2, 64, 78
4, 192299, Note_off_c, 2, 64, 64
4, 192324, Note_on_c, 2, 66, 80
4, 192407, Note_off_c, 2, 66, 64
4, 192448, Note_on_c, 2, 67, 85
4, 192545, Note_off_c, 2, 67, 64
4, 192554, Note_on_c, 2, 69, 70
4, 192655, Note_off_c, 2, 69, 64
4, 192673, Note_on_c, 2, 67, 74
4, 192753, Note_off_c, 2, 67, 64
4, 192784, Note_on_c, 2, 66, 78
4, 192866, Note_off_c, 2, 66, 64
4, 192925, Note_on_c, 2, 64, 85
4, 193320, Note_off_c, 2, 64, 64
4, 193408, Note_on_c, 2, 69, 80
4, 194032, Note_off_c, 2, 69, 64
4, 194132, Note_on_c, 2, 67, 80
4, 194243, Note_off_c, 2, 67, 64
4, 194369, Note_on_c, 2, 69, 74
4, 194469, Note_off_c, 2, 69, 64
4, 194610, Note_on_c, 2, 72, 76
4, 194739, Note_off_c, 2, 72, 64
4, 194845, Note_on_c, 2, 71, 87
4, 194958, Note_off_c, 2, 71, 64
4, 195090, Note_on_c, 2, 64, 80
4, 195192, Note_off_c, 2, 64, 64
4, 195340, Note_on_c, 2, 71, 85
4, 195898, Note_off_c, 2, 71, 64
4, 196062, Note_on_c, 2, 64, 85
4, 196160, Note_off_c, 2, 64, 64
4, 196173, Note_on_c, 2, 66, 82
4, 196259, Note_off_c, 2, 66, 64
4, 196293, Note_on_c, 2, 67, 87
4, 196392, Note_off_c, 2, 67, 64
4, 196397, Note_on_c, 2, 66, 70
4, 196487, Note_off_c, 2, 66, 64
4, 196531, Note_on_c, 2, 67, 89
4, 196624, Note_off_c, 2, 67, 64
4, 196768, Note_on_c, 2, 66, 85
4, 196996, Note_off_c, 2, 66, 64
4, 197138, Note_on_c, 2, 71, 85
4, 197187, Note_off_c, 2, 71, 64
4, 197238, Note_on_c, 2, 71, 80
4, 197282, Note_on_c, 2, 70, 78
4, 197298, Note_off_c, 2, 71, 64
4, 197344, Note_on_c, 2, 71, 76
4, 197357, Note_off_c, 2, 70, 64
4, 197396, Note_on_c, 2, 70, 66
4, 197424, Note_off_c, 2, 71, 64
4, 197492, Note_off_c, 2, 70, 64
4, 197605, Note_on_c, 2, 71, 80
4, 197674, Note_off_c, 2, 71, 64
4, 197729, Note_on_c, 2, 63, 72
4, 197833, Note_off_c, 2, 63, 64
4, 197984, Note_on_c, 2, 59, 78
4, 198081, Note_off_c, 2, 59, 64
4, 198231, Note_on_c, 2, 66, 80
4, 198324, Note_off_c, 2, 66, 64
4, 198471, Note_on_c, 2, 66, 80
4, 198554, Note_off_c, 2, 66, 64
4, 198716, Note_on_c, 2, 59, 78
4, 198851, Note_off_c, 2, 59, 64
4, 198942, Note_on_c, 2, 71, 82
4, 199051, Note_on_c, 2, 69, 80
4, 199072, Note_off_c, 2, 71, 64
4, 199124, Note_off_c, 2, 69, 64
4, 199158, Note_on_c, 2, 67, 82
4, 199259, Note_off_c, 2, 67, 64
4, 199276, Note_on_c, 2, 66, 70
4, 199354, Note_off_c, 2, 66, 64
4, 199403, Note_on_c, 2, 67, 68
4, 199496, Note_off_c, 2, 67, 64
4, 199507, Note_on_c, 2, 64, 70
4, 199594, Note_off_c, 2, 64, 64
4, 199650, Note_on_c, 2, 69, 89
4, 199750, Note_off_c, 2, 69, 64
4, 199754, Note_on_c, 2, 67, 70
4, 199858, Note_off_c, 2, 67, 64
4, 199881, Note_on_c, 2, 66, 58
4, 199980, Note_off_c, 2, 66, 64
4, 200002, Note_on_c, 2, 67, 64
4, 200084, Note_off_c, 2, 67, 64
4, 200129, Note_on_c, 2, 69, 78
4, 200231, Note_off_c, 2, 69, 64
4, 200250, Note_on_c, 2, 67, 76
4, 200345, Note_off_c, 2, 67, 64
4, 200366, Note_on_c, 2, 69, 70
4, 200450, Note_off_c, 2, 69, 64
4, 200473, Note_on_c, 2, 66, 66
4, 200545, Note_off_c, 2, 66, 64
4, 200600, Note_on_c, 2, 67, 85
4, 200713, Note_on_c, 2, 69, 78
4, 200718, Note_off_c, 2, 67, 64
4, 200839, Note_on_c, 2, 71, 68
4, 200866, Note_off_c, 2, 69, 64
4, 200937, Note_off_c, 2, 71, 64
4, 200954, Note_on_c, 2, 69, 85
4, 201036, Note_off_c, 2, 69, 64
4, 201072, Note_on_c, 2, 67, 76
4, 201174, Note_off_c, 2, 67, 64
4, 201184, Note_on_c, 2, 66, 63
4, 201271, Note_off_c, 2, 66, 64
4, 201311, Note_on_c, 2, 67, 74
4, 201423, Note_off_c, 2, 67, 64
4, 201423, Note_on_c, 2, 64, 72
4, 201510, Note_off_c, 2, 64, 64
4, 201560, Note_on_c, 2, 69, 87
4, 201672, Note_on_c, 2, 67, 82
4, 201674, Note_off_c, 2, 69, 64
4, 201769, Note_off_c, 2, 67, 64
4, 201796, Note_on_c, 2, 66, 64
4, 201891, Note_off_c, 2, 66, 64
4, 201919, Note_on_c, 2, 64, 72
4, 202006, Note_off_c, 2, 64, 64
4, 202041, Note_on_c, 2, 63, 70
4, 202147, Note_off_c, 2, 63, 64
4, 202165, Note_on_c, 2, 64, 66
4, 202256, Note_off_c, 2, 64, 64
4, 202298, Note_on_c, 2, 66, 66
4, 202375, Note_off_c, 2, 66, 64
4, 202402, Note_on_c, 2, 67, 70
4, 202480, Note_off_c, 2, 67, 64
4, 202537, Note_on_c, 2, 69, 87
4, 202644, Note_off_c, 2, 69, 64
4, 202650, Note_on_c, 2, 71, 72
4, 202750, Note_off_c, 2, 71, 64
4, 202769, Note_on_c, 2, 69, 72
4, 202856, Note_off_c, 2, 69, 64
4, 202889, Note_on_c, 2, 67, 72
4, 203000, Note_off_c, 2, 67, 64
4, 203002, Note_on_c, 2, 66, 72
4, 203082, Note_off_c, 2, 66, 64
4, 203123, Note_on_c, 2, 63, 64
4, 203212, Note_off_c, 2, 63, 64
4, 203237, Note_on_c, 2, 64, 52
4, 203336, Note_off_c, 2, 64, 64
4, 203361, Note_on_c, 2, 66, 78
4, 203433, Note_off_c, 2, 66, 64
4, 203495, Note_on_c, 2, 59, 93
4, 203662, Note_off_c, 2, 59, 64
4, 203728, Note_on_c, 2, 64, 76
4, 203807, Note_off_c, 2, 64, 64
4, 203838, Note_on_c, 2, 66, 82
4, 203914, Note_off_c, 2, 66, 64
4, 203971, Note_on_c, 2, 67, 91
4, 204075, Note_off_c, 2, 67, 64
4, 204213, Note_on_c, 2, 64, 80
4, 204297, Note_off_c, 2, 64, 64
4, 204452, Note_on_c, 2, 69, 85
4, 204536, Note_off_c, 2, 69, 64
4, 204688, Note_on_c, 2, 61, 85
4, 204786, Note_off_c, 2, 61, 64
4, 204943, Note_on_c, 2, 64, 87
4, 205032, Note_off_c, 2, 64, 64
4, 205185, Note_on_c, 2, 57, 80
4, 205268, Note_off_c, 2, 57, 64
4, 205432, Note_on_c, 2, 69, 89
4, 205519, Note_off_c, 2, 69, 64
4, 205537, Note_on_c, 2, 71, 82
4, 205620, Note_off_c, 2, 71, 64
4, 205652, Note_on_c, 2, 69, 82
4, 205733, Note_off_c, 2, 69, 64
4, 205765, Note_on_c, 2, 67, 85
4, 205851, Note_off_c, 2, 67, 64
4, 205899, Note_on_c, 2, 66, 78
4, 206515, Note_off_c, 2, 66, 64
4, 206615, Note_on_c, 2, 66, 78
4, 206991, Note_off_c, 2, 66, 64
4, 207099, Note_on_c, 2, 66, 85
4, 207469, Note_off_c, 2, 66, 64
4, 207593, Note_on_c, 2, 70, 91
4, 207907, Note_off_c, 2, 70, 64
4, 207938, Note_on_c, 2, 71, 72
4, 208022, Note_off_c, 2, 71, 64
4, 208073, Note_on_c, 2, 73, 87
4, 208370, Note_off_c, 2, 73, 64
4, 208538, Note_on_c, 2, 66, 82
4, 208647, Note_off_c, 2, 66, 64
4, 208782, Note_on_c, 2, 66, 82
4, 208934, Note_off_c, 2, 66, 64
4, 209005, Note_on_c, 2, 64, 72
4, 209164, Note_off_c, 2, 64, 64
4, 230868, Note_on_c, 2, 66, 82
4, 230941, Note_off_c, 2, 66, 64
4, 231107, Note_on_c, 2, 67, 76
4, 231198, Note_off_c, 2, 67, 64
4, 231353, Note_on_c, 2, 66, 76
4, 231736, Note_off_c, 2, 66, 64
4, 231811, Note_on_c, 2, 64, 76
4, 231926, Note_off_c, 2, 64, 64
4, 232061, Note_on_c, 2, 66, 80
4, 232169, Note_off_c, 2, 66, 64
4, 232170, Note_on_c, 2, 64, 72
4, 232267, Note_off_c, 2, 64, 64
4, 232289, Note_on_c, 2, 62, 80
4, 232373, Note_off_c, 2, 62, 64
4, 232404, Note_on_c, 2, 64, 87
4, 232477, Note_off_c, 2, 64, 64
4, 232537, Note_on_c, 2, 66, 78
4, 232633, Note_off_c, 2, 66, 64
4, 232779, Note_on_c, 2, 59, 76
4, 232869, Note_off_c, 2, 59, 64
4, 233026, Note_on_c, 2, 64, 85
4, 233099, Note_off_c, 2, 64, 64
4, 233257, Note_on_c, 2, 62, 85
4, 233626, Note_off_c, 2, 62, 64
4, 233735, Note_on_c, 2, 61, 82
4, 233859, Note_off_c, 2, 61, 64
4, 233985, Note_on_c, 2, 62, 89
4, 234080, Note_on_c, 2, 64, 78
4, 234085, Note_off_c, 2, 62, 64
4, 234173, Note_off_c, 2, 64, 64
4, 234198, Note_on_c, 2, 62, 78
4, 234302, Note_off_c, 2, 62, 64
4, 234308, Note_on_c, 2, 61, 70
4, 234421, Note_off_c, 2, 61, 64
4, 234445, Note_on_c, 2, 59, 66
4, 234558, Note_off_c, 2, 59, 64
4, 234558, Note_on_c, 2, 61, 68
4, 234671, Note_off_c, 2, 61, 64
4, 234685, Note_on_c, 2, 62, 64
4, 234778, Note_off_c, 2, 62, 64
4, 234800, Note_on_c, 2, 64, 66
4, 234886, Note_off_c, 2, 64, 64
4, 234920, Note_on_c, 2, 66, 72
4, 235034, Note_off_c, 2, 66, 64
4, 235039, Note_on_c, 2, 68, 60
4, 235125, Note_off_c, 2, 68, 64
4, 235165, Note_on_c, 2, 69, 70
4, 235260, Note_off_c, 2, 69, 64
4, 235282, Note_on_c, 2, 66, 62
4, 235373, Note_off_c, 2, 66, 64
4, 235415, Note_on_c, 2, 68, 91
4, 235530, Note_on_c, 2, 69, 85
4, 235548, Note_off_c, 2, 68, 64
4, 235628, Note_off_c, 2, 69, 64
4, 235658, Note_on_c, 2, 71, 76
4, 235751, Note_off_c, 2, 71, 64
4, 235774, Note_on_c, 2, 68, 66
4, 235861, Note_off_c, 2, 68, 64
4, 235909, Note_on_c, 2, 69, 82
4, 236489, Note_off_c, 2, 69, 64
4, 236524, Note_on_c, 2, 68, 76
4, 236618, Note_off_c, 2, 68, 64
4, 236639, Note_on_c, 2, 69, 76
4, 236726, Note_off_c, 2, 69, 64
4, 236740, Note_on_c, 2, 71, 72
4, 236818, Note_off_c, 2, 71, 64
4, 236869, Note_on_c, 2, 69, 91
4, 236980, Note_on_c, 2, 68, 85
4, 236991, Note_off_c, 2, 69, 64
4, 237066, Note_off_c, 2, 68, 64
4, 237099, Note_on_c, 2, 66, 78
4, 237181, Note_off_c, 2, 66, 64
4, 237210, Note_on_c, 2, 69, 80
4, 237303, Note_off_c, 2, 69, 64
4, 237343, Note_on_c, 2, 68, 91
4, 237445, Note_off_c, 2, 68, 64
4, 237449, Note_on_c, 2, 66, 66
4, 237569, Note_off_c, 2, 66, 64
4, 237569, Note_on_c, 2, 65, 76
4, 237691, Note_on_c, 2, 68, 70
4, 237702, Note_off_c, 2, 65, 64
4, 237790, Note_off_c, 2, 68, 64
4, 237819, Note_on_c, 2, 66, 74
4, 237934, Note_off_c, 2, 66, 64
4, 238063, Note_on_c, 2, 69, 82
4, 238156, Note_off_c, 2, 69, 64
4, 238304, Note_on_c, 2, 73, 87
4, 238403, Note_off_c, 2, 73, 64
4, 238550, Note_on_c, 2, 69, 82
4, 238634, Note_off_c, 2, 69, 64
4, 238780, Note_on_c, 2, 68, 66
4, 238994, Note_off_c, 2, 68, 64
4, 239036, Note_on_c, 2, 70, 91
4, 239131, Note_off_c, 2, 70, 64
4, 239136, Note_on_c, 2, 71, 85
4, 239220, Note_off_c, 2, 71, 64
4, 239260, Note_on_c, 2, 73, 87
4, 239351, Note_off_c, 2, 73, 64
4, 239488, Note_on_c, 2, 70, 68
4, 239585, Note_off_c, 2, 70, 64
4, 239736, Note_on_c, 2, 66, 76
4, 239835, Note_off_c, 2, 66, 64
4, 239997, Note_on_c, 2, 71, 82
4, 240077, Note_off_c, 2, 71, 64
4, 240249, Note_on_c, 2, 74, 78
4, 240331, Note_off_c, 2, 74, 64
4, 240471, Note_on_c, 2, 67, 82
4, 240564, Note_off_c, 2, 67, 64
4, 240717, Note_on_c, 2, 62, 59
4, 240823, Note_off_c, 2, 62, 64
4, 240949, Note_on_c, 2, 69, 82
4, 241046, Note_off_c, 2, 69, 64
4, 241190, Note_on_c, 2, 62, 85
4, 241283, Note_off_c, 2, 62, 64
4, 241438, Note_on_c, 2, 64, 85
4, 241525, Note_off_c, 2, 64, 64
4, 241675, Note_on_c, 2, 57, 80
4, 241768, Note_off_c, 2, 57, 64
4, 241916, Note_on_c, 2, 61, 80
4, 242000, Note_off_c, 2, 61, 64
4, 242171, Note_on_c, 2, 64, 85
4, 242729, Note_off_c, 2, 64, 64
4, 242868, Note_on_c, 2, 71, 82
4, 242957, Note_off_c, 2, 71, 64
4, 243110, Note_on_c, 2, 64, 85
4, 243203, Note_off_c, 2, 64, 64
4, 243344, Note_on_c, 2, 66, 85
4, 243431, Note_off_c, 2, 66, 64
4, 243592, Note_on_c, 2, 59, 85
4, 243696, Note_off_c, 2, 59, 64
4, 243825, Note_on_c, 2, 62, 78
4, 243933, Note_off_c, 2, 62, 64
4, 244070, Note_on_c, 2, 66, 78
4, 244150, Note_off_c, 2, 66, 64
4, 244305, Note_on_c, 2, 71, 85
4, 244400, Note_off_c, 2, 71, 64
4, 244542, Note_on_c, 2, 67, 82
4, 244635, Note_off_c, 2, 67, 64
4, 244781, Note_on_c, 2, 69, 85
4, 244865, Note_off_c, 2, 69, 64
4, 245031, Note_on_c, 2, 57, 80
4, 245115, Note_off_c, 2, 57, 64
4, 245268, Note_on_c, 2, 69, 87
4, 245584, Note_off_c, 2, 69, 64
4, 245622, Note_on_c, 2, 67, 80
4, 245708, Note_off_c, 2, 67, 64
4, 245741, Note_on_c, 2, 66, 66
4, 245834, Note_off_c, 2, 66, 64
4, 245839, Note_on_c, 2, 64, 76
4, 245925, Note_off_c, 2, 64, 64
4, 245961, Note_on_c, 2, 62, 80
4, 246067, Note_off_c, 2, 62, 64
4, 246200, Note_on_c, 2, 66, 78
4, 246302, Note_off_c, 2, 66, 64
4, 246454, Note_on_c, 2, 59, 82
4, 246561, Note_off_c, 2, 59, 64
4, 246700, Note_on_c, 2, 62, 85
4, 246789, Note_off_c, 2, 62, 64
4, 246945, Note_on_c, 2, 67, 80
4, 247038, Note_off_c, 2, 67, 64
4, 247174, Note_on_c, 2, 61, 80
4, 247269, Note_off_c, 2, 61, 64
4, 247433, Note_on_c, 2, 54, 82
4, 247532, Note_off_c, 2, 54, 64
4, 247539, Note_on_c, 2, 61, 80
4, 247660, Note_off_c, 2, 61, 64
4, 247663, Note_on_c, 2, 62, 87
4, 247769, Note_off_c, 2, 62, 64
4, 247785, Note_on_c, 2, 64, 74
4, 247860, Note_off_c, 2, 64, 64
4, 247897, Note_on_c, 2, 66, 85
4, 247990, Note_off_c, 2, 66, 64
4, 248008, Note_on_c, 2, 67, 76
4, 248097, Note_off_c, 2, 67, 64
4, 248132, Note_on_c, 2, 66, 66
4, 248219, Note_off_c, 2, 66, 64
4, 248245, Note_on_c, 2, 64, 70
4, 248322, Note_off_c, 2, 64, 64
4, 248384, Note_on_c, 2, 63, 76
4, 248506, Note_off_c, 2, 63, 64
4, 248632, Note_on_c, 2, 66, 78
4, 248713, Note_off_c, 2, 66, 64
4, 248871, Note_on_c, 2, 71, 85
4, 248971, Note_off_c, 2, 71, 64
4, 249108, Note_on_c, 2, 66, 80
4, 249190, Note_off_c, 2, 66, 64
4, 249345, Note_on_c, 2, 59, 80
4, 249498, Note_off_c, 2, 59, 64
4, 249582, Note_on_c, 2, 64, 85
4, 249691, Note_off_c, 2, 64, 64
4, 249691, Note_on_c, 2, 66, 78
4, 249774, Note_off_c, 2, 66, 64
4, 249815, Note_on_c, 2, 67, 82
4, 249912, Note_off_c, 2, 67, 64
4, 249919, Note_on_c, 2, 69, 70
4, 250029, Note_off_c, 2, 69, 64
4, 250045, Note_on_c, 2, 67, 76
4, 250131, Note_off_c, 2, 67, 64
4, 250155, Note_on_c, 2, 66, 68
4, 250239, Note_off_c, 2, 66, 64
4, 250282, Note_on_c, 2, 64, 72
4, 250687, Note_off_c, 2, 64, 64
4, 250782, Note_on_c, 2, 69, 82
4, 251428, Note_off_c, 2, 69, 64
4, 251503, Note_on_c, 2, 67, 80
4, 251612, Note_off_c, 2, 67, 64
4, 251740, Note_on_c, 2, 69, 80
4, 251836, Note_off_c, 2, 69, 64
4, 251973, Note_on_c, 2, 72, 78
4, 252077, Note_off_c, 2, 72, 64
4, 252221, Note_on_c, 2, 71, 82
4, 252322, Note_off_c, 2, 71, 64
4, 252458, Note_on_c, 2, 64, 80
4, 252562, Note_off_c, 2, 64, 64
4, 252721, Note_on_c, 2, 71, 87
4, 253279, Note_off_c, 2, 71, 64
4, 253405, Note_on_c, 2, 64, 80
4, 253509, Note_off_c, 2, 64, 64
4, 253509, Note_on_c, 2, 66, 82
4, 253606, Note_off_c, 2, 66, 64
4, 253644, Note_on_c, 2, 67, 85
4, 253755, Note_off_c, 2, 67, 64
4, 253760, Note_on_c, 2, 66, 68
4, 253845, Note_off_c, 2, 66, 64
4, 253898, Note_on_c, 2, 67, 80
4, 253981, Note_off_c, 2, 67, 64
4, 254137, Note_on_c, 2, 66, 87
4, 254390, Note_off_c, 2, 66, 64
4, 254483, Note_on_c, 2, 64, 80
4, 254547, Note_off_c, 2, 64, 64
4, 254602, Note_on_c, 2, 66, 89
4, 254661, Note_on_c, 2, 64, 82
4, 254667, Note_off_c, 2, 66, 64
4, 254715, Note_on_c, 2, 66, 78
4, 254720, Note_off_c, 2, 64, 64
4, 254759, Note_on_c, 2, 64, 78
4, 254788, Note_off_c, 2, 66, 64
4, 254861, Note_off_c, 2, 64, 64
4, 254957, Note_on_c, 2, 62, 82
4, 255018, Note_off_c, 2, 62, 64
4, 255095, Note_on_c, 2, 62, 76
4, 255594, Note_off_c, 2, 62, 64
4, 259656, Note_on_c, 2, 59, 58
4, 259795, Note_off_c, 2, 59, 64
4, 259920, Note_on_c, 2, 66, 59
4, 263286, Note_off_c, 2, 66, 64
4, 293994, Note_on_c, 2, 62, 61
4, 294315, Note_off_c, 2, 62, 64
4, 294475, Note_on_c, 2, 61, 58
4, 294997, Note_off_c, 2, 61, 64
4, 295913, Note_on_c, 2, 64, 57
4, 296260, Note_off_c, 2, 64, 64
4, 296407, Note_on_c, 2, 62, 58
4, 296905, Note_off_c, 2, 62, 64
4, 297830, Note_on_c, 2, 69, 51
4, 298189, Note_off_c, 2, 69, 64
4, 298302, Note_on_c, 2, 67, 49
4, 298833, Note_off_c, 2, 67, 64
4, 299710, Note_on_c, 2, 71, 59
4, 300048, Note_off_c, 2, 71, 64
4, 300218, Note_on_c, 2, 71, 62
4, 300765, Note_off_c, 2, 71, 64
4, 300807, Note_on_c, 2, 69, 78
4, 300924, Note_on_c, 2, 67, 74
4, 300933, Note_off_c, 2, 69, 64
4, 301024, Note_off_c, 2, 67, 64
4, 301035, Note_on_c, 2, 66, 78
4, 301117, Note_off_c, 2, 66, 64
4, 301172, Note_on_c, 2, 67, 87
4, 301285, Note_on_c, 2, 69, 82
4, 301297, Note_off_c, 2, 67, 64
4, 301381, Note_off_c, 2, 69, 64
4, 301409, Note_on_c, 2, 71, 78
4, 301502, Note_off_c, 2, 71, 64
4, 301516, Note_on_c, 2, 67, 80
4, 301608, Note_off_c, 2, 67, 64
4, 301651, Note_on_c, 2, 69, 76
4, 301764, Note_on_c, 2, 71, 85
4, 301774, Note_off_c, 2, 69, 64
4, 301843, Note_off_c, 2, 71, 64
4, 301883, Note_on_c, 2, 72, 72
4, 301971, Note_off_c, 2, 72, 64
4, 301991, Note_on_c, 2, 69, 70
4, 302069, Note_off_c, 2, 69, 64
4, 302138, Note_on_c, 2, 76, 85
4, 302237, Note_off_c, 2, 76, 64
4, 302374, Note_on_c, 2, 71, 82
4, 302478, Note_off_c, 2, 71, 64
4, 302614, Note_on_c, 2, 67, 80
4, 302717, Note_off_c, 2, 67, 64
4, 302852, Note_on_c, 2, 71, 82
4, 302952, Note_off_c, 2, 71, 64
4, 303092, Note_on_c, 2, 69, 70
4, 303205, Note_off_c, 2, 69, 64
4, 303333, Note_on_c, 2, 71, 80
4, 303430, Note_off_c, 2, 71, 64
4, 303576, Note_on_c, 2, 72, 76
4, 303667, Note_off_c, 2, 72, 64
4, 303813, Note_on_c, 2, 66, 78
4, 303930, Note_off_c, 2, 66, 64
4, 304077, Note_on_c, 2, 71, 89
4, 304181, Note_on_c, 2, 72, 70
4, 304206, Note_off_c, 2, 71, 64
4, 304283, Note_off_c, 2, 72, 64
4, 304302, Note_on_c, 2, 71, 60
4, 304402, Note_on_c, 2, 69, 70
4, 304424, Note_off_c, 2, 71, 64
4, 304488, Note_off_c, 2, 69, 64
4, 304526, Note_on_c, 2, 71, 82
4, 304652, Note_on_c, 2, 69, 68
4, 304657, Note_off_c, 2, 71, 64
4, 304745, Note_off_c, 2, 69, 64
4, 304765, Note_on_c, 2, 67, 66
4, 304856, Note_off_c, 2, 67, 64
4, 304869, Note_on_c, 2, 66, 70
4, 304956, Note_off_c, 2, 66, 64
4, 305000, Note_on_c, 2, 64, 78
4, 305088, Note_off_c, 2, 64, 64
4, 305245, Note_on_c, 2, 69, 82
4, 305323, Note_off_c, 2, 69, 64
4, 305484, Note_on_c, 2, 69, 74
4, 305567, Note_off_c, 2, 69, 64
4, 305721, Note_on_c, 2, 69, 70
4, 305808, Note_off_c, 2, 69, 64
4, 305945, Note_on_c, 2, 69, 70
4, 306160, Note_off_c, 2, 69, 64
4, 306202, Note_on_c, 2, 74, 87
4, 306308, Note_on_c, 2, 73, 89
4, 306332, Note_off_c, 2, 74, 64
4, 306414, Note_off_c, 2, 73, 64
4, 306423, Note_on_c, 2, 71, 85
4, 306536, Note_on_c, 2, 69, 82
4, 306545, Note_off_c, 2, 71, 64
4, 306649, Note_off_c, 2, 69, 64
4, 306651, Note_on_c, 2, 67, 66
4, 306720, Note_off_c, 2, 67, 64
4, 306757, Note_on_c, 2, 66, 66
4, 306853, Note_off_c, 2, 66, 64
4, 306905, Note_on_c, 2, 67, 74
4, 307236, Note_off_c, 2, 67, 64
4, 307404, Note_on_c, 2, 66, 80
4, 307708, Note_off_c, 2, 66, 64
4, 307900, Note_on_c, 2, 66, 80
4, 308227, Note_off_c, 2, 66, 64
4, 309586, Note_on_c, 2, 71, 82
4, 309670, Note_off_c, 2, 71, 64
4, 309832, Note_on_c, 2, 72, 82
4, 309923, Note_off_c, 2, 72, 64
4, 310073, Note_on_c, 2, 71, 82
4, 310447, Note_off_c, 2, 71, 64
4, 310542, Note_on_c, 2, 69, 68
4, 310693, Note_off_c, 2, 69, 64
4, 310790, Note_on_c, 2, 71, 85
4, 310894, Note_on_c, 2, 69, 80
4, 310904, Note_off_c, 2, 71, 64
4, 310996, Note_off_c, 2, 69, 64
4, 311007, Note_on_c, 2, 67, 85
4, 311112, Note_off_c, 2, 67, 64
4, 311113, Note_on_c, 2, 69, 80
4, 311209, Note_off_c, 2, 69, 64
4, 311244, Note_on_c, 2, 71, 85
4, 311346, Note_off_c, 2, 71, 64
4, 311486, Note_on_c, 2, 64, 76
4, 311579, Note_off_c, 2, 64, 64
4, 311738, Note_on_c, 2, 69, 85
4, 311824, Note_off_c, 2, 69, 64
4, 311977, Note_on_c, 2, 67, 82
4, 312344, Note_off_c, 2, 67, 64
4, 312455, Note_on_c, 2, 66, 76
4, 312590, Note_off_c, 2, 66, 64
4, 312697, Note_on_c, 2, 67, 93
4, 312803, Note_on_c, 2, 69, 82
4, 312822, Note_off_c, 2, 67, 64
4, 312904, Note_off_c, 2, 69, 64
4, 312924, Note_on_c, 2, 67, 76
4, 313039, Note_on_c, 2, 66, 80
4, 313040, Note_off_c, 2, 67, 64
4, 313141, Note_off_c, 2, 66, 64
4, 313168, Note_on_c, 2, 64, 78
4, 313283, Note_on_c, 2, 66, 72
4, 313290, Note_off_c, 2, 64, 64
4, 313394, Note_off_c, 2, 66, 64
4, 313411, Note_on_c, 2, 67, 80
4, 313527, Note_on_c, 2, 69, 78
4, 313529, Note_off_c, 2, 67, 64
4, 313622, Note_off_c, 2, 69, 64
4, 313646, Note_on_c, 2, 71, 87
4, 313767, Note_on_c, 2, 73, 80
4, 313770, Note_off_c, 2, 71, 64
4, 313872, Note_off_c, 2, 73, 64
4, 313887, Note_on_c, 2, 74, 85
4, 313983, Note_off_c, 2, 74, 64
4, 313993, Note_on_c, 2, 71, 80
4, 314093, Note_off_c, 2, 71, 64
4, 314118, Note_on_c, 2, 73, 82
4, 314226, Note_off_c, 2, 73, 64
4, 314237, Note_on_c, 2, 74, 85
4, 314326, Note_off_c, 2, 74, 64
4, 314357, Note_on_c, 2, 76, 82
4, 314458, Note_off_c, 2, 76, 64
4, 314474, Note_on_c, 2, 73, 76
4, 314563, Note_off_c, 2, 73, 64
4, 314611, Note_on_c, 2, 74, 82
4, 315198, Note_off_c, 2, 74, 64
4, 315220, Note_on_c, 2, 73, 74
4, 315309, Note_off_c, 2, 73, 64
4, 315335, Note_on_c, 2, 74, 82
4, 315432, Note_off_c, 2, 74, 64
4, 315448, Note_on_c, 2, 76, 80
4, 315521, Note_off_c, 2, 76, 64
4, 315583, Note_on_c, 2, 74, 93
4, 315698, Note_on_c, 2, 73, 80
4, 315705, Note_off_c, 2, 74, 64
4, 315787, Note_off_c, 2, 73, 64
4, 315815, Note_on_c, 2, 71, 70
4, 315895, Note_off_c, 2, 71, 64
4, 315920, Note_on_c, 2, 74, 68
4, 315997, Note_off_c, 2, 74, 64
4, 316050, Note_on_c, 2, 73, 95
4, 316156, Note_off_c, 2, 73, 64
4, 316159, Note_on_c, 2, 71, 74
4, 316254, Note_off_c, 2, 71, 64
4, 316274, Note_on_c, 2, 70, 70
4, 316364, Note_off_c, 2, 70, 64
4, 316378, Note_on_c, 2, 73, 59
4, 316493, Note_off_c, 2, 73, 64
4, 316528, Note_on_c, 2, 71, 89
4, 316676, Note_off_c, 2, 71, 64
4, 316776, Note_on_c, 2, 62, 80
4, 316862, Note_on_c, 2, 64, 82
4, 316874, Note_off_c, 2, 62, 64
4, 316955, Note_off_c, 2, 64, 64
4, 316997, Note_on_c, 2, 66, 82
4, 317221, Note_off_c, 2, 66, 64
4, 321102, Note_on_c, 2, 59, 59
4, 321263, Note_off_c, 2, 59, 64
4, 321341, Note_on_c, 2, 66, 59
4, 324342, Note_on_c, 2, 65, 70
4, 324367, Note_off_c, 2, 66, 64
4, 324460, Note_on_c, 2, 66, 70
4, 324493, Note_off_c, 2, 65, 64
4, 324572, Note_on_c, 2, 68, 72
4, 324588, Note_off_c, 2, 66, 64
4, 324699, Note_on_c, 2, 70, 66
4, 324727, Note_off_c, 2, 68, 64
4, 324780, Note_off_c, 2, 70, 64
4, 324811, Note_on_c, 2, 71, 76
4, 324920, Note_off_c, 2, 71, 64
4, 324949, Note_on_c, 2, 73, 87
4, 325073, Note_off_c, 2, 73, 64
4, 325194, Note_on_c, 2, 71, 87
4, 325292, Note_off_c, 2, 71, 64
4, 325429, Note_on_c, 2, 66, 78
4, 325526, Note_off_c, 2, 66, 64
4, 325667, Note_on_c, 2, 71, 85
4, 325757, Note_off_c, 2, 71, 64
4, 325892, Note_on_c, 2, 64, 70
4, 325960, Note_off_c, 2, 64, 64
4, 326135, Note_on_c, 2, 64, 82
4, 326239, Note_off_c, 2, 64, 64
4, 326381, Note_on_c, 2, 69, 72
4, 326485, Note_off_c, 2, 69, 64
4, 326624, Note_on_c, 2, 73, 80
4, 326719, Note_off_c, 2, 73, 64
4, 326857, Note_on_c, 2, 69, 82
4, 326947, Note_off_c, 2, 69, 64
4, 327103, Note_on_c, 2, 66, 70
4, 327434, Note_off_c, 2, 66, 64
4, 327576, Note_on_c, 2, 59, 66
4, 327682, Note_off_c, 2, 59, 64
4, 327817, Note_on_c, 2, 66, 80
4, 327919, Note_off_c, 2, 66, 64
4, 328054, Note_on_c, 2, 64, 70
4, 328162, Note_off_c, 2, 64, 64
4, 328298, Note_on_c, 2, 67, 82
4, 328404, Note_off_c, 2, 67, 64
4, 328541, Note_on_c, 2, 67, 74
4, 328644, Note_off_c, 2, 67, 64
4, 328776, Note_on_c, 2, 71, 80
4, 328880, Note_off_c, 2, 71, 64
4, 329011, Note_on_c, 2, 69, 82
4, 329343, Note_off_c, 2, 69, 64
4, 329473, Note_on_c, 2, 57, 74
4, 329568, Note_off_c, 2, 57, 64
4, 329723, Note_on_c, 2, 64, 80
4, 329825, Note_off_c, 2, 64, 64
4, 329978, Note_on_c, 2, 62, 76
4, 330089, Note_on_c, 2, 61, 78
4, 330097, Note_off_c, 2, 62, 64
4, 330195, Note_off_c, 2, 61, 64
4, 330208, Note_on_c, 2, 62, 68
4, 330316, Note_off_c, 2, 62, 64
4, 330321, Note_on_c, 2, 64, 72
4, 330425, Note_off_c, 2, 64, 64
4, 330447, Note_on_c, 2, 66, 64
4, 330537, Note_off_c, 2, 66, 64
4, 330563, Note_on_c, 2, 67, 72
4, 330637, Note_off_c, 2, 67, 64
4, 330695, Note_on_c, 2, 69, 80
4, 330817, Note_off_c, 2, 69, 64
4, 330965, Note_on_c, 2, 57, 52
4, 331474, Note_off_c, 2, 57, 64
4, 331685, Note_on_c, 2, 59, 66
4, 331795, Note_off_c, 2, 59, 64
4, 331932, Note_on_c, 2, 61, 63
4, 332440, Note_off_c, 2, 61, 64
4, 332630, Note_on_c, 2, 61, 64
4, 332738, Note_off_c, 2, 61, 64
4, 332878, Note_on_c, 2, 62, 64
4, 333402, Note_off_c, 2, 62, 64
4, 333573, Note_on_c, 2, 66, 63
4, 333666, Note_off_c, 2, 66, 64
4, 333829, Note_on_c, 2, 69, 61
4, 334316, Note_off_c, 2, 69, 64
4, 362859, Note_on_c, 2, 71, 87
4, 362945, Note_off_c, 2, 71, 64
4, 363096, Note_on_c, 2, 59, 78
4, 363187, Note_off_c, 2, 59, 64
4, 363331, Note_on_c, 2, 71, 87
4, 363406, Note_off_c, 2, 71, 64
4, 363596, Note_on_c, 2, 71, 98
4, 363672, Note_off_c, 2, 71, 64
4, 364066, Note_on_c, 2, 71, 85
4, 364147, Note_off_c, 2, 71, 64
4, 364539, Note_on_c, 2, 69, 93
4, 364627, Note_off_c, 2, 69, 64
4, 365268, Note_on_c, 2, 69, 85
4, 365338, Note_off_c, 2, 69, 64
4, 365498, Note_on_c, 2, 69, 89
4, 365577, Note_off_c, 2, 69, 64
4, 365989, Note_on_c, 2, 69, 93
4, 366069, Note_off_c, 2, 69, 64
4, 366476, Note_on_c, 2, 67, 78
4, 366563, Note_off_c, 2, 67, 64
4, 367169, Note_on_c, 2, 67, 80
4, 367233, Note_off_c, 2, 67, 64
4, 367415, Note_on_c, 2, 67, 82
4, 367494, Note_off_c, 2, 67, 64
4, 367900, Note_on_c, 2, 67, 82
4, 367990, Note_off_c, 2, 67, 64
4, 368393, Note_on_c, 2, 66, 89
4, 368482, Note_off_c, 2, 66, 64
4, 369119, Note_on_c, 2, 66, 82
4, 369195, Note_off_c, 2, 66, 64
4, 369371, Note_on_c, 2, 66, 95
4, 369465, Note_on_c, 2, 67, 74
4, 369469, Note_off_c, 2, 66, 64
4, 369555, Note_off_c, 2, 67, 64
4, 369575, Note_on_c, 2, 66, 70
4, 369668, Note_off_c, 2, 66, 64
4, 369693, Note_on_c, 2, 64, 60
4, 369777, Note_off_c, 2, 64, 64
4, 369808, Note_on_c, 2, 62, 72
4, 369900, Note_off_c, 2, 62, 64
4, 370045, Note_on_c, 2, 66, 64
4, 370129, Note_off_c, 2, 66, 64
4, 370295, Note_on_c, 2, 64, 72
4, 370376, Note_off_c, 2, 64, 64
4, 370529, Note_on_c, 2, 69, 76
4, 370602, Note_off_c, 2, 69, 64
4, 370766, Note_on_c, 2, 57, 70
4, 370848, Note_off_c, 2, 57, 64
4, 371014, Note_on_c, 2, 69, 91
4, 371344, Note_off_c, 2, 69, 64
4, 371376, Note_on_c, 2, 67, 80
4, 371455, Note_off_c, 2, 67, 64
4, 371488, Note_on_c, 2, 66, 66
4, 371578, Note_off_c, 2, 66, 64
4, 371609, Note_on_c, 2, 64, 66
4, 371685, Note_off_c, 2, 64, 64
4, 371728, Note_on_c, 2, 62, 76
4, 371833, Note_off_c, 2, 62, 64
4, 371970, Note_on_c, 2, 66, 78
4, 372043, Note_off_c, 2, 66, 64
4, 372209, Note_on_c, 2, 59, 74
4, 372304, Note_off_c, 2, 59, 64
4, 372459, Note_on_c, 2, 62, 80
4, 372546, Note_off_c, 2, 62, 64
4, 372701, Note_on_c, 2, 67, 80
4, 372780, Note_off_c, 2, 67, 64
4, 372942, Note_on_c, 2, 61, 85
4, 373025, Note_off_c, 2, 61, 64
4, 373186, Note_on_c, 2, 54, 68
4, 373278, Note_off_c, 2, 54, 64
4, 373301, Note_on_c, 2, 61, 68
4, 373403, Note_off_c, 2, 61, 64
4, 373429, Note_on_c, 2, 62, 66
4, 373529, Note_off_c, 2, 62, 64
4, 373533, Note_on_c, 2, 64, 76
4, 373597, Note_off_c, 2, 64, 64
4, 373651, Note_on_c, 2, 66, 85
4, 373765, Note_on_c, 2, 67, 66
4, 373768, Note_off_c, 2, 66, 64
4, 373845, Note_off_c, 2, 67, 64
4, 373887, Note_on_c, 2, 66, 63
4, 373978, Note_off_c, 2, 66, 64
4, 373994, Note_on_c, 2, 64, 58
4, 374078, Note_off_c, 2, 64, 64
4, 374135, Note_on_c, 2, 63, 74
4, 374230, Note_off_c, 2, 63, 64
4, 374372, Note_on_c, 2, 66, 85
4, 374458, Note_off_c, 2, 66, 64
4, 374611, Note_on_c, 2, 71, 85
4, 374698, Note_off_c, 2, 71, 64
4, 374843, Note_on_c, 2, 66, 82
4, 374939, Note_off_c, 2, 66, 64
4, 375089, Note_on_c, 2, 59, 82
4, 375215, Note_off_c, 2, 59, 64
4, 375333, Note_on_c, 2, 64, 78
4, 375419, Note_off_c, 2, 64, 64
4, 375444, Note_on_c, 2, 66, 80
4, 375527, Note_off_c, 2, 66, 64
4, 375568, Note_on_c, 2, 67, 85
4, 375665, Note_off_c, 2, 67, 64
4, 375674, Note_on_c, 2, 69, 70
4, 375775, Note_off_c, 2, 69, 64
4, 375793, Note_on_c, 2, 67, 74
4, 375873, Note_off_c, 2, 67, 64
4, 375904, Note_on_c, 2, 66, 78
4, 375986, Note_off_c, 2, 66, 64
4, 376045, Note_on_c, 2, 64, 85
4, 376440, Note_off_c, 2, 64, 64
4, 376528, Note_on_c, 2, 69, 80
4, 377152, Note_off_c, 2, 69, 64
4, 377252, Note_on_c, 2, 67, 80
4, 377363, Note_off_c, 2, 67, 64
4, 377489, Note_on_c, 2, 69, 74
4, 377589, Note_off_c, 2, 69, 64
4, 377730, Note_on_c, 2, 72, 76
4, 377859, Note_off_c, 2, 72, 64
4, 377965, Note_on_c, 2, 71, 87
4, 378078, Note_off_c, 2, 71, 64
4, 378210, Note_on_c, 2, 64, 80
4, 378312, Note_off_c, 2, 64, 64
4, 378460, Note_on_c, 2, 71, 85
4, 379018, Note_off_c, 2, 71, 64
4, 379182, Note_on_c, 2, 64, 85
4, 379280, Note_off_c, 2, 64, 64
4, 379293, Note_on_c, 2, 66, 82
4, 379379, Note_off_c, 2, 66, 64
4, 379413, Note_on_c, 2, 67, 87
4, 379512, Note_off_c, 2, 67, 64
4, 379517, Note_on_c, 2, 66, 70
4, 379607, Note_off_c, 2, 66, 64
4, 379651, Note_on_c, 2, 67, 89
4, 379744, Note_off_c, 2, 67, 64
4, 379888, Note_on_c, 2, 66, 85
4, 380116, Note_off_c, 2, 66, 64
4, 380258, Note_on_c, 2, 71, 85
4, 380307, Note_off_c, 2, 71, 64
4, 380358, Note_on_c, 2, 71, 80
4, 380402, Note_on_c, 2, 70, 78
4, 380418, Note_off_c, 2, 71, 64
4, 380464, Note_on_c, 2, 71, 76
4, 380477, Note_off_c, 2, 70, 64
4, 380516, Note_on_c, 2, 70, 66
4, 380544, Note_off_c, 2, 71, 64
4, 380612, Note_off_c, 2, 70, 64
4, 380725, Note_on_c, 2, 71, 80
4, 380794, Note_off_c, 2, 71, 64
4, 380849, Note_on_c, 2, 63, 72
4, 380953, Note_off_c, 2, 63, 64
4, 381104, Note_on_c, 2, 59, 78
4, 381201, Note_off_c, 2, 59, 64
4, 381351, Note_on_c, 2, 66, 80
4, 381444, Note_off_c, 2, 66, 64
4, 381591, Note_on_c, 2, 66, 80
4, 381674, Note_off_c, 2, 66, 64
4, 381836, Note_on_c, 2, 59, 78
4, 381971, Note_off_c, 2, 59, 64
4, 382062, Note_on_c, 2, 71, 82
4, 382171, Note_on_c, 2, 69, 80
4, 382192, Note_off_c, 2, 71, 64
4, 382244, Note_off_c, 2, 69, 64
4, 382278, Note_on_c, 2, 67, 82
4, 382379, Note_off_c, 2, 67, 64
4, 382396, Note_on_c, 2, 66, 70
4, 382474, Note_off_c, 2, 66, 64
4, 382523, Note_on_c, 2, 67, 68
4, 382616, Note_off_c, 2, 67, 64
4, 382627, Note_on_c, 2, 64, 70
4, 382714, Note_off_c, 2, 64, 64
4, 382770, Note_on_c, 2, 69, 89
4, 382870, Note_off_c, 2, 69, 64
4, 382874, Note_on_c, 2, 67, 70
4, 382978, Note_off_c, 2, 67, 64
4, 383001, Note_on_c, 2, 66, 58
4, 383100, Note_off_c, 2, 66, 64
4, 383122, Note_on_c, 2, 67, 64
4, 383204, Note_off_c, 2, 67, 64
4, 383249, Note_on_c, 2, 69, 78
4, 383351, Note_off_c, 2, 69, 64
4, 383370, Note_on_c, 2, 67, 76
4, 383465, Note_off_c, 2, 67, 64
4, 383486, Note_on_c, 2, 69, 70
4, 383570, Note_off_c, 2, 69, 64
4, 383593, Note_on_c, 2, 66, 66
4, 383665, Note_off_c, 2, 66, 64
4, 383720, Note_on_c, 2, 67, 85
4, 383833, Note_on_c, 2, 69, 78
4, 383838, Note_off_c, 2, 67, 64
4, 383959, Note_on_c, 2, 71, 68
4, 383986, Note_off_c, 2, 69, 64
4, 384057, Note_off_c, 2, 71, 64
4, 384074, Note_on_c, 2, 69, 85
4, 384156, Note_off_c, 2, 69, 64
4, 384192, Note_on_c, 2, 67, 76
4, 384294, Note_off_c, 2, 67, 64
4, 384304, Note_on_c, 2, 66, 63
4, 384391, Note_off_c, 2, 66, 64
4, 384431, Note_on_c, 2, 67, 74
4, 384543, Note_off_c, 2, 67, 64
4, 384543, Note_on_c, 2, 64, 72
4, 384630, Note_off_c, 2, 64, 64
4, 384680, Note_on_c, 2, 69, 87
4, 384792, Note_on_c, 2, 67, 82
4, 384794, Note_off_c, 2, 69, 64
4, 384889, Note_off_c, 2, 67, 64
4, 384916, Note_on_c, 2, 66, 64
4, 385011, Note_off_c, 2, 66, 64
4, 385039, Note_on_c, 2, 64, 72
4, 385126, Note_off_c, 2, 64, 64
4, 385161, Note_on_c, 2, 63, 70
4, 385267, Note_off_c, 2, 63, 64
4, 385285, Note_on_c, 2, 64, 66
4, 385376, Note_off_c, 2, 64, 64
4, 385418, Note_on_c, 2, 66, 66
4, 385495, Note_off_c, 2, 66, 64
4, 385522, Note_on_c, 2, 67, 70
4, 385600, Note_off_c, 2, 67, 64
4, 385657, Note_on_c, 2, 69, 87
4, 385764, Note_off_c, 2, 69, 64
4, 385770, Note_on_c, 2, 71, 72
4, 385870, Note_off_c, 2, 71, 64
4, 385889, Note_on_c, 2, 69, 72
4, 385976, Note_off_c, 2, 69, 64
4, 386009, Note_on_c, 2, 67, 72
4, 386120, Note_off_c, 2, 67, 64
4, 386122, Note_on_c, 2, 66, 72
4, 386202, Note_off_c, 2, 66, 64
4, 386243, Note_on_c, 2, 63, 64
4, 386332, Note_off_c, 2, 63, 64
4, 386357, Note_on_c, 2, 64, 52
4, 386456, Note_off_c, 2, 64, 64
4, 386481, Note_on_c, 2, 66, 78
4, 386553, Note_off_c, 2, 66, 64
4, 386615, Note_on_c, 2, 59, 93
4, 386782, Note_off_c, 2, 59, 64
4, 386848, Note_on_c, 2, 64, 76
4, 386927, Note_off_c, 2, 64, 64
4, 386958, Note_on_c, 2, 66, 82
4, 387034, Note_off_c, 2, 66, 64
4, 387091, Note_on_c, 2, 67, 91
4, 387195, Note_off_c, 2, 67, 64
4, 387333, Note_on_c, 2, 64, 80
4, 387417, Note_off_c, 2, 64, 64
4, 387572, Note_on_c, 2, 69, 85
4, 387656, Note_off_c, 2, 69, 64
4, 387808, Note_on_c, 2, 61, 85
4, 387906, Note_off_c, 2, 61, 64
4, 388063, Note_on_c, 2, 64, 87
4, 388152, Note_off_c, 2, 64, 64
4, 388305, Note_on_c, 2, 57, 80
4, 388388, Note_off_c, 2, 57, 64
4, 388552, Note_on_c, 2, 69, 89
4, 388639, Note_off_c, 2, 69, 64
4, 388657, Note_on_c, 2, 71, 82
4, 388740, Note_off_c, 2, 71, 64
4, 388772, Note_on_c, 2, 69, 82
4, 388853, Note_off_c, 2, 69, 64
4, 388885, Note_on_c, 2, 67, 85
4, 388971, Note_off_c, 2, 67, 64
4, 389019, Note_on_c, 2, 66, 78
4, 389635, Note_off_c, 2, 66, 64
4, 389735, Note_on_c, 2, 66, 78
4, 390111, Note_off_c, 2, 66, 64
4, 390219, Note_on_c, 2, 66, 85
4, 390589, Note_off_c, 2, 66, 64
4, 390713, Note_on_c, 2, 70, 91
4, 391027, Note_off_c, 2, 70, 64
4, 391058, Note_on_c, 2, 71, 72
4, 391142, Note_off_c, 2, 71, 64
4, 391193, Note_on_c, 2, 73, 87
4, 391490, Note_off_c, 2, 73, 64
4, 391658, Note_on_c, 2, 66, 82
4, 391767, Note_off_c, 2, 66, 64
4, 391902, Note_on_c, 2, 66, 82
4, 392054, Note_off_c, 2, 66, 64
4, 392125, Note_on_c, 2, 64, 72
4, 392284, Note_off_c, 2, 64, 64
4, 392284, End_track
5, 0, Start_track
5, 0, Title_t, "Cello"
5, 0, Program_c, 3, 42
5, 0, Control_c, 3, 7, 100
5, 958, Note_on_c, 3, 47, 70
5, 2042, Note_off_c, 3, 47, 64
5, 2087, Note_on_c, 3, 47, 80
5, 2114, Note_on_c, 3, 49, 66
5, 2132, Note_off_c, 3, 47, 64
5, 2145, Note_on_c, 3, 50, 68
5, 2151, Note_off_c, 3, 49, 64
5, 2181, Note_on_c, 3, 49, 80
5, 2185, Note_off_c, 3, 50, 64
5, 2205, Note_off_c, 3, 49, 64
5, 2206, Note_on_c, 3, 50, 66
5, 2228, Note_on_c, 3, 49, 64
5, 2233, Note_off_c, 3, 50, 64
5, 2249, Note_off_c, 3, 49, 64
5, 2250, Note_on_c, 3, 50, 63
5, 2271, Note_on_c, 3, 49, 59
5, 2277, Note_off_c, 3, 50, 64
5, 2286, Note_off_c, 3, 49, 64
5, 2289, Note_on_c, 3, 50, 64
5, 2310, Note_on_c, 3, 49, 63
5, 2322, Note_off_c, 3, 50, 64
5, 2338, Note_on_c, 3, 47, 72
5, 2339, Note_off_c, 3, 49, 64
5, 2362, Note_on_c, 3, 49, 74
5, 2383, Note_off_c, 3, 47, 64
5, 2395, Note_on_c, 3, 50, 80
5, 2397, Note_off_c, 3, 49, 64
5, 2499, Note_off_c, 3, 50, 64
5, 2564, Note_on_c, 3, 49, 66
5, 2599, Note_on_c, 3, 47, 78
5, 2608, Note_off_c, 3, 49, 64
5, 2632, Note_on_c, 3, 55, 89
5, 2641, Note_off_c, 3, 47, 64
5, 2739, Note_off_c, 3, 55, 64
5, 2815, Note_on_c, 3, 55, 80
5, 2842, Note_off_c, 3, 55, 64
5, 2874, Note_on_c, 3, 55, 95
5, 2993, Note_on_c, 3, 54, 59
5, 3000, Note_off_c, 3, 55, 64
5, 3944, Note_off_c, 3, 54, 64
5, 4013, Note_on_c, 3, 54, 66
5, 4038, Note_on_c, 3, 56, 64
5, 4051, Note_off_c, 3, 54, 64
5, 4072, Note_on_c, 3, 58, 58
5, 4077, Note_off_c, 3, 56, 64
5, 4102, Note_on_c, 3, 56, 70
5, 4109, Note_off_c, 3, 58, 64
5, 4129, Note_on_c, 3, 58, 64
5, 4133, Note_off_c, 3, 56, 64
5, 4153, Note_on_c, 3, 56, 63
5, 4155, Note_off_c, 3, 58, 64
5, 4181, Note_off_c, 3, 56, 64
5, 4181, Note_on_c, 3, 58, 76
5, 4200, Note_on_c, 3, 56, 63
5, 4218, Note_off_c, 3, 58, 64
5, 4235, Note_on_c, 3, 54, 58
5, 4242, Note_off_c, 3, 56, 64
5, 4265, Note_on_c, 3, 56, 74
5, 4281, Note_off_c, 3, 54, 64
5, 4302, Note_on_c, 3, 58, 85
5, 4307, Note_off_c, 3, 56, 64
5, 4414, Note_off_c, 3, 58, 64
5, 4478, Note_on_c, 3, 56, 56
5, 4505, Note_on_c, 3, 54, 64
5, 4519, Note_off_c, 3, 56, 64
5, 4543, Note_off_c, 3, 54, 64
5, 4543, Note_on_c, 3, 59, 80
5, 4653, Note_off_c, 3, 59, 64
5, 4750, Note_on_c, 3, 59, 78
5, 4785, Note_off_c, 3, 59, 64
5, 4796, Note_on_c, 3, 59, 95
5, 4889, Note_off_c, 3, 59, 64
5, 4981, Note_on_c, 3, 60, 76
5, 5023, Note_off_c, 3, 60, 64
5, 5034, Note_on_c, 3, 59, 87
5, 5109, Note_off_c, 3, 59, 64
5, 5221, Note_on_c, 3, 57, 80
5, 5258, Note_off_c, 3, 57, 64
5, 5272, Note_on_c, 3, 55, 85
5, 5355, Note_off_c, 3, 55, 64
5, 5457, Note_on_c, 3, 57, 76
5, 5498, Note_off_c, 3, 57, 64
5, 5509, Note_on_c, 3, 55, 95
5, 5593, Note_off_c, 3, 55, 64
5, 5698, Note_on_c, 3, 54, 63
5, 5742, Note_off_c, 3, 54, 64
5, 5753, Note_on_c, 3, 52, 89
5, 5856, Note_off_c, 3, 52, 64
5, 5926, Note_on_c, 3, 40, 74
5, 5955, Note_on_c, 3, 42, 57
5, 5966, Note_on_c, 3, 41, 50
5, 5973, Note_off_c, 3, 40, 64
5, 5981, Note_off_c, 3, 41, 64
5, 5981, Note_off_c, 3, 42, 64
5, 5987, Note_on_c, 3, 43, 63
5, 6021, Note_on_c, 3, 42, 87
5, 6029, Note_off_c, 3, 43, 64
5, 6047, Note_on_c, 3, 43, 72
5, 6050, Note_off_c, 3, 42, 64
5, 6074, Note_on_c, 3, 42, 58
5, 6076, Note_off_c, 3, 43, 64
5, 6093, Note_off_c, 3, 42, 64
5, 6097, Note_on_c, 3, 43, 74
5, 6118, Note_on_c, 3, 42, 63
5, 6131, Note_off_c, 3, 43, 64
5, 6148, Note_on_c, 3, 40, 68
5, 6155, Note_off_c, 3, 42, 64
5, 6175, Note_on_c, 3, 42, 66
5, 6194, Note_off_c, 3, 40, 64
5, 6209, Note_off_c, 3, 42, 64
5, 6214, Note_on_c, 3, 43, 76
5, 6315, Note_off_c, 3, 43, 64
5, 6382, Note_on_c, 3, 42, 55
5, 6414, Note_on_c, 3, 40, 74
5, 6423, Note_off_c, 3, 42, 64
5, 6459, Note_off_c, 3, 40, 64
5, 6470, Note_on_c, 3, 45, 87
5, 6565, Note_off_c, 3, 45, 64
5, 6657, Note_on_c, 3, 45, 70
5, 6690, Note_off_c, 3, 45, 64
5, 6709, Note_on_c, 3, 45, 93
5, 6806, Note_off_c, 3, 45, 64
5, 6894, Note_on_c, 3, 52, 74
5, 6940, Note_off_c, 3, 52, 64
5, 6953, Note_on_c, 3, 57, 93
5, 7037, Note_off_c, 3, 57, 64
5, 7141, Note_on_c, 3, 55, 70
5, 7185, Note_off_c, 3, 55, 64
5, 7196, Note_on_c, 3, 54, 74
5, 7284, Note_off_c, 3, 54, 64
5, 7376, Note_on_c, 3, 55, 72
5, 7415, Note_off_c, 3, 55, 64
5, 7426, Note_on_c, 3, 54, 70
5, 7509, Note_off_c, 3, 54, 64
5, 7614, Note_on_c, 3, 52, 80
5, 7651, Note_off_c, 3, 52, 64
5, 7666, Note_on_c, 3, 50, 87
5, 7769, Note_off_c, 3, 50, 64
5, 7821, Note_on_c, 3, 52, 60
5, 7849, Note_on_c, 3, 50, 66
5, 7857, Note_off_c, 3, 52, 64
5, 7880, Note_on_c, 3, 52, 68
5, 7893, Note_off_c, 3, 50, 64
5, 7914, Note_on_c, 3, 54, 60
5, 7917, Note_off_c, 3, 52, 64
5, 7945, Note_on_c, 3, 52, 82
5, 7948, Note_off_c, 3, 54, 64
5, 7968, Note_on_c, 3, 54, 80
5, 7972, Note_off_c, 3, 52, 64
5, 7989, Note_on_c, 3, 52, 70
5, 7994, Note_off_c, 3, 54, 64
5, 8013, Note_on_c, 3, 54, 78
5, 8014, Note_off_c, 3, 52, 64
5, 8036, Note_on_c, 3, 52, 70
5, 8050, Note_off_c, 3, 54, 64
5, 8062, Note_on_c, 3, 50, 76
5, 8066, Note_off_c, 3, 52, 64
5, 8091, Note_on_c, 3, 52, 78
5, 8104, Note_off_c, 3, 50, 64
5, 8129, Note_on_c, 3, 54, 70
5, 8132, Note_off_c, 3, 52, 64
5, 8234, Note_off_c, 3, 54, 64
5, 8325, Note_on_c, 3, 52, 64
5, 8353, Note_on_c, 3, 50, 70
5, 8362, Note_off_c, 3, 52, 64
5, 8386, Note_on_c, 3, 55, 93
5, 8398, Note_off_c, 3, 50, 64
5, 8482, Note_off_c, 3, 55, 64
5, 8580, Note_on_c, 3, 55, 78
5, 8612, Note_off_c, 3, 55, 64
5, 8633, Note_on_c, 3, 55, 89
5, 8757, Note_off_c, 3, 55, 64
5, 8817, Note_on_c, 3, 54, 60
5, 8841, Note_on_c, 3, 52, 76
5, 8845, Note_off_c, 3, 54, 64
5, 8876, Note_on_c, 3, 54, 100
5, 8886, Note_off_c, 3, 52, 64
5, 8958, Note_off_c, 3, 54, 64
5, 9064, Note_on_c, 3, 59, 85
5, 9100, Note_off_c, 3, 59, 64
5, 9115, Note_on_c, 3, 52, 91
5, 9241, Note_off_c, 3, 52, 64
5, 9295, Note_on_c, 3, 54, 66
5, 9326, Note_on_c, 3, 55, 78
5, 9330, Note_off_c, 3, 54, 64
5, 9362, Note_on_c, 3, 57, 91
5, 9366, Note_off_c, 3, 55, 64
5, 9447, Note_off_c, 3, 57, 64
5, 9537, Note_on_c, 3, 49, 72
5, 9572, Note_off_c, 3, 49, 64
5, 9589, Note_on_c, 3, 50, 89
5, 9737, Note_off_c, 3, 50, 64
5, 9838, Note_on_c, 3, 43, 87
5, 9967, Note_off_c, 3, 43, 64
5, 10077, Note_on_c, 3, 45, 82
5, 10454, Note_off_c, 3, 45, 64
5, 10558, Note_on_c, 3, 50, 82
5, 11669, Note_off_c, 3, 50, 64
5, 11697, Note_on_c, 3, 49, 68
5, 11726, Note_on_c, 3, 47, 70
5, 11729, Note_off_c, 3, 49, 64
5, 11759, Note_on_c, 3, 49, 91
5, 11775, Note_off_c, 3, 47, 64
5, 11852, Note_off_c, 3, 49, 64
5, 11943, Note_on_c, 3, 54, 68
5, 11980, Note_off_c, 3, 54, 64
5, 11991, Note_on_c, 3, 47, 76
5, 12129, Note_off_c, 3, 47, 64
5, 12235, Note_on_c, 3, 52, 82
5, 12345, Note_off_c, 3, 52, 64
5, 12474, Note_on_c, 3, 45, 78
5, 13061, Note_off_c, 3, 45, 64
5, 13122, Note_on_c, 3, 57, 66
5, 13148, Note_on_c, 3, 55, 80
5, 13164, Note_off_c, 3, 57, 64
5, 13180, Note_off_c, 3, 55, 64
5, 13182, Note_on_c, 3, 54, 45
5, 13280, Note_off_c, 3, 54, 64
5, 13361, Note_on_c, 3, 55, 80
5, 13388, Note_on_c, 3, 57, 85
5, 13399, Note_off_c, 3, 55, 64
5, 13426, Note_off_c, 3, 57, 64
5, 13428, Note_on_c, 3, 51, 78
5, 14000, Note_off_c, 3, 51, 64
5, 14106, Note_on_c, 3, 47, 87
5, 14152, Note_on_c, 3, 49, 93
5, 14165, Note_off_c, 3, 47, 64
5, 14232, Note_off_c, 3, 49, 64
5, 14338, Note_on_c, 3, 51, 76
5, 14382, Note_off_c, 3, 51, 64
5, 14388, Note_on_c, 3, 52, 87
5, 14479, Note_off_c, 3, 52, 64
5, 14573, Note_on_c, 3, 50, 80
5, 14623, Note_off_c, 3, 50, 64
5, 14628, Note_on_c, 3, 49, 85
5, 14728, Note_off_c, 3, 49, 64
5, 14818, Note_on_c, 3, 47, 78
5, 14866, Note_off_c, 3, 47, 64
5, 14870, Note_on_c, 3, 45, 76
5, 14973, Note_off_c, 3, 45, 64
5, 15065, Note_on_c, 3, 55, 82
5, 15111, Note_off_c, 3, 55, 64
5, 15114, Note_on_c, 3, 54, 98
5, 15217, Note_off_c, 3, 54, 64
5, 15295, Note_on_c, 3, 52, 68
5, 15336, Note_off_c, 3, 52, 64
5, 15347, Note_on_c, 3, 50, 76
5, 15462, Note_off_c, 3, 50, 64
5, 15524, Note_on_c, 3, 49, 66
5, 15568, Note_off_c, 3, 49, 64
5, 15583, Note_on_c, 3, 47, 85
5, 15679, Note_off_c, 3, 47, 64
5, 15779, Note_on_c, 3, 45, 85
5, 15813, Note_off_c, 3, 45, 64
5, 15833, Note_on_c, 3, 43, 80
5, 16415, Note_off_c, 3, 43, 64
5, 16477, Note_on_c, 3, 55, 76
5, 16507, Note_on_c, 3, 54, 98
5, 16521, Note_off_c, 3, 55, 64
5, 16545, Note_off_c, 3, 54, 64
5, 16550, Note_on_c, 3, 52, 98
5, 16650, Note_off_c, 3, 52, 64
5, 16728, Note_on_c, 3, 54, 78
5, 16750, Note_on_c, 3, 55, 82
5, 16762, Note_off_c, 3, 54, 64
5, 16791, Note_off_c, 3, 55, 64
5, 16793, Note_on_c, 3, 49, 102
5, 16891, Note_off_c, 3, 49, 64
5, 16968, Note_on_c, 3, 50, 74
5, 16996, Note_on_c, 3, 52, 74
5, 17007, Note_off_c, 3, 50, 64
5, 17028, Note_off_c, 3, 52, 64
5, 17038, Note_on_c, 3, 46, 89
5, 17134, Note_off_c, 3, 46, 64
5, 17209, Note_on_c, 3, 47, 78
5, 17238, Note_on_c, 3, 49, 64
5, 17246, Note_off_c, 3, 47, 64
5, 17272, Note_off_c, 3, 49, 64
5, 17280, Note_on_c, 3, 42, 87
5, 19367, Note_off_c, 3, 42, 64
5, 51581, Note_on_c, 3, 59, 80
5, 51667, Note_off_c, 3, 59, 64
5, 51815, Note_on_c, 3, 62, 87
5, 51895, Note_off_c, 3, 62, 64
5, 52066, Note_on_c, 3, 61, 72
5, 52442, Note_off_c, 3, 61, 64
5, 52553, Note_on_c, 3, 59, 70
5, 52672, Note_off_c, 3, 59, 64
5, 52796, Note_on_c, 3, 61, 85
5, 52892, Note_off_c, 3, 61, 64
5, 52905, Note_on_c, 3, 59, 82
5, 52998, Note_off_c, 3, 59, 64
5, 53009, Note_on_c, 3, 57, 80
5, 53119, Note_on_c, 3, 59, 82
5, 53131, Note_off_c, 3, 57, 64
5, 53217, Note_off_c, 3, 59, 64
5, 53243, Note_on_c, 3, 61, 80
5, 53345, Note_off_c, 3, 61, 64
5, 53494, Note_on_c, 3, 54, 74
5, 53587, Note_off_c, 3, 54, 64
5, 53757, Note_on_c, 3, 59, 87
5, 53841, Note_off_c, 3, 59, 64
5, 53990, Note_on_c, 3, 57, 89
5, 54363, Note_off_c, 3, 57, 64
5, 54469, Note_on_c, 3, 56, 76
5, 54596, Note_off_c, 3, 56, 64
5, 54707, Note_on_c, 3, 57, 85
5, 54813, Note_off_c, 3, 57, 64
5, 54813, Note_on_c, 3, 59, 82
5, 54928, Note_on_c, 3, 57, 82
5, 54935, Note_off_c, 3, 59, 64
5, 55041, Note_on_c, 3, 56, 70
5, 55052, Note_off_c, 3, 57, 64
5, 55167, Note_on_c, 3, 54, 72
5, 55169, Note_off_c, 3, 56, 64
5, 55286, Note_on_c, 3, 56, 64
5, 55304, Note_off_c, 3, 54, 64
5, 55373, Note_off_c, 3, 56, 64
5, 55400, Note_on_c, 3, 57, 66
5, 55526, Note_on_c, 3, 59, 76
5, 55532, Note_off_c, 3, 57, 64
5, 55592, Note_off_c, 3, 59, 64
5, 55650, Note_on_c, 3, 61, 76
5, 55780, Note_on_c, 3, 62, 68
5, 55793, Note_off_c, 3, 61, 64
5, 55877, Note_off_c, 3, 62, 64
5, 55902, Note_on_c, 3, 61, 54
5, 55999, Note_off_c, 3, 61, 64
5, 56002, Note_on_c, 3, 59, 59
5, 56095, Note_off_c, 3, 59, 64
5, 56132, Note_on_c, 3, 58, 82
5, 56245, Note_on_c, 3, 59, 72
5, 56260, Note_off_c, 3, 58, 64
5, 56360, Note_off_c, 3, 59, 64
5, 56384, Note_on_c, 3, 61, 51
5, 56486, Note_on_c, 3, 58, 57
5, 56517, Note_off_c, 3, 61, 64
5, 56566, Note_off_c, 3, 58, 64
5, 56610, Note_on_c, 3, 59, 85
5, 56727, Note_on_c, 3, 61, 60
5, 56739, Note_off_c, 3, 59, 64
5, 56845, Note_on_c, 3, 59, 68
5, 56871, Note_off_c, 3, 61, 64
5, 56955, Note_off_c, 3, 59, 64
5, 56965, Note_on_c, 3, 57, 68
5, 57082, Note_on_c, 3, 55, 60
5, 57091, Note_off_c, 3, 57, 64
5, 57201, Note_off_c, 3, 55, 64
5, 57214, Note_on_c, 3, 57, 66
5, 57321, Note_off_c, 3, 57, 64
5, 57327, Note_on_c, 3, 59, 61
5, 57427, Note_off_c, 3, 59, 64
5, 57455, Note_on_c, 3, 61, 58
5, 57562, Note_off_c, 3, 61, 64
5, 57586, Note_on_c, 3, 62, 95
5, 57711, Note_on_c, 3, 64, 78
5, 57735, Note_off_c, 3, 62, 64
5, 57812, Note_off_c, 3, 64, 64
5, 57827, Note_on_c, 3, 62, 76
5, 57934, Note_off_c, 3, 62, 64
5, 57941, Note_on_c, 3, 61, 57
5, 58043, Note_off_c, 3, 61, 64
5, 58060, Note_on_c, 3, 59, 74
5, 58175, Note_on_c, 3, 61, 74
5, 58177, Note_off_c, 3, 59, 64
5, 58281, Note_off_c, 3, 61, 64
5, 58288, Note_on_c, 3, 62, 74
5, 58374, Note_off_c, 3, 62, 64
5, 58399, Note_on_c, 3, 59, 66
5, 58487, Note_off_c, 3, 59, 64
5, 58543, Note_on_c, 3, 61, 87
5, 58646, Note_on_c, 3, 62, 70
5, 58664, Note_off_c, 3, 61, 64
5, 58748, Note_off_c, 3, 62, 64
5, 58773, Note_on_c, 3, 61, 76
5, 58877, Note_off_c, 3, 61, 64
5, 58883, Note_on_c, 3, 59, 76
5, 58997, Note_off_c, 3, 59, 64
5, 59025, Note_on_c, 3, 57, 70
5, 59136, Note_on_c, 3, 59, 68
5, 59143, Note_off_c, 3, 57, 64
5, 59269, Note_on_c, 3, 61, 57
5, 59270, Note_off_c, 3, 59, 64
5, 59377, Note_off_c, 3, 61, 64
5, 59390, Note_on_c, 3, 62, 76
5, 59483, Note_off_c, 3, 62, 64
5, 59519, Note_on_c, 3, 64, 89
5, 59634, Note_on_c, 3, 66, 70
5, 59652, Note_off_c, 3, 64, 64
5, 59734, Note_off_c, 3, 66, 64
5, 59743, Note_on_c, 3, 64, 63
5, 59855, Note_off_c, 3, 64, 64
5, 59860, Note_on_c, 3, 62, 68
5, 59973, Note_off_c, 3, 62, 64
5, 59990, Note_on_c, 3, 61, 58
5, 60090, Note_on_c, 3, 62, 74
5, 60106, Note_off_c, 3, 61, 64
5, 60212, Note_off_c, 3, 62, 64
5, 60216, Note_on_c, 3, 64, 58
5, 60330, Note_on_c, 3, 61, 60
5, 60356, Note_off_c, 3, 64, 64
5, 60415, Note_off_c, 3, 61, 64
5, 60431, Note_on_c, 3, 62, 70
5, 60564, Note_on_c, 3, 64, 70
5, 60582, Note_off_c, 3, 62, 64
5, 60683, Note_off_c, 3, 64, 64
5, 60694, Note_on_c, 3, 62, 80
5, 60803, Note_on_c, 3, 61, 62
5, 60818, Note_off_c, 3, 62, 64
5, 60929, Note_on_c, 3, 59, 74
5, 60949, Note_off_c, 3, 61, 64
5, 61040, Note_on_c, 3, 57, 76
5, 61048, Note_off_c, 3, 59, 64
5, 61153, Note_on_c, 3, 55, 61
5, 61170, Note_off_c, 3, 57, 64
5, 61263, Note_off_c, 3, 55, 64
5, 61276, Note_on_c, 3, 54, 93
5, 61363, Note_off_c, 3, 54, 64
5, 61414, Note_on_c, 3, 52, 87
5, 61633, Note_off_c, 3, 52, 64
5, 61663, Note_on_c, 3, 54, 66
5, 61761, Note_off_c, 3, 54, 64
5, 61779, Note_on_c, 3, 55, 85
5, 61888, Note_off_c, 3, 55, 64
5, 61909, Note_on_c, 3, 57, 70
5, 62016, Note_off_c, 3, 57, 64
5, 62023, Note_on_c, 3, 59, 80
5, 62120, Note_off_c, 3, 59, 64
5, 62140, Note_on_c, 3, 61, 66
5, 62231, Note_off_c, 3, 61, 64
5, 62244, Note_on_c, 3, 57, 72
5, 62332, Note_off_c, 3, 57, 64
5, 62368, Note_on_c, 3, 62, 85
5, 62501, Note_off_c, 3, 62, 64
5, 62616, Note_on_c, 3, 61, 66
5, 62726, Note_off_c, 3, 61, 64
5, 62852, Note_on_c, 3, 59, 74
5, 62950, Note_off_c, 3, 59, 64
5, 63094, Note_on_c, 3, 62, 89
5, 63189, Note_off_c, 3, 62, 64
5, 63331, Note_on_c, 3, 55, 82
5, 63443, Note_off_c, 3, 55, 64
5, 63583, Note_on_c, 3, 54, 66
5, 63690, Note_off_c, 3, 54, 64
5, 63818, Note_on_c, 3, 52, 72
5, 63935, Note_off_c, 3, 52, 64
5, 64061, Note_on_c, 3, 54, 61
5, 64159, Note_off_c, 3, 54, 64
5, 64300, Note_on_c, 3, 59, 82
5, 64404, Note_off_c, 3, 59, 64
5, 64533, Note_on_c, 3, 47, 70
5, 64665, Note_off_c, 3, 47, 64
5, 64781, Note_on_c, 3, 50, 85
5, 64874, Note_off_c, 3, 50, 64
5, 65020, Note_on_c, 3, 54, 70
5, 65113, Note_off_c, 3, 54, 64
5, 65260, Note_on_c, 3, 57, 87
5, 65350, Note_off_c, 3, 57, 64
5, 65493, Note_on_c, 3, 47, 72
5, 65602, Note_off_c, 3, 47, 64
5, 65764, Note_on_c, 3, 57, 82
5, 66383, Note_off_c, 3, 57, 64
5, 66458, Note_on_c, 3, 55, 72
5, 66549, Note_off_c, 3, 55, 64
5, 66567, Note_on_c, 3, 54, 78
5, 66651, Note_off_c, 3, 54, 64
5, 66693, Note_on_c, 3, 52, 82
5, 66799, Note_off_c, 3, 52, 64
5, 66930, Note_on_c, 3, 50, 74
5, 67052, Note_off_c, 3, 50, 64
5, 67171, Note_on_c, 3, 49, 61
5, 67298, Note_off_c, 3, 49, 64
5, 67410, Note_on_c, 3, 47, 72
5, 67514, Note_off_c, 3, 47, 64
5, 67660, Note_on_c, 3, 49, 68
5, 67780, Note_off_c, 3, 49, 64
5, 67895, Note_on_c, 3, 45, 64
5, 68008, Note_off_c, 3, 45, 64
5, 68134, Note_on_c, 3, 50, 85
5, 68249, Note_off_c, 3, 50, 64
5, 68387, Note_on_c, 3, 52, 80
5, 68508, Note_off_c, 3, 52, 64
5, 68628, Note_on_c, 3, 54, 63
5, 68749, Note_off_c, 3, 54, 64
5, 68858, Note_on_c, 3, 52, 66
5, 68956, Note_off_c, 3, 52, 64
5, 69099, Note_on_c, 3, 51, 76
5, 69226, Note_off_c, 3, 51, 64
5, 69327, Note_on_c, 3, 49, 61
5, 69444, Note_off_c, 3, 49, 64
5, 69575, Note_on_c, 3, 51, 62
5, 69692, Note_off_c, 3, 51, 64
5, 69817, Note_on_c, 3, 47, 72
5, 69940, Note_off_c, 3, 47, 64
5, 70065, Note_on_c, 3, 52, 85
5, 70164, Note_off_c, 3, 52, 64
5, 70306, Note_on_c, 3, 40, 89
5, 70417, Note_off_c, 3, 40, 64
5, 70563, Note_on_c, 3, 52, 78
5, 71052, Note_off_c, 3, 52, 64
5, 71136, Note_on_c, 3, 49, 87
5, 71235, Note_on_c, 3, 50, 82
5, 71240, Note_off_c, 3, 49, 64
5, 71313, Note_off_c, 3, 50, 64
5, 71346, Note_on_c, 3, 52, 85
5, 71437, Note_off_c, 3, 52, 64
5, 71470, Note_on_c, 3, 54, 85
5, 71592, Note_off_c, 3, 54, 64
5, 71729, Note_on_c, 3, 42, 76
5, 71838, Note_off_c, 3, 42, 64
5, 71972, Note_on_c, 3, 47, 80
5, 72486, Note_off_c, 3, 47, 64
5, 110850, Note_on_c, 3, 50, 40
5, 111193, Note_off_c, 3, 50, 64
5, 111363, Note_on_c, 3, 45, 45
5, 111868, Note_off_c, 3, 45, 64
5, 112797, Note_on_c, 3, 49, 42
5, 113141, Note_off_c, 3, 49, 64
5, 113275, Note_on_c, 3, 50, 51
5, 113776, Note_off_c, 3, 50, 64
5, 114710, Note_on_c, 3, 50, 47
5, 115033, Note_off_c, 3, 50, 64
5, 115184, Note_on_c, 3, 55, 48
5, 115660, Note_off_c, 3, 55, 64
5, 116612, Note_on_c, 3, 52, 54
5, 116948, Note_off_c, 3, 52, 64
5, 117120, Note_on_c, 3, 59, 89
5, 117229, Note_on_c, 3, 60, 64
5, 117253, Note_off_c, 3, 59, 64
5, 117346, Note_on_c, 3, 59, 60
5, 117348, Note_off_c, 3, 60, 64
5, 117455, Note_on_c, 3, 57, 58
5, 117472, Note_off_c, 3, 59, 64
5, 117572, Note_off_c, 3, 57, 64
5, 117572, Note_on_c, 3, 55, 60
5, 117667, Note_on_c, 3, 54, 64
5, 117672, Note_off_c, 3, 55, 64
5, 117793, Note_off_c, 3, 54, 64
5, 117793, Note_on_c, 3, 52, 74
5, 117904, Note_on_c, 3, 51, 68
5, 117909, Note_off_c, 3, 52, 64
5, 118004, Note_off_c, 3, 51, 64
5, 118039, Note_on_c, 3, 52, 91
5, 118154, Note_on_c, 3, 54, 66
5, 118185, Note_off_c, 3, 52, 64
5, 118265, Note_off_c, 3, 54, 64
5, 118276, Note_on_c, 3, 55, 70
5, 118376, Note_off_c, 3, 55, 64
5, 118391, Note_on_c, 3, 52, 70
5, 118497, Note_off_c, 3, 52, 64
5, 118524, Note_on_c, 3, 54, 80
5, 118628, Note_on_c, 3, 55, 80
5, 118648, Note_off_c, 3, 54, 64
5, 118734, Note_off_c, 3, 55, 64
5, 118758, Note_on_c, 3, 57, 66
5, 118865, Note_off_c, 3, 57, 64
5, 118872, Note_on_c, 3, 54, 64
5, 118957, Note_off_c, 3, 54, 64
5, 119017, Note_on_c, 3, 55, 85
5, 119578, Note_off_c, 3, 55, 64
5, 119609, Note_on_c, 3, 54, 68
5, 119697, Note_off_c, 3, 54, 64
5, 119719, Note_on_c, 3, 55, 74
5, 119836, Note_off_c, 3, 55, 64
5, 119843, Note_on_c, 3, 57, 72
5, 119916, Note_off_c, 3, 57, 64
5, 119970, Note_on_c, 3, 55, 89
5, 120084, Note_on_c, 3, 54, 78
5, 120095, Note_off_c, 3, 55, 64
5, 120189, Note_on_c, 3, 52, 72
5, 120195, Note_off_c, 3, 54, 64
5, 120279, Note_off_c, 3, 52, 64
5, 120302, Note_on_c, 3, 55, 68
5, 120390, Note_off_c, 3, 55, 64
5, 120437, Note_on_c, 3, 54, 102
5, 120543, Note_off_c, 3, 54, 64
5, 120551, Note_on_c, 3, 52, 70
5, 120645, Note_off_c, 3, 52, 64
5, 120675, Note_on_c, 3, 51, 62
5, 120779, Note_on_c, 3, 54, 64
5, 120804, Note_off_c, 3, 51, 64
5, 120882, Note_off_c, 3, 54, 64
5, 120919, Note_on_c, 3, 52, 82
5, 121016, Note_off_c, 3, 52, 64
5, 121163, Note_on_c, 3, 47, 80
5, 121256, Note_off_c, 3, 47, 64
5, 121415, Note_on_c, 3, 43, 76
5, 121510, Note_off_c, 3, 43, 64
5, 121636, Note_on_c, 3, 47, 82
5, 121716, Note_off_c, 3, 47, 64
5, 121882, Note_on_c, 3, 40, 87
5, 122084, Note_off_c, 3, 40, 64
5, 122132, Note_on_c, 3, 42, 80
5, 122227, Note_off_c, 3, 42, 64
5, 122236, Note_on_c, 3, 43, 72
5, 122323, Note_off_c, 3, 43, 64
5, 122351, Note_on_c, 3, 45, 68
5, 122451, Note_off_c, 3, 45, 64
5, 122469, Note_on_c, 3, 47, 82
5, 122573, Note_off_c, 3, 47, 64
5, 122592, Note_on_c, 3, 49, 68
5, 122668, Note_off_c, 3, 49, 64
5, 122681, Note_on_c, 3, 45, 66
5, 122774, Note_off_c, 3, 45, 64
5, 122831, Note_on_c, 3, 50, 82
5, 122947, Note_off_c, 3, 50, 64
5, 122953, Note_on_c, 3, 52, 76
5, 123064, Note_off_c, 3, 52, 64
5, 123072, Note_on_c, 3, 54, 64
5, 123162, Note_off_c, 3, 54, 64
5, 123175, Note_on_c, 3, 52, 78
5, 123281, Note_off_c, 3, 52, 64
5, 123308, Note_on_c, 3, 50, 76
5, 123429, Note_off_c, 3, 50, 64
5, 123547, Note_on_c, 3, 55, 82
5, 123651, Note_off_c, 3, 55, 64
5, 123801, Note_on_c, 3, 52, 76
5, 124020, Note_off_c, 3, 52, 64
5, 124288, Note_on_c, 3, 54, 74
5, 124490, Note_off_c, 3, 54, 64
5, 124780, Note_on_c, 3, 47, 80
5, 125028, Note_off_c, 3, 47, 64
5, 130300, Note_on_c, 3, 52, 80
5, 130396, Note_off_c, 3, 52, 64
5, 130544, Note_on_c, 3, 55, 80
5, 130641, Note_off_c, 3, 55, 64
5, 130781, Note_on_c, 3, 54, 68
5, 131168, Note_off_c, 3, 54, 64
5, 131267, Note_on_c, 3, 52, 68
5, 131398, Note_off_c, 3, 52, 64
5, 131509, Note_on_c, 3, 54, 87
5, 131609, Note_off_c, 3, 54, 64
5, 131617, Note_on_c, 3, 52, 78
5, 131697, Note_off_c, 3, 52, 64
5, 131728, Note_on_c, 3, 50, 74
5, 131821, Note_off_c, 3, 50, 64
5, 131845, Note_on_c, 3, 52, 70
5, 131938, Note_off_c, 3, 52, 64
5, 131971, Note_on_c, 3, 54, 72
5, 132118, Note_off_c, 3, 54, 64
5, 132213, Note_on_c, 3, 47, 70
5, 132326, Note_off_c, 3, 47, 64
5, 132459, Note_on_c, 3, 52, 85
5, 132543, Note_off_c, 3, 52, 64
5, 132695, Note_on_c, 3, 50, 80
5, 133063, Note_off_c, 3, 50, 64
5, 133187, Note_on_c, 3, 49, 72
5, 133311, Note_off_c, 3, 49, 64
5, 133437, Note_on_c, 3, 50, 89
5, 133537, Note_on_c, 3, 52, 68
5, 133570, Note_off_c, 3, 50, 64
5, 133645, Note_on_c, 3, 50, 70
5, 133663, Note_off_c, 3, 52, 64
5, 133753, Note_on_c, 3, 49, 66
5, 133762, Note_off_c, 3, 50, 64
5, 133864, Note_off_c, 3, 49, 64
5, 133886, Note_on_c, 3, 47, 64
5, 134083, Note_off_c, 3, 47, 64
5, 141828, Note_on_c, 3, 58, 76
5, 141915, Note_off_c, 3, 58, 64
5, 142085, Note_on_c, 3, 59, 85
5, 142170, Note_off_c, 3, 59, 64
5, 142314, Note_on_c, 3, 57, 78
5, 142670, Note_off_c, 3, 57, 64
5, 142791, Note_on_c, 3, 56, 68
5, 142931, Note_off_c, 3, 56, 64
5, 143031, Note_on_c, 3, 57, 74
5, 143138, Note_on_c, 3, 59, 66
5, 143161, Note_off_c, 3, 57, 64
5, 143234, Note_off_c, 3, 59, 64
5, 143257, Note_on_c, 3, 57, 68
5, 143361, Note_on_c, 3, 56, 63
5, 143369, Note_off_c, 3, 57, 64
5, 143475, Note_off_c, 3, 56, 64
5, 143500, Note_on_c, 3, 54, 63
5, 143615, Note_on_c, 3, 53, 91
5, 143619, Note_off_c, 3, 54, 64
5, 143732, Note_off_c, 3, 53, 64
5, 143735, Note_on_c, 3, 54, 62
5, 143821, Note_off_c, 3, 54, 64
5, 143841, Note_on_c, 3, 56, 78
5, 143943, Note_off_c, 3, 56, 64
5, 143982, Note_on_c, 3, 57, 82
5, 144087, Note_off_c, 3, 57, 64
5, 144222, Note_on_c, 3, 55, 78
5, 144556, Note_off_c, 3, 55, 64
5, 144706, Note_on_c, 3, 54, 59
5, 144841, Note_off_c, 3, 54, 64
5, 144947, Note_on_c, 3, 55, 85
5, 145061, Note_on_c, 3, 57, 68
5, 145080, Note_off_c, 3, 55, 64
5, 145154, Note_off_c, 3, 57, 64
5, 145178, Note_on_c, 3, 55, 60
5, 145270, Note_off_c, 3, 55, 64
5, 145286, Note_on_c, 3, 54, 55
5, 145393, Note_off_c, 3, 54, 64
5, 145406, Note_on_c, 3, 52, 68
5, 145523, Note_on_c, 3, 50, 60
5, 145537, Note_off_c, 3, 52, 64
5, 145621, Note_off_c, 3, 50, 64
5, 145640, Note_on_c, 3, 52, 66
5, 145750, Note_off_c, 3, 52, 64
5, 145765, Note_on_c, 3, 54, 70
5, 145864, Note_off_c, 3, 54, 64
5, 145890, Note_on_c, 3, 55, 85
5, 145992, Note_off_c, 3, 55, 64
5, 146136, Note_on_c, 3, 54, 66
5, 146490, Note_off_c, 3, 54, 64
5, 146606, Note_on_c, 3, 52, 66
5, 146721, Note_off_c, 3, 52, 64
5, 146854, Note_on_c, 3, 54, 95
5, 146957, Note_on_c, 3, 55, 68
5, 146980, Note_off_c, 3, 54, 64
5, 147070, Note_off_c, 3, 55, 64
5, 147086, Note_on_c, 3, 54, 66
5, 147190, Note_on_c, 3, 52, 66
5, 147201, Note_off_c, 3, 54, 64
5, 147292, Note_off_c, 3, 52, 64
5, 147318, Note_on_c, 3, 50, 70
5, 147564, Note_off_c, 3, 50, 64
5, 180226, Note_on_c, 3, 47, 76
5, 180310, Note_off_c, 3, 47, 64
5, 180465, Note_on_c, 3, 52, 82
5, 180534, Note_off_c, 3, 52, 64
5, 180707, Note_on_c, 3, 50, 80
5, 181065, Note_off_c, 3, 50, 64
5, 181178, Note_on_c, 3, 52, 78
5, 181270, Note_off_c, 3, 52, 64
5, 181275, Note_on_c, 3, 50, 80
5, 181366, Note_off_c, 3, 50, 64
5, 181400, Note_on_c, 3, 49, 82
5, 181497, Note_off_c, 3, 49, 64
5, 181652, Note_on_c, 3, 57, 87
5, 181997, Note_off_c, 3, 57, 64
5, 182130, Note_on_c, 3, 49, 68
5, 182227, Note_off_c, 3, 49, 64
5, 182382, Note_on_c, 3, 50, 82
5, 182473, Note_off_c, 3, 50, 64
5, 182630, Note_on_c, 3, 49, 85
5, 182978, Note_off_c, 3, 49, 64
5, 183106, Note_on_c, 3, 50, 80
5, 183185, Note_off_c, 3, 50, 64
5, 183206, Note_on_c, 3, 49, 89
5, 183285, Note_off_c, 3, 49, 64
5, 183334, Note_on_c, 3, 47, 82
5, 183447, Note_off_c, 3, 47, 64
5, 183584, Note_on_c, 3, 55, 87
5, 183907, Note_off_c, 3, 55, 64
5, 184060, Note_on_c, 3, 47, 72
5, 184146, Note_off_c, 3, 47, 64
5, 184302, Note_on_c, 3, 49, 78
5, 184386, Note_off_c, 3, 49, 64
5, 184540, Note_on_c, 3, 47, 76
5, 184881, Note_off_c, 3, 47, 64
5, 185008, Note_on_c, 3, 49, 74
5, 185103, Note_off_c, 3, 49, 64
5, 185109, Note_on_c, 3, 47, 72
5, 185204, Note_off_c, 3, 47, 64
5, 185253, Note_on_c, 3, 46, 78
5, 185370, Note_off_c, 3, 46, 64
5, 185497, Note_on_c, 3, 54, 82
5, 185851, Note_off_c, 3, 54, 64
5, 185975, Note_on_c, 3, 46, 74
5, 186072, Note_off_c, 3, 46, 64
5, 186225, Note_on_c, 3, 47, 82
5, 186333, Note_off_c, 3, 47, 64
5, 186451, Note_on_c, 3, 49, 70
5, 186555, Note_off_c, 3, 49, 64
5, 186703, Note_on_c, 3, 50, 85
5, 186789, Note_off_c, 3, 50, 64
5, 186927, Note_on_c, 3, 47, 80
5, 187000, Note_off_c, 3, 47, 64
5, 187172, Note_on_c, 3, 52, 78
5, 187292, Note_off_c, 3, 52, 64
5, 187414, Note_on_c, 3, 54, 62
5, 187511, Note_off_c, 3, 54, 64
5, 187522, Note_on_c, 3, 55, 68
5, 187613, Note_off_c, 3, 55, 64
5, 187644, Note_on_c, 3, 57, 76
5, 187739, Note_off_c, 3, 57, 64
5, 187761, Note_on_c, 3, 59, 82
5, 187847, Note_off_c, 3, 59, 64
5, 187879, Note_on_c, 3, 61, 85
5, 187969, Note_off_c, 3, 61, 64
5, 187985, Note_on_c, 3, 57, 76
5, 188078, Note_off_c, 3, 57, 64
5, 188116, Note_on_c, 3, 62, 93
5, 188230, Note_off_c, 3, 62, 64
5, 188368, Note_on_c, 3, 61, 63
5, 188481, Note_off_c, 3, 61, 64
5, 188616, Note_on_c, 3, 59, 72
5, 188706, Note_off_c, 3, 59, 64
5, 188858, Note_on_c, 3, 62, 82
5, 188950, Note_off_c, 3, 62, 64
5, 189100, Note_on_c, 3, 55, 85
5, 189209, Note_off_c, 3, 55, 64
5, 189326, Note_on_c, 3, 54, 66
5, 189429, Note_off_c, 3, 54, 64
5, 189563, Note_on_c, 3, 52, 76
5, 189671, Note_off_c, 3, 52, 64
5, 189813, Note_on_c, 3, 54, 58
5, 189897, Note_off_c, 3, 54, 64
5, 190055, Note_on_c, 3, 59, 91
5, 190154, Note_off_c, 3, 59, 64
5, 190291, Note_on_c, 3, 47, 70
5, 190406, Note_off_c, 3, 47, 64
5, 190531, Note_on_c, 3, 50, 85
5, 190619, Note_off_c, 3, 50, 64
5, 190765, Note_on_c, 3, 54, 74
5, 190867, Note_off_c, 3, 54, 64
5, 191008, Note_on_c, 3, 57, 93
5, 191099, Note_off_c, 3, 57, 64
5, 191243, Note_on_c, 3, 47, 80
5, 191334, Note_off_c, 3, 47, 64
5, 191504, Note_on_c, 3, 57, 93
5, 192060, Note_off_c, 3, 57, 64
5, 192222, Note_on_c, 3, 55, 85
5, 192310, Note_off_c, 3, 55, 64
5, 192330, Note_on_c, 3, 54, 78
5, 192412, Note_off_c, 3, 54, 64
5, 192454, Note_on_c, 3, 52, 85
5, 192545, Note_off_c, 3, 52, 64
5, 192693, Note_on_c, 3, 50, 80
5, 192808, Note_off_c, 3, 50, 64
5, 192934, Note_on_c, 3, 49, 87
5, 193049, Note_off_c, 3, 49, 64
5, 193178, Note_on_c, 3, 47, 82
5, 193286, Note_off_c, 3, 47, 64
5, 193421, Note_on_c, 3, 49, 91
5, 193526, Note_off_c, 3, 49, 64
5, 193654, Note_on_c, 3, 45, 82
5, 193764, Note_off_c, 3, 45, 64
5, 193899, Note_on_c, 3, 50, 91
5, 194012, Note_off_c, 3, 50, 64
5, 194147, Note_on_c, 3, 52, 82
5, 194252, Note_off_c, 3, 52, 64
5, 194382, Note_on_c, 3, 54, 70
5, 194491, Note_off_c, 3, 54, 64
5, 194612, Note_on_c, 3, 52, 72
5, 194716, Note_off_c, 3, 52, 64
5, 194852, Note_on_c, 3, 51, 85
5, 194980, Note_off_c, 3, 51, 64
5, 195075, Note_on_c, 3, 49, 62
5, 195177, Note_off_c, 3, 49, 64
5, 195321, Note_on_c, 3, 51, 70
5, 195449, Note_off_c, 3, 51, 64
5, 195568, Note_on_c, 3, 47, 82
5, 195666, Note_off_c, 3, 47, 64
5, 195817, Note_on_c, 3, 52, 82
5, 195912, Note_off_c, 3, 52, 64
5, 196055, Note_on_c, 3, 40, 93
5, 196162, Note_off_c, 3, 40, 64
5, 196312, Note_on_c, 3, 52, 82
5, 196786, Note_off_c, 3, 52, 64
5, 196879, Note_on_c, 3, 49, 78
5, 196977, Note_off_c, 3, 49, 64
5, 196998, Note_on_c, 3, 50, 66
5, 197093, Note_off_c, 3, 50, 64
5, 197114, Note_on_c, 3, 52, 74
5, 197204, Note_off_c, 3, 52, 64
5, 197257, Note_on_c, 3, 54, 91
5, 197353, Note_on_c, 3, 52, 60
5, 197379, Note_off_c, 3, 54, 64
5, 197461, Note_off_c, 3, 52, 64
5, 197468, Note_on_c, 3, 54, 80
5, 197559, Note_off_c, 3, 54, 64
5, 197583, Note_on_c, 3, 55, 78
5, 197672, Note_off_c, 3, 55, 64
5, 197716, Note_on_c, 3, 57, 82
5, 197820, Note_off_c, 3, 57, 64
5, 197838, Note_on_c, 3, 55, 60
5, 197939, Note_off_c, 3, 55, 64
5, 197966, Note_on_c, 3, 57, 64
5, 198077, Note_off_c, 3, 57, 64
5, 198083, Note_on_c, 3, 59, 70
5, 198165, Note_off_c, 3, 59, 64
5, 198216, Note_on_c, 3, 57, 89
5, 198327, Note_on_c, 3, 55, 66
5, 198331, Note_off_c, 3, 57, 64
5, 198422, Note_off_c, 3, 55, 64
5, 198449, Note_on_c, 3, 54, 60
5, 198526, Note_off_c, 3, 54, 64
5, 198573, Note_on_c, 3, 57, 72
5, 198658, Note_off_c, 3, 57, 64
5, 198707, Note_on_c, 3, 55, 87
5, 198791, Note_off_c, 3, 55, 64
5, 198947, Note_on_c, 3, 54, 87
5, 199319, Note_off_c, 3, 54, 64
5, 199425, Note_on_c, 3, 52, 66
5, 199560, Note_off_c, 3, 52, 64
5, 199655, Note_on_c, 3, 54, 85
5, 199752, Note_off_c, 3, 54, 64
5, 199774, Note_on_c, 3, 52, 85
5, 199863, Note_off_c, 3, 52, 64
5, 199890, Note_on_c, 3, 51, 70
5, 199980, Note_off_c, 3, 51, 64
5, 199991, Note_on_c, 3, 52, 78
5, 200075, Note_off_c, 3, 52, 64
5, 200124, Note_on_c, 3, 54, 85
5, 200235, Note_off_c, 3, 54, 64
5, 200363, Note_on_c, 3, 47, 78
5, 200459, Note_off_c, 3, 47, 64
5, 200627, Note_on_c, 3, 52, 87
5, 200709, Note_off_c, 3, 52, 64
5, 200866, Note_on_c, 3, 51, 95
5, 201238, Note_off_c, 3, 51, 64
5, 201339, Note_on_c, 3, 49, 80
5, 201452, Note_off_c, 3, 49, 64
5, 201581, Note_on_c, 3, 51, 82
5, 201685, Note_on_c, 3, 52, 70
5, 201705, Note_off_c, 3, 51, 64
5, 201787, Note_off_c, 3, 52, 64
5, 201802, Note_on_c, 3, 51, 76
5, 201904, Note_on_c, 3, 49, 76
5, 201919, Note_off_c, 3, 51, 64
5, 202001, Note_off_c, 3, 49, 64
5, 202037, Note_on_c, 3, 47, 85
5, 202150, Note_on_c, 3, 49, 76
5, 202159, Note_off_c, 3, 47, 64
5, 202262, Note_off_c, 3, 49, 64
5, 202273, Note_on_c, 3, 51, 68
5, 202369, Note_off_c, 3, 51, 64
5, 202387, Note_on_c, 3, 52, 70
5, 202466, Note_off_c, 3, 52, 64
5, 202521, Note_on_c, 3, 54, 89
5, 202633, Note_on_c, 3, 55, 76
5, 202650, Note_off_c, 3, 54, 64
5, 202733, Note_off_c, 3, 55, 64
5, 202745, Note_on_c, 3, 54, 93
5, 202853, Note_off_c, 3, 54, 64
5, 202856, Note_on_c, 3, 52, 64
5, 202958, Note_off_c, 3, 52, 64
5, 202988, Note_on_c, 3, 51, 70
5, 203104, Note_off_c, 3, 51, 64
5, 203109, Note_on_c, 3, 47, 68
5, 203230, Note_on_c, 3, 49, 68
5, 203261, Note_off_c, 3, 47, 64
5, 203356, Note_on_c, 3, 51, 72
5, 203394, Note_off_c, 3, 49, 64
5, 203487, Note_off_c, 3, 51, 64
5, 203489, Note_on_c, 3, 52, 82
5, 203608, Note_on_c, 3, 54, 66
5, 203617, Note_off_c, 3, 52, 64
5, 203717, Note_off_c, 3, 54, 64
5, 203726, Note_on_c, 3, 52, 59
5, 203828, Note_off_c, 3, 52, 64
5, 203838, Note_on_c, 3, 50, 70
5, 203929, Note_off_c, 3, 50, 64
5, 203974, Note_on_c, 3, 49, 85
5, 204066, Note_off_c, 3, 49, 64
5, 204084, Note_on_c, 3, 50, 76
5, 204175, Note_off_c, 3, 50, 64
5, 204210, Note_on_c, 3, 52, 66
5, 204312, Note_off_c, 3, 52, 64
5, 204319, Note_on_c, 3, 54, 64
5, 204401, Note_off_c, 3, 54, 64
5, 204443, Note_on_c, 3, 55, 76
5, 204554, Note_on_c, 3, 57, 76
5, 204562, Note_off_c, 3, 55, 64
5, 204638, Note_off_c, 3, 57, 64
5, 204678, Note_on_c, 3, 55, 80
5, 204777, Note_off_c, 3, 55, 64
5, 204790, Note_on_c, 3, 54, 62
5, 204884, Note_off_c, 3, 54, 64
5, 204925, Note_on_c, 3, 52, 80
5, 205016, Note_off_c, 3, 52, 64
5, 205040, Note_on_c, 3, 57, 70
5, 205127, Note_off_c, 3, 57, 64
5, 205164, Note_on_c, 3, 55, 87
5, 205260, Note_off_c, 3, 55, 64
5, 205282, Note_on_c, 3, 57, 70
5, 205364, Note_off_c, 3, 57, 64
5, 205424, Note_on_c, 3, 54, 91
5, 205532, Note_on_c, 3, 55, 76
5, 205554, Note_off_c, 3, 54, 64
5, 205629, Note_off_c, 3, 55, 64
5, 205654, Note_on_c, 3, 54, 78
5, 205767, Note_off_c, 3, 54, 64
5, 205773, Note_on_c, 3, 52, 76
5, 205869, Note_off_c, 3, 52, 64
5, 205897, Note_on_c, 3, 50, 82
5, 206003, Note_on_c, 3, 52, 76
5, 206005, Note_off_c, 3, 50, 64
5, 206109, Note_off_c, 3, 52, 64
5, 206112, Note_on_c, 3, 54, 64
5, 206227, Note_on_c, 3, 56, 64
5, 206245, Note_off_c, 3, 54, 64
5, 206305, Note_off_c, 3, 56, 64
5, 206356, Note_on_c, 3, 58, 80
5, 206466, Note_on_c, 3, 59, 68
5, 206467, Note_off_c, 3, 58, 64
5, 206559, Note_off_c, 3, 59, 64
5, 206599, Note_on_c, 3, 58, 87
5, 206699, Note_off_c, 3, 58, 64
5, 206714, Note_on_c, 3, 56, 63
5, 206811, Note_off_c, 3, 56, 64
5, 206842, Note_on_c, 3, 54, 82
5, 206947, Note_off_c, 3, 54, 64
5, 206953, Note_on_c, 3, 56, 63
5, 207062, Note_off_c, 3, 56, 64
5, 207079, Note_on_c, 3, 58, 72
5, 207181, Note_off_c, 3, 58, 64
5, 207197, Note_on_c, 3, 54, 80
5, 207270, Note_off_c, 3, 54, 64
5, 207329, Note_on_c, 3, 59, 89
5, 207447, Note_on_c, 3, 57, 78
5, 207455, Note_off_c, 3, 59, 64
5, 207535, Note_off_c, 3, 57, 64
5, 207568, Note_on_c, 3, 55, 82
5, 207662, Note_off_c, 3, 55, 64
5, 207681, Note_on_c, 3, 54, 58
5, 207803, Note_off_c, 3, 54, 64
5, 207805, Note_on_c, 3, 52, 80
5, 207894, Note_off_c, 3, 52, 64
5, 207938, Note_on_c, 3, 50, 72
5, 208031, Note_off_c, 3, 50, 64
5, 208060, Note_on_c, 3, 49, 89
5, 208144, Note_off_c, 3, 49, 64
5, 208162, Note_on_c, 3, 47, 82
5, 208275, Note_off_c, 3, 47, 64
5, 208303, Note_on_c, 3, 46, 93
5, 208412, Note_off_c, 3, 46, 64
5, 208543, Note_on_c, 3, 47, 82
5, 208649, Note_off_c, 3, 47, 64
5, 208775, Note_on_c, 3, 54, 87
5, 208895, Note_off_c, 3, 54, 64
5, 209027, Note_on_c, 3, 42, 80
5, 209165, Note_off_c, 3, 42, 64
5, 234701, Note_on_c, 3, 59, 80
5, 234787, Note_off_c, 3, 59, 64
5, 234935, Note_on_c, 3, 62, 87
5, 235015, Note_off_c, 3, 62, 64
5, 235186, Note_on_c, 3, 61, 72
5, 235562, Note_off_c, 3, 61, 64
5, 235673, Note_on_c, 3, 59, 70
5, 235792, Note_off_c, 3, 59, 64
5, 235916, Note_on_c, 3, 61, 85
5, 236012, Note_off_c, 3, 61, 64
5, 236025, Note_on_c, 3, 59, 82
5, 236118, Note_off_c, 3, 59, 64
5, 236129, Note_on_c, 3, 57, 80
5, 236239, Note_on_c, 3, 59, 82
5, 236251, Note_off_c, 3, 57, 64
5, 236337, Note_off_c, 3, 59, 64
5, 236363, Note_on_c, 3, 61, 80
5, 236465, Note_off_c, 3, 61, 64
5, 236614, Note_on_c, 3, 54, 74
5, 236707, Note_off_c, 3, 54, 64
5, 236877, Note_on_c, 3, 59, 87
5, 236961, Note_off_c, 3, 59, 64
5, 237110, Note_on_c, 3, 57, 89
5, 237483, Note_off_c, 3, 57, 64
5, 237589, Note_on_c, 3, 56, 76
5, 237716, Note_off_c, 3, 56, 64
5, 237827, Note_on_c, 3, 57, 85
5, 237933, Note_off_c, 3, 57, 64
5, 237933, Note_on_c, 3, 59, 82
5, 238048, Note_on_c, 3, 57, 82
5, 238055, Note_off_c, 3, 59, 64
5, 238161, Note_on_c, 3, 56, 70
5, 238172, Note_off_c, 3, 57, 64
5, 238287, Note_on_c, 3, 54, 72
5, 238289, Note_off_c, 3, 56, 64
5, 238406, Note_on_c, 3, 56, 64
5, 238424, Note_off_c, 3, 54, 64
5, 238493, Note_off_c, 3, 56, 64
5, 238520, Note_on_c, 3, 57, 66
5, 238646, Note_on_c, 3, 59, 76
5, 238652, Note_off_c, 3, 57, 64
5, 238712, Note_off_c, 3, 59, 64
5, 238770, Note_on_c, 3, 61, 76
5, 238900, Note_on_c, 3, 62, 68
5, 238913, Note_off_c, 3, 61, 64
5, 238997, Note_off_c, 3, 62, 64
5, 239022, Note_on_c, 3, 61, 54
5, 239119, Note_off_c, 3, 61, 64
5, 239122, Note_on_c, 3, 59, 59
5, 239215, Note_off_c, 3, 59, 64
5, 239252, Note_on_c, 3, 58, 82
5, 239365, Note_on_c, 3, 59, 72
5, 239380, Note_off_c, 3, 58, 64
5, 239480, Note_off_c, 3, 59, 64
5, 239504, Note_on_c, 3, 61, 51
5, 239606, Note_on_c, 3, 58, 57
5, 239637, Note_off_c, 3, 61, 64
5, 239686, Note_off_c, 3, 58, 64
5, 239730, Note_on_c, 3, 59, 85
5, 239847, Note_on_c, 3, 61, 60
5, 239859, Note_off_c, 3, 59, 64
5, 239965, Note_on_c, 3, 59, 68
5, 239991, Note_off_c, 3, 61, 64
5, 240075, Note_off_c, 3, 59, 64
5, 240085, Note_on_c, 3, 57, 68
5, 240202, Note_on_c, 3, 55, 60
5, 240211, Note_off_c, 3, 57, 64
5, 240321, Note_off_c, 3, 55, 64
5, 240334, Note_on_c, 3, 57, 66
5, 240441, Note_off_c, 3, 57, 64
5, 240447, Note_on_c, 3, 59, 61
5, 240547, Note_off_c, 3, 59, 64
5, 240575, Note_on_c, 3, 61, 58
5, 240682, Note_off_c, 3, 61, 64
5, 240706, Note_on_c, 3, 62, 95
5, 240831, Note_on_c, 3, 64, 78
5, 240855, Note_off_c, 3, 62, 64
5, 240932, Note_off_c, 3, 64, 64
5, 240947, Note_on_c, 3, 62, 76
5, 241054, Note_off_c, 3, 62, 64
5, 241061, Note_on_c, 3, 61, 57
5, 241163, Note_off_c, 3, 61, 64
5, 241180, Note_on_c, 3, 59, 74
5, 241295, Note_on_c, 3, 61, 74
5, 241297, Note_off_c, 3, 59, 64
5, 241401, Note_off_c, 3, 61, 64
5, 241408, Note_on_c, 3, 62, 74
5, 241494, Note_off_c, 3, 62, 64
5, 241519, Note_on_c, 3, 59, 66
5, 241607, Note_off_c, 3, 59, 64
5, 241663, Note_on_c, 3, 61, 87
5, 241766, Note_on_c, 3, 62, 70
5, 241784, Note_off_c, 3, 61, 64
5, 241868, Note_off_c, 3, 62, 64
5, 241893, Note_on_c, 3, 61, 76
5, 241997, Note_off_c, 3, 61, 64
5, 242003, Note_on_c, 3, 59, 76
5, 242117, Note_off_c, 3, 59, 64
5, 242145, Note_on_c, 3, 57, 70
5, 242256, Note_on_c, 3, 59, 68
5, 242263, Note_off_c, 3, 57, 64
5, 242389, Note_on_c, 3, 61, 57
5, 242390, Note_off_c, 3, 59, 64
5, 242497, Note_off_c, 3, 61, 64
5, 242510, Note_on_c, 3, 62, 76
5, 242603, Note_off_c, 3, 62, 64
5, 242639, Note_on_c, 3, 64, 89
5, 242754, Note_on_c, 3, 66, 70
5, 242772, Note_off_c, 3, 64, 64
5, 242854, Note_off_c, 3, 66, 64
5, 242863, Note_on_c, 3, 64, 63
5, 242975, Note_off_c, 3, 64, 64
5, 242980, Note_on_c, 3, 62, 68
5, 243093, Note_off_c, 3, 62, 64
5, 243110, Note_on_c, 3, 61, 58
5, 243210, Note_on_c, 3, 62, 74
5, 243226, Note_off_c, 3, 61, 64
5, 243332, Note_off_c, 3, 62, 64
5, 243336, Note_on_c, 3, 64, 58
5, 243450, Note_on_c, 3, 61, 60
5, 243476, Note_off_c, 3, 64, 64
5, 243535, Note_off_c, 3, 61, 64
5, 243551, Note_on_c, 3, 62, 70
5, 243684, Note_on_c, 3, 64, 70
5, 243702, Note_off_c, 3, 62, 64
5, 243803, Note_off_c, 3, 64, 64
5, 243814, Note_on_c, 3, 62, 80
5, 243923, Note_on_c, 3, 61, 62
5, 243938, Note_off_c, 3, 62, 64
5, 244049, Note_on_c, 3, 59, 74
5, 244069, Note_off_c, 3, 61, 64
5, 244160, Note_on_c, 3, 57, 76
5, 244168, Note_off_c, 3, 59, 64
5, 244273, Note_on_c, 3, 55, 61
5, 244290, Note_off_c, 3, 57, 64
5, 244383, Note_off_c, 3, 55, 64
5, 244396, Note_on_c, 3, 54, 93
5, 244483, Note_off_c, 3, 54, 64
5, 244534, Note_on_c, 3, 52, 87
5, 244753, Note_off_c, 3, 52, 64
5, 244783, Note_on_c, 3, 54, 66
5, 244881, Note_off_c, 3, 54, 64
5, 244899, Note_on_c, 3, 55, 85
5, 245008, Note_off_c, 3, 55, 64
5, 245029, Note_on_c, 3, 57, 70
5, 245136, Note_off_c, 3, 57, 64
5, 245143, Note_on_c, 3, 59, 80
5, 245240, Note_off_c, 3, 59, 64
5, 245260, Note_on_c, 3, 61, 66
5, 245351, Note_off_c, 3, 61, 64
5, 245364, Note_on_c, 3, 57, 72
5, 245452, Note_off_c, 3, 57, 64
5, 245488, Note_on_c, 3, 62, 85
5, 245621, Note_off_c, 3, 62, 64
5, 245736, Note_on_c, 3, 61, 66
5, 245846, Note_off_c, 3, 61, 64
5, 245972, Note_on_c, 3, 59, 74
5, 246070, Note_off_c, 3, 59, 64
5, 246214, Note_on_c, 3, 62, 89
5, 246309, Note_off_c, 3, 62, 64
5, 246451, Note_on_c, 3, 55, 82
5, 246563, Note_off_c, 3, 55, 64
5, 246703, Note_on_c, 3, 54, 66
5, 246810, Note_off_c, 3, 54, 64
5, 246938, Note_on_c, 3, 52, 72
5, 247055, Note_off_c, 3, 52, 64
5, 247181, Note_on_c, 3, 54, 61
5, 247279, Note_off_c, 3, 54, 64
5, 247420, Note_on_c, 3, 59, 82
5, 247524, Note_off_c, 3, 59, 64
5, 247653, Note_on_c, 3, 47, 70
5, 247785, Note_off_c, 3, 47, 64
5, 247901, Note_on_c, 3, 50, 85
5, 247994, Note_off_c, 3, 50, 64
5, 248140, Note_on_c, 3, 54, 70
5, 248233, Note_off_c, 3, 54, 64
5, 248380, Note_on_c, 3, 57, 87
5, 248470, Note_off_c, 3, 57, 64
5, 248613, Note_on_c, 3, 47, 72
5, 248722, Note_off_c, 3, 47, 64
5, 248884, Note_on_c, 3, 57, 82
5, 249503, Note_off_c, 3, 57, 64
5, 249578, Note_on_c, 3, 55, 72
5, 249669, Note_off_c, 3, 55, 64
5, 249687, Note_on_c, 3, 54, 78
5, 249771, Note_off_c, 3, 54, 64
5, 249813, Note_on_c, 3, 52, 82
5, 249919, Note_off_c, 3, 52, 64
5, 250050, Note_on_c, 3, 50, 74
5, 250172, Note_off_c, 3, 50, 64
5, 250291, Note_on_c, 3, 49, 61
5, 250418, Note_off_c, 3, 49, 64
5, 250530, Note_on_c, 3, 47, 72
5, 250634, Note_off_c, 3, 47, 64
5, 250780, Note_on_c, 3, 49, 68
5, 250900, Note_off_c, 3, 49, 64
5, 251015, Note_on_c, 3, 45, 64
5, 251128, Note_off_c, 3, 45, 64
5, 251254, Note_on_c, 3, 50, 85
5, 251369, Note_off_c, 3, 50, 64
5, 251507, Note_on_c, 3, 52, 80
5, 251628, Note_off_c, 3, 52, 64
5, 251748, Note_on_c, 3, 54, 63
5, 251869, Note_off_c, 3, 54, 64
5, 251978, Note_on_c, 3, 52, 66
5, 252076, Note_off_c, 3, 52, 64
5, 252219, Note_on_c, 3, 51, 76
5, 252346, Note_off_c, 3, 51, 64
5, 252447, Note_on_c, 3, 49, 61
5, 252564, Note_off_c, 3, 49, 64
5, 252695, Note_on_c, 3, 51, 62
5, 252812, Note_off_c, 3, 51, 64
5, 252937, Note_on_c, 3, 47, 72
5, 253060, Note_off_c, 3, 47, 64
5, 253185, Note_on_c, 3, 52, 85
5, 253284, Note_off_c, 3, 52, 64
5, 253426, Note_on_c, 3, 40, 89
5, 253537, Note_off_c, 3, 40, 64
5, 253683, Note_on_c, 3, 52, 78
5, 254172, Note_off_c, 3, 52, 64
5, 254256, Note_on_c, 3, 49, 87
5, 254355, Note_on_c, 3, 50, 82
5, 254360, Note_off_c, 3, 49, 64
5, 254433, Note_off_c, 3, 50, 64
5, 254466, Note_on_c, 3, 52, 85
5, 254557, Note_off_c, 3, 52, 64
5, 254590, Note_on_c, 3, 54, 85
5, 254712, Note_off_c, 3, 54, 64
5, 254849, Note_on_c, 3, 42, 76
5, 254958, Note_off_c, 3, 42, 64
5, 255092, Note_on_c, 3, 47, 80
5, 255606, Note_off_c, 3, 47, 64
5, 293970, Note_on_c, 3, 50, 40
5, 294313, Note_off_c, 3, 50, 64
5, 294483, Note_on_c, 3, 45, 45
5, 294988, Note_off_c, 3, 45, 64
5, 295917, Note_on_c, 3, 49, 42
5, 296261, Note_off_c, 3, 49, 64
5, 296395, Note_on_c, 3, 50, 51
5, 296896, Note_off_c, 3, 50, 64
5, 297830, Note_on_c, 3, 50, 47
5, 298153, Note_off_c, 3, 50, 64
5, 298304, Note_on_c, 3, 55, 48
5, 298780, Note_off_c, 3, 55, 64
5, 299732, Note_on_c, 3, 52, 54
5, 300068, Note_off_c, 3, 52, 64
5, 300240, Note_on_c, 3, 59, 89
5, 300349, Note_on_c, 3, 60, 64
5, 300373, Note_off_c, 3, 59, 64
5, 300466, Note_on_c, 3, 59, 60
5, 300468, Note_off_c, 3, 60, 64
5, 300575, Note_on_c, 3, 57, 58
5, 300592, Note_off_c, 3, 59, 64
5, 300692, Note_off_c, 3, 57, 64
5, 300692, Note_on_c, 3, 55, 60
5, 300787, Note_on_c, 3, 54, 64
5, 300792, Note_off_c, 3, 55, 64
5, 300913, Note_off_c, 3, 54, 64
5, 300913, Note_on_c, 3, 52, 74
5, 301024, Note_on_c, 3, 51, 68
5, 301029, Note_off_c, 3, 52, 64
5, 301124, Note_off_c, 3, 51, 64
5, 301159, Note_on_c, 3, 52, 91
5, 301274, Note_on_c, 3, 54, 66
5, 301305, Note_off_c, 3, 52, 64
5, 301385, Note_off_c, 3, 54, 64
5, 301396, Note_on_c, 3, 55, 70
5, 301496, Note_off_c, 3, 55, 64
5, 301511, Note_on_c, 3, 52, 70
5, 301617, Note_off_c, 3, 52, 64
5, 301644, Note_on_c, 3, 54, 80
5, 301748, Note_on_c, 3, 55, 80
5, 301768, Note_off_c, 3, 54, 64
5, 301854, Note_off_c, 3, 55, 64
5, 301878, Note_on_c, 3, 57, 66
5, 301985, Note_off_c, 3, 57, 64
5, 301992, Note_on_c, 3, 54, 64
5, 302077, Note_off_c, 3, 54, 64
5, 302137, Note_on_c, 3, 55, 85
5, 302698, Note_off_c, 3, 55, 64
5, 302729, Note_on_c, 3, 54, 68
5, 302817, Note_off_c, 3, 54, 64
5, 302839, Note_on_c, 3, 55, 74
5, 302956, Note_off_c, 3, 55, 64
5, 302963, Note_on_c, 3, 57, 72
5, 303036, Note_off_c, 3, 57, 64
5, 303090, Note_on_c, 3, 55, 89
5, 303204, Note_on_c, 3, 54, 78
5, 303215, Note_off_c, 3, 55, 64
5, 303309, Note_on_c, 3, 52, 72
5, 303315, Note_off_c, 3, 54, 64
5, 303399, Note_off_c, 3, 52, 64
5, 303422, Note_on_c, 3, 55, 68
5, 303510, Note_off_c, 3, 55, 64
5, 303557, Note_on_c, 3, 54, 102
5, 303663, Note_off_c, 3, 54, 64
5, 303671, Note_on_c, 3, 52, 70
5, 303765, Note_off_c, 3, 52, 64
5, 303795, Note_on_c, 3, 51, 62
5, 303899, Note_on_c, 3, 54, 64
5, 303924, Note_off_c, 3, 51, 64
5, 304002, Note_off_c, 3, 54, 64
5, 304039, Note_on_c, 3, 52, 82
5, 304136, Note_off_c, 3, 52, 64
5, 304283, Note_on_c, 3, 47, 80
5, 304376, Note_off_c, 3, 47, 64
5, 304535, Note_on_c, 3, 43, 76
5, 304630, Note_off_c, 3, 43, 64
5, 304756, Note_on_c, 3, 47, 82
5, 304836, Note_off_c, 3, 47, 64
5, 305002, Note_on_c, 3, 40, 87
5, 305204, Note_off_c, 3, 40, 64
5, 305252, Note_on_c, 3, 42, 80
5, 305347, Note_off_c, 3, 42, 64
5, 305356, Note_on_c, 3, 43, 72
5, 305443, Note_off_c, 3, 43, 64
5, 305471, Note_on_c, 3, 45, 68
5, 305571, Note_off_c, 3, 45, 64
5, 305589, Note_on_c, 3, 47, 82
5, 305693, Note_off_c, 3, 47, 64
5, 305712, Note_on_c, 3, 49, 68
5, 305788, Note_off_c, 3, 49, 64
5, 305801, Note_on_c, 3, 45, 66
5, 305894, Note_off_c, 3, 45, 64
5, 305951, Note_on_c, 3, 50, 82
5, 306067, Note_off_c, 3, 50, 64
5, 306073, Note_on_c, 3, 52, 76
5, 306184, Note_off_c, 3, 52, 64
5, 306192, Note_on_c, 3, 54, 64
5, 306282, Note_off_c, 3, 54, 64
5, 306295, Note_on_c, 3, 52, 78
5, 306401, Note_off_c, 3, 52, 64
5, 306428, Note_on_c, 3, 50, 76
5, 306549, Note_off_c, 3, 50, 64
5, 306667, Note_on_c, 3, 55, 82
5, 306771, Note_off_c, 3, 55, 64
5, 306921, Note_on_c, 3, 52, 76
5, 307140, Note_off_c, 3, 52, 64
5, 307408, Note_on_c, 3, 54, 74
5, 307610, Note_off_c, 3, 54, 64
5, 307900, Note_on_c, 3, 47, 80
5, 308148, Note_off_c, 3, 47, 64
5, 313420, Note_on_c, 3, 52, 80
5, 313516, Note_off_c, 3, 52, 64
5, 313664, Note_on_c, 3, 55, 80
5, 313761, Note_off_c, 3, 55, 64
5, 313901, Note_on_c, 3, 54, 68
5, 314288, Note_off_c, 3, 54, 64
5, 314387, Note_on_c, 3, 52, 68
5, 314518, Note_off_c, 3, 52, 64
5, 314629, Note_on_c, 3, 54, 87
5, 314729, Note_off_c, 3, 54, 64
5, 314737, Note_on_c, 3, 52, 78
5, 314817, Note_off_c, 3, 52, 64
5, 314848, Note_on_c, 3, 50, 74
5, 314941, Note_off_c, 3, 50, 64
5, 314965, Note_on_c, 3, 52, 70
5, 315058, Note_off_c, 3, 52, 64
5, 315091, Note_on_c, 3, 54, 72
5, 315238, Note_off_c, 3, 54, 64
5, 315333, Note_on_c, 3, 47, 70
5, 315446, Note_off_c, 3, 47, 64
5, 315579, Note_on_c, 3, 52, 85
5, 315663, Note_off_c, 3, 52, 64
5, 315815, Note_on_c, 3, 50, 80
5, 316183, Note_off_c, 3, 50, 64
5, 316307, Note_on_c, 3, 49, 72
5, 316431, Note_off_c, 3, 49, 64
5, 316557, Note_on_c, 3, 50, 89
5, 316657, Note_on_c, 3, 52, 68
5, 316690, Note_off_c, 3, 50, 64
5, 316765, Note_on_c, 3, 50, 70
5, 316783, Note_off_c, 3, 52, 64
5, 316873, Note_on_c, 3, 49, 66
5, 316882, Note_off_c, 3, 50, 64
5, 316984, Note_off_c, 3, 49, 64
5, 317006, Note_on_c, 3, 47, 64
5, 317203, Note_off_c, 3, 47, 64
5, 324948, Note_on_c, 3, 58, 76
5, 325035, Note_off_c, 3, 58, 64
5, 325205, Note_on_c, 3, 59, 85
5, 325290, Note_off_c, 3, 59, 64
5, 325434, Note_on_c, 3, 57, 78
5, 325790, Note_off_c, 3, 57, 64
5, 325911, Note_on_c, 3, 56, 68
5, 326051, Note_off_c, 3, 56, 64
5, 326151, Note_on_c, 3, 57, 74
5, 326258, Note_on_c, 3, 59, 66
5, 326281, Note_off_c, 3, 57, 64
5, 326354, Note_off_c, 3, 59, 64
5, 326377, Note_on_c, 3, 57, 68
5, 326481, Note_on_c, 3, 56, 63
5, 326489, Note_off_c, 3, 57, 64
5, 326595, Note_off_c, 3, 56, 64
5, 326620, Note_on_c, 3, 54, 63
5, 326735, Note_on_c, 3, 53, 91
5, 326739, Note_off_c, 3, 54, 64
5, 326852, Note_off_c, 3, 53, 64
5, 326855, Note_on_c, 3, 54, 62
5, 326941, Note_off_c, 3, 54, 64
5, 326961, Note_on_c, 3, 56, 78
5, 327063, Note_off_c, 3, 56, 64
5, 327102, Note_on_c, 3, 57, 82
5, 327207, Note_off_c, 3, 57, 64
5, 327342, Note_on_c, 3, 55, 78
5, 327676, Note_off_c, 3, 55, 64
5, 327826, Note_on_c, 3, 54, 59
5, 327961, Note_off_c, 3, 54, 64
5, 328067, Note_on_c, 3, 55, 85
5, 328181, Note_on_c, 3, 57, 68
5, 328200, Note_off_c, 3, 55, 64
5, 328274, Note_off_c, 3, 57, 64
5, 328298, Note_on_c, 3, 55, 60
5, 328390, Note_off_c, 3, 55, 64
5, 328406, Note_on_c, 3, 54, 55
5, 328513, Note_off_c, 3, 54, 64
5, 328526, Note_on_c, 3, 52, 68
5, 328643, Note_on_c, 3, 50, 60
5, 328657, Note_off_c, 3, 52, 64
5, 328741, Note_off_c, 3, 50, 64
5, 328760, Note_on_c, 3, 52, 66
5, 328870, Note_off_c, 3, 52, 64
5, 328885, Note_on_c, 3, 54, 70
5, 328984, Note_off_c, 3, 54, 64
5, 329010, Note_on_c, 3, 55, 85
5, 329112, Note_off_c, 3, 55, 64
5, 329256, Note_on_c, 3, 54, 66
5, 329610, Note_off_c, 3, 54, 64
5, 329726, Note_on_c, 3, 52, 66
5, 329841, Note_off_c, 3, 52, 64
5, 329974, Note_on_c, 3, 54, 95
5, 330077, Note_on_c, 3, 55, 68
5, 330100, Note_off_c, 3, 54, 64
5, 330190, Note_off_c, 3, 55, 64
5, 330206, Note_on_c, 3, 54, 66
5, 330310, Note_on_c, 3, 52, 66
5, 330321, Note_off_c, 3, 54, 64
5, 330412, Note_off_c, 3, 52, 64
5, 330438, Note_on_c, 3, 50, 70
5, 330684, Note_off_c, 3, 50, 64
5, 363346, Note_on_c, 3, 47, 76
5, 363430, Note_off_c, 3, 47, 64
5, 363585, Note_on_c, 3, 52, 82
5, 363654, Note_off_c, 3, 52, 64
5, 363827, Note_on_c, 3, 50, 80
5, 364185, Note_off_c, 3, 50, 64
5, 364298, Note_on_c, 3, 52, 78
5, 364390, Note_off_c, 3, 52, 64
5, 364395, Note_on_c, 3, 50, 80
5, 364486, Note_off_c, 3, 50, 64
5, 364520, Note_on_c, 3, 49, 82
5, 364617, Note_off_c, 3, 49, 64
5, 364772, Note_on_c, 3, 57, 87
5, 365117, Note_off_c, 3, 57, 64
5, 365250, Note_on_c, 3, 49, 68
5, 365347, Note_off_c, 3, 49, 64
5, 365502, Note_on_c, 3, 50, 82
5, 365593, Note_off_c, 3, 50, 64
5, 365750, Note_on_c, 3, 49, 85
5, 366098, Note_off_c, 3, 49, 64
5, 366226, Note_on_c, 3, 50, 80
5, 366305, Note_off_c, 3, 50, 64
5, 366326, Note_on_c, 3, 49, 89
5, 366405, Note_off_c, 3, 49, 64
5, 366454, Note_on_c, 3, 47, 82
5, 366567, Note_off_c, 3, 47, 64
5, 366704, Note_on_c, 3, 55, 87
5, 367027, Note_off_c, 3, 55, 64
5, 367180, Note_on_c, 3, 47, 72
5, 367266, Note_off_c, 3, 47, 64
5, 367422, Note_on_c, 3, 49, 78
5, 367506, Note_off_c, 3, 49, 64
5, 367660, Note_on_c, 3, 47, 76
5, 368001, Note_off_c, 3, 47, 64
5, 368128, Note_on_c, 3, 49, 74
5, 368223, Note_off_c, 3, 49, 64
5, 368229, Note_on_c, 3, 47, 72
5, 368324, Note_off_c, 3, 47, 64
5, 368373, Note_on_c, 3, 46, 78
5, 368490, Note_off_c, 3, 46, 64
5, 368617, Note_on_c, 3, 54, 82
5, 368971, Note_off_c, 3, 54, 64
5, 369095, Note_on_c, 3, 46, 74
5, 369192, Note_off_c, 3, 46, 64
5, 369345, Note_on_c, 3, 47, 82
5, 369453, Note_off_c, 3, 47, 64
5, 369571, Note_on_c, 3, 49, 70
5, 369675, Note_off_c, 3, 49, 64
5, 369823, Note_on_c, 3, 50, 85
5, 369909, Note_off_c, 3, 50, 64
5, 370047, Note_on_c, 3, 47, 80
5, 370120, Note_off_c, 3, 47, 64
5, 370292, Note_on_c, 3, 52, 78
5, 370412, Note_off_c, 3, 52, 64
5, 370534, Note_on_c, 3, 54, 62
5, 370631, Note_off_c, 3, 54, 64
5, 370642, Note_on_c, 3, 55, 68
5, 370733, Note_off_c, 3, 55, 64
5, 370764, Note_on_c, 3, 57, 76
5, 370859, Note_off_c, 3, 57, 64
5, 370881, Note_on_c, 3, 59, 82
5, 370967, Note_off_c, 3, 59, 64
5, 370999, Note_on_c, 3, 61, 85
5, 371089, Note_off_c, 3, 61, 64
5, 371105, Note_on_c, 3, 57, 76
5, 371198, Note_off_c, 3, 57, 64
5, 371236, Note_on_c, 3, 62, 93
5, 371350, Note_off_c, 3, 62, 64
5, 371488, Note_on_c, 3, 61, 63
5, 371601, Note_off_c, 3, 61, 64
5, 371736, Note_on_c, 3, 59, 72
5, 371826, Note_off_c, 3, 59, 64
5, 371978, Note_on_c, 3, 62, 82
5, 372070, Note_off_c, 3, 62, 64
5, 372220, Note_on_c, 3, 55, 85
5, 372329, Note_off_c, 3, 55, 64
5, 372446, Note_on_c, 3, 54, 66
5, 372549, Note_off_c, 3, 54, 64
5, 372683, Note_on_c, 3, 52, 76
5, 372791, Note_off_c, 3, 52, 64
5, 372933, Note_on_c, 3, 54, 58
5, 373017, Note_off_c, 3, 54, 64
5, 373175, Note_on_c, 3, 59, 91
5, 373274, Note_off_c, 3, 59, 64
5, 373411, Note_on_c, 3, 47, 70
5, 373526, Note_off_c, 3, 47, 64
5, 373651, Note_on_c, 3, 50, 85
5, 373739, Note_off_c, 3, 50, 64
5, 373885, Note_on_c, 3, 54, 74
5, 373987, Note_off_c, 3, 54, 64
5, 374128, Note_on_c, 3, 57, 93
5, 374219, Note_off_c, 3, 57, 64
5, 374363, Note_on_c, 3, 47, 80
5, 374454, Note_off_c, 3, 47, 64
5, 374624, Note_on_c, 3, 57, 93
5, 375180, Note_off_c, 3, 57, 64
5, 375342, Note_on_c, 3, 55, 85
5, 375430, Note_off_c, 3, 55, 64
5, 375450, Note_on_c, 3, 54, 78
5, 375532, Note_off_c, 3, 54, 64
5, 375574, Note_on_c, 3, 52, 85
5, 375665, Note_off_c, 3, 52, 64
5, 375813, Note_on_c, 3, 50, 80
5, 375928, Note_off_c, 3, 50, 64
5, 376054, Note_on_c, 3, 49, 87
5, 376169, Note_off_c, 3, 49, 64
5, 376298, Note_on_c, 3, 47, 82
5, 376406, Note_off_c, 3, 47, 64
5, 376541, Note_on_c, 3, 49, 91
5, 376646, Note_off_c, 3, 49, 64
5, 376774, Note_on_c, 3, 45, 82
5, 376884, Note_off_c, 3, 45, 64
5, 377019, Note_on_c, 3, 50, 91
5, 377132, Note_off_c, 3, 50, 64
5, 377267, Note_on_c, 3, 52, 82
5, 377372, Note_off_c, 3, 52, 64
5, 377502, Note_on_c, 3, 54, 70
5, 377611, Note_off_c, 3, 54, 64
5, 377732, Note_on_c, 3, 52, 72
5, 377836, Note_off_c, 3, 52, 64
5, 377972, Note_on_c, 3, 51, 85
5, 378100, Note_off_c, 3, 51, 64
5, 378195, Note_on_c, 3, 49, 62
5, 378297, Note_off_c, 3, 49, 64
5, 378441, Note_on_c, 3, 51, 70
5, 378569, Note_off_c, 3, 51, 64
5, 378688, Note_on_c, 3, 47, 82
5, 378786, Note_off_c, 3, 47, 64
5, 378937, Note_on_c, 3, 52, 82
5, 379032, Note_off_c, 3, 52, 64
5, 379175, Note_on_c, 3, 40, 93
5, 379282, Note_off_c, 3, 40, 64
5, 379432, Note_on_c, 3, 52, 82
5, 379906, Note_off_c, 3, 52, 64
5, 379999, Note_on_c, 3, 49, 78
5, 380097, Note_off_c, 3, 49, 64
5, 380118, Note_on_c, 3, 50, 66
5, 380213, Note_off_c, 3, 50, 64
5, 380234, Note_on_c, 3, 52, 74
5, 380324, Note_off_c, 3, 52, 64
5, 380377, Note_on_c, 3, 54, 91
5, 380473, Note_on_c, 3, 52, 60
5, 380499, Note_off_c, 3, 54, 64
5, 380581, Note_off_c, 3, 52, 64
5, 380588, Note_on_c, 3, 54, 80
5, 380679, Note_off_c, 3, 54, 64
5, 380703, Note_on_c, 3, 55, 78
5, 380792, Note_off_c, 3, 55, 64
5, 380836, Note_on_c, 3, 57, 82
5, 380940, Note_off_c, 3, 57, 64
5, 380958, Note_on_c, 3, 55, 60
5, 381059, Note_off_c, 3, 55, 64
5, 381086, Note_on_c, 3, 57, 64
5, 381197, Note_off_c, 3, 57, 64
5, 381203, Note_on_c, 3, 59, 70
5, 381285, Note_off_c, 3, 59, 64
5, 381336, Note_on_c, 3, 57, 89
5, 381447, Note_on_c, 3, 55, 66
5, 381451, Note_off_c, 3, 57, 64
5, 381542, Note_off_c, 3, 55, 64
5, 381569, Note_on_c, 3, 54, 60
5, 381646, Note_off_c, 3, 54, 64
5, 381693, Note_on_c, 3, 57, 72
5, 381778, Note_off_c, 3, 57, 64
5, 381827, Note_on_c, 3, 55, 87
5, 381911, Note_off_c, 3, 55, 64
5, 382067, Note_on_c, 3, 54, 87
5, 382439, Note_off_c, 3, 54, 64
5, 382545, Note_on_c, 3, 52, 66
5, 382680, Note_off_c, 3, 52, 64
5, 382775, Note_on_c, 3, 54, 85
5, 382872, Note_off_c, 3, 54, 64
5, 382894, Note_on_c, 3, 52, 85
5, 382983, Note_off_c, 3, 52, 64
5, 383010, Note_on_c, 3, 51, 70
5, 383100, Note_off_c, 3, 51, 64
5, 383111, Note_on_c, 3, 52, 78
5, 383195, Note_off_c, 3, 52, 64
5, 383244, Note_on_c, 3, 54, 85
5, 383355, Note_off_c, 3, 54, 64
5, 383483, Note_on_c, 3, 47, 78
5, 383579, Note_off_c, 3, 47, 64
5, 383747, Note_on_c, 3, 52, 87
5, 383829, Note_off_c, 3, 52, 64
5, 383986, Note_on_c, 3, 51, 95
5, 384358, Note_off_c, 3, 51, 64
5, 384459, Note_on_c, 3, 49, 80
5, 384572, Note_off_c, 3, 49, 64
5, 384701, Note_on_c, 3, 51, 82
5, 384805, Note_on_c, 3, 52, 70
5, 384825, Note_off_c, 3, 51, 64
5, 384907, Note_off_c, 3, 52, 64
5, 384922, Note_on_c, 3, 51, 76
5, 385024, Note_on_c, 3, 49, 76
5, 385039, Note_off_c, 3, 51, 64
5, 385121, Note_off_c, 3, 49, 64
5, 385157, Note_on_c, 3, 47, 85
5, 385270, Note_on_c, 3, 49, 76
5, 385279, Note_off_c, 3, 47, 64
5, 385382, Note_off_c, 3, 49, 64
5, 385393, Note_on_c, 3, 51, 68
5, 385489, Note_off_c, 3, 51, 64
5, 385507, Note_on_c, 3, 52, 70
5, 385586, Note_off_c, 3, 52, 64
5, 385641, Note_on_c, 3, 54, 89
5, 385753, Note_on_c, 3, 55, 76
5, 385770, Note_off_c, 3, 54, 64
5, 385853, Note_off_c, 3, 55, 64
5, 385865, Note_on_c, 3, 54, 93
5, 385973, Note_off_c, 3, 54, 64
5, 385976, Note_on_c, 3, 52, 64
5, 386078, Note_off_c, 3, 52, 64
5, 386108, Note_on_c, 3, 51, 70
5, 386224, Note_off_c, 3, 51, 64
5, 386229, Note_on_c, 3, 47, 68
5, 386350, Note_on_c, 3, 49, 68
5, 386381, Note_off_c, 3, 47, 64
5, 386476, Note_on_c, 3, 51, 72
5, 386514, Note_off_c, 3, 49, 64
5, 386607, Note_off_c, 3, 51, 64
5, 386609, Note_on_c, 3, 52, 82
5, 386728, Note_on_c, 3, 54, 66
5, 386737, Note_off_c, 3, 52, 64
5, 386837, Note_off_c, 3, 54, 64
5, 386846, Note_on_c, 3, 52, 59
5, 386948, Note_off_c, 3, 52, 64
5, 386958, Note_on_c, 3, 50, 70
5, 387049, Note_off_c, 3, 50, 64
5, 387094, Note_on_c, 3, 49, 85
5, 387186, Note_off_c, 3, 49, 64
5, 387204, Note_on_c, 3, 50, 76
5, 387295, Note_off_c, 3, 50, 64
5, 387330, Note_on_c, 3, 52, 66
5, 387432, Note_off_c, 3, 52, 64
5, 387439, Note_on_c, 3, 54, 64
5, 387521, Note_off_c, 3, 54, 64
5, 387563, Note_on_c, 3, 55, 76
5, 387674, Note_on_c, 3, 57, 76
5, 387682, Note_off_c, 3, 55, 64
5, 387758, Note_off_c, 3, 57, 64
5, 387798, Note_on_c, 3, 55, 80
5, 387897, Note_off_c, 3, 55, 64
5, 387910, Note_on_c, 3, 54, 62
5, 388004, Note_off_c, 3, 54, 64
5, 388045, Note_on_c, 3, 52, 80
5, 388136, Note_off_c, 3, 52, 64
5, 388160, Note_on_c, 3, 57, 70
5, 388247, Note_off_c, 3, 57, 64
5, 388284, Note_on_c, 3, 55, 87
5, 388380, Note_off_c, 3, 55, 64
5, 388402, Note_on_c, 3, 57, 70
5, 388484, Note_off_c, 3, 57, 64
5, 388544, Note_on_c, 3, 54, 91
5, 388652, Note_on_c, 3, 55, 76
5, 388674, Note_off_c, 3, 54, 64
5, 388749, Note_off_c, 3, 55, 64
5, 388774, Note_on_c, 3, 54, 78
5, 388887, Note_off_c, 3, 54, 64
5, 388893, Note_on_c, 3, 52, 76
5, 388989, Note_off_c, 3, 52, 64
5, 389017, Note_on_c, 3, 50, 82
5, 389123, Note_on_c, 3, 52, 76
5, 389125, Note_off_c, 3, 50, 64
5, 389229, Note_off_c, 3, 52, 64
5, 389232, Note_on_c, 3, 54, 64
5, 389347, Note_on_c, 3, 56, 64
5, 389365, Note_off_c, 3, 54, 64
5, 389425, Note_off_c, 3, 56, 64
5, 389476, Note_on_c, 3, 58, 80
5, 389586, Note_on_c, 3, 59, 68
5, 389587, Note_off_c, 3, 58, 64
5, 389679, Note_off_c, 3, 59, 64
5, 389719, Note_on_c, 3, 58, 87
5, 389819, Note_off_c, 3, 58, 64
5, 389834, Note_on_c, 3, 56, 63
5, 389931, Note_off_c, 3, 56, 64
5, 389962, Note_on_c, 3, 54, 82
5, 390067, Note_off_c, 3, 54, 64
5, 390073, Note_on_c, 3, 56, 63
5, 390182, Note_off_c, 3, 56, 64
5, 390199, Note_on_c, 3, 58, 72
5, 390301, Note_off_c, 3, 58, 64
5, 390317, Note_on_c, 3, 54, 80
5, 390390, Note_off_c, 3, 54, 64
5, 390449, Note_on_c, 3, 59, 89
5, 390567, Note_on_c, 3, 57, 78
5, 390575, Note_off_c, 3, 59, 64
5, 390655, Note_off_c, 3, 57, 64
5, 390688, Note_on_c, 3, 55, 82
5, 390782, Note_off_c, 3, 55, 64
5, 390801, Note_on_c, 3, 54, 58
5, 390923, Note_off_c, 3, 54, 64
5, 390925, Note_on_c, 3, 52, 80
5, 391014, Note_off_c, 3, 52, 64
5, 391058, Note_on_c, 3, 50, 72
5, 391151, Note_off_c, 3, 50, 64
5, 391180, Note_on_c, 3, 49, 89
5, 391264, Note_off_c, 3, 49, 64
5, 391282, Note_on_c, 3, 47, 82
5, 391395, Note_off_c, 3, 47, 64
5, 391423, Note_on_c, 3, 46, 93
5, 391532, Note_off_c, 3, 46, 64
5, 391663, Note_on_c, 3, 47, 82
5, 391769, Note_off_c, 3, 47, 64
5, 391895, Note_on_c, 3, 54, 87
5, 392015, Note_off_c, 3, 54, 64
5, 392147, Note_on_c, 3, 42, 80
5, 392285, Note_off_c, 3, 42, 64
5, 392285, End_track
6, 0, Start_track
6, 0, Title_t, "Flute"
6, 0, Program_c, 4, 73
6, 0, Control_c, 4, 7, 127
6, 1115, Note_on_c, 4, 71, 62
6, 1144, Note_on_c, 4, 73, 60
6, 1161, Note_off_c, 4, 71, 64
6, 1176, Note_on_c, 4, 74, 68
6, 1180, Note_off_c, 4, 73, 64
6, 1206, Note_on_c, 4, 73, 56
6, 1211, Note_off_c, 4, 74, 64
6, 1227, Note_on_c, 4, 74, 66
6, 1228, Note_off_c, 4, 73, 64
6, 1249, Note_on_c, 4, 73, 57
6, 1254, Note_off_c, 4, 74, 64
6, 1268, Note_off_c, 4, 73, 64
6, 1268, Note_on_c, 4, 74, 60
6, 1285, Note_on_c, 4, 73, 57
6, 1290, Note_off_c, 4, 74, 64
6, 1303, Note_on_c, 4, 74, 70
6, 1305, Note_off_c, 4, 73, 64
6, 1326, Note_on_c, 4, 73, 59
6, 1329, Note_off_c, 4, 74, 64
6, 1341, Note_on_c, 4, 74, 80
6, 1346, Note_off_c, 4, 73, 64
6, 1362, Note_on_c, 4, 73, 59
6, 1369, Note_off_c, 4, 74, 64
6, 1379, Note_on_c, 4, 71, 68
6, 1388, Note_off_c, 4, 73, 64
6, 1408, Note_on_c, 4, 73, 59
6, 1422, Note_off_c, 4, 71, 64
6, 1425, Note_on_c, 4, 74, 80
6, 1429, Note_off_c, 4, 73, 64
6, 1546, Note_off_c, 4, 74, 64
6, 1616, Note_on_c, 4, 73, 62
6, 1639, Note_on_c, 4, 71, 70
6, 1654, Note_off_c, 4, 73, 64
6, 1675, Note_off_c, 4, 71, 64
6, 1677, Note_on_c, 4, 79, 76
6, 1761, Note_off_c, 4, 79, 64
6, 1856, Note_on_c, 4, 79, 82
6, 1888, Note_off_c, 4, 79, 64
6, 1912, Note_on_c, 4, 79, 85
6, 2023, Note_on_c, 4, 78, 47
6, 2034, Note_off_c, 4, 79, 64
6, 2261, Note_off_c, 4, 78, 64
6, 2338, Note_on_c, 4, 78, 70
6, 2372, Note_off_c, 4, 78, 64
6, 2388, Note_on_c, 4, 71, 60
6, 2570, Note_off_c, 4, 71, 64
6, 2632, Note_on_c, 4, 76, 82
6, 3024, Note_off_c, 4, 76, 64
6, 3054, Note_on_c, 4, 78, 66
6, 3084, Note_on_c, 4, 79, 72
6, 3085, Note_off_c, 4, 78, 64
6, 3109, Note_on_c, 4, 78, 85
6, 3114, Note_off_c, 4, 79, 64
6, 3221, Note_off_c, 4, 78, 64
6, 3270, Note_on_c, 4, 79, 62
6, 3294, Note_on_c, 4, 76, 66
6, 3306, Note_off_c, 4, 79, 64
6, 3322, Note_off_c, 4, 76, 64
6, 3344, Note_on_c, 4, 76, 70
6, 3412, Note_on_c, 4, 74, 52
6, 3420, Note_off_c, 4, 76, 64
6, 3450, Note_on_c, 4, 76, 55
6, 3453, Note_off_c, 4, 74, 64
6, 3483, Note_on_c, 4, 74, 57
6, 3487, Note_off_c, 4, 76, 64
6, 3507, Note_on_c, 4, 76, 63
6, 3508, Note_off_c, 4, 74, 64
6, 3528, Note_on_c, 4, 74, 63
6, 3529, Note_off_c, 4, 76, 64
6, 3549, Note_off_c, 4, 74, 64
6, 3549, Note_on_c, 4, 76, 68
6, 3568, Note_on_c, 4, 74, 64
6, 3573, Note_off_c, 4, 76, 64
6, 3583, Note_on_c, 4, 76, 60
6, 3586, Note_off_c, 4, 74, 64
6, 3603, Note_on_c, 4, 74, 72
6, 3611, Note_off_c, 4, 76, 64
6, 3742, Note_off_c, 4, 74, 64
6, 3772, Note_on_c, 4, 73, 64
6, 3808, Note_off_c, 4, 73, 64
6, 3829, Note_on_c, 4, 73, 64
6, 4166, Note_off_c, 4, 73, 64
6, 4256, Note_on_c, 4, 73, 76
6, 4296, Note_off_c, 4, 73, 64
6, 4310, Note_on_c, 4, 78, 64
6, 4659, Note_off_c, 4, 78, 64
6, 4725, Note_on_c, 4, 79, 82
6, 4760, Note_off_c, 4, 79, 64
6, 4780, Note_on_c, 4, 76, 80
6, 4898, Note_on_c, 4, 75, 55
6, 4902, Note_off_c, 4, 76, 64
6, 5153, Note_off_c, 4, 75, 64
6, 5220, Note_on_c, 4, 75, 63
6, 5265, Note_off_c, 4, 75, 64
6, 5268, Note_on_c, 4, 76, 78
6, 5342, Note_off_c, 4, 76, 64
6, 5457, Note_on_c, 4, 75, 66
6, 5504, Note_off_c, 4, 75, 64
6, 5506, Note_on_c, 4, 76, 70
6, 5589, Note_off_c, 4, 76, 64
6, 5694, Note_on_c, 4, 78, 60
6, 5730, Note_off_c, 4, 78, 64
6, 5756, Note_on_c, 4, 78, 82
6, 5872, Note_on_c, 4, 79, 61
6, 5887, Note_off_c, 4, 78, 64
6, 6087, Note_off_c, 4, 79, 64
6, 6180, Note_on_c, 4, 83, 82
6, 6224, Note_off_c, 4, 83, 64
6, 6232, Note_on_c, 4, 76, 68
6, 6313, Note_off_c, 4, 76, 64
6, 6418, Note_on_c, 4, 76, 70
6, 6465, Note_off_c, 4, 76, 64
6, 6469, Note_on_c, 4, 78, 70
6, 6546, Note_off_c, 4, 78, 64
6, 6654, Note_on_c, 4, 79, 68
6, 6686, Note_off_c, 4, 79, 64
6, 6709, Note_on_c, 4, 74, 82
6, 6827, Note_on_c, 4, 73, 47
6, 6833, Note_off_c, 4, 74, 64
6, 7068, Note_off_c, 4, 73, 64
6, 7145, Note_on_c, 4, 73, 63
6, 7192, Note_on_c, 4, 74, 85
6, 7195, Note_off_c, 4, 73, 64
6, 7264, Note_off_c, 4, 74, 64
6, 7384, Note_on_c, 4, 73, 62
6, 7426, Note_off_c, 4, 73, 64
6, 7434, Note_on_c, 4, 74, 78
6, 7531, Note_off_c, 4, 74, 64
6, 7615, Note_on_c, 4, 76, 68
6, 7655, Note_off_c, 4, 76, 64
6, 7670, Note_on_c, 4, 78, 89
6, 7788, Note_off_c, 4, 78, 64
6, 7833, Note_on_c, 4, 79, 59
6, 7857, Note_on_c, 4, 78, 57
6, 7863, Note_off_c, 4, 79, 64
6, 7886, Note_on_c, 4, 79, 70
6, 7902, Note_off_c, 4, 78, 64
6, 7912, Note_on_c, 4, 81, 68
6, 7923, Note_off_c, 4, 79, 64
6, 7948, Note_on_c, 4, 79, 57
6, 7954, Note_off_c, 4, 81, 64
6, 7975, Note_on_c, 4, 81, 68
6, 7978, Note_off_c, 4, 79, 64
6, 8000, Note_on_c, 4, 79, 63
6, 8002, Note_off_c, 4, 81, 64
6, 8024, Note_off_c, 4, 79, 64
6, 8024, Note_on_c, 4, 81, 80
6, 8043, Note_on_c, 4, 79, 66
6, 8044, Note_off_c, 4, 81, 64
6, 8056, Note_on_c, 4, 81, 68
6, 8059, Note_off_c, 4, 79, 64
6, 8074, Note_on_c, 4, 79, 64
6, 8086, Note_off_c, 4, 81, 64
6, 8096, Note_on_c, 4, 78, 61
6, 8104, Note_off_c, 4, 79, 64
6, 8118, Note_on_c, 4, 79, 70
6, 8122, Note_off_c, 4, 78, 64
6, 8153, Note_on_c, 4, 81, 74
6, 8162, Note_off_c, 4, 79, 64
6, 8266, Note_off_c, 4, 81, 64
6, 8334, Note_on_c, 4, 79, 63
6, 8354, Note_on_c, 4, 78, 70
6, 8367, Note_off_c, 4, 79, 64
6, 8381, Note_off_c, 4, 78, 64
6, 8392, Note_on_c, 4, 83, 85
6, 8470, Note_off_c, 4, 83, 64
6, 8577, Note_on_c, 4, 76, 72
6, 8623, Note_off_c, 4, 76, 64
6, 8633, Note_on_c, 4, 81, 78
6, 8972, Note_off_c, 4, 81, 64
6, 9056, Note_on_c, 4, 74, 76
6, 9086, Note_off_c, 4, 74, 64
6, 9115, Note_on_c, 4, 74, 76
6, 9225, Note_on_c, 4, 73, 51
6, 9232, Note_off_c, 4, 74, 64
6, 9468, Note_off_c, 4, 73, 64
6, 9536, Note_on_c, 4, 79, 72
6, 9568, Note_off_c, 4, 79, 64
6, 9598, Note_on_c, 4, 79, 66
6, 9620, Note_on_c, 4, 78, 91
6, 9628, Note_off_c, 4, 79, 64
6, 9646, Note_on_c, 4, 79, 62
6, 9652, Note_off_c, 4, 78, 64
6, 9666, Note_on_c, 4, 78, 58
6, 9681, Note_off_c, 4, 79, 64
6, 9732, Note_off_c, 4, 78, 64
6, 9767, Note_on_c, 4, 76, 68
6, 9793, Note_on_c, 4, 74, 72
6, 9802, Note_off_c, 4, 76, 64
6, 9830, Note_on_c, 4, 76, 72
6, 9832, Note_off_c, 4, 74, 64
6, 9927, Note_off_c, 4, 76, 64
6, 10007, Note_on_c, 4, 71, 72
6, 10046, Note_off_c, 4, 71, 64
6, 10072, Note_on_c, 4, 74, 82
6, 10150, Note_on_c, 4, 73, 52
6, 10160, Note_off_c, 4, 74, 64
6, 10187, Note_on_c, 4, 74, 60
6, 10194, Note_off_c, 4, 73, 64
6, 10222, Note_on_c, 4, 73, 52
6, 10227, Note_off_c, 4, 74, 64
6, 10242, Note_on_c, 4, 74, 66
6, 10245, Note_off_c, 4, 73, 64
6, 10266, Note_on_c, 4, 73, 58
6, 10268, Note_off_c, 4, 74, 64
6, 10284, Note_on_c, 4, 74, 72
6, 10286, Note_off_c, 4, 73, 64
6, 10306, Note_on_c, 4, 73, 76
6, 10313, Note_off_c, 4, 74, 64
6, 10434, Note_off_c, 4, 73, 64
6, 10498, Note_on_c, 4, 74, 80
6, 10529, Note_off_c, 4, 74, 64
6, 10554, Note_on_c, 4, 74, 80
6, 10686, Note_off_c, 4, 74, 64
6, 10719, Note_on_c, 4, 62, 60
6, 10751, Note_on_c, 4, 64, 63
6, 10763, Note_off_c, 4, 62, 64
6, 10774, Note_on_c, 4, 66, 57
6, 10780, Note_off_c, 4, 64, 64
6, 10808, Note_on_c, 4, 64, 57
6, 10809, Note_off_c, 4, 66, 64
6, 10831, Note_on_c, 4, 66, 60
6, 10833, Note_off_c, 4, 64, 64
6, 10853, Note_off_c, 4, 66, 64
6, 10853, Note_on_c, 4, 64, 58
6, 10872, Note_on_c, 4, 66, 61
6, 10875, Note_off_c, 4, 64, 64
6, 10890, Note_on_c, 4, 64, 53
6, 10891, Note_off_c, 4, 66, 64
6, 10910, Note_on_c, 4, 66, 64
6, 10912, Note_off_c, 4, 64, 64
6, 10926, Note_on_c, 4, 64, 58
6, 10946, Note_off_c, 4, 66, 64
6, 10955, Note_on_c, 4, 62, 66
6, 10958, Note_off_c, 4, 64, 64
6, 10985, Note_on_c, 4, 64, 64
6, 10996, Note_off_c, 4, 62, 64
6, 11014, Note_on_c, 4, 66, 70
6, 11025, Note_off_c, 4, 64, 64
6, 11150, Note_off_c, 4, 66, 64
6, 11206, Note_on_c, 4, 64, 72
6, 11235, Note_on_c, 4, 62, 64
6, 11243, Note_off_c, 4, 64, 64
6, 11269, Note_off_c, 4, 62, 64
6, 11270, Note_on_c, 4, 71, 76
6, 11363, Note_off_c, 4, 71, 64
6, 11450, Note_on_c, 4, 73, 64
6, 11485, Note_off_c, 4, 73, 64
6, 11506, Note_on_c, 4, 69, 85
6, 11631, Note_on_c, 4, 68, 55
6, 11636, Note_off_c, 4, 69, 64
6, 11850, Note_off_c, 4, 68, 64
6, 11940, Note_on_c, 4, 69, 68
6, 11982, Note_off_c, 4, 69, 64
6, 11989, Note_on_c, 4, 71, 87
6, 12076, Note_off_c, 4, 71, 64
6, 12186, Note_on_c, 4, 73, 63
6, 12232, Note_off_c, 4, 73, 64
6, 12235, Note_on_c, 4, 74, 85
6, 12317, Note_off_c, 4, 74, 64
6, 12429, Note_on_c, 4, 71, 78
6, 12472, Note_off_c, 4, 71, 64
6, 12478, Note_on_c, 4, 73, 68
6, 12599, Note_off_c, 4, 73, 64
6, 12655, Note_on_c, 4, 73, 59
6, 12676, Note_on_c, 4, 74, 74
6, 12686, Note_off_c, 4, 73, 64
6, 12710, Note_off_c, 4, 74, 64
6, 12715, Note_on_c, 4, 76, 82
6, 12802, Note_off_c, 4, 76, 64
6, 12897, Note_on_c, 4, 78, 61
6, 12917, Note_on_c, 4, 79, 74
6, 12928, Note_off_c, 4, 78, 64
6, 12948, Note_off_c, 4, 79, 64
6, 12954, Note_on_c, 4, 81, 80
6, 13298, Note_off_c, 4, 81, 64
6, 13390, Note_on_c, 4, 81, 82
6, 13420, Note_off_c, 4, 81, 64
6, 13437, Note_on_c, 4, 81, 87
6, 13550, Note_off_c, 4, 81, 64
6, 13618, Note_on_c, 4, 78, 57
6, 13641, Note_on_c, 4, 79, 80
6, 13650, Note_off_c, 4, 78, 64
6, 13680, Note_off_c, 4, 79, 64
6, 13683, Note_on_c, 4, 81, 80
6, 13771, Note_off_c, 4, 81, 64
6, 13860, Note_on_c, 4, 79, 70
6, 13887, Note_on_c, 4, 78, 60
6, 13897, Note_off_c, 4, 79, 64
6, 13913, Note_off_c, 4, 78, 64
6, 13914, Note_on_c, 4, 83, 87
6, 13999, Note_off_c, 4, 83, 64
6, 14101, Note_on_c, 4, 81, 72
6, 14136, Note_off_c, 4, 81, 64
6, 14147, Note_on_c, 4, 79, 89
6, 14240, Note_off_c, 4, 79, 64
6, 14335, Note_on_c, 4, 78, 66
6, 14366, Note_off_c, 4, 78, 64
6, 14390, Note_on_c, 4, 78, 87
6, 14511, Note_on_c, 4, 79, 66
6, 14524, Note_off_c, 4, 78, 64
6, 14963, Note_off_c, 4, 79, 64
6, 15048, Note_on_c, 4, 69, 64
6, 15072, Note_on_c, 4, 71, 78
6, 15086, Note_off_c, 4, 69, 64
6, 15098, Note_off_c, 4, 71, 64
6, 15113, Note_on_c, 4, 73, 74
6, 15200, Note_off_c, 4, 73, 64
6, 15290, Note_on_c, 4, 74, 66
6, 15313, Note_on_c, 4, 76, 78
6, 15322, Note_off_c, 4, 74, 64
6, 15343, Note_off_c, 4, 76, 64
6, 15358, Note_on_c, 4, 78, 68
6, 15860, Note_off_c, 4, 78, 64
6, 15994, Note_on_c, 4, 71, 66
6, 16019, Note_on_c, 4, 73, 58
6, 16032, Note_off_c, 4, 71, 64
6, 16048, Note_off_c, 4, 73, 64
6, 16061, Note_on_c, 4, 74, 82
6, 16139, Note_off_c, 4, 74, 64
6, 16231, Note_on_c, 4, 73, 60
6, 16258, Note_on_c, 4, 71, 72
6, 16272, Note_off_c, 4, 73, 64
6, 16291, Note_off_c, 4, 71, 64
6, 16300, Note_on_c, 4, 76, 80
6, 16911, Note_off_c, 4, 76, 64
6, 16967, Note_on_c, 4, 78, 57
6, 16991, Note_on_c, 4, 79, 78
6, 17002, Note_off_c, 4, 78, 64
6, 17025, Note_off_c, 4, 79, 64
6, 17030, Note_on_c, 4, 73, 74
6, 17119, Note_off_c, 4, 73, 64
6, 17196, Note_on_c, 4, 74, 54
6, 17220, Note_on_c, 4, 76, 72
6, 17227, Note_off_c, 4, 74, 64
6, 17253, Note_off_c, 4, 76, 64
6, 17264, Note_on_c, 4, 70, 60
6, 17362, Note_off_c, 4, 70, 64
6, 17453, Note_on_c, 4, 76, 64
6, 17474, Note_on_c, 4, 78, 63
6, 17490, Note_off_c, 4, 76, 64
6, 17506, Note_off_c, 4, 78, 64
6, 17518, Note_on_c, 4, 79, 87
6, 17581, Note_off_c, 4, 79, 64
6, 17691, Note_on_c, 4, 78, 57
6, 17717, Note_on_c, 4, 76, 76
6, 17727, Note_off_c, 4, 78, 64
6, 17753, Note_off_c, 4, 76, 64
6, 17758, Note_on_c, 4, 85, 85
6, 17834, Note_off_c, 4, 85, 64
6, 17950, Note_on_c, 4, 76, 66
6, 17989, Note_off_c, 4, 76, 64
6, 17998, Note_on_c, 4, 78, 68
6, 18076, Note_off_c, 4, 78, 64
6, 18171, Note_on_c, 4, 73, 63
6, 18203, Note_off_c, 4, 73, 64
6, 18229, Note_on_c, 4, 73, 87
6, 18351, Note_on_c, 4, 74, 66
6, 18356, Note_off_c, 4, 73, 64
6, 18555, Note_off_c, 4, 74, 64
6, 18617, Note_on_c, 4, 76, 62
6, 18643, Note_on_c, 4, 73, 57
6, 18659, Note_off_c, 4, 76, 64
6, 18677, Note_on_c, 4, 74, 74
6, 18694, Note_off_c, 4, 73, 64
6, 18717, Note_on_c, 4, 76, 78
6, 18724, Note_off_c, 4, 74, 64
6, 18763, Note_on_c, 4, 74, 64
6, 18771, Note_off_c, 4, 76, 64
6, 18800, Note_on_c, 4, 76, 68
6, 18804, Note_off_c, 4, 74, 64
6, 18829, Note_on_c, 4, 74, 62
6, 18834, Note_off_c, 4, 76, 64
6, 18855, Note_off_c, 4, 74, 64
6, 18855, Note_on_c, 4, 76, 66
6, 18876, Note_on_c, 4, 74, 60
6, 18877, Note_off_c, 4, 76, 64
6, 18896, Note_on_c, 4, 76, 70
6, 18897, Note_off_c, 4, 74, 64
6, 18914, Note_on_c, 4, 74, 63
6, 18918, Note_off_c, 4, 76, 64
6, 18934, Note_off_c, 4, 74, 64
6, 18934, Note_on_c, 4, 76, 72
6, 18953, Note_on_c, 4, 74, 80
6, 18965, Note_off_c, 4, 76, 64
6, 19091, Note_off_c, 4, 74, 64
6, 19149, Note_on_c, 4, 73, 87
6, 19177, Note_off_c, 4, 73, 64
6, 19201, Note_on_c, 4, 73, 64
6, 19684, Note_off_c, 4, 73, 64
6, 39237, Note_on_c, 4, 78, 63
6, 39279, Note_off_c, 4, 78, 64
6, 39354, Note_on_c, 4, 79, 85
6, 39434, Note_off_c, 4, 79, 64
6, 39590, Note_on_c, 4, 78, 82
6, 40021, Note_off_c, 4, 78, 64
6, 40085, Note_on_c, 4, 76, 70
6, 40249, Note_off_c, 4, 76, 64
6, 40318, Note_on_c, 4, 78, 64
6, 40420, Note_on_c, 4, 76, 76
6, 40435, Note_off_c, 4, 78, 64
6, 40530, Note_off_c, 4, 76, 64
6, 40535, Note_on_c, 4, 74, 70
6, 40657, Note_on_c, 4, 76, 64
6, 40673, Note_off_c, 4, 74, 64
6, 40765, Note_off_c, 4, 76, 64
6, 40794, Note_on_c, 4, 78, 64
6, 40895, Note_off_c, 4, 78, 64
6, 41019, Note_on_c, 4, 71, 64
6, 41115, Note_off_c, 4, 71, 64
6, 41269, Note_on_c, 4, 76, 82
6, 41349, Note_off_c, 4, 76, 64
6, 41518, Note_on_c, 4, 74, 76
6, 41932, Note_off_c, 4, 74, 64
6, 42000, Note_on_c, 4, 73, 64
6, 42148, Note_off_c, 4, 73, 64
6, 42230, Note_on_c, 4, 74, 78
6, 42345, Note_on_c, 4, 76, 68
6, 42361, Note_off_c, 4, 74, 64
6, 42463, Note_on_c, 4, 74, 64
6, 42472, Note_off_c, 4, 76, 64
6, 42573, Note_off_c, 4, 74, 64
6, 42578, Note_on_c, 4, 73, 55
6, 42686, Note_off_c, 4, 73, 64
6, 42699, Note_on_c, 4, 71, 64
6, 42803, Note_off_c, 4, 71, 64
6, 42808, Note_on_c, 4, 73, 52
6, 42912, Note_off_c, 4, 73, 64
6, 42934, Note_on_c, 4, 74, 70
6, 43051, Note_on_c, 4, 76, 66
6, 43058, Note_off_c, 4, 74, 64
6, 43167, Note_off_c, 4, 76, 64
6, 43176, Note_on_c, 4, 78, 57
6, 43304, Note_on_c, 4, 80, 59
6, 43310, Note_off_c, 4, 78, 64
6, 43375, Note_off_c, 4, 80, 64
6, 43403, Note_on_c, 4, 81, 66
6, 43530, Note_on_c, 4, 78, 52
6, 43545, Note_off_c, 4, 81, 64
6, 43607, Note_off_c, 4, 78, 64
6, 43647, Note_on_c, 4, 80, 72
6, 43764, Note_off_c, 4, 80, 64
6, 43765, Note_on_c, 4, 81, 68
6, 43864, Note_off_c, 4, 81, 64
6, 43888, Note_on_c, 4, 83, 59
6, 43995, Note_on_c, 4, 80, 59
6, 44001, Note_off_c, 4, 83, 64
6, 44077, Note_off_c, 4, 80, 64
6, 44134, Note_on_c, 4, 81, 74
6, 44712, Note_off_c, 4, 81, 64
6, 44749, Note_on_c, 4, 80, 59
6, 44849, Note_off_c, 4, 80, 64
6, 44864, Note_on_c, 4, 81, 70
6, 44957, Note_off_c, 4, 81, 64
6, 44966, Note_on_c, 4, 83, 66
6, 45061, Note_off_c, 4, 83, 64
6, 45092, Note_on_c, 4, 81, 85
6, 45205, Note_on_c, 4, 80, 68
6, 45212, Note_off_c, 4, 81, 64
6, 45325, Note_on_c, 4, 78, 55
6, 45327, Note_off_c, 4, 80, 64
6, 45411, Note_off_c, 4, 78, 64
6, 45440, Note_on_c, 4, 81, 72
6, 45523, Note_off_c, 4, 81, 64
6, 45568, Note_on_c, 4, 80, 80
6, 45684, Note_on_c, 4, 78, 57
6, 45710, Note_off_c, 4, 80, 64
6, 45796, Note_off_c, 4, 78, 64
6, 45807, Note_on_c, 4, 77, 58
6, 45885, Note_off_c, 4, 77, 64
6, 45920, Note_on_c, 4, 80, 58
6, 46002, Note_off_c, 4, 80, 64
6, 46042, Note_on_c, 4, 78, 80
6, 46144, Note_off_c, 4, 78, 64
6, 46288, Note_on_c, 4, 73, 56
6, 46376, Note_off_c, 4, 73, 64
6, 46540, Note_on_c, 4, 78, 66
6, 46626, Note_off_c, 4, 78, 64
6, 46779, Note_on_c, 4, 66, 57
6, 46865, Note_off_c, 4, 66, 64
6, 47005, Note_on_c, 4, 76, 76
6, 47089, Note_off_c, 4, 76, 64
6, 47253, Note_on_c, 4, 70, 59
6, 47322, Note_off_c, 4, 70, 64
6, 47499, Note_on_c, 4, 76, 66
6, 47607, Note_off_c, 4, 76, 64
6, 47740, Note_on_c, 4, 66, 59
6, 47828, Note_off_c, 4, 66, 64
6, 47977, Note_on_c, 4, 74, 74
6, 48060, Note_off_c, 4, 74, 64
6, 48227, Note_on_c, 4, 83, 87
6, 48316, Note_off_c, 4, 83, 64
6, 48472, Note_on_c, 4, 82, 60
6, 48574, Note_off_c, 4, 82, 64
6, 48579, Note_on_c, 4, 83, 63
6, 48679, Note_off_c, 4, 83, 64
6, 48709, Note_on_c, 4, 85, 85
6, 49039, Note_off_c, 4, 85, 64
6, 49191, Note_on_c, 4, 78, 70
6, 49285, Note_off_c, 4, 78, 64
6, 49447, Note_on_c, 4, 83, 82
6, 49980, Note_off_c, 4, 83, 64
6, 50029, Note_on_c, 4, 81, 72
6, 50126, Note_off_c, 4, 81, 64
6, 50148, Note_on_c, 4, 79, 63
6, 50230, Note_off_c, 4, 79, 64
6, 50254, Note_on_c, 4, 78, 52
6, 50354, Note_off_c, 4, 78, 64
6, 50383, Note_on_c, 4, 76, 47
6, 50480, Note_off_c, 4, 76, 64
6, 50493, Note_on_c, 4, 78, 60
6, 50582, Note_off_c, 4, 78, 64
6, 50615, Note_on_c, 4, 79, 89
6, 51045, Note_off_c, 4, 79, 64
6, 51102, Note_on_c, 4, 78, 76
6, 51211, Note_on_c, 4, 76, 70
6, 51231, Note_off_c, 4, 78, 64
6, 51322, Note_off_c, 4, 76, 64
6, 51330, Note_on_c, 4, 74, 57
6, 51417, Note_off_c, 4, 74, 64
6, 51443, Note_on_c, 4, 73, 46
6, 51552, Note_off_c, 4, 73, 64
6, 51565, Note_on_c, 4, 71, 52
6, 51689, Note_on_c, 4, 70, 61
6, 51700, Note_off_c, 4, 71, 64
6, 51789, Note_off_c, 4, 70, 64
6, 51817, Note_on_c, 4, 71, 78
6, 51968, Note_off_c, 4, 71, 64
6, 52078, Note_on_c, 4, 73, 58
6, 52176, Note_off_c, 4, 73, 64
6, 52182, Note_on_c, 4, 69, 68
6, 52271, Note_off_c, 4, 69, 64
6, 52317, Note_on_c, 4, 74, 80
6, 52413, Note_off_c, 4, 74, 64
6, 52554, Note_on_c, 4, 65, 74
6, 52971, Note_off_c, 4, 65, 64
6, 53033, Note_on_c, 4, 66, 62
6, 53146, Note_on_c, 4, 68, 62
6, 53156, Note_off_c, 4, 66, 64
6, 53232, Note_off_c, 4, 68, 64
6, 53270, Note_on_c, 4, 69, 68
6, 53385, Note_off_c, 4, 69, 64
6, 53389, Note_on_c, 4, 71, 78
6, 53484, Note_off_c, 4, 71, 64
6, 53520, Note_on_c, 4, 73, 64
6, 53624, Note_off_c, 4, 73, 64
6, 53750, Note_on_c, 4, 62, 78
6, 53863, Note_off_c, 4, 62, 64
6, 53984, Note_on_c, 4, 71, 68
6, 54084, Note_off_c, 4, 71, 64
6, 54239, Note_on_c, 4, 74, 80
6, 54308, Note_off_c, 4, 74, 64
6, 54480, Note_on_c, 4, 83, 85
6, 54781, Note_off_c, 4, 83, 64
6, 54932, Note_on_c, 4, 73, 64
6, 55038, Note_off_c, 4, 73, 64
6, 55169, Note_on_c, 4, 81, 85
6, 55253, Note_off_c, 4, 81, 64
6, 55415, Note_on_c, 4, 78, 66
6, 55775, Note_off_c, 4, 78, 64
6, 55903, Note_on_c, 4, 76, 78
6, 55996, Note_off_c, 4, 76, 64
6, 56141, Note_on_c, 4, 85, 80
6, 56237, Note_off_c, 4, 85, 64
6, 56384, Note_on_c, 4, 76, 63
6, 56723, Note_off_c, 4, 76, 64
6, 56869, Note_on_c, 4, 74, 76
6, 56964, Note_off_c, 4, 74, 64
6, 57123, Note_on_c, 4, 79, 85
6, 57699, Note_off_c, 4, 79, 64
6, 57837, Note_on_c, 4, 78, 66
6, 57934, Note_on_c, 4, 76, 78
6, 57945, Note_off_c, 4, 78, 64
6, 58027, Note_off_c, 4, 76, 64
6, 58055, Note_on_c, 4, 78, 68
6, 58148, Note_off_c, 4, 78, 64
6, 58303, Note_on_c, 4, 80, 82
6, 58394, Note_off_c, 4, 80, 64
6, 58549, Note_on_c, 4, 81, 87
6, 58646, Note_off_c, 4, 81, 64
6, 58784, Note_on_c, 4, 76, 60
6, 58881, Note_off_c, 4, 76, 64
6, 59036, Note_on_c, 4, 73, 62
6, 59129, Note_off_c, 4, 73, 64
6, 59284, Note_on_c, 4, 81, 85
6, 59636, Note_off_c, 4, 81, 64
6, 59755, Note_on_c, 4, 80, 78
6, 59853, Note_on_c, 4, 78, 68
6, 59868, Note_off_c, 4, 80, 64
6, 59943, Note_off_c, 4, 78, 64
6, 59985, Note_on_c, 4, 80, 82
6, 60074, Note_off_c, 4, 80, 64
6, 60233, Note_on_c, 4, 82, 89
6, 60313, Note_off_c, 4, 82, 64
6, 60472, Note_on_c, 4, 83, 85
6, 60583, Note_off_c, 4, 83, 64
6, 60701, Note_on_c, 4, 71, 64
6, 60804, Note_off_c, 4, 71, 64
6, 60809, Note_on_c, 4, 73, 56
6, 60915, Note_off_c, 4, 73, 64
6, 60940, Note_on_c, 4, 74, 59
6, 61057, Note_off_c, 4, 74, 64
6, 61057, Note_on_c, 4, 76, 76
6, 61145, Note_off_c, 4, 76, 64
6, 61183, Note_on_c, 4, 78, 80
6, 61298, Note_off_c, 4, 78, 64
6, 61429, Note_on_c, 4, 79, 80
6, 61509, Note_off_c, 4, 79, 64
6, 61665, Note_on_c, 4, 78, 66
6, 62050, Note_off_c, 4, 78, 64
6, 62157, Note_on_c, 4, 76, 70
6, 62292, Note_off_c, 4, 76, 64
6, 62390, Note_on_c, 4, 78, 89
6, 62494, Note_on_c, 4, 76, 64
6, 62496, Note_off_c, 4, 78, 64
6, 62598, Note_off_c, 4, 76, 64
6, 62615, Note_on_c, 4, 74, 68
6, 62726, Note_on_c, 4, 76, 66
6, 62741, Note_off_c, 4, 74, 64
6, 62830, Note_off_c, 4, 76, 64
6, 62857, Note_on_c, 4, 78, 60
6, 62963, Note_off_c, 4, 78, 64
6, 63089, Note_on_c, 4, 71, 64
6, 63188, Note_off_c, 4, 71, 64
6, 63346, Note_on_c, 4, 76, 80
6, 63430, Note_off_c, 4, 76, 64
6, 63583, Note_on_c, 4, 74, 74
6, 63976, Note_off_c, 4, 74, 64
6, 64080, Note_on_c, 4, 73, 63
6, 64251, Note_off_c, 4, 73, 64
6, 64320, Note_on_c, 4, 74, 76
6, 64435, Note_on_c, 4, 76, 66
6, 64450, Note_off_c, 4, 74, 64
6, 64546, Note_on_c, 4, 74, 64
6, 64553, Note_off_c, 4, 76, 64
6, 64663, Note_off_c, 4, 74, 64
6, 64670, Note_on_c, 4, 73, 52
6, 64778, Note_off_c, 4, 73, 64
6, 64789, Note_on_c, 4, 71, 63
6, 64897, Note_off_c, 4, 71, 64
6, 64897, Note_on_c, 4, 73, 54
6, 65008, Note_off_c, 4, 73, 64
6, 65019, Note_on_c, 4, 74, 68
6, 65137, Note_on_c, 4, 76, 63
6, 65145, Note_off_c, 4, 74, 64
6, 65212, Note_off_c, 4, 76, 64
6, 65260, Note_on_c, 4, 78, 70
6, 65376, Note_on_c, 4, 79, 60
6, 65385, Note_off_c, 4, 78, 64
6, 65491, Note_on_c, 4, 78, 49
6, 65500, Note_off_c, 4, 79, 64
6, 65597, Note_on_c, 4, 76, 58
6, 65610, Note_off_c, 4, 78, 64
6, 65717, Note_off_c, 4, 76, 64
6, 65728, Note_on_c, 4, 75, 58
6, 65847, Note_on_c, 4, 76, 66
6, 65863, Note_off_c, 4, 75, 64
6, 65962, Note_off_c, 4, 76, 64
6, 65973, Note_on_c, 4, 78, 59
6, 66079, Note_on_c, 4, 75, 52
6, 66082, Note_off_c, 4, 78, 64
6, 66159, Note_off_c, 4, 75, 64
6, 66208, Note_on_c, 4, 76, 62
6, 66323, Note_off_c, 4, 76, 64
6, 66325, Note_on_c, 4, 78, 59
6, 66454, Note_on_c, 4, 76, 63
6, 66478, Note_off_c, 4, 78, 64
6, 66547, Note_off_c, 4, 76, 64
6, 66555, Note_on_c, 4, 74, 62
6, 66682, Note_off_c, 4, 74, 64
6, 66682, Note_on_c, 4, 73, 57
6, 66790, Note_off_c, 4, 73, 64
6, 66797, Note_on_c, 4, 74, 64
6, 66919, Note_off_c, 4, 74, 64
6, 66923, Note_on_c, 4, 76, 61
6, 67038, Note_on_c, 4, 78, 62
6, 67054, Note_off_c, 4, 76, 64
6, 67138, Note_off_c, 4, 78, 64
6, 67169, Note_on_c, 4, 79, 87
6, 67286, Note_on_c, 4, 81, 59
6, 67304, Note_off_c, 4, 79, 64
6, 67414, Note_off_c, 4, 81, 64
6, 67421, Note_on_c, 4, 79, 57
6, 67529, Note_on_c, 4, 78, 52
6, 67536, Note_off_c, 4, 79, 64
6, 67631, Note_off_c, 4, 78, 64
6, 67653, Note_on_c, 4, 76, 64
6, 67766, Note_on_c, 4, 78, 63
6, 67791, Note_off_c, 4, 76, 64
6, 67879, Note_off_c, 4, 78, 64
6, 67886, Note_on_c, 4, 79, 59
6, 68003, Note_off_c, 4, 79, 64
6, 68008, Note_on_c, 4, 76, 62
6, 68109, Note_off_c, 4, 76, 64
6, 68140, Note_on_c, 4, 78, 80
6, 68255, Note_on_c, 4, 79, 60
6, 68266, Note_off_c, 4, 78, 64
6, 68368, Note_off_c, 4, 79, 64
6, 68375, Note_on_c, 4, 78, 51
6, 68497, Note_on_c, 4, 76, 62
6, 68503, Note_off_c, 4, 78, 64
6, 68614, Note_off_c, 4, 76, 64
6, 68625, Note_on_c, 4, 74, 68
6, 68745, Note_on_c, 4, 76, 60
6, 68760, Note_off_c, 4, 74, 64
6, 68863, Note_on_c, 4, 78, 57
6, 68875, Note_off_c, 4, 76, 64
6, 68964, Note_off_c, 4, 78, 64
6, 68968, Note_on_c, 4, 79, 61
6, 69066, Note_off_c, 4, 79, 64
6, 69081, Note_on_c, 4, 81, 70
6, 69210, Note_on_c, 4, 83, 66
6, 69216, Note_off_c, 4, 81, 64
6, 69322, Note_off_c, 4, 83, 64
6, 69329, Note_on_c, 4, 81, 62
6, 69455, Note_off_c, 4, 81, 64
6, 69455, Note_on_c, 4, 79, 63
6, 69559, Note_off_c, 4, 79, 64
6, 69575, Note_on_c, 4, 78, 62
6, 69676, Note_on_c, 4, 79, 63
6, 69696, Note_off_c, 4, 78, 64
6, 69796, Note_off_c, 4, 79, 64
6, 69821, Note_on_c, 4, 81, 61
6, 69933, Note_on_c, 4, 78, 52
6, 69944, Note_off_c, 4, 81, 64
6, 70018, Note_off_c, 4, 78, 64
6, 70055, Note_on_c, 4, 79, 87
6, 70181, Note_on_c, 4, 81, 66
6, 70199, Note_off_c, 4, 79, 64
6, 70301, Note_on_c, 4, 79, 66
6, 70327, Note_off_c, 4, 81, 64
6, 70418, Note_on_c, 4, 78, 57
6, 70432, Note_off_c, 4, 79, 64
6, 70544, Note_on_c, 4, 76, 80
6, 70549, Note_off_c, 4, 78, 64
6, 70646, Note_on_c, 4, 74, 60
6, 70657, Note_off_c, 4, 76, 64
6, 70767, Note_on_c, 4, 73, 53
6, 70797, Note_off_c, 4, 74, 64
6, 70890, Note_on_c, 4, 71, 76
6, 70896, Note_off_c, 4, 73, 64
6, 70943, Note_off_c, 4, 71, 64
6, 71011, Note_on_c, 4, 78, 64
6, 71275, Note_off_c, 4, 78, 64
6, 71370, Note_on_c, 4, 79, 74
6, 71430, Note_off_c, 4, 79, 64
6, 71492, Note_on_c, 4, 74, 82
6, 71558, Note_off_c, 4, 74, 64
6, 71558, Note_on_c, 4, 73, 51
6, 71609, Note_on_c, 4, 74, 64
6, 71629, Note_off_c, 4, 73, 64
6, 71660, Note_on_c, 4, 73, 53
6, 71675, Note_off_c, 4, 74, 64
6, 71780, Note_off_c, 4, 73, 64
6, 71833, Note_on_c, 4, 71, 66
6, 71912, Note_off_c, 4, 71, 64
6, 71977, Note_on_c, 4, 71, 87
6, 72069, Note_off_c, 4, 71, 64
6, 72100, Note_on_c, 4, 73, 43
6, 72193, Note_off_c, 4, 73, 64
6, 72216, Note_on_c, 4, 74, 60
6, 72309, Note_off_c, 4, 74, 64
6, 72340, Note_on_c, 4, 76, 61
6, 72426, Note_off_c, 4, 76, 64
6, 72455, Note_on_c, 4, 78, 56
6, 72545, Note_off_c, 4, 78, 64
6, 72581, Note_on_c, 4, 79, 63
6, 72663, Note_off_c, 4, 79, 64
6, 72698, Note_on_c, 4, 81, 64
6, 72791, Note_off_c, 4, 81, 64
6, 72799, Note_on_c, 4, 78, 55
6, 72877, Note_off_c, 4, 78, 64
6, 72930, Note_on_c, 4, 79, 80
6, 73041, Note_on_c, 4, 74, 55
6, 73046, Note_off_c, 4, 79, 64
6, 73167, Note_off_c, 4, 74, 64
6, 73187, Note_on_c, 4, 73, 42
6, 73293, Note_off_c, 4, 73, 64
6, 73296, Note_on_c, 4, 71, 59
6, 73398, Note_off_c, 4, 71, 64
6, 73413, Note_on_c, 4, 73, 54
6, 73506, Note_off_c, 4, 73, 64
6, 73530, Note_on_c, 4, 79, 72
6, 73641, Note_off_c, 4, 79, 64
6, 73645, Note_on_c, 4, 78, 52
6, 73769, Note_on_c, 4, 76, 60
6, 73774, Note_off_c, 4, 78, 64
6, 73836, Note_off_c, 4, 76, 64
6, 73889, Note_on_c, 4, 78, 85
6, 73998, Note_on_c, 4, 76, 64
6, 74013, Note_off_c, 4, 78, 64
6, 74110, Note_off_c, 4, 76, 64
6, 74133, Note_on_c, 4, 74, 59
6, 74232, Note_off_c, 4, 74, 64
6, 74257, Note_on_c, 4, 76, 54
6, 74378, Note_off_c, 4, 76, 64
6, 74380, Note_on_c, 4, 78, 60
6, 74476, Note_off_c, 4, 78, 64
6, 74500, Note_on_c, 4, 83, 57
6, 74606, Note_on_c, 4, 82, 55
6, 74615, Note_off_c, 4, 83, 64
6, 74726, Note_off_c, 4, 82, 64
6, 74728, Note_on_c, 4, 83, 52
6, 74826, Note_off_c, 4, 83, 64
6, 74848, Note_on_c, 4, 85, 64
6, 74960, Note_off_c, 4, 85, 64
6, 74967, Note_on_c, 4, 83, 64
6, 75080, Note_on_c, 4, 82, 64
6, 75095, Note_off_c, 4, 83, 64
6, 75204, Note_on_c, 4, 80, 58
6, 75205, Note_off_c, 4, 82, 64
6, 75323, Note_on_c, 4, 78, 52
6, 75324, Note_off_c, 4, 80, 64
6, 75436, Note_on_c, 4, 76, 64
6, 75439, Note_off_c, 4, 78, 64
6, 75547, Note_off_c, 4, 76, 64
6, 75552, Note_on_c, 4, 74, 59
6, 75673, Note_off_c, 4, 74, 64
6, 75691, Note_on_c, 4, 73, 46
6, 75771, Note_off_c, 4, 73, 64
6, 75797, Note_on_c, 4, 74, 76
6, 75925, Note_on_c, 4, 76, 64
6, 75930, Note_off_c, 4, 74, 64
6, 76032, Note_off_c, 4, 76, 64
6, 76045, Note_on_c, 4, 74, 59
6, 76158, Note_off_c, 4, 74, 64
6, 76169, Note_on_c, 4, 73, 55
6, 76262, Note_off_c, 4, 73, 64
6, 76291, Note_on_c, 4, 71, 66
6, 76397, Note_on_c, 4, 73, 50
6, 76428, Note_off_c, 4, 71, 64
6, 76519, Note_off_c, 4, 73, 64
6, 76541, Note_on_c, 4, 74, 58
6, 76630, Note_off_c, 4, 74, 64
6, 76652, Note_on_c, 4, 71, 57
6, 76753, Note_off_c, 4, 71, 64
6, 76789, Note_on_c, 4, 73, 59
6, 76906, Note_on_c, 4, 78, 59
6, 76909, Note_off_c, 4, 73, 64
6, 76997, Note_off_c, 4, 78, 64
6, 77019, Note_on_c, 4, 76, 60
6, 77134, Note_off_c, 4, 76, 64
6, 77136, Note_on_c, 4, 78, 57
6, 77223, Note_off_c, 4, 78, 64
6, 77267, Note_on_c, 4, 75, 64
6, 77371, Note_off_c, 4, 75, 64
6, 77380, Note_on_c, 4, 78, 60
6, 77468, Note_off_c, 4, 78, 64
6, 77500, Note_on_c, 4, 74, 54
6, 77615, Note_off_c, 4, 74, 64
6, 77623, Note_on_c, 4, 78, 57
6, 77714, Note_off_c, 4, 78, 64
6, 77761, Note_on_c, 4, 73, 57
6, 77862, Note_off_c, 4, 73, 64
6, 77871, Note_on_c, 4, 78, 55
6, 77967, Note_off_c, 4, 78, 64
6, 77998, Note_on_c, 4, 76, 62
6, 78110, Note_off_c, 4, 76, 64
6, 78110, Note_on_c, 4, 78, 53
6, 78199, Note_off_c, 4, 78, 64
6, 78230, Note_on_c, 4, 74, 62
6, 78329, Note_off_c, 4, 74, 64
6, 78342, Note_on_c, 4, 78, 54
6, 78445, Note_off_c, 4, 78, 64
6, 78464, Note_on_c, 4, 73, 57
6, 78573, Note_off_c, 4, 73, 64
6, 78577, Note_on_c, 4, 78, 52
6, 78674, Note_off_c, 4, 78, 64
6, 78699, Note_on_c, 4, 71, 61
6, 78799, Note_off_c, 4, 71, 64
6, 78810, Note_on_c, 4, 78, 56
6, 78914, Note_off_c, 4, 78, 64
6, 78941, Note_on_c, 4, 74, 60
6, 79042, Note_off_c, 4, 74, 64
6, 79062, Note_on_c, 4, 78, 57
6, 79175, Note_off_c, 4, 78, 64
6, 79186, Note_on_c, 4, 73, 55
6, 79288, Note_off_c, 4, 73, 64
6, 79303, Note_on_c, 4, 78, 56
6, 79396, Note_off_c, 4, 78, 64
6, 79414, Note_on_c, 4, 71, 64
6, 79517, Note_on_c, 4, 78, 58
6, 79556, Note_off_c, 4, 71, 64
6, 79629, Note_off_c, 4, 78, 64
6, 79656, Note_on_c, 4, 70, 78
6, 79766, Note_off_c, 4, 70, 64
6, 79770, Note_on_c, 4, 71, 72
6, 79894, Note_on_c, 4, 70, 43
6, 79895, Note_off_c, 4, 71, 64
6, 79998, Note_off_c, 4, 70, 64
6, 79999, Note_on_c, 4, 68, 48
6, 80120, Note_off_c, 4, 68, 64
6, 80142, Note_on_c, 4, 66, 59
6, 80348, Note_off_c, 4, 66, 64
6, 110013, Note_on_c, 4, 74, 76
6, 110119, Note_off_c, 4, 74, 64
6, 110130, Note_on_c, 4, 73, 52
6, 110241, Note_on_c, 4, 71, 60
6, 110256, Note_off_c, 4, 73, 64
6, 110345, Note_off_c, 4, 71, 64
6, 110385, Note_on_c, 4, 69, 72
6, 110509, Note_on_c, 4, 74, 64
6, 110511, Note_off_c, 4, 69, 64
6, 110608, Note_off_c, 4, 74, 64
6, 110633, Note_on_c, 4, 73, 31
6, 110736, Note_on_c, 4, 74, 61
6, 110752, Note_off_c, 4, 73, 64
6, 110847, Note_off_c, 4, 74, 64
6, 110871, Note_on_c, 4, 78, 63
6, 110969, Note_off_c, 4, 78, 64
6, 110973, Note_on_c, 4, 74, 64
6, 111097, Note_off_c, 4, 74, 64
6, 111100, Note_on_c, 4, 73, 46
6, 111201, Note_on_c, 4, 74, 70
6, 111217, Note_off_c, 4, 73, 64
6, 111286, Note_off_c, 4, 74, 64
6, 111345, Note_on_c, 4, 76, 76
6, 111443, Note_on_c, 4, 74, 70
6, 111460, Note_off_c, 4, 76, 64
6, 111575, Note_on_c, 4, 73, 51
6, 111584, Note_off_c, 4, 74, 64
6, 111686, Note_on_c, 4, 71, 57
6, 111700, Note_off_c, 4, 73, 64
6, 111817, Note_off_c, 4, 71, 64
6, 111817, Note_on_c, 4, 69, 63
6, 111921, Note_off_c, 4, 69, 64
6, 111934, Note_on_c, 4, 74, 70
6, 112055, Note_on_c, 4, 73, 51
6, 112073, Note_off_c, 4, 74, 64
6, 112178, Note_on_c, 4, 71, 53
6, 112180, Note_off_c, 4, 73, 64
6, 112279, Note_off_c, 4, 71, 64
6, 112308, Note_on_c, 4, 69, 64
6, 112410, Note_off_c, 4, 69, 64
6, 112420, Note_on_c, 4, 76, 62
6, 112545, Note_off_c, 4, 76, 64
6, 112549, Note_on_c, 4, 74, 49
6, 112649, Note_on_c, 4, 76, 60
6, 112653, Note_off_c, 4, 74, 64
6, 112740, Note_off_c, 4, 76, 64
6, 112769, Note_on_c, 4, 79, 72
6, 112870, Note_off_c, 4, 79, 64
6, 112877, Note_on_c, 4, 76, 52
6, 112985, Note_off_c, 4, 76, 64
6, 113008, Note_on_c, 4, 74, 64
6, 113112, Note_off_c, 4, 74, 64
6, 113120, Note_on_c, 4, 76, 62
6, 113200, Note_off_c, 4, 76, 64
6, 113249, Note_on_c, 4, 78, 66
6, 113358, Note_on_c, 4, 79, 58
6, 113359, Note_off_c, 4, 78, 64
6, 113479, Note_on_c, 4, 78, 50
6, 113484, Note_off_c, 4, 79, 64
6, 113592, Note_on_c, 4, 76, 56
6, 113596, Note_off_c, 4, 78, 64
6, 113721, Note_off_c, 4, 76, 64
6, 113729, Note_on_c, 4, 74, 59
6, 113794, Note_off_c, 4, 74, 64
6, 113847, Note_on_c, 4, 79, 72
6, 113973, Note_on_c, 4, 78, 54
6, 114002, Note_off_c, 4, 79, 64
6, 114088, Note_on_c, 4, 76, 60
6, 114099, Note_off_c, 4, 78, 64
6, 114201, Note_off_c, 4, 76, 64
6, 114220, Note_on_c, 4, 74, 64
6, 114316, Note_off_c, 4, 74, 64
6, 114331, Note_on_c, 4, 81, 66
6, 114446, Note_on_c, 4, 79, 53
6, 114451, Note_off_c, 4, 81, 64
6, 114557, Note_off_c, 4, 79, 64
6, 114559, Note_on_c, 4, 81, 60
6, 114654, Note_off_c, 4, 81, 64
6, 114690, Note_on_c, 4, 84, 66
6, 114785, Note_off_c, 4, 84, 64
6, 114796, Note_on_c, 4, 81, 53
6, 114927, Note_on_c, 4, 79, 53
6, 114936, Note_off_c, 4, 81, 64
6, 115044, Note_on_c, 4, 81, 58
6, 115049, Note_off_c, 4, 79, 64
6, 115117, Note_off_c, 4, 81, 64
6, 115175, Note_on_c, 4, 83, 78
6, 115279, Note_off_c, 4, 83, 64
6, 115285, Note_on_c, 4, 84, 59
6, 115409, Note_on_c, 4, 83, 53
6, 115416, Note_off_c, 4, 84, 64
6, 115514, Note_off_c, 4, 83, 64
6, 115516, Note_on_c, 4, 81, 60
6, 115602, Note_off_c, 4, 81, 64
6, 115644, Note_on_c, 4, 83, 72
6, 115761, Note_on_c, 4, 79, 60
6, 115773, Note_off_c, 4, 83, 64
6, 115885, Note_on_c, 4, 78, 53
6, 115897, Note_off_c, 4, 79, 64
6, 116001, Note_off_c, 4, 78, 64
6, 116003, Note_on_c, 4, 76, 52
6, 116091, Note_off_c, 4, 76, 64
6, 116131, Note_on_c, 4, 81, 80
6, 116240, Note_on_c, 4, 79, 66
6, 116254, Note_off_c, 4, 81, 64
6, 116368, Note_off_c, 4, 79, 64
6, 116372, Note_on_c, 4, 78, 54
6, 116474, Note_off_c, 4, 78, 64
6, 116496, Note_on_c, 4, 81, 63
6, 116581, Note_off_c, 4, 81, 64
6, 116623, Note_on_c, 4, 79, 68
6, 116742, Note_on_c, 4, 78, 53
6, 116751, Note_off_c, 4, 79, 64
6, 116859, Note_on_c, 4, 76, 59
6, 116864, Note_off_c, 4, 78, 64
6, 116968, Note_off_c, 4, 76, 64
6, 116975, Note_on_c, 4, 79, 68
6, 117050, Note_off_c, 4, 79, 64
6, 117090, Note_on_c, 4, 78, 85
6, 117202, Note_on_c, 4, 76, 58
6, 117207, Note_off_c, 4, 78, 64
6, 117317, Note_on_c, 4, 75, 47
6, 117329, Note_off_c, 4, 76, 64
6, 117415, Note_off_c, 4, 75, 64
6, 117424, Note_on_c, 4, 73, 39
6, 117548, Note_off_c, 4, 73, 64
6, 117565, Note_on_c, 4, 71, 55
6, 117654, Note_off_c, 4, 71, 64
6, 117824, Note_on_c, 4, 83, 72
6, 117902, Note_off_c, 4, 83, 64
6, 118079, Note_on_c, 4, 84, 85
6, 118150, Note_off_c, 4, 84, 64
6, 118316, Note_on_c, 4, 83, 78
6, 118694, Note_off_c, 4, 83, 64
6, 118798, Note_on_c, 4, 81, 72
6, 118931, Note_off_c, 4, 81, 64
6, 119042, Note_on_c, 4, 83, 82
6, 119144, Note_on_c, 4, 81, 66
6, 119161, Note_off_c, 4, 83, 64
6, 119243, Note_off_c, 4, 81, 64
6, 119259, Note_on_c, 4, 79, 59
6, 119367, Note_on_c, 4, 81, 60
6, 119389, Note_off_c, 4, 79, 64
6, 119460, Note_off_c, 4, 81, 64
6, 119507, Note_on_c, 4, 83, 72
6, 119600, Note_off_c, 4, 83, 64
6, 119733, Note_on_c, 4, 76, 70
6, 119826, Note_off_c, 4, 76, 64
6, 119989, Note_on_c, 4, 81, 80
6, 120071, Note_off_c, 4, 81, 64
6, 120229, Note_on_c, 4, 79, 74
6, 120574, Note_off_c, 4, 79, 64
6, 120715, Note_on_c, 4, 78, 59
6, 120841, Note_off_c, 4, 78, 64
6, 120959, Note_on_c, 4, 79, 89
6, 121065, Note_on_c, 4, 81, 60
6, 121085, Note_off_c, 4, 79, 64
6, 121176, Note_on_c, 4, 79, 57
6, 121180, Note_off_c, 4, 81, 64
6, 121282, Note_off_c, 4, 79, 64
6, 121284, Note_on_c, 4, 78, 52
6, 121397, Note_off_c, 4, 78, 64
6, 121411, Note_on_c, 4, 76, 53
6, 121510, Note_on_c, 4, 78, 55
6, 121515, Note_off_c, 4, 76, 64
6, 121621, Note_off_c, 4, 78, 64
6, 121638, Note_on_c, 4, 79, 60
6, 121763, Note_off_c, 4, 79, 64
6, 121763, Note_on_c, 4, 81, 63
6, 121862, Note_off_c, 4, 81, 64
6, 121891, Note_on_c, 4, 83, 74
6, 122004, Note_on_c, 4, 85, 62
6, 122012, Note_off_c, 4, 83, 64
6, 122132, Note_on_c, 4, 86, 66
6, 122168, Note_off_c, 4, 85, 64
6, 122238, Note_off_c, 4, 86, 64
6, 122249, Note_on_c, 4, 83, 60
6, 122327, Note_off_c, 4, 83, 64
6, 122375, Note_on_c, 4, 85, 82
6, 122489, Note_on_c, 4, 86, 76
6, 122499, Note_off_c, 4, 85, 64
6, 122593, Note_off_c, 4, 86, 64
6, 122621, Note_on_c, 4, 88, 70
6, 122710, Note_off_c, 4, 88, 64
6, 122723, Note_on_c, 4, 85, 58
6, 122814, Note_off_c, 4, 85, 64
6, 122860, Note_on_c, 4, 86, 76
6, 123396, Note_off_c, 4, 86, 64
6, 123444, Note_on_c, 4, 85, 62
6, 123555, Note_off_c, 4, 85, 64
6, 123564, Note_on_c, 4, 86, 74
6, 123673, Note_off_c, 4, 86, 64
6, 123684, Note_on_c, 4, 88, 68
6, 123759, Note_off_c, 4, 88, 64
6, 123821, Note_on_c, 4, 86, 89
6, 123941, Note_on_c, 4, 85, 57
6, 123950, Note_off_c, 4, 86, 64
6, 124047, Note_off_c, 4, 85, 64
6, 124062, Note_on_c, 4, 83, 57
6, 124142, Note_off_c, 4, 83, 64
6, 124173, Note_on_c, 4, 86, 68
6, 124257, Note_off_c, 4, 86, 64
6, 124292, Note_on_c, 4, 85, 89
6, 124396, Note_on_c, 4, 83, 62
6, 124399, Note_off_c, 4, 85, 64
6, 124507, Note_off_c, 4, 83, 64
6, 124521, Note_on_c, 4, 82, 53
6, 124602, Note_off_c, 4, 82, 64
6, 124625, Note_on_c, 4, 85, 64
6, 124717, Note_off_c, 4, 85, 64
6, 124758, Note_on_c, 4, 83, 80
6, 124842, Note_off_c, 4, 83, 64
6, 125005, Note_on_c, 4, 78, 60
6, 125083, Note_off_c, 4, 78, 64
6, 125267, Note_on_c, 4, 83, 74
6, 125346, Note_off_c, 4, 83, 64
6, 125499, Note_on_c, 4, 71, 64
6, 125594, Note_off_c, 4, 71, 64
6, 125758, Note_on_c, 4, 81, 85
6, 125842, Note_off_c, 4, 81, 64
6, 125984, Note_on_c, 4, 75, 57
6, 126066, Note_off_c, 4, 75, 64
6, 126240, Note_on_c, 4, 81, 80
6, 126322, Note_off_c, 4, 81, 64
6, 126458, Note_on_c, 4, 71, 68
6, 126530, Note_off_c, 4, 71, 64
6, 126712, Note_on_c, 4, 79, 80
6, 126818, Note_on_c, 4, 81, 76
6, 126825, Note_off_c, 4, 79, 64
6, 126913, Note_off_c, 4, 81, 64
6, 126944, Note_on_c, 4, 83, 74
6, 127051, Note_off_c, 4, 83, 64
6, 127052, Note_on_c, 4, 79, 60
6, 127137, Note_off_c, 4, 79, 64
6, 127183, Note_on_c, 4, 81, 76
6, 127290, Note_on_c, 4, 83, 68
6, 127323, Note_off_c, 4, 81, 64
6, 127400, Note_off_c, 4, 83, 64
6, 127407, Note_on_c, 4, 84, 64
6, 127500, Note_off_c, 4, 84, 64
6, 127522, Note_on_c, 4, 81, 72
6, 127588, Note_off_c, 4, 81, 64
6, 127660, Note_on_c, 4, 75, 64
6, 127752, Note_off_c, 4, 75, 64
6, 127899, Note_on_c, 4, 71, 72
6, 127980, Note_off_c, 4, 71, 64
6, 128158, Note_on_c, 4, 76, 80
6, 128709, Note_off_c, 4, 76, 64
6, 128742, Note_on_c, 4, 74, 78
6, 128833, Note_off_c, 4, 74, 64
6, 128861, Note_on_c, 4, 72, 59
6, 128948, Note_off_c, 4, 72, 64
6, 128968, Note_on_c, 4, 71, 59
6, 129052, Note_off_c, 4, 71, 64
6, 129092, Note_on_c, 4, 69, 70
6, 129200, Note_on_c, 4, 71, 68
6, 129205, Note_off_c, 4, 69, 64
6, 129278, Note_off_c, 4, 71, 64
6, 129328, Note_on_c, 4, 72, 64
6, 129740, Note_off_c, 4, 72, 64
6, 129826, Note_on_c, 4, 71, 80
6, 129926, Note_on_c, 4, 69, 64
6, 129939, Note_off_c, 4, 71, 64
6, 130043, Note_off_c, 4, 69, 64
6, 130054, Note_on_c, 4, 67, 52
6, 130161, Note_on_c, 4, 66, 56
6, 130167, Note_off_c, 4, 67, 64
6, 130278, Note_off_c, 4, 66, 64
6, 130292, Note_on_c, 4, 64, 64
6, 130400, Note_on_c, 4, 63, 57
6, 130402, Note_off_c, 4, 64, 64
6, 130495, Note_off_c, 4, 63, 64
6, 130535, Note_on_c, 4, 64, 58
6, 130643, Note_off_c, 4, 64, 64
6, 130796, Note_on_c, 4, 71, 72
6, 130885, Note_off_c, 4, 71, 64
6, 131035, Note_on_c, 4, 70, 60
6, 131146, Note_on_c, 4, 71, 66
6, 131149, Note_off_c, 4, 70, 64
6, 131237, Note_off_c, 4, 71, 64
6, 131274, Note_on_c, 4, 73, 76
6, 131650, Note_off_c, 4, 73, 64
6, 131752, Note_on_c, 4, 66, 66
6, 131828, Note_off_c, 4, 66, 64
6, 132003, Note_on_c, 4, 71, 74
6, 132521, Note_off_c, 4, 71, 64
6, 132724, Note_on_c, 4, 83, 80
6, 132806, Note_off_c, 4, 83, 64
6, 132952, Note_on_c, 4, 82, 61
6, 133050, Note_on_c, 4, 83, 61
6, 133063, Note_off_c, 4, 82, 64
6, 133160, Note_off_c, 4, 83, 64
6, 133189, Note_on_c, 4, 85, 66
6, 133284, Note_off_c, 4, 85, 64
6, 133432, Note_on_c, 4, 78, 63
6, 133531, Note_off_c, 4, 78, 64
6, 133660, Note_on_c, 4, 71, 60
6, 133775, Note_off_c, 4, 71, 64
6, 133775, Note_on_c, 4, 73, 57
6, 133902, Note_off_c, 4, 73, 64
6, 133906, Note_on_c, 4, 74, 63
6, 134021, Note_on_c, 4, 76, 66
6, 134026, Note_off_c, 4, 74, 64
6, 134121, Note_off_c, 4, 76, 64
6, 134125, Note_on_c, 4, 78, 56
6, 134229, Note_off_c, 4, 78, 64
6, 134238, Note_on_c, 4, 74, 70
6, 134318, Note_off_c, 4, 74, 64
6, 134360, Note_on_c, 4, 79, 78
6, 134466, Note_off_c, 4, 79, 64
6, 134477, Note_on_c, 4, 74, 63
6, 134595, Note_off_c, 4, 74, 64
6, 134614, Note_on_c, 4, 73, 49
6, 134719, Note_off_c, 4, 73, 64
6, 134725, Note_on_c, 4, 71, 56
6, 134852, Note_on_c, 4, 73, 52
6, 134873, Note_off_c, 4, 71, 64
6, 134947, Note_off_c, 4, 73, 64
6, 134978, Note_on_c, 4, 79, 70
6, 135084, Note_off_c, 4, 79, 64
6, 135101, Note_on_c, 4, 78, 47
6, 135206, Note_off_c, 4, 78, 64
6, 135206, Note_on_c, 4, 76, 57
6, 135288, Note_off_c, 4, 76, 64
6, 135345, Note_on_c, 4, 78, 78
6, 135458, Note_on_c, 4, 76, 57
6, 135482, Note_off_c, 4, 78, 64
6, 135582, Note_off_c, 4, 76, 64
6, 135589, Note_on_c, 4, 74, 57
6, 135701, Note_on_c, 4, 76, 60
6, 135710, Note_off_c, 4, 74, 64
6, 135828, Note_on_c, 4, 78, 60
6, 135837, Note_off_c, 4, 76, 64
6, 135932, Note_off_c, 4, 78, 64
6, 135949, Note_on_c, 4, 83, 62
6, 136069, Note_on_c, 4, 82, 54
6, 136075, Note_off_c, 4, 83, 64
6, 136166, Note_off_c, 4, 82, 64
6, 136177, Note_on_c, 4, 83, 68
6, 136301, Note_on_c, 4, 85, 63
6, 136306, Note_off_c, 4, 83, 64
6, 136420, Note_off_c, 4, 85, 64
6, 136432, Note_on_c, 4, 83, 60
6, 136531, Note_on_c, 4, 82, 57
6, 136537, Note_off_c, 4, 83, 64
6, 136642, Note_off_c, 4, 82, 64
6, 136653, Note_on_c, 4, 80, 58
6, 136757, Note_off_c, 4, 80, 64
6, 136777, Note_on_c, 4, 78, 52
6, 136879, Note_off_c, 4, 78, 64
6, 136884, Note_on_c, 4, 76, 68
6, 136983, Note_off_c, 4, 76, 64
6, 137010, Note_on_c, 4, 74, 47
6, 137120, Note_off_c, 4, 74, 64
6, 137127, Note_on_c, 4, 73, 44
6, 137220, Note_off_c, 4, 73, 64
6, 137249, Note_on_c, 4, 74, 70
6, 137370, Note_off_c, 4, 74, 64
6, 137373, Note_on_c, 4, 76, 53
6, 137488, Note_off_c, 4, 76, 64
6, 137499, Note_on_c, 4, 74, 54
6, 137621, Note_off_c, 4, 74, 64
6, 137629, Note_on_c, 4, 73, 43
6, 137714, Note_off_c, 4, 73, 64
6, 137753, Note_on_c, 4, 71, 72
6, 137858, Note_on_c, 4, 73, 52
6, 137873, Note_off_c, 4, 71, 64
6, 137981, Note_off_c, 4, 73, 64
6, 137981, Note_on_c, 4, 74, 57
6, 138079, Note_off_c, 4, 74, 64
6, 138094, Note_on_c, 4, 71, 64
6, 138194, Note_off_c, 4, 71, 64
6, 138227, Note_on_c, 4, 73, 59
6, 138344, Note_off_c, 4, 73, 64
6, 138345, Note_on_c, 4, 78, 56
6, 138438, Note_off_c, 4, 78, 64
6, 138457, Note_on_c, 4, 76, 64
6, 138559, Note_off_c, 4, 76, 64
6, 138577, Note_on_c, 4, 78, 56
6, 138668, Note_off_c, 4, 78, 64
6, 138701, Note_on_c, 4, 75, 60
6, 138811, Note_off_c, 4, 75, 64
6, 138814, Note_on_c, 4, 78, 55
6, 138898, Note_off_c, 4, 78, 64
6, 138933, Note_on_c, 4, 74, 56
6, 139037, Note_off_c, 4, 74, 64
6, 139048, Note_on_c, 4, 78, 53
6, 139153, Note_off_c, 4, 78, 64
6, 139188, Note_on_c, 4, 73, 78
6, 139298, Note_off_c, 4, 73, 64
6, 139305, Note_on_c, 4, 78, 56
6, 139398, Note_off_c, 4, 78, 64
6, 139425, Note_on_c, 4, 76, 62
6, 139538, Note_on_c, 4, 78, 55
6, 139544, Note_off_c, 4, 76, 64
6, 139630, Note_off_c, 4, 78, 64
6, 139664, Note_on_c, 4, 74, 60
6, 139757, Note_off_c, 4, 74, 64
6, 139788, Note_on_c, 4, 78, 53
6, 139886, Note_off_c, 4, 78, 64
6, 139898, Note_on_c, 4, 73, 56
6, 140011, Note_off_c, 4, 73, 64
6, 140016, Note_on_c, 4, 78, 57
6, 140111, Note_off_c, 4, 78, 64
6, 140138, Note_on_c, 4, 71, 64
6, 140250, Note_on_c, 4, 78, 57
6, 140255, Note_off_c, 4, 71, 64
6, 140341, Note_off_c, 4, 78, 64
6, 140372, Note_on_c, 4, 74, 64
6, 140465, Note_off_c, 4, 74, 64
6, 140478, Note_on_c, 4, 78, 53
6, 140586, Note_off_c, 4, 78, 64
6, 140609, Note_on_c, 4, 73, 57
6, 140709, Note_off_c, 4, 73, 64
6, 140729, Note_on_c, 4, 78, 58
6, 140826, Note_off_c, 4, 78, 64
6, 140853, Note_on_c, 4, 71, 57
6, 140952, Note_on_c, 4, 78, 60
6, 140979, Note_off_c, 4, 71, 64
6, 141050, Note_off_c, 4, 78, 64
6, 141089, Note_on_c, 4, 70, 82
6, 141189, Note_off_c, 4, 70, 64
6, 141193, Note_on_c, 4, 71, 68
6, 141320, Note_off_c, 4, 71, 64
6, 141326, Note_on_c, 4, 70, 44
6, 141419, Note_off_c, 4, 70, 64
6, 141423, Note_on_c, 4, 68, 44
6, 141532, Note_off_c, 4, 68, 64
6, 141563, Note_on_c, 4, 66, 53
6, 141791, Note_off_c, 4, 66, 64
6, 147602, Note_on_c, 4, 78, 62
6, 147723, Note_off_c, 4, 78, 64
6, 147838, Note_on_c, 4, 76, 70
6, 147949, Note_off_c, 4, 76, 64
6, 147949, Note_on_c, 4, 81, 70
6, 148067, Note_off_c, 4, 81, 64
6, 148076, Note_on_c, 4, 80, 76
6, 148186, Note_on_c, 4, 81, 66
6, 148193, Note_off_c, 4, 80, 64
6, 148268, Note_off_c, 4, 81, 64
6, 148301, Note_on_c, 4, 79, 80
6, 148408, Note_off_c, 4, 79, 64
6, 148414, Note_on_c, 4, 81, 57
6, 148512, Note_off_c, 4, 81, 64
6, 148532, Note_on_c, 4, 78, 59
6, 148644, Note_off_c, 4, 78, 64
6, 148644, Note_on_c, 4, 81, 64
6, 148751, Note_off_c, 4, 81, 64
6, 148777, Note_on_c, 4, 76, 68
6, 148886, Note_on_c, 4, 81, 62
6, 148895, Note_off_c, 4, 76, 64
6, 148985, Note_off_c, 4, 81, 64
6, 149014, Note_on_c, 4, 79, 66
6, 149128, Note_on_c, 4, 81, 63
6, 149133, Note_off_c, 4, 79, 64
6, 149222, Note_off_c, 4, 81, 64
6, 149257, Note_on_c, 4, 78, 57
6, 149364, Note_off_c, 4, 78, 64
6, 149372, Note_on_c, 4, 81, 61
6, 149459, Note_off_c, 4, 81, 64
6, 149494, Note_on_c, 4, 76, 62
6, 149600, Note_on_c, 4, 81, 58
6, 149618, Note_off_c, 4, 76, 64
6, 149691, Note_off_c, 4, 81, 64
6, 149718, Note_on_c, 4, 74, 66
6, 149824, Note_on_c, 4, 81, 63
6, 149838, Note_off_c, 4, 74, 64
6, 149941, Note_off_c, 4, 81, 64
6, 149957, Note_on_c, 4, 78, 68
6, 150061, Note_on_c, 4, 81, 62
6, 150070, Note_off_c, 4, 78, 64
6, 150165, Note_off_c, 4, 81, 64
6, 150189, Note_on_c, 4, 76, 63
6, 150289, Note_off_c, 4, 76, 64
6, 150298, Note_on_c, 4, 81, 60
6, 150406, Note_off_c, 4, 81, 64
6, 150439, Note_on_c, 4, 74, 76
6, 150548, Note_on_c, 4, 81, 68
6, 150555, Note_off_c, 4, 74, 64
6, 150656, Note_off_c, 4, 81, 64
6, 150685, Note_on_c, 4, 73, 64
6, 150778, Note_off_c, 4, 73, 64
6, 150783, Note_on_c, 4, 74, 66
6, 150916, Note_off_c, 4, 74, 64
6, 150916, Note_on_c, 4, 73, 39
6, 151030, Note_on_c, 4, 71, 63
6, 151032, Note_off_c, 4, 73, 64
6, 151163, Note_off_c, 4, 71, 64
6, 151175, Note_on_c, 4, 69, 56
6, 151292, Note_off_c, 4, 69, 64
6, 180095, Note_on_c, 4, 81, 66
6, 180191, Note_off_c, 4, 81, 64
6, 180211, Note_on_c, 4, 79, 60
6, 180297, Note_off_c, 4, 79, 64
6, 180321, Note_on_c, 4, 78, 57
6, 180401, Note_off_c, 4, 78, 64
6, 180447, Note_on_c, 4, 79, 66
6, 181457, Note_off_c, 4, 79, 64
6, 181517, Note_on_c, 4, 73, 57
6, 181610, Note_off_c, 4, 73, 64
6, 181638, Note_on_c, 4, 76, 66
6, 181745, Note_off_c, 4, 76, 64
6, 181745, Note_on_c, 4, 79, 76
6, 181831, Note_off_c, 4, 79, 64
6, 181877, Note_on_c, 4, 76, 66
6, 182001, Note_off_c, 4, 76, 64
6, 182001, Note_on_c, 4, 73, 52
6, 182090, Note_off_c, 4, 73, 64
6, 182117, Note_on_c, 4, 76, 68
6, 182216, Note_off_c, 4, 76, 64
6, 182230, Note_on_c, 4, 79, 66
6, 182314, Note_off_c, 4, 79, 64
6, 182364, Note_on_c, 4, 78, 82
6, 182477, Note_on_c, 4, 79, 70
6, 182488, Note_off_c, 4, 78, 64
6, 182579, Note_off_c, 4, 79, 64
6, 182603, Note_on_c, 4, 78, 51
6, 182707, Note_off_c, 4, 78, 64
6, 182712, Note_on_c, 4, 76, 63
6, 182809, Note_off_c, 4, 76, 64
6, 182840, Note_on_c, 4, 74, 60
6, 182944, Note_off_c, 4, 74, 64
6, 182945, Note_on_c, 4, 76, 66
6, 183028, Note_off_c, 4, 76, 64
6, 183077, Note_on_c, 4, 78, 57
6, 183411, Note_off_c, 4, 78, 64
6, 183447, Note_on_c, 4, 71, 60
6, 183553, Note_on_c, 4, 74, 63
6, 183560, Note_off_c, 4, 71, 64
6, 183662, Note_on_c, 4, 78, 60
6, 183675, Note_off_c, 4, 74, 64
6, 183732, Note_off_c, 4, 78, 64
6, 183794, Note_on_c, 4, 74, 70
6, 183901, Note_off_c, 4, 74, 64
6, 183905, Note_on_c, 4, 71, 59
6, 184000, Note_off_c, 4, 71, 64
6, 184031, Note_on_c, 4, 74, 64
6, 184120, Note_off_c, 4, 74, 64
6, 184142, Note_on_c, 4, 78, 57
6, 184224, Note_off_c, 4, 78, 64
6, 184271, Note_on_c, 4, 76, 82
6, 184386, Note_on_c, 4, 78, 54
6, 184388, Note_off_c, 4, 76, 64
6, 184510, Note_on_c, 4, 76, 57
6, 184518, Note_off_c, 4, 78, 64
6, 184634, Note_off_c, 4, 76, 64
6, 184638, Note_on_c, 4, 74, 57
6, 184729, Note_off_c, 4, 74, 64
6, 184769, Note_on_c, 4, 73, 64
6, 184873, Note_on_c, 4, 74, 60
6, 184888, Note_off_c, 4, 73, 64
6, 184972, Note_off_c, 4, 74, 64
6, 185008, Note_on_c, 4, 76, 70
6, 185324, Note_off_c, 4, 76, 64
6, 185384, Note_on_c, 4, 70, 64
6, 185484, Note_off_c, 4, 70, 64
6, 185492, Note_on_c, 4, 73, 58
6, 185603, Note_off_c, 4, 73, 64
6, 185608, Note_on_c, 4, 76, 68
6, 185707, Note_off_c, 4, 76, 64
6, 185743, Note_on_c, 4, 73, 62
6, 185842, Note_off_c, 4, 73, 64
6, 185864, Note_on_c, 4, 70, 53
6, 185946, Note_off_c, 4, 70, 64
6, 185968, Note_on_c, 4, 73, 57
6, 186075, Note_off_c, 4, 73, 64
6, 186079, Note_on_c, 4, 76, 66
6, 186157, Note_off_c, 4, 76, 64
6, 186201, Note_on_c, 4, 74, 72
6, 186322, Note_on_c, 4, 76, 62
6, 186336, Note_off_c, 4, 74, 64
6, 186422, Note_off_c, 4, 76, 64
6, 186446, Note_on_c, 4, 74, 60
6, 186564, Note_off_c, 4, 74, 64
6, 186564, Note_on_c, 4, 73, 57
6, 186659, Note_off_c, 4, 73, 64
6, 186683, Note_on_c, 4, 71, 70
6, 186790, Note_on_c, 4, 73, 59
6, 186803, Note_off_c, 4, 71, 64
6, 186891, Note_off_c, 4, 73, 64
6, 186916, Note_on_c, 4, 74, 66
6, 186998, Note_off_c, 4, 74, 64
6, 187032, Note_on_c, 4, 71, 68
6, 187128, Note_off_c, 4, 71, 64
6, 187168, Note_on_c, 4, 79, 82
6, 187252, Note_off_c, 4, 79, 64
6, 187420, Note_on_c, 4, 78, 66
6, 187806, Note_off_c, 4, 78, 64
6, 187910, Note_on_c, 4, 76, 66
6, 188058, Note_off_c, 4, 76, 64
6, 188155, Note_on_c, 4, 78, 70
6, 188257, Note_on_c, 4, 76, 68
6, 188268, Note_off_c, 4, 78, 64
6, 188359, Note_off_c, 4, 76, 64
6, 188368, Note_on_c, 4, 74, 57
6, 188467, Note_off_c, 4, 74, 64
6, 188478, Note_on_c, 4, 76, 61
6, 188570, Note_off_c, 4, 76, 64
6, 188609, Note_on_c, 4, 78, 63
6, 188715, Note_off_c, 4, 78, 64
6, 188842, Note_on_c, 4, 71, 74
6, 188930, Note_off_c, 4, 71, 64
6, 189089, Note_on_c, 4, 76, 78
6, 189178, Note_off_c, 4, 76, 64
6, 189340, Note_on_c, 4, 74, 76
6, 189747, Note_off_c, 4, 74, 64
6, 189824, Note_on_c, 4, 73, 59
6, 189970, Note_off_c, 4, 73, 64
6, 190078, Note_on_c, 4, 74, 80
6, 190187, Note_on_c, 4, 76, 64
6, 190199, Note_off_c, 4, 74, 64
6, 190298, Note_on_c, 4, 74, 64
6, 190320, Note_off_c, 4, 76, 64
6, 190409, Note_on_c, 4, 73, 51
6, 190422, Note_off_c, 4, 74, 64
6, 190520, Note_on_c, 4, 71, 57
6, 190528, Note_off_c, 4, 73, 64
6, 190640, Note_on_c, 4, 73, 56
6, 190646, Note_off_c, 4, 71, 64
6, 190738, Note_off_c, 4, 73, 64
6, 190754, Note_on_c, 4, 74, 66
6, 190871, Note_on_c, 4, 76, 64
6, 190878, Note_off_c, 4, 74, 64
6, 190958, Note_off_c, 4, 76, 64
6, 191002, Note_on_c, 4, 78, 87
6, 191115, Note_on_c, 4, 79, 66
6, 191141, Note_off_c, 4, 78, 64
6, 191237, Note_off_c, 4, 79, 64
6, 191237, Note_on_c, 4, 78, 50
6, 191343, Note_on_c, 4, 76, 68
6, 191358, Note_off_c, 4, 78, 64
6, 191460, Note_off_c, 4, 76, 64
6, 191484, Note_on_c, 4, 75, 59
6, 191598, Note_on_c, 4, 76, 66
6, 191600, Note_off_c, 4, 75, 64
6, 191724, Note_off_c, 4, 76, 64
6, 191735, Note_on_c, 4, 78, 55
6, 191839, Note_on_c, 4, 75, 57
6, 191863, Note_off_c, 4, 78, 64
6, 191927, Note_off_c, 4, 75, 64
6, 191971, Note_on_c, 4, 76, 87
6, 192087, Note_on_c, 4, 78, 58
6, 192104, Note_off_c, 4, 76, 64
6, 192204, Note_on_c, 4, 76, 63
6, 192235, Note_off_c, 4, 78, 64
6, 192317, Note_off_c, 4, 76, 64
6, 192321, Note_on_c, 4, 74, 59
6, 192443, Note_off_c, 4, 74, 64
6, 192447, Note_on_c, 4, 73, 57
6, 192563, Note_off_c, 4, 73, 64
6, 192564, Note_on_c, 4, 74, 64
6, 192693, Note_off_c, 4, 74, 64
6, 192697, Note_on_c, 4, 76, 66
6, 192811, Note_on_c, 4, 78, 64
6, 192813, Note_off_c, 4, 76, 64
6, 192906, Note_off_c, 4, 78, 64
6, 192925, Note_on_c, 4, 79, 78
6, 193038, Note_on_c, 4, 81, 66
6, 193061, Note_off_c, 4, 79, 64
6, 193145, Note_off_c, 4, 81, 64
6, 193173, Note_on_c, 4, 79, 61
6, 193280, Note_on_c, 4, 78, 56
6, 193287, Note_off_c, 4, 79, 64
6, 193373, Note_off_c, 4, 78, 64
6, 193413, Note_on_c, 4, 76, 72
6, 193528, Note_on_c, 4, 78, 57
6, 193547, Note_off_c, 4, 76, 64
6, 193643, Note_off_c, 4, 78, 64
6, 193649, Note_on_c, 4, 79, 68
6, 193765, Note_off_c, 4, 79, 64
6, 193767, Note_on_c, 4, 76, 57
6, 193842, Note_off_c, 4, 76, 64
6, 193889, Note_on_c, 4, 78, 76
6, 193993, Note_on_c, 4, 79, 66
6, 194019, Note_off_c, 4, 78, 64
6, 194125, Note_off_c, 4, 79, 64
6, 194125, Note_on_c, 4, 78, 57
6, 194238, Note_on_c, 4, 76, 66
6, 194254, Note_off_c, 4, 78, 64
6, 194360, Note_off_c, 4, 76, 64
6, 194369, Note_on_c, 4, 74, 72
6, 194477, Note_on_c, 4, 76, 63
6, 194484, Note_off_c, 4, 74, 64
6, 194597, Note_on_c, 4, 78, 57
6, 194599, Note_off_c, 4, 76, 64
6, 194699, Note_off_c, 4, 78, 64
6, 194710, Note_on_c, 4, 79, 59
6, 194794, Note_off_c, 4, 79, 64
6, 194838, Note_on_c, 4, 81, 82
6, 194953, Note_on_c, 4, 83, 63
6, 194975, Note_off_c, 4, 81, 64
6, 195077, Note_on_c, 4, 81, 60
6, 195088, Note_off_c, 4, 83, 64
6, 195186, Note_on_c, 4, 79, 60
6, 195192, Note_off_c, 4, 81, 64
6, 195312, Note_off_c, 4, 79, 64
6, 195330, Note_on_c, 4, 78, 64
6, 195434, Note_on_c, 4, 79, 60
6, 195462, Note_off_c, 4, 78, 64
6, 195553, Note_off_c, 4, 79, 64
6, 195564, Note_on_c, 4, 81, 60
6, 195681, Note_on_c, 4, 78, 54
6, 195693, Note_off_c, 4, 81, 64
6, 195772, Note_off_c, 4, 78, 64
6, 195806, Note_on_c, 4, 79, 80
6, 195914, Note_on_c, 4, 81, 63
6, 195921, Note_off_c, 4, 79, 64
6, 196056, Note_on_c, 4, 79, 60
6, 196060, Note_off_c, 4, 81, 64
6, 196175, Note_off_c, 4, 79, 64
6, 196177, Note_on_c, 4, 78, 53
6, 196304, Note_on_c, 4, 76, 63
6, 196314, Note_off_c, 4, 78, 64
6, 196408, Note_off_c, 4, 76, 64
6, 196417, Note_on_c, 4, 74, 59
6, 196531, Note_off_c, 4, 74, 64
6, 196545, Note_on_c, 4, 73, 47
6, 196636, Note_on_c, 4, 71, 59
6, 196652, Note_off_c, 4, 73, 64
6, 196737, Note_off_c, 4, 71, 64
6, 196766, Note_on_c, 4, 78, 62
6, 197056, Note_off_c, 4, 78, 64
6, 197122, Note_on_c, 4, 79, 70
6, 197189, Note_off_c, 4, 79, 64
6, 197257, Note_on_c, 4, 74, 63
6, 197315, Note_on_c, 4, 73, 51
6, 197326, Note_off_c, 4, 74, 64
6, 197357, Note_on_c, 4, 74, 66
6, 197377, Note_off_c, 4, 73, 64
6, 197417, Note_on_c, 4, 73, 52
6, 197439, Note_off_c, 4, 74, 64
6, 197561, Note_off_c, 4, 73, 64
6, 197630, Note_on_c, 4, 71, 70
6, 197698, Note_off_c, 4, 71, 64
6, 197767, Note_on_c, 4, 71, 68
6, 200192, Note_off_c, 4, 71, 64
6, 200381, Note_on_c, 4, 71, 82
6, 200465, Note_off_c, 4, 71, 64
6, 200627, Note_on_c, 4, 79, 85
6, 200718, Note_off_c, 4, 79, 64
6, 200861, Note_on_c, 4, 78, 59
6, 201227, Note_off_c, 4, 78, 64
6, 201348, Note_on_c, 4, 76, 76
6, 201457, Note_off_c, 4, 76, 64
6, 201587, Note_on_c, 4, 78, 76
6, 201691, Note_on_c, 4, 79, 80
6, 201697, Note_off_c, 4, 78, 64
6, 201787, Note_off_c, 4, 79, 64
6, 201817, Note_on_c, 4, 81, 63
6, 202132, Note_off_c, 4, 81, 64
6, 202185, Note_on_c, 4, 79, 76
6, 202293, Note_off_c, 4, 79, 64
6, 202300, Note_on_c, 4, 78, 66
6, 202406, Note_on_c, 4, 76, 59
6, 202411, Note_off_c, 4, 78, 64
6, 202501, Note_off_c, 4, 76, 64
6, 202533, Note_on_c, 4, 75, 53
6, 202643, Note_on_c, 4, 73, 32
6, 202644, Note_off_c, 4, 75, 64
6, 202769, Note_on_c, 4, 75, 64
6, 202800, Note_off_c, 4, 73, 64
6, 202867, Note_off_c, 4, 75, 64
6, 202884, Note_on_c, 4, 76, 72
6, 203008, Note_off_c, 4, 76, 64
6, 203011, Note_on_c, 4, 78, 62
6, 203128, Note_on_c, 4, 79, 78
6, 203143, Note_off_c, 4, 78, 64
6, 203225, Note_off_c, 4, 79, 64
6, 203245, Note_on_c, 4, 81, 78
6, 203358, Note_on_c, 4, 78, 56
6, 203364, Note_off_c, 4, 81, 64
6, 203445, Note_off_c, 4, 78, 64
6, 203491, Note_on_c, 4, 79, 85
6, 203608, Note_on_c, 4, 81, 63
6, 203619, Note_off_c, 4, 79, 64
6, 203730, Note_on_c, 4, 79, 64
6, 203737, Note_off_c, 4, 81, 64
6, 203848, Note_on_c, 4, 78, 57
6, 203854, Note_off_c, 4, 79, 64
6, 203962, Note_off_c, 4, 78, 64
6, 203983, Note_on_c, 4, 76, 76
6, 204091, Note_on_c, 4, 78, 70
6, 204118, Note_off_c, 4, 76, 64
6, 204204, Note_off_c, 4, 78, 64
6, 204221, Note_on_c, 4, 79, 74
6, 204321, Note_off_c, 4, 79, 64
6, 204337, Note_on_c, 4, 76, 62
6, 204423, Note_off_c, 4, 76, 64
6, 204476, Note_on_c, 4, 73, 64
6, 204560, Note_off_c, 4, 73, 64
6, 204711, Note_on_c, 4, 81, 82
6, 205029, Note_off_c, 4, 81, 64
6, 205187, Note_on_c, 4, 73, 63
6, 205293, Note_off_c, 4, 73, 64
6, 205435, Note_on_c, 4, 74, 87
6, 205775, Note_off_c, 4, 74, 64
6, 205795, Note_on_c, 4, 76, 76
6, 205844, Note_off_c, 4, 76, 64
6, 205915, Note_on_c, 4, 78, 68
6, 206010, Note_off_c, 4, 78, 64
6, 206021, Note_on_c, 4, 80, 80
6, 206101, Note_off_c, 4, 80, 64
6, 206130, Note_on_c, 4, 82, 64
6, 206229, Note_off_c, 4, 82, 64
6, 206240, Note_on_c, 4, 83, 68
6, 206335, Note_off_c, 4, 83, 64
6, 206366, Note_on_c, 4, 85, 85
6, 206455, Note_off_c, 4, 85, 64
6, 206615, Note_on_c, 4, 76, 78
6, 206958, Note_off_c, 4, 76, 64
6, 207002, Note_on_c, 4, 74, 57
6, 207103, Note_off_c, 4, 74, 64
6, 207115, Note_on_c, 4, 73, 52
6, 207206, Note_off_c, 4, 73, 64
6, 207225, Note_on_c, 4, 76, 76
6, 207320, Note_off_c, 4, 76, 64
6, 207354, Note_on_c, 4, 74, 85
6, 207440, Note_off_c, 4, 74, 64
6, 207588, Note_on_c, 4, 73, 68
6, 207889, Note_off_c, 4, 73, 64
6, 207960, Note_on_c, 4, 71, 82
6, 208047, Note_off_c, 4, 71, 64
6, 208071, Note_on_c, 4, 70, 66
6, 208160, Note_off_c, 4, 70, 64
6, 208170, Note_on_c, 4, 73, 57
6, 208250, Note_off_c, 4, 73, 64
6, 208306, Note_on_c, 4, 66, 63
6, 208427, Note_off_c, 4, 66, 64
6, 208549, Note_on_c, 4, 78, 72
6, 208660, Note_off_c, 4, 78, 64
6, 208777, Note_on_c, 4, 76, 80
6, 208888, Note_on_c, 4, 74, 68
6, 208906, Note_off_c, 4, 76, 64
6, 208954, Note_off_c, 4, 74, 64
6, 209020, Note_on_c, 4, 73, 64
6, 209120, Note_on_c, 4, 71, 58
6, 209145, Note_off_c, 4, 73, 64
6, 209243, Note_off_c, 4, 71, 64
6, 222357, Note_on_c, 4, 78, 63
6, 222399, Note_off_c, 4, 78, 64
6, 222474, Note_on_c, 4, 79, 85
6, 222554, Note_off_c, 4, 79, 64
6, 222710, Note_on_c, 4, 78, 82
6, 223141, Note_off_c, 4, 78, 64
6, 223205, Note_on_c, 4, 76, 70
6, 223369, Note_off_c, 4, 76, 64
6, 223438, Note_on_c, 4, 78, 64
6, 223540, Note_on_c, 4, 76, 76
6, 223555, Note_off_c, 4, 78, 64
6, 223650, Note_off_c, 4, 76, 64
6, 223655, Note_on_c, 4, 74, 70
6, 223777, Note_on_c, 4, 76, 64
6, 223793, Note_off_c, 4, 74, 64
6, 223885, Note_off_c, 4, 76, 64
6, 223914, Note_on_c, 4, 78, 64
6, 224015, Note_off_c, 4, 78, 64
6, 224139, Note_on_c, 4, 71, 64
6, 224235, Note_off_c, 4, 71, 64
6, 224389, Note_on_c, 4, 76, 82
6, 224469, Note_off_c, 4, 76, 64
6, 224638, Note_on_c, 4, 74, 76
6, 225052, Note_off_c, 4, 74, 64
6, 225120, Note_on_c, 4, 73, 64
6, 225268, Note_off_c, 4, 73, 64
6, 225350, Note_on_c, 4, 74, 78
6, 225465, Note_on_c, 4, 76, 68
6, 225481, Note_off_c, 4, 74, 64
6, 225583, Note_on_c, 4, 74, 64
6, 225592, Note_off_c, 4, 76, 64
6, 225693, Note_off_c, 4, 74, 64
6, 225698, Note_on_c, 4, 73, 55
6, 225806, Note_off_c, 4, 73, 64
6, 225819, Note_on_c, 4, 71, 64
6, 225923, Note_off_c, 4, 71, 64
6, 225928, Note_on_c, 4, 73, 52
6, 226032, Note_off_c, 4, 73, 64
6, 226054, Note_on_c, 4, 74, 70
6, 226171, Note_on_c, 4, 76, 66
6, 226178, Note_off_c, 4, 74, 64
6, 226287, Note_off_c, 4, 76, 64
6, 226296, Note_on_c, 4, 78, 57
6, 226424, Note_on_c, 4, 80, 59
6, 226430, Note_off_c, 4, 78, 64
6, 226495, Note_off_c, 4, 80, 64
6, 226523, Note_on_c, 4, 81, 66
6, 226650, Note_on_c, 4, 78, 52
6, 226665, Note_off_c, 4, 81, 64
6, 226727, Note_off_c, 4, 78, 64
6, 226767, Note_on_c, 4, 80, 72
6, 226884, Note_off_c, 4, 80, 64
6, 226885, Note_on_c, 4, 81, 68
6, 226984, Note_off_c, 4, 81, 64
6, 227008, Note_on_c, 4, 83, 59
6, 227115, Note_on_c, 4, 80, 59
6, 227121, Note_off_c, 4, 83, 64
6, 227197, Note_off_c, 4, 80, 64
6, 227254, Note_on_c, 4, 81, 74
6, 227832, Note_off_c, 4, 81, 64
6, 227869, Note_on_c, 4, 80, 59
6, 227969, Note_off_c, 4, 80, 64
6, 227984, Note_on_c, 4, 81, 70
6, 228077, Note_off_c, 4, 81, 64
6, 228086, Note_on_c, 4, 83, 66
6, 228181, Note_off_c, 4, 83, 64
6, 228212, Note_on_c, 4, 81, 85
6, 228325, Note_on_c, 4, 80, 68
6, 228332, Note_off_c, 4, 81, 64
6, 228445, Note_on_c, 4, 78, 55
6, 228447, Note_off_c, 4, 80, 64
6, 228531, Note_off_c, 4, 78, 64
6, 228560, Note_on_c, 4, 81, 72
6, 228643, Note_off_c, 4, 81, 64
6, 228688, Note_on_c, 4, 80, 80
6, 228804, Note_on_c, 4, 78, 57
6, 228830, Note_off_c, 4, 80, 64
6, 228916, Note_off_c, 4, 78, 64
6, 228927, Note_on_c, 4, 77, 58
6, 229005, Note_off_c, 4, 77, 64
6, 229040, Note_on_c, 4, 80, 58
6, 229122, Note_off_c, 4, 80, 64
6, 229162, Note_on_c, 4, 78, 80
6, 229264, Note_off_c, 4, 78, 64
6, 229408, Note_on_c, 4, 73, 56
6, 229496, Note_off_c, 4, 73, 64
6, 229660, Note_on_c, 4, 78, 66
6, 229746, Note_off_c, 4, 78, 64
6, 229899, Note_on_c, 4, 66, 57
6, 229985, Note_off_c, 4, 66, 64
6, 230125, Note_on_c, 4, 76, 76
6, 230209, Note_off_c, 4, 76, 64
6, 230373, Note_on_c, 4, 70, 59
6, 230442, Note_off_c, 4, 70, 64
6, 230619, Note_on_c, 4, 76, 66
6, 230727, Note_off_c, 4, 76, 64
6, 230860, Note_on_c, 4, 66, 59
6, 230948, Note_off_c, 4, 66, 64
6, 231097, Note_on_c, 4, 74, 74
6, 231180, Note_off_c, 4, 74, 64
6, 231347, Note_on_c, 4, 83, 87
6, 231436, Note_off_c, 4, 83, 64
6, 231592, Note_on_c, 4, 82, 60
6, 231694, Note_off_c, 4, 82, 64
6, 231699, Note_on_c, 4, 83, 63
6, 231799, Note_off_c, 4, 83, 64
6, 231829, Note_on_c, 4, 85, 85
6, 232159, Note_off_c, 4, 85, 64
6, 232311, Note_on_c, 4, 78, 70
6, 232405, Note_off_c, 4, 78, 64
6, 232567, Note_on_c, 4, 83, 82
6, 233100, Note_off_c, 4, 83, 64
6, 233149, Note_on_c, 4, 81, 72
6, 233246, Note_off_c, 4, 81, 64
6, 233268, Note_on_c, 4, 79, 63
6, 233350, Note_off_c, 4, 79, 64
6, 233374, Note_on_c, 4, 78, 52
6, 233474, Note_off_c, 4, 78, 64
6, 233503, Note_on_c, 4, 76, 47
6, 233600, Note_off_c, 4, 76, 64
6, 233613, Note_on_c, 4, 78, 60
6, 233702, Note_off_c, 4, 78, 64
6, 233735, Note_on_c, 4, 79, 89
6, 234165, Note_off_c, 4, 79, 64
6, 234222, Note_on_c, 4, 78, 76
6, 234331, Note_on_c, 4, 76, 70
6, 234351, Note_off_c, 4, 78, 64
6, 234442, Note_off_c, 4, 76, 64
6, 234450, Note_on_c, 4, 74, 57
6, 234537, Note_off_c, 4, 74, 64
6, 234563, Note_on_c, 4, 73, 46
6, 234672, Note_off_c, 4, 73, 64
6, 234685, Note_on_c, 4, 71, 52
6, 234809, Note_on_c, 4, 70, 61
6, 234820, Note_off_c, 4, 71, 64
6, 234909, Note_off_c, 4, 70, 64
6, 234937, Note_on_c, 4, 71, 78
6, 235088, Note_off_c, 4, 71, 64
6, 235198, Note_on_c, 4, 73, 58
6, 235296, Note_off_c, 4, 73, 64
6, 235302, Note_on_c, 4, 69, 68
6, 235391, Note_off_c, 4, 69, 64
6, 235437, Note_on_c, 4, 74, 80
6, 235533, Note_off_c, 4, 74, 64
6, 235674, Note_on_c, 4, 65, 74
6, 236091, Note_off_c, 4, 65, 64
6, 236153, Note_on_c, 4, 66, 62
6, 236266, Note_on_c, 4, 68, 62
6, 236276, Note_off_c, 4, 66, 64
6, 236352, Note_off_c, 4, 68, 64
6, 236390, Note_on_c, 4, 69, 68
6, 236505, Note_off_c, 4, 69, 64
6, 236509, Note_on_c, 4, 71, 78
6, 236604, Note_off_c, 4, 71, 64
6, 236640, Note_on_c, 4, 73, 64
6, 236744, Note_off_c, 4, 73, 64
6, 236870, Note_on_c, 4, 62, 78
6, 236983, Note_off_c, 4, 62, 64
6, 237104, Note_on_c, 4, 71, 68
6, 237204, Note_off_c, 4, 71, 64
6, 237359, Note_on_c, 4, 74, 80
6, 237428, Note_off_c, 4, 74, 64
6, 237600, Note_on_c, 4, 83, 85
6, 237901, Note_off_c, 4, 83, 64
6, 238052, Note_on_c, 4, 73, 64
6, 238158, Note_off_c, 4, 73, 64
6, 238289, Note_on_c, 4, 81, 85
6, 238373, Note_off_c, 4, 81, 64
6, 238535, Note_on_c, 4, 78, 66
6, 238895, Note_off_c, 4, 78, 64
6, 239023, Note_on_c, 4, 76, 78
6, 239116, Note_off_c, 4, 76, 64
6, 239261, Note_on_c, 4, 85, 80
6, 239357, Note_off_c, 4, 85, 64
6, 239504, Note_on_c, 4, 76, 63
6, 239843, Note_off_c, 4, 76, 64
6, 239989, Note_on_c, 4, 74, 76
6, 240084, Note_off_c, 4, 74, 64
6, 240243, Note_on_c, 4, 79, 85
6, 240819, Note_off_c, 4, 79, 64
6, 240957, Note_on_c, 4, 78, 66
6, 241054, Note_on_c, 4, 76, 78
6, 241065, Note_off_c, 4, 78, 64
6, 241147, Note_off_c, 4, 76, 64
6, 241175, Note_on_c, 4, 78, 68
6, 241268, Note_off_c, 4, 78, 64
6, 241423, Note_on_c, 4, 80, 82
6, 241514, Note_off_c, 4, 80, 64
6, 241669, Note_on_c, 4, 81, 87
6, 241766, Note_off_c, 4, 81, 64
6, 241904, Note_on_c, 4, 76, 60
6, 242001, Note_off_c, 4, 76, 64
6, 242156, Note_on_c, 4, 73, 62
6, 242249, Note_off_c, 4, 73, 64
6, 242404, Note_on_c, 4, 81, 85
6, 242756, Note_off_c, 4, 81, 64
6, 242875, Note_on_c, 4, 80, 78
6, 242973, Note_on_c, 4, 78, 68
6, 242988, Note_off_c, 4, 80, 64
6, 243063, Note_off_c, 4, 78, 64
6, 243105, Note_on_c, 4, 80, 82
6, 243194, Note_off_c, 4, 80, 64
6, 243353, Note_on_c, 4, 82, 89
6, 243433, Note_off_c, 4, 82, 64
6, 243592, Note_on_c, 4, 83, 85
6, 243703, Note_off_c, 4, 83, 64
6, 243821, Note_on_c, 4, 71, 64
6, 243924, Note_off_c, 4, 71, 64
6, 243929, Note_on_c, 4, 73, 56
6, 244035, Note_off_c, 4, 73, 64
6, 244060, Note_on_c, 4, 74, 59
6, 244177, Note_off_c, 4, 74, 64
6, 244177, Note_on_c, 4, 76, 76
6, 244265, Note_off_c, 4, 76, 64
6, 244303, Note_on_c, 4, 78, 80
6, 244418, Note_off_c, 4, 78, 64
6, 244549, Note_on_c, 4, 79, 80
6, 244629, Note_off_c, 4, 79, 64
6, 244785, Note_on_c, 4, 78, 66
6, 245170, Note_off_c, 4, 78, 64
6, 245277, Note_on_c, 4, 76, 70
6, 245412, Note_off_c, 4, 76, 64
6, 245510, Note_on_c, 4, 78, 89
6, 245614, Note_on_c, 4, 76, 64
6, 245616, Note_off_c, 4, 78, 64
6, 245718, Note_off_c, 4, 76, 64
6, 245735, Note_on_c, 4, 74, 68
6, 245846, Note_on_c, 4, 76, 66
6, 245861, Note_off_c, 4, 74, 64
6, 245950, Note_off_c, 4, 76, 64
6, 245977, Note_on_c, 4, 78, 60
6, 246083, Note_off_c, 4, 78, 64
6, 246209, Note_on_c, 4, 71, 64
6, 246308, Note_off_c, 4, 71, 64
6, 246466, Note_on_c, 4, 76, 80
6, 246550, Note_off_c, 4, 76, 64
6, 246703, Note_on_c, 4, 74, 74
6, 247096, Note_off_c, 4, 74, 64
6, 247200, Note_on_c, 4, 73, 63
6, 247371, Note_off_c, 4, 73, 64
6, 247440, Note_on_c, 4, 74, 76
6, 247555, Note_on_c, 4, 76, 66
6, 247570, Note_off_c, 4, 74, 64
6, 247666, Note_on_c, 4, 74, 64
6, 247673, Note_off_c, 4, 76, 64
6, 247783, Note_off_c, 4, 74, 64
6, 247790, Note_on_c, 4, 73, 52
6, 247898, Note_off_c, 4, 73, 64
6, 247909, Note_on_c, 4, 71, 63
6, 248017, Note_off_c, 4, 71, 64
6, 248017, Note_on_c, 4, 73, 54
6, 248128, Note_off_c, 4, 73, 64
6, 248139, Note_on_c, 4, 74, 68
6, 248257, Note_on_c, 4, 76, 63
6, 248265, Note_off_c, 4, 74, 64
6, 248332, Note_off_c, 4, 76, 64
6, 248380, Note_on_c, 4, 78, 70
6, 248496, Note_on_c, 4, 79, 60
6, 248505, Note_off_c, 4, 78, 64
6, 248611, Note_on_c, 4, 78, 49
6, 248620, Note_off_c, 4, 79, 64
6, 248717, Note_on_c, 4, 76, 58
6, 248730, Note_off_c, 4, 78, 64
6, 248837, Note_off_c, 4, 76, 64
6, 248848, Note_on_c, 4, 75, 58
6, 248967, Note_on_c, 4, 76, 66
6, 248983, Note_off_c, 4, 75, 64
6, 249082, Note_off_c, 4, 76, 64
6, 249093, Note_on_c, 4, 78, 59
6, 249199, Note_on_c, 4, 75, 52
6, 249202, Note_off_c, 4, 78, 64
6, 249279, Note_off_c, 4, 75, 64
6, 249328, Note_on_c, 4, 76, 62
6, 249443, Note_off_c, 4, 76, 64
6, 249445, Note_on_c, 4, 78, 59
6, 249574, Note_on_c, 4, 76, 63
6, 249598, Note_off_c, 4, 78, 64
6, 249667, Note_off_c, 4, 76, 64
6, 249675, Note_on_c, 4, 74, 62
6, 249802, Note_off_c, 4, 74, 64
6, 249802, Note_on_c, 4, 73, 57
6, 249910, Note_off_c, 4, 73, 64
6, 249917, Note_on_c, 4, 74, 64
6, 250039, Note_off_c, 4, 74, 64
6, 250043, Note_on_c, 4, 76, 61
6, 250158, Note_on_c, 4, 78, 62
6, 250174, Note_off_c, 4, 76, 64
6, 250258, Note_off_c, 4, 78, 64
6, 250289, Note_on_c, 4, 79, 87
6, 250406, Note_on_c, 4, 81, 59
6, 250424, Note_off_c, 4, 79, 64
6, 250534, Note_off_c, 4, 81, 64
6, 250541, Note_on_c, 4, 79, 57
6, 250649, Note_on_c, 4, 78, 52
6, 250656, Note_off_c, 4, 79, 64
6, 250751, Note_off_c, 4, 78, 64
6, 250773, Note_on_c, 4, 76, 64
6, 250886, Note_on_c, 4, 78, 63
6, 250911, Note_off_c, 4, 76, 64
6, 250999, Note_off_c, 4, 78, 64
6, 251006, Note_on_c, 4, 79, 59
6, 251123, Note_off_c, 4, 79, 64
6, 251128, Note_on_c, 4, 76, 62
6, 251229, Note_off_c, 4, 76, 64
6, 251260, Note_on_c, 4, 78, 80
6, 251375, Note_on_c, 4, 79, 60
6, 251386, Note_off_c, 4, 78, 64
6, 251488, Note_off_c, 4, 79, 64
6, 251495, Note_on_c, 4, 78, 51
6, 251617, Note_on_c, 4, 76, 62
6, 251623, Note_off_c, 4, 78, 64
6, 251734, Note_off_c, 4, 76, 64
6, 251745, Note_on_c, 4, 74, 68
6, 251865, Note_on_c, 4, 76, 60
6, 251880, Note_off_c, 4, 74, 64
6, 251983, Note_on_c, 4, 78, 57
6, 251995, Note_off_c, 4, 76, 64
6, 252084, Note_off_c, 4, 78, 64
6, 252088, Note_on_c, 4, 79, 61
6, 252186, Note_off_c, 4, 79, 64
6, 252201, Note_on_c, 4, 81, 70
6, 252330, Note_on_c, 4, 83, 66
6, 252336, Note_off_c, 4, 81, 64
6, 252442, Note_off_c, 4, 83, 64
6, 252449, Note_on_c, 4, 81, 62
6, 252575, Note_off_c, 4, 81, 64
6, 252575, Note_on_c, 4, 79, 63
6, 252679, Note_off_c, 4, 79, 64
6, 252695, Note_on_c, 4, 78, 62
6, 252796, Note_on_c, 4, 79, 63
6, 252816, Note_off_c, 4, 78, 64
6, 252916, Note_off_c, 4, 79, 64
6, 252941, Note_on_c, 4, 81, 61
6, 253053, Note_on_c, 4, 78, 52
6, 253064, Note_off_c, 4, 81, 64
6, 253138, Note_off_c, 4, 78, 64
6, 253175, Note_on_c, 4, 79, 87
6, 253301, Note_on_c, 4, 81, 66
6, 253319, Note_off_c, 4, 79, 64
6, 253421, Note_on_c, 4, 79, 66
6, 253447, Note_off_c, 4, 81, 64
6, 253538, Note_on_c, 4, 78, 57
6, 253552, Note_off_c, 4, 79, 64
6, 253664, Note_on_c, 4, 76, 80
6, 253669, Note_off_c, 4, 78, 64
6, 253766, Note_on_c, 4, 74, 60
6, 253777, Note_off_c, 4, 76, 64
6, 253887, Note_on_c, 4, 73, 53
6, 253917, Note_off_c, 4, 74, 64
6, 254010, Note_on_c, 4, 71, 76
6, 254016, Note_off_c, 4, 73, 64
6, 254063, Note_off_c, 4, 71, 64
6, 254131, Note_on_c, 4, 78, 64
6, 254395, Note_off_c, 4, 78, 64
6, 254490, Note_on_c, 4, 79, 74
6, 254550, Note_off_c, 4, 79, 64
6, 254612, Note_on_c, 4, 74, 82
6, 254678, Note_off_c, 4, 74, 64
6, 254678, Note_on_c, 4, 73, 51
6, 254729, Note_on_c, 4, 74, 64
6, 254749, Note_off_c, 4, 73, 64
6, 254780, Note_on_c, 4, 73, 53
6, 254795, Note_off_c, 4, 74, 64
6, 254900, Note_off_c, 4, 73, 64
6, 254953, Note_on_c, 4, 71, 66
6, 255032, Note_off_c, 4, 71, 64
6, 255097, Note_on_c, 4, 71, 87
6, 255189, Note_off_c, 4, 71, 64
6, 255220, Note_on_c, 4, 73, 43
6, 255313, Note_off_c, 4, 73, 64
6, 255336, Note_on_c, 4, 74, 60
6, 255429, Note_off_c, 4, 74, 64
6, 255460, Note_on_c, 4, 76, 61
6, 255546, Note_off_c, 4, 76, 64
6, 255575, Note_on_c, 4, 78, 56
6, 255665, Note_off_c, 4, 78, 64
6, 255701, Note_on_c, 4, 79, 63
6, 255783, Note_off_c, 4, 79, 64
6, 255818, Note_on_c, 4, 81, 64
6, 255911, Note_off_c, 4, 81, 64
6, 255919, Note_on_c, 4, 78, 55
6, 255997, Note_off_c, 4, 78, 64
6, 256050, Note_on_c, 4, 79, 80
6, 256161, Note_on_c, 4, 74, 55
6, 256166, Note_off_c, 4, 79, 64
6, 256287, Note_off_c, 4, 74, 64
6, 256307, Note_on_c, 4, 73, 42
6, 256413, Note_off_c, 4, 73, 64
6, 256416, Note_on_c, 4, 71, 59
6, 256518, Note_off_c, 4, 71, 64
6, 256533, Note_on_c, 4, 73, 54
6, 256626, Note_off_c, 4, 73, 64
6, 256650, Note_on_c, 4, 79, 72
6, 256761, Note_off_c, 4, 79, 64
6, 256765, Note_on_c, 4, 78, 52
6, 256889, Note_on_c, 4, 76, 60
6, 256894, Note_off_c, 4, 78, 64
6, 256956, Note_off_c, 4, 76, 64
6, 257009, Note_on_c, 4, 78, 85
6, 257118, Note_on_c, 4, 76, 64
6, 257133, Note_off_c, 4, 78, 64
6, 257230, Note_off_c, 4, 76, 64
6, 257253, Note_on_c, 4, 74, 59
6, 257352, Note_off_c, 4, 74, 64
6, 257377, Note_on_c, 4, 76, 54
6, 257498, Note_off_c, 4, 76, 64
6, 257500, Note_on_c, 4, 78, 60
6, 257596, Note_off_c, 4, 78, 64
6, 257620, Note_on_c, 4, 83, 57
6, 257726, Note_on_c, 4, 82, 55
6, 257735, Note_off_c, 4, 83, 64
6, 257846, Note_off_c, 4, 82, 64
6, 257848, Note_on_c, 4, 83, 52
6, 257946, Note_off_c, 4, 83, 64
6, 257968, Note_on_c, 4, 85, 64
6, 258080, Note_off_c, 4, 85, 64
6, 258087, Note_on_c, 4, 83, 64
6, 258200, Note_on_c, 4, 82, 64
6, 258215, Note_off_c, 4, 83, 64
6, 258324, Note_on_c, 4, 80, 58
6, 258325, Note_off_c, 4, 82, 64
6, 258443, Note_on_c, 4, 78, 52
6, 258444, Note_off_c, 4, 80, 64
6, 258556, Note_on_c, 4, 76, 64
6, 258559, Note_off_c, 4, 78, 64
6, 258667, Note_off_c, 4, 76, 64
6, 258672, Note_on_c, 4, 74, 59
6, 258793, Note_off_c, 4, 74, 64
6, 258811, Note_on_c, 4, 73, 46
6, 258891, Note_off_c, 4, 73, 64
6, 258917, Note_on_c, 4, 74, 76
6, 259045, Note_on_c, 4, 76, 64
6, 259050, Note_off_c, 4, 74, 64
6, 259152, Note_off_c, 4, 76, 64
6, 259165, Note_on_c, 4, 74, 59
6, 259278, Note_off_c, 4, 74, 64
6, 259289, Note_on_c, 4, 73, 55
6, 259382, Note_off_c, 4, 73, 64
6, 259411, Note_on_c, 4, 71, 66
6, 259517, Note_on_c, 4, 73, 50
6, 259548, Note_off_c, 4, 71, 64
6, 259639, Note_off_c, 4, 73, 64
6, 259661, Note_on_c, 4, 74, 58
6, 259750, Note_off_c, 4, 74, 64
6, 259772, Note_on_c, 4, 71, 57
6, 259873, Note_off_c, 4, 71, 64
6, 259909, Note_on_c, 4, 73, 59
6, 260026, Note_on_c, 4, 78, 59
6, 260029, Note_off_c, 4, 73, 64
6, 260117, Note_off_c, 4, 78, 64
6, 260139, Note_on_c, 4, 76, 60
6, 260254, Note_off_c, 4, 76, 64
6, 260256, Note_on_c, 4, 78, 57
6, 260343, Note_off_c, 4, 78, 64
6, 260387, Note_on_c, 4, 75, 64
6, 260491, Note_off_c, 4, 75, 64
6, 260500, Note_on_c, 4, 78, 60
6, 260588, Note_off_c, 4, 78, 64
6, 260620, Note_on_c, 4, 74, 54
6, 260735, Note_off_c, 4, 74, 64
6, 260743, Note_on_c, 4, 78, 57
6, 260834, Note_off_c, 4, 78, 64
6, 260881, Note_on_c, 4, 73, 57
6, 260982, Note_off_c, 4, 73, 64
6, 260991, Note_on_c, 4, 78, 55
6, 261087, Note_off_c, 4, 78, 64
6, 261118, Note_on_c, 4, 76, 62
6, 261230, Note_off_c, 4, 76, 64
6, 261230, Note_on_c, 4, 78, 53
6, 261319, Note_off_c, 4, 78, 64
6, 261350, Note_on_c, 4, 74, 62
6, 261449, Note_off_c, 4, 74, 64
6, 261462, Note_on_c, 4, 78, 54
6, 261565, Note_off_c, 4, 78, 64
6, 261584, Note_on_c, 4, 73, 57
6, 261693, Note_off_c, 4, 73, 64
6, 261697, Note_on_c, 4, 78, 52
6, 261794, Note_off_c, 4, 78, 64
6, 261819, Note_on_c, 4, 71, 61
6, 261919, Note_off_c, 4, 71, 64
6, 261930, Note_on_c, 4, 78, 56
6, 262034, Note_off_c, 4, 78, 64
6, 262061, Note_on_c, 4, 74, 60
6, 262162, Note_off_c, 4, 74, 64
6, 262182, Note_on_c, 4, 78, 57
6, 262295, Note_off_c, 4, 78, 64
6, 262306, Note_on_c, 4, 73, 55
6, 262408, Note_off_c, 4, 73, 64
6, 262423, Note_on_c, 4, 78, 56
6, 262516, Note_off_c, 4, 78, 64
6, 262534, Note_on_c, 4, 71, 64
6, 262637, Note_on_c, 4, 78, 58
6, 262676, Note_off_c, 4, 71, 64
6, 262749, Note_off_c, 4, 78, 64
6, 262776, Note_on_c, 4, 70, 78
6, 262886, Note_off_c, 4, 70, 64
6, 262890, Note_on_c, 4, 71, 72
6, 263014, Note_on_c, 4, 70, 43
6, 263015, Note_off_c, 4, 71, 64
6, 263118, Note_off_c, 4, 70, 64
6, 263119, Note_on_c, 4, 68, 48
6, 263240, Note_off_c, 4, 68, 64
6, 263262, Note_on_c, 4, 66, 59
6, 263468, Note_off_c, 4, 66, 64
6, 293133, Note_on_c, 4, 74, 76
6, 293239, Note_off_c, 4, 74, 64
6, 293250, Note_on_c, 4, 73, 52
6, 293361, Note_on_c, 4, 71, 60
6, 293376, Note_off_c, 4, 73, 64
6, 293465, Note_off_c, 4, 71, 64
6, 293505, Note_on_c, 4, 69, 72
6, 293629, Note_on_c, 4, 74, 64
6, 293631, Note_off_c, 4, 69, 64
6, 293728, Note_off_c, 4, 74, 64
6, 293753, Note_on_c, 4, 73, 31
6, 293856, Note_on_c, 4, 74, 61
6, 293872, Note_off_c, 4, 73, 64
6, 293967, Note_off_c, 4, 74, 64
6, 293991, Note_on_c, 4, 78, 63
6, 294089, Note_off_c, 4, 78, 64
6, 294093, Note_on_c, 4, 74, 64
6, 294217, Note_off_c, 4, 74, 64
6, 294220, Note_on_c, 4, 73, 46
6, 294321, Note_on_c, 4, 74, 70
6, 294337, Note_off_c, 4, 73, 64
6, 294406, Note_off_c, 4, 74, 64
6, 294465, Note_on_c, 4, 76, 76
6, 294563, Note_on_c, 4, 74, 70
6, 294580, Note_off_c, 4, 76, 64
6, 294695, Note_on_c, 4, 73, 51
6, 294704, Note_off_c, 4, 74, 64
6, 294806, Note_on_c, 4, 71, 57
6, 294820, Note_off_c, 4, 73, 64
6, 294937, Note_off_c, 4, 71, 64
6, 294937, Note_on_c, 4, 69, 63
6, 295041, Note_off_c, 4, 69, 64
6, 295054, Note_on_c, 4, 74, 70
6, 295175, Note_on_c, 4, 73, 51
6, 295193, Note_off_c, 4, 74, 64
6, 295298, Note_on_c, 4, 71, 53
6, 295300, Note_off_c, 4, 73, 64
6, 295399, Note_off_c, 4, 71, 64
6, 295428, Note_on_c, 4, 69, 64
6, 295530, Note_off_c, 4, 69, 64
6, 295540, Note_on_c, 4, 76, 62
6, 295665, Note_off_c, 4, 76, 64
6, 295669, Note_on_c, 4, 74, 49
6, 295769, Note_on_c, 4, 76, 60
6, 295773, Note_off_c, 4, 74, 64
6, 295860, Note_off_c, 4, 76, 64
6, 295889, Note_on_c, 4, 79, 72
6, 295990, Note_off_c, 4, 79, 64
6, 295997, Note_on_c, 4, 76, 52
6, 296105, Note_off_c, 4, 76, 64
6, 296128, Note_on_c, 4, 74, 64
6, 296232, Note_off_c, 4, 74, 64
6, 296240, Note_on_c, 4, 76, 62
6, 296320, Note_off_c, 4, 76, 64
6, 296369, Note_on_c, 4, 78, 66
6, 296478, Note_on_c, 4, 79, 58
6, 296479, Note_off_c, 4, 78, 64
6, 296599, Note_on_c, 4, 78, 50
6, 296604, Note_off_c, 4, 79, 64
6, 296712, Note_on_c, 4, 76, 56
6, 296716, Note_off_c, 4, 78, 64
6, 296841, Note_off_c, 4, 76, 64
6, 296849, Note_on_c, 4, 74, 59
6, 296914, Note_off_c, 4, 74, 64
6, 296967, Note_on_c, 4, 79, 72
6, 297093, Note_on_c, 4, 78, 54
6, 297122, Note_off_c, 4, 79, 64
6, 297208, Note_on_c, 4, 76, 60
6, 297219, Note_off_c, 4, 78, 64
6, 297321, Note_off_c, 4, 76, 64
6, 297340, Note_on_c, 4, 74, 64
6, 297436, Note_off_c, 4, 74, 64
6, 297451, Note_on_c, 4, 81, 66
6, 297566, Note_on_c, 4, 79, 53
6, 297571, Note_off_c, 4, 81, 64
6, 297677, Note_off_c, 4, 79, 64
6, 297679, Note_on_c, 4, 81, 60
6, 297774, Note_off_c, 4, 81, 64
6, 297810, Note_on_c, 4, 84, 66
6, 297905, Note_off_c, 4, 84, 64
6, 297916, Note_on_c, 4, 81, 53
6, 298047, Note_on_c, 4, 79, 53
6, 298056, Note_off_c, 4, 81, 64
6, 298164, Note_on_c, 4, 81, 58
6, 298169, Note_off_c, 4, 79, 64
6, 298237, Note_off_c, 4, 81, 64
6, 298295, Note_on_c, 4, 83, 78
6, 298399, Note_off_c, 4, 83, 64
6, 298405, Note_on_c, 4, 84, 59
6, 298529, Note_on_c, 4, 83, 53
6, 298536, Note_off_c, 4, 84, 64
6, 298634, Note_off_c, 4, 83, 64
6, 298636, Note_on_c, 4, 81, 60
6, 298722, Note_off_c, 4, 81, 64
6, 298764, Note_on_c, 4, 83, 72
6, 298881, Note_on_c, 4, 79, 60
6, 298893, Note_off_c, 4, 83, 64
6, 299005, Note_on_c, 4, 78, 53
6, 299017, Note_off_c, 4, 79, 64
6, 299121, Note_off_c, 4, 78, 64
6, 299123, Note_on_c, 4, 76, 52
6, 299211, Note_off_c, 4, 76, 64
6, 299251, Note_on_c, 4, 81, 80
6, 299360, Note_on_c, 4, 79, 66
6, 299374, Note_off_c, 4, 81, 64
6, 299488, Note_off_c, 4, 79, 64
6, 299492, Note_on_c, 4, 78, 54
6, 299594, Note_off_c, 4, 78, 64
6, 299616, Note_on_c, 4, 81, 63
6, 299701, Note_off_c, 4, 81, 64
6, 299743, Note_on_c, 4, 79, 68
6, 299862, Note_on_c, 4, 78, 53
6, 299871, Note_off_c, 4, 79, 64
6, 299979, Note_on_c, 4, 76, 59
6, 299984, Note_off_c, 4, 78, 64
6, 300088, Note_off_c, 4, 76, 64
6, 300095, Note_on_c, 4, 79, 68
6, 300170, Note_off_c, 4, 79, 64
6, 300210, Note_on_c, 4, 78, 85
6, 300322, Note_on_c, 4, 76, 58
6, 300327, Note_off_c, 4, 78, 64
6, 300437, Note_on_c, 4, 75, 47
6, 300449, Note_off_c, 4, 76, 64
6, 300535, Note_off_c, 4, 75, 64
6, 300544, Note_on_c, 4, 73, 39
6, 300668, Note_off_c, 4, 73, 64
6, 300685, Note_on_c, 4, 71, 55
6, 300774, Note_off_c, 4, 71, 64
6, 300944, Note_on_c, 4, 83, 72
6, 301022, Note_off_c, 4, 83, 64
6, 301199, Note_on_c, 4, 84, 85
6, 301270, Note_off_c, 4, 84, 64
6, 301436, Note_on_c, 4, 83, 78
6, 301814, Note_off_c, 4, 83, 64
6, 301918, Note_on_c, 4, 81, 72
6, 302051, Note_off_c, 4, 81, 64
6, 302162, Note_on_c, 4, 83, 82
6, 302264, Note_on_c, 4, 81, 66
6, 302281, Note_off_c, 4, 83, 64
6, 302363, Note_off_c, 4, 81, 64
6, 302379, Note_on_c, 4, 79, 59
6, 302487, Note_on_c, 4, 81, 60
6, 302509, Note_off_c, 4, 79, 64
6, 302580, Note_off_c, 4, 81, 64
6, 302627, Note_on_c, 4, 83, 72
6, 302720, Note_off_c, 4, 83, 64
6, 302853, Note_on_c, 4, 76, 70
6, 302946, Note_off_c, 4, 76, 64
6, 303109, Note_on_c, 4, 81, 80
6, 303191, Note_off_c, 4, 81, 64
6, 303349, Note_on_c, 4, 79, 74
6, 303694, Note_off_c, 4, 79, 64
6, 303835, Note_on_c, 4, 78, 59
6, 303961, Note_off_c, 4, 78, 64
6, 304079, Note_on_c, 4, 79, 89
6, 304185, Note_on_c, 4, 81, 60
6, 304205, Note_off_c, 4, 79, 64
6, 304296, Note_on_c, 4, 79, 57
6, 304300, Note_off_c, 4, 81, 64
6, 304402, Note_off_c, 4, 79, 64
6, 304404, Note_on_c, 4, 78, 52
6, 304517, Note_off_c, 4, 78, 64
6, 304531, Note_on_c, 4, 76, 53
6, 304630, Note_on_c, 4, 78, 55
6, 304635, Note_off_c, 4, 76, 64
6, 304741, Note_off_c, 4, 78, 64
6, 304758, Note_on_c, 4, 79, 60
6, 304883, Note_off_c, 4, 79, 64
6, 304883, Note_on_c, 4, 81, 63
6, 304982, Note_off_c, 4, 81, 64
6, 305011, Note_on_c, 4, 83, 74
6, 305124, Note_on_c, 4, 85, 62
6, 305132, Note_off_c, 4, 83, 64
6, 305252, Note_on_c, 4, 86, 66
6, 305288, Note_off_c, 4, 85, 64
6, 305358, Note_off_c, 4, 86, 64
6, 305369, Note_on_c, 4, 83, 60
6, 305447, Note_off_c, 4, 83, 64
6, 305495, Note_on_c, 4, 85, 82
6, 305609, Note_on_c, 4, 86, 76
6, 305619, Note_off_c, 4, 85, 64
6, 305713, Note_off_c, 4, 86, 64
6, 305741, Note_on_c, 4, 88, 70
6, 305830, Note_off_c, 4, 88, 64
6, 305843, Note_on_c, 4, 85, 58
6, 305934, Note_off_c, 4, 85, 64
6, 305980, Note_on_c, 4, 86, 76
6, 306516, Note_off_c, 4, 86, 64
6, 306564, Note_on_c, 4, 85, 62
6, 306675, Note_off_c, 4, 85, 64
6, 306684, Note_on_c, 4, 86, 74
6, 306793, Note_off_c, 4, 86, 64
6, 306804, Note_on_c, 4, 88, 68
6, 306879, Note_off_c, 4, 88, 64
6, 306941, Note_on_c, 4, 86, 89
6, 307061, Note_on_c, 4, 85, 57
6, 307070, Note_off_c, 4, 86, 64
6, 307167, Note_off_c, 4, 85, 64
6, 307182, Note_on_c, 4, 83, 57
6, 307262, Note_off_c, 4, 83, 64
6, 307293, Note_on_c, 4, 86, 68
6, 307377, Note_off_c, 4, 86, 64
6, 307412, Note_on_c, 4, 85, 89
6, 307516, Note_on_c, 4, 83, 62
6, 307519, Note_off_c, 4, 85, 64
6, 307627, Note_off_c, 4, 83, 64
6, 307641, Note_on_c, 4, 82, 53
6, 307722, Note_off_c, 4, 82, 64
6, 307745, Note_on_c, 4, 85, 64
6, 307837, Note_off_c, 4, 85, 64
6, 307878, Note_on_c, 4, 83, 80
6, 307962, Note_off_c, 4, 83, 64
6, 308125, Note_on_c, 4, 78, 60
6, 308203, Note_off_c, 4, 78, 64
6, 308387, Note_on_c, 4, 83, 74
6, 308466, Note_off_c, 4, 83, 64
6, 308619, Note_on_c, 4, 71, 64
6, 308714, Note_off_c, 4, 71, 64
6, 308878, Note_on_c, 4, 81, 85
6, 308962, Note_off_c, 4, 81, 64
6, 309104, Note_on_c, 4, 75, 57
6, 309186, Note_off_c, 4, 75, 64
6, 309360, Note_on_c, 4, 81, 80
6, 309442, Note_off_c, 4, 81, 64
6, 309578, Note_on_c, 4, 71, 68
6, 309650, Note_off_c, 4, 71, 64
6, 309832, Note_on_c, 4, 79, 80
6, 309938, Note_on_c, 4, 81, 76
6, 309945, Note_off_c, 4, 79, 64
6, 310033, Note_off_c, 4, 81, 64
6, 310064, Note_on_c, 4, 83, 74
6, 310171, Note_off_c, 4, 83, 64
6, 310172, Note_on_c, 4, 79, 60
6, 310257, Note_off_c, 4, 79, 64
6, 310303, Note_on_c, 4, 81, 76
6, 310410, Note_on_c, 4, 83, 68
6, 310443, Note_off_c, 4, 81, 64
6, 310520, Note_off_c, 4, 83, 64
6, 310527, Note_on_c, 4, 84, 64
6, 310620, Note_off_c, 4, 84, 64
6, 310642, Note_on_c, 4, 81, 72
6, 310708, Note_off_c, 4, 81, 64
6, 310780, Note_on_c, 4, 75, 64
6, 310872, Note_off_c, 4, 75, 64
6, 311019, Note_on_c, 4, 71, 72
6, 311100, Note_off_c, 4, 71, 64
6, 311278, Note_on_c, 4, 76, 80
6, 311829, Note_off_c, 4, 76, 64
6, 311862, Note_on_c, 4, 74, 78
6, 311953, Note_off_c, 4, 74, 64
6, 311981, Note_on_c, 4, 72, 59
6, 312068, Note_off_c, 4, 72, 64
6, 312088, Note_on_c, 4, 71, 59
6, 312172, Note_off_c, 4, 71, 64
6, 312212, Note_on_c, 4, 69, 70
6, 312320, Note_on_c, 4, 71, 68
6, 312325, Note_off_c, 4, 69, 64
6, 312398, Note_off_c, 4, 71, 64
6, 312448, Note_on_c, 4, 72, 64
6, 312860, Note_off_c, 4, 72, 64
6, 312946, Note_on_c, 4, 71, 80
6, 313046, Note_on_c, 4, 69, 64
6, 313059, Note_off_c, 4, 71, 64
6, 313163, Note_off_c, 4, 69, 64
6, 313174, Note_on_c, 4, 67, 52
6, 313281, Note_on_c, 4, 66, 56
6, 313287, Note_off_c, 4, 67, 64
6, 313398, Note_off_c, 4, 66, 64
6, 313412, Note_on_c, 4, 64, 64
6, 313520, Note_on_c, 4, 63, 57
6, 313522, Note_off_c, 4, 64, 64
6, 313615, Note_off_c, 4, 63, 64
6, 313655, Note_on_c, 4, 64, 58
6, 313763, Note_off_c, 4, 64, 64
6, 313916, Note_on_c, 4, 71, 72
6, 314005, Note_off_c, 4, 71, 64
6, 314155, Note_on_c, 4, 70, 60
6, 314266, Note_on_c, 4, 71, 66
6, 314269, Note_off_c, 4, 70, 64
6, 314357, Note_off_c, 4, 71, 64
6, 314394, Note_on_c, 4, 73, 76
6, 314770, Note_off_c, 4, 73, 64
6, 314872, Note_on_c, 4, 66, 66
6, 314948, Note_off_c, 4, 66, 64
6, 315123, Note_on_c, 4, 71, 74
6, 315641, Note_off_c, 4, 71, 64
6, 315844, Note_on_c, 4, 83, 80
6, 315926, Note_off_c, 4, 83, 64
6, 316072, Note_on_c, 4, 82, 61
6, 316170, Note_on_c, 4, 83, 61
6, 316183, Note_off_c, 4, 82, 64
6, 316280, Note_off_c, 4, 83, 64
6, 316309, Note_on_c, 4, 85, 66
6, 316404, Note_off_c, 4, 85, 64
6, 316552, Note_on_c, 4, 78, 63
6, 316651, Note_off_c, 4, 78, 64
6, 316780, Note_on_c, 4, 71, 60
6, 316895, Note_off_c, 4, 71, 64
6, 316895, Note_on_c, 4, 73, 57
6, 317022, Note_off_c, 4, 73, 64
6, 317026, Note_on_c, 4, 74, 63
6, 317141, Note_on_c, 4, 76, 66
6, 317146, Note_off_c, 4, 74, 64
6, 317241, Note_off_c, 4, 76, 64
6, 317245, Note_on_c, 4, 78, 56
6, 317349, Note_off_c, 4, 78, 64
6, 317358, Note_on_c, 4, 74, 70
6, 317438, Note_off_c, 4, 74, 64
6, 317480, Note_on_c, 4, 79, 78
6, 317586, Note_off_c, 4, 79, 64
6, 317597, Note_on_c, 4, 74, 63
6, 317715, Note_off_c, 4, 74, 64
6, 317734, Note_on_c, 4, 73, 49
6, 317839, Note_off_c, 4, 73, 64
6, 317845, Note_on_c, 4, 71, 56
6, 317972, Note_on_c, 4, 73, 52
6, 317993, Note_off_c, 4, 71, 64
6, 318067, Note_off_c, 4, 73, 64
6, 318098, Note_on_c, 4, 79, 70
6, 318204, Note_off_c, 4, 79, 64
6, 318221, Note_on_c, 4, 78, 47
6, 318326, Note_off_c, 4, 78, 64
6, 318326, Note_on_c, 4, 76, 57
6, 318408, Note_off_c, 4, 76, 64
6, 318465, Note_on_c, 4, 78, 78
6, 318578, Note_on_c, 4, 76, 57
6, 318602, Note_off_c, 4, 78, 64
6, 318702, Note_off_c, 4, 76, 64
6, 318709, Note_on_c, 4, 74, 57
6, 318821, Note_on_c, 4, 76, 60
6, 318830, Note_off_c, 4, 74, 64
6, 318948, Note_on_c, 4, 78, 60
6, 318957, Note_off_c, 4, 76, 64
6, 319052, Note_off_c, 4, 78, 64
6, 319069, Note_on_c, 4, 83, 62
6, 319189, Note_on_c, 4, 82, 54
6, 319195, Note_off_c, 4, 83, 64
6, 319286, Note_off_c, 4, 82, 64
6, 319297, Note_on_c, 4, 83, 68
6, 319421, Note_on_c, 4, 85, 63
6, 319426, Note_off_c, 4, 83, 64
6, 319540, Note_off_c, 4, 85, 64
6, 319552, Note_on_c, 4, 83, 60
6, 319651, Note_on_c, 4, 82, 57
6, 319657, Note_off_c, 4, 83, 64
6, 319762, Note_off_c, 4, 82, 64
6, 319773, Note_on_c, 4, 80, 58
6, 319877, Note_off_c, 4, 80, 64
6, 319897, Note_on_c, 4, 78, 52
6, 319999, Note_off_c, 4, 78, 64
6, 320004, Note_on_c, 4, 76, 68
6, 320103, Note_off_c, 4, 76, 64
6, 320130, Note_on_c, 4, 74, 47
6, 320240, Note_off_c, 4, 74, 64
6, 320247, Note_on_c, 4, 73, 44
6, 320340, Note_off_c, 4, 73, 64
6, 320369, Note_on_c, 4, 74, 70
6, 320490, Note_off_c, 4, 74, 64
6, 320493, Note_on_c, 4, 76, 53
6, 320608, Note_off_c, 4, 76, 64
6, 320619, Note_on_c, 4, 74, 54
6, 320741, Note_off_c, 4, 74, 64
6, 320749, Note_on_c, 4, 73, 43
6, 320834, Note_off_c, 4, 73, 64
6, 320873, Note_on_c, 4, 71, 72
6, 320978, Note_on_c, 4, 73, 52
6, 320993, Note_off_c, 4, 71, 64
6, 321101, Note_off_c, 4, 73, 64
6, 321101, Note_on_c, 4, 74, 57
6, 321199, Note_off_c, 4, 74, 64
6, 321214, Note_on_c, 4, 71, 64
6, 321314, Note_off_c, 4, 71, 64
6, 321347, Note_on_c, 4, 73, 59
6, 321464, Note_off_c, 4, 73, 64
6, 321465, Note_on_c, 4, 78, 56
6, 321558, Note_off_c, 4, 78, 64
6, 321577, Note_on_c, 4, 76, 64
6, 321679, Note_off_c, 4, 76, 64
6, 321697, Note_on_c, 4, 78, 56
6, 321788, Note_off_c, 4, 78, 64
6, 321821, Note_on_c, 4, 75, 60
6, 321931, Note_off_c, 4, 75, 64
6, 321934, Note_on_c, 4, 78, 55
6, 322018, Note_off_c, 4, 78, 64
6, 322053, Note_on_c, 4, 74, 56
6, 322157, Note_off_c, 4, 74, 64
6, 322168, Note_on_c, 4, 78, 53
6, 322273, Note_off_c, 4, 78, 64
6, 322308, Note_on_c, 4, 73, 78
6, 322418, Note_off_c, 4, 73, 64
6, 322425, Note_on_c, 4, 78, 56
6, 322518, Note_off_c, 4, 78, 64
6, 322545, Note_on_c, 4, 76, 62
6, 322658, Note_on_c, 4, 78, 55
6, 322664, Note_off_c, 4, 76, 64
6, 322750, Note_off_c, 4, 78, 64
6, 322784, Note_on_c, 4, 74, 60
6, 322877, Note_off_c, 4, 74, 64
6, 322908, Note_on_c, 4, 78, 53
6, 323006, Note_off_c, 4, 78, 64
6, 323018, Note_on_c, 4, 73, 56
6, 323131, Note_off_c, 4, 73, 64
6, 323136, Note_on_c, 4, 78, 57
6, 323231, Note_off_c, 4, 78, 64
6, 323258, Note_on_c, 4, 71, 64
6, 323370, Note_on_c, 4, 78, 57
6, 323375, Note_off_c, 4, 71, 64
6, 323461, Note_off_c, 4, 78, 64
6, 323492, Note_on_c, 4, 74, 64
6, 323585, Note_off_c, 4, 74, 64
6, 323598, Note_on_c, 4, 78, 53
6, 323706, Note_off_c, 4, 78, 64
6, 323729, Note_on_c, 4, 73, 57
6, 323829, Note_off_c, 4, 73, 64
6, 323849, Note_on_c, 4, 78, 58
6, 323946, Note_off_c, 4, 78, 64
6, 323973, Note_on_c, 4, 71, 57
6, 324072, Note_on_c, 4, 78, 60
6, 324099, Note_off_c, 4, 71, 64
6, 324170, Note_off_c, 4, 78, 64
6, 324209, Note_on_c, 4, 70, 82
6, 324309, Note_off_c, 4, 70, 64
6, 324313, Note_on_c, 4, 71, 68
6, 324440, Note_off_c, 4, 71, 64
6, 324446, Note_on_c, 4, 70, 44
6, 324539, Note_off_c, 4, 70, 64
6, 324543, Note_on_c, 4, 68, 44
6, 324652, Note_off_c, 4, 68, 64
6, 324683, Note_on_c, 4, 66, 53
6, 324911, Note_off_c, 4, 66, 64
6, 330722, Note_on_c, 4, 78, 62
6, 330843, Note_off_c, 4, 78, 64
6, 330958, Note_on_c, 4, 76, 70
6, 331069, Note_off_c, 4, 76, 64
6, 331069, Note_on_c, 4, 81, 70
6, 331187, Note_off_c, 4, 81, 64
6, 331196, Note_on_c, 4, 80, 76
6, 331306, Note_on_c, 4, 81, 66
6, 331313, Note_off_c, 4, 80, 64
6, 331388, Note_off_c, 4, 81, 64
6, 331421, Note_on_c, 4, 79, 80
6, 331528, Note_off_c, 4, 79, 64
6, 331534, Note_on_c, 4, 81, 57
6, 331632, Note_off_c, 4, 81, 64
6, 331652, Note_on_c, 4, 78, 59
6, 331764, Note_off_c, 4, 78, 64
6, 331764, Note_on_c, 4, 81, 64
6, 331871, Note_off_c, 4, 81, 64
6, 331897, Note_on_c, 4, 76, 68
6, 332006, Note_on_c, 4, 81, 62
6, 332015, Note_off_c, 4, 76, 64
6, 332105, Note_off_c, 4, 81, 64
6, 332134, Note_on_c, 4, 79, 66
6, 332248, Note_on_c, 4, 81, 63
6, 332253, Note_off_c, 4, 79, 64
6, 332342, Note_off_c, 4, 81, 64
6, 332377, Note_on_c, 4, 78, 57
6, 332484, Note_off_c, 4, 78, 64
6, 332492, Note_on_c, 4, 81, 61
6, 332579, Note_off_c, 4, 81, 64
6, 332614, Note_on_c, 4, 76, 62
6, 332720, Note_on_c, 4, 81, 58
6, 332738, Note_off_c, 4, 76, 64
6, 332811, Note_off_c, 4, 81, 64
6, 332838, Note_on_c, 4, 74, 66
6, 332944, Note_on_c, 4, 81, 63
6, 332958, Note_off_c, 4, 74, 64
6, 333061, Note_off_c, 4, 81, 64
6, 333077, Note_on_c, 4, 78, 68
6, 333181, Note_on_c, 4, 81, 62
6, 333190, Note_off_c, 4, 78, 64
6, 333285, Note_off_c, 4, 81, 64
6, 333309, Note_on_c, 4, 76, 63
6, 333409, Note_off_c, 4, 76, 64
6, 333418, Note_on_c, 4, 81, 60
6, 333526, Note_off_c, 4, 81, 64
6, 333559, Note_on_c, 4, 74, 76
6, 333668, Note_on_c, 4, 81, 68
6, 333675, Note_off_c, 4, 74, 64
6, 333776, Note_off_c, 4, 81, 64
6, 333805, Note_on_c, 4, 73, 64
6, 333898, Note_off_c, 4, 73, 64
6, 333903, Note_on_c, 4, 74, 66
6, 334036, Note_off_c, 4, 74, 64
6, 334036, Note_on_c, 4, 73, 39
6, 334150, Note_on_c, 4, 71, 63
6, 334152, Note_off_c, 4, 73, 64
6, 334283, Note_off_c, 4, 71, 64
6, 334295, Note_on_c, 4, 69, 56
6, 334412, Note_off_c, 4, 69, 64
6, 363215, Note_on_c, 4, 81, 66
6, 363311, Note_off_c, 4, 81, 64
6, 363331, Note_on_c, 4, 79, 60
6, 363417, Note_off_c, 4, 79, 64
6, 363441, Note_on_c, 4, 78, 57
6, 363521, Note_off_c, 4, 78, 64
6, 363567, Note_on_c, 4, 79, 66
6, 364577, Note_off_c, 4, 79, 64
6, 364637, Note_on_c, 4, 73, 57
6, 364730, Note_off_c, 4, 73, 64
6, 364758, Note_on_c, 4, 76, 66
6, 364865, Note_off_c, 4, 76, 64
6, 364865, Note_on_c, 4, 79, 76
6, 364951, Note_off_c, 4, 79, 64
6, 364997, Note_on_c, 4, 76, 66
6, 365121, Note_off_c, 4, 76, 64
6, 365121, Note_on_c, 4, 73, 52
6, 365210, Note_off_c, 4, 73, 64
6, 365237, Note_on_c, 4, 76, 68
6, 365336, Note_off_c, 4, 76, 64
6, 365350, Note_on_c, 4, 79, 66
6, 365434, Note_off_c, 4, 79, 64
6, 365484, Note_on_c, 4, 78, 82
6, 365597, Note_on_c, 4, 79, 70
6, 365608, Note_off_c, 4, 78, 64
6, 365699, Note_off_c, 4, 79, 64
6, 365723, Note_on_c, 4, 78, 51
6, 365827, Note_off_c, 4, 78, 64
6, 365832, Note_on_c, 4, 76, 63
6, 365929, Note_off_c, 4, 76, 64
6, 365960, Note_on_c, 4, 74, 60
6, 366064, Note_off_c, 4, 74, 64
6, 366065, Note_on_c, 4, 76, 66
6, 366148, Note_off_c, 4, 76, 64
6, 366197, Note_on_c, 4, 78, 57
6, 366531, Note_off_c, 4, 78, 64
6, 366567, Note_on_c, 4, 71, 60
6, 366673, Note_on_c, 4, 74, 63
6, 366680, Note_off_c, 4, 71, 64
6, 366782, Note_on_c, 4, 78, 60
6, 366795, Note_off_c, 4, 74, 64
6, 366852, Note_off_c, 4, 78, 64
6, 366914, Note_on_c, 4, 74, 70
6, 367021, Note_off_c, 4, 74, 64
6, 367025, Note_on_c, 4, 71, 59
6, 367120, Note_off_c, 4, 71, 64
6, 367151, Note_on_c, 4, 74, 64
6, 367240, Note_off_c, 4, 74, 64
6, 367262, Note_on_c, 4, 78, 57
6, 367344, Note_off_c, 4, 78, 64
6, 367391, Note_on_c, 4, 76, 82
6, 367506, Note_on_c, 4, 78, 54
6, 367508, Note_off_c, 4, 76, 64
6, 367630, Note_on_c, 4, 76, 57
6, 367638, Note_off_c, 4, 78, 64
6, 367754, Note_off_c, 4, 76, 64
6, 367758, Note_on_c, 4, 74, 57
6, 367849, Note_off_c, 4, 74, 64
6, 367889, Note_on_c, 4, 73, 64
6, 367993, Note_on_c, 4, 74, 60
6, 368008, Note_off_c, 4, 73, 64
6, 368092, Note_off_c, 4, 74, 64
6, 368128, Note_on_c, 4, 76, 70
6, 368444, Note_off_c, 4, 76, 64
6, 368504, Note_on_c, 4, 70, 64
6, 368604, Note_off_c, 4, 70, 64
6, 368612, Note_on_c, 4, 73, 58
6, 368723, Note_off_c, 4, 73, 64
6, 368728, Note_on_c, 4, 76, 68
6, 368827, Note_off_c, 4, 76, 64
6, 368863, Note_on_c, 4, 73, 62
6, 368962, Note_off_c, 4, 73, 64
6, 368984, Note_on_c, 4, 70, 53
6, 369066, Note_off_c, 4, 70, 64
6, 369088, Note_on_c, 4, 73, 57
6, 369195, Note_off_c, 4, 73, 64
6, 369199, Note_on_c, 4, 76, 66
6, 369277, Note_off_c, 4, 76, 64
6, 369321, Note_on_c, 4, 74, 72
6, 369442, Note_on_c, 4, 76, 62
6, 369456, Note_off_c, 4, 74, 64
6, 369542, Note_off_c, 4, 76, 64
6, 369566, Note_on_c, 4, 74, 60
6, 369684, Note_off_c, 4, 74, 64
6, 369684, Note_on_c, 4, 73, 57
6, 369779, Note_off_c, 4, 73, 64
6, 369803, Note_on_c, 4, 71, 70
6, 369910, Note_on_c, 4, 73, 59
6, 369923, Note_off_c, 4, 71, 64
6, 370011, Note_off_c, 4, 73, 64
6, 370036, Note_on_c, 4, 74, 66
6, 370118, Note_off_c, 4, 74, 64
6, 370152, Note_on_c, 4, 71, 68
6, 370248, Note_off_c, 4, 71, 64
6, 370288, Note_on_c, 4, 79, 82
6, 370372, Note_off_c, 4, 79, 64
6, 370540, Note_on_c, 4, 78, 66
6, 370926, Note_off_c, 4, 78, 64
6, 371030, Note_on_c, 4, 76, 66
6, 371178, Note_off_c, 4, 76, 64
6, 371275, Note_on_c, 4, 78, 70
6, 371377, Note_on_c, 4, 76, 68
6, 371388, Note_off_c, 4, 78, 64
6, 371479, Note_off_c, 4, 76, 64
6, 371488, Note_on_c, 4, 74, 57
6, 371587, Note_off_c, 4, 74, 64
6, 371598, Note_on_c, 4, 76, 61
6, 371690, Note_off_c, 4, 76, 64
6, 371729, Note_on_c, 4, 78, 63
6, 371835, Note_off_c, 4, 78, 64
6, 371962, Note_on_c, 4, 71, 74
6, 372050, Note_off_c, 4, 71, 64
6, 372209, Note_on_c, 4, 76, 78
6, 372298, Note_off_c, 4, 76, 64
6, 372460, Note_on_c, 4, 74, 76
6, 372867, Note_off_c, 4, 74, 64
6, 372944, Note_on_c, 4, 73, 59
6, 373090, Note_off_c, 4, 73, 64
6, 373198, Note_on_c, 4, 74, 80
6, 373307, Note_on_c, 4, 76, 64
6, 373319, Note_off_c, 4, 74, 64
6, 373418, Note_on_c, 4, 74, 64
6, 373440, Note_off_c, 4, 76, 64
6, 373529, Note_on_c, 4, 73, 51
6, 373542, Note_off_c, 4, 74, 64
6, 373640, Note_on_c, 4, 71, 57
6, 373648, Note_off_c, 4, 73, 64
6, 373760, Note_on_c, 4, 73, 56
6, 373766, Note_off_c, 4, 71, 64
6, 373858, Note_off_c, 4, 73, 64
6, 373874, Note_on_c, 4, 74, 66
6, 373991, Note_on_c, 4, 76, 64
6, 373998, Note_off_c, 4, 74, 64
6, 374078, Note_off_c, 4, 76, 64
6, 374122, Note_on_c, 4, 78, 87
6, 374235, Note_on_c, 4, 79, 66
6, 374261, Note_off_c, 4, 78, 64
6, 374357, Note_off_c, 4, 79, 64
6, 374357, Note_on_c, 4, 78, 50
6, 374463, Note_on_c, 4, 76, 68
6, 374478, Note_off_c, 4, 78, 64
6, 374580, Note_off_c, 4, 76, 64
6, 374604, Note_on_c, 4, 75, 59
6, 374718, Note_on_c, 4, 76, 66
6, 374720, Note_off_c, 4, 75, 64
6, 374844, Note_off_c, 4, 76, 64
6, 374855, Note_on_c, 4, 78, 55
6, 374959, Note_on_c, 4, 75, 57
6, 374983, Note_off_c, 4, 78, 64
6, 375047, Note_off_c, 4, 75, 64
6, 375091, Note_on_c, 4, 76, 87
6, 375207, Note_on_c, 4, 78, 58
6, 375224, Note_off_c, 4, 76, 64
6, 375324, Note_on_c, 4, 76, 63
6, 375355, Note_off_c, 4, 78, 64
6, 375437, Note_off_c, 4, 76, 64
6, 375441, Note_on_c, 4, 74, 59
6, 375563, Note_off_c, 4, 74, 64
6, 375567, Note_on_c, 4, 73, 57
6, 375683, Note_off_c, 4, 73, 64
6, 375684, Note_on_c, 4, 74, 64
6, 375813, Note_off_c, 4, 74, 64
6, 375817, Note_on_c, 4, 76, 66
6, 375931, Note_on_c, 4, 78, 64
6, 375933, Note_off_c, 4, 76, 64
6, 376026, Note_off_c, 4, 78, 64
6, 376045, Note_on_c, 4, 79, 78
6, 376158, Note_on_c, 4, 81, 66
6, 376181, Note_off_c, 4, 79, 64
6, 376265, Note_off_c, 4, 81, 64
6, 376293, Note_on_c, 4, 79, 61
6, 376400, Note_on_c, 4, 78, 56
6, 376407, Note_off_c, 4, 79, 64
6, 376493, Note_off_c, 4, 78, 64
6, 376533, Note_on_c, 4, 76, 72
6, 376648, Note_on_c, 4, 78, 57
6, 376667, Note_off_c, 4, 76, 64
6, 376763, Note_off_c, 4, 78, 64
6, 376769, Note_on_c, 4, 79, 68
6, 376885, Note_off_c, 4, 79, 64
6, 376887, Note_on_c, 4, 76, 57
6, 376962, Note_off_c, 4, 76, 64
6, 377009, Note_on_c, 4, 78, 76
6, 377113, Note_on_c, 4, 79, 66
6, 377139, Note_off_c, 4, 78, 64
6, 377245, Note_off_c, 4, 79, 64
6, 377245, Note_on_c, 4, 78, 57
6, 377358, Note_on_c, 4, 76, 66
6, 377374, Note_off_c, 4, 78, 64
6, 377480, Note_off_c, 4, 76, 64
6, 377489, Note_on_c, 4, 74, 72
6, 377597, Note_on_c, 4, 76, 63
6, 377604, Note_off_c, 4, 74, 64
6, 377717, Note_on_c, 4, 78, 57
6, 377719, Note_off_c, 4, 76, 64
6, 377819, Note_off_c, 4, 78, 64
6, 377830, Note_on_c, 4, 79, 59
6, 377914, Note_off_c, 4, 79, 64
6, 377958, Note_on_c, 4, 81, 82
6, 378073, Note_on_c, 4, 83, 63
6, 378095, Note_off_c, 4, 81, 64
6, 378197, Note_on_c, 4, 81, 60
6, 378208, Note_off_c, 4, 83, 64
6, 378306, Note_on_c, 4, 79, 60
6, 378312, Note_off_c, 4, 81, 64
6, 378432, Note_off_c, 4, 79, 64
6, 378450, Note_on_c, 4, 78, 64
6, 378554, Note_on_c, 4, 79, 60
6, 378582, Note_off_c, 4, 78, 64
6, 378673, Note_off_c, 4, 79, 64
6, 378684, Note_on_c, 4, 81, 60
6, 378801, Note_on_c, 4, 78, 54
6, 378813, Note_off_c, 4, 81, 64
6, 378892, Note_off_c, 4, 78, 64
6, 378926, Note_on_c, 4, 79, 80
6, 379034, Note_on_c, 4, 81, 63
6, 379041, Note_off_c, 4, 79, 64
6, 379176, Note_on_c, 4, 79, 60
6, 379180, Note_off_c, 4, 81, 64
6, 379295, Note_off_c, 4, 79, 64
6, 379297, Note_on_c, 4, 78, 53
6, 379424, Note_on_c, 4, 76, 63
6, 379434, Note_off_c, 4, 78, 64
6, 379528, Note_off_c, 4, 76, 64
6, 379537, Note_on_c, 4, 74, 59
6, 379651, Note_off_c, 4, 74, 64
6, 379665, Note_on_c, 4, 73, 47
6, 379756, Note_on_c, 4, 71, 59
6, 379772, Note_off_c, 4, 73, 64
6, 379857, Note_off_c, 4, 71, 64
6, 379886, Note_on_c, 4, 78, 62
6, 380176, Note_off_c, 4, 78, 64
6, 380242, Note_on_c, 4, 79, 70
6, 380309, Note_off_c, 4, 79, 64
6, 380377, Note_on_c, 4, 74, 63
6, 380435, Note_on_c, 4, 73, 51
6, 380446, Note_off_c, 4, 74, 64
6, 380477, Note_on_c, 4, 74, 66
6, 380497, Note_off_c, 4, 73, 64
6, 380537, Note_on_c, 4, 73, 52
6, 380559, Note_off_c, 4, 74, 64
6, 380681, Note_off_c, 4, 73, 64
6, 380750, Note_on_c, 4, 71, 70
6, 380818, Note_off_c, 4, 71, 64
6, 380887, Note_on_c, 4, 71, 68
6, 383312, Note_off_c, 4, 71, 64
6, 383501, Note_on_c, 4, 71, 82
6, 383585, Note_off_c, 4, 71, 64
6, 383747, Note_on_c, 4, 79, 85
6, 383838, Note_off_c, 4, 79, 64
6, 383981, Note_on_c, 4, 78, 59
6, 384347, Note_off_c, 4, 78, 64
6, 384468, Note_on_c, 4, 76, 76
6, 384577, Note_off_c, 4, 76, 64
6, 384707, Note_on_c, 4, 78, 76
6, 384811, Note_on_c, 4, 79, 80
6, 384817, Note_off_c, 4, 78, 64
6, 384907, Note_off_c, 4, 79, 64
6, 384937, Note_on_c, 4, 81, 63
6, 385252, Note_off_c, 4, 81, 64
6, 385305, Note_on_c, 4, 79, 76
6, 385413, Note_off_c, 4, 79, 64
6, 385420, Note_on_c, 4, 78, 66
6, 385526, Note_on_c, 4, 76, 59
6, 385531, Note_off_c, 4, 78, 64
6, 385621, Note_off_c, 4, 76, 64
6, 385653, Note_on_c, 4, 75, 53
6, 385763, Note_on_c, 4, 73, 32
6, 385764, Note_off_c, 4, 75, 64
6, 385889, Note_on_c, 4, 75, 64
6, 385920, Note_off_c, 4, 73, 64
6, 385987, Note_off_c, 4, 75, 64
6, 386004, Note_on_c, 4, 76, 72
6, 386128, Note_off_c, 4, 76, 64
6, 386131, Note_on_c, 4, 78, 62
6, 386248, Note_on_c, 4, 79, 78
6, 386263, Note_off_c, 4, 78, 64
6, 386345, Note_off_c, 4, 79, 64
6, 386365, Note_on_c, 4, 81, 78
6, 386478, Note_on_c, 4, 78, 56
6, 386484, Note_off_c, 4, 81, 64
6, 386565, Note_off_c, 4, 78, 64
6, 386611, Note_on_c, 4, 79, 85
6, 386728, Note_on_c, 4, 81, 63
6, 386739, Note_off_c, 4, 79, 64
6, 386850, Note_on_c, 4, 79, 64
6, 386857, Note_off_c, 4, 81, 64
6, 386968, Note_on_c, 4, 78, 57
6, 386974, Note_off_c, 4, 79, 64
6, 387082, Note_off_c, 4, 78, 64
6, 387103, Note_on_c, 4, 76, 76
6, 387211, Note_on_c, 4, 78, 70
6, 387238, Note_off_c, 4, 76, 64
6, 387324, Note_off_c, 4, 78, 64
6, 387341, Note_on_c, 4, 79, 74
6, 387441, Note_off_c, 4, 79, 64
6, 387457, Note_on_c, 4, 76, 62
6, 387543, Note_off_c, 4, 76, 64
6, 387596, Note_on_c, 4, 73, 64
6, 387680, Note_off_c, 4, 73, 64
6, 387831, Note_on_c, 4, 81, 82
6, 388149, Note_off_c, 4, 81, 64
6, 388307, Note_on_c, 4, 73, 63
6, 388413, Note_off_c, 4, 73, 64
6, 388555, Note_on_c, 4, 74, 87
6, 388895, Note_off_c, 4, 74, 64
6, 388915, Note_on_c, 4, 76, 76
6, 388964, Note_off_c, 4, 76, 64
6, 389035, Note_on_c, 4, 78, 68
6, 389130, Note_off_c, 4, 78, 64
6, 389141, Note_on_c, 4, 80, 80
6, 389221, Note_off_c, 4, 80, 64
6, 389250, Note_on_c, 4, 82, 64
6, 389349, Note_off_c, 4, 82, 64
6, 389360, Note_on_c, 4, 83, 68
6, 389455, Note_off_c, 4, 83, 64
6, 389486, Note_on_c, 4, 85, 85
6, 389575, Note_off_c, 4, 85, 64
6, 389735, Note_on_c, 4, 76, 78
6, 390078, Note_off_c, 4, 76, 64
6, 390122, Note_on_c, 4, 74, 57
6, 390223, Note_off_c, 4, 74, 64
6, 390235, Note_on_c, 4, 73, 52
6, 390326, Note_off_c, 4, 73, 64
6, 390345, Note_on_c, 4, 76, 76
6, 390440, Note_off_c, 4, 76, 64
6, 390474, Note_on_c, 4, 74, 85
6, 390560, Note_off_c, 4, 74, 64
6, 390708, Note_on_c, 4, 73, 68
6, 391009, Note_off_c, 4, 73, 64
6, 391080, Note_on_c, 4, 71, 82
6, 391167, Note_off_c, 4, 71, 64
6, 391191, Note_on_c, 4, 70, 66
6, 391280, Note_off_c, 4, 70, 64
6, 391290, Note_on_c, 4, 73, 57
6, 391370, Note_off_c, 4, 73, 64
6, 391426, Note_on_c, 4, 66, 63
6, 391547, Note_off_c, 4, 66, 64
6, 391669, Note_on_c, 4, 78, 72
6, 391780, Note_off_c, 4, 78, 64
6, 391897, Note_on_c, 4, 76, 80
6, 392008, Note_on_c, 4, 74, 68
6, 392026, Note_off_c, 4, 76, 64
6, 392074, Note_off_c, 4, 74, 64
6, 392140, Note_on_c, 4, 73, 64
6, 392240, Note_on_c, 4, 71, 58
6, 392265, Note_off_c, 4, 73, 64
6, 392363, Note_off_c, 4, 71, 64
6, 392363, End_track
7, 0, Start_track
7, 0, Title_t, "Violin1"
7, 0, Program_c, 0, 40
7, 0, Control_c, 0, 7, 100
7, 20336, Note_on_c, 0, 71, 68
7, 20362, Note_on_c, 0, 73, 66
7, 20378, Note_off_c, 0, 71, 64
7, 20394, Note_on_c, 0, 74, 70
7, 20399, Note_off_c, 0, 73, 64
7, 20428, Note_on_c, 0, 73, 63
7, 20434, Note_off_c, 0, 74, 64
7, 20455, Note_on_c, 0, 74, 70
7, 20456, Note_off_c, 0, 73, 64
7, 20478, Note_on_c, 0, 73, 58
7, 20482, Note_off_c, 0, 74, 64
7, 20500, Note_off_c, 0, 73, 64
7, 20500, Note_on_c, 0, 74, 64
7, 20519, Note_on_c, 0, 73, 59
7, 20522, Note_off_c, 0, 74, 64
7, 20536, Note_off_c, 0, 73, 64
7, 20536, Note_on_c, 0, 74, 72
7, 20558, Note_on_c, 0, 73, 62
7, 20567, Note_off_c, 0, 74, 64
7, 20579, Note_on_c, 0, 71, 72
7, 20586, Note_off_c, 0, 73, 64
7, 20608, Note_on_c, 0, 73, 64
7, 20621, Note_off_c, 0, 71, 64
7, 20633, Note_on_c, 0, 74, 87
7, 20639, Note_off_c, 0, 73, 64
7, 20741, Note_off_c, 0, 74, 64
7, 20804, Note_on_c, 0, 73, 57
7, 20827, Note_on_c, 0, 71, 64
7, 20838, Note_off_c, 0, 73, 64
7, 20861, Note_off_c, 0, 71, 64
7, 20865, Note_on_c, 0, 79, 87
7, 20963, Note_off_c, 0, 79, 64
7, 21047, Note_on_c, 0, 79, 87
7, 21075, Note_off_c, 0, 79, 64
7, 21097, Note_on_c, 0, 79, 93
7, 21219, Note_on_c, 0, 78, 66
7, 21235, Note_off_c, 0, 79, 64
7, 21467, Note_off_c, 0, 78, 64
7, 21541, Note_on_c, 0, 78, 85
7, 21576, Note_off_c, 0, 78, 64
7, 21589, Note_on_c, 0, 71, 68
7, 21691, Note_off_c, 0, 71, 64
7, 21773, Note_on_c, 0, 71, 85
7, 21817, Note_off_c, 0, 71, 64
7, 21829, Note_on_c, 0, 76, 78
7, 22210, Note_off_c, 0, 76, 64
7, 22252, Note_on_c, 0, 78, 74
7, 22279, Note_on_c, 0, 79, 80
7, 22281, Note_off_c, 0, 78, 64
7, 22311, Note_off_c, 0, 79, 64
7, 22311, Note_on_c, 0, 78, 85
7, 22419, Note_off_c, 0, 78, 64
7, 22481, Note_on_c, 0, 79, 64
7, 22508, Note_on_c, 0, 76, 66
7, 22520, Note_off_c, 0, 79, 64
7, 22534, Note_off_c, 0, 76, 64
7, 22556, Note_on_c, 0, 76, 87
7, 22633, Note_on_c, 0, 74, 60
7, 22643, Note_off_c, 0, 76, 64
7, 22675, Note_on_c, 0, 76, 60
7, 22676, Note_off_c, 0, 74, 64
7, 22705, Note_on_c, 0, 74, 62
7, 22706, Note_off_c, 0, 76, 64
7, 22726, Note_off_c, 0, 74, 64
7, 22729, Note_on_c, 0, 76, 66
7, 22747, Note_on_c, 0, 74, 68
7, 22750, Note_off_c, 0, 76, 64
7, 22768, Note_off_c, 0, 74, 64
7, 22769, Note_on_c, 0, 76, 66
7, 22788, Note_on_c, 0, 74, 80
7, 22796, Note_off_c, 0, 76, 64
7, 22916, Note_off_c, 0, 74, 64
7, 22976, Note_on_c, 0, 73, 72
7, 23010, Note_off_c, 0, 73, 64
7, 23030, Note_on_c, 0, 73, 70
7, 23397, Note_off_c, 0, 73, 64
7, 23469, Note_on_c, 0, 73, 80
7, 23506, Note_off_c, 0, 73, 64
7, 23520, Note_on_c, 0, 78, 82
7, 23858, Note_off_c, 0, 78, 64
7, 23937, Note_on_c, 0, 79, 80
7, 23975, Note_off_c, 0, 79, 64
7, 23992, Note_on_c, 0, 76, 87
7, 24112, Note_on_c, 0, 75, 56
7, 24116, Note_off_c, 0, 76, 64
7, 24342, Note_off_c, 0, 75, 64
7, 24423, Note_on_c, 0, 75, 72
7, 24465, Note_off_c, 0, 75, 64
7, 24477, Note_on_c, 0, 78, 66
7, 24499, Note_on_c, 0, 76, 78
7, 24507, Note_off_c, 0, 78, 64
7, 24522, Note_on_c, 0, 78, 63
7, 24553, Note_off_c, 0, 78, 64
7, 24594, Note_off_c, 0, 76, 64
7, 24658, Note_on_c, 0, 75, 66
7, 24694, Note_off_c, 0, 75, 64
7, 24710, Note_on_c, 0, 76, 72
7, 24735, Note_on_c, 0, 75, 78
7, 24740, Note_off_c, 0, 76, 64
7, 24752, Note_on_c, 0, 76, 68
7, 24769, Note_off_c, 0, 75, 64
7, 24845, Note_off_c, 0, 76, 64
7, 24907, Note_on_c, 0, 78, 85
7, 24937, Note_off_c, 0, 78, 64
7, 24957, Note_on_c, 0, 78, 82
7, 25080, Note_on_c, 0, 79, 70
7, 25094, Note_off_c, 0, 78, 64
7, 25305, Note_off_c, 0, 79, 64
7, 25383, Note_on_c, 0, 83, 82
7, 25428, Note_off_c, 0, 83, 64
7, 25435, Note_on_c, 0, 76, 62
7, 25524, Note_off_c, 0, 76, 64
7, 25618, Note_on_c, 0, 76, 80
7, 25654, Note_off_c, 0, 76, 64
7, 25672, Note_on_c, 0, 78, 87
7, 25692, Note_on_c, 0, 76, 64
7, 25700, Note_off_c, 0, 78, 64
7, 25717, Note_on_c, 0, 78, 66
7, 25727, Note_off_c, 0, 76, 64
7, 25781, Note_off_c, 0, 78, 64
7, 25863, Note_on_c, 0, 79, 82
7, 25891, Note_off_c, 0, 79, 64
7, 25912, Note_on_c, 0, 74, 82
7, 25982, Note_on_c, 0, 73, 56
7, 25986, Note_off_c, 0, 74, 64
7, 26012, Note_off_c, 0, 73, 64
7, 26012, Note_on_c, 0, 74, 68
7, 26035, Note_on_c, 0, 73, 63
7, 26044, Note_off_c, 0, 74, 64
7, 26262, Note_off_c, 0, 73, 64
7, 26326, Note_on_c, 0, 73, 72
7, 26364, Note_off_c, 0, 73, 64
7, 26390, Note_on_c, 0, 76, 80
7, 26409, Note_on_c, 0, 74, 85
7, 26416, Note_off_c, 0, 76, 64
7, 26437, Note_on_c, 0, 76, 74
7, 26447, Note_off_c, 0, 74, 64
7, 26458, Note_on_c, 0, 74, 66
7, 26464, Note_off_c, 0, 76, 64
7, 26523, Note_off_c, 0, 74, 64
7, 26582, Note_on_c, 0, 73, 63
7, 26619, Note_off_c, 0, 73, 64
7, 26639, Note_on_c, 0, 74, 80
7, 26663, Note_on_c, 0, 73, 64
7, 26666, Note_off_c, 0, 74, 64
7, 26681, Note_on_c, 0, 74, 74
7, 26699, Note_off_c, 0, 73, 64
7, 26768, Note_off_c, 0, 74, 64
7, 26826, Note_on_c, 0, 76, 80
7, 26850, Note_off_c, 0, 76, 64
7, 26874, Note_on_c, 0, 76, 63
7, 26912, Note_on_c, 0, 78, 59
7, 26918, Note_off_c, 0, 76, 64
7, 27008, Note_off_c, 0, 78, 64
7, 27033, Note_on_c, 0, 79, 66
7, 27057, Note_on_c, 0, 78, 64
7, 27065, Note_off_c, 0, 79, 64
7, 27088, Note_on_c, 0, 79, 80
7, 27097, Note_off_c, 0, 78, 64
7, 27119, Note_on_c, 0, 81, 82
7, 27134, Note_off_c, 0, 79, 64
7, 27160, Note_on_c, 0, 79, 74
7, 27170, Note_off_c, 0, 81, 64
7, 27193, Note_off_c, 0, 79, 64
7, 27193, Note_on_c, 0, 81, 74
7, 27217, Note_on_c, 0, 79, 66
7, 27221, Note_off_c, 0, 81, 64
7, 27237, Note_off_c, 0, 79, 64
7, 27238, Note_on_c, 0, 81, 64
7, 27255, Note_on_c, 0, 79, 72
7, 27290, Note_off_c, 0, 81, 64
7, 27292, Note_on_c, 0, 78, 63
7, 27304, Note_off_c, 0, 79, 64
7, 27319, Note_on_c, 0, 79, 78
7, 27321, Note_off_c, 0, 78, 64
7, 27351, Note_on_c, 0, 81, 78
7, 27360, Note_off_c, 0, 79, 64
7, 27463, Note_off_c, 0, 81, 64
7, 27535, Note_on_c, 0, 79, 70
7, 27550, Note_on_c, 0, 78, 62
7, 27566, Note_off_c, 0, 79, 64
7, 27580, Note_off_c, 0, 78, 64
7, 27587, Note_on_c, 0, 83, 87
7, 27677, Note_off_c, 0, 83, 64
7, 27772, Note_on_c, 0, 76, 76
7, 27810, Note_off_c, 0, 76, 64
7, 27825, Note_on_c, 0, 81, 87
7, 28155, Note_off_c, 0, 81, 64
7, 28240, Note_on_c, 0, 74, 78
7, 28268, Note_off_c, 0, 74, 64
7, 28302, Note_on_c, 0, 74, 78
7, 28427, Note_on_c, 0, 73, 52
7, 28436, Note_off_c, 0, 74, 64
7, 28652, Note_off_c, 0, 73, 64
7, 28741, Note_on_c, 0, 79, 78
7, 28770, Note_off_c, 0, 79, 64
7, 28798, Note_on_c, 0, 79, 85
7, 28821, Note_on_c, 0, 78, 85
7, 28830, Note_off_c, 0, 79, 64
7, 28842, Note_on_c, 0, 79, 60
7, 28851, Note_off_c, 0, 78, 64
7, 28865, Note_on_c, 0, 78, 60
7, 28882, Note_off_c, 0, 79, 64
7, 28920, Note_off_c, 0, 78, 64
7, 28976, Note_on_c, 0, 76, 64
7, 28997, Note_on_c, 0, 74, 70
7, 29007, Note_off_c, 0, 76, 64
7, 29032, Note_on_c, 0, 76, 76
7, 29036, Note_off_c, 0, 74, 64
7, 29120, Note_off_c, 0, 76, 64
7, 29198, Note_on_c, 0, 71, 78
7, 29241, Note_off_c, 0, 71, 64
7, 29262, Note_on_c, 0, 74, 76
7, 29331, Note_on_c, 0, 73, 52
7, 29341, Note_off_c, 0, 74, 64
7, 29367, Note_on_c, 0, 74, 64
7, 29370, Note_off_c, 0, 73, 64
7, 29399, Note_off_c, 0, 74, 64
7, 29399, Note_on_c, 0, 73, 48
7, 29415, Note_on_c, 0, 74, 68
7, 29416, Note_off_c, 0, 73, 64
7, 29439, Note_off_c, 0, 74, 64
7, 29439, Note_on_c, 0, 73, 57
7, 29457, Note_on_c, 0, 74, 68
7, 29461, Note_off_c, 0, 73, 64
7, 29480, Note_on_c, 0, 73, 61
7, 29484, Note_off_c, 0, 74, 64
7, 29631, Note_off_c, 0, 73, 64
7, 29686, Note_on_c, 0, 74, 82
7, 29724, Note_off_c, 0, 74, 64
7, 29742, Note_on_c, 0, 74, 82
7, 29915, Note_off_c, 0, 74, 64
7, 29940, Note_on_c, 0, 62, 64
7, 29967, Note_on_c, 0, 64, 78
7, 29981, Note_off_c, 0, 62, 64
7, 29994, Note_on_c, 0, 66, 58
7, 30000, Note_off_c, 0, 64, 64
7, 30023, Note_on_c, 0, 64, 66
7, 30028, Note_off_c, 0, 66, 64
7, 30045, Note_on_c, 0, 66, 63
7, 30049, Note_off_c, 0, 64, 64
7, 30069, Note_on_c, 0, 64, 61
7, 30070, Note_off_c, 0, 66, 64
7, 30088, Note_on_c, 0, 66, 61
7, 30093, Note_off_c, 0, 64, 64
7, 30108, Note_on_c, 0, 64, 47
7, 30109, Note_off_c, 0, 66, 64
7, 30119, Note_on_c, 0, 66, 62
7, 30123, Note_off_c, 0, 64, 64
7, 30139, Note_on_c, 0, 64, 66
7, 30152, Note_off_c, 0, 66, 64
7, 30163, Note_on_c, 0, 62, 66
7, 30168, Note_off_c, 0, 64, 64
7, 30192, Note_on_c, 0, 64, 80
7, 30203, Note_off_c, 0, 62, 64
7, 30225, Note_on_c, 0, 66, 80
7, 30236, Note_off_c, 0, 64, 64
7, 30364, Note_off_c, 0, 66, 64
7, 30399, Note_on_c, 0, 64, 63
7, 30433, Note_on_c, 0, 62, 68
7, 30441, Note_off_c, 0, 64, 64
7, 30467, Note_off_c, 0, 62, 64
7, 30471, Note_on_c, 0, 71, 76
7, 30570, Note_off_c, 0, 71, 64
7, 30664, Note_on_c, 0, 73, 78
7, 30698, Note_off_c, 0, 73, 64
7, 30716, Note_on_c, 0, 69, 87
7, 30829, Note_on_c, 0, 68, 55
7, 30836, Note_off_c, 0, 69, 64
7, 31067, Note_off_c, 0, 68, 64
7, 31147, Note_on_c, 0, 69, 70
7, 31186, Note_off_c, 0, 69, 64
7, 31194, Note_on_c, 0, 71, 70
7, 31294, Note_off_c, 0, 71, 64
7, 31392, Note_on_c, 0, 73, 63
7, 31431, Note_off_c, 0, 73, 64
7, 31437, Note_on_c, 0, 74, 85
7, 31533, Note_off_c, 0, 74, 64
7, 31629, Note_on_c, 0, 73, 53
7, 31648, Note_on_c, 0, 71, 68
7, 31660, Note_off_c, 0, 73, 64
7, 31684, Note_on_c, 0, 73, 68
7, 31694, Note_off_c, 0, 71, 64
7, 31806, Note_off_c, 0, 73, 64
7, 31853, Note_on_c, 0, 73, 57
7, 31878, Note_on_c, 0, 74, 70
7, 31886, Note_off_c, 0, 73, 64
7, 31918, Note_on_c, 0, 76, 82
7, 31920, Note_off_c, 0, 74, 64
7, 31999, Note_off_c, 0, 76, 64
7, 32097, Note_on_c, 0, 78, 60
7, 32120, Note_on_c, 0, 79, 76
7, 32130, Note_off_c, 0, 78, 64
7, 32155, Note_off_c, 0, 79, 64
7, 32157, Note_on_c, 0, 81, 68
7, 32517, Note_off_c, 0, 81, 64
7, 32587, Note_on_c, 0, 81, 82
7, 32617, Note_off_c, 0, 81, 64
7, 32635, Note_on_c, 0, 81, 85
7, 32775, Note_off_c, 0, 81, 64
7, 32825, Note_on_c, 0, 78, 55
7, 32849, Note_on_c, 0, 79, 70
7, 32852, Note_off_c, 0, 78, 64
7, 32881, Note_on_c, 0, 81, 80
7, 32894, Note_off_c, 0, 79, 64
7, 32995, Note_off_c, 0, 81, 64
7, 33060, Note_on_c, 0, 79, 64
7, 33082, Note_on_c, 0, 78, 60
7, 33094, Note_off_c, 0, 79, 64
7, 33111, Note_off_c, 0, 78, 64
7, 33113, Note_on_c, 0, 83, 87
7, 33215, Note_off_c, 0, 83, 64
7, 33283, Note_on_c, 0, 81, 68
7, 33315, Note_off_c, 0, 81, 64
7, 33344, Note_on_c, 0, 81, 76
7, 33367, Note_on_c, 0, 79, 76
7, 33373, Note_off_c, 0, 81, 64
7, 33388, Note_on_c, 0, 81, 64
7, 33400, Note_off_c, 0, 79, 64
7, 33410, Note_on_c, 0, 79, 59
7, 33417, Note_off_c, 0, 81, 64
7, 33471, Note_off_c, 0, 79, 64
7, 33535, Note_on_c, 0, 78, 74
7, 33567, Note_off_c, 0, 78, 64
7, 33590, Note_on_c, 0, 78, 82
7, 33706, Note_on_c, 0, 79, 72
7, 33721, Note_off_c, 0, 78, 64
7, 34197, Note_off_c, 0, 79, 64
7, 34255, Note_on_c, 0, 69, 66
7, 34276, Note_on_c, 0, 71, 74
7, 34290, Note_off_c, 0, 69, 64
7, 34305, Note_off_c, 0, 71, 64
7, 34312, Note_on_c, 0, 73, 60
7, 34424, Note_off_c, 0, 73, 64
7, 34494, Note_on_c, 0, 74, 68
7, 34519, Note_on_c, 0, 76, 72
7, 34533, Note_off_c, 0, 74, 64
7, 34554, Note_on_c, 0, 78, 62
7, 34557, Note_off_c, 0, 76, 64
7, 35142, Note_off_c, 0, 78, 64
7, 35207, Note_on_c, 0, 71, 66
7, 35233, Note_on_c, 0, 73, 56
7, 35249, Note_off_c, 0, 71, 64
7, 35265, Note_off_c, 0, 73, 64
7, 35266, Note_on_c, 0, 74, 78
7, 35379, Note_off_c, 0, 74, 64
7, 35442, Note_on_c, 0, 73, 56
7, 35467, Note_on_c, 0, 71, 74
7, 35482, Note_off_c, 0, 73, 64
7, 35506, Note_off_c, 0, 71, 64
7, 35509, Note_on_c, 0, 76, 70
7, 35536, Note_on_c, 0, 74, 68
7, 35543, Note_off_c, 0, 76, 64
7, 35565, Note_on_c, 0, 76, 78
7, 35571, Note_off_c, 0, 74, 64
7, 36110, Note_off_c, 0, 76, 64
7, 36160, Note_on_c, 0, 78, 72
7, 36189, Note_on_c, 0, 79, 74
7, 36199, Note_off_c, 0, 78, 64
7, 36228, Note_off_c, 0, 79, 64
7, 36233, Note_on_c, 0, 73, 66
7, 36324, Note_off_c, 0, 73, 64
7, 36406, Note_on_c, 0, 74, 61
7, 36432, Note_on_c, 0, 76, 78
7, 36440, Note_off_c, 0, 74, 64
7, 36466, Note_off_c, 0, 76, 64
7, 36474, Note_on_c, 0, 70, 68
7, 36595, Note_off_c, 0, 70, 64
7, 36650, Note_on_c, 0, 76, 76
7, 36671, Note_on_c, 0, 78, 60
7, 36684, Note_off_c, 0, 76, 64
7, 36706, Note_off_c, 0, 78, 64
7, 36710, Note_on_c, 0, 79, 80
7, 36809, Note_off_c, 0, 79, 64
7, 36888, Note_on_c, 0, 78, 53
7, 36909, Note_on_c, 0, 76, 63
7, 36918, Note_off_c, 0, 78, 64
7, 36948, Note_off_c, 0, 76, 64
7, 36955, Note_on_c, 0, 85, 80
7, 37050, Note_off_c, 0, 85, 64
7, 37142, Note_on_c, 0, 76, 64
7, 37179, Note_off_c, 0, 76, 64
7, 37186, Note_on_c, 0, 78, 66
7, 37292, Note_off_c, 0, 78, 64
7, 37373, Note_on_c, 0, 73, 60
7, 37406, Note_off_c, 0, 73, 64
7, 37431, Note_on_c, 0, 73, 72
7, 37546, Note_on_c, 0, 74, 66
7, 37559, Note_off_c, 0, 73, 64
7, 37805, Note_off_c, 0, 74, 64
7, 37822, Note_on_c, 0, 76, 70
7, 37848, Note_on_c, 0, 73, 61
7, 37858, Note_off_c, 0, 76, 64
7, 37879, Note_on_c, 0, 74, 74
7, 37894, Note_off_c, 0, 73, 64
7, 37912, Note_on_c, 0, 76, 66
7, 37919, Note_off_c, 0, 74, 64
7, 37959, Note_on_c, 0, 74, 63
7, 37969, Note_off_c, 0, 76, 64
7, 37998, Note_on_c, 0, 76, 63
7, 38001, Note_off_c, 0, 74, 64
7, 38027, Note_on_c, 0, 74, 58
7, 38033, Note_off_c, 0, 76, 64
7, 38049, Note_off_c, 0, 74, 64
7, 38050, Note_on_c, 0, 76, 60
7, 38071, Note_on_c, 0, 74, 68
7, 38073, Note_off_c, 0, 76, 64
7, 38090, Note_on_c, 0, 76, 70
7, 38092, Note_off_c, 0, 74, 64
7, 38113, Note_off_c, 0, 76, 64
7, 38113, Note_on_c, 0, 74, 68
7, 38129, Note_on_c, 0, 76, 66
7, 38134, Note_off_c, 0, 74, 64
7, 38150, Note_on_c, 0, 74, 68
7, 38164, Note_off_c, 0, 76, 64
7, 38283, Note_off_c, 0, 74, 64
7, 38336, Note_on_c, 0, 73, 76
7, 38370, Note_off_c, 0, 73, 64
7, 38397, Note_on_c, 0, 73, 63
7, 39110, Note_off_c, 0, 73, 64
7, 80257, Note_on_c, 0, 76, 64
7, 80378, Note_on_c, 0, 74, 59
7, 80379, Note_off_c, 0, 76, 64
7, 80481, Note_on_c, 0, 73, 56
7, 80492, Note_off_c, 0, 74, 64
7, 80589, Note_off_c, 0, 73, 64
7, 80620, Note_on_c, 0, 74, 80
7, 80693, Note_off_c, 0, 74, 64
7, 80853, Note_on_c, 0, 71, 64
7, 80917, Note_off_c, 0, 71, 64
7, 81109, Note_on_c, 0, 74, 85
7, 81186, Note_off_c, 0, 74, 64
7, 81339, Note_on_c, 0, 66, 61
7, 81402, Note_off_c, 0, 66, 64
7, 81592, Note_on_c, 0, 74, 72
7, 81652, Note_off_c, 0, 74, 64
7, 81815, Note_on_c, 0, 68, 60
7, 81878, Note_off_c, 0, 68, 64
7, 82063, Note_on_c, 0, 74, 72
7, 82128, Note_off_c, 0, 74, 64
7, 82289, Note_on_c, 0, 64, 64
7, 82368, Note_off_c, 0, 64, 64
7, 82532, Note_on_c, 0, 73, 64
7, 82603, Note_off_c, 0, 73, 64
7, 82763, Note_on_c, 0, 69, 62
7, 82827, Note_off_c, 0, 69, 64
7, 83020, Note_on_c, 0, 73, 58
7, 83088, Note_off_c, 0, 73, 64
7, 83252, Note_on_c, 0, 64, 61
7, 83329, Note_off_c, 0, 64, 64
7, 83507, Note_on_c, 0, 73, 66
7, 83588, Note_off_c, 0, 73, 64
7, 83726, Note_on_c, 0, 66, 59
7, 83799, Note_off_c, 0, 66, 64
7, 83963, Note_on_c, 0, 73, 72
7, 84054, Note_off_c, 0, 73, 64
7, 84200, Note_on_c, 0, 62, 59
7, 84284, Note_off_c, 0, 62, 64
7, 84452, Note_on_c, 0, 71, 82
7, 84516, Note_off_c, 0, 71, 64
7, 84675, Note_on_c, 0, 68, 66
7, 84738, Note_off_c, 0, 68, 64
7, 84921, Note_on_c, 0, 71, 80
7, 84994, Note_off_c, 0, 71, 64
7, 85162, Note_on_c, 0, 62, 63
7, 85238, Note_off_c, 0, 62, 64
7, 85406, Note_on_c, 0, 71, 76
7, 85472, Note_off_c, 0, 71, 64
7, 85636, Note_on_c, 0, 65, 66
7, 85705, Note_off_c, 0, 65, 64
7, 85877, Note_on_c, 0, 71, 70
7, 85964, Note_off_c, 0, 71, 64
7, 86106, Note_on_c, 0, 61, 61
7, 86190, Note_off_c, 0, 61, 64
7, 86371, Note_on_c, 0, 69, 80
7, 86475, Note_on_c, 0, 71, 68
7, 86484, Note_off_c, 0, 69, 64
7, 86595, Note_on_c, 0, 69, 63
7, 86619, Note_off_c, 0, 71, 64
7, 86718, Note_on_c, 0, 68, 62
7, 86727, Note_off_c, 0, 69, 64
7, 86845, Note_off_c, 0, 68, 64
7, 86851, Note_on_c, 0, 66, 55
7, 86922, Note_off_c, 0, 66, 64
7, 87093, Note_on_c, 0, 69, 63
7, 87168, Note_off_c, 0, 69, 64
7, 87338, Note_on_c, 0, 59, 66
7, 87427, Note_off_c, 0, 59, 64
7, 87582, Note_on_c, 0, 62, 64
7, 87642, Note_off_c, 0, 62, 64
7, 87816, Note_on_c, 0, 64, 63
7, 87887, Note_off_c, 0, 64, 64
7, 88060, Note_on_c, 0, 68, 68
7, 88157, Note_off_c, 0, 68, 64
7, 88295, Note_on_c, 0, 57, 63
7, 88386, Note_off_c, 0, 57, 64
7, 88531, Note_on_c, 0, 61, 62
7, 88611, Note_off_c, 0, 61, 64
7, 88777, Note_on_c, 0, 66, 66
7, 88859, Note_off_c, 0, 66, 64
7, 89025, Note_on_c, 0, 69, 72
7, 89101, Note_off_c, 0, 69, 64
7, 89257, Note_on_c, 0, 59, 70
7, 89350, Note_off_c, 0, 59, 64
7, 89496, Note_on_c, 0, 68, 72
7, 89583, Note_off_c, 0, 68, 64
7, 89725, Note_on_c, 0, 61, 63
7, 89815, Note_off_c, 0, 61, 64
7, 89973, Note_on_c, 0, 65, 66
7, 90054, Note_off_c, 0, 65, 64
7, 90209, Note_on_c, 0, 66, 57
7, 90758, Note_off_c, 0, 66, 64
7, 91422, Note_on_c, 0, 81, 82
7, 91489, Note_off_c, 0, 81, 64
7, 91662, Note_on_c, 0, 79, 82
7, 91728, Note_off_c, 0, 79, 64
7, 91898, Note_on_c, 0, 78, 64
7, 91976, Note_off_c, 0, 78, 64
7, 92148, Note_on_c, 0, 76, 76
7, 92241, Note_off_c, 0, 76, 64
7, 93342, Note_on_c, 0, 79, 82
7, 93421, Note_off_c, 0, 79, 64
7, 93585, Note_on_c, 0, 78, 64
7, 93658, Note_off_c, 0, 78, 64
7, 93826, Note_on_c, 0, 76, 78
7, 93900, Note_off_c, 0, 76, 64
7, 94066, Note_on_c, 0, 74, 78
7, 94161, Note_off_c, 0, 74, 64
7, 94811, Note_on_c, 0, 81, 95
7, 94882, Note_off_c, 0, 81, 64
7, 95040, Note_on_c, 0, 83, 89
7, 95119, Note_off_c, 0, 83, 64
7, 95272, Note_on_c, 0, 81, 80
7, 95644, Note_off_c, 0, 81, 64
7, 95754, Note_on_c, 0, 79, 74
7, 95863, Note_off_c, 0, 79, 64
7, 95996, Note_on_c, 0, 81, 85
7, 96104, Note_off_c, 0, 81, 64
7, 96107, Note_on_c, 0, 79, 85
7, 96221, Note_off_c, 0, 79, 64
7, 96221, Note_on_c, 0, 78, 63
7, 96312, Note_off_c, 0, 78, 64
7, 96335, Note_on_c, 0, 79, 78
7, 96421, Note_off_c, 0, 79, 64
7, 96458, Note_on_c, 0, 81, 82
7, 96551, Note_off_c, 0, 81, 64
7, 96693, Note_on_c, 0, 74, 72
7, 96791, Note_off_c, 0, 74, 64
7, 96943, Note_on_c, 0, 79, 80
7, 97029, Note_off_c, 0, 79, 64
7, 97189, Note_on_c, 0, 78, 85
7, 97565, Note_off_c, 0, 78, 64
7, 97674, Note_on_c, 0, 76, 70
7, 97793, Note_off_c, 0, 76, 64
7, 97921, Note_on_c, 0, 78, 95
7, 98021, Note_on_c, 0, 79, 68
7, 98047, Note_off_c, 0, 78, 64
7, 98121, Note_off_c, 0, 79, 64
7, 98138, Note_on_c, 0, 78, 58
7, 98243, Note_on_c, 0, 76, 62
7, 98247, Note_off_c, 0, 78, 64
7, 98345, Note_off_c, 0, 76, 64
7, 98373, Note_on_c, 0, 74, 72
7, 98714, Note_off_c, 0, 74, 64
7, 98860, Note_on_c, 0, 76, 70
7, 98922, Note_on_c, 0, 74, 60
7, 98940, Note_off_c, 0, 76, 64
7, 98997, Note_off_c, 0, 74, 64
7, 98997, Note_on_c, 0, 76, 66
7, 99044, Note_on_c, 0, 74, 63
7, 99051, Note_off_c, 0, 76, 64
7, 99102, Note_off_c, 0, 74, 64
7, 99102, Note_on_c, 0, 76, 60
7, 99144, Note_on_c, 0, 74, 60
7, 99154, Note_off_c, 0, 76, 64
7, 99190, Note_on_c, 0, 76, 60
7, 99191, Note_off_c, 0, 74, 64
7, 99237, Note_on_c, 0, 74, 63
7, 99247, Note_off_c, 0, 76, 64
7, 99285, Note_off_c, 0, 74, 64
7, 99289, Note_on_c, 0, 76, 55
7, 99327, Note_on_c, 0, 74, 68
7, 99334, Note_off_c, 0, 76, 64
7, 99378, Note_off_c, 0, 74, 64
7, 99383, Note_on_c, 0, 76, 61
7, 99422, Note_on_c, 0, 74, 70
7, 99433, Note_off_c, 0, 76, 64
7, 99475, Note_off_c, 0, 74, 64
7, 99476, Note_on_c, 0, 76, 60
7, 99517, Note_on_c, 0, 74, 68
7, 99533, Note_off_c, 0, 76, 64
7, 99566, Note_off_c, 0, 74, 64
7, 99575, Note_on_c, 0, 76, 57
7, 99611, Note_on_c, 0, 74, 66
7, 99626, Note_off_c, 0, 76, 64
7, 99662, Note_off_c, 0, 74, 64
7, 99666, Note_on_c, 0, 76, 60
7, 99708, Note_on_c, 0, 74, 64
7, 99721, Note_off_c, 0, 76, 64
7, 99757, Note_off_c, 0, 74, 64
7, 99763, Note_on_c, 0, 76, 57
7, 99797, Note_on_c, 0, 74, 66
7, 99810, Note_off_c, 0, 76, 64
7, 99848, Note_off_c, 0, 74, 64
7, 99849, Note_on_c, 0, 76, 61
7, 99894, Note_on_c, 0, 74, 68
7, 99907, Note_off_c, 0, 76, 64
7, 99945, Note_off_c, 0, 74, 64
7, 99948, Note_on_c, 0, 76, 60
7, 99993, Note_on_c, 0, 74, 68
7, 100007, Note_off_c, 0, 76, 64
7, 100040, Note_off_c, 0, 74, 64
7, 100044, Note_on_c, 0, 76, 63
7, 100080, Note_on_c, 0, 74, 63
7, 100098, Note_off_c, 0, 76, 64
7, 100131, Note_off_c, 0, 74, 64
7, 100133, Note_on_c, 0, 76, 66
7, 100175, Note_on_c, 0, 74, 62
7, 100193, Note_off_c, 0, 76, 64
7, 100226, Note_off_c, 0, 74, 64
7, 100228, Note_on_c, 0, 76, 62
7, 100268, Note_on_c, 0, 74, 64
7, 100284, Note_off_c, 0, 76, 64
7, 100326, Note_off_c, 0, 74, 64
7, 100328, Note_on_c, 0, 76, 66
7, 100361, Note_on_c, 0, 74, 66
7, 100379, Note_off_c, 0, 76, 64
7, 100419, Note_off_c, 0, 74, 64
7, 100419, Note_on_c, 0, 76, 62
7, 100465, Note_on_c, 0, 74, 64
7, 100478, Note_off_c, 0, 76, 64
7, 100518, Note_off_c, 0, 74, 64
7, 100522, Note_on_c, 0, 76, 64
7, 100560, Note_on_c, 0, 74, 63
7, 100574, Note_off_c, 0, 76, 64
7, 100613, Note_off_c, 0, 74, 64
7, 100622, Note_on_c, 0, 76, 66
7, 100653, Note_on_c, 0, 74, 61
7, 100673, Note_off_c, 0, 76, 64
7, 100711, Note_off_c, 0, 74, 64
7, 100717, Note_on_c, 0, 76, 62
7, 100753, Note_on_c, 0, 74, 59
7, 100773, Note_off_c, 0, 76, 64
7, 100806, Note_off_c, 0, 74, 64
7, 100821, Note_on_c, 0, 76, 61
7, 100852, Note_on_c, 0, 74, 59
7, 100870, Note_off_c, 0, 76, 64
7, 100903, Note_off_c, 0, 74, 64
7, 100910, Note_on_c, 0, 76, 64
7, 100950, Note_on_c, 0, 74, 59
7, 100961, Note_off_c, 0, 76, 64
7, 100999, Note_off_c, 0, 74, 64
7, 101010, Note_on_c, 0, 76, 61
7, 101049, Note_on_c, 0, 74, 60
7, 101061, Note_off_c, 0, 76, 64
7, 101096, Note_off_c, 0, 74, 64
7, 101109, Note_on_c, 0, 76, 60
7, 101145, Note_on_c, 0, 74, 60
7, 101158, Note_off_c, 0, 76, 64
7, 101196, Note_off_c, 0, 74, 64
7, 101206, Note_on_c, 0, 76, 64
7, 101246, Note_on_c, 0, 74, 62
7, 101260, Note_off_c, 0, 76, 64
7, 101295, Note_off_c, 0, 74, 64
7, 101306, Note_on_c, 0, 76, 60
7, 101348, Note_on_c, 0, 74, 60
7, 101366, Note_off_c, 0, 76, 64
7, 101401, Note_off_c, 0, 74, 64
7, 101408, Note_on_c, 0, 76, 64
7, 101454, Note_on_c, 0, 74, 62
7, 101468, Note_off_c, 0, 76, 64
7, 101501, Note_off_c, 0, 74, 64
7, 101512, Note_on_c, 0, 76, 62
7, 101558, Note_on_c, 0, 74, 62
7, 101576, Note_off_c, 0, 76, 64
7, 101610, Note_off_c, 0, 74, 64
7, 101614, Note_on_c, 0, 76, 60
7, 101654, Note_on_c, 0, 74, 62
7, 101669, Note_off_c, 0, 76, 64
7, 101709, Note_on_c, 0, 76, 66
7, 101716, Note_off_c, 0, 74, 64
7, 101764, Note_on_c, 0, 74, 68
7, 101789, Note_off_c, 0, 76, 64
7, 101933, Note_off_c, 0, 74, 64
7, 101988, Note_on_c, 0, 62, 78
7, 102094, Note_on_c, 0, 64, 66
7, 102118, Note_off_c, 0, 62, 64
7, 102189, Note_off_c, 0, 64, 64
7, 102201, Note_on_c, 0, 66, 64
7, 102320, Note_on_c, 0, 67, 59
7, 102326, Note_off_c, 0, 66, 64
7, 102429, Note_off_c, 0, 67, 64
7, 102448, Note_on_c, 0, 69, 57
7, 102543, Note_on_c, 0, 71, 70
7, 102550, Note_off_c, 0, 69, 64
7, 102620, Note_off_c, 0, 71, 64
7, 102667, Note_on_c, 0, 72, 66
7, 102791, Note_on_c, 0, 74, 60
7, 102807, Note_off_c, 0, 72, 64
7, 102889, Note_off_c, 0, 74, 64
7, 102915, Note_on_c, 0, 72, 59
7, 103024, Note_off_c, 0, 72, 64
7, 103026, Note_on_c, 0, 71, 58
7, 103123, Note_off_c, 0, 71, 64
7, 103152, Note_on_c, 0, 69, 74
7, 103261, Note_on_c, 0, 74, 66
7, 103276, Note_off_c, 0, 69, 64
7, 103371, Note_off_c, 0, 74, 64
7, 103385, Note_on_c, 0, 72, 59
7, 103502, Note_on_c, 0, 74, 63
7, 103535, Note_off_c, 0, 72, 64
7, 103582, Note_off_c, 0, 74, 64
7, 103630, Note_on_c, 0, 71, 72
7, 103730, Note_on_c, 0, 72, 68
7, 103759, Note_off_c, 0, 71, 64
7, 103858, Note_off_c, 0, 72, 64
7, 103861, Note_on_c, 0, 71, 60
7, 103973, Note_off_c, 0, 71, 64
7, 103980, Note_on_c, 0, 69, 58
7, 104077, Note_off_c, 0, 69, 64
7, 104104, Note_on_c, 0, 67, 72
7, 104217, Note_off_c, 0, 67, 64
7, 104221, Note_on_c, 0, 69, 70
7, 104323, Note_off_c, 0, 69, 64
7, 104346, Note_on_c, 0, 71, 60
7, 104452, Note_off_c, 0, 71, 64
7, 104476, Note_on_c, 0, 73, 59
7, 104551, Note_off_c, 0, 73, 64
7, 104596, Note_on_c, 0, 74, 85
7, 104717, Note_on_c, 0, 76, 64
7, 104722, Note_off_c, 0, 74, 64
7, 104821, Note_off_c, 0, 76, 64
7, 104844, Note_on_c, 0, 74, 60
7, 104948, Note_off_c, 0, 74, 64
7, 104954, Note_on_c, 0, 73, 58
7, 105063, Note_off_c, 0, 73, 64
7, 105087, Note_on_c, 0, 71, 70
7, 105200, Note_on_c, 0, 76, 60
7, 105202, Note_off_c, 0, 71, 64
7, 105308, Note_off_c, 0, 76, 64
7, 105320, Note_on_c, 0, 74, 63
7, 105435, Note_on_c, 0, 76, 57
7, 105443, Note_off_c, 0, 74, 64
7, 105538, Note_off_c, 0, 76, 64
7, 105563, Note_on_c, 0, 73, 63
7, 105676, Note_on_c, 0, 71, 62
7, 105678, Note_off_c, 0, 73, 64
7, 105770, Note_off_c, 0, 71, 64
7, 105802, Note_on_c, 0, 69, 59
7, 105913, Note_off_c, 0, 69, 64
7, 105913, Note_on_c, 0, 71, 57
7, 106046, Note_off_c, 0, 71, 64
7, 106046, Note_on_c, 0, 73, 53
7, 106160, Note_off_c, 0, 73, 64
7, 106167, Note_on_c, 0, 74, 78
7, 106265, Note_off_c, 0, 74, 64
7, 106279, Note_on_c, 0, 76, 60
7, 106380, Note_off_c, 0, 76, 64
7, 106389, Note_on_c, 0, 78, 70
7, 106475, Note_off_c, 0, 78, 64
7, 106512, Note_on_c, 0, 79, 89
7, 106619, Note_on_c, 0, 81, 66
7, 106621, Note_off_c, 0, 79, 64
7, 106760, Note_on_c, 0, 79, 64
7, 106767, Note_off_c, 0, 81, 64
7, 106867, Note_off_c, 0, 79, 64
7, 106875, Note_on_c, 0, 78, 56
7, 106969, Note_off_c, 0, 78, 64
7, 106995, Note_on_c, 0, 76, 68
7, 107095, Note_off_c, 0, 76, 64
7, 107104, Note_on_c, 0, 81, 66
7, 107223, Note_off_c, 0, 81, 64
7, 107232, Note_on_c, 0, 79, 66
7, 107345, Note_on_c, 0, 81, 64
7, 107349, Note_off_c, 0, 79, 64
7, 107466, Note_off_c, 0, 81, 64
7, 107486, Note_on_c, 0, 78, 80
7, 107577, Note_on_c, 0, 79, 66
7, 107580, Note_off_c, 0, 78, 64
7, 107712, Note_off_c, 0, 79, 64
7, 107717, Note_on_c, 0, 78, 54
7, 107828, Note_off_c, 0, 78, 64
7, 107830, Note_on_c, 0, 76, 60
7, 107940, Note_off_c, 0, 76, 64
7, 107954, Note_on_c, 0, 74, 70
7, 108066, Note_off_c, 0, 74, 64
7, 108069, Note_on_c, 0, 76, 68
7, 108179, Note_off_c, 0, 76, 64
7, 108184, Note_on_c, 0, 78, 57
7, 108312, Note_on_c, 0, 79, 64
7, 108314, Note_off_c, 0, 78, 64
7, 108399, Note_off_c, 0, 79, 64
7, 108434, Note_on_c, 0, 81, 82
7, 108522, Note_off_c, 0, 81, 64
7, 108684, Note_on_c, 0, 74, 78
7, 108751, Note_off_c, 0, 74, 64
7, 108919, Note_on_c, 0, 69, 72
7, 108998, Note_off_c, 0, 69, 64
7, 109175, Note_on_c, 0, 73, 66
7, 109260, Note_off_c, 0, 73, 64
7, 109424, Note_on_c, 0, 74, 76
7, 109652, Note_off_c, 0, 74, 64
7, 151666, Note_on_c, 0, 83, 85
7, 151747, Note_off_c, 0, 83, 64
7, 151898, Note_on_c, 0, 81, 80
7, 152235, Note_off_c, 0, 81, 64
7, 152371, Note_on_c, 0, 79, 82
7, 152487, Note_off_c, 0, 79, 64
7, 152620, Note_on_c, 0, 81, 80
7, 152728, Note_off_c, 0, 81, 64
7, 152729, Note_on_c, 0, 79, 82
7, 152823, Note_off_c, 0, 79, 64
7, 152853, Note_on_c, 0, 78, 74
7, 152952, Note_off_c, 0, 78, 64
7, 152967, Note_on_c, 0, 79, 74
7, 153061, Note_off_c, 0, 79, 64
7, 153098, Note_on_c, 0, 81, 76
7, 153189, Note_off_c, 0, 81, 64
7, 153335, Note_on_c, 0, 79, 76
7, 153413, Note_off_c, 0, 79, 64
7, 153567, Note_on_c, 0, 78, 55
7, 153645, Note_off_c, 0, 78, 64
7, 153811, Note_on_c, 0, 81, 70
7, 153886, Note_off_c, 0, 81, 64
7, 154054, Note_on_c, 0, 80, 58
7, 154128, Note_off_c, 0, 80, 64
7, 154298, Note_on_c, 0, 79, 68
7, 154373, Note_off_c, 0, 79, 64
7, 154539, Note_on_c, 0, 78, 57
7, 154611, Note_off_c, 0, 78, 64
7, 154778, Note_on_c, 0, 81, 70
7, 154851, Note_off_c, 0, 81, 64
7, 155002, Note_on_c, 0, 79, 66
7, 155077, Note_off_c, 0, 79, 64
7, 155245, Note_on_c, 0, 78, 60
7, 155320, Note_off_c, 0, 78, 64
7, 155491, Note_on_c, 0, 76, 70
7, 155568, Note_off_c, 0, 76, 64
7, 155732, Note_on_c, 0, 79, 78
7, 155807, Note_off_c, 0, 79, 64
7, 155962, Note_on_c, 0, 78, 60
7, 156038, Note_off_c, 0, 78, 64
7, 156202, Note_on_c, 0, 76, 68
7, 156273, Note_off_c, 0, 76, 64
7, 156447, Note_on_c, 0, 75, 64
7, 156527, Note_off_c, 0, 75, 64
7, 156684, Note_on_c, 0, 78, 62
7, 156753, Note_off_c, 0, 78, 64
7, 156936, Note_on_c, 0, 71, 72
7, 157014, Note_off_c, 0, 71, 64
7, 157182, Note_on_c, 0, 83, 80
7, 157251, Note_off_c, 0, 83, 64
7, 157424, Note_on_c, 0, 84, 93
7, 157505, Note_off_c, 0, 84, 64
7, 157669, Note_on_c, 0, 83, 82
7, 158037, Note_off_c, 0, 83, 64
7, 158156, Note_on_c, 0, 81, 74
7, 158265, Note_off_c, 0, 81, 64
7, 158400, Note_on_c, 0, 83, 87
7, 158493, Note_off_c, 0, 83, 64
7, 158512, Note_on_c, 0, 81, 78
7, 158603, Note_off_c, 0, 81, 64
7, 158621, Note_on_c, 0, 79, 78
7, 158712, Note_off_c, 0, 79, 64
7, 158727, Note_on_c, 0, 81, 78
7, 158805, Note_off_c, 0, 81, 64
7, 158845, Note_on_c, 0, 83, 82
7, 158943, Note_off_c, 0, 83, 64
7, 159082, Note_on_c, 0, 76, 78
7, 159174, Note_off_c, 0, 76, 64
7, 159327, Note_on_c, 0, 81, 87
7, 159416, Note_off_c, 0, 81, 64
7, 159571, Note_on_c, 0, 79, 82
7, 159940, Note_off_c, 0, 79, 64
7, 160060, Note_on_c, 0, 78, 64
7, 160180, Note_off_c, 0, 78, 64
7, 160306, Note_on_c, 0, 79, 85
7, 160410, Note_off_c, 0, 79, 64
7, 160420, Note_on_c, 0, 78, 93
7, 160523, Note_off_c, 0, 78, 64
7, 160536, Note_on_c, 0, 76, 58
7, 160640, Note_on_c, 0, 78, 68
7, 160644, Note_off_c, 0, 76, 64
7, 160733, Note_off_c, 0, 78, 64
7, 160768, Note_on_c, 0, 79, 82
7, 160872, Note_off_c, 0, 79, 64
7, 161018, Note_on_c, 0, 73, 62
7, 161109, Note_off_c, 0, 73, 64
7, 161266, Note_on_c, 0, 78, 82
7, 161357, Note_off_c, 0, 78, 64
7, 161501, Note_on_c, 0, 76, 78
7, 161859, Note_off_c, 0, 76, 64
7, 161977, Note_on_c, 0, 74, 66
7, 162096, Note_off_c, 0, 74, 64
7, 162225, Note_on_c, 0, 76, 89
7, 162329, Note_on_c, 0, 78, 63
7, 162347, Note_off_c, 0, 76, 64
7, 162428, Note_off_c, 0, 78, 64
7, 162455, Note_on_c, 0, 76, 62
7, 162568, Note_on_c, 0, 74, 66
7, 162571, Note_off_c, 0, 76, 64
7, 162701, Note_on_c, 0, 73, 62
7, 162703, Note_off_c, 0, 74, 64
7, 162807, Note_on_c, 0, 74, 68
7, 162824, Note_off_c, 0, 73, 64
7, 162920, Note_off_c, 0, 74, 64
7, 162927, Note_on_c, 0, 76, 66
7, 163030, Note_off_c, 0, 76, 64
7, 163050, Note_on_c, 0, 73, 64
7, 163155, Note_off_c, 0, 73, 64
7, 163159, Note_on_c, 0, 74, 72
7, 163276, Note_off_c, 0, 74, 64
7, 163276, Note_on_c, 0, 71, 59
7, 163369, Note_off_c, 0, 71, 64
7, 163400, Note_on_c, 0, 79, 76
7, 163511, Note_on_c, 0, 78, 66
7, 163526, Note_off_c, 0, 79, 64
7, 163602, Note_off_c, 0, 78, 64
7, 163633, Note_on_c, 0, 76, 80
7, 163739, Note_off_c, 0, 76, 64
7, 163743, Note_on_c, 0, 74, 68
7, 163866, Note_on_c, 0, 73, 55
7, 163869, Note_off_c, 0, 74, 64
7, 163971, Note_off_c, 0, 73, 64
7, 163971, Note_on_c, 0, 71, 64
7, 164073, Note_off_c, 0, 71, 64
7, 164113, Note_on_c, 0, 78, 60
7, 169864, Note_off_c, 0, 78, 64
7, 169875, Note_on_c, 0, 79, 59
7, 171812, Note_off_c, 0, 79, 64
7, 171834, Note_on_c, 0, 78, 60
7, 173731, Note_off_c, 0, 78, 64
7, 173762, Note_on_c, 0, 76, 66
7, 174889, Note_off_c, 0, 76, 64
7, 174946, Note_on_c, 0, 74, 66
7, 175054, Note_on_c, 0, 73, 62
7, 175059, Note_off_c, 0, 74, 64
7, 175181, Note_on_c, 0, 71, 62
7, 175194, Note_off_c, 0, 73, 64
7, 175296, Note_on_c, 0, 73, 56
7, 175320, Note_off_c, 0, 71, 64
7, 175418, Note_on_c, 0, 74, 63
7, 175425, Note_off_c, 0, 73, 64
7, 175533, Note_on_c, 0, 71, 57
7, 175577, Note_off_c, 0, 74, 64
7, 175628, Note_off_c, 0, 71, 64
7, 175666, Note_on_c, 0, 73, 64
7, 175776, Note_on_c, 0, 71, 49
7, 175787, Note_off_c, 0, 73, 64
7, 175876, Note_on_c, 0, 70, 57
7, 175902, Note_off_c, 0, 71, 64
7, 175982, Note_off_c, 0, 70, 64
7, 175985, Note_on_c, 0, 68, 47
7, 176104, Note_off_c, 0, 68, 64
7, 176117, Note_on_c, 0, 66, 53
7, 176297, Note_off_c, 0, 66, 64
7, 176850, Note_on_c, 0, 74, 59
7, 176928, Note_off_c, 0, 74, 64
7, 177098, Note_on_c, 0, 74, 58
7, 177580, Note_off_c, 0, 74, 64
7, 177795, Note_on_c, 0, 73, 53
7, 177882, Note_off_c, 0, 73, 64
7, 178059, Note_on_c, 0, 72, 55
7, 178546, Note_off_c, 0, 72, 64
7, 178771, Note_on_c, 0, 71, 70
7, 178853, Note_off_c, 0, 71, 64
7, 179030, Note_on_c, 0, 81, 63
7, 179540, Note_off_c, 0, 81, 64
7, 209286, Note_on_c, 0, 71, 76
7, 209678, Note_off_c, 0, 71, 64
7, 209685, Note_on_c, 0, 73, 62
7, 209736, Note_off_c, 0, 73, 64
7, 209740, Note_on_c, 0, 74, 76
7, 209789, Note_on_c, 0, 73, 62
7, 209795, Note_off_c, 0, 74, 64
7, 209816, Note_on_c, 0, 74, 76
7, 209818, Note_off_c, 0, 73, 64
7, 209844, Note_on_c, 0, 73, 60
7, 209849, Note_off_c, 0, 74, 64
7, 209865, Note_off_c, 0, 73, 64
7, 209867, Note_on_c, 0, 74, 72
7, 209889, Note_on_c, 0, 73, 63
7, 209903, Note_off_c, 0, 74, 64
7, 209919, Note_on_c, 0, 71, 78
7, 209926, Note_off_c, 0, 73, 64
7, 209952, Note_on_c, 0, 73, 59
7, 209969, Note_off_c, 0, 71, 64
7, 209989, Note_off_c, 0, 73, 64
7, 209989, Note_on_c, 0, 74, 72
7, 210123, Note_off_c, 0, 74, 64
7, 210167, Note_on_c, 0, 71, 68
7, 210212, Note_off_c, 0, 71, 64
7, 210242, Note_on_c, 0, 78, 100
7, 210363, Note_on_c, 0, 79, 80
7, 210372, Note_off_c, 0, 78, 64
7, 210621, Note_off_c, 0, 79, 64
7, 210647, Note_on_c, 0, 81, 78
7, 210682, Note_off_c, 0, 81, 64
7, 210712, Note_on_c, 0, 79, 89
7, 210769, Note_on_c, 0, 78, 58
7, 210781, Note_off_c, 0, 79, 64
7, 210876, Note_off_c, 0, 78, 64
7, 210891, Note_on_c, 0, 76, 82
7, 210926, Note_off_c, 0, 76, 64
7, 210952, Note_on_c, 0, 76, 80
7, 211023, Note_on_c, 0, 74, 59
7, 211032, Note_off_c, 0, 76, 64
7, 211114, Note_off_c, 0, 74, 64
7, 211141, Note_on_c, 0, 73, 68
7, 211177, Note_off_c, 0, 73, 64
7, 211199, Note_on_c, 0, 73, 85
7, 211263, Note_on_c, 0, 71, 60
7, 211279, Note_off_c, 0, 73, 64
7, 211353, Note_off_c, 0, 71, 64
7, 211377, Note_on_c, 0, 70, 76
7, 211413, Note_off_c, 0, 70, 64
7, 211439, Note_on_c, 0, 70, 82
7, 211558, Note_on_c, 0, 71, 59
7, 211574, Note_off_c, 0, 70, 64
7, 211816, Note_off_c, 0, 71, 64
7, 211838, Note_on_c, 0, 73, 57
7, 211864, Note_on_c, 0, 74, 68
7, 211872, Note_off_c, 0, 73, 64
7, 211895, Note_off_c, 0, 74, 64
7, 211922, Note_on_c, 0, 74, 87
7, 211957, Note_on_c, 0, 73, 57
7, 211964, Note_off_c, 0, 74, 64
7, 211984, Note_on_c, 0, 74, 70
7, 211989, Note_off_c, 0, 73, 64
7, 212010, Note_on_c, 0, 73, 64
7, 212031, Note_off_c, 0, 74, 64
7, 212098, Note_on_c, 0, 71, 80
7, 212101, Note_off_c, 0, 73, 64
7, 212138, Note_off_c, 0, 71, 64
7, 212151, Note_on_c, 0, 70, 68
7, 212296, Note_off_c, 0, 70, 64
7, 212337, Note_on_c, 0, 66, 78
7, 212383, Note_off_c, 0, 66, 64
7, 212393, Note_on_c, 0, 73, 64
7, 212466, Note_on_c, 0, 71, 66
7, 212486, Note_off_c, 0, 73, 64
7, 212513, Note_on_c, 0, 73, 59
7, 212517, Note_off_c, 0, 71, 64
7, 212551, Note_on_c, 0, 71, 66
7, 212562, Note_off_c, 0, 73, 64
7, 212588, Note_on_c, 0, 73, 58
7, 212589, Note_off_c, 0, 71, 64
7, 212619, Note_on_c, 0, 71, 72
7, 212628, Note_off_c, 0, 73, 64
7, 212649, Note_on_c, 0, 73, 58
7, 212652, Note_off_c, 0, 71, 64
7, 212676, Note_on_c, 0, 71, 61
7, 212682, Note_off_c, 0, 73, 64
7, 212701, Note_on_c, 0, 73, 60
7, 212704, Note_off_c, 0, 71, 64
7, 212727, Note_on_c, 0, 71, 56
7, 212730, Note_off_c, 0, 73, 64
7, 212746, Note_on_c, 0, 73, 78
7, 212756, Note_off_c, 0, 71, 64
7, 212774, Note_on_c, 0, 71, 64
7, 212789, Note_off_c, 0, 73, 64
7, 212808, Note_on_c, 0, 70, 78
7, 212817, Note_off_c, 0, 71, 64
7, 212839, Note_on_c, 0, 71, 68
7, 212854, Note_off_c, 0, 70, 64
7, 212887, Note_off_c, 0, 71, 64
7, 212887, Note_on_c, 0, 73, 58
7, 213220, Note_off_c, 0, 73, 64
7, 213286, Note_on_c, 0, 82, 68
7, 213338, Note_off_c, 0, 82, 64
7, 213346, Note_on_c, 0, 83, 82
7, 213440, Note_off_c, 0, 83, 64
7, 213526, Note_on_c, 0, 85, 70
7, 213576, Note_off_c, 0, 85, 64
7, 213587, Note_on_c, 0, 78, 78
7, 213700, Note_off_c, 0, 78, 64
7, 213759, Note_on_c, 0, 79, 87
7, 213799, Note_off_c, 0, 79, 64
7, 213832, Note_on_c, 0, 79, 87
7, 213944, Note_on_c, 0, 81, 64
7, 213957, Note_off_c, 0, 79, 64
7, 214407, Note_off_c, 0, 81, 64
7, 214487, Note_on_c, 0, 78, 80
7, 214528, Note_off_c, 0, 78, 64
7, 214554, Note_on_c, 0, 76, 85
7, 214671, Note_on_c, 0, 75, 42
7, 214683, Note_off_c, 0, 76, 64
7, 214761, Note_off_c, 0, 75, 64
7, 214793, Note_on_c, 0, 76, 72
7, 214909, Note_off_c, 0, 76, 64
7, 214960, Note_on_c, 0, 78, 59
7, 215010, Note_off_c, 0, 78, 64
7, 215032, Note_on_c, 0, 79, 82
7, 215148, Note_off_c, 0, 79, 64
7, 215202, Note_on_c, 0, 81, 70
7, 215237, Note_off_c, 0, 81, 64
7, 215277, Note_on_c, 0, 79, 82
7, 215399, Note_on_c, 0, 78, 55
7, 215410, Note_off_c, 0, 79, 64
7, 215861, Note_off_c, 0, 78, 64
7, 215925, Note_on_c, 0, 79, 80
7, 215975, Note_off_c, 0, 79, 64
7, 215992, Note_on_c, 0, 76, 89
7, 216094, Note_off_c, 0, 76, 64
7, 216165, Note_on_c, 0, 71, 72
7, 216211, Note_off_c, 0, 71, 64
7, 216228, Note_on_c, 0, 73, 80
7, 216347, Note_off_c, 0, 73, 64
7, 216394, Note_on_c, 0, 74, 76
7, 216435, Note_off_c, 0, 74, 64
7, 216467, Note_on_c, 0, 74, 87
7, 216593, Note_on_c, 0, 73, 55
7, 216606, Note_off_c, 0, 74, 64
7, 216840, Note_off_c, 0, 73, 64
7, 216875, Note_on_c, 0, 76, 80
7, 216922, Note_off_c, 0, 76, 64
7, 216947, Note_on_c, 0, 81, 91
7, 217334, Note_off_c, 0, 81, 64
7, 217367, Note_on_c, 0, 79, 68
7, 217396, Note_on_c, 0, 78, 58
7, 217409, Note_off_c, 0, 79, 64
7, 217437, Note_off_c, 0, 78, 64
7, 217439, Note_on_c, 0, 83, 91
7, 217556, Note_off_c, 0, 83, 64
7, 217594, Note_on_c, 0, 81, 66
7, 217626, Note_off_c, 0, 81, 64
7, 217659, Note_on_c, 0, 81, 85
7, 217689, Note_on_c, 0, 79, 89
7, 217698, Note_off_c, 0, 81, 64
7, 217717, Note_on_c, 0, 81, 60
7, 217718, Note_off_c, 0, 79, 64
7, 217737, Note_on_c, 0, 79, 82
7, 217746, Note_off_c, 0, 81, 64
7, 217803, Note_off_c, 0, 79, 64
7, 217838, Note_on_c, 0, 78, 74
7, 217875, Note_off_c, 0, 78, 64
7, 217905, Note_on_c, 0, 78, 87
7, 218027, Note_on_c, 0, 79, 64
7, 218029, Note_off_c, 0, 78, 64
7, 218296, Note_off_c, 0, 79, 64
7, 218345, Note_on_c, 0, 73, 57
7, 218374, Note_on_c, 0, 74, 70
7, 218380, Note_off_c, 0, 73, 64
7, 218404, Note_off_c, 0, 74, 64
7, 218408, Note_on_c, 0, 76, 89
7, 218527, Note_off_c, 0, 76, 64
7, 218570, Note_on_c, 0, 74, 66
7, 218600, Note_on_c, 0, 73, 61
7, 218601, Note_off_c, 0, 74, 64
7, 218641, Note_off_c, 0, 73, 64
7, 218650, Note_on_c, 0, 78, 89
7, 218992, Note_off_c, 0, 78, 64
7, 219034, Note_on_c, 0, 71, 70
7, 219060, Note_on_c, 0, 73, 62
7, 219075, Note_off_c, 0, 71, 64
7, 219096, Note_off_c, 0, 73, 64
7, 219108, Note_on_c, 0, 74, 85
7, 219221, Note_off_c, 0, 74, 64
7, 219272, Note_on_c, 0, 73, 47
7, 219298, Note_on_c, 0, 71, 68
7, 219315, Note_off_c, 0, 73, 64
7, 219341, Note_off_c, 0, 71, 64
7, 219350, Note_on_c, 0, 76, 68
7, 219703, Note_off_c, 0, 76, 64
7, 219765, Note_on_c, 0, 70, 68
7, 219807, Note_off_c, 0, 70, 64
7, 219822, Note_on_c, 0, 71, 76
7, 219919, Note_off_c, 0, 71, 64
7, 220003, Note_on_c, 0, 73, 62
7, 220052, Note_off_c, 0, 73, 64
7, 220070, Note_on_c, 0, 66, 74
7, 220426, Note_off_c, 0, 66, 64
7, 220482, Note_on_c, 0, 79, 78
7, 220516, Note_off_c, 0, 79, 64
7, 220549, Note_on_c, 0, 79, 85
7, 220663, Note_on_c, 0, 78, 66
7, 220683, Note_off_c, 0, 79, 64
7, 220916, Note_off_c, 0, 78, 64
7, 220963, Note_on_c, 0, 76, 72
7, 221006, Note_off_c, 0, 76, 64
7, 221026, Note_on_c, 0, 74, 66
7, 221202, Note_off_c, 0, 74, 64
7, 221260, Note_on_c, 0, 74, 66
7, 221303, Note_on_c, 0, 73, 51
7, 221308, Note_off_c, 0, 74, 64
7, 221326, Note_on_c, 0, 74, 70
7, 221330, Note_off_c, 0, 73, 64
7, 221354, Note_on_c, 0, 73, 63
7, 221361, Note_off_c, 0, 74, 64
7, 221383, Note_on_c, 0, 74, 68
7, 221409, Note_off_c, 0, 74, 64
7, 221454, Note_on_c, 0, 71, 57
7, 221459, Note_off_c, 0, 73, 64
7, 221493, Note_off_c, 0, 71, 64
7, 221526, Note_on_c, 0, 71, 68
7, 222245, Note_off_c, 0, 71, 64
7, 263377, Note_on_c, 0, 76, 64
7, 263498, Note_on_c, 0, 74, 59
7, 263499, Note_off_c, 0, 76, 64
7, 263601, Note_on_c, 0, 73, 56
7, 263612, Note_off_c, 0, 74, 64
7, 263709, Note_off_c, 0, 73, 64
7, 263740, Note_on_c, 0, 74, 80
7, 263813, Note_off_c, 0, 74, 64
7, 263973, Note_on_c, 0, 71, 64
7, 264037, Note_off_c, 0, 71, 64
7, 264229, Note_on_c, 0, 74, 85
7, 264306, Note_off_c, 0, 74, 64
7, 264459, Note_on_c, 0, 66, 61
7, 264522, Note_off_c, 0, 66, 64
7, 264712, Note_on_c, 0, 74, 72
7, 264772, Note_off_c, 0, 74, 64
7, 264935, Note_on_c, 0, 68, 60
7, 264998, Note_off_c, 0, 68, 64
7, 265183, Note_on_c, 0, 74, 72
7, 265248, Note_off_c, 0, 74, 64
7, 265409, Note_on_c, 0, 64, 64
7, 265488, Note_off_c, 0, 64, 64
7, 265652, Note_on_c, 0, 73, 64
7, 265723, Note_off_c, 0, 73, 64
7, 265883, Note_on_c, 0, 69, 62
7, 265947, Note_off_c, 0, 69, 64
7, 266140, Note_on_c, 0, 73, 58
7, 266208, Note_off_c, 0, 73, 64
7, 266372, Note_on_c, 0, 64, 61
7, 266449, Note_off_c, 0, 64, 64
7, 266627, Note_on_c, 0, 73, 66
7, 266708, Note_off_c, 0, 73, 64
7, 266846, Note_on_c, 0, 66, 59
7, 266919, Note_off_c, 0, 66, 64
7, 267083, Note_on_c, 0, 73, 72
7, 267174, Note_off_c, 0, 73, 64
7, 267320, Note_on_c, 0, 62, 59
7, 267404, Note_off_c, 0, 62, 64
7, 267572, Note_on_c, 0, 71, 82
7, 267636, Note_off_c, 0, 71, 64
7, 267795, Note_on_c, 0, 68, 66
7, 267858, Note_off_c, 0, 68, 64
7, 268041, Note_on_c, 0, 71, 80
7, 268114, Note_off_c, 0, 71, 64
7, 268282, Note_on_c, 0, 62, 63
7, 268358, Note_off_c, 0, 62, 64
7, 268526, Note_on_c, 0, 71, 76
7, 268592, Note_off_c, 0, 71, 64
7, 268756, Note_on_c, 0, 65, 66
7, 268825, Note_off_c, 0, 65, 64
7, 268997, Note_on_c, 0, 71, 70
7, 269084, Note_off_c, 0, 71, 64
7, 269226, Note_on_c, 0, 61, 61
7, 269310, Note_off_c, 0, 61, 64
7, 269491, Note_on_c, 0, 69, 80
7, 269595, Note_on_c, 0, 71, 68
7, 269604, Note_off_c, 0, 69, 64
7, 269715, Note_on_c, 0, 69, 63
7, 269739, Note_off_c, 0, 71, 64
7, 269838, Note_on_c, 0, 68, 62
7, 269847, Note_off_c, 0, 69, 64
7, 269965, Note_off_c, 0, 68, 64
7, 269971, Note_on_c, 0, 66, 55
7, 270042, Note_off_c, 0, 66, 64
7, 270213, Note_on_c, 0, 69, 63
7, 270288, Note_off_c, 0, 69, 64
7, 270458, Note_on_c, 0, 59, 66
7, 270547, Note_off_c, 0, 59, 64
7, 270702, Note_on_c, 0, 62, 64
7, 270762, Note_off_c, 0, 62, 64
7, 270936, Note_on_c, 0, 64, 63
7, 271007, Note_off_c, 0, 64, 64
7, 271180, Note_on_c, 0, 68, 68
7, 271277, Note_off_c, 0, 68, 64
7, 271415, Note_on_c, 0, 57, 63
7, 271506, Note_off_c, 0, 57, 64
7, 271651, Note_on_c, 0, 61, 62
7, 271731, Note_off_c, 0, 61, 64
7, 271897, Note_on_c, 0, 66, 66
7, 271979, Note_off_c, 0, 66, 64
7, 272145, Note_on_c, 0, 69, 72
7, 272221, Note_off_c, 0, 69, 64
7, 272377, Note_on_c, 0, 59, 70
7, 272470, Note_off_c, 0, 59, 64
7, 272616, Note_on_c, 0, 68, 72
7, 272703, Note_off_c, 0, 68, 64
7, 272845, Note_on_c, 0, 61, 63
7, 272935, Note_off_c, 0, 61, 64
7, 273093, Note_on_c, 0, 65, 66
7, 273174, Note_off_c, 0, 65, 64
7, 273329, Note_on_c, 0, 66, 57
7, 273878, Note_off_c, 0, 66, 64
7, 274542, Note_on_c, 0, 81, 82
7, 274609, Note_off_c, 0, 81, 64
7, 274782, Note_on_c, 0, 79, 82
7, 274848, Note_off_c, 0, 79, 64
7, 275018, Note_on_c, 0, 78, 64
7, 275096, Note_off_c, 0, 78, 64
7, 275268, Note_on_c, 0, 76, 76
7, 275361, Note_off_c, 0, 76, 64
7, 276462, Note_on_c, 0, 79, 82
7, 276541, Note_off_c, 0, 79, 64
7, 276705, Note_on_c, 0, 78, 64
7, 276778, Note_off_c, 0, 78, 64
7, 276946, Note_on_c, 0, 76, 78
7, 277020, Note_off_c, 0, 76, 64
7, 277186, Note_on_c, 0, 74, 78
7, 277281, Note_off_c, 0, 74, 64
7, 277931, Note_on_c, 0, 81, 95
7, 278002, Note_off_c, 0, 81, 64
7, 278160, Note_on_c, 0, 83, 89
7, 278239, Note_off_c, 0, 83, 64
7, 278392, Note_on_c, 0, 81, 80
7, 278764, Note_off_c, 0, 81, 64
7, 278874, Note_on_c, 0, 79, 74
7, 278983, Note_off_c, 0, 79, 64
7, 279116, Note_on_c, 0, 81, 85
7, 279224, Note_off_c, 0, 81, 64
7, 279227, Note_on_c, 0, 79, 85
7, 279341, Note_off_c, 0, 79, 64
7, 279341, Note_on_c, 0, 78, 63
7, 279432, Note_off_c, 0, 78, 64
7, 279455, Note_on_c, 0, 79, 78
7, 279541, Note_off_c, 0, 79, 64
7, 279578, Note_on_c, 0, 81, 82
7, 279671, Note_off_c, 0, 81, 64
7, 279813, Note_on_c, 0, 74, 72
7, 279911, Note_off_c, 0, 74, 64
7, 280063, Note_on_c, 0, 79, 80
7, 280149, Note_off_c, 0, 79, 64
7, 280309, Note_on_c, 0, 78, 85
7, 280685, Note_off_c, 0, 78, 64
7, 280794, Note_on_c, 0, 76, 70
7, 280913, Note_off_c, 0, 76, 64
7, 281041, Note_on_c, 0, 78, 95
7, 281141, Note_on_c, 0, 79, 68
7, 281167, Note_off_c, 0, 78, 64
7, 281241, Note_off_c, 0, 79, 64
7, 281258, Note_on_c, 0, 78, 58
7, 281363, Note_on_c, 0, 76, 62
7, 281367, Note_off_c, 0, 78, 64
7, 281465, Note_off_c, 0, 76, 64
7, 281493, Note_on_c, 0, 74, 72
7, 281834, Note_off_c, 0, 74, 64
7, 281980, Note_on_c, 0, 76, 70
7, 282042, Note_on_c, 0, 74, 60
7, 282060, Note_off_c, 0, 76, 64
7, 282117, Note_off_c, 0, 74, 64
7, 282117, Note_on_c, 0, 76, 66
7, 282164, Note_on_c, 0, 74, 63
7, 282171, Note_off_c, 0, 76, 64
7, 282222, Note_off_c, 0, 74, 64
7, 282222, Note_on_c, 0, 76, 60
7, 282264, Note_on_c, 0, 74, 60
7, 282274, Note_off_c, 0, 76, 64
7, 282310, Note_on_c, 0, 76, 60
7, 282311, Note_off_c, 0, 74, 64
7, 282357, Note_on_c, 0, 74, 63
7, 282367, Note_off_c, 0, 76, 64
7, 282405, Note_off_c, 0, 74, 64
7, 282409, Note_on_c, 0, 76, 55
7, 282447, Note_on_c, 0, 74, 68
7, 282454, Note_off_c, 0, 76, 64
7, 282498, Note_off_c, 0, 74, 64
7, 282503, Note_on_c, 0, 76, 61
7, 282542, Note_on_c, 0, 74, 70
7, 282553, Note_off_c, 0, 76, 64
7, 282595, Note_off_c, 0, 74, 64
7, 282596, Note_on_c, 0, 76, 60
7, 282637, Note_on_c, 0, 74, 68
7, 282653, Note_off_c, 0, 76, 64
7, 282686, Note_off_c, 0, 74, 64
7, 282695, Note_on_c, 0, 76, 57
7, 282731, Note_on_c, 0, 74, 66
7, 282746, Note_off_c, 0, 76, 64
7, 282782, Note_off_c, 0, 74, 64
7, 282786, Note_on_c, 0, 76, 60
7, 282828, Note_on_c, 0, 74, 64
7, 282841, Note_off_c, 0, 76, 64
7, 282877, Note_off_c, 0, 74, 64
7, 282883, Note_on_c, 0, 76, 57
7, 282917, Note_on_c, 0, 74, 66
7, 282930, Note_off_c, 0, 76, 64
7, 282968, Note_off_c, 0, 74, 64
7, 282969, Note_on_c, 0, 76, 61
7, 283014, Note_on_c, 0, 74, 68
7, 283027, Note_off_c, 0, 76, 64
7, 283065, Note_off_c, 0, 74, 64
7, 283068, Note_on_c, 0, 76, 60
7, 283113, Note_on_c, 0, 74, 68
7, 283127, Note_off_c, 0, 76, 64
7, 283160, Note_off_c, 0, 74, 64
7, 283164, Note_on_c, 0, 76, 63
7, 283200, Note_on_c, 0, 74, 63
7, 283218, Note_off_c, 0, 76, 64
7, 283251, Note_off_c, 0, 74, 64
7, 283253, Note_on_c, 0, 76, 66
7, 283295, Note_on_c, 0, 74, 62
7, 283313, Note_off_c, 0, 76, 64
7, 283346, Note_off_c, 0, 74, 64
7, 283348, Note_on_c, 0, 76, 62
7, 283388, Note_on_c, 0, 74, 64
7, 283404, Note_off_c, 0, 76, 64
7, 283446, Note_off_c, 0, 74, 64
7, 283448, Note_on_c, 0, 76, 66
7, 283481, Note_on_c, 0, 74, 66
7, 283499, Note_off_c, 0, 76, 64
7, 283539, Note_off_c, 0, 74, 64
7, 283539, Note_on_c, 0, 76, 62
7, 283585, Note_on_c, 0, 74, 64
7, 283598, Note_off_c, 0, 76, 64
7, 283638, Note_off_c, 0, 74, 64
7, 283642, Note_on_c, 0, 76, 64
7, 283680, Note_on_c, 0, 74, 63
7, 283694, Note_off_c, 0, 76, 64
7, 283733, Note_off_c, 0, 74, 64
7, 283742, Note_on_c, 0, 76, 66
7, 283773, Note_on_c, 0, 74, 61
7, 283793, Note_off_c, 0, 76, 64
7, 283831, Note_off_c, 0, 74, 64
7, 283837, Note_on_c, 0, 76, 62
7, 283873, Note_on_c, 0, 74, 59
7, 283893, Note_off_c, 0, 76, 64
7, 283926, Note_off_c, 0, 74, 64
7, 283941, Note_on_c, 0, 76, 61
7, 283972, Note_on_c, 0, 74, 59
7, 283990, Note_off_c, 0, 76, 64
7, 284023, Note_off_c, 0, 74, 64
7, 284030, Note_on_c, 0, 76, 64
7, 284070, Note_on_c, 0, 74, 59
7, 284081, Note_off_c, 0, 76, 64
7, 284119, Note_off_c, 0, 74, 64
7, 284130, Note_on_c, 0, 76, 61
7, 284169, Note_on_c, 0, 74, 60
7, 284181, Note_off_c, 0, 76, 64
7, 284216, Note_off_c, 0, 74, 64
7, 284229, Note_on_c, 0, 76, 60
7, 284265, Note_on_c, 0, 74, 60
7, 284278, Note_off_c, 0, 76, 64
7, 284316, Note_off_c, 0, 74, 64
7, 284326, Note_on_c, 0, 76, 64
7, 284366, Note_on_c, 0, 74, 62
7, 284380, Note_off_c, 0, 76, 64
7, 284415, Note_off_c, 0, 74, 64
7, 284426, Note_on_c, 0, 76, 60
7, 284468, Note_on_c, 0, 74, 60
7, 284486, Note_off_c, 0, 76, 64
7, 284521, Note_off_c, 0, 74, 64
7, 284528, Note_on_c, 0, 76, 64
7, 284574, Note_on_c, 0, 74, 62
7, 284588, Note_off_c, 0, 76, 64
7, 284621, Note_off_c, 0, 74, 64
7, 284632, Note_on_c, 0, 76, 62
7, 284678, Note_on_c, 0, 74, 62
7, 284696, Note_off_c, 0, 76, 64
7, 284730, Note_off_c, 0, 74, 64
7, 284734, Note_on_c, 0, 76, 60
7, 284774, Note_on_c, 0, 74, 62
7, 284789, Note_off_c, 0, 76, 64
7, 284829, Note_on_c, 0, 76, 66
7, 284836, Note_off_c, 0, 74, 64
7, 284884, Note_on_c, 0, 74, 68
7, 284909, Note_off_c, 0, 76, 64
7, 285053, Note_off_c, 0, 74, 64
7, 285108, Note_on_c, 0, 62, 78
7, 285214, Note_on_c, 0, 64, 66
7, 285238, Note_off_c, 0, 62, 64
7, 285309, Note_off_c, 0, 64, 64
7, 285321, Note_on_c, 0, 66, 64
7, 285440, Note_on_c, 0, 67, 59
7, 285446, Note_off_c, 0, 66, 64
7, 285549, Note_off_c, 0, 67, 64
7, 285568, Note_on_c, 0, 69, 57
7, 285663, Note_on_c, 0, 71, 70
7, 285670, Note_off_c, 0, 69, 64
7, 285740, Note_off_c, 0, 71, 64
7, 285787, Note_on_c, 0, 72, 66
7, 285911, Note_on_c, 0, 74, 60
7, 285927, Note_off_c, 0, 72, 64
7, 286009, Note_off_c, 0, 74, 64
7, 286035, Note_on_c, 0, 72, 59
7, 286144, Note_off_c, 0, 72, 64
7, 286146, Note_on_c, 0, 71, 58
7, 286243, Note_off_c, 0, 71, 64
7, 286272, Note_on_c, 0, 69, 74
7, 286381, Note_on_c, 0, 74, 66
7, 286396, Note_off_c, 0, 69, 64
7, 286491, Note_off_c, 0, 74, 64
7, 286505, Note_on_c, 0, 72, 59
7, 286622, Note_on_c, 0, 74, 63
7, 286655, Note_off_c, 0, 72, 64
7, 286702, Note_off_c, 0, 74, 64
7, 286750, Note_on_c, 0, 71, 72
7, 286850, Note_on_c, 0, 72, 68
7, 286879, Note_off_c, 0, 71, 64
7, 286978, Note_off_c, 0, 72, 64
7, 286981, Note_on_c, 0, 71, 60
7, 287093, Note_off_c, 0, 71, 64
7, 287100, Note_on_c, 0, 69, 58
7, 287197, Note_off_c, 0, 69, 64
7, 287224, Note_on_c, 0, 67, 72
7, 287337, Note_off_c, 0, 67, 64
7, 287341, Note_on_c, 0, 69, 70
7, 287443, Note_off_c, 0, 69, 64
7, 287466, Note_on_c, 0, 71, 60
7, 287572, Note_off_c, 0, 71, 64
7, 287596, Note_on_c, 0, 73, 59
7, 287671, Note_off_c, 0, 73, 64
7, 287716, Note_on_c, 0, 74, 85
7, 287837, Note_on_c, 0, 76, 64
7, 287842, Note_off_c, 0, 74, 64
7, 287941, Note_off_c, 0, 76, 64
7, 287964, Note_on_c, 0, 74, 60
7, 288068, Note_off_c, 0, 74, 64
7, 288074, Note_on_c, 0, 73, 58
7, 288183, Note_off_c, 0, 73, 64
7, 288207, Note_on_c, 0, 71, 70
7, 288320, Note_on_c, 0, 76, 60
7, 288322, Note_off_c, 0, 71, 64
7, 288428, Note_off_c, 0, 76, 64
7, 288440, Note_on_c, 0, 74, 63
7, 288555, Note_on_c, 0, 76, 57
7, 288563, Note_off_c, 0, 74, 64
7, 288658, Note_off_c, 0, 76, 64
7, 288683, Note_on_c, 0, 73, 63
7, 288796, Note_on_c, 0, 71, 62
7, 288798, Note_off_c, 0, 73, 64
7, 288890, Note_off_c, 0, 71, 64
7, 288922, Note_on_c, 0, 69, 59
7, 289033, Note_off_c, 0, 69, 64
7, 289033, Note_on_c, 0, 71, 57
7, 289166, Note_off_c, 0, 71, 64
7, 289166, Note_on_c, 0, 73, 53
7, 289280, Note_off_c, 0, 73, 64
7, 289287, Note_on_c, 0, 74, 78
7, 289385, Note_off_c, 0, 74, 64
7, 289399, Note_on_c, 0, 76, 60
7, 289500, Note_off_c, 0, 76, 64
7, 289509, Note_on_c, 0, 78, 70
7, 289595, Note_off_c, 0, 78, 64
7, 289632, Note_on_c, 0, 79, 89
7, 289739, Note_on_c, 0, 81, 66
7, 289741, Note_off_c, 0, 79, 64
7, 289880, Note_on_c, 0, 79, 64
7, 289887, Note_off_c, 0, 81, 64
7, 289987, Note_off_c, 0, 79, 64
7, 289995, Note_on_c, 0, 78, 56
7, 290089, Note_off_c, 0, 78, 64
7, 290115, Note_on_c, 0, 76, 68
7, 290215, Note_off_c, 0, 76, 64
7, 290224, Note_on_c, 0, 81, 66
7, 290343, Note_off_c, 0, 81, 64
7, 290352, Note_on_c, 0, 79, 66
7, 290465, Note_on_c, 0, 81, 64
7, 290469, Note_off_c, 0, 79, 64
7, 290586, Note_off_c, 0, 81, 64
7, 290606, Note_on_c, 0, 78, 80
7, 290697, Note_on_c, 0, 79, 66
7, 290700, Note_off_c, 0, 78, 64
7, 290832, Note_off_c, 0, 79, 64
7, 290837, Note_on_c, 0, 78, 54
7, 290948, Note_off_c, 0, 78, 64
7, 290950, Note_on_c, 0, 76, 60
7, 291060, Note_off_c, 0, 76, 64
7, 291074, Note_on_c, 0, 74, 70
7, 291186, Note_off_c, 0, 74, 64
7, 291189, Note_on_c, 0, 76, 68
7, 291299, Note_off_c, 0, 76, 64
7, 291304, Note_on_c, 0, 78, 57
7, 291432, Note_on_c, 0, 79, 64
7, 291434, Note_off_c, 0, 78, 64
7, 291519, Note_off_c, 0, 79, 64
7, 291554, Note_on_c, 0, 81, 82
7, 291642, Note_off_c, 0, 81, 64
7, 291804, Note_on_c, 0, 74, 78
7, 291871, Note_off_c, 0, 74, 64
7, 292039, Note_on_c, 0, 69, 72
7, 292118, Note_off_c, 0, 69, 64
7, 292295, Note_on_c, 0, 73, 66
7, 292380, Note_off_c, 0, 73, 64
7, 292544, Note_on_c, 0, 74, 76
7, 292772, Note_off_c, 0, 74, 64
7, 334786, Note_on_c, 0, 83, 85
7, 334867, Note_off_c, 0, 83, 64
7, 335018, Note_on_c, 0, 81, 80
7, 335355, Note_off_c, 0, 81, 64
7, 335491, Note_on_c, 0, 79, 82
7, 335607, Note_off_c, 0, 79, 64
7, 335740, Note_on_c, 0, 81, 80
7, 335848, Note_off_c, 0, 81, 64
7, 335849, Note_on_c, 0, 79, 82
7, 335943, Note_off_c, 0, 79, 64
7, 335973, Note_on_c, 0, 78, 74
7, 336072, Note_off_c, 0, 78, 64
7, 336087, Note_on_c, 0, 79, 74
7, 336181, Note_off_c, 0, 79, 64
7, 336218, Note_on_c, 0, 81, 76
7, 336309, Note_off_c, 0, 81, 64
7, 336455, Note_on_c, 0, 79, 76
7, 336533, Note_off_c, 0, 79, 64
7, 336687, Note_on_c, 0, 78, 55
7, 336765, Note_off_c, 0, 78, 64
7, 336931, Note_on_c, 0, 81, 70
7, 337006, Note_off_c, 0, 81, 64
7, 337174, Note_on_c, 0, 80, 58
7, 337248, Note_off_c, 0, 80, 64
7, 337418, Note_on_c, 0, 79, 68
7, 337493, Note_off_c, 0, 79, 64
7, 337659, Note_on_c, 0, 78, 57
7, 337731, Note_off_c, 0, 78, 64
7, 337898, Note_on_c, 0, 81, 70
7, 337971, Note_off_c, 0, 81, 64
7, 338122, Note_on_c, 0, 79, 66
7, 338197, Note_off_c, 0, 79, 64
7, 338365, Note_on_c, 0, 78, 60
7, 338440, Note_off_c, 0, 78, 64
7, 338611, Note_on_c, 0, 76, 70
7, 338688, Note_off_c, 0, 76, 64
7, 338852, Note_on_c, 0, 79, 78
7, 338927, Note_off_c, 0, 79, 64
7, 339082, Note_on_c, 0, 78, 60
7, 339158, Note_off_c, 0, 78, 64
7, 339322, Note_on_c, 0, 76, 68
7, 339393, Note_off_c, 0, 76, 64
7, 339567, Note_on_c, 0, 75, 64
7, 339647, Note_off_c, 0, 75, 64
7, 339804, Note_on_c, 0, 78, 62
7, 339873, Note_off_c, 0, 78, 64
7, 340056, Note_on_c, 0, 71, 72
7, 340134, Note_off_c, 0, 71, 64
7, 340302, Note_on_c, 0, 83, 80
7, 340371, Note_off_c, 0, 83, 64
7, 340544, Note_on_c, 0, 84, 93
7, 340625, Note_off_c, 0, 84, 64
7, 340789, Note_on_c, 0, 83, 82
7, 341157, Note_off_c, 0, 83, 64
7, 341276, Note_on_c, 0, 81, 74
7, 341385, Note_off_c, 0, 81, 64
7, 341520, Note_on_c, 0, 83, 87
7, 341613, Note_off_c, 0, 83, 64
7, 341632, Note_on_c, 0, 81, 78
7, 341723, Note_off_c, 0, 81, 64
7, 341741, Note_on_c, 0, 79, 78
7, 341832, Note_off_c, 0, 79, 64
7, 341847, Note_on_c, 0, 81, 78
7, 341925, Note_off_c, 0, 81, 64
7, 341965, Note_on_c, 0, 83, 82
7, 342063, Note_off_c, 0, 83, 64
7, 342202, Note_on_c, 0, 76, 78
7, 342294, Note_off_c, 0, 76, 64
7, 342447, Note_on_c, 0, 81, 87
7, 342536, Note_off_c, 0, 81, 64
7, 342691, Note_on_c, 0, 79, 82
7, 343060, Note_off_c, 0, 79, 64
7, 343180, Note_on_c, 0, 78, 64
7, 343300, Note_off_c, 0, 78, 64
7, 343426, Note_on_c, 0, 79, 85
7, 343530, Note_off_c, 0, 79, 64
7, 343540, Note_on_c, 0, 78, 93
7, 343643, Note_off_c, 0, 78, 64
7, 343656, Note_on_c, 0, 76, 58
7, 343760, Note_on_c, 0, 78, 68
7, 343764, Note_off_c, 0, 76, 64
7, 343853, Note_off_c, 0, 78, 64
7, 343888, Note_on_c, 0, 79, 82
7, 343992, Note_off_c, 0, 79, 64
7, 344138, Note_on_c, 0, 73, 62
7, 344229, Note_off_c, 0, 73, 64
7, 344386, Note_on_c, 0, 78, 82
7, 344477, Note_off_c, 0, 78, 64
7, 344621, Note_on_c, 0, 76, 78
7, 344979, Note_off_c, 0, 76, 64
7, 345097, Note_on_c, 0, 74, 66
7, 345216, Note_off_c, 0, 74, 64
7, 345345, Note_on_c, 0, 76, 89
7, 345449, Note_on_c, 0, 78, 63
7, 345467, Note_off_c, 0, 76, 64
7, 345548, Note_off_c, 0, 78, 64
7, 345575, Note_on_c, 0, 76, 62
7, 345688, Note_on_c, 0, 74, 66
7, 345691, Note_off_c, 0, 76, 64
7, 345821, Note_on_c, 0, 73, 62
7, 345823, Note_off_c, 0, 74, 64
7, 345927, Note_on_c, 0, 74, 68
7, 345944, Note_off_c, 0, 73, 64
7, 346040, Note_off_c, 0, 74, 64
7, 346047, Note_on_c, 0, 76, 66
7, 346150, Note_off_c, 0, 76, 64
7, 346170, Note_on_c, 0, 73, 64
7, 346275, Note_off_c, 0, 73, 64
7, 346279, Note_on_c, 0, 74, 72
7, 346396, Note_off_c, 0, 74, 64
7, 346396, Note_on_c, 0, 71, 59
7, 346489, Note_off_c, 0, 71, 64
7, 346520, Note_on_c, 0, 79, 76
7, 346631, Note_on_c, 0, 78, 66
7, 346646, Note_off_c, 0, 79, 64
7, 346722, Note_off_c, 0, 78, 64
7, 346753, Note_on_c, 0, 76, 80
7, 346859, Note_off_c, 0, 76, 64
7, 346863, Note_on_c, 0, 74, 68
7, 346986, Note_on_c, 0, 73, 55
7, 346989, Note_off_c, 0, 74, 64
7, 347091, Note_off_c, 0, 73, 64
7, 347091, Note_on_c, 0, 71, 64
7, 347193, Note_off_c, 0, 71, 64
7, 347233, Note_on_c, 0, 78, 60
7, 352984, Note_off_c, 0, 78, 64
7, 352995, Note_on_c, 0, 79, 59
7, 354932, Note_off_c, 0, 79, 64
7, 354954, Note_on_c, 0, 78, 60
7, 356851, Note_off_c, 0, 78, 64
7, 356882, Note_on_c, 0, 76, 66
7, 358009, Note_off_c, 0, 76, 64
7, 358066, Note_on_c, 0, 74, 66
7, 358174, Note_on_c, 0, 73, 62
7, 358179, Note_off_c, 0, 74, 64
7, 358301, Note_on_c, 0, 71, 62
7, 358314, Note_off_c, 0, 73, 64
7, 358416, Note_on_c, 0, 73, 56
7, 358440, Note_off_c, 0, 71, 64
7, 358538, Note_on_c, 0, 74, 63
7, 358545, Note_off_c, 0, 73, 64
7, 358653, Note_on_c, 0, 71, 57
7, 358697, Note_off_c, 0, 74, 64
7, 358748, Note_off_c, 0, 71, 64
7, 358786, Note_on_c, 0, 73, 64
7, 358896, Note_on_c, 0, 71, 49
7, 358907, Note_off_c, 0, 73, 64
7, 358996, Note_on_c, 0, 70, 57
7, 359022, Note_off_c, 0, 71, 64
7, 359102, Note_off_c, 0, 70, 64
7, 359105, Note_on_c, 0, 68, 47
7, 359224, Note_off_c, 0, 68, 64
7, 359237, Note_on_c, 0, 66, 53
7, 359417, Note_off_c, 0, 66, 64
7, 359970, Note_on_c, 0, 74, 59
7, 360048, Note_off_c, 0, 74, 64
7, 360218, Note_on_c, 0, 74, 58
7, 360700, Note_off_c, 0, 74, 64
7, 360915, Note_on_c, 0, 73, 53
7, 361002, Note_off_c, 0, 73, 64
7, 361179, Note_on_c, 0, 72, 55
7, 361666, Note_off_c, 0, 72, 64
7, 361891, Note_on_c, 0, 71, 70
7, 361973, Note_off_c, 0, 71, 64
7, 362150, Note_on_c, 0, 81, 63
7, 362660, Note_off_c, 0, 81, 64
7, 392399, Note_on_c, 0, 71, 70
7, 392794, Note_off_c, 0, 71, 64
7, 392803, Note_on_c, 0, 73, 64
7, 392860, Note_on_c, 0, 74, 80
7, 392861, Note_off_c, 0, 73, 64
7, 392904, Note_on_c, 0, 73, 64
7, 392911, Note_off_c, 0, 74, 64
7, 392934, Note_off_c, 0, 73, 64
7, 392934, Note_on_c, 0, 74, 74
7, 392959, Note_on_c, 0, 73, 58
7, 392966, Note_off_c, 0, 74, 64
7, 392980, Note_on_c, 0, 74, 74
7, 392981, Note_off_c, 0, 73, 64
7, 393004, Note_on_c, 0, 73, 63
7, 393020, Note_off_c, 0, 74, 64
7, 393037, Note_on_c, 0, 71, 80
7, 393046, Note_off_c, 0, 73, 64
7, 393072, Note_on_c, 0, 73, 59
7, 393092, Note_off_c, 0, 71, 64
7, 393104, Note_off_c, 0, 73, 64
7, 393104, Note_on_c, 0, 74, 68
7, 393246, Note_off_c, 0, 74, 64
7, 393302, Note_on_c, 0, 71, 66
7, 393338, Note_off_c, 0, 71, 64
7, 393371, Note_on_c, 0, 78, 98
7, 393487, Note_on_c, 0, 79, 76
7, 393499, Note_off_c, 0, 78, 64
7, 393730, Note_off_c, 0, 79, 64
7, 393766, Note_on_c, 0, 81, 68
7, 393797, Note_off_c, 0, 81, 64
7, 393827, Note_on_c, 0, 79, 87
7, 393884, Note_on_c, 0, 78, 47
7, 393898, Note_off_c, 0, 79, 64
7, 393972, Note_off_c, 0, 78, 64
7, 394013, Note_on_c, 0, 76, 66
7, 394044, Note_off_c, 0, 76, 64
7, 394074, Note_on_c, 0, 76, 89
7, 394135, Note_on_c, 0, 74, 63
7, 394151, Note_off_c, 0, 76, 64
7, 394190, Note_off_c, 0, 74, 64
7, 394252, Note_on_c, 0, 73, 63
7, 394284, Note_off_c, 0, 73, 64
7, 394311, Note_on_c, 0, 73, 93
7, 394366, Note_on_c, 0, 71, 57
7, 394381, Note_off_c, 0, 73, 64
7, 394426, Note_off_c, 0, 71, 64
7, 394486, Note_on_c, 0, 70, 72
7, 394526, Note_off_c, 0, 70, 64
7, 394550, Note_on_c, 0, 70, 82
7, 394665, Note_on_c, 0, 71, 66
7, 394679, Note_off_c, 0, 70, 64
7, 394937, Note_off_c, 0, 71, 64
7, 394956, Note_on_c, 0, 73, 56
7, 394986, Note_on_c, 0, 74, 74
7, 394995, Note_off_c, 0, 73, 64
7, 395018, Note_off_c, 0, 74, 64
7, 395040, Note_on_c, 0, 74, 85
7, 395076, Note_on_c, 0, 73, 57
7, 395086, Note_off_c, 0, 74, 64
7, 395100, Note_on_c, 0, 74, 68
7, 395107, Note_off_c, 0, 73, 64
7, 395127, Note_on_c, 0, 73, 66
7, 395141, Note_off_c, 0, 74, 64
7, 395210, Note_off_c, 0, 73, 64
7, 395214, Note_on_c, 0, 71, 82
7, 395255, Note_off_c, 0, 71, 64
7, 395270, Note_on_c, 0, 70, 80
7, 395428, Note_off_c, 0, 70, 64
7, 395459, Note_on_c, 0, 66, 87
7, 395500, Note_off_c, 0, 66, 64
7, 395516, Note_on_c, 0, 73, 72
7, 395600, Note_on_c, 0, 71, 68
7, 395617, Note_off_c, 0, 73, 64
7, 395646, Note_on_c, 0, 73, 60
7, 395650, Note_off_c, 0, 71, 64
7, 395685, Note_on_c, 0, 71, 76
7, 395694, Note_off_c, 0, 73, 64
7, 395719, Note_on_c, 0, 73, 57
7, 395720, Note_off_c, 0, 71, 64
7, 395746, Note_on_c, 0, 71, 70
7, 395754, Note_off_c, 0, 73, 64
7, 395775, Note_on_c, 0, 73, 58
7, 395776, Note_off_c, 0, 71, 64
7, 395799, Note_on_c, 0, 71, 68
7, 395803, Note_off_c, 0, 73, 64
7, 395823, Note_on_c, 0, 73, 82
7, 395829, Note_off_c, 0, 71, 64
7, 395850, Note_on_c, 0, 71, 76
7, 395853, Note_off_c, 0, 73, 64
7, 395868, Note_on_c, 0, 73, 64
7, 395874, Note_off_c, 0, 71, 64
7, 395892, Note_on_c, 0, 71, 72
7, 395907, Note_off_c, 0, 73, 64
7, 395921, Note_on_c, 0, 70, 66
7, 395924, Note_off_c, 0, 71, 64
7, 395950, Note_on_c, 0, 71, 61
7, 395965, Note_off_c, 0, 70, 64
7, 396002, Note_off_c, 0, 71, 64
7, 396004, Note_on_c, 0, 73, 62
7, 396364, Note_off_c, 0, 73, 64
7, 396420, Note_on_c, 0, 82, 72
7, 396465, Note_off_c, 0, 82, 64
7, 396477, Note_on_c, 0, 83, 85
7, 396570, Note_off_c, 0, 83, 64
7, 396654, Note_on_c, 0, 85, 76
7, 396697, Note_off_c, 0, 85, 64
7, 396714, Note_on_c, 0, 78, 80
7, 396819, Note_off_c, 0, 78, 64
7, 396882, Note_on_c, 0, 79, 82
7, 396919, Note_off_c, 0, 79, 64
7, 396957, Note_on_c, 0, 79, 85
7, 397074, Note_on_c, 0, 81, 66
7, 397086, Note_off_c, 0, 79, 64
7, 397549, Note_off_c, 0, 81, 64
7, 397598, Note_on_c, 0, 78, 76
7, 397627, Note_off_c, 0, 78, 64
7, 397663, Note_on_c, 0, 76, 87
7, 397787, Note_on_c, 0, 75, 64
7, 397789, Note_off_c, 0, 76, 64
7, 397877, Note_off_c, 0, 75, 64
7, 397912, Note_on_c, 0, 76, 82
7, 398022, Note_off_c, 0, 76, 64
7, 398096, Note_on_c, 0, 78, 60
7, 398143, Note_off_c, 0, 78, 64
7, 398160, Note_on_c, 0, 79, 85
7, 398279, Note_off_c, 0, 79, 64
7, 398329, Note_on_c, 0, 81, 72
7, 398365, Note_off_c, 0, 81, 64
7, 398399, Note_on_c, 0, 79, 89
7, 398518, Note_on_c, 0, 78, 57
7, 398529, Note_off_c, 0, 79, 64
7, 398997, Note_off_c, 0, 78, 64
7, 399055, Note_on_c, 0, 79, 82
7, 399105, Note_off_c, 0, 79, 64
7, 399115, Note_on_c, 0, 76, 89
7, 399205, Note_off_c, 0, 76, 64
7, 399279, Note_on_c, 0, 71, 74
7, 399324, Note_off_c, 0, 71, 64
7, 399341, Note_on_c, 0, 73, 80
7, 399442, Note_off_c, 0, 73, 64
7, 399518, Note_on_c, 0, 74, 82
7, 399563, Note_off_c, 0, 74, 64
7, 399586, Note_on_c, 0, 74, 85
7, 399714, Note_on_c, 0, 73, 56
7, 399720, Note_off_c, 0, 74, 64
7, 399961, Note_off_c, 0, 73, 64
7, 400010, Note_on_c, 0, 76, 80
7, 400048, Note_off_c, 0, 76, 64
7, 400076, Note_on_c, 0, 81, 95
7, 400451, Note_off_c, 0, 81, 64
7, 400488, Note_on_c, 0, 79, 70
7, 400514, Note_on_c, 0, 78, 70
7, 400531, Note_off_c, 0, 79, 64
7, 400554, Note_off_c, 0, 78, 64
7, 400560, Note_on_c, 0, 83, 91
7, 400668, Note_off_c, 0, 83, 64
7, 400712, Note_on_c, 0, 81, 70
7, 400747, Note_off_c, 0, 81, 64
7, 400778, Note_on_c, 0, 81, 76
7, 400809, Note_on_c, 0, 79, 85
7, 400814, Note_off_c, 0, 81, 64
7, 400837, Note_on_c, 0, 81, 76
7, 400840, Note_off_c, 0, 79, 64
7, 400860, Note_on_c, 0, 79, 87
7, 400868, Note_off_c, 0, 81, 64
7, 400920, Note_off_c, 0, 79, 64
7, 400968, Note_on_c, 0, 78, 82
7, 401003, Note_off_c, 0, 78, 64
7, 401032, Note_on_c, 0, 78, 98
7, 401140, Note_on_c, 0, 79, 72
7, 401143, Note_off_c, 0, 78, 64
7, 401406, Note_off_c, 0, 79, 64
7, 401450, Note_on_c, 0, 73, 64
7, 401477, Note_on_c, 0, 74, 85
7, 401484, Note_off_c, 0, 73, 64
7, 401512, Note_off_c, 0, 74, 64
7, 401522, Note_on_c, 0, 76, 89
7, 401621, Note_off_c, 0, 76, 64
7, 401683, Note_on_c, 0, 74, 72
7, 401714, Note_on_c, 0, 73, 64
7, 401721, Note_off_c, 0, 74, 64
7, 401756, Note_off_c, 0, 73, 64
7, 401760, Note_on_c, 0, 78, 87
7, 402111, Note_off_c, 0, 78, 64
7, 402149, Note_on_c, 0, 71, 66
7, 402173, Note_on_c, 0, 73, 72
7, 402194, Note_off_c, 0, 71, 64
7, 402211, Note_off_c, 0, 73, 64
7, 402226, Note_on_c, 0, 74, 91
7, 402338, Note_off_c, 0, 74, 64
7, 402389, Note_on_c, 0, 73, 59
7, 402417, Note_on_c, 0, 71, 74
7, 402432, Note_off_c, 0, 73, 64
7, 402460, Note_on_c, 0, 76, 74
7, 402466, Note_off_c, 0, 71, 64
7, 402493, Note_on_c, 0, 74, 68
7, 402498, Note_off_c, 0, 76, 64
7, 402530, Note_on_c, 0, 76, 74
7, 402534, Note_off_c, 0, 74, 64
7, 402848, Note_off_c, 0, 76, 64
7, 402884, Note_on_c, 0, 70, 66
7, 402933, Note_off_c, 0, 70, 64
7, 402944, Note_on_c, 0, 71, 82
7, 403042, Note_off_c, 0, 71, 64
7, 403122, Note_on_c, 0, 73, 62
7, 403172, Note_off_c, 0, 73, 64
7, 403186, Note_on_c, 0, 66, 74
7, 403537, Note_off_c, 0, 66, 64
7, 403606, Note_on_c, 0, 79, 89
7, 403642, Note_off_c, 0, 79, 64
7, 403670, Note_on_c, 0, 79, 91
7, 403792, Note_on_c, 0, 78, 57
7, 403808, Note_off_c, 0, 79, 64
7, 404042, Note_off_c, 0, 78, 64
7, 404092, Note_on_c, 0, 76, 74
7, 404140, Note_off_c, 0, 76, 64
7, 404147, Note_on_c, 0, 74, 70
7, 404337, Note_off_c, 0, 74, 64
7, 404388, Note_on_c, 0, 74, 70
7, 404430, Note_on_c, 0, 73, 63
7, 404439, Note_off_c, 0, 74, 64
7, 404456, Note_on_c, 0, 74, 70
7, 404460, Note_off_c, 0, 73, 64
7, 404485, Note_on_c, 0, 73, 62
7, 404502, Note_off_c, 0, 74, 64
7, 404559, Note_on_c, 0, 71, 80
7, 404564, Note_off_c, 0, 73, 64
7, 404607, Note_off_c, 0, 71, 64
7, 404644, Note_on_c, 0, 71, 82
7, 405613, Note_off_c, 0, 71, 64
7, 405613, End_track
8, 0, Start_track
8, 0, Title_t, "Violin2"
8, 0, Program_c, 1, 40
8, 0, Control_c, 1, 7, 100
8, 20163, Note_on_c, 1, 66, 74
8, 20440, Note_off_c, 1, 66, 64
8, 20563, Note_on_c, 1, 70, 82
8, 20596, Note_off_c, 1, 70, 64
8, 20628, Note_on_c, 1, 70, 100
8, 20749, Note_on_c, 1, 71, 70
8, 20762, Note_off_c, 1, 70, 64
8, 20972, Note_off_c, 1, 71, 64
8, 21064, Note_on_c, 1, 73, 64
8, 21098, Note_off_c, 1, 73, 64
8, 21119, Note_on_c, 1, 74, 93
8, 21247, Note_off_c, 1, 74, 64
8, 21294, Note_on_c, 1, 73, 51
8, 21317, Note_on_c, 1, 71, 70
8, 21327, Note_off_c, 1, 73, 64
8, 21357, Note_off_c, 1, 71, 64
8, 21357, Note_on_c, 1, 70, 70
8, 21459, Note_off_c, 1, 70, 64
8, 21544, Note_on_c, 1, 70, 78
8, 21581, Note_off_c, 1, 70, 64
8, 21588, Note_on_c, 1, 71, 76
8, 21704, Note_off_c, 1, 71, 64
8, 21775, Note_on_c, 1, 74, 80
8, 21801, Note_off_c, 1, 74, 64
8, 21832, Note_on_c, 1, 74, 85
8, 21854, Note_on_c, 1, 73, 85
8, 21860, Note_off_c, 1, 74, 64
8, 21877, Note_on_c, 1, 74, 70
8, 21882, Note_off_c, 1, 73, 64
8, 21902, Note_on_c, 1, 73, 68
8, 21916, Note_off_c, 1, 74, 64
8, 21954, Note_off_c, 1, 73, 64
8, 22013, Note_on_c, 1, 71, 80
8, 22040, Note_off_c, 1, 71, 64
8, 22069, Note_on_c, 1, 71, 85
8, 22117, Note_on_c, 1, 70, 64
8, 22122, Note_off_c, 1, 71, 64
8, 22147, Note_off_c, 1, 70, 64
8, 22148, Note_on_c, 1, 71, 68
8, 22172, Note_on_c, 1, 70, 72
8, 22177, Note_off_c, 1, 71, 64
8, 22196, Note_on_c, 1, 71, 80
8, 22197, Note_off_c, 1, 70, 64
8, 22216, Note_on_c, 1, 70, 66
8, 22222, Note_off_c, 1, 71, 64
8, 22237, Note_on_c, 1, 71, 74
8, 22239, Note_off_c, 1, 70, 64
8, 22257, Note_on_c, 1, 70, 70
8, 22264, Note_off_c, 1, 71, 64
8, 22277, Note_on_c, 1, 71, 85
8, 22280, Note_off_c, 1, 70, 64
8, 22300, Note_on_c, 1, 70, 72
8, 22306, Note_off_c, 1, 71, 64
8, 22413, Note_off_c, 1, 70, 64
8, 22487, Note_on_c, 1, 70, 70
8, 22520, Note_off_c, 1, 70, 64
8, 22537, Note_on_c, 1, 73, 64
8, 22596, Note_on_c, 1, 71, 66
8, 22607, Note_off_c, 1, 73, 64
8, 22634, Note_off_c, 1, 71, 64
8, 22634, Note_on_c, 1, 73, 57
8, 22657, Note_on_c, 1, 71, 68
8, 22663, Note_off_c, 1, 73, 64
8, 22682, Note_off_c, 1, 71, 64
8, 22685, Note_on_c, 1, 73, 57
8, 22703, Note_on_c, 1, 71, 68
8, 22705, Note_off_c, 1, 73, 64
8, 22725, Note_off_c, 1, 71, 64
8, 22728, Note_on_c, 1, 73, 74
8, 22746, Note_on_c, 1, 71, 70
8, 22749, Note_off_c, 1, 73, 64
8, 22770, Note_off_c, 1, 71, 64
8, 22772, Note_on_c, 1, 73, 87
8, 22788, Note_on_c, 1, 71, 82
8, 22804, Note_off_c, 1, 73, 64
8, 22915, Note_off_c, 1, 71, 64
8, 22978, Note_on_c, 1, 70, 85
8, 23009, Note_off_c, 1, 70, 64
8, 23033, Note_on_c, 1, 70, 89
8, 23161, Note_off_c, 1, 70, 64
8, 23193, Note_on_c, 1, 71, 68
8, 23216, Note_on_c, 1, 70, 68
8, 23227, Note_off_c, 1, 71, 64
8, 23248, Note_on_c, 1, 71, 62
8, 23258, Note_off_c, 1, 70, 64
8, 23270, Note_on_c, 1, 73, 62
8, 23279, Note_off_c, 1, 71, 64
8, 23305, Note_on_c, 1, 71, 80
8, 23306, Note_off_c, 1, 73, 64
8, 23329, Note_on_c, 1, 73, 59
8, 23332, Note_off_c, 1, 71, 64
8, 23354, Note_on_c, 1, 71, 64
8, 23356, Note_off_c, 1, 73, 64
8, 23376, Note_on_c, 1, 73, 64
8, 23377, Note_off_c, 1, 71, 64
8, 23395, Note_on_c, 1, 71, 60
8, 23425, Note_off_c, 1, 73, 64
8, 23447, Note_on_c, 1, 70, 70
8, 23450, Note_off_c, 1, 71, 64
8, 23473, Note_on_c, 1, 71, 70
8, 23494, Note_off_c, 1, 70, 64
8, 23506, Note_on_c, 1, 73, 82
8, 23510, Note_off_c, 1, 71, 64
8, 23639, Note_off_c, 1, 73, 64
8, 23695, Note_on_c, 1, 71, 72
8, 23719, Note_on_c, 1, 70, 72
8, 23730, Note_off_c, 1, 71, 64
8, 23753, Note_off_c, 1, 70, 64
8, 23757, Note_on_c, 1, 71, 78
8, 23851, Note_off_c, 1, 71, 64
8, 23935, Note_on_c, 1, 71, 82
8, 23965, Note_off_c, 1, 71, 64
8, 23991, Note_on_c, 1, 71, 85
8, 24314, Note_off_c, 1, 71, 64
8, 24416, Note_on_c, 1, 71, 85
8, 24454, Note_off_c, 1, 71, 64
8, 24469, Note_on_c, 1, 59, 82
8, 24557, Note_off_c, 1, 59, 64
8, 24646, Note_on_c, 1, 71, 87
8, 24688, Note_off_c, 1, 71, 64
8, 24700, Note_on_c, 1, 73, 91
8, 24790, Note_off_c, 1, 73, 64
8, 24888, Note_on_c, 1, 75, 100
8, 24916, Note_off_c, 1, 75, 64
8, 24950, Note_on_c, 1, 75, 102
8, 25077, Note_on_c, 1, 76, 74
8, 25083, Note_off_c, 1, 75, 64
8, 25527, Note_off_c, 1, 76, 64
8, 25611, Note_on_c, 1, 74, 82
8, 25653, Note_off_c, 1, 74, 64
8, 25666, Note_on_c, 1, 73, 85
8, 25750, Note_off_c, 1, 73, 64
8, 25838, Note_on_c, 1, 71, 85
8, 25870, Note_off_c, 1, 71, 64
8, 25902, Note_on_c, 1, 71, 100
8, 26029, Note_on_c, 1, 69, 68
8, 26033, Note_off_c, 1, 71, 64
8, 26265, Note_off_c, 1, 69, 64
8, 26332, Note_on_c, 1, 69, 85
8, 26369, Note_off_c, 1, 69, 64
8, 26390, Note_on_c, 1, 57, 89
8, 26487, Note_off_c, 1, 57, 64
8, 26569, Note_on_c, 1, 69, 82
8, 26616, Note_off_c, 1, 69, 64
8, 26631, Note_on_c, 1, 71, 91
8, 26733, Note_off_c, 1, 71, 64
8, 26815, Note_on_c, 1, 73, 85
8, 26850, Note_off_c, 1, 73, 64
8, 26885, Note_on_c, 1, 73, 100
8, 26938, Note_on_c, 1, 74, 80
8, 26952, Note_off_c, 1, 73, 64
8, 27454, Note_off_c, 1, 74, 64
8, 27544, Note_on_c, 1, 74, 78
8, 27577, Note_off_c, 1, 74, 64
8, 27594, Note_on_c, 1, 74, 89
8, 27682, Note_off_c, 1, 74, 64
8, 27781, Note_on_c, 1, 76, 80
8, 27820, Note_off_c, 1, 76, 64
8, 27832, Note_on_c, 1, 73, 95
8, 27942, Note_off_c, 1, 73, 64
8, 28018, Note_on_c, 1, 69, 70
8, 28063, Note_off_c, 1, 69, 64
8, 28081, Note_on_c, 1, 74, 89
8, 28151, Note_off_c, 1, 74, 64
8, 28261, Note_on_c, 1, 62, 85
8, 28306, Note_off_c, 1, 62, 64
8, 28317, Note_on_c, 1, 67, 89
8, 28409, Note_off_c, 1, 67, 64
8, 28509, Note_on_c, 1, 66, 85
8, 28548, Note_off_c, 1, 66, 64
8, 28568, Note_on_c, 1, 64, 98
8, 28659, Note_off_c, 1, 64, 64
8, 28747, Note_on_c, 1, 76, 85
8, 28790, Note_off_c, 1, 76, 64
8, 28799, Note_on_c, 1, 74, 98
8, 28918, Note_off_c, 1, 74, 64
8, 29036, Note_on_c, 1, 71, 80
8, 29143, Note_off_c, 1, 71, 64
8, 29266, Note_on_c, 1, 71, 80
8, 29331, Note_on_c, 1, 69, 58
8, 29341, Note_off_c, 1, 71, 64
8, 29367, Note_off_c, 1, 69, 64
8, 29367, Note_on_c, 1, 71, 63
8, 29397, Note_on_c, 1, 69, 60
8, 29398, Note_off_c, 1, 71, 64
8, 29419, Note_off_c, 1, 69, 64
8, 29421, Note_on_c, 1, 71, 76
8, 29441, Note_on_c, 1, 69, 72
8, 29445, Note_off_c, 1, 71, 64
8, 29467, Note_on_c, 1, 71, 78
8, 29469, Note_off_c, 1, 69, 64
8, 29486, Note_on_c, 1, 69, 68
8, 29491, Note_off_c, 1, 71, 64
8, 29500, Note_on_c, 1, 71, 74
8, 29510, Note_off_c, 1, 69, 64
8, 29519, Note_on_c, 1, 69, 70
8, 29530, Note_off_c, 1, 71, 64
8, 29633, Note_off_c, 1, 69, 64
8, 29699, Note_on_c, 1, 69, 78
8, 29735, Note_off_c, 1, 69, 64
8, 29764, Note_on_c, 1, 69, 89
8, 30013, Note_off_c, 1, 69, 64
8, 30178, Note_on_c, 1, 61, 72
8, 30214, Note_off_c, 1, 61, 64
8, 30229, Note_on_c, 1, 62, 80
8, 30521, Note_off_c, 1, 62, 64
8, 30652, Note_on_c, 1, 66, 89
8, 30683, Note_off_c, 1, 66, 64
8, 30719, Note_on_c, 1, 66, 98
8, 30837, Note_on_c, 1, 64, 66
8, 30841, Note_off_c, 1, 66, 64
8, 31062, Note_off_c, 1, 64, 64
8, 31152, Note_on_c, 1, 61, 80
8, 31186, Note_off_c, 1, 61, 64
8, 31203, Note_on_c, 1, 66, 85
8, 31320, Note_off_c, 1, 66, 64
8, 31433, Note_on_c, 1, 64, 85
8, 31557, Note_off_c, 1, 64, 64
8, 31676, Note_on_c, 1, 64, 82
8, 31802, Note_off_c, 1, 64, 64
8, 31862, Note_on_c, 1, 69, 66
8, 31882, Note_on_c, 1, 71, 72
8, 31896, Note_off_c, 1, 69, 64
8, 31915, Note_off_c, 1, 71, 64
8, 31923, Note_on_c, 1, 73, 80
8, 32028, Note_off_c, 1, 73, 64
8, 32097, Note_on_c, 1, 74, 68
8, 32116, Note_on_c, 1, 71, 74
8, 32124, Note_off_c, 1, 74, 64
8, 32152, Note_on_c, 1, 73, 68
8, 32164, Note_off_c, 1, 71, 64
8, 32263, Note_off_c, 1, 73, 64
8, 32338, Note_on_c, 1, 73, 85
8, 32379, Note_off_c, 1, 73, 64
8, 32390, Note_on_c, 1, 75, 87
8, 32474, Note_off_c, 1, 75, 64
8, 32572, Note_on_c, 1, 76, 91
8, 32603, Note_off_c, 1, 76, 64
8, 32627, Note_on_c, 1, 76, 102
8, 32746, Note_on_c, 1, 78, 61
8, 32756, Note_off_c, 1, 76, 64
8, 33142, Note_off_c, 1, 78, 64
8, 33304, Note_on_c, 1, 75, 76
8, 33352, Note_off_c, 1, 75, 64
8, 33355, Note_on_c, 1, 76, 68
8, 33377, Note_on_c, 1, 75, 66
8, 33385, Note_off_c, 1, 76, 64
8, 33401, Note_on_c, 1, 76, 80
8, 33408, Note_off_c, 1, 75, 64
8, 33470, Note_off_c, 1, 76, 64
8, 33533, Note_on_c, 1, 78, 85
8, 33567, Note_off_c, 1, 78, 64
8, 33588, Note_on_c, 1, 71, 82
8, 33720, Note_off_c, 1, 71, 64
8, 33767, Note_on_c, 1, 64, 70
8, 33793, Note_on_c, 1, 66, 68
8, 33807, Note_off_c, 1, 64, 64
8, 33825, Note_off_c, 1, 66, 64
8, 33834, Note_on_c, 1, 67, 82
8, 33936, Note_off_c, 1, 67, 64
8, 34008, Note_on_c, 1, 69, 70
8, 34034, Note_on_c, 1, 71, 74
8, 34050, Note_off_c, 1, 69, 64
8, 34066, Note_off_c, 1, 71, 64
8, 34076, Note_on_c, 1, 73, 78
8, 34623, Note_off_c, 1, 73, 64
8, 34722, Note_on_c, 1, 78, 85
8, 34751, Note_on_c, 1, 76, 85
8, 34761, Note_off_c, 1, 78, 64
8, 34788, Note_off_c, 1, 76, 64
8, 34794, Note_on_c, 1, 74, 89
8, 34890, Note_off_c, 1, 74, 64
8, 34958, Note_on_c, 1, 76, 89
8, 34989, Note_on_c, 1, 78, 68
8, 34994, Note_off_c, 1, 76, 64
8, 35024, Note_off_c, 1, 78, 64
8, 35031, Note_on_c, 1, 71, 89
8, 35586, Note_off_c, 1, 71, 64
8, 35675, Note_on_c, 1, 64, 82
8, 35698, Note_on_c, 1, 66, 78
8, 35716, Note_off_c, 1, 64, 64
8, 35736, Note_off_c, 1, 66, 64
8, 35740, Note_on_c, 1, 67, 85
8, 35846, Note_off_c, 1, 67, 64
8, 35916, Note_on_c, 1, 66, 59
8, 35950, Note_on_c, 1, 64, 78
8, 35956, Note_off_c, 1, 66, 64
8, 35992, Note_off_c, 1, 64, 64
8, 35994, Note_on_c, 1, 70, 102
8, 36077, Note_off_c, 1, 70, 64
8, 36176, Note_on_c, 1, 66, 63
8, 36223, Note_off_c, 1, 66, 64
8, 36229, Note_on_c, 1, 76, 98
8, 36327, Note_off_c, 1, 76, 64
8, 36420, Note_on_c, 1, 76, 82
8, 36453, Note_off_c, 1, 76, 64
8, 36477, Note_on_c, 1, 76, 95
8, 37070, Note_off_c, 1, 76, 64
8, 37142, Note_on_c, 1, 73, 78
8, 37184, Note_off_c, 1, 73, 64
8, 37192, Note_on_c, 1, 74, 87
8, 37291, Note_off_c, 1, 74, 64
8, 37384, Note_on_c, 1, 70, 72
8, 37421, Note_off_c, 1, 70, 64
8, 37434, Note_on_c, 1, 71, 89
8, 37573, Note_off_c, 1, 71, 64
8, 37600, Note_on_c, 1, 66, 59
8, 37621, Note_on_c, 1, 68, 64
8, 37639, Note_off_c, 1, 66, 64
8, 37651, Note_on_c, 1, 70, 68
8, 37667, Note_off_c, 1, 68, 64
8, 37693, Note_off_c, 1, 70, 64
8, 37695, Note_on_c, 1, 71, 80
8, 37746, Note_on_c, 1, 70, 68
8, 37751, Note_off_c, 1, 71, 64
8, 37769, Note_off_c, 1, 70, 64
8, 37770, Note_on_c, 1, 71, 66
8, 37793, Note_on_c, 1, 70, 66
8, 37800, Note_off_c, 1, 71, 64
8, 37814, Note_on_c, 1, 71, 70
8, 37818, Note_off_c, 1, 70, 64
8, 37833, Note_on_c, 1, 70, 66
8, 37842, Note_off_c, 1, 71, 64
8, 37851, Note_on_c, 1, 68, 63
8, 37861, Note_off_c, 1, 70, 64
8, 37875, Note_off_c, 1, 68, 64
8, 37888, Note_on_c, 1, 66, 68
8, 37919, Note_on_c, 1, 70, 64
8, 37923, Note_off_c, 1, 66, 64
8, 37932, Note_on_c, 1, 71, 113
8, 37938, Note_off_c, 1, 70, 64
8, 38033, Note_off_c, 1, 71, 64
8, 38107, Note_on_c, 1, 66, 66
8, 38145, Note_off_c, 1, 66, 64
8, 38153, Note_on_c, 1, 71, 87
8, 38260, Note_off_c, 1, 71, 64
8, 38336, Note_on_c, 1, 73, 68
8, 38376, Note_off_c, 1, 73, 64
8, 38389, Note_on_c, 1, 70, 70
8, 39130, Note_off_c, 1, 70, 64
8, 80386, Note_on_c, 1, 70, 85
8, 80481, Note_off_c, 1, 70, 64
8, 80636, Note_on_c, 1, 71, 80
8, 80731, Note_off_c, 1, 71, 64
8, 81116, Note_on_c, 1, 71, 80
8, 81231, Note_off_c, 1, 71, 64
8, 81585, Note_on_c, 1, 71, 72
8, 81711, Note_off_c, 1, 71, 64
8, 82302, Note_on_c, 1, 71, 80
8, 82413, Note_off_c, 1, 71, 64
8, 82544, Note_on_c, 1, 69, 66
8, 82666, Note_off_c, 1, 69, 64
8, 83018, Note_on_c, 1, 69, 74
8, 83132, Note_off_c, 1, 69, 64
8, 83509, Note_on_c, 1, 69, 80
8, 83626, Note_off_c, 1, 69, 64
8, 84206, Note_on_c, 1, 69, 78
8, 84299, Note_off_c, 1, 69, 64
8, 84454, Note_on_c, 1, 65, 76
8, 84560, Note_off_c, 1, 65, 64
8, 84932, Note_on_c, 1, 68, 80
8, 85045, Note_off_c, 1, 68, 64
8, 85397, Note_on_c, 1, 68, 76
8, 85517, Note_off_c, 1, 68, 64
8, 86130, Note_on_c, 1, 68, 62
8, 86251, Note_off_c, 1, 68, 64
8, 86384, Note_on_c, 1, 66, 68
8, 86504, Note_on_c, 1, 68, 66
8, 86530, Note_off_c, 1, 66, 64
8, 86610, Note_off_c, 1, 68, 64
8, 86612, Note_on_c, 1, 69, 74
8, 86725, Note_on_c, 1, 71, 60
8, 86736, Note_off_c, 1, 69, 64
8, 86847, Note_off_c, 1, 71, 64
8, 86852, Note_on_c, 1, 73, 52
8, 86989, Note_off_c, 1, 73, 64
8, 91412, Note_on_c, 1, 78, 72
8, 91502, Note_off_c, 1, 78, 64
8, 91657, Note_on_c, 1, 76, 78
8, 91746, Note_off_c, 1, 76, 64
8, 91892, Note_on_c, 1, 71, 60
8, 91980, Note_off_c, 1, 71, 64
8, 92128, Note_on_c, 1, 71, 58
8, 92221, Note_off_c, 1, 71, 64
8, 93330, Note_on_c, 1, 76, 85
8, 93430, Note_off_c, 1, 76, 64
8, 93576, Note_on_c, 1, 74, 68
8, 93665, Note_off_c, 1, 74, 64
8, 93824, Note_on_c, 1, 69, 62
8, 93888, Note_off_c, 1, 69, 64
8, 94065, Note_on_c, 1, 69, 62
8, 94203, Note_off_c, 1, 69, 64
8, 94789, Note_on_c, 1, 74, 80
8, 95192, Note_off_c, 1, 74, 64
8, 95278, Note_on_c, 1, 71, 85
8, 95365, Note_off_c, 1, 71, 64
8, 95516, Note_on_c, 1, 76, 82
8, 96080, Note_off_c, 1, 76, 64
8, 96228, Note_on_c, 1, 69, 85
8, 96288, Note_off_c, 1, 69, 64
8, 96469, Note_on_c, 1, 74, 80
8, 96965, Note_off_c, 1, 74, 64
8, 97034, Note_on_c, 1, 73, 62
8, 97149, Note_on_c, 1, 74, 64
8, 97160, Note_off_c, 1, 73, 64
8, 97238, Note_off_c, 1, 74, 64
8, 97262, Note_on_c, 1, 78, 61
8, 97351, Note_off_c, 1, 78, 64
8, 97399, Note_on_c, 1, 76, 80
8, 97505, Note_on_c, 1, 74, 68
8, 97510, Note_off_c, 1, 76, 64
8, 97598, Note_off_c, 1, 74, 64
8, 97621, Note_on_c, 1, 73, 58
8, 97698, Note_off_c, 1, 73, 64
8, 97736, Note_on_c, 1, 76, 68
8, 97790, Note_off_c, 1, 76, 64
8, 97866, Note_on_c, 1, 74, 85
8, 98058, Note_off_c, 1, 74, 64
8, 98141, Note_on_c, 1, 69, 72
8, 98249, Note_off_c, 1, 69, 64
8, 98251, Note_on_c, 1, 67, 72
8, 98353, Note_on_c, 1, 66, 74
8, 98360, Note_off_c, 1, 67, 64
8, 98466, Note_on_c, 1, 64, 66
8, 98471, Note_off_c, 1, 66, 64
8, 98563, Note_off_c, 1, 64, 64
8, 98579, Note_on_c, 1, 62, 58
8, 98698, Note_on_c, 1, 61, 55
8, 98699, Note_off_c, 1, 62, 64
8, 98783, Note_off_c, 1, 61, 64
8, 98833, Note_on_c, 1, 62, 66
8, 98944, Note_on_c, 1, 64, 68
8, 98964, Note_off_c, 1, 62, 64
8, 99059, Note_off_c, 1, 64, 64
8, 99070, Note_on_c, 1, 66, 58
8, 99188, Note_off_c, 1, 66, 64
8, 99190, Note_on_c, 1, 62, 64
8, 99265, Note_off_c, 1, 62, 64
8, 99303, Note_on_c, 1, 64, 80
8, 99420, Note_on_c, 1, 66, 64
8, 99447, Note_off_c, 1, 64, 64
8, 99538, Note_off_c, 1, 66, 64
8, 99546, Note_on_c, 1, 67, 60
8, 99648, Note_off_c, 1, 67, 64
8, 99661, Note_on_c, 1, 64, 58
8, 99746, Note_off_c, 1, 64, 64
8, 99785, Note_on_c, 1, 66, 85
8, 99911, Note_on_c, 1, 64, 63
8, 99925, Note_off_c, 1, 66, 64
8, 100014, Note_off_c, 1, 64, 64
8, 100049, Note_on_c, 1, 62, 61
8, 100135, Note_off_c, 1, 62, 64
8, 100159, Note_on_c, 1, 64, 66
8, 100241, Note_off_c, 1, 64, 64
8, 100286, Note_on_c, 1, 66, 64
8, 100394, Note_off_c, 1, 66, 64
8, 100407, Note_on_c, 1, 67, 80
8, 100487, Note_off_c, 1, 67, 64
8, 100518, Note_on_c, 1, 69, 80
8, 100602, Note_off_c, 1, 69, 64
8, 100626, Note_on_c, 1, 66, 61
8, 100720, Note_off_c, 1, 66, 64
8, 100755, Note_on_c, 1, 71, 89
8, 100839, Note_off_c, 1, 71, 64
8, 101003, Note_on_c, 1, 69, 78
8, 101404, Note_off_c, 1, 69, 64
8, 101496, Note_on_c, 1, 67, 82
8, 101616, Note_off_c, 1, 67, 64
8, 101736, Note_on_c, 1, 69, 95
8, 101835, Note_on_c, 1, 71, 82
8, 101848, Note_off_c, 1, 69, 64
8, 101922, Note_off_c, 1, 71, 64
8, 101955, Note_on_c, 1, 69, 74
8, 102050, Note_off_c, 1, 69, 64
8, 102063, Note_on_c, 1, 67, 70
8, 102158, Note_off_c, 1, 67, 64
8, 102200, Note_on_c, 1, 66, 66
8, 102296, Note_off_c, 1, 66, 64
8, 102439, Note_on_c, 1, 62, 70
8, 102530, Note_off_c, 1, 62, 64
8, 102696, Note_on_c, 1, 67, 78
8, 102778, Note_off_c, 1, 67, 64
8, 102918, Note_on_c, 1, 64, 74
8, 103004, Note_off_c, 1, 64, 64
8, 103163, Note_on_c, 1, 69, 80
8, 103247, Note_off_c, 1, 69, 64
8, 103400, Note_on_c, 1, 66, 68
8, 103493, Note_off_c, 1, 66, 64
8, 103639, Note_on_c, 1, 67, 87
8, 103728, Note_off_c, 1, 67, 64
8, 103880, Note_on_c, 1, 62, 70
8, 103967, Note_off_c, 1, 62, 64
8, 104117, Note_on_c, 1, 71, 89
8, 104207, Note_off_c, 1, 71, 64
8, 104360, Note_on_c, 1, 64, 76
8, 104434, Note_off_c, 1, 64, 64
8, 104611, Note_on_c, 1, 69, 85
8, 104686, Note_off_c, 1, 69, 64
8, 104846, Note_on_c, 1, 66, 74
8, 104937, Note_off_c, 1, 66, 64
8, 105098, Note_on_c, 1, 71, 85
8, 105176, Note_off_c, 1, 71, 64
8, 105326, Note_on_c, 1, 68, 76
8, 105417, Note_off_c, 1, 68, 64
8, 105570, Note_on_c, 1, 69, 87
8, 105642, Note_off_c, 1, 69, 64
8, 105808, Note_on_c, 1, 64, 66
8, 105895, Note_off_c, 1, 64, 64
8, 106054, Note_on_c, 1, 76, 85
8, 106136, Note_off_c, 1, 76, 64
8, 106284, Note_on_c, 1, 69, 82
8, 106367, Note_off_c, 1, 69, 64
8, 106528, Note_on_c, 1, 74, 87
8, 106610, Note_off_c, 1, 74, 64
8, 106756, Note_on_c, 1, 71, 78
8, 106849, Note_off_c, 1, 71, 64
8, 106997, Note_on_c, 1, 76, 85
8, 107086, Note_off_c, 1, 76, 64
8, 107238, Note_on_c, 1, 73, 66
8, 107332, Note_off_c, 1, 73, 64
8, 107480, Note_on_c, 1, 74, 85
8, 107573, Note_off_c, 1, 74, 64
8, 107721, Note_on_c, 1, 73, 76
8, 107823, Note_off_c, 1, 73, 64
8, 107963, Note_on_c, 1, 74, 98
8, 108071, Note_off_c, 1, 74, 64
8, 108073, Note_on_c, 1, 73, 85
8, 108197, Note_off_c, 1, 73, 64
8, 108197, Note_on_c, 1, 74, 80
8, 108301, Note_on_c, 1, 76, 80
8, 108323, Note_off_c, 1, 74, 64
8, 108387, Note_off_c, 1, 76, 64
8, 108434, Note_on_c, 1, 78, 93
8, 108536, Note_off_c, 1, 78, 64
8, 108680, Note_on_c, 1, 69, 82
8, 108790, Note_off_c, 1, 69, 64
8, 108793, Note_on_c, 1, 67, 82
8, 108875, Note_off_c, 1, 67, 64
8, 108927, Note_on_c, 1, 66, 102
8, 109025, Note_off_c, 1, 66, 64
8, 109184, Note_on_c, 1, 64, 82
8, 109271, Note_off_c, 1, 64, 64
8, 109434, Note_on_c, 1, 66, 80
8, 109919, Note_off_c, 1, 66, 64
8, 151429, Note_on_c, 1, 78, 82
8, 151507, Note_off_c, 1, 78, 64
8, 151653, Note_on_c, 1, 79, 82
8, 151741, Note_off_c, 1, 79, 64
8, 151910, Note_on_c, 1, 78, 89
8, 152257, Note_off_c, 1, 78, 64
8, 152381, Note_on_c, 1, 76, 64
8, 152485, Note_off_c, 1, 76, 64
8, 152615, Note_on_c, 1, 78, 89
8, 152724, Note_on_c, 1, 76, 62
8, 152729, Note_off_c, 1, 78, 64
8, 152852, Note_off_c, 1, 76, 64
8, 152853, Note_on_c, 1, 75, 63
8, 152967, Note_off_c, 1, 75, 64
8, 152967, Note_on_c, 1, 76, 80
8, 153055, Note_off_c, 1, 76, 64
8, 153096, Note_on_c, 1, 78, 66
8, 153198, Note_off_c, 1, 78, 64
8, 153328, Note_on_c, 1, 76, 76
8, 153421, Note_off_c, 1, 76, 64
8, 153572, Note_on_c, 1, 71, 58
8, 154070, Note_off_c, 1, 71, 64
8, 154294, Note_on_c, 1, 71, 68
8, 154387, Note_off_c, 1, 71, 64
8, 154542, Note_on_c, 1, 71, 70
8, 155026, Note_off_c, 1, 71, 64
8, 155244, Note_on_c, 1, 75, 63
8, 155354, Note_off_c, 1, 75, 64
8, 155491, Note_on_c, 1, 76, 70
8, 155994, Note_off_c, 1, 76, 64
8, 156202, Note_on_c, 1, 79, 80
8, 156286, Note_off_c, 1, 79, 64
8, 156447, Note_on_c, 1, 78, 68
8, 156525, Note_off_c, 1, 78, 64
8, 156688, Note_on_c, 1, 83, 80
8, 157034, Note_on_c, 1, 81, 76
8, 157047, Note_off_c, 1, 83, 64
8, 157145, Note_off_c, 1, 81, 64
8, 157160, Note_on_c, 1, 79, 60
8, 157273, Note_on_c, 1, 78, 57
8, 157278, Note_off_c, 1, 79, 64
8, 157350, Note_off_c, 1, 78, 64
8, 157403, Note_on_c, 1, 76, 78
8, 157508, Note_on_c, 1, 75, 63
8, 157519, Note_off_c, 1, 76, 64
8, 157616, Note_off_c, 1, 75, 64
8, 157641, Note_on_c, 1, 76, 64
8, 157764, Note_off_c, 1, 76, 64
8, 157767, Note_on_c, 1, 73, 52
8, 157849, Note_off_c, 1, 73, 64
8, 157890, Note_on_c, 1, 75, 72
8, 158003, Note_on_c, 1, 76, 66
8, 158012, Note_off_c, 1, 75, 64
8, 158110, Note_off_c, 1, 76, 64
8, 158132, Note_on_c, 1, 78, 64
8, 158223, Note_off_c, 1, 78, 64
8, 158236, Note_on_c, 1, 75, 63
8, 158335, Note_off_c, 1, 75, 64
8, 158384, Note_on_c, 1, 71, 70
8, 158960, Note_off_c, 1, 71, 64
8, 158977, Note_on_c, 1, 69, 63
8, 159082, Note_on_c, 1, 67, 66
8, 159090, Note_off_c, 1, 69, 64
8, 159192, Note_on_c, 1, 69, 62
8, 159193, Note_off_c, 1, 67, 64
8, 159276, Note_off_c, 1, 69, 64
8, 159327, Note_on_c, 1, 66, 59
8, 159445, Note_off_c, 1, 66, 64
8, 159577, Note_on_c, 1, 76, 85
8, 159954, Note_off_c, 1, 76, 64
8, 160069, Note_on_c, 1, 75, 66
8, 160147, Note_off_c, 1, 75, 64
8, 160301, Note_on_c, 1, 76, 85
8, 160511, Note_off_c, 1, 76, 64
8, 160547, Note_on_c, 1, 71, 76
8, 160655, Note_on_c, 1, 69, 64
8, 160666, Note_off_c, 1, 71, 64
8, 160764, Note_off_c, 1, 69, 64
8, 160764, Note_on_c, 1, 67, 58
8, 160861, Note_off_c, 1, 67, 64
8, 160872, Note_on_c, 1, 66, 64
8, 160990, Note_off_c, 1, 66, 64
8, 160994, Note_on_c, 1, 64, 61
8, 161094, Note_off_c, 1, 64, 64
8, 161113, Note_on_c, 1, 66, 78
8, 161202, Note_off_c, 1, 66, 64
8, 161244, Note_on_c, 1, 62, 70
8, 161353, Note_off_c, 1, 62, 64
8, 161512, Note_on_c, 1, 73, 72
8, 161890, Note_off_c, 1, 73, 64
8, 161983, Note_on_c, 1, 71, 68
8, 162402, Note_off_c, 1, 71, 64
8, 162470, Note_on_c, 1, 70, 68
8, 162579, Note_on_c, 1, 71, 70
8, 162590, Note_off_c, 1, 70, 64
8, 162676, Note_off_c, 1, 71, 64
8, 162714, Note_on_c, 1, 73, 70
8, 162811, Note_off_c, 1, 73, 64
8, 162816, Note_on_c, 1, 71, 80
8, 162918, Note_off_c, 1, 71, 64
8, 162938, Note_on_c, 1, 73, 57
8, 163039, Note_off_c, 1, 73, 64
8, 163046, Note_on_c, 1, 70, 60
8, 163128, Note_off_c, 1, 70, 64
8, 163174, Note_on_c, 1, 71, 89
8, 163369, Note_off_c, 1, 71, 64
8, 163414, Note_on_c, 1, 73, 64
8, 163518, Note_off_c, 1, 73, 64
8, 163519, Note_on_c, 1, 74, 70
8, 163591, Note_off_c, 1, 74, 64
8, 163652, Note_on_c, 1, 76, 78
8, 164013, Note_off_c, 1, 76, 64
8, 164139, Note_on_c, 1, 70, 98
8, 164240, Note_on_c, 1, 71, 74
8, 164255, Note_off_c, 1, 70, 64
8, 164357, Note_on_c, 1, 70, 59
8, 164368, Note_off_c, 1, 71, 64
8, 164456, Note_on_c, 1, 68, 56
8, 164466, Note_off_c, 1, 70, 64
8, 164574, Note_off_c, 1, 68, 64
8, 164609, Note_on_c, 1, 66, 63
8, 164838, Note_off_c, 1, 66, 64
8, 165561, Note_on_c, 1, 71, 89
8, 165636, Note_off_c, 1, 71, 64
8, 165795, Note_on_c, 1, 66, 57
8, 165871, Note_off_c, 1, 66, 64
8, 167502, Note_on_c, 1, 73, 70
8, 167586, Note_off_c, 1, 73, 64
8, 167728, Note_on_c, 1, 70, 58
8, 167819, Note_off_c, 1, 70, 64
8, 169446, Note_on_c, 1, 78, 93
8, 169521, Note_off_c, 1, 78, 64
8, 169680, Note_on_c, 1, 75, 72
8, 169778, Note_off_c, 1, 75, 64
8, 169913, Note_on_c, 1, 76, 64
8, 171820, Note_off_c, 1, 76, 64
8, 171856, Note_on_c, 1, 71, 59
8, 173698, Note_off_c, 1, 71, 64
8, 173731, Note_on_c, 1, 73, 57
8, 174859, Note_off_c, 1, 73, 64
8, 174931, Note_on_c, 1, 70, 60
8, 175048, Note_off_c, 1, 70, 64
8, 175179, Note_on_c, 1, 71, 72
8, 175287, Note_off_c, 1, 71, 64
8, 175422, Note_on_c, 1, 71, 72
8, 175515, Note_off_c, 1, 71, 64
8, 175657, Note_on_c, 1, 70, 78
8, 175767, Note_off_c, 1, 70, 64
8, 175768, Note_on_c, 1, 68, 64
8, 175876, Note_on_c, 1, 70, 66
8, 175883, Note_off_c, 1, 68, 64
8, 175984, Note_off_c, 1, 70, 64
8, 175985, Note_on_c, 1, 71, 68
8, 176091, Note_off_c, 1, 71, 64
8, 176119, Note_on_c, 1, 73, 52
8, 176348, Note_off_c, 1, 73, 64
8, 176850, Note_on_c, 1, 71, 59
8, 176930, Note_off_c, 1, 71, 64
8, 177113, Note_on_c, 1, 71, 58
8, 177578, Note_off_c, 1, 71, 64
8, 177820, Note_on_c, 1, 69, 57
8, 177892, Note_off_c, 1, 69, 64
8, 178068, Note_on_c, 1, 69, 57
8, 178561, Note_off_c, 1, 69, 64
8, 178771, Note_on_c, 1, 71, 78
8, 178871, Note_on_c, 1, 73, 61
8, 178886, Note_off_c, 1, 71, 64
8, 178984, Note_off_c, 1, 73, 64
8, 179011, Note_on_c, 1, 75, 68
8, 179097, Note_off_c, 1, 75, 64
8, 179249, Note_on_c, 1, 78, 74
8, 179343, Note_off_c, 1, 78, 64
8, 179497, Note_on_c, 1, 71, 82
8, 179586, Note_off_c, 1, 71, 64
8, 209272, Note_on_c, 1, 66, 70
8, 209543, Note_off_c, 1, 66, 64
8, 212160, Note_on_c, 1, 66, 91
8, 212557, Note_off_c, 1, 66, 64
8, 212569, Note_on_c, 1, 68, 70
8, 212623, Note_off_c, 1, 68, 64
8, 212623, Note_on_c, 1, 70, 60
8, 212665, Note_on_c, 1, 68, 80
8, 212673, Note_off_c, 1, 70, 64
8, 212693, Note_off_c, 1, 68, 64
8, 212696, Note_on_c, 1, 70, 68
8, 212719, Note_on_c, 1, 68, 80
8, 212724, Note_off_c, 1, 70, 64
8, 212748, Note_on_c, 1, 70, 70
8, 212750, Note_off_c, 1, 68, 64
8, 212774, Note_on_c, 1, 68, 70
8, 212789, Note_off_c, 1, 70, 64
8, 212808, Note_on_c, 1, 66, 64
8, 212815, Note_off_c, 1, 68, 64
8, 212839, Note_on_c, 1, 68, 68
8, 212853, Note_off_c, 1, 66, 64
8, 212870, Note_on_c, 1, 70, 63
8, 212876, Note_off_c, 1, 68, 64
8, 213005, Note_off_c, 1, 70, 64
8, 213048, Note_on_c, 1, 66, 72
8, 213093, Note_off_c, 1, 66, 64
8, 213112, Note_on_c, 1, 76, 87
8, 213723, Note_off_c, 1, 76, 64
8, 213760, Note_on_c, 1, 75, 62
8, 213790, Note_on_c, 1, 73, 57
8, 213799, Note_off_c, 1, 75, 64
8, 213822, Note_on_c, 1, 75, 82
8, 213826, Note_off_c, 1, 73, 64
8, 213952, Note_off_c, 1, 75, 64
8, 213999, Note_on_c, 1, 76, 80
8, 214059, Note_on_c, 1, 78, 58
8, 214061, Note_off_c, 1, 76, 64
8, 214097, Note_on_c, 1, 76, 70
8, 214101, Note_off_c, 1, 78, 64
8, 214125, Note_on_c, 1, 78, 64
8, 214126, Note_off_c, 1, 76, 64
8, 214150, Note_on_c, 1, 76, 78
8, 214151, Note_off_c, 1, 78, 64
8, 214176, Note_on_c, 1, 78, 91
8, 214181, Note_off_c, 1, 76, 64
8, 214201, Note_on_c, 1, 76, 66
8, 214220, Note_off_c, 1, 78, 64
8, 214238, Note_on_c, 1, 75, 76
8, 214244, Note_off_c, 1, 76, 64
8, 214265, Note_on_c, 1, 76, 66
8, 214279, Note_off_c, 1, 75, 64
8, 214309, Note_on_c, 1, 78, 87
8, 214314, Note_off_c, 1, 76, 64
8, 214671, Note_off_c, 1, 78, 64
8, 214732, Note_on_c, 1, 69, 82
8, 214761, Note_off_c, 1, 69, 64
8, 214791, Note_on_c, 1, 69, 82
8, 214821, Note_on_c, 1, 67, 87
8, 214828, Note_off_c, 1, 69, 64
8, 214845, Note_on_c, 1, 69, 64
8, 214853, Note_off_c, 1, 67, 64
8, 214869, Note_on_c, 1, 67, 78
8, 214877, Note_off_c, 1, 69, 64
8, 214941, Note_off_c, 1, 67, 64
8, 214981, Note_on_c, 1, 66, 89
8, 215009, Note_off_c, 1, 66, 64
8, 215036, Note_on_c, 1, 64, 74
8, 215155, Note_off_c, 1, 64, 64
8, 215212, Note_on_c, 1, 62, 82
8, 215257, Note_off_c, 1, 62, 64
8, 215265, Note_on_c, 1, 61, 82
8, 215384, Note_off_c, 1, 61, 64
8, 215457, Note_on_c, 1, 70, 76
8, 215497, Note_off_c, 1, 70, 64
8, 215513, Note_on_c, 1, 71, 85
8, 215619, Note_off_c, 1, 71, 64
8, 215690, Note_on_c, 1, 73, 85
8, 215737, Note_off_c, 1, 73, 64
8, 215751, Note_on_c, 1, 66, 82
8, 215859, Note_off_c, 1, 66, 64
8, 215922, Note_on_c, 1, 62, 82
8, 215964, Note_off_c, 1, 62, 64
8, 215991, Note_on_c, 1, 59, 87
8, 216172, Note_off_c, 1, 59, 64
8, 216238, Note_on_c, 1, 64, 91
8, 216817, Note_off_c, 1, 64, 64
8, 216890, Note_on_c, 1, 73, 78
8, 216936, Note_off_c, 1, 73, 64
8, 216946, Note_on_c, 1, 75, 87
8, 217030, Note_off_c, 1, 75, 64
8, 217124, Note_on_c, 1, 76, 80
8, 217168, Note_off_c, 1, 76, 64
8, 217190, Note_on_c, 1, 78, 78
8, 218037, Note_off_c, 1, 78, 64
8, 218102, Note_on_c, 1, 71, 78
8, 218145, Note_off_c, 1, 71, 64
8, 218164, Note_on_c, 1, 76, 87
8, 218249, Note_off_c, 1, 76, 64
8, 218321, Note_on_c, 1, 79, 74
8, 218383, Note_off_c, 1, 79, 64
8, 218388, Note_on_c, 1, 73, 80
8, 218485, Note_off_c, 1, 73, 64
8, 218564, Note_on_c, 1, 76, 76
8, 218602, Note_off_c, 1, 76, 64
8, 218618, Note_on_c, 1, 70, 74
8, 218733, Note_off_c, 1, 70, 64
8, 218808, Note_on_c, 1, 66, 82
8, 218846, Note_off_c, 1, 66, 64
8, 218871, Note_on_c, 1, 71, 85
8, 219478, Note_off_c, 1, 71, 64
8, 219516, Note_on_c, 1, 70, 58
8, 219544, Note_on_c, 1, 68, 62
8, 219556, Note_off_c, 1, 70, 64
8, 219584, Note_off_c, 1, 68, 64
8, 219586, Note_on_c, 1, 70, 87
8, 219683, Note_off_c, 1, 70, 64
8, 219767, Note_on_c, 1, 73, 64
8, 219816, Note_off_c, 1, 73, 64
8, 219825, Note_on_c, 1, 74, 87
8, 219917, Note_off_c, 1, 74, 64
8, 220014, Note_on_c, 1, 76, 80
8, 220054, Note_off_c, 1, 76, 64
8, 220081, Note_on_c, 1, 78, 70
8, 220435, Note_off_c, 1, 78, 64
8, 220495, Note_on_c, 1, 70, 72
8, 220539, Note_off_c, 1, 70, 64
8, 220553, Note_on_c, 1, 71, 89
8, 220660, Note_off_c, 1, 71, 64
8, 220734, Note_on_c, 1, 73, 62
8, 220781, Note_off_c, 1, 73, 64
8, 220795, Note_on_c, 1, 74, 82
8, 220902, Note_off_c, 1, 74, 64
8, 220969, Note_on_c, 1, 73, 68
8, 221012, Note_off_c, 1, 73, 64
8, 221026, Note_on_c, 1, 71, 80
8, 221193, Note_off_c, 1, 71, 64
8, 221251, Note_on_c, 1, 71, 72
8, 221299, Note_on_c, 1, 70, 82
8, 221306, Note_off_c, 1, 71, 64
8, 221326, Note_off_c, 1, 70, 64
8, 221326, Note_on_c, 1, 71, 76
8, 221354, Note_on_c, 1, 70, 85
8, 221368, Note_off_c, 1, 71, 64
8, 221428, Note_off_c, 1, 70, 64
8, 221438, Note_on_c, 1, 66, 72
8, 221482, Note_off_c, 1, 66, 64
8, 221523, Note_on_c, 1, 66, 85
8, 222252, Note_off_c, 1, 66, 64
8, 263506, Note_on_c, 1, 70, 85
8, 263601, Note_off_c, 1, 70, 64
8, 263756, Note_on_c, 1, 71, 80
8, 263851, Note_off_c, 1, 71, 64
8, 264236, Note_on_c, 1, 71, 80
8, 264351, Note_off_c, 1, 71, 64
8, 264705, Note_on_c, 1, 71, 72
8, 264831, Note_off_c, 1, 71, 64
8, 265422, Note_on_c, 1, 71, 80
8, 265533, Note_off_c, 1, 71, 64
8, 265664, Note_on_c, 1, 69, 66
8, 265786, Note_off_c, 1, 69, 64
8, 266138, Note_on_c, 1, 69, 74
8, 266252, Note_off_c, 1, 69, 64
8, 266629, Note_on_c, 1, 69, 80
8, 266746, Note_off_c, 1, 69, 64
8, 267326, Note_on_c, 1, 69, 78
8, 267419, Note_off_c, 1, 69, 64
8, 267574, Note_on_c, 1, 65, 76
8, 267680, Note_off_c, 1, 65, 64
8, 268052, Note_on_c, 1, 68, 80
8, 268165, Note_off_c, 1, 68, 64
8, 268517, Note_on_c, 1, 68, 76
8, 268637, Note_off_c, 1, 68, 64
8, 269250, Note_on_c, 1, 68, 62
8, 269371, Note_off_c, 1, 68, 64
8, 269504, Note_on_c, 1, 66, 68
8, 269624, Note_on_c, 1, 68, 66
8, 269650, Note_off_c, 1, 66, 64
8, 269730, Note_off_c, 1, 68, 64
8, 269732, Note_on_c, 1, 69, 74
8, 269845, Note_on_c, 1, 71, 60
8, 269856, Note_off_c, 1, 69, 64
8, 269967, Note_off_c, 1, 71, 64
8, 269972, Note_on_c, 1, 73, 52
8, 270109, Note_off_c, 1, 73, 64
8, 274532, Note_on_c, 1, 78, 72
8, 274622, Note_off_c, 1, 78, 64
8, 274777, Note_on_c, 1, 76, 78
8, 274866, Note_off_c, 1, 76, 64
8, 275012, Note_on_c, 1, 71, 60
8, 275100, Note_off_c, 1, 71, 64
8, 275248, Note_on_c, 1, 71, 58
8, 275341, Note_off_c, 1, 71, 64
8, 276450, Note_on_c, 1, 76, 85
8, 276550, Note_off_c, 1, 76, 64
8, 276696, Note_on_c, 1, 74, 68
8, 276785, Note_off_c, 1, 74, 64
8, 276944, Note_on_c, 1, 69, 62
8, 277008, Note_off_c, 1, 69, 64
8, 277185, Note_on_c, 1, 69, 62
8, 277323, Note_off_c, 1, 69, 64
8, 277909, Note_on_c, 1, 74, 80
8, 278312, Note_off_c, 1, 74, 64
8, 278398, Note_on_c, 1, 71, 85
8, 278485, Note_off_c, 1, 71, 64
8, 278636, Note_on_c, 1, 76, 82
8, 279200, Note_off_c, 1, 76, 64
8, 279348, Note_on_c, 1, 69, 85
8, 279408, Note_off_c, 1, 69, 64
8, 279589, Note_on_c, 1, 74, 80
8, 280085, Note_off_c, 1, 74, 64
8, 280154, Note_on_c, 1, 73, 62
8, 280269, Note_on_c, 1, 74, 64
8, 280280, Note_off_c, 1, 73, 64
8, 280358, Note_off_c, 1, 74, 64
8, 280382, Note_on_c, 1, 78, 61
8, 280471, Note_off_c, 1, 78, 64
8, 280519, Note_on_c, 1, 76, 80
8, 280625, Note_on_c, 1, 74, 68
8, 280630, Note_off_c, 1, 76, 64
8, 280718, Note_off_c, 1, 74, 64
8, 280741, Note_on_c, 1, 73, 58
8, 280818, Note_off_c, 1, 73, 64
8, 280856, Note_on_c, 1, 76, 68
8, 280910, Note_off_c, 1, 76, 64
8, 280986, Note_on_c, 1, 74, 85
8, 281178, Note_off_c, 1, 74, 64
8, 281261, Note_on_c, 1, 69, 72
8, 281369, Note_off_c, 1, 69, 64
8, 281371, Note_on_c, 1, 67, 72
8, 281473, Note_on_c, 1, 66, 74
8, 281480, Note_off_c, 1, 67, 64
8, 281586, Note_on_c, 1, 64, 66
8, 281591, Note_off_c, 1, 66, 64
8, 281683, Note_off_c, 1, 64, 64
8, 281699, Note_on_c, 1, 62, 58
8, 281818, Note_on_c, 1, 61, 55
8, 281819, Note_off_c, 1, 62, 64
8, 281903, Note_off_c, 1, 61, 64
8, 281953, Note_on_c, 1, 62, 66
8, 282064, Note_on_c, 1, 64, 68
8, 282084, Note_off_c, 1, 62, 64
8, 282179, Note_off_c, 1, 64, 64
8, 282190, Note_on_c, 1, 66, 58
8, 282308, Note_off_c, 1, 66, 64
8, 282310, Note_on_c, 1, 62, 64
8, 282385, Note_off_c, 1, 62, 64
8, 282423, Note_on_c, 1, 64, 80
8, 282540, Note_on_c, 1, 66, 64
8, 282567, Note_off_c, 1, 64, 64
8, 282658, Note_off_c, 1, 66, 64
8, 282666, Note_on_c, 1, 67, 60
8, 282768, Note_off_c, 1, 67, 64
8, 282781, Note_on_c, 1, 64, 58
8, 282866, Note_off_c, 1, 64, 64
8, 282905, Note_on_c, 1, 66, 85
8, 283031, Note_on_c, 1, 64, 63
8, 283045, Note_off_c, 1, 66, 64
8, 283134, Note_off_c, 1, 64, 64
8, 283169, Note_on_c, 1, 62, 61
8, 283255, Note_off_c, 1, 62, 64
8, 283279, Note_on_c, 1, 64, 66
8, 283361, Note_off_c, 1, 64, 64
8, 283406, Note_on_c, 1, 66, 64
8, 283514, Note_off_c, 1, 66, 64
8, 283527, Note_on_c, 1, 67, 80
8, 283607, Note_off_c, 1, 67, 64
8, 283638, Note_on_c, 1, 69, 80
8, 283722, Note_off_c, 1, 69, 64
8, 283746, Note_on_c, 1, 66, 61
8, 283840, Note_off_c, 1, 66, 64
8, 283875, Note_on_c, 1, 71, 89
8, 283959, Note_off_c, 1, 71, 64
8, 284123, Note_on_c, 1, 69, 78
8, 284524, Note_off_c, 1, 69, 64
8, 284616, Note_on_c, 1, 67, 82
8, 284736, Note_off_c, 1, 67, 64
8, 284856, Note_on_c, 1, 69, 95
8, 284955, Note_on_c, 1, 71, 82
8, 284968, Note_off_c, 1, 69, 64
8, 285042, Note_off_c, 1, 71, 64
8, 285075, Note_on_c, 1, 69, 74
8, 285170, Note_off_c, 1, 69, 64
8, 285183, Note_on_c, 1, 67, 70
8, 285278, Note_off_c, 1, 67, 64
8, 285320, Note_on_c, 1, 66, 66
8, 285416, Note_off_c, 1, 66, 64
8, 285559, Note_on_c, 1, 62, 70
8, 285650, Note_off_c, 1, 62, 64
8, 285816, Note_on_c, 1, 67, 78
8, 285898, Note_off_c, 1, 67, 64
8, 286038, Note_on_c, 1, 64, 74
8, 286124, Note_off_c, 1, 64, 64
8, 286283, Note_on_c, 1, 69, 80
8, 286367, Note_off_c, 1, 69, 64
8, 286520, Note_on_c, 1, 66, 68
8, 286613, Note_off_c, 1, 66, 64
8, 286759, Note_on_c, 1, 67, 87
8, 286848, Note_off_c, 1, 67, 64
8, 287000, Note_on_c, 1, 62, 70
8, 287087, Note_off_c, 1, 62, 64
8, 287237, Note_on_c, 1, 71, 89
8, 287327, Note_off_c, 1, 71, 64
8, 287480, Note_on_c, 1, 64, 76
8, 287554, Note_off_c, 1, 64, 64
8, 287731, Note_on_c, 1, 69, 85
8, 287806, Note_off_c, 1, 69, 64
8, 287966, Note_on_c, 1, 66, 74
8, 288057, Note_off_c, 1, 66, 64
8, 288218, Note_on_c, 1, 71, 85
8, 288296, Note_off_c, 1, 71, 64
8, 288446, Note_on_c, 1, 68, 76
8, 288537, Note_off_c, 1, 68, 64
8, 288690, Note_on_c, 1, 69, 87
8, 288762, Note_off_c, 1, 69, 64
8, 288928, Note_on_c, 1, 64, 66
8, 289015, Note_off_c, 1, 64, 64
8, 289174, Note_on_c, 1, 76, 85
8, 289256, Note_off_c, 1, 76, 64
8, 289404, Note_on_c, 1, 69, 82
8, 289487, Note_off_c, 1, 69, 64
8, 289648, Note_on_c, 1, 74, 87
8, 289730, Note_off_c, 1, 74, 64
8, 289876, Note_on_c, 1, 71, 78
8, 289969, Note_off_c, 1, 71, 64
8, 290117, Note_on_c, 1, 76, 85
8, 290206, Note_off_c, 1, 76, 64
8, 290358, Note_on_c, 1, 73, 66
8, 290452, Note_off_c, 1, 73, 64
8, 290600, Note_on_c, 1, 74, 85
8, 290693, Note_off_c, 1, 74, 64
8, 290841, Note_on_c, 1, 73, 76
8, 290943, Note_off_c, 1, 73, 64
8, 291083, Note_on_c, 1, 74, 98
8, 291191, Note_off_c, 1, 74, 64
8, 291193, Note_on_c, 1, 73, 85
8, 291317, Note_off_c, 1, 73, 64
8, 291317, Note_on_c, 1, 74, 80
8, 291421, Note_on_c, 1, 76, 80
8, 291443, Note_off_c, 1, 74, 64
8, 291507, Note_off_c, 1, 76, 64
8, 291554, Note_on_c, 1, 78, 93
8, 291656, Note_off_c, 1, 78, 64
8, 291800, Note_on_c, 1, 69, 82
8, 291910, Note_off_c, 1, 69, 64
8, 291913, Note_on_c, 1, 67, 82
8, 291995, Note_off_c, 1, 67, 64
8, 292047, Note_on_c, 1, 66, 102
8, 292145, Note_off_c, 1, 66, 64
8, 292304, Note_on_c, 1, 64, 82
8, 292391, Note_off_c, 1, 64, 64
8, 292554, Note_on_c, 1, 66, 80
8, 293039, Note_off_c, 1, 66, 64
8, 334549, Note_on_c, 1, 78, 82
8, 334627, Note_off_c, 1, 78, 64
8, 334773, Note_on_c, 1, 79, 82
8, 334861, Note_off_c, 1, 79, 64
8, 335030, Note_on_c, 1, 78, 89
8, 335377, Note_off_c, 1, 78, 64
8, 335501, Note_on_c, 1, 76, 64
8, 335605, Note_off_c, 1, 76, 64
8, 335735, Note_on_c, 1, 78, 89
8, 335844, Note_on_c, 1, 76, 62
8, 335849, Note_off_c, 1, 78, 64
8, 335972, Note_off_c, 1, 76, 64
8, 335973, Note_on_c, 1, 75, 63
8, 336087, Note_off_c, 1, 75, 64
8, 336087, Note_on_c, 1, 76, 80
8, 336175, Note_off_c, 1, 76, 64
8, 336216, Note_on_c, 1, 78, 66
8, 336318, Note_off_c, 1, 78, 64
8, 336448, Note_on_c, 1, 76, 76
8, 336541, Note_off_c, 1, 76, 64
8, 336692, Note_on_c, 1, 71, 58
8, 337190, Note_off_c, 1, 71, 64
8, 337414, Note_on_c, 1, 71, 68
8, 337507, Note_off_c, 1, 71, 64
8, 337662, Note_on_c, 1, 71, 70
8, 338146, Note_off_c, 1, 71, 64
8, 338364, Note_on_c, 1, 75, 63
8, 338474, Note_off_c, 1, 75, 64
8, 338611, Note_on_c, 1, 76, 70
8, 339114, Note_off_c, 1, 76, 64
8, 339322, Note_on_c, 1, 79, 80
8, 339406, Note_off_c, 1, 79, 64
8, 339567, Note_on_c, 1, 78, 68
8, 339645, Note_off_c, 1, 78, 64
8, 339808, Note_on_c, 1, 83, 80
8, 340154, Note_on_c, 1, 81, 76
8, 340167, Note_off_c, 1, 83, 64
8, 340265, Note_off_c, 1, 81, 64
8, 340280, Note_on_c, 1, 79, 60
8, 340393, Note_on_c, 1, 78, 57
8, 340398, Note_off_c, 1, 79, 64
8, 340470, Note_off_c, 1, 78, 64
8, 340523, Note_on_c, 1, 76, 78
8, 340628, Note_on_c, 1, 75, 63
8, 340639, Note_off_c, 1, 76, 64
8, 340736, Note_off_c, 1, 75, 64
8, 340761, Note_on_c, 1, 76, 64
8, 340884, Note_off_c, 1, 76, 64
8, 340887, Note_on_c, 1, 73, 52
8, 340969, Note_off_c, 1, 73, 64
8, 341010, Note_on_c, 1, 75, 72
8, 341123, Note_on_c, 1, 76, 66
8, 341132, Note_off_c, 1, 75, 64
8, 341230, Note_off_c, 1, 76, 64
8, 341252, Note_on_c, 1, 78, 64
8, 341343, Note_off_c, 1, 78, 64
8, 341356, Note_on_c, 1, 75, 63
8, 341455, Note_off_c, 1, 75, 64
8, 341504, Note_on_c, 1, 71, 70
8, 342080, Note_off_c, 1, 71, 64
8, 342097, Note_on_c, 1, 69, 63
8, 342202, Note_on_c, 1, 67, 66
8, 342210, Note_off_c, 1, 69, 64
8, 342312, Note_on_c, 1, 69, 62
8, 342313, Note_off_c, 1, 67, 64
8, 342396, Note_off_c, 1, 69, 64
8, 342447, Note_on_c, 1, 66, 59
8, 342565, Note_off_c, 1, 66, 64
8, 342697, Note_on_c, 1, 76, 85
8, 343074, Note_off_c, 1, 76, 64
8, 343189, Note_on_c, 1, 75, 66
8, 343267, Note_off_c, 1, 75, 64
8, 343421, Note_on_c, 1, 76, 85
8, 343631, Note_off_c, 1, 76, 64
8, 343667, Note_on_c, 1, 71, 76
8, 343775, Note_on_c, 1, 69, 64
8, 343786, Note_off_c, 1, 71, 64
8, 343884, Note_off_c, 1, 69, 64
8, 343884, Note_on_c, 1, 67, 58
8, 343981, Note_off_c, 1, 67, 64
8, 343992, Note_on_c, 1, 66, 64
8, 344110, Note_off_c, 1, 66, 64
8, 344114, Note_on_c, 1, 64, 61
8, 344214, Note_off_c, 1, 64, 64
8, 344233, Note_on_c, 1, 66, 78
8, 344322, Note_off_c, 1, 66, 64
8, 344364, Note_on_c, 1, 62, 70
8, 344473, Note_off_c, 1, 62, 64
8, 344632, Note_on_c, 1, 73, 72
8, 345010, Note_off_c, 1, 73, 64
8, 345103, Note_on_c, 1, 71, 68
8, 345522, Note_off_c, 1, 71, 64
8, 345590, Note_on_c, 1, 70, 68
8, 345699, Note_on_c, 1, 71, 70
8, 345710, Note_off_c, 1, 70, 64
8, 345796, Note_off_c, 1, 71, 64
8, 345834, Note_on_c, 1, 73, 70
8, 345931, Note_off_c, 1, 73, 64
8, 345936, Note_on_c, 1, 71, 80
8, 346038, Note_off_c, 1, 71, 64
8, 346058, Note_on_c, 1, 73, 57
8, 346159, Note_off_c, 1, 73, 64
8, 346166, Note_on_c, 1, 70, 60
8, 346248, Note_off_c, 1, 70, 64
8, 346294, Note_on_c, 1, 71, 89
8, 346489, Note_off_c, 1, 71, 64
8, 346534, Note_on_c, 1, 73, 64
8, 346638, Note_off_c, 1, 73, 64
8, 346639, Note_on_c, 1, 74, 70
8, 346711, Note_off_c, 1, 74, 64
8, 346772, Note_on_c, 1, 76, 78
8, 347133, Note_off_c, 1, 76, 64
8, 347259, Note_on_c, 1, 70, 98
8, 347360, Note_on_c, 1, 71, 74
8, 347375, Note_off_c, 1, 70, 64
8, 347477, Note_on_c, 1, 70, 59
8, 347488, Note_off_c, 1, 71, 64
8, 347576, Note_on_c, 1, 68, 56
8, 347586, Note_off_c, 1, 70, 64
8, 347694, Note_off_c, 1, 68, 64
8, 347729, Note_on_c, 1, 66, 63
8, 347958, Note_off_c, 1, 66, 64
8, 348681, Note_on_c, 1, 71, 89
8, 348756, Note_off_c, 1, 71, 64
8, 348915, Note_on_c, 1, 66, 57
8, 348991, Note_off_c, 1, 66, 64
8, 350622, Note_on_c, 1, 73, 70
8, 350706, Note_off_c, 1, 73, 64
8, 350848, Note_on_c, 1, 70, 58
8, 350939, Note_off_c, 1, 70, 64
8, 352566, Note_on_c, 1, 78, 93
8, 352641, Note_off_c, 1, 78, 64
8, 352800, Note_on_c, 1, 75, 72
8, 352898, Note_off_c, 1, 75, 64
8, 353033, Note_on_c, 1, 76, 64
8, 354940, Note_off_c, 1, 76, 64
8, 354976, Note_on_c, 1, 71, 59
8, 356818, Note_off_c, 1, 71, 64
8, 356851, Note_on_c, 1, 73, 57
8, 357979, Note_off_c, 1, 73, 64
8, 358051, Note_on_c, 1, 70, 60
8, 358168, Note_off_c, 1, 70, 64
8, 358299, Note_on_c, 1, 71, 72
8, 358407, Note_off_c, 1, 71, 64
8, 358542, Note_on_c, 1, 71, 72
8, 358635, Note_off_c, 1, 71, 64
8, 358777, Note_on_c, 1, 70, 78
8, 358887, Note_off_c, 1, 70, 64
8, 358888, Note_on_c, 1, 68, 64
8, 358996, Note_on_c, 1, 70, 66
8, 359003, Note_off_c, 1, 68, 64
8, 359104, Note_off_c, 1, 70, 64
8, 359105, Note_on_c, 1, 71, 68
8, 359211, Note_off_c, 1, 71, 64
8, 359239, Note_on_c, 1, 73, 52
8, 359468, Note_off_c, 1, 73, 64
8, 359970, Note_on_c, 1, 71, 59
8, 360050, Note_off_c, 1, 71, 64
8, 360233, Note_on_c, 1, 71, 58
8, 360698, Note_off_c, 1, 71, 64
8, 360940, Note_on_c, 1, 69, 57
8, 361012, Note_off_c, 1, 69, 64
8, 361188, Note_on_c, 1, 69, 57
8, 361681, Note_off_c, 1, 69, 64
8, 361891, Note_on_c, 1, 71, 78
8, 361991, Note_on_c, 1, 73, 61
8, 362006, Note_off_c, 1, 71, 64
8, 362104, Note_off_c, 1, 73, 64
8, 362131, Note_on_c, 1, 75, 68
8, 362217, Note_off_c, 1, 75, 64
8, 362369, Note_on_c, 1, 78, 74
8, 362463, Note_off_c, 1, 78, 64
8, 362617, Note_on_c, 1, 71, 82
8, 362706, Note_off_c, 1, 71, 64
8, 392404, Note_on_c, 1, 66, 85
8, 392682, Note_off_c, 1, 66, 64
8, 395277, Note_on_c, 1, 66, 87
8, 395688, Note_off_c, 1, 66, 64
8, 395690, Note_on_c, 1, 68, 82
8, 395744, Note_on_c, 1, 70, 64
8, 395754, Note_off_c, 1, 68, 64
8, 395787, Note_on_c, 1, 68, 80
8, 395796, Note_off_c, 1, 70, 64
8, 395817, Note_off_c, 1, 68, 64
8, 395820, Note_on_c, 1, 70, 66
8, 395845, Note_on_c, 1, 68, 78
8, 395847, Note_off_c, 1, 70, 64
8, 395872, Note_off_c, 1, 68, 64
8, 395873, Note_on_c, 1, 70, 82
8, 395896, Note_on_c, 1, 68, 70
8, 395915, Note_off_c, 1, 70, 64
8, 395928, Note_on_c, 1, 66, 60
8, 395934, Note_off_c, 1, 68, 64
8, 395956, Note_on_c, 1, 68, 68
8, 395976, Note_off_c, 1, 66, 64
8, 395988, Note_on_c, 1, 70, 72
8, 395996, Note_off_c, 1, 68, 64
8, 396111, Note_off_c, 1, 70, 64
8, 396173, Note_on_c, 1, 66, 80
8, 396219, Note_off_c, 1, 66, 64
8, 396232, Note_on_c, 1, 76, 89
8, 396839, Note_off_c, 1, 76, 64
8, 396876, Note_on_c, 1, 75, 63
8, 396911, Note_on_c, 1, 73, 63
8, 396919, Note_off_c, 1, 75, 64
8, 396952, Note_on_c, 1, 75, 78
8, 396956, Note_off_c, 1, 73, 64
8, 397074, Note_off_c, 1, 75, 64
8, 397126, Note_on_c, 1, 76, 85
8, 397182, Note_on_c, 1, 78, 68
8, 397188, Note_off_c, 1, 76, 64
8, 397222, Note_on_c, 1, 76, 82
8, 397228, Note_off_c, 1, 78, 64
8, 397250, Note_off_c, 1, 76, 64
8, 397250, Note_on_c, 1, 78, 64
8, 397275, Note_on_c, 1, 76, 78
8, 397278, Note_off_c, 1, 78, 64
8, 397297, Note_on_c, 1, 78, 76
8, 397301, Note_off_c, 1, 76, 64
8, 397325, Note_on_c, 1, 76, 70
8, 397340, Note_off_c, 1, 78, 64
8, 397358, Note_on_c, 1, 75, 70
8, 397359, Note_off_c, 1, 76, 64
8, 397384, Note_on_c, 1, 76, 70
8, 397395, Note_off_c, 1, 75, 64
8, 397430, Note_on_c, 1, 78, 80
8, 397434, Note_off_c, 1, 76, 64
8, 397779, Note_off_c, 1, 78, 64
8, 397849, Note_on_c, 1, 69, 76
8, 397880, Note_off_c, 1, 69, 64
8, 397908, Note_on_c, 1, 69, 85
8, 397939, Note_on_c, 1, 67, 82
8, 397944, Note_off_c, 1, 69, 64
8, 397962, Note_on_c, 1, 69, 64
8, 397994, Note_off_c, 1, 69, 64
8, 398042, Note_off_c, 1, 67, 64
8, 398096, Note_on_c, 1, 66, 80
8, 398126, Note_off_c, 1, 66, 64
8, 398154, Note_on_c, 1, 64, 89
8, 398267, Note_off_c, 1, 64, 64
8, 398329, Note_on_c, 1, 62, 78
8, 398376, Note_off_c, 1, 62, 64
8, 398387, Note_on_c, 1, 61, 89
8, 398498, Note_off_c, 1, 61, 64
8, 398581, Note_on_c, 1, 70, 78
8, 398622, Note_off_c, 1, 70, 64
8, 398637, Note_on_c, 1, 71, 85
8, 398733, Note_off_c, 1, 71, 64
8, 398815, Note_on_c, 1, 73, 78
8, 398859, Note_off_c, 1, 73, 64
8, 398873, Note_on_c, 1, 66, 95
8, 398968, Note_off_c, 1, 66, 64
8, 399049, Note_on_c, 1, 62, 85
8, 399092, Note_off_c, 1, 62, 64
8, 399114, Note_on_c, 1, 59, 85
8, 399281, Note_off_c, 1, 59, 64
8, 399354, Note_on_c, 1, 64, 87
8, 399937, Note_off_c, 1, 64, 64
8, 400016, Note_on_c, 1, 73, 82
8, 400062, Note_off_c, 1, 73, 64
8, 400072, Note_on_c, 1, 75, 78
8, 400167, Note_off_c, 1, 75, 64
8, 400249, Note_on_c, 1, 76, 87
8, 400289, Note_off_c, 1, 76, 64
8, 400310, Note_on_c, 1, 78, 82
8, 401163, Note_off_c, 1, 78, 64
8, 401213, Note_on_c, 1, 71, 76
8, 401257, Note_off_c, 1, 71, 64
8, 401271, Note_on_c, 1, 76, 87
8, 401370, Note_off_c, 1, 76, 64
8, 401446, Note_on_c, 1, 79, 72
8, 401507, Note_off_c, 1, 79, 64
8, 401512, Note_on_c, 1, 73, 85
8, 401605, Note_off_c, 1, 73, 64
8, 401693, Note_on_c, 1, 76, 82
8, 401740, Note_off_c, 1, 76, 64
8, 401754, Note_on_c, 1, 70, 82
8, 401857, Note_off_c, 1, 70, 64
8, 401928, Note_on_c, 1, 66, 76
8, 401964, Note_off_c, 1, 66, 64
8, 401990, Note_on_c, 1, 71, 85
8, 402599, Note_off_c, 1, 71, 64
8, 402635, Note_on_c, 1, 70, 68
8, 402666, Note_on_c, 1, 68, 66
8, 402677, Note_off_c, 1, 70, 64
8, 402701, Note_on_c, 1, 70, 93
8, 402706, Note_off_c, 1, 68, 64
8, 402806, Note_off_c, 1, 70, 64
8, 402891, Note_on_c, 1, 73, 82
8, 402941, Note_off_c, 1, 73, 64
8, 402949, Note_on_c, 1, 74, 87
8, 403040, Note_off_c, 1, 74, 64
8, 403124, Note_on_c, 1, 76, 82
8, 403164, Note_off_c, 1, 76, 64
8, 403191, Note_on_c, 1, 76, 102
8, 403313, Note_on_c, 1, 78, 63
8, 403325, Note_off_c, 1, 76, 64
8, 403546, Note_off_c, 1, 78, 64
8, 403605, Note_on_c, 1, 70, 82
8, 403656, Note_off_c, 1, 70, 64
8, 403662, Note_on_c, 1, 71, 91
8, 403780, Note_off_c, 1, 71, 64
8, 403838, Note_on_c, 1, 73, 63
8, 403897, Note_off_c, 1, 73, 64
8, 403908, Note_on_c, 1, 74, 85
8, 404026, Note_off_c, 1, 74, 64
8, 404085, Note_on_c, 1, 73, 63
8, 404138, Note_off_c, 1, 73, 64
8, 404146, Note_on_c, 1, 71, 82
8, 404324, Note_off_c, 1, 71, 64
8, 404382, Note_on_c, 1, 71, 80
8, 404425, Note_on_c, 1, 70, 95
8, 404431, Note_off_c, 1, 71, 64
8, 404451, Note_off_c, 1, 70, 64
8, 404452, Note_on_c, 1, 71, 80
8, 404480, Note_on_c, 1, 70, 82
8, 404498, Note_off_c, 1, 71, 64
8, 404564, Note_off_c, 1, 70, 64
8, 404571, Note_on_c, 1, 66, 78
8, 404624, Note_off_c, 1, 66, 64
8, 404663, Note_on_c, 1, 66, 91
8, 405606, Note_off_c, 1, 66, 64
8, 405606, End_track
9, 0, Start_track
9, 0, Title_t, "Viola"
9, 0, Program_c, 2, 41
9, 0, Control_c, 2, 7, 100
9, 20157, Note_on_c, 2, 62, 91
9, 20482, Note_off_c, 2, 62, 64
9, 20563, Note_on_c, 2, 64, 76
9, 20587, Note_off_c, 2, 64, 64
9, 20626, Note_on_c, 2, 64, 87
9, 20744, Note_on_c, 2, 66, 63
9, 20752, Note_off_c, 2, 64, 64
9, 20977, Note_off_c, 2, 66, 64
9, 21050, Note_on_c, 2, 70, 80
9, 21086, Note_off_c, 2, 70, 64
9, 21102, Note_on_c, 2, 71, 85
9, 21220, Note_off_c, 2, 71, 64
9, 21292, Note_on_c, 2, 62, 76
9, 21321, Note_on_c, 2, 64, 80
9, 21334, Note_off_c, 2, 62, 64
9, 21352, Note_on_c, 2, 66, 66
9, 21356, Note_off_c, 2, 64, 64
9, 21386, Note_on_c, 2, 64, 66
9, 21389, Note_off_c, 2, 66, 64
9, 21408, Note_off_c, 2, 64, 64
9, 21410, Note_on_c, 2, 66, 78
9, 21434, Note_on_c, 2, 64, 66
9, 21437, Note_off_c, 2, 66, 64
9, 21457, Note_on_c, 2, 66, 70
9, 21466, Note_off_c, 2, 64, 64
9, 21482, Note_off_c, 2, 66, 64
9, 21489, Note_on_c, 2, 66, 52
9, 21507, Note_on_c, 2, 64, 70
9, 21520, Note_off_c, 2, 66, 64
9, 21543, Note_on_c, 2, 62, 74
9, 21547, Note_off_c, 2, 64, 64
9, 21571, Note_on_c, 2, 64, 76
9, 21586, Note_off_c, 2, 62, 64
9, 21598, Note_on_c, 2, 66, 82
9, 21604, Note_off_c, 2, 64, 64
9, 21721, Note_off_c, 2, 66, 64
9, 21768, Note_on_c, 2, 64, 68
9, 21798, Note_on_c, 2, 62, 78
9, 21806, Note_off_c, 2, 64, 64
9, 21838, Note_on_c, 2, 64, 89
9, 21849, Note_off_c, 2, 62, 64
9, 21933, Note_off_c, 2, 64, 64
9, 22003, Note_on_c, 2, 67, 78
9, 22043, Note_off_c, 2, 67, 64
9, 22062, Note_on_c, 2, 61, 87
9, 22383, Note_off_c, 2, 61, 64
9, 22482, Note_on_c, 2, 61, 80
9, 22514, Note_off_c, 2, 61, 64
9, 22544, Note_on_c, 2, 54, 72
9, 22663, Note_off_c, 2, 54, 64
9, 22731, Note_on_c, 2, 62, 68
9, 22760, Note_on_c, 2, 64, 70
9, 22770, Note_off_c, 2, 62, 64
9, 22792, Note_on_c, 2, 66, 64
9, 22794, Note_off_c, 2, 64, 64
9, 22825, Note_on_c, 2, 64, 68
9, 22833, Note_off_c, 2, 66, 64
9, 22845, Note_on_c, 2, 66, 66
9, 22848, Note_off_c, 2, 64, 64
9, 22871, Note_on_c, 2, 64, 68
9, 22875, Note_off_c, 2, 66, 64
9, 22894, Note_on_c, 2, 66, 78
9, 22897, Note_off_c, 2, 64, 64
9, 22915, Note_on_c, 2, 64, 68
9, 22918, Note_off_c, 2, 66, 64
9, 22935, Note_on_c, 2, 66, 78
9, 22937, Note_off_c, 2, 64, 64
9, 22957, Note_on_c, 2, 64, 74
9, 22970, Note_off_c, 2, 66, 64
9, 22982, Note_on_c, 2, 62, 68
9, 22990, Note_off_c, 2, 64, 64
9, 23009, Note_on_c, 2, 64, 72
9, 23023, Note_off_c, 2, 62, 64
9, 23035, Note_on_c, 2, 66, 78
9, 23038, Note_off_c, 2, 64, 64
9, 23170, Note_off_c, 2, 66, 64
9, 23218, Note_on_c, 2, 66, 70
9, 23251, Note_off_c, 2, 66, 64
9, 23266, Note_on_c, 2, 64, 89
9, 23362, Note_off_c, 2, 64, 64
9, 23460, Note_on_c, 2, 62, 78
9, 23498, Note_off_c, 2, 62, 64
9, 23511, Note_on_c, 2, 61, 85
9, 23608, Note_off_c, 2, 61, 64
9, 23703, Note_on_c, 2, 61, 85
9, 23748, Note_off_c, 2, 61, 64
9, 23755, Note_on_c, 2, 63, 80
9, 23849, Note_off_c, 2, 63, 64
9, 23938, Note_on_c, 2, 64, 82
9, 23973, Note_off_c, 2, 64, 64
9, 23991, Note_on_c, 2, 66, 80
9, 24310, Note_off_c, 2, 66, 64
9, 24411, Note_on_c, 2, 66, 78
9, 24457, Note_off_c, 2, 66, 64
9, 24467, Note_on_c, 2, 67, 87
9, 24554, Note_off_c, 2, 67, 64
9, 24653, Note_on_c, 2, 66, 78
9, 24692, Note_off_c, 2, 66, 64
9, 24711, Note_on_c, 2, 67, 78
9, 24738, Note_on_c, 2, 66, 85
9, 24742, Note_off_c, 2, 67, 64
9, 24758, Note_on_c, 2, 67, 70
9, 24779, Note_off_c, 2, 66, 64
9, 24822, Note_off_c, 2, 67, 64
9, 24890, Note_on_c, 2, 69, 85
9, 24921, Note_off_c, 2, 69, 64
9, 24950, Note_on_c, 2, 69, 102
9, 25072, Note_on_c, 2, 71, 74
9, 25081, Note_off_c, 2, 69, 64
9, 25488, Note_off_c, 2, 71, 64
9, 25605, Note_on_c, 2, 71, 82
9, 25651, Note_off_c, 2, 71, 64
9, 25663, Note_on_c, 2, 69, 82
9, 25765, Note_off_c, 2, 69, 64
9, 25847, Note_on_c, 2, 62, 82
9, 25880, Note_off_c, 2, 62, 64
9, 25911, Note_on_c, 2, 62, 93
9, 26033, Note_on_c, 2, 64, 68
9, 26041, Note_off_c, 2, 62, 64
9, 26272, Note_off_c, 2, 64, 64
9, 26332, Note_on_c, 2, 64, 82
9, 26373, Note_off_c, 2, 64, 64
9, 26394, Note_on_c, 2, 67, 85
9, 26422, Note_on_c, 2, 66, 91
9, 26427, Note_off_c, 2, 67, 64
9, 26447, Note_on_c, 2, 67, 80
9, 26453, Note_off_c, 2, 66, 64
9, 26465, Note_on_c, 2, 66, 64
9, 26479, Note_off_c, 2, 67, 64
9, 26516, Note_off_c, 2, 66, 64
9, 26570, Note_on_c, 2, 64, 85
9, 26612, Note_off_c, 2, 64, 64
9, 26628, Note_on_c, 2, 66, 85
9, 26652, Note_on_c, 2, 64, 76
9, 26657, Note_off_c, 2, 66, 64
9, 26675, Note_on_c, 2, 66, 82
9, 26690, Note_off_c, 2, 64, 64
9, 26761, Note_off_c, 2, 66, 64
9, 26817, Note_on_c, 2, 67, 80
9, 26852, Note_off_c, 2, 67, 64
9, 26871, Note_on_c, 2, 69, 82
9, 27455, Note_off_c, 2, 69, 64
9, 27535, Note_on_c, 2, 69, 78
9, 27577, Note_off_c, 2, 69, 64
9, 27592, Note_on_c, 2, 67, 76
9, 27691, Note_off_c, 2, 67, 64
9, 27775, Note_on_c, 2, 71, 82
9, 27813, Note_off_c, 2, 71, 64
9, 27835, Note_on_c, 2, 64, 85
9, 27977, Note_off_c, 2, 64, 64
9, 28009, Note_on_c, 2, 66, 68
9, 28032, Note_on_c, 2, 67, 82
9, 28050, Note_off_c, 2, 66, 64
9, 28066, Note_off_c, 2, 67, 64
9, 28071, Note_on_c, 2, 69, 80
9, 28165, Note_off_c, 2, 69, 64
9, 28259, Note_on_c, 2, 66, 78
9, 28289, Note_off_c, 2, 66, 64
9, 28312, Note_on_c, 2, 64, 80
9, 28418, Note_off_c, 2, 64, 64
9, 28497, Note_on_c, 2, 62, 82
9, 28532, Note_off_c, 2, 62, 64
9, 28554, Note_on_c, 2, 61, 89
9, 28645, Note_off_c, 2, 61, 64
9, 28732, Note_on_c, 2, 57, 80
9, 28780, Note_off_c, 2, 57, 64
9, 28792, Note_on_c, 2, 69, 87
9, 28936, Note_off_c, 2, 69, 64
9, 29034, Note_on_c, 2, 67, 80
9, 29163, Note_off_c, 2, 67, 64
9, 29268, Note_on_c, 2, 66, 76
9, 29341, Note_on_c, 2, 64, 64
9, 29353, Note_off_c, 2, 66, 64
9, 29383, Note_on_c, 2, 66, 66
9, 29388, Note_off_c, 2, 64, 64
9, 29416, Note_on_c, 2, 64, 72
9, 29420, Note_off_c, 2, 66, 64
9, 29441, Note_on_c, 2, 66, 70
9, 29445, Note_off_c, 2, 64, 64
9, 29462, Note_on_c, 2, 64, 76
9, 29467, Note_off_c, 2, 66, 64
9, 29488, Note_on_c, 2, 66, 82
9, 29491, Note_off_c, 2, 64, 64
9, 29510, Note_on_c, 2, 64, 78
9, 29519, Note_off_c, 2, 66, 64
9, 29646, Note_off_c, 2, 64, 64
9, 29699, Note_on_c, 2, 66, 80
9, 29730, Note_off_c, 2, 66, 64
9, 29761, Note_on_c, 2, 66, 82
9, 30015, Note_off_c, 2, 66, 64
9, 30175, Note_on_c, 2, 55, 80
9, 30210, Note_off_c, 2, 55, 64
9, 30228, Note_on_c, 2, 57, 85
9, 30510, Note_off_c, 2, 57, 64
9, 30649, Note_on_c, 2, 57, 72
9, 30685, Note_off_c, 2, 57, 64
9, 30706, Note_on_c, 2, 59, 78
9, 31047, Note_off_c, 2, 59, 64
9, 31139, Note_on_c, 2, 57, 76
9, 31173, Note_off_c, 2, 57, 64
9, 31195, Note_on_c, 2, 57, 72
9, 31349, Note_off_c, 2, 57, 64
9, 31429, Note_on_c, 2, 57, 82
9, 31458, Note_on_c, 2, 56, 47
9, 31475, Note_off_c, 2, 57, 64
9, 31483, Note_on_c, 2, 57, 55
9, 31500, Note_off_c, 2, 56, 64
9, 31517, Note_on_c, 2, 56, 59
9, 31530, Note_off_c, 2, 57, 64
9, 31598, Note_off_c, 2, 56, 64
9, 31687, Note_on_c, 2, 57, 80
9, 31819, Note_off_c, 2, 57, 64
9, 31866, Note_on_c, 2, 64, 82
9, 31910, Note_off_c, 2, 64, 64
9, 31923, Note_on_c, 2, 69, 93
9, 32016, Note_off_c, 2, 69, 64
9, 32096, Note_on_c, 2, 62, 85
9, 32125, Note_off_c, 2, 62, 64
9, 32159, Note_on_c, 2, 64, 87
9, 32280, Note_off_c, 2, 64, 64
9, 32337, Note_on_c, 2, 66, 68
9, 32359, Note_on_c, 2, 67, 70
9, 32370, Note_off_c, 2, 66, 64
9, 32391, Note_off_c, 2, 67, 64
9, 32400, Note_on_c, 2, 69, 87
9, 32473, Note_off_c, 2, 69, 64
9, 32571, Note_on_c, 2, 71, 78
9, 32595, Note_on_c, 2, 72, 80
9, 32601, Note_off_c, 2, 71, 64
9, 32628, Note_off_c, 2, 72, 64
9, 32640, Note_on_c, 2, 71, 87
9, 33214, Note_off_c, 2, 71, 64
9, 33294, Note_on_c, 2, 71, 87
9, 33336, Note_off_c, 2, 71, 64
9, 33350, Note_on_c, 2, 64, 85
9, 33442, Note_off_c, 2, 64, 64
9, 33523, Note_on_c, 2, 59, 70
9, 33567, Note_off_c, 2, 59, 64
9, 33585, Note_on_c, 2, 64, 80
9, 34179, Note_off_c, 2, 64, 64
9, 34245, Note_on_c, 2, 61, 78
9, 34270, Note_on_c, 2, 62, 80
9, 34285, Note_off_c, 2, 61, 64
9, 34307, Note_off_c, 2, 62, 64
9, 34309, Note_on_c, 2, 64, 87
9, 34404, Note_off_c, 2, 64, 64
9, 34486, Note_on_c, 2, 66, 76
9, 34513, Note_on_c, 2, 67, 72
9, 34528, Note_off_c, 2, 66, 64
9, 34549, Note_on_c, 2, 69, 85
9, 34555, Note_off_c, 2, 67, 64
9, 34680, Note_off_c, 2, 69, 64
9, 34738, Note_on_c, 2, 70, 78
9, 34778, Note_off_c, 2, 70, 64
9, 34785, Note_on_c, 2, 71, 87
9, 34883, Note_off_c, 2, 71, 64
9, 34979, Note_on_c, 2, 66, 76
9, 35021, Note_off_c, 2, 66, 64
9, 35035, Note_on_c, 2, 67, 85
9, 35616, Note_off_c, 2, 67, 64
9, 35692, Note_on_c, 2, 59, 76
9, 35733, Note_off_c, 2, 59, 64
9, 35748, Note_on_c, 2, 61, 87
9, 35836, Note_off_c, 2, 61, 64
9, 35923, Note_on_c, 2, 62, 64
9, 35971, Note_off_c, 2, 62, 64
9, 35987, Note_on_c, 2, 64, 87
9, 36072, Note_off_c, 2, 64, 64
9, 36166, Note_on_c, 2, 61, 74
9, 36215, Note_off_c, 2, 61, 64
9, 36232, Note_on_c, 2, 67, 95
9, 36316, Note_off_c, 2, 67, 64
9, 36412, Note_on_c, 2, 59, 76
9, 36453, Note_off_c, 2, 59, 64
9, 36474, Note_on_c, 2, 61, 87
9, 36570, Note_off_c, 2, 61, 64
9, 36662, Note_on_c, 2, 59, 85
9, 36706, Note_off_c, 2, 59, 64
9, 36722, Note_on_c, 2, 58, 82
9, 36804, Note_off_c, 2, 58, 64
9, 36895, Note_on_c, 2, 61, 82
9, 36936, Note_off_c, 2, 61, 64
9, 36954, Note_on_c, 2, 54, 78
9, 37048, Note_off_c, 2, 54, 64
9, 37119, Note_on_c, 2, 66, 64
9, 37142, Note_on_c, 2, 64, 76
9, 37155, Note_off_c, 2, 66, 64
9, 37184, Note_off_c, 2, 64, 64
9, 37184, Note_on_c, 2, 62, 85
9, 37282, Note_off_c, 2, 62, 64
9, 37357, Note_on_c, 2, 64, 68
9, 37387, Note_on_c, 2, 66, 62
9, 37400, Note_off_c, 2, 64, 64
9, 37421, Note_off_c, 2, 66, 64
9, 37430, Note_on_c, 2, 59, 89
9, 37535, Note_off_c, 2, 59, 64
9, 37609, Note_on_c, 2, 62, 68
9, 37653, Note_off_c, 2, 62, 64
9, 37671, Note_on_c, 2, 66, 89
9, 37760, Note_off_c, 2, 66, 64
9, 37851, Note_on_c, 2, 70, 78
9, 37892, Note_off_c, 2, 70, 64
9, 37909, Note_on_c, 2, 66, 80
9, 38009, Note_off_c, 2, 66, 64
9, 38104, Note_on_c, 2, 59, 76
9, 38133, Note_on_c, 2, 61, 72
9, 38142, Note_off_c, 2, 59, 64
9, 38166, Note_off_c, 2, 61, 64
9, 38166, Note_on_c, 2, 62, 80
9, 38252, Note_off_c, 2, 62, 64
9, 38327, Note_on_c, 2, 66, 64
9, 38352, Note_on_c, 2, 65, 80
9, 38364, Note_off_c, 2, 66, 64
9, 38386, Note_off_c, 2, 65, 64
9, 38397, Note_on_c, 2, 66, 64
9, 39120, Note_off_c, 2, 66, 64
9, 80375, Note_on_c, 2, 66, 66
9, 80445, Note_off_c, 2, 66, 64
9, 80641, Note_on_c, 2, 66, 76
9, 80724, Note_off_c, 2, 66, 64
9, 81114, Note_on_c, 2, 66, 74
9, 81211, Note_off_c, 2, 66, 64
9, 81590, Note_on_c, 2, 64, 76
9, 81691, Note_off_c, 2, 64, 64
9, 82311, Note_on_c, 2, 64, 66
9, 82382, Note_off_c, 2, 64, 64
9, 82546, Note_on_c, 2, 64, 72
9, 82643, Note_off_c, 2, 64, 64
9, 83039, Note_on_c, 2, 64, 76
9, 83138, Note_off_c, 2, 64, 64
9, 83516, Note_on_c, 2, 62, 78
9, 83624, Note_off_c, 2, 62, 64
9, 84206, Note_on_c, 2, 62, 80
9, 84292, Note_off_c, 2, 62, 64
9, 84452, Note_on_c, 2, 62, 78
9, 84551, Note_off_c, 2, 62, 64
9, 84930, Note_on_c, 2, 62, 82
9, 85028, Note_off_c, 2, 62, 64
9, 85410, Note_on_c, 2, 61, 80
9, 85523, Note_off_c, 2, 61, 64
9, 86130, Note_on_c, 2, 61, 78
9, 86201, Note_off_c, 2, 61, 64
9, 86391, Note_on_c, 2, 61, 87
9, 86491, Note_off_c, 2, 61, 64
9, 86502, Note_on_c, 2, 62, 64
9, 86604, Note_off_c, 2, 62, 64
9, 86608, Note_on_c, 2, 61, 64
9, 86718, Note_off_c, 2, 61, 64
9, 86727, Note_on_c, 2, 59, 59
9, 86823, Note_off_c, 2, 59, 64
9, 86856, Note_on_c, 2, 57, 59
9, 86991, Note_off_c, 2, 57, 64
9, 91402, Note_on_c, 2, 66, 82
9, 91491, Note_off_c, 2, 66, 64
9, 91650, Note_on_c, 2, 61, 54
9, 91735, Note_off_c, 2, 61, 64
9, 91898, Note_on_c, 2, 63, 60
9, 91998, Note_off_c, 2, 63, 64
9, 92148, Note_on_c, 2, 64, 76
9, 92252, Note_off_c, 2, 64, 64
9, 93337, Note_on_c, 2, 64, 82
9, 93426, Note_off_c, 2, 64, 64
9, 93589, Note_on_c, 2, 59, 68
9, 93669, Note_off_c, 2, 59, 64
9, 93820, Note_on_c, 2, 61, 80
9, 93889, Note_off_c, 2, 61, 64
9, 94060, Note_on_c, 2, 62, 89
9, 94165, Note_on_c, 2, 64, 85
9, 94181, Note_off_c, 2, 62, 64
9, 94289, Note_off_c, 2, 64, 64
9, 94294, Note_on_c, 2, 66, 78
9, 94397, Note_off_c, 2, 66, 64
9, 94408, Note_on_c, 2, 67, 82
9, 94502, Note_off_c, 2, 67, 64
9, 94535, Note_on_c, 2, 69, 89
9, 94645, Note_on_c, 2, 67, 82
9, 94652, Note_off_c, 2, 69, 64
9, 94734, Note_off_c, 2, 67, 64
9, 94752, Note_on_c, 2, 69, 85
9, 94865, Note_off_c, 2, 69, 64
9, 94882, Note_on_c, 2, 66, 85
9, 94964, Note_off_c, 2, 66, 64
9, 95011, Note_on_c, 2, 67, 98
9, 95119, Note_off_c, 2, 67, 64
9, 95256, Note_on_c, 2, 62, 82
9, 95336, Note_off_c, 2, 62, 64
9, 95516, Note_on_c, 2, 59, 82
9, 95620, Note_off_c, 2, 59, 64
9, 95763, Note_on_c, 2, 71, 95
9, 95856, Note_off_c, 2, 71, 64
9, 96005, Note_on_c, 2, 69, 87
9, 96507, Note_off_c, 2, 69, 64
9, 96719, Note_on_c, 2, 71, 85
9, 96804, Note_off_c, 2, 71, 64
9, 96824, Note_on_c, 2, 69, 85
9, 96906, Note_off_c, 2, 69, 64
9, 96937, Note_on_c, 2, 67, 87
9, 97034, Note_off_c, 2, 67, 64
9, 97045, Note_on_c, 2, 69, 82
9, 97127, Note_off_c, 2, 69, 64
9, 97164, Note_on_c, 2, 71, 82
9, 97244, Note_off_c, 2, 71, 64
9, 97408, Note_on_c, 2, 59, 74
9, 97497, Note_off_c, 2, 59, 64
9, 97643, Note_on_c, 2, 61, 87
9, 97729, Note_off_c, 2, 61, 64
9, 97904, Note_on_c, 2, 57, 80
9, 98001, Note_off_c, 2, 57, 64
9, 98139, Note_on_c, 2, 62, 80
9, 98214, Note_off_c, 2, 62, 64
9, 98382, Note_on_c, 2, 69, 80
9, 98466, Note_off_c, 2, 69, 64
9, 98614, Note_on_c, 2, 66, 78
9, 98703, Note_off_c, 2, 66, 64
9, 98856, Note_on_c, 2, 67, 85
9, 98949, Note_off_c, 2, 67, 64
9, 99093, Note_on_c, 2, 69, 85
9, 99185, Note_off_c, 2, 69, 64
9, 99334, Note_on_c, 2, 59, 80
9, 99425, Note_off_c, 2, 59, 64
9, 99571, Note_on_c, 2, 71, 87
9, 99662, Note_off_c, 2, 71, 64
9, 99817, Note_on_c, 2, 69, 82
9, 99901, Note_off_c, 2, 69, 64
9, 100060, Note_on_c, 2, 57, 85
9, 100363, Note_off_c, 2, 57, 64
9, 100418, Note_on_c, 2, 57, 76
9, 100534, Note_off_c, 2, 57, 64
9, 100540, Note_on_c, 2, 59, 80
9, 100638, Note_off_c, 2, 59, 64
9, 100651, Note_on_c, 2, 60, 66
9, 100737, Note_off_c, 2, 60, 64
9, 100775, Note_on_c, 2, 59, 89
9, 100868, Note_on_c, 2, 61, 66
9, 100886, Note_off_c, 2, 59, 64
9, 101003, Note_off_c, 2, 61, 64
9, 101010, Note_on_c, 2, 62, 76
9, 101105, Note_off_c, 2, 62, 64
9, 101127, Note_on_c, 2, 64, 76
9, 101224, Note_off_c, 2, 64, 64
9, 101233, Note_on_c, 2, 66, 64
9, 101322, Note_off_c, 2, 66, 64
9, 101348, Note_on_c, 2, 67, 80
9, 101454, Note_off_c, 2, 67, 64
9, 101466, Note_on_c, 2, 69, 76
9, 101558, Note_off_c, 2, 69, 64
9, 101583, Note_on_c, 2, 71, 82
9, 101680, Note_off_c, 2, 71, 64
9, 101714, Note_on_c, 2, 69, 87
9, 101810, Note_off_c, 2, 69, 64
9, 101964, Note_on_c, 2, 57, 72
9, 102057, Note_off_c, 2, 57, 64
9, 102223, Note_on_c, 2, 57, 74
9, 102322, Note_off_c, 2, 57, 64
9, 102462, Note_on_c, 2, 57, 78
9, 102557, Note_off_c, 2, 57, 64
9, 102698, Note_on_c, 2, 64, 87
9, 102778, Note_off_c, 2, 64, 64
9, 102931, Note_on_c, 2, 60, 64
9, 103022, Note_off_c, 2, 60, 64
9, 103185, Note_on_c, 2, 62, 78
9, 103247, Note_off_c, 2, 62, 64
9, 103409, Note_on_c, 2, 62, 80
9, 103491, Note_off_c, 2, 62, 64
9, 103655, Note_on_c, 2, 62, 82
9, 103745, Note_off_c, 2, 62, 64
9, 103894, Note_on_c, 2, 67, 82
9, 103982, Note_off_c, 2, 67, 64
9, 104137, Note_on_c, 2, 62, 80
9, 104222, Note_off_c, 2, 62, 64
9, 104370, Note_on_c, 2, 59, 76
9, 104461, Note_off_c, 2, 59, 64
9, 104616, Note_on_c, 2, 66, 80
9, 104708, Note_off_c, 2, 66, 64
9, 104854, Note_on_c, 2, 62, 70
9, 104945, Note_off_c, 2, 62, 64
9, 105098, Note_on_c, 2, 64, 76
9, 105184, Note_off_c, 2, 64, 64
9, 105346, Note_on_c, 2, 64, 70
9, 105432, Note_off_c, 2, 64, 64
9, 105590, Note_on_c, 2, 64, 80
9, 105678, Note_off_c, 2, 64, 64
9, 105822, Note_on_c, 2, 61, 74
9, 105921, Note_off_c, 2, 61, 64
9, 106063, Note_on_c, 2, 69, 80
9, 106156, Note_off_c, 2, 69, 64
9, 106305, Note_on_c, 2, 64, 76
9, 106392, Note_off_c, 2, 64, 64
9, 106546, Note_on_c, 2, 71, 85
9, 106641, Note_off_c, 2, 71, 64
9, 106774, Note_on_c, 2, 67, 78
9, 106865, Note_off_c, 2, 67, 64
9, 107002, Note_on_c, 2, 69, 80
9, 107099, Note_off_c, 2, 69, 64
9, 107258, Note_on_c, 2, 69, 85
9, 107353, Note_off_c, 2, 69, 64
9, 107500, Note_on_c, 2, 69, 95
9, 107606, Note_on_c, 2, 71, 82
9, 107617, Note_off_c, 2, 69, 64
9, 107728, Note_on_c, 2, 69, 80
9, 107730, Note_off_c, 2, 71, 64
9, 107827, Note_off_c, 2, 69, 64
9, 107841, Note_on_c, 2, 67, 82
9, 107945, Note_off_c, 2, 67, 64
9, 107969, Note_on_c, 2, 66, 76
9, 108056, Note_off_c, 2, 66, 64
9, 108080, Note_on_c, 2, 67, 72
9, 108182, Note_off_c, 2, 67, 64
9, 108199, Note_on_c, 2, 66, 68
9, 108308, Note_off_c, 2, 66, 64
9, 108317, Note_on_c, 2, 64, 72
9, 108412, Note_off_c, 2, 64, 64
9, 108440, Note_on_c, 2, 62, 66
9, 108542, Note_off_c, 2, 62, 64
9, 108547, Note_on_c, 2, 61, 64
9, 108637, Note_off_c, 2, 61, 64
9, 108675, Note_on_c, 2, 62, 68
9, 108786, Note_off_c, 2, 62, 64
9, 108786, Note_on_c, 2, 64, 66
9, 108889, Note_off_c, 2, 64, 64
9, 108917, Note_on_c, 2, 66, 78
9, 109020, Note_off_c, 2, 66, 64
9, 109025, Note_on_c, 2, 67, 78
9, 109124, Note_off_c, 2, 67, 64
9, 109164, Note_on_c, 2, 69, 89
9, 109255, Note_off_c, 2, 69, 64
9, 109415, Note_on_c, 2, 69, 85
9, 109919, Note_off_c, 2, 69, 64
9, 151423, Note_on_c, 2, 74, 82
9, 151502, Note_off_c, 2, 74, 64
9, 151668, Note_on_c, 2, 71, 56
9, 152007, Note_off_c, 2, 71, 64
9, 152151, Note_on_c, 2, 71, 66
9, 152490, Note_off_c, 2, 71, 64
9, 152642, Note_on_c, 2, 71, 58
9, 153184, Note_off_c, 2, 71, 64
9, 153336, Note_on_c, 2, 59, 68
9, 153415, Note_off_c, 2, 59, 64
9, 153583, Note_on_c, 2, 63, 62
9, 153667, Note_off_c, 2, 63, 64
9, 153815, Note_on_c, 2, 66, 80
9, 153893, Note_off_c, 2, 66, 64
9, 154054, Note_on_c, 2, 59, 63
9, 154132, Note_off_c, 2, 59, 64
9, 154298, Note_on_c, 2, 64, 72
9, 154364, Note_off_c, 2, 64, 64
9, 154532, Note_on_c, 2, 63, 63
9, 154632, Note_off_c, 2, 63, 64
9, 154760, Note_on_c, 2, 66, 76
9, 154845, Note_off_c, 2, 66, 64
9, 155004, Note_on_c, 2, 59, 66
9, 155101, Note_off_c, 2, 59, 64
9, 155232, Note_on_c, 2, 69, 76
9, 155321, Note_off_c, 2, 69, 64
9, 155471, Note_on_c, 2, 67, 76
9, 155558, Note_off_c, 2, 67, 64
9, 155712, Note_on_c, 2, 64, 68
9, 155803, Note_off_c, 2, 64, 64
9, 155962, Note_on_c, 2, 63, 57
9, 156075, Note_off_c, 2, 63, 64
9, 156195, Note_on_c, 2, 64, 87
9, 156279, Note_off_c, 2, 64, 64
9, 156439, Note_on_c, 2, 66, 82
9, 156525, Note_off_c, 2, 66, 64
9, 156684, Note_on_c, 2, 59, 72
9, 156760, Note_off_c, 2, 59, 64
9, 156921, Note_on_c, 2, 64, 80
9, 157040, Note_on_c, 2, 66, 80
9, 157056, Note_off_c, 2, 64, 64
9, 157156, Note_on_c, 2, 67, 72
9, 157158, Note_off_c, 2, 66, 64
9, 157273, Note_on_c, 2, 69, 80
9, 157280, Note_off_c, 2, 67, 64
9, 157372, Note_off_c, 2, 69, 64
9, 157406, Note_on_c, 2, 67, 85
9, 157519, Note_off_c, 2, 67, 64
9, 157519, Note_on_c, 2, 69, 78
9, 157627, Note_off_c, 2, 69, 64
9, 157640, Note_on_c, 2, 71, 64
9, 157740, Note_off_c, 2, 71, 64
9, 157751, Note_on_c, 2, 67, 66
9, 157848, Note_off_c, 2, 67, 64
9, 157890, Note_on_c, 2, 69, 82
9, 158001, Note_on_c, 2, 71, 74
9, 158013, Note_off_c, 2, 69, 64
9, 158113, Note_off_c, 2, 71, 64
9, 158116, Note_on_c, 2, 72, 60
9, 158221, Note_off_c, 2, 72, 64
9, 158231, Note_on_c, 2, 69, 60
9, 158296, Note_off_c, 2, 69, 64
9, 158384, Note_on_c, 2, 76, 89
9, 158468, Note_off_c, 2, 76, 64
9, 158623, Note_on_c, 2, 64, 82
9, 158969, Note_off_c, 2, 64, 64
9, 159099, Note_on_c, 2, 76, 87
9, 159192, Note_off_c, 2, 76, 64
9, 159341, Note_on_c, 2, 75, 82
9, 159438, Note_off_c, 2, 75, 64
9, 159571, Note_on_c, 2, 71, 82
9, 159659, Note_off_c, 2, 71, 64
9, 159814, Note_on_c, 2, 72, 78
9, 159912, Note_off_c, 2, 72, 64
9, 160036, Note_on_c, 2, 66, 64
9, 160126, Note_off_c, 2, 66, 64
9, 160294, Note_on_c, 2, 64, 80
9, 160414, Note_off_c, 2, 64, 64
9, 160540, Note_on_c, 2, 76, 87
9, 160638, Note_off_c, 2, 76, 64
9, 160779, Note_on_c, 2, 73, 82
9, 160874, Note_off_c, 2, 73, 64
9, 161027, Note_on_c, 2, 69, 78
9, 161452, Note_off_c, 2, 69, 64
9, 161497, Note_on_c, 2, 70, 80
9, 161853, Note_off_c, 2, 70, 64
9, 161992, Note_on_c, 2, 71, 82
9, 162070, Note_off_c, 2, 71, 64
9, 162227, Note_on_c, 2, 64, 78
9, 162300, Note_off_c, 2, 64, 64
9, 162470, Note_on_c, 2, 67, 85
9, 162803, Note_off_c, 2, 67, 64
9, 162938, Note_on_c, 2, 66, 64
9, 163026, Note_off_c, 2, 66, 64
9, 163174, Note_on_c, 2, 66, 66
9, 163280, Note_off_c, 2, 66, 64
9, 163409, Note_on_c, 2, 69, 76
9, 163507, Note_off_c, 2, 69, 64
9, 163641, Note_on_c, 2, 71, 78
9, 163734, Note_off_c, 2, 71, 64
9, 163878, Note_on_c, 2, 67, 70
9, 163973, Note_off_c, 2, 67, 64
9, 164118, Note_on_c, 2, 61, 70
9, 164217, Note_off_c, 2, 61, 64
9, 164361, Note_on_c, 2, 73, 80
9, 164441, Note_off_c, 2, 73, 64
9, 164616, Note_on_c, 2, 70, 68
9, 164877, Note_off_c, 2, 70, 64
9, 165580, Note_on_c, 2, 66, 78
9, 165656, Note_off_c, 2, 66, 64
9, 165815, Note_on_c, 2, 62, 60
9, 165891, Note_off_c, 2, 62, 64
9, 167495, Note_on_c, 2, 70, 89
9, 167575, Note_off_c, 2, 70, 64
9, 167731, Note_on_c, 2, 66, 58
9, 167828, Note_off_c, 2, 66, 64
9, 169426, Note_on_c, 2, 75, 87
9, 169497, Note_off_c, 2, 75, 64
9, 169658, Note_on_c, 2, 71, 64
9, 169733, Note_off_c, 2, 71, 64
9, 169902, Note_on_c, 2, 71, 63
9, 170842, Note_off_c, 2, 71, 64
9, 170862, Note_on_c, 2, 70, 56
9, 171788, Note_off_c, 2, 70, 64
9, 171830, Note_on_c, 2, 69, 60
9, 172761, Note_off_c, 2, 69, 64
9, 172782, Note_on_c, 2, 68, 57
9, 173674, Note_off_c, 2, 68, 64
9, 173718, Note_on_c, 2, 67, 60
9, 174648, Note_off_c, 2, 67, 64
9, 174683, Note_on_c, 2, 66, 58
9, 174910, Note_off_c, 2, 66, 64
9, 174946, Note_on_c, 2, 66, 66
9, 175159, Note_off_c, 2, 66, 64
9, 175188, Note_on_c, 2, 66, 76
9, 175387, Note_off_c, 2, 66, 64
9, 175431, Note_on_c, 2, 66, 80
9, 175621, Note_off_c, 2, 66, 64
9, 175672, Note_on_c, 2, 66, 80
9, 175883, Note_off_c, 2, 66, 64
9, 175900, Note_on_c, 2, 61, 60
9, 176077, Note_off_c, 2, 61, 64
9, 176144, Note_on_c, 2, 61, 60
9, 176410, Note_off_c, 2, 61, 64
9, 176874, Note_on_c, 2, 59, 64
9, 176945, Note_off_c, 2, 59, 64
9, 177107, Note_on_c, 2, 64, 64
9, 177549, Note_off_c, 2, 64, 64
9, 177835, Note_on_c, 2, 57, 63
9, 177906, Note_off_c, 2, 57, 64
9, 178070, Note_on_c, 2, 62, 59
9, 178534, Note_off_c, 2, 62, 64
9, 178776, Note_on_c, 2, 67, 70
9, 178853, Note_off_c, 2, 67, 64
9, 179024, Note_on_c, 2, 66, 66
9, 179103, Note_off_c, 2, 66, 64
9, 179256, Note_on_c, 2, 69, 85
9, 179338, Note_off_c, 2, 69, 64
9, 179500, Note_on_c, 2, 66, 80
9, 179591, Note_off_c, 2, 66, 64
9, 209298, Note_on_c, 2, 62, 87
9, 209572, Note_off_c, 2, 62, 64
9, 213603, Note_on_c, 2, 59, 74
9, 213985, Note_off_c, 2, 59, 64
9, 214009, Note_on_c, 2, 61, 60
9, 214064, Note_on_c, 2, 63, 52
9, 214065, Note_off_c, 2, 61, 64
9, 214103, Note_on_c, 2, 61, 57
9, 214113, Note_off_c, 2, 63, 64
9, 214133, Note_on_c, 2, 63, 60
9, 214134, Note_off_c, 2, 61, 64
9, 214156, Note_on_c, 2, 61, 70
9, 214163, Note_off_c, 2, 63, 64
9, 214183, Note_on_c, 2, 63, 66
9, 214186, Note_off_c, 2, 61, 64
9, 214209, Note_on_c, 2, 61, 68
9, 214228, Note_off_c, 2, 63, 64
9, 214238, Note_on_c, 2, 59, 66
9, 214248, Note_off_c, 2, 61, 64
9, 214272, Note_on_c, 2, 61, 78
9, 214286, Note_off_c, 2, 59, 64
9, 214308, Note_on_c, 2, 63, 68
9, 214312, Note_off_c, 2, 61, 64
9, 214423, Note_off_c, 2, 63, 64
9, 214491, Note_on_c, 2, 59, 80
9, 214536, Note_off_c, 2, 59, 64
9, 214557, Note_on_c, 2, 71, 80
9, 215235, Note_off_c, 2, 71, 64
9, 215279, Note_on_c, 2, 70, 72
9, 215394, Note_off_c, 2, 70, 64
9, 215457, Note_on_c, 2, 73, 82
9, 215500, Note_off_c, 2, 73, 64
9, 215511, Note_on_c, 2, 66, 70
9, 215616, Note_off_c, 2, 66, 64
9, 215689, Note_on_c, 2, 70, 62
9, 215731, Note_off_c, 2, 70, 64
9, 215749, Note_on_c, 2, 71, 76
9, 216102, Note_off_c, 2, 71, 64
9, 216156, Note_on_c, 2, 69, 72
9, 216188, Note_off_c, 2, 69, 64
9, 216221, Note_on_c, 2, 69, 72
9, 216259, Note_on_c, 2, 67, 64
9, 216270, Note_off_c, 2, 69, 64
9, 216290, Note_off_c, 2, 67, 64
9, 216290, Note_on_c, 2, 69, 74
9, 216320, Note_on_c, 2, 67, 70
9, 216330, Note_off_c, 2, 69, 64
9, 216344, Note_on_c, 2, 69, 68
9, 216351, Note_off_c, 2, 67, 64
9, 216373, Note_on_c, 2, 67, 80
9, 216390, Note_off_c, 2, 69, 64
9, 216405, Note_on_c, 2, 66, 70
9, 216410, Note_off_c, 2, 67, 64
9, 216437, Note_on_c, 2, 64, 82
9, 216446, Note_off_c, 2, 66, 64
9, 216474, Note_off_c, 2, 64, 64
9, 216484, Note_on_c, 2, 69, 82
9, 217043, Note_off_c, 2, 69, 64
9, 217113, Note_on_c, 2, 60, 64
9, 217151, Note_off_c, 2, 60, 64
9, 217177, Note_on_c, 2, 59, 82
9, 217552, Note_off_c, 2, 59, 64
9, 217601, Note_on_c, 2, 66, 70
9, 217644, Note_off_c, 2, 66, 64
9, 217672, Note_on_c, 2, 71, 80
9, 218037, Note_off_c, 2, 71, 64
9, 218074, Note_on_c, 2, 69, 68
9, 218105, Note_off_c, 2, 69, 64
9, 218137, Note_on_c, 2, 69, 70
9, 218167, Note_on_c, 2, 67, 85
9, 218170, Note_off_c, 2, 69, 64
9, 218195, Note_on_c, 2, 69, 74
9, 218197, Note_off_c, 2, 67, 64
9, 218217, Note_on_c, 2, 67, 74
9, 218226, Note_off_c, 2, 69, 64
9, 218272, Note_off_c, 2, 67, 64
9, 218335, Note_on_c, 2, 66, 76
9, 218375, Note_off_c, 2, 66, 64
9, 218394, Note_on_c, 2, 67, 78
9, 218604, Note_off_c, 2, 67, 64
9, 218630, Note_on_c, 2, 61, 76
9, 218790, Note_off_c, 2, 61, 64
9, 218802, Note_on_c, 2, 62, 60
9, 218829, Note_on_c, 2, 64, 76
9, 218840, Note_off_c, 2, 62, 64
9, 218861, Note_on_c, 2, 66, 70
9, 218872, Note_off_c, 2, 64, 64
9, 218975, Note_off_c, 2, 66, 64
9, 219046, Note_on_c, 2, 64, 74
9, 219086, Note_off_c, 2, 64, 64
9, 219105, Note_on_c, 2, 66, 82
9, 219208, Note_off_c, 2, 66, 64
9, 219283, Note_on_c, 2, 62, 68
9, 219324, Note_off_c, 2, 62, 64
9, 219339, Note_on_c, 2, 64, 87
9, 219461, Note_off_c, 2, 64, 64
9, 219532, Note_on_c, 2, 62, 70
9, 219579, Note_off_c, 2, 62, 64
9, 219593, Note_on_c, 2, 61, 82
9, 219698, Note_off_c, 2, 61, 64
9, 219768, Note_on_c, 2, 66, 80
9, 219815, Note_off_c, 2, 66, 64
9, 219830, Note_on_c, 2, 62, 82
9, 219921, Note_off_c, 2, 62, 64
9, 220002, Note_on_c, 2, 59, 76
9, 220052, Note_off_c, 2, 59, 64
9, 220070, Note_on_c, 2, 58, 66
9, 220392, Note_off_c, 2, 58, 64
9, 220490, Note_on_c, 2, 61, 78
9, 220539, Note_off_c, 2, 61, 64
9, 220547, Note_on_c, 2, 62, 87
9, 220635, Note_off_c, 2, 62, 64
9, 220725, Note_on_c, 2, 64, 76
9, 220780, Note_off_c, 2, 64, 64
9, 220791, Note_on_c, 2, 66, 80
9, 220908, Note_off_c, 2, 66, 64
9, 220963, Note_on_c, 2, 67, 80
9, 221020, Note_off_c, 2, 67, 64
9, 221026, Note_on_c, 2, 66, 76
9, 221191, Note_off_c, 2, 66, 64
9, 221251, Note_on_c, 2, 66, 62
9, 221295, Note_on_c, 2, 64, 57
9, 221301, Note_off_c, 2, 66, 64
9, 221321, Note_on_c, 2, 66, 68
9, 221326, Note_off_c, 2, 64, 64
9, 221349, Note_on_c, 2, 64, 76
9, 221359, Note_off_c, 2, 66, 64
9, 221443, Note_on_c, 2, 62, 72
9, 221444, Note_off_c, 2, 64, 64
9, 221483, Note_off_c, 2, 62, 64
9, 221526, Note_on_c, 2, 62, 80
9, 222254, Note_off_c, 2, 62, 64
9, 263495, Note_on_c, 2, 66, 66
9, 263565, Note_off_c, 2, 66, 64
9, 263761, Note_on_c, 2, 66, 76
9, 263844, Note_off_c, 2, 66, 64
9, 264234, Note_on_c, 2, 66, 74
9, 264331, Note_off_c, 2, 66, 64
9, 264710, Note_on_c, 2, 64, 76
9, 264811, Note_off_c, 2, 64, 64
9, 265431, Note_on_c, 2, 64, 66
9, 265502, Note_off_c, 2, 64, 64
9, 265666, Note_on_c, 2, 64, 72
9, 265763, Note_off_c, 2, 64, 64
9, 266159, Note_on_c, 2, 64, 76
9, 266258, Note_off_c, 2, 64, 64
9, 266636, Note_on_c, 2, 62, 78
9, 266744, Note_off_c, 2, 62, 64
9, 267326, Note_on_c, 2, 62, 80
9, 267412, Note_off_c, 2, 62, 64
9, 267572, Note_on_c, 2, 62, 78
9, 267671, Note_off_c, 2, 62, 64
9, 268050, Note_on_c, 2, 62, 82
9, 268148, Note_off_c, 2, 62, 64
9, 268530, Note_on_c, 2, 61, 80
9, 268643, Note_off_c, 2, 61, 64
9, 269250, Note_on_c, 2, 61, 78
9, 269321, Note_off_c, 2, 61, 64
9, 269511, Note_on_c, 2, 61, 87
9, 269611, Note_off_c, 2, 61, 64
9, 269622, Note_on_c, 2, 62, 64
9, 269724, Note_off_c, 2, 62, 64
9, 269728, Note_on_c, 2, 61, 64
9, 269838, Note_off_c, 2, 61, 64
9, 269847, Note_on_c, 2, 59, 59
9, 269943, Note_off_c, 2, 59, 64
9, 269976, Note_on_c, 2, 57, 59
9, 270111, Note_off_c, 2, 57, 64
9, 274522, Note_on_c, 2, 66, 82
9, 274611, Note_off_c, 2, 66, 64
9, 274770, Note_on_c, 2, 61, 54
9, 274855, Note_off_c, 2, 61, 64
9, 275018, Note_on_c, 2, 63, 60
9, 275118, Note_off_c, 2, 63, 64
9, 275268, Note_on_c, 2, 64, 76
9, 275372, Note_off_c, 2, 64, 64
9, 276457, Note_on_c, 2, 64, 82
9, 276546, Note_off_c, 2, 64, 64
9, 276709, Note_on_c, 2, 59, 68
9, 276789, Note_off_c, 2, 59, 64
9, 276940, Note_on_c, 2, 61, 80
9, 277009, Note_off_c, 2, 61, 64
9, 277180, Note_on_c, 2, 62, 89
9, 277285, Note_on_c, 2, 64, 85
9, 277301, Note_off_c, 2, 62, 64
9, 277409, Note_off_c, 2, 64, 64
9, 277414, Note_on_c, 2, 66, 78
9, 277517, Note_off_c, 2, 66, 64
9, 277528, Note_on_c, 2, 67, 82
9, 277622, Note_off_c, 2, 67, 64
9, 277655, Note_on_c, 2, 69, 89
9, 277765, Note_on_c, 2, 67, 82
9, 277772, Note_off_c, 2, 69, 64
9, 277854, Note_off_c, 2, 67, 64
9, 277872, Note_on_c, 2, 69, 85
9, 277985, Note_off_c, 2, 69, 64
9, 278002, Note_on_c, 2, 66, 85
9, 278084, Note_off_c, 2, 66, 64
9, 278131, Note_on_c, 2, 67, 98
9, 278239, Note_off_c, 2, 67, 64
9, 278376, Note_on_c, 2, 62, 82
9, 278456, Note_off_c, 2, 62, 64
9, 278636, Note_on_c, 2, 59, 82
9, 278740, Note_off_c, 2, 59, 64
9, 278883, Note_on_c, 2, 71, 95
9, 278976, Note_off_c, 2, 71, 64
9, 279125, Note_on_c, 2, 69, 87
9, 279627, Note_off_c, 2, 69, 64
9, 279839, Note_on_c, 2, 71, 85
9, 279924, Note_off_c, 2, 71, 64
9, 279944, Note_on_c, 2, 69, 85
9, 280026, Note_off_c, 2, 69, 64
9, 280057, Note_on_c, 2, 67, 87
9, 280154, Note_off_c, 2, 67, 64
9, 280165, Note_on_c, 2, 69, 82
9, 280247, Note_off_c, 2, 69, 64
9, 280284, Note_on_c, 2, 71, 82
9, 280364, Note_off_c, 2, 71, 64
9, 280528, Note_on_c, 2, 59, 74
9, 280617, Note_off_c, 2, 59, 64
9, 280763, Note_on_c, 2, 61, 87
9, 280849, Note_off_c, 2, 61, 64
9, 281024, Note_on_c, 2, 57, 80
9, 281121, Note_off_c, 2, 57, 64
9, 281259, Note_on_c, 2, 62, 80
9, 281334, Note_off_c, 2, 62, 64
9, 281502, Note_on_c, 2, 69, 80
9, 281586, Note_off_c, 2, 69, 64
9, 281734, Note_on_c, 2, 66, 78
9, 281823, Note_off_c, 2, 66, 64
9, 281976, Note_on_c, 2, 67, 85
9, 282069, Note_off_c, 2, 67, 64
9, 282213, Note_on_c, 2, 69, 85
9, 282305, Note_off_c, 2, 69, 64
9, 282454, Note_on_c, 2, 59, 80
9, 282545, Note_off_c, 2, 59, 64
9, 282691, Note_on_c, 2, 71, 87
9, 282782, Note_off_c, 2, 71, 64
9, 282937, Note_on_c, 2, 69, 82
9, 283021, Note_off_c, 2, 69, 64
9, 283180, Note_on_c, 2, 57, 85
9, 283483, Note_off_c, 2, 57, 64
9, 283538, Note_on_c, 2, 57, 76
9, 283654, Note_off_c, 2, 57, 64
9, 283660, Note_on_c, 2, 59, 80
9, 283758, Note_off_c, 2, 59, 64
9, 283771, Note_on_c, 2, 60, 66
9, 283857, Note_off_c, 2, 60, 64
9, 283895, Note_on_c, 2, 59, 89
9, 283988, Note_on_c, 2, 61, 66
9, 284006, Note_off_c, 2, 59, 64
9, 284123, Note_off_c, 2, 61, 64
9, 284130, Note_on_c, 2, 62, 76
9, 284225, Note_off_c, 2, 62, 64
9, 284247, Note_on_c, 2, 64, 76
9, 284344, Note_off_c, 2, 64, 64
9, 284353, Note_on_c, 2, 66, 64
9, 284442, Note_off_c, 2, 66, 64
9, 284468, Note_on_c, 2, 67, 80
9, 284574, Note_off_c, 2, 67, 64
9, 284586, Note_on_c, 2, 69, 76
9, 284678, Note_off_c, 2, 69, 64
9, 284703, Note_on_c, 2, 71, 82
9, 284800, Note_off_c, 2, 71, 64
9, 284834, Note_on_c, 2, 69, 87
9, 284930, Note_off_c, 2, 69, 64
9, 285084, Note_on_c, 2, 57, 72
9, 285177, Note_off_c, 2, 57, 64
9, 285343, Note_on_c, 2, 57, 74
9, 285442, Note_off_c, 2, 57, 64
9, 285582, Note_on_c, 2, 57, 78
9, 285677, Note_off_c, 2, 57, 64
9, 285818, Note_on_c, 2, 64, 87
9, 285898, Note_off_c, 2, 64, 64
9, 286051, Note_on_c, 2, 60, 64
9, 286142, Note_off_c, 2, 60, 64
9, 286305, Note_on_c, 2, 62, 78
9, 286367, Note_off_c, 2, 62, 64
9, 286529, Note_on_c, 2, 62, 80
9, 286611, Note_off_c, 2, 62, 64
9, 286775, Note_on_c, 2, 62, 82
9, 286865, Note_off_c, 2, 62, 64
9, 287014, Note_on_c, 2, 67, 82
9, 287102, Note_off_c, 2, 67, 64
9, 287257, Note_on_c, 2, 62, 80
9, 287342, Note_off_c, 2, 62, 64
9, 287490, Note_on_c, 2, 59, 76
9, 287581, Note_off_c, 2, 59, 64
9, 287736, Note_on_c, 2, 66, 80
9, 287828, Note_off_c, 2, 66, 64
9, 287974, Note_on_c, 2, 62, 70
9, 288065, Note_off_c, 2, 62, 64
9, 288218, Note_on_c, 2, 64, 76
9, 288304, Note_off_c, 2, 64, 64
9, 288466, Note_on_c, 2, 64, 70
9, 288552, Note_off_c, 2, 64, 64
9, 288710, Note_on_c, 2, 64, 80
9, 288798, Note_off_c, 2, 64, 64
9, 288942, Note_on_c, 2, 61, 74
9, 289041, Note_off_c, 2, 61, 64
9, 289183, Note_on_c, 2, 69, 80
9, 289276, Note_off_c, 2, 69, 64
9, 289425, Note_on_c, 2, 64, 76
9, 289512, Note_off_c, 2, 64, 64
9, 289666, Note_on_c, 2, 71, 85
9, 289761, Note_off_c, 2, 71, 64
9, 289894, Note_on_c, 2, 67, 78
9, 289985, Note_off_c, 2, 67, 64
9, 290122, Note_on_c, 2, 69, 80
9, 290219, Note_off_c, 2, 69, 64
9, 290378, Note_on_c, 2, 69, 85
9, 290473, Note_off_c, 2, 69, 64
9, 290620, Note_on_c, 2, 69, 95
9, 290726, Note_on_c, 2, 71, 82
9, 290737, Note_off_c, 2, 69, 64
9, 290848, Note_on_c, 2, 69, 80
9, 290850, Note_off_c, 2, 71, 64
9, 290947, Note_off_c, 2, 69, 64
9, 290961, Note_on_c, 2, 67, 82
9, 291065, Note_off_c, 2, 67, 64
9, 291089, Note_on_c, 2, 66, 76
9, 291176, Note_off_c, 2, 66, 64
9, 291200, Note_on_c, 2, 67, 72
9, 291302, Note_off_c, 2, 67, 64
9, 291319, Note_on_c, 2, 66, 68
9, 291428, Note_off_c, 2, 66, 64
9, 291437, Note_on_c, 2, 64, 72
9, 291532, Note_off_c, 2, 64, 64
9, 291560, Note_on_c, 2, 62, 66
9, 291662, Note_off_c, 2, 62, 64
9, 291667, Note_on_c, 2, 61, 64
9, 291757, Note_off_c, 2, 61, 64
9, 291795, Note_on_c, 2, 62, 68
9, 291906, Note_off_c, 2, 62, 64
9, 291906, Note_on_c, 2, 64, 66
9, 292009, Note_off_c, 2, 64, 64
9, 292037, Note_on_c, 2, 66, 78
9, 292140, Note_off_c, 2, 66, 64
9, 292145, Note_on_c, 2, 67, 78
9, 292244, Note_off_c, 2, 67, 64
9, 292284, Note_on_c, 2, 69, 89
9, 292375, Note_off_c, 2, 69, 64
9, 292535, Note_on_c, 2, 69, 85
9, 293039, Note_off_c, 2, 69, 64
9, 334543, Note_on_c, 2, 74, 82
9, 334622, Note_off_c, 2, 74, 64
9, 334788, Note_on_c, 2, 71, 56
9, 335127, Note_off_c, 2, 71, 64
9, 335271, Note_on_c, 2, 71, 66
9, 335610, Note_off_c, 2, 71, 64
9, 335762, Note_on_c, 2, 71, 58
9, 336304, Note_off_c, 2, 71, 64
9, 336456, Note_on_c, 2, 59, 68
9, 336535, Note_off_c, 2, 59, 64
9, 336703, Note_on_c, 2, 63, 62
9, 336787, Note_off_c, 2, 63, 64
9, 336935, Note_on_c, 2, 66, 80
9, 337013, Note_off_c, 2, 66, 64
9, 337174, Note_on_c, 2, 59, 63
9, 337252, Note_off_c, 2, 59, 64
9, 337418, Note_on_c, 2, 64, 72
9, 337484, Note_off_c, 2, 64, 64
9, 337652, Note_on_c, 2, 63, 63
9, 337752, Note_off_c, 2, 63, 64
9, 337880, Note_on_c, 2, 66, 76
9, 337965, Note_off_c, 2, 66, 64
9, 338124, Note_on_c, 2, 59, 66
9, 338221, Note_off_c, 2, 59, 64
9, 338352, Note_on_c, 2, 69, 76
9, 338441, Note_off_c, 2, 69, 64
9, 338591, Note_on_c, 2, 67, 76
9, 338678, Note_off_c, 2, 67, 64
9, 338832, Note_on_c, 2, 64, 68
9, 338923, Note_off_c, 2, 64, 64
9, 339082, Note_on_c, 2, 63, 57
9, 339195, Note_off_c, 2, 63, 64
9, 339315, Note_on_c, 2, 64, 87
9, 339399, Note_off_c, 2, 64, 64
9, 339559, Note_on_c, 2, 66, 82
9, 339645, Note_off_c, 2, 66, 64
9, 339804, Note_on_c, 2, 59, 72
9, 339880, Note_off_c, 2, 59, 64
9, 340041, Note_on_c, 2, 64, 80
9, 340160, Note_on_c, 2, 66, 80
9, 340176, Note_off_c, 2, 64, 64
9, 340276, Note_on_c, 2, 67, 72
9, 340278, Note_off_c, 2, 66, 64
9, 340393, Note_on_c, 2, 69, 80
9, 340400, Note_off_c, 2, 67, 64
9, 340492, Note_off_c, 2, 69, 64
9, 340526, Note_on_c, 2, 67, 85
9, 340639, Note_off_c, 2, 67, 64
9, 340639, Note_on_c, 2, 69, 78
9, 340747, Note_off_c, 2, 69, 64
9, 340760, Note_on_c, 2, 71, 64
9, 340860, Note_off_c, 2, 71, 64
9, 340871, Note_on_c, 2, 67, 66
9, 340968, Note_off_c, 2, 67, 64
9, 341010, Note_on_c, 2, 69, 82
9, 341121, Note_on_c, 2, 71, 74
9, 341133, Note_off_c, 2, 69, 64
9, 341233, Note_off_c, 2, 71, 64
9, 341236, Note_on_c, 2, 72, 60
9, 341341, Note_off_c, 2, 72, 64
9, 341351, Note_on_c, 2, 69, 60
9, 341416, Note_off_c, 2, 69, 64
9, 341504, Note_on_c, 2, 76, 89
9, 341588, Note_off_c, 2, 76, 64
9, 341743, Note_on_c, 2, 64, 82
9, 342089, Note_off_c, 2, 64, 64
9, 342219, Note_on_c, 2, 76, 87
9, 342312, Note_off_c, 2, 76, 64
9, 342461, Note_on_c, 2, 75, 82
9, 342558, Note_off_c, 2, 75, 64
9, 342691, Note_on_c, 2, 71, 82
9, 342779, Note_off_c, 2, 71, 64
9, 342934, Note_on_c, 2, 72, 78
9, 343032, Note_off_c, 2, 72, 64
9, 343156, Note_on_c, 2, 66, 64
9, 343246, Note_off_c, 2, 66, 64
9, 343414, Note_on_c, 2, 64, 80
9, 343534, Note_off_c, 2, 64, 64
9, 343660, Note_on_c, 2, 76, 87
9, 343758, Note_off_c, 2, 76, 64
9, 343899, Note_on_c, 2, 73, 82
9, 343994, Note_off_c, 2, 73, 64
9, 344147, Note_on_c, 2, 69, 78
9, 344572, Note_off_c, 2, 69, 64
9, 344617, Note_on_c, 2, 70, 80
9, 344973, Note_off_c, 2, 70, 64
9, 345112, Note_on_c, 2, 71, 82
9, 345190, Note_off_c, 2, 71, 64
9, 345347, Note_on_c, 2, 64, 78
9, 345420, Note_off_c, 2, 64, 64
9, 345590, Note_on_c, 2, 67, 85
9, 345923, Note_off_c, 2, 67, 64
9, 346058, Note_on_c, 2, 66, 64
9, 346146, Note_off_c, 2, 66, 64
9, 346294, Note_on_c, 2, 66, 66
9, 346400, Note_off_c, 2, 66, 64
9, 346529, Note_on_c, 2, 69, 76
9, 346627, Note_off_c, 2, 69, 64
9, 346761, Note_on_c, 2, 71, 78
9, 346854, Note_off_c, 2, 71, 64
9, 346998, Note_on_c, 2, 67, 70
9, 347093, Note_off_c, 2, 67, 64
9, 347238, Note_on_c, 2, 61, 70
9, 347337, Note_off_c, 2, 61, 64
9, 347481, Note_on_c, 2, 73, 80
9, 347561, Note_off_c, 2, 73, 64
9, 347736, Note_on_c, 2, 70, 68
9, 347997, Note_off_c, 2, 70, 64
9, 348700, Note_on_c, 2, 66, 78
9, 348776, Note_off_c, 2, 66, 64
9, 348935, Note_on_c, 2, 62, 60
9, 349011, Note_off_c, 2, 62, 64
9, 350615, Note_on_c, 2, 70, 89
9, 350695, Note_off_c, 2, 70, 64
9, 350851, Note_on_c, 2, 66, 58
9, 350948, Note_off_c, 2, 66, 64
9, 352546, Note_on_c, 2, 75, 87
9, 352617, Note_off_c, 2, 75, 64
9, 352778, Note_on_c, 2, 71, 64
9, 352853, Note_off_c, 2, 71, 64
9, 353022, Note_on_c, 2, 71, 63
9, 353962, Note_off_c, 2, 71, 64
9, 353982, Note_on_c, 2, 70, 56
9, 354908, Note_off_c, 2, 70, 64
9, 354950, Note_on_c, 2, 69, 60
9, 355881, Note_off_c, 2, 69, 64
9, 355902, Note_on_c, 2, 68, 57
9, 356794, Note_off_c, 2, 68, 64
9, 356838, Note_on_c, 2, 67, 60
9, 357768, Note_off_c, 2, 67, 64
9, 357803, Note_on_c, 2, 66, 58
9, 358030, Note_off_c, 2, 66, 64
9, 358066, Note_on_c, 2, 66, 66
9, 358279, Note_off_c, 2, 66, 64
9, 358308, Note_on_c, 2, 66, 76
9, 358507, Note_off_c, 2, 66, 64
9, 358551, Note_on_c, 2, 66, 80
9, 358741, Note_off_c, 2, 66, 64
9, 358792, Note_on_c, 2, 66, 80
9, 359003, Note_off_c, 2, 66, 64
9, 359020, Note_on_c, 2, 61, 60
9, 359197, Note_off_c, 2, 61, 64
9, 359264, Note_on_c, 2, 61, 60
9, 359530, Note_off_c, 2, 61, 64
9, 359994, Note_on_c, 2, 59, 64
9, 360065, Note_off_c, 2, 59, 64
9, 360227, Note_on_c, 2, 64, 64
9, 360669, Note_off_c, 2, 64, 64
9, 360955, Note_on_c, 2, 57, 63
9, 361026, Note_off_c, 2, 57, 64
9, 361190, Note_on_c, 2, 62, 59
9, 361654, Note_off_c, 2, 62, 64
9, 361896, Note_on_c, 2, 67, 70
9, 361973, Note_off_c, 2, 67, 64
9, 362144, Note_on_c, 2, 66, 66
9, 362223, Note_off_c, 2, 66, 64
9, 362376, Note_on_c, 2, 69, 85
9, 362458, Note_off_c, 2, 69, 64
9, 362620, Note_on_c, 2, 66, 80
9, 362711, Note_off_c, 2, 66, 64
9, 392407, Note_on_c, 2, 62, 80
9, 392697, Note_off_c, 2, 62, 64
9, 396719, Note_on_c, 2, 59, 78
9, 397116, Note_off_c, 2, 59, 64
9, 397123, Note_on_c, 2, 61, 78
9, 397177, Note_on_c, 2, 63, 58
9, 397182, Note_off_c, 2, 61, 64
9, 397214, Note_on_c, 2, 61, 68
9, 397223, Note_off_c, 2, 63, 64
9, 397245, Note_off_c, 2, 61, 64
9, 397245, Note_on_c, 2, 63, 68
9, 397269, Note_on_c, 2, 61, 68
9, 397275, Note_off_c, 2, 63, 64
9, 397294, Note_on_c, 2, 63, 64
9, 397296, Note_off_c, 2, 61, 64
9, 397317, Note_on_c, 2, 61, 66
9, 397337, Note_off_c, 2, 63, 64
9, 397353, Note_on_c, 2, 59, 74
9, 397359, Note_off_c, 2, 61, 64
9, 397384, Note_on_c, 2, 61, 82
9, 397404, Note_off_c, 2, 59, 64
9, 397423, Note_on_c, 2, 63, 85
9, 397430, Note_off_c, 2, 61, 64
9, 397533, Note_off_c, 2, 63, 64
9, 397606, Note_on_c, 2, 59, 70
9, 397660, Note_off_c, 2, 59, 64
9, 397671, Note_on_c, 2, 71, 85
9, 398362, Note_off_c, 2, 71, 64
9, 398403, Note_on_c, 2, 70, 64
9, 398508, Note_off_c, 2, 70, 64
9, 398577, Note_on_c, 2, 73, 82
9, 398631, Note_off_c, 2, 73, 64
9, 398639, Note_on_c, 2, 66, 78
9, 398732, Note_off_c, 2, 66, 64
9, 398804, Note_on_c, 2, 70, 68
9, 398855, Note_off_c, 2, 70, 64
9, 398869, Note_on_c, 2, 71, 80
9, 399240, Note_off_c, 2, 71, 64
9, 399284, Note_on_c, 2, 69, 74
9, 399316, Note_off_c, 2, 69, 64
9, 399345, Note_on_c, 2, 69, 87
9, 399380, Note_on_c, 2, 67, 82
9, 399389, Note_off_c, 2, 69, 64
9, 399408, Note_off_c, 2, 67, 64
9, 399411, Note_on_c, 2, 69, 55
9, 399430, Note_on_c, 2, 67, 72
9, 399442, Note_off_c, 2, 69, 64
9, 399515, Note_on_c, 2, 66, 68
9, 399523, Note_off_c, 2, 67, 64
9, 399547, Note_on_c, 2, 64, 87
9, 399553, Note_off_c, 2, 66, 64
9, 399590, Note_off_c, 2, 64, 64
9, 399594, Note_on_c, 2, 69, 66
9, 400177, Note_off_c, 2, 69, 64
9, 400249, Note_on_c, 2, 60, 89
9, 400290, Note_off_c, 2, 60, 64
9, 400312, Note_on_c, 2, 59, 91
9, 400670, Note_off_c, 2, 59, 64
9, 400708, Note_on_c, 2, 66, 82
9, 400757, Note_off_c, 2, 66, 64
9, 400778, Note_on_c, 2, 71, 82
9, 401167, Note_off_c, 2, 71, 64
9, 401199, Note_on_c, 2, 69, 62
9, 401229, Note_off_c, 2, 69, 64
9, 401254, Note_on_c, 2, 69, 85
9, 401286, Note_on_c, 2, 67, 98
9, 401287, Note_off_c, 2, 69, 64
9, 401312, Note_on_c, 2, 69, 78
9, 401316, Note_off_c, 2, 67, 64
9, 401335, Note_on_c, 2, 67, 85
9, 401348, Note_off_c, 2, 69, 64
9, 401386, Note_off_c, 2, 67, 64
9, 401454, Note_on_c, 2, 66, 74
9, 401497, Note_off_c, 2, 66, 64
9, 401515, Note_on_c, 2, 67, 74
9, 401763, Note_on_c, 2, 61, 60
9, 401770, Note_off_c, 2, 67, 64
9, 401909, Note_off_c, 2, 61, 64
9, 401921, Note_on_c, 2, 62, 58
9, 401949, Note_on_c, 2, 64, 82
9, 401955, Note_off_c, 2, 62, 64
9, 401984, Note_off_c, 2, 64, 64
9, 401993, Note_on_c, 2, 66, 72
9, 402115, Note_off_c, 2, 66, 64
9, 402168, Note_on_c, 2, 64, 64
9, 402208, Note_off_c, 2, 64, 64
9, 402223, Note_on_c, 2, 66, 85
9, 402331, Note_off_c, 2, 66, 64
9, 402408, Note_on_c, 2, 62, 80
9, 402451, Note_off_c, 2, 62, 64
9, 402464, Note_on_c, 2, 64, 85
9, 402587, Note_off_c, 2, 64, 64
9, 402653, Note_on_c, 2, 62, 76
9, 402697, Note_off_c, 2, 62, 64
9, 402711, Note_on_c, 2, 61, 85
9, 402814, Note_off_c, 2, 61, 64
9, 402887, Note_on_c, 2, 66, 82
9, 402939, Note_off_c, 2, 66, 64
9, 402950, Note_on_c, 2, 62, 87
9, 403034, Note_off_c, 2, 62, 64
9, 403121, Note_on_c, 2, 59, 80
9, 403170, Note_off_c, 2, 59, 64
9, 403188, Note_on_c, 2, 58, 66
9, 403541, Note_off_c, 2, 58, 64
9, 403607, Note_on_c, 2, 61, 82
9, 403656, Note_off_c, 2, 61, 64
9, 403664, Note_on_c, 2, 62, 95
9, 403747, Note_off_c, 2, 62, 64
9, 403833, Note_on_c, 2, 64, 85
9, 403886, Note_off_c, 2, 64, 64
9, 403900, Note_on_c, 2, 66, 89
9, 404019, Note_off_c, 2, 66, 64
9, 404083, Note_on_c, 2, 67, 76
9, 404131, Note_off_c, 2, 67, 64
9, 404145, Note_on_c, 2, 66, 82
9, 404336, Note_off_c, 2, 66, 64
9, 404377, Note_on_c, 2, 66, 64
9, 404415, Note_on_c, 2, 64, 64
9, 404425, Note_off_c, 2, 66, 64
9, 404442, Note_on_c, 2, 66, 70
9, 404447, Note_off_c, 2, 64, 64
9, 404467, Note_on_c, 2, 64, 78
9, 404475, Note_off_c, 2, 66, 64
9, 404498, Note_on_c, 2, 66, 80
9, 404524, Note_off_c, 2, 66, 64
9, 404587, Note_on_c, 2, 62, 80
9, 404590, Note_off_c, 2, 64, 64
9, 404634, Note_off_c, 2, 62, 64
9, 404666, Note_on_c, 2, 62, 89
9, 405612, Note_off_c, 2, 62, 64
9, 405612, End_track
10, 0, Start_track
10, 0, Title_t, "Cello"
10, 0, Program_c, 3, 42
10, 0, Control_c, 3, 7, 100
10, 19369, Note_on_c, 3, 54, 61
10, 19394, Note_on_c, 3, 56, 64
10, 19407, Note_off_c, 3, 54, 64
10, 19431, Note_on_c, 3, 58, 63
10, 19435, Note_off_c, 3, 56, 64
10, 19466, Note_on_c, 3, 56, 74
10, 19477, Note_off_c, 3, 58, 64
10, 19497, Note_off_c, 3, 56, 64
10, 19497, Note_on_c, 3, 58, 66
10, 19520, Note_on_c, 3, 56, 64
10, 19526, Note_off_c, 3, 58, 64
10, 19549, Note_off_c, 3, 56, 64
10, 19549, Note_on_c, 3, 58, 76
10, 19570, Note_on_c, 3, 56, 63
10, 19582, Note_off_c, 3, 58, 64
10, 19604, Note_on_c, 3, 54, 66
10, 19612, Note_off_c, 3, 56, 64
10, 19638, Note_on_c, 3, 56, 85
10, 19650, Note_off_c, 3, 54, 64
10, 19670, Note_on_c, 3, 58, 70
10, 19675, Note_off_c, 3, 56, 64
10, 19788, Note_off_c, 3, 58, 64
10, 19839, Note_on_c, 3, 56, 62
10, 19863, Note_on_c, 3, 54, 63
10, 19875, Note_off_c, 3, 56, 64
10, 19902, Note_off_c, 3, 54, 64
10, 19902, Note_on_c, 3, 59, 87
10, 20003, Note_off_c, 3, 59, 64
10, 20096, Note_on_c, 3, 59, 89
10, 20129, Note_off_c, 3, 59, 64
10, 20150, Note_on_c, 3, 47, 85
10, 21244, Note_off_c, 3, 47, 64
10, 21294, Note_on_c, 3, 47, 78
10, 21325, Note_on_c, 3, 49, 68
10, 21350, Note_off_c, 3, 47, 64
10, 21353, Note_on_c, 3, 50, 66
10, 21360, Note_off_c, 3, 49, 64
10, 21388, Note_on_c, 3, 49, 85
10, 21397, Note_off_c, 3, 50, 64
10, 21413, Note_on_c, 3, 50, 66
10, 21415, Note_off_c, 3, 49, 64
10, 21440, Note_on_c, 3, 49, 76
10, 21445, Note_off_c, 3, 50, 64
10, 21464, Note_off_c, 3, 49, 64
10, 21464, Note_on_c, 3, 50, 66
10, 21483, Note_on_c, 3, 49, 58
10, 21486, Note_off_c, 3, 50, 64
10, 21502, Note_off_c, 3, 49, 64
10, 21506, Note_on_c, 3, 50, 68
10, 21522, Note_on_c, 3, 49, 66
10, 21534, Note_off_c, 3, 50, 64
10, 21545, Note_on_c, 3, 47, 66
10, 21553, Note_off_c, 3, 49, 64
10, 21574, Note_on_c, 3, 49, 63
10, 21593, Note_off_c, 3, 47, 64
10, 21602, Note_off_c, 3, 49, 64
10, 21602, Note_on_c, 3, 50, 68
10, 21723, Note_off_c, 3, 50, 64
10, 21767, Note_on_c, 3, 49, 59
10, 21798, Note_on_c, 3, 47, 80
10, 21812, Note_off_c, 3, 49, 64
10, 21837, Note_off_c, 3, 47, 64
10, 21838, Note_on_c, 3, 55, 87
10, 21938, Note_off_c, 3, 55, 64
10, 22017, Note_on_c, 3, 55, 89
10, 22045, Note_off_c, 3, 55, 64
10, 22077, Note_on_c, 3, 55, 100
10, 22188, Note_on_c, 3, 54, 60
10, 22195, Note_off_c, 3, 55, 64
10, 23173, Note_off_c, 3, 54, 64
10, 23218, Note_on_c, 3, 54, 72
10, 23242, Note_on_c, 3, 56, 66
10, 23256, Note_off_c, 3, 54, 64
10, 23272, Note_on_c, 3, 58, 61
10, 23278, Note_off_c, 3, 56, 64
10, 23306, Note_on_c, 3, 56, 78
10, 23314, Note_off_c, 3, 58, 64
10, 23334, Note_on_c, 3, 58, 62
10, 23335, Note_off_c, 3, 56, 64
10, 23357, Note_on_c, 3, 56, 64
10, 23366, Note_off_c, 3, 58, 64
10, 23387, Note_on_c, 3, 58, 64
10, 23393, Note_off_c, 3, 56, 64
10, 23413, Note_on_c, 3, 56, 60
10, 23425, Note_off_c, 3, 58, 64
10, 23451, Note_on_c, 3, 54, 59
10, 23455, Note_off_c, 3, 56, 64
10, 23484, Note_on_c, 3, 56, 78
10, 23497, Note_off_c, 3, 54, 64
10, 23519, Note_on_c, 3, 58, 82
10, 23521, Note_off_c, 3, 56, 64
10, 23630, Note_off_c, 3, 58, 64
10, 23679, Note_on_c, 3, 56, 59
10, 23705, Note_on_c, 3, 54, 64
10, 23718, Note_off_c, 3, 56, 64
10, 23746, Note_on_c, 3, 59, 87
10, 23749, Note_off_c, 3, 54, 64
10, 23844, Note_off_c, 3, 59, 64
10, 23933, Note_on_c, 3, 59, 78
10, 23965, Note_off_c, 3, 59, 64
10, 23982, Note_on_c, 3, 59, 87
10, 24105, Note_off_c, 3, 59, 64
10, 24175, Note_on_c, 3, 60, 78
10, 24216, Note_off_c, 3, 60, 64
10, 24230, Note_on_c, 3, 59, 91
10, 24317, Note_off_c, 3, 59, 64
10, 24415, Note_on_c, 3, 57, 80
10, 24453, Note_off_c, 3, 57, 64
10, 24464, Note_on_c, 3, 55, 82
10, 24569, Note_off_c, 3, 55, 64
10, 24639, Note_on_c, 3, 57, 68
10, 24671, Note_off_c, 3, 57, 64
10, 24705, Note_on_c, 3, 57, 87
10, 24727, Note_on_c, 3, 55, 85
10, 24734, Note_off_c, 3, 57, 64
10, 24751, Note_on_c, 3, 57, 74
10, 24755, Note_off_c, 3, 55, 64
10, 24773, Note_on_c, 3, 55, 74
10, 24780, Note_off_c, 3, 57, 64
10, 24820, Note_off_c, 3, 55, 64
10, 24893, Note_on_c, 3, 54, 87
10, 24926, Note_off_c, 3, 54, 64
10, 24951, Note_on_c, 3, 52, 80
10, 25070, Note_off_c, 3, 52, 64
10, 25130, Note_on_c, 3, 40, 59
10, 25155, Note_on_c, 3, 42, 68
10, 25176, Note_off_c, 3, 40, 64
10, 25191, Note_on_c, 3, 43, 80
10, 25192, Note_off_c, 3, 42, 64
10, 25224, Note_on_c, 3, 42, 85
10, 25232, Note_off_c, 3, 43, 64
10, 25251, Note_off_c, 3, 42, 64
10, 25251, Note_on_c, 3, 43, 68
10, 25275, Note_on_c, 3, 42, 68
10, 25280, Note_off_c, 3, 43, 64
10, 25300, Note_off_c, 3, 42, 64
10, 25302, Note_on_c, 3, 43, 72
10, 25320, Note_on_c, 3, 42, 61
10, 25337, Note_off_c, 3, 43, 64
10, 25355, Note_on_c, 3, 40, 64
10, 25361, Note_off_c, 3, 42, 64
10, 25387, Note_on_c, 3, 42, 66
10, 25405, Note_off_c, 3, 40, 64
10, 25420, Note_off_c, 3, 42, 64
10, 25429, Note_on_c, 3, 43, 87
10, 25528, Note_off_c, 3, 43, 64
10, 25594, Note_on_c, 3, 42, 55
10, 25621, Note_on_c, 3, 40, 66
10, 25633, Note_off_c, 3, 42, 64
10, 25661, Note_off_c, 3, 40, 64
10, 25669, Note_on_c, 3, 45, 87
10, 25758, Note_off_c, 3, 45, 64
10, 25847, Note_on_c, 3, 45, 76
10, 25883, Note_off_c, 3, 45, 64
10, 25904, Note_on_c, 3, 45, 87
10, 26016, Note_off_c, 3, 45, 64
10, 26090, Note_on_c, 3, 52, 66
10, 26130, Note_off_c, 3, 52, 64
10, 26145, Note_on_c, 3, 57, 95
10, 26234, Note_off_c, 3, 57, 64
10, 26332, Note_on_c, 3, 55, 85
10, 26363, Note_off_c, 3, 55, 64
10, 26393, Note_on_c, 3, 55, 85
10, 26416, Note_on_c, 3, 54, 87
10, 26427, Note_off_c, 3, 55, 64
10, 26441, Note_on_c, 3, 55, 70
10, 26445, Note_off_c, 3, 54, 64
10, 26463, Note_on_c, 3, 54, 70
10, 26475, Note_off_c, 3, 55, 64
10, 26523, Note_off_c, 3, 54, 64
10, 26582, Note_on_c, 3, 55, 82
10, 26619, Note_off_c, 3, 55, 64
10, 26642, Note_on_c, 3, 54, 98
10, 26735, Note_off_c, 3, 54, 64
10, 26815, Note_on_c, 3, 52, 85
10, 26853, Note_off_c, 3, 52, 64
10, 26868, Note_on_c, 3, 50, 85
10, 27003, Note_off_c, 3, 50, 64
10, 27046, Note_on_c, 3, 52, 66
10, 27072, Note_on_c, 3, 50, 70
10, 27079, Note_off_c, 3, 52, 64
10, 27099, Note_on_c, 3, 52, 64
10, 27114, Note_off_c, 3, 50, 64
10, 27125, Note_on_c, 3, 54, 62
10, 27129, Note_off_c, 3, 52, 64
10, 27157, Note_on_c, 3, 52, 68
10, 27168, Note_off_c, 3, 54, 64
10, 27181, Note_on_c, 3, 54, 61
10, 27183, Note_off_c, 3, 52, 64
10, 27209, Note_on_c, 3, 52, 60
10, 27211, Note_off_c, 3, 54, 64
10, 27229, Note_on_c, 3, 54, 68
10, 27230, Note_off_c, 3, 52, 64
10, 27251, Note_on_c, 3, 52, 68
10, 27268, Note_off_c, 3, 54, 64
10, 27282, Note_on_c, 3, 50, 68
10, 27287, Note_off_c, 3, 52, 64
10, 27312, Note_on_c, 3, 52, 78
10, 27326, Note_off_c, 3, 50, 64
10, 27342, Note_on_c, 3, 54, 85
10, 27346, Note_off_c, 3, 52, 64
10, 27461, Note_off_c, 3, 54, 64
10, 27512, Note_on_c, 3, 52, 60
10, 27540, Note_on_c, 3, 50, 82
10, 27550, Note_off_c, 3, 52, 64
10, 27579, Note_on_c, 3, 55, 89
10, 27581, Note_off_c, 3, 50, 64
10, 27692, Note_off_c, 3, 55, 64
10, 27787, Note_on_c, 3, 55, 87
10, 27823, Note_off_c, 3, 55, 64
10, 27843, Note_on_c, 3, 55, 87
10, 27989, Note_off_c, 3, 55, 64
10, 28014, Note_on_c, 3, 54, 60
10, 28040, Note_on_c, 3, 52, 74
10, 28046, Note_off_c, 3, 54, 64
10, 28074, Note_on_c, 3, 54, 100
10, 28084, Note_off_c, 3, 52, 64
10, 28162, Note_off_c, 3, 54, 64
10, 28259, Note_on_c, 3, 59, 82
10, 28296, Note_off_c, 3, 59, 64
10, 28315, Note_on_c, 3, 52, 95
10, 28457, Note_off_c, 3, 52, 64
10, 28492, Note_on_c, 3, 54, 68
10, 28522, Note_on_c, 3, 55, 80
10, 28529, Note_off_c, 3, 54, 64
10, 28559, Note_off_c, 3, 55, 64
10, 28559, Note_on_c, 3, 57, 78
10, 28658, Note_off_c, 3, 57, 64
10, 28739, Note_on_c, 3, 49, 66
10, 28774, Note_off_c, 3, 49, 64
10, 28788, Note_on_c, 3, 50, 89
10, 28924, Note_off_c, 3, 50, 64
10, 29040, Note_on_c, 3, 43, 87
10, 29173, Note_off_c, 3, 43, 64
10, 29274, Note_on_c, 3, 45, 82
10, 29670, Note_off_c, 3, 45, 64
10, 29751, Note_on_c, 3, 50, 76
10, 30865, Note_off_c, 3, 50, 64
10, 30903, Note_on_c, 3, 49, 66
10, 30926, Note_on_c, 3, 47, 76
10, 30938, Note_off_c, 3, 49, 64
10, 30963, Note_on_c, 3, 49, 89
10, 30975, Note_off_c, 3, 47, 64
10, 31064, Note_off_c, 3, 49, 64
10, 31147, Note_on_c, 3, 54, 76
10, 31187, Note_off_c, 3, 54, 64
10, 31191, Note_on_c, 3, 47, 76
10, 31329, Note_off_c, 3, 47, 64
10, 31437, Note_on_c, 3, 52, 82
10, 31560, Note_off_c, 3, 52, 64
10, 31679, Note_on_c, 3, 45, 80
10, 32262, Note_off_c, 3, 45, 64
10, 32319, Note_on_c, 3, 57, 74
10, 32348, Note_on_c, 3, 55, 76
10, 32361, Note_off_c, 3, 57, 64
10, 32384, Note_off_c, 3, 55, 64
10, 32390, Note_on_c, 3, 54, 80
10, 32503, Note_off_c, 3, 54, 64
10, 32568, Note_on_c, 3, 55, 85
10, 32596, Note_on_c, 3, 57, 80
10, 32606, Note_off_c, 3, 55, 64
10, 32633, Note_off_c, 3, 57, 64
10, 32639, Note_on_c, 3, 51, 80
10, 33180, Note_off_c, 3, 51, 64
10, 33292, Note_on_c, 3, 47, 85
10, 33343, Note_on_c, 3, 49, 82
10, 33353, Note_off_c, 3, 47, 64
10, 33442, Note_off_c, 3, 49, 64
10, 33535, Note_on_c, 3, 51, 58
10, 33578, Note_off_c, 3, 51, 64
10, 33592, Note_on_c, 3, 52, 80
10, 33688, Note_off_c, 3, 52, 64
10, 33777, Note_on_c, 3, 50, 76
10, 33819, Note_off_c, 3, 50, 64
10, 33829, Note_on_c, 3, 49, 66
10, 33930, Note_off_c, 3, 49, 64
10, 34013, Note_on_c, 3, 47, 72
10, 34056, Note_off_c, 3, 47, 64
10, 34066, Note_on_c, 3, 45, 85
10, 34175, Note_off_c, 3, 45, 64
10, 34255, Note_on_c, 3, 55, 78
10, 34289, Note_off_c, 3, 55, 64
10, 34306, Note_on_c, 3, 54, 100
10, 34411, Note_off_c, 3, 54, 64
10, 34494, Note_on_c, 3, 52, 76
10, 34533, Note_off_c, 3, 52, 64
10, 34547, Note_on_c, 3, 50, 85
10, 34650, Note_off_c, 3, 50, 64
10, 34727, Note_on_c, 3, 49, 70
10, 34769, Note_off_c, 3, 49, 64
10, 34780, Note_on_c, 3, 47, 85
10, 34887, Note_off_c, 3, 47, 64
10, 34967, Note_on_c, 3, 45, 74
10, 35011, Note_off_c, 3, 45, 64
10, 35025, Note_on_c, 3, 43, 87
10, 35626, Note_off_c, 3, 43, 64
10, 35683, Note_on_c, 3, 55, 68
10, 35709, Note_on_c, 3, 54, 72
10, 35720, Note_off_c, 3, 55, 64
10, 35741, Note_off_c, 3, 54, 64
10, 35745, Note_on_c, 3, 52, 68
10, 35859, Note_off_c, 3, 52, 64
10, 35922, Note_on_c, 3, 54, 82
10, 35952, Note_on_c, 3, 55, 78
10, 35959, Note_off_c, 3, 54, 64
10, 35994, Note_on_c, 3, 49, 82
10, 35998, Note_off_c, 3, 55, 64
10, 36094, Note_off_c, 3, 49, 64
10, 36171, Note_on_c, 3, 50, 64
10, 36195, Note_on_c, 3, 52, 76
10, 36209, Note_off_c, 3, 50, 64
10, 36232, Note_off_c, 3, 52, 64
10, 36238, Note_on_c, 3, 46, 78
10, 36334, Note_off_c, 3, 46, 64
10, 36408, Note_on_c, 3, 47, 68
10, 36438, Note_on_c, 3, 49, 82
10, 36444, Note_off_c, 3, 47, 64
10, 36474, Note_off_c, 3, 49, 64
10, 36481, Note_on_c, 3, 42, 66
10, 39133, Note_off_c, 3, 42, 64
10, 80372, Note_on_c, 3, 54, 76
10, 80452, Note_off_c, 3, 54, 64
10, 80634, Note_on_c, 3, 59, 85
10, 80717, Note_off_c, 3, 59, 64
10, 80877, Note_on_c, 3, 57, 82
10, 81275, Note_off_c, 3, 57, 64
10, 81364, Note_on_c, 3, 59, 82
10, 81457, Note_off_c, 3, 59, 64
10, 81472, Note_on_c, 3, 57, 82
10, 81567, Note_off_c, 3, 57, 64
10, 81594, Note_on_c, 3, 56, 66
10, 81711, Note_off_c, 3, 56, 64
10, 81836, Note_on_c, 3, 52, 52
10, 82148, Note_off_c, 3, 52, 64
10, 82322, Note_on_c, 3, 56, 78
10, 82395, Note_off_c, 3, 56, 64
10, 82553, Note_on_c, 3, 57, 89
10, 82648, Note_off_c, 3, 57, 64
10, 82811, Note_on_c, 3, 56, 89
10, 83215, Note_off_c, 3, 56, 64
10, 83267, Note_on_c, 3, 57, 87
10, 83353, Note_off_c, 3, 57, 64
10, 83369, Note_on_c, 3, 56, 74
10, 83453, Note_off_c, 3, 56, 64
10, 83496, Note_on_c, 3, 54, 63
10, 83620, Note_off_c, 3, 54, 64
10, 83748, Note_on_c, 3, 50, 58
10, 84044, Note_off_c, 3, 50, 64
10, 84219, Note_on_c, 3, 54, 64
10, 84323, Note_off_c, 3, 54, 64
10, 84469, Note_on_c, 3, 56, 78
10, 84552, Note_off_c, 3, 56, 64
10, 84713, Note_on_c, 3, 54, 78
10, 85098, Note_off_c, 3, 54, 64
10, 85178, Note_on_c, 3, 56, 87
10, 85271, Note_off_c, 3, 56, 64
10, 85280, Note_on_c, 3, 54, 72
10, 85364, Note_off_c, 3, 54, 64
10, 85406, Note_on_c, 3, 53, 52
10, 85514, Note_off_c, 3, 53, 64
10, 85644, Note_on_c, 3, 49, 57
10, 85968, Note_off_c, 3, 49, 64
10, 86133, Note_on_c, 3, 53, 85
10, 86220, Note_off_c, 3, 53, 64
10, 86220, Note_on_c, 3, 49, 87
10, 86300, Note_off_c, 3, 49, 64
10, 86347, Note_on_c, 3, 54, 80
10, 86449, Note_off_c, 3, 54, 64
10, 86588, Note_on_c, 3, 49, 61
10, 86708, Note_off_c, 3, 49, 64
10, 86867, Note_on_c, 3, 42, 62
10, 87009, Note_off_c, 3, 42, 64
10, 90453, Note_on_c, 3, 54, 80
10, 90533, Note_off_c, 3, 54, 64
10, 90697, Note_on_c, 3, 45, 82
10, 90798, Note_off_c, 3, 45, 64
10, 90927, Note_on_c, 3, 49, 70
10, 91022, Note_off_c, 3, 49, 64
10, 91168, Note_on_c, 3, 42, 64
10, 91305, Note_off_c, 3, 42, 64
10, 92377, Note_on_c, 3, 52, 87
10, 92469, Note_off_c, 3, 52, 64
10, 92618, Note_on_c, 3, 43, 74
10, 92737, Note_off_c, 3, 43, 64
10, 92848, Note_on_c, 3, 47, 74
10, 92952, Note_off_c, 3, 47, 64
10, 93107, Note_on_c, 3, 40, 85
10, 93255, Note_off_c, 3, 40, 64
10, 94296, Note_on_c, 3, 50, 85
10, 94387, Note_off_c, 3, 50, 64
10, 94398, Note_on_c, 3, 52, 85
10, 94482, Note_off_c, 3, 52, 64
10, 94519, Note_on_c, 3, 54, 89
10, 94621, Note_off_c, 3, 54, 64
10, 94636, Note_on_c, 3, 52, 80
10, 94725, Note_off_c, 3, 52, 64
10, 94758, Note_on_c, 3, 54, 91
10, 94856, Note_off_c, 3, 54, 64
10, 94873, Note_on_c, 3, 50, 68
10, 94958, Note_off_c, 3, 50, 64
10, 95002, Note_on_c, 3, 55, 89
10, 95121, Note_on_c, 3, 54, 78
10, 95141, Note_off_c, 3, 55, 64
10, 95219, Note_off_c, 3, 54, 64
10, 95239, Note_on_c, 3, 55, 72
10, 95356, Note_on_c, 3, 57, 66
10, 95360, Note_off_c, 3, 55, 64
10, 95447, Note_off_c, 3, 57, 64
10, 95491, Note_on_c, 3, 55, 91
10, 95608, Note_on_c, 3, 54, 64
10, 95622, Note_off_c, 3, 55, 64
10, 95712, Note_off_c, 3, 54, 64
10, 95734, Note_on_c, 3, 52, 68
10, 95839, Note_off_c, 3, 52, 64
10, 95845, Note_on_c, 3, 55, 68
10, 95940, Note_off_c, 3, 55, 64
10, 95983, Note_on_c, 3, 54, 91
10, 96104, Note_on_c, 3, 52, 76
10, 96115, Note_off_c, 3, 54, 64
10, 96195, Note_off_c, 3, 52, 64
10, 96226, Note_on_c, 3, 50, 66
10, 96331, Note_off_c, 3, 50, 64
10, 96339, Note_on_c, 3, 52, 70
10, 96436, Note_off_c, 3, 52, 64
10, 96472, Note_on_c, 3, 54, 85
10, 96582, Note_off_c, 3, 54, 64
10, 96584, Note_on_c, 3, 57, 80
10, 96699, Note_on_c, 3, 55, 70
10, 96709, Note_off_c, 3, 57, 64
10, 96797, Note_on_c, 3, 54, 62
10, 96810, Note_off_c, 3, 55, 64
10, 96906, Note_off_c, 3, 54, 64
10, 96937, Note_on_c, 3, 52, 82
10, 97038, Note_off_c, 3, 52, 64
10, 97185, Note_on_c, 3, 47, 66
10, 97293, Note_off_c, 3, 47, 64
10, 97417, Note_on_c, 3, 43, 87
10, 97514, Note_off_c, 3, 43, 64
10, 97656, Note_on_c, 3, 45, 63
10, 97665, Note_on_c, 3, 43, 57
10, 97709, Note_off_c, 3, 43, 64
10, 97753, Note_off_c, 3, 45, 64
10, 97895, Note_on_c, 3, 50, 78
10, 98010, Note_on_c, 3, 49, 70
10, 98021, Note_off_c, 3, 50, 64
10, 98132, Note_off_c, 3, 49, 64
10, 98132, Note_on_c, 3, 50, 68
10, 98235, Note_on_c, 3, 52, 72
10, 98251, Note_off_c, 3, 50, 64
10, 98318, Note_off_c, 3, 52, 64
10, 98358, Note_on_c, 3, 54, 93
10, 98475, Note_on_c, 3, 55, 85
10, 98491, Note_off_c, 3, 54, 64
10, 98564, Note_off_c, 3, 55, 64
10, 98599, Note_on_c, 3, 57, 80
10, 98685, Note_off_c, 3, 57, 64
10, 98707, Note_on_c, 3, 54, 66
10, 98809, Note_off_c, 3, 54, 64
10, 98851, Note_on_c, 3, 59, 98
10, 98931, Note_off_c, 3, 59, 64
10, 99099, Note_on_c, 3, 57, 82
10, 99515, Note_off_c, 3, 57, 64
10, 99595, Note_on_c, 3, 55, 80
10, 99708, Note_off_c, 3, 55, 64
10, 99825, Note_on_c, 3, 57, 85
10, 99931, Note_off_c, 3, 57, 64
10, 99931, Note_on_c, 3, 55, 87
10, 100031, Note_off_c, 3, 55, 64
10, 100035, Note_on_c, 3, 54, 85
10, 100124, Note_off_c, 3, 54, 64
10, 100140, Note_on_c, 3, 55, 78
10, 100230, Note_off_c, 3, 55, 64
10, 100281, Note_on_c, 3, 57, 80
10, 100399, Note_off_c, 3, 57, 64
10, 100527, Note_on_c, 3, 50, 74
10, 100609, Note_off_c, 3, 50, 64
10, 100762, Note_on_c, 3, 55, 82
10, 100844, Note_off_c, 3, 55, 64
10, 101009, Note_on_c, 3, 54, 87
10, 101372, Note_off_c, 3, 54, 64
10, 101485, Note_on_c, 3, 52, 72
10, 101585, Note_off_c, 3, 52, 64
10, 101734, Note_on_c, 3, 54, 98
10, 101835, Note_on_c, 3, 55, 82
10, 101866, Note_off_c, 3, 54, 64
10, 101940, Note_off_c, 3, 55, 64
10, 101968, Note_on_c, 3, 54, 60
10, 102081, Note_on_c, 3, 52, 66
10, 102085, Note_off_c, 3, 54, 64
10, 102161, Note_off_c, 3, 52, 64
10, 102223, Note_on_c, 3, 50, 82
10, 102331, Note_on_c, 3, 52, 80
10, 102340, Note_off_c, 3, 50, 64
10, 102428, Note_off_c, 3, 52, 64
10, 102448, Note_on_c, 3, 54, 66
10, 102550, Note_off_c, 3, 54, 64
10, 102557, Note_on_c, 3, 50, 63
10, 102641, Note_off_c, 3, 50, 64
10, 102691, Note_on_c, 3, 52, 82
10, 102783, Note_off_c, 3, 52, 64
10, 102938, Note_on_c, 3, 57, 78
10, 103022, Note_off_c, 3, 57, 64
10, 103174, Note_on_c, 3, 54, 68
10, 103267, Note_off_c, 3, 54, 64
10, 103402, Note_on_c, 3, 50, 82
10, 103487, Note_off_c, 3, 50, 64
10, 103635, Note_on_c, 3, 55, 80
10, 104148, Note_off_c, 3, 55, 64
10, 104237, Note_on_c, 3, 54, 87
10, 104339, Note_off_c, 3, 54, 64
10, 104345, Note_on_c, 3, 55, 70
10, 104423, Note_off_c, 3, 55, 64
10, 104449, Note_on_c, 3, 52, 78
10, 104545, Note_off_c, 3, 52, 64
10, 104582, Note_on_c, 3, 54, 78
10, 104701, Note_off_c, 3, 54, 64
10, 104841, Note_on_c, 3, 59, 82
10, 104939, Note_off_c, 3, 59, 64
10, 105091, Note_on_c, 3, 56, 74
10, 105189, Note_off_c, 3, 56, 64
10, 105339, Note_on_c, 3, 52, 82
10, 105428, Note_off_c, 3, 52, 64
10, 105587, Note_on_c, 3, 57, 78
10, 106113, Note_off_c, 3, 57, 64
10, 106184, Note_on_c, 3, 59, 89
10, 106258, Note_off_c, 3, 59, 64
10, 106285, Note_on_c, 3, 61, 64
10, 106377, Note_off_c, 3, 61, 64
10, 106393, Note_on_c, 3, 57, 80
10, 106488, Note_off_c, 3, 57, 64
10, 106519, Note_on_c, 3, 59, 82
10, 106647, Note_off_c, 3, 59, 64
10, 106774, Note_on_c, 3, 64, 93
10, 106873, Note_off_c, 3, 64, 64
10, 107021, Note_on_c, 3, 61, 72
10, 107128, Note_off_c, 3, 61, 64
10, 107250, Note_on_c, 3, 57, 74
10, 107349, Note_off_c, 3, 57, 64
10, 107500, Note_on_c, 3, 62, 85
10, 107597, Note_off_c, 3, 62, 64
10, 107735, Note_on_c, 3, 57, 80
10, 107823, Note_off_c, 3, 57, 64
10, 107978, Note_on_c, 3, 59, 87
10, 108210, Note_off_c, 3, 59, 64
10, 108224, Note_on_c, 3, 57, 78
10, 108317, Note_off_c, 3, 57, 64
10, 108322, Note_on_c, 3, 55, 76
10, 108403, Note_off_c, 3, 55, 64
10, 108445, Note_on_c, 3, 54, 87
10, 108547, Note_on_c, 3, 52, 78
10, 108573, Note_off_c, 3, 54, 64
10, 108653, Note_on_c, 3, 54, 80
10, 108664, Note_off_c, 3, 52, 64
10, 108759, Note_off_c, 3, 54, 64
10, 108768, Note_on_c, 3, 55, 89
10, 108863, Note_off_c, 3, 55, 64
10, 108899, Note_on_c, 3, 57, 93
10, 108992, Note_off_c, 3, 57, 64
10, 109169, Note_on_c, 3, 45, 85
10, 109249, Note_off_c, 3, 45, 64
10, 109426, Note_on_c, 3, 38, 98
10, 109944, Note_off_c, 3, 38, 64
10, 150940, Note_on_c, 3, 57, 74
10, 151046, Note_off_c, 3, 57, 64
10, 151183, Note_on_c, 3, 62, 87
10, 151278, Note_on_c, 3, 61, 62
10, 151318, Note_off_c, 3, 62, 64
10, 151398, Note_on_c, 3, 59, 68
10, 151403, Note_off_c, 3, 61, 64
10, 151520, Note_on_c, 3, 57, 63
10, 151524, Note_off_c, 3, 59, 64
10, 151628, Note_off_c, 3, 57, 64
10, 151633, Note_on_c, 3, 55, 64
10, 151732, Note_off_c, 3, 55, 64
10, 151744, Note_on_c, 3, 54, 58
10, 151854, Note_on_c, 3, 52, 64
10, 151867, Note_off_c, 3, 54, 64
10, 151974, Note_on_c, 3, 51, 61
10, 151983, Note_off_c, 3, 52, 64
10, 152115, Note_on_c, 3, 52, 72
10, 152122, Note_off_c, 3, 51, 64
10, 152222, Note_off_c, 3, 52, 64
10, 152241, Note_on_c, 3, 55, 70
10, 152352, Note_on_c, 3, 54, 63
10, 152360, Note_off_c, 3, 55, 64
10, 152470, Note_off_c, 3, 54, 64
10, 152471, Note_on_c, 3, 52, 63
10, 152587, Note_off_c, 3, 52, 64
10, 152600, Note_on_c, 3, 51, 57
10, 152724, Note_off_c, 3, 51, 64
10, 152724, Note_on_c, 3, 52, 64
10, 152841, Note_off_c, 3, 52, 64
10, 152848, Note_on_c, 3, 54, 59
10, 152965, Note_off_c, 3, 54, 64
10, 152977, Note_on_c, 3, 52, 72
10, 153054, Note_off_c, 3, 52, 64
10, 153087, Note_on_c, 3, 51, 63
10, 153184, Note_off_c, 3, 51, 64
10, 153204, Note_on_c, 3, 47, 66
10, 153302, Note_off_c, 3, 47, 64
10, 153315, Note_on_c, 3, 59, 66
10, 153483, Note_off_c, 3, 59, 64
10, 153589, Note_on_c, 3, 59, 58
10, 156532, Note_off_c, 3, 59, 64
10, 156563, Note_on_c, 3, 60, 78
10, 156695, Note_on_c, 3, 59, 70
10, 156715, Note_off_c, 3, 60, 64
10, 156810, Note_on_c, 3, 57, 63
10, 156826, Note_off_c, 3, 59, 64
10, 156930, Note_on_c, 3, 55, 58
10, 156932, Note_off_c, 3, 57, 64
10, 157038, Note_on_c, 3, 54, 66
10, 157050, Note_off_c, 3, 55, 64
10, 157173, Note_on_c, 3, 52, 64
10, 157175, Note_off_c, 3, 54, 64
10, 157278, Note_on_c, 3, 51, 60
10, 157290, Note_off_c, 3, 52, 64
10, 157413, Note_on_c, 3, 52, 78
10, 157415, Note_off_c, 3, 51, 64
10, 157527, Note_on_c, 3, 54, 66
10, 157539, Note_off_c, 3, 52, 64
10, 157634, Note_off_c, 3, 54, 64
10, 157647, Note_on_c, 3, 55, 64
10, 157749, Note_off_c, 3, 55, 64
10, 157760, Note_on_c, 3, 52, 63
10, 157868, Note_off_c, 3, 52, 64
10, 157890, Note_on_c, 3, 54, 72
10, 158003, Note_on_c, 3, 55, 68
10, 158017, Note_off_c, 3, 54, 64
10, 158119, Note_off_c, 3, 55, 64
10, 158130, Note_on_c, 3, 57, 62
10, 158238, Note_off_c, 3, 57, 64
10, 158249, Note_on_c, 3, 54, 63
10, 158346, Note_off_c, 3, 54, 64
10, 158369, Note_on_c, 3, 55, 85
10, 158495, Note_on_c, 3, 57, 68
10, 158512, Note_off_c, 3, 55, 64
10, 158630, Note_off_c, 3, 57, 64
10, 158630, Note_on_c, 3, 59, 66
10, 158734, Note_on_c, 3, 57, 60
10, 158747, Note_off_c, 3, 59, 64
10, 158851, Note_off_c, 3, 57, 64
10, 158858, Note_on_c, 3, 55, 74
10, 158977, Note_on_c, 3, 60, 80
10, 158986, Note_off_c, 3, 55, 64
10, 159102, Note_off_c, 3, 60, 64
10, 159104, Note_on_c, 3, 59, 70
10, 159205, Note_on_c, 3, 60, 66
10, 159210, Note_off_c, 3, 59, 64
10, 159310, Note_off_c, 3, 60, 64
10, 159336, Note_on_c, 3, 54, 80
10, 159451, Note_on_c, 3, 52, 66
10, 159467, Note_off_c, 3, 54, 64
10, 159566, Note_on_c, 3, 54, 54
10, 159599, Note_off_c, 3, 52, 64
10, 159679, Note_on_c, 3, 55, 70
10, 159703, Note_off_c, 3, 54, 64
10, 159790, Note_off_c, 3, 55, 64
10, 159801, Note_on_c, 3, 57, 68
10, 159912, Note_off_c, 3, 57, 64
10, 159931, Note_on_c, 3, 55, 57
10, 160045, Note_off_c, 3, 55, 64
10, 160045, Note_on_c, 3, 57, 64
10, 160160, Note_off_c, 3, 57, 64
10, 160164, Note_on_c, 3, 59, 70
10, 160279, Note_off_c, 3, 59, 64
10, 160292, Note_on_c, 3, 52, 76
10, 160398, Note_on_c, 3, 54, 58
10, 160418, Note_off_c, 3, 52, 64
10, 160522, Note_off_c, 3, 54, 64
10, 160529, Note_on_c, 3, 55, 60
10, 160642, Note_on_c, 3, 54, 57
10, 160664, Note_off_c, 3, 55, 64
10, 160755, Note_off_c, 3, 54, 64
10, 160772, Note_on_c, 3, 52, 68
10, 160883, Note_off_c, 3, 52, 64
10, 160890, Note_on_c, 3, 57, 68
10, 160999, Note_off_c, 3, 57, 64
10, 161009, Note_on_c, 3, 55, 57
10, 161125, Note_on_c, 3, 57, 60
10, 161134, Note_off_c, 3, 55, 64
10, 161211, Note_off_c, 3, 57, 64
10, 161244, Note_on_c, 3, 50, 80
10, 161355, Note_on_c, 3, 49, 59
10, 161366, Note_off_c, 3, 50, 64
10, 161476, Note_on_c, 3, 50, 70
10, 161479, Note_off_c, 3, 49, 64
10, 161596, Note_on_c, 3, 52, 64
10, 161610, Note_off_c, 3, 50, 64
10, 161709, Note_off_c, 3, 52, 64
10, 161731, Note_on_c, 3, 54, 76
10, 161848, Note_off_c, 3, 54, 64
10, 161851, Note_on_c, 3, 52, 57
10, 161977, Note_on_c, 3, 54, 63
10, 161983, Note_off_c, 3, 52, 64
10, 162110, Note_on_c, 3, 55, 60
10, 162116, Note_off_c, 3, 54, 64
10, 162225, Note_on_c, 3, 49, 72
10, 162232, Note_off_c, 3, 55, 64
10, 162336, Note_on_c, 3, 50, 63
10, 162340, Note_off_c, 3, 49, 64
10, 162462, Note_on_c, 3, 49, 60
10, 162486, Note_off_c, 3, 50, 64
10, 162574, Note_off_c, 3, 49, 64
10, 162574, Note_on_c, 3, 47, 72
10, 162690, Note_on_c, 3, 46, 57
10, 162696, Note_off_c, 3, 47, 64
10, 162816, Note_off_c, 3, 46, 64
10, 162942, Note_on_c, 3, 42, 68
10, 163042, Note_off_c, 3, 42, 64
10, 163168, Note_on_c, 3, 47, 63
10, 163274, Note_off_c, 3, 47, 64
10, 163409, Note_on_c, 3, 45, 76
10, 163504, Note_off_c, 3, 45, 64
10, 163642, Note_on_c, 3, 43, 70
10, 163971, Note_off_c, 3, 43, 64
10, 164129, Note_on_c, 3, 42, 63
10, 164326, Note_off_c, 3, 42, 64
10, 164376, Note_on_c, 3, 54, 62
10, 164485, Note_on_c, 3, 52, 63
10, 164500, Note_off_c, 3, 54, 64
10, 164580, Note_off_c, 3, 52, 64
10, 164615, Note_on_c, 3, 54, 78
10, 164730, Note_on_c, 3, 55, 68
10, 164753, Note_off_c, 3, 54, 64
10, 164852, Note_off_c, 3, 55, 64
10, 164853, Note_on_c, 3, 54, 57
10, 164970, Note_on_c, 3, 52, 66
10, 164976, Note_off_c, 3, 54, 64
10, 165074, Note_off_c, 3, 52, 64
10, 165102, Note_on_c, 3, 50, 72
10, 165226, Note_off_c, 3, 50, 64
10, 165328, Note_on_c, 3, 47, 57
10, 165536, Note_off_c, 3, 47, 64
10, 165833, Note_on_c, 3, 47, 70
10, 165901, Note_off_c, 3, 47, 64
10, 166061, Note_on_c, 3, 54, 60
10, 166165, Note_off_c, 3, 54, 64
10, 166305, Note_on_c, 3, 56, 76
10, 166395, Note_off_c, 3, 56, 64
10, 166555, Note_on_c, 3, 58, 72
10, 166650, Note_on_c, 3, 59, 76
10, 166690, Note_off_c, 3, 58, 64
10, 166769, Note_on_c, 3, 61, 64
10, 166772, Note_off_c, 3, 59, 64
10, 166867, Note_on_c, 3, 59, 72
10, 166907, Note_off_c, 3, 61, 64
10, 166962, Note_off_c, 3, 59, 64
10, 166989, Note_on_c, 3, 58, 59
10, 167097, Note_off_c, 3, 58, 64
10, 167223, Note_on_c, 3, 54, 59
10, 167420, Note_off_c, 3, 54, 64
10, 167726, Note_on_c, 3, 54, 72
10, 167818, Note_off_c, 3, 54, 64
10, 167969, Note_on_c, 3, 59, 78
10, 168075, Note_off_c, 3, 59, 64
10, 168210, Note_on_c, 3, 54, 68
10, 168317, Note_off_c, 3, 54, 64
10, 168440, Note_on_c, 3, 50, 80
10, 168536, Note_on_c, 3, 49, 78
10, 168549, Note_off_c, 3, 50, 64
10, 168657, Note_on_c, 3, 47, 66
10, 168673, Note_off_c, 3, 49, 64
10, 168773, Note_on_c, 3, 49, 64
10, 168810, Note_off_c, 3, 47, 64
10, 168863, Note_off_c, 3, 49, 64
10, 168899, Note_on_c, 3, 51, 82
10, 169012, Note_off_c, 3, 51, 64
10, 169142, Note_on_c, 3, 47, 59
10, 169293, Note_off_c, 3, 47, 64
10, 169638, Note_on_c, 3, 47, 70
10, 169743, Note_off_c, 3, 47, 64
10, 169897, Note_on_c, 3, 52, 74
10, 170012, Note_off_c, 3, 52, 64
10, 170129, Note_on_c, 3, 55, 72
10, 170238, Note_off_c, 3, 55, 64
10, 170382, Note_on_c, 3, 52, 70
10, 170479, Note_off_c, 3, 52, 64
10, 170610, Note_on_c, 3, 47, 72
10, 170710, Note_off_c, 3, 47, 64
10, 170870, Note_on_c, 3, 49, 62
10, 171349, Note_off_c, 3, 49, 64
10, 171569, Note_on_c, 3, 49, 62
10, 171688, Note_off_c, 3, 49, 64
10, 171819, Note_on_c, 3, 51, 68
10, 171934, Note_off_c, 3, 51, 64
10, 172058, Note_on_c, 3, 54, 68
10, 172166, Note_off_c, 3, 54, 64
10, 172303, Note_on_c, 3, 51, 70
10, 172399, Note_off_c, 3, 51, 64
10, 172527, Note_on_c, 3, 47, 76
10, 172627, Note_off_c, 3, 47, 64
10, 172772, Note_on_c, 3, 52, 80
10, 173286, Note_off_c, 3, 52, 64
10, 173485, Note_on_c, 3, 50, 80
10, 173576, Note_off_c, 3, 50, 64
10, 173716, Note_on_c, 3, 49, 72
10, 173842, Note_off_c, 3, 49, 64
10, 173961, Note_on_c, 3, 52, 70
10, 174068, Note_off_c, 3, 52, 64
10, 174212, Note_on_c, 3, 55, 70
10, 174307, Note_off_c, 3, 55, 64
10, 174433, Note_on_c, 3, 47, 68
10, 174546, Note_off_c, 3, 47, 64
10, 174678, Note_on_c, 3, 46, 76
10, 174796, Note_off_c, 3, 46, 64
10, 174920, Note_on_c, 3, 42, 70
10, 175013, Note_off_c, 3, 42, 64
10, 175187, Note_on_c, 3, 50, 85
10, 175294, Note_off_c, 3, 50, 64
10, 175420, Note_on_c, 3, 47, 68
10, 175517, Note_off_c, 3, 47, 64
10, 175663, Note_on_c, 3, 54, 70
10, 175774, Note_off_c, 3, 54, 64
10, 175900, Note_on_c, 3, 56, 70
10, 176004, Note_off_c, 3, 56, 64
10, 176133, Note_on_c, 3, 58, 72
10, 176223, Note_off_c, 3, 58, 64
10, 176363, Note_on_c, 3, 54, 63
10, 176454, Note_off_c, 3, 54, 64
10, 176618, Note_on_c, 3, 59, 70
10, 177125, Note_off_c, 3, 59, 64
10, 177342, Note_on_c, 3, 52, 60
10, 177441, Note_off_c, 3, 52, 64
10, 177591, Note_on_c, 3, 57, 76
10, 178076, Note_off_c, 3, 57, 64
10, 178289, Note_on_c, 3, 50, 66
10, 178369, Note_off_c, 3, 50, 64
10, 178543, Note_on_c, 3, 55, 66
10, 179075, Note_off_c, 3, 55, 64
10, 179261, Note_on_c, 3, 54, 66
10, 179349, Note_off_c, 3, 54, 64
10, 179362, Note_on_c, 3, 52, 78
10, 179446, Note_off_c, 3, 52, 64
10, 179498, Note_on_c, 3, 51, 63
10, 179954, Note_off_c, 3, 51, 64
10, 209289, Note_on_c, 3, 47, 70
10, 211123, Note_off_c, 3, 47, 64
10, 211127, Note_on_c, 3, 49, 89
10, 211177, Note_on_c, 3, 50, 63
10, 211181, Note_off_c, 3, 49, 64
10, 211234, Note_on_c, 3, 49, 60
10, 211240, Note_off_c, 3, 50, 64
10, 211262, Note_off_c, 3, 49, 64
10, 211262, Note_on_c, 3, 50, 70
10, 211288, Note_on_c, 3, 49, 68
10, 211294, Note_off_c, 3, 50, 64
10, 211313, Note_off_c, 3, 49, 64
10, 211314, Note_on_c, 3, 50, 70
10, 211338, Note_on_c, 3, 49, 60
10, 211353, Note_off_c, 3, 50, 64
10, 211369, Note_on_c, 3, 47, 70
10, 211373, Note_off_c, 3, 49, 64
10, 211401, Note_on_c, 3, 49, 76
10, 211419, Note_off_c, 3, 47, 64
10, 211436, Note_off_c, 3, 49, 64
10, 211440, Note_on_c, 3, 50, 68
10, 211549, Note_off_c, 3, 50, 64
10, 211598, Note_on_c, 3, 47, 80
10, 211653, Note_off_c, 3, 47, 64
10, 211660, Note_on_c, 3, 55, 76
10, 212050, Note_off_c, 3, 55, 64
10, 212079, Note_on_c, 3, 57, 85
10, 212118, Note_off_c, 3, 57, 64
10, 212148, Note_on_c, 3, 55, 82
10, 212279, Note_on_c, 3, 54, 60
10, 212291, Note_off_c, 3, 55, 64
10, 213229, Note_off_c, 3, 54, 64
10, 213296, Note_on_c, 3, 54, 87
10, 213340, Note_off_c, 3, 54, 64
10, 213354, Note_on_c, 3, 56, 89
10, 213442, Note_off_c, 3, 56, 64
10, 213525, Note_on_c, 3, 58, 76
10, 213569, Note_off_c, 3, 58, 64
10, 213584, Note_on_c, 3, 59, 74
10, 214664, Note_off_c, 3, 59, 64
10, 214729, Note_on_c, 3, 47, 70
10, 214777, Note_off_c, 3, 47, 64
10, 214788, Note_on_c, 3, 49, 78
10, 214887, Note_off_c, 3, 49, 64
10, 214966, Note_on_c, 3, 51, 66
10, 215011, Note_off_c, 3, 51, 64
10, 215036, Note_on_c, 3, 52, 80
10, 215347, Note_off_c, 3, 52, 64
10, 215423, Note_on_c, 3, 49, 62
10, 215454, Note_on_c, 3, 50, 82
10, 215464, Note_off_c, 3, 49, 64
10, 215491, Note_on_c, 3, 52, 64
10, 215494, Note_off_c, 3, 50, 64
10, 215524, Note_on_c, 3, 50, 72
10, 215535, Note_off_c, 3, 52, 64
10, 215553, Note_on_c, 3, 52, 70
10, 215559, Note_off_c, 3, 50, 64
10, 215578, Note_on_c, 3, 50, 66
10, 215590, Note_off_c, 3, 52, 64
10, 215666, Note_off_c, 3, 50, 64
10, 215707, Note_on_c, 3, 49, 63
10, 215739, Note_off_c, 3, 49, 64
10, 215754, Note_on_c, 3, 50, 87
10, 215880, Note_off_c, 3, 50, 64
10, 215910, Note_on_c, 3, 49, 74
10, 215944, Note_on_c, 3, 47, 89
10, 215950, Note_off_c, 3, 49, 64
10, 215982, Note_off_c, 3, 47, 64
10, 215991, Note_on_c, 3, 55, 66
10, 216606, Note_off_c, 3, 55, 64
10, 216636, Note_on_c, 3, 54, 58
10, 216667, Note_on_c, 3, 52, 72
10, 216676, Note_off_c, 3, 54, 64
10, 216704, Note_on_c, 3, 57, 82
10, 216715, Note_off_c, 3, 52, 64
10, 216824, Note_off_c, 3, 57, 64
10, 216900, Note_on_c, 3, 55, 70
10, 216940, Note_off_c, 3, 55, 64
10, 216951, Note_on_c, 3, 54, 76
10, 217066, Note_off_c, 3, 54, 64
10, 217115, Note_on_c, 3, 52, 76
10, 217167, Note_off_c, 3, 52, 64
10, 217181, Note_on_c, 3, 51, 82
10, 217366, Note_off_c, 3, 51, 64
10, 217411, Note_on_c, 3, 52, 78
10, 217501, Note_on_c, 3, 51, 78
10, 217510, Note_off_c, 3, 52, 64
10, 217535, Note_on_c, 3, 52, 66
10, 217543, Note_off_c, 3, 51, 64
10, 217575, Note_on_c, 3, 51, 64
10, 217581, Note_off_c, 3, 52, 64
10, 217596, Note_on_c, 3, 52, 70
10, 217600, Note_off_c, 3, 51, 64
10, 217625, Note_on_c, 3, 51, 58
10, 217629, Note_off_c, 3, 52, 64
10, 217647, Note_off_c, 3, 51, 64
10, 217647, Note_on_c, 3, 52, 64
10, 217674, Note_on_c, 3, 51, 60
10, 217679, Note_off_c, 3, 52, 64
10, 217696, Note_off_c, 3, 51, 64
10, 217696, Note_on_c, 3, 52, 78
10, 217722, Note_on_c, 3, 51, 59
10, 217726, Note_off_c, 3, 52, 64
10, 217742, Note_off_c, 3, 51, 64
10, 217742, Note_on_c, 3, 52, 80
10, 217772, Note_on_c, 3, 51, 55
10, 217775, Note_off_c, 3, 52, 64
10, 217791, Note_on_c, 3, 52, 72
10, 217793, Note_off_c, 3, 51, 64
10, 217815, Note_on_c, 3, 51, 66
10, 217828, Note_off_c, 3, 52, 64
10, 217847, Note_on_c, 3, 49, 57
10, 217853, Note_off_c, 3, 51, 64
10, 217875, Note_on_c, 3, 51, 61
10, 217890, Note_off_c, 3, 49, 64
10, 217907, Note_off_c, 3, 51, 64
10, 217917, Note_on_c, 3, 52, 78
10, 218021, Note_off_c, 3, 52, 64
10, 218097, Note_on_c, 3, 40, 91
10, 218144, Note_off_c, 3, 40, 64
10, 218162, Note_on_c, 3, 52, 78
10, 218747, Note_off_c, 3, 52, 64
10, 218790, Note_on_c, 3, 50, 70
10, 218821, Note_on_c, 3, 49, 70
10, 218828, Note_off_c, 3, 50, 64
10, 218863, Note_on_c, 3, 50, 66
10, 218864, Note_off_c, 3, 49, 64
10, 218975, Note_off_c, 3, 50, 64
10, 219042, Note_on_c, 3, 55, 80
10, 219092, Note_off_c, 3, 55, 64
10, 219100, Note_on_c, 3, 54, 80
10, 219188, Note_off_c, 3, 54, 64
10, 219292, Note_on_c, 3, 55, 80
10, 219334, Note_off_c, 3, 55, 64
10, 219343, Note_on_c, 3, 49, 78
10, 219455, Note_off_c, 3, 49, 64
10, 219520, Note_on_c, 3, 50, 68
10, 219553, Note_on_c, 3, 52, 85
10, 219556, Note_off_c, 3, 50, 64
10, 219595, Note_off_c, 3, 52, 64
10, 219602, Note_on_c, 3, 42, 62
10, 220196, Note_off_c, 3, 42, 64
10, 220240, Note_on_c, 3, 55, 78
10, 220290, Note_off_c, 3, 55, 64
10, 220300, Note_on_c, 3, 54, 89
10, 220413, Note_off_c, 3, 54, 64
10, 220479, Note_on_c, 3, 52, 72
10, 220528, Note_off_c, 3, 52, 64
10, 220543, Note_on_c, 3, 50, 85
10, 220666, Note_off_c, 3, 50, 64
10, 220723, Note_on_c, 3, 49, 76
10, 220772, Note_off_c, 3, 49, 64
10, 220786, Note_on_c, 3, 47, 85
10, 220904, Note_off_c, 3, 47, 64
10, 220978, Note_on_c, 3, 52, 78
10, 221020, Note_off_c, 3, 52, 64
10, 221037, Note_on_c, 3, 54, 80
10, 221203, Note_off_c, 3, 54, 64
10, 221275, Note_on_c, 3, 42, 68
10, 221435, Note_off_c, 3, 42, 64
10, 221522, Note_on_c, 3, 47, 68
10, 222261, Note_off_c, 3, 47, 64
10, 263492, Note_on_c, 3, 54, 76
10, 263572, Note_off_c, 3, 54, 64
10, 263754, Note_on_c, 3, 59, 85
10, 263837, Note_off_c, 3, 59, 64
10, 263997, Note_on_c, 3, 57, 82
10, 264395, Note_off_c, 3, 57, 64
10, 264484, Note_on_c, 3, 59, 82
10, 264577, Note_off_c, 3, 59, 64
10, 264592, Note_on_c, 3, 57, 82
10, 264687, Note_off_c, 3, 57, 64
10, 264714, Note_on_c, 3, 56, 66
10, 264831, Note_off_c, 3, 56, 64
10, 264956, Note_on_c, 3, 52, 52
10, 265268, Note_off_c, 3, 52, 64
10, 265442, Note_on_c, 3, 56, 78
10, 265515, Note_off_c, 3, 56, 64
10, 265673, Note_on_c, 3, 57, 89
10, 265768, Note_off_c, 3, 57, 64
10, 265931, Note_on_c, 3, 56, 89
10, 266335, Note_off_c, 3, 56, 64
10, 266387, Note_on_c, 3, 57, 87
10, 266473, Note_off_c, 3, 57, 64
10, 266489, Note_on_c, 3, 56, 74
10, 266573, Note_off_c, 3, 56, 64
10, 266616, Note_on_c, 3, 54, 63
10, 266740, Note_off_c, 3, 54, 64
10, 266868, Note_on_c, 3, 50, 58
10, 267164, Note_off_c, 3, 50, 64
10, 267339, Note_on_c, 3, 54, 64
10, 267443, Note_off_c, 3, 54, 64
10, 267589, Note_on_c, 3, 56, 78
10, 267672, Note_off_c, 3, 56, 64
10, 267833, Note_on_c, 3, 54, 78
10, 268218, Note_off_c, 3, 54, 64
10, 268298, Note_on_c, 3, 56, 87
10, 268391, Note_off_c, 3, 56, 64
10, 268400, Note_on_c, 3, 54, 72
10, 268484, Note_off_c, 3, 54, 64
10, 268526, Note_on_c, 3, 53, 52
10, 268634, Note_off_c, 3, 53, 64
10, 268764, Note_on_c, 3, 49, 57
10, 269088, Note_off_c, 3, 49, 64
10, 269253, Note_on_c, 3, 53, 85
10, 269340, Note_off_c, 3, 53, 64
10, 269340, Note_on_c, 3, 49, 87
10, 269420, Note_off_c, 3, 49, 64
10, 269467, Note_on_c, 3, 54, 80
10, 269569, Note_off_c, 3, 54, 64
10, 269708, Note_on_c, 3, 49, 61
10, 269828, Note_off_c, 3, 49, 64
10, 269987, Note_on_c, 3, 42, 62
10, 270129, Note_off_c, 3, 42, 64
10, 273573, Note_on_c, 3, 54, 80
10, 273653, Note_off_c, 3, 54, 64
10, 273817, Note_on_c, 3, 45, 82
10, 273918, Note_off_c, 3, 45, 64
10, 274047, Note_on_c, 3, 49, 70
10, 274142, Note_off_c, 3, 49, 64
10, 274288, Note_on_c, 3, 42, 64
10, 274425, Note_off_c, 3, 42, 64
10, 275497, Note_on_c, 3, 52, 87
10, 275589, Note_off_c, 3, 52, 64
10, 275738, Note_on_c, 3, 43, 74
10, 275857, Note_off_c, 3, 43, 64
10, 275968, Note_on_c, 3, 47, 74
10, 276072, Note_off_c, 3, 47, 64
10, 276227, Note_on_c, 3, 40, 85
10, 276375, Note_off_c, 3, 40, 64
10, 277416, Note_on_c, 3, 50, 85
10, 277507, Note_off_c, 3, 50, 64
10, 277518, Note_on_c, 3, 52, 85
10, 277602, Note_off_c, 3, 52, 64
10, 277639, Note_on_c, 3, 54, 89
10, 277741, Note_off_c, 3, 54, 64
10, 277756, Note_on_c, 3, 52, 80
10, 277845, Note_off_c, 3, 52, 64
10, 277878, Note_on_c, 3, 54, 91
10, 277976, Note_off_c, 3, 54, 64
10, 277993, Note_on_c, 3, 50, 68
10, 278078, Note_off_c, 3, 50, 64
10, 278122, Note_on_c, 3, 55, 89
10, 278241, Note_on_c, 3, 54, 78
10, 278261, Note_off_c, 3, 55, 64
10, 278339, Note_off_c, 3, 54, 64
10, 278359, Note_on_c, 3, 55, 72
10, 278476, Note_on_c, 3, 57, 66
10, 278480, Note_off_c, 3, 55, 64
10, 278567, Note_off_c, 3, 57, 64
10, 278611, Note_on_c, 3, 55, 91
10, 278728, Note_on_c, 3, 54, 64
10, 278742, Note_off_c, 3, 55, 64
10, 278832, Note_off_c, 3, 54, 64
10, 278854, Note_on_c, 3, 52, 68
10, 278959, Note_off_c, 3, 52, 64
10, 278965, Note_on_c, 3, 55, 68
10, 279060, Note_off_c, 3, 55, 64
10, 279103, Note_on_c, 3, 54, 91
10, 279224, Note_on_c, 3, 52, 76
10, 279235, Note_off_c, 3, 54, 64
10, 279315, Note_off_c, 3, 52, 64
10, 279346, Note_on_c, 3, 50, 66
10, 279451, Note_off_c, 3, 50, 64
10, 279459, Note_on_c, 3, 52, 70
10, 279556, Note_off_c, 3, 52, 64
10, 279592, Note_on_c, 3, 54, 85
10, 279702, Note_off_c, 3, 54, 64
10, 279704, Note_on_c, 3, 57, 80
10, 279819, Note_on_c, 3, 55, 70
10, 279829, Note_off_c, 3, 57, 64
10, 279917, Note_on_c, 3, 54, 62
10, 279930, Note_off_c, 3, 55, 64
10, 280026, Note_off_c, 3, 54, 64
10, 280057, Note_on_c, 3, 52, 82
10, 280158, Note_off_c, 3, 52, 64
10, 280305, Note_on_c, 3, 47, 66
10, 280413, Note_off_c, 3, 47, 64
10, 280537, Note_on_c, 3, 43, 87
10, 280634, Note_off_c, 3, 43, 64
10, 280776, Note_on_c, 3, 45, 63
10, 280785, Note_on_c, 3, 43, 57
10, 280829, Note_off_c, 3, 43, 64
10, 280873, Note_off_c, 3, 45, 64
10, 281015, Note_on_c, 3, 50, 78
10, 281130, Note_on_c, 3, 49, 70
10, 281141, Note_off_c, 3, 50, 64
10, 281252, Note_off_c, 3, 49, 64
10, 281252, Note_on_c, 3, 50, 68
10, 281355, Note_on_c, 3, 52, 72
10, 281371, Note_off_c, 3, 50, 64
10, 281438, Note_off_c, 3, 52, 64
10, 281478, Note_on_c, 3, 54, 93
10, 281595, Note_on_c, 3, 55, 85
10, 281611, Note_off_c, 3, 54, 64
10, 281684, Note_off_c, 3, 55, 64
10, 281719, Note_on_c, 3, 57, 80
10, 281805, Note_off_c, 3, 57, 64
10, 281827, Note_on_c, 3, 54, 66
10, 281929, Note_off_c, 3, 54, 64
10, 281971, Note_on_c, 3, 59, 98
10, 282051, Note_off_c, 3, 59, 64
10, 282219, Note_on_c, 3, 57, 82
10, 282635, Note_off_c, 3, 57, 64
10, 282715, Note_on_c, 3, 55, 80
10, 282828, Note_off_c, 3, 55, 64
10, 282945, Note_on_c, 3, 57, 85
10, 283051, Note_off_c, 3, 57, 64
10, 283051, Note_on_c, 3, 55, 87
10, 283151, Note_off_c, 3, 55, 64
10, 283155, Note_on_c, 3, 54, 85
10, 283244, Note_off_c, 3, 54, 64
10, 283260, Note_on_c, 3, 55, 78
10, 283350, Note_off_c, 3, 55, 64
10, 283401, Note_on_c, 3, 57, 80
10, 283519, Note_off_c, 3, 57, 64
10, 283647, Note_on_c, 3, 50, 74
10, 283729, Note_off_c, 3, 50, 64
10, 283882, Note_on_c, 3, 55, 82
10, 283964, Note_off_c, 3, 55, 64
10, 284129, Note_on_c, 3, 54, 87
10, 284492, Note_off_c, 3, 54, 64
10, 284605, Note_on_c, 3, 52, 72
10, 284705, Note_off_c, 3, 52, 64
10, 284854, Note_on_c, 3, 54, 98
10, 284955, Note_on_c, 3, 55, 82
10, 284986, Note_off_c, 3, 54, 64
10, 285060, Note_off_c, 3, 55, 64
10, 285088, Note_on_c, 3, 54, 60
10, 285201, Note_on_c, 3, 52, 66
10, 285205, Note_off_c, 3, 54, 64
10, 285281, Note_off_c, 3, 52, 64
10, 285343, Note_on_c, 3, 50, 82
10, 285451, Note_on_c, 3, 52, 80
10, 285460, Note_off_c, 3, 50, 64
10, 285548, Note_off_c, 3, 52, 64
10, 285568, Note_on_c, 3, 54, 66
10, 285670, Note_off_c, 3, 54, 64
10, 285677, Note_on_c, 3, 50, 63
10, 285761, Note_off_c, 3, 50, 64
10, 285811, Note_on_c, 3, 52, 82
10, 285903, Note_off_c, 3, 52, 64
10, 286058, Note_on_c, 3, 57, 78
10, 286142, Note_off_c, 3, 57, 64
10, 286294, Note_on_c, 3, 54, 68
10, 286387, Note_off_c, 3, 54, 64
10, 286522, Note_on_c, 3, 50, 82
10, 286607, Note_off_c, 3, 50, 64
10, 286755, Note_on_c, 3, 55, 80
10, 287268, Note_off_c, 3, 55, 64
10, 287357, Note_on_c, 3, 54, 87
10, 287459, Note_off_c, 3, 54, 64
10, 287465, Note_on_c, 3, 55, 70
10, 287543, Note_off_c, 3, 55, 64
10, 287569, Note_on_c, 3, 52, 78
10, 287665, Note_off_c, 3, 52, 64
10, 287702, Note_on_c, 3, 54, 78
10, 287821, Note_off_c, 3, 54, 64
10, 287961, Note_on_c, 3, 59, 82
10, 288059, Note_off_c, 3, 59, 64
10, 288211, Note_on_c, 3, 56, 74
10, 288309, Note_off_c, 3, 56, 64
10, 288459, Note_on_c, 3, 52, 82
10, 288548, Note_off_c, 3, 52, 64
10, 288707, Note_on_c, 3, 57, 78
10, 289233, Note_off_c, 3, 57, 64
10, 289304, Note_on_c, 3, 59, 89
10, 289378, Note_off_c, 3, 59, 64
10, 289405, Note_on_c, 3, 61, 64
10, 289497, Note_off_c, 3, 61, 64
10, 289513, Note_on_c, 3, 57, 80
10, 289608, Note_off_c, 3, 57, 64
10, 289639, Note_on_c, 3, 59, 82
10, 289767, Note_off_c, 3, 59, 64
10, 289894, Note_on_c, 3, 64, 93
10, 289993, Note_off_c, 3, 64, 64
10, 290141, Note_on_c, 3, 61, 72
10, 290248, Note_off_c, 3, 61, 64
10, 290370, Note_on_c, 3, 57, 74
10, 290469, Note_off_c, 3, 57, 64
10, 290620, Note_on_c, 3, 62, 85
10, 290717, Note_off_c, 3, 62, 64
10, 290855, Note_on_c, 3, 57, 80
10, 290943, Note_off_c, 3, 57, 64
10, 291098, Note_on_c, 3, 59, 87
10, 291330, Note_off_c, 3, 59, 64
10, 291344, Note_on_c, 3, 57, 78
10, 291437, Note_off_c, 3, 57, 64
10, 291442, Note_on_c, 3, 55, 76
10, 291523, Note_off_c, 3, 55, 64
10, 291565, Note_on_c, 3, 54, 87
10, 291667, Note_on_c, 3, 52, 78
10, 291693, Note_off_c, 3, 54, 64
10, 291773, Note_on_c, 3, 54, 80
10, 291784, Note_off_c, 3, 52, 64
10, 291879, Note_off_c, 3, 54, 64
10, 291888, Note_on_c, 3, 55, 89
10, 291983, Note_off_c, 3, 55, 64
10, 292019, Note_on_c, 3, 57, 93
10, 292112, Note_off_c, 3, 57, 64
10, 292289, Note_on_c, 3, 45, 85
10, 292369, Note_off_c, 3, 45, 64
10, 292546, Note_on_c, 3, 38, 98
10, 293064, Note_off_c, 3, 38, 64
10, 334060, Note_on_c, 3, 57, 74
10, 334166, Note_off_c, 3, 57, 64
10, 334303, Note_on_c, 3, 62, 87
10, 334398, Note_on_c, 3, 61, 62
10, 334438, Note_off_c, 3, 62, 64
10, 334518, Note_on_c, 3, 59, 68
10, 334523, Note_off_c, 3, 61, 64
10, 334640, Note_on_c, 3, 57, 63
10, 334644, Note_off_c, 3, 59, 64
10, 334748, Note_off_c, 3, 57, 64
10, 334753, Note_on_c, 3, 55, 64
10, 334852, Note_off_c, 3, 55, 64
10, 334864, Note_on_c, 3, 54, 58
10, 334974, Note_on_c, 3, 52, 64
10, 334987, Note_off_c, 3, 54, 64
10, 335094, Note_on_c, 3, 51, 61
10, 335103, Note_off_c, 3, 52, 64
10, 335235, Note_on_c, 3, 52, 72
10, 335242, Note_off_c, 3, 51, 64
10, 335342, Note_off_c, 3, 52, 64
10, 335361, Note_on_c, 3, 55, 70
10, 335472, Note_on_c, 3, 54, 63
10, 335480, Note_off_c, 3, 55, 64
10, 335590, Note_off_c, 3, 54, 64
10, 335591, Note_on_c, 3, 52, 63
10, 335707, Note_off_c, 3, 52, 64
10, 335720, Note_on_c, 3, 51, 57
10, 335844, Note_off_c, 3, 51, 64
10, 335844, Note_on_c, 3, 52, 64
10, 335961, Note_off_c, 3, 52, 64
10, 335968, Note_on_c, 3, 54, 59
10, 336085, Note_off_c, 3, 54, 64
10, 336097, Note_on_c, 3, 52, 72
10, 336174, Note_off_c, 3, 52, 64
10, 336207, Note_on_c, 3, 51, 63
10, 336304, Note_off_c, 3, 51, 64
10, 336324, Note_on_c, 3, 47, 66
10, 336422, Note_off_c, 3, 47, 64
10, 336435, Note_on_c, 3, 59, 66
10, 336603, Note_off_c, 3, 59, 64
10, 336709, Note_on_c, 3, 59, 58
10, 339652, Note_off_c, 3, 59, 64
10, 339683, Note_on_c, 3, 60, 78
10, 339815, Note_on_c, 3, 59, 70
10, 339835, Note_off_c, 3, 60, 64
10, 339930, Note_on_c, 3, 57, 63
10, 339946, Note_off_c, 3, 59, 64
10, 340050, Note_on_c, 3, 55, 58
10, 340052, Note_off_c, 3, 57, 64
10, 340158, Note_on_c, 3, 54, 66
10, 340170, Note_off_c, 3, 55, 64
10, 340293, Note_on_c, 3, 52, 64
10, 340295, Note_off_c, 3, 54, 64
10, 340398, Note_on_c, 3, 51, 60
10, 340410, Note_off_c, 3, 52, 64
10, 340533, Note_on_c, 3, 52, 78
10, 340535, Note_off_c, 3, 51, 64
10, 340647, Note_on_c, 3, 54, 66
10, 340659, Note_off_c, 3, 52, 64
10, 340754, Note_off_c, 3, 54, 64
10, 340767, Note_on_c, 3, 55, 64
10, 340869, Note_off_c, 3, 55, 64
10, 340880, Note_on_c, 3, 52, 63
10, 340988, Note_off_c, 3, 52, 64
10, 341010, Note_on_c, 3, 54, 72
10, 341123, Note_on_c, 3, 55, 68
10, 341137, Note_off_c, 3, 54, 64
10, 341239, Note_off_c, 3, 55, 64
10, 341250, Note_on_c, 3, 57, 62
10, 341358, Note_off_c, 3, 57, 64
10, 341369, Note_on_c, 3, 54, 63
10, 341466, Note_off_c, 3, 54, 64
10, 341489, Note_on_c, 3, 55, 85
10, 341615, Note_on_c, 3, 57, 68
10, 341632, Note_off_c, 3, 55, 64
10, 341750, Note_off_c, 3, 57, 64
10, 341750, Note_on_c, 3, 59, 66
10, 341854, Note_on_c, 3, 57, 60
10, 341867, Note_off_c, 3, 59, 64
10, 341971, Note_off_c, 3, 57, 64
10, 341978, Note_on_c, 3, 55, 74
10, 342097, Note_on_c, 3, 60, 80
10, 342106, Note_off_c, 3, 55, 64
10, 342222, Note_off_c, 3, 60, 64
10, 342224, Note_on_c, 3, 59, 70
10, 342325, Note_on_c, 3, 60, 66
10, 342330, Note_off_c, 3, 59, 64
10, 342430, Note_off_c, 3, 60, 64
10, 342456, Note_on_c, 3, 54, 80
10, 342571, Note_on_c, 3, 52, 66
10, 342587, Note_off_c, 3, 54, 64
10, 342686, Note_on_c, 3, 54, 54
10, 342719, Note_off_c, 3, 52, 64
10, 342799, Note_on_c, 3, 55, 70
10, 342823, Note_off_c, 3, 54, 64
10, 342910, Note_off_c, 3, 55, 64
10, 342921, Note_on_c, 3, 57, 68
10, 343032, Note_off_c, 3, 57, 64
10, 343051, Note_on_c, 3, 55, 57
10, 343165, Note_off_c, 3, 55, 64
10, 343165, Note_on_c, 3, 57, 64
10, 343280, Note_off_c, 3, 57, 64
10, 343284, Note_on_c, 3, 59, 70
10, 343399, Note_off_c, 3, 59, 64
10, 343412, Note_on_c, 3, 52, 76
10, 343518, Note_on_c, 3, 54, 58
10, 343538, Note_off_c, 3, 52, 64
10, 343642, Note_off_c, 3, 54, 64
10, 343649, Note_on_c, 3, 55, 60
10, 343762, Note_on_c, 3, 54, 57
10, 343784, Note_off_c, 3, 55, 64
10, 343875, Note_off_c, 3, 54, 64
10, 343892, Note_on_c, 3, 52, 68
10, 344003, Note_off_c, 3, 52, 64
10, 344010, Note_on_c, 3, 57, 68
10, 344119, Note_off_c, 3, 57, 64
10, 344129, Note_on_c, 3, 55, 57
10, 344245, Note_on_c, 3, 57, 60
10, 344254, Note_off_c, 3, 55, 64
10, 344331, Note_off_c, 3, 57, 64
10, 344364, Note_on_c, 3, 50, 80
10, 344475, Note_on_c, 3, 49, 59
10, 344486, Note_off_c, 3, 50, 64
10, 344596, Note_on_c, 3, 50, 70
10, 344599, Note_off_c, 3, 49, 64
10, 344716, Note_on_c, 3, 52, 64
10, 344730, Note_off_c, 3, 50, 64
10, 344829, Note_off_c, 3, 52, 64
10, 344851, Note_on_c, 3, 54, 76
10, 344968, Note_off_c, 3, 54, 64
10, 344971, Note_on_c, 3, 52, 57
10, 345097, Note_on_c, 3, 54, 63
10, 345103, Note_off_c, 3, 52, 64
10, 345230, Note_on_c, 3, 55, 60
10, 345236, Note_off_c, 3, 54, 64
10, 345345, Note_on_c, 3, 49, 72
10, 345352, Note_off_c, 3, 55, 64
10, 345456, Note_on_c, 3, 50, 63
10, 345460, Note_off_c, 3, 49, 64
10, 345582, Note_on_c, 3, 49, 60
10, 345606, Note_off_c, 3, 50, 64
10, 345694, Note_off_c, 3, 49, 64
10, 345694, Note_on_c, 3, 47, 72
10, 345810, Note_on_c, 3, 46, 57
10, 345816, Note_off_c, 3, 47, 64
10, 345936, Note_off_c, 3, 46, 64
10, 346062, Note_on_c, 3, 42, 68
10, 346162, Note_off_c, 3, 42, 64
10, 346288, Note_on_c, 3, 47, 63
10, 346394, Note_off_c, 3, 47, 64
10, 346529, Note_on_c, 3, 45, 76
10, 346624, Note_off_c, 3, 45, 64
10, 346762, Note_on_c, 3, 43, 70
10, 347091, Note_off_c, 3, 43, 64
10, 347249, Note_on_c, 3, 42, 63
10, 347446, Note_off_c, 3, 42, 64
10, 347496, Note_on_c, 3, 54, 62
10, 347605, Note_on_c, 3, 52, 63
10, 347620, Note_off_c, 3, 54, 64
10, 347700, Note_off_c, 3, 52, 64
10, 347735, Note_on_c, 3, 54, 78
10, 347850, Note_on_c, 3, 55, 68
10, 347873, Note_off_c, 3, 54, 64
10, 347972, Note_off_c, 3, 55, 64
10, 347973, Note_on_c, 3, 54, 57
10, 348090, Note_on_c, 3, 52, 66
10, 348096, Note_off_c, 3, 54, 64
10, 348194, Note_off_c, 3, 52, 64
10, 348222, Note_on_c, 3, 50, 72
10, 348346, Note_off_c, 3, 50, 64
10, 348448, Note_on_c, 3, 47, 57
10, 348656, Note_off_c, 3, 47, 64
10, 348953, Note_on_c, 3, 47, 70
10, 349021, Note_off_c, 3, 47, 64
10, 349181, Note_on_c, 3, 54, 60
10, 349285, Note_off_c, 3, 54, 64
10, 349425, Note_on_c, 3, 56, 76
10, 349515, Note_off_c, 3, 56, 64
10, 349675, Note_on_c, 3, 58, 72
10, 349770, Note_on_c, 3, 59, 76
10, 349810, Note_off_c, 3, 58, 64
10, 349889, Note_on_c, 3, 61, 64
10, 349892, Note_off_c, 3, 59, 64
10, 349987, Note_on_c, 3, 59, 72
10, 350027, Note_off_c, 3, 61, 64
10, 350082, Note_off_c, 3, 59, 64
10, 350109, Note_on_c, 3, 58, 59
10, 350217, Note_off_c, 3, 58, 64
10, 350343, Note_on_c, 3, 54, 59
10, 350540, Note_off_c, 3, 54, 64
10, 350846, Note_on_c, 3, 54, 72
10, 350938, Note_off_c, 3, 54, 64
10, 351089, Note_on_c, 3, 59, 78
10, 351195, Note_off_c, 3, 59, 64
10, 351330, Note_on_c, 3, 54, 68
10, 351437, Note_off_c, 3, 54, 64
10, 351560, Note_on_c, 3, 50, 80
10, 351656, Note_on_c, 3, 49, 78
10, 351669, Note_off_c, 3, 50, 64
10, 351777, Note_on_c, 3, 47, 66
10, 351793, Note_off_c, 3, 49, 64
10, 351893, Note_on_c, 3, 49, 64
10, 351930, Note_off_c, 3, 47, 64
10, 351983, Note_off_c, 3, 49, 64
10, 352019, Note_on_c, 3, 51, 82
10, 352132, Note_off_c, 3, 51, 64
10, 352262, Note_on_c, 3, 47, 59
10, 352413, Note_off_c, 3, 47, 64
10, 352758, Note_on_c, 3, 47, 70
10, 352863, Note_off_c, 3, 47, 64
10, 353017, Note_on_c, 3, 52, 74
10, 353132, Note_off_c, 3, 52, 64
10, 353249, Note_on_c, 3, 55, 72
10, 353358, Note_off_c, 3, 55, 64
10, 353502, Note_on_c, 3, 52, 70
10, 353599, Note_off_c, 3, 52, 64
10, 353730, Note_on_c, 3, 47, 72
10, 353830, Note_off_c, 3, 47, 64
10, 353990, Note_on_c, 3, 49, 62
10, 354469, Note_off_c, 3, 49, 64
10, 354689, Note_on_c, 3, 49, 62
10, 354808, Note_off_c, 3, 49, 64
10, 354939, Note_on_c, 3, 51, 68
10, 355054, Note_off_c, 3, 51, 64
10, 355178, Note_on_c, 3, 54, 68
10, 355286, Note_off_c, 3, 54, 64
10, 355423, Note_on_c, 3, 51, 70
10, 355519, Note_off_c, 3, 51, 64
10, 355647, Note_on_c, 3, 47, 76
10, 355747, Note_off_c, 3, 47, 64
10, 355892, Note_on_c, 3, 52, 80
10, 356406, Note_off_c, 3, 52, 64
10, 356605, Note_on_c, 3, 50, 80
10, 356696, Note_off_c, 3, 50, 64
10, 356836, Note_on_c, 3, 49, 72
10, 356962, Note_off_c, 3, 49, 64
10, 357081, Note_on_c, 3, 52, 70
10, 357188, Note_off_c, 3, 52, 64
10, 357332, Note_on_c, 3, 55, 70
10, 357427, Note_off_c, 3, 55, 64
10, 357553, Note_on_c, 3, 47, 68
10, 357666, Note_off_c, 3, 47, 64
10, 357798, Note_on_c, 3, 46, 76
10, 357916, Note_off_c, 3, 46, 64
10, 358040, Note_on_c, 3, 42, 70
10, 358133, Note_off_c, 3, 42, 64
10, 358307, Note_on_c, 3, 50, 85
10, 358414, Note_off_c, 3, 50, 64
10, 358540, Note_on_c, 3, 47, 68
10, 358637, Note_off_c, 3, 47, 64
10, 358783, Note_on_c, 3, 54, 70
10, 358894, Note_off_c, 3, 54, 64
10, 359020, Note_on_c, 3, 56, 70
10, 359124, Note_off_c, 3, 56, 64
10, 359253, Note_on_c, 3, 58, 72
10, 359343, Note_off_c, 3, 58, 64
10, 359483, Note_on_c, 3, 54, 63
10, 359574, Note_off_c, 3, 54, 64
10, 359738, Note_on_c, 3, 59, 70
10, 360245, Note_off_c, 3, 59, 64
10, 360462, Note_on_c, 3, 52, 60
10, 360561, Note_off_c, 3, 52, 64
10, 360711, Note_on_c, 3, 57, 76
10, 361196, Note_off_c, 3, 57, 64
10, 361409, Note_on_c, 3, 50, 66
10, 361489, Note_off_c, 3, 50, 64
10, 361663, Note_on_c, 3, 55, 66
10, 362195, Note_off_c, 3, 55, 64
10, 362381, Note_on_c, 3, 54, 66
10, 362469, Note_off_c, 3, 54, 64
10, 362482, Note_on_c, 3, 52, 78
10, 362566, Note_off_c, 3, 52, 64
10, 362618, Note_on_c, 3, 51, 63
10, 363074, Note_off_c, 3, 51, 64
10, 392406, Note_on_c, 3, 47, 89
10, 394209, Note_off_c, 3, 47, 64
10, 394243, Note_on_c, 3, 49, 70
10, 394295, Note_off_c, 3, 49, 64
10, 394306, Note_on_c, 3, 50, 74
10, 394360, Note_on_c, 3, 49, 68
10, 394372, Note_off_c, 3, 50, 64
10, 394388, Note_off_c, 3, 49, 64
10, 394388, Note_on_c, 3, 50, 72
10, 394415, Note_on_c, 3, 49, 80
10, 394422, Note_off_c, 3, 50, 64
10, 394439, Note_on_c, 3, 50, 70
10, 394440, Note_off_c, 3, 49, 64
10, 394462, Note_on_c, 3, 49, 70
10, 394477, Note_off_c, 3, 50, 64
10, 394491, Note_on_c, 3, 47, 82
10, 394496, Note_off_c, 3, 49, 64
10, 394526, Note_on_c, 3, 49, 68
10, 394547, Note_off_c, 3, 47, 64
10, 394560, Note_on_c, 3, 50, 87
10, 394566, Note_off_c, 3, 49, 64
10, 394661, Note_off_c, 3, 50, 64
10, 394726, Note_on_c, 3, 47, 70
10, 394770, Note_off_c, 3, 47, 64
10, 394787, Note_on_c, 3, 55, 87
10, 395157, Note_off_c, 3, 55, 64
10, 395203, Note_on_c, 3, 57, 80
10, 395242, Note_off_c, 3, 57, 64
10, 395275, Note_on_c, 3, 55, 85
10, 395411, Note_on_c, 3, 54, 66
10, 395419, Note_off_c, 3, 55, 64
10, 396357, Note_off_c, 3, 54, 64
10, 396415, Note_on_c, 3, 54, 87
10, 396458, Note_off_c, 3, 54, 64
10, 396475, Note_on_c, 3, 56, 93
10, 396560, Note_off_c, 3, 56, 64
10, 396645, Note_on_c, 3, 58, 70
10, 396693, Note_off_c, 3, 58, 64
10, 396707, Note_on_c, 3, 59, 85
10, 397761, Note_off_c, 3, 59, 64
10, 397842, Note_on_c, 3, 47, 74
10, 397892, Note_off_c, 3, 47, 64
10, 397903, Note_on_c, 3, 49, 70
10, 397999, Note_off_c, 3, 49, 64
10, 398083, Note_on_c, 3, 51, 72
10, 398126, Note_off_c, 3, 51, 64
10, 398148, Note_on_c, 3, 52, 80
10, 398498, Note_off_c, 3, 52, 64
10, 398563, Note_on_c, 3, 49, 78
10, 398596, Note_on_c, 3, 50, 76
10, 398603, Note_off_c, 3, 49, 64
10, 398630, Note_on_c, 3, 52, 66
10, 398635, Note_off_c, 3, 50, 64
10, 398664, Note_on_c, 3, 50, 80
10, 398673, Note_off_c, 3, 52, 64
10, 398691, Note_on_c, 3, 52, 68
10, 398698, Note_off_c, 3, 50, 64
10, 398715, Note_on_c, 3, 50, 78
10, 398729, Note_off_c, 3, 52, 64
10, 398783, Note_off_c, 3, 50, 64
10, 398838, Note_on_c, 3, 49, 89
10, 398871, Note_off_c, 3, 49, 64
10, 398885, Note_on_c, 3, 50, 95
10, 399000, Note_off_c, 3, 50, 64
10, 399036, Note_on_c, 3, 49, 82
10, 399067, Note_on_c, 3, 47, 85
10, 399073, Note_off_c, 3, 49, 64
10, 399109, Note_off_c, 3, 47, 64
10, 399113, Note_on_c, 3, 55, 87
10, 399720, Note_off_c, 3, 55, 64
10, 399752, Note_on_c, 3, 54, 60
10, 399777, Note_on_c, 3, 52, 80
10, 399784, Note_off_c, 3, 54, 64
10, 399819, Note_off_c, 3, 52, 64
10, 399829, Note_on_c, 3, 57, 89
10, 399946, Note_off_c, 3, 57, 64
10, 400005, Note_on_c, 3, 55, 85
10, 400048, Note_off_c, 3, 55, 64
10, 400061, Note_on_c, 3, 54, 80
10, 400172, Note_off_c, 3, 54, 64
10, 400244, Note_on_c, 3, 52, 68
10, 400279, Note_off_c, 3, 52, 64
10, 400306, Note_on_c, 3, 51, 95
10, 400497, Note_off_c, 3, 51, 64
10, 400537, Note_on_c, 3, 52, 80
10, 400630, Note_on_c, 3, 51, 66
10, 400642, Note_off_c, 3, 52, 64
10, 400672, Note_on_c, 3, 52, 63
10, 400681, Note_off_c, 3, 51, 64
10, 400717, Note_on_c, 3, 51, 58
10, 400726, Note_off_c, 3, 52, 64
10, 400746, Note_off_c, 3, 51, 64
10, 400746, Note_on_c, 3, 52, 66
10, 400777, Note_on_c, 3, 51, 57
10, 400782, Note_off_c, 3, 52, 64
10, 400798, Note_off_c, 3, 51, 64
10, 400800, Note_on_c, 3, 52, 66
10, 400827, Note_on_c, 3, 51, 63
10, 400831, Note_off_c, 3, 52, 64
10, 400849, Note_off_c, 3, 51, 64
10, 400852, Note_on_c, 3, 52, 66
10, 400901, Note_on_c, 3, 51, 10
10, 400916, Note_off_c, 3, 52, 64
10, 400945, Note_off_c, 3, 51, 64
10, 400945, Note_on_c, 3, 49, 59
10, 400977, Note_on_c, 3, 51, 68
10, 400990, Note_off_c, 3, 49, 64
10, 401016, Note_off_c, 3, 51, 64
10, 401023, Note_on_c, 3, 52, 85
10, 401129, Note_off_c, 3, 52, 64
10, 401212, Note_on_c, 3, 40, 87
10, 401259, Note_off_c, 3, 40, 64
10, 401278, Note_on_c, 3, 52, 66
10, 401870, Note_off_c, 3, 52, 64
10, 401914, Note_on_c, 3, 50, 68
10, 401941, Note_on_c, 3, 49, 78
10, 401950, Note_off_c, 3, 50, 64
10, 401981, Note_off_c, 3, 49, 64
10, 401983, Note_on_c, 3, 50, 80
10, 402089, Note_off_c, 3, 50, 64
10, 402158, Note_on_c, 3, 55, 74
10, 402214, Note_off_c, 3, 55, 64
10, 402216, Note_on_c, 3, 54, 82
10, 402331, Note_off_c, 3, 54, 64
10, 402395, Note_on_c, 3, 55, 85
10, 402446, Note_off_c, 3, 55, 64
10, 402458, Note_on_c, 3, 49, 85
10, 402569, Note_off_c, 3, 49, 64
10, 402641, Note_on_c, 3, 50, 76
10, 402674, Note_on_c, 3, 52, 82
10, 402678, Note_off_c, 3, 50, 64
10, 402719, Note_off_c, 3, 52, 64
10, 402723, Note_on_c, 3, 42, 82
10, 403319, Note_off_c, 3, 42, 64
10, 403364, Note_on_c, 3, 55, 80
10, 403409, Note_off_c, 3, 55, 64
10, 403424, Note_on_c, 3, 54, 85
10, 403542, Note_off_c, 3, 54, 64
10, 403600, Note_on_c, 3, 52, 74
10, 403648, Note_off_c, 3, 52, 64
10, 403665, Note_on_c, 3, 50, 89
10, 403779, Note_off_c, 3, 50, 64
10, 403840, Note_on_c, 3, 49, 66
10, 403888, Note_off_c, 3, 49, 64
10, 403902, Note_on_c, 3, 47, 89
10, 404022, Note_off_c, 3, 47, 64
10, 404085, Note_on_c, 3, 52, 70
10, 404126, Note_off_c, 3, 52, 64
10, 404144, Note_on_c, 3, 54, 68
10, 404327, Note_off_c, 3, 54, 64
10, 404389, Note_on_c, 3, 42, 63
10, 404574, Note_off_c, 3, 42, 64
10, 404638, Note_on_c, 3, 47, 76
10, 405607, Note_off_c, 3, 47, 64
10, 405607, End_track
11, 0, Start_track
11, 0, Title_t, "Flute"
11, 0, Program_c, 4, 73
11, 0, Control_c, 4, 7, 127
11, 20342, Note_on_c, 4, 71, 82
11, 20368, Note_on_c, 4, 73, 60
11, 20385, Note_off_c, 4, 71, 64
11, 20398, Note_on_c, 4, 74, 76
11, 20403, Note_off_c, 4, 73, 64
11, 20431, Note_on_c, 4, 73, 58
11, 20434, Note_off_c, 4, 74, 64
11, 20454, Note_on_c, 4, 74, 74
11, 20455, Note_off_c, 4, 73, 64
11, 20479, Note_on_c, 4, 73, 55
11, 20482, Note_off_c, 4, 74, 64
11, 20497, Note_off_c, 4, 73, 64
11, 20497, Note_on_c, 4, 74, 70
11, 20517, Note_on_c, 4, 73, 57
11, 20520, Note_off_c, 4, 74, 64
11, 20533, Note_on_c, 4, 74, 74
11, 20536, Note_off_c, 4, 73, 64
11, 20556, Note_on_c, 4, 73, 62
11, 20564, Note_off_c, 4, 74, 64
11, 20583, Note_on_c, 4, 71, 82
11, 20585, Note_off_c, 4, 73, 64
11, 20608, Note_on_c, 4, 73, 64
11, 20624, Note_off_c, 4, 71, 64
11, 20639, Note_off_c, 4, 73, 64
11, 20639, Note_on_c, 4, 74, 85
11, 20754, Note_off_c, 4, 74, 64
11, 20803, Note_on_c, 4, 73, 60
11, 20832, Note_on_c, 4, 71, 82
11, 20841, Note_off_c, 4, 73, 64
11, 20866, Note_off_c, 4, 71, 64
11, 20874, Note_on_c, 4, 79, 76
11, 20970, Note_off_c, 4, 79, 64
11, 21061, Note_on_c, 4, 79, 82
11, 21090, Note_off_c, 4, 79, 64
11, 21117, Note_on_c, 4, 79, 91
11, 21228, Note_on_c, 4, 78, 57
11, 21236, Note_off_c, 4, 79, 64
11, 21492, Note_off_c, 4, 78, 64
11, 21548, Note_on_c, 4, 78, 89
11, 21582, Note_off_c, 4, 78, 64
11, 21599, Note_on_c, 4, 71, 53
11, 21720, Note_off_c, 4, 71, 64
11, 21786, Note_on_c, 4, 71, 82
11, 21827, Note_off_c, 4, 71, 64
11, 21842, Note_on_c, 4, 76, 78
11, 22213, Note_off_c, 4, 76, 64
11, 22261, Note_on_c, 4, 78, 80
11, 22292, Note_off_c, 4, 78, 64
11, 22293, Note_on_c, 4, 79, 70
11, 22321, Note_off_c, 4, 79, 64
11, 22321, Note_on_c, 4, 78, 82
11, 22432, Note_off_c, 4, 78, 64
11, 22477, Note_on_c, 4, 79, 53
11, 22505, Note_on_c, 4, 76, 68
11, 22517, Note_off_c, 4, 79, 64
11, 22534, Note_off_c, 4, 76, 64
11, 22556, Note_on_c, 4, 76, 70
11, 22626, Note_on_c, 4, 74, 57
11, 22636, Note_off_c, 4, 76, 64
11, 22664, Note_off_c, 4, 74, 64
11, 22664, Note_on_c, 4, 76, 57
11, 22694, Note_on_c, 4, 74, 59
11, 22698, Note_off_c, 4, 76, 64
11, 22716, Note_off_c, 4, 74, 64
11, 22717, Note_on_c, 4, 76, 63
11, 22740, Note_on_c, 4, 74, 66
11, 22741, Note_off_c, 4, 76, 64
11, 22758, Note_off_c, 4, 74, 64
11, 22760, Note_on_c, 4, 76, 80
11, 22782, Note_on_c, 4, 74, 85
11, 22789, Note_off_c, 4, 76, 64
11, 22910, Note_off_c, 4, 74, 64
11, 22967, Note_on_c, 4, 73, 68
11, 23003, Note_off_c, 4, 73, 64
11, 23024, Note_on_c, 4, 73, 70
11, 23401, Note_off_c, 4, 73, 64
11, 23466, Note_on_c, 4, 73, 82
11, 23502, Note_off_c, 4, 73, 64
11, 23521, Note_on_c, 4, 78, 78
11, 23876, Note_off_c, 4, 78, 64
11, 23939, Note_on_c, 4, 79, 85
11, 23975, Note_off_c, 4, 79, 64
11, 23991, Note_on_c, 4, 76, 82
11, 24108, Note_on_c, 4, 75, 58
11, 24111, Note_off_c, 4, 76, 64
11, 24329, Note_off_c, 4, 75, 64
11, 24420, Note_on_c, 4, 75, 68
11, 24457, Note_off_c, 4, 75, 64
11, 24464, Note_on_c, 4, 78, 63
11, 24491, Note_on_c, 4, 76, 64
11, 24497, Note_off_c, 4, 78, 64
11, 24515, Note_on_c, 4, 78, 63
11, 24521, Note_off_c, 4, 76, 64
11, 24537, Note_on_c, 4, 76, 80
11, 24543, Note_off_c, 4, 78, 64
11, 24584, Note_off_c, 4, 76, 64
11, 24647, Note_on_c, 4, 75, 76
11, 24682, Note_off_c, 4, 75, 64
11, 24703, Note_on_c, 4, 76, 66
11, 24729, Note_on_c, 4, 75, 74
11, 24730, Note_off_c, 4, 76, 64
11, 24749, Note_on_c, 4, 76, 85
11, 24763, Note_off_c, 4, 75, 64
11, 24825, Note_off_c, 4, 76, 64
11, 24894, Note_on_c, 4, 78, 78
11, 24925, Note_off_c, 4, 78, 64
11, 24946, Note_on_c, 4, 78, 70
11, 25070, Note_on_c, 4, 79, 70
11, 25073, Note_off_c, 4, 78, 64
11, 25300, Note_off_c, 4, 79, 64
11, 25376, Note_on_c, 4, 83, 78
11, 25415, Note_off_c, 4, 83, 64
11, 25424, Note_on_c, 4, 76, 72
11, 25509, Note_off_c, 4, 76, 64
11, 25604, Note_on_c, 4, 76, 66
11, 25639, Note_off_c, 4, 76, 64
11, 25661, Note_on_c, 4, 78, 85
11, 25680, Note_on_c, 4, 76, 64
11, 25686, Note_off_c, 4, 78, 64
11, 25707, Note_on_c, 4, 78, 68
11, 25715, Note_off_c, 4, 76, 64
11, 25768, Note_off_c, 4, 78, 64
11, 25859, Note_on_c, 4, 79, 85
11, 25891, Note_off_c, 4, 79, 64
11, 25908, Note_on_c, 4, 74, 82
11, 26030, Note_on_c, 4, 73, 57
11, 26035, Note_off_c, 4, 74, 64
11, 26270, Note_off_c, 4, 73, 64
11, 26338, Note_on_c, 4, 73, 78
11, 26380, Note_off_c, 4, 73, 64
11, 26396, Note_on_c, 4, 76, 68
11, 26416, Note_on_c, 4, 74, 85
11, 26425, Note_off_c, 4, 76, 64
11, 26444, Note_on_c, 4, 76, 66
11, 26447, Note_off_c, 4, 74, 64
11, 26469, Note_on_c, 4, 74, 78
11, 26472, Note_off_c, 4, 76, 64
11, 26521, Note_off_c, 4, 74, 64
11, 26579, Note_on_c, 4, 73, 74
11, 26616, Note_off_c, 4, 73, 64
11, 26627, Note_on_c, 4, 74, 72
11, 26653, Note_on_c, 4, 73, 68
11, 26656, Note_off_c, 4, 74, 64
11, 26674, Note_on_c, 4, 74, 93
11, 26687, Note_off_c, 4, 73, 64
11, 26758, Note_off_c, 4, 74, 64
11, 26808, Note_on_c, 4, 76, 80
11, 26834, Note_off_c, 4, 76, 64
11, 26865, Note_on_c, 4, 76, 78
11, 26899, Note_on_c, 4, 78, 53
11, 26910, Note_off_c, 4, 76, 64
11, 27008, Note_off_c, 4, 78, 64
11, 27029, Note_on_c, 4, 79, 76
11, 27052, Note_on_c, 4, 78, 57
11, 27059, Note_off_c, 4, 79, 64
11, 27081, Note_on_c, 4, 79, 66
11, 27091, Note_off_c, 4, 78, 64
11, 27110, Note_on_c, 4, 81, 72
11, 27118, Note_off_c, 4, 79, 64
11, 27146, Note_on_c, 4, 79, 57
11, 27147, Note_off_c, 4, 81, 64
11, 27167, Note_on_c, 4, 81, 68
11, 27170, Note_off_c, 4, 79, 64
11, 27193, Note_off_c, 4, 81, 64
11, 27195, Note_on_c, 4, 79, 60
11, 27212, Note_on_c, 4, 81, 68
11, 27214, Note_off_c, 4, 79, 64
11, 27233, Note_off_c, 4, 81, 64
11, 27235, Note_on_c, 4, 79, 47
11, 27243, Note_off_c, 4, 79, 64
11, 27243, Note_on_c, 4, 81, 66
11, 27261, Note_on_c, 4, 79, 70
11, 27267, Note_off_c, 4, 81, 64
11, 27282, Note_on_c, 4, 78, 64
11, 27286, Note_off_c, 4, 79, 64
11, 27304, Note_on_c, 4, 79, 72
11, 27316, Note_off_c, 4, 78, 64
11, 27345, Note_on_c, 4, 81, 85
11, 27347, Note_off_c, 4, 79, 64
11, 27489, Note_off_c, 4, 81, 64
11, 27535, Note_on_c, 4, 79, 70
11, 27559, Note_on_c, 4, 78, 63
11, 27569, Note_off_c, 4, 79, 64
11, 27590, Note_off_c, 4, 78, 64
11, 27598, Note_on_c, 4, 83, 82
11, 27682, Note_off_c, 4, 83, 64
11, 27779, Note_on_c, 4, 76, 70
11, 27813, Note_off_c, 4, 76, 64
11, 27830, Note_on_c, 4, 81, 87
11, 28160, Note_off_c, 4, 81, 64
11, 28249, Note_on_c, 4, 74, 78
11, 28278, Note_off_c, 4, 74, 64
11, 28305, Note_on_c, 4, 74, 82
11, 28433, Note_on_c, 4, 73, 52
11, 28442, Note_off_c, 4, 74, 64
11, 28668, Note_off_c, 4, 73, 64
11, 28724, Note_on_c, 4, 79, 70
11, 28759, Note_off_c, 4, 79, 64
11, 28798, Note_on_c, 4, 79, 82
11, 28821, Note_on_c, 4, 78, 85
11, 28826, Note_off_c, 4, 79, 64
11, 28842, Note_on_c, 4, 79, 66
11, 28851, Note_off_c, 4, 78, 64
11, 28868, Note_on_c, 4, 78, 57
11, 28884, Note_off_c, 4, 79, 64
11, 28924, Note_off_c, 4, 78, 64
11, 28974, Note_on_c, 4, 76, 72
11, 28997, Note_on_c, 4, 74, 80
11, 29006, Note_off_c, 4, 76, 64
11, 29033, Note_off_c, 4, 74, 64
11, 29033, Note_on_c, 4, 76, 70
11, 29126, Note_off_c, 4, 76, 64
11, 29206, Note_on_c, 4, 71, 76
11, 29244, Note_off_c, 4, 71, 64
11, 29267, Note_on_c, 4, 74, 72
11, 29346, Note_on_c, 4, 73, 52
11, 29353, Note_off_c, 4, 74, 64
11, 29379, Note_on_c, 4, 74, 64
11, 29384, Note_off_c, 4, 73, 64
11, 29414, Note_on_c, 4, 73, 57
11, 29416, Note_off_c, 4, 74, 64
11, 29434, Note_on_c, 4, 74, 64
11, 29435, Note_off_c, 4, 73, 64
11, 29457, Note_on_c, 4, 73, 58
11, 29459, Note_off_c, 4, 74, 64
11, 29476, Note_on_c, 4, 74, 70
11, 29478, Note_off_c, 4, 73, 64
11, 29498, Note_on_c, 4, 73, 70
11, 29504, Note_off_c, 4, 74, 64
11, 29630, Note_off_c, 4, 73, 64
11, 29699, Note_on_c, 4, 74, 82
11, 29729, Note_off_c, 4, 74, 64
11, 29752, Note_on_c, 4, 74, 80
11, 29900, Note_off_c, 4, 74, 64
11, 29936, Note_on_c, 4, 62, 60
11, 29967, Note_on_c, 4, 64, 66
11, 29978, Note_off_c, 4, 62, 64
11, 29995, Note_on_c, 4, 66, 57
11, 29997, Note_off_c, 4, 64, 64
11, 30024, Note_on_c, 4, 64, 64
11, 30025, Note_off_c, 4, 66, 64
11, 30048, Note_on_c, 4, 66, 64
11, 30049, Note_off_c, 4, 64, 64
11, 30070, Note_off_c, 4, 66, 64
11, 30070, Note_on_c, 4, 64, 62
11, 30091, Note_on_c, 4, 66, 72
11, 30095, Note_off_c, 4, 64, 64
11, 30109, Note_off_c, 4, 66, 64
11, 30111, Note_on_c, 4, 64, 32
11, 30127, Note_on_c, 4, 66, 66
11, 30128, Note_off_c, 4, 64, 64
11, 30142, Note_on_c, 4, 64, 57
11, 30159, Note_off_c, 4, 66, 64
11, 30173, Note_off_c, 4, 64, 64
11, 30174, Note_on_c, 4, 62, 72
11, 30198, Note_on_c, 4, 64, 63
11, 30211, Note_off_c, 4, 62, 64
11, 30228, Note_on_c, 4, 66, 72
11, 30236, Note_off_c, 4, 64, 64
11, 30354, Note_off_c, 4, 66, 64
11, 30396, Note_on_c, 4, 64, 62
11, 30426, Note_on_c, 4, 62, 68
11, 30432, Note_off_c, 4, 64, 64
11, 30464, Note_off_c, 4, 62, 64
11, 30467, Note_on_c, 4, 71, 85
11, 30565, Note_off_c, 4, 71, 64
11, 30655, Note_on_c, 4, 73, 70
11, 30690, Note_off_c, 4, 73, 64
11, 30711, Note_on_c, 4, 69, 80
11, 30826, Note_on_c, 4, 68, 53
11, 30832, Note_off_c, 4, 69, 64
11, 31040, Note_off_c, 4, 68, 64
11, 31141, Note_on_c, 4, 69, 78
11, 31185, Note_off_c, 4, 69, 64
11, 31189, Note_on_c, 4, 71, 85
11, 31296, Note_off_c, 4, 71, 64
11, 31386, Note_on_c, 4, 73, 63
11, 31428, Note_off_c, 4, 73, 64
11, 31433, Note_on_c, 4, 74, 82
11, 31534, Note_off_c, 4, 74, 64
11, 31624, Note_on_c, 4, 73, 51
11, 31645, Note_on_c, 4, 71, 82
11, 31656, Note_off_c, 4, 73, 64
11, 31684, Note_on_c, 4, 73, 87
11, 31691, Note_off_c, 4, 71, 64
11, 31795, Note_off_c, 4, 73, 64
11, 31859, Note_on_c, 4, 73, 53
11, 31882, Note_on_c, 4, 74, 85
11, 31892, Note_off_c, 4, 73, 64
11, 31919, Note_on_c, 4, 76, 85
11, 31923, Note_off_c, 4, 74, 64
11, 31996, Note_off_c, 4, 76, 64
11, 32092, Note_on_c, 4, 78, 60
11, 32113, Note_on_c, 4, 79, 80
11, 32125, Note_off_c, 4, 78, 64
11, 32149, Note_off_c, 4, 79, 64
11, 32155, Note_on_c, 4, 81, 70
11, 32519, Note_off_c, 4, 81, 64
11, 32582, Note_on_c, 4, 81, 80
11, 32613, Note_off_c, 4, 81, 64
11, 32635, Note_on_c, 4, 81, 82
11, 32767, Note_off_c, 4, 81, 64
11, 32827, Note_on_c, 4, 78, 57
11, 32847, Note_on_c, 4, 79, 78
11, 32859, Note_off_c, 4, 78, 64
11, 32879, Note_off_c, 4, 79, 64
11, 32885, Note_on_c, 4, 81, 76
11, 32994, Note_off_c, 4, 81, 64
11, 33058, Note_on_c, 4, 79, 68
11, 33082, Note_on_c, 4, 78, 59
11, 33094, Note_off_c, 4, 79, 64
11, 33116, Note_off_c, 4, 78, 64
11, 33119, Note_on_c, 4, 83, 87
11, 33220, Note_off_c, 4, 83, 64
11, 33286, Note_on_c, 4, 81, 66
11, 33316, Note_off_c, 4, 81, 64
11, 33346, Note_on_c, 4, 81, 64
11, 33367, Note_on_c, 4, 79, 80
11, 33373, Note_off_c, 4, 81, 64
11, 33394, Note_on_c, 4, 81, 59
11, 33397, Note_off_c, 4, 79, 64
11, 33417, Note_on_c, 4, 79, 82
11, 33423, Note_off_c, 4, 81, 64
11, 33472, Note_off_c, 4, 79, 64
11, 33546, Note_on_c, 4, 78, 64
11, 33576, Note_off_c, 4, 78, 64
11, 33602, Note_on_c, 4, 78, 82
11, 33722, Note_on_c, 4, 79, 58
11, 33735, Note_off_c, 4, 78, 64
11, 34196, Note_off_c, 4, 79, 64
11, 34256, Note_on_c, 4, 69, 70
11, 34276, Note_on_c, 4, 71, 76
11, 34292, Note_off_c, 4, 69, 64
11, 34304, Note_off_c, 4, 71, 64
11, 34318, Note_on_c, 4, 73, 76
11, 34408, Note_off_c, 4, 73, 64
11, 34488, Note_on_c, 4, 74, 70
11, 34511, Note_on_c, 4, 76, 78
11, 34525, Note_off_c, 4, 74, 64
11, 34544, Note_off_c, 4, 76, 64
11, 34551, Note_on_c, 4, 78, 66
11, 35137, Note_off_c, 4, 78, 64
11, 35215, Note_on_c, 4, 71, 66
11, 35235, Note_on_c, 4, 73, 63
11, 35253, Note_off_c, 4, 71, 64
11, 35267, Note_off_c, 4, 73, 64
11, 35278, Note_on_c, 4, 74, 85
11, 35373, Note_off_c, 4, 74, 64
11, 35447, Note_on_c, 4, 73, 57
11, 35472, Note_on_c, 4, 71, 72
11, 35485, Note_off_c, 4, 73, 64
11, 35513, Note_on_c, 4, 76, 62
11, 35514, Note_off_c, 4, 71, 64
11, 35540, Note_on_c, 4, 74, 74
11, 35546, Note_off_c, 4, 76, 64
11, 35572, Note_on_c, 4, 76, 68
11, 35578, Note_off_c, 4, 74, 64
11, 36110, Note_off_c, 4, 76, 64
11, 36164, Note_on_c, 4, 78, 57
11, 36184, Note_on_c, 4, 79, 78
11, 36197, Note_off_c, 4, 78, 64
11, 36219, Note_off_c, 4, 79, 64
11, 36229, Note_on_c, 4, 73, 80
11, 36310, Note_off_c, 4, 73, 64
11, 36403, Note_on_c, 4, 74, 60
11, 36423, Note_on_c, 4, 76, 80
11, 36433, Note_off_c, 4, 74, 64
11, 36464, Note_off_c, 4, 76, 64
11, 36465, Note_on_c, 4, 70, 70
11, 36573, Note_off_c, 4, 70, 64
11, 36643, Note_on_c, 4, 76, 74
11, 36669, Note_on_c, 4, 78, 60
11, 36681, Note_off_c, 4, 76, 64
11, 36703, Note_on_c, 4, 79, 85
11, 36706, Note_off_c, 4, 78, 64
11, 36790, Note_off_c, 4, 79, 64
11, 36880, Note_on_c, 4, 78, 58
11, 36905, Note_on_c, 4, 76, 68
11, 36911, Note_off_c, 4, 78, 64
11, 36942, Note_off_c, 4, 76, 64
11, 36945, Note_on_c, 4, 85, 78
11, 37036, Note_off_c, 4, 85, 64
11, 37142, Note_on_c, 4, 76, 72
11, 37176, Note_off_c, 4, 76, 64
11, 37188, Note_on_c, 4, 78, 78
11, 37284, Note_off_c, 4, 78, 64
11, 37375, Note_on_c, 4, 73, 63
11, 37407, Note_off_c, 4, 73, 64
11, 37431, Note_on_c, 4, 73, 78
11, 37546, Note_on_c, 4, 74, 68
11, 37553, Note_off_c, 4, 73, 64
11, 37804, Note_off_c, 4, 74, 64
11, 37838, Note_on_c, 4, 76, 62
11, 37863, Note_on_c, 4, 73, 57
11, 37877, Note_off_c, 4, 76, 64
11, 37894, Note_on_c, 4, 74, 68
11, 37909, Note_off_c, 4, 73, 64
11, 37926, Note_on_c, 4, 76, 68
11, 37935, Note_off_c, 4, 74, 64
11, 37974, Note_on_c, 4, 74, 66
11, 37983, Note_off_c, 4, 76, 64
11, 38009, Note_on_c, 4, 76, 66
11, 38012, Note_off_c, 4, 74, 64
11, 38039, Note_on_c, 4, 74, 64
11, 38043, Note_off_c, 4, 76, 64
11, 38063, Note_off_c, 4, 74, 64
11, 38066, Note_on_c, 4, 76, 66
11, 38085, Note_on_c, 4, 74, 78
11, 38088, Note_off_c, 4, 76, 64
11, 38110, Note_off_c, 4, 74, 64
11, 38110, Note_on_c, 4, 76, 70
11, 38127, Note_on_c, 4, 74, 74
11, 38133, Note_off_c, 4, 76, 64
11, 38143, Note_on_c, 4, 76, 59
11, 38149, Note_off_c, 4, 74, 64
11, 38162, Note_on_c, 4, 74, 78
11, 38174, Note_off_c, 4, 76, 64
11, 38294, Note_off_c, 4, 74, 64
11, 38339, Note_on_c, 4, 73, 64
11, 38376, Note_off_c, 4, 73, 64
11, 38403, Note_on_c, 4, 73, 74
11, 39111, Note_off_c, 4, 73, 64
11, 81090, Note_on_c, 4, 74, 70
11, 81689, Note_off_c, 4, 74, 64
11, 81712, Note_on_c, 4, 80, 64
11, 81818, Note_off_c, 4, 80, 64
11, 81833, Note_on_c, 4, 83, 66
11, 81935, Note_off_c, 4, 83, 64
11, 81942, Note_on_c, 4, 80, 58
11, 82024, Note_off_c, 4, 80, 64
11, 82066, Note_on_c, 4, 74, 70
11, 82179, Note_on_c, 4, 80, 66
11, 82205, Note_off_c, 4, 74, 64
11, 82287, Note_off_c, 4, 80, 64
11, 82296, Note_on_c, 4, 83, 74
11, 82404, Note_on_c, 4, 80, 54
11, 82429, Note_off_c, 4, 83, 64
11, 82488, Note_off_c, 4, 80, 64
11, 82530, Note_on_c, 4, 73, 66
11, 82634, Note_off_c, 4, 73, 64
11, 82641, Note_on_c, 4, 74, 60
11, 82763, Note_on_c, 4, 73, 49
11, 82782, Note_off_c, 4, 74, 64
11, 82860, Note_on_c, 4, 71, 64
11, 82869, Note_off_c, 4, 73, 64
11, 82940, Note_off_c, 4, 71, 64
11, 82989, Note_on_c, 4, 69, 64
11, 83113, Note_on_c, 4, 71, 58
11, 83122, Note_off_c, 4, 69, 64
11, 83170, Note_off_c, 4, 71, 64
11, 83250, Note_on_c, 4, 73, 58
11, 83527, Note_off_c, 4, 73, 64
11, 83615, Note_on_c, 4, 78, 61
11, 83719, Note_off_c, 4, 78, 64
11, 83727, Note_on_c, 4, 81, 72
11, 83837, Note_off_c, 4, 81, 64
11, 83853, Note_on_c, 4, 78, 53
11, 83938, Note_off_c, 4, 78, 64
11, 83972, Note_on_c, 4, 73, 63
11, 84082, Note_on_c, 4, 78, 59
11, 84089, Note_off_c, 4, 73, 64
11, 84204, Note_off_c, 4, 78, 64
11, 84208, Note_on_c, 4, 81, 78
11, 84310, Note_on_c, 4, 78, 55
11, 84317, Note_off_c, 4, 81, 64
11, 84388, Note_off_c, 4, 78, 64
11, 84447, Note_on_c, 4, 71, 82
11, 84551, Note_on_c, 4, 73, 60
11, 84576, Note_off_c, 4, 71, 64
11, 84670, Note_on_c, 4, 71, 60
11, 84686, Note_off_c, 4, 73, 64
11, 84779, Note_off_c, 4, 71, 64
11, 84782, Note_on_c, 4, 69, 57
11, 84892, Note_off_c, 4, 69, 64
11, 84914, Note_on_c, 4, 68, 51
11, 85007, Note_off_c, 4, 68, 64
11, 85029, Note_on_c, 4, 69, 58
11, 85109, Note_off_c, 4, 69, 64
11, 85169, Note_on_c, 4, 71, 70
11, 85478, Note_off_c, 4, 71, 64
11, 85539, Note_on_c, 4, 77, 70
11, 85647, Note_off_c, 4, 77, 64
11, 85667, Note_on_c, 4, 80, 62
11, 85775, Note_on_c, 4, 77, 64
11, 85789, Note_off_c, 4, 80, 64
11, 85866, Note_off_c, 4, 77, 64
11, 85900, Note_on_c, 4, 71, 70
11, 86013, Note_on_c, 4, 77, 64
11, 86023, Note_off_c, 4, 71, 64
11, 86123, Note_off_c, 4, 77, 64
11, 86148, Note_on_c, 4, 80, 58
11, 86271, Note_on_c, 4, 77, 64
11, 86299, Note_off_c, 4, 80, 64
11, 86351, Note_off_c, 4, 77, 64
11, 86384, Note_on_c, 4, 69, 64
11, 86479, Note_on_c, 4, 68, 57
11, 86488, Note_off_c, 4, 69, 64
11, 86603, Note_off_c, 4, 68, 64
11, 86603, Note_on_c, 4, 66, 28
11, 86730, Note_on_c, 4, 68, 59
11, 86747, Note_off_c, 4, 66, 64
11, 86825, Note_off_c, 4, 68, 64
11, 86856, Note_on_c, 4, 69, 68
11, 86969, Note_on_c, 4, 71, 63
11, 86982, Note_off_c, 4, 69, 64
11, 87086, Note_off_c, 4, 71, 64
11, 87099, Note_on_c, 4, 73, 48
11, 87194, Note_off_c, 4, 73, 64
11, 87208, Note_on_c, 4, 69, 63
11, 87285, Note_off_c, 4, 69, 64
11, 87334, Note_on_c, 4, 74, 78
11, 87447, Note_on_c, 4, 69, 61
11, 87453, Note_off_c, 4, 74, 64
11, 87555, Note_off_c, 4, 69, 64
11, 87586, Note_on_c, 4, 68, 45
11, 87682, Note_on_c, 4, 66, 52
11, 87690, Note_off_c, 4, 68, 64
11, 87803, Note_off_c, 4, 66, 64
11, 87817, Note_on_c, 4, 68, 59
11, 87910, Note_off_c, 4, 68, 64
11, 87932, Note_on_c, 4, 74, 68
11, 88042, Note_off_c, 4, 74, 64
11, 88045, Note_on_c, 4, 73, 52
11, 88155, Note_on_c, 4, 71, 51
11, 88166, Note_off_c, 4, 73, 64
11, 88231, Note_off_c, 4, 71, 64
11, 88284, Note_on_c, 4, 73, 78
11, 88388, Note_on_c, 4, 71, 54
11, 88419, Note_off_c, 4, 73, 64
11, 88507, Note_off_c, 4, 71, 64
11, 88521, Note_on_c, 4, 69, 60
11, 88624, Note_off_c, 4, 69, 64
11, 88644, Note_on_c, 4, 71, 52
11, 88780, Note_on_c, 4, 73, 53
11, 88788, Note_off_c, 4, 71, 64
11, 88892, Note_on_c, 4, 78, 62
11, 88894, Note_off_c, 4, 73, 64
11, 89007, Note_off_c, 4, 78, 64
11, 89012, Note_on_c, 4, 77, 64
11, 89112, Note_on_c, 4, 78, 59
11, 89118, Note_off_c, 4, 77, 64
11, 89213, Note_off_c, 4, 78, 64
11, 89246, Note_on_c, 4, 80, 78
11, 89353, Note_on_c, 4, 78, 46
11, 89399, Note_off_c, 4, 80, 64
11, 89479, Note_off_c, 4, 78, 64
11, 89485, Note_on_c, 4, 77, 58
11, 89592, Note_on_c, 4, 75, 63
11, 89598, Note_off_c, 4, 77, 64
11, 89717, Note_off_c, 4, 75, 64
11, 89725, Note_on_c, 4, 73, 44
11, 89820, Note_off_c, 4, 73, 64
11, 89826, Note_on_c, 4, 71, 60
11, 89946, Note_on_c, 4, 69, 53
11, 89961, Note_off_c, 4, 71, 64
11, 90079, Note_on_c, 4, 68, 52
11, 90080, Note_off_c, 4, 69, 64
11, 90163, Note_off_c, 4, 68, 64
11, 90203, Note_on_c, 4, 69, 66
11, 90313, Note_on_c, 4, 71, 60
11, 90318, Note_off_c, 4, 69, 64
11, 90440, Note_off_c, 4, 71, 64
11, 90444, Note_on_c, 4, 69, 59
11, 90557, Note_on_c, 4, 68, 53
11, 90563, Note_off_c, 4, 69, 64
11, 90665, Note_off_c, 4, 68, 64
11, 90688, Note_on_c, 4, 66, 63
11, 90803, Note_off_c, 4, 66, 64
11, 90812, Note_on_c, 4, 68, 57
11, 90889, Note_off_c, 4, 68, 64
11, 90913, Note_on_c, 4, 69, 59
11, 91046, Note_on_c, 4, 71, 57
11, 91060, Note_off_c, 4, 69, 64
11, 91115, Note_off_c, 4, 71, 64
11, 91175, Note_on_c, 4, 73, 66
11, 91278, Note_on_c, 4, 69, 57
11, 91285, Note_off_c, 4, 73, 64
11, 91367, Note_off_c, 4, 69, 64
11, 91416, Note_on_c, 4, 74, 66
11, 91524, Note_on_c, 4, 69, 61
11, 91526, Note_off_c, 4, 74, 64
11, 91620, Note_off_c, 4, 69, 64
11, 91661, Note_on_c, 4, 76, 64
11, 91746, Note_off_c, 4, 76, 64
11, 91759, Note_on_c, 4, 69, 52
11, 91856, Note_off_c, 4, 69, 64
11, 91885, Note_on_c, 4, 78, 70
11, 91980, Note_off_c, 4, 78, 64
11, 91996, Note_on_c, 4, 69, 63
11, 92065, Note_off_c, 4, 69, 64
11, 92120, Note_on_c, 4, 67, 68
11, 92252, Note_on_c, 4, 69, 58
11, 92259, Note_off_c, 4, 67, 64
11, 92356, Note_off_c, 4, 69, 64
11, 92363, Note_on_c, 4, 67, 56
11, 92495, Note_on_c, 4, 66, 44
11, 92496, Note_off_c, 4, 67, 64
11, 92606, Note_off_c, 4, 66, 64
11, 92627, Note_on_c, 4, 64, 63
11, 92742, Note_off_c, 4, 64, 64
11, 92745, Note_on_c, 4, 66, 60
11, 92843, Note_off_c, 4, 66, 64
11, 92852, Note_on_c, 4, 67, 59
11, 92968, Note_on_c, 4, 69, 57
11, 92985, Note_off_c, 4, 67, 64
11, 93038, Note_off_c, 4, 69, 64
11, 93105, Note_on_c, 4, 71, 72
11, 93207, Note_off_c, 4, 71, 64
11, 93216, Note_on_c, 4, 67, 61
11, 93313, Note_off_c, 4, 67, 64
11, 93350, Note_on_c, 4, 73, 57
11, 93445, Note_on_c, 4, 67, 64
11, 93446, Note_off_c, 4, 73, 64
11, 93556, Note_off_c, 4, 67, 64
11, 93583, Note_on_c, 4, 74, 68
11, 93691, Note_off_c, 4, 74, 64
11, 93694, Note_on_c, 4, 67, 66
11, 93804, Note_off_c, 4, 67, 64
11, 93818, Note_on_c, 4, 76, 68
11, 93911, Note_off_c, 4, 76, 64
11, 93931, Note_on_c, 4, 67, 60
11, 94010, Note_off_c, 4, 67, 64
11, 94054, Note_on_c, 4, 66, 87
11, 94165, Note_on_c, 4, 67, 66
11, 94170, Note_off_c, 4, 66, 64
11, 94274, Note_off_c, 4, 67, 64
11, 94280, Note_on_c, 4, 66, 48
11, 94382, Note_off_c, 4, 66, 64
11, 94409, Note_on_c, 4, 64, 48
11, 94515, Note_off_c, 4, 64, 64
11, 94555, Note_on_c, 4, 62, 63
11, 94657, Note_off_c, 4, 62, 64
11, 94805, Note_on_c, 4, 81, 70
11, 94870, Note_off_c, 4, 81, 64
11, 95035, Note_on_c, 4, 83, 80
11, 95132, Note_off_c, 4, 83, 64
11, 95267, Note_on_c, 4, 81, 68
11, 95646, Note_off_c, 4, 81, 64
11, 95748, Note_on_c, 4, 79, 76
11, 95876, Note_off_c, 4, 79, 64
11, 95985, Note_on_c, 4, 81, 68
11, 96093, Note_off_c, 4, 81, 64
11, 96099, Note_on_c, 4, 79, 66
11, 96213, Note_on_c, 4, 78, 60
11, 96221, Note_off_c, 4, 79, 64
11, 96310, Note_off_c, 4, 78, 64
11, 96328, Note_on_c, 4, 79, 66
11, 96414, Note_off_c, 4, 79, 64
11, 96456, Note_on_c, 4, 81, 68
11, 96549, Note_off_c, 4, 81, 64
11, 96684, Note_on_c, 4, 74, 70
11, 96781, Note_off_c, 4, 74, 64
11, 96930, Note_on_c, 4, 79, 82
11, 97021, Note_off_c, 4, 79, 64
11, 97178, Note_on_c, 4, 78, 85
11, 97576, Note_off_c, 4, 78, 64
11, 97665, Note_on_c, 4, 76, 70
11, 97809, Note_off_c, 4, 76, 64
11, 97915, Note_on_c, 4, 78, 85
11, 98024, Note_on_c, 4, 79, 59
11, 98035, Note_off_c, 4, 78, 64
11, 98125, Note_on_c, 4, 78, 49
11, 98134, Note_off_c, 4, 79, 64
11, 98243, Note_off_c, 4, 78, 64
11, 98252, Note_on_c, 4, 76, 54
11, 98346, Note_off_c, 4, 76, 64
11, 98362, Note_on_c, 4, 74, 60
11, 98760, Note_off_c, 4, 74, 64
11, 98843, Note_on_c, 4, 76, 63
11, 98929, Note_on_c, 4, 74, 53
11, 98947, Note_off_c, 4, 76, 64
11, 98997, Note_off_c, 4, 74, 64
11, 99002, Note_on_c, 4, 76, 54
11, 99053, Note_off_c, 4, 76, 64
11, 99057, Note_on_c, 4, 74, 57
11, 99108, Note_off_c, 4, 74, 64
11, 99113, Note_on_c, 4, 76, 58
11, 99164, Note_on_c, 4, 74, 56
11, 99170, Note_off_c, 4, 76, 64
11, 99207, Note_off_c, 4, 74, 64
11, 99217, Note_on_c, 4, 76, 53
11, 99263, Note_on_c, 4, 74, 57
11, 99267, Note_off_c, 4, 76, 64
11, 99301, Note_off_c, 4, 74, 64
11, 99310, Note_on_c, 4, 76, 52
11, 99357, Note_on_c, 4, 74, 59
11, 99360, Note_off_c, 4, 76, 64
11, 99400, Note_off_c, 4, 74, 64
11, 99409, Note_on_c, 4, 76, 55
11, 99453, Note_on_c, 4, 74, 57
11, 99460, Note_off_c, 4, 76, 64
11, 99500, Note_off_c, 4, 74, 64
11, 99507, Note_on_c, 4, 76, 57
11, 99555, Note_on_c, 4, 74, 57
11, 99566, Note_off_c, 4, 76, 64
11, 99602, Note_off_c, 4, 74, 64
11, 99606, Note_on_c, 4, 76, 59
11, 99658, Note_on_c, 4, 74, 59
11, 99666, Note_off_c, 4, 76, 64
11, 99703, Note_off_c, 4, 74, 64
11, 99714, Note_on_c, 4, 76, 57
11, 99755, Note_on_c, 4, 74, 58
11, 99766, Note_off_c, 4, 76, 64
11, 99803, Note_off_c, 4, 74, 64
11, 99808, Note_on_c, 4, 76, 57
11, 99852, Note_on_c, 4, 74, 59
11, 99863, Note_off_c, 4, 76, 64
11, 99898, Note_off_c, 4, 74, 64
11, 99905, Note_on_c, 4, 76, 58
11, 99952, Note_on_c, 4, 74, 59
11, 99965, Note_off_c, 4, 76, 64
11, 99998, Note_off_c, 4, 74, 64
11, 100005, Note_on_c, 4, 76, 57
11, 100047, Note_on_c, 4, 74, 59
11, 100057, Note_off_c, 4, 76, 64
11, 100093, Note_off_c, 4, 74, 64
11, 100100, Note_on_c, 4, 76, 57
11, 100146, Note_on_c, 4, 74, 58
11, 100153, Note_off_c, 4, 76, 64
11, 100190, Note_off_c, 4, 74, 64
11, 100199, Note_on_c, 4, 76, 57
11, 100242, Note_on_c, 4, 74, 58
11, 100248, Note_off_c, 4, 76, 64
11, 100279, Note_off_c, 4, 74, 64
11, 100288, Note_on_c, 4, 76, 57
11, 100336, Note_on_c, 4, 74, 60
11, 100341, Note_off_c, 4, 76, 64
11, 100379, Note_off_c, 4, 74, 64
11, 100385, Note_on_c, 4, 76, 58
11, 100438, Note_on_c, 4, 74, 57
11, 100443, Note_off_c, 4, 76, 64
11, 100476, Note_off_c, 4, 74, 64
11, 100487, Note_on_c, 4, 76, 57
11, 100532, Note_on_c, 4, 74, 58
11, 100534, Note_off_c, 4, 76, 64
11, 100569, Note_off_c, 4, 74, 64
11, 100584, Note_on_c, 4, 76, 54
11, 100626, Note_on_c, 4, 74, 58
11, 100630, Note_off_c, 4, 76, 64
11, 100667, Note_off_c, 4, 74, 64
11, 100678, Note_on_c, 4, 76, 57
11, 100724, Note_on_c, 4, 74, 58
11, 100729, Note_off_c, 4, 76, 64
11, 100768, Note_off_c, 4, 74, 64
11, 100781, Note_on_c, 4, 76, 55
11, 100823, Note_on_c, 4, 74, 57
11, 100830, Note_off_c, 4, 76, 64
11, 100864, Note_off_c, 4, 74, 64
11, 100879, Note_on_c, 4, 76, 58
11, 100925, Note_on_c, 4, 74, 57
11, 100934, Note_off_c, 4, 76, 64
11, 100963, Note_off_c, 4, 74, 64
11, 100976, Note_on_c, 4, 76, 56
11, 101023, Note_on_c, 4, 74, 59
11, 101032, Note_off_c, 4, 76, 64
11, 101065, Note_off_c, 4, 74, 64
11, 101074, Note_on_c, 4, 76, 57
11, 101123, Note_on_c, 4, 74, 58
11, 101133, Note_off_c, 4, 76, 64
11, 101165, Note_off_c, 4, 74, 64
11, 101175, Note_on_c, 4, 76, 53
11, 101215, Note_on_c, 4, 74, 58
11, 101216, Note_off_c, 4, 76, 64
11, 101262, Note_off_c, 4, 74, 64
11, 101266, Note_on_c, 4, 76, 58
11, 101311, Note_off_c, 4, 76, 64
11, 101311, Note_on_c, 4, 74, 58
11, 101351, Note_off_c, 4, 74, 64
11, 101359, Note_on_c, 4, 76, 57
11, 101408, Note_on_c, 4, 74, 58
11, 101410, Note_off_c, 4, 76, 64
11, 101446, Note_off_c, 4, 74, 64
11, 101448, Note_on_c, 4, 76, 58
11, 101499, Note_off_c, 4, 76, 64
11, 101499, Note_on_c, 4, 74, 57
11, 101543, Note_off_c, 4, 74, 64
11, 101543, Note_on_c, 4, 76, 57
11, 101589, Note_on_c, 4, 74, 59
11, 101592, Note_off_c, 4, 76, 64
11, 101638, Note_on_c, 4, 76, 58
11, 101645, Note_off_c, 4, 74, 64
11, 101685, Note_on_c, 4, 74, 63
11, 101697, Note_off_c, 4, 76, 64
11, 101922, Note_off_c, 4, 74, 64
11, 102006, Note_on_c, 4, 62, 72
11, 102087, Note_on_c, 4, 64, 53
11, 102129, Note_off_c, 4, 62, 64
11, 102223, Note_on_c, 4, 66, 57
11, 102232, Note_off_c, 4, 64, 64
11, 102325, Note_off_c, 4, 66, 64
11, 102344, Note_on_c, 4, 67, 66
11, 102448, Note_off_c, 4, 67, 64
11, 102457, Note_on_c, 4, 69, 57
11, 102566, Note_on_c, 4, 71, 64
11, 102574, Note_off_c, 4, 69, 64
11, 102645, Note_off_c, 4, 71, 64
11, 102698, Note_on_c, 4, 72, 82
11, 102816, Note_on_c, 4, 74, 61
11, 102827, Note_off_c, 4, 72, 64
11, 102927, Note_off_c, 4, 74, 64
11, 102938, Note_on_c, 4, 72, 57
11, 103046, Note_off_c, 4, 72, 64
11, 103046, Note_on_c, 4, 71, 47
11, 103159, Note_off_c, 4, 71, 64
11, 103175, Note_on_c, 4, 69, 60
11, 103278, Note_off_c, 4, 69, 64
11, 103294, Note_on_c, 4, 74, 60
11, 103409, Note_off_c, 4, 74, 64
11, 103410, Note_on_c, 4, 72, 60
11, 103529, Note_on_c, 4, 74, 59
11, 103540, Note_off_c, 4, 72, 64
11, 103617, Note_off_c, 4, 74, 64
11, 103650, Note_on_c, 4, 71, 66
11, 103752, Note_off_c, 4, 71, 64
11, 103756, Note_on_c, 4, 72, 60
11, 103878, Note_off_c, 4, 72, 64
11, 103885, Note_on_c, 4, 71, 58
11, 103998, Note_off_c, 4, 71, 64
11, 103998, Note_on_c, 4, 69, 57
11, 104080, Note_off_c, 4, 69, 64
11, 104120, Note_on_c, 4, 67, 78
11, 104233, Note_on_c, 4, 69, 68
11, 104243, Note_off_c, 4, 67, 64
11, 104359, Note_on_c, 4, 71, 55
11, 104372, Note_off_c, 4, 69, 64
11, 104491, Note_on_c, 4, 73, 52
11, 104503, Note_off_c, 4, 71, 64
11, 104560, Note_off_c, 4, 73, 64
11, 104624, Note_on_c, 4, 74, 85
11, 104744, Note_on_c, 4, 76, 58
11, 104750, Note_off_c, 4, 74, 64
11, 104846, Note_off_c, 4, 76, 64
11, 104854, Note_on_c, 4, 74, 57
11, 104972, Note_on_c, 4, 73, 49
11, 104979, Note_off_c, 4, 74, 64
11, 105092, Note_off_c, 4, 73, 64
11, 105100, Note_on_c, 4, 71, 64
11, 105209, Note_off_c, 4, 71, 64
11, 105218, Note_on_c, 4, 76, 60
11, 105332, Note_off_c, 4, 76, 64
11, 105333, Note_on_c, 4, 74, 58
11, 105455, Note_on_c, 4, 76, 57
11, 105456, Note_off_c, 4, 74, 64
11, 105534, Note_off_c, 4, 76, 64
11, 105581, Note_on_c, 4, 73, 66
11, 105689, Note_on_c, 4, 71, 57
11, 105702, Note_off_c, 4, 73, 64
11, 105813, Note_off_c, 4, 71, 64
11, 105826, Note_on_c, 4, 69, 56
11, 105935, Note_on_c, 4, 71, 57
11, 105944, Note_off_c, 4, 69, 64
11, 106062, Note_off_c, 4, 71, 64
11, 106065, Note_on_c, 4, 73, 57
11, 106167, Note_off_c, 4, 73, 64
11, 106172, Note_on_c, 4, 74, 70
11, 106267, Note_off_c, 4, 74, 64
11, 106289, Note_on_c, 4, 76, 53
11, 106395, Note_on_c, 4, 78, 57
11, 106408, Note_off_c, 4, 76, 64
11, 106475, Note_off_c, 4, 78, 64
11, 106530, Note_on_c, 4, 79, 82
11, 106645, Note_on_c, 4, 81, 57
11, 106650, Note_off_c, 4, 79, 64
11, 106760, Note_off_c, 4, 81, 64
11, 106776, Note_on_c, 4, 79, 51
11, 106876, Note_on_c, 4, 78, 47
11, 106884, Note_off_c, 4, 79, 64
11, 106984, Note_off_c, 4, 78, 64
11, 107008, Note_on_c, 4, 76, 68
11, 107121, Note_on_c, 4, 81, 60
11, 107122, Note_off_c, 4, 76, 64
11, 107238, Note_off_c, 4, 81, 64
11, 107250, Note_on_c, 4, 79, 60
11, 107365, Note_on_c, 4, 81, 56
11, 107367, Note_off_c, 4, 79, 64
11, 107460, Note_off_c, 4, 81, 64
11, 107498, Note_on_c, 4, 78, 80
11, 107607, Note_on_c, 4, 79, 54
11, 107617, Note_off_c, 4, 78, 64
11, 107726, Note_off_c, 4, 79, 64
11, 107735, Note_on_c, 4, 78, 46
11, 107852, Note_on_c, 4, 76, 57
11, 107875, Note_off_c, 4, 78, 64
11, 107932, Note_off_c, 4, 76, 64
11, 107973, Note_on_c, 4, 74, 76
11, 108084, Note_on_c, 4, 76, 66
11, 108093, Note_off_c, 4, 74, 64
11, 108201, Note_on_c, 4, 78, 55
11, 108206, Note_off_c, 4, 76, 64
11, 108314, Note_on_c, 4, 79, 70
11, 108339, Note_off_c, 4, 78, 64
11, 108421, Note_off_c, 4, 79, 64
11, 108443, Note_on_c, 4, 81, 80
11, 108525, Note_off_c, 4, 81, 64
11, 108680, Note_on_c, 4, 74, 66
11, 108762, Note_off_c, 4, 74, 64
11, 108941, Note_on_c, 4, 69, 64
11, 109017, Note_off_c, 4, 69, 64
11, 109191, Note_on_c, 4, 73, 64
11, 109297, Note_off_c, 4, 73, 64
11, 109426, Note_on_c, 4, 74, 66
11, 109880, Note_off_c, 4, 74, 64
11, 151438, Note_on_c, 4, 81, 85
11, 151518, Note_off_c, 4, 81, 64
11, 151670, Note_on_c, 4, 83, 85
11, 151757, Note_off_c, 4, 83, 64
11, 151907, Note_on_c, 4, 81, 78
11, 152242, Note_off_c, 4, 81, 64
11, 152385, Note_on_c, 4, 79, 70
11, 152511, Note_off_c, 4, 79, 64
11, 152638, Note_on_c, 4, 81, 85
11, 152741, Note_off_c, 4, 81, 64
11, 152741, Note_on_c, 4, 79, 63
11, 152863, Note_off_c, 4, 79, 64
11, 152863, Note_on_c, 4, 78, 63
11, 152968, Note_on_c, 4, 79, 76
11, 152974, Note_off_c, 4, 78, 64
11, 153063, Note_off_c, 4, 79, 64
11, 153091, Note_on_c, 4, 81, 72
11, 153205, Note_on_c, 4, 83, 63
11, 153217, Note_off_c, 4, 81, 64
11, 153291, Note_off_c, 4, 83, 64
11, 153322, Note_on_c, 4, 79, 66
11, 153435, Note_off_c, 4, 79, 64
11, 153439, Note_on_c, 4, 81, 68
11, 153528, Note_off_c, 4, 81, 64
11, 153570, Note_on_c, 4, 78, 66
11, 153685, Note_off_c, 4, 78, 64
11, 153687, Note_on_c, 4, 83, 70
11, 153802, Note_off_c, 4, 83, 64
11, 153813, Note_on_c, 4, 81, 64
11, 153920, Note_off_c, 4, 81, 64
11, 153922, Note_on_c, 4, 83, 66
11, 154008, Note_off_c, 4, 83, 64
11, 154046, Note_on_c, 4, 80, 74
11, 154151, Note_off_c, 4, 80, 64
11, 154156, Note_on_c, 4, 83, 63
11, 154242, Note_off_c, 4, 83, 64
11, 154282, Note_on_c, 4, 79, 66
11, 154389, Note_off_c, 4, 79, 64
11, 154400, Note_on_c, 4, 83, 70
11, 154482, Note_off_c, 4, 83, 64
11, 154519, Note_on_c, 4, 78, 66
11, 154608, Note_off_c, 4, 78, 64
11, 154623, Note_on_c, 4, 83, 66
11, 154725, Note_off_c, 4, 83, 64
11, 154758, Note_on_c, 4, 81, 70
11, 154871, Note_on_c, 4, 83, 62
11, 154876, Note_off_c, 4, 81, 64
11, 154953, Note_off_c, 4, 83, 64
11, 154993, Note_on_c, 4, 79, 72
11, 155095, Note_off_c, 4, 79, 64
11, 155104, Note_on_c, 4, 83, 66
11, 155185, Note_off_c, 4, 83, 64
11, 155230, Note_on_c, 4, 78, 72
11, 155347, Note_off_c, 4, 78, 64
11, 155351, Note_on_c, 4, 83, 58
11, 155440, Note_off_c, 4, 83, 64
11, 155475, Note_on_c, 4, 76, 76
11, 155586, Note_on_c, 4, 83, 66
11, 155597, Note_off_c, 4, 76, 64
11, 155672, Note_off_c, 4, 83, 64
11, 155719, Note_on_c, 4, 79, 72
11, 155839, Note_off_c, 4, 79, 64
11, 155839, Note_on_c, 4, 83, 59
11, 155912, Note_off_c, 4, 83, 64
11, 155952, Note_on_c, 4, 78, 66
11, 156062, Note_on_c, 4, 83, 70
11, 156064, Note_off_c, 4, 78, 64
11, 156149, Note_off_c, 4, 83, 64
11, 156191, Note_on_c, 4, 76, 72
11, 156298, Note_on_c, 4, 83, 68
11, 156306, Note_off_c, 4, 76, 64
11, 156419, Note_off_c, 4, 83, 64
11, 156447, Note_on_c, 4, 75, 80
11, 156562, Note_on_c, 4, 76, 70
11, 156569, Note_off_c, 4, 75, 64
11, 156688, Note_on_c, 4, 75, 53
11, 156706, Note_off_c, 4, 76, 64
11, 156793, Note_on_c, 4, 73, 53
11, 156806, Note_off_c, 4, 75, 64
11, 156912, Note_off_c, 4, 73, 64
11, 156934, Note_on_c, 4, 71, 58
11, 157050, Note_off_c, 4, 71, 64
11, 157180, Note_on_c, 4, 83, 70
11, 157264, Note_off_c, 4, 83, 64
11, 157428, Note_on_c, 4, 84, 82
11, 157516, Note_off_c, 4, 84, 64
11, 157669, Note_on_c, 4, 83, 80
11, 158030, Note_off_c, 4, 83, 64
11, 158159, Note_on_c, 4, 81, 70
11, 158291, Note_off_c, 4, 81, 64
11, 158398, Note_on_c, 4, 83, 87
11, 158502, Note_on_c, 4, 81, 70
11, 158521, Note_off_c, 4, 83, 64
11, 158610, Note_off_c, 4, 81, 64
11, 158621, Note_on_c, 4, 79, 56
11, 158725, Note_on_c, 4, 81, 66
11, 158740, Note_off_c, 4, 79, 64
11, 158833, Note_off_c, 4, 81, 64
11, 158862, Note_on_c, 4, 83, 70
11, 158969, Note_off_c, 4, 83, 64
11, 159087, Note_on_c, 4, 76, 70
11, 159185, Note_off_c, 4, 76, 64
11, 159334, Note_on_c, 4, 81, 82
11, 159420, Note_off_c, 4, 81, 64
11, 159571, Note_on_c, 4, 79, 80
11, 159923, Note_off_c, 4, 79, 64
11, 160060, Note_on_c, 4, 78, 66
11, 160197, Note_off_c, 4, 78, 64
11, 160312, Note_on_c, 4, 79, 80
11, 160425, Note_off_c, 4, 79, 64
11, 160429, Note_on_c, 4, 78, 64
11, 160531, Note_off_c, 4, 78, 64
11, 160549, Note_on_c, 4, 76, 59
11, 160658, Note_on_c, 4, 78, 58
11, 160666, Note_off_c, 4, 76, 64
11, 160766, Note_off_c, 4, 78, 64
11, 160788, Note_on_c, 4, 79, 60
11, 160883, Note_off_c, 4, 79, 64
11, 161025, Note_on_c, 4, 73, 55
11, 161120, Note_off_c, 4, 73, 64
11, 161268, Note_on_c, 4, 78, 68
11, 161359, Note_off_c, 4, 78, 64
11, 161510, Note_on_c, 4, 76, 64
11, 161853, Note_off_c, 4, 76, 64
11, 161984, Note_on_c, 4, 74, 68
11, 162112, Note_off_c, 4, 74, 64
11, 162238, Note_on_c, 4, 76, 82
11, 162338, Note_on_c, 4, 78, 59
11, 162356, Note_off_c, 4, 76, 64
11, 162450, Note_off_c, 4, 78, 64
11, 162464, Note_on_c, 4, 76, 57
11, 162574, Note_on_c, 4, 74, 59
11, 162583, Note_off_c, 4, 76, 64
11, 162699, Note_off_c, 4, 74, 64
11, 162710, Note_on_c, 4, 73, 57
11, 162816, Note_on_c, 4, 74, 68
11, 162840, Note_off_c, 4, 73, 64
11, 162938, Note_off_c, 4, 74, 64
11, 162946, Note_on_c, 4, 76, 66
11, 163064, Note_off_c, 4, 76, 64
11, 163064, Note_on_c, 4, 73, 56
11, 163161, Note_off_c, 4, 73, 64
11, 163181, Note_on_c, 4, 74, 80
11, 163294, Note_on_c, 4, 71, 66
11, 163303, Note_off_c, 4, 74, 64
11, 163389, Note_off_c, 4, 71, 64
11, 163420, Note_on_c, 4, 79, 80
11, 163533, Note_on_c, 4, 78, 55
11, 163544, Note_off_c, 4, 79, 64
11, 163657, Note_on_c, 4, 76, 55
11, 163672, Note_off_c, 4, 78, 64
11, 163756, Note_off_c, 4, 76, 64
11, 163759, Note_on_c, 4, 74, 60
11, 163878, Note_on_c, 4, 73, 60
11, 163889, Note_off_c, 4, 74, 64
11, 163996, Note_on_c, 4, 71, 64
11, 163998, Note_off_c, 4, 73, 64
11, 164102, Note_off_c, 4, 71, 64
11, 164129, Note_on_c, 4, 78, 57
11, 164658, Note_off_c, 4, 78, 64
11, 164731, Note_on_c, 4, 71, 66
11, 164850, Note_on_c, 4, 70, 39
11, 164863, Note_off_c, 4, 71, 64
11, 164956, Note_off_c, 4, 70, 64
11, 164956, Note_on_c, 4, 68, 57
11, 165071, Note_off_c, 4, 68, 64
11, 165087, Note_on_c, 4, 66, 58
11, 165186, Note_off_c, 4, 66, 64
11, 165202, Note_on_c, 4, 71, 57
11, 165313, Note_on_c, 4, 70, 57
11, 165324, Note_off_c, 4, 71, 64
11, 165426, Note_off_c, 4, 70, 64
11, 165428, Note_on_c, 4, 71, 63
11, 165532, Note_off_c, 4, 71, 64
11, 165565, Note_on_c, 4, 74, 70
11, 165665, Note_on_c, 4, 71, 59
11, 165669, Note_off_c, 4, 74, 64
11, 165784, Note_on_c, 4, 70, 45
11, 165793, Note_off_c, 4, 71, 64
11, 165904, Note_on_c, 4, 71, 59
11, 165913, Note_off_c, 4, 70, 64
11, 166037, Note_off_c, 4, 71, 64
11, 166048, Note_on_c, 4, 73, 58
11, 166156, Note_on_c, 4, 71, 58
11, 166209, Note_off_c, 4, 73, 64
11, 166267, Note_on_c, 4, 70, 50
11, 166278, Note_off_c, 4, 71, 64
11, 166389, Note_on_c, 4, 68, 52
11, 166404, Note_off_c, 4, 70, 64
11, 166513, Note_off_c, 4, 68, 64
11, 166519, Note_on_c, 4, 66, 55
11, 166642, Note_on_c, 4, 71, 68
11, 166654, Note_off_c, 4, 66, 64
11, 166756, Note_on_c, 4, 70, 57
11, 166758, Note_off_c, 4, 71, 64
11, 166873, Note_on_c, 4, 68, 52
11, 166885, Note_off_c, 4, 70, 64
11, 166955, Note_off_c, 4, 68, 64
11, 167002, Note_on_c, 4, 66, 57
11, 167113, Note_off_c, 4, 66, 64
11, 167115, Note_on_c, 4, 73, 58
11, 167236, Note_on_c, 4, 71, 66
11, 167270, Note_off_c, 4, 73, 64
11, 167360, Note_on_c, 4, 73, 60
11, 167374, Note_off_c, 4, 71, 64
11, 167464, Note_off_c, 4, 73, 64
11, 167489, Note_on_c, 4, 76, 76
11, 167595, Note_on_c, 4, 73, 53
11, 167605, Note_off_c, 4, 76, 64
11, 167734, Note_on_c, 4, 71, 51
11, 167739, Note_off_c, 4, 73, 64
11, 167843, Note_on_c, 4, 73, 51
11, 167865, Note_off_c, 4, 71, 64
11, 167927, Note_off_c, 4, 73, 64
11, 167963, Note_on_c, 4, 74, 78
11, 168082, Note_on_c, 4, 76, 59
11, 168084, Note_off_c, 4, 74, 64
11, 168210, Note_on_c, 4, 74, 60
11, 168232, Note_off_c, 4, 76, 64
11, 168316, Note_off_c, 4, 74, 64
11, 168323, Note_on_c, 4, 73, 43
11, 168446, Note_on_c, 4, 71, 64
11, 168461, Note_off_c, 4, 73, 64
11, 168549, Note_off_c, 4, 71, 64
11, 168571, Note_on_c, 4, 76, 63
11, 168700, Note_on_c, 4, 74, 63
11, 168726, Note_off_c, 4, 76, 64
11, 168812, Note_on_c, 4, 73, 53
11, 168819, Note_off_c, 4, 74, 64
11, 168906, Note_off_c, 4, 73, 64
11, 168945, Note_on_c, 4, 71, 62
11, 169051, Note_on_c, 4, 78, 57
11, 169056, Note_off_c, 4, 71, 64
11, 169169, Note_off_c, 4, 78, 64
11, 169171, Note_on_c, 4, 76, 58
11, 169284, Note_on_c, 4, 78, 54
11, 169295, Note_off_c, 4, 76, 64
11, 169384, Note_off_c, 4, 78, 64
11, 169410, Note_on_c, 4, 81, 72
11, 169503, Note_on_c, 4, 78, 51
11, 169510, Note_off_c, 4, 81, 64
11, 169631, Note_off_c, 4, 78, 64
11, 169643, Note_on_c, 4, 76, 42
11, 169773, Note_on_c, 4, 78, 58
11, 169780, Note_off_c, 4, 76, 64
11, 169871, Note_off_c, 4, 78, 64
11, 169897, Note_on_c, 4, 71, 60
11, 170025, Note_on_c, 4, 76, 62
11, 170047, Note_off_c, 4, 71, 64
11, 170163, Note_on_c, 4, 75, 40
11, 170165, Note_off_c, 4, 76, 64
11, 170276, Note_on_c, 4, 76, 60
11, 170285, Note_off_c, 4, 75, 64
11, 170386, Note_off_c, 4, 76, 64
11, 170395, Note_on_c, 4, 79, 72
11, 170524, Note_on_c, 4, 76, 52
11, 170526, Note_off_c, 4, 79, 64
11, 170658, Note_on_c, 4, 75, 45
11, 170659, Note_off_c, 4, 76, 64
11, 170780, Note_on_c, 4, 76, 57
11, 170782, Note_off_c, 4, 75, 64
11, 170889, Note_off_c, 4, 76, 64
11, 170896, Note_on_c, 4, 70, 63
11, 170996, Note_on_c, 4, 76, 64
11, 171019, Note_off_c, 4, 70, 64
11, 171118, Note_on_c, 4, 75, 56
11, 171123, Note_off_c, 4, 76, 64
11, 171227, Note_on_c, 4, 76, 66
11, 171236, Note_off_c, 4, 75, 64
11, 171349, Note_off_c, 4, 76, 64
11, 171350, Note_on_c, 4, 79, 74
11, 171460, Note_on_c, 4, 76, 63
11, 171473, Note_off_c, 4, 79, 64
11, 171585, Note_on_c, 4, 75, 52
11, 171591, Note_off_c, 4, 76, 64
11, 171697, Note_on_c, 4, 76, 60
11, 171700, Note_off_c, 4, 75, 64
11, 171781, Note_off_c, 4, 76, 64
11, 171827, Note_on_c, 4, 69, 63
11, 171925, Note_on_c, 4, 75, 56
11, 171965, Note_off_c, 4, 69, 64
11, 172058, Note_on_c, 4, 73, 35
11, 172062, Note_off_c, 4, 75, 64
11, 172171, Note_on_c, 4, 75, 53
11, 172188, Note_off_c, 4, 73, 64
11, 172279, Note_off_c, 4, 75, 64
11, 172292, Note_on_c, 4, 78, 63
11, 172398, Note_on_c, 4, 75, 54
11, 172436, Note_off_c, 4, 78, 64
11, 172522, Note_off_c, 4, 75, 64
11, 172529, Note_on_c, 4, 73, 43
11, 172640, Note_on_c, 4, 75, 53
11, 172657, Note_off_c, 4, 73, 64
11, 172713, Note_off_c, 4, 75, 64
11, 172779, Note_on_c, 4, 68, 55
11, 172897, Note_on_c, 4, 74, 70
11, 172927, Note_off_c, 4, 68, 64
11, 173022, Note_off_c, 4, 74, 64
11, 173022, Note_on_c, 4, 73, 47
11, 173142, Note_off_c, 4, 73, 64
11, 173144, Note_on_c, 4, 74, 68
11, 173260, Note_off_c, 4, 74, 64
11, 173273, Note_on_c, 4, 78, 64
11, 173373, Note_off_c, 4, 78, 64
11, 173373, Note_on_c, 4, 74, 70
11, 173481, Note_off_c, 4, 74, 64
11, 173497, Note_on_c, 4, 73, 35
11, 173598, Note_off_c, 4, 73, 64
11, 173600, Note_on_c, 4, 74, 59
11, 173685, Note_off_c, 4, 74, 64
11, 173725, Note_on_c, 4, 70, 57
11, 173840, Note_on_c, 4, 73, 52
11, 173871, Note_off_c, 4, 70, 64
11, 173944, Note_on_c, 4, 71, 63
11, 173964, Note_off_c, 4, 73, 64
11, 174076, Note_on_c, 4, 73, 60
11, 174088, Note_off_c, 4, 71, 64
11, 174196, Note_off_c, 4, 73, 64
11, 174202, Note_on_c, 4, 76, 82
11, 174302, Note_on_c, 4, 73, 56
11, 174309, Note_off_c, 4, 76, 64
11, 174435, Note_off_c, 4, 73, 64
11, 174440, Note_on_c, 4, 71, 53
11, 174552, Note_off_c, 4, 71, 64
11, 174563, Note_on_c, 4, 73, 45
11, 174660, Note_off_c, 4, 73, 64
11, 174687, Note_on_c, 4, 66, 57
11, 174818, Note_on_c, 4, 76, 76
11, 174829, Note_off_c, 4, 66, 64
11, 174946, Note_on_c, 4, 74, 70
11, 174977, Note_off_c, 4, 76, 64
11, 175061, Note_on_c, 4, 73, 61
11, 175070, Note_off_c, 4, 74, 64
11, 175157, Note_off_c, 4, 73, 64
11, 175188, Note_on_c, 4, 71, 76
11, 175305, Note_on_c, 4, 73, 57
11, 175320, Note_off_c, 4, 71, 64
11, 175424, Note_on_c, 4, 74, 64
11, 175446, Note_off_c, 4, 73, 64
11, 175537, Note_on_c, 4, 71, 57
11, 175553, Note_off_c, 4, 74, 64
11, 175630, Note_off_c, 4, 71, 64
11, 175668, Note_on_c, 4, 73, 66
11, 175777, Note_on_c, 4, 71, 59
11, 175787, Note_off_c, 4, 73, 64
11, 175887, Note_on_c, 4, 70, 53
11, 175909, Note_off_c, 4, 71, 64
11, 176007, Note_off_c, 4, 70, 64
11, 176015, Note_on_c, 4, 68, 52
11, 176094, Note_off_c, 4, 68, 64
11, 176126, Note_on_c, 4, 66, 57
11, 176204, Note_off_c, 4, 66, 64
11, 176235, Note_on_c, 4, 76, 80
11, 176356, Note_on_c, 4, 74, 63
11, 176395, Note_off_c, 4, 76, 64
11, 176471, Note_off_c, 4, 74, 64
11, 176485, Note_on_c, 4, 73, 53
11, 176589, Note_off_c, 4, 73, 64
11, 176618, Note_on_c, 4, 74, 78
11, 176735, Note_on_c, 4, 69, 60
11, 176759, Note_off_c, 4, 74, 64
11, 176845, Note_off_c, 4, 69, 64
11, 176868, Note_on_c, 4, 67, 52
11, 176979, Note_on_c, 4, 66, 60
11, 176985, Note_off_c, 4, 67, 64
11, 177085, Note_off_c, 4, 66, 64
11, 177094, Note_on_c, 4, 67, 66
11, 177202, Note_off_c, 4, 67, 64
11, 177215, Note_on_c, 4, 74, 78
11, 177330, Note_on_c, 4, 73, 62
11, 177350, Note_off_c, 4, 74, 64
11, 177450, Note_on_c, 4, 71, 70
11, 177459, Note_off_c, 4, 73, 64
11, 177549, Note_off_c, 4, 71, 64
11, 177585, Note_on_c, 4, 73, 61
11, 177693, Note_on_c, 4, 67, 68
11, 177702, Note_off_c, 4, 73, 64
11, 177800, Note_on_c, 4, 66, 58
11, 177817, Note_off_c, 4, 67, 64
11, 177928, Note_on_c, 4, 64, 61
11, 177940, Note_off_c, 4, 66, 64
11, 178039, Note_off_c, 4, 64, 64
11, 178057, Note_on_c, 4, 66, 60
11, 178160, Note_off_c, 4, 66, 64
11, 178167, Note_on_c, 4, 72, 78
11, 178293, Note_on_c, 4, 71, 66
11, 178320, Note_off_c, 4, 72, 64
11, 178413, Note_on_c, 4, 69, 58
11, 178424, Note_off_c, 4, 71, 64
11, 178510, Note_off_c, 4, 69, 64
11, 178541, Note_on_c, 4, 71, 66
11, 178654, Note_on_c, 4, 69, 63
11, 178690, Note_off_c, 4, 71, 64
11, 178776, Note_on_c, 4, 67, 59
11, 178782, Note_off_c, 4, 69, 64
11, 178891, Note_on_c, 4, 69, 68
11, 178898, Note_off_c, 4, 67, 64
11, 178984, Note_off_c, 4, 69, 64
11, 179006, Note_on_c, 4, 71, 74
11, 179130, Note_off_c, 4, 71, 64
11, 179134, Note_on_c, 4, 73, 47
11, 179247, Note_on_c, 4, 75, 60
11, 179270, Note_off_c, 4, 73, 64
11, 179368, Note_on_c, 4, 76, 66
11, 179389, Note_off_c, 4, 75, 64
11, 179471, Note_off_c, 4, 76, 64
11, 179489, Note_on_c, 4, 78, 76
11, 179581, Note_off_c, 4, 78, 64
11, 179601, Note_on_c, 4, 75, 38
11, 179617, Note_on_c, 4, 72, 64
11, 179633, Note_off_c, 4, 75, 64
11, 179745, Note_on_c, 4, 71, 59
11, 179747, Note_off_c, 4, 72, 64
11, 179858, Note_off_c, 4, 71, 64
11, 179858, Note_on_c, 4, 69, 66
11, 179962, Note_off_c, 4, 69, 64
11, 179985, Note_on_c, 4, 71, 70
11, 180133, Note_off_c, 4, 71, 64
11, 209291, Note_on_c, 4, 71, 78
11, 209457, Note_off_c, 4, 71, 64
11, 209468, Note_on_c, 4, 83, 80
11, 209507, Note_off_c, 4, 83, 64
11, 209537, Note_on_c, 4, 81, 68
11, 209621, Note_on_c, 4, 79, 56
11, 209634, Note_off_c, 4, 81, 64
11, 209663, Note_on_c, 4, 81, 60
11, 209666, Note_off_c, 4, 79, 64
11, 209696, Note_on_c, 4, 79, 61
11, 209702, Note_off_c, 4, 81, 64
11, 209724, Note_off_c, 4, 79, 64
11, 209724, Note_on_c, 4, 81, 61
11, 209747, Note_on_c, 4, 79, 68
11, 209753, Note_off_c, 4, 81, 64
11, 209773, Note_on_c, 4, 81, 63
11, 209774, Note_off_c, 4, 79, 64
11, 209792, Note_on_c, 4, 79, 64
11, 209801, Note_off_c, 4, 81, 64
11, 209933, Note_off_c, 4, 79, 64
11, 209935, Note_on_c, 4, 78, 50
11, 209976, Note_off_c, 4, 78, 64
11, 210010, Note_on_c, 4, 78, 70
11, 210390, Note_off_c, 4, 78, 64
11, 210412, Note_on_c, 4, 76, 64
11, 210441, Note_on_c, 4, 74, 64
11, 210445, Note_off_c, 4, 76, 64
11, 210475, Note_off_c, 4, 74, 64
11, 210483, Note_on_c, 4, 76, 62
11, 210595, Note_off_c, 4, 76, 64
11, 210655, Note_on_c, 4, 73, 59
11, 210696, Note_off_c, 4, 73, 64
11, 210715, Note_on_c, 4, 74, 76
11, 210830, Note_off_c, 4, 74, 64
11, 210894, Note_on_c, 4, 76, 68
11, 210928, Note_off_c, 4, 76, 64
11, 210963, Note_on_c, 4, 76, 87
11, 211074, Note_on_c, 4, 78, 57
11, 211082, Note_off_c, 4, 76, 64
11, 211568, Note_off_c, 4, 78, 64
11, 211607, Note_on_c, 4, 71, 66
11, 211647, Note_off_c, 4, 71, 64
11, 211674, Note_on_c, 4, 76, 74
11, 212048, Note_off_c, 4, 76, 64
11, 212086, Note_on_c, 4, 76, 62
11, 212126, Note_off_c, 4, 76, 64
11, 212151, Note_on_c, 4, 76, 76
11, 212277, Note_off_c, 4, 76, 64
11, 212327, Note_on_c, 4, 78, 63
11, 212370, Note_off_c, 4, 78, 64
11, 212397, Note_on_c, 4, 76, 70
11, 212473, Note_on_c, 4, 74, 45
11, 212485, Note_off_c, 4, 76, 64
11, 212522, Note_on_c, 4, 76, 58
11, 212526, Note_off_c, 4, 74, 64
11, 212567, Note_on_c, 4, 74, 58
11, 212572, Note_off_c, 4, 76, 64
11, 212599, Note_on_c, 4, 76, 60
11, 212600, Note_off_c, 4, 74, 64
11, 212631, Note_on_c, 4, 74, 60
11, 212636, Note_off_c, 4, 76, 64
11, 212659, Note_off_c, 4, 74, 64
11, 212659, Note_on_c, 4, 76, 64
11, 212687, Note_on_c, 4, 74, 64
11, 212689, Note_off_c, 4, 76, 64
11, 212711, Note_off_c, 4, 74, 64
11, 212711, Note_on_c, 4, 76, 66
11, 212735, Note_on_c, 4, 74, 66
11, 212737, Note_off_c, 4, 76, 64
11, 212759, Note_on_c, 4, 76, 64
11, 212783, Note_off_c, 4, 76, 64
11, 212809, Note_on_c, 4, 73, 57
11, 212813, Note_off_c, 4, 74, 64
11, 212833, Note_on_c, 4, 74, 62
11, 212839, Note_off_c, 4, 73, 64
11, 212870, Note_off_c, 4, 74, 64
11, 212876, Note_on_c, 4, 73, 57
11, 213211, Note_off_c, 4, 73, 64
11, 213296, Note_on_c, 4, 82, 66
11, 213337, Note_off_c, 4, 82, 64
11, 213352, Note_on_c, 4, 83, 80
11, 213429, Note_off_c, 4, 83, 64
11, 213530, Note_on_c, 4, 85, 66
11, 213570, Note_off_c, 4, 85, 64
11, 213595, Note_on_c, 4, 78, 70
11, 213693, Note_off_c, 4, 78, 64
11, 213772, Note_on_c, 4, 79, 78
11, 213810, Note_off_c, 4, 79, 64
11, 213839, Note_on_c, 4, 79, 82
11, 213957, Note_on_c, 4, 81, 66
11, 213968, Note_off_c, 4, 79, 64
11, 214405, Note_off_c, 4, 81, 64
11, 214474, Note_on_c, 4, 78, 64
11, 214513, Note_off_c, 4, 78, 64
11, 214553, Note_on_c, 4, 76, 68
11, 214656, Note_on_c, 4, 75, 55
11, 214663, Note_off_c, 4, 76, 64
11, 214763, Note_off_c, 4, 75, 64
11, 214795, Note_on_c, 4, 76, 76
11, 214905, Note_off_c, 4, 76, 64
11, 214965, Note_on_c, 4, 78, 58
11, 215016, Note_off_c, 4, 78, 64
11, 215032, Note_on_c, 4, 79, 74
11, 215149, Note_off_c, 4, 79, 64
11, 215206, Note_on_c, 4, 81, 72
11, 215244, Note_off_c, 4, 81, 64
11, 215283, Note_on_c, 4, 79, 76
11, 215405, Note_on_c, 4, 78, 52
11, 215416, Note_off_c, 4, 79, 64
11, 215870, Note_off_c, 4, 78, 64
11, 215923, Note_on_c, 4, 79, 70
11, 215965, Note_off_c, 4, 79, 64
11, 215992, Note_on_c, 4, 76, 82
11, 216089, Note_off_c, 4, 76, 64
11, 216162, Note_on_c, 4, 71, 66
11, 216211, Note_off_c, 4, 71, 64
11, 216230, Note_on_c, 4, 73, 63
11, 216345, Note_off_c, 4, 73, 64
11, 216395, Note_on_c, 4, 74, 78
11, 216430, Note_off_c, 4, 74, 64
11, 216470, Note_on_c, 4, 74, 85
11, 216601, Note_on_c, 4, 73, 51
11, 216612, Note_off_c, 4, 74, 64
11, 216838, Note_off_c, 4, 73, 64
11, 216872, Note_on_c, 4, 76, 78
11, 216922, Note_off_c, 4, 76, 64
11, 216946, Note_on_c, 4, 81, 87
11, 217323, Note_off_c, 4, 81, 64
11, 217363, Note_on_c, 4, 79, 64
11, 217390, Note_on_c, 4, 78, 61
11, 217408, Note_off_c, 4, 79, 64
11, 217435, Note_off_c, 4, 78, 64
11, 217439, Note_on_c, 4, 83, 85
11, 217541, Note_off_c, 4, 83, 64
11, 217607, Note_on_c, 4, 81, 64
11, 217638, Note_off_c, 4, 81, 64
11, 217672, Note_on_c, 4, 81, 78
11, 217697, Note_on_c, 4, 79, 70
11, 217705, Note_off_c, 4, 81, 64
11, 217726, Note_on_c, 4, 81, 59
11, 217735, Note_off_c, 4, 79, 64
11, 217747, Note_on_c, 4, 79, 59
11, 217755, Note_off_c, 4, 81, 64
11, 217797, Note_off_c, 4, 79, 64
11, 217844, Note_on_c, 4, 78, 66
11, 217882, Note_off_c, 4, 78, 64
11, 217910, Note_on_c, 4, 78, 78
11, 218027, Note_on_c, 4, 79, 61
11, 218032, Note_off_c, 4, 78, 64
11, 218276, Note_off_c, 4, 79, 64
11, 218331, Note_on_c, 4, 73, 58
11, 218359, Note_on_c, 4, 74, 76
11, 218369, Note_off_c, 4, 73, 64
11, 218392, Note_off_c, 4, 74, 64
11, 218404, Note_on_c, 4, 76, 68
11, 218515, Note_off_c, 4, 76, 64
11, 218566, Note_on_c, 4, 74, 63
11, 218590, Note_on_c, 4, 73, 59
11, 218595, Note_off_c, 4, 74, 64
11, 218631, Note_off_c, 4, 73, 64
11, 218639, Note_on_c, 4, 78, 58
11, 218970, Note_off_c, 4, 78, 64
11, 219027, Note_on_c, 4, 71, 66
11, 219056, Note_on_c, 4, 73, 59
11, 219071, Note_off_c, 4, 71, 64
11, 219091, Note_off_c, 4, 73, 64
11, 219102, Note_on_c, 4, 74, 54
11, 219230, Note_off_c, 4, 74, 64
11, 219277, Note_on_c, 4, 73, 48
11, 219303, Note_on_c, 4, 71, 68
11, 219321, Note_off_c, 4, 73, 64
11, 219350, Note_off_c, 4, 71, 64
11, 219358, Note_on_c, 4, 76, 66
11, 219688, Note_off_c, 4, 76, 64
11, 219767, Note_on_c, 4, 70, 66
11, 219812, Note_off_c, 4, 70, 64
11, 219820, Note_on_c, 4, 71, 76
11, 219914, Note_off_c, 4, 71, 64
11, 220007, Note_on_c, 4, 73, 61
11, 220057, Note_off_c, 4, 73, 64
11, 220071, Note_on_c, 4, 66, 66
11, 220406, Note_off_c, 4, 66, 64
11, 220474, Note_on_c, 4, 79, 78
11, 220512, Note_off_c, 4, 79, 64
11, 220552, Note_on_c, 4, 79, 87
11, 220668, Note_on_c, 4, 78, 53
11, 220681, Note_off_c, 4, 79, 64
11, 220922, Note_off_c, 4, 78, 64
11, 220966, Note_on_c, 4, 76, 72
11, 221018, Note_off_c, 4, 76, 64
11, 221035, Note_on_c, 4, 74, 66
11, 221204, Note_off_c, 4, 74, 64
11, 221252, Note_on_c, 4, 74, 64
11, 221300, Note_on_c, 4, 73, 51
11, 221306, Note_off_c, 4, 74, 64
11, 221326, Note_on_c, 4, 74, 66
11, 221328, Note_off_c, 4, 73, 64
11, 221353, Note_on_c, 4, 73, 58
11, 221360, Note_off_c, 4, 74, 64
11, 221375, Note_on_c, 4, 74, 72
11, 221377, Note_off_c, 4, 73, 64
11, 221400, Note_on_c, 4, 73, 60
11, 221412, Note_off_c, 4, 74, 64
11, 221462, Note_on_c, 4, 71, 72
11, 221466, Note_off_c, 4, 73, 64
11, 221506, Note_off_c, 4, 71, 64
11, 221533, Note_on_c, 4, 71, 74
11, 222227, Note_off_c, 4, 71, 64
11, 264210, Note_on_c, 4, 74, 70
11, 264809, Note_off_c, 4, 74, 64
11, 264832, Note_on_c, 4, 80, 64
11, 264938, Note_off_c, 4, 80, 64
11, 264953, Note_on_c, 4, 83, 66
11, 265055, Note_off_c, 4, 83, 64
11, 265062, Note_on_c, 4, 80, 58
11, 265144, Note_off_c, 4, 80, 64
11, 265186, Note_on_c, 4, 74, 70
11, 265299, Note_on_c, 4, 80, 66
11, 265325, Note_off_c, 4, 74, 64
11, 265407, Note_off_c, 4, 80, 64
11, 265416, Note_on_c, 4, 83, 74
11, 265524, Note_on_c, 4, 80, 54
11, 265549, Note_off_c, 4, 83, 64
11, 265608, Note_off_c, 4, 80, 64
11, 265650, Note_on_c, 4, 73, 66
11, 265754, Note_off_c, 4, 73, 64
11, 265761, Note_on_c, 4, 74, 60
11, 265883, Note_on_c, 4, 73, 49
11, 265902, Note_off_c, 4, 74, 64
11, 265980, Note_on_c, 4, 71, 64
11, 265989, Note_off_c, 4, 73, 64
11, 266060, Note_off_c, 4, 71, 64
11, 266109, Note_on_c, 4, 69, 64
11, 266233, Note_on_c, 4, 71, 58
11, 266242, Note_off_c, 4, 69, 64
11, 266290, Note_off_c, 4, 71, 64
11, 266370, Note_on_c, 4, 73, 58
11, 266647, Note_off_c, 4, 73, 64
11, 266735, Note_on_c, 4, 78, 61
11, 266839, Note_off_c, 4, 78, 64
11, 266847, Note_on_c, 4, 81, 72
11, 266957, Note_off_c, 4, 81, 64
11, 266973, Note_on_c, 4, 78, 53
11, 267058, Note_off_c, 4, 78, 64
11, 267092, Note_on_c, 4, 73, 63
11, 267202, Note_on_c, 4, 78, 59
11, 267209, Note_off_c, 4, 73, 64
11, 267324, Note_off_c, 4, 78, 64
11, 267328, Note_on_c, 4, 81, 78
11, 267430, Note_on_c, 4, 78, 55
11, 267437, Note_off_c, 4, 81, 64
11, 267508, Note_off_c, 4, 78, 64
11, 267567, Note_on_c, 4, 71, 82
11, 267671, Note_on_c, 4, 73, 60
11, 267696, Note_off_c, 4, 71, 64
11, 267790, Note_on_c, 4, 71, 60
11, 267806, Note_off_c, 4, 73, 64
11, 267899, Note_off_c, 4, 71, 64
11, 267902, Note_on_c, 4, 69, 57
11, 268012, Note_off_c, 4, 69, 64
11, 268034, Note_on_c, 4, 68, 51
11, 268127, Note_off_c, 4, 68, 64
11, 268149, Note_on_c, 4, 69, 58
11, 268229, Note_off_c, 4, 69, 64
11, 268289, Note_on_c, 4, 71, 70
11, 268598, Note_off_c, 4, 71, 64
11, 268659, Note_on_c, 4, 77, 70
11, 268767, Note_off_c, 4, 77, 64
11, 268787, Note_on_c, 4, 80, 62
11, 268895, Note_on_c, 4, 77, 64
11, 268909, Note_off_c, 4, 80, 64
11, 268986, Note_off_c, 4, 77, 64
11, 269020, Note_on_c, 4, 71, 70
11, 269133, Note_on_c, 4, 77, 64
11, 269143, Note_off_c, 4, 71, 64
11, 269243, Note_off_c, 4, 77, 64
11, 269268, Note_on_c, 4, 80, 58
11, 269391, Note_on_c, 4, 77, 64
11, 269419, Note_off_c, 4, 80, 64
11, 269471, Note_off_c, 4, 77, 64
11, 269504, Note_on_c, 4, 69, 64
11, 269599, Note_on_c, 4, 68, 57
11, 269608, Note_off_c, 4, 69, 64
11, 269723, Note_off_c, 4, 68, 64
11, 269723, Note_on_c, 4, 66, 28
11, 269850, Note_on_c, 4, 68, 59
11, 269867, Note_off_c, 4, 66, 64
11, 269945, Note_off_c, 4, 68, 64
11, 269976, Note_on_c, 4, 69, 68
11, 270089, Note_on_c, 4, 71, 63
11, 270102, Note_off_c, 4, 69, 64
11, 270206, Note_off_c, 4, 71, 64
11, 270219, Note_on_c, 4, 73, 48
11, 270314, Note_off_c, 4, 73, 64
11, 270328, Note_on_c, 4, 69, 63
11, 270405, Note_off_c, 4, 69, 64
11, 270454, Note_on_c, 4, 74, 78
11, 270567, Note_on_c, 4, 69, 61
11, 270573, Note_off_c, 4, 74, 64
11, 270675, Note_off_c, 4, 69, 64
11, 270706, Note_on_c, 4, 68, 45
11, 270802, Note_on_c, 4, 66, 52
11, 270810, Note_off_c, 4, 68, 64
11, 270923, Note_off_c, 4, 66, 64
11, 270937, Note_on_c, 4, 68, 59
11, 271030, Note_off_c, 4, 68, 64
11, 271052, Note_on_c, 4, 74, 68
11, 271162, Note_off_c, 4, 74, 64
11, 271165, Note_on_c, 4, 73, 52
11, 271275, Note_on_c, 4, 71, 51
11, 271286, Note_off_c, 4, 73, 64
11, 271351, Note_off_c, 4, 71, 64
11, 271404, Note_on_c, 4, 73, 78
11, 271508, Note_on_c, 4, 71, 54
11, 271539, Note_off_c, 4, 73, 64
11, 271627, Note_off_c, 4, 71, 64
11, 271641, Note_on_c, 4, 69, 60
11, 271744, Note_off_c, 4, 69, 64
11, 271764, Note_on_c, 4, 71, 52
11, 271900, Note_on_c, 4, 73, 53
11, 271908, Note_off_c, 4, 71, 64
11, 272012, Note_on_c, 4, 78, 62
11, 272014, Note_off_c, 4, 73, 64
11, 272127, Note_off_c, 4, 78, 64
11, 272132, Note_on_c, 4, 77, 64
11, 272232, Note_on_c, 4, 78, 59
11, 272238, Note_off_c, 4, 77, 64
11, 272333, Note_off_c, 4, 78, 64
11, 272366, Note_on_c, 4, 80, 78
11, 272473, Note_on_c, 4, 78, 46
11, 272519, Note_off_c, 4, 80, 64
11, 272599, Note_off_c, 4, 78, 64
11, 272605, Note_on_c, 4, 77, 58
11, 272712, Note_on_c, 4, 75, 63
11, 272718, Note_off_c, 4, 77, 64
11, 272837, Note_off_c, 4, 75, 64
11, 272845, Note_on_c, 4, 73, 44
11, 272940, Note_off_c, 4, 73, 64
11, 272946, Note_on_c, 4, 71, 60
11, 273066, Note_on_c, 4, 69, 53
11, 273081, Note_off_c, 4, 71, 64
11, 273199, Note_on_c, 4, 68, 52
11, 273200, Note_off_c, 4, 69, 64
11, 273283, Note_off_c, 4, 68, 64
11, 273323, Note_on_c, 4, 69, 66
11, 273433, Note_on_c, 4, 71, 60
11, 273438, Note_off_c, 4, 69, 64
11, 273560, Note_off_c, 4, 71, 64
11, 273564, Note_on_c, 4, 69, 59
11, 273677, Note_on_c, 4, 68, 53
11, 273683, Note_off_c, 4, 69, 64
11, 273785, Note_off_c, 4, 68, 64
11, 273808, Note_on_c, 4, 66, 63
11, 273923, Note_off_c, 4, 66, 64
11, 273932, Note_on_c, 4, 68, 57
11, 274009, Note_off_c, 4, 68, 64
11, 274033, Note_on_c, 4, 69, 59
11, 274166, Note_on_c, 4, 71, 57
11, 274180, Note_off_c, 4, 69, 64
11, 274235, Note_off_c, 4, 71, 64
11, 274295, Note_on_c, 4, 73, 66
11, 274398, Note_on_c, 4, 69, 57
11, 274405, Note_off_c, 4, 73, 64
11, 274487, Note_off_c, 4, 69, 64
11, 274536, Note_on_c, 4, 74, 66
11, 274644, Note_on_c, 4, 69, 61
11, 274646, Note_off_c, 4, 74, 64
11, 274740, Note_off_c, 4, 69, 64
11, 274781, Note_on_c, 4, 76, 64
11, 274866, Note_off_c, 4, 76, 64
11, 274879, Note_on_c, 4, 69, 52
11, 274976, Note_off_c, 4, 69, 64
11, 275005, Note_on_c, 4, 78, 70
11, 275100, Note_off_c, 4, 78, 64
11, 275116, Note_on_c, 4, 69, 63
11, 275185, Note_off_c, 4, 69, 64
11, 275240, Note_on_c, 4, 67, 68
11, 275372, Note_on_c, 4, 69, 58
11, 275379, Note_off_c, 4, 67, 64
11, 275476, Note_off_c, 4, 69, 64
11, 275483, Note_on_c, 4, 67, 56
11, 275615, Note_on_c, 4, 66, 44
11, 275616, Note_off_c, 4, 67, 64
11, 275726, Note_off_c, 4, 66, 64
11, 275747, Note_on_c, 4, 64, 63
11, 275862, Note_off_c, 4, 64, 64
11, 275865, Note_on_c, 4, 66, 60
11, 275963, Note_off_c, 4, 66, 64
11, 275972, Note_on_c, 4, 67, 59
11, 276088, Note_on_c, 4, 69, 57
11, 276105, Note_off_c, 4, 67, 64
11, 276158, Note_off_c, 4, 69, 64
11, 276225, Note_on_c, 4, 71, 72
11, 276327, Note_off_c, 4, 71, 64
11, 276336, Note_on_c, 4, 67, 61
11, 276433, Note_off_c, 4, 67, 64
11, 276470, Note_on_c, 4, 73, 57
11, 276565, Note_on_c, 4, 67, 64
11, 276566, Note_off_c, 4, 73, 64
11, 276676, Note_off_c, 4, 67, 64
11, 276703, Note_on_c, 4, 74, 68
11, 276811, Note_off_c, 4, 74, 64
11, 276814, Note_on_c, 4, 67, 66
11, 276924, Note_off_c, 4, 67, 64
11, 276938, Note_on_c, 4, 76, 68
11, 277031, Note_off_c, 4, 76, 64
11, 277051, Note_on_c, 4, 67, 60
11, 277130, Note_off_c, 4, 67, 64
11, 277174, Note_on_c, 4, 66, 87
11, 277285, Note_on_c, 4, 67, 66
11, 277290, Note_off_c, 4, 66, 64
11, 277394, Note_off_c, 4, 67, 64
11, 277400, Note_on_c, 4, 66, 48
11, 277502, Note_off_c, 4, 66, 64
11, 277529, Note_on_c, 4, 64, 48
11, 277635, Note_off_c, 4, 64, 64
11, 277675, Note_on_c, 4, 62, 63
11, 277777, Note_off_c, 4, 62, 64
11, 277925, Note_on_c, 4, 81, 70
11, 277990, Note_off_c, 4, 81, 64
11, 278155, Note_on_c, 4, 83, 80
11, 278252, Note_off_c, 4, 83, 64
11, 278387, Note_on_c, 4, 81, 68
11, 278766, Note_off_c, 4, 81, 64
11, 278868, Note_on_c, 4, 79, 76
11, 278996, Note_off_c, 4, 79, 64
11, 279105, Note_on_c, 4, 81, 68
11, 279213, Note_off_c, 4, 81, 64
11, 279219, Note_on_c, 4, 79, 66
11, 279333, Note_on_c, 4, 78, 60
11, 279341, Note_off_c, 4, 79, 64
11, 279430, Note_off_c, 4, 78, 64
11, 279448, Note_on_c, 4, 79, 66
11, 279534, Note_off_c, 4, 79, 64
11, 279576, Note_on_c, 4, 81, 68
11, 279669, Note_off_c, 4, 81, 64
11, 279804, Note_on_c, 4, 74, 70
11, 279901, Note_off_c, 4, 74, 64
11, 280050, Note_on_c, 4, 79, 82
11, 280141, Note_off_c, 4, 79, 64
11, 280298, Note_on_c, 4, 78, 85
11, 280696, Note_off_c, 4, 78, 64
11, 280785, Note_on_c, 4, 76, 70
11, 280929, Note_off_c, 4, 76, 64
11, 281035, Note_on_c, 4, 78, 85
11, 281144, Note_on_c, 4, 79, 59
11, 281155, Note_off_c, 4, 78, 64
11, 281245, Note_on_c, 4, 78, 49
11, 281254, Note_off_c, 4, 79, 64
11, 281363, Note_off_c, 4, 78, 64
11, 281372, Note_on_c, 4, 76, 54
11, 281466, Note_off_c, 4, 76, 64
11, 281482, Note_on_c, 4, 74, 60
11, 281880, Note_off_c, 4, 74, 64
11, 281963, Note_on_c, 4, 76, 63
11, 282049, Note_on_c, 4, 74, 53
11, 282067, Note_off_c, 4, 76, 64
11, 282117, Note_off_c, 4, 74, 64
11, 282122, Note_on_c, 4, 76, 54
11, 282173, Note_off_c, 4, 76, 64
11, 282177, Note_on_c, 4, 74, 57
11, 282228, Note_off_c, 4, 74, 64
11, 282233, Note_on_c, 4, 76, 58
11, 282284, Note_on_c, 4, 74, 56
11, 282290, Note_off_c, 4, 76, 64
11, 282327, Note_off_c, 4, 74, 64
11, 282337, Note_on_c, 4, 76, 53
11, 282383, Note_on_c, 4, 74, 57
11, 282387, Note_off_c, 4, 76, 64
11, 282421, Note_off_c, 4, 74, 64
11, 282430, Note_on_c, 4, 76, 52
11, 282477, Note_on_c, 4, 74, 59
11, 282480, Note_off_c, 4, 76, 64
11, 282520, Note_off_c, 4, 74, 64
11, 282529, Note_on_c, 4, 76, 55
11, 282573, Note_on_c, 4, 74, 57
11, 282580, Note_off_c, 4, 76, 64
11, 282620, Note_off_c, 4, 74, 64
11, 282627, Note_on_c, 4, 76, 57
11, 282675, Note_on_c, 4, 74, 57
11, 282686, Note_off_c, 4, 76, 64
11, 282722, Note_off_c, 4, 74, 64
11, 282726, Note_on_c, 4, 76, 59
11, 282778, Note_on_c, 4, 74, 59
11, 282786, Note_off_c, 4, 76, 64
11, 282823, Note_off_c, 4, 74, 64
11, 282834, Note_on_c, 4, 76, 57
11, 282875, Note_on_c, 4, 74, 58
11, 282886, Note_off_c, 4, 76, 64
11, 282923, Note_off_c, 4, 74, 64
11, 282928, Note_on_c, 4, 76, 57
11, 282972, Note_on_c, 4, 74, 59
11, 282983, Note_off_c, 4, 76, 64
11, 283018, Note_off_c, 4, 74, 64
11, 283025, Note_on_c, 4, 76, 58
11, 283072, Note_on_c, 4, 74, 59
11, 283085, Note_off_c, 4, 76, 64
11, 283118, Note_off_c, 4, 74, 64
11, 283125, Note_on_c, 4, 76, 57
11, 283167, Note_on_c, 4, 74, 59
11, 283177, Note_off_c, 4, 76, 64
11, 283213, Note_off_c, 4, 74, 64
11, 283220, Note_on_c, 4, 76, 57
11, 283266, Note_on_c, 4, 74, 58
11, 283273, Note_off_c, 4, 76, 64
11, 283310, Note_off_c, 4, 74, 64
11, 283319, Note_on_c, 4, 76, 57
11, 283362, Note_on_c, 4, 74, 58
11, 283368, Note_off_c, 4, 76, 64
11, 283399, Note_off_c, 4, 74, 64
11, 283408, Note_on_c, 4, 76, 57
11, 283456, Note_on_c, 4, 74, 60
11, 283461, Note_off_c, 4, 76, 64
11, 283499, Note_off_c, 4, 74, 64
11, 283505, Note_on_c, 4, 76, 58
11, 283558, Note_on_c, 4, 74, 57
11, 283563, Note_off_c, 4, 76, 64
11, 283596, Note_off_c, 4, 74, 64
11, 283607, Note_on_c, 4, 76, 57
11, 283652, Note_on_c, 4, 74, 58
11, 283654, Note_off_c, 4, 76, 64
11, 283689, Note_off_c, 4, 74, 64
11, 283704, Note_on_c, 4, 76, 54
11, 283746, Note_on_c, 4, 74, 58
11, 283750, Note_off_c, 4, 76, 64
11, 283787, Note_off_c, 4, 74, 64
11, 283798, Note_on_c, 4, 76, 57
11, 283844, Note_on_c, 4, 74, 58
11, 283849, Note_off_c, 4, 76, 64
11, 283888, Note_off_c, 4, 74, 64
11, 283901, Note_on_c, 4, 76, 55
11, 283943, Note_on_c, 4, 74, 57
11, 283950, Note_off_c, 4, 76, 64
11, 283984, Note_off_c, 4, 74, 64
11, 283999, Note_on_c, 4, 76, 58
11, 284045, Note_on_c, 4, 74, 57
11, 284054, Note_off_c, 4, 76, 64
11, 284083, Note_off_c, 4, 74, 64
11, 284096, Note_on_c, 4, 76, 56
11, 284143, Note_on_c, 4, 74, 59
11, 284152, Note_off_c, 4, 76, 64
11, 284185, Note_off_c, 4, 74, 64
11, 284194, Note_on_c, 4, 76, 57
11, 284243, Note_on_c, 4, 74, 58
11, 284253, Note_off_c, 4, 76, 64
11, 284285, Note_off_c, 4, 74, 64
11, 284295, Note_on_c, 4, 76, 53
11, 284335, Note_on_c, 4, 74, 58
11, 284336, Note_off_c, 4, 76, 64
11, 284382, Note_off_c, 4, 74, 64
11, 284386, Note_on_c, 4, 76, 58
11, 284431, Note_off_c, 4, 76, 64
11, 284431, Note_on_c, 4, 74, 58
11, 284471, Note_off_c, 4, 74, 64
11, 284479, Note_on_c, 4, 76, 57
11, 284528, Note_on_c, 4, 74, 58
11, 284530, Note_off_c, 4, 76, 64
11, 284566, Note_off_c, 4, 74, 64
11, 284568, Note_on_c, 4, 76, 58
11, 284619, Note_off_c, 4, 76, 64
11, 284619, Note_on_c, 4, 74, 57
11, 284663, Note_off_c, 4, 74, 64
11, 284663, Note_on_c, 4, 76, 57
11, 284709, Note_on_c, 4, 74, 59
11, 284712, Note_off_c, 4, 76, 64
11, 284758, Note_on_c, 4, 76, 58
11, 284765, Note_off_c, 4, 74, 64
11, 284805, Note_on_c, 4, 74, 63
11, 284817, Note_off_c, 4, 76, 64
11, 285042, Note_off_c, 4, 74, 64
11, 285126, Note_on_c, 4, 62, 72
11, 285207, Note_on_c, 4, 64, 53
11, 285249, Note_off_c, 4, 62, 64
11, 285343, Note_on_c, 4, 66, 57
11, 285352, Note_off_c, 4, 64, 64
11, 285445, Note_off_c, 4, 66, 64
11, 285464, Note_on_c, 4, 67, 66
11, 285568, Note_off_c, 4, 67, 64
11, 285577, Note_on_c, 4, 69, 57
11, 285686, Note_on_c, 4, 71, 64
11, 285694, Note_off_c, 4, 69, 64
11, 285765, Note_off_c, 4, 71, 64
11, 285818, Note_on_c, 4, 72, 82
11, 285936, Note_on_c, 4, 74, 61
11, 285947, Note_off_c, 4, 72, 64
11, 286047, Note_off_c, 4, 74, 64
11, 286058, Note_on_c, 4, 72, 57
11, 286166, Note_off_c, 4, 72, 64
11, 286166, Note_on_c, 4, 71, 47
11, 286279, Note_off_c, 4, 71, 64
11, 286295, Note_on_c, 4, 69, 60
11, 286398, Note_off_c, 4, 69, 64
11, 286414, Note_on_c, 4, 74, 60
11, 286529, Note_off_c, 4, 74, 64
11, 286530, Note_on_c, 4, 72, 60
11, 286649, Note_on_c, 4, 74, 59
11, 286660, Note_off_c, 4, 72, 64
11, 286737, Note_off_c, 4, 74, 64
11, 286770, Note_on_c, 4, 71, 66
11, 286872, Note_off_c, 4, 71, 64
11, 286876, Note_on_c, 4, 72, 60
11, 286998, Note_off_c, 4, 72, 64
11, 287005, Note_on_c, 4, 71, 58
11, 287118, Note_off_c, 4, 71, 64
11, 287118, Note_on_c, 4, 69, 57
11, 287200, Note_off_c, 4, 69, 64
11, 287240, Note_on_c, 4, 67, 78
11, 287353, Note_on_c, 4, 69, 68
11, 287363, Note_off_c, 4, 67, 64
11, 287479, Note_on_c, 4, 71, 55
11, 287492, Note_off_c, 4, 69, 64
11, 287611, Note_on_c, 4, 73, 52
11, 287623, Note_off_c, 4, 71, 64
11, 287680, Note_off_c, 4, 73, 64
11, 287744, Note_on_c, 4, 74, 85
11, 287864, Note_on_c, 4, 76, 58
11, 287870, Note_off_c, 4, 74, 64
11, 287966, Note_off_c, 4, 76, 64
11, 287974, Note_on_c, 4, 74, 57
11, 288092, Note_on_c, 4, 73, 49
11, 288099, Note_off_c, 4, 74, 64
11, 288212, Note_off_c, 4, 73, 64
11, 288220, Note_on_c, 4, 71, 64
11, 288329, Note_off_c, 4, 71, 64
11, 288338, Note_on_c, 4, 76, 60
11, 288452, Note_off_c, 4, 76, 64
11, 288453, Note_on_c, 4, 74, 58
11, 288575, Note_on_c, 4, 76, 57
11, 288576, Note_off_c, 4, 74, 64
11, 288654, Note_off_c, 4, 76, 64
11, 288701, Note_on_c, 4, 73, 66
11, 288809, Note_on_c, 4, 71, 57
11, 288822, Note_off_c, 4, 73, 64
11, 288933, Note_off_c, 4, 71, 64
11, 288946, Note_on_c, 4, 69, 56
11, 289055, Note_on_c, 4, 71, 57
11, 289064, Note_off_c, 4, 69, 64
11, 289182, Note_off_c, 4, 71, 64
11, 289185, Note_on_c, 4, 73, 57
11, 289287, Note_off_c, 4, 73, 64
11, 289292, Note_on_c, 4, 74, 70
11, 289387, Note_off_c, 4, 74, 64
11, 289409, Note_on_c, 4, 76, 53
11, 289515, Note_on_c, 4, 78, 57
11, 289528, Note_off_c, 4, 76, 64
11, 289595, Note_off_c, 4, 78, 64
11, 289650, Note_on_c, 4, 79, 82
11, 289765, Note_on_c, 4, 81, 57
11, 289770, Note_off_c, 4, 79, 64
11, 289880, Note_off_c, 4, 81, 64
11, 289896, Note_on_c, 4, 79, 51
11, 289996, Note_on_c, 4, 78, 47
11, 290004, Note_off_c, 4, 79, 64
11, 290104, Note_off_c, 4, 78, 64
11, 290128, Note_on_c, 4, 76, 68
11, 290241, Note_on_c, 4, 81, 60
11, 290242, Note_off_c, 4, 76, 64
11, 290358, Note_off_c, 4, 81, 64
11, 290370, Note_on_c, 4, 79, 60
11, 290485, Note_on_c, 4, 81, 56
11, 290487, Note_off_c, 4, 79, 64
11, 290580, Note_off_c, 4, 81, 64
11, 290618, Note_on_c, 4, 78, 80
11, 290727, Note_on_c, 4, 79, 54
11, 290737, Note_off_c, 4, 78, 64
11, 290846, Note_off_c, 4, 79, 64
11, 290855, Note_on_c, 4, 78, 46
11, 290972, Note_on_c, 4, 76, 57
11, 290995, Note_off_c, 4, 78, 64
11, 291052, Note_off_c, 4, 76, 64
11, 291093, Note_on_c, 4, 74, 76
11, 291204, Note_on_c, 4, 76, 66
11, 291213, Note_off_c, 4, 74, 64
11, 291321, Note_on_c, 4, 78, 55
11, 291326, Note_off_c, 4, 76, 64
11, 291434, Note_on_c, 4, 79, 70
11, 291459, Note_off_c, 4, 78, 64
11, 291541, Note_off_c, 4, 79, 64
11, 291563, Note_on_c, 4, 81, 80
11, 291645, Note_off_c, 4, 81, 64
11, 291800, Note_on_c, 4, 74, 66
11, 291882, Note_off_c, 4, 74, 64
11, 292061, Note_on_c, 4, 69, 64
11, 292137, Note_off_c, 4, 69, 64
11, 292311, Note_on_c, 4, 73, 64
11, 292417, Note_off_c, 4, 73, 64
11, 292546, Note_on_c, 4, 74, 66
11, 293000, Note_off_c, 4, 74, 64
11, 334558, Note_on_c, 4, 81, 85
11, 334638, Note_off_c, 4, 81, 64
11, 334790, Note_on_c, 4, 83, 85
11, 334877, Note_off_c, 4, 83, 64
11, 335027, Note_on_c, 4, 81, 78
11, 335362, Note_off_c, 4, 81, 64
11, 335505, Note_on_c, 4, 79, 70
11, 335631, Note_off_c, 4, 79, 64
11, 335758, Note_on_c, 4, 81, 85
11, 335861, Note_off_c, 4, 81, 64
11, 335861, Note_on_c, 4, 79, 63
11, 335983, Note_off_c, 4, 79, 64
11, 335983, Note_on_c, 4, 78, 63
11, 336088, Note_on_c, 4, 79, 76
11, 336094, Note_off_c, 4, 78, 64
11, 336183, Note_off_c, 4, 79, 64
11, 336211, Note_on_c, 4, 81, 72
11, 336325, Note_on_c, 4, 83, 63
11, 336337, Note_off_c, 4, 81, 64
11, 336411, Note_off_c, 4, 83, 64
11, 336442, Note_on_c, 4, 79, 66
11, 336555, Note_off_c, 4, 79, 64
11, 336559, Note_on_c, 4, 81, 68
11, 336648, Note_off_c, 4, 81, 64
11, 336690, Note_on_c, 4, 78, 66
11, 336805, Note_off_c, 4, 78, 64
11, 336807, Note_on_c, 4, 83, 70
11, 336922, Note_off_c, 4, 83, 64
11, 336933, Note_on_c, 4, 81, 64
11, 337040, Note_off_c, 4, 81, 64
11, 337042, Note_on_c, 4, 83, 66
11, 337128, Note_off_c, 4, 83, 64
11, 337166, Note_on_c, 4, 80, 74
11, 337271, Note_off_c, 4, 80, 64
11, 337276, Note_on_c, 4, 83, 63
11, 337362, Note_off_c, 4, 83, 64
11, 337402, Note_on_c, 4, 79, 66
11, 337509, Note_off_c, 4, 79, 64
11, 337520, Note_on_c, 4, 83, 70
11, 337602, Note_off_c, 4, 83, 64
11, 337639, Note_on_c, 4, 78, 66
11, 337728, Note_off_c, 4, 78, 64
11, 337743, Note_on_c, 4, 83, 66
11, 337845, Note_off_c, 4, 83, 64
11, 337878, Note_on_c, 4, 81, 70
11, 337991, Note_on_c, 4, 83, 62
11, 337996, Note_off_c, 4, 81, 64
11, 338073, Note_off_c, 4, 83, 64
11, 338113, Note_on_c, 4, 79, 72
11, 338215, Note_off_c, 4, 79, 64
11, 338224, Note_on_c, 4, 83, 66
11, 338305, Note_off_c, 4, 83, 64
11, 338350, Note_on_c, 4, 78, 72
11, 338467, Note_off_c, 4, 78, 64
11, 338471, Note_on_c, 4, 83, 58
11, 338560, Note_off_c, 4, 83, 64
11, 338595, Note_on_c, 4, 76, 76
11, 338706, Note_on_c, 4, 83, 66
11, 338717, Note_off_c, 4, 76, 64
11, 338792, Note_off_c, 4, 83, 64
11, 338839, Note_on_c, 4, 79, 72
11, 338959, Note_off_c, 4, 79, 64
11, 338959, Note_on_c, 4, 83, 59
11, 339032, Note_off_c, 4, 83, 64
11, 339072, Note_on_c, 4, 78, 66
11, 339182, Note_on_c, 4, 83, 70
11, 339184, Note_off_c, 4, 78, 64
11, 339269, Note_off_c, 4, 83, 64
11, 339311, Note_on_c, 4, 76, 72
11, 339418, Note_on_c, 4, 83, 68
11, 339426, Note_off_c, 4, 76, 64
11, 339539, Note_off_c, 4, 83, 64
11, 339567, Note_on_c, 4, 75, 80
11, 339682, Note_on_c, 4, 76, 70
11, 339689, Note_off_c, 4, 75, 64
11, 339808, Note_on_c, 4, 75, 53
11, 339826, Note_off_c, 4, 76, 64
11, 339913, Note_on_c, 4, 73, 53
11, 339926, Note_off_c, 4, 75, 64
11, 340032, Note_off_c, 4, 73, 64
11, 340054, Note_on_c, 4, 71, 58
11, 340170, Note_off_c, 4, 71, 64
11, 340300, Note_on_c, 4, 83, 70
11, 340384, Note_off_c, 4, 83, 64
11, 340548, Note_on_c, 4, 84, 82
11, 340636, Note_off_c, 4, 84, 64
11, 340789, Note_on_c, 4, 83, 80
11, 341150, Note_off_c, 4, 83, 64
11, 341279, Note_on_c, 4, 81, 70
11, 341411, Note_off_c, 4, 81, 64
11, 341518, Note_on_c, 4, 83, 87
11, 341622, Note_on_c, 4, 81, 70
11, 341641, Note_off_c, 4, 83, 64
11, 341730, Note_off_c, 4, 81, 64
11, 341741, Note_on_c, 4, 79, 56
11, 341845, Note_on_c, 4, 81, 66
11, 341860, Note_off_c, 4, 79, 64
11, 341953, Note_off_c, 4, 81, 64
11, 341982, Note_on_c, 4, 83, 70
11, 342089, Note_off_c, 4, 83, 64
11, 342207, Note_on_c, 4, 76, 70
11, 342305, Note_off_c, 4, 76, 64
11, 342454, Note_on_c, 4, 81, 82
11, 342540, Note_off_c, 4, 81, 64
11, 342691, Note_on_c, 4, 79, 80
11, 343043, Note_off_c, 4, 79, 64
11, 343180, Note_on_c, 4, 78, 66
11, 343317, Note_off_c, 4, 78, 64
11, 343432, Note_on_c, 4, 79, 80
11, 343545, Note_off_c, 4, 79, 64
11, 343549, Note_on_c, 4, 78, 64
11, 343651, Note_off_c, 4, 78, 64
11, 343669, Note_on_c, 4, 76, 59
11, 343778, Note_on_c, 4, 78, 58
11, 343786, Note_off_c, 4, 76, 64
11, 343886, Note_off_c, 4, 78, 64
11, 343908, Note_on_c, 4, 79, 60
11, 344003, Note_off_c, 4, 79, 64
11, 344145, Note_on_c, 4, 73, 55
11, 344240, Note_off_c, 4, 73, 64
11, 344388, Note_on_c, 4, 78, 68
11, 344479, Note_off_c, 4, 78, 64
11, 344630, Note_on_c, 4, 76, 64
11, 344973, Note_off_c, 4, 76, 64
11, 345104, Note_on_c, 4, 74, 68
11, 345232, Note_off_c, 4, 74, 64
11, 345358, Note_on_c, 4, 76, 82
11, 345458, Note_on_c, 4, 78, 59
11, 345476, Note_off_c, 4, 76, 64
11, 345570, Note_off_c, 4, 78, 64
11, 345584, Note_on_c, 4, 76, 57
11, 345694, Note_on_c, 4, 74, 59
11, 345703, Note_off_c, 4, 76, 64
11, 345819, Note_off_c, 4, 74, 64
11, 345830, Note_on_c, 4, 73, 57
11, 345936, Note_on_c, 4, 74, 68
11, 345960, Note_off_c, 4, 73, 64
11, 346058, Note_off_c, 4, 74, 64
11, 346066, Note_on_c, 4, 76, 66
11, 346184, Note_off_c, 4, 76, 64
11, 346184, Note_on_c, 4, 73, 56
11, 346281, Note_off_c, 4, 73, 64
11, 346301, Note_on_c, 4, 74, 80
11, 346414, Note_on_c, 4, 71, 66
11, 346423, Note_off_c, 4, 74, 64
11, 346509, Note_off_c, 4, 71, 64
11, 346540, Note_on_c, 4, 79, 80
11, 346653, Note_on_c, 4, 78, 55
11, 346664, Note_off_c, 4, 79, 64
11, 346777, Note_on_c, 4, 76, 55
11, 346792, Note_off_c, 4, 78, 64
11, 346876, Note_off_c, 4, 76, 64
11, 346879, Note_on_c, 4, 74, 60
11, 346998, Note_on_c, 4, 73, 60
11, 347009, Note_off_c, 4, 74, 64
11, 347116, Note_on_c, 4, 71, 64
11, 347118, Note_off_c, 4, 73, 64
11, 347222, Note_off_c, 4, 71, 64
11, 347249, Note_on_c, 4, 78, 57
11, 347778, Note_off_c, 4, 78, 64
11, 347851, Note_on_c, 4, 71, 66
11, 347970, Note_on_c, 4, 70, 39
11, 347983, Note_off_c, 4, 71, 64
11, 348076, Note_off_c, 4, 70, 64
11, 348076, Note_on_c, 4, 68, 57
11, 348191, Note_off_c, 4, 68, 64
11, 348207, Note_on_c, 4, 66, 58
11, 348306, Note_off_c, 4, 66, 64
11, 348322, Note_on_c, 4, 71, 57
11, 348433, Note_on_c, 4, 70, 57
11, 348444, Note_off_c, 4, 71, 64
11, 348546, Note_off_c, 4, 70, 64
11, 348548, Note_on_c, 4, 71, 63
11, 348652, Note_off_c, 4, 71, 64
11, 348685, Note_on_c, 4, 74, 70
11, 348785, Note_on_c, 4, 71, 59
11, 348789, Note_off_c, 4, 74, 64
11, 348904, Note_on_c, 4, 70, 45
11, 348913, Note_off_c, 4, 71, 64
11, 349024, Note_on_c, 4, 71, 59
11, 349033, Note_off_c, 4, 70, 64
11, 349157, Note_off_c, 4, 71, 64
11, 349168, Note_on_c, 4, 73, 58
11, 349276, Note_on_c, 4, 71, 58
11, 349329, Note_off_c, 4, 73, 64
11, 349387, Note_on_c, 4, 70, 50
11, 349398, Note_off_c, 4, 71, 64
11, 349509, Note_on_c, 4, 68, 52
11, 349524, Note_off_c, 4, 70, 64
11, 349633, Note_off_c, 4, 68, 64
11, 349639, Note_on_c, 4, 66, 55
11, 349762, Note_on_c, 4, 71, 68
11, 349774, Note_off_c, 4, 66, 64
11, 349876, Note_on_c, 4, 70, 57
11, 349878, Note_off_c, 4, 71, 64
11, 349993, Note_on_c, 4, 68, 52
11, 350005, Note_off_c, 4, 70, 64
11, 350075, Note_off_c, 4, 68, 64
11, 350122, Note_on_c, 4, 66, 57
11, 350233, Note_off_c, 4, 66, 64
11, 350235, Note_on_c, 4, 73, 58
11, 350356, Note_on_c, 4, 71, 66
11, 350390, Note_off_c, 4, 73, 64
11, 350480, Note_on_c, 4, 73, 60
11, 350494, Note_off_c, 4, 71, 64
11, 350584, Note_off_c, 4, 73, 64
11, 350609, Note_on_c, 4, 76, 76
11, 350715, Note_on_c, 4, 73, 53
11, 350725, Note_off_c, 4, 76, 64
11, 350854, Note_on_c, 4, 71, 51
11, 350859, Note_off_c, 4, 73, 64
11, 350963, Note_on_c, 4, 73, 51
11, 350985, Note_off_c, 4, 71, 64
11, 351047, Note_off_c, 4, 73, 64
11, 351083, Note_on_c, 4, 74, 78
11, 351202, Note_on_c, 4, 76, 59
11, 351204, Note_off_c, 4, 74, 64
11, 351330, Note_on_c, 4, 74, 60
11, 351352, Note_off_c, 4, 76, 64
11, 351436, Note_off_c, 4, 74, 64
11, 351443, Note_on_c, 4, 73, 43
11, 351566, Note_on_c, 4, 71, 64
11, 351581, Note_off_c, 4, 73, 64
11, 351669, Note_off_c, 4, 71, 64
11, 351691, Note_on_c, 4, 76, 63
11, 351820, Note_on_c, 4, 74, 63
11, 351846, Note_off_c, 4, 76, 64
11, 351932, Note_on_c, 4, 73, 53
11, 351939, Note_off_c, 4, 74, 64
11, 352026, Note_off_c, 4, 73, 64
11, 352065, Note_on_c, 4, 71, 62
11, 352171, Note_on_c, 4, 78, 57
11, 352176, Note_off_c, 4, 71, 64
11, 352289, Note_off_c, 4, 78, 64
11, 352291, Note_on_c, 4, 76, 58
11, 352404, Note_on_c, 4, 78, 54
11, 352415, Note_off_c, 4, 76, 64
11, 352504, Note_off_c, 4, 78, 64
11, 352530, Note_on_c, 4, 81, 72
11, 352623, Note_on_c, 4, 78, 51
11, 352630, Note_off_c, 4, 81, 64
11, 352751, Note_off_c, 4, 78, 64
11, 352763, Note_on_c, 4, 76, 42
11, 352893, Note_on_c, 4, 78, 58
11, 352900, Note_off_c, 4, 76, 64
11, 352991, Note_off_c, 4, 78, 64
11, 353017, Note_on_c, 4, 71, 60
11, 353145, Note_on_c, 4, 76, 62
11, 353167, Note_off_c, 4, 71, 64
11, 353283, Note_on_c, 4, 75, 40
11, 353285, Note_off_c, 4, 76, 64
11, 353396, Note_on_c, 4, 76, 60
11, 353405, Note_off_c, 4, 75, 64
11, 353506, Note_off_c, 4, 76, 64
11, 353515, Note_on_c, 4, 79, 72
11, 353644, Note_on_c, 4, 76, 52
11, 353646, Note_off_c, 4, 79, 64
11, 353778, Note_on_c, 4, 75, 45
11, 353779, Note_off_c, 4, 76, 64
11, 353900, Note_on_c, 4, 76, 57
11, 353902, Note_off_c, 4, 75, 64
11, 354009, Note_off_c, 4, 76, 64
11, 354016, Note_on_c, 4, 70, 63
11, 354116, Note_on_c, 4, 76, 64
11, 354139, Note_off_c, 4, 70, 64
11, 354238, Note_on_c, 4, 75, 56
11, 354243, Note_off_c, 4, 76, 64
11, 354347, Note_on_c, 4, 76, 66
11, 354356, Note_off_c, 4, 75, 64
11, 354469, Note_off_c, 4, 76, 64
11, 354470, Note_on_c, 4, 79, 74
11, 354580, Note_on_c, 4, 76, 63
11, 354593, Note_off_c, 4, 79, 64
11, 354705, Note_on_c, 4, 75, 52
11, 354711, Note_off_c, 4, 76, 64
11, 354817, Note_on_c, 4, 76, 60
11, 354820, Note_off_c, 4, 75, 64
11, 354901, Note_off_c, 4, 76, 64
11, 354947, Note_on_c, 4, 69, 63
11, 355045, Note_on_c, 4, 75, 56
11, 355085, Note_off_c, 4, 69, 64
11, 355178, Note_on_c, 4, 73, 35
11, 355182, Note_off_c, 4, 75, 64
11, 355291, Note_on_c, 4, 75, 53
11, 355308, Note_off_c, 4, 73, 64
11, 355399, Note_off_c, 4, 75, 64
11, 355412, Note_on_c, 4, 78, 63
11, 355518, Note_on_c, 4, 75, 54
11, 355556, Note_off_c, 4, 78, 64
11, 355642, Note_off_c, 4, 75, 64
11, 355649, Note_on_c, 4, 73, 43
11, 355760, Note_on_c, 4, 75, 53
11, 355777, Note_off_c, 4, 73, 64
11, 355833, Note_off_c, 4, 75, 64
11, 355899, Note_on_c, 4, 68, 55
11, 356017, Note_on_c, 4, 74, 70
11, 356047, Note_off_c, 4, 68, 64
11, 356142, Note_off_c, 4, 74, 64
11, 356142, Note_on_c, 4, 73, 47
11, 356262, Note_off_c, 4, 73, 64
11, 356264, Note_on_c, 4, 74, 68
11, 356380, Note_off_c, 4, 74, 64
11, 356393, Note_on_c, 4, 78, 64
11, 356493, Note_off_c, 4, 78, 64
11, 356493, Note_on_c, 4, 74, 70
11, 356601, Note_off_c, 4, 74, 64
11, 356617, Note_on_c, 4, 73, 35
11, 356718, Note_off_c, 4, 73, 64
11, 356720, Note_on_c, 4, 74, 59
11, 356805, Note_off_c, 4, 74, 64
11, 356845, Note_on_c, 4, 70, 57
11, 356960, Note_on_c, 4, 73, 52
11, 356991, Note_off_c, 4, 70, 64
11, 357064, Note_on_c, 4, 71, 63
11, 357084, Note_off_c, 4, 73, 64
11, 357196, Note_on_c, 4, 73, 60
11, 357208, Note_off_c, 4, 71, 64
11, 357316, Note_off_c, 4, 73, 64
11, 357322, Note_on_c, 4, 76, 82
11, 357422, Note_on_c, 4, 73, 56
11, 357429, Note_off_c, 4, 76, 64
11, 357555, Note_off_c, 4, 73, 64
11, 357560, Note_on_c, 4, 71, 53
11, 357672, Note_off_c, 4, 71, 64
11, 357683, Note_on_c, 4, 73, 45
11, 357780, Note_off_c, 4, 73, 64
11, 357807, Note_on_c, 4, 66, 57
11, 357938, Note_on_c, 4, 76, 76
11, 357949, Note_off_c, 4, 66, 64
11, 358066, Note_on_c, 4, 74, 70
11, 358097, Note_off_c, 4, 76, 64
11, 358181, Note_on_c, 4, 73, 61
11, 358190, Note_off_c, 4, 74, 64
11, 358277, Note_off_c, 4, 73, 64
11, 358308, Note_on_c, 4, 71, 76
11, 358425, Note_on_c, 4, 73, 57
11, 358440, Note_off_c, 4, 71, 64
11, 358544, Note_on_c, 4, 74, 64
11, 358566, Note_off_c, 4, 73, 64
11, 358657, Note_on_c, 4, 71, 57
11, 358673, Note_off_c, 4, 74, 64
11, 358750, Note_off_c, 4, 71, 64
11, 358788, Note_on_c, 4, 73, 66
11, 358897, Note_on_c, 4, 71, 59
11, 358907, Note_off_c, 4, 73, 64
11, 359007, Note_on_c, 4, 70, 53
11, 359029, Note_off_c, 4, 71, 64
11, 359127, Note_off_c, 4, 70, 64
11, 359135, Note_on_c, 4, 68, 52
11, 359214, Note_off_c, 4, 68, 64
11, 359246, Note_on_c, 4, 66, 57
11, 359324, Note_off_c, 4, 66, 64
11, 359355, Note_on_c, 4, 76, 80
11, 359476, Note_on_c, 4, 74, 63
11, 359515, Note_off_c, 4, 76, 64
11, 359591, Note_off_c, 4, 74, 64
11, 359605, Note_on_c, 4, 73, 53
11, 359709, Note_off_c, 4, 73, 64
11, 359738, Note_on_c, 4, 74, 78
11, 359855, Note_on_c, 4, 69, 60
11, 359879, Note_off_c, 4, 74, 64
11, 359965, Note_off_c, 4, 69, 64
11, 359988, Note_on_c, 4, 67, 52
11, 360099, Note_on_c, 4, 66, 60
11, 360105, Note_off_c, 4, 67, 64
11, 360205, Note_off_c, 4, 66, 64
11, 360214, Note_on_c, 4, 67, 66
11, 360322, Note_off_c, 4, 67, 64
11, 360335, Note_on_c, 4, 74, 78
11, 360450, Note_on_c, 4, 73, 62
11, 360470, Note_off_c, 4, 74, 64
11, 360570, Note_on_c, 4, 71, 70
11, 360579, Note_off_c, 4, 73, 64
11, 360669, Note_off_c, 4, 71, 64
11, 360705, Note_on_c, 4, 73, 61
11, 360813, Note_on_c, 4, 67, 68
11, 360822, Note_off_c, 4, 73, 64
11, 360920, Note_on_c, 4, 66, 58
11, 360937, Note_off_c, 4, 67, 64
11, 361048, Note_on_c, 4, 64, 61
11, 361060, Note_off_c, 4, 66, 64
11, 361159, Note_off_c, 4, 64, 64
11, 361177, Note_on_c, 4, 66, 60
11, 361280, Note_off_c, 4, 66, 64
11, 361287, Note_on_c, 4, 72, 78
11, 361413, Note_on_c, 4, 71, 66
11, 361440, Note_off_c, 4, 72, 64
11, 361533, Note_on_c, 4, 69, 58
11, 361544, Note_off_c, 4, 71, 64
11, 361630, Note_off_c, 4, 69, 64
11, 361661, Note_on_c, 4, 71, 66
11, 361774, Note_on_c, 4, 69, 63
11, 361810, Note_off_c, 4, 71, 64
11, 361896, Note_on_c, 4, 67, 59
11, 361902, Note_off_c, 4, 69, 64
11, 362011, Note_on_c, 4, 69, 68
11, 362018, Note_off_c, 4, 67, 64
11, 362104, Note_off_c, 4, 69, 64
11, 362126, Note_on_c, 4, 71, 74
11, 362250, Note_off_c, 4, 71, 64
11, 362254, Note_on_c, 4, 73, 47
11, 362367, Note_on_c, 4, 75, 60
11, 362390, Note_off_c, 4, 73, 64
11, 362488, Note_on_c, 4, 76, 66
11, 362509, Note_off_c, 4, 75, 64
11, 362591, Note_off_c, 4, 76, 64
11, 362609, Note_on_c, 4, 78, 76
11, 362701, Note_off_c, 4, 78, 64
11, 362721, Note_on_c, 4, 75, 38
11, 362737, Note_on_c, 4, 72, 64
11, 362753, Note_off_c, 4, 75, 64
11, 362865, Note_on_c, 4, 71, 59
11, 362867, Note_off_c, 4, 72, 64
11, 362978, Note_off_c, 4, 71, 64
11, 362978, Note_on_c, 4, 69, 66
11, 363082, Note_off_c, 4, 69, 64
11, 363105, Note_on_c, 4, 71, 70
11, 363253, Note_off_c, 4, 71, 64
11, 392403, Note_on_c, 4, 71, 87
11, 392534, Note_off_c, 4, 71, 64
11, 392565, Note_on_c, 4, 83, 82
11, 392603, Note_off_c, 4, 83, 64
11, 392631, Note_on_c, 4, 81, 76
11, 392707, Note_on_c, 4, 79, 70
11, 392719, Note_off_c, 4, 81, 64
11, 392745, Note_on_c, 4, 81, 64
11, 392748, Note_off_c, 4, 79, 64
11, 392781, Note_on_c, 4, 79, 64
11, 392786, Note_off_c, 4, 81, 64
11, 392807, Note_off_c, 4, 79, 64
11, 392808, Note_on_c, 4, 81, 68
11, 392832, Note_on_c, 4, 79, 68
11, 392835, Note_off_c, 4, 81, 64
11, 392854, Note_on_c, 4, 81, 82
11, 392857, Note_off_c, 4, 79, 64
11, 392875, Note_on_c, 4, 79, 72
11, 392886, Note_off_c, 4, 81, 64
11, 393015, Note_off_c, 4, 79, 64
11, 393036, Note_on_c, 4, 78, 78
11, 393077, Note_off_c, 4, 78, 64
11, 393116, Note_on_c, 4, 78, 70
11, 393492, Note_off_c, 4, 78, 64
11, 393522, Note_on_c, 4, 76, 76
11, 393545, Note_on_c, 4, 74, 72
11, 393558, Note_off_c, 4, 76, 64
11, 393585, Note_off_c, 4, 74, 64
11, 393592, Note_on_c, 4, 76, 80
11, 393717, Note_off_c, 4, 76, 64
11, 393756, Note_on_c, 4, 74, 68
11, 393791, Note_on_c, 4, 73, 63
11, 393799, Note_off_c, 4, 74, 64
11, 393825, Note_off_c, 4, 73, 64
11, 393828, Note_on_c, 4, 74, 78
11, 393944, Note_off_c, 4, 74, 64
11, 393998, Note_on_c, 4, 76, 87
11, 394031, Note_off_c, 4, 76, 64
11, 394069, Note_on_c, 4, 76, 85
11, 394195, Note_on_c, 4, 78, 57
11, 394205, Note_off_c, 4, 76, 64
11, 394680, Note_off_c, 4, 78, 64
11, 394721, Note_on_c, 4, 71, 82
11, 394760, Note_off_c, 4, 71, 64
11, 394792, Note_on_c, 4, 76, 80
11, 395174, Note_off_c, 4, 76, 64
11, 395202, Note_on_c, 4, 76, 78
11, 395243, Note_off_c, 4, 76, 64
11, 395264, Note_on_c, 4, 76, 78
11, 395416, Note_off_c, 4, 76, 64
11, 395451, Note_on_c, 4, 78, 68
11, 395493, Note_off_c, 4, 78, 64
11, 395513, Note_on_c, 4, 76, 70
11, 395594, Note_on_c, 4, 74, 57
11, 395606, Note_off_c, 4, 76, 64
11, 395638, Note_on_c, 4, 76, 61
11, 395642, Note_off_c, 4, 74, 64
11, 395682, Note_on_c, 4, 74, 57
11, 395689, Note_off_c, 4, 76, 64
11, 395711, Note_on_c, 4, 76, 68
11, 395712, Note_off_c, 4, 74, 64
11, 395745, Note_on_c, 4, 74, 80
11, 395749, Note_off_c, 4, 76, 64
11, 395770, Note_off_c, 4, 74, 64
11, 395770, Note_on_c, 4, 76, 76
11, 395799, Note_on_c, 4, 74, 66
11, 395804, Note_off_c, 4, 76, 64
11, 395823, Note_off_c, 4, 74, 64
11, 395823, Note_on_c, 4, 76, 64
11, 395846, Note_off_c, 4, 76, 64
11, 395846, Note_on_c, 4, 74, 64
11, 395865, Note_on_c, 4, 76, 64
11, 395867, Note_off_c, 4, 74, 64
11, 395888, Note_on_c, 4, 74, 66
11, 395900, Note_off_c, 4, 76, 64
11, 395937, Note_off_c, 4, 74, 64
11, 395940, Note_on_c, 4, 73, 57
11, 395954, Note_on_c, 4, 74, 58
11, 395973, Note_off_c, 4, 73, 64
11, 396005, Note_off_c, 4, 74, 64
11, 396011, Note_on_c, 4, 73, 80
11, 396328, Note_off_c, 4, 73, 64
11, 396416, Note_on_c, 4, 82, 61
11, 396460, Note_off_c, 4, 82, 64
11, 396473, Note_on_c, 4, 83, 80
11, 396554, Note_off_c, 4, 83, 64
11, 396652, Note_on_c, 4, 85, 63
11, 396692, Note_off_c, 4, 85, 64
11, 396713, Note_on_c, 4, 78, 64
11, 396804, Note_off_c, 4, 78, 64
11, 396886, Note_on_c, 4, 79, 80
11, 396921, Note_off_c, 4, 79, 64
11, 396956, Note_on_c, 4, 79, 82
11, 397069, Note_on_c, 4, 81, 64
11, 397076, Note_off_c, 4, 79, 64
11, 397570, Note_off_c, 4, 81, 64
11, 397617, Note_on_c, 4, 78, 80
11, 397650, Note_off_c, 4, 78, 64
11, 397683, Note_on_c, 4, 76, 85
11, 397793, Note_on_c, 4, 75, 57
11, 397796, Note_off_c, 4, 76, 64
11, 397889, Note_off_c, 4, 75, 64
11, 397920, Note_on_c, 4, 76, 82
11, 398026, Note_off_c, 4, 76, 64
11, 398104, Note_on_c, 4, 78, 59
11, 398145, Note_off_c, 4, 78, 64
11, 398162, Note_on_c, 4, 79, 85
11, 398276, Note_off_c, 4, 79, 64
11, 398332, Note_on_c, 4, 81, 70
11, 398364, Note_off_c, 4, 81, 64
11, 398404, Note_on_c, 4, 79, 85
11, 398518, Note_on_c, 4, 78, 58
11, 398529, Note_off_c, 4, 79, 64
11, 398989, Note_off_c, 4, 78, 64
11, 399052, Note_on_c, 4, 79, 78
11, 399093, Note_off_c, 4, 79, 64
11, 399113, Note_on_c, 4, 76, 85
11, 399214, Note_off_c, 4, 76, 64
11, 399282, Note_on_c, 4, 71, 72
11, 399325, Note_off_c, 4, 71, 64
11, 399346, Note_on_c, 4, 73, 85
11, 399451, Note_off_c, 4, 73, 64
11, 399513, Note_on_c, 4, 74, 82
11, 399550, Note_off_c, 4, 74, 64
11, 399581, Note_on_c, 4, 74, 87
11, 399703, Note_on_c, 4, 73, 60
11, 399710, Note_off_c, 4, 74, 64
11, 399958, Note_off_c, 4, 73, 64
11, 400011, Note_on_c, 4, 76, 80
11, 400047, Note_off_c, 4, 76, 64
11, 400075, Note_on_c, 4, 81, 85
11, 400451, Note_off_c, 4, 81, 64
11, 400486, Note_on_c, 4, 79, 70
11, 400519, Note_on_c, 4, 78, 60
11, 400531, Note_off_c, 4, 79, 64
11, 400556, Note_off_c, 4, 78, 64
11, 400559, Note_on_c, 4, 83, 85
11, 400659, Note_off_c, 4, 83, 64
11, 400717, Note_on_c, 4, 81, 68
11, 400751, Note_off_c, 4, 81, 64
11, 400783, Note_on_c, 4, 81, 82
11, 400815, Note_on_c, 4, 79, 80
11, 400820, Note_off_c, 4, 81, 64
11, 400839, Note_on_c, 4, 81, 61
11, 400849, Note_off_c, 4, 79, 64
11, 400865, Note_on_c, 4, 79, 70
11, 400872, Note_off_c, 4, 81, 64
11, 400912, Note_off_c, 4, 79, 64
11, 400966, Note_on_c, 4, 78, 80
11, 400997, Note_off_c, 4, 78, 64
11, 401024, Note_on_c, 4, 78, 87
11, 401139, Note_off_c, 4, 78, 64
11, 401142, Note_on_c, 4, 79, 64
11, 401408, Note_off_c, 4, 79, 64
11, 401444, Note_on_c, 4, 73, 57
11, 401470, Note_on_c, 4, 74, 82
11, 401480, Note_off_c, 4, 73, 64
11, 401508, Note_off_c, 4, 74, 64
11, 401519, Note_on_c, 4, 76, 82
11, 401627, Note_off_c, 4, 76, 64
11, 401693, Note_on_c, 4, 74, 68
11, 401725, Note_on_c, 4, 73, 63
11, 401734, Note_off_c, 4, 74, 64
11, 401765, Note_off_c, 4, 73, 64
11, 401768, Note_on_c, 4, 78, 78
11, 402093, Note_off_c, 4, 78, 64
11, 402155, Note_on_c, 4, 71, 72
11, 402182, Note_on_c, 4, 73, 61
11, 402200, Note_off_c, 4, 71, 64
11, 402224, Note_off_c, 4, 73, 64
11, 402229, Note_on_c, 4, 74, 85
11, 402338, Note_off_c, 4, 74, 64
11, 402394, Note_on_c, 4, 73, 57
11, 402426, Note_on_c, 4, 71, 72
11, 402444, Note_off_c, 4, 73, 64
11, 402470, Note_off_c, 4, 71, 64
11, 402472, Note_on_c, 4, 76, 82
11, 402502, Note_on_c, 4, 74, 78
11, 402513, Note_off_c, 4, 76, 64
11, 402540, Note_on_c, 4, 76, 78
11, 402543, Note_off_c, 4, 74, 64
11, 402821, Note_off_c, 4, 76, 64
11, 402882, Note_on_c, 4, 70, 68
11, 402927, Note_off_c, 4, 70, 64
11, 402942, Note_on_c, 4, 71, 72
11, 403043, Note_off_c, 4, 71, 64
11, 403127, Note_on_c, 4, 73, 66
11, 403172, Note_off_c, 4, 73, 64
11, 403189, Note_on_c, 4, 66, 64
11, 403525, Note_off_c, 4, 66, 64
11, 403603, Note_on_c, 4, 79, 85
11, 403640, Note_off_c, 4, 79, 64
11, 403669, Note_on_c, 4, 79, 95
11, 403783, Note_on_c, 4, 78, 63
11, 403800, Note_off_c, 4, 79, 64
11, 404044, Note_off_c, 4, 78, 64
11, 404095, Note_on_c, 4, 76, 78
11, 404144, Note_off_c, 4, 76, 64
11, 404155, Note_on_c, 4, 74, 74
11, 404311, Note_off_c, 4, 74, 64
11, 404390, Note_on_c, 4, 74, 74
11, 404427, Note_on_c, 4, 73, 55
11, 404434, Note_off_c, 4, 74, 64
11, 404451, Note_on_c, 4, 74, 78
11, 404459, Note_off_c, 4, 73, 64
11, 404479, Note_on_c, 4, 73, 68
11, 404491, Note_off_c, 4, 74, 64
11, 404575, Note_on_c, 4, 71, 80
11, 404578, Note_off_c, 4, 73, 64
11, 404619, Note_off_c, 4, 71, 64
11, 404653, Note_on_c, 4, 71, 82
11, 405611, Note_off_c, 4, 71, 64
11, 405611, End_track
0, 0, End_of_file
