0, 0, Header, 1, 15, 240
1, 0, Start_track
1, 0, Time_signature, 3, 2, 24, 8
1, 0, Tempo, 416667
1, 0, Marker_t, "Passepied 1"
1, 40320, Tempo, 422535
1, 41040, Marker_t, "Passepied 2"
1, 80640, Tempo, 416667
1, 80856, Tempo, 504202
1, 81144, Tempo, 441176
1, 81360, Tempo, 416667
1, 81360, Marker_t, "Passepied 1 Repeat"
1, 120492, Tempo, 444444
1, 120648, Tempo, 472441
1, 120732, Tempo, 512821
1, 120864, Tempo, 566038
1, 120960, Tempo, 416667
1, 120960, End_track
2, 0, Start_track
2, 0, Title_t, "Violin1"
2, 0, Program_c, 0, 40
2, 0, Control_c, 0, 7, 100
2, 466, Note_on_c, 0, 67, 72
2, 590, Note_off_c, 0, 67, 64
2, 703, Note_on_c, 0, 72, 80
2, 838, Note_off_c, 0, 72, 64
2, 944, Note_on_c, 0, 76, 85
2, 1060, Note_on_c, 0, 74, 78
2, 1092, Note_off_c, 0, 76, 64
2, 1184, Note_on_c, 0, 72, 68
2, 1206, Note_off_c, 0, 74, 64
2, 1307, Note_on_c, 0, 71, 72
2, 1311, Note_off_c, 0, 72, 64
2, 1386, Note_off_c, 0, 71, 64
2, 1436, Note_on_c, 0, 72, 76
2, 1509, Note_off_c, 0, 72, 64
2, 1550, Note_on_c, 0, 74, 82
2, 1621, Note_off_c, 0, 74, 64
2, 1664, Note_on_c, 0, 76, 82
2, 1732, Note_off_c, 0, 76, 64
2, 1783, Note_on_c, 0, 77, 87
2, 1849, Note_off_c, 0, 77, 64
2, 1917, Note_on_c, 0, 79, 87
2, 2311, Note_off_c, 0, 79, 64
2, 2396, Note_on_c, 0, 81, 85
2, 2513, Note_off_c, 0, 81, 64
2, 2639, Note_on_c, 0, 77, 82
2, 2757, Note_off_c, 0, 77, 64
2, 2874, Note_on_c, 0, 74, 82
2, 3016, Note_off_c, 0, 74, 64
2, 3107, Note_on_c, 0, 72, 85
2, 3215, Note_on_c, 0, 71, 68
2, 3248, Note_off_c, 0, 72, 64
2, 3330, Note_on_c, 0, 69, 72
2, 3351, Note_off_c, 0, 71, 64
2, 3449, Note_on_c, 0, 67, 70
2, 3469, Note_off_c, 0, 69, 64
2, 3539, Note_off_c, 0, 67, 64
2, 3592, Note_on_c, 0, 72, 82
2, 3732, Note_off_c, 0, 72, 64
2, 3836, Note_on_c, 0, 76, 87
2, 3939, Note_on_c, 0, 74, 78
2, 3968, Note_off_c, 0, 76, 64
2, 4063, Note_on_c, 0, 72, 68
2, 4087, Note_off_c, 0, 74, 64
2, 4178, Note_on_c, 0, 71, 64
2, 4196, Note_off_c, 0, 72, 64
2, 4277, Note_off_c, 0, 71, 64
2, 4314, Note_on_c, 0, 74, 87
2, 4427, Note_on_c, 0, 72, 78
2, 4464, Note_off_c, 0, 74, 64
2, 4547, Note_on_c, 0, 71, 66
2, 4578, Note_off_c, 0, 72, 64
2, 4665, Note_on_c, 0, 69, 76
2, 4682, Note_off_c, 0, 71, 64
2, 4751, Note_off_c, 0, 69, 64
2, 4805, Note_on_c, 0, 74, 76
2, 5214, Note_off_c, 0, 74, 64
2, 5283, Note_on_c, 0, 72, 78
2, 5356, Note_off_c, 0, 72, 64
2, 5391, Note_on_c, 0, 71, 70
2, 5466, Note_off_c, 0, 71, 64
2, 5514, Note_on_c, 0, 69, 68
2, 5595, Note_off_c, 0, 69, 64
2, 5630, Note_on_c, 0, 71, 82
2, 5710, Note_off_c, 0, 71, 64
2, 5761, Note_on_c, 0, 67, 80
2, 6102, Note_off_c, 0, 67, 64
2, 6263, Note_on_c, 0, 67, 82
2, 6370, Note_off_c, 0, 67, 64
2, 6481, Note_on_c, 0, 72, 85
2, 6618, Note_off_c, 0, 72, 64
2, 6719, Note_on_c, 0, 76, 85
2, 6822, Note_on_c, 0, 74, 80
2, 6853, Note_off_c, 0, 76, 64
2, 6938, Note_on_c, 0, 72, 64
2, 6961, Note_off_c, 0, 74, 64
2, 7057, Note_on_c, 0, 71, 68
2, 7064, Note_off_c, 0, 72, 64
2, 7148, Note_off_c, 0, 71, 64
2, 7193, Note_on_c, 0, 72, 70
2, 7272, Note_off_c, 0, 72, 64
2, 7309, Note_on_c, 0, 74, 78
2, 7384, Note_off_c, 0, 74, 64
2, 7430, Note_on_c, 0, 76, 80
2, 7498, Note_off_c, 0, 76, 64
2, 7545, Note_on_c, 0, 77, 85
2, 7614, Note_off_c, 0, 77, 64
2, 7676, Note_on_c, 0, 79, 85
2, 8049, Note_off_c, 0, 79, 64
2, 8147, Note_on_c, 0, 81, 82
2, 8266, Note_off_c, 0, 81, 64
2, 8395, Note_on_c, 0, 77, 80
2, 8547, Note_off_c, 0, 77, 64
2, 8635, Note_on_c, 0, 76, 93
2, 8672, Note_on_c, 0, 74, 85
2, 8678, Note_off_c, 0, 76, 64
2, 8707, Note_on_c, 0, 76, 80
2, 8712, Note_off_c, 0, 74, 64
2, 8745, Note_on_c, 0, 74, 70
2, 8761, Note_off_c, 0, 76, 64
2, 8861, Note_off_c, 0, 74, 64
2, 8883, Note_on_c, 0, 72, 89
2, 8989, Note_on_c, 0, 71, 66
2, 9018, Note_off_c, 0, 72, 64
2, 9112, Note_on_c, 0, 69, 63
2, 9120, Note_off_c, 0, 71, 64
2, 9219, Note_on_c, 0, 67, 74
2, 9227, Note_off_c, 0, 69, 64
2, 9302, Note_off_c, 0, 67, 64
2, 9357, Note_on_c, 0, 72, 80
2, 9489, Note_off_c, 0, 72, 64
2, 9600, Note_on_c, 0, 76, 85
2, 9701, Note_on_c, 0, 74, 80
2, 9724, Note_off_c, 0, 76, 64
2, 9818, Note_on_c, 0, 72, 61
2, 9836, Note_off_c, 0, 74, 64
2, 9934, Note_on_c, 0, 71, 62
2, 9949, Note_off_c, 0, 72, 64
2, 10019, Note_off_c, 0, 71, 64
2, 10071, Note_on_c, 0, 74, 87
2, 10182, Note_on_c, 0, 72, 78
2, 10214, Note_off_c, 0, 74, 64
2, 10309, Note_on_c, 0, 71, 61
2, 10330, Note_off_c, 0, 72, 64
2, 10425, Note_on_c, 0, 69, 78
2, 10427, Note_off_c, 0, 71, 64
2, 10500, Note_off_c, 0, 69, 64
2, 10564, Note_on_c, 0, 74, 80
2, 10982, Note_off_c, 0, 74, 64
2, 11039, Note_on_c, 0, 72, 78
2, 11129, Note_off_c, 0, 72, 64
2, 11150, Note_on_c, 0, 71, 72
2, 11221, Note_off_c, 0, 71, 64
2, 11270, Note_on_c, 0, 69, 68
2, 11357, Note_off_c, 0, 69, 64
2, 11391, Note_on_c, 0, 71, 85
2, 11472, Note_off_c, 0, 71, 64
2, 11527, Note_on_c, 0, 67, 80
2, 11843, Note_off_c, 0, 67, 64
2, 40799, Note_on_c, 0, 55, 64
2, 40941, Note_off_c, 0, 55, 64
2, 41044, Note_on_c, 0, 60, 58
2, 41194, Note_off_c, 0, 60, 64
2, 41271, Note_on_c, 0, 64, 68
2, 41387, Note_on_c, 0, 62, 66
2, 41412, Note_off_c, 0, 64, 64
2, 41496, Note_on_c, 0, 60, 61
2, 41500, Note_off_c, 0, 62, 64
2, 41614, Note_on_c, 0, 59, 59
2, 41618, Note_off_c, 0, 60, 64
2, 41698, Note_off_c, 0, 59, 64
2, 41749, Note_on_c, 0, 60, 58
2, 41862, Note_on_c, 0, 62, 64
2, 41888, Note_off_c, 0, 60, 64
2, 41986, Note_on_c, 0, 64, 58
2, 41995, Note_off_c, 0, 62, 64
2, 42098, Note_on_c, 0, 65, 61
2, 42109, Note_off_c, 0, 64, 64
2, 42175, Note_off_c, 0, 65, 64
2, 42224, Note_on_c, 0, 67, 57
2, 42642, Note_off_c, 0, 67, 64
2, 42696, Note_on_c, 0, 69, 55
2, 42807, Note_off_c, 0, 69, 64
2, 42936, Note_on_c, 0, 65, 49
2, 43059, Note_off_c, 0, 65, 64
2, 43181, Note_on_c, 0, 62, 44
2, 43346, Note_off_c, 0, 62, 64
2, 43424, Note_on_c, 0, 60, 66
2, 43541, Note_on_c, 0, 59, 60
2, 43568, Note_off_c, 0, 60, 64
2, 43659, Note_on_c, 0, 57, 49
2, 43669, Note_off_c, 0, 59, 64
2, 43768, Note_on_c, 0, 55, 59
2, 43773, Note_off_c, 0, 57, 64
2, 43838, Note_off_c, 0, 55, 64
2, 43896, Note_on_c, 0, 60, 55
2, 44063, Note_off_c, 0, 60, 64
2, 44147, Note_on_c, 0, 64, 70
2, 44266, Note_on_c, 0, 62, 64
2, 44292, Note_off_c, 0, 64, 64
2, 44390, Note_on_c, 0, 60, 57
2, 44408, Note_off_c, 0, 62, 64
2, 44502, Note_on_c, 0, 59, 52
2, 44505, Note_off_c, 0, 60, 64
2, 44575, Note_off_c, 0, 59, 64
2, 44630, Note_on_c, 0, 62, 66
2, 44736, Note_on_c, 0, 60, 64
2, 44761, Note_off_c, 0, 62, 64
2, 44806, Note_off_c, 0, 60, 64
2, 44866, Note_on_c, 0, 59, 60
2, 44972, Note_on_c, 0, 57, 55
2, 44988, Note_off_c, 0, 59, 64
2, 45058, Note_off_c, 0, 57, 64
2, 45113, Note_on_c, 0, 62, 63
2, 45518, Note_off_c, 0, 62, 64
2, 45588, Note_on_c, 0, 60, 60
2, 45695, Note_on_c, 0, 59, 56
2, 45724, Note_off_c, 0, 60, 64
2, 45776, Note_off_c, 0, 59, 64
2, 45825, Note_on_c, 0, 57, 57
2, 45930, Note_on_c, 0, 59, 59
2, 45959, Note_off_c, 0, 57, 64
2, 46024, Note_off_c, 0, 59, 64
2, 46069, Note_on_c, 0, 55, 57
2, 46398, Note_off_c, 0, 55, 64
2, 46547, Note_on_c, 0, 55, 60
2, 46685, Note_off_c, 0, 55, 64
2, 46787, Note_on_c, 0, 60, 56
2, 46932, Note_off_c, 0, 60, 64
2, 47017, Note_on_c, 0, 64, 56
2, 47142, Note_on_c, 0, 62, 57
2, 47170, Note_off_c, 0, 64, 64
2, 47265, Note_on_c, 0, 60, 58
2, 47275, Note_off_c, 0, 62, 64
2, 47374, Note_on_c, 0, 59, 58
2, 47378, Note_off_c, 0, 60, 64
2, 47459, Note_off_c, 0, 59, 64
2, 47511, Note_on_c, 0, 60, 60
2, 47619, Note_on_c, 0, 62, 64
2, 47644, Note_off_c, 0, 60, 64
2, 47741, Note_on_c, 0, 64, 62
2, 47757, Note_off_c, 0, 62, 64
2, 47856, Note_on_c, 0, 65, 59
2, 47868, Note_off_c, 0, 64, 64
2, 47939, Note_off_c, 0, 65, 64
2, 47979, Note_on_c, 0, 67, 60
2, 48422, Note_off_c, 0, 67, 64
2, 48478, Note_on_c, 0, 69, 60
2, 48610, Note_off_c, 0, 69, 64
2, 48705, Note_on_c, 0, 65, 53
2, 48834, Note_off_c, 0, 65, 64
2, 48952, Note_on_c, 0, 62, 46
2, 49104, Note_off_c, 0, 62, 64
2, 49181, Note_on_c, 0, 60, 62
2, 49295, Note_on_c, 0, 59, 62
2, 49321, Note_off_c, 0, 60, 64
2, 49411, Note_on_c, 0, 57, 52
2, 49420, Note_off_c, 0, 59, 64
2, 49525, Note_on_c, 0, 55, 57
2, 49531, Note_off_c, 0, 57, 64
2, 49599, Note_off_c, 0, 55, 64
2, 49650, Note_on_c, 0, 60, 53
2, 49828, Note_off_c, 0, 60, 64
2, 49906, Note_on_c, 0, 64, 60
2, 50029, Note_on_c, 0, 62, 62
2, 50053, Note_off_c, 0, 64, 64
2, 50141, Note_on_c, 0, 60, 56
2, 50154, Note_off_c, 0, 62, 64
2, 50256, Note_on_c, 0, 59, 51
2, 50259, Note_off_c, 0, 60, 64
2, 50336, Note_off_c, 0, 59, 64
2, 50388, Note_on_c, 0, 62, 63
2, 50492, Note_on_c, 0, 60, 61
2, 50537, Note_off_c, 0, 62, 64
2, 50569, Note_off_c, 0, 60, 64
2, 50618, Note_on_c, 0, 59, 57
2, 50727, Note_on_c, 0, 57, 53
2, 50736, Note_off_c, 0, 59, 64
2, 50814, Note_off_c, 0, 57, 64
2, 50868, Note_on_c, 0, 62, 60
2, 51288, Note_off_c, 0, 62, 64
2, 51328, Note_on_c, 0, 60, 59
2, 51445, Note_on_c, 0, 59, 58
2, 51470, Note_off_c, 0, 60, 64
2, 51534, Note_off_c, 0, 59, 64
2, 51572, Note_on_c, 0, 57, 64
2, 51680, Note_on_c, 0, 59, 61
2, 51705, Note_off_c, 0, 57, 64
2, 51792, Note_off_c, 0, 59, 64
2, 51829, Note_on_c, 0, 55, 66
2, 52143, Note_off_c, 0, 55, 64
2, 81106, Note_on_c, 0, 67, 72
2, 81230, Note_off_c, 0, 67, 64
2, 81343, Note_on_c, 0, 72, 80
2, 81478, Note_off_c, 0, 72, 64
2, 81584, Note_on_c, 0, 76, 85
2, 81700, Note_on_c, 0, 74, 78
2, 81732, Note_off_c, 0, 76, 64
2, 81824, Note_on_c, 0, 72, 68
2, 81846, Note_off_c, 0, 74, 64
2, 81947, Note_on_c, 0, 71, 72
2, 81951, Note_off_c, 0, 72, 64
2, 82026, Note_off_c, 0, 71, 64
2, 82076, Note_on_c, 0, 72, 76
2, 82149, Note_off_c, 0, 72, 64
2, 82190, Note_on_c, 0, 74, 82
2, 82261, Note_off_c, 0, 74, 64
2, 82304, Note_on_c, 0, 76, 82
2, 82372, Note_off_c, 0, 76, 64
2, 82423, Note_on_c, 0, 77, 87
2, 82489, Note_off_c, 0, 77, 64
2, 82557, Note_on_c, 0, 79, 87
2, 82951, Note_off_c, 0, 79, 64
2, 83036, Note_on_c, 0, 81, 85
2, 83153, Note_off_c, 0, 81, 64
2, 83279, Note_on_c, 0, 77, 82
2, 83397, Note_off_c, 0, 77, 64
2, 83514, Note_on_c, 0, 74, 82
2, 83656, Note_off_c, 0, 74, 64
2, 83747, Note_on_c, 0, 72, 85
2, 83855, Note_on_c, 0, 71, 68
2, 83888, Note_off_c, 0, 72, 64
2, 83970, Note_on_c, 0, 69, 72
2, 83991, Note_off_c, 0, 71, 64
2, 84089, Note_on_c, 0, 67, 70
2, 84109, Note_off_c, 0, 69, 64
2, 84179, Note_off_c, 0, 67, 64
2, 84232, Note_on_c, 0, 72, 82
2, 84372, Note_off_c, 0, 72, 64
2, 84476, Note_on_c, 0, 76, 87
2, 84579, Note_on_c, 0, 74, 78
2, 84608, Note_off_c, 0, 76, 64
2, 84703, Note_on_c, 0, 72, 68
2, 84727, Note_off_c, 0, 74, 64
2, 84818, Note_on_c, 0, 71, 64
2, 84836, Note_off_c, 0, 72, 64
2, 84917, Note_off_c, 0, 71, 64
2, 84954, Note_on_c, 0, 74, 87
2, 85067, Note_on_c, 0, 72, 78
2, 85104, Note_off_c, 0, 74, 64
2, 85187, Note_on_c, 0, 71, 66
2, 85218, Note_off_c, 0, 72, 64
2, 85305, Note_on_c, 0, 69, 76
2, 85322, Note_off_c, 0, 71, 64
2, 85391, Note_off_c, 0, 69, 64
2, 85445, Note_on_c, 0, 74, 76
2, 85854, Note_off_c, 0, 74, 64
2, 85923, Note_on_c, 0, 72, 78
2, 85996, Note_off_c, 0, 72, 64
2, 86031, Note_on_c, 0, 71, 70
2, 86106, Note_off_c, 0, 71, 64
2, 86154, Note_on_c, 0, 69, 68
2, 86235, Note_off_c, 0, 69, 64
2, 86270, Note_on_c, 0, 71, 82
2, 86350, Note_off_c, 0, 71, 64
2, 86401, Note_on_c, 0, 67, 80
2, 86742, Note_off_c, 0, 67, 64
2, 86903, Note_on_c, 0, 67, 82
2, 87010, Note_off_c, 0, 67, 64
2, 87121, Note_on_c, 0, 72, 85
2, 87258, Note_off_c, 0, 72, 64
2, 87359, Note_on_c, 0, 76, 85
2, 87462, Note_on_c, 0, 74, 80
2, 87493, Note_off_c, 0, 76, 64
2, 87578, Note_on_c, 0, 72, 64
2, 87601, Note_off_c, 0, 74, 64
2, 87697, Note_on_c, 0, 71, 68
2, 87704, Note_off_c, 0, 72, 64
2, 87788, Note_off_c, 0, 71, 64
2, 87833, Note_on_c, 0, 72, 70
2, 87912, Note_off_c, 0, 72, 64
2, 87949, Note_on_c, 0, 74, 78
2, 88024, Note_off_c, 0, 74, 64
2, 88070, Note_on_c, 0, 76, 80
2, 88138, Note_off_c, 0, 76, 64
2, 88185, Note_on_c, 0, 77, 85
2, 88254, Note_off_c, 0, 77, 64
2, 88316, Note_on_c, 0, 79, 85
2, 88689, Note_off_c, 0, 79, 64
2, 88787, Note_on_c, 0, 81, 82
2, 88906, Note_off_c, 0, 81, 64
2, 89035, Note_on_c, 0, 77, 80
2, 89187, Note_off_c, 0, 77, 64
2, 89275, Note_on_c, 0, 76, 93
2, 89312, Note_on_c, 0, 74, 85
2, 89318, Note_off_c, 0, 76, 64
2, 89347, Note_on_c, 0, 76, 80
2, 89352, Note_off_c, 0, 74, 64
2, 89385, Note_on_c, 0, 74, 70
2, 89401, Note_off_c, 0, 76, 64
2, 89501, Note_off_c, 0, 74, 64
2, 89523, Note_on_c, 0, 72, 89
2, 89629, Note_on_c, 0, 71, 66
2, 89658, Note_off_c, 0, 72, 64
2, 89752, Note_on_c, 0, 69, 63
2, 89760, Note_off_c, 0, 71, 64
2, 89859, Note_on_c, 0, 67, 74
2, 89867, Note_off_c, 0, 69, 64
2, 89942, Note_off_c, 0, 67, 64
2, 89997, Note_on_c, 0, 72, 80
2, 90129, Note_off_c, 0, 72, 64
2, 90240, Note_on_c, 0, 76, 85
2, 90341, Note_on_c, 0, 74, 80
2, 90364, Note_off_c, 0, 76, 64
2, 90458, Note_on_c, 0, 72, 61
2, 90476, Note_off_c, 0, 74, 64
2, 90574, Note_on_c, 0, 71, 62
2, 90589, Note_off_c, 0, 72, 64
2, 90659, Note_off_c, 0, 71, 64
2, 90711, Note_on_c, 0, 74, 87
2, 90822, Note_on_c, 0, 72, 78
2, 90854, Note_off_c, 0, 74, 64
2, 90949, Note_on_c, 0, 71, 61
2, 90970, Note_off_c, 0, 72, 64
2, 91065, Note_on_c, 0, 69, 78
2, 91067, Note_off_c, 0, 71, 64
2, 91140, Note_off_c, 0, 69, 64
2, 91204, Note_on_c, 0, 74, 80
2, 91622, Note_off_c, 0, 74, 64
2, 91679, Note_on_c, 0, 72, 78
2, 91769, Note_off_c, 0, 72, 64
2, 91790, Note_on_c, 0, 71, 72
2, 91861, Note_off_c, 0, 71, 64
2, 91910, Note_on_c, 0, 69, 68
2, 91997, Note_off_c, 0, 69, 64
2, 92031, Note_on_c, 0, 71, 85
2, 92112, Note_off_c, 0, 71, 64
2, 92167, Note_on_c, 0, 67, 80
2, 92483, Note_off_c, 0, 67, 64
2, 92483, End_track
3, 0, Start_track
3, 0, Title_t, "Violin2"
3, 0, Program_c, 1, 40
3, 0, Control_c, 1, 7, 100
3, 468, Note_on_c, 1, 64, 68
3, 560, Note_off_c, 1, 64, 64
3, 709, Note_on_c, 1, 64, 64
3, 860, Note_off_c, 1, 64, 64
3, 954, Note_on_c, 1, 67, 80
3, 1070, Note_on_c, 1, 65, 68
3, 1102, Note_off_c, 1, 67, 64
3, 1186, Note_on_c, 1, 64, 66
3, 1203, Note_off_c, 1, 65, 64
3, 1297, Note_on_c, 1, 62, 74
3, 1303, Note_off_c, 1, 64, 64
3, 1380, Note_off_c, 1, 62, 64
3, 1428, Note_on_c, 1, 64, 66
3, 1509, Note_off_c, 1, 64, 64
3, 1540, Note_on_c, 1, 65, 76
3, 1626, Note_off_c, 1, 65, 64
3, 1663, Note_on_c, 1, 67, 68
3, 1727, Note_off_c, 1, 67, 64
3, 1777, Note_on_c, 1, 69, 70
3, 1843, Note_off_c, 1, 69, 64
3, 1900, Note_on_c, 1, 71, 70
3, 2044, Note_off_c, 1, 71, 64
3, 2158, Note_on_c, 1, 72, 80
3, 2514, Note_off_c, 1, 72, 64
3, 2631, Note_on_c, 1, 72, 70
3, 2757, Note_off_c, 1, 72, 64
3, 2870, Note_on_c, 1, 71, 76
3, 3016, Note_off_c, 1, 71, 64
3, 3107, Note_on_c, 1, 72, 68
3, 3215, Note_off_c, 1, 72, 64
3, 3349, Note_on_c, 1, 74, 80
3, 3451, Note_off_c, 1, 74, 64
3, 3587, Note_on_c, 1, 67, 66
3, 3964, Note_off_c, 1, 67, 64
3, 4083, Note_on_c, 1, 67, 68
3, 4188, Note_off_c, 1, 67, 64
3, 4313, Note_on_c, 1, 69, 78
3, 4683, Note_off_c, 1, 69, 64
3, 4787, Note_on_c, 1, 69, 76
3, 4943, Note_off_c, 1, 69, 64
3, 5032, Note_on_c, 1, 71, 68
3, 5141, Note_off_c, 1, 71, 64
3, 5274, Note_on_c, 1, 67, 76
3, 5380, Note_off_c, 1, 67, 64
3, 5512, Note_on_c, 1, 66, 72
3, 5611, Note_off_c, 1, 66, 64
3, 5756, Note_on_c, 1, 62, 82
3, 6104, Note_off_c, 1, 62, 64
3, 6236, Note_on_c, 1, 64, 80
3, 6339, Note_off_c, 1, 64, 64
3, 6482, Note_on_c, 1, 64, 76
3, 6652, Note_off_c, 1, 64, 64
3, 6725, Note_on_c, 1, 67, 80
3, 6829, Note_on_c, 1, 65, 70
3, 6865, Note_off_c, 1, 67, 64
3, 6940, Note_on_c, 1, 64, 64
3, 6956, Note_off_c, 1, 65, 64
3, 7063, Note_on_c, 1, 62, 76
3, 7072, Note_off_c, 1, 64, 64
3, 7142, Note_off_c, 1, 62, 64
3, 7197, Note_on_c, 1, 64, 70
3, 7280, Note_off_c, 1, 64, 64
3, 7309, Note_on_c, 1, 65, 70
3, 7390, Note_off_c, 1, 65, 64
3, 7424, Note_on_c, 1, 67, 72
3, 7492, Note_off_c, 1, 67, 64
3, 7537, Note_on_c, 1, 69, 74
3, 7605, Note_off_c, 1, 69, 64
3, 7658, Note_on_c, 1, 71, 78
3, 7777, Note_off_c, 1, 71, 64
3, 7898, Note_on_c, 1, 72, 80
3, 8281, Note_off_c, 1, 72, 64
3, 8388, Note_on_c, 1, 72, 85
3, 8488, Note_off_c, 1, 72, 64
3, 8622, Note_on_c, 1, 71, 80
3, 8765, Note_off_c, 1, 71, 64
3, 8862, Note_on_c, 1, 72, 78
3, 8978, Note_off_c, 1, 72, 64
3, 9107, Note_on_c, 1, 74, 82
3, 9222, Note_off_c, 1, 74, 64
3, 9345, Note_on_c, 1, 67, 70
3, 9733, Note_off_c, 1, 67, 64
3, 9833, Note_on_c, 1, 67, 61
3, 9960, Note_off_c, 1, 67, 64
3, 10078, Note_on_c, 1, 69, 78
3, 10487, Note_off_c, 1, 69, 64
3, 10558, Note_on_c, 1, 69, 78
3, 10692, Note_off_c, 1, 69, 64
3, 10800, Note_on_c, 1, 71, 82
3, 10925, Note_off_c, 1, 71, 64
3, 11031, Note_on_c, 1, 67, 74
3, 11148, Note_off_c, 1, 67, 64
3, 11273, Note_on_c, 1, 66, 74
3, 11380, Note_off_c, 1, 66, 64
3, 11514, Note_on_c, 1, 62, 72
3, 11830, Note_off_c, 1, 62, 64
3, 40792, Note_on_c, 1, 55, 68
3, 40909, Note_off_c, 1, 55, 64
3, 41024, Note_on_c, 1, 60, 62
3, 41197, Note_off_c, 1, 60, 64
3, 41267, Note_on_c, 1, 64, 63
3, 41383, Note_on_c, 1, 62, 68
3, 41408, Note_off_c, 1, 64, 64
3, 41495, Note_on_c, 1, 60, 58
3, 41510, Note_off_c, 1, 62, 64
3, 41619, Note_on_c, 1, 59, 60
3, 41630, Note_off_c, 1, 60, 64
3, 41701, Note_off_c, 1, 59, 64
3, 41750, Note_on_c, 1, 60, 58
3, 41858, Note_on_c, 1, 62, 60
3, 41879, Note_off_c, 1, 60, 64
3, 41987, Note_on_c, 1, 64, 58
3, 42001, Note_off_c, 1, 62, 64
3, 42102, Note_on_c, 1, 65, 63
3, 42117, Note_off_c, 1, 64, 64
3, 42183, Note_off_c, 1, 65, 64
3, 42213, Note_on_c, 1, 67, 68
3, 42628, Note_off_c, 1, 67, 64
3, 42704, Note_on_c, 1, 69, 64
3, 42807, Note_off_c, 1, 69, 64
3, 42933, Note_on_c, 1, 65, 58
3, 43049, Note_off_c, 1, 65, 64
3, 43169, Note_on_c, 1, 62, 63
3, 43359, Note_off_c, 1, 62, 64
3, 43420, Note_on_c, 1, 60, 63
3, 43533, Note_on_c, 1, 59, 64
3, 43568, Note_off_c, 1, 60, 64
3, 43655, Note_on_c, 1, 57, 54
3, 43661, Note_off_c, 1, 59, 64
3, 43773, Note_on_c, 1, 55, 66
3, 43779, Note_off_c, 1, 57, 64
3, 43860, Note_off_c, 1, 55, 64
3, 43899, Note_on_c, 1, 60, 58
3, 44077, Note_off_c, 1, 60, 64
3, 44147, Note_on_c, 1, 64, 64
3, 44267, Note_on_c, 1, 62, 66
3, 44295, Note_off_c, 1, 64, 64
3, 44382, Note_on_c, 1, 60, 57
3, 44394, Note_off_c, 1, 62, 64
3, 44501, Note_on_c, 1, 59, 52
3, 44511, Note_off_c, 1, 60, 64
3, 44583, Note_off_c, 1, 59, 64
3, 44626, Note_on_c, 1, 62, 66
3, 44730, Note_on_c, 1, 60, 64
3, 44759, Note_off_c, 1, 62, 64
3, 44811, Note_off_c, 1, 60, 64
3, 44857, Note_on_c, 1, 59, 64
3, 44973, Note_on_c, 1, 57, 61
3, 44985, Note_off_c, 1, 59, 64
3, 45056, Note_off_c, 1, 57, 64
3, 45115, Note_on_c, 1, 62, 64
3, 45507, Note_off_c, 1, 62, 64
3, 45590, Note_on_c, 1, 60, 66
3, 45699, Note_on_c, 1, 59, 66
3, 45720, Note_off_c, 1, 60, 64
3, 45780, Note_off_c, 1, 59, 64
3, 45833, Note_on_c, 1, 57, 63
3, 45936, Note_on_c, 1, 59, 74
3, 45959, Note_off_c, 1, 57, 64
3, 46040, Note_off_c, 1, 59, 64
3, 46087, Note_on_c, 1, 55, 66
3, 46419, Note_off_c, 1, 55, 64
3, 46551, Note_on_c, 1, 55, 70
3, 46659, Note_off_c, 1, 55, 64
3, 46782, Note_on_c, 1, 60, 64
3, 46947, Note_off_c, 1, 60, 64
3, 47029, Note_on_c, 1, 64, 64
3, 47145, Note_on_c, 1, 62, 68
3, 47175, Note_off_c, 1, 64, 64
3, 47261, Note_on_c, 1, 60, 60
3, 47281, Note_off_c, 1, 62, 64
3, 47385, Note_on_c, 1, 59, 62
3, 47392, Note_off_c, 1, 60, 64
3, 47468, Note_off_c, 1, 59, 64
3, 47512, Note_on_c, 1, 60, 64
3, 47621, Note_on_c, 1, 62, 66
3, 47645, Note_off_c, 1, 60, 64
3, 47744, Note_on_c, 1, 64, 68
3, 47764, Note_off_c, 1, 62, 64
3, 47861, Note_on_c, 1, 65, 70
3, 47877, Note_off_c, 1, 64, 64
3, 47950, Note_off_c, 1, 65, 64
3, 47984, Note_on_c, 1, 67, 70
3, 48413, Note_off_c, 1, 67, 64
3, 48471, Note_on_c, 1, 69, 60
3, 48578, Note_off_c, 1, 69, 64
3, 48708, Note_on_c, 1, 65, 64
3, 48815, Note_off_c, 1, 65, 64
3, 48936, Note_on_c, 1, 62, 57
3, 49122, Note_off_c, 1, 62, 64
3, 49183, Note_on_c, 1, 60, 66
3, 49290, Note_on_c, 1, 59, 63
3, 49323, Note_off_c, 1, 60, 64
3, 49407, Note_on_c, 1, 57, 54
3, 49411, Note_off_c, 1, 59, 64
3, 49530, Note_off_c, 1, 57, 64
3, 49530, Note_on_c, 1, 55, 60
3, 49609, Note_off_c, 1, 55, 64
3, 49654, Note_on_c, 1, 60, 58
3, 49827, Note_off_c, 1, 60, 64
3, 49910, Note_on_c, 1, 64, 68
3, 50025, Note_on_c, 1, 62, 64
3, 50050, Note_off_c, 1, 64, 64
3, 50140, Note_on_c, 1, 60, 56
3, 50161, Note_off_c, 1, 62, 64
3, 50252, Note_on_c, 1, 59, 53
3, 50264, Note_off_c, 1, 60, 64
3, 50340, Note_off_c, 1, 59, 64
3, 50384, Note_on_c, 1, 62, 66
3, 50484, Note_on_c, 1, 60, 64
3, 50515, Note_off_c, 1, 62, 64
3, 50565, Note_off_c, 1, 60, 64
3, 50612, Note_on_c, 1, 59, 62
3, 50727, Note_on_c, 1, 57, 59
3, 50743, Note_off_c, 1, 59, 64
3, 50821, Note_off_c, 1, 57, 64
3, 50866, Note_on_c, 1, 62, 66
3, 51274, Note_off_c, 1, 62, 64
3, 51337, Note_on_c, 1, 60, 64
3, 51451, Note_on_c, 1, 59, 60
3, 51474, Note_off_c, 1, 60, 64
3, 51538, Note_off_c, 1, 59, 64
3, 51579, Note_on_c, 1, 57, 70
3, 51688, Note_on_c, 1, 59, 64
3, 51708, Note_off_c, 1, 57, 64
3, 51803, Note_off_c, 1, 59, 64
3, 51836, Note_on_c, 1, 55, 60
3, 52141, Note_off_c, 1, 55, 64
3, 81108, Note_on_c, 1, 64, 68
3, 81200, Note_off_c, 1, 64, 64
3, 81349, Note_on_c, 1, 64, 64
3, 81500, Note_off_c, 1, 64, 64
3, 81594, Note_on_c, 1, 67, 80
3, 81710, Note_on_c, 1, 65, 68
3, 81742, Note_off_c, 1, 67, 64
3, 81826, Note_on_c, 1, 64, 66
3, 81843, Note_off_c, 1, 65, 64
3, 81937, Note_on_c, 1, 62, 74
3, 81943, Note_off_c, 1, 64, 64
3, 82020, Note_off_c, 1, 62, 64
3, 82068, Note_on_c, 1, 64, 66
3, 82149, Note_off_c, 1, 64, 64
3, 82180, Note_on_c, 1, 65, 76
3, 82266, Note_off_c, 1, 65, 64
3, 82303, Note_on_c, 1, 67, 68
3, 82367, Note_off_c, 1, 67, 64
3, 82417, Note_on_c, 1, 69, 70
3, 82483, Note_off_c, 1, 69, 64
3, 82540, Note_on_c, 1, 71, 70
3, 82684, Note_off_c, 1, 71, 64
3, 82798, Note_on_c, 1, 72, 80
3, 83154, Note_off_c, 1, 72, 64
3, 83271, Note_on_c, 1, 72, 70
3, 83397, Note_off_c, 1, 72, 64
3, 83510, Note_on_c, 1, 71, 76
3, 83656, Note_off_c, 1, 71, 64
3, 83747, Note_on_c, 1, 72, 68
3, 83855, Note_off_c, 1, 72, 64
3, 83989, Note_on_c, 1, 74, 80
3, 84091, Note_off_c, 1, 74, 64
3, 84227, Note_on_c, 1, 67, 66
3, 84604, Note_off_c, 1, 67, 64
3, 84723, Note_on_c, 1, 67, 68
3, 84828, Note_off_c, 1, 67, 64
3, 84953, Note_on_c, 1, 69, 78
3, 85323, Note_off_c, 1, 69, 64
3, 85427, Note_on_c, 1, 69, 76
3, 85583, Note_off_c, 1, 69, 64
3, 85672, Note_on_c, 1, 71, 68
3, 85781, Note_off_c, 1, 71, 64
3, 85914, Note_on_c, 1, 67, 76
3, 86020, Note_off_c, 1, 67, 64
3, 86152, Note_on_c, 1, 66, 72
3, 86251, Note_off_c, 1, 66, 64
3, 86396, Note_on_c, 1, 62, 82
3, 86744, Note_off_c, 1, 62, 64
3, 86876, Note_on_c, 1, 64, 80
3, 86979, Note_off_c, 1, 64, 64
3, 87122, Note_on_c, 1, 64, 76
3, 87292, Note_off_c, 1, 64, 64
3, 87365, Note_on_c, 1, 67, 80
3, 87469, Note_on_c, 1, 65, 70
3, 87505, Note_off_c, 1, 67, 64
3, 87580, Note_on_c, 1, 64, 64
3, 87596, Note_off_c, 1, 65, 64
3, 87703, Note_on_c, 1, 62, 76
3, 87712, Note_off_c, 1, 64, 64
3, 87782, Note_off_c, 1, 62, 64
3, 87837, Note_on_c, 1, 64, 70
3, 87920, Note_off_c, 1, 64, 64
3, 87949, Note_on_c, 1, 65, 70
3, 88030, Note_off_c, 1, 65, 64
3, 88064, Note_on_c, 1, 67, 72
3, 88132, Note_off_c, 1, 67, 64
3, 88177, Note_on_c, 1, 69, 74
3, 88245, Note_off_c, 1, 69, 64
3, 88298, Note_on_c, 1, 71, 78
3, 88417, Note_off_c, 1, 71, 64
3, 88538, Note_on_c, 1, 72, 80
3, 88921, Note_off_c, 1, 72, 64
3, 89028, Note_on_c, 1, 72, 85
3, 89128, Note_off_c, 1, 72, 64
3, 89262, Note_on_c, 1, 71, 80
3, 89405, Note_off_c, 1, 71, 64
3, 89502, Note_on_c, 1, 72, 78
3, 89618, Note_off_c, 1, 72, 64
3, 89747, Note_on_c, 1, 74, 82
3, 89862, Note_off_c, 1, 74, 64
3, 89985, Note_on_c, 1, 67, 70
3, 90373, Note_off_c, 1, 67, 64
3, 90473, Note_on_c, 1, 67, 61
3, 90600, Note_off_c, 1, 67, 64
3, 90718, Note_on_c, 1, 69, 78
3, 91127, Note_off_c, 1, 69, 64
3, 91198, Note_on_c, 1, 69, 78
3, 91332, Note_off_c, 1, 69, 64
3, 91440, Note_on_c, 1, 71, 82
3, 91565, Note_off_c, 1, 71, 64
3, 91671, Note_on_c, 1, 67, 74
3, 91788, Note_off_c, 1, 67, 64
3, 91913, Note_on_c, 1, 66, 74
3, 92020, Note_off_c, 1, 66, 64
3, 92154, Note_on_c, 1, 62, 72
3, 92470, Note_off_c, 1, 62, 64
3, 92470, End_track
4, 0, Start_track
4, 0, Title_t, "Viola"
4, 0, Program_c, 2, 41
4, 0, Control_c, 2, 7, 100
4, 468, Note_on_c, 2, 60, 70
4, 569, Note_off_c, 2, 60, 64
4, 713, Note_on_c, 2, 55, 70
4, 1068, Note_off_c, 2, 55, 64
4, 1184, Note_on_c, 2, 55, 70
4, 1297, Note_off_c, 2, 55, 64
4, 1431, Note_on_c, 2, 60, 68
4, 1777, Note_off_c, 2, 60, 64
4, 1906, Note_on_c, 2, 62, 78
4, 2029, Note_off_c, 2, 62, 64
4, 2151, Note_on_c, 2, 64, 80
4, 2255, Note_off_c, 2, 64, 64
4, 2386, Note_on_c, 2, 60, 68
4, 2506, Note_off_c, 2, 60, 64
4, 2632, Note_on_c, 2, 65, 74
4, 2753, Note_off_c, 2, 65, 64
4, 2875, Note_on_c, 2, 67, 60
4, 3002, Note_off_c, 2, 67, 64
4, 3104, Note_on_c, 2, 69, 74
4, 3225, Note_off_c, 2, 69, 64
4, 3349, Note_on_c, 2, 71, 87
4, 3459, Note_off_c, 2, 71, 64
4, 3599, Note_on_c, 2, 72, 82
4, 3727, Note_off_c, 2, 72, 64
4, 3843, Note_on_c, 2, 60, 66
4, 3947, Note_off_c, 2, 60, 64
4, 4074, Note_on_c, 2, 62, 80
4, 4166, Note_off_c, 2, 62, 64
4, 4302, Note_on_c, 2, 64, 85
4, 4668, Note_off_c, 2, 64, 64
4, 4780, Note_on_c, 2, 62, 78
4, 4892, Note_off_c, 2, 62, 64
4, 5033, Note_on_c, 2, 67, 85
4, 5140, Note_off_c, 2, 67, 64
4, 5270, Note_on_c, 2, 62, 80
4, 5381, Note_off_c, 2, 62, 64
4, 5520, Note_on_c, 2, 60, 74
4, 5618, Note_off_c, 2, 60, 64
4, 5756, Note_on_c, 2, 59, 74
4, 6117, Note_off_c, 2, 59, 64
4, 6227, Note_on_c, 2, 60, 74
4, 6338, Note_off_c, 2, 60, 64
4, 6475, Note_on_c, 2, 55, 78
4, 6856, Note_off_c, 2, 55, 64
4, 6973, Note_on_c, 2, 55, 80
4, 7074, Note_off_c, 2, 55, 64
4, 7196, Note_on_c, 2, 60, 68
4, 7564, Note_off_c, 2, 60, 64
4, 7667, Note_on_c, 2, 62, 82
4, 7796, Note_off_c, 2, 62, 64
4, 7914, Note_on_c, 2, 64, 85
4, 8026, Note_off_c, 2, 64, 64
4, 8155, Note_on_c, 2, 60, 74
4, 8257, Note_off_c, 2, 60, 64
4, 8390, Note_on_c, 2, 65, 80
4, 8518, Note_off_c, 2, 65, 64
4, 8629, Note_on_c, 2, 67, 72
4, 8761, Note_off_c, 2, 67, 64
4, 8865, Note_on_c, 2, 69, 80
4, 8988, Note_off_c, 2, 69, 64
4, 9109, Note_on_c, 2, 71, 85
4, 9217, Note_off_c, 2, 71, 64
4, 9353, Note_on_c, 2, 72, 74
4, 9496, Note_off_c, 2, 72, 64
4, 9595, Note_on_c, 2, 60, 72
4, 9694, Note_off_c, 2, 60, 64
4, 9841, Note_on_c, 2, 62, 85
4, 9940, Note_off_c, 2, 62, 64
4, 10081, Note_on_c, 2, 64, 85
4, 10455, Note_off_c, 2, 64, 64
4, 10547, Note_on_c, 2, 62, 66
4, 10661, Note_off_c, 2, 62, 64
4, 10797, Note_on_c, 2, 67, 85
4, 10902, Note_off_c, 2, 67, 64
4, 11032, Note_on_c, 2, 62, 82
4, 11145, Note_off_c, 2, 62, 64
4, 11277, Note_on_c, 2, 60, 72
4, 11384, Note_off_c, 2, 60, 64
4, 11520, Note_on_c, 2, 59, 82
4, 11806, Note_off_c, 2, 59, 64
4, 40792, Note_on_c, 2, 55, 60
4, 40934, Note_off_c, 2, 55, 64
4, 41021, Note_on_c, 2, 60, 57
4, 41193, Note_off_c, 2, 60, 64
4, 41276, Note_on_c, 2, 64, 66
4, 41395, Note_on_c, 2, 62, 64
4, 41423, Note_off_c, 2, 64, 64
4, 41515, Note_on_c, 2, 60, 52
4, 41531, Note_off_c, 2, 62, 64
4, 41628, Note_on_c, 2, 59, 62
4, 41651, Note_off_c, 2, 60, 64
4, 41723, Note_off_c, 2, 59, 64
4, 41747, Note_on_c, 2, 60, 59
4, 41874, Note_on_c, 2, 62, 64
4, 41891, Note_off_c, 2, 60, 64
4, 42002, Note_on_c, 2, 64, 66
4, 42022, Note_off_c, 2, 62, 64
4, 42108, Note_on_c, 2, 65, 60
4, 42137, Note_off_c, 2, 64, 64
4, 42195, Note_off_c, 2, 65, 64
4, 42237, Note_on_c, 2, 67, 66
4, 42646, Note_off_c, 2, 67, 64
4, 42707, Note_on_c, 2, 69, 66
4, 42826, Note_off_c, 2, 69, 64
4, 42944, Note_on_c, 2, 65, 62
4, 43061, Note_off_c, 2, 65, 64
4, 43169, Note_on_c, 2, 62, 63
4, 43361, Note_off_c, 2, 62, 64
4, 43414, Note_on_c, 2, 60, 60
4, 43529, Note_on_c, 2, 59, 64
4, 43552, Note_off_c, 2, 60, 64
4, 43655, Note_on_c, 2, 57, 59
4, 43664, Note_off_c, 2, 59, 64
4, 43768, Note_on_c, 2, 55, 59
4, 43773, Note_off_c, 2, 57, 64
4, 43862, Note_off_c, 2, 55, 64
4, 43898, Note_on_c, 2, 60, 56
4, 44072, Note_off_c, 2, 60, 64
4, 44147, Note_on_c, 2, 64, 70
4, 44264, Note_on_c, 2, 62, 64
4, 44294, Note_off_c, 2, 64, 64
4, 44370, Note_on_c, 2, 60, 55
4, 44389, Note_off_c, 2, 62, 64
4, 44490, Note_on_c, 2, 59, 61
4, 44507, Note_off_c, 2, 60, 64
4, 44572, Note_off_c, 2, 59, 64
4, 44618, Note_on_c, 2, 62, 66
4, 44730, Note_on_c, 2, 60, 57
4, 44763, Note_off_c, 2, 62, 64
4, 44806, Note_off_c, 2, 60, 64
4, 44865, Note_on_c, 2, 59, 72
4, 44965, Note_on_c, 2, 57, 68
4, 44979, Note_off_c, 2, 59, 64
4, 45045, Note_off_c, 2, 57, 64
4, 45108, Note_on_c, 2, 62, 70
4, 45508, Note_off_c, 2, 62, 64
4, 45578, Note_on_c, 2, 60, 63
4, 45689, Note_on_c, 2, 59, 66
4, 45715, Note_off_c, 2, 60, 64
4, 45759, Note_off_c, 2, 59, 64
4, 45826, Note_on_c, 2, 57, 60
4, 45933, Note_on_c, 2, 59, 68
4, 45951, Note_off_c, 2, 57, 64
4, 46015, Note_off_c, 2, 59, 64
4, 46065, Note_on_c, 2, 55, 54
4, 46391, Note_off_c, 2, 55, 64
4, 46536, Note_on_c, 2, 55, 61
4, 46675, Note_off_c, 2, 55, 64
4, 46786, Note_on_c, 2, 60, 53
4, 46923, Note_off_c, 2, 60, 64
4, 47029, Note_on_c, 2, 64, 68
4, 47149, Note_on_c, 2, 62, 68
4, 47183, Note_off_c, 2, 64, 64
4, 47258, Note_on_c, 2, 60, 52
4, 47274, Note_off_c, 2, 62, 64
4, 47381, Note_on_c, 2, 59, 60
4, 47392, Note_off_c, 2, 60, 64
4, 47460, Note_off_c, 2, 59, 64
4, 47509, Note_on_c, 2, 60, 60
4, 47629, Note_on_c, 2, 62, 53
4, 47660, Note_off_c, 2, 60, 64
4, 47749, Note_on_c, 2, 64, 58
4, 47760, Note_off_c, 2, 62, 64
4, 47859, Note_on_c, 2, 65, 60
4, 47869, Note_off_c, 2, 64, 64
4, 47953, Note_off_c, 2, 65, 64
4, 47988, Note_on_c, 2, 67, 68
4, 48399, Note_off_c, 2, 67, 64
4, 48470, Note_on_c, 2, 69, 60
4, 48581, Note_off_c, 2, 69, 64
4, 48698, Note_on_c, 2, 65, 52
4, 48830, Note_off_c, 2, 65, 64
4, 48933, Note_on_c, 2, 62, 52
4, 49106, Note_off_c, 2, 62, 64
4, 49179, Note_on_c, 2, 60, 60
4, 49294, Note_on_c, 2, 59, 60
4, 49316, Note_off_c, 2, 60, 64
4, 49411, Note_off_c, 2, 59, 64
4, 49415, Note_on_c, 2, 57, 50
4, 49531, Note_on_c, 2, 55, 59
4, 49535, Note_off_c, 2, 57, 64
4, 49612, Note_off_c, 2, 55, 64
4, 49659, Note_on_c, 2, 60, 58
4, 49820, Note_off_c, 2, 60, 64
4, 49911, Note_on_c, 2, 64, 74
4, 50029, Note_on_c, 2, 62, 66
4, 50055, Note_off_c, 2, 64, 64
4, 50135, Note_on_c, 2, 60, 47
4, 50138, Note_off_c, 2, 62, 64
4, 50252, Note_on_c, 2, 59, 57
4, 50268, Note_off_c, 2, 60, 64
4, 50335, Note_off_c, 2, 59, 64
4, 50383, Note_on_c, 2, 62, 70
4, 50484, Note_on_c, 2, 60, 55
4, 50517, Note_off_c, 2, 62, 64
4, 50564, Note_off_c, 2, 60, 64
4, 50619, Note_on_c, 2, 59, 64
4, 50718, Note_on_c, 2, 57, 60
4, 50740, Note_off_c, 2, 59, 64
4, 50804, Note_off_c, 2, 57, 64
4, 50871, Note_on_c, 2, 62, 68
4, 51274, Note_off_c, 2, 62, 64
4, 51342, Note_on_c, 2, 60, 55
4, 51455, Note_on_c, 2, 59, 66
4, 51478, Note_off_c, 2, 60, 64
4, 51535, Note_off_c, 2, 59, 64
4, 51590, Note_on_c, 2, 57, 61
4, 51694, Note_on_c, 2, 59, 60
4, 51705, Note_off_c, 2, 57, 64
4, 51782, Note_off_c, 2, 59, 64
4, 51833, Note_on_c, 2, 55, 66
4, 52108, Note_off_c, 2, 55, 64
4, 81108, Note_on_c, 2, 60, 70
4, 81209, Note_off_c, 2, 60, 64
4, 81353, Note_on_c, 2, 55, 70
4, 81708, Note_off_c, 2, 55, 64
4, 81824, Note_on_c, 2, 55, 70
4, 81937, Note_off_c, 2, 55, 64
4, 82071, Note_on_c, 2, 60, 68
4, 82417, Note_off_c, 2, 60, 64
4, 82546, Note_on_c, 2, 62, 78
4, 82669, Note_off_c, 2, 62, 64
4, 82791, Note_on_c, 2, 64, 80
4, 82895, Note_off_c, 2, 64, 64
4, 83026, Note_on_c, 2, 60, 68
4, 83146, Note_off_c, 2, 60, 64
4, 83272, Note_on_c, 2, 65, 74
4, 83393, Note_off_c, 2, 65, 64
4, 83515, Note_on_c, 2, 67, 60
4, 83642, Note_off_c, 2, 67, 64
4, 83744, Note_on_c, 2, 69, 74
4, 83865, Note_off_c, 2, 69, 64
4, 83989, Note_on_c, 2, 71, 87
4, 84099, Note_off_c, 2, 71, 64
4, 84239, Note_on_c, 2, 72, 82
4, 84367, Note_off_c, 2, 72, 64
4, 84483, Note_on_c, 2, 60, 66
4, 84587, Note_off_c, 2, 60, 64
4, 84714, Note_on_c, 2, 62, 80
4, 84806, Note_off_c, 2, 62, 64
4, 84942, Note_on_c, 2, 64, 85
4, 85308, Note_off_c, 2, 64, 64
4, 85420, Note_on_c, 2, 62, 78
4, 85532, Note_off_c, 2, 62, 64
4, 85673, Note_on_c, 2, 67, 85
4, 85780, Note_off_c, 2, 67, 64
4, 85910, Note_on_c, 2, 62, 80
4, 86021, Note_off_c, 2, 62, 64
4, 86160, Note_on_c, 2, 60, 74
4, 86258, Note_off_c, 2, 60, 64
4, 86396, Note_on_c, 2, 59, 74
4, 86757, Note_off_c, 2, 59, 64
4, 86867, Note_on_c, 2, 60, 74
4, 86978, Note_off_c, 2, 60, 64
4, 87115, Note_on_c, 2, 55, 78
4, 87496, Note_off_c, 2, 55, 64
4, 87613, Note_on_c, 2, 55, 80
4, 87714, Note_off_c, 2, 55, 64
4, 87836, Note_on_c, 2, 60, 68
4, 88204, Note_off_c, 2, 60, 64
4, 88307, Note_on_c, 2, 62, 82
4, 88436, Note_off_c, 2, 62, 64
4, 88554, Note_on_c, 2, 64, 85
4, 88666, Note_off_c, 2, 64, 64
4, 88795, Note_on_c, 2, 60, 74
4, 88897, Note_off_c, 2, 60, 64
4, 89030, Note_on_c, 2, 65, 80
4, 89158, Note_off_c, 2, 65, 64
4, 89269, Note_on_c, 2, 67, 72
4, 89401, Note_off_c, 2, 67, 64
4, 89505, Note_on_c, 2, 69, 80
4, 89628, Note_off_c, 2, 69, 64
4, 89749, Note_on_c, 2, 71, 85
4, 89857, Note_off_c, 2, 71, 64
4, 89993, Note_on_c, 2, 72, 74
4, 90136, Note_off_c, 2, 72, 64
4, 90235, Note_on_c, 2, 60, 72
4, 90334, Note_off_c, 2, 60, 64
4, 90481, Note_on_c, 2, 62, 85
4, 90580, Note_off_c, 2, 62, 64
4, 90721, Note_on_c, 2, 64, 85
4, 91095, Note_off_c, 2, 64, 64
4, 91187, Note_on_c, 2, 62, 66
4, 91301, Note_off_c, 2, 62, 64
4, 91437, Note_on_c, 2, 67, 85
4, 91542, Note_off_c, 2, 67, 64
4, 91672, Note_on_c, 2, 62, 82
4, 91785, Note_off_c, 2, 62, 64
4, 91917, Note_on_c, 2, 60, 72
4, 92024, Note_off_c, 2, 60, 64
4, 92160, Note_on_c, 2, 59, 82
4, 92446, Note_off_c, 2, 59, 64
4, 92446, End_track
5, 0, Start_track
5, 0, Title_t, "Cello"
5, 0, Program_c, 3, 42
5, 0, Control_c, 3, 7, 100
5, 474, Note_on_c, 3, 48, 80
5, 574, Note_off_c, 3, 48, 64
5, 705, Note_on_c, 3, 60, 87
5, 815, Note_off_c, 3, 60, 64
5, 949, Note_on_c, 3, 48, 87
5, 1060, Note_off_c, 3, 48, 64
5, 1183, Note_on_c, 3, 59, 80
5, 1294, Note_off_c, 3, 59, 64
5, 1440, Note_on_c, 3, 57, 89
5, 1547, Note_off_c, 3, 57, 64
5, 1679, Note_on_c, 3, 55, 82
5, 1776, Note_off_c, 3, 55, 64
5, 1908, Note_on_c, 3, 53, 80
5, 2021, Note_off_c, 3, 53, 64
5, 2151, Note_on_c, 3, 52, 87
5, 2255, Note_off_c, 3, 52, 64
5, 2392, Note_on_c, 3, 53, 82
5, 2500, Note_off_c, 3, 53, 64
5, 2624, Note_on_c, 3, 50, 85
5, 2742, Note_off_c, 3, 50, 64
5, 2867, Note_on_c, 3, 55, 82
5, 2978, Note_off_c, 3, 55, 64
5, 3116, Note_on_c, 3, 43, 89
5, 3201, Note_off_c, 3, 43, 64
5, 3343, Note_on_c, 3, 53, 85
5, 3446, Note_off_c, 3, 53, 64
5, 3595, Note_on_c, 3, 52, 89
5, 3694, Note_off_c, 3, 52, 64
5, 3822, Note_on_c, 3, 60, 82
5, 3919, Note_off_c, 3, 60, 64
5, 4066, Note_on_c, 3, 59, 82
5, 4181, Note_off_c, 3, 59, 64
5, 4302, Note_on_c, 3, 57, 87
5, 4418, Note_off_c, 3, 57, 64
5, 4541, Note_on_c, 3, 55, 82
5, 4640, Note_off_c, 3, 55, 64
5, 4780, Note_on_c, 3, 54, 76
5, 4892, Note_off_c, 3, 54, 64
5, 5024, Note_on_c, 3, 55, 80
5, 5130, Note_off_c, 3, 55, 64
5, 5275, Note_on_c, 3, 47, 85
5, 5371, Note_off_c, 3, 47, 64
5, 5518, Note_on_c, 3, 50, 82
5, 5608, Note_off_c, 3, 50, 64
5, 5767, Note_on_c, 3, 43, 89
5, 5923, Note_off_c, 3, 43, 64
5, 6000, Note_on_c, 3, 55, 74
5, 6079, Note_off_c, 3, 55, 64
5, 6107, Note_on_c, 3, 53, 87
5, 6175, Note_off_c, 3, 53, 64
5, 6223, Note_on_c, 3, 52, 80
5, 6302, Note_off_c, 3, 52, 64
5, 6330, Note_on_c, 3, 50, 80
5, 6401, Note_off_c, 3, 50, 64
5, 6459, Note_on_c, 3, 48, 82
5, 6579, Note_off_c, 3, 48, 64
5, 6714, Note_on_c, 3, 60, 82
5, 6814, Note_off_c, 3, 60, 64
5, 6961, Note_on_c, 3, 59, 80
5, 7072, Note_off_c, 3, 59, 64
5, 7194, Note_on_c, 3, 57, 85
5, 7318, Note_off_c, 3, 57, 64
5, 7424, Note_on_c, 3, 55, 60
5, 7543, Note_off_c, 3, 55, 64
5, 7659, Note_on_c, 3, 53, 87
5, 7778, Note_off_c, 3, 53, 64
5, 7898, Note_on_c, 3, 52, 91
5, 8029, Note_off_c, 3, 52, 64
5, 8141, Note_on_c, 3, 53, 80
5, 8257, Note_off_c, 3, 53, 64
5, 8382, Note_on_c, 3, 50, 85
5, 8498, Note_off_c, 3, 50, 64
5, 8634, Note_on_c, 3, 55, 89
5, 8745, Note_off_c, 3, 55, 64
5, 8869, Note_on_c, 3, 43, 87
5, 8976, Note_off_c, 3, 43, 64
5, 9100, Note_on_c, 3, 53, 85
5, 9210, Note_off_c, 3, 53, 64
5, 9351, Note_on_c, 3, 52, 93
5, 9477, Note_off_c, 3, 52, 64
5, 9597, Note_on_c, 3, 60, 82
5, 9696, Note_off_c, 3, 60, 64
5, 9836, Note_on_c, 3, 59, 82
5, 9961, Note_off_c, 3, 59, 64
5, 10076, Note_on_c, 3, 57, 85
5, 10191, Note_off_c, 3, 57, 64
5, 10307, Note_on_c, 3, 55, 68
5, 10432, Note_off_c, 3, 55, 64
5, 10541, Note_on_c, 3, 54, 76
5, 10658, Note_off_c, 3, 54, 64
5, 10786, Note_on_c, 3, 55, 87
5, 10889, Note_off_c, 3, 55, 64
5, 11022, Note_on_c, 3, 47, 82
5, 11132, Note_off_c, 3, 47, 64
5, 11273, Note_on_c, 3, 50, 89
5, 11355, Note_off_c, 3, 50, 64
5, 11521, Note_on_c, 3, 43, 87
5, 11822, Note_off_c, 3, 43, 64
5, 41028, Note_on_c, 3, 60, 50
5, 41223, Note_off_c, 3, 60, 64
5, 41259, Note_on_c, 3, 60, 57
5, 41463, Note_off_c, 3, 60, 64
5, 41508, Note_on_c, 3, 60, 59
5, 41700, Note_off_c, 3, 60, 64
5, 41739, Note_on_c, 3, 57, 53
5, 41939, Note_off_c, 3, 57, 64
5, 41994, Note_on_c, 3, 57, 53
5, 42183, Note_off_c, 3, 57, 64
5, 42229, Note_on_c, 3, 57, 58
5, 42407, Note_off_c, 3, 57, 64
5, 42461, Note_on_c, 3, 53, 47
5, 42666, Note_off_c, 3, 53, 64
5, 42715, Note_on_c, 3, 53, 66
5, 42911, Note_off_c, 3, 53, 64
5, 42950, Note_on_c, 3, 53, 58
5, 43145, Note_off_c, 3, 53, 64
5, 43190, Note_on_c, 3, 55, 54
5, 43372, Note_off_c, 3, 55, 64
5, 43408, Note_on_c, 3, 57, 52
5, 43630, Note_off_c, 3, 57, 64
5, 43649, Note_on_c, 3, 59, 52
5, 43843, Note_off_c, 3, 59, 64
5, 43894, Note_on_c, 3, 60, 48
5, 44097, Note_off_c, 3, 60, 64
5, 44146, Note_on_c, 3, 60, 59
5, 44340, Note_off_c, 3, 60, 64
5, 44390, Note_on_c, 3, 60, 55
5, 44579, Note_off_c, 3, 60, 64
5, 44635, Note_on_c, 3, 48, 50
5, 44820, Note_off_c, 3, 48, 64
5, 44847, Note_on_c, 3, 48, 51
5, 45055, Note_off_c, 3, 48, 64
5, 45100, Note_on_c, 3, 48, 54
5, 45298, Note_off_c, 3, 48, 64
5, 45348, Note_on_c, 3, 47, 60
5, 45529, Note_off_c, 3, 47, 64
5, 45583, Note_on_c, 3, 48, 53
5, 45763, Note_off_c, 3, 48, 64
5, 45819, Note_on_c, 3, 50, 54
5, 45987, Note_off_c, 3, 50, 64
5, 46077, Note_on_c, 3, 43, 58
5, 46516, Note_off_c, 3, 43, 64
5, 46786, Note_on_c, 3, 60, 53
5, 46989, Note_off_c, 3, 60, 64
5, 47029, Note_on_c, 3, 60, 66
5, 47216, Note_off_c, 3, 60, 64
5, 47268, Note_on_c, 3, 60, 61
5, 47446, Note_off_c, 3, 60, 64
5, 47491, Note_on_c, 3, 57, 52
5, 47695, Note_off_c, 3, 57, 64
5, 47740, Note_on_c, 3, 57, 57
5, 47930, Note_off_c, 3, 57, 64
5, 47980, Note_on_c, 3, 57, 57
5, 48162, Note_off_c, 3, 57, 64
5, 48222, Note_on_c, 3, 53, 51
5, 48408, Note_off_c, 3, 53, 64
5, 48466, Note_on_c, 3, 53, 57
5, 48675, Note_off_c, 3, 53, 64
5, 48708, Note_on_c, 3, 53, 59
5, 48904, Note_off_c, 3, 53, 64
5, 48937, Note_on_c, 3, 55, 61
5, 49143, Note_off_c, 3, 55, 64
5, 49164, Note_on_c, 3, 57, 57
5, 49370, Note_off_c, 3, 57, 64
5, 49399, Note_on_c, 3, 59, 60
5, 49585, Note_off_c, 3, 59, 64
5, 49654, Note_on_c, 3, 60, 57
5, 49851, Note_off_c, 3, 60, 64
5, 49885, Note_on_c, 3, 60, 53
5, 50090, Note_off_c, 3, 60, 64
5, 50138, Note_on_c, 3, 60, 59
5, 50310, Note_off_c, 3, 60, 64
5, 50381, Note_on_c, 3, 48, 52
5, 50583, Note_off_c, 3, 48, 64
5, 50624, Note_on_c, 3, 48, 51
5, 50826, Note_off_c, 3, 48, 64
5, 50858, Note_on_c, 3, 48, 42
5, 51059, Note_off_c, 3, 48, 64
5, 51111, Note_on_c, 3, 47, 60
5, 51296, Note_off_c, 3, 47, 64
5, 51341, Note_on_c, 3, 48, 54
5, 51510, Note_off_c, 3, 48, 64
5, 51584, Note_on_c, 3, 50, 56
5, 51741, Note_off_c, 3, 50, 64
5, 51824, Note_on_c, 3, 43, 64
5, 52260, Note_off_c, 3, 43, 64
5, 81114, Note_on_c, 3, 48, 80
5, 81214, Note_off_c, 3, 48, 64
5, 81345, Note_on_c, 3, 60, 87
5, 81455, Note_off_c, 3, 60, 64
5, 81589, Note_on_c, 3, 48, 87
5, 81700, Note_off_c, 3, 48, 64
5, 81823, Note_on_c, 3, 59, 80
5, 81934, Note_off_c, 3, 59, 64
5, 82080, Note_on_c, 3, 57, 89
5, 82187, Note_off_c, 3, 57, 64
5, 82319, Note_on_c, 3, 55, 82
5, 82416, Note_off_c, 3, 55, 64
5, 82548, Note_on_c, 3, 53, 80
5, 82661, Note_off_c, 3, 53, 64
5, 82791, Note_on_c, 3, 52, 87
5, 82895, Note_off_c, 3, 52, 64
5, 83032, Note_on_c, 3, 53, 82
5, 83140, Note_off_c, 3, 53, 64
5, 83264, Note_on_c, 3, 50, 85
5, 83382, Note_off_c, 3, 50, 64
5, 83507, Note_on_c, 3, 55, 82
5, 83618, Note_off_c, 3, 55, 64
5, 83756, Note_on_c, 3, 43, 89
5, 83841, Note_off_c, 3, 43, 64
5, 83983, Note_on_c, 3, 53, 85
5, 84086, Note_off_c, 3, 53, 64
5, 84235, Note_on_c, 3, 52, 89
5, 84334, Note_off_c, 3, 52, 64
5, 84462, Note_on_c, 3, 60, 82
5, 84559, Note_off_c, 3, 60, 64
5, 84706, Note_on_c, 3, 59, 82
5, 84821, Note_off_c, 3, 59, 64
5, 84942, Note_on_c, 3, 57, 87
5, 85058, Note_off_c, 3, 57, 64
5, 85181, Note_on_c, 3, 55, 82
5, 85280, Note_off_c, 3, 55, 64
5, 85420, Note_on_c, 3, 54, 76
5, 85532, Note_off_c, 3, 54, 64
5, 85664, Note_on_c, 3, 55, 80
5, 85770, Note_off_c, 3, 55, 64
5, 85915, Note_on_c, 3, 47, 85
5, 86011, Note_off_c, 3, 47, 64
5, 86158, Note_on_c, 3, 50, 82
5, 86248, Note_off_c, 3, 50, 64
5, 86407, Note_on_c, 3, 43, 89
5, 86563, Note_off_c, 3, 43, 64
5, 86640, Note_on_c, 3, 55, 74
5, 86719, Note_off_c, 3, 55, 64
5, 86747, Note_on_c, 3, 53, 87
5, 86815, Note_off_c, 3, 53, 64
5, 86863, Note_on_c, 3, 52, 80
5, 86942, Note_off_c, 3, 52, 64
5, 86970, Note_on_c, 3, 50, 80
5, 87041, Note_off_c, 3, 50, 64
5, 87099, Note_on_c, 3, 48, 82
5, 87219, Note_off_c, 3, 48, 64
5, 87354, Note_on_c, 3, 60, 82
5, 87454, Note_off_c, 3, 60, 64
5, 87601, Note_on_c, 3, 59, 80
5, 87712, Note_off_c, 3, 59, 64
5, 87834, Note_on_c, 3, 57, 85
5, 87958, Note_off_c, 3, 57, 64
5, 88064, Note_on_c, 3, 55, 60
5, 88183, Note_off_c, 3, 55, 64
5, 88299, Note_on_c, 3, 53, 87
5, 88418, Note_off_c, 3, 53, 64
5, 88538, Note_on_c, 3, 52, 91
5, 88669, Note_off_c, 3, 52, 64
5, 88781, Note_on_c, 3, 53, 80
5, 88897, Note_off_c, 3, 53, 64
5, 89022, Note_on_c, 3, 50, 85
5, 89138, Note_off_c, 3, 50, 64
5, 89274, Note_on_c, 3, 55, 89
5, 89385, Note_off_c, 3, 55, 64
5, 89509, Note_on_c, 3, 43, 87
5, 89616, Note_off_c, 3, 43, 64
5, 89740, Note_on_c, 3, 53, 85
5, 89850, Note_off_c, 3, 53, 64
5, 89991, Note_on_c, 3, 52, 93
5, 90117, Note_off_c, 3, 52, 64
5, 90237, Note_on_c, 3, 60, 82
5, 90336, Note_off_c, 3, 60, 64
5, 90476, Note_on_c, 3, 59, 82
5, 90601, Note_off_c, 3, 59, 64
5, 90716, Note_on_c, 3, 57, 85
5, 90831, Note_off_c, 3, 57, 64
5, 90947, Note_on_c, 3, 55, 68
5, 91072, Note_off_c, 3, 55, 64
5, 91181, Note_on_c, 3, 54, 76
5, 91298, Note_off_c, 3, 54, 64
5, 91426, Note_on_c, 3, 55, 87
5, 91529, Note_off_c, 3, 55, 64
5, 91662, Note_on_c, 3, 47, 82
5, 91772, Note_off_c, 3, 47, 64
5, 91913, Note_on_c, 3, 50, 89
5, 91995, Note_off_c, 3, 50, 64
5, 92161, Note_on_c, 3, 43, 87
5, 92462, Note_off_c, 3, 43, 64
5, 92462, End_track
6, 0, Start_track
6, 0, Title_t, "Oboe1"
6, 0, Program_c, 4, 68
6, 0, Control_c, 4, 7, 100
6, 472, Note_on_c, 4, 67, 68
6, 578, Note_off_c, 4, 67, 64
6, 709, Note_on_c, 4, 72, 85
6, 866, Note_off_c, 4, 72, 64
6, 948, Note_on_c, 4, 76, 82
6, 1063, Note_on_c, 4, 74, 57
6, 1092, Note_off_c, 4, 76, 64
6, 1184, Note_on_c, 4, 72, 64
6, 1198, Note_off_c, 4, 74, 64
6, 1306, Note_on_c, 4, 71, 66
6, 1314, Note_off_c, 4, 72, 64
6, 1381, Note_off_c, 4, 71, 64
6, 1436, Note_on_c, 4, 72, 80
6, 1516, Note_off_c, 4, 72, 64
6, 1543, Note_on_c, 4, 74, 82
6, 1620, Note_off_c, 4, 74, 64
6, 1662, Note_on_c, 4, 76, 76
6, 1727, Note_off_c, 4, 76, 64
6, 1776, Note_on_c, 4, 77, 85
6, 1838, Note_off_c, 4, 77, 64
6, 1908, Note_on_c, 4, 79, 89
6, 2302, Note_off_c, 4, 79, 64
6, 2400, Note_on_c, 4, 81, 80
6, 2502, Note_off_c, 4, 81, 64
6, 2628, Note_on_c, 4, 77, 82
6, 2741, Note_off_c, 4, 77, 64
6, 2882, Note_on_c, 4, 74, 70
6, 3026, Note_off_c, 4, 74, 64
6, 3123, Note_on_c, 4, 72, 78
6, 3230, Note_on_c, 4, 71, 78
6, 3263, Note_off_c, 4, 72, 64
6, 3345, Note_on_c, 4, 69, 66
6, 3362, Note_off_c, 4, 71, 64
6, 3449, Note_on_c, 4, 67, 68
6, 3471, Note_off_c, 4, 69, 64
6, 3533, Note_off_c, 4, 67, 64
6, 3599, Note_on_c, 4, 72, 82
6, 3716, Note_off_c, 4, 72, 64
6, 3831, Note_on_c, 4, 76, 89
6, 3951, Note_on_c, 4, 74, 78
6, 3979, Note_off_c, 4, 76, 64
6, 4074, Note_on_c, 4, 72, 64
6, 4094, Note_off_c, 4, 74, 64
6, 4186, Note_on_c, 4, 71, 60
6, 4191, Note_off_c, 4, 72, 64
6, 4261, Note_off_c, 4, 71, 64
6, 4315, Note_on_c, 4, 74, 89
6, 4430, Note_on_c, 4, 72, 68
6, 4463, Note_off_c, 4, 74, 64
6, 4553, Note_on_c, 4, 71, 66
6, 4569, Note_off_c, 4, 72, 64
6, 4663, Note_on_c, 4, 69, 70
6, 4667, Note_off_c, 4, 71, 64
6, 4736, Note_off_c, 4, 69, 64
6, 4799, Note_on_c, 4, 74, 80
6, 5208, Note_off_c, 4, 74, 64
6, 5283, Note_on_c, 4, 72, 78
6, 5383, Note_off_c, 4, 72, 64
6, 5398, Note_on_c, 4, 71, 68
6, 5466, Note_off_c, 4, 71, 64
6, 5509, Note_on_c, 4, 69, 70
6, 5589, Note_off_c, 4, 69, 64
6, 5626, Note_on_c, 4, 71, 80
6, 5701, Note_off_c, 4, 71, 64
6, 5761, Note_on_c, 4, 67, 85
6, 6100, Note_off_c, 4, 67, 64
6, 6227, Note_on_c, 4, 67, 80
6, 6347, Note_off_c, 4, 67, 64
6, 6472, Note_on_c, 4, 72, 82
6, 6583, Note_off_c, 4, 72, 64
6, 6706, Note_on_c, 4, 76, 89
6, 6821, Note_on_c, 4, 74, 82
6, 6850, Note_off_c, 4, 76, 64
6, 6947, Note_on_c, 4, 72, 76
6, 6968, Note_off_c, 4, 74, 64
6, 7070, Note_on_c, 4, 71, 76
6, 7076, Note_off_c, 4, 72, 64
6, 7149, Note_off_c, 4, 71, 64
6, 7209, Note_on_c, 4, 72, 80
6, 7281, Note_off_c, 4, 72, 64
6, 7309, Note_on_c, 4, 74, 85
6, 7384, Note_off_c, 4, 74, 64
6, 7424, Note_on_c, 4, 76, 82
6, 7494, Note_off_c, 4, 76, 64
6, 7543, Note_on_c, 4, 77, 85
6, 7609, Note_off_c, 4, 77, 64
6, 7671, Note_on_c, 4, 79, 87
6, 8052, Note_off_c, 4, 79, 64
6, 8147, Note_on_c, 4, 81, 78
6, 8257, Note_off_c, 4, 81, 64
6, 8390, Note_on_c, 4, 77, 82
6, 8512, Note_off_c, 4, 77, 64
6, 8634, Note_on_c, 4, 76, 82
6, 8679, Note_on_c, 4, 74, 66
6, 8686, Note_off_c, 4, 76, 64
6, 8716, Note_on_c, 4, 76, 87
6, 8720, Note_off_c, 4, 74, 64
6, 8755, Note_on_c, 4, 74, 68
6, 8764, Note_off_c, 4, 76, 64
6, 8859, Note_off_c, 4, 74, 64
6, 8884, Note_on_c, 4, 72, 76
6, 8993, Note_on_c, 4, 71, 68
6, 9021, Note_off_c, 4, 72, 64
6, 9118, Note_on_c, 4, 69, 61
6, 9135, Note_off_c, 4, 71, 64
6, 9222, Note_on_c, 4, 67, 70
6, 9236, Note_off_c, 4, 69, 64
6, 9296, Note_off_c, 4, 67, 64
6, 9358, Note_on_c, 4, 72, 82
6, 9473, Note_off_c, 4, 72, 64
6, 9590, Note_on_c, 4, 76, 91
6, 9702, Note_on_c, 4, 74, 80
6, 9726, Note_off_c, 4, 76, 64
6, 9826, Note_on_c, 4, 72, 60
6, 9844, Note_off_c, 4, 74, 64
6, 9944, Note_on_c, 4, 71, 61
6, 9949, Note_off_c, 4, 72, 64
6, 10028, Note_off_c, 4, 71, 64
6, 10077, Note_on_c, 4, 74, 85
6, 10187, Note_on_c, 4, 72, 68
6, 10216, Note_off_c, 4, 74, 64
6, 10315, Note_on_c, 4, 71, 64
6, 10328, Note_off_c, 4, 72, 64
6, 10426, Note_on_c, 4, 69, 68
6, 10431, Note_off_c, 4, 71, 64
6, 10499, Note_off_c, 4, 69, 64
6, 10559, Note_on_c, 4, 74, 80
6, 10976, Note_off_c, 4, 74, 64
6, 11038, Note_on_c, 4, 72, 80
6, 11123, Note_off_c, 4, 72, 64
6, 11148, Note_on_c, 4, 71, 74
6, 11222, Note_off_c, 4, 71, 64
6, 11268, Note_on_c, 4, 69, 70
6, 11363, Note_off_c, 4, 69, 64
6, 11384, Note_on_c, 4, 71, 85
6, 11473, Note_off_c, 4, 71, 64
6, 11520, Note_on_c, 4, 67, 85
6, 11809, Note_off_c, 4, 67, 64
6, 40796, Note_on_c, 4, 79, 70
6, 40885, Note_off_c, 4, 79, 64
6, 40907, Note_on_c, 4, 77, 64
6, 40982, Note_off_c, 4, 77, 64
6, 41030, Note_on_c, 4, 76, 70
6, 41143, Note_on_c, 4, 74, 59
6, 41167, Note_off_c, 4, 76, 64
6, 41267, Note_on_c, 4, 72, 54
6, 41284, Note_off_c, 4, 74, 64
6, 41383, Note_on_c, 4, 74, 60
6, 41399, Note_off_c, 4, 72, 64
6, 41507, Note_on_c, 4, 76, 60
6, 41519, Note_off_c, 4, 74, 64
6, 41619, Note_on_c, 4, 77, 66
6, 41650, Note_off_c, 4, 76, 64
6, 41704, Note_off_c, 4, 77, 64
6, 41743, Note_on_c, 4, 76, 64
6, 41859, Note_on_c, 4, 74, 52
6, 41886, Note_off_c, 4, 76, 64
6, 41986, Note_on_c, 4, 72, 66
6, 41998, Note_off_c, 4, 74, 64
6, 42104, Note_on_c, 4, 74, 62
6, 42123, Note_off_c, 4, 72, 64
6, 42228, Note_on_c, 4, 76, 59
6, 42246, Note_off_c, 4, 74, 64
6, 42340, Note_on_c, 4, 77, 66
6, 42372, Note_off_c, 4, 76, 64
6, 42420, Note_off_c, 4, 77, 64
6, 42459, Note_on_c, 4, 76, 66
6, 42572, Note_on_c, 4, 74, 60
6, 42595, Note_off_c, 4, 76, 64
6, 42694, Note_on_c, 4, 77, 68
6, 42700, Note_off_c, 4, 74, 64
6, 42818, Note_on_c, 4, 76, 66
6, 42843, Note_off_c, 4, 77, 64
6, 42942, Note_on_c, 4, 74, 58
6, 42951, Note_off_c, 4, 76, 64
6, 43061, Note_on_c, 4, 72, 70
6, 43067, Note_off_c, 4, 74, 64
6, 43148, Note_off_c, 4, 72, 64
6, 43187, Note_on_c, 4, 71, 66
6, 43297, Note_off_c, 4, 71, 64
6, 43297, Note_on_c, 4, 72, 66
6, 43418, Note_on_c, 4, 74, 70
6, 43433, Note_off_c, 4, 72, 64
6, 43541, Note_on_c, 4, 76, 63
6, 43560, Note_off_c, 4, 74, 64
6, 43649, Note_on_c, 4, 77, 64
6, 43676, Note_off_c, 4, 76, 64
6, 43773, Note_on_c, 4, 79, 60
6, 43795, Note_off_c, 4, 77, 64
6, 43863, Note_off_c, 4, 79, 64
6, 43900, Note_on_c, 4, 76, 64
6, 44020, Note_on_c, 4, 74, 56
6, 44047, Note_off_c, 4, 76, 64
6, 44143, Note_on_c, 4, 72, 59
6, 44152, Note_off_c, 4, 74, 64
6, 44250, Note_on_c, 4, 71, 55
6, 44271, Note_off_c, 4, 72, 64
6, 44395, Note_on_c, 4, 69, 56
6, 44396, Note_off_c, 4, 71, 64
6, 44493, Note_off_c, 4, 69, 64
6, 44503, Note_on_c, 4, 67, 64
6, 44594, Note_off_c, 4, 67, 64
6, 44625, Note_on_c, 4, 66, 58
6, 44711, Note_off_c, 4, 66, 64
6, 44746, Note_on_c, 4, 69, 61
6, 44840, Note_off_c, 4, 69, 64
6, 44866, Note_on_c, 4, 74, 74
6, 44959, Note_off_c, 4, 74, 64
6, 44981, Note_on_c, 4, 72, 66
6, 45079, Note_off_c, 4, 72, 64
6, 45108, Note_on_c, 4, 71, 60
6, 45220, Note_off_c, 4, 71, 64
6, 45229, Note_on_c, 4, 69, 59
6, 45320, Note_off_c, 4, 69, 64
6, 45347, Note_on_c, 4, 67, 70
6, 45482, Note_off_c, 4, 67, 64
6, 45595, Note_on_c, 4, 69, 62
6, 45712, Note_off_c, 4, 69, 64
6, 45830, Note_on_c, 4, 66, 56
6, 45940, Note_off_c, 4, 66, 64
6, 46066, Note_on_c, 4, 67, 57
6, 46457, Note_off_c, 4, 67, 64
6, 46551, Note_on_c, 4, 79, 66
6, 46631, Note_off_c, 4, 79, 64
6, 46666, Note_on_c, 4, 77, 68
6, 46732, Note_off_c, 4, 77, 64
6, 46786, Note_on_c, 4, 76, 64
6, 46907, Note_on_c, 4, 74, 58
6, 46928, Note_off_c, 4, 76, 64
6, 47029, Note_on_c, 4, 72, 62
6, 47039, Note_off_c, 4, 74, 64
6, 47143, Note_on_c, 4, 74, 63
6, 47166, Note_off_c, 4, 72, 64
6, 47261, Note_on_c, 4, 76, 59
6, 47283, Note_off_c, 4, 74, 64
6, 47374, Note_on_c, 4, 77, 63
6, 47409, Note_off_c, 4, 76, 64
6, 47491, Note_off_c, 4, 77, 64
6, 47497, Note_on_c, 4, 76, 63
6, 47619, Note_on_c, 4, 74, 56
6, 47641, Note_off_c, 4, 76, 64
6, 47745, Note_on_c, 4, 72, 53
6, 47770, Note_off_c, 4, 74, 64
6, 47861, Note_on_c, 4, 74, 60
6, 47884, Note_off_c, 4, 72, 64
6, 47992, Note_on_c, 4, 76, 63
6, 48016, Note_off_c, 4, 74, 64
6, 48110, Note_on_c, 4, 77, 64
6, 48151, Note_off_c, 4, 76, 64
6, 48205, Note_off_c, 4, 77, 64
6, 48226, Note_on_c, 4, 76, 64
6, 48345, Note_on_c, 4, 74, 60
6, 48367, Note_off_c, 4, 76, 64
6, 48469, Note_on_c, 4, 77, 61
6, 48479, Note_off_c, 4, 74, 64
6, 48590, Note_on_c, 4, 76, 63
6, 48610, Note_off_c, 4, 77, 64
6, 48713, Note_on_c, 4, 74, 57
6, 48724, Note_off_c, 4, 76, 64
6, 48829, Note_on_c, 4, 72, 66
6, 48838, Note_off_c, 4, 74, 64
6, 48929, Note_off_c, 4, 72, 64
6, 48954, Note_on_c, 4, 71, 66
6, 49060, Note_on_c, 4, 72, 62
6, 49073, Note_off_c, 4, 71, 64
6, 49184, Note_on_c, 4, 74, 61
6, 49206, Note_off_c, 4, 72, 64
6, 49300, Note_on_c, 4, 76, 64
6, 49328, Note_off_c, 4, 74, 64
6, 49426, Note_on_c, 4, 77, 64
6, 49458, Note_off_c, 4, 76, 64
6, 49544, Note_on_c, 4, 79, 61
6, 49583, Note_off_c, 4, 77, 64
6, 49647, Note_off_c, 4, 79, 64
6, 49659, Note_on_c, 4, 76, 64
6, 49777, Note_on_c, 4, 74, 59
6, 49802, Note_off_c, 4, 76, 64
6, 49905, Note_on_c, 4, 72, 60
6, 49914, Note_off_c, 4, 74, 64
6, 50014, Note_on_c, 4, 71, 55
6, 50039, Note_off_c, 4, 72, 64
6, 50152, Note_on_c, 4, 69, 57
6, 50164, Note_off_c, 4, 71, 64
6, 50268, Note_off_c, 4, 69, 64
6, 50268, Note_on_c, 4, 67, 63
6, 50375, Note_off_c, 4, 67, 64
6, 50383, Note_on_c, 4, 66, 50
6, 50479, Note_off_c, 4, 66, 64
6, 50508, Note_on_c, 4, 69, 64
6, 50611, Note_off_c, 4, 69, 64
6, 50628, Note_on_c, 4, 74, 70
6, 50738, Note_off_c, 4, 74, 64
6, 50744, Note_on_c, 4, 72, 66
6, 50830, Note_off_c, 4, 72, 64
6, 50858, Note_on_c, 4, 71, 62
6, 50966, Note_off_c, 4, 71, 64
6, 50977, Note_on_c, 4, 69, 56
6, 51086, Note_off_c, 4, 69, 64
6, 51105, Note_on_c, 4, 67, 70
6, 51237, Note_off_c, 4, 67, 64
6, 51359, Note_on_c, 4, 69, 63
6, 51484, Note_off_c, 4, 69, 64
6, 51590, Note_on_c, 4, 66, 53
6, 51755, Note_off_c, 4, 66, 64
6, 51825, Note_on_c, 4, 67, 60
6, 51924, Note_off_c, 4, 67, 64
6, 51946, Note_on_c, 4, 66, 60
6, 52042, Note_off_c, 4, 66, 64
6, 52067, Note_on_c, 4, 67, 66
6, 52170, Note_off_c, 4, 67, 64
6, 52190, Note_on_c, 4, 69, 62
6, 52278, Note_off_c, 4, 69, 64
6, 52305, Note_on_c, 4, 71, 66
6, 52385, Note_off_c, 4, 71, 64
6, 52410, Note_on_c, 4, 72, 64
6, 52509, Note_off_c, 4, 72, 64
6, 81112, Note_on_c, 4, 67, 68
6, 81218, Note_off_c, 4, 67, 64
6, 81349, Note_on_c, 4, 72, 85
6, 81506, Note_off_c, 4, 72, 64
6, 81588, Note_on_c, 4, 76, 82
6, 81703, Note_on_c, 4, 74, 57
6, 81732, Note_off_c, 4, 76, 64
6, 81824, Note_on_c, 4, 72, 64
6, 81838, Note_off_c, 4, 74, 64
6, 81946, Note_on_c, 4, 71, 66
6, 81954, Note_off_c, 4, 72, 64
6, 82021, Note_off_c, 4, 71, 64
6, 82076, Note_on_c, 4, 72, 80
6, 82156, Note_off_c, 4, 72, 64
6, 82183, Note_on_c, 4, 74, 82
6, 82260, Note_off_c, 4, 74, 64
6, 82302, Note_on_c, 4, 76, 76
6, 82367, Note_off_c, 4, 76, 64
6, 82416, Note_on_c, 4, 77, 85
6, 82478, Note_off_c, 4, 77, 64
6, 82548, Note_on_c, 4, 79, 89
6, 82942, Note_off_c, 4, 79, 64
6, 83040, Note_on_c, 4, 81, 80
6, 83142, Note_off_c, 4, 81, 64
6, 83268, Note_on_c, 4, 77, 82
6, 83381, Note_off_c, 4, 77, 64
6, 83522, Note_on_c, 4, 74, 70
6, 83666, Note_off_c, 4, 74, 64
6, 83763, Note_on_c, 4, 72, 78
6, 83870, Note_on_c, 4, 71, 78
6, 83903, Note_off_c, 4, 72, 64
6, 83985, Note_on_c, 4, 69, 66
6, 84002, Note_off_c, 4, 71, 64
6, 84089, Note_on_c, 4, 67, 68
6, 84111, Note_off_c, 4, 69, 64
6, 84173, Note_off_c, 4, 67, 64
6, 84239, Note_on_c, 4, 72, 82
6, 84356, Note_off_c, 4, 72, 64
6, 84471, Note_on_c, 4, 76, 89
6, 84591, Note_on_c, 4, 74, 78
6, 84619, Note_off_c, 4, 76, 64
6, 84714, Note_on_c, 4, 72, 64
6, 84734, Note_off_c, 4, 74, 64
6, 84826, Note_on_c, 4, 71, 60
6, 84831, Note_off_c, 4, 72, 64
6, 84901, Note_off_c, 4, 71, 64
6, 84955, Note_on_c, 4, 74, 89
6, 85070, Note_on_c, 4, 72, 68
6, 85103, Note_off_c, 4, 74, 64
6, 85193, Note_on_c, 4, 71, 66
6, 85209, Note_off_c, 4, 72, 64
6, 85303, Note_on_c, 4, 69, 70
6, 85307, Note_off_c, 4, 71, 64
6, 85376, Note_off_c, 4, 69, 64
6, 85439, Note_on_c, 4, 74, 80
6, 85848, Note_off_c, 4, 74, 64
6, 85923, Note_on_c, 4, 72, 78
6, 86023, Note_off_c, 4, 72, 64
6, 86038, Note_on_c, 4, 71, 68
6, 86106, Note_off_c, 4, 71, 64
6, 86149, Note_on_c, 4, 69, 70
6, 86229, Note_off_c, 4, 69, 64
6, 86266, Note_on_c, 4, 71, 80
6, 86341, Note_off_c, 4, 71, 64
6, 86401, Note_on_c, 4, 67, 85
6, 86740, Note_off_c, 4, 67, 64
6, 86867, Note_on_c, 4, 67, 80
6, 86987, Note_off_c, 4, 67, 64
6, 87112, Note_on_c, 4, 72, 82
6, 87223, Note_off_c, 4, 72, 64
6, 87346, Note_on_c, 4, 76, 89
6, 87461, Note_on_c, 4, 74, 82
6, 87490, Note_off_c, 4, 76, 64
6, 87587, Note_on_c, 4, 72, 76
6, 87608, Note_off_c, 4, 74, 64
6, 87710, Note_on_c, 4, 71, 76
6, 87716, Note_off_c, 4, 72, 64
6, 87789, Note_off_c, 4, 71, 64
6, 87849, Note_on_c, 4, 72, 80
6, 87921, Note_off_c, 4, 72, 64
6, 87949, Note_on_c, 4, 74, 85
6, 88024, Note_off_c, 4, 74, 64
6, 88064, Note_on_c, 4, 76, 82
6, 88134, Note_off_c, 4, 76, 64
6, 88183, Note_on_c, 4, 77, 85
6, 88249, Note_off_c, 4, 77, 64
6, 88311, Note_on_c, 4, 79, 87
6, 88692, Note_off_c, 4, 79, 64
6, 88787, Note_on_c, 4, 81, 78
6, 88897, Note_off_c, 4, 81, 64
6, 89030, Note_on_c, 4, 77, 82
6, 89152, Note_off_c, 4, 77, 64
6, 89274, Note_on_c, 4, 76, 82
6, 89319, Note_on_c, 4, 74, 66
6, 89326, Note_off_c, 4, 76, 64
6, 89356, Note_on_c, 4, 76, 87
6, 89360, Note_off_c, 4, 74, 64
6, 89395, Note_on_c, 4, 74, 68
6, 89404, Note_off_c, 4, 76, 64
6, 89499, Note_off_c, 4, 74, 64
6, 89524, Note_on_c, 4, 72, 76
6, 89633, Note_on_c, 4, 71, 68
6, 89661, Note_off_c, 4, 72, 64
6, 89758, Note_on_c, 4, 69, 61
6, 89775, Note_off_c, 4, 71, 64
6, 89862, Note_on_c, 4, 67, 70
6, 89876, Note_off_c, 4, 69, 64
6, 89936, Note_off_c, 4, 67, 64
6, 89998, Note_on_c, 4, 72, 82
6, 90113, Note_off_c, 4, 72, 64
6, 90230, Note_on_c, 4, 76, 91
6, 90342, Note_on_c, 4, 74, 80
6, 90366, Note_off_c, 4, 76, 64
6, 90466, Note_on_c, 4, 72, 60
6, 90484, Note_off_c, 4, 74, 64
6, 90584, Note_on_c, 4, 71, 61
6, 90589, Note_off_c, 4, 72, 64
6, 90668, Note_off_c, 4, 71, 64
6, 90717, Note_on_c, 4, 74, 85
6, 90827, Note_on_c, 4, 72, 68
6, 90856, Note_off_c, 4, 74, 64
6, 90955, Note_on_c, 4, 71, 64
6, 90968, Note_off_c, 4, 72, 64
6, 91066, Note_on_c, 4, 69, 68
6, 91071, Note_off_c, 4, 71, 64
6, 91139, Note_off_c, 4, 69, 64
6, 91199, Note_on_c, 4, 74, 80
6, 91616, Note_off_c, 4, 74, 64
6, 91678, Note_on_c, 4, 72, 80
6, 91763, Note_off_c, 4, 72, 64
6, 91788, Note_on_c, 4, 71, 74
6, 91862, Note_off_c, 4, 71, 64
6, 91908, Note_on_c, 4, 69, 70
6, 92003, Note_off_c, 4, 69, 64
6, 92024, Note_on_c, 4, 71, 85
6, 92113, Note_off_c, 4, 71, 64
6, 92160, Note_on_c, 4, 67, 85
6, 92449, Note_off_c, 4, 67, 64
6, 92449, End_track
7, 0, Start_track
7, 0, Title_t, "Oboe2"
7, 0, Program_c, 5, 68
7, 0, Control_c, 5, 7, 100
7, 468, Note_on_c, 5, 67, 72
7, 590, Note_off_c, 5, 67, 64
7, 703, Note_on_c, 5, 72, 82
7, 840, Note_off_c, 5, 72, 64
7, 941, Note_on_c, 5, 76, 80
7, 1051, Note_on_c, 5, 74, 70
7, 1084, Note_off_c, 5, 76, 64
7, 1188, Note_on_c, 5, 72, 64
7, 1198, Note_off_c, 5, 74, 64
7, 1302, Note_on_c, 5, 71, 76
7, 1306, Note_off_c, 5, 72, 64
7, 1392, Note_off_c, 5, 71, 64
7, 1431, Note_on_c, 5, 72, 72
7, 1512, Note_off_c, 5, 72, 64
7, 1545, Note_on_c, 5, 74, 82
7, 1624, Note_off_c, 5, 74, 64
7, 1662, Note_on_c, 5, 76, 70
7, 1728, Note_off_c, 5, 76, 64
7, 1781, Note_on_c, 5, 77, 80
7, 1846, Note_off_c, 5, 77, 64
7, 1906, Note_on_c, 5, 79, 87
7, 2331, Note_off_c, 5, 79, 64
7, 2399, Note_on_c, 5, 81, 82
7, 2523, Note_off_c, 5, 81, 64
7, 2639, Note_on_c, 5, 77, 82
7, 2741, Note_off_c, 5, 77, 64
7, 2860, Note_on_c, 5, 74, 82
7, 3040, Note_off_c, 5, 74, 64
7, 3106, Note_on_c, 5, 72, 82
7, 3218, Note_on_c, 5, 71, 72
7, 3252, Note_off_c, 5, 72, 64
7, 3335, Note_on_c, 5, 69, 68
7, 3352, Note_off_c, 5, 71, 64
7, 3451, Note_on_c, 5, 67, 68
7, 3459, Note_off_c, 5, 69, 64
7, 3533, Note_off_c, 5, 67, 64
7, 3587, Note_on_c, 5, 72, 80
7, 3735, Note_off_c, 5, 72, 64
7, 3830, Note_on_c, 5, 76, 87
7, 3948, Note_on_c, 5, 74, 82
7, 3972, Note_off_c, 5, 76, 64
7, 4070, Note_on_c, 5, 72, 63
7, 4094, Note_off_c, 5, 74, 64
7, 4193, Note_on_c, 5, 71, 60
7, 4211, Note_off_c, 5, 72, 64
7, 4282, Note_off_c, 5, 71, 64
7, 4326, Note_on_c, 5, 74, 85
7, 4432, Note_on_c, 5, 72, 66
7, 4461, Note_off_c, 5, 74, 64
7, 4552, Note_on_c, 5, 71, 66
7, 4566, Note_off_c, 5, 72, 64
7, 4661, Note_on_c, 5, 69, 70
7, 4670, Note_off_c, 5, 71, 64
7, 4735, Note_off_c, 5, 69, 64
7, 4795, Note_on_c, 5, 74, 82
7, 5210, Note_off_c, 5, 74, 64
7, 5270, Note_on_c, 5, 72, 72
7, 5348, Note_off_c, 5, 72, 64
7, 5387, Note_on_c, 5, 71, 82
7, 5460, Note_off_c, 5, 71, 64
7, 5507, Note_on_c, 5, 69, 74
7, 5588, Note_off_c, 5, 69, 64
7, 5625, Note_on_c, 5, 71, 82
7, 5709, Note_off_c, 5, 71, 64
7, 5762, Note_on_c, 5, 67, 80
7, 6116, Note_off_c, 5, 67, 64
7, 6240, Note_on_c, 5, 67, 82
7, 6359, Note_off_c, 5, 67, 64
7, 6474, Note_on_c, 5, 72, 85
7, 6625, Note_off_c, 5, 72, 64
7, 6715, Note_on_c, 5, 76, 91
7, 6829, Note_on_c, 5, 74, 80
7, 6855, Note_off_c, 5, 76, 64
7, 6947, Note_on_c, 5, 72, 72
7, 6971, Note_off_c, 5, 74, 64
7, 7076, Note_on_c, 5, 71, 78
7, 7081, Note_off_c, 5, 72, 64
7, 7153, Note_off_c, 5, 71, 64
7, 7202, Note_on_c, 5, 72, 80
7, 7272, Note_off_c, 5, 72, 64
7, 7312, Note_on_c, 5, 74, 76
7, 7383, Note_off_c, 5, 74, 64
7, 7432, Note_on_c, 5, 76, 80
7, 7493, Note_off_c, 5, 76, 64
7, 7543, Note_on_c, 5, 77, 87
7, 7605, Note_off_c, 5, 77, 64
7, 7670, Note_on_c, 5, 79, 87
7, 8076, Note_off_c, 5, 79, 64
7, 8159, Note_on_c, 5, 81, 80
7, 8270, Note_off_c, 5, 81, 64
7, 8396, Note_on_c, 5, 77, 80
7, 8534, Note_off_c, 5, 77, 64
7, 8640, Note_on_c, 5, 76, 87
7, 8690, Note_on_c, 5, 74, 60
7, 8694, Note_off_c, 5, 76, 64
7, 8722, Note_on_c, 5, 76, 64
7, 8732, Note_off_c, 5, 74, 64
7, 8758, Note_on_c, 5, 74, 76
7, 8760, Note_off_c, 5, 76, 64
7, 8788, Note_on_c, 5, 76, 72
7, 8822, Note_off_c, 5, 76, 64
7, 8898, Note_on_c, 5, 72, 82
7, 8900, Note_off_c, 5, 74, 64
7, 8988, Note_on_c, 5, 71, 53
7, 9015, Note_off_c, 5, 72, 64
7, 9111, Note_off_c, 5, 71, 64
7, 9111, Note_on_c, 5, 69, 80
7, 9223, Note_on_c, 5, 67, 68
7, 9247, Note_off_c, 5, 69, 64
7, 9312, Note_off_c, 5, 67, 64
7, 9368, Note_on_c, 5, 72, 80
7, 9511, Note_off_c, 5, 72, 64
7, 9605, Note_on_c, 5, 76, 93
7, 9708, Note_on_c, 5, 74, 78
7, 9731, Note_off_c, 5, 76, 64
7, 9833, Note_on_c, 5, 72, 66
7, 9851, Note_off_c, 5, 74, 64
7, 9943, Note_on_c, 5, 71, 72
7, 9952, Note_off_c, 5, 72, 64
7, 10028, Note_off_c, 5, 71, 64
7, 10084, Note_on_c, 5, 74, 85
7, 10195, Note_on_c, 5, 72, 66
7, 10225, Note_off_c, 5, 74, 64
7, 10320, Note_on_c, 5, 71, 60
7, 10340, Note_off_c, 5, 72, 64
7, 10430, Note_on_c, 5, 69, 70
7, 10438, Note_off_c, 5, 71, 64
7, 10496, Note_off_c, 5, 69, 64
7, 10559, Note_on_c, 5, 74, 82
7, 10993, Note_off_c, 5, 74, 64
7, 11050, Note_on_c, 5, 72, 85
7, 11123, Note_off_c, 5, 72, 64
7, 11157, Note_on_c, 5, 71, 80
7, 11228, Note_off_c, 5, 71, 64
7, 11277, Note_on_c, 5, 69, 76
7, 11359, Note_off_c, 5, 69, 64
7, 11397, Note_on_c, 5, 71, 85
7, 11472, Note_off_c, 5, 71, 64
7, 11520, Note_on_c, 5, 67, 82
7, 11851, Note_off_c, 5, 67, 64
7, 40781, Note_on_c, 5, 79, 59
7, 40877, Note_off_c, 5, 79, 64
7, 40893, Note_on_c, 5, 77, 59
7, 40984, Note_off_c, 5, 77, 64
7, 41023, Note_on_c, 5, 76, 59
7, 41147, Note_on_c, 5, 74, 48
7, 41165, Note_off_c, 5, 76, 64
7, 41268, Note_off_c, 5, 74, 64
7, 41268, Note_on_c, 5, 72, 47
7, 41387, Note_on_c, 5, 74, 59
7, 41407, Note_off_c, 5, 72, 64
7, 41507, Note_on_c, 5, 76, 51
7, 41524, Note_off_c, 5, 74, 64
7, 41631, Note_on_c, 5, 77, 59
7, 41661, Note_off_c, 5, 76, 64
7, 41727, Note_off_c, 5, 77, 64
7, 41747, Note_on_c, 5, 76, 60
7, 41870, Note_on_c, 5, 74, 53
7, 41885, Note_off_c, 5, 76, 64
7, 41989, Note_off_c, 5, 74, 64
7, 41989, Note_on_c, 5, 72, 54
7, 42104, Note_on_c, 5, 74, 58
7, 42109, Note_off_c, 5, 72, 64
7, 42236, Note_on_c, 5, 76, 50
7, 42241, Note_off_c, 5, 74, 64
7, 42348, Note_on_c, 5, 77, 57
7, 42353, Note_off_c, 5, 76, 64
7, 42444, Note_off_c, 5, 77, 64
7, 42469, Note_on_c, 5, 76, 58
7, 42587, Note_on_c, 5, 74, 45
7, 42600, Note_off_c, 5, 76, 64
7, 42700, Note_off_c, 5, 74, 64
7, 42712, Note_on_c, 5, 77, 51
7, 42830, Note_on_c, 5, 76, 59
7, 42838, Note_off_c, 5, 77, 64
7, 42954, Note_on_c, 5, 74, 51
7, 42959, Note_off_c, 5, 76, 64
7, 43074, Note_off_c, 5, 74, 64
7, 43075, Note_on_c, 5, 72, 53
7, 43178, Note_off_c, 5, 72, 64
7, 43201, Note_on_c, 5, 71, 36
7, 43297, Note_off_c, 5, 71, 64
7, 43300, Note_on_c, 5, 72, 47
7, 43425, Note_on_c, 5, 74, 57
7, 43440, Note_off_c, 5, 72, 64
7, 43538, Note_on_c, 5, 76, 60
7, 43556, Note_off_c, 5, 74, 64
7, 43663, Note_on_c, 5, 77, 59
7, 43684, Note_off_c, 5, 76, 64
7, 43784, Note_on_c, 5, 79, 57
7, 43792, Note_off_c, 5, 77, 64
7, 43884, Note_off_c, 5, 79, 64
7, 43905, Note_on_c, 5, 76, 57
7, 44020, Note_on_c, 5, 74, 52
7, 44043, Note_off_c, 5, 76, 64
7, 44134, Note_on_c, 5, 72, 53
7, 44135, Note_off_c, 5, 74, 64
7, 44246, Note_on_c, 5, 71, 40
7, 44263, Note_off_c, 5, 72, 64
7, 44383, Note_off_c, 5, 71, 64
7, 44388, Note_on_c, 5, 69, 50
7, 44493, Note_off_c, 5, 69, 64
7, 44501, Note_on_c, 5, 67, 64
7, 44601, Note_off_c, 5, 67, 64
7, 44622, Note_on_c, 5, 66, 42
7, 44732, Note_off_c, 5, 66, 64
7, 44746, Note_on_c, 5, 69, 66
7, 44862, Note_off_c, 5, 69, 64
7, 44869, Note_on_c, 5, 74, 68
7, 44973, Note_off_c, 5, 74, 64
7, 44983, Note_on_c, 5, 72, 66
7, 45066, Note_off_c, 5, 72, 64
7, 45099, Note_on_c, 5, 71, 64
7, 45206, Note_off_c, 5, 71, 64
7, 45212, Note_on_c, 5, 69, 59
7, 45324, Note_off_c, 5, 69, 64
7, 45343, Note_on_c, 5, 67, 61
7, 45479, Note_off_c, 5, 67, 64
7, 45590, Note_on_c, 5, 69, 57
7, 45707, Note_off_c, 5, 69, 64
7, 45822, Note_on_c, 5, 66, 54
7, 45928, Note_off_c, 5, 66, 64
7, 46062, Note_on_c, 5, 67, 52
7, 46431, Note_off_c, 5, 67, 64
7, 46539, Note_on_c, 5, 79, 59
7, 46656, Note_off_c, 5, 79, 64
7, 46666, Note_on_c, 5, 77, 59
7, 46745, Note_off_c, 5, 77, 64
7, 46787, Note_on_c, 5, 76, 60
7, 46907, Note_on_c, 5, 74, 52
7, 46924, Note_off_c, 5, 76, 64
7, 47025, Note_on_c, 5, 72, 58
7, 47046, Note_off_c, 5, 74, 64
7, 47149, Note_on_c, 5, 74, 54
7, 47161, Note_off_c, 5, 72, 64
7, 47277, Note_on_c, 5, 76, 57
7, 47286, Note_off_c, 5, 74, 64
7, 47394, Note_on_c, 5, 77, 56
7, 47415, Note_off_c, 5, 76, 64
7, 47502, Note_off_c, 5, 77, 64
7, 47516, Note_on_c, 5, 76, 55
7, 47628, Note_on_c, 5, 74, 50
7, 47648, Note_off_c, 5, 76, 64
7, 47747, Note_on_c, 5, 72, 48
7, 47768, Note_off_c, 5, 74, 64
7, 47865, Note_on_c, 5, 74, 52
7, 47875, Note_off_c, 5, 72, 64
7, 47991, Note_on_c, 5, 76, 52
7, 47997, Note_off_c, 5, 74, 64
7, 48108, Note_on_c, 5, 77, 57
7, 48129, Note_off_c, 5, 76, 64
7, 48201, Note_off_c, 5, 77, 64
7, 48222, Note_on_c, 5, 76, 59
7, 48341, Note_on_c, 5, 74, 47
7, 48351, Note_off_c, 5, 76, 64
7, 48461, Note_off_c, 5, 74, 64
7, 48463, Note_on_c, 5, 77, 59
7, 48574, Note_on_c, 5, 76, 58
7, 48584, Note_off_c, 5, 77, 64
7, 48705, Note_off_c, 5, 76, 64
7, 48705, Note_on_c, 5, 74, 53
7, 48816, Note_off_c, 5, 74, 64
7, 48820, Note_on_c, 5, 72, 59
7, 48925, Note_off_c, 5, 72, 64
7, 48953, Note_on_c, 5, 71, 55
7, 49055, Note_off_c, 5, 71, 64
7, 49059, Note_on_c, 5, 72, 53
7, 49189, Note_on_c, 5, 74, 54
7, 49196, Note_off_c, 5, 72, 64
7, 49308, Note_on_c, 5, 76, 58
7, 49313, Note_off_c, 5, 74, 64
7, 49424, Note_on_c, 5, 77, 60
7, 49449, Note_off_c, 5, 76, 64
7, 49538, Note_on_c, 5, 79, 60
7, 49548, Note_off_c, 5, 77, 64
7, 49638, Note_off_c, 5, 79, 64
7, 49659, Note_on_c, 5, 76, 60
7, 49777, Note_on_c, 5, 74, 51
7, 49794, Note_off_c, 5, 76, 64
7, 49910, Note_on_c, 5, 72, 59
7, 49915, Note_off_c, 5, 74, 64
7, 50017, Note_on_c, 5, 71, 56
7, 50032, Note_off_c, 5, 72, 64
7, 50149, Note_off_c, 5, 71, 64
7, 50154, Note_on_c, 5, 69, 47
7, 50256, Note_off_c, 5, 69, 64
7, 50265, Note_on_c, 5, 67, 57
7, 50359, Note_off_c, 5, 67, 64
7, 50379, Note_on_c, 5, 66, 46
7, 50491, Note_off_c, 5, 66, 64
7, 50513, Note_on_c, 5, 69, 63
7, 50628, Note_off_c, 5, 69, 64
7, 50633, Note_on_c, 5, 74, 64
7, 50732, Note_off_c, 5, 74, 64
7, 50751, Note_on_c, 5, 72, 58
7, 50837, Note_off_c, 5, 72, 64
7, 50866, Note_on_c, 5, 71, 52
7, 50970, Note_off_c, 5, 71, 64
7, 50982, Note_on_c, 5, 69, 51
7, 51085, Note_off_c, 5, 69, 64
7, 51102, Note_on_c, 5, 67, 59
7, 51224, Note_off_c, 5, 67, 64
7, 51356, Note_on_c, 5, 69, 57
7, 51460, Note_off_c, 5, 69, 64
7, 51585, Note_on_c, 5, 66, 55
7, 51730, Note_off_c, 5, 66, 64
7, 51835, Note_on_c, 5, 67, 53
7, 51936, Note_off_c, 5, 67, 64
7, 51953, Note_on_c, 5, 66, 54
7, 52058, Note_off_c, 5, 66, 64
7, 52080, Note_on_c, 5, 67, 61
7, 52173, Note_off_c, 5, 67, 64
7, 52195, Note_on_c, 5, 69, 56
7, 52289, Note_off_c, 5, 69, 64
7, 52316, Note_on_c, 5, 71, 66
7, 52399, Note_off_c, 5, 71, 64
7, 52427, Note_on_c, 5, 72, 59
7, 52529, Note_off_c, 5, 72, 64
7, 81108, Note_on_c, 5, 67, 72
7, 81230, Note_off_c, 5, 67, 64
7, 81343, Note_on_c, 5, 72, 82
7, 81480, Note_off_c, 5, 72, 64
7, 81581, Note_on_c, 5, 76, 80
7, 81691, Note_on_c, 5, 74, 70
7, 81724, Note_off_c, 5, 76, 64
7, 81828, Note_on_c, 5, 72, 64
7, 81838, Note_off_c, 5, 74, 64
7, 81942, Note_on_c, 5, 71, 76
7, 81946, Note_off_c, 5, 72, 64
7, 82032, Note_off_c, 5, 71, 64
7, 82071, Note_on_c, 5, 72, 72
7, 82152, Note_off_c, 5, 72, 64
7, 82185, Note_on_c, 5, 74, 82
7, 82264, Note_off_c, 5, 74, 64
7, 82302, Note_on_c, 5, 76, 70
7, 82368, Note_off_c, 5, 76, 64
7, 82421, Note_on_c, 5, 77, 80
7, 82486, Note_off_c, 5, 77, 64
7, 82546, Note_on_c, 5, 79, 87
7, 82971, Note_off_c, 5, 79, 64
7, 83039, Note_on_c, 5, 81, 82
7, 83163, Note_off_c, 5, 81, 64
7, 83279, Note_on_c, 5, 77, 82
7, 83381, Note_off_c, 5, 77, 64
7, 83500, Note_on_c, 5, 74, 82
7, 83680, Note_off_c, 5, 74, 64
7, 83746, Note_on_c, 5, 72, 82
7, 83858, Note_on_c, 5, 71, 72
7, 83892, Note_off_c, 5, 72, 64
7, 83975, Note_on_c, 5, 69, 68
7, 83992, Note_off_c, 5, 71, 64
7, 84091, Note_on_c, 5, 67, 68
7, 84099, Note_off_c, 5, 69, 64
7, 84173, Note_off_c, 5, 67, 64
7, 84227, Note_on_c, 5, 72, 80
7, 84375, Note_off_c, 5, 72, 64
7, 84470, Note_on_c, 5, 76, 87
7, 84588, Note_on_c, 5, 74, 82
7, 84612, Note_off_c, 5, 76, 64
7, 84710, Note_on_c, 5, 72, 63
7, 84734, Note_off_c, 5, 74, 64
7, 84833, Note_on_c, 5, 71, 60
7, 84851, Note_off_c, 5, 72, 64
7, 84922, Note_off_c, 5, 71, 64
7, 84966, Note_on_c, 5, 74, 85
7, 85072, Note_on_c, 5, 72, 66
7, 85101, Note_off_c, 5, 74, 64
7, 85192, Note_on_c, 5, 71, 66
7, 85206, Note_off_c, 5, 72, 64
7, 85301, Note_on_c, 5, 69, 70
7, 85310, Note_off_c, 5, 71, 64
7, 85375, Note_off_c, 5, 69, 64
7, 85435, Note_on_c, 5, 74, 82
7, 85850, Note_off_c, 5, 74, 64
7, 85910, Note_on_c, 5, 72, 72
7, 85988, Note_off_c, 5, 72, 64
7, 86027, Note_on_c, 5, 71, 82
7, 86100, Note_off_c, 5, 71, 64
7, 86147, Note_on_c, 5, 69, 74
7, 86228, Note_off_c, 5, 69, 64
7, 86265, Note_on_c, 5, 71, 82
7, 86349, Note_off_c, 5, 71, 64
7, 86402, Note_on_c, 5, 67, 80
7, 86756, Note_off_c, 5, 67, 64
7, 86880, Note_on_c, 5, 67, 82
7, 86999, Note_off_c, 5, 67, 64
7, 87114, Note_on_c, 5, 72, 85
7, 87265, Note_off_c, 5, 72, 64
7, 87355, Note_on_c, 5, 76, 91
7, 87469, Note_on_c, 5, 74, 80
7, 87495, Note_off_c, 5, 76, 64
7, 87587, Note_on_c, 5, 72, 72
7, 87611, Note_off_c, 5, 74, 64
7, 87716, Note_on_c, 5, 71, 78
7, 87721, Note_off_c, 5, 72, 64
7, 87793, Note_off_c, 5, 71, 64
7, 87842, Note_on_c, 5, 72, 80
7, 87912, Note_off_c, 5, 72, 64
7, 87952, Note_on_c, 5, 74, 76
7, 88023, Note_off_c, 5, 74, 64
7, 88072, Note_on_c, 5, 76, 80
7, 88133, Note_off_c, 5, 76, 64
7, 88183, Note_on_c, 5, 77, 87
7, 88245, Note_off_c, 5, 77, 64
7, 88310, Note_on_c, 5, 79, 87
7, 88716, Note_off_c, 5, 79, 64
7, 88799, Note_on_c, 5, 81, 80
7, 88910, Note_off_c, 5, 81, 64
7, 89036, Note_on_c, 5, 77, 80
7, 89174, Note_off_c, 5, 77, 64
7, 89280, Note_on_c, 5, 76, 87
7, 89330, Note_on_c, 5, 74, 60
7, 89334, Note_off_c, 5, 76, 64
7, 89362, Note_on_c, 5, 76, 64
7, 89372, Note_off_c, 5, 74, 64
7, 89398, Note_on_c, 5, 74, 76
7, 89400, Note_off_c, 5, 76, 64
7, 89428, Note_on_c, 5, 76, 72
7, 89462, Note_off_c, 5, 76, 64
7, 89538, Note_on_c, 5, 72, 82
7, 89540, Note_off_c, 5, 74, 64
7, 89628, Note_on_c, 5, 71, 53
7, 89655, Note_off_c, 5, 72, 64
7, 89751, Note_off_c, 5, 71, 64
7, 89751, Note_on_c, 5, 69, 80
7, 89863, Note_on_c, 5, 67, 68
7, 89887, Note_off_c, 5, 69, 64
7, 89952, Note_off_c, 5, 67, 64
7, 90008, Note_on_c, 5, 72, 80
7, 90151, Note_off_c, 5, 72, 64
7, 90245, Note_on_c, 5, 76, 93
7, 90348, Note_on_c, 5, 74, 78
7, 90371, Note_off_c, 5, 76, 64
7, 90473, Note_on_c, 5, 72, 66
7, 90491, Note_off_c, 5, 74, 64
7, 90583, Note_on_c, 5, 71, 72
7, 90592, Note_off_c, 5, 72, 64
7, 90668, Note_off_c, 5, 71, 64
7, 90724, Note_on_c, 5, 74, 85
7, 90835, Note_on_c, 5, 72, 66
7, 90865, Note_off_c, 5, 74, 64
7, 90960, Note_on_c, 5, 71, 60
7, 90980, Note_off_c, 5, 72, 64
7, 91070, Note_on_c, 5, 69, 70
7, 91078, Note_off_c, 5, 71, 64
7, 91136, Note_off_c, 5, 69, 64
7, 91199, Note_on_c, 5, 74, 82
7, 91633, Note_off_c, 5, 74, 64
7, 91690, Note_on_c, 5, 72, 85
7, 91763, Note_off_c, 5, 72, 64
7, 91797, Note_on_c, 5, 71, 80
7, 91868, Note_off_c, 5, 71, 64
7, 91917, Note_on_c, 5, 69, 76
7, 91999, Note_off_c, 5, 69, 64
7, 92037, Note_on_c, 5, 71, 85
7, 92112, Note_off_c, 5, 71, 64
7, 92160, Note_on_c, 5, 67, 82
7, 92491, Note_off_c, 5, 67, 64
7, 92491, End_track
8, 0, Start_track
8, 0, Title_t, "Bassoon"
8, 0, Program_c, 6, 70
8, 0, Control_c, 6, 7, 100
8, 472, Note_on_c, 6, 48, 80
8, 585, Note_off_c, 6, 48, 64
8, 700, Note_on_c, 6, 60, 80
8, 816, Note_off_c, 6, 60, 64
8, 936, Note_on_c, 6, 48, 70
8, 1044, Note_off_c, 6, 48, 64
8, 1176, Note_on_c, 6, 59, 80
8, 1287, Note_off_c, 6, 59, 64
8, 1429, Note_on_c, 6, 57, 78
8, 1534, Note_off_c, 6, 57, 64
8, 1667, Note_on_c, 6, 55, 68
8, 1764, Note_off_c, 6, 55, 64
8, 1906, Note_on_c, 6, 53, 74
8, 2012, Note_off_c, 6, 53, 64
8, 2151, Note_on_c, 6, 52, 85
8, 2269, Note_off_c, 6, 52, 64
8, 2393, Note_on_c, 6, 53, 78
8, 2500, Note_off_c, 6, 53, 64
8, 2639, Note_on_c, 6, 50, 72
8, 2749, Note_off_c, 6, 50, 64
8, 2877, Note_on_c, 6, 55, 85
8, 2987, Note_off_c, 6, 55, 64
8, 3114, Note_on_c, 6, 43, 78
8, 3215, Note_off_c, 6, 43, 64
8, 3349, Note_on_c, 6, 53, 74
8, 3446, Note_off_c, 6, 53, 64
8, 3591, Note_on_c, 6, 52, 85
8, 3698, Note_off_c, 6, 52, 64
8, 3823, Note_on_c, 6, 60, 80
8, 3942, Note_off_c, 6, 60, 64
8, 4069, Note_on_c, 6, 59, 85
8, 4187, Note_off_c, 6, 59, 64
8, 4317, Note_on_c, 6, 57, 70
8, 4419, Note_off_c, 6, 57, 64
8, 4548, Note_on_c, 6, 55, 80
8, 4653, Note_off_c, 6, 55, 64
8, 4785, Note_on_c, 6, 54, 74
8, 4890, Note_off_c, 6, 54, 64
8, 5027, Note_on_c, 6, 55, 76
8, 5130, Note_off_c, 6, 55, 64
8, 5282, Note_on_c, 6, 47, 85
8, 5394, Note_off_c, 6, 47, 64
8, 5519, Note_on_c, 6, 50, 78
8, 5621, Note_off_c, 6, 50, 64
8, 5759, Note_on_c, 6, 43, 82
8, 5884, Note_off_c, 6, 43, 64
8, 5989, Note_on_c, 6, 55, 70
8, 6060, Note_off_c, 6, 55, 64
8, 6097, Note_on_c, 6, 53, 78
8, 6163, Note_off_c, 6, 53, 64
8, 6211, Note_on_c, 6, 52, 70
8, 6276, Note_off_c, 6, 52, 64
8, 6323, Note_on_c, 6, 50, 76
8, 6395, Note_off_c, 6, 50, 64
8, 6464, Note_on_c, 6, 48, 87
8, 6569, Note_off_c, 6, 48, 64
8, 6714, Note_on_c, 6, 60, 82
8, 6810, Note_off_c, 6, 60, 64
8, 6946, Note_on_c, 6, 59, 74
8, 7061, Note_off_c, 6, 59, 64
8, 7190, Note_on_c, 6, 57, 68
8, 7295, Note_off_c, 6, 57, 64
8, 7429, Note_on_c, 6, 55, 74
8, 7527, Note_off_c, 6, 55, 64
8, 7662, Note_on_c, 6, 53, 72
8, 7759, Note_off_c, 6, 53, 64
8, 7912, Note_on_c, 6, 52, 85
8, 8017, Note_off_c, 6, 52, 64
8, 8147, Note_on_c, 6, 53, 72
8, 8260, Note_off_c, 6, 53, 64
8, 8388, Note_on_c, 6, 50, 66
8, 8495, Note_off_c, 6, 50, 64
8, 8625, Note_on_c, 6, 55, 80
8, 8733, Note_off_c, 6, 55, 64
8, 8868, Note_on_c, 6, 43, 80
8, 8960, Note_off_c, 6, 43, 64
8, 9115, Note_on_c, 6, 53, 78
8, 9218, Note_off_c, 6, 53, 64
8, 9347, Note_on_c, 6, 52, 80
8, 9473, Note_off_c, 6, 52, 64
8, 9590, Note_on_c, 6, 60, 82
8, 9694, Note_off_c, 6, 60, 64
8, 9822, Note_on_c, 6, 59, 72
8, 9945, Note_off_c, 6, 59, 64
8, 10075, Note_on_c, 6, 57, 74
8, 10189, Note_off_c, 6, 57, 64
8, 10298, Note_on_c, 6, 55, 68
8, 10407, Note_off_c, 6, 55, 64
8, 10544, Note_on_c, 6, 54, 68
8, 10654, Note_off_c, 6, 54, 64
8, 10794, Note_on_c, 6, 55, 80
8, 10900, Note_off_c, 6, 55, 64
8, 11037, Note_on_c, 6, 47, 82
8, 11136, Note_off_c, 6, 47, 64
8, 11274, Note_on_c, 6, 50, 80
8, 11360, Note_off_c, 6, 50, 64
8, 11520, Note_on_c, 6, 43, 82
8, 11834, Note_off_c, 6, 43, 64
8, 41037, Note_on_c, 6, 60, 60
8, 41238, Note_off_c, 6, 60, 64
8, 41272, Note_on_c, 6, 60, 53
8, 41456, Note_off_c, 6, 60, 64
8, 41510, Note_on_c, 6, 60, 42
8, 41705, Note_off_c, 6, 60, 64
8, 41734, Note_on_c, 6, 57, 51
8, 41937, Note_off_c, 6, 57, 64
8, 41990, Note_on_c, 6, 57, 53
8, 42188, Note_off_c, 6, 57, 64
8, 42228, Note_on_c, 6, 57, 53
8, 42442, Note_off_c, 6, 57, 64
8, 42468, Note_on_c, 6, 53, 53
8, 42679, Note_off_c, 6, 53, 64
8, 42708, Note_on_c, 6, 53, 59
8, 42901, Note_off_c, 6, 53, 64
8, 42935, Note_on_c, 6, 53, 58
8, 43164, Note_off_c, 6, 53, 64
8, 43183, Note_on_c, 6, 55, 40
8, 43405, Note_off_c, 6, 55, 64
8, 43424, Note_on_c, 6, 57, 53
8, 43624, Note_off_c, 6, 57, 64
8, 43660, Note_on_c, 6, 59, 55
8, 43853, Note_off_c, 6, 59, 64
8, 43898, Note_on_c, 6, 60, 55
8, 44119, Note_off_c, 6, 60, 64
8, 44155, Note_on_c, 6, 60, 59
8, 44349, Note_off_c, 6, 60, 64
8, 44382, Note_on_c, 6, 60, 58
8, 44581, Note_off_c, 6, 60, 64
8, 44629, Note_on_c, 6, 48, 53
8, 44827, Note_off_c, 6, 48, 64
8, 44848, Note_on_c, 6, 48, 41
8, 45055, Note_off_c, 6, 48, 64
8, 45103, Note_on_c, 6, 48, 51
8, 45311, Note_off_c, 6, 48, 64
8, 45355, Note_on_c, 6, 47, 59
8, 45542, Note_off_c, 6, 47, 64
8, 45579, Note_on_c, 6, 48, 56
8, 45765, Note_off_c, 6, 48, 64
8, 45823, Note_on_c, 6, 50, 53
8, 45994, Note_off_c, 6, 50, 64
8, 46072, Note_on_c, 6, 43, 52
8, 46516, Note_off_c, 6, 43, 64
8, 46787, Note_on_c, 6, 60, 52
8, 46988, Note_off_c, 6, 60, 64
8, 47022, Note_on_c, 6, 60, 53
8, 47218, Note_off_c, 6, 60, 64
8, 47267, Note_on_c, 6, 60, 60
8, 47462, Note_off_c, 6, 60, 64
8, 47504, Note_on_c, 6, 57, 51
8, 47691, Note_off_c, 6, 57, 64
8, 47745, Note_on_c, 6, 57, 52
8, 47933, Note_off_c, 6, 57, 64
8, 47986, Note_on_c, 6, 57, 53
8, 48190, Note_off_c, 6, 57, 64
8, 48224, Note_on_c, 6, 53, 50
8, 48417, Note_off_c, 6, 53, 64
8, 48455, Note_on_c, 6, 53, 60
8, 48684, Note_off_c, 6, 53, 64
8, 48709, Note_on_c, 6, 53, 39
8, 48911, Note_off_c, 6, 53, 64
8, 48949, Note_on_c, 6, 55, 52
8, 49156, Note_off_c, 6, 55, 64
8, 49188, Note_on_c, 6, 57, 52
8, 49387, Note_off_c, 6, 57, 64
8, 49416, Note_on_c, 6, 59, 52
8, 49597, Note_off_c, 6, 59, 64
8, 49663, Note_on_c, 6, 60, 53
8, 49873, Note_off_c, 6, 60, 64
8, 49915, Note_on_c, 6, 60, 59
8, 50100, Note_off_c, 6, 60, 64
8, 50136, Note_on_c, 6, 60, 52
8, 50342, Note_off_c, 6, 60, 64
8, 50383, Note_on_c, 6, 48, 51
8, 50581, Note_off_c, 6, 48, 64
8, 50619, Note_on_c, 6, 48, 30
8, 50826, Note_off_c, 6, 48, 64
8, 50872, Note_on_c, 6, 48, 39
8, 51064, Note_off_c, 6, 48, 64
8, 51106, Note_on_c, 6, 47, 58
8, 51296, Note_off_c, 6, 47, 64
8, 51342, Note_on_c, 6, 48, 44
8, 51546, Note_off_c, 6, 48, 64
8, 51581, Note_on_c, 6, 50, 57
8, 51775, Note_off_c, 6, 50, 64
8, 51833, Note_on_c, 6, 43, 53
8, 52188, Note_off_c, 6, 43, 64
8, 81112, Note_on_c, 6, 48, 80
8, 81225, Note_off_c, 6, 48, 64
8, 81340, Note_on_c, 6, 60, 80
8, 81456, Note_off_c, 6, 60, 64
8, 81576, Note_on_c, 6, 48, 70
8, 81684, Note_off_c, 6, 48, 64
8, 81816, Note_on_c, 6, 59, 80
8, 81927, Note_off_c, 6, 59, 64
8, 82069, Note_on_c, 6, 57, 78
8, 82174, Note_off_c, 6, 57, 64
8, 82307, Note_on_c, 6, 55, 68
8, 82404, Note_off_c, 6, 55, 64
8, 82546, Note_on_c, 6, 53, 74
8, 82652, Note_off_c, 6, 53, 64
8, 82791, Note_on_c, 6, 52, 85
8, 82909, Note_off_c, 6, 52, 64
8, 83033, Note_on_c, 6, 53, 78
8, 83140, Note_off_c, 6, 53, 64
8, 83279, Note_on_c, 6, 50, 72
8, 83389, Note_off_c, 6, 50, 64
8, 83517, Note_on_c, 6, 55, 85
8, 83627, Note_off_c, 6, 55, 64
8, 83754, Note_on_c, 6, 43, 78
8, 83855, Note_off_c, 6, 43, 64
8, 83989, Note_on_c, 6, 53, 74
8, 84086, Note_off_c, 6, 53, 64
8, 84231, Note_on_c, 6, 52, 85
8, 84338, Note_off_c, 6, 52, 64
8, 84463, Note_on_c, 6, 60, 80
8, 84582, Note_off_c, 6, 60, 64
8, 84709, Note_on_c, 6, 59, 85
8, 84827, Note_off_c, 6, 59, 64
8, 84957, Note_on_c, 6, 57, 70
8, 85059, Note_off_c, 6, 57, 64
8, 85188, Note_on_c, 6, 55, 80
8, 85293, Note_off_c, 6, 55, 64
8, 85425, Note_on_c, 6, 54, 74
8, 85530, Note_off_c, 6, 54, 64
8, 85667, Note_on_c, 6, 55, 76
8, 85770, Note_off_c, 6, 55, 64
8, 85922, Note_on_c, 6, 47, 85
8, 86034, Note_off_c, 6, 47, 64
8, 86159, Note_on_c, 6, 50, 78
8, 86261, Note_off_c, 6, 50, 64
8, 86399, Note_on_c, 6, 43, 82
8, 86524, Note_off_c, 6, 43, 64
8, 86629, Note_on_c, 6, 55, 70
8, 86700, Note_off_c, 6, 55, 64
8, 86737, Note_on_c, 6, 53, 78
8, 86803, Note_off_c, 6, 53, 64
8, 86851, Note_on_c, 6, 52, 70
8, 86916, Note_off_c, 6, 52, 64
8, 86963, Note_on_c, 6, 50, 76
8, 87035, Note_off_c, 6, 50, 64
8, 87104, Note_on_c, 6, 48, 87
8, 87209, Note_off_c, 6, 48, 64
8, 87354, Note_on_c, 6, 60, 82
8, 87450, Note_off_c, 6, 60, 64
8, 87586, Note_on_c, 6, 59, 74
8, 87701, Note_off_c, 6, 59, 64
8, 87830, Note_on_c, 6, 57, 68
8, 87935, Note_off_c, 6, 57, 64
8, 88069, Note_on_c, 6, 55, 74
8, 88167, Note_off_c, 6, 55, 64
8, 88302, Note_on_c, 6, 53, 72
8, 88399, Note_off_c, 6, 53, 64
8, 88552, Note_on_c, 6, 52, 85
8, 88657, Note_off_c, 6, 52, 64
8, 88787, Note_on_c, 6, 53, 72
8, 88900, Note_off_c, 6, 53, 64
8, 89028, Note_on_c, 6, 50, 66
8, 89135, Note_off_c, 6, 50, 64
8, 89265, Note_on_c, 6, 55, 80
8, 89373, Note_off_c, 6, 55, 64
8, 89508, Note_on_c, 6, 43, 80
8, 89600, Note_off_c, 6, 43, 64
8, 89755, Note_on_c, 6, 53, 78
8, 89858, Note_off_c, 6, 53, 64
8, 89987, Note_on_c, 6, 52, 80
8, 90113, Note_off_c, 6, 52, 64
8, 90230, Note_on_c, 6, 60, 82
8, 90334, Note_off_c, 6, 60, 64
8, 90462, Note_on_c, 6, 59, 72
8, 90585, Note_off_c, 6, 59, 64
8, 90715, Note_on_c, 6, 57, 74
8, 90829, Note_off_c, 6, 57, 64
8, 90938, Note_on_c, 6, 55, 68
8, 91047, Note_off_c, 6, 55, 64
8, 91184, Note_on_c, 6, 54, 68
8, 91294, Note_off_c, 6, 54, 64
8, 91434, Note_on_c, 6, 55, 80
8, 91540, Note_off_c, 6, 55, 64
8, 91677, Note_on_c, 6, 47, 82
8, 91776, Note_off_c, 6, 47, 64
8, 91914, Note_on_c, 6, 50, 80
8, 92000, Note_off_c, 6, 50, 64
8, 92160, Note_on_c, 6, 43, 82
8, 92474, Note_off_c, 6, 43, 64
8, 92474, End_track
9, 0, Start_track
9, 0, Title_t, "Violin1"
9, 0, Program_c, 0, 40
9, 0, Control_c, 0, 7, 100
9, 12001, Note_on_c, 0, 74, 78
9, 12114, Note_off_c, 0, 74, 64
9, 12230, Note_on_c, 0, 71, 64
9, 12406, Note_off_c, 0, 71, 64
9, 12472, Note_on_c, 0, 72, 82
9, 12578, Note_on_c, 0, 71, 76
9, 12610, Note_off_c, 0, 72, 64
9, 12694, Note_on_c, 0, 69, 64
9, 12711, Note_off_c, 0, 71, 64
9, 12807, Note_on_c, 0, 67, 68
9, 12817, Note_off_c, 0, 69, 64
9, 12871, Note_off_c, 0, 67, 64
9, 12950, Note_on_c, 0, 76, 82
9, 13055, Note_on_c, 0, 77, 76
9, 13075, Note_off_c, 0, 76, 64
9, 13160, Note_on_c, 0, 79, 70
9, 13170, Note_off_c, 0, 77, 64
9, 13279, Note_on_c, 0, 81, 68
9, 13284, Note_off_c, 0, 79, 64
9, 13355, Note_off_c, 0, 81, 64
9, 13421, Note_on_c, 0, 82, 85
9, 13863, Note_off_c, 0, 82, 64
9, 13917, Note_on_c, 0, 81, 76
9, 14034, Note_off_c, 0, 81, 64
9, 14142, Note_on_c, 0, 79, 78
9, 14258, Note_off_c, 0, 79, 64
9, 14377, Note_on_c, 0, 77, 78
9, 14542, Note_off_c, 0, 77, 64
9, 14626, Note_on_c, 0, 79, 74
9, 14740, Note_on_c, 0, 77, 63
9, 14769, Note_off_c, 0, 79, 64
9, 14867, Note_on_c, 0, 76, 70
9, 14877, Note_off_c, 0, 77, 64
9, 14967, Note_off_c, 0, 76, 64
9, 14975, Note_on_c, 0, 74, 68
9, 15051, Note_off_c, 0, 74, 64
9, 15096, Note_on_c, 0, 73, 63
9, 15165, Note_off_c, 0, 73, 64
9, 15204, Note_on_c, 0, 74, 64
9, 15282, Note_off_c, 0, 74, 64
9, 15335, Note_on_c, 0, 76, 85
9, 15470, Note_off_c, 0, 76, 64
9, 15579, Note_on_c, 0, 81, 82
9, 15983, Note_off_c, 0, 81, 64
9, 16062, Note_on_c, 0, 79, 82
9, 16172, Note_on_c, 0, 77, 64
9, 16194, Note_off_c, 0, 79, 64
9, 16304, Note_on_c, 0, 76, 59
9, 16319, Note_off_c, 0, 77, 64
9, 16416, Note_on_c, 0, 74, 59
9, 16425, Note_off_c, 0, 76, 64
9, 16514, Note_off_c, 0, 74, 64
9, 16543, Note_on_c, 0, 73, 78
9, 16647, Note_on_c, 0, 74, 74
9, 16678, Note_off_c, 0, 73, 64
9, 16786, Note_on_c, 0, 76, 66
9, 16799, Note_off_c, 0, 74, 64
9, 16897, Note_on_c, 0, 77, 78
9, 16918, Note_off_c, 0, 76, 64
9, 16982, Note_off_c, 0, 77, 64
9, 17021, Note_on_c, 0, 79, 72
9, 17442, Note_off_c, 0, 79, 64
9, 17512, Note_on_c, 0, 77, 80
9, 17625, Note_on_c, 0, 76, 66
9, 17649, Note_off_c, 0, 77, 64
9, 17747, Note_off_c, 0, 76, 64
9, 17749, Note_on_c, 0, 74, 63
9, 17855, Note_on_c, 0, 73, 55
9, 17872, Note_off_c, 0, 74, 64
9, 17934, Note_off_c, 0, 73, 64
9, 17976, Note_on_c, 0, 74, 78
9, 18045, Note_off_c, 0, 74, 64
9, 18097, Note_on_c, 0, 69, 72
9, 18173, Note_off_c, 0, 69, 64
9, 18222, Note_on_c, 0, 77, 85
9, 18337, Note_on_c, 0, 76, 78
9, 18372, Note_off_c, 0, 77, 64
9, 18450, Note_on_c, 0, 74, 60
9, 18457, Note_off_c, 0, 76, 64
9, 18568, Note_on_c, 0, 72, 59
9, 18582, Note_off_c, 0, 74, 64
9, 18635, Note_off_c, 0, 72, 64
9, 18692, Note_on_c, 0, 70, 66
9, 18801, Note_on_c, 0, 74, 70
9, 18820, Note_off_c, 0, 70, 64
9, 18879, Note_off_c, 0, 74, 64
9, 18937, Note_on_c, 0, 79, 85
9, 19005, Note_off_c, 0, 79, 64
9, 19051, Note_on_c, 0, 76, 76
9, 19125, Note_off_c, 0, 76, 64
9, 19179, Note_on_c, 0, 77, 82
9, 19530, Note_off_c, 0, 77, 64
9, 19534, Note_on_c, 0, 74, 60
9, 19608, Note_off_c, 0, 74, 64
9, 19659, Note_on_c, 0, 77, 82
9, 19770, Note_on_c, 0, 76, 76
9, 19781, Note_off_c, 0, 77, 64
9, 19843, Note_off_c, 0, 76, 64
9, 19889, Note_on_c, 0, 74, 66
9, 20003, Note_on_c, 0, 73, 58
9, 20009, Note_off_c, 0, 74, 64
9, 20091, Note_off_c, 0, 73, 64
9, 20141, Note_on_c, 0, 74, 68
9, 20483, Note_off_c, 0, 74, 64
9, 20622, Note_on_c, 0, 69, 78
9, 20697, Note_off_c, 0, 69, 64
9, 20744, Note_on_c, 0, 71, 70
9, 20812, Note_off_c, 0, 71, 64
9, 20867, Note_on_c, 0, 72, 78
9, 21023, Note_off_c, 0, 72, 64
9, 21104, Note_on_c, 0, 74, 78
9, 21214, Note_on_c, 0, 72, 66
9, 21246, Note_off_c, 0, 74, 64
9, 21344, Note_on_c, 0, 71, 66
9, 21365, Note_off_c, 0, 72, 64
9, 21452, Note_on_c, 0, 69, 66
9, 21456, Note_off_c, 0, 71, 64
9, 21539, Note_off_c, 0, 69, 64
9, 21580, Note_on_c, 0, 71, 74
9, 21667, Note_off_c, 0, 71, 64
9, 21696, Note_on_c, 0, 69, 66
9, 21774, Note_off_c, 0, 69, 64
9, 21820, Note_on_c, 0, 67, 70
9, 21907, Note_off_c, 0, 67, 64
9, 21940, Note_on_c, 0, 69, 70
9, 22022, Note_off_c, 0, 69, 64
9, 22067, Note_on_c, 0, 71, 70
9, 22140, Note_off_c, 0, 71, 64
9, 22170, Note_on_c, 0, 72, 59
9, 22257, Note_off_c, 0, 72, 64
9, 22293, Note_on_c, 0, 74, 85
9, 22385, Note_off_c, 0, 74, 64
9, 22409, Note_on_c, 0, 76, 85
9, 22493, Note_off_c, 0, 76, 64
9, 22532, Note_on_c, 0, 77, 82
9, 22657, Note_off_c, 0, 77, 64
9, 22781, Note_on_c, 0, 76, 82
9, 22896, Note_off_c, 0, 76, 64
9, 23019, Note_on_c, 0, 74, 80
9, 23134, Note_off_c, 0, 74, 64
9, 23138, Note_on_c, 0, 72, 78
9, 23200, Note_off_c, 0, 72, 64
9, 23250, Note_on_c, 0, 71, 78
9, 23329, Note_off_c, 0, 71, 64
9, 23365, Note_on_c, 0, 72, 76
9, 23445, Note_off_c, 0, 72, 64
9, 23494, Note_on_c, 0, 74, 78
9, 23564, Note_off_c, 0, 74, 64
9, 23606, Note_on_c, 0, 76, 53
9, 23691, Note_off_c, 0, 76, 64
9, 23738, Note_on_c, 0, 77, 82
9, 23823, Note_off_c, 0, 77, 64
9, 23862, Note_on_c, 0, 79, 80
9, 23945, Note_off_c, 0, 79, 64
9, 23981, Note_on_c, 0, 81, 80
9, 24103, Note_off_c, 0, 81, 64
9, 24231, Note_on_c, 0, 79, 85
9, 24594, Note_off_c, 0, 79, 64
9, 24702, Note_on_c, 0, 70, 70
9, 24784, Note_off_c, 0, 70, 64
9, 24813, Note_on_c, 0, 69, 64
9, 24892, Note_off_c, 0, 69, 64
9, 24935, Note_on_c, 0, 70, 64
9, 25019, Note_off_c, 0, 70, 64
9, 25049, Note_on_c, 0, 67, 68
9, 25132, Note_off_c, 0, 67, 64
9, 25179, Note_on_c, 0, 69, 85
9, 25279, Note_off_c, 0, 69, 64
9, 25423, Note_on_c, 0, 74, 85
9, 25526, Note_off_c, 0, 74, 64
9, 25672, Note_on_c, 0, 71, 82
9, 25764, Note_off_c, 0, 71, 64
9, 25918, Note_on_c, 0, 72, 78
9, 26258, Note_off_c, 0, 72, 64
9, 26387, Note_on_c, 0, 74, 87
9, 26485, Note_off_c, 0, 74, 64
9, 26626, Note_on_c, 0, 71, 82
9, 26794, Note_off_c, 0, 71, 64
9, 26872, Note_on_c, 0, 72, 85
9, 26978, Note_on_c, 0, 71, 78
9, 27009, Note_off_c, 0, 72, 64
9, 27095, Note_on_c, 0, 69, 64
9, 27103, Note_off_c, 0, 71, 64
9, 27212, Note_on_c, 0, 67, 82
9, 27222, Note_off_c, 0, 69, 64
9, 27276, Note_off_c, 0, 67, 64
9, 27352, Note_on_c, 0, 76, 54
9, 27451, Note_on_c, 0, 77, 82
9, 27483, Note_off_c, 0, 76, 64
9, 27573, Note_on_c, 0, 79, 70
9, 27590, Note_off_c, 0, 77, 64
9, 27680, Note_on_c, 0, 81, 82
9, 27685, Note_off_c, 0, 79, 64
9, 27777, Note_off_c, 0, 81, 64
9, 27830, Note_on_c, 0, 82, 85
9, 28283, Note_off_c, 0, 82, 64
9, 28320, Note_on_c, 0, 81, 68
9, 28437, Note_off_c, 0, 81, 64
9, 28547, Note_on_c, 0, 79, 78
9, 28658, Note_off_c, 0, 79, 64
9, 28777, Note_on_c, 0, 77, 72
9, 28931, Note_off_c, 0, 77, 64
9, 29024, Note_on_c, 0, 79, 80
9, 29134, Note_on_c, 0, 77, 68
9, 29162, Note_off_c, 0, 79, 64
9, 29262, Note_on_c, 0, 76, 70
9, 29274, Note_off_c, 0, 77, 64
9, 29372, Note_off_c, 0, 76, 64
9, 29377, Note_on_c, 0, 74, 70
9, 29464, Note_off_c, 0, 74, 64
9, 29501, Note_on_c, 0, 73, 70
9, 29577, Note_off_c, 0, 73, 64
9, 29610, Note_on_c, 0, 74, 68
9, 29690, Note_off_c, 0, 74, 64
9, 29736, Note_on_c, 0, 76, 82
9, 29859, Note_off_c, 0, 76, 64
9, 29978, Note_on_c, 0, 81, 85
9, 30377, Note_off_c, 0, 81, 64
9, 30461, Note_on_c, 0, 79, 80
9, 30570, Note_on_c, 0, 77, 66
9, 30597, Note_off_c, 0, 79, 64
9, 30701, Note_on_c, 0, 76, 63
9, 30705, Note_off_c, 0, 77, 64
9, 30812, Note_off_c, 0, 76, 64
9, 30817, Note_on_c, 0, 74, 70
9, 30905, Note_off_c, 0, 74, 64
9, 30944, Note_on_c, 0, 73, 82
9, 31058, Note_on_c, 0, 74, 68
9, 31079, Note_off_c, 0, 73, 64
9, 31183, Note_on_c, 0, 76, 68
9, 31195, Note_off_c, 0, 74, 64
9, 31290, Note_on_c, 0, 77, 76
9, 31310, Note_off_c, 0, 76, 64
9, 31368, Note_off_c, 0, 77, 64
9, 31414, Note_on_c, 0, 79, 80
9, 31829, Note_off_c, 0, 79, 64
9, 31912, Note_on_c, 0, 77, 78
9, 32021, Note_on_c, 0, 76, 63
9, 32044, Note_off_c, 0, 77, 64
9, 32149, Note_on_c, 0, 74, 60
9, 32152, Note_off_c, 0, 76, 64
9, 32256, Note_on_c, 0, 73, 56
9, 32273, Note_off_c, 0, 74, 64
9, 32351, Note_off_c, 0, 73, 64
9, 32384, Note_on_c, 0, 74, 74
9, 32455, Note_off_c, 0, 74, 64
9, 32495, Note_on_c, 0, 69, 60
9, 32577, Note_off_c, 0, 69, 64
9, 32622, Note_on_c, 0, 77, 80
9, 32735, Note_on_c, 0, 76, 78
9, 32766, Note_off_c, 0, 77, 64
9, 32854, Note_on_c, 0, 74, 58
9, 32866, Note_off_c, 0, 76, 64
9, 32966, Note_on_c, 0, 72, 57
9, 32987, Note_off_c, 0, 74, 64
9, 33044, Note_off_c, 0, 72, 64
9, 33092, Note_on_c, 0, 70, 70
9, 33211, Note_on_c, 0, 74, 68
9, 33220, Note_off_c, 0, 70, 64
9, 33299, Note_off_c, 0, 74, 64
9, 33337, Note_on_c, 0, 79, 85
9, 33401, Note_off_c, 0, 79, 64
9, 33459, Note_on_c, 0, 76, 80
9, 33515, Note_off_c, 0, 76, 64
9, 33584, Note_on_c, 0, 77, 85
9, 33902, Note_off_c, 0, 77, 64
9, 33946, Note_on_c, 0, 74, 64
9, 34024, Note_off_c, 0, 74, 64
9, 34071, Note_on_c, 0, 77, 78
9, 34182, Note_on_c, 0, 76, 80
9, 34195, Note_off_c, 0, 77, 64
9, 34260, Note_off_c, 0, 76, 64
9, 34302, Note_on_c, 0, 74, 70
9, 34406, Note_on_c, 0, 73, 58
9, 34413, Note_off_c, 0, 74, 64
9, 34500, Note_off_c, 0, 73, 64
9, 34554, Note_on_c, 0, 74, 68
9, 34878, Note_off_c, 0, 74, 64
9, 35019, Note_on_c, 0, 69, 70
9, 35110, Note_off_c, 0, 69, 64
9, 35134, Note_on_c, 0, 71, 78
9, 35210, Note_off_c, 0, 71, 64
9, 35271, Note_on_c, 0, 72, 82
9, 35453, Note_off_c, 0, 72, 64
9, 35511, Note_on_c, 0, 74, 78
9, 35618, Note_on_c, 0, 72, 68
9, 35653, Note_off_c, 0, 74, 64
9, 35752, Note_on_c, 0, 71, 60
9, 35773, Note_off_c, 0, 72, 64
9, 35857, Note_on_c, 0, 69, 63
9, 35869, Note_off_c, 0, 71, 64
9, 35947, Note_off_c, 0, 69, 64
9, 35977, Note_on_c, 0, 71, 82
9, 36084, Note_off_c, 0, 71, 64
9, 36095, Note_on_c, 0, 69, 62
9, 36186, Note_off_c, 0, 69, 64
9, 36218, Note_on_c, 0, 67, 68
9, 36330, Note_off_c, 0, 67, 64
9, 36338, Note_on_c, 0, 69, 76
9, 36435, Note_off_c, 0, 69, 64
9, 36460, Note_on_c, 0, 71, 80
9, 36548, Note_off_c, 0, 71, 64
9, 36569, Note_on_c, 0, 72, 64
9, 36677, Note_off_c, 0, 72, 64
9, 36705, Note_on_c, 0, 74, 82
9, 36813, Note_off_c, 0, 74, 64
9, 36822, Note_on_c, 0, 76, 80
9, 36912, Note_off_c, 0, 76, 64
9, 36944, Note_on_c, 0, 77, 82
9, 37073, Note_off_c, 0, 77, 64
9, 37180, Note_on_c, 0, 76, 68
9, 37312, Note_off_c, 0, 76, 64
9, 37423, Note_on_c, 0, 74, 68
9, 37527, Note_off_c, 0, 74, 64
9, 37540, Note_on_c, 0, 72, 62
9, 37631, Note_off_c, 0, 72, 64
9, 37660, Note_on_c, 0, 71, 66
9, 37753, Note_off_c, 0, 71, 64
9, 37777, Note_on_c, 0, 72, 70
9, 37865, Note_off_c, 0, 72, 64
9, 37902, Note_on_c, 0, 74, 78
9, 37996, Note_off_c, 0, 74, 64
9, 38025, Note_on_c, 0, 76, 76
9, 38105, Note_off_c, 0, 76, 64
9, 38150, Note_on_c, 0, 77, 85
9, 38241, Note_off_c, 0, 77, 64
9, 38265, Note_on_c, 0, 79, 89
9, 38351, Note_off_c, 0, 79, 64
9, 38389, Note_on_c, 0, 81, 85
9, 38516, Note_off_c, 0, 81, 64
9, 38638, Note_on_c, 0, 79, 87
9, 38982, Note_off_c, 0, 79, 64
9, 39106, Note_on_c, 0, 70, 72
9, 39184, Note_off_c, 0, 70, 64
9, 39213, Note_on_c, 0, 69, 72
9, 39296, Note_off_c, 0, 69, 64
9, 39335, Note_on_c, 0, 70, 64
9, 39430, Note_off_c, 0, 70, 64
9, 39449, Note_on_c, 0, 67, 70
9, 39533, Note_off_c, 0, 67, 64
9, 39580, Note_on_c, 0, 69, 87
9, 39690, Note_off_c, 0, 69, 64
9, 39829, Note_on_c, 0, 74, 89
9, 39940, Note_off_c, 0, 74, 64
9, 40052, Note_on_c, 0, 72, 85
9, 40094, Note_on_c, 0, 71, 85
9, 40098, Note_off_c, 0, 72, 64
9, 40131, Note_on_c, 0, 72, 82
9, 40135, Note_off_c, 0, 71, 64
9, 40167, Note_on_c, 0, 71, 80
9, 40180, Note_off_c, 0, 72, 64
9, 40245, Note_off_c, 0, 71, 64
9, 40303, Note_on_c, 0, 72, 82
9, 40791, Note_off_c, 0, 72, 64
9, 52310, Note_on_c, 0, 62, 66
9, 52434, Note_off_c, 0, 62, 64
9, 52541, Note_on_c, 0, 59, 64
9, 52722, Note_off_c, 0, 59, 64
9, 52779, Note_on_c, 0, 60, 70
9, 52896, Note_on_c, 0, 59, 74
9, 52929, Note_off_c, 0, 60, 64
9, 53008, Note_on_c, 0, 57, 57
9, 53016, Note_off_c, 0, 59, 64
9, 53111, Note_off_c, 0, 57, 64
9, 53119, Note_on_c, 0, 55, 64
9, 53229, Note_off_c, 0, 55, 64
9, 53245, Note_on_c, 0, 64, 58
9, 53345, Note_off_c, 0, 64, 64
9, 53366, Note_on_c, 0, 65, 68
9, 53441, Note_off_c, 0, 65, 64
9, 53480, Note_on_c, 0, 67, 61
9, 53558, Note_off_c, 0, 67, 64
9, 53599, Note_on_c, 0, 69, 70
9, 53687, Note_off_c, 0, 69, 64
9, 53725, Note_on_c, 0, 70, 64
9, 54173, Note_off_c, 0, 70, 64
9, 54224, Note_on_c, 0, 69, 66
9, 54356, Note_off_c, 0, 69, 64
9, 54463, Note_on_c, 0, 67, 64
9, 54585, Note_off_c, 0, 67, 64
9, 54686, Note_on_c, 0, 65, 66
9, 54857, Note_off_c, 0, 65, 64
9, 54941, Note_on_c, 0, 67, 78
9, 55055, Note_on_c, 0, 65, 68
9, 55084, Note_off_c, 0, 67, 64
9, 55179, Note_on_c, 0, 64, 57
9, 55197, Note_off_c, 0, 65, 64
9, 55291, Note_off_c, 0, 64, 64
9, 55291, Note_on_c, 0, 62, 66
9, 55395, Note_off_c, 0, 62, 64
9, 55416, Note_on_c, 0, 61, 57
9, 55517, Note_off_c, 0, 61, 64
9, 55536, Note_on_c, 0, 62, 66
9, 55629, Note_off_c, 0, 62, 64
9, 55670, Note_on_c, 0, 64, 68
9, 55821, Note_off_c, 0, 64, 64
9, 55913, Note_on_c, 0, 69, 66
9, 56286, Note_off_c, 0, 69, 64
9, 56376, Note_on_c, 0, 67, 70
9, 56490, Note_on_c, 0, 65, 64
9, 56507, Note_off_c, 0, 67, 64
9, 56612, Note_on_c, 0, 64, 60
9, 56620, Note_off_c, 0, 65, 64
9, 56735, Note_on_c, 0, 62, 63
9, 56736, Note_off_c, 0, 64, 64
9, 56834, Note_off_c, 0, 62, 64
9, 56855, Note_on_c, 0, 61, 64
9, 56969, Note_on_c, 0, 62, 51
9, 56995, Note_off_c, 0, 61, 64
9, 57098, Note_on_c, 0, 64, 66
9, 57110, Note_off_c, 0, 62, 64
9, 57218, Note_on_c, 0, 65, 59
9, 57238, Note_off_c, 0, 64, 64
9, 57321, Note_off_c, 0, 65, 64
9, 57353, Note_on_c, 0, 67, 68
9, 57747, Note_off_c, 0, 67, 64
9, 57817, Note_on_c, 0, 65, 68
9, 57927, Note_on_c, 0, 64, 60
9, 57948, Note_off_c, 0, 65, 64
9, 58055, Note_off_c, 0, 64, 64
9, 58060, Note_on_c, 0, 62, 63
9, 58154, Note_on_c, 0, 61, 56
9, 58176, Note_off_c, 0, 62, 64
9, 58265, Note_off_c, 0, 61, 64
9, 58290, Note_on_c, 0, 62, 72
9, 58399, Note_off_c, 0, 62, 64
9, 58409, Note_on_c, 0, 57, 61
9, 58520, Note_off_c, 0, 57, 64
9, 58534, Note_on_c, 0, 65, 68
9, 58647, Note_on_c, 0, 64, 63
9, 58661, Note_off_c, 0, 65, 64
9, 58770, Note_off_c, 0, 64, 64
9, 58774, Note_on_c, 0, 62, 60
9, 58877, Note_on_c, 0, 60, 60
9, 58893, Note_off_c, 0, 62, 64
9, 58979, Note_off_c, 0, 60, 64
9, 59003, Note_on_c, 0, 58, 57
9, 59124, Note_on_c, 0, 62, 70
9, 59127, Note_off_c, 0, 58, 64
9, 59240, Note_off_c, 0, 62, 64
9, 59257, Note_on_c, 0, 67, 55
9, 59374, Note_off_c, 0, 67, 64
9, 59376, Note_on_c, 0, 64, 61
9, 59459, Note_off_c, 0, 64, 64
9, 59496, Note_on_c, 0, 65, 66
9, 59836, Note_off_c, 0, 65, 64
9, 59854, Note_on_c, 0, 62, 62
9, 59931, Note_off_c, 0, 62, 64
9, 59978, Note_on_c, 0, 65, 68
9, 60092, Note_on_c, 0, 64, 66
9, 60115, Note_off_c, 0, 65, 64
9, 60173, Note_off_c, 0, 64, 64
9, 60213, Note_on_c, 0, 62, 72
9, 60324, Note_on_c, 0, 61, 62
9, 60335, Note_off_c, 0, 62, 64
9, 60411, Note_off_c, 0, 61, 64
9, 60467, Note_on_c, 0, 62, 64
9, 60822, Note_off_c, 0, 62, 64
9, 60940, Note_on_c, 0, 57, 72
9, 61046, Note_off_c, 0, 57, 64
9, 61054, Note_on_c, 0, 59, 59
9, 61144, Note_off_c, 0, 59, 64
9, 61182, Note_on_c, 0, 60, 70
9, 61363, Note_off_c, 0, 60, 64
9, 61424, Note_on_c, 0, 62, 72
9, 61537, Note_on_c, 0, 60, 66
9, 61566, Note_off_c, 0, 62, 64
9, 61655, Note_on_c, 0, 59, 60
9, 61664, Note_off_c, 0, 60, 64
9, 61777, Note_on_c, 0, 57, 59
9, 61781, Note_off_c, 0, 59, 64
9, 61878, Note_off_c, 0, 57, 64
9, 61903, Note_on_c, 0, 59, 76
9, 62018, Note_on_c, 0, 57, 60
9, 62033, Note_off_c, 0, 59, 64
9, 62135, Note_off_c, 0, 57, 64
9, 62144, Note_on_c, 0, 55, 61
9, 62245, Note_off_c, 0, 55, 64
9, 62259, Note_on_c, 0, 57, 64
9, 62373, Note_off_c, 0, 57, 64
9, 62375, Note_on_c, 0, 59, 62
9, 62470, Note_off_c, 0, 59, 64
9, 62486, Note_on_c, 0, 60, 66
9, 62582, Note_off_c, 0, 60, 64
9, 62602, Note_on_c, 0, 62, 63
9, 62712, Note_off_c, 0, 62, 64
9, 62725, Note_on_c, 0, 64, 66
9, 62831, Note_off_c, 0, 64, 64
9, 62856, Note_on_c, 0, 65, 80
9, 63007, Note_off_c, 0, 65, 64
9, 63110, Note_on_c, 0, 64, 66
9, 63261, Note_off_c, 0, 64, 64
9, 63347, Note_on_c, 0, 62, 52
9, 63451, Note_on_c, 0, 60, 63
9, 63458, Note_off_c, 0, 62, 64
9, 63553, Note_off_c, 0, 60, 64
9, 63570, Note_on_c, 0, 59, 60
9, 63682, Note_off_c, 0, 59, 64
9, 63690, Note_on_c, 0, 60, 59
9, 63809, Note_off_c, 0, 60, 64
9, 63820, Note_on_c, 0, 62, 70
9, 63918, Note_off_c, 0, 62, 64
9, 63935, Note_on_c, 0, 64, 64
9, 64032, Note_off_c, 0, 64, 64
9, 64052, Note_on_c, 0, 65, 70
9, 64165, Note_off_c, 0, 65, 64
9, 64169, Note_on_c, 0, 67, 72
9, 64273, Note_off_c, 0, 67, 64
9, 64296, Note_on_c, 0, 69, 80
9, 64447, Note_off_c, 0, 69, 64
9, 64548, Note_on_c, 0, 67, 68
9, 64898, Note_off_c, 0, 67, 64
9, 65017, Note_on_c, 0, 58, 64
9, 65122, Note_off_c, 0, 58, 64
9, 65122, Note_on_c, 0, 57, 66
9, 65248, Note_on_c, 0, 58, 64
9, 65262, Note_off_c, 0, 57, 64
9, 65360, Note_off_c, 0, 58, 64
9, 65362, Note_on_c, 0, 55, 68
9, 65465, Note_off_c, 0, 55, 64
9, 65498, Note_on_c, 0, 57, 78
9, 65600, Note_off_c, 0, 57, 64
9, 65733, Note_on_c, 0, 62, 80
9, 65840, Note_off_c, 0, 62, 64
9, 65981, Note_on_c, 0, 59, 61
9, 66083, Note_off_c, 0, 59, 64
9, 66234, Note_on_c, 0, 60, 64
9, 66572, Note_off_c, 0, 60, 64
9, 66709, Note_on_c, 0, 62, 78
9, 66818, Note_off_c, 0, 62, 64
9, 66942, Note_on_c, 0, 59, 60
9, 67126, Note_off_c, 0, 59, 64
9, 67192, Note_on_c, 0, 60, 70
9, 67309, Note_on_c, 0, 59, 70
9, 67338, Note_off_c, 0, 60, 64
9, 67420, Note_on_c, 0, 57, 60
9, 67428, Note_off_c, 0, 59, 64
9, 67527, Note_off_c, 0, 57, 64
9, 67531, Note_on_c, 0, 55, 62
9, 67630, Note_off_c, 0, 55, 64
9, 67650, Note_on_c, 0, 64, 64
9, 67729, Note_off_c, 0, 64, 64
9, 67767, Note_on_c, 0, 65, 72
9, 67851, Note_off_c, 0, 65, 64
9, 67897, Note_on_c, 0, 67, 72
9, 67965, Note_off_c, 0, 67, 64
9, 68014, Note_on_c, 0, 69, 68
9, 68090, Note_off_c, 0, 69, 64
9, 68134, Note_on_c, 0, 70, 68
9, 68571, Note_off_c, 0, 70, 64
9, 68621, Note_on_c, 0, 69, 68
9, 68766, Note_off_c, 0, 69, 64
9, 68864, Note_on_c, 0, 67, 60
9, 69002, Note_off_c, 0, 67, 64
9, 69102, Note_on_c, 0, 65, 68
9, 69264, Note_off_c, 0, 65, 64
9, 69347, Note_on_c, 0, 67, 74
9, 69464, Note_on_c, 0, 65, 70
9, 69490, Note_off_c, 0, 67, 64
9, 69585, Note_on_c, 0, 64, 63
9, 69601, Note_off_c, 0, 65, 64
9, 69695, Note_off_c, 0, 64, 64
9, 69700, Note_on_c, 0, 62, 70
9, 69796, Note_off_c, 0, 62, 64
9, 69820, Note_on_c, 0, 61, 63
9, 69918, Note_off_c, 0, 61, 64
9, 69935, Note_on_c, 0, 62, 72
9, 70019, Note_off_c, 0, 62, 64
9, 70066, Note_on_c, 0, 64, 66
9, 70182, Note_off_c, 0, 64, 64
9, 70304, Note_on_c, 0, 69, 68
9, 70681, Note_off_c, 0, 69, 64
9, 70778, Note_on_c, 0, 67, 68
9, 70893, Note_on_c, 0, 65, 60
9, 70916, Note_off_c, 0, 67, 64
9, 71008, Note_on_c, 0, 64, 56
9, 71019, Note_off_c, 0, 65, 64
9, 71128, Note_on_c, 0, 62, 64
9, 71135, Note_off_c, 0, 64, 64
9, 71232, Note_off_c, 0, 62, 64
9, 71250, Note_on_c, 0, 61, 68
9, 71364, Note_on_c, 0, 62, 64
9, 71386, Note_off_c, 0, 61, 64
9, 71500, Note_on_c, 0, 64, 68
9, 71507, Note_off_c, 0, 62, 64
9, 71615, Note_on_c, 0, 65, 66
9, 71643, Note_off_c, 0, 64, 64
9, 71731, Note_off_c, 0, 65, 64
9, 71738, Note_on_c, 0, 67, 64
9, 72178, Note_off_c, 0, 67, 64
9, 72221, Note_on_c, 0, 65, 64
9, 72341, Note_on_c, 0, 64, 59
9, 72361, Note_off_c, 0, 65, 64
9, 72457, Note_off_c, 0, 64, 64
9, 72457, Note_on_c, 0, 62, 59
9, 72565, Note_on_c, 0, 61, 57
9, 72578, Note_off_c, 0, 62, 64
9, 72667, Note_off_c, 0, 61, 64
9, 72692, Note_on_c, 0, 62, 80
9, 72791, Note_off_c, 0, 62, 64
9, 72815, Note_on_c, 0, 57, 64
9, 72898, Note_off_c, 0, 57, 64
9, 72943, Note_on_c, 0, 65, 68
9, 73063, Note_on_c, 0, 64, 64
9, 73088, Note_off_c, 0, 65, 64
9, 73179, Note_on_c, 0, 62, 56
9, 73181, Note_off_c, 0, 64, 64
9, 73294, Note_on_c, 0, 60, 59
9, 73306, Note_off_c, 0, 62, 64
9, 73372, Note_off_c, 0, 60, 64
9, 73421, Note_on_c, 0, 58, 68
9, 73531, Note_on_c, 0, 62, 76
9, 73556, Note_off_c, 0, 58, 64
9, 73653, Note_off_c, 0, 62, 64
9, 73660, Note_on_c, 0, 67, 76
9, 73751, Note_off_c, 0, 67, 64
9, 73773, Note_on_c, 0, 64, 66
9, 73853, Note_off_c, 0, 64, 64
9, 73911, Note_on_c, 0, 65, 70
9, 74226, Note_off_c, 0, 65, 64
9, 74259, Note_on_c, 0, 62, 68
9, 74333, Note_off_c, 0, 62, 64
9, 74383, Note_on_c, 0, 65, 66
9, 74497, Note_on_c, 0, 64, 78
9, 74515, Note_off_c, 0, 65, 64
9, 74572, Note_off_c, 0, 64, 64
9, 74626, Note_on_c, 0, 62, 66
9, 74729, Note_on_c, 0, 61, 64
9, 74745, Note_off_c, 0, 62, 64
9, 74824, Note_off_c, 0, 61, 64
9, 74866, Note_on_c, 0, 62, 59
9, 75207, Note_off_c, 0, 62, 64
9, 75332, Note_on_c, 0, 57, 63
9, 75413, Note_off_c, 0, 57, 64
9, 75452, Note_on_c, 0, 59, 68
9, 75530, Note_off_c, 0, 59, 64
9, 75578, Note_on_c, 0, 60, 66
9, 75776, Note_off_c, 0, 60, 64
9, 75822, Note_on_c, 0, 62, 64
9, 75938, Note_on_c, 0, 60, 66
9, 75966, Note_off_c, 0, 62, 64
9, 76060, Note_on_c, 0, 59, 64
9, 76073, Note_off_c, 0, 60, 64
9, 76178, Note_on_c, 0, 57, 61
9, 76182, Note_off_c, 0, 59, 64
9, 76281, Note_off_c, 0, 57, 64
9, 76304, Note_on_c, 0, 59, 72
9, 76423, Note_on_c, 0, 57, 57
9, 76450, Note_off_c, 0, 59, 64
9, 76553, Note_on_c, 0, 55, 64
9, 76563, Note_off_c, 0, 57, 64
9, 76671, Note_on_c, 0, 57, 68
9, 76687, Note_off_c, 0, 55, 64
9, 76779, Note_on_c, 0, 59, 68
9, 76792, Note_off_c, 0, 57, 64
9, 76902, Note_on_c, 0, 60, 62
9, 76922, Note_off_c, 0, 59, 64
9, 77000, Note_off_c, 0, 60, 64
9, 77021, Note_on_c, 0, 62, 68
9, 77128, Note_on_c, 0, 64, 66
9, 77142, Note_off_c, 0, 62, 64
9, 77254, Note_off_c, 0, 64, 64
9, 77265, Note_on_c, 0, 65, 59
9, 77411, Note_off_c, 0, 65, 64
9, 77516, Note_on_c, 0, 64, 68
9, 77650, Note_off_c, 0, 64, 64
9, 77732, Note_on_c, 0, 62, 64
9, 77858, Note_on_c, 0, 60, 60
9, 77869, Note_off_c, 0, 62, 64
9, 77968, Note_off_c, 0, 60, 64
9, 77985, Note_on_c, 0, 59, 64
9, 78092, Note_on_c, 0, 60, 66
9, 78098, Note_off_c, 0, 59, 64
9, 78214, Note_off_c, 0, 60, 64
9, 78218, Note_on_c, 0, 62, 64
9, 78327, Note_off_c, 0, 62, 64
9, 78331, Note_on_c, 0, 64, 66
9, 78438, Note_off_c, 0, 64, 64
9, 78440, Note_on_c, 0, 65, 66
9, 78551, Note_off_c, 0, 65, 64
9, 78560, Note_on_c, 0, 67, 64
9, 78672, Note_off_c, 0, 67, 64
9, 78685, Note_on_c, 0, 69, 64
9, 78841, Note_off_c, 0, 69, 64
9, 78941, Note_on_c, 0, 67, 68
9, 79333, Note_off_c, 0, 67, 64
9, 79434, Note_on_c, 0, 58, 62
9, 79539, Note_on_c, 0, 57, 70
9, 79552, Note_off_c, 0, 58, 64
9, 79663, Note_on_c, 0, 58, 58
9, 79675, Note_off_c, 0, 57, 64
9, 79772, Note_on_c, 0, 55, 64
9, 79775, Note_off_c, 0, 58, 64
9, 79885, Note_off_c, 0, 55, 64
9, 79909, Note_on_c, 0, 57, 80
9, 80014, Note_off_c, 0, 57, 64
9, 80153, Note_on_c, 0, 62, 80
9, 80263, Note_off_c, 0, 62, 64
9, 80376, Note_on_c, 0, 60, 63
9, 80417, Note_on_c, 0, 59, 64
9, 80422, Note_off_c, 0, 60, 64
9, 80457, Note_on_c, 0, 60, 66
9, 80461, Note_off_c, 0, 59, 64
9, 80494, Note_on_c, 0, 59, 63
9, 80503, Note_off_c, 0, 60, 64
9, 80567, Note_off_c, 0, 59, 64
9, 80619, Note_on_c, 0, 60, 62
9, 81023, Note_off_c, 0, 60, 64
9, 92641, Note_on_c, 0, 74, 78
9, 92754, Note_off_c, 0, 74, 64
9, 92870, Note_on_c, 0, 71, 64
9, 93046, Note_off_c, 0, 71, 64
9, 93112, Note_on_c, 0, 72, 82
9, 93218, Note_on_c, 0, 71, 76
9, 93250, Note_off_c, 0, 72, 64
9, 93334, Note_on_c, 0, 69, 64
9, 93351, Note_off_c, 0, 71, 64
9, 93447, Note_on_c, 0, 67, 68
9, 93457, Note_off_c, 0, 69, 64
9, 93511, Note_off_c, 0, 67, 64
9, 93590, Note_on_c, 0, 76, 82
9, 93695, Note_on_c, 0, 77, 76
9, 93715, Note_off_c, 0, 76, 64
9, 93800, Note_on_c, 0, 79, 70
9, 93810, Note_off_c, 0, 77, 64
9, 93919, Note_on_c, 0, 81, 68
9, 93924, Note_off_c, 0, 79, 64
9, 93995, Note_off_c, 0, 81, 64
9, 94061, Note_on_c, 0, 82, 85
9, 94503, Note_off_c, 0, 82, 64
9, 94557, Note_on_c, 0, 81, 76
9, 94674, Note_off_c, 0, 81, 64
9, 94782, Note_on_c, 0, 79, 78
9, 94898, Note_off_c, 0, 79, 64
9, 95017, Note_on_c, 0, 77, 78
9, 95182, Note_off_c, 0, 77, 64
9, 95266, Note_on_c, 0, 79, 74
9, 95380, Note_on_c, 0, 77, 63
9, 95409, Note_off_c, 0, 79, 64
9, 95507, Note_on_c, 0, 76, 70
9, 95517, Note_off_c, 0, 77, 64
9, 95607, Note_off_c, 0, 76, 64
9, 95615, Note_on_c, 0, 74, 68
9, 95691, Note_off_c, 0, 74, 64
9, 95736, Note_on_c, 0, 73, 63
9, 95805, Note_off_c, 0, 73, 64
9, 95844, Note_on_c, 0, 74, 64
9, 95922, Note_off_c, 0, 74, 64
9, 95975, Note_on_c, 0, 76, 85
9, 96110, Note_off_c, 0, 76, 64
9, 96219, Note_on_c, 0, 81, 82
9, 96623, Note_off_c, 0, 81, 64
9, 96702, Note_on_c, 0, 79, 82
9, 96812, Note_on_c, 0, 77, 64
9, 96834, Note_off_c, 0, 79, 64
9, 96944, Note_on_c, 0, 76, 59
9, 96959, Note_off_c, 0, 77, 64
9, 97056, Note_on_c, 0, 74, 59
9, 97065, Note_off_c, 0, 76, 64
9, 97154, Note_off_c, 0, 74, 64
9, 97183, Note_on_c, 0, 73, 78
9, 97287, Note_on_c, 0, 74, 74
9, 97318, Note_off_c, 0, 73, 64
9, 97426, Note_on_c, 0, 76, 66
9, 97439, Note_off_c, 0, 74, 64
9, 97537, Note_on_c, 0, 77, 78
9, 97558, Note_off_c, 0, 76, 64
9, 97622, Note_off_c, 0, 77, 64
9, 97661, Note_on_c, 0, 79, 72
9, 98082, Note_off_c, 0, 79, 64
9, 98152, Note_on_c, 0, 77, 80
9, 98265, Note_on_c, 0, 76, 66
9, 98289, Note_off_c, 0, 77, 64
9, 98387, Note_off_c, 0, 76, 64
9, 98389, Note_on_c, 0, 74, 63
9, 98495, Note_on_c, 0, 73, 55
9, 98512, Note_off_c, 0, 74, 64
9, 98574, Note_off_c, 0, 73, 64
9, 98616, Note_on_c, 0, 74, 78
9, 98685, Note_off_c, 0, 74, 64
9, 98737, Note_on_c, 0, 69, 72
9, 98813, Note_off_c, 0, 69, 64
9, 98862, Note_on_c, 0, 77, 85
9, 98977, Note_on_c, 0, 76, 78
9, 99012, Note_off_c, 0, 77, 64
9, 99090, Note_on_c, 0, 74, 60
9, 99097, Note_off_c, 0, 76, 64
9, 99208, Note_on_c, 0, 72, 59
9, 99222, Note_off_c, 0, 74, 64
9, 99275, Note_off_c, 0, 72, 64
9, 99332, Note_on_c, 0, 70, 66
9, 99441, Note_on_c, 0, 74, 70
9, 99460, Note_off_c, 0, 70, 64
9, 99519, Note_off_c, 0, 74, 64
9, 99577, Note_on_c, 0, 79, 85
9, 99645, Note_off_c, 0, 79, 64
9, 99691, Note_on_c, 0, 76, 76
9, 99765, Note_off_c, 0, 76, 64
9, 99819, Note_on_c, 0, 77, 82
9, 100170, Note_off_c, 0, 77, 64
9, 100174, Note_on_c, 0, 74, 60
9, 100248, Note_off_c, 0, 74, 64
9, 100299, Note_on_c, 0, 77, 82
9, 100410, Note_on_c, 0, 76, 76
9, 100421, Note_off_c, 0, 77, 64
9, 100483, Note_off_c, 0, 76, 64
9, 100529, Note_on_c, 0, 74, 66
9, 100643, Note_on_c, 0, 73, 58
9, 100649, Note_off_c, 0, 74, 64
9, 100731, Note_off_c, 0, 73, 64
9, 100781, Note_on_c, 0, 74, 68
9, 101123, Note_off_c, 0, 74, 64
9, 101262, Note_on_c, 0, 69, 78
9, 101337, Note_off_c, 0, 69, 64
9, 101384, Note_on_c, 0, 71, 70
9, 101452, Note_off_c, 0, 71, 64
9, 101507, Note_on_c, 0, 72, 78
9, 101663, Note_off_c, 0, 72, 64
9, 101744, Note_on_c, 0, 74, 78
9, 101854, Note_on_c, 0, 72, 66
9, 101886, Note_off_c, 0, 74, 64
9, 101984, Note_on_c, 0, 71, 66
9, 102005, Note_off_c, 0, 72, 64
9, 102092, Note_on_c, 0, 69, 66
9, 102096, Note_off_c, 0, 71, 64
9, 102179, Note_off_c, 0, 69, 64
9, 102220, Note_on_c, 0, 71, 74
9, 102307, Note_off_c, 0, 71, 64
9, 102336, Note_on_c, 0, 69, 66
9, 102414, Note_off_c, 0, 69, 64
9, 102460, Note_on_c, 0, 67, 70
9, 102547, Note_off_c, 0, 67, 64
9, 102580, Note_on_c, 0, 69, 70
9, 102662, Note_off_c, 0, 69, 64
9, 102707, Note_on_c, 0, 71, 70
9, 102780, Note_off_c, 0, 71, 64
9, 102810, Note_on_c, 0, 72, 59
9, 102897, Note_off_c, 0, 72, 64
9, 102933, Note_on_c, 0, 74, 85
9, 103025, Note_off_c, 0, 74, 64
9, 103049, Note_on_c, 0, 76, 85
9, 103133, Note_off_c, 0, 76, 64
9, 103172, Note_on_c, 0, 77, 82
9, 103297, Note_off_c, 0, 77, 64
9, 103421, Note_on_c, 0, 76, 82
9, 103536, Note_off_c, 0, 76, 64
9, 103659, Note_on_c, 0, 74, 80
9, 103774, Note_off_c, 0, 74, 64
9, 103778, Note_on_c, 0, 72, 78
9, 103840, Note_off_c, 0, 72, 64
9, 103890, Note_on_c, 0, 71, 78
9, 103969, Note_off_c, 0, 71, 64
9, 104005, Note_on_c, 0, 72, 76
9, 104085, Note_off_c, 0, 72, 64
9, 104134, Note_on_c, 0, 74, 78
9, 104204, Note_off_c, 0, 74, 64
9, 104246, Note_on_c, 0, 76, 53
9, 104331, Note_off_c, 0, 76, 64
9, 104378, Note_on_c, 0, 77, 82
9, 104463, Note_off_c, 0, 77, 64
9, 104502, Note_on_c, 0, 79, 80
9, 104585, Note_off_c, 0, 79, 64
9, 104621, Note_on_c, 0, 81, 80
9, 104743, Note_off_c, 0, 81, 64
9, 104871, Note_on_c, 0, 79, 85
9, 105234, Note_off_c, 0, 79, 64
9, 105342, Note_on_c, 0, 70, 70
9, 105424, Note_off_c, 0, 70, 64
9, 105453, Note_on_c, 0, 69, 64
9, 105532, Note_off_c, 0, 69, 64
9, 105575, Note_on_c, 0, 70, 64
9, 105659, Note_off_c, 0, 70, 64
9, 105689, Note_on_c, 0, 67, 68
9, 105772, Note_off_c, 0, 67, 64
9, 105819, Note_on_c, 0, 69, 85
9, 105919, Note_off_c, 0, 69, 64
9, 106063, Note_on_c, 0, 74, 85
9, 106166, Note_off_c, 0, 74, 64
9, 106312, Note_on_c, 0, 71, 82
9, 106404, Note_off_c, 0, 71, 64
9, 106558, Note_on_c, 0, 72, 78
9, 106898, Note_off_c, 0, 72, 64
9, 107027, Note_on_c, 0, 74, 87
9, 107125, Note_off_c, 0, 74, 64
9, 107266, Note_on_c, 0, 71, 82
9, 107434, Note_off_c, 0, 71, 64
9, 107512, Note_on_c, 0, 72, 85
9, 107618, Note_on_c, 0, 71, 78
9, 107649, Note_off_c, 0, 72, 64
9, 107735, Note_on_c, 0, 69, 64
9, 107743, Note_off_c, 0, 71, 64
9, 107852, Note_on_c, 0, 67, 82
9, 107862, Note_off_c, 0, 69, 64
9, 107916, Note_off_c, 0, 67, 64
9, 107992, Note_on_c, 0, 76, 54
9, 108091, Note_on_c, 0, 77, 82
9, 108123, Note_off_c, 0, 76, 64
9, 108213, Note_on_c, 0, 79, 70
9, 108230, Note_off_c, 0, 77, 64
9, 108320, Note_on_c, 0, 81, 82
9, 108325, Note_off_c, 0, 79, 64
9, 108417, Note_off_c, 0, 81, 64
9, 108470, Note_on_c, 0, 82, 85
9, 108923, Note_off_c, 0, 82, 64
9, 108960, Note_on_c, 0, 81, 68
9, 109077, Note_off_c, 0, 81, 64
9, 109187, Note_on_c, 0, 79, 78
9, 109298, Note_off_c, 0, 79, 64
9, 109417, Note_on_c, 0, 77, 72
9, 109571, Note_off_c, 0, 77, 64
9, 109664, Note_on_c, 0, 79, 80
9, 109774, Note_on_c, 0, 77, 68
9, 109802, Note_off_c, 0, 79, 64
9, 109902, Note_on_c, 0, 76, 70
9, 109914, Note_off_c, 0, 77, 64
9, 110012, Note_off_c, 0, 76, 64
9, 110017, Note_on_c, 0, 74, 70
9, 110104, Note_off_c, 0, 74, 64
9, 110141, Note_on_c, 0, 73, 70
9, 110217, Note_off_c, 0, 73, 64
9, 110250, Note_on_c, 0, 74, 68
9, 110330, Note_off_c, 0, 74, 64
9, 110376, Note_on_c, 0, 76, 82
9, 110499, Note_off_c, 0, 76, 64
9, 110618, Note_on_c, 0, 81, 85
9, 111017, Note_off_c, 0, 81, 64
9, 111101, Note_on_c, 0, 79, 80
9, 111210, Note_on_c, 0, 77, 66
9, 111237, Note_off_c, 0, 79, 64
9, 111341, Note_on_c, 0, 76, 63
9, 111345, Note_off_c, 0, 77, 64
9, 111452, Note_off_c, 0, 76, 64
9, 111457, Note_on_c, 0, 74, 70
9, 111545, Note_off_c, 0, 74, 64
9, 111584, Note_on_c, 0, 73, 82
9, 111698, Note_on_c, 0, 74, 68
9, 111719, Note_off_c, 0, 73, 64
9, 111823, Note_on_c, 0, 76, 68
9, 111835, Note_off_c, 0, 74, 64
9, 111930, Note_on_c, 0, 77, 76
9, 111950, Note_off_c, 0, 76, 64
9, 112008, Note_off_c, 0, 77, 64
9, 112054, Note_on_c, 0, 79, 80
9, 112469, Note_off_c, 0, 79, 64
9, 112552, Note_on_c, 0, 77, 78
9, 112661, Note_on_c, 0, 76, 63
9, 112684, Note_off_c, 0, 77, 64
9, 112789, Note_on_c, 0, 74, 60
9, 112792, Note_off_c, 0, 76, 64
9, 112896, Note_on_c, 0, 73, 56
9, 112913, Note_off_c, 0, 74, 64
9, 112991, Note_off_c, 0, 73, 64
9, 113024, Note_on_c, 0, 74, 74
9, 113095, Note_off_c, 0, 74, 64
9, 113135, Note_on_c, 0, 69, 60
9, 113217, Note_off_c, 0, 69, 64
9, 113262, Note_on_c, 0, 77, 80
9, 113375, Note_on_c, 0, 76, 78
9, 113406, Note_off_c, 0, 77, 64
9, 113494, Note_on_c, 0, 74, 58
9, 113506, Note_off_c, 0, 76, 64
9, 113606, Note_on_c, 0, 72, 57
9, 113627, Note_off_c, 0, 74, 64
9, 113684, Note_off_c, 0, 72, 64
9, 113732, Note_on_c, 0, 70, 70
9, 113851, Note_on_c, 0, 74, 68
9, 113860, Note_off_c, 0, 70, 64
9, 113939, Note_off_c, 0, 74, 64
9, 113977, Note_on_c, 0, 79, 85
9, 114041, Note_off_c, 0, 79, 64
9, 114099, Note_on_c, 0, 76, 80
9, 114155, Note_off_c, 0, 76, 64
9, 114224, Note_on_c, 0, 77, 85
9, 114542, Note_off_c, 0, 77, 64
9, 114586, Note_on_c, 0, 74, 64
9, 114664, Note_off_c, 0, 74, 64
9, 114711, Note_on_c, 0, 77, 78
9, 114822, Note_on_c, 0, 76, 80
9, 114835, Note_off_c, 0, 77, 64
9, 114900, Note_off_c, 0, 76, 64
9, 114942, Note_on_c, 0, 74, 70
9, 115046, Note_on_c, 0, 73, 58
9, 115053, Note_off_c, 0, 74, 64
9, 115140, Note_off_c, 0, 73, 64
9, 115194, Note_on_c, 0, 74, 68
9, 115518, Note_off_c, 0, 74, 64
9, 115659, Note_on_c, 0, 69, 70
9, 115750, Note_off_c, 0, 69, 64
9, 115774, Note_on_c, 0, 71, 78
9, 115850, Note_off_c, 0, 71, 64
9, 115911, Note_on_c, 0, 72, 82
9, 116093, Note_off_c, 0, 72, 64
9, 116151, Note_on_c, 0, 74, 78
9, 116258, Note_on_c, 0, 72, 68
9, 116293, Note_off_c, 0, 74, 64
9, 116392, Note_on_c, 0, 71, 60
9, 116413, Note_off_c, 0, 72, 64
9, 116497, Note_on_c, 0, 69, 63
9, 116509, Note_off_c, 0, 71, 64
9, 116587, Note_off_c, 0, 69, 64
9, 116617, Note_on_c, 0, 71, 82
9, 116724, Note_off_c, 0, 71, 64
9, 116735, Note_on_c, 0, 69, 62
9, 116826, Note_off_c, 0, 69, 64
9, 116858, Note_on_c, 0, 67, 68
9, 116970, Note_off_c, 0, 67, 64
9, 116978, Note_on_c, 0, 69, 76
9, 117075, Note_off_c, 0, 69, 64
9, 117100, Note_on_c, 0, 71, 80
9, 117188, Note_off_c, 0, 71, 64
9, 117209, Note_on_c, 0, 72, 64
9, 117317, Note_off_c, 0, 72, 64
9, 117345, Note_on_c, 0, 74, 82
9, 117453, Note_off_c, 0, 74, 64
9, 117462, Note_on_c, 0, 76, 80
9, 117552, Note_off_c, 0, 76, 64
9, 117584, Note_on_c, 0, 77, 82
9, 117713, Note_off_c, 0, 77, 64
9, 117820, Note_on_c, 0, 76, 68
9, 117952, Note_off_c, 0, 76, 64
9, 118063, Note_on_c, 0, 74, 68
9, 118167, Note_off_c, 0, 74, 64
9, 118180, Note_on_c, 0, 72, 62
9, 118271, Note_off_c, 0, 72, 64
9, 118300, Note_on_c, 0, 71, 66
9, 118393, Note_off_c, 0, 71, 64
9, 118417, Note_on_c, 0, 72, 70
9, 118505, Note_off_c, 0, 72, 64
9, 118542, Note_on_c, 0, 74, 78
9, 118636, Note_off_c, 0, 74, 64
9, 118665, Note_on_c, 0, 76, 76
9, 118745, Note_off_c, 0, 76, 64
9, 118790, Note_on_c, 0, 77, 85
9, 118881, Note_off_c, 0, 77, 64
9, 118905, Note_on_c, 0, 79, 89
9, 118991, Note_off_c, 0, 79, 64
9, 119029, Note_on_c, 0, 81, 85
9, 119156, Note_off_c, 0, 81, 64
9, 119278, Note_on_c, 0, 79, 87
9, 119622, Note_off_c, 0, 79, 64
9, 119746, Note_on_c, 0, 70, 72
9, 119824, Note_off_c, 0, 70, 64
9, 119853, Note_on_c, 0, 69, 72
9, 119936, Note_off_c, 0, 69, 64
9, 119975, Note_on_c, 0, 70, 64
9, 120070, Note_off_c, 0, 70, 64
9, 120089, Note_on_c, 0, 67, 70
9, 120173, Note_off_c, 0, 67, 64
9, 120220, Note_on_c, 0, 69, 87
9, 120330, Note_off_c, 0, 69, 64
9, 120469, Note_on_c, 0, 74, 89
9, 120580, Note_off_c, 0, 74, 64
9, 120692, Note_on_c, 0, 72, 85
9, 120734, Note_on_c, 0, 71, 85
9, 120738, Note_off_c, 0, 72, 64
9, 120771, Note_on_c, 0, 72, 82
9, 120775, Note_off_c, 0, 71, 64
9, 120807, Note_on_c, 0, 71, 80
9, 120820, Note_off_c, 0, 72, 64
9, 120885, Note_off_c, 0, 71, 64
9, 120943, Note_on_c, 0, 72, 82
9, 121431, Note_off_c, 0, 72, 64
9, 121431, End_track
10, 0, Start_track
10, 0, Title_t, "Violin2"
10, 0, Program_c, 1, 40
10, 0, Control_c, 1, 7, 100
10, 11989, Note_on_c, 1, 71, 82
10, 12081, Note_off_c, 1, 71, 64
10, 12230, Note_on_c, 1, 67, 70
10, 12579, Note_off_c, 1, 67, 64
10, 12694, Note_on_c, 1, 67, 70
10, 12803, Note_off_c, 1, 67, 64
10, 12921, Note_on_c, 1, 67, 72
10, 13062, Note_off_c, 1, 67, 64
10, 13169, Note_on_c, 1, 76, 76
10, 13277, Note_off_c, 1, 76, 64
10, 13404, Note_on_c, 1, 74, 74
10, 13528, Note_off_c, 1, 74, 64
10, 13659, Note_on_c, 1, 73, 70
10, 13776, Note_off_c, 1, 73, 64
10, 13906, Note_on_c, 1, 76, 80
10, 13998, Note_off_c, 1, 76, 64
10, 14150, Note_on_c, 1, 73, 63
10, 14240, Note_off_c, 1, 73, 64
10, 14389, Note_on_c, 1, 74, 74
10, 14727, Note_off_c, 1, 74, 64
10, 14857, Note_on_c, 1, 67, 66
10, 14962, Note_off_c, 1, 67, 64
10, 15100, Note_on_c, 1, 69, 74
10, 15351, Note_off_c, 1, 69, 64
10, 15574, Note_on_c, 1, 69, 76
10, 15648, Note_off_c, 1, 69, 64
10, 15686, Note_on_c, 1, 71, 64
10, 15772, Note_off_c, 1, 71, 64
10, 15809, Note_on_c, 1, 73, 68
10, 15887, Note_off_c, 1, 73, 64
10, 15932, Note_on_c, 1, 74, 72
10, 16002, Note_off_c, 1, 74, 64
10, 16057, Note_on_c, 1, 76, 78
10, 16173, Note_off_c, 1, 76, 64
10, 16301, Note_on_c, 1, 81, 85
10, 16697, Note_off_c, 1, 81, 64
10, 16789, Note_on_c, 1, 79, 82
10, 16901, Note_on_c, 1, 77, 72
10, 16928, Note_off_c, 1, 79, 64
10, 17021, Note_on_c, 1, 76, 64
10, 17038, Note_off_c, 1, 77, 64
10, 17137, Note_on_c, 1, 74, 68
10, 17142, Note_off_c, 1, 76, 64
10, 17230, Note_off_c, 1, 74, 64
10, 17268, Note_on_c, 1, 73, 76
10, 17376, Note_off_c, 1, 73, 64
10, 17507, Note_on_c, 1, 69, 68
10, 17672, Note_off_c, 1, 69, 64
10, 17991, Note_on_c, 1, 65, 60
10, 18374, Note_off_c, 1, 65, 64
10, 18466, Note_on_c, 1, 65, 70
10, 18590, Note_off_c, 1, 65, 64
10, 18709, Note_on_c, 1, 67, 63
10, 18852, Note_off_c, 1, 67, 64
10, 18947, Note_on_c, 1, 69, 70
10, 19055, Note_off_c, 1, 69, 64
10, 19191, Note_on_c, 1, 69, 82
10, 19308, Note_off_c, 1, 69, 64
10, 19427, Note_on_c, 1, 74, 82
10, 19546, Note_off_c, 1, 74, 64
10, 19669, Note_on_c, 1, 70, 68
10, 19774, Note_off_c, 1, 70, 64
10, 19906, Note_on_c, 1, 69, 68
10, 20045, Note_off_c, 1, 69, 64
10, 20149, Note_on_c, 1, 69, 72
10, 20491, Note_off_c, 1, 69, 64
10, 20627, Note_on_c, 1, 66, 60
10, 20748, Note_off_c, 1, 66, 64
10, 20865, Note_on_c, 1, 67, 66
10, 21001, Note_off_c, 1, 67, 64
10, 21110, Note_on_c, 1, 69, 64
10, 21222, Note_off_c, 1, 69, 64
10, 21348, Note_on_c, 1, 66, 63
10, 21444, Note_off_c, 1, 66, 64
10, 21591, Note_on_c, 1, 67, 78
10, 21952, Note_off_c, 1, 67, 64
10, 22072, Note_on_c, 1, 65, 80
10, 22445, Note_off_c, 1, 65, 64
10, 22545, Note_on_c, 1, 71, 70
10, 22661, Note_off_c, 1, 71, 64
10, 22785, Note_on_c, 1, 72, 72
10, 22891, Note_off_c, 1, 72, 64
10, 23031, Note_on_c, 1, 71, 82
10, 23122, Note_off_c, 1, 71, 64
10, 23147, Note_on_c, 1, 69, 80
10, 23219, Note_off_c, 1, 69, 64
10, 23256, Note_on_c, 1, 67, 66
10, 23371, Note_off_c, 1, 67, 64
10, 23375, Note_on_c, 1, 69, 80
10, 23445, Note_off_c, 1, 69, 64
10, 23490, Note_on_c, 1, 71, 82
10, 23572, Note_off_c, 1, 71, 64
10, 23604, Note_on_c, 1, 67, 76
10, 23675, Note_off_c, 1, 67, 64
10, 23736, Note_on_c, 1, 72, 78
10, 24141, Note_off_c, 1, 72, 64
10, 24231, Note_on_c, 1, 71, 66
10, 24338, Note_off_c, 1, 71, 64
10, 24470, Note_on_c, 1, 72, 76
10, 24583, Note_off_c, 1, 72, 64
10, 24715, Note_on_c, 1, 65, 70
10, 24823, Note_off_c, 1, 65, 64
10, 24942, Note_on_c, 1, 64, 63
10, 25064, Note_off_c, 1, 64, 64
10, 25185, Note_on_c, 1, 65, 66
10, 25305, Note_off_c, 1, 65, 64
10, 25428, Note_on_c, 1, 69, 70
10, 25532, Note_off_c, 1, 69, 64
10, 25665, Note_on_c, 1, 67, 74
10, 25774, Note_off_c, 1, 67, 64
10, 25922, Note_on_c, 1, 67, 70
10, 26279, Note_off_c, 1, 67, 64
10, 26394, Note_on_c, 1, 71, 80
10, 26502, Note_off_c, 1, 71, 64
10, 26630, Note_on_c, 1, 67, 58
10, 26971, Note_off_c, 1, 67, 64
10, 27108, Note_on_c, 1, 67, 68
10, 27222, Note_off_c, 1, 67, 64
10, 27342, Note_on_c, 1, 67, 76
10, 27478, Note_off_c, 1, 67, 64
10, 27587, Note_on_c, 1, 76, 80
10, 27693, Note_off_c, 1, 76, 64
10, 27814, Note_on_c, 1, 74, 78
10, 27943, Note_off_c, 1, 74, 64
10, 28057, Note_on_c, 1, 73, 66
10, 28177, Note_off_c, 1, 73, 64
10, 28303, Note_on_c, 1, 76, 82
10, 28403, Note_off_c, 1, 76, 64
10, 28550, Note_on_c, 1, 73, 63
10, 28645, Note_off_c, 1, 73, 64
10, 28787, Note_on_c, 1, 74, 78
10, 29163, Note_off_c, 1, 74, 64
10, 29274, Note_on_c, 1, 67, 70
10, 29380, Note_off_c, 1, 67, 64
10, 29511, Note_on_c, 1, 69, 72
10, 29835, Note_off_c, 1, 69, 64
10, 29978, Note_on_c, 1, 69, 78
10, 30058, Note_off_c, 1, 69, 64
10, 30086, Note_on_c, 1, 71, 82
10, 30176, Note_off_c, 1, 71, 64
10, 30215, Note_on_c, 1, 73, 62
10, 30293, Note_off_c, 1, 73, 64
10, 30329, Note_on_c, 1, 74, 70
10, 30411, Note_off_c, 1, 74, 64
10, 30454, Note_on_c, 1, 76, 85
10, 30572, Note_off_c, 1, 76, 64
10, 30704, Note_on_c, 1, 81, 82
10, 31134, Note_off_c, 1, 81, 64
10, 31195, Note_on_c, 1, 79, 85
10, 31304, Note_on_c, 1, 77, 66
10, 31330, Note_off_c, 1, 79, 64
10, 31428, Note_on_c, 1, 76, 78
10, 31436, Note_off_c, 1, 77, 64
10, 31545, Note_on_c, 1, 74, 70
10, 31549, Note_off_c, 1, 76, 64
10, 31629, Note_off_c, 1, 74, 64
10, 31673, Note_on_c, 1, 73, 80
10, 31798, Note_off_c, 1, 73, 64
10, 31914, Note_on_c, 1, 69, 78
10, 32070, Note_off_c, 1, 69, 64
10, 32386, Note_on_c, 1, 65, 57
10, 32751, Note_off_c, 1, 65, 64
10, 32867, Note_on_c, 1, 65, 68
10, 32989, Note_off_c, 1, 65, 64
10, 33109, Note_on_c, 1, 67, 80
10, 33237, Note_off_c, 1, 67, 64
10, 33344, Note_on_c, 1, 69, 82
10, 33448, Note_off_c, 1, 69, 64
10, 33584, Note_on_c, 1, 69, 72
10, 33715, Note_off_c, 1, 69, 64
10, 33826, Note_on_c, 1, 74, 80
10, 33956, Note_off_c, 1, 74, 64
10, 34078, Note_on_c, 1, 70, 70
10, 34186, Note_off_c, 1, 70, 64
10, 34313, Note_on_c, 1, 69, 78
10, 34416, Note_off_c, 1, 69, 64
10, 34546, Note_on_c, 1, 69, 74
10, 34927, Note_off_c, 1, 69, 64
10, 35027, Note_on_c, 1, 66, 62
10, 35164, Note_off_c, 1, 66, 64
10, 35262, Note_on_c, 1, 67, 72
10, 35391, Note_off_c, 1, 67, 64
10, 35506, Note_on_c, 1, 69, 72
10, 35617, Note_off_c, 1, 69, 64
10, 35751, Note_on_c, 1, 66, 66
10, 35855, Note_off_c, 1, 66, 64
10, 35983, Note_on_c, 1, 67, 72
10, 36342, Note_off_c, 1, 67, 64
10, 36458, Note_on_c, 1, 65, 68
10, 36884, Note_off_c, 1, 65, 64
10, 36960, Note_on_c, 1, 71, 78
10, 37087, Note_off_c, 1, 71, 64
10, 37193, Note_on_c, 1, 72, 72
10, 37326, Note_off_c, 1, 72, 64
10, 37432, Note_on_c, 1, 71, 82
10, 37541, Note_off_c, 1, 71, 64
10, 37541, Note_on_c, 1, 69, 72
10, 37618, Note_off_c, 1, 69, 64
10, 37658, Note_on_c, 1, 67, 74
10, 37762, Note_off_c, 1, 67, 64
10, 37781, Note_on_c, 1, 69, 76
10, 37875, Note_off_c, 1, 69, 64
10, 37908, Note_on_c, 1, 71, 80
10, 37994, Note_off_c, 1, 71, 64
10, 38015, Note_on_c, 1, 67, 76
10, 38100, Note_off_c, 1, 67, 64
10, 38141, Note_on_c, 1, 72, 78
10, 38554, Note_off_c, 1, 72, 64
10, 38641, Note_on_c, 1, 71, 78
10, 38766, Note_off_c, 1, 71, 64
10, 38875, Note_on_c, 1, 72, 78
10, 38996, Note_off_c, 1, 72, 64
10, 39111, Note_on_c, 1, 65, 72
10, 39224, Note_off_c, 1, 65, 64
10, 39349, Note_on_c, 1, 64, 76
10, 39461, Note_off_c, 1, 64, 64
10, 39582, Note_on_c, 1, 65, 70
10, 39700, Note_off_c, 1, 65, 64
10, 39821, Note_on_c, 1, 69, 78
10, 39935, Note_off_c, 1, 69, 64
10, 40065, Note_on_c, 1, 67, 72
10, 40175, Note_off_c, 1, 67, 64
10, 40300, Note_on_c, 1, 67, 70
10, 40791, Note_off_c, 1, 67, 64
10, 52308, Note_on_c, 1, 62, 70
10, 52415, Note_off_c, 1, 62, 64
10, 52543, Note_on_c, 1, 59, 66
10, 52725, Note_off_c, 1, 59, 64
10, 52785, Note_on_c, 1, 60, 74
10, 52907, Note_on_c, 1, 59, 72
10, 52937, Note_off_c, 1, 60, 64
10, 53011, Note_on_c, 1, 57, 57
10, 53022, Note_off_c, 1, 59, 64
10, 53113, Note_off_c, 1, 57, 64
10, 53121, Note_on_c, 1, 55, 60
10, 53241, Note_off_c, 1, 55, 64
10, 53242, Note_on_c, 1, 64, 68
10, 53328, Note_off_c, 1, 64, 64
10, 53371, Note_on_c, 1, 65, 70
10, 53448, Note_off_c, 1, 65, 64
10, 53496, Note_on_c, 1, 67, 82
10, 53558, Note_off_c, 1, 67, 64
10, 53610, Note_on_c, 1, 69, 82
10, 53684, Note_off_c, 1, 69, 64
10, 53729, Note_on_c, 1, 70, 78
10, 54164, Note_off_c, 1, 70, 64
10, 54219, Note_on_c, 1, 69, 68
10, 54343, Note_off_c, 1, 69, 64
10, 54459, Note_on_c, 1, 67, 68
10, 54599, Note_off_c, 1, 67, 64
10, 54701, Note_on_c, 1, 65, 66
10, 54868, Note_off_c, 1, 65, 64
10, 54945, Note_on_c, 1, 67, 76
10, 55060, Note_on_c, 1, 65, 68
10, 55084, Note_off_c, 1, 67, 64
10, 55185, Note_on_c, 1, 64, 57
10, 55197, Note_off_c, 1, 65, 64
10, 55295, Note_off_c, 1, 64, 64
10, 55300, Note_on_c, 1, 62, 66
10, 55395, Note_off_c, 1, 62, 64
10, 55416, Note_on_c, 1, 61, 62
10, 55513, Note_off_c, 1, 61, 64
10, 55538, Note_on_c, 1, 62, 68
10, 55633, Note_off_c, 1, 62, 64
10, 55664, Note_on_c, 1, 64, 70
10, 55791, Note_off_c, 1, 64, 64
10, 55902, Note_on_c, 1, 69, 66
10, 56314, Note_off_c, 1, 69, 64
10, 56390, Note_on_c, 1, 67, 70
10, 56504, Note_on_c, 1, 65, 66
10, 56530, Note_off_c, 1, 67, 64
10, 56619, Note_on_c, 1, 64, 54
10, 56620, Note_off_c, 1, 65, 64
10, 56738, Note_off_c, 1, 64, 64
10, 56739, Note_on_c, 1, 62, 60
10, 56846, Note_off_c, 1, 62, 64
10, 56854, Note_on_c, 1, 61, 56
10, 56974, Note_on_c, 1, 62, 64
10, 56991, Note_off_c, 1, 61, 64
10, 57107, Note_on_c, 1, 64, 66
10, 57118, Note_off_c, 1, 62, 64
10, 57217, Note_on_c, 1, 65, 64
10, 57242, Note_off_c, 1, 64, 64
10, 57317, Note_off_c, 1, 65, 64
10, 57342, Note_on_c, 1, 67, 70
10, 57764, Note_off_c, 1, 67, 64
10, 57823, Note_on_c, 1, 65, 68
10, 57932, Note_on_c, 1, 64, 60
10, 57955, Note_off_c, 1, 65, 64
10, 58060, Note_off_c, 1, 64, 64
10, 58061, Note_on_c, 1, 62, 60
10, 58160, Note_on_c, 1, 61, 62
10, 58178, Note_off_c, 1, 62, 64
10, 58254, Note_off_c, 1, 61, 64
10, 58286, Note_on_c, 1, 62, 78
10, 58372, Note_off_c, 1, 62, 64
10, 58410, Note_on_c, 1, 57, 58
10, 58493, Note_off_c, 1, 57, 64
10, 58531, Note_on_c, 1, 65, 70
10, 58652, Note_on_c, 1, 64, 66
10, 58685, Note_off_c, 1, 65, 64
10, 58773, Note_on_c, 1, 62, 58
10, 58778, Note_off_c, 1, 64, 64
10, 58889, Note_on_c, 1, 60, 58
10, 58908, Note_off_c, 1, 62, 64
10, 58972, Note_off_c, 1, 60, 64
10, 59015, Note_on_c, 1, 58, 62
10, 59131, Note_on_c, 1, 62, 68
10, 59148, Note_off_c, 1, 58, 64
10, 59253, Note_off_c, 1, 62, 64
10, 59253, Note_on_c, 1, 67, 66
10, 59322, Note_off_c, 1, 67, 64
10, 59359, Note_on_c, 1, 64, 64
10, 59429, Note_off_c, 1, 64, 64
10, 59488, Note_on_c, 1, 65, 68
10, 59801, Note_off_c, 1, 65, 64
10, 59846, Note_on_c, 1, 62, 53
10, 59928, Note_off_c, 1, 62, 64
10, 59978, Note_on_c, 1, 65, 68
10, 60090, Note_on_c, 1, 64, 78
10, 60111, Note_off_c, 1, 65, 64
10, 60162, Note_off_c, 1, 64, 64
10, 60221, Note_on_c, 1, 62, 64
10, 60325, Note_on_c, 1, 61, 64
10, 60345, Note_off_c, 1, 62, 64
10, 60412, Note_off_c, 1, 61, 64
10, 60463, Note_on_c, 1, 62, 72
10, 60816, Note_off_c, 1, 62, 64
10, 60940, Note_on_c, 1, 57, 61
10, 61016, Note_off_c, 1, 57, 64
10, 61054, Note_on_c, 1, 59, 66
10, 61129, Note_off_c, 1, 59, 64
10, 61178, Note_on_c, 1, 60, 70
10, 61356, Note_off_c, 1, 60, 64
10, 61431, Note_on_c, 1, 62, 74
10, 61536, Note_on_c, 1, 60, 68
10, 61552, Note_off_c, 1, 62, 64
10, 61662, Note_on_c, 1, 59, 59
10, 61666, Note_off_c, 1, 60, 64
10, 61771, Note_on_c, 1, 57, 61
10, 61772, Note_off_c, 1, 59, 64
10, 61882, Note_off_c, 1, 57, 64
10, 61897, Note_on_c, 1, 59, 70
10, 62011, Note_on_c, 1, 57, 60
10, 62015, Note_off_c, 1, 59, 64
10, 62098, Note_off_c, 1, 57, 64
10, 62139, Note_on_c, 1, 55, 68
10, 62249, Note_off_c, 1, 55, 64
10, 62255, Note_on_c, 1, 57, 66
10, 62354, Note_off_c, 1, 57, 64
10, 62377, Note_on_c, 1, 59, 63
10, 62474, Note_off_c, 1, 59, 64
10, 62490, Note_on_c, 1, 60, 62
10, 62591, Note_off_c, 1, 60, 64
10, 62605, Note_on_c, 1, 62, 64
10, 62718, Note_off_c, 1, 62, 64
10, 62733, Note_on_c, 1, 64, 70
10, 62829, Note_off_c, 1, 64, 64
10, 62854, Note_on_c, 1, 65, 82
10, 63013, Note_off_c, 1, 65, 64
10, 63114, Note_on_c, 1, 64, 63
10, 63254, Note_off_c, 1, 64, 64
10, 63352, Note_on_c, 1, 62, 68
10, 63462, Note_off_c, 1, 62, 64
10, 63462, Note_on_c, 1, 60, 59
10, 63565, Note_off_c, 1, 60, 64
10, 63580, Note_on_c, 1, 59, 61
10, 63685, Note_off_c, 1, 59, 64
10, 63694, Note_on_c, 1, 60, 68
10, 63794, Note_off_c, 1, 60, 64
10, 63810, Note_on_c, 1, 62, 62
10, 63932, Note_off_c, 1, 62, 64
10, 63933, Note_on_c, 1, 64, 63
10, 64028, Note_off_c, 1, 64, 64
10, 64056, Note_on_c, 1, 65, 61
10, 64152, Note_off_c, 1, 65, 64
10, 64176, Note_on_c, 1, 67, 72
10, 64265, Note_off_c, 1, 67, 64
10, 64307, Note_on_c, 1, 69, 78
10, 64432, Note_off_c, 1, 69, 64
10, 64555, Note_on_c, 1, 67, 68
10, 64944, Note_off_c, 1, 67, 64
10, 65035, Note_on_c, 1, 58, 66
10, 65139, Note_on_c, 1, 57, 68
10, 65150, Note_off_c, 1, 58, 64
10, 65263, Note_on_c, 1, 58, 66
10, 65271, Note_off_c, 1, 57, 64
10, 65368, Note_off_c, 1, 58, 64
10, 65368, Note_on_c, 1, 55, 60
10, 65475, Note_off_c, 1, 55, 64
10, 65502, Note_on_c, 1, 57, 70
10, 65599, Note_off_c, 1, 57, 64
10, 65745, Note_on_c, 1, 62, 80
10, 65843, Note_off_c, 1, 62, 64
10, 65993, Note_on_c, 1, 59, 70
10, 66091, Note_off_c, 1, 59, 64
10, 66230, Note_on_c, 1, 60, 64
10, 66577, Note_off_c, 1, 60, 64
10, 66713, Note_on_c, 1, 62, 60
10, 66830, Note_off_c, 1, 62, 64
10, 66948, Note_on_c, 1, 59, 59
10, 67123, Note_off_c, 1, 59, 64
10, 67193, Note_on_c, 1, 60, 70
10, 67303, Note_on_c, 1, 59, 70
10, 67336, Note_off_c, 1, 60, 64
10, 67423, Note_on_c, 1, 57, 59
10, 67432, Note_off_c, 1, 59, 64
10, 67525, Note_off_c, 1, 57, 64
10, 67532, Note_on_c, 1, 55, 58
10, 67635, Note_off_c, 1, 55, 64
10, 67658, Note_on_c, 1, 64, 66
10, 67736, Note_off_c, 1, 64, 64
10, 67777, Note_on_c, 1, 65, 57
10, 67856, Note_off_c, 1, 65, 64
10, 67901, Note_on_c, 1, 67, 74
10, 67963, Note_off_c, 1, 67, 64
10, 68020, Note_on_c, 1, 69, 74
10, 68084, Note_off_c, 1, 69, 64
10, 68136, Note_on_c, 1, 70, 72
10, 68565, Note_off_c, 1, 70, 64
10, 68636, Note_on_c, 1, 69, 76
10, 68743, Note_off_c, 1, 69, 64
10, 68866, Note_on_c, 1, 67, 68
10, 68979, Note_off_c, 1, 67, 64
10, 69102, Note_on_c, 1, 65, 66
10, 69259, Note_off_c, 1, 65, 64
10, 69345, Note_on_c, 1, 67, 68
10, 69453, Note_on_c, 1, 65, 68
10, 69478, Note_off_c, 1, 67, 64
10, 69573, Note_on_c, 1, 64, 59
10, 69581, Note_off_c, 1, 65, 64
10, 69679, Note_off_c, 1, 64, 64
10, 69695, Note_on_c, 1, 62, 64
10, 69795, Note_off_c, 1, 62, 64
10, 69813, Note_on_c, 1, 61, 58
10, 69919, Note_off_c, 1, 61, 64
10, 69943, Note_on_c, 1, 62, 41
10, 70017, Note_off_c, 1, 62, 64
10, 70064, Note_on_c, 1, 64, 64
10, 70192, Note_off_c, 1, 64, 64
10, 70307, Note_on_c, 1, 69, 66
10, 70707, Note_off_c, 1, 69, 64
10, 70780, Note_on_c, 1, 67, 63
10, 70900, Note_on_c, 1, 65, 68
10, 70924, Note_off_c, 1, 67, 64
10, 71013, Note_on_c, 1, 64, 54
10, 71016, Note_off_c, 1, 65, 64
10, 71126, Note_off_c, 1, 64, 64
10, 71135, Note_on_c, 1, 62, 64
10, 71228, Note_off_c, 1, 62, 64
10, 71255, Note_on_c, 1, 61, 61
10, 71375, Note_on_c, 1, 62, 68
10, 71386, Note_off_c, 1, 61, 64
10, 71503, Note_on_c, 1, 64, 63
10, 71512, Note_off_c, 1, 62, 64
10, 71609, Note_on_c, 1, 65, 66
10, 71630, Note_off_c, 1, 64, 64
10, 71696, Note_off_c, 1, 65, 64
10, 71735, Note_on_c, 1, 67, 70
10, 72156, Note_off_c, 1, 67, 64
10, 72225, Note_on_c, 1, 65, 68
10, 72332, Note_on_c, 1, 64, 59
10, 72350, Note_off_c, 1, 65, 64
10, 72447, Note_off_c, 1, 64, 64
10, 72457, Note_on_c, 1, 62, 60
10, 72564, Note_on_c, 1, 61, 55
10, 72571, Note_off_c, 1, 62, 64
10, 72655, Note_off_c, 1, 61, 64
10, 72688, Note_on_c, 1, 62, 66
10, 72778, Note_off_c, 1, 62, 64
10, 72812, Note_on_c, 1, 57, 57
10, 72898, Note_off_c, 1, 57, 64
10, 72934, Note_on_c, 1, 65, 80
10, 73045, Note_on_c, 1, 64, 66
10, 73071, Note_off_c, 1, 65, 64
10, 73157, Note_off_c, 1, 64, 64
10, 73174, Note_on_c, 1, 62, 44
10, 73285, Note_on_c, 1, 60, 58
10, 73292, Note_off_c, 1, 62, 64
10, 73377, Note_off_c, 1, 60, 64
10, 73409, Note_on_c, 1, 58, 59
10, 73520, Note_on_c, 1, 62, 70
10, 73521, Note_off_c, 1, 58, 64
10, 73635, Note_off_c, 1, 62, 64
10, 73664, Note_on_c, 1, 67, 66
10, 73725, Note_off_c, 1, 67, 64
10, 73779, Note_on_c, 1, 64, 72
10, 73846, Note_off_c, 1, 64, 64
10, 73907, Note_on_c, 1, 65, 68
10, 74191, Note_off_c, 1, 65, 64
10, 74263, Note_on_c, 1, 62, 64
10, 74321, Note_off_c, 1, 62, 64
10, 74378, Note_on_c, 1, 65, 70
10, 74492, Note_on_c, 1, 64, 70
10, 74511, Note_off_c, 1, 65, 64
10, 74575, Note_off_c, 1, 64, 64
10, 74620, Note_on_c, 1, 62, 66
10, 74729, Note_on_c, 1, 61, 61
10, 74736, Note_off_c, 1, 62, 64
10, 74815, Note_off_c, 1, 61, 64
10, 74866, Note_on_c, 1, 62, 60
10, 75249, Note_off_c, 1, 62, 64
10, 75347, Note_on_c, 1, 57, 68
10, 75421, Note_off_c, 1, 57, 64
10, 75454, Note_on_c, 1, 59, 70
10, 75526, Note_off_c, 1, 59, 64
10, 75583, Note_on_c, 1, 60, 68
10, 75760, Note_off_c, 1, 60, 64
10, 75830, Note_on_c, 1, 62, 66
10, 75944, Note_on_c, 1, 60, 64
10, 75966, Note_off_c, 1, 62, 64
10, 76058, Note_on_c, 1, 59, 60
10, 76066, Note_off_c, 1, 60, 64
10, 76171, Note_on_c, 1, 57, 62
10, 76173, Note_off_c, 1, 59, 64
10, 76281, Note_off_c, 1, 57, 64
10, 76296, Note_on_c, 1, 59, 66
10, 76408, Note_on_c, 1, 57, 61
10, 76415, Note_off_c, 1, 59, 64
10, 76519, Note_off_c, 1, 57, 64
10, 76541, Note_on_c, 1, 55, 68
10, 76633, Note_off_c, 1, 55, 64
10, 76654, Note_on_c, 1, 57, 64
10, 76754, Note_off_c, 1, 57, 64
10, 76788, Note_on_c, 1, 59, 70
10, 76881, Note_off_c, 1, 59, 64
10, 76901, Note_on_c, 1, 60, 80
10, 76997, Note_off_c, 1, 60, 64
10, 77015, Note_on_c, 1, 62, 76
10, 77132, Note_on_c, 1, 64, 72
10, 77138, Note_off_c, 1, 62, 64
10, 77240, Note_off_c, 1, 64, 64
10, 77256, Note_on_c, 1, 65, 78
10, 77406, Note_off_c, 1, 65, 64
10, 77502, Note_on_c, 1, 64, 64
10, 77641, Note_off_c, 1, 64, 64
10, 77746, Note_on_c, 1, 62, 70
10, 77859, Note_on_c, 1, 60, 60
10, 77863, Note_off_c, 1, 62, 64
10, 77958, Note_off_c, 1, 60, 64
10, 77980, Note_on_c, 1, 59, 66
10, 78086, Note_off_c, 1, 59, 64
10, 78092, Note_on_c, 1, 60, 72
10, 78180, Note_off_c, 1, 60, 64
10, 78213, Note_on_c, 1, 62, 68
10, 78313, Note_off_c, 1, 62, 64
10, 78329, Note_on_c, 1, 64, 72
10, 78424, Note_off_c, 1, 64, 64
10, 78452, Note_on_c, 1, 65, 70
10, 78569, Note_off_c, 1, 65, 64
10, 78574, Note_on_c, 1, 67, 68
10, 78669, Note_off_c, 1, 67, 64
10, 78700, Note_on_c, 1, 69, 76
10, 78832, Note_off_c, 1, 69, 64
10, 78943, Note_on_c, 1, 67, 66
10, 79340, Note_off_c, 1, 67, 64
10, 79428, Note_on_c, 1, 58, 63
10, 79534, Note_off_c, 1, 58, 64
10, 79535, Note_on_c, 1, 57, 70
10, 79656, Note_off_c, 1, 57, 64
10, 79661, Note_on_c, 1, 58, 58
10, 79758, Note_off_c, 1, 58, 64
10, 79769, Note_on_c, 1, 55, 58
10, 79872, Note_off_c, 1, 55, 64
10, 79905, Note_on_c, 1, 57, 82
10, 80001, Note_off_c, 1, 57, 64
10, 80146, Note_on_c, 1, 62, 82
10, 80255, Note_off_c, 1, 62, 64
10, 80379, Note_on_c, 1, 60, 68
10, 80412, Note_on_c, 1, 59, 62
10, 80421, Note_off_c, 1, 60, 64
10, 80447, Note_on_c, 1, 60, 61
10, 80451, Note_off_c, 1, 59, 64
10, 80482, Note_on_c, 1, 59, 70
10, 80496, Note_off_c, 1, 60, 64
10, 80554, Note_off_c, 1, 59, 64
10, 80618, Note_on_c, 1, 60, 59
10, 81060, Note_off_c, 1, 60, 64
10, 92629, Note_on_c, 1, 71, 82
10, 92721, Note_off_c, 1, 71, 64
10, 92870, Note_on_c, 1, 67, 70
10, 93219, Note_off_c, 1, 67, 64
10, 93334, Note_on_c, 1, 67, 70
10, 93443, Note_off_c, 1, 67, 64
10, 93561, Note_on_c, 1, 67, 72
10, 93702, Note_off_c, 1, 67, 64
10, 93809, Note_on_c, 1, 76, 76
10, 93917, Note_off_c, 1, 76, 64
10, 94044, Note_on_c, 1, 74, 74
10, 94168, Note_off_c, 1, 74, 64
10, 94299, Note_on_c, 1, 73, 70
10, 94416, Note_off_c, 1, 73, 64
10, 94546, Note_on_c, 1, 76, 80
10, 94638, Note_off_c, 1, 76, 64
10, 94790, Note_on_c, 1, 73, 63
10, 94880, Note_off_c, 1, 73, 64
10, 95029, Note_on_c, 1, 74, 74
10, 95367, Note_off_c, 1, 74, 64
10, 95497, Note_on_c, 1, 67, 66
10, 95602, Note_off_c, 1, 67, 64
10, 95740, Note_on_c, 1, 69, 74
10, 95991, Note_off_c, 1, 69, 64
10, 96214, Note_on_c, 1, 69, 76
10, 96288, Note_off_c, 1, 69, 64
10, 96326, Note_on_c, 1, 71, 64
10, 96412, Note_off_c, 1, 71, 64
10, 96449, Note_on_c, 1, 73, 68
10, 96527, Note_off_c, 1, 73, 64
10, 96572, Note_on_c, 1, 74, 72
10, 96642, Note_off_c, 1, 74, 64
10, 96697, Note_on_c, 1, 76, 78
10, 96813, Note_off_c, 1, 76, 64
10, 96941, Note_on_c, 1, 81, 85
10, 97337, Note_off_c, 1, 81, 64
10, 97429, Note_on_c, 1, 79, 82
10, 97541, Note_on_c, 1, 77, 72
10, 97568, Note_off_c, 1, 79, 64
10, 97661, Note_on_c, 1, 76, 64
10, 97678, Note_off_c, 1, 77, 64
10, 97777, Note_on_c, 1, 74, 68
10, 97782, Note_off_c, 1, 76, 64
10, 97870, Note_off_c, 1, 74, 64
10, 97908, Note_on_c, 1, 73, 76
10, 98016, Note_off_c, 1, 73, 64
10, 98147, Note_on_c, 1, 69, 68
10, 98312, Note_off_c, 1, 69, 64
10, 98631, Note_on_c, 1, 65, 60
10, 99014, Note_off_c, 1, 65, 64
10, 99106, Note_on_c, 1, 65, 70
10, 99230, Note_off_c, 1, 65, 64
10, 99349, Note_on_c, 1, 67, 63
10, 99492, Note_off_c, 1, 67, 64
10, 99587, Note_on_c, 1, 69, 70
10, 99695, Note_off_c, 1, 69, 64
10, 99831, Note_on_c, 1, 69, 82
10, 99948, Note_off_c, 1, 69, 64
10, 100067, Note_on_c, 1, 74, 82
10, 100186, Note_off_c, 1, 74, 64
10, 100309, Note_on_c, 1, 70, 68
10, 100414, Note_off_c, 1, 70, 64
10, 100546, Note_on_c, 1, 69, 68
10, 100685, Note_off_c, 1, 69, 64
10, 100789, Note_on_c, 1, 69, 72
10, 101131, Note_off_c, 1, 69, 64
10, 101267, Note_on_c, 1, 66, 60
10, 101388, Note_off_c, 1, 66, 64
10, 101505, Note_on_c, 1, 67, 66
10, 101641, Note_off_c, 1, 67, 64
10, 101750, Note_on_c, 1, 69, 64
10, 101862, Note_off_c, 1, 69, 64
10, 101988, Note_on_c, 1, 66, 63
10, 102084, Note_off_c, 1, 66, 64
10, 102231, Note_on_c, 1, 67, 78
10, 102592, Note_off_c, 1, 67, 64
10, 102712, Note_on_c, 1, 65, 80
10, 103085, Note_off_c, 1, 65, 64
10, 103185, Note_on_c, 1, 71, 70
10, 103301, Note_off_c, 1, 71, 64
10, 103425, Note_on_c, 1, 72, 72
10, 103531, Note_off_c, 1, 72, 64
10, 103671, Note_on_c, 1, 71, 82
10, 103762, Note_off_c, 1, 71, 64
10, 103787, Note_on_c, 1, 69, 80
10, 103859, Note_off_c, 1, 69, 64
10, 103896, Note_on_c, 1, 67, 66
10, 104011, Note_off_c, 1, 67, 64
10, 104015, Note_on_c, 1, 69, 80
10, 104085, Note_off_c, 1, 69, 64
10, 104130, Note_on_c, 1, 71, 82
10, 104212, Note_off_c, 1, 71, 64
10, 104244, Note_on_c, 1, 67, 76
10, 104315, Note_off_c, 1, 67, 64
10, 104376, Note_on_c, 1, 72, 78
10, 104781, Note_off_c, 1, 72, 64
10, 104871, Note_on_c, 1, 71, 66
10, 104978, Note_off_c, 1, 71, 64
10, 105110, Note_on_c, 1, 72, 76
10, 105223, Note_off_c, 1, 72, 64
10, 105355, Note_on_c, 1, 65, 70
10, 105463, Note_off_c, 1, 65, 64
10, 105582, Note_on_c, 1, 64, 63
10, 105704, Note_off_c, 1, 64, 64
10, 105825, Note_on_c, 1, 65, 66
10, 105945, Note_off_c, 1, 65, 64
10, 106068, Note_on_c, 1, 69, 70
10, 106172, Note_off_c, 1, 69, 64
10, 106305, Note_on_c, 1, 67, 74
10, 106414, Note_off_c, 1, 67, 64
10, 106562, Note_on_c, 1, 67, 70
10, 106919, Note_off_c, 1, 67, 64
10, 107034, Note_on_c, 1, 71, 80
10, 107142, Note_off_c, 1, 71, 64
10, 107270, Note_on_c, 1, 67, 58
10, 107611, Note_off_c, 1, 67, 64
10, 107748, Note_on_c, 1, 67, 68
10, 107862, Note_off_c, 1, 67, 64
10, 107982, Note_on_c, 1, 67, 76
10, 108118, Note_off_c, 1, 67, 64
10, 108227, Note_on_c, 1, 76, 80
10, 108333, Note_off_c, 1, 76, 64
10, 108454, Note_on_c, 1, 74, 78
10, 108583, Note_off_c, 1, 74, 64
10, 108697, Note_on_c, 1, 73, 66
10, 108817, Note_off_c, 1, 73, 64
10, 108943, Note_on_c, 1, 76, 82
10, 109043, Note_off_c, 1, 76, 64
10, 109190, Note_on_c, 1, 73, 63
10, 109285, Note_off_c, 1, 73, 64
10, 109427, Note_on_c, 1, 74, 78
10, 109803, Note_off_c, 1, 74, 64
10, 109914, Note_on_c, 1, 67, 70
10, 110020, Note_off_c, 1, 67, 64
10, 110151, Note_on_c, 1, 69, 72
10, 110475, Note_off_c, 1, 69, 64
10, 110618, Note_on_c, 1, 69, 78
10, 110698, Note_off_c, 1, 69, 64
10, 110726, Note_on_c, 1, 71, 82
10, 110816, Note_off_c, 1, 71, 64
10, 110855, Note_on_c, 1, 73, 62
10, 110933, Note_off_c, 1, 73, 64
10, 110969, Note_on_c, 1, 74, 70
10, 111051, Note_off_c, 1, 74, 64
10, 111094, Note_on_c, 1, 76, 85
10, 111212, Note_off_c, 1, 76, 64
10, 111344, Note_on_c, 1, 81, 82
10, 111774, Note_off_c, 1, 81, 64
10, 111835, Note_on_c, 1, 79, 85
10, 111944, Note_on_c, 1, 77, 66
10, 111970, Note_off_c, 1, 79, 64
10, 112068, Note_on_c, 1, 76, 78
10, 112076, Note_off_c, 1, 77, 64
10, 112185, Note_on_c, 1, 74, 70
10, 112189, Note_off_c, 1, 76, 64
10, 112269, Note_off_c, 1, 74, 64
10, 112313, Note_on_c, 1, 73, 80
10, 112438, Note_off_c, 1, 73, 64
10, 112554, Note_on_c, 1, 69, 78
10, 112710, Note_off_c, 1, 69, 64
10, 113026, Note_on_c, 1, 65, 57
10, 113391, Note_off_c, 1, 65, 64
10, 113507, Note_on_c, 1, 65, 68
10, 113629, Note_off_c, 1, 65, 64
10, 113749, Note_on_c, 1, 67, 80
10, 113877, Note_off_c, 1, 67, 64
10, 113984, Note_on_c, 1, 69, 82
10, 114088, Note_off_c, 1, 69, 64
10, 114224, Note_on_c, 1, 69, 72
10, 114355, Note_off_c, 1, 69, 64
10, 114466, Note_on_c, 1, 74, 80
10, 114596, Note_off_c, 1, 74, 64
10, 114718, Note_on_c, 1, 70, 70
10, 114826, Note_off_c, 1, 70, 64
10, 114953, Note_on_c, 1, 69, 78
10, 115056, Note_off_c, 1, 69, 64
10, 115186, Note_on_c, 1, 69, 74
10, 115567, Note_off_c, 1, 69, 64
10, 115667, Note_on_c, 1, 66, 62
10, 115804, Note_off_c, 1, 66, 64
10, 115902, Note_on_c, 1, 67, 72
10, 116031, Note_off_c, 1, 67, 64
10, 116146, Note_on_c, 1, 69, 72
10, 116257, Note_off_c, 1, 69, 64
10, 116391, Note_on_c, 1, 66, 66
10, 116495, Note_off_c, 1, 66, 64
10, 116623, Note_on_c, 1, 67, 72
10, 116982, Note_off_c, 1, 67, 64
10, 117098, Note_on_c, 1, 65, 68
10, 117524, Note_off_c, 1, 65, 64
10, 117600, Note_on_c, 1, 71, 78
10, 117727, Note_off_c, 1, 71, 64
10, 117833, Note_on_c, 1, 72, 72
10, 117966, Note_off_c, 1, 72, 64
10, 118072, Note_on_c, 1, 71, 82
10, 118181, Note_off_c, 1, 71, 64
10, 118181, Note_on_c, 1, 69, 72
10, 118258, Note_off_c, 1, 69, 64
10, 118298, Note_on_c, 1, 67, 74
10, 118402, Note_off_c, 1, 67, 64
10, 118421, Note_on_c, 1, 69, 76
10, 118515, Note_off_c, 1, 69, 64
10, 118548, Note_on_c, 1, 71, 80
10, 118634, Note_off_c, 1, 71, 64
10, 118655, Note_on_c, 1, 67, 76
10, 118740, Note_off_c, 1, 67, 64
10, 118781, Note_on_c, 1, 72, 78
10, 119194, Note_off_c, 1, 72, 64
10, 119281, Note_on_c, 1, 71, 78
10, 119406, Note_off_c, 1, 71, 64
10, 119515, Note_on_c, 1, 72, 78
10, 119636, Note_off_c, 1, 72, 64
10, 119751, Note_on_c, 1, 65, 72
10, 119864, Note_off_c, 1, 65, 64
10, 119989, Note_on_c, 1, 64, 76
10, 120101, Note_off_c, 1, 64, 64
10, 120222, Note_on_c, 1, 65, 70
10, 120340, Note_off_c, 1, 65, 64
10, 120461, Note_on_c, 1, 69, 78
10, 120575, Note_off_c, 1, 69, 64
10, 120705, Note_on_c, 1, 67, 72
10, 120815, Note_off_c, 1, 67, 64
10, 120940, Note_on_c, 1, 67, 70
10, 121431, Note_off_c, 1, 67, 64
10, 121431, End_track
11, 0, Start_track
11, 0, Title_t, "Viola"
11, 0, Program_c, 2, 41
11, 0, Control_c, 2, 7, 100
11, 11999, Note_on_c, 2, 67, 72
11, 12106, Note_off_c, 2, 67, 64
11, 12234, Note_on_c, 2, 62, 68
11, 12561, Note_off_c, 2, 62, 64
11, 12704, Note_on_c, 2, 62, 74
11, 12819, Note_off_c, 2, 62, 64
11, 12945, Note_on_c, 2, 60, 66
11, 13075, Note_off_c, 2, 60, 64
11, 13177, Note_on_c, 2, 72, 72
11, 13301, Note_off_c, 2, 72, 64
11, 13413, Note_on_c, 2, 65, 74
11, 13527, Note_off_c, 2, 65, 64
11, 13659, Note_on_c, 2, 64, 78
11, 13766, Note_off_c, 2, 64, 64
11, 13904, Note_on_c, 2, 57, 68
11, 14010, Note_off_c, 2, 57, 64
11, 14142, Note_on_c, 2, 69, 60
11, 14253, Note_off_c, 2, 69, 64
11, 14390, Note_on_c, 2, 69, 80
11, 14725, Note_off_c, 2, 69, 64
11, 14867, Note_on_c, 2, 70, 68
11, 14968, Note_off_c, 2, 70, 64
11, 15104, Note_on_c, 2, 64, 74
11, 15268, Note_off_c, 2, 64, 64
11, 15347, Note_on_c, 2, 57, 66
11, 15429, Note_off_c, 2, 57, 64
11, 15463, Note_on_c, 2, 59, 80
11, 15530, Note_off_c, 2, 59, 64
11, 15578, Note_on_c, 2, 61, 78
11, 15655, Note_off_c, 2, 61, 64
11, 15689, Note_on_c, 2, 62, 82
11, 15764, Note_off_c, 2, 62, 64
11, 15833, Note_on_c, 2, 64, 80
11, 15952, Note_off_c, 2, 64, 64
11, 16062, Note_on_c, 2, 69, 85
11, 16242, Note_off_c, 2, 69, 64
11, 16300, Note_on_c, 2, 67, 82
11, 16377, Note_off_c, 2, 67, 64
11, 16420, Note_on_c, 2, 65, 72
11, 16497, Note_off_c, 2, 65, 64
11, 16546, Note_on_c, 2, 64, 68
11, 16625, Note_off_c, 2, 64, 64
11, 16659, Note_on_c, 2, 62, 66
11, 16722, Note_off_c, 2, 62, 64
11, 16779, Note_on_c, 2, 61, 70
11, 16868, Note_off_c, 2, 61, 64
11, 16891, Note_on_c, 2, 62, 70
11, 16967, Note_off_c, 2, 62, 64
11, 17022, Note_on_c, 2, 64, 80
11, 17137, Note_off_c, 2, 64, 64
11, 17270, Note_on_c, 2, 64, 82
11, 17377, Note_off_c, 2, 64, 64
11, 17508, Note_on_c, 2, 61, 76
11, 17701, Note_off_c, 2, 61, 64
11, 17987, Note_on_c, 2, 62, 63
11, 18358, Note_off_c, 2, 62, 64
11, 18470, Note_on_c, 2, 62, 66
11, 18601, Note_off_c, 2, 62, 64
11, 18705, Note_on_c, 2, 62, 66
11, 18830, Note_off_c, 2, 62, 64
11, 18940, Note_on_c, 2, 64, 72
11, 19052, Note_off_c, 2, 64, 64
11, 19193, Note_on_c, 2, 62, 66
11, 19329, Note_off_c, 2, 62, 64
11, 19430, Note_on_c, 2, 65, 64
11, 19546, Note_off_c, 2, 65, 64
11, 19669, Note_on_c, 2, 67, 80
11, 19778, Note_off_c, 2, 67, 64
11, 19905, Note_on_c, 2, 64, 76
11, 20016, Note_off_c, 2, 64, 64
11, 20147, Note_on_c, 2, 65, 63
11, 20508, Note_off_c, 2, 65, 64
11, 20630, Note_on_c, 2, 62, 78
11, 20758, Note_off_c, 2, 62, 64
11, 20871, Note_on_c, 2, 60, 66
11, 20993, Note_off_c, 2, 60, 64
11, 21101, Note_on_c, 2, 57, 68
11, 21214, Note_off_c, 2, 57, 64
11, 21344, Note_on_c, 2, 62, 70
11, 21456, Note_off_c, 2, 62, 64
11, 21596, Note_on_c, 2, 62, 78
11, 21925, Note_off_c, 2, 62, 64
11, 22061, Note_on_c, 2, 60, 62
11, 22175, Note_off_c, 2, 60, 64
11, 22307, Note_on_c, 2, 55, 68
11, 22434, Note_off_c, 2, 55, 64
11, 22548, Note_on_c, 2, 67, 66
11, 22665, Note_off_c, 2, 67, 64
11, 22794, Note_on_c, 2, 67, 72
11, 22905, Note_off_c, 2, 67, 64
11, 23035, Note_on_c, 2, 67, 78
11, 23159, Note_off_c, 2, 67, 64
11, 23271, Note_on_c, 2, 62, 60
11, 23378, Note_off_c, 2, 62, 64
11, 23498, Note_on_c, 2, 67, 70
11, 23625, Note_off_c, 2, 67, 64
11, 23740, Note_on_c, 2, 60, 68
11, 23866, Note_off_c, 2, 60, 64
11, 23981, Note_on_c, 2, 65, 68
11, 24097, Note_off_c, 2, 65, 64
11, 24224, Note_on_c, 2, 62, 68
11, 24338, Note_off_c, 2, 62, 64
11, 24468, Note_on_c, 2, 67, 80
11, 24594, Note_off_c, 2, 67, 64
11, 24711, Note_on_c, 2, 65, 63
11, 24826, Note_off_c, 2, 65, 64
11, 24938, Note_on_c, 2, 67, 68
11, 25056, Note_off_c, 2, 67, 64
11, 25185, Note_on_c, 2, 60, 64
11, 25300, Note_off_c, 2, 60, 64
11, 25423, Note_on_c, 2, 65, 76
11, 25534, Note_off_c, 2, 65, 64
11, 25661, Note_on_c, 2, 62, 74
11, 25774, Note_off_c, 2, 62, 64
11, 25914, Note_on_c, 2, 64, 68
11, 26244, Note_off_c, 2, 64, 64
11, 26393, Note_on_c, 2, 67, 78
11, 26500, Note_off_c, 2, 67, 64
11, 26616, Note_on_c, 2, 62, 66
11, 26947, Note_off_c, 2, 62, 64
11, 27111, Note_on_c, 2, 62, 68
11, 27209, Note_off_c, 2, 62, 64
11, 27347, Note_on_c, 2, 60, 59
11, 27475, Note_off_c, 2, 60, 64
11, 27580, Note_on_c, 2, 72, 74
11, 27700, Note_off_c, 2, 72, 64
11, 27822, Note_on_c, 2, 65, 70
11, 27924, Note_off_c, 2, 65, 64
11, 28064, Note_on_c, 2, 64, 74
11, 28179, Note_off_c, 2, 64, 64
11, 28309, Note_on_c, 2, 57, 70
11, 28423, Note_off_c, 2, 57, 64
11, 28544, Note_on_c, 2, 69, 63
11, 28651, Note_off_c, 2, 69, 64
11, 28793, Note_on_c, 2, 69, 74
11, 29130, Note_off_c, 2, 69, 64
11, 29268, Note_on_c, 2, 70, 70
11, 29355, Note_off_c, 2, 70, 64
11, 29505, Note_on_c, 2, 64, 70
11, 29691, Note_off_c, 2, 64, 64
11, 29753, Note_on_c, 2, 57, 66
11, 29834, Note_off_c, 2, 57, 64
11, 29863, Note_on_c, 2, 59, 78
11, 29936, Note_off_c, 2, 59, 64
11, 29991, Note_on_c, 2, 61, 72
11, 30054, Note_off_c, 2, 61, 64
11, 30103, Note_on_c, 2, 62, 80
11, 30176, Note_off_c, 2, 62, 64
11, 30225, Note_on_c, 2, 64, 72
11, 30365, Note_off_c, 2, 64, 64
11, 30465, Note_on_c, 2, 69, 78
11, 30662, Note_off_c, 2, 69, 64
11, 30707, Note_on_c, 2, 67, 78
11, 30783, Note_off_c, 2, 67, 64
11, 30821, Note_on_c, 2, 65, 64
11, 30898, Note_off_c, 2, 65, 64
11, 30938, Note_on_c, 2, 64, 68
11, 31025, Note_off_c, 2, 64, 64
11, 31059, Note_on_c, 2, 62, 66
11, 31122, Note_off_c, 2, 62, 64
11, 31176, Note_on_c, 2, 61, 70
11, 31273, Note_off_c, 2, 61, 64
11, 31301, Note_on_c, 2, 62, 70
11, 31373, Note_off_c, 2, 62, 64
11, 31427, Note_on_c, 2, 64, 70
11, 31539, Note_off_c, 2, 64, 64
11, 31671, Note_on_c, 2, 64, 76
11, 31786, Note_off_c, 2, 64, 64
11, 31916, Note_on_c, 2, 61, 82
11, 32108, Note_off_c, 2, 61, 64
11, 32388, Note_on_c, 2, 62, 62
11, 32743, Note_off_c, 2, 62, 64
11, 32862, Note_on_c, 2, 62, 64
11, 32991, Note_off_c, 2, 62, 64
11, 33110, Note_on_c, 2, 62, 68
11, 33234, Note_off_c, 2, 62, 64
11, 33349, Note_on_c, 2, 64, 66
11, 33463, Note_off_c, 2, 64, 64
11, 33596, Note_on_c, 2, 62, 78
11, 33698, Note_off_c, 2, 62, 64
11, 33826, Note_on_c, 2, 65, 70
11, 33942, Note_off_c, 2, 65, 64
11, 34069, Note_on_c, 2, 67, 74
11, 34186, Note_off_c, 2, 67, 64
11, 34313, Note_on_c, 2, 64, 72
11, 34425, Note_off_c, 2, 64, 64
11, 34554, Note_on_c, 2, 65, 66
11, 34887, Note_off_c, 2, 65, 64
11, 35019, Note_on_c, 2, 62, 68
11, 35143, Note_off_c, 2, 62, 64
11, 35261, Note_on_c, 2, 60, 66
11, 35375, Note_off_c, 2, 60, 64
11, 35498, Note_on_c, 2, 57, 60
11, 35610, Note_off_c, 2, 57, 64
11, 35744, Note_on_c, 2, 62, 70
11, 35851, Note_off_c, 2, 62, 64
11, 35985, Note_on_c, 2, 62, 72
11, 36317, Note_off_c, 2, 62, 64
11, 36451, Note_on_c, 2, 60, 63
11, 36575, Note_off_c, 2, 60, 64
11, 36703, Note_on_c, 2, 55, 68
11, 36817, Note_off_c, 2, 55, 64
11, 36937, Note_on_c, 2, 67, 66
11, 37062, Note_off_c, 2, 67, 64
11, 37188, Note_on_c, 2, 67, 72
11, 37312, Note_off_c, 2, 67, 64
11, 37430, Note_on_c, 2, 67, 78
11, 37565, Note_off_c, 2, 67, 64
11, 37673, Note_on_c, 2, 62, 61
11, 37780, Note_off_c, 2, 62, 64
11, 37897, Note_on_c, 2, 67, 76
11, 38025, Note_off_c, 2, 67, 64
11, 38147, Note_on_c, 2, 60, 59
11, 38271, Note_off_c, 2, 60, 64
11, 38386, Note_on_c, 2, 65, 66
11, 38505, Note_off_c, 2, 65, 64
11, 38632, Note_on_c, 2, 62, 68
11, 38762, Note_off_c, 2, 62, 64
11, 38873, Note_on_c, 2, 67, 82
11, 38999, Note_off_c, 2, 67, 64
11, 39112, Note_on_c, 2, 65, 66
11, 39230, Note_off_c, 2, 65, 64
11, 39340, Note_on_c, 2, 67, 70
11, 39455, Note_off_c, 2, 67, 64
11, 39584, Note_on_c, 2, 60, 63
11, 39697, Note_off_c, 2, 60, 64
11, 39825, Note_on_c, 2, 65, 68
11, 39929, Note_off_c, 2, 65, 64
11, 40071, Note_on_c, 2, 62, 78
11, 40170, Note_off_c, 2, 62, 64
11, 40310, Note_on_c, 2, 64, 72
11, 40787, Note_off_c, 2, 64, 64
11, 52312, Note_on_c, 2, 62, 68
11, 52429, Note_off_c, 2, 62, 64
11, 52537, Note_on_c, 2, 59, 57
11, 52710, Note_off_c, 2, 59, 64
11, 52783, Note_on_c, 2, 60, 64
11, 52895, Note_on_c, 2, 59, 66
11, 52911, Note_off_c, 2, 60, 64
11, 53012, Note_on_c, 2, 57, 59
11, 53024, Note_off_c, 2, 59, 64
11, 53129, Note_off_c, 2, 57, 64
11, 53137, Note_on_c, 2, 55, 66
11, 53211, Note_off_c, 2, 55, 64
11, 53262, Note_on_c, 2, 64, 50
11, 53349, Note_off_c, 2, 64, 64
11, 53386, Note_on_c, 2, 65, 62
11, 53457, Note_off_c, 2, 65, 64
11, 53500, Note_on_c, 2, 67, 66
11, 53573, Note_off_c, 2, 67, 64
11, 53616, Note_on_c, 2, 69, 68
11, 53678, Note_off_c, 2, 69, 64
11, 53745, Note_on_c, 2, 70, 66
11, 54183, Note_off_c, 2, 70, 64
11, 54237, Note_on_c, 2, 69, 68
11, 54358, Note_off_c, 2, 69, 64
11, 54474, Note_on_c, 2, 67, 58
11, 54618, Note_off_c, 2, 67, 64
11, 54705, Note_on_c, 2, 65, 59
11, 54867, Note_off_c, 2, 65, 64
11, 54941, Note_on_c, 2, 67, 66
11, 55051, Note_on_c, 2, 65, 58
11, 55066, Note_off_c, 2, 67, 64
11, 55173, Note_on_c, 2, 64, 60
11, 55175, Note_off_c, 2, 65, 64
11, 55287, Note_off_c, 2, 64, 64
11, 55287, Note_on_c, 2, 62, 60
11, 55390, Note_off_c, 2, 62, 64
11, 55416, Note_on_c, 2, 61, 72
11, 55502, Note_off_c, 2, 61, 64
11, 55535, Note_on_c, 2, 62, 66
11, 55626, Note_off_c, 2, 62, 64
11, 55658, Note_on_c, 2, 64, 62
11, 55779, Note_off_c, 2, 64, 64
11, 55897, Note_on_c, 2, 69, 64
11, 56305, Note_off_c, 2, 69, 64
11, 56380, Note_on_c, 2, 67, 68
11, 56495, Note_on_c, 2, 65, 57
11, 56513, Note_off_c, 2, 67, 64
11, 56617, Note_on_c, 2, 64, 61
11, 56636, Note_off_c, 2, 65, 64
11, 56731, Note_on_c, 2, 62, 63
11, 56739, Note_off_c, 2, 64, 64
11, 56827, Note_off_c, 2, 62, 64
11, 56859, Note_on_c, 2, 61, 78
11, 56966, Note_on_c, 2, 62, 66
11, 56971, Note_off_c, 2, 61, 64
11, 57088, Note_on_c, 2, 64, 64
11, 57103, Note_off_c, 2, 62, 64
11, 57203, Note_on_c, 2, 65, 59
11, 57227, Note_off_c, 2, 64, 64
11, 57320, Note_off_c, 2, 65, 64
11, 57330, Note_on_c, 2, 67, 63
11, 57768, Note_off_c, 2, 67, 64
11, 57815, Note_on_c, 2, 65, 58
11, 57939, Note_on_c, 2, 64, 66
11, 57970, Note_off_c, 2, 65, 64
11, 58067, Note_on_c, 2, 62, 64
11, 58071, Note_off_c, 2, 64, 64
11, 58168, Note_on_c, 2, 61, 57
11, 58188, Note_off_c, 2, 62, 64
11, 58259, Note_off_c, 2, 61, 64
11, 58294, Note_on_c, 2, 62, 64
11, 58368, Note_off_c, 2, 62, 64
11, 58417, Note_on_c, 2, 57, 57
11, 58489, Note_off_c, 2, 57, 64
11, 58538, Note_on_c, 2, 65, 64
11, 58650, Note_on_c, 2, 64, 68
11, 58671, Note_off_c, 2, 65, 64
11, 58764, Note_on_c, 2, 62, 62
11, 58768, Note_off_c, 2, 64, 64
11, 58876, Note_off_c, 2, 62, 64
11, 58879, Note_on_c, 2, 60, 55
11, 58954, Note_off_c, 2, 60, 64
11, 59007, Note_on_c, 2, 58, 55
11, 59116, Note_on_c, 2, 62, 66
11, 59132, Note_off_c, 2, 58, 64
11, 59254, Note_on_c, 2, 67, 70
11, 59271, Note_off_c, 2, 62, 64
11, 59319, Note_off_c, 2, 67, 64
11, 59378, Note_on_c, 2, 64, 70
11, 59437, Note_off_c, 2, 64, 64
11, 59511, Note_on_c, 2, 65, 62
11, 59797, Note_off_c, 2, 65, 64
11, 59855, Note_on_c, 2, 62, 60
11, 59916, Note_off_c, 2, 62, 64
11, 59976, Note_on_c, 2, 65, 63
11, 60088, Note_on_c, 2, 64, 70
11, 60117, Note_off_c, 2, 65, 64
11, 60154, Note_off_c, 2, 64, 64
11, 60217, Note_on_c, 2, 62, 64
11, 60329, Note_on_c, 2, 61, 64
11, 60337, Note_off_c, 2, 62, 64
11, 60410, Note_off_c, 2, 61, 64
11, 60477, Note_on_c, 2, 62, 52
11, 60816, Note_off_c, 2, 62, 64
11, 60935, Note_on_c, 2, 57, 55
11, 61013, Note_off_c, 2, 57, 64
11, 61063, Note_on_c, 2, 59, 58
11, 61127, Note_off_c, 2, 59, 64
11, 61187, Note_on_c, 2, 60, 58
11, 61365, Note_off_c, 2, 60, 64
11, 61435, Note_on_c, 2, 62, 68
11, 61540, Note_on_c, 2, 60, 59
11, 61562, Note_off_c, 2, 62, 64
11, 61666, Note_on_c, 2, 59, 66
11, 61689, Note_off_c, 2, 60, 64
11, 61776, Note_on_c, 2, 57, 59
11, 61792, Note_off_c, 2, 59, 64
11, 61876, Note_off_c, 2, 57, 64
11, 61903, Note_on_c, 2, 59, 74
11, 62018, Note_on_c, 2, 57, 54
11, 62040, Note_off_c, 2, 59, 64
11, 62146, Note_on_c, 2, 55, 59
11, 62147, Note_off_c, 2, 57, 64
11, 62263, Note_on_c, 2, 57, 61
11, 62276, Note_off_c, 2, 55, 64
11, 62388, Note_on_c, 2, 59, 59
11, 62398, Note_off_c, 2, 57, 64
11, 62501, Note_on_c, 2, 60, 60
11, 62511, Note_off_c, 2, 59, 64
11, 62609, Note_off_c, 2, 60, 64
11, 62620, Note_on_c, 2, 62, 80
11, 62736, Note_off_c, 2, 62, 64
11, 62737, Note_on_c, 2, 64, 59
11, 62844, Note_off_c, 2, 64, 64
11, 62861, Note_on_c, 2, 65, 66
11, 63015, Note_off_c, 2, 65, 64
11, 63108, Note_on_c, 2, 64, 61
11, 63264, Note_off_c, 2, 64, 64
11, 63347, Note_on_c, 2, 62, 63
11, 63470, Note_on_c, 2, 60, 55
11, 63477, Note_off_c, 2, 62, 64
11, 63590, Note_off_c, 2, 60, 64
11, 63595, Note_on_c, 2, 59, 60
11, 63710, Note_on_c, 2, 60, 61
11, 63720, Note_off_c, 2, 59, 64
11, 63825, Note_off_c, 2, 60, 64
11, 63837, Note_on_c, 2, 62, 66
11, 63934, Note_off_c, 2, 62, 64
11, 63943, Note_on_c, 2, 64, 70
11, 64048, Note_off_c, 2, 64, 64
11, 64069, Note_on_c, 2, 65, 63
11, 64170, Note_off_c, 2, 65, 64
11, 64174, Note_on_c, 2, 67, 70
11, 64288, Note_off_c, 2, 67, 64
11, 64308, Note_on_c, 2, 69, 70
11, 64430, Note_off_c, 2, 69, 64
11, 64540, Note_on_c, 2, 67, 59
11, 64929, Note_off_c, 2, 67, 64
11, 65032, Note_on_c, 2, 58, 64
11, 65134, Note_on_c, 2, 57, 68
11, 65140, Note_off_c, 2, 58, 64
11, 65259, Note_on_c, 2, 58, 60
11, 65263, Note_off_c, 2, 57, 64
11, 65362, Note_off_c, 2, 58, 64
11, 65370, Note_on_c, 2, 55, 63
11, 65459, Note_off_c, 2, 55, 64
11, 65501, Note_on_c, 2, 57, 74
11, 65612, Note_off_c, 2, 57, 64
11, 65744, Note_on_c, 2, 62, 68
11, 65849, Note_off_c, 2, 62, 64
11, 65992, Note_on_c, 2, 59, 59
11, 66096, Note_off_c, 2, 59, 64
11, 66230, Note_on_c, 2, 60, 59
11, 66554, Note_off_c, 2, 60, 64
11, 66709, Note_on_c, 2, 62, 60
11, 66834, Note_off_c, 2, 62, 64
11, 66948, Note_on_c, 2, 59, 57
11, 67131, Note_off_c, 2, 59, 64
11, 67195, Note_on_c, 2, 60, 66
11, 67300, Note_on_c, 2, 59, 61
11, 67319, Note_off_c, 2, 60, 64
11, 67424, Note_on_c, 2, 57, 53
11, 67428, Note_off_c, 2, 59, 64
11, 67530, Note_off_c, 2, 57, 64
11, 67539, Note_on_c, 2, 55, 60
11, 67621, Note_off_c, 2, 55, 64
11, 67655, Note_on_c, 2, 64, 52
11, 67727, Note_off_c, 2, 64, 64
11, 67776, Note_on_c, 2, 65, 63
11, 67845, Note_off_c, 2, 65, 64
11, 67893, Note_on_c, 2, 67, 62
11, 67969, Note_off_c, 2, 67, 64
11, 68018, Note_on_c, 2, 69, 72
11, 68084, Note_off_c, 2, 69, 64
11, 68149, Note_on_c, 2, 70, 63
11, 68569, Note_off_c, 2, 70, 64
11, 68627, Note_on_c, 2, 69, 66
11, 68747, Note_off_c, 2, 69, 64
11, 68864, Note_on_c, 2, 67, 60
11, 69006, Note_off_c, 2, 67, 64
11, 69102, Note_on_c, 2, 65, 60
11, 69293, Note_off_c, 2, 65, 64
11, 69345, Note_on_c, 2, 67, 74
11, 69450, Note_on_c, 2, 65, 57
11, 69470, Note_off_c, 2, 67, 64
11, 69571, Note_off_c, 2, 65, 64
11, 69575, Note_on_c, 2, 64, 54
11, 69691, Note_on_c, 2, 62, 62
11, 69693, Note_off_c, 2, 64, 64
11, 69795, Note_off_c, 2, 62, 64
11, 69821, Note_on_c, 2, 61, 72
11, 69902, Note_off_c, 2, 61, 64
11, 69935, Note_on_c, 2, 62, 63
11, 70025, Note_off_c, 2, 62, 64
11, 70059, Note_on_c, 2, 64, 59
11, 70191, Note_off_c, 2, 64, 64
11, 70295, Note_on_c, 2, 69, 64
11, 70695, Note_off_c, 2, 69, 64
11, 70778, Note_on_c, 2, 67, 68
11, 70889, Note_on_c, 2, 65, 57
11, 70905, Note_off_c, 2, 67, 64
11, 71015, Note_on_c, 2, 64, 54
11, 71038, Note_off_c, 2, 65, 64
11, 71119, Note_on_c, 2, 62, 60
11, 71139, Note_off_c, 2, 64, 64
11, 71226, Note_off_c, 2, 62, 64
11, 71252, Note_on_c, 2, 61, 74
11, 71368, Note_on_c, 2, 62, 66
11, 71372, Note_off_c, 2, 61, 64
11, 71482, Note_on_c, 2, 64, 57
11, 71499, Note_off_c, 2, 62, 64
11, 71603, Note_on_c, 2, 65, 53
11, 71631, Note_off_c, 2, 64, 64
11, 71722, Note_off_c, 2, 65, 64
11, 71738, Note_on_c, 2, 67, 64
11, 72162, Note_off_c, 2, 67, 64
11, 72215, Note_on_c, 2, 65, 59
11, 72330, Note_on_c, 2, 64, 64
11, 72362, Note_off_c, 2, 65, 64
11, 72463, Note_off_c, 2, 64, 64
11, 72463, Note_on_c, 2, 62, 62
11, 72568, Note_on_c, 2, 61, 52
11, 72585, Note_off_c, 2, 62, 64
11, 72657, Note_off_c, 2, 61, 64
11, 72691, Note_on_c, 2, 62, 63
11, 72773, Note_off_c, 2, 62, 64
11, 72806, Note_on_c, 2, 57, 54
11, 72884, Note_off_c, 2, 57, 64
11, 72929, Note_on_c, 2, 65, 63
11, 73050, Note_on_c, 2, 64, 61
11, 73070, Note_off_c, 2, 65, 64
11, 73174, Note_on_c, 2, 62, 59
11, 73179, Note_off_c, 2, 64, 64
11, 73264, Note_off_c, 2, 62, 64
11, 73282, Note_on_c, 2, 60, 52
11, 73358, Note_off_c, 2, 60, 64
11, 73401, Note_on_c, 2, 58, 60
11, 73519, Note_on_c, 2, 62, 66
11, 73537, Note_off_c, 2, 58, 64
11, 73649, Note_on_c, 2, 67, 78
11, 73653, Note_off_c, 2, 62, 64
11, 73717, Note_off_c, 2, 67, 64
11, 73769, Note_on_c, 2, 64, 66
11, 73832, Note_off_c, 2, 64, 64
11, 73908, Note_on_c, 2, 65, 58
11, 74208, Note_off_c, 2, 65, 64
11, 74254, Note_on_c, 2, 62, 64
11, 74320, Note_off_c, 2, 62, 64
11, 74379, Note_on_c, 2, 65, 66
11, 74494, Note_on_c, 2, 64, 72
11, 74514, Note_off_c, 2, 65, 64
11, 74559, Note_off_c, 2, 64, 64
11, 74624, Note_on_c, 2, 62, 64
11, 74734, Note_on_c, 2, 61, 66
11, 74741, Note_off_c, 2, 62, 64
11, 74817, Note_off_c, 2, 61, 64
11, 74865, Note_on_c, 2, 62, 66
11, 75237, Note_off_c, 2, 62, 64
11, 75336, Note_on_c, 2, 57, 61
11, 75410, Note_off_c, 2, 57, 64
11, 75462, Note_on_c, 2, 59, 59
11, 75528, Note_off_c, 2, 59, 64
11, 75573, Note_on_c, 2, 60, 63
11, 75772, Note_off_c, 2, 60, 64
11, 75829, Note_on_c, 2, 62, 72
11, 75931, Note_on_c, 2, 60, 63
11, 75950, Note_off_c, 2, 62, 64
11, 76061, Note_on_c, 2, 59, 66
11, 76070, Note_off_c, 2, 60, 64
11, 76168, Note_off_c, 2, 59, 64
11, 76171, Note_on_c, 2, 57, 59
11, 76281, Note_off_c, 2, 57, 64
11, 76297, Note_on_c, 2, 59, 62
11, 76408, Note_off_c, 2, 59, 64
11, 76413, Note_on_c, 2, 57, 57
11, 76534, Note_off_c, 2, 57, 64
11, 76536, Note_on_c, 2, 55, 66
11, 76640, Note_off_c, 2, 55, 64
11, 76652, Note_on_c, 2, 57, 64
11, 76763, Note_off_c, 2, 57, 64
11, 76779, Note_on_c, 2, 59, 57
11, 76883, Note_on_c, 2, 60, 58
11, 76888, Note_off_c, 2, 59, 64
11, 76997, Note_off_c, 2, 60, 64
11, 77013, Note_on_c, 2, 62, 64
11, 77128, Note_off_c, 2, 62, 64
11, 77137, Note_on_c, 2, 64, 63
11, 77242, Note_off_c, 2, 64, 64
11, 77257, Note_on_c, 2, 65, 63
11, 77397, Note_off_c, 2, 65, 64
11, 77508, Note_on_c, 2, 64, 68
11, 77628, Note_off_c, 2, 64, 64
11, 77749, Note_on_c, 2, 62, 66
11, 77856, Note_on_c, 2, 60, 52
11, 77868, Note_off_c, 2, 62, 64
11, 77976, Note_off_c, 2, 60, 64
11, 77979, Note_on_c, 2, 59, 60
11, 78093, Note_on_c, 2, 60, 60
11, 78098, Note_off_c, 2, 59, 64
11, 78202, Note_off_c, 2, 60, 64
11, 78224, Note_on_c, 2, 62, 59
11, 78334, Note_off_c, 2, 62, 64
11, 78338, Note_on_c, 2, 64, 70
11, 78436, Note_off_c, 2, 64, 64
11, 78456, Note_on_c, 2, 65, 66
11, 78562, Note_off_c, 2, 65, 64
11, 78564, Note_on_c, 2, 67, 70
11, 78659, Note_off_c, 2, 67, 64
11, 78692, Note_on_c, 2, 69, 70
11, 78796, Note_off_c, 2, 69, 64
11, 78939, Note_on_c, 2, 67, 68
11, 79337, Note_off_c, 2, 67, 64
11, 79432, Note_on_c, 2, 58, 63
11, 79535, Note_on_c, 2, 57, 60
11, 79555, Note_off_c, 2, 58, 64
11, 79658, Note_on_c, 2, 58, 57
11, 79670, Note_off_c, 2, 57, 64
11, 79760, Note_off_c, 2, 58, 64
11, 79770, Note_on_c, 2, 55, 59
11, 79856, Note_off_c, 2, 55, 64
11, 79890, Note_on_c, 2, 57, 74
11, 79981, Note_off_c, 2, 57, 64
11, 80140, Note_on_c, 2, 62, 78
11, 80223, Note_off_c, 2, 62, 64
11, 80363, Note_on_c, 2, 60, 70
11, 80404, Note_on_c, 2, 59, 57
11, 80406, Note_off_c, 2, 60, 64
11, 80433, Note_on_c, 2, 60, 60
11, 80438, Note_off_c, 2, 59, 64
11, 80476, Note_on_c, 2, 59, 68
11, 80488, Note_off_c, 2, 60, 64
11, 80544, Note_off_c, 2, 59, 64
11, 80614, Note_on_c, 2, 60, 57
11, 81026, Note_off_c, 2, 60, 64
11, 92639, Note_on_c, 2, 67, 72
11, 92746, Note_off_c, 2, 67, 64
11, 92874, Note_on_c, 2, 62, 68
11, 93201, Note_off_c, 2, 62, 64
11, 93344, Note_on_c, 2, 62, 74
11, 93459, Note_off_c, 2, 62, 64
11, 93585, Note_on_c, 2, 60, 66
11, 93715, Note_off_c, 2, 60, 64
11, 93817, Note_on_c, 2, 72, 72
11, 93941, Note_off_c, 2, 72, 64
11, 94053, Note_on_c, 2, 65, 74
11, 94167, Note_off_c, 2, 65, 64
11, 94299, Note_on_c, 2, 64, 78
11, 94406, Note_off_c, 2, 64, 64
11, 94544, Note_on_c, 2, 57, 68
11, 94650, Note_off_c, 2, 57, 64
11, 94782, Note_on_c, 2, 69, 60
11, 94893, Note_off_c, 2, 69, 64
11, 95030, Note_on_c, 2, 69, 80
11, 95365, Note_off_c, 2, 69, 64
11, 95507, Note_on_c, 2, 70, 68
11, 95608, Note_off_c, 2, 70, 64
11, 95744, Note_on_c, 2, 64, 74
11, 95908, Note_off_c, 2, 64, 64
11, 95987, Note_on_c, 2, 57, 66
11, 96069, Note_off_c, 2, 57, 64
11, 96103, Note_on_c, 2, 59, 80
11, 96170, Note_off_c, 2, 59, 64
11, 96218, Note_on_c, 2, 61, 78
11, 96295, Note_off_c, 2, 61, 64
11, 96329, Note_on_c, 2, 62, 82
11, 96404, Note_off_c, 2, 62, 64
11, 96473, Note_on_c, 2, 64, 80
11, 96592, Note_off_c, 2, 64, 64
11, 96702, Note_on_c, 2, 69, 85
11, 96882, Note_off_c, 2, 69, 64
11, 96940, Note_on_c, 2, 67, 82
11, 97017, Note_off_c, 2, 67, 64
11, 97060, Note_on_c, 2, 65, 72
11, 97137, Note_off_c, 2, 65, 64
11, 97186, Note_on_c, 2, 64, 68
11, 97265, Note_off_c, 2, 64, 64
11, 97299, Note_on_c, 2, 62, 66
11, 97362, Note_off_c, 2, 62, 64
11, 97419, Note_on_c, 2, 61, 70
11, 97508, Note_off_c, 2, 61, 64
11, 97531, Note_on_c, 2, 62, 70
11, 97607, Note_off_c, 2, 62, 64
11, 97662, Note_on_c, 2, 64, 80
11, 97777, Note_off_c, 2, 64, 64
11, 97910, Note_on_c, 2, 64, 82
11, 98017, Note_off_c, 2, 64, 64
11, 98148, Note_on_c, 2, 61, 76
11, 98341, Note_off_c, 2, 61, 64
11, 98627, Note_on_c, 2, 62, 63
11, 98998, Note_off_c, 2, 62, 64
11, 99110, Note_on_c, 2, 62, 66
11, 99241, Note_off_c, 2, 62, 64
11, 99345, Note_on_c, 2, 62, 66
11, 99470, Note_off_c, 2, 62, 64
11, 99580, Note_on_c, 2, 64, 72
11, 99692, Note_off_c, 2, 64, 64
11, 99833, Note_on_c, 2, 62, 66
11, 99969, Note_off_c, 2, 62, 64
11, 100070, Note_on_c, 2, 65, 64
11, 100186, Note_off_c, 2, 65, 64
11, 100309, Note_on_c, 2, 67, 80
11, 100418, Note_off_c, 2, 67, 64
11, 100545, Note_on_c, 2, 64, 76
11, 100656, Note_off_c, 2, 64, 64
11, 100787, Note_on_c, 2, 65, 63
11, 101148, Note_off_c, 2, 65, 64
11, 101270, Note_on_c, 2, 62, 78
11, 101398, Note_off_c, 2, 62, 64
11, 101511, Note_on_c, 2, 60, 66
11, 101633, Note_off_c, 2, 60, 64
11, 101741, Note_on_c, 2, 57, 68
11, 101854, Note_off_c, 2, 57, 64
11, 101984, Note_on_c, 2, 62, 70
11, 102096, Note_off_c, 2, 62, 64
11, 102236, Note_on_c, 2, 62, 78
11, 102565, Note_off_c, 2, 62, 64
11, 102701, Note_on_c, 2, 60, 62
11, 102815, Note_off_c, 2, 60, 64
11, 102947, Note_on_c, 2, 55, 68
11, 103074, Note_off_c, 2, 55, 64
11, 103188, Note_on_c, 2, 67, 66
11, 103305, Note_off_c, 2, 67, 64
11, 103434, Note_on_c, 2, 67, 72
11, 103545, Note_off_c, 2, 67, 64
11, 103675, Note_on_c, 2, 67, 78
11, 103799, Note_off_c, 2, 67, 64
11, 103911, Note_on_c, 2, 62, 60
11, 104018, Note_off_c, 2, 62, 64
11, 104138, Note_on_c, 2, 67, 70
11, 104265, Note_off_c, 2, 67, 64
11, 104380, Note_on_c, 2, 60, 68
11, 104506, Note_off_c, 2, 60, 64
11, 104621, Note_on_c, 2, 65, 68
11, 104737, Note_off_c, 2, 65, 64
11, 104864, Note_on_c, 2, 62, 68
11, 104978, Note_off_c, 2, 62, 64
11, 105108, Note_on_c, 2, 67, 80
11, 105234, Note_off_c, 2, 67, 64
11, 105351, Note_on_c, 2, 65, 63
11, 105466, Note_off_c, 2, 65, 64
11, 105578, Note_on_c, 2, 67, 68
11, 105696, Note_off_c, 2, 67, 64
11, 105825, Note_on_c, 2, 60, 64
11, 105940, Note_off_c, 2, 60, 64
11, 106063, Note_on_c, 2, 65, 76
11, 106174, Note_off_c, 2, 65, 64
11, 106301, Note_on_c, 2, 62, 74
11, 106414, Note_off_c, 2, 62, 64
11, 106554, Note_on_c, 2, 64, 68
11, 106884, Note_off_c, 2, 64, 64
11, 107033, Note_on_c, 2, 67, 78
11, 107140, Note_off_c, 2, 67, 64
11, 107256, Note_on_c, 2, 62, 66
11, 107587, Note_off_c, 2, 62, 64
11, 107751, Note_on_c, 2, 62, 68
11, 107849, Note_off_c, 2, 62, 64
11, 107987, Note_on_c, 2, 60, 59
11, 108115, Note_off_c, 2, 60, 64
11, 108220, Note_on_c, 2, 72, 74
11, 108340, Note_off_c, 2, 72, 64
11, 108462, Note_on_c, 2, 65, 70
11, 108564, Note_off_c, 2, 65, 64
11, 108704, Note_on_c, 2, 64, 74
11, 108819, Note_off_c, 2, 64, 64
11, 108949, Note_on_c, 2, 57, 70
11, 109063, Note_off_c, 2, 57, 64
11, 109184, Note_on_c, 2, 69, 63
11, 109291, Note_off_c, 2, 69, 64
11, 109433, Note_on_c, 2, 69, 74
11, 109770, Note_off_c, 2, 69, 64
11, 109908, Note_on_c, 2, 70, 70
11, 109995, Note_off_c, 2, 70, 64
11, 110145, Note_on_c, 2, 64, 70
11, 110331, Note_off_c, 2, 64, 64
11, 110393, Note_on_c, 2, 57, 66
11, 110474, Note_off_c, 2, 57, 64
11, 110503, Note_on_c, 2, 59, 78
11, 110576, Note_off_c, 2, 59, 64
11, 110631, Note_on_c, 2, 61, 72
11, 110694, Note_off_c, 2, 61, 64
11, 110743, Note_on_c, 2, 62, 80
11, 110816, Note_off_c, 2, 62, 64
11, 110865, Note_on_c, 2, 64, 72
11, 111005, Note_off_c, 2, 64, 64
11, 111105, Note_on_c, 2, 69, 78
11, 111302, Note_off_c, 2, 69, 64
11, 111347, Note_on_c, 2, 67, 78
11, 111423, Note_off_c, 2, 67, 64
11, 111461, Note_on_c, 2, 65, 64
11, 111538, Note_off_c, 2, 65, 64
11, 111578, Note_on_c, 2, 64, 68
11, 111665, Note_off_c, 2, 64, 64
11, 111699, Note_on_c, 2, 62, 66
11, 111762, Note_off_c, 2, 62, 64
11, 111816, Note_on_c, 2, 61, 70
11, 111913, Note_off_c, 2, 61, 64
11, 111941, Note_on_c, 2, 62, 70
11, 112013, Note_off_c, 2, 62, 64
11, 112067, Note_on_c, 2, 64, 70
11, 112179, Note_off_c, 2, 64, 64
11, 112311, Note_on_c, 2, 64, 76
11, 112426, Note_off_c, 2, 64, 64
11, 112556, Note_on_c, 2, 61, 82
11, 112748, Note_off_c, 2, 61, 64
11, 113028, Note_on_c, 2, 62, 62
11, 113383, Note_off_c, 2, 62, 64
11, 113502, Note_on_c, 2, 62, 64
11, 113631, Note_off_c, 2, 62, 64
11, 113750, Note_on_c, 2, 62, 68
11, 113874, Note_off_c, 2, 62, 64
11, 113989, Note_on_c, 2, 64, 66
11, 114103, Note_off_c, 2, 64, 64
11, 114236, Note_on_c, 2, 62, 78
11, 114338, Note_off_c, 2, 62, 64
11, 114466, Note_on_c, 2, 65, 70
11, 114582, Note_off_c, 2, 65, 64
11, 114709, Note_on_c, 2, 67, 74
11, 114826, Note_off_c, 2, 67, 64
11, 114953, Note_on_c, 2, 64, 72
11, 115065, Note_off_c, 2, 64, 64
11, 115194, Note_on_c, 2, 65, 66
11, 115527, Note_off_c, 2, 65, 64
11, 115659, Note_on_c, 2, 62, 68
11, 115783, Note_off_c, 2, 62, 64
11, 115901, Note_on_c, 2, 60, 66
11, 116015, Note_off_c, 2, 60, 64
11, 116138, Note_on_c, 2, 57, 60
11, 116250, Note_off_c, 2, 57, 64
11, 116384, Note_on_c, 2, 62, 70
11, 116491, Note_off_c, 2, 62, 64
11, 116625, Note_on_c, 2, 62, 72
11, 116957, Note_off_c, 2, 62, 64
11, 117091, Note_on_c, 2, 60, 63
11, 117215, Note_off_c, 2, 60, 64
11, 117343, Note_on_c, 2, 55, 68
11, 117457, Note_off_c, 2, 55, 64
11, 117577, Note_on_c, 2, 67, 66
11, 117702, Note_off_c, 2, 67, 64
11, 117828, Note_on_c, 2, 67, 72
11, 117952, Note_off_c, 2, 67, 64
11, 118070, Note_on_c, 2, 67, 78
11, 118205, Note_off_c, 2, 67, 64
11, 118313, Note_on_c, 2, 62, 61
11, 118420, Note_off_c, 2, 62, 64
11, 118537, Note_on_c, 2, 67, 76
11, 118665, Note_off_c, 2, 67, 64
11, 118787, Note_on_c, 2, 60, 59
11, 118911, Note_off_c, 2, 60, 64
11, 119026, Note_on_c, 2, 65, 66
11, 119145, Note_off_c, 2, 65, 64
11, 119272, Note_on_c, 2, 62, 68
11, 119402, Note_off_c, 2, 62, 64
11, 119513, Note_on_c, 2, 67, 82
11, 119639, Note_off_c, 2, 67, 64
11, 119752, Note_on_c, 2, 65, 66
11, 119870, Note_off_c, 2, 65, 64
11, 119980, Note_on_c, 2, 67, 70
11, 120095, Note_off_c, 2, 67, 64
11, 120224, Note_on_c, 2, 60, 63
11, 120337, Note_off_c, 2, 60, 64
11, 120465, Note_on_c, 2, 65, 68
11, 120569, Note_off_c, 2, 65, 64
11, 120711, Note_on_c, 2, 62, 78
11, 120810, Note_off_c, 2, 62, 64
11, 120950, Note_on_c, 2, 64, 72
11, 121427, Note_off_c, 2, 64, 64
11, 121427, End_track
12, 0, Start_track
12, 0, Title_t, "Cello"
12, 0, Program_c, 3, 42
12, 0, Control_c, 3, 7, 100
12, 12005, Note_on_c, 3, 43, 76
12, 12109, Note_off_c, 3, 43, 64
12, 12240, Note_on_c, 3, 55, 68
12, 12353, Note_off_c, 3, 55, 64
12, 12475, Note_on_c, 3, 57, 70
12, 12596, Note_off_c, 3, 57, 64
12, 12707, Note_on_c, 3, 59, 64
12, 12818, Note_off_c, 3, 59, 64
12, 12943, Note_on_c, 3, 60, 68
12, 13054, Note_off_c, 3, 60, 64
12, 13184, Note_on_c, 3, 48, 63
12, 13286, Note_off_c, 3, 48, 64
12, 13429, Note_on_c, 3, 50, 78
12, 13545, Note_off_c, 3, 50, 64
12, 13660, Note_on_c, 3, 52, 72
12, 13768, Note_off_c, 3, 52, 64
12, 13895, Note_on_c, 3, 49, 66
12, 13999, Note_off_c, 3, 49, 64
12, 14158, Note_on_c, 3, 45, 64
12, 14263, Note_off_c, 3, 45, 64
12, 14386, Note_on_c, 3, 50, 76
12, 14507, Note_off_c, 3, 50, 64
12, 14625, Note_on_c, 3, 48, 68
12, 14724, Note_off_c, 3, 48, 64
12, 14868, Note_on_c, 3, 46, 63
12, 14969, Note_off_c, 3, 46, 64
12, 15104, Note_on_c, 3, 45, 66
12, 15211, Note_off_c, 3, 45, 64
12, 15331, Note_on_c, 3, 49, 62
12, 15433, Note_off_c, 3, 49, 64
12, 15585, Note_on_c, 3, 52, 70
12, 15686, Note_off_c, 3, 52, 64
12, 15825, Note_on_c, 3, 55, 72
12, 16311, Note_off_c, 3, 55, 64
12, 16546, Note_on_c, 3, 55, 70
12, 16655, Note_off_c, 3, 55, 64
12, 16789, Note_on_c, 3, 52, 74
12, 16890, Note_off_c, 3, 52, 64
12, 17035, Note_on_c, 3, 49, 66
12, 17129, Note_off_c, 3, 49, 64
12, 17273, Note_on_c, 3, 45, 66
12, 17763, Note_off_c, 3, 45, 64
12, 17998, Note_on_c, 3, 46, 59
12, 18112, Note_off_c, 3, 46, 64
12, 18225, Note_on_c, 3, 58, 80
12, 18343, Note_off_c, 3, 58, 64
12, 18467, Note_on_c, 3, 57, 80
12, 18566, Note_off_c, 3, 57, 64
12, 18717, Note_on_c, 3, 55, 80
12, 18820, Note_off_c, 3, 55, 64
12, 18947, Note_on_c, 3, 49, 68
12, 19055, Note_off_c, 3, 49, 64
12, 19191, Note_on_c, 3, 50, 82
12, 19306, Note_off_c, 3, 50, 64
12, 19427, Note_on_c, 3, 46, 68
12, 19534, Note_off_c, 3, 46, 64
12, 19662, Note_on_c, 3, 43, 78
12, 19776, Note_off_c, 3, 43, 64
12, 19922, Note_on_c, 3, 45, 82
12, 20008, Note_off_c, 3, 45, 64
12, 20149, Note_on_c, 3, 50, 76
12, 20245, Note_off_c, 3, 50, 64
12, 20387, Note_on_c, 3, 38, 80
12, 20477, Note_off_c, 3, 38, 64
12, 20622, Note_on_c, 3, 50, 76
12, 20739, Note_off_c, 3, 50, 64
12, 20874, Note_on_c, 3, 52, 78
12, 20983, Note_off_c, 3, 52, 64
12, 21107, Note_on_c, 3, 54, 68
12, 21206, Note_off_c, 3, 54, 64
12, 21344, Note_on_c, 3, 50, 74
12, 21434, Note_off_c, 3, 50, 64
12, 21584, Note_on_c, 3, 55, 85
12, 21684, Note_off_c, 3, 55, 64
12, 21839, Note_on_c, 3, 43, 82
12, 21926, Note_off_c, 3, 43, 64
12, 22071, Note_on_c, 3, 45, 70
12, 22175, Note_off_c, 3, 45, 64
12, 22301, Note_on_c, 3, 47, 78
12, 22413, Note_off_c, 3, 47, 64
12, 22538, Note_on_c, 3, 43, 61
12, 22636, Note_off_c, 3, 43, 64
12, 22780, Note_on_c, 3, 48, 70
12, 22882, Note_off_c, 3, 48, 64
12, 23025, Note_on_c, 3, 43, 72
12, 23369, Note_off_c, 3, 43, 64
12, 23506, Note_on_c, 3, 55, 70
12, 23637, Note_off_c, 3, 55, 64
12, 23746, Note_on_c, 3, 57, 78
12, 23829, Note_off_c, 3, 57, 64
12, 23853, Note_on_c, 3, 55, 70
12, 23936, Note_off_c, 3, 55, 64
12, 23971, Note_on_c, 3, 53, 64
12, 24066, Note_off_c, 3, 53, 64
12, 24080, Note_on_c, 3, 52, 64
12, 24170, Note_off_c, 3, 52, 64
12, 24207, Note_on_c, 3, 53, 78
12, 24289, Note_off_c, 3, 53, 64
12, 24327, Note_on_c, 3, 50, 68
12, 24407, Note_off_c, 3, 50, 64
12, 24467, Note_on_c, 3, 52, 82
12, 24592, Note_off_c, 3, 52, 64
12, 24715, Note_on_c, 3, 50, 66
12, 24821, Note_off_c, 3, 50, 64
12, 24950, Note_on_c, 3, 48, 70
12, 25055, Note_off_c, 3, 48, 64
12, 25185, Note_on_c, 3, 53, 76
12, 25304, Note_off_c, 3, 53, 64
12, 25423, Note_on_c, 3, 50, 68
12, 25524, Note_off_c, 3, 50, 64
12, 25665, Note_on_c, 3, 55, 82
12, 25768, Note_off_c, 3, 55, 64
12, 25925, Note_on_c, 3, 48, 72
12, 26236, Note_off_c, 3, 48, 64
12, 26391, Note_on_c, 3, 43, 80
12, 26512, Note_off_c, 3, 43, 64
12, 26620, Note_on_c, 3, 55, 72
12, 26746, Note_off_c, 3, 55, 64
12, 26865, Note_on_c, 3, 57, 80
12, 26966, Note_off_c, 3, 57, 64
12, 27100, Note_on_c, 3, 59, 82
12, 27210, Note_off_c, 3, 59, 64
12, 27342, Note_on_c, 3, 60, 80
12, 27469, Note_off_c, 3, 60, 64
12, 27587, Note_on_c, 3, 48, 64
12, 27677, Note_off_c, 3, 48, 64
12, 27824, Note_on_c, 3, 50, 76
12, 27929, Note_off_c, 3, 50, 64
12, 28057, Note_on_c, 3, 52, 80
12, 28169, Note_off_c, 3, 52, 64
12, 28296, Note_on_c, 3, 49, 70
12, 28399, Note_off_c, 3, 49, 64
12, 28536, Note_on_c, 3, 45, 76
12, 28661, Note_off_c, 3, 45, 64
12, 28769, Note_on_c, 3, 50, 66
12, 28899, Note_off_c, 3, 50, 64
12, 29006, Note_on_c, 3, 48, 64
12, 29129, Note_off_c, 3, 48, 64
12, 29261, Note_on_c, 3, 46, 59
12, 29385, Note_off_c, 3, 46, 64
12, 29497, Note_on_c, 3, 45, 80
12, 29616, Note_off_c, 3, 45, 64
12, 29744, Note_on_c, 3, 49, 63
12, 29850, Note_off_c, 3, 49, 64
12, 29991, Note_on_c, 3, 52, 78
12, 30094, Note_off_c, 3, 52, 64
12, 30233, Note_on_c, 3, 55, 78
12, 30718, Note_off_c, 3, 55, 64
12, 30963, Note_on_c, 3, 55, 70
12, 31073, Note_off_c, 3, 55, 64
12, 31191, Note_on_c, 3, 52, 72
12, 31287, Note_off_c, 3, 52, 64
12, 31427, Note_on_c, 3, 49, 70
12, 31529, Note_off_c, 3, 49, 64
12, 31678, Note_on_c, 3, 45, 66
12, 32161, Note_off_c, 3, 45, 64
12, 32391, Note_on_c, 3, 46, 64
12, 32495, Note_off_c, 3, 46, 64
12, 32627, Note_on_c, 3, 58, 78
12, 32720, Note_off_c, 3, 58, 64
12, 32866, Note_on_c, 3, 57, 78
12, 32970, Note_off_c, 3, 57, 64
12, 33109, Note_on_c, 3, 55, 72
12, 33222, Note_off_c, 3, 55, 64
12, 33345, Note_on_c, 3, 49, 66
12, 33449, Note_off_c, 3, 49, 64
12, 33584, Note_on_c, 3, 50, 80
12, 33699, Note_off_c, 3, 50, 64
12, 33816, Note_on_c, 3, 46, 63
12, 33919, Note_off_c, 3, 46, 64
12, 34067, Note_on_c, 3, 43, 80
12, 34175, Note_off_c, 3, 43, 64
12, 34305, Note_on_c, 3, 45, 78
12, 34409, Note_off_c, 3, 45, 64
12, 34546, Note_on_c, 3, 50, 76
12, 34653, Note_off_c, 3, 50, 64
12, 34795, Note_on_c, 3, 38, 64
12, 34899, Note_off_c, 3, 38, 64
12, 35032, Note_on_c, 3, 50, 76
12, 35154, Note_off_c, 3, 50, 64
12, 35270, Note_on_c, 3, 52, 72
12, 35383, Note_off_c, 3, 52, 64
12, 35492, Note_on_c, 3, 54, 61
12, 35608, Note_off_c, 3, 54, 64
12, 35745, Note_on_c, 3, 50, 74
12, 35833, Note_off_c, 3, 50, 64
12, 35977, Note_on_c, 3, 55, 82
12, 36122, Note_off_c, 3, 55, 64
12, 36219, Note_on_c, 3, 43, 57
12, 36328, Note_off_c, 3, 43, 64
12, 36451, Note_on_c, 3, 45, 80
12, 36575, Note_off_c, 3, 45, 64
12, 36700, Note_on_c, 3, 47, 78
12, 36813, Note_off_c, 3, 47, 64
12, 36947, Note_on_c, 3, 43, 70
12, 37057, Note_off_c, 3, 43, 64
12, 37185, Note_on_c, 3, 48, 76
12, 37292, Note_off_c, 3, 48, 64
12, 37436, Note_on_c, 3, 43, 72
12, 37738, Note_off_c, 3, 43, 64
12, 37907, Note_on_c, 3, 55, 70
12, 38048, Note_off_c, 3, 55, 64
12, 38162, Note_on_c, 3, 57, 80
12, 38240, Note_off_c, 3, 57, 64
12, 38269, Note_on_c, 3, 55, 74
12, 38344, Note_off_c, 3, 55, 64
12, 38380, Note_on_c, 3, 53, 68
12, 38472, Note_off_c, 3, 53, 64
12, 38488, Note_on_c, 3, 52, 64
12, 38579, Note_off_c, 3, 52, 64
12, 38607, Note_on_c, 3, 53, 76
12, 38698, Note_off_c, 3, 53, 64
12, 38724, Note_on_c, 3, 50, 68
12, 38819, Note_off_c, 3, 50, 64
12, 38867, Note_on_c, 3, 52, 80
12, 38996, Note_off_c, 3, 52, 64
12, 39118, Note_on_c, 3, 50, 66
12, 39226, Note_off_c, 3, 50, 64
12, 39345, Note_on_c, 3, 48, 66
12, 39454, Note_off_c, 3, 48, 64
12, 39593, Note_on_c, 3, 53, 80
12, 39697, Note_off_c, 3, 53, 64
12, 39834, Note_on_c, 3, 50, 80
12, 39936, Note_off_c, 3, 50, 64
12, 40072, Note_on_c, 3, 55, 78
12, 40168, Note_off_c, 3, 55, 64
12, 40323, Note_on_c, 3, 48, 68
12, 40736, Note_off_c, 3, 48, 64
12, 52540, Note_on_c, 3, 43, 51
12, 52755, Note_off_c, 3, 43, 64
12, 52776, Note_on_c, 3, 43, 68
12, 52979, Note_off_c, 3, 43, 64
12, 53009, Note_on_c, 3, 43, 70
12, 53230, Note_off_c, 3, 43, 64
12, 53257, Note_on_c, 3, 55, 57
12, 53465, Note_off_c, 3, 55, 64
12, 53498, Note_on_c, 3, 55, 59
12, 53698, Note_off_c, 3, 55, 64
12, 53736, Note_on_c, 3, 55, 64
12, 53950, Note_off_c, 3, 55, 64
12, 53971, Note_on_c, 3, 49, 57
12, 54185, Note_off_c, 3, 49, 64
12, 54214, Note_on_c, 3, 49, 56
12, 54425, Note_off_c, 3, 49, 64
12, 54464, Note_on_c, 3, 49, 60
12, 54649, Note_off_c, 3, 49, 64
12, 54717, Note_on_c, 3, 50, 64
12, 54923, Note_off_c, 3, 50, 64
12, 54941, Note_on_c, 3, 48, 53
12, 55148, Note_off_c, 3, 48, 64
12, 55176, Note_on_c, 3, 46, 55
12, 55375, Note_off_c, 3, 46, 64
12, 55423, Note_on_c, 3, 45, 59
12, 55625, Note_off_c, 3, 45, 64
12, 55651, Note_on_c, 3, 45, 57
12, 55865, Note_off_c, 3, 45, 64
12, 55897, Note_on_c, 3, 45, 53
12, 56113, Note_off_c, 3, 45, 64
12, 56145, Note_on_c, 3, 55, 60
12, 56343, Note_off_c, 3, 55, 64
12, 56377, Note_on_c, 3, 55, 57
12, 56582, Note_off_c, 3, 55, 64
12, 56627, Note_on_c, 3, 55, 53
12, 56805, Note_off_c, 3, 55, 64
12, 56859, Note_on_c, 3, 52, 40
12, 57056, Note_off_c, 3, 52, 64
12, 57091, Note_on_c, 3, 52, 53
12, 57285, Note_off_c, 3, 52, 64
12, 57322, Note_on_c, 3, 52, 59
12, 57540, Note_off_c, 3, 52, 64
12, 57573, Note_on_c, 3, 49, 58
12, 57784, Note_off_c, 3, 49, 64
12, 57812, Note_on_c, 3, 47, 57
12, 58021, Note_off_c, 3, 47, 64
12, 58058, Note_on_c, 3, 45, 47
12, 58262, Note_off_c, 3, 45, 64
12, 58311, Note_on_c, 3, 50, 64
12, 58506, Note_off_c, 3, 50, 64
12, 58535, Note_on_c, 3, 52, 58
12, 58756, Note_off_c, 3, 52, 64
12, 58780, Note_on_c, 3, 53, 63
12, 58983, Note_off_c, 3, 53, 64
12, 59013, Note_on_c, 3, 55, 66
12, 59214, Note_off_c, 3, 55, 64
12, 59251, Note_on_c, 3, 55, 57
12, 59455, Note_off_c, 3, 55, 64
12, 59494, Note_on_c, 3, 55, 59
12, 59694, Note_off_c, 3, 55, 64
12, 59727, Note_on_c, 3, 57, 59
12, 59937, Note_off_c, 3, 57, 64
12, 59982, Note_on_c, 3, 57, 66
12, 60192, Note_off_c, 3, 57, 64
12, 60224, Note_on_c, 3, 57, 68
12, 60420, Note_off_c, 3, 57, 64
12, 60459, Note_on_c, 3, 50, 62
12, 60672, Note_off_c, 3, 50, 64
12, 60688, Note_on_c, 3, 53, 53
12, 60903, Note_off_c, 3, 53, 64
12, 60940, Note_on_c, 3, 57, 64
12, 61140, Note_off_c, 3, 57, 64
12, 61182, Note_on_c, 3, 54, 52
12, 61614, Note_off_c, 3, 54, 64
12, 61651, Note_on_c, 3, 54, 58
12, 61841, Note_off_c, 3, 54, 64
12, 61896, Note_on_c, 3, 53, 58
12, 62111, Note_off_c, 3, 53, 64
12, 62143, Note_on_c, 3, 53, 57
12, 62351, Note_off_c, 3, 53, 64
12, 62377, Note_on_c, 3, 53, 56
12, 62573, Note_off_c, 3, 53, 64
12, 62609, Note_on_c, 3, 47, 60
12, 62815, Note_off_c, 3, 47, 64
12, 62860, Note_on_c, 3, 47, 53
12, 63068, Note_off_c, 3, 47, 64
12, 63092, Note_on_c, 3, 48, 62
12, 63297, Note_off_c, 3, 48, 64
12, 63353, Note_on_c, 3, 55, 68
12, 63562, Note_off_c, 3, 55, 64
12, 63588, Note_on_c, 3, 53, 45
12, 63788, Note_off_c, 3, 53, 64
12, 63823, Note_on_c, 3, 52, 54
12, 64008, Note_off_c, 3, 52, 64
12, 64058, Note_on_c, 3, 50, 62
12, 64281, Note_off_c, 3, 50, 64
12, 64296, Note_on_c, 3, 48, 59
12, 64512, Note_off_c, 3, 48, 64
12, 64541, Note_on_c, 3, 46, 53
12, 64743, Note_off_c, 3, 46, 64
12, 64787, Note_on_c, 3, 40, 58
12, 65005, Note_off_c, 3, 40, 64
12, 65036, Note_on_c, 3, 40, 57
12, 65215, Note_off_c, 3, 40, 64
12, 65255, Note_on_c, 3, 40, 59
12, 65460, Note_off_c, 3, 40, 64
12, 65500, Note_on_c, 3, 41, 72
12, 65695, Note_off_c, 3, 41, 64
12, 65744, Note_on_c, 3, 38, 57
12, 65911, Note_off_c, 3, 38, 64
12, 65995, Note_on_c, 3, 43, 80
12, 66120, Note_off_c, 3, 43, 64
12, 66240, Note_on_c, 3, 36, 63
12, 66698, Note_off_c, 3, 36, 64
12, 66931, Note_on_c, 3, 43, 59
12, 67148, Note_off_c, 3, 43, 64
12, 67179, Note_on_c, 3, 43, 57
12, 67361, Note_off_c, 3, 43, 64
12, 67407, Note_on_c, 3, 43, 58
12, 67625, Note_off_c, 3, 43, 64
12, 67650, Note_on_c, 3, 55, 57
12, 67862, Note_off_c, 3, 55, 64
12, 67899, Note_on_c, 3, 55, 61
12, 68086, Note_off_c, 3, 55, 64
12, 68123, Note_on_c, 3, 55, 68
12, 68339, Note_off_c, 3, 55, 64
12, 68371, Note_on_c, 3, 49, 57
12, 68582, Note_off_c, 3, 49, 64
12, 68618, Note_on_c, 3, 49, 52
12, 68812, Note_off_c, 3, 49, 64
12, 68864, Note_on_c, 3, 49, 57
12, 69060, Note_off_c, 3, 49, 64
12, 69120, Note_on_c, 3, 50, 68
12, 69304, Note_off_c, 3, 50, 64
12, 69340, Note_on_c, 3, 48, 58
12, 69561, Note_off_c, 3, 48, 64
12, 69585, Note_on_c, 3, 46, 57
12, 69783, Note_off_c, 3, 46, 64
12, 69824, Note_on_c, 3, 45, 59
12, 70030, Note_off_c, 3, 45, 64
12, 70063, Note_on_c, 3, 45, 57
12, 70254, Note_off_c, 3, 45, 64
12, 70295, Note_on_c, 3, 45, 59
12, 70518, Note_off_c, 3, 45, 64
12, 70549, Note_on_c, 3, 55, 68
12, 70723, Note_off_c, 3, 55, 64
12, 70773, Note_on_c, 3, 55, 54
12, 70975, Note_off_c, 3, 55, 64
12, 71021, Note_on_c, 3, 55, 60
12, 71211, Note_off_c, 3, 55, 64
12, 71253, Note_on_c, 3, 52, 59
12, 71478, Note_off_c, 3, 52, 64
12, 71511, Note_on_c, 3, 52, 49
12, 71698, Note_off_c, 3, 52, 64
12, 71738, Note_on_c, 3, 52, 62
12, 71933, Note_off_c, 3, 52, 64
12, 71977, Note_on_c, 3, 49, 57
12, 72192, Note_off_c, 3, 49, 64
12, 72219, Note_on_c, 3, 47, 51
12, 72423, Note_off_c, 3, 47, 64
12, 72451, Note_on_c, 3, 45, 57
12, 72628, Note_off_c, 3, 45, 64
12, 72695, Note_on_c, 3, 50, 66
12, 72913, Note_off_c, 3, 50, 64
12, 72938, Note_on_c, 3, 52, 60
12, 73142, Note_off_c, 3, 52, 64
12, 73175, Note_on_c, 3, 53, 57
12, 73377, Note_off_c, 3, 53, 64
12, 73408, Note_on_c, 3, 55, 61
12, 73619, Note_off_c, 3, 55, 64
12, 73649, Note_on_c, 3, 55, 58
12, 73855, Note_off_c, 3, 55, 64
12, 73901, Note_on_c, 3, 55, 57
12, 74109, Note_off_c, 3, 55, 64
12, 74147, Note_on_c, 3, 57, 58
12, 74340, Note_off_c, 3, 57, 64
12, 74383, Note_on_c, 3, 57, 53
12, 74577, Note_off_c, 3, 57, 64
12, 74618, Note_on_c, 3, 57, 63
12, 74811, Note_off_c, 3, 57, 64
12, 74858, Note_on_c, 3, 50, 61
12, 75067, Note_off_c, 3, 50, 64
12, 75103, Note_on_c, 3, 53, 59
12, 75305, Note_off_c, 3, 53, 64
12, 75344, Note_on_c, 3, 57, 64
12, 75540, Note_off_c, 3, 57, 64
12, 75579, Note_on_c, 3, 54, 49
12, 75782, Note_off_c, 3, 54, 64
12, 75818, Note_on_c, 3, 54, 57
12, 76028, Note_off_c, 3, 54, 64
12, 76066, Note_on_c, 3, 54, 57
12, 76258, Note_off_c, 3, 54, 64
12, 76302, Note_on_c, 3, 53, 59
12, 76498, Note_off_c, 3, 53, 64
12, 76540, Note_on_c, 3, 53, 59
12, 76736, Note_off_c, 3, 53, 64
12, 76775, Note_on_c, 3, 53, 57
12, 76977, Note_off_c, 3, 53, 64
12, 77023, Note_on_c, 3, 47, 60
12, 77213, Note_off_c, 3, 47, 64
12, 77245, Note_on_c, 3, 47, 66
12, 77460, Note_off_c, 3, 47, 64
12, 77492, Note_on_c, 3, 48, 53
12, 77690, Note_off_c, 3, 48, 64
12, 77733, Note_on_c, 3, 55, 64
12, 77975, Note_off_c, 3, 55, 64
12, 77988, Note_on_c, 3, 53, 58
12, 78185, Note_off_c, 3, 53, 64
12, 78218, Note_on_c, 3, 52, 58
12, 78420, Note_off_c, 3, 52, 64
12, 78455, Note_on_c, 3, 50, 60
12, 78677, Note_off_c, 3, 50, 64
12, 78693, Note_on_c, 3, 48, 62
12, 78912, Note_off_c, 3, 48, 64
12, 78935, Note_on_c, 3, 46, 52
12, 79152, Note_off_c, 3, 46, 64
12, 79188, Note_on_c, 3, 40, 68
12, 79405, Note_off_c, 3, 40, 64
12, 79432, Note_on_c, 3, 40, 61
12, 79616, Note_off_c, 3, 40, 64
12, 79662, Note_on_c, 3, 40, 59
12, 79860, Note_off_c, 3, 40, 64
12, 79897, Note_on_c, 3, 41, 68
12, 80082, Note_off_c, 3, 41, 64
12, 80133, Note_on_c, 3, 38, 59
12, 80300, Note_off_c, 3, 38, 64
12, 80385, Note_on_c, 3, 43, 66
12, 80488, Note_off_c, 3, 43, 64
12, 80622, Note_on_c, 3, 36, 59
12, 81072, Note_off_c, 3, 36, 64
12, 92645, Note_on_c, 3, 43, 76
12, 92749, Note_off_c, 3, 43, 64
12, 92880, Note_on_c, 3, 55, 68
12, 92993, Note_off_c, 3, 55, 64
12, 93115, Note_on_c, 3, 57, 70
12, 93236, Note_off_c, 3, 57, 64
12, 93347, Note_on_c, 3, 59, 64
12, 93458, Note_off_c, 3, 59, 64
12, 93583, Note_on_c, 3, 60, 68
12, 93694, Note_off_c, 3, 60, 64
12, 93824, Note_on_c, 3, 48, 63
12, 93926, Note_off_c, 3, 48, 64
12, 94069, Note_on_c, 3, 50, 78
12, 94185, Note_off_c, 3, 50, 64
12, 94300, Note_on_c, 3, 52, 72
12, 94408, Note_off_c, 3, 52, 64
12, 94535, Note_on_c, 3, 49, 66
12, 94639, Note_off_c, 3, 49, 64
12, 94798, Note_on_c, 3, 45, 64
12, 94903, Note_off_c, 3, 45, 64
12, 95026, Note_on_c, 3, 50, 76
12, 95147, Note_off_c, 3, 50, 64
12, 95265, Note_on_c, 3, 48, 68
12, 95364, Note_off_c, 3, 48, 64
12, 95508, Note_on_c, 3, 46, 63
12, 95609, Note_off_c, 3, 46, 64
12, 95744, Note_on_c, 3, 45, 66
12, 95851, Note_off_c, 3, 45, 64
12, 95971, Note_on_c, 3, 49, 62
12, 96073, Note_off_c, 3, 49, 64
12, 96225, Note_on_c, 3, 52, 70
12, 96326, Note_off_c, 3, 52, 64
12, 96465, Note_on_c, 3, 55, 72
12, 96951, Note_off_c, 3, 55, 64
12, 97186, Note_on_c, 3, 55, 70
12, 97295, Note_off_c, 3, 55, 64
12, 97429, Note_on_c, 3, 52, 74
12, 97530, Note_off_c, 3, 52, 64
12, 97675, Note_on_c, 3, 49, 66
12, 97769, Note_off_c, 3, 49, 64
12, 97913, Note_on_c, 3, 45, 66
12, 98403, Note_off_c, 3, 45, 64
12, 98638, Note_on_c, 3, 46, 59
12, 98752, Note_off_c, 3, 46, 64
12, 98865, Note_on_c, 3, 58, 80
12, 98983, Note_off_c, 3, 58, 64
12, 99107, Note_on_c, 3, 57, 80
12, 99206, Note_off_c, 3, 57, 64
12, 99357, Note_on_c, 3, 55, 80
12, 99460, Note_off_c, 3, 55, 64
12, 99587, Note_on_c, 3, 49, 68
12, 99695, Note_off_c, 3, 49, 64
12, 99831, Note_on_c, 3, 50, 82
12, 99946, Note_off_c, 3, 50, 64
12, 100067, Note_on_c, 3, 46, 68
12, 100174, Note_off_c, 3, 46, 64
12, 100302, Note_on_c, 3, 43, 78
12, 100416, Note_off_c, 3, 43, 64
12, 100562, Note_on_c, 3, 45, 82
12, 100648, Note_off_c, 3, 45, 64
12, 100789, Note_on_c, 3, 50, 76
12, 100885, Note_off_c, 3, 50, 64
12, 101027, Note_on_c, 3, 38, 80
12, 101117, Note_off_c, 3, 38, 64
12, 101262, Note_on_c, 3, 50, 76
12, 101379, Note_off_c, 3, 50, 64
12, 101514, Note_on_c, 3, 52, 78
12, 101623, Note_off_c, 3, 52, 64
12, 101747, Note_on_c, 3, 54, 68
12, 101846, Note_off_c, 3, 54, 64
12, 101984, Note_on_c, 3, 50, 74
12, 102074, Note_off_c, 3, 50, 64
12, 102224, Note_on_c, 3, 55, 85
12, 102324, Note_off_c, 3, 55, 64
12, 102479, Note_on_c, 3, 43, 82
12, 102566, Note_off_c, 3, 43, 64
12, 102711, Note_on_c, 3, 45, 70
12, 102815, Note_off_c, 3, 45, 64
12, 102941, Note_on_c, 3, 47, 78
12, 103053, Note_off_c, 3, 47, 64
12, 103178, Note_on_c, 3, 43, 61
12, 103276, Note_off_c, 3, 43, 64
12, 103420, Note_on_c, 3, 48, 70
12, 103522, Note_off_c, 3, 48, 64
12, 103665, Note_on_c, 3, 43, 72
12, 104009, Note_off_c, 3, 43, 64
12, 104146, Note_on_c, 3, 55, 70
12, 104277, Note_off_c, 3, 55, 64
12, 104386, Note_on_c, 3, 57, 78
12, 104469, Note_off_c, 3, 57, 64
12, 104493, Note_on_c, 3, 55, 70
12, 104576, Note_off_c, 3, 55, 64
12, 104611, Note_on_c, 3, 53, 64
12, 104706, Note_off_c, 3, 53, 64
12, 104720, Note_on_c, 3, 52, 64
12, 104810, Note_off_c, 3, 52, 64
12, 104847, Note_on_c, 3, 53, 78
12, 104929, Note_off_c, 3, 53, 64
12, 104967, Note_on_c, 3, 50, 68
12, 105047, Note_off_c, 3, 50, 64
12, 105107, Note_on_c, 3, 52, 82
12, 105232, Note_off_c, 3, 52, 64
12, 105355, Note_on_c, 3, 50, 66
12, 105461, Note_off_c, 3, 50, 64
12, 105590, Note_on_c, 3, 48, 70
12, 105695, Note_off_c, 3, 48, 64
12, 105825, Note_on_c, 3, 53, 76
12, 105944, Note_off_c, 3, 53, 64
12, 106063, Note_on_c, 3, 50, 68
12, 106164, Note_off_c, 3, 50, 64
12, 106305, Note_on_c, 3, 55, 82
12, 106408, Note_off_c, 3, 55, 64
12, 106565, Note_on_c, 3, 48, 72
12, 106876, Note_off_c, 3, 48, 64
12, 107031, Note_on_c, 3, 43, 80
12, 107152, Note_off_c, 3, 43, 64
12, 107260, Note_on_c, 3, 55, 72
12, 107386, Note_off_c, 3, 55, 64
12, 107505, Note_on_c, 3, 57, 80
12, 107606, Note_off_c, 3, 57, 64
12, 107740, Note_on_c, 3, 59, 82
12, 107850, Note_off_c, 3, 59, 64
12, 107982, Note_on_c, 3, 60, 80
12, 108109, Note_off_c, 3, 60, 64
12, 108227, Note_on_c, 3, 48, 64
12, 108317, Note_off_c, 3, 48, 64
12, 108464, Note_on_c, 3, 50, 76
12, 108569, Note_off_c, 3, 50, 64
12, 108697, Note_on_c, 3, 52, 80
12, 108809, Note_off_c, 3, 52, 64
12, 108936, Note_on_c, 3, 49, 70
12, 109039, Note_off_c, 3, 49, 64
12, 109176, Note_on_c, 3, 45, 76
12, 109301, Note_off_c, 3, 45, 64
12, 109409, Note_on_c, 3, 50, 66
12, 109539, Note_off_c, 3, 50, 64
12, 109646, Note_on_c, 3, 48, 64
12, 109769, Note_off_c, 3, 48, 64
12, 109901, Note_on_c, 3, 46, 59
12, 110025, Note_off_c, 3, 46, 64
12, 110137, Note_on_c, 3, 45, 80
12, 110256, Note_off_c, 3, 45, 64
12, 110384, Note_on_c, 3, 49, 63
12, 110490, Note_off_c, 3, 49, 64
12, 110631, Note_on_c, 3, 52, 78
12, 110734, Note_off_c, 3, 52, 64
12, 110873, Note_on_c, 3, 55, 78
12, 111358, Note_off_c, 3, 55, 64
12, 111603, Note_on_c, 3, 55, 70
12, 111713, Note_off_c, 3, 55, 64
12, 111831, Note_on_c, 3, 52, 72
12, 111927, Note_off_c, 3, 52, 64
12, 112067, Note_on_c, 3, 49, 70
12, 112169, Note_off_c, 3, 49, 64
12, 112318, Note_on_c, 3, 45, 66
12, 112801, Note_off_c, 3, 45, 64
12, 113031, Note_on_c, 3, 46, 64
12, 113135, Note_off_c, 3, 46, 64
12, 113267, Note_on_c, 3, 58, 78
12, 113360, Note_off_c, 3, 58, 64
12, 113506, Note_on_c, 3, 57, 78
12, 113610, Note_off_c, 3, 57, 64
12, 113749, Note_on_c, 3, 55, 72
12, 113862, Note_off_c, 3, 55, 64
12, 113985, Note_on_c, 3, 49, 66
12, 114089, Note_off_c, 3, 49, 64
12, 114224, Note_on_c, 3, 50, 80
12, 114339, Note_off_c, 3, 50, 64
12, 114456, Note_on_c, 3, 46, 63
12, 114559, Note_off_c, 3, 46, 64
12, 114707, Note_on_c, 3, 43, 80
12, 114815, Note_off_c, 3, 43, 64
12, 114945, Note_on_c, 3, 45, 78
12, 115049, Note_off_c, 3, 45, 64
12, 115186, Note_on_c, 3, 50, 76
12, 115293, Note_off_c, 3, 50, 64
12, 115435, Note_on_c, 3, 38, 64
12, 115539, Note_off_c, 3, 38, 64
12, 115672, Note_on_c, 3, 50, 76
12, 115794, Note_off_c, 3, 50, 64
12, 115910, Note_on_c, 3, 52, 72
12, 116023, Note_off_c, 3, 52, 64
12, 116132, Note_on_c, 3, 54, 61
12, 116248, Note_off_c, 3, 54, 64
12, 116385, Note_on_c, 3, 50, 74
12, 116473, Note_off_c, 3, 50, 64
12, 116617, Note_on_c, 3, 55, 82
12, 116762, Note_off_c, 3, 55, 64
12, 116859, Note_on_c, 3, 43, 57
12, 116968, Note_off_c, 3, 43, 64
12, 117091, Note_on_c, 3, 45, 80
12, 117215, Note_off_c, 3, 45, 64
12, 117340, Note_on_c, 3, 47, 78
12, 117453, Note_off_c, 3, 47, 64
12, 117587, Note_on_c, 3, 43, 70
12, 117697, Note_off_c, 3, 43, 64
12, 117825, Note_on_c, 3, 48, 76
12, 117932, Note_off_c, 3, 48, 64
12, 118076, Note_on_c, 3, 43, 72
12, 118378, Note_off_c, 3, 43, 64
12, 118547, Note_on_c, 3, 55, 70
12, 118688, Note_off_c, 3, 55, 64
12, 118802, Note_on_c, 3, 57, 80
12, 118880, Note_off_c, 3, 57, 64
12, 118909, Note_on_c, 3, 55, 74
12, 118984, Note_off_c, 3, 55, 64
12, 119020, Note_on_c, 3, 53, 68
12, 119112, Note_off_c, 3, 53, 64
12, 119128, Note_on_c, 3, 52, 64
12, 119219, Note_off_c, 3, 52, 64
12, 119247, Note_on_c, 3, 53, 76
12, 119338, Note_off_c, 3, 53, 64
12, 119364, Note_on_c, 3, 50, 68
12, 119459, Note_off_c, 3, 50, 64
12, 119507, Note_on_c, 3, 52, 80
12, 119636, Note_off_c, 3, 52, 64
12, 119758, Note_on_c, 3, 50, 66
12, 119866, Note_off_c, 3, 50, 64
12, 119985, Note_on_c, 3, 48, 66
12, 120094, Note_off_c, 3, 48, 64
12, 120233, Note_on_c, 3, 53, 80
12, 120337, Note_off_c, 3, 53, 64
12, 120474, Note_on_c, 3, 50, 80
12, 120576, Note_off_c, 3, 50, 64
12, 120712, Note_on_c, 3, 55, 78
12, 120808, Note_off_c, 3, 55, 64
12, 120963, Note_on_c, 3, 48, 68
12, 121376, Note_off_c, 3, 48, 64
12, 121376, End_track
13, 0, Start_track
13, 0, Title_t, "Oboe1"
13, 0, Program_c, 4, 68
13, 0, Control_c, 4, 7, 100
13, 11999, Note_on_c, 4, 74, 76
13, 12117, Note_off_c, 4, 74, 64
13, 12236, Note_on_c, 4, 71, 70
13, 12421, Note_off_c, 4, 71, 64
13, 12473, Note_on_c, 4, 72, 78
13, 12582, Note_on_c, 4, 71, 70
13, 12603, Note_off_c, 4, 72, 64
13, 12700, Note_on_c, 4, 69, 59
13, 12704, Note_off_c, 4, 71, 64
13, 12806, Note_on_c, 4, 67, 68
13, 12810, Note_off_c, 4, 69, 64
13, 12861, Note_off_c, 4, 67, 64
13, 12956, Note_on_c, 4, 76, 78
13, 13063, Note_on_c, 4, 77, 70
13, 13083, Note_off_c, 4, 76, 64
13, 13176, Note_on_c, 4, 79, 66
13, 13180, Note_off_c, 4, 77, 64
13, 13293, Note_on_c, 4, 81, 70
13, 13297, Note_off_c, 4, 79, 64
13, 13372, Note_off_c, 4, 81, 64
13, 13420, Note_on_c, 4, 82, 72
13, 13842, Note_off_c, 4, 82, 64
13, 13923, Note_on_c, 4, 81, 70
13, 14030, Note_off_c, 4, 81, 64
13, 14158, Note_on_c, 4, 79, 66
13, 14263, Note_off_c, 4, 79, 64
13, 14391, Note_on_c, 4, 77, 68
13, 14544, Note_off_c, 4, 77, 64
13, 14626, Note_on_c, 4, 79, 80
13, 14736, Note_on_c, 4, 77, 70
13, 14765, Note_off_c, 4, 79, 64
13, 14867, Note_on_c, 4, 76, 64
13, 14880, Note_off_c, 4, 77, 64
13, 14981, Note_on_c, 4, 74, 68
13, 14983, Note_off_c, 4, 76, 64
13, 15063, Note_off_c, 4, 74, 64
13, 15109, Note_on_c, 4, 73, 61
13, 15195, Note_off_c, 4, 73, 64
13, 15219, Note_on_c, 4, 74, 70
13, 15298, Note_off_c, 4, 74, 64
13, 15344, Note_on_c, 4, 76, 64
13, 15475, Note_off_c, 4, 76, 64
13, 15585, Note_on_c, 4, 81, 76
13, 15987, Note_off_c, 4, 81, 64
13, 16068, Note_on_c, 4, 79, 82
13, 16177, Note_on_c, 4, 77, 68
13, 16201, Note_off_c, 4, 79, 64
13, 16307, Note_on_c, 4, 76, 66
13, 16315, Note_off_c, 4, 77, 64
13, 16427, Note_on_c, 4, 74, 61
13, 16428, Note_off_c, 4, 76, 64
13, 16519, Note_off_c, 4, 74, 64
13, 16547, Note_on_c, 4, 73, 76
13, 16660, Note_on_c, 4, 74, 70
13, 16683, Note_off_c, 4, 73, 64
13, 16784, Note_on_c, 4, 76, 70
13, 16795, Note_off_c, 4, 74, 64
13, 16893, Note_on_c, 4, 77, 70
13, 16914, Note_off_c, 4, 76, 64
13, 16982, Note_off_c, 4, 77, 64
13, 17021, Note_on_c, 4, 79, 72
13, 17443, Note_off_c, 4, 79, 64
13, 17518, Note_on_c, 4, 77, 82
13, 17633, Note_on_c, 4, 76, 63
13, 17653, Note_off_c, 4, 77, 64
13, 17755, Note_on_c, 4, 74, 63
13, 17761, Note_off_c, 4, 76, 64
13, 17868, Note_on_c, 4, 73, 57
13, 17892, Note_off_c, 4, 74, 64
13, 17957, Note_off_c, 4, 73, 64
13, 17988, Note_on_c, 4, 74, 82
13, 18060, Note_off_c, 4, 74, 64
13, 18107, Note_on_c, 4, 69, 70
13, 18176, Note_off_c, 4, 69, 64
13, 18231, Note_on_c, 4, 77, 82
13, 18345, Note_on_c, 4, 76, 70
13, 18375, Note_off_c, 4, 77, 64
13, 18457, Note_on_c, 4, 74, 63
13, 18466, Note_off_c, 4, 76, 64
13, 18572, Note_on_c, 4, 72, 66
13, 18589, Note_off_c, 4, 74, 64
13, 18647, Note_off_c, 4, 72, 64
13, 18700, Note_on_c, 4, 70, 56
13, 18820, Note_on_c, 4, 74, 70
13, 18830, Note_off_c, 4, 70, 64
13, 18902, Note_off_c, 4, 74, 64
13, 18944, Note_on_c, 4, 79, 80
13, 19002, Note_off_c, 4, 79, 64
13, 19060, Note_on_c, 4, 76, 66
13, 19119, Note_off_c, 4, 76, 64
13, 19184, Note_on_c, 4, 77, 80
13, 19508, Note_off_c, 4, 77, 64
13, 19555, Note_on_c, 4, 74, 72
13, 19604, Note_off_c, 4, 74, 64
13, 19674, Note_on_c, 4, 77, 80
13, 19781, Note_off_c, 4, 77, 64
13, 19795, Note_on_c, 4, 76, 64
13, 19870, Note_off_c, 4, 76, 64
13, 19910, Note_on_c, 4, 74, 82
13, 20018, Note_on_c, 4, 73, 58
13, 20032, Note_off_c, 4, 74, 64
13, 20112, Note_off_c, 4, 73, 64
13, 20162, Note_on_c, 4, 74, 80
13, 20488, Note_off_c, 4, 74, 64
13, 20631, Note_on_c, 4, 69, 76
13, 20708, Note_off_c, 4, 69, 64
13, 20743, Note_on_c, 4, 71, 76
13, 20813, Note_off_c, 4, 71, 64
13, 20872, Note_on_c, 4, 72, 76
13, 21039, Note_off_c, 4, 72, 64
13, 21110, Note_on_c, 4, 74, 80
13, 21229, Note_on_c, 4, 72, 68
13, 21259, Note_off_c, 4, 74, 64
13, 21349, Note_on_c, 4, 71, 60
13, 21373, Note_off_c, 4, 72, 64
13, 21469, Note_on_c, 4, 69, 66
13, 21472, Note_off_c, 4, 71, 64
13, 21552, Note_off_c, 4, 69, 64
13, 21592, Note_on_c, 4, 71, 74
13, 21688, Note_off_c, 4, 71, 64
13, 21711, Note_on_c, 4, 69, 68
13, 21793, Note_off_c, 4, 69, 64
13, 21827, Note_on_c, 4, 67, 68
13, 21919, Note_off_c, 4, 67, 64
13, 21939, Note_on_c, 4, 69, 66
13, 22037, Note_off_c, 4, 69, 64
13, 22066, Note_on_c, 4, 71, 72
13, 22150, Note_off_c, 4, 71, 64
13, 22175, Note_on_c, 4, 72, 62
13, 22268, Note_off_c, 4, 72, 64
13, 22303, Note_on_c, 4, 74, 80
13, 22416, Note_on_c, 4, 76, 78
13, 22420, Note_off_c, 4, 74, 64
13, 22512, Note_off_c, 4, 76, 64
13, 22540, Note_on_c, 4, 77, 82
13, 22668, Note_off_c, 4, 77, 64
13, 22787, Note_on_c, 4, 76, 72
13, 22911, Note_off_c, 4, 76, 64
13, 23027, Note_on_c, 4, 74, 80
13, 23134, Note_off_c, 4, 74, 64
13, 23143, Note_on_c, 4, 72, 64
13, 23231, Note_off_c, 4, 72, 64
13, 23267, Note_on_c, 4, 71, 68
13, 23360, Note_off_c, 4, 71, 64
13, 23381, Note_on_c, 4, 72, 70
13, 23476, Note_off_c, 4, 72, 64
13, 23501, Note_on_c, 4, 74, 78
13, 23589, Note_off_c, 4, 74, 64
13, 23614, Note_on_c, 4, 76, 68
13, 23697, Note_off_c, 4, 76, 64
13, 23747, Note_on_c, 4, 77, 78
13, 23833, Note_off_c, 4, 77, 64
13, 23862, Note_on_c, 4, 79, 80
13, 23939, Note_off_c, 4, 79, 64
13, 23982, Note_on_c, 4, 81, 76
13, 24097, Note_off_c, 4, 81, 64
13, 24226, Note_on_c, 4, 79, 82
13, 24578, Note_off_c, 4, 79, 64
13, 24711, Note_on_c, 4, 70, 72
13, 24810, Note_off_c, 4, 70, 64
13, 24818, Note_on_c, 4, 69, 68
13, 24896, Note_off_c, 4, 69, 64
13, 24939, Note_on_c, 4, 70, 68
13, 25033, Note_off_c, 4, 70, 64
13, 25050, Note_on_c, 4, 67, 66
13, 25132, Note_off_c, 4, 67, 64
13, 25184, Note_on_c, 4, 69, 85
13, 25281, Note_off_c, 4, 69, 64
13, 25428, Note_on_c, 4, 74, 85
13, 25524, Note_off_c, 4, 74, 64
13, 25669, Note_on_c, 4, 71, 82
13, 25768, Note_off_c, 4, 71, 64
13, 25911, Note_on_c, 4, 72, 80
13, 26240, Note_off_c, 4, 72, 64
13, 26391, Note_on_c, 4, 74, 85
13, 26480, Note_off_c, 4, 74, 64
13, 26630, Note_on_c, 4, 71, 82
13, 26814, Note_off_c, 4, 71, 64
13, 26864, Note_on_c, 4, 72, 78
13, 26980, Note_on_c, 4, 71, 72
13, 27008, Note_off_c, 4, 72, 64
13, 27099, Note_off_c, 4, 71, 64
13, 27099, Note_on_c, 4, 69, 62
13, 27207, Note_off_c, 4, 69, 64
13, 27214, Note_on_c, 4, 67, 72
13, 27289, Note_off_c, 4, 67, 64
13, 27351, Note_on_c, 4, 76, 51
13, 27453, Note_on_c, 4, 77, 64
13, 27479, Note_off_c, 4, 76, 64
13, 27570, Note_on_c, 4, 79, 70
13, 27586, Note_off_c, 4, 77, 64
13, 27684, Note_off_c, 4, 79, 64
13, 27684, Note_on_c, 4, 81, 72
13, 27793, Note_off_c, 4, 81, 64
13, 27822, Note_on_c, 4, 82, 76
13, 28242, Note_off_c, 4, 82, 64
13, 28315, Note_on_c, 4, 81, 80
13, 28415, Note_off_c, 4, 81, 64
13, 28552, Note_on_c, 4, 79, 70
13, 28653, Note_off_c, 4, 79, 64
13, 28787, Note_on_c, 4, 77, 74
13, 28955, Note_off_c, 4, 77, 64
13, 29034, Note_on_c, 4, 79, 80
13, 29144, Note_on_c, 4, 77, 70
13, 29170, Note_off_c, 4, 79, 64
13, 29273, Note_off_c, 4, 77, 64
13, 29274, Note_on_c, 4, 76, 66
13, 29387, Note_off_c, 4, 76, 64
13, 29387, Note_on_c, 4, 74, 66
13, 29475, Note_off_c, 4, 74, 64
13, 29508, Note_on_c, 4, 73, 76
13, 29624, Note_on_c, 4, 74, 72
13, 29635, Note_off_c, 4, 73, 64
13, 29750, Note_off_c, 4, 74, 64
13, 29750, Note_on_c, 4, 76, 78
13, 29867, Note_off_c, 4, 76, 64
13, 29992, Note_on_c, 4, 81, 85
13, 30380, Note_off_c, 4, 81, 64
13, 30466, Note_on_c, 4, 79, 82
13, 30578, Note_on_c, 4, 77, 64
13, 30605, Note_off_c, 4, 79, 64
13, 30710, Note_on_c, 4, 76, 70
13, 30720, Note_off_c, 4, 77, 64
13, 30832, Note_on_c, 4, 74, 70
13, 30836, Note_off_c, 4, 76, 64
13, 30931, Note_off_c, 4, 74, 64
13, 30948, Note_on_c, 4, 73, 68
13, 31067, Note_on_c, 4, 74, 72
13, 31087, Note_off_c, 4, 73, 64
13, 31188, Note_on_c, 4, 76, 72
13, 31198, Note_off_c, 4, 74, 64
13, 31299, Note_on_c, 4, 77, 74
13, 31319, Note_off_c, 4, 76, 64
13, 31373, Note_off_c, 4, 77, 64
13, 31426, Note_on_c, 4, 79, 76
13, 31862, Note_off_c, 4, 79, 64
13, 31934, Note_on_c, 4, 77, 95
13, 32034, Note_on_c, 4, 76, 60
13, 32054, Note_off_c, 4, 77, 64
13, 32155, Note_on_c, 4, 74, 78
13, 32157, Note_off_c, 4, 76, 64
13, 32261, Note_on_c, 4, 73, 66
13, 32277, Note_off_c, 4, 74, 64
13, 32360, Note_off_c, 4, 73, 64
13, 32388, Note_on_c, 4, 74, 80
13, 32459, Note_off_c, 4, 74, 64
13, 32507, Note_on_c, 4, 69, 70
13, 32573, Note_off_c, 4, 69, 64
13, 32627, Note_on_c, 4, 77, 87
13, 32740, Note_on_c, 4, 76, 78
13, 32767, Note_off_c, 4, 77, 64
13, 32858, Note_on_c, 4, 74, 60
13, 32873, Note_off_c, 4, 76, 64
13, 32973, Note_on_c, 4, 72, 62
13, 32993, Note_off_c, 4, 74, 64
13, 33059, Note_off_c, 4, 72, 64
13, 33097, Note_on_c, 4, 70, 74
13, 33216, Note_on_c, 4, 74, 70
13, 33232, Note_off_c, 4, 70, 64
13, 33312, Note_off_c, 4, 74, 64
13, 33349, Note_on_c, 4, 79, 76
13, 33403, Note_off_c, 4, 79, 64
13, 33467, Note_on_c, 4, 76, 68
13, 33525, Note_off_c, 4, 76, 64
13, 33591, Note_on_c, 4, 77, 78
13, 33904, Note_off_c, 4, 77, 64
13, 33949, Note_on_c, 4, 74, 66
13, 34016, Note_off_c, 4, 74, 64
13, 34070, Note_on_c, 4, 77, 80
13, 34182, Note_on_c, 4, 76, 78
13, 34195, Note_off_c, 4, 77, 64
13, 34261, Note_off_c, 4, 76, 64
13, 34304, Note_on_c, 4, 74, 66
13, 34410, Note_on_c, 4, 73, 60
13, 34418, Note_off_c, 4, 74, 64
13, 34507, Note_off_c, 4, 73, 64
13, 34557, Note_on_c, 4, 74, 66
13, 34894, Note_off_c, 4, 74, 64
13, 35031, Note_on_c, 4, 69, 63
13, 35097, Note_off_c, 4, 69, 64
13, 35146, Note_on_c, 4, 71, 70
13, 35212, Note_off_c, 4, 71, 64
13, 35272, Note_on_c, 4, 72, 80
13, 35429, Note_off_c, 4, 72, 64
13, 35509, Note_on_c, 4, 74, 76
13, 35624, Note_on_c, 4, 72, 64
13, 35654, Note_off_c, 4, 74, 64
13, 35750, Note_on_c, 4, 71, 63
13, 35771, Note_off_c, 4, 72, 64
13, 35868, Note_on_c, 4, 69, 66
13, 35873, Note_off_c, 4, 71, 64
13, 35950, Note_off_c, 4, 69, 64
13, 35990, Note_on_c, 4, 71, 72
13, 36087, Note_off_c, 4, 71, 64
13, 36104, Note_on_c, 4, 69, 63
13, 36185, Note_off_c, 4, 69, 64
13, 36226, Note_on_c, 4, 67, 66
13, 36319, Note_off_c, 4, 67, 64
13, 36343, Note_on_c, 4, 69, 74
13, 36449, Note_off_c, 4, 69, 64
13, 36468, Note_on_c, 4, 71, 78
13, 36551, Note_off_c, 4, 71, 64
13, 36574, Note_on_c, 4, 72, 72
13, 36665, Note_off_c, 4, 72, 64
13, 36695, Note_on_c, 4, 74, 82
13, 36806, Note_off_c, 4, 74, 64
13, 36809, Note_on_c, 4, 76, 70
13, 36912, Note_off_c, 4, 76, 64
13, 36938, Note_on_c, 4, 77, 82
13, 37064, Note_off_c, 4, 77, 64
13, 37194, Note_on_c, 4, 76, 80
13, 37318, Note_off_c, 4, 76, 64
13, 37427, Note_on_c, 4, 74, 76
13, 37534, Note_off_c, 4, 74, 64
13, 37551, Note_on_c, 4, 72, 68
13, 37631, Note_off_c, 4, 72, 64
13, 37658, Note_on_c, 4, 71, 80
13, 37772, Note_off_c, 4, 71, 64
13, 37780, Note_on_c, 4, 72, 76
13, 37874, Note_off_c, 4, 72, 64
13, 37902, Note_on_c, 4, 74, 80
13, 37998, Note_off_c, 4, 74, 64
13, 38018, Note_on_c, 4, 76, 64
13, 38110, Note_off_c, 4, 76, 64
13, 38142, Note_on_c, 4, 77, 82
13, 38246, Note_off_c, 4, 77, 64
13, 38258, Note_on_c, 4, 79, 80
13, 38348, Note_off_c, 4, 79, 64
13, 38384, Note_on_c, 4, 81, 85
13, 38498, Note_off_c, 4, 81, 64
13, 38627, Note_on_c, 4, 79, 80
13, 38976, Note_off_c, 4, 79, 64
13, 39110, Note_on_c, 4, 70, 68
13, 39206, Note_on_c, 4, 69, 68
13, 39210, Note_off_c, 4, 70, 64
13, 39290, Note_off_c, 4, 69, 64
13, 39331, Note_on_c, 4, 70, 64
13, 39437, Note_off_c, 4, 70, 64
13, 39441, Note_on_c, 4, 67, 66
13, 39527, Note_off_c, 4, 67, 64
13, 39580, Note_on_c, 4, 69, 85
13, 39689, Note_off_c, 4, 69, 64
13, 39822, Note_on_c, 4, 74, 85
13, 39932, Note_off_c, 4, 74, 64
13, 40061, Note_on_c, 4, 72, 76
13, 40102, Note_on_c, 4, 71, 63
13, 40106, Note_off_c, 4, 72, 64
13, 40135, Note_on_c, 4, 72, 82
13, 40143, Note_off_c, 4, 71, 64
13, 40175, Note_on_c, 4, 71, 66
13, 40188, Note_off_c, 4, 72, 64
13, 40244, Note_off_c, 4, 71, 64
13, 40308, Note_on_c, 4, 72, 78
13, 40814, Note_off_c, 4, 72, 64
13, 52548, Note_on_c, 4, 74, 59
13, 52657, Note_on_c, 4, 77, 64
13, 52681, Note_off_c, 4, 74, 64
13, 52791, Note_on_c, 4, 76, 60
13, 52808, Note_off_c, 4, 77, 64
13, 52908, Note_on_c, 4, 74, 55
13, 52915, Note_off_c, 4, 76, 64
13, 53031, Note_on_c, 4, 72, 60
13, 53032, Note_off_c, 4, 74, 64
13, 53143, Note_on_c, 4, 71, 57
13, 53160, Note_off_c, 4, 72, 64
13, 53243, Note_off_c, 4, 71, 64
13, 53261, Note_on_c, 4, 73, 53
13, 53374, Note_on_c, 4, 69, 58
13, 53410, Note_off_c, 4, 73, 64
13, 53493, Note_on_c, 4, 71, 52
13, 53513, Note_off_c, 4, 69, 64
13, 53626, Note_on_c, 4, 73, 57
13, 53637, Note_off_c, 4, 71, 64
13, 53745, Note_on_c, 4, 74, 57
13, 53761, Note_off_c, 4, 73, 64
13, 53860, Note_on_c, 4, 73, 51
13, 53865, Note_off_c, 4, 74, 64
13, 53975, Note_off_c, 4, 73, 64
13, 53984, Note_on_c, 4, 76, 53
13, 54094, Note_on_c, 4, 74, 56
13, 54105, Note_off_c, 4, 76, 64
13, 54182, Note_off_c, 4, 74, 64
13, 54223, Note_on_c, 4, 77, 66
13, 54331, Note_off_c, 4, 77, 64
13, 54339, Note_on_c, 4, 76, 57
13, 54414, Note_off_c, 4, 76, 64
13, 54468, Note_on_c, 4, 82, 64
13, 54585, Note_on_c, 4, 81, 66
13, 54598, Note_off_c, 4, 82, 64
13, 54659, Note_off_c, 4, 81, 64
13, 54709, Note_on_c, 4, 81, 64
13, 54817, Note_on_c, 4, 77, 53
13, 54841, Note_off_c, 4, 81, 64
13, 54949, Note_on_c, 4, 76, 46
13, 54957, Note_off_c, 4, 77, 64
13, 55064, Note_off_c, 4, 76, 64
13, 55065, Note_on_c, 4, 74, 55
13, 55181, Note_on_c, 4, 73, 45
13, 55184, Note_off_c, 4, 74, 64
13, 55303, Note_on_c, 4, 74, 59
13, 55319, Note_off_c, 4, 73, 64
13, 55394, Note_off_c, 4, 74, 64
13, 55428, Note_on_c, 4, 76, 66
13, 55540, Note_on_c, 4, 77, 61
13, 55557, Note_off_c, 4, 76, 64
13, 55668, Note_on_c, 4, 79, 62
13, 55679, Note_off_c, 4, 77, 64
13, 55784, Note_on_c, 4, 76, 57
13, 55795, Note_off_c, 4, 79, 64
13, 55860, Note_off_c, 4, 76, 64
13, 55902, Note_on_c, 4, 77, 60
13, 56013, Note_on_c, 4, 74, 60
13, 56014, Note_off_c, 4, 77, 64
13, 56111, Note_off_c, 4, 74, 64
13, 56145, Note_on_c, 4, 73, 57
13, 56257, Note_on_c, 4, 71, 63
13, 56283, Note_off_c, 4, 73, 64
13, 56385, Note_on_c, 4, 73, 49
13, 56390, Note_off_c, 4, 71, 64
13, 56500, Note_on_c, 4, 74, 59
13, 56517, Note_off_c, 4, 73, 64
13, 56633, Note_on_c, 4, 76, 66
13, 56635, Note_off_c, 4, 74, 64
13, 56745, Note_on_c, 4, 77, 64
13, 56752, Note_off_c, 4, 76, 64
13, 56840, Note_off_c, 4, 77, 64
13, 56860, Note_on_c, 4, 79, 64
13, 56971, Note_on_c, 4, 77, 56
13, 56983, Note_off_c, 4, 79, 64
13, 57095, Note_on_c, 4, 79, 58
13, 57106, Note_off_c, 4, 77, 64
13, 57215, Note_on_c, 4, 81, 57
13, 57218, Note_off_c, 4, 79, 64
13, 57343, Note_on_c, 4, 82, 59
13, 57351, Note_off_c, 4, 81, 64
13, 57460, Note_on_c, 4, 79, 59
13, 57467, Note_off_c, 4, 82, 64
13, 57556, Note_off_c, 4, 79, 64
13, 57586, Note_on_c, 4, 81, 60
13, 57693, Note_on_c, 4, 82, 56
13, 57709, Note_off_c, 4, 81, 64
13, 57819, Note_on_c, 4, 81, 53
13, 57837, Note_off_c, 4, 82, 64
13, 57944, Note_on_c, 4, 79, 49
13, 57959, Note_off_c, 4, 81, 64
13, 58069, Note_on_c, 4, 77, 52
13, 58080, Note_off_c, 4, 79, 64
13, 58180, Note_on_c, 4, 76, 59
13, 58186, Note_off_c, 4, 77, 64
13, 58287, Note_off_c, 4, 76, 64
13, 58309, Note_on_c, 4, 77, 63
13, 59086, Note_off_c, 4, 77, 64
13, 59124, Note_on_c, 4, 77, 61
13, 59259, Note_on_c, 4, 76, 63
13, 59271, Note_off_c, 4, 77, 64
13, 59368, Note_off_c, 4, 76, 64
13, 59371, Note_on_c, 4, 73, 45
13, 59500, Note_on_c, 4, 74, 66
13, 59511, Note_off_c, 4, 73, 64
13, 59611, Note_off_c, 4, 74, 64
13, 59612, Note_on_c, 4, 76, 64
13, 59720, Note_off_c, 4, 76, 64
13, 59748, Note_on_c, 4, 69, 64
13, 59906, Note_off_c, 4, 69, 64
13, 59998, Note_on_c, 4, 81, 66
13, 60143, Note_off_c, 4, 81, 64
13, 60228, Note_on_c, 4, 76, 60
13, 60412, Note_off_c, 4, 76, 64
13, 60468, Note_on_c, 4, 77, 64
13, 60585, Note_on_c, 4, 76, 58
13, 60608, Note_off_c, 4, 77, 64
13, 60703, Note_on_c, 4, 77, 59
13, 60723, Note_off_c, 4, 76, 64
13, 60828, Note_on_c, 4, 79, 58
13, 60835, Note_off_c, 4, 77, 64
13, 60948, Note_on_c, 4, 77, 63
13, 60965, Note_off_c, 4, 79, 64
13, 61067, Note_on_c, 4, 76, 58
13, 61076, Note_off_c, 4, 77, 64
13, 61174, Note_off_c, 4, 76, 64
13, 61196, Note_on_c, 4, 74, 59
13, 62004, Note_off_c, 4, 74, 64
13, 62021, Note_on_c, 4, 72, 52
13, 62144, Note_on_c, 4, 71, 60
13, 62150, Note_off_c, 4, 72, 64
13, 62255, Note_on_c, 4, 72, 66
13, 62274, Note_off_c, 4, 71, 64
13, 62398, Note_on_c, 4, 74, 60
13, 62406, Note_off_c, 4, 72, 64
13, 62510, Note_on_c, 4, 76, 70
13, 62518, Note_off_c, 4, 74, 64
13, 62608, Note_off_c, 4, 76, 64
13, 62638, Note_on_c, 4, 77, 70
13, 62751, Note_on_c, 4, 76, 64
13, 62773, Note_off_c, 4, 77, 64
13, 62869, Note_on_c, 4, 74, 49
13, 62876, Note_off_c, 4, 76, 64
13, 62989, Note_on_c, 4, 76, 66
13, 62990, Note_off_c, 4, 74, 64
13, 63108, Note_on_c, 4, 74, 62
13, 63125, Note_off_c, 4, 76, 64
13, 63227, Note_on_c, 4, 72, 58
13, 63228, Note_off_c, 4, 74, 64
13, 63319, Note_off_c, 4, 72, 64
13, 63349, Note_on_c, 4, 71, 68
13, 63463, Note_on_c, 4, 69, 60
13, 63476, Note_off_c, 4, 71, 64
13, 63580, Note_on_c, 4, 67, 54
13, 63591, Note_off_c, 4, 69, 64
13, 63707, Note_on_c, 4, 69, 58
13, 63726, Note_off_c, 4, 67, 64
13, 63836, Note_on_c, 4, 71, 58
13, 63850, Note_off_c, 4, 69, 64
13, 63947, Note_on_c, 4, 72, 59
13, 63953, Note_off_c, 4, 71, 64
13, 64052, Note_off_c, 4, 72, 64
13, 64065, Note_on_c, 4, 74, 63
13, 64185, Note_on_c, 4, 76, 63
13, 64203, Note_off_c, 4, 74, 64
13, 64309, Note_on_c, 4, 77, 60
13, 64325, Note_off_c, 4, 76, 64
13, 64419, Note_on_c, 4, 74, 61
13, 64438, Note_off_c, 4, 77, 64
13, 64540, Note_on_c, 4, 76, 63
13, 64555, Note_off_c, 4, 74, 64
13, 64669, Note_on_c, 4, 77, 63
13, 64687, Note_off_c, 4, 76, 64
13, 64770, Note_off_c, 4, 77, 64
13, 64797, Note_on_c, 4, 79, 66
13, 64911, Note_on_c, 4, 81, 64
13, 64925, Note_off_c, 4, 79, 64
13, 65040, Note_on_c, 4, 79, 59
13, 65057, Note_off_c, 4, 81, 64
13, 65153, Note_on_c, 4, 77, 60
13, 65166, Note_off_c, 4, 79, 64
13, 65274, Note_off_c, 4, 77, 64
13, 65274, Note_on_c, 4, 76, 52
13, 65377, Note_on_c, 4, 74, 60
13, 65382, Note_off_c, 4, 76, 64
13, 65485, Note_off_c, 4, 74, 64
13, 65506, Note_on_c, 4, 72, 70
13, 65615, Note_on_c, 4, 79, 58
13, 65624, Note_off_c, 4, 72, 64
13, 65749, Note_on_c, 4, 77, 66
13, 65764, Note_off_c, 4, 79, 64
13, 65860, Note_on_c, 4, 76, 62
13, 65864, Note_off_c, 4, 77, 64
13, 65988, Note_on_c, 4, 74, 47
13, 65991, Note_off_c, 4, 76, 64
13, 66103, Note_on_c, 4, 76, 62
13, 66117, Note_off_c, 4, 74, 64
13, 66228, Note_on_c, 4, 72, 62
13, 66231, Note_off_c, 4, 76, 64
13, 66334, Note_on_c, 4, 76, 63
13, 66339, Note_off_c, 4, 72, 64
13, 66450, Note_on_c, 4, 74, 57
13, 66465, Note_off_c, 4, 76, 64
13, 66572, Note_on_c, 4, 72, 57
13, 66586, Note_off_c, 4, 74, 64
13, 66707, Note_on_c, 4, 71, 59
13, 66713, Note_off_c, 4, 72, 64
13, 66821, Note_on_c, 4, 72, 60
13, 66836, Note_off_c, 4, 71, 64
13, 66915, Note_off_c, 4, 72, 64
13, 66942, Note_on_c, 4, 74, 64
13, 67065, Note_on_c, 4, 77, 59
13, 67077, Note_off_c, 4, 74, 64
13, 67192, Note_on_c, 4, 76, 56
13, 67205, Note_off_c, 4, 77, 64
13, 67303, Note_on_c, 4, 74, 57
13, 67320, Note_off_c, 4, 76, 64
13, 67432, Note_on_c, 4, 72, 52
13, 67440, Note_off_c, 4, 74, 64
13, 67540, Note_on_c, 4, 71, 53
13, 67543, Note_off_c, 4, 72, 64
13, 67654, Note_off_c, 4, 71, 64
13, 67659, Note_on_c, 4, 73, 52
13, 67763, Note_on_c, 4, 69, 51
13, 67787, Note_off_c, 4, 73, 64
13, 67890, Note_on_c, 4, 71, 56
13, 67908, Note_off_c, 4, 69, 64
13, 68010, Note_on_c, 4, 73, 54
13, 68025, Note_off_c, 4, 71, 64
13, 68136, Note_on_c, 4, 74, 51
13, 68141, Note_off_c, 4, 73, 64
13, 68245, Note_off_c, 4, 74, 64
13, 68258, Note_on_c, 4, 73, 52
13, 68346, Note_off_c, 4, 73, 64
13, 68376, Note_on_c, 4, 76, 60
13, 68484, Note_off_c, 4, 76, 64
13, 68484, Note_on_c, 4, 74, 30
13, 68578, Note_off_c, 4, 74, 64
13, 68612, Note_on_c, 4, 77, 70
13, 68711, Note_off_c, 4, 77, 64
13, 68723, Note_on_c, 4, 76, 57
13, 68797, Note_off_c, 4, 76, 64
13, 68859, Note_on_c, 4, 82, 68
13, 68975, Note_on_c, 4, 81, 70
13, 68984, Note_off_c, 4, 82, 64
13, 69056, Note_off_c, 4, 81, 64
13, 69102, Note_on_c, 4, 81, 64
13, 69214, Note_on_c, 4, 77, 53
13, 69241, Note_off_c, 4, 81, 64
13, 69351, Note_on_c, 4, 76, 52
13, 69355, Note_off_c, 4, 77, 64
13, 69458, Note_off_c, 4, 76, 64
13, 69465, Note_on_c, 4, 74, 63
13, 69582, Note_off_c, 4, 74, 64
13, 69582, Note_on_c, 4, 73, 50
13, 69707, Note_on_c, 4, 74, 64
13, 69718, Note_off_c, 4, 73, 64
13, 69796, Note_off_c, 4, 74, 64
13, 69835, Note_on_c, 4, 76, 76
13, 69943, Note_on_c, 4, 77, 66
13, 69957, Note_off_c, 4, 76, 64
13, 70070, Note_on_c, 4, 79, 62
13, 70072, Note_off_c, 4, 77, 64
13, 70190, Note_on_c, 4, 76, 57
13, 70213, Note_off_c, 4, 79, 64
13, 70270, Note_off_c, 4, 76, 64
13, 70304, Note_on_c, 4, 77, 66
13, 70415, Note_off_c, 4, 77, 64
13, 70423, Note_on_c, 4, 74, 64
13, 70508, Note_off_c, 4, 74, 64
13, 70547, Note_on_c, 4, 73, 60
13, 70658, Note_on_c, 4, 71, 60
13, 70679, Note_off_c, 4, 73, 64
13, 70777, Note_on_c, 4, 73, 49
13, 70798, Note_off_c, 4, 71, 64
13, 70892, Note_on_c, 4, 74, 57
13, 70906, Note_off_c, 4, 73, 64
13, 71037, Note_on_c, 4, 76, 68
13, 71040, Note_off_c, 4, 74, 64
13, 71141, Note_on_c, 4, 77, 64
13, 71156, Note_off_c, 4, 76, 64
13, 71235, Note_off_c, 4, 77, 64
13, 71265, Note_on_c, 4, 79, 64
13, 71376, Note_on_c, 4, 77, 48
13, 71395, Note_off_c, 4, 79, 64
13, 71502, Note_on_c, 4, 79, 61
13, 71518, Note_off_c, 4, 77, 64
13, 71623, Note_on_c, 4, 81, 60
13, 71631, Note_off_c, 4, 79, 64
13, 71750, Note_on_c, 4, 82, 59
13, 71756, Note_off_c, 4, 81, 64
13, 71863, Note_on_c, 4, 79, 56
13, 71886, Note_off_c, 4, 82, 64
13, 71958, Note_off_c, 4, 79, 64
13, 71984, Note_on_c, 4, 81, 66
13, 72090, Note_on_c, 4, 82, 55
13, 72109, Note_off_c, 4, 81, 64
13, 72216, Note_on_c, 4, 81, 57
13, 72234, Note_off_c, 4, 82, 64
13, 72341, Note_on_c, 4, 79, 47
13, 72357, Note_off_c, 4, 81, 64
13, 72476, Note_on_c, 4, 77, 54
13, 72480, Note_off_c, 4, 79, 64
13, 72584, Note_on_c, 4, 76, 58
13, 72592, Note_off_c, 4, 77, 64
13, 72683, Note_off_c, 4, 76, 64
13, 72707, Note_on_c, 4, 77, 68
13, 73502, Note_off_c, 4, 77, 64
13, 73536, Note_on_c, 4, 77, 60
13, 73655, Note_on_c, 4, 76, 66
13, 73678, Note_off_c, 4, 77, 64
13, 73773, Note_on_c, 4, 73, 51
13, 73780, Note_off_c, 4, 76, 64
13, 73905, Note_on_c, 4, 74, 63
13, 73915, Note_off_c, 4, 73, 64
13, 74008, Note_on_c, 4, 76, 66
13, 74014, Note_off_c, 4, 74, 64
13, 74119, Note_off_c, 4, 76, 64
13, 74143, Note_on_c, 4, 69, 66
13, 74303, Note_off_c, 4, 69, 64
13, 74400, Note_on_c, 4, 81, 68
13, 74534, Note_off_c, 4, 81, 64
13, 74624, Note_on_c, 4, 77, 59
13, 74668, Note_off_c, 4, 77, 64
13, 74669, Note_on_c, 4, 76, 49
13, 74701, Note_on_c, 4, 77, 60
13, 74705, Note_off_c, 4, 76, 64
13, 74742, Note_on_c, 4, 76, 60
13, 74752, Note_off_c, 4, 77, 64
13, 74852, Note_off_c, 4, 76, 64
13, 74874, Note_on_c, 4, 77, 64
13, 74989, Note_on_c, 4, 76, 60
13, 75008, Note_off_c, 4, 77, 64
13, 75104, Note_on_c, 4, 77, 60
13, 75126, Note_off_c, 4, 76, 64
13, 75224, Note_on_c, 4, 79, 58
13, 75249, Note_off_c, 4, 77, 64
13, 75349, Note_on_c, 4, 77, 63
13, 75372, Note_off_c, 4, 79, 64
13, 75466, Note_on_c, 4, 76, 54
13, 75478, Note_off_c, 4, 77, 64
13, 75565, Note_off_c, 4, 76, 64
13, 75588, Note_on_c, 4, 74, 63
13, 76417, Note_off_c, 4, 74, 64
13, 76423, Note_on_c, 4, 72, 58
13, 76528, Note_off_c, 4, 72, 64
13, 76539, Note_on_c, 4, 71, 58
13, 76660, Note_on_c, 4, 72, 66
13, 76678, Note_off_c, 4, 71, 64
13, 76786, Note_on_c, 4, 74, 68
13, 76798, Note_off_c, 4, 72, 64
13, 76901, Note_on_c, 4, 76, 68
13, 76916, Note_off_c, 4, 74, 64
13, 76997, Note_off_c, 4, 76, 64
13, 77021, Note_on_c, 4, 77, 68
13, 77138, Note_on_c, 4, 76, 66
13, 77161, Note_off_c, 4, 77, 64
13, 77265, Note_on_c, 4, 74, 55
13, 77275, Note_off_c, 4, 76, 64
13, 77382, Note_on_c, 4, 76, 66
13, 77397, Note_off_c, 4, 74, 64
13, 77513, Note_on_c, 4, 74, 66
13, 77541, Note_off_c, 4, 76, 64
13, 77630, Note_on_c, 4, 72, 61
13, 77644, Note_off_c, 4, 74, 64
13, 77729, Note_off_c, 4, 72, 64
13, 77755, Note_on_c, 4, 71, 70
13, 77871, Note_on_c, 4, 69, 58
13, 77892, Note_off_c, 4, 71, 64
13, 77988, Note_on_c, 4, 67, 52
13, 77995, Note_off_c, 4, 69, 64
13, 78112, Note_on_c, 4, 69, 62
13, 78131, Note_off_c, 4, 67, 64
13, 78230, Note_on_c, 4, 71, 74
13, 78247, Note_off_c, 4, 69, 64
13, 78346, Note_on_c, 4, 72, 58
13, 78366, Note_off_c, 4, 71, 64
13, 78461, Note_off_c, 4, 72, 64
13, 78474, Note_on_c, 4, 74, 57
13, 78582, Note_on_c, 4, 76, 68
13, 78601, Note_off_c, 4, 74, 64
13, 78705, Note_on_c, 4, 77, 68
13, 78722, Note_off_c, 4, 76, 64
13, 78817, Note_on_c, 4, 74, 64
13, 78840, Note_off_c, 4, 77, 64
13, 78944, Note_on_c, 4, 76, 64
13, 78968, Note_off_c, 4, 74, 64
13, 79060, Note_on_c, 4, 77, 64
13, 79079, Note_off_c, 4, 76, 64
13, 79168, Note_off_c, 4, 77, 64
13, 79187, Note_on_c, 4, 79, 63
13, 79300, Note_on_c, 4, 81, 61
13, 79317, Note_off_c, 4, 79, 64
13, 79438, Note_on_c, 4, 79, 60
13, 79455, Note_off_c, 4, 81, 64
13, 79550, Note_on_c, 4, 77, 59
13, 79574, Note_off_c, 4, 79, 64
13, 79674, Note_on_c, 4, 76, 56
13, 79686, Note_off_c, 4, 77, 64
13, 79781, Note_on_c, 4, 74, 58
13, 79789, Note_off_c, 4, 76, 64
13, 79889, Note_off_c, 4, 74, 64
13, 79911, Note_on_c, 4, 72, 66
13, 80018, Note_off_c, 4, 72, 64
13, 80021, Note_on_c, 4, 79, 66
13, 80140, Note_on_c, 4, 77, 68
13, 80160, Note_off_c, 4, 79, 64
13, 80261, Note_on_c, 4, 76, 66
13, 80276, Note_off_c, 4, 77, 64
13, 80389, Note_on_c, 4, 74, 53
13, 80402, Note_off_c, 4, 76, 64
13, 80500, Note_on_c, 4, 76, 63
13, 80508, Note_off_c, 4, 74, 64
13, 80624, Note_off_c, 4, 76, 64
13, 80640, Note_on_c, 4, 72, 58
13, 81109, Note_off_c, 4, 72, 64
13, 92639, Note_on_c, 4, 74, 76
13, 92757, Note_off_c, 4, 74, 64
13, 92876, Note_on_c, 4, 71, 70
13, 93061, Note_off_c, 4, 71, 64
13, 93113, Note_on_c, 4, 72, 78
13, 93222, Note_on_c, 4, 71, 70
13, 93243, Note_off_c, 4, 72, 64
13, 93340, Note_on_c, 4, 69, 59
13, 93344, Note_off_c, 4, 71, 64
13, 93446, Note_on_c, 4, 67, 68
13, 93450, Note_off_c, 4, 69, 64
13, 93501, Note_off_c, 4, 67, 64
13, 93596, Note_on_c, 4, 76, 78
13, 93703, Note_on_c, 4, 77, 70
13, 93723, Note_off_c, 4, 76, 64
13, 93816, Note_on_c, 4, 79, 66
13, 93820, Note_off_c, 4, 77, 64
13, 93933, Note_on_c, 4, 81, 70
13, 93937, Note_off_c, 4, 79, 64
13, 94012, Note_off_c, 4, 81, 64
13, 94060, Note_on_c, 4, 82, 72
13, 94482, Note_off_c, 4, 82, 64
13, 94563, Note_on_c, 4, 81, 70
13, 94670, Note_off_c, 4, 81, 64
13, 94798, Note_on_c, 4, 79, 66
13, 94903, Note_off_c, 4, 79, 64
13, 95031, Note_on_c, 4, 77, 68
13, 95184, Note_off_c, 4, 77, 64
13, 95266, Note_on_c, 4, 79, 80
13, 95376, Note_on_c, 4, 77, 70
13, 95405, Note_off_c, 4, 79, 64
13, 95507, Note_on_c, 4, 76, 64
13, 95520, Note_off_c, 4, 77, 64
13, 95621, Note_on_c, 4, 74, 68
13, 95623, Note_off_c, 4, 76, 64
13, 95703, Note_off_c, 4, 74, 64
13, 95749, Note_on_c, 4, 73, 61
13, 95835, Note_off_c, 4, 73, 64
13, 95859, Note_on_c, 4, 74, 70
13, 95938, Note_off_c, 4, 74, 64
13, 95984, Note_on_c, 4, 76, 64
13, 96115, Note_off_c, 4, 76, 64
13, 96225, Note_on_c, 4, 81, 76
13, 96627, Note_off_c, 4, 81, 64
13, 96708, Note_on_c, 4, 79, 82
13, 96817, Note_on_c, 4, 77, 68
13, 96841, Note_off_c, 4, 79, 64
13, 96947, Note_on_c, 4, 76, 66
13, 96955, Note_off_c, 4, 77, 64
13, 97067, Note_on_c, 4, 74, 61
13, 97068, Note_off_c, 4, 76, 64
13, 97159, Note_off_c, 4, 74, 64
13, 97187, Note_on_c, 4, 73, 76
13, 97300, Note_on_c, 4, 74, 70
13, 97323, Note_off_c, 4, 73, 64
13, 97424, Note_on_c, 4, 76, 70
13, 97435, Note_off_c, 4, 74, 64
13, 97533, Note_on_c, 4, 77, 70
13, 97554, Note_off_c, 4, 76, 64
13, 97622, Note_off_c, 4, 77, 64
13, 97661, Note_on_c, 4, 79, 72
13, 98083, Note_off_c, 4, 79, 64
13, 98158, Note_on_c, 4, 77, 82
13, 98273, Note_on_c, 4, 76, 63
13, 98293, Note_off_c, 4, 77, 64
13, 98395, Note_on_c, 4, 74, 63
13, 98401, Note_off_c, 4, 76, 64
13, 98508, Note_on_c, 4, 73, 57
13, 98532, Note_off_c, 4, 74, 64
13, 98597, Note_off_c, 4, 73, 64
13, 98628, Note_on_c, 4, 74, 82
13, 98700, Note_off_c, 4, 74, 64
13, 98747, Note_on_c, 4, 69, 70
13, 98816, Note_off_c, 4, 69, 64
13, 98871, Note_on_c, 4, 77, 82
13, 98985, Note_on_c, 4, 76, 70
13, 99015, Note_off_c, 4, 77, 64
13, 99097, Note_on_c, 4, 74, 63
13, 99106, Note_off_c, 4, 76, 64
13, 99212, Note_on_c, 4, 72, 66
13, 99229, Note_off_c, 4, 74, 64
13, 99287, Note_off_c, 4, 72, 64
13, 99340, Note_on_c, 4, 70, 56
13, 99460, Note_on_c, 4, 74, 70
13, 99470, Note_off_c, 4, 70, 64
13, 99542, Note_off_c, 4, 74, 64
13, 99584, Note_on_c, 4, 79, 80
13, 99642, Note_off_c, 4, 79, 64
13, 99700, Note_on_c, 4, 76, 66
13, 99759, Note_off_c, 4, 76, 64
13, 99824, Note_on_c, 4, 77, 80
13, 100148, Note_off_c, 4, 77, 64
13, 100195, Note_on_c, 4, 74, 72
13, 100244, Note_off_c, 4, 74, 64
13, 100314, Note_on_c, 4, 77, 80
13, 100421, Note_off_c, 4, 77, 64
13, 100435, Note_on_c, 4, 76, 64
13, 100510, Note_off_c, 4, 76, 64
13, 100550, Note_on_c, 4, 74, 82
13, 100658, Note_on_c, 4, 73, 58
13, 100672, Note_off_c, 4, 74, 64
13, 100752, Note_off_c, 4, 73, 64
13, 100802, Note_on_c, 4, 74, 80
13, 101128, Note_off_c, 4, 74, 64
13, 101271, Note_on_c, 4, 69, 76
13, 101348, Note_off_c, 4, 69, 64
13, 101383, Note_on_c, 4, 71, 76
13, 101453, Note_off_c, 4, 71, 64
13, 101512, Note_on_c, 4, 72, 76
13, 101679, Note_off_c, 4, 72, 64
13, 101750, Note_on_c, 4, 74, 80
13, 101869, Note_on_c, 4, 72, 68
13, 101899, Note_off_c, 4, 74, 64
13, 101989, Note_on_c, 4, 71, 60
13, 102013, Note_off_c, 4, 72, 64
13, 102109, Note_on_c, 4, 69, 66
13, 102112, Note_off_c, 4, 71, 64
13, 102192, Note_off_c, 4, 69, 64
13, 102232, Note_on_c, 4, 71, 74
13, 102328, Note_off_c, 4, 71, 64
13, 102351, Note_on_c, 4, 69, 68
13, 102433, Note_off_c, 4, 69, 64
13, 102467, Note_on_c, 4, 67, 68
13, 102559, Note_off_c, 4, 67, 64
13, 102579, Note_on_c, 4, 69, 66
13, 102677, Note_off_c, 4, 69, 64
13, 102706, Note_on_c, 4, 71, 72
13, 102790, Note_off_c, 4, 71, 64
13, 102815, Note_on_c, 4, 72, 62
13, 102908, Note_off_c, 4, 72, 64
13, 102943, Note_on_c, 4, 74, 80
13, 103056, Note_on_c, 4, 76, 78
13, 103060, Note_off_c, 4, 74, 64
13, 103152, Note_off_c, 4, 76, 64
13, 103180, Note_on_c, 4, 77, 82
13, 103308, Note_off_c, 4, 77, 64
13, 103427, Note_on_c, 4, 76, 72
13, 103551, Note_off_c, 4, 76, 64
13, 103667, Note_on_c, 4, 74, 80
13, 103774, Note_off_c, 4, 74, 64
13, 103783, Note_on_c, 4, 72, 64
13, 103871, Note_off_c, 4, 72, 64
13, 103907, Note_on_c, 4, 71, 68
13, 104000, Note_off_c, 4, 71, 64
13, 104021, Note_on_c, 4, 72, 70
13, 104116, Note_off_c, 4, 72, 64
13, 104141, Note_on_c, 4, 74, 78
13, 104229, Note_off_c, 4, 74, 64
13, 104254, Note_on_c, 4, 76, 68
13, 104337, Note_off_c, 4, 76, 64
13, 104387, Note_on_c, 4, 77, 78
13, 104473, Note_off_c, 4, 77, 64
13, 104502, Note_on_c, 4, 79, 80
13, 104579, Note_off_c, 4, 79, 64
13, 104622, Note_on_c, 4, 81, 76
13, 104737, Note_off_c, 4, 81, 64
13, 104866, Note_on_c, 4, 79, 82
13, 105218, Note_off_c, 4, 79, 64
13, 105351, Note_on_c, 4, 70, 72
13, 105450, Note_off_c, 4, 70, 64
13, 105458, Note_on_c, 4, 69, 68
13, 105536, Note_off_c, 4, 69, 64
13, 105579, Note_on_c, 4, 70, 68
13, 105673, Note_off_c, 4, 70, 64
13, 105690, Note_on_c, 4, 67, 66
13, 105772, Note_off_c, 4, 67, 64
13, 105824, Note_on_c, 4, 69, 85
13, 105921, Note_off_c, 4, 69, 64
13, 106068, Note_on_c, 4, 74, 85
13, 106164, Note_off_c, 4, 74, 64
13, 106309, Note_on_c, 4, 71, 82
13, 106408, Note_off_c, 4, 71, 64
13, 106551, Note_on_c, 4, 72, 80
13, 106880, Note_off_c, 4, 72, 64
13, 107031, Note_on_c, 4, 74, 85
13, 107120, Note_off_c, 4, 74, 64
13, 107270, Note_on_c, 4, 71, 82
13, 107454, Note_off_c, 4, 71, 64
13, 107504, Note_on_c, 4, 72, 78
13, 107620, Note_on_c, 4, 71, 72
13, 107648, Note_off_c, 4, 72, 64
13, 107739, Note_off_c, 4, 71, 64
13, 107739, Note_on_c, 4, 69, 62
13, 107847, Note_off_c, 4, 69, 64
13, 107854, Note_on_c, 4, 67, 72
13, 107929, Note_off_c, 4, 67, 64
13, 107991, Note_on_c, 4, 76, 51
13, 108093, Note_on_c, 4, 77, 64
13, 108119, Note_off_c, 4, 76, 64
13, 108210, Note_on_c, 4, 79, 70
13, 108226, Note_off_c, 4, 77, 64
13, 108324, Note_off_c, 4, 79, 64
13, 108324, Note_on_c, 4, 81, 72
13, 108433, Note_off_c, 4, 81, 64
13, 108462, Note_on_c, 4, 82, 76
13, 108882, Note_off_c, 4, 82, 64
13, 108955, Note_on_c, 4, 81, 80
13, 109055, Note_off_c, 4, 81, 64
13, 109192, Note_on_c, 4, 79, 70
13, 109293, Note_off_c, 4, 79, 64
13, 109427, Note_on_c, 4, 77, 74
13, 109595, Note_off_c, 4, 77, 64
13, 109674, Note_on_c, 4, 79, 80
13, 109784, Note_on_c, 4, 77, 70
13, 109810, Note_off_c, 4, 79, 64
13, 109913, Note_off_c, 4, 77, 64
13, 109914, Note_on_c, 4, 76, 66
13, 110027, Note_off_c, 4, 76, 64
13, 110027, Note_on_c, 4, 74, 66
13, 110115, Note_off_c, 4, 74, 64
13, 110148, Note_on_c, 4, 73, 76
13, 110264, Note_on_c, 4, 74, 72
13, 110275, Note_off_c, 4, 73, 64
13, 110390, Note_off_c, 4, 74, 64
13, 110390, Note_on_c, 4, 76, 78
13, 110507, Note_off_c, 4, 76, 64
13, 110632, Note_on_c, 4, 81, 85
13, 111020, Note_off_c, 4, 81, 64
13, 111106, Note_on_c, 4, 79, 82
13, 111218, Note_on_c, 4, 77, 64
13, 111245, Note_off_c, 4, 79, 64
13, 111350, Note_on_c, 4, 76, 70
13, 111360, Note_off_c, 4, 77, 64
13, 111472, Note_on_c, 4, 74, 70
13, 111476, Note_off_c, 4, 76, 64
13, 111571, Note_off_c, 4, 74, 64
13, 111588, Note_on_c, 4, 73, 68
13, 111707, Note_on_c, 4, 74, 72
13, 111727, Note_off_c, 4, 73, 64
13, 111828, Note_on_c, 4, 76, 72
13, 111838, Note_off_c, 4, 74, 64
13, 111939, Note_on_c, 4, 77, 74
13, 111959, Note_off_c, 4, 76, 64
13, 112013, Note_off_c, 4, 77, 64
13, 112066, Note_on_c, 4, 79, 76
13, 112502, Note_off_c, 4, 79, 64
13, 112574, Note_on_c, 4, 77, 95
13, 112674, Note_on_c, 4, 76, 60
13, 112694, Note_off_c, 4, 77, 64
13, 112795, Note_on_c, 4, 74, 78
13, 112797, Note_off_c, 4, 76, 64
13, 112901, Note_on_c, 4, 73, 66
13, 112917, Note_off_c, 4, 74, 64
13, 113000, Note_off_c, 4, 73, 64
13, 113028, Note_on_c, 4, 74, 80
13, 113099, Note_off_c, 4, 74, 64
13, 113147, Note_on_c, 4, 69, 70
13, 113213, Note_off_c, 4, 69, 64
13, 113267, Note_on_c, 4, 77, 87
13, 113380, Note_on_c, 4, 76, 78
13, 113407, Note_off_c, 4, 77, 64
13, 113498, Note_on_c, 4, 74, 60
13, 113513, Note_off_c, 4, 76, 64
13, 113613, Note_on_c, 4, 72, 62
13, 113633, Note_off_c, 4, 74, 64
13, 113699, Note_off_c, 4, 72, 64
13, 113737, Note_on_c, 4, 70, 74
13, 113856, Note_on_c, 4, 74, 70
13, 113872, Note_off_c, 4, 70, 64
13, 113952, Note_off_c, 4, 74, 64
13, 113989, Note_on_c, 4, 79, 76
13, 114043, Note_off_c, 4, 79, 64
13, 114107, Note_on_c, 4, 76, 68
13, 114165, Note_off_c, 4, 76, 64
13, 114231, Note_on_c, 4, 77, 78
13, 114544, Note_off_c, 4, 77, 64
13, 114589, Note_on_c, 4, 74, 66
13, 114656, Note_off_c, 4, 74, 64
13, 114710, Note_on_c, 4, 77, 80
13, 114822, Note_on_c, 4, 76, 78
13, 114835, Note_off_c, 4, 77, 64
13, 114901, Note_off_c, 4, 76, 64
13, 114944, Note_on_c, 4, 74, 66
13, 115050, Note_on_c, 4, 73, 60
13, 115058, Note_off_c, 4, 74, 64
13, 115147, Note_off_c, 4, 73, 64
13, 115197, Note_on_c, 4, 74, 66
13, 115534, Note_off_c, 4, 74, 64
13, 115671, Note_on_c, 4, 69, 63
13, 115737, Note_off_c, 4, 69, 64
13, 115786, Note_on_c, 4, 71, 70
13, 115852, Note_off_c, 4, 71, 64
13, 115912, Note_on_c, 4, 72, 80
13, 116069, Note_off_c, 4, 72, 64
13, 116149, Note_on_c, 4, 74, 76
13, 116264, Note_on_c, 4, 72, 64
13, 116294, Note_off_c, 4, 74, 64
13, 116390, Note_on_c, 4, 71, 63
13, 116411, Note_off_c, 4, 72, 64
13, 116508, Note_on_c, 4, 69, 66
13, 116513, Note_off_c, 4, 71, 64
13, 116590, Note_off_c, 4, 69, 64
13, 116630, Note_on_c, 4, 71, 72
13, 116727, Note_off_c, 4, 71, 64
13, 116744, Note_on_c, 4, 69, 63
13, 116825, Note_off_c, 4, 69, 64
13, 116866, Note_on_c, 4, 67, 66
13, 116959, Note_off_c, 4, 67, 64
13, 116983, Note_on_c, 4, 69, 74
13, 117089, Note_off_c, 4, 69, 64
13, 117108, Note_on_c, 4, 71, 78
13, 117191, Note_off_c, 4, 71, 64
13, 117214, Note_on_c, 4, 72, 72
13, 117305, Note_off_c, 4, 72, 64
13, 117335, Note_on_c, 4, 74, 82
13, 117446, Note_off_c, 4, 74, 64
13, 117449, Note_on_c, 4, 76, 70
13, 117552, Note_off_c, 4, 76, 64
13, 117578, Note_on_c, 4, 77, 82
13, 117704, Note_off_c, 4, 77, 64
13, 117834, Note_on_c, 4, 76, 80
13, 117958, Note_off_c, 4, 76, 64
13, 118067, Note_on_c, 4, 74, 76
13, 118174, Note_off_c, 4, 74, 64
13, 118191, Note_on_c, 4, 72, 68
13, 118271, Note_off_c, 4, 72, 64
13, 118298, Note_on_c, 4, 71, 80
13, 118412, Note_off_c, 4, 71, 64
13, 118420, Note_on_c, 4, 72, 76
13, 118514, Note_off_c, 4, 72, 64
13, 118542, Note_on_c, 4, 74, 80
13, 118638, Note_off_c, 4, 74, 64
13, 118658, Note_on_c, 4, 76, 64
13, 118750, Note_off_c, 4, 76, 64
13, 118782, Note_on_c, 4, 77, 82
13, 118886, Note_off_c, 4, 77, 64
13, 118898, Note_on_c, 4, 79, 80
13, 118988, Note_off_c, 4, 79, 64
13, 119024, Note_on_c, 4, 81, 85
13, 119138, Note_off_c, 4, 81, 64
13, 119267, Note_on_c, 4, 79, 80
13, 119616, Note_off_c, 4, 79, 64
13, 119750, Note_on_c, 4, 70, 68
13, 119846, Note_on_c, 4, 69, 68
13, 119850, Note_off_c, 4, 70, 64
13, 119930, Note_off_c, 4, 69, 64
13, 119971, Note_on_c, 4, 70, 64
13, 120077, Note_off_c, 4, 70, 64
13, 120081, Note_on_c, 4, 67, 66
13, 120167, Note_off_c, 4, 67, 64
13, 120220, Note_on_c, 4, 69, 85
13, 120329, Note_off_c, 4, 69, 64
13, 120462, Note_on_c, 4, 74, 85
13, 120572, Note_off_c, 4, 74, 64
13, 120701, Note_on_c, 4, 72, 76
13, 120742, Note_on_c, 4, 71, 63
13, 120746, Note_off_c, 4, 72, 64
13, 120775, Note_on_c, 4, 72, 82
13, 120783, Note_off_c, 4, 71, 64
13, 120815, Note_on_c, 4, 71, 66
13, 120828, Note_off_c, 4, 72, 64
13, 120884, Note_off_c, 4, 71, 64
13, 120948, Note_on_c, 4, 72, 78
13, 121454, Note_off_c, 4, 72, 64
13, 121454, End_track
14, 0, Start_track
14, 0, Title_t, "Oboe2"
14, 0, Program_c, 5, 68
14, 0, Control_c, 5, 7, 100
14, 12005, Note_on_c, 5, 74, 85
14, 12096, Note_off_c, 5, 74, 64
14, 12234, Note_on_c, 5, 71, 74
14, 12399, Note_off_c, 5, 71, 64
14, 12467, Note_on_c, 5, 72, 76
14, 12580, Note_on_c, 5, 71, 82
14, 12608, Note_off_c, 5, 72, 64
14, 12702, Note_on_c, 5, 69, 64
14, 12715, Note_off_c, 5, 71, 64
14, 12815, Note_off_c, 5, 69, 64
14, 12815, Note_on_c, 5, 67, 74
14, 12874, Note_off_c, 5, 67, 64
14, 12950, Note_on_c, 5, 76, 85
14, 13059, Note_on_c, 5, 77, 68
14, 13077, Note_off_c, 5, 76, 64
14, 13172, Note_on_c, 5, 79, 61
14, 13186, Note_off_c, 5, 77, 64
14, 13294, Note_on_c, 5, 81, 68
14, 13298, Note_off_c, 5, 79, 64
14, 13392, Note_off_c, 5, 81, 64
14, 13425, Note_on_c, 5, 82, 64
14, 13830, Note_off_c, 5, 82, 64
14, 13908, Note_on_c, 5, 81, 68
14, 14016, Note_off_c, 5, 81, 64
14, 14148, Note_on_c, 5, 79, 68
14, 14257, Note_off_c, 5, 79, 64
14, 14381, Note_on_c, 5, 77, 63
14, 14531, Note_off_c, 5, 77, 64
14, 14624, Note_on_c, 5, 79, 74
14, 14731, Note_on_c, 5, 77, 68
14, 14760, Note_off_c, 5, 79, 64
14, 14864, Note_on_c, 5, 76, 63
14, 14877, Note_off_c, 5, 77, 64
14, 14977, Note_off_c, 5, 76, 64
14, 14980, Note_on_c, 5, 74, 70
14, 15061, Note_off_c, 5, 74, 64
14, 15098, Note_on_c, 5, 73, 64
14, 15183, Note_off_c, 5, 73, 64
14, 15214, Note_on_c, 5, 74, 66
14, 15299, Note_off_c, 5, 74, 64
14, 15344, Note_on_c, 5, 76, 66
14, 15462, Note_off_c, 5, 76, 64
14, 15583, Note_on_c, 5, 81, 76
14, 15993, Note_off_c, 5, 81, 64
14, 16068, Note_on_c, 5, 79, 72
14, 16181, Note_on_c, 5, 77, 70
14, 16205, Note_off_c, 5, 79, 64
14, 16300, Note_on_c, 5, 76, 59
14, 16307, Note_off_c, 5, 77, 64
14, 16424, Note_on_c, 5, 74, 66
14, 16429, Note_off_c, 5, 76, 64
14, 16509, Note_off_c, 5, 74, 64
14, 16543, Note_on_c, 5, 73, 64
14, 16658, Note_on_c, 5, 74, 64
14, 16680, Note_off_c, 5, 73, 64
14, 16791, Note_on_c, 5, 76, 68
14, 16799, Note_off_c, 5, 74, 64
14, 16902, Note_on_c, 5, 77, 74
14, 16922, Note_off_c, 5, 76, 64
14, 16972, Note_off_c, 5, 77, 64
14, 17033, Note_on_c, 5, 79, 74
14, 17462, Note_off_c, 5, 79, 64
14, 17518, Note_on_c, 5, 77, 76
14, 17632, Note_on_c, 5, 76, 60
14, 17660, Note_off_c, 5, 77, 64
14, 17759, Note_on_c, 5, 74, 63
14, 17764, Note_off_c, 5, 76, 64
14, 17872, Note_on_c, 5, 73, 60
14, 17879, Note_off_c, 5, 74, 64
14, 17957, Note_off_c, 5, 73, 64
14, 17996, Note_on_c, 5, 74, 76
14, 18060, Note_off_c, 5, 74, 64
14, 18112, Note_on_c, 5, 69, 68
14, 18180, Note_off_c, 5, 69, 64
14, 18229, Note_on_c, 5, 77, 80
14, 18345, Note_on_c, 5, 76, 74
14, 18374, Note_off_c, 5, 77, 64
14, 18465, Note_on_c, 5, 74, 60
14, 18471, Note_off_c, 5, 76, 64
14, 18576, Note_on_c, 5, 72, 66
14, 18588, Note_off_c, 5, 74, 64
14, 18646, Note_off_c, 5, 72, 64
14, 18700, Note_on_c, 5, 70, 68
14, 18811, Note_on_c, 5, 74, 72
14, 18828, Note_off_c, 5, 70, 64
14, 18886, Note_off_c, 5, 74, 64
14, 18939, Note_on_c, 5, 79, 82
14, 18995, Note_off_c, 5, 79, 64
14, 19061, Note_on_c, 5, 76, 70
14, 19124, Note_off_c, 5, 76, 64
14, 19192, Note_on_c, 5, 77, 76
14, 19487, Note_off_c, 5, 77, 64
14, 19545, Note_on_c, 5, 74, 72
14, 19604, Note_off_c, 5, 74, 64
14, 19666, Note_on_c, 5, 77, 76
14, 19777, Note_on_c, 5, 76, 76
14, 19799, Note_off_c, 5, 77, 64
14, 19846, Note_off_c, 5, 76, 64
14, 19896, Note_on_c, 5, 74, 70
14, 20006, Note_on_c, 5, 73, 57
14, 20012, Note_off_c, 5, 74, 64
14, 20088, Note_off_c, 5, 73, 64
14, 20143, Note_on_c, 5, 74, 66
14, 20475, Note_off_c, 5, 74, 64
14, 20627, Note_on_c, 5, 69, 68
14, 20693, Note_off_c, 5, 69, 64
14, 20751, Note_on_c, 5, 71, 70
14, 20812, Note_off_c, 5, 71, 64
14, 20873, Note_on_c, 5, 72, 66
14, 21035, Note_off_c, 5, 72, 64
14, 21116, Note_on_c, 5, 74, 74
14, 21222, Note_on_c, 5, 72, 70
14, 21254, Note_off_c, 5, 74, 64
14, 21348, Note_on_c, 5, 71, 60
14, 21374, Note_off_c, 5, 72, 64
14, 21467, Note_on_c, 5, 69, 63
14, 21472, Note_off_c, 5, 71, 64
14, 21547, Note_off_c, 5, 69, 64
14, 21592, Note_on_c, 5, 71, 74
14, 21694, Note_off_c, 5, 71, 64
14, 21711, Note_on_c, 5, 69, 70
14, 21789, Note_off_c, 5, 69, 64
14, 21824, Note_on_c, 5, 67, 68
14, 21930, Note_off_c, 5, 67, 64
14, 21937, Note_on_c, 5, 69, 63
14, 22045, Note_off_c, 5, 69, 64
14, 22072, Note_on_c, 5, 71, 72
14, 22158, Note_off_c, 5, 71, 64
14, 22177, Note_on_c, 5, 72, 63
14, 22278, Note_off_c, 5, 72, 64
14, 22301, Note_on_c, 5, 74, 70
14, 22406, Note_off_c, 5, 74, 64
14, 22413, Note_on_c, 5, 76, 66
14, 22503, Note_off_c, 5, 76, 64
14, 22534, Note_on_c, 5, 77, 80
14, 22665, Note_off_c, 5, 77, 64
14, 22785, Note_on_c, 5, 76, 68
14, 22928, Note_off_c, 5, 76, 64
14, 23029, Note_on_c, 5, 74, 68
14, 23140, Note_off_c, 5, 74, 64
14, 23146, Note_on_c, 5, 72, 64
14, 23247, Note_off_c, 5, 72, 64
14, 23264, Note_on_c, 5, 71, 62
14, 23365, Note_off_c, 5, 71, 64
14, 23375, Note_on_c, 5, 72, 66
14, 23481, Note_off_c, 5, 72, 64
14, 23502, Note_on_c, 5, 74, 68
14, 23594, Note_off_c, 5, 74, 64
14, 23610, Note_on_c, 5, 76, 68
14, 23700, Note_off_c, 5, 76, 64
14, 23740, Note_on_c, 5, 77, 70
14, 23829, Note_off_c, 5, 77, 64
14, 23857, Note_on_c, 5, 79, 72
14, 23948, Note_off_c, 5, 79, 64
14, 23988, Note_on_c, 5, 81, 82
14, 24104, Note_off_c, 5, 81, 64
14, 24225, Note_on_c, 5, 79, 82
14, 24592, Note_off_c, 5, 79, 64
14, 24710, Note_on_c, 5, 70, 63
14, 24802, Note_off_c, 5, 70, 64
14, 24822, Note_on_c, 5, 69, 60
14, 24904, Note_off_c, 5, 69, 64
14, 24939, Note_on_c, 5, 70, 62
14, 25042, Note_off_c, 5, 70, 64
14, 25061, Note_on_c, 5, 67, 68
14, 25149, Note_off_c, 5, 67, 64
14, 25188, Note_on_c, 5, 69, 74
14, 25295, Note_off_c, 5, 69, 64
14, 25432, Note_on_c, 5, 74, 80
14, 25532, Note_off_c, 5, 74, 64
14, 25665, Note_on_c, 5, 71, 70
14, 25772, Note_off_c, 5, 71, 64
14, 25914, Note_on_c, 5, 72, 70
14, 26269, Note_off_c, 5, 72, 64
14, 26397, Note_on_c, 5, 74, 68
14, 26510, Note_off_c, 5, 74, 64
14, 26637, Note_on_c, 5, 71, 61
14, 26806, Note_off_c, 5, 71, 64
14, 26869, Note_on_c, 5, 72, 76
14, 26984, Note_on_c, 5, 71, 74
14, 27009, Note_off_c, 5, 72, 64
14, 27096, Note_on_c, 5, 69, 63
14, 27107, Note_off_c, 5, 71, 64
14, 27220, Note_on_c, 5, 67, 72
14, 27226, Note_off_c, 5, 69, 64
14, 27288, Note_off_c, 5, 67, 64
14, 27356, Note_on_c, 5, 76, 78
14, 27462, Note_on_c, 5, 77, 70
14, 27475, Note_off_c, 5, 76, 64
14, 27590, Note_on_c, 5, 79, 70
14, 27594, Note_off_c, 5, 77, 64
14, 27705, Note_on_c, 5, 81, 74
14, 27709, Note_off_c, 5, 79, 64
14, 27810, Note_off_c, 5, 81, 64
14, 27828, Note_on_c, 5, 82, 82
14, 28253, Note_off_c, 5, 82, 64
14, 28316, Note_on_c, 5, 81, 66
14, 28431, Note_off_c, 5, 81, 64
14, 28556, Note_on_c, 5, 79, 63
14, 28675, Note_off_c, 5, 79, 64
14, 28793, Note_on_c, 5, 77, 64
14, 28921, Note_off_c, 5, 77, 64
14, 29031, Note_on_c, 5, 79, 74
14, 29144, Note_on_c, 5, 77, 68
14, 29171, Note_off_c, 5, 79, 64
14, 29270, Note_on_c, 5, 76, 63
14, 29286, Note_off_c, 5, 77, 64
14, 29380, Note_off_c, 5, 76, 64
14, 29383, Note_on_c, 5, 74, 72
14, 29486, Note_off_c, 5, 74, 64
14, 29508, Note_on_c, 5, 73, 68
14, 29603, Note_off_c, 5, 73, 64
14, 29628, Note_on_c, 5, 74, 78
14, 29720, Note_off_c, 5, 74, 64
14, 29747, Note_on_c, 5, 76, 78
14, 29867, Note_off_c, 5, 76, 64
14, 29992, Note_on_c, 5, 81, 76
14, 30400, Note_off_c, 5, 81, 64
14, 30479, Note_on_c, 5, 79, 76
14, 30586, Note_on_c, 5, 77, 70
14, 30615, Note_off_c, 5, 79, 64
14, 30701, Note_on_c, 5, 76, 63
14, 30718, Note_off_c, 5, 77, 64
14, 30825, Note_on_c, 5, 74, 70
14, 30829, Note_off_c, 5, 76, 64
14, 30911, Note_off_c, 5, 74, 64
14, 30951, Note_on_c, 5, 73, 66
14, 31067, Note_on_c, 5, 74, 66
14, 31093, Note_off_c, 5, 73, 64
14, 31195, Note_on_c, 5, 76, 70
14, 31215, Note_off_c, 5, 74, 64
14, 31303, Note_on_c, 5, 77, 68
14, 31323, Note_off_c, 5, 76, 64
14, 31384, Note_off_c, 5, 77, 64
14, 31434, Note_on_c, 5, 79, 78
14, 31840, Note_off_c, 5, 79, 64
14, 31920, Note_on_c, 5, 77, 78
14, 32030, Note_on_c, 5, 76, 68
14, 32058, Note_off_c, 5, 77, 64
14, 32154, Note_on_c, 5, 74, 58
14, 32167, Note_off_c, 5, 76, 64
14, 32264, Note_on_c, 5, 73, 49
14, 32284, Note_off_c, 5, 74, 64
14, 32358, Note_off_c, 5, 73, 64
14, 32397, Note_on_c, 5, 74, 80
14, 32482, Note_off_c, 5, 74, 64
14, 32510, Note_on_c, 5, 69, 64
14, 32582, Note_off_c, 5, 69, 64
14, 32627, Note_on_c, 5, 77, 80
14, 32741, Note_on_c, 5, 76, 78
14, 32771, Note_off_c, 5, 77, 64
14, 32858, Note_on_c, 5, 74, 60
14, 32871, Note_off_c, 5, 76, 64
14, 32977, Note_on_c, 5, 72, 66
14, 32994, Note_off_c, 5, 74, 64
14, 33051, Note_off_c, 5, 72, 64
14, 33101, Note_on_c, 5, 70, 54
14, 33217, Note_on_c, 5, 74, 74
14, 33234, Note_off_c, 5, 70, 64
14, 33315, Note_off_c, 5, 74, 64
14, 33343, Note_on_c, 5, 79, 80
14, 33397, Note_off_c, 5, 79, 64
14, 33467, Note_on_c, 5, 76, 78
14, 33525, Note_off_c, 5, 76, 64
14, 33593, Note_on_c, 5, 77, 78
14, 33911, Note_off_c, 5, 77, 64
14, 33950, Note_on_c, 5, 74, 72
14, 34005, Note_off_c, 5, 74, 64
14, 34066, Note_on_c, 5, 77, 78
14, 34178, Note_on_c, 5, 76, 76
14, 34203, Note_off_c, 5, 77, 64
14, 34265, Note_off_c, 5, 76, 64
14, 34296, Note_on_c, 5, 74, 68
14, 34405, Note_on_c, 5, 73, 56
14, 34406, Note_off_c, 5, 74, 64
14, 34496, Note_off_c, 5, 73, 64
14, 34542, Note_on_c, 5, 74, 74
14, 34916, Note_off_c, 5, 74, 64
14, 35030, Note_on_c, 5, 69, 63
14, 35105, Note_off_c, 5, 69, 64
14, 35148, Note_on_c, 5, 71, 72
14, 35213, Note_off_c, 5, 71, 64
14, 35270, Note_on_c, 5, 72, 80
14, 35428, Note_off_c, 5, 72, 64
14, 35510, Note_on_c, 5, 74, 76
14, 35623, Note_on_c, 5, 72, 66
14, 35649, Note_off_c, 5, 74, 64
14, 35741, Note_on_c, 5, 71, 62
14, 35761, Note_off_c, 5, 72, 64
14, 35861, Note_on_c, 5, 69, 66
14, 35866, Note_off_c, 5, 71, 64
14, 35946, Note_off_c, 5, 69, 64
14, 35981, Note_on_c, 5, 71, 85
14, 36091, Note_on_c, 5, 69, 60
14, 36096, Note_off_c, 5, 71, 64
14, 36166, Note_off_c, 5, 69, 64
14, 36207, Note_on_c, 5, 67, 66
14, 36307, Note_off_c, 5, 67, 64
14, 36328, Note_on_c, 5, 69, 70
14, 36426, Note_off_c, 5, 69, 64
14, 36449, Note_on_c, 5, 71, 64
14, 36548, Note_off_c, 5, 71, 64
14, 36570, Note_on_c, 5, 72, 66
14, 36673, Note_off_c, 5, 72, 64
14, 36693, Note_on_c, 5, 74, 76
14, 36808, Note_off_c, 5, 74, 64
14, 36810, Note_on_c, 5, 76, 70
14, 36909, Note_off_c, 5, 76, 64
14, 36941, Note_on_c, 5, 77, 80
14, 37069, Note_off_c, 5, 77, 64
14, 37194, Note_on_c, 5, 76, 70
14, 37308, Note_off_c, 5, 76, 64
14, 37436, Note_on_c, 5, 74, 82
14, 37548, Note_off_c, 5, 74, 64
14, 37549, Note_on_c, 5, 72, 66
14, 37633, Note_off_c, 5, 72, 64
14, 37664, Note_on_c, 5, 71, 72
14, 37771, Note_off_c, 5, 71, 64
14, 37778, Note_on_c, 5, 72, 78
14, 37887, Note_off_c, 5, 72, 64
14, 37901, Note_on_c, 5, 74, 72
14, 38000, Note_off_c, 5, 74, 64
14, 38019, Note_on_c, 5, 76, 78
14, 38118, Note_off_c, 5, 76, 64
14, 38143, Note_on_c, 5, 77, 78
14, 38238, Note_off_c, 5, 77, 64
14, 38260, Note_on_c, 5, 79, 78
14, 38343, Note_off_c, 5, 79, 64
14, 38382, Note_on_c, 5, 81, 78
14, 38504, Note_off_c, 5, 81, 64
14, 38625, Note_on_c, 5, 79, 80
14, 38967, Note_off_c, 5, 79, 64
14, 39108, Note_on_c, 5, 70, 66
14, 39209, Note_off_c, 5, 70, 64
14, 39209, Note_on_c, 5, 69, 59
14, 39294, Note_off_c, 5, 69, 64
14, 39335, Note_on_c, 5, 70, 66
14, 39436, Note_off_c, 5, 70, 64
14, 39454, Note_on_c, 5, 67, 68
14, 39540, Note_off_c, 5, 67, 64
14, 39590, Note_on_c, 5, 69, 82
14, 39686, Note_off_c, 5, 69, 64
14, 39826, Note_on_c, 5, 74, 85
14, 39935, Note_off_c, 5, 74, 64
14, 40066, Note_on_c, 5, 72, 82
14, 40098, Note_on_c, 5, 71, 85
14, 40104, Note_off_c, 5, 72, 64
14, 40135, Note_on_c, 5, 72, 68
14, 40146, Note_off_c, 5, 71, 64
14, 40171, Note_on_c, 5, 71, 72
14, 40180, Note_off_c, 5, 72, 64
14, 40233, Note_off_c, 5, 71, 64
14, 40319, Note_on_c, 5, 72, 70
14, 40819, Note_off_c, 5, 72, 64
14, 52540, Note_on_c, 5, 74, 57
14, 52656, Note_on_c, 5, 77, 66
14, 52665, Note_off_c, 5, 74, 64
14, 52783, Note_on_c, 5, 76, 64
14, 52808, Note_off_c, 5, 77, 64
14, 52906, Note_on_c, 5, 74, 53
14, 52923, Note_off_c, 5, 76, 64
14, 53032, Note_on_c, 5, 72, 60
14, 53036, Note_off_c, 5, 74, 64
14, 53142, Note_on_c, 5, 71, 58
14, 53164, Note_off_c, 5, 72, 64
14, 53255, Note_off_c, 5, 71, 64
14, 53261, Note_on_c, 5, 73, 47
14, 53379, Note_on_c, 5, 69, 57
14, 53411, Note_off_c, 5, 73, 64
14, 53501, Note_on_c, 5, 71, 55
14, 53522, Note_off_c, 5, 69, 64
14, 53625, Note_on_c, 5, 73, 48
14, 53639, Note_off_c, 5, 71, 64
14, 53744, Note_on_c, 5, 74, 70
14, 53757, Note_off_c, 5, 73, 64
14, 53855, Note_on_c, 5, 73, 53
14, 53859, Note_off_c, 5, 74, 64
14, 53967, Note_off_c, 5, 73, 64
14, 53980, Note_on_c, 5, 76, 62
14, 54099, Note_off_c, 5, 76, 64
14, 54103, Note_on_c, 5, 74, 62
14, 54194, Note_off_c, 5, 74, 64
14, 54219, Note_on_c, 5, 77, 66
14, 54322, Note_off_c, 5, 77, 64
14, 54334, Note_on_c, 5, 76, 63
14, 54424, Note_off_c, 5, 76, 64
14, 54467, Note_on_c, 5, 82, 68
14, 54575, Note_off_c, 5, 82, 64
14, 54581, Note_on_c, 5, 81, 68
14, 54664, Note_off_c, 5, 81, 64
14, 54711, Note_on_c, 5, 81, 68
14, 54825, Note_on_c, 5, 77, 59
14, 54850, Note_off_c, 5, 81, 64
14, 54959, Note_on_c, 5, 76, 49
14, 54965, Note_off_c, 5, 77, 64
14, 55073, Note_off_c, 5, 76, 64
14, 55073, Note_on_c, 5, 74, 57
14, 55185, Note_on_c, 5, 73, 52
14, 55190, Note_off_c, 5, 74, 64
14, 55309, Note_on_c, 5, 74, 66
14, 55322, Note_off_c, 5, 73, 64
14, 55415, Note_off_c, 5, 74, 64
14, 55428, Note_on_c, 5, 76, 63
14, 55544, Note_on_c, 5, 77, 60
14, 55560, Note_off_c, 5, 76, 64
14, 55675, Note_on_c, 5, 79, 58
14, 55679, Note_off_c, 5, 77, 64
14, 55783, Note_on_c, 5, 76, 60
14, 55795, Note_off_c, 5, 79, 64
14, 55862, Note_off_c, 5, 76, 64
14, 55901, Note_on_c, 5, 77, 61
14, 56012, Note_off_c, 5, 77, 64
14, 56017, Note_on_c, 5, 74, 60
14, 56107, Note_off_c, 5, 74, 64
14, 56137, Note_on_c, 5, 73, 58
14, 56250, Note_on_c, 5, 71, 59
14, 56276, Note_off_c, 5, 73, 64
14, 56376, Note_on_c, 5, 73, 52
14, 56388, Note_off_c, 5, 71, 64
14, 56489, Note_on_c, 5, 74, 58
14, 56506, Note_off_c, 5, 73, 64
14, 56624, Note_on_c, 5, 76, 63
14, 56625, Note_off_c, 5, 74, 64
14, 56732, Note_on_c, 5, 77, 68
14, 56744, Note_off_c, 5, 76, 64
14, 56859, Note_on_c, 5, 79, 60
14, 56866, Note_off_c, 5, 77, 64
14, 56975, Note_on_c, 5, 77, 55
14, 56986, Note_off_c, 5, 79, 64
14, 57102, Note_on_c, 5, 79, 52
14, 57103, Note_off_c, 5, 77, 64
14, 57222, Note_on_c, 5, 81, 51
14, 57223, Note_off_c, 5, 79, 64
14, 57348, Note_on_c, 5, 82, 54
14, 57358, Note_off_c, 5, 81, 64
14, 57458, Note_on_c, 5, 79, 45
14, 57464, Note_off_c, 5, 82, 64
14, 57572, Note_off_c, 5, 79, 64
14, 57581, Note_on_c, 5, 81, 51
14, 57701, Note_on_c, 5, 82, 49
14, 57716, Note_off_c, 5, 81, 64
14, 57824, Note_on_c, 5, 81, 57
14, 57845, Note_off_c, 5, 82, 64
14, 57943, Note_on_c, 5, 79, 48
14, 57966, Note_off_c, 5, 81, 64
14, 58068, Note_on_c, 5, 77, 51
14, 58075, Note_off_c, 5, 79, 64
14, 58175, Note_on_c, 5, 76, 56
14, 58188, Note_off_c, 5, 77, 64
14, 58277, Note_off_c, 5, 76, 64
14, 58300, Note_on_c, 5, 77, 57
14, 59095, Note_off_c, 5, 77, 64
14, 59129, Note_on_c, 5, 77, 58
14, 59259, Note_on_c, 5, 76, 59
14, 59264, Note_off_c, 5, 77, 64
14, 59370, Note_off_c, 5, 76, 64
14, 59378, Note_on_c, 5, 73, 54
14, 59499, Note_on_c, 5, 74, 58
14, 59512, Note_off_c, 5, 73, 64
14, 59618, Note_off_c, 5, 74, 64
14, 59620, Note_on_c, 5, 76, 58
14, 59720, Note_off_c, 5, 76, 64
14, 59752, Note_on_c, 5, 69, 59
14, 59882, Note_off_c, 5, 69, 64
14, 59990, Note_on_c, 5, 81, 58
14, 60106, Note_off_c, 5, 81, 64
14, 60228, Note_on_c, 5, 76, 61
14, 60374, Note_off_c, 5, 76, 64
14, 60473, Note_on_c, 5, 77, 59
14, 60581, Note_on_c, 5, 76, 57
14, 60601, Note_off_c, 5, 77, 64
14, 60704, Note_on_c, 5, 77, 57
14, 60721, Note_off_c, 5, 76, 64
14, 60819, Note_on_c, 5, 79, 52
14, 60824, Note_off_c, 5, 77, 64
14, 60940, Note_on_c, 5, 77, 60
14, 60954, Note_off_c, 5, 79, 64
14, 61055, Note_on_c, 5, 76, 52
14, 61064, Note_off_c, 5, 77, 64
14, 61178, Note_off_c, 5, 76, 64
14, 61194, Note_on_c, 5, 74, 57
14, 62021, Note_off_c, 5, 74, 64
14, 62024, Note_on_c, 5, 72, 59
14, 62143, Note_on_c, 5, 71, 59
14, 62151, Note_off_c, 5, 72, 64
14, 62251, Note_on_c, 5, 72, 60
14, 62263, Note_off_c, 5, 71, 64
14, 62390, Note_on_c, 5, 74, 62
14, 62395, Note_off_c, 5, 72, 64
14, 62507, Note_on_c, 5, 76, 62
14, 62518, Note_off_c, 5, 74, 64
14, 62598, Note_off_c, 5, 76, 64
14, 62626, Note_on_c, 5, 77, 62
14, 62744, Note_on_c, 5, 76, 60
14, 62761, Note_off_c, 5, 77, 64
14, 62869, Note_on_c, 5, 74, 48
14, 62885, Note_off_c, 5, 76, 64
14, 62982, Note_on_c, 5, 76, 57
14, 62989, Note_off_c, 5, 74, 64
14, 63107, Note_on_c, 5, 74, 55
14, 63116, Note_off_c, 5, 76, 64
14, 63227, Note_on_c, 5, 72, 64
14, 63235, Note_off_c, 5, 74, 64
14, 63335, Note_off_c, 5, 72, 64
14, 63335, Note_on_c, 5, 71, 60
14, 63462, Note_on_c, 5, 69, 46
14, 63471, Note_off_c, 5, 71, 64
14, 63580, Note_on_c, 5, 67, 54
14, 63587, Note_off_c, 5, 69, 64
14, 63700, Note_on_c, 5, 69, 58
14, 63718, Note_off_c, 5, 67, 64
14, 63822, Note_on_c, 5, 71, 56
14, 63833, Note_off_c, 5, 69, 64
14, 63933, Note_on_c, 5, 72, 51
14, 63934, Note_off_c, 5, 71, 64
14, 64053, Note_off_c, 5, 72, 64
14, 64060, Note_on_c, 5, 74, 59
14, 64173, Note_on_c, 5, 76, 61
14, 64196, Note_off_c, 5, 74, 64
14, 64304, Note_on_c, 5, 77, 60
14, 64312, Note_off_c, 5, 76, 64
14, 64415, Note_on_c, 5, 74, 53
14, 64430, Note_off_c, 5, 77, 64
14, 64540, Note_on_c, 5, 76, 61
14, 64556, Note_off_c, 5, 74, 64
14, 64667, Note_on_c, 5, 77, 57
14, 64679, Note_off_c, 5, 76, 64
14, 64774, Note_off_c, 5, 77, 64
14, 64793, Note_on_c, 5, 79, 55
14, 64903, Note_on_c, 5, 81, 56
14, 64913, Note_off_c, 5, 79, 64
14, 65030, Note_on_c, 5, 79, 59
14, 65048, Note_off_c, 5, 81, 64
14, 65139, Note_on_c, 5, 77, 55
14, 65153, Note_off_c, 5, 79, 64
14, 65267, Note_on_c, 5, 76, 52
14, 65271, Note_off_c, 5, 77, 64
14, 65374, Note_on_c, 5, 74, 61
14, 65377, Note_off_c, 5, 76, 64
14, 65488, Note_off_c, 5, 74, 64
14, 65505, Note_on_c, 5, 72, 55
14, 65608, Note_off_c, 5, 72, 64
14, 65611, Note_on_c, 5, 79, 53
14, 65737, Note_on_c, 5, 77, 58
14, 65745, Note_off_c, 5, 79, 64
14, 65855, Note_off_c, 5, 77, 64
14, 65859, Note_on_c, 5, 76, 57
14, 65978, Note_on_c, 5, 74, 45
14, 65985, Note_off_c, 5, 76, 64
14, 66092, Note_on_c, 5, 76, 57
14, 66103, Note_off_c, 5, 74, 64
14, 66199, Note_off_c, 5, 76, 64
14, 66227, Note_on_c, 5, 72, 59
14, 66342, Note_on_c, 5, 76, 53
14, 66356, Note_off_c, 5, 72, 64
14, 66466, Note_on_c, 5, 74, 59
14, 66484, Note_off_c, 5, 76, 64
14, 66590, Note_on_c, 5, 72, 51
14, 66603, Note_off_c, 5, 74, 64
14, 66715, Note_on_c, 5, 71, 57
14, 66722, Note_off_c, 5, 72, 64
14, 66832, Note_on_c, 5, 72, 59
14, 66843, Note_off_c, 5, 71, 64
14, 66929, Note_off_c, 5, 72, 64
14, 66949, Note_on_c, 5, 74, 59
14, 67063, Note_on_c, 5, 77, 51
14, 67076, Note_off_c, 5, 74, 64
14, 67191, Note_on_c, 5, 76, 59
14, 67213, Note_off_c, 5, 77, 64
14, 67308, Note_on_c, 5, 74, 59
14, 67328, Note_off_c, 5, 76, 64
14, 67431, Note_on_c, 5, 72, 44
14, 67452, Note_off_c, 5, 74, 64
14, 67544, Note_on_c, 5, 71, 52
14, 67548, Note_off_c, 5, 72, 64
14, 67663, Note_on_c, 5, 73, 52
14, 67667, Note_off_c, 5, 71, 64
14, 67783, Note_on_c, 5, 69, 52
14, 67815, Note_off_c, 5, 73, 64
14, 67905, Note_on_c, 5, 71, 57
14, 67918, Note_off_c, 5, 69, 64
14, 68027, Note_on_c, 5, 73, 50
14, 68038, Note_off_c, 5, 71, 64
14, 68145, Note_on_c, 5, 74, 55
14, 68163, Note_off_c, 5, 73, 64
14, 68255, Note_on_c, 5, 73, 50
14, 68260, Note_off_c, 5, 74, 64
14, 68361, Note_off_c, 5, 73, 64
14, 68383, Note_on_c, 5, 76, 63
14, 68491, Note_on_c, 5, 74, 44
14, 68496, Note_off_c, 5, 76, 64
14, 68574, Note_off_c, 5, 74, 64
14, 68610, Note_on_c, 5, 77, 63
14, 68711, Note_off_c, 5, 77, 64
14, 68728, Note_on_c, 5, 76, 53
14, 68816, Note_off_c, 5, 76, 64
14, 68866, Note_on_c, 5, 82, 63
14, 68977, Note_off_c, 5, 82, 64
14, 68979, Note_on_c, 5, 81, 66
14, 69056, Note_off_c, 5, 81, 64
14, 69110, Note_on_c, 5, 81, 60
14, 69219, Note_on_c, 5, 77, 57
14, 69240, Note_off_c, 5, 81, 64
14, 69351, Note_on_c, 5, 76, 47
14, 69355, Note_off_c, 5, 77, 64
14, 69466, Note_off_c, 5, 76, 64
14, 69478, Note_on_c, 5, 74, 57
14, 69582, Note_on_c, 5, 73, 48
14, 69590, Note_off_c, 5, 74, 64
14, 69708, Note_on_c, 5, 74, 59
14, 69721, Note_off_c, 5, 73, 64
14, 69807, Note_off_c, 5, 74, 64
14, 69836, Note_on_c, 5, 76, 66
14, 69941, Note_on_c, 5, 77, 68
14, 69959, Note_off_c, 5, 76, 64
14, 70071, Note_on_c, 5, 79, 58
14, 70088, Note_off_c, 5, 77, 64
14, 70190, Note_on_c, 5, 76, 54
14, 70202, Note_off_c, 5, 79, 64
14, 70268, Note_off_c, 5, 76, 64
14, 70306, Note_on_c, 5, 77, 59
14, 70422, Note_off_c, 5, 77, 64
14, 70425, Note_on_c, 5, 74, 60
14, 70510, Note_off_c, 5, 74, 64
14, 70550, Note_on_c, 5, 73, 55
14, 70660, Note_on_c, 5, 71, 60
14, 70685, Note_off_c, 5, 73, 64
14, 70784, Note_on_c, 5, 73, 47
14, 70790, Note_off_c, 5, 71, 64
14, 70897, Note_on_c, 5, 74, 64
14, 70913, Note_off_c, 5, 73, 64
14, 71025, Note_off_c, 5, 74, 64
14, 71025, Note_on_c, 5, 76, 58
14, 71132, Note_on_c, 5, 77, 63
14, 71141, Note_off_c, 5, 76, 64
14, 71235, Note_off_c, 5, 77, 64
14, 71256, Note_on_c, 5, 79, 66
14, 71364, Note_on_c, 5, 77, 52
14, 71384, Note_off_c, 5, 79, 64
14, 71491, Note_on_c, 5, 79, 51
14, 71510, Note_off_c, 5, 77, 64
14, 71608, Note_on_c, 5, 81, 58
14, 71623, Note_off_c, 5, 79, 64
14, 71733, Note_on_c, 5, 82, 54
14, 71747, Note_off_c, 5, 81, 64
14, 71855, Note_on_c, 5, 79, 45
14, 71865, Note_off_c, 5, 82, 64
14, 71966, Note_off_c, 5, 79, 64
14, 71974, Note_on_c, 5, 81, 55
14, 72096, Note_on_c, 5, 82, 51
14, 72117, Note_off_c, 5, 81, 64
14, 72225, Note_on_c, 5, 81, 55
14, 72257, Note_off_c, 5, 82, 64
14, 72347, Note_on_c, 5, 79, 48
14, 72365, Note_off_c, 5, 81, 64
14, 72464, Note_on_c, 5, 77, 52
14, 72477, Note_off_c, 5, 79, 64
14, 72579, Note_on_c, 5, 76, 53
14, 72596, Note_off_c, 5, 77, 64
14, 72675, Note_off_c, 5, 76, 64
14, 72704, Note_on_c, 5, 77, 58
14, 73490, Note_off_c, 5, 77, 64
14, 73531, Note_on_c, 5, 77, 60
14, 73659, Note_on_c, 5, 76, 59
14, 73673, Note_off_c, 5, 77, 64
14, 73763, Note_off_c, 5, 76, 64
14, 73769, Note_on_c, 5, 73, 49
14, 73898, Note_on_c, 5, 74, 57
14, 73907, Note_off_c, 5, 73, 64
14, 74014, Note_off_c, 5, 74, 64
14, 74015, Note_on_c, 5, 76, 60
14, 74126, Note_off_c, 5, 76, 64
14, 74150, Note_on_c, 5, 69, 59
14, 74299, Note_off_c, 5, 69, 64
14, 74396, Note_on_c, 5, 81, 57
14, 74525, Note_off_c, 5, 81, 64
14, 74616, Note_on_c, 5, 77, 60
14, 74659, Note_off_c, 5, 77, 64
14, 74664, Note_on_c, 5, 76, 43
14, 74699, Note_on_c, 5, 77, 60
14, 74705, Note_off_c, 5, 76, 64
14, 74738, Note_on_c, 5, 76, 59
14, 74744, Note_off_c, 5, 77, 64
14, 74836, Note_off_c, 5, 76, 64
14, 74865, Note_on_c, 5, 77, 61
14, 74981, Note_on_c, 5, 76, 49
14, 74996, Note_off_c, 5, 77, 64
14, 75108, Note_on_c, 5, 77, 59
14, 75120, Note_off_c, 5, 76, 64
14, 75221, Note_on_c, 5, 79, 56
14, 75240, Note_off_c, 5, 77, 64
14, 75338, Note_on_c, 5, 77, 57
14, 75357, Note_off_c, 5, 79, 64
14, 75459, Note_on_c, 5, 76, 48
14, 75474, Note_off_c, 5, 77, 64
14, 75567, Note_off_c, 5, 76, 64
14, 75590, Note_on_c, 5, 74, 48
14, 76420, Note_off_c, 5, 74, 64
14, 76424, Note_on_c, 5, 72, 54
14, 76540, Note_off_c, 5, 72, 64
14, 76547, Note_on_c, 5, 71, 58
14, 76660, Note_on_c, 5, 72, 64
14, 76676, Note_off_c, 5, 71, 64
14, 76779, Note_on_c, 5, 74, 61
14, 76794, Note_off_c, 5, 72, 64
14, 76901, Note_on_c, 5, 76, 60
14, 76916, Note_off_c, 5, 74, 64
14, 76988, Note_off_c, 5, 76, 64
14, 77023, Note_on_c, 5, 77, 70
14, 77142, Note_on_c, 5, 76, 59
14, 77161, Note_off_c, 5, 77, 64
14, 77265, Note_on_c, 5, 74, 48
14, 77281, Note_off_c, 5, 76, 64
14, 77378, Note_on_c, 5, 76, 57
14, 77389, Note_off_c, 5, 74, 64
14, 77496, Note_on_c, 5, 74, 57
14, 77513, Note_off_c, 5, 76, 64
14, 77617, Note_on_c, 5, 72, 54
14, 77627, Note_off_c, 5, 74, 64
14, 77733, Note_off_c, 5, 72, 64
14, 77752, Note_on_c, 5, 71, 58
14, 77871, Note_off_c, 5, 71, 64
14, 77871, Note_on_c, 5, 69, 49
14, 77978, Note_on_c, 5, 67, 49
14, 77997, Note_off_c, 5, 69, 64
14, 78100, Note_on_c, 5, 69, 59
14, 78116, Note_off_c, 5, 67, 64
14, 78226, Note_on_c, 5, 71, 63
14, 78235, Note_off_c, 5, 69, 64
14, 78337, Note_off_c, 5, 71, 64
14, 78341, Note_on_c, 5, 72, 55
14, 78453, Note_off_c, 5, 72, 64
14, 78457, Note_on_c, 5, 74, 68
14, 78573, Note_on_c, 5, 76, 60
14, 78586, Note_off_c, 5, 74, 64
14, 78700, Note_on_c, 5, 77, 57
14, 78710, Note_off_c, 5, 76, 64
14, 78813, Note_on_c, 5, 74, 57
14, 78818, Note_off_c, 5, 77, 64
14, 78939, Note_on_c, 5, 76, 59
14, 78954, Note_off_c, 5, 74, 64
14, 79064, Note_on_c, 5, 77, 63
14, 79079, Note_off_c, 5, 76, 64
14, 79164, Note_off_c, 5, 77, 64
14, 79180, Note_on_c, 5, 79, 59
14, 79291, Note_on_c, 5, 81, 57
14, 79298, Note_off_c, 5, 79, 64
14, 79424, Note_on_c, 5, 79, 60
14, 79432, Note_off_c, 5, 81, 64
14, 79541, Note_on_c, 5, 77, 57
14, 79554, Note_off_c, 5, 79, 64
14, 79671, Note_on_c, 5, 76, 52
14, 79673, Note_off_c, 5, 77, 64
14, 79781, Note_off_c, 5, 76, 64
14, 79783, Note_on_c, 5, 74, 60
14, 79892, Note_off_c, 5, 74, 64
14, 79913, Note_on_c, 5, 72, 57
14, 80006, Note_off_c, 5, 72, 64
14, 80029, Note_on_c, 5, 79, 51
14, 80146, Note_on_c, 5, 77, 63
14, 80164, Note_off_c, 5, 79, 64
14, 80269, Note_on_c, 5, 76, 64
14, 80278, Note_off_c, 5, 77, 64
14, 80389, Note_on_c, 5, 74, 48
14, 80397, Note_off_c, 5, 76, 64
14, 80507, Note_on_c, 5, 76, 58
14, 80519, Note_off_c, 5, 74, 64
14, 80615, Note_off_c, 5, 76, 64
14, 80645, Note_on_c, 5, 72, 54
14, 81109, Note_off_c, 5, 72, 64
14, 92645, Note_on_c, 5, 74, 85
14, 92736, Note_off_c, 5, 74, 64
14, 92874, Note_on_c, 5, 71, 74
14, 93039, Note_off_c, 5, 71, 64
14, 93107, Note_on_c, 5, 72, 76
14, 93220, Note_on_c, 5, 71, 82
14, 93248, Note_off_c, 5, 72, 64
14, 93342, Note_on_c, 5, 69, 64
14, 93355, Note_off_c, 5, 71, 64
14, 93455, Note_off_c, 5, 69, 64
14, 93455, Note_on_c, 5, 67, 74
14, 93514, Note_off_c, 5, 67, 64
14, 93590, Note_on_c, 5, 76, 85
14, 93699, Note_on_c, 5, 77, 68
14, 93717, Note_off_c, 5, 76, 64
14, 93812, Note_on_c, 5, 79, 61
14, 93826, Note_off_c, 5, 77, 64
14, 93934, Note_on_c, 5, 81, 68
14, 93938, Note_off_c, 5, 79, 64
14, 94032, Note_off_c, 5, 81, 64
14, 94065, Note_on_c, 5, 82, 64
14, 94470, Note_off_c, 5, 82, 64
14, 94548, Note_on_c, 5, 81, 68
14, 94656, Note_off_c, 5, 81, 64
14, 94788, Note_on_c, 5, 79, 68
14, 94897, Note_off_c, 5, 79, 64
14, 95021, Note_on_c, 5, 77, 63
14, 95171, Note_off_c, 5, 77, 64
14, 95264, Note_on_c, 5, 79, 74
14, 95371, Note_on_c, 5, 77, 68
14, 95400, Note_off_c, 5, 79, 64
14, 95504, Note_on_c, 5, 76, 63
14, 95517, Note_off_c, 5, 77, 64
14, 95617, Note_off_c, 5, 76, 64
14, 95620, Note_on_c, 5, 74, 70
14, 95701, Note_off_c, 5, 74, 64
14, 95738, Note_on_c, 5, 73, 64
14, 95823, Note_off_c, 5, 73, 64
14, 95854, Note_on_c, 5, 74, 66
14, 95939, Note_off_c, 5, 74, 64
14, 95984, Note_on_c, 5, 76, 66
14, 96102, Note_off_c, 5, 76, 64
14, 96223, Note_on_c, 5, 81, 76
14, 96633, Note_off_c, 5, 81, 64
14, 96708, Note_on_c, 5, 79, 72
14, 96821, Note_on_c, 5, 77, 70
14, 96845, Note_off_c, 5, 79, 64
14, 96940, Note_on_c, 5, 76, 59
14, 96947, Note_off_c, 5, 77, 64
14, 97064, Note_on_c, 5, 74, 66
14, 97069, Note_off_c, 5, 76, 64
14, 97149, Note_off_c, 5, 74, 64
14, 97183, Note_on_c, 5, 73, 64
14, 97298, Note_on_c, 5, 74, 64
14, 97320, Note_off_c, 5, 73, 64
14, 97431, Note_on_c, 5, 76, 68
14, 97439, Note_off_c, 5, 74, 64
14, 97542, Note_on_c, 5, 77, 74
14, 97562, Note_off_c, 5, 76, 64
14, 97612, Note_off_c, 5, 77, 64
14, 97673, Note_on_c, 5, 79, 74
14, 98102, Note_off_c, 5, 79, 64
14, 98158, Note_on_c, 5, 77, 76
14, 98272, Note_on_c, 5, 76, 60
14, 98300, Note_off_c, 5, 77, 64
14, 98399, Note_on_c, 5, 74, 63
14, 98404, Note_off_c, 5, 76, 64
14, 98512, Note_on_c, 5, 73, 60
14, 98519, Note_off_c, 5, 74, 64
14, 98597, Note_off_c, 5, 73, 64
14, 98636, Note_on_c, 5, 74, 76
14, 98700, Note_off_c, 5, 74, 64
14, 98752, Note_on_c, 5, 69, 68
14, 98820, Note_off_c, 5, 69, 64
14, 98869, Note_on_c, 5, 77, 80
14, 98985, Note_on_c, 5, 76, 74
14, 99014, Note_off_c, 5, 77, 64
14, 99105, Note_on_c, 5, 74, 60
14, 99111, Note_off_c, 5, 76, 64
14, 99216, Note_on_c, 5, 72, 66
14, 99228, Note_off_c, 5, 74, 64
14, 99286, Note_off_c, 5, 72, 64
14, 99340, Note_on_c, 5, 70, 68
14, 99451, Note_on_c, 5, 74, 72
14, 99468, Note_off_c, 5, 70, 64
14, 99526, Note_off_c, 5, 74, 64
14, 99579, Note_on_c, 5, 79, 82
14, 99635, Note_off_c, 5, 79, 64
14, 99701, Note_on_c, 5, 76, 70
14, 99764, Note_off_c, 5, 76, 64
14, 99832, Note_on_c, 5, 77, 76
14, 100127, Note_off_c, 5, 77, 64
14, 100185, Note_on_c, 5, 74, 72
14, 100244, Note_off_c, 5, 74, 64
14, 100306, Note_on_c, 5, 77, 76
14, 100417, Note_on_c, 5, 76, 76
14, 100439, Note_off_c, 5, 77, 64
14, 100486, Note_off_c, 5, 76, 64
14, 100536, Note_on_c, 5, 74, 70
14, 100646, Note_on_c, 5, 73, 57
14, 100652, Note_off_c, 5, 74, 64
14, 100728, Note_off_c, 5, 73, 64
14, 100783, Note_on_c, 5, 74, 66
14, 101115, Note_off_c, 5, 74, 64
14, 101267, Note_on_c, 5, 69, 68
14, 101333, Note_off_c, 5, 69, 64
14, 101391, Note_on_c, 5, 71, 70
14, 101452, Note_off_c, 5, 71, 64
14, 101513, Note_on_c, 5, 72, 66
14, 101675, Note_off_c, 5, 72, 64
14, 101756, Note_on_c, 5, 74, 74
14, 101862, Note_on_c, 5, 72, 70
14, 101894, Note_off_c, 5, 74, 64
14, 101988, Note_on_c, 5, 71, 60
14, 102014, Note_off_c, 5, 72, 64
14, 102107, Note_on_c, 5, 69, 63
14, 102112, Note_off_c, 5, 71, 64
14, 102187, Note_off_c, 5, 69, 64
14, 102232, Note_on_c, 5, 71, 74
14, 102334, Note_off_c, 5, 71, 64
14, 102351, Note_on_c, 5, 69, 70
14, 102429, Note_off_c, 5, 69, 64
14, 102464, Note_on_c, 5, 67, 68
14, 102570, Note_off_c, 5, 67, 64
14, 102577, Note_on_c, 5, 69, 63
14, 102685, Note_off_c, 5, 69, 64
14, 102712, Note_on_c, 5, 71, 72
14, 102798, Note_off_c, 5, 71, 64
14, 102817, Note_on_c, 5, 72, 63
14, 102918, Note_off_c, 5, 72, 64
14, 102941, Note_on_c, 5, 74, 70
14, 103046, Note_off_c, 5, 74, 64
14, 103053, Note_on_c, 5, 76, 66
14, 103143, Note_off_c, 5, 76, 64
14, 103174, Note_on_c, 5, 77, 80
14, 103305, Note_off_c, 5, 77, 64
14, 103425, Note_on_c, 5, 76, 68
14, 103568, Note_off_c, 5, 76, 64
14, 103669, Note_on_c, 5, 74, 68
14, 103780, Note_off_c, 5, 74, 64
14, 103786, Note_on_c, 5, 72, 64
14, 103887, Note_off_c, 5, 72, 64
14, 103904, Note_on_c, 5, 71, 62
14, 104005, Note_off_c, 5, 71, 64
14, 104015, Note_on_c, 5, 72, 66
14, 104121, Note_off_c, 5, 72, 64
14, 104142, Note_on_c, 5, 74, 68
14, 104234, Note_off_c, 5, 74, 64
14, 104250, Note_on_c, 5, 76, 68
14, 104340, Note_off_c, 5, 76, 64
14, 104380, Note_on_c, 5, 77, 70
14, 104469, Note_off_c, 5, 77, 64
14, 104497, Note_on_c, 5, 79, 72
14, 104588, Note_off_c, 5, 79, 64
14, 104628, Note_on_c, 5, 81, 82
14, 104744, Note_off_c, 5, 81, 64
14, 104865, Note_on_c, 5, 79, 82
14, 105232, Note_off_c, 5, 79, 64
14, 105350, Note_on_c, 5, 70, 63
14, 105442, Note_off_c, 5, 70, 64
14, 105462, Note_on_c, 5, 69, 60
14, 105544, Note_off_c, 5, 69, 64
14, 105579, Note_on_c, 5, 70, 62
14, 105682, Note_off_c, 5, 70, 64
14, 105701, Note_on_c, 5, 67, 68
14, 105789, Note_off_c, 5, 67, 64
14, 105828, Note_on_c, 5, 69, 74
14, 105935, Note_off_c, 5, 69, 64
14, 106072, Note_on_c, 5, 74, 80
14, 106172, Note_off_c, 5, 74, 64
14, 106305, Note_on_c, 5, 71, 70
14, 106412, Note_off_c, 5, 71, 64
14, 106554, Note_on_c, 5, 72, 70
14, 106909, Note_off_c, 5, 72, 64
14, 107037, Note_on_c, 5, 74, 68
14, 107150, Note_off_c, 5, 74, 64
14, 107277, Note_on_c, 5, 71, 61
14, 107446, Note_off_c, 5, 71, 64
14, 107509, Note_on_c, 5, 72, 76
14, 107624, Note_on_c, 5, 71, 74
14, 107649, Note_off_c, 5, 72, 64
14, 107736, Note_on_c, 5, 69, 63
14, 107747, Note_off_c, 5, 71, 64
14, 107860, Note_on_c, 5, 67, 72
14, 107866, Note_off_c, 5, 69, 64
14, 107928, Note_off_c, 5, 67, 64
14, 107996, Note_on_c, 5, 76, 78
14, 108102, Note_on_c, 5, 77, 70
14, 108115, Note_off_c, 5, 76, 64
14, 108230, Note_on_c, 5, 79, 70
14, 108234, Note_off_c, 5, 77, 64
14, 108345, Note_on_c, 5, 81, 74
14, 108349, Note_off_c, 5, 79, 64
14, 108450, Note_off_c, 5, 81, 64
14, 108468, Note_on_c, 5, 82, 82
14, 108893, Note_off_c, 5, 82, 64
14, 108956, Note_on_c, 5, 81, 66
14, 109071, Note_off_c, 5, 81, 64
14, 109196, Note_on_c, 5, 79, 63
14, 109315, Note_off_c, 5, 79, 64
14, 109433, Note_on_c, 5, 77, 64
14, 109561, Note_off_c, 5, 77, 64
14, 109671, Note_on_c, 5, 79, 74
14, 109784, Note_on_c, 5, 77, 68
14, 109811, Note_off_c, 5, 79, 64
14, 109910, Note_on_c, 5, 76, 63
14, 109926, Note_off_c, 5, 77, 64
14, 110020, Note_off_c, 5, 76, 64
14, 110023, Note_on_c, 5, 74, 72
14, 110126, Note_off_c, 5, 74, 64
14, 110148, Note_on_c, 5, 73, 68
14, 110243, Note_off_c, 5, 73, 64
14, 110268, Note_on_c, 5, 74, 78
14, 110360, Note_off_c, 5, 74, 64
14, 110387, Note_on_c, 5, 76, 78
14, 110507, Note_off_c, 5, 76, 64
14, 110632, Note_on_c, 5, 81, 76
14, 111040, Note_off_c, 5, 81, 64
14, 111119, Note_on_c, 5, 79, 76
14, 111226, Note_on_c, 5, 77, 70
14, 111255, Note_off_c, 5, 79, 64
14, 111341, Note_on_c, 5, 76, 63
14, 111358, Note_off_c, 5, 77, 64
14, 111465, Note_on_c, 5, 74, 70
14, 111469, Note_off_c, 5, 76, 64
14, 111551, Note_off_c, 5, 74, 64
14, 111591, Note_on_c, 5, 73, 66
14, 111707, Note_on_c, 5, 74, 66
14, 111733, Note_off_c, 5, 73, 64
14, 111835, Note_on_c, 5, 76, 70
14, 111855, Note_off_c, 5, 74, 64
14, 111943, Note_on_c, 5, 77, 68
14, 111963, Note_off_c, 5, 76, 64
14, 112024, Note_off_c, 5, 77, 64
14, 112074, Note_on_c, 5, 79, 78
14, 112480, Note_off_c, 5, 79, 64
14, 112560, Note_on_c, 5, 77, 78
14, 112670, Note_on_c, 5, 76, 68
14, 112698, Note_off_c, 5, 77, 64
14, 112794, Note_on_c, 5, 74, 58
14, 112807, Note_off_c, 5, 76, 64
14, 112904, Note_on_c, 5, 73, 49
14, 112924, Note_off_c, 5, 74, 64
14, 112998, Note_off_c, 5, 73, 64
14, 113037, Note_on_c, 5, 74, 80
14, 113122, Note_off_c, 5, 74, 64
14, 113150, Note_on_c, 5, 69, 64
14, 113222, Note_off_c, 5, 69, 64
14, 113267, Note_on_c, 5, 77, 80
14, 113381, Note_on_c, 5, 76, 78
14, 113411, Note_off_c, 5, 77, 64
14, 113498, Note_on_c, 5, 74, 60
14, 113511, Note_off_c, 5, 76, 64
14, 113617, Note_on_c, 5, 72, 66
14, 113634, Note_off_c, 5, 74, 64
14, 113691, Note_off_c, 5, 72, 64
14, 113741, Note_on_c, 5, 70, 54
14, 113857, Note_on_c, 5, 74, 74
14, 113874, Note_off_c, 5, 70, 64
14, 113955, Note_off_c, 5, 74, 64
14, 113983, Note_on_c, 5, 79, 80
14, 114037, Note_off_c, 5, 79, 64
14, 114107, Note_on_c, 5, 76, 78
14, 114165, Note_off_c, 5, 76, 64
14, 114233, Note_on_c, 5, 77, 78
14, 114551, Note_off_c, 5, 77, 64
14, 114590, Note_on_c, 5, 74, 72
14, 114645, Note_off_c, 5, 74, 64
14, 114706, Note_on_c, 5, 77, 78
14, 114818, Note_on_c, 5, 76, 76
14, 114843, Note_off_c, 5, 77, 64
14, 114905, Note_off_c, 5, 76, 64
14, 114936, Note_on_c, 5, 74, 68
14, 115045, Note_on_c, 5, 73, 56
14, 115046, Note_off_c, 5, 74, 64
14, 115136, Note_off_c, 5, 73, 64
14, 115182, Note_on_c, 5, 74, 74
14, 115556, Note_off_c, 5, 74, 64
14, 115670, Note_on_c, 5, 69, 63
14, 115745, Note_off_c, 5, 69, 64
14, 115788, Note_on_c, 5, 71, 72
14, 115853, Note_off_c, 5, 71, 64
14, 115910, Note_on_c, 5, 72, 80
14, 116068, Note_off_c, 5, 72, 64
14, 116150, Note_on_c, 5, 74, 76
14, 116263, Note_on_c, 5, 72, 66
14, 116289, Note_off_c, 5, 74, 64
14, 116381, Note_on_c, 5, 71, 62
14, 116401, Note_off_c, 5, 72, 64
14, 116501, Note_on_c, 5, 69, 66
14, 116506, Note_off_c, 5, 71, 64
14, 116586, Note_off_c, 5, 69, 64
14, 116621, Note_on_c, 5, 71, 85
14, 116731, Note_on_c, 5, 69, 60
14, 116736, Note_off_c, 5, 71, 64
14, 116806, Note_off_c, 5, 69, 64
14, 116847, Note_on_c, 5, 67, 66
14, 116947, Note_off_c, 5, 67, 64
14, 116968, Note_on_c, 5, 69, 70
14, 117066, Note_off_c, 5, 69, 64
14, 117089, Note_on_c, 5, 71, 64
14, 117188, Note_off_c, 5, 71, 64
14, 117210, Note_on_c, 5, 72, 66
14, 117313, Note_off_c, 5, 72, 64
14, 117333, Note_on_c, 5, 74, 76
14, 117448, Note_off_c, 5, 74, 64
14, 117450, Note_on_c, 5, 76, 70
14, 117549, Note_off_c, 5, 76, 64
14, 117581, Note_on_c, 5, 77, 80
14, 117709, Note_off_c, 5, 77, 64
14, 117834, Note_on_c, 5, 76, 70
14, 117948, Note_off_c, 5, 76, 64
14, 118076, Note_on_c, 5, 74, 82
14, 118188, Note_off_c, 5, 74, 64
14, 118189, Note_on_c, 5, 72, 66
14, 118273, Note_off_c, 5, 72, 64
14, 118304, Note_on_c, 5, 71, 72
14, 118411, Note_off_c, 5, 71, 64
14, 118418, Note_on_c, 5, 72, 78
14, 118527, Note_off_c, 5, 72, 64
14, 118541, Note_on_c, 5, 74, 72
14, 118640, Note_off_c, 5, 74, 64
14, 118659, Note_on_c, 5, 76, 78
14, 118758, Note_off_c, 5, 76, 64
14, 118783, Note_on_c, 5, 77, 78
14, 118878, Note_off_c, 5, 77, 64
14, 118900, Note_on_c, 5, 79, 78
14, 118983, Note_off_c, 5, 79, 64
14, 119022, Note_on_c, 5, 81, 78
14, 119144, Note_off_c, 5, 81, 64
14, 119265, Note_on_c, 5, 79, 80
14, 119607, Note_off_c, 5, 79, 64
14, 119748, Note_on_c, 5, 70, 66
14, 119849, Note_off_c, 5, 70, 64
14, 119849, Note_on_c, 5, 69, 59
14, 119934, Note_off_c, 5, 69, 64
14, 119975, Note_on_c, 5, 70, 66
14, 120076, Note_off_c, 5, 70, 64
14, 120094, Note_on_c, 5, 67, 68
14, 120180, Note_off_c, 5, 67, 64
14, 120230, Note_on_c, 5, 69, 82
14, 120326, Note_off_c, 5, 69, 64
14, 120466, Note_on_c, 5, 74, 85
14, 120575, Note_off_c, 5, 74, 64
14, 120706, Note_on_c, 5, 72, 82
14, 120738, Note_on_c, 5, 71, 85
14, 120744, Note_off_c, 5, 72, 64
14, 120775, Note_on_c, 5, 72, 68
14, 120786, Note_off_c, 5, 71, 64
14, 120811, Note_on_c, 5, 71, 72
14, 120820, Note_off_c, 5, 72, 64
14, 120873, Note_off_c, 5, 71, 64
14, 120959, Note_on_c, 5, 72, 70
14, 121459, Note_off_c, 5, 72, 64
14, 121459, End_track
15, 0, Start_track
15, 0, Title_t, "Bassoon"
15, 0, Program_c, 6, 70
15, 0, Control_c, 6, 7, 100
15, 12015, Note_on_c, 6, 43, 70
15, 12120, Note_off_c, 6, 43, 64
15, 12237, Note_on_c, 6, 55, 72
15, 12327, Note_off_c, 6, 55, 64
15, 12477, Note_on_c, 6, 57, 70
15, 12571, Note_off_c, 6, 57, 64
15, 12704, Note_on_c, 6, 59, 72
15, 12810, Note_off_c, 6, 59, 64
15, 12945, Note_on_c, 6, 60, 80
15, 13055, Note_off_c, 6, 60, 64
15, 13182, Note_on_c, 6, 48, 76
15, 13265, Note_off_c, 6, 48, 64
15, 13420, Note_on_c, 6, 50, 76
15, 13524, Note_off_c, 6, 50, 64
15, 13656, Note_on_c, 6, 52, 68
15, 13764, Note_off_c, 6, 52, 64
15, 13899, Note_on_c, 6, 49, 63
15, 13997, Note_off_c, 6, 49, 64
15, 14149, Note_on_c, 6, 45, 64
15, 14262, Note_off_c, 6, 45, 64
15, 14389, Note_on_c, 6, 50, 78
15, 14496, Note_off_c, 6, 50, 64
15, 14625, Note_on_c, 6, 48, 60
15, 14712, Note_off_c, 6, 48, 64
15, 14859, Note_on_c, 6, 46, 63
15, 14947, Note_off_c, 6, 46, 64
15, 15112, Note_on_c, 6, 45, 64
15, 15216, Note_off_c, 6, 45, 64
15, 15333, Note_on_c, 6, 49, 58
15, 15431, Note_off_c, 6, 49, 64
15, 15583, Note_on_c, 6, 52, 68
15, 15671, Note_off_c, 6, 52, 64
15, 15830, Note_on_c, 6, 55, 68
15, 16308, Note_off_c, 6, 55, 64
15, 16560, Note_on_c, 6, 55, 64
15, 16660, Note_off_c, 6, 55, 64
15, 16783, Note_on_c, 6, 52, 63
15, 16873, Note_off_c, 6, 52, 64
15, 17021, Note_on_c, 6, 49, 62
15, 17108, Note_off_c, 6, 49, 64
15, 17280, Note_on_c, 6, 45, 64
15, 17771, Note_off_c, 6, 45, 64
15, 18000, Note_on_c, 6, 46, 70
15, 18097, Note_off_c, 6, 46, 64
15, 18231, Note_on_c, 6, 58, 62
15, 18343, Note_off_c, 6, 58, 64
15, 18465, Note_on_c, 6, 57, 64
15, 18560, Note_off_c, 6, 57, 64
15, 18701, Note_on_c, 6, 55, 70
15, 18808, Note_off_c, 6, 55, 64
15, 18932, Note_on_c, 6, 49, 55
15, 19042, Note_off_c, 6, 49, 64
15, 19174, Note_on_c, 6, 50, 78
15, 19282, Note_off_c, 6, 50, 64
15, 19422, Note_on_c, 6, 46, 62
15, 19530, Note_off_c, 6, 46, 64
15, 19670, Note_on_c, 6, 43, 82
15, 19766, Note_off_c, 6, 43, 64
15, 19906, Note_on_c, 6, 45, 70
15, 20001, Note_off_c, 6, 45, 64
15, 20150, Note_on_c, 6, 50, 66
15, 20252, Note_off_c, 6, 50, 64
15, 20381, Note_on_c, 6, 38, 74
15, 20466, Note_off_c, 6, 38, 64
15, 20624, Note_on_c, 6, 50, 64
15, 20735, Note_off_c, 6, 50, 64
15, 20869, Note_on_c, 6, 52, 68
15, 20981, Note_off_c, 6, 52, 64
15, 21105, Note_on_c, 6, 54, 62
15, 21196, Note_off_c, 6, 54, 64
15, 21338, Note_on_c, 6, 50, 70
15, 21424, Note_off_c, 6, 50, 64
15, 21580, Note_on_c, 6, 55, 68
15, 21708, Note_off_c, 6, 55, 64
15, 21824, Note_on_c, 6, 43, 63
15, 21930, Note_off_c, 6, 43, 64
15, 22070, Note_on_c, 6, 45, 68
15, 22163, Note_off_c, 6, 45, 64
15, 22299, Note_on_c, 6, 47, 68
15, 22413, Note_off_c, 6, 47, 64
15, 22538, Note_on_c, 6, 43, 66
15, 22640, Note_off_c, 6, 43, 64
15, 22780, Note_on_c, 6, 48, 70
15, 22878, Note_off_c, 6, 48, 64
15, 23048, Note_on_c, 6, 43, 76
15, 23436, Note_off_c, 6, 43, 64
15, 23516, Note_on_c, 6, 55, 70
15, 23660, Note_off_c, 6, 55, 64
15, 23750, Note_on_c, 6, 57, 64
15, 23828, Note_off_c, 6, 57, 64
15, 23857, Note_on_c, 6, 55, 66
15, 23942, Note_off_c, 6, 55, 64
15, 23972, Note_on_c, 6, 53, 61
15, 24070, Note_off_c, 6, 53, 64
15, 24088, Note_on_c, 6, 52, 59
15, 24194, Note_off_c, 6, 52, 64
15, 24208, Note_on_c, 6, 53, 72
15, 24306, Note_off_c, 6, 53, 64
15, 24330, Note_on_c, 6, 50, 64
15, 24439, Note_off_c, 6, 50, 64
15, 24463, Note_on_c, 6, 52, 70
15, 24603, Note_off_c, 6, 52, 64
15, 24721, Note_on_c, 6, 50, 70
15, 24834, Note_off_c, 6, 50, 64
15, 24957, Note_on_c, 6, 48, 62
15, 25071, Note_off_c, 6, 48, 64
15, 25190, Note_on_c, 6, 53, 70
15, 25298, Note_off_c, 6, 53, 64
15, 25417, Note_on_c, 6, 50, 66
15, 25520, Note_off_c, 6, 50, 64
15, 25665, Note_on_c, 6, 55, 80
15, 25755, Note_off_c, 6, 55, 64
15, 25916, Note_on_c, 6, 48, 76
15, 26253, Note_off_c, 6, 48, 64
15, 26398, Note_on_c, 6, 43, 80
15, 26509, Note_off_c, 6, 43, 64
15, 26624, Note_on_c, 6, 55, 68
15, 26757, Note_off_c, 6, 55, 64
15, 26863, Note_on_c, 6, 57, 76
15, 26978, Note_off_c, 6, 57, 64
15, 27096, Note_on_c, 6, 59, 70
15, 27231, Note_off_c, 6, 59, 64
15, 27342, Note_on_c, 6, 60, 70
15, 27469, Note_off_c, 6, 60, 64
15, 27578, Note_on_c, 6, 48, 68
15, 27697, Note_off_c, 6, 48, 64
15, 27810, Note_on_c, 6, 50, 82
15, 27948, Note_off_c, 6, 50, 64
15, 28048, Note_on_c, 6, 52, 70
15, 28173, Note_off_c, 6, 52, 64
15, 28303, Note_on_c, 6, 49, 70
15, 28404, Note_off_c, 6, 49, 64
15, 28552, Note_on_c, 6, 45, 72
15, 28662, Note_off_c, 6, 45, 64
15, 28786, Note_on_c, 6, 50, 78
15, 28922, Note_off_c, 6, 50, 64
15, 29024, Note_on_c, 6, 48, 68
15, 29165, Note_off_c, 6, 48, 64
15, 29262, Note_on_c, 6, 46, 57
15, 29406, Note_off_c, 6, 46, 64
15, 29513, Note_on_c, 6, 45, 68
15, 29658, Note_off_c, 6, 45, 64
15, 29744, Note_on_c, 6, 49, 62
15, 29874, Note_off_c, 6, 49, 64
15, 29988, Note_on_c, 6, 52, 78
15, 30098, Note_off_c, 6, 52, 64
15, 30221, Note_on_c, 6, 55, 70
15, 30701, Note_off_c, 6, 55, 64
15, 30945, Note_on_c, 6, 55, 68
15, 31072, Note_off_c, 6, 55, 64
15, 31183, Note_on_c, 6, 52, 57
15, 31290, Note_off_c, 6, 52, 64
15, 31423, Note_on_c, 6, 49, 64
15, 31532, Note_off_c, 6, 49, 64
15, 31682, Note_on_c, 6, 45, 66
15, 32152, Note_off_c, 6, 45, 64
15, 32400, Note_on_c, 6, 46, 59
15, 32511, Note_off_c, 6, 46, 64
15, 32633, Note_on_c, 6, 58, 74
15, 32729, Note_off_c, 6, 58, 64
15, 32866, Note_on_c, 6, 57, 70
15, 32957, Note_off_c, 6, 57, 64
15, 33106, Note_on_c, 6, 55, 68
15, 33215, Note_off_c, 6, 55, 64
15, 33341, Note_on_c, 6, 49, 57
15, 33447, Note_off_c, 6, 49, 64
15, 33578, Note_on_c, 6, 50, 68
15, 33691, Note_off_c, 6, 50, 64
15, 33839, Note_on_c, 6, 46, 72
15, 33929, Note_off_c, 6, 46, 64
15, 34061, Note_on_c, 6, 43, 70
15, 34191, Note_off_c, 6, 43, 64
15, 34296, Note_on_c, 6, 45, 64
15, 34392, Note_off_c, 6, 45, 64
15, 34542, Note_on_c, 6, 50, 74
15, 34649, Note_off_c, 6, 50, 64
15, 34791, Note_on_c, 6, 38, 66
15, 34898, Note_off_c, 6, 38, 64
15, 35024, Note_on_c, 6, 50, 68
15, 35154, Note_off_c, 6, 50, 64
15, 35275, Note_on_c, 6, 52, 60
15, 35395, Note_off_c, 6, 52, 64
15, 35498, Note_on_c, 6, 54, 63
15, 35620, Note_off_c, 6, 54, 64
15, 35742, Note_on_c, 6, 50, 64
15, 35852, Note_off_c, 6, 50, 64
15, 35977, Note_on_c, 6, 55, 78
15, 36117, Note_off_c, 6, 55, 64
15, 36218, Note_on_c, 6, 43, 52
15, 36330, Note_off_c, 6, 43, 64
15, 36455, Note_on_c, 6, 45, 63
15, 36570, Note_off_c, 6, 45, 64
15, 36689, Note_on_c, 6, 47, 68
15, 36806, Note_off_c, 6, 47, 64
15, 36932, Note_on_c, 6, 43, 68
15, 37040, Note_off_c, 6, 43, 64
15, 37180, Note_on_c, 6, 48, 80
15, 37277, Note_off_c, 6, 48, 64
15, 37431, Note_on_c, 6, 43, 70
15, 37766, Note_off_c, 6, 43, 64
15, 37912, Note_on_c, 6, 55, 72
15, 38039, Note_off_c, 6, 55, 64
15, 38149, Note_on_c, 6, 57, 68
15, 38250, Note_off_c, 6, 57, 64
15, 38258, Note_on_c, 6, 55, 66
15, 38336, Note_off_c, 6, 55, 64
15, 38364, Note_on_c, 6, 53, 59
15, 38468, Note_off_c, 6, 53, 64
15, 38489, Note_on_c, 6, 52, 64
15, 38590, Note_off_c, 6, 52, 64
15, 38605, Note_on_c, 6, 53, 60
15, 38698, Note_off_c, 6, 53, 64
15, 38719, Note_on_c, 6, 50, 62
15, 38835, Note_off_c, 6, 50, 64
15, 38864, Note_on_c, 6, 52, 66
15, 38992, Note_off_c, 6, 52, 64
15, 39115, Note_on_c, 6, 50, 64
15, 39226, Note_off_c, 6, 50, 64
15, 39345, Note_on_c, 6, 48, 64
15, 39463, Note_off_c, 6, 48, 64
15, 39594, Note_on_c, 6, 53, 68
15, 39712, Note_off_c, 6, 53, 64
15, 39828, Note_on_c, 6, 50, 64
15, 39929, Note_off_c, 6, 50, 64
15, 40061, Note_on_c, 6, 55, 78
15, 40143, Note_off_c, 6, 55, 64
15, 40317, Note_on_c, 6, 48, 62
15, 40774, Note_off_c, 6, 48, 64
15, 52550, Note_on_c, 6, 43, 55
15, 52758, Note_off_c, 6, 43, 64
15, 52783, Note_on_c, 6, 43, 70
15, 52978, Note_off_c, 6, 43, 64
15, 53015, Note_on_c, 6, 43, 60
15, 53232, Note_off_c, 6, 43, 64
15, 53263, Note_on_c, 6, 55, 59
15, 53457, Note_off_c, 6, 55, 64
15, 53510, Note_on_c, 6, 55, 52
15, 53681, Note_off_c, 6, 55, 64
15, 53740, Note_on_c, 6, 55, 46
15, 53939, Note_off_c, 6, 55, 64
15, 53980, Note_on_c, 6, 49, 51
15, 54185, Note_off_c, 6, 49, 64
15, 54218, Note_on_c, 6, 49, 63
15, 54418, Note_off_c, 6, 49, 64
15, 54458, Note_on_c, 6, 49, 57
15, 54670, Note_off_c, 6, 49, 64
15, 54713, Note_on_c, 6, 50, 59
15, 54920, Note_off_c, 6, 50, 64
15, 54945, Note_on_c, 6, 48, 58
15, 55155, Note_off_c, 6, 48, 64
15, 55177, Note_on_c, 6, 46, 55
15, 55407, Note_off_c, 6, 46, 64
15, 55428, Note_on_c, 6, 45, 52
15, 55646, Note_off_c, 6, 45, 64
15, 55662, Note_on_c, 6, 45, 49
15, 55874, Note_off_c, 6, 45, 64
15, 55903, Note_on_c, 6, 45, 58
15, 56124, Note_off_c, 6, 45, 64
15, 56149, Note_on_c, 6, 55, 54
15, 56339, Note_off_c, 6, 55, 64
15, 56377, Note_on_c, 6, 55, 61
15, 56565, Note_off_c, 6, 55, 64
15, 56607, Note_on_c, 6, 55, 60
15, 56814, Note_off_c, 6, 55, 64
15, 56854, Note_on_c, 6, 52, 53
15, 57066, Note_off_c, 6, 52, 64
15, 57104, Note_on_c, 6, 52, 57
15, 57305, Note_off_c, 6, 52, 64
15, 57342, Note_on_c, 6, 52, 63
15, 57557, Note_off_c, 6, 52, 64
15, 57582, Note_on_c, 6, 49, 58
15, 57812, Note_off_c, 6, 49, 64
15, 57823, Note_on_c, 6, 47, 52
15, 58034, Note_off_c, 6, 47, 64
15, 58065, Note_on_c, 6, 45, 59
15, 58270, Note_off_c, 6, 45, 64
15, 58312, Note_on_c, 6, 50, 58
15, 58516, Note_off_c, 6, 50, 64
15, 58535, Note_on_c, 6, 52, 64
15, 58769, Note_off_c, 6, 52, 64
15, 58786, Note_on_c, 6, 53, 54
15, 58996, Note_off_c, 6, 53, 64
15, 59024, Note_on_c, 6, 55, 57
15, 59228, Note_off_c, 6, 55, 64
15, 59264, Note_on_c, 6, 55, 64
15, 59455, Note_off_c, 6, 55, 64
15, 59492, Note_on_c, 6, 55, 57
15, 59702, Note_off_c, 6, 55, 64
15, 59731, Note_on_c, 6, 57, 58
15, 59932, Note_off_c, 6, 57, 64
15, 59978, Note_on_c, 6, 57, 63
15, 60193, Note_off_c, 6, 57, 64
15, 60230, Note_on_c, 6, 57, 64
15, 60440, Note_off_c, 6, 57, 64
15, 60470, Note_on_c, 6, 50, 58
15, 60679, Note_off_c, 6, 50, 64
15, 60700, Note_on_c, 6, 53, 55
15, 60907, Note_off_c, 6, 53, 64
15, 60939, Note_on_c, 6, 57, 68
15, 61156, Note_off_c, 6, 57, 64
15, 61177, Note_on_c, 6, 54, 48
15, 61408, Note_off_c, 6, 54, 64
15, 61421, Note_on_c, 6, 54, 38
15, 61641, Note_off_c, 6, 54, 64
15, 61676, Note_on_c, 6, 54, 51
15, 61863, Note_off_c, 6, 54, 64
15, 61908, Note_on_c, 6, 53, 53
15, 62127, Note_off_c, 6, 53, 64
15, 62161, Note_on_c, 6, 53, 58
15, 62362, Note_off_c, 6, 53, 64
15, 62387, Note_on_c, 6, 53, 53
15, 62600, Note_off_c, 6, 53, 64
15, 62629, Note_on_c, 6, 47, 55
15, 62846, Note_off_c, 6, 47, 64
15, 62860, Note_on_c, 6, 47, 44
15, 63071, Note_off_c, 6, 47, 64
15, 63096, Note_on_c, 6, 48, 53
15, 63299, Note_off_c, 6, 48, 64
15, 63341, Note_on_c, 6, 55, 60
15, 63555, Note_off_c, 6, 55, 64
15, 63584, Note_on_c, 6, 53, 64
15, 63788, Note_off_c, 6, 53, 64
15, 63818, Note_on_c, 6, 52, 57
15, 64028, Note_off_c, 6, 52, 64
15, 64067, Note_on_c, 6, 50, 58
15, 64265, Note_off_c, 6, 50, 64
15, 64300, Note_on_c, 6, 48, 62
15, 64519, Note_off_c, 6, 48, 64
15, 64537, Note_on_c, 6, 46, 47
15, 64749, Note_off_c, 6, 46, 64
15, 64787, Note_on_c, 6, 40, 62
15, 64991, Note_off_c, 6, 40, 64
15, 65032, Note_on_c, 6, 40, 57
15, 65233, Note_off_c, 6, 40, 64
15, 65281, Note_on_c, 6, 40, 47
15, 65476, Note_off_c, 6, 40, 64
15, 65505, Note_on_c, 6, 41, 68
15, 65692, Note_off_c, 6, 41, 64
15, 65737, Note_on_c, 6, 38, 59
15, 65950, Note_off_c, 6, 38, 64
15, 65984, Note_on_c, 6, 43, 63
15, 66146, Note_off_c, 6, 43, 64
15, 66238, Note_on_c, 6, 36, 63
15, 66704, Note_off_c, 6, 36, 64
15, 66948, Note_on_c, 6, 43, 54
15, 67151, Note_off_c, 6, 43, 64
15, 67187, Note_on_c, 6, 43, 48
15, 67379, Note_off_c, 6, 43, 64
15, 67418, Note_on_c, 6, 43, 59
15, 67658, Note_off_c, 6, 43, 64
15, 67668, Note_on_c, 6, 55, 61
15, 67878, Note_off_c, 6, 55, 64
15, 67915, Note_on_c, 6, 55, 64
15, 68092, Note_off_c, 6, 55, 64
15, 68132, Note_on_c, 6, 55, 62
15, 68356, Note_off_c, 6, 55, 64
15, 68380, Note_on_c, 6, 49, 57
15, 68588, Note_off_c, 6, 49, 64
15, 68631, Note_on_c, 6, 49, 57
15, 68842, Note_off_c, 6, 49, 64
15, 68875, Note_on_c, 6, 49, 63
15, 69086, Note_off_c, 6, 49, 64
15, 69120, Note_on_c, 6, 50, 58
15, 69312, Note_off_c, 6, 50, 64
15, 69345, Note_on_c, 6, 48, 57
15, 69568, Note_off_c, 6, 48, 64
15, 69593, Note_on_c, 6, 46, 54
15, 69806, Note_off_c, 6, 46, 64
15, 69831, Note_on_c, 6, 45, 57
15, 70033, Note_off_c, 6, 45, 64
15, 70056, Note_on_c, 6, 45, 49
15, 70262, Note_off_c, 6, 45, 64
15, 70299, Note_on_c, 6, 45, 57
15, 70521, Note_off_c, 6, 45, 64
15, 70539, Note_on_c, 6, 55, 59
15, 70732, Note_off_c, 6, 55, 64
15, 70770, Note_on_c, 6, 55, 59
15, 70976, Note_off_c, 6, 55, 64
15, 71021, Note_on_c, 6, 55, 58
15, 71232, Note_off_c, 6, 55, 64
15, 71258, Note_on_c, 6, 52, 57
15, 71450, Note_off_c, 6, 52, 64
15, 71506, Note_on_c, 6, 52, 53
15, 71709, Note_off_c, 6, 52, 64
15, 71743, Note_on_c, 6, 52, 57
15, 71972, Note_off_c, 6, 52, 64
15, 71980, Note_on_c, 6, 49, 56
15, 72205, Note_off_c, 6, 49, 64
15, 72228, Note_on_c, 6, 47, 54
15, 72456, Note_off_c, 6, 47, 64
15, 72476, Note_on_c, 6, 45, 60
15, 72654, Note_off_c, 6, 45, 64
15, 72696, Note_on_c, 6, 50, 66
15, 72915, Note_off_c, 6, 50, 64
15, 72941, Note_on_c, 6, 52, 55
15, 73181, Note_off_c, 6, 52, 64
15, 73183, Note_on_c, 6, 53, 55
15, 73403, Note_off_c, 6, 53, 64
15, 73429, Note_on_c, 6, 55, 55
15, 73630, Note_off_c, 6, 55, 64
15, 73663, Note_on_c, 6, 55, 62
15, 73853, Note_off_c, 6, 55, 64
15, 73892, Note_on_c, 6, 55, 54
15, 74099, Note_off_c, 6, 55, 64
15, 74140, Note_on_c, 6, 57, 58
15, 74358, Note_off_c, 6, 57, 64
15, 74399, Note_on_c, 6, 57, 56
15, 74594, Note_off_c, 6, 57, 64
15, 74627, Note_on_c, 6, 57, 58
15, 74850, Note_off_c, 6, 57, 64
15, 74866, Note_on_c, 6, 50, 52
15, 75076, Note_off_c, 6, 50, 64
15, 75099, Note_on_c, 6, 53, 57
15, 75297, Note_off_c, 6, 53, 64
15, 75343, Note_on_c, 6, 57, 62
15, 75536, Note_off_c, 6, 57, 64
15, 75586, Note_on_c, 6, 54, 51
15, 75796, Note_off_c, 6, 54, 64
15, 75819, Note_on_c, 6, 54, 53
15, 76025, Note_off_c, 6, 54, 64
15, 76060, Note_on_c, 6, 54, 55
15, 76260, Note_off_c, 6, 54, 64
15, 76300, Note_on_c, 6, 53, 55
15, 76503, Note_off_c, 6, 53, 64
15, 76541, Note_on_c, 6, 53, 57
15, 76751, Note_off_c, 6, 53, 64
15, 76792, Note_on_c, 6, 53, 49
15, 76998, Note_off_c, 6, 53, 64
15, 77030, Note_on_c, 6, 47, 62
15, 77236, Note_off_c, 6, 47, 64
15, 77265, Note_on_c, 6, 47, 66
15, 77483, Note_off_c, 6, 47, 64
15, 77504, Note_on_c, 6, 48, 62
15, 77718, Note_off_c, 6, 48, 64
15, 77751, Note_on_c, 6, 55, 60
15, 77958, Note_off_c, 6, 55, 64
15, 77983, Note_on_c, 6, 53, 61
15, 78206, Note_off_c, 6, 53, 64
15, 78236, Note_on_c, 6, 52, 59
15, 78437, Note_off_c, 6, 52, 64
15, 78469, Note_on_c, 6, 50, 64
15, 78660, Note_off_c, 6, 50, 64
15, 78701, Note_on_c, 6, 48, 64
15, 78923, Note_off_c, 6, 48, 64
15, 78947, Note_on_c, 6, 46, 58
15, 79155, Note_off_c, 6, 46, 64
15, 79187, Note_on_c, 6, 40, 59
15, 79391, Note_off_c, 6, 40, 64
15, 79438, Note_on_c, 6, 40, 54
15, 79617, Note_off_c, 6, 40, 64
15, 79656, Note_on_c, 6, 40, 59
15, 79865, Note_off_c, 6, 40, 64
15, 79894, Note_on_c, 6, 41, 64
15, 80100, Note_off_c, 6, 41, 64
15, 80133, Note_on_c, 6, 38, 59
15, 80348, Note_off_c, 6, 38, 64
15, 80383, Note_on_c, 6, 43, 66
15, 80542, Note_off_c, 6, 43, 64
15, 80633, Note_on_c, 6, 36, 63
15, 81113, Note_off_c, 6, 36, 64
15, 92655, Note_on_c, 6, 43, 70
15, 92760, Note_off_c, 6, 43, 64
15, 92877, Note_on_c, 6, 55, 72
15, 92967, Note_off_c, 6, 55, 64
15, 93117, Note_on_c, 6, 57, 70
15, 93211, Note_off_c, 6, 57, 64
15, 93344, Note_on_c, 6, 59, 72
15, 93450, Note_off_c, 6, 59, 64
15, 93585, Note_on_c, 6, 60, 80
15, 93695, Note_off_c, 6, 60, 64
15, 93822, Note_on_c, 6, 48, 76
15, 93905, Note_off_c, 6, 48, 64
15, 94060, Note_on_c, 6, 50, 76
15, 94164, Note_off_c, 6, 50, 64
15, 94296, Note_on_c, 6, 52, 68
15, 94404, Note_off_c, 6, 52, 64
15, 94539, Note_on_c, 6, 49, 63
15, 94637, Note_off_c, 6, 49, 64
15, 94789, Note_on_c, 6, 45, 64
15, 94902, Note_off_c, 6, 45, 64
15, 95029, Note_on_c, 6, 50, 78
15, 95136, Note_off_c, 6, 50, 64
15, 95265, Note_on_c, 6, 48, 60
15, 95352, Note_off_c, 6, 48, 64
15, 95499, Note_on_c, 6, 46, 63
15, 95587, Note_off_c, 6, 46, 64
15, 95752, Note_on_c, 6, 45, 64
15, 95856, Note_off_c, 6, 45, 64
15, 95973, Note_on_c, 6, 49, 58
15, 96071, Note_off_c, 6, 49, 64
15, 96223, Note_on_c, 6, 52, 68
15, 96311, Note_off_c, 6, 52, 64
15, 96470, Note_on_c, 6, 55, 68
15, 96948, Note_off_c, 6, 55, 64
15, 97200, Note_on_c, 6, 55, 64
15, 97300, Note_off_c, 6, 55, 64
15, 97423, Note_on_c, 6, 52, 63
15, 97513, Note_off_c, 6, 52, 64
15, 97661, Note_on_c, 6, 49, 62
15, 97748, Note_off_c, 6, 49, 64
15, 97920, Note_on_c, 6, 45, 64
15, 98411, Note_off_c, 6, 45, 64
15, 98640, Note_on_c, 6, 46, 70
15, 98737, Note_off_c, 6, 46, 64
15, 98871, Note_on_c, 6, 58, 62
15, 98983, Note_off_c, 6, 58, 64
15, 99105, Note_on_c, 6, 57, 64
15, 99200, Note_off_c, 6, 57, 64
15, 99341, Note_on_c, 6, 55, 70
15, 99448, Note_off_c, 6, 55, 64
15, 99572, Note_on_c, 6, 49, 55
15, 99682, Note_off_c, 6, 49, 64
15, 99814, Note_on_c, 6, 50, 78
15, 99922, Note_off_c, 6, 50, 64
15, 100062, Note_on_c, 6, 46, 62
15, 100170, Note_off_c, 6, 46, 64
15, 100310, Note_on_c, 6, 43, 82
15, 100406, Note_off_c, 6, 43, 64
15, 100546, Note_on_c, 6, 45, 70
15, 100641, Note_off_c, 6, 45, 64
15, 100790, Note_on_c, 6, 50, 66
15, 100892, Note_off_c, 6, 50, 64
15, 101021, Note_on_c, 6, 38, 74
15, 101106, Note_off_c, 6, 38, 64
15, 101264, Note_on_c, 6, 50, 64
15, 101375, Note_off_c, 6, 50, 64
15, 101509, Note_on_c, 6, 52, 68
15, 101621, Note_off_c, 6, 52, 64
15, 101745, Note_on_c, 6, 54, 62
15, 101836, Note_off_c, 6, 54, 64
15, 101978, Note_on_c, 6, 50, 70
15, 102064, Note_off_c, 6, 50, 64
15, 102220, Note_on_c, 6, 55, 68
15, 102348, Note_off_c, 6, 55, 64
15, 102464, Note_on_c, 6, 43, 63
15, 102570, Note_off_c, 6, 43, 64
15, 102710, Note_on_c, 6, 45, 68
15, 102803, Note_off_c, 6, 45, 64
15, 102939, Note_on_c, 6, 47, 68
15, 103053, Note_off_c, 6, 47, 64
15, 103178, Note_on_c, 6, 43, 66
15, 103280, Note_off_c, 6, 43, 64
15, 103420, Note_on_c, 6, 48, 70
15, 103518, Note_off_c, 6, 48, 64
15, 103688, Note_on_c, 6, 43, 76
15, 104076, Note_off_c, 6, 43, 64
15, 104156, Note_on_c, 6, 55, 70
15, 104300, Note_off_c, 6, 55, 64
15, 104390, Note_on_c, 6, 57, 64
15, 104468, Note_off_c, 6, 57, 64
15, 104497, Note_on_c, 6, 55, 66
15, 104582, Note_off_c, 6, 55, 64
15, 104612, Note_on_c, 6, 53, 61
15, 104710, Note_off_c, 6, 53, 64
15, 104728, Note_on_c, 6, 52, 59
15, 104834, Note_off_c, 6, 52, 64
15, 104848, Note_on_c, 6, 53, 72
15, 104946, Note_off_c, 6, 53, 64
15, 104970, Note_on_c, 6, 50, 64
15, 105079, Note_off_c, 6, 50, 64
15, 105103, Note_on_c, 6, 52, 70
15, 105243, Note_off_c, 6, 52, 64
15, 105361, Note_on_c, 6, 50, 70
15, 105474, Note_off_c, 6, 50, 64
15, 105597, Note_on_c, 6, 48, 62
15, 105711, Note_off_c, 6, 48, 64
15, 105830, Note_on_c, 6, 53, 70
15, 105938, Note_off_c, 6, 53, 64
15, 106057, Note_on_c, 6, 50, 66
15, 106160, Note_off_c, 6, 50, 64
15, 106305, Note_on_c, 6, 55, 80
15, 106395, Note_off_c, 6, 55, 64
15, 106556, Note_on_c, 6, 48, 76
15, 106893, Note_off_c, 6, 48, 64
15, 107038, Note_on_c, 6, 43, 80
15, 107149, Note_off_c, 6, 43, 64
15, 107264, Note_on_c, 6, 55, 68
15, 107397, Note_off_c, 6, 55, 64
15, 107503, Note_on_c, 6, 57, 76
15, 107618, Note_off_c, 6, 57, 64
15, 107736, Note_on_c, 6, 59, 70
15, 107871, Note_off_c, 6, 59, 64
15, 107982, Note_on_c, 6, 60, 70
15, 108109, Note_off_c, 6, 60, 64
15, 108218, Note_on_c, 6, 48, 68
15, 108337, Note_off_c, 6, 48, 64
15, 108450, Note_on_c, 6, 50, 82
15, 108588, Note_off_c, 6, 50, 64
15, 108688, Note_on_c, 6, 52, 70
15, 108813, Note_off_c, 6, 52, 64
15, 108943, Note_on_c, 6, 49, 70
15, 109044, Note_off_c, 6, 49, 64
15, 109192, Note_on_c, 6, 45, 72
15, 109302, Note_off_c, 6, 45, 64
15, 109426, Note_on_c, 6, 50, 78
15, 109562, Note_off_c, 6, 50, 64
15, 109664, Note_on_c, 6, 48, 68
15, 109805, Note_off_c, 6, 48, 64
15, 109902, Note_on_c, 6, 46, 57
15, 110046, Note_off_c, 6, 46, 64
15, 110153, Note_on_c, 6, 45, 68
15, 110298, Note_off_c, 6, 45, 64
15, 110384, Note_on_c, 6, 49, 62
15, 110514, Note_off_c, 6, 49, 64
15, 110628, Note_on_c, 6, 52, 78
15, 110738, Note_off_c, 6, 52, 64
15, 110861, Note_on_c, 6, 55, 70
15, 111341, Note_off_c, 6, 55, 64
15, 111585, Note_on_c, 6, 55, 68
15, 111712, Note_off_c, 6, 55, 64
15, 111823, Note_on_c, 6, 52, 57
15, 111930, Note_off_c, 6, 52, 64
15, 112063, Note_on_c, 6, 49, 64
15, 112172, Note_off_c, 6, 49, 64
15, 112322, Note_on_c, 6, 45, 66
15, 112792, Note_off_c, 6, 45, 64
15, 113040, Note_on_c, 6, 46, 59
15, 113151, Note_off_c, 6, 46, 64
15, 113273, Note_on_c, 6, 58, 74
15, 113369, Note_off_c, 6, 58, 64
15, 113506, Note_on_c, 6, 57, 70
15, 113597, Note_off_c, 6, 57, 64
15, 113746, Note_on_c, 6, 55, 68
15, 113855, Note_off_c, 6, 55, 64
15, 113981, Note_on_c, 6, 49, 57
15, 114087, Note_off_c, 6, 49, 64
15, 114218, Note_on_c, 6, 50, 68
15, 114331, Note_off_c, 6, 50, 64
15, 114479, Note_on_c, 6, 46, 72
15, 114569, Note_off_c, 6, 46, 64
15, 114701, Note_on_c, 6, 43, 70
15, 114831, Note_off_c, 6, 43, 64
15, 114936, Note_on_c, 6, 45, 64
15, 115032, Note_off_c, 6, 45, 64
15, 115182, Note_on_c, 6, 50, 74
15, 115289, Note_off_c, 6, 50, 64
15, 115431, Note_on_c, 6, 38, 66
15, 115538, Note_off_c, 6, 38, 64
15, 115664, Note_on_c, 6, 50, 68
15, 115794, Note_off_c, 6, 50, 64
15, 115915, Note_on_c, 6, 52, 60
15, 116035, Note_off_c, 6, 52, 64
15, 116138, Note_on_c, 6, 54, 63
15, 116260, Note_off_c, 6, 54, 64
15, 116382, Note_on_c, 6, 50, 64
15, 116492, Note_off_c, 6, 50, 64
15, 116617, Note_on_c, 6, 55, 78
15, 116757, Note_off_c, 6, 55, 64
15, 116858, Note_on_c, 6, 43, 52
15, 116970, Note_off_c, 6, 43, 64
15, 117095, Note_on_c, 6, 45, 63
15, 117210, Note_off_c, 6, 45, 64
15, 117329, Note_on_c, 6, 47, 68
15, 117446, Note_off_c, 6, 47, 64
15, 117572, Note_on_c, 6, 43, 68
15, 117680, Note_off_c, 6, 43, 64
15, 117820, Note_on_c, 6, 48, 80
15, 117917, Note_off_c, 6, 48, 64
15, 118071, Note_on_c, 6, 43, 70
15, 118406, Note_off_c, 6, 43, 64
15, 118552, Note_on_c, 6, 55, 72
15, 118679, Note_off_c, 6, 55, 64
15, 118789, Note_on_c, 6, 57, 68
15, 118890, Note_off_c, 6, 57, 64
15, 118898, Note_on_c, 6, 55, 66
15, 118976, Note_off_c, 6, 55, 64
15, 119004, Note_on_c, 6, 53, 59
15, 119108, Note_off_c, 6, 53, 64
15, 119129, Note_on_c, 6, 52, 64
15, 119230, Note_off_c, 6, 52, 64
15, 119245, Note_on_c, 6, 53, 60
15, 119338, Note_off_c, 6, 53, 64
15, 119359, Note_on_c, 6, 50, 62
15, 119475, Note_off_c, 6, 50, 64
15, 119504, Note_on_c, 6, 52, 66
15, 119632, Note_off_c, 6, 52, 64
15, 119755, Note_on_c, 6, 50, 64
15, 119866, Note_off_c, 6, 50, 64
15, 119985, Note_on_c, 6, 48, 64
15, 120103, Note_off_c, 6, 48, 64
15, 120234, Note_on_c, 6, 53, 68
15, 120352, Note_off_c, 6, 53, 64
15, 120468, Note_on_c, 6, 50, 64
15, 120569, Note_off_c, 6, 50, 64
15, 120701, Note_on_c, 6, 55, 78
15, 120783, Note_off_c, 6, 55, 64
15, 120957, Note_on_c, 6, 48, 62
15, 121414, Note_off_c, 6, 48, 64
15, 121414, End_track
0, 0, End_of_file
