0, 0, Header, 1, 17, 480
1, 0, Start_track
1, 0, SMPTE_offset, 96, 0, 3, 0, 0
1, 0, Time_signature, 12, 3, 12, 8
1, 0, Key_signature, -3, "major"
1, 0, Tempo, 545455
1, 112320, Tempo, 545455
1, 112328, Tempo, 552995
1, 112340, Tempo, 560748
1, 112348, Tempo, 571429
1, 112360, Tempo, 579710
1, 112368, Tempo, 588235
1, 112380, Tempo, 600000
1, 112388, Tempo, 609137
1, 112400, Tempo, 618557
1, 112408, Tempo, 631579
1, 112420, Tempo, 641711
1, 112428, Tempo, 652174
1, 112440, Tempo, 666667
1, 112448, Tempo, 677966
1, 112460, Tempo, 689655
1, 112468, Tempo, 705882
1, 112480, Tempo, 718563
1, 112488, Tempo, 731707
1, 112500, Tempo, 750000
1, 112508, Tempo, 764331
1, 112520, Tempo, 779221
1, 112528, Tempo, 800000
1, 112540, Tempo, 816327
1, 112548, Tempo, 833333
1, 112560, Tempo, 857143
1, 112568, Tempo, 875912
1, 112580, Tempo, 895522
1, 112588, Tempo, 923077
1, 112600, Tempo, 944882
1, 112608, Tempo, 967742
1, 112620, Tempo, 1000000
1, 112628, Tempo, 1025641
1, 112640, Tempo, 1052632
1, 112648, Tempo, 1090909
1, 112660, Tempo, 1121495
1, 112668, Tempo, 1153846
1, 112680, Tempo, 1200000
1, 112688, Tempo, 1237113
1, 112700, Tempo, 1276596
1, 112708, Tempo, 1333333
1, 112720, Tempo, 1379310
1, 112728, Tempo, 1428571
1, 112740, Tempo, 1500000
1, 112748, Tempo, 1558442
1, 112760, Tempo, 1621622
1, 112768, Tempo, 1714286
1, 112780, Tempo, 1791045
1, 112788, Tempo, 1875000
1, 112800, Tempo, 2000000
1, 113028, Tempo, 750000
1, 113048, Tempo, 745342
1, 113060, Tempo, 740741
1, 113068, Tempo, 736196
1, 113080, Tempo, 731707
1, 113100, Tempo, 727273
1, 113108, Tempo, 722892
1, 113120, Tempo, 718563
1, 113128, Tempo, 714286
1, 113140, Tempo, 710059
1, 113160, Tempo, 705882
1, 113168, Tempo, 701754
1, 113180, Tempo, 697674
1, 113188, Tempo, 693642
1, 113208, Tempo, 689655
1, 113220, Tempo, 685714
1, 113228, Tempo, 681818
1, 113240, Tempo, 677966
1, 113248, Tempo, 674157
1, 113268, Tempo, 670391
1, 113280, Tempo, 666667
1, 113288, Tempo, 662983
1, 113300, Tempo, 659341
1, 113308, Tempo, 655738
1, 113328, Tempo, 652174
1, 113340, Tempo, 648649
1, 113348, Tempo, 645161
1, 113360, Tempo, 641711
1, 113380, Tempo, 638298
1, 113388, Tempo, 634921
1, 113400, Tempo, 631579
1, 113408, Tempo, 628272
1, 113420, Tempo, 625000
1, 113440, Tempo, 621762
1, 113448, Tempo, 618557
1, 113460, Tempo, 615385
1, 113468, Tempo, 612245
1, 113488, Tempo, 609137
1, 113500, Tempo, 606061
1, 113508, Tempo, 603015
1, 113520, Tempo, 600000
1, 113528, Tempo, 597015
1, 113548, Tempo, 594059
1, 113560, Tempo, 591133
1, 113568, Tempo, 588235
1, 113580, Tempo, 585366
1, 113588, Tempo, 582524
1, 113608, Tempo, 579710
1, 113620, Tempo, 576923
1, 113628, Tempo, 574163
1, 113640, Tempo, 571429
1, 113660, Tempo, 568720
1, 113668, Tempo, 566038
1, 113680, Tempo, 563380
1, 113688, Tempo, 560748
1, 113700, Tempo, 558140
1, 113720, Tempo, 555556
1, 113728, Tempo, 552995
1, 113740, Tempo, 550459
1, 113748, Tempo, 547945
1, 113760, Tempo, 545455
1, 135360, Tempo, 545455
1, 135368, Tempo, 550459
1, 135380, Tempo, 555556
1, 135388, Tempo, 560748
1, 135400, Tempo, 566038
1, 135408, Tempo, 574163
1, 135420, Tempo, 579710
1, 135428, Tempo, 585366
1, 135440, Tempo, 591133
1, 135448, Tempo, 600000
1, 135460, Tempo, 606061
1, 135468, Tempo, 612245
1, 135480, Tempo, 618557
1, 135488, Tempo, 625000
1, 135500, Tempo, 634921
1, 135508, Tempo, 641711
1, 135520, Tempo, 648649
1, 135528, Tempo, 655738
1, 135540, Tempo, 666667
1, 135548, Tempo, 674157
1, 135560, Tempo, 681818
1, 135568, Tempo, 689655
1, 135580, Tempo, 701754
1, 135588, Tempo, 710059
1, 135600, Tempo, 718563
1, 135608, Tempo, 727273
1, 135620, Tempo, 736196
1, 135628, Tempo, 750000
1, 135640, Tempo, 759494
1, 135648, Tempo, 769231
1, 135660, Tempo, 779221
1, 135668, Tempo, 794702
1, 135680, Tempo, 805369
1, 135688, Tempo, 816327
1, 135700, Tempo, 827586
1, 135708, Tempo, 845070
1, 135720, Tempo, 857143
1, 135728, Tempo, 869565
1, 135740, Tempo, 882353
1, 135748, Tempo, 895522
1, 135760, Tempo, 916031
1, 135768, Tempo, 930233
1, 135780, Tempo, 944882
1, 135788, Tempo, 960000
1, 135800, Tempo, 983607
1, 135808, Tempo, 1000000
1, 135820, Tempo, 1016949
1, 135828, Tempo, 1034483
1, 135840, Tempo, 1061947
1, 135848, Tempo, 7500000
1, 135848, End_track
2, 0, Start_track
2, 0, MIDI_port, 0
2, 0, Title_t, "Solo Lute"
2, 0, Program_c, 0, 24
2, 0, Control_c, 0, 7, 100
2, 0, Control_c, 0, 10, 69
2, 240, Note_on_c, 0, 75, 100
2, 480, Note_on_c, 0, 75, 0
2, 480, Note_on_c, 0, 74, 100
2, 720, Note_on_c, 0, 74, 0
2, 720, Note_on_c, 0, 75, 100
2, 960, Note_on_c, 0, 75, 0
2, 960, Note_on_c, 0, 70, 100
2, 1200, Note_on_c, 0, 70, 0
2, 1200, Note_on_c, 0, 73, 100
2, 1440, Note_on_c, 0, 73, 0
2, 1440, Note_on_c, 0, 72, 100
2, 1680, Note_on_c, 0, 72, 0
2, 1680, Note_on_c, 0, 67, 100
2, 1920, Note_on_c, 0, 67, 0
2, 1920, Note_on_c, 0, 68, 100
2, 2160, Note_on_c, 0, 68, 0
2, 2160, Note_on_c, 0, 63, 100
2, 2400, Note_on_c, 0, 63, 0
2, 2400, Note_on_c, 0, 68, 100
2, 2640, Note_on_c, 0, 68, 0
2, 2640, Note_on_c, 0, 72, 100
2, 2880, Note_on_c, 0, 72, 0
2, 3120, Note_on_c, 0, 70, 100
2, 3360, Note_on_c, 0, 70, 0
2, 3360, Note_on_c, 0, 68, 100
2, 3600, Note_on_c, 0, 68, 0
2, 3600, Note_on_c, 0, 70, 100
2, 3840, Note_on_c, 0, 70, 0
2, 3840, Note_on_c, 0, 63, 100
2, 4080, Note_on_c, 0, 63, 0
2, 4080, Note_on_c, 0, 67, 100
2, 4320, Note_on_c, 0, 67, 0
2, 4320, Note_on_c, 0, 65, 100
2, 4560, Note_on_c, 0, 65, 0
2, 4560, Note_on_c, 0, 68, 100
2, 4800, Note_on_c, 0, 68, 0
2, 4800, Note_on_c, 0, 60, 100
2, 5040, Note_on_c, 0, 60, 0
2, 5040, Note_on_c, 0, 62, 100
2, 5280, Note_on_c, 0, 62, 0
2, 5280, Note_on_c, 0, 65, 100
2, 5520, Note_on_c, 0, 65, 0
2, 5520, Note_on_c, 0, 68, 100
2, 5760, Note_on_c, 0, 68, 0
2, 6000, Note_on_c, 0, 67, 100
2, 6240, Note_on_c, 0, 67, 0
2, 6240, Note_on_c, 0, 65, 100
2, 6480, Note_on_c, 0, 65, 0
2, 6480, Note_on_c, 0, 67, 100
2, 6720, Note_on_c, 0, 67, 0
2, 6720, Note_on_c, 0, 58, 100
2, 6960, Note_on_c, 0, 58, 0
2, 6960, Note_on_c, 0, 62, 100
2, 7200, Note_on_c, 0, 62, 0
2, 7200, Note_on_c, 0, 60, 100
2, 7440, Note_on_c, 0, 60, 0
2, 7440, Note_on_c, 0, 63, 100
2, 7680, Note_on_c, 0, 63, 0
2, 7680, Note_on_c, 0, 67, 100
2, 7920, Note_on_c, 0, 67, 0
2, 7920, Note_on_c, 0, 58, 100
2, 8160, Note_on_c, 0, 58, 0
2, 8160, Note_on_c, 0, 57, 100
2, 8400, Note_on_c, 0, 57, 0
2, 8400, Note_on_c, 0, 55, 100
2, 8640, Note_on_c, 0, 55, 0
2, 8640, Note_on_c, 0, 57, 100
2, 8880, Note_on_c, 0, 57, 0
2, 8880, Note_on_c, 0, 65, 100
2, 9120, Note_on_c, 0, 65, 0
2, 9120, Note_on_c, 0, 63, 100
2, 9360, Note_on_c, 0, 63, 0
2, 9360, Note_on_c, 0, 65, 100
2, 9600, Note_on_c, 0, 65, 0
2, 9600, Note_on_c, 0, 57, 100
2, 9840, Note_on_c, 0, 57, 0
2, 9840, Note_on_c, 0, 60, 100
2, 10080, Note_on_c, 0, 60, 0
2, 10080, Note_on_c, 0, 58, 100
2, 10320, Note_on_c, 0, 58, 0
2, 10320, Note_on_c, 0, 62, 100
2, 10560, Note_on_c, 0, 62, 0
2, 10560, Note_on_c, 0, 65, 100
2, 10800, Note_on_c, 0, 65, 0
2, 10800, Note_on_c, 0, 70, 100
2, 11040, Note_on_c, 0, 70, 0
2, 11040, Note_on_c, 0, 65, 100
2, 11280, Note_on_c, 0, 65, 0
2, 11280, Note_on_c, 0, 67, 100
2, 11520, Note_on_c, 0, 67, 0
2, 11520, Note_on_c, 0, 63, 100
2, 11760, Note_on_c, 0, 63, 0
2, 11760, Note_on_c, 0, 60, 100
2, 12000, Note_on_c, 0, 60, 0
2, 12000, Note_on_c, 0, 58, 100
2, 12240, Note_on_c, 0, 58, 0
2, 12240, Note_on_c, 0, 60, 100
2, 12480, Note_on_c, 0, 60, 0
2, 12480, Note_on_c, 0, 55, 100
2, 12720, Note_on_c, 0, 55, 0
2, 12720, Note_on_c, 0, 58, 100
2, 12960, Note_on_c, 0, 58, 0
2, 12960, Note_on_c, 0, 57, 100
2, 13200, Note_on_c, 0, 57, 0
2, 13200, Note_on_c, 0, 60, 100
2, 13440, Note_on_c, 0, 60, 0
2, 13440, Note_on_c, 0, 63, 100
2, 13680, Note_on_c, 0, 63, 0
2, 13680, Note_on_c, 0, 67, 100
2, 13920, Note_on_c, 0, 67, 0
2, 13920, Note_on_c, 0, 65, 100
2, 14160, Note_on_c, 0, 65, 0
2, 14160, Note_on_c, 0, 63, 100
2, 14400, Note_on_c, 0, 63, 0
2, 14400, Note_on_c, 0, 62, 100
2, 14640, Note_on_c, 0, 62, 0
2, 14640, Note_on_c, 0, 70, 100
2, 14880, Note_on_c, 0, 70, 0
2, 14880, Note_on_c, 0, 69, 100
2, 15120, Note_on_c, 0, 69, 0
2, 15120, Note_on_c, 0, 70, 100
2, 15360, Note_on_c, 0, 70, 0
2, 15360, Note_on_c, 0, 65, 100
2, 15600, Note_on_c, 0, 65, 0
2, 15600, Note_on_c, 0, 68, 100
2, 15840, Note_on_c, 0, 68, 0
2, 15840, Note_on_c, 0, 67, 100
2, 16080, Note_on_c, 0, 67, 0
2, 16080, Note_on_c, 0, 62, 100
2, 16320, Note_on_c, 0, 62, 0
2, 16320, Note_on_c, 0, 63, 100
2, 16560, Note_on_c, 0, 63, 0
2, 16560, Note_on_c, 0, 58, 100
2, 16800, Note_on_c, 0, 58, 0
2, 16800, Note_on_c, 0, 63, 100
2, 17040, Note_on_c, 0, 63, 0
2, 17040, Note_on_c, 0, 67, 100
2, 17280, Note_on_c, 0, 67, 0
2, 17520, Note_on_c, 0, 65, 100
2, 17760, Note_on_c, 0, 65, 0
2, 17760, Note_on_c, 0, 63, 100
2, 18000, Note_on_c, 0, 63, 0
2, 18000, Note_on_c, 0, 65, 100
2, 18240, Note_on_c, 0, 65, 0
2, 18240, Note_on_c, 0, 58, 100
2, 18480, Note_on_c, 0, 58, 0
2, 18480, Note_on_c, 0, 62, 100
2, 18720, Note_on_c, 0, 62, 0
2, 18720, Note_on_c, 0, 60, 100
2, 18960, Note_on_c, 0, 60, 0
2, 18960, Note_on_c, 0, 63, 100
2, 19200, Note_on_c, 0, 63, 0
2, 19200, Note_on_c, 0, 55, 100
2, 19440, Note_on_c, 0, 55, 0
2, 19440, Note_on_c, 0, 57, 100
2, 19680, Note_on_c, 0, 57, 0
2, 19680, Note_on_c, 0, 60, 100
2, 19920, Note_on_c, 0, 60, 0
2, 19920, Note_on_c, 0, 63, 100
2, 20160, Note_on_c, 0, 63, 0
2, 20400, Note_on_c, 0, 62, 100
2, 20640, Note_on_c, 0, 62, 0
2, 20640, Note_on_c, 0, 60, 100
2, 20880, Note_on_c, 0, 60, 0
2, 20880, Note_on_c, 0, 62, 100
2, 21120, Note_on_c, 0, 62, 0
2, 21120, Note_on_c, 0, 53, 100
2, 21360, Note_on_c, 0, 53, 0
2, 21360, Note_on_c, 0, 56, 100
2, 21600, Note_on_c, 0, 56, 0
2, 21600, Note_on_c, 0, 55, 100
2, 21840, Note_on_c, 0, 55, 0
2, 21840, Note_on_c, 0, 58, 100
2, 22080, Note_on_c, 0, 58, 0
2, 22080, Note_on_c, 0, 61, 100
2, 22320, Note_on_c, 0, 61, 0
2, 22320, Note_on_c, 0, 56, 100
2, 22560, Note_on_c, 0, 56, 0
2, 22560, Note_on_c, 0, 55, 100
2, 22800, Note_on_c, 0, 55, 0
2, 22800, Note_on_c, 0, 53, 100
2, 23040, Note_on_c, 0, 53, 0
2, 23040, Note_on_c, 0, 52, 100
2, 23280, Note_on_c, 0, 52, 0
2, 23280, Note_on_c, 0, 55, 100
2, 23520, Note_on_c, 0, 55, 0
2, 23520, Note_on_c, 0, 58, 100
2, 23760, Note_on_c, 0, 58, 0
2, 23760, Note_on_c, 0, 61, 100
2, 24000, Note_on_c, 0, 61, 0
2, 24000, Note_on_c, 0, 60, 100
2, 24240, Note_on_c, 0, 60, 0
2, 24240, Note_on_c, 0, 64, 100
2, 24480, Note_on_c, 0, 64, 0
2, 24480, Note_on_c, 0, 65, 100
2, 24720, Note_on_c, 0, 65, 0
2, 24720, Note_on_c, 0, 60, 100
2, 24960, Note_on_c, 0, 60, 0
2, 24960, Note_on_c, 0, 56, 100
2, 25200, Note_on_c, 0, 56, 0
2, 25200, Note_on_c, 0, 53, 100
2, 25440, Note_on_c, 0, 53, 0
2, 25440, Note_on_c, 0, 55, 100
2, 25680, Note_on_c, 0, 55, 0
2, 25680, Note_on_c, 0, 56, 100
2, 25920, Note_on_c, 0, 56, 0
2, 25920, Note_on_c, 0, 58, 100
2, 26160, Note_on_c, 0, 58, 0
2, 26160, Note_on_c, 0, 61, 100
2, 26400, Note_on_c, 0, 61, 0
2, 26400, Note_on_c, 0, 65, 100
2, 26640, Note_on_c, 0, 65, 0
2, 26640, Note_on_c, 0, 68, 100
2, 26880, Note_on_c, 0, 68, 0
2, 26880, Note_on_c, 0, 67, 100
2, 27120, Note_on_c, 0, 67, 0
2, 27120, Note_on_c, 0, 70, 100
2, 27360, Note_on_c, 0, 70, 0
2, 27360, Note_on_c, 0, 64, 100
2, 27600, Note_on_c, 0, 64, 0
2, 27600, Note_on_c, 0, 67, 100
2, 27840, Note_on_c, 0, 67, 0
2, 27840, Note_on_c, 0, 58, 100
2, 28080, Note_on_c, 0, 58, 0
2, 28080, Note_on_c, 0, 61, 100
2, 28320, Note_on_c, 0, 61, 0
2, 28320, Note_on_c, 0, 60, 100
2, 28560, Note_on_c, 0, 60, 0
2, 28560, Note_on_c, 0, 58, 100
2, 28800, Note_on_c, 0, 58, 0
2, 28800, Note_on_c, 0, 56, 100
2, 29040, Note_on_c, 0, 56, 0
2, 29040, Note_on_c, 0, 65, 100
2, 29280, Note_on_c, 0, 65, 0
2, 29280, Note_on_c, 0, 64, 100
2, 29520, Note_on_c, 0, 64, 0
2, 29520, Note_on_c, 0, 65, 100
2, 29760, Note_on_c, 0, 65, 0
2, 29760, Note_on_c, 0, 60, 100
2, 30000, Note_on_c, 0, 60, 0
2, 30000, Note_on_c, 0, 63, 100
2, 30240, Note_on_c, 0, 63, 0
2, 30240, Note_on_c, 0, 62, 100
2, 30480, Note_on_c, 0, 62, 0
2, 30480, Note_on_c, 0, 58, 100
2, 30720, Note_on_c, 0, 58, 0
2, 30720, Note_on_c, 0, 62, 100
2, 30960, Note_on_c, 0, 62, 0
2, 30960, Note_on_c, 0, 65, 100
2, 31200, Note_on_c, 0, 65, 0
2, 31200, Note_on_c, 0, 67, 100
2, 31440, Note_on_c, 0, 67, 0
2, 31440, Note_on_c, 0, 68, 100
2, 31680, Note_on_c, 0, 68, 0
2, 31680, Note_on_c, 0, 67, 100
2, 31920, Note_on_c, 0, 67, 0
2, 31920, Note_on_c, 0, 63, 100
2, 32160, Note_on_c, 0, 63, 0
2, 32160, Note_on_c, 0, 62, 100
2, 32400, Note_on_c, 0, 62, 0
2, 32400, Note_on_c, 0, 63, 100
2, 32640, Note_on_c, 0, 63, 0
2, 32640, Note_on_c, 0, 59, 100
2, 32880, Note_on_c, 0, 59, 0
2, 32880, Note_on_c, 0, 62, 100
2, 33120, Note_on_c, 0, 62, 0
2, 33120, Note_on_c, 0, 60, 100
2, 33360, Note_on_c, 0, 60, 0
2, 33360, Note_on_c, 0, 56, 100
2, 33600, Note_on_c, 0, 56, 0
2, 33600, Note_on_c, 0, 60, 100
2, 33840, Note_on_c, 0, 60, 0
2, 33840, Note_on_c, 0, 63, 100
2, 34080, Note_on_c, 0, 63, 0
2, 34080, Note_on_c, 0, 65, 100
2, 34320, Note_on_c, 0, 65, 0
2, 34320, Note_on_c, 0, 67, 100
2, 34560, Note_on_c, 0, 67, 0
2, 34560, Note_on_c, 0, 65, 100
2, 34800, Note_on_c, 0, 65, 0
2, 34800, Note_on_c, 0, 62, 100
2, 35040, Note_on_c, 0, 62, 0
2, 35040, Note_on_c, 0, 60, 100
2, 35280, Note_on_c, 0, 60, 0
2, 35280, Note_on_c, 0, 62, 100
2, 35520, Note_on_c, 0, 62, 0
2, 35520, Note_on_c, 0, 57, 100
2, 35760, Note_on_c, 0, 57, 0
2, 35760, Note_on_c, 0, 60, 100
2, 36000, Note_on_c, 0, 60, 0
2, 36000, Note_on_c, 0, 59, 100
2, 36240, Note_on_c, 0, 59, 0
2, 36240, Note_on_c, 0, 55, 100
2, 36480, Note_on_c, 0, 55, 0
2, 36480, Note_on_c, 0, 59, 100
2, 36720, Note_on_c, 0, 59, 0
2, 36720, Note_on_c, 0, 62, 100
2, 36960, Note_on_c, 0, 62, 0
2, 36960, Note_on_c, 0, 63, 100
2, 37200, Note_on_c, 0, 63, 0
2, 37200, Note_on_c, 0, 65, 100
2, 37440, Note_on_c, 0, 65, 0
2, 37440, Note_on_c, 0, 63, 100
2, 37680, Note_on_c, 0, 63, 0
2, 37680, Note_on_c, 0, 72, 100
2, 37920, Note_on_c, 0, 72, 0
2, 37920, Note_on_c, 0, 71, 100
2, 38160, Note_on_c, 0, 71, 0
2, 38160, Note_on_c, 0, 72, 100
2, 38400, Note_on_c, 0, 72, 0
2, 38400, Note_on_c, 0, 67, 100
2, 38640, Note_on_c, 0, 67, 0
2, 38640, Note_on_c, 0, 70, 100
2, 38880, Note_on_c, 0, 70, 0
2, 38880, Note_on_c, 0, 68, 100
2, 39120, Note_on_c, 0, 68, 0
2, 39120, Note_on_c, 0, 64, 100
2, 39360, Note_on_c, 0, 64, 0
2, 39360, Note_on_c, 0, 65, 100
2, 39600, Note_on_c, 0, 65, 0
2, 39600, Note_on_c, 0, 60, 100
2, 39840, Note_on_c, 0, 60, 0
2, 39840, Note_on_c, 0, 65, 100
2, 40080, Note_on_c, 0, 65, 0
2, 40080, Note_on_c, 0, 68, 100
2, 40320, Note_on_c, 0, 68, 0
2, 40560, Note_on_c, 0, 67, 100
2, 40800, Note_on_c, 0, 67, 0
2, 40800, Note_on_c, 0, 65, 100
2, 41040, Note_on_c, 0, 65, 0
2, 41040, Note_on_c, 0, 67, 100
2, 41280, Note_on_c, 0, 67, 0
2, 41280, Note_on_c, 0, 60, 100
2, 41520, Note_on_c, 0, 60, 0
2, 41520, Note_on_c, 0, 63, 100
2, 41760, Note_on_c, 0, 63, 0
2, 41760, Note_on_c, 0, 62, 100
2, 42000, Note_on_c, 0, 62, 0
2, 42000, Note_on_c, 0, 65, 100
2, 42240, Note_on_c, 0, 65, 0
2, 42240, Note_on_c, 0, 60, 100
2, 42480, Note_on_c, 0, 60, 0
2, 42480, Note_on_c, 0, 59, 100
2, 42720, Note_on_c, 0, 59, 0
2, 42720, Note_on_c, 0, 62, 100
2, 42960, Note_on_c, 0, 62, 0
2, 42960, Note_on_c, 0, 65, 100
2, 43200, Note_on_c, 0, 65, 0
2, 43440, Note_on_c, 0, 63, 100
2, 43680, Note_on_c, 0, 63, 0
2, 43680, Note_on_c, 0, 62, 100
2, 43920, Note_on_c, 0, 62, 0
2, 43920, Note_on_c, 0, 63, 100
2, 44160, Note_on_c, 0, 63, 0
2, 44160, Note_on_c, 0, 55, 100
2, 44400, Note_on_c, 0, 55, 0
2, 44400, Note_on_c, 0, 58, 100
2, 44640, Note_on_c, 0, 58, 0
2, 44640, Note_on_c, 0, 56, 100
2, 44880, Note_on_c, 0, 56, 0
2, 44880, Note_on_c, 0, 60, 100
2, 45120, Note_on_c, 0, 60, 0
2, 45120, Note_on_c, 0, 63, 100
2, 45360, Note_on_c, 0, 63, 0
2, 45360, Note_on_c, 0, 58, 100
2, 45600, Note_on_c, 0, 58, 0
2, 45600, Note_on_c, 0, 56, 100
2, 45840, Note_on_c, 0, 56, 0
2, 45840, Note_on_c, 0, 55, 100
2, 46080, Note_on_c, 0, 55, 0
2, 46080, Note_on_c, 0, 54, 100
2, 46320, Note_on_c, 0, 54, 0
2, 46320, Note_on_c, 0, 62, 100
2, 46560, Note_on_c, 0, 62, 0
2, 46560, Note_on_c, 0, 60, 100
2, 46800, Note_on_c, 0, 60, 0
2, 46800, Note_on_c, 0, 62, 100
2, 47040, Note_on_c, 0, 62, 0
2, 47040, Note_on_c, 0, 54, 100
2, 47280, Note_on_c, 0, 54, 0
2, 47280, Note_on_c, 0, 57, 100
2, 47520, Note_on_c, 0, 57, 0
2, 47520, Note_on_c, 0, 55, 100
2, 47760, Note_on_c, 0, 55, 0
2, 47760, Note_on_c, 0, 58, 100
2, 48000, Note_on_c, 0, 58, 0
2, 48000, Note_on_c, 0, 62, 100
2, 48240, Note_on_c, 0, 62, 0
2, 48240, Note_on_c, 0, 67, 100
2, 48480, Note_on_c, 0, 67, 0
2, 48480, Note_on_c, 0, 62, 100
2, 48720, Note_on_c, 0, 62, 0
2, 48720, Note_on_c, 0, 63, 100
2, 48960, Note_on_c, 0, 63, 0
2, 48960, Note_on_c, 0, 60, 100
2, 49200, Note_on_c, 0, 60, 0
2, 49200, Note_on_c, 0, 55, 100
2, 49440, Note_on_c, 0, 55, 0
2, 49440, Note_on_c, 0, 54, 100
2, 49680, Note_on_c, 0, 54, 0
2, 49680, Note_on_c, 0, 55, 100
2, 49920, Note_on_c, 0, 55, 0
2, 49920, Note_on_c, 0, 60, 100
2, 50160, Note_on_c, 0, 60, 0
2, 50160, Note_on_c, 0, 57, 100
2, 50400, Note_on_c, 0, 57, 0
2, 50400, Note_on_c, 0, 54, 100
2, 50640, Note_on_c, 0, 54, 0
2, 50640, Note_on_c, 0, 57, 100
2, 50880, Note_on_c, 0, 57, 0
2, 50880, Note_on_c, 0, 60, 100
2, 51120, Note_on_c, 0, 60, 0
2, 51120, Note_on_c, 0, 63, 100
2, 51360, Note_on_c, 0, 63, 0
2, 51360, Note_on_c, 0, 62, 100
2, 51600, Note_on_c, 0, 62, 0
2, 51600, Note_on_c, 0, 60, 100
2, 51840, Note_on_c, 0, 60, 0
2, 51840, Note_on_c, 0, 58, 100
2, 52080, Note_on_c, 0, 58, 0
2, 52080, Note_on_c, 0, 55, 100
2, 52320, Note_on_c, 0, 55, 0
2, 52320, Note_on_c, 0, 58, 100
2, 52560, Note_on_c, 0, 58, 0
2, 52560, Note_on_c, 0, 62, 100
2, 52800, Note_on_c, 0, 62, 0
2, 52800, Note_on_c, 0, 67, 100
2, 53040, Note_on_c, 0, 67, 0
2, 53040, Note_on_c, 0, 66, 100
2, 53280, Note_on_c, 0, 66, 0
2, 53280, Note_on_c, 0, 67, 100
2, 53520, Note_on_c, 0, 67, 0
2, 53520, Note_on_c, 0, 70, 100
2, 53760, Note_on_c, 0, 70, 0
2, 53760, Note_on_c, 0, 67, 100
2, 54000, Note_on_c, 0, 67, 0
2, 54000, Note_on_c, 0, 62, 100
2, 54240, Note_on_c, 0, 62, 0
2, 54240, Note_on_c, 0, 64, 100
2, 54480, Note_on_c, 0, 64, 0
2, 54480, Note_on_c, 0, 65, 100
2, 54720, Note_on_c, 0, 65, 0
2, 54720, Note_on_c, 0, 64, 100
2, 54960, Note_on_c, 0, 64, 0
2, 54960, Note_on_c, 0, 60, 100
2, 55200, Note_on_c, 0, 60, 0
2, 55200, Note_on_c, 0, 64, 100
2, 55440, Note_on_c, 0, 64, 0
2, 55440, Note_on_c, 0, 67, 100
2, 55680, Note_on_c, 0, 67, 0
2, 55680, Note_on_c, 0, 70, 100
2, 55920, Note_on_c, 0, 70, 0
2, 55920, Note_on_c, 0, 68, 100
2, 56160, Note_on_c, 0, 68, 0
2, 56160, Note_on_c, 0, 70, 100
2, 56400, Note_on_c, 0, 70, 0
2, 56400, Note_on_c, 0, 73, 100
2, 56640, Note_on_c, 0, 73, 0
2, 56640, Note_on_c, 0, 72, 100
2, 56880, Note_on_c, 0, 72, 0
2, 56880, Note_on_c, 0, 70, 100
2, 57120, Note_on_c, 0, 70, 0
2, 57120, Note_on_c, 0, 68, 100
2, 57360, Note_on_c, 0, 68, 0
2, 57360, Note_on_c, 0, 67, 100
2, 57600, Note_on_c, 0, 67, 0
2, 57600, Note_on_c, 0, 68, 100
2, 57840, Note_on_c, 0, 68, 0
2, 57840, Note_on_c, 0, 53, 100
2, 58080, Note_on_c, 0, 53, 0
2, 58080, Note_on_c, 0, 56, 100
2, 58320, Note_on_c, 0, 56, 0
2, 58320, Note_on_c, 0, 60, 100
2, 58560, Note_on_c, 0, 60, 0
2, 58560, Note_on_c, 0, 65, 100
2, 58800, Note_on_c, 0, 65, 0
2, 58800, Note_on_c, 0, 64, 100
2, 59040, Note_on_c, 0, 64, 0
2, 59040, Note_on_c, 0, 65, 100
2, 59280, Note_on_c, 0, 65, 0
2, 59280, Note_on_c, 0, 68, 100
2, 59520, Note_on_c, 0, 68, 0
2, 59520, Note_on_c, 0, 60, 100
2, 59760, Note_on_c, 0, 60, 0
2, 59760, Note_on_c, 0, 63, 100
2, 60000, Note_on_c, 0, 63, 0
2, 60000, Note_on_c, 0, 62, 100
2, 60240, Note_on_c, 0, 62, 0
2, 60240, Note_on_c, 0, 60, 100
2, 60480, Note_on_c, 0, 60, 0
2, 60480, Note_on_c, 0, 62, 100
2, 60720, Note_on_c, 0, 62, 0
2, 60720, Note_on_c, 0, 58, 100
2, 60960, Note_on_c, 0, 58, 0
2, 60960, Note_on_c, 0, 62, 100
2, 61200, Note_on_c, 0, 62, 0
2, 61200, Note_on_c, 0, 65, 100
2, 61440, Note_on_c, 0, 65, 0
2, 61440, Note_on_c, 0, 68, 100
2, 61680, Note_on_c, 0, 68, 0
2, 61680, Note_on_c, 0, 67, 100
2, 61920, Note_on_c, 0, 67, 0
2, 61920, Note_on_c, 0, 68, 100
2, 62160, Note_on_c, 0, 68, 0
2, 62160, Note_on_c, 0, 72, 100
2, 62400, Note_on_c, 0, 72, 0
2, 62400, Note_on_c, 0, 70, 100
2, 62640, Note_on_c, 0, 70, 0
2, 62640, Note_on_c, 0, 68, 100
2, 62880, Note_on_c, 0, 68, 0
2, 62880, Note_on_c, 0, 67, 100
2, 63120, Note_on_c, 0, 67, 0
2, 63120, Note_on_c, 0, 65, 100
2, 63360, Note_on_c, 0, 65, 0
2, 63360, Note_on_c, 0, 67, 100
2, 63600, Note_on_c, 0, 67, 0
2, 63600, Note_on_c, 0, 63, 100
2, 63840, Note_on_c, 0, 63, 0
2, 63840, Note_on_c, 0, 62, 100
2, 64080, Note_on_c, 0, 62, 0
2, 64080, Note_on_c, 0, 63, 100
2, 64320, Note_on_c, 0, 63, 0
2, 64320, Note_on_c, 0, 58, 100
2, 64560, Note_on_c, 0, 58, 0
2, 64560, Note_on_c, 0, 55, 100
2, 64800, Note_on_c, 0, 55, 0
2, 65040, Note_on_c, 0, 55, 100
2, 65280, Note_on_c, 0, 55, 0
2, 65280, Note_on_c, 0, 58, 100
2, 65520, Note_on_c, 0, 58, 0
2, 65520, Note_on_c, 0, 63, 100
2, 65760, Note_on_c, 0, 63, 0
2, 65760, Note_on_c, 0, 65, 100
2, 66000, Note_on_c, 0, 65, 0
2, 66000, Note_on_c, 0, 67, 100
2, 66240, Note_on_c, 0, 67, 0
2, 66240, Note_on_c, 0, 68, 100
2, 66480, Note_on_c, 0, 68, 0
2, 66480, Note_on_c, 0, 63, 100
2, 66720, Note_on_c, 0, 63, 0
2, 66720, Note_on_c, 0, 62, 100
2, 66960, Note_on_c, 0, 62, 0
2, 66960, Note_on_c, 0, 63, 100
2, 67200, Note_on_c, 0, 63, 0
2, 67200, Note_on_c, 0, 68, 100
2, 67440, Note_on_c, 0, 68, 0
2, 67440, Note_on_c, 0, 72, 100
2, 67680, Note_on_c, 0, 72, 0
2, 67680, Note_on_c, 0, 73, 100
2, 67920, Note_on_c, 0, 73, 0
2, 67920, Note_on_c, 0, 63, 100
2, 68160, Note_on_c, 0, 63, 0
2, 68160, Note_on_c, 0, 62, 100
2, 68400, Note_on_c, 0, 62, 0
2, 68400, Note_on_c, 0, 63, 100
2, 68640, Note_on_c, 0, 63, 0
2, 68640, Note_on_c, 0, 67, 100
2, 68880, Note_on_c, 0, 67, 0
2, 68880, Note_on_c, 0, 70, 100
2, 69120, Note_on_c, 0, 70, 0
2, 69120, Note_on_c, 0, 72, 100
2, 69360, Note_on_c, 0, 72, 0
2, 69360, Note_on_c, 0, 68, 100
2, 69600, Note_on_c, 0, 68, 0
2, 69600, Note_on_c, 0, 67, 100
2, 69840, Note_on_c, 0, 67, 0
2, 69840, Note_on_c, 0, 68, 100
2, 70080, Note_on_c, 0, 68, 0
2, 70080, Note_on_c, 0, 63, 100
2, 70320, Note_on_c, 0, 63, 0
2, 70320, Note_on_c, 0, 66, 100
2, 70560, Note_on_c, 0, 66, 0
2, 70560, Note_on_c, 0, 65, 100
2, 70800, Note_on_c, 0, 65, 0
2, 70800, Note_on_c, 0, 60, 100
2, 71040, Note_on_c, 0, 60, 0
2, 71040, Note_on_c, 0, 61, 100
2, 71280, Note_on_c, 0, 61, 0
2, 71280, Note_on_c, 0, 56, 100
2, 71520, Note_on_c, 0, 56, 0
2, 71520, Note_on_c, 0, 61, 100
2, 71760, Note_on_c, 0, 61, 0
2, 71760, Note_on_c, 0, 65, 100
2, 72000, Note_on_c, 0, 65, 0
2, 72240, Note_on_c, 0, 63, 100
2, 72480, Note_on_c, 0, 63, 0
2, 72480, Note_on_c, 0, 61, 100
2, 72720, Note_on_c, 0, 61, 0
2, 72720, Note_on_c, 0, 63, 100
2, 72960, Note_on_c, 0, 63, 0
2, 72960, Note_on_c, 0, 56, 100
2, 73200, Note_on_c, 0, 56, 0
2, 73200, Note_on_c, 0, 60, 100
2, 73440, Note_on_c, 0, 60, 0
2, 73440, Note_on_c, 0, 58, 100
2, 73680, Note_on_c, 0, 58, 0
2, 73680, Note_on_c, 0, 61, 100
2, 73920, Note_on_c, 0, 61, 0
2, 73920, Note_on_c, 0, 56, 100
2, 74160, Note_on_c, 0, 56, 0
2, 74160, Note_on_c, 0, 55, 100
2, 74400, Note_on_c, 0, 55, 0
2, 74400, Note_on_c, 0, 58, 100
2, 74640, Note_on_c, 0, 58, 0
2, 74640, Note_on_c, 0, 61, 100
2, 74880, Note_on_c, 0, 61, 0
2, 75120, Note_on_c, 0, 60, 100
2, 75360, Note_on_c, 0, 60, 0
2, 75360, Note_on_c, 0, 58, 100
2, 75600, Note_on_c, 0, 58, 0
2, 75600, Note_on_c, 0, 60, 100
2, 75840, Note_on_c, 0, 60, 0
2, 75840, Note_on_c, 0, 56, 100
2, 76080, Note_on_c, 0, 56, 0
2, 76080, Note_on_c, 0, 55, 100
2, 76320, Note_on_c, 0, 55, 0
2, 76320, Note_on_c, 0, 56, 100
2, 76560, Note_on_c, 0, 56, 0
2, 76560, Note_on_c, 0, 53, 100
2, 76800, Note_on_c, 0, 53, 0
2, 76800, Note_on_c, 0, 52, 100
2, 77040, Note_on_c, 0, 52, 0
2, 77040, Note_on_c, 0, 53, 100
2, 77280, Note_on_c, 0, 53, 0
2, 77280, Note_on_c, 0, 60, 100
2, 77520, Note_on_c, 0, 60, 0
2, 77520, Note_on_c, 0, 63, 100
2, 77760, Note_on_c, 0, 63, 0
2, 77760, Note_on_c, 0, 62, 100
2, 78000, Note_on_c, 0, 62, 0
2, 78000, Note_on_c, 0, 58, 100
2, 78240, Note_on_c, 0, 58, 0
2, 78240, Note_on_c, 0, 57, 100
2, 78480, Note_on_c, 0, 57, 0
2, 78480, Note_on_c, 0, 58, 100
2, 78720, Note_on_c, 0, 58, 0
2, 78720, Note_on_c, 0, 60, 100
2, 78960, Note_on_c, 0, 60, 0
2, 78960, Note_on_c, 0, 62, 100
2, 79200, Note_on_c, 0, 62, 0
2, 79200, Note_on_c, 0, 63, 100
2, 79440, Note_on_c, 0, 63, 0
2, 79440, Note_on_c, 0, 58, 100
2, 79680, Note_on_c, 0, 58, 0
2, 79680, Note_on_c, 0, 57, 100
2, 79920, Note_on_c, 0, 57, 0
2, 79920, Note_on_c, 0, 58, 100
2, 80160, Note_on_c, 0, 58, 0
2, 80160, Note_on_c, 0, 62, 100
2, 80400, Note_on_c, 0, 62, 0
2, 80400, Note_on_c, 0, 63, 100
2, 80640, Note_on_c, 0, 63, 0
2, 80640, Note_on_c, 0, 65, 100
2, 80880, Note_on_c, 0, 65, 0
2, 80880, Note_on_c, 0, 58, 100
2, 81120, Note_on_c, 0, 58, 0
2, 81120, Note_on_c, 0, 57, 100
2, 81360, Note_on_c, 0, 57, 0
2, 81360, Note_on_c, 0, 58, 100
2, 81600, Note_on_c, 0, 58, 0
2, 81600, Note_on_c, 0, 62, 100
2, 81840, Note_on_c, 0, 62, 0
2, 81840, Note_on_c, 0, 65, 100
2, 82080, Note_on_c, 0, 65, 0
2, 82080, Note_on_c, 0, 68, 100
2, 82320, Note_on_c, 0, 68, 0
2, 82320, Note_on_c, 0, 72, 100
2, 82560, Note_on_c, 0, 72, 0
2, 82560, Note_on_c, 0, 70, 100
2, 82800, Note_on_c, 0, 70, 0
2, 82800, Note_on_c, 0, 68, 100
2, 83040, Note_on_c, 0, 68, 0
2, 83040, Note_on_c, 0, 67, 100
2, 83280, Note_on_c, 0, 67, 0
2, 83280, Note_on_c, 0, 65, 100
2, 83520, Note_on_c, 0, 65, 0
2, 83520, Note_on_c, 0, 67, 100
2, 83760, Note_on_c, 0, 67, 0
2, 83760, Note_on_c, 0, 63, 100
2, 84000, Note_on_c, 0, 63, 0
2, 84000, Note_on_c, 0, 62, 100
2, 84240, Note_on_c, 0, 62, 0
2, 84240, Note_on_c, 0, 63, 100
2, 84480, Note_on_c, 0, 63, 0
2, 84480, Note_on_c, 0, 67, 100
2, 84720, Note_on_c, 0, 67, 0
2, 84720, Note_on_c, 0, 61, 100
2, 84960, Note_on_c, 0, 61, 0
2, 84960, Note_on_c, 0, 60, 100
2, 85200, Note_on_c, 0, 60, 0
2, 85200, Note_on_c, 0, 67, 100
2, 85440, Note_on_c, 0, 67, 0
2, 85440, Note_on_c, 0, 58, 100
2, 85680, Note_on_c, 0, 58, 0
2, 85680, Note_on_c, 0, 56, 100
2, 85920, Note_on_c, 0, 56, 0
2, 85920, Note_on_c, 0, 63, 100
2, 86160, Note_on_c, 0, 63, 0
2, 86160, Note_on_c, 0, 67, 100
2, 86400, Note_on_c, 0, 67, 0
2, 86400, Note_on_c, 0, 65, 100
2, 86640, Note_on_c, 0, 65, 0
2, 86640, Note_on_c, 0, 62, 100
2, 86880, Note_on_c, 0, 62, 0
2, 86880, Note_on_c, 0, 60, 100
2, 87120, Note_on_c, 0, 60, 0
2, 87120, Note_on_c, 0, 62, 100
2, 87360, Note_on_c, 0, 62, 0
2, 87360, Note_on_c, 0, 65, 100
2, 87600, Note_on_c, 0, 65, 0
2, 87600, Note_on_c, 0, 60, 100
2, 87840, Note_on_c, 0, 60, 0
2, 87840, Note_on_c, 0, 58, 100
2, 88080, Note_on_c, 0, 58, 0
2, 88080, Note_on_c, 0, 65, 100
2, 88320, Note_on_c, 0, 65, 0
2, 88320, Note_on_c, 0, 56, 100
2, 88560, Note_on_c, 0, 56, 0
2, 88560, Note_on_c, 0, 55, 100
2, 88800, Note_on_c, 0, 55, 0
2, 88800, Note_on_c, 0, 62, 100
2, 89040, Note_on_c, 0, 62, 0
2, 89040, Note_on_c, 0, 65, 100
2, 89280, Note_on_c, 0, 65, 0
2, 89280, Note_on_c, 0, 63, 100
2, 89520, Note_on_c, 0, 63, 0
2, 89520, Note_on_c, 0, 60, 100
2, 89760, Note_on_c, 0, 60, 0
2, 89760, Note_on_c, 0, 58, 100
2, 90000, Note_on_c, 0, 58, 0
2, 90000, Note_on_c, 0, 60, 100
2, 90240, Note_on_c, 0, 60, 0
2, 90240, Note_on_c, 0, 63, 100
2, 90480, Note_on_c, 0, 63, 0
2, 90480, Note_on_c, 0, 58, 100
2, 90720, Note_on_c, 0, 58, 0
2, 90720, Note_on_c, 0, 56, 100
2, 90960, Note_on_c, 0, 56, 0
2, 90960, Note_on_c, 0, 63, 100
2, 91200, Note_on_c, 0, 63, 0
2, 91200, Note_on_c, 0, 55, 100
2, 91440, Note_on_c, 0, 55, 0
2, 91440, Note_on_c, 0, 53, 100
2, 91680, Note_on_c, 0, 53, 0
2, 91680, Note_on_c, 0, 60, 100
2, 91920, Note_on_c, 0, 60, 0
2, 91920, Note_on_c, 0, 63, 100
2, 92160, Note_on_c, 0, 63, 0
2, 92160, Note_on_c, 0, 62, 100
2, 92400, Note_on_c, 0, 62, 0
2, 92400, Note_on_c, 0, 56, 100
2, 92640, Note_on_c, 0, 56, 0
2, 92640, Note_on_c, 0, 55, 100
2, 92880, Note_on_c, 0, 55, 0
2, 92880, Note_on_c, 0, 56, 100
2, 93120, Note_on_c, 0, 56, 0
2, 93120, Note_on_c, 0, 62, 100
2, 93360, Note_on_c, 0, 62, 0
2, 93360, Note_on_c, 0, 65, 100
2, 93600, Note_on_c, 0, 65, 0
2, 93600, Note_on_c, 0, 70, 100
2, 93840, Note_on_c, 0, 70, 0
2, 93840, Note_on_c, 0, 56, 100
2, 94080, Note_on_c, 0, 56, 0
2, 94080, Note_on_c, 0, 55, 100
2, 94320, Note_on_c, 0, 55, 0
2, 94320, Note_on_c, 0, 56, 100
2, 94560, Note_on_c, 0, 56, 0
2, 94560, Note_on_c, 0, 62, 100
2, 94800, Note_on_c, 0, 62, 0
2, 94800, Note_on_c, 0, 65, 100
2, 95040, Note_on_c, 0, 65, 0
2, 95040, Note_on_c, 0, 70, 100
2, 95280, Note_on_c, 0, 70, 0
2, 95280, Note_on_c, 0, 55, 100
2, 95520, Note_on_c, 0, 55, 0
2, 95520, Note_on_c, 0, 53, 100
2, 95760, Note_on_c, 0, 53, 0
2, 95760, Note_on_c, 0, 55, 100
2, 96000, Note_on_c, 0, 55, 0
2, 96000, Note_on_c, 0, 58, 100
2, 96240, Note_on_c, 0, 58, 0
2, 96240, Note_on_c, 0, 63, 100
2, 96480, Note_on_c, 0, 63, 0
2, 96480, Note_on_c, 0, 70, 100
2, 96720, Note_on_c, 0, 70, 0
2, 96720, Note_on_c, 0, 55, 100
2, 96960, Note_on_c, 0, 55, 0
2, 96960, Note_on_c, 0, 53, 100
2, 97200, Note_on_c, 0, 53, 0
2, 97200, Note_on_c, 0, 55, 100
2, 97440, Note_on_c, 0, 55, 0
2, 97440, Note_on_c, 0, 58, 100
2, 97680, Note_on_c, 0, 58, 0
2, 97680, Note_on_c, 0, 63, 100
2, 97920, Note_on_c, 0, 63, 0
2, 97920, Note_on_c, 0, 70, 100
2, 98160, Note_on_c, 0, 70, 0
2, 98160, Note_on_c, 0, 53, 100
2, 98400, Note_on_c, 0, 53, 0
2, 98400, Note_on_c, 0, 51, 100
2, 98640, Note_on_c, 0, 51, 0
2, 98640, Note_on_c, 0, 53, 100
2, 98880, Note_on_c, 0, 53, 0
2, 98880, Note_on_c, 0, 58, 100
2, 99120, Note_on_c, 0, 58, 0
2, 99120, Note_on_c, 0, 62, 100
2, 99360, Note_on_c, 0, 62, 0
2, 99360, Note_on_c, 0, 68, 100
2, 99600, Note_on_c, 0, 68, 0
2, 99600, Note_on_c, 0, 53, 100
2, 99840, Note_on_c, 0, 53, 0
2, 99840, Note_on_c, 0, 51, 100
2, 100080, Note_on_c, 0, 51, 0
2, 100080, Note_on_c, 0, 53, 100
2, 100320, Note_on_c, 0, 53, 0
2, 100320, Note_on_c, 0, 58, 100
2, 100560, Note_on_c, 0, 58, 0
2, 100560, Note_on_c, 0, 62, 100
2, 100800, Note_on_c, 0, 62, 0
2, 100800, Note_on_c, 0, 67, 100
2, 101040, Note_on_c, 0, 67, 0
2, 101040, Note_on_c, 0, 58, 100
2, 101280, Note_on_c, 0, 58, 0
2, 101280, Note_on_c, 0, 63, 100
2, 101520, Note_on_c, 0, 63, 0
2, 101520, Note_on_c, 0, 63, 100
2, 101760, Note_on_c, 0, 63, 0
2, 101760, Note_on_c, 0, 58, 100
2, 102000, Note_on_c, 0, 58, 0
2, 102000, Note_on_c, 0, 63, 100
2, 102240, Note_on_c, 0, 63, 0
2, 102480, Note_on_c, 0, 58, 100
2, 102720, Note_on_c, 0, 58, 0
2, 102720, Note_on_c, 0, 63, 100
2, 102960, Note_on_c, 0, 63, 0
2, 102960, Note_on_c, 0, 63, 100
2, 103200, Note_on_c, 0, 63, 0
2, 103200, Note_on_c, 0, 58, 100
2, 103440, Note_on_c, 0, 58, 0
2, 103440, Note_on_c, 0, 63, 100
2, 103680, Note_on_c, 0, 63, 0
2, 103920, Note_on_c, 0, 56, 100
2, 104160, Note_on_c, 0, 56, 0
2, 104160, Note_on_c, 0, 63, 100
2, 104400, Note_on_c, 0, 63, 0
2, 104400, Note_on_c, 0, 63, 100
2, 104640, Note_on_c, 0, 63, 0
2, 104640, Note_on_c, 0, 56, 100
2, 104880, Note_on_c, 0, 56, 0
2, 104880, Note_on_c, 0, 63, 100
2, 105120, Note_on_c, 0, 63, 0
2, 105360, Note_on_c, 0, 55, 100
2, 105600, Note_on_c, 0, 55, 0
2, 105600, Note_on_c, 0, 61, 100
2, 105840, Note_on_c, 0, 61, 0
2, 105840, Note_on_c, 0, 61, 100
2, 106080, Note_on_c, 0, 61, 0
2, 106080, Note_on_c, 0, 55, 100
2, 106320, Note_on_c, 0, 55, 0
2, 106320, Note_on_c, 0, 61, 100
2, 106560, Note_on_c, 0, 61, 0
2, 106560, Note_on_c, 0, 71, 100
2, 106800, Note_on_c, 0, 71, 0
2, 106800, Note_on_c, 0, 68, 100
2, 107040, Note_on_c, 0, 68, 0
2, 107040, Note_on_c, 0, 67, 100
2, 107280, Note_on_c, 0, 67, 0
2, 107280, Note_on_c, 0, 68, 100
2, 107520, Note_on_c, 0, 68, 0
2, 107520, Note_on_c, 0, 63, 100
2, 107760, Note_on_c, 0, 63, 0
2, 107760, Note_on_c, 0, 61, 100
2, 108000, Note_on_c, 0, 61, 0
2, 108000, Note_on_c, 0, 63, 100
2, 108240, Note_on_c, 0, 63, 0
2, 108240, Note_on_c, 0, 59, 100
2, 108480, Note_on_c, 0, 59, 0
2, 108480, Note_on_c, 0, 58, 100
2, 108720, Note_on_c, 0, 58, 0
2, 108720, Note_on_c, 0, 59, 100
2, 108960, Note_on_c, 0, 59, 0
2, 108960, Note_on_c, 0, 56, 100
2, 109200, Note_on_c, 0, 56, 0
2, 109200, Note_on_c, 0, 55, 100
2, 109440, Note_on_c, 0, 55, 0
2, 109440, Note_on_c, 0, 56, 100
2, 109680, Note_on_c, 0, 56, 0
2, 109680, Note_on_c, 0, 52, 100
2, 109920, Note_on_c, 0, 52, 0
2, 109920, Note_on_c, 0, 51, 100
2, 110160, Note_on_c, 0, 51, 0
2, 110160, Note_on_c, 0, 52, 100
2, 110400, Note_on_c, 0, 52, 0
2, 110400, Note_on_c, 0, 56, 100
2, 110640, Note_on_c, 0, 56, 0
2, 110640, Note_on_c, 0, 59, 100
2, 110880, Note_on_c, 0, 59, 0
2, 110880, Note_on_c, 0, 64, 100
2, 111120, Note_on_c, 0, 64, 0
2, 111120, Note_on_c, 0, 59, 100
2, 111360, Note_on_c, 0, 59, 0
2, 111360, Note_on_c, 0, 56, 100
2, 111600, Note_on_c, 0, 56, 0
2, 111600, Note_on_c, 0, 59, 100
2, 111840, Note_on_c, 0, 59, 0
2, 111840, Note_on_c, 0, 64, 100
2, 112080, Note_on_c, 0, 64, 0
2, 112080, Note_on_c, 0, 68, 100
2, 112320, Note_on_c, 0, 68, 0
2, 112320, Note_on_c, 0, 70, 100
2, 112800, Note_on_c, 0, 70, 0
2, 112800, Note_on_c, 0, 69, 100
2, 113040, Note_on_c, 0, 69, 0
2, 113160, Note_on_c, 0, 67, 100
2, 113280, Note_on_c, 0, 67, 0
2, 113280, Note_on_c, 0, 70, 100
2, 113400, Note_on_c, 0, 70, 0
2, 113400, Note_on_c, 0, 69, 100
2, 113520, Note_on_c, 0, 69, 0
2, 113520, Note_on_c, 0, 67, 100
2, 113640, Note_on_c, 0, 67, 0
2, 113640, Note_on_c, 0, 65, 100
2, 113760, Note_on_c, 0, 65, 0
2, 113760, Note_on_c, 0, 70, 100
2, 114000, Note_on_c, 0, 70, 0
2, 114000, Note_on_c, 0, 65, 100
2, 114240, Note_on_c, 0, 65, 0
2, 114240, Note_on_c, 0, 62, 100
2, 114480, Note_on_c, 0, 62, 0
2, 114480, Note_on_c, 0, 58, 100
2, 114720, Note_on_c, 0, 58, 0
2, 114720, Note_on_c, 0, 65, 100
2, 114960, Note_on_c, 0, 65, 0
2, 114960, Note_on_c, 0, 68, 100
2, 115200, Note_on_c, 0, 68, 0
2, 115200, Note_on_c, 0, 67, 100
2, 115440, Note_on_c, 0, 67, 0
2, 115440, Note_on_c, 0, 65, 100
2, 115680, Note_on_c, 0, 65, 0
2, 115680, Note_on_c, 0, 63, 100
2, 115920, Note_on_c, 0, 63, 0
2, 115920, Note_on_c, 0, 65, 100
2, 116160, Note_on_c, 0, 65, 0
2, 116160, Note_on_c, 0, 60, 100
2, 116400, Note_on_c, 0, 60, 0
2, 116400, Note_on_c, 0, 63, 100
2, 116640, Note_on_c, 0, 63, 0
2, 116640, Note_on_c, 0, 53, 100
2, 116880, Note_on_c, 0, 53, 0
2, 116880, Note_on_c, 0, 56, 100
2, 117120, Note_on_c, 0, 56, 0
2, 117120, Note_on_c, 0, 55, 100
2, 117360, Note_on_c, 0, 55, 0
2, 117360, Note_on_c, 0, 56, 100
2, 117600, Note_on_c, 0, 56, 0
2, 117600, Note_on_c, 0, 63, 100
2, 117840, Note_on_c, 0, 63, 0
2, 117840, Note_on_c, 0, 62, 100
2, 118080, Note_on_c, 0, 62, 0
2, 118080, Note_on_c, 0, 63, 100
2, 118320, Note_on_c, 0, 63, 0
2, 118320, Note_on_c, 0, 75, 100
2, 118560, Note_on_c, 0, 75, 0
2, 118560, Note_on_c, 0, 74, 100
2, 118800, Note_on_c, 0, 74, 0
2, 118800, Note_on_c, 0, 75, 100
2, 119040, Note_on_c, 0, 75, 0
2, 119040, Note_on_c, 0, 70, 100
2, 119280, Note_on_c, 0, 70, 0
2, 119280, Note_on_c, 0, 73, 100
2, 119520, Note_on_c, 0, 73, 0
2, 119520, Note_on_c, 0, 72, 100
2, 119760, Note_on_c, 0, 72, 0
2, 119760, Note_on_c, 0, 67, 100
2, 120000, Note_on_c, 0, 67, 0
2, 120000, Note_on_c, 0, 68, 100
2, 120240, Note_on_c, 0, 68, 0
2, 120240, Note_on_c, 0, 63, 100
2, 120480, Note_on_c, 0, 63, 0
2, 120480, Note_on_c, 0, 68, 100
2, 120720, Note_on_c, 0, 68, 0
2, 120720, Note_on_c, 0, 72, 100
2, 120960, Note_on_c, 0, 72, 0
2, 121200, Note_on_c, 0, 70, 100
2, 121440, Note_on_c, 0, 70, 0
2, 121440, Note_on_c, 0, 68, 100
2, 121680, Note_on_c, 0, 68, 0
2, 121680, Note_on_c, 0, 70, 100
2, 121920, Note_on_c, 0, 70, 0
2, 121920, Note_on_c, 0, 63, 100
2, 122160, Note_on_c, 0, 63, 0
2, 122160, Note_on_c, 0, 67, 100
2, 122400, Note_on_c, 0, 67, 0
2, 122400, Note_on_c, 0, 65, 100
2, 122640, Note_on_c, 0, 65, 0
2, 122640, Note_on_c, 0, 68, 100
2, 122880, Note_on_c, 0, 68, 0
2, 122880, Note_on_c, 0, 60, 100
2, 123120, Note_on_c, 0, 60, 0
2, 123120, Note_on_c, 0, 62, 100
2, 123360, Note_on_c, 0, 62, 0
2, 123360, Note_on_c, 0, 65, 100
2, 123600, Note_on_c, 0, 65, 0
2, 123600, Note_on_c, 0, 68, 100
2, 123840, Note_on_c, 0, 68, 0
2, 124080, Note_on_c, 0, 67, 100
2, 124320, Note_on_c, 0, 67, 0
2, 124320, Note_on_c, 0, 65, 100
2, 124560, Note_on_c, 0, 65, 0
2, 124560, Note_on_c, 0, 67, 100
2, 124800, Note_on_c, 0, 67, 0
2, 124800, Note_on_c, 0, 58, 100
2, 125040, Note_on_c, 0, 58, 0
2, 125040, Note_on_c, 0, 61, 100
2, 125280, Note_on_c, 0, 61, 0
2, 125280, Note_on_c, 0, 60, 100
2, 125520, Note_on_c, 0, 60, 0
2, 125520, Note_on_c, 0, 63, 100
2, 125760, Note_on_c, 0, 63, 0
2, 125760, Note_on_c, 0, 68, 100
2, 126000, Note_on_c, 0, 68, 0
2, 126000, Note_on_c, 0, 60, 100
2, 126240, Note_on_c, 0, 60, 0
2, 126240, Note_on_c, 0, 58, 100
2, 126480, Note_on_c, 0, 58, 0
2, 126480, Note_on_c, 0, 56, 100
2, 126720, Note_on_c, 0, 56, 0
2, 126720, Note_on_c, 0, 58, 100
2, 126960, Note_on_c, 0, 58, 0
2, 126960, Note_on_c, 0, 63, 100
2, 127200, Note_on_c, 0, 63, 0
2, 127200, Note_on_c, 0, 67, 100
2, 127440, Note_on_c, 0, 67, 0
2, 127440, Note_on_c, 0, 58, 100
2, 127680, Note_on_c, 0, 58, 0
2, 127680, Note_on_c, 0, 56, 100
2, 127920, Note_on_c, 0, 56, 0
2, 127920, Note_on_c, 0, 55, 100
2, 128160, Note_on_c, 0, 55, 0
2, 128160, Note_on_c, 0, 56, 100
2, 128400, Note_on_c, 0, 56, 0
2, 128400, Note_on_c, 0, 62, 100
2, 128640, Note_on_c, 0, 62, 0
2, 128640, Note_on_c, 0, 65, 100
2, 128880, Note_on_c, 0, 65, 0
2, 128880, Note_on_c, 0, 56, 100
2, 129120, Note_on_c, 0, 56, 0
2, 129120, Note_on_c, 0, 55, 100
2, 129360, Note_on_c, 0, 55, 0
2, 129360, Note_on_c, 0, 53, 100
2, 129600, Note_on_c, 0, 53, 0
2, 129600, Note_on_c, 0, 55, 100
2, 129840, Note_on_c, 0, 55, 0
2, 129840, Note_on_c, 0, 58, 100
2, 130080, Note_on_c, 0, 58, 0
2, 130080, Note_on_c, 0, 63, 100
2, 130320, Note_on_c, 0, 63, 0
2, 130320, Note_on_c, 0, 67, 100
2, 130560, Note_on_c, 0, 67, 0
2, 130560, Note_on_c, 0, 70, 100
2, 130800, Note_on_c, 0, 70, 0
2, 130800, Note_on_c, 0, 73, 100
2, 131040, Note_on_c, 0, 73, 0
2, 131040, Note_on_c, 0, 72, 100
2, 131280, Note_on_c, 0, 72, 0
2, 131280, Note_on_c, 0, 68, 100
2, 131520, Note_on_c, 0, 68, 0
2, 131520, Note_on_c, 0, 65, 100
2, 131760, Note_on_c, 0, 65, 0
2, 131760, Note_on_c, 0, 62, 100
2, 132000, Note_on_c, 0, 62, 0
2, 132000, Note_on_c, 0, 65, 100
2, 132240, Note_on_c, 0, 65, 0
2, 132240, Note_on_c, 0, 68, 100
2, 132480, Note_on_c, 0, 68, 0
2, 132480, Note_on_c, 0, 67, 100
2, 132720, Note_on_c, 0, 67, 0
2, 132720, Note_on_c, 0, 63, 100
2, 132960, Note_on_c, 0, 63, 0
2, 132960, Note_on_c, 0, 58, 100
2, 133200, Note_on_c, 0, 58, 0
2, 133200, Note_on_c, 0, 55, 100
2, 133440, Note_on_c, 0, 55, 0
2, 133440, Note_on_c, 0, 58, 100
2, 133680, Note_on_c, 0, 58, 0
2, 133680, Note_on_c, 0, 61, 100
2, 133920, Note_on_c, 0, 61, 0
2, 133920, Note_on_c, 0, 60, 100
2, 134160, Note_on_c, 0, 60, 0
2, 134160, Note_on_c, 0, 56, 100
2, 134400, Note_on_c, 0, 56, 0
2, 134400, Note_on_c, 0, 53, 100
2, 134640, Note_on_c, 0, 53, 0
2, 134640, Note_on_c, 0, 50, 100
2, 134880, Note_on_c, 0, 50, 0
2, 134880, Note_on_c, 0, 53, 100
2, 135120, Note_on_c, 0, 53, 0
2, 135120, Note_on_c, 0, 56, 100
2, 135360, Note_on_c, 0, 56, 0
2, 135360, Note_on_c, 0, 56, 100
2, 135840, Note_on_c, 0, 56, 0
2, 135840, Note_on_c, 0, 55, 100
2, 136080, Note_on_c, 0, 55, 0
2, 136080, End_track
3, 0, Start_track
3, 0, MIDI_port, 0
3, 0, Title_t, "--------------------------------------"
3, 0, Program_c, 1, 24
3, 0, Control_c, 1, 7, 100
3, 0, Control_c, 1, 10, 59
3, 0, Note_on_c, 1, 39, 100
3, 480, Note_on_c, 1, 39, 0
3, 2880, Note_on_c, 1, 39, 100
3, 3360, Note_on_c, 1, 39, 0
3, 5760, Note_on_c, 1, 39, 100
3, 6240, Note_on_c, 1, 39, 0
3, 8640, Note_on_c, 1, 39, 100
3, 9120, Note_on_c, 1, 39, 0
3, 10080, Note_on_c, 1, 38, 100
3, 10560, Note_on_c, 1, 38, 0
3, 11520, Note_on_c, 1, 36, 100
3, 12000, Note_on_c, 1, 36, 0
3, 12960, Note_on_c, 1, 41, 100
3, 13440, Note_on_c, 1, 41, 0
3, 14400, Note_on_c, 1, 34, 100
3, 14880, Note_on_c, 1, 34, 0
3, 17280, Note_on_c, 1, 46, 100
3, 17760, Note_on_c, 1, 46, 0
3, 20160, Note_on_c, 1, 46, 100
3, 20640, Note_on_c, 1, 46, 0
3, 23040, Note_on_c, 1, 46, 100
3, 23520, Note_on_c, 1, 46, 0
3, 24480, Note_on_c, 1, 44, 100
3, 24960, Note_on_c, 1, 44, 0
3, 25920, Note_on_c, 1, 43, 100
3, 26400, Note_on_c, 1, 43, 0
3, 27360, Note_on_c, 1, 48, 100
3, 27840, Note_on_c, 1, 48, 0
3, 28800, Note_on_c, 1, 41, 100
3, 29280, Note_on_c, 1, 41, 0
3, 29520, Note_on_c, 1, 44, 100
3, 30000, Note_on_c, 1, 44, 0
3, 30240, Note_on_c, 1, 46, 100
3, 30720, Note_on_c, 1, 46, 0
3, 30960, Note_on_c, 1, 50, 100
3, 31440, Note_on_c, 1, 50, 0
3, 31680, Note_on_c, 1, 39, 100
3, 32160, Note_on_c, 1, 39, 0
3, 32400, Note_on_c, 1, 43, 100
3, 32880, Note_on_c, 1, 43, 0
3, 33120, Note_on_c, 1, 44, 100
3, 33600, Note_on_c, 1, 44, 0
3, 33840, Note_on_c, 1, 48, 100
3, 34320, Note_on_c, 1, 48, 0
3, 34560, Note_on_c, 1, 38, 100
3, 35040, Note_on_c, 1, 38, 0
3, 35280, Note_on_c, 1, 41, 100
3, 35760, Note_on_c, 1, 41, 0
3, 36000, Note_on_c, 1, 43, 100
3, 36480, Note_on_c, 1, 43, 0
3, 36720, Note_on_c, 1, 47, 100
3, 37200, Note_on_c, 1, 47, 0
3, 37440, Note_on_c, 1, 36, 100
3, 37920, Note_on_c, 1, 36, 0
3, 40320, Note_on_c, 1, 36, 100
3, 40800, Note_on_c, 1, 36, 0
3, 43200, Note_on_c, 1, 36, 100
3, 43680, Note_on_c, 1, 36, 0
3, 46080, Note_on_c, 1, 48, 100
3, 46560, Note_on_c, 1, 48, 0
3, 47520, Note_on_c, 1, 46, 100
3, 48000, Note_on_c, 1, 46, 0
3, 48960, Note_on_c, 1, 45, 100
3, 49440, Note_on_c, 1, 45, 0
3, 50400, Note_on_c, 1, 50, 100
3, 50880, Note_on_c, 1, 50, 0
3, 51840, Note_on_c, 1, 43, 100
3, 52320, Note_on_c, 1, 43, 0
3, 53280, Note_on_c, 1, 46, 100
3, 53760, Note_on_c, 1, 46, 0
3, 54720, Note_on_c, 1, 48, 100
3, 55200, Note_on_c, 1, 48, 0
3, 56160, Note_on_c, 1, 52, 100
3, 56640, Note_on_c, 1, 52, 0
3, 57600, Note_on_c, 1, 41, 100
3, 58080, Note_on_c, 1, 41, 0
3, 59040, Note_on_c, 1, 44, 100
3, 59520, Note_on_c, 1, 44, 0
3, 60480, Note_on_c, 1, 46, 100
3, 60960, Note_on_c, 1, 46, 0
3, 61920, Note_on_c, 1, 50, 100
3, 62400, Note_on_c, 1, 50, 0
3, 63360, Note_on_c, 1, 39, 100
3, 63840, Note_on_c, 1, 39, 0
3, 64800, Note_on_c, 1, 49, 100
3, 65280, Note_on_c, 1, 49, 0
3, 66240, Note_on_c, 1, 48, 100
3, 66720, Note_on_c, 1, 48, 0
3, 67680, Note_on_c, 1, 46, 100
3, 68160, Note_on_c, 1, 46, 0
3, 69120, Note_on_c, 1, 44, 100
3, 69600, Note_on_c, 1, 44, 0
3, 72000, Note_on_c, 1, 44, 100
3, 72480, Note_on_c, 1, 44, 0
3, 74880, Note_on_c, 1, 44, 100
3, 75360, Note_on_c, 1, 44, 0
3, 77760, Note_on_c, 1, 44, 100
3, 78240, Note_on_c, 1, 44, 0
3, 79200, Note_on_c, 1, 43, 100
3, 79680, Note_on_c, 1, 43, 0
3, 80640, Note_on_c, 1, 38, 100
3, 81120, Note_on_c, 1, 38, 0
3, 82080, Note_on_c, 1, 34, 100
3, 82560, Note_on_c, 1, 34, 0
3, 83520, Note_on_c, 1, 39, 100
3, 84000, Note_on_c, 1, 39, 0
3, 84240, Note_on_c, 1, 43, 100
3, 84720, Note_on_c, 1, 43, 0
3, 84960, Note_on_c, 1, 44, 100
3, 85440, Note_on_c, 1, 44, 0
3, 85680, Note_on_c, 1, 48, 100
3, 86160, Note_on_c, 1, 48, 0
3, 86400, Note_on_c, 1, 38, 100
3, 86880, Note_on_c, 1, 38, 0
3, 87120, Note_on_c, 1, 41, 100
3, 87600, Note_on_c, 1, 41, 0
3, 87840, Note_on_c, 1, 43, 100
3, 88320, Note_on_c, 1, 43, 0
3, 88560, Note_on_c, 1, 46, 100
3, 89040, Note_on_c, 1, 46, 0
3, 89280, Note_on_c, 1, 36, 100
3, 89760, Note_on_c, 1, 36, 0
3, 90000, Note_on_c, 1, 39, 100
3, 90480, Note_on_c, 1, 39, 0
3, 90720, Note_on_c, 1, 41, 100
3, 91200, Note_on_c, 1, 41, 0
3, 91440, Note_on_c, 1, 44, 100
3, 91920, Note_on_c, 1, 44, 0
3, 92160, Note_on_c, 1, 46, 100
3, 92640, Note_on_c, 1, 46, 0
3, 95040, Note_on_c, 1, 48, 100
3, 95520, Note_on_c, 1, 48, 0
3, 97920, Note_on_c, 1, 50, 100
3, 98400, Note_on_c, 1, 50, 0
3, 100800, Note_on_c, 1, 51, 100
3, 101280, Note_on_c, 1, 51, 0
3, 102240, Note_on_c, 1, 49, 100
3, 102720, Note_on_c, 1, 49, 0
3, 103680, Note_on_c, 1, 47, 100
3, 104160, Note_on_c, 1, 47, 0
3, 105120, Note_on_c, 1, 46, 100
3, 105600, Note_on_c, 1, 46, 0
3, 106560, Note_on_c, 1, 44, 100
3, 107040, Note_on_c, 1, 44, 0
3, 109440, Note_on_c, 1, 44, 100
3, 109920, Note_on_c, 1, 44, 0
3, 112320, Note_on_c, 1, 39, 100
3, 113040, Note_on_c, 1, 39, 0
3, 113760, Note_on_c, 1, 38, 100
3, 114240, Note_on_c, 1, 38, 0
3, 115200, Note_on_c, 1, 39, 100
3, 115680, Note_on_c, 1, 39, 0
3, 115920, Note_on_c, 1, 44, 100
3, 116400, Note_on_c, 1, 44, 0
3, 116640, Note_on_c, 1, 46, 100
3, 117120, Note_on_c, 1, 46, 0
3, 117360, Note_on_c, 1, 34, 100
3, 117840, Note_on_c, 1, 34, 0
3, 118080, Note_on_c, 1, 39, 100
3, 118560, Note_on_c, 1, 39, 0
3, 120960, Note_on_c, 1, 39, 100
3, 121440, Note_on_c, 1, 39, 0
3, 123840, Note_on_c, 1, 39, 100
3, 124320, Note_on_c, 1, 39, 0
3, 125280, Note_on_c, 1, 39, 100
3, 125760, Note_on_c, 1, 39, 0
3, 126720, Note_on_c, 1, 39, 100
3, 127200, Note_on_c, 1, 39, 0
3, 128160, Note_on_c, 1, 39, 100
3, 128640, Note_on_c, 1, 39, 0
3, 129600, Note_on_c, 1, 39, 100
3, 130080, Note_on_c, 1, 39, 0
3, 130800, Note_on_c, 1, 43, 100
3, 131040, Note_on_c, 1, 43, 0
3, 131040, Note_on_c, 1, 44, 100
3, 131520, Note_on_c, 1, 44, 0
3, 131760, Note_on_c, 1, 46, 100
3, 132240, Note_on_c, 1, 46, 0
3, 132480, Note_on_c, 1, 48, 100
3, 132960, Note_on_c, 1, 48, 0
3, 133680, Note_on_c, 1, 43, 100
3, 133920, Note_on_c, 1, 43, 0
3, 133920, Note_on_c, 1, 44, 100
3, 134400, Note_on_c, 1, 44, 0
3, 134640, Note_on_c, 1, 46, 100
3, 135120, Note_on_c, 1, 46, 0
3, 135360, Note_on_c, 1, 39, 100
3, 136080, Note_on_c, 1, 39, 0
3, 136080, End_track
4, 0, Start_track
4, 0, MIDI_port, 0
4, 0, Title_t, "Johann Sebastian Bach  (1685-1750)"
4, 0, Program_c, 2, 24
4, 0, Control_c, 2, 7, 100
4, 0, Control_c, 2, 10, 79
4, 14400, Note_on_c, 2, 46, 100
4, 14880, Note_on_c, 2, 46, 0
4, 100800, Note_on_c, 2, 67, 100
4, 101280, Note_on_c, 2, 67, 0
4, 101280, Note_on_c, 2, 67, 100
4, 101520, Note_on_c, 2, 67, 0
4, 101520, Note_on_c, 2, 67, 100
4, 102000, Note_on_c, 2, 67, 0
4, 102000, Note_on_c, 2, 67, 100
4, 102240, Note_on_c, 2, 67, 0
4, 102720, Note_on_c, 2, 67, 100
4, 102960, Note_on_c, 2, 67, 0
4, 102960, Note_on_c, 2, 67, 100
4, 103440, Note_on_c, 2, 67, 0
4, 103440, Note_on_c, 2, 67, 100
4, 103680, Note_on_c, 2, 67, 0
4, 104160, Note_on_c, 2, 68, 100
4, 104400, Note_on_c, 2, 68, 0
4, 104400, Note_on_c, 2, 68, 100
4, 104880, Note_on_c, 2, 68, 0
4, 104880, Note_on_c, 2, 68, 100
4, 105120, Note_on_c, 2, 68, 0
4, 105600, Note_on_c, 2, 70, 100
4, 105840, Note_on_c, 2, 70, 0
4, 105840, Note_on_c, 2, 70, 100
4, 106320, Note_on_c, 2, 70, 0
4, 106320, Note_on_c, 2, 70, 100
4, 106560, Note_on_c, 2, 70, 0
4, 106560, Note_on_c, 2, 63, 100
4, 106800, Note_on_c, 2, 63, 0
4, 112320, Note_on_c, 2, 65, 100
4, 113040, Note_on_c, 2, 65, 0
4, 130800, Note_on_c, 2, 51, 100
4, 131040, Note_on_c, 2, 51, 0
4, 131040, Note_on_c, 2, 51, 100
4, 131520, Note_on_c, 2, 51, 0
4, 131760, Note_on_c, 2, 53, 100
4, 132240, Note_on_c, 2, 53, 0
4, 132480, Note_on_c, 2, 51, 100
4, 132960, Note_on_c, 2, 51, 0
4, 135360, Note_on_c, 2, 51, 100
4, 136080, Note_on_c, 2, 51, 0
4, 136080, End_track
5, 0, Start_track
5, 0, MIDI_port, 0
5, 0, Title_t, "Prelude, Fugue, and Allegro in Eb major"
5, 0, Program_c, 3, 24
5, 0, Control_c, 3, 7, 100
5, 0, Control_c, 3, 10, 49
5, 112320, Note_on_c, 3, 60, 100
5, 113040, Note_on_c, 3, 60, 0
5, 135360, Note_on_c, 3, 46, 100
5, 136080, Note_on_c, 3, 46, 0
5, 136080, End_track
6, 0, Start_track
6, 0, MIDI_port, 0
6, 0, Title_t, "for Solo Lute - BWV 998"
6, 0, End_track
7, 0, Start_track
7, 0, MIDI_port, 0
7, 0, Title_t, "--------------------------------------"
7, 0, End_track
8, 0, Start_track
8, 0, MIDI_port, 0
8, 0, Title_t, "1st Movement: Prelude"
8, 0, End_track
9, 0, Start_track
9, 0, MIDI_port, 0
9, 0, Title_t, "--------------------------------------"
9, 0, End_track
10, 0, Start_track
10, 0, MIDI_port, 0
10, 0, Title_t, "Sequenced with Cakewalk Pro Audio by"
10, 0, End_track
11, 0, Start_track
11, 0, MIDI_port, 0
11, 0, Title_t, "David J. Grossman - dave@unpronounceable.com"
11, 0, End_track
12, 0, Start_track
12, 0, MIDI_port, 0
12, 0, Title_t, "This and other Bach MIDI files can be found at:"
12, 0, End_track
13, 0, Start_track
13, 0, MIDI_port, 0
13, 0, Title_t, "Dave's J.S. Bach Page"
13, 0, End_track
14, 0, Start_track
14, 0, MIDI_port, 0
14, 0, Title_t, "http://www.unpronounceable.com/bach"
14, 0, End_track
15, 0, Start_track
15, 0, MIDI_port, 0
15, 0, Title_t, "--------------------------------------"
15, 0, End_track
16, 0, Start_track
16, 0, MIDI_port, 0
16, 0, Title_t, "Original Filename: pfa-1pre.mid"
16, 0, End_track
17, 0, Start_track
17, 0, MIDI_port, 0
17, 0, Title_t, "Last Modified: March 1, 1997"
17, 0, End_track
0, 0, End_of_file
