0, 0, Header, 1, 11, 240
1, 0, Start_track
1, 0, Time_signature, 3, 2, 12, 8
1, 0, Tempo, 1071429
1, 0, Marker_t, "Polonaise"
1, 17940, Tempo, 1538462
1, 18000, Tempo, 1071429
1, 18000, Marker_t, "Double"
1, 34872, Tempo, 1111111
1, 35028, Tempo, 1176471
1, 35220, Tempo, 1764706
1, 35280, Tempo, 1071429
1, 35280, Marker_t, "Polonaise Repeat"
1, 51912, Tempo, 1111111
1, 52188, Tempo, 1153846
1, 52272, Tempo, 1200000
1, 52356, Tempo, 1224490
1, 52416, Tempo, 1333333
1, 52416, End_track
2, 0, Start_track
2, 0, Title_t, "Violin1"
2, 0, Program_c, 0, 40
2, 0, Control_c, 0, 7, 100
2, 716, Note_on_c, 0, 71, 102
2, 862, Note_off_c, 0, 71, 64
2, 907, Note_on_c, 0, 74, 98
2, 943, Note_off_c, 0, 74, 64
2, 952, Note_on_c, 0, 73, 100
2, 995, Note_off_c, 0, 73, 64
2, 1071, Note_on_c, 0, 71, 85
2, 1122, Note_off_c, 0, 71, 64
2, 1196, Note_on_c, 0, 71, 102
2, 1254, Note_on_c, 0, 70, 62
2, 1261, Note_off_c, 0, 71, 64
2, 1361, Note_off_c, 0, 70, 64
2, 1379, Note_on_c, 0, 71, 68
2, 1404, Note_on_c, 0, 73, 64
2, 1411, Note_off_c, 0, 71, 64
2, 1428, Note_off_c, 0, 73, 64
2, 1444, Note_on_c, 0, 71, 59
2, 1586, Note_off_c, 0, 71, 64
2, 1636, Note_on_c, 0, 74, 80
2, 1671, Note_off_c, 0, 74, 64
2, 1680, Note_on_c, 0, 73, 51
2, 1726, Note_off_c, 0, 73, 64
2, 1796, Note_on_c, 0, 71, 68
2, 1839, Note_off_c, 0, 71, 64
2, 1910, Note_on_c, 0, 73, 61
2, 1973, Note_on_c, 0, 71, 60
2, 1989, Note_off_c, 0, 73, 64
2, 2033, Note_off_c, 0, 71, 64
2, 2034, Note_on_c, 0, 70, 55
2, 2061, Note_off_c, 0, 70, 64
2, 2094, Note_on_c, 0, 73, 61
2, 2116, Note_off_c, 0, 73, 64
2, 2164, Note_on_c, 0, 71, 98
2, 2306, Note_off_c, 0, 71, 64
2, 2354, Note_on_c, 0, 74, 89
2, 2389, Note_off_c, 0, 74, 64
2, 2392, Note_on_c, 0, 73, 78
2, 2438, Note_off_c, 0, 73, 64
2, 2512, Note_on_c, 0, 71, 85
2, 2555, Note_off_c, 0, 71, 64
2, 2632, Note_on_c, 0, 69, 85
2, 2677, Note_off_c, 0, 69, 64
2, 2752, Note_on_c, 0, 67, 82
2, 2803, Note_off_c, 0, 67, 64
2, 2877, Note_on_c, 0, 67, 89
2, 2922, Note_on_c, 0, 66, 93
2, 2924, Note_off_c, 0, 67, 64
2, 2939, Note_on_c, 0, 67, 80
2, 2940, Note_off_c, 0, 66, 64
2, 2959, Note_on_c, 0, 66, 66
2, 2970, Note_off_c, 0, 67, 64
2, 2986, Note_on_c, 0, 64, 57
2, 2996, Note_off_c, 0, 66, 64
2, 3042, Note_on_c, 0, 66, 64
2, 3050, Note_off_c, 0, 64, 64
2, 3103, Note_off_c, 0, 66, 64
2, 3116, Note_on_c, 0, 62, 78
2, 3368, Note_off_c, 0, 62, 64
2, 3601, Note_on_c, 0, 71, 100
2, 3749, Note_off_c, 0, 71, 64
2, 3797, Note_on_c, 0, 74, 87
2, 3830, Note_off_c, 0, 74, 64
2, 3834, Note_on_c, 0, 73, 87
2, 3880, Note_off_c, 0, 73, 64
2, 3957, Note_on_c, 0, 71, 87
2, 4009, Note_off_c, 0, 71, 64
2, 4075, Note_on_c, 0, 71, 87
2, 4105, Note_on_c, 0, 70, 66
2, 4111, Note_off_c, 0, 71, 64
2, 4127, Note_on_c, 0, 71, 80
2, 4128, Note_off_c, 0, 70, 64
2, 4142, Note_on_c, 0, 70, 76
2, 4150, Note_off_c, 0, 71, 64
2, 4161, Note_on_c, 0, 71, 74
2, 4163, Note_off_c, 0, 70, 64
2, 4177, Note_on_c, 0, 70, 80
2, 4186, Note_off_c, 0, 71, 64
2, 4257, Note_off_c, 0, 70, 64
2, 4259, Note_on_c, 0, 71, 76
2, 4284, Note_on_c, 0, 73, 63
2, 4289, Note_off_c, 0, 71, 64
2, 4305, Note_off_c, 0, 73, 64
2, 4320, Note_on_c, 0, 71, 63
2, 4467, Note_off_c, 0, 71, 64
2, 4517, Note_on_c, 0, 74, 80
2, 4553, Note_off_c, 0, 74, 64
2, 4556, Note_on_c, 0, 73, 52
2, 4602, Note_off_c, 0, 73, 64
2, 4673, Note_on_c, 0, 71, 66
2, 4719, Note_off_c, 0, 71, 64
2, 4791, Note_on_c, 0, 73, 60
2, 4850, Note_on_c, 0, 71, 70
2, 4862, Note_off_c, 0, 73, 64
2, 4907, Note_on_c, 0, 70, 57
2, 4910, Note_off_c, 0, 71, 64
2, 4940, Note_off_c, 0, 70, 64
2, 4975, Note_on_c, 0, 73, 60
2, 4998, Note_off_c, 0, 73, 64
2, 5043, Note_on_c, 0, 71, 93
2, 5190, Note_off_c, 0, 71, 64
2, 5235, Note_on_c, 0, 74, 98
2, 5273, Note_off_c, 0, 74, 64
2, 5274, Note_on_c, 0, 73, 64
2, 5321, Note_off_c, 0, 73, 64
2, 5389, Note_on_c, 0, 71, 82
2, 5439, Note_off_c, 0, 71, 64
2, 5509, Note_on_c, 0, 69, 85
2, 5558, Note_off_c, 0, 69, 64
2, 5631, Note_on_c, 0, 67, 85
2, 5682, Note_off_c, 0, 67, 64
2, 5751, Note_on_c, 0, 67, 89
2, 5800, Note_on_c, 0, 66, 87
2, 5804, Note_off_c, 0, 67, 64
2, 5820, Note_off_c, 0, 66, 64
2, 5820, Note_on_c, 0, 67, 80
2, 5839, Note_on_c, 0, 66, 64
2, 5848, Note_off_c, 0, 67, 64
2, 5853, Note_off_c, 0, 66, 64
2, 5853, Note_on_c, 0, 67, 57
2, 5865, Note_on_c, 0, 66, 76
2, 5873, Note_off_c, 0, 67, 64
2, 5879, Note_on_c, 0, 64, 68
2, 5888, Note_off_c, 0, 66, 64
2, 5929, Note_on_c, 0, 66, 80
2, 5940, Note_off_c, 0, 64, 64
2, 5981, Note_off_c, 0, 66, 64
2, 5995, Note_on_c, 0, 62, 85
2, 6238, Note_off_c, 0, 62, 64
2, 41035, Note_on_c, 0, 74, 105
2, 41172, Note_off_c, 0, 74, 64
2, 41230, Note_on_c, 0, 78, 105
2, 41261, Note_off_c, 0, 78, 64
2, 41267, Note_on_c, 0, 76, 89
2, 41312, Note_off_c, 0, 76, 64
2, 41389, Note_on_c, 0, 74, 85
2, 41435, Note_off_c, 0, 74, 64
2, 41512, Note_on_c, 0, 74, 85
2, 41578, Note_on_c, 0, 73, 57
2, 41585, Note_off_c, 0, 74, 64
2, 41679, Note_off_c, 0, 73, 64
2, 41698, Note_on_c, 0, 74, 80
2, 41718, Note_on_c, 0, 76, 78
2, 41729, Note_off_c, 0, 74, 64
2, 41742, Note_off_c, 0, 76, 64
2, 41754, Note_on_c, 0, 74, 87
2, 41823, Note_on_c, 0, 73, 70
2, 41829, Note_off_c, 0, 74, 64
2, 41937, Note_off_c, 0, 73, 64
2, 41962, Note_on_c, 0, 76, 91
2, 41989, Note_off_c, 0, 76, 64
2, 41994, Note_on_c, 0, 74, 87
2, 42039, Note_off_c, 0, 74, 64
2, 42109, Note_on_c, 0, 73, 85
2, 42164, Note_off_c, 0, 73, 64
2, 42224, Note_on_c, 0, 73, 91
2, 42242, Note_on_c, 0, 71, 89
2, 42244, Note_off_c, 0, 73, 64
2, 42259, Note_on_c, 0, 73, 78
2, 42262, Note_off_c, 0, 71, 64
2, 42277, Note_on_c, 0, 71, 85
2, 42283, Note_off_c, 0, 73, 64
2, 42307, Note_off_c, 0, 71, 64
2, 42353, Note_on_c, 0, 70, 87
2, 42409, Note_off_c, 0, 70, 64
2, 42470, Note_on_c, 0, 71, 87
2, 42630, Note_off_c, 0, 71, 64
2, 42651, Note_on_c, 0, 73, 58
2, 42669, Note_on_c, 0, 74, 85
2, 42678, Note_off_c, 0, 73, 64
2, 42694, Note_off_c, 0, 74, 64
2, 42709, Note_on_c, 0, 73, 93
2, 42825, Note_on_c, 0, 74, 82
2, 42826, Note_off_c, 0, 73, 64
2, 42856, Note_off_c, 0, 74, 64
2, 42891, Note_on_c, 0, 78, 85
2, 42920, Note_off_c, 0, 78, 64
2, 42952, Note_on_c, 0, 76, 89
2, 43009, Note_on_c, 0, 74, 68
2, 43016, Note_off_c, 0, 76, 64
2, 43045, Note_off_c, 0, 74, 64
2, 43073, Note_on_c, 0, 73, 78
2, 43131, Note_on_c, 0, 71, 80
2, 43142, Note_off_c, 0, 73, 64
2, 43165, Note_off_c, 0, 71, 64
2, 43191, Note_on_c, 0, 73, 82
2, 43250, Note_on_c, 0, 71, 70
2, 43259, Note_off_c, 0, 73, 64
2, 43289, Note_off_c, 0, 71, 64
2, 43309, Note_on_c, 0, 70, 58
2, 43368, Note_on_c, 0, 68, 59
2, 43378, Note_off_c, 0, 70, 64
2, 43408, Note_off_c, 0, 68, 64
2, 43438, Note_on_c, 0, 66, 57
2, 43697, Note_off_c, 0, 66, 64
2, 43915, Note_on_c, 0, 71, 110
2, 44067, Note_off_c, 0, 71, 64
2, 44117, Note_on_c, 0, 74, 102
2, 44148, Note_off_c, 0, 74, 64
2, 44153, Note_on_c, 0, 73, 102
2, 44199, Note_off_c, 0, 73, 64
2, 44275, Note_on_c, 0, 71, 89
2, 44322, Note_off_c, 0, 71, 64
2, 44396, Note_on_c, 0, 71, 98
2, 44457, Note_on_c, 0, 70, 64
2, 44466, Note_off_c, 0, 71, 64
2, 44556, Note_off_c, 0, 70, 64
2, 44579, Note_on_c, 0, 71, 70
2, 44605, Note_on_c, 0, 73, 60
2, 44610, Note_off_c, 0, 71, 64
2, 44632, Note_off_c, 0, 73, 64
2, 44644, Note_on_c, 0, 66, 68
2, 44784, Note_off_c, 0, 66, 64
2, 44833, Note_on_c, 0, 71, 57
2, 44866, Note_on_c, 0, 70, 57
2, 44868, Note_off_c, 0, 71, 64
2, 44912, Note_off_c, 0, 70, 64
2, 44992, Note_on_c, 0, 71, 70
2, 45034, Note_off_c, 0, 71, 64
2, 45115, Note_on_c, 0, 66, 70
2, 45256, Note_off_c, 0, 66, 64
2, 45286, Note_on_c, 0, 67, 70
2, 45310, Note_on_c, 0, 69, 76
2, 45319, Note_off_c, 0, 67, 64
2, 45333, Note_off_c, 0, 69, 64
2, 45357, Note_on_c, 0, 69, 105
2, 45422, Note_on_c, 0, 67, 68
2, 45426, Note_off_c, 0, 69, 64
2, 45518, Note_off_c, 0, 67, 64
2, 45562, Note_on_c, 0, 76, 91
2, 45586, Note_off_c, 0, 76, 64
2, 45595, Note_on_c, 0, 70, 91
2, 45649, Note_off_c, 0, 70, 64
2, 45718, Note_on_c, 0, 71, 87
2, 45763, Note_off_c, 0, 71, 64
2, 45835, Note_on_c, 0, 66, 100
2, 45884, Note_off_c, 0, 66, 64
2, 45949, Note_on_c, 0, 64, 87
2, 46000, Note_off_c, 0, 64, 64
2, 46069, Note_on_c, 0, 64, 91
2, 46114, Note_on_c, 0, 62, 76
2, 46119, Note_off_c, 0, 64, 64
2, 46134, Note_on_c, 0, 64, 72
2, 46138, Note_off_c, 0, 62, 64
2, 46154, Note_on_c, 0, 62, 85
2, 46159, Note_off_c, 0, 64, 64
2, 46179, Note_on_c, 0, 61, 80
2, 46186, Note_off_c, 0, 62, 64
2, 46238, Note_off_c, 0, 61, 64
2, 46243, Note_on_c, 0, 62, 98
2, 46292, Note_off_c, 0, 62, 64
2, 46309, Note_on_c, 0, 59, 93
2, 46566, Note_off_c, 0, 59, 64
2, 46798, Note_on_c, 0, 74, 110
2, 46945, Note_off_c, 0, 74, 64
2, 46994, Note_on_c, 0, 78, 107
2, 47022, Note_off_c, 0, 78, 64
2, 47031, Note_on_c, 0, 76, 95
2, 47075, Note_off_c, 0, 76, 64
2, 47153, Note_on_c, 0, 74, 89
2, 47194, Note_off_c, 0, 74, 64
2, 47268, Note_on_c, 0, 74, 91
2, 47307, Note_on_c, 0, 73, 58
2, 47311, Note_off_c, 0, 74, 64
2, 47325, Note_on_c, 0, 74, 82
2, 47326, Note_off_c, 0, 73, 64
2, 47342, Note_on_c, 0, 73, 78
2, 47349, Note_off_c, 0, 74, 64
2, 47361, Note_on_c, 0, 74, 82
2, 47362, Note_off_c, 0, 73, 64
2, 47374, Note_on_c, 0, 73, 76
2, 47381, Note_off_c, 0, 74, 64
2, 47443, Note_off_c, 0, 73, 64
2, 47450, Note_on_c, 0, 74, 82
2, 47469, Note_on_c, 0, 76, 82
2, 47478, Note_off_c, 0, 74, 64
2, 47491, Note_off_c, 0, 76, 64
2, 47506, Note_on_c, 0, 74, 100
2, 47573, Note_on_c, 0, 73, 59
2, 47579, Note_off_c, 0, 74, 64
2, 47696, Note_off_c, 0, 73, 64
2, 47723, Note_on_c, 0, 76, 87
2, 47744, Note_off_c, 0, 76, 64
2, 47752, Note_on_c, 0, 74, 91
2, 47800, Note_off_c, 0, 74, 64
2, 47867, Note_on_c, 0, 73, 85
2, 47925, Note_off_c, 0, 73, 64
2, 47988, Note_on_c, 0, 73, 91
2, 48005, Note_on_c, 0, 71, 87
2, 48007, Note_off_c, 0, 73, 64
2, 48022, Note_on_c, 0, 73, 76
2, 48024, Note_off_c, 0, 71, 64
2, 48038, Note_on_c, 0, 71, 89
2, 48047, Note_off_c, 0, 73, 64
2, 48077, Note_off_c, 0, 71, 64
2, 48117, Note_on_c, 0, 70, 93
2, 48167, Note_off_c, 0, 70, 64
2, 48236, Note_on_c, 0, 71, 100
2, 48401, Note_off_c, 0, 71, 64
2, 48408, Note_on_c, 0, 73, 66
2, 48428, Note_on_c, 0, 74, 85
2, 48435, Note_off_c, 0, 73, 64
2, 48451, Note_off_c, 0, 74, 64
2, 48474, Note_on_c, 0, 73, 95
2, 48590, Note_on_c, 0, 74, 80
2, 48600, Note_off_c, 0, 73, 64
2, 48620, Note_off_c, 0, 74, 64
2, 48654, Note_on_c, 0, 78, 91
2, 48680, Note_off_c, 0, 78, 64
2, 48716, Note_on_c, 0, 76, 87
2, 48774, Note_on_c, 0, 74, 64
2, 48782, Note_off_c, 0, 76, 64
2, 48813, Note_off_c, 0, 74, 64
2, 48840, Note_on_c, 0, 73, 70
2, 48896, Note_on_c, 0, 71, 82
2, 48903, Note_off_c, 0, 73, 64
2, 48929, Note_off_c, 0, 71, 64
2, 48960, Note_on_c, 0, 73, 82
2, 49013, Note_on_c, 0, 71, 74
2, 49020, Note_off_c, 0, 73, 64
2, 49047, Note_off_c, 0, 71, 64
2, 49079, Note_on_c, 0, 70, 100
2, 49108, Note_on_c, 0, 71, 68
2, 49112, Note_off_c, 0, 70, 64
2, 49132, Note_on_c, 0, 70, 66
2, 49144, Note_off_c, 0, 71, 64
2, 49156, Note_on_c, 0, 68, 82
2, 49163, Note_off_c, 0, 70, 64
2, 49185, Note_off_c, 0, 68, 64
2, 49200, Note_on_c, 0, 66, 57
2, 49444, Note_off_c, 0, 66, 64
2, 49677, Note_on_c, 0, 71, 110
2, 49818, Note_off_c, 0, 71, 64
2, 49872, Note_on_c, 0, 74, 98
2, 49904, Note_off_c, 0, 74, 64
2, 49908, Note_on_c, 0, 73, 98
2, 49950, Note_off_c, 0, 73, 64
2, 50033, Note_on_c, 0, 71, 91
2, 50073, Note_off_c, 0, 71, 64
2, 50148, Note_on_c, 0, 71, 100
2, 50194, Note_on_c, 0, 70, 85
2, 50197, Note_off_c, 0, 71, 64
2, 50212, Note_off_c, 0, 70, 64
2, 50212, Note_on_c, 0, 71, 85
2, 50231, Note_on_c, 0, 70, 85
2, 50237, Note_off_c, 0, 71, 64
2, 50249, Note_on_c, 0, 71, 85
2, 50252, Note_off_c, 0, 70, 64
2, 50268, Note_on_c, 0, 70, 70
2, 50273, Note_off_c, 0, 71, 64
2, 50332, Note_off_c, 0, 70, 64
2, 50335, Note_on_c, 0, 71, 66
2, 50362, Note_on_c, 0, 73, 57
2, 50365, Note_off_c, 0, 71, 64
2, 50384, Note_off_c, 0, 73, 64
2, 50404, Note_on_c, 0, 66, 53
2, 50546, Note_off_c, 0, 66, 64
2, 50592, Note_on_c, 0, 71, 68
2, 50630, Note_off_c, 0, 71, 64
2, 50631, Note_on_c, 0, 70, 58
2, 50679, Note_off_c, 0, 70, 64
2, 50751, Note_on_c, 0, 71, 68
2, 50796, Note_off_c, 0, 71, 64
2, 50872, Note_on_c, 0, 66, 60
2, 51018, Note_off_c, 0, 66, 64
2, 51045, Note_on_c, 0, 67, 66
2, 51067, Note_on_c, 0, 69, 78
2, 51076, Note_off_c, 0, 67, 64
2, 51088, Note_off_c, 0, 69, 64
2, 51115, Note_on_c, 0, 69, 107
2, 51179, Note_on_c, 0, 67, 74
2, 51186, Note_off_c, 0, 69, 64
2, 51285, Note_off_c, 0, 67, 64
2, 51320, Note_on_c, 0, 76, 93
2, 51343, Note_off_c, 0, 76, 64
2, 51351, Note_on_c, 0, 70, 98
2, 51403, Note_off_c, 0, 70, 64
2, 51473, Note_on_c, 0, 71, 87
2, 51525, Note_off_c, 0, 71, 64
2, 51593, Note_on_c, 0, 66, 82
2, 51646, Note_off_c, 0, 66, 64
2, 51709, Note_on_c, 0, 64, 87
2, 51765, Note_off_c, 0, 64, 64
2, 51830, Note_on_c, 0, 64, 87
2, 51873, Note_on_c, 0, 62, 70
2, 51876, Note_off_c, 0, 64, 64
2, 51891, Note_on_c, 0, 64, 78
2, 51894, Note_off_c, 0, 62, 64
2, 51909, Note_on_c, 0, 62, 76
2, 51912, Note_off_c, 0, 64, 64
2, 51921, Note_on_c, 0, 64, 68
2, 51924, Note_off_c, 0, 62, 64
2, 51932, Note_on_c, 0, 62, 61
2, 51938, Note_off_c, 0, 64, 64
2, 51952, Note_on_c, 0, 61, 76
2, 51961, Note_off_c, 0, 62, 64
2, 52006, Note_on_c, 0, 62, 91
2, 52011, Note_off_c, 0, 61, 64
2, 52066, Note_off_c, 0, 62, 64
2, 52073, Note_on_c, 0, 59, 80
2, 52330, Note_off_c, 0, 59, 64
2, 52330, End_track
3, 0, Start_track
3, 0, Title_t, "Violin2"
3, 0, Program_c, 1, 40
3, 0, Control_c, 1, 7, 100
3, 718, Note_on_c, 1, 66, 105
3, 750, Note_off_c, 1, 66, 64
3, 839, Note_on_c, 1, 62, 95
3, 877, Note_off_c, 1, 62, 64
3, 957, Note_on_c, 1, 67, 98
3, 997, Note_off_c, 1, 67, 64
3, 1085, Note_on_c, 1, 59, 102
3, 1119, Note_off_c, 1, 59, 64
3, 1200, Note_on_c, 1, 61, 87
3, 1239, Note_off_c, 1, 61, 64
3, 1317, Note_on_c, 1, 66, 82
3, 1355, Note_off_c, 1, 66, 64
3, 1436, Note_on_c, 1, 66, 51
3, 1473, Note_off_c, 1, 66, 64
3, 1555, Note_on_c, 1, 71, 64
3, 1590, Note_off_c, 1, 71, 64
3, 1676, Note_on_c, 1, 70, 57
3, 1711, Note_off_c, 1, 70, 64
3, 1794, Note_on_c, 1, 71, 64
3, 1827, Note_off_c, 1, 71, 64
3, 1916, Note_on_c, 1, 67, 55
3, 1957, Note_off_c, 1, 67, 64
3, 2033, Note_on_c, 1, 66, 64
3, 2070, Note_off_c, 1, 66, 64
3, 2158, Note_on_c, 1, 66, 113
3, 2201, Note_off_c, 1, 66, 64
3, 2281, Note_on_c, 1, 71, 100
3, 2321, Note_off_c, 1, 71, 64
3, 2400, Note_on_c, 1, 67, 89
3, 2439, Note_off_c, 1, 67, 64
3, 2516, Note_on_c, 1, 66, 89
3, 2558, Note_off_c, 1, 66, 64
3, 2634, Note_on_c, 1, 64, 89
3, 2680, Note_off_c, 1, 64, 64
3, 2755, Note_on_c, 1, 64, 87
3, 2799, Note_off_c, 1, 64, 64
3, 2869, Note_on_c, 1, 64, 95
3, 2921, Note_on_c, 1, 62, 76
3, 2924, Note_off_c, 1, 64, 64
3, 2942, Note_on_c, 1, 64, 78
3, 2944, Note_off_c, 1, 62, 64
3, 2960, Note_on_c, 1, 62, 80
3, 2965, Note_off_c, 1, 64, 64
3, 2992, Note_on_c, 1, 61, 78
3, 3003, Note_off_c, 1, 62, 64
3, 3054, Note_on_c, 1, 62, 91
3, 3055, Note_off_c, 1, 61, 64
3, 3112, Note_off_c, 1, 62, 64
3, 3121, Note_on_c, 1, 57, 98
3, 3379, Note_off_c, 1, 57, 64
3, 3601, Note_on_c, 1, 66, 116
3, 3632, Note_off_c, 1, 66, 64
3, 3720, Note_on_c, 1, 62, 100
3, 3754, Note_off_c, 1, 62, 64
3, 3842, Note_on_c, 1, 67, 100
3, 3875, Note_off_c, 1, 67, 64
3, 3963, Note_on_c, 1, 59, 102
3, 4002, Note_off_c, 1, 59, 64
3, 4079, Note_on_c, 1, 61, 98
3, 4116, Note_off_c, 1, 61, 64
3, 4195, Note_on_c, 1, 66, 102
3, 4230, Note_off_c, 1, 66, 64
3, 4314, Note_on_c, 1, 66, 57
3, 4355, Note_off_c, 1, 66, 64
3, 4432, Note_on_c, 1, 71, 66
3, 4469, Note_off_c, 1, 71, 64
3, 4553, Note_on_c, 1, 70, 60
3, 4596, Note_off_c, 1, 70, 64
3, 4669, Note_on_c, 1, 71, 68
3, 4710, Note_off_c, 1, 71, 64
3, 4787, Note_on_c, 1, 67, 60
3, 4830, Note_off_c, 1, 67, 64
3, 4910, Note_on_c, 1, 66, 64
3, 4949, Note_off_c, 1, 66, 64
3, 5036, Note_on_c, 1, 66, 116
3, 5086, Note_off_c, 1, 66, 64
3, 5157, Note_on_c, 1, 71, 98
3, 5198, Note_off_c, 1, 71, 64
3, 5279, Note_on_c, 1, 67, 91
3, 5322, Note_off_c, 1, 67, 64
3, 5399, Note_on_c, 1, 66, 95
3, 5441, Note_off_c, 1, 66, 64
3, 5516, Note_on_c, 1, 64, 89
3, 5560, Note_off_c, 1, 64, 64
3, 5632, Note_on_c, 1, 64, 89
3, 5672, Note_off_c, 1, 64, 64
3, 5748, Note_on_c, 1, 64, 100
3, 5789, Note_on_c, 1, 62, 82
3, 5792, Note_off_c, 1, 64, 64
3, 5807, Note_on_c, 1, 64, 64
3, 5809, Note_off_c, 1, 62, 64
3, 5826, Note_off_c, 1, 64, 64
3, 5826, Note_on_c, 1, 62, 64
3, 5839, Note_on_c, 1, 64, 80
3, 5844, Note_off_c, 1, 62, 64
3, 5855, Note_on_c, 1, 62, 85
3, 5859, Note_off_c, 1, 64, 64
3, 5875, Note_on_c, 1, 61, 80
3, 5881, Note_off_c, 1, 62, 64
3, 5931, Note_off_c, 1, 61, 64
3, 5932, Note_on_c, 1, 62, 89
3, 5992, Note_off_c, 1, 62, 64
3, 6006, Note_on_c, 1, 57, 82
3, 6251, Note_off_c, 1, 57, 64
3, 41035, Note_on_c, 1, 69, 85
3, 41081, Note_off_c, 1, 69, 64
3, 41149, Note_on_c, 1, 74, 85
3, 41199, Note_off_c, 1, 74, 64
3, 41270, Note_on_c, 1, 71, 85
3, 41311, Note_off_c, 1, 71, 64
3, 41387, Note_on_c, 1, 64, 82
3, 41433, Note_off_c, 1, 64, 64
3, 41506, Note_on_c, 1, 69, 89
3, 41552, Note_off_c, 1, 69, 64
3, 41632, Note_on_c, 1, 68, 76
3, 41674, Note_off_c, 1, 68, 64
3, 41751, Note_on_c, 1, 69, 89
3, 41797, Note_off_c, 1, 69, 64
3, 41875, Note_on_c, 1, 73, 78
3, 41915, Note_off_c, 1, 73, 64
3, 41997, Note_on_c, 1, 71, 85
3, 42039, Note_off_c, 1, 71, 64
3, 42118, Note_on_c, 1, 70, 82
3, 42162, Note_off_c, 1, 70, 64
3, 42237, Note_on_c, 1, 66, 78
3, 42280, Note_off_c, 1, 66, 64
3, 42356, Note_on_c, 1, 64, 82
3, 42399, Note_off_c, 1, 64, 64
3, 42479, Note_on_c, 1, 66, 78
3, 42528, Note_off_c, 1, 66, 64
3, 42596, Note_on_c, 1, 71, 82
3, 42641, Note_off_c, 1, 71, 64
3, 42714, Note_on_c, 1, 73, 80
3, 42765, Note_off_c, 1, 73, 64
3, 42829, Note_on_c, 1, 71, 70
3, 42872, Note_off_c, 1, 71, 64
3, 42949, Note_on_c, 1, 71, 82
3, 42990, Note_off_c, 1, 71, 64
3, 43066, Note_on_c, 1, 76, 89
3, 43108, Note_off_c, 1, 76, 64
3, 43191, Note_on_c, 1, 70, 80
3, 43237, Note_off_c, 1, 70, 64
3, 43312, Note_on_c, 1, 66, 78
3, 43355, Note_off_c, 1, 66, 64
3, 43440, Note_on_c, 1, 61, 60
3, 43705, Note_off_c, 1, 61, 64
3, 43920, Note_on_c, 1, 66, 100
3, 43964, Note_off_c, 1, 66, 64
3, 44036, Note_on_c, 1, 62, 82
3, 44079, Note_off_c, 1, 62, 64
3, 44157, Note_on_c, 1, 67, 100
3, 44200, Note_off_c, 1, 67, 64
3, 44280, Note_on_c, 1, 59, 87
3, 44328, Note_off_c, 1, 59, 64
3, 44395, Note_on_c, 1, 61, 82
3, 44446, Note_off_c, 1, 61, 64
3, 44513, Note_on_c, 1, 66, 87
3, 44559, Note_off_c, 1, 66, 64
3, 44630, Note_on_c, 1, 66, 57
3, 44684, Note_off_c, 1, 66, 64
3, 44756, Note_on_c, 1, 62, 53
3, 44794, Note_off_c, 1, 62, 64
3, 44875, Note_on_c, 1, 64, 60
3, 44927, Note_off_c, 1, 64, 64
3, 44994, Note_on_c, 1, 66, 59
3, 45065, Note_off_c, 1, 66, 64
3, 45078, Note_on_c, 1, 64, 61
3, 45102, Note_off_c, 1, 64, 64
3, 45110, Note_on_c, 1, 66, 66
3, 45157, Note_off_c, 1, 66, 64
3, 45238, Note_on_c, 1, 63, 63
3, 45281, Note_off_c, 1, 63, 64
3, 45356, Note_on_c, 1, 64, 93
3, 45408, Note_off_c, 1, 64, 64
3, 45476, Note_on_c, 1, 67, 85
3, 45521, Note_off_c, 1, 67, 64
3, 45596, Note_on_c, 1, 66, 91
3, 45665, Note_off_c, 1, 66, 64
3, 45680, Note_on_c, 1, 67, 82
3, 45705, Note_off_c, 1, 67, 64
3, 45713, Note_on_c, 1, 66, 98
3, 45779, Note_off_c, 1, 66, 64
3, 45799, Note_on_c, 1, 64, 72
3, 45826, Note_off_c, 1, 64, 64
3, 45834, Note_on_c, 1, 62, 85
3, 45887, Note_off_c, 1, 62, 64
3, 45958, Note_on_c, 1, 61, 93
3, 46011, Note_off_c, 1, 61, 64
3, 46072, Note_on_c, 1, 61, 100
3, 46116, Note_on_c, 1, 59, 61
3, 46120, Note_off_c, 1, 61, 64
3, 46140, Note_on_c, 1, 61, 76
3, 46144, Note_off_c, 1, 59, 64
3, 46162, Note_on_c, 1, 59, 68
3, 46166, Note_off_c, 1, 61, 64
3, 46189, Note_on_c, 1, 58, 89
3, 46199, Note_off_c, 1, 59, 64
3, 46243, Note_off_c, 1, 58, 64
3, 46248, Note_on_c, 1, 59, 87
3, 46291, Note_off_c, 1, 59, 64
3, 46318, Note_on_c, 1, 59, 66
3, 46573, Note_off_c, 1, 59, 64
3, 46796, Note_on_c, 1, 69, 102
3, 46844, Note_off_c, 1, 69, 64
3, 46915, Note_on_c, 1, 74, 102
3, 46963, Note_off_c, 1, 74, 64
3, 47037, Note_on_c, 1, 71, 87
3, 47083, Note_off_c, 1, 71, 64
3, 47158, Note_on_c, 1, 64, 85
3, 47206, Note_off_c, 1, 64, 64
3, 47278, Note_on_c, 1, 69, 89
3, 47322, Note_off_c, 1, 69, 64
3, 47395, Note_on_c, 1, 68, 76
3, 47439, Note_off_c, 1, 68, 64
3, 47514, Note_on_c, 1, 69, 91
3, 47563, Note_off_c, 1, 69, 64
3, 47637, Note_on_c, 1, 73, 85
3, 47677, Note_off_c, 1, 73, 64
3, 47760, Note_on_c, 1, 71, 89
3, 47804, Note_off_c, 1, 71, 64
3, 47880, Note_on_c, 1, 70, 70
3, 47922, Note_off_c, 1, 70, 64
3, 47993, Note_on_c, 1, 66, 78
3, 48039, Note_off_c, 1, 66, 64
3, 48111, Note_on_c, 1, 64, 82
3, 48159, Note_off_c, 1, 64, 64
3, 48236, Note_on_c, 1, 66, 80
3, 48296, Note_off_c, 1, 66, 64
3, 48355, Note_on_c, 1, 71, 82
3, 48401, Note_off_c, 1, 71, 64
3, 48474, Note_on_c, 1, 73, 82
3, 48522, Note_off_c, 1, 73, 64
3, 48592, Note_on_c, 1, 71, 70
3, 48639, Note_off_c, 1, 71, 64
3, 48708, Note_on_c, 1, 71, 82
3, 48759, Note_off_c, 1, 71, 64
3, 48832, Note_on_c, 1, 76, 87
3, 48876, Note_off_c, 1, 76, 64
3, 48957, Note_on_c, 1, 70, 82
3, 49000, Note_off_c, 1, 70, 64
3, 49076, Note_on_c, 1, 66, 76
3, 49126, Note_off_c, 1, 66, 64
3, 49200, Note_on_c, 1, 61, 63
3, 49451, Note_off_c, 1, 61, 64
3, 49679, Note_on_c, 1, 66, 93
3, 49719, Note_off_c, 1, 66, 64
3, 49795, Note_on_c, 1, 62, 87
3, 49838, Note_off_c, 1, 62, 64
3, 49920, Note_on_c, 1, 67, 98
3, 49957, Note_off_c, 1, 67, 64
3, 50040, Note_on_c, 1, 59, 98
3, 50080, Note_off_c, 1, 59, 64
3, 50156, Note_on_c, 1, 61, 85
3, 50198, Note_off_c, 1, 61, 64
3, 50270, Note_on_c, 1, 66, 89
3, 50313, Note_off_c, 1, 66, 64
3, 50389, Note_on_c, 1, 66, 60
3, 50442, Note_off_c, 1, 66, 64
3, 50515, Note_on_c, 1, 62, 72
3, 50560, Note_off_c, 1, 62, 64
3, 50637, Note_on_c, 1, 64, 70
3, 50687, Note_off_c, 1, 64, 64
3, 50754, Note_on_c, 1, 66, 64
3, 50811, Note_off_c, 1, 66, 64
3, 50843, Note_on_c, 1, 64, 60
3, 50871, Note_on_c, 1, 66, 64
3, 50877, Note_off_c, 1, 64, 64
3, 50916, Note_off_c, 1, 66, 64
3, 50993, Note_on_c, 1, 63, 64
3, 51035, Note_off_c, 1, 63, 64
3, 51109, Note_on_c, 1, 64, 87
3, 51160, Note_off_c, 1, 64, 64
3, 51233, Note_on_c, 1, 67, 87
3, 51280, Note_off_c, 1, 67, 64
3, 51352, Note_on_c, 1, 66, 93
3, 51402, Note_off_c, 1, 66, 64
3, 51439, Note_on_c, 1, 67, 89
3, 51466, Note_off_c, 1, 67, 64
3, 51472, Note_on_c, 1, 66, 105
3, 51515, Note_off_c, 1, 66, 64
3, 51562, Note_on_c, 1, 64, 82
3, 51591, Note_off_c, 1, 64, 64
3, 51596, Note_on_c, 1, 62, 102
3, 51650, Note_off_c, 1, 62, 64
3, 51712, Note_on_c, 1, 61, 105
3, 51767, Note_off_c, 1, 61, 64
3, 51830, Note_on_c, 1, 61, 107
3, 51865, Note_off_c, 1, 61, 64
3, 51865, Note_on_c, 1, 59, 82
3, 51885, Note_off_c, 1, 59, 64
3, 51885, Note_on_c, 1, 61, 89
3, 51903, Note_on_c, 1, 59, 80
3, 51905, Note_off_c, 1, 61, 64
3, 51917, Note_on_c, 1, 61, 78
3, 51924, Note_off_c, 1, 59, 64
3, 51932, Note_on_c, 1, 59, 62
3, 51939, Note_off_c, 1, 61, 64
3, 51945, Note_on_c, 1, 58, 82
3, 51952, Note_off_c, 1, 59, 64
3, 52006, Note_off_c, 1, 58, 64
3, 52007, Note_on_c, 1, 59, 89
3, 52047, Note_off_c, 1, 59, 64
3, 52079, Note_on_c, 1, 59, 98
3, 52343, Note_off_c, 1, 59, 64
3, 52343, End_track
4, 0, Start_track
4, 0, Title_t, "Viola"
4, 0, Program_c, 2, 41
4, 0, Control_c, 2, 7, 100
4, 723, Note_on_c, 2, 59, 107
4, 760, Note_off_c, 2, 59, 64
4, 840, Note_on_c, 2, 66, 116
4, 880, Note_off_c, 2, 66, 64
4, 966, Note_on_c, 2, 64, 113
4, 1005, Note_off_c, 2, 64, 64
4, 1084, Note_on_c, 2, 64, 113
4, 1122, Note_off_c, 2, 64, 64
4, 1200, Note_on_c, 2, 66, 91
4, 1239, Note_off_c, 2, 66, 64
4, 1316, Note_on_c, 2, 61, 89
4, 1360, Note_off_c, 2, 61, 64
4, 1437, Note_on_c, 2, 62, 58
4, 1475, Note_off_c, 2, 62, 64
4, 1548, Note_on_c, 2, 66, 61
4, 1590, Note_off_c, 2, 66, 64
4, 1674, Note_on_c, 2, 64, 59
4, 1719, Note_off_c, 2, 64, 64
4, 1794, Note_on_c, 2, 62, 58
4, 1832, Note_off_c, 2, 62, 64
4, 1915, Note_on_c, 2, 64, 59
4, 1957, Note_off_c, 2, 64, 64
4, 2032, Note_on_c, 2, 61, 68
4, 2069, Note_off_c, 2, 61, 64
4, 2154, Note_on_c, 2, 62, 105
4, 2197, Note_off_c, 2, 62, 64
4, 2276, Note_on_c, 2, 66, 95
4, 2321, Note_off_c, 2, 66, 64
4, 2398, Note_on_c, 2, 64, 89
4, 2448, Note_off_c, 2, 64, 64
4, 2512, Note_on_c, 2, 66, 93
4, 2559, Note_off_c, 2, 66, 64
4, 2601, Note_on_c, 2, 67, 89
4, 2624, Note_off_c, 2, 67, 64
4, 2632, Note_on_c, 2, 69, 89
4, 2678, Note_off_c, 2, 69, 64
4, 2748, Note_on_c, 2, 61, 98
4, 2796, Note_off_c, 2, 61, 64
4, 2871, Note_on_c, 2, 59, 87
4, 2912, Note_on_c, 2, 57, 80
4, 2916, Note_off_c, 2, 59, 64
4, 2932, Note_on_c, 2, 59, 80
4, 2935, Note_off_c, 2, 57, 64
4, 2947, Note_on_c, 2, 57, 78
4, 2953, Note_off_c, 2, 59, 64
4, 2965, Note_on_c, 2, 59, 66
4, 2968, Note_off_c, 2, 57, 64
4, 2974, Note_on_c, 2, 57, 47
4, 2982, Note_off_c, 2, 59, 64
4, 2990, Note_on_c, 2, 55, 87
4, 3002, Note_off_c, 2, 57, 64
4, 3048, Note_on_c, 2, 57, 87
4, 3050, Note_off_c, 2, 55, 64
4, 3107, Note_off_c, 2, 57, 64
4, 3119, Note_on_c, 2, 54, 87
4, 3370, Note_off_c, 2, 54, 64
4, 3599, Note_on_c, 2, 59, 107
4, 3643, Note_off_c, 2, 59, 64
4, 3714, Note_on_c, 2, 66, 95
4, 3755, Note_off_c, 2, 66, 64
4, 3839, Note_on_c, 2, 64, 98
4, 3885, Note_off_c, 2, 64, 64
4, 3963, Note_on_c, 2, 64, 95
4, 4005, Note_off_c, 2, 64, 64
4, 4081, Note_on_c, 2, 66, 93
4, 4119, Note_off_c, 2, 66, 64
4, 4198, Note_on_c, 2, 61, 95
4, 4242, Note_off_c, 2, 61, 64
4, 4321, Note_on_c, 2, 62, 59
4, 4362, Note_off_c, 2, 62, 64
4, 4434, Note_on_c, 2, 66, 62
4, 4474, Note_off_c, 2, 66, 64
4, 4553, Note_on_c, 2, 64, 55
4, 4596, Note_off_c, 2, 64, 64
4, 4675, Note_on_c, 2, 62, 57
4, 4716, Note_off_c, 2, 62, 64
4, 4795, Note_on_c, 2, 64, 60
4, 4838, Note_off_c, 2, 64, 64
4, 4918, Note_on_c, 2, 61, 66
4, 4960, Note_off_c, 2, 61, 64
4, 5040, Note_on_c, 2, 62, 122
4, 5088, Note_off_c, 2, 62, 64
4, 5157, Note_on_c, 2, 66, 105
4, 5205, Note_off_c, 2, 66, 64
4, 5285, Note_on_c, 2, 64, 105
4, 5332, Note_off_c, 2, 64, 64
4, 5400, Note_on_c, 2, 66, 100
4, 5447, Note_off_c, 2, 66, 64
4, 5481, Note_on_c, 2, 67, 89
4, 5504, Note_off_c, 2, 67, 64
4, 5515, Note_on_c, 2, 69, 102
4, 5560, Note_off_c, 2, 69, 64
4, 5632, Note_on_c, 2, 61, 89
4, 5679, Note_off_c, 2, 61, 64
4, 5756, Note_on_c, 2, 59, 91
4, 5798, Note_on_c, 2, 57, 87
4, 5803, Note_off_c, 2, 59, 64
4, 5818, Note_off_c, 2, 57, 64
4, 5818, Note_on_c, 2, 59, 80
4, 5836, Note_on_c, 2, 57, 66
4, 5844, Note_off_c, 2, 59, 64
4, 5874, Note_on_c, 2, 55, 95
4, 5878, Note_off_c, 2, 57, 64
4, 5932, Note_on_c, 2, 57, 82
4, 5935, Note_off_c, 2, 55, 64
4, 5979, Note_off_c, 2, 57, 64
4, 6000, Note_on_c, 2, 54, 93
4, 6250, Note_off_c, 2, 54, 64
4, 41035, Note_on_c, 2, 57, 78
4, 41079, Note_off_c, 2, 57, 64
4, 41155, Note_on_c, 2, 69, 85
4, 41195, Note_off_c, 2, 69, 64
4, 41276, Note_on_c, 2, 67, 82
4, 41321, Note_off_c, 2, 67, 64
4, 41397, Note_on_c, 2, 71, 89
4, 41439, Note_off_c, 2, 71, 64
4, 41516, Note_on_c, 2, 64, 85
4, 41558, Note_off_c, 2, 64, 64
4, 41632, Note_on_c, 2, 64, 78
4, 41676, Note_off_c, 2, 64, 64
4, 41753, Note_on_c, 2, 64, 89
4, 41802, Note_off_c, 2, 64, 64
4, 41876, Note_on_c, 2, 66, 87
4, 41917, Note_off_c, 2, 66, 64
4, 42002, Note_on_c, 2, 66, 89
4, 42042, Note_off_c, 2, 66, 64
4, 42124, Note_on_c, 2, 64, 85
4, 42168, Note_off_c, 2, 64, 64
4, 42235, Note_on_c, 2, 62, 87
4, 42283, Note_off_c, 2, 62, 64
4, 42355, Note_on_c, 2, 61, 78
4, 42399, Note_off_c, 2, 61, 64
4, 42476, Note_on_c, 2, 59, 85
4, 42524, Note_off_c, 2, 59, 64
4, 42594, Note_on_c, 2, 66, 82
4, 42639, Note_off_c, 2, 66, 64
4, 42716, Note_on_c, 2, 66, 78
4, 42764, Note_off_c, 2, 66, 64
4, 42832, Note_on_c, 2, 66, 85
4, 42875, Note_off_c, 2, 66, 64
4, 42950, Note_on_c, 2, 67, 95
4, 42990, Note_off_c, 2, 67, 64
4, 43071, Note_on_c, 2, 59, 82
4, 43111, Note_off_c, 2, 59, 64
4, 43191, Note_on_c, 2, 66, 89
4, 43233, Note_off_c, 2, 66, 64
4, 43312, Note_on_c, 2, 61, 82
4, 43353, Note_off_c, 2, 61, 64
4, 43433, Note_on_c, 2, 58, 66
4, 43696, Note_off_c, 2, 58, 64
4, 43918, Note_on_c, 2, 59, 82
4, 43967, Note_off_c, 2, 59, 64
4, 44029, Note_on_c, 2, 66, 85
4, 44076, Note_off_c, 2, 66, 64
4, 44155, Note_on_c, 2, 64, 82
4, 44203, Note_off_c, 2, 64, 64
4, 44281, Note_on_c, 2, 64, 78
4, 44333, Note_off_c, 2, 64, 64
4, 44399, Note_on_c, 2, 66, 91
4, 44439, Note_off_c, 2, 66, 64
4, 44514, Note_on_c, 2, 61, 89
4, 44561, Note_off_c, 2, 61, 64
4, 44643, Note_on_c, 2, 59, 64
4, 44688, Note_off_c, 2, 59, 64
4, 44753, Note_on_c, 2, 54, 54
4, 44801, Note_off_c, 2, 54, 64
4, 44872, Note_on_c, 2, 61, 60
4, 44918, Note_off_c, 2, 61, 64
4, 44992, Note_on_c, 2, 59, 46
4, 45043, Note_off_c, 2, 59, 64
4, 45115, Note_on_c, 2, 59, 57
4, 45161, Note_off_c, 2, 59, 64
4, 45240, Note_on_c, 2, 59, 66
4, 45281, Note_off_c, 2, 59, 64
4, 45358, Note_on_c, 2, 59, 105
4, 45410, Note_off_c, 2, 59, 64
4, 45478, Note_on_c, 2, 64, 100
4, 45527, Note_off_c, 2, 64, 64
4, 45600, Note_on_c, 2, 61, 87
4, 45647, Note_off_c, 2, 61, 64
4, 45721, Note_on_c, 2, 59, 87
4, 45761, Note_off_c, 2, 59, 64
4, 45841, Note_on_c, 2, 59, 85
4, 45886, Note_off_c, 2, 59, 64
4, 45955, Note_on_c, 2, 58, 78
4, 45993, Note_off_c, 2, 58, 64
4, 46072, Note_on_c, 2, 54, 80
4, 46184, Note_off_c, 2, 54, 64
4, 46192, Note_on_c, 2, 52, 78
4, 46238, Note_off_c, 2, 52, 64
4, 46248, Note_on_c, 2, 54, 80
4, 46287, Note_off_c, 2, 54, 64
4, 46316, Note_on_c, 2, 50, 70
4, 46573, Note_off_c, 2, 50, 64
4, 46796, Note_on_c, 2, 57, 80
4, 46847, Note_off_c, 2, 57, 64
4, 46920, Note_on_c, 2, 69, 87
4, 46963, Note_off_c, 2, 69, 64
4, 47045, Note_on_c, 2, 67, 87
4, 47094, Note_off_c, 2, 67, 64
4, 47158, Note_on_c, 2, 71, 89
4, 47206, Note_off_c, 2, 71, 64
4, 47280, Note_on_c, 2, 64, 87
4, 47322, Note_off_c, 2, 64, 64
4, 47397, Note_on_c, 2, 64, 89
4, 47440, Note_off_c, 2, 64, 64
4, 47517, Note_on_c, 2, 64, 95
4, 47561, Note_off_c, 2, 64, 64
4, 47633, Note_on_c, 2, 66, 82
4, 47673, Note_off_c, 2, 66, 64
4, 47758, Note_on_c, 2, 66, 87
4, 47806, Note_off_c, 2, 66, 64
4, 47878, Note_on_c, 2, 64, 82
4, 47924, Note_off_c, 2, 64, 64
4, 47993, Note_on_c, 2, 62, 85
4, 48042, Note_off_c, 2, 62, 64
4, 48110, Note_on_c, 2, 61, 82
4, 48158, Note_off_c, 2, 61, 64
4, 48236, Note_on_c, 2, 59, 87
4, 48287, Note_off_c, 2, 59, 64
4, 48354, Note_on_c, 2, 66, 82
4, 48398, Note_off_c, 2, 66, 64
4, 48474, Note_on_c, 2, 66, 85
4, 48524, Note_off_c, 2, 66, 64
4, 48597, Note_on_c, 2, 66, 85
4, 48643, Note_off_c, 2, 66, 64
4, 48712, Note_on_c, 2, 67, 89
4, 48752, Note_off_c, 2, 67, 64
4, 48838, Note_on_c, 2, 59, 85
4, 48876, Note_off_c, 2, 59, 64
4, 48957, Note_on_c, 2, 66, 95
4, 48999, Note_off_c, 2, 66, 64
4, 49075, Note_on_c, 2, 61, 82
4, 49120, Note_off_c, 2, 61, 64
4, 49192, Note_on_c, 2, 58, 60
4, 49448, Note_off_c, 2, 58, 64
4, 49674, Note_on_c, 2, 59, 85
4, 49726, Note_off_c, 2, 59, 64
4, 49793, Note_on_c, 2, 66, 85
4, 49838, Note_off_c, 2, 66, 64
4, 49917, Note_on_c, 2, 64, 91
4, 49957, Note_off_c, 2, 64, 64
4, 50035, Note_on_c, 2, 64, 82
4, 50083, Note_off_c, 2, 64, 64
4, 50151, Note_on_c, 2, 66, 85
4, 50197, Note_off_c, 2, 66, 64
4, 50269, Note_on_c, 2, 61, 82
4, 50319, Note_off_c, 2, 61, 64
4, 50396, Note_on_c, 2, 59, 91
4, 50444, Note_off_c, 2, 59, 64
4, 50518, Note_on_c, 2, 54, 80
4, 50564, Note_off_c, 2, 54, 64
4, 50635, Note_on_c, 2, 61, 80
4, 50685, Note_off_c, 2, 61, 64
4, 50753, Note_on_c, 2, 59, 57
4, 50803, Note_off_c, 2, 59, 64
4, 50877, Note_on_c, 2, 59, 53
4, 50925, Note_off_c, 2, 59, 64
4, 50996, Note_on_c, 2, 59, 62
4, 51044, Note_off_c, 2, 59, 64
4, 51115, Note_on_c, 2, 59, 100
4, 51170, Note_off_c, 2, 59, 64
4, 51236, Note_on_c, 2, 64, 98
4, 51287, Note_off_c, 2, 64, 64
4, 51360, Note_on_c, 2, 61, 87
4, 51405, Note_off_c, 2, 61, 64
4, 51475, Note_on_c, 2, 59, 87
4, 51524, Note_off_c, 2, 59, 64
4, 51595, Note_on_c, 2, 59, 82
4, 51637, Note_off_c, 2, 59, 64
4, 51716, Note_on_c, 2, 58, 89
4, 51761, Note_off_c, 2, 58, 64
4, 51844, Note_on_c, 2, 55, 57
4, 51881, Note_on_c, 2, 54, 64
4, 51885, Note_off_c, 2, 55, 64
4, 51901, Note_on_c, 2, 55, 72
4, 51904, Note_off_c, 2, 54, 64
4, 51919, Note_off_c, 2, 55, 64
4, 51919, Note_on_c, 2, 54, 78
4, 51937, Note_on_c, 2, 55, 63
4, 51953, Note_off_c, 2, 55, 64
4, 51957, Note_on_c, 2, 52, 76
4, 51971, Note_off_c, 2, 54, 64
4, 52015, Note_on_c, 2, 54, 85
4, 52024, Note_off_c, 2, 52, 64
4, 52073, Note_off_c, 2, 54, 64
4, 52082, Note_on_c, 2, 50, 76
4, 52339, Note_off_c, 2, 50, 64
4, 52339, End_track
5, 0, Start_track
5, 0, Title_t, "Cello"
5, 0, Program_c, 3, 42
5, 0, Control_c, 3, 7, 100
5, 725, Note_on_c, 3, 50, 119
5, 769, Note_off_c, 3, 50, 64
5, 842, Note_on_c, 3, 47, 102
5, 885, Note_off_c, 3, 47, 64
5, 958, Note_on_c, 3, 52, 107
5, 1004, Note_off_c, 3, 52, 64
5, 1075, Note_on_c, 3, 55, 91
5, 1123, Note_off_c, 3, 55, 64
5, 1197, Note_on_c, 3, 54, 107
5, 1238, Note_off_c, 3, 54, 64
5, 1319, Note_on_c, 3, 52, 98
5, 1364, Note_off_c, 3, 52, 64
5, 1435, Note_on_c, 3, 50, 64
5, 1480, Note_off_c, 3, 50, 64
5, 1555, Note_on_c, 3, 47, 56
5, 1600, Note_off_c, 3, 47, 64
5, 1669, Note_on_c, 3, 54, 56
5, 1721, Note_off_c, 3, 54, 64
5, 1789, Note_on_c, 3, 55, 53
5, 1844, Note_off_c, 3, 55, 64
5, 1913, Note_on_c, 3, 52, 59
5, 1960, Note_off_c, 3, 52, 64
5, 2032, Note_on_c, 3, 54, 66
5, 2080, Note_off_c, 3, 54, 64
5, 2160, Note_on_c, 3, 50, 119
5, 2210, Note_off_c, 3, 50, 64
5, 2284, Note_on_c, 3, 47, 102
5, 2330, Note_off_c, 3, 47, 64
5, 2403, Note_on_c, 3, 52, 95
5, 2447, Note_off_c, 3, 52, 64
5, 2520, Note_on_c, 3, 50, 98
5, 2565, Note_off_c, 3, 50, 64
5, 2637, Note_on_c, 3, 49, 95
5, 2676, Note_off_c, 3, 49, 64
5, 2759, Note_on_c, 3, 45, 100
5, 2799, Note_off_c, 3, 45, 64
5, 2878, Note_on_c, 3, 50, 105
5, 3217, Note_off_c, 3, 50, 64
5, 3228, Note_on_c, 3, 45, 89
5, 3261, Note_off_c, 3, 45, 64
5, 3283, Note_on_c, 3, 42, 82
5, 3317, Note_off_c, 3, 42, 64
5, 3355, Note_on_c, 3, 38, 87
5, 3490, Note_off_c, 3, 38, 64
5, 3593, Note_on_c, 3, 50, 105
5, 3643, Note_off_c, 3, 50, 64
5, 3723, Note_on_c, 3, 47, 87
5, 3770, Note_off_c, 3, 47, 64
5, 3843, Note_on_c, 3, 52, 89
5, 3891, Note_off_c, 3, 52, 64
5, 3962, Note_on_c, 3, 55, 85
5, 4011, Note_off_c, 3, 55, 64
5, 4081, Note_on_c, 3, 54, 89
5, 4123, Note_off_c, 3, 54, 64
5, 4197, Note_on_c, 3, 52, 91
5, 4242, Note_off_c, 3, 52, 64
5, 4320, Note_on_c, 3, 50, 53
5, 4367, Note_off_c, 3, 50, 64
5, 4436, Note_on_c, 3, 47, 61
5, 4484, Note_off_c, 3, 47, 64
5, 4550, Note_on_c, 3, 54, 55
5, 4607, Note_off_c, 3, 54, 64
5, 4669, Note_on_c, 3, 55, 53
5, 4722, Note_off_c, 3, 55, 64
5, 4791, Note_on_c, 3, 52, 51
5, 4842, Note_off_c, 3, 52, 64
5, 4916, Note_on_c, 3, 54, 64
5, 4961, Note_off_c, 3, 54, 64
5, 5040, Note_on_c, 3, 50, 119
5, 5086, Note_off_c, 3, 50, 64
5, 5162, Note_on_c, 3, 47, 98
5, 5207, Note_off_c, 3, 47, 64
5, 5284, Note_on_c, 3, 52, 89
5, 5330, Note_off_c, 3, 52, 64
5, 5396, Note_on_c, 3, 50, 82
5, 5448, Note_off_c, 3, 50, 64
5, 5515, Note_on_c, 3, 49, 91
5, 5559, Note_off_c, 3, 49, 64
5, 5632, Note_on_c, 3, 45, 91
5, 5671, Note_off_c, 3, 45, 64
5, 5757, Note_on_c, 3, 50, 91
5, 6093, Note_off_c, 3, 50, 64
5, 6111, Note_on_c, 3, 45, 82
5, 6146, Note_off_c, 3, 45, 64
5, 6165, Note_on_c, 3, 42, 85
5, 6203, Note_off_c, 3, 42, 64
5, 6241, Note_on_c, 3, 38, 85
5, 6371, Note_off_c, 3, 38, 64
5, 17999, Note_on_c, 3, 59, 74
5, 18152, Note_off_c, 3, 59, 64
5, 18193, Note_on_c, 3, 62, 85
5, 18233, Note_off_c, 3, 62, 64
5, 18233, Note_on_c, 3, 61, 61
5, 18277, Note_off_c, 3, 61, 64
5, 18352, Note_on_c, 3, 59, 74
5, 18406, Note_off_c, 3, 59, 64
5, 18474, Note_on_c, 3, 59, 85
5, 18536, Note_on_c, 3, 58, 59
5, 18542, Note_off_c, 3, 59, 64
5, 18633, Note_off_c, 3, 58, 64
5, 18652, Note_on_c, 3, 59, 55
5, 18673, Note_on_c, 3, 61, 62
5, 18680, Note_off_c, 3, 59, 64
5, 18704, Note_off_c, 3, 61, 64
5, 18720, Note_on_c, 3, 59, 80
5, 18882, Note_off_c, 3, 59, 64
5, 18925, Note_on_c, 3, 62, 85
5, 18956, Note_off_c, 3, 62, 64
5, 18959, Note_on_c, 3, 61, 57
5, 19006, Note_off_c, 3, 61, 64
5, 19076, Note_on_c, 3, 59, 61
5, 19125, Note_off_c, 3, 59, 64
5, 19194, Note_on_c, 3, 61, 78
5, 19247, Note_on_c, 3, 59, 64
5, 19256, Note_off_c, 3, 61, 64
5, 19286, Note_off_c, 3, 59, 64
5, 19311, Note_on_c, 3, 58, 52
5, 19341, Note_off_c, 3, 58, 64
5, 19372, Note_on_c, 3, 61, 63
5, 19407, Note_off_c, 3, 61, 64
5, 19442, Note_on_c, 3, 59, 78
5, 19591, Note_off_c, 3, 59, 64
5, 19635, Note_on_c, 3, 62, 85
5, 19678, Note_on_c, 3, 61, 58
5, 19679, Note_off_c, 3, 62, 64
5, 19720, Note_off_c, 3, 61, 64
5, 19790, Note_on_c, 3, 59, 82
5, 19834, Note_off_c, 3, 59, 64
5, 19911, Note_on_c, 3, 57, 82
5, 19958, Note_off_c, 3, 57, 64
5, 20031, Note_on_c, 3, 55, 72
5, 20088, Note_off_c, 3, 55, 64
5, 20151, Note_on_c, 3, 55, 78
5, 20193, Note_on_c, 3, 54, 57
5, 20197, Note_off_c, 3, 55, 64
5, 20212, Note_on_c, 3, 55, 82
5, 20215, Note_off_c, 3, 54, 64
5, 20232, Note_on_c, 3, 54, 66
5, 20244, Note_off_c, 3, 55, 64
5, 20263, Note_on_c, 3, 52, 70
5, 20275, Note_off_c, 3, 54, 64
5, 20324, Note_on_c, 3, 54, 66
5, 20330, Note_off_c, 3, 52, 64
5, 20379, Note_off_c, 3, 54, 64
5, 20398, Note_on_c, 3, 50, 66
5, 20652, Note_off_c, 3, 50, 64
5, 20878, Note_on_c, 3, 59, 80
5, 21039, Note_off_c, 3, 59, 64
5, 21077, Note_on_c, 3, 62, 85
5, 21114, Note_off_c, 3, 62, 64
5, 21116, Note_on_c, 3, 61, 63
5, 21161, Note_off_c, 3, 61, 64
5, 21230, Note_on_c, 3, 59, 78
5, 21292, Note_off_c, 3, 59, 64
5, 21347, Note_on_c, 3, 59, 76
5, 21393, Note_on_c, 3, 58, 80
5, 21395, Note_off_c, 3, 59, 64
5, 21413, Note_off_c, 3, 58, 64
5, 21413, Note_on_c, 3, 59, 66
5, 21433, Note_on_c, 3, 58, 64
5, 21436, Note_off_c, 3, 59, 64
5, 21448, Note_on_c, 3, 59, 80
5, 21450, Note_off_c, 3, 58, 64
5, 21468, Note_on_c, 3, 58, 87
5, 21476, Note_off_c, 3, 59, 64
5, 21536, Note_off_c, 3, 58, 64
5, 21539, Note_on_c, 3, 59, 64
5, 21564, Note_on_c, 3, 61, 58
5, 21571, Note_off_c, 3, 59, 64
5, 21590, Note_off_c, 3, 61, 64
5, 21603, Note_on_c, 3, 59, 72
5, 21760, Note_off_c, 3, 59, 64
5, 21792, Note_on_c, 3, 62, 87
5, 21829, Note_off_c, 3, 62, 64
5, 21832, Note_on_c, 3, 61, 72
5, 21878, Note_off_c, 3, 61, 64
5, 21953, Note_on_c, 3, 59, 68
5, 22001, Note_off_c, 3, 59, 64
5, 22067, Note_on_c, 3, 61, 70
5, 22126, Note_on_c, 3, 59, 64
5, 22139, Note_off_c, 3, 61, 64
5, 22183, Note_off_c, 3, 59, 64
5, 22192, Note_on_c, 3, 58, 68
5, 22218, Note_off_c, 3, 58, 64
5, 22255, Note_on_c, 3, 61, 82
5, 22283, Note_off_c, 3, 61, 64
5, 22327, Note_on_c, 3, 59, 80
5, 22483, Note_off_c, 3, 59, 64
5, 22519, Note_on_c, 3, 62, 85
5, 22557, Note_on_c, 3, 61, 80
5, 22560, Note_off_c, 3, 62, 64
5, 22599, Note_off_c, 3, 61, 64
5, 22674, Note_on_c, 3, 59, 82
5, 22720, Note_off_c, 3, 59, 64
5, 22789, Note_on_c, 3, 57, 70
5, 22841, Note_off_c, 3, 57, 64
5, 22909, Note_on_c, 3, 55, 63
5, 22962, Note_off_c, 3, 55, 64
5, 23032, Note_on_c, 3, 55, 76
5, 23077, Note_on_c, 3, 54, 59
5, 23082, Note_off_c, 3, 55, 64
5, 23098, Note_on_c, 3, 55, 70
5, 23101, Note_off_c, 3, 54, 64
5, 23120, Note_on_c, 3, 54, 61
5, 23128, Note_off_c, 3, 55, 64
5, 23148, Note_on_c, 3, 52, 60
5, 23159, Note_off_c, 3, 54, 64
5, 23207, Note_on_c, 3, 54, 66
5, 23214, Note_off_c, 3, 52, 64
5, 23258, Note_off_c, 3, 54, 64
5, 23277, Note_on_c, 3, 50, 66
5, 23532, Note_off_c, 3, 50, 64
5, 23754, Note_on_c, 3, 62, 68
5, 23910, Note_off_c, 3, 62, 64
5, 23952, Note_on_c, 3, 66, 89
5, 23992, Note_off_c, 3, 66, 64
5, 23994, Note_on_c, 3, 64, 82
5, 24042, Note_off_c, 3, 64, 64
5, 24111, Note_on_c, 3, 62, 80
5, 24168, Note_off_c, 3, 62, 64
5, 24234, Note_on_c, 3, 62, 87
5, 24297, Note_on_c, 3, 61, 55
5, 24300, Note_off_c, 3, 62, 64
5, 24402, Note_off_c, 3, 61, 64
5, 24412, Note_on_c, 3, 62, 68
5, 24435, Note_on_c, 3, 64, 66
5, 24446, Note_off_c, 3, 62, 64
5, 24460, Note_off_c, 3, 64, 64
5, 24479, Note_on_c, 3, 62, 78
5, 24561, Note_on_c, 3, 61, 51
5, 24567, Note_off_c, 3, 62, 64
5, 24661, Note_off_c, 3, 61, 64
5, 24685, Note_on_c, 3, 64, 82
5, 24722, Note_on_c, 3, 62, 80
5, 24729, Note_off_c, 3, 64, 64
5, 24765, Note_off_c, 3, 62, 64
5, 24840, Note_on_c, 3, 61, 64
5, 24891, Note_off_c, 3, 61, 64
5, 24953, Note_on_c, 3, 61, 87
5, 24969, Note_on_c, 3, 59, 68
5, 24973, Note_off_c, 3, 61, 64
5, 24989, Note_on_c, 3, 61, 68
5, 24991, Note_off_c, 3, 59, 64
5, 25005, Note_on_c, 3, 59, 70
5, 25013, Note_off_c, 3, 61, 64
5, 25046, Note_off_c, 3, 59, 64
5, 25073, Note_on_c, 3, 58, 59
5, 25135, Note_off_c, 3, 58, 64
5, 25194, Note_on_c, 3, 59, 80
5, 25350, Note_off_c, 3, 59, 64
5, 25364, Note_on_c, 3, 61, 57
5, 25388, Note_on_c, 3, 62, 70
5, 25398, Note_off_c, 3, 61, 64
5, 25413, Note_off_c, 3, 62, 64
5, 25431, Note_on_c, 3, 61, 80
5, 25517, Note_off_c, 3, 61, 64
5, 25556, Note_on_c, 3, 66, 66
5, 25617, Note_off_c, 3, 66, 64
5, 25666, Note_on_c, 3, 64, 80
5, 25723, Note_on_c, 3, 62, 64
5, 25732, Note_off_c, 3, 64, 64
5, 25786, Note_off_c, 3, 62, 64
5, 25786, Note_on_c, 3, 61, 46
5, 25839, Note_off_c, 3, 61, 64
5, 25850, Note_on_c, 3, 59, 66
5, 25885, Note_off_c, 3, 59, 64
5, 25912, Note_on_c, 3, 61, 68
5, 25966, Note_on_c, 3, 59, 70
5, 25977, Note_off_c, 3, 61, 64
5, 26016, Note_off_c, 3, 59, 64
5, 26022, Note_on_c, 3, 58, 63
5, 26062, Note_off_c, 3, 58, 64
5, 26083, Note_on_c, 3, 56, 56
5, 26120, Note_off_c, 3, 56, 64
5, 26157, Note_on_c, 3, 54, 59
5, 26522, Note_off_c, 3, 54, 64
5, 26638, Note_on_c, 3, 59, 82
5, 26794, Note_off_c, 3, 59, 64
5, 26830, Note_on_c, 3, 62, 85
5, 26871, Note_off_c, 3, 62, 64
5, 26872, Note_on_c, 3, 61, 63
5, 26923, Note_off_c, 3, 61, 64
5, 26990, Note_on_c, 3, 59, 80
5, 27028, Note_off_c, 3, 59, 64
5, 27111, Note_on_c, 3, 59, 78
5, 27178, Note_on_c, 3, 58, 59
5, 27191, Note_off_c, 3, 59, 64
5, 27272, Note_off_c, 3, 58, 64
5, 27290, Note_on_c, 3, 59, 64
5, 27318, Note_on_c, 3, 61, 57
5, 27323, Note_off_c, 3, 59, 64
5, 27344, Note_off_c, 3, 61, 64
5, 27368, Note_on_c, 3, 54, 49
5, 27514, Note_off_c, 3, 54, 64
5, 27549, Note_on_c, 3, 59, 66
5, 27591, Note_off_c, 3, 59, 64
5, 27594, Note_on_c, 3, 58, 70
5, 27642, Note_off_c, 3, 58, 64
5, 27714, Note_on_c, 3, 59, 66
5, 27758, Note_off_c, 3, 59, 64
5, 27830, Note_on_c, 3, 54, 68
5, 27973, Note_off_c, 3, 54, 64
5, 28001, Note_on_c, 3, 55, 58
5, 28027, Note_on_c, 3, 57, 64
5, 28037, Note_off_c, 3, 55, 64
5, 28056, Note_off_c, 3, 57, 64
5, 28082, Note_on_c, 3, 57, 87
5, 28150, Note_on_c, 3, 55, 59
5, 28162, Note_off_c, 3, 57, 64
5, 28247, Note_off_c, 3, 55, 64
5, 28280, Note_on_c, 3, 64, 82
5, 28309, Note_off_c, 3, 64, 64
5, 28317, Note_on_c, 3, 58, 66
5, 28374, Note_off_c, 3, 58, 64
5, 28435, Note_on_c, 3, 59, 70
5, 28490, Note_off_c, 3, 59, 64
5, 28553, Note_on_c, 3, 54, 66
5, 28606, Note_off_c, 3, 54, 64
5, 28674, Note_on_c, 3, 52, 76
5, 28738, Note_off_c, 3, 52, 64
5, 28796, Note_on_c, 3, 52, 66
5, 28836, Note_on_c, 3, 50, 63
5, 28842, Note_off_c, 3, 52, 64
5, 28859, Note_on_c, 3, 52, 78
5, 28864, Note_off_c, 3, 50, 64
5, 28878, Note_on_c, 3, 50, 80
5, 28883, Note_off_c, 3, 52, 64
5, 28907, Note_on_c, 3, 49, 64
5, 28910, Note_off_c, 3, 50, 64
5, 28968, Note_on_c, 3, 50, 74
5, 28969, Note_off_c, 3, 49, 64
5, 29024, Note_off_c, 3, 50, 64
5, 29037, Note_on_c, 3, 47, 66
5, 29294, Note_off_c, 3, 47, 64
5, 29514, Note_on_c, 3, 62, 80
5, 29672, Note_off_c, 3, 62, 64
5, 29714, Note_on_c, 3, 66, 66
5, 29753, Note_off_c, 3, 66, 64
5, 29755, Note_on_c, 3, 64, 80
5, 29799, Note_off_c, 3, 64, 64
5, 29875, Note_on_c, 3, 62, 78
5, 29930, Note_off_c, 3, 62, 64
5, 29988, Note_on_c, 3, 62, 80
5, 30033, Note_on_c, 3, 61, 55
5, 30035, Note_off_c, 3, 62, 64
5, 30051, Note_on_c, 3, 62, 70
5, 30055, Note_off_c, 3, 61, 64
5, 30070, Note_on_c, 3, 61, 66
5, 30073, Note_off_c, 3, 62, 64
5, 30089, Note_on_c, 3, 62, 78
5, 30093, Note_off_c, 3, 61, 64
5, 30106, Note_on_c, 3, 61, 68
5, 30113, Note_off_c, 3, 62, 64
5, 30164, Note_off_c, 3, 61, 64
5, 30168, Note_on_c, 3, 62, 64
5, 30192, Note_on_c, 3, 64, 68
5, 30200, Note_off_c, 3, 62, 64
5, 30216, Note_off_c, 3, 64, 64
5, 30230, Note_on_c, 3, 62, 78
5, 30309, Note_on_c, 3, 61, 52
5, 30315, Note_off_c, 3, 62, 64
5, 30409, Note_off_c, 3, 61, 64
5, 30438, Note_on_c, 3, 64, 82
5, 30472, Note_off_c, 3, 64, 64
5, 30474, Note_on_c, 3, 62, 76
5, 30521, Note_off_c, 3, 62, 64
5, 30593, Note_on_c, 3, 61, 62
5, 30657, Note_off_c, 3, 61, 64
5, 30708, Note_on_c, 3, 61, 93
5, 30726, Note_on_c, 3, 59, 70
5, 30727, Note_off_c, 3, 61, 64
5, 30745, Note_on_c, 3, 61, 66
5, 30748, Note_off_c, 3, 59, 64
5, 30762, Note_on_c, 3, 59, 70
5, 30770, Note_off_c, 3, 61, 64
5, 30802, Note_off_c, 3, 59, 64
5, 30832, Note_on_c, 3, 58, 63
5, 30889, Note_off_c, 3, 58, 64
5, 30953, Note_on_c, 3, 59, 80
5, 31108, Note_off_c, 3, 59, 64
5, 31129, Note_on_c, 3, 61, 60
5, 31148, Note_on_c, 3, 62, 80
5, 31155, Note_off_c, 3, 61, 64
5, 31174, Note_off_c, 3, 62, 64
5, 31191, Note_on_c, 3, 61, 85
5, 31303, Note_off_c, 3, 61, 64
5, 31307, Note_on_c, 3, 62, 70
5, 31341, Note_off_c, 3, 62, 64
5, 31368, Note_on_c, 3, 66, 78
5, 31395, Note_off_c, 3, 66, 64
5, 31434, Note_on_c, 3, 64, 82
5, 31495, Note_on_c, 3, 62, 59
5, 31504, Note_off_c, 3, 64, 64
5, 31537, Note_off_c, 3, 62, 64
5, 31553, Note_on_c, 3, 61, 60
5, 31581, Note_off_c, 3, 61, 64
5, 31612, Note_on_c, 3, 59, 70
5, 31641, Note_off_c, 3, 59, 64
5, 31671, Note_on_c, 3, 61, 82
5, 31725, Note_on_c, 3, 59, 60
5, 31737, Note_off_c, 3, 61, 64
5, 31767, Note_off_c, 3, 59, 64
5, 31786, Note_on_c, 3, 58, 68
5, 31816, Note_on_c, 3, 59, 70
5, 31821, Note_off_c, 3, 58, 64
5, 31843, Note_on_c, 3, 58, 57
5, 31855, Note_off_c, 3, 59, 64
5, 31873, Note_on_c, 3, 56, 57
5, 31878, Note_off_c, 3, 58, 64
5, 31904, Note_off_c, 3, 56, 64
5, 31920, Note_on_c, 3, 54, 51
5, 32268, Note_off_c, 3, 54, 64
5, 32389, Note_on_c, 3, 59, 82
5, 32540, Note_off_c, 3, 59, 64
5, 32587, Note_on_c, 3, 62, 82
5, 32620, Note_off_c, 3, 62, 64
5, 32629, Note_on_c, 3, 61, 66
5, 32687, Note_off_c, 3, 61, 64
5, 32754, Note_on_c, 3, 59, 70
5, 32811, Note_off_c, 3, 59, 64
5, 32867, Note_on_c, 3, 59, 72
5, 32909, Note_on_c, 3, 58, 57
5, 32914, Note_off_c, 3, 59, 64
5, 32930, Note_on_c, 3, 59, 68
5, 32931, Note_off_c, 3, 58, 64
5, 32949, Note_on_c, 3, 58, 68
5, 32954, Note_off_c, 3, 59, 64
5, 32967, Note_on_c, 3, 59, 76
5, 32969, Note_off_c, 3, 58, 64
5, 32986, Note_on_c, 3, 58, 63
5, 32997, Note_off_c, 3, 59, 64
5, 33047, Note_off_c, 3, 58, 64
5, 33050, Note_on_c, 3, 59, 66
5, 33077, Note_on_c, 3, 61, 53
5, 33079, Note_off_c, 3, 59, 64
5, 33104, Note_off_c, 3, 61, 64
5, 33117, Note_on_c, 3, 54, 52
5, 33267, Note_off_c, 3, 54, 64
5, 33309, Note_on_c, 3, 59, 70
5, 33348, Note_off_c, 3, 59, 64
5, 33351, Note_on_c, 3, 58, 66
5, 33396, Note_off_c, 3, 58, 64
5, 33475, Note_on_c, 3, 59, 64
5, 33527, Note_off_c, 3, 59, 64
5, 33596, Note_on_c, 3, 54, 63
5, 33747, Note_off_c, 3, 54, 64
5, 33760, Note_on_c, 3, 55, 66
5, 33787, Note_on_c, 3, 57, 72
5, 33794, Note_off_c, 3, 55, 64
5, 33812, Note_off_c, 3, 57, 64
5, 33839, Note_on_c, 3, 57, 87
5, 33923, Note_off_c, 3, 57, 64
5, 33923, Note_on_c, 3, 55, 59
5, 34007, Note_off_c, 3, 55, 64
5, 34023, Note_on_c, 3, 64, 80
5, 34057, Note_off_c, 3, 64, 64
5, 34077, Note_on_c, 3, 58, 66
5, 34133, Note_off_c, 3, 58, 64
5, 34198, Note_on_c, 3, 59, 76
5, 34245, Note_off_c, 3, 59, 64
5, 34317, Note_on_c, 3, 54, 63
5, 34368, Note_off_c, 3, 54, 64
5, 34433, Note_on_c, 3, 52, 66
5, 34486, Note_off_c, 3, 52, 64
5, 34549, Note_on_c, 3, 52, 64
5, 34593, Note_on_c, 3, 50, 60
5, 34596, Note_off_c, 3, 52, 64
5, 34613, Note_on_c, 3, 52, 64
5, 34615, Note_off_c, 3, 50, 64
5, 34635, Note_on_c, 3, 50, 70
5, 34639, Note_off_c, 3, 52, 64
5, 34666, Note_on_c, 3, 49, 72
5, 34674, Note_off_c, 3, 50, 64
5, 34727, Note_on_c, 3, 50, 82
5, 34730, Note_off_c, 3, 49, 64
5, 34788, Note_off_c, 3, 50, 64
5, 34802, Note_on_c, 3, 47, 64
5, 35182, Note_off_c, 3, 47, 64
5, 41041, Note_on_c, 3, 54, 78
5, 41079, Note_off_c, 3, 54, 64
5, 41161, Note_on_c, 3, 50, 93
5, 41210, Note_off_c, 3, 50, 64
5, 41281, Note_on_c, 3, 55, 80
5, 41323, Note_off_c, 3, 55, 64
5, 41397, Note_on_c, 3, 56, 85
5, 41444, Note_off_c, 3, 56, 64
5, 41515, Note_on_c, 3, 57, 85
5, 41558, Note_off_c, 3, 57, 64
5, 41635, Note_on_c, 3, 52, 80
5, 41679, Note_off_c, 3, 52, 64
5, 41758, Note_on_c, 3, 57, 82
5, 41805, Note_off_c, 3, 57, 64
5, 41875, Note_on_c, 3, 58, 91
5, 41922, Note_off_c, 3, 58, 64
5, 41996, Note_on_c, 3, 59, 82
5, 42044, Note_off_c, 3, 59, 64
5, 42112, Note_on_c, 3, 54, 64
5, 42161, Note_off_c, 3, 54, 64
5, 42234, Note_on_c, 3, 59, 87
5, 42279, Note_off_c, 3, 59, 64
5, 42349, Note_on_c, 3, 61, 80
5, 42394, Note_off_c, 3, 61, 64
5, 42477, Note_on_c, 3, 62, 95
5, 42528, Note_off_c, 3, 62, 64
5, 42595, Note_on_c, 3, 59, 78
5, 42651, Note_off_c, 3, 59, 64
5, 42709, Note_on_c, 3, 58, 74
5, 42761, Note_off_c, 3, 58, 64
5, 42827, Note_on_c, 3, 59, 76
5, 42871, Note_off_c, 3, 59, 64
5, 42952, Note_on_c, 3, 52, 89
5, 42992, Note_off_c, 3, 52, 64
5, 43072, Note_on_c, 3, 55, 82
5, 43119, Note_off_c, 3, 55, 64
5, 43195, Note_on_c, 3, 54, 82
5, 43511, Note_off_c, 3, 54, 64
5, 43551, Note_on_c, 3, 55, 82
5, 43599, Note_off_c, 3, 55, 64
5, 43675, Note_on_c, 3, 54, 70
5, 43726, Note_off_c, 3, 54, 64
5, 43797, Note_on_c, 3, 52, 80
5, 43846, Note_off_c, 3, 52, 64
5, 43923, Note_on_c, 3, 50, 89
5, 43977, Note_off_c, 3, 50, 64
5, 44042, Note_on_c, 3, 47, 82
5, 44093, Note_off_c, 3, 47, 64
5, 44163, Note_on_c, 3, 52, 85
5, 44208, Note_off_c, 3, 52, 64
5, 44277, Note_on_c, 3, 55, 82
5, 44327, Note_off_c, 3, 55, 64
5, 44395, Note_on_c, 3, 54, 74
5, 44444, Note_off_c, 3, 54, 64
5, 44516, Note_on_c, 3, 52, 72
5, 44562, Note_off_c, 3, 52, 64
5, 44636, Note_on_c, 3, 50, 60
5, 44685, Note_off_c, 3, 50, 64
5, 44755, Note_on_c, 3, 47, 60
5, 44803, Note_off_c, 3, 47, 64
5, 44866, Note_on_c, 3, 49, 51
5, 44921, Note_off_c, 3, 49, 64
5, 44991, Note_on_c, 3, 50, 58
5, 45049, Note_off_c, 3, 50, 64
5, 45115, Note_on_c, 3, 51, 62
5, 45164, Note_off_c, 3, 51, 64
5, 45239, Note_on_c, 3, 47, 64
5, 45289, Note_off_c, 3, 47, 64
5, 45356, Note_on_c, 3, 52, 100
5, 45404, Note_off_c, 3, 52, 64
5, 45478, Note_on_c, 3, 49, 78
5, 45529, Note_off_c, 3, 49, 64
5, 45595, Note_on_c, 3, 54, 85
5, 45645, Note_off_c, 3, 54, 64
5, 45682, Note_on_c, 3, 52, 85
5, 45712, Note_off_c, 3, 52, 64
5, 45715, Note_on_c, 3, 50, 100
5, 45772, Note_off_c, 3, 50, 64
5, 45803, Note_on_c, 3, 52, 85
5, 45829, Note_off_c, 3, 52, 64
5, 45840, Note_on_c, 3, 54, 100
5, 45884, Note_off_c, 3, 54, 64
5, 45961, Note_on_c, 3, 42, 87
5, 46010, Note_off_c, 3, 42, 64
5, 46081, Note_on_c, 3, 47, 93
5, 46424, Note_off_c, 3, 47, 64
5, 46435, Note_on_c, 3, 50, 85
5, 46468, Note_off_c, 3, 50, 64
5, 46492, Note_on_c, 3, 54, 87
5, 46530, Note_off_c, 3, 54, 64
5, 46566, Note_on_c, 3, 59, 98
5, 46709, Note_off_c, 3, 59, 64
5, 46803, Note_on_c, 3, 54, 72
5, 46842, Note_off_c, 3, 54, 64
5, 46922, Note_on_c, 3, 50, 85
5, 46970, Note_off_c, 3, 50, 64
5, 47040, Note_on_c, 3, 55, 91
5, 47092, Note_off_c, 3, 55, 64
5, 47160, Note_on_c, 3, 56, 87
5, 47209, Note_off_c, 3, 56, 64
5, 47283, Note_on_c, 3, 57, 93
5, 47326, Note_off_c, 3, 57, 64
5, 47397, Note_on_c, 3, 52, 85
5, 47441, Note_off_c, 3, 52, 64
5, 47516, Note_on_c, 3, 57, 91
5, 47565, Note_off_c, 3, 57, 64
5, 47635, Note_on_c, 3, 58, 82
5, 47683, Note_off_c, 3, 58, 64
5, 47756, Note_on_c, 3, 59, 89
5, 47807, Note_off_c, 3, 59, 64
5, 47877, Note_on_c, 3, 54, 78
5, 47926, Note_off_c, 3, 54, 64
5, 47992, Note_on_c, 3, 59, 100
5, 48044, Note_off_c, 3, 59, 64
5, 48113, Note_on_c, 3, 61, 98
5, 48160, Note_off_c, 3, 61, 64
5, 48237, Note_on_c, 3, 62, 100
5, 48286, Note_off_c, 3, 62, 64
5, 48354, Note_on_c, 3, 59, 68
5, 48402, Note_off_c, 3, 59, 64
5, 48477, Note_on_c, 3, 58, 87
5, 48516, Note_off_c, 3, 58, 64
5, 48591, Note_on_c, 3, 59, 82
5, 48636, Note_off_c, 3, 59, 64
5, 48708, Note_on_c, 3, 52, 82
5, 48754, Note_off_c, 3, 52, 64
5, 48828, Note_on_c, 3, 55, 87
5, 48875, Note_off_c, 3, 55, 64
5, 48955, Note_on_c, 3, 54, 91
5, 49277, Note_off_c, 3, 54, 64
5, 49312, Note_on_c, 3, 55, 85
5, 49364, Note_off_c, 3, 55, 64
5, 49435, Note_on_c, 3, 54, 68
5, 49484, Note_off_c, 3, 54, 64
5, 49553, Note_on_c, 3, 52, 76
5, 49599, Note_off_c, 3, 52, 64
5, 49677, Note_on_c, 3, 50, 85
5, 49728, Note_off_c, 3, 50, 64
5, 49792, Note_on_c, 3, 47, 78
5, 49850, Note_off_c, 3, 47, 64
5, 49914, Note_on_c, 3, 52, 82
5, 49960, Note_off_c, 3, 52, 64
5, 50034, Note_on_c, 3, 55, 82
5, 50087, Note_off_c, 3, 55, 64
5, 50153, Note_on_c, 3, 54, 64
5, 50207, Note_off_c, 3, 54, 64
5, 50274, Note_on_c, 3, 52, 82
5, 50320, Note_off_c, 3, 52, 64
5, 50392, Note_on_c, 3, 50, 80
5, 50438, Note_off_c, 3, 50, 64
5, 50508, Note_on_c, 3, 47, 59
5, 50563, Note_off_c, 3, 47, 64
5, 50634, Note_on_c, 3, 49, 52
5, 50679, Note_off_c, 3, 49, 64
5, 50754, Note_on_c, 3, 50, 63
5, 50807, Note_off_c, 3, 50, 64
5, 50876, Note_on_c, 3, 51, 60
5, 50928, Note_off_c, 3, 51, 64
5, 50999, Note_on_c, 3, 47, 66
5, 51041, Note_off_c, 3, 47, 64
5, 51116, Note_on_c, 3, 52, 95
5, 51167, Note_off_c, 3, 52, 64
5, 51235, Note_on_c, 3, 49, 85
5, 51285, Note_off_c, 3, 49, 64
5, 51358, Note_on_c, 3, 54, 102
5, 51405, Note_off_c, 3, 54, 64
5, 51444, Note_on_c, 3, 52, 85
5, 51477, Note_off_c, 3, 52, 64
5, 51478, Note_on_c, 3, 50, 107
5, 51533, Note_off_c, 3, 50, 64
5, 51565, Note_on_c, 3, 52, 89
5, 51587, Note_off_c, 3, 52, 64
5, 51599, Note_on_c, 3, 54, 105
5, 51642, Note_off_c, 3, 54, 64
5, 51722, Note_on_c, 3, 42, 85
5, 51771, Note_off_c, 3, 42, 64
5, 51841, Note_on_c, 3, 47, 89
5, 52167, Note_off_c, 3, 47, 64
5, 52187, Note_on_c, 3, 50, 82
5, 52224, Note_off_c, 3, 50, 64
5, 52249, Note_on_c, 3, 54, 82
5, 52283, Note_off_c, 3, 54, 64
5, 52320, Note_on_c, 3, 59, 87
5, 52462, Note_off_c, 3, 59, 64
5, 52462, End_track
6, 0, Start_track
6, 0, Title_t, "Flute"
6, 0, Program_c, 4, 73
6, 0, Control_c, 4, 7, 127
6, 720, Note_on_c, 4, 83, 110
6, 877, Note_off_c, 4, 83, 64
6, 913, Note_on_c, 4, 86, 102
6, 947, Note_off_c, 4, 86, 64
6, 954, Note_on_c, 4, 85, 100
6, 995, Note_off_c, 4, 85, 64
6, 1074, Note_on_c, 4, 83, 93
6, 1119, Note_off_c, 4, 83, 64
6, 1193, Note_on_c, 4, 83, 102
6, 1259, Note_on_c, 4, 82, 100
6, 1262, Note_off_c, 4, 83, 64
6, 1375, Note_off_c, 4, 82, 64
6, 1376, Note_on_c, 4, 83, 72
6, 1401, Note_on_c, 4, 85, 61
6, 1406, Note_off_c, 4, 83, 64
6, 1426, Note_off_c, 4, 85, 64
6, 1448, Note_on_c, 4, 83, 52
6, 1607, Note_off_c, 4, 83, 64
6, 1645, Note_on_c, 4, 86, 66
6, 1675, Note_off_c, 4, 86, 64
6, 1677, Note_on_c, 4, 85, 61
6, 1717, Note_off_c, 4, 85, 64
6, 1796, Note_on_c, 4, 83, 59
6, 1837, Note_off_c, 4, 83, 64
6, 1911, Note_on_c, 4, 85, 62
6, 1973, Note_on_c, 4, 83, 66
6, 1981, Note_off_c, 4, 85, 64
6, 2032, Note_off_c, 4, 83, 64
6, 2036, Note_on_c, 4, 82, 55
6, 2063, Note_off_c, 4, 82, 64
6, 2091, Note_on_c, 4, 85, 54
6, 2110, Note_off_c, 4, 85, 64
6, 2164, Note_on_c, 4, 83, 110
6, 2320, Note_off_c, 4, 83, 64
6, 2356, Note_on_c, 4, 86, 91
6, 2389, Note_off_c, 4, 86, 64
6, 2391, Note_on_c, 4, 85, 102
6, 2435, Note_off_c, 4, 85, 64
6, 2508, Note_on_c, 4, 83, 85
6, 2551, Note_off_c, 4, 83, 64
6, 2630, Note_on_c, 4, 81, 87
6, 2676, Note_off_c, 4, 81, 64
6, 2751, Note_on_c, 4, 79, 89
6, 2799, Note_off_c, 4, 79, 64
6, 2869, Note_on_c, 4, 79, 89
6, 2912, Note_on_c, 4, 78, 87
6, 2914, Note_off_c, 4, 79, 64
6, 2931, Note_off_c, 4, 78, 64
6, 2931, Note_on_c, 4, 79, 76
6, 2948, Note_on_c, 4, 78, 63
6, 2950, Note_off_c, 4, 79, 64
6, 2960, Note_on_c, 4, 79, 76
6, 2963, Note_off_c, 4, 78, 64
6, 2975, Note_on_c, 4, 78, 70
6, 2982, Note_off_c, 4, 79, 64
6, 2994, Note_on_c, 4, 76, 76
6, 3001, Note_off_c, 4, 78, 64
6, 3046, Note_on_c, 4, 78, 80
6, 3053, Note_off_c, 4, 76, 64
6, 3097, Note_off_c, 4, 78, 64
6, 3114, Note_on_c, 4, 74, 80
6, 3362, Note_off_c, 4, 74, 64
6, 3599, Note_on_c, 4, 83, 107
6, 3759, Note_off_c, 4, 83, 64
6, 3798, Note_on_c, 4, 86, 100
6, 3833, Note_off_c, 4, 86, 64
6, 3839, Note_on_c, 4, 85, 105
6, 3884, Note_off_c, 4, 85, 64
6, 3959, Note_on_c, 4, 83, 95
6, 4006, Note_off_c, 4, 83, 64
6, 4072, Note_on_c, 4, 83, 100
6, 4116, Note_on_c, 4, 82, 82
6, 4119, Note_off_c, 4, 83, 64
6, 4135, Note_off_c, 4, 82, 64
6, 4136, Note_on_c, 4, 83, 70
6, 4153, Note_on_c, 4, 82, 70
6, 4156, Note_off_c, 4, 83, 64
6, 4168, Note_on_c, 4, 83, 74
6, 4172, Note_off_c, 4, 82, 64
6, 4195, Note_on_c, 4, 82, 28
6, 4207, Note_off_c, 4, 83, 64
6, 4258, Note_on_c, 4, 83, 70
6, 4263, Note_off_c, 4, 82, 64
6, 4282, Note_on_c, 4, 85, 60
6, 4285, Note_off_c, 4, 83, 64
6, 4307, Note_off_c, 4, 85, 64
6, 4321, Note_on_c, 4, 83, 52
6, 4473, Note_off_c, 4, 83, 64
6, 4520, Note_on_c, 4, 86, 70
6, 4551, Note_off_c, 4, 86, 64
6, 4556, Note_on_c, 4, 85, 57
6, 4600, Note_off_c, 4, 85, 64
6, 4670, Note_on_c, 4, 83, 57
6, 4714, Note_off_c, 4, 83, 64
6, 4789, Note_on_c, 4, 85, 59
6, 4850, Note_on_c, 4, 83, 60
6, 4853, Note_off_c, 4, 85, 64
6, 4910, Note_off_c, 4, 83, 64
6, 4914, Note_on_c, 4, 82, 53
6, 4946, Note_off_c, 4, 82, 64
6, 4977, Note_on_c, 4, 85, 61
6, 4997, Note_off_c, 4, 85, 64
6, 5042, Note_on_c, 4, 83, 102
6, 5194, Note_off_c, 4, 83, 64
6, 5238, Note_on_c, 4, 86, 93
6, 5272, Note_off_c, 4, 86, 64
6, 5275, Note_on_c, 4, 85, 93
6, 5317, Note_off_c, 4, 85, 64
6, 5394, Note_on_c, 4, 83, 87
6, 5435, Note_off_c, 4, 83, 64
6, 5515, Note_on_c, 4, 81, 89
6, 5559, Note_off_c, 4, 81, 64
6, 5634, Note_on_c, 4, 79, 85
6, 5685, Note_off_c, 4, 79, 64
6, 5752, Note_on_c, 4, 79, 85
6, 5800, Note_on_c, 4, 78, 68
6, 5802, Note_off_c, 4, 79, 64
6, 5818, Note_on_c, 4, 79, 68
6, 5819, Note_off_c, 4, 78, 64
6, 5836, Note_on_c, 4, 78, 59
6, 5849, Note_off_c, 4, 78, 64
6, 5863, Note_on_c, 4, 78, 62
6, 5866, Note_off_c, 4, 79, 64
6, 5878, Note_on_c, 4, 76, 72
6, 5888, Note_off_c, 4, 78, 64
6, 5929, Note_on_c, 4, 78, 62
6, 5939, Note_off_c, 4, 76, 64
6, 5981, Note_off_c, 4, 78, 64
6, 5997, Note_on_c, 4, 74, 85
6, 6242, Note_off_c, 4, 74, 64
6, 17993, Note_on_c, 4, 71, 61
6, 18056, Note_on_c, 4, 74, 63
6, 18065, Note_off_c, 4, 71, 64
6, 18118, Note_on_c, 4, 78, 62
6, 18122, Note_off_c, 4, 74, 64
6, 18174, Note_off_c, 4, 78, 64
6, 18175, Note_on_c, 4, 83, 66
6, 18227, Note_off_c, 4, 83, 64
6, 18238, Note_on_c, 4, 82, 66
6, 18287, Note_off_c, 4, 82, 64
6, 18302, Note_on_c, 4, 78, 51
6, 18332, Note_off_c, 4, 78, 64
6, 18360, Note_on_c, 4, 83, 70
6, 18399, Note_off_c, 4, 83, 64
6, 18416, Note_on_c, 4, 78, 51
6, 18446, Note_off_c, 4, 78, 64
6, 18477, Note_on_c, 4, 85, 62
6, 18514, Note_off_c, 4, 85, 64
6, 18536, Note_on_c, 4, 78, 64
6, 18566, Note_off_c, 4, 78, 64
6, 18597, Note_on_c, 4, 85, 64
6, 18650, Note_on_c, 4, 86, 61
6, 18663, Note_off_c, 4, 85, 64
6, 18678, Note_on_c, 4, 88, 63
6, 18688, Note_off_c, 4, 86, 64
6, 18705, Note_off_c, 4, 88, 64
6, 18715, Note_on_c, 4, 86, 76
6, 18745, Note_on_c, 4, 85, 66
6, 18757, Note_off_c, 4, 86, 64
6, 18770, Note_on_c, 4, 83, 68
6, 18783, Note_off_c, 4, 85, 64
6, 18803, Note_on_c, 4, 82, 56
6, 18809, Note_off_c, 4, 83, 64
6, 18827, Note_off_c, 4, 82, 64
6, 18833, Note_on_c, 4, 83, 55
6, 18864, Note_off_c, 4, 83, 64
6, 18899, Note_on_c, 4, 78, 66
6, 18921, Note_off_c, 4, 78, 64
6, 18959, Note_on_c, 4, 76, 80
6, 18983, Note_on_c, 4, 78, 57
6, 18994, Note_off_c, 4, 76, 64
6, 19017, Note_on_c, 4, 79, 57
6, 19019, Note_off_c, 4, 78, 64
6, 19044, Note_on_c, 4, 78, 45
6, 19059, Note_off_c, 4, 79, 64
6, 19078, Note_on_c, 4, 76, 58
6, 19089, Note_off_c, 4, 78, 64
6, 19102, Note_on_c, 4, 74, 58
6, 19106, Note_off_c, 4, 76, 64
6, 19130, Note_on_c, 4, 73, 70
6, 19135, Note_off_c, 4, 74, 64
6, 19159, Note_on_c, 4, 71, 57
6, 19161, Note_off_c, 4, 73, 64
6, 19189, Note_off_c, 4, 71, 64
6, 19192, Note_on_c, 4, 70, 46
6, 19230, Note_off_c, 4, 70, 64
6, 19253, Note_on_c, 4, 79, 68
6, 19284, Note_off_c, 4, 79, 64
6, 19316, Note_on_c, 4, 78, 60
6, 19348, Note_off_c, 4, 78, 64
6, 19376, Note_on_c, 4, 76, 68
6, 19400, Note_off_c, 4, 76, 64
6, 19437, Note_on_c, 4, 74, 82
6, 19463, Note_on_c, 4, 73, 56
6, 19473, Note_off_c, 4, 74, 64
6, 19491, Note_on_c, 4, 71, 64
6, 19494, Note_off_c, 4, 73, 64
6, 19520, Note_on_c, 4, 73, 58
6, 19525, Note_off_c, 4, 71, 64
6, 19549, Note_off_c, 4, 73, 64
6, 19551, Note_on_c, 4, 74, 70
6, 19579, Note_on_c, 4, 76, 63
6, 19588, Note_off_c, 4, 74, 64
6, 19605, Note_on_c, 4, 78, 51
6, 19615, Note_off_c, 4, 76, 64
6, 19634, Note_on_c, 4, 79, 66
6, 19646, Note_off_c, 4, 78, 64
6, 19669, Note_off_c, 4, 79, 64
6, 19672, Note_on_c, 4, 81, 87
6, 19711, Note_off_c, 4, 81, 64
6, 19732, Note_on_c, 4, 79, 60
6, 19756, Note_on_c, 4, 78, 55
6, 19764, Note_off_c, 4, 79, 64
6, 19791, Note_off_c, 4, 78, 64
6, 19792, Note_on_c, 4, 79, 64
6, 19827, Note_off_c, 4, 79, 64
6, 19858, Note_on_c, 4, 86, 70
6, 19890, Note_off_c, 4, 86, 64
6, 19920, Note_on_c, 4, 78, 59
6, 19952, Note_off_c, 4, 78, 64
6, 19974, Note_on_c, 4, 86, 70
6, 20004, Note_off_c, 4, 86, 64
6, 20031, Note_on_c, 4, 76, 58
6, 20072, Note_off_c, 4, 76, 64
6, 20094, Note_on_c, 4, 85, 57
6, 20128, Note_off_c, 4, 85, 64
6, 20151, Note_on_c, 4, 86, 70
6, 20185, Note_off_c, 4, 86, 64
6, 20210, Note_on_c, 4, 69, 63
6, 20256, Note_off_c, 4, 69, 64
6, 20272, Note_on_c, 4, 67, 68
6, 20311, Note_off_c, 4, 67, 64
6, 20333, Note_on_c, 4, 69, 63
6, 20372, Note_off_c, 4, 69, 64
6, 20397, Note_on_c, 4, 66, 70
6, 20437, Note_off_c, 4, 66, 64
6, 20453, Note_on_c, 4, 81, 56
6, 20486, Note_off_c, 4, 81, 64
6, 20520, Note_on_c, 4, 64, 66
6, 20560, Note_off_c, 4, 64, 64
6, 20575, Note_on_c, 4, 79, 66
6, 20608, Note_off_c, 4, 79, 64
6, 20638, Note_on_c, 4, 62, 60
6, 20681, Note_off_c, 4, 62, 64
6, 20696, Note_on_c, 4, 78, 57
6, 20728, Note_off_c, 4, 78, 64
6, 20760, Note_on_c, 4, 70, 60
6, 20797, Note_off_c, 4, 70, 64
6, 20816, Note_on_c, 4, 76, 60
6, 20845, Note_off_c, 4, 76, 64
6, 20879, Note_on_c, 4, 71, 74
6, 20935, Note_on_c, 4, 74, 58
6, 20940, Note_off_c, 4, 71, 64
6, 20993, Note_on_c, 4, 78, 56
6, 20997, Note_off_c, 4, 74, 64
6, 21049, Note_off_c, 4, 78, 64
6, 21054, Note_on_c, 4, 83, 66
6, 21102, Note_off_c, 4, 83, 64
6, 21117, Note_on_c, 4, 82, 64
6, 21162, Note_off_c, 4, 82, 64
6, 21176, Note_on_c, 4, 78, 52
6, 21204, Note_off_c, 4, 78, 64
6, 21236, Note_on_c, 4, 83, 70
6, 21280, Note_off_c, 4, 83, 64
6, 21297, Note_on_c, 4, 78, 57
6, 21325, Note_off_c, 4, 78, 64
6, 21358, Note_on_c, 4, 85, 68
6, 21400, Note_off_c, 4, 85, 64
6, 21419, Note_on_c, 4, 78, 68
6, 21445, Note_off_c, 4, 78, 64
6, 21479, Note_on_c, 4, 85, 68
6, 21535, Note_on_c, 4, 86, 58
6, 21545, Note_off_c, 4, 85, 64
6, 21563, Note_on_c, 4, 88, 66
6, 21570, Note_off_c, 4, 86, 64
6, 21587, Note_off_c, 4, 88, 64
6, 21598, Note_on_c, 4, 86, 78
6, 21626, Note_on_c, 4, 85, 55
6, 21638, Note_off_c, 4, 86, 64
6, 21655, Note_on_c, 4, 83, 59
6, 21666, Note_off_c, 4, 85, 64
6, 21683, Note_on_c, 4, 82, 61
6, 21693, Note_off_c, 4, 83, 64
6, 21710, Note_off_c, 4, 82, 64
6, 21723, Note_on_c, 4, 83, 74
6, 21749, Note_off_c, 4, 83, 64
6, 21785, Note_on_c, 4, 78, 58
6, 21808, Note_off_c, 4, 78, 64
6, 21841, Note_on_c, 4, 76, 82
6, 21865, Note_on_c, 4, 78, 62
6, 21876, Note_off_c, 4, 76, 64
6, 21900, Note_on_c, 4, 79, 64
6, 21904, Note_off_c, 4, 78, 64
6, 21929, Note_on_c, 4, 78, 52
6, 21942, Note_off_c, 4, 79, 64
6, 21959, Note_on_c, 4, 76, 60
6, 21972, Note_off_c, 4, 78, 64
6, 21987, Note_on_c, 4, 74, 57
6, 21989, Note_off_c, 4, 76, 64
6, 22010, Note_on_c, 4, 73, 78
6, 22012, Note_off_c, 4, 74, 64
6, 22038, Note_on_c, 4, 71, 60
6, 22040, Note_off_c, 4, 73, 64
6, 22067, Note_on_c, 4, 70, 68
6, 22070, Note_off_c, 4, 71, 64
6, 22111, Note_off_c, 4, 70, 64
6, 22131, Note_on_c, 4, 79, 68
6, 22161, Note_off_c, 4, 79, 64
6, 22191, Note_on_c, 4, 78, 57
6, 22227, Note_off_c, 4, 78, 64
6, 22253, Note_on_c, 4, 76, 63
6, 22281, Note_off_c, 4, 76, 64
6, 22316, Note_on_c, 4, 74, 72
6, 22342, Note_on_c, 4, 73, 46
6, 22349, Note_off_c, 4, 74, 64
6, 22373, Note_on_c, 4, 71, 64
6, 22377, Note_off_c, 4, 73, 64
6, 22401, Note_on_c, 4, 73, 62
6, 22407, Note_off_c, 4, 71, 64
6, 22432, Note_off_c, 4, 73, 64
6, 22433, Note_on_c, 4, 74, 70
6, 22463, Note_on_c, 4, 76, 66
6, 22472, Note_off_c, 4, 74, 64
6, 22491, Note_on_c, 4, 78, 52
6, 22502, Note_off_c, 4, 76, 64
6, 22518, Note_on_c, 4, 79, 72
6, 22530, Note_off_c, 4, 78, 64
6, 22553, Note_on_c, 4, 81, 80
6, 22554, Note_off_c, 4, 79, 64
6, 22594, Note_off_c, 4, 81, 64
6, 22616, Note_on_c, 4, 79, 68
6, 22638, Note_on_c, 4, 78, 51
6, 22647, Note_off_c, 4, 79, 64
6, 22673, Note_off_c, 4, 78, 64
6, 22673, Note_on_c, 4, 79, 74
6, 22704, Note_off_c, 4, 79, 64
6, 22739, Note_on_c, 4, 86, 59
6, 22769, Note_off_c, 4, 86, 64
6, 22802, Note_on_c, 4, 78, 59
6, 22839, Note_off_c, 4, 78, 64
6, 22862, Note_on_c, 4, 86, 68
6, 22886, Note_off_c, 4, 86, 64
6, 22921, Note_on_c, 4, 76, 57
6, 22956, Note_off_c, 4, 76, 64
6, 22980, Note_on_c, 4, 85, 63
6, 23014, Note_off_c, 4, 85, 64
6, 23037, Note_on_c, 4, 86, 78
6, 23072, Note_off_c, 4, 86, 64
6, 23101, Note_on_c, 4, 69, 64
6, 23136, Note_off_c, 4, 69, 64
6, 23158, Note_on_c, 4, 67, 70
6, 23194, Note_off_c, 4, 67, 64
6, 23215, Note_on_c, 4, 69, 72
6, 23253, Note_off_c, 4, 69, 64
6, 23283, Note_on_c, 4, 66, 66
6, 23319, Note_off_c, 4, 66, 64
6, 23343, Note_on_c, 4, 81, 61
6, 23372, Note_off_c, 4, 81, 64
6, 23402, Note_on_c, 4, 64, 59
6, 23439, Note_off_c, 4, 64, 64
6, 23457, Note_on_c, 4, 79, 60
6, 23487, Note_off_c, 4, 79, 64
6, 23518, Note_on_c, 4, 62, 66
6, 23549, Note_off_c, 4, 62, 64
6, 23576, Note_on_c, 4, 78, 57
6, 23602, Note_on_c, 4, 79, 78
6, 23609, Note_off_c, 4, 78, 64
6, 23630, Note_on_c, 4, 81, 78
6, 23636, Note_off_c, 4, 79, 64
6, 23660, Note_off_c, 4, 81, 64
6, 23694, Note_on_c, 4, 78, 51
6, 23728, Note_off_c, 4, 78, 64
6, 29517, Note_on_c, 4, 74, 58
6, 29571, Note_off_c, 4, 74, 64
6, 29573, Note_on_c, 4, 78, 60
6, 29628, Note_off_c, 4, 78, 64
6, 29634, Note_on_c, 4, 81, 66
6, 29678, Note_off_c, 4, 81, 64
6, 29693, Note_on_c, 4, 86, 78
6, 29735, Note_off_c, 4, 86, 64
6, 29758, Note_on_c, 4, 80, 64
6, 29798, Note_off_c, 4, 80, 64
6, 29817, Note_on_c, 4, 76, 52
6, 29861, Note_off_c, 4, 76, 64
6, 29881, Note_on_c, 4, 83, 80
6, 29922, Note_off_c, 4, 83, 64
6, 29936, Note_on_c, 4, 76, 53
6, 29975, Note_off_c, 4, 76, 64
6, 29996, Note_on_c, 4, 81, 70
6, 30041, Note_off_c, 4, 81, 64
6, 30054, Note_on_c, 4, 76, 52
6, 30087, Note_off_c, 4, 76, 64
6, 30115, Note_on_c, 4, 80, 64
6, 30157, Note_off_c, 4, 80, 64
6, 30174, Note_on_c, 4, 76, 60
6, 30208, Note_off_c, 4, 76, 64
6, 30238, Note_on_c, 4, 81, 82
6, 30262, Note_on_c, 4, 80, 63
6, 30287, Note_off_c, 4, 81, 64
6, 30290, Note_on_c, 4, 78, 57
6, 30318, Note_off_c, 4, 80, 64
6, 30321, Note_on_c, 4, 76, 60
6, 30336, Note_off_c, 4, 78, 64
6, 30343, Note_on_c, 4, 74, 64
6, 30347, Note_off_c, 4, 76, 64
6, 30370, Note_off_c, 4, 74, 64
6, 30370, Note_on_c, 4, 73, 68
6, 30400, Note_on_c, 4, 71, 59
6, 30402, Note_off_c, 4, 73, 64
6, 30432, Note_on_c, 4, 69, 72
6, 30438, Note_off_c, 4, 71, 64
6, 30459, Note_off_c, 4, 69, 64
6, 30468, Note_on_c, 4, 71, 37
6, 30507, Note_off_c, 4, 71, 64
6, 30528, Note_on_c, 4, 74, 63
6, 30569, Note_off_c, 4, 74, 64
6, 30590, Note_on_c, 4, 76, 64
6, 30626, Note_off_c, 4, 76, 64
6, 30651, Note_on_c, 4, 79, 64
6, 30676, Note_off_c, 4, 79, 64
6, 30716, Note_on_c, 4, 85, 55
6, 30750, Note_off_c, 4, 85, 64
6, 30772, Note_on_c, 4, 79, 68
6, 30799, Note_off_c, 4, 79, 64
6, 30826, Note_on_c, 4, 79, 85
6, 30846, Note_on_c, 4, 78, 58
6, 30847, Note_off_c, 4, 79, 64
6, 30863, Note_off_c, 4, 78, 64
6, 30863, Note_on_c, 4, 79, 60
6, 30879, Note_on_c, 4, 78, 64
6, 30887, Note_off_c, 4, 79, 64
6, 30895, Note_on_c, 4, 76, 66
6, 30905, Note_off_c, 4, 78, 64
6, 30920, Note_off_c, 4, 76, 64
6, 30951, Note_on_c, 4, 74, 72
6, 30979, Note_on_c, 4, 71, 70
6, 30985, Note_off_c, 4, 74, 64
6, 31009, Note_on_c, 4, 70, 63
6, 31014, Note_off_c, 4, 71, 64
6, 31038, Note_on_c, 4, 71, 68
6, 31040, Note_off_c, 4, 70, 64
6, 31067, Note_off_c, 4, 71, 64
6, 31067, Note_on_c, 4, 73, 57
6, 31093, Note_off_c, 4, 73, 64
6, 31096, Note_on_c, 4, 74, 80
6, 31129, Note_on_c, 4, 76, 51
6, 31133, Note_off_c, 4, 74, 64
6, 31152, Note_on_c, 4, 78, 66
6, 31157, Note_off_c, 4, 76, 64
6, 31173, Note_off_c, 4, 78, 64
6, 31188, Note_on_c, 4, 76, 76
6, 31216, Note_off_c, 4, 76, 64
6, 31217, Note_on_c, 4, 73, 56
6, 31245, Note_on_c, 4, 71, 55
6, 31246, Note_off_c, 4, 73, 64
6, 31277, Note_on_c, 4, 73, 52
6, 31280, Note_off_c, 4, 71, 64
6, 31306, Note_off_c, 4, 73, 64
6, 31309, Note_on_c, 4, 74, 66
6, 31338, Note_on_c, 4, 76, 63
6, 31342, Note_off_c, 4, 74, 64
6, 31364, Note_on_c, 4, 78, 51
6, 31368, Note_off_c, 4, 76, 64
6, 31392, Note_on_c, 4, 79, 66
6, 31398, Note_off_c, 4, 78, 64
6, 31418, Note_off_c, 4, 79, 64
6, 31428, Note_on_c, 4, 78, 85
6, 31466, Note_off_c, 4, 78, 64
6, 31495, Note_on_c, 4, 83, 60
6, 31526, Note_off_c, 4, 83, 64
6, 31554, Note_on_c, 4, 85, 59
6, 31595, Note_off_c, 4, 85, 64
6, 31619, Note_on_c, 4, 86, 68
6, 31651, Note_off_c, 4, 86, 64
6, 31685, Note_on_c, 4, 88, 82
6, 31718, Note_off_c, 4, 88, 64
6, 31738, Note_on_c, 4, 79, 48
6, 31773, Note_off_c, 4, 79, 64
6, 31795, Note_on_c, 4, 78, 53
6, 31828, Note_off_c, 4, 78, 64
6, 31850, Note_on_c, 4, 76, 56
6, 31886, Note_off_c, 4, 76, 64
6, 31914, Note_on_c, 4, 78, 60
6, 31952, Note_off_c, 4, 78, 64
6, 31973, Note_on_c, 4, 86, 66
6, 32006, Note_off_c, 4, 86, 64
6, 32033, Note_on_c, 4, 76, 60
6, 32074, Note_off_c, 4, 76, 64
6, 32096, Note_on_c, 4, 85, 64
6, 32126, Note_off_c, 4, 85, 64
6, 32151, Note_on_c, 4, 74, 59
6, 32196, Note_off_c, 4, 74, 64
6, 32212, Note_on_c, 4, 83, 60
6, 32240, Note_off_c, 4, 83, 64
6, 32272, Note_on_c, 4, 73, 52
6, 32321, Note_off_c, 4, 73, 64
6, 32327, Note_on_c, 4, 82, 58
6, 32355, Note_off_c, 4, 82, 64
6, 32401, Note_on_c, 4, 71, 66
6, 32465, Note_on_c, 4, 74, 68
6, 32466, Note_off_c, 4, 71, 64
6, 32514, Note_off_c, 4, 74, 64
6, 32522, Note_on_c, 4, 78, 57
6, 32561, Note_off_c, 4, 78, 64
6, 32575, Note_on_c, 4, 83, 70
6, 32617, Note_off_c, 4, 83, 64
6, 32635, Note_on_c, 4, 82, 70
6, 32685, Note_off_c, 4, 82, 64
6, 32698, Note_on_c, 4, 78, 55
6, 32733, Note_off_c, 4, 78, 64
6, 32758, Note_on_c, 4, 83, 70
6, 32801, Note_off_c, 4, 83, 64
6, 32815, Note_on_c, 4, 78, 52
6, 32847, Note_off_c, 4, 78, 64
6, 32880, Note_on_c, 4, 85, 63
6, 32922, Note_off_c, 4, 85, 64
6, 32934, Note_on_c, 4, 78, 60
6, 32959, Note_off_c, 4, 78, 64
6, 32996, Note_on_c, 4, 85, 66
6, 33035, Note_off_c, 4, 85, 64
6, 33052, Note_on_c, 4, 86, 76
6, 33083, Note_off_c, 4, 86, 64
6, 33116, Note_on_c, 4, 88, 78
6, 33139, Note_on_c, 4, 86, 68
6, 33158, Note_off_c, 4, 88, 64
6, 33172, Note_on_c, 4, 85, 64
6, 33183, Note_off_c, 4, 86, 64
6, 33197, Note_on_c, 4, 83, 60
6, 33206, Note_off_c, 4, 85, 64
6, 33235, Note_off_c, 4, 83, 64
6, 33235, Note_on_c, 4, 82, 57
6, 33263, Note_off_c, 4, 82, 64
6, 33293, Note_on_c, 4, 79, 68
6, 33329, Note_off_c, 4, 79, 64
6, 33357, Note_on_c, 4, 78, 58
6, 33390, Note_off_c, 4, 78, 64
6, 33419, Note_on_c, 4, 88, 70
6, 33452, Note_off_c, 4, 88, 64
6, 33480, Note_on_c, 4, 86, 66
6, 33518, Note_off_c, 4, 86, 64
6, 33541, Note_on_c, 4, 83, 70
6, 33572, Note_off_c, 4, 83, 64
6, 33600, Note_on_c, 4, 84, 64
6, 33647, Note_off_c, 4, 84, 64
6, 33657, Note_on_c, 4, 81, 53
6, 33689, Note_off_c, 4, 81, 64
6, 33716, Note_on_c, 4, 75, 55
6, 33754, Note_off_c, 4, 75, 64
6, 33777, Note_on_c, 4, 84, 68
6, 33798, Note_off_c, 4, 84, 64
6, 33840, Note_on_c, 4, 83, 74
6, 33863, Note_on_c, 4, 81, 68
6, 33884, Note_off_c, 4, 83, 64
6, 33896, Note_on_c, 4, 79, 53
6, 33918, Note_off_c, 4, 81, 64
6, 33926, Note_on_c, 4, 78, 52
6, 33935, Note_off_c, 4, 79, 64
6, 33958, Note_off_c, 4, 78, 64
6, 33959, Note_on_c, 4, 76, 66
6, 33995, Note_off_c, 4, 76, 64
6, 34016, Note_on_c, 4, 79, 85
6, 34051, Note_off_c, 4, 79, 64
6, 34078, Note_on_c, 4, 78, 57
6, 34111, Note_off_c, 4, 78, 64
6, 34142, Note_on_c, 4, 73, 52
6, 34172, Note_off_c, 4, 73, 64
6, 34200, Note_on_c, 4, 74, 61
6, 34240, Note_off_c, 4, 74, 64
6, 34259, Note_on_c, 4, 71, 57
6, 34294, Note_off_c, 4, 71, 64
6, 34321, Note_on_c, 4, 73, 60
6, 34357, Note_off_c, 4, 73, 64
6, 34374, Note_on_c, 4, 76, 60
6, 34413, Note_off_c, 4, 76, 64
6, 34444, Note_on_c, 4, 78, 57
6, 34479, Note_off_c, 4, 78, 64
6, 34500, Note_on_c, 4, 82, 61
6, 34535, Note_off_c, 4, 82, 64
6, 34560, Note_on_c, 4, 83, 66
6, 34592, Note_off_c, 4, 83, 64
6, 34617, Note_on_c, 4, 78, 52
6, 34658, Note_off_c, 4, 78, 64
6, 34676, Note_on_c, 4, 76, 64
6, 34708, Note_off_c, 4, 76, 64
6, 34734, Note_on_c, 4, 78, 57
6, 34763, Note_off_c, 4, 78, 64
6, 34798, Note_on_c, 4, 74, 64
6, 34833, Note_off_c, 4, 74, 64
6, 34857, Note_on_c, 4, 71, 60
6, 34892, Note_off_c, 4, 71, 64
6, 34925, Note_on_c, 4, 74, 59
6, 34960, Note_off_c, 4, 74, 64
6, 34985, Note_on_c, 4, 78, 52
6, 35021, Note_off_c, 4, 78, 64
6, 35046, Note_on_c, 4, 83, 56
6, 35179, Note_off_c, 4, 83, 64
6, 41038, Note_on_c, 4, 86, 87
6, 41193, Note_off_c, 4, 86, 64
6, 41232, Note_on_c, 4, 90, 95
6, 41260, Note_off_c, 4, 90, 64
6, 41271, Note_on_c, 4, 88, 82
6, 41316, Note_off_c, 4, 88, 64
6, 41389, Note_on_c, 4, 86, 89
6, 41429, Note_off_c, 4, 86, 64
6, 41510, Note_on_c, 4, 86, 98
6, 41576, Note_on_c, 4, 85, 66
6, 41582, Note_off_c, 4, 86, 64
6, 41675, Note_off_c, 4, 85, 64
6, 41689, Note_on_c, 4, 86, 78
6, 41713, Note_on_c, 4, 88, 68
6, 41720, Note_off_c, 4, 86, 64
6, 41732, Note_off_c, 4, 88, 64
6, 41756, Note_on_c, 4, 86, 98
6, 41820, Note_on_c, 4, 85, 63
6, 41827, Note_off_c, 4, 86, 64
6, 41936, Note_off_c, 4, 85, 64
6, 41965, Note_on_c, 4, 88, 87
6, 41989, Note_off_c, 4, 88, 64
6, 41996, Note_on_c, 4, 86, 98
6, 42040, Note_off_c, 4, 86, 64
6, 42111, Note_on_c, 4, 85, 98
6, 42166, Note_off_c, 4, 85, 64
6, 42229, Note_on_c, 4, 85, 102
6, 42245, Note_on_c, 4, 83, 76
6, 42248, Note_off_c, 4, 85, 64
6, 42265, Note_on_c, 4, 85, 87
6, 42269, Note_off_c, 4, 83, 64
6, 42283, Note_on_c, 4, 83, 82
6, 42290, Note_off_c, 4, 85, 64
6, 42316, Note_off_c, 4, 83, 64
6, 42354, Note_on_c, 4, 82, 85
6, 42407, Note_off_c, 4, 82, 64
6, 42475, Note_on_c, 4, 83, 87
6, 42627, Note_off_c, 4, 83, 64
6, 42646, Note_on_c, 4, 85, 85
6, 42668, Note_on_c, 4, 86, 82
6, 42670, Note_off_c, 4, 85, 64
6, 42688, Note_off_c, 4, 86, 64
6, 42709, Note_on_c, 4, 85, 98
6, 42824, Note_off_c, 4, 85, 64
6, 42828, Note_on_c, 4, 86, 85
6, 42858, Note_off_c, 4, 86, 64
6, 42889, Note_on_c, 4, 90, 89
6, 42914, Note_off_c, 4, 90, 64
6, 42950, Note_on_c, 4, 88, 87
6, 43009, Note_on_c, 4, 86, 66
6, 43016, Note_off_c, 4, 88, 64
6, 43034, Note_off_c, 4, 86, 64
6, 43073, Note_on_c, 4, 85, 85
6, 43128, Note_on_c, 4, 83, 70
6, 43134, Note_off_c, 4, 85, 64
6, 43157, Note_off_c, 4, 83, 64
6, 43192, Note_on_c, 4, 85, 95
6, 43247, Note_on_c, 4, 83, 66
6, 43250, Note_off_c, 4, 85, 64
6, 43279, Note_off_c, 4, 83, 64
6, 43309, Note_on_c, 4, 82, 63
6, 43364, Note_on_c, 4, 80, 57
6, 43374, Note_off_c, 4, 82, 64
6, 43404, Note_off_c, 4, 80, 64
6, 43436, Note_on_c, 4, 78, 57
6, 43697, Note_off_c, 4, 78, 64
6, 43918, Note_on_c, 4, 83, 98
6, 44067, Note_off_c, 4, 83, 64
6, 44120, Note_on_c, 4, 86, 98
6, 44152, Note_off_c, 4, 86, 64
6, 44157, Note_on_c, 4, 85, 100
6, 44192, Note_off_c, 4, 85, 64
6, 44275, Note_on_c, 4, 83, 93
6, 44315, Note_off_c, 4, 83, 64
6, 44395, Note_on_c, 4, 83, 100
6, 44450, Note_on_c, 4, 82, 78
6, 44460, Note_off_c, 4, 83, 64
6, 44547, Note_off_c, 4, 82, 64
6, 44574, Note_on_c, 4, 83, 85
6, 44599, Note_on_c, 4, 85, 56
6, 44603, Note_off_c, 4, 83, 64
6, 44620, Note_off_c, 4, 85, 64
6, 44640, Note_on_c, 4, 78, 44
6, 44798, Note_off_c, 4, 78, 64
6, 44844, Note_on_c, 4, 83, 61
6, 44880, Note_on_c, 4, 82, 55
6, 44882, Note_off_c, 4, 83, 64
6, 44918, Note_off_c, 4, 82, 64
6, 44995, Note_on_c, 4, 83, 66
6, 45039, Note_off_c, 4, 83, 64
6, 45122, Note_on_c, 4, 78, 57
6, 45257, Note_off_c, 4, 78, 64
6, 45293, Note_on_c, 4, 79, 76
6, 45316, Note_on_c, 4, 81, 85
6, 45323, Note_off_c, 4, 79, 64
6, 45336, Note_off_c, 4, 81, 64
6, 45363, Note_on_c, 4, 81, 110
6, 45425, Note_on_c, 4, 79, 66
6, 45427, Note_off_c, 4, 81, 64
6, 45532, Note_off_c, 4, 79, 64
6, 45569, Note_on_c, 4, 88, 95
6, 45597, Note_off_c, 4, 88, 64
6, 45599, Note_on_c, 4, 82, 72
6, 45649, Note_off_c, 4, 82, 64
6, 45718, Note_on_c, 4, 83, 87
6, 45761, Note_off_c, 4, 83, 64
6, 45836, Note_on_c, 4, 78, 85
6, 45881, Note_off_c, 4, 78, 64
6, 45952, Note_on_c, 4, 76, 82
6, 46002, Note_off_c, 4, 76, 64
6, 46076, Note_on_c, 4, 76, 82
6, 46114, Note_on_c, 4, 74, 80
6, 46120, Note_off_c, 4, 76, 64
6, 46135, Note_on_c, 4, 76, 76
6, 46138, Note_off_c, 4, 74, 64
6, 46153, Note_on_c, 4, 74, 70
6, 46159, Note_off_c, 4, 76, 64
6, 46186, Note_on_c, 4, 73, 61
6, 46187, Note_off_c, 4, 74, 64
6, 46248, Note_on_c, 4, 74, 82
6, 46250, Note_off_c, 4, 73, 64
6, 46298, Note_off_c, 4, 74, 64
6, 46315, Note_on_c, 4, 71, 74
6, 46564, Note_off_c, 4, 71, 64
6, 46800, Note_on_c, 4, 86, 107
6, 46953, Note_off_c, 4, 86, 64
6, 47002, Note_on_c, 4, 90, 102
6, 47029, Note_off_c, 4, 90, 64
6, 47037, Note_on_c, 4, 88, 91
6, 47090, Note_off_c, 4, 88, 64
6, 47160, Note_on_c, 4, 86, 87
6, 47204, Note_off_c, 4, 86, 64
6, 47273, Note_on_c, 4, 86, 87
6, 47324, Note_on_c, 4, 85, 76
6, 47327, Note_off_c, 4, 86, 64
6, 47341, Note_off_c, 4, 85, 64
6, 47344, Note_on_c, 4, 86, 68
6, 47359, Note_on_c, 4, 85, 68
6, 47363, Note_off_c, 4, 86, 64
6, 47377, Note_off_c, 4, 85, 64
6, 47377, Note_on_c, 4, 86, 74
6, 47390, Note_on_c, 4, 85, 82
6, 47395, Note_off_c, 4, 86, 64
6, 47451, Note_off_c, 4, 85, 64
6, 47456, Note_on_c, 4, 86, 80
6, 47475, Note_on_c, 4, 88, 78
6, 47480, Note_off_c, 4, 86, 64
6, 47497, Note_off_c, 4, 88, 64
6, 47511, Note_on_c, 4, 86, 89
6, 47581, Note_on_c, 4, 85, 60
6, 47582, Note_off_c, 4, 86, 64
6, 47688, Note_off_c, 4, 85, 64
6, 47725, Note_on_c, 4, 88, 85
6, 47747, Note_off_c, 4, 88, 64
6, 47751, Note_on_c, 4, 86, 89
6, 47797, Note_off_c, 4, 86, 64
6, 47872, Note_on_c, 4, 85, 91
6, 47929, Note_off_c, 4, 85, 64
6, 47986, Note_on_c, 4, 85, 89
6, 48003, Note_off_c, 4, 85, 64
6, 48003, Note_on_c, 4, 83, 82
6, 48021, Note_on_c, 4, 85, 82
6, 48023, Note_off_c, 4, 83, 64
6, 48036, Note_on_c, 4, 83, 76
6, 48046, Note_off_c, 4, 85, 64
6, 48071, Note_off_c, 4, 83, 64
6, 48123, Note_on_c, 4, 82, 89
6, 48171, Note_off_c, 4, 82, 64
6, 48237, Note_on_c, 4, 83, 87
6, 48396, Note_off_c, 4, 83, 64
6, 48408, Note_on_c, 4, 85, 63
6, 48432, Note_on_c, 4, 86, 72
6, 48436, Note_off_c, 4, 85, 64
6, 48452, Note_off_c, 4, 86, 64
6, 48472, Note_on_c, 4, 85, 98
6, 48585, Note_off_c, 4, 85, 64
6, 48588, Note_on_c, 4, 86, 82
6, 48614, Note_off_c, 4, 86, 64
6, 48651, Note_on_c, 4, 90, 87
6, 48677, Note_off_c, 4, 90, 64
6, 48716, Note_on_c, 4, 88, 87
6, 48774, Note_on_c, 4, 86, 64
6, 48783, Note_off_c, 4, 88, 64
6, 48799, Note_off_c, 4, 86, 64
6, 48837, Note_on_c, 4, 85, 80
6, 48892, Note_on_c, 4, 83, 72
6, 48900, Note_off_c, 4, 85, 64
6, 48920, Note_off_c, 4, 83, 64
6, 48955, Note_on_c, 4, 85, 93
6, 49008, Note_on_c, 4, 83, 70
6, 49017, Note_off_c, 4, 85, 64
6, 49037, Note_off_c, 4, 83, 64
6, 49074, Note_on_c, 4, 82, 102
6, 49102, Note_on_c, 4, 83, 74
6, 49109, Note_off_c, 4, 82, 64
6, 49130, Note_on_c, 4, 82, 58
6, 49141, Note_off_c, 4, 83, 64
6, 49152, Note_on_c, 4, 80, 58
6, 49160, Note_off_c, 4, 82, 64
6, 49181, Note_off_c, 4, 80, 64
6, 49200, Note_on_c, 4, 78, 60
6, 49455, Note_off_c, 4, 78, 64
6, 49678, Note_on_c, 4, 83, 107
6, 49832, Note_off_c, 4, 83, 64
6, 49880, Note_on_c, 4, 86, 89
6, 49908, Note_off_c, 4, 86, 64
6, 49912, Note_on_c, 4, 85, 100
6, 49948, Note_off_c, 4, 85, 64
6, 50032, Note_on_c, 4, 83, 82
6, 50074, Note_off_c, 4, 83, 64
6, 50151, Note_on_c, 4, 83, 89
6, 50198, Note_on_c, 4, 82, 76
6, 50200, Note_off_c, 4, 83, 64
6, 50216, Note_off_c, 4, 82, 64
6, 50216, Note_on_c, 4, 83, 68
6, 50234, Note_on_c, 4, 82, 74
6, 50237, Note_off_c, 4, 83, 64
6, 50249, Note_on_c, 4, 83, 72
6, 50251, Note_off_c, 4, 82, 64
6, 50267, Note_on_c, 4, 82, 85
6, 50274, Note_off_c, 4, 83, 64
6, 50330, Note_off_c, 4, 82, 64
6, 50332, Note_on_c, 4, 83, 66
6, 50354, Note_on_c, 4, 85, 64
6, 50359, Note_off_c, 4, 83, 64
6, 50376, Note_off_c, 4, 85, 64
6, 50396, Note_on_c, 4, 78, 82
6, 50542, Note_off_c, 4, 78, 64
6, 50599, Note_on_c, 4, 83, 63
6, 50628, Note_on_c, 4, 82, 45
6, 50632, Note_off_c, 4, 83, 64
6, 50663, Note_off_c, 4, 82, 64
6, 50752, Note_on_c, 4, 83, 60
6, 50789, Note_off_c, 4, 83, 64
6, 50877, Note_on_c, 4, 78, 60
6, 51017, Note_off_c, 4, 78, 64
6, 51052, Note_on_c, 4, 79, 85
6, 51071, Note_on_c, 4, 81, 82
6, 51077, Note_off_c, 4, 79, 64
6, 51090, Note_off_c, 4, 81, 64
6, 51117, Note_on_c, 4, 81, 107
6, 51182, Note_on_c, 4, 79, 68
6, 51187, Note_off_c, 4, 81, 64
6, 51284, Note_off_c, 4, 79, 64
6, 51327, Note_on_c, 4, 88, 89
6, 51352, Note_off_c, 4, 88, 64
6, 51358, Note_on_c, 4, 82, 80
6, 51410, Note_off_c, 4, 82, 64
6, 51479, Note_on_c, 4, 83, 82
6, 51523, Note_off_c, 4, 83, 64
6, 51595, Note_on_c, 4, 78, 87
6, 51639, Note_off_c, 4, 78, 64
6, 51714, Note_on_c, 4, 76, 82
6, 51762, Note_off_c, 4, 76, 64
6, 51832, Note_on_c, 4, 76, 82
6, 51865, Note_on_c, 4, 74, 63
6, 51869, Note_off_c, 4, 76, 64
6, 51882, Note_off_c, 4, 74, 64
6, 51883, Note_on_c, 4, 76, 62
6, 51900, Note_on_c, 4, 74, 76
6, 51904, Note_off_c, 4, 76, 64
6, 51911, Note_on_c, 4, 76, 63
6, 51914, Note_off_c, 4, 74, 64
6, 51926, Note_on_c, 4, 74, 70
6, 51930, Note_off_c, 4, 76, 64
6, 51950, Note_on_c, 4, 73, 66
6, 51955, Note_off_c, 4, 74, 64
6, 52008, Note_off_c, 4, 73, 64
6, 52009, Note_on_c, 4, 74, 87
6, 52065, Note_off_c, 4, 74, 64
6, 52082, Note_on_c, 4, 71, 80
6, 52331, Note_off_c, 4, 71, 64
6, 52331, End_track
7, 0, Start_track
7, 0, Title_t, "Violin1"
7, 0, Program_c, 0, 40
7, 0, Control_c, 0, 7, 100
7, 6475, Note_on_c, 0, 74, 105
7, 6612, Note_off_c, 0, 74, 64
7, 6670, Note_on_c, 0, 78, 105
7, 6701, Note_off_c, 0, 78, 64
7, 6707, Note_on_c, 0, 76, 89
7, 6752, Note_off_c, 0, 76, 64
7, 6829, Note_on_c, 0, 74, 85
7, 6875, Note_off_c, 0, 74, 64
7, 6952, Note_on_c, 0, 74, 85
7, 7018, Note_on_c, 0, 73, 57
7, 7025, Note_off_c, 0, 74, 64
7, 7119, Note_off_c, 0, 73, 64
7, 7138, Note_on_c, 0, 74, 80
7, 7158, Note_on_c, 0, 76, 78
7, 7169, Note_off_c, 0, 74, 64
7, 7182, Note_off_c, 0, 76, 64
7, 7194, Note_on_c, 0, 74, 87
7, 7263, Note_on_c, 0, 73, 70
7, 7269, Note_off_c, 0, 74, 64
7, 7377, Note_off_c, 0, 73, 64
7, 7402, Note_on_c, 0, 76, 91
7, 7429, Note_off_c, 0, 76, 64
7, 7434, Note_on_c, 0, 74, 87
7, 7479, Note_off_c, 0, 74, 64
7, 7549, Note_on_c, 0, 73, 85
7, 7604, Note_off_c, 0, 73, 64
7, 7664, Note_on_c, 0, 73, 91
7, 7682, Note_on_c, 0, 71, 89
7, 7684, Note_off_c, 0, 73, 64
7, 7699, Note_on_c, 0, 73, 78
7, 7702, Note_off_c, 0, 71, 64
7, 7717, Note_on_c, 0, 71, 85
7, 7723, Note_off_c, 0, 73, 64
7, 7747, Note_off_c, 0, 71, 64
7, 7793, Note_on_c, 0, 70, 87
7, 7849, Note_off_c, 0, 70, 64
7, 7910, Note_on_c, 0, 71, 87
7, 8070, Note_off_c, 0, 71, 64
7, 8091, Note_on_c, 0, 73, 58
7, 8109, Note_on_c, 0, 74, 85
7, 8118, Note_off_c, 0, 73, 64
7, 8134, Note_off_c, 0, 74, 64
7, 8149, Note_on_c, 0, 73, 93
7, 8265, Note_on_c, 0, 74, 82
7, 8266, Note_off_c, 0, 73, 64
7, 8296, Note_off_c, 0, 74, 64
7, 8331, Note_on_c, 0, 78, 85
7, 8360, Note_off_c, 0, 78, 64
7, 8392, Note_on_c, 0, 76, 89
7, 8449, Note_on_c, 0, 74, 68
7, 8456, Note_off_c, 0, 76, 64
7, 8485, Note_off_c, 0, 74, 64
7, 8513, Note_on_c, 0, 73, 78
7, 8571, Note_on_c, 0, 71, 80
7, 8582, Note_off_c, 0, 73, 64
7, 8605, Note_off_c, 0, 71, 64
7, 8631, Note_on_c, 0, 73, 82
7, 8690, Note_on_c, 0, 71, 70
7, 8699, Note_off_c, 0, 73, 64
7, 8729, Note_off_c, 0, 71, 64
7, 8749, Note_on_c, 0, 70, 58
7, 8808, Note_on_c, 0, 68, 59
7, 8818, Note_off_c, 0, 70, 64
7, 8848, Note_off_c, 0, 68, 64
7, 8878, Note_on_c, 0, 66, 57
7, 9137, Note_off_c, 0, 66, 64
7, 9355, Note_on_c, 0, 71, 110
7, 9507, Note_off_c, 0, 71, 64
7, 9557, Note_on_c, 0, 74, 102
7, 9588, Note_off_c, 0, 74, 64
7, 9593, Note_on_c, 0, 73, 102
7, 9639, Note_off_c, 0, 73, 64
7, 9715, Note_on_c, 0, 71, 89
7, 9762, Note_off_c, 0, 71, 64
7, 9836, Note_on_c, 0, 71, 98
7, 9897, Note_on_c, 0, 70, 64
7, 9906, Note_off_c, 0, 71, 64
7, 9996, Note_off_c, 0, 70, 64
7, 10019, Note_on_c, 0, 71, 70
7, 10045, Note_on_c, 0, 73, 60
7, 10050, Note_off_c, 0, 71, 64
7, 10072, Note_off_c, 0, 73, 64
7, 10084, Note_on_c, 0, 66, 68
7, 10224, Note_off_c, 0, 66, 64
7, 10273, Note_on_c, 0, 71, 57
7, 10306, Note_on_c, 0, 70, 57
7, 10308, Note_off_c, 0, 71, 64
7, 10352, Note_off_c, 0, 70, 64
7, 10432, Note_on_c, 0, 71, 70
7, 10474, Note_off_c, 0, 71, 64
7, 10555, Note_on_c, 0, 66, 70
7, 10696, Note_off_c, 0, 66, 64
7, 10726, Note_on_c, 0, 67, 70
7, 10750, Note_on_c, 0, 69, 76
7, 10759, Note_off_c, 0, 67, 64
7, 10773, Note_off_c, 0, 69, 64
7, 10797, Note_on_c, 0, 69, 105
7, 10862, Note_on_c, 0, 67, 68
7, 10866, Note_off_c, 0, 69, 64
7, 10958, Note_off_c, 0, 67, 64
7, 11002, Note_on_c, 0, 76, 91
7, 11026, Note_off_c, 0, 76, 64
7, 11035, Note_on_c, 0, 70, 91
7, 11089, Note_off_c, 0, 70, 64
7, 11158, Note_on_c, 0, 71, 87
7, 11203, Note_off_c, 0, 71, 64
7, 11275, Note_on_c, 0, 66, 100
7, 11324, Note_off_c, 0, 66, 64
7, 11389, Note_on_c, 0, 64, 87
7, 11440, Note_off_c, 0, 64, 64
7, 11509, Note_on_c, 0, 64, 91
7, 11554, Note_on_c, 0, 62, 76
7, 11559, Note_off_c, 0, 64, 64
7, 11574, Note_on_c, 0, 64, 72
7, 11578, Note_off_c, 0, 62, 64
7, 11594, Note_on_c, 0, 62, 85
7, 11599, Note_off_c, 0, 64, 64
7, 11619, Note_on_c, 0, 61, 80
7, 11626, Note_off_c, 0, 62, 64
7, 11678, Note_off_c, 0, 61, 64
7, 11683, Note_on_c, 0, 62, 98
7, 11732, Note_off_c, 0, 62, 64
7, 11749, Note_on_c, 0, 59, 93
7, 12006, Note_off_c, 0, 59, 64
7, 12238, Note_on_c, 0, 74, 110
7, 12385, Note_off_c, 0, 74, 64
7, 12434, Note_on_c, 0, 78, 107
7, 12462, Note_off_c, 0, 78, 64
7, 12471, Note_on_c, 0, 76, 95
7, 12515, Note_off_c, 0, 76, 64
7, 12593, Note_on_c, 0, 74, 89
7, 12634, Note_off_c, 0, 74, 64
7, 12708, Note_on_c, 0, 74, 91
7, 12747, Note_on_c, 0, 73, 58
7, 12751, Note_off_c, 0, 74, 64
7, 12765, Note_on_c, 0, 74, 82
7, 12766, Note_off_c, 0, 73, 64
7, 12782, Note_on_c, 0, 73, 78
7, 12789, Note_off_c, 0, 74, 64
7, 12801, Note_on_c, 0, 74, 82
7, 12802, Note_off_c, 0, 73, 64
7, 12814, Note_on_c, 0, 73, 76
7, 12821, Note_off_c, 0, 74, 64
7, 12883, Note_off_c, 0, 73, 64
7, 12890, Note_on_c, 0, 74, 82
7, 12909, Note_on_c, 0, 76, 82
7, 12918, Note_off_c, 0, 74, 64
7, 12931, Note_off_c, 0, 76, 64
7, 12946, Note_on_c, 0, 74, 100
7, 13013, Note_on_c, 0, 73, 59
7, 13019, Note_off_c, 0, 74, 64
7, 13136, Note_off_c, 0, 73, 64
7, 13163, Note_on_c, 0, 76, 87
7, 13184, Note_off_c, 0, 76, 64
7, 13192, Note_on_c, 0, 74, 91
7, 13240, Note_off_c, 0, 74, 64
7, 13307, Note_on_c, 0, 73, 85
7, 13365, Note_off_c, 0, 73, 64
7, 13428, Note_on_c, 0, 73, 91
7, 13445, Note_on_c, 0, 71, 87
7, 13447, Note_off_c, 0, 73, 64
7, 13462, Note_on_c, 0, 73, 76
7, 13464, Note_off_c, 0, 71, 64
7, 13478, Note_on_c, 0, 71, 89
7, 13487, Note_off_c, 0, 73, 64
7, 13517, Note_off_c, 0, 71, 64
7, 13557, Note_on_c, 0, 70, 93
7, 13607, Note_off_c, 0, 70, 64
7, 13676, Note_on_c, 0, 71, 100
7, 13841, Note_off_c, 0, 71, 64
7, 13848, Note_on_c, 0, 73, 66
7, 13868, Note_on_c, 0, 74, 85
7, 13875, Note_off_c, 0, 73, 64
7, 13891, Note_off_c, 0, 74, 64
7, 13914, Note_on_c, 0, 73, 95
7, 14030, Note_on_c, 0, 74, 80
7, 14040, Note_off_c, 0, 73, 64
7, 14060, Note_off_c, 0, 74, 64
7, 14094, Note_on_c, 0, 78, 91
7, 14120, Note_off_c, 0, 78, 64
7, 14156, Note_on_c, 0, 76, 87
7, 14214, Note_on_c, 0, 74, 64
7, 14222, Note_off_c, 0, 76, 64
7, 14253, Note_off_c, 0, 74, 64
7, 14280, Note_on_c, 0, 73, 70
7, 14336, Note_on_c, 0, 71, 82
7, 14343, Note_off_c, 0, 73, 64
7, 14369, Note_off_c, 0, 71, 64
7, 14400, Note_on_c, 0, 73, 82
7, 14453, Note_on_c, 0, 71, 74
7, 14460, Note_off_c, 0, 73, 64
7, 14487, Note_off_c, 0, 71, 64
7, 14519, Note_on_c, 0, 70, 100
7, 14548, Note_on_c, 0, 71, 68
7, 14552, Note_off_c, 0, 70, 64
7, 14572, Note_on_c, 0, 70, 66
7, 14584, Note_off_c, 0, 71, 64
7, 14596, Note_on_c, 0, 68, 82
7, 14603, Note_off_c, 0, 70, 64
7, 14625, Note_off_c, 0, 68, 64
7, 14640, Note_on_c, 0, 66, 57
7, 14884, Note_off_c, 0, 66, 64
7, 15117, Note_on_c, 0, 71, 110
7, 15258, Note_off_c, 0, 71, 64
7, 15312, Note_on_c, 0, 74, 98
7, 15344, Note_off_c, 0, 74, 64
7, 15348, Note_on_c, 0, 73, 98
7, 15390, Note_off_c, 0, 73, 64
7, 15473, Note_on_c, 0, 71, 91
7, 15513, Note_off_c, 0, 71, 64
7, 15588, Note_on_c, 0, 71, 100
7, 15634, Note_on_c, 0, 70, 85
7, 15637, Note_off_c, 0, 71, 64
7, 15652, Note_off_c, 0, 70, 64
7, 15652, Note_on_c, 0, 71, 85
7, 15671, Note_on_c, 0, 70, 85
7, 15677, Note_off_c, 0, 71, 64
7, 15689, Note_on_c, 0, 71, 85
7, 15692, Note_off_c, 0, 70, 64
7, 15708, Note_on_c, 0, 70, 70
7, 15713, Note_off_c, 0, 71, 64
7, 15772, Note_off_c, 0, 70, 64
7, 15775, Note_on_c, 0, 71, 66
7, 15802, Note_on_c, 0, 73, 57
7, 15805, Note_off_c, 0, 71, 64
7, 15824, Note_off_c, 0, 73, 64
7, 15844, Note_on_c, 0, 66, 53
7, 15986, Note_off_c, 0, 66, 64
7, 16032, Note_on_c, 0, 71, 68
7, 16070, Note_off_c, 0, 71, 64
7, 16071, Note_on_c, 0, 70, 58
7, 16119, Note_off_c, 0, 70, 64
7, 16191, Note_on_c, 0, 71, 68
7, 16236, Note_off_c, 0, 71, 64
7, 16312, Note_on_c, 0, 66, 60
7, 16458, Note_off_c, 0, 66, 64
7, 16485, Note_on_c, 0, 67, 66
7, 16507, Note_on_c, 0, 69, 78
7, 16516, Note_off_c, 0, 67, 64
7, 16528, Note_off_c, 0, 69, 64
7, 16555, Note_on_c, 0, 69, 107
7, 16619, Note_on_c, 0, 67, 74
7, 16626, Note_off_c, 0, 69, 64
7, 16725, Note_off_c, 0, 67, 64
7, 16760, Note_on_c, 0, 76, 93
7, 16783, Note_off_c, 0, 76, 64
7, 16791, Note_on_c, 0, 70, 98
7, 16843, Note_off_c, 0, 70, 64
7, 16913, Note_on_c, 0, 71, 87
7, 16965, Note_off_c, 0, 71, 64
7, 17033, Note_on_c, 0, 66, 82
7, 17086, Note_off_c, 0, 66, 64
7, 17149, Note_on_c, 0, 64, 87
7, 17205, Note_off_c, 0, 64, 64
7, 17270, Note_on_c, 0, 64, 87
7, 17313, Note_on_c, 0, 62, 70
7, 17316, Note_off_c, 0, 64, 64
7, 17331, Note_on_c, 0, 64, 78
7, 17334, Note_off_c, 0, 62, 64
7, 17349, Note_on_c, 0, 62, 76
7, 17352, Note_off_c, 0, 64, 64
7, 17361, Note_on_c, 0, 64, 68
7, 17364, Note_off_c, 0, 62, 64
7, 17372, Note_on_c, 0, 62, 61
7, 17378, Note_off_c, 0, 64, 64
7, 17392, Note_on_c, 0, 61, 76
7, 17401, Note_off_c, 0, 62, 64
7, 17446, Note_on_c, 0, 62, 91
7, 17451, Note_off_c, 0, 61, 64
7, 17506, Note_off_c, 0, 62, 64
7, 17513, Note_on_c, 0, 59, 80
7, 17770, Note_off_c, 0, 59, 64
7, 35276, Note_on_c, 0, 71, 102
7, 35422, Note_off_c, 0, 71, 64
7, 35467, Note_on_c, 0, 74, 98
7, 35503, Note_off_c, 0, 74, 64
7, 35512, Note_on_c, 0, 73, 100
7, 35555, Note_off_c, 0, 73, 64
7, 35631, Note_on_c, 0, 71, 85
7, 35682, Note_off_c, 0, 71, 64
7, 35756, Note_on_c, 0, 71, 102
7, 35814, Note_on_c, 0, 70, 62
7, 35821, Note_off_c, 0, 71, 64
7, 35921, Note_off_c, 0, 70, 64
7, 35939, Note_on_c, 0, 71, 68
7, 35964, Note_on_c, 0, 73, 64
7, 35971, Note_off_c, 0, 71, 64
7, 35988, Note_off_c, 0, 73, 64
7, 36004, Note_on_c, 0, 71, 59
7, 36146, Note_off_c, 0, 71, 64
7, 36196, Note_on_c, 0, 74, 80
7, 36231, Note_off_c, 0, 74, 64
7, 36240, Note_on_c, 0, 73, 51
7, 36286, Note_off_c, 0, 73, 64
7, 36356, Note_on_c, 0, 71, 68
7, 36399, Note_off_c, 0, 71, 64
7, 36470, Note_on_c, 0, 73, 61
7, 36533, Note_on_c, 0, 71, 60
7, 36549, Note_off_c, 0, 73, 64
7, 36593, Note_off_c, 0, 71, 64
7, 36594, Note_on_c, 0, 70, 55
7, 36621, Note_off_c, 0, 70, 64
7, 36654, Note_on_c, 0, 73, 61
7, 36676, Note_off_c, 0, 73, 64
7, 36724, Note_on_c, 0, 71, 98
7, 36866, Note_off_c, 0, 71, 64
7, 36914, Note_on_c, 0, 74, 89
7, 36949, Note_off_c, 0, 74, 64
7, 36952, Note_on_c, 0, 73, 78
7, 36998, Note_off_c, 0, 73, 64
7, 37072, Note_on_c, 0, 71, 85
7, 37115, Note_off_c, 0, 71, 64
7, 37192, Note_on_c, 0, 69, 85
7, 37237, Note_off_c, 0, 69, 64
7, 37312, Note_on_c, 0, 67, 82
7, 37363, Note_off_c, 0, 67, 64
7, 37437, Note_on_c, 0, 67, 89
7, 37482, Note_on_c, 0, 66, 93
7, 37484, Note_off_c, 0, 67, 64
7, 37499, Note_on_c, 0, 67, 80
7, 37500, Note_off_c, 0, 66, 64
7, 37519, Note_on_c, 0, 66, 66
7, 37530, Note_off_c, 0, 67, 64
7, 37546, Note_on_c, 0, 64, 57
7, 37556, Note_off_c, 0, 66, 64
7, 37602, Note_on_c, 0, 66, 64
7, 37610, Note_off_c, 0, 64, 64
7, 37663, Note_off_c, 0, 66, 64
7, 37676, Note_on_c, 0, 62, 78
7, 37928, Note_off_c, 0, 62, 64
7, 38161, Note_on_c, 0, 71, 100
7, 38309, Note_off_c, 0, 71, 64
7, 38357, Note_on_c, 0, 74, 87
7, 38390, Note_off_c, 0, 74, 64
7, 38394, Note_on_c, 0, 73, 87
7, 38440, Note_off_c, 0, 73, 64
7, 38517, Note_on_c, 0, 71, 87
7, 38569, Note_off_c, 0, 71, 64
7, 38635, Note_on_c, 0, 71, 87
7, 38665, Note_on_c, 0, 70, 66
7, 38671, Note_off_c, 0, 71, 64
7, 38687, Note_on_c, 0, 71, 80
7, 38688, Note_off_c, 0, 70, 64
7, 38702, Note_on_c, 0, 70, 76
7, 38710, Note_off_c, 0, 71, 64
7, 38721, Note_on_c, 0, 71, 74
7, 38723, Note_off_c, 0, 70, 64
7, 38737, Note_on_c, 0, 70, 80
7, 38746, Note_off_c, 0, 71, 64
7, 38817, Note_off_c, 0, 70, 64
7, 38819, Note_on_c, 0, 71, 76
7, 38844, Note_on_c, 0, 73, 63
7, 38849, Note_off_c, 0, 71, 64
7, 38865, Note_off_c, 0, 73, 64
7, 38880, Note_on_c, 0, 71, 63
7, 39027, Note_off_c, 0, 71, 64
7, 39077, Note_on_c, 0, 74, 80
7, 39113, Note_off_c, 0, 74, 64
7, 39116, Note_on_c, 0, 73, 52
7, 39162, Note_off_c, 0, 73, 64
7, 39233, Note_on_c, 0, 71, 66
7, 39279, Note_off_c, 0, 71, 64
7, 39351, Note_on_c, 0, 73, 60
7, 39410, Note_on_c, 0, 71, 70
7, 39422, Note_off_c, 0, 73, 64
7, 39467, Note_on_c, 0, 70, 57
7, 39470, Note_off_c, 0, 71, 64
7, 39500, Note_off_c, 0, 70, 64
7, 39535, Note_on_c, 0, 73, 60
7, 39558, Note_off_c, 0, 73, 64
7, 39603, Note_on_c, 0, 71, 93
7, 39750, Note_off_c, 0, 71, 64
7, 39795, Note_on_c, 0, 74, 98
7, 39833, Note_off_c, 0, 74, 64
7, 39834, Note_on_c, 0, 73, 64
7, 39881, Note_off_c, 0, 73, 64
7, 39949, Note_on_c, 0, 71, 82
7, 39999, Note_off_c, 0, 71, 64
7, 40069, Note_on_c, 0, 69, 85
7, 40118, Note_off_c, 0, 69, 64
7, 40191, Note_on_c, 0, 67, 85
7, 40242, Note_off_c, 0, 67, 64
7, 40311, Note_on_c, 0, 67, 89
7, 40360, Note_on_c, 0, 66, 87
7, 40364, Note_off_c, 0, 67, 64
7, 40380, Note_off_c, 0, 66, 64
7, 40380, Note_on_c, 0, 67, 80
7, 40399, Note_on_c, 0, 66, 64
7, 40408, Note_off_c, 0, 67, 64
7, 40413, Note_off_c, 0, 66, 64
7, 40413, Note_on_c, 0, 67, 57
7, 40425, Note_on_c, 0, 66, 76
7, 40433, Note_off_c, 0, 67, 64
7, 40439, Note_on_c, 0, 64, 68
7, 40448, Note_off_c, 0, 66, 64
7, 40489, Note_on_c, 0, 66, 80
7, 40500, Note_off_c, 0, 64, 64
7, 40541, Note_off_c, 0, 66, 64
7, 40555, Note_on_c, 0, 62, 85
7, 40798, Note_off_c, 0, 62, 64
7, 40798, End_track
8, 0, Start_track
8, 0, Title_t, "Violin2"
8, 0, Program_c, 1, 40
8, 0, Control_c, 1, 7, 100
8, 6475, Note_on_c, 1, 69, 85
8, 6521, Note_off_c, 1, 69, 64
8, 6589, Note_on_c, 1, 74, 85
8, 6639, Note_off_c, 1, 74, 64
8, 6710, Note_on_c, 1, 71, 85
8, 6751, Note_off_c, 1, 71, 64
8, 6827, Note_on_c, 1, 64, 82
8, 6873, Note_off_c, 1, 64, 64
8, 6946, Note_on_c, 1, 69, 89
8, 6992, Note_off_c, 1, 69, 64
8, 7072, Note_on_c, 1, 68, 76
8, 7114, Note_off_c, 1, 68, 64
8, 7191, Note_on_c, 1, 69, 89
8, 7237, Note_off_c, 1, 69, 64
8, 7315, Note_on_c, 1, 73, 78
8, 7355, Note_off_c, 1, 73, 64
8, 7437, Note_on_c, 1, 71, 85
8, 7479, Note_off_c, 1, 71, 64
8, 7558, Note_on_c, 1, 70, 82
8, 7602, Note_off_c, 1, 70, 64
8, 7677, Note_on_c, 1, 66, 78
8, 7720, Note_off_c, 1, 66, 64
8, 7796, Note_on_c, 1, 64, 82
8, 7839, Note_off_c, 1, 64, 64
8, 7919, Note_on_c, 1, 66, 78
8, 7968, Note_off_c, 1, 66, 64
8, 8036, Note_on_c, 1, 71, 82
8, 8081, Note_off_c, 1, 71, 64
8, 8154, Note_on_c, 1, 73, 80
8, 8205, Note_off_c, 1, 73, 64
8, 8269, Note_on_c, 1, 71, 70
8, 8312, Note_off_c, 1, 71, 64
8, 8389, Note_on_c, 1, 71, 82
8, 8430, Note_off_c, 1, 71, 64
8, 8506, Note_on_c, 1, 76, 89
8, 8548, Note_off_c, 1, 76, 64
8, 8631, Note_on_c, 1, 70, 80
8, 8677, Note_off_c, 1, 70, 64
8, 8752, Note_on_c, 1, 66, 78
8, 8795, Note_off_c, 1, 66, 64
8, 8880, Note_on_c, 1, 61, 60
8, 9145, Note_off_c, 1, 61, 64
8, 9360, Note_on_c, 1, 66, 100
8, 9404, Note_off_c, 1, 66, 64
8, 9476, Note_on_c, 1, 62, 82
8, 9519, Note_off_c, 1, 62, 64
8, 9597, Note_on_c, 1, 67, 100
8, 9640, Note_off_c, 1, 67, 64
8, 9720, Note_on_c, 1, 59, 87
8, 9768, Note_off_c, 1, 59, 64
8, 9835, Note_on_c, 1, 61, 82
8, 9886, Note_off_c, 1, 61, 64
8, 9953, Note_on_c, 1, 66, 87
8, 9999, Note_off_c, 1, 66, 64
8, 10070, Note_on_c, 1, 66, 57
8, 10124, Note_off_c, 1, 66, 64
8, 10196, Note_on_c, 1, 62, 53
8, 10234, Note_off_c, 1, 62, 64
8, 10315, Note_on_c, 1, 64, 60
8, 10367, Note_off_c, 1, 64, 64
8, 10434, Note_on_c, 1, 66, 59
8, 10505, Note_off_c, 1, 66, 64
8, 10518, Note_on_c, 1, 64, 61
8, 10542, Note_off_c, 1, 64, 64
8, 10550, Note_on_c, 1, 66, 66
8, 10597, Note_off_c, 1, 66, 64
8, 10678, Note_on_c, 1, 63, 63
8, 10721, Note_off_c, 1, 63, 64
8, 10796, Note_on_c, 1, 64, 93
8, 10848, Note_off_c, 1, 64, 64
8, 10916, Note_on_c, 1, 67, 85
8, 10961, Note_off_c, 1, 67, 64
8, 11036, Note_on_c, 1, 66, 91
8, 11105, Note_off_c, 1, 66, 64
8, 11120, Note_on_c, 1, 67, 82
8, 11145, Note_off_c, 1, 67, 64
8, 11153, Note_on_c, 1, 66, 98
8, 11219, Note_off_c, 1, 66, 64
8, 11239, Note_on_c, 1, 64, 72
8, 11266, Note_off_c, 1, 64, 64
8, 11274, Note_on_c, 1, 62, 85
8, 11327, Note_off_c, 1, 62, 64
8, 11398, Note_on_c, 1, 61, 93
8, 11451, Note_off_c, 1, 61, 64
8, 11512, Note_on_c, 1, 61, 100
8, 11556, Note_on_c, 1, 59, 61
8, 11560, Note_off_c, 1, 61, 64
8, 11580, Note_on_c, 1, 61, 76
8, 11584, Note_off_c, 1, 59, 64
8, 11602, Note_on_c, 1, 59, 68
8, 11606, Note_off_c, 1, 61, 64
8, 11629, Note_on_c, 1, 58, 89
8, 11639, Note_off_c, 1, 59, 64
8, 11683, Note_off_c, 1, 58, 64
8, 11688, Note_on_c, 1, 59, 87
8, 11731, Note_off_c, 1, 59, 64
8, 11758, Note_on_c, 1, 59, 66
8, 12013, Note_off_c, 1, 59, 64
8, 12236, Note_on_c, 1, 69, 102
8, 12284, Note_off_c, 1, 69, 64
8, 12355, Note_on_c, 1, 74, 102
8, 12403, Note_off_c, 1, 74, 64
8, 12477, Note_on_c, 1, 71, 87
8, 12523, Note_off_c, 1, 71, 64
8, 12598, Note_on_c, 1, 64, 85
8, 12646, Note_off_c, 1, 64, 64
8, 12718, Note_on_c, 1, 69, 89
8, 12762, Note_off_c, 1, 69, 64
8, 12835, Note_on_c, 1, 68, 76
8, 12879, Note_off_c, 1, 68, 64
8, 12954, Note_on_c, 1, 69, 91
8, 13003, Note_off_c, 1, 69, 64
8, 13077, Note_on_c, 1, 73, 85
8, 13117, Note_off_c, 1, 73, 64
8, 13200, Note_on_c, 1, 71, 89
8, 13244, Note_off_c, 1, 71, 64
8, 13320, Note_on_c, 1, 70, 70
8, 13362, Note_off_c, 1, 70, 64
8, 13433, Note_on_c, 1, 66, 78
8, 13479, Note_off_c, 1, 66, 64
8, 13551, Note_on_c, 1, 64, 82
8, 13599, Note_off_c, 1, 64, 64
8, 13676, Note_on_c, 1, 66, 80
8, 13736, Note_off_c, 1, 66, 64
8, 13795, Note_on_c, 1, 71, 82
8, 13841, Note_off_c, 1, 71, 64
8, 13914, Note_on_c, 1, 73, 82
8, 13962, Note_off_c, 1, 73, 64
8, 14032, Note_on_c, 1, 71, 70
8, 14079, Note_off_c, 1, 71, 64
8, 14148, Note_on_c, 1, 71, 82
8, 14199, Note_off_c, 1, 71, 64
8, 14272, Note_on_c, 1, 76, 87
8, 14316, Note_off_c, 1, 76, 64
8, 14397, Note_on_c, 1, 70, 82
8, 14440, Note_off_c, 1, 70, 64
8, 14516, Note_on_c, 1, 66, 76
8, 14566, Note_off_c, 1, 66, 64
8, 14640, Note_on_c, 1, 61, 63
8, 14891, Note_off_c, 1, 61, 64
8, 15119, Note_on_c, 1, 66, 93
8, 15159, Note_off_c, 1, 66, 64
8, 15235, Note_on_c, 1, 62, 87
8, 15278, Note_off_c, 1, 62, 64
8, 15360, Note_on_c, 1, 67, 98
8, 15397, Note_off_c, 1, 67, 64
8, 15480, Note_on_c, 1, 59, 98
8, 15520, Note_off_c, 1, 59, 64
8, 15596, Note_on_c, 1, 61, 85
8, 15638, Note_off_c, 1, 61, 64
8, 15710, Note_on_c, 1, 66, 89
8, 15753, Note_off_c, 1, 66, 64
8, 15829, Note_on_c, 1, 66, 60
8, 15882, Note_off_c, 1, 66, 64
8, 15955, Note_on_c, 1, 62, 72
8, 16000, Note_off_c, 1, 62, 64
8, 16077, Note_on_c, 1, 64, 70
8, 16127, Note_off_c, 1, 64, 64
8, 16194, Note_on_c, 1, 66, 64
8, 16251, Note_off_c, 1, 66, 64
8, 16283, Note_on_c, 1, 64, 60
8, 16311, Note_on_c, 1, 66, 64
8, 16317, Note_off_c, 1, 64, 64
8, 16356, Note_off_c, 1, 66, 64
8, 16433, Note_on_c, 1, 63, 64
8, 16475, Note_off_c, 1, 63, 64
8, 16549, Note_on_c, 1, 64, 87
8, 16600, Note_off_c, 1, 64, 64
8, 16673, Note_on_c, 1, 67, 87
8, 16720, Note_off_c, 1, 67, 64
8, 16792, Note_on_c, 1, 66, 93
8, 16842, Note_off_c, 1, 66, 64
8, 16879, Note_on_c, 1, 67, 89
8, 16906, Note_off_c, 1, 67, 64
8, 16912, Note_on_c, 1, 66, 105
8, 16955, Note_off_c, 1, 66, 64
8, 17002, Note_on_c, 1, 64, 82
8, 17031, Note_off_c, 1, 64, 64
8, 17036, Note_on_c, 1, 62, 102
8, 17090, Note_off_c, 1, 62, 64
8, 17152, Note_on_c, 1, 61, 105
8, 17207, Note_off_c, 1, 61, 64
8, 17270, Note_on_c, 1, 61, 107
8, 17305, Note_off_c, 1, 61, 64
8, 17305, Note_on_c, 1, 59, 82
8, 17325, Note_off_c, 1, 59, 64
8, 17325, Note_on_c, 1, 61, 89
8, 17343, Note_on_c, 1, 59, 80
8, 17345, Note_off_c, 1, 61, 64
8, 17357, Note_on_c, 1, 61, 78
8, 17364, Note_off_c, 1, 59, 64
8, 17372, Note_on_c, 1, 59, 62
8, 17379, Note_off_c, 1, 61, 64
8, 17385, Note_on_c, 1, 58, 82
8, 17392, Note_off_c, 1, 59, 64
8, 17446, Note_off_c, 1, 58, 64
8, 17447, Note_on_c, 1, 59, 89
8, 17487, Note_off_c, 1, 59, 64
8, 17519, Note_on_c, 1, 59, 98
8, 17783, Note_off_c, 1, 59, 64
8, 35278, Note_on_c, 1, 66, 105
8, 35310, Note_off_c, 1, 66, 64
8, 35399, Note_on_c, 1, 62, 95
8, 35437, Note_off_c, 1, 62, 64
8, 35517, Note_on_c, 1, 67, 98
8, 35557, Note_off_c, 1, 67, 64
8, 35645, Note_on_c, 1, 59, 102
8, 35679, Note_off_c, 1, 59, 64
8, 35760, Note_on_c, 1, 61, 87
8, 35799, Note_off_c, 1, 61, 64
8, 35877, Note_on_c, 1, 66, 82
8, 35915, Note_off_c, 1, 66, 64
8, 35996, Note_on_c, 1, 66, 51
8, 36033, Note_off_c, 1, 66, 64
8, 36115, Note_on_c, 1, 71, 64
8, 36150, Note_off_c, 1, 71, 64
8, 36236, Note_on_c, 1, 70, 57
8, 36271, Note_off_c, 1, 70, 64
8, 36354, Note_on_c, 1, 71, 64
8, 36387, Note_off_c, 1, 71, 64
8, 36476, Note_on_c, 1, 67, 55
8, 36517, Note_off_c, 1, 67, 64
8, 36593, Note_on_c, 1, 66, 64
8, 36630, Note_off_c, 1, 66, 64
8, 36718, Note_on_c, 1, 66, 113
8, 36761, Note_off_c, 1, 66, 64
8, 36841, Note_on_c, 1, 71, 100
8, 36881, Note_off_c, 1, 71, 64
8, 36960, Note_on_c, 1, 67, 89
8, 36999, Note_off_c, 1, 67, 64
8, 37076, Note_on_c, 1, 66, 89
8, 37118, Note_off_c, 1, 66, 64
8, 37194, Note_on_c, 1, 64, 89
8, 37240, Note_off_c, 1, 64, 64
8, 37315, Note_on_c, 1, 64, 87
8, 37359, Note_off_c, 1, 64, 64
8, 37429, Note_on_c, 1, 64, 95
8, 37481, Note_on_c, 1, 62, 76
8, 37484, Note_off_c, 1, 64, 64
8, 37502, Note_on_c, 1, 64, 78
8, 37504, Note_off_c, 1, 62, 64
8, 37520, Note_on_c, 1, 62, 80
8, 37525, Note_off_c, 1, 64, 64
8, 37552, Note_on_c, 1, 61, 78
8, 37563, Note_off_c, 1, 62, 64
8, 37614, Note_on_c, 1, 62, 91
8, 37615, Note_off_c, 1, 61, 64
8, 37672, Note_off_c, 1, 62, 64
8, 37681, Note_on_c, 1, 57, 98
8, 37939, Note_off_c, 1, 57, 64
8, 38161, Note_on_c, 1, 66, 116
8, 38192, Note_off_c, 1, 66, 64
8, 38280, Note_on_c, 1, 62, 100
8, 38314, Note_off_c, 1, 62, 64
8, 38402, Note_on_c, 1, 67, 100
8, 38435, Note_off_c, 1, 67, 64
8, 38523, Note_on_c, 1, 59, 102
8, 38562, Note_off_c, 1, 59, 64
8, 38639, Note_on_c, 1, 61, 98
8, 38676, Note_off_c, 1, 61, 64
8, 38755, Note_on_c, 1, 66, 102
8, 38790, Note_off_c, 1, 66, 64
8, 38874, Note_on_c, 1, 66, 57
8, 38915, Note_off_c, 1, 66, 64
8, 38992, Note_on_c, 1, 71, 66
8, 39029, Note_off_c, 1, 71, 64
8, 39113, Note_on_c, 1, 70, 60
8, 39156, Note_off_c, 1, 70, 64
8, 39229, Note_on_c, 1, 71, 68
8, 39270, Note_off_c, 1, 71, 64
8, 39347, Note_on_c, 1, 67, 60
8, 39390, Note_off_c, 1, 67, 64
8, 39470, Note_on_c, 1, 66, 64
8, 39509, Note_off_c, 1, 66, 64
8, 39596, Note_on_c, 1, 66, 116
8, 39646, Note_off_c, 1, 66, 64
8, 39717, Note_on_c, 1, 71, 98
8, 39758, Note_off_c, 1, 71, 64
8, 39839, Note_on_c, 1, 67, 91
8, 39882, Note_off_c, 1, 67, 64
8, 39959, Note_on_c, 1, 66, 95
8, 40001, Note_off_c, 1, 66, 64
8, 40076, Note_on_c, 1, 64, 89
8, 40120, Note_off_c, 1, 64, 64
8, 40192, Note_on_c, 1, 64, 89
8, 40232, Note_off_c, 1, 64, 64
8, 40308, Note_on_c, 1, 64, 100
8, 40349, Note_on_c, 1, 62, 82
8, 40352, Note_off_c, 1, 64, 64
8, 40367, Note_on_c, 1, 64, 64
8, 40369, Note_off_c, 1, 62, 64
8, 40386, Note_off_c, 1, 64, 64
8, 40386, Note_on_c, 1, 62, 64
8, 40399, Note_on_c, 1, 64, 80
8, 40404, Note_off_c, 1, 62, 64
8, 40415, Note_on_c, 1, 62, 85
8, 40419, Note_off_c, 1, 64, 64
8, 40435, Note_on_c, 1, 61, 80
8, 40441, Note_off_c, 1, 62, 64
8, 40491, Note_off_c, 1, 61, 64
8, 40492, Note_on_c, 1, 62, 89
8, 40552, Note_off_c, 1, 62, 64
8, 40566, Note_on_c, 1, 57, 82
8, 40811, Note_off_c, 1, 57, 64
8, 40811, End_track
9, 0, Start_track
9, 0, Title_t, "Viola"
9, 0, Program_c, 2, 41
9, 0, Control_c, 2, 7, 100
9, 6475, Note_on_c, 2, 57, 78
9, 6519, Note_off_c, 2, 57, 64
9, 6595, Note_on_c, 2, 69, 85
9, 6635, Note_off_c, 2, 69, 64
9, 6716, Note_on_c, 2, 67, 82
9, 6761, Note_off_c, 2, 67, 64
9, 6837, Note_on_c, 2, 71, 89
9, 6879, Note_off_c, 2, 71, 64
9, 6956, Note_on_c, 2, 64, 85
9, 6998, Note_off_c, 2, 64, 64
9, 7072, Note_on_c, 2, 64, 78
9, 7116, Note_off_c, 2, 64, 64
9, 7193, Note_on_c, 2, 64, 89
9, 7242, Note_off_c, 2, 64, 64
9, 7316, Note_on_c, 2, 66, 87
9, 7357, Note_off_c, 2, 66, 64
9, 7442, Note_on_c, 2, 66, 89
9, 7482, Note_off_c, 2, 66, 64
9, 7564, Note_on_c, 2, 64, 85
9, 7608, Note_off_c, 2, 64, 64
9, 7675, Note_on_c, 2, 62, 87
9, 7723, Note_off_c, 2, 62, 64
9, 7795, Note_on_c, 2, 61, 78
9, 7839, Note_off_c, 2, 61, 64
9, 7916, Note_on_c, 2, 59, 85
9, 7964, Note_off_c, 2, 59, 64
9, 8034, Note_on_c, 2, 66, 82
9, 8079, Note_off_c, 2, 66, 64
9, 8156, Note_on_c, 2, 66, 78
9, 8204, Note_off_c, 2, 66, 64
9, 8272, Note_on_c, 2, 66, 85
9, 8315, Note_off_c, 2, 66, 64
9, 8390, Note_on_c, 2, 67, 95
9, 8430, Note_off_c, 2, 67, 64
9, 8511, Note_on_c, 2, 59, 82
9, 8551, Note_off_c, 2, 59, 64
9, 8631, Note_on_c, 2, 66, 89
9, 8673, Note_off_c, 2, 66, 64
9, 8752, Note_on_c, 2, 61, 82
9, 8793, Note_off_c, 2, 61, 64
9, 8873, Note_on_c, 2, 58, 66
9, 9136, Note_off_c, 2, 58, 64
9, 9358, Note_on_c, 2, 59, 82
9, 9407, Note_off_c, 2, 59, 64
9, 9469, Note_on_c, 2, 66, 85
9, 9516, Note_off_c, 2, 66, 64
9, 9595, Note_on_c, 2, 64, 82
9, 9643, Note_off_c, 2, 64, 64
9, 9721, Note_on_c, 2, 64, 78
9, 9773, Note_off_c, 2, 64, 64
9, 9839, Note_on_c, 2, 66, 91
9, 9879, Note_off_c, 2, 66, 64
9, 9954, Note_on_c, 2, 61, 89
9, 10001, Note_off_c, 2, 61, 64
9, 10083, Note_on_c, 2, 59, 64
9, 10128, Note_off_c, 2, 59, 64
9, 10193, Note_on_c, 2, 54, 54
9, 10241, Note_off_c, 2, 54, 64
9, 10312, Note_on_c, 2, 61, 60
9, 10358, Note_off_c, 2, 61, 64
9, 10432, Note_on_c, 2, 59, 46
9, 10483, Note_off_c, 2, 59, 64
9, 10555, Note_on_c, 2, 59, 57
9, 10601, Note_off_c, 2, 59, 64
9, 10680, Note_on_c, 2, 59, 66
9, 10721, Note_off_c, 2, 59, 64
9, 10798, Note_on_c, 2, 59, 105
9, 10850, Note_off_c, 2, 59, 64
9, 10918, Note_on_c, 2, 64, 100
9, 10967, Note_off_c, 2, 64, 64
9, 11040, Note_on_c, 2, 61, 87
9, 11087, Note_off_c, 2, 61, 64
9, 11161, Note_on_c, 2, 59, 87
9, 11201, Note_off_c, 2, 59, 64
9, 11281, Note_on_c, 2, 59, 85
9, 11326, Note_off_c, 2, 59, 64
9, 11395, Note_on_c, 2, 58, 78
9, 11433, Note_off_c, 2, 58, 64
9, 11512, Note_on_c, 2, 54, 80
9, 11624, Note_off_c, 2, 54, 64
9, 11632, Note_on_c, 2, 52, 78
9, 11678, Note_off_c, 2, 52, 64
9, 11688, Note_on_c, 2, 54, 80
9, 11727, Note_off_c, 2, 54, 64
9, 11756, Note_on_c, 2, 50, 70
9, 12013, Note_off_c, 2, 50, 64
9, 12236, Note_on_c, 2, 57, 80
9, 12287, Note_off_c, 2, 57, 64
9, 12360, Note_on_c, 2, 69, 87
9, 12403, Note_off_c, 2, 69, 64
9, 12485, Note_on_c, 2, 67, 87
9, 12534, Note_off_c, 2, 67, 64
9, 12598, Note_on_c, 2, 71, 89
9, 12646, Note_off_c, 2, 71, 64
9, 12720, Note_on_c, 2, 64, 87
9, 12762, Note_off_c, 2, 64, 64
9, 12837, Note_on_c, 2, 64, 89
9, 12880, Note_off_c, 2, 64, 64
9, 12957, Note_on_c, 2, 64, 95
9, 13001, Note_off_c, 2, 64, 64
9, 13073, Note_on_c, 2, 66, 82
9, 13113, Note_off_c, 2, 66, 64
9, 13198, Note_on_c, 2, 66, 87
9, 13246, Note_off_c, 2, 66, 64
9, 13318, Note_on_c, 2, 64, 82
9, 13364, Note_off_c, 2, 64, 64
9, 13433, Note_on_c, 2, 62, 85
9, 13482, Note_off_c, 2, 62, 64
9, 13550, Note_on_c, 2, 61, 82
9, 13598, Note_off_c, 2, 61, 64
9, 13676, Note_on_c, 2, 59, 87
9, 13727, Note_off_c, 2, 59, 64
9, 13794, Note_on_c, 2, 66, 82
9, 13838, Note_off_c, 2, 66, 64
9, 13914, Note_on_c, 2, 66, 85
9, 13964, Note_off_c, 2, 66, 64
9, 14037, Note_on_c, 2, 66, 85
9, 14083, Note_off_c, 2, 66, 64
9, 14152, Note_on_c, 2, 67, 89
9, 14192, Note_off_c, 2, 67, 64
9, 14278, Note_on_c, 2, 59, 85
9, 14316, Note_off_c, 2, 59, 64
9, 14397, Note_on_c, 2, 66, 95
9, 14439, Note_off_c, 2, 66, 64
9, 14515, Note_on_c, 2, 61, 82
9, 14560, Note_off_c, 2, 61, 64
9, 14632, Note_on_c, 2, 58, 60
9, 14888, Note_off_c, 2, 58, 64
9, 15114, Note_on_c, 2, 59, 85
9, 15166, Note_off_c, 2, 59, 64
9, 15233, Note_on_c, 2, 66, 85
9, 15278, Note_off_c, 2, 66, 64
9, 15357, Note_on_c, 2, 64, 91
9, 15397, Note_off_c, 2, 64, 64
9, 15475, Note_on_c, 2, 64, 82
9, 15523, Note_off_c, 2, 64, 64
9, 15591, Note_on_c, 2, 66, 85
9, 15637, Note_off_c, 2, 66, 64
9, 15709, Note_on_c, 2, 61, 82
9, 15759, Note_off_c, 2, 61, 64
9, 15836, Note_on_c, 2, 59, 91
9, 15884, Note_off_c, 2, 59, 64
9, 15958, Note_on_c, 2, 54, 80
9, 16004, Note_off_c, 2, 54, 64
9, 16075, Note_on_c, 2, 61, 80
9, 16125, Note_off_c, 2, 61, 64
9, 16193, Note_on_c, 2, 59, 57
9, 16243, Note_off_c, 2, 59, 64
9, 16317, Note_on_c, 2, 59, 53
9, 16365, Note_off_c, 2, 59, 64
9, 16436, Note_on_c, 2, 59, 62
9, 16484, Note_off_c, 2, 59, 64
9, 16555, Note_on_c, 2, 59, 100
9, 16610, Note_off_c, 2, 59, 64
9, 16676, Note_on_c, 2, 64, 98
9, 16727, Note_off_c, 2, 64, 64
9, 16800, Note_on_c, 2, 61, 87
9, 16845, Note_off_c, 2, 61, 64
9, 16915, Note_on_c, 2, 59, 87
9, 16964, Note_off_c, 2, 59, 64
9, 17035, Note_on_c, 2, 59, 82
9, 17077, Note_off_c, 2, 59, 64
9, 17156, Note_on_c, 2, 58, 89
9, 17201, Note_off_c, 2, 58, 64
9, 17284, Note_on_c, 2, 55, 57
9, 17321, Note_on_c, 2, 54, 64
9, 17325, Note_off_c, 2, 55, 64
9, 17341, Note_on_c, 2, 55, 72
9, 17344, Note_off_c, 2, 54, 64
9, 17359, Note_off_c, 2, 55, 64
9, 17359, Note_on_c, 2, 54, 78
9, 17377, Note_on_c, 2, 55, 63
9, 17393, Note_off_c, 2, 55, 64
9, 17397, Note_on_c, 2, 52, 76
9, 17411, Note_off_c, 2, 54, 64
9, 17455, Note_on_c, 2, 54, 85
9, 17464, Note_off_c, 2, 52, 64
9, 17513, Note_off_c, 2, 54, 64
9, 17522, Note_on_c, 2, 50, 76
9, 17779, Note_off_c, 2, 50, 64
9, 35283, Note_on_c, 2, 59, 107
9, 35320, Note_off_c, 2, 59, 64
9, 35400, Note_on_c, 2, 66, 116
9, 35440, Note_off_c, 2, 66, 64
9, 35526, Note_on_c, 2, 64, 113
9, 35565, Note_off_c, 2, 64, 64
9, 35644, Note_on_c, 2, 64, 113
9, 35682, Note_off_c, 2, 64, 64
9, 35760, Note_on_c, 2, 66, 91
9, 35799, Note_off_c, 2, 66, 64
9, 35876, Note_on_c, 2, 61, 89
9, 35920, Note_off_c, 2, 61, 64
9, 35997, Note_on_c, 2, 62, 58
9, 36035, Note_off_c, 2, 62, 64
9, 36108, Note_on_c, 2, 66, 61
9, 36150, Note_off_c, 2, 66, 64
9, 36234, Note_on_c, 2, 64, 59
9, 36279, Note_off_c, 2, 64, 64
9, 36354, Note_on_c, 2, 62, 58
9, 36392, Note_off_c, 2, 62, 64
9, 36475, Note_on_c, 2, 64, 59
9, 36517, Note_off_c, 2, 64, 64
9, 36592, Note_on_c, 2, 61, 68
9, 36629, Note_off_c, 2, 61, 64
9, 36714, Note_on_c, 2, 62, 105
9, 36757, Note_off_c, 2, 62, 64
9, 36836, Note_on_c, 2, 66, 95
9, 36881, Note_off_c, 2, 66, 64
9, 36958, Note_on_c, 2, 64, 89
9, 37008, Note_off_c, 2, 64, 64
9, 37072, Note_on_c, 2, 66, 93
9, 37119, Note_off_c, 2, 66, 64
9, 37161, Note_on_c, 2, 67, 89
9, 37184, Note_off_c, 2, 67, 64
9, 37192, Note_on_c, 2, 69, 89
9, 37238, Note_off_c, 2, 69, 64
9, 37308, Note_on_c, 2, 61, 98
9, 37356, Note_off_c, 2, 61, 64
9, 37431, Note_on_c, 2, 59, 87
9, 37472, Note_on_c, 2, 57, 80
9, 37476, Note_off_c, 2, 59, 64
9, 37492, Note_on_c, 2, 59, 80
9, 37495, Note_off_c, 2, 57, 64
9, 37507, Note_on_c, 2, 57, 78
9, 37513, Note_off_c, 2, 59, 64
9, 37525, Note_on_c, 2, 59, 66
9, 37528, Note_off_c, 2, 57, 64
9, 37534, Note_on_c, 2, 57, 47
9, 37542, Note_off_c, 2, 59, 64
9, 37550, Note_on_c, 2, 55, 87
9, 37562, Note_off_c, 2, 57, 64
9, 37608, Note_on_c, 2, 57, 87
9, 37610, Note_off_c, 2, 55, 64
9, 37667, Note_off_c, 2, 57, 64
9, 37679, Note_on_c, 2, 54, 87
9, 37930, Note_off_c, 2, 54, 64
9, 38159, Note_on_c, 2, 59, 107
9, 38203, Note_off_c, 2, 59, 64
9, 38274, Note_on_c, 2, 66, 95
9, 38315, Note_off_c, 2, 66, 64
9, 38399, Note_on_c, 2, 64, 98
9, 38445, Note_off_c, 2, 64, 64
9, 38523, Note_on_c, 2, 64, 95
9, 38565, Note_off_c, 2, 64, 64
9, 38641, Note_on_c, 2, 66, 93
9, 38679, Note_off_c, 2, 66, 64
9, 38758, Note_on_c, 2, 61, 95
9, 38802, Note_off_c, 2, 61, 64
9, 38881, Note_on_c, 2, 62, 59
9, 38922, Note_off_c, 2, 62, 64
9, 38994, Note_on_c, 2, 66, 62
9, 39034, Note_off_c, 2, 66, 64
9, 39113, Note_on_c, 2, 64, 55
9, 39156, Note_off_c, 2, 64, 64
9, 39235, Note_on_c, 2, 62, 57
9, 39276, Note_off_c, 2, 62, 64
9, 39355, Note_on_c, 2, 64, 60
9, 39398, Note_off_c, 2, 64, 64
9, 39478, Note_on_c, 2, 61, 66
9, 39520, Note_off_c, 2, 61, 64
9, 39600, Note_on_c, 2, 62, 122
9, 39648, Note_off_c, 2, 62, 64
9, 39717, Note_on_c, 2, 66, 105
9, 39765, Note_off_c, 2, 66, 64
9, 39845, Note_on_c, 2, 64, 105
9, 39892, Note_off_c, 2, 64, 64
9, 39960, Note_on_c, 2, 66, 100
9, 40007, Note_off_c, 2, 66, 64
9, 40041, Note_on_c, 2, 67, 89
9, 40064, Note_off_c, 2, 67, 64
9, 40075, Note_on_c, 2, 69, 102
9, 40120, Note_off_c, 2, 69, 64
9, 40192, Note_on_c, 2, 61, 89
9, 40239, Note_off_c, 2, 61, 64
9, 40316, Note_on_c, 2, 59, 91
9, 40358, Note_on_c, 2, 57, 87
9, 40363, Note_off_c, 2, 59, 64
9, 40378, Note_off_c, 2, 57, 64
9, 40378, Note_on_c, 2, 59, 80
9, 40396, Note_on_c, 2, 57, 66
9, 40404, Note_off_c, 2, 59, 64
9, 40434, Note_on_c, 2, 55, 95
9, 40438, Note_off_c, 2, 57, 64
9, 40492, Note_on_c, 2, 57, 82
9, 40495, Note_off_c, 2, 55, 64
9, 40539, Note_off_c, 2, 57, 64
9, 40560, Note_on_c, 2, 54, 93
9, 40810, Note_off_c, 2, 54, 64
9, 40810, End_track
10, 0, Start_track
10, 0, Title_t, "Cello"
10, 0, Program_c, 3, 42
10, 0, Control_c, 3, 7, 100
10, 6481, Note_on_c, 3, 54, 78
10, 6519, Note_off_c, 3, 54, 64
10, 6601, Note_on_c, 3, 50, 93
10, 6650, Note_off_c, 3, 50, 64
10, 6721, Note_on_c, 3, 55, 80
10, 6763, Note_off_c, 3, 55, 64
10, 6837, Note_on_c, 3, 56, 85
10, 6884, Note_off_c, 3, 56, 64
10, 6955, Note_on_c, 3, 57, 85
10, 6998, Note_off_c, 3, 57, 64
10, 7075, Note_on_c, 3, 52, 80
10, 7119, Note_off_c, 3, 52, 64
10, 7198, Note_on_c, 3, 57, 82
10, 7245, Note_off_c, 3, 57, 64
10, 7315, Note_on_c, 3, 58, 91
10, 7362, Note_off_c, 3, 58, 64
10, 7436, Note_on_c, 3, 59, 82
10, 7484, Note_off_c, 3, 59, 64
10, 7552, Note_on_c, 3, 54, 64
10, 7601, Note_off_c, 3, 54, 64
10, 7674, Note_on_c, 3, 59, 87
10, 7719, Note_off_c, 3, 59, 64
10, 7789, Note_on_c, 3, 61, 80
10, 7834, Note_off_c, 3, 61, 64
10, 7917, Note_on_c, 3, 62, 95
10, 7968, Note_off_c, 3, 62, 64
10, 8035, Note_on_c, 3, 59, 78
10, 8091, Note_off_c, 3, 59, 64
10, 8149, Note_on_c, 3, 58, 74
10, 8201, Note_off_c, 3, 58, 64
10, 8267, Note_on_c, 3, 59, 76
10, 8311, Note_off_c, 3, 59, 64
10, 8392, Note_on_c, 3, 52, 89
10, 8432, Note_off_c, 3, 52, 64
10, 8512, Note_on_c, 3, 55, 82
10, 8559, Note_off_c, 3, 55, 64
10, 8635, Note_on_c, 3, 54, 82
10, 8951, Note_off_c, 3, 54, 64
10, 8991, Note_on_c, 3, 55, 82
10, 9039, Note_off_c, 3, 55, 64
10, 9115, Note_on_c, 3, 54, 70
10, 9166, Note_off_c, 3, 54, 64
10, 9237, Note_on_c, 3, 52, 80
10, 9286, Note_off_c, 3, 52, 64
10, 9363, Note_on_c, 3, 50, 89
10, 9417, Note_off_c, 3, 50, 64
10, 9482, Note_on_c, 3, 47, 82
10, 9533, Note_off_c, 3, 47, 64
10, 9603, Note_on_c, 3, 52, 85
10, 9648, Note_off_c, 3, 52, 64
10, 9717, Note_on_c, 3, 55, 82
10, 9767, Note_off_c, 3, 55, 64
10, 9835, Note_on_c, 3, 54, 74
10, 9884, Note_off_c, 3, 54, 64
10, 9956, Note_on_c, 3, 52, 72
10, 10002, Note_off_c, 3, 52, 64
10, 10076, Note_on_c, 3, 50, 60
10, 10125, Note_off_c, 3, 50, 64
10, 10195, Note_on_c, 3, 47, 60
10, 10243, Note_off_c, 3, 47, 64
10, 10306, Note_on_c, 3, 49, 51
10, 10361, Note_off_c, 3, 49, 64
10, 10431, Note_on_c, 3, 50, 58
10, 10489, Note_off_c, 3, 50, 64
10, 10555, Note_on_c, 3, 51, 62
10, 10604, Note_off_c, 3, 51, 64
10, 10679, Note_on_c, 3, 47, 64
10, 10729, Note_off_c, 3, 47, 64
10, 10796, Note_on_c, 3, 52, 100
10, 10844, Note_off_c, 3, 52, 64
10, 10918, Note_on_c, 3, 49, 78
10, 10969, Note_off_c, 3, 49, 64
10, 11035, Note_on_c, 3, 54, 85
10, 11085, Note_off_c, 3, 54, 64
10, 11122, Note_on_c, 3, 52, 85
10, 11152, Note_off_c, 3, 52, 64
10, 11155, Note_on_c, 3, 50, 100
10, 11212, Note_off_c, 3, 50, 64
10, 11243, Note_on_c, 3, 52, 85
10, 11269, Note_off_c, 3, 52, 64
10, 11280, Note_on_c, 3, 54, 100
10, 11324, Note_off_c, 3, 54, 64
10, 11401, Note_on_c, 3, 42, 87
10, 11450, Note_off_c, 3, 42, 64
10, 11521, Note_on_c, 3, 47, 93
10, 11864, Note_off_c, 3, 47, 64
10, 11875, Note_on_c, 3, 50, 85
10, 11908, Note_off_c, 3, 50, 64
10, 11932, Note_on_c, 3, 54, 87
10, 11970, Note_off_c, 3, 54, 64
10, 12006, Note_on_c, 3, 59, 98
10, 12149, Note_off_c, 3, 59, 64
10, 12243, Note_on_c, 3, 54, 72
10, 12282, Note_off_c, 3, 54, 64
10, 12362, Note_on_c, 3, 50, 85
10, 12410, Note_off_c, 3, 50, 64
10, 12480, Note_on_c, 3, 55, 91
10, 12532, Note_off_c, 3, 55, 64
10, 12600, Note_on_c, 3, 56, 87
10, 12649, Note_off_c, 3, 56, 64
10, 12723, Note_on_c, 3, 57, 93
10, 12766, Note_off_c, 3, 57, 64
10, 12837, Note_on_c, 3, 52, 85
10, 12881, Note_off_c, 3, 52, 64
10, 12956, Note_on_c, 3, 57, 91
10, 13005, Note_off_c, 3, 57, 64
10, 13075, Note_on_c, 3, 58, 82
10, 13123, Note_off_c, 3, 58, 64
10, 13196, Note_on_c, 3, 59, 89
10, 13247, Note_off_c, 3, 59, 64
10, 13317, Note_on_c, 3, 54, 78
10, 13366, Note_off_c, 3, 54, 64
10, 13432, Note_on_c, 3, 59, 100
10, 13484, Note_off_c, 3, 59, 64
10, 13553, Note_on_c, 3, 61, 98
10, 13600, Note_off_c, 3, 61, 64
10, 13677, Note_on_c, 3, 62, 100
10, 13726, Note_off_c, 3, 62, 64
10, 13794, Note_on_c, 3, 59, 68
10, 13842, Note_off_c, 3, 59, 64
10, 13917, Note_on_c, 3, 58, 87
10, 13956, Note_off_c, 3, 58, 64
10, 14031, Note_on_c, 3, 59, 82
10, 14076, Note_off_c, 3, 59, 64
10, 14148, Note_on_c, 3, 52, 82
10, 14194, Note_off_c, 3, 52, 64
10, 14268, Note_on_c, 3, 55, 87
10, 14315, Note_off_c, 3, 55, 64
10, 14395, Note_on_c, 3, 54, 91
10, 14717, Note_off_c, 3, 54, 64
10, 14752, Note_on_c, 3, 55, 85
10, 14804, Note_off_c, 3, 55, 64
10, 14875, Note_on_c, 3, 54, 68
10, 14924, Note_off_c, 3, 54, 64
10, 14993, Note_on_c, 3, 52, 76
10, 15039, Note_off_c, 3, 52, 64
10, 15117, Note_on_c, 3, 50, 85
10, 15168, Note_off_c, 3, 50, 64
10, 15232, Note_on_c, 3, 47, 78
10, 15290, Note_off_c, 3, 47, 64
10, 15354, Note_on_c, 3, 52, 82
10, 15400, Note_off_c, 3, 52, 64
10, 15474, Note_on_c, 3, 55, 82
10, 15527, Note_off_c, 3, 55, 64
10, 15593, Note_on_c, 3, 54, 64
10, 15647, Note_off_c, 3, 54, 64
10, 15714, Note_on_c, 3, 52, 82
10, 15760, Note_off_c, 3, 52, 64
10, 15832, Note_on_c, 3, 50, 80
10, 15878, Note_off_c, 3, 50, 64
10, 15948, Note_on_c, 3, 47, 59
10, 16003, Note_off_c, 3, 47, 64
10, 16074, Note_on_c, 3, 49, 52
10, 16119, Note_off_c, 3, 49, 64
10, 16194, Note_on_c, 3, 50, 63
10, 16247, Note_off_c, 3, 50, 64
10, 16316, Note_on_c, 3, 51, 60
10, 16368, Note_off_c, 3, 51, 64
10, 16439, Note_on_c, 3, 47, 66
10, 16481, Note_off_c, 3, 47, 64
10, 16556, Note_on_c, 3, 52, 95
10, 16607, Note_off_c, 3, 52, 64
10, 16675, Note_on_c, 3, 49, 85
10, 16725, Note_off_c, 3, 49, 64
10, 16798, Note_on_c, 3, 54, 102
10, 16845, Note_off_c, 3, 54, 64
10, 16884, Note_on_c, 3, 52, 85
10, 16917, Note_off_c, 3, 52, 64
10, 16918, Note_on_c, 3, 50, 107
10, 16973, Note_off_c, 3, 50, 64
10, 17005, Note_on_c, 3, 52, 89
10, 17027, Note_off_c, 3, 52, 64
10, 17039, Note_on_c, 3, 54, 105
10, 17082, Note_off_c, 3, 54, 64
10, 17162, Note_on_c, 3, 42, 85
10, 17211, Note_off_c, 3, 42, 64
10, 17281, Note_on_c, 3, 47, 89
10, 17607, Note_off_c, 3, 47, 64
10, 17627, Note_on_c, 3, 50, 82
10, 17664, Note_off_c, 3, 50, 64
10, 17689, Note_on_c, 3, 54, 82
10, 17723, Note_off_c, 3, 54, 64
10, 17760, Note_on_c, 3, 59, 87
10, 17902, Note_off_c, 3, 59, 64
10, 35285, Note_on_c, 3, 50, 119
10, 35329, Note_off_c, 3, 50, 64
10, 35402, Note_on_c, 3, 47, 102
10, 35445, Note_off_c, 3, 47, 64
10, 35518, Note_on_c, 3, 52, 107
10, 35564, Note_off_c, 3, 52, 64
10, 35635, Note_on_c, 3, 55, 91
10, 35683, Note_off_c, 3, 55, 64
10, 35757, Note_on_c, 3, 54, 107
10, 35798, Note_off_c, 3, 54, 64
10, 35879, Note_on_c, 3, 52, 98
10, 35924, Note_off_c, 3, 52, 64
10, 35995, Note_on_c, 3, 50, 64
10, 36040, Note_off_c, 3, 50, 64
10, 36115, Note_on_c, 3, 47, 56
10, 36160, Note_off_c, 3, 47, 64
10, 36229, Note_on_c, 3, 54, 56
10, 36281, Note_off_c, 3, 54, 64
10, 36349, Note_on_c, 3, 55, 53
10, 36404, Note_off_c, 3, 55, 64
10, 36473, Note_on_c, 3, 52, 59
10, 36520, Note_off_c, 3, 52, 64
10, 36592, Note_on_c, 3, 54, 66
10, 36640, Note_off_c, 3, 54, 64
10, 36720, Note_on_c, 3, 50, 119
10, 36770, Note_off_c, 3, 50, 64
10, 36844, Note_on_c, 3, 47, 102
10, 36890, Note_off_c, 3, 47, 64
10, 36963, Note_on_c, 3, 52, 95
10, 37007, Note_off_c, 3, 52, 64
10, 37080, Note_on_c, 3, 50, 98
10, 37125, Note_off_c, 3, 50, 64
10, 37197, Note_on_c, 3, 49, 95
10, 37236, Note_off_c, 3, 49, 64
10, 37319, Note_on_c, 3, 45, 100
10, 37359, Note_off_c, 3, 45, 64
10, 37438, Note_on_c, 3, 50, 105
10, 37777, Note_off_c, 3, 50, 64
10, 37788, Note_on_c, 3, 45, 89
10, 37821, Note_off_c, 3, 45, 64
10, 37843, Note_on_c, 3, 42, 82
10, 37877, Note_off_c, 3, 42, 64
10, 37915, Note_on_c, 3, 38, 87
10, 38050, Note_off_c, 3, 38, 64
10, 38153, Note_on_c, 3, 50, 105
10, 38203, Note_off_c, 3, 50, 64
10, 38283, Note_on_c, 3, 47, 87
10, 38330, Note_off_c, 3, 47, 64
10, 38403, Note_on_c, 3, 52, 89
10, 38451, Note_off_c, 3, 52, 64
10, 38522, Note_on_c, 3, 55, 85
10, 38571, Note_off_c, 3, 55, 64
10, 38641, Note_on_c, 3, 54, 89
10, 38683, Note_off_c, 3, 54, 64
10, 38757, Note_on_c, 3, 52, 91
10, 38802, Note_off_c, 3, 52, 64
10, 38880, Note_on_c, 3, 50, 53
10, 38927, Note_off_c, 3, 50, 64
10, 38996, Note_on_c, 3, 47, 61
10, 39044, Note_off_c, 3, 47, 64
10, 39110, Note_on_c, 3, 54, 55
10, 39167, Note_off_c, 3, 54, 64
10, 39229, Note_on_c, 3, 55, 53
10, 39282, Note_off_c, 3, 55, 64
10, 39351, Note_on_c, 3, 52, 51
10, 39402, Note_off_c, 3, 52, 64
10, 39476, Note_on_c, 3, 54, 64
10, 39521, Note_off_c, 3, 54, 64
10, 39600, Note_on_c, 3, 50, 119
10, 39646, Note_off_c, 3, 50, 64
10, 39722, Note_on_c, 3, 47, 98
10, 39767, Note_off_c, 3, 47, 64
10, 39844, Note_on_c, 3, 52, 89
10, 39890, Note_off_c, 3, 52, 64
10, 39956, Note_on_c, 3, 50, 82
10, 40008, Note_off_c, 3, 50, 64
10, 40075, Note_on_c, 3, 49, 91
10, 40119, Note_off_c, 3, 49, 64
10, 40192, Note_on_c, 3, 45, 91
10, 40231, Note_off_c, 3, 45, 64
10, 40317, Note_on_c, 3, 50, 91
10, 40653, Note_off_c, 3, 50, 64
10, 40671, Note_on_c, 3, 45, 82
10, 40706, Note_off_c, 3, 45, 64
10, 40725, Note_on_c, 3, 42, 85
10, 40763, Note_off_c, 3, 42, 64
10, 40801, Note_on_c, 3, 38, 85
10, 40931, Note_off_c, 3, 38, 64
10, 40931, End_track
11, 0, Start_track
11, 0, Title_t, "Flute"
11, 0, Program_c, 4, 73
11, 0, Control_c, 4, 7, 127
11, 6478, Note_on_c, 4, 86, 87
11, 6633, Note_off_c, 4, 86, 64
11, 6672, Note_on_c, 4, 90, 95
11, 6700, Note_off_c, 4, 90, 64
11, 6711, Note_on_c, 4, 88, 82
11, 6756, Note_off_c, 4, 88, 64
11, 6829, Note_on_c, 4, 86, 89
11, 6869, Note_off_c, 4, 86, 64
11, 6950, Note_on_c, 4, 86, 98
11, 7016, Note_on_c, 4, 85, 66
11, 7022, Note_off_c, 4, 86, 64
11, 7115, Note_off_c, 4, 85, 64
11, 7129, Note_on_c, 4, 86, 78
11, 7153, Note_on_c, 4, 88, 68
11, 7160, Note_off_c, 4, 86, 64
11, 7172, Note_off_c, 4, 88, 64
11, 7196, Note_on_c, 4, 86, 98
11, 7260, Note_on_c, 4, 85, 63
11, 7267, Note_off_c, 4, 86, 64
11, 7376, Note_off_c, 4, 85, 64
11, 7405, Note_on_c, 4, 88, 87
11, 7429, Note_off_c, 4, 88, 64
11, 7436, Note_on_c, 4, 86, 98
11, 7480, Note_off_c, 4, 86, 64
11, 7551, Note_on_c, 4, 85, 98
11, 7606, Note_off_c, 4, 85, 64
11, 7669, Note_on_c, 4, 85, 102
11, 7685, Note_on_c, 4, 83, 76
11, 7688, Note_off_c, 4, 85, 64
11, 7705, Note_on_c, 4, 85, 87
11, 7709, Note_off_c, 4, 83, 64
11, 7723, Note_on_c, 4, 83, 82
11, 7730, Note_off_c, 4, 85, 64
11, 7756, Note_off_c, 4, 83, 64
11, 7794, Note_on_c, 4, 82, 85
11, 7847, Note_off_c, 4, 82, 64
11, 7915, Note_on_c, 4, 83, 87
11, 8067, Note_off_c, 4, 83, 64
11, 8086, Note_on_c, 4, 85, 85
11, 8108, Note_on_c, 4, 86, 82
11, 8110, Note_off_c, 4, 85, 64
11, 8128, Note_off_c, 4, 86, 64
11, 8149, Note_on_c, 4, 85, 98
11, 8264, Note_off_c, 4, 85, 64
11, 8268, Note_on_c, 4, 86, 85
11, 8298, Note_off_c, 4, 86, 64
11, 8329, Note_on_c, 4, 90, 89
11, 8354, Note_off_c, 4, 90, 64
11, 8390, Note_on_c, 4, 88, 87
11, 8449, Note_on_c, 4, 86, 66
11, 8456, Note_off_c, 4, 88, 64
11, 8474, Note_off_c, 4, 86, 64
11, 8513, Note_on_c, 4, 85, 85
11, 8568, Note_on_c, 4, 83, 70
11, 8574, Note_off_c, 4, 85, 64
11, 8597, Note_off_c, 4, 83, 64
11, 8632, Note_on_c, 4, 85, 95
11, 8687, Note_on_c, 4, 83, 66
11, 8690, Note_off_c, 4, 85, 64
11, 8719, Note_off_c, 4, 83, 64
11, 8749, Note_on_c, 4, 82, 63
11, 8804, Note_on_c, 4, 80, 57
11, 8814, Note_off_c, 4, 82, 64
11, 8844, Note_off_c, 4, 80, 64
11, 8876, Note_on_c, 4, 78, 57
11, 9137, Note_off_c, 4, 78, 64
11, 9358, Note_on_c, 4, 83, 98
11, 9507, Note_off_c, 4, 83, 64
11, 9560, Note_on_c, 4, 86, 98
11, 9592, Note_off_c, 4, 86, 64
11, 9597, Note_on_c, 4, 85, 100
11, 9632, Note_off_c, 4, 85, 64
11, 9715, Note_on_c, 4, 83, 93
11, 9755, Note_off_c, 4, 83, 64
11, 9835, Note_on_c, 4, 83, 100
11, 9890, Note_on_c, 4, 82, 78
11, 9900, Note_off_c, 4, 83, 64
11, 9987, Note_off_c, 4, 82, 64
11, 10014, Note_on_c, 4, 83, 85
11, 10039, Note_on_c, 4, 85, 56
11, 10043, Note_off_c, 4, 83, 64
11, 10060, Note_off_c, 4, 85, 64
11, 10080, Note_on_c, 4, 78, 44
11, 10238, Note_off_c, 4, 78, 64
11, 10284, Note_on_c, 4, 83, 61
11, 10320, Note_on_c, 4, 82, 55
11, 10322, Note_off_c, 4, 83, 64
11, 10358, Note_off_c, 4, 82, 64
11, 10435, Note_on_c, 4, 83, 66
11, 10479, Note_off_c, 4, 83, 64
11, 10562, Note_on_c, 4, 78, 57
11, 10697, Note_off_c, 4, 78, 64
11, 10733, Note_on_c, 4, 79, 76
11, 10756, Note_on_c, 4, 81, 85
11, 10763, Note_off_c, 4, 79, 64
11, 10776, Note_off_c, 4, 81, 64
11, 10803, Note_on_c, 4, 81, 110
11, 10865, Note_on_c, 4, 79, 66
11, 10867, Note_off_c, 4, 81, 64
11, 10972, Note_off_c, 4, 79, 64
11, 11009, Note_on_c, 4, 88, 95
11, 11037, Note_off_c, 4, 88, 64
11, 11039, Note_on_c, 4, 82, 72
11, 11089, Note_off_c, 4, 82, 64
11, 11158, Note_on_c, 4, 83, 87
11, 11201, Note_off_c, 4, 83, 64
11, 11276, Note_on_c, 4, 78, 85
11, 11321, Note_off_c, 4, 78, 64
11, 11392, Note_on_c, 4, 76, 82
11, 11442, Note_off_c, 4, 76, 64
11, 11516, Note_on_c, 4, 76, 82
11, 11554, Note_on_c, 4, 74, 80
11, 11560, Note_off_c, 4, 76, 64
11, 11575, Note_on_c, 4, 76, 76
11, 11578, Note_off_c, 4, 74, 64
11, 11593, Note_on_c, 4, 74, 70
11, 11599, Note_off_c, 4, 76, 64
11, 11626, Note_on_c, 4, 73, 61
11, 11627, Note_off_c, 4, 74, 64
11, 11688, Note_on_c, 4, 74, 82
11, 11690, Note_off_c, 4, 73, 64
11, 11738, Note_off_c, 4, 74, 64
11, 11755, Note_on_c, 4, 71, 74
11, 12004, Note_off_c, 4, 71, 64
11, 12240, Note_on_c, 4, 86, 107
11, 12393, Note_off_c, 4, 86, 64
11, 12442, Note_on_c, 4, 90, 102
11, 12469, Note_off_c, 4, 90, 64
11, 12477, Note_on_c, 4, 88, 91
11, 12530, Note_off_c, 4, 88, 64
11, 12600, Note_on_c, 4, 86, 87
11, 12644, Note_off_c, 4, 86, 64
11, 12713, Note_on_c, 4, 86, 87
11, 12764, Note_on_c, 4, 85, 76
11, 12767, Note_off_c, 4, 86, 64
11, 12781, Note_off_c, 4, 85, 64
11, 12784, Note_on_c, 4, 86, 68
11, 12799, Note_on_c, 4, 85, 68
11, 12803, Note_off_c, 4, 86, 64
11, 12817, Note_off_c, 4, 85, 64
11, 12817, Note_on_c, 4, 86, 74
11, 12830, Note_on_c, 4, 85, 82
11, 12835, Note_off_c, 4, 86, 64
11, 12891, Note_off_c, 4, 85, 64
11, 12896, Note_on_c, 4, 86, 80
11, 12915, Note_on_c, 4, 88, 78
11, 12920, Note_off_c, 4, 86, 64
11, 12937, Note_off_c, 4, 88, 64
11, 12951, Note_on_c, 4, 86, 89
11, 13021, Note_on_c, 4, 85, 60
11, 13022, Note_off_c, 4, 86, 64
11, 13128, Note_off_c, 4, 85, 64
11, 13165, Note_on_c, 4, 88, 85
11, 13187, Note_off_c, 4, 88, 64
11, 13191, Note_on_c, 4, 86, 89
11, 13237, Note_off_c, 4, 86, 64
11, 13312, Note_on_c, 4, 85, 91
11, 13369, Note_off_c, 4, 85, 64
11, 13426, Note_on_c, 4, 85, 89
11, 13443, Note_off_c, 4, 85, 64
11, 13443, Note_on_c, 4, 83, 82
11, 13461, Note_on_c, 4, 85, 82
11, 13463, Note_off_c, 4, 83, 64
11, 13476, Note_on_c, 4, 83, 76
11, 13486, Note_off_c, 4, 85, 64
11, 13511, Note_off_c, 4, 83, 64
11, 13563, Note_on_c, 4, 82, 89
11, 13611, Note_off_c, 4, 82, 64
11, 13677, Note_on_c, 4, 83, 87
11, 13836, Note_off_c, 4, 83, 64
11, 13848, Note_on_c, 4, 85, 63
11, 13872, Note_on_c, 4, 86, 72
11, 13876, Note_off_c, 4, 85, 64
11, 13892, Note_off_c, 4, 86, 64
11, 13912, Note_on_c, 4, 85, 98
11, 14025, Note_off_c, 4, 85, 64
11, 14028, Note_on_c, 4, 86, 82
11, 14054, Note_off_c, 4, 86, 64
11, 14091, Note_on_c, 4, 90, 87
11, 14117, Note_off_c, 4, 90, 64
11, 14156, Note_on_c, 4, 88, 87
11, 14214, Note_on_c, 4, 86, 64
11, 14223, Note_off_c, 4, 88, 64
11, 14239, Note_off_c, 4, 86, 64
11, 14277, Note_on_c, 4, 85, 80
11, 14332, Note_on_c, 4, 83, 72
11, 14340, Note_off_c, 4, 85, 64
11, 14360, Note_off_c, 4, 83, 64
11, 14395, Note_on_c, 4, 85, 93
11, 14448, Note_on_c, 4, 83, 70
11, 14457, Note_off_c, 4, 85, 64
11, 14477, Note_off_c, 4, 83, 64
11, 14514, Note_on_c, 4, 82, 102
11, 14542, Note_on_c, 4, 83, 74
11, 14549, Note_off_c, 4, 82, 64
11, 14570, Note_on_c, 4, 82, 58
11, 14581, Note_off_c, 4, 83, 64
11, 14592, Note_on_c, 4, 80, 58
11, 14600, Note_off_c, 4, 82, 64
11, 14621, Note_off_c, 4, 80, 64
11, 14640, Note_on_c, 4, 78, 60
11, 14895, Note_off_c, 4, 78, 64
11, 15118, Note_on_c, 4, 83, 107
11, 15272, Note_off_c, 4, 83, 64
11, 15320, Note_on_c, 4, 86, 89
11, 15348, Note_off_c, 4, 86, 64
11, 15352, Note_on_c, 4, 85, 100
11, 15388, Note_off_c, 4, 85, 64
11, 15472, Note_on_c, 4, 83, 82
11, 15514, Note_off_c, 4, 83, 64
11, 15591, Note_on_c, 4, 83, 89
11, 15638, Note_on_c, 4, 82, 76
11, 15640, Note_off_c, 4, 83, 64
11, 15656, Note_off_c, 4, 82, 64
11, 15656, Note_on_c, 4, 83, 68
11, 15674, Note_on_c, 4, 82, 74
11, 15677, Note_off_c, 4, 83, 64
11, 15689, Note_on_c, 4, 83, 72
11, 15691, Note_off_c, 4, 82, 64
11, 15707, Note_on_c, 4, 82, 85
11, 15714, Note_off_c, 4, 83, 64
11, 15770, Note_off_c, 4, 82, 64
11, 15772, Note_on_c, 4, 83, 66
11, 15794, Note_on_c, 4, 85, 64
11, 15799, Note_off_c, 4, 83, 64
11, 15816, Note_off_c, 4, 85, 64
11, 15836, Note_on_c, 4, 78, 82
11, 15982, Note_off_c, 4, 78, 64
11, 16039, Note_on_c, 4, 83, 63
11, 16068, Note_on_c, 4, 82, 45
11, 16072, Note_off_c, 4, 83, 64
11, 16103, Note_off_c, 4, 82, 64
11, 16192, Note_on_c, 4, 83, 60
11, 16229, Note_off_c, 4, 83, 64
11, 16317, Note_on_c, 4, 78, 60
11, 16457, Note_off_c, 4, 78, 64
11, 16492, Note_on_c, 4, 79, 85
11, 16511, Note_on_c, 4, 81, 82
11, 16517, Note_off_c, 4, 79, 64
11, 16530, Note_off_c, 4, 81, 64
11, 16557, Note_on_c, 4, 81, 107
11, 16622, Note_on_c, 4, 79, 68
11, 16627, Note_off_c, 4, 81, 64
11, 16724, Note_off_c, 4, 79, 64
11, 16767, Note_on_c, 4, 88, 89
11, 16792, Note_off_c, 4, 88, 64
11, 16798, Note_on_c, 4, 82, 80
11, 16850, Note_off_c, 4, 82, 64
11, 16919, Note_on_c, 4, 83, 82
11, 16963, Note_off_c, 4, 83, 64
11, 17035, Note_on_c, 4, 78, 87
11, 17079, Note_off_c, 4, 78, 64
11, 17154, Note_on_c, 4, 76, 82
11, 17202, Note_off_c, 4, 76, 64
11, 17272, Note_on_c, 4, 76, 82
11, 17305, Note_on_c, 4, 74, 63
11, 17309, Note_off_c, 4, 76, 64
11, 17322, Note_off_c, 4, 74, 64
11, 17323, Note_on_c, 4, 76, 62
11, 17340, Note_on_c, 4, 74, 76
11, 17344, Note_off_c, 4, 76, 64
11, 17351, Note_on_c, 4, 76, 63
11, 17354, Note_off_c, 4, 74, 64
11, 17366, Note_on_c, 4, 74, 70
11, 17370, Note_off_c, 4, 76, 64
11, 17390, Note_on_c, 4, 73, 66
11, 17395, Note_off_c, 4, 74, 64
11, 17448, Note_off_c, 4, 73, 64
11, 17449, Note_on_c, 4, 74, 87
11, 17505, Note_off_c, 4, 74, 64
11, 17522, Note_on_c, 4, 71, 80
11, 17771, Note_off_c, 4, 71, 64
11, 23752, Note_on_c, 4, 74, 63
11, 23808, Note_on_c, 4, 78, 54
11, 23827, Note_off_c, 4, 74, 64
11, 23873, Note_off_c, 4, 78, 64
11, 23874, Note_on_c, 4, 81, 63
11, 23925, Note_off_c, 4, 81, 64
11, 23930, Note_on_c, 4, 86, 68
11, 23973, Note_off_c, 4, 86, 64
11, 23993, Note_on_c, 4, 80, 64
11, 24034, Note_off_c, 4, 80, 64
11, 24054, Note_on_c, 4, 76, 60
11, 24094, Note_off_c, 4, 76, 64
11, 24120, Note_on_c, 4, 83, 72
11, 24160, Note_off_c, 4, 83, 64
11, 24177, Note_on_c, 4, 76, 55
11, 24213, Note_off_c, 4, 76, 64
11, 24238, Note_on_c, 4, 81, 66
11, 24278, Note_off_c, 4, 81, 64
11, 24295, Note_on_c, 4, 76, 63
11, 24334, Note_off_c, 4, 76, 64
11, 24355, Note_on_c, 4, 80, 63
11, 24392, Note_off_c, 4, 80, 64
11, 24412, Note_on_c, 4, 76, 62
11, 24448, Note_off_c, 4, 76, 64
11, 24473, Note_on_c, 4, 81, 63
11, 24498, Note_on_c, 4, 80, 64
11, 24523, Note_off_c, 4, 81, 64
11, 24527, Note_on_c, 4, 78, 55
11, 24556, Note_off_c, 4, 80, 64
11, 24557, Note_on_c, 4, 76, 61
11, 24575, Note_off_c, 4, 78, 64
11, 24582, Note_on_c, 4, 74, 60
11, 24587, Note_off_c, 4, 76, 64
11, 24609, Note_off_c, 4, 74, 64
11, 24609, Note_on_c, 4, 73, 63
11, 24639, Note_on_c, 4, 71, 60
11, 24640, Note_off_c, 4, 73, 64
11, 24670, Note_on_c, 4, 69, 60
11, 24676, Note_off_c, 4, 71, 64
11, 24696, Note_off_c, 4, 69, 64
11, 24702, Note_on_c, 4, 71, 52
11, 24742, Note_off_c, 4, 71, 64
11, 24762, Note_on_c, 4, 74, 60
11, 24801, Note_off_c, 4, 74, 64
11, 24828, Note_on_c, 4, 76, 64
11, 24867, Note_off_c, 4, 76, 64
11, 24895, Note_on_c, 4, 79, 66
11, 24922, Note_off_c, 4, 79, 64
11, 24965, Note_on_c, 4, 85, 66
11, 24999, Note_off_c, 4, 85, 64
11, 25024, Note_on_c, 4, 79, 60
11, 25059, Note_off_c, 4, 79, 64
11, 25087, Note_on_c, 4, 78, 60
11, 25132, Note_off_c, 4, 78, 64
11, 25148, Note_on_c, 4, 76, 66
11, 25172, Note_off_c, 4, 76, 64
11, 25208, Note_on_c, 4, 74, 64
11, 25248, Note_on_c, 4, 71, 53
11, 25252, Note_off_c, 4, 74, 64
11, 25276, Note_on_c, 4, 70, 52
11, 25283, Note_off_c, 4, 71, 64
11, 25301, Note_on_c, 4, 71, 68
11, 25305, Note_off_c, 4, 70, 64
11, 25328, Note_off_c, 4, 71, 64
11, 25330, Note_on_c, 4, 73, 52
11, 25358, Note_off_c, 4, 73, 64
11, 25359, Note_on_c, 4, 74, 76
11, 25389, Note_on_c, 4, 76, 70
11, 25395, Note_off_c, 4, 74, 64
11, 25416, Note_on_c, 4, 78, 57
11, 25418, Note_off_c, 4, 76, 64
11, 25433, Note_off_c, 4, 78, 64
11, 25440, Note_on_c, 4, 76, 63
11, 25473, Note_off_c, 4, 76, 64
11, 25474, Note_on_c, 4, 73, 56
11, 25504, Note_on_c, 4, 71, 58
11, 25505, Note_off_c, 4, 73, 64
11, 25532, Note_on_c, 4, 73, 53
11, 25535, Note_off_c, 4, 71, 64
11, 25559, Note_off_c, 4, 73, 64
11, 25561, Note_on_c, 4, 74, 60
11, 25589, Note_on_c, 4, 76, 70
11, 25591, Note_off_c, 4, 74, 64
11, 25612, Note_on_c, 4, 78, 53
11, 25619, Note_off_c, 4, 76, 64
11, 25639, Note_on_c, 4, 79, 72
11, 25647, Note_off_c, 4, 78, 64
11, 25668, Note_off_c, 4, 79, 64
11, 25676, Note_on_c, 4, 78, 85
11, 25716, Note_off_c, 4, 78, 64
11, 25739, Note_on_c, 4, 83, 70
11, 25771, Note_off_c, 4, 83, 64
11, 25798, Note_on_c, 4, 85, 61
11, 25838, Note_off_c, 4, 85, 64
11, 25859, Note_on_c, 4, 86, 78
11, 25894, Note_off_c, 4, 86, 64
11, 25921, Note_on_c, 4, 88, 78
11, 25957, Note_off_c, 4, 88, 64
11, 25977, Note_on_c, 4, 79, 60
11, 26018, Note_off_c, 4, 79, 64
11, 26038, Note_on_c, 4, 78, 55
11, 26073, Note_off_c, 4, 78, 64
11, 26092, Note_on_c, 4, 76, 58
11, 26125, Note_off_c, 4, 76, 64
11, 26157, Note_on_c, 4, 78, 59
11, 26194, Note_off_c, 4, 78, 64
11, 26215, Note_on_c, 4, 86, 68
11, 26246, Note_off_c, 4, 86, 64
11, 26274, Note_on_c, 4, 76, 60
11, 26310, Note_off_c, 4, 76, 64
11, 26333, Note_on_c, 4, 85, 68
11, 26364, Note_off_c, 4, 85, 64
11, 26392, Note_on_c, 4, 74, 58
11, 26437, Note_off_c, 4, 74, 64
11, 26450, Note_on_c, 4, 83, 52
11, 26475, Note_off_c, 4, 83, 64
11, 26508, Note_on_c, 4, 73, 51
11, 26550, Note_off_c, 4, 73, 64
11, 26566, Note_on_c, 4, 82, 60
11, 26599, Note_off_c, 4, 82, 64
11, 26659, Note_on_c, 4, 71, 46
11, 26708, Note_on_c, 4, 74, 70
11, 26715, Note_off_c, 4, 71, 64
11, 26755, Note_off_c, 4, 74, 64
11, 26758, Note_on_c, 4, 78, 60
11, 26805, Note_off_c, 4, 78, 64
11, 26816, Note_on_c, 4, 83, 66
11, 26860, Note_off_c, 4, 83, 64
11, 26879, Note_on_c, 4, 82, 60
11, 26923, Note_off_c, 4, 82, 64
11, 26939, Note_on_c, 4, 78, 52
11, 26970, Note_off_c, 4, 78, 64
11, 26997, Note_on_c, 4, 83, 70
11, 27039, Note_off_c, 4, 83, 64
11, 27054, Note_on_c, 4, 78, 57
11, 27089, Note_off_c, 4, 78, 64
11, 27119, Note_on_c, 4, 85, 66
11, 27164, Note_off_c, 4, 85, 64
11, 27176, Note_on_c, 4, 78, 57
11, 27205, Note_off_c, 4, 78, 64
11, 27235, Note_on_c, 4, 85, 63
11, 27277, Note_off_c, 4, 85, 64
11, 27293, Note_on_c, 4, 86, 80
11, 27328, Note_off_c, 4, 86, 64
11, 27362, Note_on_c, 4, 88, 68
11, 27388, Note_on_c, 4, 86, 68
11, 27406, Note_off_c, 4, 88, 64
11, 27420, Note_on_c, 4, 85, 53
11, 27433, Note_off_c, 4, 86, 64
11, 27447, Note_on_c, 4, 83, 58
11, 27455, Note_off_c, 4, 85, 64
11, 27479, Note_on_c, 4, 82, 53
11, 27480, Note_off_c, 4, 83, 64
11, 27507, Note_off_c, 4, 82, 64
11, 27532, Note_on_c, 4, 79, 68
11, 27575, Note_off_c, 4, 79, 64
11, 27594, Note_on_c, 4, 78, 53
11, 27627, Note_off_c, 4, 78, 64
11, 27660, Note_on_c, 4, 88, 68
11, 27695, Note_off_c, 4, 88, 64
11, 27721, Note_on_c, 4, 86, 64
11, 27761, Note_off_c, 4, 86, 64
11, 27779, Note_on_c, 4, 83, 66
11, 27812, Note_off_c, 4, 83, 64
11, 27838, Note_on_c, 4, 84, 70
11, 27884, Note_off_c, 4, 84, 64
11, 27894, Note_on_c, 4, 81, 52
11, 27919, Note_off_c, 4, 81, 64
11, 27951, Note_on_c, 4, 75, 56
11, 27987, Note_off_c, 4, 75, 64
11, 28010, Note_on_c, 4, 84, 70
11, 28034, Note_off_c, 4, 84, 64
11, 28077, Note_on_c, 4, 83, 82
11, 28106, Note_on_c, 4, 81, 70
11, 28124, Note_off_c, 4, 83, 64
11, 28136, Note_on_c, 4, 79, 56
11, 28156, Note_off_c, 4, 81, 64
11, 28160, Note_on_c, 4, 78, 45
11, 28172, Note_off_c, 4, 79, 64
11, 28196, Note_off_c, 4, 78, 64
11, 28197, Note_on_c, 4, 76, 66
11, 28234, Note_off_c, 4, 76, 64
11, 28255, Note_on_c, 4, 79, 63
11, 28295, Note_off_c, 4, 79, 64
11, 28315, Note_on_c, 4, 78, 53
11, 28353, Note_off_c, 4, 78, 64
11, 28376, Note_on_c, 4, 73, 59
11, 28409, Note_off_c, 4, 73, 64
11, 28438, Note_on_c, 4, 74, 62
11, 28479, Note_off_c, 4, 74, 64
11, 28497, Note_on_c, 4, 71, 63
11, 28536, Note_off_c, 4, 71, 64
11, 28558, Note_on_c, 4, 73, 62
11, 28601, Note_off_c, 4, 73, 64
11, 28619, Note_on_c, 4, 76, 31
11, 28661, Note_off_c, 4, 76, 64
11, 28680, Note_on_c, 4, 78, 52
11, 28718, Note_off_c, 4, 78, 64
11, 28740, Note_on_c, 4, 82, 60
11, 28774, Note_off_c, 4, 82, 64
11, 28800, Note_on_c, 4, 83, 70
11, 28836, Note_off_c, 4, 83, 64
11, 28857, Note_on_c, 4, 78, 53
11, 28895, Note_off_c, 4, 78, 64
11, 28916, Note_on_c, 4, 76, 54
11, 28953, Note_off_c, 4, 76, 64
11, 28974, Note_on_c, 4, 78, 58
11, 29011, Note_off_c, 4, 78, 64
11, 29040, Note_on_c, 4, 74, 70
11, 29080, Note_off_c, 4, 74, 64
11, 29099, Note_on_c, 4, 78, 55
11, 29126, Note_on_c, 4, 76, 64
11, 29140, Note_off_c, 4, 78, 64
11, 29153, Note_on_c, 4, 74, 63
11, 29155, Note_off_c, 4, 76, 64
11, 29178, Note_off_c, 4, 74, 64
11, 29183, Note_on_c, 4, 73, 62
11, 29208, Note_on_c, 4, 71, 64
11, 29210, Note_off_c, 4, 73, 64
11, 29236, Note_on_c, 4, 70, 59
11, 29241, Note_off_c, 4, 71, 64
11, 29265, Note_off_c, 4, 70, 64
11, 29272, Note_on_c, 4, 71, 62
11, 29308, Note_off_c, 4, 71, 64
11, 29329, Note_on_c, 4, 79, 60
11, 29366, Note_off_c, 4, 79, 64
11, 29393, Note_on_c, 4, 78, 48
11, 29431, Note_off_c, 4, 78, 64
11, 29453, Note_on_c, 4, 76, 55
11, 29485, Note_off_c, 4, 76, 64
11, 35280, Note_on_c, 4, 83, 110
11, 35437, Note_off_c, 4, 83, 64
11, 35473, Note_on_c, 4, 86, 102
11, 35507, Note_off_c, 4, 86, 64
11, 35514, Note_on_c, 4, 85, 100
11, 35555, Note_off_c, 4, 85, 64
11, 35634, Note_on_c, 4, 83, 93
11, 35679, Note_off_c, 4, 83, 64
11, 35753, Note_on_c, 4, 83, 102
11, 35819, Note_on_c, 4, 82, 100
11, 35822, Note_off_c, 4, 83, 64
11, 35935, Note_off_c, 4, 82, 64
11, 35936, Note_on_c, 4, 83, 72
11, 35961, Note_on_c, 4, 85, 61
11, 35966, Note_off_c, 4, 83, 64
11, 35986, Note_off_c, 4, 85, 64
11, 36008, Note_on_c, 4, 83, 52
11, 36167, Note_off_c, 4, 83, 64
11, 36205, Note_on_c, 4, 86, 66
11, 36235, Note_off_c, 4, 86, 64
11, 36237, Note_on_c, 4, 85, 61
11, 36277, Note_off_c, 4, 85, 64
11, 36356, Note_on_c, 4, 83, 59
11, 36397, Note_off_c, 4, 83, 64
11, 36471, Note_on_c, 4, 85, 62
11, 36533, Note_on_c, 4, 83, 66
11, 36541, Note_off_c, 4, 85, 64
11, 36592, Note_off_c, 4, 83, 64
11, 36596, Note_on_c, 4, 82, 55
11, 36623, Note_off_c, 4, 82, 64
11, 36651, Note_on_c, 4, 85, 54
11, 36670, Note_off_c, 4, 85, 64
11, 36724, Note_on_c, 4, 83, 110
11, 36880, Note_off_c, 4, 83, 64
11, 36916, Note_on_c, 4, 86, 91
11, 36949, Note_off_c, 4, 86, 64
11, 36951, Note_on_c, 4, 85, 102
11, 36995, Note_off_c, 4, 85, 64
11, 37068, Note_on_c, 4, 83, 85
11, 37111, Note_off_c, 4, 83, 64
11, 37190, Note_on_c, 4, 81, 87
11, 37236, Note_off_c, 4, 81, 64
11, 37311, Note_on_c, 4, 79, 89
11, 37359, Note_off_c, 4, 79, 64
11, 37429, Note_on_c, 4, 79, 89
11, 37472, Note_on_c, 4, 78, 87
11, 37474, Note_off_c, 4, 79, 64
11, 37491, Note_off_c, 4, 78, 64
11, 37491, Note_on_c, 4, 79, 76
11, 37508, Note_on_c, 4, 78, 63
11, 37510, Note_off_c, 4, 79, 64
11, 37520, Note_on_c, 4, 79, 76
11, 37523, Note_off_c, 4, 78, 64
11, 37535, Note_on_c, 4, 78, 70
11, 37542, Note_off_c, 4, 79, 64
11, 37554, Note_on_c, 4, 76, 76
11, 37561, Note_off_c, 4, 78, 64
11, 37606, Note_on_c, 4, 78, 80
11, 37613, Note_off_c, 4, 76, 64
11, 37657, Note_off_c, 4, 78, 64
11, 37674, Note_on_c, 4, 74, 80
11, 37922, Note_off_c, 4, 74, 64
11, 38159, Note_on_c, 4, 83, 107
11, 38319, Note_off_c, 4, 83, 64
11, 38358, Note_on_c, 4, 86, 100
11, 38393, Note_off_c, 4, 86, 64
11, 38399, Note_on_c, 4, 85, 105
11, 38444, Note_off_c, 4, 85, 64
11, 38519, Note_on_c, 4, 83, 95
11, 38566, Note_off_c, 4, 83, 64
11, 38632, Note_on_c, 4, 83, 100
11, 38676, Note_on_c, 4, 82, 82
11, 38679, Note_off_c, 4, 83, 64
11, 38695, Note_off_c, 4, 82, 64
11, 38696, Note_on_c, 4, 83, 70
11, 38713, Note_on_c, 4, 82, 70
11, 38716, Note_off_c, 4, 83, 64
11, 38728, Note_on_c, 4, 83, 74
11, 38732, Note_off_c, 4, 82, 64
11, 38755, Note_on_c, 4, 82, 28
11, 38767, Note_off_c, 4, 83, 64
11, 38818, Note_on_c, 4, 83, 70
11, 38823, Note_off_c, 4, 82, 64
11, 38842, Note_on_c, 4, 85, 60
11, 38845, Note_off_c, 4, 83, 64
11, 38867, Note_off_c, 4, 85, 64
11, 38881, Note_on_c, 4, 83, 52
11, 39033, Note_off_c, 4, 83, 64
11, 39080, Note_on_c, 4, 86, 70
11, 39111, Note_off_c, 4, 86, 64
11, 39116, Note_on_c, 4, 85, 57
11, 39160, Note_off_c, 4, 85, 64
11, 39230, Note_on_c, 4, 83, 57
11, 39274, Note_off_c, 4, 83, 64
11, 39349, Note_on_c, 4, 85, 59
11, 39410, Note_on_c, 4, 83, 60
11, 39413, Note_off_c, 4, 85, 64
11, 39470, Note_off_c, 4, 83, 64
11, 39474, Note_on_c, 4, 82, 53
11, 39506, Note_off_c, 4, 82, 64
11, 39537, Note_on_c, 4, 85, 61
11, 39557, Note_off_c, 4, 85, 64
11, 39602, Note_on_c, 4, 83, 102
11, 39754, Note_off_c, 4, 83, 64
11, 39798, Note_on_c, 4, 86, 93
11, 39832, Note_off_c, 4, 86, 64
11, 39835, Note_on_c, 4, 85, 93
11, 39877, Note_off_c, 4, 85, 64
11, 39954, Note_on_c, 4, 83, 87
11, 39995, Note_off_c, 4, 83, 64
11, 40075, Note_on_c, 4, 81, 89
11, 40119, Note_off_c, 4, 81, 64
11, 40194, Note_on_c, 4, 79, 85
11, 40245, Note_off_c, 4, 79, 64
11, 40312, Note_on_c, 4, 79, 85
11, 40360, Note_on_c, 4, 78, 68
11, 40362, Note_off_c, 4, 79, 64
11, 40378, Note_on_c, 4, 79, 68
11, 40379, Note_off_c, 4, 78, 64
11, 40396, Note_on_c, 4, 78, 59
11, 40409, Note_off_c, 4, 78, 64
11, 40423, Note_on_c, 4, 78, 62
11, 40426, Note_off_c, 4, 79, 64
11, 40438, Note_on_c, 4, 76, 72
11, 40448, Note_off_c, 4, 78, 64
11, 40489, Note_on_c, 4, 78, 62
11, 40499, Note_off_c, 4, 76, 64
11, 40541, Note_off_c, 4, 78, 64
11, 40557, Note_on_c, 4, 74, 85
11, 40802, Note_off_c, 4, 74, 64
11, 40802, End_track
0, 0, End_of_file
