0, 0, Header, 1, 25, 240
1, 0, Start_track
1, 0, Time_signature, 3, 2, 24, 8
1, 0, Tempo, 681818
1, 68448, Tempo, 789474
1, 68676, Tempo, 857143
1, 68844, Tempo, 1000000
1, 69120, Tempo, 681818
1, 69120, End_track
2, 0, Start_track
2, 0, Title_t, "Trumpet"
2, 0, Program_c, 0, 56
2, 0, Control_c, 0, 7, 127
2, 352, Note_on_c, 0, 78, 100
2, 392, Note_off_c, 0, 78, 64
2, 408, Note_on_c, 0, 76, 91
2, 448, Note_off_c, 0, 76, 64
2, 469, Note_on_c, 0, 78, 87
2, 517, Note_off_c, 0, 78, 64
2, 592, Note_on_c, 0, 79, 87
2, 632, Note_off_c, 0, 79, 64
2, 716, Note_on_c, 0, 76, 100
2, 815, Note_off_c, 0, 76, 64
2, 830, Note_on_c, 0, 74, 87
2, 874, Note_off_c, 0, 74, 64
2, 885, Note_on_c, 0, 73, 82
2, 928, Note_off_c, 0, 73, 64
2, 943, Note_on_c, 0, 74, 85
2, 982, Note_off_c, 0, 74, 64
2, 1001, Note_on_c, 0, 76, 91
2, 1034, Note_off_c, 0, 76, 64
2, 1063, Note_on_c, 0, 78, 85
2, 1104, Note_off_c, 0, 78, 64
2, 1120, Note_on_c, 0, 79, 91
2, 1160, Note_off_c, 0, 79, 64
2, 1182, Note_on_c, 0, 81, 95
2, 1230, Note_off_c, 0, 81, 64
2, 1303, Note_on_c, 0, 83, 85
2, 1353, Note_off_c, 0, 83, 64
2, 1422, Note_on_c, 0, 81, 102
2, 1452, Note_on_c, 0, 79, 87
2, 1454, Note_off_c, 0, 81, 64
2, 1478, Note_on_c, 0, 81, 85
2, 1480, Note_off_c, 0, 79, 64
2, 1503, Note_on_c, 0, 79, 89
2, 1512, Note_off_c, 0, 81, 64
2, 1542, Note_off_c, 0, 79, 64
2, 1548, Note_on_c, 0, 78, 85
2, 1687, Note_off_c, 0, 78, 64
2, 18350, Note_on_c, 0, 81, 95
2, 18400, Note_off_c, 0, 81, 64
2, 18472, Note_on_c, 0, 74, 85
2, 18520, Note_off_c, 0, 74, 64
2, 18593, Note_on_c, 0, 76, 91
2, 18631, Note_off_c, 0, 76, 64
2, 18713, Note_on_c, 0, 76, 93
2, 18759, Note_on_c, 0, 78, 82
2, 18764, Note_off_c, 0, 76, 64
2, 18791, Note_off_c, 0, 78, 64
2, 18834, Note_on_c, 0, 76, 102
2, 18975, Note_off_c, 0, 76, 64
2, 44270, Note_on_c, 0, 81, 95
2, 44320, Note_off_c, 0, 81, 64
2, 44392, Note_on_c, 0, 74, 85
2, 44440, Note_off_c, 0, 74, 64
2, 44513, Note_on_c, 0, 76, 91
2, 44551, Note_off_c, 0, 76, 64
2, 44633, Note_on_c, 0, 76, 93
2, 44679, Note_on_c, 0, 78, 82
2, 44684, Note_off_c, 0, 76, 64
2, 44711, Note_off_c, 0, 78, 64
2, 44754, Note_on_c, 0, 76, 102
2, 44895, Note_off_c, 0, 76, 64
2, 44895, End_track
3, 0, Start_track
3, 0, Title_t, "Trumpet"
3, 0, Program_c, 1, 56
3, 0, Control_c, 1, 7, 127
3, 352, Note_on_c, 1, 74, 93
3, 404, Note_off_c, 1, 74, 64
3, 466, Note_on_c, 1, 74, 82
3, 517, Note_off_c, 1, 74, 64
3, 586, Note_on_c, 1, 76, 91
3, 632, Note_off_c, 1, 76, 64
3, 713, Note_on_c, 1, 69, 89
3, 752, Note_off_c, 1, 69, 64
3, 837, Note_on_c, 1, 69, 100
3, 991, Note_off_c, 1, 69, 64
3, 1061, Note_on_c, 1, 69, 98
3, 1110, Note_off_c, 1, 69, 64
3, 1176, Note_on_c, 1, 74, 93
3, 1220, Note_off_c, 1, 74, 64
3, 1300, Note_on_c, 1, 79, 93
3, 1347, Note_off_c, 1, 79, 64
3, 1418, Note_on_c, 1, 78, 102
3, 1447, Note_on_c, 1, 76, 100
3, 1449, Note_off_c, 1, 78, 64
3, 1475, Note_on_c, 1, 78, 80
3, 1477, Note_off_c, 1, 76, 64
3, 1500, Note_on_c, 1, 76, 85
3, 1506, Note_off_c, 1, 78, 64
3, 1536, Note_off_c, 1, 76, 64
3, 1549, Note_on_c, 1, 74, 100
3, 1734, Note_off_c, 1, 74, 64
3, 18353, Note_on_c, 1, 78, 87
3, 18400, Note_off_c, 1, 78, 64
3, 18472, Note_on_c, 1, 74, 85
3, 18516, Note_off_c, 1, 74, 64
3, 18586, Note_on_c, 1, 69, 80
3, 18635, Note_off_c, 1, 69, 64
3, 18714, Note_on_c, 1, 69, 85
3, 18758, Note_off_c, 1, 69, 64
3, 18838, Note_on_c, 1, 69, 100
3, 18983, Note_off_c, 1, 69, 64
3, 44273, Note_on_c, 1, 78, 87
3, 44320, Note_off_c, 1, 78, 64
3, 44392, Note_on_c, 1, 74, 85
3, 44436, Note_off_c, 1, 74, 64
3, 44506, Note_on_c, 1, 69, 80
3, 44555, Note_off_c, 1, 69, 64
3, 44634, Note_on_c, 1, 69, 85
3, 44678, Note_off_c, 1, 69, 64
3, 44758, Note_on_c, 1, 69, 100
3, 44903, Note_off_c, 1, 69, 64
3, 44903, End_track
4, 0, Start_track
4, 0, Title_t, "Trumpet"
4, 0, Program_c, 2, 56
4, 0, Control_c, 2, 7, 127
4, 359, Note_on_c, 2, 69, 110
4, 384, Note_off_c, 2, 69, 64
4, 408, Note_on_c, 2, 69, 98
4, 436, Note_off_c, 2, 69, 64
4, 475, Note_on_c, 2, 69, 102
4, 572, Note_off_c, 2, 69, 64
4, 1076, Note_on_c, 2, 62, 102
4, 1129, Note_off_c, 2, 62, 64
4, 1186, Note_on_c, 2, 69, 107
4, 1225, Note_off_c, 2, 69, 64
4, 1307, Note_on_c, 2, 62, 91
4, 1346, Note_off_c, 2, 62, 64
4, 1426, Note_on_c, 2, 69, 113
4, 1460, Note_off_c, 2, 69, 64
4, 1552, Note_on_c, 2, 69, 113
4, 1706, Note_off_c, 2, 69, 64
4, 18355, Note_on_c, 2, 74, 93
4, 18408, Note_off_c, 2, 74, 64
4, 18472, Note_on_c, 2, 69, 82
4, 18523, Note_off_c, 2, 69, 64
4, 18592, Note_on_c, 2, 69, 78
4, 18645, Note_off_c, 2, 69, 64
4, 18712, Note_on_c, 2, 66, 85
4, 18745, Note_off_c, 2, 66, 64
4, 18773, Note_on_c, 2, 62, 107
4, 18810, Note_off_c, 2, 62, 64
4, 18833, Note_on_c, 2, 69, 102
4, 18987, Note_off_c, 2, 69, 64
4, 44275, Note_on_c, 2, 74, 93
4, 44328, Note_off_c, 2, 74, 64
4, 44392, Note_on_c, 2, 69, 82
4, 44443, Note_off_c, 2, 69, 64
4, 44512, Note_on_c, 2, 69, 78
4, 44565, Note_off_c, 2, 69, 64
4, 44632, Note_on_c, 2, 66, 85
4, 44665, Note_off_c, 2, 66, 64
4, 44693, Note_on_c, 2, 62, 107
4, 44730, Note_off_c, 2, 62, 64
4, 44753, Note_on_c, 2, 69, 102
4, 44907, Note_off_c, 2, 69, 64
4, 44907, End_track
5, 0, Start_track
5, 0, Title_t, "Timpani"
5, 0, Program_c, 3, 47
5, 0, Control_c, 3, 7, 100
5, 368, Note_on_c, 3, 50, 107
5, 395, Note_off_c, 3, 50, 64
5, 421, Note_on_c, 3, 50, 100
5, 448, Note_off_c, 3, 50, 64
5, 477, Note_on_c, 3, 50, 107
5, 517, Note_off_c, 3, 50, 64
5, 1067, Note_on_c, 3, 50, 110
5, 1090, Note_off_c, 3, 50, 64
5, 1119, Note_on_c, 3, 50, 95
5, 1146, Note_off_c, 3, 50, 64
5, 1175, Note_on_c, 3, 50, 102
5, 1208, Note_off_c, 3, 50, 64
5, 1299, Note_on_c, 3, 50, 116
5, 1333, Note_off_c, 3, 50, 64
5, 1423, Note_on_c, 3, 45, 119
5, 1459, Note_off_c, 3, 45, 64
5, 1540, Note_on_c, 3, 50, 116
5, 1576, Note_off_c, 3, 50, 64
5, 18362, Note_on_c, 3, 50, 105
5, 18390, Note_off_c, 3, 50, 64
5, 18416, Note_on_c, 3, 50, 91
5, 18445, Note_off_c, 3, 50, 64
5, 18470, Note_on_c, 3, 50, 95
5, 18505, Note_off_c, 3, 50, 64
5, 18598, Note_on_c, 3, 45, 119
5, 18636, Note_off_c, 3, 45, 64
5, 18714, Note_on_c, 3, 50, 116
5, 18746, Note_off_c, 3, 50, 64
5, 18842, Note_on_c, 3, 45, 113
5, 18888, Note_off_c, 3, 45, 64
5, 44282, Note_on_c, 3, 50, 105
5, 44310, Note_off_c, 3, 50, 64
5, 44336, Note_on_c, 3, 50, 91
5, 44365, Note_off_c, 3, 50, 64
5, 44390, Note_on_c, 3, 50, 95
5, 44425, Note_off_c, 3, 50, 64
5, 44518, Note_on_c, 3, 45, 119
5, 44556, Note_off_c, 3, 45, 64
5, 44634, Note_on_c, 3, 50, 116
5, 44666, Note_off_c, 3, 50, 64
5, 44762, Note_on_c, 3, 45, 113
5, 44808, Note_off_c, 3, 45, 64
5, 44808, End_track
6, 0, Start_track
6, 0, Title_t, "Oboe"
6, 0, Program_c, 4, 68
6, 0, Control_c, 4, 7, 100
6, 362, Note_on_c, 4, 78, 102
6, 406, Note_off_c, 4, 78, 64
6, 410, Note_on_c, 4, 76, 87
6, 457, Note_off_c, 4, 76, 64
6, 474, Note_on_c, 4, 78, 100
6, 534, Note_off_c, 4, 78, 64
6, 598, Note_on_c, 4, 79, 87
6, 658, Note_off_c, 4, 79, 64
6, 710, Note_on_c, 4, 78, 102
6, 737, Note_off_c, 4, 78, 64
6, 737, Note_on_c, 4, 76, 82
6, 766, Note_on_c, 4, 78, 78
6, 770, Note_off_c, 4, 76, 64
6, 796, Note_on_c, 4, 76, 80
6, 812, Note_off_c, 4, 78, 64
6, 832, Note_on_c, 4, 74, 70
6, 840, Note_off_c, 4, 76, 64
6, 887, Note_off_c, 4, 74, 64
6, 890, Note_on_c, 4, 73, 80
6, 941, Note_off_c, 4, 73, 64
6, 953, Note_on_c, 4, 74, 82
6, 1001, Note_off_c, 4, 74, 64
6, 1014, Note_on_c, 4, 76, 85
6, 1050, Note_off_c, 4, 76, 64
6, 1073, Note_on_c, 4, 78, 82
6, 1112, Note_off_c, 4, 78, 64
6, 1134, Note_on_c, 4, 79, 87
6, 1177, Note_off_c, 4, 79, 64
6, 1200, Note_on_c, 4, 81, 98
6, 1259, Note_off_c, 4, 81, 64
6, 1320, Note_on_c, 4, 83, 89
6, 1380, Note_off_c, 4, 83, 64
6, 1444, Note_on_c, 4, 81, 95
6, 1471, Note_off_c, 4, 81, 64
6, 1471, Note_on_c, 4, 79, 98
6, 1497, Note_on_c, 4, 81, 70
6, 1501, Note_off_c, 4, 79, 64
6, 1522, Note_on_c, 4, 79, 80
6, 1529, Note_off_c, 4, 81, 64
6, 1560, Note_off_c, 4, 79, 64
6, 1560, Note_on_c, 4, 78, 82
6, 1692, Note_off_c, 4, 78, 64
6, 1810, Note_on_c, 4, 76, 87
6, 1860, Note_off_c, 4, 76, 64
6, 1864, Note_on_c, 4, 74, 85
6, 1913, Note_off_c, 4, 74, 64
6, 1923, Note_on_c, 4, 76, 87
6, 1964, Note_off_c, 4, 76, 64
6, 1978, Note_on_c, 4, 78, 87
6, 2018, Note_off_c, 4, 78, 64
6, 2042, Note_on_c, 4, 78, 87
6, 2092, Note_off_c, 4, 78, 64
6, 2150, Note_on_c, 4, 76, 68
6, 2185, Note_on_c, 4, 74, 85
6, 2193, Note_off_c, 4, 76, 64
6, 2212, Note_off_c, 4, 74, 64
6, 2220, Note_on_c, 4, 76, 72
6, 2243, Note_on_c, 4, 74, 80
6, 2265, Note_off_c, 4, 76, 64
6, 2272, Note_on_c, 4, 73, 70
6, 2283, Note_off_c, 4, 74, 64
6, 2324, Note_off_c, 4, 73, 64
6, 2325, Note_on_c, 4, 71, 87
6, 2378, Note_off_c, 4, 71, 64
6, 2392, Note_on_c, 4, 73, 78
6, 2439, Note_off_c, 4, 73, 64
6, 2445, Note_on_c, 4, 74, 80
6, 2488, Note_off_c, 4, 74, 64
6, 2504, Note_on_c, 4, 76, 80
6, 2546, Note_off_c, 4, 76, 64
6, 2565, Note_on_c, 4, 78, 91
6, 2604, Note_off_c, 4, 78, 64
6, 2631, Note_on_c, 4, 80, 87
6, 2677, Note_off_c, 4, 80, 64
6, 2748, Note_on_c, 4, 81, 82
6, 2798, Note_off_c, 4, 81, 64
6, 2869, Note_on_c, 4, 73, 87
6, 2898, Note_on_c, 4, 71, 80
6, 2899, Note_off_c, 4, 73, 64
6, 2931, Note_off_c, 4, 71, 64
6, 2932, Note_on_c, 4, 73, 80
6, 2956, Note_on_c, 4, 71, 82
6, 2970, Note_off_c, 4, 73, 64
6, 2983, Note_on_c, 4, 69, 68
6, 2994, Note_off_c, 4, 71, 64
6, 3039, Note_on_c, 4, 68, 85
6, 3042, Note_off_c, 4, 69, 64
6, 3083, Note_off_c, 4, 68, 64
6, 3101, Note_on_c, 4, 69, 70
6, 3154, Note_off_c, 4, 69, 64
6, 3160, Note_on_c, 4, 71, 66
6, 3203, Note_off_c, 4, 71, 64
6, 3222, Note_on_c, 4, 73, 58
6, 3261, Note_off_c, 4, 73, 64
6, 3282, Note_on_c, 4, 74, 78
6, 3325, Note_off_c, 4, 74, 64
6, 3345, Note_on_c, 4, 76, 78
6, 3399, Note_off_c, 4, 76, 64
6, 3466, Note_on_c, 4, 78, 80
6, 3506, Note_off_c, 4, 78, 64
6, 3585, Note_on_c, 4, 69, 66
6, 3619, Note_on_c, 4, 68, 93
6, 3625, Note_off_c, 4, 69, 64
6, 3647, Note_off_c, 4, 68, 64
6, 3649, Note_on_c, 4, 69, 72
6, 3678, Note_on_c, 4, 68, 74
6, 3697, Note_off_c, 4, 69, 64
6, 3710, Note_on_c, 4, 66, 66
6, 3723, Note_off_c, 4, 68, 64
6, 3765, Note_off_c, 4, 66, 64
6, 3767, Note_on_c, 4, 64, 76
6, 3810, Note_off_c, 4, 64, 64
6, 3835, Note_on_c, 4, 74, 80
6, 3919, Note_off_c, 4, 74, 64
6, 4069, Note_on_c, 4, 73, 85
6, 4171, Note_off_c, 4, 73, 64
6, 4419, Note_on_c, 4, 74, 85
6, 4480, Note_off_c, 4, 74, 64
6, 4533, Note_on_c, 4, 73, 95
6, 4555, Note_on_c, 4, 71, 87
6, 4563, Note_off_c, 4, 73, 64
6, 4591, Note_on_c, 4, 73, 78
6, 4594, Note_off_c, 4, 71, 64
6, 4620, Note_on_c, 4, 71, 82
6, 4638, Note_off_c, 4, 73, 64
6, 4653, Note_on_c, 4, 69, 66
6, 4665, Note_off_c, 4, 71, 64
6, 4707, Note_off_c, 4, 69, 64
6, 4723, Note_on_c, 4, 68, 102
6, 4753, Note_off_c, 4, 68, 64
6, 4787, Note_on_c, 4, 78, 102
6, 4878, Note_off_c, 4, 78, 64
6, 5014, Note_on_c, 4, 76, 89
6, 5120, Note_off_c, 4, 76, 64
6, 5383, Note_on_c, 4, 78, 85
6, 5436, Note_off_c, 4, 78, 64
6, 5501, Note_on_c, 4, 76, 85
6, 5532, Note_off_c, 4, 76, 64
6, 5534, Note_on_c, 4, 74, 85
6, 5557, Note_on_c, 4, 76, 66
6, 5568, Note_off_c, 4, 74, 64
6, 5594, Note_off_c, 4, 76, 64
6, 5594, Note_on_c, 4, 74, 80
6, 5646, Note_off_c, 4, 74, 64
6, 5647, Note_on_c, 4, 73, 63
6, 5697, Note_off_c, 4, 73, 64
6, 5699, Note_on_c, 4, 71, 80
6, 5743, Note_off_c, 4, 71, 64
6, 5769, Note_on_c, 4, 81, 95
6, 5871, Note_off_c, 4, 81, 64
6, 5996, Note_on_c, 4, 80, 102
6, 6084, Note_off_c, 4, 80, 64
6, 6115, Note_on_c, 4, 81, 85
6, 6161, Note_off_c, 4, 81, 64
6, 6165, Note_on_c, 4, 83, 66
6, 6195, Note_off_c, 4, 83, 64
6, 6225, Note_on_c, 4, 76, 85
6, 6282, Note_off_c, 4, 76, 64
6, 6355, Note_on_c, 4, 74, 87
6, 6407, Note_off_c, 4, 74, 64
6, 6473, Note_on_c, 4, 74, 85
6, 6481, Note_on_c, 4, 76, 48
6, 6492, Note_off_c, 4, 76, 64
6, 6504, Note_off_c, 4, 74, 64
6, 6504, Note_on_c, 4, 73, 51
6, 6524, Note_on_c, 4, 74, 66
6, 6530, Note_off_c, 4, 73, 64
6, 6535, Note_on_c, 4, 76, 42
6, 6546, Note_off_c, 4, 76, 64
6, 6553, Note_on_c, 4, 73, 74
6, 6563, Note_off_c, 4, 74, 64
6, 6590, Note_on_c, 4, 71, 74
6, 6599, Note_off_c, 4, 73, 64
6, 6635, Note_off_c, 4, 71, 64
6, 6659, Note_on_c, 4, 69, 87
6, 6695, Note_off_c, 4, 69, 64
6, 6719, Note_on_c, 4, 71, 72
6, 6777, Note_off_c, 4, 71, 64
6, 6837, Note_on_c, 4, 81, 87
6, 6879, Note_off_c, 4, 81, 64
6, 6888, Note_on_c, 4, 80, 85
6, 6927, Note_off_c, 4, 80, 64
6, 6953, Note_on_c, 4, 81, 89
6, 6999, Note_off_c, 4, 81, 64
6, 7079, Note_on_c, 4, 83, 80
6, 7125, Note_off_c, 4, 83, 64
6, 7200, Note_on_c, 4, 76, 85
6, 7223, Note_on_c, 4, 74, 82
6, 7224, Note_off_c, 4, 76, 64
6, 7252, Note_on_c, 4, 76, 78
6, 7258, Note_off_c, 4, 74, 64
6, 7288, Note_on_c, 4, 74, 80
6, 7292, Note_off_c, 4, 76, 64
6, 7337, Note_on_c, 4, 73, 63
6, 7342, Note_off_c, 4, 74, 64
6, 7386, Note_on_c, 4, 71, 85
6, 7388, Note_off_c, 4, 73, 64
6, 7434, Note_off_c, 4, 71, 64
6, 7449, Note_on_c, 4, 73, 78
6, 7494, Note_off_c, 4, 73, 64
6, 7505, Note_on_c, 4, 74, 72
6, 7550, Note_off_c, 4, 74, 64
6, 7565, Note_on_c, 4, 76, 82
6, 7604, Note_off_c, 4, 76, 64
6, 7620, Note_on_c, 4, 78, 82
6, 7661, Note_off_c, 4, 78, 64
6, 7685, Note_on_c, 4, 80, 74
6, 7738, Note_off_c, 4, 80, 64
6, 7796, Note_on_c, 4, 81, 80
6, 7842, Note_off_c, 4, 81, 64
6, 7906, Note_on_c, 4, 73, 89
6, 7931, Note_on_c, 4, 71, 80
6, 7932, Note_off_c, 4, 73, 64
6, 7963, Note_off_c, 4, 71, 64
6, 7967, Note_on_c, 4, 73, 70
6, 7990, Note_on_c, 4, 71, 82
6, 8009, Note_off_c, 4, 73, 64
6, 8030, Note_on_c, 4, 69, 70
6, 8033, Note_off_c, 4, 71, 64
6, 8076, Note_off_c, 4, 69, 64
6, 8091, Note_on_c, 4, 68, 98
6, 8138, Note_off_c, 4, 68, 64
6, 8153, Note_on_c, 4, 69, 78
6, 8208, Note_off_c, 4, 69, 64
6, 8274, Note_on_c, 4, 71, 82
6, 8321, Note_off_c, 4, 71, 64
6, 8399, Note_on_c, 4, 64, 82
6, 8445, Note_off_c, 4, 64, 64
6, 8516, Note_on_c, 4, 68, 78
6, 8567, Note_off_c, 4, 68, 64
6, 8642, Note_on_c, 4, 69, 87
6, 8889, Note_off_c, 4, 69, 64
6, 17642, Note_on_c, 4, 76, 89
6, 17688, Note_off_c, 4, 76, 64
6, 17690, Note_on_c, 4, 74, 82
6, 17748, Note_off_c, 4, 74, 64
6, 17755, Note_on_c, 4, 76, 89
6, 17809, Note_off_c, 4, 76, 64
6, 17877, Note_on_c, 4, 78, 89
6, 17918, Note_off_c, 4, 78, 64
6, 17993, Note_on_c, 4, 78, 105
6, 18044, Note_on_c, 4, 79, 80
6, 18053, Note_off_c, 4, 78, 64
6, 18093, Note_off_c, 4, 79, 64
6, 18110, Note_on_c, 4, 78, 62
6, 18164, Note_off_c, 4, 78, 64
6, 18166, Note_on_c, 4, 76, 70
6, 18209, Note_off_c, 4, 76, 64
6, 18235, Note_on_c, 4, 78, 100
6, 18292, Note_on_c, 4, 79, 74
6, 18297, Note_off_c, 4, 78, 64
6, 18343, Note_off_c, 4, 79, 64
6, 18355, Note_on_c, 4, 81, 64
6, 18396, Note_off_c, 4, 81, 64
6, 18473, Note_on_c, 4, 74, 76
6, 18520, Note_off_c, 4, 74, 64
6, 18592, Note_on_c, 4, 76, 72
6, 18631, Note_off_c, 4, 76, 64
6, 18713, Note_on_c, 4, 76, 95
6, 18753, Note_on_c, 4, 78, 62
6, 18764, Note_off_c, 4, 76, 64
6, 18791, Note_off_c, 4, 78, 64
6, 18830, Note_on_c, 4, 76, 95
6, 18962, Note_off_c, 4, 76, 64
6, 19088, Note_on_c, 4, 78, 100
6, 19125, Note_off_c, 4, 78, 64
6, 19138, Note_on_c, 4, 76, 87
6, 19181, Note_off_c, 4, 76, 64
6, 19200, Note_on_c, 4, 78, 82
6, 19244, Note_off_c, 4, 78, 64
6, 19315, Note_on_c, 4, 79, 82
6, 19358, Note_off_c, 4, 79, 64
6, 19436, Note_on_c, 4, 79, 105
6, 19491, Note_on_c, 4, 81, 70
6, 19501, Note_off_c, 4, 79, 64
6, 19532, Note_off_c, 4, 81, 64
6, 19555, Note_on_c, 4, 79, 78
6, 19604, Note_off_c, 4, 79, 64
6, 19604, Note_on_c, 4, 78, 63
6, 19648, Note_off_c, 4, 78, 64
6, 19671, Note_on_c, 4, 79, 93
6, 19725, Note_on_c, 4, 81, 80
6, 19727, Note_off_c, 4, 79, 64
6, 19771, Note_off_c, 4, 81, 64
6, 19790, Note_on_c, 4, 83, 80
6, 19833, Note_off_c, 4, 83, 64
6, 19907, Note_on_c, 4, 76, 80
6, 19948, Note_off_c, 4, 76, 64
6, 20025, Note_on_c, 4, 78, 82
6, 20062, Note_off_c, 4, 78, 64
6, 20148, Note_on_c, 4, 78, 102
6, 20185, Note_on_c, 4, 79, 85
6, 20195, Note_off_c, 4, 78, 64
6, 20223, Note_off_c, 4, 79, 64
6, 20264, Note_on_c, 4, 78, 89
6, 20403, Note_off_c, 4, 78, 64
6, 20518, Note_on_c, 4, 79, 93
6, 20560, Note_off_c, 4, 79, 64
6, 20573, Note_on_c, 4, 78, 89
6, 20613, Note_off_c, 4, 78, 64
6, 20632, Note_on_c, 4, 79, 85
6, 20679, Note_off_c, 4, 79, 64
6, 20753, Note_on_c, 4, 81, 78
6, 20796, Note_off_c, 4, 81, 64
6, 20873, Note_on_c, 4, 79, 87
6, 20897, Note_on_c, 4, 78, 64
6, 20905, Note_off_c, 4, 79, 64
6, 20922, Note_off_c, 4, 78, 64
6, 20922, Note_on_c, 4, 79, 60
6, 20952, Note_on_c, 4, 78, 70
6, 20965, Note_off_c, 4, 79, 64
6, 20996, Note_on_c, 4, 76, 74
6, 20997, Note_off_c, 4, 78, 64
6, 21039, Note_off_c, 4, 76, 64
6, 21048, Note_on_c, 4, 75, 62
6, 21095, Note_off_c, 4, 75, 64
6, 21102, Note_on_c, 4, 76, 78
6, 21157, Note_off_c, 4, 76, 64
6, 21158, Note_on_c, 4, 78, 85
6, 21194, Note_off_c, 4, 78, 64
6, 21214, Note_on_c, 4, 79, 72
6, 21265, Note_off_c, 4, 79, 64
6, 21275, Note_on_c, 4, 81, 68
6, 21321, Note_off_c, 4, 81, 64
6, 21343, Note_on_c, 4, 83, 89
6, 21384, Note_off_c, 4, 83, 64
6, 21463, Note_on_c, 4, 84, 70
6, 21513, Note_off_c, 4, 84, 64
6, 21577, Note_on_c, 4, 83, 91
6, 21608, Note_off_c, 4, 83, 64
6, 21611, Note_on_c, 4, 81, 40
6, 21632, Note_on_c, 4, 83, 82
6, 21639, Note_off_c, 4, 81, 64
6, 21665, Note_on_c, 4, 81, 76
6, 21672, Note_off_c, 4, 83, 64
6, 21703, Note_on_c, 4, 79, 74
6, 21706, Note_off_c, 4, 81, 64
6, 21841, Note_off_c, 4, 79, 64
6, 21959, Note_on_c, 4, 78, 87
6, 22002, Note_on_c, 4, 76, 74
6, 22003, Note_off_c, 4, 78, 64
6, 22048, Note_off_c, 4, 76, 64
6, 22071, Note_on_c, 4, 78, 64
6, 22116, Note_off_c, 4, 78, 64
6, 22200, Note_on_c, 4, 79, 82
6, 22251, Note_off_c, 4, 79, 64
6, 22314, Note_on_c, 4, 78, 91
6, 22344, Note_off_c, 4, 78, 64
6, 22348, Note_on_c, 4, 76, 59
6, 22370, Note_on_c, 4, 78, 61
6, 22375, Note_off_c, 4, 76, 64
6, 22397, Note_on_c, 4, 76, 70
6, 22417, Note_off_c, 4, 78, 64
6, 22438, Note_on_c, 4, 74, 62
6, 22444, Note_off_c, 4, 76, 64
6, 22496, Note_on_c, 4, 73, 78
6, 22497, Note_off_c, 4, 74, 64
6, 22540, Note_off_c, 4, 73, 64
6, 22552, Note_on_c, 4, 74, 80
6, 22603, Note_off_c, 4, 74, 64
6, 22611, Note_on_c, 4, 76, 82
6, 22649, Note_off_c, 4, 76, 64
6, 22669, Note_on_c, 4, 78, 82
6, 22718, Note_off_c, 4, 78, 64
6, 22721, Note_on_c, 4, 80, 68
6, 22751, Note_off_c, 4, 80, 64
6, 22788, Note_on_c, 4, 82, 87
6, 22827, Note_off_c, 4, 82, 64
6, 22912, Note_on_c, 4, 83, 82
6, 22957, Note_off_c, 4, 83, 64
6, 23033, Note_on_c, 4, 74, 82
6, 23059, Note_on_c, 4, 73, 66
6, 23063, Note_off_c, 4, 74, 64
6, 23086, Note_off_c, 4, 73, 64
6, 23090, Note_on_c, 4, 74, 78
6, 23117, Note_on_c, 4, 73, 63
6, 23132, Note_off_c, 4, 74, 64
6, 23156, Note_on_c, 4, 71, 80
6, 23159, Note_off_c, 4, 73, 64
6, 23202, Note_off_c, 4, 71, 64
6, 23212, Note_on_c, 4, 70, 68
6, 23255, Note_off_c, 4, 70, 64
6, 23270, Note_on_c, 4, 71, 80
6, 23328, Note_off_c, 4, 71, 64
6, 23328, Note_on_c, 4, 73, 66
6, 23368, Note_off_c, 4, 73, 64
6, 23384, Note_on_c, 4, 74, 70
6, 23440, Note_off_c, 4, 74, 64
6, 23445, Note_on_c, 4, 76, 70
6, 23484, Note_off_c, 4, 76, 64
6, 23510, Note_on_c, 4, 78, 85
6, 23549, Note_off_c, 4, 78, 64
6, 23630, Note_on_c, 4, 79, 82
6, 23669, Note_off_c, 4, 79, 64
6, 23745, Note_on_c, 4, 71, 87
6, 23776, Note_off_c, 4, 71, 64
6, 23776, Note_on_c, 4, 70, 58
6, 23795, Note_on_c, 4, 71, 66
6, 23799, Note_off_c, 4, 70, 64
6, 23822, Note_on_c, 4, 70, 68
6, 23836, Note_off_c, 4, 71, 64
6, 23861, Note_on_c, 4, 68, 60
6, 23873, Note_off_c, 4, 70, 64
6, 23899, Note_off_c, 4, 68, 64
6, 23921, Note_on_c, 4, 66, 66
6, 23972, Note_off_c, 4, 66, 64
6, 23988, Note_on_c, 4, 76, 80
6, 24054, Note_off_c, 4, 76, 64
6, 24234, Note_on_c, 4, 74, 66
6, 24316, Note_off_c, 4, 74, 64
6, 24589, Note_on_c, 4, 76, 85
6, 24638, Note_off_c, 4, 76, 64
6, 24704, Note_on_c, 4, 74, 89
6, 24732, Note_off_c, 4, 74, 64
6, 24734, Note_on_c, 4, 73, 43
6, 24753, Note_on_c, 4, 74, 72
6, 24757, Note_off_c, 4, 73, 64
6, 24780, Note_on_c, 4, 73, 58
6, 24791, Note_off_c, 4, 74, 64
6, 24812, Note_on_c, 4, 71, 60
6, 24818, Note_off_c, 4, 73, 64
6, 24869, Note_off_c, 4, 71, 64
6, 24872, Note_on_c, 4, 70, 78
6, 24916, Note_off_c, 4, 70, 64
6, 24943, Note_on_c, 4, 79, 89
6, 25015, Note_off_c, 4, 79, 64
6, 25190, Note_on_c, 4, 78, 57
6, 25274, Note_off_c, 4, 78, 64
6, 25556, Note_on_c, 4, 79, 78
6, 25603, Note_off_c, 4, 79, 64
6, 25658, Note_on_c, 4, 78, 100
6, 25680, Note_on_c, 4, 76, 60
6, 25683, Note_off_c, 4, 78, 64
6, 25709, Note_on_c, 4, 78, 62
6, 25715, Note_off_c, 4, 76, 64
6, 25737, Note_on_c, 4, 76, 68
6, 25754, Note_off_c, 4, 78, 64
6, 25778, Note_on_c, 4, 74, 58
6, 25782, Note_off_c, 4, 76, 64
6, 25833, Note_on_c, 4, 73, 70
6, 25839, Note_off_c, 4, 74, 64
6, 25867, Note_off_c, 4, 73, 64
6, 25911, Note_on_c, 4, 83, 70
6, 26000, Note_off_c, 4, 83, 64
6, 26158, Note_on_c, 4, 82, 74
6, 26255, Note_off_c, 4, 82, 64
6, 26274, Note_on_c, 4, 83, 66
6, 26322, Note_off_c, 4, 83, 64
6, 26328, Note_on_c, 4, 85, 61
6, 26359, Note_off_c, 4, 85, 64
6, 26397, Note_on_c, 4, 78, 76
6, 26443, Note_off_c, 4, 78, 64
6, 26513, Note_on_c, 4, 76, 74
6, 26569, Note_off_c, 4, 76, 64
6, 26634, Note_on_c, 4, 76, 80
6, 26657, Note_on_c, 4, 74, 64
6, 26661, Note_off_c, 4, 76, 64
6, 26683, Note_on_c, 4, 76, 57
6, 26690, Note_off_c, 4, 74, 64
6, 26713, Note_on_c, 4, 74, 66
6, 26719, Note_off_c, 4, 76, 64
6, 26747, Note_on_c, 4, 73, 61
6, 26752, Note_off_c, 4, 74, 64
6, 26784, Note_off_c, 4, 73, 64
6, 26809, Note_on_c, 4, 71, 66
6, 26845, Note_off_c, 4, 71, 64
6, 26871, Note_on_c, 4, 73, 78
6, 26912, Note_off_c, 4, 73, 64
6, 26992, Note_on_c, 4, 83, 78
6, 27034, Note_off_c, 4, 83, 64
6, 27044, Note_on_c, 4, 82, 64
6, 27087, Note_off_c, 4, 82, 64
6, 27111, Note_on_c, 4, 83, 68
6, 27160, Note_off_c, 4, 83, 64
6, 27238, Note_on_c, 4, 85, 68
6, 27285, Note_off_c, 4, 85, 64
6, 27358, Note_on_c, 4, 78, 85
6, 27380, Note_on_c, 4, 76, 70
6, 27386, Note_off_c, 4, 78, 64
6, 27410, Note_on_c, 4, 78, 57
6, 27411, Note_off_c, 4, 76, 64
6, 27438, Note_on_c, 4, 76, 68
6, 27455, Note_off_c, 4, 78, 64
6, 27467, Note_on_c, 4, 74, 64
6, 27475, Note_off_c, 4, 76, 64
6, 27521, Note_off_c, 4, 74, 64
6, 27525, Note_on_c, 4, 73, 78
6, 27567, Note_off_c, 4, 73, 64
6, 27587, Note_on_c, 4, 74, 68
6, 27647, Note_off_c, 4, 74, 64
6, 27647, Note_on_c, 4, 76, 76
6, 27687, Note_off_c, 4, 76, 64
6, 27708, Note_on_c, 4, 78, 63
6, 27750, Note_off_c, 4, 78, 64
6, 27761, Note_on_c, 4, 80, 66
6, 27792, Note_off_c, 4, 80, 64
6, 27827, Note_on_c, 4, 82, 80
6, 27872, Note_off_c, 4, 82, 64
6, 27951, Note_on_c, 4, 83, 85
6, 27995, Note_off_c, 4, 83, 64
6, 28074, Note_on_c, 4, 74, 82
6, 28104, Note_on_c, 4, 73, 53
6, 28111, Note_off_c, 4, 74, 64
6, 28133, Note_on_c, 4, 74, 64
6, 28137, Note_off_c, 4, 73, 64
6, 28164, Note_on_c, 4, 73, 58
6, 28174, Note_off_c, 4, 74, 64
6, 28185, Note_on_c, 4, 71, 60
6, 28198, Note_off_c, 4, 73, 64
6, 28239, Note_off_c, 4, 71, 64
6, 28239, Note_on_c, 4, 70, 70
6, 28276, Note_off_c, 4, 70, 64
6, 28297, Note_on_c, 4, 71, 80
6, 28355, Note_off_c, 4, 71, 64
6, 28423, Note_on_c, 4, 73, 63
6, 28478, Note_off_c, 4, 73, 64
6, 28547, Note_on_c, 4, 66, 59
6, 28600, Note_off_c, 4, 66, 64
6, 28669, Note_on_c, 4, 70, 70
6, 28719, Note_off_c, 4, 70, 64
6, 28799, Note_on_c, 4, 71, 66
6, 29047, Note_off_c, 4, 71, 64
6, 43562, Note_on_c, 4, 76, 89
6, 43608, Note_off_c, 4, 76, 64
6, 43610, Note_on_c, 4, 74, 82
6, 43668, Note_off_c, 4, 74, 64
6, 43675, Note_on_c, 4, 76, 89
6, 43729, Note_off_c, 4, 76, 64
6, 43797, Note_on_c, 4, 78, 89
6, 43838, Note_off_c, 4, 78, 64
6, 43913, Note_on_c, 4, 78, 105
6, 43964, Note_on_c, 4, 79, 80
6, 43973, Note_off_c, 4, 78, 64
6, 44013, Note_off_c, 4, 79, 64
6, 44030, Note_on_c, 4, 78, 62
6, 44084, Note_off_c, 4, 78, 64
6, 44086, Note_on_c, 4, 76, 70
6, 44129, Note_off_c, 4, 76, 64
6, 44155, Note_on_c, 4, 78, 100
6, 44212, Note_on_c, 4, 79, 74
6, 44217, Note_off_c, 4, 78, 64
6, 44263, Note_off_c, 4, 79, 64
6, 44275, Note_on_c, 4, 81, 64
6, 44316, Note_off_c, 4, 81, 64
6, 44393, Note_on_c, 4, 74, 76
6, 44440, Note_off_c, 4, 74, 64
6, 44512, Note_on_c, 4, 76, 72
6, 44551, Note_off_c, 4, 76, 64
6, 44633, Note_on_c, 4, 76, 95
6, 44673, Note_on_c, 4, 78, 62
6, 44684, Note_off_c, 4, 76, 64
6, 44711, Note_off_c, 4, 78, 64
6, 44750, Note_on_c, 4, 76, 95
6, 44882, Note_off_c, 4, 76, 64
6, 45008, Note_on_c, 4, 78, 100
6, 45045, Note_off_c, 4, 78, 64
6, 45058, Note_on_c, 4, 76, 87
6, 45101, Note_off_c, 4, 76, 64
6, 45120, Note_on_c, 4, 78, 82
6, 45164, Note_off_c, 4, 78, 64
6, 45235, Note_on_c, 4, 79, 82
6, 45278, Note_off_c, 4, 79, 64
6, 45356, Note_on_c, 4, 79, 105
6, 45411, Note_on_c, 4, 81, 70
6, 45421, Note_off_c, 4, 79, 64
6, 45452, Note_off_c, 4, 81, 64
6, 45475, Note_on_c, 4, 79, 78
6, 45524, Note_off_c, 4, 79, 64
6, 45524, Note_on_c, 4, 78, 63
6, 45568, Note_off_c, 4, 78, 64
6, 45591, Note_on_c, 4, 79, 93
6, 45645, Note_on_c, 4, 81, 80
6, 45647, Note_off_c, 4, 79, 64
6, 45691, Note_off_c, 4, 81, 64
6, 45710, Note_on_c, 4, 83, 80
6, 45753, Note_off_c, 4, 83, 64
6, 45827, Note_on_c, 4, 76, 80
6, 45868, Note_off_c, 4, 76, 64
6, 45945, Note_on_c, 4, 78, 82
6, 45982, Note_off_c, 4, 78, 64
6, 46068, Note_on_c, 4, 78, 102
6, 46105, Note_on_c, 4, 79, 85
6, 46115, Note_off_c, 4, 78, 64
6, 46143, Note_off_c, 4, 79, 64
6, 46184, Note_on_c, 4, 78, 89
6, 46323, Note_off_c, 4, 78, 64
6, 46438, Note_on_c, 4, 79, 93
6, 46480, Note_off_c, 4, 79, 64
6, 46493, Note_on_c, 4, 78, 89
6, 46533, Note_off_c, 4, 78, 64
6, 46552, Note_on_c, 4, 79, 85
6, 46599, Note_off_c, 4, 79, 64
6, 46673, Note_on_c, 4, 81, 78
6, 46716, Note_off_c, 4, 81, 64
6, 46793, Note_on_c, 4, 79, 87
6, 46817, Note_on_c, 4, 78, 64
6, 46825, Note_off_c, 4, 79, 64
6, 46842, Note_off_c, 4, 78, 64
6, 46842, Note_on_c, 4, 79, 60
6, 46872, Note_on_c, 4, 78, 70
6, 46885, Note_off_c, 4, 79, 64
6, 46916, Note_on_c, 4, 76, 74
6, 46917, Note_off_c, 4, 78, 64
6, 46959, Note_off_c, 4, 76, 64
6, 46968, Note_on_c, 4, 75, 62
6, 47015, Note_off_c, 4, 75, 64
6, 47022, Note_on_c, 4, 76, 78
6, 47077, Note_off_c, 4, 76, 64
6, 47078, Note_on_c, 4, 78, 85
6, 47114, Note_off_c, 4, 78, 64
6, 47134, Note_on_c, 4, 79, 72
6, 47185, Note_off_c, 4, 79, 64
6, 47195, Note_on_c, 4, 81, 68
6, 47241, Note_off_c, 4, 81, 64
6, 47263, Note_on_c, 4, 83, 89
6, 47304, Note_off_c, 4, 83, 64
6, 47383, Note_on_c, 4, 84, 70
6, 47433, Note_off_c, 4, 84, 64
6, 47497, Note_on_c, 4, 83, 91
6, 47528, Note_off_c, 4, 83, 64
6, 47531, Note_on_c, 4, 81, 40
6, 47552, Note_on_c, 4, 83, 82
6, 47559, Note_off_c, 4, 81, 64
6, 47585, Note_on_c, 4, 81, 76
6, 47592, Note_off_c, 4, 83, 64
6, 47623, Note_on_c, 4, 79, 74
6, 47626, Note_off_c, 4, 81, 64
6, 47761, Note_off_c, 4, 79, 64
6, 47879, Note_on_c, 4, 78, 87
6, 47922, Note_on_c, 4, 76, 74
6, 47923, Note_off_c, 4, 78, 64
6, 47968, Note_off_c, 4, 76, 64
6, 47991, Note_on_c, 4, 78, 64
6, 48036, Note_off_c, 4, 78, 64
6, 48120, Note_on_c, 4, 79, 82
6, 48171, Note_off_c, 4, 79, 64
6, 48234, Note_on_c, 4, 78, 91
6, 48264, Note_off_c, 4, 78, 64
6, 48268, Note_on_c, 4, 76, 59
6, 48290, Note_on_c, 4, 78, 61
6, 48295, Note_off_c, 4, 76, 64
6, 48317, Note_on_c, 4, 76, 70
6, 48337, Note_off_c, 4, 78, 64
6, 48358, Note_on_c, 4, 74, 62
6, 48364, Note_off_c, 4, 76, 64
6, 48416, Note_on_c, 4, 73, 78
6, 48417, Note_off_c, 4, 74, 64
6, 48460, Note_off_c, 4, 73, 64
6, 48472, Note_on_c, 4, 74, 80
6, 48523, Note_off_c, 4, 74, 64
6, 48531, Note_on_c, 4, 76, 82
6, 48569, Note_off_c, 4, 76, 64
6, 48589, Note_on_c, 4, 78, 82
6, 48638, Note_off_c, 4, 78, 64
6, 48641, Note_on_c, 4, 80, 68
6, 48671, Note_off_c, 4, 80, 64
6, 48708, Note_on_c, 4, 82, 87
6, 48747, Note_off_c, 4, 82, 64
6, 48832, Note_on_c, 4, 83, 82
6, 48877, Note_off_c, 4, 83, 64
6, 48953, Note_on_c, 4, 74, 82
6, 48979, Note_on_c, 4, 73, 66
6, 48983, Note_off_c, 4, 74, 64
6, 49006, Note_off_c, 4, 73, 64
6, 49010, Note_on_c, 4, 74, 78
6, 49037, Note_on_c, 4, 73, 63
6, 49052, Note_off_c, 4, 74, 64
6, 49076, Note_on_c, 4, 71, 80
6, 49079, Note_off_c, 4, 73, 64
6, 49122, Note_off_c, 4, 71, 64
6, 49132, Note_on_c, 4, 70, 68
6, 49175, Note_off_c, 4, 70, 64
6, 49190, Note_on_c, 4, 71, 80
6, 49248, Note_off_c, 4, 71, 64
6, 49248, Note_on_c, 4, 73, 66
6, 49288, Note_off_c, 4, 73, 64
6, 49304, Note_on_c, 4, 74, 70
6, 49360, Note_off_c, 4, 74, 64
6, 49365, Note_on_c, 4, 76, 70
6, 49404, Note_off_c, 4, 76, 64
6, 49430, Note_on_c, 4, 78, 85
6, 49469, Note_off_c, 4, 78, 64
6, 49550, Note_on_c, 4, 79, 82
6, 49589, Note_off_c, 4, 79, 64
6, 49665, Note_on_c, 4, 71, 87
6, 49696, Note_off_c, 4, 71, 64
6, 49696, Note_on_c, 4, 70, 58
6, 49715, Note_on_c, 4, 71, 66
6, 49719, Note_off_c, 4, 70, 64
6, 49742, Note_on_c, 4, 70, 68
6, 49756, Note_off_c, 4, 71, 64
6, 49781, Note_on_c, 4, 68, 60
6, 49793, Note_off_c, 4, 70, 64
6, 49819, Note_off_c, 4, 68, 64
6, 49841, Note_on_c, 4, 66, 66
6, 49892, Note_off_c, 4, 66, 64
6, 49908, Note_on_c, 4, 76, 80
6, 49974, Note_off_c, 4, 76, 64
6, 50154, Note_on_c, 4, 74, 66
6, 50236, Note_off_c, 4, 74, 64
6, 50509, Note_on_c, 4, 76, 85
6, 50558, Note_off_c, 4, 76, 64
6, 50624, Note_on_c, 4, 74, 89
6, 50652, Note_off_c, 4, 74, 64
6, 50654, Note_on_c, 4, 73, 43
6, 50673, Note_on_c, 4, 74, 72
6, 50677, Note_off_c, 4, 73, 64
6, 50700, Note_on_c, 4, 73, 58
6, 50711, Note_off_c, 4, 74, 64
6, 50732, Note_on_c, 4, 71, 60
6, 50738, Note_off_c, 4, 73, 64
6, 50789, Note_off_c, 4, 71, 64
6, 50792, Note_on_c, 4, 70, 78
6, 50836, Note_off_c, 4, 70, 64
6, 50863, Note_on_c, 4, 79, 89
6, 50935, Note_off_c, 4, 79, 64
6, 51110, Note_on_c, 4, 78, 57
6, 51194, Note_off_c, 4, 78, 64
6, 51476, Note_on_c, 4, 79, 78
6, 51523, Note_off_c, 4, 79, 64
6, 51578, Note_on_c, 4, 78, 100
6, 51600, Note_on_c, 4, 76, 60
6, 51603, Note_off_c, 4, 78, 64
6, 51629, Note_on_c, 4, 78, 62
6, 51635, Note_off_c, 4, 76, 64
6, 51657, Note_on_c, 4, 76, 68
6, 51674, Note_off_c, 4, 78, 64
6, 51698, Note_on_c, 4, 74, 58
6, 51702, Note_off_c, 4, 76, 64
6, 51753, Note_on_c, 4, 73, 70
6, 51759, Note_off_c, 4, 74, 64
6, 51787, Note_off_c, 4, 73, 64
6, 51831, Note_on_c, 4, 83, 70
6, 51920, Note_off_c, 4, 83, 64
6, 52078, Note_on_c, 4, 82, 74
6, 52175, Note_off_c, 4, 82, 64
6, 52194, Note_on_c, 4, 83, 66
6, 52242, Note_off_c, 4, 83, 64
6, 52248, Note_on_c, 4, 85, 61
6, 52279, Note_off_c, 4, 85, 64
6, 52317, Note_on_c, 4, 78, 76
6, 52363, Note_off_c, 4, 78, 64
6, 52433, Note_on_c, 4, 76, 74
6, 52489, Note_off_c, 4, 76, 64
6, 52554, Note_on_c, 4, 76, 80
6, 52577, Note_on_c, 4, 74, 64
6, 52581, Note_off_c, 4, 76, 64
6, 52603, Note_on_c, 4, 76, 57
6, 52610, Note_off_c, 4, 74, 64
6, 52633, Note_on_c, 4, 74, 66
6, 52639, Note_off_c, 4, 76, 64
6, 52667, Note_on_c, 4, 73, 61
6, 52672, Note_off_c, 4, 74, 64
6, 52704, Note_off_c, 4, 73, 64
6, 52729, Note_on_c, 4, 71, 66
6, 52765, Note_off_c, 4, 71, 64
6, 52791, Note_on_c, 4, 73, 78
6, 52832, Note_off_c, 4, 73, 64
6, 52912, Note_on_c, 4, 83, 78
6, 52954, Note_off_c, 4, 83, 64
6, 52964, Note_on_c, 4, 82, 64
6, 53007, Note_off_c, 4, 82, 64
6, 53031, Note_on_c, 4, 83, 68
6, 53080, Note_off_c, 4, 83, 64
6, 53158, Note_on_c, 4, 85, 68
6, 53205, Note_off_c, 4, 85, 64
6, 53278, Note_on_c, 4, 78, 85
6, 53300, Note_on_c, 4, 76, 70
6, 53306, Note_off_c, 4, 78, 64
6, 53330, Note_on_c, 4, 78, 57
6, 53331, Note_off_c, 4, 76, 64
6, 53358, Note_on_c, 4, 76, 68
6, 53375, Note_off_c, 4, 78, 64
6, 53387, Note_on_c, 4, 74, 64
6, 53395, Note_off_c, 4, 76, 64
6, 53441, Note_off_c, 4, 74, 64
6, 53445, Note_on_c, 4, 73, 78
6, 53487, Note_off_c, 4, 73, 64
6, 53507, Note_on_c, 4, 74, 68
6, 53567, Note_off_c, 4, 74, 64
6, 53567, Note_on_c, 4, 76, 76
6, 53607, Note_off_c, 4, 76, 64
6, 53628, Note_on_c, 4, 78, 63
6, 53670, Note_off_c, 4, 78, 64
6, 53681, Note_on_c, 4, 80, 66
6, 53712, Note_off_c, 4, 80, 64
6, 53747, Note_on_c, 4, 82, 80
6, 53792, Note_off_c, 4, 82, 64
6, 53871, Note_on_c, 4, 83, 85
6, 53915, Note_off_c, 4, 83, 64
6, 53994, Note_on_c, 4, 74, 82
6, 54024, Note_on_c, 4, 73, 53
6, 54031, Note_off_c, 4, 74, 64
6, 54053, Note_on_c, 4, 74, 64
6, 54057, Note_off_c, 4, 73, 64
6, 54084, Note_on_c, 4, 73, 58
6, 54094, Note_off_c, 4, 74, 64
6, 54105, Note_on_c, 4, 71, 60
6, 54118, Note_off_c, 4, 73, 64
6, 54159, Note_off_c, 4, 71, 64
6, 54159, Note_on_c, 4, 70, 70
6, 54196, Note_off_c, 4, 70, 64
6, 54217, Note_on_c, 4, 71, 80
6, 54275, Note_off_c, 4, 71, 64
6, 54343, Note_on_c, 4, 73, 63
6, 54398, Note_off_c, 4, 73, 64
6, 54467, Note_on_c, 4, 66, 59
6, 54520, Note_off_c, 4, 66, 64
6, 54589, Note_on_c, 4, 70, 70
6, 54639, Note_off_c, 4, 70, 64
6, 54719, Note_on_c, 4, 71, 66
6, 54967, Note_off_c, 4, 71, 64
6, 54967, End_track
7, 0, Start_track
7, 0, Title_t, "Oboe"
7, 0, Program_c, 5, 68
7, 0, Control_c, 5, 7, 100
7, 349, Note_on_c, 5, 74, 85
7, 419, Note_off_c, 5, 74, 64
7, 465, Note_on_c, 5, 74, 78
7, 537, Note_off_c, 5, 74, 64
7, 582, Note_on_c, 5, 76, 80
7, 650, Note_off_c, 5, 76, 64
7, 709, Note_on_c, 5, 73, 70
7, 762, Note_off_c, 5, 73, 64
7, 823, Note_on_c, 5, 69, 76
7, 885, Note_off_c, 5, 69, 64
7, 949, Note_on_c, 5, 69, 87
7, 1018, Note_off_c, 5, 69, 64
7, 1073, Note_on_c, 5, 74, 78
7, 1121, Note_off_c, 5, 74, 64
7, 1121, Note_on_c, 5, 73, 80
7, 1162, Note_off_c, 5, 73, 64
7, 1182, Note_on_c, 5, 74, 85
7, 1240, Note_off_c, 5, 74, 64
7, 1303, Note_on_c, 5, 71, 80
7, 1375, Note_off_c, 5, 71, 64
7, 1434, Note_on_c, 5, 73, 72
7, 1491, Note_off_c, 5, 73, 64
7, 1562, Note_on_c, 5, 74, 85
7, 1684, Note_off_c, 5, 74, 64
7, 1796, Note_on_c, 5, 68, 82
7, 1855, Note_off_c, 5, 68, 64
7, 1915, Note_on_c, 5, 69, 87
7, 1977, Note_off_c, 5, 69, 64
7, 2035, Note_on_c, 5, 73, 72
7, 2096, Note_off_c, 5, 73, 64
7, 2149, Note_on_c, 5, 71, 82
7, 2208, Note_off_c, 5, 71, 64
7, 2269, Note_on_c, 5, 64, 74
7, 2331, Note_off_c, 5, 64, 64
7, 2393, Note_on_c, 5, 69, 87
7, 2466, Note_off_c, 5, 69, 64
7, 2511, Note_on_c, 5, 69, 78
7, 2571, Note_off_c, 5, 69, 64
7, 2632, Note_on_c, 5, 74, 87
7, 2691, Note_off_c, 5, 74, 64
7, 2751, Note_on_c, 5, 73, 78
7, 2801, Note_off_c, 5, 73, 64
7, 2867, Note_on_c, 5, 71, 98
7, 2966, Note_off_c, 5, 71, 64
7, 2985, Note_on_c, 5, 73, 78
7, 3030, Note_off_c, 5, 73, 64
7, 3037, Note_on_c, 5, 74, 85
7, 3086, Note_off_c, 5, 74, 64
7, 3104, Note_on_c, 5, 73, 82
7, 3160, Note_off_c, 5, 73, 64
7, 3222, Note_on_c, 5, 69, 80
7, 3273, Note_off_c, 5, 69, 64
7, 3340, Note_on_c, 5, 69, 78
7, 3385, Note_off_c, 5, 69, 64
7, 3456, Note_on_c, 5, 74, 85
7, 3494, Note_off_c, 5, 74, 64
7, 3588, Note_on_c, 5, 71, 87
7, 3833, Note_off_c, 5, 71, 64
7, 3947, Note_on_c, 5, 71, 80
7, 4010, Note_off_c, 5, 71, 64
7, 4066, Note_on_c, 5, 73, 72
7, 4128, Note_off_c, 5, 73, 64
7, 4184, Note_on_c, 5, 74, 85
7, 4232, Note_off_c, 5, 74, 64
7, 4307, Note_on_c, 5, 71, 85
7, 4548, Note_off_c, 5, 71, 64
7, 4659, Note_on_c, 5, 71, 82
7, 4702, Note_off_c, 5, 71, 64
7, 4781, Note_on_c, 5, 71, 87
7, 4866, Note_off_c, 5, 71, 64
7, 4891, Note_on_c, 5, 69, 72
7, 4943, Note_on_c, 5, 68, 102
7, 4950, Note_off_c, 5, 69, 64
7, 4984, Note_off_c, 5, 68, 64
7, 5013, Note_on_c, 5, 69, 82
7, 5120, Note_off_c, 5, 69, 64
7, 5367, Note_on_c, 5, 69, 85
7, 5440, Note_off_c, 5, 69, 64
7, 5487, Note_on_c, 5, 68, 82
7, 5552, Note_off_c, 5, 68, 64
7, 5605, Note_on_c, 5, 69, 85
7, 5667, Note_off_c, 5, 69, 64
7, 5730, Note_on_c, 5, 71, 93
7, 5831, Note_off_c, 5, 71, 64
7, 5973, Note_on_c, 5, 71, 78
7, 6055, Note_off_c, 5, 71, 64
7, 6084, Note_on_c, 5, 74, 85
7, 6155, Note_off_c, 5, 74, 64
7, 6210, Note_on_c, 5, 73, 70
7, 6269, Note_off_c, 5, 73, 64
7, 6341, Note_on_c, 5, 71, 82
7, 6392, Note_off_c, 5, 71, 64
7, 6462, Note_on_c, 5, 69, 82
7, 6523, Note_off_c, 5, 69, 64
7, 6578, Note_on_c, 5, 64, 74
7, 6637, Note_off_c, 5, 64, 64
7, 6693, Note_on_c, 5, 66, 72
7, 6754, Note_off_c, 5, 66, 64
7, 6809, Note_on_c, 5, 64, 78
7, 6871, Note_off_c, 5, 64, 64
7, 6933, Note_on_c, 5, 69, 80
7, 6981, Note_off_c, 5, 69, 64
7, 7051, Note_on_c, 5, 74, 78
7, 7113, Note_off_c, 5, 74, 64
7, 7173, Note_on_c, 5, 73, 91
7, 7199, Note_on_c, 5, 71, 85
7, 7205, Note_off_c, 5, 73, 64
7, 7231, Note_off_c, 5, 71, 64
7, 7232, Note_on_c, 5, 73, 76
7, 7259, Note_on_c, 5, 71, 80
7, 7277, Note_off_c, 5, 73, 64
7, 7294, Note_on_c, 5, 69, 70
7, 7301, Note_off_c, 5, 71, 64
7, 7347, Note_off_c, 5, 69, 64
7, 7357, Note_on_c, 5, 68, 95
7, 7402, Note_off_c, 5, 68, 64
7, 7414, Note_on_c, 5, 69, 87
7, 7484, Note_off_c, 5, 69, 64
7, 7541, Note_on_c, 5, 69, 82
7, 7596, Note_off_c, 5, 69, 64
7, 7660, Note_on_c, 5, 74, 85
7, 7720, Note_off_c, 5, 74, 64
7, 7786, Note_on_c, 5, 73, 76
7, 7838, Note_off_c, 5, 73, 64
7, 7910, Note_on_c, 5, 66, 76
7, 7972, Note_off_c, 5, 66, 64
7, 8024, Note_on_c, 5, 64, 78
7, 8087, Note_off_c, 5, 64, 64
7, 8150, Note_on_c, 5, 69, 93
7, 8208, Note_off_c, 5, 69, 64
7, 8268, Note_on_c, 5, 66, 76
7, 8324, Note_off_c, 5, 66, 64
7, 8386, Note_on_c, 5, 64, 82
7, 8441, Note_off_c, 5, 64, 64
7, 8508, Note_on_c, 5, 64, 85
7, 8558, Note_off_c, 5, 64, 64
7, 8636, Note_on_c, 5, 64, 91
7, 8895, Note_off_c, 5, 64, 64
7, 17647, Note_on_c, 5, 73, 91
7, 17689, Note_on_c, 5, 71, 70
7, 17693, Note_off_c, 5, 73, 64
7, 17735, Note_off_c, 5, 71, 64
7, 17755, Note_on_c, 5, 73, 87
7, 17813, Note_off_c, 5, 73, 64
7, 17880, Note_on_c, 5, 74, 82
7, 17913, Note_off_c, 5, 74, 64
7, 18002, Note_on_c, 5, 74, 102
7, 18058, Note_on_c, 5, 76, 70
7, 18065, Note_off_c, 5, 74, 64
7, 18106, Note_off_c, 5, 76, 64
7, 18115, Note_on_c, 5, 74, 60
7, 18160, Note_on_c, 5, 73, 48
7, 18166, Note_off_c, 5, 74, 64
7, 18199, Note_off_c, 5, 73, 64
7, 18229, Note_on_c, 5, 74, 68
7, 18284, Note_on_c, 5, 76, 89
7, 18295, Note_off_c, 5, 74, 64
7, 18329, Note_off_c, 5, 76, 64
7, 18347, Note_on_c, 5, 78, 64
7, 18393, Note_off_c, 5, 78, 64
7, 18472, Note_on_c, 5, 69, 78
7, 18513, Note_off_c, 5, 69, 64
7, 18595, Note_on_c, 5, 73, 80
7, 18631, Note_off_c, 5, 73, 64
7, 18716, Note_on_c, 5, 73, 93
7, 18764, Note_on_c, 5, 74, 74
7, 18770, Note_off_c, 5, 73, 64
7, 18801, Note_off_c, 5, 74, 64
7, 18824, Note_on_c, 5, 73, 72
7, 18952, Note_off_c, 5, 73, 64
7, 19073, Note_on_c, 5, 75, 89
7, 19115, Note_off_c, 5, 75, 64
7, 19119, Note_on_c, 5, 73, 60
7, 19164, Note_off_c, 5, 73, 64
7, 19185, Note_on_c, 5, 75, 82
7, 19241, Note_off_c, 5, 75, 64
7, 19313, Note_on_c, 5, 76, 89
7, 19348, Note_off_c, 5, 76, 64
7, 19437, Note_on_c, 5, 76, 98
7, 19488, Note_on_c, 5, 78, 60
7, 19497, Note_off_c, 5, 76, 64
7, 19530, Note_off_c, 5, 78, 64
7, 19547, Note_on_c, 5, 76, 66
7, 19594, Note_on_c, 5, 75, 53
7, 19608, Note_off_c, 5, 76, 64
7, 19637, Note_off_c, 5, 75, 64
7, 19662, Note_on_c, 5, 76, 82
7, 19716, Note_on_c, 5, 78, 66
7, 19721, Note_off_c, 5, 76, 64
7, 19763, Note_off_c, 5, 78, 64
7, 19780, Note_on_c, 5, 79, 87
7, 19819, Note_off_c, 5, 79, 64
7, 19907, Note_on_c, 5, 71, 78
7, 19950, Note_off_c, 5, 71, 64
7, 20033, Note_on_c, 5, 75, 87
7, 20069, Note_off_c, 5, 75, 64
7, 20153, Note_on_c, 5, 75, 95
7, 20199, Note_on_c, 5, 76, 64
7, 20204, Note_off_c, 5, 75, 64
7, 20228, Note_off_c, 5, 76, 64
7, 20259, Note_on_c, 5, 75, 63
7, 20385, Note_off_c, 5, 75, 64
7, 20505, Note_on_c, 5, 76, 80
7, 20549, Note_off_c, 5, 76, 64
7, 20626, Note_on_c, 5, 76, 85
7, 20682, Note_off_c, 5, 76, 64
7, 20741, Note_on_c, 5, 78, 68
7, 20787, Note_off_c, 5, 78, 64
7, 20868, Note_on_c, 5, 75, 70
7, 20914, Note_off_c, 5, 75, 64
7, 20978, Note_on_c, 5, 71, 72
7, 21025, Note_off_c, 5, 71, 64
7, 21103, Note_on_c, 5, 71, 80
7, 21154, Note_off_c, 5, 71, 64
7, 21225, Note_on_c, 5, 76, 80
7, 21263, Note_off_c, 5, 76, 64
7, 21276, Note_on_c, 5, 75, 72
7, 21318, Note_off_c, 5, 75, 64
7, 21337, Note_on_c, 5, 76, 82
7, 21379, Note_off_c, 5, 76, 64
7, 21457, Note_on_c, 5, 81, 74
7, 21499, Note_off_c, 5, 81, 64
7, 21567, Note_on_c, 5, 76, 91
7, 21594, Note_on_c, 5, 75, 57
7, 21598, Note_off_c, 5, 76, 64
7, 21611, Note_off_c, 5, 75, 64
7, 21614, Note_on_c, 5, 76, 64
7, 21642, Note_on_c, 5, 75, 70
7, 21658, Note_off_c, 5, 76, 64
7, 21678, Note_off_c, 5, 75, 64
7, 21693, Note_on_c, 5, 76, 89
7, 21819, Note_off_c, 5, 76, 64
7, 21938, Note_on_c, 5, 70, 68
7, 21988, Note_off_c, 5, 70, 64
7, 22059, Note_on_c, 5, 71, 74
7, 22115, Note_off_c, 5, 71, 64
7, 22175, Note_on_c, 5, 74, 82
7, 22221, Note_off_c, 5, 74, 64
7, 22296, Note_on_c, 5, 73, 63
7, 22348, Note_off_c, 5, 73, 64
7, 22421, Note_on_c, 5, 66, 59
7, 22475, Note_off_c, 5, 66, 64
7, 22542, Note_on_c, 5, 71, 70
7, 22587, Note_off_c, 5, 71, 64
7, 22659, Note_on_c, 5, 71, 70
7, 22711, Note_off_c, 5, 71, 64
7, 22782, Note_on_c, 5, 76, 85
7, 22828, Note_off_c, 5, 76, 64
7, 22896, Note_on_c, 5, 74, 82
7, 22936, Note_off_c, 5, 74, 64
7, 23015, Note_on_c, 5, 74, 89
7, 23042, Note_on_c, 5, 73, 63
7, 23050, Note_off_c, 5, 74, 64
7, 23064, Note_on_c, 5, 74, 62
7, 23067, Note_off_c, 5, 73, 64
7, 23094, Note_on_c, 5, 73, 68
7, 23105, Note_off_c, 5, 74, 64
7, 23132, Note_off_c, 5, 73, 64
7, 23138, Note_on_c, 5, 74, 82
7, 23175, Note_on_c, 5, 76, 70
7, 23182, Note_off_c, 5, 74, 64
7, 23220, Note_off_c, 5, 76, 64
7, 23249, Note_on_c, 5, 74, 85
7, 23319, Note_off_c, 5, 74, 64
7, 23394, Note_on_c, 5, 71, 78
7, 23448, Note_off_c, 5, 71, 64
7, 23505, Note_on_c, 5, 71, 76
7, 23556, Note_off_c, 5, 71, 64
7, 23626, Note_on_c, 5, 76, 85
7, 23666, Note_off_c, 5, 76, 64
7, 23757, Note_on_c, 5, 73, 85
7, 23981, Note_off_c, 5, 73, 64
7, 24107, Note_on_c, 5, 73, 76
7, 24159, Note_off_c, 5, 73, 64
7, 24224, Note_on_c, 5, 74, 82
7, 24275, Note_off_c, 5, 74, 64
7, 24351, Note_on_c, 5, 76, 85
7, 24399, Note_off_c, 5, 76, 64
7, 24471, Note_on_c, 5, 73, 80
7, 24703, Note_off_c, 5, 73, 64
7, 24825, Note_on_c, 5, 73, 68
7, 24865, Note_off_c, 5, 73, 64
7, 24943, Note_on_c, 5, 73, 91
7, 25033, Note_off_c, 5, 73, 64
7, 25054, Note_on_c, 5, 71, 63
7, 25104, Note_off_c, 5, 71, 64
7, 25105, Note_on_c, 5, 70, 66
7, 25147, Note_off_c, 5, 70, 64
7, 25183, Note_on_c, 5, 71, 89
7, 25277, Note_off_c, 5, 71, 64
7, 25550, Note_on_c, 5, 71, 70
7, 25597, Note_off_c, 5, 71, 64
7, 25659, Note_on_c, 5, 70, 63
7, 25707, Note_off_c, 5, 70, 64
7, 25773, Note_on_c, 5, 71, 76
7, 25811, Note_off_c, 5, 71, 64
7, 25896, Note_on_c, 5, 73, 80
7, 26232, Note_off_c, 5, 73, 64
7, 26271, Note_on_c, 5, 76, 80
7, 26325, Note_off_c, 5, 76, 64
7, 26390, Note_on_c, 5, 74, 76
7, 26439, Note_off_c, 5, 74, 64
7, 26512, Note_on_c, 5, 73, 59
7, 26560, Note_off_c, 5, 73, 64
7, 26634, Note_on_c, 5, 71, 72
7, 26689, Note_off_c, 5, 71, 64
7, 26742, Note_on_c, 5, 66, 59
7, 26812, Note_off_c, 5, 66, 64
7, 26865, Note_on_c, 5, 67, 80
7, 26908, Note_off_c, 5, 67, 64
7, 26983, Note_on_c, 5, 66, 60
7, 27039, Note_off_c, 5, 66, 64
7, 27103, Note_on_c, 5, 71, 68
7, 27149, Note_off_c, 5, 71, 64
7, 27225, Note_on_c, 5, 76, 76
7, 27276, Note_off_c, 5, 76, 64
7, 27353, Note_on_c, 5, 74, 60
7, 27385, Note_on_c, 5, 73, 66
7, 27390, Note_off_c, 5, 74, 64
7, 27409, Note_off_c, 5, 73, 64
7, 27413, Note_on_c, 5, 74, 66
7, 27433, Note_on_c, 5, 73, 58
7, 27457, Note_off_c, 5, 74, 64
7, 27470, Note_on_c, 5, 71, 66
7, 27483, Note_off_c, 5, 73, 64
7, 27526, Note_off_c, 5, 71, 64
7, 27531, Note_on_c, 5, 70, 70
7, 27572, Note_off_c, 5, 70, 64
7, 27589, Note_on_c, 5, 71, 82
7, 27648, Note_off_c, 5, 71, 64
7, 27712, Note_on_c, 5, 71, 68
7, 27764, Note_off_c, 5, 71, 64
7, 27828, Note_on_c, 5, 76, 78
7, 27882, Note_off_c, 5, 76, 64
7, 27948, Note_on_c, 5, 74, 78
7, 27992, Note_off_c, 5, 74, 64
7, 28074, Note_on_c, 5, 69, 91
7, 28096, Note_on_c, 5, 67, 70
7, 28105, Note_off_c, 5, 69, 64
7, 28123, Note_on_c, 5, 69, 59
7, 28124, Note_off_c, 5, 67, 64
7, 28150, Note_on_c, 5, 67, 66
7, 28155, Note_off_c, 5, 69, 64
7, 28181, Note_on_c, 5, 66, 66
7, 28184, Note_off_c, 5, 67, 64
7, 28218, Note_off_c, 5, 66, 64
7, 28239, Note_on_c, 5, 64, 80
7, 28272, Note_off_c, 5, 64, 64
7, 28303, Note_on_c, 5, 62, 64
7, 28375, Note_off_c, 5, 62, 64
7, 28426, Note_on_c, 5, 67, 74
7, 28478, Note_off_c, 5, 67, 64
7, 28548, Note_on_c, 5, 66, 61
7, 28602, Note_off_c, 5, 66, 64
7, 28672, Note_on_c, 5, 66, 64
7, 28728, Note_off_c, 5, 66, 64
7, 28797, Note_on_c, 5, 66, 68
7, 29047, Note_off_c, 5, 66, 64
7, 43567, Note_on_c, 5, 73, 91
7, 43609, Note_on_c, 5, 71, 70
7, 43613, Note_off_c, 5, 73, 64
7, 43655, Note_off_c, 5, 71, 64
7, 43675, Note_on_c, 5, 73, 87
7, 43733, Note_off_c, 5, 73, 64
7, 43800, Note_on_c, 5, 74, 82
7, 43833, Note_off_c, 5, 74, 64
7, 43922, Note_on_c, 5, 74, 102
7, 43978, Note_on_c, 5, 76, 70
7, 43985, Note_off_c, 5, 74, 64
7, 44026, Note_off_c, 5, 76, 64
7, 44035, Note_on_c, 5, 74, 60
7, 44080, Note_on_c, 5, 73, 48
7, 44086, Note_off_c, 5, 74, 64
7, 44119, Note_off_c, 5, 73, 64
7, 44149, Note_on_c, 5, 74, 68
7, 44204, Note_on_c, 5, 76, 89
7, 44215, Note_off_c, 5, 74, 64
7, 44249, Note_off_c, 5, 76, 64
7, 44267, Note_on_c, 5, 78, 64
7, 44313, Note_off_c, 5, 78, 64
7, 44392, Note_on_c, 5, 69, 78
7, 44433, Note_off_c, 5, 69, 64
7, 44515, Note_on_c, 5, 73, 80
7, 44551, Note_off_c, 5, 73, 64
7, 44636, Note_on_c, 5, 73, 93
7, 44684, Note_on_c, 5, 74, 74
7, 44690, Note_off_c, 5, 73, 64
7, 44721, Note_off_c, 5, 74, 64
7, 44744, Note_on_c, 5, 73, 72
7, 44872, Note_off_c, 5, 73, 64
7, 44993, Note_on_c, 5, 75, 89
7, 45035, Note_off_c, 5, 75, 64
7, 45039, Note_on_c, 5, 73, 60
7, 45084, Note_off_c, 5, 73, 64
7, 45105, Note_on_c, 5, 75, 82
7, 45161, Note_off_c, 5, 75, 64
7, 45233, Note_on_c, 5, 76, 89
7, 45268, Note_off_c, 5, 76, 64
7, 45357, Note_on_c, 5, 76, 98
7, 45408, Note_on_c, 5, 78, 60
7, 45417, Note_off_c, 5, 76, 64
7, 45450, Note_off_c, 5, 78, 64
7, 45467, Note_on_c, 5, 76, 66
7, 45514, Note_on_c, 5, 75, 53
7, 45528, Note_off_c, 5, 76, 64
7, 45557, Note_off_c, 5, 75, 64
7, 45582, Note_on_c, 5, 76, 82
7, 45636, Note_on_c, 5, 78, 66
7, 45641, Note_off_c, 5, 76, 64
7, 45683, Note_off_c, 5, 78, 64
7, 45700, Note_on_c, 5, 79, 87
7, 45739, Note_off_c, 5, 79, 64
7, 45827, Note_on_c, 5, 71, 78
7, 45870, Note_off_c, 5, 71, 64
7, 45953, Note_on_c, 5, 75, 87
7, 45989, Note_off_c, 5, 75, 64
7, 46073, Note_on_c, 5, 75, 95
7, 46119, Note_on_c, 5, 76, 64
7, 46124, Note_off_c, 5, 75, 64
7, 46148, Note_off_c, 5, 76, 64
7, 46179, Note_on_c, 5, 75, 63
7, 46305, Note_off_c, 5, 75, 64
7, 46425, Note_on_c, 5, 76, 80
7, 46469, Note_off_c, 5, 76, 64
7, 46546, Note_on_c, 5, 76, 85
7, 46602, Note_off_c, 5, 76, 64
7, 46661, Note_on_c, 5, 78, 68
7, 46707, Note_off_c, 5, 78, 64
7, 46788, Note_on_c, 5, 75, 70
7, 46834, Note_off_c, 5, 75, 64
7, 46898, Note_on_c, 5, 71, 72
7, 46945, Note_off_c, 5, 71, 64
7, 47023, Note_on_c, 5, 71, 80
7, 47074, Note_off_c, 5, 71, 64
7, 47145, Note_on_c, 5, 76, 80
7, 47183, Note_off_c, 5, 76, 64
7, 47196, Note_on_c, 5, 75, 72
7, 47238, Note_off_c, 5, 75, 64
7, 47257, Note_on_c, 5, 76, 82
7, 47299, Note_off_c, 5, 76, 64
7, 47377, Note_on_c, 5, 81, 74
7, 47419, Note_off_c, 5, 81, 64
7, 47487, Note_on_c, 5, 76, 91
7, 47514, Note_on_c, 5, 75, 57
7, 47518, Note_off_c, 5, 76, 64
7, 47531, Note_off_c, 5, 75, 64
7, 47534, Note_on_c, 5, 76, 64
7, 47562, Note_on_c, 5, 75, 70
7, 47578, Note_off_c, 5, 76, 64
7, 47598, Note_off_c, 5, 75, 64
7, 47613, Note_on_c, 5, 76, 89
7, 47739, Note_off_c, 5, 76, 64
7, 47858, Note_on_c, 5, 70, 68
7, 47908, Note_off_c, 5, 70, 64
7, 47979, Note_on_c, 5, 71, 74
7, 48035, Note_off_c, 5, 71, 64
7, 48095, Note_on_c, 5, 74, 82
7, 48141, Note_off_c, 5, 74, 64
7, 48216, Note_on_c, 5, 73, 63
7, 48268, Note_off_c, 5, 73, 64
7, 48341, Note_on_c, 5, 66, 59
7, 48395, Note_off_c, 5, 66, 64
7, 48462, Note_on_c, 5, 71, 70
7, 48507, Note_off_c, 5, 71, 64
7, 48579, Note_on_c, 5, 71, 70
7, 48631, Note_off_c, 5, 71, 64
7, 48702, Note_on_c, 5, 76, 85
7, 48748, Note_off_c, 5, 76, 64
7, 48816, Note_on_c, 5, 74, 82
7, 48856, Note_off_c, 5, 74, 64
7, 48935, Note_on_c, 5, 74, 89
7, 48962, Note_on_c, 5, 73, 63
7, 48970, Note_off_c, 5, 74, 64
7, 48984, Note_on_c, 5, 74, 62
7, 48987, Note_off_c, 5, 73, 64
7, 49014, Note_on_c, 5, 73, 68
7, 49025, Note_off_c, 5, 74, 64
7, 49052, Note_off_c, 5, 73, 64
7, 49058, Note_on_c, 5, 74, 82
7, 49095, Note_on_c, 5, 76, 70
7, 49102, Note_off_c, 5, 74, 64
7, 49140, Note_off_c, 5, 76, 64
7, 49169, Note_on_c, 5, 74, 85
7, 49239, Note_off_c, 5, 74, 64
7, 49314, Note_on_c, 5, 71, 78
7, 49368, Note_off_c, 5, 71, 64
7, 49425, Note_on_c, 5, 71, 76
7, 49476, Note_off_c, 5, 71, 64
7, 49546, Note_on_c, 5, 76, 85
7, 49586, Note_off_c, 5, 76, 64
7, 49677, Note_on_c, 5, 73, 85
7, 49901, Note_off_c, 5, 73, 64
7, 50027, Note_on_c, 5, 73, 76
7, 50079, Note_off_c, 5, 73, 64
7, 50144, Note_on_c, 5, 74, 82
7, 50195, Note_off_c, 5, 74, 64
7, 50271, Note_on_c, 5, 76, 85
7, 50319, Note_off_c, 5, 76, 64
7, 50391, Note_on_c, 5, 73, 80
7, 50623, Note_off_c, 5, 73, 64
7, 50745, Note_on_c, 5, 73, 68
7, 50785, Note_off_c, 5, 73, 64
7, 50863, Note_on_c, 5, 73, 91
7, 50953, Note_off_c, 5, 73, 64
7, 50974, Note_on_c, 5, 71, 63
7, 51024, Note_off_c, 5, 71, 64
7, 51025, Note_on_c, 5, 70, 66
7, 51067, Note_off_c, 5, 70, 64
7, 51103, Note_on_c, 5, 71, 89
7, 51197, Note_off_c, 5, 71, 64
7, 51470, Note_on_c, 5, 71, 70
7, 51517, Note_off_c, 5, 71, 64
7, 51579, Note_on_c, 5, 70, 63
7, 51627, Note_off_c, 5, 70, 64
7, 51693, Note_on_c, 5, 71, 76
7, 51731, Note_off_c, 5, 71, 64
7, 51816, Note_on_c, 5, 73, 80
7, 52152, Note_off_c, 5, 73, 64
7, 52191, Note_on_c, 5, 76, 80
7, 52245, Note_off_c, 5, 76, 64
7, 52310, Note_on_c, 5, 74, 76
7, 52359, Note_off_c, 5, 74, 64
7, 52432, Note_on_c, 5, 73, 59
7, 52480, Note_off_c, 5, 73, 64
7, 52554, Note_on_c, 5, 71, 72
7, 52609, Note_off_c, 5, 71, 64
7, 52662, Note_on_c, 5, 66, 59
7, 52732, Note_off_c, 5, 66, 64
7, 52785, Note_on_c, 5, 67, 80
7, 52828, Note_off_c, 5, 67, 64
7, 52903, Note_on_c, 5, 66, 60
7, 52959, Note_off_c, 5, 66, 64
7, 53023, Note_on_c, 5, 71, 68
7, 53069, Note_off_c, 5, 71, 64
7, 53145, Note_on_c, 5, 76, 76
7, 53196, Note_off_c, 5, 76, 64
7, 53273, Note_on_c, 5, 74, 60
7, 53305, Note_on_c, 5, 73, 66
7, 53310, Note_off_c, 5, 74, 64
7, 53329, Note_off_c, 5, 73, 64
7, 53333, Note_on_c, 5, 74, 66
7, 53353, Note_on_c, 5, 73, 58
7, 53377, Note_off_c, 5, 74, 64
7, 53390, Note_on_c, 5, 71, 66
7, 53403, Note_off_c, 5, 73, 64
7, 53446, Note_off_c, 5, 71, 64
7, 53451, Note_on_c, 5, 70, 70
7, 53492, Note_off_c, 5, 70, 64
7, 53509, Note_on_c, 5, 71, 82
7, 53568, Note_off_c, 5, 71, 64
7, 53632, Note_on_c, 5, 71, 68
7, 53684, Note_off_c, 5, 71, 64
7, 53748, Note_on_c, 5, 76, 78
7, 53802, Note_off_c, 5, 76, 64
7, 53868, Note_on_c, 5, 74, 78
7, 53912, Note_off_c, 5, 74, 64
7, 53994, Note_on_c, 5, 69, 91
7, 54016, Note_on_c, 5, 67, 70
7, 54025, Note_off_c, 5, 69, 64
7, 54043, Note_on_c, 5, 69, 59
7, 54044, Note_off_c, 5, 67, 64
7, 54070, Note_on_c, 5, 67, 66
7, 54075, Note_off_c, 5, 69, 64
7, 54101, Note_on_c, 5, 66, 66
7, 54104, Note_off_c, 5, 67, 64
7, 54138, Note_off_c, 5, 66, 64
7, 54159, Note_on_c, 5, 64, 80
7, 54192, Note_off_c, 5, 64, 64
7, 54223, Note_on_c, 5, 62, 64
7, 54295, Note_off_c, 5, 62, 64
7, 54346, Note_on_c, 5, 67, 74
7, 54398, Note_off_c, 5, 67, 64
7, 54468, Note_on_c, 5, 66, 61
7, 54522, Note_off_c, 5, 66, 64
7, 54592, Note_on_c, 5, 66, 64
7, 54648, Note_off_c, 5, 66, 64
7, 54717, Note_on_c, 5, 66, 68
7, 54967, Note_off_c, 5, 66, 64
7, 54967, End_track
8, 0, Start_track
8, 0, Title_t, "Oboe"
8, 0, Program_c, 6, 68
8, 0, Control_c, 6, 7, 100
8, 358, Note_on_c, 6, 69, 78
8, 421, Note_off_c, 6, 69, 64
8, 474, Note_on_c, 6, 69, 72
8, 538, Note_off_c, 6, 69, 64
8, 593, Note_on_c, 6, 71, 78
8, 654, Note_off_c, 6, 71, 64
8, 715, Note_on_c, 6, 69, 78
8, 781, Note_off_c, 6, 69, 64
8, 832, Note_on_c, 6, 67, 82
8, 900, Note_off_c, 6, 67, 64
8, 949, Note_on_c, 6, 66, 76
8, 1020, Note_off_c, 6, 66, 64
8, 1072, Note_on_c, 6, 69, 82
8, 1130, Note_off_c, 6, 69, 64
8, 1186, Note_on_c, 6, 69, 82
8, 1237, Note_off_c, 6, 69, 64
8, 1312, Note_on_c, 6, 62, 80
8, 1358, Note_off_c, 6, 62, 64
8, 1437, Note_on_c, 6, 69, 85
8, 1480, Note_off_c, 6, 69, 64
8, 1558, Note_on_c, 6, 69, 87
8, 1696, Note_off_c, 6, 69, 64
8, 1801, Note_on_c, 6, 71, 80
8, 1849, Note_off_c, 6, 71, 64
8, 1924, Note_on_c, 6, 64, 68
8, 1974, Note_off_c, 6, 64, 64
8, 2040, Note_on_c, 6, 69, 82
8, 2095, Note_off_c, 6, 69, 64
8, 2158, Note_on_c, 6, 66, 70
8, 2220, Note_off_c, 6, 66, 64
8, 2274, Note_on_c, 6, 64, 63
8, 2345, Note_off_c, 6, 64, 64
8, 2392, Note_on_c, 6, 64, 64
8, 2465, Note_off_c, 6, 64, 64
8, 2510, Note_on_c, 6, 64, 58
8, 2583, Note_off_c, 6, 64, 64
8, 2624, Note_on_c, 6, 64, 63
8, 2697, Note_off_c, 6, 64, 64
8, 2746, Note_on_c, 6, 64, 82
8, 2805, Note_off_c, 6, 64, 64
8, 2866, Note_on_c, 6, 66, 72
8, 2930, Note_off_c, 6, 66, 64
8, 2979, Note_on_c, 6, 64, 78
8, 3048, Note_off_c, 6, 64, 64
8, 3098, Note_on_c, 6, 69, 85
8, 3160, Note_off_c, 6, 69, 64
8, 3216, Note_on_c, 6, 66, 66
8, 3285, Note_off_c, 6, 66, 64
8, 3337, Note_on_c, 6, 64, 66
8, 3396, Note_off_c, 6, 64, 64
8, 3459, Note_on_c, 6, 69, 80
8, 3505, Note_off_c, 6, 69, 64
8, 3585, Note_on_c, 6, 64, 78
8, 3835, Note_off_c, 6, 64, 64
8, 3944, Note_on_c, 6, 64, 68
8, 3993, Note_off_c, 6, 64, 64
8, 4060, Note_on_c, 6, 64, 80
8, 4112, Note_off_c, 6, 64, 64
8, 4184, Note_on_c, 6, 64, 68
8, 4242, Note_off_c, 6, 64, 64
8, 4311, Note_on_c, 6, 64, 78
8, 4565, Note_off_c, 6, 64, 64
8, 4662, Note_on_c, 6, 64, 78
8, 4713, Note_off_c, 6, 64, 64
8, 4781, Note_on_c, 6, 66, 70
8, 4836, Note_off_c, 6, 66, 64
8, 4901, Note_on_c, 6, 71, 82
8, 4954, Note_off_c, 6, 71, 64
8, 5024, Note_on_c, 6, 73, 80
8, 5164, Note_off_c, 6, 73, 64
8, 5394, Note_on_c, 6, 62, 82
8, 5455, Note_off_c, 6, 62, 64
8, 5501, Note_on_c, 6, 62, 70
8, 5568, Note_off_c, 6, 62, 64
8, 5620, Note_on_c, 6, 64, 82
8, 5677, Note_off_c, 6, 64, 64
8, 5740, Note_on_c, 6, 66, 89
8, 5893, Note_off_c, 6, 66, 64
8, 5981, Note_on_c, 6, 64, 82
8, 6042, Note_off_c, 6, 64, 64
8, 6102, Note_on_c, 6, 68, 82
8, 6177, Note_off_c, 6, 68, 64
8, 6218, Note_on_c, 6, 69, 85
8, 6278, Note_off_c, 6, 69, 64
8, 6336, Note_on_c, 6, 71, 87
8, 6397, Note_off_c, 6, 71, 64
8, 6462, Note_on_c, 6, 64, 80
8, 6532, Note_off_c, 6, 64, 64
8, 6577, Note_on_c, 6, 64, 76
8, 6642, Note_off_c, 6, 64, 64
8, 6694, Note_on_c, 6, 71, 80
8, 6768, Note_off_c, 6, 71, 64
8, 6819, Note_on_c, 6, 74, 85
8, 6891, Note_off_c, 6, 74, 64
8, 6944, Note_on_c, 6, 73, 80
8, 7007, Note_off_c, 6, 73, 64
8, 7056, Note_on_c, 6, 66, 64
8, 7122, Note_off_c, 6, 66, 64
8, 7183, Note_on_c, 6, 64, 70
8, 7261, Note_off_c, 6, 64, 64
8, 7300, Note_on_c, 6, 64, 53
8, 7379, Note_off_c, 6, 64, 64
8, 7430, Note_on_c, 6, 64, 63
8, 7495, Note_off_c, 6, 64, 64
8, 7558, Note_on_c, 6, 64, 66
8, 7620, Note_off_c, 6, 64, 64
8, 7679, Note_on_c, 6, 64, 64
8, 7739, Note_off_c, 6, 64, 64
8, 7793, Note_on_c, 6, 64, 64
8, 7845, Note_off_c, 6, 64, 64
8, 7913, Note_on_c, 6, 62, 66
8, 7983, Note_off_c, 6, 62, 64
8, 8035, Note_on_c, 6, 74, 87
8, 8097, Note_off_c, 6, 74, 64
8, 8157, Note_on_c, 6, 73, 64
8, 8217, Note_off_c, 6, 73, 64
8, 8271, Note_on_c, 6, 74, 85
8, 8338, Note_off_c, 6, 74, 64
8, 8387, Note_on_c, 6, 71, 74
8, 8449, Note_off_c, 6, 71, 64
8, 8509, Note_on_c, 6, 76, 85
8, 8561, Note_off_c, 6, 76, 64
8, 8645, Note_on_c, 6, 73, 82
8, 8882, Note_off_c, 6, 73, 64
8, 17635, Note_on_c, 6, 69, 57
8, 17688, Note_off_c, 6, 69, 64
8, 17759, Note_on_c, 6, 69, 60
8, 17809, Note_off_c, 6, 69, 64
8, 17877, Note_on_c, 6, 69, 58
8, 17928, Note_off_c, 6, 69, 64
8, 18003, Note_on_c, 6, 69, 59
8, 18070, Note_off_c, 6, 69, 64
8, 18117, Note_on_c, 6, 69, 53
8, 18180, Note_off_c, 6, 69, 64
8, 18235, Note_on_c, 6, 69, 51
8, 18288, Note_off_c, 6, 69, 64
8, 18350, Note_on_c, 6, 69, 51
8, 18404, Note_off_c, 6, 69, 64
8, 18466, Note_on_c, 6, 69, 52
8, 18523, Note_off_c, 6, 69, 64
8, 18593, Note_on_c, 6, 69, 58
8, 18642, Note_off_c, 6, 69, 64
8, 18721, Note_on_c, 6, 69, 59
8, 18775, Note_off_c, 6, 69, 64
8, 18834, Note_on_c, 6, 69, 57
8, 18892, Note_off_c, 6, 69, 64
8, 18948, Note_on_c, 6, 69, 57
8, 19010, Note_off_c, 6, 69, 64
8, 19070, Note_on_c, 6, 69, 63
8, 19128, Note_off_c, 6, 69, 64
8, 19190, Note_on_c, 6, 69, 63
8, 19253, Note_off_c, 6, 69, 64
8, 19305, Note_on_c, 6, 67, 53
8, 19371, Note_off_c, 6, 67, 64
8, 19429, Note_on_c, 6, 66, 59
8, 19504, Note_off_c, 6, 66, 64
8, 19546, Note_on_c, 6, 71, 52
8, 19607, Note_off_c, 6, 71, 64
8, 19669, Note_on_c, 6, 71, 57
8, 19732, Note_off_c, 6, 71, 64
8, 19788, Note_on_c, 6, 71, 52
8, 19846, Note_off_c, 6, 71, 64
8, 19907, Note_on_c, 6, 71, 57
8, 19962, Note_off_c, 6, 71, 64
8, 20027, Note_on_c, 6, 71, 55
8, 20078, Note_off_c, 6, 71, 64
8, 20148, Note_on_c, 6, 71, 60
8, 20190, Note_off_c, 6, 71, 64
8, 20270, Note_on_c, 6, 71, 72
8, 20422, Note_off_c, 6, 71, 64
8, 20512, Note_on_c, 6, 71, 66
8, 20564, Note_off_c, 6, 71, 64
8, 20627, Note_on_c, 6, 71, 66
8, 20687, Note_off_c, 6, 71, 64
8, 20748, Note_on_c, 6, 72, 68
8, 20800, Note_off_c, 6, 72, 64
8, 20868, Note_on_c, 6, 66, 55
8, 20940, Note_off_c, 6, 66, 64
8, 20985, Note_on_c, 6, 69, 76
8, 21048, Note_off_c, 6, 69, 64
8, 21107, Note_on_c, 6, 67, 68
8, 21179, Note_off_c, 6, 67, 64
8, 21228, Note_on_c, 6, 71, 74
8, 21278, Note_off_c, 6, 71, 64
8, 21344, Note_on_c, 6, 71, 72
8, 21399, Note_off_c, 6, 71, 64
8, 21461, Note_on_c, 6, 64, 59
8, 21505, Note_off_c, 6, 64, 64
8, 21574, Note_on_c, 6, 71, 66
8, 21621, Note_off_c, 6, 71, 64
8, 21690, Note_on_c, 6, 71, 72
8, 21850, Note_off_c, 6, 71, 64
8, 21942, Note_on_c, 6, 73, 62
8, 21997, Note_off_c, 6, 73, 64
8, 22061, Note_on_c, 6, 66, 58
8, 22114, Note_off_c, 6, 66, 64
8, 22178, Note_on_c, 6, 71, 62
8, 22240, Note_off_c, 6, 71, 64
8, 22297, Note_on_c, 6, 70, 60
8, 22365, Note_off_c, 6, 70, 64
8, 22423, Note_on_c, 6, 73, 57
8, 22486, Note_off_c, 6, 73, 64
8, 22540, Note_on_c, 6, 66, 53
8, 22608, Note_off_c, 6, 66, 64
8, 22661, Note_on_c, 6, 66, 57
8, 22727, Note_off_c, 6, 66, 64
8, 22779, Note_on_c, 6, 66, 57
8, 22838, Note_off_c, 6, 66, 64
8, 22905, Note_on_c, 6, 66, 54
8, 22959, Note_off_c, 6, 66, 64
8, 23023, Note_on_c, 6, 67, 72
8, 23083, Note_off_c, 6, 67, 64
8, 23136, Note_on_c, 6, 66, 57
8, 23195, Note_off_c, 6, 66, 64
8, 23250, Note_on_c, 6, 71, 66
8, 23317, Note_off_c, 6, 71, 64
8, 23379, Note_on_c, 6, 67, 66
8, 23432, Note_off_c, 6, 67, 64
8, 23501, Note_on_c, 6, 66, 60
8, 23554, Note_off_c, 6, 66, 64
8, 23621, Note_on_c, 6, 71, 68
8, 23669, Note_off_c, 6, 71, 64
8, 23749, Note_on_c, 6, 66, 58
8, 24003, Note_off_c, 6, 66, 64
8, 24105, Note_on_c, 6, 66, 58
8, 24158, Note_off_c, 6, 66, 64
8, 24222, Note_on_c, 6, 66, 59
8, 24272, Note_off_c, 6, 66, 64
8, 24345, Note_on_c, 6, 66, 61
8, 24394, Note_off_c, 6, 66, 64
8, 24469, Note_on_c, 6, 66, 58
8, 24719, Note_off_c, 6, 66, 64
8, 24826, Note_on_c, 6, 66, 62
8, 24883, Note_off_c, 6, 66, 64
8, 24943, Note_on_c, 6, 70, 63
8, 24991, Note_off_c, 6, 70, 64
8, 25063, Note_on_c, 6, 73, 63
8, 25114, Note_off_c, 6, 73, 64
8, 25179, Note_on_c, 6, 74, 82
8, 25279, Note_off_c, 6, 74, 64
8, 25550, Note_on_c, 6, 64, 59
8, 25601, Note_off_c, 6, 64, 64
8, 25670, Note_on_c, 6, 64, 66
8, 25727, Note_off_c, 6, 64, 64
8, 25785, Note_on_c, 6, 66, 66
8, 25825, Note_off_c, 6, 66, 64
8, 25900, Note_on_c, 6, 68, 66
8, 25984, Note_off_c, 6, 68, 64
8, 26142, Note_on_c, 6, 66, 57
8, 26213, Note_off_c, 6, 66, 64
8, 26267, Note_on_c, 6, 70, 70
8, 26331, Note_off_c, 6, 70, 64
8, 26379, Note_on_c, 6, 71, 72
8, 26443, Note_off_c, 6, 71, 64
8, 26508, Note_on_c, 6, 73, 64
8, 26567, Note_off_c, 6, 73, 64
8, 26629, Note_on_c, 6, 66, 62
8, 26693, Note_off_c, 6, 66, 64
8, 26751, Note_on_c, 6, 66, 59
8, 26806, Note_off_c, 6, 66, 64
8, 26872, Note_on_c, 6, 64, 62
8, 26927, Note_off_c, 6, 64, 64
8, 26991, Note_on_c, 6, 64, 66
8, 27041, Note_off_c, 6, 64, 64
8, 27111, Note_on_c, 6, 62, 63
8, 27174, Note_off_c, 6, 62, 64
8, 27224, Note_on_c, 6, 67, 70
8, 27284, Note_off_c, 6, 67, 64
8, 27347, Note_on_c, 6, 66, 59
8, 27421, Note_off_c, 6, 66, 64
8, 27470, Note_on_c, 6, 66, 58
8, 27537, Note_off_c, 6, 66, 64
8, 27595, Note_on_c, 6, 66, 60
8, 27653, Note_off_c, 6, 66, 64
8, 27709, Note_on_c, 6, 66, 60
8, 27777, Note_off_c, 6, 66, 64
8, 27831, Note_on_c, 6, 73, 61
8, 27887, Note_off_c, 6, 73, 64
8, 27941, Note_on_c, 6, 66, 61
8, 27998, Note_off_c, 6, 66, 64
8, 28068, Note_on_c, 6, 64, 68
8, 28130, Note_off_c, 6, 64, 64
8, 28190, Note_on_c, 6, 62, 59
8, 28260, Note_off_c, 6, 62, 64
8, 28307, Note_on_c, 6, 62, 63
8, 28379, Note_off_c, 6, 62, 64
8, 28425, Note_on_c, 6, 64, 59
8, 28488, Note_off_c, 6, 64, 64
8, 28547, Note_on_c, 6, 64, 66
8, 28608, Note_off_c, 6, 64, 64
8, 28672, Note_on_c, 6, 64, 64
8, 28726, Note_off_c, 6, 64, 64
8, 28801, Note_on_c, 6, 62, 70
8, 29055, Note_off_c, 6, 62, 64
8, 43555, Note_on_c, 6, 69, 57
8, 43608, Note_off_c, 6, 69, 64
8, 43679, Note_on_c, 6, 69, 60
8, 43729, Note_off_c, 6, 69, 64
8, 43797, Note_on_c, 6, 69, 58
8, 43848, Note_off_c, 6, 69, 64
8, 43923, Note_on_c, 6, 69, 59
8, 43990, Note_off_c, 6, 69, 64
8, 44037, Note_on_c, 6, 69, 53
8, 44100, Note_off_c, 6, 69, 64
8, 44155, Note_on_c, 6, 69, 51
8, 44208, Note_off_c, 6, 69, 64
8, 44270, Note_on_c, 6, 69, 51
8, 44324, Note_off_c, 6, 69, 64
8, 44386, Note_on_c, 6, 69, 52
8, 44443, Note_off_c, 6, 69, 64
8, 44513, Note_on_c, 6, 69, 58
8, 44562, Note_off_c, 6, 69, 64
8, 44641, Note_on_c, 6, 69, 59
8, 44695, Note_off_c, 6, 69, 64
8, 44754, Note_on_c, 6, 69, 57
8, 44812, Note_off_c, 6, 69, 64
8, 44868, Note_on_c, 6, 69, 57
8, 44930, Note_off_c, 6, 69, 64
8, 44990, Note_on_c, 6, 69, 63
8, 45048, Note_off_c, 6, 69, 64
8, 45110, Note_on_c, 6, 69, 63
8, 45173, Note_off_c, 6, 69, 64
8, 45225, Note_on_c, 6, 67, 53
8, 45291, Note_off_c, 6, 67, 64
8, 45349, Note_on_c, 6, 66, 59
8, 45424, Note_off_c, 6, 66, 64
8, 45466, Note_on_c, 6, 71, 52
8, 45527, Note_off_c, 6, 71, 64
8, 45589, Note_on_c, 6, 71, 57
8, 45652, Note_off_c, 6, 71, 64
8, 45708, Note_on_c, 6, 71, 52
8, 45766, Note_off_c, 6, 71, 64
8, 45827, Note_on_c, 6, 71, 57
8, 45882, Note_off_c, 6, 71, 64
8, 45947, Note_on_c, 6, 71, 55
8, 45998, Note_off_c, 6, 71, 64
8, 46068, Note_on_c, 6, 71, 60
8, 46110, Note_off_c, 6, 71, 64
8, 46190, Note_on_c, 6, 71, 72
8, 46342, Note_off_c, 6, 71, 64
8, 46432, Note_on_c, 6, 71, 66
8, 46484, Note_off_c, 6, 71, 64
8, 46547, Note_on_c, 6, 71, 66
8, 46607, Note_off_c, 6, 71, 64
8, 46668, Note_on_c, 6, 72, 68
8, 46720, Note_off_c, 6, 72, 64
8, 46788, Note_on_c, 6, 66, 55
8, 46860, Note_off_c, 6, 66, 64
8, 46905, Note_on_c, 6, 69, 76
8, 46968, Note_off_c, 6, 69, 64
8, 47027, Note_on_c, 6, 67, 68
8, 47099, Note_off_c, 6, 67, 64
8, 47148, Note_on_c, 6, 71, 74
8, 47198, Note_off_c, 6, 71, 64
8, 47264, Note_on_c, 6, 71, 72
8, 47319, Note_off_c, 6, 71, 64
8, 47381, Note_on_c, 6, 64, 59
8, 47425, Note_off_c, 6, 64, 64
8, 47494, Note_on_c, 6, 71, 66
8, 47541, Note_off_c, 6, 71, 64
8, 47610, Note_on_c, 6, 71, 72
8, 47770, Note_off_c, 6, 71, 64
8, 47862, Note_on_c, 6, 73, 62
8, 47917, Note_off_c, 6, 73, 64
8, 47981, Note_on_c, 6, 66, 58
8, 48034, Note_off_c, 6, 66, 64
8, 48098, Note_on_c, 6, 71, 62
8, 48160, Note_off_c, 6, 71, 64
8, 48217, Note_on_c, 6, 70, 60
8, 48285, Note_off_c, 6, 70, 64
8, 48343, Note_on_c, 6, 73, 57
8, 48406, Note_off_c, 6, 73, 64
8, 48460, Note_on_c, 6, 66, 53
8, 48528, Note_off_c, 6, 66, 64
8, 48581, Note_on_c, 6, 66, 57
8, 48647, Note_off_c, 6, 66, 64
8, 48699, Note_on_c, 6, 66, 57
8, 48758, Note_off_c, 6, 66, 64
8, 48825, Note_on_c, 6, 66, 54
8, 48879, Note_off_c, 6, 66, 64
8, 48943, Note_on_c, 6, 67, 72
8, 49003, Note_off_c, 6, 67, 64
8, 49056, Note_on_c, 6, 66, 57
8, 49115, Note_off_c, 6, 66, 64
8, 49170, Note_on_c, 6, 71, 66
8, 49237, Note_off_c, 6, 71, 64
8, 49299, Note_on_c, 6, 67, 66
8, 49352, Note_off_c, 6, 67, 64
8, 49421, Note_on_c, 6, 66, 60
8, 49474, Note_off_c, 6, 66, 64
8, 49541, Note_on_c, 6, 71, 68
8, 49589, Note_off_c, 6, 71, 64
8, 49669, Note_on_c, 6, 66, 58
8, 49923, Note_off_c, 6, 66, 64
8, 50025, Note_on_c, 6, 66, 58
8, 50078, Note_off_c, 6, 66, 64
8, 50142, Note_on_c, 6, 66, 59
8, 50192, Note_off_c, 6, 66, 64
8, 50265, Note_on_c, 6, 66, 61
8, 50314, Note_off_c, 6, 66, 64
8, 50389, Note_on_c, 6, 66, 58
8, 50639, Note_off_c, 6, 66, 64
8, 50746, Note_on_c, 6, 66, 62
8, 50803, Note_off_c, 6, 66, 64
8, 50863, Note_on_c, 6, 70, 63
8, 50911, Note_off_c, 6, 70, 64
8, 50983, Note_on_c, 6, 73, 63
8, 51034, Note_off_c, 6, 73, 64
8, 51099, Note_on_c, 6, 74, 82
8, 51199, Note_off_c, 6, 74, 64
8, 51470, Note_on_c, 6, 64, 59
8, 51521, Note_off_c, 6, 64, 64
8, 51590, Note_on_c, 6, 64, 66
8, 51647, Note_off_c, 6, 64, 64
8, 51705, Note_on_c, 6, 66, 66
8, 51745, Note_off_c, 6, 66, 64
8, 51820, Note_on_c, 6, 68, 66
8, 51904, Note_off_c, 6, 68, 64
8, 52062, Note_on_c, 6, 66, 57
8, 52133, Note_off_c, 6, 66, 64
8, 52187, Note_on_c, 6, 70, 70
8, 52251, Note_off_c, 6, 70, 64
8, 52299, Note_on_c, 6, 71, 72
8, 52363, Note_off_c, 6, 71, 64
8, 52428, Note_on_c, 6, 73, 64
8, 52487, Note_off_c, 6, 73, 64
8, 52549, Note_on_c, 6, 66, 62
8, 52613, Note_off_c, 6, 66, 64
8, 52671, Note_on_c, 6, 66, 59
8, 52726, Note_off_c, 6, 66, 64
8, 52792, Note_on_c, 6, 64, 62
8, 52847, Note_off_c, 6, 64, 64
8, 52911, Note_on_c, 6, 64, 66
8, 52961, Note_off_c, 6, 64, 64
8, 53031, Note_on_c, 6, 62, 63
8, 53094, Note_off_c, 6, 62, 64
8, 53144, Note_on_c, 6, 67, 70
8, 53204, Note_off_c, 6, 67, 64
8, 53267, Note_on_c, 6, 66, 59
8, 53341, Note_off_c, 6, 66, 64
8, 53390, Note_on_c, 6, 66, 58
8, 53457, Note_off_c, 6, 66, 64
8, 53515, Note_on_c, 6, 66, 60
8, 53573, Note_off_c, 6, 66, 64
8, 53629, Note_on_c, 6, 66, 60
8, 53697, Note_off_c, 6, 66, 64
8, 53751, Note_on_c, 6, 73, 61
8, 53807, Note_off_c, 6, 73, 64
8, 53861, Note_on_c, 6, 66, 61
8, 53918, Note_off_c, 6, 66, 64
8, 53988, Note_on_c, 6, 64, 68
8, 54050, Note_off_c, 6, 64, 64
8, 54110, Note_on_c, 6, 62, 59
8, 54180, Note_off_c, 6, 62, 64
8, 54227, Note_on_c, 6, 62, 63
8, 54299, Note_off_c, 6, 62, 64
8, 54345, Note_on_c, 6, 64, 59
8, 54408, Note_off_c, 6, 64, 64
8, 54467, Note_on_c, 6, 64, 66
8, 54528, Note_off_c, 6, 64, 64
8, 54592, Note_on_c, 6, 64, 64
8, 54646, Note_off_c, 6, 64, 64
8, 54721, Note_on_c, 6, 62, 70
8, 54975, Note_off_c, 6, 62, 64
8, 54975, End_track
9, 0, Start_track
9, 0, Title_t, "Bassoon"
9, 0, Program_c, 7, 70
9, 0, Control_c, 7, 7, 100
9, 356, Note_on_c, 7, 62, 87
9, 400, Note_off_c, 7, 62, 64
9, 406, Note_on_c, 7, 61, 102
9, 454, Note_off_c, 7, 61, 64
9, 465, Note_on_c, 7, 62, 89
9, 527, Note_off_c, 7, 62, 64
9, 592, Note_on_c, 7, 55, 85
9, 654, Note_off_c, 7, 55, 64
9, 712, Note_on_c, 7, 57, 87
9, 770, Note_off_c, 7, 57, 64
9, 825, Note_on_c, 7, 52, 82
9, 894, Note_off_c, 7, 52, 64
9, 941, Note_on_c, 7, 54, 80
9, 1023, Note_off_c, 7, 54, 64
9, 1062, Note_on_c, 7, 50, 80
9, 1116, Note_on_c, 7, 52, 93
9, 1122, Note_off_c, 7, 50, 64
9, 1164, Note_off_c, 7, 52, 64
9, 1177, Note_on_c, 7, 54, 91
9, 1244, Note_off_c, 7, 54, 64
9, 1304, Note_on_c, 7, 55, 74
9, 1377, Note_off_c, 7, 55, 64
9, 1433, Note_on_c, 7, 57, 87
9, 1510, Note_off_c, 7, 57, 64
9, 1558, Note_on_c, 7, 62, 95
9, 1609, Note_on_c, 7, 61, 95
9, 1620, Note_off_c, 7, 62, 64
9, 1652, Note_off_c, 7, 61, 64
9, 1666, Note_on_c, 7, 62, 93
9, 1745, Note_off_c, 7, 62, 64
9, 1788, Note_on_c, 7, 59, 85
9, 1853, Note_off_c, 7, 59, 64
9, 1913, Note_on_c, 7, 61, 80
9, 1974, Note_off_c, 7, 61, 64
9, 2036, Note_on_c, 7, 57, 87
9, 2100, Note_off_c, 7, 57, 64
9, 2158, Note_on_c, 7, 59, 82
9, 2226, Note_off_c, 7, 59, 64
9, 2281, Note_on_c, 7, 56, 72
9, 2330, Note_off_c, 7, 56, 64
9, 2401, Note_on_c, 7, 57, 85
9, 2463, Note_off_c, 7, 57, 64
9, 2511, Note_on_c, 7, 49, 78
9, 2566, Note_off_c, 7, 49, 64
9, 2629, Note_on_c, 7, 47, 85
9, 2682, Note_off_c, 7, 47, 64
9, 2744, Note_on_c, 7, 45, 78
9, 2816, Note_off_c, 7, 45, 64
9, 2868, Note_on_c, 7, 50, 89
9, 2935, Note_off_c, 7, 50, 64
9, 2989, Note_on_c, 7, 52, 87
9, 3053, Note_off_c, 7, 52, 64
9, 3105, Note_on_c, 7, 54, 93
9, 3203, Note_off_c, 7, 54, 64
9, 3222, Note_on_c, 7, 52, 85
9, 3260, Note_off_c, 7, 52, 64
9, 3272, Note_on_c, 7, 50, 80
9, 3335, Note_off_c, 7, 50, 64
9, 3338, Note_on_c, 7, 49, 76
9, 3408, Note_off_c, 7, 49, 64
9, 3462, Note_on_c, 7, 50, 85
9, 3523, Note_off_c, 7, 50, 64
9, 3587, Note_on_c, 7, 52, 85
9, 3817, Note_off_c, 7, 52, 64
9, 3950, Note_on_c, 7, 57, 89
9, 3999, Note_on_c, 7, 56, 87
9, 4007, Note_off_c, 7, 57, 64
9, 4046, Note_off_c, 7, 56, 64
9, 4059, Note_on_c, 7, 57, 89
9, 4123, Note_off_c, 7, 57, 64
9, 4181, Note_on_c, 7, 59, 78
9, 4230, Note_off_c, 7, 59, 64
9, 4305, Note_on_c, 7, 57, 89
9, 4330, Note_on_c, 7, 56, 82
9, 4337, Note_off_c, 7, 57, 64
9, 4358, Note_on_c, 7, 57, 64
9, 4361, Note_off_c, 7, 56, 64
9, 4384, Note_on_c, 7, 56, 80
9, 4394, Note_off_c, 7, 57, 64
9, 4429, Note_on_c, 7, 54, 78
9, 4433, Note_off_c, 7, 56, 64
9, 4464, Note_off_c, 7, 54, 64
9, 4485, Note_on_c, 7, 52, 76
9, 4526, Note_off_c, 7, 52, 64
9, 4543, Note_on_c, 7, 64, 85
9, 4643, Note_off_c, 7, 64, 64
9, 4781, Note_on_c, 7, 62, 82
9, 4890, Note_off_c, 7, 62, 64
9, 5129, Note_on_c, 7, 61, 70
9, 5176, Note_on_c, 7, 59, 85
9, 5182, Note_off_c, 7, 61, 64
9, 5219, Note_off_c, 7, 59, 64
9, 5239, Note_on_c, 7, 61, 91
9, 5291, Note_off_c, 7, 61, 64
9, 5367, Note_on_c, 7, 62, 82
9, 5425, Note_off_c, 7, 62, 64
9, 5499, Note_on_c, 7, 61, 102
9, 5521, Note_on_c, 7, 59, 80
9, 5523, Note_off_c, 7, 61, 64
9, 5554, Note_on_c, 7, 61, 80
9, 5560, Note_off_c, 7, 59, 64
9, 5581, Note_on_c, 7, 59, 82
9, 5601, Note_off_c, 7, 61, 64
9, 5620, Note_on_c, 7, 57, 78
9, 5623, Note_off_c, 7, 59, 64
9, 5673, Note_on_c, 7, 56, 98
9, 5679, Note_off_c, 7, 57, 64
9, 5701, Note_off_c, 7, 56, 64
9, 5736, Note_on_c, 7, 63, 95
9, 5853, Note_off_c, 7, 63, 64
9, 5993, Note_on_c, 7, 64, 85
9, 6045, Note_off_c, 7, 64, 64
9, 6107, Note_on_c, 7, 52, 66
9, 6166, Note_off_c, 7, 52, 64
9, 6222, Note_on_c, 7, 54, 64
9, 6284, Note_off_c, 7, 54, 64
9, 6344, Note_on_c, 7, 56, 89
9, 6400, Note_off_c, 7, 56, 64
9, 6463, Note_on_c, 7, 57, 87
9, 6535, Note_off_c, 7, 57, 64
9, 6587, Note_on_c, 7, 49, 63
9, 6657, Note_off_c, 7, 49, 64
9, 6706, Note_on_c, 7, 50, 80
9, 6774, Note_off_c, 7, 50, 64
9, 6826, Note_on_c, 7, 52, 76
9, 6893, Note_off_c, 7, 52, 64
9, 6944, Note_on_c, 7, 54, 72
9, 7018, Note_off_c, 7, 54, 64
9, 7063, Note_on_c, 7, 50, 64
9, 7134, Note_off_c, 7, 50, 64
9, 7183, Note_on_c, 7, 56, 80
9, 7246, Note_off_c, 7, 56, 64
9, 7306, Note_on_c, 7, 52, 78
9, 7373, Note_off_c, 7, 52, 64
9, 7432, Note_on_c, 7, 57, 89
9, 7502, Note_off_c, 7, 57, 64
9, 7563, Note_on_c, 7, 49, 74
9, 7628, Note_off_c, 7, 49, 64
9, 7676, Note_on_c, 7, 47, 85
9, 7746, Note_off_c, 7, 47, 64
9, 7800, Note_on_c, 7, 45, 80
9, 7859, Note_off_c, 7, 45, 64
9, 7918, Note_on_c, 7, 50, 80
9, 7982, Note_off_c, 7, 50, 64
9, 8036, Note_on_c, 7, 52, 82
9, 8098, Note_off_c, 7, 52, 64
9, 8152, Note_on_c, 7, 54, 66
9, 8211, Note_off_c, 7, 54, 64
9, 8269, Note_on_c, 7, 50, 80
9, 8324, Note_off_c, 7, 50, 64
9, 8393, Note_on_c, 7, 52, 85
9, 8445, Note_off_c, 7, 52, 64
9, 8512, Note_on_c, 7, 40, 89
9, 8575, Note_off_c, 7, 40, 64
9, 8641, Note_on_c, 7, 45, 89
9, 8892, Note_off_c, 7, 45, 64
9, 18349, Note_on_c, 7, 50, 85
9, 18400, Note_on_c, 7, 52, 78
9, 18403, Note_off_c, 7, 50, 64
9, 18447, Note_off_c, 7, 52, 64
9, 18466, Note_on_c, 7, 54, 82
9, 18519, Note_off_c, 7, 54, 64
9, 18589, Note_on_c, 7, 57, 68
9, 18620, Note_off_c, 7, 57, 64
9, 18714, Note_on_c, 7, 62, 78
9, 18761, Note_off_c, 7, 62, 64
9, 18833, Note_on_c, 7, 57, 64
9, 18875, Note_off_c, 7, 57, 64
9, 18963, Note_on_c, 7, 45, 66
9, 19075, Note_off_c, 7, 45, 64
9, 19793, Note_on_c, 7, 52, 72
9, 19842, Note_on_c, 7, 54, 80
9, 19847, Note_off_c, 7, 52, 64
9, 19890, Note_off_c, 7, 54, 64
9, 19908, Note_on_c, 7, 55, 76
9, 19963, Note_off_c, 7, 55, 64
9, 20025, Note_on_c, 7, 59, 72
9, 20069, Note_off_c, 7, 59, 64
9, 20151, Note_on_c, 7, 64, 80
9, 20202, Note_off_c, 7, 64, 64
9, 20269, Note_on_c, 7, 59, 76
9, 20308, Note_off_c, 7, 59, 64
9, 20396, Note_on_c, 7, 47, 78
9, 20474, Note_off_c, 7, 47, 64
9, 20514, Note_on_c, 7, 52, 68
9, 20554, Note_off_c, 7, 52, 64
9, 20562, Note_on_c, 7, 51, 62
9, 20613, Note_off_c, 7, 51, 64
9, 20625, Note_on_c, 7, 52, 80
9, 20665, Note_off_c, 7, 52, 64
9, 20748, Note_on_c, 7, 45, 80
9, 20798, Note_off_c, 7, 45, 64
9, 20872, Note_on_c, 7, 47, 76
9, 20920, Note_off_c, 7, 47, 64
9, 20987, Note_on_c, 7, 42, 72
9, 21040, Note_off_c, 7, 42, 64
9, 21113, Note_on_c, 7, 43, 66
9, 21187, Note_off_c, 7, 43, 64
9, 21231, Note_on_c, 7, 40, 76
9, 21282, Note_on_c, 7, 42, 78
9, 21286, Note_off_c, 7, 40, 64
9, 21320, Note_off_c, 7, 42, 64
9, 21342, Note_on_c, 7, 43, 85
9, 21403, Note_off_c, 7, 43, 64
9, 21463, Note_on_c, 7, 45, 78
9, 21495, Note_off_c, 7, 45, 64
9, 21582, Note_on_c, 7, 47, 78
9, 21637, Note_off_c, 7, 47, 64
9, 21703, Note_on_c, 7, 52, 82
9, 21750, Note_on_c, 7, 51, 74
9, 21758, Note_off_c, 7, 52, 64
9, 21794, Note_off_c, 7, 51, 64
9, 21815, Note_on_c, 7, 52, 80
9, 21871, Note_off_c, 7, 52, 64
9, 21943, Note_on_c, 7, 49, 64
9, 21997, Note_off_c, 7, 49, 64
9, 22068, Note_on_c, 7, 50, 68
9, 22123, Note_off_c, 7, 50, 64
9, 22184, Note_on_c, 7, 47, 68
9, 22239, Note_off_c, 7, 47, 64
9, 22303, Note_on_c, 7, 49, 63
9, 22356, Note_off_c, 7, 49, 64
9, 22423, Note_on_c, 7, 46, 60
9, 22471, Note_off_c, 7, 46, 64
9, 22540, Note_on_c, 7, 47, 70
9, 22596, Note_off_c, 7, 47, 64
9, 22660, Note_on_c, 7, 50, 70
9, 22714, Note_off_c, 7, 50, 64
9, 22782, Note_on_c, 7, 49, 62
9, 22824, Note_off_c, 7, 49, 64
9, 22903, Note_on_c, 7, 47, 64
9, 22950, Note_off_c, 7, 47, 64
9, 23024, Note_on_c, 7, 52, 76
9, 23068, Note_off_c, 7, 52, 64
9, 23145, Note_on_c, 7, 54, 68
9, 23186, Note_off_c, 7, 54, 64
9, 23263, Note_on_c, 7, 55, 72
9, 23360, Note_off_c, 7, 55, 64
9, 23390, Note_on_c, 7, 54, 85
9, 23431, Note_off_c, 7, 54, 64
9, 23441, Note_on_c, 7, 52, 70
9, 23479, Note_off_c, 7, 52, 64
9, 23507, Note_on_c, 7, 50, 85
9, 23559, Note_off_c, 7, 50, 64
9, 23629, Note_on_c, 7, 52, 80
9, 23667, Note_off_c, 7, 52, 64
9, 23751, Note_on_c, 7, 54, 87
9, 23998, Note_off_c, 7, 54, 64
9, 24111, Note_on_c, 7, 47, 78
9, 24163, Note_off_c, 7, 47, 64
9, 24164, Note_on_c, 7, 46, 62
9, 24211, Note_off_c, 7, 46, 64
9, 24223, Note_on_c, 7, 47, 89
9, 24280, Note_off_c, 7, 47, 64
9, 24347, Note_on_c, 7, 49, 82
9, 24384, Note_off_c, 7, 49, 64
9, 24468, Note_on_c, 7, 47, 87
9, 24497, Note_on_c, 7, 46, 64
9, 24499, Note_off_c, 7, 47, 64
9, 24517, Note_on_c, 7, 47, 63
9, 24518, Note_off_c, 7, 46, 64
9, 24543, Note_on_c, 7, 46, 66
9, 24555, Note_off_c, 7, 47, 64
9, 24576, Note_on_c, 7, 44, 60
9, 24586, Note_off_c, 7, 46, 64
9, 24612, Note_off_c, 7, 44, 64
9, 24644, Note_on_c, 7, 42, 76
9, 24690, Note_off_c, 7, 42, 64
9, 24711, Note_on_c, 7, 54, 82
9, 24784, Note_off_c, 7, 54, 64
9, 24944, Note_on_c, 7, 52, 82
9, 25021, Note_off_c, 7, 52, 64
9, 25308, Note_on_c, 7, 50, 78
9, 25355, Note_off_c, 7, 50, 64
9, 25362, Note_on_c, 7, 49, 76
9, 25397, Note_off_c, 7, 49, 64
9, 25419, Note_on_c, 7, 50, 82
9, 25469, Note_off_c, 7, 50, 64
9, 25545, Note_on_c, 7, 52, 68
9, 25592, Note_off_c, 7, 52, 64
9, 25666, Note_on_c, 7, 50, 87
9, 25691, Note_on_c, 7, 49, 82
9, 25696, Note_off_c, 7, 50, 64
9, 25716, Note_off_c, 7, 49, 64
9, 25717, Note_on_c, 7, 50, 60
9, 25741, Note_on_c, 7, 49, 68
9, 25754, Note_off_c, 7, 50, 64
9, 25779, Note_off_c, 7, 49, 64
9, 25784, Note_on_c, 7, 47, 60
9, 25825, Note_on_c, 7, 46, 64
9, 25838, Note_off_c, 7, 47, 64
9, 25870, Note_off_c, 7, 46, 64
9, 25907, Note_on_c, 7, 53, 82
9, 25976, Note_off_c, 7, 53, 64
9, 26146, Note_on_c, 7, 54, 85
9, 26202, Note_off_c, 7, 54, 64
9, 26263, Note_on_c, 7, 42, 66
9, 26323, Note_off_c, 7, 42, 64
9, 26384, Note_on_c, 7, 44, 76
9, 26442, Note_off_c, 7, 44, 64
9, 26506, Note_on_c, 7, 46, 72
9, 26547, Note_off_c, 7, 46, 64
9, 26629, Note_on_c, 7, 47, 74
9, 26696, Note_off_c, 7, 47, 64
9, 26750, Note_on_c, 7, 50, 80
9, 26814, Note_off_c, 7, 50, 64
9, 26872, Note_on_c, 7, 52, 78
9, 26935, Note_off_c, 7, 52, 64
9, 26988, Note_on_c, 7, 54, 63
9, 27042, Note_off_c, 7, 54, 64
9, 27106, Note_on_c, 7, 55, 80
9, 27162, Note_off_c, 7, 55, 64
9, 27225, Note_on_c, 7, 52, 68
9, 27276, Note_off_c, 7, 52, 64
9, 27353, Note_on_c, 7, 58, 66
9, 27409, Note_off_c, 7, 58, 64
9, 27475, Note_on_c, 7, 54, 64
9, 27528, Note_off_c, 7, 54, 64
9, 27596, Note_on_c, 7, 59, 80
9, 27651, Note_off_c, 7, 59, 64
9, 27711, Note_on_c, 7, 50, 68
9, 27774, Note_off_c, 7, 50, 64
9, 27830, Note_on_c, 7, 49, 63
9, 27885, Note_off_c, 7, 49, 64
9, 27946, Note_on_c, 7, 47, 66
9, 28001, Note_off_c, 7, 47, 64
9, 28070, Note_on_c, 7, 52, 72
9, 28125, Note_off_c, 7, 52, 64
9, 28190, Note_on_c, 7, 54, 66
9, 28246, Note_off_c, 7, 54, 64
9, 28308, Note_on_c, 7, 55, 76
9, 28364, Note_off_c, 7, 55, 64
9, 28426, Note_on_c, 7, 52, 68
9, 28481, Note_off_c, 7, 52, 64
9, 28555, Note_on_c, 7, 54, 85
9, 28606, Note_off_c, 7, 54, 64
9, 28675, Note_on_c, 7, 42, 68
9, 28725, Note_off_c, 7, 42, 64
9, 28797, Note_on_c, 7, 47, 78
9, 29056, Note_off_c, 7, 47, 64
9, 44269, Note_on_c, 7, 50, 85
9, 44320, Note_on_c, 7, 52, 78
9, 44323, Note_off_c, 7, 50, 64
9, 44367, Note_off_c, 7, 52, 64
9, 44386, Note_on_c, 7, 54, 82
9, 44439, Note_off_c, 7, 54, 64
9, 44509, Note_on_c, 7, 57, 68
9, 44540, Note_off_c, 7, 57, 64
9, 44634, Note_on_c, 7, 62, 78
9, 44681, Note_off_c, 7, 62, 64
9, 44753, Note_on_c, 7, 57, 64
9, 44795, Note_off_c, 7, 57, 64
9, 44883, Note_on_c, 7, 45, 66
9, 44995, Note_off_c, 7, 45, 64
9, 45713, Note_on_c, 7, 52, 72
9, 45762, Note_on_c, 7, 54, 80
9, 45767, Note_off_c, 7, 52, 64
9, 45810, Note_off_c, 7, 54, 64
9, 45828, Note_on_c, 7, 55, 76
9, 45883, Note_off_c, 7, 55, 64
9, 45945, Note_on_c, 7, 59, 72
9, 45989, Note_off_c, 7, 59, 64
9, 46071, Note_on_c, 7, 64, 80
9, 46122, Note_off_c, 7, 64, 64
9, 46189, Note_on_c, 7, 59, 76
9, 46228, Note_off_c, 7, 59, 64
9, 46316, Note_on_c, 7, 47, 78
9, 46394, Note_off_c, 7, 47, 64
9, 46434, Note_on_c, 7, 52, 68
9, 46474, Note_off_c, 7, 52, 64
9, 46482, Note_on_c, 7, 51, 62
9, 46533, Note_off_c, 7, 51, 64
9, 46545, Note_on_c, 7, 52, 80
9, 46585, Note_off_c, 7, 52, 64
9, 46668, Note_on_c, 7, 45, 80
9, 46718, Note_off_c, 7, 45, 64
9, 46792, Note_on_c, 7, 47, 76
9, 46840, Note_off_c, 7, 47, 64
9, 46907, Note_on_c, 7, 42, 72
9, 46960, Note_off_c, 7, 42, 64
9, 47033, Note_on_c, 7, 43, 66
9, 47107, Note_off_c, 7, 43, 64
9, 47151, Note_on_c, 7, 40, 76
9, 47202, Note_on_c, 7, 42, 78
9, 47206, Note_off_c, 7, 40, 64
9, 47240, Note_off_c, 7, 42, 64
9, 47262, Note_on_c, 7, 43, 85
9, 47323, Note_off_c, 7, 43, 64
9, 47383, Note_on_c, 7, 45, 78
9, 47415, Note_off_c, 7, 45, 64
9, 47502, Note_on_c, 7, 47, 78
9, 47557, Note_off_c, 7, 47, 64
9, 47623, Note_on_c, 7, 52, 82
9, 47670, Note_on_c, 7, 51, 74
9, 47678, Note_off_c, 7, 52, 64
9, 47714, Note_off_c, 7, 51, 64
9, 47735, Note_on_c, 7, 52, 80
9, 47791, Note_off_c, 7, 52, 64
9, 47863, Note_on_c, 7, 49, 64
9, 47917, Note_off_c, 7, 49, 64
9, 47988, Note_on_c, 7, 50, 68
9, 48043, Note_off_c, 7, 50, 64
9, 48104, Note_on_c, 7, 47, 68
9, 48159, Note_off_c, 7, 47, 64
9, 48223, Note_on_c, 7, 49, 63
9, 48276, Note_off_c, 7, 49, 64
9, 48343, Note_on_c, 7, 46, 60
9, 48391, Note_off_c, 7, 46, 64
9, 48460, Note_on_c, 7, 47, 70
9, 48516, Note_off_c, 7, 47, 64
9, 48580, Note_on_c, 7, 50, 70
9, 48634, Note_off_c, 7, 50, 64
9, 48702, Note_on_c, 7, 49, 62
9, 48744, Note_off_c, 7, 49, 64
9, 48823, Note_on_c, 7, 47, 64
9, 48870, Note_off_c, 7, 47, 64
9, 48944, Note_on_c, 7, 52, 76
9, 48988, Note_off_c, 7, 52, 64
9, 49065, Note_on_c, 7, 54, 68
9, 49106, Note_off_c, 7, 54, 64
9, 49183, Note_on_c, 7, 55, 72
9, 49280, Note_off_c, 7, 55, 64
9, 49310, Note_on_c, 7, 54, 85
9, 49351, Note_off_c, 7, 54, 64
9, 49361, Note_on_c, 7, 52, 70
9, 49399, Note_off_c, 7, 52, 64
9, 49427, Note_on_c, 7, 50, 85
9, 49479, Note_off_c, 7, 50, 64
9, 49549, Note_on_c, 7, 52, 80
9, 49587, Note_off_c, 7, 52, 64
9, 49671, Note_on_c, 7, 54, 87
9, 49918, Note_off_c, 7, 54, 64
9, 50031, Note_on_c, 7, 47, 78
9, 50083, Note_off_c, 7, 47, 64
9, 50084, Note_on_c, 7, 46, 62
9, 50131, Note_off_c, 7, 46, 64
9, 50143, Note_on_c, 7, 47, 89
9, 50200, Note_off_c, 7, 47, 64
9, 50267, Note_on_c, 7, 49, 82
9, 50304, Note_off_c, 7, 49, 64
9, 50388, Note_on_c, 7, 47, 87
9, 50417, Note_on_c, 7, 46, 64
9, 50419, Note_off_c, 7, 47, 64
9, 50437, Note_on_c, 7, 47, 63
9, 50438, Note_off_c, 7, 46, 64
9, 50463, Note_on_c, 7, 46, 66
9, 50475, Note_off_c, 7, 47, 64
9, 50496, Note_on_c, 7, 44, 60
9, 50506, Note_off_c, 7, 46, 64
9, 50532, Note_off_c, 7, 44, 64
9, 50564, Note_on_c, 7, 42, 76
9, 50610, Note_off_c, 7, 42, 64
9, 50631, Note_on_c, 7, 54, 82
9, 50704, Note_off_c, 7, 54, 64
9, 50864, Note_on_c, 7, 52, 82
9, 50941, Note_off_c, 7, 52, 64
9, 51228, Note_on_c, 7, 50, 78
9, 51275, Note_off_c, 7, 50, 64
9, 51282, Note_on_c, 7, 49, 76
9, 51317, Note_off_c, 7, 49, 64
9, 51339, Note_on_c, 7, 50, 82
9, 51389, Note_off_c, 7, 50, 64
9, 51465, Note_on_c, 7, 52, 68
9, 51512, Note_off_c, 7, 52, 64
9, 51586, Note_on_c, 7, 50, 87
9, 51611, Note_on_c, 7, 49, 82
9, 51616, Note_off_c, 7, 50, 64
9, 51636, Note_off_c, 7, 49, 64
9, 51637, Note_on_c, 7, 50, 60
9, 51661, Note_on_c, 7, 49, 68
9, 51674, Note_off_c, 7, 50, 64
9, 51699, Note_off_c, 7, 49, 64
9, 51704, Note_on_c, 7, 47, 60
9, 51745, Note_on_c, 7, 46, 64
9, 51758, Note_off_c, 7, 47, 64
9, 51790, Note_off_c, 7, 46, 64
9, 51827, Note_on_c, 7, 53, 82
9, 51896, Note_off_c, 7, 53, 64
9, 52066, Note_on_c, 7, 54, 85
9, 52122, Note_off_c, 7, 54, 64
9, 52183, Note_on_c, 7, 42, 66
9, 52243, Note_off_c, 7, 42, 64
9, 52304, Note_on_c, 7, 44, 76
9, 52362, Note_off_c, 7, 44, 64
9, 52426, Note_on_c, 7, 46, 72
9, 52467, Note_off_c, 7, 46, 64
9, 52549, Note_on_c, 7, 47, 74
9, 52616, Note_off_c, 7, 47, 64
9, 52670, Note_on_c, 7, 50, 80
9, 52734, Note_off_c, 7, 50, 64
9, 52792, Note_on_c, 7, 52, 78
9, 52855, Note_off_c, 7, 52, 64
9, 52908, Note_on_c, 7, 54, 63
9, 52962, Note_off_c, 7, 54, 64
9, 53026, Note_on_c, 7, 55, 80
9, 53082, Note_off_c, 7, 55, 64
9, 53145, Note_on_c, 7, 52, 68
9, 53196, Note_off_c, 7, 52, 64
9, 53273, Note_on_c, 7, 58, 66
9, 53329, Note_off_c, 7, 58, 64
9, 53395, Note_on_c, 7, 54, 64
9, 53448, Note_off_c, 7, 54, 64
9, 53516, Note_on_c, 7, 59, 80
9, 53571, Note_off_c, 7, 59, 64
9, 53631, Note_on_c, 7, 50, 68
9, 53694, Note_off_c, 7, 50, 64
9, 53750, Note_on_c, 7, 49, 63
9, 53805, Note_off_c, 7, 49, 64
9, 53866, Note_on_c, 7, 47, 66
9, 53921, Note_off_c, 7, 47, 64
9, 53990, Note_on_c, 7, 52, 72
9, 54045, Note_off_c, 7, 52, 64
9, 54110, Note_on_c, 7, 54, 66
9, 54166, Note_off_c, 7, 54, 64
9, 54228, Note_on_c, 7, 55, 76
9, 54284, Note_off_c, 7, 55, 64
9, 54346, Note_on_c, 7, 52, 68
9, 54401, Note_off_c, 7, 52, 64
9, 54475, Note_on_c, 7, 54, 85
9, 54526, Note_off_c, 7, 54, 64
9, 54595, Note_on_c, 7, 42, 68
9, 54645, Note_off_c, 7, 42, 64
9, 54717, Note_on_c, 7, 47, 78
9, 54976, Note_off_c, 7, 47, 64
9, 54976, End_track
10, 0, Start_track
10, 0, Title_t, "Violin"
10, 0, Program_c, 8, 40
10, 0, Control_c, 8, 7, 100
10, 359, Note_on_c, 8, 78, 93
10, 403, Note_off_c, 8, 78, 64
10, 408, Note_on_c, 8, 76, 93
10, 468, Note_on_c, 8, 78, 100
10, 481, Note_off_c, 8, 76, 64
10, 529, Note_off_c, 8, 78, 64
10, 590, Note_on_c, 8, 79, 87
10, 637, Note_off_c, 8, 79, 64
10, 714, Note_on_c, 8, 78, 105
10, 740, Note_on_c, 8, 76, 82
10, 744, Note_off_c, 8, 78, 64
10, 770, Note_on_c, 8, 78, 70
10, 773, Note_off_c, 8, 76, 64
10, 797, Note_on_c, 8, 76, 85
10, 812, Note_off_c, 8, 78, 64
10, 830, Note_on_c, 8, 74, 63
10, 840, Note_off_c, 8, 76, 64
10, 885, Note_on_c, 8, 73, 85
10, 890, Note_off_c, 8, 74, 64
10, 937, Note_off_c, 8, 73, 64
10, 945, Note_on_c, 8, 74, 87
10, 1000, Note_on_c, 8, 76, 89
10, 1004, Note_off_c, 8, 74, 64
10, 1042, Note_off_c, 8, 76, 64
10, 1054, Note_on_c, 8, 78, 91
10, 1095, Note_off_c, 8, 78, 64
10, 1114, Note_on_c, 8, 79, 87
10, 1161, Note_off_c, 8, 79, 64
10, 1182, Note_on_c, 8, 81, 87
10, 1244, Note_off_c, 8, 81, 64
10, 1310, Note_on_c, 8, 83, 85
10, 1363, Note_off_c, 8, 83, 64
10, 1432, Note_on_c, 8, 81, 100
10, 1459, Note_on_c, 8, 79, 64
10, 1463, Note_off_c, 8, 81, 64
10, 1485, Note_on_c, 8, 81, 70
10, 1495, Note_off_c, 8, 79, 64
10, 1516, Note_on_c, 8, 79, 78
10, 1518, Note_off_c, 8, 81, 64
10, 1552, Note_off_c, 8, 79, 64
10, 1553, Note_on_c, 8, 78, 85
10, 1696, Note_off_c, 8, 78, 64
10, 1797, Note_on_c, 8, 76, 87
10, 1847, Note_off_c, 8, 76, 64
10, 1849, Note_on_c, 8, 74, 87
10, 1905, Note_off_c, 8, 74, 64
10, 1917, Note_on_c, 8, 76, 87
10, 1974, Note_off_c, 8, 76, 64
10, 2036, Note_on_c, 8, 78, 91
10, 2083, Note_off_c, 8, 78, 64
10, 2152, Note_on_c, 8, 76, 102
10, 2176, Note_on_c, 8, 74, 66
10, 2180, Note_off_c, 8, 76, 64
10, 2202, Note_on_c, 8, 76, 66
10, 2205, Note_off_c, 8, 74, 64
10, 2232, Note_on_c, 8, 74, 85
10, 2237, Note_off_c, 8, 76, 64
10, 2272, Note_on_c, 8, 73, 80
10, 2276, Note_off_c, 8, 74, 64
10, 2308, Note_off_c, 8, 73, 64
10, 2330, Note_on_c, 8, 71, 91
10, 2372, Note_off_c, 8, 71, 64
10, 2391, Note_on_c, 8, 73, 85
10, 2443, Note_off_c, 8, 73, 64
10, 2445, Note_on_c, 8, 74, 80
10, 2494, Note_off_c, 8, 74, 64
10, 2507, Note_on_c, 8, 76, 78
10, 2556, Note_off_c, 8, 76, 64
10, 2563, Note_on_c, 8, 78, 85
10, 2607, Note_off_c, 8, 78, 64
10, 2627, Note_on_c, 8, 80, 93
10, 2679, Note_off_c, 8, 80, 64
10, 2745, Note_on_c, 8, 81, 87
10, 2798, Note_off_c, 8, 81, 64
10, 2864, Note_on_c, 8, 73, 89
10, 2890, Note_on_c, 8, 71, 87
10, 2896, Note_off_c, 8, 73, 64
10, 2925, Note_off_c, 8, 71, 64
10, 2926, Note_on_c, 8, 73, 74
10, 2948, Note_on_c, 8, 71, 87
10, 2968, Note_off_c, 8, 73, 64
10, 2979, Note_on_c, 8, 69, 64
10, 2991, Note_off_c, 8, 71, 64
10, 3038, Note_on_c, 8, 68, 89
10, 3039, Note_off_c, 8, 69, 64
10, 3085, Note_off_c, 8, 68, 64
10, 3096, Note_on_c, 8, 69, 80
10, 3156, Note_on_c, 8, 71, 80
10, 3160, Note_off_c, 8, 69, 64
10, 3207, Note_off_c, 8, 71, 64
10, 3209, Note_on_c, 8, 73, 76
10, 3254, Note_off_c, 8, 73, 64
10, 3266, Note_on_c, 8, 74, 80
10, 3320, Note_off_c, 8, 74, 64
10, 3331, Note_on_c, 8, 76, 85
10, 3389, Note_off_c, 8, 76, 64
10, 3456, Note_on_c, 8, 78, 89
10, 3499, Note_off_c, 8, 78, 64
10, 3571, Note_on_c, 8, 69, 89
10, 3580, Note_on_c, 8, 71, 39
10, 3590, Note_off_c, 8, 71, 64
10, 3598, Note_on_c, 8, 68, 89
10, 3604, Note_off_c, 8, 69, 64
10, 3623, Note_off_c, 8, 68, 64
10, 3628, Note_on_c, 8, 69, 61
10, 3649, Note_on_c, 8, 68, 80
10, 3657, Note_off_c, 8, 69, 64
10, 3692, Note_on_c, 8, 66, 66
10, 3707, Note_off_c, 8, 68, 64
10, 3733, Note_off_c, 8, 66, 64
10, 3760, Note_on_c, 8, 64, 89
10, 3807, Note_off_c, 8, 64, 64
10, 3827, Note_on_c, 8, 74, 87
10, 3919, Note_off_c, 8, 74, 64
10, 4069, Note_on_c, 8, 73, 85
10, 4178, Note_off_c, 8, 73, 64
10, 4429, Note_on_c, 8, 74, 93
10, 4487, Note_off_c, 8, 74, 64
10, 4541, Note_on_c, 8, 73, 93
10, 4558, Note_on_c, 8, 71, 85
10, 4567, Note_off_c, 8, 73, 64
10, 4592, Note_on_c, 8, 73, 80
10, 4595, Note_off_c, 8, 71, 64
10, 4619, Note_on_c, 8, 71, 80
10, 4641, Note_off_c, 8, 73, 64
10, 4649, Note_on_c, 8, 69, 76
10, 4656, Note_off_c, 8, 71, 64
10, 4699, Note_on_c, 8, 68, 78
10, 4708, Note_off_c, 8, 69, 64
10, 4726, Note_off_c, 8, 68, 64
10, 4769, Note_on_c, 8, 78, 82
10, 4872, Note_off_c, 8, 78, 64
10, 5034, Note_on_c, 8, 76, 93
10, 5137, Note_off_c, 8, 76, 64
10, 5379, Note_on_c, 8, 78, 89
10, 5425, Note_off_c, 8, 78, 64
10, 5487, Note_on_c, 8, 76, 82
10, 5521, Note_on_c, 8, 74, 87
10, 5522, Note_off_c, 8, 76, 64
10, 5544, Note_on_c, 8, 76, 60
10, 5557, Note_off_c, 8, 74, 64
10, 5576, Note_on_c, 8, 74, 62
10, 5580, Note_off_c, 8, 76, 64
10, 5617, Note_off_c, 8, 74, 64
10, 5619, Note_on_c, 8, 73, 59
10, 5667, Note_off_c, 8, 73, 64
10, 5667, Note_on_c, 8, 71, 89
10, 5707, Note_off_c, 8, 71, 64
10, 5732, Note_on_c, 8, 81, 80
10, 5879, Note_off_c, 8, 81, 64
10, 5969, Note_on_c, 8, 80, 95
10, 6072, Note_off_c, 8, 80, 64
10, 6099, Note_on_c, 8, 81, 82
10, 6142, Note_off_c, 8, 81, 64
10, 6149, Note_on_c, 8, 83, 87
10, 6193, Note_off_c, 8, 83, 64
10, 6221, Note_on_c, 8, 76, 93
10, 6277, Note_off_c, 8, 76, 64
10, 6344, Note_on_c, 8, 74, 89
10, 6396, Note_off_c, 8, 74, 64
10, 6462, Note_on_c, 8, 74, 87
10, 6490, Note_on_c, 8, 73, 76
10, 6497, Note_off_c, 8, 74, 64
10, 6508, Note_on_c, 8, 74, 58
10, 6512, Note_off_c, 8, 73, 64
10, 6539, Note_on_c, 8, 73, 66
10, 6550, Note_off_c, 8, 74, 64
10, 6569, Note_on_c, 8, 71, 68
10, 6580, Note_off_c, 8, 73, 64
10, 6626, Note_off_c, 8, 71, 64
10, 6634, Note_on_c, 8, 69, 82
10, 6671, Note_off_c, 8, 69, 64
10, 6688, Note_on_c, 8, 71, 85
10, 6759, Note_off_c, 8, 71, 64
10, 6811, Note_on_c, 8, 81, 85
10, 6857, Note_off_c, 8, 81, 64
10, 6863, Note_on_c, 8, 80, 91
10, 6909, Note_off_c, 8, 80, 64
10, 6930, Note_on_c, 8, 81, 95
10, 6980, Note_off_c, 8, 81, 64
10, 7059, Note_on_c, 8, 83, 85
10, 7097, Note_off_c, 8, 83, 64
10, 7176, Note_on_c, 8, 76, 82
10, 7211, Note_off_c, 8, 76, 64
10, 7212, Note_on_c, 8, 74, 87
10, 7236, Note_on_c, 8, 76, 70
10, 7245, Note_off_c, 8, 74, 64
10, 7270, Note_on_c, 8, 74, 80
10, 7273, Note_off_c, 8, 76, 64
10, 7318, Note_off_c, 8, 74, 64
10, 7324, Note_on_c, 8, 73, 59
10, 7375, Note_off_c, 8, 73, 64
10, 7378, Note_on_c, 8, 71, 72
10, 7432, Note_off_c, 8, 71, 64
10, 7439, Note_on_c, 8, 73, 68
10, 7490, Note_off_c, 8, 73, 64
10, 7494, Note_on_c, 8, 74, 85
10, 7549, Note_on_c, 8, 76, 78
10, 7556, Note_off_c, 8, 74, 64
10, 7602, Note_off_c, 8, 76, 64
10, 7605, Note_on_c, 8, 78, 80
10, 7648, Note_off_c, 8, 78, 64
10, 7670, Note_on_c, 8, 80, 85
10, 7724, Note_off_c, 8, 80, 64
10, 7788, Note_on_c, 8, 81, 87
10, 7831, Note_off_c, 8, 81, 64
10, 7900, Note_on_c, 8, 73, 95
10, 7921, Note_on_c, 8, 71, 66
10, 7926, Note_off_c, 8, 73, 64
10, 7959, Note_on_c, 8, 73, 93
10, 7967, Note_off_c, 8, 71, 64
10, 7985, Note_on_c, 8, 71, 72
10, 8002, Note_off_c, 8, 73, 64
10, 8018, Note_on_c, 8, 69, 68
10, 8033, Note_off_c, 8, 71, 64
10, 8081, Note_off_c, 8, 69, 64
10, 8084, Note_on_c, 8, 68, 91
10, 8137, Note_off_c, 8, 68, 64
10, 8141, Note_on_c, 8, 69, 85
10, 8197, Note_off_c, 8, 69, 64
10, 8263, Note_on_c, 8, 71, 87
10, 8303, Note_off_c, 8, 71, 64
10, 8378, Note_on_c, 8, 64, 82
10, 8426, Note_off_c, 8, 64, 64
10, 8503, Note_on_c, 8, 68, 80
10, 8553, Note_off_c, 8, 68, 64
10, 8636, Note_on_c, 8, 69, 100
10, 8871, Note_off_c, 8, 69, 64
10, 18349, Note_on_c, 8, 81, 95
10, 18399, Note_off_c, 8, 81, 64
10, 18469, Note_on_c, 8, 74, 87
10, 18521, Note_off_c, 8, 74, 64
10, 18588, Note_on_c, 8, 76, 87
10, 18632, Note_off_c, 8, 76, 64
10, 18716, Note_on_c, 8, 79, 100
10, 18723, Note_on_c, 8, 81, 51
10, 18733, Note_off_c, 8, 81, 64
10, 18741, Note_on_c, 8, 78, 98
10, 18746, Note_off_c, 8, 79, 64
10, 18769, Note_on_c, 8, 79, 74
10, 18773, Note_off_c, 8, 78, 64
10, 18791, Note_on_c, 8, 78, 64
10, 18804, Note_off_c, 8, 79, 64
10, 18833, Note_off_c, 8, 78, 64
10, 18833, Note_on_c, 8, 76, 89
10, 18961, Note_off_c, 8, 76, 64
10, 19784, Note_on_c, 8, 83, 89
10, 19822, Note_off_c, 8, 83, 64
10, 19905, Note_on_c, 8, 76, 82
10, 19953, Note_off_c, 8, 76, 64
10, 20026, Note_on_c, 8, 78, 80
10, 20077, Note_off_c, 8, 78, 64
10, 20144, Note_on_c, 8, 81, 100
10, 20173, Note_off_c, 8, 81, 64
10, 20173, Note_on_c, 8, 79, 62
10, 20190, Note_on_c, 8, 81, 72
10, 20197, Note_off_c, 8, 79, 64
10, 20200, Note_on_c, 8, 83, 53
10, 20209, Note_off_c, 8, 83, 64
10, 20213, Note_on_c, 8, 79, 85
10, 20222, Note_off_c, 8, 81, 64
10, 20254, Note_off_c, 8, 79, 64
10, 20258, Note_on_c, 8, 78, 91
10, 20394, Note_off_c, 8, 78, 64
10, 20510, Note_on_c, 8, 79, 91
10, 20554, Note_on_c, 8, 78, 89
10, 20563, Note_off_c, 8, 79, 64
10, 20604, Note_off_c, 8, 78, 64
10, 20624, Note_on_c, 8, 79, 85
10, 20677, Note_off_c, 8, 79, 64
10, 20742, Note_on_c, 8, 81, 89
10, 20787, Note_off_c, 8, 81, 64
10, 20857, Note_on_c, 8, 79, 87
10, 20876, Note_on_c, 8, 78, 93
10, 20883, Note_off_c, 8, 79, 64
10, 20903, Note_off_c, 8, 78, 64
10, 20904, Note_on_c, 8, 79, 76
10, 20934, Note_on_c, 8, 78, 64
10, 20945, Note_off_c, 8, 79, 64
10, 20974, Note_on_c, 8, 76, 64
10, 20977, Note_off_c, 8, 78, 64
10, 21028, Note_off_c, 8, 76, 64
10, 21035, Note_on_c, 8, 75, 76
10, 21083, Note_off_c, 8, 75, 64
10, 21091, Note_on_c, 8, 76, 89
10, 21149, Note_off_c, 8, 76, 64
10, 21150, Note_on_c, 8, 78, 85
10, 21191, Note_off_c, 8, 78, 64
10, 21210, Note_on_c, 8, 79, 87
10, 21262, Note_off_c, 8, 79, 64
10, 21274, Note_on_c, 8, 81, 82
10, 21313, Note_off_c, 8, 81, 64
10, 21338, Note_on_c, 8, 83, 98
10, 21377, Note_off_c, 8, 83, 64
10, 21456, Note_on_c, 8, 84, 89
10, 21505, Note_off_c, 8, 84, 64
10, 21573, Note_on_c, 8, 83, 100
10, 21599, Note_on_c, 8, 81, 82
10, 21604, Note_off_c, 8, 83, 64
10, 21626, Note_on_c, 8, 83, 80
10, 21630, Note_off_c, 8, 81, 64
10, 21635, Note_on_c, 8, 84, 47
10, 21643, Note_off_c, 8, 84, 64
10, 21653, Note_on_c, 8, 81, 82
10, 21665, Note_off_c, 8, 83, 64
10, 21688, Note_on_c, 8, 79, 80
10, 21696, Note_off_c, 8, 81, 64
10, 21821, Note_off_c, 8, 79, 64
10, 21940, Note_on_c, 8, 78, 87
10, 21983, Note_off_c, 8, 78, 64
10, 21998, Note_on_c, 8, 76, 85
10, 22042, Note_off_c, 8, 76, 64
10, 22065, Note_on_c, 8, 78, 91
10, 22113, Note_off_c, 8, 78, 64
10, 22181, Note_on_c, 8, 79, 82
10, 22237, Note_off_c, 8, 79, 64
10, 22300, Note_on_c, 8, 78, 87
10, 22321, Note_on_c, 8, 76, 78
10, 22323, Note_off_c, 8, 78, 64
10, 22348, Note_on_c, 8, 78, 72
10, 22351, Note_off_c, 8, 76, 64
10, 22376, Note_on_c, 8, 76, 80
10, 22395, Note_off_c, 8, 78, 64
10, 22411, Note_on_c, 8, 74, 78
10, 22422, Note_off_c, 8, 76, 64
10, 22463, Note_off_c, 8, 74, 64
10, 22469, Note_on_c, 8, 73, 80
10, 22518, Note_off_c, 8, 73, 64
10, 22530, Note_on_c, 8, 74, 85
10, 22586, Note_off_c, 8, 74, 64
10, 22589, Note_on_c, 8, 76, 85
10, 22631, Note_off_c, 8, 76, 64
10, 22652, Note_on_c, 8, 78, 82
10, 22701, Note_off_c, 8, 78, 64
10, 22709, Note_on_c, 8, 80, 74
10, 22741, Note_off_c, 8, 80, 64
10, 22774, Note_on_c, 8, 82, 100
10, 22816, Note_off_c, 8, 82, 64
10, 22895, Note_on_c, 8, 83, 85
10, 22935, Note_off_c, 8, 83, 64
10, 23015, Note_on_c, 8, 74, 102
10, 23036, Note_on_c, 8, 73, 66
10, 23041, Note_off_c, 8, 74, 64
10, 23064, Note_on_c, 8, 74, 74
10, 23070, Note_off_c, 8, 73, 64
10, 23095, Note_on_c, 8, 73, 64
10, 23107, Note_off_c, 8, 74, 64
10, 23127, Note_on_c, 8, 71, 66
10, 23136, Note_off_c, 8, 73, 64
10, 23179, Note_off_c, 8, 71, 64
10, 23190, Note_on_c, 8, 70, 82
10, 23236, Note_off_c, 8, 70, 64
10, 23250, Note_on_c, 8, 71, 91
10, 23309, Note_on_c, 8, 73, 85
10, 23312, Note_off_c, 8, 71, 64
10, 23346, Note_off_c, 8, 73, 64
10, 23374, Note_on_c, 8, 74, 72
10, 23425, Note_off_c, 8, 74, 64
10, 23435, Note_on_c, 8, 76, 78
10, 23472, Note_off_c, 8, 76, 64
10, 23496, Note_on_c, 8, 78, 95
10, 23534, Note_off_c, 8, 78, 64
10, 23616, Note_on_c, 8, 79, 89
10, 23656, Note_off_c, 8, 79, 64
10, 23744, Note_on_c, 8, 71, 105
10, 23768, Note_on_c, 8, 70, 58
10, 23771, Note_off_c, 8, 71, 64
10, 23786, Note_on_c, 8, 71, 66
10, 23790, Note_off_c, 8, 70, 64
10, 23816, Note_on_c, 8, 70, 74
10, 23831, Note_off_c, 8, 71, 64
10, 23862, Note_on_c, 8, 68, 63
10, 23875, Note_off_c, 8, 70, 64
10, 23906, Note_off_c, 8, 68, 64
10, 23929, Note_on_c, 8, 66, 76
10, 23975, Note_off_c, 8, 66, 64
10, 23985, Note_on_c, 8, 76, 93
10, 24055, Note_off_c, 8, 76, 64
10, 24231, Note_on_c, 8, 74, 87
10, 24306, Note_off_c, 8, 74, 64
10, 24582, Note_on_c, 8, 76, 95
10, 24631, Note_off_c, 8, 76, 64
10, 24705, Note_on_c, 8, 74, 98
10, 24728, Note_on_c, 8, 73, 80
10, 24735, Note_off_c, 8, 74, 64
10, 24753, Note_on_c, 8, 74, 70
10, 24764, Note_off_c, 8, 73, 64
10, 24787, Note_on_c, 8, 73, 60
10, 24796, Note_off_c, 8, 74, 64
10, 24819, Note_on_c, 8, 71, 70
10, 24826, Note_off_c, 8, 73, 64
10, 24872, Note_off_c, 8, 71, 64
10, 24878, Note_on_c, 8, 70, 95
10, 24917, Note_off_c, 8, 70, 64
10, 24941, Note_on_c, 8, 79, 98
10, 25013, Note_off_c, 8, 79, 64
10, 25184, Note_on_c, 8, 78, 98
10, 25262, Note_off_c, 8, 78, 64
10, 25545, Note_on_c, 8, 79, 82
10, 25596, Note_off_c, 8, 79, 64
10, 25658, Note_on_c, 8, 78, 100
10, 25676, Note_on_c, 8, 76, 80
10, 25683, Note_off_c, 8, 78, 64
10, 25707, Note_on_c, 8, 78, 66
10, 25714, Note_off_c, 8, 76, 64
10, 25730, Note_on_c, 8, 76, 74
10, 25756, Note_off_c, 8, 78, 64
10, 25778, Note_off_c, 8, 76, 64
10, 25778, Note_on_c, 8, 74, 63
10, 25828, Note_on_c, 8, 73, 82
10, 25838, Note_off_c, 8, 74, 64
10, 25867, Note_off_c, 8, 73, 64
10, 25895, Note_on_c, 8, 83, 98
10, 25967, Note_off_c, 8, 83, 64
10, 26138, Note_on_c, 8, 82, 85
10, 26242, Note_off_c, 8, 82, 64
10, 26259, Note_on_c, 8, 83, 80
10, 26303, Note_off_c, 8, 83, 64
10, 26315, Note_on_c, 8, 85, 80
10, 26351, Note_off_c, 8, 85, 64
10, 26384, Note_on_c, 8, 78, 89
10, 26428, Note_off_c, 8, 78, 64
10, 26505, Note_on_c, 8, 76, 89
10, 26559, Note_off_c, 8, 76, 64
10, 26630, Note_on_c, 8, 76, 95
10, 26657, Note_on_c, 8, 74, 68
10, 26658, Note_off_c, 8, 76, 64
10, 26682, Note_on_c, 8, 76, 66
10, 26690, Note_off_c, 8, 74, 64
10, 26710, Note_on_c, 8, 74, 63
10, 26716, Note_off_c, 8, 76, 64
10, 26744, Note_on_c, 8, 73, 78
10, 26748, Note_off_c, 8, 74, 64
10, 26782, Note_off_c, 8, 73, 64
10, 26802, Note_on_c, 8, 71, 85
10, 26846, Note_off_c, 8, 71, 64
10, 26863, Note_on_c, 8, 73, 85
10, 26911, Note_off_c, 8, 73, 64
10, 26987, Note_on_c, 8, 83, 87
10, 27030, Note_off_c, 8, 83, 64
10, 27041, Note_on_c, 8, 82, 82
10, 27081, Note_off_c, 8, 82, 64
10, 27106, Note_on_c, 8, 83, 85
10, 27154, Note_off_c, 8, 83, 64
10, 27224, Note_on_c, 8, 85, 85
10, 27274, Note_off_c, 8, 85, 64
10, 27351, Note_on_c, 8, 78, 95
10, 27376, Note_on_c, 8, 76, 85
10, 27379, Note_off_c, 8, 78, 64
10, 27407, Note_off_c, 8, 76, 64
10, 27407, Note_on_c, 8, 78, 70
10, 27433, Note_on_c, 8, 76, 78
10, 27454, Note_off_c, 8, 78, 64
10, 27470, Note_on_c, 8, 74, 72
10, 27476, Note_off_c, 8, 76, 64
10, 27523, Note_off_c, 8, 74, 64
10, 27526, Note_on_c, 8, 73, 64
10, 27569, Note_off_c, 8, 73, 64
10, 27587, Note_on_c, 8, 74, 80
10, 27638, Note_off_c, 8, 74, 64
10, 27645, Note_on_c, 8, 76, 78
10, 27686, Note_off_c, 8, 76, 64
10, 27707, Note_on_c, 8, 78, 74
10, 27758, Note_off_c, 8, 78, 64
10, 27762, Note_on_c, 8, 80, 80
10, 27795, Note_off_c, 8, 80, 64
10, 27826, Note_on_c, 8, 82, 93
10, 27869, Note_off_c, 8, 82, 64
10, 27946, Note_on_c, 8, 83, 82
10, 27987, Note_off_c, 8, 83, 64
10, 28070, Note_on_c, 8, 74, 93
10, 28091, Note_on_c, 8, 73, 87
10, 28098, Note_off_c, 8, 74, 64
10, 28125, Note_on_c, 8, 74, 72
10, 28128, Note_off_c, 8, 73, 64
10, 28158, Note_on_c, 8, 73, 61
10, 28171, Note_off_c, 8, 74, 64
10, 28188, Note_on_c, 8, 71, 78
10, 28196, Note_off_c, 8, 73, 64
10, 28237, Note_off_c, 8, 71, 64
10, 28246, Note_on_c, 8, 70, 80
10, 28287, Note_off_c, 8, 70, 64
10, 28303, Note_on_c, 8, 71, 100
10, 28359, Note_off_c, 8, 71, 64
10, 28423, Note_on_c, 8, 73, 91
10, 28470, Note_off_c, 8, 73, 64
10, 28548, Note_on_c, 8, 66, 85
10, 28594, Note_off_c, 8, 66, 64
10, 28670, Note_on_c, 8, 70, 82
10, 28722, Note_off_c, 8, 70, 64
10, 28801, Note_on_c, 8, 71, 87
10, 29039, Note_off_c, 8, 71, 64
10, 44269, Note_on_c, 8, 81, 95
10, 44319, Note_off_c, 8, 81, 64
10, 44389, Note_on_c, 8, 74, 87
10, 44441, Note_off_c, 8, 74, 64
10, 44508, Note_on_c, 8, 76, 87
10, 44552, Note_off_c, 8, 76, 64
10, 44636, Note_on_c, 8, 79, 100
10, 44643, Note_on_c, 8, 81, 51
10, 44653, Note_off_c, 8, 81, 64
10, 44661, Note_on_c, 8, 78, 98
10, 44666, Note_off_c, 8, 79, 64
10, 44689, Note_on_c, 8, 79, 74
10, 44693, Note_off_c, 8, 78, 64
10, 44711, Note_on_c, 8, 78, 64
10, 44724, Note_off_c, 8, 79, 64
10, 44753, Note_off_c, 8, 78, 64
10, 44753, Note_on_c, 8, 76, 89
10, 44881, Note_off_c, 8, 76, 64
10, 45704, Note_on_c, 8, 83, 89
10, 45742, Note_off_c, 8, 83, 64
10, 45825, Note_on_c, 8, 76, 82
10, 45873, Note_off_c, 8, 76, 64
10, 45946, Note_on_c, 8, 78, 80
10, 45997, Note_off_c, 8, 78, 64
10, 46064, Note_on_c, 8, 81, 100
10, 46093, Note_off_c, 8, 81, 64
10, 46093, Note_on_c, 8, 79, 62
10, 46110, Note_on_c, 8, 81, 72
10, 46117, Note_off_c, 8, 79, 64
10, 46120, Note_on_c, 8, 83, 53
10, 46129, Note_off_c, 8, 83, 64
10, 46133, Note_on_c, 8, 79, 85
10, 46142, Note_off_c, 8, 81, 64
10, 46174, Note_off_c, 8, 79, 64
10, 46178, Note_on_c, 8, 78, 91
10, 46314, Note_off_c, 8, 78, 64
10, 46430, Note_on_c, 8, 79, 91
10, 46474, Note_on_c, 8, 78, 89
10, 46483, Note_off_c, 8, 79, 64
10, 46524, Note_off_c, 8, 78, 64
10, 46544, Note_on_c, 8, 79, 85
10, 46597, Note_off_c, 8, 79, 64
10, 46662, Note_on_c, 8, 81, 89
10, 46707, Note_off_c, 8, 81, 64
10, 46777, Note_on_c, 8, 79, 87
10, 46796, Note_on_c, 8, 78, 93
10, 46803, Note_off_c, 8, 79, 64
10, 46823, Note_off_c, 8, 78, 64
10, 46824, Note_on_c, 8, 79, 76
10, 46854, Note_on_c, 8, 78, 64
10, 46865, Note_off_c, 8, 79, 64
10, 46894, Note_on_c, 8, 76, 64
10, 46897, Note_off_c, 8, 78, 64
10, 46948, Note_off_c, 8, 76, 64
10, 46955, Note_on_c, 8, 75, 76
10, 47003, Note_off_c, 8, 75, 64
10, 47011, Note_on_c, 8, 76, 89
10, 47069, Note_off_c, 8, 76, 64
10, 47070, Note_on_c, 8, 78, 85
10, 47111, Note_off_c, 8, 78, 64
10, 47130, Note_on_c, 8, 79, 87
10, 47182, Note_off_c, 8, 79, 64
10, 47194, Note_on_c, 8, 81, 82
10, 47233, Note_off_c, 8, 81, 64
10, 47258, Note_on_c, 8, 83, 98
10, 47297, Note_off_c, 8, 83, 64
10, 47376, Note_on_c, 8, 84, 89
10, 47425, Note_off_c, 8, 84, 64
10, 47493, Note_on_c, 8, 83, 100
10, 47519, Note_on_c, 8, 81, 82
10, 47524, Note_off_c, 8, 83, 64
10, 47546, Note_on_c, 8, 83, 80
10, 47550, Note_off_c, 8, 81, 64
10, 47555, Note_on_c, 8, 84, 47
10, 47563, Note_off_c, 8, 84, 64
10, 47573, Note_on_c, 8, 81, 82
10, 47585, Note_off_c, 8, 83, 64
10, 47608, Note_on_c, 8, 79, 80
10, 47616, Note_off_c, 8, 81, 64
10, 47741, Note_off_c, 8, 79, 64
10, 47860, Note_on_c, 8, 78, 87
10, 47903, Note_off_c, 8, 78, 64
10, 47918, Note_on_c, 8, 76, 85
10, 47962, Note_off_c, 8, 76, 64
10, 47985, Note_on_c, 8, 78, 91
10, 48033, Note_off_c, 8, 78, 64
10, 48101, Note_on_c, 8, 79, 82
10, 48157, Note_off_c, 8, 79, 64
10, 48220, Note_on_c, 8, 78, 87
10, 48241, Note_on_c, 8, 76, 78
10, 48243, Note_off_c, 8, 78, 64
10, 48268, Note_on_c, 8, 78, 72
10, 48271, Note_off_c, 8, 76, 64
10, 48296, Note_on_c, 8, 76, 80
10, 48315, Note_off_c, 8, 78, 64
10, 48331, Note_on_c, 8, 74, 78
10, 48342, Note_off_c, 8, 76, 64
10, 48383, Note_off_c, 8, 74, 64
10, 48389, Note_on_c, 8, 73, 80
10, 48438, Note_off_c, 8, 73, 64
10, 48450, Note_on_c, 8, 74, 85
10, 48506, Note_off_c, 8, 74, 64
10, 48509, Note_on_c, 8, 76, 85
10, 48551, Note_off_c, 8, 76, 64
10, 48572, Note_on_c, 8, 78, 82
10, 48621, Note_off_c, 8, 78, 64
10, 48629, Note_on_c, 8, 80, 74
10, 48661, Note_off_c, 8, 80, 64
10, 48694, Note_on_c, 8, 82, 100
10, 48736, Note_off_c, 8, 82, 64
10, 48815, Note_on_c, 8, 83, 85
10, 48855, Note_off_c, 8, 83, 64
10, 48935, Note_on_c, 8, 74, 102
10, 48956, Note_on_c, 8, 73, 66
10, 48961, Note_off_c, 8, 74, 64
10, 48984, Note_on_c, 8, 74, 74
10, 48990, Note_off_c, 8, 73, 64
10, 49015, Note_on_c, 8, 73, 64
10, 49027, Note_off_c, 8, 74, 64
10, 49047, Note_on_c, 8, 71, 66
10, 49056, Note_off_c, 8, 73, 64
10, 49099, Note_off_c, 8, 71, 64
10, 49110, Note_on_c, 8, 70, 82
10, 49156, Note_off_c, 8, 70, 64
10, 49170, Note_on_c, 8, 71, 91
10, 49229, Note_on_c, 8, 73, 85
10, 49232, Note_off_c, 8, 71, 64
10, 49266, Note_off_c, 8, 73, 64
10, 49294, Note_on_c, 8, 74, 72
10, 49345, Note_off_c, 8, 74, 64
10, 49355, Note_on_c, 8, 76, 78
10, 49392, Note_off_c, 8, 76, 64
10, 49416, Note_on_c, 8, 78, 95
10, 49454, Note_off_c, 8, 78, 64
10, 49536, Note_on_c, 8, 79, 89
10, 49576, Note_off_c, 8, 79, 64
10, 49664, Note_on_c, 8, 71, 105
10, 49688, Note_on_c, 8, 70, 58
10, 49691, Note_off_c, 8, 71, 64
10, 49706, Note_on_c, 8, 71, 66
10, 49710, Note_off_c, 8, 70, 64
10, 49736, Note_on_c, 8, 70, 74
10, 49751, Note_off_c, 8, 71, 64
10, 49782, Note_on_c, 8, 68, 63
10, 49795, Note_off_c, 8, 70, 64
10, 49826, Note_off_c, 8, 68, 64
10, 49849, Note_on_c, 8, 66, 76
10, 49895, Note_off_c, 8, 66, 64
10, 49905, Note_on_c, 8, 76, 93
10, 49975, Note_off_c, 8, 76, 64
10, 50151, Note_on_c, 8, 74, 87
10, 50226, Note_off_c, 8, 74, 64
10, 50502, Note_on_c, 8, 76, 95
10, 50551, Note_off_c, 8, 76, 64
10, 50625, Note_on_c, 8, 74, 98
10, 50648, Note_on_c, 8, 73, 80
10, 50655, Note_off_c, 8, 74, 64
10, 50673, Note_on_c, 8, 74, 70
10, 50684, Note_off_c, 8, 73, 64
10, 50707, Note_on_c, 8, 73, 60
10, 50716, Note_off_c, 8, 74, 64
10, 50739, Note_on_c, 8, 71, 70
10, 50746, Note_off_c, 8, 73, 64
10, 50792, Note_off_c, 8, 71, 64
10, 50798, Note_on_c, 8, 70, 95
10, 50837, Note_off_c, 8, 70, 64
10, 50861, Note_on_c, 8, 79, 98
10, 50933, Note_off_c, 8, 79, 64
10, 51104, Note_on_c, 8, 78, 98
10, 51182, Note_off_c, 8, 78, 64
10, 51465, Note_on_c, 8, 79, 82
10, 51516, Note_off_c, 8, 79, 64
10, 51578, Note_on_c, 8, 78, 100
10, 51596, Note_on_c, 8, 76, 80
10, 51603, Note_off_c, 8, 78, 64
10, 51627, Note_on_c, 8, 78, 66
10, 51634, Note_off_c, 8, 76, 64
10, 51650, Note_on_c, 8, 76, 74
10, 51676, Note_off_c, 8, 78, 64
10, 51698, Note_off_c, 8, 76, 64
10, 51698, Note_on_c, 8, 74, 63
10, 51748, Note_on_c, 8, 73, 82
10, 51758, Note_off_c, 8, 74, 64
10, 51787, Note_off_c, 8, 73, 64
10, 51815, Note_on_c, 8, 83, 98
10, 51887, Note_off_c, 8, 83, 64
10, 52058, Note_on_c, 8, 82, 85
10, 52162, Note_off_c, 8, 82, 64
10, 52179, Note_on_c, 8, 83, 80
10, 52223, Note_off_c, 8, 83, 64
10, 52235, Note_on_c, 8, 85, 80
10, 52271, Note_off_c, 8, 85, 64
10, 52304, Note_on_c, 8, 78, 89
10, 52348, Note_off_c, 8, 78, 64
10, 52425, Note_on_c, 8, 76, 89
10, 52479, Note_off_c, 8, 76, 64
10, 52550, Note_on_c, 8, 76, 95
10, 52577, Note_on_c, 8, 74, 68
10, 52578, Note_off_c, 8, 76, 64
10, 52602, Note_on_c, 8, 76, 66
10, 52610, Note_off_c, 8, 74, 64
10, 52630, Note_on_c, 8, 74, 63
10, 52636, Note_off_c, 8, 76, 64
10, 52664, Note_on_c, 8, 73, 78
10, 52668, Note_off_c, 8, 74, 64
10, 52702, Note_off_c, 8, 73, 64
10, 52722, Note_on_c, 8, 71, 85
10, 52766, Note_off_c, 8, 71, 64
10, 52783, Note_on_c, 8, 73, 85
10, 52831, Note_off_c, 8, 73, 64
10, 52907, Note_on_c, 8, 83, 87
10, 52950, Note_off_c, 8, 83, 64
10, 52961, Note_on_c, 8, 82, 82
10, 53001, Note_off_c, 8, 82, 64
10, 53026, Note_on_c, 8, 83, 85
10, 53074, Note_off_c, 8, 83, 64
10, 53144, Note_on_c, 8, 85, 85
10, 53194, Note_off_c, 8, 85, 64
10, 53271, Note_on_c, 8, 78, 95
10, 53296, Note_on_c, 8, 76, 85
10, 53299, Note_off_c, 8, 78, 64
10, 53327, Note_off_c, 8, 76, 64
10, 53327, Note_on_c, 8, 78, 70
10, 53353, Note_on_c, 8, 76, 78
10, 53374, Note_off_c, 8, 78, 64
10, 53390, Note_on_c, 8, 74, 72
10, 53396, Note_off_c, 8, 76, 64
10, 53443, Note_off_c, 8, 74, 64
10, 53446, Note_on_c, 8, 73, 64
10, 53489, Note_off_c, 8, 73, 64
10, 53507, Note_on_c, 8, 74, 80
10, 53558, Note_off_c, 8, 74, 64
10, 53565, Note_on_c, 8, 76, 78
10, 53606, Note_off_c, 8, 76, 64
10, 53627, Note_on_c, 8, 78, 74
10, 53678, Note_off_c, 8, 78, 64
10, 53682, Note_on_c, 8, 80, 80
10, 53715, Note_off_c, 8, 80, 64
10, 53746, Note_on_c, 8, 82, 93
10, 53789, Note_off_c, 8, 82, 64
10, 53866, Note_on_c, 8, 83, 82
10, 53907, Note_off_c, 8, 83, 64
10, 53990, Note_on_c, 8, 74, 93
10, 54011, Note_on_c, 8, 73, 87
10, 54018, Note_off_c, 8, 74, 64
10, 54045, Note_on_c, 8, 74, 72
10, 54048, Note_off_c, 8, 73, 64
10, 54078, Note_on_c, 8, 73, 61
10, 54091, Note_off_c, 8, 74, 64
10, 54108, Note_on_c, 8, 71, 78
10, 54116, Note_off_c, 8, 73, 64
10, 54157, Note_off_c, 8, 71, 64
10, 54166, Note_on_c, 8, 70, 80
10, 54207, Note_off_c, 8, 70, 64
10, 54223, Note_on_c, 8, 71, 100
10, 54279, Note_off_c, 8, 71, 64
10, 54343, Note_on_c, 8, 73, 91
10, 54390, Note_off_c, 8, 73, 64
10, 54468, Note_on_c, 8, 66, 85
10, 54514, Note_off_c, 8, 66, 64
10, 54590, Note_on_c, 8, 70, 82
10, 54642, Note_off_c, 8, 70, 64
10, 54721, Note_on_c, 8, 71, 87
10, 54959, Note_off_c, 8, 71, 64
10, 54959, End_track
11, 0, Start_track
11, 0, Title_t, "Violin"
11, 0, Program_c, 10, 40
11, 0, Control_c, 10, 7, 100
11, 351, Note_on_c, 10, 74, 89
11, 409, Note_off_c, 10, 74, 64
11, 468, Note_on_c, 10, 74, 85
11, 533, Note_off_c, 10, 74, 64
11, 588, Note_on_c, 10, 76, 80
11, 650, Note_off_c, 10, 76, 64
11, 711, Note_on_c, 10, 73, 80
11, 762, Note_off_c, 10, 73, 64
11, 823, Note_on_c, 10, 69, 78
11, 879, Note_off_c, 10, 69, 64
11, 944, Note_on_c, 10, 69, 82
11, 1021, Note_off_c, 10, 69, 64
11, 1067, Note_on_c, 10, 74, 85
11, 1102, Note_off_c, 10, 74, 64
11, 1119, Note_on_c, 10, 73, 102
11, 1155, Note_off_c, 10, 73, 64
11, 1176, Note_on_c, 10, 74, 89
11, 1237, Note_off_c, 10, 74, 64
11, 1300, Note_on_c, 10, 71, 82
11, 1357, Note_off_c, 10, 71, 64
11, 1431, Note_on_c, 10, 73, 87
11, 1471, Note_off_c, 10, 73, 64
11, 1553, Note_on_c, 10, 74, 87
11, 1723, Note_off_c, 10, 74, 64
11, 1785, Note_on_c, 10, 68, 80
11, 1842, Note_off_c, 10, 68, 64
11, 1909, Note_on_c, 10, 69, 78
11, 1972, Note_off_c, 10, 69, 64
11, 2030, Note_on_c, 10, 73, 72
11, 2098, Note_off_c, 10, 73, 64
11, 2149, Note_on_c, 10, 71, 82
11, 2212, Note_off_c, 10, 71, 64
11, 2267, Note_on_c, 10, 64, 68
11, 2345, Note_off_c, 10, 64, 64
11, 2389, Note_on_c, 10, 69, 80
11, 2463, Note_off_c, 10, 69, 64
11, 2515, Note_on_c, 10, 69, 82
11, 2577, Note_off_c, 10, 69, 64
11, 2630, Note_on_c, 10, 74, 82
11, 2693, Note_off_c, 10, 74, 64
11, 2750, Note_on_c, 10, 73, 66
11, 2822, Note_off_c, 10, 73, 64
11, 2865, Note_on_c, 10, 71, 85
11, 2960, Note_off_c, 10, 71, 64
11, 2986, Note_on_c, 10, 73, 70
11, 3036, Note_off_c, 10, 73, 64
11, 3036, Note_on_c, 10, 74, 78
11, 3081, Note_off_c, 10, 74, 64
11, 3101, Note_on_c, 10, 73, 98
11, 3179, Note_off_c, 10, 73, 64
11, 3222, Note_on_c, 10, 69, 66
11, 3286, Note_off_c, 10, 69, 64
11, 3334, Note_on_c, 10, 69, 78
11, 3401, Note_off_c, 10, 69, 64
11, 3459, Note_on_c, 10, 74, 85
11, 3500, Note_off_c, 10, 74, 64
11, 3580, Note_on_c, 10, 71, 95
11, 3832, Note_off_c, 10, 71, 64
11, 3943, Note_on_c, 10, 71, 78
11, 4002, Note_off_c, 10, 71, 64
11, 4064, Note_on_c, 10, 73, 68
11, 4127, Note_off_c, 10, 73, 64
11, 4181, Note_on_c, 10, 74, 85
11, 4237, Note_off_c, 10, 74, 64
11, 4309, Note_on_c, 10, 71, 87
11, 4560, Note_off_c, 10, 71, 64
11, 4667, Note_on_c, 10, 71, 80
11, 4710, Note_off_c, 10, 71, 64
11, 4785, Note_on_c, 10, 71, 80
11, 4872, Note_off_c, 10, 71, 64
11, 4899, Note_on_c, 10, 69, 72
11, 4935, Note_off_c, 10, 69, 64
11, 4949, Note_on_c, 10, 68, 98
11, 4983, Note_off_c, 10, 68, 64
11, 5026, Note_on_c, 10, 69, 89
11, 5117, Note_off_c, 10, 69, 64
11, 5364, Note_on_c, 10, 69, 87
11, 5424, Note_off_c, 10, 69, 64
11, 5488, Note_on_c, 10, 68, 76
11, 5552, Note_off_c, 10, 68, 64
11, 5611, Note_on_c, 10, 69, 87
11, 5666, Note_off_c, 10, 69, 64
11, 5736, Note_on_c, 10, 71, 82
11, 5857, Note_off_c, 10, 71, 64
11, 5977, Note_on_c, 10, 71, 82
11, 6052, Note_off_c, 10, 71, 64
11, 6098, Note_on_c, 10, 74, 82
11, 6156, Note_off_c, 10, 74, 64
11, 6212, Note_on_c, 10, 73, 72
11, 6269, Note_off_c, 10, 73, 64
11, 6334, Note_on_c, 10, 71, 80
11, 6378, Note_off_c, 10, 71, 64
11, 6467, Note_on_c, 10, 69, 80
11, 6535, Note_off_c, 10, 69, 64
11, 6581, Note_on_c, 10, 64, 76
11, 6645, Note_off_c, 10, 64, 64
11, 6691, Note_on_c, 10, 66, 78
11, 6749, Note_off_c, 10, 66, 64
11, 6816, Note_on_c, 10, 74, 87
11, 6871, Note_off_c, 10, 74, 64
11, 6937, Note_on_c, 10, 73, 80
11, 6992, Note_off_c, 10, 73, 64
11, 7056, Note_on_c, 10, 74, 78
11, 7112, Note_off_c, 10, 74, 64
11, 7173, Note_on_c, 10, 73, 98
11, 7199, Note_on_c, 10, 71, 68
11, 7204, Note_off_c, 10, 73, 64
11, 7228, Note_off_c, 10, 71, 64
11, 7231, Note_on_c, 10, 73, 82
11, 7256, Note_on_c, 10, 71, 82
11, 7272, Note_off_c, 10, 73, 64
11, 7291, Note_on_c, 10, 69, 66
11, 7299, Note_off_c, 10, 71, 64
11, 7346, Note_off_c, 10, 69, 64
11, 7356, Note_on_c, 10, 68, 87
11, 7407, Note_off_c, 10, 68, 64
11, 7413, Note_on_c, 10, 69, 85
11, 7486, Note_off_c, 10, 69, 64
11, 7538, Note_on_c, 10, 69, 78
11, 7599, Note_off_c, 10, 69, 64
11, 7663, Note_on_c, 10, 74, 85
11, 7726, Note_off_c, 10, 74, 64
11, 7789, Note_on_c, 10, 73, 72
11, 7844, Note_off_c, 10, 73, 64
11, 7910, Note_on_c, 10, 66, 72
11, 7967, Note_off_c, 10, 66, 64
11, 8026, Note_on_c, 10, 64, 76
11, 8083, Note_off_c, 10, 64, 64
11, 8141, Note_on_c, 10, 61, 70
11, 8207, Note_off_c, 10, 61, 64
11, 8264, Note_on_c, 10, 66, 70
11, 8326, Note_off_c, 10, 66, 64
11, 8385, Note_on_c, 10, 64, 82
11, 8445, Note_off_c, 10, 64, 64
11, 8510, Note_on_c, 10, 64, 82
11, 8559, Note_off_c, 10, 64, 64
11, 8632, Note_on_c, 10, 64, 93
11, 8886, Note_off_c, 10, 64, 64
11, 18341, Note_on_c, 10, 78, 78
11, 18382, Note_off_c, 10, 78, 64
11, 18465, Note_on_c, 10, 69, 85
11, 18523, Note_off_c, 10, 69, 64
11, 18589, Note_on_c, 10, 73, 82
11, 18652, Note_off_c, 10, 73, 64
11, 18716, Note_on_c, 10, 76, 102
11, 18745, Note_on_c, 10, 74, 98
11, 18750, Note_off_c, 10, 76, 64
11, 18767, Note_on_c, 10, 76, 68
11, 18776, Note_off_c, 10, 74, 64
11, 18791, Note_on_c, 10, 74, 74
11, 18798, Note_off_c, 10, 76, 64
11, 18825, Note_off_c, 10, 74, 64
11, 18838, Note_on_c, 10, 73, 82
11, 18963, Note_off_c, 10, 73, 64
11, 19787, Note_on_c, 10, 79, 91
11, 19822, Note_off_c, 10, 79, 64
11, 19904, Note_on_c, 10, 71, 82
11, 19959, Note_off_c, 10, 71, 64
11, 20029, Note_on_c, 10, 75, 85
11, 20072, Note_off_c, 10, 75, 64
11, 20140, Note_on_c, 10, 78, 100
11, 20162, Note_on_c, 10, 76, 89
11, 20165, Note_off_c, 10, 78, 64
11, 20188, Note_on_c, 10, 78, 78
11, 20194, Note_off_c, 10, 76, 64
11, 20218, Note_on_c, 10, 76, 82
11, 20224, Note_off_c, 10, 78, 64
11, 20255, Note_on_c, 10, 75, 85
11, 20258, Note_off_c, 10, 76, 64
11, 20403, Note_off_c, 10, 75, 64
11, 20506, Note_on_c, 10, 76, 85
11, 20552, Note_off_c, 10, 76, 64
11, 20627, Note_on_c, 10, 76, 87
11, 20676, Note_off_c, 10, 76, 64
11, 20742, Note_on_c, 10, 78, 66
11, 20796, Note_off_c, 10, 78, 64
11, 20861, Note_on_c, 10, 75, 76
11, 20910, Note_off_c, 10, 75, 64
11, 20980, Note_on_c, 10, 71, 82
11, 21023, Note_off_c, 10, 71, 64
11, 21104, Note_on_c, 10, 71, 95
11, 21168, Note_off_c, 10, 71, 64
11, 21225, Note_on_c, 10, 76, 87
11, 21265, Note_off_c, 10, 76, 64
11, 21278, Note_on_c, 10, 75, 80
11, 21317, Note_off_c, 10, 75, 64
11, 21340, Note_on_c, 10, 76, 78
11, 21381, Note_off_c, 10, 76, 64
11, 21456, Note_on_c, 10, 81, 82
11, 21503, Note_off_c, 10, 81, 64
11, 21585, Note_on_c, 10, 75, 80
11, 21631, Note_off_c, 10, 75, 64
11, 21702, Note_on_c, 10, 76, 95
11, 21836, Note_off_c, 10, 76, 64
11, 21945, Note_on_c, 10, 70, 80
11, 21997, Note_off_c, 10, 70, 64
11, 22066, Note_on_c, 10, 71, 82
11, 22120, Note_off_c, 10, 71, 64
11, 22190, Note_on_c, 10, 74, 85
11, 22239, Note_off_c, 10, 74, 64
11, 22306, Note_on_c, 10, 73, 82
11, 22364, Note_off_c, 10, 73, 64
11, 22420, Note_on_c, 10, 66, 70
11, 22476, Note_off_c, 10, 66, 64
11, 22541, Note_on_c, 10, 71, 80
11, 22591, Note_off_c, 10, 71, 64
11, 22660, Note_on_c, 10, 71, 82
11, 22713, Note_off_c, 10, 71, 64
11, 22781, Note_on_c, 10, 76, 85
11, 22829, Note_off_c, 10, 76, 64
11, 22898, Note_on_c, 10, 74, 82
11, 22944, Note_off_c, 10, 74, 64
11, 23018, Note_on_c, 10, 74, 100
11, 23038, Note_on_c, 10, 73, 85
11, 23047, Note_off_c, 10, 74, 64
11, 23068, Note_on_c, 10, 74, 76
11, 23074, Note_off_c, 10, 73, 64
11, 23098, Note_on_c, 10, 73, 63
11, 23107, Note_off_c, 10, 74, 64
11, 23135, Note_off_c, 10, 73, 64
11, 23138, Note_on_c, 10, 74, 82
11, 23185, Note_off_c, 10, 74, 64
11, 23190, Note_on_c, 10, 76, 70
11, 23226, Note_off_c, 10, 76, 64
11, 23254, Note_on_c, 10, 74, 85
11, 23312, Note_off_c, 10, 74, 64
11, 23371, Note_on_c, 10, 71, 82
11, 23424, Note_off_c, 10, 71, 64
11, 23486, Note_on_c, 10, 71, 74
11, 23534, Note_off_c, 10, 71, 64
11, 23616, Note_on_c, 10, 76, 87
11, 23654, Note_off_c, 10, 76, 64
11, 23749, Note_on_c, 10, 73, 85
11, 23991, Note_off_c, 10, 73, 64
11, 24110, Note_on_c, 10, 73, 64
11, 24160, Note_off_c, 10, 73, 64
11, 24230, Note_on_c, 10, 74, 82
11, 24283, Note_off_c, 10, 74, 64
11, 24350, Note_on_c, 10, 76, 82
11, 24397, Note_off_c, 10, 76, 64
11, 24473, Note_on_c, 10, 73, 68
11, 24713, Note_off_c, 10, 73, 64
11, 24819, Note_on_c, 10, 73, 82
11, 24867, Note_off_c, 10, 73, 64
11, 24933, Note_on_c, 10, 74, 85
11, 24959, Note_on_c, 10, 73, 66
11, 24961, Note_off_c, 10, 74, 64
11, 24982, Note_on_c, 10, 74, 72
11, 24985, Note_off_c, 10, 73, 64
11, 25012, Note_on_c, 10, 73, 62
11, 25024, Note_off_c, 10, 74, 64
11, 25040, Note_on_c, 10, 71, 76
11, 25050, Note_off_c, 10, 73, 64
11, 25094, Note_off_c, 10, 71, 64
11, 25104, Note_on_c, 10, 70, 85
11, 25147, Note_off_c, 10, 70, 64
11, 25179, Note_on_c, 10, 71, 95
11, 25276, Note_off_c, 10, 71, 64
11, 25539, Note_on_c, 10, 71, 82
11, 25589, Note_off_c, 10, 71, 64
11, 25658, Note_on_c, 10, 70, 66
11, 25705, Note_off_c, 10, 70, 64
11, 25771, Note_on_c, 10, 71, 85
11, 25819, Note_off_c, 10, 71, 64
11, 25899, Note_on_c, 10, 73, 85
11, 26195, Note_off_c, 10, 73, 64
11, 26269, Note_on_c, 10, 76, 82
11, 26320, Note_off_c, 10, 76, 64
11, 26383, Note_on_c, 10, 74, 78
11, 26444, Note_off_c, 10, 74, 64
11, 26509, Note_on_c, 10, 73, 63
11, 26558, Note_off_c, 10, 73, 64
11, 26628, Note_on_c, 10, 71, 80
11, 26674, Note_off_c, 10, 71, 64
11, 26740, Note_on_c, 10, 66, 58
11, 26802, Note_off_c, 10, 66, 64
11, 26864, Note_on_c, 10, 67, 66
11, 26902, Note_off_c, 10, 67, 64
11, 26981, Note_on_c, 10, 66, 66
11, 27035, Note_off_c, 10, 66, 64
11, 27106, Note_on_c, 10, 71, 80
11, 27154, Note_off_c, 10, 71, 64
11, 27222, Note_on_c, 10, 76, 72
11, 27271, Note_off_c, 10, 76, 64
11, 27349, Note_on_c, 10, 74, 85
11, 27372, Note_on_c, 10, 73, 57
11, 27374, Note_off_c, 10, 74, 64
11, 27398, Note_on_c, 10, 74, 72
11, 27402, Note_off_c, 10, 73, 64
11, 27426, Note_on_c, 10, 73, 63
11, 27437, Note_off_c, 10, 74, 64
11, 27455, Note_on_c, 10, 71, 70
11, 27463, Note_off_c, 10, 73, 64
11, 27509, Note_off_c, 10, 71, 64
11, 27521, Note_on_c, 10, 70, 80
11, 27564, Note_off_c, 10, 70, 64
11, 27582, Note_on_c, 10, 71, 82
11, 27642, Note_off_c, 10, 71, 64
11, 27707, Note_on_c, 10, 71, 85
11, 27761, Note_off_c, 10, 71, 64
11, 27827, Note_on_c, 10, 76, 80
11, 27878, Note_off_c, 10, 76, 64
11, 27947, Note_on_c, 10, 74, 82
11, 27989, Note_off_c, 10, 74, 64
11, 28068, Note_on_c, 10, 69, 87
11, 28091, Note_off_c, 10, 69, 64
11, 28092, Note_on_c, 10, 67, 74
11, 28116, Note_on_c, 10, 69, 60
11, 28125, Note_off_c, 10, 67, 64
11, 28144, Note_on_c, 10, 67, 74
11, 28153, Note_off_c, 10, 69, 64
11, 28184, Note_off_c, 10, 67, 64
11, 28189, Note_on_c, 10, 66, 82
11, 28221, Note_off_c, 10, 66, 64
11, 28245, Note_on_c, 10, 64, 82
11, 28287, Note_off_c, 10, 64, 64
11, 28308, Note_on_c, 10, 62, 87
11, 28371, Note_off_c, 10, 62, 64
11, 28429, Note_on_c, 10, 67, 82
11, 28483, Note_off_c, 10, 67, 64
11, 28548, Note_on_c, 10, 66, 68
11, 28600, Note_off_c, 10, 66, 64
11, 28673, Note_on_c, 10, 66, 82
11, 28719, Note_off_c, 10, 66, 64
11, 28801, Note_on_c, 10, 66, 82
11, 29065, Note_off_c, 10, 66, 64
11, 44261, Note_on_c, 10, 78, 78
11, 44302, Note_off_c, 10, 78, 64
11, 44385, Note_on_c, 10, 69, 85
11, 44443, Note_off_c, 10, 69, 64
11, 44509, Note_on_c, 10, 73, 82
11, 44572, Note_off_c, 10, 73, 64
11, 44636, Note_on_c, 10, 76, 102
11, 44665, Note_on_c, 10, 74, 98
11, 44670, Note_off_c, 10, 76, 64
11, 44687, Note_on_c, 10, 76, 68
11, 44696, Note_off_c, 10, 74, 64
11, 44711, Note_on_c, 10, 74, 74
11, 44718, Note_off_c, 10, 76, 64
11, 44745, Note_off_c, 10, 74, 64
11, 44758, Note_on_c, 10, 73, 82
11, 44883, Note_off_c, 10, 73, 64
11, 45707, Note_on_c, 10, 79, 91
11, 45742, Note_off_c, 10, 79, 64
11, 45824, Note_on_c, 10, 71, 82
11, 45879, Note_off_c, 10, 71, 64
11, 45949, Note_on_c, 10, 75, 85
11, 45992, Note_off_c, 10, 75, 64
11, 46060, Note_on_c, 10, 78, 100
11, 46082, Note_on_c, 10, 76, 89
11, 46085, Note_off_c, 10, 78, 64
11, 46108, Note_on_c, 10, 78, 78
11, 46114, Note_off_c, 10, 76, 64
11, 46138, Note_on_c, 10, 76, 82
11, 46144, Note_off_c, 10, 78, 64
11, 46175, Note_on_c, 10, 75, 85
11, 46178, Note_off_c, 10, 76, 64
11, 46323, Note_off_c, 10, 75, 64
11, 46426, Note_on_c, 10, 76, 85
11, 46472, Note_off_c, 10, 76, 64
11, 46547, Note_on_c, 10, 76, 87
11, 46596, Note_off_c, 10, 76, 64
11, 46662, Note_on_c, 10, 78, 66
11, 46716, Note_off_c, 10, 78, 64
11, 46781, Note_on_c, 10, 75, 76
11, 46830, Note_off_c, 10, 75, 64
11, 46900, Note_on_c, 10, 71, 82
11, 46943, Note_off_c, 10, 71, 64
11, 47024, Note_on_c, 10, 71, 95
11, 47088, Note_off_c, 10, 71, 64
11, 47145, Note_on_c, 10, 76, 87
11, 47185, Note_off_c, 10, 76, 64
11, 47198, Note_on_c, 10, 75, 80
11, 47237, Note_off_c, 10, 75, 64
11, 47260, Note_on_c, 10, 76, 78
11, 47301, Note_off_c, 10, 76, 64
11, 47376, Note_on_c, 10, 81, 82
11, 47423, Note_off_c, 10, 81, 64
11, 47505, Note_on_c, 10, 75, 80
11, 47551, Note_off_c, 10, 75, 64
11, 47622, Note_on_c, 10, 76, 95
11, 47756, Note_off_c, 10, 76, 64
11, 47865, Note_on_c, 10, 70, 80
11, 47917, Note_off_c, 10, 70, 64
11, 47986, Note_on_c, 10, 71, 82
11, 48040, Note_off_c, 10, 71, 64
11, 48110, Note_on_c, 10, 74, 85
11, 48159, Note_off_c, 10, 74, 64
11, 48226, Note_on_c, 10, 73, 82
11, 48284, Note_off_c, 10, 73, 64
11, 48340, Note_on_c, 10, 66, 70
11, 48396, Note_off_c, 10, 66, 64
11, 48461, Note_on_c, 10, 71, 80
11, 48511, Note_off_c, 10, 71, 64
11, 48580, Note_on_c, 10, 71, 82
11, 48633, Note_off_c, 10, 71, 64
11, 48701, Note_on_c, 10, 76, 85
11, 48749, Note_off_c, 10, 76, 64
11, 48818, Note_on_c, 10, 74, 82
11, 48864, Note_off_c, 10, 74, 64
11, 48938, Note_on_c, 10, 74, 100
11, 48958, Note_on_c, 10, 73, 85
11, 48967, Note_off_c, 10, 74, 64
11, 48988, Note_on_c, 10, 74, 76
11, 48994, Note_off_c, 10, 73, 64
11, 49018, Note_on_c, 10, 73, 63
11, 49027, Note_off_c, 10, 74, 64
11, 49055, Note_off_c, 10, 73, 64
11, 49058, Note_on_c, 10, 74, 82
11, 49105, Note_off_c, 10, 74, 64
11, 49110, Note_on_c, 10, 76, 70
11, 49146, Note_off_c, 10, 76, 64
11, 49174, Note_on_c, 10, 74, 85
11, 49232, Note_off_c, 10, 74, 64
11, 49291, Note_on_c, 10, 71, 82
11, 49344, Note_off_c, 10, 71, 64
11, 49406, Note_on_c, 10, 71, 74
11, 49454, Note_off_c, 10, 71, 64
11, 49536, Note_on_c, 10, 76, 87
11, 49574, Note_off_c, 10, 76, 64
11, 49669, Note_on_c, 10, 73, 85
11, 49911, Note_off_c, 10, 73, 64
11, 50030, Note_on_c, 10, 73, 64
11, 50080, Note_off_c, 10, 73, 64
11, 50150, Note_on_c, 10, 74, 82
11, 50203, Note_off_c, 10, 74, 64
11, 50270, Note_on_c, 10, 76, 82
11, 50317, Note_off_c, 10, 76, 64
11, 50393, Note_on_c, 10, 73, 68
11, 50633, Note_off_c, 10, 73, 64
11, 50739, Note_on_c, 10, 73, 82
11, 50787, Note_off_c, 10, 73, 64
11, 50853, Note_on_c, 10, 74, 85
11, 50879, Note_on_c, 10, 73, 66
11, 50881, Note_off_c, 10, 74, 64
11, 50902, Note_on_c, 10, 74, 72
11, 50905, Note_off_c, 10, 73, 64
11, 50932, Note_on_c, 10, 73, 62
11, 50944, Note_off_c, 10, 74, 64
11, 50960, Note_on_c, 10, 71, 76
11, 50970, Note_off_c, 10, 73, 64
11, 51014, Note_off_c, 10, 71, 64
11, 51024, Note_on_c, 10, 70, 85
11, 51067, Note_off_c, 10, 70, 64
11, 51099, Note_on_c, 10, 71, 95
11, 51196, Note_off_c, 10, 71, 64
11, 51459, Note_on_c, 10, 71, 82
11, 51509, Note_off_c, 10, 71, 64
11, 51578, Note_on_c, 10, 70, 66
11, 51625, Note_off_c, 10, 70, 64
11, 51691, Note_on_c, 10, 71, 85
11, 51739, Note_off_c, 10, 71, 64
11, 51819, Note_on_c, 10, 73, 85
11, 52115, Note_off_c, 10, 73, 64
11, 52189, Note_on_c, 10, 76, 82
11, 52240, Note_off_c, 10, 76, 64
11, 52303, Note_on_c, 10, 74, 78
11, 52364, Note_off_c, 10, 74, 64
11, 52429, Note_on_c, 10, 73, 63
11, 52478, Note_off_c, 10, 73, 64
11, 52548, Note_on_c, 10, 71, 80
11, 52594, Note_off_c, 10, 71, 64
11, 52660, Note_on_c, 10, 66, 58
11, 52722, Note_off_c, 10, 66, 64
11, 52784, Note_on_c, 10, 67, 66
11, 52822, Note_off_c, 10, 67, 64
11, 52901, Note_on_c, 10, 66, 66
11, 52955, Note_off_c, 10, 66, 64
11, 53026, Note_on_c, 10, 71, 80
11, 53074, Note_off_c, 10, 71, 64
11, 53142, Note_on_c, 10, 76, 72
11, 53191, Note_off_c, 10, 76, 64
11, 53269, Note_on_c, 10, 74, 85
11, 53292, Note_on_c, 10, 73, 57
11, 53294, Note_off_c, 10, 74, 64
11, 53318, Note_on_c, 10, 74, 72
11, 53322, Note_off_c, 10, 73, 64
11, 53346, Note_on_c, 10, 73, 63
11, 53357, Note_off_c, 10, 74, 64
11, 53375, Note_on_c, 10, 71, 70
11, 53383, Note_off_c, 10, 73, 64
11, 53429, Note_off_c, 10, 71, 64
11, 53441, Note_on_c, 10, 70, 80
11, 53484, Note_off_c, 10, 70, 64
11, 53502, Note_on_c, 10, 71, 82
11, 53562, Note_off_c, 10, 71, 64
11, 53627, Note_on_c, 10, 71, 85
11, 53681, Note_off_c, 10, 71, 64
11, 53747, Note_on_c, 10, 76, 80
11, 53798, Note_off_c, 10, 76, 64
11, 53867, Note_on_c, 10, 74, 82
11, 53909, Note_off_c, 10, 74, 64
11, 53988, Note_on_c, 10, 69, 87
11, 54011, Note_off_c, 10, 69, 64
11, 54012, Note_on_c, 10, 67, 74
11, 54036, Note_on_c, 10, 69, 60
11, 54045, Note_off_c, 10, 67, 64
11, 54064, Note_on_c, 10, 67, 74
11, 54073, Note_off_c, 10, 69, 64
11, 54104, Note_off_c, 10, 67, 64
11, 54109, Note_on_c, 10, 66, 82
11, 54141, Note_off_c, 10, 66, 64
11, 54165, Note_on_c, 10, 64, 82
11, 54207, Note_off_c, 10, 64, 64
11, 54228, Note_on_c, 10, 62, 87
11, 54291, Note_off_c, 10, 62, 64
11, 54349, Note_on_c, 10, 67, 82
11, 54403, Note_off_c, 10, 67, 64
11, 54468, Note_on_c, 10, 66, 68
11, 54520, Note_off_c, 10, 66, 64
11, 54593, Note_on_c, 10, 66, 82
11, 54639, Note_off_c, 10, 66, 64
11, 54721, Note_on_c, 10, 66, 82
11, 54985, Note_off_c, 10, 66, 64
11, 54985, End_track
12, 0, Start_track
12, 0, Title_t, "Viola"
12, 0, Program_c, 11, 41
12, 0, Control_c, 11, 7, 100
12, 352, Note_on_c, 11, 69, 87
12, 416, Note_off_c, 11, 69, 64
12, 467, Note_on_c, 11, 69, 82
12, 532, Note_off_c, 11, 69, 64
12, 587, Note_on_c, 11, 71, 80
12, 654, Note_off_c, 11, 71, 64
12, 705, Note_on_c, 11, 69, 78
12, 790, Note_off_c, 11, 69, 64
12, 824, Note_on_c, 11, 67, 70
12, 883, Note_off_c, 11, 67, 64
12, 945, Note_on_c, 11, 66, 70
12, 1017, Note_off_c, 11, 66, 64
12, 1061, Note_on_c, 11, 69, 82
12, 1128, Note_off_c, 11, 69, 64
12, 1182, Note_on_c, 11, 69, 82
12, 1247, Note_off_c, 11, 69, 64
12, 1302, Note_on_c, 11, 67, 78
12, 1357, Note_off_c, 11, 67, 64
12, 1428, Note_on_c, 11, 64, 82
12, 1480, Note_off_c, 11, 64, 64
12, 1558, Note_on_c, 11, 62, 89
12, 1707, Note_off_c, 11, 62, 64
12, 1791, Note_on_c, 11, 62, 82
12, 1838, Note_off_c, 11, 62, 64
12, 1910, Note_on_c, 11, 61, 80
12, 1974, Note_off_c, 11, 61, 64
12, 2031, Note_on_c, 11, 69, 85
12, 2098, Note_off_c, 11, 69, 64
12, 2156, Note_on_c, 11, 66, 82
12, 2228, Note_off_c, 11, 66, 64
12, 2279, Note_on_c, 11, 64, 60
12, 2346, Note_off_c, 11, 64, 64
12, 2391, Note_on_c, 11, 64, 61
12, 2455, Note_off_c, 11, 64, 64
12, 2514, Note_on_c, 11, 64, 66
12, 2572, Note_off_c, 11, 64, 64
12, 2631, Note_on_c, 11, 64, 70
12, 2691, Note_off_c, 11, 64, 64
12, 2750, Note_on_c, 11, 64, 70
12, 2812, Note_off_c, 11, 64, 64
12, 2868, Note_on_c, 11, 66, 80
12, 2940, Note_off_c, 11, 66, 64
12, 2983, Note_on_c, 11, 64, 60
12, 3040, Note_off_c, 11, 64, 64
12, 3107, Note_on_c, 11, 69, 85
12, 3174, Note_off_c, 11, 69, 64
12, 3219, Note_on_c, 11, 66, 78
12, 3279, Note_off_c, 11, 66, 64
12, 3334, Note_on_c, 11, 64, 80
12, 3394, Note_off_c, 11, 64, 64
12, 3457, Note_on_c, 11, 57, 85
12, 3513, Note_off_c, 11, 57, 64
12, 3588, Note_on_c, 11, 64, 89
12, 3839, Note_off_c, 11, 64, 64
12, 3948, Note_on_c, 11, 64, 82
12, 3995, Note_off_c, 11, 64, 64
12, 4067, Note_on_c, 11, 64, 80
12, 4118, Note_off_c, 11, 64, 64
12, 4187, Note_on_c, 11, 64, 78
12, 4240, Note_off_c, 11, 64, 64
12, 4314, Note_on_c, 11, 64, 82
12, 4564, Note_off_c, 11, 64, 64
12, 4664, Note_on_c, 11, 64, 80
12, 4726, Note_off_c, 11, 64, 64
12, 4785, Note_on_c, 11, 66, 85
12, 4842, Note_off_c, 11, 66, 64
12, 4899, Note_on_c, 11, 59, 76
12, 4953, Note_off_c, 11, 59, 64
12, 5024, Note_on_c, 11, 64, 72
12, 5159, Note_off_c, 11, 64, 64
12, 5375, Note_on_c, 11, 62, 80
12, 5432, Note_off_c, 11, 62, 64
12, 5489, Note_on_c, 11, 62, 70
12, 5550, Note_off_c, 11, 62, 64
12, 5610, Note_on_c, 11, 64, 85
12, 5651, Note_off_c, 11, 64, 64
12, 5737, Note_on_c, 11, 66, 85
12, 5889, Note_off_c, 11, 66, 64
12, 5980, Note_on_c, 11, 64, 80
12, 6043, Note_off_c, 11, 64, 64
12, 6099, Note_on_c, 11, 68, 68
12, 6164, Note_off_c, 11, 68, 64
12, 6216, Note_on_c, 11, 69, 87
12, 6274, Note_off_c, 11, 69, 64
12, 6335, Note_on_c, 11, 71, 89
12, 6392, Note_off_c, 11, 71, 64
12, 6455, Note_on_c, 11, 64, 93
12, 6530, Note_off_c, 11, 64, 64
12, 6577, Note_on_c, 11, 61, 78
12, 6644, Note_off_c, 11, 61, 64
12, 6696, Note_on_c, 11, 59, 74
12, 6764, Note_off_c, 11, 59, 64
12, 6814, Note_on_c, 11, 59, 76
12, 6883, Note_off_c, 11, 59, 64
12, 6934, Note_on_c, 11, 66, 85
12, 7000, Note_off_c, 11, 66, 64
12, 7052, Note_on_c, 11, 66, 80
12, 7118, Note_off_c, 11, 66, 64
12, 7173, Note_on_c, 11, 64, 72
12, 7249, Note_off_c, 11, 64, 64
12, 7293, Note_on_c, 11, 64, 57
12, 7363, Note_off_c, 11, 64, 64
12, 7414, Note_on_c, 11, 64, 68
12, 7483, Note_off_c, 11, 64, 64
12, 7539, Note_on_c, 11, 64, 72
12, 7604, Note_off_c, 11, 64, 64
12, 7659, Note_on_c, 11, 64, 72
12, 7737, Note_off_c, 11, 64, 64
12, 7788, Note_on_c, 11, 64, 70
12, 7851, Note_off_c, 11, 64, 64
12, 7902, Note_on_c, 11, 62, 78
12, 7967, Note_off_c, 11, 62, 64
12, 8022, Note_on_c, 11, 59, 68
12, 8084, Note_off_c, 11, 59, 64
12, 8144, Note_on_c, 11, 57, 70
12, 8212, Note_off_c, 11, 57, 64
12, 8256, Note_on_c, 11, 62, 80
12, 8323, Note_off_c, 11, 62, 64
12, 8386, Note_on_c, 11, 62, 82
12, 8450, Note_off_c, 11, 62, 64
12, 8508, Note_on_c, 11, 59, 80
12, 8568, Note_off_c, 11, 59, 64
12, 8639, Note_on_c, 11, 61, 85
12, 8906, Note_off_c, 11, 61, 64
12, 18353, Note_on_c, 11, 69, 66
12, 18407, Note_off_c, 11, 69, 64
12, 18469, Note_on_c, 11, 69, 76
12, 18519, Note_off_c, 11, 69, 64
12, 18588, Note_on_c, 11, 69, 78
12, 18640, Note_off_c, 11, 69, 64
12, 18716, Note_on_c, 11, 69, 80
12, 18759, Note_off_c, 11, 69, 64
12, 18841, Note_on_c, 11, 69, 87
12, 18999, Note_off_c, 11, 69, 64
12, 19791, Note_on_c, 11, 71, 66
12, 19831, Note_off_c, 11, 71, 64
12, 19907, Note_on_c, 11, 71, 70
12, 19953, Note_off_c, 11, 71, 64
12, 20029, Note_on_c, 11, 71, 80
12, 20074, Note_off_c, 11, 71, 64
12, 20159, Note_on_c, 11, 71, 85
12, 20197, Note_off_c, 11, 71, 64
12, 20275, Note_on_c, 11, 71, 95
12, 20414, Note_off_c, 11, 71, 64
12, 20508, Note_on_c, 11, 71, 78
12, 20558, Note_off_c, 11, 71, 64
12, 20625, Note_on_c, 11, 71, 80
12, 20676, Note_off_c, 11, 71, 64
12, 20740, Note_on_c, 11, 72, 70
12, 20784, Note_off_c, 11, 72, 64
12, 20860, Note_on_c, 11, 66, 66
12, 20916, Note_off_c, 11, 66, 64
12, 20981, Note_on_c, 11, 69, 70
12, 21040, Note_off_c, 11, 69, 64
12, 21100, Note_on_c, 11, 67, 66
12, 21154, Note_off_c, 11, 67, 64
12, 21218, Note_on_c, 11, 71, 70
12, 21268, Note_off_c, 11, 71, 64
12, 21335, Note_on_c, 11, 71, 68
12, 21382, Note_off_c, 11, 71, 64
12, 21459, Note_on_c, 11, 64, 64
12, 21506, Note_off_c, 11, 64, 64
12, 21583, Note_on_c, 11, 71, 80
12, 21621, Note_off_c, 11, 71, 64
12, 21700, Note_on_c, 11, 71, 82
12, 21846, Note_off_c, 11, 71, 64
12, 21933, Note_on_c, 11, 73, 80
12, 21988, Note_off_c, 11, 73, 64
12, 22054, Note_on_c, 11, 66, 78
12, 22104, Note_off_c, 11, 66, 64
12, 22173, Note_on_c, 11, 71, 82
12, 22233, Note_off_c, 11, 71, 64
12, 22299, Note_on_c, 11, 70, 68
12, 22358, Note_off_c, 11, 70, 64
12, 22423, Note_on_c, 11, 73, 80
12, 22485, Note_off_c, 11, 73, 64
12, 22542, Note_on_c, 11, 66, 72
12, 22607, Note_off_c, 11, 66, 64
12, 22664, Note_on_c, 11, 66, 66
12, 22720, Note_off_c, 11, 66, 64
12, 22775, Note_on_c, 11, 66, 66
12, 22835, Note_off_c, 11, 66, 64
12, 22897, Note_on_c, 11, 66, 63
12, 22953, Note_off_c, 11, 66, 64
12, 23013, Note_on_c, 11, 67, 76
12, 23070, Note_off_c, 11, 67, 64
12, 23130, Note_on_c, 11, 66, 76
12, 23185, Note_off_c, 11, 66, 64
12, 23254, Note_on_c, 11, 59, 70
12, 23316, Note_off_c, 11, 59, 64
12, 23375, Note_on_c, 11, 67, 78
12, 23435, Note_off_c, 11, 67, 64
12, 23498, Note_on_c, 11, 66, 70
12, 23548, Note_off_c, 11, 66, 64
12, 23619, Note_on_c, 11, 59, 76
12, 23664, Note_off_c, 11, 59, 64
12, 23747, Note_on_c, 11, 66, 82
12, 23991, Note_off_c, 11, 66, 64
12, 24108, Note_on_c, 11, 66, 72
12, 24160, Note_off_c, 11, 66, 64
12, 24225, Note_on_c, 11, 66, 66
12, 24278, Note_off_c, 11, 66, 64
12, 24349, Note_on_c, 11, 66, 76
12, 24401, Note_off_c, 11, 66, 64
12, 24476, Note_on_c, 11, 66, 78
12, 24716, Note_off_c, 11, 66, 64
12, 24822, Note_on_c, 11, 66, 80
12, 24869, Note_off_c, 11, 66, 64
12, 24944, Note_on_c, 11, 70, 78
12, 24991, Note_off_c, 11, 70, 64
12, 25064, Note_on_c, 11, 73, 87
12, 25114, Note_off_c, 11, 73, 64
12, 25187, Note_on_c, 11, 62, 98
12, 25268, Note_off_c, 11, 62, 64
12, 25542, Note_on_c, 11, 64, 76
12, 25596, Note_off_c, 11, 64, 64
12, 25665, Note_on_c, 11, 64, 72
12, 25717, Note_off_c, 11, 64, 64
12, 25783, Note_on_c, 11, 66, 82
12, 25830, Note_off_c, 11, 66, 64
12, 25903, Note_on_c, 11, 68, 98
12, 25982, Note_off_c, 11, 68, 64
12, 26138, Note_on_c, 11, 66, 76
12, 26197, Note_off_c, 11, 66, 64
12, 26259, Note_on_c, 11, 70, 70
12, 26323, Note_off_c, 11, 70, 64
12, 26388, Note_on_c, 11, 71, 80
12, 26447, Note_off_c, 11, 71, 64
12, 26507, Note_on_c, 11, 73, 70
12, 26553, Note_off_c, 11, 73, 64
12, 26633, Note_on_c, 11, 66, 76
12, 26689, Note_off_c, 11, 66, 64
12, 26754, Note_on_c, 11, 66, 70
12, 26806, Note_off_c, 11, 66, 64
12, 26870, Note_on_c, 11, 64, 70
12, 26925, Note_off_c, 11, 64, 64
12, 26989, Note_on_c, 11, 64, 70
12, 27047, Note_off_c, 11, 64, 64
12, 27103, Note_on_c, 11, 62, 74
12, 27166, Note_off_c, 11, 62, 64
12, 27222, Note_on_c, 11, 67, 78
12, 27274, Note_off_c, 11, 67, 64
12, 27349, Note_on_c, 11, 66, 66
12, 27405, Note_off_c, 11, 66, 64
12, 27475, Note_on_c, 11, 66, 68
12, 27530, Note_off_c, 11, 66, 64
12, 27593, Note_on_c, 11, 66, 70
12, 27647, Note_off_c, 11, 66, 64
12, 27706, Note_on_c, 11, 66, 72
12, 27760, Note_off_c, 11, 66, 64
12, 27826, Note_on_c, 11, 73, 85
12, 27885, Note_off_c, 11, 73, 64
12, 27946, Note_on_c, 11, 66, 78
12, 27994, Note_off_c, 11, 66, 64
12, 28073, Note_on_c, 11, 66, 89
12, 28098, Note_on_c, 11, 64, 78
12, 28103, Note_off_c, 11, 66, 64
12, 28129, Note_on_c, 11, 66, 87
12, 28131, Note_off_c, 11, 64, 64
12, 28140, Note_on_c, 11, 67, 39
12, 28147, Note_off_c, 11, 67, 64
12, 28156, Note_on_c, 11, 64, 80
12, 28171, Note_off_c, 11, 66, 64
12, 28189, Note_on_c, 11, 62, 78
12, 28202, Note_off_c, 11, 64, 64
12, 28249, Note_off_c, 11, 62, 64
12, 28251, Note_on_c, 11, 61, 85
12, 28300, Note_off_c, 11, 61, 64
12, 28312, Note_on_c, 11, 59, 82
12, 28375, Note_off_c, 11, 59, 64
12, 28432, Note_on_c, 11, 64, 82
12, 28488, Note_off_c, 11, 64, 64
12, 28546, Note_on_c, 11, 61, 80
12, 28599, Note_off_c, 11, 61, 64
12, 28674, Note_on_c, 11, 61, 76
12, 28726, Note_off_c, 11, 61, 64
12, 28801, Note_on_c, 11, 62, 85
12, 29063, Note_off_c, 11, 62, 64
12, 44273, Note_on_c, 11, 69, 66
12, 44327, Note_off_c, 11, 69, 64
12, 44389, Note_on_c, 11, 69, 76
12, 44439, Note_off_c, 11, 69, 64
12, 44508, Note_on_c, 11, 69, 78
12, 44560, Note_off_c, 11, 69, 64
12, 44636, Note_on_c, 11, 69, 80
12, 44679, Note_off_c, 11, 69, 64
12, 44761, Note_on_c, 11, 69, 87
12, 44919, Note_off_c, 11, 69, 64
12, 45711, Note_on_c, 11, 71, 66
12, 45751, Note_off_c, 11, 71, 64
12, 45827, Note_on_c, 11, 71, 70
12, 45873, Note_off_c, 11, 71, 64
12, 45949, Note_on_c, 11, 71, 80
12, 45994, Note_off_c, 11, 71, 64
12, 46079, Note_on_c, 11, 71, 85
12, 46117, Note_off_c, 11, 71, 64
12, 46195, Note_on_c, 11, 71, 95
12, 46334, Note_off_c, 11, 71, 64
12, 46428, Note_on_c, 11, 71, 78
12, 46478, Note_off_c, 11, 71, 64
12, 46545, Note_on_c, 11, 71, 80
12, 46596, Note_off_c, 11, 71, 64
12, 46660, Note_on_c, 11, 72, 70
12, 46704, Note_off_c, 11, 72, 64
12, 46780, Note_on_c, 11, 66, 66
12, 46836, Note_off_c, 11, 66, 64
12, 46901, Note_on_c, 11, 69, 70
12, 46960, Note_off_c, 11, 69, 64
12, 47020, Note_on_c, 11, 67, 66
12, 47074, Note_off_c, 11, 67, 64
12, 47138, Note_on_c, 11, 71, 70
12, 47188, Note_off_c, 11, 71, 64
12, 47255, Note_on_c, 11, 71, 68
12, 47302, Note_off_c, 11, 71, 64
12, 47379, Note_on_c, 11, 64, 64
12, 47426, Note_off_c, 11, 64, 64
12, 47503, Note_on_c, 11, 71, 80
12, 47541, Note_off_c, 11, 71, 64
12, 47620, Note_on_c, 11, 71, 82
12, 47766, Note_off_c, 11, 71, 64
12, 47853, Note_on_c, 11, 73, 80
12, 47908, Note_off_c, 11, 73, 64
12, 47974, Note_on_c, 11, 66, 78
12, 48024, Note_off_c, 11, 66, 64
12, 48093, Note_on_c, 11, 71, 82
12, 48153, Note_off_c, 11, 71, 64
12, 48219, Note_on_c, 11, 70, 68
12, 48278, Note_off_c, 11, 70, 64
12, 48343, Note_on_c, 11, 73, 80
12, 48405, Note_off_c, 11, 73, 64
12, 48462, Note_on_c, 11, 66, 72
12, 48527, Note_off_c, 11, 66, 64
12, 48584, Note_on_c, 11, 66, 66
12, 48640, Note_off_c, 11, 66, 64
12, 48695, Note_on_c, 11, 66, 66
12, 48755, Note_off_c, 11, 66, 64
12, 48817, Note_on_c, 11, 66, 63
12, 48873, Note_off_c, 11, 66, 64
12, 48933, Note_on_c, 11, 67, 76
12, 48990, Note_off_c, 11, 67, 64
12, 49050, Note_on_c, 11, 66, 76
12, 49105, Note_off_c, 11, 66, 64
12, 49174, Note_on_c, 11, 59, 70
12, 49236, Note_off_c, 11, 59, 64
12, 49295, Note_on_c, 11, 67, 78
12, 49355, Note_off_c, 11, 67, 64
12, 49418, Note_on_c, 11, 66, 70
12, 49468, Note_off_c, 11, 66, 64
12, 49539, Note_on_c, 11, 59, 76
12, 49584, Note_off_c, 11, 59, 64
12, 49667, Note_on_c, 11, 66, 82
12, 49911, Note_off_c, 11, 66, 64
12, 50028, Note_on_c, 11, 66, 72
12, 50080, Note_off_c, 11, 66, 64
12, 50145, Note_on_c, 11, 66, 66
12, 50198, Note_off_c, 11, 66, 64
12, 50269, Note_on_c, 11, 66, 76
12, 50321, Note_off_c, 11, 66, 64
12, 50396, Note_on_c, 11, 66, 78
12, 50636, Note_off_c, 11, 66, 64
12, 50742, Note_on_c, 11, 66, 80
12, 50789, Note_off_c, 11, 66, 64
12, 50864, Note_on_c, 11, 70, 78
12, 50911, Note_off_c, 11, 70, 64
12, 50984, Note_on_c, 11, 73, 87
12, 51034, Note_off_c, 11, 73, 64
12, 51107, Note_on_c, 11, 62, 98
12, 51188, Note_off_c, 11, 62, 64
12, 51462, Note_on_c, 11, 64, 76
12, 51516, Note_off_c, 11, 64, 64
12, 51585, Note_on_c, 11, 64, 72
12, 51637, Note_off_c, 11, 64, 64
12, 51703, Note_on_c, 11, 66, 82
12, 51750, Note_off_c, 11, 66, 64
12, 51823, Note_on_c, 11, 68, 98
12, 51902, Note_off_c, 11, 68, 64
12, 52058, Note_on_c, 11, 66, 76
12, 52117, Note_off_c, 11, 66, 64
12, 52179, Note_on_c, 11, 70, 70
12, 52243, Note_off_c, 11, 70, 64
12, 52308, Note_on_c, 11, 71, 80
12, 52367, Note_off_c, 11, 71, 64
12, 52427, Note_on_c, 11, 73, 70
12, 52473, Note_off_c, 11, 73, 64
12, 52553, Note_on_c, 11, 66, 76
12, 52609, Note_off_c, 11, 66, 64
12, 52674, Note_on_c, 11, 66, 70
12, 52726, Note_off_c, 11, 66, 64
12, 52790, Note_on_c, 11, 64, 70
12, 52845, Note_off_c, 11, 64, 64
12, 52909, Note_on_c, 11, 64, 70
12, 52967, Note_off_c, 11, 64, 64
12, 53023, Note_on_c, 11, 62, 74
12, 53086, Note_off_c, 11, 62, 64
12, 53142, Note_on_c, 11, 67, 78
12, 53194, Note_off_c, 11, 67, 64
12, 53269, Note_on_c, 11, 66, 66
12, 53325, Note_off_c, 11, 66, 64
12, 53395, Note_on_c, 11, 66, 68
12, 53450, Note_off_c, 11, 66, 64
12, 53513, Note_on_c, 11, 66, 70
12, 53567, Note_off_c, 11, 66, 64
12, 53626, Note_on_c, 11, 66, 72
12, 53680, Note_off_c, 11, 66, 64
12, 53746, Note_on_c, 11, 73, 85
12, 53805, Note_off_c, 11, 73, 64
12, 53866, Note_on_c, 11, 66, 78
12, 53914, Note_off_c, 11, 66, 64
12, 53993, Note_on_c, 11, 66, 89
12, 54018, Note_on_c, 11, 64, 78
12, 54023, Note_off_c, 11, 66, 64
12, 54049, Note_on_c, 11, 66, 87
12, 54051, Note_off_c, 11, 64, 64
12, 54060, Note_on_c, 11, 67, 39
12, 54067, Note_off_c, 11, 67, 64
12, 54076, Note_on_c, 11, 64, 80
12, 54091, Note_off_c, 11, 66, 64
12, 54109, Note_on_c, 11, 62, 78
12, 54122, Note_off_c, 11, 64, 64
12, 54169, Note_off_c, 11, 62, 64
12, 54171, Note_on_c, 11, 61, 85
12, 54220, Note_off_c, 11, 61, 64
12, 54232, Note_on_c, 11, 59, 82
12, 54295, Note_off_c, 11, 59, 64
12, 54352, Note_on_c, 11, 64, 82
12, 54408, Note_off_c, 11, 64, 64
12, 54466, Note_on_c, 11, 61, 80
12, 54519, Note_off_c, 11, 61, 64
12, 54594, Note_on_c, 11, 61, 76
12, 54646, Note_off_c, 11, 61, 64
12, 54721, Note_on_c, 11, 62, 85
12, 54983, Note_off_c, 11, 62, 64
12, 54983, End_track
13, 0, Start_track
13, 0, Title_t, "Cello"
13, 0, Program_c, 12, 42
13, 0, Control_c, 12, 7, 100
13, 352, Note_on_c, 12, 62, 85
13, 396, Note_off_c, 12, 62, 64
13, 405, Note_on_c, 12, 61, 102
13, 443, Note_off_c, 12, 61, 64
13, 464, Note_on_c, 12, 62, 100
13, 512, Note_off_c, 12, 62, 64
13, 591, Note_on_c, 12, 55, 87
13, 645, Note_off_c, 12, 55, 64
13, 711, Note_on_c, 12, 57, 89
13, 758, Note_off_c, 12, 57, 64
13, 827, Note_on_c, 12, 52, 80
13, 871, Note_off_c, 12, 52, 64
13, 946, Note_on_c, 12, 54, 95
13, 1034, Note_off_c, 12, 54, 64
13, 1061, Note_on_c, 12, 50, 85
13, 1097, Note_off_c, 12, 50, 64
13, 1113, Note_on_c, 12, 52, 95
13, 1151, Note_off_c, 12, 52, 64
13, 1173, Note_on_c, 12, 54, 102
13, 1216, Note_off_c, 12, 54, 64
13, 1289, Note_on_c, 12, 55, 80
13, 1336, Note_off_c, 12, 55, 64
13, 1419, Note_on_c, 12, 57, 91
13, 1491, Note_off_c, 12, 57, 64
13, 1545, Note_on_c, 12, 62, 91
13, 1596, Note_on_c, 12, 61, 98
13, 1606, Note_off_c, 12, 62, 64
13, 1642, Note_off_c, 12, 61, 64
13, 1665, Note_on_c, 12, 62, 95
13, 1719, Note_off_c, 12, 62, 64
13, 1784, Note_on_c, 12, 59, 87
13, 1839, Note_off_c, 12, 59, 64
13, 1910, Note_on_c, 12, 61, 72
13, 1960, Note_off_c, 12, 61, 64
13, 2030, Note_on_c, 12, 57, 82
13, 2068, Note_off_c, 12, 57, 64
13, 2158, Note_on_c, 12, 59, 87
13, 2224, Note_off_c, 12, 59, 64
13, 2276, Note_on_c, 12, 56, 76
13, 2322, Note_off_c, 12, 56, 64
13, 2400, Note_on_c, 12, 57, 85
13, 2457, Note_off_c, 12, 57, 64
13, 2514, Note_on_c, 12, 49, 74
13, 2570, Note_off_c, 12, 49, 64
13, 2629, Note_on_c, 12, 47, 72
13, 2684, Note_off_c, 12, 47, 64
13, 2749, Note_on_c, 12, 45, 70
13, 2802, Note_off_c, 12, 45, 64
13, 2877, Note_on_c, 12, 50, 82
13, 2926, Note_off_c, 12, 50, 64
13, 2994, Note_on_c, 12, 52, 82
13, 3044, Note_off_c, 12, 52, 64
13, 3108, Note_on_c, 12, 54, 91
13, 3197, Note_off_c, 12, 54, 64
13, 3215, Note_on_c, 12, 52, 80
13, 3253, Note_off_c, 12, 52, 64
13, 3269, Note_on_c, 12, 50, 82
13, 3326, Note_off_c, 12, 50, 64
13, 3338, Note_on_c, 12, 49, 85
13, 3394, Note_off_c, 12, 49, 64
13, 3463, Note_on_c, 12, 50, 85
13, 3501, Note_off_c, 12, 50, 64
13, 3586, Note_on_c, 12, 52, 87
13, 3820, Note_off_c, 12, 52, 64
13, 3946, Note_on_c, 12, 57, 85
13, 3998, Note_off_c, 12, 57, 64
13, 4003, Note_on_c, 12, 56, 95
13, 4046, Note_off_c, 12, 56, 64
13, 4060, Note_on_c, 12, 57, 85
13, 4119, Note_off_c, 12, 57, 64
13, 4183, Note_on_c, 12, 59, 80
13, 4226, Note_off_c, 12, 59, 64
13, 4300, Note_on_c, 12, 57, 93
13, 4320, Note_on_c, 12, 56, 85
13, 4328, Note_off_c, 12, 57, 64
13, 4350, Note_on_c, 12, 57, 78
13, 4353, Note_off_c, 12, 56, 64
13, 4375, Note_on_c, 12, 56, 74
13, 4386, Note_off_c, 12, 57, 64
13, 4418, Note_on_c, 12, 54, 68
13, 4427, Note_off_c, 12, 56, 64
13, 4456, Note_off_c, 12, 54, 64
13, 4477, Note_on_c, 12, 52, 85
13, 4514, Note_off_c, 12, 52, 64
13, 4543, Note_on_c, 12, 64, 89
13, 4632, Note_off_c, 12, 64, 64
13, 4786, Note_on_c, 12, 62, 95
13, 4871, Note_off_c, 12, 62, 64
13, 5140, Note_on_c, 12, 61, 85
13, 5188, Note_on_c, 12, 59, 95
13, 5191, Note_off_c, 12, 61, 64
13, 5231, Note_off_c, 12, 59, 64
13, 5253, Note_on_c, 12, 61, 89
13, 5304, Note_off_c, 12, 61, 64
13, 5383, Note_on_c, 12, 62, 93
13, 5427, Note_off_c, 12, 62, 64
13, 5492, Note_on_c, 12, 61, 95
13, 5506, Note_on_c, 12, 59, 62
13, 5514, Note_off_c, 12, 61, 64
13, 5540, Note_off_c, 12, 59, 64
13, 5540, Note_on_c, 12, 61, 66
13, 5568, Note_on_c, 12, 59, 82
13, 5583, Note_off_c, 12, 61, 64
13, 5602, Note_on_c, 12, 57, 70
13, 5607, Note_off_c, 12, 59, 64
13, 5659, Note_on_c, 12, 56, 98
13, 5671, Note_off_c, 12, 57, 64
13, 5690, Note_off_c, 12, 56, 64
13, 5736, Note_on_c, 12, 63, 76
13, 5852, Note_off_c, 12, 63, 64
13, 5989, Note_on_c, 12, 64, 87
13, 6041, Note_off_c, 12, 64, 64
13, 6098, Note_on_c, 12, 52, 62
13, 6155, Note_off_c, 12, 52, 64
13, 6207, Note_on_c, 12, 54, 68
13, 6273, Note_off_c, 12, 54, 64
13, 6342, Note_on_c, 12, 56, 80
13, 6395, Note_off_c, 12, 56, 64
13, 6463, Note_on_c, 12, 57, 87
13, 6534, Note_off_c, 12, 57, 64
13, 6581, Note_on_c, 12, 49, 78
13, 6637, Note_off_c, 12, 49, 64
13, 6702, Note_on_c, 12, 50, 82
13, 6765, Note_off_c, 12, 50, 64
13, 6812, Note_on_c, 12, 52, 82
13, 6879, Note_off_c, 12, 52, 64
13, 6936, Note_on_c, 12, 54, 76
13, 6998, Note_off_c, 12, 54, 64
13, 7050, Note_on_c, 12, 50, 76
13, 7115, Note_off_c, 12, 50, 64
13, 7174, Note_on_c, 12, 56, 68
13, 7239, Note_off_c, 12, 56, 64
13, 7298, Note_on_c, 12, 52, 74
13, 7357, Note_off_c, 12, 52, 64
13, 7428, Note_on_c, 12, 57, 93
13, 7486, Note_off_c, 12, 57, 64
13, 7539, Note_on_c, 12, 49, 82
13, 7594, Note_off_c, 12, 49, 64
13, 7663, Note_on_c, 12, 47, 87
13, 7725, Note_off_c, 12, 47, 64
13, 7785, Note_on_c, 12, 45, 85
13, 7847, Note_off_c, 12, 45, 64
13, 7909, Note_on_c, 12, 50, 91
13, 7977, Note_off_c, 12, 50, 64
13, 8033, Note_on_c, 12, 52, 85
13, 8098, Note_off_c, 12, 52, 64
13, 8150, Note_on_c, 12, 54, 78
13, 8205, Note_off_c, 12, 54, 64
13, 8267, Note_on_c, 12, 50, 76
13, 8317, Note_off_c, 12, 50, 64
13, 8390, Note_on_c, 12, 52, 91
13, 8435, Note_off_c, 12, 52, 64
13, 8512, Note_on_c, 12, 40, 85
13, 8566, Note_off_c, 12, 40, 64
13, 8642, Note_on_c, 12, 45, 100
13, 8895, Note_off_c, 12, 45, 64
13, 18353, Note_on_c, 12, 50, 93
13, 18389, Note_off_c, 12, 50, 64
13, 18400, Note_on_c, 12, 52, 89
13, 18444, Note_off_c, 12, 52, 64
13, 18460, Note_on_c, 12, 54, 91
13, 18508, Note_off_c, 12, 54, 64
13, 18586, Note_on_c, 12, 57, 85
13, 18625, Note_off_c, 12, 57, 64
13, 18720, Note_on_c, 12, 62, 85
13, 18778, Note_off_c, 12, 62, 64
13, 18842, Note_on_c, 12, 57, 82
13, 18888, Note_off_c, 12, 57, 64
13, 18973, Note_on_c, 12, 45, 82
13, 19065, Note_off_c, 12, 45, 64
13, 19791, Note_on_c, 12, 52, 85
13, 19835, Note_on_c, 12, 54, 68
13, 19846, Note_off_c, 12, 52, 64
13, 19888, Note_off_c, 12, 54, 64
13, 19901, Note_on_c, 12, 55, 76
13, 19957, Note_off_c, 12, 55, 64
13, 20034, Note_on_c, 12, 59, 76
13, 20084, Note_off_c, 12, 59, 64
13, 20155, Note_on_c, 12, 64, 78
13, 20209, Note_off_c, 12, 64, 64
13, 20268, Note_on_c, 12, 59, 80
13, 20320, Note_off_c, 12, 59, 64
13, 20392, Note_on_c, 12, 47, 80
13, 20461, Note_off_c, 12, 47, 64
13, 20504, Note_on_c, 12, 52, 72
13, 20555, Note_off_c, 12, 52, 64
13, 20560, Note_on_c, 12, 51, 82
13, 20609, Note_off_c, 12, 51, 64
13, 20619, Note_on_c, 12, 52, 80
13, 20663, Note_off_c, 12, 52, 64
13, 20751, Note_on_c, 12, 45, 82
13, 20815, Note_off_c, 12, 45, 64
13, 20868, Note_on_c, 12, 47, 72
13, 20917, Note_off_c, 12, 47, 64
13, 20984, Note_on_c, 12, 42, 74
13, 21032, Note_off_c, 12, 42, 64
13, 21107, Note_on_c, 12, 43, 70
13, 21177, Note_off_c, 12, 43, 64
13, 21227, Note_on_c, 12, 40, 76
13, 21278, Note_on_c, 12, 42, 85
13, 21283, Note_off_c, 12, 40, 64
13, 21313, Note_off_c, 12, 42, 64
13, 21334, Note_on_c, 12, 43, 82
13, 21396, Note_off_c, 12, 43, 64
13, 21461, Note_on_c, 12, 45, 82
13, 21503, Note_off_c, 12, 45, 64
13, 21577, Note_on_c, 12, 47, 78
13, 21638, Note_off_c, 12, 47, 64
13, 21696, Note_on_c, 12, 52, 85
13, 21746, Note_on_c, 12, 51, 74
13, 21758, Note_off_c, 12, 52, 64
13, 21792, Note_off_c, 12, 51, 64
13, 21811, Note_on_c, 12, 52, 82
13, 21878, Note_off_c, 12, 52, 64
13, 21940, Note_on_c, 12, 49, 66
13, 22001, Note_off_c, 12, 49, 64
13, 22059, Note_on_c, 12, 50, 70
13, 22117, Note_off_c, 12, 50, 64
13, 22182, Note_on_c, 12, 47, 66
13, 22244, Note_off_c, 12, 47, 64
13, 22304, Note_on_c, 12, 49, 66
13, 22368, Note_off_c, 12, 49, 64
13, 22420, Note_on_c, 12, 46, 70
13, 22479, Note_off_c, 12, 46, 64
13, 22538, Note_on_c, 12, 47, 72
13, 22592, Note_off_c, 12, 47, 64
13, 22657, Note_on_c, 12, 50, 72
13, 22713, Note_off_c, 12, 50, 64
13, 22777, Note_on_c, 12, 49, 63
13, 22824, Note_off_c, 12, 49, 64
13, 22898, Note_on_c, 12, 47, 72
13, 22959, Note_off_c, 12, 47, 64
13, 23023, Note_on_c, 12, 52, 68
13, 23079, Note_off_c, 12, 52, 64
13, 23146, Note_on_c, 12, 54, 68
13, 23189, Note_off_c, 12, 54, 64
13, 23258, Note_on_c, 12, 55, 82
13, 23344, Note_off_c, 12, 55, 64
13, 23376, Note_on_c, 12, 54, 82
13, 23413, Note_off_c, 12, 54, 64
13, 23426, Note_on_c, 12, 52, 74
13, 23466, Note_off_c, 12, 52, 64
13, 23496, Note_on_c, 12, 50, 85
13, 23555, Note_off_c, 12, 50, 64
13, 23624, Note_on_c, 12, 52, 78
13, 23671, Note_off_c, 12, 52, 64
13, 23754, Note_on_c, 12, 54, 98
13, 23993, Note_off_c, 12, 54, 64
13, 24108, Note_on_c, 12, 47, 70
13, 24158, Note_off_c, 12, 47, 64
13, 24163, Note_on_c, 12, 46, 66
13, 24215, Note_off_c, 12, 46, 64
13, 24221, Note_on_c, 12, 47, 87
13, 24275, Note_off_c, 12, 47, 64
13, 24352, Note_on_c, 12, 49, 85
13, 24391, Note_off_c, 12, 49, 64
13, 24465, Note_on_c, 12, 47, 95
13, 24496, Note_on_c, 12, 46, 63
13, 24521, Note_off_c, 12, 46, 64
13, 24546, Note_on_c, 12, 46, 70
13, 24557, Note_off_c, 12, 47, 64
13, 24579, Note_on_c, 12, 44, 55
13, 24595, Note_off_c, 12, 46, 64
13, 24621, Note_off_c, 12, 44, 64
13, 24645, Note_on_c, 12, 42, 70
13, 24688, Note_off_c, 12, 42, 64
13, 24701, Note_on_c, 12, 54, 87
13, 24774, Note_off_c, 12, 54, 64
13, 24944, Note_on_c, 12, 52, 85
13, 25029, Note_off_c, 12, 52, 64
13, 25302, Note_on_c, 12, 50, 76
13, 25353, Note_off_c, 12, 50, 64
13, 25354, Note_on_c, 12, 49, 68
13, 25397, Note_off_c, 12, 49, 64
13, 25423, Note_on_c, 12, 50, 87
13, 25477, Note_off_c, 12, 50, 64
13, 25547, Note_on_c, 12, 52, 80
13, 25597, Note_off_c, 12, 52, 64
13, 25664, Note_on_c, 12, 50, 87
13, 25686, Note_on_c, 12, 49, 89
13, 25690, Note_off_c, 12, 50, 64
13, 25713, Note_on_c, 12, 50, 66
13, 25716, Note_off_c, 12, 49, 64
13, 25740, Note_on_c, 12, 49, 76
13, 25751, Note_off_c, 12, 50, 64
13, 25776, Note_off_c, 12, 49, 64
13, 25777, Note_on_c, 12, 47, 70
13, 25813, Note_on_c, 12, 46, 72
13, 25826, Note_off_c, 12, 47, 64
13, 25856, Note_off_c, 12, 46, 64
13, 25898, Note_on_c, 12, 53, 82
13, 25996, Note_off_c, 12, 53, 64
13, 26145, Note_on_c, 12, 54, 80
13, 26201, Note_off_c, 12, 54, 64
13, 26264, Note_on_c, 12, 42, 68
13, 26325, Note_off_c, 12, 42, 64
13, 26380, Note_on_c, 12, 44, 78
13, 26439, Note_off_c, 12, 44, 64
13, 26502, Note_on_c, 12, 46, 74
13, 26553, Note_off_c, 12, 46, 64
13, 26628, Note_on_c, 12, 47, 70
13, 26690, Note_off_c, 12, 47, 64
13, 26748, Note_on_c, 12, 50, 82
13, 26807, Note_off_c, 12, 50, 64
13, 26867, Note_on_c, 12, 52, 80
13, 26937, Note_off_c, 12, 52, 64
13, 26987, Note_on_c, 12, 54, 72
13, 27039, Note_off_c, 12, 54, 64
13, 27110, Note_on_c, 12, 55, 80
13, 27168, Note_off_c, 12, 55, 64
13, 27229, Note_on_c, 12, 52, 72
13, 27277, Note_off_c, 12, 52, 64
13, 27346, Note_on_c, 12, 58, 70
13, 27405, Note_off_c, 12, 58, 64
13, 27471, Note_on_c, 12, 54, 68
13, 27530, Note_off_c, 12, 54, 64
13, 27592, Note_on_c, 12, 59, 85
13, 27643, Note_off_c, 12, 59, 64
13, 27704, Note_on_c, 12, 50, 78
13, 27767, Note_off_c, 12, 50, 64
13, 27823, Note_on_c, 12, 49, 64
13, 27878, Note_off_c, 12, 49, 64
13, 27944, Note_on_c, 12, 47, 70
13, 27996, Note_off_c, 12, 47, 64
13, 28067, Note_on_c, 12, 52, 76
13, 28125, Note_off_c, 12, 52, 64
13, 28186, Note_on_c, 12, 54, 68
13, 28248, Note_off_c, 12, 54, 64
13, 28306, Note_on_c, 12, 55, 78
13, 28365, Note_off_c, 12, 55, 64
13, 28426, Note_on_c, 12, 52, 72
13, 28483, Note_off_c, 12, 52, 64
13, 28545, Note_on_c, 12, 54, 70
13, 28600, Note_off_c, 12, 54, 64
13, 28676, Note_on_c, 12, 42, 89
13, 28722, Note_off_c, 12, 42, 64
13, 28801, Note_on_c, 12, 47, 78
13, 29061, Note_off_c, 12, 47, 64
13, 44273, Note_on_c, 12, 50, 93
13, 44309, Note_off_c, 12, 50, 64
13, 44320, Note_on_c, 12, 52, 89
13, 44364, Note_off_c, 12, 52, 64
13, 44380, Note_on_c, 12, 54, 91
13, 44428, Note_off_c, 12, 54, 64
13, 44506, Note_on_c, 12, 57, 85
13, 44545, Note_off_c, 12, 57, 64
13, 44640, Note_on_c, 12, 62, 85
13, 44698, Note_off_c, 12, 62, 64
13, 44762, Note_on_c, 12, 57, 82
13, 44808, Note_off_c, 12, 57, 64
13, 44893, Note_on_c, 12, 45, 82
13, 44985, Note_off_c, 12, 45, 64
13, 45711, Note_on_c, 12, 52, 85
13, 45755, Note_on_c, 12, 54, 68
13, 45766, Note_off_c, 12, 52, 64
13, 45808, Note_off_c, 12, 54, 64
13, 45821, Note_on_c, 12, 55, 76
13, 45877, Note_off_c, 12, 55, 64
13, 45954, Note_on_c, 12, 59, 76
13, 46004, Note_off_c, 12, 59, 64
13, 46075, Note_on_c, 12, 64, 78
13, 46129, Note_off_c, 12, 64, 64
13, 46188, Note_on_c, 12, 59, 80
13, 46240, Note_off_c, 12, 59, 64
13, 46312, Note_on_c, 12, 47, 80
13, 46381, Note_off_c, 12, 47, 64
13, 46424, Note_on_c, 12, 52, 72
13, 46475, Note_off_c, 12, 52, 64
13, 46480, Note_on_c, 12, 51, 82
13, 46529, Note_off_c, 12, 51, 64
13, 46539, Note_on_c, 12, 52, 80
13, 46583, Note_off_c, 12, 52, 64
13, 46671, Note_on_c, 12, 45, 82
13, 46735, Note_off_c, 12, 45, 64
13, 46788, Note_on_c, 12, 47, 72
13, 46837, Note_off_c, 12, 47, 64
13, 46904, Note_on_c, 12, 42, 74
13, 46952, Note_off_c, 12, 42, 64
13, 47027, Note_on_c, 12, 43, 70
13, 47097, Note_off_c, 12, 43, 64
13, 47147, Note_on_c, 12, 40, 76
13, 47198, Note_on_c, 12, 42, 85
13, 47203, Note_off_c, 12, 40, 64
13, 47233, Note_off_c, 12, 42, 64
13, 47254, Note_on_c, 12, 43, 82
13, 47316, Note_off_c, 12, 43, 64
13, 47381, Note_on_c, 12, 45, 82
13, 47423, Note_off_c, 12, 45, 64
13, 47497, Note_on_c, 12, 47, 78
13, 47558, Note_off_c, 12, 47, 64
13, 47616, Note_on_c, 12, 52, 85
13, 47666, Note_on_c, 12, 51, 74
13, 47678, Note_off_c, 12, 52, 64
13, 47712, Note_off_c, 12, 51, 64
13, 47731, Note_on_c, 12, 52, 82
13, 47798, Note_off_c, 12, 52, 64
13, 47860, Note_on_c, 12, 49, 66
13, 47921, Note_off_c, 12, 49, 64
13, 47979, Note_on_c, 12, 50, 70
13, 48037, Note_off_c, 12, 50, 64
13, 48102, Note_on_c, 12, 47, 66
13, 48164, Note_off_c, 12, 47, 64
13, 48224, Note_on_c, 12, 49, 66
13, 48288, Note_off_c, 12, 49, 64
13, 48340, Note_on_c, 12, 46, 70
13, 48399, Note_off_c, 12, 46, 64
13, 48458, Note_on_c, 12, 47, 72
13, 48512, Note_off_c, 12, 47, 64
13, 48577, Note_on_c, 12, 50, 72
13, 48633, Note_off_c, 12, 50, 64
13, 48697, Note_on_c, 12, 49, 63
13, 48744, Note_off_c, 12, 49, 64
13, 48818, Note_on_c, 12, 47, 72
13, 48879, Note_off_c, 12, 47, 64
13, 48943, Note_on_c, 12, 52, 68
13, 48999, Note_off_c, 12, 52, 64
13, 49066, Note_on_c, 12, 54, 68
13, 49109, Note_off_c, 12, 54, 64
13, 49178, Note_on_c, 12, 55, 82
13, 49264, Note_off_c, 12, 55, 64
13, 49296, Note_on_c, 12, 54, 82
13, 49333, Note_off_c, 12, 54, 64
13, 49346, Note_on_c, 12, 52, 74
13, 49386, Note_off_c, 12, 52, 64
13, 49416, Note_on_c, 12, 50, 85
13, 49475, Note_off_c, 12, 50, 64
13, 49544, Note_on_c, 12, 52, 78
13, 49591, Note_off_c, 12, 52, 64
13, 49674, Note_on_c, 12, 54, 98
13, 49913, Note_off_c, 12, 54, 64
13, 50028, Note_on_c, 12, 47, 70
13, 50078, Note_off_c, 12, 47, 64
13, 50083, Note_on_c, 12, 46, 66
13, 50135, Note_off_c, 12, 46, 64
13, 50141, Note_on_c, 12, 47, 87
13, 50195, Note_off_c, 12, 47, 64
13, 50272, Note_on_c, 12, 49, 85
13, 50311, Note_off_c, 12, 49, 64
13, 50385, Note_on_c, 12, 47, 95
13, 50416, Note_on_c, 12, 46, 63
13, 50441, Note_off_c, 12, 46, 64
13, 50466, Note_on_c, 12, 46, 70
13, 50477, Note_off_c, 12, 47, 64
13, 50499, Note_on_c, 12, 44, 55
13, 50515, Note_off_c, 12, 46, 64
13, 50541, Note_off_c, 12, 44, 64
13, 50565, Note_on_c, 12, 42, 70
13, 50608, Note_off_c, 12, 42, 64
13, 50621, Note_on_c, 12, 54, 87
13, 50694, Note_off_c, 12, 54, 64
13, 50864, Note_on_c, 12, 52, 85
13, 50949, Note_off_c, 12, 52, 64
13, 51222, Note_on_c, 12, 50, 76
13, 51273, Note_off_c, 12, 50, 64
13, 51274, Note_on_c, 12, 49, 68
13, 51317, Note_off_c, 12, 49, 64
13, 51343, Note_on_c, 12, 50, 87
13, 51397, Note_off_c, 12, 50, 64
13, 51467, Note_on_c, 12, 52, 80
13, 51517, Note_off_c, 12, 52, 64
13, 51584, Note_on_c, 12, 50, 87
13, 51606, Note_on_c, 12, 49, 89
13, 51610, Note_off_c, 12, 50, 64
13, 51633, Note_on_c, 12, 50, 66
13, 51636, Note_off_c, 12, 49, 64
13, 51660, Note_on_c, 12, 49, 76
13, 51671, Note_off_c, 12, 50, 64
13, 51696, Note_off_c, 12, 49, 64
13, 51697, Note_on_c, 12, 47, 70
13, 51733, Note_on_c, 12, 46, 72
13, 51746, Note_off_c, 12, 47, 64
13, 51776, Note_off_c, 12, 46, 64
13, 51818, Note_on_c, 12, 53, 82
13, 51916, Note_off_c, 12, 53, 64
13, 52065, Note_on_c, 12, 54, 80
13, 52121, Note_off_c, 12, 54, 64
13, 52184, Note_on_c, 12, 42, 68
13, 52245, Note_off_c, 12, 42, 64
13, 52300, Note_on_c, 12, 44, 78
13, 52359, Note_off_c, 12, 44, 64
13, 52422, Note_on_c, 12, 46, 74
13, 52473, Note_off_c, 12, 46, 64
13, 52548, Note_on_c, 12, 47, 70
13, 52610, Note_off_c, 12, 47, 64
13, 52668, Note_on_c, 12, 50, 82
13, 52727, Note_off_c, 12, 50, 64
13, 52787, Note_on_c, 12, 52, 80
13, 52857, Note_off_c, 12, 52, 64
13, 52907, Note_on_c, 12, 54, 72
13, 52959, Note_off_c, 12, 54, 64
13, 53030, Note_on_c, 12, 55, 80
13, 53088, Note_off_c, 12, 55, 64
13, 53149, Note_on_c, 12, 52, 72
13, 53197, Note_off_c, 12, 52, 64
13, 53266, Note_on_c, 12, 58, 70
13, 53325, Note_off_c, 12, 58, 64
13, 53391, Note_on_c, 12, 54, 68
13, 53450, Note_off_c, 12, 54, 64
13, 53512, Note_on_c, 12, 59, 85
13, 53563, Note_off_c, 12, 59, 64
13, 53624, Note_on_c, 12, 50, 78
13, 53687, Note_off_c, 12, 50, 64
13, 53743, Note_on_c, 12, 49, 64
13, 53798, Note_off_c, 12, 49, 64
13, 53864, Note_on_c, 12, 47, 70
13, 53916, Note_off_c, 12, 47, 64
13, 53987, Note_on_c, 12, 52, 76
13, 54045, Note_off_c, 12, 52, 64
13, 54106, Note_on_c, 12, 54, 68
13, 54168, Note_off_c, 12, 54, 64
13, 54226, Note_on_c, 12, 55, 78
13, 54285, Note_off_c, 12, 55, 64
13, 54346, Note_on_c, 12, 52, 72
13, 54403, Note_off_c, 12, 52, 64
13, 54465, Note_on_c, 12, 54, 70
13, 54520, Note_off_c, 12, 54, 64
13, 54596, Note_on_c, 12, 42, 89
13, 54642, Note_off_c, 12, 42, 64
13, 54721, Note_on_c, 12, 47, 78
13, 54981, Note_off_c, 12, 47, 64
13, 54981, End_track
14, 0, Start_track
14, 0, Title_t, "Trumpet"
14, 0, Program_c, 0, 56
14, 0, Control_c, 0, 7, 127
14, 9003, Note_on_c, 0, 78, 102
14, 9037, Note_off_c, 0, 78, 64
14, 9053, Note_on_c, 0, 76, 93
14, 9089, Note_off_c, 0, 76, 64
14, 9115, Note_on_c, 0, 78, 89
14, 9160, Note_off_c, 0, 78, 64
14, 9238, Note_on_c, 0, 79, 89
14, 9276, Note_off_c, 0, 79, 64
14, 9368, Note_on_c, 0, 76, 105
14, 9459, Note_off_c, 0, 76, 64
14, 9478, Note_on_c, 0, 74, 80
14, 9516, Note_off_c, 0, 74, 64
14, 9539, Note_on_c, 0, 73, 82
14, 9576, Note_off_c, 0, 73, 64
14, 9597, Note_on_c, 0, 74, 76
14, 9638, Note_off_c, 0, 74, 64
14, 9655, Note_on_c, 0, 76, 85
14, 9688, Note_off_c, 0, 76, 64
14, 9710, Note_on_c, 0, 78, 82
14, 9760, Note_off_c, 0, 78, 64
14, 9768, Note_on_c, 0, 79, 87
14, 9804, Note_off_c, 0, 79, 64
14, 9831, Note_on_c, 0, 81, 98
14, 9873, Note_off_c, 0, 81, 64
14, 9950, Note_on_c, 0, 83, 87
14, 9993, Note_off_c, 0, 83, 64
14, 10067, Note_on_c, 0, 81, 113
14, 10091, Note_on_c, 0, 79, 68
14, 10095, Note_off_c, 0, 81, 64
14, 10112, Note_off_c, 0, 79, 64
14, 10114, Note_on_c, 0, 81, 68
14, 10145, Note_on_c, 0, 79, 82
14, 10149, Note_off_c, 0, 81, 64
14, 10175, Note_off_c, 0, 79, 64
14, 10189, Note_on_c, 0, 78, 78
14, 10356, Note_off_c, 0, 78, 64
14, 29158, Note_on_c, 0, 74, 63
14, 29252, Note_off_c, 0, 74, 64
14, 29275, Note_on_c, 0, 74, 63
14, 29377, Note_off_c, 0, 74, 64
14, 29402, Note_on_c, 0, 74, 64
14, 29490, Note_off_c, 0, 74, 64
14, 29518, Note_on_c, 0, 74, 66
14, 29611, Note_off_c, 0, 74, 64
14, 29635, Note_on_c, 0, 74, 62
14, 29722, Note_off_c, 0, 74, 64
14, 29753, Note_on_c, 0, 74, 66
14, 29840, Note_off_c, 0, 74, 64
14, 29869, Note_on_c, 0, 74, 64
14, 29960, Note_off_c, 0, 74, 64
14, 29989, Note_on_c, 0, 74, 62
14, 30073, Note_off_c, 0, 74, 64
14, 30105, Note_on_c, 0, 74, 68
14, 30175, Note_off_c, 0, 74, 64
14, 30227, Note_on_c, 0, 74, 64
14, 30453, Note_off_c, 0, 74, 64
14, 30584, Note_on_c, 0, 76, 59
14, 30673, Note_off_c, 0, 76, 64
14, 30699, Note_on_c, 0, 76, 63
14, 30802, Note_off_c, 0, 76, 64
14, 30828, Note_on_c, 0, 76, 68
14, 30917, Note_off_c, 0, 76, 64
14, 30940, Note_on_c, 0, 76, 64
14, 31044, Note_off_c, 0, 76, 64
14, 31066, Note_on_c, 0, 76, 68
14, 31157, Note_off_c, 0, 76, 64
14, 31188, Note_on_c, 0, 76, 80
14, 31286, Note_off_c, 0, 76, 64
14, 31305, Note_on_c, 0, 76, 76
14, 31392, Note_off_c, 0, 76, 64
14, 31424, Note_on_c, 0, 76, 76
14, 31497, Note_off_c, 0, 76, 64
14, 31538, Note_on_c, 0, 76, 80
14, 31606, Note_off_c, 0, 76, 64
14, 31669, Note_on_c, 0, 76, 82
14, 31916, Note_off_c, 0, 76, 64
14, 32037, Note_on_c, 0, 81, 91
14, 32083, Note_off_c, 0, 81, 64
14, 32087, Note_on_c, 0, 80, 85
14, 32129, Note_off_c, 0, 80, 64
14, 32144, Note_on_c, 0, 83, 93
14, 32195, Note_off_c, 0, 83, 64
14, 32269, Note_on_c, 0, 81, 95
14, 32315, Note_off_c, 0, 81, 64
14, 32386, Note_on_c, 0, 81, 87
14, 32409, Note_on_c, 0, 80, 98
14, 32412, Note_off_c, 0, 81, 64
14, 32436, Note_on_c, 0, 81, 82
14, 32444, Note_off_c, 0, 80, 64
14, 32464, Note_on_c, 0, 80, 68
14, 32467, Note_off_c, 0, 81, 64
14, 32490, Note_off_c, 0, 80, 64
14, 32505, Note_on_c, 0, 81, 98
14, 32652, Note_off_c, 0, 81, 64
14, 32750, Note_on_c, 0, 79, 80
14, 32795, Note_off_c, 0, 79, 64
14, 32796, Note_on_c, 0, 78, 80
14, 32839, Note_off_c, 0, 78, 64
14, 32862, Note_on_c, 0, 81, 91
14, 32917, Note_off_c, 0, 81, 64
14, 32987, Note_on_c, 0, 79, 91
14, 33038, Note_off_c, 0, 79, 64
14, 33102, Note_on_c, 0, 79, 98
14, 33126, Note_on_c, 0, 78, 89
14, 33130, Note_off_c, 0, 79, 64
14, 33151, Note_on_c, 0, 79, 80
14, 33153, Note_off_c, 0, 78, 64
14, 33177, Note_on_c, 0, 78, 82
14, 33183, Note_off_c, 0, 79, 64
14, 33206, Note_off_c, 0, 78, 64
14, 33230, Note_on_c, 0, 79, 100
14, 33393, Note_off_c, 0, 79, 64
14, 36358, Note_on_c, 0, 79, 100
14, 36401, Note_off_c, 0, 79, 64
14, 36406, Note_on_c, 0, 78, 93
14, 36442, Note_off_c, 0, 78, 64
14, 36469, Note_on_c, 0, 79, 98
14, 36516, Note_off_c, 0, 79, 64
14, 36589, Note_on_c, 0, 76, 85
14, 36652, Note_off_c, 0, 76, 64
14, 36713, Note_on_c, 0, 78, 85
14, 36753, Note_off_c, 0, 78, 64
14, 36770, Note_on_c, 0, 79, 87
14, 36804, Note_off_c, 0, 79, 64
14, 36827, Note_on_c, 0, 81, 76
14, 36879, Note_off_c, 0, 81, 64
14, 36885, Note_on_c, 0, 83, 82
14, 36925, Note_off_c, 0, 83, 64
14, 36948, Note_on_c, 0, 85, 91
14, 37001, Note_off_c, 0, 85, 64
14, 37068, Note_on_c, 0, 86, 89
14, 37121, Note_off_c, 0, 86, 64
14, 37186, Note_on_c, 0, 85, 85
14, 37231, Note_off_c, 0, 85, 64
14, 37242, Note_on_c, 0, 83, 85
14, 37281, Note_off_c, 0, 83, 64
14, 37301, Note_on_c, 0, 81, 89
14, 37345, Note_off_c, 0, 81, 64
14, 37356, Note_on_c, 0, 79, 82
14, 37392, Note_off_c, 0, 79, 64
14, 37425, Note_on_c, 0, 78, 98
14, 37546, Note_off_c, 0, 78, 64
14, 37604, Note_on_c, 0, 80, 91
14, 37636, Note_off_c, 0, 80, 64
14, 37668, Note_on_c, 0, 81, 89
14, 37721, Note_on_c, 0, 80, 74
14, 37730, Note_off_c, 0, 81, 64
14, 37752, Note_off_c, 0, 80, 64
14, 37755, Note_on_c, 0, 81, 76
14, 37782, Note_on_c, 0, 80, 70
14, 37789, Note_off_c, 0, 81, 64
14, 37809, Note_off_c, 0, 80, 64
14, 37810, Note_on_c, 0, 81, 68
14, 37837, Note_on_c, 0, 80, 63
14, 37844, Note_off_c, 0, 81, 64
14, 37859, Note_off_c, 0, 80, 64
14, 37861, Note_on_c, 0, 81, 70
14, 37889, Note_off_c, 0, 81, 64
14, 37889, Note_on_c, 0, 80, 66
14, 37910, Note_off_c, 0, 80, 64
14, 37913, Note_on_c, 0, 81, 62
14, 37934, Note_on_c, 0, 80, 66
14, 37938, Note_off_c, 0, 81, 64
14, 37960, Note_off_c, 0, 80, 64
14, 37963, Note_on_c, 0, 81, 53
14, 37978, Note_off_c, 0, 81, 64
14, 37980, Note_on_c, 0, 80, 57
14, 38000, Note_on_c, 0, 81, 61
14, 38006, Note_off_c, 0, 80, 64
14, 38025, Note_on_c, 0, 80, 64
14, 38041, Note_off_c, 0, 81, 64
14, 38057, Note_on_c, 0, 78, 78
14, 38060, Note_off_c, 0, 80, 64
14, 38102, Note_on_c, 0, 80, 66
14, 38111, Note_off_c, 0, 78, 64
14, 38131, Note_off_c, 0, 80, 64
14, 38151, Note_on_c, 0, 81, 89
14, 38395, Note_off_c, 0, 81, 64
14, 40666, Note_on_c, 0, 79, 110
14, 40697, Note_off_c, 0, 79, 64
14, 40721, Note_on_c, 0, 78, 102
14, 40754, Note_off_c, 0, 78, 64
14, 40783, Note_on_c, 0, 79, 100
14, 40832, Note_off_c, 0, 79, 64
14, 40905, Note_on_c, 0, 81, 100
14, 40959, Note_off_c, 0, 81, 64
14, 41035, Note_on_c, 0, 79, 102
14, 41073, Note_off_c, 0, 79, 64
14, 41089, Note_on_c, 0, 78, 102
14, 41129, Note_off_c, 0, 78, 64
14, 41148, Note_on_c, 0, 76, 98
14, 41192, Note_off_c, 0, 76, 64
14, 41205, Note_on_c, 0, 74, 87
14, 41242, Note_off_c, 0, 74, 64
14, 41268, Note_on_c, 0, 78, 95
14, 41313, Note_off_c, 0, 78, 64
14, 41325, Note_on_c, 0, 76, 87
14, 41361, Note_off_c, 0, 76, 64
14, 41381, Note_on_c, 0, 74, 95
14, 41430, Note_off_c, 0, 74, 64
14, 41438, Note_on_c, 0, 73, 91
14, 41478, Note_off_c, 0, 73, 64
14, 41506, Note_on_c, 0, 74, 107
14, 41555, Note_off_c, 0, 74, 64
14, 41630, Note_on_c, 0, 76, 98
14, 41680, Note_off_c, 0, 76, 64
14, 41754, Note_on_c, 0, 69, 98
14, 42009, Note_off_c, 0, 69, 64
14, 42121, Note_on_c, 0, 74, 102
14, 42167, Note_off_c, 0, 74, 64
14, 42236, Note_on_c, 0, 76, 95
14, 42299, Note_off_c, 0, 76, 64
14, 42356, Note_on_c, 0, 78, 93
14, 42404, Note_off_c, 0, 78, 64
14, 42474, Note_on_c, 0, 79, 98
14, 42510, Note_off_c, 0, 79, 64
14, 42528, Note_on_c, 0, 78, 100
14, 42569, Note_off_c, 0, 78, 64
14, 42584, Note_on_c, 0, 79, 89
14, 42620, Note_off_c, 0, 79, 64
14, 42633, Note_on_c, 0, 76, 82
14, 42678, Note_off_c, 0, 76, 64
14, 42702, Note_on_c, 0, 81, 98
14, 42773, Note_off_c, 0, 81, 64
14, 42820, Note_on_c, 0, 83, 93
14, 42855, Note_off_c, 0, 83, 64
14, 42876, Note_on_c, 0, 81, 98
14, 42911, Note_off_c, 0, 81, 64
14, 42940, Note_on_c, 0, 79, 98
14, 42985, Note_off_c, 0, 79, 64
14, 42994, Note_on_c, 0, 78, 98
14, 43027, Note_off_c, 0, 78, 64
14, 43056, Note_on_c, 0, 76, 100
14, 43093, Note_off_c, 0, 76, 64
14, 43112, Note_on_c, 0, 78, 98
14, 43146, Note_off_c, 0, 78, 64
14, 43196, Note_on_c, 0, 74, 107
14, 43467, Note_off_c, 0, 74, 64
14, 55078, Note_on_c, 0, 74, 63
14, 55172, Note_off_c, 0, 74, 64
14, 55195, Note_on_c, 0, 74, 63
14, 55297, Note_off_c, 0, 74, 64
14, 55322, Note_on_c, 0, 74, 64
14, 55410, Note_off_c, 0, 74, 64
14, 55438, Note_on_c, 0, 74, 66
14, 55531, Note_off_c, 0, 74, 64
14, 55555, Note_on_c, 0, 74, 62
14, 55642, Note_off_c, 0, 74, 64
14, 55673, Note_on_c, 0, 74, 66
14, 55760, Note_off_c, 0, 74, 64
14, 55789, Note_on_c, 0, 74, 64
14, 55880, Note_off_c, 0, 74, 64
14, 55909, Note_on_c, 0, 74, 62
14, 55993, Note_off_c, 0, 74, 64
14, 56025, Note_on_c, 0, 74, 68
14, 56095, Note_off_c, 0, 74, 64
14, 56147, Note_on_c, 0, 74, 64
14, 56373, Note_off_c, 0, 74, 64
14, 56504, Note_on_c, 0, 76, 59
14, 56593, Note_off_c, 0, 76, 64
14, 56619, Note_on_c, 0, 76, 63
14, 56722, Note_off_c, 0, 76, 64
14, 56748, Note_on_c, 0, 76, 68
14, 56837, Note_off_c, 0, 76, 64
14, 56860, Note_on_c, 0, 76, 64
14, 56964, Note_off_c, 0, 76, 64
14, 56986, Note_on_c, 0, 76, 68
14, 57077, Note_off_c, 0, 76, 64
14, 57108, Note_on_c, 0, 76, 80
14, 57206, Note_off_c, 0, 76, 64
14, 57225, Note_on_c, 0, 76, 76
14, 57312, Note_off_c, 0, 76, 64
14, 57344, Note_on_c, 0, 76, 76
14, 57417, Note_off_c, 0, 76, 64
14, 57458, Note_on_c, 0, 76, 80
14, 57526, Note_off_c, 0, 76, 64
14, 57589, Note_on_c, 0, 76, 82
14, 57836, Note_off_c, 0, 76, 64
14, 57957, Note_on_c, 0, 81, 91
14, 58003, Note_off_c, 0, 81, 64
14, 58007, Note_on_c, 0, 80, 85
14, 58049, Note_off_c, 0, 80, 64
14, 58064, Note_on_c, 0, 83, 93
14, 58115, Note_off_c, 0, 83, 64
14, 58189, Note_on_c, 0, 81, 95
14, 58235, Note_off_c, 0, 81, 64
14, 58306, Note_on_c, 0, 81, 87
14, 58329, Note_on_c, 0, 80, 98
14, 58332, Note_off_c, 0, 81, 64
14, 58356, Note_on_c, 0, 81, 82
14, 58364, Note_off_c, 0, 80, 64
14, 58384, Note_on_c, 0, 80, 68
14, 58387, Note_off_c, 0, 81, 64
14, 58410, Note_off_c, 0, 80, 64
14, 58425, Note_on_c, 0, 81, 98
14, 58572, Note_off_c, 0, 81, 64
14, 58670, Note_on_c, 0, 79, 80
14, 58715, Note_off_c, 0, 79, 64
14, 58716, Note_on_c, 0, 78, 80
14, 58759, Note_off_c, 0, 78, 64
14, 58782, Note_on_c, 0, 81, 91
14, 58837, Note_off_c, 0, 81, 64
14, 58907, Note_on_c, 0, 79, 91
14, 58958, Note_off_c, 0, 79, 64
14, 59022, Note_on_c, 0, 79, 98
14, 59046, Note_on_c, 0, 78, 89
14, 59050, Note_off_c, 0, 79, 64
14, 59071, Note_on_c, 0, 79, 80
14, 59073, Note_off_c, 0, 78, 64
14, 59097, Note_on_c, 0, 78, 82
14, 59103, Note_off_c, 0, 79, 64
14, 59126, Note_off_c, 0, 78, 64
14, 59150, Note_on_c, 0, 79, 100
14, 59313, Note_off_c, 0, 79, 64
14, 62278, Note_on_c, 0, 79, 100
14, 62321, Note_off_c, 0, 79, 64
14, 62326, Note_on_c, 0, 78, 93
14, 62362, Note_off_c, 0, 78, 64
14, 62389, Note_on_c, 0, 79, 98
14, 62436, Note_off_c, 0, 79, 64
14, 62509, Note_on_c, 0, 76, 85
14, 62572, Note_off_c, 0, 76, 64
14, 62633, Note_on_c, 0, 78, 85
14, 62673, Note_off_c, 0, 78, 64
14, 62690, Note_on_c, 0, 79, 87
14, 62724, Note_off_c, 0, 79, 64
14, 62747, Note_on_c, 0, 81, 76
14, 62799, Note_off_c, 0, 81, 64
14, 62805, Note_on_c, 0, 83, 82
14, 62845, Note_off_c, 0, 83, 64
14, 62868, Note_on_c, 0, 85, 91
14, 62921, Note_off_c, 0, 85, 64
14, 62988, Note_on_c, 0, 86, 89
14, 63041, Note_off_c, 0, 86, 64
14, 63106, Note_on_c, 0, 85, 85
14, 63151, Note_off_c, 0, 85, 64
14, 63162, Note_on_c, 0, 83, 85
14, 63201, Note_off_c, 0, 83, 64
14, 63221, Note_on_c, 0, 81, 89
14, 63265, Note_off_c, 0, 81, 64
14, 63276, Note_on_c, 0, 79, 82
14, 63312, Note_off_c, 0, 79, 64
14, 63345, Note_on_c, 0, 78, 98
14, 63466, Note_off_c, 0, 78, 64
14, 63524, Note_on_c, 0, 80, 91
14, 63556, Note_off_c, 0, 80, 64
14, 63588, Note_on_c, 0, 81, 89
14, 63641, Note_on_c, 0, 80, 74
14, 63650, Note_off_c, 0, 81, 64
14, 63672, Note_off_c, 0, 80, 64
14, 63675, Note_on_c, 0, 81, 76
14, 63702, Note_on_c, 0, 80, 70
14, 63709, Note_off_c, 0, 81, 64
14, 63729, Note_off_c, 0, 80, 64
14, 63730, Note_on_c, 0, 81, 68
14, 63757, Note_on_c, 0, 80, 63
14, 63764, Note_off_c, 0, 81, 64
14, 63779, Note_off_c, 0, 80, 64
14, 63781, Note_on_c, 0, 81, 70
14, 63809, Note_off_c, 0, 81, 64
14, 63809, Note_on_c, 0, 80, 66
14, 63830, Note_off_c, 0, 80, 64
14, 63833, Note_on_c, 0, 81, 62
14, 63854, Note_on_c, 0, 80, 66
14, 63858, Note_off_c, 0, 81, 64
14, 63880, Note_off_c, 0, 80, 64
14, 63883, Note_on_c, 0, 81, 53
14, 63898, Note_off_c, 0, 81, 64
14, 63900, Note_on_c, 0, 80, 57
14, 63920, Note_on_c, 0, 81, 61
14, 63926, Note_off_c, 0, 80, 64
14, 63945, Note_on_c, 0, 80, 64
14, 63961, Note_off_c, 0, 81, 64
14, 63977, Note_on_c, 0, 78, 78
14, 63980, Note_off_c, 0, 80, 64
14, 64022, Note_on_c, 0, 80, 66
14, 64031, Note_off_c, 0, 78, 64
14, 64051, Note_off_c, 0, 80, 64
14, 64071, Note_on_c, 0, 81, 89
14, 64315, Note_off_c, 0, 81, 64
14, 66586, Note_on_c, 0, 79, 110
14, 66617, Note_off_c, 0, 79, 64
14, 66641, Note_on_c, 0, 78, 102
14, 66674, Note_off_c, 0, 78, 64
14, 66703, Note_on_c, 0, 79, 100
14, 66752, Note_off_c, 0, 79, 64
14, 66825, Note_on_c, 0, 81, 100
14, 66879, Note_off_c, 0, 81, 64
14, 66955, Note_on_c, 0, 79, 102
14, 66993, Note_off_c, 0, 79, 64
14, 67009, Note_on_c, 0, 78, 102
14, 67049, Note_off_c, 0, 78, 64
14, 67068, Note_on_c, 0, 76, 98
14, 67112, Note_off_c, 0, 76, 64
14, 67125, Note_on_c, 0, 74, 87
14, 67162, Note_off_c, 0, 74, 64
14, 67188, Note_on_c, 0, 78, 95
14, 67233, Note_off_c, 0, 78, 64
14, 67245, Note_on_c, 0, 76, 87
14, 67281, Note_off_c, 0, 76, 64
14, 67301, Note_on_c, 0, 74, 95
14, 67350, Note_off_c, 0, 74, 64
14, 67358, Note_on_c, 0, 73, 91
14, 67398, Note_off_c, 0, 73, 64
14, 67426, Note_on_c, 0, 74, 107
14, 67475, Note_off_c, 0, 74, 64
14, 67550, Note_on_c, 0, 76, 98
14, 67600, Note_off_c, 0, 76, 64
14, 67674, Note_on_c, 0, 69, 98
14, 67929, Note_off_c, 0, 69, 64
14, 68041, Note_on_c, 0, 74, 102
14, 68087, Note_off_c, 0, 74, 64
14, 68156, Note_on_c, 0, 76, 95
14, 68219, Note_off_c, 0, 76, 64
14, 68276, Note_on_c, 0, 78, 93
14, 68324, Note_off_c, 0, 78, 64
14, 68394, Note_on_c, 0, 79, 98
14, 68430, Note_off_c, 0, 79, 64
14, 68448, Note_on_c, 0, 78, 100
14, 68489, Note_off_c, 0, 78, 64
14, 68504, Note_on_c, 0, 79, 89
14, 68540, Note_off_c, 0, 79, 64
14, 68553, Note_on_c, 0, 76, 82
14, 68598, Note_off_c, 0, 76, 64
14, 68622, Note_on_c, 0, 81, 98
14, 68693, Note_off_c, 0, 81, 64
14, 68740, Note_on_c, 0, 83, 93
14, 68775, Note_off_c, 0, 83, 64
14, 68796, Note_on_c, 0, 81, 98
14, 68831, Note_off_c, 0, 81, 64
14, 68860, Note_on_c, 0, 79, 98
14, 68905, Note_off_c, 0, 79, 64
14, 68914, Note_on_c, 0, 78, 98
14, 68947, Note_off_c, 0, 78, 64
14, 68976, Note_on_c, 0, 76, 100
14, 69013, Note_off_c, 0, 76, 64
14, 69032, Note_on_c, 0, 78, 98
14, 69066, Note_off_c, 0, 78, 64
14, 69116, Note_on_c, 0, 74, 107
14, 69387, Note_off_c, 0, 74, 64
14, 69387, End_track
15, 0, Start_track
15, 0, Title_t, "Trumpet"
15, 0, Program_c, 1, 56
15, 0, Control_c, 1, 7, 127
15, 9003, Note_on_c, 1, 74, 102
15, 9047, Note_off_c, 1, 74, 64
15, 9115, Note_on_c, 1, 74, 91
15, 9167, Note_off_c, 1, 74, 64
15, 9233, Note_on_c, 1, 76, 93
15, 9279, Note_off_c, 1, 76, 64
15, 9357, Note_on_c, 1, 69, 85
15, 9394, Note_off_c, 1, 69, 64
15, 9482, Note_on_c, 1, 69, 102
15, 9631, Note_off_c, 1, 69, 64
15, 9715, Note_on_c, 1, 69, 95
15, 9759, Note_off_c, 1, 69, 64
15, 9821, Note_on_c, 1, 74, 89
15, 9860, Note_off_c, 1, 74, 64
15, 9944, Note_on_c, 1, 79, 91
15, 9984, Note_off_c, 1, 79, 64
15, 10067, Note_on_c, 1, 78, 100
15, 10096, Note_on_c, 1, 76, 52
15, 10097, Note_off_c, 1, 78, 64
15, 10112, Note_off_c, 1, 76, 64
15, 10114, Note_on_c, 1, 78, 85
15, 10137, Note_on_c, 1, 76, 87
15, 10145, Note_off_c, 1, 78, 64
15, 10171, Note_off_c, 1, 76, 64
15, 10188, Note_on_c, 1, 74, 98
15, 10344, Note_off_c, 1, 74, 64
15, 29873, Note_on_c, 1, 74, 66
15, 29957, Note_off_c, 1, 74, 64
15, 29982, Note_on_c, 1, 74, 66
15, 30070, Note_off_c, 1, 74, 64
15, 30102, Note_on_c, 1, 74, 68
15, 30192, Note_off_c, 1, 74, 64
15, 30228, Note_on_c, 1, 74, 80
15, 30478, Note_off_c, 1, 74, 64
15, 31303, Note_on_c, 1, 76, 70
15, 31391, Note_off_c, 1, 76, 64
15, 31419, Note_on_c, 1, 76, 76
15, 31519, Note_off_c, 1, 76, 64
15, 31545, Note_on_c, 1, 76, 70
15, 31630, Note_off_c, 1, 76, 64
15, 31666, Note_on_c, 1, 76, 89
15, 31927, Note_off_c, 1, 76, 64
15, 32037, Note_on_c, 1, 76, 100
15, 32099, Note_off_c, 1, 76, 64
15, 32151, Note_on_c, 1, 78, 89
15, 32203, Note_off_c, 1, 78, 64
15, 32267, Note_on_c, 1, 76, 85
15, 32308, Note_off_c, 1, 76, 64
15, 32370, Note_on_c, 1, 76, 100
15, 32396, Note_on_c, 1, 74, 91
15, 32399, Note_off_c, 1, 76, 64
15, 32420, Note_on_c, 1, 76, 82
15, 32424, Note_off_c, 1, 74, 64
15, 32452, Note_on_c, 1, 74, 80
15, 32457, Note_off_c, 1, 76, 64
15, 32479, Note_off_c, 1, 74, 64
15, 32493, Note_on_c, 1, 76, 95
15, 32645, Note_off_c, 1, 76, 64
15, 32748, Note_on_c, 1, 76, 98
15, 32789, Note_off_c, 1, 76, 64
15, 32800, Note_on_c, 1, 74, 85
15, 32835, Note_off_c, 1, 74, 64
15, 32855, Note_on_c, 1, 78, 102
15, 32903, Note_off_c, 1, 78, 64
15, 32981, Note_on_c, 1, 76, 102
15, 33024, Note_off_c, 1, 76, 64
15, 33106, Note_on_c, 1, 76, 105
15, 33133, Note_off_c, 1, 76, 64
15, 33134, Note_on_c, 1, 74, 98
15, 33151, Note_on_c, 1, 76, 82
15, 33159, Note_off_c, 1, 74, 64
15, 33184, Note_on_c, 1, 74, 91
15, 33188, Note_off_c, 1, 76, 64
15, 33212, Note_off_c, 1, 74, 64
15, 33228, Note_on_c, 1, 76, 107
15, 33368, Note_off_c, 1, 76, 64
15, 36354, Note_on_c, 1, 76, 102
15, 36406, Note_off_c, 1, 76, 64
15, 36469, Note_on_c, 1, 74, 87
15, 36531, Note_off_c, 1, 74, 64
15, 36581, Note_on_c, 1, 76, 87
15, 36640, Note_off_c, 1, 76, 64
15, 36705, Note_on_c, 1, 74, 85
15, 36760, Note_off_c, 1, 74, 64
15, 36827, Note_on_c, 1, 74, 89
15, 36889, Note_off_c, 1, 74, 64
15, 36941, Note_on_c, 1, 79, 89
15, 37006, Note_off_c, 1, 79, 64
15, 37061, Note_on_c, 1, 78, 89
15, 37120, Note_off_c, 1, 78, 64
15, 37181, Note_on_c, 1, 76, 98
15, 37238, Note_off_c, 1, 76, 64
15, 37299, Note_on_c, 1, 76, 100
15, 37351, Note_off_c, 1, 76, 64
15, 37413, Note_on_c, 1, 74, 100
15, 37528, Note_off_c, 1, 74, 64
15, 37589, Note_on_c, 1, 76, 102
15, 37625, Note_off_c, 1, 76, 64
15, 37661, Note_on_c, 1, 78, 100
15, 37718, Note_on_c, 1, 76, 91
15, 37724, Note_off_c, 1, 78, 64
15, 37748, Note_off_c, 1, 76, 64
15, 37755, Note_on_c, 1, 78, 74
15, 37779, Note_on_c, 1, 76, 80
15, 37783, Note_off_c, 1, 78, 64
15, 37806, Note_off_c, 1, 76, 64
15, 37812, Note_on_c, 1, 78, 80
15, 37838, Note_off_c, 1, 78, 64
15, 37839, Note_on_c, 1, 76, 66
15, 37858, Note_off_c, 1, 76, 64
15, 37861, Note_on_c, 1, 78, 78
15, 37889, Note_off_c, 1, 78, 64
15, 37890, Note_on_c, 1, 76, 68
15, 37911, Note_off_c, 1, 76, 64
15, 37914, Note_on_c, 1, 78, 78
15, 37941, Note_off_c, 1, 78, 64
15, 37941, Note_on_c, 1, 76, 70
15, 37966, Note_off_c, 1, 76, 64
15, 37967, Note_on_c, 1, 78, 80
15, 37993, Note_off_c, 1, 78, 64
15, 37993, Note_on_c, 1, 76, 66
15, 38017, Note_on_c, 1, 78, 85
15, 38018, Note_off_c, 1, 76, 64
15, 38042, Note_off_c, 1, 78, 64
15, 38042, Note_on_c, 1, 76, 78
15, 38064, Note_on_c, 1, 78, 82
15, 38070, Note_off_c, 1, 76, 64
15, 38089, Note_on_c, 1, 76, 80
15, 38096, Note_off_c, 1, 78, 64
15, 38124, Note_off_c, 1, 76, 64
15, 38142, Note_on_c, 1, 76, 98
15, 38383, Note_off_c, 1, 76, 64
15, 40671, Note_on_c, 1, 76, 102
15, 40717, Note_off_c, 1, 76, 64
15, 40788, Note_on_c, 1, 74, 95
15, 40838, Note_off_c, 1, 74, 64
15, 40900, Note_on_c, 1, 76, 93
15, 40953, Note_off_c, 1, 76, 64
15, 41018, Note_on_c, 1, 74, 82
15, 41078, Note_off_c, 1, 74, 64
15, 41139, Note_on_c, 1, 69, 85
15, 41197, Note_off_c, 1, 69, 64
15, 41261, Note_on_c, 1, 74, 82
15, 41320, Note_off_c, 1, 74, 64
15, 41382, Note_on_c, 1, 78, 87
15, 41437, Note_off_c, 1, 78, 64
15, 41498, Note_on_c, 1, 78, 93
15, 41555, Note_off_c, 1, 78, 64
15, 41615, Note_on_c, 1, 79, 82
15, 41667, Note_off_c, 1, 79, 64
15, 41751, Note_on_c, 1, 79, 102
15, 41834, Note_off_c, 1, 79, 64
15, 41866, Note_on_c, 1, 81, 89
15, 41898, Note_off_c, 1, 81, 64
15, 41920, Note_on_c, 1, 79, 98
15, 41957, Note_off_c, 1, 79, 64
15, 41989, Note_on_c, 1, 78, 98
15, 42039, Note_off_c, 1, 78, 64
15, 42110, Note_on_c, 1, 74, 87
15, 42163, Note_off_c, 1, 74, 64
15, 42231, Note_on_c, 1, 79, 91
15, 42273, Note_off_c, 1, 79, 64
15, 42360, Note_on_c, 1, 78, 102
15, 42553, Note_off_c, 1, 78, 64
15, 42595, Note_on_c, 1, 76, 102
15, 42642, Note_off_c, 1, 76, 64
15, 42707, Note_on_c, 1, 74, 100
15, 42757, Note_off_c, 1, 74, 64
15, 42823, Note_on_c, 1, 74, 100
15, 42865, Note_off_c, 1, 74, 64
15, 42944, Note_on_c, 1, 74, 98
15, 42990, Note_off_c, 1, 74, 64
15, 43063, Note_on_c, 1, 69, 113
15, 43102, Note_off_c, 1, 69, 64
15, 43189, Note_on_c, 1, 69, 113
15, 43458, Note_off_c, 1, 69, 64
15, 55793, Note_on_c, 1, 74, 66
15, 55877, Note_off_c, 1, 74, 64
15, 55902, Note_on_c, 1, 74, 66
15, 55990, Note_off_c, 1, 74, 64
15, 56022, Note_on_c, 1, 74, 68
15, 56112, Note_off_c, 1, 74, 64
15, 56148, Note_on_c, 1, 74, 80
15, 56398, Note_off_c, 1, 74, 64
15, 57223, Note_on_c, 1, 76, 70
15, 57311, Note_off_c, 1, 76, 64
15, 57339, Note_on_c, 1, 76, 76
15, 57439, Note_off_c, 1, 76, 64
15, 57465, Note_on_c, 1, 76, 70
15, 57550, Note_off_c, 1, 76, 64
15, 57586, Note_on_c, 1, 76, 89
15, 57847, Note_off_c, 1, 76, 64
15, 57957, Note_on_c, 1, 76, 100
15, 58019, Note_off_c, 1, 76, 64
15, 58071, Note_on_c, 1, 78, 89
15, 58123, Note_off_c, 1, 78, 64
15, 58187, Note_on_c, 1, 76, 85
15, 58228, Note_off_c, 1, 76, 64
15, 58290, Note_on_c, 1, 76, 100
15, 58316, Note_on_c, 1, 74, 91
15, 58319, Note_off_c, 1, 76, 64
15, 58340, Note_on_c, 1, 76, 82
15, 58344, Note_off_c, 1, 74, 64
15, 58372, Note_on_c, 1, 74, 80
15, 58377, Note_off_c, 1, 76, 64
15, 58399, Note_off_c, 1, 74, 64
15, 58413, Note_on_c, 1, 76, 95
15, 58565, Note_off_c, 1, 76, 64
15, 58668, Note_on_c, 1, 76, 98
15, 58709, Note_off_c, 1, 76, 64
15, 58720, Note_on_c, 1, 74, 85
15, 58755, Note_off_c, 1, 74, 64
15, 58775, Note_on_c, 1, 78, 102
15, 58823, Note_off_c, 1, 78, 64
15, 58901, Note_on_c, 1, 76, 102
15, 58944, Note_off_c, 1, 76, 64
15, 59026, Note_on_c, 1, 76, 105
15, 59053, Note_off_c, 1, 76, 64
15, 59054, Note_on_c, 1, 74, 98
15, 59071, Note_on_c, 1, 76, 82
15, 59079, Note_off_c, 1, 74, 64
15, 59104, Note_on_c, 1, 74, 91
15, 59108, Note_off_c, 1, 76, 64
15, 59132, Note_off_c, 1, 74, 64
15, 59148, Note_on_c, 1, 76, 107
15, 59288, Note_off_c, 1, 76, 64
15, 62274, Note_on_c, 1, 76, 102
15, 62326, Note_off_c, 1, 76, 64
15, 62389, Note_on_c, 1, 74, 87
15, 62451, Note_off_c, 1, 74, 64
15, 62501, Note_on_c, 1, 76, 87
15, 62560, Note_off_c, 1, 76, 64
15, 62625, Note_on_c, 1, 74, 85
15, 62680, Note_off_c, 1, 74, 64
15, 62747, Note_on_c, 1, 74, 89
15, 62809, Note_off_c, 1, 74, 64
15, 62861, Note_on_c, 1, 79, 89
15, 62926, Note_off_c, 1, 79, 64
15, 62981, Note_on_c, 1, 78, 89
15, 63040, Note_off_c, 1, 78, 64
15, 63101, Note_on_c, 1, 76, 98
15, 63158, Note_off_c, 1, 76, 64
15, 63219, Note_on_c, 1, 76, 100
15, 63271, Note_off_c, 1, 76, 64
15, 63333, Note_on_c, 1, 74, 100
15, 63448, Note_off_c, 1, 74, 64
15, 63509, Note_on_c, 1, 76, 102
15, 63545, Note_off_c, 1, 76, 64
15, 63581, Note_on_c, 1, 78, 100
15, 63638, Note_on_c, 1, 76, 91
15, 63644, Note_off_c, 1, 78, 64
15, 63668, Note_off_c, 1, 76, 64
15, 63675, Note_on_c, 1, 78, 74
15, 63699, Note_on_c, 1, 76, 80
15, 63703, Note_off_c, 1, 78, 64
15, 63726, Note_off_c, 1, 76, 64
15, 63732, Note_on_c, 1, 78, 80
15, 63758, Note_off_c, 1, 78, 64
15, 63759, Note_on_c, 1, 76, 66
15, 63778, Note_off_c, 1, 76, 64
15, 63781, Note_on_c, 1, 78, 78
15, 63809, Note_off_c, 1, 78, 64
15, 63810, Note_on_c, 1, 76, 68
15, 63831, Note_off_c, 1, 76, 64
15, 63834, Note_on_c, 1, 78, 78
15, 63861, Note_off_c, 1, 78, 64
15, 63861, Note_on_c, 1, 76, 70
15, 63886, Note_off_c, 1, 76, 64
15, 63887, Note_on_c, 1, 78, 80
15, 63913, Note_off_c, 1, 78, 64
15, 63913, Note_on_c, 1, 76, 66
15, 63937, Note_on_c, 1, 78, 85
15, 63938, Note_off_c, 1, 76, 64
15, 63962, Note_off_c, 1, 78, 64
15, 63962, Note_on_c, 1, 76, 78
15, 63984, Note_on_c, 1, 78, 82
15, 63990, Note_off_c, 1, 76, 64
15, 64009, Note_on_c, 1, 76, 80
15, 64016, Note_off_c, 1, 78, 64
15, 64044, Note_off_c, 1, 76, 64
15, 64062, Note_on_c, 1, 76, 98
15, 64303, Note_off_c, 1, 76, 64
15, 66591, Note_on_c, 1, 76, 102
15, 66637, Note_off_c, 1, 76, 64
15, 66708, Note_on_c, 1, 74, 95
15, 66758, Note_off_c, 1, 74, 64
15, 66820, Note_on_c, 1, 76, 93
15, 66873, Note_off_c, 1, 76, 64
15, 66938, Note_on_c, 1, 74, 82
15, 66998, Note_off_c, 1, 74, 64
15, 67059, Note_on_c, 1, 69, 85
15, 67117, Note_off_c, 1, 69, 64
15, 67181, Note_on_c, 1, 74, 82
15, 67240, Note_off_c, 1, 74, 64
15, 67302, Note_on_c, 1, 78, 87
15, 67357, Note_off_c, 1, 78, 64
15, 67418, Note_on_c, 1, 78, 93
15, 67475, Note_off_c, 1, 78, 64
15, 67535, Note_on_c, 1, 79, 82
15, 67587, Note_off_c, 1, 79, 64
15, 67671, Note_on_c, 1, 79, 102
15, 67754, Note_off_c, 1, 79, 64
15, 67786, Note_on_c, 1, 81, 89
15, 67818, Note_off_c, 1, 81, 64
15, 67840, Note_on_c, 1, 79, 98
15, 67877, Note_off_c, 1, 79, 64
15, 67909, Note_on_c, 1, 78, 98
15, 67959, Note_off_c, 1, 78, 64
15, 68030, Note_on_c, 1, 74, 87
15, 68083, Note_off_c, 1, 74, 64
15, 68151, Note_on_c, 1, 79, 91
15, 68193, Note_off_c, 1, 79, 64
15, 68280, Note_on_c, 1, 78, 102
15, 68473, Note_off_c, 1, 78, 64
15, 68515, Note_on_c, 1, 76, 102
15, 68562, Note_off_c, 1, 76, 64
15, 68627, Note_on_c, 1, 74, 100
15, 68677, Note_off_c, 1, 74, 64
15, 68743, Note_on_c, 1, 74, 100
15, 68785, Note_off_c, 1, 74, 64
15, 68864, Note_on_c, 1, 74, 98
15, 68910, Note_off_c, 1, 74, 64
15, 68983, Note_on_c, 1, 69, 113
15, 69022, Note_off_c, 1, 69, 64
15, 69109, Note_on_c, 1, 69, 113
15, 69378, Note_off_c, 1, 69, 64
15, 69378, End_track
16, 0, Start_track
16, 0, Title_t, "Trumpet"
16, 0, Program_c, 2, 56
16, 0, Control_c, 2, 7, 127
16, 9007, Note_on_c, 2, 69, 113
16, 9033, Note_off_c, 2, 69, 64
16, 9060, Note_on_c, 2, 69, 98
16, 9088, Note_off_c, 2, 69, 64
16, 9122, Note_on_c, 2, 69, 102
16, 9201, Note_off_c, 2, 69, 64
16, 9716, Note_on_c, 2, 62, 110
16, 9769, Note_off_c, 2, 62, 64
16, 9830, Note_on_c, 2, 69, 113
16, 9869, Note_off_c, 2, 69, 64
16, 9952, Note_on_c, 2, 62, 110
16, 9992, Note_off_c, 2, 62, 64
16, 10068, Note_on_c, 2, 69, 113
16, 10107, Note_off_c, 2, 69, 64
16, 10189, Note_on_c, 2, 69, 113
16, 10329, Note_off_c, 2, 69, 64
16, 29872, Note_on_c, 2, 74, 74
16, 29951, Note_off_c, 2, 74, 64
16, 29980, Note_on_c, 2, 74, 70
16, 30077, Note_off_c, 2, 74, 64
16, 30106, Note_on_c, 2, 74, 80
16, 30188, Note_off_c, 2, 74, 64
16, 30231, Note_on_c, 2, 74, 82
16, 30475, Note_off_c, 2, 74, 64
16, 31308, Note_on_c, 2, 76, 87
16, 31395, Note_off_c, 2, 76, 64
16, 31417, Note_on_c, 2, 76, 80
16, 31506, Note_off_c, 2, 76, 64
16, 31541, Note_on_c, 2, 76, 85
16, 31633, Note_off_c, 2, 76, 64
16, 31666, Note_on_c, 2, 76, 87
16, 31909, Note_off_c, 2, 76, 64
16, 32028, Note_on_c, 2, 69, 82
16, 32088, Note_off_c, 2, 69, 64
16, 32149, Note_on_c, 2, 74, 85
16, 32203, Note_off_c, 2, 74, 64
16, 32260, Note_on_c, 2, 69, 87
16, 32316, Note_off_c, 2, 69, 64
16, 32391, Note_on_c, 2, 62, 100
16, 32444, Note_off_c, 2, 62, 64
16, 32509, Note_on_c, 2, 69, 107
16, 32651, Note_off_c, 2, 69, 64
16, 32743, Note_on_c, 2, 69, 89
16, 32804, Note_off_c, 2, 69, 64
16, 32860, Note_on_c, 2, 69, 91
16, 32910, Note_off_c, 2, 69, 64
16, 32982, Note_on_c, 2, 69, 95
16, 33031, Note_off_c, 2, 69, 64
16, 33101, Note_on_c, 2, 62, 107
16, 33149, Note_off_c, 2, 62, 64
16, 33222, Note_on_c, 2, 69, 116
16, 33362, Note_off_c, 2, 69, 64
16, 36357, Note_on_c, 2, 69, 107
16, 36410, Note_off_c, 2, 69, 64
16, 36476, Note_on_c, 2, 62, 93
16, 36539, Note_off_c, 2, 62, 64
16, 36582, Note_on_c, 2, 69, 87
16, 36659, Note_off_c, 2, 69, 64
16, 36706, Note_on_c, 2, 69, 102
16, 36796, Note_off_c, 2, 69, 64
16, 36827, Note_on_c, 2, 69, 85
16, 36913, Note_off_c, 2, 69, 64
16, 36946, Note_on_c, 2, 69, 89
16, 37027, Note_off_c, 2, 69, 64
16, 37065, Note_on_c, 2, 69, 70
16, 37135, Note_off_c, 2, 69, 64
16, 37186, Note_on_c, 2, 69, 89
16, 37246, Note_off_c, 2, 69, 64
16, 37306, Note_on_c, 2, 69, 78
16, 37364, Note_off_c, 2, 69, 64
16, 37424, Note_on_c, 2, 74, 100
16, 37562, Note_off_c, 2, 74, 64
16, 37665, Note_on_c, 2, 74, 102
16, 37809, Note_off_c, 2, 74, 64
16, 37903, Note_on_c, 2, 62, 107
16, 38031, Note_off_c, 2, 62, 64
16, 38147, Note_on_c, 2, 69, 113
16, 38396, Note_off_c, 2, 69, 64
16, 40663, Note_on_c, 2, 69, 113
16, 40719, Note_off_c, 2, 69, 64
16, 40785, Note_on_c, 2, 62, 107
16, 40845, Note_off_c, 2, 62, 64
16, 40906, Note_on_c, 2, 69, 113
16, 40952, Note_off_c, 2, 69, 64
16, 41032, Note_on_c, 2, 69, 113
16, 41128, Note_off_c, 2, 69, 64
16, 41379, Note_on_c, 2, 69, 113
16, 41434, Note_off_c, 2, 69, 64
16, 41499, Note_on_c, 2, 62, 85
16, 41545, Note_off_c, 2, 62, 64
16, 41630, Note_on_c, 2, 62, 107
16, 41690, Note_off_c, 2, 62, 64
16, 41756, Note_on_c, 2, 69, 122
16, 42037, Note_off_c, 2, 69, 64
16, 42114, Note_on_c, 2, 69, 105
16, 42159, Note_off_c, 2, 69, 64
16, 42235, Note_on_c, 2, 69, 110
16, 42277, Note_off_c, 2, 69, 64
16, 42355, Note_on_c, 2, 69, 110
16, 42407, Note_off_c, 2, 69, 64
16, 42487, Note_on_c, 2, 62, 113
16, 42569, Note_off_c, 2, 62, 64
16, 42826, Note_on_c, 2, 62, 113
16, 42886, Note_off_c, 2, 62, 64
16, 42939, Note_on_c, 2, 69, 113
16, 42981, Note_off_c, 2, 69, 64
16, 43065, Note_on_c, 2, 69, 113
16, 43103, Note_off_c, 2, 69, 64
16, 43191, Note_on_c, 2, 66, 122
16, 43472, Note_off_c, 2, 66, 64
16, 55792, Note_on_c, 2, 74, 74
16, 55871, Note_off_c, 2, 74, 64
16, 55900, Note_on_c, 2, 74, 70
16, 55997, Note_off_c, 2, 74, 64
16, 56026, Note_on_c, 2, 74, 80
16, 56108, Note_off_c, 2, 74, 64
16, 56151, Note_on_c, 2, 74, 82
16, 56395, Note_off_c, 2, 74, 64
16, 57228, Note_on_c, 2, 76, 87
16, 57315, Note_off_c, 2, 76, 64
16, 57337, Note_on_c, 2, 76, 80
16, 57426, Note_off_c, 2, 76, 64
16, 57461, Note_on_c, 2, 76, 85
16, 57553, Note_off_c, 2, 76, 64
16, 57586, Note_on_c, 2, 76, 87
16, 57829, Note_off_c, 2, 76, 64
16, 57948, Note_on_c, 2, 69, 82
16, 58008, Note_off_c, 2, 69, 64
16, 58069, Note_on_c, 2, 74, 85
16, 58123, Note_off_c, 2, 74, 64
16, 58180, Note_on_c, 2, 69, 87
16, 58236, Note_off_c, 2, 69, 64
16, 58311, Note_on_c, 2, 62, 100
16, 58364, Note_off_c, 2, 62, 64
16, 58429, Note_on_c, 2, 69, 107
16, 58571, Note_off_c, 2, 69, 64
16, 58663, Note_on_c, 2, 69, 89
16, 58724, Note_off_c, 2, 69, 64
16, 58780, Note_on_c, 2, 69, 91
16, 58830, Note_off_c, 2, 69, 64
16, 58902, Note_on_c, 2, 69, 95
16, 58951, Note_off_c, 2, 69, 64
16, 59021, Note_on_c, 2, 62, 107
16, 59069, Note_off_c, 2, 62, 64
16, 59142, Note_on_c, 2, 69, 116
16, 59282, Note_off_c, 2, 69, 64
16, 62277, Note_on_c, 2, 69, 107
16, 62330, Note_off_c, 2, 69, 64
16, 62396, Note_on_c, 2, 62, 93
16, 62459, Note_off_c, 2, 62, 64
16, 62502, Note_on_c, 2, 69, 87
16, 62579, Note_off_c, 2, 69, 64
16, 62626, Note_on_c, 2, 69, 102
16, 62716, Note_off_c, 2, 69, 64
16, 62747, Note_on_c, 2, 69, 85
16, 62833, Note_off_c, 2, 69, 64
16, 62866, Note_on_c, 2, 69, 89
16, 62947, Note_off_c, 2, 69, 64
16, 62985, Note_on_c, 2, 69, 70
16, 63055, Note_off_c, 2, 69, 64
16, 63106, Note_on_c, 2, 69, 89
16, 63166, Note_off_c, 2, 69, 64
16, 63226, Note_on_c, 2, 69, 78
16, 63284, Note_off_c, 2, 69, 64
16, 63344, Note_on_c, 2, 74, 100
16, 63482, Note_off_c, 2, 74, 64
16, 63585, Note_on_c, 2, 74, 102
16, 63729, Note_off_c, 2, 74, 64
16, 63823, Note_on_c, 2, 62, 107
16, 63951, Note_off_c, 2, 62, 64
16, 64067, Note_on_c, 2, 69, 113
16, 64316, Note_off_c, 2, 69, 64
16, 66583, Note_on_c, 2, 69, 113
16, 66639, Note_off_c, 2, 69, 64
16, 66705, Note_on_c, 2, 62, 107
16, 66765, Note_off_c, 2, 62, 64
16, 66826, Note_on_c, 2, 69, 113
16, 66872, Note_off_c, 2, 69, 64
16, 66952, Note_on_c, 2, 69, 113
16, 67048, Note_off_c, 2, 69, 64
16, 67299, Note_on_c, 2, 69, 113
16, 67354, Note_off_c, 2, 69, 64
16, 67419, Note_on_c, 2, 62, 85
16, 67465, Note_off_c, 2, 62, 64
16, 67550, Note_on_c, 2, 62, 107
16, 67610, Note_off_c, 2, 62, 64
16, 67676, Note_on_c, 2, 69, 122
16, 67957, Note_off_c, 2, 69, 64
16, 68034, Note_on_c, 2, 69, 105
16, 68079, Note_off_c, 2, 69, 64
16, 68155, Note_on_c, 2, 69, 110
16, 68197, Note_off_c, 2, 69, 64
16, 68275, Note_on_c, 2, 69, 110
16, 68327, Note_off_c, 2, 69, 64
16, 68407, Note_on_c, 2, 62, 113
16, 68489, Note_off_c, 2, 62, 64
16, 68746, Note_on_c, 2, 62, 113
16, 68806, Note_off_c, 2, 62, 64
16, 68859, Note_on_c, 2, 69, 113
16, 68901, Note_off_c, 2, 69, 64
16, 68985, Note_on_c, 2, 69, 113
16, 69023, Note_off_c, 2, 69, 64
16, 69111, Note_on_c, 2, 66, 122
16, 69392, Note_off_c, 2, 66, 64
16, 69392, End_track
17, 0, Start_track
17, 0, Title_t, "Timpani"
17, 0, Program_c, 3, 47
17, 0, Control_c, 3, 7, 100
17, 9003, Note_on_c, 3, 50, 113
17, 9029, Note_off_c, 3, 50, 64
17, 9058, Note_on_c, 3, 50, 100
17, 9085, Note_off_c, 3, 50, 64
17, 9123, Note_on_c, 3, 50, 110
17, 9168, Note_off_c, 3, 50, 64
17, 9711, Note_on_c, 3, 50, 119
17, 9740, Note_off_c, 3, 50, 64
17, 9768, Note_on_c, 3, 50, 100
17, 9798, Note_off_c, 3, 50, 64
17, 9828, Note_on_c, 3, 50, 105
17, 9862, Note_off_c, 3, 50, 64
17, 9951, Note_on_c, 3, 50, 110
17, 9987, Note_off_c, 3, 50, 64
17, 10076, Note_on_c, 3, 45, 122
17, 10113, Note_off_c, 3, 45, 64
17, 10190, Note_on_c, 3, 50, 127
17, 10234, Note_off_c, 3, 50, 64
17, 31669, Note_on_c, 3, 45, 122
17, 31737, Note_off_c, 3, 45, 64
17, 32401, Note_on_c, 3, 45, 122
17, 32463, Note_off_c, 3, 45, 64
17, 33111, Note_on_c, 3, 45, 119
17, 33180, Note_off_c, 3, 45, 64
17, 36354, Note_on_c, 3, 45, 98
17, 36397, Note_off_c, 3, 45, 64
17, 36473, Note_on_c, 3, 50, 107
17, 36519, Note_off_c, 3, 50, 64
17, 36591, Note_on_c, 3, 45, 95
17, 36630, Note_off_c, 3, 45, 64
17, 36705, Note_on_c, 3, 50, 105
17, 36755, Note_off_c, 3, 50, 64
17, 36827, Note_on_c, 3, 50, 105
17, 36872, Note_off_c, 3, 50, 64
17, 36946, Note_on_c, 3, 45, 116
17, 36989, Note_off_c, 3, 45, 64
17, 37062, Note_on_c, 3, 50, 107
17, 37109, Note_off_c, 3, 50, 64
17, 37186, Note_on_c, 3, 45, 110
17, 37225, Note_off_c, 3, 45, 64
17, 37297, Note_on_c, 3, 45, 113
17, 37337, Note_off_c, 3, 45, 64
17, 37422, Note_on_c, 3, 50, 116
17, 37463, Note_off_c, 3, 50, 64
17, 37667, Note_on_c, 3, 50, 119
17, 37721, Note_off_c, 3, 50, 64
17, 38149, Note_on_c, 3, 45, 127
17, 38215, Note_off_c, 3, 45, 64
17, 40667, Note_on_c, 3, 45, 110
17, 40719, Note_off_c, 3, 45, 64
17, 40779, Note_on_c, 3, 50, 107
17, 40827, Note_off_c, 3, 50, 64
17, 40903, Note_on_c, 3, 45, 105
17, 40948, Note_off_c, 3, 45, 64
17, 41033, Note_on_c, 3, 50, 127
17, 41077, Note_off_c, 3, 50, 64
17, 41389, Note_on_c, 3, 45, 116
17, 41435, Note_off_c, 3, 45, 64
17, 41506, Note_on_c, 3, 50, 107
17, 41554, Note_off_c, 3, 50, 64
17, 41630, Note_on_c, 3, 50, 100
17, 41675, Note_off_c, 3, 50, 64
17, 41755, Note_on_c, 3, 45, 116
17, 41789, Note_off_c, 3, 45, 64
17, 41878, Note_on_c, 3, 45, 122
17, 41901, Note_off_c, 3, 45, 64
17, 41934, Note_on_c, 3, 45, 105
17, 41969, Note_off_c, 3, 45, 64
17, 41983, Note_on_c, 3, 50, 110
17, 42024, Note_off_c, 3, 50, 64
17, 42108, Note_on_c, 3, 50, 105
17, 42149, Note_off_c, 3, 50, 64
17, 42239, Note_on_c, 3, 45, 122
17, 42277, Note_off_c, 3, 45, 64
17, 42359, Note_on_c, 3, 50, 107
17, 42400, Note_off_c, 3, 50, 64
17, 42491, Note_on_c, 3, 50, 119
17, 42539, Note_off_c, 3, 50, 64
17, 42821, Note_on_c, 3, 50, 116
17, 42868, Note_off_c, 3, 50, 64
17, 42944, Note_on_c, 3, 45, 119
17, 42985, Note_off_c, 3, 45, 64
17, 43065, Note_on_c, 3, 45, 122
17, 43105, Note_off_c, 3, 45, 64
17, 43194, Note_on_c, 3, 50, 127
17, 43242, Note_off_c, 3, 50, 64
17, 57589, Note_on_c, 3, 45, 122
17, 57657, Note_off_c, 3, 45, 64
17, 58321, Note_on_c, 3, 45, 122
17, 58383, Note_off_c, 3, 45, 64
17, 59031, Note_on_c, 3, 45, 119
17, 59100, Note_off_c, 3, 45, 64
17, 62274, Note_on_c, 3, 45, 98
17, 62317, Note_off_c, 3, 45, 64
17, 62393, Note_on_c, 3, 50, 107
17, 62439, Note_off_c, 3, 50, 64
17, 62511, Note_on_c, 3, 45, 95
17, 62550, Note_off_c, 3, 45, 64
17, 62625, Note_on_c, 3, 50, 105
17, 62675, Note_off_c, 3, 50, 64
17, 62747, Note_on_c, 3, 50, 105
17, 62792, Note_off_c, 3, 50, 64
17, 62866, Note_on_c, 3, 45, 116
17, 62909, Note_off_c, 3, 45, 64
17, 62982, Note_on_c, 3, 50, 107
17, 63029, Note_off_c, 3, 50, 64
17, 63106, Note_on_c, 3, 45, 110
17, 63145, Note_off_c, 3, 45, 64
17, 63217, Note_on_c, 3, 45, 113
17, 63257, Note_off_c, 3, 45, 64
17, 63342, Note_on_c, 3, 50, 116
17, 63383, Note_off_c, 3, 50, 64
17, 63587, Note_on_c, 3, 50, 119
17, 63641, Note_off_c, 3, 50, 64
17, 64069, Note_on_c, 3, 45, 127
17, 64135, Note_off_c, 3, 45, 64
17, 66587, Note_on_c, 3, 45, 110
17, 66639, Note_off_c, 3, 45, 64
17, 66699, Note_on_c, 3, 50, 107
17, 66747, Note_off_c, 3, 50, 64
17, 66823, Note_on_c, 3, 45, 105
17, 66868, Note_off_c, 3, 45, 64
17, 66953, Note_on_c, 3, 50, 127
17, 66997, Note_off_c, 3, 50, 64
17, 67309, Note_on_c, 3, 45, 116
17, 67355, Note_off_c, 3, 45, 64
17, 67426, Note_on_c, 3, 50, 107
17, 67474, Note_off_c, 3, 50, 64
17, 67550, Note_on_c, 3, 50, 100
17, 67595, Note_off_c, 3, 50, 64
17, 67675, Note_on_c, 3, 45, 116
17, 67709, Note_off_c, 3, 45, 64
17, 67798, Note_on_c, 3, 45, 122
17, 67821, Note_off_c, 3, 45, 64
17, 67854, Note_on_c, 3, 45, 105
17, 67889, Note_off_c, 3, 45, 64
17, 67903, Note_on_c, 3, 50, 110
17, 67944, Note_off_c, 3, 50, 64
17, 68028, Note_on_c, 3, 50, 105
17, 68069, Note_off_c, 3, 50, 64
17, 68159, Note_on_c, 3, 45, 122
17, 68197, Note_off_c, 3, 45, 64
17, 68279, Note_on_c, 3, 50, 107
17, 68320, Note_off_c, 3, 50, 64
17, 68411, Note_on_c, 3, 50, 119
17, 68459, Note_off_c, 3, 50, 64
17, 68741, Note_on_c, 3, 50, 116
17, 68788, Note_off_c, 3, 50, 64
17, 68864, Note_on_c, 3, 45, 119
17, 68905, Note_off_c, 3, 45, 64
17, 68985, Note_on_c, 3, 45, 122
17, 69025, Note_off_c, 3, 45, 64
17, 69114, Note_on_c, 3, 50, 127
17, 69162, Note_off_c, 3, 50, 64
17, 69162, End_track
18, 0, Start_track
18, 0, Title_t, "Oboe"
18, 0, Program_c, 4, 68
18, 0, Control_c, 4, 7, 100
18, 8994, Note_on_c, 4, 78, 105
18, 9033, Note_off_c, 4, 78, 64
18, 9049, Note_on_c, 4, 76, 95
18, 9088, Note_off_c, 4, 76, 64
18, 9109, Note_on_c, 4, 78, 95
18, 9153, Note_off_c, 4, 78, 64
18, 9227, Note_on_c, 4, 79, 78
18, 9272, Note_off_c, 4, 79, 64
18, 9353, Note_on_c, 4, 78, 95
18, 9380, Note_off_c, 4, 78, 64
18, 9381, Note_on_c, 4, 76, 70
18, 9408, Note_off_c, 4, 76, 64
18, 9409, Note_on_c, 4, 78, 80
18, 9436, Note_on_c, 4, 76, 78
18, 9452, Note_off_c, 4, 78, 64
18, 9473, Note_on_c, 4, 74, 78
18, 9478, Note_off_c, 4, 76, 64
18, 9524, Note_on_c, 4, 73, 82
18, 9531, Note_off_c, 4, 74, 64
18, 9569, Note_off_c, 4, 73, 64
18, 9583, Note_on_c, 4, 74, 80
18, 9638, Note_on_c, 4, 76, 78
18, 9641, Note_off_c, 4, 74, 64
18, 9684, Note_off_c, 4, 76, 64
18, 9702, Note_on_c, 4, 78, 87
18, 9737, Note_off_c, 4, 78, 64
18, 9757, Note_on_c, 4, 79, 85
18, 9803, Note_off_c, 4, 79, 64
18, 9822, Note_on_c, 4, 81, 82
18, 9866, Note_off_c, 4, 81, 64
18, 9944, Note_on_c, 4, 83, 80
18, 9991, Note_off_c, 4, 83, 64
18, 10071, Note_on_c, 4, 81, 105
18, 10096, Note_on_c, 4, 79, 58
18, 10099, Note_off_c, 4, 81, 64
18, 10118, Note_on_c, 4, 81, 68
18, 10129, Note_off_c, 4, 79, 64
18, 10152, Note_off_c, 4, 81, 64
18, 10152, Note_on_c, 4, 79, 74
18, 10183, Note_off_c, 4, 79, 64
18, 10192, Note_on_c, 4, 78, 78
18, 10318, Note_off_c, 4, 78, 64
18, 10441, Note_on_c, 4, 76, 87
18, 10488, Note_off_c, 4, 76, 64
18, 10491, Note_on_c, 4, 74, 82
18, 10536, Note_off_c, 4, 74, 64
18, 10555, Note_on_c, 4, 76, 82
18, 10601, Note_off_c, 4, 76, 64
18, 10609, Note_on_c, 4, 78, 70
18, 10642, Note_off_c, 4, 78, 64
18, 10668, Note_on_c, 4, 78, 74
18, 10714, Note_off_c, 4, 78, 64
18, 10793, Note_on_c, 4, 76, 100
18, 10820, Note_on_c, 4, 74, 80
18, 10821, Note_off_c, 4, 76, 64
18, 10845, Note_on_c, 4, 76, 80
18, 10849, Note_off_c, 4, 74, 64
18, 10874, Note_on_c, 4, 74, 80
18, 10878, Note_off_c, 4, 76, 64
18, 10907, Note_on_c, 4, 73, 72
18, 10910, Note_off_c, 4, 74, 64
18, 10947, Note_off_c, 4, 73, 64
18, 10968, Note_on_c, 4, 71, 85
18, 11016, Note_off_c, 4, 71, 64
18, 11031, Note_on_c, 4, 73, 70
18, 11077, Note_off_c, 4, 73, 64
18, 11085, Note_on_c, 4, 74, 80
18, 11133, Note_off_c, 4, 74, 64
18, 11145, Note_on_c, 4, 76, 72
18, 11191, Note_off_c, 4, 76, 64
18, 11201, Note_on_c, 4, 78, 76
18, 11244, Note_off_c, 4, 78, 64
18, 11268, Note_on_c, 4, 80, 87
18, 11312, Note_off_c, 4, 80, 64
18, 11390, Note_on_c, 4, 81, 87
18, 11427, Note_off_c, 4, 81, 64
18, 11512, Note_on_c, 4, 73, 87
18, 11535, Note_off_c, 4, 73, 64
18, 11538, Note_on_c, 4, 71, 72
18, 11564, Note_on_c, 4, 73, 70
18, 11569, Note_off_c, 4, 71, 64
18, 11595, Note_on_c, 4, 71, 70
18, 11605, Note_off_c, 4, 73, 64
18, 11616, Note_on_c, 4, 69, 72
18, 11627, Note_off_c, 4, 71, 64
18, 11668, Note_on_c, 4, 68, 85
18, 11669, Note_off_c, 4, 69, 64
18, 11710, Note_off_c, 4, 68, 64
18, 11724, Note_on_c, 4, 69, 76
18, 11782, Note_off_c, 4, 69, 64
18, 11782, Note_on_c, 4, 71, 72
18, 11833, Note_off_c, 4, 71, 64
18, 11842, Note_on_c, 4, 73, 60
18, 11884, Note_off_c, 4, 73, 64
18, 11902, Note_on_c, 4, 74, 80
18, 11947, Note_off_c, 4, 74, 64
18, 11967, Note_on_c, 4, 76, 82
18, 12011, Note_off_c, 4, 76, 64
18, 12097, Note_on_c, 4, 78, 66
18, 12137, Note_off_c, 4, 78, 64
18, 12220, Note_on_c, 4, 69, 82
18, 12247, Note_on_c, 4, 68, 85
18, 12250, Note_off_c, 4, 69, 64
18, 12272, Note_off_c, 4, 68, 64
18, 12274, Note_on_c, 4, 69, 74
18, 12297, Note_on_c, 4, 68, 78
18, 12310, Note_off_c, 4, 69, 64
18, 12337, Note_on_c, 4, 66, 53
18, 12347, Note_off_c, 4, 68, 64
18, 12371, Note_off_c, 4, 66, 64
18, 12400, Note_on_c, 4, 64, 74
18, 12439, Note_off_c, 4, 64, 64
18, 12472, Note_on_c, 4, 74, 100
18, 12556, Note_off_c, 4, 74, 64
18, 12707, Note_on_c, 4, 73, 82
18, 12799, Note_off_c, 4, 73, 64
18, 13060, Note_on_c, 4, 74, 80
18, 13116, Note_off_c, 4, 74, 64
18, 13175, Note_on_c, 4, 73, 91
18, 13200, Note_on_c, 4, 71, 85
18, 13201, Note_off_c, 4, 73, 64
18, 13229, Note_on_c, 4, 73, 78
18, 13232, Note_off_c, 4, 71, 64
18, 13254, Note_on_c, 4, 71, 68
18, 13273, Note_off_c, 4, 73, 64
18, 13289, Note_on_c, 4, 69, 68
18, 13295, Note_off_c, 4, 71, 64
18, 13344, Note_on_c, 4, 68, 91
18, 13351, Note_off_c, 4, 69, 64
18, 13374, Note_off_c, 4, 68, 64
18, 13414, Note_on_c, 4, 78, 87
18, 13495, Note_off_c, 4, 78, 64
18, 13664, Note_on_c, 4, 76, 87
18, 13768, Note_off_c, 4, 76, 64
18, 14026, Note_on_c, 4, 78, 82
18, 14073, Note_off_c, 4, 78, 64
18, 14146, Note_on_c, 4, 76, 100
18, 14170, Note_on_c, 4, 74, 82
18, 14173, Note_off_c, 4, 76, 64
18, 14194, Note_on_c, 4, 76, 76
18, 14206, Note_off_c, 4, 74, 64
18, 14225, Note_on_c, 4, 74, 66
18, 14229, Note_off_c, 4, 76, 64
18, 14260, Note_on_c, 4, 73, 68
18, 14265, Note_off_c, 4, 74, 64
18, 14289, Note_off_c, 4, 73, 64
18, 14308, Note_on_c, 4, 71, 82
18, 14353, Note_off_c, 4, 71, 64
18, 14379, Note_on_c, 4, 81, 85
18, 14476, Note_off_c, 4, 81, 64
18, 14618, Note_on_c, 4, 80, 87
18, 14718, Note_off_c, 4, 80, 64
18, 14740, Note_on_c, 4, 81, 70
18, 14783, Note_on_c, 4, 83, 76
18, 14784, Note_off_c, 4, 81, 64
18, 14825, Note_off_c, 4, 83, 64
18, 14850, Note_on_c, 4, 76, 80
18, 14902, Note_off_c, 4, 76, 64
18, 14972, Note_on_c, 4, 74, 82
18, 15024, Note_off_c, 4, 74, 64
18, 15092, Note_on_c, 4, 74, 82
18, 15117, Note_on_c, 4, 73, 68
18, 15120, Note_off_c, 4, 74, 64
18, 15143, Note_on_c, 4, 74, 85
18, 15144, Note_off_c, 4, 73, 64
18, 15172, Note_on_c, 4, 73, 66
18, 15184, Note_off_c, 4, 74, 64
18, 15199, Note_on_c, 4, 71, 63
18, 15210, Note_off_c, 4, 73, 64
18, 15259, Note_on_c, 4, 69, 80
18, 15267, Note_off_c, 4, 71, 64
18, 15297, Note_off_c, 4, 69, 64
18, 15324, Note_on_c, 4, 71, 68
18, 15386, Note_off_c, 4, 71, 64
18, 15448, Note_on_c, 4, 81, 72
18, 15490, Note_off_c, 4, 81, 64
18, 15506, Note_on_c, 4, 80, 102
18, 15543, Note_off_c, 4, 80, 64
18, 15577, Note_on_c, 4, 81, 82
18, 15626, Note_off_c, 4, 81, 64
18, 15705, Note_on_c, 4, 83, 82
18, 15750, Note_off_c, 4, 83, 64
18, 15830, Note_on_c, 4, 76, 80
18, 15863, Note_off_c, 4, 76, 64
18, 15864, Note_on_c, 4, 74, 64
18, 15886, Note_on_c, 4, 76, 64
18, 15895, Note_off_c, 4, 74, 64
18, 15921, Note_on_c, 4, 74, 68
18, 15924, Note_off_c, 4, 76, 64
18, 15964, Note_off_c, 4, 74, 64
18, 15971, Note_on_c, 4, 73, 52
18, 16011, Note_off_c, 4, 73, 64
18, 16011, Note_on_c, 4, 71, 78
18, 16063, Note_off_c, 4, 71, 64
18, 16072, Note_on_c, 4, 73, 68
18, 16117, Note_off_c, 4, 73, 64
18, 16123, Note_on_c, 4, 74, 80
18, 16176, Note_off_c, 4, 74, 64
18, 16181, Note_on_c, 4, 76, 66
18, 16226, Note_off_c, 4, 76, 64
18, 16238, Note_on_c, 4, 78, 68
18, 16276, Note_off_c, 4, 78, 64
18, 16304, Note_on_c, 4, 80, 87
18, 16348, Note_off_c, 4, 80, 64
18, 16427, Note_on_c, 4, 81, 85
18, 16463, Note_off_c, 4, 81, 64
18, 16539, Note_on_c, 4, 73, 89
18, 16562, Note_on_c, 4, 71, 66
18, 16564, Note_off_c, 4, 73, 64
18, 16594, Note_on_c, 4, 73, 64
18, 16597, Note_off_c, 4, 71, 64
18, 16623, Note_on_c, 4, 71, 70
18, 16638, Note_off_c, 4, 73, 64
18, 16657, Note_on_c, 4, 69, 64
18, 16662, Note_off_c, 4, 71, 64
18, 16709, Note_off_c, 4, 69, 64
18, 16715, Note_on_c, 4, 68, 87
18, 16754, Note_off_c, 4, 68, 64
18, 16778, Note_on_c, 4, 69, 89
18, 16832, Note_off_c, 4, 69, 64
18, 16896, Note_on_c, 4, 71, 80
18, 16931, Note_off_c, 4, 71, 64
18, 17023, Note_on_c, 4, 64, 80
18, 17073, Note_off_c, 4, 64, 64
18, 17144, Note_on_c, 4, 69, 80
18, 17169, Note_on_c, 4, 68, 85
18, 17170, Note_off_c, 4, 69, 64
18, 17197, Note_off_c, 4, 68, 64
18, 17197, Note_on_c, 4, 69, 68
18, 17218, Note_on_c, 4, 68, 78
18, 17229, Note_off_c, 4, 69, 64
18, 17248, Note_off_c, 4, 68, 64
18, 17270, Note_on_c, 4, 69, 82
18, 17513, Note_off_c, 4, 69, 64
18, 29863, Note_on_c, 4, 81, 89
18, 29909, Note_off_c, 4, 81, 64
18, 29979, Note_on_c, 4, 69, 80
18, 30034, Note_off_c, 4, 69, 64
18, 30107, Note_on_c, 4, 72, 85
18, 30154, Note_off_c, 4, 72, 64
18, 30223, Note_on_c, 4, 74, 82
18, 30249, Note_off_c, 4, 74, 64
18, 30253, Note_on_c, 4, 72, 62
18, 30275, Note_on_c, 4, 74, 74
18, 30279, Note_off_c, 4, 72, 64
18, 30300, Note_on_c, 4, 72, 64
18, 30308, Note_off_c, 4, 74, 64
18, 30331, Note_off_c, 4, 72, 64
18, 30338, Note_on_c, 4, 71, 78
18, 30492, Note_off_c, 4, 71, 64
18, 31303, Note_on_c, 4, 83, 87
18, 31355, Note_off_c, 4, 83, 64
18, 31423, Note_on_c, 4, 71, 78
18, 31478, Note_off_c, 4, 71, 64
18, 31547, Note_on_c, 4, 74, 80
18, 31596, Note_off_c, 4, 74, 64
18, 31665, Note_on_c, 4, 76, 89
18, 31686, Note_on_c, 4, 74, 82
18, 31691, Note_off_c, 4, 76, 64
18, 31710, Note_on_c, 4, 76, 63
18, 31712, Note_off_c, 4, 74, 64
18, 31735, Note_on_c, 4, 74, 80
18, 31743, Note_off_c, 4, 76, 64
18, 31773, Note_off_c, 4, 74, 64
18, 31776, Note_on_c, 4, 73, 66
18, 31917, Note_off_c, 4, 73, 64
18, 32030, Note_on_c, 4, 81, 82
18, 32071, Note_off_c, 4, 81, 64
18, 32082, Note_on_c, 4, 80, 64
18, 32126, Note_off_c, 4, 80, 64
18, 32144, Note_on_c, 4, 83, 85
18, 32191, Note_off_c, 4, 83, 64
18, 32263, Note_on_c, 4, 81, 85
18, 32300, Note_off_c, 4, 81, 64
18, 32378, Note_on_c, 4, 81, 87
18, 32401, Note_on_c, 4, 80, 80
18, 32405, Note_off_c, 4, 81, 64
18, 32425, Note_off_c, 4, 80, 64
18, 32425, Note_on_c, 4, 81, 70
18, 32451, Note_on_c, 4, 80, 68
18, 32459, Note_off_c, 4, 81, 64
18, 32487, Note_off_c, 4, 80, 64
18, 32496, Note_on_c, 4, 81, 80
18, 32637, Note_off_c, 4, 81, 64
18, 32751, Note_on_c, 4, 79, 70
18, 32785, Note_on_c, 4, 78, 74
18, 32795, Note_off_c, 4, 79, 64
18, 32822, Note_off_c, 4, 78, 64
18, 32856, Note_on_c, 4, 81, 87
18, 32905, Note_off_c, 4, 81, 64
18, 32981, Note_on_c, 4, 79, 74
18, 33020, Note_off_c, 4, 79, 64
18, 33100, Note_on_c, 4, 79, 98
18, 33131, Note_off_c, 4, 79, 64
18, 33134, Note_on_c, 4, 78, 24
18, 33145, Note_off_c, 4, 78, 64
18, 33150, Note_on_c, 4, 79, 70
18, 33172, Note_on_c, 4, 78, 66
18, 33180, Note_off_c, 4, 79, 64
18, 33207, Note_off_c, 4, 78, 64
18, 33225, Note_on_c, 4, 79, 87
18, 33371, Note_off_c, 4, 79, 64
18, 33476, Note_on_c, 4, 77, 72
18, 33518, Note_on_c, 4, 76, 72
18, 33521, Note_off_c, 4, 77, 64
18, 33562, Note_off_c, 4, 76, 64
18, 33584, Note_on_c, 4, 79, 87
18, 33634, Note_off_c, 4, 79, 64
18, 33704, Note_on_c, 4, 77, 76
18, 33753, Note_off_c, 4, 77, 64
18, 33830, Note_on_c, 4, 76, 80
18, 33893, Note_off_c, 4, 76, 64
18, 33953, Note_on_c, 4, 77, 76
18, 34165, Note_off_c, 4, 77, 64
18, 34193, Note_on_c, 4, 74, 63
18, 34404, Note_off_c, 4, 74, 64
18, 34430, Note_on_c, 4, 75, 66
18, 34639, Note_off_c, 4, 75, 64
18, 34672, Note_on_c, 4, 73, 57
18, 34863, Note_off_c, 4, 73, 64
18, 34907, Note_on_c, 4, 74, 63
18, 35100, Note_off_c, 4, 74, 64
18, 35134, Note_on_c, 4, 70, 57
18, 35351, Note_off_c, 4, 70, 64
18, 35384, Note_on_c, 4, 69, 68
18, 35591, Note_off_c, 4, 69, 64
18, 35631, Note_on_c, 4, 68, 64
18, 35799, Note_off_c, 4, 68, 64
18, 35876, Note_on_c, 4, 69, 82
18, 35929, Note_off_c, 4, 69, 64
18, 35997, Note_on_c, 4, 80, 95
18, 36027, Note_off_c, 4, 80, 64
18, 36120, Note_on_c, 4, 81, 82
18, 36286, Note_off_c, 4, 81, 64
18, 36353, Note_on_c, 4, 79, 78
18, 36405, Note_off_c, 4, 79, 64
18, 36410, Note_on_c, 4, 78, 95
18, 36451, Note_off_c, 4, 78, 64
18, 36470, Note_on_c, 4, 79, 85
18, 36521, Note_off_c, 4, 79, 64
18, 36590, Note_on_c, 4, 76, 80
18, 36650, Note_off_c, 4, 76, 64
18, 36717, Note_on_c, 4, 78, 98
18, 36754, Note_off_c, 4, 78, 64
18, 36772, Note_on_c, 4, 79, 93
18, 36822, Note_off_c, 4, 79, 64
18, 36832, Note_on_c, 4, 81, 64
18, 36877, Note_off_c, 4, 81, 64
18, 36887, Note_on_c, 4, 83, 82
18, 36930, Note_off_c, 4, 83, 64
18, 36952, Note_on_c, 4, 85, 78
18, 37003, Note_off_c, 4, 85, 64
18, 37072, Note_on_c, 4, 86, 82
18, 37119, Note_off_c, 4, 86, 64
18, 37196, Note_on_c, 4, 69, 78
18, 37246, Note_off_c, 4, 69, 64
18, 37316, Note_on_c, 4, 73, 80
18, 37355, Note_off_c, 4, 73, 64
18, 37435, Note_on_c, 4, 62, 80
18, 37574, Note_off_c, 4, 62, 64
18, 37606, Note_on_c, 4, 64, 66
18, 37633, Note_off_c, 4, 64, 64
18, 37677, Note_on_c, 4, 66, 85
18, 37726, Note_on_c, 4, 68, 61
18, 37745, Note_off_c, 4, 66, 64
18, 37788, Note_on_c, 4, 69, 68
18, 37796, Note_off_c, 4, 68, 64
18, 37840, Note_on_c, 4, 71, 68
18, 37856, Note_off_c, 4, 69, 64
18, 37885, Note_off_c, 4, 71, 64
18, 37904, Note_on_c, 4, 69, 93
18, 37962, Note_on_c, 4, 68, 64
18, 37979, Note_off_c, 4, 69, 64
18, 38021, Note_on_c, 4, 66, 59
18, 38030, Note_off_c, 4, 68, 64
18, 38075, Note_off_c, 4, 66, 64
18, 38080, Note_on_c, 4, 64, 68
18, 38113, Note_off_c, 4, 64, 64
18, 38140, Note_on_c, 4, 74, 87
18, 38195, Note_on_c, 4, 73, 55
18, 38213, Note_off_c, 4, 74, 64
18, 38257, Note_off_c, 4, 73, 64
18, 38258, Note_on_c, 4, 71, 57
18, 38297, Note_off_c, 4, 71, 64
18, 38310, Note_on_c, 4, 69, 51
18, 38344, Note_off_c, 4, 69, 64
18, 38378, Note_on_c, 4, 79, 87
18, 38454, Note_off_c, 4, 79, 64
18, 38619, Note_on_c, 4, 78, 60
18, 38702, Note_off_c, 4, 78, 64
18, 38992, Note_on_c, 4, 79, 85
18, 39039, Note_off_c, 4, 79, 64
18, 39107, Note_on_c, 4, 78, 102
18, 39129, Note_off_c, 4, 78, 64
18, 39129, Note_on_c, 4, 76, 53
18, 39150, Note_on_c, 4, 78, 59
18, 39155, Note_off_c, 4, 76, 64
18, 39180, Note_on_c, 4, 76, 76
18, 39199, Note_off_c, 4, 78, 64
18, 39218, Note_on_c, 4, 74, 57
18, 39219, Note_off_c, 4, 76, 64
18, 39271, Note_on_c, 4, 73, 72
18, 39282, Note_off_c, 4, 74, 64
18, 39322, Note_off_c, 4, 73, 64
18, 39344, Note_on_c, 4, 83, 89
18, 39424, Note_off_c, 4, 83, 64
18, 39577, Note_on_c, 4, 81, 70
18, 39663, Note_off_c, 4, 81, 64
18, 39947, Note_on_c, 4, 83, 80
18, 39993, Note_off_c, 4, 83, 64
18, 40056, Note_on_c, 4, 81, 102
18, 40079, Note_on_c, 4, 79, 52
18, 40084, Note_off_c, 4, 81, 64
18, 40102, Note_on_c, 4, 81, 63
18, 40110, Note_off_c, 4, 79, 64
18, 40130, Note_on_c, 4, 79, 60
18, 40138, Note_off_c, 4, 81, 64
18, 40167, Note_on_c, 4, 78, 68
18, 40168, Note_off_c, 4, 79, 64
18, 40202, Note_off_c, 4, 78, 64
18, 40227, Note_on_c, 4, 76, 63
18, 40269, Note_off_c, 4, 76, 64
18, 40292, Note_on_c, 4, 86, 98
18, 40382, Note_off_c, 4, 86, 64
18, 40539, Note_on_c, 4, 85, 78
18, 40628, Note_off_c, 4, 85, 64
18, 40667, Note_on_c, 4, 79, 68
18, 40716, Note_off_c, 4, 79, 64
18, 40721, Note_on_c, 4, 78, 61
18, 40762, Note_off_c, 4, 78, 64
18, 40786, Note_on_c, 4, 79, 85
18, 40839, Note_off_c, 4, 79, 64
18, 40910, Note_on_c, 4, 81, 82
18, 40952, Note_off_c, 4, 81, 64
18, 41037, Note_on_c, 4, 79, 87
18, 41093, Note_on_c, 4, 78, 74
18, 41110, Note_off_c, 4, 79, 64
18, 41152, Note_on_c, 4, 76, 64
18, 41153, Note_off_c, 4, 78, 64
18, 41203, Note_off_c, 4, 76, 64
18, 41209, Note_on_c, 4, 74, 68
18, 41248, Note_off_c, 4, 74, 64
18, 41268, Note_on_c, 4, 78, 70
18, 41327, Note_on_c, 4, 76, 62
18, 41345, Note_off_c, 4, 78, 64
18, 41379, Note_off_c, 4, 76, 64
18, 41383, Note_on_c, 4, 74, 51
18, 41437, Note_off_c, 4, 74, 64
18, 41438, Note_on_c, 4, 73, 51
18, 41473, Note_off_c, 4, 73, 64
18, 41500, Note_on_c, 4, 74, 85
18, 41549, Note_off_c, 4, 74, 64
18, 41629, Note_on_c, 4, 76, 82
18, 41670, Note_off_c, 4, 76, 64
18, 41744, Note_on_c, 4, 69, 80
18, 41776, Note_on_c, 4, 67, 82
18, 41777, Note_off_c, 4, 69, 64
18, 41802, Note_on_c, 4, 69, 74
18, 41813, Note_off_c, 4, 67, 64
18, 41831, Note_off_c, 4, 69, 64
18, 41831, Note_on_c, 4, 67, 62
18, 41871, Note_on_c, 4, 66, 78
18, 41874, Note_off_c, 4, 67, 64
18, 41918, Note_off_c, 4, 66, 64
18, 41922, Note_on_c, 4, 64, 64
18, 41970, Note_off_c, 4, 64, 64
18, 41981, Note_on_c, 4, 66, 62
18, 42034, Note_on_c, 4, 67, 74
18, 42039, Note_off_c, 4, 66, 64
18, 42095, Note_off_c, 4, 67, 64
18, 42113, Note_on_c, 4, 69, 54
18, 42164, Note_on_c, 4, 71, 82
18, 42165, Note_off_c, 4, 69, 64
18, 42209, Note_off_c, 4, 71, 64
18, 42225, Note_on_c, 4, 73, 80
18, 42273, Note_off_c, 4, 73, 64
18, 42273, Note_on_c, 4, 74, 93
18, 42338, Note_on_c, 4, 76, 76
18, 42341, Note_off_c, 4, 74, 64
18, 42384, Note_on_c, 4, 78, 53
18, 42387, Note_off_c, 4, 76, 64
18, 42426, Note_off_c, 4, 78, 64
18, 42449, Note_on_c, 4, 79, 74
18, 42501, Note_on_c, 4, 81, 72
18, 42510, Note_off_c, 4, 79, 64
18, 42563, Note_off_c, 4, 81, 64
18, 42568, Note_on_c, 4, 83, 66
18, 42614, Note_off_c, 4, 83, 64
18, 42627, Note_on_c, 4, 79, 53
18, 42668, Note_off_c, 4, 79, 64
18, 42699, Note_on_c, 4, 81, 87
18, 42738, Note_off_c, 4, 81, 64
18, 42826, Note_on_c, 4, 74, 72
18, 42860, Note_off_c, 4, 74, 64
18, 42946, Note_on_c, 4, 69, 74
18, 42999, Note_off_c, 4, 69, 64
18, 43078, Note_on_c, 4, 73, 64
18, 43127, Note_off_c, 4, 73, 64
18, 43201, Note_on_c, 4, 74, 68
18, 43463, Note_off_c, 4, 74, 64
18, 55783, Note_on_c, 4, 81, 89
18, 55829, Note_off_c, 4, 81, 64
18, 55899, Note_on_c, 4, 69, 80
18, 55954, Note_off_c, 4, 69, 64
18, 56027, Note_on_c, 4, 72, 85
18, 56074, Note_off_c, 4, 72, 64
18, 56143, Note_on_c, 4, 74, 82
18, 56169, Note_off_c, 4, 74, 64
18, 56173, Note_on_c, 4, 72, 62
18, 56195, Note_on_c, 4, 74, 74
18, 56199, Note_off_c, 4, 72, 64
18, 56220, Note_on_c, 4, 72, 64
18, 56228, Note_off_c, 4, 74, 64
18, 56251, Note_off_c, 4, 72, 64
18, 56258, Note_on_c, 4, 71, 78
18, 56412, Note_off_c, 4, 71, 64
18, 57223, Note_on_c, 4, 83, 87
18, 57275, Note_off_c, 4, 83, 64
18, 57343, Note_on_c, 4, 71, 78
18, 57398, Note_off_c, 4, 71, 64
18, 57467, Note_on_c, 4, 74, 80
18, 57516, Note_off_c, 4, 74, 64
18, 57585, Note_on_c, 4, 76, 89
18, 57606, Note_on_c, 4, 74, 82
18, 57611, Note_off_c, 4, 76, 64
18, 57630, Note_on_c, 4, 76, 63
18, 57632, Note_off_c, 4, 74, 64
18, 57655, Note_on_c, 4, 74, 80
18, 57663, Note_off_c, 4, 76, 64
18, 57693, Note_off_c, 4, 74, 64
18, 57696, Note_on_c, 4, 73, 66
18, 57837, Note_off_c, 4, 73, 64
18, 57950, Note_on_c, 4, 81, 82
18, 57991, Note_off_c, 4, 81, 64
18, 58002, Note_on_c, 4, 80, 64
18, 58046, Note_off_c, 4, 80, 64
18, 58064, Note_on_c, 4, 83, 85
18, 58111, Note_off_c, 4, 83, 64
18, 58183, Note_on_c, 4, 81, 85
18, 58220, Note_off_c, 4, 81, 64
18, 58298, Note_on_c, 4, 81, 87
18, 58321, Note_on_c, 4, 80, 80
18, 58325, Note_off_c, 4, 81, 64
18, 58345, Note_off_c, 4, 80, 64
18, 58345, Note_on_c, 4, 81, 70
18, 58371, Note_on_c, 4, 80, 68
18, 58379, Note_off_c, 4, 81, 64
18, 58407, Note_off_c, 4, 80, 64
18, 58416, Note_on_c, 4, 81, 80
18, 58557, Note_off_c, 4, 81, 64
18, 58671, Note_on_c, 4, 79, 70
18, 58705, Note_on_c, 4, 78, 74
18, 58715, Note_off_c, 4, 79, 64
18, 58742, Note_off_c, 4, 78, 64
18, 58776, Note_on_c, 4, 81, 87
18, 58825, Note_off_c, 4, 81, 64
18, 58901, Note_on_c, 4, 79, 74
18, 58940, Note_off_c, 4, 79, 64
18, 59020, Note_on_c, 4, 79, 98
18, 59051, Note_off_c, 4, 79, 64
18, 59054, Note_on_c, 4, 78, 24
18, 59065, Note_off_c, 4, 78, 64
18, 59070, Note_on_c, 4, 79, 70
18, 59092, Note_on_c, 4, 78, 66
18, 59100, Note_off_c, 4, 79, 64
18, 59127, Note_off_c, 4, 78, 64
18, 59145, Note_on_c, 4, 79, 87
18, 59291, Note_off_c, 4, 79, 64
18, 59396, Note_on_c, 4, 77, 72
18, 59438, Note_on_c, 4, 76, 72
18, 59441, Note_off_c, 4, 77, 64
18, 59482, Note_off_c, 4, 76, 64
18, 59504, Note_on_c, 4, 79, 87
18, 59554, Note_off_c, 4, 79, 64
18, 59624, Note_on_c, 4, 77, 76
18, 59673, Note_off_c, 4, 77, 64
18, 59750, Note_on_c, 4, 76, 80
18, 59813, Note_off_c, 4, 76, 64
18, 59873, Note_on_c, 4, 77, 76
18, 60085, Note_off_c, 4, 77, 64
18, 60113, Note_on_c, 4, 74, 63
18, 60324, Note_off_c, 4, 74, 64
18, 60350, Note_on_c, 4, 75, 66
18, 60559, Note_off_c, 4, 75, 64
18, 60592, Note_on_c, 4, 73, 57
18, 60783, Note_off_c, 4, 73, 64
18, 60827, Note_on_c, 4, 74, 63
18, 61020, Note_off_c, 4, 74, 64
18, 61054, Note_on_c, 4, 70, 57
18, 61271, Note_off_c, 4, 70, 64
18, 61304, Note_on_c, 4, 69, 68
18, 61511, Note_off_c, 4, 69, 64
18, 61551, Note_on_c, 4, 68, 64
18, 61719, Note_off_c, 4, 68, 64
18, 61796, Note_on_c, 4, 69, 82
18, 61849, Note_off_c, 4, 69, 64
18, 61917, Note_on_c, 4, 80, 95
18, 61947, Note_off_c, 4, 80, 64
18, 62040, Note_on_c, 4, 81, 82
18, 62206, Note_off_c, 4, 81, 64
18, 62273, Note_on_c, 4, 79, 78
18, 62325, Note_off_c, 4, 79, 64
18, 62330, Note_on_c, 4, 78, 95
18, 62371, Note_off_c, 4, 78, 64
18, 62390, Note_on_c, 4, 79, 85
18, 62441, Note_off_c, 4, 79, 64
18, 62510, Note_on_c, 4, 76, 80
18, 62570, Note_off_c, 4, 76, 64
18, 62637, Note_on_c, 4, 78, 98
18, 62674, Note_off_c, 4, 78, 64
18, 62692, Note_on_c, 4, 79, 93
18, 62742, Note_off_c, 4, 79, 64
18, 62752, Note_on_c, 4, 81, 64
18, 62797, Note_off_c, 4, 81, 64
18, 62807, Note_on_c, 4, 83, 82
18, 62850, Note_off_c, 4, 83, 64
18, 62872, Note_on_c, 4, 85, 78
18, 62923, Note_off_c, 4, 85, 64
18, 62992, Note_on_c, 4, 86, 82
18, 63039, Note_off_c, 4, 86, 64
18, 63116, Note_on_c, 4, 69, 78
18, 63166, Note_off_c, 4, 69, 64
18, 63236, Note_on_c, 4, 73, 80
18, 63275, Note_off_c, 4, 73, 64
18, 63355, Note_on_c, 4, 62, 80
18, 63494, Note_off_c, 4, 62, 64
18, 63526, Note_on_c, 4, 64, 66
18, 63553, Note_off_c, 4, 64, 64
18, 63597, Note_on_c, 4, 66, 85
18, 63646, Note_on_c, 4, 68, 61
18, 63665, Note_off_c, 4, 66, 64
18, 63708, Note_on_c, 4, 69, 68
18, 63716, Note_off_c, 4, 68, 64
18, 63760, Note_on_c, 4, 71, 68
18, 63776, Note_off_c, 4, 69, 64
18, 63805, Note_off_c, 4, 71, 64
18, 63824, Note_on_c, 4, 69, 93
18, 63882, Note_on_c, 4, 68, 64
18, 63899, Note_off_c, 4, 69, 64
18, 63941, Note_on_c, 4, 66, 59
18, 63950, Note_off_c, 4, 68, 64
18, 63995, Note_off_c, 4, 66, 64
18, 64000, Note_on_c, 4, 64, 68
18, 64033, Note_off_c, 4, 64, 64
18, 64060, Note_on_c, 4, 74, 87
18, 64115, Note_on_c, 4, 73, 55
18, 64133, Note_off_c, 4, 74, 64
18, 64177, Note_off_c, 4, 73, 64
18, 64178, Note_on_c, 4, 71, 57
18, 64217, Note_off_c, 4, 71, 64
18, 64230, Note_on_c, 4, 69, 51
18, 64264, Note_off_c, 4, 69, 64
18, 64298, Note_on_c, 4, 79, 87
18, 64374, Note_off_c, 4, 79, 64
18, 64539, Note_on_c, 4, 78, 60
18, 64622, Note_off_c, 4, 78, 64
18, 64912, Note_on_c, 4, 79, 85
18, 64959, Note_off_c, 4, 79, 64
18, 65027, Note_on_c, 4, 78, 102
18, 65049, Note_off_c, 4, 78, 64
18, 65049, Note_on_c, 4, 76, 53
18, 65070, Note_on_c, 4, 78, 59
18, 65075, Note_off_c, 4, 76, 64
18, 65100, Note_on_c, 4, 76, 76
18, 65119, Note_off_c, 4, 78, 64
18, 65138, Note_on_c, 4, 74, 57
18, 65139, Note_off_c, 4, 76, 64
18, 65191, Note_on_c, 4, 73, 72
18, 65202, Note_off_c, 4, 74, 64
18, 65242, Note_off_c, 4, 73, 64
18, 65264, Note_on_c, 4, 83, 89
18, 65344, Note_off_c, 4, 83, 64
18, 65497, Note_on_c, 4, 81, 70
18, 65583, Note_off_c, 4, 81, 64
18, 65867, Note_on_c, 4, 83, 80
18, 65913, Note_off_c, 4, 83, 64
18, 65976, Note_on_c, 4, 81, 102
18, 65999, Note_on_c, 4, 79, 52
18, 66004, Note_off_c, 4, 81, 64
18, 66022, Note_on_c, 4, 81, 63
18, 66030, Note_off_c, 4, 79, 64
18, 66050, Note_on_c, 4, 79, 60
18, 66058, Note_off_c, 4, 81, 64
18, 66087, Note_on_c, 4, 78, 68
18, 66088, Note_off_c, 4, 79, 64
18, 66122, Note_off_c, 4, 78, 64
18, 66147, Note_on_c, 4, 76, 63
18, 66189, Note_off_c, 4, 76, 64
18, 66212, Note_on_c, 4, 86, 98
18, 66302, Note_off_c, 4, 86, 64
18, 66459, Note_on_c, 4, 85, 78
18, 66548, Note_off_c, 4, 85, 64
18, 66587, Note_on_c, 4, 79, 68
18, 66636, Note_off_c, 4, 79, 64
18, 66641, Note_on_c, 4, 78, 61
18, 66682, Note_off_c, 4, 78, 64
18, 66706, Note_on_c, 4, 79, 85
18, 66759, Note_off_c, 4, 79, 64
18, 66830, Note_on_c, 4, 81, 82
18, 66872, Note_off_c, 4, 81, 64
18, 66957, Note_on_c, 4, 79, 87
18, 67013, Note_on_c, 4, 78, 74
18, 67030, Note_off_c, 4, 79, 64
18, 67072, Note_on_c, 4, 76, 64
18, 67073, Note_off_c, 4, 78, 64
18, 67123, Note_off_c, 4, 76, 64
18, 67129, Note_on_c, 4, 74, 68
18, 67168, Note_off_c, 4, 74, 64
18, 67188, Note_on_c, 4, 78, 70
18, 67247, Note_on_c, 4, 76, 62
18, 67265, Note_off_c, 4, 78, 64
18, 67299, Note_off_c, 4, 76, 64
18, 67303, Note_on_c, 4, 74, 51
18, 67357, Note_off_c, 4, 74, 64
18, 67358, Note_on_c, 4, 73, 51
18, 67393, Note_off_c, 4, 73, 64
18, 67420, Note_on_c, 4, 74, 85
18, 67469, Note_off_c, 4, 74, 64
18, 67549, Note_on_c, 4, 76, 82
18, 67590, Note_off_c, 4, 76, 64
18, 67664, Note_on_c, 4, 69, 80
18, 67696, Note_on_c, 4, 67, 82
18, 67697, Note_off_c, 4, 69, 64
18, 67722, Note_on_c, 4, 69, 74
18, 67733, Note_off_c, 4, 67, 64
18, 67751, Note_off_c, 4, 69, 64
18, 67751, Note_on_c, 4, 67, 62
18, 67791, Note_on_c, 4, 66, 78
18, 67794, Note_off_c, 4, 67, 64
18, 67838, Note_off_c, 4, 66, 64
18, 67842, Note_on_c, 4, 64, 64
18, 67890, Note_off_c, 4, 64, 64
18, 67901, Note_on_c, 4, 66, 62
18, 67954, Note_on_c, 4, 67, 74
18, 67959, Note_off_c, 4, 66, 64
18, 68015, Note_off_c, 4, 67, 64
18, 68033, Note_on_c, 4, 69, 54
18, 68084, Note_on_c, 4, 71, 82
18, 68085, Note_off_c, 4, 69, 64
18, 68129, Note_off_c, 4, 71, 64
18, 68145, Note_on_c, 4, 73, 80
18, 68193, Note_off_c, 4, 73, 64
18, 68193, Note_on_c, 4, 74, 93
18, 68258, Note_on_c, 4, 76, 76
18, 68261, Note_off_c, 4, 74, 64
18, 68304, Note_on_c, 4, 78, 53
18, 68307, Note_off_c, 4, 76, 64
18, 68346, Note_off_c, 4, 78, 64
18, 68369, Note_on_c, 4, 79, 74
18, 68421, Note_on_c, 4, 81, 72
18, 68430, Note_off_c, 4, 79, 64
18, 68483, Note_off_c, 4, 81, 64
18, 68488, Note_on_c, 4, 83, 66
18, 68534, Note_off_c, 4, 83, 64
18, 68547, Note_on_c, 4, 79, 53
18, 68588, Note_off_c, 4, 79, 64
18, 68619, Note_on_c, 4, 81, 87
18, 68658, Note_off_c, 4, 81, 64
18, 68746, Note_on_c, 4, 74, 72
18, 68780, Note_off_c, 4, 74, 64
18, 68866, Note_on_c, 4, 69, 74
18, 68919, Note_off_c, 4, 69, 64
18, 68998, Note_on_c, 4, 73, 64
18, 69047, Note_off_c, 4, 73, 64
18, 69121, Note_on_c, 4, 74, 68
18, 69383, Note_off_c, 4, 74, 64
18, 69383, End_track
19, 0, Start_track
19, 0, Title_t, "Oboe"
19, 0, Program_c, 5, 68
19, 0, Control_c, 5, 7, 100
19, 8994, Note_on_c, 5, 74, 80
19, 9051, Note_off_c, 5, 74, 64
19, 9110, Note_on_c, 5, 74, 80
19, 9171, Note_off_c, 5, 74, 64
19, 9231, Note_on_c, 5, 76, 80
19, 9283, Note_off_c, 5, 76, 64
19, 9353, Note_on_c, 5, 73, 64
19, 9412, Note_off_c, 5, 73, 64
19, 9466, Note_on_c, 5, 69, 78
19, 9521, Note_off_c, 5, 69, 64
19, 9586, Note_on_c, 5, 69, 82
19, 9646, Note_off_c, 5, 69, 64
19, 9711, Note_on_c, 5, 74, 78
19, 9746, Note_off_c, 5, 74, 64
19, 9764, Note_on_c, 5, 73, 102
19, 9798, Note_off_c, 5, 73, 64
19, 9824, Note_on_c, 5, 74, 87
19, 9861, Note_off_c, 5, 74, 64
19, 9946, Note_on_c, 5, 71, 78
19, 9992, Note_off_c, 5, 71, 64
19, 10068, Note_on_c, 5, 74, 80
19, 10089, Note_on_c, 5, 73, 89
19, 10093, Note_off_c, 5, 74, 64
19, 10120, Note_on_c, 5, 74, 82
19, 10121, Note_off_c, 5, 73, 64
19, 10146, Note_on_c, 5, 73, 70
19, 10156, Note_off_c, 5, 74, 64
19, 10182, Note_off_c, 5, 73, 64
19, 10201, Note_on_c, 5, 74, 89
19, 10340, Note_off_c, 5, 74, 64
19, 10440, Note_on_c, 5, 68, 70
19, 10491, Note_off_c, 5, 68, 64
19, 10558, Note_on_c, 5, 69, 82
19, 10609, Note_off_c, 5, 69, 64
19, 10672, Note_on_c, 5, 73, 64
19, 10726, Note_off_c, 5, 73, 64
19, 10785, Note_on_c, 5, 71, 74
19, 10831, Note_off_c, 5, 71, 64
19, 10900, Note_on_c, 5, 64, 68
19, 10949, Note_off_c, 5, 64, 64
19, 11028, Note_on_c, 5, 69, 72
19, 11071, Note_off_c, 5, 69, 64
19, 11146, Note_on_c, 5, 69, 74
19, 11190, Note_off_c, 5, 69, 64
19, 11263, Note_on_c, 5, 74, 74
19, 11304, Note_off_c, 5, 74, 64
19, 11385, Note_on_c, 5, 73, 62
19, 11433, Note_off_c, 5, 73, 64
19, 11498, Note_on_c, 5, 73, 76
19, 11529, Note_on_c, 5, 71, 60
19, 11534, Note_off_c, 5, 73, 64
19, 11559, Note_on_c, 5, 73, 66
19, 11564, Note_off_c, 5, 71, 64
19, 11591, Note_on_c, 5, 71, 74
19, 11596, Note_off_c, 5, 73, 64
19, 11624, Note_on_c, 5, 73, 80
19, 11635, Note_off_c, 5, 71, 64
19, 11668, Note_off_c, 5, 73, 64
19, 11685, Note_on_c, 5, 74, 82
19, 11720, Note_off_c, 5, 74, 64
19, 11742, Note_on_c, 5, 73, 95
19, 11796, Note_off_c, 5, 73, 64
19, 11863, Note_on_c, 5, 69, 78
19, 11914, Note_off_c, 5, 69, 64
19, 11977, Note_on_c, 5, 69, 80
19, 12026, Note_off_c, 5, 69, 64
19, 12097, Note_on_c, 5, 74, 80
19, 12137, Note_off_c, 5, 74, 64
19, 12229, Note_on_c, 5, 71, 87
19, 12456, Note_off_c, 5, 71, 64
19, 12582, Note_on_c, 5, 71, 76
19, 12629, Note_off_c, 5, 71, 64
19, 12699, Note_on_c, 5, 73, 64
19, 12743, Note_off_c, 5, 73, 64
19, 12818, Note_on_c, 5, 74, 80
19, 12865, Note_off_c, 5, 74, 64
19, 12946, Note_on_c, 5, 71, 82
19, 13199, Note_off_c, 5, 71, 64
19, 13307, Note_on_c, 5, 71, 89
19, 13358, Note_off_c, 5, 71, 64
19, 13425, Note_on_c, 5, 73, 100
19, 13451, Note_off_c, 5, 73, 64
19, 13451, Note_on_c, 5, 71, 66
19, 13482, Note_on_c, 5, 73, 64
19, 13488, Note_off_c, 5, 71, 64
19, 13505, Note_on_c, 5, 71, 66
19, 13521, Note_off_c, 5, 73, 64
19, 13537, Note_on_c, 5, 69, 68
19, 13544, Note_off_c, 5, 71, 64
19, 13586, Note_off_c, 5, 69, 64
19, 13599, Note_on_c, 5, 68, 95
19, 13635, Note_off_c, 5, 68, 64
19, 13665, Note_on_c, 5, 69, 82
19, 13756, Note_off_c, 5, 69, 64
19, 14033, Note_on_c, 5, 69, 80
19, 14090, Note_off_c, 5, 69, 64
19, 14143, Note_on_c, 5, 68, 76
19, 14200, Note_off_c, 5, 68, 64
19, 14261, Note_on_c, 5, 69, 87
19, 14322, Note_off_c, 5, 69, 64
19, 14383, Note_on_c, 5, 71, 85
19, 14469, Note_off_c, 5, 71, 64
19, 14621, Note_on_c, 5, 71, 80
19, 14686, Note_off_c, 5, 71, 64
19, 14735, Note_on_c, 5, 74, 80
19, 14790, Note_off_c, 5, 74, 64
19, 14852, Note_on_c, 5, 73, 64
19, 14900, Note_off_c, 5, 73, 64
19, 14971, Note_on_c, 5, 71, 82
19, 15017, Note_off_c, 5, 71, 64
19, 15099, Note_on_c, 5, 69, 80
19, 15158, Note_off_c, 5, 69, 64
19, 15219, Note_on_c, 5, 64, 78
19, 15277, Note_off_c, 5, 64, 64
19, 15340, Note_on_c, 5, 66, 70
19, 15400, Note_off_c, 5, 66, 64
19, 15464, Note_on_c, 5, 64, 72
19, 15516, Note_off_c, 5, 64, 64
19, 15593, Note_on_c, 5, 69, 78
19, 15641, Note_off_c, 5, 69, 64
19, 15711, Note_on_c, 5, 74, 80
19, 15762, Note_off_c, 5, 74, 64
19, 15837, Note_on_c, 5, 73, 87
19, 15861, Note_off_c, 5, 73, 64
19, 15861, Note_on_c, 5, 71, 60
19, 15887, Note_on_c, 5, 73, 74
19, 15891, Note_off_c, 5, 71, 64
19, 15915, Note_on_c, 5, 71, 74
19, 15932, Note_off_c, 5, 73, 64
19, 15943, Note_on_c, 5, 69, 64
19, 15958, Note_off_c, 5, 71, 64
19, 15997, Note_off_c, 5, 69, 64
19, 16006, Note_on_c, 5, 68, 91
19, 16051, Note_off_c, 5, 68, 64
19, 16065, Note_on_c, 5, 69, 85
19, 16132, Note_off_c, 5, 69, 64
19, 16193, Note_on_c, 5, 69, 82
19, 16252, Note_off_c, 5, 69, 64
19, 16305, Note_on_c, 5, 74, 82
19, 16356, Note_off_c, 5, 74, 64
19, 16429, Note_on_c, 5, 73, 64
19, 16480, Note_off_c, 5, 73, 64
19, 16553, Note_on_c, 5, 66, 72
19, 16607, Note_off_c, 5, 66, 64
19, 16672, Note_on_c, 5, 64, 72
19, 16728, Note_off_c, 5, 64, 64
19, 16791, Note_on_c, 5, 69, 78
19, 16844, Note_off_c, 5, 69, 64
19, 16901, Note_on_c, 5, 66, 68
19, 16949, Note_off_c, 5, 66, 64
19, 17022, Note_on_c, 5, 64, 66
19, 17075, Note_off_c, 5, 64, 64
19, 17145, Note_on_c, 5, 64, 78
19, 17201, Note_off_c, 5, 64, 64
19, 17277, Note_on_c, 5, 64, 82
19, 17511, Note_off_c, 5, 64, 64
19, 29873, Note_on_c, 5, 62, 82
19, 29921, Note_off_c, 5, 62, 64
19, 29921, Note_on_c, 5, 64, 78
19, 29968, Note_off_c, 5, 64, 64
19, 29981, Note_on_c, 5, 66, 68
19, 30027, Note_on_c, 5, 67, 80
19, 30030, Note_off_c, 5, 66, 64
19, 30080, Note_off_c, 5, 67, 64
19, 30096, Note_on_c, 5, 69, 87
19, 30161, Note_off_c, 5, 69, 64
19, 30222, Note_on_c, 5, 71, 89
19, 30250, Note_off_c, 5, 71, 64
19, 30253, Note_on_c, 5, 69, 52
19, 30271, Note_on_c, 5, 71, 76
19, 30279, Note_off_c, 5, 69, 64
19, 30301, Note_on_c, 5, 69, 78
19, 30304, Note_off_c, 5, 71, 64
19, 30333, Note_off_c, 5, 69, 64
19, 30342, Note_on_c, 5, 67, 82
19, 30474, Note_off_c, 5, 67, 64
19, 31314, Note_on_c, 5, 64, 85
19, 31363, Note_on_c, 5, 66, 80
19, 31368, Note_off_c, 5, 64, 64
19, 31413, Note_off_c, 5, 66, 64
19, 31420, Note_on_c, 5, 68, 72
19, 31461, Note_off_c, 5, 68, 64
19, 31474, Note_on_c, 5, 69, 76
19, 31523, Note_off_c, 5, 69, 64
19, 31538, Note_on_c, 5, 71, 82
19, 31609, Note_off_c, 5, 71, 64
19, 31660, Note_on_c, 5, 73, 98
19, 31680, Note_on_c, 5, 71, 80
19, 31688, Note_off_c, 5, 73, 64
19, 31710, Note_off_c, 5, 71, 64
19, 31711, Note_on_c, 5, 73, 66
19, 31733, Note_on_c, 5, 71, 76
19, 31744, Note_off_c, 5, 73, 64
19, 31770, Note_off_c, 5, 71, 64
19, 31773, Note_on_c, 5, 69, 85
19, 31927, Note_off_c, 5, 69, 64
19, 32033, Note_on_c, 5, 73, 80
19, 32078, Note_on_c, 5, 71, 74
19, 32079, Note_off_c, 5, 73, 64
19, 32119, Note_off_c, 5, 71, 64
19, 32138, Note_on_c, 5, 74, 87
19, 32191, Note_off_c, 5, 74, 64
19, 32263, Note_on_c, 5, 73, 64
19, 32310, Note_off_c, 5, 73, 64
19, 32383, Note_on_c, 5, 71, 82
19, 32426, Note_off_c, 5, 71, 64
19, 32505, Note_on_c, 5, 73, 87
19, 32657, Note_off_c, 5, 73, 64
19, 32748, Note_on_c, 5, 76, 80
19, 32786, Note_off_c, 5, 76, 64
19, 32800, Note_on_c, 5, 74, 78
19, 32841, Note_off_c, 5, 74, 64
19, 32867, Note_on_c, 5, 73, 68
19, 32921, Note_off_c, 5, 73, 64
19, 32984, Note_on_c, 5, 76, 72
19, 33025, Note_off_c, 5, 76, 64
19, 33098, Note_on_c, 5, 76, 102
19, 33119, Note_on_c, 5, 74, 82
19, 33124, Note_off_c, 5, 76, 64
19, 33147, Note_on_c, 5, 76, 70
19, 33152, Note_off_c, 5, 74, 64
19, 33168, Note_on_c, 5, 74, 80
19, 33176, Note_off_c, 5, 76, 64
19, 33206, Note_off_c, 5, 74, 64
19, 33215, Note_on_c, 5, 73, 78
19, 33364, Note_off_c, 5, 73, 64
19, 33466, Note_on_c, 5, 74, 85
19, 33505, Note_off_c, 5, 74, 64
19, 33517, Note_on_c, 5, 73, 63
19, 33565, Note_off_c, 5, 73, 64
19, 33583, Note_on_c, 5, 76, 82
19, 33629, Note_off_c, 5, 76, 64
19, 33695, Note_on_c, 5, 74, 78
19, 33749, Note_off_c, 5, 74, 64
19, 33819, Note_on_c, 5, 73, 78
19, 33881, Note_off_c, 5, 73, 64
19, 34069, Note_on_c, 5, 74, 82
19, 34126, Note_off_c, 5, 74, 64
19, 34312, Note_on_c, 5, 69, 74
19, 34368, Note_off_c, 5, 69, 64
19, 34550, Note_on_c, 5, 70, 70
19, 34612, Note_off_c, 5, 70, 64
19, 34795, Note_on_c, 5, 67, 74
19, 34853, Note_off_c, 5, 67, 64
19, 35038, Note_on_c, 5, 69, 78
19, 35095, Note_off_c, 5, 69, 64
19, 35269, Note_on_c, 5, 74, 82
19, 35329, Note_off_c, 5, 74, 64
19, 35520, Note_on_c, 5, 74, 82
19, 35580, Note_off_c, 5, 74, 64
19, 35755, Note_on_c, 5, 74, 80
19, 35817, Note_off_c, 5, 74, 64
19, 35993, Note_on_c, 5, 71, 85
19, 36033, Note_off_c, 5, 71, 64
19, 36118, Note_on_c, 5, 73, 98
19, 36263, Note_off_c, 5, 73, 64
19, 36365, Note_on_c, 5, 73, 63
19, 36432, Note_off_c, 5, 73, 64
19, 36475, Note_on_c, 5, 74, 78
19, 36535, Note_off_c, 5, 74, 64
19, 36593, Note_on_c, 5, 76, 82
19, 36641, Note_off_c, 5, 76, 64
19, 36716, Note_on_c, 5, 74, 78
19, 36764, Note_off_c, 5, 74, 64
19, 36834, Note_on_c, 5, 74, 72
19, 36881, Note_off_c, 5, 74, 64
19, 36943, Note_on_c, 5, 79, 80
19, 36999, Note_off_c, 5, 79, 64
19, 37065, Note_on_c, 5, 78, 68
19, 37106, Note_off_c, 5, 78, 64
19, 37183, Note_on_c, 5, 79, 68
19, 37239, Note_off_c, 5, 79, 64
19, 37311, Note_on_c, 5, 76, 72
19, 37346, Note_off_c, 5, 76, 64
19, 37433, Note_on_c, 5, 74, 80
19, 37511, Note_off_c, 5, 74, 64
19, 37549, Note_on_c, 5, 71, 72
19, 37598, Note_on_c, 5, 73, 64
19, 37613, Note_off_c, 5, 71, 64
19, 37643, Note_off_c, 5, 73, 64
19, 37661, Note_on_c, 5, 74, 85
19, 37718, Note_off_c, 5, 74, 64
19, 37787, Note_on_c, 5, 74, 76
19, 37842, Note_off_c, 5, 74, 64
19, 37904, Note_on_c, 5, 74, 80
19, 37957, Note_off_c, 5, 74, 64
19, 38027, Note_on_c, 5, 74, 80
19, 38080, Note_off_c, 5, 74, 64
19, 38150, Note_on_c, 5, 74, 85
19, 38193, Note_off_c, 5, 74, 64
19, 38267, Note_on_c, 5, 73, 85
19, 38402, Note_off_c, 5, 73, 64
19, 38507, Note_on_c, 5, 76, 76
19, 38562, Note_off_c, 5, 76, 64
19, 38621, Note_on_c, 5, 78, 62
19, 38672, Note_off_c, 5, 78, 64
19, 38743, Note_on_c, 5, 79, 72
19, 38793, Note_off_c, 5, 79, 64
19, 38868, Note_on_c, 5, 78, 85
19, 38928, Note_off_c, 5, 78, 64
19, 38929, Note_on_c, 5, 76, 76
19, 39126, Note_off_c, 5, 76, 64
19, 39230, Note_on_c, 5, 76, 85
19, 39275, Note_off_c, 5, 76, 64
19, 39341, Note_on_c, 5, 78, 100
19, 39357, Note_on_c, 5, 76, 63
19, 39361, Note_off_c, 5, 78, 64
19, 39382, Note_off_c, 5, 76, 64
19, 39384, Note_on_c, 5, 78, 68
19, 39407, Note_on_c, 5, 76, 70
19, 39421, Note_off_c, 5, 78, 64
19, 39440, Note_on_c, 5, 74, 66
19, 39444, Note_off_c, 5, 76, 64
19, 39483, Note_off_c, 5, 74, 64
19, 39499, Note_on_c, 5, 73, 87
19, 39537, Note_off_c, 5, 73, 64
19, 39574, Note_on_c, 5, 74, 80
19, 39684, Note_off_c, 5, 74, 64
19, 39950, Note_on_c, 5, 74, 82
19, 40004, Note_off_c, 5, 74, 64
19, 40060, Note_on_c, 5, 73, 64
19, 40120, Note_off_c, 5, 73, 64
19, 40179, Note_on_c, 5, 74, 80
19, 40224, Note_off_c, 5, 74, 64
19, 40300, Note_on_c, 5, 76, 82
19, 40608, Note_off_c, 5, 76, 64
19, 40665, Note_on_c, 5, 73, 68
19, 40726, Note_off_c, 5, 73, 64
19, 40786, Note_on_c, 5, 74, 82
19, 40847, Note_off_c, 5, 74, 64
19, 40908, Note_on_c, 5, 76, 82
19, 40969, Note_off_c, 5, 76, 64
19, 41029, Note_on_c, 5, 74, 74
19, 41073, Note_off_c, 5, 74, 64
19, 41156, Note_on_c, 5, 69, 74
19, 41205, Note_off_c, 5, 69, 64
19, 41273, Note_on_c, 5, 71, 85
19, 41364, Note_off_c, 5, 71, 64
19, 41387, Note_on_c, 5, 69, 66
19, 41430, Note_off_c, 5, 69, 64
19, 41446, Note_on_c, 5, 67, 70
19, 41497, Note_off_c, 5, 67, 64
19, 41513, Note_on_c, 5, 66, 63
19, 41564, Note_off_c, 5, 66, 64
19, 41632, Note_on_c, 5, 71, 85
19, 41669, Note_off_c, 5, 71, 64
19, 41750, Note_on_c, 5, 76, 82
19, 41836, Note_off_c, 5, 76, 64
19, 41873, Note_on_c, 5, 74, 66
19, 41911, Note_on_c, 5, 73, 62
19, 41920, Note_off_c, 5, 74, 64
19, 41957, Note_off_c, 5, 73, 64
19, 41985, Note_on_c, 5, 74, 93
19, 42026, Note_off_c, 5, 74, 64
19, 42105, Note_on_c, 5, 62, 66
19, 42148, Note_off_c, 5, 62, 64
19, 42222, Note_on_c, 5, 69, 82
19, 42268, Note_off_c, 5, 69, 64
19, 42342, Note_on_c, 5, 69, 72
19, 42383, Note_off_c, 5, 69, 64
19, 42453, Note_on_c, 5, 74, 72
19, 42510, Note_off_c, 5, 74, 64
19, 42573, Note_on_c, 5, 73, 64
19, 42618, Note_off_c, 5, 73, 64
19, 42691, Note_on_c, 5, 74, 85
19, 42750, Note_off_c, 5, 74, 64
19, 42812, Note_on_c, 5, 71, 80
19, 42862, Note_off_c, 5, 71, 64
19, 42948, Note_on_c, 5, 69, 80
19, 43003, Note_off_c, 5, 69, 64
19, 43071, Note_on_c, 5, 69, 78
19, 43125, Note_off_c, 5, 69, 64
19, 43201, Note_on_c, 5, 69, 89
19, 43459, Note_off_c, 5, 69, 64
19, 55793, Note_on_c, 5, 62, 82
19, 55841, Note_off_c, 5, 62, 64
19, 55841, Note_on_c, 5, 64, 78
19, 55888, Note_off_c, 5, 64, 64
19, 55901, Note_on_c, 5, 66, 68
19, 55947, Note_on_c, 5, 67, 80
19, 55950, Note_off_c, 5, 66, 64
19, 56000, Note_off_c, 5, 67, 64
19, 56016, Note_on_c, 5, 69, 87
19, 56081, Note_off_c, 5, 69, 64
19, 56142, Note_on_c, 5, 71, 89
19, 56170, Note_off_c, 5, 71, 64
19, 56173, Note_on_c, 5, 69, 52
19, 56191, Note_on_c, 5, 71, 76
19, 56199, Note_off_c, 5, 69, 64
19, 56221, Note_on_c, 5, 69, 78
19, 56224, Note_off_c, 5, 71, 64
19, 56253, Note_off_c, 5, 69, 64
19, 56262, Note_on_c, 5, 67, 82
19, 56394, Note_off_c, 5, 67, 64
19, 57234, Note_on_c, 5, 64, 85
19, 57283, Note_on_c, 5, 66, 80
19, 57288, Note_off_c, 5, 64, 64
19, 57333, Note_off_c, 5, 66, 64
19, 57340, Note_on_c, 5, 68, 72
19, 57381, Note_off_c, 5, 68, 64
19, 57394, Note_on_c, 5, 69, 76
19, 57443, Note_off_c, 5, 69, 64
19, 57458, Note_on_c, 5, 71, 82
19, 57529, Note_off_c, 5, 71, 64
19, 57580, Note_on_c, 5, 73, 98
19, 57600, Note_on_c, 5, 71, 80
19, 57608, Note_off_c, 5, 73, 64
19, 57630, Note_off_c, 5, 71, 64
19, 57631, Note_on_c, 5, 73, 66
19, 57653, Note_on_c, 5, 71, 76
19, 57664, Note_off_c, 5, 73, 64
19, 57690, Note_off_c, 5, 71, 64
19, 57693, Note_on_c, 5, 69, 85
19, 57847, Note_off_c, 5, 69, 64
19, 57953, Note_on_c, 5, 73, 80
19, 57998, Note_on_c, 5, 71, 74
19, 57999, Note_off_c, 5, 73, 64
19, 58039, Note_off_c, 5, 71, 64
19, 58058, Note_on_c, 5, 74, 87
19, 58111, Note_off_c, 5, 74, 64
19, 58183, Note_on_c, 5, 73, 64
19, 58230, Note_off_c, 5, 73, 64
19, 58303, Note_on_c, 5, 71, 82
19, 58346, Note_off_c, 5, 71, 64
19, 58425, Note_on_c, 5, 73, 87
19, 58577, Note_off_c, 5, 73, 64
19, 58668, Note_on_c, 5, 76, 80
19, 58706, Note_off_c, 5, 76, 64
19, 58720, Note_on_c, 5, 74, 78
19, 58761, Note_off_c, 5, 74, 64
19, 58787, Note_on_c, 5, 73, 68
19, 58841, Note_off_c, 5, 73, 64
19, 58904, Note_on_c, 5, 76, 72
19, 58945, Note_off_c, 5, 76, 64
19, 59018, Note_on_c, 5, 76, 102
19, 59039, Note_on_c, 5, 74, 82
19, 59044, Note_off_c, 5, 76, 64
19, 59067, Note_on_c, 5, 76, 70
19, 59072, Note_off_c, 5, 74, 64
19, 59088, Note_on_c, 5, 74, 80
19, 59096, Note_off_c, 5, 76, 64
19, 59126, Note_off_c, 5, 74, 64
19, 59135, Note_on_c, 5, 73, 78
19, 59284, Note_off_c, 5, 73, 64
19, 59386, Note_on_c, 5, 74, 85
19, 59425, Note_off_c, 5, 74, 64
19, 59437, Note_on_c, 5, 73, 63
19, 59485, Note_off_c, 5, 73, 64
19, 59503, Note_on_c, 5, 76, 82
19, 59549, Note_off_c, 5, 76, 64
19, 59615, Note_on_c, 5, 74, 78
19, 59669, Note_off_c, 5, 74, 64
19, 59739, Note_on_c, 5, 73, 78
19, 59801, Note_off_c, 5, 73, 64
19, 59989, Note_on_c, 5, 74, 82
19, 60046, Note_off_c, 5, 74, 64
19, 60232, Note_on_c, 5, 69, 74
19, 60288, Note_off_c, 5, 69, 64
19, 60470, Note_on_c, 5, 70, 70
19, 60532, Note_off_c, 5, 70, 64
19, 60715, Note_on_c, 5, 67, 74
19, 60773, Note_off_c, 5, 67, 64
19, 60958, Note_on_c, 5, 69, 78
19, 61015, Note_off_c, 5, 69, 64
19, 61189, Note_on_c, 5, 74, 82
19, 61249, Note_off_c, 5, 74, 64
19, 61440, Note_on_c, 5, 74, 82
19, 61500, Note_off_c, 5, 74, 64
19, 61675, Note_on_c, 5, 74, 80
19, 61737, Note_off_c, 5, 74, 64
19, 61913, Note_on_c, 5, 71, 85
19, 61953, Note_off_c, 5, 71, 64
19, 62038, Note_on_c, 5, 73, 98
19, 62183, Note_off_c, 5, 73, 64
19, 62285, Note_on_c, 5, 73, 63
19, 62352, Note_off_c, 5, 73, 64
19, 62395, Note_on_c, 5, 74, 78
19, 62455, Note_off_c, 5, 74, 64
19, 62513, Note_on_c, 5, 76, 82
19, 62561, Note_off_c, 5, 76, 64
19, 62636, Note_on_c, 5, 74, 78
19, 62684, Note_off_c, 5, 74, 64
19, 62754, Note_on_c, 5, 74, 72
19, 62801, Note_off_c, 5, 74, 64
19, 62863, Note_on_c, 5, 79, 80
19, 62919, Note_off_c, 5, 79, 64
19, 62985, Note_on_c, 5, 78, 68
19, 63026, Note_off_c, 5, 78, 64
19, 63103, Note_on_c, 5, 79, 68
19, 63159, Note_off_c, 5, 79, 64
19, 63231, Note_on_c, 5, 76, 72
19, 63266, Note_off_c, 5, 76, 64
19, 63353, Note_on_c, 5, 74, 80
19, 63431, Note_off_c, 5, 74, 64
19, 63469, Note_on_c, 5, 71, 72
19, 63518, Note_on_c, 5, 73, 64
19, 63533, Note_off_c, 5, 71, 64
19, 63563, Note_off_c, 5, 73, 64
19, 63581, Note_on_c, 5, 74, 85
19, 63638, Note_off_c, 5, 74, 64
19, 63707, Note_on_c, 5, 74, 76
19, 63762, Note_off_c, 5, 74, 64
19, 63824, Note_on_c, 5, 74, 80
19, 63877, Note_off_c, 5, 74, 64
19, 63947, Note_on_c, 5, 74, 80
19, 64000, Note_off_c, 5, 74, 64
19, 64070, Note_on_c, 5, 74, 85
19, 64113, Note_off_c, 5, 74, 64
19, 64187, Note_on_c, 5, 73, 85
19, 64322, Note_off_c, 5, 73, 64
19, 64427, Note_on_c, 5, 76, 76
19, 64482, Note_off_c, 5, 76, 64
19, 64541, Note_on_c, 5, 78, 62
19, 64592, Note_off_c, 5, 78, 64
19, 64663, Note_on_c, 5, 79, 72
19, 64713, Note_off_c, 5, 79, 64
19, 64788, Note_on_c, 5, 78, 85
19, 64848, Note_off_c, 5, 78, 64
19, 64849, Note_on_c, 5, 76, 76
19, 65046, Note_off_c, 5, 76, 64
19, 65150, Note_on_c, 5, 76, 85
19, 65195, Note_off_c, 5, 76, 64
19, 65261, Note_on_c, 5, 78, 100
19, 65277, Note_on_c, 5, 76, 63
19, 65281, Note_off_c, 5, 78, 64
19, 65302, Note_off_c, 5, 76, 64
19, 65304, Note_on_c, 5, 78, 68
19, 65327, Note_on_c, 5, 76, 70
19, 65341, Note_off_c, 5, 78, 64
19, 65360, Note_on_c, 5, 74, 66
19, 65364, Note_off_c, 5, 76, 64
19, 65403, Note_off_c, 5, 74, 64
19, 65419, Note_on_c, 5, 73, 87
19, 65457, Note_off_c, 5, 73, 64
19, 65494, Note_on_c, 5, 74, 80
19, 65604, Note_off_c, 5, 74, 64
19, 65870, Note_on_c, 5, 74, 82
19, 65924, Note_off_c, 5, 74, 64
19, 65980, Note_on_c, 5, 73, 64
19, 66040, Note_off_c, 5, 73, 64
19, 66099, Note_on_c, 5, 74, 80
19, 66144, Note_off_c, 5, 74, 64
19, 66220, Note_on_c, 5, 76, 82
19, 66528, Note_off_c, 5, 76, 64
19, 66585, Note_on_c, 5, 73, 68
19, 66646, Note_off_c, 5, 73, 64
19, 66706, Note_on_c, 5, 74, 82
19, 66767, Note_off_c, 5, 74, 64
19, 66828, Note_on_c, 5, 76, 82
19, 66889, Note_off_c, 5, 76, 64
19, 66949, Note_on_c, 5, 74, 74
19, 66993, Note_off_c, 5, 74, 64
19, 67076, Note_on_c, 5, 69, 74
19, 67125, Note_off_c, 5, 69, 64
19, 67193, Note_on_c, 5, 71, 85
19, 67284, Note_off_c, 5, 71, 64
19, 67307, Note_on_c, 5, 69, 66
19, 67350, Note_off_c, 5, 69, 64
19, 67366, Note_on_c, 5, 67, 70
19, 67417, Note_off_c, 5, 67, 64
19, 67433, Note_on_c, 5, 66, 63
19, 67484, Note_off_c, 5, 66, 64
19, 67552, Note_on_c, 5, 71, 85
19, 67589, Note_off_c, 5, 71, 64
19, 67670, Note_on_c, 5, 76, 82
19, 67756, Note_off_c, 5, 76, 64
19, 67793, Note_on_c, 5, 74, 66
19, 67831, Note_on_c, 5, 73, 62
19, 67840, Note_off_c, 5, 74, 64
19, 67877, Note_off_c, 5, 73, 64
19, 67905, Note_on_c, 5, 74, 93
19, 67946, Note_off_c, 5, 74, 64
19, 68025, Note_on_c, 5, 62, 66
19, 68068, Note_off_c, 5, 62, 64
19, 68142, Note_on_c, 5, 69, 82
19, 68188, Note_off_c, 5, 69, 64
19, 68262, Note_on_c, 5, 69, 72
19, 68303, Note_off_c, 5, 69, 64
19, 68373, Note_on_c, 5, 74, 72
19, 68430, Note_off_c, 5, 74, 64
19, 68493, Note_on_c, 5, 73, 64
19, 68538, Note_off_c, 5, 73, 64
19, 68611, Note_on_c, 5, 74, 85
19, 68670, Note_off_c, 5, 74, 64
19, 68732, Note_on_c, 5, 71, 80
19, 68782, Note_off_c, 5, 71, 64
19, 68868, Note_on_c, 5, 69, 80
19, 68923, Note_off_c, 5, 69, 64
19, 68991, Note_on_c, 5, 69, 78
19, 69045, Note_off_c, 5, 69, 64
19, 69121, Note_on_c, 5, 69, 89
19, 69379, Note_off_c, 5, 69, 64
19, 69379, End_track
20, 0, Start_track
20, 0, Title_t, "Oboe"
20, 0, Program_c, 6, 68
20, 0, Control_c, 6, 7, 100
20, 9004, Note_on_c, 6, 69, 80
20, 9051, Note_off_c, 6, 69, 64
20, 9110, Note_on_c, 6, 69, 74
20, 9169, Note_off_c, 6, 69, 64
20, 9233, Note_on_c, 6, 71, 72
20, 9292, Note_off_c, 6, 71, 64
20, 9351, Note_on_c, 6, 69, 68
20, 9405, Note_off_c, 6, 69, 64
20, 9469, Note_on_c, 6, 67, 68
20, 9538, Note_off_c, 6, 67, 64
20, 9584, Note_on_c, 6, 66, 63
20, 9646, Note_off_c, 6, 66, 64
20, 9713, Note_on_c, 6, 69, 80
20, 9763, Note_off_c, 6, 69, 64
20, 9827, Note_on_c, 6, 69, 78
20, 9874, Note_off_c, 6, 69, 64
20, 9943, Note_on_c, 6, 62, 68
20, 9987, Note_off_c, 6, 62, 64
20, 10067, Note_on_c, 6, 69, 85
20, 10100, Note_off_c, 6, 69, 64
20, 10192, Note_on_c, 6, 69, 87
20, 10336, Note_off_c, 6, 69, 64
20, 10438, Note_on_c, 6, 71, 72
20, 10489, Note_off_c, 6, 71, 64
20, 10555, Note_on_c, 6, 64, 70
20, 10608, Note_off_c, 6, 64, 64
20, 10671, Note_on_c, 6, 69, 74
20, 10719, Note_off_c, 6, 69, 64
20, 10795, Note_on_c, 6, 66, 63
20, 10850, Note_off_c, 6, 66, 64
20, 10908, Note_on_c, 6, 64, 64
20, 10968, Note_off_c, 6, 64, 64
20, 11028, Note_on_c, 6, 64, 63
20, 11085, Note_off_c, 6, 64, 64
20, 11144, Note_on_c, 6, 64, 58
20, 11204, Note_off_c, 6, 64, 64
20, 11266, Note_on_c, 6, 64, 63
20, 11320, Note_off_c, 6, 64, 64
20, 11390, Note_on_c, 6, 64, 60
20, 11445, Note_off_c, 6, 64, 64
20, 11509, Note_on_c, 6, 66, 64
20, 11567, Note_off_c, 6, 66, 64
20, 11628, Note_on_c, 6, 64, 66
20, 11689, Note_off_c, 6, 64, 64
20, 11747, Note_on_c, 6, 69, 78
20, 11804, Note_off_c, 6, 69, 64
20, 11859, Note_on_c, 6, 66, 63
20, 11909, Note_off_c, 6, 66, 64
20, 11983, Note_on_c, 6, 64, 66
20, 12035, Note_off_c, 6, 64, 64
20, 12098, Note_on_c, 6, 69, 82
20, 12139, Note_off_c, 6, 69, 64
20, 12229, Note_on_c, 6, 64, 76
20, 12479, Note_off_c, 6, 64, 64
20, 12579, Note_on_c, 6, 64, 66
20, 12630, Note_off_c, 6, 64, 64
20, 12702, Note_on_c, 6, 64, 60
20, 12755, Note_off_c, 6, 64, 64
20, 12827, Note_on_c, 6, 64, 57
20, 12871, Note_off_c, 6, 64, 64
20, 12944, Note_on_c, 6, 64, 63
20, 13194, Note_off_c, 6, 64, 64
20, 13302, Note_on_c, 6, 64, 72
20, 13363, Note_off_c, 6, 64, 64
20, 13417, Note_on_c, 6, 66, 64
20, 13476, Note_off_c, 6, 66, 64
20, 13537, Note_on_c, 6, 71, 80
20, 13589, Note_off_c, 6, 71, 64
20, 13658, Note_on_c, 6, 73, 82
20, 13761, Note_off_c, 6, 73, 64
20, 14036, Note_on_c, 6, 62, 74
20, 14089, Note_off_c, 6, 62, 64
20, 14140, Note_on_c, 6, 62, 66
20, 14201, Note_off_c, 6, 62, 64
20, 14259, Note_on_c, 6, 64, 72
20, 14330, Note_off_c, 6, 64, 64
20, 14385, Note_on_c, 6, 66, 66
20, 14471, Note_off_c, 6, 66, 64
20, 14618, Note_on_c, 6, 64, 72
20, 14697, Note_off_c, 6, 64, 64
20, 14738, Note_on_c, 6, 68, 72
20, 14807, Note_off_c, 6, 68, 64
20, 14853, Note_on_c, 6, 69, 78
20, 14914, Note_off_c, 6, 69, 64
20, 14979, Note_on_c, 6, 71, 80
20, 15039, Note_off_c, 6, 71, 64
20, 15103, Note_on_c, 6, 64, 70
20, 15165, Note_off_c, 6, 64, 64
20, 15222, Note_on_c, 6, 64, 66
20, 15280, Note_off_c, 6, 64, 64
20, 15338, Note_on_c, 6, 71, 78
20, 15398, Note_off_c, 6, 71, 64
20, 15458, Note_on_c, 6, 74, 78
20, 15521, Note_off_c, 6, 74, 64
20, 15572, Note_on_c, 6, 73, 64
20, 15626, Note_off_c, 6, 73, 64
20, 15693, Note_on_c, 6, 66, 64
20, 15752, Note_off_c, 6, 66, 64
20, 15825, Note_on_c, 6, 64, 70
20, 15887, Note_off_c, 6, 64, 64
20, 15948, Note_on_c, 6, 64, 62
20, 15993, Note_off_c, 6, 64, 64
20, 16065, Note_on_c, 6, 64, 66
20, 16133, Note_off_c, 6, 64, 64
20, 16187, Note_on_c, 6, 64, 64
20, 16247, Note_off_c, 6, 64, 64
20, 16300, Note_on_c, 6, 64, 63
20, 16358, Note_off_c, 6, 64, 64
20, 16419, Note_on_c, 6, 64, 68
20, 16470, Note_off_c, 6, 64, 64
20, 16549, Note_on_c, 6, 62, 85
20, 16604, Note_off_c, 6, 62, 64
20, 16662, Note_on_c, 6, 74, 78
20, 16723, Note_off_c, 6, 74, 64
20, 16784, Note_on_c, 6, 73, 60
20, 16849, Note_off_c, 6, 73, 64
20, 16900, Note_on_c, 6, 74, 70
20, 16954, Note_off_c, 6, 74, 64
20, 17018, Note_on_c, 6, 71, 72
20, 17072, Note_off_c, 6, 71, 64
20, 17148, Note_on_c, 6, 76, 85
20, 17194, Note_off_c, 6, 76, 64
20, 17273, Note_on_c, 6, 73, 60
20, 17520, Note_off_c, 6, 73, 64
20, 29873, Note_on_c, 6, 66, 72
20, 29930, Note_off_c, 6, 66, 64
20, 29986, Note_on_c, 6, 66, 70
20, 30037, Note_off_c, 6, 66, 64
20, 30106, Note_on_c, 6, 66, 80
20, 30151, Note_off_c, 6, 66, 64
20, 30225, Note_on_c, 6, 62, 80
20, 30262, Note_off_c, 6, 62, 64
20, 30354, Note_on_c, 6, 62, 87
20, 30491, Note_off_c, 6, 62, 64
20, 31307, Note_on_c, 6, 68, 66
20, 31374, Note_off_c, 6, 68, 64
20, 31429, Note_on_c, 6, 68, 74
20, 31489, Note_off_c, 6, 68, 64
20, 31550, Note_on_c, 6, 68, 72
20, 31599, Note_off_c, 6, 68, 64
20, 31663, Note_on_c, 6, 64, 85
20, 31705, Note_off_c, 6, 64, 64
20, 31790, Note_on_c, 6, 64, 91
20, 31915, Note_off_c, 6, 64, 64
20, 32031, Note_on_c, 6, 64, 64
20, 32078, Note_off_c, 6, 64, 64
20, 32078, Note_on_c, 6, 62, 82
20, 32124, Note_off_c, 6, 62, 64
20, 32143, Note_on_c, 6, 66, 89
20, 32192, Note_off_c, 6, 66, 64
20, 32262, Note_on_c, 6, 64, 78
20, 32308, Note_off_c, 6, 64, 64
20, 32383, Note_on_c, 6, 62, 80
20, 32429, Note_off_c, 6, 62, 64
20, 32501, Note_on_c, 6, 64, 85
20, 32642, Note_off_c, 6, 64, 64
20, 32737, Note_on_c, 6, 73, 85
20, 32779, Note_off_c, 6, 73, 64
20, 32859, Note_on_c, 6, 69, 82
20, 32908, Note_off_c, 6, 69, 64
20, 32975, Note_on_c, 6, 73, 66
20, 33019, Note_off_c, 6, 73, 64
20, 33101, Note_on_c, 6, 69, 82
20, 33140, Note_off_c, 6, 69, 64
20, 33224, Note_on_c, 6, 64, 85
20, 33364, Note_off_c, 6, 64, 64
20, 33470, Note_on_c, 6, 69, 82
20, 33514, Note_off_c, 6, 69, 64
20, 33522, Note_on_c, 6, 67, 62
20, 33564, Note_off_c, 6, 67, 64
20, 33581, Note_on_c, 6, 70, 89
20, 33647, Note_off_c, 6, 70, 64
20, 33704, Note_on_c, 6, 69, 82
20, 33752, Note_off_c, 6, 69, 64
20, 33825, Note_on_c, 6, 67, 80
20, 33890, Note_off_c, 6, 67, 64
20, 34073, Note_on_c, 6, 69, 82
20, 34130, Note_off_c, 6, 69, 64
20, 34316, Note_on_c, 6, 65, 74
20, 34374, Note_off_c, 6, 65, 64
20, 34558, Note_on_c, 6, 67, 82
20, 34619, Note_off_c, 6, 67, 64
20, 34793, Note_on_c, 6, 64, 80
20, 34857, Note_off_c, 6, 64, 64
20, 35037, Note_on_c, 6, 65, 70
20, 35100, Note_off_c, 6, 65, 64
20, 35270, Note_on_c, 6, 65, 76
20, 35330, Note_off_c, 6, 65, 64
20, 35519, Note_on_c, 6, 65, 80
20, 35575, Note_off_c, 6, 65, 64
20, 35761, Note_on_c, 6, 65, 72
20, 35821, Note_off_c, 6, 65, 64
20, 35991, Note_on_c, 6, 62, 82
20, 36031, Note_off_c, 6, 62, 64
20, 36123, Note_on_c, 6, 64, 89
20, 36251, Note_off_c, 6, 64, 64
20, 36362, Note_on_c, 6, 64, 80
20, 36408, Note_off_c, 6, 64, 64
20, 36473, Note_on_c, 6, 62, 76
20, 36525, Note_off_c, 6, 62, 64
20, 36588, Note_on_c, 6, 69, 80
20, 36634, Note_off_c, 6, 69, 64
20, 36705, Note_on_c, 6, 69, 64
20, 36760, Note_off_c, 6, 69, 64
20, 36827, Note_on_c, 6, 69, 64
20, 36883, Note_off_c, 6, 69, 64
20, 36940, Note_on_c, 6, 69, 70
20, 36994, Note_off_c, 6, 69, 64
20, 37062, Note_on_c, 6, 69, 72
20, 37109, Note_off_c, 6, 69, 64
20, 37182, Note_on_c, 6, 69, 72
20, 37236, Note_off_c, 6, 69, 64
20, 37305, Note_on_c, 6, 69, 74
20, 37352, Note_off_c, 6, 69, 64
20, 37428, Note_on_c, 6, 69, 85
20, 37522, Note_off_c, 6, 69, 64
20, 37551, Note_on_c, 6, 68, 80
20, 37601, Note_on_c, 6, 69, 70
20, 37609, Note_off_c, 6, 68, 64
20, 37650, Note_off_c, 6, 69, 64
20, 37665, Note_on_c, 6, 71, 85
20, 37716, Note_off_c, 6, 71, 64
20, 37786, Note_on_c, 6, 71, 72
20, 37839, Note_off_c, 6, 71, 64
20, 37908, Note_on_c, 6, 71, 80
20, 37965, Note_off_c, 6, 71, 64
20, 38028, Note_on_c, 6, 68, 70
20, 38071, Note_off_c, 6, 68, 64
20, 38149, Note_on_c, 6, 64, 78
20, 38394, Note_off_c, 6, 64, 64
20, 38507, Note_on_c, 6, 69, 78
20, 38553, Note_off_c, 6, 69, 64
20, 38620, Note_on_c, 6, 69, 74
20, 38672, Note_off_c, 6, 69, 64
20, 38743, Note_on_c, 6, 69, 76
20, 38790, Note_off_c, 6, 69, 64
20, 38867, Note_on_c, 6, 69, 93
20, 39113, Note_off_c, 6, 69, 64
20, 39228, Note_on_c, 6, 69, 85
20, 39274, Note_off_c, 6, 69, 64
20, 39342, Note_on_c, 6, 71, 85
20, 39393, Note_off_c, 6, 71, 64
20, 39459, Note_on_c, 6, 64, 76
20, 39518, Note_off_c, 6, 64, 64
20, 39580, Note_on_c, 6, 66, 91
20, 39690, Note_off_c, 6, 66, 64
20, 39948, Note_on_c, 6, 62, 85
20, 40003, Note_off_c, 6, 62, 64
20, 40060, Note_on_c, 6, 64, 80
20, 40107, Note_off_c, 6, 64, 64
20, 40177, Note_on_c, 6, 69, 82
20, 40221, Note_off_c, 6, 69, 64
20, 40299, Note_on_c, 6, 71, 87
20, 40408, Note_off_c, 6, 71, 64
20, 40535, Note_on_c, 6, 69, 82
20, 40599, Note_off_c, 6, 69, 64
20, 40655, Note_on_c, 6, 64, 76
20, 40715, Note_off_c, 6, 64, 64
20, 40779, Note_on_c, 6, 71, 87
20, 40838, Note_off_c, 6, 71, 64
20, 40899, Note_on_c, 6, 69, 80
20, 40952, Note_off_c, 6, 69, 64
20, 41023, Note_on_c, 6, 69, 85
20, 41074, Note_off_c, 6, 69, 64
20, 41144, Note_on_c, 6, 69, 85
20, 41189, Note_off_c, 6, 69, 64
20, 41263, Note_on_c, 6, 67, 82
20, 41352, Note_off_c, 6, 67, 64
20, 41385, Note_on_c, 6, 66, 78
20, 41423, Note_off_c, 6, 66, 64
20, 41437, Note_on_c, 6, 64, 72
20, 41478, Note_off_c, 6, 64, 64
20, 41497, Note_on_c, 6, 62, 85
20, 41564, Note_off_c, 6, 62, 64
20, 41626, Note_on_c, 6, 67, 80
20, 41680, Note_off_c, 6, 67, 64
20, 41755, Note_on_c, 6, 64, 76
20, 41816, Note_off_c, 6, 64, 64
20, 41871, Note_on_c, 6, 69, 80
20, 41926, Note_off_c, 6, 69, 64
20, 41992, Note_on_c, 6, 69, 85
20, 42050, Note_off_c, 6, 69, 64
20, 42107, Note_on_c, 6, 69, 82
20, 42161, Note_off_c, 6, 69, 64
20, 42227, Note_on_c, 6, 67, 82
20, 42284, Note_off_c, 6, 67, 64
20, 42340, Note_on_c, 6, 66, 68
20, 42393, Note_off_c, 6, 66, 64
20, 42456, Note_on_c, 6, 66, 87
20, 42511, Note_off_c, 6, 66, 64
20, 42570, Note_on_c, 6, 67, 80
20, 42623, Note_off_c, 6, 67, 64
20, 42683, Note_on_c, 6, 62, 78
20, 42747, Note_off_c, 6, 62, 64
20, 42806, Note_on_c, 6, 64, 80
20, 42865, Note_off_c, 6, 64, 64
20, 42933, Note_on_c, 6, 66, 80
20, 42987, Note_off_c, 6, 66, 64
20, 43065, Note_on_c, 6, 67, 87
20, 43116, Note_off_c, 6, 67, 64
20, 43200, Note_on_c, 6, 66, 98
20, 43452, Note_off_c, 6, 66, 64
20, 55793, Note_on_c, 6, 66, 72
20, 55850, Note_off_c, 6, 66, 64
20, 55906, Note_on_c, 6, 66, 70
20, 55957, Note_off_c, 6, 66, 64
20, 56026, Note_on_c, 6, 66, 80
20, 56071, Note_off_c, 6, 66, 64
20, 56145, Note_on_c, 6, 62, 80
20, 56182, Note_off_c, 6, 62, 64
20, 56274, Note_on_c, 6, 62, 87
20, 56411, Note_off_c, 6, 62, 64
20, 57227, Note_on_c, 6, 68, 66
20, 57294, Note_off_c, 6, 68, 64
20, 57349, Note_on_c, 6, 68, 74
20, 57409, Note_off_c, 6, 68, 64
20, 57470, Note_on_c, 6, 68, 72
20, 57519, Note_off_c, 6, 68, 64
20, 57583, Note_on_c, 6, 64, 85
20, 57625, Note_off_c, 6, 64, 64
20, 57710, Note_on_c, 6, 64, 91
20, 57835, Note_off_c, 6, 64, 64
20, 57951, Note_on_c, 6, 64, 64
20, 57998, Note_off_c, 6, 64, 64
20, 57998, Note_on_c, 6, 62, 82
20, 58044, Note_off_c, 6, 62, 64
20, 58063, Note_on_c, 6, 66, 89
20, 58112, Note_off_c, 6, 66, 64
20, 58182, Note_on_c, 6, 64, 78
20, 58228, Note_off_c, 6, 64, 64
20, 58303, Note_on_c, 6, 62, 80
20, 58349, Note_off_c, 6, 62, 64
20, 58421, Note_on_c, 6, 64, 85
20, 58562, Note_off_c, 6, 64, 64
20, 58657, Note_on_c, 6, 73, 85
20, 58699, Note_off_c, 6, 73, 64
20, 58779, Note_on_c, 6, 69, 82
20, 58828, Note_off_c, 6, 69, 64
20, 58895, Note_on_c, 6, 73, 66
20, 58939, Note_off_c, 6, 73, 64
20, 59021, Note_on_c, 6, 69, 82
20, 59060, Note_off_c, 6, 69, 64
20, 59144, Note_on_c, 6, 64, 85
20, 59284, Note_off_c, 6, 64, 64
20, 59390, Note_on_c, 6, 69, 82
20, 59434, Note_off_c, 6, 69, 64
20, 59442, Note_on_c, 6, 67, 62
20, 59484, Note_off_c, 6, 67, 64
20, 59501, Note_on_c, 6, 70, 89
20, 59567, Note_off_c, 6, 70, 64
20, 59624, Note_on_c, 6, 69, 82
20, 59672, Note_off_c, 6, 69, 64
20, 59745, Note_on_c, 6, 67, 80
20, 59810, Note_off_c, 6, 67, 64
20, 59993, Note_on_c, 6, 69, 82
20, 60050, Note_off_c, 6, 69, 64
20, 60236, Note_on_c, 6, 65, 74
20, 60294, Note_off_c, 6, 65, 64
20, 60478, Note_on_c, 6, 67, 82
20, 60539, Note_off_c, 6, 67, 64
20, 60713, Note_on_c, 6, 64, 80
20, 60777, Note_off_c, 6, 64, 64
20, 60957, Note_on_c, 6, 65, 70
20, 61020, Note_off_c, 6, 65, 64
20, 61190, Note_on_c, 6, 65, 76
20, 61250, Note_off_c, 6, 65, 64
20, 61439, Note_on_c, 6, 65, 80
20, 61495, Note_off_c, 6, 65, 64
20, 61681, Note_on_c, 6, 65, 72
20, 61741, Note_off_c, 6, 65, 64
20, 61911, Note_on_c, 6, 62, 82
20, 61951, Note_off_c, 6, 62, 64
20, 62043, Note_on_c, 6, 64, 89
20, 62171, Note_off_c, 6, 64, 64
20, 62282, Note_on_c, 6, 64, 80
20, 62328, Note_off_c, 6, 64, 64
20, 62393, Note_on_c, 6, 62, 76
20, 62445, Note_off_c, 6, 62, 64
20, 62508, Note_on_c, 6, 69, 80
20, 62554, Note_off_c, 6, 69, 64
20, 62625, Note_on_c, 6, 69, 64
20, 62680, Note_off_c, 6, 69, 64
20, 62747, Note_on_c, 6, 69, 64
20, 62803, Note_off_c, 6, 69, 64
20, 62860, Note_on_c, 6, 69, 70
20, 62914, Note_off_c, 6, 69, 64
20, 62982, Note_on_c, 6, 69, 72
20, 63029, Note_off_c, 6, 69, 64
20, 63102, Note_on_c, 6, 69, 72
20, 63156, Note_off_c, 6, 69, 64
20, 63225, Note_on_c, 6, 69, 74
20, 63272, Note_off_c, 6, 69, 64
20, 63348, Note_on_c, 6, 69, 85
20, 63442, Note_off_c, 6, 69, 64
20, 63471, Note_on_c, 6, 68, 80
20, 63521, Note_on_c, 6, 69, 70
20, 63529, Note_off_c, 6, 68, 64
20, 63570, Note_off_c, 6, 69, 64
20, 63585, Note_on_c, 6, 71, 85
20, 63636, Note_off_c, 6, 71, 64
20, 63706, Note_on_c, 6, 71, 72
20, 63759, Note_off_c, 6, 71, 64
20, 63828, Note_on_c, 6, 71, 80
20, 63885, Note_off_c, 6, 71, 64
20, 63948, Note_on_c, 6, 68, 70
20, 63991, Note_off_c, 6, 68, 64
20, 64069, Note_on_c, 6, 64, 78
20, 64314, Note_off_c, 6, 64, 64
20, 64427, Note_on_c, 6, 69, 78
20, 64473, Note_off_c, 6, 69, 64
20, 64540, Note_on_c, 6, 69, 74
20, 64592, Note_off_c, 6, 69, 64
20, 64663, Note_on_c, 6, 69, 76
20, 64710, Note_off_c, 6, 69, 64
20, 64787, Note_on_c, 6, 69, 93
20, 65033, Note_off_c, 6, 69, 64
20, 65148, Note_on_c, 6, 69, 85
20, 65194, Note_off_c, 6, 69, 64
20, 65262, Note_on_c, 6, 71, 85
20, 65313, Note_off_c, 6, 71, 64
20, 65379, Note_on_c, 6, 64, 76
20, 65438, Note_off_c, 6, 64, 64
20, 65500, Note_on_c, 6, 66, 91
20, 65610, Note_off_c, 6, 66, 64
20, 65868, Note_on_c, 6, 62, 85
20, 65923, Note_off_c, 6, 62, 64
20, 65980, Note_on_c, 6, 64, 80
20, 66027, Note_off_c, 6, 64, 64
20, 66097, Note_on_c, 6, 69, 82
20, 66141, Note_off_c, 6, 69, 64
20, 66219, Note_on_c, 6, 71, 87
20, 66328, Note_off_c, 6, 71, 64
20, 66455, Note_on_c, 6, 69, 82
20, 66519, Note_off_c, 6, 69, 64
20, 66575, Note_on_c, 6, 64, 76
20, 66635, Note_off_c, 6, 64, 64
20, 66699, Note_on_c, 6, 71, 87
20, 66758, Note_off_c, 6, 71, 64
20, 66819, Note_on_c, 6, 69, 80
20, 66872, Note_off_c, 6, 69, 64
20, 66943, Note_on_c, 6, 69, 85
20, 66994, Note_off_c, 6, 69, 64
20, 67064, Note_on_c, 6, 69, 85
20, 67109, Note_off_c, 6, 69, 64
20, 67183, Note_on_c, 6, 67, 82
20, 67272, Note_off_c, 6, 67, 64
20, 67305, Note_on_c, 6, 66, 78
20, 67343, Note_off_c, 6, 66, 64
20, 67357, Note_on_c, 6, 64, 72
20, 67398, Note_off_c, 6, 64, 64
20, 67417, Note_on_c, 6, 62, 85
20, 67484, Note_off_c, 6, 62, 64
20, 67546, Note_on_c, 6, 67, 80
20, 67600, Note_off_c, 6, 67, 64
20, 67675, Note_on_c, 6, 64, 76
20, 67736, Note_off_c, 6, 64, 64
20, 67791, Note_on_c, 6, 69, 80
20, 67846, Note_off_c, 6, 69, 64
20, 67912, Note_on_c, 6, 69, 85
20, 67970, Note_off_c, 6, 69, 64
20, 68027, Note_on_c, 6, 69, 82
20, 68081, Note_off_c, 6, 69, 64
20, 68147, Note_on_c, 6, 67, 82
20, 68204, Note_off_c, 6, 67, 64
20, 68260, Note_on_c, 6, 66, 68
20, 68313, Note_off_c, 6, 66, 64
20, 68376, Note_on_c, 6, 66, 87
20, 68431, Note_off_c, 6, 66, 64
20, 68490, Note_on_c, 6, 67, 80
20, 68543, Note_off_c, 6, 67, 64
20, 68603, Note_on_c, 6, 62, 78
20, 68667, Note_off_c, 6, 62, 64
20, 68726, Note_on_c, 6, 64, 80
20, 68785, Note_off_c, 6, 64, 64
20, 68853, Note_on_c, 6, 66, 80
20, 68907, Note_off_c, 6, 66, 64
20, 68985, Note_on_c, 6, 67, 87
20, 69036, Note_off_c, 6, 67, 64
20, 69120, Note_on_c, 6, 66, 98
20, 69372, Note_off_c, 6, 66, 64
20, 69372, End_track
21, 0, Start_track
21, 0, Title_t, "Bassoon"
21, 0, Program_c, 7, 70
21, 0, Control_c, 7, 7, 100
21, 8996, Note_on_c, 7, 62, 78
21, 9049, Note_off_c, 7, 62, 64
21, 9054, Note_on_c, 7, 61, 100
21, 9093, Note_off_c, 7, 61, 64
21, 9115, Note_on_c, 7, 62, 89
21, 9157, Note_off_c, 7, 62, 64
21, 9235, Note_on_c, 7, 55, 72
21, 9285, Note_off_c, 7, 55, 64
21, 9356, Note_on_c, 7, 57, 82
21, 9400, Note_off_c, 7, 57, 64
21, 9476, Note_on_c, 7, 52, 72
21, 9521, Note_off_c, 7, 52, 64
21, 9594, Note_on_c, 7, 54, 78
21, 9684, Note_off_c, 7, 54, 64
21, 9710, Note_on_c, 7, 50, 76
21, 9752, Note_off_c, 7, 50, 64
21, 9767, Note_on_c, 7, 52, 85
21, 9804, Note_off_c, 7, 52, 64
21, 9827, Note_on_c, 7, 54, 95
21, 9874, Note_off_c, 7, 54, 64
21, 9947, Note_on_c, 7, 55, 72
21, 9994, Note_off_c, 7, 55, 64
21, 10069, Note_on_c, 7, 57, 80
21, 10130, Note_off_c, 7, 57, 64
21, 10184, Note_on_c, 7, 62, 78
21, 10222, Note_off_c, 7, 62, 64
21, 10239, Note_on_c, 7, 61, 98
21, 10278, Note_off_c, 7, 61, 64
21, 10303, Note_on_c, 7, 62, 91
21, 10365, Note_off_c, 7, 62, 64
21, 10430, Note_on_c, 7, 59, 80
21, 10485, Note_off_c, 7, 59, 64
21, 10556, Note_on_c, 7, 61, 64
21, 10623, Note_off_c, 7, 61, 64
21, 10680, Note_on_c, 7, 57, 78
21, 10737, Note_off_c, 7, 57, 64
21, 10796, Note_on_c, 7, 59, 82
21, 10852, Note_off_c, 7, 59, 64
21, 10914, Note_on_c, 7, 56, 64
21, 10967, Note_off_c, 7, 56, 64
21, 11034, Note_on_c, 7, 57, 76
21, 11096, Note_off_c, 7, 57, 64
21, 11148, Note_on_c, 7, 49, 62
21, 11200, Note_off_c, 7, 49, 64
21, 11264, Note_on_c, 7, 47, 70
21, 11320, Note_off_c, 7, 47, 64
21, 11381, Note_on_c, 7, 45, 66
21, 11437, Note_off_c, 7, 45, 64
21, 11510, Note_on_c, 7, 50, 82
21, 11565, Note_off_c, 7, 50, 64
21, 11631, Note_on_c, 7, 52, 76
21, 11680, Note_off_c, 7, 52, 64
21, 11744, Note_on_c, 7, 54, 80
21, 11833, Note_off_c, 7, 54, 64
21, 11857, Note_on_c, 7, 52, 68
21, 11902, Note_off_c, 7, 52, 64
21, 11913, Note_on_c, 7, 50, 66
21, 11961, Note_off_c, 7, 50, 64
21, 11979, Note_on_c, 7, 49, 80
21, 12034, Note_off_c, 7, 49, 64
21, 12102, Note_on_c, 7, 50, 80
21, 12150, Note_off_c, 7, 50, 64
21, 12223, Note_on_c, 7, 52, 80
21, 12451, Note_off_c, 7, 52, 64
21, 12582, Note_on_c, 7, 57, 80
21, 12625, Note_off_c, 7, 57, 64
21, 12635, Note_on_c, 7, 56, 68
21, 12679, Note_off_c, 7, 56, 64
21, 12698, Note_on_c, 7, 57, 85
21, 12748, Note_off_c, 7, 57, 64
21, 12822, Note_on_c, 7, 59, 66
21, 12869, Note_off_c, 7, 59, 64
21, 12931, Note_on_c, 7, 57, 85
21, 12957, Note_on_c, 7, 56, 63
21, 12959, Note_off_c, 7, 57, 64
21, 12983, Note_on_c, 7, 57, 70
21, 12984, Note_off_c, 7, 56, 64
21, 13007, Note_on_c, 7, 56, 72
21, 13018, Note_off_c, 7, 57, 64
21, 13053, Note_on_c, 7, 54, 80
21, 13060, Note_off_c, 7, 56, 64
21, 13091, Note_off_c, 7, 54, 64
21, 13114, Note_on_c, 7, 52, 76
21, 13160, Note_off_c, 7, 52, 64
21, 13182, Note_on_c, 7, 64, 82
21, 13264, Note_off_c, 7, 64, 64
21, 13431, Note_on_c, 7, 62, 89
21, 13517, Note_off_c, 7, 62, 64
21, 13785, Note_on_c, 7, 61, 78
21, 13829, Note_off_c, 7, 61, 64
21, 13838, Note_on_c, 7, 59, 72
21, 13877, Note_off_c, 7, 59, 64
21, 13903, Note_on_c, 7, 61, 78
21, 13955, Note_off_c, 7, 61, 64
21, 14023, Note_on_c, 7, 62, 80
21, 14077, Note_off_c, 7, 62, 64
21, 14140, Note_on_c, 7, 61, 89
21, 14161, Note_on_c, 7, 59, 61
21, 14166, Note_off_c, 7, 61, 64
21, 14192, Note_off_c, 7, 59, 64
21, 14196, Note_on_c, 7, 61, 64
21, 14220, Note_on_c, 7, 59, 78
21, 14240, Note_off_c, 7, 61, 64
21, 14256, Note_on_c, 7, 57, 70
21, 14260, Note_off_c, 7, 59, 64
21, 14307, Note_on_c, 7, 56, 80
21, 14315, Note_off_c, 7, 57, 64
21, 14341, Note_off_c, 7, 56, 64
21, 14384, Note_on_c, 7, 63, 80
21, 14514, Note_off_c, 7, 63, 64
21, 14632, Note_on_c, 7, 64, 87
21, 14683, Note_off_c, 7, 64, 64
21, 14741, Note_on_c, 7, 52, 66
21, 14795, Note_off_c, 7, 52, 64
21, 14853, Note_on_c, 7, 54, 66
21, 14910, Note_off_c, 7, 54, 64
21, 14976, Note_on_c, 7, 56, 76
21, 15027, Note_off_c, 7, 56, 64
21, 15097, Note_on_c, 7, 57, 82
21, 15156, Note_off_c, 7, 57, 64
21, 15212, Note_on_c, 7, 49, 64
21, 15272, Note_off_c, 7, 49, 64
21, 15331, Note_on_c, 7, 50, 80
21, 15389, Note_off_c, 7, 50, 64
21, 15453, Note_on_c, 7, 52, 72
21, 15514, Note_off_c, 7, 52, 64
21, 15572, Note_on_c, 7, 54, 70
21, 15633, Note_off_c, 7, 54, 64
21, 15689, Note_on_c, 7, 50, 68
21, 15752, Note_off_c, 7, 50, 64
21, 15814, Note_on_c, 7, 56, 76
21, 15865, Note_off_c, 7, 56, 64
21, 15946, Note_on_c, 7, 52, 78
21, 15995, Note_off_c, 7, 52, 64
21, 16062, Note_on_c, 7, 57, 82
21, 16108, Note_off_c, 7, 57, 64
21, 16179, Note_on_c, 7, 49, 66
21, 16236, Note_off_c, 7, 49, 64
21, 16292, Note_on_c, 7, 47, 70
21, 16349, Note_off_c, 7, 47, 64
21, 16416, Note_on_c, 7, 45, 72
21, 16474, Note_off_c, 7, 45, 64
21, 16538, Note_on_c, 7, 50, 85
21, 16603, Note_off_c, 7, 50, 64
21, 16659, Note_on_c, 7, 52, 80
21, 16723, Note_off_c, 7, 52, 64
21, 16784, Note_on_c, 7, 54, 72
21, 16837, Note_off_c, 7, 54, 64
21, 16900, Note_on_c, 7, 50, 66
21, 16952, Note_off_c, 7, 50, 64
21, 17022, Note_on_c, 7, 52, 85
21, 17071, Note_off_c, 7, 52, 64
21, 17147, Note_on_c, 7, 40, 85
21, 17201, Note_off_c, 7, 40, 64
21, 17275, Note_on_c, 7, 45, 98
21, 17513, Note_off_c, 7, 45, 64
21, 29872, Note_on_c, 7, 50, 82
21, 29932, Note_off_c, 7, 50, 64
21, 29985, Note_on_c, 7, 62, 91
21, 30034, Note_off_c, 7, 62, 64
21, 30107, Note_on_c, 7, 50, 100
21, 30154, Note_off_c, 7, 50, 64
21, 30221, Note_on_c, 7, 55, 82
21, 30271, Note_off_c, 7, 55, 64
21, 30338, Note_on_c, 7, 50, 91
21, 30381, Note_off_c, 7, 50, 64
21, 30469, Note_on_c, 7, 43, 85
21, 30555, Note_off_c, 7, 43, 64
21, 31302, Note_on_c, 7, 52, 82
21, 31377, Note_off_c, 7, 52, 64
21, 31423, Note_on_c, 7, 64, 85
21, 31483, Note_off_c, 7, 64, 64
21, 31535, Note_on_c, 7, 52, 70
21, 31600, Note_off_c, 7, 52, 64
21, 31661, Note_on_c, 7, 57, 82
21, 31717, Note_off_c, 7, 57, 64
21, 31776, Note_on_c, 7, 52, 76
21, 31825, Note_off_c, 7, 52, 64
21, 31900, Note_on_c, 7, 45, 78
21, 31960, Note_off_c, 7, 45, 64
21, 32020, Note_on_c, 7, 45, 76
21, 32084, Note_off_c, 7, 45, 64
21, 32144, Note_on_c, 7, 45, 82
21, 32206, Note_off_c, 7, 45, 64
21, 32263, Note_on_c, 7, 45, 80
21, 32322, Note_off_c, 7, 45, 64
21, 32382, Note_on_c, 7, 45, 80
21, 32444, Note_off_c, 7, 45, 64
21, 32496, Note_on_c, 7, 45, 64
21, 32559, Note_off_c, 7, 45, 64
21, 32616, Note_on_c, 7, 45, 78
21, 32678, Note_off_c, 7, 45, 64
21, 32734, Note_on_c, 7, 45, 72
21, 32791, Note_off_c, 7, 45, 64
21, 32856, Note_on_c, 7, 45, 78
21, 32917, Note_off_c, 7, 45, 64
21, 32973, Note_on_c, 7, 45, 76
21, 33035, Note_off_c, 7, 45, 64
21, 33100, Note_on_c, 7, 45, 82
21, 33157, Note_off_c, 7, 45, 64
21, 33212, Note_on_c, 7, 45, 66
21, 33270, Note_off_c, 7, 45, 64
21, 33329, Note_on_c, 7, 45, 70
21, 33387, Note_off_c, 7, 45, 64
21, 33450, Note_on_c, 7, 45, 78
21, 33517, Note_off_c, 7, 45, 64
21, 33582, Note_on_c, 7, 45, 80
21, 33642, Note_off_c, 7, 45, 64
21, 33706, Note_on_c, 7, 45, 76
21, 33761, Note_off_c, 7, 45, 64
21, 33827, Note_on_c, 7, 45, 66
21, 36067, Note_off_c, 7, 45, 64
21, 36115, Note_on_c, 7, 57, 100
21, 36160, Note_on_c, 7, 56, 95
21, 36170, Note_off_c, 7, 57, 64
21, 36211, Note_off_c, 7, 56, 64
21, 36225, Note_on_c, 7, 57, 87
21, 36282, Note_off_c, 7, 57, 64
21, 36347, Note_on_c, 7, 45, 89
21, 36418, Note_off_c, 7, 45, 64
21, 36465, Note_on_c, 7, 47, 85
21, 36528, Note_off_c, 7, 47, 64
21, 36585, Note_on_c, 7, 49, 74
21, 36630, Note_off_c, 7, 49, 64
21, 36706, Note_on_c, 7, 50, 82
21, 36765, Note_off_c, 7, 50, 64
21, 36826, Note_on_c, 7, 54, 72
21, 36885, Note_off_c, 7, 54, 64
21, 36942, Note_on_c, 7, 52, 74
21, 36999, Note_off_c, 7, 52, 64
21, 37059, Note_on_c, 7, 50, 70
21, 37117, Note_off_c, 7, 50, 64
21, 37187, Note_on_c, 7, 57, 91
21, 37239, Note_off_c, 7, 57, 64
21, 37305, Note_on_c, 7, 45, 91
21, 37350, Note_off_c, 7, 45, 64
21, 37436, Note_on_c, 7, 47, 95
21, 37689, Note_off_c, 7, 47, 64
21, 37793, Note_on_c, 7, 49, 72
21, 37840, Note_on_c, 7, 50, 82
21, 37851, Note_off_c, 7, 49, 64
21, 37888, Note_off_c, 7, 50, 64
21, 37900, Note_on_c, 7, 52, 91
21, 37951, Note_off_c, 7, 52, 64
21, 38025, Note_on_c, 7, 40, 91
21, 38072, Note_off_c, 7, 40, 64
21, 38152, Note_on_c, 7, 45, 100
21, 38400, Note_off_c, 7, 45, 64
21, 38504, Note_on_c, 7, 50, 85
21, 38550, Note_off_c, 7, 50, 64
21, 38555, Note_on_c, 7, 49, 80
21, 38614, Note_off_c, 7, 49, 64
21, 38620, Note_on_c, 7, 50, 82
21, 38677, Note_off_c, 7, 50, 64
21, 38746, Note_on_c, 7, 52, 85
21, 38787, Note_off_c, 7, 52, 64
21, 38864, Note_on_c, 7, 50, 100
21, 38886, Note_on_c, 7, 49, 63
21, 38891, Note_off_c, 7, 50, 64
21, 38909, Note_on_c, 7, 50, 68
21, 38915, Note_off_c, 7, 49, 64
21, 38939, Note_on_c, 7, 49, 68
21, 38950, Note_off_c, 7, 50, 64
21, 38972, Note_on_c, 7, 47, 64
21, 38988, Note_off_c, 7, 49, 64
21, 39015, Note_off_c, 7, 47, 64
21, 39040, Note_on_c, 7, 45, 66
21, 39086, Note_off_c, 7, 45, 64
21, 39109, Note_on_c, 7, 57, 93
21, 39180, Note_off_c, 7, 57, 64
21, 39350, Note_on_c, 7, 55, 91
21, 39427, Note_off_c, 7, 55, 64
21, 39703, Note_on_c, 7, 54, 87
21, 39744, Note_off_c, 7, 54, 64
21, 39756, Note_on_c, 7, 52, 82
21, 39799, Note_off_c, 7, 52, 64
21, 39820, Note_on_c, 7, 54, 95
21, 39870, Note_off_c, 7, 54, 64
21, 39950, Note_on_c, 7, 55, 82
21, 40001, Note_off_c, 7, 55, 64
21, 40069, Note_on_c, 7, 52, 87
21, 40133, Note_off_c, 7, 52, 64
21, 40183, Note_on_c, 7, 50, 72
21, 40228, Note_on_c, 7, 49, 89
21, 40231, Note_off_c, 7, 50, 64
21, 40266, Note_off_c, 7, 49, 64
21, 40297, Note_on_c, 7, 56, 100
21, 40379, Note_off_c, 7, 56, 64
21, 40538, Note_on_c, 7, 57, 93
21, 40588, Note_off_c, 7, 57, 64
21, 40654, Note_on_c, 7, 45, 70
21, 40708, Note_off_c, 7, 45, 64
21, 40778, Note_on_c, 7, 47, 80
21, 40841, Note_off_c, 7, 47, 64
21, 40899, Note_on_c, 7, 49, 78
21, 40946, Note_off_c, 7, 49, 64
21, 41023, Note_on_c, 7, 50, 68
21, 41085, Note_off_c, 7, 50, 64
21, 41149, Note_on_c, 7, 54, 85
21, 41204, Note_off_c, 7, 54, 64
21, 41268, Note_on_c, 7, 55, 80
21, 41331, Note_off_c, 7, 55, 64
21, 41391, Note_on_c, 7, 57, 85
21, 41453, Note_off_c, 7, 57, 64
21, 41510, Note_on_c, 7, 59, 82
21, 41567, Note_off_c, 7, 59, 64
21, 41623, Note_on_c, 7, 55, 80
21, 41680, Note_off_c, 7, 55, 64
21, 41745, Note_on_c, 7, 61, 68
21, 41808, Note_off_c, 7, 61, 64
21, 41872, Note_on_c, 7, 57, 82
21, 41923, Note_off_c, 7, 57, 64
21, 41992, Note_on_c, 7, 62, 85
21, 42056, Note_off_c, 7, 62, 64
21, 42108, Note_on_c, 7, 54, 64
21, 42172, Note_off_c, 7, 54, 64
21, 42231, Note_on_c, 7, 52, 78
21, 42279, Note_off_c, 7, 52, 64
21, 42346, Note_on_c, 7, 50, 68
21, 42412, Note_off_c, 7, 50, 64
21, 42467, Note_on_c, 7, 59, 89
21, 42520, Note_off_c, 7, 59, 64
21, 42585, Note_on_c, 7, 52, 82
21, 42647, Note_off_c, 7, 52, 64
21, 42698, Note_on_c, 7, 54, 70
21, 42761, Note_off_c, 7, 54, 64
21, 42814, Note_on_c, 7, 55, 82
21, 42870, Note_off_c, 7, 55, 64
21, 42932, Note_on_c, 7, 57, 85
21, 42988, Note_off_c, 7, 57, 64
21, 43062, Note_on_c, 7, 45, 87
21, 43116, Note_off_c, 7, 45, 64
21, 43204, Note_on_c, 7, 50, 100
21, 43454, Note_off_c, 7, 50, 64
21, 55792, Note_on_c, 7, 50, 82
21, 55852, Note_off_c, 7, 50, 64
21, 55905, Note_on_c, 7, 62, 91
21, 55954, Note_off_c, 7, 62, 64
21, 56027, Note_on_c, 7, 50, 100
21, 56074, Note_off_c, 7, 50, 64
21, 56141, Note_on_c, 7, 55, 82
21, 56191, Note_off_c, 7, 55, 64
21, 56258, Note_on_c, 7, 50, 91
21, 56301, Note_off_c, 7, 50, 64
21, 56389, Note_on_c, 7, 43, 85
21, 56475, Note_off_c, 7, 43, 64
21, 57222, Note_on_c, 7, 52, 82
21, 57297, Note_off_c, 7, 52, 64
21, 57343, Note_on_c, 7, 64, 85
21, 57403, Note_off_c, 7, 64, 64
21, 57455, Note_on_c, 7, 52, 70
21, 57520, Note_off_c, 7, 52, 64
21, 57581, Note_on_c, 7, 57, 82
21, 57637, Note_off_c, 7, 57, 64
21, 57696, Note_on_c, 7, 52, 76
21, 57745, Note_off_c, 7, 52, 64
21, 57820, Note_on_c, 7, 45, 78
21, 57880, Note_off_c, 7, 45, 64
21, 57940, Note_on_c, 7, 45, 76
21, 58004, Note_off_c, 7, 45, 64
21, 58064, Note_on_c, 7, 45, 82
21, 58126, Note_off_c, 7, 45, 64
21, 58183, Note_on_c, 7, 45, 80
21, 58242, Note_off_c, 7, 45, 64
21, 58302, Note_on_c, 7, 45, 80
21, 58364, Note_off_c, 7, 45, 64
21, 58416, Note_on_c, 7, 45, 64
21, 58479, Note_off_c, 7, 45, 64
21, 58536, Note_on_c, 7, 45, 78
21, 58598, Note_off_c, 7, 45, 64
21, 58654, Note_on_c, 7, 45, 72
21, 58711, Note_off_c, 7, 45, 64
21, 58776, Note_on_c, 7, 45, 78
21, 58837, Note_off_c, 7, 45, 64
21, 58893, Note_on_c, 7, 45, 76
21, 58955, Note_off_c, 7, 45, 64
21, 59020, Note_on_c, 7, 45, 82
21, 59077, Note_off_c, 7, 45, 64
21, 59132, Note_on_c, 7, 45, 66
21, 59190, Note_off_c, 7, 45, 64
21, 59249, Note_on_c, 7, 45, 70
21, 59307, Note_off_c, 7, 45, 64
21, 59370, Note_on_c, 7, 45, 78
21, 59437, Note_off_c, 7, 45, 64
21, 59502, Note_on_c, 7, 45, 80
21, 59562, Note_off_c, 7, 45, 64
21, 59626, Note_on_c, 7, 45, 76
21, 59681, Note_off_c, 7, 45, 64
21, 59747, Note_on_c, 7, 45, 66
21, 61987, Note_off_c, 7, 45, 64
21, 62035, Note_on_c, 7, 57, 100
21, 62080, Note_on_c, 7, 56, 95
21, 62090, Note_off_c, 7, 57, 64
21, 62131, Note_off_c, 7, 56, 64
21, 62145, Note_on_c, 7, 57, 87
21, 62202, Note_off_c, 7, 57, 64
21, 62267, Note_on_c, 7, 45, 89
21, 62338, Note_off_c, 7, 45, 64
21, 62385, Note_on_c, 7, 47, 85
21, 62448, Note_off_c, 7, 47, 64
21, 62505, Note_on_c, 7, 49, 74
21, 62550, Note_off_c, 7, 49, 64
21, 62626, Note_on_c, 7, 50, 82
21, 62685, Note_off_c, 7, 50, 64
21, 62746, Note_on_c, 7, 54, 72
21, 62805, Note_off_c, 7, 54, 64
21, 62862, Note_on_c, 7, 52, 74
21, 62919, Note_off_c, 7, 52, 64
21, 62979, Note_on_c, 7, 50, 70
21, 63037, Note_off_c, 7, 50, 64
21, 63107, Note_on_c, 7, 57, 91
21, 63159, Note_off_c, 7, 57, 64
21, 63225, Note_on_c, 7, 45, 91
21, 63270, Note_off_c, 7, 45, 64
21, 63356, Note_on_c, 7, 47, 95
21, 63609, Note_off_c, 7, 47, 64
21, 63713, Note_on_c, 7, 49, 72
21, 63760, Note_on_c, 7, 50, 82
21, 63771, Note_off_c, 7, 49, 64
21, 63808, Note_off_c, 7, 50, 64
21, 63820, Note_on_c, 7, 52, 91
21, 63871, Note_off_c, 7, 52, 64
21, 63945, Note_on_c, 7, 40, 91
21, 63992, Note_off_c, 7, 40, 64
21, 64072, Note_on_c, 7, 45, 100
21, 64320, Note_off_c, 7, 45, 64
21, 64424, Note_on_c, 7, 50, 85
21, 64470, Note_off_c, 7, 50, 64
21, 64475, Note_on_c, 7, 49, 80
21, 64534, Note_off_c, 7, 49, 64
21, 64540, Note_on_c, 7, 50, 82
21, 64597, Note_off_c, 7, 50, 64
21, 64666, Note_on_c, 7, 52, 85
21, 64707, Note_off_c, 7, 52, 64
21, 64784, Note_on_c, 7, 50, 100
21, 64806, Note_on_c, 7, 49, 63
21, 64811, Note_off_c, 7, 50, 64
21, 64829, Note_on_c, 7, 50, 68
21, 64835, Note_off_c, 7, 49, 64
21, 64859, Note_on_c, 7, 49, 68
21, 64870, Note_off_c, 7, 50, 64
21, 64892, Note_on_c, 7, 47, 64
21, 64908, Note_off_c, 7, 49, 64
21, 64935, Note_off_c, 7, 47, 64
21, 64960, Note_on_c, 7, 45, 66
21, 65006, Note_off_c, 7, 45, 64
21, 65029, Note_on_c, 7, 57, 93
21, 65100, Note_off_c, 7, 57, 64
21, 65270, Note_on_c, 7, 55, 91
21, 65347, Note_off_c, 7, 55, 64
21, 65623, Note_on_c, 7, 54, 87
21, 65664, Note_off_c, 7, 54, 64
21, 65676, Note_on_c, 7, 52, 82
21, 65719, Note_off_c, 7, 52, 64
21, 65740, Note_on_c, 7, 54, 95
21, 65790, Note_off_c, 7, 54, 64
21, 65870, Note_on_c, 7, 55, 82
21, 65921, Note_off_c, 7, 55, 64
21, 65989, Note_on_c, 7, 52, 87
21, 66053, Note_off_c, 7, 52, 64
21, 66103, Note_on_c, 7, 50, 72
21, 66148, Note_on_c, 7, 49, 89
21, 66151, Note_off_c, 7, 50, 64
21, 66186, Note_off_c, 7, 49, 64
21, 66217, Note_on_c, 7, 56, 100
21, 66299, Note_off_c, 7, 56, 64
21, 66458, Note_on_c, 7, 57, 93
21, 66508, Note_off_c, 7, 57, 64
21, 66574, Note_on_c, 7, 45, 70
21, 66628, Note_off_c, 7, 45, 64
21, 66698, Note_on_c, 7, 47, 80
21, 66761, Note_off_c, 7, 47, 64
21, 66819, Note_on_c, 7, 49, 78
21, 66866, Note_off_c, 7, 49, 64
21, 66943, Note_on_c, 7, 50, 68
21, 67005, Note_off_c, 7, 50, 64
21, 67069, Note_on_c, 7, 54, 85
21, 67124, Note_off_c, 7, 54, 64
21, 67188, Note_on_c, 7, 55, 80
21, 67251, Note_off_c, 7, 55, 64
21, 67311, Note_on_c, 7, 57, 85
21, 67373, Note_off_c, 7, 57, 64
21, 67430, Note_on_c, 7, 59, 82
21, 67487, Note_off_c, 7, 59, 64
21, 67543, Note_on_c, 7, 55, 80
21, 67600, Note_off_c, 7, 55, 64
21, 67665, Note_on_c, 7, 61, 68
21, 67728, Note_off_c, 7, 61, 64
21, 67792, Note_on_c, 7, 57, 82
21, 67843, Note_off_c, 7, 57, 64
21, 67912, Note_on_c, 7, 62, 85
21, 67976, Note_off_c, 7, 62, 64
21, 68028, Note_on_c, 7, 54, 64
21, 68092, Note_off_c, 7, 54, 64
21, 68151, Note_on_c, 7, 52, 78
21, 68199, Note_off_c, 7, 52, 64
21, 68266, Note_on_c, 7, 50, 68
21, 68332, Note_off_c, 7, 50, 64
21, 68387, Note_on_c, 7, 59, 89
21, 68440, Note_off_c, 7, 59, 64
21, 68505, Note_on_c, 7, 52, 82
21, 68567, Note_off_c, 7, 52, 64
21, 68618, Note_on_c, 7, 54, 70
21, 68681, Note_off_c, 7, 54, 64
21, 68734, Note_on_c, 7, 55, 82
21, 68790, Note_off_c, 7, 55, 64
21, 68852, Note_on_c, 7, 57, 85
21, 68908, Note_off_c, 7, 57, 64
21, 68982, Note_on_c, 7, 45, 87
21, 69036, Note_off_c, 7, 45, 64
21, 69124, Note_on_c, 7, 50, 100
21, 69374, Note_off_c, 7, 50, 64
21, 69374, End_track
22, 0, Start_track
22, 0, Title_t, "Violin"
22, 0, Program_c, 8, 40
22, 0, Control_c, 8, 7, 100
22, 9008, Note_on_c, 8, 78, 98
22, 9048, Note_off_c, 8, 78, 64
22, 9057, Note_on_c, 8, 76, 87
22, 9097, Note_off_c, 8, 76, 64
22, 9109, Note_on_c, 8, 78, 93
22, 9154, Note_off_c, 8, 78, 64
22, 9233, Note_on_c, 8, 79, 82
22, 9280, Note_off_c, 8, 79, 64
22, 9345, Note_on_c, 8, 78, 98
22, 9367, Note_on_c, 8, 76, 62
22, 9371, Note_off_c, 8, 78, 64
22, 9395, Note_on_c, 8, 78, 76
22, 9398, Note_off_c, 8, 76, 64
22, 9425, Note_on_c, 8, 76, 85
22, 9440, Note_off_c, 8, 78, 64
22, 9467, Note_on_c, 8, 74, 80
22, 9471, Note_off_c, 8, 76, 64
22, 9517, Note_off_c, 8, 74, 64
22, 9523, Note_on_c, 8, 73, 80
22, 9566, Note_off_c, 8, 73, 64
22, 9580, Note_on_c, 8, 74, 85
22, 9634, Note_off_c, 8, 74, 64
22, 9639, Note_on_c, 8, 76, 87
22, 9681, Note_off_c, 8, 76, 64
22, 9696, Note_on_c, 8, 78, 93
22, 9734, Note_off_c, 8, 78, 64
22, 9755, Note_on_c, 8, 79, 87
22, 9800, Note_off_c, 8, 79, 64
22, 9823, Note_on_c, 8, 81, 93
22, 9877, Note_off_c, 8, 81, 64
22, 9943, Note_on_c, 8, 83, 85
22, 9991, Note_off_c, 8, 83, 64
22, 10063, Note_on_c, 8, 81, 102
22, 10088, Note_on_c, 8, 79, 89
22, 10091, Note_off_c, 8, 81, 64
22, 10114, Note_on_c, 8, 81, 70
22, 10120, Note_off_c, 8, 79, 64
22, 10145, Note_on_c, 8, 79, 76
22, 10149, Note_off_c, 8, 81, 64
22, 10177, Note_off_c, 8, 79, 64
22, 10179, Note_on_c, 8, 78, 85
22, 10318, Note_off_c, 8, 78, 64
22, 10427, Note_on_c, 8, 76, 87
22, 10476, Note_off_c, 8, 76, 64
22, 10485, Note_on_c, 8, 74, 80
22, 10532, Note_off_c, 8, 74, 64
22, 10551, Note_on_c, 8, 76, 85
22, 10590, Note_off_c, 8, 76, 64
22, 10605, Note_on_c, 8, 78, 80
22, 10642, Note_off_c, 8, 78, 64
22, 10671, Note_on_c, 8, 78, 87
22, 10716, Note_off_c, 8, 78, 64
22, 10790, Note_on_c, 8, 76, 98
22, 10817, Note_off_c, 8, 76, 64
22, 10819, Note_on_c, 8, 74, 80
22, 10841, Note_on_c, 8, 76, 66
22, 10852, Note_off_c, 8, 74, 64
22, 10873, Note_on_c, 8, 74, 78
22, 10879, Note_off_c, 8, 76, 64
22, 10911, Note_on_c, 8, 73, 82
22, 10917, Note_off_c, 8, 74, 64
22, 10947, Note_off_c, 8, 73, 64
22, 10968, Note_on_c, 8, 71, 82
22, 11013, Note_off_c, 8, 71, 64
22, 11028, Note_on_c, 8, 73, 72
22, 11075, Note_off_c, 8, 73, 64
22, 11083, Note_on_c, 8, 74, 80
22, 11128, Note_off_c, 8, 74, 64
22, 11141, Note_on_c, 8, 76, 87
22, 11184, Note_off_c, 8, 76, 64
22, 11200, Note_on_c, 8, 78, 85
22, 11240, Note_off_c, 8, 78, 64
22, 11266, Note_on_c, 8, 80, 95
22, 11313, Note_off_c, 8, 80, 64
22, 11385, Note_on_c, 8, 81, 87
22, 11428, Note_off_c, 8, 81, 64
22, 11508, Note_on_c, 8, 73, 89
22, 11530, Note_on_c, 8, 71, 70
22, 11532, Note_off_c, 8, 73, 64
22, 11562, Note_off_c, 8, 71, 64
22, 11565, Note_on_c, 8, 73, 78
22, 11590, Note_on_c, 8, 71, 80
22, 11606, Note_off_c, 8, 73, 64
22, 11616, Note_on_c, 8, 69, 78
22, 11627, Note_off_c, 8, 71, 64
22, 11670, Note_off_c, 8, 69, 64
22, 11674, Note_on_c, 8, 68, 82
22, 11717, Note_off_c, 8, 68, 64
22, 11733, Note_on_c, 8, 69, 82
22, 11785, Note_off_c, 8, 69, 64
22, 11794, Note_on_c, 8, 71, 78
22, 11842, Note_off_c, 8, 71, 64
22, 11852, Note_on_c, 8, 73, 72
22, 11894, Note_off_c, 8, 73, 64
22, 11914, Note_on_c, 8, 74, 76
22, 11960, Note_off_c, 8, 74, 64
22, 11980, Note_on_c, 8, 76, 85
22, 12026, Note_off_c, 8, 76, 64
22, 12107, Note_on_c, 8, 78, 80
22, 12149, Note_off_c, 8, 78, 64
22, 12217, Note_on_c, 8, 69, 95
22, 12246, Note_on_c, 8, 68, 76
22, 12252, Note_off_c, 8, 69, 64
22, 12267, Note_off_c, 8, 68, 64
22, 12270, Note_on_c, 8, 69, 64
22, 12293, Note_on_c, 8, 68, 72
22, 12304, Note_off_c, 8, 69, 64
22, 12331, Note_on_c, 8, 66, 62
22, 12341, Note_off_c, 8, 68, 64
22, 12368, Note_off_c, 8, 66, 64
22, 12399, Note_on_c, 8, 64, 82
22, 12446, Note_off_c, 8, 64, 64
22, 12471, Note_on_c, 8, 74, 100
22, 12550, Note_off_c, 8, 74, 64
22, 12710, Note_on_c, 8, 73, 85
22, 12799, Note_off_c, 8, 73, 64
22, 13067, Note_on_c, 8, 74, 85
22, 13111, Note_off_c, 8, 74, 64
22, 13173, Note_on_c, 8, 73, 95
22, 13190, Note_on_c, 8, 71, 61
22, 13196, Note_off_c, 8, 73, 64
22, 13216, Note_on_c, 8, 73, 61
22, 13218, Note_off_c, 8, 71, 64
22, 13245, Note_on_c, 8, 71, 82
22, 13267, Note_off_c, 8, 73, 64
22, 13280, Note_on_c, 8, 69, 64
22, 13287, Note_off_c, 8, 71, 64
22, 13335, Note_on_c, 8, 68, 98
22, 13346, Note_off_c, 8, 69, 64
22, 13365, Note_off_c, 8, 68, 64
22, 13414, Note_on_c, 8, 78, 87
22, 13511, Note_off_c, 8, 78, 64
22, 13666, Note_on_c, 8, 76, 89
22, 13765, Note_off_c, 8, 76, 64
22, 14024, Note_on_c, 8, 78, 89
22, 14062, Note_off_c, 8, 78, 64
22, 14142, Note_on_c, 8, 76, 93
22, 14165, Note_on_c, 8, 74, 78
22, 14168, Note_off_c, 8, 76, 64
22, 14188, Note_on_c, 8, 76, 66
22, 14199, Note_off_c, 8, 74, 64
22, 14215, Note_on_c, 8, 74, 78
22, 14224, Note_off_c, 8, 76, 64
22, 14250, Note_on_c, 8, 73, 60
22, 14257, Note_off_c, 8, 74, 64
22, 14280, Note_off_c, 8, 73, 64
22, 14301, Note_on_c, 8, 71, 72
22, 14350, Note_off_c, 8, 71, 64
22, 14380, Note_on_c, 8, 81, 95
22, 14488, Note_off_c, 8, 81, 64
22, 14623, Note_on_c, 8, 80, 95
22, 14725, Note_off_c, 8, 80, 64
22, 14745, Note_on_c, 8, 81, 66
22, 14787, Note_off_c, 8, 81, 64
22, 14792, Note_on_c, 8, 83, 74
22, 14829, Note_off_c, 8, 83, 64
22, 14859, Note_on_c, 8, 76, 85
22, 14903, Note_off_c, 8, 76, 64
22, 14979, Note_on_c, 8, 74, 82
22, 15023, Note_off_c, 8, 74, 64
22, 15091, Note_on_c, 8, 74, 85
22, 15115, Note_on_c, 8, 73, 82
22, 15120, Note_off_c, 8, 74, 64
22, 15140, Note_off_c, 8, 73, 64
22, 15144, Note_on_c, 8, 74, 76
22, 15171, Note_on_c, 8, 73, 64
22, 15187, Note_off_c, 8, 74, 64
22, 15201, Note_on_c, 8, 71, 68
22, 15211, Note_off_c, 8, 73, 64
22, 15253, Note_off_c, 8, 71, 64
22, 15265, Note_on_c, 8, 69, 80
22, 15299, Note_off_c, 8, 69, 64
22, 15327, Note_on_c, 8, 71, 76
22, 15390, Note_off_c, 8, 71, 64
22, 15451, Note_on_c, 8, 81, 80
22, 15494, Note_off_c, 8, 81, 64
22, 15509, Note_on_c, 8, 80, 100
22, 15547, Note_off_c, 8, 80, 64
22, 15577, Note_on_c, 8, 81, 87
22, 15623, Note_off_c, 8, 81, 64
22, 15701, Note_on_c, 8, 83, 85
22, 15742, Note_off_c, 8, 83, 64
22, 15816, Note_on_c, 8, 76, 78
22, 15845, Note_on_c, 8, 74, 80
22, 15846, Note_off_c, 8, 76, 64
22, 15872, Note_on_c, 8, 76, 74
22, 15877, Note_off_c, 8, 74, 64
22, 15906, Note_on_c, 8, 74, 64
22, 15909, Note_off_c, 8, 76, 64
22, 15951, Note_off_c, 8, 74, 64
22, 15961, Note_on_c, 8, 73, 57
22, 16003, Note_off_c, 8, 73, 64
22, 16006, Note_on_c, 8, 71, 76
22, 16062, Note_off_c, 8, 71, 64
22, 16068, Note_on_c, 8, 73, 72
22, 16120, Note_off_c, 8, 73, 64
22, 16128, Note_on_c, 8, 74, 70
22, 16174, Note_off_c, 8, 74, 64
22, 16182, Note_on_c, 8, 76, 78
22, 16229, Note_off_c, 8, 76, 64
22, 16233, Note_on_c, 8, 78, 78
22, 16273, Note_off_c, 8, 78, 64
22, 16296, Note_on_c, 8, 80, 87
22, 16339, Note_off_c, 8, 80, 64
22, 16415, Note_on_c, 8, 81, 85
22, 16452, Note_off_c, 8, 81, 64
22, 16530, Note_on_c, 8, 73, 93
22, 16558, Note_off_c, 8, 73, 64
22, 16559, Note_on_c, 8, 71, 61
22, 16586, Note_on_c, 8, 73, 61
22, 16587, Note_off_c, 8, 71, 64
22, 16615, Note_on_c, 8, 71, 70
22, 16632, Note_off_c, 8, 73, 64
22, 16646, Note_on_c, 8, 69, 60
22, 16656, Note_off_c, 8, 71, 64
22, 16707, Note_off_c, 8, 69, 64
22, 16707, Note_on_c, 8, 68, 80
22, 16748, Note_off_c, 8, 68, 64
22, 16770, Note_on_c, 8, 69, 80
22, 16830, Note_off_c, 8, 69, 64
22, 16896, Note_on_c, 8, 71, 82
22, 16930, Note_off_c, 8, 71, 64
22, 17016, Note_on_c, 8, 64, 82
22, 17062, Note_off_c, 8, 64, 64
22, 17132, Note_on_c, 8, 69, 82
22, 17158, Note_on_c, 8, 68, 74
22, 17159, Note_off_c, 8, 69, 64
22, 17175, Note_off_c, 8, 68, 64
22, 17178, Note_on_c, 8, 69, 74
22, 17201, Note_on_c, 8, 68, 72
22, 17214, Note_off_c, 8, 69, 64
22, 17237, Note_off_c, 8, 68, 64
22, 17278, Note_on_c, 8, 69, 87
22, 17530, Note_off_c, 8, 69, 64
22, 29153, Note_on_c, 8, 66, 80
22, 29194, Note_off_c, 8, 66, 64
22, 29206, Note_on_c, 8, 64, 72
22, 29265, Note_off_c, 8, 64, 64
22, 29274, Note_on_c, 8, 66, 87
22, 29330, Note_off_c, 8, 66, 64
22, 29387, Note_on_c, 8, 67, 80
22, 29443, Note_off_c, 8, 67, 64
22, 29506, Note_on_c, 8, 69, 89
22, 29586, Note_off_c, 8, 69, 64
22, 29629, Note_on_c, 8, 72, 87
22, 29675, Note_on_c, 8, 71, 87
22, 29678, Note_off_c, 8, 72, 64
22, 29719, Note_off_c, 8, 71, 64
22, 29738, Note_on_c, 8, 72, 87
22, 29793, Note_off_c, 8, 72, 64
22, 29860, Note_on_c, 8, 81, 85
22, 29917, Note_off_c, 8, 81, 64
22, 29978, Note_on_c, 8, 69, 72
22, 30026, Note_off_c, 8, 69, 64
22, 30029, Note_on_c, 8, 71, 80
22, 30074, Note_off_c, 8, 71, 64
22, 30092, Note_on_c, 8, 72, 93
22, 30156, Note_off_c, 8, 72, 64
22, 30218, Note_on_c, 8, 74, 89
22, 30244, Note_on_c, 8, 72, 80
22, 30246, Note_off_c, 8, 74, 64
22, 30267, Note_on_c, 8, 74, 68
22, 30269, Note_off_c, 8, 72, 64
22, 30294, Note_on_c, 8, 72, 87
22, 30305, Note_off_c, 8, 74, 64
22, 30330, Note_on_c, 8, 71, 82
22, 30336, Note_off_c, 8, 72, 64
22, 30481, Note_off_c, 8, 71, 64
22, 30590, Note_on_c, 8, 71, 87
22, 30639, Note_off_c, 8, 71, 64
22, 30639, Note_on_c, 8, 69, 78
22, 30693, Note_off_c, 8, 69, 64
22, 30701, Note_on_c, 8, 71, 78
22, 30755, Note_off_c, 8, 71, 64
22, 30827, Note_on_c, 8, 73, 74
22, 30868, Note_off_c, 8, 73, 64
22, 30950, Note_on_c, 8, 74, 87
22, 31029, Note_off_c, 8, 74, 64
22, 31067, Note_on_c, 8, 78, 80
22, 31114, Note_off_c, 8, 78, 64
22, 31118, Note_on_c, 8, 76, 80
22, 31155, Note_off_c, 8, 76, 64
22, 31181, Note_on_c, 8, 74, 85
22, 31250, Note_off_c, 8, 74, 64
22, 31304, Note_on_c, 8, 83, 85
22, 31360, Note_off_c, 8, 83, 64
22, 31425, Note_on_c, 8, 71, 72
22, 31482, Note_on_c, 8, 73, 64
22, 31494, Note_off_c, 8, 71, 64
22, 31525, Note_off_c, 8, 73, 64
22, 31541, Note_on_c, 8, 74, 87
22, 31603, Note_off_c, 8, 74, 64
22, 31666, Note_on_c, 8, 76, 89
22, 31691, Note_on_c, 8, 74, 68
22, 31693, Note_off_c, 8, 76, 64
22, 31716, Note_on_c, 8, 76, 63
22, 31717, Note_on_c, 8, 77, 57
22, 31722, Note_off_c, 8, 74, 64
22, 31727, Note_off_c, 8, 77, 64
22, 31737, Note_on_c, 8, 74, 76
22, 31744, Note_off_c, 8, 76, 64
22, 31775, Note_on_c, 8, 73, 85
22, 31783, Note_off_c, 8, 74, 64
22, 31911, Note_off_c, 8, 73, 64
22, 32022, Note_on_c, 8, 81, 76
22, 32067, Note_on_c, 8, 80, 66
22, 32068, Note_off_c, 8, 81, 64
22, 32117, Note_off_c, 8, 80, 64
22, 32135, Note_on_c, 8, 83, 85
22, 32189, Note_off_c, 8, 83, 64
22, 32258, Note_on_c, 8, 81, 85
22, 32306, Note_off_c, 8, 81, 64
22, 32371, Note_on_c, 8, 81, 87
22, 32392, Note_on_c, 8, 80, 93
22, 32397, Note_off_c, 8, 81, 64
22, 32417, Note_on_c, 8, 81, 64
22, 32420, Note_off_c, 8, 80, 64
22, 32445, Note_on_c, 8, 80, 72
22, 32456, Note_off_c, 8, 81, 64
22, 32477, Note_off_c, 8, 80, 64
22, 32496, Note_on_c, 8, 81, 91
22, 32638, Note_off_c, 8, 81, 64
22, 32744, Note_on_c, 8, 79, 78
22, 32789, Note_off_c, 8, 79, 64
22, 32796, Note_on_c, 8, 78, 68
22, 32841, Note_off_c, 8, 78, 64
22, 32861, Note_on_c, 8, 81, 82
22, 32910, Note_off_c, 8, 81, 64
22, 32983, Note_on_c, 8, 79, 82
22, 33030, Note_off_c, 8, 79, 64
22, 33102, Note_on_c, 8, 79, 87
22, 33126, Note_off_c, 8, 79, 64
22, 33127, Note_on_c, 8, 78, 85
22, 33151, Note_off_c, 8, 78, 64
22, 33151, Note_on_c, 8, 79, 85
22, 33178, Note_on_c, 8, 78, 74
22, 33185, Note_off_c, 8, 79, 64
22, 33212, Note_off_c, 8, 78, 64
22, 33215, Note_on_c, 8, 79, 82
22, 33352, Note_off_c, 8, 79, 64
22, 33458, Note_on_c, 8, 77, 66
22, 33503, Note_on_c, 8, 76, 70
22, 33512, Note_off_c, 8, 77, 64
22, 33544, Note_off_c, 8, 76, 64
22, 33570, Note_on_c, 8, 79, 85
22, 33625, Note_off_c, 8, 79, 64
22, 33689, Note_on_c, 8, 77, 74
22, 33744, Note_off_c, 8, 77, 64
22, 33820, Note_on_c, 8, 76, 76
22, 33905, Note_off_c, 8, 76, 64
22, 33944, Note_on_c, 8, 77, 80
22, 34160, Note_off_c, 8, 77, 64
22, 34189, Note_on_c, 8, 74, 59
22, 34392, Note_off_c, 8, 74, 64
22, 34414, Note_on_c, 8, 75, 57
22, 34643, Note_off_c, 8, 75, 64
22, 34669, Note_on_c, 8, 73, 58
22, 34874, Note_off_c, 8, 73, 64
22, 34910, Note_on_c, 8, 74, 64
22, 35114, Note_off_c, 8, 74, 64
22, 35136, Note_on_c, 8, 70, 68
22, 35369, Note_off_c, 8, 70, 64
22, 35387, Note_on_c, 8, 69, 66
22, 35601, Note_off_c, 8, 69, 64
22, 35624, Note_on_c, 8, 68, 66
22, 35803, Note_off_c, 8, 68, 64
22, 35865, Note_on_c, 8, 69, 82
22, 35917, Note_off_c, 8, 69, 64
22, 35996, Note_on_c, 8, 80, 98
22, 36028, Note_off_c, 8, 80, 64
22, 36119, Note_on_c, 8, 81, 95
22, 36273, Note_off_c, 8, 81, 64
22, 36356, Note_on_c, 8, 79, 85
22, 36405, Note_on_c, 8, 78, 98
22, 36407, Note_off_c, 8, 79, 64
22, 36446, Note_off_c, 8, 78, 64
22, 36465, Note_on_c, 8, 79, 85
22, 36519, Note_off_c, 8, 79, 64
22, 36587, Note_on_c, 8, 76, 85
22, 36654, Note_off_c, 8, 76, 64
22, 36706, Note_on_c, 8, 78, 87
22, 36758, Note_off_c, 8, 78, 64
22, 36761, Note_on_c, 8, 79, 82
22, 36807, Note_off_c, 8, 79, 64
22, 36820, Note_on_c, 8, 81, 63
22, 36859, Note_off_c, 8, 81, 64
22, 36877, Note_on_c, 8, 83, 87
22, 36916, Note_off_c, 8, 83, 64
22, 36940, Note_on_c, 8, 85, 87
22, 36987, Note_off_c, 8, 85, 64
22, 37067, Note_on_c, 8, 86, 87
22, 37108, Note_off_c, 8, 86, 64
22, 37187, Note_on_c, 8, 69, 78
22, 37242, Note_off_c, 8, 69, 64
22, 37315, Note_on_c, 8, 73, 85
22, 37359, Note_off_c, 8, 73, 64
22, 37441, Note_on_c, 8, 62, 89
22, 37594, Note_off_c, 8, 62, 64
22, 37606, Note_on_c, 8, 64, 80
22, 37634, Note_off_c, 8, 64, 64
22, 37669, Note_on_c, 8, 66, 89
22, 37720, Note_on_c, 8, 68, 66
22, 37748, Note_off_c, 8, 66, 64
22, 37780, Note_on_c, 8, 69, 76
22, 37792, Note_off_c, 8, 68, 64
22, 37834, Note_on_c, 8, 71, 76
22, 37850, Note_off_c, 8, 69, 64
22, 37879, Note_off_c, 8, 71, 64
22, 37898, Note_on_c, 8, 69, 98
22, 37955, Note_on_c, 8, 68, 64
22, 37979, Note_off_c, 8, 69, 64
22, 38015, Note_on_c, 8, 66, 58
22, 38028, Note_off_c, 8, 68, 64
22, 38073, Note_off_c, 8, 66, 64
22, 38075, Note_on_c, 8, 64, 78
22, 38114, Note_off_c, 8, 64, 64
22, 38138, Note_on_c, 8, 74, 85
22, 38194, Note_on_c, 8, 73, 58
22, 38212, Note_off_c, 8, 74, 64
22, 38256, Note_on_c, 8, 71, 64
22, 38259, Note_off_c, 8, 73, 64
22, 38303, Note_off_c, 8, 71, 64
22, 38310, Note_on_c, 8, 69, 60
22, 38355, Note_off_c, 8, 69, 64
22, 38380, Note_on_c, 8, 79, 98
22, 38453, Note_off_c, 8, 79, 64
22, 38627, Note_on_c, 8, 78, 70
22, 38721, Note_off_c, 8, 78, 64
22, 38988, Note_on_c, 8, 79, 85
22, 39041, Note_off_c, 8, 79, 64
22, 39102, Note_on_c, 8, 78, 102
22, 39125, Note_on_c, 8, 76, 78
22, 39128, Note_off_c, 8, 78, 64
22, 39151, Note_on_c, 8, 78, 66
22, 39156, Note_off_c, 8, 76, 64
22, 39177, Note_on_c, 8, 76, 76
22, 39199, Note_off_c, 8, 78, 64
22, 39215, Note_on_c, 8, 74, 60
22, 39220, Note_off_c, 8, 76, 64
22, 39271, Note_on_c, 8, 73, 87
22, 39279, Note_off_c, 8, 74, 64
22, 39312, Note_off_c, 8, 73, 64
22, 39333, Note_on_c, 8, 83, 93
22, 39410, Note_off_c, 8, 83, 64
22, 39576, Note_on_c, 8, 81, 66
22, 39661, Note_off_c, 8, 81, 64
22, 39950, Note_on_c, 8, 83, 87
22, 39999, Note_off_c, 8, 83, 64
22, 40060, Note_on_c, 8, 81, 105
22, 40081, Note_on_c, 8, 79, 66
22, 40086, Note_off_c, 8, 81, 64
22, 40110, Note_on_c, 8, 81, 70
22, 40115, Note_off_c, 8, 79, 64
22, 40138, Note_on_c, 8, 79, 64
22, 40145, Note_off_c, 8, 81, 64
22, 40170, Note_on_c, 8, 78, 64
22, 40174, Note_off_c, 8, 79, 64
22, 40199, Note_off_c, 8, 78, 64
22, 40219, Note_on_c, 8, 76, 80
22, 40265, Note_off_c, 8, 76, 64
22, 40290, Note_on_c, 8, 86, 98
22, 40377, Note_off_c, 8, 86, 64
22, 40540, Note_on_c, 8, 85, 91
22, 40633, Note_off_c, 8, 85, 64
22, 40665, Note_on_c, 8, 79, 70
22, 40715, Note_off_c, 8, 79, 64
22, 40718, Note_on_c, 8, 78, 70
22, 40775, Note_off_c, 8, 78, 64
22, 40790, Note_on_c, 8, 79, 85
22, 40846, Note_off_c, 8, 79, 64
22, 40914, Note_on_c, 8, 81, 82
22, 40960, Note_off_c, 8, 81, 64
22, 41037, Note_on_c, 8, 79, 87
22, 41094, Note_on_c, 8, 78, 74
22, 41113, Note_off_c, 8, 79, 64
22, 41153, Note_on_c, 8, 76, 63
22, 41158, Note_off_c, 8, 78, 64
22, 41209, Note_off_c, 8, 76, 64
22, 41213, Note_on_c, 8, 74, 66
22, 41254, Note_off_c, 8, 74, 64
22, 41270, Note_on_c, 8, 78, 87
22, 41328, Note_on_c, 8, 76, 66
22, 41350, Note_off_c, 8, 78, 64
22, 41383, Note_off_c, 8, 76, 64
22, 41387, Note_on_c, 8, 74, 52
22, 41442, Note_off_c, 8, 74, 64
22, 41444, Note_on_c, 8, 73, 57
22, 41478, Note_off_c, 8, 73, 64
22, 41506, Note_on_c, 8, 74, 85
22, 41560, Note_off_c, 8, 74, 64
22, 41628, Note_on_c, 8, 76, 85
22, 41678, Note_off_c, 8, 76, 64
22, 41751, Note_on_c, 8, 69, 89
22, 41777, Note_on_c, 8, 67, 80
22, 41782, Note_off_c, 8, 69, 64
22, 41799, Note_on_c, 8, 69, 63
22, 41812, Note_off_c, 8, 67, 64
22, 41834, Note_on_c, 8, 67, 64
22, 41839, Note_off_c, 8, 69, 64
22, 41869, Note_on_c, 8, 66, 80
22, 41881, Note_off_c, 8, 67, 64
22, 41922, Note_on_c, 8, 64, 76
22, 41923, Note_off_c, 8, 66, 64
22, 41974, Note_off_c, 8, 64, 64
22, 41980, Note_on_c, 8, 66, 72
22, 42029, Note_on_c, 8, 67, 82
22, 42035, Note_off_c, 8, 66, 64
22, 42091, Note_off_c, 8, 67, 64
22, 42095, Note_on_c, 8, 69, 64
22, 42151, Note_on_c, 8, 71, 64
22, 42153, Note_off_c, 8, 69, 64
22, 42200, Note_on_c, 8, 73, 64
22, 42208, Note_off_c, 8, 71, 64
22, 42248, Note_off_c, 8, 73, 64
22, 42257, Note_on_c, 8, 74, 85
22, 42316, Note_on_c, 8, 76, 70
22, 42320, Note_off_c, 8, 74, 64
22, 42372, Note_on_c, 8, 78, 63
22, 42375, Note_off_c, 8, 76, 64
22, 42423, Note_off_c, 8, 78, 64
22, 42442, Note_on_c, 8, 79, 93
22, 42492, Note_on_c, 8, 81, 72
22, 42508, Note_off_c, 8, 79, 64
22, 42547, Note_off_c, 8, 81, 64
22, 42556, Note_on_c, 8, 83, 63
22, 42605, Note_off_c, 8, 83, 64
22, 42616, Note_on_c, 8, 79, 66
22, 42668, Note_off_c, 8, 79, 64
22, 42690, Note_on_c, 8, 81, 87
22, 42733, Note_off_c, 8, 81, 64
22, 42818, Note_on_c, 8, 74, 82
22, 42862, Note_off_c, 8, 74, 64
22, 42941, Note_on_c, 8, 69, 76
22, 42990, Note_off_c, 8, 69, 64
22, 43072, Note_on_c, 8, 73, 76
22, 43121, Note_off_c, 8, 73, 64
22, 43199, Note_on_c, 8, 74, 76
22, 43460, Note_off_c, 8, 74, 64
22, 55073, Note_on_c, 8, 66, 80
22, 55114, Note_off_c, 8, 66, 64
22, 55126, Note_on_c, 8, 64, 72
22, 55185, Note_off_c, 8, 64, 64
22, 55194, Note_on_c, 8, 66, 87
22, 55250, Note_off_c, 8, 66, 64
22, 55307, Note_on_c, 8, 67, 80
22, 55363, Note_off_c, 8, 67, 64
22, 55426, Note_on_c, 8, 69, 89
22, 55506, Note_off_c, 8, 69, 64
22, 55549, Note_on_c, 8, 72, 87
22, 55595, Note_on_c, 8, 71, 87
22, 55598, Note_off_c, 8, 72, 64
22, 55639, Note_off_c, 8, 71, 64
22, 55658, Note_on_c, 8, 72, 87
22, 55713, Note_off_c, 8, 72, 64
22, 55780, Note_on_c, 8, 81, 85
22, 55837, Note_off_c, 8, 81, 64
22, 55898, Note_on_c, 8, 69, 72
22, 55946, Note_off_c, 8, 69, 64
22, 55949, Note_on_c, 8, 71, 80
22, 55994, Note_off_c, 8, 71, 64
22, 56012, Note_on_c, 8, 72, 93
22, 56076, Note_off_c, 8, 72, 64
22, 56138, Note_on_c, 8, 74, 89
22, 56164, Note_on_c, 8, 72, 80
22, 56166, Note_off_c, 8, 74, 64
22, 56187, Note_on_c, 8, 74, 68
22, 56189, Note_off_c, 8, 72, 64
22, 56214, Note_on_c, 8, 72, 87
22, 56225, Note_off_c, 8, 74, 64
22, 56250, Note_on_c, 8, 71, 82
22, 56256, Note_off_c, 8, 72, 64
22, 56401, Note_off_c, 8, 71, 64
22, 56510, Note_on_c, 8, 71, 87
22, 56559, Note_off_c, 8, 71, 64
22, 56559, Note_on_c, 8, 69, 78
22, 56613, Note_off_c, 8, 69, 64
22, 56621, Note_on_c, 8, 71, 78
22, 56675, Note_off_c, 8, 71, 64
22, 56747, Note_on_c, 8, 73, 74
22, 56788, Note_off_c, 8, 73, 64
22, 56870, Note_on_c, 8, 74, 87
22, 56949, Note_off_c, 8, 74, 64
22, 56987, Note_on_c, 8, 78, 80
22, 57034, Note_off_c, 8, 78, 64
22, 57038, Note_on_c, 8, 76, 80
22, 57075, Note_off_c, 8, 76, 64
22, 57101, Note_on_c, 8, 74, 85
22, 57170, Note_off_c, 8, 74, 64
22, 57224, Note_on_c, 8, 83, 85
22, 57280, Note_off_c, 8, 83, 64
22, 57345, Note_on_c, 8, 71, 72
22, 57402, Note_on_c, 8, 73, 64
22, 57414, Note_off_c, 8, 71, 64
22, 57445, Note_off_c, 8, 73, 64
22, 57461, Note_on_c, 8, 74, 87
22, 57523, Note_off_c, 8, 74, 64
22, 57586, Note_on_c, 8, 76, 89
22, 57611, Note_on_c, 8, 74, 68
22, 57613, Note_off_c, 8, 76, 64
22, 57636, Note_on_c, 8, 76, 63
22, 57637, Note_on_c, 8, 77, 57
22, 57642, Note_off_c, 8, 74, 64
22, 57647, Note_off_c, 8, 77, 64
22, 57657, Note_on_c, 8, 74, 76
22, 57664, Note_off_c, 8, 76, 64
22, 57695, Note_on_c, 8, 73, 85
22, 57703, Note_off_c, 8, 74, 64
22, 57831, Note_off_c, 8, 73, 64
22, 57942, Note_on_c, 8, 81, 76
22, 57987, Note_on_c, 8, 80, 66
22, 57988, Note_off_c, 8, 81, 64
22, 58037, Note_off_c, 8, 80, 64
22, 58055, Note_on_c, 8, 83, 85
22, 58109, Note_off_c, 8, 83, 64
22, 58178, Note_on_c, 8, 81, 85
22, 58226, Note_off_c, 8, 81, 64
22, 58291, Note_on_c, 8, 81, 87
22, 58312, Note_on_c, 8, 80, 93
22, 58317, Note_off_c, 8, 81, 64
22, 58337, Note_on_c, 8, 81, 64
22, 58340, Note_off_c, 8, 80, 64
22, 58365, Note_on_c, 8, 80, 72
22, 58376, Note_off_c, 8, 81, 64
22, 58397, Note_off_c, 8, 80, 64
22, 58416, Note_on_c, 8, 81, 91
22, 58558, Note_off_c, 8, 81, 64
22, 58664, Note_on_c, 8, 79, 78
22, 58709, Note_off_c, 8, 79, 64
22, 58716, Note_on_c, 8, 78, 68
22, 58761, Note_off_c, 8, 78, 64
22, 58781, Note_on_c, 8, 81, 82
22, 58830, Note_off_c, 8, 81, 64
22, 58903, Note_on_c, 8, 79, 82
22, 58950, Note_off_c, 8, 79, 64
22, 59022, Note_on_c, 8, 79, 87
22, 59046, Note_off_c, 8, 79, 64
22, 59047, Note_on_c, 8, 78, 85
22, 59071, Note_off_c, 8, 78, 64
22, 59071, Note_on_c, 8, 79, 85
22, 59098, Note_on_c, 8, 78, 74
22, 59105, Note_off_c, 8, 79, 64
22, 59132, Note_off_c, 8, 78, 64
22, 59135, Note_on_c, 8, 79, 82
22, 59272, Note_off_c, 8, 79, 64
22, 59378, Note_on_c, 8, 77, 66
22, 59423, Note_on_c, 8, 76, 70
22, 59432, Note_off_c, 8, 77, 64
22, 59464, Note_off_c, 8, 76, 64
22, 59490, Note_on_c, 8, 79, 85
22, 59545, Note_off_c, 8, 79, 64
22, 59609, Note_on_c, 8, 77, 74
22, 59664, Note_off_c, 8, 77, 64
22, 59740, Note_on_c, 8, 76, 76
22, 59825, Note_off_c, 8, 76, 64
22, 59864, Note_on_c, 8, 77, 80
22, 60080, Note_off_c, 8, 77, 64
22, 60109, Note_on_c, 8, 74, 59
22, 60312, Note_off_c, 8, 74, 64
22, 60334, Note_on_c, 8, 75, 57
22, 60563, Note_off_c, 8, 75, 64
22, 60589, Note_on_c, 8, 73, 58
22, 60794, Note_off_c, 8, 73, 64
22, 60830, Note_on_c, 8, 74, 64
22, 61034, Note_off_c, 8, 74, 64
22, 61056, Note_on_c, 8, 70, 68
22, 61289, Note_off_c, 8, 70, 64
22, 61307, Note_on_c, 8, 69, 66
22, 61521, Note_off_c, 8, 69, 64
22, 61544, Note_on_c, 8, 68, 66
22, 61723, Note_off_c, 8, 68, 64
22, 61785, Note_on_c, 8, 69, 82
22, 61837, Note_off_c, 8, 69, 64
22, 61916, Note_on_c, 8, 80, 98
22, 61948, Note_off_c, 8, 80, 64
22, 62039, Note_on_c, 8, 81, 95
22, 62193, Note_off_c, 8, 81, 64
22, 62276, Note_on_c, 8, 79, 85
22, 62325, Note_on_c, 8, 78, 98
22, 62327, Note_off_c, 8, 79, 64
22, 62366, Note_off_c, 8, 78, 64
22, 62385, Note_on_c, 8, 79, 85
22, 62439, Note_off_c, 8, 79, 64
22, 62507, Note_on_c, 8, 76, 85
22, 62574, Note_off_c, 8, 76, 64
22, 62626, Note_on_c, 8, 78, 87
22, 62678, Note_off_c, 8, 78, 64
22, 62681, Note_on_c, 8, 79, 82
22, 62727, Note_off_c, 8, 79, 64
22, 62740, Note_on_c, 8, 81, 63
22, 62779, Note_off_c, 8, 81, 64
22, 62797, Note_on_c, 8, 83, 87
22, 62836, Note_off_c, 8, 83, 64
22, 62860, Note_on_c, 8, 85, 87
22, 62907, Note_off_c, 8, 85, 64
22, 62987, Note_on_c, 8, 86, 87
22, 63028, Note_off_c, 8, 86, 64
22, 63107, Note_on_c, 8, 69, 78
22, 63162, Note_off_c, 8, 69, 64
22, 63235, Note_on_c, 8, 73, 85
22, 63279, Note_off_c, 8, 73, 64
22, 63361, Note_on_c, 8, 62, 89
22, 63514, Note_off_c, 8, 62, 64
22, 63526, Note_on_c, 8, 64, 80
22, 63554, Note_off_c, 8, 64, 64
22, 63589, Note_on_c, 8, 66, 89
22, 63640, Note_on_c, 8, 68, 66
22, 63668, Note_off_c, 8, 66, 64
22, 63700, Note_on_c, 8, 69, 76
22, 63712, Note_off_c, 8, 68, 64
22, 63754, Note_on_c, 8, 71, 76
22, 63770, Note_off_c, 8, 69, 64
22, 63799, Note_off_c, 8, 71, 64
22, 63818, Note_on_c, 8, 69, 98
22, 63875, Note_on_c, 8, 68, 64
22, 63899, Note_off_c, 8, 69, 64
22, 63935, Note_on_c, 8, 66, 58
22, 63948, Note_off_c, 8, 68, 64
22, 63993, Note_off_c, 8, 66, 64
22, 63995, Note_on_c, 8, 64, 78
22, 64034, Note_off_c, 8, 64, 64
22, 64058, Note_on_c, 8, 74, 85
22, 64114, Note_on_c, 8, 73, 58
22, 64132, Note_off_c, 8, 74, 64
22, 64176, Note_on_c, 8, 71, 64
22, 64179, Note_off_c, 8, 73, 64
22, 64223, Note_off_c, 8, 71, 64
22, 64230, Note_on_c, 8, 69, 60
22, 64275, Note_off_c, 8, 69, 64
22, 64300, Note_on_c, 8, 79, 98
22, 64373, Note_off_c, 8, 79, 64
22, 64547, Note_on_c, 8, 78, 70
22, 64641, Note_off_c, 8, 78, 64
22, 64908, Note_on_c, 8, 79, 85
22, 64961, Note_off_c, 8, 79, 64
22, 65022, Note_on_c, 8, 78, 102
22, 65045, Note_on_c, 8, 76, 78
22, 65048, Note_off_c, 8, 78, 64
22, 65071, Note_on_c, 8, 78, 66
22, 65076, Note_off_c, 8, 76, 64
22, 65097, Note_on_c, 8, 76, 76
22, 65119, Note_off_c, 8, 78, 64
22, 65135, Note_on_c, 8, 74, 60
22, 65140, Note_off_c, 8, 76, 64
22, 65191, Note_on_c, 8, 73, 87
22, 65199, Note_off_c, 8, 74, 64
22, 65232, Note_off_c, 8, 73, 64
22, 65253, Note_on_c, 8, 83, 93
22, 65330, Note_off_c, 8, 83, 64
22, 65496, Note_on_c, 8, 81, 66
22, 65581, Note_off_c, 8, 81, 64
22, 65870, Note_on_c, 8, 83, 87
22, 65919, Note_off_c, 8, 83, 64
22, 65980, Note_on_c, 8, 81, 105
22, 66001, Note_on_c, 8, 79, 66
22, 66006, Note_off_c, 8, 81, 64
22, 66030, Note_on_c, 8, 81, 70
22, 66035, Note_off_c, 8, 79, 64
22, 66058, Note_on_c, 8, 79, 64
22, 66065, Note_off_c, 8, 81, 64
22, 66090, Note_on_c, 8, 78, 64
22, 66094, Note_off_c, 8, 79, 64
22, 66119, Note_off_c, 8, 78, 64
22, 66139, Note_on_c, 8, 76, 80
22, 66185, Note_off_c, 8, 76, 64
22, 66210, Note_on_c, 8, 86, 98
22, 66297, Note_off_c, 8, 86, 64
22, 66460, Note_on_c, 8, 85, 91
22, 66553, Note_off_c, 8, 85, 64
22, 66585, Note_on_c, 8, 79, 70
22, 66635, Note_off_c, 8, 79, 64
22, 66638, Note_on_c, 8, 78, 70
22, 66695, Note_off_c, 8, 78, 64
22, 66710, Note_on_c, 8, 79, 85
22, 66766, Note_off_c, 8, 79, 64
22, 66834, Note_on_c, 8, 81, 82
22, 66880, Note_off_c, 8, 81, 64
22, 66957, Note_on_c, 8, 79, 87
22, 67014, Note_on_c, 8, 78, 74
22, 67033, Note_off_c, 8, 79, 64
22, 67073, Note_on_c, 8, 76, 63
22, 67078, Note_off_c, 8, 78, 64
22, 67129, Note_off_c, 8, 76, 64
22, 67133, Note_on_c, 8, 74, 66
22, 67174, Note_off_c, 8, 74, 64
22, 67190, Note_on_c, 8, 78, 87
22, 67248, Note_on_c, 8, 76, 66
22, 67270, Note_off_c, 8, 78, 64
22, 67303, Note_off_c, 8, 76, 64
22, 67307, Note_on_c, 8, 74, 52
22, 67362, Note_off_c, 8, 74, 64
22, 67364, Note_on_c, 8, 73, 57
22, 67398, Note_off_c, 8, 73, 64
22, 67426, Note_on_c, 8, 74, 85
22, 67480, Note_off_c, 8, 74, 64
22, 67548, Note_on_c, 8, 76, 85
22, 67598, Note_off_c, 8, 76, 64
22, 67671, Note_on_c, 8, 69, 89
22, 67697, Note_on_c, 8, 67, 80
22, 67702, Note_off_c, 8, 69, 64
22, 67719, Note_on_c, 8, 69, 63
22, 67732, Note_off_c, 8, 67, 64
22, 67754, Note_on_c, 8, 67, 64
22, 67759, Note_off_c, 8, 69, 64
22, 67789, Note_on_c, 8, 66, 80
22, 67801, Note_off_c, 8, 67, 64
22, 67842, Note_on_c, 8, 64, 76
22, 67843, Note_off_c, 8, 66, 64
22, 67894, Note_off_c, 8, 64, 64
22, 67900, Note_on_c, 8, 66, 72
22, 67949, Note_on_c, 8, 67, 82
22, 67955, Note_off_c, 8, 66, 64
22, 68011, Note_off_c, 8, 67, 64
22, 68015, Note_on_c, 8, 69, 64
22, 68071, Note_on_c, 8, 71, 64
22, 68073, Note_off_c, 8, 69, 64
22, 68120, Note_on_c, 8, 73, 64
22, 68128, Note_off_c, 8, 71, 64
22, 68168, Note_off_c, 8, 73, 64
22, 68177, Note_on_c, 8, 74, 85
22, 68236, Note_on_c, 8, 76, 70
22, 68240, Note_off_c, 8, 74, 64
22, 68292, Note_on_c, 8, 78, 63
22, 68295, Note_off_c, 8, 76, 64
22, 68343, Note_off_c, 8, 78, 64
22, 68362, Note_on_c, 8, 79, 93
22, 68412, Note_on_c, 8, 81, 72
22, 68428, Note_off_c, 8, 79, 64
22, 68467, Note_off_c, 8, 81, 64
22, 68476, Note_on_c, 8, 83, 63
22, 68525, Note_off_c, 8, 83, 64
22, 68536, Note_on_c, 8, 79, 66
22, 68588, Note_off_c, 8, 79, 64
22, 68610, Note_on_c, 8, 81, 87
22, 68653, Note_off_c, 8, 81, 64
22, 68738, Note_on_c, 8, 74, 82
22, 68782, Note_off_c, 8, 74, 64
22, 68861, Note_on_c, 8, 69, 76
22, 68910, Note_off_c, 8, 69, 64
22, 68992, Note_on_c, 8, 73, 76
22, 69041, Note_off_c, 8, 73, 64
22, 69119, Note_on_c, 8, 74, 76
22, 69380, Note_off_c, 8, 74, 64
22, 69380, End_track
23, 0, Start_track
23, 0, Title_t, "Violin"
23, 0, Program_c, 10, 40
23, 0, Control_c, 10, 7, 100
23, 8999, Note_on_c, 10, 74, 76
23, 9047, Note_off_c, 10, 74, 64
23, 9108, Note_on_c, 10, 74, 80
23, 9164, Note_off_c, 10, 74, 64
23, 9232, Note_on_c, 10, 76, 82
23, 9281, Note_off_c, 10, 76, 64
23, 9355, Note_on_c, 10, 73, 64
23, 9403, Note_off_c, 10, 73, 64
23, 9464, Note_on_c, 10, 69, 74
23, 9521, Note_off_c, 10, 69, 64
23, 9590, Note_on_c, 10, 69, 85
23, 9647, Note_off_c, 10, 69, 64
23, 9711, Note_on_c, 10, 74, 80
23, 9753, Note_on_c, 10, 73, 80
23, 9758, Note_off_c, 10, 74, 64
23, 9790, Note_off_c, 10, 73, 64
23, 9813, Note_on_c, 10, 74, 85
23, 9858, Note_off_c, 10, 74, 64
23, 9943, Note_on_c, 10, 71, 78
23, 9992, Note_off_c, 10, 71, 64
23, 10065, Note_on_c, 10, 74, 98
23, 10091, Note_on_c, 10, 73, 87
23, 10096, Note_off_c, 10, 74, 64
23, 10115, Note_on_c, 10, 74, 66
23, 10116, Note_off_c, 10, 73, 64
23, 10139, Note_on_c, 10, 73, 78
23, 10149, Note_off_c, 10, 74, 64
23, 10173, Note_off_c, 10, 73, 64
23, 10194, Note_on_c, 10, 74, 87
23, 10321, Note_off_c, 10, 74, 64
23, 10435, Note_on_c, 10, 68, 76
23, 10481, Note_off_c, 10, 68, 64
23, 10551, Note_on_c, 10, 69, 80
23, 10605, Note_off_c, 10, 69, 64
23, 10670, Note_on_c, 10, 73, 74
23, 10722, Note_off_c, 10, 73, 64
23, 10789, Note_on_c, 10, 71, 78
23, 10841, Note_off_c, 10, 71, 64
23, 10910, Note_on_c, 10, 64, 64
23, 10962, Note_off_c, 10, 64, 64
23, 11031, Note_on_c, 10, 69, 82
23, 11080, Note_off_c, 10, 69, 64
23, 11148, Note_on_c, 10, 69, 70
23, 11193, Note_off_c, 10, 69, 64
23, 11265, Note_on_c, 10, 74, 82
23, 11316, Note_off_c, 10, 74, 64
23, 11393, Note_on_c, 10, 73, 85
23, 11443, Note_off_c, 10, 73, 64
23, 11508, Note_on_c, 10, 73, 91
23, 11537, Note_off_c, 10, 73, 64
23, 11538, Note_on_c, 10, 71, 76
23, 11564, Note_on_c, 10, 73, 82
23, 11569, Note_off_c, 10, 71, 64
23, 11596, Note_on_c, 10, 71, 80
23, 11607, Note_off_c, 10, 73, 64
23, 11631, Note_on_c, 10, 73, 74
23, 11642, Note_off_c, 10, 71, 64
23, 11674, Note_on_c, 10, 74, 76
23, 11677, Note_off_c, 10, 73, 64
23, 11712, Note_off_c, 10, 74, 64
23, 11740, Note_on_c, 10, 73, 107
23, 11798, Note_off_c, 10, 73, 64
23, 11862, Note_on_c, 10, 69, 80
23, 11918, Note_off_c, 10, 69, 64
23, 11977, Note_on_c, 10, 69, 80
23, 12034, Note_off_c, 10, 69, 64
23, 12093, Note_on_c, 10, 74, 87
23, 12137, Note_off_c, 10, 74, 64
23, 12225, Note_on_c, 10, 71, 85
23, 12451, Note_off_c, 10, 71, 64
23, 12584, Note_on_c, 10, 71, 68
23, 12633, Note_off_c, 10, 71, 64
23, 12705, Note_on_c, 10, 73, 66
23, 12751, Note_off_c, 10, 73, 64
23, 12821, Note_on_c, 10, 74, 85
23, 12863, Note_off_c, 10, 74, 64
23, 12947, Note_on_c, 10, 71, 98
23, 13179, Note_off_c, 10, 71, 64
23, 13302, Note_on_c, 10, 71, 85
23, 13343, Note_off_c, 10, 71, 64
23, 13407, Note_on_c, 10, 73, 100
23, 13427, Note_on_c, 10, 71, 60
23, 13430, Note_off_c, 10, 73, 64
23, 13457, Note_off_c, 10, 71, 64
23, 13460, Note_on_c, 10, 73, 66
23, 13483, Note_on_c, 10, 71, 80
23, 13506, Note_off_c, 10, 73, 64
23, 13517, Note_on_c, 10, 69, 68
23, 13523, Note_off_c, 10, 71, 64
23, 13575, Note_off_c, 10, 69, 64
23, 13579, Note_on_c, 10, 68, 82
23, 13617, Note_off_c, 10, 68, 64
23, 13656, Note_on_c, 10, 69, 91
23, 13739, Note_off_c, 10, 69, 64
23, 14022, Note_on_c, 10, 69, 82
23, 14079, Note_off_c, 10, 69, 64
23, 14134, Note_on_c, 10, 68, 76
23, 14191, Note_off_c, 10, 68, 64
23, 14252, Note_on_c, 10, 69, 85
23, 14308, Note_off_c, 10, 69, 64
23, 14384, Note_on_c, 10, 71, 100
23, 14463, Note_off_c, 10, 71, 64
23, 14624, Note_on_c, 10, 71, 63
23, 14691, Note_off_c, 10, 71, 64
23, 14740, Note_on_c, 10, 74, 82
23, 14799, Note_off_c, 10, 74, 64
23, 14853, Note_on_c, 10, 73, 78
23, 14919, Note_off_c, 10, 73, 64
23, 14975, Note_on_c, 10, 71, 82
23, 15015, Note_off_c, 10, 71, 64
23, 15094, Note_on_c, 10, 69, 76
23, 15152, Note_off_c, 10, 69, 64
23, 15206, Note_on_c, 10, 64, 74
23, 15265, Note_off_c, 10, 64, 64
23, 15319, Note_on_c, 10, 66, 72
23, 15371, Note_off_c, 10, 66, 64
23, 15444, Note_on_c, 10, 74, 82
23, 15495, Note_off_c, 10, 74, 64
23, 15576, Note_on_c, 10, 73, 82
23, 15622, Note_off_c, 10, 73, 64
23, 15696, Note_on_c, 10, 74, 80
23, 15749, Note_off_c, 10, 74, 64
23, 15808, Note_on_c, 10, 73, 91
23, 15830, Note_on_c, 10, 71, 85
23, 15835, Note_off_c, 10, 73, 64
23, 15861, Note_on_c, 10, 73, 66
23, 15864, Note_off_c, 10, 71, 64
23, 15891, Note_on_c, 10, 71, 80
23, 15906, Note_off_c, 10, 73, 64
23, 15926, Note_on_c, 10, 69, 68
23, 15935, Note_off_c, 10, 71, 64
23, 15983, Note_off_c, 10, 69, 64
23, 15989, Note_on_c, 10, 68, 63
23, 16029, Note_off_c, 10, 68, 64
23, 16050, Note_on_c, 10, 69, 89
23, 16125, Note_off_c, 10, 69, 64
23, 16185, Note_on_c, 10, 69, 85
23, 16239, Note_off_c, 10, 69, 64
23, 16304, Note_on_c, 10, 74, 91
23, 16358, Note_off_c, 10, 74, 64
23, 16422, Note_on_c, 10, 73, 70
23, 16461, Note_off_c, 10, 73, 64
23, 16542, Note_on_c, 10, 66, 72
23, 16610, Note_off_c, 10, 66, 64
23, 16650, Note_on_c, 10, 64, 68
23, 16711, Note_off_c, 10, 64, 64
23, 16770, Note_on_c, 10, 61, 66
23, 16836, Note_off_c, 10, 61, 64
23, 16884, Note_on_c, 10, 66, 70
23, 16943, Note_off_c, 10, 66, 64
23, 17007, Note_on_c, 10, 64, 72
23, 17061, Note_off_c, 10, 64, 64
23, 17138, Note_on_c, 10, 64, 72
23, 17191, Note_off_c, 10, 64, 64
23, 17272, Note_on_c, 10, 64, 95
23, 17516, Note_off_c, 10, 64, 64
23, 29146, Note_on_c, 10, 62, 85
23, 29196, Note_off_c, 10, 62, 64
23, 29202, Note_on_c, 10, 61, 82
23, 29251, Note_off_c, 10, 61, 64
23, 29265, Note_on_c, 10, 62, 76
23, 29333, Note_off_c, 10, 62, 64
23, 29392, Note_on_c, 10, 62, 82
23, 29443, Note_off_c, 10, 62, 64
23, 29512, Note_on_c, 10, 62, 95
23, 29598, Note_off_c, 10, 62, 64
23, 29636, Note_on_c, 10, 69, 78
23, 29687, Note_on_c, 10, 67, 87
23, 29695, Note_off_c, 10, 69, 64
23, 29724, Note_off_c, 10, 67, 64
23, 29748, Note_on_c, 10, 69, 95
23, 29806, Note_off_c, 10, 69, 64
23, 29866, Note_on_c, 10, 62, 85
23, 29908, Note_off_c, 10, 62, 64
23, 29916, Note_on_c, 10, 64, 85
23, 29955, Note_off_c, 10, 64, 64
23, 29974, Note_on_c, 10, 66, 91
23, 30026, Note_off_c, 10, 66, 64
23, 30029, Note_on_c, 10, 67, 85
23, 30075, Note_off_c, 10, 67, 64
23, 30096, Note_on_c, 10, 69, 91
23, 30143, Note_off_c, 10, 69, 64
23, 30215, Note_on_c, 10, 71, 107
23, 30236, Note_on_c, 10, 69, 85
23, 30242, Note_off_c, 10, 71, 64
23, 30267, Note_on_c, 10, 71, 78
23, 30269, Note_off_c, 10, 69, 64
23, 30294, Note_on_c, 10, 69, 82
23, 30302, Note_off_c, 10, 71, 64
23, 30329, Note_off_c, 10, 69, 64
23, 30333, Note_on_c, 10, 67, 85
23, 30469, Note_off_c, 10, 67, 64
23, 30581, Note_on_c, 10, 67, 87
23, 30631, Note_on_c, 10, 66, 82
23, 30639, Note_off_c, 10, 67, 64
23, 30680, Note_off_c, 10, 66, 64
23, 30696, Note_on_c, 10, 67, 91
23, 30747, Note_off_c, 10, 67, 64
23, 30819, Note_on_c, 10, 69, 78
23, 30860, Note_off_c, 10, 69, 64
23, 30940, Note_on_c, 10, 71, 87
23, 31020, Note_off_c, 10, 71, 64
23, 31058, Note_on_c, 10, 74, 80
23, 31100, Note_off_c, 10, 74, 64
23, 31114, Note_on_c, 10, 73, 93
23, 31147, Note_off_c, 10, 73, 64
23, 31173, Note_on_c, 10, 71, 100
23, 31236, Note_off_c, 10, 71, 64
23, 31295, Note_on_c, 10, 64, 82
23, 31341, Note_off_c, 10, 64, 64
23, 31347, Note_on_c, 10, 66, 85
23, 31406, Note_off_c, 10, 66, 64
23, 31412, Note_on_c, 10, 68, 87
23, 31454, Note_off_c, 10, 68, 64
23, 31469, Note_on_c, 10, 69, 82
23, 31521, Note_off_c, 10, 69, 64
23, 31530, Note_on_c, 10, 71, 87
23, 31579, Note_off_c, 10, 71, 64
23, 31589, Note_on_c, 10, 73, 85
23, 31621, Note_off_c, 10, 73, 64
23, 31660, Note_on_c, 10, 73, 95
23, 31686, Note_off_c, 10, 73, 64
23, 31689, Note_on_c, 10, 71, 82
23, 31714, Note_on_c, 10, 73, 85
23, 31717, Note_off_c, 10, 71, 64
23, 31741, Note_on_c, 10, 71, 85
23, 31753, Note_off_c, 10, 73, 64
23, 31775, Note_off_c, 10, 71, 64
23, 31775, Note_on_c, 10, 69, 91
23, 31921, Note_off_c, 10, 69, 64
23, 32025, Note_on_c, 10, 73, 87
23, 32073, Note_on_c, 10, 71, 87
23, 32078, Note_off_c, 10, 73, 64
23, 32119, Note_off_c, 10, 71, 64
23, 32137, Note_on_c, 10, 74, 95
23, 32200, Note_off_c, 10, 74, 64
23, 32260, Note_on_c, 10, 73, 87
23, 32304, Note_off_c, 10, 73, 64
23, 32365, Note_on_c, 10, 73, 102
23, 32391, Note_off_c, 10, 73, 64
23, 32392, Note_on_c, 10, 71, 85
23, 32415, Note_on_c, 10, 73, 64
23, 32418, Note_off_c, 10, 71, 64
23, 32442, Note_on_c, 10, 71, 87
23, 32449, Note_off_c, 10, 73, 64
23, 32476, Note_off_c, 10, 71, 64
23, 32493, Note_on_c, 10, 73, 102
23, 32639, Note_off_c, 10, 73, 64
23, 32743, Note_on_c, 10, 76, 87
23, 32782, Note_off_c, 10, 76, 64
23, 32800, Note_on_c, 10, 74, 87
23, 32842, Note_off_c, 10, 74, 64
23, 32860, Note_on_c, 10, 73, 89
23, 32920, Note_off_c, 10, 73, 64
23, 32978, Note_on_c, 10, 76, 85
23, 33025, Note_off_c, 10, 76, 64
23, 33101, Note_on_c, 10, 76, 102
23, 33120, Note_on_c, 10, 74, 82
23, 33127, Note_off_c, 10, 76, 64
23, 33147, Note_on_c, 10, 76, 68
23, 33151, Note_off_c, 10, 74, 64
23, 33176, Note_on_c, 10, 74, 74
23, 33182, Note_off_c, 10, 76, 64
23, 33210, Note_on_c, 10, 73, 78
23, 33211, Note_off_c, 10, 74, 64
23, 33358, Note_off_c, 10, 73, 64
23, 33461, Note_on_c, 10, 74, 87
23, 33504, Note_off_c, 10, 74, 64
23, 33509, Note_on_c, 10, 73, 80
23, 33560, Note_off_c, 10, 73, 64
23, 33571, Note_on_c, 10, 76, 91
23, 33617, Note_off_c, 10, 76, 64
23, 33695, Note_on_c, 10, 74, 89
23, 33742, Note_off_c, 10, 74, 64
23, 33823, Note_on_c, 10, 73, 100
23, 33884, Note_off_c, 10, 73, 64
23, 34073, Note_on_c, 10, 74, 82
23, 34128, Note_off_c, 10, 74, 64
23, 34315, Note_on_c, 10, 69, 72
23, 34374, Note_off_c, 10, 69, 64
23, 34550, Note_on_c, 10, 70, 87
23, 34610, Note_off_c, 10, 70, 64
23, 34790, Note_on_c, 10, 67, 72
23, 34848, Note_off_c, 10, 67, 64
23, 35036, Note_on_c, 10, 69, 85
23, 35097, Note_off_c, 10, 69, 64
23, 35267, Note_on_c, 10, 74, 91
23, 35327, Note_off_c, 10, 74, 64
23, 35509, Note_on_c, 10, 74, 85
23, 35575, Note_off_c, 10, 74, 64
23, 35751, Note_on_c, 10, 74, 85
23, 35808, Note_off_c, 10, 74, 64
23, 35985, Note_on_c, 10, 71, 87
23, 36021, Note_off_c, 10, 71, 64
23, 36114, Note_on_c, 10, 73, 102
23, 36257, Note_off_c, 10, 73, 64
23, 36352, Note_on_c, 10, 73, 72
23, 36420, Note_off_c, 10, 73, 64
23, 36465, Note_on_c, 10, 74, 82
23, 36528, Note_off_c, 10, 74, 64
23, 36578, Note_on_c, 10, 76, 78
23, 36636, Note_off_c, 10, 76, 64
23, 36703, Note_on_c, 10, 74, 82
23, 36760, Note_off_c, 10, 74, 64
23, 36821, Note_on_c, 10, 74, 80
23, 36871, Note_off_c, 10, 74, 64
23, 36937, Note_on_c, 10, 76, 78
23, 36997, Note_off_c, 10, 76, 64
23, 37056, Note_on_c, 10, 78, 70
23, 37106, Note_off_c, 10, 78, 64
23, 37183, Note_on_c, 10, 79, 80
23, 37242, Note_off_c, 10, 79, 64
23, 37302, Note_on_c, 10, 76, 76
23, 37338, Note_off_c, 10, 76, 64
23, 37428, Note_on_c, 10, 74, 85
23, 37502, Note_off_c, 10, 74, 64
23, 37548, Note_on_c, 10, 71, 82
23, 37600, Note_on_c, 10, 73, 76
23, 37606, Note_off_c, 10, 71, 64
23, 37640, Note_off_c, 10, 73, 64
23, 37658, Note_on_c, 10, 74, 87
23, 37720, Note_off_c, 10, 74, 64
23, 37778, Note_on_c, 10, 74, 85
23, 37834, Note_off_c, 10, 74, 64
23, 37900, Note_on_c, 10, 74, 89
23, 37958, Note_off_c, 10, 74, 64
23, 38022, Note_on_c, 10, 74, 82
23, 38080, Note_off_c, 10, 74, 64
23, 38147, Note_on_c, 10, 74, 93
23, 38198, Note_off_c, 10, 74, 64
23, 38261, Note_on_c, 10, 73, 85
23, 38387, Note_off_c, 10, 73, 64
23, 38500, Note_on_c, 10, 76, 87
23, 38552, Note_off_c, 10, 76, 64
23, 38619, Note_on_c, 10, 78, 82
23, 38675, Note_off_c, 10, 78, 64
23, 38743, Note_on_c, 10, 79, 89
23, 38791, Note_off_c, 10, 79, 64
23, 38869, Note_on_c, 10, 76, 98
23, 39120, Note_off_c, 10, 76, 64
23, 39223, Note_on_c, 10, 76, 95
23, 39274, Note_off_c, 10, 76, 64
23, 39337, Note_on_c, 10, 78, 105
23, 39350, Note_on_c, 10, 76, 78
23, 39357, Note_off_c, 10, 78, 64
23, 39380, Note_off_c, 10, 76, 64
23, 39382, Note_on_c, 10, 78, 78
23, 39409, Note_on_c, 10, 76, 82
23, 39420, Note_off_c, 10, 78, 64
23, 39440, Note_on_c, 10, 74, 64
23, 39449, Note_off_c, 10, 76, 64
23, 39502, Note_off_c, 10, 74, 64
23, 39505, Note_on_c, 10, 73, 80
23, 39544, Note_off_c, 10, 73, 64
23, 39578, Note_on_c, 10, 74, 102
23, 39665, Note_off_c, 10, 74, 64
23, 39945, Note_on_c, 10, 74, 87
23, 40003, Note_off_c, 10, 74, 64
23, 40060, Note_on_c, 10, 73, 74
23, 40123, Note_off_c, 10, 73, 64
23, 40175, Note_on_c, 10, 74, 87
23, 40226, Note_off_c, 10, 74, 64
23, 40296, Note_on_c, 10, 76, 82
23, 40610, Note_off_c, 10, 76, 64
23, 40654, Note_on_c, 10, 73, 78
23, 40716, Note_off_c, 10, 73, 64
23, 40779, Note_on_c, 10, 74, 82
23, 40834, Note_off_c, 10, 74, 64
23, 40897, Note_on_c, 10, 76, 80
23, 40964, Note_off_c, 10, 76, 64
23, 41023, Note_on_c, 10, 74, 82
23, 41070, Note_off_c, 10, 74, 64
23, 41144, Note_on_c, 10, 69, 82
23, 41199, Note_off_c, 10, 69, 64
23, 41263, Note_on_c, 10, 71, 100
23, 41355, Note_off_c, 10, 71, 64
23, 41385, Note_on_c, 10, 69, 78
23, 41426, Note_off_c, 10, 69, 64
23, 41442, Note_on_c, 10, 67, 78
23, 41485, Note_off_c, 10, 67, 64
23, 41502, Note_on_c, 10, 66, 74
23, 41560, Note_off_c, 10, 66, 64
23, 41625, Note_on_c, 10, 71, 85
23, 41664, Note_off_c, 10, 71, 64
23, 41744, Note_on_c, 10, 76, 87
23, 41835, Note_off_c, 10, 76, 64
23, 41867, Note_on_c, 10, 74, 63
23, 41916, Note_on_c, 10, 73, 98
23, 41917, Note_off_c, 10, 74, 64
23, 41959, Note_off_c, 10, 73, 64
23, 41984, Note_on_c, 10, 74, 95
23, 42041, Note_off_c, 10, 74, 64
23, 42102, Note_on_c, 10, 62, 80
23, 42154, Note_off_c, 10, 62, 64
23, 42225, Note_on_c, 10, 69, 87
23, 42263, Note_off_c, 10, 69, 64
23, 42336, Note_on_c, 10, 69, 82
23, 42389, Note_off_c, 10, 69, 64
23, 42451, Note_on_c, 10, 74, 80
23, 42509, Note_off_c, 10, 74, 64
23, 42572, Note_on_c, 10, 73, 64
23, 42621, Note_off_c, 10, 73, 64
23, 42683, Note_on_c, 10, 74, 89
23, 42750, Note_off_c, 10, 74, 64
23, 42806, Note_on_c, 10, 71, 82
23, 42860, Note_off_c, 10, 71, 64
23, 42929, Note_on_c, 10, 69, 82
23, 42986, Note_off_c, 10, 69, 64
23, 43058, Note_on_c, 10, 69, 78
23, 43112, Note_off_c, 10, 69, 64
23, 43193, Note_on_c, 10, 69, 102
23, 43438, Note_off_c, 10, 69, 64
23, 55066, Note_on_c, 10, 62, 85
23, 55116, Note_off_c, 10, 62, 64
23, 55122, Note_on_c, 10, 61, 82
23, 55171, Note_off_c, 10, 61, 64
23, 55185, Note_on_c, 10, 62, 76
23, 55253, Note_off_c, 10, 62, 64
23, 55312, Note_on_c, 10, 62, 82
23, 55363, Note_off_c, 10, 62, 64
23, 55432, Note_on_c, 10, 62, 95
23, 55518, Note_off_c, 10, 62, 64
23, 55556, Note_on_c, 10, 69, 78
23, 55607, Note_on_c, 10, 67, 87
23, 55615, Note_off_c, 10, 69, 64
23, 55644, Note_off_c, 10, 67, 64
23, 55668, Note_on_c, 10, 69, 95
23, 55726, Note_off_c, 10, 69, 64
23, 55786, Note_on_c, 10, 62, 85
23, 55828, Note_off_c, 10, 62, 64
23, 55836, Note_on_c, 10, 64, 85
23, 55875, Note_off_c, 10, 64, 64
23, 55894, Note_on_c, 10, 66, 91
23, 55946, Note_off_c, 10, 66, 64
23, 55949, Note_on_c, 10, 67, 85
23, 55995, Note_off_c, 10, 67, 64
23, 56016, Note_on_c, 10, 69, 91
23, 56063, Note_off_c, 10, 69, 64
23, 56135, Note_on_c, 10, 71, 107
23, 56156, Note_on_c, 10, 69, 85
23, 56162, Note_off_c, 10, 71, 64
23, 56187, Note_on_c, 10, 71, 78
23, 56189, Note_off_c, 10, 69, 64
23, 56214, Note_on_c, 10, 69, 82
23, 56222, Note_off_c, 10, 71, 64
23, 56249, Note_off_c, 10, 69, 64
23, 56253, Note_on_c, 10, 67, 85
23, 56389, Note_off_c, 10, 67, 64
23, 56501, Note_on_c, 10, 67, 87
23, 56551, Note_on_c, 10, 66, 82
23, 56559, Note_off_c, 10, 67, 64
23, 56600, Note_off_c, 10, 66, 64
23, 56616, Note_on_c, 10, 67, 91
23, 56667, Note_off_c, 10, 67, 64
23, 56739, Note_on_c, 10, 69, 78
23, 56780, Note_off_c, 10, 69, 64
23, 56860, Note_on_c, 10, 71, 87
23, 56940, Note_off_c, 10, 71, 64
23, 56978, Note_on_c, 10, 74, 80
23, 57020, Note_off_c, 10, 74, 64
23, 57034, Note_on_c, 10, 73, 93
23, 57067, Note_off_c, 10, 73, 64
23, 57093, Note_on_c, 10, 71, 100
23, 57156, Note_off_c, 10, 71, 64
23, 57215, Note_on_c, 10, 64, 82
23, 57261, Note_off_c, 10, 64, 64
23, 57267, Note_on_c, 10, 66, 85
23, 57326, Note_off_c, 10, 66, 64
23, 57332, Note_on_c, 10, 68, 87
23, 57374, Note_off_c, 10, 68, 64
23, 57389, Note_on_c, 10, 69, 82
23, 57441, Note_off_c, 10, 69, 64
23, 57450, Note_on_c, 10, 71, 87
23, 57499, Note_off_c, 10, 71, 64
23, 57509, Note_on_c, 10, 73, 85
23, 57541, Note_off_c, 10, 73, 64
23, 57580, Note_on_c, 10, 73, 95
23, 57606, Note_off_c, 10, 73, 64
23, 57609, Note_on_c, 10, 71, 82
23, 57634, Note_on_c, 10, 73, 85
23, 57637, Note_off_c, 10, 71, 64
23, 57661, Note_on_c, 10, 71, 85
23, 57673, Note_off_c, 10, 73, 64
23, 57695, Note_off_c, 10, 71, 64
23, 57695, Note_on_c, 10, 69, 91
23, 57841, Note_off_c, 10, 69, 64
23, 57945, Note_on_c, 10, 73, 87
23, 57993, Note_on_c, 10, 71, 87
23, 57998, Note_off_c, 10, 73, 64
23, 58039, Note_off_c, 10, 71, 64
23, 58057, Note_on_c, 10, 74, 95
23, 58120, Note_off_c, 10, 74, 64
23, 58180, Note_on_c, 10, 73, 87
23, 58224, Note_off_c, 10, 73, 64
23, 58285, Note_on_c, 10, 73, 102
23, 58311, Note_off_c, 10, 73, 64
23, 58312, Note_on_c, 10, 71, 85
23, 58335, Note_on_c, 10, 73, 64
23, 58338, Note_off_c, 10, 71, 64
23, 58362, Note_on_c, 10, 71, 87
23, 58369, Note_off_c, 10, 73, 64
23, 58396, Note_off_c, 10, 71, 64
23, 58413, Note_on_c, 10, 73, 102
23, 58559, Note_off_c, 10, 73, 64
23, 58663, Note_on_c, 10, 76, 87
23, 58702, Note_off_c, 10, 76, 64
23, 58720, Note_on_c, 10, 74, 87
23, 58762, Note_off_c, 10, 74, 64
23, 58780, Note_on_c, 10, 73, 89
23, 58840, Note_off_c, 10, 73, 64
23, 58898, Note_on_c, 10, 76, 85
23, 58945, Note_off_c, 10, 76, 64
23, 59021, Note_on_c, 10, 76, 102
23, 59040, Note_on_c, 10, 74, 82
23, 59047, Note_off_c, 10, 76, 64
23, 59067, Note_on_c, 10, 76, 68
23, 59071, Note_off_c, 10, 74, 64
23, 59096, Note_on_c, 10, 74, 74
23, 59102, Note_off_c, 10, 76, 64
23, 59130, Note_on_c, 10, 73, 78
23, 59131, Note_off_c, 10, 74, 64
23, 59278, Note_off_c, 10, 73, 64
23, 59381, Note_on_c, 10, 74, 87
23, 59424, Note_off_c, 10, 74, 64
23, 59429, Note_on_c, 10, 73, 80
23, 59480, Note_off_c, 10, 73, 64
23, 59491, Note_on_c, 10, 76, 91
23, 59537, Note_off_c, 10, 76, 64
23, 59615, Note_on_c, 10, 74, 89
23, 59662, Note_off_c, 10, 74, 64
23, 59743, Note_on_c, 10, 73, 100
23, 59804, Note_off_c, 10, 73, 64
23, 59993, Note_on_c, 10, 74, 82
23, 60048, Note_off_c, 10, 74, 64
23, 60235, Note_on_c, 10, 69, 72
23, 60294, Note_off_c, 10, 69, 64
23, 60470, Note_on_c, 10, 70, 87
23, 60530, Note_off_c, 10, 70, 64
23, 60710, Note_on_c, 10, 67, 72
23, 60768, Note_off_c, 10, 67, 64
23, 60956, Note_on_c, 10, 69, 85
23, 61017, Note_off_c, 10, 69, 64
23, 61187, Note_on_c, 10, 74, 91
23, 61247, Note_off_c, 10, 74, 64
23, 61429, Note_on_c, 10, 74, 85
23, 61495, Note_off_c, 10, 74, 64
23, 61671, Note_on_c, 10, 74, 85
23, 61728, Note_off_c, 10, 74, 64
23, 61905, Note_on_c, 10, 71, 87
23, 61941, Note_off_c, 10, 71, 64
23, 62034, Note_on_c, 10, 73, 102
23, 62177, Note_off_c, 10, 73, 64
23, 62272, Note_on_c, 10, 73, 72
23, 62340, Note_off_c, 10, 73, 64
23, 62385, Note_on_c, 10, 74, 82
23, 62448, Note_off_c, 10, 74, 64
23, 62498, Note_on_c, 10, 76, 78
23, 62556, Note_off_c, 10, 76, 64
23, 62623, Note_on_c, 10, 74, 82
23, 62680, Note_off_c, 10, 74, 64
23, 62741, Note_on_c, 10, 74, 80
23, 62791, Note_off_c, 10, 74, 64
23, 62857, Note_on_c, 10, 76, 78
23, 62917, Note_off_c, 10, 76, 64
23, 62976, Note_on_c, 10, 78, 70
23, 63026, Note_off_c, 10, 78, 64
23, 63103, Note_on_c, 10, 79, 80
23, 63162, Note_off_c, 10, 79, 64
23, 63222, Note_on_c, 10, 76, 76
23, 63258, Note_off_c, 10, 76, 64
23, 63348, Note_on_c, 10, 74, 85
23, 63422, Note_off_c, 10, 74, 64
23, 63468, Note_on_c, 10, 71, 82
23, 63520, Note_on_c, 10, 73, 76
23, 63526, Note_off_c, 10, 71, 64
23, 63560, Note_off_c, 10, 73, 64
23, 63578, Note_on_c, 10, 74, 87
23, 63640, Note_off_c, 10, 74, 64
23, 63698, Note_on_c, 10, 74, 85
23, 63754, Note_off_c, 10, 74, 64
23, 63820, Note_on_c, 10, 74, 89
23, 63878, Note_off_c, 10, 74, 64
23, 63942, Note_on_c, 10, 74, 82
23, 64000, Note_off_c, 10, 74, 64
23, 64067, Note_on_c, 10, 74, 93
23, 64118, Note_off_c, 10, 74, 64
23, 64181, Note_on_c, 10, 73, 85
23, 64307, Note_off_c, 10, 73, 64
23, 64420, Note_on_c, 10, 76, 87
23, 64472, Note_off_c, 10, 76, 64
23, 64539, Note_on_c, 10, 78, 82
23, 64595, Note_off_c, 10, 78, 64
23, 64663, Note_on_c, 10, 79, 89
23, 64711, Note_off_c, 10, 79, 64
23, 64789, Note_on_c, 10, 76, 98
23, 65040, Note_off_c, 10, 76, 64
23, 65143, Note_on_c, 10, 76, 95
23, 65194, Note_off_c, 10, 76, 64
23, 65257, Note_on_c, 10, 78, 105
23, 65270, Note_on_c, 10, 76, 78
23, 65277, Note_off_c, 10, 78, 64
23, 65300, Note_off_c, 10, 76, 64
23, 65302, Note_on_c, 10, 78, 78
23, 65329, Note_on_c, 10, 76, 82
23, 65340, Note_off_c, 10, 78, 64
23, 65360, Note_on_c, 10, 74, 64
23, 65369, Note_off_c, 10, 76, 64
23, 65422, Note_off_c, 10, 74, 64
23, 65425, Note_on_c, 10, 73, 80
23, 65464, Note_off_c, 10, 73, 64
23, 65498, Note_on_c, 10, 74, 102
23, 65585, Note_off_c, 10, 74, 64
23, 65865, Note_on_c, 10, 74, 87
23, 65923, Note_off_c, 10, 74, 64
23, 65980, Note_on_c, 10, 73, 74
23, 66043, Note_off_c, 10, 73, 64
23, 66095, Note_on_c, 10, 74, 87
23, 66146, Note_off_c, 10, 74, 64
23, 66216, Note_on_c, 10, 76, 82
23, 66530, Note_off_c, 10, 76, 64
23, 66574, Note_on_c, 10, 73, 78
23, 66636, Note_off_c, 10, 73, 64
23, 66699, Note_on_c, 10, 74, 82
23, 66754, Note_off_c, 10, 74, 64
23, 66817, Note_on_c, 10, 76, 80
23, 66884, Note_off_c, 10, 76, 64
23, 66943, Note_on_c, 10, 74, 82
23, 66990, Note_off_c, 10, 74, 64
23, 67064, Note_on_c, 10, 69, 82
23, 67119, Note_off_c, 10, 69, 64
23, 67183, Note_on_c, 10, 71, 100
23, 67275, Note_off_c, 10, 71, 64
23, 67305, Note_on_c, 10, 69, 78
23, 67346, Note_off_c, 10, 69, 64
23, 67362, Note_on_c, 10, 67, 78
23, 67405, Note_off_c, 10, 67, 64
23, 67422, Note_on_c, 10, 66, 74
23, 67480, Note_off_c, 10, 66, 64
23, 67545, Note_on_c, 10, 71, 85
23, 67584, Note_off_c, 10, 71, 64
23, 67664, Note_on_c, 10, 76, 87
23, 67755, Note_off_c, 10, 76, 64
23, 67787, Note_on_c, 10, 74, 63
23, 67836, Note_on_c, 10, 73, 98
23, 67837, Note_off_c, 10, 74, 64
23, 67879, Note_off_c, 10, 73, 64
23, 67904, Note_on_c, 10, 74, 95
23, 67961, Note_off_c, 10, 74, 64
23, 68022, Note_on_c, 10, 62, 80
23, 68074, Note_off_c, 10, 62, 64
23, 68145, Note_on_c, 10, 69, 87
23, 68183, Note_off_c, 10, 69, 64
23, 68256, Note_on_c, 10, 69, 82
23, 68309, Note_off_c, 10, 69, 64
23, 68371, Note_on_c, 10, 74, 80
23, 68429, Note_off_c, 10, 74, 64
23, 68492, Note_on_c, 10, 73, 64
23, 68541, Note_off_c, 10, 73, 64
23, 68603, Note_on_c, 10, 74, 89
23, 68670, Note_off_c, 10, 74, 64
23, 68726, Note_on_c, 10, 71, 82
23, 68780, Note_off_c, 10, 71, 64
23, 68849, Note_on_c, 10, 69, 82
23, 68906, Note_off_c, 10, 69, 64
23, 68978, Note_on_c, 10, 69, 78
23, 69032, Note_off_c, 10, 69, 64
23, 69113, Note_on_c, 10, 69, 102
23, 69358, Note_off_c, 10, 69, 64
23, 69358, End_track
24, 0, Start_track
24, 0, Title_t, "Viola"
24, 0, Program_c, 11, 41
24, 0, Control_c, 11, 7, 100
24, 9004, Note_on_c, 11, 69, 82
24, 9063, Note_off_c, 11, 69, 64
24, 9110, Note_on_c, 11, 69, 80
24, 9171, Note_off_c, 11, 69, 64
24, 9232, Note_on_c, 11, 71, 78
24, 9291, Note_off_c, 11, 71, 64
24, 9355, Note_on_c, 11, 69, 76
24, 9419, Note_off_c, 11, 69, 64
24, 9473, Note_on_c, 11, 67, 74
24, 9532, Note_off_c, 11, 67, 64
24, 9591, Note_on_c, 11, 66, 80
24, 9653, Note_off_c, 11, 66, 64
24, 9705, Note_on_c, 11, 69, 80
24, 9764, Note_off_c, 11, 69, 64
24, 9823, Note_on_c, 11, 69, 87
24, 9880, Note_off_c, 11, 69, 64
24, 9942, Note_on_c, 11, 67, 82
24, 10002, Note_off_c, 11, 67, 64
24, 10073, Note_on_c, 11, 66, 82
24, 10104, Note_on_c, 11, 64, 70
24, 10105, Note_off_c, 11, 66, 64
24, 10129, Note_on_c, 11, 66, 80
24, 10130, Note_off_c, 11, 64, 64
24, 10155, Note_on_c, 11, 64, 76
24, 10162, Note_off_c, 11, 66, 64
24, 10181, Note_on_c, 11, 62, 85
24, 10184, Note_off_c, 11, 64, 64
24, 10310, Note_off_c, 11, 62, 64
24, 10428, Note_on_c, 11, 62, 85
24, 10475, Note_off_c, 11, 62, 64
24, 10544, Note_on_c, 11, 61, 78
24, 10600, Note_off_c, 11, 61, 64
24, 10670, Note_on_c, 11, 69, 85
24, 10723, Note_off_c, 11, 69, 64
24, 10788, Note_on_c, 11, 66, 76
24, 10848, Note_off_c, 11, 66, 64
24, 10908, Note_on_c, 11, 64, 66
24, 10963, Note_off_c, 11, 64, 64
24, 11028, Note_on_c, 11, 64, 68
24, 11080, Note_off_c, 11, 64, 64
24, 11152, Note_on_c, 11, 64, 70
24, 11206, Note_off_c, 11, 64, 64
24, 11267, Note_on_c, 11, 64, 68
24, 11323, Note_off_c, 11, 64, 64
24, 11390, Note_on_c, 11, 64, 72
24, 11441, Note_off_c, 11, 64, 64
24, 11508, Note_on_c, 11, 66, 78
24, 11574, Note_off_c, 11, 66, 64
24, 11627, Note_on_c, 11, 64, 68
24, 11682, Note_off_c, 11, 64, 64
24, 11748, Note_on_c, 11, 69, 80
24, 11801, Note_off_c, 11, 69, 64
24, 11861, Note_on_c, 11, 66, 78
24, 11921, Note_off_c, 11, 66, 64
24, 11974, Note_on_c, 11, 64, 80
24, 12021, Note_off_c, 11, 64, 64
24, 12096, Note_on_c, 11, 57, 82
24, 12141, Note_off_c, 11, 57, 64
24, 12230, Note_on_c, 11, 64, 87
24, 12488, Note_off_c, 11, 64, 64
24, 12594, Note_on_c, 11, 64, 78
24, 12642, Note_off_c, 11, 64, 64
24, 12705, Note_on_c, 11, 64, 72
24, 12754, Note_off_c, 11, 64, 64
24, 12826, Note_on_c, 11, 64, 74
24, 12876, Note_off_c, 11, 64, 64
24, 12950, Note_on_c, 11, 64, 85
24, 13192, Note_off_c, 11, 64, 64
24, 13296, Note_on_c, 11, 64, 74
24, 13351, Note_off_c, 11, 64, 64
24, 13417, Note_on_c, 11, 66, 82
24, 13475, Note_off_c, 11, 66, 64
24, 13536, Note_on_c, 11, 59, 78
24, 13595, Note_off_c, 11, 59, 64
24, 13662, Note_on_c, 11, 64, 89
24, 13758, Note_off_c, 11, 64, 64
24, 14023, Note_on_c, 11, 62, 78
24, 14075, Note_off_c, 11, 62, 64
24, 14134, Note_on_c, 11, 62, 63
24, 14198, Note_off_c, 11, 62, 64
24, 14264, Note_on_c, 11, 64, 82
24, 14328, Note_off_c, 11, 64, 64
24, 14388, Note_on_c, 11, 66, 87
24, 14473, Note_off_c, 11, 66, 64
24, 14618, Note_on_c, 11, 64, 74
24, 14699, Note_off_c, 11, 64, 64
24, 14734, Note_on_c, 11, 68, 59
24, 14807, Note_off_c, 11, 68, 64
24, 14852, Note_on_c, 11, 69, 87
24, 14910, Note_off_c, 11, 69, 64
24, 14978, Note_on_c, 11, 71, 82
24, 15037, Note_off_c, 11, 71, 64
24, 15100, Note_on_c, 11, 64, 82
24, 15169, Note_off_c, 11, 64, 64
24, 15215, Note_on_c, 11, 61, 82
24, 15274, Note_off_c, 11, 61, 64
24, 15333, Note_on_c, 11, 59, 64
24, 15391, Note_off_c, 11, 59, 64
24, 15452, Note_on_c, 11, 59, 76
24, 15510, Note_off_c, 11, 59, 64
24, 15572, Note_on_c, 11, 66, 82
24, 15639, Note_off_c, 11, 66, 64
24, 15694, Note_on_c, 11, 66, 66
24, 15759, Note_off_c, 11, 66, 64
24, 15817, Note_on_c, 11, 64, 60
24, 15879, Note_off_c, 11, 64, 64
24, 15936, Note_on_c, 11, 64, 66
24, 15998, Note_off_c, 11, 64, 64
24, 16051, Note_on_c, 11, 64, 66
24, 16120, Note_off_c, 11, 64, 64
24, 16182, Note_on_c, 11, 64, 72
24, 16249, Note_off_c, 11, 64, 64
24, 16299, Note_on_c, 11, 64, 70
24, 16366, Note_off_c, 11, 64, 64
24, 16423, Note_on_c, 11, 64, 78
24, 16481, Note_off_c, 11, 64, 64
24, 16542, Note_on_c, 11, 62, 72
24, 16603, Note_off_c, 11, 62, 64
24, 16653, Note_on_c, 11, 59, 68
24, 16707, Note_off_c, 11, 59, 64
24, 16774, Note_on_c, 11, 57, 72
24, 16835, Note_off_c, 11, 57, 64
24, 16895, Note_on_c, 11, 62, 80
24, 16950, Note_off_c, 11, 62, 64
24, 17018, Note_on_c, 11, 62, 80
24, 17071, Note_off_c, 11, 62, 64
24, 17140, Note_on_c, 11, 59, 82
24, 17188, Note_off_c, 11, 59, 64
24, 17266, Note_on_c, 11, 61, 78
24, 17539, Note_off_c, 11, 61, 64
24, 29146, Note_on_c, 11, 59, 80
24, 29209, Note_off_c, 11, 59, 64
24, 29275, Note_on_c, 11, 57, 68
24, 29341, Note_off_c, 11, 57, 64
24, 29391, Note_on_c, 11, 55, 68
24, 29447, Note_off_c, 11, 55, 64
24, 29515, Note_on_c, 11, 54, 66
24, 29574, Note_off_c, 11, 54, 64
24, 29632, Note_on_c, 11, 54, 60
24, 29696, Note_off_c, 11, 54, 64
24, 29752, Note_on_c, 11, 54, 66
24, 29810, Note_off_c, 11, 54, 64
24, 29874, Note_on_c, 11, 54, 70
24, 29925, Note_off_c, 11, 54, 64
24, 29985, Note_on_c, 11, 57, 82
24, 30060, Note_off_c, 11, 57, 64
24, 30100, Note_on_c, 11, 54, 68
24, 30151, Note_off_c, 11, 54, 64
24, 30218, Note_on_c, 11, 50, 68
24, 30271, Note_off_c, 11, 50, 64
24, 30341, Note_on_c, 11, 55, 74
24, 30382, Note_off_c, 11, 55, 64
24, 30460, Note_on_c, 11, 55, 66
24, 30513, Note_off_c, 11, 55, 64
24, 30581, Note_on_c, 11, 55, 72
24, 30631, Note_off_c, 11, 55, 64
24, 30702, Note_on_c, 11, 55, 70
24, 30762, Note_off_c, 11, 55, 64
24, 30829, Note_on_c, 11, 55, 66
24, 30882, Note_off_c, 11, 55, 64
24, 30943, Note_on_c, 11, 56, 63
24, 31008, Note_off_c, 11, 56, 64
24, 31066, Note_on_c, 11, 56, 60
24, 31125, Note_off_c, 11, 56, 64
24, 31188, Note_on_c, 11, 56, 63
24, 31243, Note_off_c, 11, 56, 64
24, 31299, Note_on_c, 11, 56, 64
24, 31359, Note_off_c, 11, 56, 64
24, 31419, Note_on_c, 11, 59, 80
24, 31474, Note_off_c, 11, 59, 64
24, 31529, Note_on_c, 11, 56, 64
24, 31591, Note_off_c, 11, 56, 64
24, 31659, Note_on_c, 11, 64, 82
24, 31699, Note_off_c, 11, 64, 64
24, 31788, Note_on_c, 11, 64, 91
24, 31923, Note_off_c, 11, 64, 64
24, 32026, Note_on_c, 11, 64, 76
24, 32075, Note_off_c, 11, 64, 64
24, 32080, Note_on_c, 11, 62, 80
24, 32126, Note_off_c, 11, 62, 64
24, 32141, Note_on_c, 11, 66, 82
24, 32192, Note_off_c, 11, 66, 64
24, 32268, Note_on_c, 11, 64, 82
24, 32315, Note_off_c, 11, 64, 64
24, 32386, Note_on_c, 11, 62, 80
24, 32429, Note_off_c, 11, 62, 64
24, 32505, Note_on_c, 11, 64, 100
24, 32653, Note_off_c, 11, 64, 64
24, 32747, Note_on_c, 11, 73, 85
24, 32799, Note_off_c, 11, 73, 64
24, 32862, Note_on_c, 11, 69, 82
24, 32906, Note_off_c, 11, 69, 64
24, 32976, Note_on_c, 11, 73, 82
24, 33027, Note_off_c, 11, 73, 64
24, 33096, Note_on_c, 11, 69, 80
24, 33144, Note_off_c, 11, 69, 64
24, 33228, Note_on_c, 11, 64, 93
24, 33373, Note_off_c, 11, 64, 64
24, 33460, Note_on_c, 11, 69, 80
24, 33507, Note_off_c, 11, 69, 64
24, 33516, Note_on_c, 11, 67, 74
24, 33560, Note_off_c, 11, 67, 64
24, 33578, Note_on_c, 11, 70, 85
24, 33644, Note_off_c, 11, 70, 64
24, 33702, Note_on_c, 11, 69, 82
24, 33752, Note_off_c, 11, 69, 64
24, 33823, Note_on_c, 11, 67, 85
24, 33889, Note_off_c, 11, 67, 64
24, 34069, Note_on_c, 11, 69, 82
24, 34135, Note_off_c, 11, 69, 64
24, 34315, Note_on_c, 11, 65, 87
24, 34375, Note_off_c, 11, 65, 64
24, 34554, Note_on_c, 11, 67, 85
24, 34613, Note_off_c, 11, 67, 64
24, 34795, Note_on_c, 11, 64, 82
24, 34856, Note_off_c, 11, 64, 64
24, 35040, Note_on_c, 11, 65, 63
24, 35103, Note_off_c, 11, 65, 64
24, 35276, Note_on_c, 11, 65, 66
24, 35333, Note_off_c, 11, 65, 64
24, 35517, Note_on_c, 11, 65, 74
24, 35585, Note_off_c, 11, 65, 64
24, 35764, Note_on_c, 11, 65, 76
24, 35821, Note_off_c, 11, 65, 64
24, 35990, Note_on_c, 11, 65, 95
24, 36030, Note_off_c, 11, 65, 64
24, 36114, Note_on_c, 11, 64, 100
24, 36265, Note_off_c, 11, 64, 64
24, 36357, Note_on_c, 11, 64, 76
24, 36411, Note_off_c, 11, 64, 64
24, 36471, Note_on_c, 11, 62, 82
24, 36526, Note_off_c, 11, 62, 64
24, 36586, Note_on_c, 11, 69, 82
24, 36636, Note_off_c, 11, 69, 64
24, 36704, Note_on_c, 11, 69, 85
24, 36771, Note_off_c, 11, 69, 64
24, 36827, Note_on_c, 11, 69, 82
24, 36887, Note_off_c, 11, 69, 64
24, 36943, Note_on_c, 11, 69, 76
24, 37000, Note_off_c, 11, 69, 64
24, 37057, Note_on_c, 11, 69, 76
24, 37117, Note_off_c, 11, 69, 64
24, 37177, Note_on_c, 11, 69, 82
24, 37237, Note_off_c, 11, 69, 64
24, 37294, Note_on_c, 11, 67, 68
24, 37340, Note_off_c, 11, 67, 64
24, 37422, Note_on_c, 11, 66, 89
24, 37518, Note_off_c, 11, 66, 64
24, 37543, Note_on_c, 11, 68, 63
24, 37593, Note_on_c, 11, 69, 80
24, 37597, Note_off_c, 11, 68, 64
24, 37638, Note_off_c, 11, 69, 64
24, 37660, Note_on_c, 11, 71, 85
24, 37715, Note_off_c, 11, 71, 64
24, 37783, Note_on_c, 11, 71, 82
24, 37835, Note_off_c, 11, 71, 64
24, 37899, Note_on_c, 11, 71, 82
24, 37950, Note_off_c, 11, 71, 64
24, 38019, Note_on_c, 11, 68, 80
24, 38070, Note_off_c, 11, 68, 64
24, 38148, Note_on_c, 11, 64, 87
24, 38400, Note_off_c, 11, 64, 64
24, 38508, Note_on_c, 11, 69, 80
24, 38553, Note_off_c, 11, 69, 64
24, 38627, Note_on_c, 11, 69, 78
24, 38673, Note_off_c, 11, 69, 64
24, 38746, Note_on_c, 11, 69, 76
24, 38793, Note_off_c, 11, 69, 64
24, 38865, Note_on_c, 11, 69, 89
24, 39120, Note_off_c, 11, 69, 64
24, 39223, Note_on_c, 11, 69, 80
24, 39274, Note_off_c, 11, 69, 64
24, 39341, Note_on_c, 11, 71, 85
24, 39395, Note_off_c, 11, 71, 64
24, 39464, Note_on_c, 11, 64, 85
24, 39515, Note_off_c, 11, 64, 64
24, 39583, Note_on_c, 11, 66, 102
24, 39674, Note_off_c, 11, 66, 64
24, 39937, Note_on_c, 11, 62, 82
24, 39994, Note_off_c, 11, 62, 64
24, 40059, Note_on_c, 11, 64, 82
24, 40118, Note_off_c, 11, 64, 64
24, 40174, Note_on_c, 11, 69, 82
24, 40224, Note_off_c, 11, 69, 64
24, 40301, Note_on_c, 11, 71, 87
24, 40368, Note_off_c, 11, 71, 64
24, 40539, Note_on_c, 11, 69, 87
24, 40592, Note_off_c, 11, 69, 64
24, 40654, Note_on_c, 11, 64, 78
24, 40707, Note_off_c, 11, 64, 64
24, 40771, Note_on_c, 11, 71, 85
24, 40835, Note_off_c, 11, 71, 64
24, 40896, Note_on_c, 11, 69, 82
24, 40956, Note_off_c, 11, 69, 64
24, 41026, Note_on_c, 11, 69, 87
24, 41074, Note_off_c, 11, 69, 64
24, 41147, Note_on_c, 11, 69, 85
24, 41194, Note_off_c, 11, 69, 64
24, 41266, Note_on_c, 11, 67, 85
24, 41355, Note_off_c, 11, 67, 64
24, 41382, Note_on_c, 11, 66, 80
24, 41420, Note_off_c, 11, 66, 64
24, 41431, Note_on_c, 11, 64, 85
24, 41475, Note_off_c, 11, 64, 64
24, 41499, Note_on_c, 11, 62, 95
24, 41555, Note_off_c, 11, 62, 64
24, 41624, Note_on_c, 11, 67, 82
24, 41676, Note_off_c, 11, 67, 64
24, 41751, Note_on_c, 11, 64, 85
24, 41810, Note_off_c, 11, 64, 64
24, 41872, Note_on_c, 11, 57, 66
24, 41929, Note_off_c, 11, 57, 64
24, 41992, Note_on_c, 11, 57, 82
24, 42050, Note_off_c, 11, 57, 64
24, 42110, Note_on_c, 11, 69, 85
24, 42172, Note_off_c, 11, 69, 64
24, 42228, Note_on_c, 11, 67, 80
24, 42284, Note_off_c, 11, 67, 64
24, 42342, Note_on_c, 11, 66, 80
24, 42395, Note_off_c, 11, 66, 64
24, 42461, Note_on_c, 11, 66, 82
24, 42515, Note_off_c, 11, 66, 64
24, 42576, Note_on_c, 11, 67, 82
24, 42630, Note_off_c, 11, 67, 64
24, 42695, Note_on_c, 11, 62, 82
24, 42752, Note_off_c, 11, 62, 64
24, 42810, Note_on_c, 11, 67, 82
24, 42865, Note_off_c, 11, 67, 64
24, 42937, Note_on_c, 11, 66, 82
24, 42996, Note_off_c, 11, 66, 64
24, 43061, Note_on_c, 11, 64, 82
24, 43115, Note_off_c, 11, 64, 64
24, 43197, Note_on_c, 11, 66, 95
24, 43455, Note_off_c, 11, 66, 64
24, 55066, Note_on_c, 11, 59, 80
24, 55129, Note_off_c, 11, 59, 64
24, 55195, Note_on_c, 11, 57, 68
24, 55261, Note_off_c, 11, 57, 64
24, 55311, Note_on_c, 11, 55, 68
24, 55367, Note_off_c, 11, 55, 64
24, 55435, Note_on_c, 11, 54, 66
24, 55494, Note_off_c, 11, 54, 64
24, 55552, Note_on_c, 11, 54, 60
24, 55616, Note_off_c, 11, 54, 64
24, 55672, Note_on_c, 11, 54, 66
24, 55730, Note_off_c, 11, 54, 64
24, 55794, Note_on_c, 11, 54, 70
24, 55845, Note_off_c, 11, 54, 64
24, 55905, Note_on_c, 11, 57, 82
24, 55980, Note_off_c, 11, 57, 64
24, 56020, Note_on_c, 11, 54, 68
24, 56071, Note_off_c, 11, 54, 64
24, 56138, Note_on_c, 11, 50, 68
24, 56191, Note_off_c, 11, 50, 64
24, 56261, Note_on_c, 11, 55, 74
24, 56302, Note_off_c, 11, 55, 64
24, 56380, Note_on_c, 11, 55, 66
24, 56433, Note_off_c, 11, 55, 64
24, 56501, Note_on_c, 11, 55, 72
24, 56551, Note_off_c, 11, 55, 64
24, 56622, Note_on_c, 11, 55, 70
24, 56682, Note_off_c, 11, 55, 64
24, 56749, Note_on_c, 11, 55, 66
24, 56802, Note_off_c, 11, 55, 64
24, 56863, Note_on_c, 11, 56, 63
24, 56928, Note_off_c, 11, 56, 64
24, 56986, Note_on_c, 11, 56, 60
24, 57045, Note_off_c, 11, 56, 64
24, 57108, Note_on_c, 11, 56, 63
24, 57163, Note_off_c, 11, 56, 64
24, 57219, Note_on_c, 11, 56, 64
24, 57279, Note_off_c, 11, 56, 64
24, 57339, Note_on_c, 11, 59, 80
24, 57394, Note_off_c, 11, 59, 64
24, 57449, Note_on_c, 11, 56, 64
24, 57511, Note_off_c, 11, 56, 64
24, 57579, Note_on_c, 11, 64, 82
24, 57619, Note_off_c, 11, 64, 64
24, 57708, Note_on_c, 11, 64, 91
24, 57843, Note_off_c, 11, 64, 64
24, 57946, Note_on_c, 11, 64, 76
24, 57995, Note_off_c, 11, 64, 64
24, 58000, Note_on_c, 11, 62, 80
24, 58046, Note_off_c, 11, 62, 64
24, 58061, Note_on_c, 11, 66, 82
24, 58112, Note_off_c, 11, 66, 64
24, 58188, Note_on_c, 11, 64, 82
24, 58235, Note_off_c, 11, 64, 64
24, 58306, Note_on_c, 11, 62, 80
24, 58349, Note_off_c, 11, 62, 64
24, 58425, Note_on_c, 11, 64, 100
24, 58573, Note_off_c, 11, 64, 64
24, 58667, Note_on_c, 11, 73, 85
24, 58719, Note_off_c, 11, 73, 64
24, 58782, Note_on_c, 11, 69, 82
24, 58826, Note_off_c, 11, 69, 64
24, 58896, Note_on_c, 11, 73, 82
24, 58947, Note_off_c, 11, 73, 64
24, 59016, Note_on_c, 11, 69, 80
24, 59064, Note_off_c, 11, 69, 64
24, 59148, Note_on_c, 11, 64, 93
24, 59293, Note_off_c, 11, 64, 64
24, 59380, Note_on_c, 11, 69, 80
24, 59427, Note_off_c, 11, 69, 64
24, 59436, Note_on_c, 11, 67, 74
24, 59480, Note_off_c, 11, 67, 64
24, 59498, Note_on_c, 11, 70, 85
24, 59564, Note_off_c, 11, 70, 64
24, 59622, Note_on_c, 11, 69, 82
24, 59672, Note_off_c, 11, 69, 64
24, 59743, Note_on_c, 11, 67, 85
24, 59809, Note_off_c, 11, 67, 64
24, 59989, Note_on_c, 11, 69, 82
24, 60055, Note_off_c, 11, 69, 64
24, 60235, Note_on_c, 11, 65, 87
24, 60295, Note_off_c, 11, 65, 64
24, 60474, Note_on_c, 11, 67, 85
24, 60533, Note_off_c, 11, 67, 64
24, 60715, Note_on_c, 11, 64, 82
24, 60776, Note_off_c, 11, 64, 64
24, 60960, Note_on_c, 11, 65, 63
24, 61023, Note_off_c, 11, 65, 64
24, 61196, Note_on_c, 11, 65, 66
24, 61253, Note_off_c, 11, 65, 64
24, 61437, Note_on_c, 11, 65, 74
24, 61505, Note_off_c, 11, 65, 64
24, 61684, Note_on_c, 11, 65, 76
24, 61741, Note_off_c, 11, 65, 64
24, 61910, Note_on_c, 11, 65, 95
24, 61950, Note_off_c, 11, 65, 64
24, 62034, Note_on_c, 11, 64, 100
24, 62185, Note_off_c, 11, 64, 64
24, 62277, Note_on_c, 11, 64, 76
24, 62331, Note_off_c, 11, 64, 64
24, 62391, Note_on_c, 11, 62, 82
24, 62446, Note_off_c, 11, 62, 64
24, 62506, Note_on_c, 11, 69, 82
24, 62556, Note_off_c, 11, 69, 64
24, 62624, Note_on_c, 11, 69, 85
24, 62691, Note_off_c, 11, 69, 64
24, 62747, Note_on_c, 11, 69, 82
24, 62807, Note_off_c, 11, 69, 64
24, 62863, Note_on_c, 11, 69, 76
24, 62920, Note_off_c, 11, 69, 64
24, 62977, Note_on_c, 11, 69, 76
24, 63037, Note_off_c, 11, 69, 64
24, 63097, Note_on_c, 11, 69, 82
24, 63157, Note_off_c, 11, 69, 64
24, 63214, Note_on_c, 11, 67, 68
24, 63260, Note_off_c, 11, 67, 64
24, 63342, Note_on_c, 11, 66, 89
24, 63438, Note_off_c, 11, 66, 64
24, 63463, Note_on_c, 11, 68, 63
24, 63513, Note_on_c, 11, 69, 80
24, 63517, Note_off_c, 11, 68, 64
24, 63558, Note_off_c, 11, 69, 64
24, 63580, Note_on_c, 11, 71, 85
24, 63635, Note_off_c, 11, 71, 64
24, 63703, Note_on_c, 11, 71, 82
24, 63755, Note_off_c, 11, 71, 64
24, 63819, Note_on_c, 11, 71, 82
24, 63870, Note_off_c, 11, 71, 64
24, 63939, Note_on_c, 11, 68, 80
24, 63990, Note_off_c, 11, 68, 64
24, 64068, Note_on_c, 11, 64, 87
24, 64320, Note_off_c, 11, 64, 64
24, 64428, Note_on_c, 11, 69, 80
24, 64473, Note_off_c, 11, 69, 64
24, 64547, Note_on_c, 11, 69, 78
24, 64593, Note_off_c, 11, 69, 64
24, 64666, Note_on_c, 11, 69, 76
24, 64713, Note_off_c, 11, 69, 64
24, 64785, Note_on_c, 11, 69, 89
24, 65040, Note_off_c, 11, 69, 64
24, 65143, Note_on_c, 11, 69, 80
24, 65194, Note_off_c, 11, 69, 64
24, 65261, Note_on_c, 11, 71, 85
24, 65315, Note_off_c, 11, 71, 64
24, 65384, Note_on_c, 11, 64, 85
24, 65435, Note_off_c, 11, 64, 64
24, 65503, Note_on_c, 11, 66, 102
24, 65594, Note_off_c, 11, 66, 64
24, 65857, Note_on_c, 11, 62, 82
24, 65914, Note_off_c, 11, 62, 64
24, 65979, Note_on_c, 11, 64, 82
24, 66038, Note_off_c, 11, 64, 64
24, 66094, Note_on_c, 11, 69, 82
24, 66144, Note_off_c, 11, 69, 64
24, 66221, Note_on_c, 11, 71, 87
24, 66288, Note_off_c, 11, 71, 64
24, 66459, Note_on_c, 11, 69, 87
24, 66512, Note_off_c, 11, 69, 64
24, 66574, Note_on_c, 11, 64, 78
24, 66627, Note_off_c, 11, 64, 64
24, 66691, Note_on_c, 11, 71, 85
24, 66755, Note_off_c, 11, 71, 64
24, 66816, Note_on_c, 11, 69, 82
24, 66876, Note_off_c, 11, 69, 64
24, 66946, Note_on_c, 11, 69, 87
24, 66994, Note_off_c, 11, 69, 64
24, 67067, Note_on_c, 11, 69, 85
24, 67114, Note_off_c, 11, 69, 64
24, 67186, Note_on_c, 11, 67, 85
24, 67275, Note_off_c, 11, 67, 64
24, 67302, Note_on_c, 11, 66, 80
24, 67340, Note_off_c, 11, 66, 64
24, 67351, Note_on_c, 11, 64, 85
24, 67395, Note_off_c, 11, 64, 64
24, 67419, Note_on_c, 11, 62, 95
24, 67475, Note_off_c, 11, 62, 64
24, 67544, Note_on_c, 11, 67, 82
24, 67596, Note_off_c, 11, 67, 64
24, 67671, Note_on_c, 11, 64, 85
24, 67730, Note_off_c, 11, 64, 64
24, 67792, Note_on_c, 11, 57, 66
24, 67849, Note_off_c, 11, 57, 64
24, 67912, Note_on_c, 11, 57, 82
24, 67970, Note_off_c, 11, 57, 64
24, 68030, Note_on_c, 11, 69, 85
24, 68092, Note_off_c, 11, 69, 64
24, 68148, Note_on_c, 11, 67, 80
24, 68204, Note_off_c, 11, 67, 64
24, 68262, Note_on_c, 11, 66, 80
24, 68315, Note_off_c, 11, 66, 64
24, 68381, Note_on_c, 11, 66, 82
24, 68435, Note_off_c, 11, 66, 64
24, 68496, Note_on_c, 11, 67, 82
24, 68550, Note_off_c, 11, 67, 64
24, 68615, Note_on_c, 11, 62, 82
24, 68672, Note_off_c, 11, 62, 64
24, 68730, Note_on_c, 11, 67, 82
24, 68785, Note_off_c, 11, 67, 64
24, 68857, Note_on_c, 11, 66, 82
24, 68916, Note_off_c, 11, 66, 64
24, 68981, Note_on_c, 11, 64, 82
24, 69035, Note_off_c, 11, 64, 64
24, 69117, Note_on_c, 11, 66, 95
24, 69375, Note_off_c, 11, 66, 64
24, 69375, End_track
25, 0, Start_track
25, 0, Title_t, "Cello"
25, 0, Program_c, 12, 42
25, 0, Control_c, 12, 7, 100
25, 8999, Note_on_c, 12, 62, 85
25, 9040, Note_off_c, 12, 62, 64
25, 9056, Note_on_c, 12, 61, 100
25, 9100, Note_off_c, 12, 61, 64
25, 9115, Note_on_c, 12, 62, 91
25, 9157, Note_off_c, 12, 62, 64
25, 9231, Note_on_c, 12, 55, 80
25, 9283, Note_off_c, 12, 55, 64
25, 9356, Note_on_c, 12, 57, 85
25, 9411, Note_off_c, 12, 57, 64
25, 9473, Note_on_c, 12, 52, 78
25, 9524, Note_off_c, 12, 52, 64
25, 9593, Note_on_c, 12, 54, 85
25, 9667, Note_off_c, 12, 54, 64
25, 9714, Note_on_c, 12, 50, 72
25, 9757, Note_off_c, 12, 50, 64
25, 9768, Note_on_c, 12, 52, 85
25, 9812, Note_off_c, 12, 52, 64
25, 9830, Note_on_c, 12, 54, 95
25, 9871, Note_off_c, 12, 54, 64
25, 9938, Note_on_c, 12, 55, 64
25, 9994, Note_off_c, 12, 55, 64
25, 10068, Note_on_c, 12, 57, 82
25, 10130, Note_off_c, 12, 57, 64
25, 10186, Note_on_c, 12, 62, 82
25, 10223, Note_off_c, 12, 62, 64
25, 10240, Note_on_c, 12, 61, 102
25, 10276, Note_off_c, 12, 61, 64
25, 10302, Note_on_c, 12, 62, 93
25, 10358, Note_off_c, 12, 62, 64
25, 10427, Note_on_c, 12, 59, 80
25, 10481, Note_off_c, 12, 59, 64
25, 10548, Note_on_c, 12, 61, 63
25, 10604, Note_off_c, 12, 61, 64
25, 10670, Note_on_c, 12, 57, 74
25, 10727, Note_off_c, 12, 57, 64
25, 10791, Note_on_c, 12, 59, 78
25, 10857, Note_off_c, 12, 59, 64
25, 10907, Note_on_c, 12, 56, 63
25, 10962, Note_off_c, 12, 56, 64
25, 11028, Note_on_c, 12, 57, 85
25, 11077, Note_off_c, 12, 57, 64
25, 11151, Note_on_c, 12, 49, 89
25, 11200, Note_off_c, 12, 49, 64
25, 11268, Note_on_c, 12, 47, 76
25, 11322, Note_off_c, 12, 47, 64
25, 11385, Note_on_c, 12, 45, 72
25, 11440, Note_off_c, 12, 45, 64
25, 11513, Note_on_c, 12, 50, 82
25, 11569, Note_off_c, 12, 50, 64
25, 11632, Note_on_c, 12, 52, 76
25, 11683, Note_off_c, 12, 52, 64
25, 11751, Note_on_c, 12, 54, 87
25, 11833, Note_off_c, 12, 54, 64
25, 11861, Note_on_c, 12, 52, 78
25, 11905, Note_off_c, 12, 52, 64
25, 11913, Note_on_c, 12, 50, 80
25, 11962, Note_off_c, 12, 50, 64
25, 11983, Note_on_c, 12, 49, 91
25, 12034, Note_off_c, 12, 49, 64
25, 12102, Note_on_c, 12, 50, 78
25, 12157, Note_off_c, 12, 50, 64
25, 12223, Note_on_c, 12, 52, 78
25, 12473, Note_off_c, 12, 52, 64
25, 12589, Note_on_c, 12, 57, 76
25, 12633, Note_on_c, 12, 56, 87
25, 12642, Note_off_c, 12, 57, 64
25, 12676, Note_off_c, 12, 56, 64
25, 12693, Note_on_c, 12, 57, 82
25, 12748, Note_off_c, 12, 57, 64
25, 12823, Note_on_c, 12, 59, 70
25, 12869, Note_off_c, 12, 59, 64
25, 12942, Note_on_c, 12, 57, 98
25, 12968, Note_on_c, 12, 56, 78
25, 12976, Note_off_c, 12, 57, 64
25, 12989, Note_off_c, 12, 56, 64
25, 12992, Note_on_c, 12, 57, 66
25, 13017, Note_on_c, 12, 56, 80
25, 13027, Note_off_c, 12, 57, 64
25, 13058, Note_on_c, 12, 54, 64
25, 13065, Note_off_c, 12, 56, 64
25, 13096, Note_off_c, 12, 54, 64
25, 13122, Note_on_c, 12, 52, 64
25, 13168, Note_off_c, 12, 52, 64
25, 13196, Note_on_c, 12, 64, 91
25, 13273, Note_off_c, 12, 64, 64
25, 13430, Note_on_c, 12, 62, 93
25, 13511, Note_off_c, 12, 62, 64
25, 13782, Note_on_c, 12, 61, 87
25, 13824, Note_off_c, 12, 61, 64
25, 13833, Note_on_c, 12, 59, 82
25, 13872, Note_off_c, 12, 59, 64
25, 13896, Note_on_c, 12, 61, 85
25, 13953, Note_off_c, 12, 61, 64
25, 14018, Note_on_c, 12, 62, 87
25, 14070, Note_off_c, 12, 62, 64
25, 14134, Note_on_c, 12, 61, 98
25, 14154, Note_on_c, 12, 59, 68
25, 14159, Note_off_c, 12, 61, 64
25, 14185, Note_on_c, 12, 61, 68
25, 14190, Note_off_c, 12, 59, 64
25, 14214, Note_on_c, 12, 59, 82
25, 14234, Note_off_c, 12, 61, 64
25, 14255, Note_on_c, 12, 57, 78
25, 14259, Note_off_c, 12, 59, 64
25, 14310, Note_on_c, 12, 56, 91
25, 14318, Note_off_c, 12, 57, 64
25, 14346, Note_off_c, 12, 56, 64
25, 14389, Note_on_c, 12, 63, 100
25, 14471, Note_off_c, 12, 63, 64
25, 14628, Note_on_c, 12, 64, 85
25, 14690, Note_off_c, 12, 64, 64
25, 14743, Note_on_c, 12, 52, 66
25, 14803, Note_off_c, 12, 52, 64
25, 14852, Note_on_c, 12, 54, 68
25, 14919, Note_off_c, 12, 54, 64
25, 14978, Note_on_c, 12, 56, 78
25, 15038, Note_off_c, 12, 56, 64
25, 15099, Note_on_c, 12, 57, 87
25, 15170, Note_off_c, 12, 57, 64
25, 15217, Note_on_c, 12, 49, 66
25, 15283, Note_off_c, 12, 49, 64
25, 15335, Note_on_c, 12, 50, 80
25, 15396, Note_off_c, 12, 50, 64
25, 15455, Note_on_c, 12, 52, 82
25, 15513, Note_off_c, 12, 52, 64
25, 15577, Note_on_c, 12, 54, 82
25, 15644, Note_off_c, 12, 54, 64
25, 15696, Note_on_c, 12, 50, 76
25, 15752, Note_off_c, 12, 50, 64
25, 15819, Note_on_c, 12, 56, 80
25, 15878, Note_off_c, 12, 56, 64
25, 15938, Note_on_c, 12, 52, 85
25, 15992, Note_off_c, 12, 52, 64
25, 16059, Note_on_c, 12, 57, 89
25, 16109, Note_off_c, 12, 57, 64
25, 16179, Note_on_c, 12, 49, 66
25, 16236, Note_off_c, 12, 49, 64
25, 16294, Note_on_c, 12, 47, 74
25, 16346, Note_off_c, 12, 47, 64
25, 16416, Note_on_c, 12, 45, 70
25, 16478, Note_off_c, 12, 45, 64
25, 16542, Note_on_c, 12, 50, 82
25, 16607, Note_off_c, 12, 50, 64
25, 16664, Note_on_c, 12, 52, 82
25, 16720, Note_off_c, 12, 52, 64
25, 16788, Note_on_c, 12, 54, 78
25, 16838, Note_off_c, 12, 54, 64
25, 16906, Note_on_c, 12, 50, 78
25, 16956, Note_off_c, 12, 50, 64
25, 17018, Note_on_c, 12, 52, 85
25, 17069, Note_off_c, 12, 52, 64
25, 17147, Note_on_c, 12, 40, 91
25, 17198, Note_off_c, 12, 40, 64
25, 17272, Note_on_c, 12, 45, 98
25, 17526, Note_off_c, 12, 45, 64
25, 29877, Note_on_c, 12, 50, 95
25, 29934, Note_off_c, 12, 50, 64
25, 29986, Note_on_c, 12, 62, 93
25, 30040, Note_off_c, 12, 62, 64
25, 30107, Note_on_c, 12, 50, 91
25, 30153, Note_off_c, 12, 50, 64
25, 30223, Note_on_c, 12, 55, 89
25, 30274, Note_off_c, 12, 55, 64
25, 30339, Note_on_c, 12, 50, 91
25, 30389, Note_off_c, 12, 50, 64
25, 30465, Note_on_c, 12, 43, 87
25, 30555, Note_off_c, 12, 43, 64
25, 31298, Note_on_c, 12, 52, 74
25, 31375, Note_off_c, 12, 52, 64
25, 31424, Note_on_c, 12, 64, 89
25, 31483, Note_off_c, 12, 64, 64
25, 31541, Note_on_c, 12, 52, 72
25, 31603, Note_off_c, 12, 52, 64
25, 31658, Note_on_c, 12, 57, 91
25, 31728, Note_off_c, 12, 57, 64
25, 31775, Note_on_c, 12, 52, 80
25, 31838, Note_off_c, 12, 52, 64
25, 31901, Note_on_c, 12, 45, 82
25, 31965, Note_off_c, 12, 45, 64
25, 32016, Note_on_c, 12, 45, 59
25, 32088, Note_off_c, 12, 45, 64
25, 32136, Note_on_c, 12, 45, 60
25, 32225, Note_off_c, 12, 45, 64
25, 32257, Note_on_c, 12, 45, 64
25, 32345, Note_off_c, 12, 45, 64
25, 32380, Note_on_c, 12, 45, 63
25, 32470, Note_off_c, 12, 45, 64
25, 32500, Note_on_c, 12, 45, 58
25, 32581, Note_off_c, 12, 45, 64
25, 32616, Note_on_c, 12, 45, 58
25, 32707, Note_off_c, 12, 45, 64
25, 32734, Note_on_c, 12, 45, 57
25, 32821, Note_off_c, 12, 45, 64
25, 32851, Note_on_c, 12, 45, 64
25, 32939, Note_off_c, 12, 45, 64
25, 32978, Note_on_c, 12, 45, 62
25, 33062, Note_off_c, 12, 45, 64
25, 33092, Note_on_c, 12, 45, 63
25, 33189, Note_off_c, 12, 45, 64
25, 33220, Note_on_c, 12, 45, 64
25, 33295, Note_off_c, 12, 45, 64
25, 33333, Note_on_c, 12, 45, 58
25, 33419, Note_off_c, 12, 45, 64
25, 33452, Note_on_c, 12, 45, 60
25, 33534, Note_off_c, 12, 45, 64
25, 33576, Note_on_c, 12, 45, 64
25, 33662, Note_off_c, 12, 45, 64
25, 33697, Note_on_c, 12, 45, 63
25, 33770, Note_off_c, 12, 45, 64
25, 33823, Note_on_c, 12, 45, 68
25, 36077, Note_off_c, 12, 45, 64
25, 36127, Note_on_c, 12, 57, 98
25, 36175, Note_on_c, 12, 56, 93
25, 36178, Note_off_c, 12, 57, 64
25, 36219, Note_off_c, 12, 56, 64
25, 36238, Note_on_c, 12, 57, 100
25, 36289, Note_off_c, 12, 57, 64
25, 36355, Note_on_c, 12, 45, 89
25, 36424, Note_off_c, 12, 45, 64
25, 36474, Note_on_c, 12, 47, 85
25, 36535, Note_off_c, 12, 47, 64
25, 36593, Note_on_c, 12, 49, 78
25, 36645, Note_off_c, 12, 49, 64
25, 36710, Note_on_c, 12, 50, 80
25, 36779, Note_off_c, 12, 50, 64
25, 36827, Note_on_c, 12, 54, 78
25, 36888, Note_off_c, 12, 54, 64
25, 36946, Note_on_c, 12, 52, 82
25, 36997, Note_off_c, 12, 52, 64
25, 37065, Note_on_c, 12, 50, 80
25, 37132, Note_off_c, 12, 50, 64
25, 37186, Note_on_c, 12, 57, 89
25, 37241, Note_off_c, 12, 57, 64
25, 37307, Note_on_c, 12, 45, 93
25, 37360, Note_off_c, 12, 45, 64
25, 37440, Note_on_c, 12, 47, 107
25, 37689, Note_off_c, 12, 47, 64
25, 37793, Note_on_c, 12, 49, 82
25, 37840, Note_off_c, 12, 49, 64
25, 37844, Note_on_c, 12, 50, 82
25, 37885, Note_off_c, 12, 50, 64
25, 37898, Note_on_c, 12, 52, 100
25, 37954, Note_off_c, 12, 52, 64
25, 38026, Note_on_c, 12, 40, 89
25, 38077, Note_off_c, 12, 40, 64
25, 38155, Note_on_c, 12, 45, 102
25, 38415, Note_off_c, 12, 45, 64
25, 38515, Note_on_c, 12, 50, 80
25, 38561, Note_off_c, 12, 50, 64
25, 38566, Note_on_c, 12, 49, 85
25, 38611, Note_off_c, 12, 49, 64
25, 38626, Note_on_c, 12, 50, 85
25, 38679, Note_off_c, 12, 50, 64
25, 38749, Note_on_c, 12, 52, 85
25, 38796, Note_off_c, 12, 52, 64
25, 38872, Note_on_c, 12, 50, 100
25, 38892, Note_on_c, 12, 49, 89
25, 38901, Note_off_c, 12, 50, 64
25, 38919, Note_on_c, 12, 50, 60
25, 38924, Note_off_c, 12, 49, 64
25, 38950, Note_on_c, 12, 49, 70
25, 38959, Note_off_c, 12, 50, 64
25, 38966, Note_on_c, 12, 47, 57
25, 38987, Note_off_c, 12, 49, 64
25, 39012, Note_off_c, 12, 47, 64
25, 39034, Note_on_c, 12, 45, 70
25, 39084, Note_off_c, 12, 45, 64
25, 39106, Note_on_c, 12, 57, 100
25, 39177, Note_off_c, 12, 57, 64
25, 39346, Note_on_c, 12, 55, 87
25, 39425, Note_off_c, 12, 55, 64
25, 39702, Note_on_c, 12, 54, 102
25, 39744, Note_off_c, 12, 54, 64
25, 39754, Note_on_c, 12, 52, 91
25, 39796, Note_off_c, 12, 52, 64
25, 39816, Note_on_c, 12, 54, 98
25, 39867, Note_off_c, 12, 54, 64
25, 39945, Note_on_c, 12, 55, 85
25, 39994, Note_off_c, 12, 55, 64
25, 40068, Note_on_c, 12, 52, 93
25, 40137, Note_off_c, 12, 52, 64
25, 40182, Note_on_c, 12, 50, 80
25, 40225, Note_off_c, 12, 50, 64
25, 40233, Note_on_c, 12, 49, 95
25, 40267, Note_off_c, 12, 49, 64
25, 40301, Note_on_c, 12, 56, 89
25, 40395, Note_off_c, 12, 56, 64
25, 40539, Note_on_c, 12, 57, 95
25, 40591, Note_off_c, 12, 57, 64
25, 40654, Note_on_c, 12, 45, 70
25, 40713, Note_off_c, 12, 45, 64
25, 40778, Note_on_c, 12, 47, 78
25, 40842, Note_off_c, 12, 47, 64
25, 40903, Note_on_c, 12, 49, 85
25, 40950, Note_off_c, 12, 49, 64
25, 41029, Note_on_c, 12, 50, 85
25, 41088, Note_off_c, 12, 50, 64
25, 41148, Note_on_c, 12, 54, 76
25, 41198, Note_off_c, 12, 54, 64
25, 41264, Note_on_c, 12, 55, 80
25, 41324, Note_off_c, 12, 55, 64
25, 41388, Note_on_c, 12, 57, 87
25, 41447, Note_off_c, 12, 57, 64
25, 41506, Note_on_c, 12, 59, 82
25, 41558, Note_off_c, 12, 59, 64
25, 41623, Note_on_c, 12, 55, 80
25, 41679, Note_off_c, 12, 55, 64
25, 41747, Note_on_c, 12, 61, 85
25, 41804, Note_off_c, 12, 61, 64
25, 41871, Note_on_c, 12, 57, 85
25, 41924, Note_off_c, 12, 57, 64
25, 41996, Note_on_c, 12, 62, 98
25, 42048, Note_off_c, 12, 62, 64
25, 42108, Note_on_c, 12, 54, 74
25, 42175, Note_off_c, 12, 54, 64
25, 42227, Note_on_c, 12, 52, 70
25, 42289, Note_off_c, 12, 52, 64
25, 42341, Note_on_c, 12, 50, 72
25, 42414, Note_off_c, 12, 50, 64
25, 42458, Note_on_c, 12, 59, 87
25, 42515, Note_off_c, 12, 59, 64
25, 42579, Note_on_c, 12, 52, 76
25, 42635, Note_off_c, 12, 52, 64
25, 42694, Note_on_c, 12, 54, 70
25, 42758, Note_off_c, 12, 54, 64
25, 42815, Note_on_c, 12, 55, 82
25, 42871, Note_off_c, 12, 55, 64
25, 42938, Note_on_c, 12, 57, 95
25, 42992, Note_off_c, 12, 57, 64
25, 43059, Note_on_c, 12, 45, 95
25, 43111, Note_off_c, 12, 45, 64
25, 43200, Note_on_c, 12, 38, 87
25, 43474, Note_off_c, 12, 38, 64
25, 55797, Note_on_c, 12, 50, 95
25, 55854, Note_off_c, 12, 50, 64
25, 55906, Note_on_c, 12, 62, 93
25, 55960, Note_off_c, 12, 62, 64
25, 56027, Note_on_c, 12, 50, 91
25, 56073, Note_off_c, 12, 50, 64
25, 56143, Note_on_c, 12, 55, 89
25, 56194, Note_off_c, 12, 55, 64
25, 56259, Note_on_c, 12, 50, 91
25, 56309, Note_off_c, 12, 50, 64
25, 56385, Note_on_c, 12, 43, 87
25, 56475, Note_off_c, 12, 43, 64
25, 57218, Note_on_c, 12, 52, 74
25, 57295, Note_off_c, 12, 52, 64
25, 57344, Note_on_c, 12, 64, 89
25, 57403, Note_off_c, 12, 64, 64
25, 57461, Note_on_c, 12, 52, 72
25, 57523, Note_off_c, 12, 52, 64
25, 57578, Note_on_c, 12, 57, 91
25, 57648, Note_off_c, 12, 57, 64
25, 57695, Note_on_c, 12, 52, 80
25, 57758, Note_off_c, 12, 52, 64
25, 57821, Note_on_c, 12, 45, 82
25, 57885, Note_off_c, 12, 45, 64
25, 57936, Note_on_c, 12, 45, 59
25, 58008, Note_off_c, 12, 45, 64
25, 58056, Note_on_c, 12, 45, 60
25, 58145, Note_off_c, 12, 45, 64
25, 58177, Note_on_c, 12, 45, 64
25, 58265, Note_off_c, 12, 45, 64
25, 58300, Note_on_c, 12, 45, 63
25, 58390, Note_off_c, 12, 45, 64
25, 58420, Note_on_c, 12, 45, 58
25, 58501, Note_off_c, 12, 45, 64
25, 58536, Note_on_c, 12, 45, 58
25, 58627, Note_off_c, 12, 45, 64
25, 58654, Note_on_c, 12, 45, 57
25, 58741, Note_off_c, 12, 45, 64
25, 58771, Note_on_c, 12, 45, 64
25, 58859, Note_off_c, 12, 45, 64
25, 58898, Note_on_c, 12, 45, 62
25, 58982, Note_off_c, 12, 45, 64
25, 59012, Note_on_c, 12, 45, 63
25, 59109, Note_off_c, 12, 45, 64
25, 59140, Note_on_c, 12, 45, 64
25, 59215, Note_off_c, 12, 45, 64
25, 59253, Note_on_c, 12, 45, 58
25, 59339, Note_off_c, 12, 45, 64
25, 59372, Note_on_c, 12, 45, 60
25, 59454, Note_off_c, 12, 45, 64
25, 59496, Note_on_c, 12, 45, 64
25, 59582, Note_off_c, 12, 45, 64
25, 59617, Note_on_c, 12, 45, 63
25, 59690, Note_off_c, 12, 45, 64
25, 59743, Note_on_c, 12, 45, 68
25, 61997, Note_off_c, 12, 45, 64
25, 62047, Note_on_c, 12, 57, 98
25, 62095, Note_on_c, 12, 56, 93
25, 62098, Note_off_c, 12, 57, 64
25, 62139, Note_off_c, 12, 56, 64
25, 62158, Note_on_c, 12, 57, 100
25, 62209, Note_off_c, 12, 57, 64
25, 62275, Note_on_c, 12, 45, 89
25, 62344, Note_off_c, 12, 45, 64
25, 62394, Note_on_c, 12, 47, 85
25, 62455, Note_off_c, 12, 47, 64
25, 62513, Note_on_c, 12, 49, 78
25, 62565, Note_off_c, 12, 49, 64
25, 62630, Note_on_c, 12, 50, 80
25, 62699, Note_off_c, 12, 50, 64
25, 62747, Note_on_c, 12, 54, 78
25, 62808, Note_off_c, 12, 54, 64
25, 62866, Note_on_c, 12, 52, 82
25, 62917, Note_off_c, 12, 52, 64
25, 62985, Note_on_c, 12, 50, 80
25, 63052, Note_off_c, 12, 50, 64
25, 63106, Note_on_c, 12, 57, 89
25, 63161, Note_off_c, 12, 57, 64
25, 63227, Note_on_c, 12, 45, 93
25, 63280, Note_off_c, 12, 45, 64
25, 63360, Note_on_c, 12, 47, 107
25, 63609, Note_off_c, 12, 47, 64
25, 63713, Note_on_c, 12, 49, 82
25, 63760, Note_off_c, 12, 49, 64
25, 63764, Note_on_c, 12, 50, 82
25, 63805, Note_off_c, 12, 50, 64
25, 63818, Note_on_c, 12, 52, 100
25, 63874, Note_off_c, 12, 52, 64
25, 63946, Note_on_c, 12, 40, 89
25, 63997, Note_off_c, 12, 40, 64
25, 64075, Note_on_c, 12, 45, 102
25, 64335, Note_off_c, 12, 45, 64
25, 64435, Note_on_c, 12, 50, 80
25, 64481, Note_off_c, 12, 50, 64
25, 64486, Note_on_c, 12, 49, 85
25, 64531, Note_off_c, 12, 49, 64
25, 64546, Note_on_c, 12, 50, 85
25, 64599, Note_off_c, 12, 50, 64
25, 64669, Note_on_c, 12, 52, 85
25, 64716, Note_off_c, 12, 52, 64
25, 64792, Note_on_c, 12, 50, 100
25, 64812, Note_on_c, 12, 49, 89
25, 64821, Note_off_c, 12, 50, 64
25, 64839, Note_on_c, 12, 50, 60
25, 64844, Note_off_c, 12, 49, 64
25, 64870, Note_on_c, 12, 49, 70
25, 64879, Note_off_c, 12, 50, 64
25, 64886, Note_on_c, 12, 47, 57
25, 64907, Note_off_c, 12, 49, 64
25, 64932, Note_off_c, 12, 47, 64
25, 64954, Note_on_c, 12, 45, 70
25, 65004, Note_off_c, 12, 45, 64
25, 65026, Note_on_c, 12, 57, 100
25, 65097, Note_off_c, 12, 57, 64
25, 65266, Note_on_c, 12, 55, 87
25, 65345, Note_off_c, 12, 55, 64
25, 65622, Note_on_c, 12, 54, 102
25, 65664, Note_off_c, 12, 54, 64
25, 65674, Note_on_c, 12, 52, 91
25, 65716, Note_off_c, 12, 52, 64
25, 65736, Note_on_c, 12, 54, 98
25, 65787, Note_off_c, 12, 54, 64
25, 65865, Note_on_c, 12, 55, 85
25, 65914, Note_off_c, 12, 55, 64
25, 65988, Note_on_c, 12, 52, 93
25, 66057, Note_off_c, 12, 52, 64
25, 66102, Note_on_c, 12, 50, 80
25, 66145, Note_off_c, 12, 50, 64
25, 66153, Note_on_c, 12, 49, 95
25, 66187, Note_off_c, 12, 49, 64
25, 66221, Note_on_c, 12, 56, 89
25, 66315, Note_off_c, 12, 56, 64
25, 66459, Note_on_c, 12, 57, 95
25, 66511, Note_off_c, 12, 57, 64
25, 66574, Note_on_c, 12, 45, 70
25, 66633, Note_off_c, 12, 45, 64
25, 66698, Note_on_c, 12, 47, 78
25, 66762, Note_off_c, 12, 47, 64
25, 66823, Note_on_c, 12, 49, 85
25, 66870, Note_off_c, 12, 49, 64
25, 66949, Note_on_c, 12, 50, 85
25, 67008, Note_off_c, 12, 50, 64
25, 67068, Note_on_c, 12, 54, 76
25, 67118, Note_off_c, 12, 54, 64
25, 67184, Note_on_c, 12, 55, 80
25, 67244, Note_off_c, 12, 55, 64
25, 67308, Note_on_c, 12, 57, 87
25, 67367, Note_off_c, 12, 57, 64
25, 67426, Note_on_c, 12, 59, 82
25, 67478, Note_off_c, 12, 59, 64
25, 67543, Note_on_c, 12, 55, 80
25, 67599, Note_off_c, 12, 55, 64
25, 67667, Note_on_c, 12, 61, 85
25, 67724, Note_off_c, 12, 61, 64
25, 67791, Note_on_c, 12, 57, 85
25, 67844, Note_off_c, 12, 57, 64
25, 67916, Note_on_c, 12, 62, 98
25, 67968, Note_off_c, 12, 62, 64
25, 68028, Note_on_c, 12, 54, 74
25, 68095, Note_off_c, 12, 54, 64
25, 68147, Note_on_c, 12, 52, 70
25, 68209, Note_off_c, 12, 52, 64
25, 68261, Note_on_c, 12, 50, 72
25, 68334, Note_off_c, 12, 50, 64
25, 68378, Note_on_c, 12, 59, 87
25, 68435, Note_off_c, 12, 59, 64
25, 68499, Note_on_c, 12, 52, 76
25, 68555, Note_off_c, 12, 52, 64
25, 68614, Note_on_c, 12, 54, 70
25, 68678, Note_off_c, 12, 54, 64
25, 68735, Note_on_c, 12, 55, 82
25, 68791, Note_off_c, 12, 55, 64
25, 68858, Note_on_c, 12, 57, 95
25, 68912, Note_off_c, 12, 57, 64
25, 68979, Note_on_c, 12, 45, 95
25, 69031, Note_off_c, 12, 45, 64
25, 69120, Note_on_c, 12, 38, 87
25, 69394, Note_off_c, 12, 38, 64
25, 69394, End_track
0, 0, End_of_file
