0, 0, Header, 1, 11, 240
1, 0, Start_track
1, 0, Time_signature, 4, 2, 24, 8
1, 0, Tempo, 384615
1, 56940, Tempo, 441176
1, 57384, Tempo, 545455
1, 57600, Tempo, 384615
1, 57600, End_track
2, 0, Start_track
2, 0, Title_t, "Violin1"
2, 0, Program_c, 0, 40
2, 0, Control_c, 0, 7, 100
2, 461, Note_on_c, 0, 74, 70
2, 700, Note_on_c, 0, 73, 43
2, 716, Note_off_c, 0, 74, 64
2, 828, Note_off_c, 0, 73, 64
2, 966, Note_on_c, 0, 66, 45
2, 1273, Note_off_c, 0, 66, 64
2, 1421, Note_on_c, 0, 76, 76
2, 1658, Note_on_c, 0, 74, 50
2, 1692, Note_off_c, 0, 76, 64
2, 1785, Note_off_c, 0, 74, 64
2, 1909, Note_on_c, 0, 66, 49
2, 2219, Note_off_c, 0, 66, 64
2, 2381, Note_on_c, 0, 78, 66
2, 2493, Note_on_c, 0, 76, 58
2, 2506, Note_off_c, 0, 78, 64
2, 2615, Note_off_c, 0, 76, 64
2, 2626, Note_on_c, 0, 78, 55
2, 2747, Note_off_c, 0, 78, 64
2, 2748, Note_on_c, 0, 79, 66
2, 2840, Note_off_c, 0, 79, 64
2, 2862, Note_on_c, 0, 78, 58
2, 2983, Note_on_c, 0, 76, 70
2, 3010, Note_off_c, 0, 78, 64
2, 3093, Note_off_c, 0, 76, 64
2, 3100, Note_on_c, 0, 74, 58
2, 3223, Note_on_c, 0, 78, 60
2, 3228, Note_off_c, 0, 74, 64
2, 3334, Note_off_c, 0, 78, 64
2, 3345, Note_on_c, 0, 76, 64
2, 3463, Note_on_c, 0, 74, 59
2, 3475, Note_off_c, 0, 76, 64
2, 3577, Note_off_c, 0, 74, 64
2, 3589, Note_on_c, 0, 76, 57
2, 3702, Note_on_c, 0, 78, 53
2, 3706, Note_off_c, 0, 76, 64
2, 3821, Note_off_c, 0, 78, 64
2, 3822, Note_on_c, 0, 76, 62
2, 3935, Note_on_c, 0, 74, 60
2, 3943, Note_off_c, 0, 76, 64
2, 4053, Note_on_c, 0, 73, 49
2, 4061, Note_off_c, 0, 74, 64
2, 4161, Note_off_c, 0, 73, 64
2, 4169, Note_on_c, 0, 76, 55
2, 4267, Note_off_c, 0, 76, 64
2, 4301, Note_on_c, 0, 74, 66
2, 4538, Note_on_c, 0, 73, 42
2, 4548, Note_off_c, 0, 74, 64
2, 4663, Note_off_c, 0, 73, 64
2, 4792, Note_on_c, 0, 66, 50
2, 5115, Note_off_c, 0, 66, 64
2, 5256, Note_on_c, 0, 76, 80
2, 5488, Note_on_c, 0, 74, 57
2, 5514, Note_off_c, 0, 76, 64
2, 5638, Note_off_c, 0, 74, 64
2, 5745, Note_on_c, 0, 66, 53
2, 6065, Note_off_c, 0, 66, 64
2, 6231, Note_on_c, 0, 78, 70
2, 6342, Note_on_c, 0, 76, 63
2, 6347, Note_off_c, 0, 78, 64
2, 6447, Note_off_c, 0, 76, 64
2, 6464, Note_on_c, 0, 78, 64
2, 6572, Note_on_c, 0, 79, 60
2, 6577, Note_off_c, 0, 78, 64
2, 6670, Note_off_c, 0, 79, 64
2, 6700, Note_on_c, 0, 78, 50
2, 6806, Note_off_c, 0, 78, 64
2, 6944, Note_on_c, 0, 71, 55
2, 7041, Note_off_c, 0, 71, 64
2, 7194, Note_on_c, 0, 73, 52
2, 7274, Note_off_c, 0, 73, 64
2, 7436, Note_on_c, 0, 70, 52
2, 7504, Note_off_c, 0, 70, 64
2, 7666, Note_on_c, 0, 71, 52
2, 7945, Note_off_c, 0, 71, 64
2, 8150, Note_on_c, 0, 74, 66
2, 8398, Note_on_c, 0, 73, 43
2, 8403, Note_off_c, 0, 74, 64
2, 8520, Note_off_c, 0, 73, 64
2, 8648, Note_on_c, 0, 66, 53
2, 8980, Note_off_c, 0, 66, 64
2, 9098, Note_on_c, 0, 76, 66
2, 9330, Note_on_c, 0, 74, 54
2, 9366, Note_off_c, 0, 76, 64
2, 9451, Note_off_c, 0, 74, 64
2, 9584, Note_on_c, 0, 66, 52
2, 9927, Note_off_c, 0, 66, 64
2, 10073, Note_on_c, 0, 78, 66
2, 10187, Note_on_c, 0, 76, 68
2, 10192, Note_off_c, 0, 78, 64
2, 10282, Note_off_c, 0, 76, 64
2, 10315, Note_on_c, 0, 78, 57
2, 10432, Note_off_c, 0, 78, 64
2, 10432, Note_on_c, 0, 79, 70
2, 10532, Note_off_c, 0, 79, 64
2, 10551, Note_on_c, 0, 78, 58
2, 10663, Note_on_c, 0, 76, 60
2, 10676, Note_off_c, 0, 78, 64
2, 10768, Note_off_c, 0, 76, 64
2, 10782, Note_on_c, 0, 74, 50
2, 10893, Note_off_c, 0, 74, 64
2, 10893, Note_on_c, 0, 78, 60
2, 10999, Note_off_c, 0, 78, 64
2, 11017, Note_on_c, 0, 76, 66
2, 11132, Note_on_c, 0, 74, 63
2, 11140, Note_off_c, 0, 76, 64
2, 11240, Note_off_c, 0, 74, 64
2, 11254, Note_on_c, 0, 76, 57
2, 11371, Note_on_c, 0, 78, 52
2, 11397, Note_off_c, 0, 76, 64
2, 11490, Note_off_c, 0, 78, 64
2, 11492, Note_on_c, 0, 76, 66
2, 11601, Note_on_c, 0, 74, 60
2, 11606, Note_off_c, 0, 76, 64
2, 11741, Note_on_c, 0, 73, 57
2, 11748, Note_off_c, 0, 74, 64
2, 11843, Note_off_c, 0, 73, 64
2, 11858, Note_on_c, 0, 76, 60
2, 11958, Note_off_c, 0, 76, 64
2, 11991, Note_on_c, 0, 74, 60
2, 12243, Note_off_c, 0, 74, 64
2, 12243, Note_on_c, 0, 73, 42
2, 12354, Note_off_c, 0, 73, 64
2, 12485, Note_on_c, 0, 66, 60
2, 12808, Note_off_c, 0, 66, 64
2, 12936, Note_on_c, 0, 76, 70
2, 13180, Note_on_c, 0, 74, 51
2, 13204, Note_off_c, 0, 76, 64
2, 13317, Note_off_c, 0, 74, 64
2, 13443, Note_on_c, 0, 66, 49
2, 13778, Note_off_c, 0, 66, 64
2, 13901, Note_on_c, 0, 78, 64
2, 14018, Note_on_c, 0, 76, 80
2, 14025, Note_off_c, 0, 78, 64
2, 14118, Note_off_c, 0, 76, 64
2, 14142, Note_on_c, 0, 78, 58
2, 14251, Note_on_c, 0, 79, 66
2, 14262, Note_off_c, 0, 78, 64
2, 14362, Note_off_c, 0, 79, 64
2, 14384, Note_on_c, 0, 78, 45
2, 14509, Note_off_c, 0, 78, 64
2, 14633, Note_on_c, 0, 71, 57
2, 14725, Note_off_c, 0, 71, 64
2, 14874, Note_on_c, 0, 73, 55
2, 14964, Note_off_c, 0, 73, 64
2, 15111, Note_on_c, 0, 70, 49
2, 15207, Note_off_c, 0, 70, 64
2, 15358, Note_on_c, 0, 71, 53
2, 15632, Note_off_c, 0, 71, 64
2, 35031, Note_on_c, 0, 74, 72
2, 35155, Note_on_c, 0, 73, 47
2, 35172, Note_off_c, 0, 74, 64
2, 35235, Note_off_c, 0, 73, 64
2, 35261, Note_on_c, 0, 74, 68
2, 35389, Note_on_c, 0, 76, 64
2, 35416, Note_off_c, 0, 74, 64
2, 35470, Note_off_c, 0, 76, 64
2, 35506, Note_on_c, 0, 74, 70
2, 35624, Note_on_c, 0, 76, 63
2, 35650, Note_off_c, 0, 74, 64
2, 35711, Note_off_c, 0, 76, 64
2, 35751, Note_on_c, 0, 74, 68
2, 35865, Note_on_c, 0, 73, 52
2, 35875, Note_off_c, 0, 74, 64
2, 35941, Note_off_c, 0, 73, 64
2, 35987, Note_on_c, 0, 71, 64
2, 36110, Note_on_c, 0, 73, 52
2, 36135, Note_off_c, 0, 71, 64
2, 36191, Note_off_c, 0, 73, 64
2, 36230, Note_on_c, 0, 74, 70
2, 36343, Note_on_c, 0, 71, 62
2, 36356, Note_off_c, 0, 74, 64
2, 36433, Note_off_c, 0, 71, 64
2, 36462, Note_on_c, 0, 73, 58
2, 36577, Note_on_c, 0, 71, 62
2, 36609, Note_off_c, 0, 73, 64
2, 36663, Note_off_c, 0, 71, 64
2, 36704, Note_on_c, 0, 69, 66
2, 36823, Note_on_c, 0, 71, 63
2, 36843, Note_off_c, 0, 69, 64
2, 36905, Note_off_c, 0, 71, 64
2, 36942, Note_on_c, 0, 73, 62
2, 37053, Note_on_c, 0, 74, 57
2, 37054, Note_off_c, 0, 73, 64
2, 37127, Note_off_c, 0, 74, 64
2, 37173, Note_on_c, 0, 76, 66
2, 37285, Note_on_c, 0, 78, 58
2, 37289, Note_off_c, 0, 76, 64
2, 37368, Note_off_c, 0, 78, 64
2, 37418, Note_on_c, 0, 79, 82
2, 37539, Note_on_c, 0, 81, 66
2, 37552, Note_off_c, 0, 79, 64
2, 37626, Note_off_c, 0, 81, 64
2, 37662, Note_on_c, 0, 79, 70
2, 37776, Note_on_c, 0, 78, 57
2, 37781, Note_off_c, 0, 79, 64
2, 37862, Note_off_c, 0, 78, 64
2, 37902, Note_on_c, 0, 79, 64
2, 38016, Note_on_c, 0, 78, 58
2, 38031, Note_off_c, 0, 79, 64
2, 38096, Note_off_c, 0, 78, 64
2, 38148, Note_on_c, 0, 76, 64
2, 38247, Note_off_c, 0, 76, 64
2, 38256, Note_on_c, 0, 79, 70
2, 38330, Note_off_c, 0, 79, 64
2, 38378, Note_on_c, 0, 78, 57
2, 38491, Note_off_c, 0, 78, 64
2, 38615, Note_on_c, 0, 69, 55
2, 38732, Note_off_c, 0, 69, 64
2, 38873, Note_on_c, 0, 74, 57
2, 39818, Note_off_c, 0, 74, 64
2, 39829, Note_on_c, 0, 73, 53
2, 40737, Note_off_c, 0, 73, 64
2, 40769, Note_on_c, 0, 71, 58
2, 41336, Note_off_c, 0, 71, 64
2, 41375, Note_on_c, 0, 69, 62
2, 41491, Note_off_c, 0, 69, 64
2, 41493, Note_on_c, 0, 71, 58
2, 41614, Note_on_c, 0, 73, 52
2, 41622, Note_off_c, 0, 71, 64
2, 41727, Note_off_c, 0, 73, 64
2, 41738, Note_on_c, 0, 71, 74
2, 41846, Note_off_c, 0, 71, 64
2, 41849, Note_on_c, 0, 69, 63
2, 41939, Note_off_c, 0, 69, 64
2, 41972, Note_on_c, 0, 68, 56
2, 42088, Note_on_c, 0, 66, 59
2, 42094, Note_off_c, 0, 68, 64
2, 42161, Note_off_c, 0, 66, 64
2, 42226, Note_on_c, 0, 65, 60
2, 42330, Note_off_c, 0, 65, 64
2, 42452, Note_on_c, 0, 61, 56
2, 42573, Note_off_c, 0, 61, 64
2, 42711, Note_on_c, 0, 73, 55
2, 42934, Note_on_c, 0, 71, 60
2, 42936, Note_off_c, 0, 73, 64
2, 43031, Note_off_c, 0, 71, 64
2, 43197, Note_on_c, 0, 81, 60
2, 43484, Note_off_c, 0, 81, 64
2, 43656, Note_on_c, 0, 74, 70
2, 43876, Note_off_c, 0, 74, 64
2, 43888, Note_on_c, 0, 73, 41
2, 44036, Note_off_c, 0, 73, 64
2, 44157, Note_on_c, 0, 83, 72
2, 44468, Note_off_c, 0, 83, 64
2, 44625, Note_on_c, 0, 81, 66
2, 44733, Note_on_c, 0, 80, 62
2, 44740, Note_off_c, 0, 81, 64
2, 44859, Note_on_c, 0, 81, 60
2, 44860, Note_off_c, 0, 80, 64
2, 44969, Note_off_c, 0, 81, 64
2, 44969, Note_on_c, 0, 83, 63
2, 45082, Note_off_c, 0, 83, 64
2, 45099, Note_on_c, 0, 81, 63
2, 45215, Note_on_c, 0, 80, 57
2, 45229, Note_off_c, 0, 81, 64
2, 45329, Note_on_c, 0, 78, 50
2, 45338, Note_off_c, 0, 80, 64
2, 45445, Note_off_c, 0, 78, 64
2, 45445, Note_on_c, 0, 81, 61
2, 45544, Note_off_c, 0, 81, 64
2, 45571, Note_on_c, 0, 80, 63
2, 45679, Note_on_c, 0, 78, 56
2, 45700, Note_off_c, 0, 80, 64
2, 45788, Note_off_c, 0, 78, 64
2, 45806, Note_on_c, 0, 77, 58
2, 45910, Note_off_c, 0, 77, 64
2, 45921, Note_on_c, 0, 80, 57
2, 46029, Note_off_c, 0, 80, 64
2, 46051, Note_on_c, 0, 78, 55
2, 46374, Note_off_c, 0, 78, 64
2, 46531, Note_on_c, 0, 73, 51
2, 46660, Note_on_c, 0, 74, 61
2, 46680, Note_off_c, 0, 73, 64
2, 46791, Note_off_c, 0, 74, 64
2, 46793, Note_on_c, 0, 73, 48
2, 46902, Note_on_c, 0, 71, 60
2, 46911, Note_off_c, 0, 73, 64
2, 47003, Note_off_c, 0, 71, 64
2, 47024, Note_on_c, 0, 73, 44
2, 47105, Note_off_c, 0, 73, 64
2, 47268, Note_on_c, 0, 74, 57
2, 47358, Note_off_c, 0, 74, 64
2, 47507, Note_on_c, 0, 76, 57
2, 47596, Note_off_c, 0, 76, 64
2, 47752, Note_on_c, 0, 74, 60
2, 47833, Note_off_c, 0, 74, 64
2, 47998, Note_on_c, 0, 73, 48
2, 48091, Note_off_c, 0, 73, 64
2, 48228, Note_on_c, 0, 78, 57
2, 48315, Note_off_c, 0, 78, 64
2, 48470, Note_on_c, 0, 73, 53
2, 48584, Note_on_c, 0, 74, 62
2, 48602, Note_off_c, 0, 73, 64
2, 48711, Note_on_c, 0, 73, 50
2, 48717, Note_off_c, 0, 74, 64
2, 48815, Note_on_c, 0, 71, 63
2, 48831, Note_off_c, 0, 73, 64
2, 48923, Note_off_c, 0, 71, 64
2, 48950, Note_on_c, 0, 73, 49
2, 49036, Note_off_c, 0, 73, 64
2, 49189, Note_on_c, 0, 74, 64
2, 49279, Note_off_c, 0, 74, 64
2, 49428, Note_on_c, 0, 76, 60
2, 49522, Note_off_c, 0, 76, 64
2, 49672, Note_on_c, 0, 74, 57
2, 49770, Note_off_c, 0, 74, 64
2, 49907, Note_on_c, 0, 74, 64
2, 50152, Note_on_c, 0, 73, 43
2, 50160, Note_off_c, 0, 74, 64
2, 50268, Note_off_c, 0, 73, 64
2, 50390, Note_on_c, 0, 74, 66
2, 50613, Note_on_c, 0, 73, 53
2, 50635, Note_off_c, 0, 74, 64
2, 50749, Note_off_c, 0, 73, 64
2, 50868, Note_on_c, 0, 66, 46
2, 51193, Note_off_c, 0, 66, 64
2, 51324, Note_on_c, 0, 76, 64
2, 51573, Note_on_c, 0, 74, 53
2, 51592, Note_off_c, 0, 76, 64
2, 51690, Note_off_c, 0, 74, 64
2, 51838, Note_on_c, 0, 66, 52
2, 52140, Note_off_c, 0, 66, 64
2, 52310, Note_on_c, 0, 78, 66
2, 52424, Note_on_c, 0, 76, 61
2, 52433, Note_off_c, 0, 78, 64
2, 52550, Note_on_c, 0, 78, 52
2, 52563, Note_off_c, 0, 76, 64
2, 52666, Note_on_c, 0, 79, 68
2, 52674, Note_off_c, 0, 78, 64
2, 52774, Note_off_c, 0, 79, 64
2, 52793, Note_on_c, 0, 78, 53
2, 52905, Note_on_c, 0, 76, 59
2, 52913, Note_off_c, 0, 78, 64
2, 53018, Note_off_c, 0, 76, 64
2, 53022, Note_on_c, 0, 74, 58
2, 53133, Note_on_c, 0, 78, 57
2, 53151, Note_off_c, 0, 74, 64
2, 53255, Note_on_c, 0, 76, 59
2, 53266, Note_off_c, 0, 78, 64
2, 53368, Note_on_c, 0, 74, 59
2, 53377, Note_off_c, 0, 76, 64
2, 53491, Note_on_c, 0, 76, 61
2, 53499, Note_off_c, 0, 74, 64
2, 53616, Note_on_c, 0, 78, 54
2, 53637, Note_off_c, 0, 76, 64
2, 53740, Note_off_c, 0, 78, 64
2, 53750, Note_on_c, 0, 76, 64
2, 53854, Note_on_c, 0, 74, 57
2, 53862, Note_off_c, 0, 76, 64
2, 53976, Note_on_c, 0, 73, 57
2, 53981, Note_off_c, 0, 74, 64
2, 54076, Note_on_c, 0, 76, 64
2, 54090, Note_off_c, 0, 73, 64
2, 54179, Note_off_c, 0, 76, 64
2, 54215, Note_on_c, 0, 74, 66
2, 54461, Note_on_c, 0, 73, 48
2, 54464, Note_off_c, 0, 74, 64
2, 54575, Note_off_c, 0, 73, 64
2, 54705, Note_on_c, 0, 66, 49
2, 55028, Note_off_c, 0, 66, 64
2, 55172, Note_on_c, 0, 76, 68
2, 55405, Note_on_c, 0, 74, 58
2, 55422, Note_off_c, 0, 76, 64
2, 55520, Note_off_c, 0, 74, 64
2, 55668, Note_on_c, 0, 66, 48
2, 55951, Note_off_c, 0, 66, 64
2, 56162, Note_on_c, 0, 78, 63
2, 56273, Note_on_c, 0, 76, 66
2, 56289, Note_off_c, 0, 78, 64
2, 56393, Note_on_c, 0, 78, 57
2, 56412, Note_off_c, 0, 76, 64
2, 56504, Note_on_c, 0, 79, 59
2, 56511, Note_off_c, 0, 78, 64
2, 56599, Note_off_c, 0, 79, 64
2, 56626, Note_on_c, 0, 78, 50
2, 56724, Note_off_c, 0, 78, 64
2, 56854, Note_on_c, 0, 71, 60
2, 56952, Note_off_c, 0, 71, 64
2, 57108, Note_on_c, 0, 73, 52
2, 57193, Note_off_c, 0, 73, 64
2, 57350, Note_on_c, 0, 70, 47
2, 57429, Note_off_c, 0, 70, 64
2, 57581, Note_on_c, 0, 71, 49
2, 58050, Note_off_c, 0, 71, 64
2, 58050, End_track
3, 0, Start_track
3, 0, Title_t, "Violin2"
3, 0, Program_c, 1, 40
3, 0, Control_c, 1, 7, 100
3, 469, Note_on_c, 1, 71, 54
3, 705, Note_on_c, 1, 70, 52
3, 722, Note_off_c, 1, 71, 64
3, 817, Note_on_c, 1, 71, 59
3, 819, Note_off_c, 1, 70, 64
3, 936, Note_off_c, 1, 71, 64
3, 950, Note_on_c, 1, 73, 26
3, 1280, Note_off_c, 1, 73, 64
3, 1435, Note_on_c, 1, 70, 64
3, 1665, Note_on_c, 1, 71, 60
3, 1692, Note_off_c, 1, 70, 64
3, 1780, Note_on_c, 1, 73, 57
3, 1796, Note_off_c, 1, 71, 64
3, 1915, Note_off_c, 1, 73, 64
3, 1920, Note_on_c, 1, 74, 63
3, 2256, Note_off_c, 1, 74, 64
3, 2404, Note_on_c, 1, 74, 74
3, 2515, Note_on_c, 1, 73, 56
3, 2544, Note_off_c, 1, 74, 64
3, 2618, Note_on_c, 1, 74, 63
3, 2621, Note_off_c, 1, 73, 64
3, 2737, Note_on_c, 1, 76, 58
3, 2753, Note_off_c, 1, 74, 64
3, 2843, Note_off_c, 1, 76, 64
3, 2869, Note_on_c, 1, 74, 70
3, 2975, Note_on_c, 1, 73, 59
3, 2995, Note_off_c, 1, 74, 64
3, 3099, Note_off_c, 1, 73, 64
3, 3099, Note_on_c, 1, 71, 53
3, 3209, Note_off_c, 1, 71, 64
3, 3211, Note_on_c, 1, 74, 62
3, 3318, Note_off_c, 1, 74, 64
3, 3334, Note_on_c, 1, 73, 58
3, 3451, Note_on_c, 1, 71, 56
3, 3477, Note_off_c, 1, 73, 64
3, 3570, Note_off_c, 1, 71, 64
3, 3573, Note_on_c, 1, 73, 54
3, 3691, Note_on_c, 1, 74, 63
3, 3703, Note_off_c, 1, 73, 64
3, 3787, Note_off_c, 1, 74, 64
3, 3817, Note_on_c, 1, 73, 82
3, 3925, Note_on_c, 1, 71, 63
3, 3947, Note_off_c, 1, 73, 64
3, 4049, Note_off_c, 1, 71, 64
3, 4053, Note_on_c, 1, 70, 53
3, 4164, Note_on_c, 1, 73, 56
3, 4169, Note_off_c, 1, 70, 64
3, 4267, Note_off_c, 1, 73, 64
3, 4308, Note_on_c, 1, 71, 60
3, 4538, Note_on_c, 1, 70, 53
3, 4544, Note_off_c, 1, 71, 64
3, 4657, Note_off_c, 1, 70, 64
3, 4658, Note_on_c, 1, 71, 60
3, 4773, Note_off_c, 1, 71, 64
3, 4794, Note_on_c, 1, 73, 47
3, 5135, Note_off_c, 1, 73, 64
3, 5283, Note_on_c, 1, 70, 59
3, 5498, Note_on_c, 1, 71, 57
3, 5527, Note_off_c, 1, 70, 64
3, 5612, Note_off_c, 1, 71, 64
3, 5612, Note_on_c, 1, 73, 51
3, 5728, Note_off_c, 1, 73, 64
3, 5742, Note_on_c, 1, 74, 57
3, 6075, Note_off_c, 1, 74, 64
3, 6216, Note_on_c, 1, 71, 66
3, 6296, Note_off_c, 1, 71, 64
3, 6461, Note_on_c, 1, 73, 60
3, 6564, Note_off_c, 1, 73, 64
3, 6713, Note_on_c, 1, 74, 72
3, 6802, Note_off_c, 1, 74, 64
3, 6939, Note_on_c, 1, 62, 60
3, 7022, Note_off_c, 1, 62, 64
3, 7185, Note_on_c, 1, 67, 60
3, 7275, Note_off_c, 1, 67, 64
3, 7429, Note_on_c, 1, 66, 55
3, 7527, Note_off_c, 1, 66, 64
3, 7665, Note_on_c, 1, 66, 55
3, 7948, Note_off_c, 1, 66, 64
3, 8146, Note_on_c, 1, 71, 68
3, 8382, Note_on_c, 1, 70, 51
3, 8386, Note_off_c, 1, 71, 64
3, 8481, Note_on_c, 1, 71, 58
3, 8489, Note_off_c, 1, 70, 64
3, 8601, Note_off_c, 1, 71, 64
3, 8609, Note_on_c, 1, 73, 34
3, 8940, Note_off_c, 1, 73, 64
3, 9092, Note_on_c, 1, 70, 70
3, 9325, Note_on_c, 1, 71, 61
3, 9341, Note_off_c, 1, 70, 64
3, 9439, Note_on_c, 1, 73, 52
3, 9453, Note_off_c, 1, 71, 64
3, 9559, Note_on_c, 1, 74, 64
3, 9580, Note_off_c, 1, 73, 64
3, 9885, Note_off_c, 1, 74, 64
3, 10082, Note_on_c, 1, 74, 72
3, 10188, Note_on_c, 1, 73, 54
3, 10207, Note_off_c, 1, 74, 64
3, 10296, Note_on_c, 1, 74, 63
3, 10298, Note_off_c, 1, 73, 64
3, 10421, Note_on_c, 1, 76, 62
3, 10437, Note_off_c, 1, 74, 64
3, 10519, Note_off_c, 1, 76, 64
3, 10543, Note_on_c, 1, 74, 68
3, 10648, Note_on_c, 1, 73, 58
3, 10663, Note_off_c, 1, 74, 64
3, 10765, Note_on_c, 1, 71, 53
3, 10768, Note_off_c, 1, 73, 64
3, 10876, Note_off_c, 1, 71, 64
3, 10882, Note_on_c, 1, 74, 59
3, 10988, Note_off_c, 1, 74, 64
3, 11013, Note_on_c, 1, 73, 64
3, 11128, Note_on_c, 1, 71, 53
3, 11150, Note_off_c, 1, 73, 64
3, 11248, Note_off_c, 1, 71, 64
3, 11256, Note_on_c, 1, 73, 53
3, 11367, Note_on_c, 1, 74, 63
3, 11383, Note_off_c, 1, 73, 64
3, 11473, Note_off_c, 1, 74, 64
3, 11500, Note_on_c, 1, 73, 56
3, 11609, Note_on_c, 1, 71, 66
3, 11636, Note_off_c, 1, 73, 64
3, 11736, Note_off_c, 1, 71, 64
3, 11739, Note_on_c, 1, 70, 59
3, 11845, Note_on_c, 1, 73, 55
3, 11850, Note_off_c, 1, 70, 64
3, 11937, Note_off_c, 1, 73, 64
3, 11981, Note_on_c, 1, 71, 70
3, 12227, Note_off_c, 1, 71, 64
3, 12227, Note_on_c, 1, 70, 44
3, 12336, Note_off_c, 1, 70, 64
3, 12339, Note_on_c, 1, 71, 54
3, 12450, Note_off_c, 1, 71, 64
3, 12482, Note_on_c, 1, 73, 43
3, 12822, Note_off_c, 1, 73, 64
3, 12959, Note_on_c, 1, 70, 58
3, 13182, Note_on_c, 1, 71, 55
3, 13199, Note_off_c, 1, 70, 64
3, 13277, Note_on_c, 1, 73, 56
3, 13287, Note_off_c, 1, 71, 64
3, 13407, Note_off_c, 1, 73, 64
3, 13416, Note_on_c, 1, 74, 58
3, 13754, Note_off_c, 1, 74, 64
3, 13907, Note_on_c, 1, 71, 68
3, 13985, Note_off_c, 1, 71, 64
3, 14140, Note_on_c, 1, 73, 62
3, 14229, Note_off_c, 1, 73, 64
3, 14389, Note_on_c, 1, 74, 68
3, 14475, Note_off_c, 1, 74, 64
3, 14614, Note_on_c, 1, 62, 60
3, 14698, Note_off_c, 1, 62, 64
3, 14864, Note_on_c, 1, 67, 66
3, 14951, Note_off_c, 1, 67, 64
3, 15103, Note_on_c, 1, 66, 60
3, 15221, Note_off_c, 1, 66, 64
3, 15346, Note_on_c, 1, 66, 58
3, 15634, Note_off_c, 1, 66, 64
3, 35036, Note_on_c, 1, 66, 56
3, 35138, Note_off_c, 1, 66, 64
3, 35266, Note_on_c, 1, 71, 58
3, 35347, Note_off_c, 1, 71, 64
3, 35511, Note_on_c, 1, 71, 66
3, 35616, Note_off_c, 1, 71, 64
3, 35747, Note_on_c, 1, 69, 52
3, 35836, Note_off_c, 1, 69, 64
3, 35990, Note_on_c, 1, 69, 78
3, 36096, Note_off_c, 1, 69, 64
3, 36240, Note_on_c, 1, 68, 52
3, 36327, Note_off_c, 1, 68, 64
3, 36473, Note_on_c, 1, 69, 66
3, 36571, Note_off_c, 1, 69, 64
3, 36699, Note_on_c, 1, 64, 60
3, 36766, Note_off_c, 1, 64, 64
3, 36927, Note_on_c, 1, 69, 62
3, 37053, Note_on_c, 1, 71, 60
3, 37059, Note_off_c, 1, 69, 64
3, 37114, Note_off_c, 1, 71, 64
3, 37178, Note_on_c, 1, 73, 56
3, 37285, Note_off_c, 1, 73, 64
3, 37290, Note_on_c, 1, 74, 64
3, 37365, Note_off_c, 1, 74, 64
3, 37417, Note_on_c, 1, 76, 72
3, 37537, Note_on_c, 1, 78, 58
3, 37553, Note_off_c, 1, 76, 64
3, 37609, Note_off_c, 1, 78, 64
3, 37654, Note_on_c, 1, 76, 62
3, 37770, Note_off_c, 1, 76, 64
3, 37770, Note_on_c, 1, 74, 54
3, 37848, Note_off_c, 1, 74, 64
3, 37900, Note_on_c, 1, 76, 70
3, 38009, Note_off_c, 1, 76, 64
3, 38009, Note_on_c, 1, 74, 66
3, 38088, Note_off_c, 1, 74, 64
3, 38141, Note_on_c, 1, 73, 58
3, 38244, Note_on_c, 1, 76, 70
3, 38245, Note_off_c, 1, 73, 64
3, 38320, Note_off_c, 1, 76, 64
3, 38372, Note_on_c, 1, 74, 64
3, 38711, Note_off_c, 1, 74, 64
3, 38860, Note_on_c, 1, 78, 63
3, 39085, Note_on_c, 1, 76, 53
3, 39099, Note_off_c, 1, 78, 64
3, 39199, Note_off_c, 1, 76, 64
3, 39337, Note_on_c, 1, 68, 51
3, 39657, Note_off_c, 1, 68, 64
3, 39821, Note_on_c, 1, 76, 66
3, 40065, Note_on_c, 1, 74, 53
3, 40080, Note_off_c, 1, 76, 64
3, 40151, Note_off_c, 1, 74, 64
3, 40308, Note_on_c, 1, 66, 53
3, 40631, Note_off_c, 1, 66, 64
3, 40775, Note_on_c, 1, 74, 68
3, 41013, Note_on_c, 1, 73, 52
3, 41038, Note_off_c, 1, 74, 64
3, 41122, Note_off_c, 1, 73, 64
3, 41263, Note_on_c, 1, 65, 63
3, 41613, Note_off_c, 1, 65, 64
3, 41743, Note_on_c, 1, 66, 63
3, 41854, Note_off_c, 1, 66, 64
3, 41982, Note_on_c, 1, 59, 64
3, 42074, Note_off_c, 1, 59, 64
3, 42224, Note_on_c, 1, 61, 66
3, 42327, Note_on_c, 1, 63, 66
3, 42356, Note_off_c, 1, 61, 64
3, 42448, Note_on_c, 1, 65, 59
3, 42478, Note_off_c, 1, 63, 64
3, 42565, Note_on_c, 1, 61, 63
3, 42571, Note_off_c, 1, 65, 64
3, 42628, Note_off_c, 1, 61, 64
3, 42717, Note_on_c, 1, 66, 61
3, 42950, Note_off_c, 1, 66, 64
3, 42956, Note_on_c, 1, 77, 64
3, 43070, Note_off_c, 1, 77, 64
3, 43202, Note_on_c, 1, 78, 51
3, 43482, Note_off_c, 1, 78, 64
3, 43663, Note_on_c, 1, 77, 70
3, 43880, Note_off_c, 1, 77, 64
3, 43880, Note_on_c, 1, 78, 47
3, 44006, Note_off_c, 1, 78, 64
3, 44139, Note_on_c, 1, 73, 43
3, 44456, Note_off_c, 1, 73, 64
3, 44629, Note_on_c, 1, 73, 64
3, 44740, Note_on_c, 1, 71, 57
3, 44778, Note_off_c, 1, 73, 64
3, 44863, Note_off_c, 1, 71, 64
3, 44863, Note_on_c, 1, 73, 57
3, 44966, Note_on_c, 1, 74, 68
3, 44998, Note_off_c, 1, 73, 64
3, 45069, Note_off_c, 1, 74, 64
3, 45099, Note_on_c, 1, 73, 60
3, 45213, Note_on_c, 1, 71, 64
3, 45237, Note_off_c, 1, 73, 64
3, 45337, Note_on_c, 1, 69, 60
3, 45338, Note_off_c, 1, 71, 64
3, 45449, Note_on_c, 1, 73, 53
3, 45480, Note_off_c, 1, 69, 64
3, 45530, Note_off_c, 1, 73, 64
3, 45567, Note_on_c, 1, 71, 68
3, 45671, Note_off_c, 1, 71, 64
3, 45674, Note_on_c, 1, 69, 48
3, 45812, Note_on_c, 1, 68, 59
3, 45818, Note_off_c, 1, 69, 64
3, 45896, Note_off_c, 1, 68, 64
3, 45913, Note_on_c, 1, 71, 59
3, 46018, Note_off_c, 1, 71, 64
3, 46040, Note_on_c, 1, 70, 58
3, 46328, Note_off_c, 1, 70, 64
3, 46544, Note_on_c, 1, 70, 60
3, 46660, Note_on_c, 1, 71, 68
3, 46688, Note_off_c, 1, 70, 64
3, 46772, Note_on_c, 1, 70, 53
3, 46781, Note_off_c, 1, 71, 64
3, 46886, Note_on_c, 1, 68, 45
3, 46897, Note_off_c, 1, 70, 64
3, 47012, Note_off_c, 1, 68, 64
3, 47012, Note_on_c, 1, 70, 53
3, 47094, Note_off_c, 1, 70, 64
3, 47265, Note_on_c, 1, 71, 51
3, 47345, Note_off_c, 1, 71, 64
3, 47515, Note_on_c, 1, 73, 58
3, 47587, Note_off_c, 1, 73, 64
3, 47746, Note_on_c, 1, 71, 58
3, 47829, Note_off_c, 1, 71, 64
3, 47996, Note_on_c, 1, 70, 58
3, 48082, Note_off_c, 1, 70, 64
3, 48236, Note_on_c, 1, 71, 52
3, 48332, Note_off_c, 1, 71, 64
3, 48473, Note_on_c, 1, 70, 57
3, 48581, Note_on_c, 1, 71, 66
3, 48605, Note_off_c, 1, 70, 64
3, 48706, Note_on_c, 1, 70, 58
3, 48725, Note_off_c, 1, 71, 64
3, 48812, Note_on_c, 1, 68, 53
3, 48828, Note_off_c, 1, 70, 64
3, 48926, Note_off_c, 1, 68, 64
3, 48945, Note_on_c, 1, 70, 57
3, 49039, Note_off_c, 1, 70, 64
3, 49181, Note_on_c, 1, 71, 58
3, 49278, Note_off_c, 1, 71, 64
3, 49428, Note_on_c, 1, 73, 60
3, 49538, Note_off_c, 1, 73, 64
3, 49671, Note_on_c, 1, 71, 63
3, 49756, Note_off_c, 1, 71, 64
3, 49907, Note_on_c, 1, 71, 60
3, 50135, Note_on_c, 1, 70, 47
3, 50157, Note_off_c, 1, 71, 64
3, 50252, Note_off_c, 1, 70, 64
3, 50385, Note_on_c, 1, 71, 61
3, 50623, Note_on_c, 1, 70, 55
3, 50646, Note_off_c, 1, 71, 64
3, 50727, Note_on_c, 1, 71, 59
3, 50749, Note_off_c, 1, 70, 64
3, 50846, Note_off_c, 1, 71, 64
3, 50848, Note_on_c, 1, 73, 42
3, 51174, Note_off_c, 1, 73, 64
3, 51356, Note_on_c, 1, 70, 60
3, 51579, Note_on_c, 1, 71, 61
3, 51602, Note_off_c, 1, 70, 64
3, 51684, Note_on_c, 1, 73, 54
3, 51700, Note_off_c, 1, 71, 64
3, 51809, Note_on_c, 1, 74, 59
3, 51811, Note_off_c, 1, 73, 64
3, 52080, Note_off_c, 1, 74, 64
3, 52325, Note_on_c, 1, 74, 76
3, 52438, Note_on_c, 1, 73, 47
3, 52463, Note_off_c, 1, 74, 64
3, 52550, Note_on_c, 1, 74, 60
3, 52560, Note_off_c, 1, 73, 64
3, 52661, Note_on_c, 1, 76, 61
3, 52698, Note_off_c, 1, 74, 64
3, 52769, Note_off_c, 1, 76, 64
3, 52790, Note_on_c, 1, 74, 66
3, 52900, Note_on_c, 1, 73, 53
3, 52913, Note_off_c, 1, 74, 64
3, 53021, Note_on_c, 1, 71, 56
3, 53035, Note_off_c, 1, 73, 64
3, 53133, Note_on_c, 1, 74, 66
3, 53138, Note_off_c, 1, 71, 64
3, 53239, Note_off_c, 1, 74, 64
3, 53257, Note_on_c, 1, 73, 58
3, 53371, Note_on_c, 1, 71, 55
3, 53387, Note_off_c, 1, 73, 64
3, 53500, Note_on_c, 1, 73, 55
3, 53509, Note_off_c, 1, 71, 64
3, 53610, Note_on_c, 1, 74, 63
3, 53631, Note_off_c, 1, 73, 64
3, 53715, Note_off_c, 1, 74, 64
3, 53740, Note_on_c, 1, 73, 53
3, 53849, Note_on_c, 1, 71, 58
3, 53870, Note_off_c, 1, 73, 64
3, 53978, Note_on_c, 1, 70, 51
3, 53981, Note_off_c, 1, 71, 64
3, 54087, Note_off_c, 1, 70, 64
3, 54087, Note_on_c, 1, 73, 59
3, 54160, Note_off_c, 1, 73, 64
3, 54223, Note_on_c, 1, 71, 68
3, 54450, Note_on_c, 1, 70, 49
3, 54462, Note_off_c, 1, 71, 64
3, 54556, Note_off_c, 1, 70, 64
3, 54559, Note_on_c, 1, 71, 59
3, 54681, Note_off_c, 1, 71, 64
3, 54692, Note_on_c, 1, 73, 43
3, 55023, Note_off_c, 1, 73, 64
3, 55179, Note_on_c, 1, 70, 60
3, 55417, Note_on_c, 1, 71, 52
3, 55438, Note_off_c, 1, 70, 64
3, 55522, Note_off_c, 1, 71, 64
3, 55522, Note_on_c, 1, 73, 52
3, 55646, Note_on_c, 1, 74, 62
3, 55652, Note_off_c, 1, 73, 64
3, 55958, Note_off_c, 1, 74, 64
3, 56143, Note_on_c, 1, 71, 72
3, 56232, Note_off_c, 1, 71, 64
3, 56394, Note_on_c, 1, 73, 59
3, 56502, Note_off_c, 1, 73, 64
3, 56628, Note_on_c, 1, 74, 63
3, 56734, Note_off_c, 1, 74, 64
3, 56854, Note_on_c, 1, 62, 63
3, 56941, Note_off_c, 1, 62, 64
3, 57100, Note_on_c, 1, 67, 63
3, 57193, Note_off_c, 1, 67, 64
3, 57336, Note_on_c, 1, 66, 51
3, 57432, Note_off_c, 1, 66, 64
3, 57599, Note_on_c, 1, 66, 55
3, 58077, Note_off_c, 1, 66, 64
3, 58077, End_track
4, 0, Start_track
4, 0, Title_t, "Viola"
4, 0, Program_c, 2, 41
4, 0, Control_c, 2, 7, 100
4, 476, Note_on_c, 2, 66, 66
4, 717, Note_on_c, 2, 64, 59
4, 734, Note_off_c, 2, 66, 64
4, 833, Note_on_c, 2, 62, 51
4, 834, Note_off_c, 2, 64, 64
4, 924, Note_off_c, 2, 62, 64
4, 948, Note_on_c, 2, 61, 47
4, 1255, Note_off_c, 2, 61, 64
4, 1436, Note_on_c, 2, 61, 61
4, 1658, Note_on_c, 2, 62, 68
4, 1691, Note_off_c, 2, 61, 64
4, 1781, Note_off_c, 2, 62, 64
4, 1783, Note_on_c, 2, 64, 58
4, 1903, Note_off_c, 2, 64, 64
4, 1922, Note_on_c, 2, 66, 41
4, 2230, Note_off_c, 2, 66, 64
4, 2394, Note_on_c, 2, 71, 66
4, 2486, Note_off_c, 2, 71, 64
4, 2626, Note_on_c, 2, 66, 52
4, 2721, Note_off_c, 2, 66, 64
4, 2857, Note_on_c, 2, 59, 51
4, 3162, Note_off_c, 2, 59, 64
4, 3342, Note_on_c, 2, 70, 60
4, 3443, Note_off_c, 2, 70, 64
4, 3589, Note_on_c, 2, 66, 57
4, 3674, Note_off_c, 2, 66, 64
4, 3818, Note_on_c, 2, 58, 57
4, 4137, Note_off_c, 2, 58, 64
4, 4298, Note_on_c, 2, 66, 63
4, 4545, Note_on_c, 2, 64, 61
4, 4572, Note_off_c, 2, 66, 64
4, 4647, Note_off_c, 2, 64, 64
4, 4647, Note_on_c, 2, 62, 42
4, 4756, Note_off_c, 2, 62, 64
4, 4777, Note_on_c, 2, 61, 30
4, 5093, Note_off_c, 2, 61, 64
4, 5263, Note_on_c, 2, 61, 70
4, 5494, Note_on_c, 2, 62, 64
4, 5526, Note_off_c, 2, 61, 64
4, 5607, Note_off_c, 2, 62, 64
4, 5607, Note_on_c, 2, 64, 57
4, 5726, Note_off_c, 2, 64, 64
4, 5740, Note_on_c, 2, 66, 46
4, 6091, Note_off_c, 2, 66, 64
4, 6220, Note_on_c, 2, 66, 58
4, 6354, Note_off_c, 2, 66, 64
4, 6465, Note_on_c, 2, 64, 52
4, 6578, Note_off_c, 2, 64, 64
4, 6703, Note_on_c, 2, 62, 60
4, 6809, Note_on_c, 2, 61, 63
4, 6820, Note_off_c, 2, 62, 64
4, 6920, Note_off_c, 2, 61, 64
4, 6929, Note_on_c, 2, 62, 66
4, 7031, Note_off_c, 2, 62, 64
4, 7039, Note_on_c, 2, 59, 61
4, 7151, Note_off_c, 2, 59, 64
4, 7180, Note_on_c, 2, 64, 60
4, 7295, Note_off_c, 2, 64, 64
4, 7433, Note_on_c, 2, 61, 57
4, 7536, Note_off_c, 2, 61, 64
4, 7680, Note_on_c, 2, 62, 58
4, 7962, Note_off_c, 2, 62, 64
4, 8154, Note_on_c, 2, 66, 62
4, 8396, Note_on_c, 2, 64, 60
4, 8429, Note_off_c, 2, 66, 64
4, 8504, Note_off_c, 2, 64, 64
4, 8512, Note_on_c, 2, 62, 53
4, 8627, Note_off_c, 2, 62, 64
4, 8640, Note_on_c, 2, 61, 38
4, 8911, Note_off_c, 2, 61, 64
4, 9114, Note_on_c, 2, 61, 68
4, 9347, Note_on_c, 2, 62, 64
4, 9391, Note_off_c, 2, 61, 64
4, 9462, Note_on_c, 2, 64, 57
4, 9470, Note_off_c, 2, 62, 64
4, 9574, Note_off_c, 2, 64, 64
4, 9595, Note_on_c, 2, 66, 41
4, 9879, Note_off_c, 2, 66, 64
4, 10086, Note_on_c, 2, 71, 64
4, 10197, Note_off_c, 2, 71, 64
4, 10319, Note_on_c, 2, 66, 57
4, 10425, Note_off_c, 2, 66, 64
4, 10555, Note_on_c, 2, 59, 54
4, 10880, Note_off_c, 2, 59, 64
4, 11027, Note_on_c, 2, 70, 63
4, 11130, Note_off_c, 2, 70, 64
4, 11276, Note_on_c, 2, 66, 66
4, 11374, Note_off_c, 2, 66, 64
4, 11512, Note_on_c, 2, 58, 59
4, 11844, Note_off_c, 2, 58, 64
4, 11987, Note_on_c, 2, 66, 70
4, 12226, Note_on_c, 2, 64, 57
4, 12258, Note_off_c, 2, 66, 64
4, 12337, Note_on_c, 2, 62, 62
4, 12343, Note_off_c, 2, 64, 64
4, 12446, Note_off_c, 2, 62, 64
4, 12462, Note_on_c, 2, 61, 47
4, 12758, Note_off_c, 2, 61, 64
4, 12947, Note_on_c, 2, 61, 68
4, 13178, Note_on_c, 2, 62, 64
4, 13200, Note_off_c, 2, 61, 64
4, 13295, Note_off_c, 2, 62, 64
4, 13300, Note_on_c, 2, 64, 59
4, 13413, Note_off_c, 2, 64, 64
4, 13422, Note_on_c, 2, 66, 56
4, 13742, Note_off_c, 2, 66, 64
4, 13905, Note_on_c, 2, 66, 58
4, 14038, Note_off_c, 2, 66, 64
4, 14140, Note_on_c, 2, 64, 53
4, 14262, Note_off_c, 2, 64, 64
4, 14390, Note_on_c, 2, 62, 61
4, 14493, Note_on_c, 2, 61, 59
4, 14499, Note_off_c, 2, 62, 64
4, 14602, Note_off_c, 2, 61, 64
4, 14616, Note_on_c, 2, 62, 58
4, 14713, Note_off_c, 2, 62, 64
4, 14726, Note_on_c, 2, 59, 58
4, 14846, Note_off_c, 2, 59, 64
4, 14859, Note_on_c, 2, 64, 66
4, 14987, Note_off_c, 2, 64, 64
4, 15120, Note_on_c, 2, 61, 56
4, 15225, Note_off_c, 2, 61, 64
4, 15363, Note_on_c, 2, 62, 53
4, 15640, Note_off_c, 2, 62, 64
4, 35038, Note_on_c, 2, 59, 61
4, 35152, Note_off_c, 2, 59, 64
4, 35272, Note_on_c, 2, 66, 60
4, 35378, Note_off_c, 2, 66, 64
4, 35509, Note_on_c, 2, 64, 57
4, 35625, Note_off_c, 2, 64, 64
4, 35752, Note_on_c, 2, 64, 63
4, 35857, Note_off_c, 2, 64, 64
4, 35994, Note_on_c, 2, 66, 64
4, 36104, Note_off_c, 2, 66, 64
4, 36235, Note_on_c, 2, 64, 52
4, 36346, Note_off_c, 2, 64, 64
4, 36474, Note_on_c, 2, 64, 62
4, 36579, Note_on_c, 2, 62, 59
4, 36592, Note_off_c, 2, 64, 64
4, 36641, Note_off_c, 2, 62, 64
4, 36707, Note_on_c, 2, 61, 59
4, 36815, Note_on_c, 2, 62, 64
4, 36829, Note_off_c, 2, 61, 64
4, 36867, Note_off_c, 2, 62, 64
4, 36942, Note_on_c, 2, 64, 66
4, 37045, Note_off_c, 2, 64, 64
4, 37182, Note_on_c, 2, 69, 60
4, 37287, Note_off_c, 2, 69, 64
4, 37415, Note_on_c, 2, 61, 64
4, 37512, Note_off_c, 2, 61, 64
4, 37654, Note_on_c, 2, 57, 66
4, 37762, Note_off_c, 2, 57, 64
4, 37903, Note_on_c, 2, 61, 66
4, 38002, Note_off_c, 2, 61, 64
4, 38139, Note_on_c, 2, 69, 61
4, 38258, Note_off_c, 2, 69, 64
4, 38396, Note_on_c, 2, 69, 62
4, 38860, Note_off_c, 2, 69, 64
4, 42715, Note_on_c, 2, 66, 70
4, 42939, Note_on_c, 2, 68, 45
4, 42962, Note_off_c, 2, 66, 64
4, 43042, Note_off_c, 2, 68, 64
4, 43184, Note_on_c, 2, 61, 51
4, 43470, Note_off_c, 2, 61, 64
4, 43672, Note_on_c, 2, 71, 70
4, 43911, Note_on_c, 2, 69, 59
4, 43913, Note_off_c, 2, 71, 64
4, 44008, Note_off_c, 2, 69, 64
4, 44147, Note_on_c, 2, 68, 44
4, 44442, Note_off_c, 2, 68, 64
4, 44616, Note_on_c, 2, 66, 63
4, 44744, Note_off_c, 2, 66, 64
4, 44865, Note_on_c, 2, 65, 47
4, 44961, Note_off_c, 2, 65, 64
4, 45096, Note_on_c, 2, 66, 60
4, 45207, Note_off_c, 2, 66, 64
4, 45346, Note_on_c, 2, 69, 59
4, 45440, Note_off_c, 2, 69, 64
4, 45586, Note_on_c, 2, 74, 66
4, 45695, Note_off_c, 2, 74, 64
4, 45817, Note_on_c, 2, 73, 64
4, 45918, Note_off_c, 2, 73, 64
4, 46066, Note_on_c, 2, 73, 66
4, 46181, Note_on_c, 2, 71, 66
4, 46200, Note_off_c, 2, 73, 64
4, 46290, Note_off_c, 2, 71, 64
4, 46303, Note_on_c, 2, 70, 54
4, 46403, Note_on_c, 2, 68, 47
4, 46408, Note_off_c, 2, 70, 64
4, 46469, Note_off_c, 2, 68, 64
4, 46538, Note_on_c, 2, 66, 59
4, 46641, Note_off_c, 2, 66, 64
4, 46800, Note_on_c, 2, 66, 47
4, 46877, Note_off_c, 2, 66, 64
4, 47037, Note_on_c, 2, 66, 47
4, 47127, Note_off_c, 2, 66, 64
4, 47271, Note_on_c, 2, 66, 52
4, 47349, Note_off_c, 2, 66, 64
4, 47497, Note_on_c, 2, 66, 57
4, 47602, Note_off_c, 2, 66, 64
4, 47757, Note_on_c, 2, 66, 53
4, 47863, Note_off_c, 2, 66, 64
4, 47998, Note_on_c, 2, 66, 60
4, 48109, Note_on_c, 2, 64, 57
4, 48132, Note_off_c, 2, 66, 64
4, 48217, Note_on_c, 2, 62, 62
4, 48223, Note_off_c, 2, 64, 64
4, 48337, Note_on_c, 2, 64, 66
4, 48353, Note_off_c, 2, 62, 64
4, 48421, Note_off_c, 2, 64, 64
4, 48467, Note_on_c, 2, 66, 59
4, 48578, Note_off_c, 2, 66, 64
4, 48709, Note_on_c, 2, 66, 52
4, 48801, Note_off_c, 2, 66, 64
4, 48937, Note_on_c, 2, 66, 58
4, 49032, Note_off_c, 2, 66, 64
4, 49173, Note_on_c, 2, 66, 55
4, 49275, Note_off_c, 2, 66, 64
4, 49419, Note_on_c, 2, 66, 54
4, 49506, Note_off_c, 2, 66, 64
4, 49664, Note_on_c, 2, 66, 55
4, 49753, Note_off_c, 2, 66, 64
4, 49918, Note_on_c, 2, 66, 47
4, 50217, Note_off_c, 2, 66, 64
4, 50400, Note_on_c, 2, 66, 66
4, 50642, Note_on_c, 2, 64, 62
4, 50649, Note_off_c, 2, 66, 64
4, 50741, Note_off_c, 2, 64, 64
4, 50746, Note_on_c, 2, 62, 43
4, 50830, Note_off_c, 2, 62, 64
4, 50873, Note_on_c, 2, 61, 52
4, 51139, Note_off_c, 2, 61, 64
4, 51351, Note_on_c, 2, 61, 63
4, 51584, Note_on_c, 2, 62, 59
4, 51617, Note_off_c, 2, 61, 64
4, 51701, Note_on_c, 2, 64, 57
4, 51703, Note_off_c, 2, 62, 64
4, 51822, Note_off_c, 2, 64, 64
4, 51847, Note_on_c, 2, 66, 36
4, 52096, Note_off_c, 2, 66, 64
4, 52319, Note_on_c, 2, 71, 61
4, 52430, Note_off_c, 2, 71, 64
4, 52554, Note_on_c, 2, 66, 57
4, 52652, Note_off_c, 2, 66, 64
4, 52798, Note_on_c, 2, 59, 52
4, 53098, Note_off_c, 2, 59, 64
4, 53254, Note_on_c, 2, 70, 68
4, 53374, Note_off_c, 2, 70, 64
4, 53506, Note_on_c, 2, 66, 70
4, 53599, Note_off_c, 2, 66, 64
4, 53753, Note_on_c, 2, 58, 55
4, 54036, Note_off_c, 2, 58, 64
4, 54237, Note_on_c, 2, 66, 66
4, 54465, Note_on_c, 2, 64, 56
4, 54499, Note_off_c, 2, 66, 64
4, 54573, Note_on_c, 2, 62, 59
4, 54578, Note_off_c, 2, 64, 64
4, 54671, Note_off_c, 2, 62, 64
4, 54703, Note_on_c, 2, 61, 42
4, 54983, Note_off_c, 2, 61, 64
4, 55181, Note_on_c, 2, 61, 70
4, 55413, Note_on_c, 2, 62, 64
4, 55438, Note_off_c, 2, 61, 64
4, 55519, Note_on_c, 2, 64, 64
4, 55532, Note_off_c, 2, 62, 64
4, 55633, Note_off_c, 2, 64, 64
4, 55663, Note_on_c, 2, 66, 43
4, 55954, Note_off_c, 2, 66, 64
4, 56137, Note_on_c, 2, 66, 61
4, 56251, Note_off_c, 2, 66, 64
4, 56379, Note_on_c, 2, 64, 54
4, 56494, Note_off_c, 2, 64, 64
4, 56624, Note_on_c, 2, 62, 62
4, 56731, Note_on_c, 2, 61, 57
4, 56737, Note_off_c, 2, 62, 64
4, 56834, Note_off_c, 2, 61, 64
4, 56859, Note_on_c, 2, 62, 70
4, 56956, Note_off_c, 2, 62, 64
4, 56967, Note_on_c, 2, 59, 62
4, 57068, Note_off_c, 2, 59, 64
4, 57095, Note_on_c, 2, 64, 68
4, 57209, Note_off_c, 2, 64, 64
4, 57348, Note_on_c, 2, 61, 56
4, 57439, Note_off_c, 2, 61, 64
4, 57581, Note_on_c, 2, 62, 54
4, 58066, Note_off_c, 2, 62, 64
4, 58066, End_track
5, 0, Start_track
5, 0, Title_t, "Cello"
5, 0, Program_c, 3, 42
5, 0, Control_c, 3, 7, 100
5, 462, Note_on_c, 3, 59, 53
5, 1191, Note_off_c, 3, 59, 64
5, 1199, Note_on_c, 3, 58, 51
5, 1311, Note_on_c, 3, 59, 72
5, 1326, Note_off_c, 3, 58, 64
5, 1421, Note_off_c, 3, 59, 64
5, 1433, Note_on_c, 3, 61, 51
5, 2125, Note_off_c, 3, 61, 64
5, 2159, Note_on_c, 3, 59, 60
5, 2257, Note_on_c, 3, 61, 58
5, 2275, Note_off_c, 3, 59, 64
5, 2393, Note_on_c, 3, 62, 80
5, 2398, Note_off_c, 3, 61, 64
5, 2503, Note_off_c, 3, 62, 64
5, 2621, Note_on_c, 3, 59, 37
5, 2774, Note_off_c, 3, 59, 64
5, 2873, Note_on_c, 3, 54, 48
5, 3190, Note_off_c, 3, 54, 64
5, 3337, Note_on_c, 3, 61, 64
5, 3486, Note_off_c, 3, 61, 64
5, 3580, Note_on_c, 3, 58, 63
5, 3695, Note_off_c, 3, 58, 64
5, 3838, Note_on_c, 3, 54, 44
5, 4158, Note_off_c, 3, 54, 64
5, 4297, Note_on_c, 3, 59, 56
5, 5024, Note_off_c, 3, 59, 64
5, 5039, Note_on_c, 3, 58, 50
5, 5140, Note_on_c, 3, 59, 61
5, 5161, Note_off_c, 3, 58, 64
5, 5257, Note_off_c, 3, 59, 64
5, 5270, Note_on_c, 3, 61, 53
5, 5953, Note_off_c, 3, 61, 64
5, 5999, Note_on_c, 3, 59, 64
5, 6103, Note_on_c, 3, 61, 57
5, 6124, Note_off_c, 3, 59, 64
5, 6220, Note_off_c, 3, 61, 64
5, 6236, Note_on_c, 3, 62, 66
5, 6358, Note_off_c, 3, 62, 64
5, 6473, Note_on_c, 3, 58, 57
5, 6593, Note_off_c, 3, 58, 64
5, 6718, Note_on_c, 3, 59, 63
5, 6830, Note_off_c, 3, 59, 64
5, 6970, Note_on_c, 3, 55, 61
5, 7077, Note_off_c, 3, 55, 64
5, 7199, Note_on_c, 3, 52, 64
5, 7307, Note_off_c, 3, 52, 64
5, 7438, Note_on_c, 3, 54, 58
5, 7535, Note_off_c, 3, 54, 64
5, 7689, Note_on_c, 3, 47, 56
5, 7977, Note_off_c, 3, 47, 64
5, 8160, Note_on_c, 3, 59, 58
5, 8856, Note_off_c, 3, 59, 64
5, 8867, Note_on_c, 3, 58, 55
5, 8972, Note_on_c, 3, 59, 61
5, 8983, Note_off_c, 3, 58, 64
5, 9091, Note_off_c, 3, 59, 64
5, 9106, Note_on_c, 3, 61, 56
5, 9781, Note_off_c, 3, 61, 64
5, 9824, Note_on_c, 3, 59, 56
5, 9922, Note_on_c, 3, 61, 55
5, 9943, Note_off_c, 3, 59, 64
5, 10049, Note_off_c, 3, 61, 64
5, 10060, Note_on_c, 3, 62, 68
5, 10190, Note_off_c, 3, 62, 64
5, 10320, Note_on_c, 3, 59, 56
5, 10434, Note_off_c, 3, 59, 64
5, 10557, Note_on_c, 3, 54, 43
5, 10877, Note_off_c, 3, 54, 64
5, 11026, Note_on_c, 3, 61, 61
5, 11148, Note_off_c, 3, 61, 64
5, 11267, Note_on_c, 3, 58, 64
5, 11360, Note_off_c, 3, 58, 64
5, 11512, Note_on_c, 3, 54, 57
5, 11807, Note_off_c, 3, 54, 64
5, 11994, Note_on_c, 3, 59, 62
5, 12672, Note_off_c, 3, 59, 64
5, 12713, Note_on_c, 3, 58, 59
5, 12822, Note_on_c, 3, 59, 68
5, 12838, Note_off_c, 3, 58, 64
5, 12941, Note_off_c, 3, 59, 64
5, 12951, Note_on_c, 3, 61, 46
5, 13636, Note_off_c, 3, 61, 64
5, 13660, Note_on_c, 3, 59, 62
5, 13766, Note_on_c, 3, 61, 57
5, 13787, Note_off_c, 3, 59, 64
5, 13888, Note_off_c, 3, 61, 64
5, 13900, Note_on_c, 3, 62, 70
5, 14023, Note_off_c, 3, 62, 64
5, 14147, Note_on_c, 3, 58, 62
5, 14264, Note_off_c, 3, 58, 64
5, 14395, Note_on_c, 3, 59, 63
5, 14495, Note_off_c, 3, 59, 64
5, 14638, Note_on_c, 3, 55, 68
5, 14738, Note_off_c, 3, 55, 64
5, 14875, Note_on_c, 3, 52, 66
5, 14975, Note_off_c, 3, 52, 64
5, 15116, Note_on_c, 3, 54, 55
5, 15216, Note_off_c, 3, 54, 64
5, 15371, Note_on_c, 3, 47, 60
5, 15729, Note_off_c, 3, 47, 64
5, 35031, Note_on_c, 3, 59, 60
5, 35145, Note_off_c, 3, 59, 64
5, 35247, Note_on_c, 3, 57, 50
5, 35356, Note_off_c, 3, 57, 64
5, 35516, Note_on_c, 3, 56, 57
5, 35611, Note_off_c, 3, 56, 64
5, 35754, Note_on_c, 3, 57, 62
5, 35858, Note_off_c, 3, 57, 64
5, 35987, Note_on_c, 3, 50, 58
5, 36091, Note_off_c, 3, 50, 64
5, 36226, Note_on_c, 3, 52, 57
5, 36314, Note_off_c, 3, 52, 64
5, 36470, Note_on_c, 3, 45, 61
5, 36581, Note_off_c, 3, 45, 64
5, 36691, Note_on_c, 3, 57, 58
5, 36812, Note_off_c, 3, 57, 64
5, 36939, Note_on_c, 3, 55, 60
5, 37041, Note_off_c, 3, 55, 64
5, 37187, Note_on_c, 3, 54, 59
5, 37293, Note_off_c, 3, 54, 64
5, 37430, Note_on_c, 3, 52, 66
5, 37523, Note_off_c, 3, 52, 64
5, 37653, Note_on_c, 3, 49, 57
5, 37748, Note_off_c, 3, 49, 64
5, 37894, Note_on_c, 3, 45, 64
5, 37980, Note_off_c, 3, 45, 64
5, 38128, Note_on_c, 3, 57, 74
5, 38209, Note_off_c, 3, 57, 64
5, 38398, Note_on_c, 3, 50, 57
5, 38879, Note_off_c, 3, 50, 64
5, 42723, Note_on_c, 3, 57, 68
5, 42826, Note_on_c, 3, 59, 66
5, 42842, Note_off_c, 3, 57, 64
5, 42936, Note_off_c, 3, 59, 64
5, 42942, Note_on_c, 3, 57, 61
5, 43048, Note_on_c, 3, 56, 57
5, 43053, Note_off_c, 3, 57, 64
5, 43146, Note_off_c, 3, 56, 64
5, 43189, Note_on_c, 3, 54, 59
5, 43301, Note_on_c, 3, 56, 64
5, 43325, Note_off_c, 3, 54, 64
5, 43393, Note_off_c, 3, 56, 64
5, 43408, Note_on_c, 3, 57, 68
5, 43522, Note_off_c, 3, 57, 64
5, 43526, Note_on_c, 3, 54, 50
5, 43610, Note_off_c, 3, 54, 64
5, 43645, Note_on_c, 3, 56, 57
5, 43759, Note_on_c, 3, 57, 68
5, 43777, Note_off_c, 3, 56, 64
5, 43894, Note_on_c, 3, 56, 58
5, 43899, Note_off_c, 3, 57, 64
5, 44009, Note_off_c, 3, 56, 64
5, 44016, Note_on_c, 3, 54, 55
5, 44103, Note_off_c, 3, 54, 64
5, 44144, Note_on_c, 3, 53, 66
5, 44250, Note_on_c, 3, 54, 58
5, 44279, Note_off_c, 3, 53, 64
5, 44341, Note_off_c, 3, 54, 64
5, 44366, Note_on_c, 3, 56, 56
5, 44469, Note_off_c, 3, 56, 64
5, 44478, Note_on_c, 3, 53, 58
5, 44562, Note_off_c, 3, 53, 64
5, 44611, Note_on_c, 3, 54, 59
5, 44716, Note_off_c, 3, 54, 64
5, 44863, Note_on_c, 3, 49, 57
5, 44961, Note_off_c, 3, 49, 64
5, 45109, Note_on_c, 3, 50, 66
5, 45216, Note_off_c, 3, 50, 64
5, 45343, Note_on_c, 3, 62, 68
5, 45440, Note_off_c, 3, 62, 64
5, 45579, Note_on_c, 3, 59, 64
5, 45674, Note_off_c, 3, 59, 64
5, 45831, Note_on_c, 3, 61, 64
5, 45904, Note_off_c, 3, 61, 64
5, 46080, Note_on_c, 3, 54, 53
5, 46553, Note_off_c, 3, 54, 64
5, 50026, Note_on_c, 3, 64, 64
5, 50135, Note_on_c, 3, 62, 68
5, 50186, Note_off_c, 3, 64, 64
5, 50235, Note_on_c, 3, 61, 45
5, 50241, Note_off_c, 3, 62, 64
5, 50356, Note_on_c, 3, 59, 55
5, 50372, Note_off_c, 3, 61, 64
5, 51106, Note_off_c, 3, 59, 64
5, 51109, Note_on_c, 3, 58, 58
5, 51196, Note_off_c, 3, 58, 64
5, 51212, Note_on_c, 3, 59, 66
5, 51335, Note_off_c, 3, 59, 64
5, 51364, Note_on_c, 3, 61, 39
5, 52015, Note_off_c, 3, 61, 64
5, 52058, Note_on_c, 3, 59, 53
5, 52164, Note_on_c, 3, 61, 57
5, 52194, Note_off_c, 3, 59, 64
5, 52302, Note_off_c, 3, 61, 64
5, 52303, Note_on_c, 3, 62, 66
5, 52430, Note_off_c, 3, 62, 64
5, 52571, Note_on_c, 3, 59, 47
5, 52690, Note_off_c, 3, 59, 64
5, 52807, Note_on_c, 3, 54, 53
5, 53122, Note_off_c, 3, 54, 64
5, 53268, Note_on_c, 3, 61, 57
5, 53394, Note_off_c, 3, 61, 64
5, 53515, Note_on_c, 3, 58, 59
5, 53618, Note_off_c, 3, 58, 64
5, 53759, Note_on_c, 3, 54, 48
5, 54100, Note_off_c, 3, 54, 64
5, 54233, Note_on_c, 3, 59, 48
5, 54928, Note_on_c, 3, 58, 52
5, 54933, Note_off_c, 3, 59, 64
5, 55036, Note_on_c, 3, 59, 57
5, 55063, Note_off_c, 3, 58, 64
5, 55169, Note_off_c, 3, 59, 64
5, 55193, Note_on_c, 3, 61, 50
5, 55806, Note_off_c, 3, 61, 64
5, 55893, Note_on_c, 3, 59, 55
5, 56002, Note_on_c, 3, 61, 58
5, 56027, Note_off_c, 3, 59, 64
5, 56124, Note_off_c, 3, 61, 64
5, 56141, Note_on_c, 3, 62, 66
5, 56254, Note_off_c, 3, 62, 64
5, 56379, Note_on_c, 3, 58, 58
5, 56476, Note_off_c, 3, 58, 64
5, 56624, Note_on_c, 3, 59, 66
5, 56724, Note_off_c, 3, 59, 64
5, 56867, Note_on_c, 3, 55, 62
5, 56956, Note_off_c, 3, 55, 64
5, 57103, Note_on_c, 3, 52, 63
5, 57198, Note_off_c, 3, 52, 64
5, 57340, Note_on_c, 3, 54, 64
5, 57435, Note_off_c, 3, 54, 64
5, 57597, Note_on_c, 3, 47, 50
5, 58079, Note_off_c, 3, 47, 64
5, 58079, End_track
6, 0, Start_track
6, 0, Title_t, "Flute"
6, 0, Program_c, 4, 73
6, 0, Control_c, 4, 7, 127
6, 470, Note_on_c, 4, 74, 68
6, 708, Note_on_c, 4, 73, 50
6, 722, Note_off_c, 4, 74, 64
6, 833, Note_off_c, 4, 73, 64
6, 960, Note_on_c, 4, 66, 46
6, 1262, Note_off_c, 4, 66, 64
6, 1421, Note_on_c, 4, 76, 78
6, 1668, Note_on_c, 4, 74, 52
6, 1691, Note_off_c, 4, 76, 64
6, 1784, Note_off_c, 4, 74, 64
6, 1923, Note_on_c, 4, 66, 43
6, 2232, Note_off_c, 4, 66, 64
6, 2389, Note_on_c, 4, 78, 60
6, 2498, Note_off_c, 4, 78, 64
6, 2509, Note_on_c, 4, 76, 59
6, 2620, Note_off_c, 4, 76, 64
6, 2626, Note_on_c, 4, 78, 53
6, 2735, Note_off_c, 4, 78, 64
6, 2742, Note_on_c, 4, 79, 62
6, 2838, Note_off_c, 4, 79, 64
6, 2862, Note_on_c, 4, 78, 56
6, 2979, Note_on_c, 4, 76, 53
6, 2989, Note_off_c, 4, 78, 64
6, 3086, Note_off_c, 4, 76, 64
6, 3103, Note_on_c, 4, 74, 57
6, 3215, Note_off_c, 4, 74, 64
6, 3222, Note_on_c, 4, 78, 58
6, 3323, Note_off_c, 4, 78, 64
6, 3337, Note_on_c, 4, 76, 59
6, 3450, Note_on_c, 4, 74, 57
6, 3461, Note_off_c, 4, 76, 64
6, 3562, Note_off_c, 4, 74, 64
6, 3577, Note_on_c, 4, 76, 60
6, 3694, Note_on_c, 4, 78, 59
6, 3710, Note_off_c, 4, 76, 64
6, 3803, Note_off_c, 4, 78, 64
6, 3824, Note_on_c, 4, 76, 70
6, 3936, Note_on_c, 4, 74, 58
6, 3939, Note_off_c, 4, 76, 64
6, 4066, Note_off_c, 4, 74, 64
6, 4069, Note_on_c, 4, 73, 42
6, 4171, Note_off_c, 4, 73, 64
6, 4182, Note_on_c, 4, 76, 58
6, 4272, Note_off_c, 4, 76, 64
6, 4302, Note_on_c, 4, 74, 63
6, 4546, Note_off_c, 4, 74, 64
6, 4548, Note_on_c, 4, 73, 31
6, 4663, Note_off_c, 4, 73, 64
6, 4807, Note_on_c, 4, 66, 49
6, 5115, Note_off_c, 4, 66, 64
6, 5251, Note_on_c, 4, 76, 72
6, 5501, Note_on_c, 4, 74, 52
6, 5504, Note_off_c, 4, 76, 64
6, 5635, Note_off_c, 4, 74, 64
6, 5758, Note_on_c, 4, 66, 51
6, 6059, Note_off_c, 4, 66, 64
6, 6220, Note_on_c, 4, 78, 64
6, 6338, Note_on_c, 4, 76, 66
6, 6342, Note_off_c, 4, 78, 64
6, 6445, Note_off_c, 4, 76, 64
6, 6464, Note_on_c, 4, 78, 53
6, 6580, Note_on_c, 4, 79, 68
6, 6588, Note_off_c, 4, 78, 64
6, 6673, Note_off_c, 4, 79, 64
6, 6708, Note_on_c, 4, 78, 48
6, 6827, Note_off_c, 4, 78, 64
6, 6946, Note_on_c, 4, 71, 57
6, 7047, Note_off_c, 4, 71, 64
6, 7190, Note_on_c, 4, 73, 51
6, 7286, Note_off_c, 4, 73, 64
6, 7424, Note_on_c, 4, 70, 49
6, 7524, Note_off_c, 4, 70, 64
6, 7665, Note_on_c, 4, 71, 51
6, 7974, Note_off_c, 4, 71, 64
6, 8134, Note_on_c, 4, 74, 64
6, 8395, Note_on_c, 4, 73, 40
6, 8396, Note_off_c, 4, 74, 64
6, 8514, Note_off_c, 4, 73, 64
6, 8645, Note_on_c, 4, 66, 54
6, 8969, Note_off_c, 4, 66, 64
6, 9097, Note_on_c, 4, 76, 70
6, 9350, Note_on_c, 4, 74, 52
6, 9371, Note_off_c, 4, 76, 64
6, 9469, Note_off_c, 4, 74, 64
6, 9604, Note_on_c, 4, 66, 45
6, 9909, Note_off_c, 4, 66, 64
6, 10063, Note_on_c, 4, 78, 64
6, 10182, Note_on_c, 4, 76, 72
6, 10187, Note_off_c, 4, 78, 64
6, 10279, Note_off_c, 4, 76, 64
6, 10296, Note_on_c, 4, 78, 57
6, 10415, Note_on_c, 4, 79, 64
6, 10421, Note_off_c, 4, 78, 64
6, 10529, Note_off_c, 4, 79, 64
6, 10545, Note_on_c, 4, 78, 60
6, 10668, Note_on_c, 4, 76, 58
6, 10679, Note_off_c, 4, 78, 64
6, 10771, Note_off_c, 4, 76, 64
6, 10782, Note_on_c, 4, 74, 66
6, 10892, Note_off_c, 4, 74, 64
6, 10892, Note_on_c, 4, 78, 60
6, 11021, Note_off_c, 4, 78, 64
6, 11028, Note_on_c, 4, 76, 66
6, 11142, Note_on_c, 4, 74, 66
6, 11161, Note_off_c, 4, 76, 64
6, 11265, Note_on_c, 4, 76, 56
6, 11278, Note_off_c, 4, 74, 64
6, 11386, Note_on_c, 4, 78, 59
6, 11397, Note_off_c, 4, 76, 64
6, 11503, Note_off_c, 4, 78, 64
6, 11508, Note_on_c, 4, 76, 62
6, 11628, Note_on_c, 4, 74, 49
6, 11630, Note_off_c, 4, 76, 64
6, 11753, Note_on_c, 4, 73, 50
6, 11756, Note_off_c, 4, 74, 64
6, 11858, Note_off_c, 4, 73, 64
6, 11863, Note_on_c, 4, 76, 60
6, 11951, Note_off_c, 4, 76, 64
6, 11983, Note_on_c, 4, 74, 60
6, 12241, Note_off_c, 4, 74, 64
6, 12246, Note_on_c, 4, 73, 33
6, 12355, Note_off_c, 4, 73, 64
6, 12476, Note_on_c, 4, 66, 51
6, 12795, Note_off_c, 4, 66, 64
6, 12943, Note_on_c, 4, 76, 66
6, 13195, Note_on_c, 4, 74, 53
6, 13196, Note_off_c, 4, 76, 64
6, 13327, Note_off_c, 4, 74, 64
6, 13443, Note_on_c, 4, 66, 47
6, 13778, Note_off_c, 4, 66, 64
6, 13901, Note_on_c, 4, 78, 60
6, 14026, Note_on_c, 4, 76, 66
6, 14031, Note_off_c, 4, 78, 64
6, 14115, Note_off_c, 4, 76, 64
6, 14146, Note_on_c, 4, 78, 55
6, 14258, Note_on_c, 4, 79, 66
6, 14270, Note_off_c, 4, 78, 64
6, 14349, Note_off_c, 4, 79, 64
6, 14391, Note_on_c, 4, 78, 55
6, 14488, Note_off_c, 4, 78, 64
6, 14623, Note_on_c, 4, 71, 57
6, 14730, Note_off_c, 4, 71, 64
6, 14871, Note_on_c, 4, 73, 51
6, 14973, Note_off_c, 4, 73, 64
6, 15116, Note_on_c, 4, 70, 54
6, 15225, Note_off_c, 4, 70, 64
6, 15363, Note_on_c, 4, 71, 53
6, 15632, Note_off_c, 4, 71, 64
6, 35036, Note_on_c, 4, 74, 68
6, 35145, Note_on_c, 4, 73, 50
6, 35163, Note_off_c, 4, 74, 64
6, 35223, Note_off_c, 4, 73, 64
6, 35264, Note_on_c, 4, 74, 63
6, 35380, Note_on_c, 4, 76, 61
6, 35385, Note_off_c, 4, 74, 64
6, 35454, Note_off_c, 4, 76, 64
6, 35508, Note_on_c, 4, 74, 64
6, 35621, Note_on_c, 4, 76, 66
6, 35648, Note_off_c, 4, 74, 64
6, 35682, Note_off_c, 4, 76, 64
6, 35735, Note_on_c, 4, 74, 58
6, 35847, Note_on_c, 4, 73, 53
6, 35855, Note_off_c, 4, 74, 64
6, 35952, Note_off_c, 4, 73, 64
6, 35987, Note_on_c, 4, 71, 61
6, 36102, Note_on_c, 4, 73, 52
6, 36121, Note_off_c, 4, 71, 64
6, 36180, Note_off_c, 4, 73, 64
6, 36224, Note_on_c, 4, 74, 68
6, 36335, Note_off_c, 4, 74, 64
6, 36341, Note_on_c, 4, 71, 57
6, 36424, Note_off_c, 4, 71, 64
6, 36470, Note_on_c, 4, 73, 59
6, 36585, Note_on_c, 4, 71, 59
6, 36612, Note_off_c, 4, 73, 64
6, 36658, Note_off_c, 4, 71, 64
6, 36704, Note_on_c, 4, 69, 64
6, 36815, Note_on_c, 4, 71, 59
6, 36829, Note_off_c, 4, 69, 64
6, 36897, Note_off_c, 4, 71, 64
6, 36940, Note_on_c, 4, 73, 58
6, 37045, Note_off_c, 4, 73, 64
6, 37049, Note_on_c, 4, 74, 58
6, 37126, Note_off_c, 4, 74, 64
6, 37170, Note_on_c, 4, 76, 58
6, 37273, Note_on_c, 4, 78, 57
6, 37285, Note_off_c, 4, 76, 64
6, 37359, Note_off_c, 4, 78, 64
6, 37409, Note_on_c, 4, 79, 78
6, 37531, Note_on_c, 4, 81, 63
6, 37544, Note_off_c, 4, 79, 64
6, 37613, Note_off_c, 4, 81, 64
6, 37656, Note_on_c, 4, 79, 62
6, 37775, Note_off_c, 4, 79, 64
6, 37780, Note_on_c, 4, 78, 57
6, 37854, Note_off_c, 4, 78, 64
6, 37902, Note_on_c, 4, 79, 68
6, 38014, Note_on_c, 4, 78, 57
6, 38017, Note_off_c, 4, 79, 64
6, 38096, Note_off_c, 4, 78, 64
6, 38139, Note_on_c, 4, 76, 62
6, 38252, Note_off_c, 4, 76, 64
6, 38260, Note_on_c, 4, 79, 70
6, 38326, Note_off_c, 4, 79, 64
6, 38383, Note_on_c, 4, 78, 59
6, 38500, Note_on_c, 4, 79, 68
6, 38526, Note_off_c, 4, 78, 64
6, 38589, Note_off_c, 4, 79, 64
6, 38629, Note_on_c, 4, 81, 66
6, 38727, Note_off_c, 4, 81, 64
6, 38738, Note_on_c, 4, 78, 52
6, 38806, Note_off_c, 4, 78, 64
6, 38865, Note_on_c, 4, 83, 70
6, 38982, Note_on_c, 4, 81, 68
6, 38986, Note_off_c, 4, 83, 64
6, 39076, Note_off_c, 4, 81, 64
6, 39105, Note_on_c, 4, 80, 56
6, 39216, Note_off_c, 4, 80, 64
6, 39218, Note_on_c, 4, 78, 55
6, 39332, Note_off_c, 4, 78, 64
6, 39346, Note_on_c, 4, 76, 61
6, 39457, Note_on_c, 4, 74, 55
6, 39479, Note_off_c, 4, 76, 64
6, 39566, Note_off_c, 4, 74, 64
6, 39585, Note_on_c, 4, 73, 39
6, 39685, Note_off_c, 4, 73, 64
6, 39692, Note_on_c, 4, 71, 63
6, 39761, Note_off_c, 4, 71, 64
6, 39821, Note_on_c, 4, 81, 70
6, 39928, Note_on_c, 4, 80, 63
6, 39939, Note_off_c, 4, 81, 64
6, 40040, Note_off_c, 4, 80, 64
6, 40043, Note_on_c, 4, 78, 51
6, 40159, Note_on_c, 4, 76, 60
6, 40160, Note_off_c, 4, 78, 64
6, 40284, Note_off_c, 4, 76, 64
6, 40289, Note_on_c, 4, 74, 57
6, 40393, Note_on_c, 4, 73, 46
6, 40400, Note_off_c, 4, 74, 64
6, 40517, Note_on_c, 4, 71, 52
6, 40523, Note_off_c, 4, 73, 64
6, 40621, Note_off_c, 4, 71, 64
6, 40643, Note_on_c, 4, 69, 57
6, 40701, Note_off_c, 4, 69, 64
6, 40773, Note_on_c, 4, 80, 58
6, 40895, Note_on_c, 4, 78, 53
6, 40910, Note_off_c, 4, 80, 64
6, 41014, Note_on_c, 4, 77, 58
6, 41019, Note_off_c, 4, 78, 64
6, 41109, Note_off_c, 4, 77, 64
6, 41122, Note_on_c, 4, 78, 57
6, 41190, Note_off_c, 4, 78, 64
6, 41256, Note_on_c, 4, 80, 63
6, 41347, Note_off_c, 4, 80, 64
6, 41494, Note_on_c, 4, 73, 58
6, 41594, Note_off_c, 4, 73, 64
6, 41744, Note_on_c, 4, 85, 70
6, 41944, Note_off_c, 4, 85, 64
6, 41980, Note_on_c, 4, 83, 60
6, 42079, Note_off_c, 4, 83, 64
6, 42098, Note_on_c, 4, 81, 55
6, 42157, Note_off_c, 4, 81, 64
6, 42226, Note_on_c, 4, 81, 63
6, 42444, Note_off_c, 4, 81, 64
6, 42452, Note_on_c, 4, 80, 35
6, 42552, Note_off_c, 4, 80, 64
6, 42709, Note_on_c, 4, 73, 57
6, 42948, Note_on_c, 4, 71, 59
6, 42955, Note_off_c, 4, 73, 64
6, 43059, Note_off_c, 4, 71, 64
6, 43206, Note_on_c, 4, 81, 54
6, 43493, Note_off_c, 4, 81, 64
6, 43667, Note_on_c, 4, 74, 72
6, 43899, Note_off_c, 4, 74, 64
6, 43907, Note_on_c, 4, 73, 53
6, 44046, Note_off_c, 4, 73, 64
6, 44160, Note_on_c, 4, 83, 76
6, 44448, Note_off_c, 4, 83, 64
6, 44632, Note_on_c, 4, 81, 85
6, 44744, Note_on_c, 4, 80, 64
6, 44757, Note_off_c, 4, 81, 64
6, 44833, Note_off_c, 4, 80, 64
6, 44859, Note_on_c, 4, 81, 68
6, 44973, Note_on_c, 4, 83, 66
6, 44977, Note_off_c, 4, 81, 64
6, 45050, Note_off_c, 4, 83, 64
6, 45099, Note_on_c, 4, 81, 66
6, 45204, Note_on_c, 4, 80, 57
6, 45219, Note_off_c, 4, 81, 64
6, 45308, Note_off_c, 4, 80, 64
6, 45335, Note_on_c, 4, 78, 58
6, 45424, Note_off_c, 4, 78, 64
6, 45443, Note_on_c, 4, 81, 64
6, 45536, Note_off_c, 4, 81, 64
6, 45570, Note_on_c, 4, 80, 68
6, 45684, Note_on_c, 4, 78, 58
6, 45704, Note_off_c, 4, 80, 64
6, 45772, Note_off_c, 4, 78, 64
6, 45801, Note_on_c, 4, 77, 64
6, 45902, Note_off_c, 4, 77, 64
6, 45921, Note_on_c, 4, 80, 59
6, 46001, Note_off_c, 4, 80, 64
6, 46056, Note_on_c, 4, 78, 53
6, 46347, Note_off_c, 4, 78, 64
6, 46542, Note_on_c, 4, 73, 58
6, 46655, Note_on_c, 4, 74, 70
6, 46686, Note_off_c, 4, 73, 64
6, 46777, Note_on_c, 4, 73, 55
6, 46786, Note_off_c, 4, 74, 64
6, 46891, Note_on_c, 4, 71, 52
6, 46915, Note_off_c, 4, 73, 64
6, 46976, Note_off_c, 4, 71, 64
6, 47018, Note_on_c, 4, 73, 53
6, 47120, Note_off_c, 4, 73, 64
6, 47265, Note_on_c, 4, 74, 64
6, 47349, Note_off_c, 4, 74, 64
6, 47504, Note_on_c, 4, 76, 63
6, 47594, Note_off_c, 4, 76, 64
6, 47752, Note_on_c, 4, 74, 58
6, 47848, Note_off_c, 4, 74, 64
6, 47988, Note_on_c, 4, 73, 57
6, 48084, Note_off_c, 4, 73, 64
6, 48229, Note_on_c, 4, 78, 62
6, 48307, Note_off_c, 4, 78, 64
6, 48467, Note_on_c, 4, 73, 59
6, 48578, Note_on_c, 4, 74, 70
6, 48616, Note_off_c, 4, 73, 64
6, 48700, Note_on_c, 4, 73, 55
6, 48714, Note_off_c, 4, 74, 64
6, 48809, Note_on_c, 4, 71, 63
6, 48817, Note_off_c, 4, 73, 64
6, 48925, Note_off_c, 4, 71, 64
6, 48937, Note_on_c, 4, 73, 53
6, 49031, Note_off_c, 4, 73, 64
6, 49181, Note_on_c, 4, 74, 63
6, 49272, Note_off_c, 4, 74, 64
6, 49420, Note_on_c, 4, 76, 68
6, 49515, Note_off_c, 4, 76, 64
6, 49669, Note_on_c, 4, 74, 66
6, 49766, Note_off_c, 4, 74, 64
6, 49916, Note_on_c, 4, 74, 64
6, 50154, Note_on_c, 4, 73, 42
6, 50168, Note_off_c, 4, 74, 64
6, 50254, Note_off_c, 4, 73, 64
6, 50399, Note_on_c, 4, 74, 66
6, 50621, Note_on_c, 4, 73, 48
6, 50639, Note_off_c, 4, 74, 64
6, 50745, Note_off_c, 4, 73, 64
6, 50873, Note_on_c, 4, 66, 43
6, 51169, Note_off_c, 4, 66, 64
6, 51356, Note_on_c, 4, 76, 72
6, 51597, Note_on_c, 4, 74, 54
6, 51633, Note_off_c, 4, 76, 64
6, 51711, Note_off_c, 4, 74, 64
6, 51852, Note_on_c, 4, 66, 39
6, 52129, Note_off_c, 4, 66, 64
6, 52319, Note_on_c, 4, 78, 70
6, 52427, Note_on_c, 4, 76, 60
6, 52436, Note_off_c, 4, 78, 64
6, 52544, Note_off_c, 4, 76, 64
6, 52552, Note_on_c, 4, 78, 53
6, 52660, Note_off_c, 4, 78, 64
6, 52673, Note_on_c, 4, 79, 66
6, 52763, Note_off_c, 4, 79, 64
6, 52794, Note_on_c, 4, 78, 58
6, 52902, Note_on_c, 4, 76, 64
6, 52910, Note_off_c, 4, 78, 64
6, 53013, Note_off_c, 4, 76, 64
6, 53019, Note_on_c, 4, 74, 57
6, 53140, Note_on_c, 4, 78, 57
6, 53151, Note_off_c, 4, 74, 64
6, 53239, Note_off_c, 4, 78, 64
6, 53262, Note_on_c, 4, 76, 68
6, 53373, Note_on_c, 4, 74, 58
6, 53388, Note_off_c, 4, 76, 64
6, 53491, Note_off_c, 4, 74, 64
6, 53506, Note_on_c, 4, 76, 59
6, 53618, Note_on_c, 4, 78, 52
6, 53642, Note_off_c, 4, 76, 64
6, 53724, Note_off_c, 4, 78, 64
6, 53743, Note_on_c, 4, 76, 64
6, 53865, Note_on_c, 4, 74, 57
6, 53871, Note_off_c, 4, 76, 64
6, 53982, Note_off_c, 4, 74, 64
6, 53990, Note_on_c, 4, 73, 33
6, 54082, Note_off_c, 4, 73, 64
6, 54098, Note_on_c, 4, 76, 60
6, 54184, Note_off_c, 4, 76, 64
6, 54225, Note_on_c, 4, 74, 64
6, 54459, Note_on_c, 4, 73, 45
6, 54465, Note_off_c, 4, 74, 64
6, 54567, Note_off_c, 4, 73, 64
6, 54708, Note_on_c, 4, 66, 49
6, 55017, Note_off_c, 4, 66, 64
6, 55183, Note_on_c, 4, 76, 78
6, 55427, Note_on_c, 4, 74, 51
6, 55435, Note_off_c, 4, 76, 64
6, 55547, Note_off_c, 4, 74, 64
6, 55666, Note_on_c, 4, 66, 51
6, 55956, Note_off_c, 4, 66, 64
6, 56148, Note_on_c, 4, 78, 66
6, 56260, Note_on_c, 4, 76, 59
6, 56289, Note_off_c, 4, 78, 64
6, 56384, Note_on_c, 4, 78, 58
6, 56398, Note_off_c, 4, 76, 64
6, 56502, Note_on_c, 4, 79, 66
6, 56510, Note_off_c, 4, 78, 64
6, 56586, Note_off_c, 4, 79, 64
6, 56634, Note_on_c, 4, 78, 56
6, 56724, Note_off_c, 4, 78, 64
6, 56870, Note_on_c, 4, 71, 60
6, 56956, Note_off_c, 4, 71, 64
6, 57109, Note_on_c, 4, 73, 54
6, 57196, Note_off_c, 4, 73, 64
6, 57350, Note_on_c, 4, 70, 59
6, 57435, Note_off_c, 4, 70, 64
6, 57604, Note_on_c, 4, 71, 54
6, 58080, Note_off_c, 4, 71, 64
6, 58080, End_track
7, 0, Start_track
7, 0, Title_t, "Violin1"
7, 0, Program_c, 0, 40
7, 0, Control_c, 0, 7, 100
7, 15844, Note_on_c, 0, 78, 66
7, 15949, Note_on_c, 0, 79, 64
7, 15968, Note_off_c, 0, 78, 64
7, 16075, Note_on_c, 0, 78, 52
7, 16094, Note_off_c, 0, 79, 64
7, 16186, Note_on_c, 0, 76, 66
7, 16197, Note_off_c, 0, 78, 64
7, 16311, Note_on_c, 0, 78, 57
7, 16319, Note_off_c, 0, 76, 64
7, 16400, Note_off_c, 0, 78, 64
7, 16552, Note_on_c, 0, 79, 59
7, 16644, Note_off_c, 0, 79, 64
7, 16788, Note_on_c, 0, 81, 64
7, 16882, Note_off_c, 0, 81, 64
7, 17034, Note_on_c, 0, 79, 68
7, 17133, Note_off_c, 0, 79, 64
7, 17265, Note_on_c, 0, 78, 57
7, 17374, Note_off_c, 0, 78, 64
7, 17510, Note_on_c, 0, 83, 60
7, 17621, Note_off_c, 0, 83, 64
7, 17767, Note_on_c, 0, 78, 60
7, 17873, Note_on_c, 0, 79, 70
7, 17897, Note_off_c, 0, 78, 64
7, 17984, Note_on_c, 0, 78, 51
7, 18003, Note_off_c, 0, 79, 64
7, 18095, Note_on_c, 0, 76, 64
7, 18103, Note_off_c, 0, 78, 64
7, 18182, Note_off_c, 0, 76, 64
7, 18222, Note_on_c, 0, 78, 60
7, 18328, Note_off_c, 0, 78, 64
7, 18467, Note_on_c, 0, 79, 63
7, 18572, Note_off_c, 0, 79, 64
7, 18706, Note_on_c, 0, 81, 64
7, 18801, Note_off_c, 0, 81, 64
7, 18949, Note_on_c, 0, 79, 68
7, 19045, Note_off_c, 0, 79, 64
7, 19188, Note_on_c, 0, 79, 74
7, 19411, Note_on_c, 0, 78, 42
7, 19425, Note_off_c, 0, 79, 64
7, 19536, Note_off_c, 0, 78, 64
7, 19679, Note_on_c, 0, 83, 70
7, 19907, Note_on_c, 0, 81, 40
7, 19923, Note_off_c, 0, 83, 64
7, 20029, Note_off_c, 0, 81, 64
7, 20157, Note_on_c, 0, 72, 52
7, 20441, Note_off_c, 0, 72, 64
7, 20623, Note_on_c, 0, 81, 66
7, 20845, Note_on_c, 0, 79, 53
7, 20865, Note_off_c, 0, 81, 64
7, 20960, Note_off_c, 0, 79, 64
7, 21106, Note_on_c, 0, 71, 49
7, 21424, Note_off_c, 0, 71, 64
7, 21605, Note_on_c, 0, 79, 72
7, 21713, Note_on_c, 0, 78, 49
7, 21733, Note_off_c, 0, 79, 64
7, 21835, Note_on_c, 0, 79, 61
7, 21839, Note_off_c, 0, 78, 64
7, 21949, Note_on_c, 0, 81, 60
7, 21962, Note_off_c, 0, 79, 64
7, 22067, Note_off_c, 0, 81, 64
7, 22071, Note_on_c, 0, 79, 66
7, 22177, Note_on_c, 0, 78, 53
7, 22193, Note_off_c, 0, 79, 64
7, 22296, Note_on_c, 0, 76, 60
7, 22297, Note_off_c, 0, 78, 64
7, 22407, Note_on_c, 0, 79, 59
7, 22413, Note_off_c, 0, 76, 64
7, 22525, Note_off_c, 0, 79, 64
7, 22538, Note_on_c, 0, 78, 59
7, 22649, Note_on_c, 0, 76, 61
7, 22657, Note_off_c, 0, 78, 64
7, 22766, Note_on_c, 0, 75, 47
7, 22771, Note_off_c, 0, 76, 64
7, 22874, Note_on_c, 0, 78, 59
7, 22887, Note_off_c, 0, 75, 64
7, 22997, Note_off_c, 0, 78, 64
7, 23020, Note_on_c, 0, 76, 59
7, 23350, Note_off_c, 0, 76, 64
7, 23485, Note_on_c, 0, 79, 53
7, 24423, Note_off_c, 0, 79, 64
7, 24453, Note_on_c, 0, 78, 58
7, 25381, Note_off_c, 0, 78, 64
7, 25421, Note_on_c, 0, 76, 60
7, 26002, Note_on_c, 0, 74, 60
7, 26007, Note_off_c, 0, 76, 64
7, 26119, Note_on_c, 0, 76, 60
7, 26142, Note_off_c, 0, 74, 64
7, 26227, Note_on_c, 0, 78, 57
7, 26238, Note_off_c, 0, 76, 64
7, 26354, Note_on_c, 0, 76, 47
7, 26371, Note_off_c, 0, 78, 64
7, 26470, Note_off_c, 0, 76, 64
7, 26471, Note_on_c, 0, 74, 55
7, 26592, Note_on_c, 0, 73, 48
7, 26598, Note_off_c, 0, 74, 64
7, 26704, Note_off_c, 0, 73, 64
7, 26704, Note_on_c, 0, 71, 58
7, 26788, Note_off_c, 0, 71, 64
7, 26835, Note_on_c, 0, 73, 52
7, 26961, Note_off_c, 0, 73, 64
7, 27087, Note_on_c, 0, 66, 45
7, 27203, Note_off_c, 0, 66, 64
7, 27355, Note_on_c, 0, 74, 68
7, 27585, Note_on_c, 0, 73, 52
7, 27600, Note_off_c, 0, 74, 64
7, 27727, Note_off_c, 0, 73, 64
7, 27849, Note_on_c, 0, 66, 38
7, 28170, Note_off_c, 0, 66, 64
7, 28297, Note_on_c, 0, 76, 66
7, 28540, Note_on_c, 0, 74, 58
7, 28564, Note_off_c, 0, 76, 64
7, 28676, Note_off_c, 0, 74, 64
7, 28808, Note_on_c, 0, 66, 35
7, 29144, Note_off_c, 0, 66, 64
7, 29268, Note_on_c, 0, 78, 64
7, 29390, Note_on_c, 0, 76, 70
7, 29397, Note_off_c, 0, 78, 64
7, 29495, Note_on_c, 0, 78, 55
7, 29508, Note_off_c, 0, 76, 64
7, 29620, Note_on_c, 0, 79, 68
7, 29634, Note_off_c, 0, 78, 64
7, 29706, Note_off_c, 0, 79, 64
7, 29729, Note_on_c, 0, 78, 58
7, 29853, Note_on_c, 0, 76, 57
7, 29869, Note_off_c, 0, 78, 64
7, 29962, Note_on_c, 0, 74, 62
7, 29967, Note_off_c, 0, 76, 64
7, 30076, Note_on_c, 0, 78, 53
7, 30097, Note_off_c, 0, 74, 64
7, 30209, Note_off_c, 0, 78, 64
7, 30213, Note_on_c, 0, 76, 66
7, 30328, Note_on_c, 0, 74, 64
7, 30360, Note_off_c, 0, 76, 64
7, 30456, Note_on_c, 0, 76, 52
7, 30479, Note_off_c, 0, 74, 64
7, 30567, Note_on_c, 0, 78, 58
7, 30572, Note_off_c, 0, 76, 64
7, 30692, Note_on_c, 0, 76, 50
7, 30694, Note_off_c, 0, 78, 64
7, 30808, Note_off_c, 0, 76, 64
7, 30814, Note_on_c, 0, 74, 60
7, 30919, Note_on_c, 0, 73, 44
7, 30927, Note_off_c, 0, 74, 64
7, 31036, Note_on_c, 0, 76, 62
7, 31039, Note_off_c, 0, 73, 64
7, 31130, Note_off_c, 0, 76, 64
7, 31163, Note_on_c, 0, 74, 68
7, 31421, Note_on_c, 0, 73, 45
7, 31432, Note_off_c, 0, 74, 64
7, 31564, Note_off_c, 0, 73, 64
7, 31662, Note_on_c, 0, 66, 47
7, 32009, Note_off_c, 0, 66, 64
7, 32134, Note_on_c, 0, 76, 70
7, 32396, Note_on_c, 0, 74, 47
7, 32421, Note_off_c, 0, 76, 64
7, 32514, Note_off_c, 0, 74, 64
7, 32638, Note_on_c, 0, 66, 53
7, 32975, Note_off_c, 0, 66, 64
7, 33097, Note_on_c, 0, 78, 63
7, 33219, Note_on_c, 0, 76, 68
7, 33240, Note_off_c, 0, 78, 64
7, 33330, Note_on_c, 0, 78, 57
7, 33335, Note_off_c, 0, 76, 64
7, 33442, Note_on_c, 0, 79, 60
7, 33466, Note_off_c, 0, 78, 64
7, 33583, Note_on_c, 0, 78, 55
7, 33585, Note_off_c, 0, 79, 64
7, 33677, Note_off_c, 0, 78, 64
7, 33822, Note_on_c, 0, 71, 58
7, 33923, Note_off_c, 0, 71, 64
7, 34060, Note_on_c, 0, 73, 52
7, 34162, Note_off_c, 0, 73, 64
7, 34306, Note_on_c, 0, 70, 55
7, 34402, Note_off_c, 0, 70, 64
7, 34542, Note_on_c, 0, 71, 53
7, 34811, Note_off_c, 0, 71, 64
7, 34811, End_track
8, 0, Start_track
8, 0, Title_t, "Violin2"
8, 0, Program_c, 1, 40
8, 0, Control_c, 1, 7, 100
8, 15832, Note_on_c, 1, 75, 66
8, 15945, Note_on_c, 1, 76, 63
8, 15989, Note_off_c, 1, 75, 64
8, 16081, Note_on_c, 1, 75, 54
8, 16102, Note_off_c, 1, 76, 64
8, 16190, Note_on_c, 1, 73, 48
8, 16203, Note_off_c, 1, 75, 64
8, 16311, Note_off_c, 1, 73, 64
8, 16314, Note_on_c, 1, 75, 56
8, 16423, Note_off_c, 1, 75, 64
8, 16544, Note_on_c, 1, 76, 57
8, 16650, Note_off_c, 1, 76, 64
8, 16784, Note_on_c, 1, 78, 53
8, 16902, Note_off_c, 1, 78, 64
8, 17028, Note_on_c, 1, 76, 46
8, 17136, Note_off_c, 1, 76, 64
8, 17269, Note_on_c, 1, 75, 45
8, 17369, Note_off_c, 1, 75, 64
8, 17505, Note_on_c, 1, 76, 59
8, 17621, Note_off_c, 1, 76, 64
8, 17759, Note_on_c, 1, 75, 62
8, 17873, Note_on_c, 1, 76, 60
8, 17898, Note_off_c, 1, 75, 64
8, 17998, Note_on_c, 1, 75, 50
8, 18006, Note_off_c, 1, 76, 64
8, 18109, Note_on_c, 1, 73, 49
8, 18120, Note_off_c, 1, 75, 64
8, 18223, Note_off_c, 1, 73, 64
8, 18227, Note_on_c, 1, 75, 57
8, 18337, Note_off_c, 1, 75, 64
8, 18468, Note_on_c, 1, 76, 63
8, 18576, Note_off_c, 1, 76, 64
8, 18706, Note_on_c, 1, 78, 59
8, 18820, Note_off_c, 1, 78, 64
8, 18943, Note_on_c, 1, 76, 57
8, 19045, Note_off_c, 1, 76, 64
8, 19184, Note_on_c, 1, 76, 64
8, 19404, Note_on_c, 1, 75, 39
8, 19412, Note_off_c, 1, 76, 64
8, 19552, Note_off_c, 1, 75, 64
8, 19664, Note_on_c, 1, 79, 56
8, 19912, Note_on_c, 1, 78, 47
8, 19925, Note_off_c, 1, 79, 64
8, 20008, Note_on_c, 1, 79, 62
8, 20019, Note_off_c, 1, 78, 64
8, 20117, Note_off_c, 1, 79, 64
8, 20131, Note_on_c, 1, 81, 51
8, 20450, Note_off_c, 1, 81, 64
8, 20616, Note_on_c, 1, 72, 66
8, 20873, Note_on_c, 1, 71, 57
8, 20882, Note_off_c, 1, 72, 64
8, 20985, Note_off_c, 1, 71, 64
8, 20987, Note_on_c, 1, 69, 52
8, 21096, Note_on_c, 1, 67, 57
8, 21104, Note_off_c, 1, 69, 64
8, 21448, Note_off_c, 1, 67, 64
8, 21587, Note_on_c, 1, 71, 70
8, 21696, Note_on_c, 1, 69, 60
8, 21723, Note_off_c, 1, 71, 64
8, 21810, Note_on_c, 1, 71, 63
8, 21814, Note_off_c, 1, 69, 64
8, 21928, Note_on_c, 1, 72, 64
8, 21964, Note_off_c, 1, 71, 64
8, 22031, Note_off_c, 1, 72, 64
8, 22057, Note_on_c, 1, 71, 70
8, 22176, Note_on_c, 1, 69, 57
8, 22194, Note_off_c, 1, 71, 64
8, 22294, Note_off_c, 1, 69, 64
8, 22294, Note_on_c, 1, 67, 59
8, 22408, Note_on_c, 1, 71, 68
8, 22416, Note_off_c, 1, 67, 64
8, 22534, Note_on_c, 1, 69, 57
8, 22542, Note_off_c, 1, 71, 64
8, 22648, Note_off_c, 1, 69, 64
8, 22653, Note_on_c, 1, 67, 53
8, 22770, Note_on_c, 1, 66, 46
8, 22780, Note_off_c, 1, 67, 64
8, 22872, Note_off_c, 1, 66, 64
8, 22876, Note_on_c, 1, 69, 59
8, 22970, Note_off_c, 1, 69, 64
8, 23005, Note_on_c, 1, 67, 61
8, 23330, Note_off_c, 1, 67, 64
8, 23496, Note_on_c, 1, 71, 61
8, 23746, Note_on_c, 1, 69, 54
8, 23770, Note_off_c, 1, 71, 64
8, 23865, Note_off_c, 1, 69, 64
8, 24007, Note_on_c, 1, 61, 51
8, 24320, Note_off_c, 1, 61, 64
8, 24464, Note_on_c, 1, 69, 64
8, 24700, Note_on_c, 1, 67, 54
8, 24731, Note_off_c, 1, 69, 64
8, 24809, Note_off_c, 1, 67, 64
8, 24958, Note_on_c, 1, 59, 50
8, 25273, Note_off_c, 1, 59, 64
8, 25435, Note_on_c, 1, 64, 68
8, 25544, Note_on_c, 1, 66, 53
8, 25560, Note_off_c, 1, 64, 64
8, 25660, Note_on_c, 1, 67, 64
8, 25675, Note_off_c, 1, 66, 64
8, 25750, Note_off_c, 1, 67, 64
8, 25774, Note_on_c, 1, 64, 57
8, 25892, Note_off_c, 1, 64, 64
8, 25910, Note_on_c, 1, 70, 49
8, 26000, Note_off_c, 1, 70, 64
8, 26149, Note_on_c, 1, 73, 58
8, 26236, Note_off_c, 1, 73, 64
8, 26377, Note_on_c, 1, 66, 57
8, 26477, Note_off_c, 1, 66, 64
8, 26608, Note_on_c, 1, 68, 66
8, 26710, Note_off_c, 1, 68, 64
8, 26859, Note_on_c, 1, 70, 58
8, 26965, Note_on_c, 1, 71, 76
8, 26984, Note_off_c, 1, 70, 64
8, 27084, Note_off_c, 1, 71, 64
8, 27090, Note_on_c, 1, 73, 59
8, 27206, Note_on_c, 1, 70, 57
8, 27210, Note_off_c, 1, 73, 64
8, 27277, Note_off_c, 1, 70, 64
8, 27340, Note_on_c, 1, 71, 76
8, 27583, Note_on_c, 1, 70, 58
8, 27598, Note_off_c, 1, 71, 64
8, 27684, Note_on_c, 1, 71, 64
8, 27690, Note_off_c, 1, 70, 64
8, 27812, Note_off_c, 1, 71, 64
8, 27822, Note_on_c, 1, 73, 37
8, 28146, Note_off_c, 1, 73, 64
8, 28299, Note_on_c, 1, 70, 60
8, 28540, Note_on_c, 1, 71, 64
8, 28563, Note_off_c, 1, 70, 64
8, 28644, Note_on_c, 1, 73, 54
8, 28653, Note_off_c, 1, 71, 64
8, 28767, Note_on_c, 1, 74, 60
8, 28771, Note_off_c, 1, 73, 64
8, 29070, Note_off_c, 1, 74, 64
8, 29273, Note_on_c, 1, 74, 76
8, 29388, Note_on_c, 1, 73, 53
8, 29417, Note_off_c, 1, 74, 64
8, 29496, Note_on_c, 1, 74, 60
8, 29515, Note_off_c, 1, 73, 64
8, 29616, Note_on_c, 1, 76, 61
8, 29642, Note_off_c, 1, 74, 64
8, 29719, Note_off_c, 1, 76, 64
8, 29738, Note_on_c, 1, 74, 62
8, 29849, Note_on_c, 1, 73, 57
8, 29873, Note_off_c, 1, 74, 64
8, 29968, Note_on_c, 1, 71, 57
8, 30000, Note_off_c, 1, 73, 64
8, 30085, Note_on_c, 1, 74, 66
8, 30090, Note_off_c, 1, 71, 64
8, 30195, Note_off_c, 1, 74, 64
8, 30206, Note_on_c, 1, 73, 58
8, 30320, Note_on_c, 1, 71, 52
8, 30350, Note_off_c, 1, 73, 64
8, 30448, Note_off_c, 1, 71, 64
8, 30448, Note_on_c, 1, 73, 54
8, 30567, Note_on_c, 1, 74, 59
8, 30593, Note_off_c, 1, 73, 64
8, 30675, Note_off_c, 1, 74, 64
8, 30697, Note_on_c, 1, 73, 53
8, 30806, Note_on_c, 1, 71, 59
8, 30812, Note_off_c, 1, 73, 64
8, 30933, Note_off_c, 1, 71, 64
8, 30933, Note_on_c, 1, 70, 57
8, 31042, Note_on_c, 1, 73, 57
8, 31048, Note_off_c, 1, 70, 64
8, 31172, Note_on_c, 1, 71, 66
8, 31173, Note_off_c, 1, 73, 64
8, 31419, Note_off_c, 1, 71, 64
8, 31419, Note_on_c, 1, 70, 57
8, 31512, Note_on_c, 1, 71, 68
8, 31519, Note_off_c, 1, 70, 64
8, 31628, Note_off_c, 1, 71, 64
8, 31644, Note_on_c, 1, 73, 45
8, 31989, Note_off_c, 1, 73, 64
8, 32145, Note_on_c, 1, 70, 58
8, 32359, Note_on_c, 1, 71, 64
8, 32390, Note_off_c, 1, 70, 64
8, 32476, Note_on_c, 1, 73, 55
8, 32491, Note_off_c, 1, 71, 64
8, 32602, Note_off_c, 1, 73, 64
8, 32603, Note_on_c, 1, 74, 58
8, 32965, Note_off_c, 1, 74, 64
8, 33111, Note_on_c, 1, 71, 59
8, 33199, Note_off_c, 1, 71, 64
8, 33342, Note_on_c, 1, 73, 60
8, 33454, Note_off_c, 1, 73, 64
8, 33581, Note_on_c, 1, 74, 64
8, 33692, Note_off_c, 1, 74, 64
8, 33812, Note_on_c, 1, 62, 58
8, 33914, Note_off_c, 1, 62, 64
8, 34067, Note_on_c, 1, 67, 60
8, 34169, Note_off_c, 1, 67, 64
8, 34310, Note_on_c, 1, 66, 59
8, 34422, Note_off_c, 1, 66, 64
8, 34551, Note_on_c, 1, 66, 52
8, 34842, Note_off_c, 1, 66, 64
8, 34842, End_track
9, 0, Start_track
9, 0, Title_t, "Viola"
9, 0, Program_c, 2, 41
9, 0, Control_c, 2, 7, 100
9, 15828, Note_on_c, 2, 71, 55
9, 15915, Note_off_c, 2, 71, 64
9, 16071, Note_on_c, 2, 71, 52
9, 16164, Note_off_c, 2, 71, 64
9, 16318, Note_on_c, 2, 71, 57
9, 16398, Note_off_c, 2, 71, 64
9, 16558, Note_on_c, 2, 71, 55
9, 16649, Note_off_c, 2, 71, 64
9, 16788, Note_on_c, 2, 71, 55
9, 16886, Note_off_c, 2, 71, 64
9, 17036, Note_on_c, 2, 71, 53
9, 17139, Note_off_c, 2, 71, 64
9, 17273, Note_on_c, 2, 71, 59
9, 17385, Note_on_c, 2, 69, 52
9, 17402, Note_off_c, 2, 71, 64
9, 17491, Note_off_c, 2, 69, 64
9, 17498, Note_on_c, 2, 67, 59
9, 17612, Note_on_c, 2, 69, 60
9, 17621, Note_off_c, 2, 67, 64
9, 17707, Note_off_c, 2, 69, 64
9, 17739, Note_on_c, 2, 71, 52
9, 17844, Note_off_c, 2, 71, 64
9, 17990, Note_on_c, 2, 71, 53
9, 18098, Note_off_c, 2, 71, 64
9, 18234, Note_on_c, 2, 71, 53
9, 18342, Note_off_c, 2, 71, 64
9, 18480, Note_on_c, 2, 71, 52
9, 18586, Note_off_c, 2, 71, 64
9, 18715, Note_on_c, 2, 71, 53
9, 18811, Note_off_c, 2, 71, 64
9, 18944, Note_on_c, 2, 71, 47
9, 19049, Note_off_c, 2, 71, 64
9, 19196, Note_on_c, 2, 71, 72
9, 19311, Note_on_c, 2, 69, 61
9, 19343, Note_off_c, 2, 71, 64
9, 19432, Note_off_c, 2, 69, 64
9, 19432, Note_on_c, 2, 67, 46
9, 19550, Note_on_c, 2, 66, 54
9, 19557, Note_off_c, 2, 67, 64
9, 19641, Note_off_c, 2, 66, 64
9, 19679, Note_on_c, 2, 64, 66
9, 19918, Note_on_c, 2, 63, 48
9, 19942, Note_off_c, 2, 64, 64
9, 20026, Note_on_c, 2, 64, 63
9, 20053, Note_off_c, 2, 63, 64
9, 20151, Note_off_c, 2, 64, 64
9, 20153, Note_on_c, 2, 66, 52
9, 20455, Note_off_c, 2, 66, 64
9, 20631, Note_on_c, 2, 63, 58
9, 20868, Note_on_c, 2, 64, 63
9, 20908, Note_off_c, 2, 63, 64
9, 20987, Note_on_c, 2, 66, 52
9, 21003, Note_off_c, 2, 64, 64
9, 21103, Note_on_c, 2, 67, 55
9, 21111, Note_off_c, 2, 66, 64
9, 21416, Note_off_c, 2, 67, 64
9, 21591, Note_on_c, 2, 64, 57
9, 21702, Note_off_c, 2, 64, 64
9, 21836, Note_on_c, 2, 63, 56
9, 21955, Note_off_c, 2, 63, 64
9, 22072, Note_on_c, 2, 64, 58
9, 22197, Note_off_c, 2, 64, 64
9, 22313, Note_on_c, 2, 67, 59
9, 22421, Note_off_c, 2, 67, 64
9, 22554, Note_on_c, 2, 72, 60
9, 22660, Note_off_c, 2, 72, 64
9, 22785, Note_on_c, 2, 71, 57
9, 22887, Note_off_c, 2, 71, 64
9, 23024, Note_on_c, 2, 71, 68
9, 23138, Note_on_c, 2, 69, 68
9, 23167, Note_off_c, 2, 71, 64
9, 23262, Note_on_c, 2, 67, 55
9, 23279, Note_off_c, 2, 69, 64
9, 23385, Note_on_c, 2, 66, 57
9, 23397, Note_off_c, 2, 67, 64
9, 23482, Note_off_c, 2, 66, 64
9, 23512, Note_on_c, 2, 64, 66
9, 23623, Note_on_c, 2, 62, 57
9, 23642, Note_off_c, 2, 64, 64
9, 23732, Note_on_c, 2, 64, 58
9, 23742, Note_off_c, 2, 62, 64
9, 23859, Note_on_c, 2, 66, 63
9, 23861, Note_off_c, 2, 64, 64
9, 23959, Note_off_c, 2, 66, 64
9, 23983, Note_on_c, 2, 64, 57
9, 24089, Note_on_c, 2, 62, 48
9, 24106, Note_off_c, 2, 64, 64
9, 24198, Note_off_c, 2, 62, 64
9, 24206, Note_on_c, 2, 61, 51
9, 24325, Note_on_c, 2, 64, 56
9, 24330, Note_off_c, 2, 61, 64
9, 24437, Note_off_c, 2, 64, 64
9, 24469, Note_on_c, 2, 62, 74
9, 24575, Note_on_c, 2, 61, 58
9, 24604, Note_off_c, 2, 62, 64
9, 24702, Note_on_c, 2, 62, 60
9, 24707, Note_off_c, 2, 61, 64
9, 24809, Note_on_c, 2, 64, 64
9, 24813, Note_off_c, 2, 62, 64
9, 24911, Note_off_c, 2, 64, 64
9, 24936, Note_on_c, 2, 62, 60
9, 25047, Note_on_c, 2, 61, 66
9, 25050, Note_off_c, 2, 62, 64
9, 25162, Note_on_c, 2, 59, 52
9, 25198, Note_off_c, 2, 61, 64
9, 25282, Note_off_c, 2, 59, 64
9, 25285, Note_on_c, 2, 58, 52
9, 25384, Note_off_c, 2, 58, 64
9, 25426, Note_on_c, 2, 59, 62
9, 25529, Note_off_c, 2, 59, 64
9, 25663, Note_on_c, 2, 64, 64
9, 25765, Note_off_c, 2, 64, 64
9, 25918, Note_on_c, 2, 67, 66
9, 26026, Note_off_c, 2, 67, 64
9, 26153, Note_on_c, 2, 66, 58
9, 26251, Note_off_c, 2, 66, 64
9, 26379, Note_on_c, 2, 71, 66
9, 26498, Note_off_c, 2, 71, 64
9, 26623, Note_on_c, 2, 62, 66
9, 26710, Note_off_c, 2, 62, 64
9, 26856, Note_on_c, 2, 61, 60
9, 26973, Note_off_c, 2, 61, 64
9, 27098, Note_on_c, 2, 66, 59
9, 27190, Note_off_c, 2, 66, 64
9, 27339, Note_on_c, 2, 66, 64
9, 27600, Note_on_c, 2, 64, 63
9, 27615, Note_off_c, 2, 66, 64
9, 27700, Note_on_c, 2, 62, 53
9, 27705, Note_off_c, 2, 64, 64
9, 27802, Note_off_c, 2, 62, 64
9, 27821, Note_on_c, 2, 61, 48
9, 28131, Note_off_c, 2, 61, 64
9, 28296, Note_on_c, 2, 61, 62
9, 28529, Note_on_c, 2, 62, 58
9, 28584, Note_off_c, 2, 61, 64
9, 28648, Note_off_c, 2, 62, 64
9, 28652, Note_on_c, 2, 64, 45
9, 28781, Note_on_c, 2, 66, 52
9, 28795, Note_off_c, 2, 64, 64
9, 29063, Note_off_c, 2, 66, 64
9, 29267, Note_on_c, 2, 71, 63
9, 29370, Note_off_c, 2, 71, 64
9, 29512, Note_on_c, 2, 66, 60
9, 29620, Note_off_c, 2, 66, 64
9, 29755, Note_on_c, 2, 59, 53
9, 30067, Note_off_c, 2, 59, 64
9, 30213, Note_on_c, 2, 70, 66
9, 30330, Note_off_c, 2, 70, 64
9, 30458, Note_on_c, 2, 66, 60
9, 30550, Note_off_c, 2, 66, 64
9, 30696, Note_on_c, 2, 58, 60
9, 31020, Note_off_c, 2, 58, 64
9, 31180, Note_on_c, 2, 66, 68
9, 31423, Note_on_c, 2, 64, 58
9, 31456, Note_off_c, 2, 66, 64
9, 31528, Note_on_c, 2, 62, 56
9, 31529, Note_off_c, 2, 64, 64
9, 31624, Note_off_c, 2, 62, 64
9, 31652, Note_on_c, 2, 61, 52
9, 31961, Note_off_c, 2, 61, 64
9, 32139, Note_on_c, 2, 61, 68
9, 32370, Note_on_c, 2, 62, 58
9, 32402, Note_off_c, 2, 61, 64
9, 32493, Note_on_c, 2, 64, 47
9, 32497, Note_off_c, 2, 62, 64
9, 32612, Note_off_c, 2, 64, 64
9, 32620, Note_on_c, 2, 66, 47
9, 32937, Note_off_c, 2, 66, 64
9, 33104, Note_on_c, 2, 66, 61
9, 33219, Note_off_c, 2, 66, 64
9, 33341, Note_on_c, 2, 64, 57
9, 33459, Note_off_c, 2, 64, 64
9, 33582, Note_on_c, 2, 62, 64
9, 33686, Note_on_c, 2, 61, 53
9, 33698, Note_off_c, 2, 62, 64
9, 33802, Note_off_c, 2, 61, 64
9, 33813, Note_on_c, 2, 62, 59
9, 33905, Note_off_c, 2, 62, 64
9, 33925, Note_on_c, 2, 59, 53
9, 34028, Note_off_c, 2, 59, 64
9, 34055, Note_on_c, 2, 64, 64
9, 34166, Note_off_c, 2, 64, 64
9, 34309, Note_on_c, 2, 61, 51
9, 34407, Note_off_c, 2, 61, 64
9, 34547, Note_on_c, 2, 62, 53
9, 34831, Note_off_c, 2, 62, 64
9, 34831, End_track
10, 0, Start_track
10, 0, Title_t, "Cello"
10, 0, Program_c, 3, 42
10, 0, Control_c, 3, 7, 100
10, 19688, Note_on_c, 3, 52, 57
10, 20382, Note_off_c, 3, 52, 64
10, 20395, Note_on_c, 3, 51, 48
10, 20488, Note_off_c, 3, 51, 64
10, 20488, Note_on_c, 3, 52, 57
10, 20604, Note_on_c, 3, 54, 56
10, 20620, Note_off_c, 3, 52, 64
10, 21280, Note_off_c, 3, 54, 64
10, 21353, Note_on_c, 3, 52, 57
10, 21451, Note_on_c, 3, 51, 48
10, 21477, Note_off_c, 3, 52, 64
10, 21556, Note_off_c, 3, 51, 64
10, 21589, Note_on_c, 3, 52, 66
10, 21692, Note_off_c, 3, 52, 64
10, 21835, Note_on_c, 3, 47, 64
10, 21941, Note_off_c, 3, 47, 64
10, 22079, Note_on_c, 3, 48, 66
10, 22191, Note_off_c, 3, 48, 64
10, 22323, Note_on_c, 3, 60, 59
10, 22421, Note_off_c, 3, 60, 64
10, 22546, Note_on_c, 3, 57, 66
10, 22641, Note_off_c, 3, 57, 64
10, 22779, Note_on_c, 3, 59, 58
10, 22885, Note_off_c, 3, 59, 64
10, 23018, Note_on_c, 3, 52, 62
10, 23124, Note_off_c, 3, 52, 64
10, 23260, Note_on_c, 3, 40, 64
10, 23362, Note_off_c, 3, 40, 64
10, 23493, Note_on_c, 3, 52, 64
10, 23623, Note_off_c, 3, 52, 64
10, 23740, Note_on_c, 3, 49, 51
10, 23865, Note_off_c, 3, 49, 64
10, 23994, Note_on_c, 3, 45, 45
10, 24333, Note_off_c, 3, 45, 64
10, 24458, Note_on_c, 3, 50, 70
10, 24583, Note_off_c, 3, 50, 64
10, 24707, Note_on_c, 3, 47, 52
10, 24821, Note_off_c, 3, 47, 64
10, 24955, Note_on_c, 3, 43, 53
10, 25280, Note_off_c, 3, 43, 64
10, 25421, Note_on_c, 3, 55, 66
10, 25552, Note_off_c, 3, 55, 64
10, 25662, Note_on_c, 3, 52, 57
10, 25774, Note_off_c, 3, 52, 64
10, 25896, Note_on_c, 3, 49, 57
10, 26023, Note_off_c, 3, 49, 64
10, 26143, Note_on_c, 3, 58, 72
10, 26259, Note_off_c, 3, 58, 64
10, 26384, Note_on_c, 3, 59, 72
10, 26490, Note_off_c, 3, 59, 64
10, 26628, Note_on_c, 3, 47, 64
10, 26720, Note_off_c, 3, 47, 64
10, 26856, Note_on_c, 3, 54, 59
10, 26970, Note_on_c, 3, 56, 64
10, 26983, Note_off_c, 3, 54, 64
10, 27092, Note_off_c, 3, 56, 64
10, 27100, Note_on_c, 3, 58, 63
10, 27200, Note_off_c, 3, 58, 64
10, 27209, Note_on_c, 3, 54, 57
10, 27282, Note_off_c, 3, 54, 64
10, 27344, Note_on_c, 3, 59, 66
10, 28052, Note_off_c, 3, 59, 64
10, 28076, Note_on_c, 3, 58, 49
10, 28180, Note_on_c, 3, 59, 53
10, 28207, Note_off_c, 3, 58, 64
10, 28299, Note_off_c, 3, 59, 64
10, 28315, Note_on_c, 3, 61, 41
10, 28975, Note_off_c, 3, 61, 64
10, 29023, Note_on_c, 3, 59, 57
10, 29134, Note_on_c, 3, 61, 57
10, 29164, Note_off_c, 3, 59, 64
10, 29261, Note_off_c, 3, 61, 64
10, 29268, Note_on_c, 3, 62, 70
10, 29386, Note_off_c, 3, 62, 64
10, 29523, Note_on_c, 3, 59, 51
10, 29630, Note_off_c, 3, 59, 64
10, 29753, Note_on_c, 3, 54, 43
10, 30072, Note_off_c, 3, 54, 64
10, 30219, Note_on_c, 3, 61, 60
10, 30334, Note_off_c, 3, 61, 64
10, 30450, Note_on_c, 3, 58, 57
10, 30566, Note_off_c, 3, 58, 64
10, 30718, Note_on_c, 3, 54, 47
10, 31033, Note_off_c, 3, 54, 64
10, 31184, Note_on_c, 3, 59, 54
10, 31869, Note_off_c, 3, 59, 64
10, 31904, Note_on_c, 3, 58, 58
10, 32006, Note_on_c, 3, 59, 63
10, 32025, Note_off_c, 3, 58, 64
10, 32135, Note_off_c, 3, 59, 64
10, 32139, Note_on_c, 3, 61, 47
10, 32826, Note_off_c, 3, 61, 64
10, 32855, Note_on_c, 3, 59, 53
10, 32959, Note_on_c, 3, 61, 57
10, 32985, Note_off_c, 3, 59, 64
10, 33087, Note_off_c, 3, 61, 64
10, 33094, Note_on_c, 3, 62, 68
10, 33209, Note_off_c, 3, 62, 64
10, 33338, Note_on_c, 3, 58, 55
10, 33454, Note_off_c, 3, 58, 64
10, 33586, Note_on_c, 3, 59, 66
10, 33685, Note_off_c, 3, 59, 64
10, 33830, Note_on_c, 3, 55, 56
10, 33930, Note_off_c, 3, 55, 64
10, 34066, Note_on_c, 3, 52, 62
10, 34177, Note_off_c, 3, 52, 64
10, 34313, Note_on_c, 3, 54, 57
10, 34407, Note_off_c, 3, 54, 64
10, 34551, Note_on_c, 3, 47, 70
10, 34738, Note_off_c, 3, 47, 64
10, 34776, Note_on_c, 3, 50, 61
10, 34882, Note_on_c, 3, 54, 53
10, 34885, Note_off_c, 3, 50, 64
10, 34985, Note_off_c, 3, 54, 64
10, 34985, End_track
11, 0, Start_track
11, 0, Title_t, "Flute"
11, 0, Program_c, 4, 73
11, 0, Control_c, 4, 7, 127
11, 15852, Note_on_c, 4, 78, 60
11, 15960, Note_on_c, 4, 79, 64
11, 15966, Note_off_c, 4, 78, 64
11, 16080, Note_on_c, 4, 78, 47
11, 16091, Note_off_c, 4, 79, 64
11, 16191, Note_on_c, 4, 76, 66
11, 16197, Note_off_c, 4, 78, 64
11, 16289, Note_off_c, 4, 76, 64
11, 16324, Note_on_c, 4, 78, 58
11, 16413, Note_off_c, 4, 78, 64
11, 16553, Note_on_c, 4, 79, 63
11, 16646, Note_off_c, 4, 79, 64
11, 16780, Note_on_c, 4, 81, 60
11, 16882, Note_off_c, 4, 81, 64
11, 17030, Note_on_c, 4, 79, 61
11, 17122, Note_off_c, 4, 79, 64
11, 17273, Note_on_c, 4, 78, 53
11, 17367, Note_off_c, 4, 78, 64
11, 17506, Note_on_c, 4, 83, 62
11, 17613, Note_off_c, 4, 83, 64
11, 17754, Note_on_c, 4, 78, 57
11, 17868, Note_on_c, 4, 79, 59
11, 17873, Note_off_c, 4, 78, 64
11, 17986, Note_on_c, 4, 78, 44
11, 17998, Note_off_c, 4, 79, 64
11, 18101, Note_on_c, 4, 76, 68
11, 18114, Note_off_c, 4, 78, 64
11, 18195, Note_off_c, 4, 76, 64
11, 18223, Note_on_c, 4, 78, 55
11, 18318, Note_off_c, 4, 78, 64
11, 18462, Note_on_c, 4, 79, 66
11, 18564, Note_off_c, 4, 79, 64
11, 18706, Note_on_c, 4, 81, 63
11, 18805, Note_off_c, 4, 81, 64
11, 18949, Note_on_c, 4, 79, 64
11, 19048, Note_off_c, 4, 79, 64
11, 19189, Note_on_c, 4, 79, 64
11, 19419, Note_on_c, 4, 78, 48
11, 19437, Note_off_c, 4, 79, 64
11, 19544, Note_off_c, 4, 78, 64
11, 19687, Note_on_c, 4, 83, 72
11, 19920, Note_on_c, 4, 81, 47
11, 19939, Note_off_c, 4, 83, 64
11, 20029, Note_off_c, 4, 81, 64
11, 20162, Note_on_c, 4, 72, 52
11, 20472, Note_off_c, 4, 72, 64
11, 20632, Note_on_c, 4, 81, 72
11, 20867, Note_on_c, 4, 79, 54
11, 20876, Note_off_c, 4, 81, 64
11, 20989, Note_off_c, 4, 79, 64
11, 21117, Note_on_c, 4, 71, 45
11, 21428, Note_off_c, 4, 71, 64
11, 21613, Note_on_c, 4, 79, 76
11, 21722, Note_on_c, 4, 78, 53
11, 21744, Note_off_c, 4, 79, 64
11, 21840, Note_on_c, 4, 79, 66
11, 21846, Note_off_c, 4, 78, 64
11, 21957, Note_on_c, 4, 81, 60
11, 21987, Note_off_c, 4, 79, 64
11, 22066, Note_off_c, 4, 81, 64
11, 22087, Note_on_c, 4, 79, 66
11, 22194, Note_on_c, 4, 78, 55
11, 22204, Note_off_c, 4, 79, 64
11, 22312, Note_on_c, 4, 76, 63
11, 22316, Note_off_c, 4, 78, 64
11, 22422, Note_on_c, 4, 79, 68
11, 22441, Note_off_c, 4, 76, 64
11, 22538, Note_off_c, 4, 79, 64
11, 22545, Note_on_c, 4, 78, 59
11, 22658, Note_on_c, 4, 76, 60
11, 22670, Note_off_c, 4, 78, 64
11, 22779, Note_on_c, 4, 75, 53
11, 22787, Note_off_c, 4, 76, 64
11, 22887, Note_on_c, 4, 78, 63
11, 22896, Note_off_c, 4, 75, 64
11, 22983, Note_off_c, 4, 78, 64
11, 23021, Note_on_c, 4, 76, 60
11, 23376, Note_off_c, 4, 76, 64
11, 23495, Note_on_c, 4, 79, 48
11, 24442, Note_off_c, 4, 79, 64
11, 24469, Note_on_c, 4, 78, 52
11, 25391, Note_off_c, 4, 78, 64
11, 25430, Note_on_c, 4, 76, 64
11, 26037, Note_on_c, 4, 74, 64
11, 26061, Note_off_c, 4, 76, 64
11, 26154, Note_off_c, 4, 74, 64
11, 26156, Note_on_c, 4, 76, 62
11, 26265, Note_on_c, 4, 78, 52
11, 26281, Note_off_c, 4, 76, 64
11, 26385, Note_on_c, 4, 76, 63
11, 26393, Note_off_c, 4, 78, 64
11, 26501, Note_on_c, 4, 74, 57
11, 26506, Note_off_c, 4, 76, 64
11, 26614, Note_off_c, 4, 74, 64
11, 26617, Note_on_c, 4, 73, 51
11, 26725, Note_off_c, 4, 73, 64
11, 26725, Note_on_c, 4, 71, 52
11, 26845, Note_off_c, 4, 71, 64
11, 26869, Note_on_c, 4, 73, 57
11, 26992, Note_off_c, 4, 73, 64
11, 27114, Note_on_c, 4, 66, 57
11, 27226, Note_off_c, 4, 66, 64
11, 27358, Note_on_c, 4, 74, 68
11, 27599, Note_on_c, 4, 73, 52
11, 27615, Note_off_c, 4, 74, 64
11, 27741, Note_off_c, 4, 73, 64
11, 27851, Note_on_c, 4, 66, 48
11, 28168, Note_off_c, 4, 66, 64
11, 28307, Note_on_c, 4, 76, 70
11, 28556, Note_on_c, 4, 74, 57
11, 28557, Note_off_c, 4, 76, 64
11, 28674, Note_off_c, 4, 74, 64
11, 28800, Note_on_c, 4, 66, 53
11, 29134, Note_off_c, 4, 66, 64
11, 29281, Note_on_c, 4, 78, 63
11, 29389, Note_on_c, 4, 76, 63
11, 29411, Note_off_c, 4, 78, 64
11, 29506, Note_on_c, 4, 78, 54
11, 29516, Note_off_c, 4, 76, 64
11, 29625, Note_on_c, 4, 79, 64
11, 29628, Note_off_c, 4, 78, 64
11, 29737, Note_off_c, 4, 79, 64
11, 29759, Note_on_c, 4, 78, 57
11, 29878, Note_on_c, 4, 76, 63
11, 29902, Note_off_c, 4, 78, 64
11, 29984, Note_on_c, 4, 74, 64
11, 30000, Note_off_c, 4, 76, 64
11, 30098, Note_on_c, 4, 78, 57
11, 30121, Note_off_c, 4, 74, 64
11, 30214, Note_off_c, 4, 78, 64
11, 30227, Note_on_c, 4, 76, 66
11, 30349, Note_on_c, 4, 74, 57
11, 30371, Note_off_c, 4, 76, 64
11, 30472, Note_on_c, 4, 76, 63
11, 30479, Note_off_c, 4, 74, 64
11, 30586, Note_on_c, 4, 78, 57
11, 30624, Note_off_c, 4, 76, 64
11, 30691, Note_off_c, 4, 78, 64
11, 30715, Note_on_c, 4, 76, 66
11, 30829, Note_off_c, 4, 76, 64
11, 30829, Note_on_c, 4, 74, 57
11, 30943, Note_on_c, 4, 73, 57
11, 30960, Note_off_c, 4, 74, 64
11, 31047, Note_on_c, 4, 76, 64
11, 31052, Note_off_c, 4, 73, 64
11, 31136, Note_off_c, 4, 76, 64
11, 31172, Note_on_c, 4, 74, 66
11, 31434, Note_on_c, 4, 73, 47
11, 31440, Note_off_c, 4, 74, 64
11, 31575, Note_off_c, 4, 73, 64
11, 31684, Note_on_c, 4, 66, 45
11, 31993, Note_off_c, 4, 66, 64
11, 32145, Note_on_c, 4, 76, 76
11, 32395, Note_on_c, 4, 74, 58
11, 32411, Note_off_c, 4, 76, 64
11, 32514, Note_off_c, 4, 74, 64
11, 32638, Note_on_c, 4, 66, 46
11, 32950, Note_off_c, 4, 66, 64
11, 33111, Note_on_c, 4, 78, 61
11, 33227, Note_on_c, 4, 76, 59
11, 33246, Note_off_c, 4, 78, 64
11, 33349, Note_on_c, 4, 78, 57
11, 33368, Note_off_c, 4, 76, 64
11, 33453, Note_on_c, 4, 79, 66
11, 33469, Note_off_c, 4, 78, 64
11, 33566, Note_off_c, 4, 79, 64
11, 33591, Note_on_c, 4, 78, 57
11, 33689, Note_off_c, 4, 78, 64
11, 33815, Note_on_c, 4, 71, 63
11, 33916, Note_off_c, 4, 71, 64
11, 34074, Note_on_c, 4, 73, 58
11, 34160, Note_off_c, 4, 73, 64
11, 34313, Note_on_c, 4, 70, 57
11, 34399, Note_off_c, 4, 70, 64
11, 34556, Note_on_c, 4, 71, 55
11, 34869, Note_off_c, 4, 71, 64
11, 34869, End_track
0, 0, End_of_file
