0, 0, Header, 1, 10, 240
1, 0, Start_track
1, 0, Time_signature, 3, 2, 24, 8
1, 0, Tempo, 789474
1, 11520, Time_signature, 4, 2, 24, 8
1, 12480, Time_signature, 3, 2, 24, 8
1, 22224, Tempo, 845070
1, 22560, Tempo, 789474
1, 22584, Tempo, 857143
1, 23280, Time_signature, 4, 2, 24, 8
1, 23280, Tempo, 789474
1, 23292, Tempo, 845070
1, 23508, Tempo, 789474
1, 24240, Time_signature, 3, 2, 24, 8
1, 35040, Time_signature, 4, 2, 24, 8
1, 36000, Time_signature, 3, 2, 24, 8
1, 45864, Tempo, 833333
1, 46080, Tempo, 789474
1, 46092, Tempo, 833333
1, 46488, Tempo, 882353
1, 46764, Tempo, 1071429
1, 46800, Tempo, 789474
1, 46824, Tempo, 882353
1, 47172, Tempo, 779221
1, 47520, Tempo, 789474
1, 47520, End_track
2, 0, Start_track
2, 0, Title_t, "Violin1"
2, 0, Program_c, 0, 40
2, 0, Control_c, 0, 7, 100
2, 460, Note_on_c, 0, 78, 53
2, 651, Note_off_c, 0, 78, 64
2, 708, Note_on_c, 0, 76, 59
2, 843, Note_on_c, 0, 74, 53
2, 856, Note_off_c, 0, 76, 64
2, 1055, Note_off_c, 0, 74, 64
2, 1067, Note_on_c, 0, 76, 61
2, 1196, Note_on_c, 0, 78, 55
2, 1199, Note_off_c, 0, 76, 64
2, 1371, Note_off_c, 0, 78, 64
2, 1434, Note_on_c, 0, 71, 49
2, 1640, Note_off_c, 0, 71, 64
2, 1665, Note_on_c, 0, 76, 56
2, 1868, Note_off_c, 0, 76, 64
2, 1914, Note_on_c, 0, 74, 48
2, 2367, Note_off_c, 0, 74, 64
2, 2398, Note_on_c, 0, 73, 51
2, 2513, Note_on_c, 0, 71, 52
2, 2531, Note_off_c, 0, 73, 64
2, 2613, Note_off_c, 0, 71, 64
2, 2630, Note_on_c, 0, 70, 59
2, 2745, Note_on_c, 0, 71, 53
2, 2750, Note_off_c, 0, 70, 64
2, 2824, Note_off_c, 0, 71, 64
2, 2869, Note_on_c, 0, 71, 68
2, 2901, Note_on_c, 0, 70, 52
2, 2908, Note_off_c, 0, 71, 64
2, 2931, Note_on_c, 0, 71, 58
2, 2933, Note_off_c, 0, 70, 64
2, 2955, Note_on_c, 0, 70, 62
2, 2967, Note_off_c, 0, 71, 64
2, 3003, Note_on_c, 0, 71, 66
2, 3014, Note_off_c, 0, 70, 64
2, 3089, Note_off_c, 0, 71, 64
2, 3114, Note_on_c, 0, 71, 63
2, 3243, Note_on_c, 0, 73, 43
2, 3250, Note_off_c, 0, 71, 64
2, 3447, Note_off_c, 0, 73, 64
2, 3469, Note_on_c, 0, 66, 54
2, 3552, Note_off_c, 0, 66, 64
2, 3601, Note_on_c, 0, 78, 64
2, 3942, Note_off_c, 0, 78, 64
2, 3948, Note_on_c, 0, 79, 68
2, 4043, Note_off_c, 0, 79, 64
2, 4073, Note_on_c, 0, 76, 62
2, 4264, Note_off_c, 0, 76, 64
2, 4313, Note_on_c, 0, 76, 62
2, 4344, Note_on_c, 0, 75, 57
2, 4353, Note_off_c, 0, 76, 64
2, 4376, Note_on_c, 0, 76, 53
2, 4377, Note_off_c, 0, 75, 64
2, 4397, Note_on_c, 0, 75, 64
2, 4410, Note_off_c, 0, 76, 64
2, 4440, Note_on_c, 0, 76, 63
2, 4443, Note_off_c, 0, 75, 64
2, 4520, Note_off_c, 0, 76, 64
2, 4556, Note_on_c, 0, 76, 68
2, 4672, Note_on_c, 0, 78, 52
2, 4686, Note_off_c, 0, 76, 64
2, 4831, Note_off_c, 0, 78, 64
2, 5152, Note_on_c, 0, 83, 62
2, 5240, Note_off_c, 0, 83, 64
2, 5272, Note_on_c, 0, 81, 68
2, 5394, Note_on_c, 0, 79, 57
2, 5400, Note_off_c, 0, 81, 64
2, 5489, Note_off_c, 0, 79, 64
2, 5521, Note_on_c, 0, 81, 72
2, 5632, Note_off_c, 0, 81, 64
2, 5636, Note_on_c, 0, 78, 46
2, 5719, Note_off_c, 0, 78, 64
2, 5753, Note_on_c, 0, 79, 70
2, 5872, Note_off_c, 0, 79, 64
2, 5882, Note_on_c, 0, 76, 51
2, 5960, Note_off_c, 0, 76, 64
2, 5997, Note_on_c, 0, 81, 60
2, 6070, Note_on_c, 0, 80, 53
2, 6082, Note_off_c, 0, 81, 64
2, 6116, Note_on_c, 0, 81, 49
2, 6120, Note_off_c, 0, 80, 64
2, 6159, Note_on_c, 0, 80, 47
2, 6165, Note_off_c, 0, 81, 64
2, 6185, Note_off_c, 0, 80, 64
2, 6186, Note_on_c, 0, 81, 60
2, 6216, Note_on_c, 0, 80, 51
2, 6219, Note_off_c, 0, 81, 64
2, 6235, Note_off_c, 0, 80, 64
2, 6239, Note_on_c, 0, 81, 58
2, 6262, Note_on_c, 0, 80, 53
2, 6264, Note_off_c, 0, 81, 64
2, 6284, Note_off_c, 0, 80, 64
2, 6286, Note_on_c, 0, 81, 64
2, 6311, Note_on_c, 0, 80, 52
2, 6323, Note_off_c, 0, 81, 64
2, 6346, Note_off_c, 0, 80, 64
2, 6350, Note_on_c, 0, 78, 48
2, 6399, Note_on_c, 0, 80, 66
2, 6410, Note_off_c, 0, 78, 64
2, 6437, Note_off_c, 0, 80, 64
2, 6459, Note_on_c, 0, 81, 64
2, 6585, Note_off_c, 0, 81, 64
2, 6593, Note_on_c, 0, 85, 56
2, 6681, Note_off_c, 0, 85, 64
2, 6714, Note_on_c, 0, 83, 64
2, 6832, Note_off_c, 0, 83, 64
2, 6832, Note_on_c, 0, 82, 46
2, 6912, Note_off_c, 0, 82, 64
2, 6952, Note_on_c, 0, 80, 50
2, 7073, Note_on_c, 0, 82, 49
2, 7074, Note_off_c, 0, 80, 64
2, 7168, Note_off_c, 0, 82, 64
2, 7203, Note_on_c, 0, 83, 61
2, 7315, Note_on_c, 0, 81, 46
2, 7316, Note_off_c, 0, 83, 64
2, 7393, Note_off_c, 0, 81, 64
2, 7440, Note_on_c, 0, 79, 57
2, 7553, Note_on_c, 0, 78, 44
2, 7563, Note_off_c, 0, 79, 64
2, 7642, Note_off_c, 0, 78, 64
2, 7670, Note_on_c, 0, 76, 57
2, 7786, Note_on_c, 0, 74, 41
2, 7791, Note_off_c, 0, 76, 64
2, 7871, Note_off_c, 0, 74, 64
2, 7908, Note_on_c, 0, 74, 57
2, 7935, Note_on_c, 0, 73, 42
2, 7946, Note_off_c, 0, 74, 64
2, 7961, Note_off_c, 0, 73, 64
2, 7962, Note_on_c, 0, 74, 63
2, 7989, Note_on_c, 0, 73, 52
2, 8000, Note_off_c, 0, 74, 64
2, 8026, Note_on_c, 0, 74, 55
2, 8036, Note_off_c, 0, 73, 64
2, 8120, Note_off_c, 0, 74, 64
2, 8153, Note_on_c, 0, 74, 60
2, 8284, Note_on_c, 0, 76, 37
2, 8287, Note_off_c, 0, 74, 64
2, 8823, Note_off_c, 0, 76, 64
2, 8874, Note_on_c, 0, 75, 57
2, 8992, Note_on_c, 0, 76, 52
2, 9000, Note_off_c, 0, 75, 64
2, 9092, Note_off_c, 0, 76, 64
2, 9118, Note_on_c, 0, 78, 62
2, 9227, Note_off_c, 0, 78, 64
2, 9227, Note_on_c, 0, 75, 52
2, 9317, Note_off_c, 0, 75, 64
2, 9360, Note_on_c, 0, 83, 57
2, 10156, Note_off_c, 0, 83, 64
2, 10192, Note_on_c, 0, 74, 62
2, 10293, Note_off_c, 0, 74, 64
2, 10313, Note_on_c, 0, 73, 51
2, 10401, Note_off_c, 0, 73, 64
2, 10433, Note_on_c, 0, 83, 72
2, 10491, Note_off_c, 0, 83, 64
2, 10563, Note_on_c, 0, 83, 72
2, 10684, Note_on_c, 0, 81, 55
2, 10706, Note_off_c, 0, 83, 64
2, 10879, Note_off_c, 0, 81, 64
2, 10905, Note_on_c, 0, 80, 58
2, 10982, Note_off_c, 0, 80, 64
2, 11025, Note_on_c, 0, 78, 58
2, 11098, Note_on_c, 0, 77, 60
2, 11101, Note_off_c, 0, 78, 64
2, 11140, Note_on_c, 0, 78, 51
2, 11144, Note_off_c, 0, 77, 64
2, 11169, Note_off_c, 0, 78, 64
2, 11170, Note_on_c, 0, 77, 55
2, 11196, Note_off_c, 0, 77, 64
2, 11196, Note_on_c, 0, 78, 60
2, 11218, Note_on_c, 0, 77, 68
2, 11220, Note_off_c, 0, 78, 64
2, 11241, Note_on_c, 0, 78, 64
2, 11244, Note_off_c, 0, 77, 64
2, 11266, Note_on_c, 0, 77, 66
2, 11268, Note_off_c, 0, 78, 64
2, 11380, Note_on_c, 0, 78, 57
2, 11383, Note_off_c, 0, 77, 64
2, 11482, Note_off_c, 0, 78, 64
2, 11515, Note_on_c, 0, 78, 52
2, 12007, Note_off_c, 0, 78, 64
2, 23997, Note_on_c, 0, 73, 52
2, 24175, Note_off_c, 0, 73, 64
2, 24222, Note_on_c, 0, 71, 64
2, 24351, Note_on_c, 0, 70, 33
2, 24362, Note_off_c, 0, 71, 64
2, 24576, Note_off_c, 0, 70, 64
2, 24585, Note_on_c, 0, 71, 64
2, 24705, Note_off_c, 0, 71, 64
2, 24711, Note_on_c, 0, 73, 49
2, 24913, Note_off_c, 0, 73, 64
2, 24947, Note_on_c, 0, 66, 54
2, 25146, Note_off_c, 0, 66, 64
2, 25189, Note_on_c, 0, 78, 59
2, 25510, Note_off_c, 0, 78, 64
2, 25549, Note_on_c, 0, 76, 49
2, 25631, Note_off_c, 0, 76, 64
2, 25671, Note_on_c, 0, 74, 62
2, 25793, Note_on_c, 0, 73, 39
2, 25805, Note_off_c, 0, 74, 64
2, 25889, Note_off_c, 0, 73, 64
2, 25917, Note_on_c, 0, 76, 63
2, 26019, Note_on_c, 0, 74, 53
2, 26042, Note_off_c, 0, 76, 64
2, 26108, Note_off_c, 0, 74, 64
2, 26147, Note_on_c, 0, 73, 52
2, 26268, Note_on_c, 0, 71, 45
2, 26282, Note_off_c, 0, 73, 64
2, 26358, Note_off_c, 0, 71, 64
2, 26393, Note_on_c, 0, 76, 58
2, 26821, Note_off_c, 0, 76, 64
2, 26867, Note_on_c, 0, 74, 52
2, 27295, Note_off_c, 0, 74, 64
2, 27344, Note_on_c, 0, 73, 53
2, 27469, Note_on_c, 0, 74, 66
2, 27487, Note_off_c, 0, 73, 64
2, 27565, Note_off_c, 0, 74, 64
2, 27592, Note_on_c, 0, 76, 78
2, 27702, Note_on_c, 0, 73, 52
2, 27711, Note_off_c, 0, 76, 64
2, 27803, Note_off_c, 0, 73, 64
2, 27835, Note_on_c, 0, 69, 48
2, 28006, Note_off_c, 0, 69, 64
2, 28079, Note_on_c, 0, 81, 58
2, 28346, Note_off_c, 0, 81, 64
2, 28663, Note_on_c, 0, 79, 57
2, 28727, Note_off_c, 0, 79, 64
2, 28785, Note_on_c, 0, 78, 52
2, 28912, Note_on_c, 0, 79, 63
2, 28917, Note_off_c, 0, 78, 64
2, 28960, Note_on_c, 0, 81, 61
2, 28966, Note_off_c, 0, 79, 64
2, 29000, Note_off_c, 0, 81, 64
2, 29034, Note_on_c, 0, 74, 68
2, 29143, Note_on_c, 0, 72, 63
2, 29149, Note_off_c, 0, 74, 64
2, 29229, Note_off_c, 0, 72, 64
2, 29260, Note_on_c, 0, 72, 66
2, 29290, Note_on_c, 0, 71, 70
2, 29302, Note_off_c, 0, 72, 64
2, 29322, Note_on_c, 0, 72, 63
2, 29328, Note_off_c, 0, 71, 64
2, 29354, Note_on_c, 0, 71, 66
2, 29363, Note_off_c, 0, 72, 64
2, 29405, Note_on_c, 0, 69, 66
2, 29417, Note_off_c, 0, 71, 64
2, 29474, Note_off_c, 0, 69, 64
2, 29513, Note_on_c, 0, 67, 52
2, 29664, Note_off_c, 0, 67, 64
2, 29753, Note_on_c, 0, 83, 59
2, 30172, Note_off_c, 0, 83, 64
2, 30231, Note_on_c, 0, 82, 59
2, 30343, Note_on_c, 0, 83, 57
2, 30353, Note_off_c, 0, 82, 64
2, 30440, Note_off_c, 0, 83, 64
2, 30465, Note_on_c, 0, 85, 58
2, 30582, Note_on_c, 0, 82, 44
2, 30587, Note_off_c, 0, 85, 64
2, 30678, Note_off_c, 0, 82, 64
2, 30712, Note_on_c, 0, 78, 39
2, 30874, Note_off_c, 0, 78, 64
2, 30954, Note_on_c, 0, 83, 55
2, 31113, Note_off_c, 0, 83, 64
2, 31188, Note_on_c, 0, 81, 58
2, 31520, Note_off_c, 0, 81, 64
2, 31544, Note_on_c, 0, 79, 68
2, 31596, Note_on_c, 0, 78, 60
2, 31607, Note_off_c, 0, 79, 64
2, 31648, Note_off_c, 0, 78, 64
2, 31669, Note_on_c, 0, 79, 70
2, 31787, Note_off_c, 0, 79, 64
2, 31787, Note_on_c, 0, 83, 55
2, 31857, Note_off_c, 0, 83, 64
2, 31909, Note_on_c, 0, 78, 58
2, 32030, Note_off_c, 0, 78, 64
2, 32031, Note_on_c, 0, 83, 63
2, 32098, Note_off_c, 0, 83, 64
2, 32164, Note_on_c, 0, 76, 46
2, 32739, Note_off_c, 0, 76, 64
2, 32746, Note_on_c, 0, 67, 52
2, 32820, Note_off_c, 0, 67, 64
2, 32871, Note_on_c, 0, 66, 52
2, 32965, Note_off_c, 0, 66, 64
2, 32987, Note_on_c, 0, 76, 60
2, 33065, Note_off_c, 0, 76, 64
2, 33115, Note_on_c, 0, 74, 74
2, 33230, Note_on_c, 0, 73, 54
2, 33231, Note_off_c, 0, 74, 64
2, 33313, Note_off_c, 0, 73, 64
2, 33347, Note_on_c, 0, 78, 56
2, 33456, Note_on_c, 0, 76, 52
2, 33465, Note_off_c, 0, 78, 64
2, 33546, Note_off_c, 0, 76, 64
2, 33588, Note_on_c, 0, 74, 57
2, 33700, Note_on_c, 0, 73, 51
2, 33711, Note_off_c, 0, 74, 64
2, 33801, Note_off_c, 0, 73, 64
2, 33832, Note_on_c, 0, 71, 66
2, 33942, Note_on_c, 0, 70, 47
2, 33951, Note_off_c, 0, 71, 64
2, 34037, Note_off_c, 0, 70, 64
2, 34079, Note_on_c, 0, 71, 52
2, 34388, Note_off_c, 0, 71, 64
2, 34429, Note_on_c, 0, 73, 39
2, 34512, Note_off_c, 0, 73, 64
2, 34540, Note_on_c, 0, 74, 57
2, 34623, Note_on_c, 0, 73, 48
2, 34634, Note_off_c, 0, 74, 64
2, 34664, Note_on_c, 0, 74, 58
2, 34671, Note_off_c, 0, 73, 64
2, 34702, Note_on_c, 0, 73, 43
2, 34709, Note_off_c, 0, 74, 64
2, 34725, Note_on_c, 0, 74, 70
2, 34729, Note_off_c, 0, 73, 64
2, 34754, Note_on_c, 0, 73, 53
2, 34757, Note_off_c, 0, 74, 64
2, 34772, Note_on_c, 0, 74, 70
2, 34800, Note_off_c, 0, 74, 64
2, 34883, Note_on_c, 0, 71, 53
2, 34888, Note_off_c, 0, 73, 64
2, 34959, Note_off_c, 0, 71, 64
2, 35015, Note_on_c, 0, 71, 51
2, 35523, Note_off_c, 0, 71, 64
2, 35523, End_track
3, 0, Start_track
3, 0, Title_t, "Violin2"
3, 0, Program_c, 1, 40
3, 0, Control_c, 1, 7, 100
3, 1203, Note_on_c, 1, 71, 55
3, 1532, Note_off_c, 1, 71, 64
3, 1551, Note_on_c, 1, 69, 48
3, 1626, Note_off_c, 1, 69, 64
3, 1686, Note_on_c, 1, 69, 64
3, 1789, Note_on_c, 1, 67, 47
3, 1798, Note_off_c, 1, 69, 64
3, 1894, Note_off_c, 1, 67, 64
3, 1918, Note_on_c, 1, 66, 57
3, 2028, Note_off_c, 1, 66, 64
3, 2029, Note_on_c, 1, 69, 62
3, 2131, Note_off_c, 1, 69, 64
3, 2155, Note_on_c, 1, 67, 66
3, 2266, Note_on_c, 1, 66, 43
3, 2271, Note_off_c, 1, 67, 64
3, 2354, Note_off_c, 1, 66, 64
3, 2406, Note_on_c, 1, 66, 60
3, 2534, Note_on_c, 1, 64, 40
3, 2549, Note_off_c, 1, 66, 64
3, 2723, Note_off_c, 1, 64, 64
3, 2750, Note_on_c, 1, 62, 60
3, 2842, Note_off_c, 1, 62, 64
3, 2884, Note_on_c, 1, 61, 62
3, 3112, Note_on_c, 1, 66, 62
3, 3115, Note_off_c, 1, 61, 64
3, 3318, Note_off_c, 1, 66, 64
3, 3360, Note_on_c, 1, 70, 62
3, 3516, Note_off_c, 1, 70, 64
3, 3598, Note_on_c, 1, 71, 76
3, 3716, Note_on_c, 1, 73, 59
3, 3725, Note_off_c, 1, 71, 64
3, 3840, Note_off_c, 1, 73, 64
3, 3846, Note_on_c, 1, 74, 63
3, 4010, Note_off_c, 1, 74, 64
3, 4074, Note_on_c, 1, 70, 47
3, 4234, Note_off_c, 1, 70, 64
3, 4316, Note_on_c, 1, 71, 66
3, 4431, Note_on_c, 1, 73, 59
3, 4444, Note_off_c, 1, 71, 64
3, 4519, Note_off_c, 1, 73, 64
3, 4553, Note_on_c, 1, 75, 62
3, 4682, Note_on_c, 1, 76, 66
3, 4687, Note_off_c, 1, 75, 64
3, 4788, Note_off_c, 1, 76, 64
3, 4808, Note_on_c, 1, 78, 63
3, 4915, Note_off_c, 1, 78, 64
3, 4920, Note_on_c, 1, 71, 53
3, 5016, Note_off_c, 1, 71, 64
3, 5041, Note_on_c, 1, 76, 68
3, 5437, Note_off_c, 1, 76, 64
3, 5510, Note_on_c, 1, 76, 61
3, 5543, Note_on_c, 1, 75, 51
3, 5555, Note_off_c, 1, 76, 64
3, 5568, Note_on_c, 1, 76, 64
3, 5574, Note_off_c, 1, 75, 64
3, 5598, Note_on_c, 1, 75, 62
3, 5609, Note_off_c, 1, 76, 64
3, 5723, Note_off_c, 1, 75, 64
3, 5760, Note_on_c, 1, 76, 68
3, 5947, Note_off_c, 1, 76, 64
3, 5998, Note_on_c, 1, 71, 55
3, 6400, Note_off_c, 1, 71, 64
3, 6480, Note_on_c, 1, 76, 64
3, 6648, Note_off_c, 1, 76, 64
3, 6719, Note_on_c, 1, 73, 47
3, 7112, Note_off_c, 1, 73, 64
3, 7200, Note_on_c, 1, 71, 58
3, 8125, Note_off_c, 1, 71, 64
3, 8146, Note_on_c, 1, 70, 66
3, 8268, Note_off_c, 1, 70, 64
3, 8269, Note_on_c, 1, 71, 52
3, 8382, Note_off_c, 1, 71, 64
3, 8405, Note_on_c, 1, 73, 57
3, 8839, Note_off_c, 1, 73, 64
3, 8878, Note_on_c, 1, 71, 50
3, 9462, Note_off_c, 1, 71, 64
3, 9477, Note_on_c, 1, 73, 52
3, 9569, Note_off_c, 1, 73, 64
3, 9600, Note_on_c, 1, 71, 68
3, 9711, Note_on_c, 1, 69, 55
3, 9716, Note_off_c, 1, 71, 64
3, 9804, Note_off_c, 1, 69, 64
3, 9827, Note_on_c, 1, 68, 63
3, 9944, Note_on_c, 1, 66, 56
3, 9947, Note_off_c, 1, 68, 64
3, 10018, Note_off_c, 1, 66, 64
3, 10075, Note_on_c, 1, 68, 56
3, 10371, Note_off_c, 1, 68, 64
3, 10428, Note_on_c, 1, 77, 63
3, 10513, Note_off_c, 1, 77, 64
3, 10561, Note_on_c, 1, 78, 52
3, 10899, Note_off_c, 1, 78, 64
3, 10920, Note_on_c, 1, 74, 66
3, 11006, Note_off_c, 1, 74, 64
3, 11043, Note_on_c, 1, 73, 44
3, 11217, Note_off_c, 1, 73, 64
3, 11266, Note_on_c, 1, 73, 51
3, 11451, Note_off_c, 1, 73, 64
3, 11507, Note_on_c, 1, 73, 45
3, 12029, Note_off_c, 1, 73, 64
3, 24716, Note_on_c, 1, 70, 53
3, 25061, Note_off_c, 1, 70, 64
3, 25066, Note_on_c, 1, 76, 60
3, 25162, Note_off_c, 1, 76, 64
3, 25196, Note_on_c, 1, 74, 64
3, 25306, Note_off_c, 1, 74, 64
3, 25308, Note_on_c, 1, 73, 55
3, 25383, Note_off_c, 1, 73, 64
3, 25424, Note_on_c, 1, 71, 66
3, 25533, Note_on_c, 1, 70, 50
3, 25543, Note_off_c, 1, 71, 64
3, 25617, Note_off_c, 1, 70, 64
3, 25672, Note_on_c, 1, 71, 60
3, 26494, Note_off_c, 1, 71, 64
3, 26508, Note_on_c, 1, 69, 54
3, 26603, Note_off_c, 1, 69, 64
3, 26631, Note_on_c, 1, 71, 60
3, 26754, Note_off_c, 1, 71, 64
3, 26867, Note_on_c, 1, 68, 57
3, 27008, Note_off_c, 1, 68, 64
3, 27120, Note_on_c, 1, 69, 57
3, 27931, Note_off_c, 1, 69, 64
3, 27946, Note_on_c, 1, 67, 57
3, 28057, Note_off_c, 1, 67, 64
3, 28073, Note_on_c, 1, 69, 78
3, 28183, Note_on_c, 1, 71, 57
3, 28185, Note_off_c, 1, 69, 64
3, 28280, Note_off_c, 1, 71, 64
3, 28313, Note_on_c, 1, 72, 64
3, 28655, Note_off_c, 1, 72, 64
3, 28671, Note_on_c, 1, 69, 57
3, 28748, Note_off_c, 1, 69, 64
3, 28790, Note_on_c, 1, 74, 70
3, 28900, Note_on_c, 1, 72, 59
3, 28919, Note_off_c, 1, 74, 64
3, 28991, Note_off_c, 1, 72, 64
3, 29023, Note_on_c, 1, 71, 64
3, 29142, Note_off_c, 1, 71, 64
3, 29143, Note_on_c, 1, 69, 48
3, 29222, Note_off_c, 1, 69, 64
3, 29269, Note_on_c, 1, 67, 60
3, 29408, Note_off_c, 1, 67, 64
3, 29516, Note_on_c, 1, 62, 57
3, 29655, Note_off_c, 1, 62, 64
3, 29757, Note_on_c, 1, 67, 52
3, 29926, Note_off_c, 1, 67, 64
3, 29993, Note_on_c, 1, 79, 63
3, 30107, Note_on_c, 1, 78, 54
3, 30119, Note_off_c, 1, 79, 64
3, 30196, Note_off_c, 1, 78, 64
3, 30227, Note_on_c, 1, 76, 66
3, 30348, Note_on_c, 1, 74, 60
3, 30356, Note_off_c, 1, 76, 64
3, 30438, Note_off_c, 1, 74, 64
3, 30464, Note_on_c, 1, 76, 64
3, 30583, Note_on_c, 1, 73, 55
3, 30595, Note_off_c, 1, 76, 64
3, 30671, Note_off_c, 1, 73, 64
3, 30707, Note_on_c, 1, 70, 53
3, 30827, Note_off_c, 1, 70, 64
3, 30828, Note_on_c, 1, 73, 49
3, 30927, Note_off_c, 1, 73, 64
3, 30953, Note_on_c, 1, 71, 68
3, 31079, Note_on_c, 1, 73, 60
3, 31082, Note_off_c, 1, 71, 64
3, 31183, Note_off_c, 1, 73, 64
3, 31208, Note_on_c, 1, 75, 57
3, 31515, Note_off_c, 1, 75, 64
3, 31546, Note_on_c, 1, 76, 64
3, 31592, Note_on_c, 1, 78, 59
3, 31603, Note_off_c, 1, 76, 64
3, 31655, Note_off_c, 1, 78, 64
3, 31677, Note_on_c, 1, 71, 54
3, 32238, Note_off_c, 1, 71, 64
3, 32263, Note_on_c, 1, 76, 58
3, 32350, Note_off_c, 1, 76, 64
3, 32389, Note_on_c, 1, 70, 60
3, 32499, Note_off_c, 1, 70, 64
3, 32506, Note_on_c, 1, 71, 61
3, 32599, Note_off_c, 1, 71, 64
3, 32638, Note_on_c, 1, 73, 57
3, 32965, Note_off_c, 1, 73, 64
3, 32975, Note_on_c, 1, 67, 55
3, 33102, Note_on_c, 1, 66, 52
3, 33103, Note_off_c, 1, 67, 64
3, 33227, Note_on_c, 1, 64, 57
3, 33228, Note_off_c, 1, 66, 64
3, 33327, Note_off_c, 1, 64, 64
3, 33351, Note_on_c, 1, 73, 55
3, 33506, Note_off_c, 1, 73, 64
3, 33587, Note_on_c, 1, 66, 61
3, 33752, Note_off_c, 1, 66, 64
3, 33832, Note_on_c, 1, 59, 60
3, 33951, Note_on_c, 1, 61, 57
3, 33953, Note_off_c, 1, 59, 64
3, 34034, Note_off_c, 1, 61, 64
3, 34070, Note_on_c, 1, 62, 66
3, 34190, Note_on_c, 1, 66, 57
3, 34201, Note_off_c, 1, 62, 64
3, 34283, Note_off_c, 1, 66, 64
3, 34316, Note_on_c, 1, 64, 68
3, 34424, Note_off_c, 1, 64, 64
3, 34427, Note_on_c, 1, 67, 63
3, 34538, Note_off_c, 1, 67, 64
3, 34557, Note_on_c, 1, 66, 53
3, 34722, Note_off_c, 1, 66, 64
3, 34790, Note_on_c, 1, 66, 55
3, 34937, Note_off_c, 1, 66, 64
3, 35016, Note_on_c, 1, 66, 53
3, 35523, Note_off_c, 1, 66, 64
3, 35523, End_track
4, 0, Start_track
4, 0, Title_t, "Viola"
4, 0, Program_c, 2, 41
4, 0, Control_c, 2, 7, 100
4, 1196, Note_on_c, 2, 62, 55
4, 1540, Note_off_c, 2, 62, 64
4, 1541, Note_on_c, 2, 61, 58
4, 1632, Note_off_c, 2, 61, 64
4, 1678, Note_on_c, 2, 59, 47
4, 2366, Note_off_c, 2, 59, 64
4, 2392, Note_on_c, 2, 61, 56
4, 2506, Note_on_c, 2, 62, 59
4, 2515, Note_off_c, 2, 61, 64
4, 2609, Note_off_c, 2, 62, 64
4, 2640, Note_on_c, 2, 64, 63
4, 3060, Note_off_c, 2, 64, 64
4, 3120, Note_on_c, 2, 58, 53
4, 3277, Note_off_c, 2, 58, 64
4, 3352, Note_on_c, 2, 66, 62
4, 3534, Note_off_c, 2, 66, 64
4, 3598, Note_on_c, 2, 59, 56
4, 3771, Note_off_c, 2, 59, 64
4, 3838, Note_on_c, 2, 58, 49
4, 3992, Note_off_c, 2, 58, 64
4, 4076, Note_on_c, 2, 66, 58
4, 4416, Note_off_c, 2, 66, 64
4, 4420, Note_on_c, 2, 67, 58
4, 4523, Note_off_c, 2, 67, 64
4, 4551, Note_on_c, 2, 69, 70
4, 4729, Note_off_c, 2, 69, 64
4, 4792, Note_on_c, 2, 63, 51
4, 4969, Note_off_c, 2, 63, 64
4, 5040, Note_on_c, 2, 67, 60
4, 5225, Note_off_c, 2, 67, 64
4, 5269, Note_on_c, 2, 66, 26
4, 5435, Note_off_c, 2, 66, 64
4, 5506, Note_on_c, 2, 71, 59
4, 5689, Note_off_c, 2, 71, 64
4, 5756, Note_on_c, 2, 64, 58
4, 5899, Note_off_c, 2, 64, 64
4, 6006, Note_on_c, 2, 64, 64
4, 6417, Note_off_c, 2, 64, 64
4, 6461, Note_on_c, 2, 64, 49
4, 6624, Note_off_c, 2, 64, 64
4, 6712, Note_on_c, 2, 66, 60
4, 6784, Note_on_c, 2, 64, 49
4, 6795, Note_off_c, 2, 66, 64
4, 6826, Note_on_c, 2, 66, 55
4, 6828, Note_off_c, 2, 64, 64
4, 6861, Note_on_c, 2, 64, 52
4, 6867, Note_off_c, 2, 66, 64
4, 6887, Note_off_c, 2, 64, 64
4, 6887, Note_on_c, 2, 66, 57
4, 6915, Note_on_c, 2, 64, 59
4, 6920, Note_off_c, 2, 66, 64
4, 6938, Note_off_c, 2, 64, 64
4, 6939, Note_on_c, 2, 66, 64
4, 6965, Note_on_c, 2, 64, 57
4, 6967, Note_off_c, 2, 66, 64
4, 6987, Note_on_c, 2, 66, 66
4, 6990, Note_off_c, 2, 64, 64
4, 7016, Note_off_c, 2, 66, 64
4, 7035, Note_on_c, 2, 66, 55
4, 7044, Note_on_c, 2, 64, 54
4, 7056, Note_off_c, 2, 66, 64
4, 7078, Note_on_c, 2, 62, 57
4, 7093, Note_off_c, 2, 64, 64
4, 7120, Note_on_c, 2, 64, 66
4, 7138, Note_off_c, 2, 62, 64
4, 7181, Note_off_c, 2, 64, 64
4, 7183, Note_on_c, 2, 66, 64
4, 7372, Note_off_c, 2, 66, 64
4, 7436, Note_on_c, 2, 59, 49
4, 7635, Note_off_c, 2, 59, 64
4, 7653, Note_on_c, 2, 64, 60
4, 7772, Note_on_c, 2, 66, 56
4, 7776, Note_off_c, 2, 64, 64
4, 7862, Note_off_c, 2, 66, 64
4, 7919, Note_on_c, 2, 67, 64
4, 8363, Note_off_c, 2, 67, 64
4, 8396, Note_on_c, 2, 66, 58
4, 8513, Note_on_c, 2, 68, 59
4, 8516, Note_off_c, 2, 66, 64
4, 8602, Note_off_c, 2, 68, 64
4, 8647, Note_on_c, 2, 70, 66
4, 8823, Note_off_c, 2, 70, 64
4, 8873, Note_on_c, 2, 66, 64
4, 8989, Note_on_c, 2, 64, 60
4, 8999, Note_off_c, 2, 66, 64
4, 9081, Note_off_c, 2, 64, 64
4, 9115, Note_on_c, 2, 63, 56
4, 9229, Note_on_c, 2, 61, 58
4, 9236, Note_off_c, 2, 63, 64
4, 9327, Note_off_c, 2, 61, 64
4, 9360, Note_on_c, 2, 63, 57
4, 9540, Note_off_c, 2, 63, 64
4, 9605, Note_on_c, 2, 65, 60
4, 9738, Note_off_c, 2, 65, 64
4, 9843, Note_on_c, 2, 74, 64
4, 9981, Note_off_c, 2, 74, 64
4, 10072, Note_on_c, 2, 73, 51
4, 10230, Note_off_c, 2, 73, 64
4, 10323, Note_on_c, 2, 61, 57
4, 10582, Note_off_c, 2, 61, 64
4, 10663, Note_on_c, 2, 73, 55
4, 10742, Note_off_c, 2, 73, 64
4, 10803, Note_on_c, 2, 66, 60
4, 10904, Note_off_c, 2, 66, 64
4, 10917, Note_on_c, 2, 71, 68
4, 11003, Note_off_c, 2, 71, 64
4, 11050, Note_on_c, 2, 69, 62
4, 11122, Note_on_c, 2, 68, 57
4, 11133, Note_off_c, 2, 69, 64
4, 11164, Note_on_c, 2, 69, 58
4, 11169, Note_off_c, 2, 68, 64
4, 11195, Note_on_c, 2, 68, 52
4, 11206, Note_off_c, 2, 69, 64
4, 11217, Note_on_c, 2, 69, 59
4, 11218, Note_off_c, 2, 68, 64
4, 11242, Note_on_c, 2, 68, 58
4, 11247, Note_off_c, 2, 69, 64
4, 11377, Note_on_c, 2, 70, 57
4, 11387, Note_off_c, 2, 68, 64
4, 11466, Note_off_c, 2, 70, 64
4, 11518, Note_on_c, 2, 70, 52
4, 12027, Note_off_c, 2, 70, 64
4, 24719, Note_on_c, 2, 66, 55
4, 25060, Note_off_c, 2, 66, 64
4, 25063, Note_on_c, 2, 67, 61
4, 25171, Note_off_c, 2, 67, 64
4, 25186, Note_on_c, 2, 66, 68
4, 25308, Note_off_c, 2, 66, 64
4, 25309, Note_on_c, 2, 64, 58
4, 25409, Note_off_c, 2, 64, 64
4, 25424, Note_on_c, 2, 62, 64
4, 25540, Note_on_c, 2, 61, 64
4, 25551, Note_off_c, 2, 62, 64
4, 25626, Note_off_c, 2, 61, 64
4, 25667, Note_on_c, 2, 59, 64
4, 25830, Note_off_c, 2, 59, 64
4, 25915, Note_on_c, 2, 54, 52
4, 26069, Note_off_c, 2, 54, 64
4, 26153, Note_on_c, 2, 66, 57
4, 26293, Note_off_c, 2, 66, 64
4, 26402, Note_on_c, 2, 64, 57
4, 27225, Note_off_c, 2, 64, 64
4, 27226, Note_on_c, 2, 66, 63
4, 27320, Note_off_c, 2, 66, 64
4, 27350, Note_on_c, 2, 64, 68
4, 27469, Note_off_c, 2, 64, 64
4, 27470, Note_on_c, 2, 62, 66
4, 27565, Note_off_c, 2, 62, 64
4, 27587, Note_on_c, 2, 61, 66
4, 27699, Note_off_c, 2, 61, 64
4, 27699, Note_on_c, 2, 59, 53
4, 27785, Note_off_c, 2, 59, 64
4, 27837, Note_on_c, 2, 61, 68
4, 27986, Note_off_c, 2, 61, 64
4, 28081, Note_on_c, 2, 62, 64
4, 28388, Note_off_c, 2, 62, 64
4, 28421, Note_on_c, 2, 57, 48
4, 28508, Note_off_c, 2, 57, 64
4, 28562, Note_on_c, 2, 69, 70
4, 29016, Note_off_c, 2, 69, 64
4, 29036, Note_on_c, 2, 66, 57
4, 29183, Note_off_c, 2, 66, 64
4, 29276, Note_on_c, 2, 62, 66
4, 29852, Note_off_c, 2, 62, 64
4, 29864, Note_on_c, 2, 59, 64
4, 29944, Note_off_c, 2, 59, 64
4, 29989, Note_on_c, 2, 61, 66
4, 30104, Note_on_c, 2, 62, 64
4, 30116, Note_off_c, 2, 61, 64
4, 30210, Note_off_c, 2, 62, 64
4, 30227, Note_on_c, 2, 64, 68
4, 30343, Note_on_c, 2, 66, 66
4, 30351, Note_off_c, 2, 64, 64
4, 30455, Note_off_c, 2, 66, 64
4, 30471, Note_on_c, 2, 67, 68
4, 30647, Note_off_c, 2, 67, 64
4, 30718, Note_on_c, 2, 61, 60
4, 30858, Note_off_c, 2, 61, 64
4, 30954, Note_on_c, 2, 66, 70
4, 31520, Note_off_c, 2, 66, 64
4, 31553, Note_on_c, 2, 64, 66
4, 31603, Note_on_c, 2, 63, 59
4, 31611, Note_off_c, 2, 64, 64
4, 31669, Note_off_c, 2, 63, 64
4, 31675, Note_on_c, 2, 64, 68
4, 31834, Note_off_c, 2, 64, 64
4, 31904, Note_on_c, 2, 66, 62
4, 32049, Note_off_c, 2, 66, 64
4, 32153, Note_on_c, 2, 67, 66
4, 32721, Note_off_c, 2, 67, 64
4, 32751, Note_on_c, 2, 64, 66
4, 32834, Note_off_c, 2, 64, 64
4, 32870, Note_on_c, 2, 61, 58
4, 33090, Note_off_c, 2, 61, 64
4, 33107, Note_on_c, 2, 62, 66
4, 33221, Note_off_c, 2, 62, 64
4, 33223, Note_on_c, 2, 64, 57
4, 33320, Note_off_c, 2, 64, 64
4, 33361, Note_on_c, 2, 58, 63
4, 33540, Note_off_c, 2, 58, 64
4, 33589, Note_on_c, 2, 59, 64
4, 33703, Note_on_c, 2, 61, 60
4, 33712, Note_off_c, 2, 59, 64
4, 33800, Note_off_c, 2, 61, 64
4, 33828, Note_on_c, 2, 62, 66
4, 33947, Note_on_c, 2, 64, 66
4, 33959, Note_off_c, 2, 62, 64
4, 34041, Note_off_c, 2, 64, 64
4, 34083, Note_on_c, 2, 62, 60
4, 34412, Note_off_c, 2, 62, 64
4, 34431, Note_on_c, 2, 64, 80
4, 34525, Note_off_c, 2, 64, 64
4, 34561, Note_on_c, 2, 58, 55
4, 34732, Note_off_c, 2, 58, 64
4, 34796, Note_on_c, 2, 58, 51
4, 34955, Note_off_c, 2, 58, 64
4, 35027, Note_on_c, 2, 62, 57
4, 35535, Note_off_c, 2, 62, 64
4, 35535, End_track
5, 0, Start_track
5, 0, Title_t, "Cello"
5, 0, Program_c, 3, 42
5, 0, Control_c, 3, 7, 100
5, 1191, Note_on_c, 3, 59, 53
5, 1401, Note_off_c, 3, 59, 64
5, 1438, Note_on_c, 3, 55, 51
5, 1775, Note_on_c, 3, 57, 60
5, 1782, Note_off_c, 3, 55, 64
5, 1881, Note_off_c, 3, 57, 64
5, 1907, Note_on_c, 3, 59, 59
5, 2081, Note_off_c, 3, 59, 64
5, 2164, Note_on_c, 3, 52, 58
5, 2362, Note_off_c, 3, 52, 64
5, 2389, Note_on_c, 3, 57, 48
5, 2569, Note_off_c, 3, 57, 64
5, 2631, Note_on_c, 3, 55, 57
5, 3096, Note_off_c, 3, 55, 64
5, 3118, Note_on_c, 3, 54, 52
5, 3229, Note_off_c, 3, 54, 64
5, 3229, Note_on_c, 3, 52, 53
5, 3329, Note_off_c, 3, 52, 64
5, 3357, Note_on_c, 3, 50, 66
5, 3470, Note_on_c, 3, 52, 53
5, 3481, Note_off_c, 3, 50, 64
5, 3545, Note_off_c, 3, 52, 64
5, 3604, Note_on_c, 3, 50, 66
5, 3714, Note_on_c, 3, 52, 58
5, 3729, Note_off_c, 3, 50, 64
5, 3840, Note_off_c, 3, 52, 64
5, 3844, Note_on_c, 3, 54, 60
5, 4142, Note_off_c, 3, 54, 64
5, 4178, Note_on_c, 3, 47, 60
5, 4252, Note_off_c, 3, 47, 64
5, 4316, Note_on_c, 3, 59, 63
5, 4653, Note_off_c, 3, 59, 64
5, 4667, Note_on_c, 3, 60, 70
5, 4752, Note_off_c, 3, 60, 64
5, 4793, Note_on_c, 3, 57, 62
5, 5019, Note_off_c, 3, 57, 64
5, 5041, Note_on_c, 3, 55, 70
5, 5157, Note_off_c, 3, 55, 64
5, 5161, Note_on_c, 3, 57, 63
5, 5251, Note_off_c, 3, 57, 64
5, 5276, Note_on_c, 3, 59, 63
5, 5523, Note_off_c, 3, 59, 64
5, 5866, Note_on_c, 3, 64, 60
5, 5964, Note_off_c, 3, 64, 64
5, 5993, Note_on_c, 3, 62, 68
5, 6114, Note_on_c, 3, 61, 57
5, 6119, Note_off_c, 3, 62, 64
5, 6212, Note_off_c, 3, 61, 64
5, 6237, Note_on_c, 3, 62, 76
5, 6349, Note_off_c, 3, 62, 64
5, 6353, Note_on_c, 3, 59, 57
5, 6438, Note_off_c, 3, 59, 64
5, 6472, Note_on_c, 3, 61, 60
5, 6588, Note_off_c, 3, 61, 64
5, 6590, Note_on_c, 3, 57, 53
5, 6669, Note_off_c, 3, 57, 64
5, 6715, Note_on_c, 3, 62, 68
5, 6792, Note_on_c, 3, 61, 47
5, 6801, Note_off_c, 3, 62, 64
5, 6834, Note_on_c, 3, 62, 58
5, 6839, Note_off_c, 3, 61, 64
5, 6876, Note_on_c, 3, 61, 42
5, 6883, Note_off_c, 3, 62, 64
5, 6902, Note_on_c, 3, 62, 59
5, 6903, Note_off_c, 3, 61, 64
5, 6934, Note_on_c, 3, 61, 47
5, 6937, Note_off_c, 3, 62, 64
5, 6957, Note_on_c, 3, 62, 62
5, 6959, Note_off_c, 3, 61, 64
5, 6983, Note_off_c, 3, 62, 64
5, 6983, Note_on_c, 3, 61, 53
5, 7003, Note_on_c, 3, 62, 62
5, 7004, Note_off_c, 3, 61, 64
5, 7028, Note_on_c, 3, 61, 53
5, 7035, Note_off_c, 3, 62, 64
5, 7061, Note_on_c, 3, 59, 64
5, 7068, Note_off_c, 3, 61, 64
5, 7119, Note_on_c, 3, 61, 57
5, 7127, Note_off_c, 3, 59, 64
5, 7170, Note_off_c, 3, 61, 64
5, 7187, Note_on_c, 3, 62, 68
5, 7305, Note_on_c, 3, 66, 64
5, 7308, Note_off_c, 3, 62, 64
5, 7403, Note_off_c, 3, 66, 64
5, 7430, Note_on_c, 3, 64, 66
5, 7543, Note_off_c, 3, 64, 64
5, 7544, Note_on_c, 3, 62, 59
5, 7633, Note_off_c, 3, 62, 64
5, 7674, Note_on_c, 3, 61, 60
5, 7785, Note_on_c, 3, 62, 66
5, 7790, Note_off_c, 3, 61, 64
5, 7873, Note_off_c, 3, 62, 64
5, 7915, Note_on_c, 3, 64, 68
5, 8031, Note_on_c, 3, 62, 72
5, 8046, Note_off_c, 3, 64, 64
5, 8124, Note_off_c, 3, 62, 64
5, 8147, Note_on_c, 3, 61, 57
5, 8265, Note_on_c, 3, 59, 60
5, 8274, Note_off_c, 3, 61, 64
5, 8366, Note_off_c, 3, 59, 64
5, 8379, Note_on_c, 3, 58, 59
5, 8502, Note_on_c, 3, 56, 49
5, 8511, Note_off_c, 3, 58, 64
5, 8584, Note_off_c, 3, 56, 64
5, 8635, Note_on_c, 3, 54, 60
5, 8745, Note_off_c, 3, 54, 64
5, 8745, Note_on_c, 3, 56, 74
5, 8840, Note_off_c, 3, 56, 64
5, 8878, Note_on_c, 3, 57, 59
5, 9555, Note_off_c, 3, 57, 64
5, 9593, Note_on_c, 3, 56, 63
5, 9719, Note_on_c, 3, 57, 70
5, 9726, Note_off_c, 3, 56, 64
5, 9805, Note_off_c, 3, 57, 64
5, 9836, Note_on_c, 3, 59, 59
5, 9938, Note_off_c, 3, 59, 64
5, 9950, Note_on_c, 3, 56, 53
5, 10047, Note_off_c, 3, 56, 64
5, 10083, Note_on_c, 3, 65, 70
5, 10391, Note_off_c, 3, 65, 64
5, 10427, Note_on_c, 3, 56, 53
5, 10526, Note_off_c, 3, 56, 64
5, 10549, Note_on_c, 3, 54, 57
5, 10643, Note_off_c, 3, 54, 64
5, 10666, Note_on_c, 3, 64, 64
5, 10770, Note_off_c, 3, 64, 64
5, 10794, Note_on_c, 3, 62, 76
5, 10897, Note_off_c, 3, 62, 64
5, 10914, Note_on_c, 3, 59, 58
5, 10996, Note_off_c, 3, 59, 64
5, 11038, Note_on_c, 3, 61, 56
5, 11177, Note_off_c, 3, 61, 64
5, 11279, Note_on_c, 3, 49, 61
5, 11416, Note_off_c, 3, 49, 64
5, 11522, Note_on_c, 3, 42, 60
5, 12017, Note_off_c, 3, 42, 64
5, 24712, Note_on_c, 3, 54, 55
5, 24901, Note_off_c, 3, 54, 64
5, 24965, Note_on_c, 3, 50, 47
5, 25301, Note_on_c, 3, 52, 52
5, 25303, Note_off_c, 3, 50, 64
5, 25422, Note_off_c, 3, 52, 64
5, 25440, Note_on_c, 3, 54, 59
5, 25600, Note_off_c, 3, 54, 64
5, 25680, Note_on_c, 3, 47, 58
5, 25837, Note_off_c, 3, 47, 64
5, 25912, Note_on_c, 3, 59, 60
5, 26241, Note_off_c, 3, 59, 64
5, 26260, Note_on_c, 3, 57, 66
5, 26345, Note_off_c, 3, 57, 64
5, 26384, Note_on_c, 3, 56, 59
5, 26510, Note_on_c, 3, 54, 52
5, 26518, Note_off_c, 3, 56, 64
5, 26614, Note_off_c, 3, 54, 64
5, 26635, Note_on_c, 3, 57, 66
5, 26756, Note_on_c, 3, 56, 63
5, 26775, Note_off_c, 3, 57, 64
5, 26869, Note_off_c, 3, 56, 64
5, 26875, Note_on_c, 3, 54, 53
5, 26983, Note_off_c, 3, 54, 64
5, 26984, Note_on_c, 3, 52, 56
5, 27099, Note_off_c, 3, 52, 64
5, 27118, Note_on_c, 3, 57, 63
5, 27543, Note_off_c, 3, 57, 64
5, 27598, Note_on_c, 3, 55, 66
5, 28037, Note_off_c, 3, 55, 64
5, 28082, Note_on_c, 3, 54, 59
5, 28192, Note_on_c, 3, 55, 60
5, 28208, Note_off_c, 3, 54, 64
5, 28306, Note_off_c, 3, 55, 64
5, 28317, Note_on_c, 3, 57, 66
5, 28421, Note_on_c, 3, 54, 58
5, 28428, Note_off_c, 3, 57, 64
5, 28497, Note_off_c, 3, 54, 64
5, 28550, Note_on_c, 3, 50, 64
5, 28710, Note_off_c, 3, 50, 64
5, 28797, Note_on_c, 3, 62, 62
5, 29070, Note_off_c, 3, 62, 64
5, 29393, Note_on_c, 3, 60, 64
5, 29469, Note_off_c, 3, 60, 64
5, 29522, Note_on_c, 3, 59, 63
5, 29636, Note_on_c, 3, 60, 66
5, 29649, Note_off_c, 3, 59, 64
5, 29691, Note_on_c, 3, 62, 64
5, 29697, Note_off_c, 3, 60, 64
5, 29737, Note_off_c, 3, 62, 64
5, 29754, Note_on_c, 3, 55, 59
5, 29867, Note_off_c, 3, 55, 64
5, 29867, Note_on_c, 3, 54, 58
5, 29961, Note_off_c, 3, 54, 64
5, 29992, Note_on_c, 3, 52, 60
5, 30108, Note_on_c, 3, 50, 63
5, 30110, Note_off_c, 3, 52, 64
5, 30215, Note_off_c, 3, 50, 64
5, 30238, Note_on_c, 3, 49, 56
5, 30391, Note_off_c, 3, 49, 64
5, 30489, Note_on_c, 3, 64, 64
5, 30919, Note_off_c, 3, 64, 64
5, 30954, Note_on_c, 3, 63, 60
5, 31075, Note_on_c, 3, 64, 63
5, 31080, Note_off_c, 3, 63, 64
5, 31183, Note_off_c, 3, 64, 64
5, 31196, Note_on_c, 3, 66, 63
5, 31306, Note_on_c, 3, 63, 66
5, 31317, Note_off_c, 3, 66, 64
5, 31391, Note_off_c, 3, 63, 64
5, 31429, Note_on_c, 3, 59, 58
5, 31610, Note_off_c, 3, 59, 64
5, 31671, Note_on_c, 3, 64, 66
5, 31812, Note_off_c, 3, 64, 64
5, 31918, Note_on_c, 3, 62, 66
5, 32249, Note_off_c, 3, 62, 64
5, 32268, Note_on_c, 3, 61, 62
5, 32310, Note_on_c, 3, 59, 58
5, 32324, Note_off_c, 3, 61, 64
5, 32359, Note_off_c, 3, 59, 64
5, 32382, Note_on_c, 3, 61, 58
5, 32501, Note_on_c, 3, 64, 62
5, 32513, Note_off_c, 3, 61, 64
5, 32567, Note_off_c, 3, 64, 64
5, 32626, Note_on_c, 3, 59, 64
5, 32737, Note_off_c, 3, 59, 64
5, 32743, Note_on_c, 3, 64, 58
5, 32808, Note_off_c, 3, 64, 64
5, 32880, Note_on_c, 3, 58, 53
5, 33448, Note_off_c, 3, 58, 64
5, 33463, Note_on_c, 3, 49, 62
5, 33535, Note_off_c, 3, 49, 64
5, 33583, Note_on_c, 3, 47, 63
5, 33706, Note_off_c, 3, 47, 64
5, 33706, Note_on_c, 3, 57, 66
5, 33807, Note_off_c, 3, 57, 64
5, 33833, Note_on_c, 3, 55, 70
5, 33951, Note_off_c, 3, 55, 64
5, 33951, Note_on_c, 3, 54, 58
5, 34053, Note_off_c, 3, 54, 64
5, 34074, Note_on_c, 3, 59, 70
5, 34177, Note_off_c, 3, 59, 64
5, 34193, Note_on_c, 3, 57, 61
5, 34277, Note_off_c, 3, 57, 64
5, 34315, Note_on_c, 3, 55, 66
5, 34418, Note_off_c, 3, 55, 64
5, 34418, Note_on_c, 3, 52, 59
5, 34508, Note_off_c, 3, 52, 64
5, 34552, Note_on_c, 3, 54, 56
5, 34708, Note_off_c, 3, 54, 64
5, 34789, Note_on_c, 3, 42, 60
5, 34917, Note_off_c, 3, 42, 64
5, 35026, Note_on_c, 3, 47, 64
5, 35542, Note_off_c, 3, 47, 64
5, 35542, End_track
6, 0, Start_track
6, 0, Title_t, "Flute"
6, 0, Program_c, 4, 73
6, 0, Control_c, 4, 7, 127
6, 471, Note_on_c, 4, 78, 53
6, 644, Note_off_c, 4, 78, 64
6, 708, Note_on_c, 4, 76, 53
6, 839, Note_on_c, 4, 74, 46
6, 851, Note_off_c, 4, 76, 64
6, 1062, Note_off_c, 4, 74, 64
6, 1070, Note_on_c, 4, 76, 62
6, 1195, Note_off_c, 4, 76, 64
6, 1197, Note_on_c, 4, 78, 49
6, 1368, Note_off_c, 4, 78, 64
6, 1432, Note_on_c, 4, 71, 55
6, 1655, Note_off_c, 4, 71, 64
6, 1675, Note_on_c, 4, 76, 60
6, 1862, Note_off_c, 4, 76, 64
6, 1911, Note_on_c, 4, 74, 43
6, 2353, Note_off_c, 4, 74, 64
6, 2389, Note_on_c, 4, 73, 55
6, 2512, Note_on_c, 4, 71, 41
6, 2531, Note_off_c, 4, 73, 64
6, 2605, Note_off_c, 4, 71, 64
6, 2630, Note_on_c, 4, 70, 57
6, 2748, Note_on_c, 4, 71, 59
6, 2758, Note_off_c, 4, 70, 64
6, 2829, Note_off_c, 4, 71, 64
6, 2870, Note_on_c, 4, 71, 61
6, 2900, Note_on_c, 4, 70, 64
6, 2912, Note_off_c, 4, 71, 64
6, 2931, Note_on_c, 4, 71, 59
6, 2932, Note_off_c, 4, 70, 64
6, 2957, Note_on_c, 4, 70, 60
6, 2971, Note_off_c, 4, 71, 64
6, 3001, Note_on_c, 4, 71, 63
6, 3010, Note_off_c, 4, 70, 64
6, 3090, Note_off_c, 4, 71, 64
6, 3115, Note_on_c, 4, 71, 68
6, 3238, Note_on_c, 4, 73, 47
6, 3249, Note_off_c, 4, 71, 64
6, 3437, Note_off_c, 4, 73, 64
6, 3473, Note_on_c, 4, 66, 59
6, 3565, Note_off_c, 4, 66, 64
6, 3603, Note_on_c, 4, 78, 60
6, 3936, Note_off_c, 4, 78, 64
6, 3941, Note_on_c, 4, 79, 68
6, 4053, Note_off_c, 4, 79, 64
6, 4074, Note_on_c, 4, 76, 57
6, 4259, Note_off_c, 4, 76, 64
6, 4309, Note_on_c, 4, 76, 59
6, 4338, Note_on_c, 4, 75, 54
6, 4347, Note_off_c, 4, 76, 64
6, 4367, Note_on_c, 4, 76, 53
6, 4370, Note_off_c, 4, 75, 64
6, 4394, Note_on_c, 4, 75, 64
6, 4409, Note_off_c, 4, 76, 64
6, 4436, Note_on_c, 4, 76, 51
6, 4439, Note_off_c, 4, 75, 64
6, 4515, Note_off_c, 4, 76, 64
6, 4551, Note_on_c, 4, 76, 63
6, 4672, Note_on_c, 4, 78, 47
6, 4687, Note_off_c, 4, 76, 64
6, 4819, Note_off_c, 4, 78, 64
6, 5157, Note_on_c, 4, 83, 66
6, 5233, Note_off_c, 4, 83, 64
6, 5275, Note_on_c, 4, 81, 63
6, 5395, Note_on_c, 4, 79, 52
6, 5399, Note_off_c, 4, 81, 64
6, 5492, Note_off_c, 4, 79, 64
6, 5519, Note_on_c, 4, 81, 66
6, 5634, Note_on_c, 4, 78, 48
6, 5639, Note_off_c, 4, 81, 64
6, 5714, Note_off_c, 4, 78, 64
6, 5760, Note_on_c, 4, 79, 72
6, 5873, Note_off_c, 4, 79, 64
6, 5877, Note_on_c, 4, 76, 56
6, 5982, Note_off_c, 4, 76, 64
6, 6000, Note_on_c, 4, 81, 58
6, 6081, Note_on_c, 4, 80, 48
6, 6089, Note_off_c, 4, 81, 64
6, 6129, Note_on_c, 4, 81, 52
6, 6132, Note_off_c, 4, 80, 64
6, 6172, Note_on_c, 4, 80, 39
6, 6178, Note_off_c, 4, 81, 64
6, 6197, Note_off_c, 4, 80, 64
6, 6198, Note_on_c, 4, 81, 54
6, 6228, Note_on_c, 4, 80, 43
6, 6230, Note_off_c, 4, 81, 64
6, 6249, Note_off_c, 4, 80, 64
6, 6252, Note_on_c, 4, 81, 61
6, 6276, Note_on_c, 4, 80, 47
6, 6277, Note_off_c, 4, 81, 64
6, 6293, Note_off_c, 4, 80, 64
6, 6297, Note_on_c, 4, 81, 58
6, 6330, Note_off_c, 4, 81, 64
6, 6330, Note_on_c, 4, 80, 53
6, 6352, Note_on_c, 4, 78, 57
6, 6356, Note_off_c, 4, 80, 64
6, 6394, Note_on_c, 4, 80, 51
6, 6409, Note_off_c, 4, 78, 64
6, 6444, Note_off_c, 4, 80, 64
6, 6470, Note_on_c, 4, 81, 58
6, 6552, Note_off_c, 4, 81, 64
6, 6591, Note_on_c, 4, 85, 60
6, 6667, Note_off_c, 4, 85, 64
6, 6711, Note_on_c, 4, 83, 68
6, 6835, Note_off_c, 4, 83, 64
6, 6837, Note_on_c, 4, 82, 52
6, 6931, Note_off_c, 4, 82, 64
6, 6952, Note_on_c, 4, 80, 58
6, 7065, Note_off_c, 4, 80, 64
6, 7071, Note_on_c, 4, 82, 51
6, 7154, Note_off_c, 4, 82, 64
6, 7197, Note_on_c, 4, 83, 62
6, 7312, Note_on_c, 4, 81, 51
6, 7322, Note_off_c, 4, 83, 64
6, 7398, Note_off_c, 4, 81, 64
6, 7436, Note_on_c, 4, 79, 66
6, 7544, Note_on_c, 4, 78, 40
6, 7548, Note_off_c, 4, 79, 64
6, 7631, Note_off_c, 4, 78, 64
6, 7671, Note_on_c, 4, 76, 49
6, 7785, Note_on_c, 4, 74, 60
6, 7791, Note_off_c, 4, 76, 64
6, 7878, Note_off_c, 4, 74, 64
6, 7905, Note_on_c, 4, 74, 68
6, 7940, Note_on_c, 4, 73, 52
6, 7948, Note_off_c, 4, 74, 64
6, 7970, Note_off_c, 4, 73, 64
6, 7972, Note_on_c, 4, 74, 59
6, 7994, Note_on_c, 4, 73, 61
6, 8006, Note_off_c, 4, 74, 64
6, 8031, Note_on_c, 4, 74, 60
6, 8034, Note_off_c, 4, 73, 64
6, 8121, Note_off_c, 4, 74, 64
6, 8148, Note_on_c, 4, 74, 60
6, 8278, Note_on_c, 4, 76, 45
6, 8281, Note_off_c, 4, 74, 64
6, 8793, Note_off_c, 4, 76, 64
6, 8872, Note_on_c, 4, 75, 59
6, 8988, Note_on_c, 4, 76, 55
6, 8991, Note_off_c, 4, 75, 64
6, 9094, Note_off_c, 4, 76, 64
6, 9115, Note_on_c, 4, 78, 61
6, 9215, Note_off_c, 4, 78, 64
6, 9226, Note_on_c, 4, 75, 51
6, 9308, Note_off_c, 4, 75, 64
6, 9367, Note_on_c, 4, 83, 60
6, 10136, Note_off_c, 4, 83, 64
6, 10184, Note_on_c, 4, 74, 57
6, 10299, Note_off_c, 4, 74, 64
6, 10311, Note_on_c, 4, 73, 47
6, 10398, Note_off_c, 4, 73, 64
6, 10426, Note_on_c, 4, 83, 68
6, 10502, Note_off_c, 4, 83, 64
6, 10552, Note_on_c, 4, 83, 66
6, 10678, Note_on_c, 4, 81, 53
6, 10689, Note_off_c, 4, 83, 64
6, 10855, Note_off_c, 4, 81, 64
6, 10901, Note_on_c, 4, 80, 59
6, 10989, Note_off_c, 4, 80, 64
6, 11030, Note_on_c, 4, 78, 57
6, 11106, Note_on_c, 4, 77, 59
6, 11110, Note_off_c, 4, 78, 64
6, 11146, Note_off_c, 4, 77, 64
6, 11149, Note_on_c, 4, 78, 53
6, 11174, Note_on_c, 4, 77, 57
6, 11175, Note_off_c, 4, 78, 64
6, 11198, Note_off_c, 4, 77, 64
6, 11198, Note_on_c, 4, 78, 62
6, 11222, Note_off_c, 4, 78, 64
6, 11223, Note_on_c, 4, 77, 60
6, 11242, Note_on_c, 4, 78, 68
6, 11247, Note_off_c, 4, 77, 64
6, 11264, Note_on_c, 4, 77, 63
6, 11268, Note_off_c, 4, 78, 64
6, 11383, Note_on_c, 4, 78, 43
6, 11387, Note_off_c, 4, 77, 64
6, 11476, Note_off_c, 4, 78, 64
6, 11513, Note_on_c, 4, 78, 51
6, 12018, Note_off_c, 4, 78, 64
6, 23987, Note_on_c, 4, 73, 52
6, 24176, Note_off_c, 4, 73, 64
6, 24227, Note_on_c, 4, 71, 66
6, 24355, Note_on_c, 4, 70, 42
6, 24365, Note_off_c, 4, 71, 64
6, 24573, Note_off_c, 4, 70, 64
6, 24580, Note_on_c, 4, 71, 60
6, 24694, Note_off_c, 4, 71, 64
6, 24706, Note_on_c, 4, 73, 55
6, 24916, Note_off_c, 4, 73, 64
6, 24951, Note_on_c, 4, 66, 48
6, 25148, Note_off_c, 4, 66, 64
6, 25199, Note_on_c, 4, 78, 60
6, 25515, Note_off_c, 4, 78, 64
6, 25548, Note_on_c, 4, 76, 60
6, 25632, Note_off_c, 4, 76, 64
6, 25667, Note_on_c, 4, 74, 70
6, 25784, Note_on_c, 4, 73, 43
6, 25794, Note_off_c, 4, 74, 64
6, 25870, Note_off_c, 4, 73, 64
6, 25912, Note_on_c, 4, 76, 66
6, 26029, Note_on_c, 4, 74, 57
6, 26046, Note_off_c, 4, 76, 64
6, 26119, Note_off_c, 4, 74, 64
6, 26148, Note_on_c, 4, 73, 52
6, 26264, Note_on_c, 4, 71, 53
6, 26273, Note_off_c, 4, 73, 64
6, 26360, Note_off_c, 4, 71, 64
6, 26400, Note_on_c, 4, 76, 60
6, 26827, Note_off_c, 4, 76, 64
6, 26870, Note_on_c, 4, 74, 55
6, 27320, Note_off_c, 4, 74, 64
6, 27358, Note_on_c, 4, 73, 57
6, 27474, Note_on_c, 4, 74, 64
6, 27486, Note_off_c, 4, 73, 64
6, 27564, Note_off_c, 4, 74, 64
6, 27597, Note_on_c, 4, 76, 68
6, 27705, Note_off_c, 4, 76, 64
6, 27710, Note_on_c, 4, 73, 51
6, 27805, Note_off_c, 4, 73, 64
6, 27836, Note_on_c, 4, 69, 63
6, 27997, Note_off_c, 4, 69, 64
6, 28077, Note_on_c, 4, 81, 64
6, 28342, Note_off_c, 4, 81, 64
6, 28664, Note_on_c, 4, 79, 63
6, 28731, Note_off_c, 4, 79, 64
6, 28786, Note_on_c, 4, 78, 64
6, 28909, Note_on_c, 4, 79, 68
6, 28920, Note_off_c, 4, 78, 64
6, 28952, Note_on_c, 4, 81, 61
6, 28970, Note_off_c, 4, 79, 64
6, 29004, Note_off_c, 4, 81, 64
6, 29027, Note_on_c, 4, 74, 68
6, 29140, Note_on_c, 4, 72, 63
6, 29144, Note_off_c, 4, 74, 64
6, 29219, Note_off_c, 4, 72, 64
6, 29259, Note_on_c, 4, 72, 58
6, 29285, Note_on_c, 4, 71, 58
6, 29294, Note_off_c, 4, 72, 64
6, 29317, Note_on_c, 4, 72, 66
6, 29321, Note_off_c, 4, 71, 64
6, 29343, Note_on_c, 4, 71, 66
6, 29354, Note_off_c, 4, 72, 64
6, 29391, Note_on_c, 4, 69, 66
6, 29396, Note_off_c, 4, 71, 64
6, 29473, Note_off_c, 4, 69, 64
6, 29506, Note_on_c, 4, 67, 60
6, 29664, Note_off_c, 4, 67, 64
6, 29761, Note_on_c, 4, 83, 63
6, 30175, Note_off_c, 4, 83, 64
6, 30231, Note_on_c, 4, 82, 64
6, 30345, Note_on_c, 4, 83, 55
6, 30353, Note_off_c, 4, 82, 64
6, 30441, Note_off_c, 4, 83, 64
6, 30472, Note_on_c, 4, 85, 68
6, 30585, Note_on_c, 4, 82, 48
6, 30589, Note_off_c, 4, 85, 64
6, 30669, Note_off_c, 4, 82, 64
6, 30713, Note_on_c, 4, 78, 44
6, 30879, Note_off_c, 4, 78, 64
6, 30960, Note_on_c, 4, 83, 63
6, 31119, Note_off_c, 4, 83, 64
6, 31189, Note_on_c, 4, 81, 54
6, 31520, Note_off_c, 4, 81, 64
6, 31552, Note_on_c, 4, 79, 66
6, 31599, Note_on_c, 4, 78, 52
6, 31609, Note_off_c, 4, 79, 64
6, 31640, Note_off_c, 4, 78, 64
6, 31666, Note_on_c, 4, 79, 64
6, 31783, Note_off_c, 4, 79, 64
6, 31787, Note_on_c, 4, 83, 59
6, 31854, Note_off_c, 4, 83, 64
6, 31908, Note_on_c, 4, 78, 57
6, 32022, Note_off_c, 4, 78, 64
6, 32031, Note_on_c, 4, 83, 57
6, 32086, Note_off_c, 4, 83, 64
6, 32170, Note_on_c, 4, 76, 56
6, 32746, Note_off_c, 4, 76, 64
6, 32748, Note_on_c, 4, 67, 46
6, 32828, Note_off_c, 4, 67, 64
6, 32867, Note_on_c, 4, 66, 53
6, 32953, Note_off_c, 4, 66, 64
6, 32996, Note_on_c, 4, 76, 63
6, 33072, Note_off_c, 4, 76, 64
6, 33115, Note_on_c, 4, 74, 72
6, 33231, Note_on_c, 4, 73, 54
6, 33232, Note_off_c, 4, 74, 64
6, 33313, Note_off_c, 4, 73, 64
6, 33354, Note_on_c, 4, 78, 61
6, 33468, Note_on_c, 4, 76, 48
6, 33469, Note_off_c, 4, 78, 64
6, 33541, Note_off_c, 4, 76, 64
6, 33591, Note_on_c, 4, 74, 60
6, 33705, Note_off_c, 4, 74, 64
6, 33706, Note_on_c, 4, 73, 45
6, 33795, Note_off_c, 4, 73, 64
6, 33829, Note_on_c, 4, 71, 60
6, 33947, Note_on_c, 4, 70, 44
6, 33948, Note_off_c, 4, 71, 64
6, 34023, Note_off_c, 4, 70, 64
6, 34083, Note_on_c, 4, 71, 58
6, 34384, Note_off_c, 4, 71, 64
6, 34416, Note_on_c, 4, 73, 49
6, 34509, Note_off_c, 4, 73, 64
6, 34546, Note_on_c, 4, 74, 62
6, 34618, Note_on_c, 4, 73, 35
6, 34627, Note_off_c, 4, 74, 64
6, 34651, Note_on_c, 4, 74, 58
6, 34655, Note_off_c, 4, 73, 64
6, 34685, Note_on_c, 4, 73, 49
6, 34689, Note_off_c, 4, 74, 64
6, 34708, Note_on_c, 4, 74, 62
6, 34711, Note_off_c, 4, 73, 64
6, 34732, Note_on_c, 4, 73, 57
6, 34737, Note_off_c, 4, 74, 64
6, 34750, Note_off_c, 4, 73, 64
6, 34750, Note_on_c, 4, 74, 78
6, 34775, Note_on_c, 4, 73, 57
6, 34786, Note_off_c, 4, 74, 64
6, 34900, Note_off_c, 4, 73, 64
6, 34902, Note_on_c, 4, 71, 58
6, 34983, Note_off_c, 4, 71, 64
6, 35034, Note_on_c, 4, 71, 57
6, 35523, Note_off_c, 4, 71, 64
6, 35523, End_track
7, 0, Start_track
7, 0, Title_t, "Violin2"
7, 0, Program_c, 1, 40
7, 0, Control_c, 1, 7, 100
7, 12954, Note_on_c, 1, 71, 57
7, 13293, Note_off_c, 1, 71, 64
7, 13306, Note_on_c, 1, 69, 52
7, 13384, Note_off_c, 1, 69, 64
7, 13433, Note_on_c, 1, 69, 66
7, 13536, Note_on_c, 1, 67, 43
7, 13552, Note_off_c, 1, 69, 64
7, 13653, Note_off_c, 1, 67, 64
7, 13676, Note_on_c, 1, 66, 63
7, 13795, Note_on_c, 1, 67, 70
7, 13805, Note_off_c, 1, 66, 64
7, 13846, Note_on_c, 1, 69, 60
7, 13849, Note_off_c, 1, 67, 64
7, 13898, Note_off_c, 1, 69, 64
7, 13915, Note_on_c, 1, 67, 57
7, 14027, Note_on_c, 1, 66, 58
7, 14037, Note_off_c, 1, 67, 64
7, 14129, Note_off_c, 1, 66, 64
7, 14153, Note_on_c, 1, 66, 70
7, 14282, Note_on_c, 1, 64, 53
7, 14290, Note_off_c, 1, 66, 64
7, 14495, Note_off_c, 1, 64, 64
7, 14511, Note_on_c, 1, 62, 53
7, 14610, Note_off_c, 1, 62, 64
7, 14637, Note_on_c, 1, 61, 57
7, 14819, Note_off_c, 1, 61, 64
7, 14878, Note_on_c, 1, 66, 59
7, 15053, Note_off_c, 1, 66, 64
7, 15111, Note_on_c, 1, 70, 58
7, 15275, Note_off_c, 1, 70, 64
7, 15345, Note_on_c, 1, 71, 82
7, 15468, Note_on_c, 1, 73, 49
7, 15475, Note_off_c, 1, 71, 64
7, 15574, Note_off_c, 1, 73, 64
7, 15596, Note_on_c, 1, 74, 68
7, 15764, Note_off_c, 1, 74, 64
7, 15828, Note_on_c, 1, 70, 42
7, 16001, Note_off_c, 1, 70, 64
7, 16063, Note_on_c, 1, 71, 60
7, 16186, Note_on_c, 1, 73, 52
7, 16190, Note_off_c, 1, 71, 64
7, 16288, Note_off_c, 1, 73, 64
7, 16302, Note_on_c, 1, 75, 64
7, 16419, Note_on_c, 1, 76, 66
7, 16431, Note_off_c, 1, 75, 64
7, 16527, Note_off_c, 1, 76, 64
7, 16542, Note_on_c, 1, 78, 64
7, 16654, Note_off_c, 1, 78, 64
7, 16656, Note_on_c, 1, 71, 46
7, 16748, Note_off_c, 1, 71, 64
7, 16787, Note_on_c, 1, 76, 63
7, 17211, Note_off_c, 1, 76, 64
7, 17270, Note_on_c, 1, 76, 63
7, 17328, Note_on_c, 1, 75, 55
7, 17339, Note_off_c, 1, 76, 64
7, 17357, Note_on_c, 1, 76, 66
7, 17359, Note_off_c, 1, 75, 64
7, 17383, Note_on_c, 1, 75, 64
7, 17390, Note_off_c, 1, 76, 64
7, 17404, Note_on_c, 1, 76, 66
7, 17410, Note_off_c, 1, 75, 64
7, 17428, Note_on_c, 1, 75, 64
7, 17439, Note_off_c, 1, 76, 64
7, 17456, Note_on_c, 1, 73, 57
7, 17459, Note_off_c, 1, 75, 64
7, 17481, Note_on_c, 1, 75, 62
7, 17492, Note_off_c, 1, 73, 64
7, 17525, Note_on_c, 1, 76, 63
7, 17526, Note_off_c, 1, 75, 64
7, 17708, Note_off_c, 1, 76, 64
7, 17754, Note_on_c, 1, 71, 52
7, 18128, Note_off_c, 1, 71, 64
7, 18230, Note_on_c, 1, 76, 59
7, 18406, Note_off_c, 1, 76, 64
7, 18471, Note_on_c, 1, 73, 46
7, 18884, Note_off_c, 1, 73, 64
7, 18951, Note_on_c, 1, 71, 56
7, 19871, Note_off_c, 1, 71, 64
7, 19917, Note_on_c, 1, 70, 63
7, 20033, Note_on_c, 1, 71, 55
7, 20037, Note_off_c, 1, 70, 64
7, 20124, Note_off_c, 1, 71, 64
7, 20153, Note_on_c, 1, 71, 60
7, 20269, Note_on_c, 1, 73, 52
7, 20280, Note_off_c, 1, 71, 64
7, 20607, Note_off_c, 1, 73, 64
7, 20639, Note_on_c, 1, 71, 58
7, 21215, Note_off_c, 1, 71, 64
7, 21229, Note_on_c, 1, 73, 51
7, 21323, Note_off_c, 1, 73, 64
7, 21349, Note_on_c, 1, 71, 68
7, 21469, Note_on_c, 1, 69, 60
7, 21477, Note_off_c, 1, 71, 64
7, 21569, Note_off_c, 1, 69, 64
7, 21587, Note_on_c, 1, 68, 66
7, 21702, Note_off_c, 1, 68, 64
7, 21706, Note_on_c, 1, 66, 60
7, 21797, Note_off_c, 1, 66, 64
7, 21838, Note_on_c, 1, 68, 64
7, 22126, Note_off_c, 1, 68, 64
7, 22184, Note_on_c, 1, 77, 61
7, 22262, Note_off_c, 1, 77, 64
7, 22317, Note_on_c, 1, 78, 52
7, 22645, Note_off_c, 1, 78, 64
7, 22664, Note_on_c, 1, 74, 63
7, 22747, Note_off_c, 1, 74, 64
7, 22793, Note_on_c, 1, 73, 46
7, 22983, Note_off_c, 1, 73, 64
7, 23029, Note_on_c, 1, 73, 55
7, 23204, Note_off_c, 1, 73, 64
7, 23267, Note_on_c, 1, 73, 51
7, 23761, Note_off_c, 1, 73, 64
7, 36480, Note_on_c, 1, 70, 55
7, 36803, Note_off_c, 1, 70, 64
7, 36816, Note_on_c, 1, 76, 61
7, 36905, Note_off_c, 1, 76, 64
7, 36944, Note_on_c, 1, 74, 80
7, 37063, Note_off_c, 1, 74, 64
7, 37064, Note_on_c, 1, 73, 52
7, 37157, Note_off_c, 1, 73, 64
7, 37185, Note_on_c, 1, 71, 64
7, 37300, Note_on_c, 1, 70, 58
7, 37308, Note_off_c, 1, 71, 64
7, 37394, Note_off_c, 1, 70, 64
7, 37432, Note_on_c, 1, 71, 55
7, 37460, Note_on_c, 1, 70, 57
7, 37468, Note_off_c, 1, 71, 64
7, 37500, Note_on_c, 1, 71, 68
7, 37511, Note_off_c, 1, 70, 64
7, 38251, Note_off_c, 1, 71, 64
7, 38268, Note_on_c, 1, 69, 58
7, 38358, Note_off_c, 1, 69, 64
7, 38399, Note_on_c, 1, 71, 68
7, 38573, Note_off_c, 1, 71, 64
7, 38634, Note_on_c, 1, 69, 78
7, 38699, Note_on_c, 1, 68, 63
7, 38709, Note_off_c, 1, 69, 64
7, 38821, Note_off_c, 1, 68, 64
7, 38873, Note_on_c, 1, 69, 62
7, 39694, Note_off_c, 1, 69, 64
7, 39704, Note_on_c, 1, 67, 57
7, 39810, Note_off_c, 1, 67, 64
7, 39831, Note_on_c, 1, 69, 78
7, 39946, Note_off_c, 1, 69, 64
7, 39948, Note_on_c, 1, 71, 53
7, 40047, Note_off_c, 1, 71, 64
7, 40078, Note_on_c, 1, 72, 63
7, 40402, Note_off_c, 1, 72, 64
7, 40429, Note_on_c, 1, 69, 52
7, 40521, Note_off_c, 1, 69, 64
7, 40555, Note_on_c, 1, 74, 68
7, 40670, Note_on_c, 1, 72, 57
7, 40682, Note_off_c, 1, 74, 64
7, 40761, Note_off_c, 1, 72, 64
7, 40797, Note_on_c, 1, 71, 66
7, 40906, Note_on_c, 1, 69, 57
7, 40910, Note_off_c, 1, 71, 64
7, 40993, Note_off_c, 1, 69, 64
7, 41036, Note_on_c, 1, 67, 53
7, 41183, Note_off_c, 1, 67, 64
7, 41278, Note_on_c, 1, 62, 56
7, 41410, Note_off_c, 1, 62, 64
7, 41518, Note_on_c, 1, 67, 49
7, 41692, Note_off_c, 1, 67, 64
7, 41750, Note_on_c, 1, 79, 60
7, 41868, Note_on_c, 1, 78, 54
7, 41879, Note_off_c, 1, 79, 64
7, 41964, Note_off_c, 1, 78, 64
7, 41993, Note_on_c, 1, 76, 63
7, 42116, Note_on_c, 1, 74, 60
7, 42117, Note_off_c, 1, 76, 64
7, 42200, Note_off_c, 1, 74, 64
7, 42238, Note_on_c, 1, 76, 63
7, 42351, Note_off_c, 1, 76, 64
7, 42353, Note_on_c, 1, 73, 43
7, 42437, Note_off_c, 1, 73, 64
7, 42484, Note_on_c, 1, 70, 66
7, 42594, Note_on_c, 1, 73, 45
7, 42600, Note_off_c, 1, 70, 64
7, 42700, Note_off_c, 1, 73, 64
7, 42716, Note_on_c, 1, 71, 58
7, 42836, Note_off_c, 1, 71, 64
7, 42837, Note_on_c, 1, 73, 51
7, 42929, Note_off_c, 1, 73, 64
7, 42956, Note_on_c, 1, 75, 59
7, 43281, Note_off_c, 1, 75, 64
7, 43301, Note_on_c, 1, 76, 64
7, 43350, Note_on_c, 1, 78, 61
7, 43368, Note_off_c, 1, 76, 64
7, 43406, Note_off_c, 1, 78, 64
7, 43433, Note_on_c, 1, 71, 46
7, 43999, Note_off_c, 1, 71, 64
7, 44021, Note_on_c, 1, 76, 63
7, 44110, Note_off_c, 1, 76, 64
7, 44144, Note_on_c, 1, 70, 58
7, 44265, Note_on_c, 1, 71, 60
7, 44278, Note_off_c, 1, 70, 64
7, 44342, Note_off_c, 1, 71, 64
7, 44391, Note_on_c, 1, 71, 76
7, 44505, Note_on_c, 1, 73, 43
7, 44506, Note_off_c, 1, 71, 64
7, 44720, Note_off_c, 1, 73, 64
7, 44749, Note_on_c, 1, 67, 59
7, 44867, Note_on_c, 1, 66, 48
7, 44870, Note_off_c, 1, 67, 64
7, 44981, Note_off_c, 1, 66, 64
7, 44985, Note_on_c, 1, 64, 55
7, 45070, Note_off_c, 1, 64, 64
7, 45119, Note_on_c, 1, 73, 53
7, 45260, Note_off_c, 1, 73, 64
7, 45342, Note_on_c, 1, 66, 49
7, 45497, Note_off_c, 1, 66, 64
7, 45580, Note_on_c, 1, 59, 58
7, 45703, Note_on_c, 1, 61, 55
7, 45711, Note_off_c, 1, 59, 64
7, 45801, Note_off_c, 1, 61, 64
7, 45825, Note_on_c, 1, 62, 63
7, 45936, Note_on_c, 1, 66, 54
7, 45945, Note_off_c, 1, 62, 64
7, 46027, Note_off_c, 1, 66, 64
7, 46070, Note_on_c, 1, 64, 66
7, 46190, Note_off_c, 1, 64, 64
7, 46190, Note_on_c, 1, 67, 60
7, 46311, Note_off_c, 1, 67, 64
7, 46323, Note_on_c, 1, 66, 48
7, 46459, Note_off_c, 1, 66, 64
7, 46546, Note_on_c, 1, 66, 51
7, 46691, Note_off_c, 1, 66, 64
7, 46787, Note_on_c, 1, 66, 52
7, 47545, Note_off_c, 1, 66, 64
7, 47545, End_track
8, 0, Start_track
8, 0, Title_t, "Viola"
8, 0, Program_c, 2, 41
8, 0, Control_c, 2, 7, 100
8, 12958, Note_on_c, 2, 62, 53
8, 13301, Note_off_c, 2, 62, 64
8, 13303, Note_on_c, 2, 61, 52
8, 13400, Note_off_c, 2, 61, 64
8, 13441, Note_on_c, 2, 59, 52
8, 14121, Note_off_c, 2, 59, 64
8, 14153, Note_on_c, 2, 61, 58
8, 14263, Note_on_c, 2, 62, 59
8, 14275, Note_off_c, 2, 61, 64
8, 14371, Note_off_c, 2, 62, 64
8, 14400, Note_on_c, 2, 64, 68
8, 14833, Note_off_c, 2, 64, 64
8, 14886, Note_on_c, 2, 58, 57
8, 15037, Note_off_c, 2, 58, 64
8, 15116, Note_on_c, 2, 66, 60
8, 15307, Note_off_c, 2, 66, 64
8, 15351, Note_on_c, 2, 59, 59
8, 15570, Note_off_c, 2, 59, 64
8, 15591, Note_on_c, 2, 58, 49
8, 15742, Note_off_c, 2, 58, 64
8, 15834, Note_on_c, 2, 66, 60
8, 16190, Note_off_c, 2, 66, 64
8, 16193, Note_on_c, 2, 67, 60
8, 16289, Note_off_c, 2, 67, 64
8, 16317, Note_on_c, 2, 69, 72
8, 16495, Note_off_c, 2, 69, 64
8, 16558, Note_on_c, 2, 63, 47
8, 16717, Note_off_c, 2, 63, 64
8, 16785, Note_on_c, 2, 67, 62
8, 16965, Note_off_c, 2, 67, 64
8, 17025, Note_on_c, 2, 66, 36
8, 17188, Note_off_c, 2, 66, 64
8, 17267, Note_on_c, 2, 71, 58
8, 17439, Note_off_c, 2, 71, 64
8, 17505, Note_on_c, 2, 64, 58
8, 17661, Note_off_c, 2, 64, 64
8, 17753, Note_on_c, 2, 64, 62
8, 18140, Note_off_c, 2, 64, 64
8, 18226, Note_on_c, 2, 64, 48
8, 18409, Note_off_c, 2, 64, 64
8, 18453, Note_on_c, 2, 66, 63
8, 18538, Note_on_c, 2, 64, 53
8, 18550, Note_off_c, 2, 66, 64
8, 18583, Note_off_c, 2, 64, 64
8, 18583, Note_on_c, 2, 66, 58
8, 18615, Note_on_c, 2, 64, 56
8, 18621, Note_off_c, 2, 66, 64
8, 18642, Note_off_c, 2, 64, 64
8, 18642, Note_on_c, 2, 66, 58
8, 18668, Note_on_c, 2, 64, 59
8, 18671, Note_off_c, 2, 66, 64
8, 18692, Note_on_c, 2, 66, 58
8, 18693, Note_off_c, 2, 64, 64
8, 18711, Note_off_c, 2, 66, 64
8, 18714, Note_on_c, 2, 64, 60
8, 18730, Note_off_c, 2, 64, 64
8, 18732, Note_on_c, 2, 66, 63
8, 18755, Note_on_c, 2, 64, 60
8, 18766, Note_off_c, 2, 66, 64
8, 18799, Note_off_c, 2, 64, 64
8, 18801, Note_on_c, 2, 62, 59
8, 18842, Note_on_c, 2, 64, 68
8, 18858, Note_off_c, 2, 62, 64
8, 18913, Note_off_c, 2, 64, 64
8, 18925, Note_on_c, 2, 66, 59
8, 19129, Note_off_c, 2, 66, 64
8, 19190, Note_on_c, 2, 59, 53
8, 19377, Note_off_c, 2, 59, 64
8, 19420, Note_on_c, 2, 64, 74
8, 19537, Note_on_c, 2, 66, 57
8, 19544, Note_off_c, 2, 64, 64
8, 19627, Note_off_c, 2, 66, 64
8, 19672, Note_on_c, 2, 66, 80
8, 19781, Note_on_c, 2, 67, 57
8, 19793, Note_off_c, 2, 66, 64
8, 20116, Note_off_c, 2, 67, 64
8, 20149, Note_on_c, 2, 66, 64
8, 20271, Note_on_c, 2, 68, 52
8, 20285, Note_off_c, 2, 66, 64
8, 20364, Note_off_c, 2, 68, 64
8, 20396, Note_on_c, 2, 68, 68
8, 20510, Note_on_c, 2, 70, 64
8, 20518, Note_off_c, 2, 68, 64
8, 20623, Note_off_c, 2, 70, 64
8, 20637, Note_on_c, 2, 66, 80
8, 20750, Note_on_c, 2, 64, 57
8, 20761, Note_off_c, 2, 66, 64
8, 20848, Note_off_c, 2, 64, 64
8, 20875, Note_on_c, 2, 63, 62
8, 20986, Note_off_c, 2, 63, 64
8, 20988, Note_on_c, 2, 61, 48
8, 21081, Note_off_c, 2, 61, 64
8, 21115, Note_on_c, 2, 63, 56
8, 21275, Note_off_c, 2, 63, 64
8, 21353, Note_on_c, 2, 65, 64
8, 21493, Note_off_c, 2, 65, 64
8, 21590, Note_on_c, 2, 74, 63
8, 21740, Note_off_c, 2, 74, 64
8, 21835, Note_on_c, 2, 73, 64
8, 21973, Note_off_c, 2, 73, 64
8, 22079, Note_on_c, 2, 61, 58
8, 22378, Note_off_c, 2, 61, 64
8, 22432, Note_on_c, 2, 73, 68
8, 22510, Note_off_c, 2, 73, 64
8, 22550, Note_on_c, 2, 66, 68
8, 22654, Note_off_c, 2, 66, 64
8, 22664, Note_on_c, 2, 71, 57
8, 22760, Note_off_c, 2, 71, 64
8, 22784, Note_on_c, 2, 69, 66
8, 22866, Note_on_c, 2, 68, 44
8, 22875, Note_off_c, 2, 69, 64
8, 22905, Note_off_c, 2, 68, 64
8, 22905, Note_on_c, 2, 69, 61
8, 22934, Note_on_c, 2, 68, 63
8, 22942, Note_off_c, 2, 69, 64
8, 22962, Note_on_c, 2, 69, 62
8, 22963, Note_off_c, 2, 68, 64
8, 22982, Note_on_c, 2, 68, 59
8, 22988, Note_off_c, 2, 69, 64
8, 23004, Note_on_c, 2, 69, 60
8, 23007, Note_off_c, 2, 68, 64
8, 23030, Note_on_c, 2, 68, 57
8, 23043, Note_off_c, 2, 69, 64
8, 23141, Note_off_c, 2, 68, 64
8, 23144, Note_on_c, 2, 70, 59
8, 23221, Note_off_c, 2, 70, 64
8, 23278, Note_on_c, 2, 70, 52
8, 23775, Note_off_c, 2, 70, 64
8, 36479, Note_on_c, 2, 66, 53
8, 36815, Note_on_c, 2, 67, 53
8, 36819, Note_off_c, 2, 66, 64
8, 36924, Note_off_c, 2, 67, 64
8, 36944, Note_on_c, 2, 66, 60
8, 37066, Note_on_c, 2, 64, 53
8, 37073, Note_off_c, 2, 66, 64
8, 37162, Note_off_c, 2, 64, 64
8, 37176, Note_on_c, 2, 62, 64
8, 37302, Note_on_c, 2, 61, 60
8, 37315, Note_off_c, 2, 62, 64
8, 37387, Note_off_c, 2, 61, 64
8, 37433, Note_on_c, 2, 59, 53
8, 37594, Note_off_c, 2, 59, 64
8, 37672, Note_on_c, 2, 54, 54
8, 37830, Note_off_c, 2, 54, 64
8, 37914, Note_on_c, 2, 66, 59
8, 38079, Note_off_c, 2, 66, 64
8, 38160, Note_on_c, 2, 64, 48
8, 38968, Note_off_c, 2, 64, 64
8, 38989, Note_on_c, 2, 66, 66
8, 39075, Note_off_c, 2, 66, 64
8, 39112, Note_on_c, 2, 64, 66
8, 39230, Note_off_c, 2, 64, 64
8, 39230, Note_on_c, 2, 62, 60
8, 39315, Note_off_c, 2, 62, 64
8, 39348, Note_on_c, 2, 61, 55
8, 39456, Note_off_c, 2, 61, 64
8, 39464, Note_on_c, 2, 59, 57
8, 39549, Note_off_c, 2, 59, 64
8, 39591, Note_on_c, 2, 61, 55
8, 39744, Note_off_c, 2, 61, 64
8, 39830, Note_on_c, 2, 62, 58
8, 40135, Note_off_c, 2, 62, 64
8, 40189, Note_on_c, 2, 57, 55
8, 40265, Note_off_c, 2, 57, 64
8, 40323, Note_on_c, 2, 69, 52
8, 40716, Note_off_c, 2, 69, 64
8, 40788, Note_on_c, 2, 66, 60
8, 40955, Note_off_c, 2, 66, 64
8, 41031, Note_on_c, 2, 62, 52
8, 41608, Note_off_c, 2, 62, 64
8, 41623, Note_on_c, 2, 61, 53
8, 41672, Note_on_c, 2, 59, 56
8, 41683, Note_off_c, 2, 61, 64
8, 41711, Note_off_c, 2, 59, 64
8, 41740, Note_on_c, 2, 61, 66
8, 41861, Note_on_c, 2, 62, 64
8, 41873, Note_off_c, 2, 61, 64
8, 41964, Note_off_c, 2, 62, 64
8, 41992, Note_on_c, 2, 64, 70
8, 42107, Note_on_c, 2, 66, 60
8, 42114, Note_off_c, 2, 64, 64
8, 42206, Note_off_c, 2, 66, 64
8, 42230, Note_on_c, 2, 67, 59
8, 42417, Note_off_c, 2, 67, 64
8, 42470, Note_on_c, 2, 61, 57
8, 42629, Note_off_c, 2, 61, 64
8, 42718, Note_on_c, 2, 66, 60
8, 42757, Note_on_c, 2, 64, 66
8, 42772, Note_off_c, 2, 66, 64
8, 42810, Note_on_c, 2, 66, 50
8, 42815, Note_off_c, 2, 64, 64
8, 43281, Note_off_c, 2, 66, 64
8, 43312, Note_on_c, 2, 64, 66
8, 43358, Note_on_c, 2, 63, 47
8, 43369, Note_off_c, 2, 64, 64
8, 43422, Note_off_c, 2, 63, 64
8, 43432, Note_on_c, 2, 64, 64
8, 43583, Note_off_c, 2, 64, 64
8, 43672, Note_on_c, 2, 66, 60
8, 43814, Note_off_c, 2, 66, 64
8, 43910, Note_on_c, 2, 67, 57
8, 44532, Note_on_c, 2, 64, 58
8, 44557, Note_off_c, 2, 67, 64
8, 44597, Note_off_c, 2, 64, 64
8, 44633, Note_on_c, 2, 61, 50
8, 44851, Note_off_c, 2, 61, 64
8, 44879, Note_on_c, 2, 62, 64
8, 44980, Note_off_c, 2, 62, 64
8, 44989, Note_on_c, 2, 64, 64
8, 45082, Note_off_c, 2, 64, 64
8, 45119, Note_on_c, 2, 58, 39
8, 45300, Note_off_c, 2, 58, 64
8, 45350, Note_on_c, 2, 59, 66
8, 45464, Note_on_c, 2, 61, 66
8, 45471, Note_off_c, 2, 59, 64
8, 45569, Note_off_c, 2, 61, 64
8, 45584, Note_on_c, 2, 62, 82
8, 45705, Note_on_c, 2, 64, 68
8, 45706, Note_off_c, 2, 62, 64
8, 45804, Note_off_c, 2, 64, 64
8, 45834, Note_on_c, 2, 62, 57
8, 46152, Note_off_c, 2, 62, 64
8, 46180, Note_on_c, 2, 64, 70
8, 46272, Note_off_c, 2, 64, 64
8, 46321, Note_on_c, 2, 59, 53
8, 46404, Note_on_c, 2, 58, 47
8, 46409, Note_off_c, 2, 59, 64
8, 46434, Note_on_c, 2, 59, 68
8, 46435, Note_off_c, 2, 58, 64
8, 46463, Note_on_c, 2, 58, 64
8, 46470, Note_off_c, 2, 59, 64
8, 46487, Note_on_c, 2, 59, 64
8, 46489, Note_off_c, 2, 58, 64
8, 46509, Note_on_c, 2, 58, 64
8, 46519, Note_off_c, 2, 59, 64
8, 46715, Note_off_c, 2, 58, 64
8, 46792, Note_on_c, 2, 62, 53
8, 47531, Note_off_c, 2, 62, 64
8, 47531, End_track
9, 0, Start_track
9, 0, Title_t, "Cello"
9, 0, Program_c, 3, 42
9, 0, Control_c, 3, 7, 100
9, 12962, Note_on_c, 3, 59, 55
9, 13141, Note_off_c, 3, 59, 64
9, 13210, Note_on_c, 3, 57, 66
9, 13326, Note_on_c, 3, 55, 50
9, 13334, Note_off_c, 3, 57, 64
9, 13555, Note_off_c, 3, 55, 64
9, 13558, Note_on_c, 3, 57, 63
9, 13669, Note_off_c, 3, 57, 64
9, 13680, Note_on_c, 3, 59, 60
9, 13869, Note_off_c, 3, 59, 64
9, 13916, Note_on_c, 3, 52, 52
9, 14112, Note_off_c, 3, 52, 64
9, 14149, Note_on_c, 3, 57, 60
9, 14323, Note_off_c, 3, 57, 64
9, 14400, Note_on_c, 3, 55, 60
9, 14828, Note_off_c, 3, 55, 64
9, 14875, Note_on_c, 3, 54, 59
9, 14997, Note_on_c, 3, 52, 52
9, 15002, Note_off_c, 3, 54, 64
9, 15106, Note_off_c, 3, 52, 64
9, 15121, Note_on_c, 3, 50, 60
9, 15233, Note_on_c, 3, 52, 57
9, 15240, Note_off_c, 3, 50, 64
9, 15328, Note_off_c, 3, 52, 64
9, 15356, Note_on_c, 3, 50, 68
9, 15470, Note_on_c, 3, 52, 57
9, 15479, Note_off_c, 3, 50, 64
9, 15568, Note_off_c, 3, 52, 64
9, 15601, Note_on_c, 3, 52, 76
9, 15721, Note_on_c, 3, 54, 48
9, 15726, Note_off_c, 3, 52, 64
9, 15914, Note_off_c, 3, 54, 64
9, 15945, Note_on_c, 3, 47, 64
9, 16036, Note_off_c, 3, 47, 64
9, 16074, Note_on_c, 3, 59, 58
9, 16406, Note_off_c, 3, 59, 64
9, 16425, Note_on_c, 3, 60, 66
9, 16520, Note_off_c, 3, 60, 64
9, 16560, Note_on_c, 3, 57, 63
9, 16764, Note_off_c, 3, 57, 64
9, 16790, Note_on_c, 3, 55, 74
9, 16907, Note_off_c, 3, 55, 64
9, 16918, Note_on_c, 3, 57, 57
9, 16997, Note_off_c, 3, 57, 64
9, 17044, Note_on_c, 3, 57, 74
9, 17163, Note_on_c, 3, 59, 52
9, 17173, Note_off_c, 3, 57, 64
9, 17292, Note_off_c, 3, 59, 64
9, 17627, Note_on_c, 3, 64, 66
9, 17699, Note_off_c, 3, 64, 64
9, 17746, Note_on_c, 3, 62, 74
9, 17867, Note_on_c, 3, 61, 52
9, 17868, Note_off_c, 3, 62, 64
9, 17965, Note_off_c, 3, 61, 64
9, 17988, Note_on_c, 3, 62, 70
9, 18105, Note_on_c, 3, 61, 52
9, 18109, Note_off_c, 3, 62, 64
9, 18161, Note_on_c, 3, 59, 64
9, 18178, Note_off_c, 3, 61, 64
9, 18214, Note_off_c, 3, 59, 64
9, 18233, Note_on_c, 3, 61, 68
9, 18288, Note_on_c, 3, 59, 63
9, 18304, Note_off_c, 3, 61, 64
9, 18355, Note_on_c, 3, 57, 68
9, 18366, Note_off_c, 3, 59, 64
9, 18452, Note_off_c, 3, 57, 64
9, 18474, Note_on_c, 3, 62, 70
9, 18553, Note_on_c, 3, 61, 47
9, 18563, Note_off_c, 3, 62, 64
9, 18598, Note_on_c, 3, 62, 57
9, 18605, Note_off_c, 3, 61, 64
9, 18641, Note_on_c, 3, 61, 47
9, 18646, Note_off_c, 3, 62, 64
9, 18666, Note_on_c, 3, 62, 63
9, 18668, Note_off_c, 3, 61, 64
9, 18696, Note_on_c, 3, 61, 56
9, 18704, Note_off_c, 3, 62, 64
9, 18722, Note_on_c, 3, 62, 61
9, 18752, Note_off_c, 3, 61, 64
9, 18780, Note_on_c, 3, 61, 53
9, 18788, Note_off_c, 3, 62, 64
9, 18820, Note_on_c, 3, 59, 60
9, 18826, Note_off_c, 3, 61, 64
9, 18873, Note_on_c, 3, 61, 53
9, 18884, Note_off_c, 3, 59, 64
9, 18924, Note_off_c, 3, 61, 64
9, 18942, Note_on_c, 3, 62, 78
9, 19067, Note_on_c, 3, 64, 74
9, 19075, Note_off_c, 3, 62, 64
9, 19121, Note_on_c, 3, 66, 64
9, 19144, Note_off_c, 3, 64, 64
9, 19176, Note_off_c, 3, 66, 64
9, 19189, Note_on_c, 3, 64, 72
9, 19309, Note_on_c, 3, 62, 60
9, 19315, Note_off_c, 3, 64, 64
9, 19410, Note_off_c, 3, 62, 64
9, 19433, Note_on_c, 3, 61, 58
9, 19548, Note_on_c, 3, 62, 68
9, 19552, Note_off_c, 3, 61, 64
9, 19642, Note_off_c, 3, 62, 64
9, 19673, Note_on_c, 3, 64, 66
9, 19789, Note_on_c, 3, 62, 66
9, 19805, Note_off_c, 3, 64, 64
9, 19888, Note_off_c, 3, 62, 64
9, 19912, Note_on_c, 3, 61, 60
9, 20029, Note_on_c, 3, 59, 57
9, 20036, Note_off_c, 3, 61, 64
9, 20128, Note_off_c, 3, 59, 64
9, 20143, Note_on_c, 3, 58, 61
9, 20260, Note_on_c, 3, 56, 52
9, 20275, Note_off_c, 3, 58, 64
9, 20344, Note_off_c, 3, 56, 64
9, 20396, Note_on_c, 3, 54, 60
9, 20507, Note_on_c, 3, 56, 64
9, 20520, Note_off_c, 3, 54, 64
9, 20596, Note_off_c, 3, 56, 64
9, 20641, Note_on_c, 3, 56, 66
9, 20767, Note_on_c, 3, 57, 57
9, 20779, Note_off_c, 3, 56, 64
9, 21301, Note_off_c, 3, 57, 64
9, 21353, Note_on_c, 3, 56, 64
9, 21477, Note_on_c, 3, 57, 64
9, 21489, Note_off_c, 3, 56, 64
9, 21564, Note_off_c, 3, 57, 64
9, 21594, Note_on_c, 3, 59, 70
9, 21715, Note_on_c, 3, 56, 62
9, 21717, Note_off_c, 3, 59, 64
9, 21787, Note_off_c, 3, 56, 64
9, 21849, Note_on_c, 3, 65, 55
9, 22144, Note_off_c, 3, 65, 64
9, 22188, Note_on_c, 3, 56, 61
9, 22287, Note_off_c, 3, 56, 64
9, 22303, Note_on_c, 3, 54, 53
9, 22409, Note_off_c, 3, 54, 64
9, 22435, Note_on_c, 3, 64, 63
9, 22521, Note_off_c, 3, 64, 64
9, 22560, Note_on_c, 3, 62, 78
9, 22677, Note_on_c, 3, 61, 59
9, 22690, Note_off_c, 3, 62, 64
9, 22727, Note_on_c, 3, 59, 54
9, 22742, Note_off_c, 3, 61, 64
9, 22790, Note_off_c, 3, 59, 64
9, 22803, Note_on_c, 3, 61, 54
9, 22956, Note_off_c, 3, 61, 64
9, 23041, Note_on_c, 3, 49, 51
9, 23198, Note_off_c, 3, 49, 64
9, 23277, Note_on_c, 3, 42, 57
9, 23793, Note_off_c, 3, 42, 64
9, 36478, Note_on_c, 3, 54, 52
9, 36660, Note_off_c, 3, 54, 64
9, 36705, Note_on_c, 3, 52, 58
9, 36785, Note_on_c, 3, 50, 49
9, 36787, Note_off_c, 3, 52, 64
9, 36823, Note_off_c, 3, 50, 64
9, 36823, Note_on_c, 3, 52, 57
9, 36851, Note_on_c, 3, 50, 58
9, 36854, Note_off_c, 3, 52, 64
9, 36876, Note_on_c, 3, 52, 66
9, 36877, Note_off_c, 3, 50, 64
9, 36900, Note_off_c, 3, 52, 64
9, 36900, Note_on_c, 3, 50, 66
9, 36921, Note_on_c, 3, 52, 76
9, 36924, Note_off_c, 3, 50, 64
9, 36945, Note_on_c, 3, 50, 80
9, 36954, Note_off_c, 3, 52, 64
9, 37069, Note_on_c, 3, 52, 72
9, 37071, Note_off_c, 3, 50, 64
9, 37187, Note_off_c, 3, 52, 64
9, 37198, Note_on_c, 3, 54, 57
9, 37376, Note_off_c, 3, 54, 64
9, 37430, Note_on_c, 3, 47, 60
9, 37588, Note_off_c, 3, 47, 64
9, 37674, Note_on_c, 3, 59, 61
9, 38012, Note_off_c, 3, 59, 64
9, 38019, Note_on_c, 3, 57, 58
9, 38103, Note_off_c, 3, 57, 64
9, 38146, Note_on_c, 3, 56, 63
9, 38259, Note_on_c, 3, 54, 53
9, 38266, Note_off_c, 3, 56, 64
9, 38349, Note_off_c, 3, 54, 64
9, 38392, Note_on_c, 3, 57, 68
9, 38510, Note_on_c, 3, 56, 57
9, 38514, Note_off_c, 3, 57, 64
9, 38586, Note_off_c, 3, 56, 64
9, 38637, Note_on_c, 3, 54, 60
9, 38745, Note_on_c, 3, 52, 57
9, 38753, Note_off_c, 3, 54, 64
9, 38837, Note_off_c, 3, 52, 64
9, 38888, Note_on_c, 3, 57, 59
9, 39303, Note_off_c, 3, 57, 64
9, 39354, Note_on_c, 3, 55, 46
9, 39771, Note_off_c, 3, 55, 64
9, 39830, Note_on_c, 3, 54, 58
9, 39949, Note_on_c, 3, 55, 66
9, 39960, Note_off_c, 3, 54, 64
9, 40040, Note_off_c, 3, 55, 64
9, 40078, Note_on_c, 3, 57, 68
9, 40128, Note_on_c, 3, 55, 68
9, 40147, Note_off_c, 3, 57, 64
9, 40181, Note_on_c, 3, 54, 55
9, 40191, Note_off_c, 3, 55, 64
9, 40236, Note_on_c, 3, 52, 57
9, 40240, Note_off_c, 3, 54, 64
9, 40286, Note_off_c, 3, 52, 64
9, 40312, Note_on_c, 3, 50, 60
9, 40480, Note_off_c, 3, 50, 64
9, 40546, Note_on_c, 3, 62, 60
9, 40815, Note_off_c, 3, 62, 64
9, 41150, Note_on_c, 3, 60, 68
9, 41230, Note_off_c, 3, 60, 64
9, 41274, Note_on_c, 3, 59, 62
9, 41387, Note_on_c, 3, 60, 64
9, 41407, Note_off_c, 3, 59, 64
9, 41442, Note_on_c, 3, 62, 64
9, 41455, Note_off_c, 3, 60, 64
9, 41493, Note_off_c, 3, 62, 64
9, 41506, Note_on_c, 3, 55, 66
9, 41621, Note_on_c, 3, 54, 63
9, 41628, Note_off_c, 3, 55, 64
9, 41715, Note_off_c, 3, 54, 64
9, 41747, Note_on_c, 3, 54, 72
9, 41781, Note_on_c, 3, 52, 64
9, 41786, Note_off_c, 3, 54, 64
9, 41808, Note_on_c, 3, 54, 57
9, 41811, Note_off_c, 3, 52, 64
9, 41836, Note_on_c, 3, 52, 70
9, 41845, Note_off_c, 3, 54, 64
9, 41874, Note_on_c, 3, 50, 66
9, 41881, Note_off_c, 3, 52, 64
9, 41982, Note_off_c, 3, 50, 64
9, 41994, Note_on_c, 3, 49, 55
9, 42137, Note_off_c, 3, 49, 64
9, 42237, Note_on_c, 3, 64, 68
9, 42640, Note_off_c, 3, 64, 64
9, 42697, Note_on_c, 3, 63, 55
9, 42826, Note_on_c, 3, 64, 64
9, 42833, Note_off_c, 3, 63, 64
9, 42915, Note_off_c, 3, 64, 64
9, 42949, Note_on_c, 3, 66, 61
9, 43005, Note_on_c, 3, 64, 63
9, 43019, Note_off_c, 3, 66, 64
9, 43061, Note_on_c, 3, 63, 59
9, 43067, Note_off_c, 3, 64, 64
9, 43118, Note_on_c, 3, 61, 52
9, 43122, Note_off_c, 3, 63, 64
9, 43183, Note_off_c, 3, 61, 64
9, 43187, Note_on_c, 3, 59, 60
9, 43367, Note_off_c, 3, 59, 64
9, 43425, Note_on_c, 3, 64, 57
9, 43579, Note_off_c, 3, 64, 64
9, 43669, Note_on_c, 3, 62, 58
9, 44001, Note_off_c, 3, 62, 64
9, 44022, Note_on_c, 3, 61, 59
9, 44066, Note_on_c, 3, 59, 59
9, 44080, Note_off_c, 3, 61, 64
9, 44110, Note_off_c, 3, 59, 64
9, 44138, Note_on_c, 3, 61, 53
9, 44260, Note_on_c, 3, 64, 64
9, 44273, Note_off_c, 3, 61, 64
9, 44330, Note_off_c, 3, 64, 64
9, 44387, Note_on_c, 3, 59, 57
9, 44498, Note_off_c, 3, 59, 64
9, 44504, Note_on_c, 3, 64, 62
9, 44569, Note_off_c, 3, 64, 64
9, 44650, Note_on_c, 3, 58, 55
9, 45175, Note_off_c, 3, 58, 64
9, 45215, Note_on_c, 3, 49, 60
9, 45283, Note_off_c, 3, 49, 64
9, 45338, Note_on_c, 3, 47, 60
9, 45455, Note_off_c, 3, 47, 64
9, 45464, Note_on_c, 3, 57, 63
9, 45560, Note_off_c, 3, 57, 64
9, 45585, Note_on_c, 3, 55, 61
9, 45692, Note_off_c, 3, 55, 64
9, 45698, Note_on_c, 3, 54, 54
9, 45803, Note_off_c, 3, 54, 64
9, 45829, Note_on_c, 3, 59, 68
9, 45930, Note_off_c, 3, 59, 64
9, 45947, Note_on_c, 3, 57, 64
9, 46027, Note_off_c, 3, 57, 64
9, 46067, Note_on_c, 3, 55, 59
9, 46164, Note_off_c, 3, 55, 64
9, 46175, Note_on_c, 3, 52, 58
9, 46267, Note_off_c, 3, 52, 64
9, 46318, Note_on_c, 3, 54, 59
9, 46480, Note_off_c, 3, 54, 64
9, 46560, Note_on_c, 3, 42, 57
9, 46703, Note_off_c, 3, 42, 64
9, 46804, Note_on_c, 3, 47, 59
9, 47535, Note_off_c, 3, 47, 64
9, 47535, End_track
10, 0, Start_track
10, 0, Title_t, "Flute"
10, 0, Program_c, 4, 73
10, 0, Control_c, 4, 7, 127
10, 12233, Note_on_c, 4, 78, 55
10, 12418, Note_off_c, 4, 78, 64
10, 12462, Note_on_c, 4, 76, 59
10, 12599, Note_on_c, 4, 74, 44
10, 12607, Note_off_c, 4, 76, 64
10, 12829, Note_off_c, 4, 74, 64
10, 12831, Note_on_c, 4, 76, 64
10, 12947, Note_off_c, 4, 76, 64
10, 12951, Note_on_c, 4, 78, 56
10, 13166, Note_off_c, 4, 78, 64
10, 13199, Note_on_c, 4, 71, 54
10, 13418, Note_off_c, 4, 71, 64
10, 13437, Note_on_c, 4, 76, 60
10, 13610, Note_off_c, 4, 76, 64
10, 13687, Note_on_c, 4, 74, 59
10, 14125, Note_off_c, 4, 74, 64
10, 14155, Note_on_c, 4, 73, 60
10, 14270, Note_on_c, 4, 71, 52
10, 14285, Note_off_c, 4, 73, 64
10, 14386, Note_off_c, 4, 71, 64
10, 14395, Note_on_c, 4, 70, 58
10, 14513, Note_on_c, 4, 71, 68
10, 14517, Note_off_c, 4, 70, 64
10, 14598, Note_off_c, 4, 71, 64
10, 14636, Note_on_c, 4, 71, 57
10, 14669, Note_on_c, 4, 70, 80
10, 14678, Note_off_c, 4, 71, 64
10, 14698, Note_off_c, 4, 70, 64
10, 14699, Note_on_c, 4, 71, 64
10, 14722, Note_on_c, 4, 70, 66
10, 14738, Note_off_c, 4, 71, 64
10, 14767, Note_on_c, 4, 71, 58
10, 14772, Note_off_c, 4, 70, 64
10, 14854, Note_off_c, 4, 71, 64
10, 14881, Note_on_c, 4, 71, 66
10, 15003, Note_on_c, 4, 73, 47
10, 15008, Note_off_c, 4, 71, 64
10, 15199, Note_off_c, 4, 73, 64
10, 15220, Note_on_c, 4, 66, 66
10, 15322, Note_off_c, 4, 66, 64
10, 15355, Note_on_c, 4, 78, 59
10, 15682, Note_off_c, 4, 78, 64
10, 15714, Note_on_c, 4, 79, 68
10, 15811, Note_off_c, 4, 79, 64
10, 15847, Note_on_c, 4, 76, 68
10, 15876, Note_on_c, 4, 75, 66
10, 15881, Note_off_c, 4, 76, 64
10, 15904, Note_on_c, 4, 76, 56
10, 15911, Note_off_c, 4, 75, 64
10, 16031, Note_off_c, 4, 76, 64
10, 16062, Note_on_c, 4, 76, 59
10, 16094, Note_on_c, 4, 75, 53
10, 16096, Note_off_c, 4, 76, 64
10, 16117, Note_off_c, 4, 75, 64
10, 16117, Note_on_c, 4, 76, 60
10, 16141, Note_on_c, 4, 75, 64
10, 16152, Note_off_c, 4, 76, 64
10, 16188, Note_on_c, 4, 76, 66
10, 16191, Note_off_c, 4, 75, 64
10, 16295, Note_off_c, 4, 76, 64
10, 16317, Note_on_c, 4, 76, 70
10, 16436, Note_on_c, 4, 78, 49
10, 16442, Note_off_c, 4, 76, 64
10, 16589, Note_off_c, 4, 78, 64
10, 16917, Note_on_c, 4, 83, 63
10, 16988, Note_off_c, 4, 83, 64
10, 17039, Note_on_c, 4, 81, 64
10, 17152, Note_on_c, 4, 79, 58
10, 17164, Note_off_c, 4, 81, 64
10, 17242, Note_off_c, 4, 79, 64
10, 17270, Note_on_c, 4, 81, 64
10, 17384, Note_on_c, 4, 79, 66
10, 17395, Note_off_c, 4, 81, 64
10, 17435, Note_on_c, 4, 78, 52
10, 17446, Note_off_c, 4, 79, 64
10, 17481, Note_off_c, 4, 78, 64
10, 17502, Note_on_c, 4, 79, 60
10, 17615, Note_off_c, 4, 79, 64
10, 17624, Note_on_c, 4, 76, 60
10, 17713, Note_off_c, 4, 76, 64
10, 17746, Note_on_c, 4, 81, 62
10, 17833, Note_on_c, 4, 80, 49
10, 17843, Note_off_c, 4, 81, 64
10, 17886, Note_on_c, 4, 81, 55
10, 17891, Note_off_c, 4, 80, 64
10, 17931, Note_on_c, 4, 80, 49
10, 17937, Note_off_c, 4, 81, 64
10, 17960, Note_off_c, 4, 80, 64
10, 17960, Note_on_c, 4, 81, 55
10, 17992, Note_on_c, 4, 80, 54
10, 18000, Note_off_c, 4, 81, 64
10, 18013, Note_off_c, 4, 80, 64
10, 18017, Note_on_c, 4, 81, 56
10, 18038, Note_on_c, 4, 80, 43
10, 18053, Note_off_c, 4, 80, 64
10, 18074, Note_on_c, 4, 80, 48
10, 18089, Note_off_c, 4, 81, 64
10, 18116, Note_off_c, 4, 80, 64
10, 18116, Note_on_c, 4, 78, 45
10, 18166, Note_on_c, 4, 80, 62
10, 18172, Note_off_c, 4, 78, 64
10, 18204, Note_off_c, 4, 80, 64
10, 18236, Note_on_c, 4, 81, 74
10, 18337, Note_off_c, 4, 81, 64
10, 18346, Note_on_c, 4, 83, 72
10, 18400, Note_off_c, 4, 83, 64
10, 18401, Note_on_c, 4, 85, 64
10, 18449, Note_off_c, 4, 85, 64
10, 18468, Note_on_c, 4, 83, 68
10, 18587, Note_off_c, 4, 83, 64
10, 18590, Note_on_c, 4, 82, 44
10, 18683, Note_off_c, 4, 82, 64
10, 18708, Note_on_c, 4, 80, 57
10, 18827, Note_on_c, 4, 82, 53
10, 18832, Note_off_c, 4, 80, 64
10, 18911, Note_off_c, 4, 82, 64
10, 18953, Note_on_c, 4, 83, 68
10, 19073, Note_on_c, 4, 81, 59
10, 19083, Note_off_c, 4, 83, 64
10, 19166, Note_off_c, 4, 81, 64
10, 19188, Note_on_c, 4, 79, 61
10, 19309, Note_on_c, 4, 78, 44
10, 19315, Note_off_c, 4, 79, 64
10, 19404, Note_off_c, 4, 78, 64
10, 19431, Note_on_c, 4, 76, 64
10, 19544, Note_on_c, 4, 74, 57
10, 19549, Note_off_c, 4, 76, 64
10, 19629, Note_off_c, 4, 74, 64
10, 19668, Note_on_c, 4, 74, 64
10, 19697, Note_on_c, 4, 73, 47
10, 19705, Note_off_c, 4, 74, 64
10, 19726, Note_off_c, 4, 73, 64
10, 19726, Note_on_c, 4, 74, 58
10, 19748, Note_on_c, 4, 73, 60
10, 19758, Note_off_c, 4, 74, 64
10, 19789, Note_on_c, 4, 74, 51
10, 19795, Note_off_c, 4, 73, 64
10, 19875, Note_off_c, 4, 74, 64
10, 19912, Note_on_c, 4, 74, 63
10, 20033, Note_on_c, 4, 76, 57
10, 20043, Note_off_c, 4, 74, 64
10, 20582, Note_off_c, 4, 76, 64
10, 20650, Note_on_c, 4, 75, 60
10, 20764, Note_on_c, 4, 76, 70
10, 20770, Note_off_c, 4, 75, 64
10, 20856, Note_off_c, 4, 76, 64
10, 20882, Note_on_c, 4, 78, 64
10, 20990, Note_off_c, 4, 78, 64
10, 20999, Note_on_c, 4, 75, 63
10, 21063, Note_off_c, 4, 75, 64
10, 21129, Note_on_c, 4, 83, 70
10, 21161, Note_on_c, 4, 81, 70
10, 21176, Note_off_c, 4, 83, 64
10, 21202, Note_on_c, 4, 83, 50
10, 21204, Note_off_c, 4, 81, 64
10, 21914, Note_off_c, 4, 83, 64
10, 21952, Note_on_c, 4, 74, 60
10, 22064, Note_off_c, 4, 74, 64
10, 22071, Note_on_c, 4, 73, 52
10, 22160, Note_off_c, 4, 73, 64
10, 22192, Note_on_c, 4, 83, 72
10, 22250, Note_off_c, 4, 83, 64
10, 22329, Note_on_c, 4, 83, 72
10, 22442, Note_on_c, 4, 81, 57
10, 22464, Note_off_c, 4, 83, 64
10, 22634, Note_off_c, 4, 81, 64
10, 22664, Note_on_c, 4, 80, 55
10, 22740, Note_off_c, 4, 80, 64
10, 22793, Note_on_c, 4, 78, 63
10, 22871, Note_on_c, 4, 77, 61
10, 22875, Note_off_c, 4, 78, 64
10, 22912, Note_on_c, 4, 78, 57
10, 22915, Note_off_c, 4, 77, 64
10, 22943, Note_on_c, 4, 77, 53
10, 22946, Note_off_c, 4, 78, 64
10, 22969, Note_off_c, 4, 77, 64
10, 22969, Note_on_c, 4, 78, 58
10, 22994, Note_off_c, 4, 78, 64
10, 22994, Note_on_c, 4, 77, 60
10, 23016, Note_on_c, 4, 78, 70
10, 23019, Note_off_c, 4, 77, 64
10, 23038, Note_on_c, 4, 77, 68
10, 23042, Note_off_c, 4, 78, 64
10, 23140, Note_off_c, 4, 77, 64
10, 23140, Note_on_c, 4, 78, 57
10, 23221, Note_off_c, 4, 78, 64
10, 23258, Note_on_c, 4, 78, 52
10, 23778, Note_off_c, 4, 78, 64
10, 35743, Note_on_c, 4, 73, 60
10, 35917, Note_off_c, 4, 73, 64
10, 35977, Note_on_c, 4, 71, 64
10, 36063, Note_on_c, 4, 70, 57
10, 36076, Note_off_c, 4, 71, 64
10, 36118, Note_on_c, 4, 71, 54
10, 36119, Note_off_c, 4, 70, 64
10, 36154, Note_on_c, 4, 70, 59
10, 36159, Note_off_c, 4, 71, 64
10, 36173, Note_off_c, 4, 70, 64
10, 36175, Note_on_c, 4, 71, 62
10, 36199, Note_on_c, 4, 70, 76
10, 36202, Note_off_c, 4, 71, 64
10, 36218, Note_on_c, 4, 71, 64
10, 36222, Note_off_c, 4, 70, 64
10, 36247, Note_on_c, 4, 70, 72
10, 36259, Note_off_c, 4, 71, 64
10, 36354, Note_on_c, 4, 71, 60
10, 36358, Note_off_c, 4, 70, 64
10, 36466, Note_off_c, 4, 71, 64
10, 36479, Note_on_c, 4, 73, 57
10, 36643, Note_off_c, 4, 73, 64
10, 36706, Note_on_c, 4, 66, 57
10, 36881, Note_off_c, 4, 66, 64
10, 36952, Note_on_c, 4, 78, 59
10, 37271, Note_off_c, 4, 78, 64
10, 37305, Note_on_c, 4, 76, 59
10, 37386, Note_off_c, 4, 76, 64
10, 37429, Note_on_c, 4, 74, 70
10, 37548, Note_on_c, 4, 73, 45
10, 37550, Note_off_c, 4, 74, 64
10, 37632, Note_off_c, 4, 73, 64
10, 37670, Note_on_c, 4, 76, 66
10, 37785, Note_on_c, 4, 74, 59
10, 37806, Note_off_c, 4, 76, 64
10, 37882, Note_off_c, 4, 74, 64
10, 37906, Note_on_c, 4, 73, 59
10, 38025, Note_on_c, 4, 71, 56
10, 38036, Note_off_c, 4, 73, 64
10, 38107, Note_off_c, 4, 71, 64
10, 38160, Note_on_c, 4, 76, 63
10, 38597, Note_off_c, 4, 76, 64
10, 38634, Note_on_c, 4, 74, 57
10, 39045, Note_off_c, 4, 74, 64
10, 39110, Note_on_c, 4, 73, 62
10, 39226, Note_on_c, 4, 74, 68
10, 39245, Note_off_c, 4, 73, 64
10, 39312, Note_off_c, 4, 74, 64
10, 39351, Note_on_c, 4, 76, 66
10, 39419, Note_on_c, 4, 74, 68
10, 39435, Note_off_c, 4, 76, 64
10, 39471, Note_on_c, 4, 73, 58
10, 39485, Note_off_c, 4, 74, 64
10, 39520, Note_on_c, 4, 71, 59
10, 39529, Note_off_c, 4, 73, 64
10, 39568, Note_off_c, 4, 71, 64
10, 39583, Note_on_c, 4, 69, 58
10, 39763, Note_off_c, 4, 69, 64
10, 39836, Note_on_c, 4, 81, 59
10, 40129, Note_off_c, 4, 81, 64
10, 40424, Note_on_c, 4, 79, 62
10, 40498, Note_off_c, 4, 79, 64
10, 40548, Note_on_c, 4, 78, 59
10, 40669, Note_on_c, 4, 79, 59
10, 40682, Note_off_c, 4, 78, 64
10, 40716, Note_on_c, 4, 81, 58
10, 40734, Note_off_c, 4, 79, 64
10, 40761, Note_off_c, 4, 81, 64
10, 40786, Note_on_c, 4, 74, 80
10, 40897, Note_on_c, 4, 72, 52
10, 40904, Note_off_c, 4, 74, 64
10, 40981, Note_off_c, 4, 72, 64
10, 41022, Note_on_c, 4, 72, 59
10, 41050, Note_on_c, 4, 71, 62
10, 41057, Note_off_c, 4, 72, 64
10, 41082, Note_on_c, 4, 72, 66
10, 41084, Note_off_c, 4, 71, 64
10, 41108, Note_on_c, 4, 71, 64
10, 41115, Note_off_c, 4, 72, 64
10, 41146, Note_on_c, 4, 69, 60
10, 41155, Note_off_c, 4, 71, 64
10, 41246, Note_off_c, 4, 69, 64
10, 41273, Note_on_c, 4, 67, 58
10, 41421, Note_off_c, 4, 67, 64
10, 41511, Note_on_c, 4, 83, 58
10, 41931, Note_off_c, 4, 83, 64
10, 41991, Note_on_c, 4, 82, 66
10, 42102, Note_on_c, 4, 83, 45
10, 42111, Note_off_c, 4, 82, 64
10, 42203, Note_off_c, 4, 83, 64
10, 42238, Note_on_c, 4, 85, 64
10, 42294, Note_on_c, 4, 83, 59
10, 42318, Note_off_c, 4, 85, 64
10, 42342, Note_on_c, 4, 82, 48
10, 42352, Note_off_c, 4, 83, 64
10, 42400, Note_on_c, 4, 80, 57
10, 42407, Note_off_c, 4, 82, 64
10, 42465, Note_off_c, 4, 80, 64
10, 42469, Note_on_c, 4, 78, 49
10, 42647, Note_off_c, 4, 78, 64
10, 42712, Note_on_c, 4, 83, 62
10, 42879, Note_off_c, 4, 83, 64
10, 42954, Note_on_c, 4, 81, 63
10, 43285, Note_off_c, 4, 81, 64
10, 43316, Note_on_c, 4, 79, 61
10, 43365, Note_on_c, 4, 78, 45
10, 43377, Note_off_c, 4, 79, 64
10, 43407, Note_off_c, 4, 78, 64
10, 43439, Note_on_c, 4, 79, 63
10, 43554, Note_on_c, 4, 83, 60
10, 43556, Note_off_c, 4, 79, 64
10, 43608, Note_off_c, 4, 83, 64
10, 43668, Note_on_c, 4, 78, 52
10, 43785, Note_off_c, 4, 78, 64
10, 43789, Note_on_c, 4, 83, 58
10, 43843, Note_off_c, 4, 83, 64
10, 43921, Note_on_c, 4, 76, 58
10, 44494, Note_off_c, 4, 76, 64
10, 44510, Note_on_c, 4, 67, 49
10, 44585, Note_off_c, 4, 67, 64
10, 44634, Note_on_c, 4, 66, 52
10, 44738, Note_off_c, 4, 66, 64
10, 44752, Note_on_c, 4, 76, 63
10, 44848, Note_off_c, 4, 76, 64
10, 44876, Note_on_c, 4, 74, 68
10, 44990, Note_off_c, 4, 74, 64
10, 44994, Note_on_c, 4, 73, 42
10, 45061, Note_off_c, 4, 73, 64
10, 45110, Note_on_c, 4, 78, 57
10, 45223, Note_on_c, 4, 76, 51
10, 45225, Note_off_c, 4, 78, 64
10, 45297, Note_off_c, 4, 76, 64
10, 45345, Note_on_c, 4, 74, 60
10, 45456, Note_on_c, 4, 73, 52
10, 45457, Note_off_c, 4, 74, 64
10, 45542, Note_off_c, 4, 73, 64
10, 45586, Note_on_c, 4, 71, 64
10, 45708, Note_on_c, 4, 70, 52
10, 45717, Note_off_c, 4, 71, 64
10, 45784, Note_off_c, 4, 70, 64
10, 45841, Note_on_c, 4, 71, 58
10, 45869, Note_on_c, 4, 70, 57
10, 45883, Note_off_c, 4, 71, 64
10, 45904, Note_on_c, 4, 71, 57
10, 45908, Note_off_c, 4, 70, 64
10, 46176, Note_off_c, 4, 71, 64
10, 46196, Note_on_c, 4, 73, 55
10, 46295, Note_off_c, 4, 73, 64
10, 46318, Note_on_c, 4, 74, 60
10, 46395, Note_on_c, 4, 73, 42
10, 46401, Note_off_c, 4, 74, 64
10, 46431, Note_on_c, 4, 74, 57
10, 46434, Note_off_c, 4, 73, 64
10, 46468, Note_on_c, 4, 73, 47
10, 46474, Note_off_c, 4, 74, 64
10, 46490, Note_off_c, 4, 73, 64
10, 46490, Note_on_c, 4, 74, 63
10, 46515, Note_on_c, 4, 73, 55
10, 46519, Note_off_c, 4, 74, 64
10, 46533, Note_off_c, 4, 73, 64
10, 46533, Note_on_c, 4, 74, 66
10, 46553, Note_on_c, 4, 73, 62
10, 46565, Note_off_c, 4, 74, 64
10, 46663, Note_on_c, 4, 71, 57
10, 46666, Note_off_c, 4, 73, 64
10, 46730, Note_off_c, 4, 71, 64
10, 46789, Note_on_c, 4, 71, 51
10, 47530, Note_off_c, 4, 71, 64
10, 47530, End_track
0, 0, End_of_file
