0, 0, Header, 1, 10, 96
1, 0, Start_track
1, 0, Sequencer_specific, 3, 0, 0, 65
1, 0, Time_signature, 6, 3, 12, 8
1, 0, Key_signature, -3, "major"
1, 0, Tempo, 1111111
1, 8, Tempo, 937500
1, 536, Tempo, 923077
1, 568, Tempo, 909091
1, 632, Tempo, 895522
1, 648, Tempo, 882353
1, 760, Tempo, 869565
1, 1256, Tempo, 869565
1, 1544, Tempo, 882353
1, 2008, Tempo, 882353
1, 2552, Tempo, 882353
1, 20040, Tempo, 923077
1, 20072, Tempo, 952381
1, 20120, Tempo, 983607
1, 20224, Tempo, 1016949
1, 20240, Tempo, 1052632
1, 20280, Tempo, 1090909
1, 20288, Tempo, 1132075
1, 20328, Tempo, 1224490
1, 20384, Tempo, 1276596
1, 20416, Tempo, 1333333
1, 20544, Tempo, 1395349
1, 20568, Tempo, 1463415
1, 20592, Tempo, 1333333
1, 20616, Tempo, 1276596
1, 20632, Tempo, 1224490
1, 20648, Tempo, 1132075
1, 20672, Tempo, 1090909
1, 20744, Tempo, 1090909
1, 20800, Tempo, 1333333
1, 20856, Tempo, 1276596
1, 20864, Tempo, 1224490
1, 20912, Tempo, 6000000
1, 20952, Tempo, 6000000
1, 21072, Tempo, 6000000
1, 21072, End_track
2, 0, Start_track
2, 0, MIDI_port, 0
2, 0, Title_t, "Violin"
2, 0, Program_c, 0, 40
2, 0, Control_c, 0, 7, 127
2, 0, Note_on_c, 0, 67, 64
2, 72, Note_on_c, 0, 67, 0
2, 72, Note_on_c, 0, 75, 64
2, 95, Note_on_c, 0, 75, 0
2, 96, Note_on_c, 0, 74, 64
2, 141, Note_on_c, 0, 74, 0
2, 144, Note_on_c, 0, 72, 64
2, 216, Note_on_c, 0, 72, 0
2, 216, Note_on_c, 0, 71, 64
2, 239, Note_on_c, 0, 71, 0
2, 240, Note_on_c, 0, 72, 64
2, 285, Note_on_c, 0, 72, 0
2, 288, Note_on_c, 0, 72, 64
2, 521, Note_on_c, 0, 72, 0
2, 576, Note_on_c, 0, 72, 64
2, 648, Note_on_c, 0, 72, 0
2, 648, Note_on_c, 0, 80, 64
2, 671, Note_on_c, 0, 80, 0
2, 672, Note_on_c, 0, 79, 64
2, 717, Note_on_c, 0, 79, 0
2, 720, Note_on_c, 0, 77, 64
2, 792, Note_on_c, 0, 77, 0
2, 792, Note_on_c, 0, 76, 64
2, 815, Note_on_c, 0, 76, 0
2, 816, Note_on_c, 0, 77, 64
2, 861, Note_on_c, 0, 77, 0
2, 864, Note_on_c, 0, 77, 64
2, 1219, Note_on_c, 0, 77, 0
2, 1224, Note_on_c, 0, 74, 64
2, 1247, Note_on_c, 0, 74, 0
2, 1248, Note_on_c, 0, 71, 64
2, 1293, Note_on_c, 0, 71, 0
2, 1296, Note_on_c, 0, 68, 64
2, 1368, Note_on_c, 0, 68, 0
2, 1368, Note_on_c, 0, 67, 64
2, 1391, Note_on_c, 0, 67, 0
2, 1392, Note_on_c, 0, 77, 64
2, 1437, Note_on_c, 0, 77, 0
2, 1440, Note_on_c, 0, 75, 64
2, 1507, Note_on_c, 0, 75, 0
2, 1512, Note_on_c, 0, 77, 64
2, 1535, Note_on_c, 0, 77, 0
2, 1536, Note_on_c, 0, 74, 64
2, 1581, Note_on_c, 0, 74, 0
2, 1584, Note_on_c, 0, 72, 64
2, 1795, Note_on_c, 0, 72, 0
2, 1800, Note_on_c, 0, 74, 64
2, 1812, Note_on_c, 0, 74, 0
2, 1812, Note_on_c, 0, 75, 64
2, 1824, Note_on_c, 0, 75, 0
2, 1824, Note_on_c, 0, 77, 64
2, 1939, Note_on_c, 0, 77, 0
2, 1944, Note_on_c, 0, 74, 64
2, 1967, Note_on_c, 0, 74, 0
2, 1968, Note_on_c, 0, 75, 64
2, 2013, Note_on_c, 0, 75, 0
2, 2016, Note_on_c, 0, 68, 64
2, 2371, Note_on_c, 0, 68, 0
2, 2376, Note_on_c, 0, 80, 64
2, 2388, Note_on_c, 0, 80, 0
2, 2388, Note_on_c, 0, 82, 64
2, 2400, Note_on_c, 0, 82, 0
2, 2400, Note_on_c, 0, 84, 64
2, 2515, Note_on_c, 0, 84, 0
2, 2520, Note_on_c, 0, 81, 64
2, 2543, Note_on_c, 0, 81, 0
2, 2544, Note_on_c, 0, 82, 64
2, 2589, Note_on_c, 0, 82, 0
2, 2592, Note_on_c, 0, 74, 64
2, 2664, Note_on_c, 0, 74, 0
2, 2664, Note_on_c, 0, 72, 64
2, 2687, Note_on_c, 0, 72, 0
2, 2688, Note_on_c, 0, 70, 64
2, 2733, Note_on_c, 0, 70, 0
2, 2736, Note_on_c, 0, 78, 64
2, 2947, Note_on_c, 0, 78, 0
2, 2952, Note_on_c, 0, 77, 64
2, 2964, Note_on_c, 0, 77, 0
2, 2964, Note_on_c, 0, 78, 64
2, 2976, Note_on_c, 0, 78, 0
2, 2976, Note_on_c, 0, 80, 64
2, 3021, Note_on_c, 0, 80, 0
2, 3024, Note_on_c, 0, 80, 64
2, 3069, Note_on_c, 0, 80, 0
2, 3072, Note_on_c, 0, 78, 64
2, 3095, Note_on_c, 0, 78, 0
2, 3096, Note_on_c, 0, 77, 64
2, 3119, Note_on_c, 0, 77, 0
2, 3120, Note_on_c, 0, 75, 64
2, 3143, Note_on_c, 0, 75, 0
2, 3144, Note_on_c, 0, 74, 64
2, 3167, Note_on_c, 0, 74, 0
2, 3168, Note_on_c, 0, 75, 64
2, 3528, Note_on_c, 0, 75, 0
2, 3528, Note_on_c, 0, 78, 64
2, 3551, Note_on_c, 0, 78, 0
2, 3552, Note_on_c, 0, 79, 64
2, 3672, Note_on_c, 0, 79, 0
2, 3672, Note_on_c, 0, 75, 64
2, 3695, Note_on_c, 0, 75, 0
2, 3696, Note_on_c, 0, 74, 64
2, 3741, Note_on_c, 0, 74, 0
2, 3744, Note_on_c, 0, 72, 64
2, 3816, Note_on_c, 0, 72, 0
2, 3816, Note_on_c, 0, 78, 64
2, 3839, Note_on_c, 0, 78, 0
2, 3840, Note_on_c, 0, 79, 64
2, 3960, Note_on_c, 0, 79, 0
2, 3960, Note_on_c, 0, 72, 64
2, 3983, Note_on_c, 0, 72, 0
2, 3984, Note_on_c, 0, 70, 64
2, 4029, Note_on_c, 0, 70, 0
2, 4032, Note_on_c, 0, 68, 64
2, 4104, Note_on_c, 0, 68, 0
2, 4104, Note_on_c, 0, 72, 64
2, 4127, Note_on_c, 0, 72, 0
2, 4128, Note_on_c, 0, 75, 64
2, 4248, Note_on_c, 0, 75, 0
2, 4248, Note_on_c, 0, 78, 64
2, 4271, Note_on_c, 0, 78, 0
2, 4272, Note_on_c, 0, 81, 64
2, 4317, Note_on_c, 0, 81, 0
2, 4320, Note_on_c, 0, 71, 64
2, 4585, Note_on_c, 0, 71, 0
2, 4608, Note_on_c, 0, 67, 64
2, 4680, Note_on_c, 0, 67, 0
2, 4680, Note_on_c, 0, 75, 64
2, 4703, Note_on_c, 0, 75, 0
2, 4704, Note_on_c, 0, 74, 64
2, 4749, Note_on_c, 0, 74, 0
2, 4752, Note_on_c, 0, 72, 64
2, 4824, Note_on_c, 0, 72, 0
2, 4824, Note_on_c, 0, 71, 64
2, 4847, Note_on_c, 0, 71, 0
2, 4848, Note_on_c, 0, 72, 64
2, 4893, Note_on_c, 0, 72, 0
2, 4896, Note_on_c, 0, 72, 64
2, 5129, Note_on_c, 0, 72, 0
2, 5184, Note_on_c, 0, 72, 64
2, 5256, Note_on_c, 0, 72, 0
2, 5256, Note_on_c, 0, 80, 64
2, 5279, Note_on_c, 0, 80, 0
2, 5280, Note_on_c, 0, 79, 64
2, 5325, Note_on_c, 0, 79, 0
2, 5328, Note_on_c, 0, 77, 64
2, 5400, Note_on_c, 0, 77, 0
2, 5400, Note_on_c, 0, 76, 64
2, 5423, Note_on_c, 0, 76, 0
2, 5424, Note_on_c, 0, 77, 64
2, 5469, Note_on_c, 0, 77, 0
2, 5472, Note_on_c, 0, 77, 64
2, 5827, Note_on_c, 0, 77, 0
2, 5832, Note_on_c, 0, 74, 64
2, 5855, Note_on_c, 0, 74, 0
2, 5856, Note_on_c, 0, 71, 64
2, 5901, Note_on_c, 0, 71, 0
2, 5904, Note_on_c, 0, 68, 64
2, 5976, Note_on_c, 0, 68, 0
2, 5976, Note_on_c, 0, 67, 64
2, 5999, Note_on_c, 0, 67, 0
2, 6000, Note_on_c, 0, 77, 64
2, 6045, Note_on_c, 0, 77, 0
2, 6048, Note_on_c, 0, 75, 64
2, 6115, Note_on_c, 0, 75, 0
2, 6120, Note_on_c, 0, 77, 64
2, 6143, Note_on_c, 0, 77, 0
2, 6144, Note_on_c, 0, 74, 64
2, 6189, Note_on_c, 0, 74, 0
2, 6192, Note_on_c, 0, 72, 64
2, 6403, Note_on_c, 0, 72, 0
2, 6408, Note_on_c, 0, 74, 64
2, 6420, Note_on_c, 0, 74, 0
2, 6420, Note_on_c, 0, 75, 64
2, 6432, Note_on_c, 0, 75, 0
2, 6432, Note_on_c, 0, 77, 64
2, 6547, Note_on_c, 0, 77, 0
2, 6552, Note_on_c, 0, 74, 64
2, 6575, Note_on_c, 0, 74, 0
2, 6576, Note_on_c, 0, 75, 64
2, 6621, Note_on_c, 0, 75, 0
2, 6624, Note_on_c, 0, 68, 64
2, 6979, Note_on_c, 0, 68, 0
2, 6984, Note_on_c, 0, 80, 64
2, 6996, Note_on_c, 0, 80, 0
2, 6996, Note_on_c, 0, 82, 64
2, 7008, Note_on_c, 0, 82, 0
2, 7008, Note_on_c, 0, 84, 64
2, 7123, Note_on_c, 0, 84, 0
2, 7128, Note_on_c, 0, 81, 64
2, 7151, Note_on_c, 0, 81, 0
2, 7152, Note_on_c, 0, 82, 64
2, 7197, Note_on_c, 0, 82, 0
2, 7200, Note_on_c, 0, 74, 64
2, 7272, Note_on_c, 0, 74, 0
2, 7272, Note_on_c, 0, 72, 64
2, 7295, Note_on_c, 0, 72, 0
2, 7296, Note_on_c, 0, 70, 64
2, 7341, Note_on_c, 0, 70, 0
2, 7344, Note_on_c, 0, 78, 64
2, 7555, Note_on_c, 0, 78, 0
2, 7560, Note_on_c, 0, 77, 64
2, 7572, Note_on_c, 0, 77, 0
2, 7572, Note_on_c, 0, 78, 64
2, 7584, Note_on_c, 0, 78, 0
2, 7584, Note_on_c, 0, 80, 64
2, 7629, Note_on_c, 0, 80, 0
2, 7632, Note_on_c, 0, 80, 64
2, 7677, Note_on_c, 0, 80, 0
2, 7680, Note_on_c, 0, 78, 64
2, 7703, Note_on_c, 0, 78, 0
2, 7704, Note_on_c, 0, 77, 64
2, 7727, Note_on_c, 0, 77, 0
2, 7728, Note_on_c, 0, 75, 64
2, 7751, Note_on_c, 0, 75, 0
2, 7752, Note_on_c, 0, 74, 64
2, 7775, Note_on_c, 0, 74, 0
2, 7776, Note_on_c, 0, 75, 64
2, 8136, Note_on_c, 0, 75, 0
2, 8136, Note_on_c, 0, 78, 64
2, 8159, Note_on_c, 0, 78, 0
2, 8160, Note_on_c, 0, 79, 64
2, 8280, Note_on_c, 0, 79, 0
2, 8280, Note_on_c, 0, 75, 64
2, 8303, Note_on_c, 0, 75, 0
2, 8304, Note_on_c, 0, 74, 64
2, 8349, Note_on_c, 0, 74, 0
2, 8352, Note_on_c, 0, 72, 64
2, 8424, Note_on_c, 0, 72, 0
2, 8424, Note_on_c, 0, 78, 64
2, 8447, Note_on_c, 0, 78, 0
2, 8448, Note_on_c, 0, 79, 64
2, 8568, Note_on_c, 0, 79, 0
2, 8568, Note_on_c, 0, 72, 64
2, 8591, Note_on_c, 0, 72, 0
2, 8592, Note_on_c, 0, 70, 64
2, 8637, Note_on_c, 0, 70, 0
2, 8640, Note_on_c, 0, 68, 64
2, 8712, Note_on_c, 0, 68, 0
2, 8712, Note_on_c, 0, 72, 64
2, 8735, Note_on_c, 0, 72, 0
2, 8736, Note_on_c, 0, 75, 64
2, 8856, Note_on_c, 0, 75, 0
2, 8856, Note_on_c, 0, 78, 64
2, 8879, Note_on_c, 0, 78, 0
2, 8880, Note_on_c, 0, 81, 64
2, 8925, Note_on_c, 0, 81, 0
2, 8928, Note_on_c, 0, 71, 64
2, 9193, Note_on_c, 0, 71, 0
2, 9216, Note_on_c, 0, 74, 64
2, 9288, Note_on_c, 0, 74, 0
2, 9288, Note_on_c, 0, 71, 64
2, 9311, Note_on_c, 0, 71, 0
2, 9312, Note_on_c, 0, 67, 64
2, 9357, Note_on_c, 0, 67, 0
2, 9360, Note_on_c, 0, 77, 64
2, 9394, Note_on_c, 0, 77, 0
2, 9396, Note_on_c, 0, 79, 64
2, 9408, Note_on_c, 0, 79, 0
2, 9408, Note_on_c, 0, 80, 64
2, 9431, Note_on_c, 0, 80, 0
2, 9432, Note_on_c, 0, 79, 64
2, 9455, Note_on_c, 0, 79, 0
2, 9456, Note_on_c, 0, 77, 64
2, 9501, Note_on_c, 0, 77, 0
2, 9504, Note_on_c, 0, 75, 64
2, 9720, Note_on_c, 0, 75, 0
2, 9720, Note_on_c, 0, 79, 64
2, 9743, Note_on_c, 0, 79, 0
2, 9744, Note_on_c, 0, 72, 64
2, 9789, Note_on_c, 0, 72, 0
2, 9792, Note_on_c, 0, 73, 64
2, 9864, Note_on_c, 0, 73, 0
2, 9864, Note_on_c, 0, 70, 64
2, 9887, Note_on_c, 0, 70, 0
2, 9888, Note_on_c, 0, 64, 64
2, 9933, Note_on_c, 0, 64, 0
2, 9936, Note_on_c, 0, 79, 64
2, 9970, Note_on_c, 0, 79, 0
2, 9972, Note_on_c, 0, 80, 64
2, 9984, Note_on_c, 0, 80, 0
2, 9984, Note_on_c, 0, 82, 64
2, 10007, Note_on_c, 0, 82, 0
2, 10008, Note_on_c, 0, 80, 64
2, 10031, Note_on_c, 0, 80, 0
2, 10032, Note_on_c, 0, 79, 64
2, 10077, Note_on_c, 0, 79, 0
2, 10080, Note_on_c, 0, 80, 64
2, 10440, Note_on_c, 0, 80, 0
2, 10440, Note_on_c, 0, 77, 64
2, 10463, Note_on_c, 0, 77, 0
2, 10464, Note_on_c, 0, 78, 64
2, 10584, Note_on_c, 0, 78, 0
2, 10584, Note_on_c, 0, 76, 64
2, 10607, Note_on_c, 0, 76, 0
2, 10608, Note_on_c, 0, 77, 64
2, 10653, Note_on_c, 0, 77, 0
2, 10656, Note_on_c, 0, 82, 64
2, 10690, Note_on_c, 0, 82, 0
2, 10692, Note_on_c, 0, 84, 64
2, 10704, Note_on_c, 0, 84, 0
2, 10704, Note_on_c, 0, 85, 64
2, 10727, Note_on_c, 0, 85, 0
2, 10728, Note_on_c, 0, 84, 64
2, 10751, Note_on_c, 0, 84, 0
2, 10752, Note_on_c, 0, 82, 64
2, 10797, Note_on_c, 0, 82, 0
2, 10800, Note_on_c, 0, 82, 64
2, 10872, Note_on_c, 0, 82, 0
2, 10872, Note_on_c, 0, 78, 64
2, 10895, Note_on_c, 0, 78, 0
2, 10896, Note_on_c, 0, 77, 64
2, 10941, Note_on_c, 0, 77, 0
2, 10944, Note_on_c, 0, 76, 64
2, 10968, Note_on_c, 0, 76, 0
2, 10968, Note_on_c, 0, 79, 64
2, 10991, Note_on_c, 0, 79, 0
2, 10992, Note_on_c, 0, 77, 64
2, 11059, Note_on_c, 0, 77, 0
2, 11064, Note_on_c, 0, 82, 64
2, 11087, Note_on_c, 0, 82, 0
2, 11088, Note_on_c, 0, 80, 64
2, 11111, Note_on_c, 0, 80, 0
2, 11112, Note_on_c, 0, 85, 64
2, 11135, Note_on_c, 0, 85, 0
2, 11136, Note_on_c, 0, 84, 64
2, 11159, Note_on_c, 0, 84, 0
2, 11160, Note_on_c, 0, 80, 64
2, 11183, Note_on_c, 0, 80, 0
2, 11184, Note_on_c, 0, 82, 64
2, 11208, Note_on_c, 0, 82, 0
2, 11208, Note_on_c, 0, 79, 64
2, 11231, Note_on_c, 0, 79, 0
2, 11232, Note_on_c, 0, 77, 64
2, 11497, Note_on_c, 0, 77, 0
2, 11520, Note_on_c, 0, 74, 64
2, 11592, Note_on_c, 0, 74, 0
2, 11592, Note_on_c, 0, 75, 64
2, 11615, Note_on_c, 0, 75, 0
2, 11616, Note_on_c, 0, 77, 64
2, 11736, Note_on_c, 0, 77, 0
2, 11736, Note_on_c, 0, 79, 64
2, 11759, Note_on_c, 0, 79, 0
2, 11760, Note_on_c, 0, 80, 64
2, 11880, Note_on_c, 0, 80, 0
2, 11880, Note_on_c, 0, 82, 64
2, 11903, Note_on_c, 0, 82, 0
2, 11904, Note_on_c, 0, 84, 64
2, 12024, Note_on_c, 0, 84, 0
2, 12024, Note_on_c, 0, 82, 64
2, 12047, Note_on_c, 0, 82, 0
2, 12048, Note_on_c, 0, 80, 64
2, 12093, Note_on_c, 0, 80, 0
2, 12096, Note_on_c, 0, 79, 64
2, 12168, Note_on_c, 0, 79, 0
2, 12168, Note_on_c, 0, 77, 64
2, 12191, Note_on_c, 0, 77, 0
2, 12192, Note_on_c, 0, 75, 64
2, 12237, Note_on_c, 0, 75, 0
2, 12240, Note_on_c, 0, 74, 64
2, 12263, Note_on_c, 0, 74, 0
2, 12264, Note_on_c, 0, 75, 64
2, 12287, Note_on_c, 0, 75, 0
2, 12288, Note_on_c, 0, 77, 64
2, 12311, Note_on_c, 0, 77, 0
2, 12312, Note_on_c, 0, 71, 64
2, 12335, Note_on_c, 0, 71, 0
2, 12336, Note_on_c, 0, 72, 64
2, 12381, Note_on_c, 0, 72, 0
2, 12384, Note_on_c, 0, 71, 64
2, 12456, Note_on_c, 0, 71, 0
2, 12456, Note_on_c, 0, 69, 64
2, 12479, Note_on_c, 0, 69, 0
2, 12480, Note_on_c, 0, 67, 64
2, 12525, Note_on_c, 0, 67, 0
2, 12528, Note_on_c, 0, 67, 64
2, 12744, Note_on_c, 0, 67, 0
2, 12744, Note_on_c, 0, 71, 64
2, 12767, Note_on_c, 0, 71, 0
2, 12768, Note_on_c, 0, 72, 64
2, 12888, Note_on_c, 0, 72, 0
2, 12888, Note_on_c, 0, 68, 64
2, 12911, Note_on_c, 0, 68, 0
2, 12912, Note_on_c, 0, 67, 64
2, 12957, Note_on_c, 0, 67, 0
2, 12960, Note_on_c, 0, 65, 64
2, 13032, Note_on_c, 0, 65, 0
2, 13032, Note_on_c, 0, 71, 64
2, 13055, Note_on_c, 0, 71, 0
2, 13056, Note_on_c, 0, 72, 64
2, 13176, Note_on_c, 0, 72, 0
2, 13176, Note_on_c, 0, 65, 64
2, 13199, Note_on_c, 0, 65, 0
2, 13200, Note_on_c, 0, 63, 64
2, 13245, Note_on_c, 0, 63, 0
2, 13248, Note_on_c, 0, 62, 64
2, 13320, Note_on_c, 0, 62, 0
2, 13320, Note_on_c, 0, 65, 64
2, 13343, Note_on_c, 0, 65, 0
2, 13344, Note_on_c, 0, 68, 64
2, 13464, Note_on_c, 0, 68, 0
2, 13464, Note_on_c, 0, 67, 64
2, 13487, Note_on_c, 0, 67, 0
2, 13488, Note_on_c, 0, 75, 64
2, 13533, Note_on_c, 0, 75, 0
2, 13536, Note_on_c, 0, 74, 64
2, 13548, Note_on_c, 0, 74, 0
2, 13548, Note_on_c, 0, 72, 64
2, 13891, Note_on_c, 0, 72, 0
2, 13896, Note_on_c, 0, 74, 64
2, 13908, Note_on_c, 0, 74, 0
2, 13908, Note_on_c, 0, 75, 64
2, 13920, Note_on_c, 0, 75, 0
2, 13920, Note_on_c, 0, 77, 64
2, 13965, Note_on_c, 0, 77, 0
2, 13968, Note_on_c, 0, 77, 64
2, 14035, Note_on_c, 0, 77, 0
2, 14040, Note_on_c, 0, 74, 64
2, 14063, Note_on_c, 0, 74, 0
2, 14064, Note_on_c, 0, 75, 64
2, 14109, Note_on_c, 0, 75, 0
2, 14112, Note_on_c, 0, 68, 64
2, 14179, Note_on_c, 0, 68, 0
2, 14184, Note_on_c, 0, 70, 64
2, 14196, Note_on_c, 0, 70, 0
2, 14196, Note_on_c, 0, 72, 64
2, 14208, Note_on_c, 0, 72, 0
2, 14208, Note_on_c, 0, 73, 64
2, 14253, Note_on_c, 0, 73, 0
2, 14256, Note_on_c, 0, 73, 64
2, 14323, Note_on_c, 0, 73, 0
2, 14328, Note_on_c, 0, 71, 64
2, 14351, Note_on_c, 0, 71, 0
2, 14352, Note_on_c, 0, 72, 64
2, 14397, Note_on_c, 0, 72, 0
2, 14400, Note_on_c, 0, 78, 64
2, 14467, Note_on_c, 0, 78, 0
2, 14472, Note_on_c, 0, 76, 64
2, 14484, Note_on_c, 0, 76, 0
2, 14484, Note_on_c, 0, 78, 64
2, 14496, Note_on_c, 0, 78, 0
2, 14496, Note_on_c, 0, 79, 64
2, 14541, Note_on_c, 0, 79, 0
2, 14544, Note_on_c, 0, 79, 64
2, 14567, Note_on_c, 0, 79, 0
2, 14568, Note_on_c, 0, 80, 64
2, 14591, Note_on_c, 0, 80, 0
2, 14592, Note_on_c, 0, 79, 64
2, 14615, Note_on_c, 0, 79, 0
2, 14616, Note_on_c, 0, 75, 64
2, 14639, Note_on_c, 0, 75, 0
2, 14640, Note_on_c, 0, 77, 64
2, 14663, Note_on_c, 0, 77, 0
2, 14664, Note_on_c, 0, 74, 64
2, 14687, Note_on_c, 0, 74, 0
2, 14688, Note_on_c, 0, 72, 64
2, 14953, Note_on_c, 0, 72, 0
2, 14976, Note_on_c, 0, 74, 64
2, 15048, Note_on_c, 0, 74, 0
2, 15048, Note_on_c, 0, 71, 64
2, 15071, Note_on_c, 0, 71, 0
2, 15072, Note_on_c, 0, 67, 64
2, 15117, Note_on_c, 0, 67, 0
2, 15120, Note_on_c, 0, 77, 64
2, 15154, Note_on_c, 0, 77, 0
2, 15156, Note_on_c, 0, 79, 64
2, 15168, Note_on_c, 0, 79, 0
2, 15168, Note_on_c, 0, 80, 64
2, 15191, Note_on_c, 0, 80, 0
2, 15192, Note_on_c, 0, 79, 64
2, 15215, Note_on_c, 0, 79, 0
2, 15216, Note_on_c, 0, 77, 64
2, 15261, Note_on_c, 0, 77, 0
2, 15264, Note_on_c, 0, 75, 64
2, 15480, Note_on_c, 0, 75, 0
2, 15480, Note_on_c, 0, 79, 64
2, 15503, Note_on_c, 0, 79, 0
2, 15504, Note_on_c, 0, 72, 64
2, 15549, Note_on_c, 0, 72, 0
2, 15552, Note_on_c, 0, 73, 64
2, 15624, Note_on_c, 0, 73, 0
2, 15624, Note_on_c, 0, 70, 64
2, 15647, Note_on_c, 0, 70, 0
2, 15648, Note_on_c, 0, 64, 64
2, 15693, Note_on_c, 0, 64, 0
2, 15696, Note_on_c, 0, 79, 64
2, 15730, Note_on_c, 0, 79, 0
2, 15732, Note_on_c, 0, 80, 64
2, 15744, Note_on_c, 0, 80, 0
2, 15744, Note_on_c, 0, 82, 64
2, 15767, Note_on_c, 0, 82, 0
2, 15768, Note_on_c, 0, 80, 64
2, 15791, Note_on_c, 0, 80, 0
2, 15792, Note_on_c, 0, 79, 64
2, 15837, Note_on_c, 0, 79, 0
2, 15840, Note_on_c, 0, 80, 64
2, 16200, Note_on_c, 0, 80, 0
2, 16200, Note_on_c, 0, 77, 64
2, 16223, Note_on_c, 0, 77, 0
2, 16224, Note_on_c, 0, 78, 64
2, 16344, Note_on_c, 0, 78, 0
2, 16344, Note_on_c, 0, 76, 64
2, 16367, Note_on_c, 0, 76, 0
2, 16368, Note_on_c, 0, 77, 64
2, 16413, Note_on_c, 0, 77, 0
2, 16416, Note_on_c, 0, 82, 64
2, 16450, Note_on_c, 0, 82, 0
2, 16452, Note_on_c, 0, 84, 64
2, 16464, Note_on_c, 0, 84, 0
2, 16464, Note_on_c, 0, 85, 64
2, 16487, Note_on_c, 0, 85, 0
2, 16488, Note_on_c, 0, 84, 64
2, 16511, Note_on_c, 0, 84, 0
2, 16512, Note_on_c, 0, 82, 64
2, 16557, Note_on_c, 0, 82, 0
2, 16560, Note_on_c, 0, 82, 64
2, 16632, Note_on_c, 0, 82, 0
2, 16632, Note_on_c, 0, 78, 64
2, 16655, Note_on_c, 0, 78, 0
2, 16656, Note_on_c, 0, 77, 64
2, 16701, Note_on_c, 0, 77, 0
2, 16704, Note_on_c, 0, 76, 64
2, 16728, Note_on_c, 0, 76, 0
2, 16728, Note_on_c, 0, 79, 64
2, 16751, Note_on_c, 0, 79, 0
2, 16752, Note_on_c, 0, 77, 64
2, 16819, Note_on_c, 0, 77, 0
2, 16824, Note_on_c, 0, 82, 64
2, 16847, Note_on_c, 0, 82, 0
2, 16848, Note_on_c, 0, 80, 64
2, 16871, Note_on_c, 0, 80, 0
2, 16872, Note_on_c, 0, 85, 64
2, 16895, Note_on_c, 0, 85, 0
2, 16896, Note_on_c, 0, 84, 64
2, 16919, Note_on_c, 0, 84, 0
2, 16920, Note_on_c, 0, 80, 64
2, 16943, Note_on_c, 0, 80, 0
2, 16944, Note_on_c, 0, 82, 64
2, 16968, Note_on_c, 0, 82, 0
2, 16968, Note_on_c, 0, 79, 64
2, 16991, Note_on_c, 0, 79, 0
2, 16992, Note_on_c, 0, 77, 64
2, 17257, Note_on_c, 0, 77, 0
2, 17280, Note_on_c, 0, 74, 64
2, 17352, Note_on_c, 0, 74, 0
2, 17352, Note_on_c, 0, 75, 64
2, 17375, Note_on_c, 0, 75, 0
2, 17376, Note_on_c, 0, 77, 64
2, 17496, Note_on_c, 0, 77, 0
2, 17496, Note_on_c, 0, 79, 64
2, 17519, Note_on_c, 0, 79, 0
2, 17520, Note_on_c, 0, 80, 64
2, 17640, Note_on_c, 0, 80, 0
2, 17640, Note_on_c, 0, 82, 64
2, 17663, Note_on_c, 0, 82, 0
2, 17664, Note_on_c, 0, 84, 64
2, 17784, Note_on_c, 0, 84, 0
2, 17784, Note_on_c, 0, 82, 64
2, 17807, Note_on_c, 0, 82, 0
2, 17808, Note_on_c, 0, 80, 64
2, 17853, Note_on_c, 0, 80, 0
2, 17856, Note_on_c, 0, 79, 64
2, 17928, Note_on_c, 0, 79, 0
2, 17928, Note_on_c, 0, 77, 64
2, 17951, Note_on_c, 0, 77, 0
2, 17952, Note_on_c, 0, 75, 64
2, 17997, Note_on_c, 0, 75, 0
2, 18000, Note_on_c, 0, 74, 64
2, 18023, Note_on_c, 0, 74, 0
2, 18024, Note_on_c, 0, 75, 64
2, 18047, Note_on_c, 0, 75, 0
2, 18048, Note_on_c, 0, 77, 64
2, 18071, Note_on_c, 0, 77, 0
2, 18072, Note_on_c, 0, 71, 64
2, 18095, Note_on_c, 0, 71, 0
2, 18096, Note_on_c, 0, 72, 64
2, 18141, Note_on_c, 0, 72, 0
2, 18144, Note_on_c, 0, 71, 64
2, 18216, Note_on_c, 0, 71, 0
2, 18216, Note_on_c, 0, 69, 64
2, 18239, Note_on_c, 0, 69, 0
2, 18240, Note_on_c, 0, 67, 64
2, 18285, Note_on_c, 0, 67, 0
2, 18288, Note_on_c, 0, 67, 64
2, 18504, Note_on_c, 0, 67, 0
2, 18504, Note_on_c, 0, 71, 64
2, 18527, Note_on_c, 0, 71, 0
2, 18528, Note_on_c, 0, 72, 64
2, 18648, Note_on_c, 0, 72, 0
2, 18648, Note_on_c, 0, 68, 64
2, 18671, Note_on_c, 0, 68, 0
2, 18672, Note_on_c, 0, 67, 64
2, 18717, Note_on_c, 0, 67, 0
2, 18720, Note_on_c, 0, 65, 64
2, 18792, Note_on_c, 0, 65, 0
2, 18792, Note_on_c, 0, 71, 64
2, 18815, Note_on_c, 0, 71, 0
2, 18816, Note_on_c, 0, 72, 64
2, 18936, Note_on_c, 0, 72, 0
2, 18936, Note_on_c, 0, 65, 64
2, 18959, Note_on_c, 0, 65, 0
2, 18960, Note_on_c, 0, 63, 64
2, 19005, Note_on_c, 0, 63, 0
2, 19008, Note_on_c, 0, 62, 64
2, 19080, Note_on_c, 0, 62, 0
2, 19080, Note_on_c, 0, 65, 64
2, 19103, Note_on_c, 0, 65, 0
2, 19104, Note_on_c, 0, 68, 64
2, 19224, Note_on_c, 0, 68, 0
2, 19224, Note_on_c, 0, 67, 64
2, 19247, Note_on_c, 0, 67, 0
2, 19248, Note_on_c, 0, 75, 64
2, 19293, Note_on_c, 0, 75, 0
2, 19296, Note_on_c, 0, 74, 64
2, 19308, Note_on_c, 0, 74, 0
2, 19308, Note_on_c, 0, 72, 64
2, 19651, Note_on_c, 0, 72, 0
2, 19656, Note_on_c, 0, 74, 64
2, 19668, Note_on_c, 0, 74, 0
2, 19668, Note_on_c, 0, 75, 64
2, 19680, Note_on_c, 0, 75, 0
2, 19680, Note_on_c, 0, 77, 64
2, 19725, Note_on_c, 0, 77, 0
2, 19728, Note_on_c, 0, 77, 64
2, 19795, Note_on_c, 0, 77, 0
2, 19800, Note_on_c, 0, 74, 64
2, 19823, Note_on_c, 0, 74, 0
2, 19824, Note_on_c, 0, 75, 64
2, 19869, Note_on_c, 0, 75, 0
2, 19872, Note_on_c, 0, 68, 64
2, 19939, Note_on_c, 0, 68, 0
2, 19944, Note_on_c, 0, 70, 64
2, 19956, Note_on_c, 0, 70, 0
2, 19956, Note_on_c, 0, 72, 64
2, 19968, Note_on_c, 0, 72, 0
2, 19968, Note_on_c, 0, 73, 64
2, 20013, Note_on_c, 0, 73, 0
2, 20016, Note_on_c, 0, 73, 64
2, 20083, Note_on_c, 0, 73, 0
2, 20088, Note_on_c, 0, 71, 64
2, 20111, Note_on_c, 0, 71, 0
2, 20112, Note_on_c, 0, 72, 64
2, 20157, Note_on_c, 0, 72, 0
2, 20160, Note_on_c, 0, 78, 64
2, 20227, Note_on_c, 0, 78, 0
2, 20232, Note_on_c, 0, 76, 64
2, 20244, Note_on_c, 0, 76, 0
2, 20244, Note_on_c, 0, 78, 64
2, 20256, Note_on_c, 0, 78, 0
2, 20256, Note_on_c, 0, 79, 64
2, 20301, Note_on_c, 0, 79, 0
2, 20304, Note_on_c, 0, 79, 64
2, 20327, Note_on_c, 0, 79, 0
2, 20328, Note_on_c, 0, 80, 64
2, 20351, Note_on_c, 0, 80, 0
2, 20352, Note_on_c, 0, 79, 64
2, 20375, Note_on_c, 0, 79, 0
2, 20376, Note_on_c, 0, 75, 64
2, 20399, Note_on_c, 0, 75, 0
2, 20400, Note_on_c, 0, 77, 64
2, 20423, Note_on_c, 0, 77, 0
2, 20424, Note_on_c, 0, 74, 64
2, 20447, Note_on_c, 0, 74, 0
2, 20448, Note_on_c, 0, 72, 64
2, 20713, Note_on_c, 0, 72, 0
2, 20713, End_track
3, 0, Start_track
3, 0, MIDI_port, 0
3, 0, Title_t, "Clavier (RH)"
3, 0, Program_c, 1, 6
3, 0, Control_c, 1, 7, 127
3, 0, Note_on_c, 1, 60, 64
3, 23, Note_on_c, 1, 60, 0
3, 24, Note_on_c, 1, 63, 64
3, 47, Note_on_c, 1, 63, 0
3, 48, Note_on_c, 1, 67, 64
3, 71, Note_on_c, 1, 67, 0
3, 72, Note_on_c, 1, 72, 64
3, 95, Note_on_c, 1, 72, 0
3, 96, Note_on_c, 1, 67, 64
3, 119, Note_on_c, 1, 67, 0
3, 120, Note_on_c, 1, 63, 64
3, 143, Note_on_c, 1, 63, 0
3, 144, Note_on_c, 1, 60, 64
3, 167, Note_on_c, 1, 60, 0
3, 168, Note_on_c, 1, 63, 64
3, 191, Note_on_c, 1, 63, 0
3, 192, Note_on_c, 1, 67, 64
3, 215, Note_on_c, 1, 67, 0
3, 216, Note_on_c, 1, 72, 64
3, 239, Note_on_c, 1, 72, 0
3, 240, Note_on_c, 1, 67, 64
3, 263, Note_on_c, 1, 67, 0
3, 264, Note_on_c, 1, 63, 64
3, 287, Note_on_c, 1, 63, 0
3, 288, Note_on_c, 1, 60, 64
3, 311, Note_on_c, 1, 60, 0
3, 312, Note_on_c, 1, 65, 64
3, 335, Note_on_c, 1, 65, 0
3, 336, Note_on_c, 1, 68, 64
3, 359, Note_on_c, 1, 68, 0
3, 360, Note_on_c, 1, 72, 64
3, 383, Note_on_c, 1, 72, 0
3, 384, Note_on_c, 1, 68, 64
3, 407, Note_on_c, 1, 68, 0
3, 408, Note_on_c, 1, 65, 64
3, 431, Note_on_c, 1, 65, 0
3, 432, Note_on_c, 1, 60, 64
3, 455, Note_on_c, 1, 60, 0
3, 456, Note_on_c, 1, 64, 64
3, 479, Note_on_c, 1, 64, 0
3, 480, Note_on_c, 1, 67, 64
3, 503, Note_on_c, 1, 67, 0
3, 504, Note_on_c, 1, 70, 64
3, 527, Note_on_c, 1, 70, 0
3, 528, Note_on_c, 1, 68, 64
3, 551, Note_on_c, 1, 68, 0
3, 552, Note_on_c, 1, 67, 64
3, 575, Note_on_c, 1, 67, 0
3, 576, Note_on_c, 1, 68, 64
3, 599, Note_on_c, 1, 68, 0
3, 600, Note_on_c, 1, 70, 64
3, 623, Note_on_c, 1, 70, 0
3, 624, Note_on_c, 1, 72, 64
3, 647, Note_on_c, 1, 72, 0
3, 648, Note_on_c, 1, 77, 64
3, 671, Note_on_c, 1, 77, 0
3, 672, Note_on_c, 1, 72, 64
3, 695, Note_on_c, 1, 72, 0
3, 696, Note_on_c, 1, 68, 64
3, 719, Note_on_c, 1, 68, 0
3, 720, Note_on_c, 1, 65, 64
3, 743, Note_on_c, 1, 65, 0
3, 744, Note_on_c, 1, 68, 64
3, 767, Note_on_c, 1, 68, 0
3, 768, Note_on_c, 1, 72, 64
3, 791, Note_on_c, 1, 72, 0
3, 792, Note_on_c, 1, 77, 64
3, 815, Note_on_c, 1, 77, 0
3, 816, Note_on_c, 1, 72, 64
3, 839, Note_on_c, 1, 72, 0
3, 840, Note_on_c, 1, 68, 64
3, 863, Note_on_c, 1, 68, 0
3, 864, Note_on_c, 1, 65, 64
3, 887, Note_on_c, 1, 65, 0
3, 888, Note_on_c, 1, 71, 64
3, 911, Note_on_c, 1, 71, 0
3, 912, Note_on_c, 1, 74, 64
3, 935, Note_on_c, 1, 74, 0
3, 936, Note_on_c, 1, 77, 64
3, 959, Note_on_c, 1, 77, 0
3, 960, Note_on_c, 1, 74, 64
3, 983, Note_on_c, 1, 74, 0
3, 984, Note_on_c, 1, 71, 64
3, 1007, Note_on_c, 1, 71, 0
3, 1008, Note_on_c, 1, 65, 64
3, 1031, Note_on_c, 1, 65, 0
3, 1032, Note_on_c, 1, 68, 64
3, 1055, Note_on_c, 1, 68, 0
3, 1056, Note_on_c, 1, 72, 64
3, 1079, Note_on_c, 1, 72, 0
3, 1080, Note_on_c, 1, 77, 64
3, 1103, Note_on_c, 1, 77, 0
3, 1104, Note_on_c, 1, 72, 64
3, 1127, Note_on_c, 1, 72, 0
3, 1128, Note_on_c, 1, 68, 64
3, 1151, Note_on_c, 1, 68, 0
3, 1152, Note_on_c, 1, 67, 64
3, 1175, Note_on_c, 1, 67, 0
3, 1176, Note_on_c, 1, 71, 64
3, 1199, Note_on_c, 1, 71, 0
3, 1200, Note_on_c, 1, 74, 64
3, 1223, Note_on_c, 1, 74, 0
3, 1224, Note_on_c, 1, 77, 64
3, 1247, Note_on_c, 1, 77, 0
3, 1248, Note_on_c, 1, 74, 64
3, 1271, Note_on_c, 1, 74, 0
3, 1272, Note_on_c, 1, 72, 64
3, 1295, Note_on_c, 1, 72, 0
3, 1296, Note_on_c, 1, 71, 64
3, 1319, Note_on_c, 1, 71, 0
3, 1320, Note_on_c, 1, 74, 64
3, 1343, Note_on_c, 1, 74, 0
3, 1344, Note_on_c, 1, 77, 64
3, 1367, Note_on_c, 1, 77, 0
3, 1368, Note_on_c, 1, 80, 64
3, 1391, Note_on_c, 1, 80, 0
3, 1392, Note_on_c, 1, 72, 64
3, 1415, Note_on_c, 1, 72, 0
3, 1416, Note_on_c, 1, 71, 64
3, 1439, Note_on_c, 1, 71, 0
3, 1440, Note_on_c, 1, 72, 64
3, 1463, Note_on_c, 1, 72, 0
3, 1464, Note_on_c, 1, 75, 64
3, 1487, Note_on_c, 1, 75, 0
3, 1488, Note_on_c, 1, 79, 64
3, 1511, Note_on_c, 1, 79, 0
3, 1512, Note_on_c, 1, 84, 64
3, 1535, Note_on_c, 1, 84, 0
3, 1536, Note_on_c, 1, 79, 64
3, 1559, Note_on_c, 1, 79, 0
3, 1560, Note_on_c, 1, 75, 64
3, 1583, Note_on_c, 1, 75, 0
3, 1584, Note_on_c, 1, 72, 64
3, 1607, Note_on_c, 1, 72, 0
3, 1608, Note_on_c, 1, 75, 64
3, 1631, Note_on_c, 1, 75, 0
3, 1632, Note_on_c, 1, 79, 64
3, 1655, Note_on_c, 1, 79, 0
3, 1656, Note_on_c, 1, 84, 64
3, 1679, Note_on_c, 1, 84, 0
3, 1680, Note_on_c, 1, 79, 64
3, 1703, Note_on_c, 1, 79, 0
3, 1704, Note_on_c, 1, 75, 64
3, 1727, Note_on_c, 1, 75, 0
3, 1728, Note_on_c, 1, 72, 64
3, 1751, Note_on_c, 1, 72, 0
3, 1752, Note_on_c, 1, 77, 64
3, 1775, Note_on_c, 1, 77, 0
3, 1776, Note_on_c, 1, 80, 64
3, 1799, Note_on_c, 1, 80, 0
3, 1800, Note_on_c, 1, 84, 64
3, 1823, Note_on_c, 1, 84, 0
3, 1824, Note_on_c, 1, 80, 64
3, 1847, Note_on_c, 1, 80, 0
3, 1848, Note_on_c, 1, 77, 64
3, 1871, Note_on_c, 1, 77, 0
3, 1872, Note_on_c, 1, 74, 64
3, 1895, Note_on_c, 1, 74, 0
3, 1896, Note_on_c, 1, 77, 64
3, 1919, Note_on_c, 1, 77, 0
3, 1920, Note_on_c, 1, 79, 64
3, 1943, Note_on_c, 1, 79, 0
3, 1944, Note_on_c, 1, 82, 64
3, 1967, Note_on_c, 1, 82, 0
3, 1968, Note_on_c, 1, 79, 64
3, 1991, Note_on_c, 1, 79, 0
3, 1992, Note_on_c, 1, 75, 64
3, 2015, Note_on_c, 1, 75, 0
3, 2016, Note_on_c, 1, 72, 64
3, 2039, Note_on_c, 1, 72, 0
3, 2040, Note_on_c, 1, 75, 64
3, 2063, Note_on_c, 1, 75, 0
3, 2064, Note_on_c, 1, 77, 64
3, 2087, Note_on_c, 1, 77, 0
3, 2088, Note_on_c, 1, 80, 64
3, 2111, Note_on_c, 1, 80, 0
3, 2112, Note_on_c, 1, 79, 64
3, 2135, Note_on_c, 1, 79, 0
3, 2136, Note_on_c, 1, 77, 64
3, 2159, Note_on_c, 1, 77, 0
3, 2160, Note_on_c, 1, 72, 64
3, 2183, Note_on_c, 1, 72, 0
3, 2184, Note_on_c, 1, 75, 64
3, 2207, Note_on_c, 1, 75, 0
3, 2208, Note_on_c, 1, 77, 64
3, 2231, Note_on_c, 1, 77, 0
3, 2232, Note_on_c, 1, 80, 64
3, 2255, Note_on_c, 1, 80, 0
3, 2256, Note_on_c, 1, 79, 64
3, 2279, Note_on_c, 1, 79, 0
3, 2280, Note_on_c, 1, 77, 64
3, 2303, Note_on_c, 1, 77, 0
3, 2304, Note_on_c, 1, 70, 64
3, 2327, Note_on_c, 1, 70, 0
3, 2328, Note_on_c, 1, 72, 64
3, 2351, Note_on_c, 1, 72, 0
3, 2352, Note_on_c, 1, 74, 64
3, 2375, Note_on_c, 1, 74, 0
3, 2376, Note_on_c, 1, 77, 64
3, 2399, Note_on_c, 1, 77, 0
3, 2400, Note_on_c, 1, 75, 64
3, 2423, Note_on_c, 1, 75, 0
3, 2424, Note_on_c, 1, 74, 64
3, 2447, Note_on_c, 1, 74, 0
3, 2448, Note_on_c, 1, 80, 64
3, 2471, Note_on_c, 1, 80, 0
3, 2472, Note_on_c, 1, 79, 64
3, 2495, Note_on_c, 1, 79, 0
3, 2496, Note_on_c, 1, 77, 64
3, 2519, Note_on_c, 1, 77, 0
3, 2520, Note_on_c, 1, 75, 64
3, 2543, Note_on_c, 1, 75, 0
3, 2544, Note_on_c, 1, 74, 64
3, 2567, Note_on_c, 1, 74, 0
3, 2568, Note_on_c, 1, 72, 64
3, 2591, Note_on_c, 1, 72, 0
3, 2592, Note_on_c, 1, 70, 64
3, 2615, Note_on_c, 1, 70, 0
3, 2616, Note_on_c, 1, 74, 64
3, 2639, Note_on_c, 1, 74, 0
3, 2640, Note_on_c, 1, 77, 64
3, 2663, Note_on_c, 1, 77, 0
3, 2664, Note_on_c, 1, 82, 64
3, 2687, Note_on_c, 1, 82, 0
3, 2688, Note_on_c, 1, 77, 64
3, 2711, Note_on_c, 1, 77, 0
3, 2712, Note_on_c, 1, 74, 64
3, 2735, Note_on_c, 1, 74, 0
3, 2736, Note_on_c, 1, 75, 64
3, 2759, Note_on_c, 1, 75, 0
3, 2760, Note_on_c, 1, 78, 64
3, 2783, Note_on_c, 1, 78, 0
3, 2784, Note_on_c, 1, 81, 64
3, 2807, Note_on_c, 1, 81, 0
3, 2808, Note_on_c, 1, 84, 64
3, 2831, Note_on_c, 1, 84, 0
3, 2832, Note_on_c, 1, 82, 64
3, 2855, Note_on_c, 1, 82, 0
3, 2856, Note_on_c, 1, 81, 64
3, 2879, Note_on_c, 1, 81, 0
3, 2880, Note_on_c, 1, 75, 64
3, 2903, Note_on_c, 1, 75, 0
3, 2904, Note_on_c, 1, 77, 64
3, 2927, Note_on_c, 1, 77, 0
3, 2928, Note_on_c, 1, 78, 64
3, 2951, Note_on_c, 1, 78, 0
3, 2952, Note_on_c, 1, 82, 64
3, 2975, Note_on_c, 1, 82, 0
3, 2976, Note_on_c, 1, 74, 64
3, 2999, Note_on_c, 1, 74, 0
3, 3000, Note_on_c, 1, 72, 64
3, 3023, Note_on_c, 1, 72, 0
3, 3024, Note_on_c, 1, 74, 64
3, 3047, Note_on_c, 1, 74, 0
3, 3048, Note_on_c, 1, 77, 64
3, 3071, Note_on_c, 1, 77, 0
3, 3072, Note_on_c, 1, 74, 64
3, 3095, Note_on_c, 1, 74, 0
3, 3096, Note_on_c, 1, 70, 64
3, 3119, Note_on_c, 1, 70, 0
3, 3120, Note_on_c, 1, 65, 64
3, 3143, Note_on_c, 1, 65, 0
3, 3144, Note_on_c, 1, 68, 64
3, 3167, Note_on_c, 1, 68, 0
3, 3168, Note_on_c, 1, 67, 64
3, 3191, Note_on_c, 1, 67, 0
3, 3192, Note_on_c, 1, 70, 64
3, 3215, Note_on_c, 1, 70, 0
3, 3216, Note_on_c, 1, 75, 64
3, 3239, Note_on_c, 1, 75, 0
3, 3240, Note_on_c, 1, 79, 64
3, 3263, Note_on_c, 1, 79, 0
3, 3264, Note_on_c, 1, 75, 64
3, 3287, Note_on_c, 1, 75, 0
3, 3288, Note_on_c, 1, 70, 64
3, 3311, Note_on_c, 1, 70, 0
3, 3312, Note_on_c, 1, 67, 64
3, 3335, Note_on_c, 1, 67, 0
3, 3336, Note_on_c, 1, 71, 64
3, 3359, Note_on_c, 1, 71, 0
3, 3360, Note_on_c, 1, 74, 64
3, 3383, Note_on_c, 1, 74, 0
3, 3384, Note_on_c, 1, 77, 64
3, 3407, Note_on_c, 1, 77, 0
3, 3408, Note_on_c, 1, 74, 64
3, 3431, Note_on_c, 1, 74, 0
3, 3432, Note_on_c, 1, 71, 64
3, 3455, Note_on_c, 1, 71, 0
3, 3456, Note_on_c, 1, 67, 64
3, 3479, Note_on_c, 1, 67, 0
3, 3480, Note_on_c, 1, 71, 64
3, 3503, Note_on_c, 1, 71, 0
3, 3504, Note_on_c, 1, 72, 64
3, 3527, Note_on_c, 1, 72, 0
3, 3528, Note_on_c, 1, 75, 64
3, 3551, Note_on_c, 1, 75, 0
3, 3552, Note_on_c, 1, 74, 64
3, 3575, Note_on_c, 1, 74, 0
3, 3576, Note_on_c, 1, 72, 64
3, 3599, Note_on_c, 1, 72, 0
3, 3600, Note_on_c, 1, 74, 64
3, 3623, Note_on_c, 1, 74, 0
3, 3624, Note_on_c, 1, 78, 64
3, 3647, Note_on_c, 1, 78, 0
3, 3648, Note_on_c, 1, 79, 64
3, 3671, Note_on_c, 1, 79, 0
3, 3672, Note_on_c, 1, 81, 64
3, 3695, Note_on_c, 1, 81, 0
3, 3696, Note_on_c, 1, 82, 64
3, 3719, Note_on_c, 1, 82, 0
3, 3720, Note_on_c, 1, 79, 64
3, 3743, Note_on_c, 1, 79, 0
3, 3744, Note_on_c, 1, 78, 64
3, 3767, Note_on_c, 1, 78, 0
3, 3768, Note_on_c, 1, 79, 64
3, 3791, Note_on_c, 1, 79, 0
3, 3792, Note_on_c, 1, 81, 64
3, 3815, Note_on_c, 1, 81, 0
3, 3816, Note_on_c, 1, 75, 64
3, 3839, Note_on_c, 1, 75, 0
3, 3840, Note_on_c, 1, 74, 64
3, 3863, Note_on_c, 1, 74, 0
3, 3864, Note_on_c, 1, 72, 64
3, 3887, Note_on_c, 1, 72, 0
3, 3888, Note_on_c, 1, 70, 64
3, 3911, Note_on_c, 1, 70, 0
3, 3912, Note_on_c, 1, 72, 64
3, 3935, Note_on_c, 1, 72, 0
3, 3936, Note_on_c, 1, 74, 64
3, 3959, Note_on_c, 1, 74, 0
3, 3960, Note_on_c, 1, 81, 64
3, 3983, Note_on_c, 1, 81, 0
3, 3984, Note_on_c, 1, 78, 64
3, 4007, Note_on_c, 1, 78, 0
3, 4008, Note_on_c, 1, 79, 64
3, 4031, Note_on_c, 1, 79, 0
3, 4032, Note_on_c, 1, 72, 64
3, 4055, Note_on_c, 1, 72, 0
3, 4056, Note_on_c, 1, 75, 64
3, 4079, Note_on_c, 1, 75, 0
3, 4080, Note_on_c, 1, 78, 64
3, 4103, Note_on_c, 1, 78, 0
3, 4104, Note_on_c, 1, 81, 64
3, 4127, Note_on_c, 1, 81, 0
3, 4128, Note_on_c, 1, 78, 64
3, 4151, Note_on_c, 1, 78, 0
3, 4152, Note_on_c, 1, 75, 64
3, 4175, Note_on_c, 1, 75, 0
3, 4176, Note_on_c, 1, 72, 64
3, 4199, Note_on_c, 1, 72, 0
3, 4200, Note_on_c, 1, 75, 64
3, 4223, Note_on_c, 1, 75, 0
3, 4224, Note_on_c, 1, 72, 64
3, 4247, Note_on_c, 1, 72, 0
3, 4248, Note_on_c, 1, 69, 64
3, 4271, Note_on_c, 1, 69, 0
3, 4272, Note_on_c, 1, 72, 64
3, 4295, Note_on_c, 1, 72, 0
3, 4296, Note_on_c, 1, 78, 64
3, 4319, Note_on_c, 1, 78, 0
3, 4320, Note_on_c, 1, 79, 64
3, 4343, Note_on_c, 1, 79, 0
3, 4344, Note_on_c, 1, 74, 64
3, 4367, Note_on_c, 1, 74, 0
3, 4368, Note_on_c, 1, 71, 64
3, 4391, Note_on_c, 1, 71, 0
3, 4392, Note_on_c, 1, 67, 64
3, 4415, Note_on_c, 1, 67, 0
3, 4416, Note_on_c, 1, 71, 64
3, 4439, Note_on_c, 1, 71, 0
3, 4440, Note_on_c, 1, 74, 64
3, 4463, Note_on_c, 1, 74, 0
3, 4464, Note_on_c, 1, 79, 64
3, 4597, Note_on_c, 1, 79, 0
3, 4608, Note_on_c, 1, 60, 64
3, 4631, Note_on_c, 1, 60, 0
3, 4632, Note_on_c, 1, 63, 64
3, 4655, Note_on_c, 1, 63, 0
3, 4656, Note_on_c, 1, 67, 64
3, 4679, Note_on_c, 1, 67, 0
3, 4680, Note_on_c, 1, 72, 64
3, 4703, Note_on_c, 1, 72, 0
3, 4704, Note_on_c, 1, 67, 64
3, 4727, Note_on_c, 1, 67, 0
3, 4728, Note_on_c, 1, 63, 64
3, 4751, Note_on_c, 1, 63, 0
3, 4752, Note_on_c, 1, 60, 64
3, 4775, Note_on_c, 1, 60, 0
3, 4776, Note_on_c, 1, 63, 64
3, 4799, Note_on_c, 1, 63, 0
3, 4800, Note_on_c, 1, 67, 64
3, 4823, Note_on_c, 1, 67, 0
3, 4824, Note_on_c, 1, 72, 64
3, 4847, Note_on_c, 1, 72, 0
3, 4848, Note_on_c, 1, 67, 64
3, 4871, Note_on_c, 1, 67, 0
3, 4872, Note_on_c, 1, 63, 64
3, 4895, Note_on_c, 1, 63, 0
3, 4896, Note_on_c, 1, 60, 64
3, 4919, Note_on_c, 1, 60, 0
3, 4920, Note_on_c, 1, 65, 64
3, 4943, Note_on_c, 1, 65, 0
3, 4944, Note_on_c, 1, 68, 64
3, 4967, Note_on_c, 1, 68, 0
3, 4968, Note_on_c, 1, 72, 64
3, 4991, Note_on_c, 1, 72, 0
3, 4992, Note_on_c, 1, 68, 64
3, 5015, Note_on_c, 1, 68, 0
3, 5016, Note_on_c, 1, 65, 64
3, 5039, Note_on_c, 1, 65, 0
3, 5040, Note_on_c, 1, 60, 64
3, 5063, Note_on_c, 1, 60, 0
3, 5064, Note_on_c, 1, 64, 64
3, 5087, Note_on_c, 1, 64, 0
3, 5088, Note_on_c, 1, 67, 64
3, 5111, Note_on_c, 1, 67, 0
3, 5112, Note_on_c, 1, 70, 64
3, 5135, Note_on_c, 1, 70, 0
3, 5136, Note_on_c, 1, 68, 64
3, 5159, Note_on_c, 1, 68, 0
3, 5160, Note_on_c, 1, 67, 64
3, 5183, Note_on_c, 1, 67, 0
3, 5184, Note_on_c, 1, 68, 64
3, 5207, Note_on_c, 1, 68, 0
3, 5208, Note_on_c, 1, 70, 64
3, 5231, Note_on_c, 1, 70, 0
3, 5232, Note_on_c, 1, 72, 64
3, 5255, Note_on_c, 1, 72, 0
3, 5256, Note_on_c, 1, 77, 64
3, 5279, Note_on_c, 1, 77, 0
3, 5280, Note_on_c, 1, 72, 64
3, 5303, Note_on_c, 1, 72, 0
3, 5304, Note_on_c, 1, 68, 64
3, 5327, Note_on_c, 1, 68, 0
3, 5328, Note_on_c, 1, 65, 64
3, 5351, Note_on_c, 1, 65, 0
3, 5352, Note_on_c, 1, 68, 64
3, 5375, Note_on_c, 1, 68, 0
3, 5376, Note_on_c, 1, 72, 64
3, 5399, Note_on_c, 1, 72, 0
3, 5400, Note_on_c, 1, 77, 64
3, 5423, Note_on_c, 1, 77, 0
3, 5424, Note_on_c, 1, 72, 64
3, 5447, Note_on_c, 1, 72, 0
3, 5448, Note_on_c, 1, 68, 64
3, 5471, Note_on_c, 1, 68, 0
3, 5472, Note_on_c, 1, 65, 64
3, 5495, Note_on_c, 1, 65, 0
3, 5496, Note_on_c, 1, 71, 64
3, 5519, Note_on_c, 1, 71, 0
3, 5520, Note_on_c, 1, 74, 64
3, 5543, Note_on_c, 1, 74, 0
3, 5544, Note_on_c, 1, 77, 64
3, 5567, Note_on_c, 1, 77, 0
3, 5568, Note_on_c, 1, 74, 64
3, 5591, Note_on_c, 1, 74, 0
3, 5592, Note_on_c, 1, 71, 64
3, 5615, Note_on_c, 1, 71, 0
3, 5616, Note_on_c, 1, 65, 64
3, 5639, Note_on_c, 1, 65, 0
3, 5640, Note_on_c, 1, 68, 64
3, 5663, Note_on_c, 1, 68, 0
3, 5664, Note_on_c, 1, 72, 64
3, 5687, Note_on_c, 1, 72, 0
3, 5688, Note_on_c, 1, 77, 64
3, 5711, Note_on_c, 1, 77, 0
3, 5712, Note_on_c, 1, 72, 64
3, 5735, Note_on_c, 1, 72, 0
3, 5736, Note_on_c, 1, 68, 64
3, 5759, Note_on_c, 1, 68, 0
3, 5760, Note_on_c, 1, 67, 64
3, 5783, Note_on_c, 1, 67, 0
3, 5784, Note_on_c, 1, 71, 64
3, 5807, Note_on_c, 1, 71, 0
3, 5808, Note_on_c, 1, 74, 64
3, 5831, Note_on_c, 1, 74, 0
3, 5832, Note_on_c, 1, 77, 64
3, 5855, Note_on_c, 1, 77, 0
3, 5856, Note_on_c, 1, 74, 64
3, 5879, Note_on_c, 1, 74, 0
3, 5880, Note_on_c, 1, 72, 64
3, 5903, Note_on_c, 1, 72, 0
3, 5904, Note_on_c, 1, 71, 64
3, 5927, Note_on_c, 1, 71, 0
3, 5928, Note_on_c, 1, 74, 64
3, 5951, Note_on_c, 1, 74, 0
3, 5952, Note_on_c, 1, 77, 64
3, 5975, Note_on_c, 1, 77, 0
3, 5976, Note_on_c, 1, 80, 64
3, 5999, Note_on_c, 1, 80, 0
3, 6000, Note_on_c, 1, 72, 64
3, 6023, Note_on_c, 1, 72, 0
3, 6024, Note_on_c, 1, 71, 64
3, 6047, Note_on_c, 1, 71, 0
3, 6048, Note_on_c, 1, 72, 64
3, 6071, Note_on_c, 1, 72, 0
3, 6072, Note_on_c, 1, 75, 64
3, 6095, Note_on_c, 1, 75, 0
3, 6096, Note_on_c, 1, 79, 64
3, 6119, Note_on_c, 1, 79, 0
3, 6120, Note_on_c, 1, 84, 64
3, 6143, Note_on_c, 1, 84, 0
3, 6144, Note_on_c, 1, 79, 64
3, 6167, Note_on_c, 1, 79, 0
3, 6168, Note_on_c, 1, 75, 64
3, 6191, Note_on_c, 1, 75, 0
3, 6192, Note_on_c, 1, 72, 64
3, 6215, Note_on_c, 1, 72, 0
3, 6216, Note_on_c, 1, 75, 64
3, 6239, Note_on_c, 1, 75, 0
3, 6240, Note_on_c, 1, 79, 64
3, 6263, Note_on_c, 1, 79, 0
3, 6264, Note_on_c, 1, 84, 64
3, 6287, Note_on_c, 1, 84, 0
3, 6288, Note_on_c, 1, 79, 64
3, 6311, Note_on_c, 1, 79, 0
3, 6312, Note_on_c, 1, 75, 64
3, 6335, Note_on_c, 1, 75, 0
3, 6336, Note_on_c, 1, 72, 64
3, 6359, Note_on_c, 1, 72, 0
3, 6360, Note_on_c, 1, 77, 64
3, 6383, Note_on_c, 1, 77, 0
3, 6384, Note_on_c, 1, 80, 64
3, 6407, Note_on_c, 1, 80, 0
3, 6408, Note_on_c, 1, 84, 64
3, 6431, Note_on_c, 1, 84, 0
3, 6432, Note_on_c, 1, 80, 64
3, 6455, Note_on_c, 1, 80, 0
3, 6456, Note_on_c, 1, 77, 64
3, 6479, Note_on_c, 1, 77, 0
3, 6480, Note_on_c, 1, 74, 64
3, 6503, Note_on_c, 1, 74, 0
3, 6504, Note_on_c, 1, 77, 64
3, 6527, Note_on_c, 1, 77, 0
3, 6528, Note_on_c, 1, 79, 64
3, 6551, Note_on_c, 1, 79, 0
3, 6552, Note_on_c, 1, 82, 64
3, 6575, Note_on_c, 1, 82, 0
3, 6576, Note_on_c, 1, 79, 64
3, 6599, Note_on_c, 1, 79, 0
3, 6600, Note_on_c, 1, 75, 64
3, 6623, Note_on_c, 1, 75, 0
3, 6624, Note_on_c, 1, 72, 64
3, 6647, Note_on_c, 1, 72, 0
3, 6648, Note_on_c, 1, 75, 64
3, 6671, Note_on_c, 1, 75, 0
3, 6672, Note_on_c, 1, 77, 64
3, 6695, Note_on_c, 1, 77, 0
3, 6696, Note_on_c, 1, 80, 64
3, 6719, Note_on_c, 1, 80, 0
3, 6720, Note_on_c, 1, 79, 64
3, 6743, Note_on_c, 1, 79, 0
3, 6744, Note_on_c, 1, 77, 64
3, 6767, Note_on_c, 1, 77, 0
3, 6768, Note_on_c, 1, 72, 64
3, 6791, Note_on_c, 1, 72, 0
3, 6792, Note_on_c, 1, 75, 64
3, 6815, Note_on_c, 1, 75, 0
3, 6816, Note_on_c, 1, 77, 64
3, 6839, Note_on_c, 1, 77, 0
3, 6840, Note_on_c, 1, 80, 64
3, 6863, Note_on_c, 1, 80, 0
3, 6864, Note_on_c, 1, 79, 64
3, 6887, Note_on_c, 1, 79, 0
3, 6888, Note_on_c, 1, 77, 64
3, 6911, Note_on_c, 1, 77, 0
3, 6912, Note_on_c, 1, 70, 64
3, 6935, Note_on_c, 1, 70, 0
3, 6936, Note_on_c, 1, 72, 64
3, 6959, Note_on_c, 1, 72, 0
3, 6960, Note_on_c, 1, 74, 64
3, 6983, Note_on_c, 1, 74, 0
3, 6984, Note_on_c, 1, 77, 64
3, 7007, Note_on_c, 1, 77, 0
3, 7008, Note_on_c, 1, 75, 64
3, 7031, Note_on_c, 1, 75, 0
3, 7032, Note_on_c, 1, 74, 64
3, 7055, Note_on_c, 1, 74, 0
3, 7056, Note_on_c, 1, 80, 64
3, 7079, Note_on_c, 1, 80, 0
3, 7080, Note_on_c, 1, 79, 64
3, 7103, Note_on_c, 1, 79, 0
3, 7104, Note_on_c, 1, 77, 64
3, 7127, Note_on_c, 1, 77, 0
3, 7128, Note_on_c, 1, 75, 64
3, 7151, Note_on_c, 1, 75, 0
3, 7152, Note_on_c, 1, 74, 64
3, 7175, Note_on_c, 1, 74, 0
3, 7176, Note_on_c, 1, 72, 64
3, 7199, Note_on_c, 1, 72, 0
3, 7200, Note_on_c, 1, 70, 64
3, 7223, Note_on_c, 1, 70, 0
3, 7224, Note_on_c, 1, 74, 64
3, 7247, Note_on_c, 1, 74, 0
3, 7248, Note_on_c, 1, 77, 64
3, 7271, Note_on_c, 1, 77, 0
3, 7272, Note_on_c, 1, 82, 64
3, 7295, Note_on_c, 1, 82, 0
3, 7296, Note_on_c, 1, 77, 64
3, 7319, Note_on_c, 1, 77, 0
3, 7320, Note_on_c, 1, 74, 64
3, 7343, Note_on_c, 1, 74, 0
3, 7344, Note_on_c, 1, 75, 64
3, 7367, Note_on_c, 1, 75, 0
3, 7368, Note_on_c, 1, 78, 64
3, 7391, Note_on_c, 1, 78, 0
3, 7392, Note_on_c, 1, 81, 64
3, 7415, Note_on_c, 1, 81, 0
3, 7416, Note_on_c, 1, 84, 64
3, 7439, Note_on_c, 1, 84, 0
3, 7440, Note_on_c, 1, 82, 64
3, 7463, Note_on_c, 1, 82, 0
3, 7464, Note_on_c, 1, 81, 64
3, 7487, Note_on_c, 1, 81, 0
3, 7488, Note_on_c, 1, 75, 64
3, 7511, Note_on_c, 1, 75, 0
3, 7512, Note_on_c, 1, 77, 64
3, 7535, Note_on_c, 1, 77, 0
3, 7536, Note_on_c, 1, 78, 64
3, 7559, Note_on_c, 1, 78, 0
3, 7560, Note_on_c, 1, 82, 64
3, 7583, Note_on_c, 1, 82, 0
3, 7584, Note_on_c, 1, 74, 64
3, 7607, Note_on_c, 1, 74, 0
3, 7608, Note_on_c, 1, 72, 64
3, 7631, Note_on_c, 1, 72, 0
3, 7632, Note_on_c, 1, 74, 64
3, 7655, Note_on_c, 1, 74, 0
3, 7656, Note_on_c, 1, 77, 64
3, 7679, Note_on_c, 1, 77, 0
3, 7680, Note_on_c, 1, 74, 64
3, 7703, Note_on_c, 1, 74, 0
3, 7704, Note_on_c, 1, 70, 64
3, 7727, Note_on_c, 1, 70, 0
3, 7728, Note_on_c, 1, 65, 64
3, 7751, Note_on_c, 1, 65, 0
3, 7752, Note_on_c, 1, 68, 64
3, 7775, Note_on_c, 1, 68, 0
3, 7776, Note_on_c, 1, 67, 64
3, 7799, Note_on_c, 1, 67, 0
3, 7800, Note_on_c, 1, 70, 64
3, 7823, Note_on_c, 1, 70, 0
3, 7824, Note_on_c, 1, 75, 64
3, 7847, Note_on_c, 1, 75, 0
3, 7848, Note_on_c, 1, 79, 64
3, 7871, Note_on_c, 1, 79, 0
3, 7872, Note_on_c, 1, 75, 64
3, 7895, Note_on_c, 1, 75, 0
3, 7896, Note_on_c, 1, 70, 64
3, 7919, Note_on_c, 1, 70, 0
3, 7920, Note_on_c, 1, 67, 64
3, 7943, Note_on_c, 1, 67, 0
3, 7944, Note_on_c, 1, 71, 64
3, 7967, Note_on_c, 1, 71, 0
3, 7968, Note_on_c, 1, 74, 64
3, 7991, Note_on_c, 1, 74, 0
3, 7992, Note_on_c, 1, 77, 64
3, 8015, Note_on_c, 1, 77, 0
3, 8016, Note_on_c, 1, 74, 64
3, 8039, Note_on_c, 1, 74, 0
3, 8040, Note_on_c, 1, 71, 64
3, 8063, Note_on_c, 1, 71, 0
3, 8064, Note_on_c, 1, 67, 64
3, 8087, Note_on_c, 1, 67, 0
3, 8088, Note_on_c, 1, 71, 64
3, 8111, Note_on_c, 1, 71, 0
3, 8112, Note_on_c, 1, 72, 64
3, 8135, Note_on_c, 1, 72, 0
3, 8136, Note_on_c, 1, 75, 64
3, 8159, Note_on_c, 1, 75, 0
3, 8160, Note_on_c, 1, 74, 64
3, 8183, Note_on_c, 1, 74, 0
3, 8184, Note_on_c, 1, 72, 64
3, 8207, Note_on_c, 1, 72, 0
3, 8208, Note_on_c, 1, 74, 64
3, 8231, Note_on_c, 1, 74, 0
3, 8232, Note_on_c, 1, 78, 64
3, 8255, Note_on_c, 1, 78, 0
3, 8256, Note_on_c, 1, 79, 64
3, 8279, Note_on_c, 1, 79, 0
3, 8280, Note_on_c, 1, 81, 64
3, 8303, Note_on_c, 1, 81, 0
3, 8304, Note_on_c, 1, 82, 64
3, 8327, Note_on_c, 1, 82, 0
3, 8328, Note_on_c, 1, 79, 64
3, 8351, Note_on_c, 1, 79, 0
3, 8352, Note_on_c, 1, 78, 64
3, 8375, Note_on_c, 1, 78, 0
3, 8376, Note_on_c, 1, 79, 64
3, 8399, Note_on_c, 1, 79, 0
3, 8400, Note_on_c, 1, 81, 64
3, 8423, Note_on_c, 1, 81, 0
3, 8424, Note_on_c, 1, 75, 64
3, 8447, Note_on_c, 1, 75, 0
3, 8448, Note_on_c, 1, 74, 64
3, 8471, Note_on_c, 1, 74, 0
3, 8472, Note_on_c, 1, 72, 64
3, 8495, Note_on_c, 1, 72, 0
3, 8496, Note_on_c, 1, 70, 64
3, 8519, Note_on_c, 1, 70, 0
3, 8520, Note_on_c, 1, 72, 64
3, 8543, Note_on_c, 1, 72, 0
3, 8544, Note_on_c, 1, 74, 64
3, 8567, Note_on_c, 1, 74, 0
3, 8568, Note_on_c, 1, 81, 64
3, 8591, Note_on_c, 1, 81, 0
3, 8592, Note_on_c, 1, 78, 64
3, 8615, Note_on_c, 1, 78, 0
3, 8616, Note_on_c, 1, 79, 64
3, 8639, Note_on_c, 1, 79, 0
3, 8640, Note_on_c, 1, 72, 64
3, 8663, Note_on_c, 1, 72, 0
3, 8664, Note_on_c, 1, 75, 64
3, 8687, Note_on_c, 1, 75, 0
3, 8688, Note_on_c, 1, 78, 64
3, 8711, Note_on_c, 1, 78, 0
3, 8712, Note_on_c, 1, 81, 64
3, 8735, Note_on_c, 1, 81, 0
3, 8736, Note_on_c, 1, 78, 64
3, 8759, Note_on_c, 1, 78, 0
3, 8760, Note_on_c, 1, 75, 64
3, 8783, Note_on_c, 1, 75, 0
3, 8784, Note_on_c, 1, 72, 64
3, 8807, Note_on_c, 1, 72, 0
3, 8808, Note_on_c, 1, 75, 64
3, 8831, Note_on_c, 1, 75, 0
3, 8832, Note_on_c, 1, 72, 64
3, 8855, Note_on_c, 1, 72, 0
3, 8856, Note_on_c, 1, 69, 64
3, 8879, Note_on_c, 1, 69, 0
3, 8880, Note_on_c, 1, 72, 64
3, 8903, Note_on_c, 1, 72, 0
3, 8904, Note_on_c, 1, 78, 64
3, 8927, Note_on_c, 1, 78, 0
3, 8928, Note_on_c, 1, 79, 64
3, 8951, Note_on_c, 1, 79, 0
3, 8952, Note_on_c, 1, 74, 64
3, 8975, Note_on_c, 1, 74, 0
3, 8976, Note_on_c, 1, 71, 64
3, 8999, Note_on_c, 1, 71, 0
3, 9000, Note_on_c, 1, 67, 64
3, 9023, Note_on_c, 1, 67, 0
3, 9024, Note_on_c, 1, 71, 64
3, 9047, Note_on_c, 1, 71, 0
3, 9048, Note_on_c, 1, 74, 64
3, 9071, Note_on_c, 1, 74, 0
3, 9072, Note_on_c, 1, 79, 64
3, 9205, Note_on_c, 1, 79, 0
3, 9216, Note_on_c, 1, 67, 64
3, 9239, Note_on_c, 1, 67, 0
3, 9240, Note_on_c, 1, 71, 64
3, 9263, Note_on_c, 1, 71, 0
3, 9264, Note_on_c, 1, 74, 64
3, 9287, Note_on_c, 1, 74, 0
3, 9288, Note_on_c, 1, 79, 64
3, 9311, Note_on_c, 1, 79, 0
3, 9312, Note_on_c, 1, 74, 64
3, 9335, Note_on_c, 1, 74, 0
3, 9336, Note_on_c, 1, 71, 64
3, 9359, Note_on_c, 1, 71, 0
3, 9360, Note_on_c, 1, 67, 64
3, 9383, Note_on_c, 1, 67, 0
3, 9384, Note_on_c, 1, 71, 64
3, 9407, Note_on_c, 1, 71, 0
3, 9408, Note_on_c, 1, 74, 64
3, 9431, Note_on_c, 1, 74, 0
3, 9432, Note_on_c, 1, 77, 64
3, 9455, Note_on_c, 1, 77, 0
3, 9456, Note_on_c, 1, 74, 64
3, 9479, Note_on_c, 1, 74, 0
3, 9480, Note_on_c, 1, 71, 64
3, 9503, Note_on_c, 1, 71, 0
3, 9504, Note_on_c, 1, 67, 64
3, 9527, Note_on_c, 1, 67, 0
3, 9528, Note_on_c, 1, 71, 64
3, 9551, Note_on_c, 1, 71, 0
3, 9552, Note_on_c, 1, 72, 64
3, 9575, Note_on_c, 1, 72, 0
3, 9576, Note_on_c, 1, 75, 64
3, 9599, Note_on_c, 1, 75, 0
3, 9600, Note_on_c, 1, 72, 64
3, 9623, Note_on_c, 1, 72, 0
3, 9624, Note_on_c, 1, 71, 64
3, 9647, Note_on_c, 1, 71, 0
3, 9648, Note_on_c, 1, 72, 64
3, 9671, Note_on_c, 1, 72, 0
3, 9672, Note_on_c, 1, 75, 64
3, 9695, Note_on_c, 1, 75, 0
3, 9696, Note_on_c, 1, 79, 64
3, 9719, Note_on_c, 1, 79, 0
3, 9720, Note_on_c, 1, 84, 64
3, 9743, Note_on_c, 1, 84, 0
3, 9744, Note_on_c, 1, 79, 64
3, 9767, Note_on_c, 1, 79, 0
3, 9768, Note_on_c, 1, 77, 64
3, 9791, Note_on_c, 1, 77, 0
3, 9792, Note_on_c, 1, 79, 64
3, 9815, Note_on_c, 1, 79, 0
3, 9816, Note_on_c, 1, 82, 64
3, 9839, Note_on_c, 1, 82, 0
3, 9840, Note_on_c, 1, 79, 64
3, 9863, Note_on_c, 1, 79, 0
3, 9864, Note_on_c, 1, 76, 64
3, 9887, Note_on_c, 1, 76, 0
3, 9888, Note_on_c, 1, 73, 64
3, 9911, Note_on_c, 1, 73, 0
3, 9912, Note_on_c, 1, 72, 64
3, 9935, Note_on_c, 1, 72, 0
3, 9936, Note_on_c, 1, 70, 64
3, 9959, Note_on_c, 1, 70, 0
3, 9960, Note_on_c, 1, 72, 64
3, 9983, Note_on_c, 1, 72, 0
3, 9984, Note_on_c, 1, 76, 64
3, 10007, Note_on_c, 1, 76, 0
3, 10008, Note_on_c, 1, 79, 64
3, 10031, Note_on_c, 1, 79, 0
3, 10032, Note_on_c, 1, 77, 64
3, 10055, Note_on_c, 1, 77, 0
3, 10056, Note_on_c, 1, 76, 64
3, 10079, Note_on_c, 1, 76, 0
3, 10080, Note_on_c, 1, 72, 64
3, 10103, Note_on_c, 1, 72, 0
3, 10104, Note_on_c, 1, 76, 64
3, 10127, Note_on_c, 1, 76, 0
3, 10128, Note_on_c, 1, 77, 64
3, 10151, Note_on_c, 1, 77, 0
3, 10152, Note_on_c, 1, 80, 64
3, 10175, Note_on_c, 1, 80, 0
3, 10176, Note_on_c, 1, 77, 64
3, 10199, Note_on_c, 1, 77, 0
3, 10200, Note_on_c, 1, 72, 64
3, 10223, Note_on_c, 1, 72, 0
3, 10224, Note_on_c, 1, 65, 64
3, 10247, Note_on_c, 1, 65, 0
3, 10248, Note_on_c, 1, 67, 64
3, 10271, Note_on_c, 1, 67, 0
3, 10272, Note_on_c, 1, 68, 64
3, 10295, Note_on_c, 1, 68, 0
3, 10296, Note_on_c, 1, 72, 64
3, 10319, Note_on_c, 1, 72, 0
3, 10320, Note_on_c, 1, 68, 64
3, 10343, Note_on_c, 1, 68, 0
3, 10344, Note_on_c, 1, 65, 64
3, 10367, Note_on_c, 1, 65, 0
3, 10368, Note_on_c, 1, 61, 64
3, 10391, Note_on_c, 1, 61, 0
3, 10392, Note_on_c, 1, 65, 64
3, 10415, Note_on_c, 1, 65, 0
3, 10416, Note_on_c, 1, 70, 64
3, 10439, Note_on_c, 1, 70, 0
3, 10440, Note_on_c, 1, 73, 64
3, 10463, Note_on_c, 1, 73, 0
3, 10464, Note_on_c, 1, 72, 64
3, 10487, Note_on_c, 1, 72, 0
3, 10488, Note_on_c, 1, 70, 64
3, 10511, Note_on_c, 1, 70, 0
3, 10512, Note_on_c, 1, 69, 64
3, 10535, Note_on_c, 1, 69, 0
3, 10536, Note_on_c, 1, 72, 64
3, 10559, Note_on_c, 1, 72, 0
3, 10560, Note_on_c, 1, 75, 64
3, 10583, Note_on_c, 1, 75, 0
3, 10584, Note_on_c, 1, 78, 64
3, 10607, Note_on_c, 1, 78, 0
3, 10608, Note_on_c, 1, 77, 64
3, 10631, Note_on_c, 1, 77, 0
3, 10632, Note_on_c, 1, 75, 64
3, 10655, Note_on_c, 1, 75, 0
3, 10656, Note_on_c, 1, 77, 64
3, 10679, Note_on_c, 1, 77, 0
3, 10680, Note_on_c, 1, 81, 64
3, 10703, Note_on_c, 1, 81, 0
3, 10704, Note_on_c, 1, 82, 64
3, 10727, Note_on_c, 1, 82, 0
3, 10728, Note_on_c, 1, 80, 64
3, 10751, Note_on_c, 1, 80, 0
3, 10752, Note_on_c, 1, 78, 64
3, 10775, Note_on_c, 1, 78, 0
3, 10776, Note_on_c, 1, 77, 64
3, 10799, Note_on_c, 1, 77, 0
3, 10800, Note_on_c, 1, 75, 64
3, 10823, Note_on_c, 1, 75, 0
3, 10824, Note_on_c, 1, 78, 64
3, 10847, Note_on_c, 1, 78, 0
3, 10848, Note_on_c, 1, 77, 64
3, 10871, Note_on_c, 1, 77, 0
3, 10872, Note_on_c, 1, 75, 64
3, 10895, Note_on_c, 1, 75, 0
3, 10896, Note_on_c, 1, 73, 64
3, 10919, Note_on_c, 1, 73, 0
3, 10920, Note_on_c, 1, 72, 64
3, 10943, Note_on_c, 1, 72, 0
3, 10944, Note_on_c, 1, 73, 64
3, 10967, Note_on_c, 1, 73, 0
3, 10968, Note_on_c, 1, 72, 64
3, 10991, Note_on_c, 1, 72, 0
3, 10992, Note_on_c, 1, 70, 64
3, 11015, Note_on_c, 1, 70, 0
3, 11016, Note_on_c, 1, 69, 64
3, 11039, Note_on_c, 1, 69, 0
3, 11040, Note_on_c, 1, 70, 64
3, 11063, Note_on_c, 1, 70, 0
3, 11064, Note_on_c, 1, 76, 64
3, 11087, Note_on_c, 1, 76, 0
3, 11088, Note_on_c, 1, 77, 64
3, 11111, Note_on_c, 1, 77, 0
3, 11112, Note_on_c, 1, 79, 64
3, 11135, Note_on_c, 1, 79, 0
3, 11136, Note_on_c, 1, 80, 64
3, 11159, Note_on_c, 1, 80, 0
3, 11160, Note_on_c, 1, 77, 64
3, 11183, Note_on_c, 1, 77, 0
3, 11184, Note_on_c, 1, 72, 64
3, 11207, Note_on_c, 1, 72, 0
3, 11208, Note_on_c, 1, 76, 64
3, 11231, Note_on_c, 1, 76, 0
3, 11232, Note_on_c, 1, 77, 64
3, 11255, Note_on_c, 1, 77, 0
3, 11256, Note_on_c, 1, 80, 64
3, 11279, Note_on_c, 1, 80, 0
3, 11280, Note_on_c, 1, 84, 64
3, 11303, Note_on_c, 1, 84, 0
3, 11304, Note_on_c, 1, 80, 64
3, 11327, Note_on_c, 1, 80, 0
3, 11328, Note_on_c, 1, 77, 64
3, 11351, Note_on_c, 1, 77, 0
3, 11352, Note_on_c, 1, 76, 64
3, 11375, Note_on_c, 1, 76, 0
3, 11376, Note_on_c, 1, 77, 64
3, 11399, Note_on_c, 1, 77, 0
3, 11400, Note_on_c, 1, 80, 64
3, 11423, Note_on_c, 1, 80, 0
3, 11424, Note_on_c, 1, 77, 64
3, 11447, Note_on_c, 1, 77, 0
3, 11448, Note_on_c, 1, 72, 64
3, 11471, Note_on_c, 1, 72, 0
3, 11472, Note_on_c, 1, 68, 64
3, 11495, Note_on_c, 1, 68, 0
3, 11496, Note_on_c, 1, 67, 64
3, 11519, Note_on_c, 1, 67, 0
3, 11520, Note_on_c, 1, 65, 64
3, 11543, Note_on_c, 1, 65, 0
3, 11544, Note_on_c, 1, 67, 64
3, 11567, Note_on_c, 1, 67, 0
3, 11568, Note_on_c, 1, 68, 64
3, 11591, Note_on_c, 1, 68, 0
3, 11592, Note_on_c, 1, 74, 64
3, 11615, Note_on_c, 1, 74, 0
3, 11616, Note_on_c, 1, 68, 64
3, 11639, Note_on_c, 1, 68, 0
3, 11640, Note_on_c, 1, 67, 64
3, 11663, Note_on_c, 1, 67, 0
3, 11664, Note_on_c, 1, 68, 64
3, 11687, Note_on_c, 1, 68, 0
3, 11688, Note_on_c, 1, 70, 64
3, 11711, Note_on_c, 1, 70, 0
3, 11712, Note_on_c, 1, 72, 64
3, 11735, Note_on_c, 1, 72, 0
3, 11736, Note_on_c, 1, 75, 64
3, 11759, Note_on_c, 1, 75, 0
3, 11760, Note_on_c, 1, 74, 64
3, 11783, Note_on_c, 1, 74, 0
3, 11784, Note_on_c, 1, 72, 64
3, 11807, Note_on_c, 1, 72, 0
3, 11808, Note_on_c, 1, 70, 64
3, 11831, Note_on_c, 1, 70, 0
3, 11832, Note_on_c, 1, 72, 64
3, 11855, Note_on_c, 1, 72, 0
3, 11856, Note_on_c, 1, 74, 64
3, 11879, Note_on_c, 1, 74, 0
3, 11880, Note_on_c, 1, 77, 64
3, 11903, Note_on_c, 1, 77, 0
3, 11904, Note_on_c, 1, 74, 64
3, 11927, Note_on_c, 1, 74, 0
3, 11928, Note_on_c, 1, 72, 64
3, 11951, Note_on_c, 1, 72, 0
3, 11952, Note_on_c, 1, 74, 64
3, 11975, Note_on_c, 1, 74, 0
3, 11976, Note_on_c, 1, 75, 64
3, 11999, Note_on_c, 1, 75, 0
3, 12000, Note_on_c, 1, 77, 64
3, 12023, Note_on_c, 1, 77, 0
3, 12024, Note_on_c, 1, 80, 64
3, 12047, Note_on_c, 1, 80, 0
3, 12048, Note_on_c, 1, 79, 64
3, 12071, Note_on_c, 1, 79, 0
3, 12072, Note_on_c, 1, 77, 64
3, 12095, Note_on_c, 1, 77, 0
3, 12096, Note_on_c, 1, 79, 64
3, 12119, Note_on_c, 1, 79, 0
3, 12120, Note_on_c, 1, 77, 64
3, 12143, Note_on_c, 1, 77, 0
3, 12144, Note_on_c, 1, 75, 64
3, 12167, Note_on_c, 1, 75, 0
3, 12168, Note_on_c, 1, 74, 64
3, 12191, Note_on_c, 1, 74, 0
3, 12192, Note_on_c, 1, 77, 64
3, 12215, Note_on_c, 1, 77, 0
3, 12216, Note_on_c, 1, 82, 64
3, 12239, Note_on_c, 1, 82, 0
3, 12240, Note_on_c, 1, 80, 64
3, 12263, Note_on_c, 1, 80, 0
3, 12264, Note_on_c, 1, 79, 64
3, 12287, Note_on_c, 1, 79, 0
3, 12288, Note_on_c, 1, 77, 64
3, 12311, Note_on_c, 1, 77, 0
3, 12312, Note_on_c, 1, 75, 64
3, 12335, Note_on_c, 1, 75, 0
3, 12336, Note_on_c, 1, 74, 64
3, 12359, Note_on_c, 1, 74, 0
3, 12360, Note_on_c, 1, 72, 64
3, 12383, Note_on_c, 1, 72, 0
3, 12384, Note_on_c, 1, 67, 64
3, 12407, Note_on_c, 1, 67, 0
3, 12408, Note_on_c, 1, 71, 64
3, 12431, Note_on_c, 1, 71, 0
3, 12432, Note_on_c, 1, 74, 64
3, 12455, Note_on_c, 1, 74, 0
3, 12456, Note_on_c, 1, 77, 64
3, 12479, Note_on_c, 1, 77, 0
3, 12480, Note_on_c, 1, 74, 64
3, 12503, Note_on_c, 1, 74, 0
3, 12504, Note_on_c, 1, 71, 64
3, 12527, Note_on_c, 1, 71, 0
3, 12528, Note_on_c, 1, 67, 64
3, 12551, Note_on_c, 1, 67, 0
3, 12552, Note_on_c, 1, 71, 64
3, 12575, Note_on_c, 1, 71, 0
3, 12576, Note_on_c, 1, 74, 64
3, 12599, Note_on_c, 1, 74, 0
3, 12600, Note_on_c, 1, 79, 64
3, 12623, Note_on_c, 1, 79, 0
3, 12624, Note_on_c, 1, 74, 64
3, 12647, Note_on_c, 1, 74, 0
3, 12648, Note_on_c, 1, 71, 64
3, 12671, Note_on_c, 1, 71, 0
3, 12672, Note_on_c, 1, 67, 64
3, 12695, Note_on_c, 1, 67, 0
3, 12696, Note_on_c, 1, 71, 64
3, 12719, Note_on_c, 1, 71, 0
3, 12720, Note_on_c, 1, 72, 64
3, 12743, Note_on_c, 1, 72, 0
3, 12744, Note_on_c, 1, 75, 64
3, 12767, Note_on_c, 1, 75, 0
3, 12768, Note_on_c, 1, 74, 64
3, 12791, Note_on_c, 1, 74, 0
3, 12792, Note_on_c, 1, 72, 64
3, 12815, Note_on_c, 1, 72, 0
3, 12816, Note_on_c, 1, 79, 64
3, 12839, Note_on_c, 1, 79, 0
3, 12840, Note_on_c, 1, 77, 64
3, 12863, Note_on_c, 1, 77, 0
3, 12864, Note_on_c, 1, 75, 64
3, 12887, Note_on_c, 1, 75, 0
3, 12888, Note_on_c, 1, 74, 64
3, 12911, Note_on_c, 1, 74, 0
3, 12912, Note_on_c, 1, 72, 64
3, 12935, Note_on_c, 1, 72, 0
3, 12936, Note_on_c, 1, 71, 64
3, 12959, Note_on_c, 1, 71, 0
3, 12960, Note_on_c, 1, 72, 64
3, 12983, Note_on_c, 1, 72, 0
3, 12984, Note_on_c, 1, 76, 64
3, 13007, Note_on_c, 1, 76, 0
3, 13008, Note_on_c, 1, 77, 64
3, 13031, Note_on_c, 1, 77, 0
3, 13032, Note_on_c, 1, 80, 64
3, 13055, Note_on_c, 1, 80, 0
3, 13056, Note_on_c, 1, 79, 64
3, 13079, Note_on_c, 1, 79, 0
3, 13080, Note_on_c, 1, 77, 64
3, 13103, Note_on_c, 1, 77, 0
3, 13104, Note_on_c, 1, 84, 64
3, 13127, Note_on_c, 1, 84, 0
3, 13128, Note_on_c, 1, 79, 64
3, 13151, Note_on_c, 1, 79, 0
3, 13152, Note_on_c, 1, 75, 64
3, 13175, Note_on_c, 1, 75, 0
3, 13176, Note_on_c, 1, 79, 64
3, 13199, Note_on_c, 1, 79, 0
3, 13200, Note_on_c, 1, 72, 64
3, 13223, Note_on_c, 1, 72, 0
3, 13224, Note_on_c, 1, 75, 64
3, 13247, Note_on_c, 1, 75, 0
3, 13248, Note_on_c, 1, 80, 64
3, 13271, Note_on_c, 1, 80, 0
3, 13272, Note_on_c, 1, 72, 64
3, 13295, Note_on_c, 1, 72, 0
3, 13296, Note_on_c, 1, 77, 64
3, 13319, Note_on_c, 1, 77, 0
3, 13320, Note_on_c, 1, 80, 64
3, 13343, Note_on_c, 1, 80, 0
3, 13344, Note_on_c, 1, 77, 64
3, 13367, Note_on_c, 1, 77, 0
3, 13368, Note_on_c, 1, 74, 64
3, 13391, Note_on_c, 1, 74, 0
3, 13392, Note_on_c, 1, 71, 64
3, 13415, Note_on_c, 1, 71, 0
3, 13416, Note_on_c, 1, 74, 64
3, 13439, Note_on_c, 1, 74, 0
3, 13440, Note_on_c, 1, 77, 64
3, 13463, Note_on_c, 1, 77, 0
3, 13464, Note_on_c, 1, 74, 64
3, 13487, Note_on_c, 1, 74, 0
3, 13488, Note_on_c, 1, 71, 64
3, 13511, Note_on_c, 1, 71, 0
3, 13512, Note_on_c, 1, 67, 64
3, 13535, Note_on_c, 1, 67, 0
3, 13536, Note_on_c, 1, 75, 64
3, 13559, Note_on_c, 1, 75, 0
3, 13560, Note_on_c, 1, 72, 64
3, 13583, Note_on_c, 1, 72, 0
3, 13584, Note_on_c, 1, 70, 64
3, 13607, Note_on_c, 1, 70, 0
3, 13608, Note_on_c, 1, 68, 64
3, 13631, Note_on_c, 1, 68, 0
3, 13632, Note_on_c, 1, 67, 64
3, 13655, Note_on_c, 1, 67, 0
3, 13656, Note_on_c, 1, 65, 64
3, 13679, Note_on_c, 1, 65, 0
3, 13680, Note_on_c, 1, 63, 64
3, 13703, Note_on_c, 1, 63, 0
3, 13704, Note_on_c, 1, 68, 64
3, 13727, Note_on_c, 1, 68, 0
3, 13728, Note_on_c, 1, 67, 64
3, 13751, Note_on_c, 1, 67, 0
3, 13752, Note_on_c, 1, 65, 64
3, 13775, Note_on_c, 1, 65, 0
3, 13776, Note_on_c, 1, 63, 64
3, 13799, Note_on_c, 1, 63, 0
3, 13800, Note_on_c, 1, 62, 64
3, 13823, Note_on_c, 1, 62, 0
3, 13824, Note_on_c, 1, 60, 64
3, 13847, Note_on_c, 1, 60, 0
3, 13848, Note_on_c, 1, 65, 64
3, 13871, Note_on_c, 1, 65, 0
3, 13872, Note_on_c, 1, 68, 64
3, 13895, Note_on_c, 1, 68, 0
3, 13896, Note_on_c, 1, 72, 64
3, 13919, Note_on_c, 1, 72, 0
3, 13920, Note_on_c, 1, 68, 64
3, 13943, Note_on_c, 1, 68, 0
3, 13944, Note_on_c, 1, 65, 64
3, 13967, Note_on_c, 1, 65, 0
3, 13968, Note_on_c, 1, 62, 64
3, 13991, Note_on_c, 1, 62, 0
3, 13992, Note_on_c, 1, 65, 64
3, 14015, Note_on_c, 1, 65, 0
3, 14016, Note_on_c, 1, 67, 64
3, 14039, Note_on_c, 1, 67, 0
3, 14040, Note_on_c, 1, 70, 64
3, 14063, Note_on_c, 1, 70, 0
3, 14064, Note_on_c, 1, 67, 64
3, 14087, Note_on_c, 1, 67, 0
3, 14088, Note_on_c, 1, 63, 64
3, 14111, Note_on_c, 1, 63, 0
3, 14112, Note_on_c, 1, 65, 64
3, 14135, Note_on_c, 1, 65, 0
3, 14136, Note_on_c, 1, 68, 64
3, 14159, Note_on_c, 1, 68, 0
3, 14160, Note_on_c, 1, 73, 64
3, 14183, Note_on_c, 1, 73, 0
3, 14184, Note_on_c, 1, 77, 64
3, 14207, Note_on_c, 1, 77, 0
3, 14208, Note_on_c, 1, 73, 64
3, 14231, Note_on_c, 1, 73, 0
3, 14232, Note_on_c, 1, 71, 64
3, 14255, Note_on_c, 1, 71, 0
3, 14256, Note_on_c, 1, 67, 64
3, 14279, Note_on_c, 1, 67, 0
3, 14280, Note_on_c, 1, 80, 64
3, 14303, Note_on_c, 1, 80, 0
3, 14304, Note_on_c, 1, 79, 64
3, 14327, Note_on_c, 1, 79, 0
3, 14328, Note_on_c, 1, 77, 64
3, 14351, Note_on_c, 1, 77, 0
3, 14352, Note_on_c, 1, 75, 64
3, 14375, Note_on_c, 1, 75, 0
3, 14376, Note_on_c, 1, 74, 64
3, 14399, Note_on_c, 1, 74, 0
3, 14400, Note_on_c, 1, 72, 64
3, 14423, Note_on_c, 1, 72, 0
3, 14424, Note_on_c, 1, 71, 64
3, 14447, Note_on_c, 1, 71, 0
3, 14448, Note_on_c, 1, 69, 64
3, 14471, Note_on_c, 1, 69, 0
3, 14472, Note_on_c, 1, 67, 64
3, 14495, Note_on_c, 1, 67, 0
3, 14496, Note_on_c, 1, 65, 64
3, 14519, Note_on_c, 1, 65, 0
3, 14520, Note_on_c, 1, 74, 64
3, 14543, Note_on_c, 1, 74, 0
3, 14544, Note_on_c, 1, 63, 64
3, 14567, Note_on_c, 1, 63, 0
3, 14568, Note_on_c, 1, 62, 64
3, 14591, Note_on_c, 1, 62, 0
3, 14592, Note_on_c, 1, 63, 64
3, 14615, Note_on_c, 1, 63, 0
3, 14616, Note_on_c, 1, 72, 64
3, 14639, Note_on_c, 1, 72, 0
3, 14640, Note_on_c, 1, 62, 64
3, 14663, Note_on_c, 1, 62, 0
3, 14664, Note_on_c, 1, 71, 64
3, 14687, Note_on_c, 1, 71, 0
3, 14688, Note_on_c, 1, 72, 64
3, 14953, Note_on_c, 1, 72, 0
3, 14976, Note_on_c, 1, 67, 64
3, 14999, Note_on_c, 1, 67, 0
3, 15000, Note_on_c, 1, 71, 64
3, 15023, Note_on_c, 1, 71, 0
3, 15024, Note_on_c, 1, 74, 64
3, 15047, Note_on_c, 1, 74, 0
3, 15048, Note_on_c, 1, 79, 64
3, 15071, Note_on_c, 1, 79, 0
3, 15072, Note_on_c, 1, 74, 64
3, 15095, Note_on_c, 1, 74, 0
3, 15096, Note_on_c, 1, 71, 64
3, 15119, Note_on_c, 1, 71, 0
3, 15120, Note_on_c, 1, 67, 64
3, 15143, Note_on_c, 1, 67, 0
3, 15144, Note_on_c, 1, 71, 64
3, 15167, Note_on_c, 1, 71, 0
3, 15168, Note_on_c, 1, 74, 64
3, 15191, Note_on_c, 1, 74, 0
3, 15192, Note_on_c, 1, 77, 64
3, 15215, Note_on_c, 1, 77, 0
3, 15216, Note_on_c, 1, 74, 64
3, 15239, Note_on_c, 1, 74, 0
3, 15240, Note_on_c, 1, 71, 64
3, 15263, Note_on_c, 1, 71, 0
3, 15264, Note_on_c, 1, 67, 64
3, 15287, Note_on_c, 1, 67, 0
3, 15288, Note_on_c, 1, 71, 64
3, 15311, Note_on_c, 1, 71, 0
3, 15312, Note_on_c, 1, 72, 64
3, 15335, Note_on_c, 1, 72, 0
3, 15336, Note_on_c, 1, 75, 64
3, 15359, Note_on_c, 1, 75, 0
3, 15360, Note_on_c, 1, 72, 64
3, 15383, Note_on_c, 1, 72, 0
3, 15384, Note_on_c, 1, 71, 64
3, 15407, Note_on_c, 1, 71, 0
3, 15408, Note_on_c, 1, 72, 64
3, 15431, Note_on_c, 1, 72, 0
3, 15432, Note_on_c, 1, 75, 64
3, 15455, Note_on_c, 1, 75, 0
3, 15456, Note_on_c, 1, 79, 64
3, 15479, Note_on_c, 1, 79, 0
3, 15480, Note_on_c, 1, 84, 64
3, 15503, Note_on_c, 1, 84, 0
3, 15504, Note_on_c, 1, 79, 64
3, 15527, Note_on_c, 1, 79, 0
3, 15528, Note_on_c, 1, 77, 64
3, 15551, Note_on_c, 1, 77, 0
3, 15552, Note_on_c, 1, 79, 64
3, 15575, Note_on_c, 1, 79, 0
3, 15576, Note_on_c, 1, 82, 64
3, 15599, Note_on_c, 1, 82, 0
3, 15600, Note_on_c, 1, 79, 64
3, 15623, Note_on_c, 1, 79, 0
3, 15624, Note_on_c, 1, 76, 64
3, 15647, Note_on_c, 1, 76, 0
3, 15648, Note_on_c, 1, 73, 64
3, 15671, Note_on_c, 1, 73, 0
3, 15672, Note_on_c, 1, 72, 64
3, 15695, Note_on_c, 1, 72, 0
3, 15696, Note_on_c, 1, 70, 64
3, 15719, Note_on_c, 1, 70, 0
3, 15720, Note_on_c, 1, 72, 64
3, 15743, Note_on_c, 1, 72, 0
3, 15744, Note_on_c, 1, 76, 64
3, 15767, Note_on_c, 1, 76, 0
3, 15768, Note_on_c, 1, 79, 64
3, 15791, Note_on_c, 1, 79, 0
3, 15792, Note_on_c, 1, 77, 64
3, 15815, Note_on_c, 1, 77, 0
3, 15816, Note_on_c, 1, 76, 64
3, 15839, Note_on_c, 1, 76, 0
3, 15840, Note_on_c, 1, 72, 64
3, 15863, Note_on_c, 1, 72, 0
3, 15864, Note_on_c, 1, 76, 64
3, 15887, Note_on_c, 1, 76, 0
3, 15888, Note_on_c, 1, 77, 64
3, 15911, Note_on_c, 1, 77, 0
3, 15912, Note_on_c, 1, 80, 64
3, 15935, Note_on_c, 1, 80, 0
3, 15936, Note_on_c, 1, 77, 64
3, 15959, Note_on_c, 1, 77, 0
3, 15960, Note_on_c, 1, 72, 64
3, 15983, Note_on_c, 1, 72, 0
3, 15984, Note_on_c, 1, 65, 64
3, 16007, Note_on_c, 1, 65, 0
3, 16008, Note_on_c, 1, 67, 64
3, 16031, Note_on_c, 1, 67, 0
3, 16032, Note_on_c, 1, 68, 64
3, 16055, Note_on_c, 1, 68, 0
3, 16056, Note_on_c, 1, 72, 64
3, 16079, Note_on_c, 1, 72, 0
3, 16080, Note_on_c, 1, 68, 64
3, 16103, Note_on_c, 1, 68, 0
3, 16104, Note_on_c, 1, 65, 64
3, 16127, Note_on_c, 1, 65, 0
3, 16128, Note_on_c, 1, 61, 64
3, 16151, Note_on_c, 1, 61, 0
3, 16152, Note_on_c, 1, 65, 64
3, 16175, Note_on_c, 1, 65, 0
3, 16176, Note_on_c, 1, 70, 64
3, 16199, Note_on_c, 1, 70, 0
3, 16200, Note_on_c, 1, 73, 64
3, 16223, Note_on_c, 1, 73, 0
3, 16224, Note_on_c, 1, 72, 64
3, 16247, Note_on_c, 1, 72, 0
3, 16248, Note_on_c, 1, 70, 64
3, 16271, Note_on_c, 1, 70, 0
3, 16272, Note_on_c, 1, 69, 64
3, 16295, Note_on_c, 1, 69, 0
3, 16296, Note_on_c, 1, 72, 64
3, 16319, Note_on_c, 1, 72, 0
3, 16320, Note_on_c, 1, 75, 64
3, 16343, Note_on_c, 1, 75, 0
3, 16344, Note_on_c, 1, 78, 64
3, 16367, Note_on_c, 1, 78, 0
3, 16368, Note_on_c, 1, 77, 64
3, 16391, Note_on_c, 1, 77, 0
3, 16392, Note_on_c, 1, 75, 64
3, 16415, Note_on_c, 1, 75, 0
3, 16416, Note_on_c, 1, 77, 64
3, 16439, Note_on_c, 1, 77, 0
3, 16440, Note_on_c, 1, 81, 64
3, 16463, Note_on_c, 1, 81, 0
3, 16464, Note_on_c, 1, 82, 64
3, 16487, Note_on_c, 1, 82, 0
3, 16488, Note_on_c, 1, 80, 64
3, 16511, Note_on_c, 1, 80, 0
3, 16512, Note_on_c, 1, 78, 64
3, 16535, Note_on_c, 1, 78, 0
3, 16536, Note_on_c, 1, 77, 64
3, 16559, Note_on_c, 1, 77, 0
3, 16560, Note_on_c, 1, 75, 64
3, 16583, Note_on_c, 1, 75, 0
3, 16584, Note_on_c, 1, 78, 64
3, 16607, Note_on_c, 1, 78, 0
3, 16608, Note_on_c, 1, 77, 64
3, 16631, Note_on_c, 1, 77, 0
3, 16632, Note_on_c, 1, 75, 64
3, 16655, Note_on_c, 1, 75, 0
3, 16656, Note_on_c, 1, 73, 64
3, 16679, Note_on_c, 1, 73, 0
3, 16680, Note_on_c, 1, 72, 64
3, 16703, Note_on_c, 1, 72, 0
3, 16704, Note_on_c, 1, 73, 64
3, 16727, Note_on_c, 1, 73, 0
3, 16728, Note_on_c, 1, 72, 64
3, 16751, Note_on_c, 1, 72, 0
3, 16752, Note_on_c, 1, 70, 64
3, 16775, Note_on_c, 1, 70, 0
3, 16776, Note_on_c, 1, 69, 64
3, 16799, Note_on_c, 1, 69, 0
3, 16800, Note_on_c, 1, 70, 64
3, 16823, Note_on_c, 1, 70, 0
3, 16824, Note_on_c, 1, 76, 64
3, 16847, Note_on_c, 1, 76, 0
3, 16848, Note_on_c, 1, 77, 64
3, 16871, Note_on_c, 1, 77, 0
3, 16872, Note_on_c, 1, 79, 64
3, 16895, Note_on_c, 1, 79, 0
3, 16896, Note_on_c, 1, 80, 64
3, 16919, Note_on_c, 1, 80, 0
3, 16920, Note_on_c, 1, 77, 64
3, 16943, Note_on_c, 1, 77, 0
3, 16944, Note_on_c, 1, 72, 64
3, 16967, Note_on_c, 1, 72, 0
3, 16968, Note_on_c, 1, 76, 64
3, 16991, Note_on_c, 1, 76, 0
3, 16992, Note_on_c, 1, 77, 64
3, 17015, Note_on_c, 1, 77, 0
3, 17016, Note_on_c, 1, 80, 64
3, 17039, Note_on_c, 1, 80, 0
3, 17040, Note_on_c, 1, 84, 64
3, 17063, Note_on_c, 1, 84, 0
3, 17064, Note_on_c, 1, 80, 64
3, 17087, Note_on_c, 1, 80, 0
3, 17088, Note_on_c, 1, 77, 64
3, 17111, Note_on_c, 1, 77, 0
3, 17112, Note_on_c, 1, 76, 64
3, 17135, Note_on_c, 1, 76, 0
3, 17136, Note_on_c, 1, 77, 64
3, 17159, Note_on_c, 1, 77, 0
3, 17160, Note_on_c, 1, 80, 64
3, 17183, Note_on_c, 1, 80, 0
3, 17184, Note_on_c, 1, 77, 64
3, 17207, Note_on_c, 1, 77, 0
3, 17208, Note_on_c, 1, 72, 64
3, 17231, Note_on_c, 1, 72, 0
3, 17232, Note_on_c, 1, 68, 64
3, 17255, Note_on_c, 1, 68, 0
3, 17256, Note_on_c, 1, 67, 64
3, 17279, Note_on_c, 1, 67, 0
3, 17280, Note_on_c, 1, 65, 64
3, 17303, Note_on_c, 1, 65, 0
3, 17304, Note_on_c, 1, 67, 64
3, 17327, Note_on_c, 1, 67, 0
3, 17328, Note_on_c, 1, 68, 64
3, 17351, Note_on_c, 1, 68, 0
3, 17352, Note_on_c, 1, 74, 64
3, 17375, Note_on_c, 1, 74, 0
3, 17376, Note_on_c, 1, 68, 64
3, 17399, Note_on_c, 1, 68, 0
3, 17400, Note_on_c, 1, 67, 64
3, 17423, Note_on_c, 1, 67, 0
3, 17424, Note_on_c, 1, 68, 64
3, 17447, Note_on_c, 1, 68, 0
3, 17448, Note_on_c, 1, 70, 64
3, 17471, Note_on_c, 1, 70, 0
3, 17472, Note_on_c, 1, 72, 64
3, 17495, Note_on_c, 1, 72, 0
3, 17496, Note_on_c, 1, 75, 64
3, 17519, Note_on_c, 1, 75, 0
3, 17520, Note_on_c, 1, 74, 64
3, 17543, Note_on_c, 1, 74, 0
3, 17544, Note_on_c, 1, 72, 64
3, 17567, Note_on_c, 1, 72, 0
3, 17568, Note_on_c, 1, 70, 64
3, 17591, Note_on_c, 1, 70, 0
3, 17592, Note_on_c, 1, 72, 64
3, 17615, Note_on_c, 1, 72, 0
3, 17616, Note_on_c, 1, 74, 64
3, 17639, Note_on_c, 1, 74, 0
3, 17640, Note_on_c, 1, 77, 64
3, 17663, Note_on_c, 1, 77, 0
3, 17664, Note_on_c, 1, 74, 64
3, 17687, Note_on_c, 1, 74, 0
3, 17688, Note_on_c, 1, 72, 64
3, 17711, Note_on_c, 1, 72, 0
3, 17712, Note_on_c, 1, 74, 64
3, 17735, Note_on_c, 1, 74, 0
3, 17736, Note_on_c, 1, 75, 64
3, 17759, Note_on_c, 1, 75, 0
3, 17760, Note_on_c, 1, 77, 64
3, 17783, Note_on_c, 1, 77, 0
3, 17784, Note_on_c, 1, 80, 64
3, 17807, Note_on_c, 1, 80, 0
3, 17808, Note_on_c, 1, 79, 64
3, 17831, Note_on_c, 1, 79, 0
3, 17832, Note_on_c, 1, 77, 64
3, 17855, Note_on_c, 1, 77, 0
3, 17856, Note_on_c, 1, 79, 64
3, 17879, Note_on_c, 1, 79, 0
3, 17880, Note_on_c, 1, 77, 64
3, 17903, Note_on_c, 1, 77, 0
3, 17904, Note_on_c, 1, 75, 64
3, 17927, Note_on_c, 1, 75, 0
3, 17928, Note_on_c, 1, 74, 64
3, 17951, Note_on_c, 1, 74, 0
3, 17952, Note_on_c, 1, 77, 64
3, 17975, Note_on_c, 1, 77, 0
3, 17976, Note_on_c, 1, 82, 64
3, 17999, Note_on_c, 1, 82, 0
3, 18000, Note_on_c, 1, 80, 64
3, 18023, Note_on_c, 1, 80, 0
3, 18024, Note_on_c, 1, 79, 64
3, 18047, Note_on_c, 1, 79, 0
3, 18048, Note_on_c, 1, 77, 64
3, 18071, Note_on_c, 1, 77, 0
3, 18072, Note_on_c, 1, 75, 64
3, 18095, Note_on_c, 1, 75, 0
3, 18096, Note_on_c, 1, 74, 64
3, 18119, Note_on_c, 1, 74, 0
3, 18120, Note_on_c, 1, 72, 64
3, 18143, Note_on_c, 1, 72, 0
3, 18144, Note_on_c, 1, 67, 64
3, 18167, Note_on_c, 1, 67, 0
3, 18168, Note_on_c, 1, 71, 64
3, 18191, Note_on_c, 1, 71, 0
3, 18192, Note_on_c, 1, 74, 64
3, 18215, Note_on_c, 1, 74, 0
3, 18216, Note_on_c, 1, 77, 64
3, 18239, Note_on_c, 1, 77, 0
3, 18240, Note_on_c, 1, 74, 64
3, 18263, Note_on_c, 1, 74, 0
3, 18264, Note_on_c, 1, 71, 64
3, 18287, Note_on_c, 1, 71, 0
3, 18288, Note_on_c, 1, 67, 64
3, 18311, Note_on_c, 1, 67, 0
3, 18312, Note_on_c, 1, 71, 64
3, 18335, Note_on_c, 1, 71, 0
3, 18336, Note_on_c, 1, 74, 64
3, 18359, Note_on_c, 1, 74, 0
3, 18360, Note_on_c, 1, 79, 64
3, 18383, Note_on_c, 1, 79, 0
3, 18384, Note_on_c, 1, 74, 64
3, 18407, Note_on_c, 1, 74, 0
3, 18408, Note_on_c, 1, 71, 64
3, 18431, Note_on_c, 1, 71, 0
3, 18432, Note_on_c, 1, 67, 64
3, 18455, Note_on_c, 1, 67, 0
3, 18456, Note_on_c, 1, 71, 64
3, 18479, Note_on_c, 1, 71, 0
3, 18480, Note_on_c, 1, 72, 64
3, 18503, Note_on_c, 1, 72, 0
3, 18504, Note_on_c, 1, 75, 64
3, 18527, Note_on_c, 1, 75, 0
3, 18528, Note_on_c, 1, 74, 64
3, 18551, Note_on_c, 1, 74, 0
3, 18552, Note_on_c, 1, 72, 64
3, 18575, Note_on_c, 1, 72, 0
3, 18576, Note_on_c, 1, 79, 64
3, 18599, Note_on_c, 1, 79, 0
3, 18600, Note_on_c, 1, 77, 64
3, 18623, Note_on_c, 1, 77, 0
3, 18624, Note_on_c, 1, 75, 64
3, 18647, Note_on_c, 1, 75, 0
3, 18648, Note_on_c, 1, 74, 64
3, 18671, Note_on_c, 1, 74, 0
3, 18672, Note_on_c, 1, 72, 64
3, 18695, Note_on_c, 1, 72, 0
3, 18696, Note_on_c, 1, 71, 64
3, 18719, Note_on_c, 1, 71, 0
3, 18720, Note_on_c, 1, 72, 64
3, 18743, Note_on_c, 1, 72, 0
3, 18744, Note_on_c, 1, 76, 64
3, 18767, Note_on_c, 1, 76, 0
3, 18768, Note_on_c, 1, 77, 64
3, 18791, Note_on_c, 1, 77, 0
3, 18792, Note_on_c, 1, 80, 64
3, 18815, Note_on_c, 1, 80, 0
3, 18816, Note_on_c, 1, 79, 64
3, 18839, Note_on_c, 1, 79, 0
3, 18840, Note_on_c, 1, 77, 64
3, 18863, Note_on_c, 1, 77, 0
3, 18864, Note_on_c, 1, 84, 64
3, 18887, Note_on_c, 1, 84, 0
3, 18888, Note_on_c, 1, 79, 64
3, 18911, Note_on_c, 1, 79, 0
3, 18912, Note_on_c, 1, 75, 64
3, 18935, Note_on_c, 1, 75, 0
3, 18936, Note_on_c, 1, 79, 64
3, 18959, Note_on_c, 1, 79, 0
3, 18960, Note_on_c, 1, 72, 64
3, 18983, Note_on_c, 1, 72, 0
3, 18984, Note_on_c, 1, 75, 64
3, 19007, Note_on_c, 1, 75, 0
3, 19008, Note_on_c, 1, 80, 64
3, 19031, Note_on_c, 1, 80, 0
3, 19032, Note_on_c, 1, 72, 64
3, 19055, Note_on_c, 1, 72, 0
3, 19056, Note_on_c, 1, 77, 64
3, 19079, Note_on_c, 1, 77, 0
3, 19080, Note_on_c, 1, 80, 64
3, 19103, Note_on_c, 1, 80, 0
3, 19104, Note_on_c, 1, 77, 64
3, 19127, Note_on_c, 1, 77, 0
3, 19128, Note_on_c, 1, 74, 64
3, 19151, Note_on_c, 1, 74, 0
3, 19152, Note_on_c, 1, 71, 64
3, 19175, Note_on_c, 1, 71, 0
3, 19176, Note_on_c, 1, 74, 64
3, 19199, Note_on_c, 1, 74, 0
3, 19200, Note_on_c, 1, 77, 64
3, 19223, Note_on_c, 1, 77, 0
3, 19224, Note_on_c, 1, 74, 64
3, 19247, Note_on_c, 1, 74, 0
3, 19248, Note_on_c, 1, 71, 64
3, 19271, Note_on_c, 1, 71, 0
3, 19272, Note_on_c, 1, 67, 64
3, 19295, Note_on_c, 1, 67, 0
3, 19296, Note_on_c, 1, 75, 64
3, 19319, Note_on_c, 1, 75, 0
3, 19320, Note_on_c, 1, 72, 64
3, 19343, Note_on_c, 1, 72, 0
3, 19344, Note_on_c, 1, 69, 64
3, 19367, Note_on_c, 1, 69, 0
3, 19368, Note_on_c, 1, 68, 64
3, 19391, Note_on_c, 1, 68, 0
3, 19392, Note_on_c, 1, 67, 64
3, 19415, Note_on_c, 1, 67, 0
3, 19416, Note_on_c, 1, 65, 64
3, 19439, Note_on_c, 1, 65, 0
3, 19440, Note_on_c, 1, 63, 64
3, 19463, Note_on_c, 1, 63, 0
3, 19464, Note_on_c, 1, 68, 64
3, 19487, Note_on_c, 1, 68, 0
3, 19488, Note_on_c, 1, 67, 64
3, 19511, Note_on_c, 1, 67, 0
3, 19512, Note_on_c, 1, 65, 64
3, 19535, Note_on_c, 1, 65, 0
3, 19536, Note_on_c, 1, 63, 64
3, 19559, Note_on_c, 1, 63, 0
3, 19560, Note_on_c, 1, 62, 64
3, 19583, Note_on_c, 1, 62, 0
3, 19584, Note_on_c, 1, 60, 64
3, 19607, Note_on_c, 1, 60, 0
3, 19608, Note_on_c, 1, 65, 64
3, 19631, Note_on_c, 1, 65, 0
3, 19632, Note_on_c, 1, 68, 64
3, 19655, Note_on_c, 1, 68, 0
3, 19656, Note_on_c, 1, 72, 64
3, 19679, Note_on_c, 1, 72, 0
3, 19680, Note_on_c, 1, 68, 64
3, 19703, Note_on_c, 1, 68, 0
3, 19704, Note_on_c, 1, 65, 64
3, 19727, Note_on_c, 1, 65, 0
3, 19728, Note_on_c, 1, 62, 64
3, 19751, Note_on_c, 1, 62, 0
3, 19752, Note_on_c, 1, 65, 64
3, 19775, Note_on_c, 1, 65, 0
3, 19776, Note_on_c, 1, 67, 64
3, 19799, Note_on_c, 1, 67, 0
3, 19800, Note_on_c, 1, 70, 64
3, 19823, Note_on_c, 1, 70, 0
3, 19824, Note_on_c, 1, 67, 64
3, 19847, Note_on_c, 1, 67, 0
3, 19848, Note_on_c, 1, 63, 64
3, 19871, Note_on_c, 1, 63, 0
3, 19872, Note_on_c, 1, 65, 64
3, 19895, Note_on_c, 1, 65, 0
3, 19896, Note_on_c, 1, 68, 64
3, 19919, Note_on_c, 1, 68, 0
3, 19920, Note_on_c, 1, 73, 64
3, 19943, Note_on_c, 1, 73, 0
3, 19944, Note_on_c, 1, 77, 64
3, 19967, Note_on_c, 1, 77, 0
3, 19968, Note_on_c, 1, 73, 64
3, 19991, Note_on_c, 1, 73, 0
3, 19992, Note_on_c, 1, 71, 64
3, 20015, Note_on_c, 1, 71, 0
3, 20016, Note_on_c, 1, 67, 64
3, 20039, Note_on_c, 1, 67, 0
3, 20040, Note_on_c, 1, 80, 64
3, 20063, Note_on_c, 1, 80, 0
3, 20064, Note_on_c, 1, 79, 64
3, 20087, Note_on_c, 1, 79, 0
3, 20088, Note_on_c, 1, 77, 64
3, 20111, Note_on_c, 1, 77, 0
3, 20112, Note_on_c, 1, 75, 64
3, 20135, Note_on_c, 1, 75, 0
3, 20136, Note_on_c, 1, 74, 64
3, 20159, Note_on_c, 1, 74, 0
3, 20160, Note_on_c, 1, 72, 64
3, 20183, Note_on_c, 1, 72, 0
3, 20184, Note_on_c, 1, 71, 64
3, 20207, Note_on_c, 1, 71, 0
3, 20208, Note_on_c, 1, 69, 64
3, 20231, Note_on_c, 1, 69, 0
3, 20232, Note_on_c, 1, 67, 64
3, 20255, Note_on_c, 1, 67, 0
3, 20256, Note_on_c, 1, 65, 64
3, 20279, Note_on_c, 1, 65, 0
3, 20280, Note_on_c, 1, 74, 64
3, 20303, Note_on_c, 1, 74, 0
3, 20304, Note_on_c, 1, 63, 64
3, 20327, Note_on_c, 1, 63, 0
3, 20328, Note_on_c, 1, 62, 64
3, 20351, Note_on_c, 1, 62, 0
3, 20352, Note_on_c, 1, 63, 64
3, 20375, Note_on_c, 1, 63, 0
3, 20376, Note_on_c, 1, 72, 64
3, 20399, Note_on_c, 1, 72, 0
3, 20400, Note_on_c, 1, 62, 64
3, 20423, Note_on_c, 1, 62, 0
3, 20424, Note_on_c, 1, 71, 64
3, 20447, Note_on_c, 1, 71, 0
3, 20448, Note_on_c, 1, 72, 64
3, 20713, Note_on_c, 1, 72, 0
3, 20713, End_track
4, 0, Start_track
4, 0, MIDI_port, 0
4, 0, Title_t, "Clavier (LH)"
4, 0, Program_c, 1, 6
4, 0, Control_c, 1, 7, 127
4, 0, Note_on_c, 1, 48, 64
4, 45, Note_on_c, 1, 48, 0
4, 48, Note_on_c, 1, 51, 64
4, 93, Note_on_c, 1, 51, 0
4, 96, Note_on_c, 1, 55, 64
4, 141, Note_on_c, 1, 55, 0
4, 144, Note_on_c, 1, 46, 64
4, 189, Note_on_c, 1, 46, 0
4, 192, Note_on_c, 1, 51, 64
4, 237, Note_on_c, 1, 51, 0
4, 240, Note_on_c, 1, 55, 64
4, 285, Note_on_c, 1, 55, 0
4, 288, Note_on_c, 1, 44, 64
4, 333, Note_on_c, 1, 44, 0
4, 336, Note_on_c, 1, 48, 64
4, 381, Note_on_c, 1, 48, 0
4, 384, Note_on_c, 1, 53, 64
4, 429, Note_on_c, 1, 53, 0
4, 432, Note_on_c, 1, 43, 64
4, 477, Note_on_c, 1, 43, 0
4, 480, Note_on_c, 1, 46, 64
4, 525, Note_on_c, 1, 46, 0
4, 528, Note_on_c, 1, 52, 64
4, 573, Note_on_c, 1, 52, 0
4, 576, Note_on_c, 1, 41, 64
4, 621, Note_on_c, 1, 41, 0
4, 624, Note_on_c, 1, 44, 64
4, 669, Note_on_c, 1, 44, 0
4, 672, Note_on_c, 1, 48, 64
4, 717, Note_on_c, 1, 48, 0
4, 720, Note_on_c, 1, 39, 64
4, 765, Note_on_c, 1, 39, 0
4, 768, Note_on_c, 1, 44, 64
4, 813, Note_on_c, 1, 44, 0
4, 816, Note_on_c, 1, 48, 64
4, 861, Note_on_c, 1, 48, 0
4, 864, Note_on_c, 1, 38, 64
4, 909, Note_on_c, 1, 38, 0
4, 912, Note_on_c, 1, 41, 64
4, 957, Note_on_c, 1, 41, 0
4, 960, Note_on_c, 1, 44, 64
4, 1005, Note_on_c, 1, 44, 0
4, 1008, Note_on_c, 1, 36, 64
4, 1053, Note_on_c, 1, 36, 0
4, 1056, Note_on_c, 1, 41, 64
4, 1101, Note_on_c, 1, 41, 0
4, 1104, Note_on_c, 1, 44, 64
4, 1149, Note_on_c, 1, 44, 0
4, 1152, Note_on_c, 1, 47, 64
4, 1197, Note_on_c, 1, 47, 0
4, 1200, Note_on_c, 1, 53, 64
4, 1245, Note_on_c, 1, 53, 0
4, 1248, Note_on_c, 1, 56, 64
4, 1293, Note_on_c, 1, 56, 0
4, 1296, Note_on_c, 1, 43, 64
4, 1341, Note_on_c, 1, 43, 0
4, 1344, Note_on_c, 1, 50, 64
4, 1389, Note_on_c, 1, 50, 0
4, 1392, Note_on_c, 1, 55, 64
4, 1437, Note_on_c, 1, 55, 0
4, 1440, Note_on_c, 1, 48, 64
4, 1485, Note_on_c, 1, 48, 0
4, 1488, Note_on_c, 1, 51, 64
4, 1533, Note_on_c, 1, 51, 0
4, 1536, Note_on_c, 1, 55, 64
4, 1581, Note_on_c, 1, 55, 0
4, 1584, Note_on_c, 1, 46, 64
4, 1629, Note_on_c, 1, 46, 0
4, 1632, Note_on_c, 1, 51, 64
4, 1677, Note_on_c, 1, 51, 0
4, 1680, Note_on_c, 1, 55, 64
4, 1725, Note_on_c, 1, 55, 0
4, 1728, Note_on_c, 1, 44, 64
4, 1773, Note_on_c, 1, 44, 0
4, 1776, Note_on_c, 1, 48, 64
4, 1821, Note_on_c, 1, 48, 0
4, 1824, Note_on_c, 1, 53, 64
4, 1869, Note_on_c, 1, 53, 0
4, 1872, Note_on_c, 1, 43, 64
4, 1917, Note_on_c, 1, 43, 0
4, 1920, Note_on_c, 1, 46, 64
4, 1965, Note_on_c, 1, 46, 0
4, 1968, Note_on_c, 1, 51, 64
4, 2013, Note_on_c, 1, 51, 0
4, 2016, Note_on_c, 1, 53, 64
4, 2061, Note_on_c, 1, 53, 0
4, 2064, Note_on_c, 1, 56, 64
4, 2109, Note_on_c, 1, 56, 0
4, 2112, Note_on_c, 1, 60, 64
4, 2157, Note_on_c, 1, 60, 0
4, 2160, Note_on_c, 1, 51, 64
4, 2205, Note_on_c, 1, 51, 0
4, 2208, Note_on_c, 1, 56, 64
4, 2253, Note_on_c, 1, 56, 0
4, 2256, Note_on_c, 1, 60, 64
4, 2301, Note_on_c, 1, 60, 0
4, 2304, Note_on_c, 1, 50, 64
4, 2349, Note_on_c, 1, 50, 0
4, 2352, Note_on_c, 1, 53, 64
4, 2397, Note_on_c, 1, 53, 0
4, 2400, Note_on_c, 1, 56, 64
4, 2445, Note_on_c, 1, 56, 0
4, 2448, Note_on_c, 1, 51, 64
4, 2493, Note_on_c, 1, 51, 0
4, 2496, Note_on_c, 1, 53, 64
4, 2541, Note_on_c, 1, 53, 0
4, 2544, Note_on_c, 1, 55, 64
4, 2589, Note_on_c, 1, 55, 0
4, 2592, Note_on_c, 1, 44, 64
4, 2637, Note_on_c, 1, 44, 0
4, 2640, Note_on_c, 1, 50, 64
4, 2685, Note_on_c, 1, 50, 0
4, 2688, Note_on_c, 1, 53, 64
4, 2733, Note_on_c, 1, 53, 0
4, 2736, Note_on_c, 1, 45, 64
4, 2781, Note_on_c, 1, 45, 0
4, 2784, Note_on_c, 1, 48, 64
4, 2829, Note_on_c, 1, 48, 0
4, 2832, Note_on_c, 1, 51, 64
4, 2877, Note_on_c, 1, 51, 0
4, 2880, Note_on_c, 1, 46, 64
4, 2925, Note_on_c, 1, 46, 0
4, 2928, Note_on_c, 1, 51, 64
4, 2973, Note_on_c, 1, 51, 0
4, 2976, Note_on_c, 1, 53, 64
4, 3021, Note_on_c, 1, 53, 0
4, 3024, Note_on_c, 1, 46, 64
4, 3069, Note_on_c, 1, 46, 0
4, 3072, Note_on_c, 1, 50, 64
4, 3117, Note_on_c, 1, 50, 0
4, 3120, Note_on_c, 1, 56, 64
4, 3165, Note_on_c, 1, 56, 0
4, 3168, Note_on_c, 1, 51, 64
4, 3213, Note_on_c, 1, 51, 0
4, 3216, Note_on_c, 1, 55, 64
4, 3261, Note_on_c, 1, 55, 0
4, 3264, Note_on_c, 1, 58, 64
4, 3309, Note_on_c, 1, 58, 0
4, 3312, Note_on_c, 1, 50, 64
4, 3357, Note_on_c, 1, 50, 0
4, 3360, Note_on_c, 1, 55, 64
4, 3405, Note_on_c, 1, 55, 0
4, 3408, Note_on_c, 1, 59, 64
4, 3453, Note_on_c, 1, 59, 0
4, 3456, Note_on_c, 1, 48, 64
4, 3501, Note_on_c, 1, 48, 0
4, 3504, Note_on_c, 1, 51, 64
4, 3549, Note_on_c, 1, 51, 0
4, 3552, Note_on_c, 1, 55, 64
4, 3597, Note_on_c, 1, 55, 0
4, 3600, Note_on_c, 1, 46, 64
4, 3645, Note_on_c, 1, 46, 0
4, 3648, Note_on_c, 1, 50, 64
4, 3693, Note_on_c, 1, 50, 0
4, 3696, Note_on_c, 1, 55, 64
4, 3741, Note_on_c, 1, 55, 0
4, 3744, Note_on_c, 1, 45, 64
4, 3789, Note_on_c, 1, 45, 0
4, 3792, Note_on_c, 1, 48, 64
4, 3837, Note_on_c, 1, 48, 0
4, 3840, Note_on_c, 1, 51, 64
4, 3885, Note_on_c, 1, 51, 0
4, 3888, Note_on_c, 1, 43, 64
4, 3933, Note_on_c, 1, 43, 0
4, 3936, Note_on_c, 1, 46, 64
4, 3981, Note_on_c, 1, 46, 0
4, 3984, Note_on_c, 1, 51, 64
4, 4029, Note_on_c, 1, 51, 0
4, 4032, Note_on_c, 1, 42, 64
4, 4077, Note_on_c, 1, 42, 0
4, 4080, Note_on_c, 1, 45, 64
4, 4125, Note_on_c, 1, 45, 0
4, 4128, Note_on_c, 1, 48, 64
4, 4173, Note_on_c, 1, 48, 0
4, 4176, Note_on_c, 1, 38, 64
4, 4221, Note_on_c, 1, 38, 0
4, 4224, Note_on_c, 1, 45, 64
4, 4269, Note_on_c, 1, 45, 0
4, 4272, Note_on_c, 1, 50, 64
4, 4317, Note_on_c, 1, 50, 0
4, 4320, Note_on_c, 1, 43, 64
4, 4453, Note_on_c, 1, 43, 0
4, 4464, Note_on_c, 1, 43, 64
4, 4487, Note_on_c, 1, 43, 0
4, 4488, Note_on_c, 1, 47, 64
4, 4511, Note_on_c, 1, 47, 0
4, 4512, Note_on_c, 1, 50, 64
4, 4535, Note_on_c, 1, 50, 0
4, 4536, Note_on_c, 1, 53, 64
4, 4559, Note_on_c, 1, 53, 0
4, 4560, Note_on_c, 1, 50, 64
4, 4583, Note_on_c, 1, 50, 0
4, 4584, Note_on_c, 1, 47, 64
4, 4607, Note_on_c, 1, 47, 0
4, 4608, Note_on_c, 1, 48, 64
4, 4653, Note_on_c, 1, 48, 0
4, 4656, Note_on_c, 1, 51, 64
4, 4701, Note_on_c, 1, 51, 0
4, 4704, Note_on_c, 1, 55, 64
4, 4749, Note_on_c, 1, 55, 0
4, 4752, Note_on_c, 1, 46, 64
4, 4797, Note_on_c, 1, 46, 0
4, 4800, Note_on_c, 1, 51, 64
4, 4845, Note_on_c, 1, 51, 0
4, 4848, Note_on_c, 1, 55, 64
4, 4893, Note_on_c, 1, 55, 0
4, 4896, Note_on_c, 1, 44, 64
4, 4941, Note_on_c, 1, 44, 0
4, 4944, Note_on_c, 1, 48, 64
4, 4989, Note_on_c, 1, 48, 0
4, 4992, Note_on_c, 1, 53, 64
4, 5037, Note_on_c, 1, 53, 0
4, 5040, Note_on_c, 1, 43, 64
4, 5085, Note_on_c, 1, 43, 0
4, 5088, Note_on_c, 1, 46, 64
4, 5133, Note_on_c, 1, 46, 0
4, 5136, Note_on_c, 1, 52, 64
4, 5181, Note_on_c, 1, 52, 0
4, 5184, Note_on_c, 1, 41, 64
4, 5229, Note_on_c, 1, 41, 0
4, 5232, Note_on_c, 1, 44, 64
4, 5277, Note_on_c, 1, 44, 0
4, 5280, Note_on_c, 1, 48, 64
4, 5325, Note_on_c, 1, 48, 0
4, 5328, Note_on_c, 1, 39, 64
4, 5373, Note_on_c, 1, 39, 0
4, 5376, Note_on_c, 1, 44, 64
4, 5421, Note_on_c, 1, 44, 0
4, 5424, Note_on_c, 1, 48, 64
4, 5469, Note_on_c, 1, 48, 0
4, 5472, Note_on_c, 1, 38, 64
4, 5517, Note_on_c, 1, 38, 0
4, 5520, Note_on_c, 1, 41, 64
4, 5565, Note_on_c, 1, 41, 0
4, 5568, Note_on_c, 1, 44, 64
4, 5613, Note_on_c, 1, 44, 0
4, 5616, Note_on_c, 1, 36, 64
4, 5661, Note_on_c, 1, 36, 0
4, 5664, Note_on_c, 1, 41, 64
4, 5709, Note_on_c, 1, 41, 0
4, 5712, Note_on_c, 1, 44, 64
4, 5757, Note_on_c, 1, 44, 0
4, 5760, Note_on_c, 1, 47, 64
4, 5805, Note_on_c, 1, 47, 0
4, 5808, Note_on_c, 1, 53, 64
4, 5853, Note_on_c, 1, 53, 0
4, 5856, Note_on_c, 1, 56, 64
4, 5901, Note_on_c, 1, 56, 0
4, 5904, Note_on_c, 1, 43, 64
4, 5949, Note_on_c, 1, 43, 0
4, 5952, Note_on_c, 1, 50, 64
4, 5997, Note_on_c, 1, 50, 0
4, 6000, Note_on_c, 1, 55, 64
4, 6045, Note_on_c, 1, 55, 0
4, 6048, Note_on_c, 1, 48, 64
4, 6093, Note_on_c, 1, 48, 0
4, 6096, Note_on_c, 1, 51, 64
4, 6141, Note_on_c, 1, 51, 0
4, 6144, Note_on_c, 1, 55, 64
4, 6189, Note_on_c, 1, 55, 0
4, 6192, Note_on_c, 1, 46, 64
4, 6237, Note_on_c, 1, 46, 0
4, 6240, Note_on_c, 1, 51, 64
4, 6285, Note_on_c, 1, 51, 0
4, 6288, Note_on_c, 1, 55, 64
4, 6333, Note_on_c, 1, 55, 0
4, 6336, Note_on_c, 1, 44, 64
4, 6381, Note_on_c, 1, 44, 0
4, 6384, Note_on_c, 1, 48, 64
4, 6429, Note_on_c, 1, 48, 0
4, 6432, Note_on_c, 1, 53, 64
4, 6477, Note_on_c, 1, 53, 0
4, 6480, Note_on_c, 1, 43, 64
4, 6525, Note_on_c, 1, 43, 0
4, 6528, Note_on_c, 1, 46, 64
4, 6573, Note_on_c, 1, 46, 0
4, 6576, Note_on_c, 1, 51, 64
4, 6621, Note_on_c, 1, 51, 0
4, 6624, Note_on_c, 1, 53, 64
4, 6669, Note_on_c, 1, 53, 0
4, 6672, Note_on_c, 1, 56, 64
4, 6717, Note_on_c, 1, 56, 0
4, 6720, Note_on_c, 1, 60, 64
4, 6765, Note_on_c, 1, 60, 0
4, 6768, Note_on_c, 1, 51, 64
4, 6813, Note_on_c, 1, 51, 0
4, 6816, Note_on_c, 1, 56, 64
4, 6861, Note_on_c, 1, 56, 0
4, 6864, Note_on_c, 1, 60, 64
4, 6909, Note_on_c, 1, 60, 0
4, 6912, Note_on_c, 1, 50, 64
4, 6957, Note_on_c, 1, 50, 0
4, 6960, Note_on_c, 1, 53, 64
4, 7005, Note_on_c, 1, 53, 0
4, 7008, Note_on_c, 1, 56, 64
4, 7053, Note_on_c, 1, 56, 0
4, 7056, Note_on_c, 1, 51, 64
4, 7101, Note_on_c, 1, 51, 0
4, 7104, Note_on_c, 1, 53, 64
4, 7149, Note_on_c, 1, 53, 0
4, 7152, Note_on_c, 1, 55, 64
4, 7197, Note_on_c, 1, 55, 0
4, 7200, Note_on_c, 1, 44, 64
4, 7245, Note_on_c, 1, 44, 0
4, 7248, Note_on_c, 1, 50, 64
4, 7293, Note_on_c, 1, 50, 0
4, 7296, Note_on_c, 1, 53, 64
4, 7341, Note_on_c, 1, 53, 0
4, 7344, Note_on_c, 1, 45, 64
4, 7389, Note_on_c, 1, 45, 0
4, 7392, Note_on_c, 1, 48, 64
4, 7437, Note_on_c, 1, 48, 0
4, 7440, Note_on_c, 1, 51, 64
4, 7485, Note_on_c, 1, 51, 0
4, 7488, Note_on_c, 1, 46, 64
4, 7533, Note_on_c, 1, 46, 0
4, 7536, Note_on_c, 1, 51, 64
4, 7581, Note_on_c, 1, 51, 0
4, 7584, Note_on_c, 1, 53, 64
4, 7629, Note_on_c, 1, 53, 0
4, 7632, Note_on_c, 1, 46, 64
4, 7677, Note_on_c, 1, 46, 0
4, 7680, Note_on_c, 1, 50, 64
4, 7725, Note_on_c, 1, 50, 0
4, 7728, Note_on_c, 1, 56, 64
4, 7773, Note_on_c, 1, 56, 0
4, 7776, Note_on_c, 1, 51, 64
4, 7821, Note_on_c, 1, 51, 0
4, 7824, Note_on_c, 1, 55, 64
4, 7869, Note_on_c, 1, 55, 0
4, 7872, Note_on_c, 1, 58, 64
4, 7917, Note_on_c, 1, 58, 0
4, 7920, Note_on_c, 1, 50, 64
4, 7965, Note_on_c, 1, 50, 0
4, 7968, Note_on_c, 1, 55, 64
4, 8013, Note_on_c, 1, 55, 0
4, 8016, Note_on_c, 1, 59, 64
4, 8061, Note_on_c, 1, 59, 0
4, 8064, Note_on_c, 1, 48, 64
4, 8109, Note_on_c, 1, 48, 0
4, 8112, Note_on_c, 1, 51, 64
4, 8157, Note_on_c, 1, 51, 0
4, 8160, Note_on_c, 1, 55, 64
4, 8205, Note_on_c, 1, 55, 0
4, 8208, Note_on_c, 1, 46, 64
4, 8253, Note_on_c, 1, 46, 0
4, 8256, Note_on_c, 1, 50, 64
4, 8301, Note_on_c, 1, 50, 0
4, 8304, Note_on_c, 1, 55, 64
4, 8349, Note_on_c, 1, 55, 0
4, 8352, Note_on_c, 1, 45, 64
4, 8397, Note_on_c, 1, 45, 0
4, 8400, Note_on_c, 1, 48, 64
4, 8445, Note_on_c, 1, 48, 0
4, 8448, Note_on_c, 1, 51, 64
4, 8493, Note_on_c, 1, 51, 0
4, 8496, Note_on_c, 1, 43, 64
4, 8541, Note_on_c, 1, 43, 0
4, 8544, Note_on_c, 1, 46, 64
4, 8589, Note_on_c, 1, 46, 0
4, 8592, Note_on_c, 1, 51, 64
4, 8637, Note_on_c, 1, 51, 0
4, 8640, Note_on_c, 1, 42, 64
4, 8685, Note_on_c, 1, 42, 0
4, 8688, Note_on_c, 1, 45, 64
4, 8733, Note_on_c, 1, 45, 0
4, 8736, Note_on_c, 1, 48, 64
4, 8781, Note_on_c, 1, 48, 0
4, 8784, Note_on_c, 1, 38, 64
4, 8829, Note_on_c, 1, 38, 0
4, 8832, Note_on_c, 1, 45, 64
4, 8877, Note_on_c, 1, 45, 0
4, 8880, Note_on_c, 1, 50, 64
4, 8925, Note_on_c, 1, 50, 0
4, 8928, Note_on_c, 1, 43, 64
4, 9193, Note_on_c, 1, 43, 0
4, 9216, Note_on_c, 1, 43, 64
4, 9261, Note_on_c, 1, 43, 0
4, 9264, Note_on_c, 1, 47, 64
4, 9309, Note_on_c, 1, 47, 0
4, 9312, Note_on_c, 1, 50, 64
4, 9357, Note_on_c, 1, 50, 0
4, 9360, Note_on_c, 1, 55, 64
4, 9405, Note_on_c, 1, 55, 0
4, 9408, Note_on_c, 1, 59, 64
4, 9453, Note_on_c, 1, 59, 0
4, 9456, Note_on_c, 1, 62, 64
4, 9501, Note_on_c, 1, 62, 0
4, 9504, Note_on_c, 1, 60, 64
4, 9549, Note_on_c, 1, 60, 0
4, 9552, Note_on_c, 1, 63, 64
4, 9597, Note_on_c, 1, 63, 0
4, 9600, Note_on_c, 1, 67, 64
4, 9645, Note_on_c, 1, 67, 0
4, 9648, Note_on_c, 1, 55, 64
4, 9693, Note_on_c, 1, 55, 0
4, 9696, Note_on_c, 1, 60, 64
4, 9741, Note_on_c, 1, 60, 0
4, 9744, Note_on_c, 1, 63, 64
4, 9789, Note_on_c, 1, 63, 0
4, 9792, Note_on_c, 1, 52, 64
4, 9837, Note_on_c, 1, 52, 0
4, 9840, Note_on_c, 1, 55, 64
4, 9885, Note_on_c, 1, 55, 0
4, 9888, Note_on_c, 1, 58, 64
4, 9933, Note_on_c, 1, 58, 0
4, 9936, Note_on_c, 1, 48, 64
4, 9981, Note_on_c, 1, 48, 0
4, 9984, Note_on_c, 1, 55, 64
4, 10029, Note_on_c, 1, 55, 0
4, 10032, Note_on_c, 1, 60, 64
4, 10077, Note_on_c, 1, 60, 0
4, 10080, Note_on_c, 1, 41, 64
4, 10125, Note_on_c, 1, 41, 0
4, 10128, Note_on_c, 1, 44, 64
4, 10173, Note_on_c, 1, 44, 0
4, 10176, Note_on_c, 1, 48, 64
4, 10221, Note_on_c, 1, 48, 0
4, 10224, Note_on_c, 1, 44, 64
4, 10269, Note_on_c, 1, 44, 0
4, 10272, Note_on_c, 1, 48, 64
4, 10317, Note_on_c, 1, 48, 0
4, 10320, Note_on_c, 1, 53, 64
4, 10365, Note_on_c, 1, 53, 0
4, 10368, Note_on_c, 1, 46, 64
4, 10413, Note_on_c, 1, 46, 0
4, 10416, Note_on_c, 1, 53, 64
4, 10461, Note_on_c, 1, 53, 0
4, 10464, Note_on_c, 1, 58, 64
4, 10509, Note_on_c, 1, 58, 0
4, 10512, Note_on_c, 1, 48, 64
4, 10557, Note_on_c, 1, 48, 0
4, 10560, Note_on_c, 1, 51, 64
4, 10605, Note_on_c, 1, 51, 0
4, 10608, Note_on_c, 1, 57, 64
4, 10653, Note_on_c, 1, 57, 0
4, 10656, Note_on_c, 1, 49, 64
4, 10701, Note_on_c, 1, 49, 0
4, 10704, Note_on_c, 1, 53, 64
4, 10749, Note_on_c, 1, 53, 0
4, 10752, Note_on_c, 1, 58, 64
4, 10797, Note_on_c, 1, 58, 0
4, 10800, Note_on_c, 1, 48, 64
4, 10845, Note_on_c, 1, 48, 0
4, 10848, Note_on_c, 1, 51, 64
4, 10893, Note_on_c, 1, 51, 0
4, 10896, Note_on_c, 1, 56, 64
4, 10941, Note_on_c, 1, 56, 0
4, 10944, Note_on_c, 1, 46, 64
4, 10989, Note_on_c, 1, 46, 0
4, 10992, Note_on_c, 1, 49, 64
4, 11037, Note_on_c, 1, 49, 0
4, 11040, Note_on_c, 1, 55, 64
4, 11085, Note_on_c, 1, 55, 0
4, 11088, Note_on_c, 1, 48, 64
4, 11133, Note_on_c, 1, 48, 0
4, 11136, Note_on_c, 1, 53, 64
4, 11181, Note_on_c, 1, 53, 0
4, 11184, Note_on_c, 1, 60, 64
4, 11229, Note_on_c, 1, 60, 0
4, 11232, Note_on_c, 1, 41, 64
4, 11277, Note_on_c, 1, 41, 0
4, 11280, Note_on_c, 1, 44, 64
4, 11325, Note_on_c, 1, 44, 0
4, 11328, Note_on_c, 1, 48, 64
4, 11373, Note_on_c, 1, 48, 0
4, 11376, Note_on_c, 1, 44, 64
4, 11421, Note_on_c, 1, 44, 0
4, 11424, Note_on_c, 1, 48, 64
4, 11469, Note_on_c, 1, 48, 0
4, 11472, Note_on_c, 1, 53, 64
4, 11517, Note_on_c, 1, 53, 0
4, 11520, Note_on_c, 1, 46, 64
4, 11565, Note_on_c, 1, 46, 0
4, 11568, Note_on_c, 1, 50, 64
4, 11613, Note_on_c, 1, 50, 0
4, 11616, Note_on_c, 1, 58, 64
4, 11661, Note_on_c, 1, 58, 0
4, 11664, Note_on_c, 1, 48, 64
4, 11709, Note_on_c, 1, 48, 0
4, 11712, Note_on_c, 1, 51, 64
4, 11757, Note_on_c, 1, 51, 0
4, 11760, Note_on_c, 1, 56, 64
4, 11805, Note_on_c, 1, 56, 0
4, 11808, Note_on_c, 1, 50, 64
4, 11853, Note_on_c, 1, 50, 0
4, 11856, Note_on_c, 1, 53, 64
4, 11901, Note_on_c, 1, 53, 0
4, 11904, Note_on_c, 1, 56, 64
4, 11949, Note_on_c, 1, 56, 0
4, 11952, Note_on_c, 1, 46, 64
4, 11997, Note_on_c, 1, 46, 0
4, 12000, Note_on_c, 1, 50, 64
4, 12045, Note_on_c, 1, 50, 0
4, 12048, Note_on_c, 1, 58, 64
4, 12093, Note_on_c, 1, 58, 0
4, 12096, Note_on_c, 1, 51, 64
4, 12141, Note_on_c, 1, 51, 0
4, 12144, Note_on_c, 1, 55, 64
4, 12189, Note_on_c, 1, 55, 0
4, 12192, Note_on_c, 1, 60, 64
4, 12237, Note_on_c, 1, 60, 0
4, 12240, Note_on_c, 1, 53, 64
4, 12285, Note_on_c, 1, 53, 0
4, 12288, Note_on_c, 1, 56, 64
4, 12333, Note_on_c, 1, 56, 0
4, 12336, Note_on_c, 1, 62, 64
4, 12381, Note_on_c, 1, 62, 0
4, 12384, Note_on_c, 1, 55, 64
4, 12429, Note_on_c, 1, 55, 0
4, 12432, Note_on_c, 1, 59, 64
4, 12477, Note_on_c, 1, 59, 0
4, 12480, Note_on_c, 1, 62, 64
4, 12525, Note_on_c, 1, 62, 0
4, 12528, Note_on_c, 1, 53, 64
4, 12573, Note_on_c, 1, 53, 0
4, 12576, Note_on_c, 1, 59, 64
4, 12621, Note_on_c, 1, 59, 0
4, 12624, Note_on_c, 1, 62, 64
4, 12669, Note_on_c, 1, 62, 0
4, 12672, Note_on_c, 1, 51, 64
4, 12717, Note_on_c, 1, 51, 0
4, 12720, Note_on_c, 1, 55, 64
4, 12765, Note_on_c, 1, 55, 0
4, 12768, Note_on_c, 1, 60, 64
4, 12813, Note_on_c, 1, 60, 0
4, 12816, Note_on_c, 1, 48, 64
4, 12861, Note_on_c, 1, 48, 0
4, 12864, Note_on_c, 1, 51, 64
4, 12909, Note_on_c, 1, 51, 0
4, 12912, Note_on_c, 1, 55, 64
4, 12957, Note_on_c, 1, 55, 0
4, 12960, Note_on_c, 1, 44, 64
4, 13005, Note_on_c, 1, 44, 0
4, 13008, Note_on_c, 1, 48, 64
4, 13053, Note_on_c, 1, 48, 0
4, 13056, Note_on_c, 1, 53, 64
4, 13101, Note_on_c, 1, 53, 0
4, 13104, Note_on_c, 1, 43, 64
4, 13149, Note_on_c, 1, 43, 0
4, 13152, Note_on_c, 1, 48, 64
4, 13197, Note_on_c, 1, 48, 0
4, 13200, Note_on_c, 1, 51, 64
4, 13245, Note_on_c, 1, 51, 0
4, 13248, Note_on_c, 1, 41, 64
4, 13293, Note_on_c, 1, 41, 0
4, 13296, Note_on_c, 1, 48, 64
4, 13341, Note_on_c, 1, 48, 0
4, 13344, Note_on_c, 1, 50, 64
4, 13389, Note_on_c, 1, 50, 0
4, 13392, Note_on_c, 1, 43, 64
4, 13437, Note_on_c, 1, 43, 0
4, 13440, Note_on_c, 1, 47, 64
4, 13485, Note_on_c, 1, 47, 0
4, 13488, Note_on_c, 1, 55, 64
4, 13533, Note_on_c, 1, 55, 0
4, 13536, Note_on_c, 1, 48, 64
4, 13581, Note_on_c, 1, 48, 0
4, 13584, Note_on_c, 1, 51, 64
4, 13629, Note_on_c, 1, 51, 0
4, 13632, Note_on_c, 1, 55, 64
4, 13677, Note_on_c, 1, 55, 0
4, 13680, Note_on_c, 1, 46, 64
4, 13725, Note_on_c, 1, 46, 0
4, 13728, Note_on_c, 1, 51, 64
4, 13773, Note_on_c, 1, 51, 0
4, 13776, Note_on_c, 1, 55, 64
4, 13821, Note_on_c, 1, 55, 0
4, 13824, Note_on_c, 1, 44, 64
4, 13869, Note_on_c, 1, 44, 0
4, 13872, Note_on_c, 1, 48, 64
4, 13917, Note_on_c, 1, 48, 0
4, 13920, Note_on_c, 1, 50, 64
4, 13965, Note_on_c, 1, 50, 0
4, 13968, Note_on_c, 1, 43, 64
4, 14013, Note_on_c, 1, 43, 0
4, 14016, Note_on_c, 1, 46, 64
4, 14061, Note_on_c, 1, 46, 0
4, 14064, Note_on_c, 1, 51, 64
4, 14109, Note_on_c, 1, 51, 0
4, 14112, Note_on_c, 1, 41, 64
4, 14157, Note_on_c, 1, 41, 0
4, 14160, Note_on_c, 1, 44, 64
4, 14205, Note_on_c, 1, 44, 0
4, 14208, Note_on_c, 1, 53, 64
4, 14253, Note_on_c, 1, 53, 0
4, 14256, Note_on_c, 1, 39, 64
4, 14301, Note_on_c, 1, 39, 0
4, 14304, Note_on_c, 1, 43, 64
4, 14349, Note_on_c, 1, 43, 0
4, 14352, Note_on_c, 1, 48, 64
4, 14397, Note_on_c, 1, 48, 0
4, 14400, Note_on_c, 1, 38, 64
4, 14445, Note_on_c, 1, 38, 0
4, 14448, Note_on_c, 1, 48, 64
4, 14493, Note_on_c, 1, 48, 0
4, 14496, Note_on_c, 1, 47, 64
4, 14541, Note_on_c, 1, 47, 0
4, 14544, Note_on_c, 1, 48, 64
4, 14589, Note_on_c, 1, 48, 0
4, 14592, Note_on_c, 1, 39, 64
4, 14637, Note_on_c, 1, 39, 0
4, 14640, Note_on_c, 1, 43, 64
4, 14685, Note_on_c, 1, 43, 0
4, 14688, Note_on_c, 1, 48, 64
4, 14711, Note_on_c, 1, 48, 0
4, 14712, Note_on_c, 1, 51, 64
4, 14735, Note_on_c, 1, 51, 0
4, 14736, Note_on_c, 1, 48, 64
4, 14759, Note_on_c, 1, 48, 0
4, 14760, Note_on_c, 1, 43, 64
4, 14783, Note_on_c, 1, 43, 0
4, 14784, Note_on_c, 1, 39, 64
4, 14807, Note_on_c, 1, 39, 0
4, 14808, Note_on_c, 1, 43, 64
4, 14831, Note_on_c, 1, 43, 0
4, 14832, Note_on_c, 1, 36, 64
4, 14965, Note_on_c, 1, 36, 0
4, 14976, Note_on_c, 1, 43, 64
4, 15021, Note_on_c, 1, 43, 0
4, 15024, Note_on_c, 1, 47, 64
4, 15069, Note_on_c, 1, 47, 0
4, 15072, Note_on_c, 1, 50, 64
4, 15117, Note_on_c, 1, 50, 0
4, 15120, Note_on_c, 1, 55, 64
4, 15165, Note_on_c, 1, 55, 0
4, 15168, Note_on_c, 1, 59, 64
4, 15213, Note_on_c, 1, 59, 0
4, 15216, Note_on_c, 1, 62, 64
4, 15261, Note_on_c, 1, 62, 0
4, 15264, Note_on_c, 1, 60, 64
4, 15309, Note_on_c, 1, 60, 0
4, 15312, Note_on_c, 1, 63, 64
4, 15357, Note_on_c, 1, 63, 0
4, 15360, Note_on_c, 1, 67, 64
4, 15405, Note_on_c, 1, 67, 0
4, 15408, Note_on_c, 1, 55, 64
4, 15453, Note_on_c, 1, 55, 0
4, 15456, Note_on_c, 1, 60, 64
4, 15501, Note_on_c, 1, 60, 0
4, 15504, Note_on_c, 1, 63, 64
4, 15549, Note_on_c, 1, 63, 0
4, 15552, Note_on_c, 1, 52, 64
4, 15597, Note_on_c, 1, 52, 0
4, 15600, Note_on_c, 1, 55, 64
4, 15645, Note_on_c, 1, 55, 0
4, 15648, Note_on_c, 1, 58, 64
4, 15693, Note_on_c, 1, 58, 0
4, 15696, Note_on_c, 1, 48, 64
4, 15741, Note_on_c, 1, 48, 0
4, 15744, Note_on_c, 1, 55, 64
4, 15789, Note_on_c, 1, 55, 0
4, 15792, Note_on_c, 1, 60, 64
4, 15837, Note_on_c, 1, 60, 0
4, 15840, Note_on_c, 1, 41, 64
4, 15885, Note_on_c, 1, 41, 0
4, 15888, Note_on_c, 1, 44, 64
4, 15933, Note_on_c, 1, 44, 0
4, 15936, Note_on_c, 1, 48, 64
4, 15981, Note_on_c, 1, 48, 0
4, 15984, Note_on_c, 1, 44, 64
4, 16029, Note_on_c, 1, 44, 0
4, 16032, Note_on_c, 1, 48, 64
4, 16077, Note_on_c, 1, 48, 0
4, 16080, Note_on_c, 1, 53, 64
4, 16125, Note_on_c, 1, 53, 0
4, 16128, Note_on_c, 1, 46, 64
4, 16173, Note_on_c, 1, 46, 0
4, 16176, Note_on_c, 1, 53, 64
4, 16221, Note_on_c, 1, 53, 0
4, 16224, Note_on_c, 1, 58, 64
4, 16269, Note_on_c, 1, 58, 0
4, 16272, Note_on_c, 1, 48, 64
4, 16317, Note_on_c, 1, 48, 0
4, 16320, Note_on_c, 1, 51, 64
4, 16365, Note_on_c, 1, 51, 0
4, 16368, Note_on_c, 1, 57, 64
4, 16413, Note_on_c, 1, 57, 0
4, 16416, Note_on_c, 1, 49, 64
4, 16461, Note_on_c, 1, 49, 0
4, 16464, Note_on_c, 1, 53, 64
4, 16509, Note_on_c, 1, 53, 0
4, 16512, Note_on_c, 1, 58, 64
4, 16557, Note_on_c, 1, 58, 0
4, 16560, Note_on_c, 1, 48, 64
4, 16605, Note_on_c, 1, 48, 0
4, 16608, Note_on_c, 1, 51, 64
4, 16653, Note_on_c, 1, 51, 0
4, 16656, Note_on_c, 1, 55, 64
4, 16701, Note_on_c, 1, 55, 0
4, 16704, Note_on_c, 1, 46, 64
4, 16749, Note_on_c, 1, 46, 0
4, 16752, Note_on_c, 1, 49, 64
4, 16797, Note_on_c, 1, 49, 0
4, 16800, Note_on_c, 1, 55, 64
4, 16845, Note_on_c, 1, 55, 0
4, 16848, Note_on_c, 1, 48, 64
4, 16893, Note_on_c, 1, 48, 0
4, 16896, Note_on_c, 1, 53, 64
4, 16941, Note_on_c, 1, 53, 0
4, 16944, Note_on_c, 1, 60, 64
4, 16989, Note_on_c, 1, 60, 0
4, 16992, Note_on_c, 1, 41, 64
4, 17037, Note_on_c, 1, 41, 0
4, 17040, Note_on_c, 1, 44, 64
4, 17085, Note_on_c, 1, 44, 0
4, 17088, Note_on_c, 1, 48, 64
4, 17133, Note_on_c, 1, 48, 0
4, 17136, Note_on_c, 1, 44, 64
4, 17181, Note_on_c, 1, 44, 0
4, 17184, Note_on_c, 1, 48, 64
4, 17229, Note_on_c, 1, 48, 0
4, 17232, Note_on_c, 1, 53, 64
4, 17277, Note_on_c, 1, 53, 0
4, 17280, Note_on_c, 1, 46, 64
4, 17325, Note_on_c, 1, 46, 0
4, 17328, Note_on_c, 1, 50, 64
4, 17373, Note_on_c, 1, 50, 0
4, 17376, Note_on_c, 1, 58, 64
4, 17421, Note_on_c, 1, 58, 0
4, 17424, Note_on_c, 1, 48, 64
4, 17469, Note_on_c, 1, 48, 0
4, 17472, Note_on_c, 1, 51, 64
4, 17517, Note_on_c, 1, 51, 0
4, 17520, Note_on_c, 1, 56, 64
4, 17565, Note_on_c, 1, 56, 0
4, 17568, Note_on_c, 1, 50, 64
4, 17613, Note_on_c, 1, 50, 0
4, 17616, Note_on_c, 1, 53, 64
4, 17661, Note_on_c, 1, 53, 0
4, 17664, Note_on_c, 1, 56, 64
4, 17709, Note_on_c, 1, 56, 0
4, 17712, Note_on_c, 1, 46, 64
4, 17757, Note_on_c, 1, 46, 0
4, 17760, Note_on_c, 1, 50, 64
4, 17805, Note_on_c, 1, 50, 0
4, 17808, Note_on_c, 1, 58, 64
4, 17853, Note_on_c, 1, 58, 0
4, 17856, Note_on_c, 1, 51, 64
4, 17901, Note_on_c, 1, 51, 0
4, 17904, Note_on_c, 1, 55, 64
4, 17949, Note_on_c, 1, 55, 0
4, 17952, Note_on_c, 1, 60, 64
4, 17997, Note_on_c, 1, 60, 0
4, 18000, Note_on_c, 1, 53, 64
4, 18045, Note_on_c, 1, 53, 0
4, 18048, Note_on_c, 1, 56, 64
4, 18093, Note_on_c, 1, 56, 0
4, 18096, Note_on_c, 1, 62, 64
4, 18141, Note_on_c, 1, 62, 0
4, 18144, Note_on_c, 1, 55, 64
4, 18189, Note_on_c, 1, 55, 0
4, 18192, Note_on_c, 1, 59, 64
4, 18237, Note_on_c, 1, 59, 0
4, 18240, Note_on_c, 1, 62, 64
4, 18285, Note_on_c, 1, 62, 0
4, 18288, Note_on_c, 1, 53, 64
4, 18333, Note_on_c, 1, 53, 0
4, 18336, Note_on_c, 1, 59, 64
4, 18381, Note_on_c, 1, 59, 0
4, 18384, Note_on_c, 1, 62, 64
4, 18429, Note_on_c, 1, 62, 0
4, 18432, Note_on_c, 1, 51, 64
4, 18477, Note_on_c, 1, 51, 0
4, 18480, Note_on_c, 1, 55, 64
4, 18525, Note_on_c, 1, 55, 0
4, 18528, Note_on_c, 1, 60, 64
4, 18573, Note_on_c, 1, 60, 0
4, 18576, Note_on_c, 1, 48, 64
4, 18621, Note_on_c, 1, 48, 0
4, 18624, Note_on_c, 1, 51, 64
4, 18669, Note_on_c, 1, 51, 0
4, 18672, Note_on_c, 1, 55, 64
4, 18717, Note_on_c, 1, 55, 0
4, 18720, Note_on_c, 1, 44, 64
4, 18765, Note_on_c, 1, 44, 0
4, 18768, Note_on_c, 1, 48, 64
4, 18813, Note_on_c, 1, 48, 0
4, 18816, Note_on_c, 1, 53, 64
4, 18861, Note_on_c, 1, 53, 0
4, 18864, Note_on_c, 1, 43, 64
4, 18909, Note_on_c, 1, 43, 0
4, 18912, Note_on_c, 1, 48, 64
4, 18957, Note_on_c, 1, 48, 0
4, 18960, Note_on_c, 1, 51, 64
4, 19005, Note_on_c, 1, 51, 0
4, 19008, Note_on_c, 1, 41, 64
4, 19053, Note_on_c, 1, 41, 0
4, 19056, Note_on_c, 1, 48, 64
4, 19101, Note_on_c, 1, 48, 0
4, 19104, Note_on_c, 1, 50, 64
4, 19149, Note_on_c, 1, 50, 0
4, 19152, Note_on_c, 1, 43, 64
4, 19197, Note_on_c, 1, 43, 0
4, 19200, Note_on_c, 1, 47, 64
4, 19245, Note_on_c, 1, 47, 0
4, 19248, Note_on_c, 1, 55, 64
4, 19293, Note_on_c, 1, 55, 0
4, 19296, Note_on_c, 1, 48, 64
4, 19341, Note_on_c, 1, 48, 0
4, 19344, Note_on_c, 1, 51, 64
4, 19389, Note_on_c, 1, 51, 0
4, 19392, Note_on_c, 1, 55, 64
4, 19437, Note_on_c, 1, 55, 0
4, 19440, Note_on_c, 1, 46, 64
4, 19485, Note_on_c, 1, 46, 0
4, 19488, Note_on_c, 1, 51, 64
4, 19533, Note_on_c, 1, 51, 0
4, 19536, Note_on_c, 1, 55, 64
4, 19581, Note_on_c, 1, 55, 0
4, 19584, Note_on_c, 1, 44, 64
4, 19629, Note_on_c, 1, 44, 0
4, 19632, Note_on_c, 1, 48, 64
4, 19677, Note_on_c, 1, 48, 0
4, 19680, Note_on_c, 1, 50, 64
4, 19725, Note_on_c, 1, 50, 0
4, 19728, Note_on_c, 1, 43, 64
4, 19773, Note_on_c, 1, 43, 0
4, 19776, Note_on_c, 1, 46, 64
4, 19821, Note_on_c, 1, 46, 0
4, 19824, Note_on_c, 1, 51, 64
4, 19869, Note_on_c, 1, 51, 0
4, 19872, Note_on_c, 1, 41, 64
4, 19917, Note_on_c, 1, 41, 0
4, 19920, Note_on_c, 1, 44, 64
4, 19965, Note_on_c, 1, 44, 0
4, 19968, Note_on_c, 1, 53, 64
4, 20013, Note_on_c, 1, 53, 0
4, 20016, Note_on_c, 1, 39, 64
4, 20061, Note_on_c, 1, 39, 0
4, 20064, Note_on_c, 1, 43, 64
4, 20109, Note_on_c, 1, 43, 0
4, 20112, Note_on_c, 1, 48, 64
4, 20157, Note_on_c, 1, 48, 0
4, 20160, Note_on_c, 1, 38, 64
4, 20205, Note_on_c, 1, 38, 0
4, 20208, Note_on_c, 1, 48, 64
4, 20253, Note_on_c, 1, 48, 0
4, 20256, Note_on_c, 1, 47, 64
4, 20301, Note_on_c, 1, 47, 0
4, 20304, Note_on_c, 1, 48, 64
4, 20349, Note_on_c, 1, 48, 0
4, 20352, Note_on_c, 1, 39, 64
4, 20397, Note_on_c, 1, 39, 0
4, 20400, Note_on_c, 1, 43, 64
4, 20445, Note_on_c, 1, 43, 0
4, 20448, Note_on_c, 1, 48, 64
4, 20471, Note_on_c, 1, 48, 0
4, 20472, Note_on_c, 1, 51, 64
4, 20495, Note_on_c, 1, 51, 0
4, 20496, Note_on_c, 1, 48, 64
4, 20519, Note_on_c, 1, 48, 0
4, 20520, Note_on_c, 1, 43, 64
4, 20543, Note_on_c, 1, 43, 0
4, 20544, Note_on_c, 1, 39, 64
4, 20567, Note_on_c, 1, 39, 0
4, 20568, Note_on_c, 1, 43, 64
4, 20591, Note_on_c, 1, 43, 0
4, 20592, Note_on_c, 1, 36, 64
4, 20725, Note_on_c, 1, 36, 0
4, 20725, End_track
5, 0, Start_track
5, 0, MIDI_port, 0
5, 0, Title_t, "Sonata No. 4 para"
5, 0, End_track
6, 0, Start_track
6, 0, MIDI_port, 0
6, 0, Title_t, "violin y Clavicembalo en C menor"
6, 0, End_track
7, 0, Start_track
7, 0, MIDI_port, 0
7, 0, Title_t, "J. S. Bach (1685-1750)"
7, 0, End_track
8, 0, Start_track
8, 0, MIDI_port, 0
8, 0, Title_t, "Primer Mov: Siciliano"
8, 0, End_track
9, 0, Start_track
9, 0, MIDI_port, 0
9, 0, Title_t, "Copyright Luis Gerardo Barajas"
9, 0, End_track
10, 0, Start_track
10, 0, MIDI_port, 0
10, 0, Title_t, "Bach Keeps RuLiNg"
10, 0, End_track
0, 0, End_of_file
