0, 0, Header, 1, 10, 96
1, 0, Start_track
1, 0, Sequencer_specific, 3, 0, 0, 65
1, 0, Time_signature, 4, 2, 24, 8
1, 0, Key_signature, 3, "major"
1, 0, Tempo, 350877
1, 87160, Tempo, 350877
1, 87184, Tempo, 352941
1, 87208, Tempo, 355030
1, 87232, Tempo, 357143
1, 87248, Tempo, 359281
1, 87272, Tempo, 361446
1, 87296, Tempo, 363636
1, 87312, Tempo, 365854
1, 87336, Tempo, 368098
1, 87360, Tempo, 370370
1, 87376, Tempo, 372671
1, 87400, Tempo, 375000
1, 87424, Tempo, 377358
1, 87440, Tempo, 379747
1, 87464, Tempo, 382166
1, 87488, Tempo, 384615
1, 87512, Tempo, 387097
1, 87528, Tempo, 389610
1, 87552, Tempo, 392157
1, 87576, Tempo, 394737
1, 87592, Tempo, 397351
1, 87616, Tempo, 400000
1, 87640, Tempo, 402685
1, 87656, Tempo, 405405
1, 87680, Tempo, 408163
1, 87704, Tempo, 410959
1, 87720, Tempo, 413793
1, 87728, Tempo, 413793
1, 87736, Tempo, 416667
1, 87744, Tempo, 419580
1, 87760, Tempo, 422535
1, 87768, Tempo, 425532
1, 87776, Tempo, 428571
1, 87792, Tempo, 431655
1, 87800, Tempo, 434783
1, 87816, Tempo, 437956
1, 87824, Tempo, 441176
1, 87832, Tempo, 444444
1, 87848, Tempo, 447761
1, 87856, Tempo, 451128
1, 87864, Tempo, 454545
1, 87880, Tempo, 458015
1, 87888, Tempo, 461538
1, 87896, Tempo, 465116
1, 87912, Tempo, 468750
1, 87920, Tempo, 472441
1, 87936, Tempo, 476190
1, 87944, Tempo, 480000
1, 87952, Tempo, 483871
1, 87968, Tempo, 487805
1, 87976, Tempo, 491803
1, 87984, Tempo, 495868
1, 88000, Tempo, 500000
1, 88008, Tempo, 504202
1, 88016, Tempo, 508475
1, 88032, Tempo, 512821
1, 88040, Tempo, 517241
1, 88046, Tempo, 521739
1, 88070, Tempo, 526316
1, 88078, Tempo, 540541
1, 88078, End_track
2, 0, Start_track
2, 0, MIDI_port, 0
2, 0, Title_t, "Violin"
2, 0, Program_c, 1, 40
2, 0, Control_c, 1, 7, 127
2, 0, Note_on_c, 1, 69, 64
2, 177, Note_on_c, 1, 69, 0
2, 192, Note_on_c, 1, 64, 64
2, 281, Note_on_c, 1, 64, 0
2, 288, Note_on_c, 1, 69, 64
2, 377, Note_on_c, 1, 69, 0
2, 384, Note_on_c, 1, 71, 64
2, 429, Note_on_c, 1, 71, 0
2, 432, Note_on_c, 1, 69, 64
2, 477, Note_on_c, 1, 69, 0
2, 480, Note_on_c, 1, 68, 64
2, 525, Note_on_c, 1, 68, 0
2, 528, Note_on_c, 1, 66, 64
2, 573, Note_on_c, 1, 66, 0
2, 576, Note_on_c, 1, 64, 64
2, 753, Note_on_c, 1, 64, 0
2, 768, Note_on_c, 1, 73, 64
2, 792, Note_on_c, 1, 73, 0
2, 792, Note_on_c, 1, 74, 64
2, 816, Note_on_c, 1, 74, 0
2, 816, Note_on_c, 1, 73, 64
2, 861, Note_on_c, 1, 73, 0
2, 864, Note_on_c, 1, 71, 64
2, 909, Note_on_c, 1, 71, 0
2, 912, Note_on_c, 1, 73, 64
2, 957, Note_on_c, 1, 73, 0
2, 960, Note_on_c, 1, 74, 64
2, 1005, Note_on_c, 1, 74, 0
2, 1008, Note_on_c, 1, 73, 64
2, 1053, Note_on_c, 1, 73, 0
2, 1056, Note_on_c, 1, 71, 64
2, 1101, Note_on_c, 1, 71, 0
2, 1104, Note_on_c, 1, 69, 64
2, 1149, Note_on_c, 1, 69, 0
2, 1152, Note_on_c, 1, 76, 64
2, 1197, Note_on_c, 1, 76, 0
2, 1200, Note_on_c, 1, 74, 64
2, 1245, Note_on_c, 1, 74, 0
2, 1248, Note_on_c, 1, 73, 64
2, 1293, Note_on_c, 1, 73, 0
2, 1296, Note_on_c, 1, 71, 64
2, 1341, Note_on_c, 1, 71, 0
2, 1344, Note_on_c, 1, 69, 64
2, 1433, Note_on_c, 1, 69, 0
2, 1440, Note_on_c, 1, 74, 64
2, 1625, Note_on_c, 1, 74, 0
2, 1632, Note_on_c, 1, 73, 64
2, 1721, Note_on_c, 1, 73, 0
2, 1728, Note_on_c, 1, 71, 64
2, 1773, Note_on_c, 1, 71, 0
2, 1776, Note_on_c, 1, 73, 64
2, 1821, Note_on_c, 1, 73, 0
2, 1824, Note_on_c, 1, 74, 64
2, 1869, Note_on_c, 1, 74, 0
2, 1872, Note_on_c, 1, 71, 64
2, 1917, Note_on_c, 1, 71, 0
2, 1920, Note_on_c, 1, 73, 64
2, 1965, Note_on_c, 1, 73, 0
2, 1968, Note_on_c, 1, 71, 64
2, 2013, Note_on_c, 1, 71, 0
2, 2016, Note_on_c, 1, 69, 64
2, 2061, Note_on_c, 1, 69, 0
2, 2064, Note_on_c, 1, 71, 64
2, 2109, Note_on_c, 1, 71, 0
2, 2112, Note_on_c, 1, 73, 64
2, 2157, Note_on_c, 1, 73, 0
2, 2160, Note_on_c, 1, 75, 64
2, 2205, Note_on_c, 1, 75, 0
2, 2208, Note_on_c, 1, 76, 64
2, 2253, Note_on_c, 1, 76, 0
2, 2256, Note_on_c, 1, 78, 64
2, 2301, Note_on_c, 1, 78, 0
2, 2304, Note_on_c, 1, 80, 64
2, 2349, Note_on_c, 1, 80, 0
2, 2352, Note_on_c, 1, 81, 64
2, 2397, Note_on_c, 1, 81, 0
2, 2400, Note_on_c, 1, 78, 64
2, 2445, Note_on_c, 1, 78, 0
2, 2448, Note_on_c, 1, 80, 64
2, 2493, Note_on_c, 1, 80, 0
2, 2496, Note_on_c, 1, 81, 64
2, 2541, Note_on_c, 1, 81, 0
2, 2544, Note_on_c, 1, 80, 64
2, 2589, Note_on_c, 1, 80, 0
2, 2592, Note_on_c, 1, 78, 64
2, 2637, Note_on_c, 1, 78, 0
2, 2640, Note_on_c, 1, 76, 64
2, 2685, Note_on_c, 1, 76, 0
2, 2688, Note_on_c, 1, 83, 64
2, 2925, Note_on_c, 1, 83, 0
2, 2928, Note_on_c, 1, 81, 64
2, 2973, Note_on_c, 1, 81, 0
2, 2976, Note_on_c, 1, 80, 64
2, 3021, Note_on_c, 1, 80, 0
2, 3024, Note_on_c, 1, 78, 64
2, 3069, Note_on_c, 1, 78, 0
2, 3072, Note_on_c, 1, 76, 64
2, 3693, Note_on_c, 1, 76, 0
2, 3696, Note_on_c, 1, 74, 64
2, 3741, Note_on_c, 1, 74, 0
2, 3744, Note_on_c, 1, 73, 64
2, 3789, Note_on_c, 1, 73, 0
2, 3792, Note_on_c, 1, 71, 64
2, 3837, Note_on_c, 1, 71, 0
2, 3840, Note_on_c, 1, 73, 64
2, 3885, Note_on_c, 1, 73, 0
2, 3888, Note_on_c, 1, 75, 64
2, 3933, Note_on_c, 1, 75, 0
2, 3936, Note_on_c, 1, 76, 64
2, 4113, Note_on_c, 1, 76, 0
2, 4128, Note_on_c, 1, 75, 64
2, 4217, Note_on_c, 1, 75, 0
2, 4224, Note_on_c, 1, 76, 64
2, 4873, Note_on_c, 1, 76, 0
2, 4896, Note_on_c, 1, 78, 64
2, 4985, Note_on_c, 1, 78, 0
2, 4992, Note_on_c, 1, 80, 64
2, 5016, Note_on_c, 1, 80, 0
2, 5016, Note_on_c, 1, 81, 64
2, 5040, Note_on_c, 1, 81, 0
2, 5040, Note_on_c, 1, 80, 64
2, 5085, Note_on_c, 1, 80, 0
2, 5088, Note_on_c, 1, 78, 64
2, 5133, Note_on_c, 1, 78, 0
2, 5136, Note_on_c, 1, 80, 64
2, 5181, Note_on_c, 1, 80, 0
2, 5184, Note_on_c, 1, 81, 64
2, 5229, Note_on_c, 1, 81, 0
2, 5232, Note_on_c, 1, 80, 64
2, 5277, Note_on_c, 1, 80, 0
2, 5280, Note_on_c, 1, 78, 64
2, 5325, Note_on_c, 1, 78, 0
2, 5328, Note_on_c, 1, 76, 64
2, 5373, Note_on_c, 1, 76, 0
2, 5376, Note_on_c, 1, 81, 64
2, 5805, Note_on_c, 1, 81, 0
2, 5808, Note_on_c, 1, 80, 64
2, 5853, Note_on_c, 1, 80, 0
2, 5856, Note_on_c, 1, 81, 64
2, 5901, Note_on_c, 1, 81, 0
2, 5904, Note_on_c, 1, 83, 64
2, 5949, Note_on_c, 1, 83, 0
2, 5952, Note_on_c, 1, 85, 64
2, 5997, Note_on_c, 1, 85, 0
2, 6000, Note_on_c, 1, 83, 64
2, 6045, Note_on_c, 1, 83, 0
2, 6048, Note_on_c, 1, 85, 64
2, 6093, Note_on_c, 1, 85, 0
2, 6096, Note_on_c, 1, 86, 64
2, 6141, Note_on_c, 1, 86, 0
2, 6144, Note_on_c, 1, 80, 64
2, 6233, Note_on_c, 1, 80, 0
2, 6240, Note_on_c, 1, 81, 64
2, 6417, Note_on_c, 1, 81, 0
2, 6432, Note_on_c, 1, 80, 64
2, 6521, Note_on_c, 1, 80, 0
2, 6528, Note_on_c, 1, 81, 64
2, 7089, Note_on_c, 1, 81, 0
2, 7104, Note_on_c, 1, 80, 64
2, 7385, Note_on_c, 1, 80, 0
2, 7392, Note_on_c, 1, 78, 64
2, 7437, Note_on_c, 1, 78, 0
2, 7440, Note_on_c, 1, 76, 64
2, 7485, Note_on_c, 1, 76, 0
2, 7488, Note_on_c, 1, 78, 64
2, 7857, Note_on_c, 1, 78, 0
2, 7872, Note_on_c, 1, 76, 64
2, 8153, Note_on_c, 1, 76, 0
2, 8160, Note_on_c, 1, 74, 64
2, 8205, Note_on_c, 1, 74, 0
2, 8208, Note_on_c, 1, 73, 64
2, 8253, Note_on_c, 1, 73, 0
2, 8256, Note_on_c, 1, 74, 64
2, 8625, Note_on_c, 1, 74, 0
2, 8640, Note_on_c, 1, 73, 64
2, 8921, Note_on_c, 1, 73, 0
2, 8928, Note_on_c, 1, 71, 64
2, 8973, Note_on_c, 1, 71, 0
2, 8976, Note_on_c, 1, 69, 64
2, 9021, Note_on_c, 1, 69, 0
2, 9024, Note_on_c, 1, 71, 64
2, 9393, Note_on_c, 1, 71, 0
2, 9408, Note_on_c, 1, 69, 64
2, 9689, Note_on_c, 1, 69, 0
2, 9696, Note_on_c, 1, 68, 64
2, 9741, Note_on_c, 1, 68, 0
2, 9744, Note_on_c, 1, 66, 64
2, 9789, Note_on_c, 1, 66, 0
2, 9792, Note_on_c, 1, 68, 64
2, 9837, Note_on_c, 1, 68, 0
2, 9840, Note_on_c, 1, 69, 64
2, 9885, Note_on_c, 1, 69, 0
2, 9888, Note_on_c, 1, 71, 64
2, 9933, Note_on_c, 1, 71, 0
2, 9936, Note_on_c, 1, 68, 64
2, 9981, Note_on_c, 1, 68, 0
2, 9984, Note_on_c, 1, 69, 64
2, 10161, Note_on_c, 1, 69, 0
2, 10176, Note_on_c, 1, 64, 64
2, 10265, Note_on_c, 1, 64, 0
2, 10272, Note_on_c, 1, 69, 64
2, 10361, Note_on_c, 1, 69, 0
2, 10368, Note_on_c, 1, 71, 64
2, 10413, Note_on_c, 1, 71, 0
2, 10416, Note_on_c, 1, 69, 64
2, 10461, Note_on_c, 1, 69, 0
2, 10464, Note_on_c, 1, 68, 64
2, 10509, Note_on_c, 1, 68, 0
2, 10512, Note_on_c, 1, 66, 64
2, 10557, Note_on_c, 1, 66, 0
2, 10560, Note_on_c, 1, 64, 64
2, 10737, Note_on_c, 1, 64, 0
2, 10752, Note_on_c, 1, 73, 64
2, 10775, Note_on_c, 1, 73, 0
2, 10776, Note_on_c, 1, 74, 64
2, 10799, Note_on_c, 1, 74, 0
2, 10800, Note_on_c, 1, 73, 64
2, 10845, Note_on_c, 1, 73, 0
2, 10848, Note_on_c, 1, 71, 64
2, 10893, Note_on_c, 1, 71, 0
2, 10896, Note_on_c, 1, 73, 64
2, 10941, Note_on_c, 1, 73, 0
2, 10944, Note_on_c, 1, 74, 64
2, 10989, Note_on_c, 1, 74, 0
2, 10992, Note_on_c, 1, 73, 64
2, 11037, Note_on_c, 1, 73, 0
2, 11040, Note_on_c, 1, 71, 64
2, 11085, Note_on_c, 1, 71, 0
2, 11088, Note_on_c, 1, 69, 64
2, 11133, Note_on_c, 1, 69, 0
2, 11136, Note_on_c, 1, 76, 64
2, 11181, Note_on_c, 1, 76, 0
2, 11184, Note_on_c, 1, 74, 64
2, 11229, Note_on_c, 1, 74, 0
2, 11232, Note_on_c, 1, 73, 64
2, 11277, Note_on_c, 1, 73, 0
2, 11280, Note_on_c, 1, 71, 64
2, 11325, Note_on_c, 1, 71, 0
2, 11328, Note_on_c, 1, 69, 64
2, 11417, Note_on_c, 1, 69, 0
2, 11424, Note_on_c, 1, 74, 64
2, 11609, Note_on_c, 1, 74, 0
2, 11616, Note_on_c, 1, 73, 64
2, 11705, Note_on_c, 1, 73, 0
2, 11712, Note_on_c, 1, 71, 64
2, 11757, Note_on_c, 1, 71, 0
2, 11760, Note_on_c, 1, 73, 64
2, 11805, Note_on_c, 1, 73, 0
2, 11808, Note_on_c, 1, 74, 64
2, 11853, Note_on_c, 1, 74, 0
2, 11856, Note_on_c, 1, 71, 64
2, 11901, Note_on_c, 1, 71, 0
2, 11904, Note_on_c, 1, 73, 64
2, 11949, Note_on_c, 1, 73, 0
2, 11952, Note_on_c, 1, 71, 64
2, 11997, Note_on_c, 1, 71, 0
2, 12000, Note_on_c, 1, 69, 64
2, 12045, Note_on_c, 1, 69, 0
2, 12048, Note_on_c, 1, 71, 64
2, 12093, Note_on_c, 1, 71, 0
2, 12096, Note_on_c, 1, 73, 64
2, 12141, Note_on_c, 1, 73, 0
2, 12144, Note_on_c, 1, 75, 64
2, 12189, Note_on_c, 1, 75, 0
2, 12192, Note_on_c, 1, 76, 64
2, 12237, Note_on_c, 1, 76, 0
2, 12240, Note_on_c, 1, 78, 64
2, 12285, Note_on_c, 1, 78, 0
2, 12288, Note_on_c, 1, 80, 64
2, 12333, Note_on_c, 1, 80, 0
2, 12336, Note_on_c, 1, 81, 64
2, 12381, Note_on_c, 1, 81, 0
2, 12384, Note_on_c, 1, 78, 64
2, 12429, Note_on_c, 1, 78, 0
2, 12432, Note_on_c, 1, 80, 64
2, 12477, Note_on_c, 1, 80, 0
2, 12480, Note_on_c, 1, 81, 64
2, 12525, Note_on_c, 1, 81, 0
2, 12528, Note_on_c, 1, 80, 64
2, 12573, Note_on_c, 1, 80, 0
2, 12576, Note_on_c, 1, 78, 64
2, 12621, Note_on_c, 1, 78, 0
2, 12624, Note_on_c, 1, 76, 64
2, 12669, Note_on_c, 1, 76, 0
2, 12672, Note_on_c, 1, 83, 64
2, 13145, Note_on_c, 1, 83, 0
2, 13152, Note_on_c, 1, 81, 64
2, 13197, Note_on_c, 1, 81, 0
2, 13200, Note_on_c, 1, 83, 64
2, 13245, Note_on_c, 1, 83, 0
2, 13248, Note_on_c, 1, 85, 64
2, 13293, Note_on_c, 1, 85, 0
2, 13296, Note_on_c, 1, 83, 64
2, 13341, Note_on_c, 1, 83, 0
2, 13344, Note_on_c, 1, 81, 64
2, 13389, Note_on_c, 1, 81, 0
2, 13392, Note_on_c, 1, 80, 64
2, 13437, Note_on_c, 1, 80, 0
2, 13440, Note_on_c, 1, 86, 64
2, 13705, Note_on_c, 1, 86, 0
2, 13728, Note_on_c, 1, 85, 64
2, 13773, Note_on_c, 1, 85, 0
2, 13776, Note_on_c, 1, 83, 64
2, 13821, Note_on_c, 1, 83, 0
2, 13824, Note_on_c, 1, 85, 64
2, 13869, Note_on_c, 1, 85, 0
2, 13872, Note_on_c, 1, 87, 64
2, 13917, Note_on_c, 1, 87, 0
2, 13920, Note_on_c, 1, 88, 64
2, 14097, Note_on_c, 1, 88, 0
2, 14112, Note_on_c, 1, 87, 64
2, 14201, Note_on_c, 1, 87, 0
2, 14208, Note_on_c, 1, 88, 64
2, 14445, Note_on_c, 1, 88, 0
2, 14448, Note_on_c, 1, 83, 64
2, 14493, Note_on_c, 1, 83, 0
2, 14496, Note_on_c, 1, 81, 64
2, 14541, Note_on_c, 1, 81, 0
2, 14544, Note_on_c, 1, 80, 64
2, 14589, Note_on_c, 1, 80, 0
2, 14592, Note_on_c, 1, 78, 64
2, 14637, Note_on_c, 1, 78, 0
2, 14640, Note_on_c, 1, 76, 64
2, 14685, Note_on_c, 1, 76, 0
2, 14688, Note_on_c, 1, 78, 64
2, 14733, Note_on_c, 1, 78, 0
2, 14736, Note_on_c, 1, 80, 64
2, 14781, Note_on_c, 1, 80, 0
2, 14784, Note_on_c, 1, 81, 64
2, 14829, Note_on_c, 1, 81, 0
2, 14832, Note_on_c, 1, 80, 64
2, 14877, Note_on_c, 1, 80, 0
2, 14880, Note_on_c, 1, 81, 64
2, 14925, Note_on_c, 1, 81, 0
2, 14928, Note_on_c, 1, 83, 64
2, 14973, Note_on_c, 1, 83, 0
2, 14976, Note_on_c, 1, 80, 64
2, 15021, Note_on_c, 1, 80, 0
2, 15024, Note_on_c, 1, 78, 64
2, 15069, Note_on_c, 1, 78, 0
2, 15072, Note_on_c, 1, 76, 64
2, 15117, Note_on_c, 1, 76, 0
2, 15120, Note_on_c, 1, 75, 64
2, 15165, Note_on_c, 1, 75, 0
2, 15168, Note_on_c, 1, 73, 64
2, 15213, Note_on_c, 1, 73, 0
2, 15216, Note_on_c, 1, 80, 64
2, 15261, Note_on_c, 1, 80, 0
2, 15264, Note_on_c, 1, 78, 64
2, 15309, Note_on_c, 1, 78, 0
2, 15312, Note_on_c, 1, 76, 64
2, 15357, Note_on_c, 1, 76, 0
2, 15360, Note_on_c, 1, 75, 64
2, 15405, Note_on_c, 1, 75, 0
2, 15408, Note_on_c, 1, 73, 64
2, 15453, Note_on_c, 1, 73, 0
2, 15456, Note_on_c, 1, 75, 64
2, 15501, Note_on_c, 1, 75, 0
2, 15504, Note_on_c, 1, 76, 64
2, 15549, Note_on_c, 1, 76, 0
2, 15552, Note_on_c, 1, 78, 64
2, 15597, Note_on_c, 1, 78, 0
2, 15600, Note_on_c, 1, 76, 64
2, 15645, Note_on_c, 1, 76, 0
2, 15648, Note_on_c, 1, 78, 64
2, 15693, Note_on_c, 1, 78, 0
2, 15696, Note_on_c, 1, 80, 64
2, 15741, Note_on_c, 1, 80, 0
2, 15744, Note_on_c, 1, 76, 64
2, 15789, Note_on_c, 1, 76, 0
2, 15792, Note_on_c, 1, 75, 64
2, 15837, Note_on_c, 1, 75, 0
2, 15840, Note_on_c, 1, 73, 64
2, 15885, Note_on_c, 1, 73, 0
2, 15888, Note_on_c, 1, 71, 64
2, 15933, Note_on_c, 1, 71, 0
2, 15936, Note_on_c, 1, 69, 64
2, 15981, Note_on_c, 1, 69, 0
2, 15984, Note_on_c, 1, 76, 64
2, 16029, Note_on_c, 1, 76, 0
2, 16032, Note_on_c, 1, 75, 64
2, 16077, Note_on_c, 1, 75, 0
2, 16080, Note_on_c, 1, 73, 64
2, 16125, Note_on_c, 1, 73, 0
2, 16128, Note_on_c, 1, 71, 64
2, 16173, Note_on_c, 1, 71, 0
2, 16176, Note_on_c, 1, 69, 64
2, 16221, Note_on_c, 1, 69, 0
2, 16224, Note_on_c, 1, 71, 64
2, 16269, Note_on_c, 1, 71, 0
2, 16272, Note_on_c, 1, 73, 64
2, 16317, Note_on_c, 1, 73, 0
2, 16320, Note_on_c, 1, 74, 64
2, 16365, Note_on_c, 1, 74, 0
2, 16368, Note_on_c, 1, 73, 64
2, 16413, Note_on_c, 1, 73, 0
2, 16416, Note_on_c, 1, 74, 64
2, 16461, Note_on_c, 1, 74, 0
2, 16464, Note_on_c, 1, 76, 64
2, 16509, Note_on_c, 1, 76, 0
2, 16512, Note_on_c, 1, 73, 64
2, 16557, Note_on_c, 1, 73, 0
2, 16560, Note_on_c, 1, 71, 64
2, 16605, Note_on_c, 1, 71, 0
2, 16608, Note_on_c, 1, 69, 64
2, 16653, Note_on_c, 1, 69, 0
2, 16656, Note_on_c, 1, 68, 64
2, 16701, Note_on_c, 1, 68, 0
2, 16704, Note_on_c, 1, 66, 64
2, 16749, Note_on_c, 1, 66, 0
2, 16752, Note_on_c, 1, 73, 64
2, 16797, Note_on_c, 1, 73, 0
2, 16800, Note_on_c, 1, 71, 64
2, 16845, Note_on_c, 1, 71, 0
2, 16848, Note_on_c, 1, 69, 64
2, 16893, Note_on_c, 1, 69, 0
2, 16896, Note_on_c, 1, 68, 64
2, 16941, Note_on_c, 1, 68, 0
2, 16944, Note_on_c, 1, 66, 64
2, 16989, Note_on_c, 1, 66, 0
2, 16992, Note_on_c, 1, 68, 64
2, 17037, Note_on_c, 1, 68, 0
2, 17040, Note_on_c, 1, 69, 64
2, 17085, Note_on_c, 1, 69, 0
2, 17088, Note_on_c, 1, 71, 64
2, 17133, Note_on_c, 1, 71, 0
2, 17136, Note_on_c, 1, 69, 64
2, 17181, Note_on_c, 1, 69, 0
2, 17184, Note_on_c, 1, 71, 64
2, 17229, Note_on_c, 1, 71, 0
2, 17232, Note_on_c, 1, 73, 64
2, 17277, Note_on_c, 1, 73, 0
2, 17280, Note_on_c, 1, 69, 64
2, 17325, Note_on_c, 1, 69, 0
2, 17328, Note_on_c, 1, 68, 64
2, 17373, Note_on_c, 1, 68, 0
2, 17376, Note_on_c, 1, 66, 64
2, 17421, Note_on_c, 1, 66, 0
2, 17424, Note_on_c, 1, 68, 64
2, 17469, Note_on_c, 1, 68, 0
2, 17472, Note_on_c, 1, 69, 64
2, 17517, Note_on_c, 1, 69, 0
2, 17520, Note_on_c, 1, 73, 64
2, 17565, Note_on_c, 1, 73, 0
2, 17568, Note_on_c, 1, 71, 64
2, 17613, Note_on_c, 1, 71, 0
2, 17616, Note_on_c, 1, 69, 64
2, 17661, Note_on_c, 1, 69, 0
2, 17664, Note_on_c, 1, 68, 64
2, 17797, Note_on_c, 1, 68, 0
2, 17808, Note_on_c, 1, 69, 64
2, 17853, Note_on_c, 1, 69, 0
2, 17856, Note_on_c, 1, 66, 64
2, 17989, Note_on_c, 1, 66, 0
2, 18000, Note_on_c, 1, 64, 64
2, 18045, Note_on_c, 1, 64, 0
2, 18048, Note_on_c, 1, 64, 64
2, 18402, Note_on_c, 1, 64, 0
2, 18432, Note_on_c, 1, 69, 64
2, 18609, Note_on_c, 1, 69, 0
2, 18624, Note_on_c, 1, 64, 64
2, 18713, Note_on_c, 1, 64, 0
2, 18720, Note_on_c, 1, 69, 64
2, 18809, Note_on_c, 1, 69, 0
2, 18816, Note_on_c, 1, 71, 64
2, 18861, Note_on_c, 1, 71, 0
2, 18864, Note_on_c, 1, 69, 64
2, 18909, Note_on_c, 1, 69, 0
2, 18912, Note_on_c, 1, 68, 64
2, 18957, Note_on_c, 1, 68, 0
2, 18960, Note_on_c, 1, 66, 64
2, 19005, Note_on_c, 1, 66, 0
2, 19008, Note_on_c, 1, 64, 64
2, 19185, Note_on_c, 1, 64, 0
2, 19200, Note_on_c, 1, 73, 64
2, 19224, Note_on_c, 1, 73, 0
2, 19224, Note_on_c, 1, 74, 64
2, 19248, Note_on_c, 1, 74, 0
2, 19248, Note_on_c, 1, 73, 64
2, 19293, Note_on_c, 1, 73, 0
2, 19296, Note_on_c, 1, 71, 64
2, 19341, Note_on_c, 1, 71, 0
2, 19344, Note_on_c, 1, 73, 64
2, 19389, Note_on_c, 1, 73, 0
2, 19392, Note_on_c, 1, 74, 64
2, 19437, Note_on_c, 1, 74, 0
2, 19440, Note_on_c, 1, 73, 64
2, 19485, Note_on_c, 1, 73, 0
2, 19488, Note_on_c, 1, 71, 64
2, 19533, Note_on_c, 1, 71, 0
2, 19536, Note_on_c, 1, 69, 64
2, 19581, Note_on_c, 1, 69, 0
2, 19584, Note_on_c, 1, 76, 64
2, 19629, Note_on_c, 1, 76, 0
2, 19632, Note_on_c, 1, 74, 64
2, 19677, Note_on_c, 1, 74, 0
2, 19680, Note_on_c, 1, 73, 64
2, 19725, Note_on_c, 1, 73, 0
2, 19728, Note_on_c, 1, 71, 64
2, 19773, Note_on_c, 1, 71, 0
2, 19776, Note_on_c, 1, 69, 64
2, 19865, Note_on_c, 1, 69, 0
2, 19872, Note_on_c, 1, 74, 64
2, 20057, Note_on_c, 1, 74, 0
2, 20064, Note_on_c, 1, 73, 64
2, 20153, Note_on_c, 1, 73, 0
2, 20160, Note_on_c, 1, 71, 64
2, 20205, Note_on_c, 1, 71, 0
2, 20208, Note_on_c, 1, 73, 64
2, 20253, Note_on_c, 1, 73, 0
2, 20256, Note_on_c, 1, 74, 64
2, 20301, Note_on_c, 1, 74, 0
2, 20304, Note_on_c, 1, 71, 64
2, 20349, Note_on_c, 1, 71, 0
2, 20352, Note_on_c, 1, 73, 64
2, 20397, Note_on_c, 1, 73, 0
2, 20400, Note_on_c, 1, 71, 64
2, 20445, Note_on_c, 1, 71, 0
2, 20448, Note_on_c, 1, 69, 64
2, 20493, Note_on_c, 1, 69, 0
2, 20496, Note_on_c, 1, 71, 64
2, 20541, Note_on_c, 1, 71, 0
2, 20544, Note_on_c, 1, 73, 64
2, 20589, Note_on_c, 1, 73, 0
2, 20592, Note_on_c, 1, 75, 64
2, 20637, Note_on_c, 1, 75, 0
2, 20640, Note_on_c, 1, 76, 64
2, 20685, Note_on_c, 1, 76, 0
2, 20688, Note_on_c, 1, 78, 64
2, 20733, Note_on_c, 1, 78, 0
2, 20736, Note_on_c, 1, 80, 64
2, 20781, Note_on_c, 1, 80, 0
2, 20784, Note_on_c, 1, 81, 64
2, 20829, Note_on_c, 1, 81, 0
2, 20832, Note_on_c, 1, 78, 64
2, 20877, Note_on_c, 1, 78, 0
2, 20880, Note_on_c, 1, 80, 64
2, 20925, Note_on_c, 1, 80, 0
2, 20928, Note_on_c, 1, 81, 64
2, 20973, Note_on_c, 1, 81, 0
2, 20976, Note_on_c, 1, 80, 64
2, 21021, Note_on_c, 1, 80, 0
2, 21024, Note_on_c, 1, 78, 64
2, 21069, Note_on_c, 1, 78, 0
2, 21072, Note_on_c, 1, 76, 64
2, 21117, Note_on_c, 1, 76, 0
2, 21120, Note_on_c, 1, 83, 64
2, 21357, Note_on_c, 1, 83, 0
2, 21360, Note_on_c, 1, 81, 64
2, 21405, Note_on_c, 1, 81, 0
2, 21408, Note_on_c, 1, 80, 64
2, 21453, Note_on_c, 1, 80, 0
2, 21456, Note_on_c, 1, 78, 64
2, 21501, Note_on_c, 1, 78, 0
2, 21504, Note_on_c, 1, 76, 64
2, 22125, Note_on_c, 1, 76, 0
2, 22128, Note_on_c, 1, 74, 64
2, 22173, Note_on_c, 1, 74, 0
2, 22176, Note_on_c, 1, 73, 64
2, 22221, Note_on_c, 1, 73, 0
2, 22224, Note_on_c, 1, 71, 64
2, 22269, Note_on_c, 1, 71, 0
2, 22272, Note_on_c, 1, 73, 64
2, 22317, Note_on_c, 1, 73, 0
2, 22320, Note_on_c, 1, 75, 64
2, 22365, Note_on_c, 1, 75, 0
2, 22368, Note_on_c, 1, 76, 64
2, 22545, Note_on_c, 1, 76, 0
2, 22560, Note_on_c, 1, 75, 64
2, 22649, Note_on_c, 1, 75, 0
2, 22656, Note_on_c, 1, 76, 64
2, 23305, Note_on_c, 1, 76, 0
2, 23328, Note_on_c, 1, 78, 64
2, 23417, Note_on_c, 1, 78, 0
2, 23424, Note_on_c, 1, 80, 64
2, 23448, Note_on_c, 1, 80, 0
2, 23448, Note_on_c, 1, 81, 64
2, 23472, Note_on_c, 1, 81, 0
2, 23472, Note_on_c, 1, 80, 64
2, 23517, Note_on_c, 1, 80, 0
2, 23520, Note_on_c, 1, 78, 64
2, 23565, Note_on_c, 1, 78, 0
2, 23568, Note_on_c, 1, 80, 64
2, 23613, Note_on_c, 1, 80, 0
2, 23616, Note_on_c, 1, 81, 64
2, 23661, Note_on_c, 1, 81, 0
2, 23664, Note_on_c, 1, 80, 64
2, 23709, Note_on_c, 1, 80, 0
2, 23712, Note_on_c, 1, 78, 64
2, 23757, Note_on_c, 1, 78, 0
2, 23760, Note_on_c, 1, 76, 64
2, 23805, Note_on_c, 1, 76, 0
2, 23808, Note_on_c, 1, 81, 64
2, 24237, Note_on_c, 1, 81, 0
2, 24240, Note_on_c, 1, 80, 64
2, 24285, Note_on_c, 1, 80, 0
2, 24288, Note_on_c, 1, 81, 64
2, 24333, Note_on_c, 1, 81, 0
2, 24336, Note_on_c, 1, 83, 64
2, 24381, Note_on_c, 1, 83, 0
2, 24384, Note_on_c, 1, 85, 64
2, 24429, Note_on_c, 1, 85, 0
2, 24432, Note_on_c, 1, 83, 64
2, 24477, Note_on_c, 1, 83, 0
2, 24480, Note_on_c, 1, 85, 64
2, 24525, Note_on_c, 1, 85, 0
2, 24528, Note_on_c, 1, 86, 64
2, 24573, Note_on_c, 1, 86, 0
2, 24576, Note_on_c, 1, 80, 64
2, 24665, Note_on_c, 1, 80, 0
2, 24672, Note_on_c, 1, 81, 64
2, 24849, Note_on_c, 1, 81, 0
2, 24864, Note_on_c, 1, 80, 64
2, 24953, Note_on_c, 1, 80, 0
2, 24960, Note_on_c, 1, 81, 64
2, 25521, Note_on_c, 1, 81, 0
2, 25536, Note_on_c, 1, 80, 64
2, 25817, Note_on_c, 1, 80, 0
2, 25824, Note_on_c, 1, 78, 64
2, 25869, Note_on_c, 1, 78, 0
2, 25872, Note_on_c, 1, 76, 64
2, 25917, Note_on_c, 1, 76, 0
2, 25920, Note_on_c, 1, 78, 64
2, 26289, Note_on_c, 1, 78, 0
2, 26304, Note_on_c, 1, 76, 64
2, 26585, Note_on_c, 1, 76, 0
2, 26592, Note_on_c, 1, 74, 64
2, 26637, Note_on_c, 1, 74, 0
2, 26640, Note_on_c, 1, 73, 64
2, 26685, Note_on_c, 1, 73, 0
2, 26688, Note_on_c, 1, 74, 64
2, 27057, Note_on_c, 1, 74, 0
2, 27072, Note_on_c, 1, 73, 64
2, 27353, Note_on_c, 1, 73, 0
2, 27360, Note_on_c, 1, 71, 64
2, 27405, Note_on_c, 1, 71, 0
2, 27408, Note_on_c, 1, 69, 64
2, 27453, Note_on_c, 1, 69, 0
2, 27456, Note_on_c, 1, 71, 64
2, 27825, Note_on_c, 1, 71, 0
2, 27840, Note_on_c, 1, 69, 64
2, 28121, Note_on_c, 1, 69, 0
2, 28128, Note_on_c, 1, 68, 64
2, 28173, Note_on_c, 1, 68, 0
2, 28176, Note_on_c, 1, 66, 64
2, 28221, Note_on_c, 1, 66, 0
2, 28224, Note_on_c, 1, 68, 64
2, 28269, Note_on_c, 1, 68, 0
2, 28272, Note_on_c, 1, 69, 64
2, 28317, Note_on_c, 1, 69, 0
2, 28320, Note_on_c, 1, 71, 64
2, 28365, Note_on_c, 1, 71, 0
2, 28368, Note_on_c, 1, 68, 64
2, 28413, Note_on_c, 1, 68, 0
2, 28416, Note_on_c, 1, 69, 64
2, 28593, Note_on_c, 1, 69, 0
2, 28608, Note_on_c, 1, 64, 64
2, 28697, Note_on_c, 1, 64, 0
2, 28704, Note_on_c, 1, 69, 64
2, 28793, Note_on_c, 1, 69, 0
2, 28800, Note_on_c, 1, 71, 64
2, 28845, Note_on_c, 1, 71, 0
2, 28848, Note_on_c, 1, 69, 64
2, 28893, Note_on_c, 1, 69, 0
2, 28896, Note_on_c, 1, 68, 64
2, 28941, Note_on_c, 1, 68, 0
2, 28944, Note_on_c, 1, 66, 64
2, 28989, Note_on_c, 1, 66, 0
2, 28992, Note_on_c, 1, 64, 64
2, 29169, Note_on_c, 1, 64, 0
2, 29184, Note_on_c, 1, 73, 64
2, 29207, Note_on_c, 1, 73, 0
2, 29208, Note_on_c, 1, 74, 64
2, 29231, Note_on_c, 1, 74, 0
2, 29232, Note_on_c, 1, 73, 64
2, 29277, Note_on_c, 1, 73, 0
2, 29280, Note_on_c, 1, 71, 64
2, 29325, Note_on_c, 1, 71, 0
2, 29328, Note_on_c, 1, 73, 64
2, 29373, Note_on_c, 1, 73, 0
2, 29376, Note_on_c, 1, 74, 64
2, 29421, Note_on_c, 1, 74, 0
2, 29424, Note_on_c, 1, 73, 64
2, 29469, Note_on_c, 1, 73, 0
2, 29472, Note_on_c, 1, 71, 64
2, 29517, Note_on_c, 1, 71, 0
2, 29520, Note_on_c, 1, 69, 64
2, 29565, Note_on_c, 1, 69, 0
2, 29568, Note_on_c, 1, 76, 64
2, 29613, Note_on_c, 1, 76, 0
2, 29616, Note_on_c, 1, 74, 64
2, 29661, Note_on_c, 1, 74, 0
2, 29664, Note_on_c, 1, 73, 64
2, 29709, Note_on_c, 1, 73, 0
2, 29712, Note_on_c, 1, 71, 64
2, 29757, Note_on_c, 1, 71, 0
2, 29760, Note_on_c, 1, 69, 64
2, 29849, Note_on_c, 1, 69, 0
2, 29856, Note_on_c, 1, 74, 64
2, 30041, Note_on_c, 1, 74, 0
2, 30048, Note_on_c, 1, 73, 64
2, 30137, Note_on_c, 1, 73, 0
2, 30144, Note_on_c, 1, 71, 64
2, 30189, Note_on_c, 1, 71, 0
2, 30192, Note_on_c, 1, 73, 64
2, 30237, Note_on_c, 1, 73, 0
2, 30240, Note_on_c, 1, 74, 64
2, 30285, Note_on_c, 1, 74, 0
2, 30288, Note_on_c, 1, 71, 64
2, 30333, Note_on_c, 1, 71, 0
2, 30336, Note_on_c, 1, 73, 64
2, 30381, Note_on_c, 1, 73, 0
2, 30384, Note_on_c, 1, 71, 64
2, 30429, Note_on_c, 1, 71, 0
2, 30432, Note_on_c, 1, 69, 64
2, 30477, Note_on_c, 1, 69, 0
2, 30480, Note_on_c, 1, 71, 64
2, 30525, Note_on_c, 1, 71, 0
2, 30528, Note_on_c, 1, 73, 64
2, 30573, Note_on_c, 1, 73, 0
2, 30576, Note_on_c, 1, 75, 64
2, 30621, Note_on_c, 1, 75, 0
2, 30624, Note_on_c, 1, 76, 64
2, 30669, Note_on_c, 1, 76, 0
2, 30672, Note_on_c, 1, 78, 64
2, 30717, Note_on_c, 1, 78, 0
2, 30720, Note_on_c, 1, 80, 64
2, 30765, Note_on_c, 1, 80, 0
2, 30768, Note_on_c, 1, 81, 64
2, 30813, Note_on_c, 1, 81, 0
2, 30816, Note_on_c, 1, 78, 64
2, 30861, Note_on_c, 1, 78, 0
2, 30864, Note_on_c, 1, 80, 64
2, 30909, Note_on_c, 1, 80, 0
2, 30912, Note_on_c, 1, 81, 64
2, 30957, Note_on_c, 1, 81, 0
2, 30960, Note_on_c, 1, 80, 64
2, 31005, Note_on_c, 1, 80, 0
2, 31008, Note_on_c, 1, 78, 64
2, 31053, Note_on_c, 1, 78, 0
2, 31056, Note_on_c, 1, 76, 64
2, 31101, Note_on_c, 1, 76, 0
2, 31104, Note_on_c, 1, 83, 64
2, 31577, Note_on_c, 1, 83, 0
2, 31584, Note_on_c, 1, 81, 64
2, 31629, Note_on_c, 1, 81, 0
2, 31632, Note_on_c, 1, 83, 64
2, 31677, Note_on_c, 1, 83, 0
2, 31680, Note_on_c, 1, 85, 64
2, 31725, Note_on_c, 1, 85, 0
2, 31728, Note_on_c, 1, 83, 64
2, 31773, Note_on_c, 1, 83, 0
2, 31776, Note_on_c, 1, 81, 64
2, 31821, Note_on_c, 1, 81, 0
2, 31824, Note_on_c, 1, 80, 64
2, 31869, Note_on_c, 1, 80, 0
2, 31872, Note_on_c, 1, 86, 64
2, 32137, Note_on_c, 1, 86, 0
2, 32160, Note_on_c, 1, 85, 64
2, 32205, Note_on_c, 1, 85, 0
2, 32208, Note_on_c, 1, 83, 64
2, 32253, Note_on_c, 1, 83, 0
2, 32256, Note_on_c, 1, 85, 64
2, 32301, Note_on_c, 1, 85, 0
2, 32304, Note_on_c, 1, 87, 64
2, 32349, Note_on_c, 1, 87, 0
2, 32352, Note_on_c, 1, 88, 64
2, 32529, Note_on_c, 1, 88, 0
2, 32544, Note_on_c, 1, 87, 64
2, 32633, Note_on_c, 1, 87, 0
2, 32640, Note_on_c, 1, 88, 64
2, 32877, Note_on_c, 1, 88, 0
2, 32880, Note_on_c, 1, 83, 64
2, 32925, Note_on_c, 1, 83, 0
2, 32928, Note_on_c, 1, 81, 64
2, 32973, Note_on_c, 1, 81, 0
2, 32976, Note_on_c, 1, 80, 64
2, 33021, Note_on_c, 1, 80, 0
2, 33024, Note_on_c, 1, 78, 64
2, 33069, Note_on_c, 1, 78, 0
2, 33072, Note_on_c, 1, 76, 64
2, 33117, Note_on_c, 1, 76, 0
2, 33120, Note_on_c, 1, 78, 64
2, 33165, Note_on_c, 1, 78, 0
2, 33168, Note_on_c, 1, 80, 64
2, 33213, Note_on_c, 1, 80, 0
2, 33216, Note_on_c, 1, 81, 64
2, 33261, Note_on_c, 1, 81, 0
2, 33264, Note_on_c, 1, 80, 64
2, 33309, Note_on_c, 1, 80, 0
2, 33312, Note_on_c, 1, 81, 64
2, 33357, Note_on_c, 1, 81, 0
2, 33360, Note_on_c, 1, 83, 64
2, 33405, Note_on_c, 1, 83, 0
2, 33408, Note_on_c, 1, 80, 64
2, 33453, Note_on_c, 1, 80, 0
2, 33456, Note_on_c, 1, 78, 64
2, 33501, Note_on_c, 1, 78, 0
2, 33504, Note_on_c, 1, 76, 64
2, 33549, Note_on_c, 1, 76, 0
2, 33552, Note_on_c, 1, 75, 64
2, 33597, Note_on_c, 1, 75, 0
2, 33600, Note_on_c, 1, 73, 64
2, 33645, Note_on_c, 1, 73, 0
2, 33648, Note_on_c, 1, 80, 64
2, 33693, Note_on_c, 1, 80, 0
2, 33696, Note_on_c, 1, 78, 64
2, 33741, Note_on_c, 1, 78, 0
2, 33744, Note_on_c, 1, 76, 64
2, 33789, Note_on_c, 1, 76, 0
2, 33792, Note_on_c, 1, 75, 64
2, 33837, Note_on_c, 1, 75, 0
2, 33840, Note_on_c, 1, 73, 64
2, 33885, Note_on_c, 1, 73, 0
2, 33888, Note_on_c, 1, 75, 64
2, 33933, Note_on_c, 1, 75, 0
2, 33936, Note_on_c, 1, 76, 64
2, 33981, Note_on_c, 1, 76, 0
2, 33984, Note_on_c, 1, 78, 64
2, 34029, Note_on_c, 1, 78, 0
2, 34032, Note_on_c, 1, 76, 64
2, 34077, Note_on_c, 1, 76, 0
2, 34080, Note_on_c, 1, 78, 64
2, 34125, Note_on_c, 1, 78, 0
2, 34128, Note_on_c, 1, 80, 64
2, 34173, Note_on_c, 1, 80, 0
2, 34176, Note_on_c, 1, 76, 64
2, 34221, Note_on_c, 1, 76, 0
2, 34224, Note_on_c, 1, 75, 64
2, 34269, Note_on_c, 1, 75, 0
2, 34272, Note_on_c, 1, 73, 64
2, 34317, Note_on_c, 1, 73, 0
2, 34320, Note_on_c, 1, 71, 64
2, 34365, Note_on_c, 1, 71, 0
2, 34368, Note_on_c, 1, 69, 64
2, 34413, Note_on_c, 1, 69, 0
2, 34416, Note_on_c, 1, 76, 64
2, 34461, Note_on_c, 1, 76, 0
2, 34464, Note_on_c, 1, 75, 64
2, 34509, Note_on_c, 1, 75, 0
2, 34512, Note_on_c, 1, 73, 64
2, 34557, Note_on_c, 1, 73, 0
2, 34560, Note_on_c, 1, 71, 64
2, 34605, Note_on_c, 1, 71, 0
2, 34608, Note_on_c, 1, 69, 64
2, 34653, Note_on_c, 1, 69, 0
2, 34656, Note_on_c, 1, 71, 64
2, 34701, Note_on_c, 1, 71, 0
2, 34704, Note_on_c, 1, 73, 64
2, 34749, Note_on_c, 1, 73, 0
2, 34752, Note_on_c, 1, 74, 64
2, 34797, Note_on_c, 1, 74, 0
2, 34800, Note_on_c, 1, 73, 64
2, 34845, Note_on_c, 1, 73, 0
2, 34848, Note_on_c, 1, 74, 64
2, 34893, Note_on_c, 1, 74, 0
2, 34896, Note_on_c, 1, 76, 64
2, 34941, Note_on_c, 1, 76, 0
2, 34944, Note_on_c, 1, 73, 64
2, 34989, Note_on_c, 1, 73, 0
2, 34992, Note_on_c, 1, 71, 64
2, 35037, Note_on_c, 1, 71, 0
2, 35040, Note_on_c, 1, 69, 64
2, 35085, Note_on_c, 1, 69, 0
2, 35088, Note_on_c, 1, 68, 64
2, 35133, Note_on_c, 1, 68, 0
2, 35136, Note_on_c, 1, 66, 64
2, 35181, Note_on_c, 1, 66, 0
2, 35184, Note_on_c, 1, 73, 64
2, 35229, Note_on_c, 1, 73, 0
2, 35232, Note_on_c, 1, 71, 64
2, 35277, Note_on_c, 1, 71, 0
2, 35280, Note_on_c, 1, 69, 64
2, 35325, Note_on_c, 1, 69, 0
2, 35328, Note_on_c, 1, 68, 64
2, 35373, Note_on_c, 1, 68, 0
2, 35376, Note_on_c, 1, 66, 64
2, 35421, Note_on_c, 1, 66, 0
2, 35424, Note_on_c, 1, 68, 64
2, 35469, Note_on_c, 1, 68, 0
2, 35472, Note_on_c, 1, 69, 64
2, 35517, Note_on_c, 1, 69, 0
2, 35520, Note_on_c, 1, 71, 64
2, 35565, Note_on_c, 1, 71, 0
2, 35568, Note_on_c, 1, 69, 64
2, 35613, Note_on_c, 1, 69, 0
2, 35616, Note_on_c, 1, 71, 64
2, 35661, Note_on_c, 1, 71, 0
2, 35664, Note_on_c, 1, 73, 64
2, 35709, Note_on_c, 1, 73, 0
2, 35712, Note_on_c, 1, 69, 64
2, 35757, Note_on_c, 1, 69, 0
2, 35760, Note_on_c, 1, 68, 64
2, 35805, Note_on_c, 1, 68, 0
2, 35808, Note_on_c, 1, 66, 64
2, 35853, Note_on_c, 1, 66, 0
2, 35856, Note_on_c, 1, 68, 64
2, 35901, Note_on_c, 1, 68, 0
2, 35904, Note_on_c, 1, 69, 64
2, 35949, Note_on_c, 1, 69, 0
2, 35952, Note_on_c, 1, 73, 64
2, 35997, Note_on_c, 1, 73, 0
2, 36000, Note_on_c, 1, 71, 64
2, 36045, Note_on_c, 1, 71, 0
2, 36048, Note_on_c, 1, 69, 64
2, 36093, Note_on_c, 1, 69, 0
2, 36096, Note_on_c, 1, 68, 64
2, 36229, Note_on_c, 1, 68, 0
2, 36240, Note_on_c, 1, 69, 64
2, 36285, Note_on_c, 1, 69, 0
2, 36288, Note_on_c, 1, 66, 64
2, 36421, Note_on_c, 1, 66, 0
2, 36432, Note_on_c, 1, 64, 64
2, 36477, Note_on_c, 1, 64, 0
2, 36480, Note_on_c, 1, 64, 64
2, 36834, Note_on_c, 1, 64, 0
2, 38400, Note_on_c, 1, 76, 64
2, 38489, Note_on_c, 1, 76, 0
2, 38496, Note_on_c, 1, 78, 64
2, 38541, Note_on_c, 1, 78, 0
2, 38544, Note_on_c, 1, 79, 64
2, 38589, Note_on_c, 1, 79, 0
2, 38592, Note_on_c, 1, 78, 64
2, 38637, Note_on_c, 1, 78, 0
2, 38640, Note_on_c, 1, 76, 64
2, 38685, Note_on_c, 1, 76, 0
2, 38688, Note_on_c, 1, 74, 64
2, 38733, Note_on_c, 1, 74, 0
2, 38736, Note_on_c, 1, 73, 64
2, 38781, Note_on_c, 1, 73, 0
2, 38784, Note_on_c, 1, 81, 64
2, 38961, Note_on_c, 1, 81, 0
2, 38976, Note_on_c, 1, 69, 64
2, 39065, Note_on_c, 1, 69, 0
2, 39072, Note_on_c, 1, 73, 64
2, 39161, Note_on_c, 1, 73, 0
2, 39168, Note_on_c, 1, 74, 64
2, 39257, Note_on_c, 1, 74, 0
2, 39264, Note_on_c, 1, 74, 64
2, 39287, Note_on_c, 1, 74, 0
2, 39288, Note_on_c, 1, 76, 64
2, 39311, Note_on_c, 1, 76, 0
2, 39312, Note_on_c, 1, 78, 64
2, 39357, Note_on_c, 1, 78, 0
2, 39360, Note_on_c, 1, 76, 64
2, 39449, Note_on_c, 1, 76, 0
2, 39456, Note_on_c, 1, 76, 64
2, 39479, Note_on_c, 1, 76, 0
2, 39480, Note_on_c, 1, 78, 64
2, 39503, Note_on_c, 1, 78, 0
2, 39504, Note_on_c, 1, 79, 64
2, 39549, Note_on_c, 1, 79, 0
2, 39552, Note_on_c, 1, 78, 64
2, 39641, Note_on_c, 1, 78, 0
2, 39648, Note_on_c, 1, 79, 64
2, 39693, Note_on_c, 1, 79, 0
2, 39696, Note_on_c, 1, 81, 64
2, 39741, Note_on_c, 1, 81, 0
2, 39744, Note_on_c, 1, 79, 64
2, 39789, Note_on_c, 1, 79, 0
2, 39792, Note_on_c, 1, 78, 64
2, 39837, Note_on_c, 1, 78, 0
2, 39840, Note_on_c, 1, 76, 64
2, 39885, Note_on_c, 1, 76, 0
2, 39888, Note_on_c, 1, 74, 64
2, 39933, Note_on_c, 1, 74, 0
2, 39936, Note_on_c, 1, 79, 64
2, 40025, Note_on_c, 1, 79, 0
2, 40032, Note_on_c, 1, 79, 64
2, 40055, Note_on_c, 1, 79, 0
2, 40056, Note_on_c, 1, 78, 64
2, 40079, Note_on_c, 1, 78, 0
2, 40080, Note_on_c, 1, 76, 64
2, 40125, Note_on_c, 1, 76, 0
2, 40128, Note_on_c, 1, 78, 64
2, 40217, Note_on_c, 1, 78, 0
2, 40224, Note_on_c, 1, 78, 64
2, 40247, Note_on_c, 1, 78, 0
2, 40248, Note_on_c, 1, 76, 64
2, 40271, Note_on_c, 1, 76, 0
2, 40272, Note_on_c, 1, 74, 64
2, 40317, Note_on_c, 1, 74, 0
2, 40320, Note_on_c, 1, 76, 64
2, 40585, Note_on_c, 1, 76, 0
2, 40608, Note_on_c, 1, 78, 64
2, 40697, Note_on_c, 1, 78, 0
2, 40704, Note_on_c, 1, 74, 64
2, 40793, Note_on_c, 1, 74, 0
2, 40800, Note_on_c, 1, 73, 64
2, 40845, Note_on_c, 1, 73, 0
2, 40848, Note_on_c, 1, 74, 64
2, 40893, Note_on_c, 1, 74, 0
2, 40896, Note_on_c, 1, 76, 64
2, 40941, Note_on_c, 1, 76, 0
2, 40944, Note_on_c, 1, 74, 64
2, 40989, Note_on_c, 1, 74, 0
2, 40992, Note_on_c, 1, 73, 64
2, 41037, Note_on_c, 1, 73, 0
2, 41040, Note_on_c, 1, 71, 64
2, 41085, Note_on_c, 1, 71, 0
2, 41088, Note_on_c, 1, 73, 64
2, 41133, Note_on_c, 1, 73, 0
2, 41136, Note_on_c, 1, 71, 64
2, 41181, Note_on_c, 1, 71, 0
2, 41184, Note_on_c, 1, 70, 64
2, 41229, Note_on_c, 1, 70, 0
2, 41232, Note_on_c, 1, 68, 64
2, 41277, Note_on_c, 1, 68, 0
2, 41280, Note_on_c, 1, 66, 64
2, 41369, Note_on_c, 1, 66, 0
2, 41376, Note_on_c, 1, 78, 64
2, 41517, Note_on_c, 1, 78, 0
2, 41520, Note_on_c, 1, 76, 64
2, 41565, Note_on_c, 1, 76, 0
2, 41568, Note_on_c, 1, 74, 64
2, 41613, Note_on_c, 1, 74, 0
2, 41616, Note_on_c, 1, 73, 64
2, 41661, Note_on_c, 1, 73, 0
2, 41664, Note_on_c, 1, 71, 64
2, 41753, Note_on_c, 1, 71, 0
2, 41760, Note_on_c, 1, 83, 64
2, 41901, Note_on_c, 1, 83, 0
2, 41904, Note_on_c, 1, 81, 64
2, 41949, Note_on_c, 1, 81, 0
2, 41952, Note_on_c, 1, 79, 64
2, 41997, Note_on_c, 1, 79, 0
2, 42000, Note_on_c, 1, 78, 64
2, 42045, Note_on_c, 1, 78, 0
2, 42048, Note_on_c, 1, 79, 64
2, 42093, Note_on_c, 1, 79, 0
2, 42096, Note_on_c, 1, 76, 64
2, 42141, Note_on_c, 1, 76, 0
2, 42144, Note_on_c, 1, 78, 64
2, 42189, Note_on_c, 1, 78, 0
2, 42192, Note_on_c, 1, 73, 64
2, 42237, Note_on_c, 1, 73, 0
2, 42240, Note_on_c, 1, 74, 64
2, 42373, Note_on_c, 1, 74, 0
2, 42384, Note_on_c, 1, 76, 64
2, 42429, Note_on_c, 1, 76, 0
2, 42432, Note_on_c, 1, 73, 64
2, 42455, Note_on_c, 1, 73, 0
2, 42456, Note_on_c, 1, 74, 64
2, 42479, Note_on_c, 1, 74, 0
2, 42480, Note_on_c, 1, 73, 64
2, 42503, Note_on_c, 1, 73, 0
2, 42504, Note_on_c, 1, 74, 64
2, 42527, Note_on_c, 1, 74, 0
2, 42528, Note_on_c, 1, 73, 64
2, 42551, Note_on_c, 1, 73, 0
2, 42552, Note_on_c, 1, 74, 64
2, 42575, Note_on_c, 1, 74, 0
2, 42576, Note_on_c, 1, 71, 64
2, 42621, Note_on_c, 1, 71, 0
2, 42624, Note_on_c, 1, 71, 64
2, 42978, Note_on_c, 1, 71, 0
2, 43776, Note_on_c, 1, 83, 64
2, 43865, Note_on_c, 1, 83, 0
2, 43872, Note_on_c, 1, 85, 64
2, 43917, Note_on_c, 1, 85, 0
2, 43920, Note_on_c, 1, 86, 64
2, 43965, Note_on_c, 1, 86, 0
2, 43968, Note_on_c, 1, 85, 64
2, 44013, Note_on_c, 1, 85, 0
2, 44016, Note_on_c, 1, 83, 64
2, 44061, Note_on_c, 1, 83, 0
2, 44064, Note_on_c, 1, 81, 64
2, 44109, Note_on_c, 1, 81, 0
2, 44112, Note_on_c, 1, 80, 64
2, 44157, Note_on_c, 1, 80, 0
2, 44160, Note_on_c, 1, 88, 64
2, 44337, Note_on_c, 1, 88, 0
2, 44352, Note_on_c, 1, 76, 64
2, 44441, Note_on_c, 1, 76, 0
2, 44448, Note_on_c, 1, 80, 64
2, 44537, Note_on_c, 1, 80, 0
2, 44544, Note_on_c, 1, 81, 64
2, 44633, Note_on_c, 1, 81, 0
2, 44640, Note_on_c, 1, 81, 64
2, 44663, Note_on_c, 1, 81, 0
2, 44664, Note_on_c, 1, 83, 64
2, 44687, Note_on_c, 1, 83, 0
2, 44688, Note_on_c, 1, 85, 64
2, 44733, Note_on_c, 1, 85, 0
2, 44736, Note_on_c, 1, 83, 64
2, 44825, Note_on_c, 1, 83, 0
2, 44832, Note_on_c, 1, 83, 64
2, 44855, Note_on_c, 1, 83, 0
2, 44856, Note_on_c, 1, 85, 64
2, 44879, Note_on_c, 1, 85, 0
2, 44880, Note_on_c, 1, 86, 64
2, 44925, Note_on_c, 1, 86, 0
2, 44928, Note_on_c, 1, 85, 64
2, 45401, Note_on_c, 1, 85, 0
2, 45408, Note_on_c, 1, 86, 64
2, 45453, Note_on_c, 1, 86, 0
2, 45456, Note_on_c, 1, 88, 64
2, 45501, Note_on_c, 1, 88, 0
2, 45504, Note_on_c, 1, 86, 64
2, 45549, Note_on_c, 1, 86, 0
2, 45552, Note_on_c, 1, 85, 64
2, 45597, Note_on_c, 1, 85, 0
2, 45600, Note_on_c, 1, 83, 64
2, 45645, Note_on_c, 1, 83, 0
2, 45648, Note_on_c, 1, 82, 64
2, 45693, Note_on_c, 1, 82, 0
2, 45696, Note_on_c, 1, 83, 64
2, 46169, Note_on_c, 1, 83, 0
2, 46176, Note_on_c, 1, 81, 64
2, 46221, Note_on_c, 1, 81, 0
2, 46224, Note_on_c, 1, 83, 64
2, 46269, Note_on_c, 1, 83, 0
2, 46272, Note_on_c, 1, 85, 64
2, 46317, Note_on_c, 1, 85, 0
2, 46320, Note_on_c, 1, 83, 64
2, 46365, Note_on_c, 1, 83, 0
2, 46368, Note_on_c, 1, 81, 64
2, 46413, Note_on_c, 1, 81, 0
2, 46416, Note_on_c, 1, 80, 64
2, 46461, Note_on_c, 1, 80, 0
2, 46464, Note_on_c, 1, 81, 64
2, 46729, Note_on_c, 1, 81, 0
2, 46752, Note_on_c, 1, 79, 64
2, 46841, Note_on_c, 1, 79, 0
2, 46848, Note_on_c, 1, 78, 64
2, 47085, Note_on_c, 1, 78, 0
2, 47088, Note_on_c, 1, 71, 64
2, 47133, Note_on_c, 1, 71, 0
2, 47136, Note_on_c, 1, 73, 64
2, 47181, Note_on_c, 1, 73, 0
2, 47184, Note_on_c, 1, 74, 64
2, 47229, Note_on_c, 1, 74, 0
2, 47232, Note_on_c, 1, 76, 64
2, 47277, Note_on_c, 1, 76, 0
2, 47280, Note_on_c, 1, 74, 64
2, 47325, Note_on_c, 1, 74, 0
2, 47328, Note_on_c, 1, 73, 64
2, 47373, Note_on_c, 1, 73, 0
2, 47376, Note_on_c, 1, 71, 64
2, 47421, Note_on_c, 1, 71, 0
2, 47424, Note_on_c, 1, 69, 64
2, 47469, Note_on_c, 1, 69, 0
2, 47472, Note_on_c, 1, 68, 64
2, 47517, Note_on_c, 1, 68, 0
2, 47520, Note_on_c, 1, 66, 64
2, 47565, Note_on_c, 1, 66, 0
2, 47568, Note_on_c, 1, 64, 64
2, 47613, Note_on_c, 1, 64, 0
2, 47616, Note_on_c, 1, 62, 64
2, 47705, Note_on_c, 1, 62, 0
2, 47712, Note_on_c, 1, 64, 64
2, 47757, Note_on_c, 1, 64, 0
2, 47760, Note_on_c, 1, 66, 64
2, 47805, Note_on_c, 1, 66, 0
2, 47808, Note_on_c, 1, 68, 64
2, 47897, Note_on_c, 1, 68, 0
2, 47904, Note_on_c, 1, 69, 64
2, 47949, Note_on_c, 1, 69, 0
2, 47952, Note_on_c, 1, 71, 64
2, 47997, Note_on_c, 1, 71, 0
2, 48000, Note_on_c, 1, 73, 64
2, 48089, Note_on_c, 1, 73, 0
2, 48096, Note_on_c, 1, 74, 64
2, 48141, Note_on_c, 1, 74, 0
2, 48144, Note_on_c, 1, 76, 64
2, 48189, Note_on_c, 1, 76, 0
2, 48192, Note_on_c, 1, 78, 64
2, 48281, Note_on_c, 1, 78, 0
2, 48288, Note_on_c, 1, 80, 64
2, 48333, Note_on_c, 1, 80, 0
2, 48336, Note_on_c, 1, 81, 64
2, 48381, Note_on_c, 1, 81, 0
2, 48384, Note_on_c, 1, 80, 64
2, 48473, Note_on_c, 1, 80, 0
2, 48480, Note_on_c, 1, 81, 64
2, 48525, Note_on_c, 1, 81, 0
2, 48528, Note_on_c, 1, 83, 64
2, 48573, Note_on_c, 1, 83, 0
2, 48576, Note_on_c, 1, 81, 64
2, 48621, Note_on_c, 1, 81, 0
2, 48624, Note_on_c, 1, 80, 64
2, 48669, Note_on_c, 1, 80, 0
2, 48672, Note_on_c, 1, 78, 64
2, 48717, Note_on_c, 1, 78, 0
2, 48720, Note_on_c, 1, 76, 64
2, 48765, Note_on_c, 1, 76, 0
2, 48768, Note_on_c, 1, 88, 64
2, 49965, Note_on_c, 1, 88, 0
2, 49968, Note_on_c, 1, 69, 64
2, 50013, Note_on_c, 1, 69, 0
2, 50016, Note_on_c, 1, 71, 64
2, 50061, Note_on_c, 1, 71, 0
2, 50064, Note_on_c, 1, 73, 64
2, 50109, Note_on_c, 1, 73, 0
2, 50112, Note_on_c, 1, 74, 64
2, 50157, Note_on_c, 1, 74, 0
2, 50160, Note_on_c, 1, 76, 64
2, 50205, Note_on_c, 1, 76, 0
2, 50208, Note_on_c, 1, 78, 64
2, 50253, Note_on_c, 1, 78, 0
2, 50256, Note_on_c, 1, 80, 64
2, 50301, Note_on_c, 1, 80, 0
2, 50304, Note_on_c, 1, 81, 64
2, 50393, Note_on_c, 1, 81, 0
2, 50400, Note_on_c, 1, 81, 64
2, 50423, Note_on_c, 1, 81, 0
2, 50424, Note_on_c, 1, 80, 64
2, 50447, Note_on_c, 1, 80, 0
2, 50448, Note_on_c, 1, 78, 64
2, 50493, Note_on_c, 1, 78, 0
2, 50496, Note_on_c, 1, 80, 64
2, 50585, Note_on_c, 1, 80, 0
2, 50592, Note_on_c, 1, 80, 64
2, 50615, Note_on_c, 1, 80, 0
2, 50616, Note_on_c, 1, 78, 64
2, 50639, Note_on_c, 1, 78, 0
2, 50640, Note_on_c, 1, 76, 64
2, 50685, Note_on_c, 1, 76, 0
2, 50688, Note_on_c, 1, 78, 64
2, 50953, Note_on_c, 1, 78, 0
2, 50976, Note_on_c, 1, 80, 64
2, 51065, Note_on_c, 1, 80, 0
2, 51072, Note_on_c, 1, 76, 64
2, 51095, Note_on_c, 1, 76, 0
2, 51096, Note_on_c, 1, 78, 64
2, 51119, Note_on_c, 1, 78, 0
2, 51120, Note_on_c, 1, 76, 64
2, 51143, Note_on_c, 1, 76, 0
2, 51144, Note_on_c, 1, 78, 64
2, 51167, Note_on_c, 1, 78, 0
2, 51168, Note_on_c, 1, 75, 64
2, 51213, Note_on_c, 1, 75, 0
2, 51216, Note_on_c, 1, 76, 64
2, 51261, Note_on_c, 1, 76, 0
2, 51264, Note_on_c, 1, 78, 64
2, 51309, Note_on_c, 1, 78, 0
2, 51312, Note_on_c, 1, 76, 64
2, 51357, Note_on_c, 1, 76, 0
2, 51360, Note_on_c, 1, 75, 64
2, 51405, Note_on_c, 1, 75, 0
2, 51408, Note_on_c, 1, 73, 64
2, 51453, Note_on_c, 1, 73, 0
2, 51456, Note_on_c, 1, 75, 64
2, 51501, Note_on_c, 1, 75, 0
2, 51504, Note_on_c, 1, 73, 64
2, 51549, Note_on_c, 1, 73, 0
2, 51552, Note_on_c, 1, 72, 64
2, 51597, Note_on_c, 1, 72, 0
2, 51600, Note_on_c, 1, 70, 64
2, 51645, Note_on_c, 1, 70, 0
2, 51648, Note_on_c, 1, 68, 64
2, 51737, Note_on_c, 1, 68, 0
2, 51744, Note_on_c, 1, 80, 64
2, 51885, Note_on_c, 1, 80, 0
2, 51888, Note_on_c, 1, 78, 64
2, 51933, Note_on_c, 1, 78, 0
2, 51936, Note_on_c, 1, 76, 64
2, 51981, Note_on_c, 1, 76, 0
2, 51984, Note_on_c, 1, 75, 64
2, 52029, Note_on_c, 1, 75, 0
2, 52032, Note_on_c, 1, 73, 64
2, 52121, Note_on_c, 1, 73, 0
2, 52128, Note_on_c, 1, 85, 64
2, 52269, Note_on_c, 1, 85, 0
2, 52272, Note_on_c, 1, 83, 64
2, 52317, Note_on_c, 1, 83, 0
2, 52320, Note_on_c, 1, 81, 64
2, 52365, Note_on_c, 1, 81, 0
2, 52368, Note_on_c, 1, 80, 64
2, 52413, Note_on_c, 1, 80, 0
2, 52416, Note_on_c, 1, 81, 64
2, 52461, Note_on_c, 1, 81, 0
2, 52464, Note_on_c, 1, 78, 64
2, 52509, Note_on_c, 1, 78, 0
2, 52512, Note_on_c, 1, 80, 64
2, 52557, Note_on_c, 1, 80, 0
2, 52560, Note_on_c, 1, 75, 64
2, 52605, Note_on_c, 1, 75, 0
2, 52608, Note_on_c, 1, 76, 64
2, 52741, Note_on_c, 1, 76, 0
2, 52752, Note_on_c, 1, 78, 64
2, 52797, Note_on_c, 1, 78, 0
2, 52800, Note_on_c, 1, 75, 64
2, 52933, Note_on_c, 1, 75, 0
2, 52944, Note_on_c, 1, 73, 64
2, 52989, Note_on_c, 1, 73, 0
2, 52992, Note_on_c, 1, 73, 64
2, 53346, Note_on_c, 1, 73, 0
2, 53568, Note_on_c, 1, 69, 64
2, 53745, Note_on_c, 1, 69, 0
2, 53760, Note_on_c, 1, 64, 64
2, 53849, Note_on_c, 1, 64, 0
2, 53856, Note_on_c, 1, 69, 64
2, 53945, Note_on_c, 1, 69, 0
2, 53952, Note_on_c, 1, 71, 64
2, 53997, Note_on_c, 1, 71, 0
2, 54000, Note_on_c, 1, 69, 64
2, 54045, Note_on_c, 1, 69, 0
2, 54048, Note_on_c, 1, 68, 64
2, 54093, Note_on_c, 1, 68, 0
2, 54096, Note_on_c, 1, 66, 64
2, 54141, Note_on_c, 1, 66, 0
2, 54144, Note_on_c, 1, 64, 64
2, 54705, Note_on_c, 1, 64, 0
2, 55680, Note_on_c, 1, 76, 64
2, 55857, Note_on_c, 1, 76, 0
2, 55872, Note_on_c, 1, 71, 64
2, 55961, Note_on_c, 1, 71, 0
2, 55968, Note_on_c, 1, 76, 64
2, 56057, Note_on_c, 1, 76, 0
2, 56064, Note_on_c, 1, 78, 64
2, 56109, Note_on_c, 1, 78, 0
2, 56112, Note_on_c, 1, 76, 64
2, 56157, Note_on_c, 1, 76, 0
2, 56160, Note_on_c, 1, 75, 64
2, 56205, Note_on_c, 1, 75, 0
2, 56208, Note_on_c, 1, 73, 64
2, 56253, Note_on_c, 1, 73, 0
2, 56256, Note_on_c, 1, 71, 64
2, 56433, Note_on_c, 1, 71, 0
2, 56448, Note_on_c, 1, 80, 64
2, 56472, Note_on_c, 1, 80, 0
2, 56472, Note_on_c, 1, 81, 64
2, 56496, Note_on_c, 1, 81, 0
2, 56496, Note_on_c, 1, 80, 64
2, 56544, Note_on_c, 1, 80, 0
2, 56544, Note_on_c, 1, 78, 64
2, 56589, Note_on_c, 1, 78, 0
2, 56592, Note_on_c, 1, 80, 64
2, 56637, Note_on_c, 1, 80, 0
2, 56640, Note_on_c, 1, 81, 64
2, 56685, Note_on_c, 1, 81, 0
2, 56688, Note_on_c, 1, 80, 64
2, 56733, Note_on_c, 1, 80, 0
2, 56736, Note_on_c, 1, 78, 64
2, 56781, Note_on_c, 1, 78, 0
2, 56784, Note_on_c, 1, 76, 64
2, 56829, Note_on_c, 1, 76, 0
2, 56832, Note_on_c, 1, 83, 64
2, 56877, Note_on_c, 1, 83, 0
2, 56880, Note_on_c, 1, 81, 64
2, 56925, Note_on_c, 1, 81, 0
2, 56928, Note_on_c, 1, 80, 64
2, 56973, Note_on_c, 1, 80, 0
2, 56976, Note_on_c, 1, 78, 64
2, 57021, Note_on_c, 1, 78, 0
2, 57024, Note_on_c, 1, 76, 64
2, 57113, Note_on_c, 1, 76, 0
2, 57120, Note_on_c, 1, 81, 64
2, 57305, Note_on_c, 1, 81, 0
2, 57312, Note_on_c, 1, 80, 64
2, 57401, Note_on_c, 1, 80, 0
2, 57408, Note_on_c, 1, 78, 64
2, 57453, Note_on_c, 1, 78, 0
2, 57456, Note_on_c, 1, 80, 64
2, 57501, Note_on_c, 1, 80, 0
2, 57504, Note_on_c, 1, 81, 64
2, 57549, Note_on_c, 1, 81, 0
2, 57552, Note_on_c, 1, 78, 64
2, 57597, Note_on_c, 1, 78, 0
2, 57600, Note_on_c, 1, 80, 64
2, 57645, Note_on_c, 1, 80, 0
2, 57648, Note_on_c, 1, 78, 64
2, 57693, Note_on_c, 1, 78, 0
2, 57696, Note_on_c, 1, 76, 64
2, 57741, Note_on_c, 1, 76, 0
2, 57744, Note_on_c, 1, 78, 64
2, 57789, Note_on_c, 1, 78, 0
2, 57792, Note_on_c, 1, 80, 64
2, 57837, Note_on_c, 1, 80, 0
2, 57840, Note_on_c, 1, 81, 64
2, 57885, Note_on_c, 1, 81, 0
2, 57888, Note_on_c, 1, 83, 64
2, 57933, Note_on_c, 1, 83, 0
2, 57936, Note_on_c, 1, 85, 64
2, 57981, Note_on_c, 1, 85, 0
2, 57984, Note_on_c, 1, 86, 64
2, 58457, Note_on_c, 1, 86, 0
2, 58464, Note_on_c, 1, 83, 64
2, 58553, Note_on_c, 1, 83, 0
2, 58560, Note_on_c, 1, 88, 64
2, 58649, Note_on_c, 1, 88, 0
2, 58656, Note_on_c, 1, 86, 64
2, 58745, Note_on_c, 1, 86, 0
2, 58752, Note_on_c, 1, 85, 64
2, 59225, Note_on_c, 1, 85, 0
2, 59232, Note_on_c, 1, 86, 64
2, 59277, Note_on_c, 1, 86, 0
2, 59280, Note_on_c, 1, 88, 64
2, 59325, Note_on_c, 1, 88, 0
2, 59328, Note_on_c, 1, 86, 64
2, 59373, Note_on_c, 1, 86, 0
2, 59376, Note_on_c, 1, 85, 64
2, 59421, Note_on_c, 1, 85, 0
2, 59424, Note_on_c, 1, 83, 64
2, 59469, Note_on_c, 1, 83, 0
2, 59472, Note_on_c, 1, 81, 64
2, 59517, Note_on_c, 1, 81, 0
2, 59520, Note_on_c, 1, 83, 64
2, 59697, Note_on_c, 1, 83, 0
2, 59712, Note_on_c, 1, 71, 64
2, 59993, Note_on_c, 1, 71, 0
2, 60000, Note_on_c, 1, 73, 64
2, 60045, Note_on_c, 1, 73, 0
2, 60048, Note_on_c, 1, 74, 64
2, 60093, Note_on_c, 1, 74, 0
2, 60096, Note_on_c, 1, 73, 64
2, 60141, Note_on_c, 1, 73, 0
2, 60144, Note_on_c, 1, 71, 64
2, 60189, Note_on_c, 1, 71, 0
2, 60192, Note_on_c, 1, 69, 64
2, 60237, Note_on_c, 1, 69, 0
2, 60240, Note_on_c, 1, 68, 64
2, 60285, Note_on_c, 1, 68, 0
2, 60288, Note_on_c, 1, 69, 64
2, 60465, Note_on_c, 1, 69, 0
2, 60480, Note_on_c, 1, 64, 64
2, 60569, Note_on_c, 1, 64, 0
2, 60576, Note_on_c, 1, 69, 64
2, 60665, Note_on_c, 1, 69, 0
2, 60672, Note_on_c, 1, 71, 64
2, 60717, Note_on_c, 1, 71, 0
2, 60720, Note_on_c, 1, 69, 64
2, 60765, Note_on_c, 1, 69, 0
2, 60768, Note_on_c, 1, 68, 64
2, 60813, Note_on_c, 1, 68, 0
2, 60816, Note_on_c, 1, 66, 64
2, 60861, Note_on_c, 1, 66, 0
2, 60864, Note_on_c, 1, 64, 64
2, 61041, Note_on_c, 1, 64, 0
2, 61056, Note_on_c, 1, 73, 64
2, 61080, Note_on_c, 1, 73, 0
2, 61080, Note_on_c, 1, 74, 64
2, 61104, Note_on_c, 1, 74, 0
2, 61104, Note_on_c, 1, 73, 64
2, 61149, Note_on_c, 1, 73, 0
2, 61152, Note_on_c, 1, 74, 64
2, 61197, Note_on_c, 1, 74, 0
2, 61200, Note_on_c, 1, 76, 64
2, 61245, Note_on_c, 1, 76, 0
2, 61248, Note_on_c, 1, 74, 64
2, 61293, Note_on_c, 1, 74, 0
2, 61296, Note_on_c, 1, 73, 64
2, 61341, Note_on_c, 1, 73, 0
2, 61344, Note_on_c, 1, 71, 64
2, 61389, Note_on_c, 1, 71, 0
2, 61392, Note_on_c, 1, 69, 64
2, 61437, Note_on_c, 1, 69, 0
2, 61440, Note_on_c, 1, 76, 64
2, 61485, Note_on_c, 1, 76, 0
2, 61488, Note_on_c, 1, 74, 64
2, 61533, Note_on_c, 1, 74, 0
2, 61536, Note_on_c, 1, 73, 64
2, 61581, Note_on_c, 1, 73, 0
2, 61584, Note_on_c, 1, 71, 64
2, 61629, Note_on_c, 1, 71, 0
2, 61632, Note_on_c, 1, 69, 64
2, 61721, Note_on_c, 1, 69, 0
2, 61728, Note_on_c, 1, 78, 64
2, 61817, Note_on_c, 1, 78, 0
2, 61824, Note_on_c, 1, 73, 64
2, 61957, Note_on_c, 1, 73, 0
2, 61968, Note_on_c, 1, 74, 64
2, 62013, Note_on_c, 1, 74, 0
2, 62016, Note_on_c, 1, 71, 64
2, 62149, Note_on_c, 1, 71, 0
2, 62160, Note_on_c, 1, 69, 64
2, 62205, Note_on_c, 1, 69, 0
2, 62208, Note_on_c, 1, 69, 64
2, 62562, Note_on_c, 1, 69, 0
2, 64128, Note_on_c, 1, 76, 64
2, 64217, Note_on_c, 1, 76, 0
2, 64224, Note_on_c, 1, 78, 64
2, 64269, Note_on_c, 1, 78, 0
2, 64272, Note_on_c, 1, 79, 64
2, 64317, Note_on_c, 1, 79, 0
2, 64320, Note_on_c, 1, 78, 64
2, 64365, Note_on_c, 1, 78, 0
2, 64368, Note_on_c, 1, 76, 64
2, 64413, Note_on_c, 1, 76, 0
2, 64416, Note_on_c, 1, 74, 64
2, 64461, Note_on_c, 1, 74, 0
2, 64464, Note_on_c, 1, 73, 64
2, 64509, Note_on_c, 1, 73, 0
2, 64512, Note_on_c, 1, 81, 64
2, 64689, Note_on_c, 1, 81, 0
2, 64704, Note_on_c, 1, 69, 64
2, 64793, Note_on_c, 1, 69, 0
2, 64800, Note_on_c, 1, 73, 64
2, 64889, Note_on_c, 1, 73, 0
2, 64896, Note_on_c, 1, 74, 64
2, 64985, Note_on_c, 1, 74, 0
2, 64992, Note_on_c, 1, 74, 64
2, 65015, Note_on_c, 1, 74, 0
2, 65016, Note_on_c, 1, 76, 64
2, 65039, Note_on_c, 1, 76, 0
2, 65040, Note_on_c, 1, 78, 64
2, 65085, Note_on_c, 1, 78, 0
2, 65088, Note_on_c, 1, 76, 64
2, 65177, Note_on_c, 1, 76, 0
2, 65184, Note_on_c, 1, 76, 64
2, 65207, Note_on_c, 1, 76, 0
2, 65208, Note_on_c, 1, 78, 64
2, 65231, Note_on_c, 1, 78, 0
2, 65232, Note_on_c, 1, 79, 64
2, 65277, Note_on_c, 1, 79, 0
2, 65280, Note_on_c, 1, 78, 64
2, 65369, Note_on_c, 1, 78, 0
2, 65376, Note_on_c, 1, 79, 64
2, 65421, Note_on_c, 1, 79, 0
2, 65424, Note_on_c, 1, 81, 64
2, 65469, Note_on_c, 1, 81, 0
2, 65472, Note_on_c, 1, 79, 64
2, 65517, Note_on_c, 1, 79, 0
2, 65520, Note_on_c, 1, 78, 64
2, 65565, Note_on_c, 1, 78, 0
2, 65568, Note_on_c, 1, 76, 64
2, 65613, Note_on_c, 1, 76, 0
2, 65616, Note_on_c, 1, 74, 64
2, 65661, Note_on_c, 1, 74, 0
2, 65664, Note_on_c, 1, 79, 64
2, 65753, Note_on_c, 1, 79, 0
2, 65760, Note_on_c, 1, 79, 64
2, 65783, Note_on_c, 1, 79, 0
2, 65784, Note_on_c, 1, 78, 64
2, 65807, Note_on_c, 1, 78, 0
2, 65808, Note_on_c, 1, 76, 64
2, 65853, Note_on_c, 1, 76, 0
2, 65856, Note_on_c, 1, 78, 64
2, 65945, Note_on_c, 1, 78, 0
2, 65952, Note_on_c, 1, 78, 64
2, 65975, Note_on_c, 1, 78, 0
2, 65976, Note_on_c, 1, 76, 64
2, 65999, Note_on_c, 1, 76, 0
2, 66000, Note_on_c, 1, 74, 64
2, 66045, Note_on_c, 1, 74, 0
2, 66048, Note_on_c, 1, 76, 64
2, 66313, Note_on_c, 1, 76, 0
2, 66336, Note_on_c, 1, 78, 64
2, 66425, Note_on_c, 1, 78, 0
2, 66432, Note_on_c, 1, 74, 64
2, 66521, Note_on_c, 1, 74, 0
2, 66528, Note_on_c, 1, 73, 64
2, 66573, Note_on_c, 1, 73, 0
2, 66576, Note_on_c, 1, 74, 64
2, 66621, Note_on_c, 1, 74, 0
2, 66624, Note_on_c, 1, 76, 64
2, 66669, Note_on_c, 1, 76, 0
2, 66672, Note_on_c, 1, 74, 64
2, 66717, Note_on_c, 1, 74, 0
2, 66720, Note_on_c, 1, 73, 64
2, 66765, Note_on_c, 1, 73, 0
2, 66768, Note_on_c, 1, 71, 64
2, 66813, Note_on_c, 1, 71, 0
2, 66816, Note_on_c, 1, 73, 64
2, 66861, Note_on_c, 1, 73, 0
2, 66864, Note_on_c, 1, 71, 64
2, 66909, Note_on_c, 1, 71, 0
2, 66912, Note_on_c, 1, 70, 64
2, 66957, Note_on_c, 1, 70, 0
2, 66960, Note_on_c, 1, 68, 64
2, 67005, Note_on_c, 1, 68, 0
2, 67008, Note_on_c, 1, 66, 64
2, 67097, Note_on_c, 1, 66, 0
2, 67104, Note_on_c, 1, 78, 64
2, 67245, Note_on_c, 1, 78, 0
2, 67248, Note_on_c, 1, 76, 64
2, 67293, Note_on_c, 1, 76, 0
2, 67296, Note_on_c, 1, 74, 64
2, 67341, Note_on_c, 1, 74, 0
2, 67344, Note_on_c, 1, 73, 64
2, 67389, Note_on_c, 1, 73, 0
2, 67392, Note_on_c, 1, 71, 64
2, 67481, Note_on_c, 1, 71, 0
2, 67488, Note_on_c, 1, 83, 64
2, 67629, Note_on_c, 1, 83, 0
2, 67632, Note_on_c, 1, 81, 64
2, 67677, Note_on_c, 1, 81, 0
2, 67680, Note_on_c, 1, 79, 64
2, 67725, Note_on_c, 1, 79, 0
2, 67728, Note_on_c, 1, 78, 64
2, 67773, Note_on_c, 1, 78, 0
2, 67776, Note_on_c, 1, 79, 64
2, 67821, Note_on_c, 1, 79, 0
2, 67824, Note_on_c, 1, 76, 64
2, 67869, Note_on_c, 1, 76, 0
2, 67872, Note_on_c, 1, 78, 64
2, 67917, Note_on_c, 1, 78, 0
2, 67920, Note_on_c, 1, 73, 64
2, 67965, Note_on_c, 1, 73, 0
2, 67968, Note_on_c, 1, 74, 64
2, 68101, Note_on_c, 1, 74, 0
2, 68112, Note_on_c, 1, 76, 64
2, 68157, Note_on_c, 1, 76, 0
2, 68160, Note_on_c, 1, 73, 64
2, 68183, Note_on_c, 1, 73, 0
2, 68184, Note_on_c, 1, 74, 64
2, 68207, Note_on_c, 1, 74, 0
2, 68208, Note_on_c, 1, 73, 64
2, 68231, Note_on_c, 1, 73, 0
2, 68232, Note_on_c, 1, 74, 64
2, 68255, Note_on_c, 1, 74, 0
2, 68256, Note_on_c, 1, 73, 64
2, 68279, Note_on_c, 1, 73, 0
2, 68280, Note_on_c, 1, 74, 64
2, 68303, Note_on_c, 1, 74, 0
2, 68304, Note_on_c, 1, 71, 64
2, 68349, Note_on_c, 1, 71, 0
2, 68352, Note_on_c, 1, 71, 64
2, 68706, Note_on_c, 1, 71, 0
2, 69504, Note_on_c, 1, 83, 64
2, 69593, Note_on_c, 1, 83, 0
2, 69600, Note_on_c, 1, 85, 64
2, 69645, Note_on_c, 1, 85, 0
2, 69648, Note_on_c, 1, 86, 64
2, 69693, Note_on_c, 1, 86, 0
2, 69696, Note_on_c, 1, 85, 64
2, 69741, Note_on_c, 1, 85, 0
2, 69744, Note_on_c, 1, 83, 64
2, 69789, Note_on_c, 1, 83, 0
2, 69792, Note_on_c, 1, 81, 64
2, 69837, Note_on_c, 1, 81, 0
2, 69840, Note_on_c, 1, 80, 64
2, 69885, Note_on_c, 1, 80, 0
2, 69888, Note_on_c, 1, 88, 64
2, 70065, Note_on_c, 1, 88, 0
2, 70080, Note_on_c, 1, 76, 64
2, 70169, Note_on_c, 1, 76, 0
2, 70176, Note_on_c, 1, 80, 64
2, 70265, Note_on_c, 1, 80, 0
2, 70272, Note_on_c, 1, 81, 64
2, 70361, Note_on_c, 1, 81, 0
2, 70368, Note_on_c, 1, 81, 64
2, 70391, Note_on_c, 1, 81, 0
2, 70392, Note_on_c, 1, 83, 64
2, 70415, Note_on_c, 1, 83, 0
2, 70416, Note_on_c, 1, 85, 64
2, 70461, Note_on_c, 1, 85, 0
2, 70464, Note_on_c, 1, 83, 64
2, 70553, Note_on_c, 1, 83, 0
2, 70560, Note_on_c, 1, 83, 64
2, 70583, Note_on_c, 1, 83, 0
2, 70584, Note_on_c, 1, 85, 64
2, 70607, Note_on_c, 1, 85, 0
2, 70608, Note_on_c, 1, 86, 64
2, 70653, Note_on_c, 1, 86, 0
2, 70656, Note_on_c, 1, 85, 64
2, 71129, Note_on_c, 1, 85, 0
2, 71136, Note_on_c, 1, 86, 64
2, 71181, Note_on_c, 1, 86, 0
2, 71184, Note_on_c, 1, 88, 64
2, 71229, Note_on_c, 1, 88, 0
2, 71232, Note_on_c, 1, 86, 64
2, 71277, Note_on_c, 1, 86, 0
2, 71280, Note_on_c, 1, 85, 64
2, 71325, Note_on_c, 1, 85, 0
2, 71328, Note_on_c, 1, 83, 64
2, 71373, Note_on_c, 1, 83, 0
2, 71376, Note_on_c, 1, 82, 64
2, 71421, Note_on_c, 1, 82, 0
2, 71424, Note_on_c, 1, 83, 64
2, 71897, Note_on_c, 1, 83, 0
2, 71904, Note_on_c, 1, 81, 64
2, 71949, Note_on_c, 1, 81, 0
2, 71952, Note_on_c, 1, 83, 64
2, 71997, Note_on_c, 1, 83, 0
2, 72000, Note_on_c, 1, 85, 64
2, 72045, Note_on_c, 1, 85, 0
2, 72048, Note_on_c, 1, 83, 64
2, 72093, Note_on_c, 1, 83, 0
2, 72096, Note_on_c, 1, 81, 64
2, 72141, Note_on_c, 1, 81, 0
2, 72144, Note_on_c, 1, 80, 64
2, 72189, Note_on_c, 1, 80, 0
2, 72192, Note_on_c, 1, 81, 64
2, 72457, Note_on_c, 1, 81, 0
2, 72480, Note_on_c, 1, 79, 64
2, 72569, Note_on_c, 1, 79, 0
2, 72576, Note_on_c, 1, 78, 64
2, 72813, Note_on_c, 1, 78, 0
2, 72816, Note_on_c, 1, 71, 64
2, 72861, Note_on_c, 1, 71, 0
2, 72864, Note_on_c, 1, 73, 64
2, 72909, Note_on_c, 1, 73, 0
2, 72912, Note_on_c, 1, 74, 64
2, 72957, Note_on_c, 1, 74, 0
2, 72960, Note_on_c, 1, 76, 64
2, 73005, Note_on_c, 1, 76, 0
2, 73008, Note_on_c, 1, 74, 64
2, 73053, Note_on_c, 1, 74, 0
2, 73056, Note_on_c, 1, 73, 64
2, 73101, Note_on_c, 1, 73, 0
2, 73104, Note_on_c, 1, 71, 64
2, 73149, Note_on_c, 1, 71, 0
2, 73152, Note_on_c, 1, 69, 64
2, 73197, Note_on_c, 1, 69, 0
2, 73200, Note_on_c, 1, 68, 64
2, 73245, Note_on_c, 1, 68, 0
2, 73248, Note_on_c, 1, 66, 64
2, 73293, Note_on_c, 1, 66, 0
2, 73296, Note_on_c, 1, 64, 64
2, 73341, Note_on_c, 1, 64, 0
2, 73344, Note_on_c, 1, 62, 64
2, 73433, Note_on_c, 1, 62, 0
2, 73440, Note_on_c, 1, 64, 64
2, 73485, Note_on_c, 1, 64, 0
2, 73488, Note_on_c, 1, 66, 64
2, 73533, Note_on_c, 1, 66, 0
2, 73536, Note_on_c, 1, 68, 64
2, 73625, Note_on_c, 1, 68, 0
2, 73632, Note_on_c, 1, 69, 64
2, 73677, Note_on_c, 1, 69, 0
2, 73680, Note_on_c, 1, 71, 64
2, 73725, Note_on_c, 1, 71, 0
2, 73728, Note_on_c, 1, 73, 64
2, 73817, Note_on_c, 1, 73, 0
2, 73824, Note_on_c, 1, 74, 64
2, 73869, Note_on_c, 1, 74, 0
2, 73872, Note_on_c, 1, 76, 64
2, 73917, Note_on_c, 1, 76, 0
2, 73920, Note_on_c, 1, 78, 64
2, 74009, Note_on_c, 1, 78, 0
2, 74016, Note_on_c, 1, 80, 64
2, 74061, Note_on_c, 1, 80, 0
2, 74064, Note_on_c, 1, 81, 64
2, 74109, Note_on_c, 1, 81, 0
2, 74112, Note_on_c, 1, 80, 64
2, 74201, Note_on_c, 1, 80, 0
2, 74208, Note_on_c, 1, 81, 64
2, 74253, Note_on_c, 1, 81, 0
2, 74256, Note_on_c, 1, 83, 64
2, 74301, Note_on_c, 1, 83, 0
2, 74304, Note_on_c, 1, 81, 64
2, 74349, Note_on_c, 1, 81, 0
2, 74352, Note_on_c, 1, 80, 64
2, 74397, Note_on_c, 1, 80, 0
2, 74400, Note_on_c, 1, 78, 64
2, 74445, Note_on_c, 1, 78, 0
2, 74448, Note_on_c, 1, 76, 64
2, 74493, Note_on_c, 1, 76, 0
2, 74496, Note_on_c, 1, 88, 64
2, 75693, Note_on_c, 1, 88, 0
2, 75696, Note_on_c, 1, 69, 64
2, 75741, Note_on_c, 1, 69, 0
2, 75744, Note_on_c, 1, 71, 64
2, 75789, Note_on_c, 1, 71, 0
2, 75792, Note_on_c, 1, 73, 64
2, 75837, Note_on_c, 1, 73, 0
2, 75840, Note_on_c, 1, 74, 64
2, 75885, Note_on_c, 1, 74, 0
2, 75888, Note_on_c, 1, 76, 64
2, 75933, Note_on_c, 1, 76, 0
2, 75936, Note_on_c, 1, 78, 64
2, 75981, Note_on_c, 1, 78, 0
2, 75984, Note_on_c, 1, 80, 64
2, 76029, Note_on_c, 1, 80, 0
2, 76032, Note_on_c, 1, 81, 64
2, 76121, Note_on_c, 1, 81, 0
2, 76128, Note_on_c, 1, 81, 64
2, 76151, Note_on_c, 1, 81, 0
2, 76152, Note_on_c, 1, 80, 64
2, 76175, Note_on_c, 1, 80, 0
2, 76176, Note_on_c, 1, 78, 64
2, 76221, Note_on_c, 1, 78, 0
2, 76224, Note_on_c, 1, 80, 64
2, 76313, Note_on_c, 1, 80, 0
2, 76320, Note_on_c, 1, 80, 64
2, 76343, Note_on_c, 1, 80, 0
2, 76344, Note_on_c, 1, 78, 64
2, 76367, Note_on_c, 1, 78, 0
2, 76368, Note_on_c, 1, 76, 64
2, 76413, Note_on_c, 1, 76, 0
2, 76416, Note_on_c, 1, 78, 64
2, 76681, Note_on_c, 1, 78, 0
2, 76704, Note_on_c, 1, 80, 64
2, 76793, Note_on_c, 1, 80, 0
2, 76800, Note_on_c, 1, 76, 64
2, 76823, Note_on_c, 1, 76, 0
2, 76824, Note_on_c, 1, 78, 64
2, 76847, Note_on_c, 1, 78, 0
2, 76848, Note_on_c, 1, 76, 64
2, 76871, Note_on_c, 1, 76, 0
2, 76872, Note_on_c, 1, 78, 64
2, 76895, Note_on_c, 1, 78, 0
2, 76896, Note_on_c, 1, 75, 64
2, 76941, Note_on_c, 1, 75, 0
2, 76944, Note_on_c, 1, 76, 64
2, 76989, Note_on_c, 1, 76, 0
2, 76992, Note_on_c, 1, 78, 64
2, 77037, Note_on_c, 1, 78, 0
2, 77040, Note_on_c, 1, 76, 64
2, 77085, Note_on_c, 1, 76, 0
2, 77088, Note_on_c, 1, 75, 64
2, 77133, Note_on_c, 1, 75, 0
2, 77136, Note_on_c, 1, 73, 64
2, 77181, Note_on_c, 1, 73, 0
2, 77184, Note_on_c, 1, 75, 64
2, 77229, Note_on_c, 1, 75, 0
2, 77232, Note_on_c, 1, 73, 64
2, 77277, Note_on_c, 1, 73, 0
2, 77280, Note_on_c, 1, 72, 64
2, 77325, Note_on_c, 1, 72, 0
2, 77328, Note_on_c, 1, 70, 64
2, 77373, Note_on_c, 1, 70, 0
2, 77376, Note_on_c, 1, 68, 64
2, 77465, Note_on_c, 1, 68, 0
2, 77472, Note_on_c, 1, 80, 64
2, 77613, Note_on_c, 1, 80, 0
2, 77616, Note_on_c, 1, 78, 64
2, 77661, Note_on_c, 1, 78, 0
2, 77664, Note_on_c, 1, 76, 64
2, 77709, Note_on_c, 1, 76, 0
2, 77712, Note_on_c, 1, 75, 64
2, 77757, Note_on_c, 1, 75, 0
2, 77760, Note_on_c, 1, 73, 64
2, 77849, Note_on_c, 1, 73, 0
2, 77856, Note_on_c, 1, 85, 64
2, 77997, Note_on_c, 1, 85, 0
2, 78000, Note_on_c, 1, 83, 64
2, 78045, Note_on_c, 1, 83, 0
2, 78048, Note_on_c, 1, 81, 64
2, 78093, Note_on_c, 1, 81, 0
2, 78096, Note_on_c, 1, 80, 64
2, 78141, Note_on_c, 1, 80, 0
2, 78144, Note_on_c, 1, 81, 64
2, 78189, Note_on_c, 1, 81, 0
2, 78192, Note_on_c, 1, 78, 64
2, 78237, Note_on_c, 1, 78, 0
2, 78240, Note_on_c, 1, 80, 64
2, 78285, Note_on_c, 1, 80, 0
2, 78288, Note_on_c, 1, 75, 64
2, 78333, Note_on_c, 1, 75, 0
2, 78336, Note_on_c, 1, 76, 64
2, 78469, Note_on_c, 1, 76, 0
2, 78480, Note_on_c, 1, 78, 64
2, 78525, Note_on_c, 1, 78, 0
2, 78528, Note_on_c, 1, 75, 64
2, 78661, Note_on_c, 1, 75, 0
2, 78672, Note_on_c, 1, 73, 64
2, 78717, Note_on_c, 1, 73, 0
2, 78720, Note_on_c, 1, 73, 64
2, 79074, Note_on_c, 1, 73, 0
2, 79296, Note_on_c, 1, 69, 64
2, 79473, Note_on_c, 1, 69, 0
2, 79488, Note_on_c, 1, 64, 64
2, 79577, Note_on_c, 1, 64, 0
2, 79584, Note_on_c, 1, 69, 64
2, 79673, Note_on_c, 1, 69, 0
2, 79680, Note_on_c, 1, 71, 64
2, 79725, Note_on_c, 1, 71, 0
2, 79728, Note_on_c, 1, 69, 64
2, 79773, Note_on_c, 1, 69, 0
2, 79776, Note_on_c, 1, 68, 64
2, 79821, Note_on_c, 1, 68, 0
2, 79824, Note_on_c, 1, 66, 64
2, 79869, Note_on_c, 1, 66, 0
2, 79872, Note_on_c, 1, 64, 64
2, 80433, Note_on_c, 1, 64, 0
2, 81408, Note_on_c, 1, 76, 64
2, 81585, Note_on_c, 1, 76, 0
2, 81600, Note_on_c, 1, 71, 64
2, 81689, Note_on_c, 1, 71, 0
2, 81696, Note_on_c, 1, 76, 64
2, 81785, Note_on_c, 1, 76, 0
2, 81792, Note_on_c, 1, 78, 64
2, 81837, Note_on_c, 1, 78, 0
2, 81840, Note_on_c, 1, 76, 64
2, 81885, Note_on_c, 1, 76, 0
2, 81888, Note_on_c, 1, 75, 64
2, 81933, Note_on_c, 1, 75, 0
2, 81936, Note_on_c, 1, 73, 64
2, 81981, Note_on_c, 1, 73, 0
2, 81984, Note_on_c, 1, 71, 64
2, 82161, Note_on_c, 1, 71, 0
2, 82176, Note_on_c, 1, 80, 64
2, 82200, Note_on_c, 1, 80, 0
2, 82200, Note_on_c, 1, 81, 64
2, 82224, Note_on_c, 1, 81, 0
2, 82224, Note_on_c, 1, 80, 64
2, 82272, Note_on_c, 1, 80, 0
2, 82272, Note_on_c, 1, 78, 64
2, 82317, Note_on_c, 1, 78, 0
2, 82320, Note_on_c, 1, 80, 64
2, 82365, Note_on_c, 1, 80, 0
2, 82368, Note_on_c, 1, 81, 64
2, 82413, Note_on_c, 1, 81, 0
2, 82416, Note_on_c, 1, 80, 64
2, 82461, Note_on_c, 1, 80, 0
2, 82464, Note_on_c, 1, 78, 64
2, 82509, Note_on_c, 1, 78, 0
2, 82512, Note_on_c, 1, 76, 64
2, 82557, Note_on_c, 1, 76, 0
2, 82560, Note_on_c, 1, 83, 64
2, 82605, Note_on_c, 1, 83, 0
2, 82608, Note_on_c, 1, 81, 64
2, 82653, Note_on_c, 1, 81, 0
2, 82656, Note_on_c, 1, 80, 64
2, 82701, Note_on_c, 1, 80, 0
2, 82704, Note_on_c, 1, 78, 64
2, 82749, Note_on_c, 1, 78, 0
2, 82752, Note_on_c, 1, 76, 64
2, 82841, Note_on_c, 1, 76, 0
2, 82848, Note_on_c, 1, 81, 64
2, 83033, Note_on_c, 1, 81, 0
2, 83040, Note_on_c, 1, 80, 64
2, 83129, Note_on_c, 1, 80, 0
2, 83136, Note_on_c, 1, 78, 64
2, 83181, Note_on_c, 1, 78, 0
2, 83184, Note_on_c, 1, 80, 64
2, 83229, Note_on_c, 1, 80, 0
2, 83232, Note_on_c, 1, 81, 64
2, 83277, Note_on_c, 1, 81, 0
2, 83280, Note_on_c, 1, 78, 64
2, 83325, Note_on_c, 1, 78, 0
2, 83328, Note_on_c, 1, 80, 64
2, 83373, Note_on_c, 1, 80, 0
2, 83376, Note_on_c, 1, 78, 64
2, 83421, Note_on_c, 1, 78, 0
2, 83424, Note_on_c, 1, 76, 64
2, 83469, Note_on_c, 1, 76, 0
2, 83472, Note_on_c, 1, 78, 64
2, 83517, Note_on_c, 1, 78, 0
2, 83520, Note_on_c, 1, 80, 64
2, 83565, Note_on_c, 1, 80, 0
2, 83568, Note_on_c, 1, 81, 64
2, 83613, Note_on_c, 1, 81, 0
2, 83616, Note_on_c, 1, 83, 64
2, 83661, Note_on_c, 1, 83, 0
2, 83664, Note_on_c, 1, 85, 64
2, 83709, Note_on_c, 1, 85, 0
2, 83712, Note_on_c, 1, 86, 64
2, 84185, Note_on_c, 1, 86, 0
2, 84192, Note_on_c, 1, 83, 64
2, 84281, Note_on_c, 1, 83, 0
2, 84288, Note_on_c, 1, 88, 64
2, 84377, Note_on_c, 1, 88, 0
2, 84384, Note_on_c, 1, 86, 64
2, 84473, Note_on_c, 1, 86, 0
2, 84480, Note_on_c, 1, 85, 64
2, 84953, Note_on_c, 1, 85, 0
2, 84960, Note_on_c, 1, 86, 64
2, 85005, Note_on_c, 1, 86, 0
2, 85008, Note_on_c, 1, 88, 64
2, 85053, Note_on_c, 1, 88, 0
2, 85056, Note_on_c, 1, 86, 64
2, 85101, Note_on_c, 1, 86, 0
2, 85104, Note_on_c, 1, 85, 64
2, 85149, Note_on_c, 1, 85, 0
2, 85152, Note_on_c, 1, 83, 64
2, 85197, Note_on_c, 1, 83, 0
2, 85200, Note_on_c, 1, 81, 64
2, 85245, Note_on_c, 1, 81, 0
2, 85248, Note_on_c, 1, 83, 64
2, 85425, Note_on_c, 1, 83, 0
2, 85440, Note_on_c, 1, 71, 64
2, 85721, Note_on_c, 1, 71, 0
2, 85728, Note_on_c, 1, 73, 64
2, 85773, Note_on_c, 1, 73, 0
2, 85776, Note_on_c, 1, 74, 64
2, 85821, Note_on_c, 1, 74, 0
2, 85824, Note_on_c, 1, 73, 64
2, 85869, Note_on_c, 1, 73, 0
2, 85872, Note_on_c, 1, 71, 64
2, 85917, Note_on_c, 1, 71, 0
2, 85920, Note_on_c, 1, 69, 64
2, 85965, Note_on_c, 1, 69, 0
2, 85968, Note_on_c, 1, 68, 64
2, 86013, Note_on_c, 1, 68, 0
2, 86016, Note_on_c, 1, 69, 64
2, 86193, Note_on_c, 1, 69, 0
2, 86208, Note_on_c, 1, 64, 64
2, 86297, Note_on_c, 1, 64, 0
2, 86304, Note_on_c, 1, 69, 64
2, 86393, Note_on_c, 1, 69, 0
2, 86400, Note_on_c, 1, 71, 64
2, 86445, Note_on_c, 1, 71, 0
2, 86448, Note_on_c, 1, 69, 64
2, 86493, Note_on_c, 1, 69, 0
2, 86496, Note_on_c, 1, 68, 64
2, 86541, Note_on_c, 1, 68, 0
2, 86544, Note_on_c, 1, 66, 64
2, 86589, Note_on_c, 1, 66, 0
2, 86592, Note_on_c, 1, 64, 64
2, 86769, Note_on_c, 1, 64, 0
2, 86784, Note_on_c, 1, 73, 64
2, 86808, Note_on_c, 1, 73, 0
2, 86808, Note_on_c, 1, 74, 64
2, 86832, Note_on_c, 1, 74, 0
2, 86832, Note_on_c, 1, 73, 64
2, 86877, Note_on_c, 1, 73, 0
2, 86880, Note_on_c, 1, 74, 64
2, 86925, Note_on_c, 1, 74, 0
2, 86928, Note_on_c, 1, 76, 64
2, 86973, Note_on_c, 1, 76, 0
2, 86976, Note_on_c, 1, 74, 64
2, 87021, Note_on_c, 1, 74, 0
2, 87024, Note_on_c, 1, 73, 64
2, 87069, Note_on_c, 1, 73, 0
2, 87072, Note_on_c, 1, 71, 64
2, 87117, Note_on_c, 1, 71, 0
2, 87120, Note_on_c, 1, 69, 64
2, 87165, Note_on_c, 1, 69, 0
2, 87168, Note_on_c, 1, 76, 64
2, 87213, Note_on_c, 1, 76, 0
2, 87216, Note_on_c, 1, 74, 64
2, 87261, Note_on_c, 1, 74, 0
2, 87264, Note_on_c, 1, 73, 64
2, 87309, Note_on_c, 1, 73, 0
2, 87312, Note_on_c, 1, 71, 64
2, 87357, Note_on_c, 1, 71, 0
2, 87360, Note_on_c, 1, 69, 64
2, 87449, Note_on_c, 1, 69, 0
2, 87456, Note_on_c, 1, 78, 64
2, 87545, Note_on_c, 1, 78, 0
2, 87552, Note_on_c, 1, 73, 64
2, 87685, Note_on_c, 1, 73, 0
2, 87696, Note_on_c, 1, 74, 64
2, 87741, Note_on_c, 1, 74, 0
2, 87744, Note_on_c, 1, 71, 64
2, 87877, Note_on_c, 1, 71, 0
2, 87888, Note_on_c, 1, 69, 64
2, 87933, Note_on_c, 1, 69, 0
2, 87936, Note_on_c, 1, 69, 64
2, 88290, Note_on_c, 1, 69, 0
2, 88290, End_track
3, 0, Start_track
3, 0, MIDI_port, 0
3, 0, Title_t, "Clavier (RH)"
3, 0, Program_c, 0, 6
3, 0, Control_c, 0, 7, 127
3, 2304, Note_on_c, 0, 76, 64
3, 2481, Note_on_c, 0, 76, 0
3, 2496, Note_on_c, 0, 71, 64
3, 2585, Note_on_c, 0, 71, 0
3, 2592, Note_on_c, 0, 76, 64
3, 2681, Note_on_c, 0, 76, 0
3, 2688, Note_on_c, 0, 78, 64
3, 2733, Note_on_c, 0, 78, 0
3, 2736, Note_on_c, 0, 76, 64
3, 2781, Note_on_c, 0, 76, 0
3, 2784, Note_on_c, 0, 75, 64
3, 2829, Note_on_c, 0, 75, 0
3, 2832, Note_on_c, 0, 73, 64
3, 2877, Note_on_c, 0, 73, 0
3, 2880, Note_on_c, 0, 71, 64
3, 3057, Note_on_c, 0, 71, 0
3, 3072, Note_on_c, 0, 80, 64
3, 3096, Note_on_c, 0, 80, 0
3, 3096, Note_on_c, 0, 81, 64
3, 3120, Note_on_c, 0, 81, 0
3, 3120, Note_on_c, 0, 80, 64
3, 3165, Note_on_c, 0, 80, 0
3, 3168, Note_on_c, 0, 78, 64
3, 3213, Note_on_c, 0, 78, 0
3, 3216, Note_on_c, 0, 80, 64
3, 3261, Note_on_c, 0, 80, 0
3, 3264, Note_on_c, 0, 81, 64
3, 3309, Note_on_c, 0, 81, 0
3, 3312, Note_on_c, 0, 80, 64
3, 3357, Note_on_c, 0, 80, 0
3, 3360, Note_on_c, 0, 78, 64
3, 3405, Note_on_c, 0, 78, 0
3, 3408, Note_on_c, 0, 76, 64
3, 3453, Note_on_c, 0, 76, 0
3, 3456, Note_on_c, 0, 83, 64
3, 3501, Note_on_c, 0, 83, 0
3, 3504, Note_on_c, 0, 81, 64
3, 3549, Note_on_c, 0, 81, 0
3, 3552, Note_on_c, 0, 80, 64
3, 3597, Note_on_c, 0, 80, 0
3, 3600, Note_on_c, 0, 78, 64
3, 3645, Note_on_c, 0, 78, 0
3, 3648, Note_on_c, 0, 76, 64
3, 3737, Note_on_c, 0, 76, 0
3, 3744, Note_on_c, 0, 81, 64
3, 3929, Note_on_c, 0, 81, 0
3, 3936, Note_on_c, 0, 80, 64
3, 4025, Note_on_c, 0, 80, 0
3, 4032, Note_on_c, 0, 78, 64
3, 4077, Note_on_c, 0, 78, 0
3, 4080, Note_on_c, 0, 80, 64
3, 4125, Note_on_c, 0, 80, 0
3, 4128, Note_on_c, 0, 81, 64
3, 4173, Note_on_c, 0, 81, 0
3, 4176, Note_on_c, 0, 78, 64
3, 4221, Note_on_c, 0, 78, 0
3, 4224, Note_on_c, 0, 80, 64
3, 4269, Note_on_c, 0, 80, 0
3, 4272, Note_on_c, 0, 78, 64
3, 4317, Note_on_c, 0, 78, 0
3, 4320, Note_on_c, 0, 76, 64
3, 4365, Note_on_c, 0, 76, 0
3, 4368, Note_on_c, 0, 78, 64
3, 4413, Note_on_c, 0, 78, 0
3, 4416, Note_on_c, 0, 80, 64
3, 4461, Note_on_c, 0, 80, 0
3, 4464, Note_on_c, 0, 81, 64
3, 4509, Note_on_c, 0, 81, 0
3, 4512, Note_on_c, 0, 83, 64
3, 4557, Note_on_c, 0, 83, 0
3, 4560, Note_on_c, 0, 74, 64
3, 4605, Note_on_c, 0, 74, 0
3, 4608, Note_on_c, 0, 73, 64
3, 4653, Note_on_c, 0, 73, 0
3, 4656, Note_on_c, 0, 74, 64
3, 4701, Note_on_c, 0, 74, 0
3, 4704, Note_on_c, 0, 71, 64
3, 4749, Note_on_c, 0, 71, 0
3, 4752, Note_on_c, 0, 73, 64
3, 4797, Note_on_c, 0, 73, 0
3, 4800, Note_on_c, 0, 74, 64
3, 4845, Note_on_c, 0, 74, 0
3, 4848, Note_on_c, 0, 73, 64
3, 4893, Note_on_c, 0, 73, 0
3, 4896, Note_on_c, 0, 71, 64
3, 4941, Note_on_c, 0, 71, 0
3, 4944, Note_on_c, 0, 69, 64
3, 4989, Note_on_c, 0, 69, 0
3, 4992, Note_on_c, 0, 76, 64
3, 5465, Note_on_c, 0, 76, 0
3, 5472, Note_on_c, 0, 74, 64
3, 5517, Note_on_c, 0, 74, 0
3, 5520, Note_on_c, 0, 76, 64
3, 5565, Note_on_c, 0, 76, 0
3, 5568, Note_on_c, 0, 78, 64
3, 5613, Note_on_c, 0, 78, 0
3, 5616, Note_on_c, 0, 76, 64
3, 5661, Note_on_c, 0, 76, 0
3, 5664, Note_on_c, 0, 74, 64
3, 5709, Note_on_c, 0, 74, 0
3, 5712, Note_on_c, 0, 73, 64
3, 5757, Note_on_c, 0, 73, 0
3, 5760, Note_on_c, 0, 71, 64
3, 5849, Note_on_c, 0, 71, 0
3, 5856, Note_on_c, 0, 64, 64
3, 5945, Note_on_c, 0, 64, 0
3, 5952, Note_on_c, 0, 76, 64
3, 6041, Note_on_c, 0, 76, 0
3, 6048, Note_on_c, 0, 74, 64
3, 6093, Note_on_c, 0, 74, 0
3, 6096, Note_on_c, 0, 73, 64
3, 6141, Note_on_c, 0, 73, 0
3, 6144, Note_on_c, 0, 71, 64
3, 6189, Note_on_c, 0, 71, 0
3, 6192, Note_on_c, 0, 69, 64
3, 6237, Note_on_c, 0, 69, 0
3, 6240, Note_on_c, 0, 71, 64
3, 6285, Note_on_c, 0, 71, 0
3, 6288, Note_on_c, 0, 73, 64
3, 6333, Note_on_c, 0, 73, 0
3, 6336, Note_on_c, 0, 74, 64
3, 6381, Note_on_c, 0, 74, 0
3, 6384, Note_on_c, 0, 73, 64
3, 6429, Note_on_c, 0, 73, 0
3, 6432, Note_on_c, 0, 74, 64
3, 6477, Note_on_c, 0, 74, 0
3, 6480, Note_on_c, 0, 76, 64
3, 6525, Note_on_c, 0, 76, 0
3, 6528, Note_on_c, 0, 73, 64
3, 6573, Note_on_c, 0, 73, 0
3, 6576, Note_on_c, 0, 71, 64
3, 6621, Note_on_c, 0, 71, 0
3, 6624, Note_on_c, 0, 73, 64
3, 6669, Note_on_c, 0, 73, 0
3, 6672, Note_on_c, 0, 74, 64
3, 6717, Note_on_c, 0, 74, 0
3, 6720, Note_on_c, 0, 76, 64
3, 6765, Note_on_c, 0, 76, 0
3, 6768, Note_on_c, 0, 74, 64
3, 6813, Note_on_c, 0, 74, 0
3, 6816, Note_on_c, 0, 76, 64
3, 6861, Note_on_c, 0, 76, 0
3, 6864, Note_on_c, 0, 78, 64
3, 6909, Note_on_c, 0, 78, 0
3, 6912, Note_on_c, 0, 71, 64
3, 6957, Note_on_c, 0, 71, 0
3, 6960, Note_on_c, 0, 69, 64
3, 7005, Note_on_c, 0, 69, 0
3, 7008, Note_on_c, 0, 68, 64
3, 7053, Note_on_c, 0, 68, 0
3, 7056, Note_on_c, 0, 66, 64
3, 7101, Note_on_c, 0, 66, 0
3, 7104, Note_on_c, 0, 64, 64
3, 7149, Note_on_c, 0, 64, 0
3, 7152, Note_on_c, 0, 68, 64
3, 7197, Note_on_c, 0, 68, 0
3, 7200, Note_on_c, 0, 69, 64
3, 7245, Note_on_c, 0, 69, 0
3, 7248, Note_on_c, 0, 71, 64
3, 7293, Note_on_c, 0, 71, 0
3, 7296, Note_on_c, 0, 73, 64
3, 7341, Note_on_c, 0, 73, 0
3, 7344, Note_on_c, 0, 71, 64
3, 7389, Note_on_c, 0, 71, 0
3, 7392, Note_on_c, 0, 69, 64
3, 7437, Note_on_c, 0, 69, 0
3, 7440, Note_on_c, 0, 68, 64
3, 7485, Note_on_c, 0, 68, 0
3, 7488, Note_on_c, 0, 66, 64
3, 7533, Note_on_c, 0, 66, 0
3, 7536, Note_on_c, 0, 73, 64
3, 7581, Note_on_c, 0, 73, 0
3, 7584, Note_on_c, 0, 71, 64
3, 7629, Note_on_c, 0, 71, 0
3, 7632, Note_on_c, 0, 69, 64
3, 7677, Note_on_c, 0, 69, 0
3, 7680, Note_on_c, 0, 68, 64
3, 7725, Note_on_c, 0, 68, 0
3, 7728, Note_on_c, 0, 66, 64
3, 7773, Note_on_c, 0, 66, 0
3, 7776, Note_on_c, 0, 68, 64
3, 7821, Note_on_c, 0, 68, 0
3, 7824, Note_on_c, 0, 69, 64
3, 7869, Note_on_c, 0, 69, 0
3, 7872, Note_on_c, 0, 71, 64
3, 7917, Note_on_c, 0, 71, 0
3, 7920, Note_on_c, 0, 69, 64
3, 7965, Note_on_c, 0, 69, 0
3, 7968, Note_on_c, 0, 71, 64
3, 8013, Note_on_c, 0, 71, 0
3, 8016, Note_on_c, 0, 73, 64
3, 8061, Note_on_c, 0, 73, 0
3, 8064, Note_on_c, 0, 69, 64
3, 8109, Note_on_c, 0, 69, 0
3, 8112, Note_on_c, 0, 68, 64
3, 8157, Note_on_c, 0, 68, 0
3, 8160, Note_on_c, 0, 66, 64
3, 8205, Note_on_c, 0, 66, 0
3, 8208, Note_on_c, 0, 64, 64
3, 8253, Note_on_c, 0, 64, 0
3, 8256, Note_on_c, 0, 62, 64
3, 8301, Note_on_c, 0, 62, 0
3, 8304, Note_on_c, 0, 69, 64
3, 8349, Note_on_c, 0, 69, 0
3, 8352, Note_on_c, 0, 68, 64
3, 8397, Note_on_c, 0, 68, 0
3, 8400, Note_on_c, 0, 66, 64
3, 8445, Note_on_c, 0, 66, 0
3, 8448, Note_on_c, 0, 64, 64
3, 8493, Note_on_c, 0, 64, 0
3, 8496, Note_on_c, 0, 62, 64
3, 8541, Note_on_c, 0, 62, 0
3, 8544, Note_on_c, 0, 64, 64
3, 8589, Note_on_c, 0, 64, 0
3, 8592, Note_on_c, 0, 66, 64
3, 8637, Note_on_c, 0, 66, 0
3, 8640, Note_on_c, 0, 67, 64
3, 8685, Note_on_c, 0, 67, 0
3, 8688, Note_on_c, 0, 66, 64
3, 8733, Note_on_c, 0, 66, 0
3, 8736, Note_on_c, 0, 67, 64
3, 8781, Note_on_c, 0, 67, 0
3, 8784, Note_on_c, 0, 69, 64
3, 8829, Note_on_c, 0, 69, 0
3, 8832, Note_on_c, 0, 66, 64
3, 8877, Note_on_c, 0, 66, 0
3, 8880, Note_on_c, 0, 64, 64
3, 8925, Note_on_c, 0, 64, 0
3, 8928, Note_on_c, 0, 62, 64
3, 8973, Note_on_c, 0, 62, 0
3, 8976, Note_on_c, 0, 61, 64
3, 9021, Note_on_c, 0, 61, 0
3, 9024, Note_on_c, 0, 59, 64
3, 9069, Note_on_c, 0, 59, 0
3, 9072, Note_on_c, 0, 66, 64
3, 9117, Note_on_c, 0, 66, 0
3, 9120, Note_on_c, 0, 64, 64
3, 9165, Note_on_c, 0, 64, 0
3, 9168, Note_on_c, 0, 62, 64
3, 9213, Note_on_c, 0, 62, 0
3, 9216, Note_on_c, 0, 61, 64
3, 9261, Note_on_c, 0, 61, 0
3, 9264, Note_on_c, 0, 59, 64
3, 9309, Note_on_c, 0, 59, 0
3, 9312, Note_on_c, 0, 61, 64
3, 9357, Note_on_c, 0, 61, 0
3, 9360, Note_on_c, 0, 62, 64
3, 9405, Note_on_c, 0, 62, 0
3, 9408, Note_on_c, 0, 64, 64
3, 9453, Note_on_c, 0, 64, 0
3, 9456, Note_on_c, 0, 62, 64
3, 9501, Note_on_c, 0, 62, 0
3, 9504, Note_on_c, 0, 64, 64
3, 9549, Note_on_c, 0, 64, 0
3, 9552, Note_on_c, 0, 66, 64
3, 9597, Note_on_c, 0, 66, 0
3, 9600, Note_on_c, 0, 62, 64
3, 9645, Note_on_c, 0, 62, 0
3, 9648, Note_on_c, 0, 61, 64
3, 9693, Note_on_c, 0, 61, 0
3, 9696, Note_on_c, 0, 59, 64
3, 9741, Note_on_c, 0, 59, 0
3, 9744, Note_on_c, 0, 61, 64
3, 9789, Note_on_c, 0, 61, 0
3, 9792, Note_on_c, 0, 62, 64
3, 9837, Note_on_c, 0, 62, 0
3, 9840, Note_on_c, 0, 66, 64
3, 9885, Note_on_c, 0, 66, 0
3, 9888, Note_on_c, 0, 64, 64
3, 9933, Note_on_c, 0, 64, 0
3, 9936, Note_on_c, 0, 62, 64
3, 9981, Note_on_c, 0, 62, 0
3, 9984, Note_on_c, 0, 61, 64
3, 10029, Note_on_c, 0, 61, 0
3, 10032, Note_on_c, 0, 62, 64
3, 10077, Note_on_c, 0, 62, 0
3, 10080, Note_on_c, 0, 59, 64
3, 10125, Note_on_c, 0, 59, 0
3, 10128, Note_on_c, 0, 61, 64
3, 10173, Note_on_c, 0, 61, 0
3, 10176, Note_on_c, 0, 62, 64
3, 10221, Note_on_c, 0, 62, 0
3, 10224, Note_on_c, 0, 61, 64
3, 10269, Note_on_c, 0, 61, 0
3, 10272, Note_on_c, 0, 59, 64
3, 10317, Note_on_c, 0, 59, 0
3, 10320, Note_on_c, 0, 57, 64
3, 10365, Note_on_c, 0, 57, 0
3, 10368, Note_on_c, 0, 64, 64
3, 10722, Note_on_c, 0, 64, 0
3, 10752, Note_on_c, 0, 64, 64
3, 10841, Note_on_c, 0, 64, 0
3, 10848, Note_on_c, 0, 62, 64
3, 10893, Note_on_c, 0, 62, 0
3, 10896, Note_on_c, 0, 64, 64
3, 10941, Note_on_c, 0, 64, 0
3, 10944, Note_on_c, 0, 66, 64
3, 10989, Note_on_c, 0, 66, 0
3, 10992, Note_on_c, 0, 64, 64
3, 11037, Note_on_c, 0, 64, 0
3, 11040, Note_on_c, 0, 62, 64
3, 11085, Note_on_c, 0, 62, 0
3, 11088, Note_on_c, 0, 61, 64
3, 11133, Note_on_c, 0, 61, 0
3, 11136, Note_on_c, 0, 67, 64
3, 11401, Note_on_c, 0, 67, 0
3, 11424, Note_on_c, 0, 66, 64
3, 11469, Note_on_c, 0, 66, 0
3, 11472, Note_on_c, 0, 64, 64
3, 11517, Note_on_c, 0, 64, 0
3, 11520, Note_on_c, 0, 66, 64
3, 11565, Note_on_c, 0, 66, 0
3, 11568, Note_on_c, 0, 68, 64
3, 11613, Note_on_c, 0, 68, 0
3, 11616, Note_on_c, 0, 69, 64
3, 11793, Note_on_c, 0, 69, 0
3, 11808, Note_on_c, 0, 68, 64
3, 11897, Note_on_c, 0, 68, 0
3, 11904, Note_on_c, 0, 69, 64
3, 12081, Note_on_c, 0, 69, 0
3, 12288, Note_on_c, 0, 76, 64
3, 12465, Note_on_c, 0, 76, 0
3, 12480, Note_on_c, 0, 71, 64
3, 12569, Note_on_c, 0, 71, 0
3, 12576, Note_on_c, 0, 76, 64
3, 12665, Note_on_c, 0, 76, 0
3, 12672, Note_on_c, 0, 78, 64
3, 12717, Note_on_c, 0, 78, 0
3, 12720, Note_on_c, 0, 76, 64
3, 12765, Note_on_c, 0, 76, 0
3, 12768, Note_on_c, 0, 75, 64
3, 12813, Note_on_c, 0, 75, 0
3, 12816, Note_on_c, 0, 73, 64
3, 12861, Note_on_c, 0, 73, 0
3, 12864, Note_on_c, 0, 71, 64
3, 13041, Note_on_c, 0, 71, 0
3, 13056, Note_on_c, 0, 80, 64
3, 13080, Note_on_c, 0, 80, 0
3, 13080, Note_on_c, 0, 81, 64
3, 13104, Note_on_c, 0, 81, 0
3, 13104, Note_on_c, 0, 80, 64
3, 13149, Note_on_c, 0, 80, 0
3, 13152, Note_on_c, 0, 78, 64
3, 13197, Note_on_c, 0, 78, 0
3, 13200, Note_on_c, 0, 80, 64
3, 13245, Note_on_c, 0, 80, 0
3, 13248, Note_on_c, 0, 81, 64
3, 13293, Note_on_c, 0, 81, 0
3, 13296, Note_on_c, 0, 80, 64
3, 13341, Note_on_c, 0, 80, 0
3, 13344, Note_on_c, 0, 78, 64
3, 13389, Note_on_c, 0, 78, 0
3, 13392, Note_on_c, 0, 76, 64
3, 13437, Note_on_c, 0, 76, 0
3, 13440, Note_on_c, 0, 83, 64
3, 13485, Note_on_c, 0, 83, 0
3, 13488, Note_on_c, 0, 81, 64
3, 13533, Note_on_c, 0, 81, 0
3, 13536, Note_on_c, 0, 80, 64
3, 13581, Note_on_c, 0, 80, 0
3, 13584, Note_on_c, 0, 78, 64
3, 13629, Note_on_c, 0, 78, 0
3, 13632, Note_on_c, 0, 76, 64
3, 13721, Note_on_c, 0, 76, 0
3, 13728, Note_on_c, 0, 81, 64
3, 13913, Note_on_c, 0, 81, 0
3, 13920, Note_on_c, 0, 80, 64
3, 14009, Note_on_c, 0, 80, 0
3, 14016, Note_on_c, 0, 78, 64
3, 14061, Note_on_c, 0, 78, 0
3, 14064, Note_on_c, 0, 80, 64
3, 14109, Note_on_c, 0, 80, 0
3, 14112, Note_on_c, 0, 81, 64
3, 14157, Note_on_c, 0, 81, 0
3, 14160, Note_on_c, 0, 83, 64
3, 14205, Note_on_c, 0, 83, 0
3, 14208, Note_on_c, 0, 81, 64
3, 14253, Note_on_c, 0, 81, 0
3, 14256, Note_on_c, 0, 80, 64
3, 14301, Note_on_c, 0, 80, 0
3, 14304, Note_on_c, 0, 78, 64
3, 14349, Note_on_c, 0, 78, 0
3, 14352, Note_on_c, 0, 80, 64
3, 14397, Note_on_c, 0, 80, 0
3, 14400, Note_on_c, 0, 76, 64
3, 14769, Note_on_c, 0, 76, 0
3, 14784, Note_on_c, 0, 75, 64
3, 15065, Note_on_c, 0, 75, 0
3, 15072, Note_on_c, 0, 73, 64
3, 15117, Note_on_c, 0, 73, 0
3, 15120, Note_on_c, 0, 71, 64
3, 15165, Note_on_c, 0, 71, 0
3, 15168, Note_on_c, 0, 73, 64
3, 15345, Note_on_c, 0, 73, 0
3, 15360, Note_on_c, 0, 73, 64
3, 15537, Note_on_c, 0, 73, 0
3, 15552, Note_on_c, 0, 71, 64
3, 15833, Note_on_c, 0, 71, 0
3, 15840, Note_on_c, 0, 69, 64
3, 15885, Note_on_c, 0, 69, 0
3, 15888, Note_on_c, 0, 68, 64
3, 15933, Note_on_c, 0, 68, 0
3, 15936, Note_on_c, 0, 69, 64
3, 16305, Note_on_c, 0, 69, 0
3, 16320, Note_on_c, 0, 68, 64
3, 16601, Note_on_c, 0, 68, 0
3, 16608, Note_on_c, 0, 66, 64
3, 16653, Note_on_c, 0, 66, 0
3, 16656, Note_on_c, 0, 64, 64
3, 16701, Note_on_c, 0, 64, 0
3, 16704, Note_on_c, 0, 66, 64
3, 17073, Note_on_c, 0, 66, 0
3, 17088, Note_on_c, 0, 64, 64
3, 17369, Note_on_c, 0, 64, 0
3, 17376, Note_on_c, 0, 63, 64
3, 17421, Note_on_c, 0, 63, 0
3, 17424, Note_on_c, 0, 61, 64
3, 17469, Note_on_c, 0, 61, 0
3, 17472, Note_on_c, 0, 63, 64
3, 17517, Note_on_c, 0, 63, 0
3, 17520, Note_on_c, 0, 64, 64
3, 17565, Note_on_c, 0, 64, 0
3, 17568, Note_on_c, 0, 66, 64
3, 17613, Note_on_c, 0, 66, 0
3, 17616, Note_on_c, 0, 63, 64
3, 17661, Note_on_c, 0, 63, 0
3, 17664, Note_on_c, 0, 64, 64
3, 17797, Note_on_c, 0, 64, 0
3, 17808, Note_on_c, 0, 66, 64
3, 17853, Note_on_c, 0, 66, 0
3, 17856, Note_on_c, 0, 63, 64
3, 17989, Note_on_c, 0, 63, 0
3, 18000, Note_on_c, 0, 64, 64
3, 18045, Note_on_c, 0, 64, 0
3, 18048, Note_on_c, 0, 64, 64
3, 18402, Note_on_c, 0, 64, 0
3, 20736, Note_on_c, 0, 76, 64
3, 20913, Note_on_c, 0, 76, 0
3, 20928, Note_on_c, 0, 71, 64
3, 21017, Note_on_c, 0, 71, 0
3, 21024, Note_on_c, 0, 76, 64
3, 21113, Note_on_c, 0, 76, 0
3, 21120, Note_on_c, 0, 78, 64
3, 21165, Note_on_c, 0, 78, 0
3, 21168, Note_on_c, 0, 76, 64
3, 21213, Note_on_c, 0, 76, 0
3, 21216, Note_on_c, 0, 75, 64
3, 21261, Note_on_c, 0, 75, 0
3, 21264, Note_on_c, 0, 73, 64
3, 21309, Note_on_c, 0, 73, 0
3, 21312, Note_on_c, 0, 71, 64
3, 21489, Note_on_c, 0, 71, 0
3, 21504, Note_on_c, 0, 80, 64
3, 21528, Note_on_c, 0, 80, 0
3, 21528, Note_on_c, 0, 81, 64
3, 21552, Note_on_c, 0, 81, 0
3, 21552, Note_on_c, 0, 80, 64
3, 21597, Note_on_c, 0, 80, 0
3, 21600, Note_on_c, 0, 78, 64
3, 21645, Note_on_c, 0, 78, 0
3, 21648, Note_on_c, 0, 80, 64
3, 21693, Note_on_c, 0, 80, 0
3, 21696, Note_on_c, 0, 81, 64
3, 21741, Note_on_c, 0, 81, 0
3, 21744, Note_on_c, 0, 80, 64
3, 21789, Note_on_c, 0, 80, 0
3, 21792, Note_on_c, 0, 78, 64
3, 21837, Note_on_c, 0, 78, 0
3, 21840, Note_on_c, 0, 76, 64
3, 21885, Note_on_c, 0, 76, 0
3, 21888, Note_on_c, 0, 83, 64
3, 21933, Note_on_c, 0, 83, 0
3, 21936, Note_on_c, 0, 81, 64
3, 21981, Note_on_c, 0, 81, 0
3, 21984, Note_on_c, 0, 80, 64
3, 22029, Note_on_c, 0, 80, 0
3, 22032, Note_on_c, 0, 78, 64
3, 22077, Note_on_c, 0, 78, 0
3, 22080, Note_on_c, 0, 76, 64
3, 22169, Note_on_c, 0, 76, 0
3, 22176, Note_on_c, 0, 81, 64
3, 22361, Note_on_c, 0, 81, 0
3, 22368, Note_on_c, 0, 80, 64
3, 22457, Note_on_c, 0, 80, 0
3, 22464, Note_on_c, 0, 78, 64
3, 22509, Note_on_c, 0, 78, 0
3, 22512, Note_on_c, 0, 80, 64
3, 22557, Note_on_c, 0, 80, 0
3, 22560, Note_on_c, 0, 81, 64
3, 22605, Note_on_c, 0, 81, 0
3, 22608, Note_on_c, 0, 78, 64
3, 22653, Note_on_c, 0, 78, 0
3, 22656, Note_on_c, 0, 80, 64
3, 22701, Note_on_c, 0, 80, 0
3, 22704, Note_on_c, 0, 78, 64
3, 22749, Note_on_c, 0, 78, 0
3, 22752, Note_on_c, 0, 76, 64
3, 22797, Note_on_c, 0, 76, 0
3, 22800, Note_on_c, 0, 78, 64
3, 22845, Note_on_c, 0, 78, 0
3, 22848, Note_on_c, 0, 80, 64
3, 22893, Note_on_c, 0, 80, 0
3, 22896, Note_on_c, 0, 81, 64
3, 22941, Note_on_c, 0, 81, 0
3, 22944, Note_on_c, 0, 83, 64
3, 22989, Note_on_c, 0, 83, 0
3, 22992, Note_on_c, 0, 74, 64
3, 23037, Note_on_c, 0, 74, 0
3, 23040, Note_on_c, 0, 73, 64
3, 23085, Note_on_c, 0, 73, 0
3, 23088, Note_on_c, 0, 74, 64
3, 23133, Note_on_c, 0, 74, 0
3, 23136, Note_on_c, 0, 71, 64
3, 23181, Note_on_c, 0, 71, 0
3, 23184, Note_on_c, 0, 73, 64
3, 23229, Note_on_c, 0, 73, 0
3, 23232, Note_on_c, 0, 74, 64
3, 23277, Note_on_c, 0, 74, 0
3, 23280, Note_on_c, 0, 73, 64
3, 23325, Note_on_c, 0, 73, 0
3, 23328, Note_on_c, 0, 71, 64
3, 23373, Note_on_c, 0, 71, 0
3, 23376, Note_on_c, 0, 69, 64
3, 23421, Note_on_c, 0, 69, 0
3, 23424, Note_on_c, 0, 76, 64
3, 23897, Note_on_c, 0, 76, 0
3, 23904, Note_on_c, 0, 74, 64
3, 23949, Note_on_c, 0, 74, 0
3, 23952, Note_on_c, 0, 76, 64
3, 23997, Note_on_c, 0, 76, 0
3, 24000, Note_on_c, 0, 78, 64
3, 24045, Note_on_c, 0, 78, 0
3, 24048, Note_on_c, 0, 76, 64
3, 24093, Note_on_c, 0, 76, 0
3, 24096, Note_on_c, 0, 74, 64
3, 24141, Note_on_c, 0, 74, 0
3, 24144, Note_on_c, 0, 73, 64
3, 24189, Note_on_c, 0, 73, 0
3, 24192, Note_on_c, 0, 71, 64
3, 24281, Note_on_c, 0, 71, 0
3, 24288, Note_on_c, 0, 64, 64
3, 24377, Note_on_c, 0, 64, 0
3, 24384, Note_on_c, 0, 76, 64
3, 24473, Note_on_c, 0, 76, 0
3, 24480, Note_on_c, 0, 74, 64
3, 24525, Note_on_c, 0, 74, 0
3, 24528, Note_on_c, 0, 73, 64
3, 24573, Note_on_c, 0, 73, 0
3, 24576, Note_on_c, 0, 71, 64
3, 24621, Note_on_c, 0, 71, 0
3, 24624, Note_on_c, 0, 69, 64
3, 24669, Note_on_c, 0, 69, 0
3, 24672, Note_on_c, 0, 71, 64
3, 24717, Note_on_c, 0, 71, 0
3, 24720, Note_on_c, 0, 73, 64
3, 24765, Note_on_c, 0, 73, 0
3, 24768, Note_on_c, 0, 74, 64
3, 24813, Note_on_c, 0, 74, 0
3, 24816, Note_on_c, 0, 73, 64
3, 24861, Note_on_c, 0, 73, 0
3, 24864, Note_on_c, 0, 74, 64
3, 24909, Note_on_c, 0, 74, 0
3, 24912, Note_on_c, 0, 76, 64
3, 24957, Note_on_c, 0, 76, 0
3, 24960, Note_on_c, 0, 73, 64
3, 25005, Note_on_c, 0, 73, 0
3, 25008, Note_on_c, 0, 71, 64
3, 25053, Note_on_c, 0, 71, 0
3, 25056, Note_on_c, 0, 73, 64
3, 25101, Note_on_c, 0, 73, 0
3, 25104, Note_on_c, 0, 74, 64
3, 25149, Note_on_c, 0, 74, 0
3, 25152, Note_on_c, 0, 76, 64
3, 25197, Note_on_c, 0, 76, 0
3, 25200, Note_on_c, 0, 74, 64
3, 25245, Note_on_c, 0, 74, 0
3, 25248, Note_on_c, 0, 76, 64
3, 25293, Note_on_c, 0, 76, 0
3, 25296, Note_on_c, 0, 78, 64
3, 25341, Note_on_c, 0, 78, 0
3, 25344, Note_on_c, 0, 71, 64
3, 25389, Note_on_c, 0, 71, 0
3, 25392, Note_on_c, 0, 69, 64
3, 25437, Note_on_c, 0, 69, 0
3, 25440, Note_on_c, 0, 68, 64
3, 25485, Note_on_c, 0, 68, 0
3, 25488, Note_on_c, 0, 66, 64
3, 25533, Note_on_c, 0, 66, 0
3, 25536, Note_on_c, 0, 64, 64
3, 25581, Note_on_c, 0, 64, 0
3, 25584, Note_on_c, 0, 68, 64
3, 25629, Note_on_c, 0, 68, 0
3, 25632, Note_on_c, 0, 69, 64
3, 25677, Note_on_c, 0, 69, 0
3, 25680, Note_on_c, 0, 71, 64
3, 25725, Note_on_c, 0, 71, 0
3, 25728, Note_on_c, 0, 73, 64
3, 25773, Note_on_c, 0, 73, 0
3, 25776, Note_on_c, 0, 71, 64
3, 25821, Note_on_c, 0, 71, 0
3, 25824, Note_on_c, 0, 69, 64
3, 25869, Note_on_c, 0, 69, 0
3, 25872, Note_on_c, 0, 68, 64
3, 25917, Note_on_c, 0, 68, 0
3, 25920, Note_on_c, 0, 66, 64
3, 25965, Note_on_c, 0, 66, 0
3, 25968, Note_on_c, 0, 73, 64
3, 26013, Note_on_c, 0, 73, 0
3, 26016, Note_on_c, 0, 71, 64
3, 26061, Note_on_c, 0, 71, 0
3, 26064, Note_on_c, 0, 69, 64
3, 26109, Note_on_c, 0, 69, 0
3, 26112, Note_on_c, 0, 68, 64
3, 26157, Note_on_c, 0, 68, 0
3, 26160, Note_on_c, 0, 66, 64
3, 26205, Note_on_c, 0, 66, 0
3, 26208, Note_on_c, 0, 68, 64
3, 26253, Note_on_c, 0, 68, 0
3, 26256, Note_on_c, 0, 69, 64
3, 26301, Note_on_c, 0, 69, 0
3, 26304, Note_on_c, 0, 71, 64
3, 26349, Note_on_c, 0, 71, 0
3, 26352, Note_on_c, 0, 69, 64
3, 26397, Note_on_c, 0, 69, 0
3, 26400, Note_on_c, 0, 71, 64
3, 26445, Note_on_c, 0, 71, 0
3, 26448, Note_on_c, 0, 73, 64
3, 26493, Note_on_c, 0, 73, 0
3, 26496, Note_on_c, 0, 69, 64
3, 26541, Note_on_c, 0, 69, 0
3, 26544, Note_on_c, 0, 68, 64
3, 26589, Note_on_c, 0, 68, 0
3, 26592, Note_on_c, 0, 66, 64
3, 26637, Note_on_c, 0, 66, 0
3, 26640, Note_on_c, 0, 64, 64
3, 26685, Note_on_c, 0, 64, 0
3, 26688, Note_on_c, 0, 62, 64
3, 26733, Note_on_c, 0, 62, 0
3, 26736, Note_on_c, 0, 69, 64
3, 26781, Note_on_c, 0, 69, 0
3, 26784, Note_on_c, 0, 68, 64
3, 26829, Note_on_c, 0, 68, 0
3, 26832, Note_on_c, 0, 66, 64
3, 26877, Note_on_c, 0, 66, 0
3, 26880, Note_on_c, 0, 64, 64
3, 26925, Note_on_c, 0, 64, 0
3, 26928, Note_on_c, 0, 62, 64
3, 26973, Note_on_c, 0, 62, 0
3, 26976, Note_on_c, 0, 64, 64
3, 27021, Note_on_c, 0, 64, 0
3, 27024, Note_on_c, 0, 66, 64
3, 27069, Note_on_c, 0, 66, 0
3, 27072, Note_on_c, 0, 67, 64
3, 27117, Note_on_c, 0, 67, 0
3, 27120, Note_on_c, 0, 66, 64
3, 27165, Note_on_c, 0, 66, 0
3, 27168, Note_on_c, 0, 67, 64
3, 27213, Note_on_c, 0, 67, 0
3, 27216, Note_on_c, 0, 69, 64
3, 27261, Note_on_c, 0, 69, 0
3, 27264, Note_on_c, 0, 66, 64
3, 27309, Note_on_c, 0, 66, 0
3, 27312, Note_on_c, 0, 64, 64
3, 27357, Note_on_c, 0, 64, 0
3, 27360, Note_on_c, 0, 62, 64
3, 27405, Note_on_c, 0, 62, 0
3, 27408, Note_on_c, 0, 61, 64
3, 27453, Note_on_c, 0, 61, 0
3, 27456, Note_on_c, 0, 59, 64
3, 27501, Note_on_c, 0, 59, 0
3, 27504, Note_on_c, 0, 66, 64
3, 27549, Note_on_c, 0, 66, 0
3, 27552, Note_on_c, 0, 64, 64
3, 27597, Note_on_c, 0, 64, 0
3, 27600, Note_on_c, 0, 62, 64
3, 27645, Note_on_c, 0, 62, 0
3, 27648, Note_on_c, 0, 61, 64
3, 27693, Note_on_c, 0, 61, 0
3, 27696, Note_on_c, 0, 59, 64
3, 27741, Note_on_c, 0, 59, 0
3, 27744, Note_on_c, 0, 61, 64
3, 27789, Note_on_c, 0, 61, 0
3, 27792, Note_on_c, 0, 62, 64
3, 27837, Note_on_c, 0, 62, 0
3, 27840, Note_on_c, 0, 64, 64
3, 27885, Note_on_c, 0, 64, 0
3, 27888, Note_on_c, 0, 62, 64
3, 27933, Note_on_c, 0, 62, 0
3, 27936, Note_on_c, 0, 64, 64
3, 27981, Note_on_c, 0, 64, 0
3, 27984, Note_on_c, 0, 66, 64
3, 28029, Note_on_c, 0, 66, 0
3, 28032, Note_on_c, 0, 62, 64
3, 28077, Note_on_c, 0, 62, 0
3, 28080, Note_on_c, 0, 61, 64
3, 28125, Note_on_c, 0, 61, 0
3, 28128, Note_on_c, 0, 59, 64
3, 28173, Note_on_c, 0, 59, 0
3, 28176, Note_on_c, 0, 61, 64
3, 28221, Note_on_c, 0, 61, 0
3, 28224, Note_on_c, 0, 62, 64
3, 28269, Note_on_c, 0, 62, 0
3, 28272, Note_on_c, 0, 66, 64
3, 28317, Note_on_c, 0, 66, 0
3, 28320, Note_on_c, 0, 64, 64
3, 28365, Note_on_c, 0, 64, 0
3, 28368, Note_on_c, 0, 62, 64
3, 28413, Note_on_c, 0, 62, 0
3, 28416, Note_on_c, 0, 61, 64
3, 28461, Note_on_c, 0, 61, 0
3, 28464, Note_on_c, 0, 62, 64
3, 28509, Note_on_c, 0, 62, 0
3, 28512, Note_on_c, 0, 59, 64
3, 28557, Note_on_c, 0, 59, 0
3, 28560, Note_on_c, 0, 61, 64
3, 28605, Note_on_c, 0, 61, 0
3, 28608, Note_on_c, 0, 62, 64
3, 28653, Note_on_c, 0, 62, 0
3, 28656, Note_on_c, 0, 61, 64
3, 28701, Note_on_c, 0, 61, 0
3, 28704, Note_on_c, 0, 59, 64
3, 28749, Note_on_c, 0, 59, 0
3, 28752, Note_on_c, 0, 57, 64
3, 28797, Note_on_c, 0, 57, 0
3, 28800, Note_on_c, 0, 64, 64
3, 29154, Note_on_c, 0, 64, 0
3, 29184, Note_on_c, 0, 64, 64
3, 29273, Note_on_c, 0, 64, 0
3, 29280, Note_on_c, 0, 62, 64
3, 29325, Note_on_c, 0, 62, 0
3, 29328, Note_on_c, 0, 64, 64
3, 29373, Note_on_c, 0, 64, 0
3, 29376, Note_on_c, 0, 66, 64
3, 29421, Note_on_c, 0, 66, 0
3, 29424, Note_on_c, 0, 64, 64
3, 29469, Note_on_c, 0, 64, 0
3, 29472, Note_on_c, 0, 62, 64
3, 29517, Note_on_c, 0, 62, 0
3, 29520, Note_on_c, 0, 61, 64
3, 29565, Note_on_c, 0, 61, 0
3, 29568, Note_on_c, 0, 67, 64
3, 29833, Note_on_c, 0, 67, 0
3, 29856, Note_on_c, 0, 66, 64
3, 29901, Note_on_c, 0, 66, 0
3, 29904, Note_on_c, 0, 64, 64
3, 29949, Note_on_c, 0, 64, 0
3, 29952, Note_on_c, 0, 66, 64
3, 29997, Note_on_c, 0, 66, 0
3, 30000, Note_on_c, 0, 68, 64
3, 30045, Note_on_c, 0, 68, 0
3, 30048, Note_on_c, 0, 69, 64
3, 30225, Note_on_c, 0, 69, 0
3, 30240, Note_on_c, 0, 68, 64
3, 30329, Note_on_c, 0, 68, 0
3, 30336, Note_on_c, 0, 69, 64
3, 30513, Note_on_c, 0, 69, 0
3, 30720, Note_on_c, 0, 76, 64
3, 30897, Note_on_c, 0, 76, 0
3, 30912, Note_on_c, 0, 71, 64
3, 31001, Note_on_c, 0, 71, 0
3, 31008, Note_on_c, 0, 76, 64
3, 31097, Note_on_c, 0, 76, 0
3, 31104, Note_on_c, 0, 78, 64
3, 31149, Note_on_c, 0, 78, 0
3, 31152, Note_on_c, 0, 76, 64
3, 31197, Note_on_c, 0, 76, 0
3, 31200, Note_on_c, 0, 75, 64
3, 31245, Note_on_c, 0, 75, 0
3, 31248, Note_on_c, 0, 73, 64
3, 31293, Note_on_c, 0, 73, 0
3, 31296, Note_on_c, 0, 71, 64
3, 31473, Note_on_c, 0, 71, 0
3, 31488, Note_on_c, 0, 80, 64
3, 31512, Note_on_c, 0, 80, 0
3, 31512, Note_on_c, 0, 81, 64
3, 31536, Note_on_c, 0, 81, 0
3, 31536, Note_on_c, 0, 80, 64
3, 31581, Note_on_c, 0, 80, 0
3, 31584, Note_on_c, 0, 78, 64
3, 31629, Note_on_c, 0, 78, 0
3, 31632, Note_on_c, 0, 80, 64
3, 31677, Note_on_c, 0, 80, 0
3, 31680, Note_on_c, 0, 81, 64
3, 31725, Note_on_c, 0, 81, 0
3, 31728, Note_on_c, 0, 80, 64
3, 31773, Note_on_c, 0, 80, 0
3, 31776, Note_on_c, 0, 78, 64
3, 31821, Note_on_c, 0, 78, 0
3, 31824, Note_on_c, 0, 76, 64
3, 31869, Note_on_c, 0, 76, 0
3, 31872, Note_on_c, 0, 83, 64
3, 31917, Note_on_c, 0, 83, 0
3, 31920, Note_on_c, 0, 81, 64
3, 31965, Note_on_c, 0, 81, 0
3, 31968, Note_on_c, 0, 80, 64
3, 32013, Note_on_c, 0, 80, 0
3, 32016, Note_on_c, 0, 78, 64
3, 32061, Note_on_c, 0, 78, 0
3, 32064, Note_on_c, 0, 76, 64
3, 32153, Note_on_c, 0, 76, 0
3, 32160, Note_on_c, 0, 81, 64
3, 32345, Note_on_c, 0, 81, 0
3, 32352, Note_on_c, 0, 80, 64
3, 32441, Note_on_c, 0, 80, 0
3, 32448, Note_on_c, 0, 78, 64
3, 32493, Note_on_c, 0, 78, 0
3, 32496, Note_on_c, 0, 80, 64
3, 32541, Note_on_c, 0, 80, 0
3, 32544, Note_on_c, 0, 81, 64
3, 32589, Note_on_c, 0, 81, 0
3, 32592, Note_on_c, 0, 83, 64
3, 32637, Note_on_c, 0, 83, 0
3, 32640, Note_on_c, 0, 81, 64
3, 32685, Note_on_c, 0, 81, 0
3, 32688, Note_on_c, 0, 80, 64
3, 32733, Note_on_c, 0, 80, 0
3, 32736, Note_on_c, 0, 78, 64
3, 32781, Note_on_c, 0, 78, 0
3, 32784, Note_on_c, 0, 80, 64
3, 32829, Note_on_c, 0, 80, 0
3, 32832, Note_on_c, 0, 76, 64
3, 33201, Note_on_c, 0, 76, 0
3, 33216, Note_on_c, 0, 75, 64
3, 33497, Note_on_c, 0, 75, 0
3, 33504, Note_on_c, 0, 73, 64
3, 33549, Note_on_c, 0, 73, 0
3, 33552, Note_on_c, 0, 71, 64
3, 33597, Note_on_c, 0, 71, 0
3, 33600, Note_on_c, 0, 73, 64
3, 33777, Note_on_c, 0, 73, 0
3, 33792, Note_on_c, 0, 73, 64
3, 33969, Note_on_c, 0, 73, 0
3, 33984, Note_on_c, 0, 71, 64
3, 34265, Note_on_c, 0, 71, 0
3, 34272, Note_on_c, 0, 69, 64
3, 34317, Note_on_c, 0, 69, 0
3, 34320, Note_on_c, 0, 68, 64
3, 34365, Note_on_c, 0, 68, 0
3, 34368, Note_on_c, 0, 69, 64
3, 34737, Note_on_c, 0, 69, 0
3, 34752, Note_on_c, 0, 68, 64
3, 35033, Note_on_c, 0, 68, 0
3, 35040, Note_on_c, 0, 66, 64
3, 35085, Note_on_c, 0, 66, 0
3, 35088, Note_on_c, 0, 64, 64
3, 35133, Note_on_c, 0, 64, 0
3, 35136, Note_on_c, 0, 66, 64
3, 35505, Note_on_c, 0, 66, 0
3, 35520, Note_on_c, 0, 64, 64
3, 35801, Note_on_c, 0, 64, 0
3, 35808, Note_on_c, 0, 63, 64
3, 35853, Note_on_c, 0, 63, 0
3, 35856, Note_on_c, 0, 61, 64
3, 35901, Note_on_c, 0, 61, 0
3, 35904, Note_on_c, 0, 63, 64
3, 35949, Note_on_c, 0, 63, 0
3, 35952, Note_on_c, 0, 64, 64
3, 35997, Note_on_c, 0, 64, 0
3, 36000, Note_on_c, 0, 66, 64
3, 36045, Note_on_c, 0, 66, 0
3, 36048, Note_on_c, 0, 63, 64
3, 36093, Note_on_c, 0, 63, 0
3, 36096, Note_on_c, 0, 64, 64
3, 36229, Note_on_c, 0, 64, 0
3, 36240, Note_on_c, 0, 66, 64
3, 36285, Note_on_c, 0, 66, 0
3, 36288, Note_on_c, 0, 63, 64
3, 36421, Note_on_c, 0, 63, 0
3, 36432, Note_on_c, 0, 64, 64
3, 36477, Note_on_c, 0, 64, 0
3, 36480, Note_on_c, 0, 64, 64
3, 36834, Note_on_c, 0, 64, 0
3, 36864, Note_on_c, 0, 71, 64
3, 36953, Note_on_c, 0, 71, 0
3, 36960, Note_on_c, 0, 73, 64
3, 37005, Note_on_c, 0, 73, 0
3, 37008, Note_on_c, 0, 74, 64
3, 37053, Note_on_c, 0, 74, 0
3, 37056, Note_on_c, 0, 73, 64
3, 37101, Note_on_c, 0, 73, 0
3, 37104, Note_on_c, 0, 71, 64
3, 37149, Note_on_c, 0, 71, 0
3, 37152, Note_on_c, 0, 69, 64
3, 37197, Note_on_c, 0, 69, 0
3, 37200, Note_on_c, 0, 68, 64
3, 37245, Note_on_c, 0, 68, 0
3, 37248, Note_on_c, 0, 76, 64
3, 37425, Note_on_c, 0, 76, 0
3, 37440, Note_on_c, 0, 64, 64
3, 37529, Note_on_c, 0, 64, 0
3, 37536, Note_on_c, 0, 68, 64
3, 37625, Note_on_c, 0, 68, 0
3, 37632, Note_on_c, 0, 69, 64
3, 37721, Note_on_c, 0, 69, 0
3, 37728, Note_on_c, 0, 69, 64
3, 37751, Note_on_c, 0, 69, 0
3, 37752, Note_on_c, 0, 71, 64
3, 37775, Note_on_c, 0, 71, 0
3, 37776, Note_on_c, 0, 73, 64
3, 37821, Note_on_c, 0, 73, 0
3, 37824, Note_on_c, 0, 71, 64
3, 37913, Note_on_c, 0, 71, 0
3, 37920, Note_on_c, 0, 71, 64
3, 37943, Note_on_c, 0, 71, 0
3, 37944, Note_on_c, 0, 73, 64
3, 37967, Note_on_c, 0, 73, 0
3, 37968, Note_on_c, 0, 74, 64
3, 38013, Note_on_c, 0, 74, 0
3, 38016, Note_on_c, 0, 73, 64
3, 38105, Note_on_c, 0, 73, 0
3, 38112, Note_on_c, 0, 74, 64
3, 38157, Note_on_c, 0, 74, 0
3, 38160, Note_on_c, 0, 76, 64
3, 38205, Note_on_c, 0, 76, 0
3, 38208, Note_on_c, 0, 74, 64
3, 38253, Note_on_c, 0, 74, 0
3, 38256, Note_on_c, 0, 73, 64
3, 38301, Note_on_c, 0, 73, 0
3, 38304, Note_on_c, 0, 71, 64
3, 38349, Note_on_c, 0, 71, 0
3, 38352, Note_on_c, 0, 69, 64
3, 38397, Note_on_c, 0, 69, 0
3, 38400, Note_on_c, 0, 81, 64
3, 38754, Note_on_c, 0, 81, 0
3, 38784, Note_on_c, 0, 81, 64
3, 38873, Note_on_c, 0, 81, 0
3, 38880, Note_on_c, 0, 74, 64
3, 38903, Note_on_c, 0, 74, 0
3, 38904, Note_on_c, 0, 76, 64
3, 38927, Note_on_c, 0, 76, 0
3, 38928, Note_on_c, 0, 78, 64
3, 38973, Note_on_c, 0, 78, 0
3, 38976, Note_on_c, 0, 76, 64
3, 39065, Note_on_c, 0, 76, 0
3, 39072, Note_on_c, 0, 76, 64
3, 39095, Note_on_c, 0, 76, 0
3, 39096, Note_on_c, 0, 78, 64
3, 39119, Note_on_c, 0, 78, 0
3, 39120, Note_on_c, 0, 79, 64
3, 39165, Note_on_c, 0, 79, 0
3, 39168, Note_on_c, 0, 78, 64
3, 39213, Note_on_c, 0, 78, 0
3, 39216, Note_on_c, 0, 76, 64
3, 39261, Note_on_c, 0, 76, 0
3, 39264, Note_on_c, 0, 74, 64
3, 39309, Note_on_c, 0, 74, 0
3, 39312, Note_on_c, 0, 73, 64
3, 39357, Note_on_c, 0, 73, 0
3, 39360, Note_on_c, 0, 71, 64
3, 39405, Note_on_c, 0, 71, 0
3, 39408, Note_on_c, 0, 74, 64
3, 39453, Note_on_c, 0, 74, 0
3, 39456, Note_on_c, 0, 73, 64
3, 39501, Note_on_c, 0, 73, 0
3, 39504, Note_on_c, 0, 76, 64
3, 39549, Note_on_c, 0, 76, 0
3, 39552, Note_on_c, 0, 74, 64
3, 39641, Note_on_c, 0, 74, 0
3, 39936, Note_on_c, 0, 76, 64
3, 40025, Note_on_c, 0, 76, 0
3, 40032, Note_on_c, 0, 76, 64
3, 40055, Note_on_c, 0, 76, 0
3, 40056, Note_on_c, 0, 74, 64
3, 40079, Note_on_c, 0, 74, 0
3, 40080, Note_on_c, 0, 73, 64
3, 40125, Note_on_c, 0, 73, 0
3, 40128, Note_on_c, 0, 74, 64
3, 40217, Note_on_c, 0, 74, 0
3, 40224, Note_on_c, 0, 74, 64
3, 40247, Note_on_c, 0, 74, 0
3, 40248, Note_on_c, 0, 73, 64
3, 40271, Note_on_c, 0, 73, 0
3, 40272, Note_on_c, 0, 71, 64
3, 40317, Note_on_c, 0, 71, 0
3, 40320, Note_on_c, 0, 73, 64
3, 40585, Note_on_c, 0, 73, 0
3, 40608, Note_on_c, 0, 70, 64
3, 40697, Note_on_c, 0, 70, 0
3, 40704, Note_on_c, 0, 71, 64
3, 40793, Note_on_c, 0, 71, 0
3, 40800, Note_on_c, 0, 66, 64
3, 40889, Note_on_c, 0, 66, 0
3, 40896, Note_on_c, 0, 71, 64
3, 40985, Note_on_c, 0, 71, 0
3, 40992, Note_on_c, 0, 76, 64
3, 41133, Note_on_c, 0, 76, 0
3, 41136, Note_on_c, 0, 74, 64
3, 41181, Note_on_c, 0, 74, 0
3, 41184, Note_on_c, 0, 73, 64
3, 41229, Note_on_c, 0, 73, 0
3, 41232, Note_on_c, 0, 71, 64
3, 41277, Note_on_c, 0, 71, 0
3, 41280, Note_on_c, 0, 70, 64
3, 41325, Note_on_c, 0, 70, 0
3, 41328, Note_on_c, 0, 68, 64
3, 41373, Note_on_c, 0, 68, 0
3, 41376, Note_on_c, 0, 66, 64
3, 41465, Note_on_c, 0, 66, 0
3, 41472, Note_on_c, 0, 78, 64
3, 41605, Note_on_c, 0, 78, 0
3, 41616, Note_on_c, 0, 76, 64
3, 41661, Note_on_c, 0, 76, 0
3, 41664, Note_on_c, 0, 74, 64
3, 41709, Note_on_c, 0, 74, 0
3, 41712, Note_on_c, 0, 73, 64
3, 41757, Note_on_c, 0, 73, 0
3, 41760, Note_on_c, 0, 71, 64
3, 41849, Note_on_c, 0, 71, 0
3, 41856, Note_on_c, 0, 83, 64
3, 41989, Note_on_c, 0, 83, 0
3, 42000, Note_on_c, 0, 82, 64
3, 42045, Note_on_c, 0, 82, 0
3, 42048, Note_on_c, 0, 83, 64
3, 42093, Note_on_c, 0, 83, 0
3, 42096, Note_on_c, 0, 82, 64
3, 42141, Note_on_c, 0, 82, 0
3, 42144, Note_on_c, 0, 83, 64
3, 42189, Note_on_c, 0, 83, 0
3, 42192, Note_on_c, 0, 85, 64
3, 42237, Note_on_c, 0, 85, 0
3, 42240, Note_on_c, 0, 78, 64
3, 42373, Note_on_c, 0, 78, 0
3, 42384, Note_on_c, 0, 83, 64
3, 42429, Note_on_c, 0, 83, 0
3, 42432, Note_on_c, 0, 82, 64
3, 42565, Note_on_c, 0, 82, 0
3, 42576, Note_on_c, 0, 83, 64
3, 42621, Note_on_c, 0, 83, 0
3, 42624, Note_on_c, 0, 83, 64
3, 42669, Note_on_c, 0, 83, 0
3, 42672, Note_on_c, 0, 74, 64
3, 42717, Note_on_c, 0, 74, 0
3, 42720, Note_on_c, 0, 76, 64
3, 42765, Note_on_c, 0, 76, 0
3, 42768, Note_on_c, 0, 78, 64
3, 42813, Note_on_c, 0, 78, 0
3, 42816, Note_on_c, 0, 76, 64
3, 42861, Note_on_c, 0, 76, 0
3, 42864, Note_on_c, 0, 74, 64
3, 42909, Note_on_c, 0, 74, 0
3, 42912, Note_on_c, 0, 73, 64
3, 42957, Note_on_c, 0, 73, 0
3, 42960, Note_on_c, 0, 71, 64
3, 43005, Note_on_c, 0, 71, 0
3, 43008, Note_on_c, 0, 83, 64
3, 43185, Note_on_c, 0, 83, 0
3, 43200, Note_on_c, 0, 71, 64
3, 43289, Note_on_c, 0, 71, 0
3, 43296, Note_on_c, 0, 75, 64
3, 43385, Note_on_c, 0, 75, 0
3, 43392, Note_on_c, 0, 76, 64
3, 43481, Note_on_c, 0, 76, 0
3, 43488, Note_on_c, 0, 76, 64
3, 43511, Note_on_c, 0, 76, 0
3, 43512, Note_on_c, 0, 78, 64
3, 43535, Note_on_c, 0, 78, 0
3, 43536, Note_on_c, 0, 80, 64
3, 43581, Note_on_c, 0, 80, 0
3, 43584, Note_on_c, 0, 78, 64
3, 43673, Note_on_c, 0, 78, 0
3, 43680, Note_on_c, 0, 78, 64
3, 43703, Note_on_c, 0, 78, 0
3, 43704, Note_on_c, 0, 80, 64
3, 43727, Note_on_c, 0, 80, 0
3, 43728, Note_on_c, 0, 81, 64
3, 43773, Note_on_c, 0, 81, 0
3, 43776, Note_on_c, 0, 80, 64
3, 43865, Note_on_c, 0, 80, 0
3, 43872, Note_on_c, 0, 78, 64
3, 43961, Note_on_c, 0, 78, 0
3, 43968, Note_on_c, 0, 76, 64
3, 44205, Note_on_c, 0, 76, 0
3, 44208, Note_on_c, 0, 68, 64
3, 44253, Note_on_c, 0, 68, 0
3, 44256, Note_on_c, 0, 69, 64
3, 44301, Note_on_c, 0, 69, 0
3, 44304, Note_on_c, 0, 71, 64
3, 44349, Note_on_c, 0, 71, 0
3, 44352, Note_on_c, 0, 69, 64
3, 44397, Note_on_c, 0, 69, 0
3, 44400, Note_on_c, 0, 68, 64
3, 44445, Note_on_c, 0, 68, 0
3, 44448, Note_on_c, 0, 66, 64
3, 44493, Note_on_c, 0, 66, 0
3, 44496, Note_on_c, 0, 64, 64
3, 44541, Note_on_c, 0, 64, 0
3, 44544, Note_on_c, 0, 76, 64
3, 45401, Note_on_c, 0, 76, 0
3, 45408, Note_on_c, 0, 78, 64
3, 45453, Note_on_c, 0, 78, 0
3, 45456, Note_on_c, 0, 79, 64
3, 45501, Note_on_c, 0, 79, 0
3, 45504, Note_on_c, 0, 78, 64
3, 45549, Note_on_c, 0, 78, 0
3, 45552, Note_on_c, 0, 76, 64
3, 45597, Note_on_c, 0, 76, 0
3, 45600, Note_on_c, 0, 74, 64
3, 45645, Note_on_c, 0, 74, 0
3, 45648, Note_on_c, 0, 73, 64
3, 45693, Note_on_c, 0, 73, 0
3, 45696, Note_on_c, 0, 74, 64
3, 46169, Note_on_c, 0, 74, 0
3, 46176, Note_on_c, 0, 73, 64
3, 46221, Note_on_c, 0, 73, 0
3, 46224, Note_on_c, 0, 74, 64
3, 46269, Note_on_c, 0, 74, 0
3, 46272, Note_on_c, 0, 76, 64
3, 46317, Note_on_c, 0, 76, 0
3, 46320, Note_on_c, 0, 74, 64
3, 46365, Note_on_c, 0, 74, 0
3, 46368, Note_on_c, 0, 73, 64
3, 46413, Note_on_c, 0, 73, 0
3, 46416, Note_on_c, 0, 71, 64
3, 46461, Note_on_c, 0, 71, 0
3, 46464, Note_on_c, 0, 73, 64
3, 46553, Note_on_c, 0, 73, 0
3, 46560, Note_on_c, 0, 74, 64
3, 46583, Note_on_c, 0, 74, 0
3, 46584, Note_on_c, 0, 76, 64
3, 46607, Note_on_c, 0, 76, 0
3, 46608, Note_on_c, 0, 74, 64
3, 46631, Note_on_c, 0, 74, 0
3, 46632, Note_on_c, 0, 78, 64
3, 46655, Note_on_c, 0, 78, 0
3, 46656, Note_on_c, 0, 76, 64
3, 46937, Note_on_c, 0, 76, 0
3, 46944, Note_on_c, 0, 74, 64
3, 46989, Note_on_c, 0, 74, 0
3, 46992, Note_on_c, 0, 73, 64
3, 47037, Note_on_c, 0, 73, 0
3, 47040, Note_on_c, 0, 71, 64
3, 47321, Note_on_c, 0, 71, 0
3, 47328, Note_on_c, 0, 69, 64
3, 47373, Note_on_c, 0, 69, 0
3, 47376, Note_on_c, 0, 68, 64
3, 47421, Note_on_c, 0, 68, 0
3, 47424, Note_on_c, 0, 69, 64
3, 47661, Note_on_c, 0, 69, 0
3, 47664, Note_on_c, 0, 73, 64
3, 47709, Note_on_c, 0, 73, 0
3, 47712, Note_on_c, 0, 71, 64
3, 47757, Note_on_c, 0, 71, 0
3, 47760, Note_on_c, 0, 69, 64
3, 47805, Note_on_c, 0, 69, 0
3, 47808, Note_on_c, 0, 68, 64
3, 47853, Note_on_c, 0, 68, 0
3, 47856, Note_on_c, 0, 78, 64
3, 47901, Note_on_c, 0, 78, 0
3, 47904, Note_on_c, 0, 76, 64
3, 47949, Note_on_c, 0, 76, 0
3, 47952, Note_on_c, 0, 74, 64
3, 47997, Note_on_c, 0, 74, 0
3, 48000, Note_on_c, 0, 73, 64
3, 48045, Note_on_c, 0, 73, 0
3, 48048, Note_on_c, 0, 83, 64
3, 48093, Note_on_c, 0, 83, 0
3, 48096, Note_on_c, 0, 81, 64
3, 48141, Note_on_c, 0, 81, 0
3, 48144, Note_on_c, 0, 80, 64
3, 48189, Note_on_c, 0, 80, 0
3, 48192, Note_on_c, 0, 78, 64
3, 48237, Note_on_c, 0, 78, 0
3, 48240, Note_on_c, 0, 76, 64
3, 48285, Note_on_c, 0, 76, 0
3, 48288, Note_on_c, 0, 74, 64
3, 48333, Note_on_c, 0, 74, 0
3, 48336, Note_on_c, 0, 73, 64
3, 48381, Note_on_c, 0, 73, 0
3, 48384, Note_on_c, 0, 71, 64
3, 48473, Note_on_c, 0, 71, 0
3, 48768, Note_on_c, 0, 71, 64
3, 48857, Note_on_c, 0, 71, 0
3, 48864, Note_on_c, 0, 73, 64
3, 48909, Note_on_c, 0, 73, 0
3, 48912, Note_on_c, 0, 74, 64
3, 48957, Note_on_c, 0, 74, 0
3, 48960, Note_on_c, 0, 73, 64
3, 49005, Note_on_c, 0, 73, 0
3, 49008, Note_on_c, 0, 71, 64
3, 49053, Note_on_c, 0, 71, 0
3, 49056, Note_on_c, 0, 69, 64
3, 49101, Note_on_c, 0, 69, 0
3, 49104, Note_on_c, 0, 68, 64
3, 49149, Note_on_c, 0, 68, 0
3, 49152, Note_on_c, 0, 76, 64
3, 49329, Note_on_c, 0, 76, 0
3, 49344, Note_on_c, 0, 64, 64
3, 49433, Note_on_c, 0, 64, 0
3, 49440, Note_on_c, 0, 68, 64
3, 49529, Note_on_c, 0, 68, 0
3, 49536, Note_on_c, 0, 69, 64
3, 49625, Note_on_c, 0, 69, 0
3, 49632, Note_on_c, 0, 69, 64
3, 49655, Note_on_c, 0, 69, 0
3, 49656, Note_on_c, 0, 71, 64
3, 49679, Note_on_c, 0, 71, 0
3, 49680, Note_on_c, 0, 73, 64
3, 49725, Note_on_c, 0, 73, 0
3, 49728, Note_on_c, 0, 71, 64
3, 49817, Note_on_c, 0, 71, 0
3, 49824, Note_on_c, 0, 71, 64
3, 49847, Note_on_c, 0, 71, 0
3, 49848, Note_on_c, 0, 73, 64
3, 49871, Note_on_c, 0, 73, 0
3, 49872, Note_on_c, 0, 74, 64
3, 49917, Note_on_c, 0, 74, 0
3, 49920, Note_on_c, 0, 73, 64
3, 50009, Note_on_c, 0, 73, 0
3, 50016, Note_on_c, 0, 74, 64
3, 50061, Note_on_c, 0, 74, 0
3, 50064, Note_on_c, 0, 76, 64
3, 50109, Note_on_c, 0, 76, 0
3, 50112, Note_on_c, 0, 74, 64
3, 50157, Note_on_c, 0, 74, 0
3, 50160, Note_on_c, 0, 73, 64
3, 50205, Note_on_c, 0, 73, 0
3, 50208, Note_on_c, 0, 71, 64
3, 50253, Note_on_c, 0, 71, 0
3, 50256, Note_on_c, 0, 69, 64
3, 50301, Note_on_c, 0, 69, 0
3, 50304, Note_on_c, 0, 78, 64
3, 50393, Note_on_c, 0, 78, 0
3, 50400, Note_on_c, 0, 78, 64
3, 50423, Note_on_c, 0, 78, 0
3, 50424, Note_on_c, 0, 76, 64
3, 50447, Note_on_c, 0, 76, 0
3, 50448, Note_on_c, 0, 75, 64
3, 50493, Note_on_c, 0, 75, 0
3, 50496, Note_on_c, 0, 76, 64
3, 50585, Note_on_c, 0, 76, 0
3, 50592, Note_on_c, 0, 76, 64
3, 50615, Note_on_c, 0, 76, 0
3, 50616, Note_on_c, 0, 75, 64
3, 50639, Note_on_c, 0, 75, 0
3, 50640, Note_on_c, 0, 73, 64
3, 50685, Note_on_c, 0, 73, 0
3, 50688, Note_on_c, 0, 75, 64
3, 50953, Note_on_c, 0, 75, 0
3, 50976, Note_on_c, 0, 72, 64
3, 51065, Note_on_c, 0, 72, 0
3, 51072, Note_on_c, 0, 73, 64
3, 51161, Note_on_c, 0, 73, 0
3, 51168, Note_on_c, 0, 68, 64
3, 51257, Note_on_c, 0, 68, 0
3, 51264, Note_on_c, 0, 73, 64
3, 51353, Note_on_c, 0, 73, 0
3, 51360, Note_on_c, 0, 78, 64
3, 51501, Note_on_c, 0, 78, 0
3, 51504, Note_on_c, 0, 76, 64
3, 51549, Note_on_c, 0, 76, 0
3, 51552, Note_on_c, 0, 75, 64
3, 51597, Note_on_c, 0, 75, 0
3, 51600, Note_on_c, 0, 73, 64
3, 51645, Note_on_c, 0, 73, 0
3, 51648, Note_on_c, 0, 72, 64
3, 51693, Note_on_c, 0, 72, 0
3, 51696, Note_on_c, 0, 70, 64
3, 51741, Note_on_c, 0, 70, 0
3, 51744, Note_on_c, 0, 68, 64
3, 51833, Note_on_c, 0, 68, 0
3, 51840, Note_on_c, 0, 80, 64
3, 51973, Note_on_c, 0, 80, 0
3, 51984, Note_on_c, 0, 78, 64
3, 52029, Note_on_c, 0, 78, 0
3, 52032, Note_on_c, 0, 76, 64
3, 52077, Note_on_c, 0, 76, 0
3, 52080, Note_on_c, 0, 75, 64
3, 52125, Note_on_c, 0, 75, 0
3, 52128, Note_on_c, 0, 73, 64
3, 52173, Note_on_c, 0, 73, 0
3, 52176, Note_on_c, 0, 72, 64
3, 52221, Note_on_c, 0, 72, 0
3, 52224, Note_on_c, 0, 73, 64
3, 52357, Note_on_c, 0, 73, 0
3, 52368, Note_on_c, 0, 72, 64
3, 52413, Note_on_c, 0, 72, 0
3, 52416, Note_on_c, 0, 73, 64
3, 52461, Note_on_c, 0, 73, 0
3, 52464, Note_on_c, 0, 72, 64
3, 52509, Note_on_c, 0, 72, 0
3, 52512, Note_on_c, 0, 73, 64
3, 52557, Note_on_c, 0, 73, 0
3, 52560, Note_on_c, 0, 75, 64
3, 52605, Note_on_c, 0, 75, 0
3, 52608, Note_on_c, 0, 68, 64
3, 52741, Note_on_c, 0, 68, 0
3, 52752, Note_on_c, 0, 73, 64
3, 52797, Note_on_c, 0, 73, 0
3, 52800, Note_on_c, 0, 72, 64
3, 52933, Note_on_c, 0, 72, 0
3, 52944, Note_on_c, 0, 73, 64
3, 52989, Note_on_c, 0, 73, 0
3, 52992, Note_on_c, 0, 73, 64
3, 53346, Note_on_c, 0, 73, 0
3, 53376, Note_on_c, 0, 69, 64
3, 53553, Note_on_c, 0, 69, 0
3, 53568, Note_on_c, 0, 64, 64
3, 53657, Note_on_c, 0, 64, 0
3, 53664, Note_on_c, 0, 69, 64
3, 53753, Note_on_c, 0, 69, 0
3, 53760, Note_on_c, 0, 71, 64
3, 53805, Note_on_c, 0, 71, 0
3, 53808, Note_on_c, 0, 69, 64
3, 53853, Note_on_c, 0, 69, 0
3, 53856, Note_on_c, 0, 68, 64
3, 53901, Note_on_c, 0, 68, 0
3, 53904, Note_on_c, 0, 66, 64
3, 53949, Note_on_c, 0, 66, 0
3, 53952, Note_on_c, 0, 64, 64
3, 54129, Note_on_c, 0, 64, 0
3, 54144, Note_on_c, 0, 73, 64
3, 54168, Note_on_c, 0, 73, 0
3, 54168, Note_on_c, 0, 74, 64
3, 54192, Note_on_c, 0, 74, 0
3, 54192, Note_on_c, 0, 73, 64
3, 54237, Note_on_c, 0, 73, 0
3, 54240, Note_on_c, 0, 71, 64
3, 54285, Note_on_c, 0, 71, 0
3, 54288, Note_on_c, 0, 73, 64
3, 54333, Note_on_c, 0, 73, 0
3, 54336, Note_on_c, 0, 74, 64
3, 54381, Note_on_c, 0, 74, 0
3, 54384, Note_on_c, 0, 73, 64
3, 54429, Note_on_c, 0, 73, 0
3, 54432, Note_on_c, 0, 71, 64
3, 54477, Note_on_c, 0, 71, 0
3, 54480, Note_on_c, 0, 69, 64
3, 54525, Note_on_c, 0, 69, 0
3, 54528, Note_on_c, 0, 76, 64
3, 54573, Note_on_c, 0, 76, 0
3, 54576, Note_on_c, 0, 74, 64
3, 54621, Note_on_c, 0, 74, 0
3, 54624, Note_on_c, 0, 73, 64
3, 54669, Note_on_c, 0, 73, 0
3, 54672, Note_on_c, 0, 71, 64
3, 54717, Note_on_c, 0, 71, 0
3, 54720, Note_on_c, 0, 69, 64
3, 54809, Note_on_c, 0, 69, 0
3, 54816, Note_on_c, 0, 74, 64
3, 55001, Note_on_c, 0, 74, 0
3, 55008, Note_on_c, 0, 73, 64
3, 55097, Note_on_c, 0, 73, 0
3, 55104, Note_on_c, 0, 71, 64
3, 55149, Note_on_c, 0, 71, 0
3, 55152, Note_on_c, 0, 73, 64
3, 55197, Note_on_c, 0, 73, 0
3, 55200, Note_on_c, 0, 74, 64
3, 55245, Note_on_c, 0, 74, 0
3, 55248, Note_on_c, 0, 71, 64
3, 55293, Note_on_c, 0, 71, 0
3, 55296, Note_on_c, 0, 73, 64
3, 55341, Note_on_c, 0, 73, 0
3, 55344, Note_on_c, 0, 71, 64
3, 55389, Note_on_c, 0, 71, 0
3, 55392, Note_on_c, 0, 69, 64
3, 55437, Note_on_c, 0, 69, 0
3, 55440, Note_on_c, 0, 71, 64
3, 55485, Note_on_c, 0, 71, 0
3, 55488, Note_on_c, 0, 73, 64
3, 55533, Note_on_c, 0, 73, 0
3, 55536, Note_on_c, 0, 75, 64
3, 55581, Note_on_c, 0, 75, 0
3, 55584, Note_on_c, 0, 76, 64
3, 55629, Note_on_c, 0, 76, 0
3, 55632, Note_on_c, 0, 78, 64
3, 55677, Note_on_c, 0, 78, 0
3, 55680, Note_on_c, 0, 80, 64
3, 55725, Note_on_c, 0, 80, 0
3, 55728, Note_on_c, 0, 81, 64
3, 55773, Note_on_c, 0, 81, 0
3, 55776, Note_on_c, 0, 83, 64
3, 55821, Note_on_c, 0, 83, 0
3, 55824, Note_on_c, 0, 80, 64
3, 55869, Note_on_c, 0, 80, 0
3, 55872, Note_on_c, 0, 76, 64
3, 56049, Note_on_c, 0, 76, 0
3, 56064, Note_on_c, 0, 71, 64
3, 56153, Note_on_c, 0, 71, 0
3, 56160, Note_on_c, 0, 76, 64
3, 56249, Note_on_c, 0, 76, 0
3, 56256, Note_on_c, 0, 78, 64
3, 56301, Note_on_c, 0, 78, 0
3, 56304, Note_on_c, 0, 76, 64
3, 56349, Note_on_c, 0, 76, 0
3, 56352, Note_on_c, 0, 75, 64
3, 56397, Note_on_c, 0, 75, 0
3, 56400, Note_on_c, 0, 73, 64
3, 56445, Note_on_c, 0, 73, 0
3, 56448, Note_on_c, 0, 71, 64
3, 57009, Note_on_c, 0, 71, 0
3, 57024, Note_on_c, 0, 73, 64
3, 57201, Note_on_c, 0, 73, 0
3, 57216, Note_on_c, 0, 75, 64
3, 57305, Note_on_c, 0, 75, 0
3, 57312, Note_on_c, 0, 76, 64
3, 57489, Note_on_c, 0, 76, 0
3, 57504, Note_on_c, 0, 75, 64
3, 57593, Note_on_c, 0, 75, 0
3, 57600, Note_on_c, 0, 76, 64
3, 57777, Note_on_c, 0, 76, 0
3, 58080, Note_on_c, 0, 78, 64
3, 58169, Note_on_c, 0, 78, 0
3, 58176, Note_on_c, 0, 83, 64
3, 58265, Note_on_c, 0, 83, 0
3, 58272, Note_on_c, 0, 81, 64
3, 58361, Note_on_c, 0, 81, 0
3, 58368, Note_on_c, 0, 80, 64
3, 58841, Note_on_c, 0, 80, 0
3, 58848, Note_on_c, 0, 76, 64
3, 58937, Note_on_c, 0, 76, 0
3, 58944, Note_on_c, 0, 81, 64
3, 59033, Note_on_c, 0, 81, 0
3, 59040, Note_on_c, 0, 80, 64
3, 59129, Note_on_c, 0, 80, 0
3, 59136, Note_on_c, 0, 78, 64
3, 59373, Note_on_c, 0, 78, 0
3, 59376, Note_on_c, 0, 76, 64
3, 59421, Note_on_c, 0, 76, 0
3, 59424, Note_on_c, 0, 74, 64
3, 59469, Note_on_c, 0, 74, 0
3, 59472, Note_on_c, 0, 73, 64
3, 59517, Note_on_c, 0, 73, 0
3, 59520, Note_on_c, 0, 74, 64
3, 59565, Note_on_c, 0, 74, 0
3, 59568, Note_on_c, 0, 73, 64
3, 59613, Note_on_c, 0, 73, 0
3, 59616, Note_on_c, 0, 71, 64
3, 59661, Note_on_c, 0, 71, 0
3, 59664, Note_on_c, 0, 69, 64
3, 59709, Note_on_c, 0, 69, 0
3, 59712, Note_on_c, 0, 68, 64
3, 59757, Note_on_c, 0, 68, 0
3, 59760, Note_on_c, 0, 66, 64
3, 59805, Note_on_c, 0, 66, 0
3, 59808, Note_on_c, 0, 64, 64
3, 59853, Note_on_c, 0, 64, 0
3, 59856, Note_on_c, 0, 62, 64
3, 59901, Note_on_c, 0, 62, 0
3, 59904, Note_on_c, 0, 64, 64
3, 59949, Note_on_c, 0, 64, 0
3, 59952, Note_on_c, 0, 62, 64
3, 59997, Note_on_c, 0, 62, 0
3, 60000, Note_on_c, 0, 64, 64
3, 60045, Note_on_c, 0, 64, 0
3, 60048, Note_on_c, 0, 66, 64
3, 60093, Note_on_c, 0, 66, 0
3, 60096, Note_on_c, 0, 64, 64
3, 60141, Note_on_c, 0, 64, 0
3, 60144, Note_on_c, 0, 62, 64
3, 60189, Note_on_c, 0, 62, 0
3, 60192, Note_on_c, 0, 61, 64
3, 60237, Note_on_c, 0, 61, 0
3, 60240, Note_on_c, 0, 59, 64
3, 60285, Note_on_c, 0, 59, 0
3, 60288, Note_on_c, 0, 57, 64
3, 60377, Note_on_c, 0, 57, 0
3, 60384, Note_on_c, 0, 69, 64
3, 60561, Note_on_c, 0, 69, 0
3, 60576, Note_on_c, 0, 64, 64
3, 60761, Note_on_c, 0, 64, 0
3, 60768, Note_on_c, 0, 69, 64
3, 60857, Note_on_c, 0, 69, 0
3, 60864, Note_on_c, 0, 71, 64
3, 60909, Note_on_c, 0, 71, 0
3, 60912, Note_on_c, 0, 69, 64
3, 60957, Note_on_c, 0, 69, 0
3, 60960, Note_on_c, 0, 68, 64
3, 61005, Note_on_c, 0, 68, 0
3, 61008, Note_on_c, 0, 66, 64
3, 61053, Note_on_c, 0, 66, 0
3, 61056, Note_on_c, 0, 64, 64
3, 61145, Note_on_c, 0, 64, 0
3, 61152, Note_on_c, 0, 69, 64
3, 61329, Note_on_c, 0, 69, 0
3, 61344, Note_on_c, 0, 68, 64
3, 61433, Note_on_c, 0, 68, 0
3, 61440, Note_on_c, 0, 69, 64
3, 61529, Note_on_c, 0, 69, 0
3, 61536, Note_on_c, 0, 76, 64
3, 61581, Note_on_c, 0, 76, 0
3, 61584, Note_on_c, 0, 74, 64
3, 61629, Note_on_c, 0, 74, 0
3, 61632, Note_on_c, 0, 73, 64
3, 61677, Note_on_c, 0, 73, 0
3, 61680, Note_on_c, 0, 71, 64
3, 61725, Note_on_c, 0, 71, 0
3, 61728, Note_on_c, 0, 69, 64
3, 61773, Note_on_c, 0, 69, 0
3, 61776, Note_on_c, 0, 68, 64
3, 61821, Note_on_c, 0, 68, 0
3, 61824, Note_on_c, 0, 69, 64
3, 61957, Note_on_c, 0, 69, 0
3, 61968, Note_on_c, 0, 71, 64
3, 62013, Note_on_c, 0, 71, 0
3, 62016, Note_on_c, 0, 68, 64
3, 62149, Note_on_c, 0, 68, 0
3, 62160, Note_on_c, 0, 69, 64
3, 62205, Note_on_c, 0, 69, 0
3, 62208, Note_on_c, 0, 69, 64
3, 62562, Note_on_c, 0, 69, 0
3, 62592, Note_on_c, 0, 71, 64
3, 62681, Note_on_c, 0, 71, 0
3, 62688, Note_on_c, 0, 73, 64
3, 62733, Note_on_c, 0, 73, 0
3, 62736, Note_on_c, 0, 74, 64
3, 62781, Note_on_c, 0, 74, 0
3, 62784, Note_on_c, 0, 73, 64
3, 62829, Note_on_c, 0, 73, 0
3, 62832, Note_on_c, 0, 71, 64
3, 62877, Note_on_c, 0, 71, 0
3, 62880, Note_on_c, 0, 69, 64
3, 62925, Note_on_c, 0, 69, 0
3, 62928, Note_on_c, 0, 68, 64
3, 62973, Note_on_c, 0, 68, 0
3, 62976, Note_on_c, 0, 76, 64
3, 63153, Note_on_c, 0, 76, 0
3, 63168, Note_on_c, 0, 64, 64
3, 63257, Note_on_c, 0, 64, 0
3, 63264, Note_on_c, 0, 68, 64
3, 63353, Note_on_c, 0, 68, 0
3, 63360, Note_on_c, 0, 69, 64
3, 63449, Note_on_c, 0, 69, 0
3, 63456, Note_on_c, 0, 69, 64
3, 63479, Note_on_c, 0, 69, 0
3, 63480, Note_on_c, 0, 71, 64
3, 63503, Note_on_c, 0, 71, 0
3, 63504, Note_on_c, 0, 73, 64
3, 63549, Note_on_c, 0, 73, 0
3, 63552, Note_on_c, 0, 71, 64
3, 63641, Note_on_c, 0, 71, 0
3, 63648, Note_on_c, 0, 71, 64
3, 63671, Note_on_c, 0, 71, 0
3, 63672, Note_on_c, 0, 73, 64
3, 63695, Note_on_c, 0, 73, 0
3, 63696, Note_on_c, 0, 74, 64
3, 63741, Note_on_c, 0, 74, 0
3, 63744, Note_on_c, 0, 73, 64
3, 63833, Note_on_c, 0, 73, 0
3, 63840, Note_on_c, 0, 74, 64
3, 63885, Note_on_c, 0, 74, 0
3, 63888, Note_on_c, 0, 76, 64
3, 63933, Note_on_c, 0, 76, 0
3, 63936, Note_on_c, 0, 74, 64
3, 63981, Note_on_c, 0, 74, 0
3, 63984, Note_on_c, 0, 73, 64
3, 64029, Note_on_c, 0, 73, 0
3, 64032, Note_on_c, 0, 71, 64
3, 64077, Note_on_c, 0, 71, 0
3, 64080, Note_on_c, 0, 69, 64
3, 64125, Note_on_c, 0, 69, 0
3, 64128, Note_on_c, 0, 81, 64
3, 64482, Note_on_c, 0, 81, 0
3, 64512, Note_on_c, 0, 81, 64
3, 64601, Note_on_c, 0, 81, 0
3, 64608, Note_on_c, 0, 74, 64
3, 64631, Note_on_c, 0, 74, 0
3, 64632, Note_on_c, 0, 76, 64
3, 64655, Note_on_c, 0, 76, 0
3, 64656, Note_on_c, 0, 78, 64
3, 64701, Note_on_c, 0, 78, 0
3, 64704, Note_on_c, 0, 76, 64
3, 64793, Note_on_c, 0, 76, 0
3, 64800, Note_on_c, 0, 76, 64
3, 64823, Note_on_c, 0, 76, 0
3, 64824, Note_on_c, 0, 78, 64
3, 64847, Note_on_c, 0, 78, 0
3, 64848, Note_on_c, 0, 79, 64
3, 64893, Note_on_c, 0, 79, 0
3, 64896, Note_on_c, 0, 78, 64
3, 64941, Note_on_c, 0, 78, 0
3, 64944, Note_on_c, 0, 76, 64
3, 64989, Note_on_c, 0, 76, 0
3, 64992, Note_on_c, 0, 74, 64
3, 65037, Note_on_c, 0, 74, 0
3, 65040, Note_on_c, 0, 73, 64
3, 65085, Note_on_c, 0, 73, 0
3, 65088, Note_on_c, 0, 71, 64
3, 65133, Note_on_c, 0, 71, 0
3, 65136, Note_on_c, 0, 74, 64
3, 65181, Note_on_c, 0, 74, 0
3, 65184, Note_on_c, 0, 73, 64
3, 65229, Note_on_c, 0, 73, 0
3, 65232, Note_on_c, 0, 76, 64
3, 65277, Note_on_c, 0, 76, 0
3, 65280, Note_on_c, 0, 74, 64
3, 65369, Note_on_c, 0, 74, 0
3, 65664, Note_on_c, 0, 76, 64
3, 65753, Note_on_c, 0, 76, 0
3, 65760, Note_on_c, 0, 76, 64
3, 65783, Note_on_c, 0, 76, 0
3, 65784, Note_on_c, 0, 74, 64
3, 65807, Note_on_c, 0, 74, 0
3, 65808, Note_on_c, 0, 73, 64
3, 65853, Note_on_c, 0, 73, 0
3, 65856, Note_on_c, 0, 74, 64
3, 65945, Note_on_c, 0, 74, 0
3, 65952, Note_on_c, 0, 74, 64
3, 65975, Note_on_c, 0, 74, 0
3, 65976, Note_on_c, 0, 73, 64
3, 65999, Note_on_c, 0, 73, 0
3, 66000, Note_on_c, 0, 71, 64
3, 66045, Note_on_c, 0, 71, 0
3, 66048, Note_on_c, 0, 73, 64
3, 66313, Note_on_c, 0, 73, 0
3, 66336, Note_on_c, 0, 70, 64
3, 66425, Note_on_c, 0, 70, 0
3, 66432, Note_on_c, 0, 71, 64
3, 66521, Note_on_c, 0, 71, 0
3, 66528, Note_on_c, 0, 66, 64
3, 66617, Note_on_c, 0, 66, 0
3, 66624, Note_on_c, 0, 71, 64
3, 66713, Note_on_c, 0, 71, 0
3, 66720, Note_on_c, 0, 76, 64
3, 66861, Note_on_c, 0, 76, 0
3, 66864, Note_on_c, 0, 74, 64
3, 66909, Note_on_c, 0, 74, 0
3, 66912, Note_on_c, 0, 73, 64
3, 66957, Note_on_c, 0, 73, 0
3, 66960, Note_on_c, 0, 71, 64
3, 67005, Note_on_c, 0, 71, 0
3, 67008, Note_on_c, 0, 70, 64
3, 67053, Note_on_c, 0, 70, 0
3, 67056, Note_on_c, 0, 68, 64
3, 67101, Note_on_c, 0, 68, 0
3, 67104, Note_on_c, 0, 66, 64
3, 67193, Note_on_c, 0, 66, 0
3, 67200, Note_on_c, 0, 78, 64
3, 67333, Note_on_c, 0, 78, 0
3, 67344, Note_on_c, 0, 76, 64
3, 67389, Note_on_c, 0, 76, 0
3, 67392, Note_on_c, 0, 74, 64
3, 67437, Note_on_c, 0, 74, 0
3, 67440, Note_on_c, 0, 73, 64
3, 67485, Note_on_c, 0, 73, 0
3, 67488, Note_on_c, 0, 71, 64
3, 67577, Note_on_c, 0, 71, 0
3, 67584, Note_on_c, 0, 83, 64
3, 67717, Note_on_c, 0, 83, 0
3, 67728, Note_on_c, 0, 82, 64
3, 67773, Note_on_c, 0, 82, 0
3, 67776, Note_on_c, 0, 83, 64
3, 67821, Note_on_c, 0, 83, 0
3, 67824, Note_on_c, 0, 82, 64
3, 67869, Note_on_c, 0, 82, 0
3, 67872, Note_on_c, 0, 83, 64
3, 67917, Note_on_c, 0, 83, 0
3, 67920, Note_on_c, 0, 85, 64
3, 67965, Note_on_c, 0, 85, 0
3, 67968, Note_on_c, 0, 78, 64
3, 68101, Note_on_c, 0, 78, 0
3, 68112, Note_on_c, 0, 83, 64
3, 68157, Note_on_c, 0, 83, 0
3, 68160, Note_on_c, 0, 82, 64
3, 68293, Note_on_c, 0, 82, 0
3, 68304, Note_on_c, 0, 83, 64
3, 68349, Note_on_c, 0, 83, 0
3, 68352, Note_on_c, 0, 83, 64
3, 68397, Note_on_c, 0, 83, 0
3, 68400, Note_on_c, 0, 74, 64
3, 68445, Note_on_c, 0, 74, 0
3, 68448, Note_on_c, 0, 76, 64
3, 68493, Note_on_c, 0, 76, 0
3, 68496, Note_on_c, 0, 78, 64
3, 68541, Note_on_c, 0, 78, 0
3, 68544, Note_on_c, 0, 76, 64
3, 68589, Note_on_c, 0, 76, 0
3, 68592, Note_on_c, 0, 74, 64
3, 68637, Note_on_c, 0, 74, 0
3, 68640, Note_on_c, 0, 73, 64
3, 68685, Note_on_c, 0, 73, 0
3, 68688, Note_on_c, 0, 71, 64
3, 68733, Note_on_c, 0, 71, 0
3, 68736, Note_on_c, 0, 83, 64
3, 68913, Note_on_c, 0, 83, 0
3, 68928, Note_on_c, 0, 71, 64
3, 69017, Note_on_c, 0, 71, 0
3, 69024, Note_on_c, 0, 75, 64
3, 69113, Note_on_c, 0, 75, 0
3, 69120, Note_on_c, 0, 76, 64
3, 69209, Note_on_c, 0, 76, 0
3, 69216, Note_on_c, 0, 76, 64
3, 69239, Note_on_c, 0, 76, 0
3, 69240, Note_on_c, 0, 78, 64
3, 69263, Note_on_c, 0, 78, 0
3, 69264, Note_on_c, 0, 80, 64
3, 69309, Note_on_c, 0, 80, 0
3, 69312, Note_on_c, 0, 78, 64
3, 69401, Note_on_c, 0, 78, 0
3, 69408, Note_on_c, 0, 78, 64
3, 69431, Note_on_c, 0, 78, 0
3, 69432, Note_on_c, 0, 80, 64
3, 69455, Note_on_c, 0, 80, 0
3, 69456, Note_on_c, 0, 81, 64
3, 69501, Note_on_c, 0, 81, 0
3, 69504, Note_on_c, 0, 80, 64
3, 69593, Note_on_c, 0, 80, 0
3, 69600, Note_on_c, 0, 78, 64
3, 69689, Note_on_c, 0, 78, 0
3, 69696, Note_on_c, 0, 76, 64
3, 69933, Note_on_c, 0, 76, 0
3, 69936, Note_on_c, 0, 68, 64
3, 69981, Note_on_c, 0, 68, 0
3, 69984, Note_on_c, 0, 69, 64
3, 70029, Note_on_c, 0, 69, 0
3, 70032, Note_on_c, 0, 71, 64
3, 70077, Note_on_c, 0, 71, 0
3, 70080, Note_on_c, 0, 69, 64
3, 70125, Note_on_c, 0, 69, 0
3, 70128, Note_on_c, 0, 68, 64
3, 70173, Note_on_c, 0, 68, 0
3, 70176, Note_on_c, 0, 66, 64
3, 70221, Note_on_c, 0, 66, 0
3, 70224, Note_on_c, 0, 64, 64
3, 70269, Note_on_c, 0, 64, 0
3, 70272, Note_on_c, 0, 76, 64
3, 71129, Note_on_c, 0, 76, 0
3, 71136, Note_on_c, 0, 78, 64
3, 71181, Note_on_c, 0, 78, 0
3, 71184, Note_on_c, 0, 79, 64
3, 71229, Note_on_c, 0, 79, 0
3, 71232, Note_on_c, 0, 78, 64
3, 71277, Note_on_c, 0, 78, 0
3, 71280, Note_on_c, 0, 76, 64
3, 71325, Note_on_c, 0, 76, 0
3, 71328, Note_on_c, 0, 74, 64
3, 71373, Note_on_c, 0, 74, 0
3, 71376, Note_on_c, 0, 73, 64
3, 71421, Note_on_c, 0, 73, 0
3, 71424, Note_on_c, 0, 74, 64
3, 71897, Note_on_c, 0, 74, 0
3, 71904, Note_on_c, 0, 73, 64
3, 71949, Note_on_c, 0, 73, 0
3, 71952, Note_on_c, 0, 74, 64
3, 71997, Note_on_c, 0, 74, 0
3, 72000, Note_on_c, 0, 76, 64
3, 72045, Note_on_c, 0, 76, 0
3, 72048, Note_on_c, 0, 74, 64
3, 72093, Note_on_c, 0, 74, 0
3, 72096, Note_on_c, 0, 73, 64
3, 72141, Note_on_c, 0, 73, 0
3, 72144, Note_on_c, 0, 71, 64
3, 72189, Note_on_c, 0, 71, 0
3, 72192, Note_on_c, 0, 73, 64
3, 72281, Note_on_c, 0, 73, 0
3, 72288, Note_on_c, 0, 74, 64
3, 72311, Note_on_c, 0, 74, 0
3, 72312, Note_on_c, 0, 76, 64
3, 72335, Note_on_c, 0, 76, 0
3, 72336, Note_on_c, 0, 74, 64
3, 72359, Note_on_c, 0, 74, 0
3, 72360, Note_on_c, 0, 78, 64
3, 72383, Note_on_c, 0, 78, 0
3, 72384, Note_on_c, 0, 76, 64
3, 72665, Note_on_c, 0, 76, 0
3, 72672, Note_on_c, 0, 74, 64
3, 72717, Note_on_c, 0, 74, 0
3, 72720, Note_on_c, 0, 73, 64
3, 72765, Note_on_c, 0, 73, 0
3, 72768, Note_on_c, 0, 71, 64
3, 73049, Note_on_c, 0, 71, 0
3, 73056, Note_on_c, 0, 69, 64
3, 73101, Note_on_c, 0, 69, 0
3, 73104, Note_on_c, 0, 68, 64
3, 73149, Note_on_c, 0, 68, 0
3, 73152, Note_on_c, 0, 69, 64
3, 73389, Note_on_c, 0, 69, 0
3, 73392, Note_on_c, 0, 73, 64
3, 73437, Note_on_c, 0, 73, 0
3, 73440, Note_on_c, 0, 71, 64
3, 73485, Note_on_c, 0, 71, 0
3, 73488, Note_on_c, 0, 69, 64
3, 73533, Note_on_c, 0, 69, 0
3, 73536, Note_on_c, 0, 68, 64
3, 73581, Note_on_c, 0, 68, 0
3, 73584, Note_on_c, 0, 78, 64
3, 73629, Note_on_c, 0, 78, 0
3, 73632, Note_on_c, 0, 76, 64
3, 73677, Note_on_c, 0, 76, 0
3, 73680, Note_on_c, 0, 74, 64
3, 73725, Note_on_c, 0, 74, 0
3, 73728, Note_on_c, 0, 73, 64
3, 73773, Note_on_c, 0, 73, 0
3, 73776, Note_on_c, 0, 83, 64
3, 73821, Note_on_c, 0, 83, 0
3, 73824, Note_on_c, 0, 81, 64
3, 73869, Note_on_c, 0, 81, 0
3, 73872, Note_on_c, 0, 80, 64
3, 73917, Note_on_c, 0, 80, 0
3, 73920, Note_on_c, 0, 78, 64
3, 73965, Note_on_c, 0, 78, 0
3, 73968, Note_on_c, 0, 76, 64
3, 74013, Note_on_c, 0, 76, 0
3, 74016, Note_on_c, 0, 74, 64
3, 74061, Note_on_c, 0, 74, 0
3, 74064, Note_on_c, 0, 73, 64
3, 74109, Note_on_c, 0, 73, 0
3, 74112, Note_on_c, 0, 71, 64
3, 74201, Note_on_c, 0, 71, 0
3, 74496, Note_on_c, 0, 71, 64
3, 74585, Note_on_c, 0, 71, 0
3, 74592, Note_on_c, 0, 73, 64
3, 74637, Note_on_c, 0, 73, 0
3, 74640, Note_on_c, 0, 74, 64
3, 74685, Note_on_c, 0, 74, 0
3, 74688, Note_on_c, 0, 73, 64
3, 74733, Note_on_c, 0, 73, 0
3, 74736, Note_on_c, 0, 71, 64
3, 74781, Note_on_c, 0, 71, 0
3, 74784, Note_on_c, 0, 69, 64
3, 74829, Note_on_c, 0, 69, 0
3, 74832, Note_on_c, 0, 68, 64
3, 74877, Note_on_c, 0, 68, 0
3, 74880, Note_on_c, 0, 76, 64
3, 75057, Note_on_c, 0, 76, 0
3, 75072, Note_on_c, 0, 64, 64
3, 75161, Note_on_c, 0, 64, 0
3, 75168, Note_on_c, 0, 68, 64
3, 75257, Note_on_c, 0, 68, 0
3, 75264, Note_on_c, 0, 69, 64
3, 75353, Note_on_c, 0, 69, 0
3, 75360, Note_on_c, 0, 69, 64
3, 75383, Note_on_c, 0, 69, 0
3, 75384, Note_on_c, 0, 71, 64
3, 75407, Note_on_c, 0, 71, 0
3, 75408, Note_on_c, 0, 73, 64
3, 75453, Note_on_c, 0, 73, 0
3, 75456, Note_on_c, 0, 71, 64
3, 75545, Note_on_c, 0, 71, 0
3, 75552, Note_on_c, 0, 71, 64
3, 75575, Note_on_c, 0, 71, 0
3, 75576, Note_on_c, 0, 73, 64
3, 75599, Note_on_c, 0, 73, 0
3, 75600, Note_on_c, 0, 74, 64
3, 75645, Note_on_c, 0, 74, 0
3, 75648, Note_on_c, 0, 73, 64
3, 75737, Note_on_c, 0, 73, 0
3, 75744, Note_on_c, 0, 74, 64
3, 75789, Note_on_c, 0, 74, 0
3, 75792, Note_on_c, 0, 76, 64
3, 75837, Note_on_c, 0, 76, 0
3, 75840, Note_on_c, 0, 74, 64
3, 75885, Note_on_c, 0, 74, 0
3, 75888, Note_on_c, 0, 73, 64
3, 75933, Note_on_c, 0, 73, 0
3, 75936, Note_on_c, 0, 71, 64
3, 75981, Note_on_c, 0, 71, 0
3, 75984, Note_on_c, 0, 69, 64
3, 76029, Note_on_c, 0, 69, 0
3, 76032, Note_on_c, 0, 78, 64
3, 76121, Note_on_c, 0, 78, 0
3, 76128, Note_on_c, 0, 78, 64
3, 76151, Note_on_c, 0, 78, 0
3, 76152, Note_on_c, 0, 76, 64
3, 76175, Note_on_c, 0, 76, 0
3, 76176, Note_on_c, 0, 75, 64
3, 76221, Note_on_c, 0, 75, 0
3, 76224, Note_on_c, 0, 76, 64
3, 76313, Note_on_c, 0, 76, 0
3, 76320, Note_on_c, 0, 76, 64
3, 76343, Note_on_c, 0, 76, 0
3, 76344, Note_on_c, 0, 75, 64
3, 76367, Note_on_c, 0, 75, 0
3, 76368, Note_on_c, 0, 73, 64
3, 76413, Note_on_c, 0, 73, 0
3, 76416, Note_on_c, 0, 75, 64
3, 76681, Note_on_c, 0, 75, 0
3, 76704, Note_on_c, 0, 72, 64
3, 76793, Note_on_c, 0, 72, 0
3, 76800, Note_on_c, 0, 73, 64
3, 76889, Note_on_c, 0, 73, 0
3, 76896, Note_on_c, 0, 68, 64
3, 76985, Note_on_c, 0, 68, 0
3, 76992, Note_on_c, 0, 73, 64
3, 77081, Note_on_c, 0, 73, 0
3, 77088, Note_on_c, 0, 78, 64
3, 77229, Note_on_c, 0, 78, 0
3, 77232, Note_on_c, 0, 76, 64
3, 77277, Note_on_c, 0, 76, 0
3, 77280, Note_on_c, 0, 75, 64
3, 77325, Note_on_c, 0, 75, 0
3, 77328, Note_on_c, 0, 73, 64
3, 77373, Note_on_c, 0, 73, 0
3, 77376, Note_on_c, 0, 72, 64
3, 77421, Note_on_c, 0, 72, 0
3, 77424, Note_on_c, 0, 70, 64
3, 77469, Note_on_c, 0, 70, 0
3, 77472, Note_on_c, 0, 68, 64
3, 77561, Note_on_c, 0, 68, 0
3, 77568, Note_on_c, 0, 80, 64
3, 77701, Note_on_c, 0, 80, 0
3, 77712, Note_on_c, 0, 78, 64
3, 77757, Note_on_c, 0, 78, 0
3, 77760, Note_on_c, 0, 76, 64
3, 77805, Note_on_c, 0, 76, 0
3, 77808, Note_on_c, 0, 75, 64
3, 77853, Note_on_c, 0, 75, 0
3, 77856, Note_on_c, 0, 73, 64
3, 77901, Note_on_c, 0, 73, 0
3, 77904, Note_on_c, 0, 72, 64
3, 77949, Note_on_c, 0, 72, 0
3, 77952, Note_on_c, 0, 73, 64
3, 78085, Note_on_c, 0, 73, 0
3, 78096, Note_on_c, 0, 72, 64
3, 78141, Note_on_c, 0, 72, 0
3, 78144, Note_on_c, 0, 73, 64
3, 78189, Note_on_c, 0, 73, 0
3, 78192, Note_on_c, 0, 72, 64
3, 78237, Note_on_c, 0, 72, 0
3, 78240, Note_on_c, 0, 73, 64
3, 78285, Note_on_c, 0, 73, 0
3, 78288, Note_on_c, 0, 75, 64
3, 78333, Note_on_c, 0, 75, 0
3, 78336, Note_on_c, 0, 68, 64
3, 78469, Note_on_c, 0, 68, 0
3, 78480, Note_on_c, 0, 73, 64
3, 78525, Note_on_c, 0, 73, 0
3, 78528, Note_on_c, 0, 72, 64
3, 78661, Note_on_c, 0, 72, 0
3, 78672, Note_on_c, 0, 73, 64
3, 78717, Note_on_c, 0, 73, 0
3, 78720, Note_on_c, 0, 73, 64
3, 79074, Note_on_c, 0, 73, 0
3, 79104, Note_on_c, 0, 69, 64
3, 79281, Note_on_c, 0, 69, 0
3, 79296, Note_on_c, 0, 64, 64
3, 79385, Note_on_c, 0, 64, 0
3, 79392, Note_on_c, 0, 69, 64
3, 79481, Note_on_c, 0, 69, 0
3, 79488, Note_on_c, 0, 71, 64
3, 79533, Note_on_c, 0, 71, 0
3, 79536, Note_on_c, 0, 69, 64
3, 79581, Note_on_c, 0, 69, 0
3, 79584, Note_on_c, 0, 68, 64
3, 79629, Note_on_c, 0, 68, 0
3, 79632, Note_on_c, 0, 66, 64
3, 79677, Note_on_c, 0, 66, 0
3, 79680, Note_on_c, 0, 64, 64
3, 79857, Note_on_c, 0, 64, 0
3, 79872, Note_on_c, 0, 73, 64
3, 79896, Note_on_c, 0, 73, 0
3, 79896, Note_on_c, 0, 74, 64
3, 79920, Note_on_c, 0, 74, 0
3, 79920, Note_on_c, 0, 73, 64
3, 79965, Note_on_c, 0, 73, 0
3, 79968, Note_on_c, 0, 71, 64
3, 80013, Note_on_c, 0, 71, 0
3, 80016, Note_on_c, 0, 73, 64
3, 80061, Note_on_c, 0, 73, 0
3, 80064, Note_on_c, 0, 74, 64
3, 80109, Note_on_c, 0, 74, 0
3, 80112, Note_on_c, 0, 73, 64
3, 80157, Note_on_c, 0, 73, 0
3, 80160, Note_on_c, 0, 71, 64
3, 80205, Note_on_c, 0, 71, 0
3, 80208, Note_on_c, 0, 69, 64
3, 80253, Note_on_c, 0, 69, 0
3, 80256, Note_on_c, 0, 76, 64
3, 80301, Note_on_c, 0, 76, 0
3, 80304, Note_on_c, 0, 74, 64
3, 80349, Note_on_c, 0, 74, 0
3, 80352, Note_on_c, 0, 73, 64
3, 80397, Note_on_c, 0, 73, 0
3, 80400, Note_on_c, 0, 71, 64
3, 80445, Note_on_c, 0, 71, 0
3, 80448, Note_on_c, 0, 69, 64
3, 80537, Note_on_c, 0, 69, 0
3, 80544, Note_on_c, 0, 74, 64
3, 80729, Note_on_c, 0, 74, 0
3, 80736, Note_on_c, 0, 73, 64
3, 80825, Note_on_c, 0, 73, 0
3, 80832, Note_on_c, 0, 71, 64
3, 80877, Note_on_c, 0, 71, 0
3, 80880, Note_on_c, 0, 73, 64
3, 80925, Note_on_c, 0, 73, 0
3, 80928, Note_on_c, 0, 74, 64
3, 80973, Note_on_c, 0, 74, 0
3, 80976, Note_on_c, 0, 71, 64
3, 81021, Note_on_c, 0, 71, 0
3, 81024, Note_on_c, 0, 73, 64
3, 81069, Note_on_c, 0, 73, 0
3, 81072, Note_on_c, 0, 71, 64
3, 81117, Note_on_c, 0, 71, 0
3, 81120, Note_on_c, 0, 69, 64
3, 81165, Note_on_c, 0, 69, 0
3, 81168, Note_on_c, 0, 71, 64
3, 81213, Note_on_c, 0, 71, 0
3, 81216, Note_on_c, 0, 73, 64
3, 81261, Note_on_c, 0, 73, 0
3, 81264, Note_on_c, 0, 75, 64
3, 81309, Note_on_c, 0, 75, 0
3, 81312, Note_on_c, 0, 76, 64
3, 81357, Note_on_c, 0, 76, 0
3, 81360, Note_on_c, 0, 78, 64
3, 81405, Note_on_c, 0, 78, 0
3, 81408, Note_on_c, 0, 80, 64
3, 81453, Note_on_c, 0, 80, 0
3, 81456, Note_on_c, 0, 81, 64
3, 81501, Note_on_c, 0, 81, 0
3, 81504, Note_on_c, 0, 83, 64
3, 81549, Note_on_c, 0, 83, 0
3, 81552, Note_on_c, 0, 80, 64
3, 81597, Note_on_c, 0, 80, 0
3, 81600, Note_on_c, 0, 76, 64
3, 81777, Note_on_c, 0, 76, 0
3, 81792, Note_on_c, 0, 71, 64
3, 81881, Note_on_c, 0, 71, 0
3, 81888, Note_on_c, 0, 76, 64
3, 81977, Note_on_c, 0, 76, 0
3, 81984, Note_on_c, 0, 78, 64
3, 82029, Note_on_c, 0, 78, 0
3, 82032, Note_on_c, 0, 76, 64
3, 82077, Note_on_c, 0, 76, 0
3, 82080, Note_on_c, 0, 75, 64
3, 82125, Note_on_c, 0, 75, 0
3, 82128, Note_on_c, 0, 73, 64
3, 82173, Note_on_c, 0, 73, 0
3, 82176, Note_on_c, 0, 71, 64
3, 82737, Note_on_c, 0, 71, 0
3, 82752, Note_on_c, 0, 73, 64
3, 82929, Note_on_c, 0, 73, 0
3, 82944, Note_on_c, 0, 75, 64
3, 83033, Note_on_c, 0, 75, 0
3, 83040, Note_on_c, 0, 76, 64
3, 83217, Note_on_c, 0, 76, 0
3, 83232, Note_on_c, 0, 75, 64
3, 83321, Note_on_c, 0, 75, 0
3, 83328, Note_on_c, 0, 76, 64
3, 83505, Note_on_c, 0, 76, 0
3, 83808, Note_on_c, 0, 78, 64
3, 83897, Note_on_c, 0, 78, 0
3, 83904, Note_on_c, 0, 83, 64
3, 83993, Note_on_c, 0, 83, 0
3, 84000, Note_on_c, 0, 81, 64
3, 84089, Note_on_c, 0, 81, 0
3, 84096, Note_on_c, 0, 80, 64
3, 84569, Note_on_c, 0, 80, 0
3, 84576, Note_on_c, 0, 76, 64
3, 84665, Note_on_c, 0, 76, 0
3, 84672, Note_on_c, 0, 81, 64
3, 84761, Note_on_c, 0, 81, 0
3, 84768, Note_on_c, 0, 80, 64
3, 84857, Note_on_c, 0, 80, 0
3, 84864, Note_on_c, 0, 78, 64
3, 85101, Note_on_c, 0, 78, 0
3, 85104, Note_on_c, 0, 76, 64
3, 85149, Note_on_c, 0, 76, 0
3, 85152, Note_on_c, 0, 74, 64
3, 85197, Note_on_c, 0, 74, 0
3, 85200, Note_on_c, 0, 73, 64
3, 85245, Note_on_c, 0, 73, 0
3, 85248, Note_on_c, 0, 74, 64
3, 85293, Note_on_c, 0, 74, 0
3, 85296, Note_on_c, 0, 73, 64
3, 85341, Note_on_c, 0, 73, 0
3, 85344, Note_on_c, 0, 71, 64
3, 85389, Note_on_c, 0, 71, 0
3, 85392, Note_on_c, 0, 69, 64
3, 85437, Note_on_c, 0, 69, 0
3, 85440, Note_on_c, 0, 68, 64
3, 85485, Note_on_c, 0, 68, 0
3, 85488, Note_on_c, 0, 66, 64
3, 85533, Note_on_c, 0, 66, 0
3, 85536, Note_on_c, 0, 64, 64
3, 85581, Note_on_c, 0, 64, 0
3, 85584, Note_on_c, 0, 62, 64
3, 85629, Note_on_c, 0, 62, 0
3, 85632, Note_on_c, 0, 64, 64
3, 85677, Note_on_c, 0, 64, 0
3, 85680, Note_on_c, 0, 62, 64
3, 85725, Note_on_c, 0, 62, 0
3, 85728, Note_on_c, 0, 64, 64
3, 85773, Note_on_c, 0, 64, 0
3, 85776, Note_on_c, 0, 66, 64
3, 85821, Note_on_c, 0, 66, 0
3, 85824, Note_on_c, 0, 64, 64
3, 85869, Note_on_c, 0, 64, 0
3, 85872, Note_on_c, 0, 62, 64
3, 85917, Note_on_c, 0, 62, 0
3, 85920, Note_on_c, 0, 61, 64
3, 85965, Note_on_c, 0, 61, 0
3, 85968, Note_on_c, 0, 59, 64
3, 86013, Note_on_c, 0, 59, 0
3, 86016, Note_on_c, 0, 57, 64
3, 86105, Note_on_c, 0, 57, 0
3, 86112, Note_on_c, 0, 69, 64
3, 86289, Note_on_c, 0, 69, 0
3, 86304, Note_on_c, 0, 64, 64
3, 86489, Note_on_c, 0, 64, 0
3, 86496, Note_on_c, 0, 69, 64
3, 86585, Note_on_c, 0, 69, 0
3, 86592, Note_on_c, 0, 71, 64
3, 86637, Note_on_c, 0, 71, 0
3, 86640, Note_on_c, 0, 69, 64
3, 86685, Note_on_c, 0, 69, 0
3, 86688, Note_on_c, 0, 68, 64
3, 86733, Note_on_c, 0, 68, 0
3, 86736, Note_on_c, 0, 66, 64
3, 86781, Note_on_c, 0, 66, 0
3, 86784, Note_on_c, 0, 64, 64
3, 86873, Note_on_c, 0, 64, 0
3, 86880, Note_on_c, 0, 69, 64
3, 87057, Note_on_c, 0, 69, 0
3, 87072, Note_on_c, 0, 68, 64
3, 87161, Note_on_c, 0, 68, 0
3, 87168, Note_on_c, 0, 69, 64
3, 87257, Note_on_c, 0, 69, 0
3, 87264, Note_on_c, 0, 76, 64
3, 87309, Note_on_c, 0, 76, 0
3, 87312, Note_on_c, 0, 74, 64
3, 87357, Note_on_c, 0, 74, 0
3, 87360, Note_on_c, 0, 73, 64
3, 87405, Note_on_c, 0, 73, 0
3, 87408, Note_on_c, 0, 71, 64
3, 87453, Note_on_c, 0, 71, 0
3, 87456, Note_on_c, 0, 69, 64
3, 87501, Note_on_c, 0, 69, 0
3, 87504, Note_on_c, 0, 68, 64
3, 87549, Note_on_c, 0, 68, 0
3, 87552, Note_on_c, 0, 69, 64
3, 87685, Note_on_c, 0, 69, 0
3, 87696, Note_on_c, 0, 71, 64
3, 87741, Note_on_c, 0, 71, 0
3, 87744, Note_on_c, 0, 68, 64
3, 87877, Note_on_c, 0, 68, 0
3, 87888, Note_on_c, 0, 69, 64
3, 87933, Note_on_c, 0, 69, 0
3, 87936, Note_on_c, 0, 69, 64
3, 88290, Note_on_c, 0, 69, 0
3, 88290, End_track
4, 0, Start_track
4, 0, MIDI_port, 0
4, 0, Title_t, "Clavier (LH)"
4, 0, Program_c, 0, 6
4, 0, Control_c, 0, 7, 127
4, 0, Note_on_c, 0, 45, 64
4, 89, Note_on_c, 0, 45, 0
4, 96, Note_on_c, 0, 47, 64
4, 185, Note_on_c, 0, 47, 0
4, 192, Note_on_c, 0, 49, 64
4, 281, Note_on_c, 0, 49, 0
4, 288, Note_on_c, 0, 45, 64
4, 377, Note_on_c, 0, 45, 0
4, 384, Note_on_c, 0, 52, 64
4, 473, Note_on_c, 0, 52, 0
4, 480, Note_on_c, 0, 54, 64
4, 569, Note_on_c, 0, 54, 0
4, 576, Note_on_c, 0, 56, 64
4, 665, Note_on_c, 0, 56, 0
4, 672, Note_on_c, 0, 52, 64
4, 761, Note_on_c, 0, 52, 0
4, 768, Note_on_c, 0, 57, 64
4, 857, Note_on_c, 0, 57, 0
4, 864, Note_on_c, 0, 56, 64
4, 953, Note_on_c, 0, 56, 0
4, 960, Note_on_c, 0, 54, 64
4, 1137, Note_on_c, 0, 54, 0
4, 1152, Note_on_c, 0, 49, 64
4, 1329, Note_on_c, 0, 49, 0
4, 1344, Note_on_c, 0, 50, 64
4, 1433, Note_on_c, 0, 50, 0
4, 1440, Note_on_c, 0, 47, 64
4, 1529, Note_on_c, 0, 47, 0
4, 1536, Note_on_c, 0, 52, 64
4, 1625, Note_on_c, 0, 52, 0
4, 1632, Note_on_c, 0, 54, 64
4, 1721, Note_on_c, 0, 54, 0
4, 1728, Note_on_c, 0, 50, 64
4, 1817, Note_on_c, 0, 50, 0
4, 1824, Note_on_c, 0, 52, 64
4, 1913, Note_on_c, 0, 52, 0
4, 1920, Note_on_c, 0, 45, 64
4, 2009, Note_on_c, 0, 45, 0
4, 2016, Note_on_c, 0, 57, 64
4, 2105, Note_on_c, 0, 57, 0
4, 2112, Note_on_c, 0, 56, 64
4, 2201, Note_on_c, 0, 56, 0
4, 2208, Note_on_c, 0, 54, 64
4, 2297, Note_on_c, 0, 54, 0
4, 2304, Note_on_c, 0, 52, 64
4, 2393, Note_on_c, 0, 52, 0
4, 2400, Note_on_c, 0, 64, 64
4, 2489, Note_on_c, 0, 64, 0
4, 2496, Note_on_c, 0, 63, 64
4, 2585, Note_on_c, 0, 63, 0
4, 2592, Note_on_c, 0, 61, 64
4, 2681, Note_on_c, 0, 61, 0
4, 2688, Note_on_c, 0, 63, 64
4, 2777, Note_on_c, 0, 63, 0
4, 2784, Note_on_c, 0, 59, 64
4, 2873, Note_on_c, 0, 59, 0
4, 2880, Note_on_c, 0, 56, 64
4, 2969, Note_on_c, 0, 56, 0
4, 2976, Note_on_c, 0, 57, 64
4, 3021, Note_on_c, 0, 57, 0
4, 3024, Note_on_c, 0, 59, 64
4, 3069, Note_on_c, 0, 59, 0
4, 3072, Note_on_c, 0, 61, 64
4, 3161, Note_on_c, 0, 61, 0
4, 3168, Note_on_c, 0, 64, 64
4, 3257, Note_on_c, 0, 64, 0
4, 3264, Note_on_c, 0, 61, 64
4, 3353, Note_on_c, 0, 61, 0
4, 3360, Note_on_c, 0, 57, 64
4, 3449, Note_on_c, 0, 57, 0
4, 3456, Note_on_c, 0, 56, 64
4, 3545, Note_on_c, 0, 56, 0
4, 3552, Note_on_c, 0, 52, 64
4, 3641, Note_on_c, 0, 52, 0
4, 3648, Note_on_c, 0, 57, 64
4, 3737, Note_on_c, 0, 57, 0
4, 3744, Note_on_c, 0, 56, 64
4, 3833, Note_on_c, 0, 56, 0
4, 3840, Note_on_c, 0, 54, 64
4, 3929, Note_on_c, 0, 54, 0
4, 3936, Note_on_c, 0, 56, 64
4, 4025, Note_on_c, 0, 56, 0
4, 4032, Note_on_c, 0, 57, 64
4, 4121, Note_on_c, 0, 57, 0
4, 4128, Note_on_c, 0, 59, 64
4, 4217, Note_on_c, 0, 59, 0
4, 4224, Note_on_c, 0, 64, 64
4, 4313, Note_on_c, 0, 64, 0
4, 4320, Note_on_c, 0, 52, 64
4, 4409, Note_on_c, 0, 52, 0
4, 4416, Note_on_c, 0, 54, 64
4, 4505, Note_on_c, 0, 54, 0
4, 4512, Note_on_c, 0, 56, 64
4, 4601, Note_on_c, 0, 56, 0
4, 4608, Note_on_c, 0, 57, 64
4, 4785, Note_on_c, 0, 57, 0
4, 4800, Note_on_c, 0, 52, 64
4, 4889, Note_on_c, 0, 52, 0
4, 4896, Note_on_c, 0, 57, 64
4, 4985, Note_on_c, 0, 57, 0
4, 4992, Note_on_c, 0, 59, 64
4, 5037, Note_on_c, 0, 59, 0
4, 5040, Note_on_c, 0, 57, 64
4, 5085, Note_on_c, 0, 57, 0
4, 5088, Note_on_c, 0, 56, 64
4, 5133, Note_on_c, 0, 56, 0
4, 5136, Note_on_c, 0, 54, 64
4, 5181, Note_on_c, 0, 54, 0
4, 5184, Note_on_c, 0, 52, 64
4, 5273, Note_on_c, 0, 52, 0
4, 5280, Note_on_c, 0, 59, 64
4, 5369, Note_on_c, 0, 59, 0
4, 5376, Note_on_c, 0, 61, 64
4, 5400, Note_on_c, 0, 61, 0
4, 5400, Note_on_c, 0, 62, 64
4, 5424, Note_on_c, 0, 62, 0
4, 5424, Note_on_c, 0, 61, 64
4, 5469, Note_on_c, 0, 61, 0
4, 5472, Note_on_c, 0, 59, 64
4, 5517, Note_on_c, 0, 59, 0
4, 5520, Note_on_c, 0, 61, 64
4, 5565, Note_on_c, 0, 61, 0
4, 5568, Note_on_c, 0, 62, 64
4, 5613, Note_on_c, 0, 62, 0
4, 5616, Note_on_c, 0, 61, 64
4, 5661, Note_on_c, 0, 61, 0
4, 5664, Note_on_c, 0, 59, 64
4, 5709, Note_on_c, 0, 59, 0
4, 5712, Note_on_c, 0, 57, 64
4, 5757, Note_on_c, 0, 57, 0
4, 5760, Note_on_c, 0, 64, 64
4, 5805, Note_on_c, 0, 64, 0
4, 5808, Note_on_c, 0, 62, 64
4, 5853, Note_on_c, 0, 62, 0
4, 5856, Note_on_c, 0, 61, 64
4, 5901, Note_on_c, 0, 61, 0
4, 5904, Note_on_c, 0, 59, 64
4, 5949, Note_on_c, 0, 59, 0
4, 5952, Note_on_c, 0, 57, 64
4, 6041, Note_on_c, 0, 57, 0
4, 6048, Note_on_c, 0, 62, 64
4, 6233, Note_on_c, 0, 62, 0
4, 6240, Note_on_c, 0, 61, 64
4, 6329, Note_on_c, 0, 61, 0
4, 6336, Note_on_c, 0, 59, 64
4, 6425, Note_on_c, 0, 59, 0
4, 6432, Note_on_c, 0, 64, 64
4, 6521, Note_on_c, 0, 64, 0
4, 6528, Note_on_c, 0, 57, 64
4, 6573, Note_on_c, 0, 57, 0
4, 6576, Note_on_c, 0, 56, 64
4, 6621, Note_on_c, 0, 56, 0
4, 6624, Note_on_c, 0, 57, 64
4, 6669, Note_on_c, 0, 57, 0
4, 6672, Note_on_c, 0, 59, 64
4, 6717, Note_on_c, 0, 59, 0
4, 6720, Note_on_c, 0, 61, 64
4, 6765, Note_on_c, 0, 61, 0
4, 6768, Note_on_c, 0, 59, 64
4, 6813, Note_on_c, 0, 59, 0
4, 6816, Note_on_c, 0, 61, 64
4, 6861, Note_on_c, 0, 61, 0
4, 6864, Note_on_c, 0, 62, 64
4, 6909, Note_on_c, 0, 62, 0
4, 6912, Note_on_c, 0, 64, 64
4, 7001, Note_on_c, 0, 64, 0
4, 7008, Note_on_c, 0, 52, 64
4, 7053, Note_on_c, 0, 52, 0
4, 7056, Note_on_c, 0, 54, 64
4, 7101, Note_on_c, 0, 54, 0
4, 7104, Note_on_c, 0, 56, 64
4, 7193, Note_on_c, 0, 56, 0
4, 7200, Note_on_c, 0, 52, 64
4, 7289, Note_on_c, 0, 52, 0
4, 7296, Note_on_c, 0, 57, 64
4, 7385, Note_on_c, 0, 57, 0
4, 7392, Note_on_c, 0, 59, 64
4, 7437, Note_on_c, 0, 59, 0
4, 7440, Note_on_c, 0, 61, 64
4, 7485, Note_on_c, 0, 61, 0
4, 7488, Note_on_c, 0, 62, 64
4, 7577, Note_on_c, 0, 62, 0
4, 7584, Note_on_c, 0, 61, 64
4, 7673, Note_on_c, 0, 61, 0
4, 7680, Note_on_c, 0, 59, 64
4, 7769, Note_on_c, 0, 59, 0
4, 7776, Note_on_c, 0, 57, 64
4, 7865, Note_on_c, 0, 57, 0
4, 7872, Note_on_c, 0, 56, 64
4, 7961, Note_on_c, 0, 56, 0
4, 7968, Note_on_c, 0, 61, 64
4, 8057, Note_on_c, 0, 61, 0
4, 8064, Note_on_c, 0, 54, 64
4, 8153, Note_on_c, 0, 54, 0
4, 8160, Note_on_c, 0, 56, 64
4, 8205, Note_on_c, 0, 56, 0
4, 8208, Note_on_c, 0, 57, 64
4, 8253, Note_on_c, 0, 57, 0
4, 8256, Note_on_c, 0, 59, 64
4, 8345, Note_on_c, 0, 59, 0
4, 8352, Note_on_c, 0, 57, 64
4, 8441, Note_on_c, 0, 57, 0
4, 8448, Note_on_c, 0, 56, 64
4, 8537, Note_on_c, 0, 56, 0
4, 8544, Note_on_c, 0, 52, 64
4, 8633, Note_on_c, 0, 52, 0
4, 8640, Note_on_c, 0, 57, 64
4, 8729, Note_on_c, 0, 57, 0
4, 8736, Note_on_c, 0, 45, 64
4, 8825, Note_on_c, 0, 45, 0
4, 8832, Note_on_c, 0, 50, 64
4, 8921, Note_on_c, 0, 50, 0
4, 8928, Note_on_c, 0, 49, 64
4, 9017, Note_on_c, 0, 49, 0
4, 9024, Note_on_c, 0, 50, 64
4, 9113, Note_on_c, 0, 50, 0
4, 9120, Note_on_c, 0, 47, 64
4, 9209, Note_on_c, 0, 47, 0
4, 9216, Note_on_c, 0, 52, 64
4, 9305, Note_on_c, 0, 52, 0
4, 9312, Note_on_c, 0, 50, 64
4, 9401, Note_on_c, 0, 50, 0
4, 9408, Note_on_c, 0, 49, 64
4, 9497, Note_on_c, 0, 49, 0
4, 9504, Note_on_c, 0, 54, 64
4, 9593, Note_on_c, 0, 54, 0
4, 9600, Note_on_c, 0, 47, 64
4, 9777, Note_on_c, 0, 47, 0
4, 9792, Note_on_c, 0, 52, 64
4, 9969, Note_on_c, 0, 52, 0
4, 9984, Note_on_c, 0, 45, 64
4, 10073, Note_on_c, 0, 45, 0
4, 10080, Note_on_c, 0, 57, 64
4, 10169, Note_on_c, 0, 57, 0
4, 10176, Note_on_c, 0, 56, 64
4, 10265, Note_on_c, 0, 56, 0
4, 10272, Note_on_c, 0, 54, 64
4, 10361, Note_on_c, 0, 54, 0
4, 10368, Note_on_c, 0, 56, 64
4, 10457, Note_on_c, 0, 56, 0
4, 10464, Note_on_c, 0, 54, 64
4, 10509, Note_on_c, 0, 54, 0
4, 10512, Note_on_c, 0, 56, 64
4, 10557, Note_on_c, 0, 56, 0
4, 10560, Note_on_c, 0, 57, 64
4, 10605, Note_on_c, 0, 57, 0
4, 10608, Note_on_c, 0, 56, 64
4, 10653, Note_on_c, 0, 56, 0
4, 10656, Note_on_c, 0, 54, 64
4, 10701, Note_on_c, 0, 54, 0
4, 10704, Note_on_c, 0, 52, 64
4, 10749, Note_on_c, 0, 52, 0
4, 10752, Note_on_c, 0, 57, 64
4, 10929, Note_on_c, 0, 57, 0
4, 10944, Note_on_c, 0, 45, 64
4, 11033, Note_on_c, 0, 45, 0
4, 11040, Note_on_c, 0, 47, 64
4, 11129, Note_on_c, 0, 47, 0
4, 11136, Note_on_c, 0, 49, 64
4, 11225, Note_on_c, 0, 49, 0
4, 11232, Note_on_c, 0, 50, 64
4, 11277, Note_on_c, 0, 50, 0
4, 11280, Note_on_c, 0, 52, 64
4, 11325, Note_on_c, 0, 52, 0
4, 11328, Note_on_c, 0, 54, 64
4, 11373, Note_on_c, 0, 54, 0
4, 11376, Note_on_c, 0, 52, 64
4, 11421, Note_on_c, 0, 52, 0
4, 11424, Note_on_c, 0, 50, 64
4, 11469, Note_on_c, 0, 50, 0
4, 11472, Note_on_c, 0, 49, 64
4, 11517, Note_on_c, 0, 49, 0
4, 11520, Note_on_c, 0, 47, 64
4, 11609, Note_on_c, 0, 47, 0
4, 11616, Note_on_c, 0, 49, 64
4, 11705, Note_on_c, 0, 49, 0
4, 11712, Note_on_c, 0, 50, 64
4, 11801, Note_on_c, 0, 50, 0
4, 11808, Note_on_c, 0, 52, 64
4, 11897, Note_on_c, 0, 52, 0
4, 11904, Note_on_c, 0, 45, 64
4, 11993, Note_on_c, 0, 45, 0
4, 12000, Note_on_c, 0, 57, 64
4, 12089, Note_on_c, 0, 57, 0
4, 12096, Note_on_c, 0, 56, 64
4, 12185, Note_on_c, 0, 56, 0
4, 12192, Note_on_c, 0, 54, 64
4, 12281, Note_on_c, 0, 54, 0
4, 12288, Note_on_c, 0, 52, 64
4, 12377, Note_on_c, 0, 52, 0
4, 12384, Note_on_c, 0, 64, 64
4, 12473, Note_on_c, 0, 64, 0
4, 12480, Note_on_c, 0, 63, 64
4, 12569, Note_on_c, 0, 63, 0
4, 12576, Note_on_c, 0, 61, 64
4, 12665, Note_on_c, 0, 61, 0
4, 12672, Note_on_c, 0, 63, 64
4, 12761, Note_on_c, 0, 63, 0
4, 12768, Note_on_c, 0, 61, 64
4, 12813, Note_on_c, 0, 61, 0
4, 12816, Note_on_c, 0, 63, 64
4, 12861, Note_on_c, 0, 63, 0
4, 12864, Note_on_c, 0, 64, 64
4, 12909, Note_on_c, 0, 64, 0
4, 12912, Note_on_c, 0, 63, 64
4, 12957, Note_on_c, 0, 63, 0
4, 12960, Note_on_c, 0, 61, 64
4, 13005, Note_on_c, 0, 61, 0
4, 13008, Note_on_c, 0, 59, 64
4, 13053, Note_on_c, 0, 59, 0
4, 13056, Note_on_c, 0, 64, 64
4, 13233, Note_on_c, 0, 64, 0
4, 13248, Note_on_c, 0, 52, 64
4, 13337, Note_on_c, 0, 52, 0
4, 13344, Note_on_c, 0, 54, 64
4, 13433, Note_on_c, 0, 54, 0
4, 13440, Note_on_c, 0, 56, 64
4, 13529, Note_on_c, 0, 56, 0
4, 13536, Note_on_c, 0, 57, 64
4, 13581, Note_on_c, 0, 57, 0
4, 13584, Note_on_c, 0, 59, 64
4, 13629, Note_on_c, 0, 59, 0
4, 13632, Note_on_c, 0, 61, 64
4, 13677, Note_on_c, 0, 61, 0
4, 13680, Note_on_c, 0, 59, 64
4, 13725, Note_on_c, 0, 59, 0
4, 13728, Note_on_c, 0, 57, 64
4, 13773, Note_on_c, 0, 57, 0
4, 13776, Note_on_c, 0, 56, 64
4, 13821, Note_on_c, 0, 56, 0
4, 13824, Note_on_c, 0, 54, 64
4, 13913, Note_on_c, 0, 54, 0
4, 13920, Note_on_c, 0, 56, 64
4, 14009, Note_on_c, 0, 56, 0
4, 14016, Note_on_c, 0, 57, 64
4, 14105, Note_on_c, 0, 57, 0
4, 14112, Note_on_c, 0, 59, 64
4, 14201, Note_on_c, 0, 59, 0
4, 14208, Note_on_c, 0, 52, 64
4, 14297, Note_on_c, 0, 52, 0
4, 14304, Note_on_c, 0, 54, 64
4, 14393, Note_on_c, 0, 54, 0
4, 14400, Note_on_c, 0, 56, 64
4, 14489, Note_on_c, 0, 56, 0
4, 14496, Note_on_c, 0, 52, 64
4, 14585, Note_on_c, 0, 52, 0
4, 14592, Note_on_c, 0, 57, 64
4, 14681, Note_on_c, 0, 57, 0
4, 14688, Note_on_c, 0, 56, 64
4, 14777, Note_on_c, 0, 56, 0
4, 14784, Note_on_c, 0, 54, 64
4, 14873, Note_on_c, 0, 54, 0
4, 14880, Note_on_c, 0, 59, 64
4, 14969, Note_on_c, 0, 59, 0
4, 14976, Note_on_c, 0, 52, 64
4, 15065, Note_on_c, 0, 52, 0
4, 15072, Note_on_c, 0, 54, 64
4, 15117, Note_on_c, 0, 54, 0
4, 15120, Note_on_c, 0, 56, 64
4, 15165, Note_on_c, 0, 56, 0
4, 15168, Note_on_c, 0, 57, 64
4, 15257, Note_on_c, 0, 57, 0
4, 15264, Note_on_c, 0, 56, 64
4, 15353, Note_on_c, 0, 56, 0
4, 15360, Note_on_c, 0, 54, 64
4, 15449, Note_on_c, 0, 54, 0
4, 15456, Note_on_c, 0, 52, 64
4, 15545, Note_on_c, 0, 52, 0
4, 15552, Note_on_c, 0, 51, 64
4, 15641, Note_on_c, 0, 51, 0
4, 15648, Note_on_c, 0, 56, 64
4, 15737, Note_on_c, 0, 56, 0
4, 15744, Note_on_c, 0, 49, 64
4, 15833, Note_on_c, 0, 49, 0
4, 15840, Note_on_c, 0, 51, 64
4, 15885, Note_on_c, 0, 51, 0
4, 15888, Note_on_c, 0, 52, 64
4, 15933, Note_on_c, 0, 52, 0
4, 15936, Note_on_c, 0, 54, 64
4, 16025, Note_on_c, 0, 54, 0
4, 16032, Note_on_c, 0, 52, 64
4, 16121, Note_on_c, 0, 52, 0
4, 16128, Note_on_c, 0, 50, 64
4, 16217, Note_on_c, 0, 50, 0
4, 16224, Note_on_c, 0, 47, 64
4, 16313, Note_on_c, 0, 47, 0
4, 16320, Note_on_c, 0, 52, 64
4, 16409, Note_on_c, 0, 52, 0
4, 16416, Note_on_c, 0, 40, 64
4, 16505, Note_on_c, 0, 40, 0
4, 16512, Note_on_c, 0, 45, 64
4, 16601, Note_on_c, 0, 45, 0
4, 16608, Note_on_c, 0, 44, 64
4, 16697, Note_on_c, 0, 44, 0
4, 16704, Note_on_c, 0, 45, 64
4, 16793, Note_on_c, 0, 45, 0
4, 16800, Note_on_c, 0, 42, 64
4, 16889, Note_on_c, 0, 42, 0
4, 16896, Note_on_c, 0, 47, 64
4, 16985, Note_on_c, 0, 47, 0
4, 16992, Note_on_c, 0, 45, 64
4, 17081, Note_on_c, 0, 45, 0
4, 17088, Note_on_c, 0, 44, 64
4, 17177, Note_on_c, 0, 44, 0
4, 17184, Note_on_c, 0, 49, 64
4, 17273, Note_on_c, 0, 49, 0
4, 17280, Note_on_c, 0, 42, 64
4, 17457, Note_on_c, 0, 42, 0
4, 17472, Note_on_c, 0, 47, 64
4, 17649, Note_on_c, 0, 47, 0
4, 17664, Note_on_c, 0, 40, 64
4, 17753, Note_on_c, 0, 40, 0
4, 17760, Note_on_c, 0, 45, 64
4, 17849, Note_on_c, 0, 45, 0
4, 17856, Note_on_c, 0, 47, 64
4, 17945, Note_on_c, 0, 47, 0
4, 17952, Note_on_c, 0, 47, 64
4, 18041, Note_on_c, 0, 47, 0
4, 18048, Note_on_c, 0, 40, 64
4, 18137, Note_on_c, 0, 40, 0
4, 18144, Note_on_c, 0, 52, 64
4, 18189, Note_on_c, 0, 52, 0
4, 18192, Note_on_c, 0, 54, 64
4, 18237, Note_on_c, 0, 54, 0
4, 18240, Note_on_c, 0, 52, 64
4, 18285, Note_on_c, 0, 52, 0
4, 18288, Note_on_c, 0, 50, 64
4, 18333, Note_on_c, 0, 50, 0
4, 18336, Note_on_c, 0, 49, 64
4, 18381, Note_on_c, 0, 49, 0
4, 18384, Note_on_c, 0, 47, 64
4, 18429, Note_on_c, 0, 47, 0
4, 18432, Note_on_c, 0, 45, 64
4, 18521, Note_on_c, 0, 45, 0
4, 18528, Note_on_c, 0, 47, 64
4, 18617, Note_on_c, 0, 47, 0
4, 18624, Note_on_c, 0, 49, 64
4, 18713, Note_on_c, 0, 49, 0
4, 18720, Note_on_c, 0, 45, 64
4, 18809, Note_on_c, 0, 45, 0
4, 18816, Note_on_c, 0, 52, 64
4, 18905, Note_on_c, 0, 52, 0
4, 18912, Note_on_c, 0, 54, 64
4, 19001, Note_on_c, 0, 54, 0
4, 19008, Note_on_c, 0, 56, 64
4, 19097, Note_on_c, 0, 56, 0
4, 19104, Note_on_c, 0, 52, 64
4, 19193, Note_on_c, 0, 52, 0
4, 19200, Note_on_c, 0, 57, 64
4, 19289, Note_on_c, 0, 57, 0
4, 19296, Note_on_c, 0, 56, 64
4, 19385, Note_on_c, 0, 56, 0
4, 19392, Note_on_c, 0, 54, 64
4, 19569, Note_on_c, 0, 54, 0
4, 19584, Note_on_c, 0, 49, 64
4, 19761, Note_on_c, 0, 49, 0
4, 19776, Note_on_c, 0, 50, 64
4, 19865, Note_on_c, 0, 50, 0
4, 19872, Note_on_c, 0, 47, 64
4, 19961, Note_on_c, 0, 47, 0
4, 19968, Note_on_c, 0, 52, 64
4, 20057, Note_on_c, 0, 52, 0
4, 20064, Note_on_c, 0, 54, 64
4, 20153, Note_on_c, 0, 54, 0
4, 20160, Note_on_c, 0, 50, 64
4, 20249, Note_on_c, 0, 50, 0
4, 20256, Note_on_c, 0, 52, 64
4, 20345, Note_on_c, 0, 52, 0
4, 20352, Note_on_c, 0, 45, 64
4, 20441, Note_on_c, 0, 45, 0
4, 20448, Note_on_c, 0, 57, 64
4, 20537, Note_on_c, 0, 57, 0
4, 20544, Note_on_c, 0, 56, 64
4, 20633, Note_on_c, 0, 56, 0
4, 20640, Note_on_c, 0, 54, 64
4, 20729, Note_on_c, 0, 54, 0
4, 20736, Note_on_c, 0, 52, 64
4, 20825, Note_on_c, 0, 52, 0
4, 20832, Note_on_c, 0, 64, 64
4, 20921, Note_on_c, 0, 64, 0
4, 20928, Note_on_c, 0, 63, 64
4, 21017, Note_on_c, 0, 63, 0
4, 21024, Note_on_c, 0, 61, 64
4, 21113, Note_on_c, 0, 61, 0
4, 21120, Note_on_c, 0, 63, 64
4, 21209, Note_on_c, 0, 63, 0
4, 21216, Note_on_c, 0, 59, 64
4, 21305, Note_on_c, 0, 59, 0
4, 21312, Note_on_c, 0, 56, 64
4, 21401, Note_on_c, 0, 56, 0
4, 21408, Note_on_c, 0, 57, 64
4, 21453, Note_on_c, 0, 57, 0
4, 21456, Note_on_c, 0, 59, 64
4, 21501, Note_on_c, 0, 59, 0
4, 21504, Note_on_c, 0, 61, 64
4, 21593, Note_on_c, 0, 61, 0
4, 21600, Note_on_c, 0, 64, 64
4, 21689, Note_on_c, 0, 64, 0
4, 21696, Note_on_c, 0, 61, 64
4, 21785, Note_on_c, 0, 61, 0
4, 21792, Note_on_c, 0, 57, 64
4, 21881, Note_on_c, 0, 57, 0
4, 21888, Note_on_c, 0, 56, 64
4, 21977, Note_on_c, 0, 56, 0
4, 21984, Note_on_c, 0, 52, 64
4, 22073, Note_on_c, 0, 52, 0
4, 22080, Note_on_c, 0, 57, 64
4, 22169, Note_on_c, 0, 57, 0
4, 22176, Note_on_c, 0, 56, 64
4, 22265, Note_on_c, 0, 56, 0
4, 22272, Note_on_c, 0, 54, 64
4, 22361, Note_on_c, 0, 54, 0
4, 22368, Note_on_c, 0, 56, 64
4, 22457, Note_on_c, 0, 56, 0
4, 22464, Note_on_c, 0, 57, 64
4, 22553, Note_on_c, 0, 57, 0
4, 22560, Note_on_c, 0, 59, 64
4, 22649, Note_on_c, 0, 59, 0
4, 22656, Note_on_c, 0, 64, 64
4, 22745, Note_on_c, 0, 64, 0
4, 22752, Note_on_c, 0, 52, 64
4, 22841, Note_on_c, 0, 52, 0
4, 22848, Note_on_c, 0, 54, 64
4, 22937, Note_on_c, 0, 54, 0
4, 22944, Note_on_c, 0, 56, 64
4, 23033, Note_on_c, 0, 56, 0
4, 23040, Note_on_c, 0, 57, 64
4, 23217, Note_on_c, 0, 57, 0
4, 23232, Note_on_c, 0, 52, 64
4, 23321, Note_on_c, 0, 52, 0
4, 23328, Note_on_c, 0, 57, 64
4, 23417, Note_on_c, 0, 57, 0
4, 23424, Note_on_c, 0, 59, 64
4, 23469, Note_on_c, 0, 59, 0
4, 23472, Note_on_c, 0, 57, 64
4, 23517, Note_on_c, 0, 57, 0
4, 23520, Note_on_c, 0, 56, 64
4, 23565, Note_on_c, 0, 56, 0
4, 23568, Note_on_c, 0, 54, 64
4, 23613, Note_on_c, 0, 54, 0
4, 23616, Note_on_c, 0, 52, 64
4, 23705, Note_on_c, 0, 52, 0
4, 23712, Note_on_c, 0, 59, 64
4, 23801, Note_on_c, 0, 59, 0
4, 23808, Note_on_c, 0, 61, 64
4, 23832, Note_on_c, 0, 61, 0
4, 23832, Note_on_c, 0, 62, 64
4, 23856, Note_on_c, 0, 62, 0
4, 23856, Note_on_c, 0, 61, 64
4, 23901, Note_on_c, 0, 61, 0
4, 23904, Note_on_c, 0, 59, 64
4, 23949, Note_on_c, 0, 59, 0
4, 23952, Note_on_c, 0, 61, 64
4, 23997, Note_on_c, 0, 61, 0
4, 24000, Note_on_c, 0, 62, 64
4, 24045, Note_on_c, 0, 62, 0
4, 24048, Note_on_c, 0, 61, 64
4, 24093, Note_on_c, 0, 61, 0
4, 24096, Note_on_c, 0, 59, 64
4, 24141, Note_on_c, 0, 59, 0
4, 24144, Note_on_c, 0, 57, 64
4, 24189, Note_on_c, 0, 57, 0
4, 24192, Note_on_c, 0, 64, 64
4, 24237, Note_on_c, 0, 64, 0
4, 24240, Note_on_c, 0, 62, 64
4, 24285, Note_on_c, 0, 62, 0
4, 24288, Note_on_c, 0, 61, 64
4, 24333, Note_on_c, 0, 61, 0
4, 24336, Note_on_c, 0, 59, 64
4, 24381, Note_on_c, 0, 59, 0
4, 24384, Note_on_c, 0, 57, 64
4, 24473, Note_on_c, 0, 57, 0
4, 24480, Note_on_c, 0, 62, 64
4, 24665, Note_on_c, 0, 62, 0
4, 24672, Note_on_c, 0, 61, 64
4, 24761, Note_on_c, 0, 61, 0
4, 24768, Note_on_c, 0, 59, 64
4, 24857, Note_on_c, 0, 59, 0
4, 24864, Note_on_c, 0, 64, 64
4, 24953, Note_on_c, 0, 64, 0
4, 24960, Note_on_c, 0, 57, 64
4, 25005, Note_on_c, 0, 57, 0
4, 25008, Note_on_c, 0, 56, 64
4, 25053, Note_on_c, 0, 56, 0
4, 25056, Note_on_c, 0, 57, 64
4, 25101, Note_on_c, 0, 57, 0
4, 25104, Note_on_c, 0, 59, 64
4, 25149, Note_on_c, 0, 59, 0
4, 25152, Note_on_c, 0, 61, 64
4, 25197, Note_on_c, 0, 61, 0
4, 25200, Note_on_c, 0, 59, 64
4, 25245, Note_on_c, 0, 59, 0
4, 25248, Note_on_c, 0, 61, 64
4, 25293, Note_on_c, 0, 61, 0
4, 25296, Note_on_c, 0, 62, 64
4, 25341, Note_on_c, 0, 62, 0
4, 25344, Note_on_c, 0, 64, 64
4, 25433, Note_on_c, 0, 64, 0
4, 25440, Note_on_c, 0, 52, 64
4, 25485, Note_on_c, 0, 52, 0
4, 25488, Note_on_c, 0, 54, 64
4, 25533, Note_on_c, 0, 54, 0
4, 25536, Note_on_c, 0, 56, 64
4, 25625, Note_on_c, 0, 56, 0
4, 25632, Note_on_c, 0, 52, 64
4, 25721, Note_on_c, 0, 52, 0
4, 25728, Note_on_c, 0, 57, 64
4, 25817, Note_on_c, 0, 57, 0
4, 25824, Note_on_c, 0, 59, 64
4, 25869, Note_on_c, 0, 59, 0
4, 25872, Note_on_c, 0, 61, 64
4, 25917, Note_on_c, 0, 61, 0
4, 25920, Note_on_c, 0, 62, 64
4, 26009, Note_on_c, 0, 62, 0
4, 26016, Note_on_c, 0, 61, 64
4, 26105, Note_on_c, 0, 61, 0
4, 26112, Note_on_c, 0, 59, 64
4, 26201, Note_on_c, 0, 59, 0
4, 26208, Note_on_c, 0, 57, 64
4, 26297, Note_on_c, 0, 57, 0
4, 26304, Note_on_c, 0, 56, 64
4, 26393, Note_on_c, 0, 56, 0
4, 26400, Note_on_c, 0, 61, 64
4, 26489, Note_on_c, 0, 61, 0
4, 26496, Note_on_c, 0, 54, 64
4, 26585, Note_on_c, 0, 54, 0
4, 26592, Note_on_c, 0, 56, 64
4, 26637, Note_on_c, 0, 56, 0
4, 26640, Note_on_c, 0, 57, 64
4, 26685, Note_on_c, 0, 57, 0
4, 26688, Note_on_c, 0, 59, 64
4, 26777, Note_on_c, 0, 59, 0
4, 26784, Note_on_c, 0, 57, 64
4, 26873, Note_on_c, 0, 57, 0
4, 26880, Note_on_c, 0, 56, 64
4, 26969, Note_on_c, 0, 56, 0
4, 26976, Note_on_c, 0, 52, 64
4, 27065, Note_on_c, 0, 52, 0
4, 27072, Note_on_c, 0, 57, 64
4, 27161, Note_on_c, 0, 57, 0
4, 27168, Note_on_c, 0, 45, 64
4, 27257, Note_on_c, 0, 45, 0
4, 27264, Note_on_c, 0, 50, 64
4, 27353, Note_on_c, 0, 50, 0
4, 27360, Note_on_c, 0, 49, 64
4, 27449, Note_on_c, 0, 49, 0
4, 27456, Note_on_c, 0, 50, 64
4, 27545, Note_on_c, 0, 50, 0
4, 27552, Note_on_c, 0, 47, 64
4, 27641, Note_on_c, 0, 47, 0
4, 27648, Note_on_c, 0, 52, 64
4, 27737, Note_on_c, 0, 52, 0
4, 27744, Note_on_c, 0, 50, 64
4, 27833, Note_on_c, 0, 50, 0
4, 27840, Note_on_c, 0, 49, 64
4, 27929, Note_on_c, 0, 49, 0
4, 27936, Note_on_c, 0, 54, 64
4, 28025, Note_on_c, 0, 54, 0
4, 28032, Note_on_c, 0, 47, 64
4, 28209, Note_on_c, 0, 47, 0
4, 28224, Note_on_c, 0, 52, 64
4, 28401, Note_on_c, 0, 52, 0
4, 28416, Note_on_c, 0, 45, 64
4, 28505, Note_on_c, 0, 45, 0
4, 28512, Note_on_c, 0, 57, 64
4, 28601, Note_on_c, 0, 57, 0
4, 28608, Note_on_c, 0, 56, 64
4, 28697, Note_on_c, 0, 56, 0
4, 28704, Note_on_c, 0, 54, 64
4, 28793, Note_on_c, 0, 54, 0
4, 28800, Note_on_c, 0, 56, 64
4, 28889, Note_on_c, 0, 56, 0
4, 28896, Note_on_c, 0, 54, 64
4, 28941, Note_on_c, 0, 54, 0
4, 28944, Note_on_c, 0, 56, 64
4, 28989, Note_on_c, 0, 56, 0
4, 28992, Note_on_c, 0, 57, 64
4, 29037, Note_on_c, 0, 57, 0
4, 29040, Note_on_c, 0, 56, 64
4, 29085, Note_on_c, 0, 56, 0
4, 29088, Note_on_c, 0, 54, 64
4, 29133, Note_on_c, 0, 54, 0
4, 29136, Note_on_c, 0, 52, 64
4, 29181, Note_on_c, 0, 52, 0
4, 29184, Note_on_c, 0, 57, 64
4, 29361, Note_on_c, 0, 57, 0
4, 29376, Note_on_c, 0, 45, 64
4, 29465, Note_on_c, 0, 45, 0
4, 29472, Note_on_c, 0, 47, 64
4, 29561, Note_on_c, 0, 47, 0
4, 29568, Note_on_c, 0, 49, 64
4, 29657, Note_on_c, 0, 49, 0
4, 29664, Note_on_c, 0, 50, 64
4, 29709, Note_on_c, 0, 50, 0
4, 29712, Note_on_c, 0, 52, 64
4, 29757, Note_on_c, 0, 52, 0
4, 29760, Note_on_c, 0, 54, 64
4, 29805, Note_on_c, 0, 54, 0
4, 29808, Note_on_c, 0, 52, 64
4, 29853, Note_on_c, 0, 52, 0
4, 29856, Note_on_c, 0, 50, 64
4, 29901, Note_on_c, 0, 50, 0
4, 29904, Note_on_c, 0, 49, 64
4, 29949, Note_on_c, 0, 49, 0
4, 29952, Note_on_c, 0, 47, 64
4, 30041, Note_on_c, 0, 47, 0
4, 30048, Note_on_c, 0, 49, 64
4, 30137, Note_on_c, 0, 49, 0
4, 30144, Note_on_c, 0, 50, 64
4, 30233, Note_on_c, 0, 50, 0
4, 30240, Note_on_c, 0, 52, 64
4, 30329, Note_on_c, 0, 52, 0
4, 30336, Note_on_c, 0, 45, 64
4, 30425, Note_on_c, 0, 45, 0
4, 30432, Note_on_c, 0, 57, 64
4, 30521, Note_on_c, 0, 57, 0
4, 30528, Note_on_c, 0, 56, 64
4, 30617, Note_on_c, 0, 56, 0
4, 30624, Note_on_c, 0, 54, 64
4, 30713, Note_on_c, 0, 54, 0
4, 30720, Note_on_c, 0, 52, 64
4, 30809, Note_on_c, 0, 52, 0
4, 30816, Note_on_c, 0, 64, 64
4, 30905, Note_on_c, 0, 64, 0
4, 30912, Note_on_c, 0, 63, 64
4, 31001, Note_on_c, 0, 63, 0
4, 31008, Note_on_c, 0, 61, 64
4, 31097, Note_on_c, 0, 61, 0
4, 31104, Note_on_c, 0, 63, 64
4, 31193, Note_on_c, 0, 63, 0
4, 31200, Note_on_c, 0, 61, 64
4, 31245, Note_on_c, 0, 61, 0
4, 31248, Note_on_c, 0, 63, 64
4, 31293, Note_on_c, 0, 63, 0
4, 31296, Note_on_c, 0, 64, 64
4, 31341, Note_on_c, 0, 64, 0
4, 31344, Note_on_c, 0, 63, 64
4, 31389, Note_on_c, 0, 63, 0
4, 31392, Note_on_c, 0, 61, 64
4, 31437, Note_on_c, 0, 61, 0
4, 31440, Note_on_c, 0, 59, 64
4, 31485, Note_on_c, 0, 59, 0
4, 31488, Note_on_c, 0, 64, 64
4, 31665, Note_on_c, 0, 64, 0
4, 31680, Note_on_c, 0, 52, 64
4, 31769, Note_on_c, 0, 52, 0
4, 31776, Note_on_c, 0, 54, 64
4, 31865, Note_on_c, 0, 54, 0
4, 31872, Note_on_c, 0, 56, 64
4, 31961, Note_on_c, 0, 56, 0
4, 31968, Note_on_c, 0, 57, 64
4, 32013, Note_on_c, 0, 57, 0
4, 32016, Note_on_c, 0, 59, 64
4, 32061, Note_on_c, 0, 59, 0
4, 32064, Note_on_c, 0, 61, 64
4, 32109, Note_on_c, 0, 61, 0
4, 32112, Note_on_c, 0, 59, 64
4, 32157, Note_on_c, 0, 59, 0
4, 32160, Note_on_c, 0, 57, 64
4, 32205, Note_on_c, 0, 57, 0
4, 32208, Note_on_c, 0, 56, 64
4, 32253, Note_on_c, 0, 56, 0
4, 32256, Note_on_c, 0, 54, 64
4, 32345, Note_on_c, 0, 54, 0
4, 32352, Note_on_c, 0, 56, 64
4, 32441, Note_on_c, 0, 56, 0
4, 32448, Note_on_c, 0, 57, 64
4, 32537, Note_on_c, 0, 57, 0
4, 32544, Note_on_c, 0, 59, 64
4, 32633, Note_on_c, 0, 59, 0
4, 32640, Note_on_c, 0, 52, 64
4, 32729, Note_on_c, 0, 52, 0
4, 32736, Note_on_c, 0, 54, 64
4, 32825, Note_on_c, 0, 54, 0
4, 32832, Note_on_c, 0, 56, 64
4, 32921, Note_on_c, 0, 56, 0
4, 32928, Note_on_c, 0, 52, 64
4, 33017, Note_on_c, 0, 52, 0
4, 33024, Note_on_c, 0, 57, 64
4, 33113, Note_on_c, 0, 57, 0
4, 33120, Note_on_c, 0, 56, 64
4, 33209, Note_on_c, 0, 56, 0
4, 33216, Note_on_c, 0, 54, 64
4, 33305, Note_on_c, 0, 54, 0
4, 33312, Note_on_c, 0, 59, 64
4, 33401, Note_on_c, 0, 59, 0
4, 33408, Note_on_c, 0, 52, 64
4, 33497, Note_on_c, 0, 52, 0
4, 33504, Note_on_c, 0, 54, 64
4, 33549, Note_on_c, 0, 54, 0
4, 33552, Note_on_c, 0, 56, 64
4, 33597, Note_on_c, 0, 56, 0
4, 33600, Note_on_c, 0, 57, 64
4, 33689, Note_on_c, 0, 57, 0
4, 33696, Note_on_c, 0, 56, 64
4, 33785, Note_on_c, 0, 56, 0
4, 33792, Note_on_c, 0, 54, 64
4, 33881, Note_on_c, 0, 54, 0
4, 33888, Note_on_c, 0, 52, 64
4, 33977, Note_on_c, 0, 52, 0
4, 33984, Note_on_c, 0, 51, 64
4, 34073, Note_on_c, 0, 51, 0
4, 34080, Note_on_c, 0, 56, 64
4, 34169, Note_on_c, 0, 56, 0
4, 34176, Note_on_c, 0, 49, 64
4, 34265, Note_on_c, 0, 49, 0
4, 34272, Note_on_c, 0, 51, 64
4, 34317, Note_on_c, 0, 51, 0
4, 34320, Note_on_c, 0, 52, 64
4, 34365, Note_on_c, 0, 52, 0
4, 34368, Note_on_c, 0, 54, 64
4, 34457, Note_on_c, 0, 54, 0
4, 34464, Note_on_c, 0, 52, 64
4, 34553, Note_on_c, 0, 52, 0
4, 34560, Note_on_c, 0, 50, 64
4, 34649, Note_on_c, 0, 50, 0
4, 34656, Note_on_c, 0, 47, 64
4, 34745, Note_on_c, 0, 47, 0
4, 34752, Note_on_c, 0, 52, 64
4, 34841, Note_on_c, 0, 52, 0
4, 34848, Note_on_c, 0, 40, 64
4, 34937, Note_on_c, 0, 40, 0
4, 34944, Note_on_c, 0, 45, 64
4, 35033, Note_on_c, 0, 45, 0
4, 35040, Note_on_c, 0, 44, 64
4, 35129, Note_on_c, 0, 44, 0
4, 35136, Note_on_c, 0, 45, 64
4, 35225, Note_on_c, 0, 45, 0
4, 35232, Note_on_c, 0, 42, 64
4, 35321, Note_on_c, 0, 42, 0
4, 35328, Note_on_c, 0, 47, 64
4, 35417, Note_on_c, 0, 47, 0
4, 35424, Note_on_c, 0, 45, 64
4, 35513, Note_on_c, 0, 45, 0
4, 35520, Note_on_c, 0, 44, 64
4, 35609, Note_on_c, 0, 44, 0
4, 35616, Note_on_c, 0, 49, 64
4, 35705, Note_on_c, 0, 49, 0
4, 35712, Note_on_c, 0, 42, 64
4, 35889, Note_on_c, 0, 42, 0
4, 35904, Note_on_c, 0, 47, 64
4, 36081, Note_on_c, 0, 47, 0
4, 36096, Note_on_c, 0, 40, 64
4, 36185, Note_on_c, 0, 40, 0
4, 36192, Note_on_c, 0, 45, 64
4, 36281, Note_on_c, 0, 45, 0
4, 36288, Note_on_c, 0, 47, 64
4, 36377, Note_on_c, 0, 47, 0
4, 36384, Note_on_c, 0, 47, 64
4, 36473, Note_on_c, 0, 47, 0
4, 36480, Note_on_c, 0, 40, 64
4, 36834, Note_on_c, 0, 40, 0
4, 36864, Note_on_c, 0, 40, 64
4, 37041, Note_on_c, 0, 40, 0
4, 37152, Note_on_c, 0, 52, 64
4, 37241, Note_on_c, 0, 52, 0
4, 37248, Note_on_c, 0, 50, 64
4, 37337, Note_on_c, 0, 50, 0
4, 37344, Note_on_c, 0, 49, 64
4, 37389, Note_on_c, 0, 49, 0
4, 37392, Note_on_c, 0, 50, 64
4, 37437, Note_on_c, 0, 50, 0
4, 37440, Note_on_c, 0, 52, 64
4, 37485, Note_on_c, 0, 52, 0
4, 37488, Note_on_c, 0, 50, 64
4, 37533, Note_on_c, 0, 50, 0
4, 37536, Note_on_c, 0, 49, 64
4, 37581, Note_on_c, 0, 49, 0
4, 37584, Note_on_c, 0, 47, 64
4, 37629, Note_on_c, 0, 47, 0
4, 37632, Note_on_c, 0, 49, 64
4, 37721, Note_on_c, 0, 49, 0
4, 37728, Note_on_c, 0, 54, 64
4, 37817, Note_on_c, 0, 54, 0
4, 37824, Note_on_c, 0, 50, 64
4, 37913, Note_on_c, 0, 50, 0
4, 37920, Note_on_c, 0, 52, 64
4, 38009, Note_on_c, 0, 52, 0
4, 38016, Note_on_c, 0, 45, 64
4, 38105, Note_on_c, 0, 45, 0
4, 38112, Note_on_c, 0, 52, 64
4, 38201, Note_on_c, 0, 52, 0
4, 38208, Note_on_c, 0, 57, 64
4, 38297, Note_on_c, 0, 57, 0
4, 38304, Note_on_c, 0, 59, 64
4, 38393, Note_on_c, 0, 59, 0
4, 38400, Note_on_c, 0, 61, 64
4, 38489, Note_on_c, 0, 61, 0
4, 38496, Note_on_c, 0, 59, 64
4, 38585, Note_on_c, 0, 59, 0
4, 38592, Note_on_c, 0, 57, 64
4, 38681, Note_on_c, 0, 57, 0
4, 38688, Note_on_c, 0, 59, 64
4, 38777, Note_on_c, 0, 59, 0
4, 38784, Note_on_c, 0, 61, 64
4, 38873, Note_on_c, 0, 61, 0
4, 38880, Note_on_c, 0, 59, 64
4, 38925, Note_on_c, 0, 59, 0
4, 38928, Note_on_c, 0, 61, 64
4, 38973, Note_on_c, 0, 61, 0
4, 38976, Note_on_c, 0, 62, 64
4, 39021, Note_on_c, 0, 62, 0
4, 39024, Note_on_c, 0, 61, 64
4, 39069, Note_on_c, 0, 61, 0
4, 39072, Note_on_c, 0, 59, 64
4, 39117, Note_on_c, 0, 59, 0
4, 39120, Note_on_c, 0, 57, 64
4, 39165, Note_on_c, 0, 57, 0
4, 39168, Note_on_c, 0, 59, 64
4, 39257, Note_on_c, 0, 59, 0
4, 39264, Note_on_c, 0, 54, 64
4, 39353, Note_on_c, 0, 54, 0
4, 39360, Note_on_c, 0, 55, 64
4, 39449, Note_on_c, 0, 55, 0
4, 39456, Note_on_c, 0, 57, 64
4, 39545, Note_on_c, 0, 57, 0
4, 39552, Note_on_c, 0, 50, 64
4, 39641, Note_on_c, 0, 50, 0
4, 39648, Note_on_c, 0, 62, 64
4, 39737, Note_on_c, 0, 62, 0
4, 39744, Note_on_c, 0, 61, 64
4, 39833, Note_on_c, 0, 61, 0
4, 39840, Note_on_c, 0, 59, 64
4, 39929, Note_on_c, 0, 59, 0
4, 39936, Note_on_c, 0, 58, 64
4, 39981, Note_on_c, 0, 58, 0
4, 39984, Note_on_c, 0, 59, 64
4, 40029, Note_on_c, 0, 59, 0
4, 40032, Note_on_c, 0, 61, 64
4, 40077, Note_on_c, 0, 61, 0
4, 40080, Note_on_c, 0, 58, 64
4, 40125, Note_on_c, 0, 58, 0
4, 40128, Note_on_c, 0, 54, 64
4, 40365, Note_on_c, 0, 54, 0
4, 40368, Note_on_c, 0, 56, 64
4, 40413, Note_on_c, 0, 56, 0
4, 40416, Note_on_c, 0, 58, 64
4, 40461, Note_on_c, 0, 58, 0
4, 40464, Note_on_c, 0, 56, 64
4, 40509, Note_on_c, 0, 56, 0
4, 40512, Note_on_c, 0, 59, 64
4, 40557, Note_on_c, 0, 59, 0
4, 40560, Note_on_c, 0, 58, 64
4, 40605, Note_on_c, 0, 58, 0
4, 40608, Note_on_c, 0, 56, 64
4, 40653, Note_on_c, 0, 56, 0
4, 40656, Note_on_c, 0, 54, 64
4, 40701, Note_on_c, 0, 54, 0
4, 40704, Note_on_c, 0, 59, 64
4, 40793, Note_on_c, 0, 59, 0
4, 40800, Note_on_c, 0, 57, 64
4, 40889, Note_on_c, 0, 57, 0
4, 40896, Note_on_c, 0, 56, 64
4, 41073, Note_on_c, 0, 56, 0
4, 41088, Note_on_c, 0, 54, 64
4, 41325, Note_on_c, 0, 54, 0
4, 41328, Note_on_c, 0, 52, 64
4, 41373, Note_on_c, 0, 52, 0
4, 41376, Note_on_c, 0, 50, 64
4, 41421, Note_on_c, 0, 50, 0
4, 41424, Note_on_c, 0, 49, 64
4, 41469, Note_on_c, 0, 49, 0
4, 41472, Note_on_c, 0, 47, 64
4, 41561, Note_on_c, 0, 47, 0
4, 41568, Note_on_c, 0, 59, 64
4, 41709, Note_on_c, 0, 59, 0
4, 41712, Note_on_c, 0, 57, 64
4, 41757, Note_on_c, 0, 57, 0
4, 41760, Note_on_c, 0, 55, 64
4, 41805, Note_on_c, 0, 55, 0
4, 41808, Note_on_c, 0, 54, 64
4, 41853, Note_on_c, 0, 54, 0
4, 41856, Note_on_c, 0, 52, 64
4, 41945, Note_on_c, 0, 52, 0
4, 41952, Note_on_c, 0, 64, 64
4, 42093, Note_on_c, 0, 64, 0
4, 42096, Note_on_c, 0, 61, 64
4, 42141, Note_on_c, 0, 61, 0
4, 42144, Note_on_c, 0, 62, 64
4, 42189, Note_on_c, 0, 62, 0
4, 42192, Note_on_c, 0, 58, 64
4, 42237, Note_on_c, 0, 58, 0
4, 42240, Note_on_c, 0, 59, 64
4, 42285, Note_on_c, 0, 59, 0
4, 42288, Note_on_c, 0, 54, 64
4, 42333, Note_on_c, 0, 54, 0
4, 42336, Note_on_c, 0, 55, 64
4, 42381, Note_on_c, 0, 55, 0
4, 42384, Note_on_c, 0, 52, 64
4, 42429, Note_on_c, 0, 52, 0
4, 42432, Note_on_c, 0, 54, 64
4, 42521, Note_on_c, 0, 54, 0
4, 42528, Note_on_c, 0, 42, 64
4, 42617, Note_on_c, 0, 42, 0
4, 42624, Note_on_c, 0, 47, 64
4, 42801, Note_on_c, 0, 47, 0
4, 42912, Note_on_c, 0, 59, 64
4, 43001, Note_on_c, 0, 59, 0
4, 43008, Note_on_c, 0, 57, 64
4, 43097, Note_on_c, 0, 57, 0
4, 43104, Note_on_c, 0, 56, 64
4, 43149, Note_on_c, 0, 56, 0
4, 43152, Note_on_c, 0, 57, 64
4, 43197, Note_on_c, 0, 57, 0
4, 43200, Note_on_c, 0, 59, 64
4, 43245, Note_on_c, 0, 59, 0
4, 43248, Note_on_c, 0, 57, 64
4, 43293, Note_on_c, 0, 57, 0
4, 43296, Note_on_c, 0, 56, 64
4, 43341, Note_on_c, 0, 56, 0
4, 43344, Note_on_c, 0, 54, 64
4, 43389, Note_on_c, 0, 54, 0
4, 43392, Note_on_c, 0, 56, 64
4, 43481, Note_on_c, 0, 56, 0
4, 43488, Note_on_c, 0, 61, 64
4, 43577, Note_on_c, 0, 61, 0
4, 43584, Note_on_c, 0, 57, 64
4, 43673, Note_on_c, 0, 57, 0
4, 43680, Note_on_c, 0, 59, 64
4, 43769, Note_on_c, 0, 59, 0
4, 43776, Note_on_c, 0, 52, 64
4, 44013, Note_on_c, 0, 52, 0
4, 44016, Note_on_c, 0, 50, 64
4, 44061, Note_on_c, 0, 50, 0
4, 44064, Note_on_c, 0, 49, 64
4, 44109, Note_on_c, 0, 49, 0
4, 44112, Note_on_c, 0, 47, 64
4, 44157, Note_on_c, 0, 47, 0
4, 44160, Note_on_c, 0, 50, 64
4, 44425, Note_on_c, 0, 50, 0
4, 44448, Note_on_c, 0, 62, 64
4, 44537, Note_on_c, 0, 62, 0
4, 44544, Note_on_c, 0, 61, 64
4, 44633, Note_on_c, 0, 61, 0
4, 44640, Note_on_c, 0, 59, 64
4, 44688, Note_on_c, 0, 59, 0
4, 44688, Note_on_c, 0, 57, 64
4, 44733, Note_on_c, 0, 57, 0
4, 44736, Note_on_c, 0, 57, 64
4, 44781, Note_on_c, 0, 57, 0
4, 44784, Note_on_c, 0, 56, 64
4, 44829, Note_on_c, 0, 56, 0
4, 44832, Note_on_c, 0, 54, 64
4, 44877, Note_on_c, 0, 54, 0
4, 44880, Note_on_c, 0, 52, 64
4, 44925, Note_on_c, 0, 52, 0
4, 44928, Note_on_c, 0, 57, 64
4, 45017, Note_on_c, 0, 57, 0
4, 45024, Note_on_c, 0, 59, 64
4, 45069, Note_on_c, 0, 59, 0
4, 45072, Note_on_c, 0, 61, 64
4, 45117, Note_on_c, 0, 61, 0
4, 45120, Note_on_c, 0, 59, 64
4, 45165, Note_on_c, 0, 59, 0
4, 45168, Note_on_c, 0, 57, 64
4, 45213, Note_on_c, 0, 57, 0
4, 45216, Note_on_c, 0, 56, 64
4, 45261, Note_on_c, 0, 56, 0
4, 45264, Note_on_c, 0, 54, 64
4, 45309, Note_on_c, 0, 54, 0
4, 45312, Note_on_c, 0, 66, 64
4, 45785, Note_on_c, 0, 66, 0
4, 45792, Note_on_c, 0, 64, 64
4, 45837, Note_on_c, 0, 64, 0
4, 45840, Note_on_c, 0, 62, 64
4, 45885, Note_on_c, 0, 62, 0
4, 45888, Note_on_c, 0, 64, 64
4, 45933, Note_on_c, 0, 64, 0
4, 45936, Note_on_c, 0, 62, 64
4, 45981, Note_on_c, 0, 62, 0
4, 45984, Note_on_c, 0, 61, 64
4, 46029, Note_on_c, 0, 61, 0
4, 46032, Note_on_c, 0, 59, 64
4, 46077, Note_on_c, 0, 59, 0
4, 46080, Note_on_c, 0, 64, 64
4, 46553, Note_on_c, 0, 64, 0
4, 46560, Note_on_c, 0, 62, 64
4, 46605, Note_on_c, 0, 62, 0
4, 46608, Note_on_c, 0, 61, 64
4, 46653, Note_on_c, 0, 61, 0
4, 46656, Note_on_c, 0, 62, 64
4, 46701, Note_on_c, 0, 62, 0
4, 46704, Note_on_c, 0, 61, 64
4, 46749, Note_on_c, 0, 61, 0
4, 46752, Note_on_c, 0, 59, 64
4, 46797, Note_on_c, 0, 59, 0
4, 46800, Note_on_c, 0, 57, 64
4, 46845, Note_on_c, 0, 57, 0
4, 46848, Note_on_c, 0, 62, 64
4, 46893, Note_on_c, 0, 62, 0
4, 46896, Note_on_c, 0, 61, 64
4, 46941, Note_on_c, 0, 61, 0
4, 46944, Note_on_c, 0, 59, 64
4, 46989, Note_on_c, 0, 59, 0
4, 46992, Note_on_c, 0, 57, 64
4, 47037, Note_on_c, 0, 57, 0
4, 47040, Note_on_c, 0, 56, 64
4, 47085, Note_on_c, 0, 56, 0
4, 47088, Note_on_c, 0, 54, 64
4, 47133, Note_on_c, 0, 54, 0
4, 47136, Note_on_c, 0, 52, 64
4, 47181, Note_on_c, 0, 52, 0
4, 47184, Note_on_c, 0, 50, 64
4, 47229, Note_on_c, 0, 50, 0
4, 47232, Note_on_c, 0, 49, 64
4, 47321, Note_on_c, 0, 49, 0
4, 47328, Note_on_c, 0, 50, 64
4, 47373, Note_on_c, 0, 50, 0
4, 47376, Note_on_c, 0, 52, 64
4, 47421, Note_on_c, 0, 52, 0
4, 47424, Note_on_c, 0, 54, 64
4, 47513, Note_on_c, 0, 54, 0
4, 47520, Note_on_c, 0, 56, 64
4, 47565, Note_on_c, 0, 56, 0
4, 47568, Note_on_c, 0, 57, 64
4, 47613, Note_on_c, 0, 57, 0
4, 47616, Note_on_c, 0, 59, 64
4, 47661, Note_on_c, 0, 59, 0
4, 47664, Note_on_c, 0, 57, 64
4, 47709, Note_on_c, 0, 57, 0
4, 47712, Note_on_c, 0, 56, 64
4, 47757, Note_on_c, 0, 56, 0
4, 47760, Note_on_c, 0, 54, 64
4, 47805, Note_on_c, 0, 54, 0
4, 47808, Note_on_c, 0, 52, 64
4, 47853, Note_on_c, 0, 52, 0
4, 47856, Note_on_c, 0, 50, 64
4, 47901, Note_on_c, 0, 50, 0
4, 47904, Note_on_c, 0, 49, 64
4, 47949, Note_on_c, 0, 49, 0
4, 47952, Note_on_c, 0, 47, 64
4, 47997, Note_on_c, 0, 47, 0
4, 48000, Note_on_c, 0, 45, 64
4, 48089, Note_on_c, 0, 45, 0
4, 48096, Note_on_c, 0, 47, 64
4, 48141, Note_on_c, 0, 47, 0
4, 48144, Note_on_c, 0, 49, 64
4, 48189, Note_on_c, 0, 49, 0
4, 48192, Note_on_c, 0, 50, 64
4, 48281, Note_on_c, 0, 50, 0
4, 48288, Note_on_c, 0, 47, 64
4, 48377, Note_on_c, 0, 47, 0
4, 48384, Note_on_c, 0, 52, 64
4, 48473, Note_on_c, 0, 52, 0
4, 48480, Note_on_c, 0, 40, 64
4, 48569, Note_on_c, 0, 40, 0
4, 48576, Note_on_c, 0, 52, 64
4, 48665, Note_on_c, 0, 52, 0
4, 48672, Note_on_c, 0, 54, 64
4, 48761, Note_on_c, 0, 54, 0
4, 48768, Note_on_c, 0, 56, 64
4, 48857, Note_on_c, 0, 56, 0
4, 48864, Note_on_c, 0, 54, 64
4, 48953, Note_on_c, 0, 54, 0
4, 48960, Note_on_c, 0, 56, 64
4, 49049, Note_on_c, 0, 56, 0
4, 49056, Note_on_c, 0, 52, 64
4, 49145, Note_on_c, 0, 52, 0
4, 49152, Note_on_c, 0, 50, 64
4, 49241, Note_on_c, 0, 50, 0
4, 49248, Note_on_c, 0, 47, 64
4, 49293, Note_on_c, 0, 47, 0
4, 49296, Note_on_c, 0, 49, 64
4, 49341, Note_on_c, 0, 49, 0
4, 49344, Note_on_c, 0, 50, 64
4, 49389, Note_on_c, 0, 50, 0
4, 49392, Note_on_c, 0, 49, 64
4, 49437, Note_on_c, 0, 49, 0
4, 49440, Note_on_c, 0, 47, 64
4, 49485, Note_on_c, 0, 47, 0
4, 49488, Note_on_c, 0, 45, 64
4, 49533, Note_on_c, 0, 45, 0
4, 49536, Note_on_c, 0, 50, 64
4, 49581, Note_on_c, 0, 50, 0
4, 49584, Note_on_c, 0, 49, 64
4, 49629, Note_on_c, 0, 49, 0
4, 49632, Note_on_c, 0, 47, 64
4, 49677, Note_on_c, 0, 47, 0
4, 49680, Note_on_c, 0, 45, 64
4, 49725, Note_on_c, 0, 45, 0
4, 49728, Note_on_c, 0, 45, 64
4, 49773, Note_on_c, 0, 45, 0
4, 49776, Note_on_c, 0, 44, 64
4, 49821, Note_on_c, 0, 44, 0
4, 49824, Note_on_c, 0, 42, 64
4, 49869, Note_on_c, 0, 42, 0
4, 49872, Note_on_c, 0, 40, 64
4, 49917, Note_on_c, 0, 40, 0
4, 49920, Note_on_c, 0, 45, 64
4, 50009, Note_on_c, 0, 45, 0
4, 50016, Note_on_c, 0, 57, 64
4, 50061, Note_on_c, 0, 57, 0
4, 50064, Note_on_c, 0, 56, 64
4, 50109, Note_on_c, 0, 56, 0
4, 50112, Note_on_c, 0, 54, 64
4, 50157, Note_on_c, 0, 54, 0
4, 50160, Note_on_c, 0, 52, 64
4, 50205, Note_on_c, 0, 52, 0
4, 50208, Note_on_c, 0, 50, 64
4, 50253, Note_on_c, 0, 50, 0
4, 50256, Note_on_c, 0, 49, 64
4, 50301, Note_on_c, 0, 49, 0
4, 50304, Note_on_c, 0, 48, 64
4, 50349, Note_on_c, 0, 48, 0
4, 50352, Note_on_c, 0, 49, 64
4, 50397, Note_on_c, 0, 49, 0
4, 50400, Note_on_c, 0, 51, 64
4, 50445, Note_on_c, 0, 51, 0
4, 50448, Note_on_c, 0, 48, 64
4, 50493, Note_on_c, 0, 48, 0
4, 50496, Note_on_c, 0, 44, 64
4, 50733, Note_on_c, 0, 44, 0
4, 50736, Note_on_c, 0, 46, 64
4, 50781, Note_on_c, 0, 46, 0
4, 50784, Note_on_c, 0, 48, 64
4, 50829, Note_on_c, 0, 48, 0
4, 50832, Note_on_c, 0, 46, 64
4, 50877, Note_on_c, 0, 46, 0
4, 50880, Note_on_c, 0, 49, 64
4, 50925, Note_on_c, 0, 49, 0
4, 50928, Note_on_c, 0, 48, 64
4, 50973, Note_on_c, 0, 48, 0
4, 50976, Note_on_c, 0, 46, 64
4, 51021, Note_on_c, 0, 46, 0
4, 51024, Note_on_c, 0, 44, 64
4, 51069, Note_on_c, 0, 44, 0
4, 51072, Note_on_c, 0, 49, 64
4, 51161, Note_on_c, 0, 49, 0
4, 51168, Note_on_c, 0, 47, 64
4, 51257, Note_on_c, 0, 47, 0
4, 51264, Note_on_c, 0, 45, 64
4, 51441, Note_on_c, 0, 45, 0
4, 51456, Note_on_c, 0, 44, 64
4, 51693, Note_on_c, 0, 44, 0
4, 51696, Note_on_c, 0, 42, 64
4, 51741, Note_on_c, 0, 42, 0
4, 51744, Note_on_c, 0, 40, 64
4, 51789, Note_on_c, 0, 40, 0
4, 51792, Note_on_c, 0, 39, 64
4, 51837, Note_on_c, 0, 39, 0
4, 51840, Note_on_c, 0, 37, 64
4, 51929, Note_on_c, 0, 37, 0
4, 51936, Note_on_c, 0, 49, 64
4, 52077, Note_on_c, 0, 49, 0
4, 52080, Note_on_c, 0, 47, 64
4, 52125, Note_on_c, 0, 47, 0
4, 52128, Note_on_c, 0, 45, 64
4, 52173, Note_on_c, 0, 45, 0
4, 52176, Note_on_c, 0, 44, 64
4, 52221, Note_on_c, 0, 44, 0
4, 52224, Note_on_c, 0, 42, 64
4, 52313, Note_on_c, 0, 42, 0
4, 52320, Note_on_c, 0, 54, 64
4, 52461, Note_on_c, 0, 54, 0
4, 52464, Note_on_c, 0, 51, 64
4, 52509, Note_on_c, 0, 51, 0
4, 52512, Note_on_c, 0, 52, 64
4, 52557, Note_on_c, 0, 52, 0
4, 52560, Note_on_c, 0, 48, 64
4, 52605, Note_on_c, 0, 48, 0
4, 52608, Note_on_c, 0, 49, 64
4, 52653, Note_on_c, 0, 49, 0
4, 52656, Note_on_c, 0, 44, 64
4, 52701, Note_on_c, 0, 44, 0
4, 52704, Note_on_c, 0, 45, 64
4, 52749, Note_on_c, 0, 45, 0
4, 52752, Note_on_c, 0, 42, 64
4, 52797, Note_on_c, 0, 42, 0
4, 52800, Note_on_c, 0, 44, 64
4, 52889, Note_on_c, 0, 44, 0
4, 52896, Note_on_c, 0, 44, 64
4, 52985, Note_on_c, 0, 44, 0
4, 52992, Note_on_c, 0, 37, 64
4, 53081, Note_on_c, 0, 37, 0
4, 53088, Note_on_c, 0, 38, 64
4, 53133, Note_on_c, 0, 38, 0
4, 53136, Note_on_c, 0, 40, 64
4, 53181, Note_on_c, 0, 40, 0
4, 53184, Note_on_c, 0, 42, 64
4, 53229, Note_on_c, 0, 42, 0
4, 53232, Note_on_c, 0, 44, 64
4, 53277, Note_on_c, 0, 44, 0
4, 53280, Note_on_c, 0, 45, 64
4, 53325, Note_on_c, 0, 45, 0
4, 53328, Note_on_c, 0, 47, 64
4, 53373, Note_on_c, 0, 47, 0
4, 53376, Note_on_c, 0, 49, 64
4, 53465, Note_on_c, 0, 49, 0
4, 53472, Note_on_c, 0, 47, 64
4, 53561, Note_on_c, 0, 47, 0
4, 53568, Note_on_c, 0, 49, 64
4, 53657, Note_on_c, 0, 49, 0
4, 53664, Note_on_c, 0, 45, 64
4, 53753, Note_on_c, 0, 45, 0
4, 53760, Note_on_c, 0, 44, 64
4, 53849, Note_on_c, 0, 44, 0
4, 53856, Note_on_c, 0, 42, 64
4, 53945, Note_on_c, 0, 42, 0
4, 53952, Note_on_c, 0, 44, 64
4, 54041, Note_on_c, 0, 44, 0
4, 54048, Note_on_c, 0, 40, 64
4, 54137, Note_on_c, 0, 40, 0
4, 54144, Note_on_c, 0, 45, 64
4, 54233, Note_on_c, 0, 45, 0
4, 54240, Note_on_c, 0, 52, 64
4, 54329, Note_on_c, 0, 52, 0
4, 54336, Note_on_c, 0, 57, 64
4, 54425, Note_on_c, 0, 57, 0
4, 54432, Note_on_c, 0, 59, 64
4, 54521, Note_on_c, 0, 59, 0
4, 54528, Note_on_c, 0, 61, 64
4, 54617, Note_on_c, 0, 61, 0
4, 54624, Note_on_c, 0, 59, 64
4, 54669, Note_on_c, 0, 59, 0
4, 54672, Note_on_c, 0, 61, 64
4, 54717, Note_on_c, 0, 61, 0
4, 54720, Note_on_c, 0, 62, 64
4, 54765, Note_on_c, 0, 62, 0
4, 54768, Note_on_c, 0, 61, 64
4, 54813, Note_on_c, 0, 61, 0
4, 54816, Note_on_c, 0, 59, 64
4, 54861, Note_on_c, 0, 59, 0
4, 54864, Note_on_c, 0, 57, 64
4, 54909, Note_on_c, 0, 57, 0
4, 54912, Note_on_c, 0, 56, 64
4, 55001, Note_on_c, 0, 56, 0
4, 55008, Note_on_c, 0, 57, 64
4, 55097, Note_on_c, 0, 57, 0
4, 55104, Note_on_c, 0, 50, 64
4, 55193, Note_on_c, 0, 50, 0
4, 55200, Note_on_c, 0, 52, 64
4, 55289, Note_on_c, 0, 52, 0
4, 55296, Note_on_c, 0, 45, 64
4, 55385, Note_on_c, 0, 45, 0
4, 55392, Note_on_c, 0, 57, 64
4, 55481, Note_on_c, 0, 57, 0
4, 55488, Note_on_c, 0, 56, 64
4, 55577, Note_on_c, 0, 56, 0
4, 55584, Note_on_c, 0, 54, 64
4, 55673, Note_on_c, 0, 54, 0
4, 55680, Note_on_c, 0, 52, 64
4, 55769, Note_on_c, 0, 52, 0
4, 55776, Note_on_c, 0, 54, 64
4, 55865, Note_on_c, 0, 54, 0
4, 55872, Note_on_c, 0, 56, 64
4, 55961, Note_on_c, 0, 56, 0
4, 55968, Note_on_c, 0, 52, 64
4, 56057, Note_on_c, 0, 52, 0
4, 56064, Note_on_c, 0, 51, 64
4, 56153, Note_on_c, 0, 51, 0
4, 56160, Note_on_c, 0, 49, 64
4, 56249, Note_on_c, 0, 49, 0
4, 56256, Note_on_c, 0, 51, 64
4, 56345, Note_on_c, 0, 51, 0
4, 56352, Note_on_c, 0, 47, 64
4, 56441, Note_on_c, 0, 47, 0
4, 56448, Note_on_c, 0, 40, 64
4, 56537, Note_on_c, 0, 40, 0
4, 56544, Note_on_c, 0, 47, 64
4, 56633, Note_on_c, 0, 47, 0
4, 56640, Note_on_c, 0, 52, 64
4, 56729, Note_on_c, 0, 52, 0
4, 56736, Note_on_c, 0, 54, 64
4, 56825, Note_on_c, 0, 54, 0
4, 56832, Note_on_c, 0, 56, 64
4, 56921, Note_on_c, 0, 56, 0
4, 56928, Note_on_c, 0, 54, 64
4, 56973, Note_on_c, 0, 54, 0
4, 56976, Note_on_c, 0, 56, 64
4, 57021, Note_on_c, 0, 56, 0
4, 57024, Note_on_c, 0, 57, 64
4, 57069, Note_on_c, 0, 57, 0
4, 57072, Note_on_c, 0, 56, 64
4, 57117, Note_on_c, 0, 56, 0
4, 57120, Note_on_c, 0, 54, 64
4, 57165, Note_on_c, 0, 54, 0
4, 57168, Note_on_c, 0, 52, 64
4, 57213, Note_on_c, 0, 52, 0
4, 57216, Note_on_c, 0, 59, 64
4, 57305, Note_on_c, 0, 59, 0
4, 57312, Note_on_c, 0, 61, 64
4, 57401, Note_on_c, 0, 61, 0
4, 57408, Note_on_c, 0, 57, 64
4, 57497, Note_on_c, 0, 57, 0
4, 57504, Note_on_c, 0, 59, 64
4, 57593, Note_on_c, 0, 59, 0
4, 57600, Note_on_c, 0, 52, 64
4, 57689, Note_on_c, 0, 52, 0
4, 57696, Note_on_c, 0, 64, 64
4, 57785, Note_on_c, 0, 64, 0
4, 57792, Note_on_c, 0, 62, 64
4, 57881, Note_on_c, 0, 62, 0
4, 57888, Note_on_c, 0, 61, 64
4, 57977, Note_on_c, 0, 61, 0
4, 57984, Note_on_c, 0, 59, 64
4, 58029, Note_on_c, 0, 59, 0
4, 58032, Note_on_c, 0, 61, 64
4, 58077, Note_on_c, 0, 61, 0
4, 58080, Note_on_c, 0, 62, 64
4, 58125, Note_on_c, 0, 62, 0
4, 58128, Note_on_c, 0, 61, 64
4, 58173, Note_on_c, 0, 61, 0
4, 58176, Note_on_c, 0, 59, 64
4, 58221, Note_on_c, 0, 59, 0
4, 58224, Note_on_c, 0, 57, 64
4, 58269, Note_on_c, 0, 57, 0
4, 58272, Note_on_c, 0, 56, 64
4, 58317, Note_on_c, 0, 56, 0
4, 58320, Note_on_c, 0, 54, 64
4, 58365, Note_on_c, 0, 54, 0
4, 58368, Note_on_c, 0, 52, 64
4, 58413, Note_on_c, 0, 52, 0
4, 58416, Note_on_c, 0, 54, 64
4, 58461, Note_on_c, 0, 54, 0
4, 58464, Note_on_c, 0, 56, 64
4, 58509, Note_on_c, 0, 56, 0
4, 58512, Note_on_c, 0, 54, 64
4, 58557, Note_on_c, 0, 54, 0
4, 58560, Note_on_c, 0, 52, 64
4, 58605, Note_on_c, 0, 52, 0
4, 58608, Note_on_c, 0, 50, 64
4, 58653, Note_on_c, 0, 50, 0
4, 58656, Note_on_c, 0, 49, 64
4, 58701, Note_on_c, 0, 49, 0
4, 58704, Note_on_c, 0, 47, 64
4, 58749, Note_on_c, 0, 47, 0
4, 58752, Note_on_c, 0, 45, 64
4, 58797, Note_on_c, 0, 45, 0
4, 58800, Note_on_c, 0, 47, 64
4, 58845, Note_on_c, 0, 47, 0
4, 58848, Note_on_c, 0, 49, 64
4, 58893, Note_on_c, 0, 49, 0
4, 58896, Note_on_c, 0, 47, 64
4, 58941, Note_on_c, 0, 47, 0
4, 58944, Note_on_c, 0, 45, 64
4, 58989, Note_on_c, 0, 45, 0
4, 58992, Note_on_c, 0, 44, 64
4, 59037, Note_on_c, 0, 44, 0
4, 59040, Note_on_c, 0, 42, 64
4, 59085, Note_on_c, 0, 42, 0
4, 59088, Note_on_c, 0, 40, 64
4, 59133, Note_on_c, 0, 40, 0
4, 59136, Note_on_c, 0, 38, 64
4, 59313, Note_on_c, 0, 38, 0
4, 59328, Note_on_c, 0, 50, 64
4, 59609, Note_on_c, 0, 50, 0
4, 59616, Note_on_c, 0, 52, 64
4, 59661, Note_on_c, 0, 52, 0
4, 59664, Note_on_c, 0, 54, 64
4, 59709, Note_on_c, 0, 54, 0
4, 59712, Note_on_c, 0, 52, 64
4, 59757, Note_on_c, 0, 52, 0
4, 59760, Note_on_c, 0, 50, 64
4, 59805, Note_on_c, 0, 50, 0
4, 59808, Note_on_c, 0, 49, 64
4, 59853, Note_on_c, 0, 49, 0
4, 59856, Note_on_c, 0, 47, 64
4, 59901, Note_on_c, 0, 47, 0
4, 59904, Note_on_c, 0, 49, 64
4, 60258, Note_on_c, 0, 49, 0
4, 60288, Note_on_c, 0, 49, 64
4, 60377, Note_on_c, 0, 49, 0
4, 60384, Note_on_c, 0, 50, 64
4, 60429, Note_on_c, 0, 50, 0
4, 60432, Note_on_c, 0, 52, 64
4, 60477, Note_on_c, 0, 52, 0
4, 60480, Note_on_c, 0, 50, 64
4, 60525, Note_on_c, 0, 50, 0
4, 60528, Note_on_c, 0, 49, 64
4, 60573, Note_on_c, 0, 49, 0
4, 60576, Note_on_c, 0, 47, 64
4, 60621, Note_on_c, 0, 47, 0
4, 60624, Note_on_c, 0, 45, 64
4, 60669, Note_on_c, 0, 45, 0
4, 60672, Note_on_c, 0, 52, 64
4, 60849, Note_on_c, 0, 52, 0
4, 60864, Note_on_c, 0, 40, 64
4, 60953, Note_on_c, 0, 40, 0
4, 60960, Note_on_c, 0, 44, 64
4, 61049, Note_on_c, 0, 44, 0
4, 61056, Note_on_c, 0, 45, 64
4, 61145, Note_on_c, 0, 45, 0
4, 61152, Note_on_c, 0, 45, 64
4, 61175, Note_on_c, 0, 45, 0
4, 61176, Note_on_c, 0, 47, 64
4, 61199, Note_on_c, 0, 47, 0
4, 61200, Note_on_c, 0, 49, 64
4, 61245, Note_on_c, 0, 49, 0
4, 61248, Note_on_c, 0, 47, 64
4, 61337, Note_on_c, 0, 47, 0
4, 61344, Note_on_c, 0, 47, 64
4, 61367, Note_on_c, 0, 47, 0
4, 61368, Note_on_c, 0, 49, 64
4, 61391, Note_on_c, 0, 49, 0
4, 61392, Note_on_c, 0, 50, 64
4, 61437, Note_on_c, 0, 50, 0
4, 61440, Note_on_c, 0, 49, 64
4, 61617, Note_on_c, 0, 49, 0
4, 61728, Note_on_c, 0, 50, 64
4, 61817, Note_on_c, 0, 50, 0
4, 61824, Note_on_c, 0, 52, 64
4, 61913, Note_on_c, 0, 52, 0
4, 61920, Note_on_c, 0, 50, 64
4, 62009, Note_on_c, 0, 50, 0
4, 62016, Note_on_c, 0, 52, 64
4, 62105, Note_on_c, 0, 52, 0
4, 62112, Note_on_c, 0, 40, 64
4, 62201, Note_on_c, 0, 40, 0
4, 62208, Note_on_c, 0, 45, 64
4, 62297, Note_on_c, 0, 45, 0
4, 62304, Note_on_c, 0, 47, 64
4, 62349, Note_on_c, 0, 47, 0
4, 62352, Note_on_c, 0, 49, 64
4, 62397, Note_on_c, 0, 49, 0
4, 62400, Note_on_c, 0, 47, 64
4, 62445, Note_on_c, 0, 47, 0
4, 62448, Note_on_c, 0, 45, 64
4, 62493, Note_on_c, 0, 45, 0
4, 62496, Note_on_c, 0, 44, 64
4, 62541, Note_on_c, 0, 44, 0
4, 62544, Note_on_c, 0, 42, 64
4, 62589, Note_on_c, 0, 42, 0
4, 62592, Note_on_c, 0, 40, 64
4, 62769, Note_on_c, 0, 40, 0
4, 62880, Note_on_c, 0, 52, 64
4, 62969, Note_on_c, 0, 52, 0
4, 62976, Note_on_c, 0, 50, 64
4, 63065, Note_on_c, 0, 50, 0
4, 63072, Note_on_c, 0, 49, 64
4, 63117, Note_on_c, 0, 49, 0
4, 63120, Note_on_c, 0, 50, 64
4, 63165, Note_on_c, 0, 50, 0
4, 63168, Note_on_c, 0, 52, 64
4, 63213, Note_on_c, 0, 52, 0
4, 63216, Note_on_c, 0, 50, 64
4, 63261, Note_on_c, 0, 50, 0
4, 63264, Note_on_c, 0, 49, 64
4, 63309, Note_on_c, 0, 49, 0
4, 63312, Note_on_c, 0, 47, 64
4, 63357, Note_on_c, 0, 47, 0
4, 63360, Note_on_c, 0, 49, 64
4, 63449, Note_on_c, 0, 49, 0
4, 63456, Note_on_c, 0, 54, 64
4, 63545, Note_on_c, 0, 54, 0
4, 63552, Note_on_c, 0, 50, 64
4, 63641, Note_on_c, 0, 50, 0
4, 63648, Note_on_c, 0, 52, 64
4, 63737, Note_on_c, 0, 52, 0
4, 63744, Note_on_c, 0, 45, 64
4, 63833, Note_on_c, 0, 45, 0
4, 63840, Note_on_c, 0, 52, 64
4, 63929, Note_on_c, 0, 52, 0
4, 63936, Note_on_c, 0, 57, 64
4, 64025, Note_on_c, 0, 57, 0
4, 64032, Note_on_c, 0, 59, 64
4, 64121, Note_on_c, 0, 59, 0
4, 64128, Note_on_c, 0, 61, 64
4, 64217, Note_on_c, 0, 61, 0
4, 64224, Note_on_c, 0, 59, 64
4, 64313, Note_on_c, 0, 59, 0
4, 64320, Note_on_c, 0, 57, 64
4, 64409, Note_on_c, 0, 57, 0
4, 64416, Note_on_c, 0, 59, 64
4, 64505, Note_on_c, 0, 59, 0
4, 64512, Note_on_c, 0, 61, 64
4, 64601, Note_on_c, 0, 61, 0
4, 64608, Note_on_c, 0, 59, 64
4, 64653, Note_on_c, 0, 59, 0
4, 64656, Note_on_c, 0, 61, 64
4, 64701, Note_on_c, 0, 61, 0
4, 64704, Note_on_c, 0, 62, 64
4, 64749, Note_on_c, 0, 62, 0
4, 64752, Note_on_c, 0, 61, 64
4, 64797, Note_on_c, 0, 61, 0
4, 64800, Note_on_c, 0, 59, 64
4, 64845, Note_on_c, 0, 59, 0
4, 64848, Note_on_c, 0, 57, 64
4, 64893, Note_on_c, 0, 57, 0
4, 64896, Note_on_c, 0, 59, 64
4, 64985, Note_on_c, 0, 59, 0
4, 64992, Note_on_c, 0, 54, 64
4, 65081, Note_on_c, 0, 54, 0
4, 65088, Note_on_c, 0, 55, 64
4, 65177, Note_on_c, 0, 55, 0
4, 65184, Note_on_c, 0, 57, 64
4, 65273, Note_on_c, 0, 57, 0
4, 65280, Note_on_c, 0, 50, 64
4, 65369, Note_on_c, 0, 50, 0
4, 65376, Note_on_c, 0, 62, 64
4, 65465, Note_on_c, 0, 62, 0
4, 65472, Note_on_c, 0, 61, 64
4, 65561, Note_on_c, 0, 61, 0
4, 65568, Note_on_c, 0, 59, 64
4, 65657, Note_on_c, 0, 59, 0
4, 65664, Note_on_c, 0, 58, 64
4, 65709, Note_on_c, 0, 58, 0
4, 65712, Note_on_c, 0, 59, 64
4, 65757, Note_on_c, 0, 59, 0
4, 65760, Note_on_c, 0, 61, 64
4, 65805, Note_on_c, 0, 61, 0
4, 65808, Note_on_c, 0, 58, 64
4, 65853, Note_on_c, 0, 58, 0
4, 65856, Note_on_c, 0, 54, 64
4, 66093, Note_on_c, 0, 54, 0
4, 66096, Note_on_c, 0, 56, 64
4, 66141, Note_on_c, 0, 56, 0
4, 66144, Note_on_c, 0, 58, 64
4, 66189, Note_on_c, 0, 58, 0
4, 66192, Note_on_c, 0, 56, 64
4, 66237, Note_on_c, 0, 56, 0
4, 66240, Note_on_c, 0, 59, 64
4, 66285, Note_on_c, 0, 59, 0
4, 66288, Note_on_c, 0, 58, 64
4, 66333, Note_on_c, 0, 58, 0
4, 66336, Note_on_c, 0, 56, 64
4, 66381, Note_on_c, 0, 56, 0
4, 66384, Note_on_c, 0, 54, 64
4, 66429, Note_on_c, 0, 54, 0
4, 66432, Note_on_c, 0, 59, 64
4, 66521, Note_on_c, 0, 59, 0
4, 66528, Note_on_c, 0, 57, 64
4, 66617, Note_on_c, 0, 57, 0
4, 66624, Note_on_c, 0, 56, 64
4, 66801, Note_on_c, 0, 56, 0
4, 66816, Note_on_c, 0, 54, 64
4, 67053, Note_on_c, 0, 54, 0
4, 67056, Note_on_c, 0, 52, 64
4, 67101, Note_on_c, 0, 52, 0
4, 67104, Note_on_c, 0, 50, 64
4, 67149, Note_on_c, 0, 50, 0
4, 67152, Note_on_c, 0, 49, 64
4, 67197, Note_on_c, 0, 49, 0
4, 67200, Note_on_c, 0, 47, 64
4, 67289, Note_on_c, 0, 47, 0
4, 67296, Note_on_c, 0, 59, 64
4, 67437, Note_on_c, 0, 59, 0
4, 67440, Note_on_c, 0, 57, 64
4, 67485, Note_on_c, 0, 57, 0
4, 67488, Note_on_c, 0, 55, 64
4, 67533, Note_on_c, 0, 55, 0
4, 67536, Note_on_c, 0, 54, 64
4, 67581, Note_on_c, 0, 54, 0
4, 67584, Note_on_c, 0, 52, 64
4, 67673, Note_on_c, 0, 52, 0
4, 67680, Note_on_c, 0, 64, 64
4, 67821, Note_on_c, 0, 64, 0
4, 67824, Note_on_c, 0, 61, 64
4, 67869, Note_on_c, 0, 61, 0
4, 67872, Note_on_c, 0, 62, 64
4, 67917, Note_on_c, 0, 62, 0
4, 67920, Note_on_c, 0, 58, 64
4, 67965, Note_on_c, 0, 58, 0
4, 67968, Note_on_c, 0, 59, 64
4, 68013, Note_on_c, 0, 59, 0
4, 68016, Note_on_c, 0, 54, 64
4, 68061, Note_on_c, 0, 54, 0
4, 68064, Note_on_c, 0, 55, 64
4, 68109, Note_on_c, 0, 55, 0
4, 68112, Note_on_c, 0, 52, 64
4, 68157, Note_on_c, 0, 52, 0
4, 68160, Note_on_c, 0, 54, 64
4, 68249, Note_on_c, 0, 54, 0
4, 68256, Note_on_c, 0, 42, 64
4, 68345, Note_on_c, 0, 42, 0
4, 68352, Note_on_c, 0, 47, 64
4, 68529, Note_on_c, 0, 47, 0
4, 68640, Note_on_c, 0, 59, 64
4, 68729, Note_on_c, 0, 59, 0
4, 68736, Note_on_c, 0, 57, 64
4, 68825, Note_on_c, 0, 57, 0
4, 68832, Note_on_c, 0, 56, 64
4, 68877, Note_on_c, 0, 56, 0
4, 68880, Note_on_c, 0, 57, 64
4, 68925, Note_on_c, 0, 57, 0
4, 68928, Note_on_c, 0, 59, 64
4, 68973, Note_on_c, 0, 59, 0
4, 68976, Note_on_c, 0, 57, 64
4, 69021, Note_on_c, 0, 57, 0
4, 69024, Note_on_c, 0, 56, 64
4, 69069, Note_on_c, 0, 56, 0
4, 69072, Note_on_c, 0, 54, 64
4, 69117, Note_on_c, 0, 54, 0
4, 69120, Note_on_c, 0, 56, 64
4, 69209, Note_on_c, 0, 56, 0
4, 69216, Note_on_c, 0, 61, 64
4, 69305, Note_on_c, 0, 61, 0
4, 69312, Note_on_c, 0, 57, 64
4, 69401, Note_on_c, 0, 57, 0
4, 69408, Note_on_c, 0, 59, 64
4, 69497, Note_on_c, 0, 59, 0
4, 69504, Note_on_c, 0, 52, 64
4, 69741, Note_on_c, 0, 52, 0
4, 69744, Note_on_c, 0, 50, 64
4, 69789, Note_on_c, 0, 50, 0
4, 69792, Note_on_c, 0, 49, 64
4, 69837, Note_on_c, 0, 49, 0
4, 69840, Note_on_c, 0, 47, 64
4, 69885, Note_on_c, 0, 47, 0
4, 69888, Note_on_c, 0, 50, 64
4, 70153, Note_on_c, 0, 50, 0
4, 70176, Note_on_c, 0, 62, 64
4, 70265, Note_on_c, 0, 62, 0
4, 70272, Note_on_c, 0, 61, 64
4, 70361, Note_on_c, 0, 61, 0
4, 70368, Note_on_c, 0, 59, 64
4, 70416, Note_on_c, 0, 59, 0
4, 70416, Note_on_c, 0, 57, 64
4, 70461, Note_on_c, 0, 57, 0
4, 70464, Note_on_c, 0, 57, 64
4, 70509, Note_on_c, 0, 57, 0
4, 70512, Note_on_c, 0, 56, 64
4, 70557, Note_on_c, 0, 56, 0
4, 70560, Note_on_c, 0, 54, 64
4, 70605, Note_on_c, 0, 54, 0
4, 70608, Note_on_c, 0, 52, 64
4, 70653, Note_on_c, 0, 52, 0
4, 70656, Note_on_c, 0, 57, 64
4, 70745, Note_on_c, 0, 57, 0
4, 70752, Note_on_c, 0, 59, 64
4, 70797, Note_on_c, 0, 59, 0
4, 70800, Note_on_c, 0, 61, 64
4, 70845, Note_on_c, 0, 61, 0
4, 70848, Note_on_c, 0, 59, 64
4, 70893, Note_on_c, 0, 59, 0
4, 70896, Note_on_c, 0, 57, 64
4, 70941, Note_on_c, 0, 57, 0
4, 70944, Note_on_c, 0, 56, 64
4, 70989, Note_on_c, 0, 56, 0
4, 70992, Note_on_c, 0, 54, 64
4, 71037, Note_on_c, 0, 54, 0
4, 71040, Note_on_c, 0, 66, 64
4, 71513, Note_on_c, 0, 66, 0
4, 71520, Note_on_c, 0, 64, 64
4, 71565, Note_on_c, 0, 64, 0
4, 71568, Note_on_c, 0, 62, 64
4, 71613, Note_on_c, 0, 62, 0
4, 71616, Note_on_c, 0, 64, 64
4, 71661, Note_on_c, 0, 64, 0
4, 71664, Note_on_c, 0, 62, 64
4, 71709, Note_on_c, 0, 62, 0
4, 71712, Note_on_c, 0, 61, 64
4, 71757, Note_on_c, 0, 61, 0
4, 71760, Note_on_c, 0, 59, 64
4, 71805, Note_on_c, 0, 59, 0
4, 71808, Note_on_c, 0, 64, 64
4, 72281, Note_on_c, 0, 64, 0
4, 72288, Note_on_c, 0, 62, 64
4, 72333, Note_on_c, 0, 62, 0
4, 72336, Note_on_c, 0, 61, 64
4, 72381, Note_on_c, 0, 61, 0
4, 72384, Note_on_c, 0, 62, 64
4, 72429, Note_on_c, 0, 62, 0
4, 72432, Note_on_c, 0, 61, 64
4, 72477, Note_on_c, 0, 61, 0
4, 72480, Note_on_c, 0, 59, 64
4, 72525, Note_on_c, 0, 59, 0
4, 72528, Note_on_c, 0, 57, 64
4, 72573, Note_on_c, 0, 57, 0
4, 72576, Note_on_c, 0, 62, 64
4, 72621, Note_on_c, 0, 62, 0
4, 72624, Note_on_c, 0, 61, 64
4, 72669, Note_on_c, 0, 61, 0
4, 72672, Note_on_c, 0, 59, 64
4, 72717, Note_on_c, 0, 59, 0
4, 72720, Note_on_c, 0, 57, 64
4, 72765, Note_on_c, 0, 57, 0
4, 72768, Note_on_c, 0, 56, 64
4, 72813, Note_on_c, 0, 56, 0
4, 72816, Note_on_c, 0, 54, 64
4, 72861, Note_on_c, 0, 54, 0
4, 72864, Note_on_c, 0, 52, 64
4, 72909, Note_on_c, 0, 52, 0
4, 72912, Note_on_c, 0, 50, 64
4, 72957, Note_on_c, 0, 50, 0
4, 72960, Note_on_c, 0, 49, 64
4, 73049, Note_on_c, 0, 49, 0
4, 73056, Note_on_c, 0, 50, 64
4, 73101, Note_on_c, 0, 50, 0
4, 73104, Note_on_c, 0, 52, 64
4, 73149, Note_on_c, 0, 52, 0
4, 73152, Note_on_c, 0, 54, 64
4, 73241, Note_on_c, 0, 54, 0
4, 73248, Note_on_c, 0, 56, 64
4, 73293, Note_on_c, 0, 56, 0
4, 73296, Note_on_c, 0, 57, 64
4, 73341, Note_on_c, 0, 57, 0
4, 73344, Note_on_c, 0, 59, 64
4, 73389, Note_on_c, 0, 59, 0
4, 73392, Note_on_c, 0, 57, 64
4, 73437, Note_on_c, 0, 57, 0
4, 73440, Note_on_c, 0, 56, 64
4, 73485, Note_on_c, 0, 56, 0
4, 73488, Note_on_c, 0, 54, 64
4, 73533, Note_on_c, 0, 54, 0
4, 73536, Note_on_c, 0, 52, 64
4, 73581, Note_on_c, 0, 52, 0
4, 73584, Note_on_c, 0, 50, 64
4, 73629, Note_on_c, 0, 50, 0
4, 73632, Note_on_c, 0, 49, 64
4, 73677, Note_on_c, 0, 49, 0
4, 73680, Note_on_c, 0, 47, 64
4, 73725, Note_on_c, 0, 47, 0
4, 73728, Note_on_c, 0, 45, 64
4, 73817, Note_on_c, 0, 45, 0
4, 73824, Note_on_c, 0, 47, 64
4, 73869, Note_on_c, 0, 47, 0
4, 73872, Note_on_c, 0, 49, 64
4, 73917, Note_on_c, 0, 49, 0
4, 73920, Note_on_c, 0, 50, 64
4, 74009, Note_on_c, 0, 50, 0
4, 74016, Note_on_c, 0, 47, 64
4, 74105, Note_on_c, 0, 47, 0
4, 74112, Note_on_c, 0, 52, 64
4, 74201, Note_on_c, 0, 52, 0
4, 74208, Note_on_c, 0, 40, 64
4, 74297, Note_on_c, 0, 40, 0
4, 74304, Note_on_c, 0, 52, 64
4, 74393, Note_on_c, 0, 52, 0
4, 74400, Note_on_c, 0, 54, 64
4, 74489, Note_on_c, 0, 54, 0
4, 74496, Note_on_c, 0, 56, 64
4, 74585, Note_on_c, 0, 56, 0
4, 74592, Note_on_c, 0, 54, 64
4, 74681, Note_on_c, 0, 54, 0
4, 74688, Note_on_c, 0, 56, 64
4, 74777, Note_on_c, 0, 56, 0
4, 74784, Note_on_c, 0, 52, 64
4, 74873, Note_on_c, 0, 52, 0
4, 74880, Note_on_c, 0, 50, 64
4, 74969, Note_on_c, 0, 50, 0
4, 74976, Note_on_c, 0, 47, 64
4, 75021, Note_on_c, 0, 47, 0
4, 75024, Note_on_c, 0, 49, 64
4, 75069, Note_on_c, 0, 49, 0
4, 75072, Note_on_c, 0, 50, 64
4, 75117, Note_on_c, 0, 50, 0
4, 75120, Note_on_c, 0, 49, 64
4, 75165, Note_on_c, 0, 49, 0
4, 75168, Note_on_c, 0, 47, 64
4, 75213, Note_on_c, 0, 47, 0
4, 75216, Note_on_c, 0, 45, 64
4, 75261, Note_on_c, 0, 45, 0
4, 75264, Note_on_c, 0, 50, 64
4, 75309, Note_on_c, 0, 50, 0
4, 75312, Note_on_c, 0, 49, 64
4, 75357, Note_on_c, 0, 49, 0
4, 75360, Note_on_c, 0, 47, 64
4, 75405, Note_on_c, 0, 47, 0
4, 75408, Note_on_c, 0, 45, 64
4, 75453, Note_on_c, 0, 45, 0
4, 75456, Note_on_c, 0, 45, 64
4, 75501, Note_on_c, 0, 45, 0
4, 75504, Note_on_c, 0, 44, 64
4, 75549, Note_on_c, 0, 44, 0
4, 75552, Note_on_c, 0, 42, 64
4, 75597, Note_on_c, 0, 42, 0
4, 75600, Note_on_c, 0, 40, 64
4, 75645, Note_on_c, 0, 40, 0
4, 75648, Note_on_c, 0, 45, 64
4, 75737, Note_on_c, 0, 45, 0
4, 75744, Note_on_c, 0, 57, 64
4, 75789, Note_on_c, 0, 57, 0
4, 75792, Note_on_c, 0, 56, 64
4, 75837, Note_on_c, 0, 56, 0
4, 75840, Note_on_c, 0, 54, 64
4, 75885, Note_on_c, 0, 54, 0
4, 75888, Note_on_c, 0, 52, 64
4, 75933, Note_on_c, 0, 52, 0
4, 75936, Note_on_c, 0, 50, 64
4, 75981, Note_on_c, 0, 50, 0
4, 75984, Note_on_c, 0, 49, 64
4, 76029, Note_on_c, 0, 49, 0
4, 76032, Note_on_c, 0, 48, 64
4, 76077, Note_on_c, 0, 48, 0
4, 76080, Note_on_c, 0, 49, 64
4, 76125, Note_on_c, 0, 49, 0
4, 76128, Note_on_c, 0, 51, 64
4, 76173, Note_on_c, 0, 51, 0
4, 76176, Note_on_c, 0, 48, 64
4, 76221, Note_on_c, 0, 48, 0
4, 76224, Note_on_c, 0, 44, 64
4, 76461, Note_on_c, 0, 44, 0
4, 76464, Note_on_c, 0, 46, 64
4, 76509, Note_on_c, 0, 46, 0
4, 76512, Note_on_c, 0, 48, 64
4, 76557, Note_on_c, 0, 48, 0
4, 76560, Note_on_c, 0, 46, 64
4, 76605, Note_on_c, 0, 46, 0
4, 76608, Note_on_c, 0, 49, 64
4, 76653, Note_on_c, 0, 49, 0
4, 76656, Note_on_c, 0, 48, 64
4, 76701, Note_on_c, 0, 48, 0
4, 76704, Note_on_c, 0, 46, 64
4, 76749, Note_on_c, 0, 46, 0
4, 76752, Note_on_c, 0, 44, 64
4, 76797, Note_on_c, 0, 44, 0
4, 76800, Note_on_c, 0, 49, 64
4, 76889, Note_on_c, 0, 49, 0
4, 76896, Note_on_c, 0, 47, 64
4, 76985, Note_on_c, 0, 47, 0
4, 76992, Note_on_c, 0, 45, 64
4, 77169, Note_on_c, 0, 45, 0
4, 77184, Note_on_c, 0, 44, 64
4, 77421, Note_on_c, 0, 44, 0
4, 77424, Note_on_c, 0, 42, 64
4, 77469, Note_on_c, 0, 42, 0
4, 77472, Note_on_c, 0, 40, 64
4, 77517, Note_on_c, 0, 40, 0
4, 77520, Note_on_c, 0, 39, 64
4, 77565, Note_on_c, 0, 39, 0
4, 77568, Note_on_c, 0, 37, 64
4, 77657, Note_on_c, 0, 37, 0
4, 77664, Note_on_c, 0, 49, 64
4, 77805, Note_on_c, 0, 49, 0
4, 77808, Note_on_c, 0, 47, 64
4, 77853, Note_on_c, 0, 47, 0
4, 77856, Note_on_c, 0, 45, 64
4, 77901, Note_on_c, 0, 45, 0
4, 77904, Note_on_c, 0, 44, 64
4, 77949, Note_on_c, 0, 44, 0
4, 77952, Note_on_c, 0, 42, 64
4, 78041, Note_on_c, 0, 42, 0
4, 78048, Note_on_c, 0, 54, 64
4, 78189, Note_on_c, 0, 54, 0
4, 78192, Note_on_c, 0, 51, 64
4, 78237, Note_on_c, 0, 51, 0
4, 78240, Note_on_c, 0, 52, 64
4, 78285, Note_on_c, 0, 52, 0
4, 78288, Note_on_c, 0, 48, 64
4, 78333, Note_on_c, 0, 48, 0
4, 78336, Note_on_c, 0, 49, 64
4, 78381, Note_on_c, 0, 49, 0
4, 78384, Note_on_c, 0, 44, 64
4, 78429, Note_on_c, 0, 44, 0
4, 78432, Note_on_c, 0, 45, 64
4, 78477, Note_on_c, 0, 45, 0
4, 78480, Note_on_c, 0, 42, 64
4, 78525, Note_on_c, 0, 42, 0
4, 78528, Note_on_c, 0, 44, 64
4, 78617, Note_on_c, 0, 44, 0
4, 78624, Note_on_c, 0, 44, 64
4, 78713, Note_on_c, 0, 44, 0
4, 78720, Note_on_c, 0, 37, 64
4, 78809, Note_on_c, 0, 37, 0
4, 78816, Note_on_c, 0, 38, 64
4, 78861, Note_on_c, 0, 38, 0
4, 78864, Note_on_c, 0, 40, 64
4, 78909, Note_on_c, 0, 40, 0
4, 78912, Note_on_c, 0, 42, 64
4, 78957, Note_on_c, 0, 42, 0
4, 78960, Note_on_c, 0, 44, 64
4, 79005, Note_on_c, 0, 44, 0
4, 79008, Note_on_c, 0, 45, 64
4, 79053, Note_on_c, 0, 45, 0
4, 79056, Note_on_c, 0, 47, 64
4, 79101, Note_on_c, 0, 47, 0
4, 79104, Note_on_c, 0, 49, 64
4, 79193, Note_on_c, 0, 49, 0
4, 79200, Note_on_c, 0, 47, 64
4, 79289, Note_on_c, 0, 47, 0
4, 79296, Note_on_c, 0, 49, 64
4, 79385, Note_on_c, 0, 49, 0
4, 79392, Note_on_c, 0, 45, 64
4, 79481, Note_on_c, 0, 45, 0
4, 79488, Note_on_c, 0, 44, 64
4, 79577, Note_on_c, 0, 44, 0
4, 79584, Note_on_c, 0, 42, 64
4, 79673, Note_on_c, 0, 42, 0
4, 79680, Note_on_c, 0, 44, 64
4, 79769, Note_on_c, 0, 44, 0
4, 79776, Note_on_c, 0, 40, 64
4, 79865, Note_on_c, 0, 40, 0
4, 79872, Note_on_c, 0, 45, 64
4, 79961, Note_on_c, 0, 45, 0
4, 79968, Note_on_c, 0, 52, 64
4, 80057, Note_on_c, 0, 52, 0
4, 80064, Note_on_c, 0, 57, 64
4, 80153, Note_on_c, 0, 57, 0
4, 80160, Note_on_c, 0, 59, 64
4, 80249, Note_on_c, 0, 59, 0
4, 80256, Note_on_c, 0, 61, 64
4, 80345, Note_on_c, 0, 61, 0
4, 80352, Note_on_c, 0, 59, 64
4, 80397, Note_on_c, 0, 59, 0
4, 80400, Note_on_c, 0, 61, 64
4, 80445, Note_on_c, 0, 61, 0
4, 80448, Note_on_c, 0, 62, 64
4, 80493, Note_on_c, 0, 62, 0
4, 80496, Note_on_c, 0, 61, 64
4, 80541, Note_on_c, 0, 61, 0
4, 80544, Note_on_c, 0, 59, 64
4, 80589, Note_on_c, 0, 59, 0
4, 80592, Note_on_c, 0, 57, 64
4, 80637, Note_on_c, 0, 57, 0
4, 80640, Note_on_c, 0, 56, 64
4, 80729, Note_on_c, 0, 56, 0
4, 80736, Note_on_c, 0, 57, 64
4, 80825, Note_on_c, 0, 57, 0
4, 80832, Note_on_c, 0, 50, 64
4, 80921, Note_on_c, 0, 50, 0
4, 80928, Note_on_c, 0, 52, 64
4, 81017, Note_on_c, 0, 52, 0
4, 81024, Note_on_c, 0, 45, 64
4, 81113, Note_on_c, 0, 45, 0
4, 81120, Note_on_c, 0, 57, 64
4, 81209, Note_on_c, 0, 57, 0
4, 81216, Note_on_c, 0, 56, 64
4, 81305, Note_on_c, 0, 56, 0
4, 81312, Note_on_c, 0, 54, 64
4, 81401, Note_on_c, 0, 54, 0
4, 81408, Note_on_c, 0, 52, 64
4, 81497, Note_on_c, 0, 52, 0
4, 81504, Note_on_c, 0, 54, 64
4, 81593, Note_on_c, 0, 54, 0
4, 81600, Note_on_c, 0, 56, 64
4, 81689, Note_on_c, 0, 56, 0
4, 81696, Note_on_c, 0, 52, 64
4, 81785, Note_on_c, 0, 52, 0
4, 81792, Note_on_c, 0, 51, 64
4, 81881, Note_on_c, 0, 51, 0
4, 81888, Note_on_c, 0, 49, 64
4, 81977, Note_on_c, 0, 49, 0
4, 81984, Note_on_c, 0, 51, 64
4, 82073, Note_on_c, 0, 51, 0
4, 82080, Note_on_c, 0, 47, 64
4, 82169, Note_on_c, 0, 47, 0
4, 82176, Note_on_c, 0, 40, 64
4, 82265, Note_on_c, 0, 40, 0
4, 82272, Note_on_c, 0, 47, 64
4, 82361, Note_on_c, 0, 47, 0
4, 82368, Note_on_c, 0, 52, 64
4, 82457, Note_on_c, 0, 52, 0
4, 82464, Note_on_c, 0, 54, 64
4, 82553, Note_on_c, 0, 54, 0
4, 82560, Note_on_c, 0, 56, 64
4, 82649, Note_on_c, 0, 56, 0
4, 82656, Note_on_c, 0, 54, 64
4, 82701, Note_on_c, 0, 54, 0
4, 82704, Note_on_c, 0, 56, 64
4, 82749, Note_on_c, 0, 56, 0
4, 82752, Note_on_c, 0, 57, 64
4, 82797, Note_on_c, 0, 57, 0
4, 82800, Note_on_c, 0, 56, 64
4, 82845, Note_on_c, 0, 56, 0
4, 82848, Note_on_c, 0, 54, 64
4, 82893, Note_on_c, 0, 54, 0
4, 82896, Note_on_c, 0, 52, 64
4, 82941, Note_on_c, 0, 52, 0
4, 82944, Note_on_c, 0, 59, 64
4, 83033, Note_on_c, 0, 59, 0
4, 83040, Note_on_c, 0, 61, 64
4, 83129, Note_on_c, 0, 61, 0
4, 83136, Note_on_c, 0, 57, 64
4, 83225, Note_on_c, 0, 57, 0
4, 83232, Note_on_c, 0, 59, 64
4, 83321, Note_on_c, 0, 59, 0
4, 83328, Note_on_c, 0, 52, 64
4, 83417, Note_on_c, 0, 52, 0
4, 83424, Note_on_c, 0, 64, 64
4, 83513, Note_on_c, 0, 64, 0
4, 83520, Note_on_c, 0, 62, 64
4, 83609, Note_on_c, 0, 62, 0
4, 83616, Note_on_c, 0, 61, 64
4, 83705, Note_on_c, 0, 61, 0
4, 83712, Note_on_c, 0, 59, 64
4, 83757, Note_on_c, 0, 59, 0
4, 83760, Note_on_c, 0, 61, 64
4, 83805, Note_on_c, 0, 61, 0
4, 83808, Note_on_c, 0, 62, 64
4, 83853, Note_on_c, 0, 62, 0
4, 83856, Note_on_c, 0, 61, 64
4, 83901, Note_on_c, 0, 61, 0
4, 83904, Note_on_c, 0, 59, 64
4, 83949, Note_on_c, 0, 59, 0
4, 83952, Note_on_c, 0, 57, 64
4, 83997, Note_on_c, 0, 57, 0
4, 84000, Note_on_c, 0, 56, 64
4, 84045, Note_on_c, 0, 56, 0
4, 84048, Note_on_c, 0, 54, 64
4, 84093, Note_on_c, 0, 54, 0
4, 84096, Note_on_c, 0, 52, 64
4, 84141, Note_on_c, 0, 52, 0
4, 84144, Note_on_c, 0, 54, 64
4, 84189, Note_on_c, 0, 54, 0
4, 84192, Note_on_c, 0, 56, 64
4, 84237, Note_on_c, 0, 56, 0
4, 84240, Note_on_c, 0, 54, 64
4, 84285, Note_on_c, 0, 54, 0
4, 84288, Note_on_c, 0, 52, 64
4, 84333, Note_on_c, 0, 52, 0
4, 84336, Note_on_c, 0, 50, 64
4, 84381, Note_on_c, 0, 50, 0
4, 84384, Note_on_c, 0, 49, 64
4, 84429, Note_on_c, 0, 49, 0
4, 84432, Note_on_c, 0, 47, 64
4, 84477, Note_on_c, 0, 47, 0
4, 84480, Note_on_c, 0, 45, 64
4, 84525, Note_on_c, 0, 45, 0
4, 84528, Note_on_c, 0, 47, 64
4, 84573, Note_on_c, 0, 47, 0
4, 84576, Note_on_c, 0, 49, 64
4, 84621, Note_on_c, 0, 49, 0
4, 84624, Note_on_c, 0, 47, 64
4, 84669, Note_on_c, 0, 47, 0
4, 84672, Note_on_c, 0, 45, 64
4, 84717, Note_on_c, 0, 45, 0
4, 84720, Note_on_c, 0, 44, 64
4, 84765, Note_on_c, 0, 44, 0
4, 84768, Note_on_c, 0, 42, 64
4, 84813, Note_on_c, 0, 42, 0
4, 84816, Note_on_c, 0, 40, 64
4, 84861, Note_on_c, 0, 40, 0
4, 84864, Note_on_c, 0, 38, 64
4, 85041, Note_on_c, 0, 38, 0
4, 85056, Note_on_c, 0, 50, 64
4, 85337, Note_on_c, 0, 50, 0
4, 85344, Note_on_c, 0, 52, 64
4, 85389, Note_on_c, 0, 52, 0
4, 85392, Note_on_c, 0, 54, 64
4, 85437, Note_on_c, 0, 54, 0
4, 85440, Note_on_c, 0, 52, 64
4, 85485, Note_on_c, 0, 52, 0
4, 85488, Note_on_c, 0, 50, 64
4, 85533, Note_on_c, 0, 50, 0
4, 85536, Note_on_c, 0, 49, 64
4, 85581, Note_on_c, 0, 49, 0
4, 85584, Note_on_c, 0, 47, 64
4, 85629, Note_on_c, 0, 47, 0
4, 85632, Note_on_c, 0, 49, 64
4, 85986, Note_on_c, 0, 49, 0
4, 86016, Note_on_c, 0, 49, 64
4, 86105, Note_on_c, 0, 49, 0
4, 86112, Note_on_c, 0, 50, 64
4, 86157, Note_on_c, 0, 50, 0
4, 86160, Note_on_c, 0, 52, 64
4, 86205, Note_on_c, 0, 52, 0
4, 86208, Note_on_c, 0, 50, 64
4, 86253, Note_on_c, 0, 50, 0
4, 86256, Note_on_c, 0, 49, 64
4, 86301, Note_on_c, 0, 49, 0
4, 86304, Note_on_c, 0, 47, 64
4, 86349, Note_on_c, 0, 47, 0
4, 86352, Note_on_c, 0, 45, 64
4, 86397, Note_on_c, 0, 45, 0
4, 86400, Note_on_c, 0, 52, 64
4, 86577, Note_on_c, 0, 52, 0
4, 86592, Note_on_c, 0, 40, 64
4, 86681, Note_on_c, 0, 40, 0
4, 86688, Note_on_c, 0, 44, 64
4, 86777, Note_on_c, 0, 44, 0
4, 86784, Note_on_c, 0, 45, 64
4, 86873, Note_on_c, 0, 45, 0
4, 86880, Note_on_c, 0, 45, 64
4, 86903, Note_on_c, 0, 45, 0
4, 86904, Note_on_c, 0, 47, 64
4, 86927, Note_on_c, 0, 47, 0
4, 86928, Note_on_c, 0, 49, 64
4, 86973, Note_on_c, 0, 49, 0
4, 86976, Note_on_c, 0, 47, 64
4, 87065, Note_on_c, 0, 47, 0
4, 87072, Note_on_c, 0, 47, 64
4, 87095, Note_on_c, 0, 47, 0
4, 87096, Note_on_c, 0, 49, 64
4, 87119, Note_on_c, 0, 49, 0
4, 87120, Note_on_c, 0, 50, 64
4, 87165, Note_on_c, 0, 50, 0
4, 87168, Note_on_c, 0, 49, 64
4, 87345, Note_on_c, 0, 49, 0
4, 87456, Note_on_c, 0, 50, 64
4, 87545, Note_on_c, 0, 50, 0
4, 87552, Note_on_c, 0, 52, 64
4, 87641, Note_on_c, 0, 52, 0
4, 87648, Note_on_c, 0, 50, 64
4, 87737, Note_on_c, 0, 50, 0
4, 87744, Note_on_c, 0, 52, 64
4, 87833, Note_on_c, 0, 52, 0
4, 87840, Note_on_c, 0, 40, 64
4, 87929, Note_on_c, 0, 40, 0
4, 87936, Note_on_c, 0, 45, 64
4, 88290, Note_on_c, 0, 45, 0
4, 88290, End_track
5, 0, Start_track
5, 0, MIDI_port, 0
5, 0, Title_t, "Sonata No. 2 en A mayor"
5, 0, End_track
6, 0, Start_track
6, 0, MIDI_port, 0
6, 0, Title_t, "para violin y clavicembalo"
6, 0, End_track
7, 0, Start_track
7, 0, MIDI_port, 0
7, 0, Title_t, "Cuarto Movimiento: Presto"
7, 0, End_track
8, 0, Start_track
8, 0, MIDI_port, 0
8, 0, Title_t, "J. S. Bach (1685-1750)"
8, 0, End_track
9, 0, Start_track
9, 0, MIDI_port, 0
9, 0, Title_t, "Copyright Luis Gerardo Barajas"
9, 0, End_track
10, 0, Start_track
10, 0, MIDI_port, 0
10, 0, Title_t, "***** Bach Keeps Ruling"
10, 0, End_track
0, 0, End_of_file
