0, 0, Header, 1, 10, 96
1, 0, Start_track
1, 0, Sequencer_specific, 3, 0, 0, 65
1, 0, Time_signature, 4, 2, 24, 8
1, 0, Key_signature, 4, "major"
1, 0, Tempo, 333333
1, 54010, Tempo, 337079
1, 54070, Tempo, 340909
1, 54150, Tempo, 348837
1, 54170, Tempo, 352941
1, 54230, Tempo, 357143
1, 54330, Tempo, 365854
1, 54450, Tempo, 379747
1, 54490, Tempo, 384615
1, 54510, Tempo, 394737
1, 54530, Tempo, 400000
1, 54550, Tempo, 416667
1, 54570, Tempo, 434783
1, 54590, Tempo, 476190
1, 54630, Tempo, 526316
1, 54650, Tempo, 545455
1, 54670, Tempo, 576923
1, 54690, Tempo, 612245
1, 54750, Tempo, 625000
1, 54770, Tempo, 652174
1, 54830, Tempo, 666667
1, 54910, Tempo, 697674
1, 54970, Tempo, 545455
1, 54990, Tempo, 625000
1, 55010, Tempo, 370370
1, 55030, Tempo, 365854
1, 55070, Tempo, 357143
1, 55090, Tempo, 344828
1, 55130, Tempo, 337079
1, 55150, Tempo, 326087
1, 55190, Tempo, 322581
1, 55230, Tempo, 315789
1, 55270, Tempo, 309278
1, 55370, Tempo, 306122
1, 55390, Tempo, 303030
1, 55510, Tempo, 535714
1, 55550, Tempo, 588235
1, 55630, Tempo, 491803
1, 55750, Tempo, 576923
1, 55850, Tempo, 566038
1, 55910, Tempo, 555556
1, 55910, End_track
2, 0, Start_track
2, 0, MIDI_port, 0
2, 0, Title_t, "Violin"
2, 0, Program_c, 1, 40
2, 0, Control_c, 1, 7, 127
2, 3072, Note_on_c, 1, 75, 64
2, 3117, Note_on_c, 1, 75, 0
2, 3120, Note_on_c, 1, 76, 64
2, 3165, Note_on_c, 1, 76, 0
2, 3168, Note_on_c, 1, 78, 64
2, 3257, Note_on_c, 1, 78, 0
2, 3264, Note_on_c, 1, 78, 64
2, 3441, Note_on_c, 1, 78, 0
2, 3456, Note_on_c, 1, 78, 64
2, 3545, Note_on_c, 1, 78, 0
2, 3552, Note_on_c, 1, 78, 64
2, 3597, Note_on_c, 1, 78, 0
2, 3600, Note_on_c, 1, 80, 64
2, 3645, Note_on_c, 1, 80, 0
2, 3648, Note_on_c, 1, 78, 64
2, 3693, Note_on_c, 1, 78, 0
2, 3696, Note_on_c, 1, 76, 64
2, 3741, Note_on_c, 1, 76, 0
2, 3744, Note_on_c, 1, 75, 64
2, 3833, Note_on_c, 1, 75, 0
2, 3840, Note_on_c, 1, 76, 64
2, 4017, Note_on_c, 1, 76, 0
2, 4032, Note_on_c, 1, 73, 64
2, 4121, Note_on_c, 1, 73, 0
2, 4128, Note_on_c, 1, 73, 64
2, 4173, Note_on_c, 1, 73, 0
2, 4176, Note_on_c, 1, 75, 64
2, 4221, Note_on_c, 1, 75, 0
2, 4224, Note_on_c, 1, 76, 64
2, 4269, Note_on_c, 1, 76, 0
2, 4272, Note_on_c, 1, 75, 64
2, 4317, Note_on_c, 1, 75, 0
2, 4320, Note_on_c, 1, 76, 64
2, 4365, Note_on_c, 1, 76, 0
2, 4368, Note_on_c, 1, 78, 64
2, 4413, Note_on_c, 1, 78, 0
2, 4416, Note_on_c, 1, 76, 64
2, 4461, Note_on_c, 1, 76, 0
2, 4464, Note_on_c, 1, 75, 64
2, 4509, Note_on_c, 1, 75, 0
2, 4512, Note_on_c, 1, 73, 64
2, 4557, Note_on_c, 1, 73, 0
2, 4560, Note_on_c, 1, 76, 64
2, 4605, Note_on_c, 1, 76, 0
2, 4608, Note_on_c, 1, 75, 64
2, 4653, Note_on_c, 1, 75, 0
2, 4656, Note_on_c, 1, 73, 64
2, 4701, Note_on_c, 1, 73, 0
2, 4704, Note_on_c, 1, 75, 64
2, 4749, Note_on_c, 1, 75, 0
2, 4752, Note_on_c, 1, 76, 64
2, 4797, Note_on_c, 1, 76, 0
2, 4800, Note_on_c, 1, 75, 64
2, 4845, Note_on_c, 1, 75, 0
2, 4848, Note_on_c, 1, 73, 64
2, 4893, Note_on_c, 1, 73, 0
2, 4896, Note_on_c, 1, 71, 64
2, 4941, Note_on_c, 1, 71, 0
2, 4944, Note_on_c, 1, 75, 64
2, 4989, Note_on_c, 1, 75, 0
2, 4992, Note_on_c, 1, 76, 64
2, 5037, Note_on_c, 1, 76, 0
2, 5040, Note_on_c, 1, 75, 64
2, 5085, Note_on_c, 1, 75, 0
2, 5088, Note_on_c, 1, 76, 64
2, 5133, Note_on_c, 1, 76, 0
2, 5136, Note_on_c, 1, 78, 64
2, 5181, Note_on_c, 1, 78, 0
2, 5184, Note_on_c, 1, 76, 64
2, 5229, Note_on_c, 1, 76, 0
2, 5232, Note_on_c, 1, 75, 64
2, 5277, Note_on_c, 1, 75, 0
2, 5280, Note_on_c, 1, 73, 64
2, 5325, Note_on_c, 1, 73, 0
2, 5328, Note_on_c, 1, 76, 64
2, 5373, Note_on_c, 1, 76, 0
2, 5376, Note_on_c, 1, 78, 64
2, 5421, Note_on_c, 1, 78, 0
2, 5424, Note_on_c, 1, 76, 64
2, 5469, Note_on_c, 1, 76, 0
2, 5472, Note_on_c, 1, 78, 64
2, 5517, Note_on_c, 1, 78, 0
2, 5520, Note_on_c, 1, 80, 64
2, 5565, Note_on_c, 1, 80, 0
2, 5568, Note_on_c, 1, 78, 64
2, 5613, Note_on_c, 1, 78, 0
2, 5616, Note_on_c, 1, 76, 64
2, 5661, Note_on_c, 1, 76, 0
2, 5664, Note_on_c, 1, 75, 64
2, 5709, Note_on_c, 1, 75, 0
2, 5712, Note_on_c, 1, 76, 64
2, 5757, Note_on_c, 1, 76, 0
2, 5760, Note_on_c, 1, 73, 64
2, 5849, Note_on_c, 1, 73, 0
2, 5856, Note_on_c, 1, 66, 64
2, 5901, Note_on_c, 1, 66, 0
2, 5904, Note_on_c, 1, 68, 64
2, 5949, Note_on_c, 1, 68, 0
2, 5952, Note_on_c, 1, 70, 64
2, 5997, Note_on_c, 1, 70, 0
2, 6000, Note_on_c, 1, 71, 64
2, 6045, Note_on_c, 1, 71, 0
2, 6048, Note_on_c, 1, 73, 64
2, 6093, Note_on_c, 1, 73, 0
2, 6096, Note_on_c, 1, 75, 64
2, 6141, Note_on_c, 1, 75, 0
2, 6144, Note_on_c, 1, 76, 64
2, 6189, Note_on_c, 1, 76, 0
2, 6192, Note_on_c, 1, 78, 64
2, 6237, Note_on_c, 1, 78, 0
2, 6240, Note_on_c, 1, 80, 64
2, 6329, Note_on_c, 1, 80, 0
2, 6336, Note_on_c, 1, 80, 64
2, 6513, Note_on_c, 1, 80, 0
2, 6528, Note_on_c, 1, 73, 64
2, 6573, Note_on_c, 1, 73, 0
2, 6576, Note_on_c, 1, 75, 64
2, 6621, Note_on_c, 1, 75, 0
2, 6624, Note_on_c, 1, 76, 64
2, 6713, Note_on_c, 1, 76, 0
2, 6720, Note_on_c, 1, 76, 64
2, 6897, Note_on_c, 1, 76, 0
2, 6912, Note_on_c, 1, 75, 64
2, 6957, Note_on_c, 1, 75, 0
2, 6960, Note_on_c, 1, 76, 64
2, 7005, Note_on_c, 1, 76, 0
2, 7008, Note_on_c, 1, 78, 64
2, 7097, Note_on_c, 1, 78, 0
2, 7104, Note_on_c, 1, 78, 64
2, 7281, Note_on_c, 1, 78, 0
2, 7296, Note_on_c, 1, 71, 64
2, 7341, Note_on_c, 1, 71, 0
2, 7344, Note_on_c, 1, 73, 64
2, 7389, Note_on_c, 1, 73, 0
2, 7392, Note_on_c, 1, 75, 64
2, 7481, Note_on_c, 1, 75, 0
2, 7488, Note_on_c, 1, 75, 64
2, 7769, Note_on_c, 1, 75, 0
2, 7776, Note_on_c, 1, 73, 64
2, 7821, Note_on_c, 1, 73, 0
2, 7824, Note_on_c, 1, 71, 64
2, 7869, Note_on_c, 1, 71, 0
2, 7872, Note_on_c, 1, 73, 64
2, 7917, Note_on_c, 1, 73, 0
2, 7920, Note_on_c, 1, 75, 64
2, 7965, Note_on_c, 1, 75, 0
2, 7968, Note_on_c, 1, 76, 64
2, 8057, Note_on_c, 1, 76, 0
2, 8064, Note_on_c, 1, 70, 64
2, 8153, Note_on_c, 1, 70, 0
2, 8160, Note_on_c, 1, 68, 64
2, 8205, Note_on_c, 1, 68, 0
2, 8208, Note_on_c, 1, 66, 64
2, 8253, Note_on_c, 1, 66, 0
2, 8256, Note_on_c, 1, 78, 64
2, 8345, Note_on_c, 1, 78, 0
2, 8352, Note_on_c, 1, 76, 64
2, 8441, Note_on_c, 1, 76, 0
2, 8448, Note_on_c, 1, 75, 64
2, 8493, Note_on_c, 1, 75, 0
2, 8496, Note_on_c, 1, 76, 64
2, 8541, Note_on_c, 1, 76, 0
2, 8544, Note_on_c, 1, 78, 64
2, 8589, Note_on_c, 1, 78, 0
2, 8592, Note_on_c, 1, 75, 64
2, 8637, Note_on_c, 1, 75, 0
2, 8640, Note_on_c, 1, 76, 64
2, 8685, Note_on_c, 1, 76, 0
2, 8688, Note_on_c, 1, 75, 64
2, 8733, Note_on_c, 1, 75, 0
2, 8736, Note_on_c, 1, 76, 64
2, 8781, Note_on_c, 1, 76, 0
2, 8784, Note_on_c, 1, 73, 64
2, 8829, Note_on_c, 1, 73, 0
2, 8832, Note_on_c, 1, 71, 64
2, 9009, Note_on_c, 1, 71, 0
2, 9600, Note_on_c, 1, 76, 64
2, 9777, Note_on_c, 1, 76, 0
2, 9792, Note_on_c, 1, 71, 64
2, 9881, Note_on_c, 1, 71, 0
2, 9888, Note_on_c, 1, 71, 64
2, 9933, Note_on_c, 1, 71, 0
2, 9936, Note_on_c, 1, 73, 64
2, 9981, Note_on_c, 1, 73, 0
2, 9984, Note_on_c, 1, 74, 64
2, 10073, Note_on_c, 1, 74, 0
2, 10080, Note_on_c, 1, 74, 64
2, 10125, Note_on_c, 1, 74, 0
2, 10128, Note_on_c, 1, 76, 64
2, 10173, Note_on_c, 1, 76, 0
2, 10176, Note_on_c, 1, 74, 64
2, 10221, Note_on_c, 1, 74, 0
2, 10224, Note_on_c, 1, 73, 64
2, 10269, Note_on_c, 1, 73, 0
2, 10272, Note_on_c, 1, 71, 64
2, 10361, Note_on_c, 1, 71, 0
2, 10368, Note_on_c, 1, 73, 64
2, 10413, Note_on_c, 1, 73, 0
2, 10416, Note_on_c, 1, 71, 64
2, 10461, Note_on_c, 1, 71, 0
2, 10464, Note_on_c, 1, 73, 64
2, 10509, Note_on_c, 1, 73, 0
2, 10512, Note_on_c, 1, 74, 64
2, 10557, Note_on_c, 1, 74, 0
2, 10560, Note_on_c, 1, 73, 64
2, 10605, Note_on_c, 1, 73, 0
2, 10608, Note_on_c, 1, 71, 64
2, 10653, Note_on_c, 1, 71, 0
2, 10656, Note_on_c, 1, 69, 64
2, 10701, Note_on_c, 1, 69, 0
2, 10704, Note_on_c, 1, 73, 64
2, 10749, Note_on_c, 1, 73, 0
2, 10752, Note_on_c, 1, 71, 64
2, 10797, Note_on_c, 1, 71, 0
2, 10800, Note_on_c, 1, 69, 64
2, 10845, Note_on_c, 1, 69, 0
2, 10848, Note_on_c, 1, 71, 64
2, 10893, Note_on_c, 1, 71, 0
2, 10896, Note_on_c, 1, 73, 64
2, 10941, Note_on_c, 1, 73, 0
2, 10944, Note_on_c, 1, 71, 64
2, 10989, Note_on_c, 1, 71, 0
2, 10992, Note_on_c, 1, 69, 64
2, 11037, Note_on_c, 1, 69, 0
2, 11040, Note_on_c, 1, 68, 64
2, 11085, Note_on_c, 1, 68, 0
2, 11088, Note_on_c, 1, 71, 64
2, 11133, Note_on_c, 1, 71, 0
2, 11136, Note_on_c, 1, 69, 64
2, 11181, Note_on_c, 1, 69, 0
2, 11184, Note_on_c, 1, 68, 64
2, 11229, Note_on_c, 1, 68, 0
2, 11232, Note_on_c, 1, 69, 64
2, 11277, Note_on_c, 1, 69, 0
2, 11280, Note_on_c, 1, 71, 64
2, 11325, Note_on_c, 1, 71, 0
2, 11328, Note_on_c, 1, 73, 64
2, 11373, Note_on_c, 1, 73, 0
2, 11376, Note_on_c, 1, 71, 64
2, 11421, Note_on_c, 1, 71, 0
2, 11424, Note_on_c, 1, 69, 64
2, 11469, Note_on_c, 1, 69, 0
2, 11472, Note_on_c, 1, 68, 64
2, 11517, Note_on_c, 1, 68, 0
2, 11520, Note_on_c, 1, 66, 64
2, 11565, Note_on_c, 1, 66, 0
2, 11568, Note_on_c, 1, 68, 64
2, 11613, Note_on_c, 1, 68, 0
2, 11616, Note_on_c, 1, 69, 64
2, 11705, Note_on_c, 1, 69, 0
2, 11712, Note_on_c, 1, 69, 64
2, 11889, Note_on_c, 1, 69, 0
2, 11904, Note_on_c, 1, 68, 64
2, 11949, Note_on_c, 1, 68, 0
2, 11952, Note_on_c, 1, 66, 64
2, 11997, Note_on_c, 1, 66, 0
2, 12000, Note_on_c, 1, 68, 64
2, 12045, Note_on_c, 1, 68, 0
2, 12048, Note_on_c, 1, 69, 64
2, 12093, Note_on_c, 1, 69, 0
2, 12096, Note_on_c, 1, 71, 64
2, 12141, Note_on_c, 1, 71, 0
2, 12144, Note_on_c, 1, 69, 64
2, 12189, Note_on_c, 1, 69, 0
2, 12192, Note_on_c, 1, 71, 64
2, 12237, Note_on_c, 1, 71, 0
2, 12240, Note_on_c, 1, 73, 64
2, 12285, Note_on_c, 1, 73, 0
2, 12288, Note_on_c, 1, 66, 64
2, 12377, Note_on_c, 1, 66, 0
2, 12384, Note_on_c, 1, 75, 64
2, 12525, Note_on_c, 1, 75, 0
2, 12528, Note_on_c, 1, 73, 64
2, 12573, Note_on_c, 1, 73, 0
2, 12576, Note_on_c, 1, 75, 64
2, 12621, Note_on_c, 1, 75, 0
2, 12624, Note_on_c, 1, 71, 64
2, 12669, Note_on_c, 1, 71, 0
2, 12672, Note_on_c, 1, 73, 64
2, 12761, Note_on_c, 1, 73, 0
2, 12768, Note_on_c, 1, 85, 64
2, 12909, Note_on_c, 1, 85, 0
2, 12912, Note_on_c, 1, 83, 64
2, 12957, Note_on_c, 1, 83, 0
2, 12960, Note_on_c, 1, 85, 64
2, 13005, Note_on_c, 1, 85, 0
2, 13008, Note_on_c, 1, 81, 64
2, 13053, Note_on_c, 1, 81, 0
2, 13056, Note_on_c, 1, 83, 64
2, 13485, Note_on_c, 1, 83, 0
2, 13488, Note_on_c, 1, 81, 64
2, 13533, Note_on_c, 1, 81, 0
2, 13536, Note_on_c, 1, 83, 64
2, 13581, Note_on_c, 1, 83, 0
2, 13584, Note_on_c, 1, 85, 64
2, 13629, Note_on_c, 1, 85, 0
2, 13632, Note_on_c, 1, 83, 64
2, 13677, Note_on_c, 1, 83, 0
2, 13680, Note_on_c, 1, 81, 64
2, 13725, Note_on_c, 1, 81, 0
2, 13728, Note_on_c, 1, 80, 64
2, 13773, Note_on_c, 1, 80, 0
2, 13776, Note_on_c, 1, 81, 64
2, 13821, Note_on_c, 1, 81, 0
2, 13824, Note_on_c, 1, 78, 64
2, 14297, Note_on_c, 1, 78, 0
2, 14304, Note_on_c, 1, 75, 64
2, 14349, Note_on_c, 1, 75, 0
2, 14352, Note_on_c, 1, 76, 64
2, 14397, Note_on_c, 1, 76, 0
2, 14400, Note_on_c, 1, 78, 64
2, 14489, Note_on_c, 1, 78, 0
2, 14496, Note_on_c, 1, 80, 64
2, 14585, Note_on_c, 1, 80, 0
2, 14592, Note_on_c, 1, 81, 64
2, 15153, Note_on_c, 1, 81, 0
2, 15168, Note_on_c, 1, 80, 64
2, 15257, Note_on_c, 1, 80, 0
2, 15264, Note_on_c, 1, 80, 64
2, 15309, Note_on_c, 1, 80, 0
2, 15312, Note_on_c, 1, 81, 64
2, 15357, Note_on_c, 1, 81, 0
2, 15360, Note_on_c, 1, 83, 64
2, 15449, Note_on_c, 1, 83, 0
2, 15456, Note_on_c, 1, 83, 64
2, 15501, Note_on_c, 1, 83, 0
2, 15504, Note_on_c, 1, 85, 64
2, 15549, Note_on_c, 1, 85, 0
2, 15552, Note_on_c, 1, 83, 64
2, 15597, Note_on_c, 1, 83, 0
2, 15600, Note_on_c, 1, 81, 64
2, 15645, Note_on_c, 1, 81, 0
2, 15648, Note_on_c, 1, 80, 64
2, 15737, Note_on_c, 1, 80, 0
2, 15744, Note_on_c, 1, 81, 64
2, 15921, Note_on_c, 1, 81, 0
2, 15936, Note_on_c, 1, 78, 64
2, 16025, Note_on_c, 1, 78, 0
2, 16032, Note_on_c, 1, 78, 64
2, 16077, Note_on_c, 1, 78, 0
2, 16080, Note_on_c, 1, 80, 64
2, 16125, Note_on_c, 1, 80, 0
2, 16128, Note_on_c, 1, 81, 64
2, 16173, Note_on_c, 1, 81, 0
2, 16176, Note_on_c, 1, 80, 64
2, 16221, Note_on_c, 1, 80, 0
2, 16224, Note_on_c, 1, 81, 64
2, 16269, Note_on_c, 1, 81, 0
2, 16272, Note_on_c, 1, 83, 64
2, 16317, Note_on_c, 1, 83, 0
2, 16320, Note_on_c, 1, 81, 64
2, 16365, Note_on_c, 1, 81, 0
2, 16368, Note_on_c, 1, 80, 64
2, 16413, Note_on_c, 1, 80, 0
2, 16416, Note_on_c, 1, 78, 64
2, 16461, Note_on_c, 1, 78, 0
2, 16464, Note_on_c, 1, 81, 64
2, 16509, Note_on_c, 1, 81, 0
2, 16512, Note_on_c, 1, 80, 64
2, 16557, Note_on_c, 1, 80, 0
2, 16560, Note_on_c, 1, 78, 64
2, 16605, Note_on_c, 1, 78, 0
2, 16608, Note_on_c, 1, 80, 64
2, 16653, Note_on_c, 1, 80, 0
2, 16656, Note_on_c, 1, 81, 64
2, 16701, Note_on_c, 1, 81, 0
2, 16704, Note_on_c, 1, 80, 64
2, 16749, Note_on_c, 1, 80, 0
2, 16752, Note_on_c, 1, 78, 64
2, 16797, Note_on_c, 1, 78, 0
2, 16800, Note_on_c, 1, 76, 64
2, 16845, Note_on_c, 1, 76, 0
2, 16848, Note_on_c, 1, 80, 64
2, 16893, Note_on_c, 1, 80, 0
2, 16896, Note_on_c, 1, 81, 64
2, 16941, Note_on_c, 1, 81, 0
2, 16944, Note_on_c, 1, 80, 64
2, 16989, Note_on_c, 1, 80, 0
2, 16992, Note_on_c, 1, 81, 64
2, 17037, Note_on_c, 1, 81, 0
2, 17040, Note_on_c, 1, 83, 64
2, 17085, Note_on_c, 1, 83, 0
2, 17088, Note_on_c, 1, 81, 64
2, 17133, Note_on_c, 1, 81, 0
2, 17136, Note_on_c, 1, 80, 64
2, 17181, Note_on_c, 1, 80, 0
2, 17184, Note_on_c, 1, 78, 64
2, 17229, Note_on_c, 1, 78, 0
2, 17232, Note_on_c, 1, 81, 64
2, 17277, Note_on_c, 1, 81, 0
2, 17280, Note_on_c, 1, 83, 64
2, 17325, Note_on_c, 1, 83, 0
2, 17328, Note_on_c, 1, 81, 64
2, 17373, Note_on_c, 1, 81, 0
2, 17376, Note_on_c, 1, 83, 64
2, 17421, Note_on_c, 1, 83, 0
2, 17424, Note_on_c, 1, 85, 64
2, 17469, Note_on_c, 1, 85, 0
2, 17472, Note_on_c, 1, 83, 64
2, 17517, Note_on_c, 1, 83, 0
2, 17520, Note_on_c, 1, 81, 64
2, 17565, Note_on_c, 1, 81, 0
2, 17568, Note_on_c, 1, 80, 64
2, 17613, Note_on_c, 1, 80, 0
2, 17616, Note_on_c, 1, 81, 64
2, 17661, Note_on_c, 1, 81, 0
2, 17664, Note_on_c, 1, 78, 64
2, 18285, Note_on_c, 1, 78, 0
2, 18288, Note_on_c, 1, 81, 64
2, 18333, Note_on_c, 1, 81, 0
2, 18336, Note_on_c, 1, 80, 64
2, 18381, Note_on_c, 1, 80, 0
2, 18384, Note_on_c, 1, 78, 64
2, 18429, Note_on_c, 1, 78, 0
2, 18432, Note_on_c, 1, 77, 64
2, 18477, Note_on_c, 1, 77, 0
2, 18480, Note_on_c, 1, 78, 64
2, 18525, Note_on_c, 1, 78, 0
2, 18528, Note_on_c, 1, 80, 64
2, 18617, Note_on_c, 1, 80, 0
2, 18624, Note_on_c, 1, 80, 64
2, 18801, Note_on_c, 1, 80, 0
2, 18816, Note_on_c, 1, 78, 64
2, 18861, Note_on_c, 1, 78, 0
2, 18864, Note_on_c, 1, 80, 64
2, 18909, Note_on_c, 1, 80, 0
2, 18912, Note_on_c, 1, 81, 64
2, 19001, Note_on_c, 1, 81, 0
2, 19008, Note_on_c, 1, 81, 64
2, 19185, Note_on_c, 1, 81, 0
2, 19200, Note_on_c, 1, 75, 64
2, 19245, Note_on_c, 1, 75, 0
2, 19248, Note_on_c, 1, 76, 64
2, 19293, Note_on_c, 1, 76, 0
2, 19296, Note_on_c, 1, 78, 64
2, 19385, Note_on_c, 1, 78, 0
2, 19392, Note_on_c, 1, 78, 64
2, 19673, Note_on_c, 1, 78, 0
2, 19680, Note_on_c, 1, 76, 64
2, 19725, Note_on_c, 1, 76, 0
2, 19728, Note_on_c, 1, 75, 64
2, 19773, Note_on_c, 1, 75, 0
2, 19776, Note_on_c, 1, 76, 64
2, 19865, Note_on_c, 1, 76, 0
2, 19872, Note_on_c, 1, 80, 64
2, 20057, Note_on_c, 1, 80, 0
2, 20064, Note_on_c, 1, 78, 64
2, 20109, Note_on_c, 1, 78, 0
2, 20112, Note_on_c, 1, 76, 64
2, 20157, Note_on_c, 1, 76, 0
2, 20160, Note_on_c, 1, 78, 64
2, 20249, Note_on_c, 1, 78, 0
2, 20256, Note_on_c, 1, 81, 64
2, 20441, Note_on_c, 1, 81, 0
2, 20448, Note_on_c, 1, 80, 64
2, 20493, Note_on_c, 1, 80, 0
2, 20496, Note_on_c, 1, 78, 64
2, 20541, Note_on_c, 1, 78, 0
2, 20544, Note_on_c, 1, 80, 64
2, 20589, Note_on_c, 1, 80, 0
2, 20592, Note_on_c, 1, 78, 64
2, 20637, Note_on_c, 1, 78, 0
2, 20640, Note_on_c, 1, 76, 64
2, 20685, Note_on_c, 1, 76, 0
2, 20688, Note_on_c, 1, 80, 64
2, 20733, Note_on_c, 1, 80, 0
2, 20736, Note_on_c, 1, 73, 64
2, 20781, Note_on_c, 1, 73, 0
2, 20784, Note_on_c, 1, 76, 64
2, 20829, Note_on_c, 1, 76, 0
2, 20832, Note_on_c, 1, 75, 64
2, 20877, Note_on_c, 1, 75, 0
2, 20880, Note_on_c, 1, 76, 64
2, 20925, Note_on_c, 1, 76, 0
2, 20928, Note_on_c, 1, 78, 64
2, 20973, Note_on_c, 1, 78, 0
2, 20976, Note_on_c, 1, 76, 64
2, 21021, Note_on_c, 1, 76, 0
2, 21024, Note_on_c, 1, 75, 64
2, 21069, Note_on_c, 1, 75, 0
2, 21072, Note_on_c, 1, 78, 64
2, 21117, Note_on_c, 1, 78, 0
2, 21120, Note_on_c, 1, 71, 64
2, 21165, Note_on_c, 1, 71, 0
2, 21168, Note_on_c, 1, 75, 64
2, 21213, Note_on_c, 1, 75, 0
2, 21216, Note_on_c, 1, 73, 64
2, 21261, Note_on_c, 1, 73, 0
2, 21264, Note_on_c, 1, 75, 64
2, 21309, Note_on_c, 1, 75, 0
2, 21312, Note_on_c, 1, 76, 64
2, 21637, Note_on_c, 1, 76, 0
2, 21648, Note_on_c, 1, 78, 64
2, 21693, Note_on_c, 1, 78, 0
2, 21696, Note_on_c, 1, 75, 64
2, 21829, Note_on_c, 1, 75, 0
2, 21840, Note_on_c, 1, 76, 64
2, 21885, Note_on_c, 1, 76, 0
2, 21888, Note_on_c, 1, 76, 64
2, 21933, Note_on_c, 1, 76, 0
2, 21936, Note_on_c, 1, 59, 64
2, 21981, Note_on_c, 1, 59, 0
2, 21984, Note_on_c, 1, 61, 64
2, 22029, Note_on_c, 1, 61, 0
2, 22032, Note_on_c, 1, 63, 64
2, 22077, Note_on_c, 1, 63, 0
2, 22080, Note_on_c, 1, 64, 64
2, 22125, Note_on_c, 1, 64, 0
2, 22128, Note_on_c, 1, 66, 64
2, 22173, Note_on_c, 1, 66, 0
2, 22176, Note_on_c, 1, 68, 64
2, 22221, Note_on_c, 1, 68, 0
2, 22224, Note_on_c, 1, 69, 64
2, 22269, Note_on_c, 1, 69, 0
2, 22272, Note_on_c, 1, 71, 64
2, 22317, Note_on_c, 1, 71, 0
2, 22320, Note_on_c, 1, 64, 64
2, 22365, Note_on_c, 1, 64, 0
2, 22368, Note_on_c, 1, 66, 64
2, 22413, Note_on_c, 1, 66, 0
2, 22416, Note_on_c, 1, 68, 64
2, 22461, Note_on_c, 1, 68, 0
2, 22464, Note_on_c, 1, 69, 64
2, 22509, Note_on_c, 1, 69, 0
2, 22512, Note_on_c, 1, 71, 64
2, 22557, Note_on_c, 1, 71, 0
2, 22560, Note_on_c, 1, 73, 64
2, 22605, Note_on_c, 1, 73, 0
2, 22608, Note_on_c, 1, 75, 64
2, 22653, Note_on_c, 1, 75, 0
2, 22656, Note_on_c, 1, 76, 64
2, 22701, Note_on_c, 1, 76, 0
2, 22704, Note_on_c, 1, 68, 64
2, 22749, Note_on_c, 1, 68, 0
2, 22752, Note_on_c, 1, 69, 64
2, 22797, Note_on_c, 1, 69, 0
2, 22800, Note_on_c, 1, 71, 64
2, 22845, Note_on_c, 1, 71, 0
2, 22848, Note_on_c, 1, 73, 64
2, 22893, Note_on_c, 1, 73, 0
2, 22896, Note_on_c, 1, 75, 64
2, 22941, Note_on_c, 1, 75, 0
2, 22944, Note_on_c, 1, 76, 64
2, 22989, Note_on_c, 1, 76, 0
2, 22992, Note_on_c, 1, 78, 64
2, 23037, Note_on_c, 1, 78, 0
2, 23040, Note_on_c, 1, 80, 64
2, 23085, Note_on_c, 1, 80, 0
2, 23088, Note_on_c, 1, 76, 64
2, 23133, Note_on_c, 1, 76, 0
2, 23136, Note_on_c, 1, 78, 64
2, 23181, Note_on_c, 1, 78, 0
2, 23184, Note_on_c, 1, 80, 64
2, 23229, Note_on_c, 1, 80, 0
2, 23232, Note_on_c, 1, 81, 64
2, 23277, Note_on_c, 1, 81, 0
2, 23280, Note_on_c, 1, 83, 64
2, 23325, Note_on_c, 1, 83, 0
2, 23328, Note_on_c, 1, 85, 64
2, 23373, Note_on_c, 1, 85, 0
2, 23376, Note_on_c, 1, 87, 64
2, 23421, Note_on_c, 1, 87, 0
2, 23424, Note_on_c, 1, 88, 64
2, 23568, Note_on_c, 1, 88, 0
2, 23568, Note_on_c, 1, 87, 64
2, 23613, Note_on_c, 1, 87, 0
2, 23616, Note_on_c, 1, 85, 64
2, 23661, Note_on_c, 1, 85, 0
2, 23664, Note_on_c, 1, 84, 64
2, 23709, Note_on_c, 1, 84, 0
2, 23712, Note_on_c, 1, 85, 64
2, 23757, Note_on_c, 1, 85, 0
2, 23760, Note_on_c, 1, 87, 64
2, 23805, Note_on_c, 1, 87, 0
2, 23808, Note_on_c, 1, 80, 64
2, 24665, Note_on_c, 1, 80, 0
2, 24672, Note_on_c, 1, 68, 64
2, 24761, Note_on_c, 1, 68, 0
2, 24768, Note_on_c, 1, 73, 64
2, 24857, Note_on_c, 1, 73, 0
2, 24864, Note_on_c, 1, 76, 64
2, 24912, Note_on_c, 1, 76, 0
2, 24912, Note_on_c, 1, 75, 64
2, 24957, Note_on_c, 1, 75, 0
2, 24960, Note_on_c, 1, 76, 64
2, 25093, Note_on_c, 1, 76, 0
2, 25104, Note_on_c, 1, 80, 64
2, 25149, Note_on_c, 1, 80, 0
2, 25152, Note_on_c, 1, 78, 64
2, 25241, Note_on_c, 1, 78, 0
2, 25248, Note_on_c, 1, 76, 64
2, 25260, Note_on_c, 1, 76, 0
2, 25260, Note_on_c, 1, 78, 64
2, 25272, Note_on_c, 1, 78, 0
2, 25272, Note_on_c, 1, 75, 64
2, 25295, Note_on_c, 1, 75, 0
2, 25296, Note_on_c, 1, 76, 64
2, 25341, Note_on_c, 1, 76, 0
2, 25344, Note_on_c, 1, 75, 64
2, 25817, Note_on_c, 1, 75, 0
2, 25824, Note_on_c, 1, 80, 64
2, 25913, Note_on_c, 1, 80, 0
2, 25920, Note_on_c, 1, 78, 64
2, 25943, Note_on_c, 1, 78, 0
2, 25944, Note_on_c, 1, 76, 64
2, 25989, Note_on_c, 1, 76, 0
2, 25992, Note_on_c, 1, 75, 64
2, 26015, Note_on_c, 1, 75, 0
2, 26016, Note_on_c, 1, 73, 64
2, 26061, Note_on_c, 1, 73, 0
2, 26064, Note_on_c, 1, 75, 64
2, 26087, Note_on_c, 1, 75, 0
2, 26088, Note_on_c, 1, 72, 64
2, 26111, Note_on_c, 1, 72, 0
2, 26112, Note_on_c, 1, 73, 64
2, 26585, Note_on_c, 1, 73, 0
2, 26592, Note_on_c, 1, 75, 64
2, 26637, Note_on_c, 1, 75, 0
2, 26640, Note_on_c, 1, 76, 64
2, 26685, Note_on_c, 1, 76, 0
2, 26688, Note_on_c, 1, 78, 64
2, 26733, Note_on_c, 1, 78, 0
2, 26736, Note_on_c, 1, 80, 64
2, 26781, Note_on_c, 1, 80, 0
2, 26784, Note_on_c, 1, 81, 64
2, 26829, Note_on_c, 1, 81, 0
2, 26832, Note_on_c, 1, 73, 64
2, 26877, Note_on_c, 1, 73, 0
2, 26880, Note_on_c, 1, 72, 64
2, 26897, Note_on_c, 1, 72, 0
2, 26898, Note_on_c, 1, 73, 64
2, 26915, Note_on_c, 1, 73, 0
2, 26916, Note_on_c, 1, 72, 64
2, 26933, Note_on_c, 1, 72, 0
2, 26934, Note_on_c, 1, 73, 64
2, 26951, Note_on_c, 1, 73, 0
2, 26952, Note_on_c, 1, 72, 64
2, 26969, Note_on_c, 1, 72, 0
2, 26970, Note_on_c, 1, 73, 64
2, 26987, Note_on_c, 1, 73, 0
2, 26988, Note_on_c, 1, 72, 64
2, 27005, Note_on_c, 1, 72, 0
2, 27006, Note_on_c, 1, 73, 64
2, 27023, Note_on_c, 1, 73, 0
2, 27024, Note_on_c, 1, 70, 64
2, 27047, Note_on_c, 1, 70, 0
2, 27048, Note_on_c, 1, 68, 64
2, 27071, Note_on_c, 1, 68, 0
2, 27072, Note_on_c, 1, 68, 64
2, 28461, Note_on_c, 1, 68, 0
2, 28464, Note_on_c, 1, 68, 64
2, 28509, Note_on_c, 1, 68, 0
2, 28512, Note_on_c, 1, 70, 64
2, 28557, Note_on_c, 1, 70, 0
2, 28560, Note_on_c, 1, 72, 64
2, 28605, Note_on_c, 1, 72, 0
2, 28608, Note_on_c, 1, 73, 64
2, 28653, Note_on_c, 1, 73, 0
2, 28656, Note_on_c, 1, 72, 64
2, 28701, Note_on_c, 1, 72, 0
2, 28704, Note_on_c, 1, 73, 64
2, 28749, Note_on_c, 1, 73, 0
2, 28752, Note_on_c, 1, 75, 64
2, 28797, Note_on_c, 1, 75, 0
2, 28800, Note_on_c, 1, 76, 64
2, 29273, Note_on_c, 1, 76, 0
2, 29280, Note_on_c, 1, 75, 64
2, 29325, Note_on_c, 1, 75, 0
2, 29328, Note_on_c, 1, 76, 64
2, 29373, Note_on_c, 1, 76, 0
2, 29376, Note_on_c, 1, 78, 64
2, 29421, Note_on_c, 1, 78, 0
2, 29424, Note_on_c, 1, 76, 64
2, 29469, Note_on_c, 1, 76, 0
2, 29472, Note_on_c, 1, 75, 64
2, 29517, Note_on_c, 1, 75, 0
2, 29520, Note_on_c, 1, 73, 64
2, 29565, Note_on_c, 1, 73, 0
2, 29568, Note_on_c, 1, 72, 64
2, 29922, Note_on_c, 1, 72, 0
2, 29952, Note_on_c, 1, 73, 64
2, 29997, Note_on_c, 1, 73, 0
2, 30000, Note_on_c, 1, 75, 64
2, 30045, Note_on_c, 1, 75, 0
2, 30048, Note_on_c, 1, 76, 64
2, 30093, Note_on_c, 1, 76, 0
2, 30096, Note_on_c, 1, 80, 64
2, 30141, Note_on_c, 1, 80, 0
2, 30144, Note_on_c, 1, 80, 64
2, 30189, Note_on_c, 1, 80, 0
2, 30192, Note_on_c, 1, 76, 64
2, 30237, Note_on_c, 1, 76, 0
2, 30240, Note_on_c, 1, 80, 64
2, 30285, Note_on_c, 1, 80, 0
2, 30288, Note_on_c, 1, 73, 64
2, 30333, Note_on_c, 1, 73, 0
2, 30336, Note_on_c, 1, 72, 64
2, 30381, Note_on_c, 1, 72, 0
2, 30384, Note_on_c, 1, 73, 64
2, 30429, Note_on_c, 1, 73, 0
2, 30432, Note_on_c, 1, 75, 64
2, 30477, Note_on_c, 1, 75, 0
2, 30480, Note_on_c, 1, 80, 64
2, 30525, Note_on_c, 1, 80, 0
2, 30528, Note_on_c, 1, 80, 64
2, 30573, Note_on_c, 1, 80, 0
2, 30576, Note_on_c, 1, 75, 64
2, 30621, Note_on_c, 1, 75, 0
2, 30624, Note_on_c, 1, 80, 64
2, 30669, Note_on_c, 1, 80, 0
2, 30672, Note_on_c, 1, 72, 64
2, 30717, Note_on_c, 1, 72, 0
2, 30720, Note_on_c, 1, 73, 64
2, 30765, Note_on_c, 1, 73, 0
2, 30768, Note_on_c, 1, 75, 64
2, 30813, Note_on_c, 1, 75, 0
2, 30816, Note_on_c, 1, 76, 64
2, 30861, Note_on_c, 1, 76, 0
2, 30864, Note_on_c, 1, 80, 64
2, 30909, Note_on_c, 1, 80, 0
2, 30912, Note_on_c, 1, 80, 64
2, 30957, Note_on_c, 1, 80, 0
2, 30960, Note_on_c, 1, 76, 64
2, 31005, Note_on_c, 1, 76, 0
2, 31008, Note_on_c, 1, 80, 64
2, 31053, Note_on_c, 1, 80, 0
2, 31056, Note_on_c, 1, 71, 64
2, 31101, Note_on_c, 1, 71, 0
2, 31104, Note_on_c, 1, 70, 64
2, 31149, Note_on_c, 1, 70, 0
2, 31152, Note_on_c, 1, 71, 64
2, 31197, Note_on_c, 1, 71, 0
2, 31200, Note_on_c, 1, 73, 64
2, 31245, Note_on_c, 1, 73, 0
2, 31248, Note_on_c, 1, 78, 64
2, 31293, Note_on_c, 1, 78, 0
2, 31296, Note_on_c, 1, 78, 64
2, 31341, Note_on_c, 1, 78, 0
2, 31344, Note_on_c, 1, 73, 64
2, 31389, Note_on_c, 1, 73, 0
2, 31392, Note_on_c, 1, 78, 64
2, 31437, Note_on_c, 1, 78, 0
2, 31440, Note_on_c, 1, 70, 64
2, 31485, Note_on_c, 1, 70, 0
2, 31488, Note_on_c, 1, 71, 64
2, 31533, Note_on_c, 1, 71, 0
2, 31536, Note_on_c, 1, 73, 64
2, 31581, Note_on_c, 1, 73, 0
2, 31584, Note_on_c, 1, 75, 64
2, 31629, Note_on_c, 1, 75, 0
2, 31632, Note_on_c, 1, 78, 64
2, 31677, Note_on_c, 1, 78, 0
2, 31680, Note_on_c, 1, 78, 64
2, 31725, Note_on_c, 1, 78, 0
2, 31728, Note_on_c, 1, 75, 64
2, 31773, Note_on_c, 1, 75, 0
2, 31776, Note_on_c, 1, 78, 64
2, 31821, Note_on_c, 1, 78, 0
2, 31824, Note_on_c, 1, 69, 64
2, 31869, Note_on_c, 1, 69, 0
2, 31872, Note_on_c, 1, 68, 64
2, 31917, Note_on_c, 1, 68, 0
2, 31920, Note_on_c, 1, 69, 64
2, 31965, Note_on_c, 1, 69, 0
2, 31968, Note_on_c, 1, 71, 64
2, 32013, Note_on_c, 1, 71, 0
2, 32016, Note_on_c, 1, 76, 64
2, 32061, Note_on_c, 1, 76, 0
2, 32064, Note_on_c, 1, 76, 64
2, 32109, Note_on_c, 1, 76, 0
2, 32112, Note_on_c, 1, 71, 64
2, 32157, Note_on_c, 1, 71, 0
2, 32160, Note_on_c, 1, 76, 64
2, 32205, Note_on_c, 1, 76, 0
2, 32208, Note_on_c, 1, 68, 64
2, 32253, Note_on_c, 1, 68, 0
2, 32256, Note_on_c, 1, 69, 64
2, 32301, Note_on_c, 1, 69, 0
2, 32304, Note_on_c, 1, 71, 64
2, 32349, Note_on_c, 1, 71, 0
2, 32352, Note_on_c, 1, 73, 64
2, 32397, Note_on_c, 1, 73, 0
2, 32400, Note_on_c, 1, 76, 64
2, 32445, Note_on_c, 1, 76, 0
2, 32448, Note_on_c, 1, 76, 64
2, 32493, Note_on_c, 1, 76, 0
2, 32496, Note_on_c, 1, 73, 64
2, 32541, Note_on_c, 1, 73, 0
2, 32544, Note_on_c, 1, 76, 64
2, 32589, Note_on_c, 1, 76, 0
2, 32592, Note_on_c, 1, 68, 64
2, 32637, Note_on_c, 1, 68, 0
2, 32640, Note_on_c, 1, 66, 64
2, 32685, Note_on_c, 1, 66, 0
2, 32688, Note_on_c, 1, 68, 64
2, 32733, Note_on_c, 1, 68, 0
2, 32736, Note_on_c, 1, 69, 64
2, 32781, Note_on_c, 1, 69, 0
2, 32784, Note_on_c, 1, 75, 64
2, 32829, Note_on_c, 1, 75, 0
2, 32832, Note_on_c, 1, 75, 64
2, 32877, Note_on_c, 1, 75, 0
2, 32880, Note_on_c, 1, 69, 64
2, 32925, Note_on_c, 1, 69, 0
2, 32928, Note_on_c, 1, 75, 64
2, 32973, Note_on_c, 1, 75, 0
2, 32976, Note_on_c, 1, 64, 64
2, 33021, Note_on_c, 1, 64, 0
2, 33024, Note_on_c, 1, 66, 64
2, 33069, Note_on_c, 1, 66, 0
2, 33072, Note_on_c, 1, 68, 64
2, 33117, Note_on_c, 1, 68, 0
2, 33120, Note_on_c, 1, 69, 64
2, 33165, Note_on_c, 1, 69, 0
2, 33168, Note_on_c, 1, 72, 64
2, 33213, Note_on_c, 1, 72, 0
2, 33216, Note_on_c, 1, 72, 64
2, 33261, Note_on_c, 1, 72, 0
2, 33264, Note_on_c, 1, 68, 64
2, 33309, Note_on_c, 1, 68, 0
2, 33312, Note_on_c, 1, 72, 64
2, 33357, Note_on_c, 1, 72, 0
2, 33360, Note_on_c, 1, 66, 64
2, 33405, Note_on_c, 1, 66, 0
2, 33408, Note_on_c, 1, 64, 64
2, 33453, Note_on_c, 1, 64, 0
2, 33456, Note_on_c, 1, 66, 64
2, 33501, Note_on_c, 1, 66, 0
2, 33504, Note_on_c, 1, 68, 64
2, 33549, Note_on_c, 1, 68, 0
2, 33552, Note_on_c, 1, 73, 64
2, 33597, Note_on_c, 1, 73, 0
2, 33600, Note_on_c, 1, 73, 64
2, 33645, Note_on_c, 1, 73, 0
2, 33648, Note_on_c, 1, 70, 64
2, 33693, Note_on_c, 1, 70, 0
2, 33696, Note_on_c, 1, 73, 64
2, 33741, Note_on_c, 1, 73, 0
2, 33744, Note_on_c, 1, 67, 64
2, 33789, Note_on_c, 1, 67, 0
2, 33792, Note_on_c, 1, 63, 64
2, 33837, Note_on_c, 1, 63, 0
2, 33840, Note_on_c, 1, 64, 64
2, 33885, Note_on_c, 1, 64, 0
2, 33888, Note_on_c, 1, 66, 64
2, 33933, Note_on_c, 1, 66, 0
2, 33936, Note_on_c, 1, 72, 64
2, 33981, Note_on_c, 1, 72, 0
2, 33984, Note_on_c, 1, 72, 64
2, 34029, Note_on_c, 1, 72, 0
2, 34032, Note_on_c, 1, 69, 64
2, 34077, Note_on_c, 1, 69, 0
2, 34080, Note_on_c, 1, 72, 64
2, 34125, Note_on_c, 1, 72, 0
2, 34128, Note_on_c, 1, 66, 64
2, 34173, Note_on_c, 1, 66, 0
2, 34176, Note_on_c, 1, 61, 64
2, 34221, Note_on_c, 1, 61, 0
2, 34224, Note_on_c, 1, 63, 64
2, 34269, Note_on_c, 1, 63, 0
2, 34272, Note_on_c, 1, 64, 64
2, 34317, Note_on_c, 1, 64, 0
2, 34320, Note_on_c, 1, 70, 64
2, 34365, Note_on_c, 1, 70, 0
2, 34368, Note_on_c, 1, 70, 64
2, 34413, Note_on_c, 1, 70, 0
2, 34416, Note_on_c, 1, 67, 64
2, 34461, Note_on_c, 1, 67, 0
2, 34464, Note_on_c, 1, 70, 64
2, 34509, Note_on_c, 1, 70, 0
2, 34512, Note_on_c, 1, 61, 64
2, 34557, Note_on_c, 1, 61, 0
2, 34560, Note_on_c, 1, 60, 64
2, 34649, Note_on_c, 1, 60, 0
2, 34656, Note_on_c, 1, 61, 64
2, 34701, Note_on_c, 1, 61, 0
2, 34704, Note_on_c, 1, 63, 64
2, 34749, Note_on_c, 1, 63, 0
2, 34752, Note_on_c, 1, 64, 64
2, 34797, Note_on_c, 1, 64, 0
2, 34800, Note_on_c, 1, 66, 64
2, 34845, Note_on_c, 1, 66, 0
2, 34848, Note_on_c, 1, 68, 64
2, 34937, Note_on_c, 1, 68, 0
2, 34944, Note_on_c, 1, 61, 64
2, 35033, Note_on_c, 1, 61, 0
2, 35040, Note_on_c, 1, 73, 64
2, 35085, Note_on_c, 1, 73, 0
2, 35088, Note_on_c, 1, 72, 64
2, 35133, Note_on_c, 1, 72, 0
2, 35136, Note_on_c, 1, 73, 64
2, 35181, Note_on_c, 1, 73, 0
2, 35184, Note_on_c, 1, 75, 64
2, 35229, Note_on_c, 1, 75, 0
2, 35232, Note_on_c, 1, 76, 64
2, 35277, Note_on_c, 1, 76, 0
2, 35280, Note_on_c, 1, 73, 64
2, 35325, Note_on_c, 1, 73, 0
2, 35328, Note_on_c, 1, 69, 64
2, 35801, Note_on_c, 1, 69, 0
2, 35808, Note_on_c, 1, 75, 64
2, 35853, Note_on_c, 1, 75, 0
2, 35856, Note_on_c, 1, 73, 64
2, 35901, Note_on_c, 1, 73, 0
2, 35904, Note_on_c, 1, 75, 64
2, 35949, Note_on_c, 1, 75, 0
2, 35952, Note_on_c, 1, 76, 64
2, 35997, Note_on_c, 1, 76, 0
2, 36000, Note_on_c, 1, 78, 64
2, 36045, Note_on_c, 1, 78, 0
2, 36048, Note_on_c, 1, 75, 64
2, 36093, Note_on_c, 1, 75, 0
2, 36096, Note_on_c, 1, 80, 64
2, 36273, Note_on_c, 1, 80, 0
2, 36288, Note_on_c, 1, 76, 64
2, 36377, Note_on_c, 1, 76, 0
2, 36384, Note_on_c, 1, 76, 64
2, 36429, Note_on_c, 1, 76, 0
2, 36432, Note_on_c, 1, 78, 64
2, 36477, Note_on_c, 1, 78, 0
2, 36480, Note_on_c, 1, 80, 64
2, 36569, Note_on_c, 1, 80, 0
2, 36576, Note_on_c, 1, 80, 64
2, 36621, Note_on_c, 1, 80, 0
2, 36624, Note_on_c, 1, 81, 64
2, 36669, Note_on_c, 1, 81, 0
2, 36672, Note_on_c, 1, 80, 64
2, 36717, Note_on_c, 1, 80, 0
2, 36720, Note_on_c, 1, 78, 64
2, 36765, Note_on_c, 1, 78, 0
2, 36768, Note_on_c, 1, 76, 64
2, 36857, Note_on_c, 1, 76, 0
2, 36864, Note_on_c, 1, 78, 64
2, 37041, Note_on_c, 1, 78, 0
2, 37056, Note_on_c, 1, 75, 64
2, 37145, Note_on_c, 1, 75, 0
2, 37152, Note_on_c, 1, 75, 64
2, 37197, Note_on_c, 1, 75, 0
2, 37200, Note_on_c, 1, 76, 64
2, 37245, Note_on_c, 1, 76, 0
2, 37248, Note_on_c, 1, 78, 64
2, 37293, Note_on_c, 1, 78, 0
2, 37296, Note_on_c, 1, 76, 64
2, 37341, Note_on_c, 1, 76, 0
2, 37344, Note_on_c, 1, 78, 64
2, 37389, Note_on_c, 1, 78, 0
2, 37392, Note_on_c, 1, 80, 64
2, 37437, Note_on_c, 1, 80, 0
2, 37440, Note_on_c, 1, 78, 64
2, 37485, Note_on_c, 1, 78, 0
2, 37488, Note_on_c, 1, 76, 64
2, 37533, Note_on_c, 1, 76, 0
2, 37536, Note_on_c, 1, 75, 64
2, 37581, Note_on_c, 1, 75, 0
2, 37584, Note_on_c, 1, 78, 64
2, 37629, Note_on_c, 1, 78, 0
2, 37632, Note_on_c, 1, 76, 64
2, 37677, Note_on_c, 1, 76, 0
2, 37680, Note_on_c, 1, 75, 64
2, 37725, Note_on_c, 1, 75, 0
2, 37728, Note_on_c, 1, 76, 64
2, 37773, Note_on_c, 1, 76, 0
2, 37776, Note_on_c, 1, 78, 64
2, 37821, Note_on_c, 1, 78, 0
2, 37824, Note_on_c, 1, 76, 64
2, 37869, Note_on_c, 1, 76, 0
2, 37872, Note_on_c, 1, 75, 64
2, 37917, Note_on_c, 1, 75, 0
2, 37920, Note_on_c, 1, 73, 64
2, 37965, Note_on_c, 1, 73, 0
2, 37968, Note_on_c, 1, 76, 64
2, 38013, Note_on_c, 1, 76, 0
2, 38016, Note_on_c, 1, 78, 64
2, 38061, Note_on_c, 1, 78, 0
2, 38064, Note_on_c, 1, 76, 64
2, 38109, Note_on_c, 1, 76, 0
2, 38112, Note_on_c, 1, 78, 64
2, 38157, Note_on_c, 1, 78, 0
2, 38160, Note_on_c, 1, 80, 64
2, 38205, Note_on_c, 1, 80, 0
2, 38208, Note_on_c, 1, 78, 64
2, 38253, Note_on_c, 1, 78, 0
2, 38256, Note_on_c, 1, 76, 64
2, 38301, Note_on_c, 1, 76, 0
2, 38304, Note_on_c, 1, 75, 64
2, 38349, Note_on_c, 1, 75, 0
2, 38352, Note_on_c, 1, 78, 64
2, 38397, Note_on_c, 1, 78, 0
2, 38400, Note_on_c, 1, 80, 64
2, 38445, Note_on_c, 1, 80, 0
2, 38448, Note_on_c, 1, 78, 64
2, 38493, Note_on_c, 1, 78, 0
2, 38496, Note_on_c, 1, 80, 64
2, 38541, Note_on_c, 1, 80, 0
2, 38544, Note_on_c, 1, 81, 64
2, 38589, Note_on_c, 1, 81, 0
2, 38592, Note_on_c, 1, 80, 64
2, 38637, Note_on_c, 1, 80, 0
2, 38640, Note_on_c, 1, 78, 64
2, 38685, Note_on_c, 1, 78, 0
2, 38688, Note_on_c, 1, 76, 64
2, 38733, Note_on_c, 1, 76, 0
2, 38736, Note_on_c, 1, 78, 64
2, 38781, Note_on_c, 1, 78, 0
2, 38784, Note_on_c, 1, 75, 64
2, 39049, Note_on_c, 1, 75, 0
2, 39072, Note_on_c, 1, 75, 64
2, 39161, Note_on_c, 1, 75, 0
2, 39168, Note_on_c, 1, 83, 64
2, 39257, Note_on_c, 1, 83, 0
2, 39264, Note_on_c, 1, 83, 64
2, 39309, Note_on_c, 1, 83, 0
2, 39312, Note_on_c, 1, 85, 64
2, 39357, Note_on_c, 1, 85, 0
2, 39360, Note_on_c, 1, 83, 64
2, 39405, Note_on_c, 1, 83, 0
2, 39408, Note_on_c, 1, 81, 64
2, 39453, Note_on_c, 1, 81, 0
2, 39456, Note_on_c, 1, 80, 64
2, 39545, Note_on_c, 1, 80, 0
2, 39552, Note_on_c, 1, 85, 64
2, 39817, Note_on_c, 1, 85, 0
2, 39840, Note_on_c, 1, 83, 64
2, 39929, Note_on_c, 1, 83, 0
2, 39936, Note_on_c, 1, 81, 64
2, 40025, Note_on_c, 1, 81, 0
2, 40032, Note_on_c, 1, 81, 64
2, 40077, Note_on_c, 1, 81, 0
2, 40080, Note_on_c, 1, 83, 64
2, 40125, Note_on_c, 1, 83, 0
2, 40128, Note_on_c, 1, 81, 64
2, 40173, Note_on_c, 1, 81, 0
2, 40176, Note_on_c, 1, 80, 64
2, 40221, Note_on_c, 1, 80, 0
2, 40224, Note_on_c, 1, 78, 64
2, 40313, Note_on_c, 1, 78, 0
2, 40320, Note_on_c, 1, 83, 64
2, 40557, Note_on_c, 1, 83, 0
2, 40560, Note_on_c, 1, 85, 64
2, 40605, Note_on_c, 1, 85, 0
2, 40608, Note_on_c, 1, 83, 64
2, 40653, Note_on_c, 1, 83, 0
2, 40656, Note_on_c, 1, 81, 64
2, 40701, Note_on_c, 1, 81, 0
2, 40704, Note_on_c, 1, 80, 64
2, 40749, Note_on_c, 1, 80, 0
2, 40752, Note_on_c, 1, 78, 64
2, 40797, Note_on_c, 1, 78, 0
2, 40800, Note_on_c, 1, 80, 64
2, 40845, Note_on_c, 1, 80, 0
2, 40848, Note_on_c, 1, 81, 64
2, 40893, Note_on_c, 1, 81, 0
2, 40896, Note_on_c, 1, 80, 64
2, 40941, Note_on_c, 1, 80, 0
2, 40944, Note_on_c, 1, 78, 64
2, 40989, Note_on_c, 1, 78, 0
2, 40992, Note_on_c, 1, 76, 64
2, 41037, Note_on_c, 1, 76, 0
2, 41040, Note_on_c, 1, 80, 64
2, 41085, Note_on_c, 1, 80, 0
2, 41088, Note_on_c, 1, 81, 64
2, 41133, Note_on_c, 1, 81, 0
2, 41136, Note_on_c, 1, 80, 64
2, 41181, Note_on_c, 1, 80, 0
2, 41184, Note_on_c, 1, 81, 64
2, 41229, Note_on_c, 1, 81, 0
2, 41232, Note_on_c, 1, 83, 64
2, 41277, Note_on_c, 1, 83, 0
2, 41280, Note_on_c, 1, 81, 64
2, 41325, Note_on_c, 1, 81, 0
2, 41328, Note_on_c, 1, 80, 64
2, 41373, Note_on_c, 1, 80, 0
2, 41376, Note_on_c, 1, 78, 64
2, 41421, Note_on_c, 1, 78, 0
2, 41424, Note_on_c, 1, 77, 64
2, 41469, Note_on_c, 1, 77, 0
2, 41472, Note_on_c, 1, 78, 64
2, 41517, Note_on_c, 1, 78, 0
2, 41520, Note_on_c, 1, 77, 64
2, 41565, Note_on_c, 1, 77, 0
2, 41568, Note_on_c, 1, 78, 64
2, 41613, Note_on_c, 1, 78, 0
2, 41616, Note_on_c, 1, 80, 64
2, 41661, Note_on_c, 1, 80, 0
2, 41664, Note_on_c, 1, 78, 64
2, 41709, Note_on_c, 1, 78, 0
2, 41712, Note_on_c, 1, 81, 64
2, 41757, Note_on_c, 1, 81, 0
2, 41760, Note_on_c, 1, 80, 64
2, 41805, Note_on_c, 1, 80, 0
2, 41808, Note_on_c, 1, 78, 64
2, 41853, Note_on_c, 1, 78, 0
2, 41856, Note_on_c, 1, 77, 64
2, 41901, Note_on_c, 1, 77, 0
2, 41904, Note_on_c, 1, 75, 64
2, 41949, Note_on_c, 1, 75, 0
2, 41952, Note_on_c, 1, 77, 64
2, 41997, Note_on_c, 1, 77, 0
2, 42000, Note_on_c, 1, 78, 64
2, 42045, Note_on_c, 1, 78, 0
2, 42048, Note_on_c, 1, 80, 64
2, 42093, Note_on_c, 1, 80, 0
2, 42096, Note_on_c, 1, 81, 64
2, 42141, Note_on_c, 1, 81, 0
2, 42144, Note_on_c, 1, 83, 64
2, 42189, Note_on_c, 1, 83, 0
2, 42192, Note_on_c, 1, 80, 64
2, 42237, Note_on_c, 1, 80, 0
2, 42240, Note_on_c, 1, 81, 64
2, 42285, Note_on_c, 1, 81, 0
2, 42288, Note_on_c, 1, 83, 64
2, 42333, Note_on_c, 1, 83, 0
2, 42336, Note_on_c, 1, 85, 64
2, 42425, Note_on_c, 1, 85, 0
2, 42432, Note_on_c, 1, 85, 64
2, 42609, Note_on_c, 1, 85, 0
2, 42624, Note_on_c, 1, 78, 64
2, 42669, Note_on_c, 1, 78, 0
2, 42672, Note_on_c, 1, 80, 64
2, 42717, Note_on_c, 1, 80, 0
2, 42720, Note_on_c, 1, 81, 64
2, 42809, Note_on_c, 1, 81, 0
2, 42816, Note_on_c, 1, 81, 64
2, 42993, Note_on_c, 1, 81, 0
2, 43008, Note_on_c, 1, 80, 64
2, 43053, Note_on_c, 1, 80, 0
2, 43056, Note_on_c, 1, 81, 64
2, 43101, Note_on_c, 1, 81, 0
2, 43104, Note_on_c, 1, 83, 64
2, 43193, Note_on_c, 1, 83, 0
2, 43200, Note_on_c, 1, 83, 64
2, 43377, Note_on_c, 1, 83, 0
2, 43392, Note_on_c, 1, 77, 64
2, 43437, Note_on_c, 1, 77, 0
2, 43440, Note_on_c, 1, 78, 64
2, 43485, Note_on_c, 1, 78, 0
2, 43488, Note_on_c, 1, 80, 64
2, 43577, Note_on_c, 1, 80, 0
2, 43584, Note_on_c, 1, 80, 64
2, 43761, Note_on_c, 1, 80, 0
2, 43776, Note_on_c, 1, 78, 64
2, 43953, Note_on_c, 1, 78, 0
2, 43968, Note_on_c, 1, 73, 64
2, 44057, Note_on_c, 1, 73, 0
2, 44064, Note_on_c, 1, 73, 64
2, 44109, Note_on_c, 1, 73, 0
2, 44112, Note_on_c, 1, 75, 64
2, 44157, Note_on_c, 1, 75, 0
2, 44160, Note_on_c, 1, 76, 64
2, 44249, Note_on_c, 1, 76, 0
2, 44256, Note_on_c, 1, 76, 64
2, 44301, Note_on_c, 1, 76, 0
2, 44304, Note_on_c, 1, 78, 64
2, 44349, Note_on_c, 1, 78, 0
2, 44352, Note_on_c, 1, 76, 64
2, 44397, Note_on_c, 1, 76, 0
2, 44400, Note_on_c, 1, 75, 64
2, 44445, Note_on_c, 1, 75, 0
2, 44448, Note_on_c, 1, 73, 64
2, 44537, Note_on_c, 1, 73, 0
2, 44544, Note_on_c, 1, 75, 64
2, 44589, Note_on_c, 1, 75, 0
2, 44592, Note_on_c, 1, 76, 64
2, 44637, Note_on_c, 1, 76, 0
2, 44640, Note_on_c, 1, 78, 64
2, 44729, Note_on_c, 1, 78, 0
2, 44736, Note_on_c, 1, 78, 64
2, 44913, Note_on_c, 1, 78, 0
2, 45024, Note_on_c, 1, 76, 64
2, 45069, Note_on_c, 1, 76, 0
2, 45072, Note_on_c, 1, 75, 64
2, 45117, Note_on_c, 1, 75, 0
2, 45120, Note_on_c, 1, 76, 64
2, 45209, Note_on_c, 1, 76, 0
2, 45216, Note_on_c, 1, 78, 64
2, 45305, Note_on_c, 1, 78, 0
2, 45312, Note_on_c, 1, 71, 64
2, 45401, Note_on_c, 1, 71, 0
2, 45408, Note_on_c, 1, 76, 64
2, 45453, Note_on_c, 1, 76, 0
2, 45456, Note_on_c, 1, 78, 64
2, 45501, Note_on_c, 1, 78, 0
2, 45504, Note_on_c, 1, 80, 64
2, 45549, Note_on_c, 1, 80, 0
2, 45552, Note_on_c, 1, 81, 64
2, 45597, Note_on_c, 1, 81, 0
2, 45600, Note_on_c, 1, 83, 64
2, 45689, Note_on_c, 1, 83, 0
2, 45696, Note_on_c, 1, 80, 64
2, 45741, Note_on_c, 1, 80, 0
2, 45744, Note_on_c, 1, 81, 64
2, 45789, Note_on_c, 1, 81, 0
2, 45792, Note_on_c, 1, 83, 64
2, 45881, Note_on_c, 1, 83, 0
2, 45888, Note_on_c, 1, 76, 64
2, 46065, Note_on_c, 1, 76, 0
2, 46080, Note_on_c, 1, 64, 64
2, 46257, Note_on_c, 1, 64, 0
2, 46272, Note_on_c, 1, 61, 64
2, 46361, Note_on_c, 1, 61, 0
2, 46368, Note_on_c, 1, 61, 64
2, 46413, Note_on_c, 1, 61, 0
2, 46416, Note_on_c, 1, 62, 64
2, 46461, Note_on_c, 1, 62, 0
2, 46464, Note_on_c, 1, 64, 64
2, 46553, Note_on_c, 1, 64, 0
2, 46560, Note_on_c, 1, 64, 64
2, 46605, Note_on_c, 1, 64, 0
2, 46608, Note_on_c, 1, 66, 64
2, 46653, Note_on_c, 1, 66, 0
2, 46656, Note_on_c, 1, 64, 64
2, 46701, Note_on_c, 1, 64, 0
2, 46704, Note_on_c, 1, 62, 64
2, 46749, Note_on_c, 1, 62, 0
2, 46752, Note_on_c, 1, 61, 64
2, 46841, Note_on_c, 1, 61, 0
2, 46848, Note_on_c, 1, 62, 64
2, 47025, Note_on_c, 1, 62, 0
2, 47040, Note_on_c, 1, 59, 64
2, 47129, Note_on_c, 1, 59, 0
2, 47136, Note_on_c, 1, 59, 64
2, 47181, Note_on_c, 1, 59, 0
2, 47184, Note_on_c, 1, 61, 64
2, 47229, Note_on_c, 1, 61, 0
2, 47232, Note_on_c, 1, 62, 64
2, 47277, Note_on_c, 1, 62, 0
2, 47280, Note_on_c, 1, 61, 64
2, 47325, Note_on_c, 1, 61, 0
2, 47328, Note_on_c, 1, 62, 64
2, 47373, Note_on_c, 1, 62, 0
2, 47376, Note_on_c, 1, 64, 64
2, 47421, Note_on_c, 1, 64, 0
2, 47424, Note_on_c, 1, 62, 64
2, 47469, Note_on_c, 1, 62, 0
2, 47472, Note_on_c, 1, 61, 64
2, 47517, Note_on_c, 1, 61, 0
2, 47520, Note_on_c, 1, 59, 64
2, 47565, Note_on_c, 1, 59, 0
2, 47568, Note_on_c, 1, 62, 64
2, 47613, Note_on_c, 1, 62, 0
2, 47616, Note_on_c, 1, 61, 64
2, 47661, Note_on_c, 1, 61, 0
2, 47664, Note_on_c, 1, 59, 64
2, 47709, Note_on_c, 1, 59, 0
2, 47712, Note_on_c, 1, 61, 64
2, 47757, Note_on_c, 1, 61, 0
2, 47760, Note_on_c, 1, 62, 64
2, 47805, Note_on_c, 1, 62, 0
2, 47808, Note_on_c, 1, 61, 64
2, 47853, Note_on_c, 1, 61, 0
2, 47856, Note_on_c, 1, 59, 64
2, 47901, Note_on_c, 1, 59, 0
2, 47904, Note_on_c, 1, 57, 64
2, 47949, Note_on_c, 1, 57, 0
2, 47952, Note_on_c, 1, 61, 64
2, 47997, Note_on_c, 1, 61, 0
2, 48000, Note_on_c, 1, 62, 64
2, 48045, Note_on_c, 1, 62, 0
2, 48048, Note_on_c, 1, 61, 64
2, 48093, Note_on_c, 1, 61, 0
2, 48096, Note_on_c, 1, 62, 64
2, 48141, Note_on_c, 1, 62, 0
2, 48144, Note_on_c, 1, 64, 64
2, 48189, Note_on_c, 1, 64, 0
2, 48192, Note_on_c, 1, 62, 64
2, 48237, Note_on_c, 1, 62, 0
2, 48240, Note_on_c, 1, 61, 64
2, 48285, Note_on_c, 1, 61, 0
2, 48288, Note_on_c, 1, 59, 64
2, 48333, Note_on_c, 1, 59, 0
2, 48336, Note_on_c, 1, 62, 64
2, 48381, Note_on_c, 1, 62, 0
2, 48384, Note_on_c, 1, 64, 64
2, 48429, Note_on_c, 1, 64, 0
2, 48432, Note_on_c, 1, 62, 64
2, 48477, Note_on_c, 1, 62, 0
2, 48480, Note_on_c, 1, 64, 64
2, 48525, Note_on_c, 1, 64, 0
2, 48528, Note_on_c, 1, 66, 64
2, 48573, Note_on_c, 1, 66, 0
2, 48576, Note_on_c, 1, 64, 64
2, 48621, Note_on_c, 1, 64, 0
2, 48624, Note_on_c, 1, 62, 64
2, 48669, Note_on_c, 1, 62, 0
2, 48672, Note_on_c, 1, 61, 64
2, 48717, Note_on_c, 1, 61, 0
2, 48720, Note_on_c, 1, 62, 64
2, 48765, Note_on_c, 1, 62, 0
2, 48768, Note_on_c, 1, 59, 64
2, 48857, Note_on_c, 1, 59, 0
2, 48864, Note_on_c, 1, 61, 64
2, 48909, Note_on_c, 1, 61, 0
2, 48912, Note_on_c, 1, 63, 64
2, 48957, Note_on_c, 1, 63, 0
2, 48960, Note_on_c, 1, 64, 64
2, 49005, Note_on_c, 1, 64, 0
2, 49008, Note_on_c, 1, 66, 64
2, 49053, Note_on_c, 1, 66, 0
2, 49056, Note_on_c, 1, 68, 64
2, 49101, Note_on_c, 1, 68, 0
2, 49104, Note_on_c, 1, 69, 64
2, 49149, Note_on_c, 1, 69, 0
2, 49152, Note_on_c, 1, 68, 64
2, 49197, Note_on_c, 1, 68, 0
2, 49200, Note_on_c, 1, 69, 64
2, 49245, Note_on_c, 1, 69, 0
2, 49248, Note_on_c, 1, 71, 64
2, 49337, Note_on_c, 1, 71, 0
2, 49344, Note_on_c, 1, 71, 64
2, 49521, Note_on_c, 1, 71, 0
2, 49536, Note_on_c, 1, 65, 64
2, 49581, Note_on_c, 1, 65, 0
2, 49584, Note_on_c, 1, 66, 64
2, 49629, Note_on_c, 1, 66, 0
2, 49632, Note_on_c, 1, 68, 64
2, 49721, Note_on_c, 1, 68, 0
2, 49728, Note_on_c, 1, 68, 64
2, 49905, Note_on_c, 1, 68, 0
2, 49920, Note_on_c, 1, 66, 64
2, 49965, Note_on_c, 1, 66, 0
2, 49968, Note_on_c, 1, 68, 64
2, 50013, Note_on_c, 1, 68, 0
2, 50016, Note_on_c, 1, 69, 64
2, 50105, Note_on_c, 1, 69, 0
2, 50112, Note_on_c, 1, 69, 64
2, 50289, Note_on_c, 1, 69, 0
2, 50304, Note_on_c, 1, 63, 64
2, 50349, Note_on_c, 1, 63, 0
2, 50352, Note_on_c, 1, 64, 64
2, 50397, Note_on_c, 1, 64, 0
2, 50400, Note_on_c, 1, 66, 64
2, 50489, Note_on_c, 1, 66, 0
2, 50496, Note_on_c, 1, 66, 64
2, 50777, Note_on_c, 1, 66, 0
2, 50784, Note_on_c, 1, 64, 64
2, 50829, Note_on_c, 1, 64, 0
2, 50832, Note_on_c, 1, 63, 64
2, 50877, Note_on_c, 1, 63, 0
2, 50880, Note_on_c, 1, 64, 64
2, 50969, Note_on_c, 1, 64, 0
2, 50976, Note_on_c, 1, 68, 64
2, 51161, Note_on_c, 1, 68, 0
2, 51168, Note_on_c, 1, 66, 64
2, 51213, Note_on_c, 1, 66, 0
2, 51216, Note_on_c, 1, 64, 64
2, 51261, Note_on_c, 1, 64, 0
2, 51264, Note_on_c, 1, 66, 64
2, 51353, Note_on_c, 1, 66, 0
2, 51360, Note_on_c, 1, 69, 64
2, 51545, Note_on_c, 1, 69, 0
2, 51552, Note_on_c, 1, 68, 64
2, 51597, Note_on_c, 1, 68, 0
2, 51600, Note_on_c, 1, 66, 64
2, 51645, Note_on_c, 1, 66, 0
2, 51648, Note_on_c, 1, 68, 64
2, 51693, Note_on_c, 1, 68, 0
2, 51696, Note_on_c, 1, 66, 64
2, 51741, Note_on_c, 1, 66, 0
2, 51744, Note_on_c, 1, 64, 64
2, 51789, Note_on_c, 1, 64, 0
2, 51792, Note_on_c, 1, 66, 64
2, 51837, Note_on_c, 1, 66, 0
2, 51840, Note_on_c, 1, 63, 64
2, 51885, Note_on_c, 1, 63, 0
2, 51888, Note_on_c, 1, 61, 64
2, 51933, Note_on_c, 1, 61, 0
2, 51936, Note_on_c, 1, 63, 64
2, 51981, Note_on_c, 1, 63, 0
2, 51984, Note_on_c, 1, 64, 64
2, 52029, Note_on_c, 1, 64, 0
2, 52032, Note_on_c, 1, 66, 64
2, 52077, Note_on_c, 1, 66, 0
2, 52080, Note_on_c, 1, 68, 64
2, 52125, Note_on_c, 1, 68, 0
2, 52128, Note_on_c, 1, 69, 64
2, 52173, Note_on_c, 1, 69, 0
2, 52176, Note_on_c, 1, 71, 64
2, 52221, Note_on_c, 1, 71, 0
2, 52224, Note_on_c, 1, 73, 64
2, 52269, Note_on_c, 1, 73, 0
2, 52272, Note_on_c, 1, 74, 64
2, 52317, Note_on_c, 1, 74, 0
2, 52320, Note_on_c, 1, 73, 64
2, 52365, Note_on_c, 1, 73, 0
2, 52368, Note_on_c, 1, 71, 64
2, 52413, Note_on_c, 1, 71, 0
2, 52416, Note_on_c, 1, 69, 64
2, 52461, Note_on_c, 1, 69, 0
2, 52464, Note_on_c, 1, 68, 64
2, 52509, Note_on_c, 1, 68, 0
2, 52512, Note_on_c, 1, 66, 64
2, 52557, Note_on_c, 1, 66, 0
2, 52560, Note_on_c, 1, 64, 64
2, 52605, Note_on_c, 1, 64, 0
2, 52608, Note_on_c, 1, 63, 64
2, 52653, Note_on_c, 1, 63, 0
2, 52656, Note_on_c, 1, 61, 64
2, 52701, Note_on_c, 1, 61, 0
2, 52704, Note_on_c, 1, 59, 64
2, 52749, Note_on_c, 1, 59, 0
2, 52752, Note_on_c, 1, 61, 64
2, 52797, Note_on_c, 1, 61, 0
2, 52800, Note_on_c, 1, 63, 64
2, 52845, Note_on_c, 1, 63, 0
2, 52848, Note_on_c, 1, 66, 64
2, 52893, Note_on_c, 1, 66, 0
2, 52896, Note_on_c, 1, 68, 64
2, 52941, Note_on_c, 1, 68, 0
2, 52944, Note_on_c, 1, 69, 64
2, 52989, Note_on_c, 1, 69, 0
2, 52992, Note_on_c, 1, 71, 64
2, 53037, Note_on_c, 1, 71, 0
2, 53040, Note_on_c, 1, 73, 64
2, 53085, Note_on_c, 1, 73, 0
2, 53088, Note_on_c, 1, 71, 64
2, 53133, Note_on_c, 1, 71, 0
2, 53136, Note_on_c, 1, 69, 64
2, 53181, Note_on_c, 1, 69, 0
2, 53184, Note_on_c, 1, 68, 64
2, 53229, Note_on_c, 1, 68, 0
2, 53232, Note_on_c, 1, 66, 64
2, 53277, Note_on_c, 1, 66, 0
2, 53280, Note_on_c, 1, 64, 64
2, 53325, Note_on_c, 1, 64, 0
2, 53328, Note_on_c, 1, 62, 64
2, 53373, Note_on_c, 1, 62, 0
2, 53376, Note_on_c, 1, 61, 64
2, 53421, Note_on_c, 1, 61, 0
2, 53424, Note_on_c, 1, 59, 64
2, 53469, Note_on_c, 1, 59, 0
2, 53472, Note_on_c, 1, 57, 64
2, 53517, Note_on_c, 1, 57, 0
2, 53520, Note_on_c, 1, 59, 64
2, 53565, Note_on_c, 1, 59, 0
2, 53568, Note_on_c, 1, 61, 64
2, 53613, Note_on_c, 1, 61, 0
2, 53616, Note_on_c, 1, 64, 64
2, 53661, Note_on_c, 1, 64, 0
2, 53664, Note_on_c, 1, 66, 64
2, 53709, Note_on_c, 1, 66, 0
2, 53712, Note_on_c, 1, 68, 64
2, 53757, Note_on_c, 1, 68, 0
2, 53760, Note_on_c, 1, 69, 64
2, 53805, Note_on_c, 1, 69, 0
2, 53808, Note_on_c, 1, 71, 64
2, 53853, Note_on_c, 1, 71, 0
2, 53856, Note_on_c, 1, 73, 64
2, 53945, Note_on_c, 1, 73, 0
2, 53952, Note_on_c, 1, 73, 64
2, 54189, Note_on_c, 1, 73, 0
2, 54192, Note_on_c, 1, 66, 64
2, 54237, Note_on_c, 1, 66, 0
2, 54240, Note_on_c, 1, 68, 64
2, 54285, Note_on_c, 1, 68, 0
2, 54288, Note_on_c, 1, 69, 64
2, 54333, Note_on_c, 1, 69, 0
2, 54336, Note_on_c, 1, 68, 64
2, 54381, Note_on_c, 1, 68, 0
2, 54384, Note_on_c, 1, 66, 64
2, 54429, Note_on_c, 1, 66, 0
2, 54432, Note_on_c, 1, 64, 64
2, 54477, Note_on_c, 1, 64, 0
2, 54480, Note_on_c, 1, 63, 64
2, 54525, Note_on_c, 1, 63, 0
2, 54528, Note_on_c, 1, 64, 64
2, 54661, Note_on_c, 1, 64, 0
2, 54672, Note_on_c, 1, 66, 64
2, 54717, Note_on_c, 1, 66, 0
2, 54720, Note_on_c, 1, 63, 64
2, 54853, Note_on_c, 1, 63, 0
2, 54864, Note_on_c, 1, 64, 64
2, 54909, Note_on_c, 1, 64, 0
2, 54912, Note_on_c, 1, 64, 64
2, 55266, Note_on_c, 1, 64, 0
2, 55266, End_track
3, 0, Start_track
3, 0, MIDI_port, 0
3, 0, Title_t, "Clavier (RH)"
3, 0, Program_c, 0, 6
3, 0, Control_c, 0, 7, 127
3, 0, Note_on_c, 0, 71, 64
3, 177, Note_on_c, 0, 71, 0
3, 192, Note_on_c, 0, 68, 64
3, 281, Note_on_c, 0, 68, 0
3, 288, Note_on_c, 0, 68, 64
3, 333, Note_on_c, 0, 68, 0
3, 336, Note_on_c, 0, 69, 64
3, 381, Note_on_c, 0, 69, 0
3, 384, Note_on_c, 0, 71, 64
3, 473, Note_on_c, 0, 71, 0
3, 480, Note_on_c, 0, 71, 64
3, 525, Note_on_c, 0, 71, 0
3, 528, Note_on_c, 0, 73, 64
3, 573, Note_on_c, 0, 73, 0
3, 576, Note_on_c, 0, 71, 64
3, 621, Note_on_c, 0, 71, 0
3, 624, Note_on_c, 0, 69, 64
3, 669, Note_on_c, 0, 69, 0
3, 672, Note_on_c, 0, 68, 64
3, 761, Note_on_c, 0, 68, 0
3, 768, Note_on_c, 0, 69, 64
3, 945, Note_on_c, 0, 69, 0
3, 960, Note_on_c, 0, 66, 64
3, 1049, Note_on_c, 0, 66, 0
3, 1056, Note_on_c, 0, 66, 64
3, 1101, Note_on_c, 0, 66, 0
3, 1104, Note_on_c, 0, 68, 64
3, 1149, Note_on_c, 0, 68, 0
3, 1152, Note_on_c, 0, 69, 64
3, 1197, Note_on_c, 0, 69, 0
3, 1200, Note_on_c, 0, 68, 64
3, 1245, Note_on_c, 0, 68, 0
3, 1248, Note_on_c, 0, 69, 64
3, 1293, Note_on_c, 0, 69, 0
3, 1296, Note_on_c, 0, 71, 64
3, 1341, Note_on_c, 0, 71, 0
3, 1344, Note_on_c, 0, 69, 64
3, 1389, Note_on_c, 0, 69, 0
3, 1392, Note_on_c, 0, 68, 64
3, 1437, Note_on_c, 0, 68, 0
3, 1440, Note_on_c, 0, 66, 64
3, 1485, Note_on_c, 0, 66, 0
3, 1488, Note_on_c, 0, 69, 64
3, 1533, Note_on_c, 0, 69, 0
3, 1536, Note_on_c, 0, 68, 64
3, 1581, Note_on_c, 0, 68, 0
3, 1584, Note_on_c, 0, 66, 64
3, 1629, Note_on_c, 0, 66, 0
3, 1632, Note_on_c, 0, 68, 64
3, 1677, Note_on_c, 0, 68, 0
3, 1680, Note_on_c, 0, 69, 64
3, 1725, Note_on_c, 0, 69, 0
3, 1728, Note_on_c, 0, 68, 64
3, 1773, Note_on_c, 0, 68, 0
3, 1776, Note_on_c, 0, 66, 64
3, 1821, Note_on_c, 0, 66, 0
3, 1824, Note_on_c, 0, 64, 64
3, 1869, Note_on_c, 0, 64, 0
3, 1872, Note_on_c, 0, 68, 64
3, 1917, Note_on_c, 0, 68, 0
3, 1920, Note_on_c, 0, 69, 64
3, 1965, Note_on_c, 0, 69, 0
3, 1968, Note_on_c, 0, 68, 64
3, 2013, Note_on_c, 0, 68, 0
3, 2016, Note_on_c, 0, 69, 64
3, 2061, Note_on_c, 0, 69, 0
3, 2064, Note_on_c, 0, 71, 64
3, 2109, Note_on_c, 0, 71, 0
3, 2112, Note_on_c, 0, 69, 64
3, 2157, Note_on_c, 0, 69, 0
3, 2160, Note_on_c, 0, 68, 64
3, 2205, Note_on_c, 0, 68, 0
3, 2208, Note_on_c, 0, 66, 64
3, 2253, Note_on_c, 0, 66, 0
3, 2256, Note_on_c, 0, 69, 64
3, 2301, Note_on_c, 0, 69, 0
3, 2304, Note_on_c, 0, 71, 64
3, 2349, Note_on_c, 0, 71, 0
3, 2352, Note_on_c, 0, 69, 64
3, 2397, Note_on_c, 0, 69, 0
3, 2400, Note_on_c, 0, 71, 64
3, 2445, Note_on_c, 0, 71, 0
3, 2448, Note_on_c, 0, 73, 64
3, 2493, Note_on_c, 0, 73, 0
3, 2496, Note_on_c, 0, 71, 64
3, 2541, Note_on_c, 0, 71, 0
3, 2544, Note_on_c, 0, 69, 64
3, 2589, Note_on_c, 0, 69, 0
3, 2592, Note_on_c, 0, 68, 64
3, 2637, Note_on_c, 0, 68, 0
3, 2640, Note_on_c, 0, 69, 64
3, 2685, Note_on_c, 0, 69, 0
3, 2688, Note_on_c, 0, 66, 64
3, 2777, Note_on_c, 0, 66, 0
3, 2784, Note_on_c, 0, 68, 64
3, 2829, Note_on_c, 0, 68, 0
3, 2832, Note_on_c, 0, 70, 64
3, 2877, Note_on_c, 0, 70, 0
3, 2880, Note_on_c, 0, 71, 64
3, 2925, Note_on_c, 0, 71, 0
3, 2928, Note_on_c, 0, 73, 64
3, 2973, Note_on_c, 0, 73, 0
3, 2976, Note_on_c, 0, 75, 64
3, 3021, Note_on_c, 0, 75, 0
3, 3024, Note_on_c, 0, 76, 64
3, 3069, Note_on_c, 0, 76, 0
3, 3072, Note_on_c, 0, 75, 64
3, 3117, Note_on_c, 0, 75, 0
3, 3120, Note_on_c, 0, 76, 64
3, 3165, Note_on_c, 0, 76, 0
3, 3168, Note_on_c, 0, 78, 64
3, 3257, Note_on_c, 0, 78, 0
3, 3264, Note_on_c, 0, 78, 64
3, 3441, Note_on_c, 0, 78, 0
3, 3456, Note_on_c, 0, 72, 64
3, 3501, Note_on_c, 0, 72, 0
3, 3504, Note_on_c, 0, 73, 64
3, 3549, Note_on_c, 0, 73, 0
3, 3552, Note_on_c, 0, 75, 64
3, 3641, Note_on_c, 0, 75, 0
3, 3648, Note_on_c, 0, 75, 64
3, 3825, Note_on_c, 0, 75, 0
3, 3840, Note_on_c, 0, 73, 64
3, 3885, Note_on_c, 0, 73, 0
3, 3888, Note_on_c, 0, 75, 64
3, 3933, Note_on_c, 0, 75, 0
3, 3936, Note_on_c, 0, 76, 64
3, 4025, Note_on_c, 0, 76, 0
3, 4032, Note_on_c, 0, 76, 64
3, 4209, Note_on_c, 0, 76, 0
3, 4224, Note_on_c, 0, 70, 64
3, 4269, Note_on_c, 0, 70, 0
3, 4272, Note_on_c, 0, 71, 64
3, 4317, Note_on_c, 0, 71, 0
3, 4320, Note_on_c, 0, 73, 64
3, 4409, Note_on_c, 0, 73, 0
3, 4416, Note_on_c, 0, 73, 64
3, 4697, Note_on_c, 0, 73, 0
3, 4704, Note_on_c, 0, 71, 64
3, 4749, Note_on_c, 0, 71, 0
3, 4752, Note_on_c, 0, 70, 64
3, 4797, Note_on_c, 0, 70, 0
3, 4800, Note_on_c, 0, 71, 64
3, 4889, Note_on_c, 0, 71, 0
3, 4896, Note_on_c, 0, 75, 64
3, 5081, Note_on_c, 0, 75, 0
3, 5088, Note_on_c, 0, 73, 64
3, 5133, Note_on_c, 0, 73, 0
3, 5136, Note_on_c, 0, 71, 64
3, 5181, Note_on_c, 0, 71, 0
3, 5184, Note_on_c, 0, 73, 64
3, 5273, Note_on_c, 0, 73, 0
3, 5280, Note_on_c, 0, 76, 64
3, 5465, Note_on_c, 0, 76, 0
3, 5472, Note_on_c, 0, 75, 64
3, 5517, Note_on_c, 0, 75, 0
3, 5520, Note_on_c, 0, 73, 64
3, 5565, Note_on_c, 0, 73, 0
3, 5568, Note_on_c, 0, 75, 64
3, 5613, Note_on_c, 0, 75, 0
3, 5616, Note_on_c, 0, 73, 64
3, 5661, Note_on_c, 0, 73, 0
3, 5664, Note_on_c, 0, 71, 64
3, 5709, Note_on_c, 0, 71, 0
3, 5712, Note_on_c, 0, 73, 64
3, 5757, Note_on_c, 0, 73, 0
3, 5760, Note_on_c, 0, 70, 64
3, 5805, Note_on_c, 0, 70, 0
3, 5808, Note_on_c, 0, 68, 64
3, 5853, Note_on_c, 0, 68, 0
3, 5856, Note_on_c, 0, 70, 64
3, 5901, Note_on_c, 0, 70, 0
3, 5904, Note_on_c, 0, 71, 64
3, 5949, Note_on_c, 0, 71, 0
3, 5952, Note_on_c, 0, 73, 64
3, 5997, Note_on_c, 0, 73, 0
3, 6000, Note_on_c, 0, 75, 64
3, 6045, Note_on_c, 0, 75, 0
3, 6048, Note_on_c, 0, 76, 64
3, 6093, Note_on_c, 0, 76, 0
3, 6096, Note_on_c, 0, 78, 64
3, 6141, Note_on_c, 0, 78, 0
3, 6144, Note_on_c, 0, 80, 64
3, 6189, Note_on_c, 0, 80, 0
3, 6192, Note_on_c, 0, 81, 64
3, 6237, Note_on_c, 0, 81, 0
3, 6240, Note_on_c, 0, 80, 64
3, 6285, Note_on_c, 0, 80, 0
3, 6288, Note_on_c, 0, 78, 64
3, 6333, Note_on_c, 0, 78, 0
3, 6336, Note_on_c, 0, 76, 64
3, 6381, Note_on_c, 0, 76, 0
3, 6384, Note_on_c, 0, 75, 64
3, 6429, Note_on_c, 0, 75, 0
3, 6432, Note_on_c, 0, 73, 64
3, 6477, Note_on_c, 0, 73, 0
3, 6480, Note_on_c, 0, 71, 64
3, 6525, Note_on_c, 0, 71, 0
3, 6528, Note_on_c, 0, 70, 64
3, 6573, Note_on_c, 0, 70, 0
3, 6576, Note_on_c, 0, 68, 64
3, 6621, Note_on_c, 0, 68, 0
3, 6624, Note_on_c, 0, 66, 64
3, 6669, Note_on_c, 0, 66, 0
3, 6672, Note_on_c, 0, 68, 64
3, 6717, Note_on_c, 0, 68, 0
3, 6720, Note_on_c, 0, 70, 64
3, 6765, Note_on_c, 0, 70, 0
3, 6768, Note_on_c, 0, 73, 64
3, 6813, Note_on_c, 0, 73, 0
3, 6816, Note_on_c, 0, 75, 64
3, 6861, Note_on_c, 0, 75, 0
3, 6864, Note_on_c, 0, 76, 64
3, 6909, Note_on_c, 0, 76, 0
3, 6912, Note_on_c, 0, 78, 64
3, 6957, Note_on_c, 0, 78, 0
3, 6960, Note_on_c, 0, 80, 64
3, 7005, Note_on_c, 0, 80, 0
3, 7008, Note_on_c, 0, 78, 64
3, 7053, Note_on_c, 0, 78, 0
3, 7056, Note_on_c, 0, 76, 64
3, 7101, Note_on_c, 0, 76, 0
3, 7104, Note_on_c, 0, 75, 64
3, 7149, Note_on_c, 0, 75, 0
3, 7152, Note_on_c, 0, 73, 64
3, 7197, Note_on_c, 0, 73, 0
3, 7200, Note_on_c, 0, 71, 64
3, 7245, Note_on_c, 0, 71, 0
3, 7248, Note_on_c, 0, 69, 64
3, 7293, Note_on_c, 0, 69, 0
3, 7296, Note_on_c, 0, 68, 64
3, 7341, Note_on_c, 0, 68, 0
3, 7344, Note_on_c, 0, 66, 64
3, 7389, Note_on_c, 0, 66, 0
3, 7392, Note_on_c, 0, 64, 64
3, 7437, Note_on_c, 0, 64, 0
3, 7440, Note_on_c, 0, 66, 64
3, 7485, Note_on_c, 0, 66, 0
3, 7488, Note_on_c, 0, 68, 64
3, 7533, Note_on_c, 0, 68, 0
3, 7536, Note_on_c, 0, 71, 64
3, 7581, Note_on_c, 0, 71, 0
3, 7584, Note_on_c, 0, 73, 64
3, 7629, Note_on_c, 0, 73, 0
3, 7632, Note_on_c, 0, 75, 64
3, 7677, Note_on_c, 0, 75, 0
3, 7680, Note_on_c, 0, 76, 64
3, 7725, Note_on_c, 0, 76, 0
3, 7728, Note_on_c, 0, 78, 64
3, 7773, Note_on_c, 0, 78, 0
3, 7776, Note_on_c, 0, 80, 64
3, 7865, Note_on_c, 0, 80, 0
3, 7872, Note_on_c, 0, 80, 64
3, 8109, Note_on_c, 0, 80, 0
3, 8112, Note_on_c, 0, 73, 64
3, 8157, Note_on_c, 0, 73, 0
3, 8160, Note_on_c, 0, 75, 64
3, 8205, Note_on_c, 0, 75, 0
3, 8208, Note_on_c, 0, 76, 64
3, 8253, Note_on_c, 0, 76, 0
3, 8256, Note_on_c, 0, 75, 64
3, 8301, Note_on_c, 0, 75, 0
3, 8304, Note_on_c, 0, 73, 64
3, 8349, Note_on_c, 0, 73, 0
3, 8352, Note_on_c, 0, 71, 64
3, 8397, Note_on_c, 0, 71, 0
3, 8400, Note_on_c, 0, 70, 64
3, 8445, Note_on_c, 0, 70, 0
3, 8448, Note_on_c, 0, 71, 64
3, 8581, Note_on_c, 0, 71, 0
3, 8592, Note_on_c, 0, 73, 64
3, 8637, Note_on_c, 0, 73, 0
3, 8640, Note_on_c, 0, 70, 64
3, 8773, Note_on_c, 0, 70, 0
3, 8784, Note_on_c, 0, 71, 64
3, 8829, Note_on_c, 0, 71, 0
3, 8832, Note_on_c, 0, 71, 64
3, 9009, Note_on_c, 0, 71, 0
3, 9024, Note_on_c, 0, 66, 64
3, 9113, Note_on_c, 0, 66, 0
3, 9120, Note_on_c, 0, 66, 64
3, 9165, Note_on_c, 0, 66, 0
3, 9168, Note_on_c, 0, 68, 64
3, 9213, Note_on_c, 0, 68, 0
3, 9216, Note_on_c, 0, 69, 64
3, 9305, Note_on_c, 0, 69, 0
3, 9312, Note_on_c, 0, 69, 64
3, 9357, Note_on_c, 0, 69, 0
3, 9360, Note_on_c, 0, 71, 64
3, 9405, Note_on_c, 0, 71, 0
3, 9408, Note_on_c, 0, 69, 64
3, 9453, Note_on_c, 0, 69, 0
3, 9456, Note_on_c, 0, 68, 64
3, 9501, Note_on_c, 0, 68, 0
3, 9504, Note_on_c, 0, 66, 64
3, 9593, Note_on_c, 0, 66, 0
3, 9600, Note_on_c, 0, 68, 64
3, 9645, Note_on_c, 0, 68, 0
3, 9648, Note_on_c, 0, 69, 64
3, 9693, Note_on_c, 0, 69, 0
3, 9696, Note_on_c, 0, 71, 64
3, 9785, Note_on_c, 0, 71, 0
3, 9792, Note_on_c, 0, 71, 64
3, 9969, Note_on_c, 0, 71, 0
3, 10080, Note_on_c, 0, 69, 64
3, 10125, Note_on_c, 0, 69, 0
3, 10128, Note_on_c, 0, 68, 64
3, 10173, Note_on_c, 0, 68, 0
3, 10176, Note_on_c, 0, 69, 64
3, 10265, Note_on_c, 0, 69, 0
3, 10272, Note_on_c, 0, 71, 64
3, 10457, Note_on_c, 0, 71, 0
3, 10464, Note_on_c, 0, 64, 64
3, 10553, Note_on_c, 0, 64, 0
3, 10560, Note_on_c, 0, 69, 64
3, 10737, Note_on_c, 0, 69, 0
3, 10752, Note_on_c, 0, 69, 64
3, 10841, Note_on_c, 0, 69, 0
3, 10848, Note_on_c, 0, 68, 64
3, 10893, Note_on_c, 0, 68, 0
3, 10896, Note_on_c, 0, 66, 64
3, 10941, Note_on_c, 0, 66, 0
3, 10944, Note_on_c, 0, 68, 64
3, 11033, Note_on_c, 0, 68, 0
3, 11040, Note_on_c, 0, 71, 64
3, 11129, Note_on_c, 0, 71, 0
3, 11136, Note_on_c, 0, 76, 64
3, 11181, Note_on_c, 0, 76, 0
3, 11184, Note_on_c, 0, 80, 64
3, 11229, Note_on_c, 0, 80, 0
3, 11232, Note_on_c, 0, 78, 64
3, 11277, Note_on_c, 0, 78, 0
3, 11280, Note_on_c, 0, 80, 64
3, 11325, Note_on_c, 0, 80, 0
3, 11328, Note_on_c, 0, 81, 64
3, 11373, Note_on_c, 0, 81, 0
3, 11376, Note_on_c, 0, 80, 64
3, 11421, Note_on_c, 0, 80, 0
3, 11424, Note_on_c, 0, 78, 64
3, 11469, Note_on_c, 0, 78, 0
3, 11472, Note_on_c, 0, 76, 64
3, 11517, Note_on_c, 0, 76, 0
3, 11520, Note_on_c, 0, 75, 64
3, 11565, Note_on_c, 0, 75, 0
3, 11568, Note_on_c, 0, 73, 64
3, 11613, Note_on_c, 0, 73, 0
3, 11616, Note_on_c, 0, 75, 64
3, 11661, Note_on_c, 0, 75, 0
3, 11664, Note_on_c, 0, 76, 64
3, 11709, Note_on_c, 0, 76, 0
3, 11712, Note_on_c, 0, 78, 64
3, 11757, Note_on_c, 0, 78, 0
3, 11760, Note_on_c, 0, 76, 64
3, 11805, Note_on_c, 0, 76, 0
3, 11808, Note_on_c, 0, 75, 64
3, 11853, Note_on_c, 0, 75, 0
3, 11856, Note_on_c, 0, 78, 64
3, 11901, Note_on_c, 0, 78, 0
3, 11904, Note_on_c, 0, 76, 64
3, 11949, Note_on_c, 0, 76, 0
3, 11952, Note_on_c, 0, 75, 64
3, 11997, Note_on_c, 0, 75, 0
3, 12000, Note_on_c, 0, 76, 64
3, 12045, Note_on_c, 0, 76, 0
3, 12048, Note_on_c, 0, 78, 64
3, 12093, Note_on_c, 0, 78, 0
3, 12096, Note_on_c, 0, 80, 64
3, 12141, Note_on_c, 0, 80, 0
3, 12144, Note_on_c, 0, 78, 64
3, 12189, Note_on_c, 0, 78, 0
3, 12192, Note_on_c, 0, 76, 64
3, 12237, Note_on_c, 0, 76, 0
3, 12240, Note_on_c, 0, 78, 64
3, 12285, Note_on_c, 0, 78, 0
3, 12288, Note_on_c, 0, 75, 64
3, 12333, Note_on_c, 0, 75, 0
3, 12336, Note_on_c, 0, 73, 64
3, 12381, Note_on_c, 0, 73, 0
3, 12384, Note_on_c, 0, 75, 64
3, 12429, Note_on_c, 0, 75, 0
3, 12432, Note_on_c, 0, 71, 64
3, 12477, Note_on_c, 0, 71, 0
3, 12480, Note_on_c, 0, 80, 64
3, 12761, Note_on_c, 0, 80, 0
3, 12768, Note_on_c, 0, 78, 64
3, 12813, Note_on_c, 0, 78, 0
3, 12816, Note_on_c, 0, 80, 64
3, 12861, Note_on_c, 0, 80, 0
3, 12864, Note_on_c, 0, 81, 64
3, 12909, Note_on_c, 0, 81, 0
3, 12912, Note_on_c, 0, 80, 64
3, 12957, Note_on_c, 0, 80, 0
3, 12960, Note_on_c, 0, 78, 64
3, 13005, Note_on_c, 0, 78, 0
3, 13008, Note_on_c, 0, 76, 64
3, 13053, Note_on_c, 0, 76, 0
3, 13056, Note_on_c, 0, 75, 64
3, 13145, Note_on_c, 0, 75, 0
3, 13152, Note_on_c, 0, 78, 64
3, 13241, Note_on_c, 0, 78, 0
3, 13248, Note_on_c, 0, 71, 64
3, 13337, Note_on_c, 0, 71, 0
3, 13344, Note_on_c, 0, 75, 64
3, 13433, Note_on_c, 0, 75, 0
3, 13440, Note_on_c, 0, 76, 64
3, 13913, Note_on_c, 0, 76, 0
3, 13920, Note_on_c, 0, 78, 64
3, 13965, Note_on_c, 0, 78, 0
3, 13968, Note_on_c, 0, 80, 64
3, 14013, Note_on_c, 0, 80, 0
3, 14016, Note_on_c, 0, 78, 64
3, 14061, Note_on_c, 0, 78, 0
3, 14064, Note_on_c, 0, 76, 64
3, 14109, Note_on_c, 0, 76, 0
3, 14112, Note_on_c, 0, 75, 64
3, 14157, Note_on_c, 0, 75, 0
3, 14160, Note_on_c, 0, 73, 64
3, 14205, Note_on_c, 0, 73, 0
3, 14208, Note_on_c, 0, 75, 64
3, 14473, Note_on_c, 0, 75, 0
3, 14496, Note_on_c, 0, 76, 64
3, 14585, Note_on_c, 0, 76, 0
3, 14592, Note_on_c, 0, 78, 64
3, 14637, Note_on_c, 0, 78, 0
3, 14640, Note_on_c, 0, 76, 64
3, 14685, Note_on_c, 0, 76, 0
3, 14688, Note_on_c, 0, 75, 64
3, 14712, Note_on_c, 0, 75, 0
3, 14784, Note_on_c, 0, 75, 64
3, 14829, Note_on_c, 0, 75, 0
3, 14832, Note_on_c, 0, 73, 64
3, 14877, Note_on_c, 0, 73, 0
3, 14880, Note_on_c, 0, 71, 64
3, 14904, Note_on_c, 0, 71, 0
3, 14976, Note_on_c, 0, 71, 64
3, 15065, Note_on_c, 0, 71, 0
3, 15072, Note_on_c, 0, 73, 64
3, 15117, Note_on_c, 0, 73, 0
3, 15120, Note_on_c, 0, 75, 64
3, 15165, Note_on_c, 0, 75, 0
3, 15168, Note_on_c, 0, 76, 64
3, 15213, Note_on_c, 0, 76, 0
3, 15216, Note_on_c, 0, 78, 64
3, 15261, Note_on_c, 0, 78, 0
3, 15264, Note_on_c, 0, 80, 64
3, 15288, Note_on_c, 0, 80, 0
3, 15360, Note_on_c, 0, 77, 64
3, 15405, Note_on_c, 0, 77, 0
3, 15408, Note_on_c, 0, 78, 64
3, 15453, Note_on_c, 0, 78, 0
3, 15456, Note_on_c, 0, 80, 64
3, 15480, Note_on_c, 0, 80, 0
3, 15552, Note_on_c, 0, 80, 64
3, 15729, Note_on_c, 0, 80, 0
3, 15744, Note_on_c, 0, 78, 64
3, 15789, Note_on_c, 0, 78, 0
3, 15792, Note_on_c, 0, 80, 64
3, 15837, Note_on_c, 0, 80, 0
3, 15840, Note_on_c, 0, 81, 64
3, 15864, Note_on_c, 0, 81, 0
3, 15936, Note_on_c, 0, 81, 64
3, 16113, Note_on_c, 0, 81, 0
3, 16128, Note_on_c, 0, 75, 64
3, 16173, Note_on_c, 0, 75, 0
3, 16176, Note_on_c, 0, 76, 64
3, 16221, Note_on_c, 0, 76, 0
3, 16224, Note_on_c, 0, 78, 64
3, 16248, Note_on_c, 0, 78, 0
3, 16320, Note_on_c, 0, 78, 64
3, 16601, Note_on_c, 0, 78, 0
3, 16608, Note_on_c, 0, 76, 64
3, 16653, Note_on_c, 0, 76, 0
3, 16656, Note_on_c, 0, 75, 64
3, 16701, Note_on_c, 0, 75, 0
3, 16704, Note_on_c, 0, 76, 64
3, 16793, Note_on_c, 0, 76, 0
3, 16800, Note_on_c, 0, 80, 64
3, 16985, Note_on_c, 0, 80, 0
3, 16992, Note_on_c, 0, 78, 64
3, 17037, Note_on_c, 0, 78, 0
3, 17040, Note_on_c, 0, 76, 64
3, 17085, Note_on_c, 0, 76, 0
3, 17088, Note_on_c, 0, 78, 64
3, 17177, Note_on_c, 0, 78, 0
3, 17184, Note_on_c, 0, 81, 64
3, 17369, Note_on_c, 0, 81, 0
3, 17376, Note_on_c, 0, 80, 64
3, 17421, Note_on_c, 0, 80, 0
3, 17424, Note_on_c, 0, 78, 64
3, 17469, Note_on_c, 0, 78, 0
3, 17472, Note_on_c, 0, 80, 64
3, 17517, Note_on_c, 0, 80, 0
3, 17520, Note_on_c, 0, 78, 64
3, 17565, Note_on_c, 0, 78, 0
3, 17568, Note_on_c, 0, 76, 64
3, 17613, Note_on_c, 0, 76, 0
3, 17616, Note_on_c, 0, 78, 64
3, 17661, Note_on_c, 0, 78, 0
3, 17664, Note_on_c, 0, 75, 64
3, 17709, Note_on_c, 0, 75, 0
3, 17712, Note_on_c, 0, 73, 64
3, 17757, Note_on_c, 0, 73, 0
3, 17760, Note_on_c, 0, 75, 64
3, 17805, Note_on_c, 0, 75, 0
3, 17808, Note_on_c, 0, 76, 64
3, 17853, Note_on_c, 0, 76, 0
3, 17856, Note_on_c, 0, 78, 64
3, 17901, Note_on_c, 0, 78, 0
3, 17904, Note_on_c, 0, 76, 64
3, 17949, Note_on_c, 0, 76, 0
3, 17952, Note_on_c, 0, 75, 64
3, 17997, Note_on_c, 0, 75, 0
3, 18000, Note_on_c, 0, 73, 64
3, 18045, Note_on_c, 0, 73, 0
3, 18048, Note_on_c, 0, 71, 64
3, 18225, Note_on_c, 0, 71, 0
3, 18240, Note_on_c, 0, 68, 64
3, 18329, Note_on_c, 0, 68, 0
3, 18336, Note_on_c, 0, 68, 64
3, 18381, Note_on_c, 0, 68, 0
3, 18384, Note_on_c, 0, 69, 64
3, 18429, Note_on_c, 0, 69, 0
3, 18432, Note_on_c, 0, 71, 64
3, 18521, Note_on_c, 0, 71, 0
3, 18528, Note_on_c, 0, 71, 64
3, 18573, Note_on_c, 0, 71, 0
3, 18576, Note_on_c, 0, 73, 64
3, 18621, Note_on_c, 0, 73, 0
3, 18624, Note_on_c, 0, 71, 64
3, 18669, Note_on_c, 0, 71, 0
3, 18672, Note_on_c, 0, 69, 64
3, 18717, Note_on_c, 0, 69, 0
3, 18720, Note_on_c, 0, 68, 64
3, 18809, Note_on_c, 0, 68, 0
3, 18816, Note_on_c, 0, 69, 64
3, 18993, Note_on_c, 0, 69, 0
3, 19008, Note_on_c, 0, 66, 64
3, 19097, Note_on_c, 0, 66, 0
3, 19104, Note_on_c, 0, 66, 64
3, 19149, Note_on_c, 0, 66, 0
3, 19152, Note_on_c, 0, 68, 64
3, 19197, Note_on_c, 0, 68, 0
3, 19200, Note_on_c, 0, 69, 64
3, 19245, Note_on_c, 0, 69, 0
3, 19248, Note_on_c, 0, 68, 64
3, 19293, Note_on_c, 0, 68, 0
3, 19296, Note_on_c, 0, 69, 64
3, 19341, Note_on_c, 0, 69, 0
3, 19344, Note_on_c, 0, 71, 64
3, 19389, Note_on_c, 0, 71, 0
3, 19392, Note_on_c, 0, 69, 64
3, 19437, Note_on_c, 0, 69, 0
3, 19440, Note_on_c, 0, 68, 64
3, 19485, Note_on_c, 0, 68, 0
3, 19488, Note_on_c, 0, 66, 64
3, 19533, Note_on_c, 0, 66, 0
3, 19536, Note_on_c, 0, 69, 64
3, 19581, Note_on_c, 0, 69, 0
3, 19584, Note_on_c, 0, 68, 64
3, 19629, Note_on_c, 0, 68, 0
3, 19632, Note_on_c, 0, 66, 64
3, 19677, Note_on_c, 0, 66, 0
3, 19680, Note_on_c, 0, 68, 64
3, 19725, Note_on_c, 0, 68, 0
3, 19728, Note_on_c, 0, 69, 64
3, 19773, Note_on_c, 0, 69, 0
3, 19776, Note_on_c, 0, 68, 64
3, 19821, Note_on_c, 0, 68, 0
3, 19824, Note_on_c, 0, 66, 64
3, 19869, Note_on_c, 0, 66, 0
3, 19872, Note_on_c, 0, 64, 64
3, 19917, Note_on_c, 0, 64, 0
3, 19920, Note_on_c, 0, 68, 64
3, 19965, Note_on_c, 0, 68, 0
3, 19968, Note_on_c, 0, 69, 64
3, 20013, Note_on_c, 0, 69, 0
3, 20016, Note_on_c, 0, 68, 64
3, 20061, Note_on_c, 0, 68, 0
3, 20064, Note_on_c, 0, 69, 64
3, 20109, Note_on_c, 0, 69, 0
3, 20112, Note_on_c, 0, 71, 64
3, 20157, Note_on_c, 0, 71, 0
3, 20160, Note_on_c, 0, 69, 64
3, 20205, Note_on_c, 0, 69, 0
3, 20208, Note_on_c, 0, 68, 64
3, 20253, Note_on_c, 0, 68, 0
3, 20256, Note_on_c, 0, 66, 64
3, 20301, Note_on_c, 0, 66, 0
3, 20304, Note_on_c, 0, 69, 64
3, 20349, Note_on_c, 0, 69, 0
3, 20352, Note_on_c, 0, 71, 64
3, 20397, Note_on_c, 0, 71, 0
3, 20400, Note_on_c, 0, 69, 64
3, 20445, Note_on_c, 0, 69, 0
3, 20448, Note_on_c, 0, 71, 64
3, 20493, Note_on_c, 0, 71, 0
3, 20496, Note_on_c, 0, 73, 64
3, 20541, Note_on_c, 0, 73, 0
3, 20544, Note_on_c, 0, 71, 64
3, 20589, Note_on_c, 0, 71, 0
3, 20592, Note_on_c, 0, 69, 64
3, 20637, Note_on_c, 0, 69, 0
3, 20640, Note_on_c, 0, 68, 64
3, 20685, Note_on_c, 0, 68, 0
3, 20688, Note_on_c, 0, 71, 64
3, 20733, Note_on_c, 0, 71, 0
3, 20736, Note_on_c, 0, 64, 64
3, 20781, Note_on_c, 0, 64, 0
3, 20784, Note_on_c, 0, 68, 64
3, 20829, Note_on_c, 0, 68, 0
3, 20832, Note_on_c, 0, 66, 64
3, 20877, Note_on_c, 0, 66, 0
3, 20880, Note_on_c, 0, 68, 64
3, 20925, Note_on_c, 0, 68, 0
3, 20928, Note_on_c, 0, 69, 64
3, 21165, Note_on_c, 0, 69, 0
3, 21168, Note_on_c, 0, 68, 64
3, 21213, Note_on_c, 0, 68, 0
3, 21216, Note_on_c, 0, 69, 64
3, 21261, Note_on_c, 0, 69, 0
3, 21264, Note_on_c, 0, 66, 64
3, 21309, Note_on_c, 0, 66, 0
3, 21312, Note_on_c, 0, 68, 64
3, 21357, Note_on_c, 0, 68, 0
3, 21360, Note_on_c, 0, 66, 64
3, 21405, Note_on_c, 0, 66, 0
3, 21408, Note_on_c, 0, 64, 64
3, 21453, Note_on_c, 0, 64, 0
3, 21456, Note_on_c, 0, 66, 64
3, 21501, Note_on_c, 0, 66, 0
3, 21504, Note_on_c, 0, 68, 64
3, 21549, Note_on_c, 0, 68, 0
3, 21552, Note_on_c, 0, 69, 64
3, 21597, Note_on_c, 0, 69, 0
3, 21600, Note_on_c, 0, 71, 64
3, 21645, Note_on_c, 0, 71, 0
3, 21648, Note_on_c, 0, 68, 64
3, 21693, Note_on_c, 0, 68, 0
3, 21696, Note_on_c, 0, 69, 64
3, 21741, Note_on_c, 0, 69, 0
3, 21744, Note_on_c, 0, 68, 64
3, 21789, Note_on_c, 0, 68, 0
3, 21792, Note_on_c, 0, 69, 64
3, 21837, Note_on_c, 0, 69, 0
3, 21840, Note_on_c, 0, 66, 64
3, 21885, Note_on_c, 0, 66, 0
3, 21888, Note_on_c, 0, 64, 64
3, 22021, Note_on_c, 0, 64, 0
3, 22032, Note_on_c, 0, 59, 64
3, 22077, Note_on_c, 0, 59, 0
3, 22080, Note_on_c, 0, 61, 64
3, 22125, Note_on_c, 0, 61, 0
3, 22128, Note_on_c, 0, 63, 64
3, 22173, Note_on_c, 0, 63, 0
3, 22176, Note_on_c, 0, 64, 64
3, 22221, Note_on_c, 0, 64, 0
3, 22224, Note_on_c, 0, 66, 64
3, 22269, Note_on_c, 0, 66, 0
3, 22272, Note_on_c, 0, 68, 64
3, 22317, Note_on_c, 0, 68, 0
3, 22320, Note_on_c, 0, 68, 64
3, 22365, Note_on_c, 0, 68, 0
3, 22368, Note_on_c, 0, 69, 64
3, 22413, Note_on_c, 0, 69, 0
3, 22416, Note_on_c, 0, 71, 64
3, 22461, Note_on_c, 0, 71, 0
3, 22464, Note_on_c, 0, 73, 64
3, 22509, Note_on_c, 0, 73, 0
3, 22512, Note_on_c, 0, 75, 64
3, 22557, Note_on_c, 0, 75, 0
3, 22560, Note_on_c, 0, 76, 64
3, 22605, Note_on_c, 0, 76, 0
3, 22608, Note_on_c, 0, 78, 64
3, 22653, Note_on_c, 0, 78, 0
3, 22656, Note_on_c, 0, 80, 64
3, 22701, Note_on_c, 0, 80, 0
3, 22704, Note_on_c, 0, 83, 64
3, 22749, Note_on_c, 0, 83, 0
3, 22752, Note_on_c, 0, 81, 64
3, 22797, Note_on_c, 0, 81, 0
3, 22800, Note_on_c, 0, 80, 64
3, 22845, Note_on_c, 0, 80, 0
3, 22848, Note_on_c, 0, 78, 64
3, 22893, Note_on_c, 0, 78, 0
3, 22896, Note_on_c, 0, 76, 64
3, 22941, Note_on_c, 0, 76, 0
3, 22944, Note_on_c, 0, 75, 64
3, 22989, Note_on_c, 0, 75, 0
3, 22992, Note_on_c, 0, 73, 64
3, 23037, Note_on_c, 0, 73, 0
3, 23040, Note_on_c, 0, 71, 64
3, 23085, Note_on_c, 0, 71, 0
3, 23088, Note_on_c, 0, 76, 64
3, 23133, Note_on_c, 0, 76, 0
3, 23136, Note_on_c, 0, 75, 64
3, 23181, Note_on_c, 0, 75, 0
3, 23184, Note_on_c, 0, 73, 64
3, 23229, Note_on_c, 0, 73, 0
3, 23232, Note_on_c, 0, 71, 64
3, 23277, Note_on_c, 0, 71, 0
3, 23280, Note_on_c, 0, 69, 64
3, 23325, Note_on_c, 0, 69, 0
3, 23328, Note_on_c, 0, 68, 64
3, 23373, Note_on_c, 0, 68, 0
3, 23376, Note_on_c, 0, 66, 64
3, 23421, Note_on_c, 0, 66, 0
3, 23424, Note_on_c, 0, 64, 64
3, 23513, Note_on_c, 0, 64, 0
3, 23520, Note_on_c, 0, 80, 64
3, 23565, Note_on_c, 0, 80, 0
3, 23568, Note_on_c, 0, 78, 64
3, 23613, Note_on_c, 0, 78, 0
3, 23616, Note_on_c, 0, 76, 64
3, 23661, Note_on_c, 0, 76, 0
3, 23664, Note_on_c, 0, 75, 64
3, 23709, Note_on_c, 0, 75, 0
3, 23712, Note_on_c, 0, 73, 64
3, 23757, Note_on_c, 0, 73, 0
3, 23760, Note_on_c, 0, 72, 64
3, 23805, Note_on_c, 0, 72, 0
3, 23808, Note_on_c, 0, 73, 64
3, 23853, Note_on_c, 0, 73, 0
3, 23856, Note_on_c, 0, 75, 64
3, 23901, Note_on_c, 0, 75, 0
3, 23904, Note_on_c, 0, 76, 64
3, 23949, Note_on_c, 0, 76, 0
3, 23952, Note_on_c, 0, 80, 64
3, 23964, Note_on_c, 0, 80, 0
3, 24000, Note_on_c, 0, 80, 64
3, 24012, Note_on_c, 0, 80, 0
3, 24048, Note_on_c, 0, 76, 64
3, 24060, Note_on_c, 0, 76, 0
3, 24096, Note_on_c, 0, 80, 64
3, 24108, Note_on_c, 0, 80, 0
3, 24144, Note_on_c, 0, 73, 64
3, 24156, Note_on_c, 0, 73, 0
3, 24192, Note_on_c, 0, 72, 64
3, 24237, Note_on_c, 0, 72, 0
3, 24240, Note_on_c, 0, 73, 64
3, 24285, Note_on_c, 0, 73, 0
3, 24288, Note_on_c, 0, 75, 64
3, 24333, Note_on_c, 0, 75, 0
3, 24336, Note_on_c, 0, 80, 64
3, 24348, Note_on_c, 0, 80, 0
3, 24384, Note_on_c, 0, 80, 64
3, 24396, Note_on_c, 0, 80, 0
3, 24432, Note_on_c, 0, 75, 64
3, 24444, Note_on_c, 0, 75, 0
3, 24480, Note_on_c, 0, 80, 64
3, 24492, Note_on_c, 0, 80, 0
3, 24528, Note_on_c, 0, 72, 64
3, 24540, Note_on_c, 0, 72, 0
3, 24576, Note_on_c, 0, 73, 64
3, 24621, Note_on_c, 0, 73, 0
3, 24624, Note_on_c, 0, 75, 64
3, 24669, Note_on_c, 0, 75, 0
3, 24672, Note_on_c, 0, 76, 64
3, 24717, Note_on_c, 0, 76, 0
3, 24720, Note_on_c, 0, 80, 64
3, 24732, Note_on_c, 0, 80, 0
3, 24768, Note_on_c, 0, 80, 64
3, 24780, Note_on_c, 0, 80, 0
3, 24816, Note_on_c, 0, 76, 64
3, 24828, Note_on_c, 0, 76, 0
3, 24864, Note_on_c, 0, 80, 64
3, 24876, Note_on_c, 0, 80, 0
3, 24912, Note_on_c, 0, 71, 64
3, 24924, Note_on_c, 0, 71, 0
3, 24960, Note_on_c, 0, 70, 64
3, 25005, Note_on_c, 0, 70, 0
3, 25008, Note_on_c, 0, 71, 64
3, 25053, Note_on_c, 0, 71, 0
3, 25056, Note_on_c, 0, 73, 64
3, 25101, Note_on_c, 0, 73, 0
3, 25104, Note_on_c, 0, 78, 64
3, 25116, Note_on_c, 0, 78, 0
3, 25152, Note_on_c, 0, 78, 64
3, 25197, Note_on_c, 0, 78, 0
3, 25200, Note_on_c, 0, 73, 64
3, 25245, Note_on_c, 0, 73, 0
3, 25248, Note_on_c, 0, 78, 64
3, 25293, Note_on_c, 0, 78, 0
3, 25296, Note_on_c, 0, 70, 64
3, 25341, Note_on_c, 0, 70, 0
3, 25344, Note_on_c, 0, 71, 64
3, 25389, Note_on_c, 0, 71, 0
3, 25392, Note_on_c, 0, 73, 64
3, 25437, Note_on_c, 0, 73, 0
3, 25440, Note_on_c, 0, 75, 64
3, 25485, Note_on_c, 0, 75, 0
3, 25488, Note_on_c, 0, 78, 64
3, 25500, Note_on_c, 0, 78, 0
3, 25536, Note_on_c, 0, 78, 64
3, 25581, Note_on_c, 0, 78, 0
3, 25584, Note_on_c, 0, 75, 64
3, 25629, Note_on_c, 0, 75, 0
3, 25632, Note_on_c, 0, 78, 64
3, 25677, Note_on_c, 0, 78, 0
3, 25680, Note_on_c, 0, 69, 64
3, 25725, Note_on_c, 0, 69, 0
3, 25728, Note_on_c, 0, 68, 64
3, 25773, Note_on_c, 0, 68, 0
3, 25776, Note_on_c, 0, 69, 64
3, 25821, Note_on_c, 0, 69, 0
3, 25824, Note_on_c, 0, 71, 64
3, 25869, Note_on_c, 0, 71, 0
3, 25872, Note_on_c, 0, 76, 64
3, 25884, Note_on_c, 0, 76, 0
3, 25920, Note_on_c, 0, 76, 64
3, 25965, Note_on_c, 0, 76, 0
3, 25968, Note_on_c, 0, 71, 64
3, 26013, Note_on_c, 0, 71, 0
3, 26016, Note_on_c, 0, 76, 64
3, 26061, Note_on_c, 0, 76, 0
3, 26064, Note_on_c, 0, 68, 64
3, 26109, Note_on_c, 0, 68, 0
3, 26112, Note_on_c, 0, 69, 64
3, 26157, Note_on_c, 0, 69, 0
3, 26160, Note_on_c, 0, 71, 64
3, 26205, Note_on_c, 0, 71, 0
3, 26208, Note_on_c, 0, 73, 64
3, 26253, Note_on_c, 0, 73, 0
3, 26256, Note_on_c, 0, 76, 64
3, 26268, Note_on_c, 0, 76, 0
3, 26304, Note_on_c, 0, 76, 64
3, 26349, Note_on_c, 0, 76, 0
3, 26352, Note_on_c, 0, 73, 64
3, 26397, Note_on_c, 0, 73, 0
3, 26400, Note_on_c, 0, 76, 64
3, 26445, Note_on_c, 0, 76, 0
3, 26448, Note_on_c, 0, 68, 64
3, 26493, Note_on_c, 0, 68, 0
3, 26496, Note_on_c, 0, 66, 64
3, 26541, Note_on_c, 0, 66, 0
3, 26544, Note_on_c, 0, 68, 64
3, 26589, Note_on_c, 0, 68, 0
3, 26592, Note_on_c, 0, 69, 64
3, 26637, Note_on_c, 0, 69, 0
3, 26640, Note_on_c, 0, 75, 64
3, 26685, Note_on_c, 0, 75, 0
3, 26688, Note_on_c, 0, 75, 64
3, 26733, Note_on_c, 0, 75, 0
3, 26736, Note_on_c, 0, 69, 64
3, 26781, Note_on_c, 0, 69, 0
3, 26784, Note_on_c, 0, 75, 64
3, 26829, Note_on_c, 0, 75, 0
3, 26832, Note_on_c, 0, 64, 64
3, 26877, Note_on_c, 0, 64, 0
3, 26880, Note_on_c, 0, 66, 64
3, 26925, Note_on_c, 0, 66, 0
3, 26928, Note_on_c, 0, 68, 64
3, 26973, Note_on_c, 0, 68, 0
3, 26976, Note_on_c, 0, 69, 64
3, 27021, Note_on_c, 0, 69, 0
3, 27024, Note_on_c, 0, 72, 64
3, 27069, Note_on_c, 0, 72, 0
3, 27072, Note_on_c, 0, 72, 64
3, 27117, Note_on_c, 0, 72, 0
3, 27120, Note_on_c, 0, 68, 64
3, 27165, Note_on_c, 0, 68, 0
3, 27168, Note_on_c, 0, 72, 64
3, 27213, Note_on_c, 0, 72, 0
3, 27216, Note_on_c, 0, 66, 64
3, 27261, Note_on_c, 0, 66, 0
3, 27264, Note_on_c, 0, 64, 64
3, 27309, Note_on_c, 0, 64, 0
3, 27312, Note_on_c, 0, 66, 64
3, 27357, Note_on_c, 0, 66, 0
3, 27360, Note_on_c, 0, 68, 64
3, 27405, Note_on_c, 0, 68, 0
3, 27408, Note_on_c, 0, 73, 64
3, 27453, Note_on_c, 0, 73, 0
3, 27456, Note_on_c, 0, 73, 64
3, 27501, Note_on_c, 0, 73, 0
3, 27504, Note_on_c, 0, 70, 64
3, 27549, Note_on_c, 0, 70, 0
3, 27552, Note_on_c, 0, 73, 64
3, 27597, Note_on_c, 0, 73, 0
3, 27600, Note_on_c, 0, 67, 64
3, 27645, Note_on_c, 0, 67, 0
3, 27648, Note_on_c, 0, 63, 64
3, 27693, Note_on_c, 0, 63, 0
3, 27696, Note_on_c, 0, 64, 64
3, 27741, Note_on_c, 0, 64, 0
3, 27744, Note_on_c, 0, 66, 64
3, 27789, Note_on_c, 0, 66, 0
3, 27792, Note_on_c, 0, 72, 64
3, 27837, Note_on_c, 0, 72, 0
3, 27840, Note_on_c, 0, 72, 64
3, 27885, Note_on_c, 0, 72, 0
3, 27888, Note_on_c, 0, 69, 64
3, 27933, Note_on_c, 0, 69, 0
3, 27936, Note_on_c, 0, 72, 64
3, 27981, Note_on_c, 0, 72, 0
3, 27984, Note_on_c, 0, 66, 64
3, 28029, Note_on_c, 0, 66, 0
3, 28032, Note_on_c, 0, 61, 64
3, 28077, Note_on_c, 0, 61, 0
3, 28080, Note_on_c, 0, 63, 64
3, 28125, Note_on_c, 0, 63, 0
3, 28128, Note_on_c, 0, 64, 64
3, 28173, Note_on_c, 0, 64, 0
3, 28176, Note_on_c, 0, 70, 64
3, 28221, Note_on_c, 0, 70, 0
3, 28224, Note_on_c, 0, 70, 64
3, 28269, Note_on_c, 0, 70, 0
3, 28272, Note_on_c, 0, 67, 64
3, 28317, Note_on_c, 0, 67, 0
3, 28320, Note_on_c, 0, 70, 64
3, 28365, Note_on_c, 0, 70, 0
3, 28368, Note_on_c, 0, 61, 64
3, 28413, Note_on_c, 0, 61, 0
3, 28416, Note_on_c, 0, 60, 64
3, 28505, Note_on_c, 0, 60, 0
3, 28512, Note_on_c, 0, 61, 64
3, 28557, Note_on_c, 0, 61, 0
3, 28560, Note_on_c, 0, 63, 64
3, 28605, Note_on_c, 0, 63, 0
3, 28608, Note_on_c, 0, 64, 64
3, 28653, Note_on_c, 0, 64, 0
3, 28656, Note_on_c, 0, 66, 64
3, 28701, Note_on_c, 0, 66, 0
3, 28704, Note_on_c, 0, 68, 64
3, 28793, Note_on_c, 0, 68, 0
3, 28800, Note_on_c, 0, 61, 64
3, 28889, Note_on_c, 0, 61, 0
3, 28896, Note_on_c, 0, 73, 64
3, 28941, Note_on_c, 0, 73, 0
3, 28944, Note_on_c, 0, 72, 64
3, 28989, Note_on_c, 0, 72, 0
3, 28992, Note_on_c, 0, 73, 64
3, 29037, Note_on_c, 0, 73, 0
3, 29040, Note_on_c, 0, 75, 64
3, 29085, Note_on_c, 0, 75, 0
3, 29088, Note_on_c, 0, 76, 64
3, 29133, Note_on_c, 0, 76, 0
3, 29136, Note_on_c, 0, 73, 64
3, 29181, Note_on_c, 0, 73, 0
3, 29184, Note_on_c, 0, 69, 64
3, 29657, Note_on_c, 0, 69, 0
3, 29664, Note_on_c, 0, 75, 64
3, 29709, Note_on_c, 0, 75, 0
3, 29712, Note_on_c, 0, 73, 64
3, 29757, Note_on_c, 0, 73, 0
3, 29760, Note_on_c, 0, 75, 64
3, 29805, Note_on_c, 0, 75, 0
3, 29808, Note_on_c, 0, 76, 64
3, 29853, Note_on_c, 0, 76, 0
3, 29856, Note_on_c, 0, 78, 64
3, 29901, Note_on_c, 0, 78, 0
3, 29904, Note_on_c, 0, 75, 64
3, 29949, Note_on_c, 0, 75, 0
3, 29952, Note_on_c, 0, 80, 64
3, 30690, Note_on_c, 0, 80, 0
3, 30720, Note_on_c, 0, 80, 64
3, 30809, Note_on_c, 0, 80, 0
3, 30816, Note_on_c, 0, 68, 64
3, 30905, Note_on_c, 0, 68, 0
3, 30912, Note_on_c, 0, 73, 64
3, 31001, Note_on_c, 0, 73, 0
3, 31008, Note_on_c, 0, 76, 64
3, 31053, Note_on_c, 0, 76, 0
3, 31056, Note_on_c, 0, 75, 64
3, 31101, Note_on_c, 0, 75, 0
3, 31104, Note_on_c, 0, 76, 64
3, 31237, Note_on_c, 0, 76, 0
3, 31248, Note_on_c, 0, 80, 64
3, 31293, Note_on_c, 0, 80, 0
3, 31296, Note_on_c, 0, 78, 64
3, 31385, Note_on_c, 0, 78, 0
3, 31392, Note_on_c, 0, 76, 64
3, 31415, Note_on_c, 0, 76, 0
3, 31416, Note_on_c, 0, 75, 64
3, 31439, Note_on_c, 0, 75, 0
3, 31440, Note_on_c, 0, 76, 64
3, 31485, Note_on_c, 0, 76, 0
3, 31488, Note_on_c, 0, 75, 64
3, 31961, Note_on_c, 0, 75, 0
3, 31968, Note_on_c, 0, 80, 64
3, 32057, Note_on_c, 0, 80, 0
3, 32064, Note_on_c, 0, 78, 64
3, 32087, Note_on_c, 0, 78, 0
3, 32088, Note_on_c, 0, 76, 64
3, 32133, Note_on_c, 0, 76, 0
3, 32136, Note_on_c, 0, 75, 64
3, 32159, Note_on_c, 0, 75, 0
3, 32160, Note_on_c, 0, 73, 64
3, 32205, Note_on_c, 0, 73, 0
3, 32208, Note_on_c, 0, 75, 64
3, 32231, Note_on_c, 0, 75, 0
3, 32232, Note_on_c, 0, 72, 64
3, 32255, Note_on_c, 0, 72, 0
3, 32256, Note_on_c, 0, 73, 64
3, 32729, Note_on_c, 0, 73, 0
3, 32736, Note_on_c, 0, 75, 64
3, 32781, Note_on_c, 0, 75, 0
3, 32784, Note_on_c, 0, 76, 64
3, 32829, Note_on_c, 0, 76, 0
3, 32832, Note_on_c, 0, 78, 64
3, 32877, Note_on_c, 0, 78, 0
3, 32880, Note_on_c, 0, 80, 64
3, 32925, Note_on_c, 0, 80, 0
3, 32928, Note_on_c, 0, 81, 64
3, 32973, Note_on_c, 0, 81, 0
3, 32976, Note_on_c, 0, 73, 64
3, 33021, Note_on_c, 0, 73, 0
3, 33024, Note_on_c, 0, 72, 64
3, 33157, Note_on_c, 0, 72, 0
3, 33168, Note_on_c, 0, 70, 64
3, 33191, Note_on_c, 0, 70, 0
3, 33192, Note_on_c, 0, 68, 64
3, 33215, Note_on_c, 0, 68, 0
3, 33216, Note_on_c, 0, 68, 64
3, 34605, Note_on_c, 0, 68, 0
3, 34608, Note_on_c, 0, 68, 64
3, 34653, Note_on_c, 0, 68, 0
3, 34656, Note_on_c, 0, 70, 64
3, 34701, Note_on_c, 0, 70, 0
3, 34704, Note_on_c, 0, 72, 64
3, 34749, Note_on_c, 0, 72, 0
3, 34752, Note_on_c, 0, 73, 64
3, 34797, Note_on_c, 0, 73, 0
3, 34800, Note_on_c, 0, 72, 64
3, 34845, Note_on_c, 0, 72, 0
3, 34848, Note_on_c, 0, 73, 64
3, 34893, Note_on_c, 0, 73, 0
3, 34896, Note_on_c, 0, 75, 64
3, 34941, Note_on_c, 0, 75, 0
3, 34944, Note_on_c, 0, 76, 64
3, 35417, Note_on_c, 0, 76, 0
3, 35424, Note_on_c, 0, 75, 64
3, 35469, Note_on_c, 0, 75, 0
3, 35472, Note_on_c, 0, 76, 64
3, 35517, Note_on_c, 0, 76, 0
3, 35520, Note_on_c, 0, 78, 64
3, 35565, Note_on_c, 0, 78, 0
3, 35568, Note_on_c, 0, 76, 64
3, 35613, Note_on_c, 0, 76, 0
3, 35616, Note_on_c, 0, 75, 64
3, 35661, Note_on_c, 0, 75, 0
3, 35664, Note_on_c, 0, 73, 64
3, 35709, Note_on_c, 0, 73, 0
3, 35712, Note_on_c, 0, 72, 64
3, 36066, Note_on_c, 0, 72, 0
3, 36096, Note_on_c, 0, 73, 64
3, 36141, Note_on_c, 0, 73, 0
3, 36144, Note_on_c, 0, 75, 64
3, 36189, Note_on_c, 0, 75, 0
3, 36192, Note_on_c, 0, 76, 64
3, 36237, Note_on_c, 0, 76, 0
3, 36240, Note_on_c, 0, 80, 64
3, 36285, Note_on_c, 0, 80, 0
3, 36288, Note_on_c, 0, 85, 64
3, 36333, Note_on_c, 0, 85, 0
3, 36336, Note_on_c, 0, 80, 64
3, 36381, Note_on_c, 0, 80, 0
3, 36384, Note_on_c, 0, 85, 64
3, 36429, Note_on_c, 0, 85, 0
3, 36432, Note_on_c, 0, 80, 64
3, 36477, Note_on_c, 0, 80, 0
3, 36480, Note_on_c, 0, 76, 64
3, 36525, Note_on_c, 0, 76, 0
3, 36528, Note_on_c, 0, 78, 64
3, 36573, Note_on_c, 0, 78, 0
3, 36576, Note_on_c, 0, 80, 64
3, 36621, Note_on_c, 0, 80, 0
3, 36624, Note_on_c, 0, 85, 64
3, 36669, Note_on_c, 0, 85, 0
3, 36672, Note_on_c, 0, 85, 64
3, 36717, Note_on_c, 0, 85, 0
3, 36720, Note_on_c, 0, 80, 64
3, 36765, Note_on_c, 0, 80, 0
3, 36768, Note_on_c, 0, 85, 64
3, 36813, Note_on_c, 0, 85, 0
3, 36816, Note_on_c, 0, 76, 64
3, 36861, Note_on_c, 0, 76, 0
3, 36864, Note_on_c, 0, 72, 64
3, 36909, Note_on_c, 0, 72, 0
3, 36912, Note_on_c, 0, 73, 64
3, 36957, Note_on_c, 0, 73, 0
3, 36960, Note_on_c, 0, 75, 64
3, 37005, Note_on_c, 0, 75, 0
3, 37008, Note_on_c, 0, 78, 64
3, 37053, Note_on_c, 0, 78, 0
3, 37056, Note_on_c, 0, 81, 64
3, 37101, Note_on_c, 0, 81, 0
3, 37104, Note_on_c, 0, 78, 64
3, 37149, Note_on_c, 0, 78, 0
3, 37152, Note_on_c, 0, 81, 64
3, 37197, Note_on_c, 0, 81, 0
3, 37200, Note_on_c, 0, 76, 64
3, 37245, Note_on_c, 0, 76, 0
3, 37248, Note_on_c, 0, 75, 64
3, 37293, Note_on_c, 0, 75, 0
3, 37296, Note_on_c, 0, 81, 64
3, 37341, Note_on_c, 0, 81, 0
3, 37344, Note_on_c, 0, 73, 64
3, 37389, Note_on_c, 0, 73, 0
3, 37392, Note_on_c, 0, 81, 64
3, 37437, Note_on_c, 0, 81, 0
3, 37440, Note_on_c, 0, 72, 64
3, 37529, Note_on_c, 0, 72, 0
3, 37536, Note_on_c, 0, 80, 64
3, 37721, Note_on_c, 0, 80, 0
3, 37728, Note_on_c, 0, 81, 64
3, 37773, Note_on_c, 0, 81, 0
3, 37776, Note_on_c, 0, 80, 64
3, 37821, Note_on_c, 0, 80, 0
3, 37824, Note_on_c, 0, 81, 64
3, 38105, Note_on_c, 0, 81, 0
3, 38112, Note_on_c, 0, 83, 64
3, 38157, Note_on_c, 0, 83, 0
3, 38160, Note_on_c, 0, 81, 64
3, 38205, Note_on_c, 0, 81, 0
3, 38208, Note_on_c, 0, 83, 64
3, 38489, Note_on_c, 0, 83, 0
3, 38496, Note_on_c, 0, 85, 64
3, 38541, Note_on_c, 0, 85, 0
3, 38544, Note_on_c, 0, 84, 64
3, 38589, Note_on_c, 0, 84, 0
3, 38592, Note_on_c, 0, 85, 64
3, 38829, Note_on_c, 0, 85, 0
3, 38832, Note_on_c, 0, 87, 64
3, 38877, Note_on_c, 0, 87, 0
3, 38880, Note_on_c, 0, 85, 64
3, 38925, Note_on_c, 0, 85, 0
3, 38928, Note_on_c, 0, 83, 64
3, 38973, Note_on_c, 0, 83, 0
3, 38976, Note_on_c, 0, 81, 64
3, 39021, Note_on_c, 0, 81, 0
3, 39024, Note_on_c, 0, 80, 64
3, 39069, Note_on_c, 0, 80, 0
3, 39072, Note_on_c, 0, 78, 64
3, 39117, Note_on_c, 0, 78, 0
3, 39120, Note_on_c, 0, 81, 64
3, 39165, Note_on_c, 0, 81, 0
3, 39168, Note_on_c, 0, 75, 64
3, 39345, Note_on_c, 0, 75, 0
3, 39360, Note_on_c, 0, 83, 64
3, 39597, Note_on_c, 0, 83, 0
3, 39600, Note_on_c, 0, 85, 64
3, 39645, Note_on_c, 0, 85, 0
3, 39648, Note_on_c, 0, 83, 64
3, 39693, Note_on_c, 0, 83, 0
3, 39696, Note_on_c, 0, 81, 64
3, 39741, Note_on_c, 0, 81, 0
3, 39744, Note_on_c, 0, 80, 64
3, 39789, Note_on_c, 0, 80, 0
3, 39792, Note_on_c, 0, 78, 64
3, 39837, Note_on_c, 0, 78, 0
3, 39840, Note_on_c, 0, 77, 64
3, 39885, Note_on_c, 0, 77, 0
3, 39888, Note_on_c, 0, 80, 64
3, 39933, Note_on_c, 0, 80, 0
3, 39936, Note_on_c, 0, 73, 64
3, 40113, Note_on_c, 0, 73, 0
3, 40128, Note_on_c, 0, 81, 64
3, 40365, Note_on_c, 0, 81, 0
3, 40368, Note_on_c, 0, 83, 64
3, 40413, Note_on_c, 0, 83, 0
3, 40416, Note_on_c, 0, 81, 64
3, 40461, Note_on_c, 0, 81, 0
3, 40464, Note_on_c, 0, 80, 64
3, 40509, Note_on_c, 0, 80, 0
3, 40512, Note_on_c, 0, 78, 64
3, 40557, Note_on_c, 0, 78, 0
3, 40560, Note_on_c, 0, 76, 64
3, 40605, Note_on_c, 0, 76, 0
3, 40608, Note_on_c, 0, 74, 64
3, 40653, Note_on_c, 0, 74, 0
3, 40656, Note_on_c, 0, 73, 64
3, 40701, Note_on_c, 0, 73, 0
3, 40704, Note_on_c, 0, 71, 64
3, 40749, Note_on_c, 0, 71, 0
3, 40752, Note_on_c, 0, 69, 64
3, 40797, Note_on_c, 0, 69, 0
3, 40800, Note_on_c, 0, 71, 64
3, 40845, Note_on_c, 0, 71, 0
3, 40848, Note_on_c, 0, 73, 64
3, 40893, Note_on_c, 0, 73, 0
3, 40896, Note_on_c, 0, 71, 64
3, 40941, Note_on_c, 0, 71, 0
3, 40944, Note_on_c, 0, 69, 64
3, 40989, Note_on_c, 0, 69, 0
3, 40992, Note_on_c, 0, 68, 64
3, 41037, Note_on_c, 0, 68, 0
3, 41040, Note_on_c, 0, 71, 64
3, 41085, Note_on_c, 0, 71, 0
3, 41088, Note_on_c, 0, 73, 64
3, 41133, Note_on_c, 0, 73, 0
3, 41136, Note_on_c, 0, 71, 64
3, 41181, Note_on_c, 0, 71, 0
3, 41184, Note_on_c, 0, 73, 64
3, 41229, Note_on_c, 0, 73, 0
3, 41232, Note_on_c, 0, 74, 64
3, 41277, Note_on_c, 0, 74, 0
3, 41280, Note_on_c, 0, 73, 64
3, 41325, Note_on_c, 0, 73, 0
3, 41328, Note_on_c, 0, 71, 64
3, 41373, Note_on_c, 0, 71, 0
3, 41376, Note_on_c, 0, 69, 64
3, 41421, Note_on_c, 0, 69, 0
3, 41424, Note_on_c, 0, 68, 64
3, 41469, Note_on_c, 0, 68, 0
3, 41472, Note_on_c, 0, 66, 64
3, 41517, Note_on_c, 0, 66, 0
3, 41520, Note_on_c, 0, 68, 64
3, 41565, Note_on_c, 0, 68, 0
3, 41568, Note_on_c, 0, 69, 64
3, 41613, Note_on_c, 0, 69, 0
3, 41616, Note_on_c, 0, 66, 64
3, 41661, Note_on_c, 0, 66, 0
3, 41664, Note_on_c, 0, 71, 64
3, 41901, Note_on_c, 0, 71, 0
3, 41904, Note_on_c, 0, 69, 64
3, 41949, Note_on_c, 0, 69, 0
3, 41952, Note_on_c, 0, 68, 64
3, 41997, Note_on_c, 0, 68, 0
3, 42000, Note_on_c, 0, 66, 64
3, 42045, Note_on_c, 0, 66, 0
3, 42048, Note_on_c, 0, 73, 64
3, 42137, Note_on_c, 0, 73, 0
3, 42240, Note_on_c, 0, 73, 64
3, 42417, Note_on_c, 0, 73, 0
3, 42432, Note_on_c, 0, 69, 64
3, 42521, Note_on_c, 0, 69, 0
3, 42528, Note_on_c, 0, 69, 64
3, 42573, Note_on_c, 0, 69, 0
3, 42576, Note_on_c, 0, 71, 64
3, 42621, Note_on_c, 0, 71, 0
3, 42624, Note_on_c, 0, 73, 64
3, 42713, Note_on_c, 0, 73, 0
3, 42720, Note_on_c, 0, 73, 64
3, 42765, Note_on_c, 0, 73, 0
3, 42768, Note_on_c, 0, 74, 64
3, 42813, Note_on_c, 0, 74, 0
3, 42816, Note_on_c, 0, 73, 64
3, 42861, Note_on_c, 0, 73, 0
3, 42864, Note_on_c, 0, 71, 64
3, 42909, Note_on_c, 0, 71, 0
3, 42912, Note_on_c, 0, 69, 64
3, 43001, Note_on_c, 0, 69, 0
3, 43008, Note_on_c, 0, 71, 64
3, 43185, Note_on_c, 0, 71, 0
3, 43200, Note_on_c, 0, 68, 64
3, 43289, Note_on_c, 0, 68, 0
3, 43296, Note_on_c, 0, 68, 64
3, 43341, Note_on_c, 0, 68, 0
3, 43344, Note_on_c, 0, 69, 64
3, 43389, Note_on_c, 0, 69, 0
3, 43392, Note_on_c, 0, 71, 64
3, 43437, Note_on_c, 0, 71, 0
3, 43440, Note_on_c, 0, 69, 64
3, 43485, Note_on_c, 0, 69, 0
3, 43488, Note_on_c, 0, 71, 64
3, 43533, Note_on_c, 0, 71, 0
3, 43536, Note_on_c, 0, 73, 64
3, 43581, Note_on_c, 0, 73, 0
3, 43584, Note_on_c, 0, 71, 64
3, 43629, Note_on_c, 0, 71, 0
3, 43632, Note_on_c, 0, 69, 64
3, 43677, Note_on_c, 0, 69, 0
3, 43680, Note_on_c, 0, 68, 64
3, 43725, Note_on_c, 0, 68, 0
3, 43728, Note_on_c, 0, 71, 64
3, 43773, Note_on_c, 0, 71, 0
3, 43776, Note_on_c, 0, 69, 64
3, 43821, Note_on_c, 0, 69, 0
3, 43824, Note_on_c, 0, 68, 64
3, 43869, Note_on_c, 0, 68, 0
3, 43872, Note_on_c, 0, 69, 64
3, 43917, Note_on_c, 0, 69, 0
3, 43920, Note_on_c, 0, 71, 64
3, 43965, Note_on_c, 0, 71, 0
3, 43968, Note_on_c, 0, 69, 64
3, 44013, Note_on_c, 0, 69, 0
3, 44016, Note_on_c, 0, 68, 64
3, 44061, Note_on_c, 0, 68, 0
3, 44064, Note_on_c, 0, 66, 64
3, 44109, Note_on_c, 0, 66, 0
3, 44112, Note_on_c, 0, 69, 64
3, 44157, Note_on_c, 0, 69, 0
3, 44160, Note_on_c, 0, 68, 64
3, 44205, Note_on_c, 0, 68, 0
3, 44208, Note_on_c, 0, 66, 64
3, 44253, Note_on_c, 0, 66, 0
3, 44256, Note_on_c, 0, 68, 64
3, 44301, Note_on_c, 0, 68, 0
3, 44304, Note_on_c, 0, 69, 64
3, 44349, Note_on_c, 0, 69, 0
3, 44352, Note_on_c, 0, 68, 64
3, 44397, Note_on_c, 0, 68, 0
3, 44400, Note_on_c, 0, 71, 64
3, 44445, Note_on_c, 0, 71, 0
3, 44448, Note_on_c, 0, 70, 64
3, 44493, Note_on_c, 0, 70, 0
3, 44496, Note_on_c, 0, 73, 64
3, 44541, Note_on_c, 0, 73, 0
3, 44544, Note_on_c, 0, 71, 64
3, 44721, Note_on_c, 0, 71, 0
3, 44736, Note_on_c, 0, 66, 64
3, 44825, Note_on_c, 0, 66, 0
3, 44832, Note_on_c, 0, 66, 64
3, 44877, Note_on_c, 0, 66, 0
3, 44880, Note_on_c, 0, 68, 64
3, 44925, Note_on_c, 0, 68, 0
3, 44928, Note_on_c, 0, 69, 64
3, 45017, Note_on_c, 0, 69, 0
3, 45024, Note_on_c, 0, 69, 64
3, 45069, Note_on_c, 0, 69, 0
3, 45072, Note_on_c, 0, 71, 64
3, 45117, Note_on_c, 0, 71, 0
3, 45120, Note_on_c, 0, 69, 64
3, 45165, Note_on_c, 0, 69, 0
3, 45168, Note_on_c, 0, 68, 64
3, 45213, Note_on_c, 0, 68, 0
3, 45216, Note_on_c, 0, 66, 64
3, 45305, Note_on_c, 0, 66, 0
3, 45312, Note_on_c, 0, 68, 64
3, 45357, Note_on_c, 0, 68, 0
3, 45360, Note_on_c, 0, 69, 64
3, 45405, Note_on_c, 0, 69, 0
3, 45408, Note_on_c, 0, 71, 64
3, 45497, Note_on_c, 0, 71, 0
3, 45504, Note_on_c, 0, 71, 64
3, 45681, Note_on_c, 0, 71, 0
3, 45696, Note_on_c, 0, 64, 64
3, 45741, Note_on_c, 0, 64, 0
3, 45744, Note_on_c, 0, 66, 64
3, 45789, Note_on_c, 0, 66, 0
3, 45792, Note_on_c, 0, 68, 64
3, 45881, Note_on_c, 0, 68, 0
3, 45888, Note_on_c, 0, 68, 64
3, 46065, Note_on_c, 0, 68, 0
3, 46080, Note_on_c, 0, 69, 64
3, 46125, Note_on_c, 0, 69, 0
3, 46128, Note_on_c, 0, 71, 64
3, 46173, Note_on_c, 0, 71, 0
3, 46176, Note_on_c, 0, 73, 64
3, 46221, Note_on_c, 0, 73, 0
3, 46224, Note_on_c, 0, 76, 64
3, 46269, Note_on_c, 0, 76, 0
3, 46272, Note_on_c, 0, 81, 64
3, 46317, Note_on_c, 0, 81, 0
3, 46320, Note_on_c, 0, 76, 64
3, 46365, Note_on_c, 0, 76, 0
3, 46368, Note_on_c, 0, 81, 64
3, 46413, Note_on_c, 0, 81, 0
3, 46416, Note_on_c, 0, 74, 64
3, 46461, Note_on_c, 0, 74, 0
3, 46464, Note_on_c, 0, 73, 64
3, 46509, Note_on_c, 0, 73, 0
3, 46512, Note_on_c, 0, 74, 64
3, 46557, Note_on_c, 0, 74, 0
3, 46560, Note_on_c, 0, 76, 64
3, 46605, Note_on_c, 0, 76, 0
3, 46608, Note_on_c, 0, 81, 64
3, 46653, Note_on_c, 0, 81, 0
3, 46656, Note_on_c, 0, 81, 64
3, 46701, Note_on_c, 0, 81, 0
3, 46704, Note_on_c, 0, 76, 64
3, 46749, Note_on_c, 0, 76, 0
3, 46752, Note_on_c, 0, 81, 64
3, 46797, Note_on_c, 0, 81, 0
3, 46800, Note_on_c, 0, 73, 64
3, 46845, Note_on_c, 0, 73, 0
3, 46848, Note_on_c, 0, 68, 64
3, 46893, Note_on_c, 0, 68, 0
3, 46896, Note_on_c, 0, 69, 64
3, 46941, Note_on_c, 0, 69, 0
3, 46944, Note_on_c, 0, 71, 64
3, 46989, Note_on_c, 0, 71, 0
3, 46992, Note_on_c, 0, 74, 64
3, 47037, Note_on_c, 0, 74, 0
3, 47040, Note_on_c, 0, 78, 64
3, 47085, Note_on_c, 0, 78, 0
3, 47088, Note_on_c, 0, 74, 64
3, 47133, Note_on_c, 0, 74, 0
3, 47136, Note_on_c, 0, 78, 64
3, 47181, Note_on_c, 0, 78, 0
3, 47184, Note_on_c, 0, 73, 64
3, 47229, Note_on_c, 0, 73, 0
3, 47232, Note_on_c, 0, 71, 64
3, 47277, Note_on_c, 0, 71, 0
3, 47280, Note_on_c, 0, 78, 64
3, 47325, Note_on_c, 0, 78, 0
3, 47328, Note_on_c, 0, 69, 64
3, 47373, Note_on_c, 0, 69, 0
3, 47376, Note_on_c, 0, 78, 64
3, 47421, Note_on_c, 0, 78, 0
3, 47424, Note_on_c, 0, 68, 64
3, 47557, Note_on_c, 0, 68, 0
3, 47568, Note_on_c, 0, 66, 64
3, 47591, Note_on_c, 0, 66, 0
3, 47592, Note_on_c, 0, 68, 64
3, 47615, Note_on_c, 0, 68, 0
3, 47616, Note_on_c, 0, 69, 64
3, 47793, Note_on_c, 0, 69, 0
3, 49152, Note_on_c, 0, 83, 64
3, 49329, Note_on_c, 0, 83, 0
3, 49344, Note_on_c, 0, 80, 64
3, 49433, Note_on_c, 0, 80, 0
3, 49440, Note_on_c, 0, 80, 64
3, 49485, Note_on_c, 0, 80, 0
3, 49488, Note_on_c, 0, 81, 64
3, 49533, Note_on_c, 0, 81, 0
3, 49536, Note_on_c, 0, 83, 64
3, 49625, Note_on_c, 0, 83, 0
3, 49632, Note_on_c, 0, 83, 64
3, 49677, Note_on_c, 0, 83, 0
3, 49680, Note_on_c, 0, 85, 64
3, 49725, Note_on_c, 0, 85, 0
3, 49728, Note_on_c, 0, 83, 64
3, 49773, Note_on_c, 0, 83, 0
3, 49776, Note_on_c, 0, 81, 64
3, 49821, Note_on_c, 0, 81, 0
3, 49824, Note_on_c, 0, 80, 64
3, 49913, Note_on_c, 0, 80, 0
3, 49920, Note_on_c, 0, 81, 64
3, 50097, Note_on_c, 0, 81, 0
3, 50112, Note_on_c, 0, 78, 64
3, 50201, Note_on_c, 0, 78, 0
3, 50208, Note_on_c, 0, 78, 64
3, 50253, Note_on_c, 0, 78, 0
3, 50256, Note_on_c, 0, 80, 64
3, 50301, Note_on_c, 0, 80, 0
3, 50304, Note_on_c, 0, 81, 64
3, 50349, Note_on_c, 0, 81, 0
3, 50352, Note_on_c, 0, 80, 64
3, 50397, Note_on_c, 0, 80, 0
3, 50400, Note_on_c, 0, 81, 64
3, 50445, Note_on_c, 0, 81, 0
3, 50448, Note_on_c, 0, 83, 64
3, 50493, Note_on_c, 0, 83, 0
3, 50496, Note_on_c, 0, 81, 64
3, 50541, Note_on_c, 0, 81, 0
3, 50544, Note_on_c, 0, 80, 64
3, 50589, Note_on_c, 0, 80, 0
3, 50592, Note_on_c, 0, 78, 64
3, 50637, Note_on_c, 0, 78, 0
3, 50640, Note_on_c, 0, 81, 64
3, 50685, Note_on_c, 0, 81, 0
3, 50688, Note_on_c, 0, 80, 64
3, 50733, Note_on_c, 0, 80, 0
3, 50736, Note_on_c, 0, 78, 64
3, 50781, Note_on_c, 0, 78, 0
3, 50784, Note_on_c, 0, 80, 64
3, 50829, Note_on_c, 0, 80, 0
3, 50832, Note_on_c, 0, 81, 64
3, 50877, Note_on_c, 0, 81, 0
3, 50880, Note_on_c, 0, 80, 64
3, 50925, Note_on_c, 0, 80, 0
3, 50928, Note_on_c, 0, 78, 64
3, 50973, Note_on_c, 0, 78, 0
3, 50976, Note_on_c, 0, 76, 64
3, 51021, Note_on_c, 0, 76, 0
3, 51024, Note_on_c, 0, 80, 64
3, 51069, Note_on_c, 0, 80, 0
3, 51072, Note_on_c, 0, 81, 64
3, 51117, Note_on_c, 0, 81, 0
3, 51120, Note_on_c, 0, 80, 64
3, 51165, Note_on_c, 0, 80, 0
3, 51168, Note_on_c, 0, 81, 64
3, 51213, Note_on_c, 0, 81, 0
3, 51216, Note_on_c, 0, 83, 64
3, 51261, Note_on_c, 0, 83, 0
3, 51264, Note_on_c, 0, 81, 64
3, 51309, Note_on_c, 0, 81, 0
3, 51312, Note_on_c, 0, 80, 64
3, 51357, Note_on_c, 0, 80, 0
3, 51360, Note_on_c, 0, 78, 64
3, 51405, Note_on_c, 0, 78, 0
3, 51408, Note_on_c, 0, 81, 64
3, 51453, Note_on_c, 0, 81, 0
3, 51456, Note_on_c, 0, 83, 64
3, 51501, Note_on_c, 0, 83, 0
3, 51504, Note_on_c, 0, 81, 64
3, 51549, Note_on_c, 0, 81, 0
3, 51552, Note_on_c, 0, 83, 64
3, 51597, Note_on_c, 0, 83, 0
3, 51600, Note_on_c, 0, 85, 64
3, 51645, Note_on_c, 0, 85, 0
3, 51648, Note_on_c, 0, 83, 64
3, 51693, Note_on_c, 0, 83, 0
3, 51696, Note_on_c, 0, 81, 64
3, 51741, Note_on_c, 0, 81, 0
3, 51744, Note_on_c, 0, 80, 64
3, 51789, Note_on_c, 0, 80, 0
3, 51792, Note_on_c, 0, 81, 64
3, 51837, Note_on_c, 0, 81, 0
3, 51840, Note_on_c, 0, 78, 64
3, 51929, Note_on_c, 0, 78, 0
3, 51936, Note_on_c, 0, 71, 64
3, 51981, Note_on_c, 0, 71, 0
3, 51984, Note_on_c, 0, 73, 64
3, 52029, Note_on_c, 0, 73, 0
3, 52032, Note_on_c, 0, 75, 64
3, 52077, Note_on_c, 0, 75, 0
3, 52080, Note_on_c, 0, 76, 64
3, 52125, Note_on_c, 0, 76, 0
3, 52128, Note_on_c, 0, 78, 64
3, 52173, Note_on_c, 0, 78, 0
3, 52176, Note_on_c, 0, 80, 64
3, 52221, Note_on_c, 0, 80, 0
3, 52224, Note_on_c, 0, 81, 64
3, 52269, Note_on_c, 0, 81, 0
3, 52272, Note_on_c, 0, 83, 64
3, 52317, Note_on_c, 0, 83, 0
3, 52320, Note_on_c, 0, 85, 64
3, 52409, Note_on_c, 0, 85, 0
3, 52416, Note_on_c, 0, 85, 64
3, 52593, Note_on_c, 0, 85, 0
3, 52608, Note_on_c, 0, 78, 64
3, 52653, Note_on_c, 0, 78, 0
3, 52656, Note_on_c, 0, 80, 64
3, 52701, Note_on_c, 0, 80, 0
3, 52704, Note_on_c, 0, 81, 64
3, 52793, Note_on_c, 0, 81, 0
3, 52800, Note_on_c, 0, 81, 64
3, 52977, Note_on_c, 0, 81, 0
3, 52992, Note_on_c, 0, 80, 64
3, 53037, Note_on_c, 0, 80, 0
3, 53040, Note_on_c, 0, 81, 64
3, 53085, Note_on_c, 0, 81, 0
3, 53088, Note_on_c, 0, 83, 64
3, 53177, Note_on_c, 0, 83, 0
3, 53184, Note_on_c, 0, 83, 64
3, 53361, Note_on_c, 0, 83, 0
3, 53376, Note_on_c, 0, 76, 64
3, 53421, Note_on_c, 0, 76, 0
3, 53424, Note_on_c, 0, 78, 64
3, 53469, Note_on_c, 0, 78, 0
3, 53472, Note_on_c, 0, 80, 64
3, 53561, Note_on_c, 0, 80, 0
3, 53568, Note_on_c, 0, 80, 64
3, 53849, Note_on_c, 0, 80, 0
3, 53856, Note_on_c, 0, 78, 64
3, 53901, Note_on_c, 0, 78, 0
3, 53904, Note_on_c, 0, 76, 64
3, 53949, Note_on_c, 0, 76, 0
3, 53952, Note_on_c, 0, 78, 64
3, 53997, Note_on_c, 0, 78, 0
3, 54000, Note_on_c, 0, 80, 64
3, 54045, Note_on_c, 0, 80, 0
3, 54048, Note_on_c, 0, 81, 64
3, 54137, Note_on_c, 0, 81, 0
3, 54144, Note_on_c, 0, 75, 64
3, 54233, Note_on_c, 0, 75, 0
3, 54240, Note_on_c, 0, 73, 64
3, 54285, Note_on_c, 0, 73, 0
3, 54288, Note_on_c, 0, 71, 64
3, 54333, Note_on_c, 0, 71, 0
3, 54336, Note_on_c, 0, 83, 64
3, 54425, Note_on_c, 0, 83, 0
3, 54432, Note_on_c, 0, 81, 64
3, 54521, Note_on_c, 0, 81, 0
3, 54528, Note_on_c, 0, 80, 64
3, 54573, Note_on_c, 0, 80, 0
3, 54576, Note_on_c, 0, 81, 64
3, 54621, Note_on_c, 0, 81, 0
3, 54624, Note_on_c, 0, 83, 64
3, 54669, Note_on_c, 0, 83, 0
3, 54672, Note_on_c, 0, 80, 64
3, 54717, Note_on_c, 0, 80, 0
3, 54720, Note_on_c, 0, 81, 64
3, 54765, Note_on_c, 0, 81, 0
3, 54768, Note_on_c, 0, 80, 64
3, 54813, Note_on_c, 0, 80, 0
3, 54816, Note_on_c, 0, 81, 64
3, 54861, Note_on_c, 0, 81, 0
3, 54864, Note_on_c, 0, 78, 64
3, 54909, Note_on_c, 0, 78, 0
3, 54912, Note_on_c, 0, 76, 64
3, 55266, Note_on_c, 0, 76, 0
3, 55266, End_track
4, 0, Start_track
4, 0, MIDI_port, 0
4, 0, Title_t, "Clavier (LH)"
4, 0, Program_c, 0, 6
4, 0, Control_c, 0, 7, 127
4, 0, Note_on_c, 0, 52, 64
4, 89, Note_on_c, 0, 52, 0
4, 96, Note_on_c, 0, 51, 64
4, 185, Note_on_c, 0, 51, 0
4, 192, Note_on_c, 0, 52, 64
4, 281, Note_on_c, 0, 52, 0
4, 288, Note_on_c, 0, 54, 64
4, 377, Note_on_c, 0, 54, 0
4, 384, Note_on_c, 0, 56, 64
4, 473, Note_on_c, 0, 56, 0
4, 480, Note_on_c, 0, 53, 64
4, 569, Note_on_c, 0, 53, 0
4, 576, Note_on_c, 0, 49, 64
4, 665, Note_on_c, 0, 49, 0
4, 672, Note_on_c, 0, 53, 64
4, 761, Note_on_c, 0, 53, 0
4, 768, Note_on_c, 0, 54, 64
4, 857, Note_on_c, 0, 54, 0
4, 864, Note_on_c, 0, 56, 64
4, 953, Note_on_c, 0, 56, 0
4, 960, Note_on_c, 0, 57, 64
4, 1049, Note_on_c, 0, 57, 0
4, 1056, Note_on_c, 0, 56, 64
4, 1145, Note_on_c, 0, 56, 0
4, 1152, Note_on_c, 0, 54, 64
4, 1241, Note_on_c, 0, 54, 0
4, 1248, Note_on_c, 0, 51, 64
4, 1337, Note_on_c, 0, 51, 0
4, 1344, Note_on_c, 0, 47, 64
4, 1433, Note_on_c, 0, 47, 0
4, 1440, Note_on_c, 0, 51, 64
4, 1529, Note_on_c, 0, 51, 0
4, 1536, Note_on_c, 0, 52, 64
4, 1625, Note_on_c, 0, 52, 0
4, 1632, Note_on_c, 0, 56, 64
4, 1721, Note_on_c, 0, 56, 0
4, 1728, Note_on_c, 0, 61, 64
4, 1905, Note_on_c, 0, 61, 0
4, 1920, Note_on_c, 0, 54, 64
4, 2009, Note_on_c, 0, 54, 0
4, 2016, Note_on_c, 0, 57, 64
4, 2105, Note_on_c, 0, 57, 0
4, 2112, Note_on_c, 0, 63, 64
4, 2289, Note_on_c, 0, 63, 0
4, 2304, Note_on_c, 0, 56, 64
4, 2393, Note_on_c, 0, 56, 0
4, 2400, Note_on_c, 0, 59, 64
4, 2489, Note_on_c, 0, 59, 0
4, 2496, Note_on_c, 0, 64, 64
4, 2585, Note_on_c, 0, 64, 0
4, 2592, Note_on_c, 0, 57, 64
4, 2681, Note_on_c, 0, 57, 0
4, 2688, Note_on_c, 0, 59, 64
4, 2777, Note_on_c, 0, 59, 0
4, 2784, Note_on_c, 0, 64, 64
4, 2873, Note_on_c, 0, 64, 0
4, 2880, Note_on_c, 0, 63, 64
4, 2969, Note_on_c, 0, 63, 0
4, 2976, Note_on_c, 0, 61, 64
4, 3065, Note_on_c, 0, 61, 0
4, 3072, Note_on_c, 0, 59, 64
4, 3161, Note_on_c, 0, 59, 0
4, 3168, Note_on_c, 0, 58, 64
4, 3257, Note_on_c, 0, 58, 0
4, 3264, Note_on_c, 0, 59, 64
4, 3353, Note_on_c, 0, 59, 0
4, 3360, Note_on_c, 0, 61, 64
4, 3449, Note_on_c, 0, 61, 0
4, 3456, Note_on_c, 0, 63, 64
4, 3545, Note_on_c, 0, 63, 0
4, 3552, Note_on_c, 0, 60, 64
4, 3641, Note_on_c, 0, 60, 0
4, 3648, Note_on_c, 0, 56, 64
4, 3737, Note_on_c, 0, 56, 0
4, 3744, Note_on_c, 0, 60, 64
4, 3833, Note_on_c, 0, 60, 0
4, 3840, Note_on_c, 0, 61, 64
4, 3929, Note_on_c, 0, 61, 0
4, 3936, Note_on_c, 0, 59, 64
4, 4025, Note_on_c, 0, 59, 0
4, 4032, Note_on_c, 0, 58, 64
4, 4121, Note_on_c, 0, 58, 0
4, 4128, Note_on_c, 0, 56, 64
4, 4217, Note_on_c, 0, 56, 0
4, 4224, Note_on_c, 0, 54, 64
4, 4313, Note_on_c, 0, 54, 0
4, 4320, Note_on_c, 0, 58, 64
4, 4409, Note_on_c, 0, 58, 0
4, 4416, Note_on_c, 0, 54, 64
4, 4505, Note_on_c, 0, 54, 0
4, 4512, Note_on_c, 0, 58, 64
4, 4601, Note_on_c, 0, 58, 0
4, 4608, Note_on_c, 0, 47, 64
4, 4697, Note_on_c, 0, 47, 0
4, 4704, Note_on_c, 0, 51, 64
4, 4793, Note_on_c, 0, 51, 0
4, 4800, Note_on_c, 0, 56, 64
4, 4977, Note_on_c, 0, 56, 0
4, 4992, Note_on_c, 0, 49, 64
4, 5081, Note_on_c, 0, 49, 0
4, 5088, Note_on_c, 0, 52, 64
4, 5177, Note_on_c, 0, 52, 0
4, 5184, Note_on_c, 0, 58, 64
4, 5361, Note_on_c, 0, 58, 0
4, 5376, Note_on_c, 0, 51, 64
4, 5465, Note_on_c, 0, 51, 0
4, 5472, Note_on_c, 0, 54, 64
4, 5561, Note_on_c, 0, 54, 0
4, 5568, Note_on_c, 0, 59, 64
4, 5657, Note_on_c, 0, 59, 0
4, 5664, Note_on_c, 0, 52, 64
4, 5753, Note_on_c, 0, 52, 0
4, 5760, Note_on_c, 0, 54, 64
4, 5849, Note_on_c, 0, 54, 0
4, 5856, Note_on_c, 0, 66, 64
4, 5945, Note_on_c, 0, 66, 0
4, 5952, Note_on_c, 0, 64, 64
4, 6041, Note_on_c, 0, 64, 0
4, 6048, Note_on_c, 0, 63, 64
4, 6137, Note_on_c, 0, 63, 0
4, 6144, Note_on_c, 0, 61, 64
4, 6233, Note_on_c, 0, 61, 0
4, 6240, Note_on_c, 0, 64, 64
4, 6285, Note_on_c, 0, 64, 0
4, 6288, Note_on_c, 0, 63, 64
4, 6333, Note_on_c, 0, 63, 0
4, 6336, Note_on_c, 0, 61, 64
4, 6381, Note_on_c, 0, 61, 0
4, 6384, Note_on_c, 0, 63, 64
4, 6429, Note_on_c, 0, 63, 0
4, 6432, Note_on_c, 0, 64, 64
4, 6521, Note_on_c, 0, 64, 0
4, 6528, Note_on_c, 0, 64, 64
4, 6617, Note_on_c, 0, 64, 0
4, 6624, Note_on_c, 0, 58, 64
4, 6713, Note_on_c, 0, 58, 0
4, 6720, Note_on_c, 0, 54, 64
4, 6809, Note_on_c, 0, 54, 0
4, 6816, Note_on_c, 0, 58, 64
4, 6905, Note_on_c, 0, 58, 0
4, 6912, Note_on_c, 0, 47, 64
4, 7001, Note_on_c, 0, 47, 0
4, 7008, Note_on_c, 0, 51, 64
4, 7053, Note_on_c, 0, 51, 0
4, 7056, Note_on_c, 0, 49, 64
4, 7101, Note_on_c, 0, 49, 0
4, 7104, Note_on_c, 0, 47, 64
4, 7149, Note_on_c, 0, 47, 0
4, 7152, Note_on_c, 0, 49, 64
4, 7197, Note_on_c, 0, 49, 0
4, 7200, Note_on_c, 0, 51, 64
4, 7289, Note_on_c, 0, 51, 0
4, 7296, Note_on_c, 0, 51, 64
4, 7385, Note_on_c, 0, 51, 0
4, 7392, Note_on_c, 0, 44, 64
4, 7481, Note_on_c, 0, 44, 0
4, 7488, Note_on_c, 0, 40, 64
4, 7577, Note_on_c, 0, 40, 0
4, 7584, Note_on_c, 0, 44, 64
4, 7673, Note_on_c, 0, 44, 0
4, 7680, Note_on_c, 0, 49, 64
4, 7769, Note_on_c, 0, 49, 0
4, 7776, Note_on_c, 0, 51, 64
4, 7865, Note_on_c, 0, 51, 0
4, 7872, Note_on_c, 0, 52, 64
4, 7961, Note_on_c, 0, 52, 0
4, 7968, Note_on_c, 0, 49, 64
4, 8057, Note_on_c, 0, 49, 0
4, 8064, Note_on_c, 0, 54, 64
4, 8153, Note_on_c, 0, 54, 0
4, 8160, Note_on_c, 0, 59, 64
4, 8249, Note_on_c, 0, 59, 0
4, 8256, Note_on_c, 0, 58, 64
4, 8345, Note_on_c, 0, 58, 0
4, 8352, Note_on_c, 0, 54, 64
4, 8441, Note_on_c, 0, 54, 0
4, 8448, Note_on_c, 0, 56, 64
4, 8537, Note_on_c, 0, 56, 0
4, 8544, Note_on_c, 0, 52, 64
4, 8633, Note_on_c, 0, 52, 0
4, 8640, Note_on_c, 0, 54, 64
4, 8729, Note_on_c, 0, 54, 0
4, 8736, Note_on_c, 0, 42, 64
4, 8825, Note_on_c, 0, 42, 0
4, 8832, Note_on_c, 0, 47, 64
4, 8877, Note_on_c, 0, 47, 0
4, 8880, Note_on_c, 0, 49, 64
4, 8925, Note_on_c, 0, 49, 0
4, 8928, Note_on_c, 0, 51, 64
4, 8973, Note_on_c, 0, 51, 0
4, 8976, Note_on_c, 0, 52, 64
4, 9021, Note_on_c, 0, 52, 0
4, 9024, Note_on_c, 0, 51, 64
4, 9069, Note_on_c, 0, 51, 0
4, 9072, Note_on_c, 0, 49, 64
4, 9117, Note_on_c, 0, 49, 0
4, 9120, Note_on_c, 0, 47, 64
4, 9165, Note_on_c, 0, 47, 0
4, 9168, Note_on_c, 0, 51, 64
4, 9213, Note_on_c, 0, 51, 0
4, 9216, Note_on_c, 0, 49, 64
4, 9261, Note_on_c, 0, 49, 0
4, 9264, Note_on_c, 0, 47, 64
4, 9309, Note_on_c, 0, 47, 0
4, 9312, Note_on_c, 0, 49, 64
4, 9357, Note_on_c, 0, 49, 0
4, 9360, Note_on_c, 0, 51, 64
4, 9405, Note_on_c, 0, 51, 0
4, 9408, Note_on_c, 0, 49, 64
4, 9453, Note_on_c, 0, 49, 0
4, 9456, Note_on_c, 0, 52, 64
4, 9501, Note_on_c, 0, 52, 0
4, 9504, Note_on_c, 0, 51, 64
4, 9549, Note_on_c, 0, 51, 0
4, 9552, Note_on_c, 0, 54, 64
4, 9597, Note_on_c, 0, 54, 0
4, 9600, Note_on_c, 0, 52, 64
4, 9645, Note_on_c, 0, 52, 0
4, 9648, Note_on_c, 0, 54, 64
4, 9693, Note_on_c, 0, 54, 0
4, 9696, Note_on_c, 0, 56, 64
4, 9741, Note_on_c, 0, 56, 0
4, 9744, Note_on_c, 0, 57, 64
4, 9789, Note_on_c, 0, 57, 0
4, 9792, Note_on_c, 0, 56, 64
4, 9837, Note_on_c, 0, 56, 0
4, 9840, Note_on_c, 0, 54, 64
4, 9885, Note_on_c, 0, 54, 0
4, 9888, Note_on_c, 0, 52, 64
4, 9933, Note_on_c, 0, 52, 0
4, 9936, Note_on_c, 0, 56, 64
4, 9981, Note_on_c, 0, 56, 0
4, 9984, Note_on_c, 0, 54, 64
4, 10029, Note_on_c, 0, 54, 0
4, 10032, Note_on_c, 0, 52, 64
4, 10077, Note_on_c, 0, 52, 0
4, 10080, Note_on_c, 0, 54, 64
4, 10125, Note_on_c, 0, 54, 0
4, 10128, Note_on_c, 0, 56, 64
4, 10173, Note_on_c, 0, 56, 0
4, 10176, Note_on_c, 0, 54, 64
4, 10221, Note_on_c, 0, 54, 0
4, 10224, Note_on_c, 0, 57, 64
4, 10269, Note_on_c, 0, 57, 0
4, 10272, Note_on_c, 0, 56, 64
4, 10317, Note_on_c, 0, 56, 0
4, 10320, Note_on_c, 0, 59, 64
4, 10365, Note_on_c, 0, 59, 0
4, 10368, Note_on_c, 0, 57, 64
4, 10413, Note_on_c, 0, 57, 0
4, 10416, Note_on_c, 0, 56, 64
4, 10461, Note_on_c, 0, 56, 0
4, 10464, Note_on_c, 0, 57, 64
4, 10509, Note_on_c, 0, 57, 0
4, 10512, Note_on_c, 0, 59, 64
4, 10557, Note_on_c, 0, 59, 0
4, 10560, Note_on_c, 0, 57, 64
4, 10605, Note_on_c, 0, 57, 0
4, 10608, Note_on_c, 0, 56, 64
4, 10653, Note_on_c, 0, 56, 0
4, 10656, Note_on_c, 0, 54, 64
4, 10701, Note_on_c, 0, 54, 0
4, 10704, Note_on_c, 0, 52, 64
4, 10749, Note_on_c, 0, 52, 0
4, 10752, Note_on_c, 0, 51, 64
4, 10841, Note_on_c, 0, 51, 0
4, 10848, Note_on_c, 0, 47, 64
4, 10937, Note_on_c, 0, 47, 0
4, 10944, Note_on_c, 0, 52, 64
4, 11033, Note_on_c, 0, 52, 0
4, 11040, Note_on_c, 0, 51, 64
4, 11129, Note_on_c, 0, 51, 0
4, 11136, Note_on_c, 0, 49, 64
4, 11181, Note_on_c, 0, 49, 0
4, 11184, Note_on_c, 0, 47, 64
4, 11229, Note_on_c, 0, 47, 0
4, 11232, Note_on_c, 0, 45, 64
4, 11277, Note_on_c, 0, 45, 0
4, 11280, Note_on_c, 0, 44, 64
4, 11325, Note_on_c, 0, 44, 0
4, 11328, Note_on_c, 0, 42, 64
4, 11373, Note_on_c, 0, 42, 0
4, 11376, Note_on_c, 0, 44, 64
4, 11421, Note_on_c, 0, 44, 0
4, 11424, Note_on_c, 0, 45, 64
4, 11469, Note_on_c, 0, 45, 0
4, 11472, Note_on_c, 0, 42, 64
4, 11517, Note_on_c, 0, 42, 0
4, 11520, Note_on_c, 0, 47, 64
4, 11874, Note_on_c, 0, 47, 0
4, 11904, Note_on_c, 0, 59, 64
4, 12081, Note_on_c, 0, 59, 0
4, 12096, Note_on_c, 0, 56, 64
4, 12185, Note_on_c, 0, 56, 0
4, 12192, Note_on_c, 0, 56, 64
4, 12237, Note_on_c, 0, 56, 0
4, 12240, Note_on_c, 0, 57, 64
4, 12285, Note_on_c, 0, 57, 0
4, 12288, Note_on_c, 0, 59, 64
4, 12377, Note_on_c, 0, 59, 0
4, 12384, Note_on_c, 0, 59, 64
4, 12429, Note_on_c, 0, 59, 0
4, 12432, Note_on_c, 0, 61, 64
4, 12477, Note_on_c, 0, 61, 0
4, 12480, Note_on_c, 0, 59, 64
4, 12525, Note_on_c, 0, 59, 0
4, 12528, Note_on_c, 0, 57, 64
4, 12573, Note_on_c, 0, 57, 0
4, 12576, Note_on_c, 0, 56, 64
4, 12665, Note_on_c, 0, 56, 0
4, 12672, Note_on_c, 0, 57, 64
4, 12849, Note_on_c, 0, 57, 0
4, 12864, Note_on_c, 0, 54, 64
4, 12953, Note_on_c, 0, 54, 0
4, 12960, Note_on_c, 0, 54, 64
4, 13005, Note_on_c, 0, 54, 0
4, 13008, Note_on_c, 0, 56, 64
4, 13053, Note_on_c, 0, 56, 0
4, 13056, Note_on_c, 0, 57, 64
4, 13101, Note_on_c, 0, 57, 0
4, 13104, Note_on_c, 0, 56, 64
4, 13149, Note_on_c, 0, 56, 0
4, 13152, Note_on_c, 0, 57, 64
4, 13197, Note_on_c, 0, 57, 0
4, 13200, Note_on_c, 0, 59, 64
4, 13245, Note_on_c, 0, 59, 0
4, 13248, Note_on_c, 0, 57, 64
4, 13293, Note_on_c, 0, 57, 0
4, 13296, Note_on_c, 0, 56, 64
4, 13341, Note_on_c, 0, 56, 0
4, 13344, Note_on_c, 0, 54, 64
4, 13389, Note_on_c, 0, 54, 0
4, 13392, Note_on_c, 0, 57, 64
4, 13437, Note_on_c, 0, 57, 0
4, 13440, Note_on_c, 0, 56, 64
4, 13485, Note_on_c, 0, 56, 0
4, 13488, Note_on_c, 0, 54, 64
4, 13533, Note_on_c, 0, 54, 0
4, 13536, Note_on_c, 0, 56, 64
4, 13581, Note_on_c, 0, 56, 0
4, 13584, Note_on_c, 0, 57, 64
4, 13629, Note_on_c, 0, 57, 0
4, 13632, Note_on_c, 0, 56, 64
4, 13677, Note_on_c, 0, 56, 0
4, 13680, Note_on_c, 0, 54, 64
4, 13725, Note_on_c, 0, 54, 0
4, 13728, Note_on_c, 0, 52, 64
4, 13773, Note_on_c, 0, 52, 0
4, 13776, Note_on_c, 0, 56, 64
4, 13821, Note_on_c, 0, 56, 0
4, 13824, Note_on_c, 0, 57, 64
4, 13869, Note_on_c, 0, 57, 0
4, 13872, Note_on_c, 0, 56, 64
4, 13917, Note_on_c, 0, 56, 0
4, 13920, Note_on_c, 0, 57, 64
4, 13965, Note_on_c, 0, 57, 0
4, 13968, Note_on_c, 0, 59, 64
4, 14013, Note_on_c, 0, 59, 0
4, 14016, Note_on_c, 0, 57, 64
4, 14061, Note_on_c, 0, 57, 0
4, 14064, Note_on_c, 0, 56, 64
4, 14109, Note_on_c, 0, 56, 0
4, 14112, Note_on_c, 0, 54, 64
4, 14157, Note_on_c, 0, 54, 0
4, 14160, Note_on_c, 0, 57, 64
4, 14205, Note_on_c, 0, 57, 0
4, 14208, Note_on_c, 0, 59, 64
4, 14253, Note_on_c, 0, 59, 0
4, 14256, Note_on_c, 0, 57, 64
4, 14301, Note_on_c, 0, 57, 0
4, 14304, Note_on_c, 0, 59, 64
4, 14349, Note_on_c, 0, 59, 0
4, 14352, Note_on_c, 0, 61, 64
4, 14397, Note_on_c, 0, 61, 0
4, 14400, Note_on_c, 0, 59, 64
4, 14445, Note_on_c, 0, 59, 0
4, 14448, Note_on_c, 0, 57, 64
4, 14493, Note_on_c, 0, 57, 0
4, 14496, Note_on_c, 0, 56, 64
4, 14541, Note_on_c, 0, 56, 0
4, 14544, Note_on_c, 0, 57, 64
4, 14589, Note_on_c, 0, 57, 0
4, 14592, Note_on_c, 0, 54, 64
4, 14681, Note_on_c, 0, 54, 0
4, 14688, Note_on_c, 0, 56, 64
4, 14733, Note_on_c, 0, 56, 0
4, 14736, Note_on_c, 0, 57, 64
4, 14781, Note_on_c, 0, 57, 0
4, 14784, Note_on_c, 0, 59, 64
4, 14829, Note_on_c, 0, 59, 0
4, 14832, Note_on_c, 0, 57, 64
4, 14877, Note_on_c, 0, 57, 0
4, 14880, Note_on_c, 0, 56, 64
4, 14925, Note_on_c, 0, 56, 0
4, 14928, Note_on_c, 0, 54, 64
4, 14973, Note_on_c, 0, 54, 0
4, 14976, Note_on_c, 0, 52, 64
4, 15241, Note_on_c, 0, 52, 0
4, 15264, Note_on_c, 0, 52, 64
4, 15309, Note_on_c, 0, 52, 0
4, 15312, Note_on_c, 0, 54, 64
4, 15357, Note_on_c, 0, 54, 0
4, 15360, Note_on_c, 0, 56, 64
4, 15449, Note_on_c, 0, 56, 0
4, 15456, Note_on_c, 0, 53, 64
4, 15545, Note_on_c, 0, 53, 0
4, 15552, Note_on_c, 0, 49, 64
4, 15641, Note_on_c, 0, 49, 0
4, 15648, Note_on_c, 0, 53, 64
4, 15737, Note_on_c, 0, 53, 0
4, 15744, Note_on_c, 0, 54, 64
4, 15833, Note_on_c, 0, 54, 0
4, 15840, Note_on_c, 0, 66, 64
4, 15885, Note_on_c, 0, 66, 0
4, 15888, Note_on_c, 0, 64, 64
4, 15933, Note_on_c, 0, 64, 0
4, 15936, Note_on_c, 0, 63, 64
4, 16025, Note_on_c, 0, 63, 0
4, 16032, Note_on_c, 0, 61, 64
4, 16121, Note_on_c, 0, 61, 0
4, 16128, Note_on_c, 0, 59, 64
4, 16217, Note_on_c, 0, 59, 0
4, 16224, Note_on_c, 0, 63, 64
4, 16313, Note_on_c, 0, 63, 0
4, 16320, Note_on_c, 0, 59, 64
4, 16409, Note_on_c, 0, 59, 0
4, 16416, Note_on_c, 0, 63, 64
4, 16505, Note_on_c, 0, 63, 0
4, 16512, Note_on_c, 0, 52, 64
4, 16601, Note_on_c, 0, 52, 0
4, 16608, Note_on_c, 0, 56, 64
4, 16697, Note_on_c, 0, 56, 0
4, 16704, Note_on_c, 0, 61, 64
4, 16881, Note_on_c, 0, 61, 0
4, 16896, Note_on_c, 0, 54, 64
4, 16985, Note_on_c, 0, 54, 0
4, 16992, Note_on_c, 0, 57, 64
4, 17081, Note_on_c, 0, 57, 0
4, 17088, Note_on_c, 0, 63, 64
4, 17265, Note_on_c, 0, 63, 0
4, 17280, Note_on_c, 0, 56, 64
4, 17369, Note_on_c, 0, 56, 0
4, 17376, Note_on_c, 0, 59, 64
4, 17465, Note_on_c, 0, 59, 0
4, 17472, Note_on_c, 0, 64, 64
4, 17561, Note_on_c, 0, 64, 0
4, 17568, Note_on_c, 0, 57, 64
4, 17657, Note_on_c, 0, 57, 0
4, 17664, Note_on_c, 0, 59, 64
4, 17709, Note_on_c, 0, 59, 0
4, 17712, Note_on_c, 0, 57, 64
4, 17757, Note_on_c, 0, 57, 0
4, 17760, Note_on_c, 0, 59, 64
4, 17805, Note_on_c, 0, 59, 0
4, 17808, Note_on_c, 0, 61, 64
4, 17853, Note_on_c, 0, 61, 0
4, 17856, Note_on_c, 0, 63, 64
4, 17901, Note_on_c, 0, 63, 0
4, 17904, Note_on_c, 0, 61, 64
4, 17949, Note_on_c, 0, 61, 0
4, 17952, Note_on_c, 0, 59, 64
4, 17997, Note_on_c, 0, 59, 0
4, 18000, Note_on_c, 0, 57, 64
4, 18045, Note_on_c, 0, 57, 0
4, 18048, Note_on_c, 0, 56, 64
4, 18093, Note_on_c, 0, 56, 0
4, 18096, Note_on_c, 0, 54, 64
4, 18141, Note_on_c, 0, 54, 0
4, 18144, Note_on_c, 0, 56, 64
4, 18189, Note_on_c, 0, 56, 0
4, 18192, Note_on_c, 0, 57, 64
4, 18237, Note_on_c, 0, 57, 0
4, 18240, Note_on_c, 0, 59, 64
4, 18285, Note_on_c, 0, 59, 0
4, 18288, Note_on_c, 0, 57, 64
4, 18333, Note_on_c, 0, 57, 0
4, 18336, Note_on_c, 0, 59, 64
4, 18381, Note_on_c, 0, 59, 0
4, 18384, Note_on_c, 0, 56, 64
4, 18429, Note_on_c, 0, 56, 0
4, 18432, Note_on_c, 0, 61, 64
4, 18521, Note_on_c, 0, 61, 0
4, 18528, Note_on_c, 0, 53, 64
4, 18617, Note_on_c, 0, 53, 0
4, 18624, Note_on_c, 0, 49, 64
4, 18713, Note_on_c, 0, 49, 0
4, 18720, Note_on_c, 0, 53, 64
4, 18809, Note_on_c, 0, 53, 0
4, 18816, Note_on_c, 0, 42, 64
4, 18905, Note_on_c, 0, 42, 0
4, 18912, Note_on_c, 0, 54, 64
4, 18957, Note_on_c, 0, 54, 0
4, 18960, Note_on_c, 0, 52, 64
4, 19005, Note_on_c, 0, 52, 0
4, 19008, Note_on_c, 0, 51, 64
4, 19097, Note_on_c, 0, 51, 0
4, 19104, Note_on_c, 0, 49, 64
4, 19193, Note_on_c, 0, 49, 0
4, 19200, Note_on_c, 0, 47, 64
4, 19289, Note_on_c, 0, 47, 0
4, 19296, Note_on_c, 0, 51, 64
4, 19385, Note_on_c, 0, 51, 0
4, 19392, Note_on_c, 0, 47, 64
4, 19481, Note_on_c, 0, 47, 0
4, 19488, Note_on_c, 0, 51, 64
4, 19577, Note_on_c, 0, 51, 0
4, 19584, Note_on_c, 0, 40, 64
4, 19673, Note_on_c, 0, 40, 0
4, 19680, Note_on_c, 0, 44, 64
4, 19769, Note_on_c, 0, 44, 0
4, 19776, Note_on_c, 0, 49, 64
4, 19953, Note_on_c, 0, 49, 0
4, 19968, Note_on_c, 0, 42, 64
4, 20057, Note_on_c, 0, 42, 0
4, 20064, Note_on_c, 0, 45, 64
4, 20153, Note_on_c, 0, 45, 0
4, 20160, Note_on_c, 0, 51, 64
4, 20337, Note_on_c, 0, 51, 0
4, 20352, Note_on_c, 0, 44, 64
4, 20441, Note_on_c, 0, 44, 0
4, 20448, Note_on_c, 0, 47, 64
4, 20537, Note_on_c, 0, 47, 0
4, 20544, Note_on_c, 0, 52, 64
4, 20633, Note_on_c, 0, 52, 0
4, 20640, Note_on_c, 0, 56, 64
4, 20729, Note_on_c, 0, 56, 0
4, 20736, Note_on_c, 0, 57, 64
4, 20825, Note_on_c, 0, 57, 0
4, 20832, Note_on_c, 0, 61, 64
4, 20877, Note_on_c, 0, 61, 0
4, 20880, Note_on_c, 0, 59, 64
4, 20925, Note_on_c, 0, 59, 0
4, 20928, Note_on_c, 0, 57, 64
4, 21017, Note_on_c, 0, 57, 0
4, 21024, Note_on_c, 0, 54, 64
4, 21113, Note_on_c, 0, 54, 0
4, 21120, Note_on_c, 0, 51, 64
4, 21209, Note_on_c, 0, 51, 0
4, 21216, Note_on_c, 0, 59, 64
4, 21261, Note_on_c, 0, 59, 0
4, 21264, Note_on_c, 0, 57, 64
4, 21309, Note_on_c, 0, 57, 0
4, 21312, Note_on_c, 0, 56, 64
4, 21401, Note_on_c, 0, 56, 0
4, 21408, Note_on_c, 0, 61, 64
4, 21497, Note_on_c, 0, 61, 0
4, 21504, Note_on_c, 0, 59, 64
4, 21593, Note_on_c, 0, 59, 0
4, 21600, Note_on_c, 0, 57, 64
4, 21689, Note_on_c, 0, 57, 0
4, 21696, Note_on_c, 0, 59, 64
4, 21785, Note_on_c, 0, 59, 0
4, 21792, Note_on_c, 0, 47, 64
4, 21881, Note_on_c, 0, 47, 0
4, 21888, Note_on_c, 0, 40, 64
4, 21977, Note_on_c, 0, 40, 0
4, 22272, Note_on_c, 0, 40, 64
4, 22361, Note_on_c, 0, 40, 0
4, 22704, Note_on_c, 0, 52, 64
4, 22749, Note_on_c, 0, 52, 0
4, 22752, Note_on_c, 0, 54, 64
4, 22797, Note_on_c, 0, 54, 0
4, 22800, Note_on_c, 0, 56, 64
4, 22845, Note_on_c, 0, 56, 0
4, 22848, Note_on_c, 0, 57, 64
4, 22893, Note_on_c, 0, 57, 0
4, 22896, Note_on_c, 0, 59, 64
4, 22941, Note_on_c, 0, 59, 0
4, 22944, Note_on_c, 0, 61, 64
4, 22989, Note_on_c, 0, 61, 0
4, 22992, Note_on_c, 0, 63, 64
4, 23037, Note_on_c, 0, 63, 0
4, 23040, Note_on_c, 0, 64, 64
4, 23085, Note_on_c, 0, 64, 0
4, 23088, Note_on_c, 0, 68, 64
4, 23133, Note_on_c, 0, 68, 0
4, 23136, Note_on_c, 0, 66, 64
4, 23181, Note_on_c, 0, 66, 0
4, 23184, Note_on_c, 0, 64, 64
4, 23229, Note_on_c, 0, 64, 0
4, 23232, Note_on_c, 0, 63, 64
4, 23277, Note_on_c, 0, 63, 0
4, 23280, Note_on_c, 0, 61, 64
4, 23325, Note_on_c, 0, 61, 0
4, 23328, Note_on_c, 0, 59, 64
4, 23373, Note_on_c, 0, 59, 0
4, 23376, Note_on_c, 0, 57, 64
4, 23421, Note_on_c, 0, 57, 0
4, 23424, Note_on_c, 0, 56, 64
4, 23469, Note_on_c, 0, 56, 0
4, 23472, Note_on_c, 0, 61, 64
4, 23517, Note_on_c, 0, 61, 0
4, 23520, Note_on_c, 0, 59, 64
4, 23565, Note_on_c, 0, 59, 0
4, 23568, Note_on_c, 0, 57, 64
4, 23613, Note_on_c, 0, 57, 0
4, 23616, Note_on_c, 0, 56, 64
4, 23661, Note_on_c, 0, 56, 0
4, 23664, Note_on_c, 0, 54, 64
4, 23709, Note_on_c, 0, 54, 0
4, 23712, Note_on_c, 0, 52, 64
4, 23757, Note_on_c, 0, 52, 0
4, 23760, Note_on_c, 0, 51, 64
4, 23805, Note_on_c, 0, 51, 0
4, 23808, Note_on_c, 0, 49, 64
4, 23897, Note_on_c, 0, 49, 0
4, 23904, Note_on_c, 0, 51, 64
4, 23993, Note_on_c, 0, 51, 0
4, 24000, Note_on_c, 0, 52, 64
4, 24089, Note_on_c, 0, 52, 0
4, 24096, Note_on_c, 0, 49, 64
4, 24185, Note_on_c, 0, 49, 0
4, 24192, Note_on_c, 0, 56, 64
4, 24281, Note_on_c, 0, 56, 0
4, 24288, Note_on_c, 0, 58, 64
4, 24377, Note_on_c, 0, 58, 0
4, 24384, Note_on_c, 0, 60, 64
4, 24473, Note_on_c, 0, 60, 0
4, 24480, Note_on_c, 0, 56, 64
4, 24569, Note_on_c, 0, 56, 0
4, 24576, Note_on_c, 0, 61, 64
4, 24665, Note_on_c, 0, 61, 0
4, 24672, Note_on_c, 0, 63, 64
4, 24761, Note_on_c, 0, 63, 0
4, 24768, Note_on_c, 0, 64, 64
4, 24857, Note_on_c, 0, 64, 0
4, 24864, Note_on_c, 0, 61, 64
4, 24953, Note_on_c, 0, 61, 0
4, 24960, Note_on_c, 0, 54, 64
4, 25049, Note_on_c, 0, 54, 0
4, 25056, Note_on_c, 0, 56, 64
4, 25145, Note_on_c, 0, 56, 0
4, 25152, Note_on_c, 0, 58, 64
4, 25241, Note_on_c, 0, 58, 0
4, 25248, Note_on_c, 0, 54, 64
4, 25337, Note_on_c, 0, 54, 0
4, 25344, Note_on_c, 0, 59, 64
4, 25433, Note_on_c, 0, 59, 0
4, 25440, Note_on_c, 0, 61, 64
4, 25529, Note_on_c, 0, 61, 0
4, 25536, Note_on_c, 0, 63, 64
4, 25625, Note_on_c, 0, 63, 0
4, 25632, Note_on_c, 0, 59, 64
4, 25721, Note_on_c, 0, 59, 0
4, 25728, Note_on_c, 0, 52, 64
4, 25817, Note_on_c, 0, 52, 0
4, 25824, Note_on_c, 0, 54, 64
4, 25913, Note_on_c, 0, 54, 0
4, 25920, Note_on_c, 0, 56, 64
4, 26009, Note_on_c, 0, 56, 0
4, 26016, Note_on_c, 0, 52, 64
4, 26105, Note_on_c, 0, 52, 0
4, 26112, Note_on_c, 0, 57, 64
4, 26201, Note_on_c, 0, 57, 0
4, 26208, Note_on_c, 0, 59, 64
4, 26297, Note_on_c, 0, 59, 0
4, 26304, Note_on_c, 0, 61, 64
4, 26393, Note_on_c, 0, 61, 0
4, 26400, Note_on_c, 0, 59, 64
4, 26489, Note_on_c, 0, 59, 0
4, 26496, Note_on_c, 0, 57, 64
4, 26585, Note_on_c, 0, 57, 0
4, 26592, Note_on_c, 0, 56, 64
4, 26681, Note_on_c, 0, 56, 0
4, 26688, Note_on_c, 0, 57, 64
4, 26777, Note_on_c, 0, 57, 0
4, 26784, Note_on_c, 0, 54, 64
4, 26873, Note_on_c, 0, 54, 0
4, 26880, Note_on_c, 0, 56, 64
4, 26969, Note_on_c, 0, 56, 0
4, 26976, Note_on_c, 0, 54, 64
4, 27065, Note_on_c, 0, 54, 0
4, 27072, Note_on_c, 0, 52, 64
4, 27161, Note_on_c, 0, 52, 0
4, 27168, Note_on_c, 0, 51, 64
4, 27257, Note_on_c, 0, 51, 0
4, 27264, Note_on_c, 0, 49, 64
4, 27353, Note_on_c, 0, 49, 0
4, 27360, Note_on_c, 0, 52, 64
4, 27449, Note_on_c, 0, 52, 0
4, 27456, Note_on_c, 0, 51, 64
4, 27545, Note_on_c, 0, 51, 0
4, 27552, Note_on_c, 0, 49, 64
4, 27641, Note_on_c, 0, 49, 0
4, 27648, Note_on_c, 0, 48, 64
4, 27737, Note_on_c, 0, 48, 0
4, 27744, Note_on_c, 0, 51, 64
4, 27833, Note_on_c, 0, 51, 0
4, 27840, Note_on_c, 0, 48, 64
4, 27929, Note_on_c, 0, 48, 0
4, 27936, Note_on_c, 0, 44, 64
4, 28025, Note_on_c, 0, 44, 0
4, 28032, Note_on_c, 0, 40, 64
4, 28121, Note_on_c, 0, 40, 0
4, 28128, Note_on_c, 0, 44, 64
4, 28217, Note_on_c, 0, 44, 0
4, 28224, Note_on_c, 0, 40, 64
4, 28313, Note_on_c, 0, 40, 0
4, 28320, Note_on_c, 0, 37, 64
4, 28409, Note_on_c, 0, 37, 0
4, 28416, Note_on_c, 0, 56, 64
4, 28593, Note_on_c, 0, 56, 0
4, 28608, Note_on_c, 0, 52, 64
4, 28697, Note_on_c, 0, 52, 0
4, 28704, Note_on_c, 0, 52, 64
4, 28749, Note_on_c, 0, 52, 0
4, 28752, Note_on_c, 0, 54, 64
4, 28797, Note_on_c, 0, 54, 0
4, 28800, Note_on_c, 0, 56, 64
4, 28889, Note_on_c, 0, 56, 0
4, 28896, Note_on_c, 0, 56, 64
4, 28941, Note_on_c, 0, 56, 0
4, 28944, Note_on_c, 0, 57, 64
4, 28989, Note_on_c, 0, 57, 0
4, 28992, Note_on_c, 0, 56, 64
4, 29037, Note_on_c, 0, 56, 0
4, 29040, Note_on_c, 0, 54, 64
4, 29085, Note_on_c, 0, 54, 0
4, 29088, Note_on_c, 0, 52, 64
4, 29177, Note_on_c, 0, 52, 0
4, 29184, Note_on_c, 0, 54, 64
4, 29361, Note_on_c, 0, 54, 0
4, 29376, Note_on_c, 0, 51, 64
4, 29465, Note_on_c, 0, 51, 0
4, 29472, Note_on_c, 0, 51, 64
4, 29517, Note_on_c, 0, 51, 0
4, 29520, Note_on_c, 0, 52, 64
4, 29565, Note_on_c, 0, 52, 0
4, 29568, Note_on_c, 0, 54, 64
4, 29613, Note_on_c, 0, 54, 0
4, 29616, Note_on_c, 0, 52, 64
4, 29661, Note_on_c, 0, 52, 0
4, 29664, Note_on_c, 0, 54, 64
4, 29709, Note_on_c, 0, 54, 0
4, 29712, Note_on_c, 0, 56, 64
4, 29757, Note_on_c, 0, 56, 0
4, 29760, Note_on_c, 0, 54, 64
4, 29805, Note_on_c, 0, 54, 0
4, 29808, Note_on_c, 0, 52, 64
4, 29853, Note_on_c, 0, 52, 0
4, 29856, Note_on_c, 0, 51, 64
4, 29901, Note_on_c, 0, 51, 0
4, 29904, Note_on_c, 0, 54, 64
4, 29949, Note_on_c, 0, 54, 0
4, 29952, Note_on_c, 0, 52, 64
4, 30041, Note_on_c, 0, 52, 0
4, 30048, Note_on_c, 0, 49, 64
4, 30093, Note_on_c, 0, 49, 0
4, 30096, Note_on_c, 0, 51, 64
4, 30141, Note_on_c, 0, 51, 0
4, 30144, Note_on_c, 0, 52, 64
4, 30233, Note_on_c, 0, 52, 0
4, 30240, Note_on_c, 0, 49, 64
4, 30329, Note_on_c, 0, 49, 0
4, 30336, Note_on_c, 0, 56, 64
4, 30425, Note_on_c, 0, 56, 0
4, 30432, Note_on_c, 0, 58, 64
4, 30521, Note_on_c, 0, 58, 0
4, 30528, Note_on_c, 0, 60, 64
4, 30617, Note_on_c, 0, 60, 0
4, 30624, Note_on_c, 0, 56, 64
4, 30713, Note_on_c, 0, 56, 0
4, 30720, Note_on_c, 0, 61, 64
4, 30809, Note_on_c, 0, 61, 0
4, 30816, Note_on_c, 0, 63, 64
4, 30905, Note_on_c, 0, 63, 0
4, 30912, Note_on_c, 0, 64, 64
4, 31001, Note_on_c, 0, 64, 0
4, 31008, Note_on_c, 0, 61, 64
4, 31097, Note_on_c, 0, 61, 0
4, 31104, Note_on_c, 0, 54, 64
4, 31193, Note_on_c, 0, 54, 0
4, 31200, Note_on_c, 0, 56, 64
4, 31289, Note_on_c, 0, 56, 0
4, 31296, Note_on_c, 0, 58, 64
4, 31385, Note_on_c, 0, 58, 0
4, 31392, Note_on_c, 0, 54, 64
4, 31481, Note_on_c, 0, 54, 0
4, 31488, Note_on_c, 0, 59, 64
4, 31577, Note_on_c, 0, 59, 0
4, 31584, Note_on_c, 0, 61, 64
4, 31673, Note_on_c, 0, 61, 0
4, 31680, Note_on_c, 0, 63, 64
4, 31769, Note_on_c, 0, 63, 0
4, 31776, Note_on_c, 0, 59, 64
4, 31865, Note_on_c, 0, 59, 0
4, 31872, Note_on_c, 0, 52, 64
4, 31961, Note_on_c, 0, 52, 0
4, 31968, Note_on_c, 0, 54, 64
4, 32057, Note_on_c, 0, 54, 0
4, 32064, Note_on_c, 0, 56, 64
4, 32153, Note_on_c, 0, 56, 0
4, 32160, Note_on_c, 0, 52, 64
4, 32249, Note_on_c, 0, 52, 0
4, 32256, Note_on_c, 0, 57, 64
4, 32345, Note_on_c, 0, 57, 0
4, 32352, Note_on_c, 0, 59, 64
4, 32441, Note_on_c, 0, 59, 0
4, 32448, Note_on_c, 0, 61, 64
4, 32537, Note_on_c, 0, 61, 0
4, 32544, Note_on_c, 0, 59, 64
4, 32633, Note_on_c, 0, 59, 0
4, 32640, Note_on_c, 0, 57, 64
4, 32729, Note_on_c, 0, 57, 0
4, 32736, Note_on_c, 0, 56, 64
4, 32825, Note_on_c, 0, 56, 0
4, 32832, Note_on_c, 0, 57, 64
4, 32921, Note_on_c, 0, 57, 0
4, 32928, Note_on_c, 0, 54, 64
4, 33017, Note_on_c, 0, 54, 0
4, 33024, Note_on_c, 0, 56, 64
4, 33113, Note_on_c, 0, 56, 0
4, 33120, Note_on_c, 0, 54, 64
4, 33209, Note_on_c, 0, 54, 0
4, 33216, Note_on_c, 0, 52, 64
4, 33305, Note_on_c, 0, 52, 0
4, 33312, Note_on_c, 0, 51, 64
4, 33401, Note_on_c, 0, 51, 0
4, 33408, Note_on_c, 0, 49, 64
4, 33497, Note_on_c, 0, 49, 0
4, 33504, Note_on_c, 0, 52, 64
4, 33593, Note_on_c, 0, 52, 0
4, 33600, Note_on_c, 0, 51, 64
4, 33689, Note_on_c, 0, 51, 0
4, 33696, Note_on_c, 0, 49, 64
4, 33785, Note_on_c, 0, 49, 0
4, 33792, Note_on_c, 0, 48, 64
4, 33881, Note_on_c, 0, 48, 0
4, 33888, Note_on_c, 0, 51, 64
4, 33977, Note_on_c, 0, 51, 0
4, 33984, Note_on_c, 0, 48, 64
4, 34073, Note_on_c, 0, 48, 0
4, 34080, Note_on_c, 0, 44, 64
4, 34169, Note_on_c, 0, 44, 0
4, 34176, Note_on_c, 0, 40, 64
4, 34265, Note_on_c, 0, 40, 0
4, 34272, Note_on_c, 0, 44, 64
4, 34361, Note_on_c, 0, 44, 0
4, 34368, Note_on_c, 0, 40, 64
4, 34457, Note_on_c, 0, 40, 0
4, 34464, Note_on_c, 0, 37, 64
4, 34553, Note_on_c, 0, 37, 0
4, 34560, Note_on_c, 0, 56, 64
4, 34737, Note_on_c, 0, 56, 0
4, 34752, Note_on_c, 0, 52, 64
4, 34841, Note_on_c, 0, 52, 0
4, 34848, Note_on_c, 0, 52, 64
4, 34893, Note_on_c, 0, 52, 0
4, 34896, Note_on_c, 0, 54, 64
4, 34941, Note_on_c, 0, 54, 0
4, 34944, Note_on_c, 0, 56, 64
4, 35033, Note_on_c, 0, 56, 0
4, 35040, Note_on_c, 0, 56, 64
4, 35085, Note_on_c, 0, 56, 0
4, 35088, Note_on_c, 0, 57, 64
4, 35133, Note_on_c, 0, 57, 0
4, 35136, Note_on_c, 0, 56, 64
4, 35181, Note_on_c, 0, 56, 0
4, 35184, Note_on_c, 0, 54, 64
4, 35229, Note_on_c, 0, 54, 0
4, 35232, Note_on_c, 0, 52, 64
4, 35321, Note_on_c, 0, 52, 0
4, 35328, Note_on_c, 0, 54, 64
4, 35505, Note_on_c, 0, 54, 0
4, 35520, Note_on_c, 0, 51, 64
4, 35609, Note_on_c, 0, 51, 0
4, 35616, Note_on_c, 0, 51, 64
4, 35661, Note_on_c, 0, 51, 0
4, 35664, Note_on_c, 0, 52, 64
4, 35709, Note_on_c, 0, 52, 0
4, 35712, Note_on_c, 0, 54, 64
4, 35757, Note_on_c, 0, 54, 0
4, 35760, Note_on_c, 0, 52, 64
4, 35805, Note_on_c, 0, 52, 0
4, 35808, Note_on_c, 0, 54, 64
4, 35853, Note_on_c, 0, 54, 0
4, 35856, Note_on_c, 0, 56, 64
4, 35901, Note_on_c, 0, 56, 0
4, 35904, Note_on_c, 0, 54, 64
4, 35949, Note_on_c, 0, 54, 0
4, 35952, Note_on_c, 0, 52, 64
4, 35997, Note_on_c, 0, 52, 0
4, 36000, Note_on_c, 0, 51, 64
4, 36045, Note_on_c, 0, 51, 0
4, 36048, Note_on_c, 0, 54, 64
4, 36093, Note_on_c, 0, 54, 0
4, 36096, Note_on_c, 0, 52, 64
4, 36141, Note_on_c, 0, 52, 0
4, 36144, Note_on_c, 0, 54, 64
4, 36189, Note_on_c, 0, 54, 0
4, 36192, Note_on_c, 0, 56, 64
4, 36281, Note_on_c, 0, 56, 0
4, 36288, Note_on_c, 0, 56, 64
4, 36465, Note_on_c, 0, 56, 0
4, 36480, Note_on_c, 0, 49, 64
4, 36525, Note_on_c, 0, 49, 0
4, 36528, Note_on_c, 0, 51, 64
4, 36573, Note_on_c, 0, 51, 0
4, 36576, Note_on_c, 0, 52, 64
4, 36665, Note_on_c, 0, 52, 0
4, 36672, Note_on_c, 0, 52, 64
4, 36849, Note_on_c, 0, 52, 0
4, 36864, Note_on_c, 0, 51, 64
4, 36909, Note_on_c, 0, 51, 0
4, 36912, Note_on_c, 0, 52, 64
4, 36957, Note_on_c, 0, 52, 0
4, 36960, Note_on_c, 0, 54, 64
4, 37049, Note_on_c, 0, 54, 0
4, 37056, Note_on_c, 0, 54, 64
4, 37233, Note_on_c, 0, 54, 0
4, 37248, Note_on_c, 0, 48, 64
4, 37293, Note_on_c, 0, 48, 0
4, 37296, Note_on_c, 0, 49, 64
4, 37341, Note_on_c, 0, 49, 0
4, 37344, Note_on_c, 0, 51, 64
4, 37433, Note_on_c, 0, 51, 0
4, 37440, Note_on_c, 0, 51, 64
4, 37529, Note_on_c, 0, 51, 0
4, 37536, Note_on_c, 0, 44, 64
4, 37625, Note_on_c, 0, 44, 0
4, 37632, Note_on_c, 0, 49, 64
4, 37677, Note_on_c, 0, 49, 0
4, 37680, Note_on_c, 0, 48, 64
4, 37725, Note_on_c, 0, 48, 0
4, 37728, Note_on_c, 0, 49, 64
4, 37773, Note_on_c, 0, 49, 0
4, 37776, Note_on_c, 0, 51, 64
4, 37821, Note_on_c, 0, 51, 0
4, 37824, Note_on_c, 0, 49, 64
4, 37869, Note_on_c, 0, 49, 0
4, 37872, Note_on_c, 0, 51, 64
4, 37917, Note_on_c, 0, 51, 0
4, 37920, Note_on_c, 0, 52, 64
4, 37965, Note_on_c, 0, 52, 0
4, 37968, Note_on_c, 0, 49, 64
4, 38013, Note_on_c, 0, 49, 0
4, 38016, Note_on_c, 0, 51, 64
4, 38061, Note_on_c, 0, 51, 0
4, 38064, Note_on_c, 0, 49, 64
4, 38109, Note_on_c, 0, 49, 0
4, 38112, Note_on_c, 0, 51, 64
4, 38157, Note_on_c, 0, 51, 0
4, 38160, Note_on_c, 0, 52, 64
4, 38205, Note_on_c, 0, 52, 0
4, 38208, Note_on_c, 0, 51, 64
4, 38253, Note_on_c, 0, 51, 0
4, 38256, Note_on_c, 0, 52, 64
4, 38301, Note_on_c, 0, 52, 0
4, 38304, Note_on_c, 0, 54, 64
4, 38349, Note_on_c, 0, 54, 0
4, 38352, Note_on_c, 0, 51, 64
4, 38397, Note_on_c, 0, 51, 0
4, 38400, Note_on_c, 0, 52, 64
4, 38445, Note_on_c, 0, 52, 0
4, 38448, Note_on_c, 0, 51, 64
4, 38493, Note_on_c, 0, 51, 0
4, 38496, Note_on_c, 0, 52, 64
4, 38541, Note_on_c, 0, 52, 0
4, 38544, Note_on_c, 0, 54, 64
4, 38589, Note_on_c, 0, 54, 0
4, 38592, Note_on_c, 0, 52, 64
4, 38637, Note_on_c, 0, 52, 0
4, 38640, Note_on_c, 0, 54, 64
4, 38685, Note_on_c, 0, 54, 0
4, 38688, Note_on_c, 0, 56, 64
4, 38733, Note_on_c, 0, 56, 0
4, 38736, Note_on_c, 0, 52, 64
4, 38781, Note_on_c, 0, 52, 0
4, 38784, Note_on_c, 0, 54, 64
4, 38829, Note_on_c, 0, 54, 0
4, 38832, Note_on_c, 0, 52, 64
4, 38877, Note_on_c, 0, 52, 0
4, 38880, Note_on_c, 0, 54, 64
4, 38925, Note_on_c, 0, 54, 0
4, 38928, Note_on_c, 0, 56, 64
4, 38973, Note_on_c, 0, 56, 0
4, 38976, Note_on_c, 0, 54, 64
4, 39021, Note_on_c, 0, 54, 0
4, 39024, Note_on_c, 0, 56, 64
4, 39069, Note_on_c, 0, 56, 0
4, 39072, Note_on_c, 0, 57, 64
4, 39117, Note_on_c, 0, 57, 0
4, 39120, Note_on_c, 0, 54, 64
4, 39165, Note_on_c, 0, 54, 0
4, 39168, Note_on_c, 0, 56, 64
4, 39213, Note_on_c, 0, 56, 0
4, 39216, Note_on_c, 0, 54, 64
4, 39261, Note_on_c, 0, 54, 0
4, 39264, Note_on_c, 0, 56, 64
4, 39309, Note_on_c, 0, 56, 0
4, 39312, Note_on_c, 0, 57, 64
4, 39357, Note_on_c, 0, 57, 0
4, 39360, Note_on_c, 0, 56, 64
4, 39405, Note_on_c, 0, 56, 0
4, 39408, Note_on_c, 0, 57, 64
4, 39453, Note_on_c, 0, 57, 0
4, 39456, Note_on_c, 0, 59, 64
4, 39501, Note_on_c, 0, 59, 0
4, 39504, Note_on_c, 0, 56, 64
4, 39549, Note_on_c, 0, 56, 0
4, 39552, Note_on_c, 0, 53, 64
4, 39597, Note_on_c, 0, 53, 0
4, 39600, Note_on_c, 0, 51, 64
4, 39645, Note_on_c, 0, 51, 0
4, 39648, Note_on_c, 0, 53, 64
4, 39693, Note_on_c, 0, 53, 0
4, 39696, Note_on_c, 0, 54, 64
4, 39741, Note_on_c, 0, 54, 0
4, 39744, Note_on_c, 0, 53, 64
4, 39789, Note_on_c, 0, 53, 0
4, 39792, Note_on_c, 0, 54, 64
4, 39837, Note_on_c, 0, 54, 0
4, 39840, Note_on_c, 0, 56, 64
4, 39885, Note_on_c, 0, 56, 0
4, 39888, Note_on_c, 0, 53, 64
4, 39933, Note_on_c, 0, 53, 0
4, 39936, Note_on_c, 0, 54, 64
4, 39981, Note_on_c, 0, 54, 0
4, 39984, Note_on_c, 0, 53, 64
4, 40029, Note_on_c, 0, 53, 0
4, 40032, Note_on_c, 0, 54, 64
4, 40077, Note_on_c, 0, 54, 0
4, 40080, Note_on_c, 0, 56, 64
4, 40125, Note_on_c, 0, 56, 0
4, 40128, Note_on_c, 0, 54, 64
4, 40173, Note_on_c, 0, 54, 0
4, 40176, Note_on_c, 0, 56, 64
4, 40221, Note_on_c, 0, 56, 0
4, 40224, Note_on_c, 0, 57, 64
4, 40269, Note_on_c, 0, 57, 0
4, 40272, Note_on_c, 0, 54, 64
4, 40317, Note_on_c, 0, 54, 0
4, 40320, Note_on_c, 0, 50, 64
4, 40365, Note_on_c, 0, 50, 0
4, 40368, Note_on_c, 0, 49, 64
4, 40413, Note_on_c, 0, 49, 0
4, 40416, Note_on_c, 0, 50, 64
4, 40461, Note_on_c, 0, 50, 0
4, 40464, Note_on_c, 0, 52, 64
4, 40509, Note_on_c, 0, 52, 0
4, 40512, Note_on_c, 0, 50, 64
4, 40557, Note_on_c, 0, 50, 0
4, 40560, Note_on_c, 0, 52, 64
4, 40605, Note_on_c, 0, 52, 0
4, 40608, Note_on_c, 0, 54, 64
4, 40653, Note_on_c, 0, 54, 0
4, 40656, Note_on_c, 0, 50, 64
4, 40701, Note_on_c, 0, 50, 0
4, 40704, Note_on_c, 0, 52, 64
4, 40793, Note_on_c, 0, 52, 0
4, 40800, Note_on_c, 0, 64, 64
4, 40889, Note_on_c, 0, 64, 0
4, 40896, Note_on_c, 0, 59, 64
4, 40941, Note_on_c, 0, 59, 0
4, 40944, Note_on_c, 0, 61, 64
4, 40989, Note_on_c, 0, 61, 0
4, 40992, Note_on_c, 0, 62, 64
4, 41081, Note_on_c, 0, 62, 0
4, 41088, Note_on_c, 0, 61, 64
4, 41177, Note_on_c, 0, 61, 0
4, 41184, Note_on_c, 0, 57, 64
4, 41273, Note_on_c, 0, 57, 0
4, 41280, Note_on_c, 0, 59, 64
4, 41369, Note_on_c, 0, 59, 0
4, 41376, Note_on_c, 0, 61, 64
4, 41465, Note_on_c, 0, 61, 0
4, 41472, Note_on_c, 0, 62, 64
4, 41561, Note_on_c, 0, 62, 0
4, 41568, Note_on_c, 0, 61, 64
4, 41657, Note_on_c, 0, 61, 0
4, 41664, Note_on_c, 0, 62, 64
4, 41753, Note_on_c, 0, 62, 0
4, 41760, Note_on_c, 0, 59, 64
4, 41849, Note_on_c, 0, 59, 0
4, 41856, Note_on_c, 0, 61, 64
4, 41945, Note_on_c, 0, 61, 0
4, 41952, Note_on_c, 0, 49, 64
4, 41997, Note_on_c, 0, 49, 0
4, 42000, Note_on_c, 0, 51, 64
4, 42045, Note_on_c, 0, 51, 0
4, 42048, Note_on_c, 0, 53, 64
4, 42137, Note_on_c, 0, 53, 0
4, 42144, Note_on_c, 0, 49, 64
4, 42233, Note_on_c, 0, 49, 0
4, 42240, Note_on_c, 0, 54, 64
4, 42329, Note_on_c, 0, 54, 0
4, 42336, Note_on_c, 0, 53, 64
4, 42425, Note_on_c, 0, 53, 0
4, 42432, Note_on_c, 0, 54, 64
4, 42521, Note_on_c, 0, 54, 0
4, 42528, Note_on_c, 0, 56, 64
4, 42617, Note_on_c, 0, 56, 0
4, 42624, Note_on_c, 0, 57, 64
4, 42713, Note_on_c, 0, 57, 0
4, 42720, Note_on_c, 0, 54, 64
4, 42809, Note_on_c, 0, 54, 0
4, 42816, Note_on_c, 0, 51, 64
4, 42905, Note_on_c, 0, 51, 0
4, 42912, Note_on_c, 0, 54, 64
4, 43097, Note_on_c, 0, 54, 0
4, 43104, Note_on_c, 0, 56, 64
4, 43149, Note_on_c, 0, 56, 0
4, 43152, Note_on_c, 0, 54, 64
4, 43197, Note_on_c, 0, 54, 0
4, 43200, Note_on_c, 0, 53, 64
4, 43245, Note_on_c, 0, 53, 0
4, 43248, Note_on_c, 0, 54, 64
4, 43293, Note_on_c, 0, 54, 0
4, 43296, Note_on_c, 0, 56, 64
4, 43385, Note_on_c, 0, 56, 0
4, 43392, Note_on_c, 0, 49, 64
4, 43481, Note_on_c, 0, 49, 0
4, 43488, Note_on_c, 0, 53, 64
4, 43577, Note_on_c, 0, 53, 0
4, 43584, Note_on_c, 0, 49, 64
4, 43673, Note_on_c, 0, 49, 0
4, 43680, Note_on_c, 0, 53, 64
4, 43769, Note_on_c, 0, 53, 0
4, 43776, Note_on_c, 0, 42, 64
4, 43865, Note_on_c, 0, 42, 0
4, 43872, Note_on_c, 0, 49, 64
4, 43961, Note_on_c, 0, 49, 0
4, 43968, Note_on_c, 0, 54, 64
4, 44057, Note_on_c, 0, 54, 0
4, 44064, Note_on_c, 0, 57, 64
4, 44153, Note_on_c, 0, 57, 0
4, 44160, Note_on_c, 0, 61, 64
4, 44249, Note_on_c, 0, 61, 0
4, 44256, Note_on_c, 0, 61, 64
4, 44301, Note_on_c, 0, 61, 0
4, 44304, Note_on_c, 0, 59, 64
4, 44349, Note_on_c, 0, 59, 0
4, 44352, Note_on_c, 0, 61, 64
4, 44441, Note_on_c, 0, 61, 0
4, 44448, Note_on_c, 0, 54, 64
4, 44537, Note_on_c, 0, 54, 0
4, 44544, Note_on_c, 0, 47, 64
4, 44589, Note_on_c, 0, 47, 0
4, 44592, Note_on_c, 0, 49, 64
4, 44637, Note_on_c, 0, 49, 0
4, 44640, Note_on_c, 0, 51, 64
4, 44685, Note_on_c, 0, 51, 0
4, 44688, Note_on_c, 0, 52, 64
4, 44733, Note_on_c, 0, 52, 0
4, 44736, Note_on_c, 0, 51, 64
4, 44781, Note_on_c, 0, 51, 0
4, 44784, Note_on_c, 0, 49, 64
4, 44829, Note_on_c, 0, 49, 0
4, 44832, Note_on_c, 0, 47, 64
4, 44877, Note_on_c, 0, 47, 0
4, 44880, Note_on_c, 0, 51, 64
4, 44925, Note_on_c, 0, 51, 0
4, 44928, Note_on_c, 0, 49, 64
4, 44973, Note_on_c, 0, 49, 0
4, 44976, Note_on_c, 0, 47, 64
4, 45021, Note_on_c, 0, 47, 0
4, 45024, Note_on_c, 0, 49, 64
4, 45069, Note_on_c, 0, 49, 0
4, 45072, Note_on_c, 0, 51, 64
4, 45117, Note_on_c, 0, 51, 0
4, 45120, Note_on_c, 0, 49, 64
4, 45165, Note_on_c, 0, 49, 0
4, 45168, Note_on_c, 0, 52, 64
4, 45213, Note_on_c, 0, 52, 0
4, 45216, Note_on_c, 0, 51, 64
4, 45261, Note_on_c, 0, 51, 0
4, 45264, Note_on_c, 0, 54, 64
4, 45309, Note_on_c, 0, 54, 0
4, 45312, Note_on_c, 0, 52, 64
4, 45489, Note_on_c, 0, 52, 0
4, 45504, Note_on_c, 0, 47, 64
4, 45593, Note_on_c, 0, 47, 0
4, 45600, Note_on_c, 0, 47, 64
4, 45645, Note_on_c, 0, 47, 0
4, 45648, Note_on_c, 0, 49, 64
4, 45693, Note_on_c, 0, 49, 0
4, 45696, Note_on_c, 0, 50, 64
4, 45785, Note_on_c, 0, 50, 0
4, 45792, Note_on_c, 0, 50, 64
4, 45837, Note_on_c, 0, 50, 0
4, 45840, Note_on_c, 0, 52, 64
4, 45885, Note_on_c, 0, 52, 0
4, 45888, Note_on_c, 0, 50, 64
4, 45933, Note_on_c, 0, 50, 0
4, 45936, Note_on_c, 0, 49, 64
4, 45981, Note_on_c, 0, 49, 0
4, 45984, Note_on_c, 0, 47, 64
4, 46073, Note_on_c, 0, 47, 0
4, 46080, Note_on_c, 0, 49, 64
4, 46125, Note_on_c, 0, 49, 0
4, 46128, Note_on_c, 0, 50, 64
4, 46173, Note_on_c, 0, 50, 0
4, 46176, Note_on_c, 0, 52, 64
4, 46200, Note_on_c, 0, 52, 0
4, 46272, Note_on_c, 0, 52, 64
4, 46449, Note_on_c, 0, 52, 0
4, 46464, Note_on_c, 0, 45, 64
4, 46509, Note_on_c, 0, 45, 0
4, 46512, Note_on_c, 0, 47, 64
4, 46557, Note_on_c, 0, 47, 0
4, 46560, Note_on_c, 0, 49, 64
4, 46584, Note_on_c, 0, 49, 0
4, 46656, Note_on_c, 0, 49, 64
4, 46833, Note_on_c, 0, 49, 0
4, 46848, Note_on_c, 0, 47, 64
4, 46893, Note_on_c, 0, 47, 0
4, 46896, Note_on_c, 0, 49, 64
4, 46941, Note_on_c, 0, 49, 0
4, 46944, Note_on_c, 0, 50, 64
4, 46968, Note_on_c, 0, 50, 0
4, 47040, Note_on_c, 0, 50, 64
4, 47217, Note_on_c, 0, 50, 0
4, 47232, Note_on_c, 0, 44, 64
4, 47277, Note_on_c, 0, 44, 0
4, 47280, Note_on_c, 0, 45, 64
4, 47325, Note_on_c, 0, 45, 0
4, 47328, Note_on_c, 0, 47, 64
4, 47352, Note_on_c, 0, 47, 0
4, 47424, Note_on_c, 0, 47, 64
4, 47513, Note_on_c, 0, 47, 0
4, 47520, Note_on_c, 0, 40, 64
4, 47609, Note_on_c, 0, 40, 0
4, 47616, Note_on_c, 0, 45, 64
4, 47705, Note_on_c, 0, 45, 0
4, 47712, Note_on_c, 0, 49, 64
4, 47801, Note_on_c, 0, 49, 0
4, 47808, Note_on_c, 0, 54, 64
4, 47985, Note_on_c, 0, 54, 0
4, 48000, Note_on_c, 0, 47, 64
4, 48089, Note_on_c, 0, 47, 0
4, 48096, Note_on_c, 0, 50, 64
4, 48185, Note_on_c, 0, 50, 0
4, 48192, Note_on_c, 0, 56, 64
4, 48369, Note_on_c, 0, 56, 0
4, 48384, Note_on_c, 0, 49, 64
4, 48473, Note_on_c, 0, 49, 0
4, 48480, Note_on_c, 0, 52, 64
4, 48569, Note_on_c, 0, 52, 0
4, 48576, Note_on_c, 0, 57, 64
4, 48857, Note_on_c, 0, 57, 0
4, 48864, Note_on_c, 0, 56, 64
4, 48909, Note_on_c, 0, 56, 0
4, 48912, Note_on_c, 0, 54, 64
4, 48957, Note_on_c, 0, 54, 0
4, 48960, Note_on_c, 0, 56, 64
4, 49005, Note_on_c, 0, 56, 0
4, 49008, Note_on_c, 0, 57, 64
4, 49053, Note_on_c, 0, 57, 0
4, 49056, Note_on_c, 0, 56, 64
4, 49101, Note_on_c, 0, 56, 0
4, 49104, Note_on_c, 0, 54, 64
4, 49149, Note_on_c, 0, 54, 0
4, 49152, Note_on_c, 0, 52, 64
4, 49241, Note_on_c, 0, 52, 0
4, 49248, Note_on_c, 0, 51, 64
4, 49337, Note_on_c, 0, 51, 0
4, 49344, Note_on_c, 0, 52, 64
4, 49433, Note_on_c, 0, 52, 0
4, 49440, Note_on_c, 0, 54, 64
4, 49529, Note_on_c, 0, 54, 0
4, 49536, Note_on_c, 0, 56, 64
4, 49625, Note_on_c, 0, 56, 0
4, 49632, Note_on_c, 0, 53, 64
4, 49721, Note_on_c, 0, 53, 0
4, 49728, Note_on_c, 0, 49, 64
4, 49817, Note_on_c, 0, 49, 0
4, 49824, Note_on_c, 0, 53, 64
4, 49913, Note_on_c, 0, 53, 0
4, 49920, Note_on_c, 0, 54, 64
4, 50009, Note_on_c, 0, 54, 0
4, 50016, Note_on_c, 0, 52, 64
4, 50105, Note_on_c, 0, 52, 0
4, 50112, Note_on_c, 0, 51, 64
4, 50201, Note_on_c, 0, 51, 0
4, 50208, Note_on_c, 0, 49, 64
4, 50297, Note_on_c, 0, 49, 0
4, 50304, Note_on_c, 0, 47, 64
4, 50393, Note_on_c, 0, 47, 0
4, 50400, Note_on_c, 0, 51, 64
4, 50489, Note_on_c, 0, 51, 0
4, 50496, Note_on_c, 0, 47, 64
4, 50585, Note_on_c, 0, 47, 0
4, 50592, Note_on_c, 0, 51, 64
4, 50681, Note_on_c, 0, 51, 0
4, 50688, Note_on_c, 0, 40, 64
4, 50777, Note_on_c, 0, 40, 0
4, 50784, Note_on_c, 0, 44, 64
4, 50873, Note_on_c, 0, 44, 0
4, 50880, Note_on_c, 0, 49, 64
4, 51057, Note_on_c, 0, 49, 0
4, 51072, Note_on_c, 0, 42, 64
4, 51161, Note_on_c, 0, 42, 0
4, 51168, Note_on_c, 0, 45, 64
4, 51257, Note_on_c, 0, 45, 0
4, 51264, Note_on_c, 0, 51, 64
4, 51441, Note_on_c, 0, 51, 0
4, 51456, Note_on_c, 0, 44, 64
4, 51545, Note_on_c, 0, 44, 0
4, 51552, Note_on_c, 0, 47, 64
4, 51641, Note_on_c, 0, 47, 0
4, 51648, Note_on_c, 0, 52, 64
4, 51737, Note_on_c, 0, 52, 0
4, 51744, Note_on_c, 0, 45, 64
4, 51833, Note_on_c, 0, 45, 0
4, 51840, Note_on_c, 0, 47, 64
4, 51929, Note_on_c, 0, 47, 0
4, 51936, Note_on_c, 0, 59, 64
4, 52025, Note_on_c, 0, 59, 0
4, 52032, Note_on_c, 0, 57, 64
4, 52121, Note_on_c, 0, 57, 0
4, 52128, Note_on_c, 0, 56, 64
4, 52217, Note_on_c, 0, 56, 0
4, 52224, Note_on_c, 0, 54, 64
4, 52313, Note_on_c, 0, 54, 0
4, 52320, Note_on_c, 0, 57, 64
4, 52365, Note_on_c, 0, 57, 0
4, 52368, Note_on_c, 0, 56, 64
4, 52413, Note_on_c, 0, 56, 0
4, 52416, Note_on_c, 0, 54, 64
4, 52461, Note_on_c, 0, 54, 0
4, 52464, Note_on_c, 0, 56, 64
4, 52509, Note_on_c, 0, 56, 0
4, 52512, Note_on_c, 0, 57, 64
4, 52601, Note_on_c, 0, 57, 0
4, 52608, Note_on_c, 0, 57, 64
4, 52697, Note_on_c, 0, 57, 0
4, 52704, Note_on_c, 0, 51, 64
4, 52793, Note_on_c, 0, 51, 0
4, 52800, Note_on_c, 0, 47, 64
4, 52889, Note_on_c, 0, 47, 0
4, 52896, Note_on_c, 0, 51, 64
4, 52985, Note_on_c, 0, 51, 0
4, 52992, Note_on_c, 0, 40, 64
4, 53081, Note_on_c, 0, 40, 0
4, 53088, Note_on_c, 0, 56, 64
4, 53133, Note_on_c, 0, 56, 0
4, 53136, Note_on_c, 0, 54, 64
4, 53181, Note_on_c, 0, 54, 0
4, 53184, Note_on_c, 0, 52, 64
4, 53229, Note_on_c, 0, 52, 0
4, 53232, Note_on_c, 0, 54, 64
4, 53277, Note_on_c, 0, 54, 0
4, 53280, Note_on_c, 0, 56, 64
4, 53369, Note_on_c, 0, 56, 0
4, 53376, Note_on_c, 0, 56, 64
4, 53465, Note_on_c, 0, 56, 0
4, 53472, Note_on_c, 0, 49, 64
4, 53561, Note_on_c, 0, 49, 0
4, 53568, Note_on_c, 0, 45, 64
4, 53657, Note_on_c, 0, 45, 0
4, 53664, Note_on_c, 0, 49, 64
4, 53753, Note_on_c, 0, 49, 0
4, 53760, Note_on_c, 0, 42, 64
4, 53849, Note_on_c, 0, 42, 0
4, 53856, Note_on_c, 0, 44, 64
4, 53945, Note_on_c, 0, 44, 0
4, 53952, Note_on_c, 0, 45, 64
4, 54041, Note_on_c, 0, 45, 0
4, 54048, Note_on_c, 0, 42, 64
4, 54137, Note_on_c, 0, 42, 0
4, 54144, Note_on_c, 0, 47, 64
4, 54233, Note_on_c, 0, 47, 0
4, 54240, Note_on_c, 0, 52, 64
4, 54329, Note_on_c, 0, 52, 0
4, 54336, Note_on_c, 0, 51, 64
4, 54425, Note_on_c, 0, 51, 0
4, 54432, Note_on_c, 0, 47, 64
4, 54521, Note_on_c, 0, 47, 0
4, 54528, Note_on_c, 0, 52, 64
4, 54617, Note_on_c, 0, 52, 0
4, 54624, Note_on_c, 0, 45, 64
4, 54713, Note_on_c, 0, 45, 0
4, 54720, Note_on_c, 0, 47, 64
4, 54809, Note_on_c, 0, 47, 0
4, 54816, Note_on_c, 0, 35, 64
4, 54905, Note_on_c, 0, 35, 0
4, 54912, Note_on_c, 0, 40, 64
4, 55266, Note_on_c, 0, 40, 0
4, 55266, End_track
5, 0, Start_track
5, 0, MIDI_port, 0
5, 0, Title_t, "Sonata No. 3 en Mi Mayor"
5, 0, End_track
6, 0, Start_track
6, 0, MIDI_port, 0
6, 0, Title_t, "Para Violin y Clavicembalo"
6, 0, End_track
7, 0, Start_track
7, 0, MIDI_port, 0
7, 0, Title_t, "Segundo Movimiento: Allegro"
7, 0, End_track
8, 0, Start_track
8, 0, MIDI_port, 0
8, 0, Title_t, "J. S. Bach (1685-1750)"
8, 0, End_track
9, 0, Start_track
9, 0, MIDI_port, 0
9, 0, Title_t, "Copyright Luis Gerardo Barajas"
9, 0, End_track
10, 0, Start_track
10, 0, MIDI_port, 0
10, 0, Title_t, "*** Bach keeps RuLiNg!!!"
10, 0, End_track
0, 0, End_of_file
