0, 0, Header, 1, 10, 96
1, 0, Start_track
1, 0, Sequencer_specific, 3, 0, 0, 65
1, 0, Time_signature, 4, 2, 24, 8
1, 0, Key_signature, 2, "major"
1, 0, Tempo, 1363636
1, 10296, Tempo, 1366431
1, 10936, Tempo, 1306905
1, 10976, Tempo, 1336005
1, 11008, Tempo, 1366431
1, 11040, Tempo, 1398275
1, 11048, Tempo, 375211
1, 12296, Tempo, 500000
1, 12296, End_track
2, 0, Start_track
2, 0, MIDI_port, 0
2, 0, Title_t, "Violin"
2, 0, Program_c, 1, 40
2, 0, Control_c, 1, 7, 127
2, 0, Note_on_c, 1, 81, 64
2, 407, Note_on_c, 1, 81, 0
2, 408, Note_on_c, 1, 79, 64
2, 431, Note_on_c, 1, 79, 0
2, 432, Note_on_c, 1, 83, 64
2, 456, Note_on_c, 1, 83, 0
2, 456, Note_on_c, 1, 81, 64
2, 479, Note_on_c, 1, 81, 0
2, 480, Note_on_c, 1, 79, 64
2, 504, Note_on_c, 1, 79, 0
2, 504, Note_on_c, 1, 78, 64
2, 527, Note_on_c, 1, 78, 0
2, 528, Note_on_c, 1, 76, 64
2, 552, Note_on_c, 1, 76, 0
2, 552, Note_on_c, 1, 74, 64
2, 575, Note_on_c, 1, 74, 0
2, 576, Note_on_c, 1, 73, 64
2, 621, Note_on_c, 1, 73, 0
2, 624, Note_on_c, 1, 71, 64
2, 648, Note_on_c, 1, 71, 0
2, 648, Note_on_c, 1, 69, 64
2, 671, Note_on_c, 1, 69, 0
2, 720, Note_on_c, 1, 76, 64
2, 765, Note_on_c, 1, 76, 0
2, 768, Note_on_c, 1, 78, 64
2, 791, Note_on_c, 1, 78, 0
2, 792, Note_on_c, 1, 76, 64
2, 815, Note_on_c, 1, 76, 0
2, 816, Note_on_c, 1, 79, 64
2, 839, Note_on_c, 1, 79, 0
2, 840, Note_on_c, 1, 78, 64
2, 863, Note_on_c, 1, 78, 0
2, 888, Note_on_c, 1, 81, 64
2, 911, Note_on_c, 1, 81, 0
2, 912, Note_on_c, 1, 79, 64
2, 935, Note_on_c, 1, 79, 0
2, 936, Note_on_c, 1, 78, 64
2, 959, Note_on_c, 1, 78, 0
2, 960, Note_on_c, 1, 79, 64
2, 984, Note_on_c, 1, 79, 0
2, 984, Note_on_c, 1, 78, 64
2, 1007, Note_on_c, 1, 78, 0
2, 1008, Note_on_c, 1, 83, 64
2, 1032, Note_on_c, 1, 83, 0
2, 1032, Note_on_c, 1, 81, 64
2, 1055, Note_on_c, 1, 81, 0
2, 1080, Note_on_c, 1, 81, 64
2, 1103, Note_on_c, 1, 81, 0
2, 1104, Note_on_c, 1, 86, 64
2, 1127, Note_on_c, 1, 86, 0
2, 1128, Note_on_c, 1, 85, 64
2, 1151, Note_on_c, 1, 85, 0
2, 1152, Note_on_c, 1, 86, 64
2, 1175, Note_on_c, 1, 86, 0
2, 1176, Note_on_c, 1, 85, 64
2, 1188, Note_on_c, 1, 85, 0
2, 1188, Note_on_c, 1, 83, 64
2, 1200, Note_on_c, 1, 83, 0
2, 1200, Note_on_c, 1, 81, 64
2, 1223, Note_on_c, 1, 81, 0
2, 1224, Note_on_c, 1, 79, 64
2, 1247, Note_on_c, 1, 79, 0
2, 1248, Note_on_c, 1, 78, 64
2, 1293, Note_on_c, 1, 78, 0
2, 1296, Note_on_c, 1, 76, 64
2, 1302, Note_on_c, 1, 76, 0
2, 1302, Note_on_c, 1, 78, 64
2, 1308, Note_on_c, 1, 78, 0
2, 1308, Note_on_c, 1, 76, 64
2, 1320, Note_on_c, 1, 76, 0
2, 1320, Note_on_c, 1, 74, 64
2, 1343, Note_on_c, 1, 74, 0
2, 1344, Note_on_c, 1, 74, 64
2, 1367, Note_on_c, 1, 74, 0
2, 1368, Note_on_c, 1, 76, 64
2, 1391, Note_on_c, 1, 76, 0
2, 1392, Note_on_c, 1, 78, 64
2, 1415, Note_on_c, 1, 78, 0
2, 1416, Note_on_c, 1, 80, 64
2, 1439, Note_on_c, 1, 80, 0
2, 1440, Note_on_c, 1, 81, 64
2, 1463, Note_on_c, 1, 81, 0
2, 1464, Note_on_c, 1, 80, 64
2, 1487, Note_on_c, 1, 80, 0
2, 1488, Note_on_c, 1, 81, 64
2, 1511, Note_on_c, 1, 81, 0
2, 1512, Note_on_c, 1, 83, 64
2, 1535, Note_on_c, 1, 83, 0
2, 1536, Note_on_c, 1, 73, 64
2, 1603, Note_on_c, 1, 73, 0
2, 1608, Note_on_c, 1, 71, 64
2, 1631, Note_on_c, 1, 71, 0
2, 1632, Note_on_c, 1, 74, 64
2, 1656, Note_on_c, 1, 74, 0
2, 1656, Note_on_c, 1, 73, 64
2, 1679, Note_on_c, 1, 73, 0
2, 1680, Note_on_c, 1, 71, 64
2, 1704, Note_on_c, 1, 71, 0
2, 1704, Note_on_c, 1, 69, 64
2, 1727, Note_on_c, 1, 69, 0
2, 1728, Note_on_c, 1, 76, 64
2, 1943, Note_on_c, 1, 76, 0
2, 1944, Note_on_c, 1, 74, 64
2, 1967, Note_on_c, 1, 74, 0
2, 1968, Note_on_c, 1, 78, 64
2, 1992, Note_on_c, 1, 78, 0
2, 1992, Note_on_c, 1, 76, 64
2, 2015, Note_on_c, 1, 76, 0
2, 2016, Note_on_c, 1, 74, 64
2, 2040, Note_on_c, 1, 74, 0
2, 2040, Note_on_c, 1, 73, 64
2, 2063, Note_on_c, 1, 73, 0
2, 2064, Note_on_c, 1, 71, 64
2, 2088, Note_on_c, 1, 71, 0
2, 2088, Note_on_c, 1, 69, 64
2, 2111, Note_on_c, 1, 69, 0
2, 2112, Note_on_c, 1, 68, 64
2, 2157, Note_on_c, 1, 68, 0
2, 2160, Note_on_c, 1, 66, 64
2, 2183, Note_on_c, 1, 66, 0
2, 2184, Note_on_c, 1, 64, 64
2, 2207, Note_on_c, 1, 64, 0
2, 2256, Note_on_c, 1, 71, 64
2, 2301, Note_on_c, 1, 71, 0
2, 2304, Note_on_c, 1, 73, 64
2, 2327, Note_on_c, 1, 73, 0
2, 2328, Note_on_c, 1, 71, 64
2, 2351, Note_on_c, 1, 71, 0
2, 2352, Note_on_c, 1, 74, 64
2, 2375, Note_on_c, 1, 74, 0
2, 2376, Note_on_c, 1, 73, 64
2, 2399, Note_on_c, 1, 73, 0
2, 2424, Note_on_c, 1, 76, 64
2, 2447, Note_on_c, 1, 76, 0
2, 2448, Note_on_c, 1, 74, 64
2, 2471, Note_on_c, 1, 74, 0
2, 2472, Note_on_c, 1, 73, 64
2, 2495, Note_on_c, 1, 73, 0
2, 2496, Note_on_c, 1, 74, 64
2, 2519, Note_on_c, 1, 74, 0
2, 2520, Note_on_c, 1, 73, 64
2, 2543, Note_on_c, 1, 73, 0
2, 2544, Note_on_c, 1, 78, 64
2, 2567, Note_on_c, 1, 78, 0
2, 2568, Note_on_c, 1, 76, 64
2, 2591, Note_on_c, 1, 76, 0
2, 2616, Note_on_c, 1, 76, 64
2, 2639, Note_on_c, 1, 76, 0
2, 2640, Note_on_c, 1, 81, 64
2, 2663, Note_on_c, 1, 81, 0
2, 2664, Note_on_c, 1, 80, 64
2, 2687, Note_on_c, 1, 80, 0
2, 2688, Note_on_c, 1, 81, 64
2, 2711, Note_on_c, 1, 81, 0
2, 2712, Note_on_c, 1, 80, 64
2, 2724, Note_on_c, 1, 80, 0
2, 2724, Note_on_c, 1, 78, 64
2, 2736, Note_on_c, 1, 78, 0
2, 2736, Note_on_c, 1, 76, 64
2, 2759, Note_on_c, 1, 76, 0
2, 2760, Note_on_c, 1, 74, 64
2, 2783, Note_on_c, 1, 74, 0
2, 2784, Note_on_c, 1, 73, 64
2, 2790, Note_on_c, 1, 73, 0
2, 2790, Note_on_c, 1, 74, 64
2, 2796, Note_on_c, 1, 74, 0
2, 2796, Note_on_c, 1, 73, 64
2, 2802, Note_on_c, 1, 73, 0
2, 2802, Note_on_c, 1, 74, 64
2, 2808, Note_on_c, 1, 74, 0
2, 2808, Note_on_c, 1, 73, 64
2, 2814, Note_on_c, 1, 73, 0
2, 2814, Note_on_c, 1, 74, 64
2, 2820, Note_on_c, 1, 74, 0
2, 2820, Note_on_c, 1, 73, 64
2, 2826, Note_on_c, 1, 73, 0
2, 2826, Note_on_c, 1, 74, 64
2, 2832, Note_on_c, 1, 74, 0
2, 2832, Note_on_c, 1, 71, 64
2, 2856, Note_on_c, 1, 71, 0
2, 2856, Note_on_c, 1, 69, 64
2, 2879, Note_on_c, 1, 69, 0
2, 2880, Note_on_c, 1, 69, 64
2, 2969, Note_on_c, 1, 69, 0
2, 3024, Note_on_c, 1, 72, 64
2, 3095, Note_on_c, 1, 72, 0
2, 3096, Note_on_c, 1, 71, 64
2, 3119, Note_on_c, 1, 71, 0
2, 3120, Note_on_c, 1, 70, 64
2, 3143, Note_on_c, 1, 70, 0
2, 3144, Note_on_c, 1, 71, 64
2, 3167, Note_on_c, 1, 71, 0
2, 3168, Note_on_c, 1, 76, 64
2, 3331, Note_on_c, 1, 76, 0
2, 3336, Note_on_c, 1, 78, 64
2, 3348, Note_on_c, 1, 78, 0
2, 3348, Note_on_c, 1, 79, 64
2, 3360, Note_on_c, 1, 79, 0
2, 3360, Note_on_c, 1, 78, 64
2, 3384, Note_on_c, 1, 78, 0
2, 3384, Note_on_c, 1, 76, 64
2, 3407, Note_on_c, 1, 76, 0
2, 3408, Note_on_c, 1, 74, 64
2, 3431, Note_on_c, 1, 74, 0
2, 3432, Note_on_c, 1, 76, 64
2, 3444, Note_on_c, 1, 76, 0
2, 3444, Note_on_c, 1, 73, 64
2, 3456, Note_on_c, 1, 73, 0
2, 3456, Note_on_c, 1, 74, 64
2, 3501, Note_on_c, 1, 74, 0
2, 3504, Note_on_c, 1, 76, 64
2, 3510, Note_on_c, 1, 76, 0
2, 3510, Note_on_c, 1, 78, 64
2, 3516, Note_on_c, 1, 78, 0
2, 3516, Note_on_c, 1, 76, 64
2, 3522, Note_on_c, 1, 76, 0
2, 3522, Note_on_c, 1, 78, 64
2, 3528, Note_on_c, 1, 78, 0
2, 3528, Note_on_c, 1, 76, 64
2, 3534, Note_on_c, 1, 76, 0
2, 3534, Note_on_c, 1, 78, 64
2, 3540, Note_on_c, 1, 78, 0
2, 3540, Note_on_c, 1, 76, 64
2, 3546, Note_on_c, 1, 76, 0
2, 3546, Note_on_c, 1, 78, 64
2, 3552, Note_on_c, 1, 78, 0
2, 3552, Note_on_c, 1, 78, 64
2, 3671, Note_on_c, 1, 78, 0
2, 3672, Note_on_c, 1, 76, 64
2, 3695, Note_on_c, 1, 76, 0
2, 3696, Note_on_c, 1, 79, 64
2, 3720, Note_on_c, 1, 79, 0
2, 3720, Note_on_c, 1, 78, 64
2, 3743, Note_on_c, 1, 78, 0
2, 3744, Note_on_c, 1, 83, 64
2, 3768, Note_on_c, 1, 83, 0
2, 3768, Note_on_c, 1, 82, 64
2, 3791, Note_on_c, 1, 82, 0
2, 3792, Note_on_c, 1, 85, 64
2, 3816, Note_on_c, 1, 85, 0
2, 3816, Note_on_c, 1, 76, 64
2, 3839, Note_on_c, 1, 76, 0
2, 3840, Note_on_c, 1, 74, 64
2, 3885, Note_on_c, 1, 74, 0
2, 3888, Note_on_c, 1, 76, 64
2, 3900, Note_on_c, 1, 76, 0
2, 3900, Note_on_c, 1, 78, 64
2, 3912, Note_on_c, 1, 78, 0
2, 3912, Note_on_c, 1, 79, 64
2, 3959, Note_on_c, 1, 79, 0
2, 3960, Note_on_c, 1, 78, 64
2, 3983, Note_on_c, 1, 78, 0
2, 3984, Note_on_c, 1, 76, 64
2, 4007, Note_on_c, 1, 76, 0
2, 4008, Note_on_c, 1, 74, 64
2, 4031, Note_on_c, 1, 74, 0
2, 4032, Note_on_c, 1, 73, 64
2, 4055, Note_on_c, 1, 73, 0
2, 4056, Note_on_c, 1, 71, 64
2, 4079, Note_on_c, 1, 71, 0
2, 4080, Note_on_c, 1, 74, 64
2, 4104, Note_on_c, 1, 74, 0
2, 4104, Note_on_c, 1, 73, 64
2, 4127, Note_on_c, 1, 73, 0
2, 4128, Note_on_c, 1, 76, 64
2, 4152, Note_on_c, 1, 76, 0
2, 4152, Note_on_c, 1, 74, 64
2, 4175, Note_on_c, 1, 74, 0
2, 4176, Note_on_c, 1, 78, 64
2, 4200, Note_on_c, 1, 78, 0
2, 4200, Note_on_c, 1, 76, 64
2, 4223, Note_on_c, 1, 76, 0
2, 4224, Note_on_c, 1, 78, 64
2, 4291, Note_on_c, 1, 78, 0
2, 4296, Note_on_c, 1, 79, 64
2, 4319, Note_on_c, 1, 79, 0
2, 4320, Note_on_c, 1, 74, 64
2, 4365, Note_on_c, 1, 74, 0
2, 4368, Note_on_c, 1, 73, 64
2, 4392, Note_on_c, 1, 73, 0
2, 4392, Note_on_c, 1, 71, 64
2, 4415, Note_on_c, 1, 71, 0
2, 4416, Note_on_c, 1, 71, 64
2, 4461, Note_on_c, 1, 71, 0
2, 4464, Note_on_c, 1, 78, 64
2, 4488, Note_on_c, 1, 78, 0
2, 4488, Note_on_c, 1, 79, 64
2, 4511, Note_on_c, 1, 79, 0
2, 4512, Note_on_c, 1, 81, 64
2, 4536, Note_on_c, 1, 81, 0
2, 4536, Note_on_c, 1, 79, 64
2, 4559, Note_on_c, 1, 79, 0
2, 4560, Note_on_c, 1, 83, 64
2, 4584, Note_on_c, 1, 83, 0
2, 4584, Note_on_c, 1, 81, 64
2, 4607, Note_on_c, 1, 81, 0
2, 4656, Note_on_c, 1, 81, 64
2, 4679, Note_on_c, 1, 81, 0
2, 4680, Note_on_c, 1, 83, 64
2, 4692, Note_on_c, 1, 83, 0
2, 4692, Note_on_c, 1, 84, 64
2, 4704, Note_on_c, 1, 84, 0
2, 4704, Note_on_c, 1, 83, 64
2, 4728, Note_on_c, 1, 83, 0
2, 4728, Note_on_c, 1, 81, 64
2, 4751, Note_on_c, 1, 81, 0
2, 4752, Note_on_c, 1, 79, 64
2, 4776, Note_on_c, 1, 79, 0
2, 4776, Note_on_c, 1, 78, 64
2, 4799, Note_on_c, 1, 78, 0
2, 4800, Note_on_c, 1, 79, 64
2, 4845, Note_on_c, 1, 79, 0
2, 4848, Note_on_c, 1, 76, 64
2, 4872, Note_on_c, 1, 76, 0
2, 4872, Note_on_c, 1, 78, 64
2, 4895, Note_on_c, 1, 78, 0
2, 4896, Note_on_c, 1, 79, 64
2, 4920, Note_on_c, 1, 79, 0
2, 4920, Note_on_c, 1, 78, 64
2, 4943, Note_on_c, 1, 78, 0
2, 4944, Note_on_c, 1, 81, 64
2, 4968, Note_on_c, 1, 81, 0
2, 4968, Note_on_c, 1, 79, 64
2, 4991, Note_on_c, 1, 79, 0
2, 5040, Note_on_c, 1, 79, 64
2, 5063, Note_on_c, 1, 79, 0
2, 5064, Note_on_c, 1, 81, 64
2, 5076, Note_on_c, 1, 81, 0
2, 5076, Note_on_c, 1, 83, 64
2, 5088, Note_on_c, 1, 83, 0
2, 5088, Note_on_c, 1, 81, 64
2, 5111, Note_on_c, 1, 81, 0
2, 5112, Note_on_c, 1, 79, 64
2, 5135, Note_on_c, 1, 79, 0
2, 5136, Note_on_c, 1, 78, 64
2, 5159, Note_on_c, 1, 78, 0
2, 5160, Note_on_c, 1, 79, 64
2, 5172, Note_on_c, 1, 79, 0
2, 5172, Note_on_c, 1, 76, 64
2, 5184, Note_on_c, 1, 76, 0
2, 5184, Note_on_c, 1, 78, 64
2, 5229, Note_on_c, 1, 78, 0
2, 5232, Note_on_c, 1, 76, 64
2, 5277, Note_on_c, 1, 76, 0
2, 5280, Note_on_c, 1, 74, 64
2, 5399, Note_on_c, 1, 74, 0
2, 5400, Note_on_c, 1, 73, 64
2, 5423, Note_on_c, 1, 73, 0
2, 5424, Note_on_c, 1, 71, 64
2, 5447, Note_on_c, 1, 71, 0
2, 5448, Note_on_c, 1, 69, 64
2, 5471, Note_on_c, 1, 69, 0
2, 5472, Note_on_c, 1, 68, 64
2, 5495, Note_on_c, 1, 68, 0
2, 5496, Note_on_c, 1, 66, 64
2, 5519, Note_on_c, 1, 66, 0
2, 5520, Note_on_c, 1, 65, 64
2, 5543, Note_on_c, 1, 65, 0
2, 5544, Note_on_c, 1, 66, 64
2, 5567, Note_on_c, 1, 66, 0
2, 5568, Note_on_c, 1, 65, 64
2, 5613, Note_on_c, 1, 65, 0
2, 5616, Note_on_c, 1, 71, 64
2, 5661, Note_on_c, 1, 71, 0
2, 5664, Note_on_c, 1, 80, 64
2, 5783, Note_on_c, 1, 80, 0
2, 5784, Note_on_c, 1, 78, 64
2, 5807, Note_on_c, 1, 78, 0
2, 5808, Note_on_c, 1, 81, 64
2, 5832, Note_on_c, 1, 81, 0
2, 5832, Note_on_c, 1, 80, 64
2, 5855, Note_on_c, 1, 80, 0
2, 5856, Note_on_c, 1, 83, 64
2, 5880, Note_on_c, 1, 83, 0
2, 5880, Note_on_c, 1, 81, 64
2, 5903, Note_on_c, 1, 81, 0
2, 5904, Note_on_c, 1, 80, 64
2, 5927, Note_on_c, 1, 80, 0
2, 5928, Note_on_c, 1, 81, 64
2, 5951, Note_on_c, 1, 81, 0
2, 5952, Note_on_c, 1, 78, 64
2, 5975, Note_on_c, 1, 78, 0
2, 5976, Note_on_c, 1, 77, 64
2, 5999, Note_on_c, 1, 77, 0
2, 6000, Note_on_c, 1, 78, 64
2, 6023, Note_on_c, 1, 78, 0
2, 6024, Note_on_c, 1, 71, 64
2, 6047, Note_on_c, 1, 71, 0
2, 6048, Note_on_c, 1, 69, 64
2, 6093, Note_on_c, 1, 69, 0
2, 6096, Note_on_c, 1, 68, 64
2, 6119, Note_on_c, 1, 68, 0
2, 6120, Note_on_c, 1, 66, 64
2, 6143, Note_on_c, 1, 66, 0
2, 6144, Note_on_c, 1, 66, 64
2, 6189, Note_on_c, 1, 66, 0
2, 6192, Note_on_c, 1, 73, 64
2, 6237, Note_on_c, 1, 73, 0
2, 6240, Note_on_c, 1, 81, 64
2, 6359, Note_on_c, 1, 81, 0
2, 6360, Note_on_c, 1, 71, 64
2, 6383, Note_on_c, 1, 71, 0
2, 6384, Note_on_c, 1, 76, 64
2, 6407, Note_on_c, 1, 76, 0
2, 6408, Note_on_c, 1, 75, 64
2, 6431, Note_on_c, 1, 75, 0
2, 6432, Note_on_c, 1, 78, 64
2, 6456, Note_on_c, 1, 78, 0
2, 6456, Note_on_c, 1, 76, 64
2, 6479, Note_on_c, 1, 76, 0
2, 6480, Note_on_c, 1, 79, 64
2, 6504, Note_on_c, 1, 79, 0
2, 6504, Note_on_c, 1, 78, 64
2, 6527, Note_on_c, 1, 78, 0
2, 6528, Note_on_c, 1, 79, 64
2, 6743, Note_on_c, 1, 79, 0
2, 6744, Note_on_c, 1, 69, 64
2, 6767, Note_on_c, 1, 69, 0
2, 6768, Note_on_c, 1, 74, 64
2, 6792, Note_on_c, 1, 74, 0
2, 6792, Note_on_c, 1, 73, 64
2, 6815, Note_on_c, 1, 73, 0
2, 6816, Note_on_c, 1, 76, 64
2, 6840, Note_on_c, 1, 76, 0
2, 6840, Note_on_c, 1, 74, 64
2, 6863, Note_on_c, 1, 74, 0
2, 6864, Note_on_c, 1, 78, 64
2, 6888, Note_on_c, 1, 78, 0
2, 6888, Note_on_c, 1, 76, 64
2, 6911, Note_on_c, 1, 76, 0
2, 6912, Note_on_c, 1, 78, 64
2, 6984, Note_on_c, 1, 78, 0
2, 6984, Note_on_c, 1, 79, 64
2, 6996, Note_on_c, 1, 79, 0
2, 6996, Note_on_c, 1, 81, 64
2, 7008, Note_on_c, 1, 81, 0
2, 7008, Note_on_c, 1, 79, 64
2, 7032, Note_on_c, 1, 79, 0
2, 7032, Note_on_c, 1, 78, 64
2, 7055, Note_on_c, 1, 78, 0
2, 7056, Note_on_c, 1, 76, 64
2, 7080, Note_on_c, 1, 76, 0
2, 7080, Note_on_c, 1, 74, 64
2, 7103, Note_on_c, 1, 74, 0
2, 7104, Note_on_c, 1, 81, 64
2, 7319, Note_on_c, 1, 81, 0
2, 7320, Note_on_c, 1, 79, 64
2, 7343, Note_on_c, 1, 79, 0
2, 7344, Note_on_c, 1, 83, 64
2, 7368, Note_on_c, 1, 83, 0
2, 7368, Note_on_c, 1, 81, 64
2, 7391, Note_on_c, 1, 81, 0
2, 7392, Note_on_c, 1, 79, 64
2, 7416, Note_on_c, 1, 79, 0
2, 7416, Note_on_c, 1, 78, 64
2, 7439, Note_on_c, 1, 78, 0
2, 7440, Note_on_c, 1, 76, 64
2, 7464, Note_on_c, 1, 76, 0
2, 7464, Note_on_c, 1, 74, 64
2, 7487, Note_on_c, 1, 74, 0
2, 7488, Note_on_c, 1, 73, 64
2, 7533, Note_on_c, 1, 73, 0
2, 7536, Note_on_c, 1, 71, 64
2, 7560, Note_on_c, 1, 71, 0
2, 7560, Note_on_c, 1, 69, 64
2, 7583, Note_on_c, 1, 69, 0
2, 7632, Note_on_c, 1, 76, 64
2, 7677, Note_on_c, 1, 76, 0
2, 7680, Note_on_c, 1, 78, 64
2, 7703, Note_on_c, 1, 78, 0
2, 7704, Note_on_c, 1, 76, 64
2, 7727, Note_on_c, 1, 76, 0
2, 7728, Note_on_c, 1, 79, 64
2, 7751, Note_on_c, 1, 79, 0
2, 7752, Note_on_c, 1, 78, 64
2, 7775, Note_on_c, 1, 78, 0
2, 7800, Note_on_c, 1, 81, 64
2, 7823, Note_on_c, 1, 81, 0
2, 7824, Note_on_c, 1, 79, 64
2, 7847, Note_on_c, 1, 79, 0
2, 7848, Note_on_c, 1, 78, 64
2, 7871, Note_on_c, 1, 78, 0
2, 7872, Note_on_c, 1, 79, 64
2, 7895, Note_on_c, 1, 79, 0
2, 7896, Note_on_c, 1, 78, 64
2, 7919, Note_on_c, 1, 78, 0
2, 7920, Note_on_c, 1, 83, 64
2, 7943, Note_on_c, 1, 83, 0
2, 7944, Note_on_c, 1, 81, 64
2, 7967, Note_on_c, 1, 81, 0
2, 7992, Note_on_c, 1, 81, 64
2, 8015, Note_on_c, 1, 81, 0
2, 8016, Note_on_c, 1, 86, 64
2, 8039, Note_on_c, 1, 86, 0
2, 8040, Note_on_c, 1, 85, 64
2, 8063, Note_on_c, 1, 85, 0
2, 8064, Note_on_c, 1, 86, 64
2, 8087, Note_on_c, 1, 86, 0
2, 8088, Note_on_c, 1, 85, 64
2, 8100, Note_on_c, 1, 85, 0
2, 8100, Note_on_c, 1, 83, 64
2, 8112, Note_on_c, 1, 83, 0
2, 8112, Note_on_c, 1, 81, 64
2, 8135, Note_on_c, 1, 81, 0
2, 8136, Note_on_c, 1, 79, 64
2, 8159, Note_on_c, 1, 79, 0
2, 8160, Note_on_c, 1, 78, 64
2, 8205, Note_on_c, 1, 78, 0
2, 8208, Note_on_c, 1, 76, 64
2, 8214, Note_on_c, 1, 76, 0
2, 8214, Note_on_c, 1, 78, 64
2, 8220, Note_on_c, 1, 78, 0
2, 8220, Note_on_c, 1, 76, 64
2, 8232, Note_on_c, 1, 76, 0
2, 8232, Note_on_c, 1, 74, 64
2, 8255, Note_on_c, 1, 74, 0
2, 8256, Note_on_c, 1, 74, 64
2, 8301, Note_on_c, 1, 74, 0
2, 8304, Note_on_c, 1, 69, 64
2, 8328, Note_on_c, 1, 69, 0
2, 8328, Note_on_c, 1, 71, 64
2, 8351, Note_on_c, 1, 71, 0
2, 8352, Note_on_c, 1, 72, 64
2, 8376, Note_on_c, 1, 72, 0
2, 8376, Note_on_c, 1, 71, 64
2, 8399, Note_on_c, 1, 71, 0
2, 8400, Note_on_c, 1, 74, 64
2, 8424, Note_on_c, 1, 74, 0
2, 8424, Note_on_c, 1, 72, 64
2, 8447, Note_on_c, 1, 72, 0
2, 8496, Note_on_c, 1, 72, 64
2, 8519, Note_on_c, 1, 72, 0
2, 8520, Note_on_c, 1, 74, 64
2, 8532, Note_on_c, 1, 74, 0
2, 8532, Note_on_c, 1, 76, 64
2, 8544, Note_on_c, 1, 76, 0
2, 8544, Note_on_c, 1, 74, 64
2, 8568, Note_on_c, 1, 74, 0
2, 8568, Note_on_c, 1, 72, 64
2, 8591, Note_on_c, 1, 72, 0
2, 8592, Note_on_c, 1, 71, 64
2, 8616, Note_on_c, 1, 71, 0
2, 8616, Note_on_c, 1, 69, 64
2, 8639, Note_on_c, 1, 69, 0
2, 8640, Note_on_c, 1, 71, 64
2, 8685, Note_on_c, 1, 71, 0
2, 8688, Note_on_c, 1, 71, 64
2, 8712, Note_on_c, 1, 71, 0
2, 8712, Note_on_c, 1, 73, 64
2, 8735, Note_on_c, 1, 73, 0
2, 8736, Note_on_c, 1, 74, 64
2, 8760, Note_on_c, 1, 74, 0
2, 8760, Note_on_c, 1, 73, 64
2, 8783, Note_on_c, 1, 73, 0
2, 8784, Note_on_c, 1, 76, 64
2, 8808, Note_on_c, 1, 76, 0
2, 8808, Note_on_c, 1, 74, 64
2, 8831, Note_on_c, 1, 74, 0
2, 8880, Note_on_c, 1, 74, 64
2, 8903, Note_on_c, 1, 74, 0
2, 8904, Note_on_c, 1, 76, 64
2, 8916, Note_on_c, 1, 76, 0
2, 8916, Note_on_c, 1, 78, 64
2, 8928, Note_on_c, 1, 78, 0
2, 8928, Note_on_c, 1, 76, 64
2, 8951, Note_on_c, 1, 76, 0
2, 8952, Note_on_c, 1, 74, 64
2, 8975, Note_on_c, 1, 74, 0
2, 8976, Note_on_c, 1, 73, 64
2, 8999, Note_on_c, 1, 73, 0
2, 9000, Note_on_c, 1, 71, 64
2, 9023, Note_on_c, 1, 71, 0
2, 9024, Note_on_c, 1, 73, 64
2, 9069, Note_on_c, 1, 73, 0
2, 9072, Note_on_c, 1, 73, 64
2, 9096, Note_on_c, 1, 73, 0
2, 9096, Note_on_c, 1, 74, 64
2, 9119, Note_on_c, 1, 74, 0
2, 9120, Note_on_c, 1, 76, 64
2, 9144, Note_on_c, 1, 76, 0
2, 9144, Note_on_c, 1, 74, 64
2, 9167, Note_on_c, 1, 74, 0
2, 9168, Note_on_c, 1, 78, 64
2, 9192, Note_on_c, 1, 78, 0
2, 9192, Note_on_c, 1, 76, 64
2, 9215, Note_on_c, 1, 76, 0
2, 9264, Note_on_c, 1, 76, 64
2, 9287, Note_on_c, 1, 76, 0
2, 9288, Note_on_c, 1, 78, 64
2, 9300, Note_on_c, 1, 78, 0
2, 9300, Note_on_c, 1, 79, 64
2, 9312, Note_on_c, 1, 79, 0
2, 9312, Note_on_c, 1, 78, 64
2, 9336, Note_on_c, 1, 78, 0
2, 9336, Note_on_c, 1, 76, 64
2, 9359, Note_on_c, 1, 76, 0
2, 9360, Note_on_c, 1, 74, 64
2, 9384, Note_on_c, 1, 74, 0
2, 9384, Note_on_c, 1, 73, 64
2, 9407, Note_on_c, 1, 73, 0
2, 9408, Note_on_c, 1, 74, 64
2, 9431, Note_on_c, 1, 74, 0
2, 9432, Note_on_c, 1, 73, 64
2, 9455, Note_on_c, 1, 73, 0
2, 9456, Note_on_c, 1, 71, 64
2, 9479, Note_on_c, 1, 71, 0
2, 9480, Note_on_c, 1, 69, 64
2, 9503, Note_on_c, 1, 69, 0
2, 9504, Note_on_c, 1, 67, 64
2, 9527, Note_on_c, 1, 67, 0
2, 9528, Note_on_c, 1, 66, 64
2, 9551, Note_on_c, 1, 66, 0
2, 9552, Note_on_c, 1, 64, 64
2, 9575, Note_on_c, 1, 64, 0
2, 9576, Note_on_c, 1, 66, 64
2, 9599, Note_on_c, 1, 66, 0
2, 9600, Note_on_c, 1, 64, 64
2, 9645, Note_on_c, 1, 64, 0
2, 9648, Note_on_c, 1, 74, 64
2, 9693, Note_on_c, 1, 74, 0
2, 9696, Note_on_c, 1, 79, 64
2, 9815, Note_on_c, 1, 79, 0
2, 9816, Note_on_c, 1, 78, 64
2, 9839, Note_on_c, 1, 78, 0
2, 9840, Note_on_c, 1, 76, 64
2, 9863, Note_on_c, 1, 76, 0
2, 9864, Note_on_c, 1, 74, 64
2, 9887, Note_on_c, 1, 74, 0
2, 9888, Note_on_c, 1, 73, 64
2, 9911, Note_on_c, 1, 73, 0
2, 9912, Note_on_c, 1, 71, 64
2, 9935, Note_on_c, 1, 71, 0
2, 9936, Note_on_c, 1, 69, 64
2, 9959, Note_on_c, 1, 69, 0
2, 9960, Note_on_c, 1, 71, 64
2, 9983, Note_on_c, 1, 71, 0
2, 9984, Note_on_c, 1, 69, 64
2, 10029, Note_on_c, 1, 69, 0
2, 10032, Note_on_c, 1, 79, 64
2, 10077, Note_on_c, 1, 79, 0
2, 10080, Note_on_c, 1, 88, 64
2, 10199, Note_on_c, 1, 88, 0
2, 10200, Note_on_c, 1, 86, 64
2, 10223, Note_on_c, 1, 86, 0
2, 10224, Note_on_c, 1, 85, 64
2, 10247, Note_on_c, 1, 85, 0
2, 10248, Note_on_c, 1, 83, 64
2, 10271, Note_on_c, 1, 83, 0
2, 10272, Note_on_c, 1, 81, 64
2, 10295, Note_on_c, 1, 81, 0
2, 10296, Note_on_c, 1, 79, 64
2, 10319, Note_on_c, 1, 79, 0
2, 10320, Note_on_c, 1, 78, 64
2, 10343, Note_on_c, 1, 78, 0
2, 10344, Note_on_c, 1, 79, 64
2, 10367, Note_on_c, 1, 79, 0
2, 10368, Note_on_c, 1, 78, 64
2, 10392, Note_on_c, 1, 78, 0
2, 10392, Note_on_c, 1, 76, 64
2, 10415, Note_on_c, 1, 76, 0
2, 10416, Note_on_c, 1, 79, 64
2, 10440, Note_on_c, 1, 79, 0
2, 10440, Note_on_c, 1, 78, 64
2, 10463, Note_on_c, 1, 78, 0
2, 10464, Note_on_c, 1, 76, 64
2, 10488, Note_on_c, 1, 76, 0
2, 10488, Note_on_c, 1, 74, 64
2, 10511, Note_on_c, 1, 74, 0
2, 10512, Note_on_c, 1, 73, 64
2, 10536, Note_on_c, 1, 73, 0
2, 10536, Note_on_c, 1, 74, 64
2, 10559, Note_on_c, 1, 74, 0
2, 10560, Note_on_c, 1, 73, 64
2, 10649, Note_on_c, 1, 73, 0
2, 10704, Note_on_c, 1, 81, 64
2, 10749, Note_on_c, 1, 81, 0
2, 10752, Note_on_c, 1, 79, 64
2, 10776, Note_on_c, 1, 79, 0
2, 10776, Note_on_c, 1, 78, 64
2, 10799, Note_on_c, 1, 78, 0
2, 10800, Note_on_c, 1, 83, 64
2, 10824, Note_on_c, 1, 83, 0
2, 10824, Note_on_c, 1, 81, 64
2, 10847, Note_on_c, 1, 81, 0
2, 10848, Note_on_c, 1, 78, 64
2, 10854, Note_on_c, 1, 78, 0
2, 10854, Note_on_c, 1, 79, 64
2, 10860, Note_on_c, 1, 79, 0
2, 10860, Note_on_c, 1, 78, 64
2, 10866, Note_on_c, 1, 78, 0
2, 10866, Note_on_c, 1, 79, 64
2, 10872, Note_on_c, 1, 79, 0
2, 10872, Note_on_c, 1, 78, 64
2, 10878, Note_on_c, 1, 78, 0
2, 10878, Note_on_c, 1, 79, 64
2, 10884, Note_on_c, 1, 79, 0
2, 10884, Note_on_c, 1, 78, 64
2, 10890, Note_on_c, 1, 78, 0
2, 10890, Note_on_c, 1, 79, 64
2, 10896, Note_on_c, 1, 79, 0
2, 10896, Note_on_c, 1, 76, 64
2, 10920, Note_on_c, 1, 76, 0
2, 10920, Note_on_c, 1, 74, 64
2, 10943, Note_on_c, 1, 74, 0
2, 10944, Note_on_c, 1, 74, 64
2, 11121, Note_on_c, 1, 74, 0
2, 11121, End_track
3, 0, Start_track
3, 0, MIDI_port, 0
3, 0, Title_t, "Clavier (RH)"
3, 0, Program_c, 0, 6
3, 0, Control_c, 0, 7, 127
3, 24, Note_on_c, 0, 74, 64
3, 47, Note_on_c, 0, 74, 0
3, 48, Note_on_c, 0, 76, 64
3, 71, Note_on_c, 0, 76, 0
3, 72, Note_on_c, 0, 78, 64
3, 95, Note_on_c, 0, 78, 0
3, 96, Note_on_c, 0, 67, 64
3, 119, Note_on_c, 0, 67, 0
3, 120, Note_on_c, 0, 76, 64
3, 143, Note_on_c, 0, 76, 0
3, 144, Note_on_c, 0, 66, 64
3, 167, Note_on_c, 0, 66, 0
3, 168, Note_on_c, 0, 74, 64
3, 191, Note_on_c, 0, 74, 0
3, 192, Note_on_c, 0, 73, 64
3, 215, Note_on_c, 0, 73, 0
3, 216, Note_on_c, 0, 69, 64
3, 239, Note_on_c, 0, 69, 0
3, 240, Note_on_c, 0, 73, 64
3, 263, Note_on_c, 0, 73, 0
3, 264, Note_on_c, 0, 76, 64
3, 287, Note_on_c, 0, 76, 0
3, 288, Note_on_c, 0, 81, 64
3, 311, Note_on_c, 0, 81, 0
3, 312, Note_on_c, 0, 74, 64
3, 335, Note_on_c, 0, 74, 0
3, 336, Note_on_c, 0, 73, 64
3, 359, Note_on_c, 0, 73, 0
3, 360, Note_on_c, 0, 79, 64
3, 383, Note_on_c, 0, 79, 0
3, 384, Note_on_c, 0, 78, 64
3, 407, Note_on_c, 0, 78, 0
3, 408, Note_on_c, 0, 76, 64
3, 431, Note_on_c, 0, 76, 0
3, 432, Note_on_c, 0, 79, 64
3, 455, Note_on_c, 0, 79, 0
3, 456, Note_on_c, 0, 78, 64
3, 479, Note_on_c, 0, 78, 0
3, 480, Note_on_c, 0, 76, 64
3, 503, Note_on_c, 0, 76, 0
3, 504, Note_on_c, 0, 69, 64
3, 527, Note_on_c, 0, 69, 0
3, 528, Note_on_c, 0, 67, 64
3, 551, Note_on_c, 0, 67, 0
3, 552, Note_on_c, 0, 66, 64
3, 575, Note_on_c, 0, 66, 0
3, 576, Note_on_c, 0, 64, 64
3, 599, Note_on_c, 0, 64, 0
3, 600, Note_on_c, 0, 73, 64
3, 623, Note_on_c, 0, 73, 0
3, 624, Note_on_c, 0, 74, 64
3, 647, Note_on_c, 0, 74, 0
3, 648, Note_on_c, 0, 76, 64
3, 671, Note_on_c, 0, 76, 0
3, 672, Note_on_c, 0, 69, 64
3, 695, Note_on_c, 0, 69, 0
3, 696, Note_on_c, 0, 74, 64
3, 719, Note_on_c, 0, 74, 0
3, 720, Note_on_c, 0, 67, 64
3, 743, Note_on_c, 0, 67, 0
3, 744, Note_on_c, 0, 73, 64
3, 767, Note_on_c, 0, 73, 0
3, 768, Note_on_c, 0, 74, 64
3, 792, Note_on_c, 0, 74, 0
3, 792, Note_on_c, 0, 78, 64
3, 815, Note_on_c, 0, 78, 0
3, 816, Note_on_c, 0, 83, 64
3, 840, Note_on_c, 0, 83, 0
3, 840, Note_on_c, 0, 81, 64
3, 863, Note_on_c, 0, 81, 0
3, 864, Note_on_c, 0, 79, 64
3, 888, Note_on_c, 0, 79, 0
3, 888, Note_on_c, 0, 78, 64
3, 911, Note_on_c, 0, 78, 0
3, 912, Note_on_c, 0, 76, 64
3, 936, Note_on_c, 0, 76, 0
3, 936, Note_on_c, 0, 74, 64
3, 959, Note_on_c, 0, 74, 0
3, 960, Note_on_c, 0, 73, 64
3, 966, Note_on_c, 0, 73, 0
3, 966, Note_on_c, 0, 74, 64
3, 972, Note_on_c, 0, 74, 0
3, 972, Note_on_c, 0, 73, 64
3, 978, Note_on_c, 0, 73, 0
3, 978, Note_on_c, 0, 74, 64
3, 984, Note_on_c, 0, 74, 0
3, 984, Note_on_c, 0, 73, 64
3, 990, Note_on_c, 0, 73, 0
3, 990, Note_on_c, 0, 74, 64
3, 996, Note_on_c, 0, 74, 0
3, 996, Note_on_c, 0, 73, 64
3, 1002, Note_on_c, 0, 73, 0
3, 1002, Note_on_c, 0, 74, 64
3, 1008, Note_on_c, 0, 74, 0
3, 1008, Note_on_c, 0, 74, 64
3, 1032, Note_on_c, 0, 74, 0
3, 1032, Note_on_c, 0, 73, 64
3, 1055, Note_on_c, 0, 73, 0
3, 1056, Note_on_c, 0, 76, 64
3, 1080, Note_on_c, 0, 76, 0
3, 1080, Note_on_c, 0, 74, 64
3, 1103, Note_on_c, 0, 74, 0
3, 1104, Note_on_c, 0, 78, 64
3, 1128, Note_on_c, 0, 78, 0
3, 1128, Note_on_c, 0, 76, 64
3, 1151, Note_on_c, 0, 76, 0
3, 1152, Note_on_c, 0, 78, 64
3, 1219, Note_on_c, 0, 78, 0
3, 1224, Note_on_c, 0, 83, 64
3, 1247, Note_on_c, 0, 83, 0
3, 1248, Note_on_c, 0, 81, 64
3, 1271, Note_on_c, 0, 81, 0
3, 1272, Note_on_c, 0, 74, 64
3, 1295, Note_on_c, 0, 74, 0
3, 1296, Note_on_c, 0, 73, 64
3, 1319, Note_on_c, 0, 73, 0
3, 1320, Note_on_c, 0, 79, 64
3, 1343, Note_on_c, 0, 79, 0
3, 1344, Note_on_c, 0, 78, 64
3, 1433, Note_on_c, 0, 78, 0
3, 1536, Note_on_c, 0, 76, 64
3, 1751, Note_on_c, 0, 76, 0
3, 1752, Note_on_c, 0, 64, 64
3, 1775, Note_on_c, 0, 64, 0
3, 1776, Note_on_c, 0, 68, 64
3, 1799, Note_on_c, 0, 68, 0
3, 1800, Note_on_c, 0, 71, 64
3, 1823, Note_on_c, 0, 71, 0
3, 1824, Note_on_c, 0, 76, 64
3, 1847, Note_on_c, 0, 76, 0
3, 1848, Note_on_c, 0, 69, 64
3, 1871, Note_on_c, 0, 69, 0
3, 1872, Note_on_c, 0, 68, 64
3, 1895, Note_on_c, 0, 68, 0
3, 1896, Note_on_c, 0, 74, 64
3, 1919, Note_on_c, 0, 74, 0
3, 1920, Note_on_c, 0, 73, 64
3, 1943, Note_on_c, 0, 73, 0
3, 1944, Note_on_c, 0, 71, 64
3, 1967, Note_on_c, 0, 71, 0
3, 1968, Note_on_c, 0, 74, 64
3, 1991, Note_on_c, 0, 74, 0
3, 1992, Note_on_c, 0, 73, 64
3, 2015, Note_on_c, 0, 73, 0
3, 2016, Note_on_c, 0, 78, 64
3, 2039, Note_on_c, 0, 78, 0
3, 2040, Note_on_c, 0, 76, 64
3, 2063, Note_on_c, 0, 76, 0
3, 2064, Note_on_c, 0, 74, 64
3, 2087, Note_on_c, 0, 74, 0
3, 2088, Note_on_c, 0, 73, 64
3, 2111, Note_on_c, 0, 73, 0
3, 2112, Note_on_c, 0, 71, 64
3, 2135, Note_on_c, 0, 71, 0
3, 2136, Note_on_c, 0, 68, 64
3, 2159, Note_on_c, 0, 68, 0
3, 2160, Note_on_c, 0, 69, 64
3, 2183, Note_on_c, 0, 69, 0
3, 2184, Note_on_c, 0, 71, 64
3, 2207, Note_on_c, 0, 71, 0
3, 2208, Note_on_c, 0, 64, 64
3, 2231, Note_on_c, 0, 64, 0
3, 2232, Note_on_c, 0, 69, 64
3, 2255, Note_on_c, 0, 69, 0
3, 2256, Note_on_c, 0, 62, 64
3, 2279, Note_on_c, 0, 62, 0
3, 2280, Note_on_c, 0, 68, 64
3, 2303, Note_on_c, 0, 68, 0
3, 2304, Note_on_c, 0, 69, 64
3, 2327, Note_on_c, 0, 69, 0
3, 2328, Note_on_c, 0, 68, 64
3, 2351, Note_on_c, 0, 68, 0
3, 2352, Note_on_c, 0, 66, 64
3, 2375, Note_on_c, 0, 66, 0
3, 2376, Note_on_c, 0, 64, 64
3, 2399, Note_on_c, 0, 64, 0
3, 2400, Note_on_c, 0, 62, 64
3, 2423, Note_on_c, 0, 62, 0
3, 2424, Note_on_c, 0, 61, 64
3, 2447, Note_on_c, 0, 61, 0
3, 2448, Note_on_c, 0, 59, 64
3, 2471, Note_on_c, 0, 59, 0
3, 2472, Note_on_c, 0, 57, 64
3, 2495, Note_on_c, 0, 57, 0
3, 2496, Note_on_c, 0, 56, 64
3, 2541, Note_on_c, 0, 56, 0
3, 2544, Note_on_c, 0, 57, 64
3, 2567, Note_on_c, 0, 57, 0
3, 2568, Note_on_c, 0, 56, 64
3, 2591, Note_on_c, 0, 56, 0
3, 2592, Note_on_c, 0, 59, 64
3, 2615, Note_on_c, 0, 59, 0
3, 2616, Note_on_c, 0, 57, 64
3, 2639, Note_on_c, 0, 57, 0
3, 2640, Note_on_c, 0, 61, 64
3, 2663, Note_on_c, 0, 61, 0
3, 2664, Note_on_c, 0, 59, 64
3, 2687, Note_on_c, 0, 59, 0
3, 2688, Note_on_c, 0, 61, 64
3, 2755, Note_on_c, 0, 61, 0
3, 2760, Note_on_c, 0, 66, 64
3, 2783, Note_on_c, 0, 66, 0
3, 2784, Note_on_c, 0, 64, 64
3, 2807, Note_on_c, 0, 64, 0
3, 2808, Note_on_c, 0, 57, 64
3, 2831, Note_on_c, 0, 57, 0
3, 2832, Note_on_c, 0, 56, 64
3, 2855, Note_on_c, 0, 56, 0
3, 2856, Note_on_c, 0, 62, 64
3, 2879, Note_on_c, 0, 62, 0
3, 2880, Note_on_c, 0, 61, 64
3, 2903, Note_on_c, 0, 61, 0
3, 2904, Note_on_c, 0, 64, 64
3, 2927, Note_on_c, 0, 64, 0
3, 2928, Note_on_c, 0, 66, 64
3, 2951, Note_on_c, 0, 66, 0
3, 2952, Note_on_c, 0, 67, 64
3, 2975, Note_on_c, 0, 67, 0
3, 2976, Note_on_c, 0, 69, 64
3, 2999, Note_on_c, 0, 69, 0
3, 3000, Note_on_c, 0, 61, 64
3, 3023, Note_on_c, 0, 61, 0
3, 3024, Note_on_c, 0, 63, 64
3, 3047, Note_on_c, 0, 63, 0
3, 3048, Note_on_c, 0, 71, 64
3, 3071, Note_on_c, 0, 71, 0
3, 3072, Note_on_c, 0, 69, 64
3, 3095, Note_on_c, 0, 69, 0
3, 3096, Note_on_c, 0, 67, 64
3, 3119, Note_on_c, 0, 67, 0
3, 3120, Note_on_c, 0, 66, 64
3, 3143, Note_on_c, 0, 66, 0
3, 3144, Note_on_c, 0, 64, 64
3, 3167, Note_on_c, 0, 64, 0
3, 3192, Note_on_c, 0, 76, 64
3, 3215, Note_on_c, 0, 76, 0
3, 3216, Note_on_c, 0, 78, 64
3, 3239, Note_on_c, 0, 78, 0
3, 3240, Note_on_c, 0, 79, 64
3, 3263, Note_on_c, 0, 79, 0
3, 3264, Note_on_c, 0, 78, 64
3, 3287, Note_on_c, 0, 78, 0
3, 3288, Note_on_c, 0, 76, 64
3, 3311, Note_on_c, 0, 76, 0
3, 3312, Note_on_c, 0, 74, 64
3, 3335, Note_on_c, 0, 74, 0
3, 3336, Note_on_c, 0, 73, 64
3, 3359, Note_on_c, 0, 73, 0
3, 3360, Note_on_c, 0, 71, 64
3, 3383, Note_on_c, 0, 71, 0
3, 3384, Note_on_c, 0, 70, 64
3, 3407, Note_on_c, 0, 70, 0
3, 3408, Note_on_c, 0, 71, 64
3, 3431, Note_on_c, 0, 71, 0
3, 3432, Note_on_c, 0, 73, 64
3, 3455, Note_on_c, 0, 73, 0
3, 3456, Note_on_c, 0, 66, 64
3, 3479, Note_on_c, 0, 66, 0
3, 3480, Note_on_c, 0, 71, 64
3, 3503, Note_on_c, 0, 71, 0
3, 3504, Note_on_c, 0, 73, 64
3, 3527, Note_on_c, 0, 73, 0
3, 3528, Note_on_c, 0, 74, 64
3, 3551, Note_on_c, 0, 74, 0
3, 3552, Note_on_c, 0, 64, 64
3, 3575, Note_on_c, 0, 64, 0
3, 3576, Note_on_c, 0, 73, 64
3, 3599, Note_on_c, 0, 73, 0
3, 3600, Note_on_c, 0, 62, 64
3, 3623, Note_on_c, 0, 62, 0
3, 3624, Note_on_c, 0, 71, 64
3, 3647, Note_on_c, 0, 71, 0
3, 3648, Note_on_c, 0, 70, 64
3, 3671, Note_on_c, 0, 70, 0
3, 3672, Note_on_c, 0, 66, 64
3, 3695, Note_on_c, 0, 66, 0
3, 3696, Note_on_c, 0, 70, 64
3, 3719, Note_on_c, 0, 70, 0
3, 3720, Note_on_c, 0, 73, 64
3, 3743, Note_on_c, 0, 73, 0
3, 3744, Note_on_c, 0, 78, 64
3, 3767, Note_on_c, 0, 78, 0
3, 3768, Note_on_c, 0, 76, 64
3, 3791, Note_on_c, 0, 76, 0
3, 3792, Note_on_c, 0, 79, 64
3, 3863, Note_on_c, 0, 79, 0
3, 3864, Note_on_c, 0, 78, 64
3, 3887, Note_on_c, 0, 78, 0
3, 3888, Note_on_c, 0, 76, 64
3, 3911, Note_on_c, 0, 76, 0
3, 3912, Note_on_c, 0, 74, 64
3, 3935, Note_on_c, 0, 74, 0
3, 3936, Note_on_c, 0, 73, 64
3, 3960, Note_on_c, 0, 73, 0
3, 3960, Note_on_c, 0, 74, 64
3, 3983, Note_on_c, 0, 74, 0
3, 3984, Note_on_c, 0, 70, 64
3, 4008, Note_on_c, 0, 70, 0
3, 4008, Note_on_c, 0, 71, 64
3, 4031, Note_on_c, 0, 71, 0
3, 4032, Note_on_c, 0, 70, 64
3, 4077, Note_on_c, 0, 70, 0
3, 4080, Note_on_c, 0, 71, 64
3, 4104, Note_on_c, 0, 71, 0
3, 4104, Note_on_c, 0, 70, 64
3, 4127, Note_on_c, 0, 70, 0
3, 4128, Note_on_c, 0, 73, 64
3, 4152, Note_on_c, 0, 73, 0
3, 4152, Note_on_c, 0, 71, 64
3, 4175, Note_on_c, 0, 71, 0
3, 4176, Note_on_c, 0, 74, 64
3, 4200, Note_on_c, 0, 74, 0
3, 4200, Note_on_c, 0, 73, 64
3, 4223, Note_on_c, 0, 73, 0
3, 4224, Note_on_c, 0, 74, 64
3, 4247, Note_on_c, 0, 74, 0
3, 4248, Note_on_c, 0, 76, 64
3, 4260, Note_on_c, 0, 76, 0
3, 4260, Note_on_c, 0, 74, 64
3, 4272, Note_on_c, 0, 74, 0
3, 4272, Note_on_c, 0, 73, 64
3, 4284, Note_on_c, 0, 73, 0
3, 4284, Note_on_c, 0, 74, 64
3, 4296, Note_on_c, 0, 74, 0
3, 4296, Note_on_c, 0, 71, 64
3, 4319, Note_on_c, 0, 71, 0
3, 4320, Note_on_c, 0, 70, 64
3, 4326, Note_on_c, 0, 70, 0
3, 4326, Note_on_c, 0, 71, 64
3, 4332, Note_on_c, 0, 71, 0
3, 4332, Note_on_c, 0, 70, 64
3, 4338, Note_on_c, 0, 70, 0
3, 4338, Note_on_c, 0, 71, 64
3, 4344, Note_on_c, 0, 71, 0
3, 4344, Note_on_c, 0, 70, 64
3, 4350, Note_on_c, 0, 70, 0
3, 4350, Note_on_c, 0, 71, 64
3, 4356, Note_on_c, 0, 71, 0
3, 4356, Note_on_c, 0, 70, 64
3, 4362, Note_on_c, 0, 70, 0
3, 4362, Note_on_c, 0, 71, 64
3, 4368, Note_on_c, 0, 71, 0
3, 4368, Note_on_c, 0, 70, 64
3, 4374, Note_on_c, 0, 70, 0
3, 4374, Note_on_c, 0, 71, 64
3, 4380, Note_on_c, 0, 71, 0
3, 4380, Note_on_c, 0, 70, 64
3, 4386, Note_on_c, 0, 70, 0
3, 4386, Note_on_c, 0, 71, 64
3, 4392, Note_on_c, 0, 71, 0
3, 4392, Note_on_c, 0, 71, 64
3, 4415, Note_on_c, 0, 71, 0
3, 4416, Note_on_c, 0, 71, 64
3, 4461, Note_on_c, 0, 71, 0
3, 4464, Note_on_c, 0, 75, 64
3, 4488, Note_on_c, 0, 75, 0
3, 4488, Note_on_c, 0, 76, 64
3, 4511, Note_on_c, 0, 76, 0
3, 4512, Note_on_c, 0, 78, 64
3, 4536, Note_on_c, 0, 78, 0
3, 4536, Note_on_c, 0, 76, 64
3, 4559, Note_on_c, 0, 76, 0
3, 4560, Note_on_c, 0, 79, 64
3, 4584, Note_on_c, 0, 79, 0
3, 4584, Note_on_c, 0, 78, 64
3, 4607, Note_on_c, 0, 78, 0
3, 4656, Note_on_c, 0, 78, 64
3, 4679, Note_on_c, 0, 78, 0
3, 4680, Note_on_c, 0, 79, 64
3, 4692, Note_on_c, 0, 79, 0
3, 4692, Note_on_c, 0, 81, 64
3, 4704, Note_on_c, 0, 81, 0
3, 4704, Note_on_c, 0, 79, 64
3, 4727, Note_on_c, 0, 79, 0
3, 4728, Note_on_c, 0, 78, 64
3, 4751, Note_on_c, 0, 78, 0
3, 4752, Note_on_c, 0, 76, 64
3, 4775, Note_on_c, 0, 76, 0
3, 4776, Note_on_c, 0, 75, 64
3, 4799, Note_on_c, 0, 75, 0
3, 4800, Note_on_c, 0, 76, 64
3, 4845, Note_on_c, 0, 76, 0
3, 4848, Note_on_c, 0, 73, 64
3, 4872, Note_on_c, 0, 73, 0
3, 4872, Note_on_c, 0, 74, 64
3, 4895, Note_on_c, 0, 74, 0
3, 4896, Note_on_c, 0, 76, 64
3, 4920, Note_on_c, 0, 76, 0
3, 4920, Note_on_c, 0, 74, 64
3, 4943, Note_on_c, 0, 74, 0
3, 4944, Note_on_c, 0, 78, 64
3, 4968, Note_on_c, 0, 78, 0
3, 4968, Note_on_c, 0, 76, 64
3, 4991, Note_on_c, 0, 76, 0
3, 5040, Note_on_c, 0, 76, 64
3, 5063, Note_on_c, 0, 76, 0
3, 5064, Note_on_c, 0, 78, 64
3, 5076, Note_on_c, 0, 78, 0
3, 5076, Note_on_c, 0, 79, 64
3, 5088, Note_on_c, 0, 79, 0
3, 5088, Note_on_c, 0, 78, 64
3, 5111, Note_on_c, 0, 78, 0
3, 5112, Note_on_c, 0, 76, 64
3, 5135, Note_on_c, 0, 76, 0
3, 5136, Note_on_c, 0, 74, 64
3, 5159, Note_on_c, 0, 74, 0
3, 5160, Note_on_c, 0, 76, 64
3, 5172, Note_on_c, 0, 76, 0
3, 5172, Note_on_c, 0, 73, 64
3, 5184, Note_on_c, 0, 73, 0
3, 5184, Note_on_c, 0, 74, 64
3, 5207, Note_on_c, 0, 74, 0
3, 5208, Note_on_c, 0, 73, 64
3, 5231, Note_on_c, 0, 73, 0
3, 5232, Note_on_c, 0, 71, 64
3, 5256, Note_on_c, 0, 71, 0
3, 5256, Note_on_c, 0, 69, 64
3, 5279, Note_on_c, 0, 69, 0
3, 5280, Note_on_c, 0, 68, 64
3, 5304, Note_on_c, 0, 68, 0
3, 5304, Note_on_c, 0, 66, 64
3, 5327, Note_on_c, 0, 66, 0
3, 5328, Note_on_c, 0, 65, 64
3, 5352, Note_on_c, 0, 65, 0
3, 5352, Note_on_c, 0, 66, 64
3, 5375, Note_on_c, 0, 66, 0
3, 5376, Note_on_c, 0, 65, 64
3, 5421, Note_on_c, 0, 65, 0
3, 5424, Note_on_c, 0, 74, 64
3, 5469, Note_on_c, 0, 74, 0
3, 5472, Note_on_c, 0, 80, 64
3, 5591, Note_on_c, 0, 80, 0
3, 5592, Note_on_c, 0, 78, 64
3, 5615, Note_on_c, 0, 78, 0
3, 5616, Note_on_c, 0, 77, 64
3, 5639, Note_on_c, 0, 77, 0
3, 5640, Note_on_c, 0, 78, 64
3, 5652, Note_on_c, 0, 78, 0
3, 5652, Note_on_c, 0, 80, 64
3, 5664, Note_on_c, 0, 80, 0
3, 5664, Note_on_c, 0, 71, 64
3, 5688, Note_on_c, 0, 71, 0
3, 5688, Note_on_c, 0, 69, 64
3, 5711, Note_on_c, 0, 69, 0
3, 5712, Note_on_c, 0, 71, 64
3, 5736, Note_on_c, 0, 71, 0
3, 5736, Note_on_c, 0, 68, 64
3, 5759, Note_on_c, 0, 68, 0
3, 5760, Note_on_c, 0, 69, 64
3, 5805, Note_on_c, 0, 69, 0
3, 5808, Note_on_c, 0, 73, 64
3, 5831, Note_on_c, 0, 73, 0
3, 5832, Note_on_c, 0, 71, 64
3, 5855, Note_on_c, 0, 71, 0
3, 5856, Note_on_c, 0, 74, 64
3, 5879, Note_on_c, 0, 74, 0
3, 5880, Note_on_c, 0, 73, 64
3, 5903, Note_on_c, 0, 73, 0
3, 5904, Note_on_c, 0, 71, 64
3, 5927, Note_on_c, 0, 71, 0
3, 5928, Note_on_c, 0, 73, 64
3, 5951, Note_on_c, 0, 73, 0
3, 5952, Note_on_c, 0, 68, 64
3, 5975, Note_on_c, 0, 68, 0
3, 5976, Note_on_c, 0, 83, 64
3, 5999, Note_on_c, 0, 83, 0
3, 6000, Note_on_c, 0, 81, 64
3, 6023, Note_on_c, 0, 81, 0
3, 6024, Note_on_c, 0, 78, 64
3, 6047, Note_on_c, 0, 78, 0
3, 6048, Note_on_c, 0, 77, 64
3, 6054, Note_on_c, 0, 77, 0
3, 6054, Note_on_c, 0, 78, 64
3, 6060, Note_on_c, 0, 78, 0
3, 6060, Note_on_c, 0, 77, 64
3, 6066, Note_on_c, 0, 77, 0
3, 6066, Note_on_c, 0, 78, 64
3, 6072, Note_on_c, 0, 78, 0
3, 6072, Note_on_c, 0, 77, 64
3, 6078, Note_on_c, 0, 77, 0
3, 6078, Note_on_c, 0, 78, 64
3, 6084, Note_on_c, 0, 78, 0
3, 6084, Note_on_c, 0, 77, 64
3, 6090, Note_on_c, 0, 77, 0
3, 6090, Note_on_c, 0, 78, 64
3, 6096, Note_on_c, 0, 78, 0
3, 6096, Note_on_c, 0, 77, 64
3, 6102, Note_on_c, 0, 77, 0
3, 6102, Note_on_c, 0, 78, 64
3, 6108, Note_on_c, 0, 78, 0
3, 6108, Note_on_c, 0, 77, 64
3, 6114, Note_on_c, 0, 77, 0
3, 6114, Note_on_c, 0, 78, 64
3, 6120, Note_on_c, 0, 78, 0
3, 6120, Note_on_c, 0, 78, 64
3, 6143, Note_on_c, 0, 78, 0
3, 6144, Note_on_c, 0, 78, 64
3, 6189, Note_on_c, 0, 78, 0
3, 6192, Note_on_c, 0, 81, 64
3, 6215, Note_on_c, 0, 81, 0
3, 6216, Note_on_c, 0, 79, 64
3, 6239, Note_on_c, 0, 79, 0
3, 6240, Note_on_c, 0, 78, 64
3, 6263, Note_on_c, 0, 78, 0
3, 6264, Note_on_c, 0, 76, 64
3, 6287, Note_on_c, 0, 76, 0
3, 6288, Note_on_c, 0, 75, 64
3, 6311, Note_on_c, 0, 75, 0
3, 6312, Note_on_c, 0, 76, 64
3, 6335, Note_on_c, 0, 76, 0
3, 6336, Note_on_c, 0, 75, 64
3, 6425, Note_on_c, 0, 75, 0
3, 6576, Note_on_c, 0, 79, 64
3, 6600, Note_on_c, 0, 79, 0
3, 6600, Note_on_c, 0, 78, 64
3, 6623, Note_on_c, 0, 78, 0
3, 6624, Note_on_c, 0, 76, 64
3, 6648, Note_on_c, 0, 76, 0
3, 6648, Note_on_c, 0, 74, 64
3, 6671, Note_on_c, 0, 74, 0
3, 6672, Note_on_c, 0, 73, 64
3, 6696, Note_on_c, 0, 73, 0
3, 6696, Note_on_c, 0, 74, 64
3, 6719, Note_on_c, 0, 74, 0
3, 6720, Note_on_c, 0, 73, 64
3, 6809, Note_on_c, 0, 73, 0
3, 6936, Note_on_c, 0, 69, 64
3, 6959, Note_on_c, 0, 69, 0
3, 6960, Note_on_c, 0, 74, 64
3, 6983, Note_on_c, 0, 74, 0
3, 6984, Note_on_c, 0, 73, 64
3, 7007, Note_on_c, 0, 73, 0
3, 7008, Note_on_c, 0, 71, 64
3, 7031, Note_on_c, 0, 71, 0
3, 7032, Note_on_c, 0, 69, 64
3, 7055, Note_on_c, 0, 69, 0
3, 7056, Note_on_c, 0, 67, 64
3, 7079, Note_on_c, 0, 67, 0
3, 7080, Note_on_c, 0, 66, 64
3, 7103, Note_on_c, 0, 66, 0
3, 7104, Note_on_c, 0, 64, 64
3, 7127, Note_on_c, 0, 64, 0
3, 7128, Note_on_c, 0, 69, 64
3, 7151, Note_on_c, 0, 69, 0
3, 7152, Note_on_c, 0, 73, 64
3, 7175, Note_on_c, 0, 73, 0
3, 7176, Note_on_c, 0, 76, 64
3, 7199, Note_on_c, 0, 76, 0
3, 7200, Note_on_c, 0, 81, 64
3, 7223, Note_on_c, 0, 81, 0
3, 7224, Note_on_c, 0, 74, 64
3, 7247, Note_on_c, 0, 74, 0
3, 7248, Note_on_c, 0, 73, 64
3, 7271, Note_on_c, 0, 73, 0
3, 7272, Note_on_c, 0, 79, 64
3, 7295, Note_on_c, 0, 79, 0
3, 7296, Note_on_c, 0, 78, 64
3, 7320, Note_on_c, 0, 78, 0
3, 7320, Note_on_c, 0, 76, 64
3, 7343, Note_on_c, 0, 76, 0
3, 7344, Note_on_c, 0, 79, 64
3, 7368, Note_on_c, 0, 79, 0
3, 7368, Note_on_c, 0, 78, 64
3, 7391, Note_on_c, 0, 78, 0
3, 7392, Note_on_c, 0, 83, 64
3, 7416, Note_on_c, 0, 83, 0
3, 7416, Note_on_c, 0, 81, 64
3, 7439, Note_on_c, 0, 81, 0
3, 7440, Note_on_c, 0, 79, 64
3, 7464, Note_on_c, 0, 79, 0
3, 7464, Note_on_c, 0, 78, 64
3, 7487, Note_on_c, 0, 78, 0
3, 7488, Note_on_c, 0, 76, 64
3, 7512, Note_on_c, 0, 76, 0
3, 7512, Note_on_c, 0, 73, 64
3, 7535, Note_on_c, 0, 73, 0
3, 7536, Note_on_c, 0, 74, 64
3, 7560, Note_on_c, 0, 74, 0
3, 7560, Note_on_c, 0, 76, 64
3, 7583, Note_on_c, 0, 76, 0
3, 7584, Note_on_c, 0, 69, 64
3, 7607, Note_on_c, 0, 69, 0
3, 7608, Note_on_c, 0, 74, 64
3, 7631, Note_on_c, 0, 74, 0
3, 7632, Note_on_c, 0, 67, 64
3, 7656, Note_on_c, 0, 67, 0
3, 7656, Note_on_c, 0, 73, 64
3, 7679, Note_on_c, 0, 73, 0
3, 7680, Note_on_c, 0, 74, 64
3, 7703, Note_on_c, 0, 74, 0
3, 7704, Note_on_c, 0, 73, 64
3, 7727, Note_on_c, 0, 73, 0
3, 7728, Note_on_c, 0, 71, 64
3, 7751, Note_on_c, 0, 71, 0
3, 7752, Note_on_c, 0, 69, 64
3, 7775, Note_on_c, 0, 69, 0
3, 7776, Note_on_c, 0, 67, 64
3, 7799, Note_on_c, 0, 67, 0
3, 7800, Note_on_c, 0, 66, 64
3, 7823, Note_on_c, 0, 66, 0
3, 7824, Note_on_c, 0, 64, 64
3, 7847, Note_on_c, 0, 64, 0
3, 7848, Note_on_c, 0, 66, 64
3, 7860, Note_on_c, 0, 66, 0
3, 7860, Note_on_c, 0, 62, 64
3, 7872, Note_on_c, 0, 62, 0
3, 7872, Note_on_c, 0, 61, 64
3, 7917, Note_on_c, 0, 61, 0
3, 7920, Note_on_c, 0, 62, 64
3, 7944, Note_on_c, 0, 62, 0
3, 7944, Note_on_c, 0, 61, 64
3, 7967, Note_on_c, 0, 61, 0
3, 7968, Note_on_c, 0, 64, 64
3, 7992, Note_on_c, 0, 64, 0
3, 7992, Note_on_c, 0, 62, 64
3, 8015, Note_on_c, 0, 62, 0
3, 8016, Note_on_c, 0, 66, 64
3, 8040, Note_on_c, 0, 66, 0
3, 8040, Note_on_c, 0, 64, 64
3, 8063, Note_on_c, 0, 64, 0
3, 8064, Note_on_c, 0, 66, 64
3, 8131, Note_on_c, 0, 66, 0
3, 8136, Note_on_c, 0, 71, 64
3, 8159, Note_on_c, 0, 71, 0
3, 8160, Note_on_c, 0, 69, 64
3, 8183, Note_on_c, 0, 69, 0
3, 8184, Note_on_c, 0, 62, 64
3, 8207, Note_on_c, 0, 62, 0
3, 8208, Note_on_c, 0, 61, 64
3, 8231, Note_on_c, 0, 61, 0
3, 8232, Note_on_c, 0, 67, 64
3, 8255, Note_on_c, 0, 67, 0
3, 8256, Note_on_c, 0, 66, 64
3, 8279, Note_on_c, 0, 66, 0
3, 8280, Note_on_c, 0, 64, 64
3, 8303, Note_on_c, 0, 64, 0
3, 8304, Note_on_c, 0, 66, 64
3, 8327, Note_on_c, 0, 66, 0
3, 8328, Note_on_c, 0, 67, 64
3, 8351, Note_on_c, 0, 67, 0
3, 8352, Note_on_c, 0, 69, 64
3, 8376, Note_on_c, 0, 69, 0
3, 8376, Note_on_c, 0, 67, 64
3, 8399, Note_on_c, 0, 67, 0
3, 8400, Note_on_c, 0, 71, 64
3, 8424, Note_on_c, 0, 71, 0
3, 8424, Note_on_c, 0, 69, 64
3, 8447, Note_on_c, 0, 69, 0
3, 8496, Note_on_c, 0, 69, 64
3, 8519, Note_on_c, 0, 69, 0
3, 8520, Note_on_c, 0, 71, 64
3, 8532, Note_on_c, 0, 71, 0
3, 8532, Note_on_c, 0, 72, 64
3, 8544, Note_on_c, 0, 72, 0
3, 8544, Note_on_c, 0, 71, 64
3, 8567, Note_on_c, 0, 71, 0
3, 8568, Note_on_c, 0, 69, 64
3, 8591, Note_on_c, 0, 69, 0
3, 8592, Note_on_c, 0, 67, 64
3, 8615, Note_on_c, 0, 67, 0
3, 8616, Note_on_c, 0, 66, 64
3, 8639, Note_on_c, 0, 66, 0
3, 8640, Note_on_c, 0, 67, 64
3, 8663, Note_on_c, 0, 67, 0
3, 8664, Note_on_c, 0, 67, 64
3, 8687, Note_on_c, 0, 67, 0
3, 8688, Note_on_c, 0, 68, 64
3, 8712, Note_on_c, 0, 68, 0
3, 8712, Note_on_c, 0, 69, 64
3, 8735, Note_on_c, 0, 69, 0
3, 8736, Note_on_c, 0, 71, 64
3, 8760, Note_on_c, 0, 71, 0
3, 8760, Note_on_c, 0, 69, 64
3, 8783, Note_on_c, 0, 69, 0
3, 8784, Note_on_c, 0, 73, 64
3, 8808, Note_on_c, 0, 73, 0
3, 8808, Note_on_c, 0, 71, 64
3, 8831, Note_on_c, 0, 71, 0
3, 8880, Note_on_c, 0, 71, 64
3, 8903, Note_on_c, 0, 71, 0
3, 8904, Note_on_c, 0, 73, 64
3, 8916, Note_on_c, 0, 73, 0
3, 8916, Note_on_c, 0, 74, 64
3, 8928, Note_on_c, 0, 74, 0
3, 8928, Note_on_c, 0, 73, 64
3, 8951, Note_on_c, 0, 73, 0
3, 8952, Note_on_c, 0, 71, 64
3, 8975, Note_on_c, 0, 71, 0
3, 8976, Note_on_c, 0, 69, 64
3, 8999, Note_on_c, 0, 69, 0
3, 9000, Note_on_c, 0, 68, 64
3, 9023, Note_on_c, 0, 68, 0
3, 9024, Note_on_c, 0, 69, 64
3, 9069, Note_on_c, 0, 69, 0
3, 9072, Note_on_c, 0, 64, 64
3, 9096, Note_on_c, 0, 64, 0
3, 9096, Note_on_c, 0, 66, 64
3, 9119, Note_on_c, 0, 66, 0
3, 9120, Note_on_c, 0, 67, 64
3, 9144, Note_on_c, 0, 67, 0
3, 9144, Note_on_c, 0, 66, 64
3, 9167, Note_on_c, 0, 66, 0
3, 9168, Note_on_c, 0, 69, 64
3, 9192, Note_on_c, 0, 69, 0
3, 9192, Note_on_c, 0, 67, 64
3, 9215, Note_on_c, 0, 67, 0
3, 9264, Note_on_c, 0, 67, 64
3, 9287, Note_on_c, 0, 67, 0
3, 9288, Note_on_c, 0, 69, 64
3, 9300, Note_on_c, 0, 69, 0
3, 9300, Note_on_c, 0, 71, 64
3, 9312, Note_on_c, 0, 71, 0
3, 9312, Note_on_c, 0, 69, 64
3, 9335, Note_on_c, 0, 69, 0
3, 9336, Note_on_c, 0, 67, 64
3, 9359, Note_on_c, 0, 67, 0
3, 9360, Note_on_c, 0, 66, 64
3, 9383, Note_on_c, 0, 66, 0
3, 9384, Note_on_c, 0, 64, 64
3, 9407, Note_on_c, 0, 64, 0
3, 9408, Note_on_c, 0, 66, 64
3, 9431, Note_on_c, 0, 66, 0
3, 9432, Note_on_c, 0, 69, 64
3, 9455, Note_on_c, 0, 69, 0
3, 9456, Note_on_c, 0, 71, 64
3, 9479, Note_on_c, 0, 71, 0
3, 9480, Note_on_c, 0, 73, 64
3, 9503, Note_on_c, 0, 73, 0
3, 9504, Note_on_c, 0, 74, 64
3, 9623, Note_on_c, 0, 74, 0
3, 9624, Note_on_c, 0, 73, 64
3, 9647, Note_on_c, 0, 73, 0
3, 9648, Note_on_c, 0, 71, 64
3, 9671, Note_on_c, 0, 71, 0
3, 9672, Note_on_c, 0, 69, 64
3, 9695, Note_on_c, 0, 69, 0
3, 9696, Note_on_c, 0, 67, 64
3, 9719, Note_on_c, 0, 67, 0
3, 9720, Note_on_c, 0, 66, 64
3, 9743, Note_on_c, 0, 66, 0
3, 9744, Note_on_c, 0, 64, 64
3, 9767, Note_on_c, 0, 64, 0
3, 9768, Note_on_c, 0, 66, 64
3, 9791, Note_on_c, 0, 66, 0
3, 9792, Note_on_c, 0, 64, 64
3, 9837, Note_on_c, 0, 64, 0
3, 9840, Note_on_c, 0, 71, 64
3, 9885, Note_on_c, 0, 71, 0
3, 9888, Note_on_c, 0, 79, 64
3, 10007, Note_on_c, 0, 79, 0
3, 10008, Note_on_c, 0, 78, 64
3, 10031, Note_on_c, 0, 78, 0
3, 10032, Note_on_c, 0, 76, 64
3, 10055, Note_on_c, 0, 76, 0
3, 10056, Note_on_c, 0, 74, 64
3, 10079, Note_on_c, 0, 74, 0
3, 10080, Note_on_c, 0, 73, 64
3, 10103, Note_on_c, 0, 73, 0
3, 10104, Note_on_c, 0, 71, 64
3, 10127, Note_on_c, 0, 71, 0
3, 10128, Note_on_c, 0, 69, 64
3, 10151, Note_on_c, 0, 69, 0
3, 10152, Note_on_c, 0, 71, 64
3, 10175, Note_on_c, 0, 71, 0
3, 10176, Note_on_c, 0, 69, 64
3, 10221, Note_on_c, 0, 69, 0
3, 10224, Note_on_c, 0, 76, 64
3, 10247, Note_on_c, 0, 76, 0
3, 10248, Note_on_c, 0, 74, 64
3, 10271, Note_on_c, 0, 74, 0
3, 10272, Note_on_c, 0, 76, 64
3, 10391, Note_on_c, 0, 76, 0
3, 10392, Note_on_c, 0, 69, 64
3, 10415, Note_on_c, 0, 69, 0
3, 10416, Note_on_c, 0, 74, 64
3, 10439, Note_on_c, 0, 74, 0
3, 10440, Note_on_c, 0, 73, 64
3, 10463, Note_on_c, 0, 73, 0
3, 10464, Note_on_c, 0, 71, 64
3, 10487, Note_on_c, 0, 71, 0
3, 10488, Note_on_c, 0, 69, 64
3, 10511, Note_on_c, 0, 69, 0
3, 10512, Note_on_c, 0, 67, 64
3, 10535, Note_on_c, 0, 67, 0
3, 10536, Note_on_c, 0, 66, 64
3, 10559, Note_on_c, 0, 66, 0
3, 10560, Note_on_c, 0, 64, 64
3, 10583, Note_on_c, 0, 64, 0
3, 10584, Note_on_c, 0, 67, 64
3, 10607, Note_on_c, 0, 67, 0
3, 10608, Note_on_c, 0, 69, 64
3, 10631, Note_on_c, 0, 69, 0
3, 10632, Note_on_c, 0, 73, 64
3, 10655, Note_on_c, 0, 73, 0
3, 10656, Note_on_c, 0, 76, 64
3, 10679, Note_on_c, 0, 76, 0
3, 10680, Note_on_c, 0, 79, 64
3, 10703, Note_on_c, 0, 79, 0
3, 10704, Note_on_c, 0, 81, 64
3, 10727, Note_on_c, 0, 81, 0
3, 10728, Note_on_c, 0, 73, 64
3, 10751, Note_on_c, 0, 73, 0
3, 10752, Note_on_c, 0, 74, 64
3, 10819, Note_on_c, 0, 74, 0
3, 10824, Note_on_c, 0, 76, 64
3, 10847, Note_on_c, 0, 76, 0
3, 10848, Note_on_c, 0, 73, 64
3, 10854, Note_on_c, 0, 73, 0
3, 10854, Note_on_c, 0, 74, 64
3, 10860, Note_on_c, 0, 74, 0
3, 10860, Note_on_c, 0, 73, 64
3, 10866, Note_on_c, 0, 73, 0
3, 10866, Note_on_c, 0, 74, 64
3, 10872, Note_on_c, 0, 74, 0
3, 10872, Note_on_c, 0, 73, 64
3, 10878, Note_on_c, 0, 73, 0
3, 10878, Note_on_c, 0, 74, 64
3, 10884, Note_on_c, 0, 74, 0
3, 10884, Note_on_c, 0, 73, 64
3, 10890, Note_on_c, 0, 73, 0
3, 10890, Note_on_c, 0, 74, 64
3, 10896, Note_on_c, 0, 74, 0
3, 10896, Note_on_c, 0, 73, 64
3, 10902, Note_on_c, 0, 73, 0
3, 10902, Note_on_c, 0, 74, 64
3, 10908, Note_on_c, 0, 74, 0
3, 10908, Note_on_c, 0, 73, 64
3, 10914, Note_on_c, 0, 73, 0
3, 10914, Note_on_c, 0, 74, 64
3, 10920, Note_on_c, 0, 74, 0
3, 10920, Note_on_c, 0, 74, 64
3, 10943, Note_on_c, 0, 74, 0
3, 10944, Note_on_c, 0, 74, 64
3, 11121, Note_on_c, 0, 74, 0
3, 11121, End_track
4, 0, Start_track
4, 0, MIDI_port, 0
4, 0, Title_t, "Clavier (LH)"
4, 0, Program_c, 0, 6
4, 0, Control_c, 0, 7, 127
4, 0, Note_on_c, 0, 50, 64
4, 45, Note_on_c, 0, 50, 0
4, 48, Note_on_c, 0, 62, 64
4, 93, Note_on_c, 0, 62, 0
4, 96, Note_on_c, 0, 61, 64
4, 141, Note_on_c, 0, 61, 0
4, 144, Note_on_c, 0, 62, 64
4, 189, Note_on_c, 0, 62, 0
4, 192, Note_on_c, 0, 57, 64
4, 237, Note_on_c, 0, 57, 0
4, 240, Note_on_c, 0, 55, 64
4, 285, Note_on_c, 0, 55, 0
4, 288, Note_on_c, 0, 54, 64
4, 333, Note_on_c, 0, 54, 0
4, 336, Note_on_c, 0, 52, 64
4, 381, Note_on_c, 0, 52, 0
4, 384, Note_on_c, 0, 50, 64
4, 429, Note_on_c, 0, 50, 0
4, 432, Note_on_c, 0, 62, 64
4, 477, Note_on_c, 0, 62, 0
4, 480, Note_on_c, 0, 61, 64
4, 525, Note_on_c, 0, 61, 0
4, 528, Note_on_c, 0, 62, 64
4, 573, Note_on_c, 0, 62, 0
4, 576, Note_on_c, 0, 57, 64
4, 621, Note_on_c, 0, 57, 0
4, 624, Note_on_c, 0, 55, 64
4, 669, Note_on_c, 0, 55, 0
4, 672, Note_on_c, 0, 54, 64
4, 717, Note_on_c, 0, 54, 0
4, 720, Note_on_c, 0, 52, 64
4, 765, Note_on_c, 0, 52, 0
4, 768, Note_on_c, 0, 50, 64
4, 813, Note_on_c, 0, 50, 0
4, 816, Note_on_c, 0, 62, 64
4, 861, Note_on_c, 0, 62, 0
4, 864, Note_on_c, 0, 61, 64
4, 909, Note_on_c, 0, 61, 0
4, 912, Note_on_c, 0, 62, 64
4, 957, Note_on_c, 0, 62, 0
4, 960, Note_on_c, 0, 57, 64
4, 1005, Note_on_c, 0, 57, 0
4, 1008, Note_on_c, 0, 55, 64
4, 1053, Note_on_c, 0, 55, 0
4, 1056, Note_on_c, 0, 54, 64
4, 1101, Note_on_c, 0, 54, 0
4, 1104, Note_on_c, 0, 52, 64
4, 1149, Note_on_c, 0, 52, 0
4, 1152, Note_on_c, 0, 50, 64
4, 1197, Note_on_c, 0, 50, 0
4, 1200, Note_on_c, 0, 55, 64
4, 1245, Note_on_c, 0, 55, 0
4, 1248, Note_on_c, 0, 57, 64
4, 1293, Note_on_c, 0, 57, 0
4, 1296, Note_on_c, 0, 45, 64
4, 1341, Note_on_c, 0, 45, 0
4, 1344, Note_on_c, 0, 38, 64
4, 1389, Note_on_c, 0, 38, 0
4, 1392, Note_on_c, 0, 50, 64
4, 1437, Note_on_c, 0, 50, 0
4, 1440, Note_on_c, 0, 49, 64
4, 1485, Note_on_c, 0, 49, 0
4, 1488, Note_on_c, 0, 47, 64
4, 1533, Note_on_c, 0, 47, 0
4, 1536, Note_on_c, 0, 45, 64
4, 1581, Note_on_c, 0, 45, 0
4, 1584, Note_on_c, 0, 57, 64
4, 1629, Note_on_c, 0, 57, 0
4, 1632, Note_on_c, 0, 56, 64
4, 1677, Note_on_c, 0, 56, 0
4, 1680, Note_on_c, 0, 57, 64
4, 1725, Note_on_c, 0, 57, 0
4, 1728, Note_on_c, 0, 52, 64
4, 1773, Note_on_c, 0, 52, 0
4, 1776, Note_on_c, 0, 50, 64
4, 1821, Note_on_c, 0, 50, 0
4, 1824, Note_on_c, 0, 49, 64
4, 1869, Note_on_c, 0, 49, 0
4, 1872, Note_on_c, 0, 47, 64
4, 1917, Note_on_c, 0, 47, 0
4, 1920, Note_on_c, 0, 45, 64
4, 1965, Note_on_c, 0, 45, 0
4, 1968, Note_on_c, 0, 57, 64
4, 2013, Note_on_c, 0, 57, 0
4, 2016, Note_on_c, 0, 56, 64
4, 2061, Note_on_c, 0, 56, 0
4, 2064, Note_on_c, 0, 57, 64
4, 2109, Note_on_c, 0, 57, 0
4, 2112, Note_on_c, 0, 52, 64
4, 2157, Note_on_c, 0, 52, 0
4, 2160, Note_on_c, 0, 50, 64
4, 2205, Note_on_c, 0, 50, 0
4, 2208, Note_on_c, 0, 49, 64
4, 2253, Note_on_c, 0, 49, 0
4, 2256, Note_on_c, 0, 47, 64
4, 2301, Note_on_c, 0, 47, 0
4, 2304, Note_on_c, 0, 45, 64
4, 2349, Note_on_c, 0, 45, 0
4, 2352, Note_on_c, 0, 45, 64
4, 2397, Note_on_c, 0, 45, 0
4, 2400, Note_on_c, 0, 44, 64
4, 2445, Note_on_c, 0, 44, 0
4, 2448, Note_on_c, 0, 45, 64
4, 2493, Note_on_c, 0, 45, 0
4, 2496, Note_on_c, 0, 40, 64
4, 2541, Note_on_c, 0, 40, 0
4, 2544, Note_on_c, 0, 50, 64
4, 2589, Note_on_c, 0, 50, 0
4, 2592, Note_on_c, 0, 49, 64
4, 2637, Note_on_c, 0, 49, 0
4, 2640, Note_on_c, 0, 47, 64
4, 2685, Note_on_c, 0, 47, 0
4, 2688, Note_on_c, 0, 45, 64
4, 2733, Note_on_c, 0, 45, 0
4, 2736, Note_on_c, 0, 50, 64
4, 2781, Note_on_c, 0, 50, 0
4, 2784, Note_on_c, 0, 52, 64
4, 2829, Note_on_c, 0, 52, 0
4, 2832, Note_on_c, 0, 40, 64
4, 2877, Note_on_c, 0, 40, 0
4, 2880, Note_on_c, 0, 45, 64
4, 2925, Note_on_c, 0, 45, 0
4, 2928, Note_on_c, 0, 57, 64
4, 2973, Note_on_c, 0, 57, 0
4, 2976, Note_on_c, 0, 55, 64
4, 3021, Note_on_c, 0, 55, 0
4, 3024, Note_on_c, 0, 54, 64
4, 3069, Note_on_c, 0, 54, 0
4, 3072, Note_on_c, 0, 52, 64
4, 3117, Note_on_c, 0, 52, 0
4, 3120, Note_on_c, 0, 55, 64
4, 3165, Note_on_c, 0, 55, 0
4, 3168, Note_on_c, 0, 49, 64
4, 3213, Note_on_c, 0, 49, 0
4, 3216, Note_on_c, 0, 52, 64
4, 3261, Note_on_c, 0, 52, 0
4, 3264, Note_on_c, 0, 46, 64
4, 3309, Note_on_c, 0, 46, 0
4, 3312, Note_on_c, 0, 42, 64
4, 3357, Note_on_c, 0, 42, 0
4, 3360, Note_on_c, 0, 44, 64
4, 3405, Note_on_c, 0, 44, 0
4, 3408, Note_on_c, 0, 46, 64
4, 3453, Note_on_c, 0, 46, 0
4, 3456, Note_on_c, 0, 47, 64
4, 3501, Note_on_c, 0, 47, 0
4, 3504, Note_on_c, 0, 59, 64
4, 3549, Note_on_c, 0, 59, 0
4, 3552, Note_on_c, 0, 58, 64
4, 3597, Note_on_c, 0, 58, 0
4, 3600, Note_on_c, 0, 59, 64
4, 3645, Note_on_c, 0, 59, 0
4, 3648, Note_on_c, 0, 54, 64
4, 3693, Note_on_c, 0, 54, 0
4, 3696, Note_on_c, 0, 52, 64
4, 3741, Note_on_c, 0, 52, 0
4, 3744, Note_on_c, 0, 50, 64
4, 3789, Note_on_c, 0, 50, 0
4, 3792, Note_on_c, 0, 49, 64
4, 3837, Note_on_c, 0, 49, 0
4, 3840, Note_on_c, 0, 47, 64
4, 3885, Note_on_c, 0, 47, 0
4, 3888, Note_on_c, 0, 59, 64
4, 3933, Note_on_c, 0, 59, 0
4, 3936, Note_on_c, 0, 58, 64
4, 3981, Note_on_c, 0, 58, 0
4, 3984, Note_on_c, 0, 59, 64
4, 4029, Note_on_c, 0, 59, 0
4, 4032, Note_on_c, 0, 54, 64
4, 4077, Note_on_c, 0, 54, 0
4, 4080, Note_on_c, 0, 52, 64
4, 4125, Note_on_c, 0, 52, 0
4, 4128, Note_on_c, 0, 50, 64
4, 4173, Note_on_c, 0, 50, 0
4, 4176, Note_on_c, 0, 49, 64
4, 4221, Note_on_c, 0, 49, 0
4, 4224, Note_on_c, 0, 47, 64
4, 4269, Note_on_c, 0, 47, 0
4, 4272, Note_on_c, 0, 52, 64
4, 4317, Note_on_c, 0, 52, 0
4, 4320, Note_on_c, 0, 54, 64
4, 4365, Note_on_c, 0, 54, 0
4, 4368, Note_on_c, 0, 42, 64
4, 4413, Note_on_c, 0, 42, 0
4, 4416, Note_on_c, 0, 47, 64
4, 4461, Note_on_c, 0, 47, 0
4, 4464, Note_on_c, 0, 59, 64
4, 4509, Note_on_c, 0, 59, 0
4, 4512, Note_on_c, 0, 54, 64
4, 4557, Note_on_c, 0, 54, 0
4, 4560, Note_on_c, 0, 51, 64
4, 4605, Note_on_c, 0, 51, 0
4, 4608, Note_on_c, 0, 47, 64
4, 4653, Note_on_c, 0, 47, 0
4, 4656, Note_on_c, 0, 59, 64
4, 4701, Note_on_c, 0, 59, 0
4, 4704, Note_on_c, 0, 57, 64
4, 4749, Note_on_c, 0, 57, 0
4, 4752, Note_on_c, 0, 59, 64
4, 4797, Note_on_c, 0, 59, 0
4, 4800, Note_on_c, 0, 52, 64
4, 4845, Note_on_c, 0, 52, 0
4, 4848, Note_on_c, 0, 57, 64
4, 4893, Note_on_c, 0, 57, 0
4, 4896, Note_on_c, 0, 52, 64
4, 4941, Note_on_c, 0, 52, 0
4, 4944, Note_on_c, 0, 49, 64
4, 4989, Note_on_c, 0, 49, 0
4, 4992, Note_on_c, 0, 45, 64
4, 5037, Note_on_c, 0, 45, 0
4, 5040, Note_on_c, 0, 57, 64
4, 5085, Note_on_c, 0, 57, 0
4, 5088, Note_on_c, 0, 55, 64
4, 5133, Note_on_c, 0, 55, 0
4, 5136, Note_on_c, 0, 57, 64
4, 5181, Note_on_c, 0, 57, 0
4, 5184, Note_on_c, 0, 50, 64
4, 5229, Note_on_c, 0, 50, 0
4, 5232, Note_on_c, 0, 49, 64
4, 5277, Note_on_c, 0, 49, 0
4, 5280, Note_on_c, 0, 47, 64
4, 5325, Note_on_c, 0, 47, 0
4, 5328, Note_on_c, 0, 45, 64
4, 5373, Note_on_c, 0, 45, 0
4, 5376, Note_on_c, 0, 44, 64
4, 5421, Note_on_c, 0, 44, 0
4, 5424, Note_on_c, 0, 42, 64
4, 5469, Note_on_c, 0, 42, 0
4, 5472, Note_on_c, 0, 41, 64
4, 5517, Note_on_c, 0, 41, 0
4, 5520, Note_on_c, 0, 44, 64
4, 5565, Note_on_c, 0, 44, 0
4, 5568, Note_on_c, 0, 49, 64
4, 5613, Note_on_c, 0, 49, 0
4, 5616, Note_on_c, 0, 51, 64
4, 5661, Note_on_c, 0, 51, 0
4, 5664, Note_on_c, 0, 53, 64
4, 5709, Note_on_c, 0, 53, 0
4, 5712, Note_on_c, 0, 49, 64
4, 5757, Note_on_c, 0, 49, 0
4, 5760, Note_on_c, 0, 42, 64
4, 5805, Note_on_c, 0, 42, 0
4, 5808, Note_on_c, 0, 54, 64
4, 5853, Note_on_c, 0, 54, 0
4, 5856, Note_on_c, 0, 53, 64
4, 5901, Note_on_c, 0, 53, 0
4, 5904, Note_on_c, 0, 54, 64
4, 5949, Note_on_c, 0, 54, 0
4, 5952, Note_on_c, 0, 50, 64
4, 5997, Note_on_c, 0, 50, 0
4, 6000, Note_on_c, 0, 47, 64
4, 6045, Note_on_c, 0, 47, 0
4, 6048, Note_on_c, 0, 49, 64
4, 6093, Note_on_c, 0, 49, 0
4, 6096, Note_on_c, 0, 37, 64
4, 6141, Note_on_c, 0, 37, 0
4, 6144, Note_on_c, 0, 42, 64
4, 6189, Note_on_c, 0, 42, 0
4, 6192, Note_on_c, 0, 54, 64
4, 6237, Note_on_c, 0, 54, 0
4, 6240, Note_on_c, 0, 52, 64
4, 6285, Note_on_c, 0, 52, 0
4, 6288, Note_on_c, 0, 54, 64
4, 6333, Note_on_c, 0, 54, 0
4, 6336, Note_on_c, 0, 47, 64
4, 6381, Note_on_c, 0, 47, 0
4, 6384, Note_on_c, 0, 45, 64
4, 6429, Note_on_c, 0, 45, 0
4, 6432, Note_on_c, 0, 43, 64
4, 6477, Note_on_c, 0, 43, 0
4, 6480, Note_on_c, 0, 42, 64
4, 6525, Note_on_c, 0, 42, 0
4, 6528, Note_on_c, 0, 40, 64
4, 6573, Note_on_c, 0, 40, 0
4, 6576, Note_on_c, 0, 52, 64
4, 6621, Note_on_c, 0, 52, 0
4, 6624, Note_on_c, 0, 50, 64
4, 6669, Note_on_c, 0, 50, 0
4, 6672, Note_on_c, 0, 52, 64
4, 6717, Note_on_c, 0, 52, 0
4, 6720, Note_on_c, 0, 45, 64
4, 6765, Note_on_c, 0, 45, 0
4, 6768, Note_on_c, 0, 43, 64
4, 6813, Note_on_c, 0, 43, 0
4, 6816, Note_on_c, 0, 42, 64
4, 6861, Note_on_c, 0, 42, 0
4, 6864, Note_on_c, 0, 40, 64
4, 6909, Note_on_c, 0, 40, 0
4, 6912, Note_on_c, 0, 38, 64
4, 6957, Note_on_c, 0, 38, 0
4, 6960, Note_on_c, 0, 62, 64
4, 7005, Note_on_c, 0, 62, 0
4, 7008, Note_on_c, 0, 61, 64
4, 7053, Note_on_c, 0, 61, 0
4, 7056, Note_on_c, 0, 62, 64
4, 7101, Note_on_c, 0, 62, 0
4, 7104, Note_on_c, 0, 57, 64
4, 7149, Note_on_c, 0, 57, 0
4, 7152, Note_on_c, 0, 55, 64
4, 7197, Note_on_c, 0, 55, 0
4, 7200, Note_on_c, 0, 54, 64
4, 7245, Note_on_c, 0, 54, 0
4, 7248, Note_on_c, 0, 52, 64
4, 7293, Note_on_c, 0, 52, 0
4, 7296, Note_on_c, 0, 50, 64
4, 7341, Note_on_c, 0, 50, 0
4, 7344, Note_on_c, 0, 62, 64
4, 7389, Note_on_c, 0, 62, 0
4, 7392, Note_on_c, 0, 61, 64
4, 7437, Note_on_c, 0, 61, 0
4, 7440, Note_on_c, 0, 62, 64
4, 7485, Note_on_c, 0, 62, 0
4, 7488, Note_on_c, 0, 57, 64
4, 7533, Note_on_c, 0, 57, 0
4, 7536, Note_on_c, 0, 55, 64
4, 7581, Note_on_c, 0, 55, 0
4, 7584, Note_on_c, 0, 54, 64
4, 7629, Note_on_c, 0, 54, 0
4, 7632, Note_on_c, 0, 52, 64
4, 7677, Note_on_c, 0, 52, 0
4, 7680, Note_on_c, 0, 50, 64
4, 7725, Note_on_c, 0, 50, 0
4, 7728, Note_on_c, 0, 50, 64
4, 7773, Note_on_c, 0, 50, 0
4, 7776, Note_on_c, 0, 49, 64
4, 7821, Note_on_c, 0, 49, 0
4, 7824, Note_on_c, 0, 50, 64
4, 7869, Note_on_c, 0, 50, 0
4, 7872, Note_on_c, 0, 45, 64
4, 7917, Note_on_c, 0, 45, 0
4, 7920, Note_on_c, 0, 55, 64
4, 7965, Note_on_c, 0, 55, 0
4, 7968, Note_on_c, 0, 54, 64
4, 8013, Note_on_c, 0, 54, 0
4, 8016, Note_on_c, 0, 52, 64
4, 8061, Note_on_c, 0, 52, 0
4, 8064, Note_on_c, 0, 50, 64
4, 8109, Note_on_c, 0, 50, 0
4, 8112, Note_on_c, 0, 55, 64
4, 8157, Note_on_c, 0, 55, 0
4, 8160, Note_on_c, 0, 57, 64
4, 8205, Note_on_c, 0, 57, 0
4, 8208, Note_on_c, 0, 45, 64
4, 8253, Note_on_c, 0, 45, 0
4, 8256, Note_on_c, 0, 50, 64
4, 8301, Note_on_c, 0, 50, 0
4, 8304, Note_on_c, 0, 50, 64
4, 8349, Note_on_c, 0, 50, 0
4, 8352, Note_on_c, 0, 45, 64
4, 8397, Note_on_c, 0, 45, 0
4, 8400, Note_on_c, 0, 42, 64
4, 8445, Note_on_c, 0, 42, 0
4, 8448, Note_on_c, 0, 38, 64
4, 8493, Note_on_c, 0, 38, 0
4, 8496, Note_on_c, 0, 50, 64
4, 8541, Note_on_c, 0, 50, 0
4, 8544, Note_on_c, 0, 48, 64
4, 8589, Note_on_c, 0, 48, 0
4, 8592, Note_on_c, 0, 50, 64
4, 8637, Note_on_c, 0, 50, 0
4, 8640, Note_on_c, 0, 43, 64
4, 8685, Note_on_c, 0, 43, 0
4, 8688, Note_on_c, 0, 52, 64
4, 8733, Note_on_c, 0, 52, 0
4, 8736, Note_on_c, 0, 47, 64
4, 8781, Note_on_c, 0, 47, 0
4, 8784, Note_on_c, 0, 44, 64
4, 8829, Note_on_c, 0, 44, 0
4, 8832, Note_on_c, 0, 40, 64
4, 8877, Note_on_c, 0, 40, 0
4, 8880, Note_on_c, 0, 52, 64
4, 8925, Note_on_c, 0, 52, 0
4, 8928, Note_on_c, 0, 50, 64
4, 8973, Note_on_c, 0, 50, 0
4, 8976, Note_on_c, 0, 52, 64
4, 9021, Note_on_c, 0, 52, 0
4, 9024, Note_on_c, 0, 45, 64
4, 9069, Note_on_c, 0, 45, 0
4, 9072, Note_on_c, 0, 57, 64
4, 9117, Note_on_c, 0, 57, 0
4, 9120, Note_on_c, 0, 52, 64
4, 9165, Note_on_c, 0, 52, 0
4, 9168, Note_on_c, 0, 49, 64
4, 9213, Note_on_c, 0, 49, 0
4, 9216, Note_on_c, 0, 45, 64
4, 9261, Note_on_c, 0, 45, 0
4, 9264, Note_on_c, 0, 57, 64
4, 9309, Note_on_c, 0, 57, 0
4, 9312, Note_on_c, 0, 55, 64
4, 9357, Note_on_c, 0, 55, 0
4, 9360, Note_on_c, 0, 57, 64
4, 9405, Note_on_c, 0, 57, 0
4, 9408, Note_on_c, 0, 50, 64
4, 9453, Note_on_c, 0, 50, 0
4, 9456, Note_on_c, 0, 49, 64
4, 9501, Note_on_c, 0, 49, 0
4, 9504, Note_on_c, 0, 47, 64
4, 9549, Note_on_c, 0, 47, 0
4, 9552, Note_on_c, 0, 50, 64
4, 9597, Note_on_c, 0, 50, 0
4, 9600, Note_on_c, 0, 43, 64
4, 9645, Note_on_c, 0, 43, 0
4, 9648, Note_on_c, 0, 42, 64
4, 9693, Note_on_c, 0, 42, 0
4, 9696, Note_on_c, 0, 40, 64
4, 9741, Note_on_c, 0, 40, 0
4, 9744, Note_on_c, 0, 38, 64
4, 9789, Note_on_c, 0, 38, 0
4, 9792, Note_on_c, 0, 37, 64
4, 9837, Note_on_c, 0, 37, 0
4, 9840, Note_on_c, 0, 40, 64
4, 9885, Note_on_c, 0, 40, 0
4, 9888, Note_on_c, 0, 45, 64
4, 9933, Note_on_c, 0, 45, 0
4, 9936, Note_on_c, 0, 47, 64
4, 9981, Note_on_c, 0, 47, 0
4, 9984, Note_on_c, 0, 49, 64
4, 10029, Note_on_c, 0, 49, 0
4, 10032, Note_on_c, 0, 50, 64
4, 10077, Note_on_c, 0, 50, 0
4, 10080, Note_on_c, 0, 52, 64
4, 10125, Note_on_c, 0, 52, 0
4, 10128, Note_on_c, 0, 54, 64
4, 10173, Note_on_c, 0, 54, 0
4, 10176, Note_on_c, 0, 55, 64
4, 10221, Note_on_c, 0, 55, 0
4, 10224, Note_on_c, 0, 57, 64
4, 10269, Note_on_c, 0, 57, 0
4, 10272, Note_on_c, 0, 59, 64
4, 10317, Note_on_c, 0, 59, 0
4, 10320, Note_on_c, 0, 61, 64
4, 10365, Note_on_c, 0, 61, 0
4, 10368, Note_on_c, 0, 62, 64
4, 10391, Note_on_c, 0, 62, 0
4, 10392, Note_on_c, 0, 61, 64
4, 10415, Note_on_c, 0, 61, 0
4, 10416, Note_on_c, 0, 59, 64
4, 10439, Note_on_c, 0, 59, 0
4, 10440, Note_on_c, 0, 57, 64
4, 10463, Note_on_c, 0, 57, 0
4, 10464, Note_on_c, 0, 55, 64
4, 10487, Note_on_c, 0, 55, 0
4, 10488, Note_on_c, 0, 54, 64
4, 10511, Note_on_c, 0, 54, 0
4, 10512, Note_on_c, 0, 52, 64
4, 10535, Note_on_c, 0, 52, 0
4, 10536, Note_on_c, 0, 50, 64
4, 10559, Note_on_c, 0, 50, 0
4, 10560, Note_on_c, 0, 43, 64
4, 10649, Note_on_c, 0, 43, 0
4, 10704, Note_on_c, 0, 42, 64
4, 10749, Note_on_c, 0, 42, 0
4, 10752, Note_on_c, 0, 47, 64
4, 10797, Note_on_c, 0, 47, 0
4, 10800, Note_on_c, 0, 43, 64
4, 10845, Note_on_c, 0, 43, 0
4, 10848, Note_on_c, 0, 45, 64
4, 10893, Note_on_c, 0, 45, 0
4, 10896, Note_on_c, 0, 45, 64
4, 10941, Note_on_c, 0, 45, 0
4, 10944, Note_on_c, 0, 38, 64
4, 11121, Note_on_c, 0, 38, 0
4, 11121, End_track
5, 0, Start_track
5, 0, MIDI_port, 0
5, 0, Title_t, "Sonata No. 2 en A mayor"
5, 0, End_track
6, 0, Start_track
6, 0, MIDI_port, 0
6, 0, Title_t, "para violin y clavicembalo"
6, 0, End_track
7, 0, Start_track
7, 0, MIDI_port, 0
7, 0, Title_t, "Movimiento No. 3: Andante un poco"
7, 0, End_track
8, 0, Start_track
8, 0, MIDI_port, 0
8, 0, Title_t, "J. S. Bach (1685-1750)"
8, 0, End_track
9, 0, Start_track
9, 0, MIDI_port, 0
9, 0, Title_t, "Copyright Luis Gerardo Barajas"
9, 0, End_track
10, 0, Start_track
10, 0, MIDI_port, 0
10, 0, Title_t, "*** Bach Keeps Ruling"
10, 0, End_track
0, 0, End_of_file
