0, 0, Header, 1, 10, 96
1, 0, Start_track
1, 0, Sequencer_specific, 3, 0, 0, 65
1, 0, Time_signature, 4, 2, 24, 8
1, 0, Key_signature, 1, "major"
1, 0, Tempo, 606061
1, 46202, Tempo, 674157
1, 46266, Tempo, 681818
1, 46314, Tempo, 689655
1, 46346, Tempo, 697674
1, 46426, Tempo, 705882
1, 46522, Tempo, 714286
1, 46938, Tempo, 722892
1, 46954, Tempo, 731707
1, 47018, Tempo, 740741
1, 47082, Tempo, 759494
1, 47114, Tempo, 759494
1, 47146, Tempo, 769231
1, 47162, Tempo, 779221
1, 47194, Tempo, 800000
1, 47210, Tempo, 810811
1, 47226, Tempo, 821918
1, 47242, Tempo, 845070
1, 47258, Tempo, 869565
1, 47274, Tempo, 882353
1, 47306, Tempo, 909091
1, 47322, Tempo, 923077
1, 47338, Tempo, 937500
1, 47354, Tempo, 952381
1, 47370, Tempo, 983607
1, 47402, Tempo, 1016949
1, 47418, Tempo, 1071429
1, 47434, Tempo, 1165049
1, 47450, Tempo, 1290323
1, 47466, Tempo, 1348315
1, 47482, Tempo, 1379310
1, 47498, Tempo, 1481481
1, 47514, Tempo, 1518987
1, 47530, Tempo, 1600000
1, 47546, Tempo, 1643836
1, 47562, Tempo, 1690141
1, 47578, Tempo, 1739130
1, 47594, Tempo, 1791045
1, 47610, Tempo, 1846154
1, 47626, Tempo, 1904762
1, 47642, Tempo, 1967213
1, 47674, Tempo, 2181818
1, 47706, Tempo, 2352941
1, 47722, Tempo, 2553191
1, 47738, Tempo, 2666667
1, 47754, Tempo, 2790698
1, 47786, Tempo, 2926829
1, 47802, Tempo, 3076923
1, 47834, Tempo, 3428571
1, 47866, Tempo, 3636364
1, 47898, Tempo, 4137931
1, 47914, Tempo, 6000000
1, 48106, Tempo, 681818
1, 48490, Tempo, 674157
1, 48682, Tempo, 666667
1, 48682, End_track
2, 0, Start_track
2, 0, MIDI_port, 0
2, 0, Title_t, "+*+*+*+*Cembalo Solo"
2, 0, Program_c, 0, 6
2, 0, Control_c, 0, 7, 127
2, 0, End_track
3, 0, Start_track
3, 0, MIDI_port, 0
3, 0, Title_t, "Clavier (RH)"
3, 0, Program_c, 0, 6
3, 0, Control_c, 0, 7, 127
3, 0, Note_on_c, 0, 59, 64
3, 0, Note_on_c, 0, 64, 64
3, 0, Note_on_c, 0, 67, 64
3, 45, Note_on_c, 0, 67, 0
3, 45, Note_on_c, 0, 64, 0
3, 48, Note_on_c, 0, 59, 0
3, 48, Note_on_c, 0, 69, 64
3, 93, Note_on_c, 0, 69, 0
3, 96, Note_on_c, 0, 71, 64
3, 119, Note_on_c, 0, 71, 0
3, 120, Note_on_c, 0, 69, 64
3, 143, Note_on_c, 0, 69, 0
3, 144, Note_on_c, 0, 67, 64
3, 167, Note_on_c, 0, 67, 0
3, 168, Note_on_c, 0, 69, 64
3, 191, Note_on_c, 0, 69, 0
3, 192, Note_on_c, 0, 71, 64
3, 281, Note_on_c, 0, 71, 0
3, 288, Note_on_c, 0, 60, 64
3, 288, Note_on_c, 0, 64, 64
3, 377, Note_on_c, 0, 64, 0
3, 377, Note_on_c, 0, 60, 0
3, 384, Note_on_c, 0, 60, 64
3, 384, Note_on_c, 0, 64, 64
3, 429, Note_on_c, 0, 64, 0
3, 429, Note_on_c, 0, 60, 0
3, 432, Note_on_c, 0, 63, 64
3, 455, Note_on_c, 0, 63, 0
3, 456, Note_on_c, 0, 64, 64
3, 479, Note_on_c, 0, 64, 0
3, 480, Note_on_c, 0, 66, 64
3, 503, Note_on_c, 0, 66, 0
3, 504, Note_on_c, 0, 64, 64
3, 527, Note_on_c, 0, 64, 0
3, 528, Note_on_c, 0, 63, 64
3, 551, Note_on_c, 0, 63, 0
3, 552, Note_on_c, 0, 61, 64
3, 575, Note_on_c, 0, 61, 0
3, 576, Note_on_c, 0, 59, 64
3, 621, Note_on_c, 0, 59, 0
3, 624, Note_on_c, 0, 63, 64
3, 669, Note_on_c, 0, 63, 0
3, 672, Note_on_c, 0, 66, 64
3, 717, Note_on_c, 0, 66, 0
3, 720, Note_on_c, 0, 69, 64
3, 813, Note_on_c, 0, 69, 0
3, 816, Note_on_c, 0, 67, 64
3, 839, Note_on_c, 0, 67, 0
3, 840, Note_on_c, 0, 69, 64
3, 863, Note_on_c, 0, 69, 0
3, 864, Note_on_c, 0, 71, 64
3, 887, Note_on_c, 0, 71, 0
3, 888, Note_on_c, 0, 69, 64
3, 911, Note_on_c, 0, 69, 0
3, 912, Note_on_c, 0, 67, 64
3, 935, Note_on_c, 0, 67, 0
3, 936, Note_on_c, 0, 66, 64
3, 959, Note_on_c, 0, 66, 0
3, 960, Note_on_c, 0, 64, 64
3, 1005, Note_on_c, 0, 64, 0
3, 1008, Note_on_c, 0, 67, 64
3, 1053, Note_on_c, 0, 67, 0
3, 1056, Note_on_c, 0, 71, 64
3, 1101, Note_on_c, 0, 71, 0
3, 1104, Note_on_c, 0, 76, 64
3, 1197, Note_on_c, 0, 76, 0
3, 1200, Note_on_c, 0, 75, 64
3, 1223, Note_on_c, 0, 75, 0
3, 1224, Note_on_c, 0, 76, 64
3, 1247, Note_on_c, 0, 76, 0
3, 1248, Note_on_c, 0, 78, 64
3, 1271, Note_on_c, 0, 78, 0
3, 1272, Note_on_c, 0, 76, 64
3, 1295, Note_on_c, 0, 76, 0
3, 1296, Note_on_c, 0, 75, 64
3, 1319, Note_on_c, 0, 75, 0
3, 1320, Note_on_c, 0, 73, 64
3, 1343, Note_on_c, 0, 73, 0
3, 1344, Note_on_c, 0, 71, 64
3, 1521, Note_on_c, 0, 71, 0
3, 1536, Note_on_c, 0, 79, 64
3, 1632, Note_on_c, 0, 71, 64
3, 1721, Note_on_c, 0, 71, 0
3, 1728, Note_on_c, 0, 69, 64
3, 1801, Note_on_c, 0, 79, 0
3, 1824, Note_on_c, 0, 79, 64
3, 1913, Note_on_c, 0, 79, 0
3, 1920, Note_on_c, 0, 78, 64
3, 2009, Note_on_c, 0, 69, 0
3, 2016, Note_on_c, 0, 69, 64
3, 2105, Note_on_c, 0, 69, 0
3, 2112, Note_on_c, 0, 67, 64
3, 2185, Note_on_c, 0, 78, 0
3, 2208, Note_on_c, 0, 78, 64
3, 2297, Note_on_c, 0, 78, 0
3, 2304, Note_on_c, 0, 76, 64
3, 2393, Note_on_c, 0, 67, 0
3, 2400, Note_on_c, 0, 67, 64
3, 2489, Note_on_c, 0, 67, 0
3, 2496, Note_on_c, 0, 72, 64
3, 2541, Note_on_c, 0, 76, 0
3, 2544, Note_on_c, 0, 78, 64
3, 2567, Note_on_c, 0, 78, 0
3, 2568, Note_on_c, 0, 79, 64
3, 2591, Note_on_c, 0, 79, 0
3, 2592, Note_on_c, 0, 81, 64
3, 2637, Note_on_c, 0, 81, 0
3, 2640, Note_on_c, 0, 83, 64
3, 2663, Note_on_c, 0, 83, 0
3, 2664, Note_on_c, 0, 84, 64
3, 2673, Note_on_c, 0, 72, 0
3, 2687, Note_on_c, 0, 84, 0
3, 2688, Note_on_c, 0, 72, 64
3, 2688, Note_on_c, 0, 76, 64
3, 2700, Note_on_c, 0, 76, 0
3, 2700, Note_on_c, 0, 75, 64
3, 2777, Note_on_c, 0, 72, 0
3, 2778, Note_on_c, 0, 75, 0
3, 2784, Note_on_c, 0, 71, 64
3, 2784, Note_on_c, 0, 75, 64
3, 2873, Note_on_c, 0, 75, 0
3, 2873, Note_on_c, 0, 71, 0
3, 2976, Note_on_c, 0, 75, 100
3, 3072, Note_on_c, 0, 75, 0
3, 3072, Note_on_c, 0, 76, 64
3, 3117, Note_on_c, 0, 76, 0
3, 3120, Note_on_c, 0, 71, 64
3, 3165, Note_on_c, 0, 71, 0
3, 3168, Note_on_c, 0, 78, 64
3, 3213, Note_on_c, 0, 78, 0
3, 3216, Note_on_c, 0, 71, 64
3, 3261, Note_on_c, 0, 71, 0
3, 3264, Note_on_c, 0, 79, 64
3, 3360, Note_on_c, 0, 74, 64
3, 3449, Note_on_c, 0, 74, 0
3, 3456, Note_on_c, 0, 73, 64
3, 3501, Note_on_c, 0, 73, 0
3, 3504, Note_on_c, 0, 74, 64
3, 3527, Note_on_c, 0, 74, 0
3, 3528, Note_on_c, 0, 76, 64
3, 3551, Note_on_c, 0, 76, 0
3, 3552, Note_on_c, 0, 74, 64
3, 3597, Note_on_c, 0, 74, 0
3, 3600, Note_on_c, 0, 76, 64
3, 3623, Note_on_c, 0, 76, 0
3, 3624, Note_on_c, 0, 78, 64
3, 3633, Note_on_c, 0, 79, 0
3, 3647, Note_on_c, 0, 78, 0
3, 3648, Note_on_c, 0, 76, 64
3, 3648, Note_on_c, 0, 79, 64
3, 3693, Note_on_c, 0, 79, 0
3, 3696, Note_on_c, 0, 78, 64
3, 3719, Note_on_c, 0, 78, 0
3, 3720, Note_on_c, 0, 79, 64
3, 3743, Note_on_c, 0, 79, 0
3, 3744, Note_on_c, 0, 81, 64
3, 3767, Note_on_c, 0, 81, 0
3, 3768, Note_on_c, 0, 79, 64
3, 3791, Note_on_c, 0, 79, 0
3, 3792, Note_on_c, 0, 78, 64
3, 3815, Note_on_c, 0, 78, 0
3, 3816, Note_on_c, 0, 76, 64
3, 3839, Note_on_c, 0, 76, 0
3, 3840, Note_on_c, 0, 78, 64
3, 3885, Note_on_c, 0, 78, 0
3, 3888, Note_on_c, 0, 79, 64
3, 3933, Note_on_c, 0, 79, 0
3, 3936, Note_on_c, 0, 81, 64
3, 3959, Note_on_c, 0, 81, 0
3, 3960, Note_on_c, 0, 79, 64
3, 3983, Note_on_c, 0, 79, 0
3, 3984, Note_on_c, 0, 78, 64
3, 4007, Note_on_c, 0, 78, 0
3, 4008, Note_on_c, 0, 79, 64
3, 4017, Note_on_c, 0, 76, 0
3, 4031, Note_on_c, 0, 79, 0
3, 4032, Note_on_c, 0, 76, 64
3, 4032, Note_on_c, 0, 81, 64
3, 4077, Note_on_c, 0, 76, 0
3, 4080, Note_on_c, 0, 75, 64
3, 4103, Note_on_c, 0, 75, 0
3, 4104, Note_on_c, 0, 76, 64
3, 4127, Note_on_c, 0, 76, 0
3, 4128, Note_on_c, 0, 78, 64
3, 4151, Note_on_c, 0, 78, 0
3, 4152, Note_on_c, 0, 76, 64
3, 4175, Note_on_c, 0, 76, 0
3, 4176, Note_on_c, 0, 75, 64
3, 4199, Note_on_c, 0, 75, 0
3, 4200, Note_on_c, 0, 73, 64
3, 4209, Note_on_c, 0, 81, 0
3, 4223, Note_on_c, 0, 73, 0
3, 4224, Note_on_c, 0, 75, 64
3, 4224, Note_on_c, 0, 81, 64
3, 4269, Note_on_c, 0, 75, 0
3, 4272, Note_on_c, 0, 76, 64
3, 4317, Note_on_c, 0, 76, 0
3, 4320, Note_on_c, 0, 78, 64
3, 4343, Note_on_c, 0, 78, 0
3, 4344, Note_on_c, 0, 76, 64
3, 4367, Note_on_c, 0, 76, 0
3, 4368, Note_on_c, 0, 75, 64
3, 4391, Note_on_c, 0, 75, 0
3, 4392, Note_on_c, 0, 76, 64
3, 4401, Note_on_c, 0, 81, 0
3, 4415, Note_on_c, 0, 76, 0
3, 4416, Note_on_c, 0, 78, 64
3, 4416, Note_on_c, 0, 81, 64
3, 4461, Note_on_c, 0, 81, 0
3, 4464, Note_on_c, 0, 79, 64
3, 4487, Note_on_c, 0, 79, 0
3, 4488, Note_on_c, 0, 81, 64
3, 4511, Note_on_c, 0, 81, 0
3, 4512, Note_on_c, 0, 83, 64
3, 4535, Note_on_c, 0, 83, 0
3, 4536, Note_on_c, 0, 81, 64
3, 4559, Note_on_c, 0, 81, 0
3, 4560, Note_on_c, 0, 79, 64
3, 4583, Note_on_c, 0, 79, 0
3, 4584, Note_on_c, 0, 78, 64
3, 4607, Note_on_c, 0, 78, 0
3, 4608, Note_on_c, 0, 79, 64
3, 4631, Note_on_c, 0, 78, 0
3, 4632, Note_on_c, 0, 78, 64
3, 4653, Note_on_c, 0, 79, 0
3, 4655, Note_on_c, 0, 78, 0
3, 4656, Note_on_c, 0, 76, 64
3, 4679, Note_on_c, 0, 76, 0
3, 4680, Note_on_c, 0, 75, 64
3, 4703, Note_on_c, 0, 75, 0
3, 4704, Note_on_c, 0, 76, 64
3, 4727, Note_on_c, 0, 76, 0
3, 4728, Note_on_c, 0, 74, 64
3, 4751, Note_on_c, 0, 74, 0
3, 4752, Note_on_c, 0, 73, 64
3, 4775, Note_on_c, 0, 73, 0
3, 4776, Note_on_c, 0, 71, 64
3, 4799, Note_on_c, 0, 71, 0
3, 4800, Note_on_c, 0, 74, 64
3, 4823, Note_on_c, 0, 74, 0
3, 4824, Note_on_c, 0, 73, 64
3, 4847, Note_on_c, 0, 73, 0
3, 4848, Note_on_c, 0, 71, 64
3, 4871, Note_on_c, 0, 71, 0
3, 4872, Note_on_c, 0, 69, 64
3, 4895, Note_on_c, 0, 69, 0
3, 4896, Note_on_c, 0, 81, 64
3, 4919, Note_on_c, 0, 81, 0
3, 4920, Note_on_c, 0, 79, 64
3, 4943, Note_on_c, 0, 79, 0
3, 4944, Note_on_c, 0, 78, 64
3, 4967, Note_on_c, 0, 78, 0
3, 4968, Note_on_c, 0, 76, 64
3, 4991, Note_on_c, 0, 76, 0
3, 4992, Note_on_c, 0, 78, 64
3, 5016, Note_on_c, 0, 76, 64
3, 5037, Note_on_c, 0, 78, 0
3, 5039, Note_on_c, 0, 76, 0
3, 5040, Note_on_c, 0, 74, 64
3, 5063, Note_on_c, 0, 74, 0
3, 5064, Note_on_c, 0, 73, 64
3, 5087, Note_on_c, 0, 73, 0
3, 5088, Note_on_c, 0, 74, 64
3, 5111, Note_on_c, 0, 74, 0
3, 5112, Note_on_c, 0, 72, 64
3, 5135, Note_on_c, 0, 72, 0
3, 5136, Note_on_c, 0, 71, 64
3, 5159, Note_on_c, 0, 71, 0
3, 5160, Note_on_c, 0, 69, 64
3, 5183, Note_on_c, 0, 69, 0
3, 5184, Note_on_c, 0, 72, 64
3, 5207, Note_on_c, 0, 72, 0
3, 5208, Note_on_c, 0, 71, 64
3, 5231, Note_on_c, 0, 71, 0
3, 5232, Note_on_c, 0, 69, 64
3, 5255, Note_on_c, 0, 69, 0
3, 5256, Note_on_c, 0, 67, 64
3, 5279, Note_on_c, 0, 67, 0
3, 5280, Note_on_c, 0, 79, 64
3, 5303, Note_on_c, 0, 79, 0
3, 5304, Note_on_c, 0, 78, 64
3, 5327, Note_on_c, 0, 78, 0
3, 5328, Note_on_c, 0, 76, 64
3, 5351, Note_on_c, 0, 76, 0
3, 5352, Note_on_c, 0, 74, 64
3, 5375, Note_on_c, 0, 74, 0
3, 5376, Note_on_c, 0, 76, 64
3, 5400, Note_on_c, 0, 72, 64
3, 5423, Note_on_c, 0, 72, 0
3, 5424, Note_on_c, 0, 71, 64
3, 5447, Note_on_c, 0, 71, 0
3, 5448, Note_on_c, 0, 72, 64
3, 5465, Note_on_c, 0, 76, 0
3, 5471, Note_on_c, 0, 72, 0
3, 5472, Note_on_c, 0, 74, 64
3, 5495, Note_on_c, 0, 74, 0
3, 5496, Note_on_c, 0, 72, 64
3, 5519, Note_on_c, 0, 72, 0
3, 5520, Note_on_c, 0, 71, 64
3, 5543, Note_on_c, 0, 71, 0
3, 5544, Note_on_c, 0, 72, 64
3, 5567, Note_on_c, 0, 72, 0
3, 5568, Note_on_c, 0, 78, 64
3, 5592, Note_on_c, 0, 72, 64
3, 5615, Note_on_c, 0, 72, 0
3, 5616, Note_on_c, 0, 71, 64
3, 5639, Note_on_c, 0, 71, 0
3, 5640, Note_on_c, 0, 72, 64
3, 5657, Note_on_c, 0, 78, 0
3, 5663, Note_on_c, 0, 72, 0
3, 5664, Note_on_c, 0, 74, 64
3, 5687, Note_on_c, 0, 74, 0
3, 5688, Note_on_c, 0, 72, 64
3, 5711, Note_on_c, 0, 72, 0
3, 5712, Note_on_c, 0, 71, 64
3, 5735, Note_on_c, 0, 71, 0
3, 5736, Note_on_c, 0, 72, 64
3, 5759, Note_on_c, 0, 72, 0
3, 5760, Note_on_c, 0, 79, 64
3, 5784, Note_on_c, 0, 72, 64
3, 5807, Note_on_c, 0, 72, 0
3, 5808, Note_on_c, 0, 71, 64
3, 5831, Note_on_c, 0, 71, 0
3, 5832, Note_on_c, 0, 72, 64
3, 5849, Note_on_c, 0, 79, 0
3, 5855, Note_on_c, 0, 72, 0
3, 5856, Note_on_c, 0, 74, 64
3, 5879, Note_on_c, 0, 74, 0
3, 5880, Note_on_c, 0, 72, 64
3, 5903, Note_on_c, 0, 72, 0
3, 5904, Note_on_c, 0, 71, 64
3, 5927, Note_on_c, 0, 71, 0
3, 5928, Note_on_c, 0, 72, 64
3, 5951, Note_on_c, 0, 72, 0
3, 5952, Note_on_c, 0, 81, 64
3, 5976, Note_on_c, 0, 72, 64
3, 5999, Note_on_c, 0, 72, 0
3, 6000, Note_on_c, 0, 71, 64
3, 6023, Note_on_c, 0, 71, 0
3, 6024, Note_on_c, 0, 72, 64
3, 6041, Note_on_c, 0, 81, 0
3, 6047, Note_on_c, 0, 72, 0
3, 6048, Note_on_c, 0, 74, 64
3, 6071, Note_on_c, 0, 74, 0
3, 6072, Note_on_c, 0, 72, 64
3, 6095, Note_on_c, 0, 72, 0
3, 6096, Note_on_c, 0, 71, 64
3, 6119, Note_on_c, 0, 71, 0
3, 6120, Note_on_c, 0, 69, 64
3, 6143, Note_on_c, 0, 69, 0
3, 6144, Note_on_c, 0, 74, 64
3, 6156, Note_on_c, 0, 74, 0
3, 6156, Note_on_c, 0, 76, 64
3, 6168, Note_on_c, 0, 76, 0
3, 6168, Note_on_c, 0, 74, 64
3, 6235, Note_on_c, 0, 74, 0
3, 6240, Note_on_c, 0, 67, 64
3, 6307, Note_on_c, 0, 67, 0
3, 6312, Note_on_c, 0, 69, 64
3, 6335, Note_on_c, 0, 69, 0
3, 6336, Note_on_c, 0, 72, 64
3, 6348, Note_on_c, 0, 72, 0
3, 6348, Note_on_c, 0, 74, 64
3, 6360, Note_on_c, 0, 74, 0
3, 6360, Note_on_c, 0, 72, 64
3, 6427, Note_on_c, 0, 72, 0
3, 6432, Note_on_c, 0, 67, 64
3, 6499, Note_on_c, 0, 67, 0
3, 6504, Note_on_c, 0, 72, 64
3, 6527, Note_on_c, 0, 72, 0
3, 6528, Note_on_c, 0, 74, 64
3, 6540, Note_on_c, 0, 74, 0
3, 6540, Note_on_c, 0, 76, 64
3, 6552, Note_on_c, 0, 76, 0
3, 6552, Note_on_c, 0, 74, 64
3, 6619, Note_on_c, 0, 74, 0
3, 6624, Note_on_c, 0, 67, 64
3, 6691, Note_on_c, 0, 67, 0
3, 6696, Note_on_c, 0, 74, 64
3, 6719, Note_on_c, 0, 74, 0
3, 6720, Note_on_c, 0, 76, 64
3, 6792, Note_on_c, 0, 74, 64
3, 6815, Note_on_c, 0, 74, 0
3, 6816, Note_on_c, 0, 72, 64
3, 6839, Note_on_c, 0, 72, 0
3, 6840, Note_on_c, 0, 71, 64
3, 6863, Note_on_c, 0, 71, 0
3, 6864, Note_on_c, 0, 69, 64
3, 6887, Note_on_c, 0, 69, 0
3, 6888, Note_on_c, 0, 67, 64
3, 6911, Note_on_c, 0, 67, 0
3, 6912, Note_on_c, 0, 66, 64
3, 6935, Note_on_c, 0, 76, 0
3, 6936, Note_on_c, 0, 76, 64
3, 6959, Note_on_c, 0, 76, 0
3, 6960, Note_on_c, 0, 74, 64
3, 6983, Note_on_c, 0, 74, 0
3, 6984, Note_on_c, 0, 72, 64
3, 7001, Note_on_c, 0, 66, 0
3, 7007, Note_on_c, 0, 72, 0
3, 7008, Note_on_c, 0, 59, 64
3, 7008, Note_on_c, 0, 74, 64
3, 7031, Note_on_c, 0, 74, 0
3, 7032, Note_on_c, 0, 72, 64
3, 7055, Note_on_c, 0, 72, 0
3, 7056, Note_on_c, 0, 71, 64
3, 7079, Note_on_c, 0, 71, 0
3, 7080, Note_on_c, 0, 69, 64
3, 7097, Note_on_c, 0, 59, 0
3, 7103, Note_on_c, 0, 69, 0
3, 7104, Note_on_c, 0, 64, 64
3, 7128, Note_on_c, 0, 74, 64
3, 7151, Note_on_c, 0, 74, 0
3, 7152, Note_on_c, 0, 72, 64
3, 7175, Note_on_c, 0, 72, 0
3, 7176, Note_on_c, 0, 71, 64
3, 7193, Note_on_c, 0, 64, 0
3, 7199, Note_on_c, 0, 71, 0
3, 7200, Note_on_c, 0, 57, 64
3, 7200, Note_on_c, 0, 72, 64
3, 7223, Note_on_c, 0, 72, 0
3, 7224, Note_on_c, 0, 71, 64
3, 7247, Note_on_c, 0, 71, 0
3, 7248, Note_on_c, 0, 69, 64
3, 7271, Note_on_c, 0, 69, 0
3, 7272, Note_on_c, 0, 67, 64
3, 7289, Note_on_c, 0, 57, 0
3, 7295, Note_on_c, 0, 67, 0
3, 7296, Note_on_c, 0, 62, 64
3, 7320, Note_on_c, 0, 72, 64
3, 7343, Note_on_c, 0, 72, 0
3, 7344, Note_on_c, 0, 71, 64
3, 7367, Note_on_c, 0, 71, 0
3, 7368, Note_on_c, 0, 69, 64
3, 7385, Note_on_c, 0, 62, 0
3, 7391, Note_on_c, 0, 69, 0
3, 7392, Note_on_c, 0, 55, 64
3, 7392, Note_on_c, 0, 71, 64
3, 7415, Note_on_c, 0, 71, 0
3, 7416, Note_on_c, 0, 69, 64
3, 7439, Note_on_c, 0, 69, 0
3, 7440, Note_on_c, 0, 67, 64
3, 7463, Note_on_c, 0, 67, 0
3, 7464, Note_on_c, 0, 66, 64
3, 7481, Note_on_c, 0, 55, 0
3, 7487, Note_on_c, 0, 66, 0
3, 7488, Note_on_c, 0, 61, 64
3, 7512, Note_on_c, 0, 71, 64
3, 7535, Note_on_c, 0, 71, 0
3, 7536, Note_on_c, 0, 69, 64
3, 7559, Note_on_c, 0, 69, 0
3, 7560, Note_on_c, 0, 67, 64
3, 7583, Note_on_c, 0, 67, 0
3, 7584, Note_on_c, 0, 69, 64
3, 7607, Note_on_c, 0, 69, 0
3, 7608, Note_on_c, 0, 67, 64
3, 7631, Note_on_c, 0, 67, 0
3, 7632, Note_on_c, 0, 66, 64
3, 7655, Note_on_c, 0, 66, 0
3, 7656, Note_on_c, 0, 64, 64
3, 7665, Note_on_c, 0, 61, 0
3, 7679, Note_on_c, 0, 64, 0
3, 7680, Note_on_c, 0, 62, 64
3, 7680, Note_on_c, 0, 66, 64
3, 7703, Note_on_c, 0, 66, 0
3, 7704, Note_on_c, 0, 64, 64
3, 7725, Note_on_c, 0, 62, 0
3, 7727, Note_on_c, 0, 64, 0
3, 7728, Note_on_c, 0, 62, 64
3, 7799, Note_on_c, 0, 62, 0
3, 7800, Note_on_c, 0, 64, 64
3, 7823, Note_on_c, 0, 64, 0
3, 7824, Note_on_c, 0, 66, 64
3, 7847, Note_on_c, 0, 66, 0
3, 7848, Note_on_c, 0, 67, 64
3, 7871, Note_on_c, 0, 67, 0
3, 7872, Note_on_c, 0, 69, 64
3, 7895, Note_on_c, 0, 69, 0
3, 7896, Note_on_c, 0, 67, 64
3, 7919, Note_on_c, 0, 67, 0
3, 7920, Note_on_c, 0, 66, 64
3, 7991, Note_on_c, 0, 66, 0
3, 7992, Note_on_c, 0, 67, 64
3, 8015, Note_on_c, 0, 67, 0
3, 8016, Note_on_c, 0, 69, 64
3, 8039, Note_on_c, 0, 69, 0
3, 8040, Note_on_c, 0, 71, 64
3, 8063, Note_on_c, 0, 71, 0
3, 8064, Note_on_c, 0, 72, 64
3, 8087, Note_on_c, 0, 72, 0
3, 8088, Note_on_c, 0, 71, 64
3, 8111, Note_on_c, 0, 71, 0
3, 8112, Note_on_c, 0, 69, 64
3, 8135, Note_on_c, 0, 69, 0
3, 8136, Note_on_c, 0, 71, 64
3, 8159, Note_on_c, 0, 71, 0
3, 8160, Note_on_c, 0, 72, 64
3, 8183, Note_on_c, 0, 72, 0
3, 8184, Note_on_c, 0, 74, 64
3, 8207, Note_on_c, 0, 74, 0
3, 8208, Note_on_c, 0, 76, 64
3, 8231, Note_on_c, 0, 76, 0
3, 8232, Note_on_c, 0, 78, 64
3, 8255, Note_on_c, 0, 78, 0
3, 8256, Note_on_c, 0, 79, 64
3, 8279, Note_on_c, 0, 79, 0
3, 8280, Note_on_c, 0, 78, 64
3, 8303, Note_on_c, 0, 78, 0
3, 8304, Note_on_c, 0, 81, 64
3, 8327, Note_on_c, 0, 81, 0
3, 8328, Note_on_c, 0, 79, 64
3, 8351, Note_on_c, 0, 79, 0
3, 8352, Note_on_c, 0, 78, 64
3, 8375, Note_on_c, 0, 78, 0
3, 8376, Note_on_c, 0, 76, 64
3, 8399, Note_on_c, 0, 76, 0
3, 8400, Note_on_c, 0, 74, 64
3, 8423, Note_on_c, 0, 74, 0
3, 8424, Note_on_c, 0, 72, 64
3, 8447, Note_on_c, 0, 72, 0
3, 8448, Note_on_c, 0, 71, 64
3, 8493, Note_on_c, 0, 71, 0
3, 8496, Note_on_c, 0, 72, 64
3, 8519, Note_on_c, 0, 72, 0
3, 8520, Note_on_c, 0, 74, 64
3, 8543, Note_on_c, 0, 74, 0
3, 8544, Note_on_c, 0, 72, 64
3, 8567, Note_on_c, 0, 72, 0
3, 8568, Note_on_c, 0, 71, 64
3, 8591, Note_on_c, 0, 71, 0
3, 8592, Note_on_c, 0, 69, 64
3, 8615, Note_on_c, 0, 69, 0
3, 8616, Note_on_c, 0, 67, 64
3, 8639, Note_on_c, 0, 67, 0
3, 8640, Note_on_c, 0, 71, 64
3, 8688, Note_on_c, 0, 62, 64
3, 8729, Note_on_c, 0, 71, 0
3, 8736, Note_on_c, 0, 69, 64
3, 8777, Note_on_c, 0, 62, 0
3, 8784, Note_on_c, 0, 60, 64
3, 8825, Note_on_c, 0, 69, 0
3, 8829, Note_on_c, 0, 60, 0
3, 8832, Note_on_c, 0, 59, 64
3, 8855, Note_on_c, 0, 59, 0
3, 8856, Note_on_c, 0, 67, 64
3, 8879, Note_on_c, 0, 67, 0
3, 8880, Note_on_c, 0, 66, 64
3, 8903, Note_on_c, 0, 66, 0
3, 8904, Note_on_c, 0, 64, 64
3, 8927, Note_on_c, 0, 64, 0
3, 8928, Note_on_c, 0, 62, 64
3, 8951, Note_on_c, 0, 62, 0
3, 8952, Note_on_c, 0, 60, 64
3, 8975, Note_on_c, 0, 60, 0
3, 8976, Note_on_c, 0, 59, 64
3, 8999, Note_on_c, 0, 59, 0
3, 9000, Note_on_c, 0, 57, 64
3, 9023, Note_on_c, 0, 57, 0
3, 9024, Note_on_c, 0, 55, 64
3, 9113, Note_on_c, 0, 55, 0
3, 9216, Note_on_c, 0, 64, 64
3, 9216, Note_on_c, 0, 67, 64
3, 9261, Note_on_c, 0, 67, 0
3, 9261, Note_on_c, 0, 64, 0
3, 9264, Note_on_c, 0, 69, 64
3, 9309, Note_on_c, 0, 69, 0
3, 9312, Note_on_c, 0, 71, 64
3, 9335, Note_on_c, 0, 71, 0
3, 9336, Note_on_c, 0, 69, 64
3, 9359, Note_on_c, 0, 69, 0
3, 9360, Note_on_c, 0, 67, 64
3, 9383, Note_on_c, 0, 67, 0
3, 9384, Note_on_c, 0, 69, 64
3, 9407, Note_on_c, 0, 69, 0
3, 9408, Note_on_c, 0, 71, 64
3, 9497, Note_on_c, 0, 71, 0
3, 9504, Note_on_c, 0, 60, 64
3, 9504, Note_on_c, 0, 64, 64
3, 9593, Note_on_c, 0, 64, 0
3, 9593, Note_on_c, 0, 60, 0
3, 9600, Note_on_c, 0, 60, 64
3, 9600, Note_on_c, 0, 64, 64
3, 9645, Note_on_c, 0, 64, 0
3, 9645, Note_on_c, 0, 60, 0
3, 9648, Note_on_c, 0, 63, 64
3, 9671, Note_on_c, 0, 63, 0
3, 9672, Note_on_c, 0, 64, 64
3, 9695, Note_on_c, 0, 64, 0
3, 9696, Note_on_c, 0, 66, 64
3, 9719, Note_on_c, 0, 66, 0
3, 9720, Note_on_c, 0, 64, 64
3, 9743, Note_on_c, 0, 64, 0
3, 9744, Note_on_c, 0, 63, 64
3, 9767, Note_on_c, 0, 63, 0
3, 9768, Note_on_c, 0, 61, 64
3, 9791, Note_on_c, 0, 61, 0
3, 9792, Note_on_c, 0, 59, 64
3, 9837, Note_on_c, 0, 59, 0
3, 9840, Note_on_c, 0, 63, 64
3, 9885, Note_on_c, 0, 63, 0
3, 9888, Note_on_c, 0, 66, 64
3, 9933, Note_on_c, 0, 66, 0
3, 9936, Note_on_c, 0, 69, 64
3, 10029, Note_on_c, 0, 69, 0
3, 10032, Note_on_c, 0, 67, 64
3, 10055, Note_on_c, 0, 67, 0
3, 10056, Note_on_c, 0, 69, 64
3, 10079, Note_on_c, 0, 69, 0
3, 10080, Note_on_c, 0, 71, 64
3, 10103, Note_on_c, 0, 71, 0
3, 10104, Note_on_c, 0, 69, 64
3, 10127, Note_on_c, 0, 69, 0
3, 10128, Note_on_c, 0, 67, 64
3, 10151, Note_on_c, 0, 67, 0
3, 10152, Note_on_c, 0, 66, 64
3, 10175, Note_on_c, 0, 66, 0
3, 10176, Note_on_c, 0, 64, 64
3, 10221, Note_on_c, 0, 64, 0
3, 10224, Note_on_c, 0, 67, 64
3, 10269, Note_on_c, 0, 67, 0
3, 10272, Note_on_c, 0, 71, 64
3, 10317, Note_on_c, 0, 71, 0
3, 10320, Note_on_c, 0, 76, 64
3, 10413, Note_on_c, 0, 76, 0
3, 10416, Note_on_c, 0, 75, 64
3, 10439, Note_on_c, 0, 75, 0
3, 10440, Note_on_c, 0, 76, 64
3, 10463, Note_on_c, 0, 76, 0
3, 10464, Note_on_c, 0, 78, 64
3, 10487, Note_on_c, 0, 78, 0
3, 10488, Note_on_c, 0, 76, 64
3, 10511, Note_on_c, 0, 76, 0
3, 10512, Note_on_c, 0, 75, 64
3, 10535, Note_on_c, 0, 75, 0
3, 10536, Note_on_c, 0, 73, 64
3, 10559, Note_on_c, 0, 73, 0
3, 10560, Note_on_c, 0, 71, 64
3, 10737, Note_on_c, 0, 71, 0
3, 10752, Note_on_c, 0, 79, 64
3, 10848, Note_on_c, 0, 71, 64
3, 10937, Note_on_c, 0, 71, 0
3, 10944, Note_on_c, 0, 69, 64
3, 11017, Note_on_c, 0, 79, 0
3, 11040, Note_on_c, 0, 79, 64
3, 11129, Note_on_c, 0, 79, 0
3, 11136, Note_on_c, 0, 78, 64
3, 11225, Note_on_c, 0, 69, 0
3, 11232, Note_on_c, 0, 69, 64
3, 11321, Note_on_c, 0, 69, 0
3, 11328, Note_on_c, 0, 67, 64
3, 11401, Note_on_c, 0, 78, 0
3, 11424, Note_on_c, 0, 78, 64
3, 11513, Note_on_c, 0, 78, 0
3, 11520, Note_on_c, 0, 76, 64
3, 11609, Note_on_c, 0, 67, 0
3, 11616, Note_on_c, 0, 67, 64
3, 11705, Note_on_c, 0, 67, 0
3, 11712, Note_on_c, 0, 72, 64
3, 11757, Note_on_c, 0, 76, 0
3, 11760, Note_on_c, 0, 78, 64
3, 11783, Note_on_c, 0, 78, 0
3, 11784, Note_on_c, 0, 79, 64
3, 11807, Note_on_c, 0, 79, 0
3, 11808, Note_on_c, 0, 81, 64
3, 11853, Note_on_c, 0, 81, 0
3, 11856, Note_on_c, 0, 83, 64
3, 11879, Note_on_c, 0, 83, 0
3, 11880, Note_on_c, 0, 84, 64
3, 11889, Note_on_c, 0, 72, 0
3, 11903, Note_on_c, 0, 84, 0
3, 11904, Note_on_c, 0, 72, 64
3, 11904, Note_on_c, 0, 76, 64
3, 11916, Note_on_c, 0, 76, 0
3, 11916, Note_on_c, 0, 75, 64
3, 11993, Note_on_c, 0, 72, 0
3, 11994, Note_on_c, 0, 75, 0
3, 12000, Note_on_c, 0, 71, 64
3, 12000, Note_on_c, 0, 75, 64
3, 12089, Note_on_c, 0, 75, 0
3, 12089, Note_on_c, 0, 71, 0
3, 12192, Note_on_c, 0, 75, 100
3, 12288, Note_on_c, 0, 75, 0
3, 12288, Note_on_c, 0, 76, 64
3, 12333, Note_on_c, 0, 76, 0
3, 12336, Note_on_c, 0, 71, 64
3, 12381, Note_on_c, 0, 71, 0
3, 12384, Note_on_c, 0, 78, 64
3, 12429, Note_on_c, 0, 78, 0
3, 12432, Note_on_c, 0, 71, 64
3, 12477, Note_on_c, 0, 71, 0
3, 12480, Note_on_c, 0, 79, 64
3, 12576, Note_on_c, 0, 74, 64
3, 12665, Note_on_c, 0, 74, 0
3, 12672, Note_on_c, 0, 73, 64
3, 12717, Note_on_c, 0, 73, 0
3, 12720, Note_on_c, 0, 74, 64
3, 12743, Note_on_c, 0, 74, 0
3, 12744, Note_on_c, 0, 76, 64
3, 12767, Note_on_c, 0, 76, 0
3, 12768, Note_on_c, 0, 74, 64
3, 12813, Note_on_c, 0, 74, 0
3, 12816, Note_on_c, 0, 76, 64
3, 12839, Note_on_c, 0, 76, 0
3, 12840, Note_on_c, 0, 78, 64
3, 12849, Note_on_c, 0, 79, 0
3, 12863, Note_on_c, 0, 78, 0
3, 12864, Note_on_c, 0, 76, 64
3, 12864, Note_on_c, 0, 79, 64
3, 12909, Note_on_c, 0, 79, 0
3, 12912, Note_on_c, 0, 78, 64
3, 12935, Note_on_c, 0, 78, 0
3, 12936, Note_on_c, 0, 79, 64
3, 12959, Note_on_c, 0, 79, 0
3, 12960, Note_on_c, 0, 81, 64
3, 12983, Note_on_c, 0, 81, 0
3, 12984, Note_on_c, 0, 79, 64
3, 13007, Note_on_c, 0, 79, 0
3, 13008, Note_on_c, 0, 78, 64
3, 13031, Note_on_c, 0, 78, 0
3, 13032, Note_on_c, 0, 76, 64
3, 13055, Note_on_c, 0, 76, 0
3, 13056, Note_on_c, 0, 78, 64
3, 13101, Note_on_c, 0, 78, 0
3, 13104, Note_on_c, 0, 79, 64
3, 13149, Note_on_c, 0, 79, 0
3, 13152, Note_on_c, 0, 81, 64
3, 13175, Note_on_c, 0, 81, 0
3, 13176, Note_on_c, 0, 79, 64
3, 13199, Note_on_c, 0, 79, 0
3, 13200, Note_on_c, 0, 78, 64
3, 13223, Note_on_c, 0, 78, 0
3, 13224, Note_on_c, 0, 79, 64
3, 13233, Note_on_c, 0, 76, 0
3, 13247, Note_on_c, 0, 79, 0
3, 13248, Note_on_c, 0, 76, 64
3, 13248, Note_on_c, 0, 81, 64
3, 13293, Note_on_c, 0, 76, 0
3, 13296, Note_on_c, 0, 75, 64
3, 13319, Note_on_c, 0, 75, 0
3, 13320, Note_on_c, 0, 76, 64
3, 13343, Note_on_c, 0, 76, 0
3, 13344, Note_on_c, 0, 78, 64
3, 13367, Note_on_c, 0, 78, 0
3, 13368, Note_on_c, 0, 76, 64
3, 13391, Note_on_c, 0, 76, 0
3, 13392, Note_on_c, 0, 75, 64
3, 13415, Note_on_c, 0, 75, 0
3, 13416, Note_on_c, 0, 73, 64
3, 13425, Note_on_c, 0, 81, 0
3, 13439, Note_on_c, 0, 73, 0
3, 13440, Note_on_c, 0, 75, 64
3, 13440, Note_on_c, 0, 81, 64
3, 13485, Note_on_c, 0, 75, 0
3, 13488, Note_on_c, 0, 76, 64
3, 13533, Note_on_c, 0, 76, 0
3, 13536, Note_on_c, 0, 78, 64
3, 13559, Note_on_c, 0, 78, 0
3, 13560, Note_on_c, 0, 76, 64
3, 13583, Note_on_c, 0, 76, 0
3, 13584, Note_on_c, 0, 75, 64
3, 13607, Note_on_c, 0, 75, 0
3, 13608, Note_on_c, 0, 76, 64
3, 13617, Note_on_c, 0, 81, 0
3, 13631, Note_on_c, 0, 76, 0
3, 13632, Note_on_c, 0, 78, 64
3, 13632, Note_on_c, 0, 81, 64
3, 13677, Note_on_c, 0, 81, 0
3, 13680, Note_on_c, 0, 79, 64
3, 13703, Note_on_c, 0, 79, 0
3, 13704, Note_on_c, 0, 81, 64
3, 13727, Note_on_c, 0, 81, 0
3, 13728, Note_on_c, 0, 83, 64
3, 13751, Note_on_c, 0, 83, 0
3, 13752, Note_on_c, 0, 81, 64
3, 13775, Note_on_c, 0, 81, 0
3, 13776, Note_on_c, 0, 79, 64
3, 13799, Note_on_c, 0, 79, 0
3, 13800, Note_on_c, 0, 78, 64
3, 13823, Note_on_c, 0, 78, 0
3, 13824, Note_on_c, 0, 79, 64
3, 13847, Note_on_c, 0, 78, 0
3, 13848, Note_on_c, 0, 78, 64
3, 13869, Note_on_c, 0, 79, 0
3, 13871, Note_on_c, 0, 78, 0
3, 13872, Note_on_c, 0, 76, 64
3, 13895, Note_on_c, 0, 76, 0
3, 13896, Note_on_c, 0, 75, 64
3, 13919, Note_on_c, 0, 75, 0
3, 13920, Note_on_c, 0, 76, 64
3, 13943, Note_on_c, 0, 76, 0
3, 13944, Note_on_c, 0, 74, 64
3, 13967, Note_on_c, 0, 74, 0
3, 13968, Note_on_c, 0, 73, 64
3, 13991, Note_on_c, 0, 73, 0
3, 13992, Note_on_c, 0, 71, 64
3, 14015, Note_on_c, 0, 71, 0
3, 14016, Note_on_c, 0, 74, 64
3, 14039, Note_on_c, 0, 74, 0
3, 14040, Note_on_c, 0, 73, 64
3, 14063, Note_on_c, 0, 73, 0
3, 14064, Note_on_c, 0, 71, 64
3, 14087, Note_on_c, 0, 71, 0
3, 14088, Note_on_c, 0, 69, 64
3, 14111, Note_on_c, 0, 69, 0
3, 14112, Note_on_c, 0, 81, 64
3, 14135, Note_on_c, 0, 81, 0
3, 14136, Note_on_c, 0, 79, 64
3, 14159, Note_on_c, 0, 79, 0
3, 14160, Note_on_c, 0, 78, 64
3, 14183, Note_on_c, 0, 78, 0
3, 14184, Note_on_c, 0, 76, 64
3, 14207, Note_on_c, 0, 76, 0
3, 14208, Note_on_c, 0, 78, 64
3, 14232, Note_on_c, 0, 76, 64
3, 14253, Note_on_c, 0, 78, 0
3, 14255, Note_on_c, 0, 76, 0
3, 14256, Note_on_c, 0, 74, 64
3, 14279, Note_on_c, 0, 74, 0
3, 14280, Note_on_c, 0, 73, 64
3, 14303, Note_on_c, 0, 73, 0
3, 14304, Note_on_c, 0, 74, 64
3, 14327, Note_on_c, 0, 74, 0
3, 14328, Note_on_c, 0, 72, 64
3, 14351, Note_on_c, 0, 72, 0
3, 14352, Note_on_c, 0, 71, 64
3, 14375, Note_on_c, 0, 71, 0
3, 14376, Note_on_c, 0, 69, 64
3, 14399, Note_on_c, 0, 69, 0
3, 14400, Note_on_c, 0, 72, 64
3, 14423, Note_on_c, 0, 72, 0
3, 14424, Note_on_c, 0, 71, 64
3, 14447, Note_on_c, 0, 71, 0
3, 14448, Note_on_c, 0, 69, 64
3, 14471, Note_on_c, 0, 69, 0
3, 14472, Note_on_c, 0, 67, 64
3, 14495, Note_on_c, 0, 67, 0
3, 14496, Note_on_c, 0, 79, 64
3, 14519, Note_on_c, 0, 79, 0
3, 14520, Note_on_c, 0, 78, 64
3, 14543, Note_on_c, 0, 78, 0
3, 14544, Note_on_c, 0, 76, 64
3, 14567, Note_on_c, 0, 76, 0
3, 14568, Note_on_c, 0, 74, 64
3, 14591, Note_on_c, 0, 74, 0
3, 14592, Note_on_c, 0, 76, 64
3, 14616, Note_on_c, 0, 72, 64
3, 14639, Note_on_c, 0, 72, 0
3, 14640, Note_on_c, 0, 71, 64
3, 14663, Note_on_c, 0, 71, 0
3, 14664, Note_on_c, 0, 72, 64
3, 14681, Note_on_c, 0, 76, 0
3, 14687, Note_on_c, 0, 72, 0
3, 14688, Note_on_c, 0, 74, 64
3, 14711, Note_on_c, 0, 74, 0
3, 14712, Note_on_c, 0, 72, 64
3, 14735, Note_on_c, 0, 72, 0
3, 14736, Note_on_c, 0, 71, 64
3, 14759, Note_on_c, 0, 71, 0
3, 14760, Note_on_c, 0, 72, 64
3, 14783, Note_on_c, 0, 72, 0
3, 14784, Note_on_c, 0, 78, 64
3, 14808, Note_on_c, 0, 72, 64
3, 14831, Note_on_c, 0, 72, 0
3, 14832, Note_on_c, 0, 71, 64
3, 14855, Note_on_c, 0, 71, 0
3, 14856, Note_on_c, 0, 72, 64
3, 14873, Note_on_c, 0, 78, 0
3, 14879, Note_on_c, 0, 72, 0
3, 14880, Note_on_c, 0, 74, 64
3, 14903, Note_on_c, 0, 74, 0
3, 14904, Note_on_c, 0, 72, 64
3, 14927, Note_on_c, 0, 72, 0
3, 14928, Note_on_c, 0, 71, 64
3, 14951, Note_on_c, 0, 71, 0
3, 14952, Note_on_c, 0, 72, 64
3, 14975, Note_on_c, 0, 72, 0
3, 14976, Note_on_c, 0, 79, 64
3, 15000, Note_on_c, 0, 72, 64
3, 15023, Note_on_c, 0, 72, 0
3, 15024, Note_on_c, 0, 71, 64
3, 15047, Note_on_c, 0, 71, 0
3, 15048, Note_on_c, 0, 72, 64
3, 15065, Note_on_c, 0, 79, 0
3, 15071, Note_on_c, 0, 72, 0
3, 15072, Note_on_c, 0, 74, 64
3, 15095, Note_on_c, 0, 74, 0
3, 15096, Note_on_c, 0, 72, 64
3, 15119, Note_on_c, 0, 72, 0
3, 15120, Note_on_c, 0, 71, 64
3, 15143, Note_on_c, 0, 71, 0
3, 15144, Note_on_c, 0, 72, 64
3, 15167, Note_on_c, 0, 72, 0
3, 15168, Note_on_c, 0, 81, 64
3, 15192, Note_on_c, 0, 72, 64
3, 15215, Note_on_c, 0, 72, 0
3, 15216, Note_on_c, 0, 71, 64
3, 15239, Note_on_c, 0, 71, 0
3, 15240, Note_on_c, 0, 72, 64
3, 15257, Note_on_c, 0, 81, 0
3, 15263, Note_on_c, 0, 72, 0
3, 15264, Note_on_c, 0, 74, 64
3, 15287, Note_on_c, 0, 74, 0
3, 15288, Note_on_c, 0, 72, 64
3, 15311, Note_on_c, 0, 72, 0
3, 15312, Note_on_c, 0, 71, 64
3, 15335, Note_on_c, 0, 71, 0
3, 15336, Note_on_c, 0, 69, 64
3, 15359, Note_on_c, 0, 69, 0
3, 15360, Note_on_c, 0, 74, 64
3, 15372, Note_on_c, 0, 74, 0
3, 15372, Note_on_c, 0, 76, 64
3, 15384, Note_on_c, 0, 76, 0
3, 15384, Note_on_c, 0, 74, 64
3, 15451, Note_on_c, 0, 74, 0
3, 15456, Note_on_c, 0, 67, 64
3, 15523, Note_on_c, 0, 67, 0
3, 15528, Note_on_c, 0, 69, 64
3, 15551, Note_on_c, 0, 69, 0
3, 15552, Note_on_c, 0, 72, 64
3, 15564, Note_on_c, 0, 72, 0
3, 15564, Note_on_c, 0, 74, 64
3, 15576, Note_on_c, 0, 74, 0
3, 15576, Note_on_c, 0, 72, 64
3, 15643, Note_on_c, 0, 72, 0
3, 15648, Note_on_c, 0, 67, 64
3, 15715, Note_on_c, 0, 67, 0
3, 15720, Note_on_c, 0, 72, 64
3, 15743, Note_on_c, 0, 72, 0
3, 15744, Note_on_c, 0, 74, 64
3, 15756, Note_on_c, 0, 74, 0
3, 15756, Note_on_c, 0, 76, 64
3, 15768, Note_on_c, 0, 76, 0
3, 15768, Note_on_c, 0, 74, 64
3, 15835, Note_on_c, 0, 74, 0
3, 15840, Note_on_c, 0, 67, 64
3, 15907, Note_on_c, 0, 67, 0
3, 15912, Note_on_c, 0, 74, 64
3, 15935, Note_on_c, 0, 74, 0
3, 15936, Note_on_c, 0, 76, 64
3, 16008, Note_on_c, 0, 74, 64
3, 16031, Note_on_c, 0, 74, 0
3, 16032, Note_on_c, 0, 72, 64
3, 16055, Note_on_c, 0, 72, 0
3, 16056, Note_on_c, 0, 71, 64
3, 16079, Note_on_c, 0, 71, 0
3, 16080, Note_on_c, 0, 69, 64
3, 16103, Note_on_c, 0, 69, 0
3, 16104, Note_on_c, 0, 67, 64
3, 16127, Note_on_c, 0, 67, 0
3, 16128, Note_on_c, 0, 66, 64
3, 16151, Note_on_c, 0, 76, 0
3, 16152, Note_on_c, 0, 76, 64
3, 16175, Note_on_c, 0, 76, 0
3, 16176, Note_on_c, 0, 74, 64
3, 16199, Note_on_c, 0, 74, 0
3, 16200, Note_on_c, 0, 72, 64
3, 16217, Note_on_c, 0, 66, 0
3, 16223, Note_on_c, 0, 72, 0
3, 16224, Note_on_c, 0, 59, 64
3, 16224, Note_on_c, 0, 74, 64
3, 16247, Note_on_c, 0, 74, 0
3, 16248, Note_on_c, 0, 72, 64
3, 16271, Note_on_c, 0, 72, 0
3, 16272, Note_on_c, 0, 71, 64
3, 16295, Note_on_c, 0, 71, 0
3, 16296, Note_on_c, 0, 69, 64
3, 16313, Note_on_c, 0, 59, 0
3, 16319, Note_on_c, 0, 69, 0
3, 16320, Note_on_c, 0, 64, 64
3, 16344, Note_on_c, 0, 74, 64
3, 16367, Note_on_c, 0, 74, 0
3, 16368, Note_on_c, 0, 72, 64
3, 16391, Note_on_c, 0, 72, 0
3, 16392, Note_on_c, 0, 71, 64
3, 16409, Note_on_c, 0, 64, 0
3, 16415, Note_on_c, 0, 71, 0
3, 16416, Note_on_c, 0, 57, 64
3, 16416, Note_on_c, 0, 72, 64
3, 16439, Note_on_c, 0, 72, 0
3, 16440, Note_on_c, 0, 71, 64
3, 16463, Note_on_c, 0, 71, 0
3, 16464, Note_on_c, 0, 69, 64
3, 16487, Note_on_c, 0, 69, 0
3, 16488, Note_on_c, 0, 67, 64
3, 16505, Note_on_c, 0, 57, 0
3, 16511, Note_on_c, 0, 67, 0
3, 16512, Note_on_c, 0, 62, 64
3, 16536, Note_on_c, 0, 72, 64
3, 16559, Note_on_c, 0, 72, 0
3, 16560, Note_on_c, 0, 71, 64
3, 16583, Note_on_c, 0, 71, 0
3, 16584, Note_on_c, 0, 69, 64
3, 16601, Note_on_c, 0, 62, 0
3, 16607, Note_on_c, 0, 69, 0
3, 16608, Note_on_c, 0, 55, 64
3, 16608, Note_on_c, 0, 71, 64
3, 16631, Note_on_c, 0, 71, 0
3, 16632, Note_on_c, 0, 69, 64
3, 16655, Note_on_c, 0, 69, 0
3, 16656, Note_on_c, 0, 67, 64
3, 16679, Note_on_c, 0, 67, 0
3, 16680, Note_on_c, 0, 66, 64
3, 16697, Note_on_c, 0, 55, 0
3, 16703, Note_on_c, 0, 66, 0
3, 16704, Note_on_c, 0, 61, 64
3, 16728, Note_on_c, 0, 71, 64
3, 16751, Note_on_c, 0, 71, 0
3, 16752, Note_on_c, 0, 69, 64
3, 16775, Note_on_c, 0, 69, 0
3, 16776, Note_on_c, 0, 67, 64
3, 16799, Note_on_c, 0, 67, 0
3, 16800, Note_on_c, 0, 69, 64
3, 16823, Note_on_c, 0, 69, 0
3, 16824, Note_on_c, 0, 67, 64
3, 16847, Note_on_c, 0, 67, 0
3, 16848, Note_on_c, 0, 66, 64
3, 16871, Note_on_c, 0, 66, 0
3, 16872, Note_on_c, 0, 64, 64
3, 16881, Note_on_c, 0, 61, 0
3, 16895, Note_on_c, 0, 64, 0
3, 16896, Note_on_c, 0, 62, 64
3, 16896, Note_on_c, 0, 66, 64
3, 16919, Note_on_c, 0, 66, 0
3, 16920, Note_on_c, 0, 64, 64
3, 16941, Note_on_c, 0, 62, 0
3, 16943, Note_on_c, 0, 64, 0
3, 16944, Note_on_c, 0, 62, 64
3, 17015, Note_on_c, 0, 62, 0
3, 17016, Note_on_c, 0, 64, 64
3, 17039, Note_on_c, 0, 64, 0
3, 17040, Note_on_c, 0, 66, 64
3, 17063, Note_on_c, 0, 66, 0
3, 17064, Note_on_c, 0, 67, 64
3, 17087, Note_on_c, 0, 67, 0
3, 17088, Note_on_c, 0, 69, 64
3, 17111, Note_on_c, 0, 69, 0
3, 17112, Note_on_c, 0, 67, 64
3, 17135, Note_on_c, 0, 67, 0
3, 17136, Note_on_c, 0, 66, 64
3, 17207, Note_on_c, 0, 66, 0
3, 17208, Note_on_c, 0, 67, 64
3, 17231, Note_on_c, 0, 67, 0
3, 17232, Note_on_c, 0, 69, 64
3, 17255, Note_on_c, 0, 69, 0
3, 17256, Note_on_c, 0, 71, 64
3, 17279, Note_on_c, 0, 71, 0
3, 17280, Note_on_c, 0, 72, 64
3, 17303, Note_on_c, 0, 72, 0
3, 17304, Note_on_c, 0, 71, 64
3, 17327, Note_on_c, 0, 71, 0
3, 17328, Note_on_c, 0, 69, 64
3, 17351, Note_on_c, 0, 69, 0
3, 17352, Note_on_c, 0, 71, 64
3, 17375, Note_on_c, 0, 71, 0
3, 17376, Note_on_c, 0, 72, 64
3, 17399, Note_on_c, 0, 72, 0
3, 17400, Note_on_c, 0, 74, 64
3, 17423, Note_on_c, 0, 74, 0
3, 17424, Note_on_c, 0, 76, 64
3, 17447, Note_on_c, 0, 76, 0
3, 17448, Note_on_c, 0, 78, 64
3, 17471, Note_on_c, 0, 78, 0
3, 17472, Note_on_c, 0, 79, 64
3, 17495, Note_on_c, 0, 79, 0
3, 17496, Note_on_c, 0, 78, 64
3, 17519, Note_on_c, 0, 78, 0
3, 17520, Note_on_c, 0, 81, 64
3, 17543, Note_on_c, 0, 81, 0
3, 17544, Note_on_c, 0, 79, 64
3, 17567, Note_on_c, 0, 79, 0
3, 17568, Note_on_c, 0, 78, 64
3, 17591, Note_on_c, 0, 78, 0
3, 17592, Note_on_c, 0, 76, 64
3, 17615, Note_on_c, 0, 76, 0
3, 17616, Note_on_c, 0, 74, 64
3, 17639, Note_on_c, 0, 74, 0
3, 17640, Note_on_c, 0, 72, 64
3, 17663, Note_on_c, 0, 72, 0
3, 17664, Note_on_c, 0, 71, 64
3, 17709, Note_on_c, 0, 71, 0
3, 17712, Note_on_c, 0, 72, 64
3, 17735, Note_on_c, 0, 72, 0
3, 17736, Note_on_c, 0, 74, 64
3, 17759, Note_on_c, 0, 74, 0
3, 17760, Note_on_c, 0, 72, 64
3, 17783, Note_on_c, 0, 72, 0
3, 17784, Note_on_c, 0, 71, 64
3, 17807, Note_on_c, 0, 71, 0
3, 17808, Note_on_c, 0, 69, 64
3, 17831, Note_on_c, 0, 69, 0
3, 17832, Note_on_c, 0, 67, 64
3, 17855, Note_on_c, 0, 67, 0
3, 17856, Note_on_c, 0, 71, 64
3, 17904, Note_on_c, 0, 62, 64
3, 17945, Note_on_c, 0, 71, 0
3, 17952, Note_on_c, 0, 69, 64
3, 17993, Note_on_c, 0, 62, 0
3, 18000, Note_on_c, 0, 60, 64
3, 18041, Note_on_c, 0, 69, 0
3, 18045, Note_on_c, 0, 60, 0
3, 18048, Note_on_c, 0, 59, 64
3, 18071, Note_on_c, 0, 59, 0
3, 18072, Note_on_c, 0, 67, 64
3, 18095, Note_on_c, 0, 67, 0
3, 18096, Note_on_c, 0, 66, 64
3, 18119, Note_on_c, 0, 66, 0
3, 18120, Note_on_c, 0, 64, 64
3, 18143, Note_on_c, 0, 64, 0
3, 18144, Note_on_c, 0, 62, 64
3, 18167, Note_on_c, 0, 62, 0
3, 18168, Note_on_c, 0, 60, 64
3, 18191, Note_on_c, 0, 60, 0
3, 18192, Note_on_c, 0, 59, 64
3, 18215, Note_on_c, 0, 59, 0
3, 18216, Note_on_c, 0, 57, 64
3, 18239, Note_on_c, 0, 57, 0
3, 18240, Note_on_c, 0, 55, 64
3, 18329, Note_on_c, 0, 55, 0
3, 18432, Note_on_c, 0, 62, 64
3, 18432, Note_on_c, 0, 67, 64
3, 18432, Note_on_c, 0, 67, 64
3, 18432, Note_on_c, 0, 71, 64
3, 18477, Note_on_c, 0, 71, 0
3, 18477, Note_on_c, 0, 67, 0
3, 18480, Note_on_c, 0, 67, 0
3, 18480, Note_on_c, 0, 62, 0
3, 18480, Note_on_c, 0, 72, 64
3, 18525, Note_on_c, 0, 72, 0
3, 18528, Note_on_c, 0, 74, 64
3, 18551, Note_on_c, 0, 74, 0
3, 18552, Note_on_c, 0, 72, 64
3, 18575, Note_on_c, 0, 72, 0
3, 18576, Note_on_c, 0, 71, 64
3, 18599, Note_on_c, 0, 71, 0
3, 18600, Note_on_c, 0, 72, 64
3, 18623, Note_on_c, 0, 72, 0
3, 18624, Note_on_c, 0, 74, 64
3, 18713, Note_on_c, 0, 74, 0
3, 18720, Note_on_c, 0, 76, 64
3, 18720, Note_on_c, 0, 79, 64
3, 18720, Note_on_c, 0, 69, 64
3, 18809, Note_on_c, 0, 69, 0
3, 18809, Note_on_c, 0, 79, 0
3, 18816, Note_on_c, 0, 76, 0
3, 18816, Note_on_c, 0, 76, 64
3, 18816, Note_on_c, 0, 69, 64
3, 18816, Note_on_c, 0, 69, 64
3, 18816, Note_on_c, 0, 79, 64
3, 18861, Note_on_c, 0, 79, 0
3, 18861, Note_on_c, 0, 69, 0
3, 18864, Note_on_c, 0, 69, 0
3, 18864, Note_on_c, 0, 76, 0
3, 18864, Note_on_c, 0, 78, 64
3, 18887, Note_on_c, 0, 78, 0
3, 18888, Note_on_c, 0, 79, 64
3, 18911, Note_on_c, 0, 79, 0
3, 18912, Note_on_c, 0, 81, 64
3, 18935, Note_on_c, 0, 81, 0
3, 18936, Note_on_c, 0, 79, 64
3, 18959, Note_on_c, 0, 79, 0
3, 18960, Note_on_c, 0, 78, 64
3, 18983, Note_on_c, 0, 78, 0
3, 18984, Note_on_c, 0, 76, 64
3, 19007, Note_on_c, 0, 76, 0
3, 19008, Note_on_c, 0, 74, 64
3, 19053, Note_on_c, 0, 74, 0
3, 19056, Note_on_c, 0, 83, 64
3, 19145, Note_on_c, 0, 83, 0
3, 19152, Note_on_c, 0, 74, 64
3, 19223, Note_on_c, 0, 74, 0
3, 19224, Note_on_c, 0, 71, 64
3, 19247, Note_on_c, 0, 71, 0
3, 19248, Note_on_c, 0, 72, 64
3, 19271, Note_on_c, 0, 72, 0
3, 19272, Note_on_c, 0, 74, 64
3, 19295, Note_on_c, 0, 74, 0
3, 19296, Note_on_c, 0, 76, 64
3, 19319, Note_on_c, 0, 76, 0
3, 19320, Note_on_c, 0, 74, 64
3, 19343, Note_on_c, 0, 74, 0
3, 19344, Note_on_c, 0, 72, 64
3, 19367, Note_on_c, 0, 72, 0
3, 19368, Note_on_c, 0, 74, 64
3, 19391, Note_on_c, 0, 74, 0
3, 19392, Note_on_c, 0, 76, 64
3, 19415, Note_on_c, 0, 76, 0
3, 19416, Note_on_c, 0, 72, 64
3, 19439, Note_on_c, 0, 72, 0
3, 19440, Note_on_c, 0, 71, 64
3, 19463, Note_on_c, 0, 71, 0
3, 19464, Note_on_c, 0, 69, 64
3, 19487, Note_on_c, 0, 69, 0
3, 19488, Note_on_c, 0, 81, 64
3, 19536, Note_on_c, 0, 72, 64
3, 19581, Note_on_c, 0, 72, 0
3, 19584, Note_on_c, 0, 71, 64
3, 19629, Note_on_c, 0, 71, 0
3, 19629, Note_on_c, 0, 81, 0
3, 19632, Note_on_c, 0, 80, 64
3, 19655, Note_on_c, 0, 80, 0
3, 19656, Note_on_c, 0, 81, 64
3, 19679, Note_on_c, 0, 81, 0
3, 19680, Note_on_c, 0, 83, 64
3, 19703, Note_on_c, 0, 83, 0
3, 19704, Note_on_c, 0, 81, 64
3, 19727, Note_on_c, 0, 81, 0
3, 19728, Note_on_c, 0, 80, 64
3, 19751, Note_on_c, 0, 80, 0
3, 19752, Note_on_c, 0, 78, 64
3, 19775, Note_on_c, 0, 78, 0
3, 19776, Note_on_c, 0, 76, 64
3, 19895, Note_on_c, 0, 76, 0
3, 19896, Note_on_c, 0, 74, 64
3, 19919, Note_on_c, 0, 74, 0
3, 19920, Note_on_c, 0, 72, 64
3, 19943, Note_on_c, 0, 72, 0
3, 19944, Note_on_c, 0, 71, 64
3, 19967, Note_on_c, 0, 71, 0
3, 19968, Note_on_c, 0, 72, 64
3, 19991, Note_on_c, 0, 72, 0
3, 19992, Note_on_c, 0, 76, 64
3, 20015, Note_on_c, 0, 76, 0
3, 20016, Note_on_c, 0, 74, 64
3, 20039, Note_on_c, 0, 74, 0
3, 20040, Note_on_c, 0, 72, 64
3, 20063, Note_on_c, 0, 72, 0
3, 20064, Note_on_c, 0, 74, 64
3, 20087, Note_on_c, 0, 74, 0
3, 20088, Note_on_c, 0, 72, 64
3, 20111, Note_on_c, 0, 72, 0
3, 20112, Note_on_c, 0, 71, 64
3, 20135, Note_on_c, 0, 71, 0
3, 20136, Note_on_c, 0, 69, 64
3, 20159, Note_on_c, 0, 69, 0
3, 20160, Note_on_c, 0, 81, 64
3, 20183, Note_on_c, 0, 81, 0
3, 20184, Note_on_c, 0, 79, 64
3, 20207, Note_on_c, 0, 79, 0
3, 20208, Note_on_c, 0, 77, 64
3, 20231, Note_on_c, 0, 77, 0
3, 20232, Note_on_c, 0, 76, 64
3, 20255, Note_on_c, 0, 76, 0
3, 20256, Note_on_c, 0, 74, 64
3, 20279, Note_on_c, 0, 74, 0
3, 20280, Note_on_c, 0, 72, 64
3, 20303, Note_on_c, 0, 72, 0
3, 20304, Note_on_c, 0, 71, 64
3, 20327, Note_on_c, 0, 71, 0
3, 20328, Note_on_c, 0, 69, 64
3, 20351, Note_on_c, 0, 69, 0
3, 20352, Note_on_c, 0, 71, 64
3, 20375, Note_on_c, 0, 71, 0
3, 20376, Note_on_c, 0, 74, 64
3, 20399, Note_on_c, 0, 74, 0
3, 20400, Note_on_c, 0, 72, 64
3, 20423, Note_on_c, 0, 72, 0
3, 20424, Note_on_c, 0, 71, 64
3, 20447, Note_on_c, 0, 71, 0
3, 20448, Note_on_c, 0, 72, 64
3, 20471, Note_on_c, 0, 72, 0
3, 20472, Note_on_c, 0, 71, 64
3, 20495, Note_on_c, 0, 71, 0
3, 20496, Note_on_c, 0, 69, 64
3, 20519, Note_on_c, 0, 69, 0
3, 20520, Note_on_c, 0, 67, 64
3, 20543, Note_on_c, 0, 67, 0
3, 20544, Note_on_c, 0, 79, 64
3, 20567, Note_on_c, 0, 79, 0
3, 20568, Note_on_c, 0, 77, 64
3, 20591, Note_on_c, 0, 77, 0
3, 20592, Note_on_c, 0, 76, 64
3, 20615, Note_on_c, 0, 76, 0
3, 20616, Note_on_c, 0, 74, 64
3, 20639, Note_on_c, 0, 74, 0
3, 20640, Note_on_c, 0, 72, 64
3, 20663, Note_on_c, 0, 72, 0
3, 20664, Note_on_c, 0, 71, 64
3, 20687, Note_on_c, 0, 71, 0
3, 20688, Note_on_c, 0, 69, 64
3, 20711, Note_on_c, 0, 69, 0
3, 20712, Note_on_c, 0, 68, 64
3, 20735, Note_on_c, 0, 68, 0
3, 20736, Note_on_c, 0, 69, 64
3, 20781, Note_on_c, 0, 69, 0
3, 20784, Note_on_c, 0, 74, 64
3, 20873, Note_on_c, 0, 74, 0
3, 20880, Note_on_c, 0, 72, 64
3, 20925, Note_on_c, 0, 72, 0
3, 20928, Note_on_c, 0, 71, 64
3, 20973, Note_on_c, 0, 71, 0
3, 20976, Note_on_c, 0, 77, 64
3, 21065, Note_on_c, 0, 77, 0
3, 21072, Note_on_c, 0, 69, 64
3, 21117, Note_on_c, 0, 69, 0
3, 21120, Note_on_c, 0, 68, 64
3, 21165, Note_on_c, 0, 68, 0
3, 21168, Note_on_c, 0, 71, 64
3, 21257, Note_on_c, 0, 71, 0
3, 21264, Note_on_c, 0, 65, 64
3, 21309, Note_on_c, 0, 65, 0
3, 21312, Note_on_c, 0, 67, 64
3, 21318, Note_on_c, 0, 67, 0
3, 21318, Note_on_c, 0, 65, 64
3, 21357, Note_on_c, 0, 65, 0
3, 21360, Note_on_c, 0, 64, 64
3, 21449, Note_on_c, 0, 64, 0
3, 21456, Note_on_c, 0, 62, 64
3, 21501, Note_on_c, 0, 62, 0
3, 21504, Note_on_c, 0, 62, 64
3, 21527, Note_on_c, 0, 62, 0
3, 21528, Note_on_c, 0, 59, 64
3, 21551, Note_on_c, 0, 59, 0
3, 21552, Note_on_c, 0, 60, 64
3, 21575, Note_on_c, 0, 60, 0
3, 21576, Note_on_c, 0, 62, 64
3, 21599, Note_on_c, 0, 62, 0
3, 21600, Note_on_c, 0, 64, 64
3, 21623, Note_on_c, 0, 64, 0
3, 21624, Note_on_c, 0, 65, 64
3, 21647, Note_on_c, 0, 65, 0
3, 21648, Note_on_c, 0, 67, 64
3, 21671, Note_on_c, 0, 67, 0
3, 21672, Note_on_c, 0, 69, 64
3, 21695, Note_on_c, 0, 69, 0
3, 21696, Note_on_c, 0, 61, 64
3, 21708, Note_on_c, 0, 61, 0
3, 21840, Note_on_c, 0, 59, 64
3, 21863, Note_on_c, 0, 59, 0
3, 21864, Note_on_c, 0, 61, 64
3, 21887, Note_on_c, 0, 61, 0
3, 21888, Note_on_c, 0, 62, 64
3, 21911, Note_on_c, 0, 62, 0
3, 21912, Note_on_c, 0, 61, 64
3, 21935, Note_on_c, 0, 61, 0
3, 21936, Note_on_c, 0, 62, 64
3, 21959, Note_on_c, 0, 62, 0
3, 21960, Note_on_c, 0, 64, 64
3, 21983, Note_on_c, 0, 64, 0
3, 21984, Note_on_c, 0, 65, 64
3, 22007, Note_on_c, 0, 65, 0
3, 22008, Note_on_c, 0, 67, 64
3, 22031, Note_on_c, 0, 67, 0
3, 22032, Note_on_c, 0, 69, 64
3, 22055, Note_on_c, 0, 69, 0
3, 22056, Note_on_c, 0, 71, 64
3, 22079, Note_on_c, 0, 71, 0
3, 22080, Note_on_c, 0, 72, 64
3, 22125, Note_on_c, 0, 72, 0
3, 22128, Note_on_c, 0, 63, 64
3, 22217, Note_on_c, 0, 63, 0
3, 22224, Note_on_c, 0, 64, 64
3, 22248, Note_on_c, 0, 64, 0
3, 22248, Note_on_c, 0, 66, 64
3, 22271, Note_on_c, 0, 66, 0
3, 22272, Note_on_c, 0, 64, 64
3, 22295, Note_on_c, 0, 64, 0
3, 22296, Note_on_c, 0, 74, 64
3, 22319, Note_on_c, 0, 74, 0
3, 22320, Note_on_c, 0, 72, 64
3, 22343, Note_on_c, 0, 72, 0
3, 22344, Note_on_c, 0, 71, 64
3, 22367, Note_on_c, 0, 71, 0
3, 22368, Note_on_c, 0, 76, 64
3, 22391, Note_on_c, 0, 76, 0
3, 22392, Note_on_c, 0, 72, 64
3, 22415, Note_on_c, 0, 72, 0
3, 22416, Note_on_c, 0, 71, 64
3, 22439, Note_on_c, 0, 71, 0
3, 22440, Note_on_c, 0, 69, 64
3, 22463, Note_on_c, 0, 69, 0
3, 22464, Note_on_c, 0, 72, 64
3, 22512, Note_on_c, 0, 64, 64
3, 22553, Note_on_c, 0, 72, 0
3, 22560, Note_on_c, 0, 71, 64
3, 22601, Note_on_c, 0, 64, 0
3, 22608, Note_on_c, 0, 62, 64
3, 22649, Note_on_c, 0, 71, 0
3, 22653, Note_on_c, 0, 62, 0
3, 22656, Note_on_c, 0, 60, 64
3, 22656, Note_on_c, 0, 69, 64
3, 22679, Note_on_c, 0, 69, 0
3, 22680, Note_on_c, 0, 65, 64
3, 22701, Note_on_c, 0, 60, 0
3, 22703, Note_on_c, 0, 65, 0
3, 22704, Note_on_c, 0, 64, 64
3, 22727, Note_on_c, 0, 64, 0
3, 22728, Note_on_c, 0, 62, 64
3, 22751, Note_on_c, 0, 62, 0
3, 22752, Note_on_c, 0, 64, 64
3, 22775, Note_on_c, 0, 64, 0
3, 22776, Note_on_c, 0, 62, 64
3, 22799, Note_on_c, 0, 62, 0
3, 22800, Note_on_c, 0, 60, 64
3, 22823, Note_on_c, 0, 60, 0
3, 22824, Note_on_c, 0, 59, 64
3, 22847, Note_on_c, 0, 59, 0
3, 22848, Note_on_c, 0, 57, 64
3, 22871, Note_on_c, 0, 57, 0
3, 22872, Note_on_c, 0, 60, 64
3, 22895, Note_on_c, 0, 60, 0
3, 22896, Note_on_c, 0, 64, 64
3, 22919, Note_on_c, 0, 64, 0
3, 22920, Note_on_c, 0, 69, 64
3, 22943, Note_on_c, 0, 69, 0
3, 22944, Note_on_c, 0, 72, 64
3, 23063, Note_on_c, 0, 72, 0
3, 23064, Note_on_c, 0, 62, 64
3, 23087, Note_on_c, 0, 62, 0
3, 23088, Note_on_c, 0, 66, 64
3, 23111, Note_on_c, 0, 66, 0
3, 23112, Note_on_c, 0, 69, 64
3, 23135, Note_on_c, 0, 69, 0
3, 23136, Note_on_c, 0, 72, 64
3, 23159, Note_on_c, 0, 72, 0
3, 23160, Note_on_c, 0, 69, 64
3, 23183, Note_on_c, 0, 69, 0
3, 23184, Note_on_c, 0, 72, 64
3, 23207, Note_on_c, 0, 72, 0
3, 23208, Note_on_c, 0, 78, 64
3, 23231, Note_on_c, 0, 78, 0
3, 23232, Note_on_c, 0, 81, 64
3, 23255, Note_on_c, 0, 81, 0
3, 23256, Note_on_c, 0, 79, 64
3, 23279, Note_on_c, 0, 79, 0
3, 23280, Note_on_c, 0, 78, 64
3, 23303, Note_on_c, 0, 78, 0
3, 23304, Note_on_c, 0, 76, 64
3, 23327, Note_on_c, 0, 76, 0
3, 23328, Note_on_c, 0, 74, 64
3, 23351, Note_on_c, 0, 74, 0
3, 23352, Note_on_c, 0, 72, 64
3, 23375, Note_on_c, 0, 72, 0
3, 23376, Note_on_c, 0, 71, 64
3, 23399, Note_on_c, 0, 71, 0
3, 23400, Note_on_c, 0, 69, 64
3, 23423, Note_on_c, 0, 69, 0
3, 23424, Note_on_c, 0, 72, 64
3, 23447, Note_on_c, 0, 72, 0
3, 23448, Note_on_c, 0, 71, 64
3, 23471, Note_on_c, 0, 71, 0
3, 23472, Note_on_c, 0, 69, 64
3, 23495, Note_on_c, 0, 69, 0
3, 23496, Note_on_c, 0, 67, 64
3, 23519, Note_on_c, 0, 67, 0
3, 23520, Note_on_c, 0, 71, 64
3, 23639, Note_on_c, 0, 71, 0
3, 23640, Note_on_c, 0, 69, 64
3, 23663, Note_on_c, 0, 69, 0
3, 23664, Note_on_c, 0, 71, 64
3, 23687, Note_on_c, 0, 71, 0
3, 23688, Note_on_c, 0, 73, 64
3, 23711, Note_on_c, 0, 73, 0
3, 23712, Note_on_c, 0, 75, 64
3, 23735, Note_on_c, 0, 75, 0
3, 23736, Note_on_c, 0, 76, 64
3, 23759, Note_on_c, 0, 76, 0
3, 23760, Note_on_c, 0, 78, 64
3, 23783, Note_on_c, 0, 78, 0
3, 23784, Note_on_c, 0, 79, 64
3, 23807, Note_on_c, 0, 79, 0
3, 23808, Note_on_c, 0, 81, 64
3, 23831, Note_on_c, 0, 81, 0
3, 23832, Note_on_c, 0, 83, 64
3, 23855, Note_on_c, 0, 83, 0
3, 23856, Note_on_c, 0, 81, 64
3, 23879, Note_on_c, 0, 81, 0
3, 23880, Note_on_c, 0, 79, 64
3, 23903, Note_on_c, 0, 79, 0
3, 23904, Note_on_c, 0, 81, 64
3, 23927, Note_on_c, 0, 81, 0
3, 23928, Note_on_c, 0, 79, 64
3, 23951, Note_on_c, 0, 79, 0
3, 23952, Note_on_c, 0, 78, 64
3, 23975, Note_on_c, 0, 78, 0
3, 23976, Note_on_c, 0, 76, 64
3, 23999, Note_on_c, 0, 76, 0
3, 24000, Note_on_c, 0, 75, 64
3, 24023, Note_on_c, 0, 75, 0
3, 24024, Note_on_c, 0, 76, 64
3, 24047, Note_on_c, 0, 76, 0
3, 24048, Note_on_c, 0, 75, 64
3, 24071, Note_on_c, 0, 75, 0
3, 24072, Note_on_c, 0, 73, 64
3, 24095, Note_on_c, 0, 73, 0
3, 24096, Note_on_c, 0, 75, 64
3, 24119, Note_on_c, 0, 75, 0
3, 24120, Note_on_c, 0, 73, 64
3, 24143, Note_on_c, 0, 73, 0
3, 24144, Note_on_c, 0, 71, 64
3, 24167, Note_on_c, 0, 71, 0
3, 24168, Note_on_c, 0, 69, 64
3, 24191, Note_on_c, 0, 69, 0
3, 24192, Note_on_c, 0, 67, 64
3, 24215, Note_on_c, 0, 67, 0
3, 24216, Note_on_c, 0, 69, 64
3, 24239, Note_on_c, 0, 69, 0
3, 24240, Note_on_c, 0, 67, 64
3, 24263, Note_on_c, 0, 67, 0
3, 24264, Note_on_c, 0, 66, 64
3, 24287, Note_on_c, 0, 66, 0
3, 24288, Note_on_c, 0, 67, 64
3, 24311, Note_on_c, 0, 67, 0
3, 24312, Note_on_c, 0, 66, 64
3, 24335, Note_on_c, 0, 66, 0
3, 24336, Note_on_c, 0, 64, 64
3, 24359, Note_on_c, 0, 64, 0
3, 24360, Note_on_c, 0, 63, 64
3, 24383, Note_on_c, 0, 63, 0
3, 24384, Note_on_c, 0, 64, 64
3, 24429, Note_on_c, 0, 64, 0
3, 24432, Note_on_c, 0, 76, 64
3, 24521, Note_on_c, 0, 76, 0
3, 24528, Note_on_c, 0, 74, 64
3, 24573, Note_on_c, 0, 74, 0
3, 24576, Note_on_c, 0, 72, 64
3, 24599, Note_on_c, 0, 72, 0
3, 24600, Note_on_c, 0, 69, 64
3, 24623, Note_on_c, 0, 69, 0
3, 24624, Note_on_c, 0, 67, 64
3, 24647, Note_on_c, 0, 67, 0
3, 24648, Note_on_c, 0, 66, 64
3, 24671, Note_on_c, 0, 66, 0
3, 24672, Note_on_c, 0, 67, 64
3, 24695, Note_on_c, 0, 67, 0
3, 24696, Note_on_c, 0, 66, 64
3, 24719, Note_on_c, 0, 66, 0
3, 24720, Note_on_c, 0, 64, 64
3, 24743, Note_on_c, 0, 64, 0
3, 24744, Note_on_c, 0, 62, 64
3, 24767, Note_on_c, 0, 62, 0
3, 24768, Note_on_c, 0, 71, 64
3, 24791, Note_on_c, 0, 71, 0
3, 24792, Note_on_c, 0, 67, 64
3, 24815, Note_on_c, 0, 67, 0
3, 24816, Note_on_c, 0, 66, 64
3, 24839, Note_on_c, 0, 66, 0
3, 24840, Note_on_c, 0, 64, 64
3, 24863, Note_on_c, 0, 64, 0
3, 24864, Note_on_c, 0, 66, 64
3, 24887, Note_on_c, 0, 66, 0
3, 24888, Note_on_c, 0, 64, 64
3, 24911, Note_on_c, 0, 64, 0
3, 24912, Note_on_c, 0, 62, 64
3, 24935, Note_on_c, 0, 62, 0
3, 24936, Note_on_c, 0, 60, 64
3, 24959, Note_on_c, 0, 60, 0
3, 24960, Note_on_c, 0, 69, 64
3, 24983, Note_on_c, 0, 69, 0
3, 24984, Note_on_c, 0, 66, 64
3, 25007, Note_on_c, 0, 66, 0
3, 25008, Note_on_c, 0, 64, 64
3, 25031, Note_on_c, 0, 64, 0
3, 25032, Note_on_c, 0, 63, 64
3, 25055, Note_on_c, 0, 63, 0
3, 25056, Note_on_c, 0, 64, 64
3, 25079, Note_on_c, 0, 64, 0
3, 25080, Note_on_c, 0, 63, 64
3, 25103, Note_on_c, 0, 63, 0
3, 25104, Note_on_c, 0, 61, 64
3, 25127, Note_on_c, 0, 61, 0
3, 25128, Note_on_c, 0, 59, 64
3, 25151, Note_on_c, 0, 59, 0
3, 25152, Note_on_c, 0, 67, 64
3, 25367, Note_on_c, 0, 67, 0
3, 25368, Note_on_c, 0, 64, 64
3, 25391, Note_on_c, 0, 64, 0
3, 25392, Note_on_c, 0, 63, 64
3, 25415, Note_on_c, 0, 63, 0
3, 25416, Note_on_c, 0, 64, 64
3, 25439, Note_on_c, 0, 64, 0
3, 25440, Note_on_c, 0, 66, 64
3, 25463, Note_on_c, 0, 66, 0
3, 25464, Note_on_c, 0, 67, 64
3, 25487, Note_on_c, 0, 67, 0
3, 25488, Note_on_c, 0, 69, 64
3, 25511, Note_on_c, 0, 69, 0
3, 25512, Note_on_c, 0, 71, 64
3, 25535, Note_on_c, 0, 71, 0
3, 25536, Note_on_c, 0, 72, 64
3, 25559, Note_on_c, 0, 72, 0
3, 25560, Note_on_c, 0, 71, 64
3, 25583, Note_on_c, 0, 71, 0
3, 25584, Note_on_c, 0, 69, 64
3, 25607, Note_on_c, 0, 69, 0
3, 25608, Note_on_c, 0, 67, 64
3, 25631, Note_on_c, 0, 67, 0
3, 25632, Note_on_c, 0, 66, 64
3, 25677, Note_on_c, 0, 66, 0
3, 25680, Note_on_c, 0, 64, 64
3, 25751, Note_on_c, 0, 64, 0
3, 25752, Note_on_c, 0, 72, 64
3, 25775, Note_on_c, 0, 72, 0
3, 25776, Note_on_c, 0, 71, 64
3, 25799, Note_on_c, 0, 71, 0
3, 25800, Note_on_c, 0, 70, 64
3, 25823, Note_on_c, 0, 70, 0
3, 25824, Note_on_c, 0, 71, 64
3, 25847, Note_on_c, 0, 71, 0
3, 25848, Note_on_c, 0, 67, 64
3, 25871, Note_on_c, 0, 67, 0
3, 25872, Note_on_c, 0, 66, 64
3, 25895, Note_on_c, 0, 66, 0
3, 25896, Note_on_c, 0, 64, 64
3, 25919, Note_on_c, 0, 64, 0
3, 25920, Note_on_c, 0, 63, 64
3, 25943, Note_on_c, 0, 63, 0
3, 25944, Note_on_c, 0, 61, 64
3, 25967, Note_on_c, 0, 61, 0
3, 25968, Note_on_c, 0, 59, 64
3, 26013, Note_on_c, 0, 59, 0
3, 26016, Note_on_c, 0, 59, 64
3, 26039, Note_on_c, 0, 59, 0
3, 26112, Note_on_c, 0, 55, 64
3, 26157, Note_on_c, 0, 55, 0
3, 26160, Note_on_c, 0, 57, 64
3, 26205, Note_on_c, 0, 57, 0
3, 26208, Note_on_c, 0, 59, 64
3, 26231, Note_on_c, 0, 59, 0
3, 26232, Note_on_c, 0, 57, 64
3, 26255, Note_on_c, 0, 57, 0
3, 26256, Note_on_c, 0, 55, 64
3, 26279, Note_on_c, 0, 55, 0
3, 26280, Note_on_c, 0, 57, 64
3, 26303, Note_on_c, 0, 57, 0
3, 26304, Note_on_c, 0, 59, 64
3, 26349, Note_on_c, 0, 59, 0
3, 26352, Note_on_c, 0, 52, 64
3, 26397, Note_on_c, 0, 52, 0
3, 26400, Note_on_c, 0, 64, 64
3, 26541, Note_on_c, 0, 64, 0
3, 26544, Note_on_c, 0, 63, 64
3, 26567, Note_on_c, 0, 63, 0
3, 26568, Note_on_c, 0, 64, 64
3, 26591, Note_on_c, 0, 64, 0
3, 26592, Note_on_c, 0, 66, 64
3, 26615, Note_on_c, 0, 66, 0
3, 26616, Note_on_c, 0, 64, 64
3, 26639, Note_on_c, 0, 64, 0
3, 26640, Note_on_c, 0, 63, 64
3, 26663, Note_on_c, 0, 63, 0
3, 26664, Note_on_c, 0, 61, 64
3, 26687, Note_on_c, 0, 61, 0
3, 26688, Note_on_c, 0, 59, 64
3, 26733, Note_on_c, 0, 59, 0
3, 26736, Note_on_c, 0, 63, 64
3, 26781, Note_on_c, 0, 63, 0
3, 26784, Note_on_c, 0, 66, 64
3, 26829, Note_on_c, 0, 66, 0
3, 26832, Note_on_c, 0, 69, 64
3, 26925, Note_on_c, 0, 69, 0
3, 26928, Note_on_c, 0, 67, 64
3, 26951, Note_on_c, 0, 67, 0
3, 26952, Note_on_c, 0, 69, 64
3, 26975, Note_on_c, 0, 69, 0
3, 26976, Note_on_c, 0, 71, 64
3, 26999, Note_on_c, 0, 71, 0
3, 27000, Note_on_c, 0, 69, 64
3, 27023, Note_on_c, 0, 69, 0
3, 27024, Note_on_c, 0, 67, 64
3, 27047, Note_on_c, 0, 67, 0
3, 27048, Note_on_c, 0, 66, 64
3, 27071, Note_on_c, 0, 66, 0
3, 27072, Note_on_c, 0, 64, 64
3, 27117, Note_on_c, 0, 64, 0
3, 27120, Note_on_c, 0, 67, 64
3, 27165, Note_on_c, 0, 67, 0
3, 27168, Note_on_c, 0, 71, 64
3, 27213, Note_on_c, 0, 71, 0
3, 27216, Note_on_c, 0, 76, 64
3, 27309, Note_on_c, 0, 76, 0
3, 27312, Note_on_c, 0, 75, 64
3, 27335, Note_on_c, 0, 75, 0
3, 27336, Note_on_c, 0, 76, 64
3, 27359, Note_on_c, 0, 76, 0
3, 27360, Note_on_c, 0, 78, 64
3, 27383, Note_on_c, 0, 78, 0
3, 27384, Note_on_c, 0, 76, 64
3, 27407, Note_on_c, 0, 76, 0
3, 27408, Note_on_c, 0, 75, 64
3, 27431, Note_on_c, 0, 75, 0
3, 27432, Note_on_c, 0, 73, 64
3, 27455, Note_on_c, 0, 73, 0
3, 27456, Note_on_c, 0, 71, 64
3, 27633, Note_on_c, 0, 71, 0
3, 27648, Note_on_c, 0, 79, 64
3, 27744, Note_on_c, 0, 71, 64
3, 27833, Note_on_c, 0, 71, 0
3, 27840, Note_on_c, 0, 69, 64
3, 27913, Note_on_c, 0, 79, 0
3, 27936, Note_on_c, 0, 79, 64
3, 28025, Note_on_c, 0, 79, 0
3, 28032, Note_on_c, 0, 78, 64
3, 28121, Note_on_c, 0, 69, 0
3, 28128, Note_on_c, 0, 69, 64
3, 28217, Note_on_c, 0, 69, 0
3, 28224, Note_on_c, 0, 67, 64
3, 28297, Note_on_c, 0, 78, 0
3, 28320, Note_on_c, 0, 77, 64
3, 28409, Note_on_c, 0, 77, 0
3, 28416, Note_on_c, 0, 77, 64
3, 28439, Note_on_c, 0, 77, 0
3, 28440, Note_on_c, 0, 76, 64
3, 28461, Note_on_c, 0, 67, 0
3, 28463, Note_on_c, 0, 76, 0
3, 28464, Note_on_c, 0, 74, 64
3, 28487, Note_on_c, 0, 74, 0
3, 28488, Note_on_c, 0, 72, 64
3, 28511, Note_on_c, 0, 72, 0
3, 28512, Note_on_c, 0, 74, 64
3, 28535, Note_on_c, 0, 74, 0
3, 28536, Note_on_c, 0, 72, 64
3, 28559, Note_on_c, 0, 72, 0
3, 28560, Note_on_c, 0, 71, 64
3, 28583, Note_on_c, 0, 71, 0
3, 28584, Note_on_c, 0, 69, 64
3, 28607, Note_on_c, 0, 69, 0
3, 28608, Note_on_c, 0, 68, 64
3, 28631, Note_on_c, 0, 68, 0
3, 28632, Note_on_c, 0, 77, 64
3, 28655, Note_on_c, 0, 77, 0
3, 28656, Note_on_c, 0, 76, 64
3, 28679, Note_on_c, 0, 76, 0
3, 28680, Note_on_c, 0, 74, 64
3, 28703, Note_on_c, 0, 74, 0
3, 28704, Note_on_c, 0, 76, 64
3, 28727, Note_on_c, 0, 76, 0
3, 28728, Note_on_c, 0, 74, 64
3, 28751, Note_on_c, 0, 74, 0
3, 28752, Note_on_c, 0, 72, 64
3, 28775, Note_on_c, 0, 72, 0
3, 28776, Note_on_c, 0, 71, 64
3, 28799, Note_on_c, 0, 71, 0
3, 28800, Note_on_c, 0, 72, 64
3, 28823, Note_on_c, 0, 72, 0
3, 28824, Note_on_c, 0, 71, 64
3, 28847, Note_on_c, 0, 71, 0
3, 28848, Note_on_c, 0, 69, 64
3, 28871, Note_on_c, 0, 69, 0
3, 28872, Note_on_c, 0, 67, 64
3, 28895, Note_on_c, 0, 67, 0
3, 28896, Note_on_c, 0, 69, 64
3, 28919, Note_on_c, 0, 69, 0
3, 28920, Note_on_c, 0, 67, 64
3, 28943, Note_on_c, 0, 67, 0
3, 28944, Note_on_c, 0, 66, 64
3, 28967, Note_on_c, 0, 66, 0
3, 28968, Note_on_c, 0, 64, 64
3, 28991, Note_on_c, 0, 64, 0
3, 28992, Note_on_c, 0, 63, 64
3, 29015, Note_on_c, 0, 63, 0
3, 29016, Note_on_c, 0, 72, 64
3, 29039, Note_on_c, 0, 72, 0
3, 29040, Note_on_c, 0, 71, 64
3, 29063, Note_on_c, 0, 71, 0
3, 29064, Note_on_c, 0, 69, 64
3, 29087, Note_on_c, 0, 69, 0
3, 29088, Note_on_c, 0, 71, 64
3, 29111, Note_on_c, 0, 71, 0
3, 29112, Note_on_c, 0, 69, 64
3, 29135, Note_on_c, 0, 69, 0
3, 29136, Note_on_c, 0, 67, 64
3, 29159, Note_on_c, 0, 67, 0
3, 29160, Note_on_c, 0, 66, 64
3, 29183, Note_on_c, 0, 66, 0
3, 29184, Note_on_c, 0, 67, 64
3, 29207, Note_on_c, 0, 67, 0
3, 29208, Note_on_c, 0, 66, 64
3, 29231, Note_on_c, 0, 66, 0
3, 29232, Note_on_c, 0, 64, 64
3, 29255, Note_on_c, 0, 64, 0
3, 29256, Note_on_c, 0, 62, 64
3, 29279, Note_on_c, 0, 62, 0
3, 29280, Note_on_c, 0, 64, 64
3, 29303, Note_on_c, 0, 64, 0
3, 29304, Note_on_c, 0, 62, 64
3, 29327, Note_on_c, 0, 62, 0
3, 29328, Note_on_c, 0, 61, 64
3, 29351, Note_on_c, 0, 61, 0
3, 29352, Note_on_c, 0, 59, 64
3, 29375, Note_on_c, 0, 59, 0
3, 29376, Note_on_c, 0, 58, 64
3, 29399, Note_on_c, 0, 58, 0
3, 29400, Note_on_c, 0, 67, 64
3, 29423, Note_on_c, 0, 67, 0
3, 29424, Note_on_c, 0, 66, 64
3, 29447, Note_on_c, 0, 66, 0
3, 29448, Note_on_c, 0, 64, 64
3, 29471, Note_on_c, 0, 64, 0
3, 29472, Note_on_c, 0, 66, 64
3, 29495, Note_on_c, 0, 66, 0
3, 29496, Note_on_c, 0, 64, 64
3, 29519, Note_on_c, 0, 64, 0
3, 29520, Note_on_c, 0, 63, 64
3, 29543, Note_on_c, 0, 63, 0
3, 29544, Note_on_c, 0, 61, 64
3, 29567, Note_on_c, 0, 61, 0
3, 29568, Note_on_c, 0, 63, 64
3, 29783, Note_on_c, 0, 63, 0
3, 29784, Note_on_c, 0, 71, 64
3, 29807, Note_on_c, 0, 71, 0
3, 29808, Note_on_c, 0, 69, 64
3, 29831, Note_on_c, 0, 69, 0
3, 29832, Note_on_c, 0, 67, 64
3, 29855, Note_on_c, 0, 67, 0
3, 29856, Note_on_c, 0, 69, 64
3, 29879, Note_on_c, 0, 69, 0
3, 29880, Note_on_c, 0, 67, 64
3, 29903, Note_on_c, 0, 67, 0
3, 29904, Note_on_c, 0, 66, 64
3, 29927, Note_on_c, 0, 66, 0
3, 29928, Note_on_c, 0, 64, 64
3, 29951, Note_on_c, 0, 64, 0
3, 29952, Note_on_c, 0, 69, 64
3, 29952, Note_on_c, 0, 72, 64
3, 30041, Note_on_c, 0, 72, 0
3, 30041, Note_on_c, 0, 69, 0
3, 30048, Note_on_c, 0, 81, 64
3, 30144, Note_on_c, 0, 71, 64
3, 30167, Note_on_c, 0, 81, 0
3, 30168, Note_on_c, 0, 78, 64
3, 30191, Note_on_c, 0, 78, 0
3, 30192, Note_on_c, 0, 80, 64
3, 30215, Note_on_c, 0, 80, 0
3, 30216, Note_on_c, 0, 81, 64
3, 30233, Note_on_c, 0, 71, 0
3, 30239, Note_on_c, 0, 81, 0
3, 30240, Note_on_c, 0, 83, 64
3, 30263, Note_on_c, 0, 83, 0
3, 30264, Note_on_c, 0, 81, 64
3, 30287, Note_on_c, 0, 81, 0
3, 30288, Note_on_c, 0, 80, 64
3, 30311, Note_on_c, 0, 80, 0
3, 30312, Note_on_c, 0, 81, 64
3, 30335, Note_on_c, 0, 81, 0
3, 30336, Note_on_c, 0, 83, 64
3, 30381, Note_on_c, 0, 83, 0
3, 30384, Note_on_c, 0, 74, 64
3, 30473, Note_on_c, 0, 74, 0
3, 30480, Note_on_c, 0, 73, 64
3, 30525, Note_on_c, 0, 73, 0
3, 30528, Note_on_c, 0, 72, 64
3, 30551, Note_on_c, 0, 72, 0
3, 30552, Note_on_c, 0, 76, 64
3, 30575, Note_on_c, 0, 76, 0
3, 30576, Note_on_c, 0, 78, 64
3, 30599, Note_on_c, 0, 78, 0
3, 30600, Note_on_c, 0, 79, 64
3, 30623, Note_on_c, 0, 79, 0
3, 30624, Note_on_c, 0, 78, 64
3, 30647, Note_on_c, 0, 78, 0
3, 30648, Note_on_c, 0, 76, 64
3, 30671, Note_on_c, 0, 76, 0
3, 30672, Note_on_c, 0, 75, 64
3, 30695, Note_on_c, 0, 75, 0
3, 30696, Note_on_c, 0, 76, 64
3, 30719, Note_on_c, 0, 76, 0
3, 30720, Note_on_c, 0, 78, 64
3, 30765, Note_on_c, 0, 78, 0
3, 30768, Note_on_c, 0, 69, 64
3, 30857, Note_on_c, 0, 69, 0
3, 30864, Note_on_c, 0, 68, 64
3, 30909, Note_on_c, 0, 68, 0
3, 30912, Note_on_c, 0, 67, 64
3, 30935, Note_on_c, 0, 67, 0
3, 30936, Note_on_c, 0, 71, 64
3, 30959, Note_on_c, 0, 71, 0
3, 30960, Note_on_c, 0, 72, 64
3, 30983, Note_on_c, 0, 72, 0
3, 30984, Note_on_c, 0, 74, 64
3, 31007, Note_on_c, 0, 74, 0
3, 31008, Note_on_c, 0, 72, 64
3, 31031, Note_on_c, 0, 72, 0
3, 31032, Note_on_c, 0, 71, 64
3, 31055, Note_on_c, 0, 71, 0
3, 31056, Note_on_c, 0, 69, 64
3, 31079, Note_on_c, 0, 69, 0
3, 31080, Note_on_c, 0, 71, 64
3, 31103, Note_on_c, 0, 71, 0
3, 31104, Note_on_c, 0, 72, 64
3, 31149, Note_on_c, 0, 72, 0
3, 31152, Note_on_c, 0, 77, 64
3, 31241, Note_on_c, 0, 77, 0
3, 31248, Note_on_c, 0, 76, 64
3, 31293, Note_on_c, 0, 76, 0
3, 31296, Note_on_c, 0, 75, 64
3, 31319, Note_on_c, 0, 75, 0
3, 31320, Note_on_c, 0, 84, 64
3, 31343, Note_on_c, 0, 84, 0
3, 31344, Note_on_c, 0, 83, 64
3, 31367, Note_on_c, 0, 83, 0
3, 31368, Note_on_c, 0, 81, 64
3, 31391, Note_on_c, 0, 81, 0
3, 31392, Note_on_c, 0, 83, 64
3, 31415, Note_on_c, 0, 83, 0
3, 31416, Note_on_c, 0, 81, 64
3, 31439, Note_on_c, 0, 81, 0
3, 31440, Note_on_c, 0, 79, 64
3, 31463, Note_on_c, 0, 79, 0
3, 31464, Note_on_c, 0, 78, 64
3, 31487, Note_on_c, 0, 78, 0
3, 31488, Note_on_c, 0, 79, 64
3, 31511, Note_on_c, 0, 79, 0
3, 31512, Note_on_c, 0, 76, 64
3, 31535, Note_on_c, 0, 76, 0
3, 31536, Note_on_c, 0, 75, 64
3, 31559, Note_on_c, 0, 75, 0
3, 31560, Note_on_c, 0, 76, 64
3, 31583, Note_on_c, 0, 76, 0
3, 31584, Note_on_c, 0, 78, 64
3, 31607, Note_on_c, 0, 78, 0
3, 31608, Note_on_c, 0, 74, 64
3, 31631, Note_on_c, 0, 74, 0
3, 31632, Note_on_c, 0, 73, 64
3, 31655, Note_on_c, 0, 73, 0
3, 31656, Note_on_c, 0, 74, 64
3, 31679, Note_on_c, 0, 74, 0
3, 31680, Note_on_c, 0, 76, 64
3, 31703, Note_on_c, 0, 76, 0
3, 31704, Note_on_c, 0, 72, 64
3, 31727, Note_on_c, 0, 72, 0
3, 31728, Note_on_c, 0, 71, 64
3, 31751, Note_on_c, 0, 71, 0
3, 31752, Note_on_c, 0, 72, 64
3, 31775, Note_on_c, 0, 72, 0
3, 31776, Note_on_c, 0, 76, 64
3, 31799, Note_on_c, 0, 76, 0
3, 31800, Note_on_c, 0, 71, 64
3, 31823, Note_on_c, 0, 71, 0
3, 31824, Note_on_c, 0, 70, 64
3, 31847, Note_on_c, 0, 70, 0
3, 31848, Note_on_c, 0, 71, 64
3, 31871, Note_on_c, 0, 71, 0
3, 31872, Note_on_c, 0, 76, 64
3, 31991, Note_on_c, 0, 76, 0
3, 31992, Note_on_c, 0, 73, 64
3, 32015, Note_on_c, 0, 73, 0
3, 32016, Note_on_c, 0, 75, 64
3, 32039, Note_on_c, 0, 75, 0
3, 32040, Note_on_c, 0, 76, 64
3, 32063, Note_on_c, 0, 76, 0
3, 32064, Note_on_c, 0, 75, 64
3, 32087, Note_on_c, 0, 75, 0
3, 32088, Note_on_c, 0, 78, 64
3, 32111, Note_on_c, 0, 78, 0
3, 32112, Note_on_c, 0, 76, 64
3, 32135, Note_on_c, 0, 76, 0
3, 32136, Note_on_c, 0, 75, 64
3, 32159, Note_on_c, 0, 75, 0
3, 32160, Note_on_c, 0, 76, 64
3, 32183, Note_on_c, 0, 76, 0
3, 32184, Note_on_c, 0, 74, 64
3, 32207, Note_on_c, 0, 74, 0
3, 32208, Note_on_c, 0, 72, 64
3, 32231, Note_on_c, 0, 72, 0
3, 32232, Note_on_c, 0, 71, 64
3, 32255, Note_on_c, 0, 71, 0
3, 32256, Note_on_c, 0, 49, 100
3, 32256, Note_on_c, 0, 70, 64
3, 32279, Note_on_c, 0, 70, 0
3, 32280, Note_on_c, 0, 67, 64
3, 32303, Note_on_c, 0, 67, 0
3, 32304, Note_on_c, 0, 66, 64
3, 32327, Note_on_c, 0, 66, 0
3, 32328, Note_on_c, 0, 64, 64
3, 32351, Note_on_c, 0, 64, 0
3, 32352, Note_on_c, 0, 49, 0
3, 32352, Note_on_c, 0, 48, 100
3, 32352, Note_on_c, 0, 69, 64
3, 32375, Note_on_c, 0, 69, 0
3, 32376, Note_on_c, 0, 66, 64
3, 32399, Note_on_c, 0, 66, 0
3, 32400, Note_on_c, 0, 64, 64
3, 32423, Note_on_c, 0, 64, 0
3, 32424, Note_on_c, 0, 63, 64
3, 32447, Note_on_c, 0, 63, 0
3, 32448, Note_on_c, 0, 48, 0
3, 32448, Note_on_c, 0, 64, 64
3, 32448, Note_on_c, 0, 67, 64
3, 32537, Note_on_c, 0, 67, 0
3, 32537, Note_on_c, 0, 64, 0
3, 32544, Note_on_c, 0, 63, 64
3, 32544, Note_on_c, 0, 66, 64
3, 32633, Note_on_c, 0, 66, 0
3, 32633, Note_on_c, 0, 63, 0
3, 32640, Note_on_c, 0, 52, 100
3, 32640, Note_on_c, 0, 64, 64
3, 32685, Note_on_c, 0, 64, 0
3, 32688, Note_on_c, 0, 66, 64
3, 32711, Note_on_c, 0, 66, 0
3, 32712, Note_on_c, 0, 67, 64
3, 32735, Note_on_c, 0, 67, 0
3, 32736, Note_on_c, 0, 69, 64
3, 32759, Note_on_c, 0, 69, 0
3, 32760, Note_on_c, 0, 71, 64
3, 32783, Note_on_c, 0, 71, 0
3, 32784, Note_on_c, 0, 73, 64
3, 32807, Note_on_c, 0, 73, 0
3, 32808, Note_on_c, 0, 75, 64
3, 32831, Note_on_c, 0, 75, 0
3, 32832, Note_on_c, 0, 52, 0
3, 32832, Note_on_c, 0, 76, 64
3, 33009, Note_on_c, 0, 76, 0
3, 33024, Note_on_c, 0, 67, 64
3, 33024, Note_on_c, 0, 71, 64
3, 33069, Note_on_c, 0, 71, 0
3, 33069, Note_on_c, 0, 67, 0
3, 33072, Note_on_c, 0, 72, 64
3, 33117, Note_on_c, 0, 72, 0
3, 33120, Note_on_c, 0, 74, 64
3, 33143, Note_on_c, 0, 74, 0
3, 33144, Note_on_c, 0, 72, 64
3, 33167, Note_on_c, 0, 72, 0
3, 33168, Note_on_c, 0, 71, 64
3, 33191, Note_on_c, 0, 71, 0
3, 33192, Note_on_c, 0, 72, 64
3, 33215, Note_on_c, 0, 72, 0
3, 33216, Note_on_c, 0, 74, 64
3, 33305, Note_on_c, 0, 74, 0
3, 33312, Note_on_c, 0, 69, 64
3, 33312, Note_on_c, 0, 79, 64
3, 33401, Note_on_c, 0, 79, 0
3, 33401, Note_on_c, 0, 69, 0
3, 33408, Note_on_c, 0, 69, 64
3, 33408, Note_on_c, 0, 79, 64
3, 33453, Note_on_c, 0, 79, 0
3, 33453, Note_on_c, 0, 69, 0
3, 33456, Note_on_c, 0, 78, 64
3, 33479, Note_on_c, 0, 78, 0
3, 33480, Note_on_c, 0, 79, 64
3, 33503, Note_on_c, 0, 79, 0
3, 33504, Note_on_c, 0, 81, 64
3, 33527, Note_on_c, 0, 81, 0
3, 33528, Note_on_c, 0, 79, 64
3, 33551, Note_on_c, 0, 79, 0
3, 33552, Note_on_c, 0, 78, 64
3, 33575, Note_on_c, 0, 78, 0
3, 33576, Note_on_c, 0, 76, 64
3, 33599, Note_on_c, 0, 76, 0
3, 33600, Note_on_c, 0, 74, 64
3, 33645, Note_on_c, 0, 74, 0
3, 33648, Note_on_c, 0, 83, 64
3, 33737, Note_on_c, 0, 83, 0
3, 33744, Note_on_c, 0, 74, 64
3, 33815, Note_on_c, 0, 74, 0
3, 33816, Note_on_c, 0, 71, 64
3, 33839, Note_on_c, 0, 71, 0
3, 33840, Note_on_c, 0, 72, 64
3, 33863, Note_on_c, 0, 72, 0
3, 33864, Note_on_c, 0, 74, 64
3, 33887, Note_on_c, 0, 74, 0
3, 33888, Note_on_c, 0, 76, 64
3, 33911, Note_on_c, 0, 76, 0
3, 33912, Note_on_c, 0, 74, 64
3, 33935, Note_on_c, 0, 74, 0
3, 33936, Note_on_c, 0, 72, 64
3, 33959, Note_on_c, 0, 72, 0
3, 33960, Note_on_c, 0, 74, 64
3, 33983, Note_on_c, 0, 74, 0
3, 33984, Note_on_c, 0, 76, 64
3, 34007, Note_on_c, 0, 76, 0
3, 34008, Note_on_c, 0, 72, 64
3, 34031, Note_on_c, 0, 72, 0
3, 34032, Note_on_c, 0, 71, 64
3, 34055, Note_on_c, 0, 71, 0
3, 34056, Note_on_c, 0, 69, 64
3, 34079, Note_on_c, 0, 69, 0
3, 34080, Note_on_c, 0, 81, 64
3, 34128, Note_on_c, 0, 72, 64
3, 34173, Note_on_c, 0, 72, 0
3, 34176, Note_on_c, 0, 71, 64
3, 34221, Note_on_c, 0, 71, 0
3, 34221, Note_on_c, 0, 81, 0
3, 34224, Note_on_c, 0, 80, 64
3, 34247, Note_on_c, 0, 80, 0
3, 34248, Note_on_c, 0, 81, 64
3, 34271, Note_on_c, 0, 81, 0
3, 34272, Note_on_c, 0, 83, 64
3, 34295, Note_on_c, 0, 83, 0
3, 34296, Note_on_c, 0, 81, 64
3, 34319, Note_on_c, 0, 81, 0
3, 34320, Note_on_c, 0, 80, 64
3, 34343, Note_on_c, 0, 80, 0
3, 34344, Note_on_c, 0, 78, 64
3, 34367, Note_on_c, 0, 78, 0
3, 34368, Note_on_c, 0, 76, 64
3, 34487, Note_on_c, 0, 76, 0
3, 34488, Note_on_c, 0, 74, 64
3, 34511, Note_on_c, 0, 74, 0
3, 34512, Note_on_c, 0, 72, 64
3, 34535, Note_on_c, 0, 72, 0
3, 34536, Note_on_c, 0, 71, 64
3, 34559, Note_on_c, 0, 71, 0
3, 34560, Note_on_c, 0, 72, 64
3, 34583, Note_on_c, 0, 72, 0
3, 34584, Note_on_c, 0, 76, 64
3, 34607, Note_on_c, 0, 76, 0
3, 34608, Note_on_c, 0, 74, 64
3, 34631, Note_on_c, 0, 74, 0
3, 34632, Note_on_c, 0, 72, 64
3, 34655, Note_on_c, 0, 72, 0
3, 34656, Note_on_c, 0, 74, 64
3, 34679, Note_on_c, 0, 74, 0
3, 34680, Note_on_c, 0, 72, 64
3, 34703, Note_on_c, 0, 72, 0
3, 34704, Note_on_c, 0, 71, 64
3, 34727, Note_on_c, 0, 71, 0
3, 34728, Note_on_c, 0, 69, 64
3, 34751, Note_on_c, 0, 69, 0
3, 34752, Note_on_c, 0, 81, 64
3, 34775, Note_on_c, 0, 81, 0
3, 34776, Note_on_c, 0, 79, 64
3, 34799, Note_on_c, 0, 79, 0
3, 34800, Note_on_c, 0, 77, 64
3, 34823, Note_on_c, 0, 77, 0
3, 34824, Note_on_c, 0, 76, 64
3, 34847, Note_on_c, 0, 76, 0
3, 34848, Note_on_c, 0, 74, 64
3, 34871, Note_on_c, 0, 74, 0
3, 34872, Note_on_c, 0, 72, 64
3, 34895, Note_on_c, 0, 72, 0
3, 34896, Note_on_c, 0, 71, 64
3, 34919, Note_on_c, 0, 71, 0
3, 34920, Note_on_c, 0, 69, 64
3, 34943, Note_on_c, 0, 69, 0
3, 34944, Note_on_c, 0, 71, 64
3, 34967, Note_on_c, 0, 71, 0
3, 34968, Note_on_c, 0, 74, 64
3, 34991, Note_on_c, 0, 74, 0
3, 34992, Note_on_c, 0, 72, 64
3, 35015, Note_on_c, 0, 72, 0
3, 35016, Note_on_c, 0, 71, 64
3, 35039, Note_on_c, 0, 71, 0
3, 35040, Note_on_c, 0, 72, 64
3, 35063, Note_on_c, 0, 72, 0
3, 35064, Note_on_c, 0, 71, 64
3, 35087, Note_on_c, 0, 71, 0
3, 35088, Note_on_c, 0, 69, 64
3, 35111, Note_on_c, 0, 69, 0
3, 35112, Note_on_c, 0, 67, 64
3, 35135, Note_on_c, 0, 67, 0
3, 35136, Note_on_c, 0, 79, 64
3, 35159, Note_on_c, 0, 79, 0
3, 35160, Note_on_c, 0, 77, 64
3, 35183, Note_on_c, 0, 77, 0
3, 35184, Note_on_c, 0, 76, 64
3, 35207, Note_on_c, 0, 76, 0
3, 35208, Note_on_c, 0, 74, 64
3, 35231, Note_on_c, 0, 74, 0
3, 35232, Note_on_c, 0, 72, 64
3, 35255, Note_on_c, 0, 72, 0
3, 35256, Note_on_c, 0, 71, 64
3, 35279, Note_on_c, 0, 71, 0
3, 35280, Note_on_c, 0, 69, 64
3, 35303, Note_on_c, 0, 69, 0
3, 35304, Note_on_c, 0, 68, 64
3, 35327, Note_on_c, 0, 68, 0
3, 35328, Note_on_c, 0, 69, 64
3, 35373, Note_on_c, 0, 69, 0
3, 35376, Note_on_c, 0, 74, 64
3, 35465, Note_on_c, 0, 74, 0
3, 35472, Note_on_c, 0, 72, 64
3, 35517, Note_on_c, 0, 72, 0
3, 35520, Note_on_c, 0, 71, 64
3, 35565, Note_on_c, 0, 71, 0
3, 35568, Note_on_c, 0, 77, 64
3, 35657, Note_on_c, 0, 77, 0
3, 35664, Note_on_c, 0, 69, 64
3, 35709, Note_on_c, 0, 69, 0
3, 35712, Note_on_c, 0, 68, 64
3, 35757, Note_on_c, 0, 68, 0
3, 35760, Note_on_c, 0, 71, 64
3, 35849, Note_on_c, 0, 71, 0
3, 35856, Note_on_c, 0, 65, 64
3, 35901, Note_on_c, 0, 65, 0
3, 35904, Note_on_c, 0, 67, 64
3, 35910, Note_on_c, 0, 67, 0
3, 35910, Note_on_c, 0, 65, 64
3, 35949, Note_on_c, 0, 65, 0
3, 35952, Note_on_c, 0, 64, 64
3, 36041, Note_on_c, 0, 64, 0
3, 36048, Note_on_c, 0, 62, 64
3, 36093, Note_on_c, 0, 62, 0
3, 36096, Note_on_c, 0, 62, 64
3, 36119, Note_on_c, 0, 62, 0
3, 36120, Note_on_c, 0, 59, 64
3, 36143, Note_on_c, 0, 59, 0
3, 36144, Note_on_c, 0, 60, 64
3, 36167, Note_on_c, 0, 60, 0
3, 36168, Note_on_c, 0, 62, 64
3, 36191, Note_on_c, 0, 62, 0
3, 36192, Note_on_c, 0, 64, 64
3, 36215, Note_on_c, 0, 64, 0
3, 36216, Note_on_c, 0, 65, 64
3, 36239, Note_on_c, 0, 65, 0
3, 36240, Note_on_c, 0, 67, 64
3, 36263, Note_on_c, 0, 67, 0
3, 36264, Note_on_c, 0, 69, 64
3, 36287, Note_on_c, 0, 69, 0
3, 36288, Note_on_c, 0, 61, 64
3, 36421, Note_on_c, 0, 61, 0
3, 36432, Note_on_c, 0, 59, 64
3, 36455, Note_on_c, 0, 59, 0
3, 36456, Note_on_c, 0, 61, 64
3, 36479, Note_on_c, 0, 61, 0
3, 36480, Note_on_c, 0, 62, 64
3, 36503, Note_on_c, 0, 62, 0
3, 36504, Note_on_c, 0, 61, 64
3, 36527, Note_on_c, 0, 61, 0
3, 36528, Note_on_c, 0, 62, 64
3, 36551, Note_on_c, 0, 62, 0
3, 36552, Note_on_c, 0, 64, 64
3, 36575, Note_on_c, 0, 64, 0
3, 36576, Note_on_c, 0, 65, 64
3, 36599, Note_on_c, 0, 65, 0
3, 36600, Note_on_c, 0, 67, 64
3, 36623, Note_on_c, 0, 67, 0
3, 36624, Note_on_c, 0, 69, 64
3, 36647, Note_on_c, 0, 69, 0
3, 36648, Note_on_c, 0, 71, 64
3, 36671, Note_on_c, 0, 71, 0
3, 36672, Note_on_c, 0, 72, 64
3, 36717, Note_on_c, 0, 72, 0
3, 36720, Note_on_c, 0, 63, 64
3, 36809, Note_on_c, 0, 63, 0
3, 36816, Note_on_c, 0, 64, 64
3, 36840, Note_on_c, 0, 64, 0
3, 36840, Note_on_c, 0, 66, 64
3, 36863, Note_on_c, 0, 66, 0
3, 36864, Note_on_c, 0, 64, 64
3, 36887, Note_on_c, 0, 64, 0
3, 36888, Note_on_c, 0, 74, 64
3, 36911, Note_on_c, 0, 74, 0
3, 36912, Note_on_c, 0, 72, 64
3, 36935, Note_on_c, 0, 72, 0
3, 36936, Note_on_c, 0, 71, 64
3, 36959, Note_on_c, 0, 71, 0
3, 36960, Note_on_c, 0, 76, 64
3, 36983, Note_on_c, 0, 76, 0
3, 36984, Note_on_c, 0, 72, 64
3, 37007, Note_on_c, 0, 72, 0
3, 37008, Note_on_c, 0, 71, 64
3, 37031, Note_on_c, 0, 71, 0
3, 37032, Note_on_c, 0, 69, 64
3, 37055, Note_on_c, 0, 69, 0
3, 37056, Note_on_c, 0, 72, 64
3, 37104, Note_on_c, 0, 64, 64
3, 37145, Note_on_c, 0, 72, 0
3, 37152, Note_on_c, 0, 71, 64
3, 37193, Note_on_c, 0, 64, 0
3, 37200, Note_on_c, 0, 62, 64
3, 37241, Note_on_c, 0, 71, 0
3, 37245, Note_on_c, 0, 62, 0
3, 37248, Note_on_c, 0, 60, 64
3, 37248, Note_on_c, 0, 69, 64
3, 37271, Note_on_c, 0, 69, 0
3, 37272, Note_on_c, 0, 65, 64
3, 37293, Note_on_c, 0, 60, 0
3, 37295, Note_on_c, 0, 65, 0
3, 37296, Note_on_c, 0, 64, 64
3, 37319, Note_on_c, 0, 64, 0
3, 37320, Note_on_c, 0, 62, 64
3, 37343, Note_on_c, 0, 62, 0
3, 37344, Note_on_c, 0, 64, 64
3, 37367, Note_on_c, 0, 64, 0
3, 37368, Note_on_c, 0, 62, 64
3, 37391, Note_on_c, 0, 62, 0
3, 37392, Note_on_c, 0, 60, 64
3, 37415, Note_on_c, 0, 60, 0
3, 37416, Note_on_c, 0, 59, 64
3, 37439, Note_on_c, 0, 59, 0
3, 37440, Note_on_c, 0, 57, 64
3, 37463, Note_on_c, 0, 57, 0
3, 37464, Note_on_c, 0, 60, 64
3, 37487, Note_on_c, 0, 60, 0
3, 37488, Note_on_c, 0, 64, 64
3, 37511, Note_on_c, 0, 64, 0
3, 37512, Note_on_c, 0, 69, 64
3, 37535, Note_on_c, 0, 69, 0
3, 37536, Note_on_c, 0, 72, 64
3, 37655, Note_on_c, 0, 72, 0
3, 37656, Note_on_c, 0, 62, 64
3, 37679, Note_on_c, 0, 62, 0
3, 37680, Note_on_c, 0, 66, 64
3, 37703, Note_on_c, 0, 66, 0
3, 37704, Note_on_c, 0, 69, 64
3, 37727, Note_on_c, 0, 69, 0
3, 37728, Note_on_c, 0, 72, 64
3, 37751, Note_on_c, 0, 72, 0
3, 37752, Note_on_c, 0, 69, 64
3, 37775, Note_on_c, 0, 69, 0
3, 37776, Note_on_c, 0, 72, 64
3, 37799, Note_on_c, 0, 72, 0
3, 37800, Note_on_c, 0, 78, 64
3, 37823, Note_on_c, 0, 78, 0
3, 37824, Note_on_c, 0, 81, 64
3, 37847, Note_on_c, 0, 81, 0
3, 37848, Note_on_c, 0, 79, 64
3, 37871, Note_on_c, 0, 79, 0
3, 37872, Note_on_c, 0, 78, 64
3, 37895, Note_on_c, 0, 78, 0
3, 37896, Note_on_c, 0, 76, 64
3, 37919, Note_on_c, 0, 76, 0
3, 37920, Note_on_c, 0, 74, 64
3, 37943, Note_on_c, 0, 74, 0
3, 37944, Note_on_c, 0, 72, 64
3, 37967, Note_on_c, 0, 72, 0
3, 37968, Note_on_c, 0, 71, 64
3, 37991, Note_on_c, 0, 71, 0
3, 37992, Note_on_c, 0, 69, 64
3, 38015, Note_on_c, 0, 69, 0
3, 38016, Note_on_c, 0, 72, 64
3, 38039, Note_on_c, 0, 72, 0
3, 38040, Note_on_c, 0, 71, 64
3, 38063, Note_on_c, 0, 71, 0
3, 38064, Note_on_c, 0, 69, 64
3, 38087, Note_on_c, 0, 69, 0
3, 38088, Note_on_c, 0, 67, 64
3, 38111, Note_on_c, 0, 67, 0
3, 38112, Note_on_c, 0, 71, 64
3, 38231, Note_on_c, 0, 71, 0
3, 38232, Note_on_c, 0, 69, 64
3, 38255, Note_on_c, 0, 69, 0
3, 38256, Note_on_c, 0, 71, 64
3, 38279, Note_on_c, 0, 71, 0
3, 38280, Note_on_c, 0, 73, 64
3, 38303, Note_on_c, 0, 73, 0
3, 38304, Note_on_c, 0, 75, 64
3, 38327, Note_on_c, 0, 75, 0
3, 38328, Note_on_c, 0, 76, 64
3, 38351, Note_on_c, 0, 76, 0
3, 38352, Note_on_c, 0, 78, 64
3, 38375, Note_on_c, 0, 78, 0
3, 38376, Note_on_c, 0, 79, 64
3, 38399, Note_on_c, 0, 79, 0
3, 38400, Note_on_c, 0, 81, 64
3, 38423, Note_on_c, 0, 81, 0
3, 38424, Note_on_c, 0, 83, 64
3, 38447, Note_on_c, 0, 83, 0
3, 38448, Note_on_c, 0, 81, 64
3, 38471, Note_on_c, 0, 81, 0
3, 38472, Note_on_c, 0, 79, 64
3, 38495, Note_on_c, 0, 79, 0
3, 38496, Note_on_c, 0, 81, 64
3, 38519, Note_on_c, 0, 81, 0
3, 38520, Note_on_c, 0, 79, 64
3, 38543, Note_on_c, 0, 79, 0
3, 38544, Note_on_c, 0, 78, 64
3, 38567, Note_on_c, 0, 78, 0
3, 38568, Note_on_c, 0, 76, 64
3, 38591, Note_on_c, 0, 76, 0
3, 38592, Note_on_c, 0, 75, 64
3, 38615, Note_on_c, 0, 75, 0
3, 38616, Note_on_c, 0, 76, 64
3, 38639, Note_on_c, 0, 76, 0
3, 38640, Note_on_c, 0, 75, 64
3, 38663, Note_on_c, 0, 75, 0
3, 38664, Note_on_c, 0, 73, 64
3, 38687, Note_on_c, 0, 73, 0
3, 38688, Note_on_c, 0, 75, 64
3, 38711, Note_on_c, 0, 75, 0
3, 38712, Note_on_c, 0, 73, 64
3, 38735, Note_on_c, 0, 73, 0
3, 38736, Note_on_c, 0, 71, 64
3, 38759, Note_on_c, 0, 71, 0
3, 38760, Note_on_c, 0, 69, 64
3, 38783, Note_on_c, 0, 69, 0
3, 38784, Note_on_c, 0, 67, 64
3, 38807, Note_on_c, 0, 67, 0
3, 38808, Note_on_c, 0, 69, 64
3, 38831, Note_on_c, 0, 69, 0
3, 38832, Note_on_c, 0, 67, 64
3, 38855, Note_on_c, 0, 67, 0
3, 38856, Note_on_c, 0, 66, 64
3, 38879, Note_on_c, 0, 66, 0
3, 38880, Note_on_c, 0, 67, 64
3, 38903, Note_on_c, 0, 67, 0
3, 38904, Note_on_c, 0, 66, 64
3, 38927, Note_on_c, 0, 66, 0
3, 38928, Note_on_c, 0, 64, 64
3, 38951, Note_on_c, 0, 64, 0
3, 38952, Note_on_c, 0, 63, 64
3, 38975, Note_on_c, 0, 63, 0
3, 38976, Note_on_c, 0, 64, 64
3, 39021, Note_on_c, 0, 64, 0
3, 39024, Note_on_c, 0, 76, 64
3, 39113, Note_on_c, 0, 76, 0
3, 39120, Note_on_c, 0, 74, 64
3, 39165, Note_on_c, 0, 74, 0
3, 39168, Note_on_c, 0, 72, 64
3, 39191, Note_on_c, 0, 72, 0
3, 39192, Note_on_c, 0, 69, 64
3, 39215, Note_on_c, 0, 69, 0
3, 39216, Note_on_c, 0, 67, 64
3, 39239, Note_on_c, 0, 67, 0
3, 39240, Note_on_c, 0, 66, 64
3, 39263, Note_on_c, 0, 66, 0
3, 39264, Note_on_c, 0, 67, 64
3, 39287, Note_on_c, 0, 67, 0
3, 39288, Note_on_c, 0, 66, 64
3, 39311, Note_on_c, 0, 66, 0
3, 39312, Note_on_c, 0, 64, 64
3, 39335, Note_on_c, 0, 64, 0
3, 39336, Note_on_c, 0, 62, 64
3, 39359, Note_on_c, 0, 62, 0
3, 39360, Note_on_c, 0, 71, 64
3, 39383, Note_on_c, 0, 71, 0
3, 39384, Note_on_c, 0, 67, 64
3, 39407, Note_on_c, 0, 67, 0
3, 39408, Note_on_c, 0, 66, 64
3, 39431, Note_on_c, 0, 66, 0
3, 39432, Note_on_c, 0, 64, 64
3, 39455, Note_on_c, 0, 64, 0
3, 39456, Note_on_c, 0, 66, 64
3, 39479, Note_on_c, 0, 66, 0
3, 39480, Note_on_c, 0, 64, 64
3, 39503, Note_on_c, 0, 64, 0
3, 39504, Note_on_c, 0, 62, 64
3, 39527, Note_on_c, 0, 62, 0
3, 39528, Note_on_c, 0, 60, 64
3, 39551, Note_on_c, 0, 60, 0
3, 39552, Note_on_c, 0, 69, 64
3, 39575, Note_on_c, 0, 69, 0
3, 39576, Note_on_c, 0, 66, 64
3, 39599, Note_on_c, 0, 66, 0
3, 39600, Note_on_c, 0, 64, 64
3, 39623, Note_on_c, 0, 64, 0
3, 39624, Note_on_c, 0, 63, 64
3, 39647, Note_on_c, 0, 63, 0
3, 39648, Note_on_c, 0, 64, 64
3, 39671, Note_on_c, 0, 64, 0
3, 39672, Note_on_c, 0, 63, 64
3, 39695, Note_on_c, 0, 63, 0
3, 39696, Note_on_c, 0, 61, 64
3, 39719, Note_on_c, 0, 61, 0
3, 39720, Note_on_c, 0, 59, 64
3, 39743, Note_on_c, 0, 59, 0
3, 39744, Note_on_c, 0, 67, 64
3, 39959, Note_on_c, 0, 67, 0
3, 39960, Note_on_c, 0, 64, 64
3, 39983, Note_on_c, 0, 64, 0
3, 39984, Note_on_c, 0, 63, 64
3, 40007, Note_on_c, 0, 63, 0
3, 40008, Note_on_c, 0, 64, 64
3, 40031, Note_on_c, 0, 64, 0
3, 40032, Note_on_c, 0, 66, 64
3, 40055, Note_on_c, 0, 66, 0
3, 40056, Note_on_c, 0, 67, 64
3, 40079, Note_on_c, 0, 67, 0
3, 40080, Note_on_c, 0, 69, 64
3, 40103, Note_on_c, 0, 69, 0
3, 40104, Note_on_c, 0, 71, 64
3, 40127, Note_on_c, 0, 71, 0
3, 40128, Note_on_c, 0, 72, 64
3, 40151, Note_on_c, 0, 72, 0
3, 40152, Note_on_c, 0, 71, 64
3, 40175, Note_on_c, 0, 71, 0
3, 40176, Note_on_c, 0, 69, 64
3, 40199, Note_on_c, 0, 69, 0
3, 40200, Note_on_c, 0, 67, 64
3, 40223, Note_on_c, 0, 67, 0
3, 40224, Note_on_c, 0, 66, 64
3, 40269, Note_on_c, 0, 66, 0
3, 40272, Note_on_c, 0, 64, 64
3, 40343, Note_on_c, 0, 64, 0
3, 40344, Note_on_c, 0, 72, 64
3, 40367, Note_on_c, 0, 72, 0
3, 40368, Note_on_c, 0, 71, 64
3, 40391, Note_on_c, 0, 71, 0
3, 40392, Note_on_c, 0, 70, 64
3, 40415, Note_on_c, 0, 70, 0
3, 40416, Note_on_c, 0, 71, 64
3, 40439, Note_on_c, 0, 71, 0
3, 40440, Note_on_c, 0, 67, 64
3, 40463, Note_on_c, 0, 67, 0
3, 40464, Note_on_c, 0, 66, 64
3, 40487, Note_on_c, 0, 66, 0
3, 40488, Note_on_c, 0, 64, 64
3, 40511, Note_on_c, 0, 64, 0
3, 40512, Note_on_c, 0, 63, 64
3, 40535, Note_on_c, 0, 63, 0
3, 40536, Note_on_c, 0, 61, 64
3, 40559, Note_on_c, 0, 61, 0
3, 40560, Note_on_c, 0, 59, 64
3, 40605, Note_on_c, 0, 59, 0
3, 40608, Note_on_c, 0, 59, 64
3, 40631, Note_on_c, 0, 59, 0
3, 40704, Note_on_c, 0, 55, 64
3, 40749, Note_on_c, 0, 55, 0
3, 40752, Note_on_c, 0, 57, 64
3, 40797, Note_on_c, 0, 57, 0
3, 40800, Note_on_c, 0, 59, 64
3, 40823, Note_on_c, 0, 59, 0
3, 40824, Note_on_c, 0, 57, 64
3, 40847, Note_on_c, 0, 57, 0
3, 40848, Note_on_c, 0, 55, 64
3, 40871, Note_on_c, 0, 55, 0
3, 40872, Note_on_c, 0, 57, 64
3, 40895, Note_on_c, 0, 57, 0
3, 40896, Note_on_c, 0, 59, 64
3, 40941, Note_on_c, 0, 59, 0
3, 40944, Note_on_c, 0, 52, 64
3, 40989, Note_on_c, 0, 52, 0
3, 40992, Note_on_c, 0, 64, 64
3, 41133, Note_on_c, 0, 64, 0
3, 41136, Note_on_c, 0, 63, 64
3, 41159, Note_on_c, 0, 63, 0
3, 41160, Note_on_c, 0, 64, 64
3, 41183, Note_on_c, 0, 64, 0
3, 41184, Note_on_c, 0, 66, 64
3, 41207, Note_on_c, 0, 66, 0
3, 41208, Note_on_c, 0, 64, 64
3, 41231, Note_on_c, 0, 64, 0
3, 41232, Note_on_c, 0, 63, 64
3, 41255, Note_on_c, 0, 63, 0
3, 41256, Note_on_c, 0, 61, 64
3, 41279, Note_on_c, 0, 61, 0
3, 41280, Note_on_c, 0, 59, 64
3, 41325, Note_on_c, 0, 59, 0
3, 41328, Note_on_c, 0, 63, 64
3, 41373, Note_on_c, 0, 63, 0
3, 41376, Note_on_c, 0, 66, 64
3, 41421, Note_on_c, 0, 66, 0
3, 41424, Note_on_c, 0, 69, 64
3, 41517, Note_on_c, 0, 69, 0
3, 41520, Note_on_c, 0, 67, 64
3, 41543, Note_on_c, 0, 67, 0
3, 41544, Note_on_c, 0, 69, 64
3, 41567, Note_on_c, 0, 69, 0
3, 41568, Note_on_c, 0, 71, 64
3, 41591, Note_on_c, 0, 71, 0
3, 41592, Note_on_c, 0, 69, 64
3, 41615, Note_on_c, 0, 69, 0
3, 41616, Note_on_c, 0, 67, 64
3, 41639, Note_on_c, 0, 67, 0
3, 41640, Note_on_c, 0, 66, 64
3, 41663, Note_on_c, 0, 66, 0
3, 41664, Note_on_c, 0, 64, 64
3, 41709, Note_on_c, 0, 64, 0
3, 41712, Note_on_c, 0, 67, 64
3, 41757, Note_on_c, 0, 67, 0
3, 41760, Note_on_c, 0, 71, 64
3, 41805, Note_on_c, 0, 71, 0
3, 41808, Note_on_c, 0, 76, 64
3, 41901, Note_on_c, 0, 76, 0
3, 41904, Note_on_c, 0, 75, 64
3, 41927, Note_on_c, 0, 75, 0
3, 41928, Note_on_c, 0, 76, 64
3, 41951, Note_on_c, 0, 76, 0
3, 41952, Note_on_c, 0, 78, 64
3, 41975, Note_on_c, 0, 78, 0
3, 41976, Note_on_c, 0, 76, 64
3, 41999, Note_on_c, 0, 76, 0
3, 42000, Note_on_c, 0, 75, 64
3, 42023, Note_on_c, 0, 75, 0
3, 42024, Note_on_c, 0, 73, 64
3, 42047, Note_on_c, 0, 73, 0
3, 42048, Note_on_c, 0, 71, 64
3, 42225, Note_on_c, 0, 71, 0
3, 42240, Note_on_c, 0, 79, 64
3, 42336, Note_on_c, 0, 71, 64
3, 42425, Note_on_c, 0, 71, 0
3, 42432, Note_on_c, 0, 69, 64
3, 42505, Note_on_c, 0, 79, 0
3, 42528, Note_on_c, 0, 79, 64
3, 42617, Note_on_c, 0, 79, 0
3, 42624, Note_on_c, 0, 78, 64
3, 42713, Note_on_c, 0, 69, 0
3, 42720, Note_on_c, 0, 69, 64
3, 42809, Note_on_c, 0, 69, 0
3, 42816, Note_on_c, 0, 67, 64
3, 42889, Note_on_c, 0, 78, 0
3, 42912, Note_on_c, 0, 77, 64
3, 43001, Note_on_c, 0, 77, 0
3, 43008, Note_on_c, 0, 77, 64
3, 43031, Note_on_c, 0, 77, 0
3, 43032, Note_on_c, 0, 76, 64
3, 43053, Note_on_c, 0, 67, 0
3, 43055, Note_on_c, 0, 76, 0
3, 43056, Note_on_c, 0, 74, 64
3, 43079, Note_on_c, 0, 74, 0
3, 43080, Note_on_c, 0, 72, 64
3, 43103, Note_on_c, 0, 72, 0
3, 43104, Note_on_c, 0, 74, 64
3, 43127, Note_on_c, 0, 74, 0
3, 43128, Note_on_c, 0, 72, 64
3, 43151, Note_on_c, 0, 72, 0
3, 43152, Note_on_c, 0, 71, 64
3, 43175, Note_on_c, 0, 71, 0
3, 43176, Note_on_c, 0, 69, 64
3, 43199, Note_on_c, 0, 69, 0
3, 43200, Note_on_c, 0, 68, 64
3, 43223, Note_on_c, 0, 68, 0
3, 43224, Note_on_c, 0, 77, 64
3, 43247, Note_on_c, 0, 77, 0
3, 43248, Note_on_c, 0, 76, 64
3, 43271, Note_on_c, 0, 76, 0
3, 43272, Note_on_c, 0, 74, 64
3, 43295, Note_on_c, 0, 74, 0
3, 43296, Note_on_c, 0, 76, 64
3, 43319, Note_on_c, 0, 76, 0
3, 43320, Note_on_c, 0, 74, 64
3, 43343, Note_on_c, 0, 74, 0
3, 43344, Note_on_c, 0, 72, 64
3, 43367, Note_on_c, 0, 72, 0
3, 43368, Note_on_c, 0, 71, 64
3, 43391, Note_on_c, 0, 71, 0
3, 43392, Note_on_c, 0, 72, 64
3, 43415, Note_on_c, 0, 72, 0
3, 43416, Note_on_c, 0, 71, 64
3, 43439, Note_on_c, 0, 71, 0
3, 43440, Note_on_c, 0, 69, 64
3, 43463, Note_on_c, 0, 69, 0
3, 43464, Note_on_c, 0, 67, 64
3, 43487, Note_on_c, 0, 67, 0
3, 43488, Note_on_c, 0, 69, 64
3, 43511, Note_on_c, 0, 69, 0
3, 43512, Note_on_c, 0, 67, 64
3, 43535, Note_on_c, 0, 67, 0
3, 43536, Note_on_c, 0, 66, 64
3, 43559, Note_on_c, 0, 66, 0
3, 43560, Note_on_c, 0, 64, 64
3, 43583, Note_on_c, 0, 64, 0
3, 43584, Note_on_c, 0, 63, 64
3, 43607, Note_on_c, 0, 63, 0
3, 43608, Note_on_c, 0, 72, 64
3, 43631, Note_on_c, 0, 72, 0
3, 43632, Note_on_c, 0, 71, 64
3, 43655, Note_on_c, 0, 71, 0
3, 43656, Note_on_c, 0, 69, 64
3, 43679, Note_on_c, 0, 69, 0
3, 43680, Note_on_c, 0, 71, 64
3, 43703, Note_on_c, 0, 71, 0
3, 43704, Note_on_c, 0, 69, 64
3, 43727, Note_on_c, 0, 69, 0
3, 43728, Note_on_c, 0, 67, 64
3, 43751, Note_on_c, 0, 67, 0
3, 43752, Note_on_c, 0, 66, 64
3, 43775, Note_on_c, 0, 66, 0
3, 43776, Note_on_c, 0, 67, 64
3, 43799, Note_on_c, 0, 67, 0
3, 43800, Note_on_c, 0, 66, 64
3, 43823, Note_on_c, 0, 66, 0
3, 43824, Note_on_c, 0, 64, 64
3, 43847, Note_on_c, 0, 64, 0
3, 43848, Note_on_c, 0, 62, 64
3, 43871, Note_on_c, 0, 62, 0
3, 43872, Note_on_c, 0, 64, 64
3, 43895, Note_on_c, 0, 64, 0
3, 43896, Note_on_c, 0, 62, 64
3, 43919, Note_on_c, 0, 62, 0
3, 43920, Note_on_c, 0, 61, 64
3, 43943, Note_on_c, 0, 61, 0
3, 43944, Note_on_c, 0, 59, 64
3, 43967, Note_on_c, 0, 59, 0
3, 43968, Note_on_c, 0, 58, 64
3, 43991, Note_on_c, 0, 58, 0
3, 43992, Note_on_c, 0, 67, 64
3, 44015, Note_on_c, 0, 67, 0
3, 44016, Note_on_c, 0, 66, 64
3, 44039, Note_on_c, 0, 66, 0
3, 44040, Note_on_c, 0, 64, 64
3, 44063, Note_on_c, 0, 64, 0
3, 44064, Note_on_c, 0, 66, 64
3, 44087, Note_on_c, 0, 66, 0
3, 44088, Note_on_c, 0, 64, 64
3, 44111, Note_on_c, 0, 64, 0
3, 44112, Note_on_c, 0, 63, 64
3, 44135, Note_on_c, 0, 63, 0
3, 44136, Note_on_c, 0, 61, 64
3, 44159, Note_on_c, 0, 61, 0
3, 44160, Note_on_c, 0, 63, 64
3, 44184, Note_on_c, 0, 60, 100
3, 44208, Note_on_c, 0, 60, 0
3, 44208, Note_on_c, 0, 59, 100
3, 44232, Note_on_c, 0, 59, 0
3, 44232, Note_on_c, 0, 57, 100
3, 44256, Note_on_c, 0, 57, 0
3, 44256, Note_on_c, 0, 59, 100
3, 44280, Note_on_c, 0, 59, 0
3, 44280, Note_on_c, 0, 57, 100
3, 44304, Note_on_c, 0, 57, 0
3, 44304, Note_on_c, 0, 55, 100
3, 44328, Note_on_c, 0, 55, 0
3, 44328, Note_on_c, 0, 54, 100
3, 44352, Note_on_c, 0, 54, 0
3, 44352, Note_on_c, 0, 55, 100
3, 44375, Note_on_c, 0, 63, 0
3, 44376, Note_on_c, 0, 71, 64
3, 44399, Note_on_c, 0, 71, 0
3, 44400, Note_on_c, 0, 69, 64
3, 44423, Note_on_c, 0, 69, 0
3, 44424, Note_on_c, 0, 67, 64
3, 44447, Note_on_c, 0, 67, 0
3, 44448, Note_on_c, 0, 55, 0
3, 44448, Note_on_c, 0, 52, 100
3, 44448, Note_on_c, 0, 69, 64
3, 44471, Note_on_c, 0, 69, 0
3, 44472, Note_on_c, 0, 67, 64
3, 44495, Note_on_c, 0, 67, 0
3, 44496, Note_on_c, 0, 66, 64
3, 44519, Note_on_c, 0, 66, 0
3, 44520, Note_on_c, 0, 64, 64
3, 44543, Note_on_c, 0, 64, 0
3, 44544, Note_on_c, 0, 52, 0
3, 44544, Note_on_c, 0, 52, 64
3, 44544, Note_on_c, 0, 69, 64
3, 44544, Note_on_c, 0, 72, 64
3, 44568, Note_on_c, 0, 52, 0
3, 44568, Note_on_c, 0, 55, 100
3, 44592, Note_on_c, 0, 55, 0
3, 44592, Note_on_c, 0, 54, 100
3, 44616, Note_on_c, 0, 54, 0
3, 44616, Note_on_c, 0, 52, 100
3, 44633, Note_on_c, 0, 72, 0
3, 44633, Note_on_c, 0, 69, 0
3, 44640, Note_on_c, 0, 52, 0
3, 44640, Note_on_c, 0, 54, 100
3, 44640, Note_on_c, 0, 81, 64
3, 44664, Note_on_c, 0, 54, 0
3, 44664, Note_on_c, 0, 52, 100
3, 44688, Note_on_c, 0, 52, 0
3, 44688, Note_on_c, 0, 51, 100
3, 44712, Note_on_c, 0, 51, 0
3, 44712, Note_on_c, 0, 49, 100
3, 44736, Note_on_c, 0, 49, 0
3, 44736, Note_on_c, 0, 52, 100
3, 44736, Note_on_c, 0, 71, 64
3, 44759, Note_on_c, 0, 81, 0
3, 44760, Note_on_c, 0, 52, 0
3, 44760, Note_on_c, 0, 78, 64
3, 44783, Note_on_c, 0, 78, 0
3, 44784, Note_on_c, 0, 80, 64
3, 44807, Note_on_c, 0, 80, 0
3, 44808, Note_on_c, 0, 81, 64
3, 44825, Note_on_c, 0, 71, 0
3, 44831, Note_on_c, 0, 81, 0
3, 44832, Note_on_c, 0, 83, 64
3, 44855, Note_on_c, 0, 83, 0
3, 44856, Note_on_c, 0, 81, 64
3, 44879, Note_on_c, 0, 81, 0
3, 44880, Note_on_c, 0, 80, 64
3, 44903, Note_on_c, 0, 80, 0
3, 44904, Note_on_c, 0, 81, 64
3, 44927, Note_on_c, 0, 81, 0
3, 44928, Note_on_c, 0, 83, 64
3, 44973, Note_on_c, 0, 83, 0
3, 44976, Note_on_c, 0, 74, 64
3, 45065, Note_on_c, 0, 74, 0
3, 45072, Note_on_c, 0, 73, 64
3, 45117, Note_on_c, 0, 73, 0
3, 45120, Note_on_c, 0, 72, 64
3, 45143, Note_on_c, 0, 72, 0
3, 45144, Note_on_c, 0, 76, 64
3, 45167, Note_on_c, 0, 76, 0
3, 45168, Note_on_c, 0, 78, 64
3, 45191, Note_on_c, 0, 78, 0
3, 45192, Note_on_c, 0, 79, 64
3, 45215, Note_on_c, 0, 79, 0
3, 45216, Note_on_c, 0, 78, 64
3, 45239, Note_on_c, 0, 78, 0
3, 45240, Note_on_c, 0, 76, 64
3, 45263, Note_on_c, 0, 76, 0
3, 45264, Note_on_c, 0, 75, 64
3, 45287, Note_on_c, 0, 75, 0
3, 45288, Note_on_c, 0, 76, 64
3, 45311, Note_on_c, 0, 76, 0
3, 45312, Note_on_c, 0, 78, 64
3, 45357, Note_on_c, 0, 78, 0
3, 45360, Note_on_c, 0, 69, 64
3, 45449, Note_on_c, 0, 69, 0
3, 45456, Note_on_c, 0, 68, 64
3, 45501, Note_on_c, 0, 68, 0
3, 45504, Note_on_c, 0, 67, 64
3, 45527, Note_on_c, 0, 67, 0
3, 45528, Note_on_c, 0, 71, 64
3, 45551, Note_on_c, 0, 71, 0
3, 45552, Note_on_c, 0, 72, 64
3, 45575, Note_on_c, 0, 72, 0
3, 45576, Note_on_c, 0, 74, 64
3, 45599, Note_on_c, 0, 74, 0
3, 45600, Note_on_c, 0, 72, 64
3, 45623, Note_on_c, 0, 72, 0
3, 45624, Note_on_c, 0, 71, 64
3, 45647, Note_on_c, 0, 71, 0
3, 45648, Note_on_c, 0, 69, 64
3, 45671, Note_on_c, 0, 69, 0
3, 45672, Note_on_c, 0, 71, 64
3, 45695, Note_on_c, 0, 71, 0
3, 45696, Note_on_c, 0, 72, 64
3, 45741, Note_on_c, 0, 72, 0
3, 45744, Note_on_c, 0, 77, 64
3, 45833, Note_on_c, 0, 77, 0
3, 45840, Note_on_c, 0, 76, 64
3, 45885, Note_on_c, 0, 76, 0
3, 45888, Note_on_c, 0, 75, 64
3, 45911, Note_on_c, 0, 75, 0
3, 45912, Note_on_c, 0, 84, 64
3, 45935, Note_on_c, 0, 84, 0
3, 45936, Note_on_c, 0, 83, 64
3, 45959, Note_on_c, 0, 83, 0
3, 45960, Note_on_c, 0, 81, 64
3, 45983, Note_on_c, 0, 81, 0
3, 45984, Note_on_c, 0, 83, 64
3, 46007, Note_on_c, 0, 83, 0
3, 46008, Note_on_c, 0, 81, 64
3, 46031, Note_on_c, 0, 81, 0
3, 46032, Note_on_c, 0, 79, 64
3, 46055, Note_on_c, 0, 79, 0
3, 46056, Note_on_c, 0, 78, 64
3, 46079, Note_on_c, 0, 78, 0
3, 46080, Note_on_c, 0, 79, 64
3, 46103, Note_on_c, 0, 79, 0
3, 46104, Note_on_c, 0, 76, 64
3, 46127, Note_on_c, 0, 76, 0
3, 46128, Note_on_c, 0, 75, 64
3, 46151, Note_on_c, 0, 75, 0
3, 46152, Note_on_c, 0, 76, 64
3, 46175, Note_on_c, 0, 76, 0
3, 46176, Note_on_c, 0, 78, 64
3, 46199, Note_on_c, 0, 78, 0
3, 46200, Note_on_c, 0, 74, 64
3, 46223, Note_on_c, 0, 74, 0
3, 46224, Note_on_c, 0, 73, 64
3, 46247, Note_on_c, 0, 73, 0
3, 46248, Note_on_c, 0, 74, 64
3, 46271, Note_on_c, 0, 74, 0
3, 46272, Note_on_c, 0, 76, 64
3, 46295, Note_on_c, 0, 76, 0
3, 46296, Note_on_c, 0, 72, 64
3, 46319, Note_on_c, 0, 72, 0
3, 46320, Note_on_c, 0, 71, 64
3, 46343, Note_on_c, 0, 71, 0
3, 46344, Note_on_c, 0, 72, 64
3, 46367, Note_on_c, 0, 72, 0
3, 46368, Note_on_c, 0, 76, 64
3, 46391, Note_on_c, 0, 76, 0
3, 46392, Note_on_c, 0, 71, 64
3, 46415, Note_on_c, 0, 71, 0
3, 46416, Note_on_c, 0, 70, 64
3, 46439, Note_on_c, 0, 70, 0
3, 46440, Note_on_c, 0, 71, 64
3, 46463, Note_on_c, 0, 71, 0
3, 46464, Note_on_c, 0, 76, 64
3, 46583, Note_on_c, 0, 76, 0
3, 46584, Note_on_c, 0, 73, 64
3, 46607, Note_on_c, 0, 73, 0
3, 46608, Note_on_c, 0, 75, 64
3, 46631, Note_on_c, 0, 75, 0
3, 46632, Note_on_c, 0, 76, 64
3, 46655, Note_on_c, 0, 76, 0
3, 46656, Note_on_c, 0, 75, 64
3, 46679, Note_on_c, 0, 75, 0
3, 46680, Note_on_c, 0, 78, 64
3, 46703, Note_on_c, 0, 78, 0
3, 46704, Note_on_c, 0, 76, 64
3, 46727, Note_on_c, 0, 76, 0
3, 46728, Note_on_c, 0, 75, 64
3, 46751, Note_on_c, 0, 75, 0
3, 46752, Note_on_c, 0, 76, 64
3, 46775, Note_on_c, 0, 76, 0
3, 46776, Note_on_c, 0, 74, 64
3, 46799, Note_on_c, 0, 74, 0
3, 46800, Note_on_c, 0, 72, 64
3, 46823, Note_on_c, 0, 72, 0
3, 46824, Note_on_c, 0, 71, 64
3, 46847, Note_on_c, 0, 71, 0
3, 46848, Note_on_c, 0, 49, 100
3, 46848, Note_on_c, 0, 70, 64
3, 46871, Note_on_c, 0, 70, 0
3, 46872, Note_on_c, 0, 67, 64
3, 46895, Note_on_c, 0, 67, 0
3, 46896, Note_on_c, 0, 66, 64
3, 46919, Note_on_c, 0, 66, 0
3, 46920, Note_on_c, 0, 64, 64
3, 46943, Note_on_c, 0, 64, 0
3, 46944, Note_on_c, 0, 49, 0
3, 46944, Note_on_c, 0, 69, 64
3, 46967, Note_on_c, 0, 69, 0
3, 46968, Note_on_c, 0, 66, 64
3, 46991, Note_on_c, 0, 66, 0
3, 46992, Note_on_c, 0, 64, 64
3, 47015, Note_on_c, 0, 64, 0
3, 47016, Note_on_c, 0, 63, 64
3, 47039, Note_on_c, 0, 63, 0
3, 47040, Note_on_c, 0, 48, 64
3, 47040, Note_on_c, 0, 64, 64
3, 47040, Note_on_c, 0, 67, 64
3, 47129, Note_on_c, 0, 67, 0
3, 47129, Note_on_c, 0, 64, 0
3, 47136, Note_on_c, 0, 48, 0
3, 47136, Note_on_c, 0, 63, 64
3, 47136, Note_on_c, 0, 66, 64
3, 47225, Note_on_c, 0, 66, 0
3, 47225, Note_on_c, 0, 63, 0
3, 47232, Note_on_c, 0, 52, 100
3, 47232, Note_on_c, 0, 64, 64
3, 47277, Note_on_c, 0, 64, 0
3, 47280, Note_on_c, 0, 66, 64
3, 47303, Note_on_c, 0, 66, 0
3, 47304, Note_on_c, 0, 67, 64
3, 47327, Note_on_c, 0, 67, 0
3, 47328, Note_on_c, 0, 69, 64
3, 47351, Note_on_c, 0, 69, 0
3, 47352, Note_on_c, 0, 71, 64
3, 47375, Note_on_c, 0, 71, 0
3, 47376, Note_on_c, 0, 73, 64
3, 47399, Note_on_c, 0, 73, 0
3, 47400, Note_on_c, 0, 75, 64
3, 47423, Note_on_c, 0, 75, 0
3, 47424, Note_on_c, 0, 52, 0
3, 47424, Note_on_c, 0, 76, 64
3, 47601, Note_on_c, 0, 76, 0
3, 47601, End_track
4, 0, Start_track
4, 0, MIDI_port, 0
4, 0, Title_t, "Clavier (LH)"
4, 0, Program_c, 0, 6
4, 0, Control_c, 0, 7, 127
4, 0, Note_on_c, 0, 40, 64
4, 45, Note_on_c, 0, 40, 0
4, 48, Note_on_c, 0, 52, 64
4, 93, Note_on_c, 0, 52, 0
4, 96, Note_on_c, 0, 42, 64
4, 141, Note_on_c, 0, 42, 0
4, 144, Note_on_c, 0, 51, 64
4, 189, Note_on_c, 0, 51, 0
4, 192, Note_on_c, 0, 43, 64
4, 237, Note_on_c, 0, 43, 0
4, 240, Note_on_c, 0, 52, 64
4, 285, Note_on_c, 0, 52, 0
4, 288, Note_on_c, 0, 45, 64
4, 333, Note_on_c, 0, 45, 0
4, 336, Note_on_c, 0, 55, 64
4, 381, Note_on_c, 0, 55, 0
4, 384, Note_on_c, 0, 47, 64
4, 429, Note_on_c, 0, 47, 0
4, 432, Note_on_c, 0, 54, 64
4, 477, Note_on_c, 0, 54, 0
4, 480, Note_on_c, 0, 49, 64
4, 525, Note_on_c, 0, 49, 0
4, 528, Note_on_c, 0, 54, 64
4, 573, Note_on_c, 0, 54, 0
4, 576, Note_on_c, 0, 51, 64
4, 621, Note_on_c, 0, 51, 0
4, 624, Note_on_c, 0, 52, 64
4, 647, Note_on_c, 0, 52, 0
4, 648, Note_on_c, 0, 54, 64
4, 671, Note_on_c, 0, 54, 0
4, 672, Note_on_c, 0, 52, 64
4, 695, Note_on_c, 0, 52, 0
4, 696, Note_on_c, 0, 51, 64
4, 719, Note_on_c, 0, 51, 0
4, 720, Note_on_c, 0, 49, 64
4, 743, Note_on_c, 0, 49, 0
4, 744, Note_on_c, 0, 47, 64
4, 767, Note_on_c, 0, 47, 0
4, 768, Note_on_c, 0, 52, 64
4, 813, Note_on_c, 0, 52, 0
4, 816, Note_on_c, 0, 47, 64
4, 861, Note_on_c, 0, 47, 0
4, 864, Note_on_c, 0, 54, 64
4, 909, Note_on_c, 0, 54, 0
4, 912, Note_on_c, 0, 47, 64
4, 957, Note_on_c, 0, 47, 0
4, 960, Note_on_c, 0, 55, 64
4, 1005, Note_on_c, 0, 55, 0
4, 1008, Note_on_c, 0, 57, 64
4, 1031, Note_on_c, 0, 57, 0
4, 1032, Note_on_c, 0, 59, 64
4, 1055, Note_on_c, 0, 59, 0
4, 1056, Note_on_c, 0, 57, 64
4, 1079, Note_on_c, 0, 57, 0
4, 1080, Note_on_c, 0, 55, 64
4, 1103, Note_on_c, 0, 55, 0
4, 1104, Note_on_c, 0, 54, 64
4, 1127, Note_on_c, 0, 54, 0
4, 1128, Note_on_c, 0, 52, 64
4, 1151, Note_on_c, 0, 52, 0
4, 1152, Note_on_c, 0, 59, 64
4, 1197, Note_on_c, 0, 59, 0
4, 1200, Note_on_c, 0, 47, 64
4, 1245, Note_on_c, 0, 47, 0
4, 1248, Note_on_c, 0, 59, 64
4, 1293, Note_on_c, 0, 59, 0
4, 1296, Note_on_c, 0, 61, 64
4, 1341, Note_on_c, 0, 61, 0
4, 1344, Note_on_c, 0, 63, 64
4, 1389, Note_on_c, 0, 63, 0
4, 1392, Note_on_c, 0, 64, 64
4, 1415, Note_on_c, 0, 64, 0
4, 1416, Note_on_c, 0, 66, 64
4, 1439, Note_on_c, 0, 66, 0
4, 1440, Note_on_c, 0, 64, 64
4, 1463, Note_on_c, 0, 64, 0
4, 1464, Note_on_c, 0, 63, 64
4, 1487, Note_on_c, 0, 63, 0
4, 1488, Note_on_c, 0, 61, 64
4, 1511, Note_on_c, 0, 61, 0
4, 1512, Note_on_c, 0, 59, 64
4, 1535, Note_on_c, 0, 59, 0
4, 1536, Note_on_c, 0, 64, 64
4, 1581, Note_on_c, 0, 64, 0
4, 1584, Note_on_c, 0, 52, 64
4, 1629, Note_on_c, 0, 52, 0
4, 1632, Note_on_c, 0, 64, 64
4, 1677, Note_on_c, 0, 64, 0
4, 1680, Note_on_c, 0, 62, 64
4, 1725, Note_on_c, 0, 62, 0
4, 1728, Note_on_c, 0, 60, 64
4, 1773, Note_on_c, 0, 60, 0
4, 1776, Note_on_c, 0, 62, 64
4, 1799, Note_on_c, 0, 62, 0
4, 1800, Note_on_c, 0, 64, 64
4, 1823, Note_on_c, 0, 64, 0
4, 1824, Note_on_c, 0, 62, 64
4, 1847, Note_on_c, 0, 62, 0
4, 1848, Note_on_c, 0, 60, 64
4, 1871, Note_on_c, 0, 60, 0
4, 1872, Note_on_c, 0, 59, 64
4, 1895, Note_on_c, 0, 59, 0
4, 1896, Note_on_c, 0, 57, 64
4, 1919, Note_on_c, 0, 57, 0
4, 1920, Note_on_c, 0, 62, 64
4, 1965, Note_on_c, 0, 62, 0
4, 1968, Note_on_c, 0, 50, 64
4, 2013, Note_on_c, 0, 50, 0
4, 2016, Note_on_c, 0, 62, 64
4, 2061, Note_on_c, 0, 62, 0
4, 2064, Note_on_c, 0, 60, 64
4, 2109, Note_on_c, 0, 60, 0
4, 2112, Note_on_c, 0, 59, 64
4, 2157, Note_on_c, 0, 59, 0
4, 2160, Note_on_c, 0, 60, 64
4, 2183, Note_on_c, 0, 60, 0
4, 2184, Note_on_c, 0, 62, 64
4, 2207, Note_on_c, 0, 62, 0
4, 2208, Note_on_c, 0, 60, 64
4, 2231, Note_on_c, 0, 60, 0
4, 2232, Note_on_c, 0, 59, 64
4, 2255, Note_on_c, 0, 59, 0
4, 2256, Note_on_c, 0, 57, 64
4, 2279, Note_on_c, 0, 57, 0
4, 2280, Note_on_c, 0, 55, 64
4, 2303, Note_on_c, 0, 55, 0
4, 2304, Note_on_c, 0, 60, 64
4, 2349, Note_on_c, 0, 60, 0
4, 2352, Note_on_c, 0, 48, 64
4, 2397, Note_on_c, 0, 48, 0
4, 2400, Note_on_c, 0, 60, 64
4, 2445, Note_on_c, 0, 60, 0
4, 2448, Note_on_c, 0, 59, 64
4, 2493, Note_on_c, 0, 59, 0
4, 2496, Note_on_c, 0, 57, 64
4, 2541, Note_on_c, 0, 57, 0
4, 2544, Note_on_c, 0, 60, 64
4, 2589, Note_on_c, 0, 60, 0
4, 2592, Note_on_c, 0, 54, 64
4, 2637, Note_on_c, 0, 54, 0
4, 2640, Note_on_c, 0, 57, 64
4, 2685, Note_on_c, 0, 57, 0
4, 2688, Note_on_c, 0, 59, 64
4, 2711, Note_on_c, 0, 59, 0
4, 2712, Note_on_c, 0, 47, 64
4, 2735, Note_on_c, 0, 47, 0
4, 2736, Note_on_c, 0, 49, 64
4, 2759, Note_on_c, 0, 49, 0
4, 2760, Note_on_c, 0, 51, 64
4, 2783, Note_on_c, 0, 51, 0
4, 2784, Note_on_c, 0, 52, 64
4, 2807, Note_on_c, 0, 52, 0
4, 2808, Note_on_c, 0, 54, 64
4, 2831, Note_on_c, 0, 54, 0
4, 2832, Note_on_c, 0, 55, 64
4, 2855, Note_on_c, 0, 55, 0
4, 2856, Note_on_c, 0, 57, 64
4, 2879, Note_on_c, 0, 57, 0
4, 2880, Note_on_c, 0, 59, 64
4, 2903, Note_on_c, 0, 59, 0
4, 2904, Note_on_c, 0, 57, 64
4, 2927, Note_on_c, 0, 57, 0
4, 2928, Note_on_c, 0, 59, 64
4, 2951, Note_on_c, 0, 59, 0
4, 2952, Note_on_c, 0, 60, 64
4, 2975, Note_on_c, 0, 60, 0
4, 2976, Note_on_c, 0, 59, 64
4, 2999, Note_on_c, 0, 59, 0
4, 3000, Note_on_c, 0, 57, 64
4, 3023, Note_on_c, 0, 57, 0
4, 3024, Note_on_c, 0, 55, 64
4, 3047, Note_on_c, 0, 55, 0
4, 3048, Note_on_c, 0, 54, 64
4, 3071, Note_on_c, 0, 54, 0
4, 3072, Note_on_c, 0, 55, 64
4, 3095, Note_on_c, 0, 55, 0
4, 3096, Note_on_c, 0, 54, 64
4, 3119, Note_on_c, 0, 54, 0
4, 3120, Note_on_c, 0, 55, 64
4, 3143, Note_on_c, 0, 55, 0
4, 3144, Note_on_c, 0, 57, 64
4, 3167, Note_on_c, 0, 57, 0
4, 3168, Note_on_c, 0, 55, 64
4, 3191, Note_on_c, 0, 55, 0
4, 3192, Note_on_c, 0, 54, 64
4, 3215, Note_on_c, 0, 54, 0
4, 3216, Note_on_c, 0, 52, 64
4, 3239, Note_on_c, 0, 52, 0
4, 3240, Note_on_c, 0, 51, 64
4, 3263, Note_on_c, 0, 51, 0
4, 3264, Note_on_c, 0, 52, 64
4, 3287, Note_on_c, 0, 52, 0
4, 3288, Note_on_c, 0, 51, 64
4, 3311, Note_on_c, 0, 51, 0
4, 3312, Note_on_c, 0, 52, 64
4, 3335, Note_on_c, 0, 52, 0
4, 3336, Note_on_c, 0, 54, 64
4, 3359, Note_on_c, 0, 54, 0
4, 3360, Note_on_c, 0, 52, 64
4, 3383, Note_on_c, 0, 52, 0
4, 3384, Note_on_c, 0, 50, 64
4, 3407, Note_on_c, 0, 50, 0
4, 3408, Note_on_c, 0, 49, 64
4, 3431, Note_on_c, 0, 49, 0
4, 3432, Note_on_c, 0, 47, 64
4, 3455, Note_on_c, 0, 47, 0
4, 3456, Note_on_c, 0, 45, 64
4, 3501, Note_on_c, 0, 45, 0
4, 3504, Note_on_c, 0, 57, 64
4, 3549, Note_on_c, 0, 57, 0
4, 3552, Note_on_c, 0, 47, 64
4, 3597, Note_on_c, 0, 47, 0
4, 3600, Note_on_c, 0, 57, 64
4, 3645, Note_on_c, 0, 57, 0
4, 3648, Note_on_c, 0, 49, 64
4, 3693, Note_on_c, 0, 49, 0
4, 3696, Note_on_c, 0, 57, 64
4, 3741, Note_on_c, 0, 57, 0
4, 3744, Note_on_c, 0, 45, 64
4, 3789, Note_on_c, 0, 45, 0
4, 3792, Note_on_c, 0, 57, 64
4, 3837, Note_on_c, 0, 57, 0
4, 3840, Note_on_c, 0, 50, 64
4, 3885, Note_on_c, 0, 50, 0
4, 3888, Note_on_c, 0, 57, 64
4, 3933, Note_on_c, 0, 57, 0
4, 3936, Note_on_c, 0, 52, 64
4, 3981, Note_on_c, 0, 52, 0
4, 3984, Note_on_c, 0, 57, 64
4, 4029, Note_on_c, 0, 57, 0
4, 4032, Note_on_c, 0, 54, 64
4, 4077, Note_on_c, 0, 54, 0
4, 4080, Note_on_c, 0, 57, 64
4, 4103, Note_on_c, 0, 57, 0
4, 4104, Note_on_c, 0, 55, 64
4, 4127, Note_on_c, 0, 55, 0
4, 4128, Note_on_c, 0, 57, 64
4, 4173, Note_on_c, 0, 57, 0
4, 4176, Note_on_c, 0, 54, 64
4, 4221, Note_on_c, 0, 54, 0
4, 4224, Note_on_c, 0, 47, 64
4, 4269, Note_on_c, 0, 47, 0
4, 4272, Note_on_c, 0, 59, 64
4, 4317, Note_on_c, 0, 59, 0
4, 4320, Note_on_c, 0, 49, 64
4, 4365, Note_on_c, 0, 49, 0
4, 4368, Note_on_c, 0, 59, 64
4, 4413, Note_on_c, 0, 59, 0
4, 4416, Note_on_c, 0, 51, 64
4, 4461, Note_on_c, 0, 51, 0
4, 4464, Note_on_c, 0, 59, 64
4, 4509, Note_on_c, 0, 59, 0
4, 4512, Note_on_c, 0, 47, 64
4, 4557, Note_on_c, 0, 47, 0
4, 4560, Note_on_c, 0, 59, 64
4, 4605, Note_on_c, 0, 59, 0
4, 4608, Note_on_c, 0, 52, 64
4, 4653, Note_on_c, 0, 52, 0
4, 4656, Note_on_c, 0, 54, 64
4, 4701, Note_on_c, 0, 54, 0
4, 4704, Note_on_c, 0, 55, 64
4, 4749, Note_on_c, 0, 55, 0
4, 4752, Note_on_c, 0, 54, 64
4, 4797, Note_on_c, 0, 54, 0
4, 4800, Note_on_c, 0, 57, 64
4, 4845, Note_on_c, 0, 57, 0
4, 4848, Note_on_c, 0, 52, 64
4, 4893, Note_on_c, 0, 52, 0
4, 4896, Note_on_c, 0, 49, 64
4, 4941, Note_on_c, 0, 49, 0
4, 4944, Note_on_c, 0, 45, 64
4, 4989, Note_on_c, 0, 45, 0
4, 4992, Note_on_c, 0, 50, 64
4, 5037, Note_on_c, 0, 50, 0
4, 5040, Note_on_c, 0, 52, 64
4, 5085, Note_on_c, 0, 52, 0
4, 5088, Note_on_c, 0, 54, 64
4, 5133, Note_on_c, 0, 54, 0
4, 5136, Note_on_c, 0, 50, 64
4, 5181, Note_on_c, 0, 50, 0
4, 5184, Note_on_c, 0, 55, 64
4, 5229, Note_on_c, 0, 55, 0
4, 5232, Note_on_c, 0, 50, 64
4, 5277, Note_on_c, 0, 50, 0
4, 5280, Note_on_c, 0, 47, 64
4, 5325, Note_on_c, 0, 47, 0
4, 5328, Note_on_c, 0, 43, 64
4, 5373, Note_on_c, 0, 43, 0
4, 5376, Note_on_c, 0, 48, 64
4, 5421, Note_on_c, 0, 48, 0
4, 5424, Note_on_c, 0, 52, 64
4, 5469, Note_on_c, 0, 52, 0
4, 5472, Note_on_c, 0, 57, 64
4, 5484, Note_on_c, 0, 57, 0
4, 5484, Note_on_c, 0, 59, 64
4, 5496, Note_on_c, 0, 59, 0
4, 5496, Note_on_c, 0, 57, 64
4, 5563, Note_on_c, 0, 57, 0
4, 5568, Note_on_c, 0, 50, 64
4, 5613, Note_on_c, 0, 50, 0
4, 5616, Note_on_c, 0, 54, 64
4, 5661, Note_on_c, 0, 54, 0
4, 5664, Note_on_c, 0, 59, 64
4, 5676, Note_on_c, 0, 59, 0
4, 5676, Note_on_c, 0, 60, 64
4, 5688, Note_on_c, 0, 60, 0
4, 5688, Note_on_c, 0, 59, 64
4, 5755, Note_on_c, 0, 59, 0
4, 5760, Note_on_c, 0, 52, 64
4, 5805, Note_on_c, 0, 52, 0
4, 5808, Note_on_c, 0, 55, 64
4, 5853, Note_on_c, 0, 55, 0
4, 5856, Note_on_c, 0, 60, 64
4, 5868, Note_on_c, 0, 60, 0
4, 5868, Note_on_c, 0, 62, 64
4, 5880, Note_on_c, 0, 62, 0
4, 5880, Note_on_c, 0, 60, 64
4, 5947, Note_on_c, 0, 60, 0
4, 5952, Note_on_c, 0, 54, 64
4, 5997, Note_on_c, 0, 54, 0
4, 6000, Note_on_c, 0, 57, 64
4, 6045, Note_on_c, 0, 57, 0
4, 6048, Note_on_c, 0, 54, 64
4, 6093, Note_on_c, 0, 54, 0
4, 6096, Note_on_c, 0, 50, 64
4, 6141, Note_on_c, 0, 50, 0
4, 6144, Note_on_c, 0, 43, 64
4, 6167, Note_on_c, 0, 43, 0
4, 6168, Note_on_c, 0, 55, 64
4, 6191, Note_on_c, 0, 55, 0
4, 6192, Note_on_c, 0, 54, 64
4, 6215, Note_on_c, 0, 54, 0
4, 6216, Note_on_c, 0, 55, 64
4, 6239, Note_on_c, 0, 55, 0
4, 6240, Note_on_c, 0, 57, 64
4, 6263, Note_on_c, 0, 57, 0
4, 6264, Note_on_c, 0, 55, 64
4, 6287, Note_on_c, 0, 55, 0
4, 6288, Note_on_c, 0, 54, 64
4, 6311, Note_on_c, 0, 54, 0
4, 6312, Note_on_c, 0, 55, 64
4, 6335, Note_on_c, 0, 55, 0
4, 6336, Note_on_c, 0, 45, 64
4, 6359, Note_on_c, 0, 45, 0
4, 6360, Note_on_c, 0, 55, 64
4, 6383, Note_on_c, 0, 55, 0
4, 6384, Note_on_c, 0, 54, 64
4, 6407, Note_on_c, 0, 54, 0
4, 6408, Note_on_c, 0, 55, 64
4, 6431, Note_on_c, 0, 55, 0
4, 6432, Note_on_c, 0, 57, 64
4, 6455, Note_on_c, 0, 57, 0
4, 6456, Note_on_c, 0, 55, 64
4, 6479, Note_on_c, 0, 55, 0
4, 6480, Note_on_c, 0, 54, 64
4, 6503, Note_on_c, 0, 54, 0
4, 6504, Note_on_c, 0, 55, 64
4, 6527, Note_on_c, 0, 55, 0
4, 6528, Note_on_c, 0, 47, 64
4, 6551, Note_on_c, 0, 47, 0
4, 6552, Note_on_c, 0, 55, 64
4, 6575, Note_on_c, 0, 55, 0
4, 6576, Note_on_c, 0, 54, 64
4, 6599, Note_on_c, 0, 54, 0
4, 6600, Note_on_c, 0, 55, 64
4, 6623, Note_on_c, 0, 55, 0
4, 6624, Note_on_c, 0, 57, 64
4, 6647, Note_on_c, 0, 57, 0
4, 6648, Note_on_c, 0, 55, 64
4, 6671, Note_on_c, 0, 55, 0
4, 6672, Note_on_c, 0, 54, 64
4, 6695, Note_on_c, 0, 54, 0
4, 6696, Note_on_c, 0, 55, 64
4, 6719, Note_on_c, 0, 55, 0
4, 6720, Note_on_c, 0, 48, 64
4, 6743, Note_on_c, 0, 48, 0
4, 6744, Note_on_c, 0, 55, 64
4, 6767, Note_on_c, 0, 55, 0
4, 6768, Note_on_c, 0, 54, 64
4, 6791, Note_on_c, 0, 54, 0
4, 6792, Note_on_c, 0, 55, 64
4, 6815, Note_on_c, 0, 55, 0
4, 6816, Note_on_c, 0, 57, 64
4, 6839, Note_on_c, 0, 57, 0
4, 6840, Note_on_c, 0, 55, 64
4, 6863, Note_on_c, 0, 55, 0
4, 6864, Note_on_c, 0, 54, 64
4, 6887, Note_on_c, 0, 54, 0
4, 6888, Note_on_c, 0, 55, 64
4, 6911, Note_on_c, 0, 55, 0
4, 6912, Note_on_c, 0, 50, 64
4, 7089, Note_on_c, 0, 50, 0
4, 7104, Note_on_c, 0, 50, 64
4, 7281, Note_on_c, 0, 50, 0
4, 7296, Note_on_c, 0, 54, 64
4, 7385, Note_on_c, 0, 54, 0
4, 7392, Note_on_c, 0, 55, 64
4, 7481, Note_on_c, 0, 55, 0
4, 7488, Note_on_c, 0, 52, 64
4, 7577, Note_on_c, 0, 52, 0
4, 7584, Note_on_c, 0, 55, 64
4, 7673, Note_on_c, 0, 55, 0
4, 7680, Note_on_c, 0, 57, 100
4, 7680, Note_on_c, 0, 50, 64
4, 7725, Note_on_c, 0, 50, 0
4, 7728, Note_on_c, 0, 54, 64
4, 7773, Note_on_c, 0, 54, 0
4, 7776, Note_on_c, 0, 57, 0
4, 7776, Note_on_c, 0, 45, 64
4, 7821, Note_on_c, 0, 45, 0
4, 7824, Note_on_c, 0, 50, 64
4, 7869, Note_on_c, 0, 50, 0
4, 7872, Note_on_c, 0, 42, 64
4, 7917, Note_on_c, 0, 42, 0
4, 7920, Note_on_c, 0, 50, 64
4, 7965, Note_on_c, 0, 50, 0
4, 7968, Note_on_c, 0, 45, 64
4, 8013, Note_on_c, 0, 45, 0
4, 8016, Note_on_c, 0, 42, 64
4, 8061, Note_on_c, 0, 42, 0
4, 8064, Note_on_c, 0, 38, 64
4, 8109, Note_on_c, 0, 38, 0
4, 8112, Note_on_c, 0, 42, 64
4, 8157, Note_on_c, 0, 42, 0
4, 8160, Note_on_c, 0, 45, 64
4, 8205, Note_on_c, 0, 45, 0
4, 8208, Note_on_c, 0, 50, 64
4, 8253, Note_on_c, 0, 50, 0
4, 8256, Note_on_c, 0, 52, 64
4, 8301, Note_on_c, 0, 52, 0
4, 8304, Note_on_c, 0, 48, 64
4, 8349, Note_on_c, 0, 48, 0
4, 8352, Note_on_c, 0, 45, 64
4, 8397, Note_on_c, 0, 45, 0
4, 8400, Note_on_c, 0, 50, 64
4, 8445, Note_on_c, 0, 50, 0
4, 8448, Note_on_c, 0, 55, 64
4, 8493, Note_on_c, 0, 55, 0
4, 8496, Note_on_c, 0, 59, 64
4, 8541, Note_on_c, 0, 59, 0
4, 8544, Note_on_c, 0, 52, 64
4, 8589, Note_on_c, 0, 52, 0
4, 8592, Note_on_c, 0, 55, 64
4, 8637, Note_on_c, 0, 55, 0
4, 8640, Note_on_c, 0, 48, 64
4, 8729, Note_on_c, 0, 48, 0
4, 8736, Note_on_c, 0, 50, 64
4, 8825, Note_on_c, 0, 50, 0
4, 8832, Note_on_c, 0, 55, 64
4, 9009, Note_on_c, 0, 55, 0
4, 9048, Note_on_c, 0, 50, 64
4, 9071, Note_on_c, 0, 50, 0
4, 9072, Note_on_c, 0, 47, 64
4, 9095, Note_on_c, 0, 47, 0
4, 9096, Note_on_c, 0, 50, 64
4, 9119, Note_on_c, 0, 50, 0
4, 9120, Note_on_c, 0, 43, 64
4, 9209, Note_on_c, 0, 43, 0
4, 9216, Note_on_c, 0, 40, 64
4, 9261, Note_on_c, 0, 40, 0
4, 9264, Note_on_c, 0, 52, 64
4, 9309, Note_on_c, 0, 52, 0
4, 9312, Note_on_c, 0, 42, 64
4, 9357, Note_on_c, 0, 42, 0
4, 9360, Note_on_c, 0, 51, 64
4, 9405, Note_on_c, 0, 51, 0
4, 9408, Note_on_c, 0, 43, 64
4, 9453, Note_on_c, 0, 43, 0
4, 9456, Note_on_c, 0, 52, 64
4, 9501, Note_on_c, 0, 52, 0
4, 9504, Note_on_c, 0, 45, 64
4, 9549, Note_on_c, 0, 45, 0
4, 9552, Note_on_c, 0, 55, 64
4, 9597, Note_on_c, 0, 55, 0
4, 9600, Note_on_c, 0, 47, 64
4, 9645, Note_on_c, 0, 47, 0
4, 9648, Note_on_c, 0, 54, 64
4, 9693, Note_on_c, 0, 54, 0
4, 9696, Note_on_c, 0, 49, 64
4, 9741, Note_on_c, 0, 49, 0
4, 9744, Note_on_c, 0, 54, 64
4, 9789, Note_on_c, 0, 54, 0
4, 9792, Note_on_c, 0, 51, 64
4, 9837, Note_on_c, 0, 51, 0
4, 9840, Note_on_c, 0, 52, 64
4, 9863, Note_on_c, 0, 52, 0
4, 9864, Note_on_c, 0, 54, 64
4, 9887, Note_on_c, 0, 54, 0
4, 9888, Note_on_c, 0, 52, 64
4, 9911, Note_on_c, 0, 52, 0
4, 9912, Note_on_c, 0, 51, 64
4, 9935, Note_on_c, 0, 51, 0
4, 9936, Note_on_c, 0, 49, 64
4, 9959, Note_on_c, 0, 49, 0
4, 9960, Note_on_c, 0, 47, 64
4, 9983, Note_on_c, 0, 47, 0
4, 9984, Note_on_c, 0, 52, 64
4, 10029, Note_on_c, 0, 52, 0
4, 10032, Note_on_c, 0, 47, 64
4, 10077, Note_on_c, 0, 47, 0
4, 10080, Note_on_c, 0, 54, 64
4, 10125, Note_on_c, 0, 54, 0
4, 10128, Note_on_c, 0, 47, 64
4, 10173, Note_on_c, 0, 47, 0
4, 10176, Note_on_c, 0, 55, 64
4, 10221, Note_on_c, 0, 55, 0
4, 10224, Note_on_c, 0, 57, 64
4, 10247, Note_on_c, 0, 57, 0
4, 10248, Note_on_c, 0, 59, 64
4, 10271, Note_on_c, 0, 59, 0
4, 10272, Note_on_c, 0, 57, 64
4, 10295, Note_on_c, 0, 57, 0
4, 10296, Note_on_c, 0, 55, 64
4, 10319, Note_on_c, 0, 55, 0
4, 10320, Note_on_c, 0, 54, 64
4, 10343, Note_on_c, 0, 54, 0
4, 10344, Note_on_c, 0, 52, 64
4, 10367, Note_on_c, 0, 52, 0
4, 10368, Note_on_c, 0, 59, 64
4, 10413, Note_on_c, 0, 59, 0
4, 10416, Note_on_c, 0, 47, 64
4, 10461, Note_on_c, 0, 47, 0
4, 10464, Note_on_c, 0, 59, 64
4, 10509, Note_on_c, 0, 59, 0
4, 10512, Note_on_c, 0, 61, 64
4, 10557, Note_on_c, 0, 61, 0
4, 10560, Note_on_c, 0, 63, 64
4, 10605, Note_on_c, 0, 63, 0
4, 10608, Note_on_c, 0, 64, 64
4, 10631, Note_on_c, 0, 64, 0
4, 10632, Note_on_c, 0, 66, 64
4, 10655, Note_on_c, 0, 66, 0
4, 10656, Note_on_c, 0, 64, 64
4, 10679, Note_on_c, 0, 64, 0
4, 10680, Note_on_c, 0, 63, 64
4, 10703, Note_on_c, 0, 63, 0
4, 10704, Note_on_c, 0, 61, 64
4, 10727, Note_on_c, 0, 61, 0
4, 10728, Note_on_c, 0, 59, 64
4, 10751, Note_on_c, 0, 59, 0
4, 10752, Note_on_c, 0, 64, 64
4, 10797, Note_on_c, 0, 64, 0
4, 10800, Note_on_c, 0, 52, 64
4, 10845, Note_on_c, 0, 52, 0
4, 10848, Note_on_c, 0, 64, 64
4, 10893, Note_on_c, 0, 64, 0
4, 10896, Note_on_c, 0, 62, 64
4, 10941, Note_on_c, 0, 62, 0
4, 10944, Note_on_c, 0, 60, 64
4, 10989, Note_on_c, 0, 60, 0
4, 10992, Note_on_c, 0, 62, 64
4, 11015, Note_on_c, 0, 62, 0
4, 11016, Note_on_c, 0, 64, 64
4, 11039, Note_on_c, 0, 64, 0
4, 11040, Note_on_c, 0, 62, 64
4, 11063, Note_on_c, 0, 62, 0
4, 11064, Note_on_c, 0, 60, 64
4, 11087, Note_on_c, 0, 60, 0
4, 11088, Note_on_c, 0, 59, 64
4, 11111, Note_on_c, 0, 59, 0
4, 11112, Note_on_c, 0, 57, 64
4, 11135, Note_on_c, 0, 57, 0
4, 11136, Note_on_c, 0, 62, 64
4, 11181, Note_on_c, 0, 62, 0
4, 11184, Note_on_c, 0, 50, 64
4, 11229, Note_on_c, 0, 50, 0
4, 11232, Note_on_c, 0, 62, 64
4, 11277, Note_on_c, 0, 62, 0
4, 11280, Note_on_c, 0, 60, 64
4, 11325, Note_on_c, 0, 60, 0
4, 11328, Note_on_c, 0, 59, 64
4, 11373, Note_on_c, 0, 59, 0
4, 11376, Note_on_c, 0, 60, 64
4, 11399, Note_on_c, 0, 60, 0
4, 11400, Note_on_c, 0, 62, 64
4, 11423, Note_on_c, 0, 62, 0
4, 11424, Note_on_c, 0, 60, 64
4, 11447, Note_on_c, 0, 60, 0
4, 11448, Note_on_c, 0, 59, 64
4, 11471, Note_on_c, 0, 59, 0
4, 11472, Note_on_c, 0, 57, 64
4, 11495, Note_on_c, 0, 57, 0
4, 11496, Note_on_c, 0, 55, 64
4, 11519, Note_on_c, 0, 55, 0
4, 11520, Note_on_c, 0, 60, 64
4, 11565, Note_on_c, 0, 60, 0
4, 11568, Note_on_c, 0, 48, 64
4, 11613, Note_on_c, 0, 48, 0
4, 11616, Note_on_c, 0, 60, 64
4, 11661, Note_on_c, 0, 60, 0
4, 11664, Note_on_c, 0, 59, 64
4, 11709, Note_on_c, 0, 59, 0
4, 11712, Note_on_c, 0, 57, 64
4, 11757, Note_on_c, 0, 57, 0
4, 11760, Note_on_c, 0, 60, 64
4, 11805, Note_on_c, 0, 60, 0
4, 11808, Note_on_c, 0, 54, 64
4, 11853, Note_on_c, 0, 54, 0
4, 11856, Note_on_c, 0, 57, 64
4, 11901, Note_on_c, 0, 57, 0
4, 11904, Note_on_c, 0, 59, 64
4, 11927, Note_on_c, 0, 59, 0
4, 11928, Note_on_c, 0, 47, 64
4, 11951, Note_on_c, 0, 47, 0
4, 11952, Note_on_c, 0, 49, 64
4, 11975, Note_on_c, 0, 49, 0
4, 11976, Note_on_c, 0, 51, 64
4, 11999, Note_on_c, 0, 51, 0
4, 12000, Note_on_c, 0, 52, 64
4, 12023, Note_on_c, 0, 52, 0
4, 12024, Note_on_c, 0, 54, 64
4, 12047, Note_on_c, 0, 54, 0
4, 12048, Note_on_c, 0, 55, 64
4, 12071, Note_on_c, 0, 55, 0
4, 12072, Note_on_c, 0, 57, 64
4, 12095, Note_on_c, 0, 57, 0
4, 12096, Note_on_c, 0, 59, 64
4, 12119, Note_on_c, 0, 59, 0
4, 12120, Note_on_c, 0, 57, 64
4, 12143, Note_on_c, 0, 57, 0
4, 12144, Note_on_c, 0, 59, 64
4, 12167, Note_on_c, 0, 59, 0
4, 12168, Note_on_c, 0, 60, 64
4, 12191, Note_on_c, 0, 60, 0
4, 12192, Note_on_c, 0, 59, 64
4, 12215, Note_on_c, 0, 59, 0
4, 12216, Note_on_c, 0, 57, 64
4, 12239, Note_on_c, 0, 57, 0
4, 12240, Note_on_c, 0, 55, 64
4, 12263, Note_on_c, 0, 55, 0
4, 12264, Note_on_c, 0, 54, 64
4, 12287, Note_on_c, 0, 54, 0
4, 12288, Note_on_c, 0, 55, 64
4, 12311, Note_on_c, 0, 55, 0
4, 12312, Note_on_c, 0, 54, 64
4, 12335, Note_on_c, 0, 54, 0
4, 12336, Note_on_c, 0, 55, 64
4, 12359, Note_on_c, 0, 55, 0
4, 12360, Note_on_c, 0, 57, 64
4, 12383, Note_on_c, 0, 57, 0
4, 12384, Note_on_c, 0, 55, 64
4, 12407, Note_on_c, 0, 55, 0
4, 12408, Note_on_c, 0, 54, 64
4, 12431, Note_on_c, 0, 54, 0
4, 12432, Note_on_c, 0, 52, 64
4, 12455, Note_on_c, 0, 52, 0
4, 12456, Note_on_c, 0, 51, 64
4, 12479, Note_on_c, 0, 51, 0
4, 12480, Note_on_c, 0, 52, 64
4, 12503, Note_on_c, 0, 52, 0
4, 12504, Note_on_c, 0, 51, 64
4, 12527, Note_on_c, 0, 51, 0
4, 12528, Note_on_c, 0, 52, 64
4, 12551, Note_on_c, 0, 52, 0
4, 12552, Note_on_c, 0, 54, 64
4, 12575, Note_on_c, 0, 54, 0
4, 12576, Note_on_c, 0, 52, 64
4, 12599, Note_on_c, 0, 52, 0
4, 12600, Note_on_c, 0, 50, 64
4, 12623, Note_on_c, 0, 50, 0
4, 12624, Note_on_c, 0, 49, 64
4, 12647, Note_on_c, 0, 49, 0
4, 12648, Note_on_c, 0, 47, 64
4, 12671, Note_on_c, 0, 47, 0
4, 12672, Note_on_c, 0, 45, 64
4, 12717, Note_on_c, 0, 45, 0
4, 12720, Note_on_c, 0, 57, 64
4, 12765, Note_on_c, 0, 57, 0
4, 12768, Note_on_c, 0, 47, 64
4, 12813, Note_on_c, 0, 47, 0
4, 12816, Note_on_c, 0, 57, 64
4, 12861, Note_on_c, 0, 57, 0
4, 12864, Note_on_c, 0, 49, 64
4, 12909, Note_on_c, 0, 49, 0
4, 12912, Note_on_c, 0, 57, 64
4, 12957, Note_on_c, 0, 57, 0
4, 12960, Note_on_c, 0, 45, 64
4, 13005, Note_on_c, 0, 45, 0
4, 13008, Note_on_c, 0, 57, 64
4, 13053, Note_on_c, 0, 57, 0
4, 13056, Note_on_c, 0, 50, 64
4, 13101, Note_on_c, 0, 50, 0
4, 13104, Note_on_c, 0, 57, 64
4, 13149, Note_on_c, 0, 57, 0
4, 13152, Note_on_c, 0, 52, 64
4, 13197, Note_on_c, 0, 52, 0
4, 13200, Note_on_c, 0, 57, 64
4, 13245, Note_on_c, 0, 57, 0
4, 13248, Note_on_c, 0, 54, 64
4, 13293, Note_on_c, 0, 54, 0
4, 13296, Note_on_c, 0, 57, 64
4, 13319, Note_on_c, 0, 57, 0
4, 13320, Note_on_c, 0, 55, 64
4, 13343, Note_on_c, 0, 55, 0
4, 13344, Note_on_c, 0, 57, 64
4, 13389, Note_on_c, 0, 57, 0
4, 13392, Note_on_c, 0, 54, 64
4, 13437, Note_on_c, 0, 54, 0
4, 13440, Note_on_c, 0, 47, 64
4, 13485, Note_on_c, 0, 47, 0
4, 13488, Note_on_c, 0, 59, 64
4, 13533, Note_on_c, 0, 59, 0
4, 13536, Note_on_c, 0, 49, 64
4, 13581, Note_on_c, 0, 49, 0
4, 13584, Note_on_c, 0, 59, 64
4, 13629, Note_on_c, 0, 59, 0
4, 13632, Note_on_c, 0, 51, 64
4, 13677, Note_on_c, 0, 51, 0
4, 13680, Note_on_c, 0, 59, 64
4, 13725, Note_on_c, 0, 59, 0
4, 13728, Note_on_c, 0, 47, 64
4, 13773, Note_on_c, 0, 47, 0
4, 13776, Note_on_c, 0, 59, 64
4, 13821, Note_on_c, 0, 59, 0
4, 13824, Note_on_c, 0, 52, 64
4, 13869, Note_on_c, 0, 52, 0
4, 13872, Note_on_c, 0, 54, 64
4, 13917, Note_on_c, 0, 54, 0
4, 13920, Note_on_c, 0, 55, 64
4, 13965, Note_on_c, 0, 55, 0
4, 13968, Note_on_c, 0, 54, 64
4, 14013, Note_on_c, 0, 54, 0
4, 14016, Note_on_c, 0, 57, 64
4, 14061, Note_on_c, 0, 57, 0
4, 14064, Note_on_c, 0, 52, 64
4, 14109, Note_on_c, 0, 52, 0
4, 14112, Note_on_c, 0, 49, 64
4, 14157, Note_on_c, 0, 49, 0
4, 14160, Note_on_c, 0, 45, 64
4, 14205, Note_on_c, 0, 45, 0
4, 14208, Note_on_c, 0, 50, 64
4, 14253, Note_on_c, 0, 50, 0
4, 14256, Note_on_c, 0, 52, 64
4, 14301, Note_on_c, 0, 52, 0
4, 14304, Note_on_c, 0, 54, 64
4, 14349, Note_on_c, 0, 54, 0
4, 14352, Note_on_c, 0, 50, 64
4, 14397, Note_on_c, 0, 50, 0
4, 14400, Note_on_c, 0, 55, 64
4, 14445, Note_on_c, 0, 55, 0
4, 14448, Note_on_c, 0, 50, 64
4, 14493, Note_on_c, 0, 50, 0
4, 14496, Note_on_c, 0, 47, 64
4, 14541, Note_on_c, 0, 47, 0
4, 14544, Note_on_c, 0, 43, 64
4, 14589, Note_on_c, 0, 43, 0
4, 14592, Note_on_c, 0, 48, 64
4, 14637, Note_on_c, 0, 48, 0
4, 14640, Note_on_c, 0, 52, 64
4, 14685, Note_on_c, 0, 52, 0
4, 14688, Note_on_c, 0, 57, 64
4, 14700, Note_on_c, 0, 57, 0
4, 14700, Note_on_c, 0, 59, 64
4, 14712, Note_on_c, 0, 59, 0
4, 14712, Note_on_c, 0, 57, 64
4, 14779, Note_on_c, 0, 57, 0
4, 14784, Note_on_c, 0, 50, 64
4, 14829, Note_on_c, 0, 50, 0
4, 14832, Note_on_c, 0, 54, 64
4, 14877, Note_on_c, 0, 54, 0
4, 14880, Note_on_c, 0, 59, 64
4, 14892, Note_on_c, 0, 59, 0
4, 14892, Note_on_c, 0, 60, 64
4, 14904, Note_on_c, 0, 60, 0
4, 14904, Note_on_c, 0, 59, 64
4, 14971, Note_on_c, 0, 59, 0
4, 14976, Note_on_c, 0, 52, 64
4, 15021, Note_on_c, 0, 52, 0
4, 15024, Note_on_c, 0, 55, 64
4, 15069, Note_on_c, 0, 55, 0
4, 15072, Note_on_c, 0, 60, 64
4, 15084, Note_on_c, 0, 60, 0
4, 15084, Note_on_c, 0, 62, 64
4, 15096, Note_on_c, 0, 62, 0
4, 15096, Note_on_c, 0, 60, 64
4, 15163, Note_on_c, 0, 60, 0
4, 15168, Note_on_c, 0, 54, 64
4, 15213, Note_on_c, 0, 54, 0
4, 15216, Note_on_c, 0, 57, 64
4, 15261, Note_on_c, 0, 57, 0
4, 15264, Note_on_c, 0, 54, 64
4, 15309, Note_on_c, 0, 54, 0
4, 15312, Note_on_c, 0, 50, 64
4, 15357, Note_on_c, 0, 50, 0
4, 15360, Note_on_c, 0, 43, 64
4, 15383, Note_on_c, 0, 43, 0
4, 15384, Note_on_c, 0, 55, 64
4, 15407, Note_on_c, 0, 55, 0
4, 15408, Note_on_c, 0, 54, 64
4, 15431, Note_on_c, 0, 54, 0
4, 15432, Note_on_c, 0, 55, 64
4, 15455, Note_on_c, 0, 55, 0
4, 15456, Note_on_c, 0, 57, 64
4, 15479, Note_on_c, 0, 57, 0
4, 15480, Note_on_c, 0, 55, 64
4, 15503, Note_on_c, 0, 55, 0
4, 15504, Note_on_c, 0, 54, 64
4, 15527, Note_on_c, 0, 54, 0
4, 15528, Note_on_c, 0, 55, 64
4, 15551, Note_on_c, 0, 55, 0
4, 15552, Note_on_c, 0, 45, 64
4, 15575, Note_on_c, 0, 45, 0
4, 15576, Note_on_c, 0, 55, 64
4, 15599, Note_on_c, 0, 55, 0
4, 15600, Note_on_c, 0, 54, 64
4, 15623, Note_on_c, 0, 54, 0
4, 15624, Note_on_c, 0, 55, 64
4, 15647, Note_on_c, 0, 55, 0
4, 15648, Note_on_c, 0, 57, 64
4, 15671, Note_on_c, 0, 57, 0
4, 15672, Note_on_c, 0, 55, 64
4, 15695, Note_on_c, 0, 55, 0
4, 15696, Note_on_c, 0, 54, 64
4, 15719, Note_on_c, 0, 54, 0
4, 15720, Note_on_c, 0, 55, 64
4, 15743, Note_on_c, 0, 55, 0
4, 15744, Note_on_c, 0, 47, 64
4, 15767, Note_on_c, 0, 47, 0
4, 15768, Note_on_c, 0, 55, 64
4, 15791, Note_on_c, 0, 55, 0
4, 15792, Note_on_c, 0, 54, 64
4, 15815, Note_on_c, 0, 54, 0
4, 15816, Note_on_c, 0, 55, 64
4, 15839, Note_on_c, 0, 55, 0
4, 15840, Note_on_c, 0, 57, 64
4, 15863, Note_on_c, 0, 57, 0
4, 15864, Note_on_c, 0, 55, 64
4, 15887, Note_on_c, 0, 55, 0
4, 15888, Note_on_c, 0, 54, 64
4, 15911, Note_on_c, 0, 54, 0
4, 15912, Note_on_c, 0, 55, 64
4, 15935, Note_on_c, 0, 55, 0
4, 15936, Note_on_c, 0, 48, 64
4, 15959, Note_on_c, 0, 48, 0
4, 15960, Note_on_c, 0, 55, 64
4, 15983, Note_on_c, 0, 55, 0
4, 15984, Note_on_c, 0, 54, 64
4, 16007, Note_on_c, 0, 54, 0
4, 16008, Note_on_c, 0, 55, 64
4, 16031, Note_on_c, 0, 55, 0
4, 16032, Note_on_c, 0, 57, 64
4, 16055, Note_on_c, 0, 57, 0
4, 16056, Note_on_c, 0, 55, 64
4, 16079, Note_on_c, 0, 55, 0
4, 16080, Note_on_c, 0, 54, 64
4, 16103, Note_on_c, 0, 54, 0
4, 16104, Note_on_c, 0, 55, 64
4, 16127, Note_on_c, 0, 55, 0
4, 16128, Note_on_c, 0, 50, 64
4, 16305, Note_on_c, 0, 50, 0
4, 16320, Note_on_c, 0, 50, 64
4, 16497, Note_on_c, 0, 50, 0
4, 16512, Note_on_c, 0, 54, 64
4, 16601, Note_on_c, 0, 54, 0
4, 16608, Note_on_c, 0, 55, 64
4, 16697, Note_on_c, 0, 55, 0
4, 16704, Note_on_c, 0, 52, 64
4, 16793, Note_on_c, 0, 52, 0
4, 16800, Note_on_c, 0, 55, 64
4, 16889, Note_on_c, 0, 55, 0
4, 16896, Note_on_c, 0, 50, 64
4, 16941, Note_on_c, 0, 50, 0
4, 16944, Note_on_c, 0, 54, 64
4, 16989, Note_on_c, 0, 54, 0
4, 16992, Note_on_c, 0, 45, 64
4, 17037, Note_on_c, 0, 45, 0
4, 17040, Note_on_c, 0, 50, 64
4, 17085, Note_on_c, 0, 50, 0
4, 17088, Note_on_c, 0, 42, 64
4, 17133, Note_on_c, 0, 42, 0
4, 17136, Note_on_c, 0, 50, 64
4, 17181, Note_on_c, 0, 50, 0
4, 17184, Note_on_c, 0, 45, 64
4, 17229, Note_on_c, 0, 45, 0
4, 17232, Note_on_c, 0, 42, 64
4, 17277, Note_on_c, 0, 42, 0
4, 17280, Note_on_c, 0, 38, 64
4, 17325, Note_on_c, 0, 38, 0
4, 17328, Note_on_c, 0, 42, 64
4, 17373, Note_on_c, 0, 42, 0
4, 17376, Note_on_c, 0, 45, 64
4, 17421, Note_on_c, 0, 45, 0
4, 17424, Note_on_c, 0, 50, 64
4, 17469, Note_on_c, 0, 50, 0
4, 17472, Note_on_c, 0, 52, 64
4, 17517, Note_on_c, 0, 52, 0
4, 17520, Note_on_c, 0, 48, 64
4, 17565, Note_on_c, 0, 48, 0
4, 17568, Note_on_c, 0, 45, 64
4, 17613, Note_on_c, 0, 45, 0
4, 17616, Note_on_c, 0, 50, 64
4, 17661, Note_on_c, 0, 50, 0
4, 17664, Note_on_c, 0, 55, 64
4, 17709, Note_on_c, 0, 55, 0
4, 17712, Note_on_c, 0, 59, 64
4, 17757, Note_on_c, 0, 59, 0
4, 17760, Note_on_c, 0, 52, 64
4, 17805, Note_on_c, 0, 52, 0
4, 17808, Note_on_c, 0, 55, 64
4, 17853, Note_on_c, 0, 55, 0
4, 17856, Note_on_c, 0, 48, 64
4, 17945, Note_on_c, 0, 48, 0
4, 17952, Note_on_c, 0, 50, 64
4, 18041, Note_on_c, 0, 50, 0
4, 18048, Note_on_c, 0, 55, 64
4, 18225, Note_on_c, 0, 55, 0
4, 18264, Note_on_c, 0, 50, 64
4, 18287, Note_on_c, 0, 50, 0
4, 18288, Note_on_c, 0, 47, 64
4, 18311, Note_on_c, 0, 47, 0
4, 18312, Note_on_c, 0, 50, 64
4, 18335, Note_on_c, 0, 50, 0
4, 18336, Note_on_c, 0, 43, 64
4, 18425, Note_on_c, 0, 43, 0
4, 18432, Note_on_c, 0, 43, 64
4, 18477, Note_on_c, 0, 43, 0
4, 18480, Note_on_c, 0, 55, 64
4, 18525, Note_on_c, 0, 55, 0
4, 18528, Note_on_c, 0, 45, 64
4, 18573, Note_on_c, 0, 45, 0
4, 18576, Note_on_c, 0, 54, 64
4, 18621, Note_on_c, 0, 54, 0
4, 18624, Note_on_c, 0, 47, 64
4, 18669, Note_on_c, 0, 47, 0
4, 18672, Note_on_c, 0, 55, 64
4, 18717, Note_on_c, 0, 55, 0
4, 18720, Note_on_c, 0, 49, 64
4, 18765, Note_on_c, 0, 49, 0
4, 18768, Note_on_c, 0, 57, 64
4, 18813, Note_on_c, 0, 57, 0
4, 18816, Note_on_c, 0, 50, 64
4, 18861, Note_on_c, 0, 50, 0
4, 18864, Note_on_c, 0, 57, 64
4, 18909, Note_on_c, 0, 57, 0
4, 18912, Note_on_c, 0, 52, 64
4, 18957, Note_on_c, 0, 52, 0
4, 18960, Note_on_c, 0, 57, 64
4, 19005, Note_on_c, 0, 57, 0
4, 19008, Note_on_c, 0, 54, 64
4, 19031, Note_on_c, 0, 54, 0
4, 19032, Note_on_c, 0, 59, 64
4, 19055, Note_on_c, 0, 59, 0
4, 19056, Note_on_c, 0, 57, 64
4, 19079, Note_on_c, 0, 57, 0
4, 19080, Note_on_c, 0, 56, 64
4, 19103, Note_on_c, 0, 56, 0
4, 19104, Note_on_c, 0, 57, 64
4, 19127, Note_on_c, 0, 57, 0
4, 19128, Note_on_c, 0, 56, 64
4, 19151, Note_on_c, 0, 56, 0
4, 19152, Note_on_c, 0, 54, 64
4, 19175, Note_on_c, 0, 54, 0
4, 19176, Note_on_c, 0, 52, 64
4, 19199, Note_on_c, 0, 52, 0
4, 19200, Note_on_c, 0, 57, 64
4, 19245, Note_on_c, 0, 57, 0
4, 19248, Note_on_c, 0, 45, 64
4, 19293, Note_on_c, 0, 45, 0
4, 19296, Note_on_c, 0, 47, 64
4, 19341, Note_on_c, 0, 47, 0
4, 19344, Note_on_c, 0, 56, 64
4, 19389, Note_on_c, 0, 56, 0
4, 19392, Note_on_c, 0, 48, 64
4, 19437, Note_on_c, 0, 48, 0
4, 19440, Note_on_c, 0, 57, 64
4, 19485, Note_on_c, 0, 57, 0
4, 19488, Note_on_c, 0, 53, 64
4, 19533, Note_on_c, 0, 53, 0
4, 19536, Note_on_c, 0, 51, 64
4, 19581, Note_on_c, 0, 51, 0
4, 19584, Note_on_c, 0, 52, 64
4, 19629, Note_on_c, 0, 52, 0
4, 19632, Note_on_c, 0, 40, 64
4, 19677, Note_on_c, 0, 40, 0
4, 19680, Note_on_c, 0, 52, 64
4, 19725, Note_on_c, 0, 52, 0
4, 19728, Note_on_c, 0, 54, 64
4, 19773, Note_on_c, 0, 54, 0
4, 19776, Note_on_c, 0, 56, 64
4, 19821, Note_on_c, 0, 56, 0
4, 19824, Note_on_c, 0, 59, 64
4, 19869, Note_on_c, 0, 59, 0
4, 19872, Note_on_c, 0, 52, 64
4, 19917, Note_on_c, 0, 52, 0
4, 19920, Note_on_c, 0, 56, 64
4, 19965, Note_on_c, 0, 56, 0
4, 19968, Note_on_c, 0, 57, 64
4, 20013, Note_on_c, 0, 57, 0
4, 20016, Note_on_c, 0, 45, 64
4, 20061, Note_on_c, 0, 45, 0
4, 20064, Note_on_c, 0, 57, 64
4, 20109, Note_on_c, 0, 57, 0
4, 20112, Note_on_c, 0, 55, 64
4, 20157, Note_on_c, 0, 55, 0
4, 20160, Note_on_c, 0, 53, 64
4, 20205, Note_on_c, 0, 53, 0
4, 20208, Note_on_c, 0, 57, 64
4, 20253, Note_on_c, 0, 57, 0
4, 20256, Note_on_c, 0, 53, 64
4, 20301, Note_on_c, 0, 53, 0
4, 20304, Note_on_c, 0, 50, 64
4, 20349, Note_on_c, 0, 50, 0
4, 20352, Note_on_c, 0, 55, 64
4, 20397, Note_on_c, 0, 55, 0
4, 20400, Note_on_c, 0, 43, 64
4, 20445, Note_on_c, 0, 43, 0
4, 20448, Note_on_c, 0, 55, 64
4, 20493, Note_on_c, 0, 55, 0
4, 20496, Note_on_c, 0, 53, 64
4, 20541, Note_on_c, 0, 53, 0
4, 20544, Note_on_c, 0, 52, 64
4, 20589, Note_on_c, 0, 52, 0
4, 20592, Note_on_c, 0, 55, 64
4, 20637, Note_on_c, 0, 55, 0
4, 20640, Note_on_c, 0, 52, 64
4, 20685, Note_on_c, 0, 52, 0
4, 20688, Note_on_c, 0, 48, 64
4, 20733, Note_on_c, 0, 48, 0
4, 20736, Note_on_c, 0, 53, 64
4, 20759, Note_on_c, 0, 53, 0
4, 20760, Note_on_c, 0, 55, 64
4, 20783, Note_on_c, 0, 55, 0
4, 20784, Note_on_c, 0, 53, 64
4, 20807, Note_on_c, 0, 53, 0
4, 20808, Note_on_c, 0, 52, 64
4, 20831, Note_on_c, 0, 52, 0
4, 20832, Note_on_c, 0, 53, 64
4, 20855, Note_on_c, 0, 53, 0
4, 20856, Note_on_c, 0, 52, 64
4, 20879, Note_on_c, 0, 52, 0
4, 20880, Note_on_c, 0, 50, 64
4, 20903, Note_on_c, 0, 50, 0
4, 20904, Note_on_c, 0, 48, 64
4, 20927, Note_on_c, 0, 48, 0
4, 20928, Note_on_c, 0, 50, 64
4, 20951, Note_on_c, 0, 50, 0
4, 20952, Note_on_c, 0, 52, 64
4, 20975, Note_on_c, 0, 52, 0
4, 20976, Note_on_c, 0, 50, 64
4, 20999, Note_on_c, 0, 50, 0
4, 21000, Note_on_c, 0, 48, 64
4, 21023, Note_on_c, 0, 48, 0
4, 21024, Note_on_c, 0, 50, 64
4, 21047, Note_on_c, 0, 50, 0
4, 21048, Note_on_c, 0, 48, 64
4, 21071, Note_on_c, 0, 48, 0
4, 21072, Note_on_c, 0, 47, 64
4, 21095, Note_on_c, 0, 47, 0
4, 21096, Note_on_c, 0, 45, 64
4, 21119, Note_on_c, 0, 45, 0
4, 21120, Note_on_c, 0, 47, 64
4, 21143, Note_on_c, 0, 47, 0
4, 21144, Note_on_c, 0, 48, 64
4, 21167, Note_on_c, 0, 48, 0
4, 21168, Note_on_c, 0, 50, 64
4, 21191, Note_on_c, 0, 50, 0
4, 21192, Note_on_c, 0, 52, 64
4, 21215, Note_on_c, 0, 52, 0
4, 21216, Note_on_c, 0, 50, 64
4, 21239, Note_on_c, 0, 50, 0
4, 21240, Note_on_c, 0, 48, 64
4, 21263, Note_on_c, 0, 48, 0
4, 21264, Note_on_c, 0, 47, 64
4, 21287, Note_on_c, 0, 47, 0
4, 21288, Note_on_c, 0, 45, 64
4, 21311, Note_on_c, 0, 45, 0
4, 21312, Note_on_c, 0, 44, 64
4, 21335, Note_on_c, 0, 44, 0
4, 21336, Note_on_c, 0, 45, 64
4, 21359, Note_on_c, 0, 45, 0
4, 21360, Note_on_c, 0, 47, 64
4, 21383, Note_on_c, 0, 47, 0
4, 21384, Note_on_c, 0, 48, 64
4, 21407, Note_on_c, 0, 48, 0
4, 21408, Note_on_c, 0, 50, 64
4, 21431, Note_on_c, 0, 50, 0
4, 21432, Note_on_c, 0, 52, 64
4, 21455, Note_on_c, 0, 52, 0
4, 21456, Note_on_c, 0, 54, 64
4, 21479, Note_on_c, 0, 54, 0
4, 21480, Note_on_c, 0, 56, 64
4, 21503, Note_on_c, 0, 56, 0
4, 21504, Note_on_c, 0, 57, 64
4, 21549, Note_on_c, 0, 57, 0
4, 21552, Note_on_c, 0, 45, 64
4, 21597, Note_on_c, 0, 45, 0
4, 21648, Note_on_c, 0, 52, 64
4, 21671, Note_on_c, 0, 52, 0
4, 21672, Note_on_c, 0, 53, 64
4, 21695, Note_on_c, 0, 53, 0
4, 21696, Note_on_c, 0, 55, 64
4, 21719, Note_on_c, 0, 55, 0
4, 21720, Note_on_c, 0, 58, 64
4, 21743, Note_on_c, 0, 58, 0
4, 21744, Note_on_c, 0, 57, 64
4, 21767, Note_on_c, 0, 57, 0
4, 21768, Note_on_c, 0, 55, 64
4, 21791, Note_on_c, 0, 55, 0
4, 21792, Note_on_c, 0, 57, 64
4, 21815, Note_on_c, 0, 57, 0
4, 21816, Note_on_c, 0, 55, 64
4, 21839, Note_on_c, 0, 55, 0
4, 21840, Note_on_c, 0, 53, 64
4, 21863, Note_on_c, 0, 53, 0
4, 21864, Note_on_c, 0, 52, 64
4, 21887, Note_on_c, 0, 52, 0
4, 21888, Note_on_c, 0, 53, 64
4, 21933, Note_on_c, 0, 53, 0
4, 21936, Note_on_c, 0, 41, 64
4, 21981, Note_on_c, 0, 41, 0
4, 22032, Note_on_c, 0, 54, 64
4, 22055, Note_on_c, 0, 54, 0
4, 22056, Note_on_c, 0, 56, 64
4, 22079, Note_on_c, 0, 56, 0
4, 22080, Note_on_c, 0, 57, 64
4, 22103, Note_on_c, 0, 57, 0
4, 22104, Note_on_c, 0, 60, 64
4, 22127, Note_on_c, 0, 60, 0
4, 22128, Note_on_c, 0, 59, 64
4, 22151, Note_on_c, 0, 59, 0
4, 22152, Note_on_c, 0, 57, 64
4, 22175, Note_on_c, 0, 57, 0
4, 22176, Note_on_c, 0, 59, 64
4, 22199, Note_on_c, 0, 59, 0
4, 22200, Note_on_c, 0, 57, 64
4, 22223, Note_on_c, 0, 57, 0
4, 22224, Note_on_c, 0, 56, 64
4, 22247, Note_on_c, 0, 56, 0
4, 22248, Note_on_c, 0, 54, 64
4, 22271, Note_on_c, 0, 54, 0
4, 22272, Note_on_c, 0, 55, 64
4, 22317, Note_on_c, 0, 55, 0
4, 22320, Note_on_c, 0, 52, 64
4, 22365, Note_on_c, 0, 52, 0
4, 22368, Note_on_c, 0, 48, 64
4, 22413, Note_on_c, 0, 48, 0
4, 22416, Note_on_c, 0, 50, 64
4, 22461, Note_on_c, 0, 50, 0
4, 22464, Note_on_c, 0, 52, 64
4, 22553, Note_on_c, 0, 52, 0
4, 22560, Note_on_c, 0, 40, 64
4, 22649, Note_on_c, 0, 40, 0
4, 22656, Note_on_c, 0, 45, 64
4, 22833, Note_on_c, 0, 45, 0
4, 22848, Note_on_c, 0, 45, 64
4, 22893, Note_on_c, 0, 45, 0
4, 22896, Note_on_c, 0, 48, 64
4, 22941, Note_on_c, 0, 48, 0
4, 22944, Note_on_c, 0, 52, 64
4, 22989, Note_on_c, 0, 52, 0
4, 22992, Note_on_c, 0, 55, 64
4, 23037, Note_on_c, 0, 55, 0
4, 23040, Note_on_c, 0, 54, 64
4, 23085, Note_on_c, 0, 54, 0
4, 23088, Note_on_c, 0, 50, 64
4, 23133, Note_on_c, 0, 50, 0
4, 23136, Note_on_c, 0, 54, 64
4, 23181, Note_on_c, 0, 54, 0
4, 23184, Note_on_c, 0, 57, 64
4, 23229, Note_on_c, 0, 57, 0
4, 23232, Note_on_c, 0, 62, 64
4, 23277, Note_on_c, 0, 62, 0
4, 23280, Note_on_c, 0, 57, 64
4, 23325, Note_on_c, 0, 57, 0
4, 23328, Note_on_c, 0, 54, 64
4, 23373, Note_on_c, 0, 54, 0
4, 23376, Note_on_c, 0, 50, 64
4, 23421, Note_on_c, 0, 50, 0
4, 23424, Note_on_c, 0, 55, 64
4, 23469, Note_on_c, 0, 55, 0
4, 23472, Note_on_c, 0, 43, 64
4, 23543, Note_on_c, 0, 43, 0
4, 23544, Note_on_c, 0, 45, 64
4, 23567, Note_on_c, 0, 45, 0
4, 23568, Note_on_c, 0, 43, 64
4, 23591, Note_on_c, 0, 43, 0
4, 23592, Note_on_c, 0, 42, 64
4, 23615, Note_on_c, 0, 42, 0
4, 23616, Note_on_c, 0, 43, 64
4, 23661, Note_on_c, 0, 43, 0
4, 23664, Note_on_c, 0, 55, 64
4, 23709, Note_on_c, 0, 55, 0
4, 23712, Note_on_c, 0, 54, 64
4, 23757, Note_on_c, 0, 54, 0
4, 23760, Note_on_c, 0, 52, 64
4, 23805, Note_on_c, 0, 52, 0
4, 23808, Note_on_c, 0, 54, 64
4, 23853, Note_on_c, 0, 54, 0
4, 23856, Note_on_c, 0, 47, 64
4, 23901, Note_on_c, 0, 47, 0
4, 23904, Note_on_c, 0, 51, 64
4, 23949, Note_on_c, 0, 51, 0
4, 23952, Note_on_c, 0, 54, 64
4, 23997, Note_on_c, 0, 54, 0
4, 24000, Note_on_c, 0, 59, 64
4, 24045, Note_on_c, 0, 59, 0
4, 24048, Note_on_c, 0, 54, 64
4, 24093, Note_on_c, 0, 54, 0
4, 24096, Note_on_c, 0, 47, 64
4, 24141, Note_on_c, 0, 47, 0
4, 24144, Note_on_c, 0, 51, 64
4, 24189, Note_on_c, 0, 51, 0
4, 24192, Note_on_c, 0, 52, 64
4, 24237, Note_on_c, 0, 52, 0
4, 24240, Note_on_c, 0, 40, 64
4, 24285, Note_on_c, 0, 40, 0
4, 24288, Note_on_c, 0, 52, 64
4, 24333, Note_on_c, 0, 52, 0
4, 24336, Note_on_c, 0, 54, 64
4, 24381, Note_on_c, 0, 54, 0
4, 24384, Note_on_c, 0, 55, 64
4, 24407, Note_on_c, 0, 55, 0
4, 24408, Note_on_c, 0, 59, 64
4, 24431, Note_on_c, 0, 59, 0
4, 24432, Note_on_c, 0, 57, 64
4, 24455, Note_on_c, 0, 57, 0
4, 24456, Note_on_c, 0, 55, 64
4, 24479, Note_on_c, 0, 55, 0
4, 24480, Note_on_c, 0, 57, 64
4, 24503, Note_on_c, 0, 57, 0
4, 24504, Note_on_c, 0, 55, 64
4, 24527, Note_on_c, 0, 55, 0
4, 24528, Note_on_c, 0, 54, 64
4, 24551, Note_on_c, 0, 54, 0
4, 24552, Note_on_c, 0, 52, 64
4, 24575, Note_on_c, 0, 52, 0
4, 24576, Note_on_c, 0, 57, 64
4, 24621, Note_on_c, 0, 57, 0
4, 24624, Note_on_c, 0, 60, 64
4, 24669, Note_on_c, 0, 60, 0
4, 24672, Note_on_c, 0, 50, 64
4, 24717, Note_on_c, 0, 50, 0
4, 24720, Note_on_c, 0, 54, 64
4, 24765, Note_on_c, 0, 54, 0
4, 24768, Note_on_c, 0, 55, 64
4, 24813, Note_on_c, 0, 55, 0
4, 24816, Note_on_c, 0, 59, 64
4, 24861, Note_on_c, 0, 59, 0
4, 24864, Note_on_c, 0, 48, 64
4, 24909, Note_on_c, 0, 48, 0
4, 24912, Note_on_c, 0, 52, 64
4, 24957, Note_on_c, 0, 52, 0
4, 24960, Note_on_c, 0, 54, 64
4, 25005, Note_on_c, 0, 54, 0
4, 25008, Note_on_c, 0, 57, 64
4, 25053, Note_on_c, 0, 57, 0
4, 25056, Note_on_c, 0, 47, 64
4, 25101, Note_on_c, 0, 47, 0
4, 25104, Note_on_c, 0, 51, 64
4, 25149, Note_on_c, 0, 51, 0
4, 25152, Note_on_c, 0, 52, 64
4, 25175, Note_on_c, 0, 52, 0
4, 25176, Note_on_c, 0, 47, 64
4, 25199, Note_on_c, 0, 47, 0
4, 25200, Note_on_c, 0, 45, 64
4, 25223, Note_on_c, 0, 45, 0
4, 25224, Note_on_c, 0, 43, 64
4, 25247, Note_on_c, 0, 43, 0
4, 25248, Note_on_c, 0, 45, 64
4, 25271, Note_on_c, 0, 45, 0
4, 25272, Note_on_c, 0, 43, 64
4, 25295, Note_on_c, 0, 43, 0
4, 25296, Note_on_c, 0, 42, 64
4, 25319, Note_on_c, 0, 42, 0
4, 25320, Note_on_c, 0, 40, 64
4, 25343, Note_on_c, 0, 40, 0
4, 25344, Note_on_c, 0, 45, 64
4, 25389, Note_on_c, 0, 45, 0
4, 25392, Note_on_c, 0, 47, 64
4, 25437, Note_on_c, 0, 47, 0
4, 25440, Note_on_c, 0, 48, 64
4, 25485, Note_on_c, 0, 48, 0
4, 25488, Note_on_c, 0, 47, 64
4, 25533, Note_on_c, 0, 47, 0
4, 25536, Note_on_c, 0, 45, 64
4, 25581, Note_on_c, 0, 45, 0
4, 25584, Note_on_c, 0, 48, 64
4, 25629, Note_on_c, 0, 48, 0
4, 25632, Note_on_c, 0, 46, 64
4, 25677, Note_on_c, 0, 46, 0
4, 25680, Note_on_c, 0, 42, 64
4, 25725, Note_on_c, 0, 42, 0
4, 25728, Note_on_c, 0, 47, 64
4, 25776, Note_on_c, 0, 49, 100
4, 25824, Note_on_c, 0, 49, 0
4, 25824, Note_on_c, 0, 51, 100
4, 25872, Note_on_c, 0, 51, 0
4, 25872, Note_on_c, 0, 52, 100
4, 25920, Note_on_c, 0, 52, 0
4, 25920, Note_on_c, 0, 54, 100
4, 25968, Note_on_c, 0, 54, 0
4, 25968, Note_on_c, 0, 51, 100
4, 26009, Note_on_c, 0, 47, 0
4, 26016, Note_on_c, 0, 51, 0
4, 26016, Note_on_c, 0, 47, 64
4, 26105, Note_on_c, 0, 47, 0
4, 26112, Note_on_c, 0, 40, 64
4, 26157, Note_on_c, 0, 40, 0
4, 26160, Note_on_c, 0, 52, 64
4, 26205, Note_on_c, 0, 52, 0
4, 26208, Note_on_c, 0, 42, 64
4, 26253, Note_on_c, 0, 42, 0
4, 26256, Note_on_c, 0, 51, 64
4, 26301, Note_on_c, 0, 51, 0
4, 26304, Note_on_c, 0, 43, 64
4, 26349, Note_on_c, 0, 43, 0
4, 26352, Note_on_c, 0, 45, 64
4, 26375, Note_on_c, 0, 45, 0
4, 26376, Note_on_c, 0, 47, 64
4, 26399, Note_on_c, 0, 47, 0
4, 26400, Note_on_c, 0, 45, 64
4, 26423, Note_on_c, 0, 45, 0
4, 26424, Note_on_c, 0, 43, 64
4, 26447, Note_on_c, 0, 43, 0
4, 26448, Note_on_c, 0, 42, 64
4, 26471, Note_on_c, 0, 42, 0
4, 26472, Note_on_c, 0, 40, 64
4, 26495, Note_on_c, 0, 40, 0
4, 26496, Note_on_c, 0, 47, 64
4, 26541, Note_on_c, 0, 47, 0
4, 26544, Note_on_c, 0, 54, 64
4, 26589, Note_on_c, 0, 54, 0
4, 26592, Note_on_c, 0, 49, 64
4, 26637, Note_on_c, 0, 49, 0
4, 26640, Note_on_c, 0, 54, 64
4, 26685, Note_on_c, 0, 54, 0
4, 26688, Note_on_c, 0, 51, 64
4, 26733, Note_on_c, 0, 51, 0
4, 26736, Note_on_c, 0, 52, 64
4, 26759, Note_on_c, 0, 52, 0
4, 26760, Note_on_c, 0, 54, 64
4, 26783, Note_on_c, 0, 54, 0
4, 26784, Note_on_c, 0, 52, 64
4, 26807, Note_on_c, 0, 52, 0
4, 26808, Note_on_c, 0, 51, 64
4, 26831, Note_on_c, 0, 51, 0
4, 26832, Note_on_c, 0, 49, 64
4, 26855, Note_on_c, 0, 49, 0
4, 26856, Note_on_c, 0, 47, 64
4, 26879, Note_on_c, 0, 47, 0
4, 26880, Note_on_c, 0, 52, 64
4, 26925, Note_on_c, 0, 52, 0
4, 26928, Note_on_c, 0, 47, 64
4, 26973, Note_on_c, 0, 47, 0
4, 26976, Note_on_c, 0, 54, 64
4, 27021, Note_on_c, 0, 54, 0
4, 27024, Note_on_c, 0, 47, 64
4, 27069, Note_on_c, 0, 47, 0
4, 27072, Note_on_c, 0, 55, 64
4, 27117, Note_on_c, 0, 55, 0
4, 27120, Note_on_c, 0, 57, 64
4, 27143, Note_on_c, 0, 57, 0
4, 27144, Note_on_c, 0, 59, 64
4, 27167, Note_on_c, 0, 59, 0
4, 27168, Note_on_c, 0, 57, 64
4, 27191, Note_on_c, 0, 57, 0
4, 27192, Note_on_c, 0, 55, 64
4, 27215, Note_on_c, 0, 55, 0
4, 27216, Note_on_c, 0, 54, 64
4, 27239, Note_on_c, 0, 54, 0
4, 27240, Note_on_c, 0, 52, 64
4, 27263, Note_on_c, 0, 52, 0
4, 27264, Note_on_c, 0, 59, 64
4, 27309, Note_on_c, 0, 59, 0
4, 27312, Note_on_c, 0, 47, 64
4, 27357, Note_on_c, 0, 47, 0
4, 27360, Note_on_c, 0, 59, 64
4, 27405, Note_on_c, 0, 59, 0
4, 27408, Note_on_c, 0, 61, 64
4, 27453, Note_on_c, 0, 61, 0
4, 27456, Note_on_c, 0, 63, 64
4, 27501, Note_on_c, 0, 63, 0
4, 27504, Note_on_c, 0, 64, 64
4, 27527, Note_on_c, 0, 64, 0
4, 27528, Note_on_c, 0, 66, 64
4, 27551, Note_on_c, 0, 66, 0
4, 27552, Note_on_c, 0, 64, 64
4, 27575, Note_on_c, 0, 64, 0
4, 27576, Note_on_c, 0, 63, 64
4, 27599, Note_on_c, 0, 63, 0
4, 27600, Note_on_c, 0, 61, 64
4, 27623, Note_on_c, 0, 61, 0
4, 27624, Note_on_c, 0, 59, 64
4, 27647, Note_on_c, 0, 59, 0
4, 27648, Note_on_c, 0, 64, 64
4, 27693, Note_on_c, 0, 64, 0
4, 27696, Note_on_c, 0, 52, 64
4, 27741, Note_on_c, 0, 52, 0
4, 27744, Note_on_c, 0, 64, 64
4, 27789, Note_on_c, 0, 64, 0
4, 27792, Note_on_c, 0, 62, 64
4, 27837, Note_on_c, 0, 62, 0
4, 27840, Note_on_c, 0, 60, 64
4, 27885, Note_on_c, 0, 60, 0
4, 27888, Note_on_c, 0, 62, 64
4, 27911, Note_on_c, 0, 62, 0
4, 27912, Note_on_c, 0, 64, 64
4, 27935, Note_on_c, 0, 64, 0
4, 27936, Note_on_c, 0, 62, 64
4, 27959, Note_on_c, 0, 62, 0
4, 27960, Note_on_c, 0, 60, 64
4, 27983, Note_on_c, 0, 60, 0
4, 27984, Note_on_c, 0, 59, 64
4, 28007, Note_on_c, 0, 59, 0
4, 28008, Note_on_c, 0, 57, 64
4, 28031, Note_on_c, 0, 57, 0
4, 28032, Note_on_c, 0, 62, 64
4, 28077, Note_on_c, 0, 62, 0
4, 28080, Note_on_c, 0, 50, 64
4, 28125, Note_on_c, 0, 50, 0
4, 28128, Note_on_c, 0, 62, 64
4, 28173, Note_on_c, 0, 62, 0
4, 28176, Note_on_c, 0, 60, 64
4, 28221, Note_on_c, 0, 60, 0
4, 28224, Note_on_c, 0, 59, 64
4, 28269, Note_on_c, 0, 59, 0
4, 28272, Note_on_c, 0, 60, 64
4, 28295, Note_on_c, 0, 60, 0
4, 28296, Note_on_c, 0, 62, 64
4, 28319, Note_on_c, 0, 62, 0
4, 28320, Note_on_c, 0, 60, 64
4, 28343, Note_on_c, 0, 60, 0
4, 28344, Note_on_c, 0, 59, 64
4, 28367, Note_on_c, 0, 59, 0
4, 28368, Note_on_c, 0, 57, 64
4, 28391, Note_on_c, 0, 57, 0
4, 28392, Note_on_c, 0, 55, 64
4, 28415, Note_on_c, 0, 55, 0
4, 28416, Note_on_c, 0, 60, 64
4, 28461, Note_on_c, 0, 60, 0
4, 28464, Note_on_c, 0, 48, 64
4, 28509, Note_on_c, 0, 48, 0
4, 28536, Note_on_c, 0, 52, 64
4, 28559, Note_on_c, 0, 52, 0
4, 28560, Note_on_c, 0, 50, 64
4, 28583, Note_on_c, 0, 50, 0
4, 28584, Note_on_c, 0, 48, 64
4, 28607, Note_on_c, 0, 48, 0
4, 28608, Note_on_c, 0, 47, 64
4, 28653, Note_on_c, 0, 47, 0
4, 28656, Note_on_c, 0, 59, 64
4, 28701, Note_on_c, 0, 59, 0
4, 28704, Note_on_c, 0, 56, 64
4, 28749, Note_on_c, 0, 56, 0
4, 28752, Note_on_c, 0, 52, 64
4, 28797, Note_on_c, 0, 52, 0
4, 28800, Note_on_c, 0, 57, 64
4, 28823, Note_on_c, 0, 57, 0
4, 28824, Note_on_c, 0, 59, 64
4, 28847, Note_on_c, 0, 59, 0
4, 28848, Note_on_c, 0, 60, 64
4, 28919, Note_on_c, 0, 60, 0
4, 28920, Note_on_c, 0, 59, 64
4, 28943, Note_on_c, 0, 59, 0
4, 28944, Note_on_c, 0, 57, 64
4, 28967, Note_on_c, 0, 57, 0
4, 28968, Note_on_c, 0, 55, 64
4, 28991, Note_on_c, 0, 55, 0
4, 28992, Note_on_c, 0, 54, 64
4, 29037, Note_on_c, 0, 54, 0
4, 29040, Note_on_c, 0, 57, 64
4, 29085, Note_on_c, 0, 57, 0
4, 29088, Note_on_c, 0, 51, 64
4, 29133, Note_on_c, 0, 51, 0
4, 29136, Note_on_c, 0, 59, 64
4, 29181, Note_on_c, 0, 59, 0
4, 29184, Note_on_c, 0, 52, 64
4, 29207, Note_on_c, 0, 52, 0
4, 29208, Note_on_c, 0, 54, 64
4, 29231, Note_on_c, 0, 54, 0
4, 29232, Note_on_c, 0, 55, 64
4, 29303, Note_on_c, 0, 55, 0
4, 29304, Note_on_c, 0, 54, 64
4, 29327, Note_on_c, 0, 54, 0
4, 29328, Note_on_c, 0, 52, 64
4, 29351, Note_on_c, 0, 52, 0
4, 29352, Note_on_c, 0, 50, 64
4, 29375, Note_on_c, 0, 50, 0
4, 29376, Note_on_c, 0, 49, 64
4, 29421, Note_on_c, 0, 49, 0
4, 29424, Note_on_c, 0, 59, 64
4, 29469, Note_on_c, 0, 59, 0
4, 29472, Note_on_c, 0, 58, 64
4, 29517, Note_on_c, 0, 58, 0
4, 29520, Note_on_c, 0, 50, 64
4, 29565, Note_on_c, 0, 50, 0
4, 29568, Note_on_c, 0, 47, 64
4, 29592, Note_on_c, 0, 60, 64
4, 29616, Note_on_c, 0, 60, 0
4, 29616, Note_on_c, 0, 59, 64
4, 29640, Note_on_c, 0, 59, 0
4, 29640, Note_on_c, 0, 57, 64
4, 29664, Note_on_c, 0, 57, 0
4, 29664, Note_on_c, 0, 59, 64
4, 29688, Note_on_c, 0, 59, 0
4, 29688, Note_on_c, 0, 57, 64
4, 29712, Note_on_c, 0, 57, 0
4, 29712, Note_on_c, 0, 55, 64
4, 29736, Note_on_c, 0, 55, 0
4, 29736, Note_on_c, 0, 54, 64
4, 29760, Note_on_c, 0, 54, 0
4, 29760, Note_on_c, 0, 55, 100
4, 29856, Note_on_c, 0, 55, 0
4, 29856, Note_on_c, 0, 52, 100
4, 29952, Note_on_c, 0, 52, 0
4, 29952, Note_on_c, 0, 52, 64
4, 29976, Note_on_c, 0, 52, 0
4, 29976, Note_on_c, 0, 55, 64
4, 30000, Note_on_c, 0, 55, 0
4, 30000, Note_on_c, 0, 54, 64
4, 30024, Note_on_c, 0, 54, 0
4, 30024, Note_on_c, 0, 52, 64
4, 30048, Note_on_c, 0, 52, 0
4, 30048, Note_on_c, 0, 54, 64
4, 30072, Note_on_c, 0, 54, 0
4, 30072, Note_on_c, 0, 52, 64
4, 30096, Note_on_c, 0, 52, 0
4, 30096, Note_on_c, 0, 51, 64
4, 30120, Note_on_c, 0, 51, 0
4, 30120, Note_on_c, 0, 49, 64
4, 30129, Note_on_c, 0, 47, 0
4, 30144, Note_on_c, 0, 49, 0
4, 30144, Note_on_c, 0, 47, 64
4, 30189, Note_on_c, 0, 47, 0
4, 30192, Note_on_c, 0, 48, 64
4, 30237, Note_on_c, 0, 48, 0
4, 30240, Note_on_c, 0, 47, 64
4, 30285, Note_on_c, 0, 47, 0
4, 30288, Note_on_c, 0, 45, 64
4, 30333, Note_on_c, 0, 45, 0
4, 30336, Note_on_c, 0, 44, 64
4, 30381, Note_on_c, 0, 44, 0
4, 30384, Note_on_c, 0, 45, 64
4, 30407, Note_on_c, 0, 45, 0
4, 30408, Note_on_c, 0, 47, 64
4, 30431, Note_on_c, 0, 47, 0
4, 30432, Note_on_c, 0, 45, 64
4, 30455, Note_on_c, 0, 45, 0
4, 30456, Note_on_c, 0, 44, 64
4, 30479, Note_on_c, 0, 44, 0
4, 30480, Note_on_c, 0, 42, 64
4, 30503, Note_on_c, 0, 42, 0
4, 30504, Note_on_c, 0, 40, 64
4, 30527, Note_on_c, 0, 40, 0
4, 30528, Note_on_c, 0, 45, 64
4, 30573, Note_on_c, 0, 45, 0
4, 30576, Note_on_c, 0, 57, 64
4, 30647, Note_on_c, 0, 57, 0
4, 30648, Note_on_c, 0, 55, 64
4, 30671, Note_on_c, 0, 55, 0
4, 30672, Note_on_c, 0, 54, 64
4, 30695, Note_on_c, 0, 54, 0
4, 30696, Note_on_c, 0, 52, 64
4, 30719, Note_on_c, 0, 52, 0
4, 30720, Note_on_c, 0, 51, 64
4, 30743, Note_on_c, 0, 51, 0
4, 30744, Note_on_c, 0, 54, 64
4, 30767, Note_on_c, 0, 54, 0
4, 30768, Note_on_c, 0, 52, 64
4, 30791, Note_on_c, 0, 52, 0
4, 30792, Note_on_c, 0, 51, 64
4, 30815, Note_on_c, 0, 51, 0
4, 30816, Note_on_c, 0, 52, 64
4, 30839, Note_on_c, 0, 52, 0
4, 30840, Note_on_c, 0, 51, 64
4, 30863, Note_on_c, 0, 51, 0
4, 30864, Note_on_c, 0, 49, 64
4, 30887, Note_on_c, 0, 49, 0
4, 30888, Note_on_c, 0, 47, 64
4, 30911, Note_on_c, 0, 47, 0
4, 30912, Note_on_c, 0, 52, 64
4, 30957, Note_on_c, 0, 52, 0
4, 30960, Note_on_c, 0, 64, 64
4, 31031, Note_on_c, 0, 64, 0
4, 31032, Note_on_c, 0, 62, 64
4, 31055, Note_on_c, 0, 62, 0
4, 31056, Note_on_c, 0, 60, 64
4, 31079, Note_on_c, 0, 60, 0
4, 31080, Note_on_c, 0, 59, 64
4, 31103, Note_on_c, 0, 59, 0
4, 31104, Note_on_c, 0, 57, 64
4, 31127, Note_on_c, 0, 57, 0
4, 31128, Note_on_c, 0, 59, 64
4, 31151, Note_on_c, 0, 59, 0
4, 31152, Note_on_c, 0, 57, 64
4, 31175, Note_on_c, 0, 57, 0
4, 31176, Note_on_c, 0, 56, 64
4, 31199, Note_on_c, 0, 56, 0
4, 31200, Note_on_c, 0, 57, 64
4, 31223, Note_on_c, 0, 57, 0
4, 31224, Note_on_c, 0, 55, 64
4, 31247, Note_on_c, 0, 55, 0
4, 31248, Note_on_c, 0, 54, 64
4, 31271, Note_on_c, 0, 54, 0
4, 31272, Note_on_c, 0, 52, 64
4, 31295, Note_on_c, 0, 52, 0
4, 31296, Note_on_c, 0, 54, 64
4, 31319, Note_on_c, 0, 54, 0
4, 31320, Note_on_c, 0, 52, 64
4, 31343, Note_on_c, 0, 52, 0
4, 31344, Note_on_c, 0, 51, 64
4, 31367, Note_on_c, 0, 51, 0
4, 31368, Note_on_c, 0, 49, 64
4, 31391, Note_on_c, 0, 49, 0
4, 31392, Note_on_c, 0, 51, 64
4, 31415, Note_on_c, 0, 51, 0
4, 31416, Note_on_c, 0, 47, 64
4, 31439, Note_on_c, 0, 47, 0
4, 31440, Note_on_c, 0, 49, 64
4, 31463, Note_on_c, 0, 49, 0
4, 31464, Note_on_c, 0, 51, 64
4, 31487, Note_on_c, 0, 51, 0
4, 31488, Note_on_c, 0, 52, 64
4, 31511, Note_on_c, 0, 52, 0
4, 31512, Note_on_c, 0, 60, 64
4, 31535, Note_on_c, 0, 60, 0
4, 31536, Note_on_c, 0, 59, 64
4, 31559, Note_on_c, 0, 59, 0
4, 31560, Note_on_c, 0, 60, 64
4, 31583, Note_on_c, 0, 60, 0
4, 31584, Note_on_c, 0, 50, 64
4, 31607, Note_on_c, 0, 50, 0
4, 31608, Note_on_c, 0, 59, 64
4, 31631, Note_on_c, 0, 59, 0
4, 31632, Note_on_c, 0, 57, 64
4, 31655, Note_on_c, 0, 57, 0
4, 31656, Note_on_c, 0, 59, 64
4, 31679, Note_on_c, 0, 59, 0
4, 31680, Note_on_c, 0, 48, 64
4, 31703, Note_on_c, 0, 48, 0
4, 31704, Note_on_c, 0, 57, 64
4, 31727, Note_on_c, 0, 57, 0
4, 31728, Note_on_c, 0, 55, 64
4, 31751, Note_on_c, 0, 55, 0
4, 31752, Note_on_c, 0, 57, 64
4, 31775, Note_on_c, 0, 57, 0
4, 31776, Note_on_c, 0, 47, 64
4, 31799, Note_on_c, 0, 47, 0
4, 31800, Note_on_c, 0, 55, 64
4, 31823, Note_on_c, 0, 55, 0
4, 31824, Note_on_c, 0, 54, 64
4, 31847, Note_on_c, 0, 54, 0
4, 31848, Note_on_c, 0, 55, 64
4, 31871, Note_on_c, 0, 55, 0
4, 31872, Note_on_c, 0, 46, 64
4, 31895, Note_on_c, 0, 46, 0
4, 31896, Note_on_c, 0, 55, 64
4, 31919, Note_on_c, 0, 55, 0
4, 31920, Note_on_c, 0, 54, 64
4, 31943, Note_on_c, 0, 54, 0
4, 31944, Note_on_c, 0, 52, 64
4, 31967, Note_on_c, 0, 52, 0
4, 31968, Note_on_c, 0, 54, 64
4, 31991, Note_on_c, 0, 54, 0
4, 31992, Note_on_c, 0, 52, 64
4, 32015, Note_on_c, 0, 52, 0
4, 32016, Note_on_c, 0, 51, 64
4, 32039, Note_on_c, 0, 51, 0
4, 32040, Note_on_c, 0, 49, 64
4, 32063, Note_on_c, 0, 49, 0
4, 32064, Note_on_c, 0, 47, 64
4, 32087, Note_on_c, 0, 47, 0
4, 32088, Note_on_c, 0, 57, 64
4, 32111, Note_on_c, 0, 57, 0
4, 32112, Note_on_c, 0, 55, 64
4, 32135, Note_on_c, 0, 55, 0
4, 32136, Note_on_c, 0, 54, 64
4, 32159, Note_on_c, 0, 54, 0
4, 32160, Note_on_c, 0, 55, 64
4, 32183, Note_on_c, 0, 55, 0
4, 32184, Note_on_c, 0, 54, 64
4, 32207, Note_on_c, 0, 54, 0
4, 32208, Note_on_c, 0, 52, 64
4, 32231, Note_on_c, 0, 52, 0
4, 32232, Note_on_c, 0, 50, 64
4, 32255, Note_on_c, 0, 50, 0
4, 32280, Note_on_c, 0, 52, 64
4, 32303, Note_on_c, 0, 52, 0
4, 32304, Note_on_c, 0, 54, 64
4, 32327, Note_on_c, 0, 54, 0
4, 32328, Note_on_c, 0, 55, 64
4, 32351, Note_on_c, 0, 55, 0
4, 32376, Note_on_c, 0, 54, 64
4, 32399, Note_on_c, 0, 54, 0
4, 32400, Note_on_c, 0, 55, 64
4, 32423, Note_on_c, 0, 55, 0
4, 32424, Note_on_c, 0, 57, 64
4, 32447, Note_on_c, 0, 57, 0
4, 32496, Note_on_c, 0, 59, 64
4, 32585, Note_on_c, 0, 59, 0
4, 32592, Note_on_c, 0, 57, 64
4, 32729, Note_on_c, 0, 57, 0
4, 32736, Note_on_c, 0, 55, 64
4, 32781, Note_on_c, 0, 55, 0
4, 32784, Note_on_c, 0, 54, 64
4, 32829, Note_on_c, 0, 54, 0
4, 32832, Note_on_c, 0, 55, 64
4, 32855, Note_on_c, 0, 55, 0
4, 32856, Note_on_c, 0, 52, 64
4, 32879, Note_on_c, 0, 52, 0
4, 32880, Note_on_c, 0, 55, 64
4, 32903, Note_on_c, 0, 55, 0
4, 32904, Note_on_c, 0, 59, 64
4, 32927, Note_on_c, 0, 59, 0
4, 32928, Note_on_c, 0, 64, 64
4, 33017, Note_on_c, 0, 64, 0
4, 33024, Note_on_c, 0, 43, 64
4, 33069, Note_on_c, 0, 43, 0
4, 33072, Note_on_c, 0, 55, 64
4, 33117, Note_on_c, 0, 55, 0
4, 33120, Note_on_c, 0, 45, 64
4, 33165, Note_on_c, 0, 45, 0
4, 33168, Note_on_c, 0, 54, 64
4, 33213, Note_on_c, 0, 54, 0
4, 33216, Note_on_c, 0, 47, 64
4, 33261, Note_on_c, 0, 47, 0
4, 33264, Note_on_c, 0, 55, 64
4, 33309, Note_on_c, 0, 55, 0
4, 33312, Note_on_c, 0, 49, 64
4, 33357, Note_on_c, 0, 49, 0
4, 33360, Note_on_c, 0, 57, 64
4, 33405, Note_on_c, 0, 57, 0
4, 33408, Note_on_c, 0, 50, 64
4, 33453, Note_on_c, 0, 50, 0
4, 33456, Note_on_c, 0, 57, 64
4, 33501, Note_on_c, 0, 57, 0
4, 33504, Note_on_c, 0, 52, 64
4, 33549, Note_on_c, 0, 52, 0
4, 33552, Note_on_c, 0, 57, 64
4, 33597, Note_on_c, 0, 57, 0
4, 33600, Note_on_c, 0, 54, 64
4, 33623, Note_on_c, 0, 54, 0
4, 33624, Note_on_c, 0, 59, 64
4, 33647, Note_on_c, 0, 59, 0
4, 33648, Note_on_c, 0, 57, 64
4, 33671, Note_on_c, 0, 57, 0
4, 33672, Note_on_c, 0, 56, 64
4, 33695, Note_on_c, 0, 56, 0
4, 33696, Note_on_c, 0, 57, 64
4, 33719, Note_on_c, 0, 57, 0
4, 33720, Note_on_c, 0, 56, 64
4, 33743, Note_on_c, 0, 56, 0
4, 33744, Note_on_c, 0, 54, 64
4, 33767, Note_on_c, 0, 54, 0
4, 33768, Note_on_c, 0, 52, 64
4, 33791, Note_on_c, 0, 52, 0
4, 33792, Note_on_c, 0, 57, 64
4, 33837, Note_on_c, 0, 57, 0
4, 33840, Note_on_c, 0, 45, 64
4, 33885, Note_on_c, 0, 45, 0
4, 33888, Note_on_c, 0, 47, 64
4, 33933, Note_on_c, 0, 47, 0
4, 33936, Note_on_c, 0, 56, 64
4, 33981, Note_on_c, 0, 56, 0
4, 33984, Note_on_c, 0, 48, 64
4, 34029, Note_on_c, 0, 48, 0
4, 34032, Note_on_c, 0, 57, 64
4, 34077, Note_on_c, 0, 57, 0
4, 34080, Note_on_c, 0, 53, 64
4, 34125, Note_on_c, 0, 53, 0
4, 34128, Note_on_c, 0, 51, 64
4, 34173, Note_on_c, 0, 51, 0
4, 34176, Note_on_c, 0, 52, 64
4, 34221, Note_on_c, 0, 52, 0
4, 34224, Note_on_c, 0, 40, 64
4, 34269, Note_on_c, 0, 40, 0
4, 34272, Note_on_c, 0, 52, 64
4, 34317, Note_on_c, 0, 52, 0
4, 34320, Note_on_c, 0, 54, 64
4, 34365, Note_on_c, 0, 54, 0
4, 34368, Note_on_c, 0, 56, 64
4, 34413, Note_on_c, 0, 56, 0
4, 34416, Note_on_c, 0, 59, 64
4, 34461, Note_on_c, 0, 59, 0
4, 34464, Note_on_c, 0, 52, 64
4, 34509, Note_on_c, 0, 52, 0
4, 34512, Note_on_c, 0, 56, 64
4, 34557, Note_on_c, 0, 56, 0
4, 34560, Note_on_c, 0, 57, 64
4, 34605, Note_on_c, 0, 57, 0
4, 34608, Note_on_c, 0, 45, 64
4, 34653, Note_on_c, 0, 45, 0
4, 34656, Note_on_c, 0, 57, 64
4, 34701, Note_on_c, 0, 57, 0
4, 34704, Note_on_c, 0, 55, 64
4, 34749, Note_on_c, 0, 55, 0
4, 34752, Note_on_c, 0, 53, 64
4, 34797, Note_on_c, 0, 53, 0
4, 34800, Note_on_c, 0, 57, 64
4, 34845, Note_on_c, 0, 57, 0
4, 34848, Note_on_c, 0, 53, 64
4, 34893, Note_on_c, 0, 53, 0
4, 34896, Note_on_c, 0, 50, 64
4, 34941, Note_on_c, 0, 50, 0
4, 34944, Note_on_c, 0, 55, 64
4, 34989, Note_on_c, 0, 55, 0
4, 34992, Note_on_c, 0, 43, 64
4, 35037, Note_on_c, 0, 43, 0
4, 35040, Note_on_c, 0, 55, 64
4, 35085, Note_on_c, 0, 55, 0
4, 35088, Note_on_c, 0, 53, 64
4, 35133, Note_on_c, 0, 53, 0
4, 35136, Note_on_c, 0, 52, 64
4, 35181, Note_on_c, 0, 52, 0
4, 35184, Note_on_c, 0, 55, 64
4, 35229, Note_on_c, 0, 55, 0
4, 35232, Note_on_c, 0, 52, 64
4, 35277, Note_on_c, 0, 52, 0
4, 35280, Note_on_c, 0, 48, 64
4, 35325, Note_on_c, 0, 48, 0
4, 35328, Note_on_c, 0, 53, 64
4, 35351, Note_on_c, 0, 53, 0
4, 35352, Note_on_c, 0, 55, 64
4, 35375, Note_on_c, 0, 55, 0
4, 35376, Note_on_c, 0, 53, 64
4, 35399, Note_on_c, 0, 53, 0
4, 35400, Note_on_c, 0, 52, 64
4, 35423, Note_on_c, 0, 52, 0
4, 35424, Note_on_c, 0, 53, 64
4, 35447, Note_on_c, 0, 53, 0
4, 35448, Note_on_c, 0, 52, 64
4, 35471, Note_on_c, 0, 52, 0
4, 35472, Note_on_c, 0, 50, 64
4, 35495, Note_on_c, 0, 50, 0
4, 35496, Note_on_c, 0, 48, 64
4, 35519, Note_on_c, 0, 48, 0
4, 35520, Note_on_c, 0, 50, 64
4, 35543, Note_on_c, 0, 50, 0
4, 35544, Note_on_c, 0, 52, 64
4, 35567, Note_on_c, 0, 52, 0
4, 35568, Note_on_c, 0, 50, 64
4, 35591, Note_on_c, 0, 50, 0
4, 35592, Note_on_c, 0, 48, 64
4, 35615, Note_on_c, 0, 48, 0
4, 35616, Note_on_c, 0, 50, 64
4, 35639, Note_on_c, 0, 50, 0
4, 35640, Note_on_c, 0, 48, 64
4, 35663, Note_on_c, 0, 48, 0
4, 35664, Note_on_c, 0, 47, 64
4, 35687, Note_on_c, 0, 47, 0
4, 35688, Note_on_c, 0, 45, 64
4, 35711, Note_on_c, 0, 45, 0
4, 35712, Note_on_c, 0, 47, 64
4, 35735, Note_on_c, 0, 47, 0
4, 35736, Note_on_c, 0, 48, 64
4, 35759, Note_on_c, 0, 48, 0
4, 35760, Note_on_c, 0, 50, 64
4, 35783, Note_on_c, 0, 50, 0
4, 35784, Note_on_c, 0, 52, 64
4, 35807, Note_on_c, 0, 52, 0
4, 35808, Note_on_c, 0, 50, 64
4, 35831, Note_on_c, 0, 50, 0
4, 35832, Note_on_c, 0, 48, 64
4, 35855, Note_on_c, 0, 48, 0
4, 35856, Note_on_c, 0, 47, 64
4, 35879, Note_on_c, 0, 47, 0
4, 35880, Note_on_c, 0, 45, 64
4, 35903, Note_on_c, 0, 45, 0
4, 35904, Note_on_c, 0, 44, 64
4, 35927, Note_on_c, 0, 44, 0
4, 35928, Note_on_c, 0, 45, 64
4, 35951, Note_on_c, 0, 45, 0
4, 35952, Note_on_c, 0, 47, 64
4, 35975, Note_on_c, 0, 47, 0
4, 35976, Note_on_c, 0, 48, 64
4, 35999, Note_on_c, 0, 48, 0
4, 36000, Note_on_c, 0, 50, 64
4, 36023, Note_on_c, 0, 50, 0
4, 36024, Note_on_c, 0, 52, 64
4, 36047, Note_on_c, 0, 52, 0
4, 36048, Note_on_c, 0, 54, 64
4, 36071, Note_on_c, 0, 54, 0
4, 36072, Note_on_c, 0, 56, 64
4, 36095, Note_on_c, 0, 56, 0
4, 36096, Note_on_c, 0, 57, 64
4, 36141, Note_on_c, 0, 57, 0
4, 36144, Note_on_c, 0, 45, 64
4, 36189, Note_on_c, 0, 45, 0
4, 36240, Note_on_c, 0, 52, 64
4, 36263, Note_on_c, 0, 52, 0
4, 36264, Note_on_c, 0, 53, 64
4, 36287, Note_on_c, 0, 53, 0
4, 36288, Note_on_c, 0, 55, 64
4, 36311, Note_on_c, 0, 55, 0
4, 36312, Note_on_c, 0, 58, 64
4, 36335, Note_on_c, 0, 58, 0
4, 36336, Note_on_c, 0, 57, 64
4, 36359, Note_on_c, 0, 57, 0
4, 36360, Note_on_c, 0, 55, 64
4, 36383, Note_on_c, 0, 55, 0
4, 36384, Note_on_c, 0, 57, 64
4, 36407, Note_on_c, 0, 57, 0
4, 36408, Note_on_c, 0, 55, 64
4, 36431, Note_on_c, 0, 55, 0
4, 36432, Note_on_c, 0, 53, 64
4, 36455, Note_on_c, 0, 53, 0
4, 36456, Note_on_c, 0, 52, 64
4, 36479, Note_on_c, 0, 52, 0
4, 36480, Note_on_c, 0, 53, 64
4, 36525, Note_on_c, 0, 53, 0
4, 36528, Note_on_c, 0, 41, 64
4, 36573, Note_on_c, 0, 41, 0
4, 36624, Note_on_c, 0, 54, 64
4, 36647, Note_on_c, 0, 54, 0
4, 36648, Note_on_c, 0, 56, 64
4, 36671, Note_on_c, 0, 56, 0
4, 36672, Note_on_c, 0, 57, 64
4, 36695, Note_on_c, 0, 57, 0
4, 36696, Note_on_c, 0, 60, 64
4, 36719, Note_on_c, 0, 60, 0
4, 36720, Note_on_c, 0, 59, 64
4, 36743, Note_on_c, 0, 59, 0
4, 36744, Note_on_c, 0, 57, 64
4, 36767, Note_on_c, 0, 57, 0
4, 36768, Note_on_c, 0, 59, 64
4, 36791, Note_on_c, 0, 59, 0
4, 36792, Note_on_c, 0, 57, 64
4, 36815, Note_on_c, 0, 57, 0
4, 36816, Note_on_c, 0, 56, 64
4, 36839, Note_on_c, 0, 56, 0
4, 36840, Note_on_c, 0, 54, 64
4, 36863, Note_on_c, 0, 54, 0
4, 36864, Note_on_c, 0, 55, 64
4, 36909, Note_on_c, 0, 55, 0
4, 36912, Note_on_c, 0, 52, 64
4, 36957, Note_on_c, 0, 52, 0
4, 36960, Note_on_c, 0, 48, 64
4, 37005, Note_on_c, 0, 48, 0
4, 37008, Note_on_c, 0, 50, 64
4, 37053, Note_on_c, 0, 50, 0
4, 37056, Note_on_c, 0, 52, 64
4, 37145, Note_on_c, 0, 52, 0
4, 37152, Note_on_c, 0, 40, 64
4, 37241, Note_on_c, 0, 40, 0
4, 37248, Note_on_c, 0, 45, 64
4, 37425, Note_on_c, 0, 45, 0
4, 37440, Note_on_c, 0, 45, 64
4, 37485, Note_on_c, 0, 45, 0
4, 37488, Note_on_c, 0, 48, 64
4, 37533, Note_on_c, 0, 48, 0
4, 37536, Note_on_c, 0, 52, 64
4, 37581, Note_on_c, 0, 52, 0
4, 37584, Note_on_c, 0, 55, 64
4, 37629, Note_on_c, 0, 55, 0
4, 37632, Note_on_c, 0, 54, 64
4, 37677, Note_on_c, 0, 54, 0
4, 37680, Note_on_c, 0, 50, 64
4, 37725, Note_on_c, 0, 50, 0
4, 37728, Note_on_c, 0, 54, 64
4, 37773, Note_on_c, 0, 54, 0
4, 37776, Note_on_c, 0, 57, 64
4, 37821, Note_on_c, 0, 57, 0
4, 37824, Note_on_c, 0, 62, 64
4, 37869, Note_on_c, 0, 62, 0
4, 37872, Note_on_c, 0, 57, 64
4, 37917, Note_on_c, 0, 57, 0
4, 37920, Note_on_c, 0, 54, 64
4, 37965, Note_on_c, 0, 54, 0
4, 37968, Note_on_c, 0, 50, 64
4, 38013, Note_on_c, 0, 50, 0
4, 38016, Note_on_c, 0, 55, 64
4, 38061, Note_on_c, 0, 55, 0
4, 38064, Note_on_c, 0, 43, 64
4, 38135, Note_on_c, 0, 43, 0
4, 38136, Note_on_c, 0, 45, 64
4, 38159, Note_on_c, 0, 45, 0
4, 38160, Note_on_c, 0, 43, 64
4, 38183, Note_on_c, 0, 43, 0
4, 38184, Note_on_c, 0, 42, 64
4, 38207, Note_on_c, 0, 42, 0
4, 38208, Note_on_c, 0, 43, 64
4, 38253, Note_on_c, 0, 43, 0
4, 38256, Note_on_c, 0, 55, 64
4, 38301, Note_on_c, 0, 55, 0
4, 38304, Note_on_c, 0, 54, 64
4, 38349, Note_on_c, 0, 54, 0
4, 38352, Note_on_c, 0, 52, 64
4, 38397, Note_on_c, 0, 52, 0
4, 38400, Note_on_c, 0, 54, 64
4, 38445, Note_on_c, 0, 54, 0
4, 38448, Note_on_c, 0, 47, 64
4, 38493, Note_on_c, 0, 47, 0
4, 38496, Note_on_c, 0, 51, 64
4, 38541, Note_on_c, 0, 51, 0
4, 38544, Note_on_c, 0, 54, 64
4, 38589, Note_on_c, 0, 54, 0
4, 38592, Note_on_c, 0, 59, 64
4, 38637, Note_on_c, 0, 59, 0
4, 38640, Note_on_c, 0, 54, 64
4, 38685, Note_on_c, 0, 54, 0
4, 38688, Note_on_c, 0, 47, 64
4, 38733, Note_on_c, 0, 47, 0
4, 38736, Note_on_c, 0, 51, 64
4, 38781, Note_on_c, 0, 51, 0
4, 38784, Note_on_c, 0, 52, 64
4, 38829, Note_on_c, 0, 52, 0
4, 38832, Note_on_c, 0, 40, 64
4, 38877, Note_on_c, 0, 40, 0
4, 38880, Note_on_c, 0, 52, 64
4, 38925, Note_on_c, 0, 52, 0
4, 38928, Note_on_c, 0, 54, 64
4, 38973, Note_on_c, 0, 54, 0
4, 38976, Note_on_c, 0, 55, 64
4, 38999, Note_on_c, 0, 55, 0
4, 39000, Note_on_c, 0, 59, 64
4, 39023, Note_on_c, 0, 59, 0
4, 39024, Note_on_c, 0, 57, 64
4, 39047, Note_on_c, 0, 57, 0
4, 39048, Note_on_c, 0, 55, 64
4, 39071, Note_on_c, 0, 55, 0
4, 39072, Note_on_c, 0, 57, 64
4, 39095, Note_on_c, 0, 57, 0
4, 39096, Note_on_c, 0, 55, 64
4, 39119, Note_on_c, 0, 55, 0
4, 39120, Note_on_c, 0, 54, 64
4, 39143, Note_on_c, 0, 54, 0
4, 39144, Note_on_c, 0, 52, 64
4, 39167, Note_on_c, 0, 52, 0
4, 39168, Note_on_c, 0, 57, 64
4, 39213, Note_on_c, 0, 57, 0
4, 39216, Note_on_c, 0, 60, 64
4, 39261, Note_on_c, 0, 60, 0
4, 39264, Note_on_c, 0, 50, 64
4, 39309, Note_on_c, 0, 50, 0
4, 39312, Note_on_c, 0, 54, 64
4, 39357, Note_on_c, 0, 54, 0
4, 39360, Note_on_c, 0, 55, 64
4, 39405, Note_on_c, 0, 55, 0
4, 39408, Note_on_c, 0, 59, 64
4, 39453, Note_on_c, 0, 59, 0
4, 39456, Note_on_c, 0, 48, 64
4, 39501, Note_on_c, 0, 48, 0
4, 39504, Note_on_c, 0, 52, 64
4, 39549, Note_on_c, 0, 52, 0
4, 39552, Note_on_c, 0, 54, 64
4, 39597, Note_on_c, 0, 54, 0
4, 39600, Note_on_c, 0, 57, 64
4, 39645, Note_on_c, 0, 57, 0
4, 39648, Note_on_c, 0, 47, 64
4, 39693, Note_on_c, 0, 47, 0
4, 39696, Note_on_c, 0, 51, 64
4, 39741, Note_on_c, 0, 51, 0
4, 39744, Note_on_c, 0, 52, 64
4, 39767, Note_on_c, 0, 52, 0
4, 39768, Note_on_c, 0, 47, 64
4, 39791, Note_on_c, 0, 47, 0
4, 39792, Note_on_c, 0, 45, 64
4, 39815, Note_on_c, 0, 45, 0
4, 39816, Note_on_c, 0, 43, 64
4, 39839, Note_on_c, 0, 43, 0
4, 39840, Note_on_c, 0, 45, 64
4, 39863, Note_on_c, 0, 45, 0
4, 39864, Note_on_c, 0, 43, 64
4, 39887, Note_on_c, 0, 43, 0
4, 39888, Note_on_c, 0, 42, 64
4, 39911, Note_on_c, 0, 42, 0
4, 39912, Note_on_c, 0, 40, 64
4, 39935, Note_on_c, 0, 40, 0
4, 39936, Note_on_c, 0, 45, 64
4, 39981, Note_on_c, 0, 45, 0
4, 39984, Note_on_c, 0, 47, 64
4, 40029, Note_on_c, 0, 47, 0
4, 40032, Note_on_c, 0, 48, 64
4, 40077, Note_on_c, 0, 48, 0
4, 40080, Note_on_c, 0, 47, 64
4, 40125, Note_on_c, 0, 47, 0
4, 40128, Note_on_c, 0, 45, 64
4, 40173, Note_on_c, 0, 45, 0
4, 40176, Note_on_c, 0, 48, 64
4, 40221, Note_on_c, 0, 48, 0
4, 40224, Note_on_c, 0, 46, 64
4, 40269, Note_on_c, 0, 46, 0
4, 40272, Note_on_c, 0, 42, 64
4, 40317, Note_on_c, 0, 42, 0
4, 40320, Note_on_c, 0, 47, 64
4, 40601, Note_on_c, 0, 47, 0
4, 40608, Note_on_c, 0, 47, 64
4, 40697, Note_on_c, 0, 47, 0
4, 40704, Note_on_c, 0, 40, 64
4, 40749, Note_on_c, 0, 40, 0
4, 40752, Note_on_c, 0, 52, 64
4, 40797, Note_on_c, 0, 52, 0
4, 40800, Note_on_c, 0, 42, 64
4, 40845, Note_on_c, 0, 42, 0
4, 40848, Note_on_c, 0, 51, 64
4, 40893, Note_on_c, 0, 51, 0
4, 40896, Note_on_c, 0, 43, 64
4, 40941, Note_on_c, 0, 43, 0
4, 40944, Note_on_c, 0, 45, 64
4, 40967, Note_on_c, 0, 45, 0
4, 40968, Note_on_c, 0, 47, 64
4, 40991, Note_on_c, 0, 47, 0
4, 40992, Note_on_c, 0, 45, 64
4, 41015, Note_on_c, 0, 45, 0
4, 41016, Note_on_c, 0, 43, 64
4, 41039, Note_on_c, 0, 43, 0
4, 41040, Note_on_c, 0, 42, 64
4, 41063, Note_on_c, 0, 42, 0
4, 41064, Note_on_c, 0, 40, 64
4, 41087, Note_on_c, 0, 40, 0
4, 41088, Note_on_c, 0, 47, 64
4, 41133, Note_on_c, 0, 47, 0
4, 41136, Note_on_c, 0, 54, 64
4, 41181, Note_on_c, 0, 54, 0
4, 41184, Note_on_c, 0, 49, 64
4, 41229, Note_on_c, 0, 49, 0
4, 41232, Note_on_c, 0, 54, 64
4, 41277, Note_on_c, 0, 54, 0
4, 41280, Note_on_c, 0, 51, 64
4, 41325, Note_on_c, 0, 51, 0
4, 41328, Note_on_c, 0, 52, 64
4, 41351, Note_on_c, 0, 52, 0
4, 41352, Note_on_c, 0, 54, 64
4, 41375, Note_on_c, 0, 54, 0
4, 41376, Note_on_c, 0, 52, 64
4, 41399, Note_on_c, 0, 52, 0
4, 41400, Note_on_c, 0, 51, 64
4, 41423, Note_on_c, 0, 51, 0
4, 41424, Note_on_c, 0, 49, 64
4, 41447, Note_on_c, 0, 49, 0
4, 41448, Note_on_c, 0, 47, 64
4, 41471, Note_on_c, 0, 47, 0
4, 41472, Note_on_c, 0, 52, 64
4, 41517, Note_on_c, 0, 52, 0
4, 41520, Note_on_c, 0, 47, 64
4, 41565, Note_on_c, 0, 47, 0
4, 41568, Note_on_c, 0, 54, 64
4, 41613, Note_on_c, 0, 54, 0
4, 41616, Note_on_c, 0, 47, 64
4, 41661, Note_on_c, 0, 47, 0
4, 41664, Note_on_c, 0, 55, 64
4, 41709, Note_on_c, 0, 55, 0
4, 41712, Note_on_c, 0, 57, 64
4, 41735, Note_on_c, 0, 57, 0
4, 41736, Note_on_c, 0, 59, 64
4, 41759, Note_on_c, 0, 59, 0
4, 41760, Note_on_c, 0, 57, 64
4, 41783, Note_on_c, 0, 57, 0
4, 41784, Note_on_c, 0, 55, 64
4, 41807, Note_on_c, 0, 55, 0
4, 41808, Note_on_c, 0, 54, 64
4, 41831, Note_on_c, 0, 54, 0
4, 41832, Note_on_c, 0, 52, 64
4, 41855, Note_on_c, 0, 52, 0
4, 41856, Note_on_c, 0, 59, 64
4, 41901, Note_on_c, 0, 59, 0
4, 41904, Note_on_c, 0, 47, 64
4, 41949, Note_on_c, 0, 47, 0
4, 41952, Note_on_c, 0, 59, 64
4, 41997, Note_on_c, 0, 59, 0
4, 42000, Note_on_c, 0, 61, 64
4, 42045, Note_on_c, 0, 61, 0
4, 42048, Note_on_c, 0, 63, 64
4, 42093, Note_on_c, 0, 63, 0
4, 42096, Note_on_c, 0, 64, 64
4, 42119, Note_on_c, 0, 64, 0
4, 42120, Note_on_c, 0, 66, 64
4, 42143, Note_on_c, 0, 66, 0
4, 42144, Note_on_c, 0, 64, 64
4, 42167, Note_on_c, 0, 64, 0
4, 42168, Note_on_c, 0, 63, 64
4, 42191, Note_on_c, 0, 63, 0
4, 42192, Note_on_c, 0, 61, 64
4, 42215, Note_on_c, 0, 61, 0
4, 42216, Note_on_c, 0, 59, 64
4, 42239, Note_on_c, 0, 59, 0
4, 42240, Note_on_c, 0, 64, 64
4, 42285, Note_on_c, 0, 64, 0
4, 42288, Note_on_c, 0, 52, 64
4, 42333, Note_on_c, 0, 52, 0
4, 42336, Note_on_c, 0, 64, 64
4, 42381, Note_on_c, 0, 64, 0
4, 42384, Note_on_c, 0, 62, 64
4, 42429, Note_on_c, 0, 62, 0
4, 42432, Note_on_c, 0, 60, 64
4, 42477, Note_on_c, 0, 60, 0
4, 42480, Note_on_c, 0, 62, 64
4, 42503, Note_on_c, 0, 62, 0
4, 42504, Note_on_c, 0, 64, 64
4, 42527, Note_on_c, 0, 64, 0
4, 42528, Note_on_c, 0, 62, 64
4, 42551, Note_on_c, 0, 62, 0
4, 42552, Note_on_c, 0, 60, 64
4, 42575, Note_on_c, 0, 60, 0
4, 42576, Note_on_c, 0, 59, 64
4, 42599, Note_on_c, 0, 59, 0
4, 42600, Note_on_c, 0, 57, 64
4, 42623, Note_on_c, 0, 57, 0
4, 42624, Note_on_c, 0, 62, 64
4, 42669, Note_on_c, 0, 62, 0
4, 42672, Note_on_c, 0, 50, 64
4, 42717, Note_on_c, 0, 50, 0
4, 42720, Note_on_c, 0, 62, 64
4, 42765, Note_on_c, 0, 62, 0
4, 42768, Note_on_c, 0, 60, 64
4, 42813, Note_on_c, 0, 60, 0
4, 42816, Note_on_c, 0, 59, 64
4, 42861, Note_on_c, 0, 59, 0
4, 42864, Note_on_c, 0, 60, 64
4, 42887, Note_on_c, 0, 60, 0
4, 42888, Note_on_c, 0, 62, 64
4, 42911, Note_on_c, 0, 62, 0
4, 42912, Note_on_c, 0, 60, 64
4, 42935, Note_on_c, 0, 60, 0
4, 42936, Note_on_c, 0, 59, 64
4, 42959, Note_on_c, 0, 59, 0
4, 42960, Note_on_c, 0, 57, 64
4, 42983, Note_on_c, 0, 57, 0
4, 42984, Note_on_c, 0, 55, 64
4, 43007, Note_on_c, 0, 55, 0
4, 43008, Note_on_c, 0, 60, 64
4, 43053, Note_on_c, 0, 60, 0
4, 43056, Note_on_c, 0, 48, 64
4, 43101, Note_on_c, 0, 48, 0
4, 43128, Note_on_c, 0, 52, 64
4, 43151, Note_on_c, 0, 52, 0
4, 43152, Note_on_c, 0, 50, 64
4, 43175, Note_on_c, 0, 50, 0
4, 43176, Note_on_c, 0, 48, 64
4, 43199, Note_on_c, 0, 48, 0
4, 43200, Note_on_c, 0, 47, 64
4, 43245, Note_on_c, 0, 47, 0
4, 43248, Note_on_c, 0, 59, 64
4, 43293, Note_on_c, 0, 59, 0
4, 43296, Note_on_c, 0, 56, 64
4, 43341, Note_on_c, 0, 56, 0
4, 43344, Note_on_c, 0, 52, 64
4, 43389, Note_on_c, 0, 52, 0
4, 43392, Note_on_c, 0, 57, 64
4, 43415, Note_on_c, 0, 57, 0
4, 43416, Note_on_c, 0, 59, 64
4, 43439, Note_on_c, 0, 59, 0
4, 43440, Note_on_c, 0, 60, 64
4, 43511, Note_on_c, 0, 60, 0
4, 43512, Note_on_c, 0, 59, 64
4, 43535, Note_on_c, 0, 59, 0
4, 43536, Note_on_c, 0, 57, 64
4, 43559, Note_on_c, 0, 57, 0
4, 43560, Note_on_c, 0, 55, 64
4, 43583, Note_on_c, 0, 55, 0
4, 43584, Note_on_c, 0, 54, 64
4, 43629, Note_on_c, 0, 54, 0
4, 43632, Note_on_c, 0, 57, 64
4, 43677, Note_on_c, 0, 57, 0
4, 43680, Note_on_c, 0, 51, 64
4, 43725, Note_on_c, 0, 51, 0
4, 43728, Note_on_c, 0, 59, 64
4, 43773, Note_on_c, 0, 59, 0
4, 43776, Note_on_c, 0, 52, 64
4, 43799, Note_on_c, 0, 52, 0
4, 43800, Note_on_c, 0, 54, 64
4, 43823, Note_on_c, 0, 54, 0
4, 43824, Note_on_c, 0, 55, 64
4, 43895, Note_on_c, 0, 55, 0
4, 43896, Note_on_c, 0, 54, 64
4, 43919, Note_on_c, 0, 54, 0
4, 43920, Note_on_c, 0, 52, 64
4, 43943, Note_on_c, 0, 52, 0
4, 43944, Note_on_c, 0, 50, 64
4, 43967, Note_on_c, 0, 50, 0
4, 43968, Note_on_c, 0, 49, 64
4, 44013, Note_on_c, 0, 49, 0
4, 44016, Note_on_c, 0, 59, 64
4, 44061, Note_on_c, 0, 59, 0
4, 44064, Note_on_c, 0, 58, 64
4, 44109, Note_on_c, 0, 58, 0
4, 44112, Note_on_c, 0, 50, 64
4, 44157, Note_on_c, 0, 50, 0
4, 44160, Note_on_c, 0, 47, 64
4, 44721, Note_on_c, 0, 47, 0
4, 44736, Note_on_c, 0, 47, 64
4, 44781, Note_on_c, 0, 47, 0
4, 44784, Note_on_c, 0, 48, 64
4, 44829, Note_on_c, 0, 48, 0
4, 44832, Note_on_c, 0, 47, 64
4, 44877, Note_on_c, 0, 47, 0
4, 44880, Note_on_c, 0, 45, 64
4, 44925, Note_on_c, 0, 45, 0
4, 44928, Note_on_c, 0, 44, 64
4, 44973, Note_on_c, 0, 44, 0
4, 44976, Note_on_c, 0, 45, 64
4, 44999, Note_on_c, 0, 45, 0
4, 45000, Note_on_c, 0, 47, 64
4, 45023, Note_on_c, 0, 47, 0
4, 45024, Note_on_c, 0, 45, 64
4, 45047, Note_on_c, 0, 45, 0
4, 45048, Note_on_c, 0, 44, 64
4, 45071, Note_on_c, 0, 44, 0
4, 45072, Note_on_c, 0, 42, 64
4, 45095, Note_on_c, 0, 42, 0
4, 45096, Note_on_c, 0, 40, 64
4, 45119, Note_on_c, 0, 40, 0
4, 45120, Note_on_c, 0, 45, 64
4, 45165, Note_on_c, 0, 45, 0
4, 45168, Note_on_c, 0, 57, 64
4, 45239, Note_on_c, 0, 57, 0
4, 45240, Note_on_c, 0, 55, 64
4, 45263, Note_on_c, 0, 55, 0
4, 45264, Note_on_c, 0, 54, 64
4, 45287, Note_on_c, 0, 54, 0
4, 45288, Note_on_c, 0, 52, 64
4, 45311, Note_on_c, 0, 52, 0
4, 45312, Note_on_c, 0, 51, 64
4, 45335, Note_on_c, 0, 51, 0
4, 45336, Note_on_c, 0, 54, 64
4, 45359, Note_on_c, 0, 54, 0
4, 45360, Note_on_c, 0, 52, 64
4, 45383, Note_on_c, 0, 52, 0
4, 45384, Note_on_c, 0, 51, 64
4, 45407, Note_on_c, 0, 51, 0
4, 45408, Note_on_c, 0, 52, 64
4, 45431, Note_on_c, 0, 52, 0
4, 45432, Note_on_c, 0, 51, 64
4, 45455, Note_on_c, 0, 51, 0
4, 45456, Note_on_c, 0, 49, 64
4, 45479, Note_on_c, 0, 49, 0
4, 45480, Note_on_c, 0, 47, 64
4, 45503, Note_on_c, 0, 47, 0
4, 45504, Note_on_c, 0, 52, 64
4, 45549, Note_on_c, 0, 52, 0
4, 45552, Note_on_c, 0, 64, 64
4, 45623, Note_on_c, 0, 64, 0
4, 45624, Note_on_c, 0, 62, 64
4, 45647, Note_on_c, 0, 62, 0
4, 45648, Note_on_c, 0, 60, 64
4, 45671, Note_on_c, 0, 60, 0
4, 45672, Note_on_c, 0, 59, 64
4, 45695, Note_on_c, 0, 59, 0
4, 45696, Note_on_c, 0, 57, 64
4, 45719, Note_on_c, 0, 57, 0
4, 45720, Note_on_c, 0, 59, 64
4, 45743, Note_on_c, 0, 59, 0
4, 45744, Note_on_c, 0, 57, 64
4, 45767, Note_on_c, 0, 57, 0
4, 45768, Note_on_c, 0, 56, 64
4, 45791, Note_on_c, 0, 56, 0
4, 45792, Note_on_c, 0, 57, 64
4, 45815, Note_on_c, 0, 57, 0
4, 45816, Note_on_c, 0, 55, 64
4, 45839, Note_on_c, 0, 55, 0
4, 45840, Note_on_c, 0, 54, 64
4, 45863, Note_on_c, 0, 54, 0
4, 45864, Note_on_c, 0, 52, 64
4, 45887, Note_on_c, 0, 52, 0
4, 45888, Note_on_c, 0, 54, 64
4, 45911, Note_on_c, 0, 54, 0
4, 45912, Note_on_c, 0, 52, 64
4, 45935, Note_on_c, 0, 52, 0
4, 45936, Note_on_c, 0, 51, 64
4, 45959, Note_on_c, 0, 51, 0
4, 45960, Note_on_c, 0, 49, 64
4, 45983, Note_on_c, 0, 49, 0
4, 45984, Note_on_c, 0, 51, 64
4, 46007, Note_on_c, 0, 51, 0
4, 46008, Note_on_c, 0, 47, 64
4, 46031, Note_on_c, 0, 47, 0
4, 46032, Note_on_c, 0, 49, 64
4, 46055, Note_on_c, 0, 49, 0
4, 46056, Note_on_c, 0, 51, 64
4, 46079, Note_on_c, 0, 51, 0
4, 46080, Note_on_c, 0, 52, 64
4, 46103, Note_on_c, 0, 52, 0
4, 46104, Note_on_c, 0, 60, 64
4, 46127, Note_on_c, 0, 60, 0
4, 46128, Note_on_c, 0, 59, 64
4, 46151, Note_on_c, 0, 59, 0
4, 46152, Note_on_c, 0, 60, 64
4, 46175, Note_on_c, 0, 60, 0
4, 46176, Note_on_c, 0, 50, 64
4, 46199, Note_on_c, 0, 50, 0
4, 46200, Note_on_c, 0, 59, 64
4, 46223, Note_on_c, 0, 59, 0
4, 46224, Note_on_c, 0, 57, 64
4, 46247, Note_on_c, 0, 57, 0
4, 46248, Note_on_c, 0, 59, 64
4, 46271, Note_on_c, 0, 59, 0
4, 46272, Note_on_c, 0, 48, 64
4, 46295, Note_on_c, 0, 48, 0
4, 46296, Note_on_c, 0, 57, 64
4, 46319, Note_on_c, 0, 57, 0
4, 46320, Note_on_c, 0, 55, 64
4, 46343, Note_on_c, 0, 55, 0
4, 46344, Note_on_c, 0, 57, 64
4, 46367, Note_on_c, 0, 57, 0
4, 46368, Note_on_c, 0, 47, 64
4, 46391, Note_on_c, 0, 47, 0
4, 46392, Note_on_c, 0, 55, 64
4, 46415, Note_on_c, 0, 55, 0
4, 46416, Note_on_c, 0, 54, 64
4, 46439, Note_on_c, 0, 54, 0
4, 46440, Note_on_c, 0, 55, 64
4, 46463, Note_on_c, 0, 55, 0
4, 46464, Note_on_c, 0, 46, 64
4, 46487, Note_on_c, 0, 46, 0
4, 46488, Note_on_c, 0, 55, 64
4, 46511, Note_on_c, 0, 55, 0
4, 46512, Note_on_c, 0, 54, 64
4, 46535, Note_on_c, 0, 54, 0
4, 46536, Note_on_c, 0, 52, 64
4, 46559, Note_on_c, 0, 52, 0
4, 46560, Note_on_c, 0, 54, 64
4, 46583, Note_on_c, 0, 54, 0
4, 46584, Note_on_c, 0, 52, 64
4, 46607, Note_on_c, 0, 52, 0
4, 46608, Note_on_c, 0, 51, 64
4, 46631, Note_on_c, 0, 51, 0
4, 46632, Note_on_c, 0, 49, 64
4, 46655, Note_on_c, 0, 49, 0
4, 46656, Note_on_c, 0, 47, 64
4, 46679, Note_on_c, 0, 47, 0
4, 46680, Note_on_c, 0, 57, 64
4, 46703, Note_on_c, 0, 57, 0
4, 46704, Note_on_c, 0, 55, 64
4, 46727, Note_on_c, 0, 55, 0
4, 46728, Note_on_c, 0, 54, 64
4, 46751, Note_on_c, 0, 54, 0
4, 46752, Note_on_c, 0, 55, 64
4, 46775, Note_on_c, 0, 55, 0
4, 46776, Note_on_c, 0, 54, 64
4, 46799, Note_on_c, 0, 54, 0
4, 46800, Note_on_c, 0, 52, 64
4, 46823, Note_on_c, 0, 52, 0
4, 46824, Note_on_c, 0, 50, 64
4, 46847, Note_on_c, 0, 50, 0
4, 46872, Note_on_c, 0, 52, 64
4, 46895, Note_on_c, 0, 52, 0
4, 46896, Note_on_c, 0, 54, 64
4, 46919, Note_on_c, 0, 54, 0
4, 46920, Note_on_c, 0, 55, 64
4, 46943, Note_on_c, 0, 55, 0
4, 46968, Note_on_c, 0, 54, 64
4, 46991, Note_on_c, 0, 54, 0
4, 46992, Note_on_c, 0, 55, 64
4, 47015, Note_on_c, 0, 55, 0
4, 47016, Note_on_c, 0, 57, 64
4, 47039, Note_on_c, 0, 57, 0
4, 47088, Note_on_c, 0, 59, 64
4, 47177, Note_on_c, 0, 59, 0
4, 47184, Note_on_c, 0, 57, 64
4, 47321, Note_on_c, 0, 57, 0
4, 47328, Note_on_c, 0, 55, 64
4, 47373, Note_on_c, 0, 55, 0
4, 47376, Note_on_c, 0, 54, 64
4, 47421, Note_on_c, 0, 54, 0
4, 47424, Note_on_c, 0, 55, 64
4, 47447, Note_on_c, 0, 55, 0
4, 47448, Note_on_c, 0, 52, 64
4, 47471, Note_on_c, 0, 52, 0
4, 47472, Note_on_c, 0, 55, 64
4, 47495, Note_on_c, 0, 55, 0
4, 47496, Note_on_c, 0, 59, 64
4, 47519, Note_on_c, 0, 59, 0
4, 47520, Note_on_c, 0, 64, 64
4, 47609, Note_on_c, 0, 64, 0
4, 47609, End_track
5, 0, Start_track
5, 0, MIDI_port, 0
5, 0, Title_t, "Sonata No. 6 en G mayor"
5, 0, End_track
6, 0, Start_track
6, 0, MIDI_port, 0
6, 0, Title_t, "para violin y clavicembalo"
6, 0, End_track
7, 0, Start_track
7, 0, MIDI_port, 0
7, 0, Title_t, "J. S. Bach (1685-1750)"
7, 0, End_track
8, 0, Start_track
8, 0, MIDI_port, 0
8, 0, Title_t, "Tercer movimiento: Allegro"
8, 0, End_track
9, 0, Start_track
9, 0, MIDI_port, 0
9, 0, Title_t, "Luis Gerardo Barajas"
9, 0, End_track
10, 0, Start_track
10, 0, MIDI_port, 0
10, 0, Title_t, "Bach Keeps RuLiNg"
10, 0, End_track
0, 0, End_of_file
