0, 0, Header, 1, 10, 96
1, 0, Start_track
1, 0, Sequencer_specific, 3, 0, 0, 65
1, 0, Time_signature, 3, 2, 24, 8
1, 0, Key_signature, 4, "major"
1, 0, Tempo, 1000000
1, 18008, Tempo, 1000000
1, 18024, Tempo, 1016949
1, 18040, Tempo, 1034483
1, 18056, Tempo, 1052632
1, 18072, Tempo, 1071429
1, 18080, Tempo, 1090909
1, 18096, Tempo, 1111111
1, 18112, Tempo, 1132075
1, 18128, Tempo, 1153846
1, 18144, Tempo, 1176471
1, 18152, Tempo, 1200000
1, 18168, Tempo, 1224490
1, 18184, Tempo, 1250000
1, 18200, Tempo, 1276596
1, 18216, Tempo, 1304348
1, 18224, Tempo, 1333333
1, 18240, Tempo, 1363636
1, 18256, Tempo, 1395349
1, 18272, Tempo, 1428571
1, 18288, Tempo, 1463415
1, 18296, Tempo, 1500000
1, 18312, Tempo, 1538462
1, 18328, Tempo, 1578947
1, 18344, Tempo, 1621622
1, 18360, Tempo, 1666667
1, 18368, Tempo, 1714286
1, 18384, Tempo, 1764706
1, 18400, Tempo, 1818182
1, 18416, Tempo, 1875000
1, 18432, Tempo, 1935484
1, 18440, Tempo, 333333
1, 18440, End_track
2, 0, Start_track
2, 0, MIDI_port, 0
2, 0, Title_t, "Violin"
2, 0, Program_c, 1, 40
2, 0, Control_c, 1, 7, 127
2, 1152, Note_on_c, 1, 68, 64
2, 1241, Note_on_c, 1, 68, 0
2, 1296, Note_on_c, 1, 68, 64
2, 1311, Note_on_c, 1, 68, 0
2, 1312, Note_on_c, 1, 70, 64
2, 1327, Note_on_c, 1, 70, 0
2, 1328, Note_on_c, 1, 72, 64
2, 1343, Note_on_c, 1, 72, 0
2, 1344, Note_on_c, 1, 73, 64
2, 1359, Note_on_c, 1, 73, 0
2, 1360, Note_on_c, 1, 75, 64
2, 1375, Note_on_c, 1, 75, 0
2, 1376, Note_on_c, 1, 76, 64
2, 1391, Note_on_c, 1, 76, 0
2, 1392, Note_on_c, 1, 76, 64
2, 1407, Note_on_c, 1, 76, 0
2, 1408, Note_on_c, 1, 78, 64
2, 1423, Note_on_c, 1, 78, 0
2, 1424, Note_on_c, 1, 80, 64
2, 1439, Note_on_c, 1, 80, 0
2, 1440, Note_on_c, 1, 80, 64
2, 1455, Note_on_c, 1, 80, 0
2, 1456, Note_on_c, 1, 78, 64
2, 1471, Note_on_c, 1, 78, 0
2, 1472, Note_on_c, 1, 76, 64
2, 1487, Note_on_c, 1, 76, 0
2, 1488, Note_on_c, 1, 76, 64
2, 1503, Note_on_c, 1, 76, 0
2, 1504, Note_on_c, 1, 75, 64
2, 1519, Note_on_c, 1, 75, 0
2, 1520, Note_on_c, 1, 73, 64
2, 1535, Note_on_c, 1, 73, 0
2, 1536, Note_on_c, 1, 73, 64
2, 1713, Note_on_c, 1, 73, 0
2, 1776, Note_on_c, 1, 73, 64
2, 1791, Note_on_c, 1, 73, 0
2, 1792, Note_on_c, 1, 75, 64
2, 1807, Note_on_c, 1, 75, 0
2, 1808, Note_on_c, 1, 77, 64
2, 1823, Note_on_c, 1, 77, 0
2, 1824, Note_on_c, 1, 78, 64
2, 1839, Note_on_c, 1, 78, 0
2, 1840, Note_on_c, 1, 80, 64
2, 1855, Note_on_c, 1, 80, 0
2, 1856, Note_on_c, 1, 81, 64
2, 1871, Note_on_c, 1, 81, 0
2, 1872, Note_on_c, 1, 81, 64
2, 1887, Note_on_c, 1, 81, 0
2, 1888, Note_on_c, 1, 83, 64
2, 1903, Note_on_c, 1, 83, 0
2, 1904, Note_on_c, 1, 85, 64
2, 1919, Note_on_c, 1, 85, 0
2, 1920, Note_on_c, 1, 85, 64
2, 1935, Note_on_c, 1, 85, 0
2, 1936, Note_on_c, 1, 83, 64
2, 1951, Note_on_c, 1, 83, 0
2, 1952, Note_on_c, 1, 81, 64
2, 1967, Note_on_c, 1, 81, 0
2, 1968, Note_on_c, 1, 81, 64
2, 1983, Note_on_c, 1, 81, 0
2, 1984, Note_on_c, 1, 80, 64
2, 1999, Note_on_c, 1, 80, 0
2, 2000, Note_on_c, 1, 78, 64
2, 2015, Note_on_c, 1, 78, 0
2, 2016, Note_on_c, 1, 78, 64
2, 2031, Note_on_c, 1, 78, 0
2, 2032, Note_on_c, 1, 76, 64
2, 2047, Note_on_c, 1, 76, 0
2, 2048, Note_on_c, 1, 75, 64
2, 2063, Note_on_c, 1, 75, 0
2, 2064, Note_on_c, 1, 75, 64
2, 2079, Note_on_c, 1, 75, 0
2, 2080, Note_on_c, 1, 73, 64
2, 2095, Note_on_c, 1, 73, 0
2, 2096, Note_on_c, 1, 72, 64
2, 2111, Note_on_c, 1, 72, 0
2, 2112, Note_on_c, 1, 72, 64
2, 2135, Note_on_c, 1, 72, 0
2, 2136, Note_on_c, 1, 81, 64
2, 2159, Note_on_c, 1, 81, 0
2, 2160, Note_on_c, 1, 80, 64
2, 2231, Note_on_c, 1, 80, 0
2, 2232, Note_on_c, 1, 76, 64
2, 2255, Note_on_c, 1, 76, 0
2, 2256, Note_on_c, 1, 78, 64
2, 2279, Note_on_c, 1, 78, 0
2, 2280, Note_on_c, 1, 75, 64
2, 2303, Note_on_c, 1, 75, 0
2, 2304, Note_on_c, 1, 76, 64
2, 2327, Note_on_c, 1, 76, 0
2, 2328, Note_on_c, 1, 72, 64
2, 2351, Note_on_c, 1, 72, 0
2, 2352, Note_on_c, 1, 73, 64
2, 2375, Note_on_c, 1, 73, 0
2, 2376, Note_on_c, 1, 76, 64
2, 2399, Note_on_c, 1, 76, 0
2, 2400, Note_on_c, 1, 69, 64
2, 2423, Note_on_c, 1, 69, 0
2, 2424, Note_on_c, 1, 68, 64
2, 2447, Note_on_c, 1, 68, 0
2, 2448, Note_on_c, 1, 69, 64
2, 2471, Note_on_c, 1, 69, 0
2, 2472, Note_on_c, 1, 76, 64
2, 2495, Note_on_c, 1, 76, 0
2, 2496, Note_on_c, 1, 75, 64
2, 2519, Note_on_c, 1, 75, 0
2, 2520, Note_on_c, 1, 81, 64
2, 2543, Note_on_c, 1, 81, 0
2, 2544, Note_on_c, 1, 80, 64
2, 2567, Note_on_c, 1, 80, 0
2, 2568, Note_on_c, 1, 76, 64
2, 2591, Note_on_c, 1, 76, 0
2, 2592, Note_on_c, 1, 73, 64
2, 2615, Note_on_c, 1, 73, 0
2, 2616, Note_on_c, 1, 68, 64
2, 2639, Note_on_c, 1, 68, 0
2, 2640, Note_on_c, 1, 69, 64
2, 2663, Note_on_c, 1, 69, 0
2, 2664, Note_on_c, 1, 73, 64
2, 2687, Note_on_c, 1, 73, 0
2, 2688, Note_on_c, 1, 66, 64
2, 2711, Note_on_c, 1, 66, 0
2, 2712, Note_on_c, 1, 64, 64
2, 2735, Note_on_c, 1, 64, 0
2, 2736, Note_on_c, 1, 66, 64
2, 2759, Note_on_c, 1, 66, 0
2, 2760, Note_on_c, 1, 73, 64
2, 2783, Note_on_c, 1, 73, 0
2, 2784, Note_on_c, 1, 71, 64
2, 2807, Note_on_c, 1, 71, 0
2, 2808, Note_on_c, 1, 78, 64
2, 2831, Note_on_c, 1, 78, 0
2, 2832, Note_on_c, 1, 76, 64
2, 2855, Note_on_c, 1, 76, 0
2, 2856, Note_on_c, 1, 73, 64
2, 2879, Note_on_c, 1, 73, 0
2, 2880, Note_on_c, 1, 69, 64
2, 2903, Note_on_c, 1, 69, 0
2, 2904, Note_on_c, 1, 64, 64
2, 2927, Note_on_c, 1, 64, 0
2, 2928, Note_on_c, 1, 66, 64
2, 2951, Note_on_c, 1, 66, 0
2, 2952, Note_on_c, 1, 69, 64
2, 2975, Note_on_c, 1, 69, 0
2, 2976, Note_on_c, 1, 63, 64
2, 2999, Note_on_c, 1, 63, 0
2, 3000, Note_on_c, 1, 64, 64
2, 3023, Note_on_c, 1, 64, 0
2, 3024, Note_on_c, 1, 66, 64
2, 3047, Note_on_c, 1, 66, 0
2, 3048, Note_on_c, 1, 69, 64
2, 3071, Note_on_c, 1, 69, 0
2, 3072, Note_on_c, 1, 73, 64
2, 3095, Note_on_c, 1, 73, 0
2, 3096, Note_on_c, 1, 75, 64
2, 3119, Note_on_c, 1, 75, 0
2, 3120, Note_on_c, 1, 76, 64
2, 3143, Note_on_c, 1, 76, 0
2, 3144, Note_on_c, 1, 81, 64
2, 3167, Note_on_c, 1, 81, 0
2, 3168, Note_on_c, 1, 71, 64
2, 3213, Note_on_c, 1, 71, 0
2, 3216, Note_on_c, 1, 81, 64
2, 3231, Note_on_c, 1, 81, 0
2, 3232, Note_on_c, 1, 80, 64
2, 3247, Note_on_c, 1, 80, 0
2, 3248, Note_on_c, 1, 78, 64
2, 3263, Note_on_c, 1, 78, 0
2, 3264, Note_on_c, 1, 78, 64
2, 3279, Note_on_c, 1, 78, 0
2, 3280, Note_on_c, 1, 76, 64
2, 3295, Note_on_c, 1, 76, 0
2, 3296, Note_on_c, 1, 75, 64
2, 3311, Note_on_c, 1, 75, 0
2, 3312, Note_on_c, 1, 75, 64
2, 3327, Note_on_c, 1, 75, 0
2, 3328, Note_on_c, 1, 73, 64
2, 3343, Note_on_c, 1, 73, 0
2, 3344, Note_on_c, 1, 71, 64
2, 3359, Note_on_c, 1, 71, 0
2, 3360, Note_on_c, 1, 71, 64
2, 3375, Note_on_c, 1, 71, 0
2, 3376, Note_on_c, 1, 69, 64
2, 3391, Note_on_c, 1, 69, 0
2, 3392, Note_on_c, 1, 68, 64
2, 3407, Note_on_c, 1, 68, 0
2, 3408, Note_on_c, 1, 69, 64
2, 3431, Note_on_c, 1, 69, 0
2, 3432, Note_on_c, 1, 78, 64
2, 3455, Note_on_c, 1, 78, 0
2, 3456, Note_on_c, 1, 68, 64
2, 3501, Note_on_c, 1, 68, 0
2, 3504, Note_on_c, 1, 76, 64
2, 3504, Note_on_c, 1, 68, 64
2, 3516, Note_on_c, 1, 68, 0
2, 3516, Note_on_c, 1, 76, 0
2, 3552, Note_on_c, 1, 76, 64
2, 3552, Note_on_c, 1, 68, 64
2, 3564, Note_on_c, 1, 68, 0
2, 3564, Note_on_c, 1, 76, 0
2, 3600, Note_on_c, 1, 76, 64
2, 3600, Note_on_c, 1, 68, 64
2, 3612, Note_on_c, 1, 68, 0
2, 3645, Note_on_c, 1, 76, 0
2, 3648, Note_on_c, 1, 76, 64
2, 3648, Note_on_c, 1, 68, 64
2, 3660, Note_on_c, 1, 68, 0
2, 3693, Note_on_c, 1, 76, 0
2, 3696, Note_on_c, 1, 76, 64
2, 3696, Note_on_c, 1, 68, 64
2, 3708, Note_on_c, 1, 68, 0
2, 3741, Note_on_c, 1, 76, 0
2, 3792, Note_on_c, 1, 76, 64
2, 3792, Note_on_c, 1, 68, 64
2, 3837, Note_on_c, 1, 68, 0
2, 3837, Note_on_c, 1, 76, 0
2, 3840, Note_on_c, 1, 76, 64
2, 3840, Note_on_c, 1, 68, 64
2, 3885, Note_on_c, 1, 68, 0
2, 3885, Note_on_c, 1, 76, 0
2, 3888, Note_on_c, 1, 76, 64
2, 3888, Note_on_c, 1, 68, 64
2, 3933, Note_on_c, 1, 68, 0
2, 3933, Note_on_c, 1, 76, 0
2, 3936, Note_on_c, 1, 76, 64
2, 3936, Note_on_c, 1, 68, 64
2, 3981, Note_on_c, 1, 68, 0
2, 3981, Note_on_c, 1, 76, 0
2, 3984, Note_on_c, 1, 76, 64
2, 3984, Note_on_c, 1, 68, 64
2, 4029, Note_on_c, 1, 68, 0
2, 4029, Note_on_c, 1, 76, 0
2, 4080, Note_on_c, 1, 76, 64
2, 4080, Note_on_c, 1, 73, 64
2, 4125, Note_on_c, 1, 73, 0
2, 4125, Note_on_c, 1, 76, 0
2, 4128, Note_on_c, 1, 76, 64
2, 4128, Note_on_c, 1, 73, 64
2, 4173, Note_on_c, 1, 73, 0
2, 4173, Note_on_c, 1, 76, 0
2, 4176, Note_on_c, 1, 76, 64
2, 4176, Note_on_c, 1, 73, 64
2, 4221, Note_on_c, 1, 73, 0
2, 4221, Note_on_c, 1, 76, 0
2, 4224, Note_on_c, 1, 76, 64
2, 4224, Note_on_c, 1, 71, 64
2, 4269, Note_on_c, 1, 71, 0
2, 4269, Note_on_c, 1, 76, 0
2, 4272, Note_on_c, 1, 76, 64
2, 4272, Note_on_c, 1, 71, 64
2, 4317, Note_on_c, 1, 71, 0
2, 4317, Note_on_c, 1, 76, 0
2, 4368, Note_on_c, 1, 75, 64
2, 4368, Note_on_c, 1, 69, 64
2, 4413, Note_on_c, 1, 69, 0
2, 4413, Note_on_c, 1, 75, 0
2, 4416, Note_on_c, 1, 75, 64
2, 4416, Note_on_c, 1, 66, 64
2, 4461, Note_on_c, 1, 66, 0
2, 4461, Note_on_c, 1, 75, 0
2, 4464, Note_on_c, 1, 75, 64
2, 4464, Note_on_c, 1, 66, 64
2, 4509, Note_on_c, 1, 66, 0
2, 4509, Note_on_c, 1, 75, 0
2, 4512, Note_on_c, 1, 75, 64
2, 4512, Note_on_c, 1, 66, 64
2, 4557, Note_on_c, 1, 66, 0
2, 4557, Note_on_c, 1, 75, 0
2, 4560, Note_on_c, 1, 75, 64
2, 4560, Note_on_c, 1, 66, 64
2, 4605, Note_on_c, 1, 66, 0
2, 4605, Note_on_c, 1, 75, 0
2, 4608, Note_on_c, 1, 76, 64
2, 4608, Note_on_c, 1, 64, 64
2, 4653, Note_on_c, 1, 64, 0
2, 4653, Note_on_c, 1, 76, 0
2, 4656, Note_on_c, 1, 80, 64
2, 4656, Note_on_c, 1, 71, 64
2, 4701, Note_on_c, 1, 71, 0
2, 4701, Note_on_c, 1, 80, 0
2, 4704, Note_on_c, 1, 80, 64
2, 4704, Note_on_c, 1, 76, 64
2, 4749, Note_on_c, 1, 76, 0
2, 4749, Note_on_c, 1, 80, 0
2, 4752, Note_on_c, 1, 81, 64
2, 4752, Note_on_c, 1, 73, 64
2, 4797, Note_on_c, 1, 73, 0
2, 4797, Note_on_c, 1, 81, 0
2, 4800, Note_on_c, 1, 83, 64
2, 4800, Note_on_c, 1, 75, 64
2, 4845, Note_on_c, 1, 75, 0
2, 4845, Note_on_c, 1, 83, 0
2, 4848, Note_on_c, 1, 83, 64
2, 4848, Note_on_c, 1, 75, 64
2, 4893, Note_on_c, 1, 75, 0
2, 4893, Note_on_c, 1, 83, 0
2, 4944, Note_on_c, 1, 76, 64
2, 4944, Note_on_c, 1, 68, 64
2, 4989, Note_on_c, 1, 68, 0
2, 4989, Note_on_c, 1, 76, 0
2, 4992, Note_on_c, 1, 76, 64
2, 4992, Note_on_c, 1, 73, 64
2, 5037, Note_on_c, 1, 73, 0
2, 5037, Note_on_c, 1, 76, 0
2, 5040, Note_on_c, 1, 78, 64
2, 5040, Note_on_c, 1, 69, 64
2, 5085, Note_on_c, 1, 69, 0
2, 5085, Note_on_c, 1, 78, 0
2, 5088, Note_on_c, 1, 80, 64
2, 5088, Note_on_c, 1, 71, 64
2, 5133, Note_on_c, 1, 71, 0
2, 5133, Note_on_c, 1, 80, 0
2, 5136, Note_on_c, 1, 80, 64
2, 5136, Note_on_c, 1, 71, 64
2, 5181, Note_on_c, 1, 71, 0
2, 5181, Note_on_c, 1, 80, 0
2, 5232, Note_on_c, 1, 73, 64
2, 5232, Note_on_c, 1, 67, 64
2, 5277, Note_on_c, 1, 67, 0
2, 5277, Note_on_c, 1, 73, 0
2, 5280, Note_on_c, 1, 73, 64
2, 5280, Note_on_c, 1, 67, 64
2, 5325, Note_on_c, 1, 67, 0
2, 5325, Note_on_c, 1, 73, 0
2, 5328, Note_on_c, 1, 73, 64
2, 5328, Note_on_c, 1, 67, 64
2, 5373, Note_on_c, 1, 67, 0
2, 5373, Note_on_c, 1, 73, 0
2, 5376, Note_on_c, 1, 73, 64
2, 5376, Note_on_c, 1, 68, 64
2, 5421, Note_on_c, 1, 68, 0
2, 5421, Note_on_c, 1, 73, 0
2, 5424, Note_on_c, 1, 73, 64
2, 5424, Note_on_c, 1, 68, 64
2, 5469, Note_on_c, 1, 68, 0
2, 5469, Note_on_c, 1, 73, 0
2, 5520, Note_on_c, 1, 73, 64
2, 5520, Note_on_c, 1, 70, 64
2, 5565, Note_on_c, 1, 70, 0
2, 5565, Note_on_c, 1, 73, 0
2, 5568, Note_on_c, 1, 73, 64
2, 5568, Note_on_c, 1, 70, 64
2, 5613, Note_on_c, 1, 70, 0
2, 5613, Note_on_c, 1, 73, 0
2, 5616, Note_on_c, 1, 73, 64
2, 5616, Note_on_c, 1, 70, 64
2, 5661, Note_on_c, 1, 70, 0
2, 5661, Note_on_c, 1, 73, 0
2, 5664, Note_on_c, 1, 73, 64
2, 5664, Note_on_c, 1, 70, 64
2, 5709, Note_on_c, 1, 70, 0
2, 5709, Note_on_c, 1, 73, 0
2, 5808, Note_on_c, 1, 75, 64
2, 5823, Note_on_c, 1, 75, 0
2, 5824, Note_on_c, 1, 73, 64
2, 5839, Note_on_c, 1, 73, 0
2, 5840, Note_on_c, 1, 71, 64
2, 5855, Note_on_c, 1, 71, 0
2, 5856, Note_on_c, 1, 71, 64
2, 5871, Note_on_c, 1, 71, 0
2, 5872, Note_on_c, 1, 70, 64
2, 5887, Note_on_c, 1, 70, 0
2, 5888, Note_on_c, 1, 68, 64
2, 5903, Note_on_c, 1, 68, 0
2, 5904, Note_on_c, 1, 68, 64
2, 5919, Note_on_c, 1, 68, 0
2, 5920, Note_on_c, 1, 70, 64
2, 5935, Note_on_c, 1, 70, 0
2, 5936, Note_on_c, 1, 71, 64
2, 5951, Note_on_c, 1, 71, 0
2, 5952, Note_on_c, 1, 71, 64
2, 5967, Note_on_c, 1, 71, 0
2, 5968, Note_on_c, 1, 73, 64
2, 5983, Note_on_c, 1, 73, 0
2, 5984, Note_on_c, 1, 74, 64
2, 5999, Note_on_c, 1, 74, 0
2, 6000, Note_on_c, 1, 74, 64
2, 6015, Note_on_c, 1, 74, 0
2, 6016, Note_on_c, 1, 73, 64
2, 6031, Note_on_c, 1, 73, 0
2, 6032, Note_on_c, 1, 74, 64
2, 6047, Note_on_c, 1, 74, 0
2, 6048, Note_on_c, 1, 83, 64
2, 6359, Note_on_c, 1, 83, 0
2, 6360, Note_on_c, 1, 80, 64
2, 6383, Note_on_c, 1, 80, 0
2, 6384, Note_on_c, 1, 77, 64
2, 6407, Note_on_c, 1, 77, 0
2, 6408, Note_on_c, 1, 73, 64
2, 6431, Note_on_c, 1, 73, 0
2, 6432, Note_on_c, 1, 74, 64
2, 6447, Note_on_c, 1, 74, 0
2, 6448, Note_on_c, 1, 73, 64
2, 6463, Note_on_c, 1, 73, 0
2, 6464, Note_on_c, 1, 71, 64
2, 6479, Note_on_c, 1, 71, 0
2, 6480, Note_on_c, 1, 71, 64
2, 6495, Note_on_c, 1, 71, 0
2, 6496, Note_on_c, 1, 69, 64
2, 6511, Note_on_c, 1, 69, 0
2, 6512, Note_on_c, 1, 68, 64
2, 6527, Note_on_c, 1, 68, 0
2, 6528, Note_on_c, 1, 68, 64
2, 6543, Note_on_c, 1, 68, 0
2, 6544, Note_on_c, 1, 66, 64
2, 6559, Note_on_c, 1, 66, 0
2, 6560, Note_on_c, 1, 65, 64
2, 6575, Note_on_c, 1, 65, 0
2, 6576, Note_on_c, 1, 65, 64
2, 6591, Note_on_c, 1, 65, 0
2, 6592, Note_on_c, 1, 66, 64
2, 6607, Note_on_c, 1, 66, 0
2, 6608, Note_on_c, 1, 68, 64
2, 6623, Note_on_c, 1, 68, 0
2, 6624, Note_on_c, 1, 61, 64
2, 6669, Note_on_c, 1, 61, 0
2, 6672, Note_on_c, 1, 78, 64
2, 6743, Note_on_c, 1, 78, 0
2, 6744, Note_on_c, 1, 77, 64
2, 6767, Note_on_c, 1, 77, 0
2, 6768, Note_on_c, 1, 83, 64
2, 6839, Note_on_c, 1, 83, 0
2, 6840, Note_on_c, 1, 81, 64
2, 6863, Note_on_c, 1, 81, 0
2, 6864, Note_on_c, 1, 83, 64
2, 6887, Note_on_c, 1, 83, 0
2, 6888, Note_on_c, 1, 80, 64
2, 6911, Note_on_c, 1, 80, 0
2, 6912, Note_on_c, 1, 81, 64
2, 7223, Note_on_c, 1, 81, 0
2, 7224, Note_on_c, 1, 66, 64
2, 7247, Note_on_c, 1, 66, 0
2, 7248, Note_on_c, 1, 71, 64
2, 7263, Note_on_c, 1, 71, 0
2, 7264, Note_on_c, 1, 73, 64
2, 7279, Note_on_c, 1, 73, 0
2, 7280, Note_on_c, 1, 75, 64
2, 7295, Note_on_c, 1, 75, 0
2, 7296, Note_on_c, 1, 75, 64
2, 7311, Note_on_c, 1, 75, 0
2, 7312, Note_on_c, 1, 76, 64
2, 7327, Note_on_c, 1, 76, 0
2, 7328, Note_on_c, 1, 78, 64
2, 7343, Note_on_c, 1, 78, 0
2, 7344, Note_on_c, 1, 78, 64
2, 7359, Note_on_c, 1, 78, 0
2, 7360, Note_on_c, 1, 80, 64
2, 7375, Note_on_c, 1, 80, 0
2, 7376, Note_on_c, 1, 81, 64
2, 7391, Note_on_c, 1, 81, 0
2, 7392, Note_on_c, 1, 81, 64
2, 7407, Note_on_c, 1, 81, 0
2, 7408, Note_on_c, 1, 80, 64
2, 7423, Note_on_c, 1, 80, 0
2, 7424, Note_on_c, 1, 78, 64
2, 7439, Note_on_c, 1, 78, 0
2, 7440, Note_on_c, 1, 78, 64
2, 7455, Note_on_c, 1, 78, 0
2, 7456, Note_on_c, 1, 76, 64
2, 7471, Note_on_c, 1, 76, 0
2, 7472, Note_on_c, 1, 75, 64
2, 7487, Note_on_c, 1, 75, 0
2, 7488, Note_on_c, 1, 75, 64
2, 7503, Note_on_c, 1, 75, 0
2, 7504, Note_on_c, 1, 76, 64
2, 7519, Note_on_c, 1, 76, 0
2, 7520, Note_on_c, 1, 78, 64
2, 7535, Note_on_c, 1, 78, 0
2, 7536, Note_on_c, 1, 78, 64
2, 7551, Note_on_c, 1, 78, 0
2, 7552, Note_on_c, 1, 80, 64
2, 7567, Note_on_c, 1, 80, 0
2, 7568, Note_on_c, 1, 81, 64
2, 7583, Note_on_c, 1, 81, 0
2, 7584, Note_on_c, 1, 80, 64
2, 7599, Note_on_c, 1, 80, 0
2, 7600, Note_on_c, 1, 81, 64
2, 7615, Note_on_c, 1, 81, 0
2, 7616, Note_on_c, 1, 83, 64
2, 7631, Note_on_c, 1, 83, 0
2, 7632, Note_on_c, 1, 76, 64
2, 7647, Note_on_c, 1, 76, 0
2, 7648, Note_on_c, 1, 78, 64
2, 7663, Note_on_c, 1, 78, 0
2, 7664, Note_on_c, 1, 80, 64
2, 7679, Note_on_c, 1, 80, 0
2, 7680, Note_on_c, 1, 75, 64
2, 7695, Note_on_c, 1, 75, 0
2, 7696, Note_on_c, 1, 76, 64
2, 7711, Note_on_c, 1, 76, 0
2, 7712, Note_on_c, 1, 78, 64
2, 7727, Note_on_c, 1, 78, 0
2, 7728, Note_on_c, 1, 71, 64
2, 7751, Note_on_c, 1, 71, 0
2, 7752, Note_on_c, 1, 83, 64
2, 7775, Note_on_c, 1, 83, 0
2, 7776, Note_on_c, 1, 83, 64
2, 7821, Note_on_c, 1, 83, 0
2, 7824, Note_on_c, 1, 83, 64
2, 7839, Note_on_c, 1, 83, 0
2, 7840, Note_on_c, 1, 81, 64
2, 7855, Note_on_c, 1, 81, 0
2, 7856, Note_on_c, 1, 80, 64
2, 7871, Note_on_c, 1, 80, 0
2, 7872, Note_on_c, 1, 81, 64
2, 7887, Note_on_c, 1, 81, 0
2, 7888, Note_on_c, 1, 80, 64
2, 7903, Note_on_c, 1, 80, 0
2, 7904, Note_on_c, 1, 78, 64
2, 7919, Note_on_c, 1, 78, 0
2, 7920, Note_on_c, 1, 80, 64
2, 7935, Note_on_c, 1, 80, 0
2, 7936, Note_on_c, 1, 78, 64
2, 7951, Note_on_c, 1, 78, 0
2, 7952, Note_on_c, 1, 76, 64
2, 7967, Note_on_c, 1, 76, 0
2, 7968, Note_on_c, 1, 75, 64
2, 8087, Note_on_c, 1, 75, 0
2, 8088, Note_on_c, 1, 72, 64
2, 8111, Note_on_c, 1, 72, 0
2, 8112, Note_on_c, 1, 73, 64
2, 8136, Note_on_c, 1, 73, 0
2, 8136, Note_on_c, 1, 76, 64
2, 8159, Note_on_c, 1, 76, 0
2, 8160, Note_on_c, 1, 80, 64
2, 8184, Note_on_c, 1, 80, 0
2, 8184, Note_on_c, 1, 75, 64
2, 8207, Note_on_c, 1, 75, 0
2, 8208, Note_on_c, 1, 76, 64
2, 8232, Note_on_c, 1, 76, 0
2, 8232, Note_on_c, 1, 73, 64
2, 8255, Note_on_c, 1, 73, 0
2, 8304, Note_on_c, 1, 71, 64
2, 8375, Note_on_c, 1, 71, 0
2, 8376, Note_on_c, 1, 68, 64
2, 8399, Note_on_c, 1, 68, 0
2, 8400, Note_on_c, 1, 69, 64
2, 8424, Note_on_c, 1, 69, 0
2, 8424, Note_on_c, 1, 73, 64
2, 8447, Note_on_c, 1, 73, 0
2, 8448, Note_on_c, 1, 76, 64
2, 8472, Note_on_c, 1, 76, 0
2, 8472, Note_on_c, 1, 71, 64
2, 8495, Note_on_c, 1, 71, 0
2, 8496, Note_on_c, 1, 73, 64
2, 8520, Note_on_c, 1, 73, 0
2, 8520, Note_on_c, 1, 69, 64
2, 8543, Note_on_c, 1, 69, 0
2, 8592, Note_on_c, 1, 68, 64
2, 8663, Note_on_c, 1, 68, 0
2, 8664, Note_on_c, 1, 65, 64
2, 8687, Note_on_c, 1, 65, 0
2, 8688, Note_on_c, 1, 67, 64
2, 8711, Note_on_c, 1, 67, 0
2, 8712, Note_on_c, 1, 70, 64
2, 8735, Note_on_c, 1, 70, 0
2, 8736, Note_on_c, 1, 73, 64
2, 8781, Note_on_c, 1, 73, 0
2, 8784, Note_on_c, 1, 73, 64
2, 8829, Note_on_c, 1, 73, 0
2, 8832, Note_on_c, 1, 73, 64
2, 8877, Note_on_c, 1, 73, 0
2, 8880, Note_on_c, 1, 73, 64
2, 8925, Note_on_c, 1, 73, 0
2, 8928, Note_on_c, 1, 73, 64
2, 9017, Note_on_c, 1, 73, 0
2, 9216, Note_on_c, 1, 63, 64
2, 9305, Note_on_c, 1, 63, 0
2, 9360, Note_on_c, 1, 63, 64
2, 9375, Note_on_c, 1, 63, 0
2, 9376, Note_on_c, 1, 65, 64
2, 9391, Note_on_c, 1, 65, 0
2, 9392, Note_on_c, 1, 67, 64
2, 9407, Note_on_c, 1, 67, 0
2, 9408, Note_on_c, 1, 68, 64
2, 9423, Note_on_c, 1, 68, 0
2, 9424, Note_on_c, 1, 70, 64
2, 9439, Note_on_c, 1, 70, 0
2, 9440, Note_on_c, 1, 71, 64
2, 9455, Note_on_c, 1, 71, 0
2, 9456, Note_on_c, 1, 71, 64
2, 9471, Note_on_c, 1, 71, 0
2, 9472, Note_on_c, 1, 73, 64
2, 9487, Note_on_c, 1, 73, 0
2, 9488, Note_on_c, 1, 75, 64
2, 9503, Note_on_c, 1, 75, 0
2, 9504, Note_on_c, 1, 75, 64
2, 9519, Note_on_c, 1, 75, 0
2, 9520, Note_on_c, 1, 73, 64
2, 9535, Note_on_c, 1, 73, 0
2, 9536, Note_on_c, 1, 71, 64
2, 9551, Note_on_c, 1, 71, 0
2, 9552, Note_on_c, 1, 71, 64
2, 9567, Note_on_c, 1, 71, 0
2, 9568, Note_on_c, 1, 70, 64
2, 9583, Note_on_c, 1, 70, 0
2, 9584, Note_on_c, 1, 68, 64
2, 9599, Note_on_c, 1, 68, 0
2, 9600, Note_on_c, 1, 68, 64
2, 9777, Note_on_c, 1, 68, 0
2, 9840, Note_on_c, 1, 68, 64
2, 9855, Note_on_c, 1, 68, 0
2, 9856, Note_on_c, 1, 70, 64
2, 9871, Note_on_c, 1, 70, 0
2, 9872, Note_on_c, 1, 72, 64
2, 9887, Note_on_c, 1, 72, 0
2, 9888, Note_on_c, 1, 73, 64
2, 9903, Note_on_c, 1, 73, 0
2, 9904, Note_on_c, 1, 75, 64
2, 9919, Note_on_c, 1, 75, 0
2, 9920, Note_on_c, 1, 76, 64
2, 9935, Note_on_c, 1, 76, 0
2, 9936, Note_on_c, 1, 76, 64
2, 9951, Note_on_c, 1, 76, 0
2, 9952, Note_on_c, 1, 78, 64
2, 9967, Note_on_c, 1, 78, 0
2, 9968, Note_on_c, 1, 80, 64
2, 9983, Note_on_c, 1, 80, 0
2, 9984, Note_on_c, 1, 80, 64
2, 9999, Note_on_c, 1, 80, 0
2, 10000, Note_on_c, 1, 78, 64
2, 10015, Note_on_c, 1, 78, 0
2, 10016, Note_on_c, 1, 76, 64
2, 10031, Note_on_c, 1, 76, 0
2, 10032, Note_on_c, 1, 76, 64
2, 10047, Note_on_c, 1, 76, 0
2, 10048, Note_on_c, 1, 75, 64
2, 10063, Note_on_c, 1, 75, 0
2, 10064, Note_on_c, 1, 73, 64
2, 10079, Note_on_c, 1, 73, 0
2, 10080, Note_on_c, 1, 73, 64
2, 10095, Note_on_c, 1, 73, 0
2, 10096, Note_on_c, 1, 71, 64
2, 10111, Note_on_c, 1, 71, 0
2, 10112, Note_on_c, 1, 70, 64
2, 10127, Note_on_c, 1, 70, 0
2, 10128, Note_on_c, 1, 70, 64
2, 10143, Note_on_c, 1, 70, 0
2, 10144, Note_on_c, 1, 68, 64
2, 10159, Note_on_c, 1, 68, 0
2, 10160, Note_on_c, 1, 67, 64
2, 10175, Note_on_c, 1, 67, 0
2, 10176, Note_on_c, 1, 67, 64
2, 10200, Note_on_c, 1, 67, 0
2, 10200, Note_on_c, 1, 76, 64
2, 10223, Note_on_c, 1, 76, 0
2, 10224, Note_on_c, 1, 75, 64
2, 10295, Note_on_c, 1, 75, 0
2, 10296, Note_on_c, 1, 71, 64
2, 10319, Note_on_c, 1, 71, 0
2, 10320, Note_on_c, 1, 73, 64
2, 10343, Note_on_c, 1, 73, 0
2, 10344, Note_on_c, 1, 70, 64
2, 10367, Note_on_c, 1, 70, 0
2, 10368, Note_on_c, 1, 71, 64
2, 10392, Note_on_c, 1, 71, 0
2, 10392, Note_on_c, 1, 67, 64
2, 10415, Note_on_c, 1, 67, 0
2, 10416, Note_on_c, 1, 68, 64
2, 10440, Note_on_c, 1, 68, 0
2, 10440, Note_on_c, 1, 71, 64
2, 10463, Note_on_c, 1, 71, 0
2, 10464, Note_on_c, 1, 76, 64
2, 10488, Note_on_c, 1, 76, 0
2, 10488, Note_on_c, 1, 75, 64
2, 10512, Note_on_c, 1, 75, 0
2, 10512, Note_on_c, 1, 76, 64
2, 10535, Note_on_c, 1, 76, 0
2, 10536, Note_on_c, 1, 83, 64
2, 10559, Note_on_c, 1, 83, 0
2, 10560, Note_on_c, 1, 82, 64
2, 10584, Note_on_c, 1, 82, 0
2, 10584, Note_on_c, 1, 76, 64
2, 10607, Note_on_c, 1, 76, 0
2, 10608, Note_on_c, 1, 75, 64
2, 10632, Note_on_c, 1, 75, 0
2, 10632, Note_on_c, 1, 83, 64
2, 10655, Note_on_c, 1, 83, 0
2, 10656, Note_on_c, 1, 80, 64
2, 10680, Note_on_c, 1, 80, 0
2, 10680, Note_on_c, 1, 75, 64
2, 10703, Note_on_c, 1, 75, 0
2, 10704, Note_on_c, 1, 76, 64
2, 10728, Note_on_c, 1, 76, 0
2, 10728, Note_on_c, 1, 80, 64
2, 10751, Note_on_c, 1, 80, 0
2, 10752, Note_on_c, 1, 73, 64
2, 10775, Note_on_c, 1, 73, 0
2, 10776, Note_on_c, 1, 72, 64
2, 10799, Note_on_c, 1, 72, 0
2, 10800, Note_on_c, 1, 73, 64
2, 10823, Note_on_c, 1, 73, 0
2, 10824, Note_on_c, 1, 80, 64
2, 10847, Note_on_c, 1, 80, 0
2, 10848, Note_on_c, 1, 78, 64
2, 10872, Note_on_c, 1, 78, 0
2, 10872, Note_on_c, 1, 73, 64
2, 10895, Note_on_c, 1, 73, 0
2, 10896, Note_on_c, 1, 71, 64
2, 10920, Note_on_c, 1, 71, 0
2, 10920, Note_on_c, 1, 80, 64
2, 10943, Note_on_c, 1, 80, 0
2, 10944, Note_on_c, 1, 76, 64
2, 10967, Note_on_c, 1, 76, 0
2, 10968, Note_on_c, 1, 71, 64
2, 10991, Note_on_c, 1, 71, 0
2, 10992, Note_on_c, 1, 73, 64
2, 11015, Note_on_c, 1, 73, 0
2, 11016, Note_on_c, 1, 76, 64
2, 11039, Note_on_c, 1, 76, 0
2, 11040, Note_on_c, 1, 70, 64
2, 11063, Note_on_c, 1, 70, 0
2, 11064, Note_on_c, 1, 71, 64
2, 11087, Note_on_c, 1, 71, 0
2, 11088, Note_on_c, 1, 73, 64
2, 11111, Note_on_c, 1, 73, 0
2, 11112, Note_on_c, 1, 76, 64
2, 11135, Note_on_c, 1, 76, 0
2, 11136, Note_on_c, 1, 68, 64
2, 11159, Note_on_c, 1, 68, 0
2, 11160, Note_on_c, 1, 70, 64
2, 11183, Note_on_c, 1, 70, 0
2, 11184, Note_on_c, 1, 71, 64
2, 11207, Note_on_c, 1, 71, 0
2, 11208, Note_on_c, 1, 76, 64
2, 11231, Note_on_c, 1, 76, 0
2, 11232, Note_on_c, 1, 66, 64
2, 11277, Note_on_c, 1, 66, 0
2, 11280, Note_on_c, 1, 88, 64
2, 11295, Note_on_c, 1, 88, 0
2, 11296, Note_on_c, 1, 87, 64
2, 11311, Note_on_c, 1, 87, 0
2, 11312, Note_on_c, 1, 85, 64
2, 11327, Note_on_c, 1, 85, 0
2, 11328, Note_on_c, 1, 85, 64
2, 11343, Note_on_c, 1, 85, 0
2, 11344, Note_on_c, 1, 83, 64
2, 11359, Note_on_c, 1, 83, 0
2, 11360, Note_on_c, 1, 82, 64
2, 11375, Note_on_c, 1, 82, 0
2, 11376, Note_on_c, 1, 82, 64
2, 11391, Note_on_c, 1, 82, 0
2, 11392, Note_on_c, 1, 80, 64
2, 11407, Note_on_c, 1, 80, 0
2, 11408, Note_on_c, 1, 78, 64
2, 11423, Note_on_c, 1, 78, 0
2, 11424, Note_on_c, 1, 78, 64
2, 11439, Note_on_c, 1, 78, 0
2, 11440, Note_on_c, 1, 76, 64
2, 11455, Note_on_c, 1, 76, 0
2, 11456, Note_on_c, 1, 75, 64
2, 11471, Note_on_c, 1, 75, 0
2, 11472, Note_on_c, 1, 76, 64
2, 11495, Note_on_c, 1, 76, 0
2, 11496, Note_on_c, 1, 85, 64
2, 11519, Note_on_c, 1, 85, 0
2, 11520, Note_on_c, 1, 75, 64
2, 11565, Note_on_c, 1, 75, 0
2, 11568, Note_on_c, 1, 66, 64
2, 11583, Note_on_c, 1, 66, 0
2, 11584, Note_on_c, 1, 68, 64
2, 11599, Note_on_c, 1, 68, 0
2, 11600, Note_on_c, 1, 70, 64
2, 11615, Note_on_c, 1, 70, 0
2, 11616, Note_on_c, 1, 71, 64
2, 11631, Note_on_c, 1, 71, 0
2, 11632, Note_on_c, 1, 73, 64
2, 11647, Note_on_c, 1, 73, 0
2, 11648, Note_on_c, 1, 75, 64
2, 11663, Note_on_c, 1, 75, 0
2, 11664, Note_on_c, 1, 75, 64
2, 11679, Note_on_c, 1, 75, 0
2, 11680, Note_on_c, 1, 76, 64
2, 11695, Note_on_c, 1, 76, 0
2, 11696, Note_on_c, 1, 78, 64
2, 11711, Note_on_c, 1, 78, 0
2, 11712, Note_on_c, 1, 78, 64
2, 11727, Note_on_c, 1, 78, 0
2, 11728, Note_on_c, 1, 76, 64
2, 11743, Note_on_c, 1, 76, 0
2, 11744, Note_on_c, 1, 75, 64
2, 11759, Note_on_c, 1, 75, 0
2, 11760, Note_on_c, 1, 75, 64
2, 11775, Note_on_c, 1, 75, 0
2, 11776, Note_on_c, 1, 73, 64
2, 11791, Note_on_c, 1, 73, 0
2, 11792, Note_on_c, 1, 71, 64
2, 11807, Note_on_c, 1, 71, 0
2, 11808, Note_on_c, 1, 71, 64
2, 11897, Note_on_c, 1, 71, 0
2, 11952, Note_on_c, 1, 68, 64
2, 11967, Note_on_c, 1, 68, 0
2, 11968, Note_on_c, 1, 70, 64
2, 11983, Note_on_c, 1, 70, 0
2, 11984, Note_on_c, 1, 71, 64
2, 11999, Note_on_c, 1, 71, 0
2, 12000, Note_on_c, 1, 71, 64
2, 12015, Note_on_c, 1, 71, 0
2, 12016, Note_on_c, 1, 73, 64
2, 12031, Note_on_c, 1, 73, 0
2, 12032, Note_on_c, 1, 75, 64
2, 12047, Note_on_c, 1, 75, 0
2, 12048, Note_on_c, 1, 75, 64
2, 12063, Note_on_c, 1, 75, 0
2, 12064, Note_on_c, 1, 76, 64
2, 12079, Note_on_c, 1, 76, 0
2, 12080, Note_on_c, 1, 78, 64
2, 12095, Note_on_c, 1, 78, 0
2, 12096, Note_on_c, 1, 80, 64
2, 12111, Note_on_c, 1, 80, 0
2, 12112, Note_on_c, 1, 82, 64
2, 12127, Note_on_c, 1, 82, 0
2, 12128, Note_on_c, 1, 83, 64
2, 12143, Note_on_c, 1, 83, 0
2, 12144, Note_on_c, 1, 83, 64
2, 12159, Note_on_c, 1, 83, 0
2, 12160, Note_on_c, 1, 82, 64
2, 12175, Note_on_c, 1, 82, 0
2, 12176, Note_on_c, 1, 80, 64
2, 12191, Note_on_c, 1, 80, 0
2, 12192, Note_on_c, 1, 80, 64
2, 12207, Note_on_c, 1, 80, 0
2, 12208, Note_on_c, 1, 78, 64
2, 12223, Note_on_c, 1, 78, 0
2, 12224, Note_on_c, 1, 76, 64
2, 12239, Note_on_c, 1, 76, 0
2, 12240, Note_on_c, 1, 76, 64
2, 12255, Note_on_c, 1, 76, 0
2, 12256, Note_on_c, 1, 78, 64
2, 12271, Note_on_c, 1, 78, 0
2, 12272, Note_on_c, 1, 80, 64
2, 12287, Note_on_c, 1, 80, 0
2, 12288, Note_on_c, 1, 80, 64
2, 12303, Note_on_c, 1, 80, 0
2, 12304, Note_on_c, 1, 78, 64
2, 12319, Note_on_c, 1, 78, 0
2, 12320, Note_on_c, 1, 76, 64
2, 12335, Note_on_c, 1, 76, 0
2, 12336, Note_on_c, 1, 76, 64
2, 12351, Note_on_c, 1, 76, 0
2, 12352, Note_on_c, 1, 75, 64
2, 12367, Note_on_c, 1, 75, 0
2, 12368, Note_on_c, 1, 73, 64
2, 12383, Note_on_c, 1, 73, 0
2, 12384, Note_on_c, 1, 82, 64
2, 12473, Note_on_c, 1, 82, 0
2, 12528, Note_on_c, 1, 78, 64
2, 12543, Note_on_c, 1, 78, 0
2, 12544, Note_on_c, 1, 80, 64
2, 12559, Note_on_c, 1, 80, 0
2, 12560, Note_on_c, 1, 82, 64
2, 12575, Note_on_c, 1, 82, 0
2, 12576, Note_on_c, 1, 82, 64
2, 12591, Note_on_c, 1, 82, 0
2, 12592, Note_on_c, 1, 83, 64
2, 12607, Note_on_c, 1, 83, 0
2, 12608, Note_on_c, 1, 85, 64
2, 12623, Note_on_c, 1, 85, 0
2, 12624, Note_on_c, 1, 85, 64
2, 12695, Note_on_c, 1, 85, 0
2, 12696, Note_on_c, 1, 76, 64
2, 12719, Note_on_c, 1, 76, 0
2, 12720, Note_on_c, 1, 75, 64
2, 12809, Note_on_c, 1, 75, 0
2, 12816, Note_on_c, 1, 74, 64
2, 12861, Note_on_c, 1, 74, 0
2, 12864, Note_on_c, 1, 73, 64
2, 12887, Note_on_c, 1, 73, 0
2, 12888, Note_on_c, 1, 66, 64
2, 12911, Note_on_c, 1, 66, 0
2, 12912, Note_on_c, 1, 65, 64
2, 12935, Note_on_c, 1, 65, 0
2, 12936, Note_on_c, 1, 66, 64
2, 12959, Note_on_c, 1, 66, 0
2, 12960, Note_on_c, 1, 68, 64
2, 12983, Note_on_c, 1, 68, 0
2, 12984, Note_on_c, 1, 69, 64
2, 13007, Note_on_c, 1, 69, 0
2, 13008, Note_on_c, 1, 71, 64
2, 13079, Note_on_c, 1, 71, 0
2, 13080, Note_on_c, 1, 69, 64
2, 13103, Note_on_c, 1, 69, 0
2, 13104, Note_on_c, 1, 68, 64
2, 13127, Note_on_c, 1, 68, 0
2, 13128, Note_on_c, 1, 69, 64
2, 13151, Note_on_c, 1, 69, 0
2, 13152, Note_on_c, 1, 71, 64
2, 13175, Note_on_c, 1, 71, 0
2, 13176, Note_on_c, 1, 73, 64
2, 13199, Note_on_c, 1, 73, 0
2, 13200, Note_on_c, 1, 74, 64
2, 13271, Note_on_c, 1, 74, 0
2, 13272, Note_on_c, 1, 73, 64
2, 13295, Note_on_c, 1, 73, 0
2, 13296, Note_on_c, 1, 74, 64
2, 13319, Note_on_c, 1, 74, 0
2, 13320, Note_on_c, 1, 71, 64
2, 13343, Note_on_c, 1, 71, 0
2, 13344, Note_on_c, 1, 80, 64
2, 13559, Note_on_c, 1, 80, 0
2, 13560, Note_on_c, 1, 77, 64
2, 13583, Note_on_c, 1, 77, 0
2, 13584, Note_on_c, 1, 78, 64
2, 13607, Note_on_c, 1, 78, 0
2, 13608, Note_on_c, 1, 80, 64
2, 13631, Note_on_c, 1, 80, 0
2, 13632, Note_on_c, 1, 71, 64
2, 13751, Note_on_c, 1, 71, 0
2, 13752, Note_on_c, 1, 74, 64
2, 13775, Note_on_c, 1, 74, 0
2, 13776, Note_on_c, 1, 73, 64
2, 13799, Note_on_c, 1, 73, 0
2, 13800, Note_on_c, 1, 71, 64
2, 13823, Note_on_c, 1, 71, 0
2, 13824, Note_on_c, 1, 69, 64
2, 13847, Note_on_c, 1, 69, 0
2, 13848, Note_on_c, 1, 65, 64
2, 13871, Note_on_c, 1, 65, 0
2, 13872, Note_on_c, 1, 66, 64
2, 13895, Note_on_c, 1, 66, 0
2, 13896, Note_on_c, 1, 69, 64
2, 13919, Note_on_c, 1, 69, 0
2, 13920, Note_on_c, 1, 63, 64
2, 13943, Note_on_c, 1, 63, 0
2, 13944, Note_on_c, 1, 61, 64
2, 13967, Note_on_c, 1, 61, 0
2, 13968, Note_on_c, 1, 63, 64
2, 13991, Note_on_c, 1, 63, 0
2, 13992, Note_on_c, 1, 72, 64
2, 14015, Note_on_c, 1, 72, 0
2, 14016, Note_on_c, 1, 73, 64
2, 14039, Note_on_c, 1, 73, 0
2, 14040, Note_on_c, 1, 76, 64
2, 14063, Note_on_c, 1, 76, 0
2, 14064, Note_on_c, 1, 75, 64
2, 14087, Note_on_c, 1, 75, 0
2, 14088, Note_on_c, 1, 73, 64
2, 14111, Note_on_c, 1, 73, 0
2, 14112, Note_on_c, 1, 78, 64
2, 14136, Note_on_c, 1, 78, 0
2, 14136, Note_on_c, 1, 73, 64
2, 14159, Note_on_c, 1, 73, 0
2, 14160, Note_on_c, 1, 75, 64
2, 14184, Note_on_c, 1, 75, 0
2, 14184, Note_on_c, 1, 78, 64
2, 14207, Note_on_c, 1, 78, 0
2, 14208, Note_on_c, 1, 72, 64
2, 14231, Note_on_c, 1, 72, 0
2, 14232, Note_on_c, 1, 73, 64
2, 14255, Note_on_c, 1, 73, 0
2, 14256, Note_on_c, 1, 75, 64
2, 14279, Note_on_c, 1, 75, 0
2, 14280, Note_on_c, 1, 68, 64
2, 14303, Note_on_c, 1, 68, 0
2, 14304, Note_on_c, 1, 69, 64
2, 14328, Note_on_c, 1, 69, 0
2, 14328, Note_on_c, 1, 64, 64
2, 14351, Note_on_c, 1, 64, 0
2, 14352, Note_on_c, 1, 66, 64
2, 14376, Note_on_c, 1, 66, 0
2, 14376, Note_on_c, 1, 61, 64
2, 14399, Note_on_c, 1, 61, 0
2, 14400, Note_on_c, 1, 63, 64
2, 14424, Note_on_c, 1, 63, 0
2, 14424, Note_on_c, 1, 64, 64
2, 14447, Note_on_c, 1, 64, 0
2, 14448, Note_on_c, 1, 66, 64
2, 14472, Note_on_c, 1, 66, 0
2, 14472, Note_on_c, 1, 57, 64
2, 14495, Note_on_c, 1, 57, 0
2, 14496, Note_on_c, 1, 56, 64
2, 14519, Note_on_c, 1, 56, 0
2, 14520, Note_on_c, 1, 58, 64
2, 14543, Note_on_c, 1, 58, 0
2, 14544, Note_on_c, 1, 60, 64
2, 14567, Note_on_c, 1, 60, 0
2, 14568, Note_on_c, 1, 61, 64
2, 14591, Note_on_c, 1, 61, 0
2, 14592, Note_on_c, 1, 63, 64
2, 14615, Note_on_c, 1, 63, 0
2, 14616, Note_on_c, 1, 64, 64
2, 14639, Note_on_c, 1, 64, 0
2, 14640, Note_on_c, 1, 66, 64
2, 14663, Note_on_c, 1, 66, 0
2, 14664, Note_on_c, 1, 73, 64
2, 14687, Note_on_c, 1, 73, 0
2, 14688, Note_on_c, 1, 72, 64
2, 14711, Note_on_c, 1, 72, 0
2, 14712, Note_on_c, 1, 75, 64
2, 14735, Note_on_c, 1, 75, 0
2, 14736, Note_on_c, 1, 78, 64
2, 14799, Note_on_c, 1, 78, 0
2, 14800, Note_on_c, 1, 76, 64
2, 14815, Note_on_c, 1, 76, 0
2, 14816, Note_on_c, 1, 75, 64
2, 14831, Note_on_c, 1, 75, 0
2, 14832, Note_on_c, 1, 76, 64
2, 14847, Note_on_c, 1, 76, 0
2, 14848, Note_on_c, 1, 75, 64
2, 14863, Note_on_c, 1, 75, 0
2, 14864, Note_on_c, 1, 73, 64
2, 14879, Note_on_c, 1, 73, 0
2, 14880, Note_on_c, 1, 75, 64
2, 14895, Note_on_c, 1, 75, 0
2, 14896, Note_on_c, 1, 73, 64
2, 14911, Note_on_c, 1, 73, 0
2, 14912, Note_on_c, 1, 72, 64
2, 14927, Note_on_c, 1, 72, 0
2, 14928, Note_on_c, 1, 73, 64
2, 14952, Note_on_c, 1, 73, 0
2, 14952, Note_on_c, 1, 75, 64
2, 14975, Note_on_c, 1, 75, 0
2, 14976, Note_on_c, 1, 68, 64
2, 14999, Note_on_c, 1, 68, 0
2, 15000, Note_on_c, 1, 78, 64
2, 15000, Note_on_c, 1, 72, 64
2, 15023, Note_on_c, 1, 72, 0
2, 15023, Note_on_c, 1, 78, 0
2, 15024, Note_on_c, 1, 76, 64
2, 15024, Note_on_c, 1, 73, 64
2, 15069, Note_on_c, 1, 73, 0
2, 15069, Note_on_c, 1, 76, 0
2, 15072, Note_on_c, 1, 73, 64
2, 15072, Note_on_c, 1, 64, 64
2, 15117, Note_on_c, 1, 64, 0
2, 15117, Note_on_c, 1, 73, 0
2, 15120, Note_on_c, 1, 73, 64
2, 15120, Note_on_c, 1, 64, 64
2, 15165, Note_on_c, 1, 64, 0
2, 15165, Note_on_c, 1, 73, 0
2, 15168, Note_on_c, 1, 73, 64
2, 15168, Note_on_c, 1, 64, 64
2, 15213, Note_on_c, 1, 64, 0
2, 15213, Note_on_c, 1, 73, 0
2, 15216, Note_on_c, 1, 73, 64
2, 15216, Note_on_c, 1, 64, 64
2, 15261, Note_on_c, 1, 64, 0
2, 15261, Note_on_c, 1, 73, 0
2, 15312, Note_on_c, 1, 69, 64
2, 15312, Note_on_c, 1, 64, 64
2, 15324, Note_on_c, 1, 69, 0
2, 15357, Note_on_c, 1, 64, 0
2, 15360, Note_on_c, 1, 69, 64
2, 15360, Note_on_c, 1, 64, 64
2, 15372, Note_on_c, 1, 69, 0
2, 15405, Note_on_c, 1, 64, 0
2, 15408, Note_on_c, 1, 69, 64
2, 15408, Note_on_c, 1, 64, 64
2, 15420, Note_on_c, 1, 69, 0
2, 15453, Note_on_c, 1, 64, 0
2, 15456, Note_on_c, 1, 69, 64
2, 15456, Note_on_c, 1, 64, 64
2, 15468, Note_on_c, 1, 69, 0
2, 15501, Note_on_c, 1, 64, 0
2, 15504, Note_on_c, 1, 69, 64
2, 15504, Note_on_c, 1, 64, 64
2, 15516, Note_on_c, 1, 69, 0
2, 15549, Note_on_c, 1, 64, 0
2, 15600, Note_on_c, 1, 73, 64
2, 15600, Note_on_c, 1, 69, 64
2, 15645, Note_on_c, 1, 69, 0
2, 15645, Note_on_c, 1, 73, 0
2, 15648, Note_on_c, 1, 73, 64
2, 15648, Note_on_c, 1, 69, 64
2, 15693, Note_on_c, 1, 69, 0
2, 15693, Note_on_c, 1, 73, 0
2, 15696, Note_on_c, 1, 73, 64
2, 15696, Note_on_c, 1, 69, 64
2, 15741, Note_on_c, 1, 69, 0
2, 15741, Note_on_c, 1, 73, 0
2, 15744, Note_on_c, 1, 73, 64
2, 15744, Note_on_c, 1, 68, 64
2, 15789, Note_on_c, 1, 68, 0
2, 15789, Note_on_c, 1, 73, 0
2, 15792, Note_on_c, 1, 73, 64
2, 15792, Note_on_c, 1, 68, 64
2, 15837, Note_on_c, 1, 68, 0
2, 15837, Note_on_c, 1, 73, 0
2, 15888, Note_on_c, 1, 72, 64
2, 15888, Note_on_c, 1, 66, 64
2, 15933, Note_on_c, 1, 66, 0
2, 15933, Note_on_c, 1, 72, 0
2, 15936, Note_on_c, 1, 72, 64
2, 15936, Note_on_c, 1, 66, 64
2, 15981, Note_on_c, 1, 66, 0
2, 15981, Note_on_c, 1, 72, 0
2, 15984, Note_on_c, 1, 72, 64
2, 15984, Note_on_c, 1, 66, 64
2, 16029, Note_on_c, 1, 66, 0
2, 16029, Note_on_c, 1, 72, 0
2, 16032, Note_on_c, 1, 72, 64
2, 16032, Note_on_c, 1, 66, 64
2, 16077, Note_on_c, 1, 66, 0
2, 16077, Note_on_c, 1, 72, 0
2, 16080, Note_on_c, 1, 72, 64
2, 16080, Note_on_c, 1, 66, 64
2, 16125, Note_on_c, 1, 66, 0
2, 16125, Note_on_c, 1, 72, 0
2, 16128, Note_on_c, 1, 64, 100
2, 16128, Note_on_c, 1, 73, 64
2, 16151, Note_on_c, 1, 73, 0
2, 16152, Note_on_c, 1, 64, 0
2, 16152, Note_on_c, 1, 68, 64
2, 16175, Note_on_c, 1, 68, 0
2, 16176, Note_on_c, 1, 69, 64
2, 16199, Note_on_c, 1, 69, 0
2, 16200, Note_on_c, 1, 73, 64
2, 16223, Note_on_c, 1, 73, 0
2, 16224, Note_on_c, 1, 76, 64
2, 16247, Note_on_c, 1, 76, 0
2, 16248, Note_on_c, 1, 71, 64
2, 16271, Note_on_c, 1, 71, 0
2, 16272, Note_on_c, 1, 73, 64
2, 16295, Note_on_c, 1, 73, 0
2, 16296, Note_on_c, 1, 69, 64
2, 16319, Note_on_c, 1, 69, 0
2, 16368, Note_on_c, 1, 68, 64
2, 16439, Note_on_c, 1, 68, 0
2, 16440, Note_on_c, 1, 65, 64
2, 16463, Note_on_c, 1, 65, 0
2, 16464, Note_on_c, 1, 66, 64
2, 16487, Note_on_c, 1, 66, 0
2, 16488, Note_on_c, 1, 69, 64
2, 16511, Note_on_c, 1, 69, 0
2, 16512, Note_on_c, 1, 73, 64
2, 16535, Note_on_c, 1, 73, 0
2, 16536, Note_on_c, 1, 68, 64
2, 16559, Note_on_c, 1, 68, 0
2, 16560, Note_on_c, 1, 69, 64
2, 16583, Note_on_c, 1, 69, 0
2, 16584, Note_on_c, 1, 66, 64
2, 16607, Note_on_c, 1, 66, 0
2, 16656, Note_on_c, 1, 76, 64
2, 16727, Note_on_c, 1, 76, 0
2, 16728, Note_on_c, 1, 73, 64
2, 16751, Note_on_c, 1, 73, 0
2, 16752, Note_on_c, 1, 74, 64
2, 16776, Note_on_c, 1, 74, 0
2, 16776, Note_on_c, 1, 78, 64
2, 16799, Note_on_c, 1, 78, 0
2, 16800, Note_on_c, 1, 81, 64
2, 16824, Note_on_c, 1, 81, 0
2, 16824, Note_on_c, 1, 76, 64
2, 16847, Note_on_c, 1, 76, 0
2, 16848, Note_on_c, 1, 78, 64
2, 16872, Note_on_c, 1, 78, 0
2, 16872, Note_on_c, 1, 74, 64
2, 16895, Note_on_c, 1, 74, 0
2, 16944, Note_on_c, 1, 73, 64
2, 17015, Note_on_c, 1, 73, 0
2, 17016, Note_on_c, 1, 70, 64
2, 17039, Note_on_c, 1, 70, 0
2, 17040, Note_on_c, 1, 72, 64
2, 17064, Note_on_c, 1, 72, 0
2, 17064, Note_on_c, 1, 75, 64
2, 17087, Note_on_c, 1, 75, 0
2, 17088, Note_on_c, 1, 78, 64
2, 17133, Note_on_c, 1, 78, 0
2, 17136, Note_on_c, 1, 78, 64
2, 17136, Note_on_c, 1, 75, 64
2, 17181, Note_on_c, 1, 75, 0
2, 17181, Note_on_c, 1, 78, 0
2, 17184, Note_on_c, 1, 78, 64
2, 17184, Note_on_c, 1, 75, 64
2, 17229, Note_on_c, 1, 75, 0
2, 17229, Note_on_c, 1, 78, 0
2, 17232, Note_on_c, 1, 78, 64
2, 17232, Note_on_c, 1, 75, 64
2, 17277, Note_on_c, 1, 75, 0
2, 17277, Note_on_c, 1, 78, 0
2, 17280, Note_on_c, 1, 78, 64
2, 17280, Note_on_c, 1, 75, 64
2, 17399, Note_on_c, 1, 75, 0
2, 17399, Note_on_c, 1, 78, 0
2, 17400, Note_on_c, 1, 76, 64
2, 17423, Note_on_c, 1, 76, 0
2, 17424, Note_on_c, 1, 78, 64
2, 17448, Note_on_c, 1, 78, 0
2, 17448, Note_on_c, 1, 81, 64
2, 17471, Note_on_c, 1, 81, 0
2, 17472, Note_on_c, 1, 80, 64
2, 17496, Note_on_c, 1, 80, 0
2, 17496, Note_on_c, 1, 78, 64
2, 17519, Note_on_c, 1, 78, 0
2, 17520, Note_on_c, 1, 76, 64
2, 17543, Note_on_c, 1, 76, 0
2, 17544, Note_on_c, 1, 78, 64
2, 17556, Note_on_c, 1, 78, 0
2, 17556, Note_on_c, 1, 75, 64
2, 17568, Note_on_c, 1, 75, 0
2, 17568, Note_on_c, 1, 80, 64
2, 17613, Note_on_c, 1, 80, 0
2, 17616, Note_on_c, 1, 73, 64
2, 17661, Note_on_c, 1, 73, 0
2, 17664, Note_on_c, 1, 72, 64
2, 17670, Note_on_c, 1, 72, 0
2, 17670, Note_on_c, 1, 73, 64
2, 17676, Note_on_c, 1, 73, 0
2, 17676, Note_on_c, 1, 72, 64
2, 17682, Note_on_c, 1, 72, 0
2, 17682, Note_on_c, 1, 73, 64
2, 17688, Note_on_c, 1, 73, 0
2, 17688, Note_on_c, 1, 72, 64
2, 17694, Note_on_c, 1, 72, 0
2, 17694, Note_on_c, 1, 73, 64
2, 17700, Note_on_c, 1, 73, 0
2, 17700, Note_on_c, 1, 72, 64
2, 17706, Note_on_c, 1, 72, 0
2, 17706, Note_on_c, 1, 73, 64
2, 17712, Note_on_c, 1, 73, 0
2, 17712, Note_on_c, 1, 72, 64
2, 17718, Note_on_c, 1, 72, 0
2, 17718, Note_on_c, 1, 73, 64
2, 17724, Note_on_c, 1, 73, 0
2, 17724, Note_on_c, 1, 72, 64
2, 17730, Note_on_c, 1, 72, 0
2, 17730, Note_on_c, 1, 73, 64
2, 17736, Note_on_c, 1, 73, 0
2, 17736, Note_on_c, 1, 72, 64
2, 17742, Note_on_c, 1, 72, 0
2, 17742, Note_on_c, 1, 73, 64
2, 17748, Note_on_c, 1, 73, 0
2, 17748, Note_on_c, 1, 72, 64
2, 17754, Note_on_c, 1, 72, 0
2, 17754, Note_on_c, 1, 73, 64
2, 17760, Note_on_c, 1, 73, 0
2, 17760, Note_on_c, 1, 72, 64
2, 17766, Note_on_c, 1, 72, 0
2, 17766, Note_on_c, 1, 73, 64
2, 17772, Note_on_c, 1, 73, 0
2, 17772, Note_on_c, 1, 72, 64
2, 17778, Note_on_c, 1, 72, 0
2, 17778, Note_on_c, 1, 73, 64
2, 17784, Note_on_c, 1, 73, 0
2, 17784, Note_on_c, 1, 72, 64
2, 17790, Note_on_c, 1, 72, 0
2, 17790, Note_on_c, 1, 73, 64
2, 17796, Note_on_c, 1, 73, 0
2, 17796, Note_on_c, 1, 72, 64
2, 17802, Note_on_c, 1, 72, 0
2, 17802, Note_on_c, 1, 73, 64
2, 17808, Note_on_c, 1, 73, 0
2, 17808, Note_on_c, 1, 73, 64
2, 17853, Note_on_c, 1, 73, 0
2, 17856, Note_on_c, 1, 73, 64
2, 17901, Note_on_c, 1, 73, 0
2, 17904, Note_on_c, 1, 61, 64
2, 17919, Note_on_c, 1, 61, 0
2, 17920, Note_on_c, 1, 63, 64
2, 17935, Note_on_c, 1, 63, 0
2, 17936, Note_on_c, 1, 64, 64
2, 17951, Note_on_c, 1, 64, 0
2, 17952, Note_on_c, 1, 64, 64
2, 17967, Note_on_c, 1, 64, 0
2, 17968, Note_on_c, 1, 66, 64
2, 17983, Note_on_c, 1, 66, 0
2, 17984, Note_on_c, 1, 68, 64
2, 17999, Note_on_c, 1, 68, 0
2, 18000, Note_on_c, 1, 68, 64
2, 18015, Note_on_c, 1, 68, 0
2, 18016, Note_on_c, 1, 69, 64
2, 18031, Note_on_c, 1, 69, 0
2, 18032, Note_on_c, 1, 71, 64
2, 18047, Note_on_c, 1, 71, 0
2, 18048, Note_on_c, 1, 71, 64
2, 18063, Note_on_c, 1, 71, 0
2, 18064, Note_on_c, 1, 73, 64
2, 18079, Note_on_c, 1, 73, 0
2, 18080, Note_on_c, 1, 75, 64
2, 18095, Note_on_c, 1, 75, 0
2, 18096, Note_on_c, 1, 68, 64
2, 18159, Note_on_c, 1, 68, 0
2, 18160, Note_on_c, 1, 80, 64
2, 18176, Note_on_c, 1, 80, 0
2, 18176, Note_on_c, 1, 78, 64
2, 18191, Note_on_c, 1, 78, 0
2, 18192, Note_on_c, 1, 76, 64
2, 18207, Note_on_c, 1, 76, 0
2, 18208, Note_on_c, 1, 75, 64
2, 18223, Note_on_c, 1, 75, 0
2, 18224, Note_on_c, 1, 73, 64
2, 18239, Note_on_c, 1, 73, 0
2, 18240, Note_on_c, 1, 73, 64
2, 18255, Note_on_c, 1, 73, 0
2, 18256, Note_on_c, 1, 71, 64
2, 18271, Note_on_c, 1, 71, 0
2, 18272, Note_on_c, 1, 69, 64
2, 18287, Note_on_c, 1, 69, 0
2, 18288, Note_on_c, 1, 69, 64
2, 18303, Note_on_c, 1, 69, 0
2, 18304, Note_on_c, 1, 68, 64
2, 18319, Note_on_c, 1, 68, 0
2, 18320, Note_on_c, 1, 66, 64
2, 18335, Note_on_c, 1, 66, 0
2, 18336, Note_on_c, 1, 66, 64
2, 18342, Note_on_c, 1, 66, 0
2, 18342, Note_on_c, 1, 68, 64
2, 18348, Note_on_c, 1, 68, 0
2, 18348, Note_on_c, 1, 66, 64
2, 18354, Note_on_c, 1, 66, 0
2, 18354, Note_on_c, 1, 68, 64
2, 18360, Note_on_c, 1, 68, 0
2, 18360, Note_on_c, 1, 66, 64
2, 18366, Note_on_c, 1, 66, 0
2, 18366, Note_on_c, 1, 68, 64
2, 18372, Note_on_c, 1, 68, 0
2, 18372, Note_on_c, 1, 66, 64
2, 18378, Note_on_c, 1, 66, 0
2, 18378, Note_on_c, 1, 68, 64
2, 18384, Note_on_c, 1, 68, 0
2, 18384, Note_on_c, 1, 66, 64
2, 18390, Note_on_c, 1, 66, 0
2, 18390, Note_on_c, 1, 68, 64
2, 18396, Note_on_c, 1, 68, 0
2, 18396, Note_on_c, 1, 66, 64
2, 18402, Note_on_c, 1, 66, 0
2, 18402, Note_on_c, 1, 68, 64
2, 18408, Note_on_c, 1, 68, 0
2, 18408, Note_on_c, 1, 64, 64
2, 18420, Note_on_c, 1, 64, 0
2, 18420, Note_on_c, 1, 66, 64
2, 18432, Note_on_c, 1, 66, 0
2, 18432, Note_on_c, 1, 68, 64
2, 18697, Note_on_c, 1, 68, 0
2, 18697, End_track
3, 0, Start_track
3, 0, MIDI_port, 0
3, 0, Title_t, "Clavier (RH)"
3, 0, Program_c, 0, 6
3, 0, Control_c, 0, 7, 127
3, 48, Note_on_c, 0, 64, 64
3, 48, Note_on_c, 0, 68, 64
3, 48, Note_on_c, 0, 73, 64
3, 93, Note_on_c, 0, 73, 0
3, 93, Note_on_c, 0, 68, 0
3, 93, Note_on_c, 0, 64, 0
3, 96, Note_on_c, 0, 64, 64
3, 96, Note_on_c, 0, 68, 64
3, 96, Note_on_c, 0, 73, 64
3, 141, Note_on_c, 0, 73, 0
3, 141, Note_on_c, 0, 68, 0
3, 141, Note_on_c, 0, 64, 0
3, 144, Note_on_c, 0, 64, 64
3, 144, Note_on_c, 0, 68, 64
3, 144, Note_on_c, 0, 73, 64
3, 189, Note_on_c, 0, 73, 0
3, 189, Note_on_c, 0, 68, 0
3, 189, Note_on_c, 0, 64, 0
3, 192, Note_on_c, 0, 64, 64
3, 192, Note_on_c, 0, 68, 64
3, 192, Note_on_c, 0, 73, 64
3, 237, Note_on_c, 0, 73, 0
3, 237, Note_on_c, 0, 68, 0
3, 237, Note_on_c, 0, 64, 0
3, 240, Note_on_c, 0, 64, 64
3, 240, Note_on_c, 0, 68, 64
3, 240, Note_on_c, 0, 73, 64
3, 285, Note_on_c, 0, 73, 0
3, 285, Note_on_c, 0, 68, 0
3, 285, Note_on_c, 0, 64, 0
3, 336, Note_on_c, 0, 64, 64
3, 336, Note_on_c, 0, 69, 64
3, 336, Note_on_c, 0, 73, 64
3, 381, Note_on_c, 0, 73, 0
3, 381, Note_on_c, 0, 69, 0
3, 381, Note_on_c, 0, 64, 0
3, 384, Note_on_c, 0, 64, 64
3, 384, Note_on_c, 0, 69, 64
3, 384, Note_on_c, 0, 73, 64
3, 429, Note_on_c, 0, 73, 0
3, 429, Note_on_c, 0, 69, 0
3, 429, Note_on_c, 0, 64, 0
3, 432, Note_on_c, 0, 64, 64
3, 432, Note_on_c, 0, 69, 64
3, 432, Note_on_c, 0, 73, 64
3, 477, Note_on_c, 0, 73, 0
3, 477, Note_on_c, 0, 69, 0
3, 477, Note_on_c, 0, 64, 0
3, 480, Note_on_c, 0, 64, 64
3, 480, Note_on_c, 0, 69, 64
3, 480, Note_on_c, 0, 73, 64
3, 525, Note_on_c, 0, 73, 0
3, 525, Note_on_c, 0, 69, 0
3, 525, Note_on_c, 0, 64, 0
3, 528, Note_on_c, 0, 64, 64
3, 528, Note_on_c, 0, 69, 64
3, 528, Note_on_c, 0, 73, 64
3, 573, Note_on_c, 0, 73, 0
3, 573, Note_on_c, 0, 69, 0
3, 573, Note_on_c, 0, 64, 0
3, 624, Note_on_c, 0, 66, 64
3, 624, Note_on_c, 0, 69, 64
3, 624, Note_on_c, 0, 73, 64
3, 669, Note_on_c, 0, 73, 0
3, 669, Note_on_c, 0, 69, 0
3, 669, Note_on_c, 0, 66, 0
3, 672, Note_on_c, 0, 66, 64
3, 672, Note_on_c, 0, 69, 64
3, 672, Note_on_c, 0, 73, 64
3, 717, Note_on_c, 0, 73, 0
3, 717, Note_on_c, 0, 69, 0
3, 717, Note_on_c, 0, 66, 0
3, 720, Note_on_c, 0, 66, 64
3, 720, Note_on_c, 0, 69, 64
3, 720, Note_on_c, 0, 73, 64
3, 765, Note_on_c, 0, 73, 0
3, 765, Note_on_c, 0, 69, 0
3, 765, Note_on_c, 0, 66, 0
3, 768, Note_on_c, 0, 66, 64
3, 768, Note_on_c, 0, 69, 64
3, 768, Note_on_c, 0, 73, 64
3, 813, Note_on_c, 0, 73, 0
3, 813, Note_on_c, 0, 69, 0
3, 813, Note_on_c, 0, 66, 0
3, 816, Note_on_c, 0, 66, 64
3, 816, Note_on_c, 0, 69, 64
3, 816, Note_on_c, 0, 73, 64
3, 861, Note_on_c, 0, 73, 0
3, 861, Note_on_c, 0, 69, 0
3, 861, Note_on_c, 0, 66, 0
3, 912, Note_on_c, 0, 66, 64
3, 912, Note_on_c, 0, 69, 64
3, 912, Note_on_c, 0, 72, 64
3, 957, Note_on_c, 0, 72, 0
3, 957, Note_on_c, 0, 69, 0
3, 957, Note_on_c, 0, 66, 0
3, 960, Note_on_c, 0, 66, 64
3, 960, Note_on_c, 0, 68, 64
3, 960, Note_on_c, 0, 72, 64
3, 1005, Note_on_c, 0, 72, 0
3, 1005, Note_on_c, 0, 68, 0
3, 1005, Note_on_c, 0, 66, 0
3, 1008, Note_on_c, 0, 66, 64
3, 1008, Note_on_c, 0, 68, 64
3, 1008, Note_on_c, 0, 72, 64
3, 1053, Note_on_c, 0, 72, 0
3, 1053, Note_on_c, 0, 68, 0
3, 1053, Note_on_c, 0, 66, 0
3, 1056, Note_on_c, 0, 66, 64
3, 1056, Note_on_c, 0, 68, 64
3, 1056, Note_on_c, 0, 72, 64
3, 1101, Note_on_c, 0, 72, 0
3, 1101, Note_on_c, 0, 68, 0
3, 1101, Note_on_c, 0, 66, 0
3, 1104, Note_on_c, 0, 66, 64
3, 1104, Note_on_c, 0, 68, 64
3, 1104, Note_on_c, 0, 72, 64
3, 1149, Note_on_c, 0, 72, 0
3, 1149, Note_on_c, 0, 68, 0
3, 1149, Note_on_c, 0, 66, 0
3, 1200, Note_on_c, 0, 64, 64
3, 1200, Note_on_c, 0, 68, 64
3, 1200, Note_on_c, 0, 73, 64
3, 1245, Note_on_c, 0, 73, 0
3, 1245, Note_on_c, 0, 68, 0
3, 1245, Note_on_c, 0, 64, 0
3, 1248, Note_on_c, 0, 64, 64
3, 1248, Note_on_c, 0, 68, 64
3, 1248, Note_on_c, 0, 73, 64
3, 1293, Note_on_c, 0, 73, 0
3, 1293, Note_on_c, 0, 68, 0
3, 1293, Note_on_c, 0, 64, 0
3, 1296, Note_on_c, 0, 64, 64
3, 1296, Note_on_c, 0, 68, 64
3, 1296, Note_on_c, 0, 73, 64
3, 1341, Note_on_c, 0, 73, 0
3, 1341, Note_on_c, 0, 68, 0
3, 1341, Note_on_c, 0, 64, 0
3, 1344, Note_on_c, 0, 64, 64
3, 1344, Note_on_c, 0, 68, 64
3, 1344, Note_on_c, 0, 73, 64
3, 1389, Note_on_c, 0, 73, 0
3, 1389, Note_on_c, 0, 68, 0
3, 1389, Note_on_c, 0, 64, 0
3, 1392, Note_on_c, 0, 64, 64
3, 1392, Note_on_c, 0, 68, 64
3, 1392, Note_on_c, 0, 73, 64
3, 1437, Note_on_c, 0, 73, 0
3, 1437, Note_on_c, 0, 68, 0
3, 1437, Note_on_c, 0, 64, 0
3, 1488, Note_on_c, 0, 64, 64
3, 1488, Note_on_c, 0, 69, 64
3, 1488, Note_on_c, 0, 73, 64
3, 1533, Note_on_c, 0, 73, 0
3, 1533, Note_on_c, 0, 69, 0
3, 1533, Note_on_c, 0, 64, 0
3, 1536, Note_on_c, 0, 64, 64
3, 1536, Note_on_c, 0, 69, 64
3, 1536, Note_on_c, 0, 73, 64
3, 1581, Note_on_c, 0, 73, 0
3, 1581, Note_on_c, 0, 69, 0
3, 1581, Note_on_c, 0, 64, 0
3, 1584, Note_on_c, 0, 64, 64
3, 1584, Note_on_c, 0, 69, 64
3, 1584, Note_on_c, 0, 73, 64
3, 1629, Note_on_c, 0, 73, 0
3, 1629, Note_on_c, 0, 69, 0
3, 1629, Note_on_c, 0, 64, 0
3, 1632, Note_on_c, 0, 64, 64
3, 1632, Note_on_c, 0, 69, 64
3, 1632, Note_on_c, 0, 73, 64
3, 1677, Note_on_c, 0, 73, 0
3, 1677, Note_on_c, 0, 69, 0
3, 1677, Note_on_c, 0, 64, 0
3, 1680, Note_on_c, 0, 64, 64
3, 1680, Note_on_c, 0, 69, 64
3, 1680, Note_on_c, 0, 73, 64
3, 1725, Note_on_c, 0, 73, 0
3, 1725, Note_on_c, 0, 69, 0
3, 1725, Note_on_c, 0, 64, 0
3, 1776, Note_on_c, 0, 66, 64
3, 1776, Note_on_c, 0, 69, 64
3, 1776, Note_on_c, 0, 73, 64
3, 1821, Note_on_c, 0, 73, 0
3, 1821, Note_on_c, 0, 69, 0
3, 1821, Note_on_c, 0, 66, 0
3, 1824, Note_on_c, 0, 66, 64
3, 1824, Note_on_c, 0, 69, 64
3, 1824, Note_on_c, 0, 73, 64
3, 1869, Note_on_c, 0, 73, 0
3, 1869, Note_on_c, 0, 69, 0
3, 1869, Note_on_c, 0, 66, 0
3, 1872, Note_on_c, 0, 66, 64
3, 1872, Note_on_c, 0, 69, 64
3, 1872, Note_on_c, 0, 73, 64
3, 1917, Note_on_c, 0, 73, 0
3, 1917, Note_on_c, 0, 69, 0
3, 1917, Note_on_c, 0, 66, 0
3, 1920, Note_on_c, 0, 66, 64
3, 1920, Note_on_c, 0, 69, 64
3, 1920, Note_on_c, 0, 73, 64
3, 1965, Note_on_c, 0, 73, 0
3, 1965, Note_on_c, 0, 69, 0
3, 1965, Note_on_c, 0, 66, 0
3, 1968, Note_on_c, 0, 66, 64
3, 1968, Note_on_c, 0, 69, 64
3, 1968, Note_on_c, 0, 73, 64
3, 2013, Note_on_c, 0, 73, 0
3, 2013, Note_on_c, 0, 69, 0
3, 2013, Note_on_c, 0, 66, 0
3, 2064, Note_on_c, 0, 66, 64
3, 2064, Note_on_c, 0, 69, 64
3, 2064, Note_on_c, 0, 72, 64
3, 2109, Note_on_c, 0, 72, 0
3, 2109, Note_on_c, 0, 69, 0
3, 2109, Note_on_c, 0, 66, 0
3, 2112, Note_on_c, 0, 66, 64
3, 2112, Note_on_c, 0, 68, 64
3, 2112, Note_on_c, 0, 72, 64
3, 2157, Note_on_c, 0, 72, 0
3, 2157, Note_on_c, 0, 68, 0
3, 2157, Note_on_c, 0, 66, 0
3, 2160, Note_on_c, 0, 66, 64
3, 2160, Note_on_c, 0, 68, 64
3, 2160, Note_on_c, 0, 72, 64
3, 2205, Note_on_c, 0, 72, 0
3, 2205, Note_on_c, 0, 68, 0
3, 2205, Note_on_c, 0, 66, 0
3, 2208, Note_on_c, 0, 66, 64
3, 2208, Note_on_c, 0, 68, 64
3, 2208, Note_on_c, 0, 72, 64
3, 2253, Note_on_c, 0, 72, 0
3, 2253, Note_on_c, 0, 68, 0
3, 2253, Note_on_c, 0, 66, 0
3, 2256, Note_on_c, 0, 66, 64
3, 2256, Note_on_c, 0, 68, 64
3, 2256, Note_on_c, 0, 72, 64
3, 2301, Note_on_c, 0, 72, 0
3, 2301, Note_on_c, 0, 68, 0
3, 2301, Note_on_c, 0, 66, 0
3, 2304, Note_on_c, 0, 64, 64
3, 2304, Note_on_c, 0, 68, 64
3, 2304, Note_on_c, 0, 73, 64
3, 2349, Note_on_c, 0, 73, 0
3, 2349, Note_on_c, 0, 68, 0
3, 2349, Note_on_c, 0, 64, 0
3, 2352, Note_on_c, 0, 68, 64
3, 2352, Note_on_c, 0, 73, 64
3, 2352, Note_on_c, 0, 76, 64
3, 2397, Note_on_c, 0, 76, 0
3, 2397, Note_on_c, 0, 73, 0
3, 2397, Note_on_c, 0, 68, 0
3, 2400, Note_on_c, 0, 69, 64
3, 2400, Note_on_c, 0, 73, 64
3, 2400, Note_on_c, 0, 76, 64
3, 2445, Note_on_c, 0, 76, 0
3, 2445, Note_on_c, 0, 73, 0
3, 2445, Note_on_c, 0, 69, 0
3, 2448, Note_on_c, 0, 69, 64
3, 2448, Note_on_c, 0, 75, 64
3, 2448, Note_on_c, 0, 78, 64
3, 2493, Note_on_c, 0, 78, 0
3, 2493, Note_on_c, 0, 75, 0
3, 2493, Note_on_c, 0, 69, 0
3, 2496, Note_on_c, 0, 68, 64
3, 2496, Note_on_c, 0, 75, 64
3, 2496, Note_on_c, 0, 80, 64
3, 2541, Note_on_c, 0, 80, 0
3, 2541, Note_on_c, 0, 75, 0
3, 2541, Note_on_c, 0, 68, 0
3, 2544, Note_on_c, 0, 68, 64
3, 2544, Note_on_c, 0, 75, 64
3, 2544, Note_on_c, 0, 80, 64
3, 2589, Note_on_c, 0, 80, 0
3, 2589, Note_on_c, 0, 75, 0
3, 2589, Note_on_c, 0, 68, 0
3, 2640, Note_on_c, 0, 64, 64
3, 2640, Note_on_c, 0, 69, 64
3, 2640, Note_on_c, 0, 73, 64
3, 2685, Note_on_c, 0, 73, 0
3, 2685, Note_on_c, 0, 69, 0
3, 2685, Note_on_c, 0, 64, 0
3, 2688, Note_on_c, 0, 66, 64
3, 2688, Note_on_c, 0, 69, 64
3, 2688, Note_on_c, 0, 73, 64
3, 2733, Note_on_c, 0, 73, 0
3, 2733, Note_on_c, 0, 69, 0
3, 2733, Note_on_c, 0, 66, 0
3, 2736, Note_on_c, 0, 66, 64
3, 2736, Note_on_c, 0, 71, 64
3, 2736, Note_on_c, 0, 75, 64
3, 2781, Note_on_c, 0, 75, 0
3, 2781, Note_on_c, 0, 71, 0
3, 2781, Note_on_c, 0, 66, 0
3, 2784, Note_on_c, 0, 64, 64
3, 2784, Note_on_c, 0, 71, 64
3, 2784, Note_on_c, 0, 76, 64
3, 2829, Note_on_c, 0, 76, 0
3, 2829, Note_on_c, 0, 71, 0
3, 2829, Note_on_c, 0, 64, 0
3, 2832, Note_on_c, 0, 64, 64
3, 2832, Note_on_c, 0, 71, 64
3, 2832, Note_on_c, 0, 76, 64
3, 2877, Note_on_c, 0, 76, 0
3, 2877, Note_on_c, 0, 71, 0
3, 2877, Note_on_c, 0, 64, 0
3, 2928, Note_on_c, 0, 61, 64
3, 2928, Note_on_c, 0, 66, 64
3, 2928, Note_on_c, 0, 69, 64
3, 2973, Note_on_c, 0, 69, 0
3, 2973, Note_on_c, 0, 66, 0
3, 2973, Note_on_c, 0, 61, 0
3, 2976, Note_on_c, 0, 63, 64
3, 2976, Note_on_c, 0, 66, 64
3, 2976, Note_on_c, 0, 69, 64
3, 3021, Note_on_c, 0, 69, 0
3, 3021, Note_on_c, 0, 66, 0
3, 3021, Note_on_c, 0, 63, 0
3, 3024, Note_on_c, 0, 63, 64
3, 3024, Note_on_c, 0, 66, 64
3, 3024, Note_on_c, 0, 69, 64
3, 3069, Note_on_c, 0, 69, 0
3, 3069, Note_on_c, 0, 66, 0
3, 3069, Note_on_c, 0, 63, 0
3, 3072, Note_on_c, 0, 61, 64
3, 3072, Note_on_c, 0, 66, 64
3, 3072, Note_on_c, 0, 69, 64
3, 3117, Note_on_c, 0, 69, 0
3, 3117, Note_on_c, 0, 66, 0
3, 3117, Note_on_c, 0, 61, 0
3, 3120, Note_on_c, 0, 61, 64
3, 3120, Note_on_c, 0, 66, 64
3, 3120, Note_on_c, 0, 69, 64
3, 3165, Note_on_c, 0, 69, 0
3, 3165, Note_on_c, 0, 66, 0
3, 3165, Note_on_c, 0, 61, 0
3, 3216, Note_on_c, 0, 59, 64
3, 3216, Note_on_c, 0, 66, 64
3, 3216, Note_on_c, 0, 69, 64
3, 3261, Note_on_c, 0, 69, 0
3, 3261, Note_on_c, 0, 66, 0
3, 3261, Note_on_c, 0, 59, 0
3, 3264, Note_on_c, 0, 63, 64
3, 3264, Note_on_c, 0, 66, 64
3, 3264, Note_on_c, 0, 69, 64
3, 3309, Note_on_c, 0, 69, 0
3, 3309, Note_on_c, 0, 66, 0
3, 3309, Note_on_c, 0, 63, 0
3, 3312, Note_on_c, 0, 63, 64
3, 3312, Note_on_c, 0, 66, 64
3, 3312, Note_on_c, 0, 69, 64
3, 3357, Note_on_c, 0, 69, 0
3, 3357, Note_on_c, 0, 66, 0
3, 3357, Note_on_c, 0, 63, 0
3, 3360, Note_on_c, 0, 59, 64
3, 3360, Note_on_c, 0, 66, 64
3, 3360, Note_on_c, 0, 69, 64
3, 3405, Note_on_c, 0, 69, 0
3, 3405, Note_on_c, 0, 66, 0
3, 3405, Note_on_c, 0, 59, 0
3, 3456, Note_on_c, 0, 71, 64
3, 3456, Note_on_c, 0, 68, 64
3, 3456, Note_on_c, 0, 64, 64
3, 3456, Note_on_c, 0, 59, 64
3, 3545, Note_on_c, 0, 59, 0
3, 3552, Note_on_c, 0, 71, 0
3, 3552, Note_on_c, 0, 68, 0
3, 3552, Note_on_c, 0, 64, 0
3, 3600, Note_on_c, 0, 71, 64
3, 3615, Note_on_c, 0, 71, 0
3, 3616, Note_on_c, 0, 73, 64
3, 3631, Note_on_c, 0, 73, 0
3, 3632, Note_on_c, 0, 75, 64
3, 3647, Note_on_c, 0, 75, 0
3, 3648, Note_on_c, 0, 76, 64
3, 3663, Note_on_c, 0, 76, 0
3, 3664, Note_on_c, 0, 78, 64
3, 3679, Note_on_c, 0, 78, 0
3, 3680, Note_on_c, 0, 80, 64
3, 3695, Note_on_c, 0, 80, 0
3, 3696, Note_on_c, 0, 80, 64
3, 3711, Note_on_c, 0, 80, 0
3, 3712, Note_on_c, 0, 81, 64
3, 3727, Note_on_c, 0, 81, 0
3, 3728, Note_on_c, 0, 83, 64
3, 3743, Note_on_c, 0, 83, 0
3, 3744, Note_on_c, 0, 83, 64
3, 3759, Note_on_c, 0, 83, 0
3, 3760, Note_on_c, 0, 81, 64
3, 3775, Note_on_c, 0, 81, 0
3, 3776, Note_on_c, 0, 80, 64
3, 3791, Note_on_c, 0, 80, 0
3, 3792, Note_on_c, 0, 80, 64
3, 3807, Note_on_c, 0, 80, 0
3, 3808, Note_on_c, 0, 78, 64
3, 3823, Note_on_c, 0, 78, 0
3, 3824, Note_on_c, 0, 76, 64
3, 3839, Note_on_c, 0, 76, 0
3, 3840, Note_on_c, 0, 76, 64
3, 4017, Note_on_c, 0, 76, 0
3, 4080, Note_on_c, 0, 64, 64
3, 4095, Note_on_c, 0, 64, 0
3, 4096, Note_on_c, 0, 66, 64
3, 4111, Note_on_c, 0, 66, 0
3, 4112, Note_on_c, 0, 68, 64
3, 4127, Note_on_c, 0, 68, 0
3, 4128, Note_on_c, 0, 69, 64
3, 4143, Note_on_c, 0, 69, 0
3, 4144, Note_on_c, 0, 71, 64
3, 4159, Note_on_c, 0, 71, 0
3, 4160, Note_on_c, 0, 73, 64
3, 4175, Note_on_c, 0, 73, 0
3, 4176, Note_on_c, 0, 73, 64
3, 4191, Note_on_c, 0, 73, 0
3, 4192, Note_on_c, 0, 75, 64
3, 4207, Note_on_c, 0, 75, 0
3, 4208, Note_on_c, 0, 76, 64
3, 4223, Note_on_c, 0, 76, 0
3, 4224, Note_on_c, 0, 76, 64
3, 4239, Note_on_c, 0, 76, 0
3, 4240, Note_on_c, 0, 75, 64
3, 4255, Note_on_c, 0, 75, 0
3, 4256, Note_on_c, 0, 73, 64
3, 4271, Note_on_c, 0, 73, 0
3, 4272, Note_on_c, 0, 73, 64
3, 4287, Note_on_c, 0, 73, 0
3, 4288, Note_on_c, 0, 71, 64
3, 4303, Note_on_c, 0, 71, 0
3, 4304, Note_on_c, 0, 69, 64
3, 4319, Note_on_c, 0, 69, 0
3, 4320, Note_on_c, 0, 69, 64
3, 4335, Note_on_c, 0, 69, 0
3, 4336, Note_on_c, 0, 68, 64
3, 4351, Note_on_c, 0, 68, 0
3, 4352, Note_on_c, 0, 66, 64
3, 4367, Note_on_c, 0, 66, 0
3, 4368, Note_on_c, 0, 66, 64
3, 4383, Note_on_c, 0, 66, 0
3, 4384, Note_on_c, 0, 64, 64
3, 4399, Note_on_c, 0, 64, 0
3, 4400, Note_on_c, 0, 63, 64
3, 4415, Note_on_c, 0, 63, 0
3, 4416, Note_on_c, 0, 63, 64
3, 4461, Note_on_c, 0, 63, 0
3, 4464, Note_on_c, 0, 73, 64
3, 4487, Note_on_c, 0, 73, 0
3, 4488, Note_on_c, 0, 71, 64
3, 4535, Note_on_c, 0, 71, 0
3, 4536, Note_on_c, 0, 68, 64
3, 4559, Note_on_c, 0, 68, 0
3, 4560, Note_on_c, 0, 69, 64
3, 4583, Note_on_c, 0, 69, 0
3, 4584, Note_on_c, 0, 66, 64
3, 4607, Note_on_c, 0, 66, 0
3, 4608, Note_on_c, 0, 68, 64
3, 4632, Note_on_c, 0, 68, 0
3, 4632, Note_on_c, 0, 63, 64
3, 4655, Note_on_c, 0, 63, 0
3, 4656, Note_on_c, 0, 64, 64
3, 4680, Note_on_c, 0, 64, 0
3, 4680, Note_on_c, 0, 68, 64
3, 4703, Note_on_c, 0, 68, 0
3, 4704, Note_on_c, 0, 73, 64
3, 4727, Note_on_c, 0, 73, 0
3, 4728, Note_on_c, 0, 71, 64
3, 4751, Note_on_c, 0, 71, 0
3, 4752, Note_on_c, 0, 73, 64
3, 4775, Note_on_c, 0, 73, 0
3, 4776, Note_on_c, 0, 68, 64
3, 4799, Note_on_c, 0, 68, 0
3, 4800, Note_on_c, 0, 66, 64
3, 4823, Note_on_c, 0, 66, 0
3, 4824, Note_on_c, 0, 73, 64
3, 4847, Note_on_c, 0, 73, 0
3, 4848, Note_on_c, 0, 71, 64
3, 4871, Note_on_c, 0, 71, 0
3, 4872, Note_on_c, 0, 68, 64
3, 4895, Note_on_c, 0, 68, 0
3, 4896, Note_on_c, 0, 64, 64
3, 4919, Note_on_c, 0, 64, 0
3, 4920, Note_on_c, 0, 59, 64
3, 4943, Note_on_c, 0, 59, 0
3, 4944, Note_on_c, 0, 61, 64
3, 4967, Note_on_c, 0, 61, 0
3, 4968, Note_on_c, 0, 64, 64
3, 4991, Note_on_c, 0, 64, 0
3, 4992, Note_on_c, 0, 69, 64
3, 5015, Note_on_c, 0, 69, 0
3, 5016, Note_on_c, 0, 68, 64
3, 5039, Note_on_c, 0, 68, 0
3, 5040, Note_on_c, 0, 69, 64
3, 5063, Note_on_c, 0, 69, 0
3, 5064, Note_on_c, 0, 64, 64
3, 5087, Note_on_c, 0, 64, 0
3, 5088, Note_on_c, 0, 63, 64
3, 5112, Note_on_c, 0, 63, 0
3, 5112, Note_on_c, 0, 69, 64
3, 5135, Note_on_c, 0, 69, 0
3, 5136, Note_on_c, 0, 68, 64
3, 5160, Note_on_c, 0, 68, 0
3, 5160, Note_on_c, 0, 64, 64
3, 5183, Note_on_c, 0, 64, 0
3, 5184, Note_on_c, 0, 61, 64
3, 5207, Note_on_c, 0, 61, 0
3, 5208, Note_on_c, 0, 56, 64
3, 5231, Note_on_c, 0, 56, 0
3, 5232, Note_on_c, 0, 58, 64
3, 5232, Note_on_c, 0, 67, 64
3, 5255, Note_on_c, 0, 58, 0
3, 5256, Note_on_c, 0, 61, 64
3, 5277, Note_on_c, 0, 67, 0
3, 5279, Note_on_c, 0, 61, 0
3, 5280, Note_on_c, 0, 67, 64
3, 5304, Note_on_c, 0, 68, 64
3, 5325, Note_on_c, 0, 67, 0
3, 5327, Note_on_c, 0, 68, 0
3, 5328, Note_on_c, 0, 70, 64
3, 5328, Note_on_c, 0, 67, 64
3, 5351, Note_on_c, 0, 70, 0
3, 5352, Note_on_c, 0, 73, 64
3, 5373, Note_on_c, 0, 67, 0
3, 5375, Note_on_c, 0, 73, 0
3, 5376, Note_on_c, 0, 64, 64
3, 5376, Note_on_c, 0, 68, 64
3, 5399, Note_on_c, 0, 64, 0
3, 5400, Note_on_c, 0, 67, 64
3, 5421, Note_on_c, 0, 68, 0
3, 5423, Note_on_c, 0, 67, 0
3, 5424, Note_on_c, 0, 68, 64
3, 5448, Note_on_c, 0, 73, 64
3, 5469, Note_on_c, 0, 68, 0
3, 5471, Note_on_c, 0, 73, 0
3, 5472, Note_on_c, 0, 63, 64
3, 5517, Note_on_c, 0, 63, 0
3, 5520, Note_on_c, 0, 73, 64
3, 5535, Note_on_c, 0, 73, 0
3, 5536, Note_on_c, 0, 71, 64
3, 5551, Note_on_c, 0, 71, 0
3, 5552, Note_on_c, 0, 70, 64
3, 5567, Note_on_c, 0, 70, 0
3, 5568, Note_on_c, 0, 70, 64
3, 5583, Note_on_c, 0, 70, 0
3, 5584, Note_on_c, 0, 68, 64
3, 5599, Note_on_c, 0, 68, 0
3, 5600, Note_on_c, 0, 67, 64
3, 5615, Note_on_c, 0, 67, 0
3, 5616, Note_on_c, 0, 67, 64
3, 5631, Note_on_c, 0, 67, 0
3, 5632, Note_on_c, 0, 65, 64
3, 5647, Note_on_c, 0, 65, 0
3, 5648, Note_on_c, 0, 63, 64
3, 5663, Note_on_c, 0, 63, 0
3, 5664, Note_on_c, 0, 63, 64
3, 5679, Note_on_c, 0, 63, 0
3, 5680, Note_on_c, 0, 61, 64
3, 5695, Note_on_c, 0, 61, 0
3, 5696, Note_on_c, 0, 59, 64
3, 5711, Note_on_c, 0, 59, 0
3, 5712, Note_on_c, 0, 61, 64
3, 5735, Note_on_c, 0, 61, 0
3, 5736, Note_on_c, 0, 70, 64
3, 5759, Note_on_c, 0, 70, 0
3, 5760, Note_on_c, 0, 59, 64
3, 5805, Note_on_c, 0, 59, 0
3, 5808, Note_on_c, 0, 68, 64
3, 5808, Note_on_c, 0, 63, 64
3, 5808, Note_on_c, 0, 71, 64
3, 5853, Note_on_c, 0, 71, 0
3, 5853, Note_on_c, 0, 63, 0
3, 5856, Note_on_c, 0, 68, 0
3, 5856, Note_on_c, 0, 68, 64
3, 5856, Note_on_c, 0, 63, 64
3, 5856, Note_on_c, 0, 71, 64
3, 5901, Note_on_c, 0, 71, 0
3, 5901, Note_on_c, 0, 63, 0
3, 5904, Note_on_c, 0, 68, 0
3, 5904, Note_on_c, 0, 68, 64
3, 5904, Note_on_c, 0, 63, 64
3, 5904, Note_on_c, 0, 71, 64
3, 5949, Note_on_c, 0, 71, 0
3, 5949, Note_on_c, 0, 63, 0
3, 5952, Note_on_c, 0, 68, 0
3, 5952, Note_on_c, 0, 68, 64
3, 5952, Note_on_c, 0, 62, 64
3, 5952, Note_on_c, 0, 71, 64
3, 5997, Note_on_c, 0, 71, 0
3, 5997, Note_on_c, 0, 62, 0
3, 6000, Note_on_c, 0, 68, 0
3, 6096, Note_on_c, 0, 71, 64
3, 6111, Note_on_c, 0, 71, 0
3, 6112, Note_on_c, 0, 69, 64
3, 6127, Note_on_c, 0, 69, 0
3, 6128, Note_on_c, 0, 68, 64
3, 6143, Note_on_c, 0, 68, 0
3, 6144, Note_on_c, 0, 68, 64
3, 6159, Note_on_c, 0, 68, 0
3, 6160, Note_on_c, 0, 66, 64
3, 6175, Note_on_c, 0, 66, 0
3, 6176, Note_on_c, 0, 65, 64
3, 6191, Note_on_c, 0, 65, 0
3, 6192, Note_on_c, 0, 65, 64
3, 6207, Note_on_c, 0, 65, 0
3, 6208, Note_on_c, 0, 66, 64
3, 6223, Note_on_c, 0, 66, 0
3, 6224, Note_on_c, 0, 68, 64
3, 6239, Note_on_c, 0, 68, 0
3, 6240, Note_on_c, 0, 68, 64
3, 6255, Note_on_c, 0, 68, 0
3, 6256, Note_on_c, 0, 69, 64
3, 6271, Note_on_c, 0, 69, 0
3, 6272, Note_on_c, 0, 71, 64
3, 6287, Note_on_c, 0, 71, 0
3, 6288, Note_on_c, 0, 71, 64
3, 6303, Note_on_c, 0, 71, 0
3, 6304, Note_on_c, 0, 69, 64
3, 6319, Note_on_c, 0, 69, 0
3, 6320, Note_on_c, 0, 71, 64
3, 6335, Note_on_c, 0, 71, 0
3, 6336, Note_on_c, 0, 77, 64
3, 6342, Note_on_c, 0, 77, 0
3, 6342, Note_on_c, 0, 78, 64
3, 6348, Note_on_c, 0, 78, 0
3, 6348, Note_on_c, 0, 77, 64
3, 6354, Note_on_c, 0, 77, 0
3, 6354, Note_on_c, 0, 78, 64
3, 6360, Note_on_c, 0, 78, 0
3, 6360, Note_on_c, 0, 77, 64
3, 6366, Note_on_c, 0, 77, 0
3, 6366, Note_on_c, 0, 78, 64
3, 6372, Note_on_c, 0, 78, 0
3, 6372, Note_on_c, 0, 77, 64
3, 6378, Note_on_c, 0, 77, 0
3, 6378, Note_on_c, 0, 78, 64
3, 6384, Note_on_c, 0, 78, 0
3, 6384, Note_on_c, 0, 77, 64
3, 6390, Note_on_c, 0, 77, 0
3, 6390, Note_on_c, 0, 78, 64
3, 6396, Note_on_c, 0, 78, 0
3, 6396, Note_on_c, 0, 77, 64
3, 6402, Note_on_c, 0, 77, 0
3, 6402, Note_on_c, 0, 78, 64
3, 6408, Note_on_c, 0, 78, 0
3, 6408, Note_on_c, 0, 77, 64
3, 6414, Note_on_c, 0, 77, 0
3, 6414, Note_on_c, 0, 78, 64
3, 6420, Note_on_c, 0, 78, 0
3, 6420, Note_on_c, 0, 77, 64
3, 6426, Note_on_c, 0, 77, 0
3, 6426, Note_on_c, 0, 78, 64
3, 6432, Note_on_c, 0, 78, 0
3, 6432, Note_on_c, 0, 77, 64
3, 6438, Note_on_c, 0, 77, 0
3, 6438, Note_on_c, 0, 78, 64
3, 6444, Note_on_c, 0, 78, 0
3, 6444, Note_on_c, 0, 77, 64
3, 6450, Note_on_c, 0, 77, 0
3, 6450, Note_on_c, 0, 78, 64
3, 6456, Note_on_c, 0, 78, 0
3, 6456, Note_on_c, 0, 77, 64
3, 6462, Note_on_c, 0, 77, 0
3, 6462, Note_on_c, 0, 78, 64
3, 6468, Note_on_c, 0, 78, 0
3, 6468, Note_on_c, 0, 77, 64
3, 6474, Note_on_c, 0, 77, 0
3, 6474, Note_on_c, 0, 78, 64
3, 6480, Note_on_c, 0, 78, 0
3, 6480, Note_on_c, 0, 77, 64
3, 6486, Note_on_c, 0, 77, 0
3, 6486, Note_on_c, 0, 78, 64
3, 6492, Note_on_c, 0, 78, 0
3, 6492, Note_on_c, 0, 77, 64
3, 6498, Note_on_c, 0, 77, 0
3, 6498, Note_on_c, 0, 78, 64
3, 6504, Note_on_c, 0, 78, 0
3, 6504, Note_on_c, 0, 77, 64
3, 6510, Note_on_c, 0, 77, 0
3, 6510, Note_on_c, 0, 78, 64
3, 6516, Note_on_c, 0, 78, 0
3, 6516, Note_on_c, 0, 77, 64
3, 6522, Note_on_c, 0, 77, 0
3, 6522, Note_on_c, 0, 77, 64
3, 6528, Note_on_c, 0, 77, 0
3, 6528, Note_on_c, 0, 78, 64
3, 6534, Note_on_c, 0, 78, 0
3, 6534, Note_on_c, 0, 77, 64
3, 6540, Note_on_c, 0, 77, 0
3, 6540, Note_on_c, 0, 78, 64
3, 6546, Note_on_c, 0, 78, 0
3, 6546, Note_on_c, 0, 77, 64
3, 6552, Note_on_c, 0, 77, 0
3, 6552, Note_on_c, 0, 78, 64
3, 6558, Note_on_c, 0, 78, 0
3, 6558, Note_on_c, 0, 77, 64
3, 6564, Note_on_c, 0, 77, 0
3, 6564, Note_on_c, 0, 78, 64
3, 6570, Note_on_c, 0, 78, 0
3, 6570, Note_on_c, 0, 77, 64
3, 6576, Note_on_c, 0, 77, 0
3, 6576, Note_on_c, 0, 78, 64
3, 6582, Note_on_c, 0, 78, 0
3, 6582, Note_on_c, 0, 77, 64
3, 6588, Note_on_c, 0, 77, 0
3, 6588, Note_on_c, 0, 78, 64
3, 6594, Note_on_c, 0, 78, 0
3, 6594, Note_on_c, 0, 77, 64
3, 6600, Note_on_c, 0, 77, 0
3, 6600, Note_on_c, 0, 78, 64
3, 6606, Note_on_c, 0, 78, 0
3, 6606, Note_on_c, 0, 77, 64
3, 6612, Note_on_c, 0, 77, 0
3, 6612, Note_on_c, 0, 78, 64
3, 6618, Note_on_c, 0, 78, 0
3, 6618, Note_on_c, 0, 78, 64
3, 6624, Note_on_c, 0, 78, 0
3, 6624, Note_on_c, 0, 78, 64
3, 6647, Note_on_c, 0, 78, 0
3, 6648, Note_on_c, 0, 73, 64
3, 6671, Note_on_c, 0, 73, 0
3, 6672, Note_on_c, 0, 69, 64
3, 6695, Note_on_c, 0, 69, 0
3, 6696, Note_on_c, 0, 66, 64
3, 6719, Note_on_c, 0, 66, 0
3, 6720, Note_on_c, 0, 71, 64
3, 6735, Note_on_c, 0, 71, 0
3, 6736, Note_on_c, 0, 69, 64
3, 6751, Note_on_c, 0, 69, 0
3, 6752, Note_on_c, 0, 68, 64
3, 6767, Note_on_c, 0, 68, 0
3, 6768, Note_on_c, 0, 68, 64
3, 6783, Note_on_c, 0, 68, 0
3, 6784, Note_on_c, 0, 66, 64
3, 6799, Note_on_c, 0, 66, 0
3, 6800, Note_on_c, 0, 65, 64
3, 6815, Note_on_c, 0, 65, 0
3, 6816, Note_on_c, 0, 65, 64
3, 6831, Note_on_c, 0, 65, 0
3, 6832, Note_on_c, 0, 63, 64
3, 6847, Note_on_c, 0, 63, 0
3, 6848, Note_on_c, 0, 61, 64
3, 6863, Note_on_c, 0, 61, 0
3, 6864, Note_on_c, 0, 61, 64
3, 6879, Note_on_c, 0, 61, 0
3, 6880, Note_on_c, 0, 63, 64
3, 6895, Note_on_c, 0, 63, 0
3, 6896, Note_on_c, 0, 65, 64
3, 6911, Note_on_c, 0, 65, 0
3, 6912, Note_on_c, 0, 66, 64
3, 6935, Note_on_c, 0, 66, 0
3, 6936, Note_on_c, 0, 61, 64
3, 6959, Note_on_c, 0, 61, 0
3, 6960, Note_on_c, 0, 66, 64
3, 6975, Note_on_c, 0, 66, 0
3, 6976, Note_on_c, 0, 68, 64
3, 6991, Note_on_c, 0, 68, 0
3, 6992, Note_on_c, 0, 69, 64
3, 7007, Note_on_c, 0, 69, 0
3, 7008, Note_on_c, 0, 69, 64
3, 7023, Note_on_c, 0, 69, 0
3, 7024, Note_on_c, 0, 71, 64
3, 7039, Note_on_c, 0, 71, 0
3, 7040, Note_on_c, 0, 73, 64
3, 7055, Note_on_c, 0, 73, 0
3, 7056, Note_on_c, 0, 73, 64
3, 7071, Note_on_c, 0, 73, 0
3, 7072, Note_on_c, 0, 71, 64
3, 7087, Note_on_c, 0, 71, 0
3, 7088, Note_on_c, 0, 69, 64
3, 7103, Note_on_c, 0, 69, 0
3, 7104, Note_on_c, 0, 69, 64
3, 7119, Note_on_c, 0, 69, 0
3, 7120, Note_on_c, 0, 68, 64
3, 7135, Note_on_c, 0, 68, 0
3, 7136, Note_on_c, 0, 66, 64
3, 7151, Note_on_c, 0, 66, 0
3, 7152, Note_on_c, 0, 66, 64
3, 7167, Note_on_c, 0, 66, 0
3, 7168, Note_on_c, 0, 64, 64
3, 7183, Note_on_c, 0, 64, 0
3, 7184, Note_on_c, 0, 66, 64
3, 7199, Note_on_c, 0, 66, 0
3, 7200, Note_on_c, 0, 59, 64
3, 7289, Note_on_c, 0, 59, 0
3, 7296, Note_on_c, 0, 69, 64
3, 7302, Note_on_c, 0, 69, 0
3, 7302, Note_on_c, 0, 71, 64
3, 7308, Note_on_c, 0, 71, 0
3, 7308, Note_on_c, 0, 69, 64
3, 7314, Note_on_c, 0, 69, 0
3, 7314, Note_on_c, 0, 71, 64
3, 7320, Note_on_c, 0, 71, 0
3, 7320, Note_on_c, 0, 69, 64
3, 7326, Note_on_c, 0, 69, 0
3, 7326, Note_on_c, 0, 71, 64
3, 7332, Note_on_c, 0, 71, 0
3, 7332, Note_on_c, 0, 69, 64
3, 7338, Note_on_c, 0, 69, 0
3, 7338, Note_on_c, 0, 71, 64
3, 7344, Note_on_c, 0, 71, 0
3, 7344, Note_on_c, 0, 69, 64
3, 7350, Note_on_c, 0, 69, 0
3, 7350, Note_on_c, 0, 71, 64
3, 7356, Note_on_c, 0, 71, 0
3, 7356, Note_on_c, 0, 69, 64
3, 7362, Note_on_c, 0, 69, 0
3, 7362, Note_on_c, 0, 71, 64
3, 7368, Note_on_c, 0, 71, 0
3, 7368, Note_on_c, 0, 69, 64
3, 7374, Note_on_c, 0, 69, 0
3, 7374, Note_on_c, 0, 71, 64
3, 7380, Note_on_c, 0, 71, 0
3, 7380, Note_on_c, 0, 69, 64
3, 7386, Note_on_c, 0, 69, 0
3, 7386, Note_on_c, 0, 71, 64
3, 7392, Note_on_c, 0, 71, 0
3, 7392, Note_on_c, 0, 69, 64
3, 7398, Note_on_c, 0, 69, 0
3, 7398, Note_on_c, 0, 71, 64
3, 7404, Note_on_c, 0, 71, 0
3, 7404, Note_on_c, 0, 69, 64
3, 7410, Note_on_c, 0, 69, 0
3, 7410, Note_on_c, 0, 71, 64
3, 7416, Note_on_c, 0, 71, 0
3, 7416, Note_on_c, 0, 69, 64
3, 7422, Note_on_c, 0, 69, 0
3, 7422, Note_on_c, 0, 71, 64
3, 7428, Note_on_c, 0, 71, 0
3, 7428, Note_on_c, 0, 71, 64
3, 7434, Note_on_c, 0, 71, 0
3, 7434, Note_on_c, 0, 69, 64
3, 7440, Note_on_c, 0, 69, 0
3, 7440, Note_on_c, 0, 71, 64
3, 7446, Note_on_c, 0, 71, 0
3, 7446, Note_on_c, 0, 69, 64
3, 7452, Note_on_c, 0, 69, 0
3, 7452, Note_on_c, 0, 71, 64
3, 7458, Note_on_c, 0, 71, 0
3, 7458, Note_on_c, 0, 69, 64
3, 7464, Note_on_c, 0, 69, 0
3, 7464, Note_on_c, 0, 71, 64
3, 7470, Note_on_c, 0, 71, 0
3, 7470, Note_on_c, 0, 69, 64
3, 7476, Note_on_c, 0, 69, 0
3, 7476, Note_on_c, 0, 71, 64
3, 7482, Note_on_c, 0, 71, 0
3, 7482, Note_on_c, 0, 69, 64
3, 7511, Note_on_c, 0, 69, 0
3, 7512, Note_on_c, 0, 59, 64
3, 7535, Note_on_c, 0, 59, 0
3, 7536, Note_on_c, 0, 63, 64
3, 7559, Note_on_c, 0, 63, 0
3, 7560, Note_on_c, 0, 66, 64
3, 7583, Note_on_c, 0, 66, 0
3, 7584, Note_on_c, 0, 64, 64
3, 7599, Note_on_c, 0, 64, 0
3, 7600, Note_on_c, 0, 66, 64
3, 7615, Note_on_c, 0, 66, 0
3, 7616, Note_on_c, 0, 68, 64
3, 7631, Note_on_c, 0, 68, 0
3, 7632, Note_on_c, 0, 68, 64
3, 7647, Note_on_c, 0, 68, 0
3, 7648, Note_on_c, 0, 69, 64
3, 7663, Note_on_c, 0, 69, 0
3, 7664, Note_on_c, 0, 71, 64
3, 7679, Note_on_c, 0, 71, 0
3, 7680, Note_on_c, 0, 71, 64
3, 7695, Note_on_c, 0, 71, 0
3, 7696, Note_on_c, 0, 73, 64
3, 7711, Note_on_c, 0, 73, 0
3, 7712, Note_on_c, 0, 75, 64
3, 7727, Note_on_c, 0, 75, 0
3, 7728, Note_on_c, 0, 75, 64
3, 7743, Note_on_c, 0, 75, 0
3, 7744, Note_on_c, 0, 73, 64
3, 7759, Note_on_c, 0, 73, 0
3, 7760, Note_on_c, 0, 71, 64
3, 7775, Note_on_c, 0, 71, 0
3, 7776, Note_on_c, 0, 76, 64
3, 7791, Note_on_c, 0, 76, 0
3, 7792, Note_on_c, 0, 78, 64
3, 7807, Note_on_c, 0, 78, 0
3, 7808, Note_on_c, 0, 75, 64
3, 7823, Note_on_c, 0, 75, 0
3, 7824, Note_on_c, 0, 76, 64
3, 7895, Note_on_c, 0, 76, 0
3, 7896, Note_on_c, 0, 75, 64
3, 7919, Note_on_c, 0, 75, 0
3, 7920, Note_on_c, 0, 81, 64
3, 7991, Note_on_c, 0, 81, 0
3, 7992, Note_on_c, 0, 80, 64
3, 8015, Note_on_c, 0, 80, 0
3, 8016, Note_on_c, 0, 81, 64
3, 8039, Note_on_c, 0, 81, 0
3, 8040, Note_on_c, 0, 78, 64
3, 8063, Note_on_c, 0, 78, 0
3, 8064, Note_on_c, 0, 80, 64
3, 8087, Note_on_c, 0, 80, 0
3, 8088, Note_on_c, 0, 75, 64
3, 8111, Note_on_c, 0, 75, 0
3, 8112, Note_on_c, 0, 76, 64
3, 8135, Note_on_c, 0, 76, 0
3, 8136, Note_on_c, 0, 80, 64
3, 8159, Note_on_c, 0, 80, 0
3, 8160, Note_on_c, 0, 73, 64
3, 8183, Note_on_c, 0, 73, 0
3, 8184, Note_on_c, 0, 72, 64
3, 8207, Note_on_c, 0, 72, 0
3, 8208, Note_on_c, 0, 73, 64
3, 8231, Note_on_c, 0, 73, 0
3, 8232, Note_on_c, 0, 80, 64
3, 8255, Note_on_c, 0, 80, 0
3, 8256, Note_on_c, 0, 78, 64
3, 8279, Note_on_c, 0, 78, 0
3, 8280, Note_on_c, 0, 73, 64
3, 8303, Note_on_c, 0, 73, 0
3, 8304, Note_on_c, 0, 71, 64
3, 8327, Note_on_c, 0, 71, 0
3, 8328, Note_on_c, 0, 80, 64
3, 8351, Note_on_c, 0, 80, 0
3, 8352, Note_on_c, 0, 76, 64
3, 8375, Note_on_c, 0, 76, 0
3, 8376, Note_on_c, 0, 71, 64
3, 8399, Note_on_c, 0, 71, 0
3, 8400, Note_on_c, 0, 73, 64
3, 8423, Note_on_c, 0, 73, 0
3, 8424, Note_on_c, 0, 76, 64
3, 8447, Note_on_c, 0, 76, 0
3, 8448, Note_on_c, 0, 69, 64
3, 8471, Note_on_c, 0, 69, 0
3, 8472, Note_on_c, 0, 68, 64
3, 8495, Note_on_c, 0, 68, 0
3, 8496, Note_on_c, 0, 69, 64
3, 8519, Note_on_c, 0, 69, 0
3, 8520, Note_on_c, 0, 76, 64
3, 8543, Note_on_c, 0, 76, 0
3, 8544, Note_on_c, 0, 75, 64
3, 8567, Note_on_c, 0, 75, 0
3, 8568, Note_on_c, 0, 69, 64
3, 8591, Note_on_c, 0, 69, 0
3, 8592, Note_on_c, 0, 68, 64
3, 8615, Note_on_c, 0, 68, 0
3, 8616, Note_on_c, 0, 76, 64
3, 8639, Note_on_c, 0, 76, 0
3, 8640, Note_on_c, 0, 73, 64
3, 8663, Note_on_c, 0, 73, 0
3, 8664, Note_on_c, 0, 68, 64
3, 8687, Note_on_c, 0, 68, 0
3, 8688, Note_on_c, 0, 70, 64
3, 8711, Note_on_c, 0, 70, 0
3, 8712, Note_on_c, 0, 73, 64
3, 8735, Note_on_c, 0, 73, 0
3, 8736, Note_on_c, 0, 67, 64
3, 8759, Note_on_c, 0, 67, 0
3, 8760, Note_on_c, 0, 68, 64
3, 8783, Note_on_c, 0, 68, 0
3, 8784, Note_on_c, 0, 70, 64
3, 8808, Note_on_c, 0, 73, 64
3, 8829, Note_on_c, 0, 70, 0
3, 8831, Note_on_c, 0, 73, 0
3, 8832, Note_on_c, 0, 64, 64
3, 8832, Note_on_c, 0, 70, 64
3, 8855, Note_on_c, 0, 64, 0
3, 8856, Note_on_c, 0, 67, 64
3, 8877, Note_on_c, 0, 70, 0
3, 8879, Note_on_c, 0, 67, 0
3, 8880, Note_on_c, 0, 68, 64
3, 8880, Note_on_c, 0, 70, 64
3, 8903, Note_on_c, 0, 68, 0
3, 8904, Note_on_c, 0, 73, 64
3, 8925, Note_on_c, 0, 70, 0
3, 8927, Note_on_c, 0, 73, 0
3, 8928, Note_on_c, 0, 63, 64
3, 8928, Note_on_c, 0, 70, 64
3, 8951, Note_on_c, 0, 63, 0
3, 8952, Note_on_c, 0, 65, 64
3, 8975, Note_on_c, 0, 65, 0
3, 8976, Note_on_c, 0, 67, 64
3, 8999, Note_on_c, 0, 67, 0
3, 9000, Note_on_c, 0, 70, 64
3, 9017, Note_on_c, 0, 70, 0
3, 9023, Note_on_c, 0, 70, 0
3, 9024, Note_on_c, 0, 73, 64
3, 9047, Note_on_c, 0, 73, 0
3, 9048, Note_on_c, 0, 75, 64
3, 9071, Note_on_c, 0, 75, 0
3, 9072, Note_on_c, 0, 76, 64
3, 9095, Note_on_c, 0, 76, 0
3, 9096, Note_on_c, 0, 79, 64
3, 9119, Note_on_c, 0, 79, 0
3, 9120, Note_on_c, 0, 82, 64
3, 9143, Note_on_c, 0, 82, 0
3, 9144, Note_on_c, 0, 76, 64
3, 9167, Note_on_c, 0, 76, 0
3, 9168, Note_on_c, 0, 75, 64
3, 9191, Note_on_c, 0, 75, 0
3, 9192, Note_on_c, 0, 73, 64
3, 9215, Note_on_c, 0, 73, 0
3, 9216, Note_on_c, 0, 71, 64
3, 9261, Note_on_c, 0, 71, 0
3, 9264, Note_on_c, 0, 63, 64
3, 9279, Note_on_c, 0, 63, 0
3, 9280, Note_on_c, 0, 65, 64
3, 9295, Note_on_c, 0, 65, 0
3, 9296, Note_on_c, 0, 67, 64
3, 9311, Note_on_c, 0, 67, 0
3, 9312, Note_on_c, 0, 68, 64
3, 9327, Note_on_c, 0, 68, 0
3, 9328, Note_on_c, 0, 70, 64
3, 9343, Note_on_c, 0, 70, 0
3, 9344, Note_on_c, 0, 71, 64
3, 9359, Note_on_c, 0, 71, 0
3, 9360, Note_on_c, 0, 71, 64
3, 9375, Note_on_c, 0, 71, 0
3, 9376, Note_on_c, 0, 73, 64
3, 9391, Note_on_c, 0, 73, 0
3, 9392, Note_on_c, 0, 75, 64
3, 9407, Note_on_c, 0, 75, 0
3, 9408, Note_on_c, 0, 75, 64
3, 9423, Note_on_c, 0, 75, 0
3, 9424, Note_on_c, 0, 73, 64
3, 9439, Note_on_c, 0, 73, 0
3, 9440, Note_on_c, 0, 71, 64
3, 9455, Note_on_c, 0, 71, 0
3, 9456, Note_on_c, 0, 71, 64
3, 9471, Note_on_c, 0, 71, 0
3, 9472, Note_on_c, 0, 70, 64
3, 9487, Note_on_c, 0, 70, 0
3, 9488, Note_on_c, 0, 68, 64
3, 9503, Note_on_c, 0, 68, 0
3, 9504, Note_on_c, 0, 68, 64
3, 9593, Note_on_c, 0, 68, 0
3, 9648, Note_on_c, 0, 64, 64
3, 9663, Note_on_c, 0, 64, 0
3, 9664, Note_on_c, 0, 66, 64
3, 9679, Note_on_c, 0, 66, 0
3, 9680, Note_on_c, 0, 68, 64
3, 9695, Note_on_c, 0, 68, 0
3, 9696, Note_on_c, 0, 68, 64
3, 9711, Note_on_c, 0, 68, 0
3, 9712, Note_on_c, 0, 70, 64
3, 9727, Note_on_c, 0, 70, 0
3, 9728, Note_on_c, 0, 71, 64
3, 9743, Note_on_c, 0, 71, 0
3, 9744, Note_on_c, 0, 71, 64
3, 9759, Note_on_c, 0, 71, 0
3, 9760, Note_on_c, 0, 73, 64
3, 9775, Note_on_c, 0, 73, 0
3, 9776, Note_on_c, 0, 75, 64
3, 9791, Note_on_c, 0, 75, 0
3, 9792, Note_on_c, 0, 76, 64
3, 9807, Note_on_c, 0, 76, 0
3, 9808, Note_on_c, 0, 78, 64
3, 9823, Note_on_c, 0, 78, 0
3, 9824, Note_on_c, 0, 80, 64
3, 9839, Note_on_c, 0, 80, 0
3, 9840, Note_on_c, 0, 80, 64
3, 9855, Note_on_c, 0, 80, 0
3, 9856, Note_on_c, 0, 78, 64
3, 9871, Note_on_c, 0, 78, 0
3, 9872, Note_on_c, 0, 76, 64
3, 9887, Note_on_c, 0, 76, 0
3, 9888, Note_on_c, 0, 76, 64
3, 9903, Note_on_c, 0, 76, 0
3, 9904, Note_on_c, 0, 75, 64
3, 9919, Note_on_c, 0, 75, 0
3, 9920, Note_on_c, 0, 73, 64
3, 9935, Note_on_c, 0, 73, 0
3, 9936, Note_on_c, 0, 73, 64
3, 9951, Note_on_c, 0, 73, 0
3, 9952, Note_on_c, 0, 75, 64
3, 9967, Note_on_c, 0, 75, 0
3, 9968, Note_on_c, 0, 76, 64
3, 9983, Note_on_c, 0, 76, 0
3, 9984, Note_on_c, 0, 76, 64
3, 9999, Note_on_c, 0, 76, 0
3, 10000, Note_on_c, 0, 75, 64
3, 10015, Note_on_c, 0, 75, 0
3, 10016, Note_on_c, 0, 73, 64
3, 10031, Note_on_c, 0, 73, 0
3, 10032, Note_on_c, 0, 73, 64
3, 10047, Note_on_c, 0, 73, 0
3, 10048, Note_on_c, 0, 71, 64
3, 10063, Note_on_c, 0, 71, 0
3, 10064, Note_on_c, 0, 70, 64
3, 10079, Note_on_c, 0, 70, 0
3, 10080, Note_on_c, 0, 79, 64
3, 10169, Note_on_c, 0, 79, 0
3, 10224, Note_on_c, 0, 75, 64
3, 10239, Note_on_c, 0, 75, 0
3, 10240, Note_on_c, 0, 77, 64
3, 10255, Note_on_c, 0, 77, 0
3, 10256, Note_on_c, 0, 79, 64
3, 10271, Note_on_c, 0, 79, 0
3, 10272, Note_on_c, 0, 79, 64
3, 10287, Note_on_c, 0, 79, 0
3, 10288, Note_on_c, 0, 80, 64
3, 10303, Note_on_c, 0, 80, 0
3, 10304, Note_on_c, 0, 82, 64
3, 10319, Note_on_c, 0, 82, 0
3, 10320, Note_on_c, 0, 82, 64
3, 10391, Note_on_c, 0, 82, 0
3, 10392, Note_on_c, 0, 73, 64
3, 10415, Note_on_c, 0, 73, 0
3, 10416, Note_on_c, 0, 71, 64
3, 10439, Note_on_c, 0, 71, 0
3, 10440, Note_on_c, 0, 75, 64
3, 10463, Note_on_c, 0, 75, 0
3, 10464, Note_on_c, 0, 83, 64
3, 10488, Note_on_c, 0, 83, 0
3, 10488, Note_on_c, 0, 79, 64
3, 10511, Note_on_c, 0, 79, 0
3, 10512, Note_on_c, 0, 80, 64
3, 10536, Note_on_c, 0, 80, 0
3, 10536, Note_on_c, 0, 76, 64
3, 10559, Note_on_c, 0, 76, 0
3, 10608, Note_on_c, 0, 75, 64
3, 10679, Note_on_c, 0, 75, 0
3, 10680, Note_on_c, 0, 72, 64
3, 10703, Note_on_c, 0, 72, 0
3, 10704, Note_on_c, 0, 73, 64
3, 10727, Note_on_c, 0, 73, 0
3, 10728, Note_on_c, 0, 76, 64
3, 10751, Note_on_c, 0, 76, 0
3, 10752, Note_on_c, 0, 80, 64
3, 10775, Note_on_c, 0, 80, 0
3, 10776, Note_on_c, 0, 75, 64
3, 10799, Note_on_c, 0, 75, 0
3, 10800, Note_on_c, 0, 76, 64
3, 10823, Note_on_c, 0, 76, 0
3, 10824, Note_on_c, 0, 73, 64
3, 10847, Note_on_c, 0, 73, 0
3, 10896, Note_on_c, 0, 71, 64
3, 10967, Note_on_c, 0, 71, 0
3, 10968, Note_on_c, 0, 68, 64
3, 10991, Note_on_c, 0, 68, 0
3, 10992, Note_on_c, 0, 70, 64
3, 11015, Note_on_c, 0, 70, 0
3, 11016, Note_on_c, 0, 73, 64
3, 11039, Note_on_c, 0, 73, 0
3, 11040, Note_on_c, 0, 76, 64
3, 11085, Note_on_c, 0, 76, 0
3, 11088, Note_on_c, 0, 68, 64
3, 11088, Note_on_c, 0, 73, 64
3, 11088, Note_on_c, 0, 76, 64
3, 11133, Note_on_c, 0, 76, 0
3, 11133, Note_on_c, 0, 73, 0
3, 11133, Note_on_c, 0, 68, 0
3, 11136, Note_on_c, 0, 68, 64
3, 11136, Note_on_c, 0, 73, 64
3, 11136, Note_on_c, 0, 76, 64
3, 11181, Note_on_c, 0, 76, 0
3, 11181, Note_on_c, 0, 73, 0
3, 11181, Note_on_c, 0, 68, 0
3, 11184, Note_on_c, 0, 68, 64
3, 11184, Note_on_c, 0, 73, 64
3, 11184, Note_on_c, 0, 76, 64
3, 11229, Note_on_c, 0, 76, 0
3, 11229, Note_on_c, 0, 73, 0
3, 11229, Note_on_c, 0, 68, 0
3, 11280, Note_on_c, 0, 66, 64
3, 11280, Note_on_c, 0, 73, 64
3, 11280, Note_on_c, 0, 76, 64
3, 11325, Note_on_c, 0, 76, 0
3, 11325, Note_on_c, 0, 73, 0
3, 11325, Note_on_c, 0, 66, 0
3, 11328, Note_on_c, 0, 70, 64
3, 11328, Note_on_c, 0, 73, 64
3, 11328, Note_on_c, 0, 76, 64
3, 11373, Note_on_c, 0, 76, 0
3, 11373, Note_on_c, 0, 73, 0
3, 11373, Note_on_c, 0, 70, 0
3, 11376, Note_on_c, 0, 70, 64
3, 11376, Note_on_c, 0, 73, 64
3, 11376, Note_on_c, 0, 76, 64
3, 11421, Note_on_c, 0, 76, 0
3, 11421, Note_on_c, 0, 73, 0
3, 11421, Note_on_c, 0, 70, 0
3, 11424, Note_on_c, 0, 66, 64
3, 11424, Note_on_c, 0, 73, 64
3, 11424, Note_on_c, 0, 76, 64
3, 11469, Note_on_c, 0, 76, 0
3, 11469, Note_on_c, 0, 73, 0
3, 11469, Note_on_c, 0, 66, 0
3, 11472, Note_on_c, 0, 66, 64
3, 11472, Note_on_c, 0, 73, 64
3, 11472, Note_on_c, 0, 76, 64
3, 11517, Note_on_c, 0, 76, 0
3, 11517, Note_on_c, 0, 73, 0
3, 11517, Note_on_c, 0, 66, 0
3, 11520, Note_on_c, 0, 66, 64
3, 11520, Note_on_c, 0, 71, 64
3, 11520, Note_on_c, 0, 75, 64
3, 11609, Note_on_c, 0, 75, 0
3, 11609, Note_on_c, 0, 71, 0
3, 11609, Note_on_c, 0, 66, 0
3, 11664, Note_on_c, 0, 66, 64
3, 11679, Note_on_c, 0, 66, 0
3, 11680, Note_on_c, 0, 68, 64
3, 11695, Note_on_c, 0, 68, 0
3, 11696, Note_on_c, 0, 70, 64
3, 11711, Note_on_c, 0, 70, 0
3, 11712, Note_on_c, 0, 71, 64
3, 11727, Note_on_c, 0, 71, 0
3, 11728, Note_on_c, 0, 73, 64
3, 11743, Note_on_c, 0, 73, 0
3, 11744, Note_on_c, 0, 75, 64
3, 11759, Note_on_c, 0, 75, 0
3, 11760, Note_on_c, 0, 75, 64
3, 11775, Note_on_c, 0, 75, 0
3, 11776, Note_on_c, 0, 76, 64
3, 11791, Note_on_c, 0, 76, 0
3, 11792, Note_on_c, 0, 78, 64
3, 11807, Note_on_c, 0, 78, 0
3, 11808, Note_on_c, 0, 78, 64
3, 11823, Note_on_c, 0, 78, 0
3, 11824, Note_on_c, 0, 76, 64
3, 11839, Note_on_c, 0, 76, 0
3, 11840, Note_on_c, 0, 75, 64
3, 11855, Note_on_c, 0, 75, 0
3, 11856, Note_on_c, 0, 75, 64
3, 11871, Note_on_c, 0, 75, 0
3, 11872, Note_on_c, 0, 73, 64
3, 11887, Note_on_c, 0, 73, 0
3, 11888, Note_on_c, 0, 71, 64
3, 11903, Note_on_c, 0, 71, 0
3, 11904, Note_on_c, 0, 71, 64
3, 12081, Note_on_c, 0, 71, 0
3, 12144, Note_on_c, 0, 71, 64
3, 12159, Note_on_c, 0, 71, 0
3, 12160, Note_on_c, 0, 73, 64
3, 12175, Note_on_c, 0, 73, 0
3, 12176, Note_on_c, 0, 75, 64
3, 12191, Note_on_c, 0, 75, 0
3, 12192, Note_on_c, 0, 76, 64
3, 12207, Note_on_c, 0, 76, 0
3, 12208, Note_on_c, 0, 78, 64
3, 12223, Note_on_c, 0, 78, 0
3, 12224, Note_on_c, 0, 80, 64
3, 12239, Note_on_c, 0, 80, 0
3, 12240, Note_on_c, 0, 80, 64
3, 12255, Note_on_c, 0, 80, 0
3, 12256, Note_on_c, 0, 82, 64
3, 12271, Note_on_c, 0, 82, 0
3, 12272, Note_on_c, 0, 83, 64
3, 12287, Note_on_c, 0, 83, 0
3, 12288, Note_on_c, 0, 83, 64
3, 12303, Note_on_c, 0, 83, 0
3, 12304, Note_on_c, 0, 82, 64
3, 12319, Note_on_c, 0, 82, 0
3, 12320, Note_on_c, 0, 80, 64
3, 12335, Note_on_c, 0, 80, 0
3, 12336, Note_on_c, 0, 80, 64
3, 12351, Note_on_c, 0, 80, 0
3, 12352, Note_on_c, 0, 78, 64
3, 12367, Note_on_c, 0, 78, 0
3, 12368, Note_on_c, 0, 76, 64
3, 12383, Note_on_c, 0, 76, 0
3, 12384, Note_on_c, 0, 76, 64
3, 12399, Note_on_c, 0, 76, 0
3, 12400, Note_on_c, 0, 75, 64
3, 12415, Note_on_c, 0, 75, 0
3, 12416, Note_on_c, 0, 73, 64
3, 12431, Note_on_c, 0, 73, 0
3, 12432, Note_on_c, 0, 73, 64
3, 12447, Note_on_c, 0, 73, 0
3, 12448, Note_on_c, 0, 71, 64
3, 12463, Note_on_c, 0, 71, 0
3, 12464, Note_on_c, 0, 70, 64
3, 12479, Note_on_c, 0, 70, 0
3, 12480, Note_on_c, 0, 70, 64
3, 12503, Note_on_c, 0, 70, 0
3, 12504, Note_on_c, 0, 80, 64
3, 12527, Note_on_c, 0, 80, 0
3, 12528, Note_on_c, 0, 78, 64
3, 12599, Note_on_c, 0, 78, 0
3, 12600, Note_on_c, 0, 75, 64
3, 12623, Note_on_c, 0, 75, 0
3, 12624, Note_on_c, 0, 76, 64
3, 12647, Note_on_c, 0, 76, 0
3, 12648, Note_on_c, 0, 73, 64
3, 12671, Note_on_c, 0, 73, 0
3, 12672, Note_on_c, 0, 75, 64
3, 12695, Note_on_c, 0, 75, 0
3, 12696, Note_on_c, 0, 70, 64
3, 12719, Note_on_c, 0, 70, 0
3, 12720, Note_on_c, 0, 71, 64
3, 12743, Note_on_c, 0, 71, 0
3, 12744, Note_on_c, 0, 75, 64
3, 12767, Note_on_c, 0, 75, 0
3, 12768, Note_on_c, 0, 68, 64
3, 12791, Note_on_c, 0, 68, 0
3, 12792, Note_on_c, 0, 66, 64
3, 12815, Note_on_c, 0, 66, 0
3, 12816, Note_on_c, 0, 68, 64
3, 12839, Note_on_c, 0, 68, 0
3, 12840, Note_on_c, 0, 77, 64
3, 12863, Note_on_c, 0, 77, 0
3, 12864, Note_on_c, 0, 78, 64
3, 12887, Note_on_c, 0, 78, 0
3, 12888, Note_on_c, 0, 81, 64
3, 12911, Note_on_c, 0, 81, 0
3, 12912, Note_on_c, 0, 80, 64
3, 12935, Note_on_c, 0, 80, 0
3, 12936, Note_on_c, 0, 78, 64
3, 12959, Note_on_c, 0, 78, 0
3, 12960, Note_on_c, 0, 83, 64
3, 12983, Note_on_c, 0, 83, 0
3, 12984, Note_on_c, 0, 78, 64
3, 13007, Note_on_c, 0, 78, 0
3, 13008, Note_on_c, 0, 80, 64
3, 13031, Note_on_c, 0, 80, 0
3, 13032, Note_on_c, 0, 83, 64
3, 13055, Note_on_c, 0, 83, 0
3, 13056, Note_on_c, 0, 77, 64
3, 13079, Note_on_c, 0, 77, 0
3, 13080, Note_on_c, 0, 78, 64
3, 13103, Note_on_c, 0, 78, 0
3, 13104, Note_on_c, 0, 80, 64
3, 13127, Note_on_c, 0, 80, 0
3, 13128, Note_on_c, 0, 73, 64
3, 13151, Note_on_c, 0, 73, 0
3, 13152, Note_on_c, 0, 74, 64
3, 13175, Note_on_c, 0, 74, 0
3, 13176, Note_on_c, 0, 69, 64
3, 13199, Note_on_c, 0, 69, 0
3, 13200, Note_on_c, 0, 71, 64
3, 13223, Note_on_c, 0, 71, 0
3, 13224, Note_on_c, 0, 66, 64
3, 13247, Note_on_c, 0, 66, 0
3, 13248, Note_on_c, 0, 68, 64
3, 13271, Note_on_c, 0, 68, 0
3, 13272, Note_on_c, 0, 69, 64
3, 13295, Note_on_c, 0, 69, 0
3, 13296, Note_on_c, 0, 71, 64
3, 13319, Note_on_c, 0, 71, 0
3, 13320, Note_on_c, 0, 62, 64
3, 13343, Note_on_c, 0, 62, 0
3, 13344, Note_on_c, 0, 61, 64
3, 13367, Note_on_c, 0, 61, 0
3, 13368, Note_on_c, 0, 63, 64
3, 13391, Note_on_c, 0, 63, 0
3, 13392, Note_on_c, 0, 65, 64
3, 13415, Note_on_c, 0, 65, 0
3, 13416, Note_on_c, 0, 66, 64
3, 13439, Note_on_c, 0, 66, 0
3, 13440, Note_on_c, 0, 68, 64
3, 13463, Note_on_c, 0, 68, 0
3, 13464, Note_on_c, 0, 69, 64
3, 13487, Note_on_c, 0, 69, 0
3, 13488, Note_on_c, 0, 71, 64
3, 13511, Note_on_c, 0, 71, 0
3, 13512, Note_on_c, 0, 78, 64
3, 13535, Note_on_c, 0, 78, 0
3, 13536, Note_on_c, 0, 77, 64
3, 13559, Note_on_c, 0, 77, 0
3, 13560, Note_on_c, 0, 80, 64
3, 13583, Note_on_c, 0, 80, 0
3, 13584, Note_on_c, 0, 83, 64
3, 13647, Note_on_c, 0, 83, 0
3, 13648, Note_on_c, 0, 81, 64
3, 13663, Note_on_c, 0, 81, 0
3, 13664, Note_on_c, 0, 80, 64
3, 13679, Note_on_c, 0, 80, 0
3, 13680, Note_on_c, 0, 81, 64
3, 13695, Note_on_c, 0, 81, 0
3, 13696, Note_on_c, 0, 80, 64
3, 13711, Note_on_c, 0, 80, 0
3, 13712, Note_on_c, 0, 78, 64
3, 13727, Note_on_c, 0, 78, 0
3, 13728, Note_on_c, 0, 80, 64
3, 13743, Note_on_c, 0, 80, 0
3, 13744, Note_on_c, 0, 78, 64
3, 13759, Note_on_c, 0, 78, 0
3, 13760, Note_on_c, 0, 77, 64
3, 13775, Note_on_c, 0, 77, 0
3, 13776, Note_on_c, 0, 78, 64
3, 13799, Note_on_c, 0, 78, 0
3, 13800, Note_on_c, 0, 80, 64
3, 13823, Note_on_c, 0, 80, 0
3, 13824, Note_on_c, 0, 73, 64
3, 13848, Note_on_c, 0, 73, 0
3, 13848, Note_on_c, 0, 83, 64
3, 13871, Note_on_c, 0, 83, 0
3, 13872, Note_on_c, 0, 81, 64
3, 13917, Note_on_c, 0, 81, 0
3, 13968, Note_on_c, 0, 69, 64
3, 14013, Note_on_c, 0, 69, 0
3, 14016, Note_on_c, 0, 68, 64
3, 14039, Note_on_c, 0, 68, 0
3, 14040, Note_on_c, 0, 61, 64
3, 14063, Note_on_c, 0, 61, 0
3, 14064, Note_on_c, 0, 60, 64
3, 14087, Note_on_c, 0, 60, 0
3, 14088, Note_on_c, 0, 61, 64
3, 14111, Note_on_c, 0, 61, 0
3, 14112, Note_on_c, 0, 63, 64
3, 14135, Note_on_c, 0, 63, 0
3, 14136, Note_on_c, 0, 64, 64
3, 14159, Note_on_c, 0, 64, 0
3, 14160, Note_on_c, 0, 66, 64
3, 14231, Note_on_c, 0, 66, 0
3, 14232, Note_on_c, 0, 64, 64
3, 14255, Note_on_c, 0, 64, 0
3, 14256, Note_on_c, 0, 63, 64
3, 14279, Note_on_c, 0, 63, 0
3, 14280, Note_on_c, 0, 64, 64
3, 14303, Note_on_c, 0, 64, 0
3, 14304, Note_on_c, 0, 66, 64
3, 14327, Note_on_c, 0, 66, 0
3, 14328, Note_on_c, 0, 68, 64
3, 14351, Note_on_c, 0, 68, 0
3, 14352, Note_on_c, 0, 69, 64
3, 14423, Note_on_c, 0, 69, 0
3, 14424, Note_on_c, 0, 68, 64
3, 14447, Note_on_c, 0, 68, 0
3, 14448, Note_on_c, 0, 69, 64
3, 14471, Note_on_c, 0, 69, 0
3, 14472, Note_on_c, 0, 66, 64
3, 14495, Note_on_c, 0, 66, 0
3, 14496, Note_on_c, 0, 75, 64
3, 14711, Note_on_c, 0, 75, 0
3, 14712, Note_on_c, 0, 72, 64
3, 14735, Note_on_c, 0, 72, 0
3, 14736, Note_on_c, 0, 73, 64
3, 14759, Note_on_c, 0, 73, 0
3, 14760, Note_on_c, 0, 75, 64
3, 14783, Note_on_c, 0, 75, 0
3, 14784, Note_on_c, 0, 66, 64
3, 14903, Note_on_c, 0, 66, 0
3, 14904, Note_on_c, 0, 69, 64
3, 14927, Note_on_c, 0, 69, 0
3, 14928, Note_on_c, 0, 68, 64
3, 14951, Note_on_c, 0, 68, 0
3, 14952, Note_on_c, 0, 66, 64
3, 14975, Note_on_c, 0, 66, 0
3, 14976, Note_on_c, 0, 61, 64
3, 14976, Note_on_c, 0, 56, 64
3, 14976, Note_on_c, 0, 64, 64
3, 15065, Note_on_c, 0, 56, 0
3, 15065, Note_on_c, 0, 61, 0
3, 15072, Note_on_c, 0, 64, 0
3, 15120, Note_on_c, 0, 56, 64
3, 15135, Note_on_c, 0, 56, 0
3, 15136, Note_on_c, 0, 58, 64
3, 15151, Note_on_c, 0, 58, 0
3, 15152, Note_on_c, 0, 60, 64
3, 15167, Note_on_c, 0, 60, 0
3, 15168, Note_on_c, 0, 61, 64
3, 15183, Note_on_c, 0, 61, 0
3, 15184, Note_on_c, 0, 63, 64
3, 15199, Note_on_c, 0, 63, 0
3, 15200, Note_on_c, 0, 64, 64
3, 15215, Note_on_c, 0, 64, 0
3, 15216, Note_on_c, 0, 64, 64
3, 15231, Note_on_c, 0, 64, 0
3, 15232, Note_on_c, 0, 66, 64
3, 15247, Note_on_c, 0, 66, 0
3, 15248, Note_on_c, 0, 68, 64
3, 15263, Note_on_c, 0, 68, 0
3, 15264, Note_on_c, 0, 68, 64
3, 15279, Note_on_c, 0, 68, 0
3, 15280, Note_on_c, 0, 66, 64
3, 15295, Note_on_c, 0, 66, 0
3, 15296, Note_on_c, 0, 64, 64
3, 15311, Note_on_c, 0, 64, 0
3, 15312, Note_on_c, 0, 64, 64
3, 15327, Note_on_c, 0, 64, 0
3, 15328, Note_on_c, 0, 63, 64
3, 15343, Note_on_c, 0, 63, 0
3, 15344, Note_on_c, 0, 61, 64
3, 15359, Note_on_c, 0, 61, 0
3, 15360, Note_on_c, 0, 61, 64
3, 15537, Note_on_c, 0, 61, 0
3, 15600, Note_on_c, 0, 61, 64
3, 15615, Note_on_c, 0, 61, 0
3, 15616, Note_on_c, 0, 63, 64
3, 15631, Note_on_c, 0, 63, 0
3, 15632, Note_on_c, 0, 65, 64
3, 15647, Note_on_c, 0, 65, 0
3, 15648, Note_on_c, 0, 66, 64
3, 15663, Note_on_c, 0, 66, 0
3, 15664, Note_on_c, 0, 68, 64
3, 15679, Note_on_c, 0, 68, 0
3, 15680, Note_on_c, 0, 69, 64
3, 15695, Note_on_c, 0, 69, 0
3, 15696, Note_on_c, 0, 69, 64
3, 15711, Note_on_c, 0, 69, 0
3, 15712, Note_on_c, 0, 71, 64
3, 15727, Note_on_c, 0, 71, 0
3, 15728, Note_on_c, 0, 73, 64
3, 15743, Note_on_c, 0, 73, 0
3, 15744, Note_on_c, 0, 73, 64
3, 15759, Note_on_c, 0, 73, 0
3, 15760, Note_on_c, 0, 71, 64
3, 15775, Note_on_c, 0, 71, 0
3, 15776, Note_on_c, 0, 69, 64
3, 15791, Note_on_c, 0, 69, 0
3, 15792, Note_on_c, 0, 69, 64
3, 15807, Note_on_c, 0, 69, 0
3, 15808, Note_on_c, 0, 68, 64
3, 15823, Note_on_c, 0, 68, 0
3, 15824, Note_on_c, 0, 66, 64
3, 15839, Note_on_c, 0, 66, 0
3, 15840, Note_on_c, 0, 66, 64
3, 15855, Note_on_c, 0, 66, 0
3, 15856, Note_on_c, 0, 64, 64
3, 15871, Note_on_c, 0, 64, 0
3, 15872, Note_on_c, 0, 63, 64
3, 15887, Note_on_c, 0, 63, 0
3, 15888, Note_on_c, 0, 63, 64
3, 15903, Note_on_c, 0, 63, 0
3, 15904, Note_on_c, 0, 61, 64
3, 15919, Note_on_c, 0, 61, 0
3, 15920, Note_on_c, 0, 60, 64
3, 15935, Note_on_c, 0, 60, 0
3, 15936, Note_on_c, 0, 60, 64
3, 15959, Note_on_c, 0, 60, 0
3, 15960, Note_on_c, 0, 69, 64
3, 15983, Note_on_c, 0, 69, 0
3, 15984, Note_on_c, 0, 68, 64
3, 16055, Note_on_c, 0, 68, 0
3, 16056, Note_on_c, 0, 64, 64
3, 16079, Note_on_c, 0, 64, 0
3, 16080, Note_on_c, 0, 66, 64
3, 16103, Note_on_c, 0, 66, 0
3, 16104, Note_on_c, 0, 63, 64
3, 16127, Note_on_c, 0, 63, 0
3, 16128, Note_on_c, 0, 64, 64
3, 16151, Note_on_c, 0, 64, 0
3, 16152, Note_on_c, 0, 60, 64
3, 16175, Note_on_c, 0, 60, 0
3, 16176, Note_on_c, 0, 61, 64
3, 16199, Note_on_c, 0, 61, 0
3, 16200, Note_on_c, 0, 64, 64
3, 16223, Note_on_c, 0, 64, 0
3, 16224, Note_on_c, 0, 69, 64
3, 16247, Note_on_c, 0, 69, 0
3, 16248, Note_on_c, 0, 68, 64
3, 16271, Note_on_c, 0, 68, 0
3, 16272, Note_on_c, 0, 69, 64
3, 16295, Note_on_c, 0, 69, 0
3, 16296, Note_on_c, 0, 64, 64
3, 16319, Note_on_c, 0, 64, 0
3, 16320, Note_on_c, 0, 63, 64
3, 16343, Note_on_c, 0, 63, 0
3, 16344, Note_on_c, 0, 69, 64
3, 16367, Note_on_c, 0, 69, 0
3, 16368, Note_on_c, 0, 68, 64
3, 16391, Note_on_c, 0, 68, 0
3, 16392, Note_on_c, 0, 64, 64
3, 16415, Note_on_c, 0, 64, 0
3, 16416, Note_on_c, 0, 61, 64
3, 16439, Note_on_c, 0, 61, 0
3, 16440, Note_on_c, 0, 56, 64
3, 16463, Note_on_c, 0, 56, 0
3, 16464, Note_on_c, 0, 57, 64
3, 16487, Note_on_c, 0, 57, 0
3, 16488, Note_on_c, 0, 61, 64
3, 16511, Note_on_c, 0, 61, 0
3, 16512, Note_on_c, 0, 66, 64
3, 16535, Note_on_c, 0, 66, 0
3, 16536, Note_on_c, 0, 65, 64
3, 16559, Note_on_c, 0, 65, 0
3, 16560, Note_on_c, 0, 66, 64
3, 16583, Note_on_c, 0, 66, 0
3, 16584, Note_on_c, 0, 61, 64
3, 16607, Note_on_c, 0, 61, 0
3, 16608, Note_on_c, 0, 59, 64
3, 16631, Note_on_c, 0, 59, 0
3, 16632, Note_on_c, 0, 66, 64
3, 16655, Note_on_c, 0, 66, 0
3, 16656, Note_on_c, 0, 64, 64
3, 16679, Note_on_c, 0, 64, 0
3, 16680, Note_on_c, 0, 61, 64
3, 16703, Note_on_c, 0, 61, 0
3, 16704, Note_on_c, 0, 57, 64
3, 16727, Note_on_c, 0, 57, 0
3, 16728, Note_on_c, 0, 52, 64
3, 16751, Note_on_c, 0, 52, 0
3, 16752, Note_on_c, 0, 54, 64
3, 16775, Note_on_c, 0, 54, 0
3, 16776, Note_on_c, 0, 57, 64
3, 16799, Note_on_c, 0, 57, 0
3, 16800, Note_on_c, 0, 62, 64
3, 16823, Note_on_c, 0, 62, 0
3, 16824, Note_on_c, 0, 61, 64
3, 16847, Note_on_c, 0, 61, 0
3, 16848, Note_on_c, 0, 62, 64
3, 16871, Note_on_c, 0, 62, 0
3, 16872, Note_on_c, 0, 57, 64
3, 16895, Note_on_c, 0, 57, 0
3, 16896, Note_on_c, 0, 56, 64
3, 16919, Note_on_c, 0, 56, 0
3, 16920, Note_on_c, 0, 62, 64
3, 16943, Note_on_c, 0, 62, 0
3, 16944, Note_on_c, 0, 61, 64
3, 16967, Note_on_c, 0, 61, 0
3, 16968, Note_on_c, 0, 57, 64
3, 16991, Note_on_c, 0, 57, 0
3, 16992, Note_on_c, 0, 54, 64
3, 17015, Note_on_c, 0, 54, 0
3, 17016, Note_on_c, 0, 64, 64
3, 17039, Note_on_c, 0, 64, 0
3, 17040, Note_on_c, 0, 63, 64
3, 17063, Note_on_c, 0, 63, 0
3, 17064, Note_on_c, 0, 61, 64
3, 17087, Note_on_c, 0, 61, 0
3, 17088, Note_on_c, 0, 60, 64
3, 17111, Note_on_c, 0, 60, 0
3, 17112, Note_on_c, 0, 61, 64
3, 17135, Note_on_c, 0, 61, 0
3, 17136, Note_on_c, 0, 63, 64
3, 17159, Note_on_c, 0, 63, 0
3, 17160, Note_on_c, 0, 66, 64
3, 17183, Note_on_c, 0, 66, 0
3, 17184, Note_on_c, 0, 53, 64
3, 17207, Note_on_c, 0, 53, 0
3, 17208, Note_on_c, 0, 56, 64
3, 17231, Note_on_c, 0, 56, 0
3, 17232, Note_on_c, 0, 57, 64
3, 17255, Note_on_c, 0, 57, 0
3, 17256, Note_on_c, 0, 65, 64
3, 17279, Note_on_c, 0, 65, 0
3, 17280, Note_on_c, 0, 56, 64
3, 17303, Note_on_c, 0, 56, 0
3, 17304, Note_on_c, 0, 58, 64
3, 17327, Note_on_c, 0, 58, 0
3, 17328, Note_on_c, 0, 60, 64
3, 17351, Note_on_c, 0, 60, 0
3, 17352, Note_on_c, 0, 63, 64
3, 17375, Note_on_c, 0, 63, 0
3, 17376, Note_on_c, 0, 66, 64
3, 17399, Note_on_c, 0, 66, 0
3, 17400, Note_on_c, 0, 68, 64
3, 17423, Note_on_c, 0, 68, 0
3, 17424, Note_on_c, 0, 69, 64
3, 17447, Note_on_c, 0, 69, 0
3, 17448, Note_on_c, 0, 72, 64
3, 17471, Note_on_c, 0, 72, 0
3, 17472, Note_on_c, 0, 75, 64
3, 17495, Note_on_c, 0, 75, 0
3, 17496, Note_on_c, 0, 69, 64
3, 17519, Note_on_c, 0, 69, 0
3, 17520, Note_on_c, 0, 68, 64
3, 17543, Note_on_c, 0, 68, 0
3, 17544, Note_on_c, 0, 66, 64
3, 17567, Note_on_c, 0, 66, 0
3, 17568, Note_on_c, 0, 64, 64
3, 17613, Note_on_c, 0, 64, 0
3, 17616, Note_on_c, 0, 66, 64
3, 17639, Note_on_c, 0, 66, 0
3, 17640, Note_on_c, 0, 63, 64
3, 17663, Note_on_c, 0, 63, 0
3, 17664, Note_on_c, 0, 63, 64
3, 17670, Note_on_c, 0, 63, 0
3, 17670, Note_on_c, 0, 64, 64
3, 17676, Note_on_c, 0, 64, 0
3, 17676, Note_on_c, 0, 63, 64
3, 17682, Note_on_c, 0, 63, 0
3, 17682, Note_on_c, 0, 64, 64
3, 17688, Note_on_c, 0, 64, 0
3, 17688, Note_on_c, 0, 63, 64
3, 17694, Note_on_c, 0, 63, 0
3, 17694, Note_on_c, 0, 64, 64
3, 17700, Note_on_c, 0, 64, 0
3, 17700, Note_on_c, 0, 63, 64
3, 17706, Note_on_c, 0, 63, 0
3, 17706, Note_on_c, 0, 64, 64
3, 17712, Note_on_c, 0, 64, 0
3, 17712, Note_on_c, 0, 63, 64
3, 17718, Note_on_c, 0, 63, 0
3, 17718, Note_on_c, 0, 64, 64
3, 17724, Note_on_c, 0, 64, 0
3, 17724, Note_on_c, 0, 63, 64
3, 17730, Note_on_c, 0, 63, 0
3, 17730, Note_on_c, 0, 64, 64
3, 17736, Note_on_c, 0, 64, 0
3, 17736, Note_on_c, 0, 63, 64
3, 17742, Note_on_c, 0, 63, 0
3, 17742, Note_on_c, 0, 64, 64
3, 17748, Note_on_c, 0, 64, 0
3, 17748, Note_on_c, 0, 63, 64
3, 17754, Note_on_c, 0, 63, 0
3, 17754, Note_on_c, 0, 64, 64
3, 17760, Note_on_c, 0, 64, 0
3, 17760, Note_on_c, 0, 63, 64
3, 17766, Note_on_c, 0, 63, 0
3, 17766, Note_on_c, 0, 64, 64
3, 17772, Note_on_c, 0, 64, 0
3, 17772, Note_on_c, 0, 63, 64
3, 17778, Note_on_c, 0, 63, 0
3, 17778, Note_on_c, 0, 64, 64
3, 17784, Note_on_c, 0, 64, 0
3, 17784, Note_on_c, 0, 63, 64
3, 17790, Note_on_c, 0, 63, 0
3, 17790, Note_on_c, 0, 64, 64
3, 17796, Note_on_c, 0, 64, 0
3, 17796, Note_on_c, 0, 63, 64
3, 17802, Note_on_c, 0, 63, 0
3, 17802, Note_on_c, 0, 64, 64
3, 17808, Note_on_c, 0, 64, 0
3, 17808, Note_on_c, 0, 61, 64
3, 17853, Note_on_c, 0, 61, 0
3, 17856, Note_on_c, 0, 61, 64
3, 17945, Note_on_c, 0, 61, 0
3, 17952, Note_on_c, 0, 61, 64
3, 17967, Note_on_c, 0, 61, 0
3, 17968, Note_on_c, 0, 63, 64
3, 17983, Note_on_c, 0, 63, 0
3, 17984, Note_on_c, 0, 64, 64
3, 17999, Note_on_c, 0, 64, 0
3, 18000, Note_on_c, 0, 64, 64
3, 18015, Note_on_c, 0, 64, 0
3, 18016, Note_on_c, 0, 66, 64
3, 18031, Note_on_c, 0, 66, 0
3, 18032, Note_on_c, 0, 68, 64
3, 18047, Note_on_c, 0, 68, 0
3, 18048, Note_on_c, 0, 68, 64
3, 18063, Note_on_c, 0, 68, 0
3, 18064, Note_on_c, 0, 69, 64
3, 18079, Note_on_c, 0, 69, 0
3, 18080, Note_on_c, 0, 71, 64
3, 18095, Note_on_c, 0, 71, 0
3, 18096, Note_on_c, 0, 71, 64
3, 18111, Note_on_c, 0, 71, 0
3, 18112, Note_on_c, 0, 73, 64
3, 18127, Note_on_c, 0, 73, 0
3, 18128, Note_on_c, 0, 75, 64
3, 18143, Note_on_c, 0, 75, 0
3, 18144, Note_on_c, 0, 68, 64
3, 18207, Note_on_c, 0, 68, 0
3, 18208, Note_on_c, 0, 69, 64
3, 18223, Note_on_c, 0, 69, 0
3, 18224, Note_on_c, 0, 71, 64
3, 18239, Note_on_c, 0, 71, 0
3, 18240, Note_on_c, 0, 73, 64
3, 18255, Note_on_c, 0, 73, 0
3, 18256, Note_on_c, 0, 75, 64
3, 18271, Note_on_c, 0, 75, 0
3, 18272, Note_on_c, 0, 76, 64
3, 18287, Note_on_c, 0, 76, 0
3, 18288, Note_on_c, 0, 78, 64
3, 18303, Note_on_c, 0, 78, 0
3, 18304, Note_on_c, 0, 80, 64
3, 18319, Note_on_c, 0, 80, 0
3, 18320, Note_on_c, 0, 81, 64
3, 18335, Note_on_c, 0, 81, 0
3, 18336, Note_on_c, 0, 75, 64
3, 18351, Note_on_c, 0, 75, 0
3, 18352, Note_on_c, 0, 76, 64
3, 18367, Note_on_c, 0, 76, 0
3, 18368, Note_on_c, 0, 78, 64
3, 18383, Note_on_c, 0, 78, 0
3, 18384, Note_on_c, 0, 72, 64
3, 18399, Note_on_c, 0, 72, 0
3, 18400, Note_on_c, 0, 73, 64
3, 18408, Note_on_c, 0, 73, 0
3, 18408, Note_on_c, 0, 72, 64
3, 18416, Note_on_c, 0, 72, 0
3, 18416, Note_on_c, 0, 73, 64
3, 18431, Note_on_c, 0, 73, 0
3, 18432, Note_on_c, 0, 72, 64
3, 18697, Note_on_c, 0, 72, 0
3, 18697, End_track
4, 0, Start_track
4, 0, MIDI_port, 0
4, 0, Title_t, "Clavier (LH)"
4, 0, Program_c, 0, 6
4, 0, Control_c, 0, 7, 127
4, 0, Note_on_c, 0, 49, 64
4, 89, Note_on_c, 0, 49, 0
4, 96, Note_on_c, 0, 61, 64
4, 185, Note_on_c, 0, 61, 0
4, 192, Note_on_c, 0, 61, 64
4, 281, Note_on_c, 0, 61, 0
4, 288, Note_on_c, 0, 45, 64
4, 377, Note_on_c, 0, 45, 0
4, 384, Note_on_c, 0, 57, 64
4, 473, Note_on_c, 0, 57, 0
4, 480, Note_on_c, 0, 56, 64
4, 569, Note_on_c, 0, 56, 0
4, 576, Note_on_c, 0, 42, 64
4, 665, Note_on_c, 0, 42, 0
4, 672, Note_on_c, 0, 54, 64
4, 761, Note_on_c, 0, 54, 0
4, 768, Note_on_c, 0, 52, 64
4, 857, Note_on_c, 0, 52, 0
4, 864, Note_on_c, 0, 51, 64
4, 953, Note_on_c, 0, 51, 0
4, 960, Note_on_c, 0, 56, 64
4, 1049, Note_on_c, 0, 56, 0
4, 1056, Note_on_c, 0, 44, 64
4, 1145, Note_on_c, 0, 44, 0
4, 1152, Note_on_c, 0, 49, 64
4, 1241, Note_on_c, 0, 49, 0
4, 1248, Note_on_c, 0, 61, 64
4, 1337, Note_on_c, 0, 61, 0
4, 1344, Note_on_c, 0, 59, 64
4, 1433, Note_on_c, 0, 59, 0
4, 1440, Note_on_c, 0, 45, 64
4, 1529, Note_on_c, 0, 45, 0
4, 1536, Note_on_c, 0, 57, 64
4, 1625, Note_on_c, 0, 57, 0
4, 1632, Note_on_c, 0, 56, 64
4, 1721, Note_on_c, 0, 56, 0
4, 1728, Note_on_c, 0, 42, 64
4, 1817, Note_on_c, 0, 42, 0
4, 1824, Note_on_c, 0, 54, 64
4, 1913, Note_on_c, 0, 54, 0
4, 1920, Note_on_c, 0, 52, 64
4, 2009, Note_on_c, 0, 52, 0
4, 2016, Note_on_c, 0, 51, 64
4, 2105, Note_on_c, 0, 51, 0
4, 2112, Note_on_c, 0, 56, 64
4, 2201, Note_on_c, 0, 56, 0
4, 2208, Note_on_c, 0, 44, 64
4, 2297, Note_on_c, 0, 44, 0
4, 2304, Note_on_c, 0, 49, 64
4, 2393, Note_on_c, 0, 49, 0
4, 2400, Note_on_c, 0, 61, 64
4, 2489, Note_on_c, 0, 61, 0
4, 2496, Note_on_c, 0, 59, 64
4, 2585, Note_on_c, 0, 59, 0
4, 2592, Note_on_c, 0, 45, 64
4, 2681, Note_on_c, 0, 45, 0
4, 2688, Note_on_c, 0, 57, 64
4, 2777, Note_on_c, 0, 57, 0
4, 2784, Note_on_c, 0, 56, 64
4, 2873, Note_on_c, 0, 56, 0
4, 2880, Note_on_c, 0, 42, 64
4, 2969, Note_on_c, 0, 42, 0
4, 2976, Note_on_c, 0, 54, 64
4, 3065, Note_on_c, 0, 54, 0
4, 3072, Note_on_c, 0, 52, 64
4, 3161, Note_on_c, 0, 52, 0
4, 3168, Note_on_c, 0, 51, 64
4, 3257, Note_on_c, 0, 51, 0
4, 3264, Note_on_c, 0, 47, 64
4, 3353, Note_on_c, 0, 47, 0
4, 3360, Note_on_c, 0, 51, 64
4, 3449, Note_on_c, 0, 51, 0
4, 3456, Note_on_c, 0, 52, 64
4, 3545, Note_on_c, 0, 52, 0
4, 3552, Note_on_c, 0, 64, 64
4, 3641, Note_on_c, 0, 64, 0
4, 3648, Note_on_c, 0, 63, 64
4, 3737, Note_on_c, 0, 63, 0
4, 3744, Note_on_c, 0, 49, 64
4, 3833, Note_on_c, 0, 49, 0
4, 3840, Note_on_c, 0, 61, 64
4, 3929, Note_on_c, 0, 61, 0
4, 3936, Note_on_c, 0, 59, 64
4, 4025, Note_on_c, 0, 59, 0
4, 4032, Note_on_c, 0, 45, 64
4, 4121, Note_on_c, 0, 45, 0
4, 4128, Note_on_c, 0, 57, 64
4, 4217, Note_on_c, 0, 57, 0
4, 4224, Note_on_c, 0, 56, 64
4, 4313, Note_on_c, 0, 56, 0
4, 4320, Note_on_c, 0, 54, 64
4, 4409, Note_on_c, 0, 54, 0
4, 4416, Note_on_c, 0, 59, 64
4, 4505, Note_on_c, 0, 59, 0
4, 4512, Note_on_c, 0, 47, 64
4, 4601, Note_on_c, 0, 47, 0
4, 4608, Note_on_c, 0, 52, 64
4, 4697, Note_on_c, 0, 52, 0
4, 4704, Note_on_c, 0, 64, 64
4, 4793, Note_on_c, 0, 64, 0
4, 4800, Note_on_c, 0, 63, 64
4, 4889, Note_on_c, 0, 63, 0
4, 4896, Note_on_c, 0, 49, 64
4, 4985, Note_on_c, 0, 49, 0
4, 4992, Note_on_c, 0, 61, 64
4, 5081, Note_on_c, 0, 61, 0
4, 5088, Note_on_c, 0, 59, 64
4, 5177, Note_on_c, 0, 59, 0
4, 5184, Note_on_c, 0, 46, 64
4, 5273, Note_on_c, 0, 46, 0
4, 5280, Note_on_c, 0, 58, 64
4, 5369, Note_on_c, 0, 58, 0
4, 5376, Note_on_c, 0, 56, 64
4, 5465, Note_on_c, 0, 56, 0
4, 5472, Note_on_c, 0, 55, 64
4, 5561, Note_on_c, 0, 55, 0
4, 5568, Note_on_c, 0, 51, 64
4, 5657, Note_on_c, 0, 51, 0
4, 5664, Note_on_c, 0, 55, 64
4, 5753, Note_on_c, 0, 55, 0
4, 5760, Note_on_c, 0, 44, 64
4, 5849, Note_on_c, 0, 44, 0
4, 5856, Note_on_c, 0, 56, 64
4, 5945, Note_on_c, 0, 56, 0
4, 5952, Note_on_c, 0, 54, 64
4, 6041, Note_on_c, 0, 54, 0
4, 6048, Note_on_c, 0, 41, 64
4, 6137, Note_on_c, 0, 41, 0
4, 6144, Note_on_c, 0, 53, 64
4, 6233, Note_on_c, 0, 53, 0
4, 6240, Note_on_c, 0, 51, 64
4, 6329, Note_on_c, 0, 51, 0
4, 6336, Note_on_c, 0, 37, 64
4, 6425, Note_on_c, 0, 37, 0
4, 6432, Note_on_c, 0, 49, 64
4, 6521, Note_on_c, 0, 49, 0
4, 6528, Note_on_c, 0, 47, 64
4, 6617, Note_on_c, 0, 47, 0
4, 6624, Note_on_c, 0, 45, 64
4, 6713, Note_on_c, 0, 45, 0
4, 6720, Note_on_c, 0, 44, 64
4, 6809, Note_on_c, 0, 44, 0
4, 6816, Note_on_c, 0, 49, 64
4, 6905, Note_on_c, 0, 49, 0
4, 6912, Note_on_c, 0, 42, 64
4, 7001, Note_on_c, 0, 42, 0
4, 7008, Note_on_c, 0, 54, 64
4, 7097, Note_on_c, 0, 54, 0
4, 7104, Note_on_c, 0, 52, 64
4, 7193, Note_on_c, 0, 52, 0
4, 7200, Note_on_c, 0, 39, 64
4, 7289, Note_on_c, 0, 39, 0
4, 7296, Note_on_c, 0, 51, 64
4, 7385, Note_on_c, 0, 51, 0
4, 7392, Note_on_c, 0, 49, 64
4, 7481, Note_on_c, 0, 49, 0
4, 7488, Note_on_c, 0, 47, 64
4, 7577, Note_on_c, 0, 47, 0
4, 7584, Note_on_c, 0, 59, 64
4, 7673, Note_on_c, 0, 59, 0
4, 7680, Note_on_c, 0, 57, 64
4, 7769, Note_on_c, 0, 57, 0
4, 7776, Note_on_c, 0, 56, 64
4, 7865, Note_on_c, 0, 56, 0
4, 7872, Note_on_c, 0, 54, 64
4, 7961, Note_on_c, 0, 54, 0
4, 7968, Note_on_c, 0, 59, 64
4, 8057, Note_on_c, 0, 59, 0
4, 8064, Note_on_c, 0, 52, 64
4, 8153, Note_on_c, 0, 52, 0
4, 8160, Note_on_c, 0, 64, 64
4, 8249, Note_on_c, 0, 64, 0
4, 8256, Note_on_c, 0, 63, 64
4, 8345, Note_on_c, 0, 63, 0
4, 8352, Note_on_c, 0, 49, 64
4, 8441, Note_on_c, 0, 49, 0
4, 8448, Note_on_c, 0, 61, 64
4, 8537, Note_on_c, 0, 61, 0
4, 8544, Note_on_c, 0, 59, 64
4, 8633, Note_on_c, 0, 59, 0
4, 8640, Note_on_c, 0, 46, 64
4, 8729, Note_on_c, 0, 46, 0
4, 8736, Note_on_c, 0, 58, 64
4, 8825, Note_on_c, 0, 58, 0
4, 8832, Note_on_c, 0, 56, 64
4, 8921, Note_on_c, 0, 56, 0
4, 8928, Note_on_c, 0, 55, 64
4, 9017, Note_on_c, 0, 55, 0
4, 9024, Note_on_c, 0, 51, 64
4, 9113, Note_on_c, 0, 51, 0
4, 9120, Note_on_c, 0, 55, 64
4, 9209, Note_on_c, 0, 55, 0
4, 9216, Note_on_c, 0, 44, 64
4, 9305, Note_on_c, 0, 44, 0
4, 9312, Note_on_c, 0, 56, 64
4, 9401, Note_on_c, 0, 56, 0
4, 9408, Note_on_c, 0, 54, 64
4, 9497, Note_on_c, 0, 54, 0
4, 9504, Note_on_c, 0, 40, 64
4, 9593, Note_on_c, 0, 40, 0
4, 9600, Note_on_c, 0, 52, 64
4, 9689, Note_on_c, 0, 52, 0
4, 9696, Note_on_c, 0, 51, 64
4, 9785, Note_on_c, 0, 51, 0
4, 9792, Note_on_c, 0, 37, 64
4, 9881, Note_on_c, 0, 37, 0
4, 9888, Note_on_c, 0, 49, 64
4, 9977, Note_on_c, 0, 49, 0
4, 9984, Note_on_c, 0, 47, 64
4, 10073, Note_on_c, 0, 47, 0
4, 10080, Note_on_c, 0, 46, 64
4, 10169, Note_on_c, 0, 46, 0
4, 10176, Note_on_c, 0, 51, 64
4, 10265, Note_on_c, 0, 51, 0
4, 10272, Note_on_c, 0, 39, 64
4, 10361, Note_on_c, 0, 39, 0
4, 10368, Note_on_c, 0, 44, 64
4, 10457, Note_on_c, 0, 44, 0
4, 10464, Note_on_c, 0, 56, 64
4, 10553, Note_on_c, 0, 56, 0
4, 10560, Note_on_c, 0, 54, 64
4, 10649, Note_on_c, 0, 54, 0
4, 10656, Note_on_c, 0, 40, 64
4, 10745, Note_on_c, 0, 40, 0
4, 10752, Note_on_c, 0, 52, 64
4, 10841, Note_on_c, 0, 52, 0
4, 10848, Note_on_c, 0, 51, 64
4, 10937, Note_on_c, 0, 51, 0
4, 10944, Note_on_c, 0, 37, 64
4, 11033, Note_on_c, 0, 37, 0
4, 11040, Note_on_c, 0, 49, 64
4, 11129, Note_on_c, 0, 49, 0
4, 11136, Note_on_c, 0, 47, 64
4, 11225, Note_on_c, 0, 47, 0
4, 11232, Note_on_c, 0, 46, 64
4, 11321, Note_on_c, 0, 46, 0
4, 11328, Note_on_c, 0, 42, 64
4, 11417, Note_on_c, 0, 42, 0
4, 11424, Note_on_c, 0, 46, 64
4, 11513, Note_on_c, 0, 46, 0
4, 11520, Note_on_c, 0, 47, 64
4, 11609, Note_on_c, 0, 47, 0
4, 11616, Note_on_c, 0, 59, 64
4, 11705, Note_on_c, 0, 59, 0
4, 11712, Note_on_c, 0, 58, 64
4, 11801, Note_on_c, 0, 58, 0
4, 11808, Note_on_c, 0, 44, 64
4, 11897, Note_on_c, 0, 44, 0
4, 11904, Note_on_c, 0, 56, 64
4, 11993, Note_on_c, 0, 56, 0
4, 12000, Note_on_c, 0, 54, 64
4, 12089, Note_on_c, 0, 54, 0
4, 12096, Note_on_c, 0, 40, 64
4, 12185, Note_on_c, 0, 40, 0
4, 12192, Note_on_c, 0, 52, 64
4, 12281, Note_on_c, 0, 52, 0
4, 12288, Note_on_c, 0, 51, 64
4, 12377, Note_on_c, 0, 51, 0
4, 12384, Note_on_c, 0, 49, 64
4, 12473, Note_on_c, 0, 49, 0
4, 12480, Note_on_c, 0, 54, 64
4, 12569, Note_on_c, 0, 54, 0
4, 12576, Note_on_c, 0, 42, 64
4, 12665, Note_on_c, 0, 42, 0
4, 12672, Note_on_c, 0, 47, 64
4, 12761, Note_on_c, 0, 47, 0
4, 12768, Note_on_c, 0, 59, 64
4, 12857, Note_on_c, 0, 59, 0
4, 12864, Note_on_c, 0, 57, 64
4, 12953, Note_on_c, 0, 57, 0
4, 12960, Note_on_c, 0, 44, 64
4, 13049, Note_on_c, 0, 44, 0
4, 13056, Note_on_c, 0, 56, 64
4, 13145, Note_on_c, 0, 56, 0
4, 13152, Note_on_c, 0, 54, 64
4, 13241, Note_on_c, 0, 54, 0
4, 13248, Note_on_c, 0, 41, 64
4, 13337, Note_on_c, 0, 41, 0
4, 13344, Note_on_c, 0, 53, 64
4, 13433, Note_on_c, 0, 53, 0
4, 13440, Note_on_c, 0, 51, 64
4, 13529, Note_on_c, 0, 51, 0
4, 13536, Note_on_c, 0, 49, 64
4, 13625, Note_on_c, 0, 49, 0
4, 13632, Note_on_c, 0, 51, 64
4, 13721, Note_on_c, 0, 51, 0
4, 13728, Note_on_c, 0, 53, 64
4, 13817, Note_on_c, 0, 53, 0
4, 13824, Note_on_c, 0, 42, 64
4, 13913, Note_on_c, 0, 42, 0
4, 13920, Note_on_c, 0, 54, 64
4, 14009, Note_on_c, 0, 54, 0
4, 14016, Note_on_c, 0, 52, 64
4, 14105, Note_on_c, 0, 52, 0
4, 14112, Note_on_c, 0, 39, 64
4, 14201, Note_on_c, 0, 39, 0
4, 14208, Note_on_c, 0, 51, 64
4, 14297, Note_on_c, 0, 51, 0
4, 14304, Note_on_c, 0, 49, 64
4, 14393, Note_on_c, 0, 49, 0
4, 14400, Note_on_c, 0, 36, 64
4, 14489, Note_on_c, 0, 36, 0
4, 14496, Note_on_c, 0, 48, 64
4, 14585, Note_on_c, 0, 48, 0
4, 14592, Note_on_c, 0, 46, 64
4, 14681, Note_on_c, 0, 46, 0
4, 14688, Note_on_c, 0, 44, 64
4, 14777, Note_on_c, 0, 44, 0
4, 14784, Note_on_c, 0, 46, 64
4, 14873, Note_on_c, 0, 46, 0
4, 14880, Note_on_c, 0, 48, 64
4, 14969, Note_on_c, 0, 48, 0
4, 14976, Note_on_c, 0, 37, 64
4, 15065, Note_on_c, 0, 37, 0
4, 15072, Note_on_c, 0, 49, 64
4, 15161, Note_on_c, 0, 49, 0
4, 15168, Note_on_c, 0, 47, 64
4, 15257, Note_on_c, 0, 47, 0
4, 15264, Note_on_c, 0, 45, 64
4, 15353, Note_on_c, 0, 45, 0
4, 15360, Note_on_c, 0, 57, 64
4, 15449, Note_on_c, 0, 57, 0
4, 15456, Note_on_c, 0, 56, 64
4, 15545, Note_on_c, 0, 56, 0
4, 15552, Note_on_c, 0, 42, 64
4, 15641, Note_on_c, 0, 42, 0
4, 15648, Note_on_c, 0, 54, 64
4, 15737, Note_on_c, 0, 54, 0
4, 15744, Note_on_c, 0, 52, 64
4, 15833, Note_on_c, 0, 52, 0
4, 15840, Note_on_c, 0, 51, 64
4, 15929, Note_on_c, 0, 51, 0
4, 15936, Note_on_c, 0, 56, 64
4, 16025, Note_on_c, 0, 56, 0
4, 16032, Note_on_c, 0, 44, 64
4, 16121, Note_on_c, 0, 44, 0
4, 16128, Note_on_c, 0, 49, 64
4, 16217, Note_on_c, 0, 49, 0
4, 16224, Note_on_c, 0, 61, 64
4, 16313, Note_on_c, 0, 61, 0
4, 16320, Note_on_c, 0, 59, 64
4, 16409, Note_on_c, 0, 59, 0
4, 16416, Note_on_c, 0, 45, 64
4, 16505, Note_on_c, 0, 45, 0
4, 16512, Note_on_c, 0, 57, 64
4, 16601, Note_on_c, 0, 57, 0
4, 16608, Note_on_c, 0, 56, 64
4, 16697, Note_on_c, 0, 56, 0
4, 16704, Note_on_c, 0, 42, 64
4, 16793, Note_on_c, 0, 42, 0
4, 16800, Note_on_c, 0, 54, 64
4, 16889, Note_on_c, 0, 54, 0
4, 16896, Note_on_c, 0, 52, 64
4, 16985, Note_on_c, 0, 52, 0
4, 16992, Note_on_c, 0, 39, 64
4, 17081, Note_on_c, 0, 39, 0
4, 17088, Note_on_c, 0, 51, 64
4, 17177, Note_on_c, 0, 51, 0
4, 17184, Note_on_c, 0, 49, 64
4, 17273, Note_on_c, 0, 49, 0
4, 17280, Note_on_c, 0, 48, 64
4, 17369, Note_on_c, 0, 48, 0
4, 17376, Note_on_c, 0, 44, 64
4, 17465, Note_on_c, 0, 44, 0
4, 17472, Note_on_c, 0, 48, 64
4, 17561, Note_on_c, 0, 48, 0
4, 17568, Note_on_c, 0, 49, 64
4, 17657, Note_on_c, 0, 49, 0
4, 17664, Note_on_c, 0, 56, 64
4, 17753, Note_on_c, 0, 56, 0
4, 17760, Note_on_c, 0, 44, 64
4, 17849, Note_on_c, 0, 44, 0
4, 17856, Note_on_c, 0, 49, 64
4, 18033, Note_on_c, 0, 49, 0
4, 18048, Note_on_c, 0, 47, 64
4, 18233, Note_on_c, 0, 47, 0
4, 18240, Note_on_c, 0, 45, 64
4, 18417, Note_on_c, 0, 45, 0
4, 18432, Note_on_c, 0, 44, 64
4, 18697, Note_on_c, 0, 44, 0
4, 18697, End_track
5, 0, Start_track
5, 0, MIDI_port, 0
5, 0, Title_t, "Sonata No. 3 en E mayor"
5, 0, End_track
6, 0, Start_track
6, 0, MIDI_port, 0
6, 0, Title_t, "para violin y clavicembalo"
6, 0, End_track
7, 0, Start_track
7, 0, MIDI_port, 0
7, 0, Title_t, "Tercer Movimiento: Adagio ma non tanto"
7, 0, End_track
8, 0, Start_track
8, 0, MIDI_port, 0
8, 0, Title_t, "J. S. Bach (1685-1750)"
8, 0, End_track
9, 0, Start_track
9, 0, MIDI_port, 0
9, 0, Title_t, "Copyright Luis Gerardo Barajas "
9, 0, End_track
10, 0, Start_track
10, 0, MIDI_port, 0
10, 0, Title_t, "*** Bach Keeps RuLiNg!!!"
10, 0, End_track
0, 0, End_of_file
