0, 0, Header, 1, 10, 96
1, 0, Start_track
1, 0, Sequencer_specific, 3, 0, 0, 65
1, 0, Time_signature, 4, 2, 24, 8
1, 0, Key_signature, 3, "major"
1, 0, Tempo, 1090909
1, 10488, Tempo, 1090909
1, 10552, Tempo, 1090909
1, 10592, Tempo, 1111111
1, 10624, Tempo, 1132075
1, 10656, Tempo, 1153846
1, 10688, Tempo, 1176471
1, 10720, Tempo, 1200000
1, 10752, Tempo, 1224490
1, 10784, Tempo, 1250000
1, 10816, Tempo, 1276596
1, 10848, Tempo, 1304348
1, 10888, Tempo, 1333333
1, 10920, Tempo, 1363636
1, 10952, Tempo, 1395349
1, 10984, Tempo, 1428571
1, 11016, Tempo, 1463415
1, 11032, Tempo, 759494
1, 11032, End_track
2, 0, Start_track
2, 0, MIDI_port, 0
2, 0, Title_t, "Violin"
2, 0, Program_c, 1, 40
2, 0, Control_c, 1, 7, 127
2, 48, Note_on_c, 1, 73, 64
2, 93, Note_on_c, 1, 73, 0
2, 96, Note_on_c, 1, 71, 64
2, 141, Note_on_c, 1, 71, 0
2, 144, Note_on_c, 1, 69, 64
2, 167, Note_on_c, 1, 69, 0
2, 168, Note_on_c, 1, 68, 64
2, 191, Note_on_c, 1, 68, 0
2, 192, Note_on_c, 1, 69, 64
2, 237, Note_on_c, 1, 69, 0
2, 240, Note_on_c, 1, 68, 64
2, 263, Note_on_c, 1, 68, 0
2, 264, Note_on_c, 1, 66, 64
2, 287, Note_on_c, 1, 66, 0
2, 288, Note_on_c, 1, 74, 64
2, 333, Note_on_c, 1, 74, 0
2, 336, Note_on_c, 1, 74, 64
2, 381, Note_on_c, 1, 74, 0
2, 384, Note_on_c, 1, 74, 64
2, 429, Note_on_c, 1, 74, 0
2, 432, Note_on_c, 1, 73, 64
2, 477, Note_on_c, 1, 73, 0
2, 480, Note_on_c, 1, 75, 64
2, 525, Note_on_c, 1, 75, 0
2, 528, Note_on_c, 1, 77, 64
2, 573, Note_on_c, 1, 77, 0
2, 576, Note_on_c, 1, 78, 64
2, 695, Note_on_c, 1, 78, 0
2, 696, Note_on_c, 1, 77, 64
2, 719, Note_on_c, 1, 77, 0
2, 720, Note_on_c, 1, 78, 64
2, 743, Note_on_c, 1, 78, 0
2, 744, Note_on_c, 1, 80, 64
2, 767, Note_on_c, 1, 80, 0
2, 768, Note_on_c, 1, 77, 64
2, 774, Note_on_c, 1, 77, 0
2, 774, Note_on_c, 1, 78, 64
2, 780, Note_on_c, 1, 78, 0
2, 780, Note_on_c, 1, 77, 64
2, 786, Note_on_c, 1, 77, 0
2, 786, Note_on_c, 1, 78, 64
2, 792, Note_on_c, 1, 78, 0
2, 792, Note_on_c, 1, 77, 64
2, 798, Note_on_c, 1, 77, 0
2, 798, Note_on_c, 1, 78, 64
2, 804, Note_on_c, 1, 78, 0
2, 804, Note_on_c, 1, 77, 64
2, 810, Note_on_c, 1, 77, 0
2, 810, Note_on_c, 1, 78, 64
2, 816, Note_on_c, 1, 78, 0
2, 816, Note_on_c, 1, 77, 64
2, 822, Note_on_c, 1, 77, 0
2, 822, Note_on_c, 1, 78, 64
2, 828, Note_on_c, 1, 78, 0
2, 828, Note_on_c, 1, 77, 64
2, 834, Note_on_c, 1, 77, 0
2, 834, Note_on_c, 1, 78, 64
2, 840, Note_on_c, 1, 78, 0
2, 840, Note_on_c, 1, 77, 64
2, 846, Note_on_c, 1, 77, 0
2, 846, Note_on_c, 1, 78, 64
2, 852, Note_on_c, 1, 78, 0
2, 852, Note_on_c, 1, 77, 64
2, 858, Note_on_c, 1, 77, 0
2, 858, Note_on_c, 1, 78, 64
2, 864, Note_on_c, 1, 78, 0
2, 864, Note_on_c, 1, 78, 64
2, 909, Note_on_c, 1, 78, 0
2, 912, Note_on_c, 1, 80, 64
2, 957, Note_on_c, 1, 80, 0
2, 960, Note_on_c, 1, 81, 64
2, 1027, Note_on_c, 1, 81, 0
2, 1032, Note_on_c, 1, 83, 64
2, 1055, Note_on_c, 1, 83, 0
2, 1056, Note_on_c, 1, 83, 64
2, 1123, Note_on_c, 1, 83, 0
2, 1128, Note_on_c, 1, 85, 64
2, 1151, Note_on_c, 1, 85, 0
2, 1152, Note_on_c, 1, 85, 64
2, 1241, Note_on_c, 1, 85, 0
2, 1440, Note_on_c, 1, 76, 64
2, 1581, Note_on_c, 1, 76, 0
2, 1584, Note_on_c, 1, 81, 64
2, 1607, Note_on_c, 1, 81, 0
2, 1608, Note_on_c, 1, 80, 64
2, 1631, Note_on_c, 1, 80, 0
2, 1632, Note_on_c, 1, 81, 64
2, 1677, Note_on_c, 1, 81, 0
2, 1680, Note_on_c, 1, 78, 64
2, 1725, Note_on_c, 1, 78, 0
2, 1728, Note_on_c, 1, 74, 64
2, 1795, Note_on_c, 1, 74, 0
2, 1800, Note_on_c, 1, 76, 64
2, 1823, Note_on_c, 1, 76, 0
2, 1824, Note_on_c, 1, 73, 64
2, 1891, Note_on_c, 1, 73, 0
2, 1896, Note_on_c, 1, 71, 64
2, 1919, Note_on_c, 1, 71, 0
2, 1920, Note_on_c, 1, 71, 64
2, 1965, Note_on_c, 1, 71, 0
2, 1968, Note_on_c, 1, 73, 64
2, 1991, Note_on_c, 1, 73, 0
2, 1992, Note_on_c, 1, 74, 64
2, 2015, Note_on_c, 1, 74, 0
2, 2016, Note_on_c, 1, 73, 64
2, 2039, Note_on_c, 1, 73, 0
2, 2040, Note_on_c, 1, 71, 64
2, 2063, Note_on_c, 1, 71, 0
2, 2064, Note_on_c, 1, 69, 64
2, 2087, Note_on_c, 1, 69, 0
2, 2088, Note_on_c, 1, 68, 64
2, 2111, Note_on_c, 1, 68, 0
2, 2112, Note_on_c, 1, 66, 64
2, 2157, Note_on_c, 1, 66, 0
2, 2160, Note_on_c, 1, 68, 64
2, 2205, Note_on_c, 1, 68, 0
2, 2208, Note_on_c, 1, 69, 64
2, 2231, Note_on_c, 1, 69, 0
2, 2232, Note_on_c, 1, 68, 64
2, 2255, Note_on_c, 1, 68, 0
2, 2256, Note_on_c, 1, 69, 64
2, 2279, Note_on_c, 1, 69, 0
2, 2280, Note_on_c, 1, 71, 64
2, 2303, Note_on_c, 1, 71, 0
2, 2304, Note_on_c, 1, 68, 64
2, 2327, Note_on_c, 1, 68, 0
2, 2328, Note_on_c, 1, 66, 64
2, 2351, Note_on_c, 1, 66, 0
2, 2352, Note_on_c, 1, 64, 64
2, 2397, Note_on_c, 1, 64, 0
2, 2448, Note_on_c, 1, 73, 64
2, 2541, Note_on_c, 1, 73, 0
2, 2544, Note_on_c, 1, 76, 64
2, 2567, Note_on_c, 1, 76, 0
2, 2568, Note_on_c, 1, 75, 64
2, 2591, Note_on_c, 1, 75, 0
2, 2592, Note_on_c, 1, 75, 64
2, 2733, Note_on_c, 1, 75, 0
2, 2736, Note_on_c, 1, 76, 64
2, 2759, Note_on_c, 1, 76, 0
2, 2760, Note_on_c, 1, 78, 64
2, 2783, Note_on_c, 1, 78, 0
2, 2784, Note_on_c, 1, 76, 64
2, 2808, Note_on_c, 1, 76, 0
2, 2808, Note_on_c, 1, 75, 64
2, 2831, Note_on_c, 1, 75, 0
2, 2832, Note_on_c, 1, 76, 64
2, 2856, Note_on_c, 1, 76, 0
2, 2856, Note_on_c, 1, 73, 64
2, 2879, Note_on_c, 1, 73, 0
2, 2880, Note_on_c, 1, 81, 64
2, 2999, Note_on_c, 1, 81, 0
2, 3000, Note_on_c, 1, 75, 64
2, 3023, Note_on_c, 1, 75, 0
2, 3024, Note_on_c, 1, 76, 64
2, 3047, Note_on_c, 1, 76, 0
2, 3048, Note_on_c, 1, 78, 64
2, 3071, Note_on_c, 1, 78, 0
2, 3072, Note_on_c, 1, 72, 64
2, 3117, Note_on_c, 1, 72, 0
2, 3120, Note_on_c, 1, 70, 64
2, 3143, Note_on_c, 1, 70, 0
2, 3144, Note_on_c, 1, 68, 64
2, 3167, Note_on_c, 1, 68, 0
2, 3216, Note_on_c, 1, 80, 64
2, 3287, Note_on_c, 1, 80, 0
2, 3288, Note_on_c, 1, 76, 64
2, 3311, Note_on_c, 1, 76, 0
2, 3312, Note_on_c, 1, 75, 64
2, 3335, Note_on_c, 1, 75, 0
2, 3336, Note_on_c, 1, 73, 64
2, 3359, Note_on_c, 1, 73, 0
2, 3360, Note_on_c, 1, 78, 64
2, 3479, Note_on_c, 1, 78, 0
2, 3480, Note_on_c, 1, 72, 64
2, 3503, Note_on_c, 1, 72, 0
2, 3504, Note_on_c, 1, 73, 64
2, 3527, Note_on_c, 1, 73, 0
2, 3528, Note_on_c, 1, 75, 64
2, 3551, Note_on_c, 1, 75, 0
2, 3552, Note_on_c, 1, 76, 64
2, 3576, Note_on_c, 1, 76, 0
2, 3576, Note_on_c, 1, 75, 64
2, 3599, Note_on_c, 1, 75, 0
2, 3600, Note_on_c, 1, 78, 64
2, 3624, Note_on_c, 1, 78, 0
2, 3624, Note_on_c, 1, 76, 64
2, 3647, Note_on_c, 1, 76, 0
2, 3648, Note_on_c, 1, 75, 64
2, 3672, Note_on_c, 1, 75, 0
2, 3672, Note_on_c, 1, 73, 64
2, 3695, Note_on_c, 1, 73, 0
2, 3696, Note_on_c, 1, 72, 64
2, 3720, Note_on_c, 1, 72, 0
2, 3720, Note_on_c, 1, 73, 64
2, 3743, Note_on_c, 1, 73, 0
2, 3744, Note_on_c, 1, 72, 64
2, 3811, Note_on_c, 1, 72, 0
2, 3816, Note_on_c, 1, 73, 64
2, 3839, Note_on_c, 1, 73, 0
2, 3840, Note_on_c, 1, 73, 64
2, 3929, Note_on_c, 1, 73, 0
2, 4080, Note_on_c, 1, 68, 64
2, 4125, Note_on_c, 1, 68, 0
2, 4128, Note_on_c, 1, 66, 64
2, 4173, Note_on_c, 1, 66, 0
2, 4176, Note_on_c, 1, 64, 64
2, 4199, Note_on_c, 1, 64, 0
2, 4200, Note_on_c, 1, 63, 64
2, 4223, Note_on_c, 1, 63, 0
2, 4224, Note_on_c, 1, 64, 64
2, 4269, Note_on_c, 1, 64, 0
2, 4272, Note_on_c, 1, 63, 64
2, 4295, Note_on_c, 1, 63, 0
2, 4296, Note_on_c, 1, 61, 64
2, 4319, Note_on_c, 1, 61, 0
2, 4320, Note_on_c, 1, 69, 64
2, 4365, Note_on_c, 1, 69, 0
2, 4368, Note_on_c, 1, 69, 64
2, 4413, Note_on_c, 1, 69, 0
2, 4416, Note_on_c, 1, 69, 64
2, 4461, Note_on_c, 1, 69, 0
2, 4464, Note_on_c, 1, 68, 64
2, 4509, Note_on_c, 1, 68, 0
2, 4512, Note_on_c, 1, 70, 64
2, 4557, Note_on_c, 1, 70, 0
2, 4560, Note_on_c, 1, 72, 64
2, 4605, Note_on_c, 1, 72, 0
2, 4608, Note_on_c, 1, 73, 64
2, 4727, Note_on_c, 1, 73, 0
2, 4728, Note_on_c, 1, 72, 64
2, 4751, Note_on_c, 1, 72, 0
2, 4752, Note_on_c, 1, 73, 64
2, 4775, Note_on_c, 1, 73, 0
2, 4776, Note_on_c, 1, 75, 64
2, 4799, Note_on_c, 1, 75, 0
2, 4800, Note_on_c, 1, 72, 64
2, 4806, Note_on_c, 1, 72, 0
2, 4806, Note_on_c, 1, 73, 64
2, 4812, Note_on_c, 1, 73, 0
2, 4812, Note_on_c, 1, 72, 64
2, 4818, Note_on_c, 1, 72, 0
2, 4818, Note_on_c, 1, 73, 64
2, 4824, Note_on_c, 1, 73, 0
2, 4824, Note_on_c, 1, 72, 64
2, 4830, Note_on_c, 1, 72, 0
2, 4830, Note_on_c, 1, 73, 64
2, 4836, Note_on_c, 1, 73, 0
2, 4836, Note_on_c, 1, 72, 64
2, 4842, Note_on_c, 1, 72, 0
2, 4842, Note_on_c, 1, 73, 64
2, 4848, Note_on_c, 1, 73, 0
2, 4848, Note_on_c, 1, 72, 64
2, 4854, Note_on_c, 1, 72, 0
2, 4854, Note_on_c, 1, 73, 64
2, 4860, Note_on_c, 1, 73, 0
2, 4860, Note_on_c, 1, 72, 64
2, 4866, Note_on_c, 1, 72, 0
2, 4866, Note_on_c, 1, 73, 64
2, 4872, Note_on_c, 1, 73, 0
2, 4872, Note_on_c, 1, 72, 64
2, 4878, Note_on_c, 1, 72, 0
2, 4878, Note_on_c, 1, 73, 64
2, 4884, Note_on_c, 1, 73, 0
2, 4884, Note_on_c, 1, 72, 64
2, 4890, Note_on_c, 1, 72, 0
2, 4890, Note_on_c, 1, 73, 64
2, 4896, Note_on_c, 1, 73, 0
2, 4896, Note_on_c, 1, 73, 64
2, 4941, Note_on_c, 1, 73, 0
2, 4944, Note_on_c, 1, 75, 64
2, 4989, Note_on_c, 1, 75, 0
2, 4992, Note_on_c, 1, 76, 64
2, 5059, Note_on_c, 1, 76, 0
2, 5064, Note_on_c, 1, 78, 64
2, 5087, Note_on_c, 1, 78, 0
2, 5088, Note_on_c, 1, 78, 64
2, 5155, Note_on_c, 1, 78, 0
2, 5160, Note_on_c, 1, 80, 64
2, 5183, Note_on_c, 1, 80, 0
2, 5184, Note_on_c, 1, 80, 64
2, 5273, Note_on_c, 1, 80, 0
2, 5472, Note_on_c, 1, 71, 64
2, 5613, Note_on_c, 1, 71, 0
2, 5616, Note_on_c, 1, 76, 64
2, 5639, Note_on_c, 1, 76, 0
2, 5640, Note_on_c, 1, 75, 64
2, 5663, Note_on_c, 1, 75, 0
2, 5664, Note_on_c, 1, 76, 64
2, 5709, Note_on_c, 1, 76, 0
2, 5712, Note_on_c, 1, 73, 64
2, 5757, Note_on_c, 1, 73, 0
2, 5760, Note_on_c, 1, 69, 64
2, 5827, Note_on_c, 1, 69, 0
2, 5832, Note_on_c, 1, 71, 64
2, 5855, Note_on_c, 1, 71, 0
2, 5856, Note_on_c, 1, 68, 64
2, 5923, Note_on_c, 1, 68, 0
2, 5928, Note_on_c, 1, 66, 64
2, 5951, Note_on_c, 1, 66, 0
2, 5952, Note_on_c, 1, 66, 64
2, 6041, Note_on_c, 1, 66, 0
2, 6240, Note_on_c, 1, 76, 64
2, 6381, Note_on_c, 1, 76, 0
2, 6384, Note_on_c, 1, 78, 64
2, 6408, Note_on_c, 1, 78, 0
2, 6408, Note_on_c, 1, 79, 64
2, 6431, Note_on_c, 1, 79, 0
2, 6432, Note_on_c, 1, 78, 64
2, 6456, Note_on_c, 1, 78, 0
2, 6456, Note_on_c, 1, 76, 64
2, 6479, Note_on_c, 1, 76, 0
2, 6480, Note_on_c, 1, 74, 64
2, 6504, Note_on_c, 1, 74, 0
2, 6504, Note_on_c, 1, 73, 64
2, 6527, Note_on_c, 1, 73, 0
2, 6528, Note_on_c, 1, 74, 64
2, 6573, Note_on_c, 1, 74, 0
2, 6576, Note_on_c, 1, 71, 64
2, 6621, Note_on_c, 1, 71, 0
2, 6624, Note_on_c, 1, 68, 64
2, 6669, Note_on_c, 1, 68, 0
2, 6672, Note_on_c, 1, 76, 64
2, 6696, Note_on_c, 1, 76, 0
2, 6696, Note_on_c, 1, 73, 64
2, 6719, Note_on_c, 1, 73, 0
2, 6720, Note_on_c, 1, 70, 64
2, 6765, Note_on_c, 1, 70, 0
2, 6768, Note_on_c, 1, 66, 64
2, 6813, Note_on_c, 1, 66, 0
2, 7008, Note_on_c, 1, 73, 64
2, 7149, Note_on_c, 1, 73, 0
2, 7152, Note_on_c, 1, 78, 64
2, 7175, Note_on_c, 1, 78, 0
2, 7176, Note_on_c, 1, 77, 64
2, 7199, Note_on_c, 1, 77, 0
2, 7200, Note_on_c, 1, 78, 64
2, 7245, Note_on_c, 1, 78, 0
2, 7248, Note_on_c, 1, 74, 64
2, 7293, Note_on_c, 1, 74, 0
2, 7296, Note_on_c, 1, 71, 64
2, 7363, Note_on_c, 1, 71, 0
2, 7368, Note_on_c, 1, 73, 64
2, 7391, Note_on_c, 1, 73, 0
2, 7392, Note_on_c, 1, 69, 64
2, 7459, Note_on_c, 1, 69, 0
2, 7464, Note_on_c, 1, 68, 64
2, 7487, Note_on_c, 1, 68, 0
2, 7488, Note_on_c, 1, 68, 64
2, 7577, Note_on_c, 1, 68, 0
2, 7824, Note_on_c, 1, 66, 64
2, 7917, Note_on_c, 1, 66, 0
2, 7920, Note_on_c, 1, 69, 64
2, 7944, Note_on_c, 1, 69, 0
2, 7944, Note_on_c, 1, 68, 64
2, 7967, Note_on_c, 1, 68, 0
2, 7968, Note_on_c, 1, 68, 64
2, 8109, Note_on_c, 1, 68, 0
2, 8112, Note_on_c, 1, 69, 64
2, 8135, Note_on_c, 1, 69, 0
2, 8136, Note_on_c, 1, 71, 64
2, 8159, Note_on_c, 1, 71, 0
2, 8160, Note_on_c, 1, 69, 64
2, 8183, Note_on_c, 1, 69, 0
2, 8184, Note_on_c, 1, 68, 64
2, 8207, Note_on_c, 1, 68, 0
2, 8208, Note_on_c, 1, 69, 64
2, 8231, Note_on_c, 1, 69, 0
2, 8232, Note_on_c, 1, 66, 64
2, 8255, Note_on_c, 1, 66, 0
2, 8256, Note_on_c, 1, 74, 64
2, 8375, Note_on_c, 1, 74, 0
2, 8376, Note_on_c, 1, 68, 64
2, 8399, Note_on_c, 1, 68, 0
2, 8400, Note_on_c, 1, 69, 64
2, 8423, Note_on_c, 1, 69, 0
2, 8424, Note_on_c, 1, 71, 64
2, 8447, Note_on_c, 1, 71, 0
2, 8448, Note_on_c, 1, 65, 64
2, 8493, Note_on_c, 1, 65, 0
2, 8496, Note_on_c, 1, 63, 64
2, 8519, Note_on_c, 1, 63, 0
2, 8520, Note_on_c, 1, 61, 64
2, 8543, Note_on_c, 1, 61, 0
2, 8592, Note_on_c, 1, 73, 64
2, 8663, Note_on_c, 1, 73, 0
2, 8664, Note_on_c, 1, 69, 64
2, 8687, Note_on_c, 1, 69, 0
2, 8688, Note_on_c, 1, 68, 64
2, 8711, Note_on_c, 1, 68, 0
2, 8712, Note_on_c, 1, 66, 64
2, 8735, Note_on_c, 1, 66, 0
2, 8736, Note_on_c, 1, 71, 64
2, 8855, Note_on_c, 1, 71, 0
2, 8856, Note_on_c, 1, 65, 64
2, 8879, Note_on_c, 1, 65, 0
2, 8880, Note_on_c, 1, 66, 64
2, 8903, Note_on_c, 1, 66, 0
2, 8904, Note_on_c, 1, 68, 64
2, 8927, Note_on_c, 1, 68, 0
2, 8928, Note_on_c, 1, 69, 64
2, 8952, Note_on_c, 1, 69, 0
2, 8952, Note_on_c, 1, 68, 64
2, 8975, Note_on_c, 1, 68, 0
2, 8976, Note_on_c, 1, 71, 64
2, 9000, Note_on_c, 1, 71, 0
2, 9000, Note_on_c, 1, 69, 64
2, 9023, Note_on_c, 1, 69, 0
2, 9024, Note_on_c, 1, 68, 64
2, 9047, Note_on_c, 1, 68, 0
2, 9048, Note_on_c, 1, 66, 64
2, 9071, Note_on_c, 1, 66, 0
2, 9072, Note_on_c, 1, 65, 64
2, 9095, Note_on_c, 1, 65, 0
2, 9096, Note_on_c, 1, 66, 64
2, 9119, Note_on_c, 1, 66, 0
2, 9120, Note_on_c, 1, 65, 64
2, 9187, Note_on_c, 1, 65, 0
2, 9192, Note_on_c, 1, 66, 64
2, 9215, Note_on_c, 1, 66, 0
2, 9216, Note_on_c, 1, 66, 64
2, 9305, Note_on_c, 1, 66, 0
2, 9456, Note_on_c, 1, 73, 64
2, 9501, Note_on_c, 1, 73, 0
2, 9504, Note_on_c, 1, 71, 64
2, 9549, Note_on_c, 1, 71, 0
2, 9552, Note_on_c, 1, 69, 64
2, 9575, Note_on_c, 1, 69, 0
2, 9576, Note_on_c, 1, 68, 64
2, 9599, Note_on_c, 1, 68, 0
2, 9600, Note_on_c, 1, 69, 64
2, 9645, Note_on_c, 1, 69, 0
2, 9648, Note_on_c, 1, 68, 64
2, 9671, Note_on_c, 1, 68, 0
2, 9672, Note_on_c, 1, 66, 64
2, 9695, Note_on_c, 1, 66, 0
2, 9696, Note_on_c, 1, 74, 64
2, 9741, Note_on_c, 1, 74, 0
2, 9744, Note_on_c, 1, 74, 64
2, 9789, Note_on_c, 1, 74, 0
2, 9792, Note_on_c, 1, 74, 64
2, 9837, Note_on_c, 1, 74, 0
2, 9840, Note_on_c, 1, 73, 64
2, 9885, Note_on_c, 1, 73, 0
2, 9888, Note_on_c, 1, 75, 64
2, 9933, Note_on_c, 1, 75, 0
2, 9936, Note_on_c, 1, 77, 64
2, 9981, Note_on_c, 1, 77, 0
2, 9984, Note_on_c, 1, 78, 64
2, 10103, Note_on_c, 1, 78, 0
2, 10104, Note_on_c, 1, 77, 64
2, 10127, Note_on_c, 1, 77, 0
2, 10128, Note_on_c, 1, 78, 64
2, 10151, Note_on_c, 1, 78, 0
2, 10152, Note_on_c, 1, 80, 64
2, 10175, Note_on_c, 1, 80, 0
2, 10176, Note_on_c, 1, 77, 64
2, 10182, Note_on_c, 1, 77, 0
2, 10182, Note_on_c, 1, 78, 64
2, 10188, Note_on_c, 1, 78, 0
2, 10188, Note_on_c, 1, 77, 64
2, 10194, Note_on_c, 1, 77, 0
2, 10194, Note_on_c, 1, 78, 64
2, 10200, Note_on_c, 1, 78, 0
2, 10200, Note_on_c, 1, 77, 64
2, 10206, Note_on_c, 1, 77, 0
2, 10206, Note_on_c, 1, 78, 64
2, 10212, Note_on_c, 1, 78, 0
2, 10212, Note_on_c, 1, 77, 64
2, 10218, Note_on_c, 1, 77, 0
2, 10218, Note_on_c, 1, 78, 64
2, 10224, Note_on_c, 1, 78, 0
2, 10224, Note_on_c, 1, 77, 64
2, 10230, Note_on_c, 1, 77, 0
2, 10230, Note_on_c, 1, 78, 64
2, 10236, Note_on_c, 1, 78, 0
2, 10236, Note_on_c, 1, 77, 64
2, 10242, Note_on_c, 1, 77, 0
2, 10242, Note_on_c, 1, 78, 64
2, 10248, Note_on_c, 1, 78, 0
2, 10248, Note_on_c, 1, 77, 64
2, 10254, Note_on_c, 1, 77, 0
2, 10254, Note_on_c, 1, 78, 64
2, 10260, Note_on_c, 1, 78, 0
2, 10260, Note_on_c, 1, 77, 64
2, 10266, Note_on_c, 1, 77, 0
2, 10266, Note_on_c, 1, 78, 64
2, 10272, Note_on_c, 1, 78, 0
2, 10272, Note_on_c, 1, 78, 64
2, 10317, Note_on_c, 1, 78, 0
2, 10320, Note_on_c, 1, 80, 64
2, 10365, Note_on_c, 1, 80, 0
2, 10368, Note_on_c, 1, 81, 64
2, 10435, Note_on_c, 1, 81, 0
2, 10440, Note_on_c, 1, 83, 64
2, 10463, Note_on_c, 1, 83, 0
2, 10464, Note_on_c, 1, 83, 64
2, 10531, Note_on_c, 1, 83, 0
2, 10536, Note_on_c, 1, 85, 64
2, 10559, Note_on_c, 1, 85, 0
2, 10560, Note_on_c, 1, 85, 64
2, 10775, Note_on_c, 1, 85, 0
2, 10776, Note_on_c, 1, 80, 64
2, 10799, Note_on_c, 1, 80, 0
2, 10800, Note_on_c, 1, 81, 64
2, 10823, Note_on_c, 1, 81, 0
2, 10824, Note_on_c, 1, 77, 64
2, 10847, Note_on_c, 1, 77, 0
2, 10848, Note_on_c, 1, 78, 64
2, 10871, Note_on_c, 1, 78, 0
2, 10872, Note_on_c, 1, 81, 64
2, 10895, Note_on_c, 1, 81, 0
2, 10896, Note_on_c, 1, 80, 64
2, 10919, Note_on_c, 1, 80, 0
2, 10920, Note_on_c, 1, 81, 64
2, 10932, Note_on_c, 1, 81, 0
2, 10932, Note_on_c, 1, 78, 64
2, 10944, Note_on_c, 1, 78, 0
2, 10944, Note_on_c, 1, 77, 64
2, 11121, Note_on_c, 1, 77, 0
2, 11121, End_track
3, 0, Start_track
3, 0, MIDI_port, 0
3, 0, Title_t, "Clavier (RH)"
3, 0, Program_c, 0, 6
3, 0, Control_c, 0, 7, 127
3, 432, Note_on_c, 0, 73, 64
3, 477, Note_on_c, 0, 73, 0
3, 480, Note_on_c, 0, 71, 64
3, 525, Note_on_c, 0, 71, 0
3, 528, Note_on_c, 0, 69, 64
3, 551, Note_on_c, 0, 69, 0
3, 552, Note_on_c, 0, 68, 64
3, 575, Note_on_c, 0, 68, 0
3, 576, Note_on_c, 0, 69, 64
3, 621, Note_on_c, 0, 69, 0
3, 624, Note_on_c, 0, 68, 64
3, 647, Note_on_c, 0, 68, 0
3, 648, Note_on_c, 0, 66, 64
3, 671, Note_on_c, 0, 66, 0
3, 672, Note_on_c, 0, 74, 64
3, 717, Note_on_c, 0, 74, 0
3, 720, Note_on_c, 0, 74, 64
3, 765, Note_on_c, 0, 74, 0
3, 768, Note_on_c, 0, 74, 64
3, 813, Note_on_c, 0, 74, 0
3, 816, Note_on_c, 0, 73, 64
3, 861, Note_on_c, 0, 73, 0
3, 864, Note_on_c, 0, 75, 64
3, 909, Note_on_c, 0, 75, 0
3, 912, Note_on_c, 0, 77, 64
3, 957, Note_on_c, 0, 77, 0
3, 960, Note_on_c, 0, 78, 64
3, 1079, Note_on_c, 0, 78, 0
3, 1080, Note_on_c, 0, 77, 64
3, 1103, Note_on_c, 0, 77, 0
3, 1104, Note_on_c, 0, 78, 64
3, 1127, Note_on_c, 0, 78, 0
3, 1128, Note_on_c, 0, 80, 64
3, 1151, Note_on_c, 0, 80, 0
3, 1152, Note_on_c, 0, 77, 64
3, 1158, Note_on_c, 0, 77, 0
3, 1158, Note_on_c, 0, 78, 64
3, 1164, Note_on_c, 0, 78, 0
3, 1164, Note_on_c, 0, 77, 64
3, 1170, Note_on_c, 0, 77, 0
3, 1170, Note_on_c, 0, 78, 64
3, 1176, Note_on_c, 0, 78, 0
3, 1176, Note_on_c, 0, 77, 64
3, 1182, Note_on_c, 0, 77, 0
3, 1182, Note_on_c, 0, 78, 64
3, 1188, Note_on_c, 0, 78, 0
3, 1188, Note_on_c, 0, 77, 64
3, 1194, Note_on_c, 0, 77, 0
3, 1194, Note_on_c, 0, 78, 64
3, 1200, Note_on_c, 0, 78, 0
3, 1200, Note_on_c, 0, 77, 64
3, 1206, Note_on_c, 0, 77, 0
3, 1206, Note_on_c, 0, 78, 64
3, 1212, Note_on_c, 0, 78, 0
3, 1212, Note_on_c, 0, 77, 64
3, 1218, Note_on_c, 0, 77, 0
3, 1218, Note_on_c, 0, 78, 64
3, 1224, Note_on_c, 0, 78, 0
3, 1224, Note_on_c, 0, 77, 64
3, 1230, Note_on_c, 0, 77, 0
3, 1230, Note_on_c, 0, 78, 64
3, 1236, Note_on_c, 0, 78, 0
3, 1236, Note_on_c, 0, 77, 64
3, 1242, Note_on_c, 0, 77, 0
3, 1242, Note_on_c, 0, 78, 64
3, 1248, Note_on_c, 0, 78, 0
3, 1248, Note_on_c, 0, 78, 64
3, 1293, Note_on_c, 0, 78, 0
3, 1296, Note_on_c, 0, 80, 64
3, 1341, Note_on_c, 0, 80, 0
3, 1344, Note_on_c, 0, 81, 64
3, 1411, Note_on_c, 0, 81, 0
3, 1416, Note_on_c, 0, 83, 64
3, 1439, Note_on_c, 0, 83, 0
3, 1440, Note_on_c, 0, 83, 64
3, 1507, Note_on_c, 0, 83, 0
3, 1512, Note_on_c, 0, 85, 64
3, 1535, Note_on_c, 0, 85, 0
3, 1536, Note_on_c, 0, 85, 64
3, 1625, Note_on_c, 0, 85, 0
3, 1824, Note_on_c, 0, 76, 64
3, 1965, Note_on_c, 0, 76, 0
3, 1968, Note_on_c, 0, 81, 64
3, 1991, Note_on_c, 0, 81, 0
3, 1992, Note_on_c, 0, 80, 64
3, 2015, Note_on_c, 0, 80, 0
3, 2016, Note_on_c, 0, 81, 64
3, 2061, Note_on_c, 0, 81, 0
3, 2064, Note_on_c, 0, 78, 64
3, 2109, Note_on_c, 0, 78, 0
3, 2112, Note_on_c, 0, 74, 64
3, 2179, Note_on_c, 0, 74, 0
3, 2184, Note_on_c, 0, 76, 64
3, 2207, Note_on_c, 0, 76, 0
3, 2208, Note_on_c, 0, 73, 64
3, 2275, Note_on_c, 0, 73, 0
3, 2280, Note_on_c, 0, 71, 64
3, 2303, Note_on_c, 0, 71, 0
3, 2304, Note_on_c, 0, 71, 64
3, 2349, Note_on_c, 0, 71, 0
3, 2352, Note_on_c, 0, 73, 64
3, 2375, Note_on_c, 0, 73, 0
3, 2376, Note_on_c, 0, 74, 64
3, 2399, Note_on_c, 0, 74, 0
3, 2400, Note_on_c, 0, 73, 64
3, 2423, Note_on_c, 0, 73, 0
3, 2424, Note_on_c, 0, 71, 64
3, 2447, Note_on_c, 0, 71, 0
3, 2448, Note_on_c, 0, 69, 64
3, 2471, Note_on_c, 0, 69, 0
3, 2472, Note_on_c, 0, 68, 64
3, 2495, Note_on_c, 0, 68, 0
3, 2496, Note_on_c, 0, 66, 64
3, 2541, Note_on_c, 0, 66, 0
3, 2544, Note_on_c, 0, 68, 64
3, 2589, Note_on_c, 0, 68, 0
3, 2592, Note_on_c, 0, 69, 64
3, 2615, Note_on_c, 0, 69, 0
3, 2616, Note_on_c, 0, 68, 64
3, 2639, Note_on_c, 0, 68, 0
3, 2640, Note_on_c, 0, 69, 64
3, 2663, Note_on_c, 0, 69, 0
3, 2664, Note_on_c, 0, 71, 64
3, 2687, Note_on_c, 0, 71, 0
3, 2688, Note_on_c, 0, 68, 64
3, 2711, Note_on_c, 0, 68, 0
3, 2712, Note_on_c, 0, 66, 64
3, 2735, Note_on_c, 0, 66, 0
3, 2736, Note_on_c, 0, 64, 64
3, 2781, Note_on_c, 0, 64, 0
3, 2832, Note_on_c, 0, 73, 64
3, 2925, Note_on_c, 0, 73, 0
3, 2928, Note_on_c, 0, 76, 64
3, 2951, Note_on_c, 0, 76, 0
3, 2952, Note_on_c, 0, 75, 64
3, 2975, Note_on_c, 0, 75, 0
3, 2976, Note_on_c, 0, 75, 64
3, 3117, Note_on_c, 0, 75, 0
3, 3120, Note_on_c, 0, 76, 64
3, 3143, Note_on_c, 0, 76, 0
3, 3144, Note_on_c, 0, 78, 64
3, 3167, Note_on_c, 0, 78, 0
3, 3168, Note_on_c, 0, 76, 64
3, 3191, Note_on_c, 0, 76, 0
3, 3192, Note_on_c, 0, 75, 64
3, 3215, Note_on_c, 0, 75, 0
3, 3216, Note_on_c, 0, 76, 64
3, 3239, Note_on_c, 0, 76, 0
3, 3240, Note_on_c, 0, 73, 64
3, 3263, Note_on_c, 0, 73, 0
3, 3264, Note_on_c, 0, 81, 64
3, 3383, Note_on_c, 0, 81, 0
3, 3384, Note_on_c, 0, 75, 64
3, 3407, Note_on_c, 0, 75, 0
3, 3408, Note_on_c, 0, 76, 64
3, 3431, Note_on_c, 0, 76, 0
3, 3432, Note_on_c, 0, 78, 64
3, 3455, Note_on_c, 0, 78, 0
3, 3456, Note_on_c, 0, 72, 64
3, 3501, Note_on_c, 0, 72, 0
3, 3504, Note_on_c, 0, 70, 64
3, 3527, Note_on_c, 0, 70, 0
3, 3528, Note_on_c, 0, 68, 64
3, 3551, Note_on_c, 0, 68, 0
3, 3600, Note_on_c, 0, 80, 64
3, 3671, Note_on_c, 0, 80, 0
3, 3672, Note_on_c, 0, 76, 64
3, 3695, Note_on_c, 0, 76, 0
3, 3696, Note_on_c, 0, 75, 64
3, 3719, Note_on_c, 0, 75, 0
3, 3720, Note_on_c, 0, 73, 64
3, 3743, Note_on_c, 0, 73, 0
3, 3744, Note_on_c, 0, 78, 64
3, 3863, Note_on_c, 0, 78, 0
3, 3864, Note_on_c, 0, 72, 64
3, 3887, Note_on_c, 0, 72, 0
3, 3888, Note_on_c, 0, 73, 64
3, 3911, Note_on_c, 0, 73, 0
3, 3912, Note_on_c, 0, 75, 64
3, 3935, Note_on_c, 0, 75, 0
3, 3936, Note_on_c, 0, 76, 64
3, 3960, Note_on_c, 0, 76, 0
3, 3960, Note_on_c, 0, 75, 64
3, 3983, Note_on_c, 0, 75, 0
3, 3984, Note_on_c, 0, 78, 64
3, 4008, Note_on_c, 0, 78, 0
3, 4008, Note_on_c, 0, 76, 64
3, 4031, Note_on_c, 0, 76, 0
3, 4032, Note_on_c, 0, 75, 64
3, 4055, Note_on_c, 0, 75, 0
3, 4056, Note_on_c, 0, 73, 64
3, 4079, Note_on_c, 0, 73, 0
3, 4080, Note_on_c, 0, 72, 64
3, 4103, Note_on_c, 0, 72, 0
3, 4104, Note_on_c, 0, 73, 64
3, 4127, Note_on_c, 0, 73, 0
3, 4128, Note_on_c, 0, 72, 64
3, 4195, Note_on_c, 0, 72, 0
3, 4200, Note_on_c, 0, 73, 64
3, 4223, Note_on_c, 0, 73, 0
3, 4224, Note_on_c, 0, 73, 64
3, 4313, Note_on_c, 0, 73, 0
3, 4464, Note_on_c, 0, 68, 64
3, 4509, Note_on_c, 0, 68, 0
3, 4512, Note_on_c, 0, 66, 64
3, 4557, Note_on_c, 0, 66, 0
3, 4560, Note_on_c, 0, 64, 64
3, 4583, Note_on_c, 0, 64, 0
3, 4584, Note_on_c, 0, 63, 64
3, 4607, Note_on_c, 0, 63, 0
3, 4608, Note_on_c, 0, 64, 64
3, 4653, Note_on_c, 0, 64, 0
3, 4656, Note_on_c, 0, 63, 64
3, 4679, Note_on_c, 0, 63, 0
3, 4680, Note_on_c, 0, 61, 64
3, 4703, Note_on_c, 0, 61, 0
3, 4704, Note_on_c, 0, 69, 64
3, 4749, Note_on_c, 0, 69, 0
3, 4752, Note_on_c, 0, 69, 64
3, 4797, Note_on_c, 0, 69, 0
3, 4800, Note_on_c, 0, 69, 64
3, 4845, Note_on_c, 0, 69, 0
3, 4848, Note_on_c, 0, 68, 64
3, 4893, Note_on_c, 0, 68, 0
3, 4896, Note_on_c, 0, 70, 64
3, 4941, Note_on_c, 0, 70, 0
3, 4944, Note_on_c, 0, 72, 64
3, 4989, Note_on_c, 0, 72, 0
3, 4992, Note_on_c, 0, 73, 64
3, 5111, Note_on_c, 0, 73, 0
3, 5112, Note_on_c, 0, 72, 64
3, 5135, Note_on_c, 0, 72, 0
3, 5136, Note_on_c, 0, 73, 64
3, 5159, Note_on_c, 0, 73, 0
3, 5160, Note_on_c, 0, 75, 64
3, 5183, Note_on_c, 0, 75, 0
3, 5184, Note_on_c, 0, 72, 64
3, 5190, Note_on_c, 0, 72, 0
3, 5190, Note_on_c, 0, 73, 64
3, 5196, Note_on_c, 0, 73, 0
3, 5196, Note_on_c, 0, 72, 64
3, 5202, Note_on_c, 0, 72, 0
3, 5202, Note_on_c, 0, 73, 64
3, 5208, Note_on_c, 0, 73, 0
3, 5208, Note_on_c, 0, 72, 64
3, 5214, Note_on_c, 0, 72, 0
3, 5214, Note_on_c, 0, 73, 64
3, 5220, Note_on_c, 0, 73, 0
3, 5220, Note_on_c, 0, 72, 64
3, 5226, Note_on_c, 0, 72, 0
3, 5226, Note_on_c, 0, 73, 64
3, 5232, Note_on_c, 0, 73, 0
3, 5232, Note_on_c, 0, 72, 64
3, 5238, Note_on_c, 0, 72, 0
3, 5238, Note_on_c, 0, 73, 64
3, 5244, Note_on_c, 0, 73, 0
3, 5244, Note_on_c, 0, 72, 64
3, 5250, Note_on_c, 0, 72, 0
3, 5250, Note_on_c, 0, 73, 64
3, 5256, Note_on_c, 0, 73, 0
3, 5256, Note_on_c, 0, 72, 64
3, 5262, Note_on_c, 0, 72, 0
3, 5262, Note_on_c, 0, 73, 64
3, 5268, Note_on_c, 0, 73, 0
3, 5268, Note_on_c, 0, 72, 64
3, 5274, Note_on_c, 0, 72, 0
3, 5274, Note_on_c, 0, 73, 64
3, 5280, Note_on_c, 0, 73, 0
3, 5280, Note_on_c, 0, 73, 64
3, 5325, Note_on_c, 0, 73, 0
3, 5328, Note_on_c, 0, 75, 64
3, 5373, Note_on_c, 0, 75, 0
3, 5376, Note_on_c, 0, 76, 64
3, 5443, Note_on_c, 0, 76, 0
3, 5448, Note_on_c, 0, 78, 64
3, 5471, Note_on_c, 0, 78, 0
3, 5472, Note_on_c, 0, 78, 64
3, 5539, Note_on_c, 0, 78, 0
3, 5544, Note_on_c, 0, 80, 64
3, 5567, Note_on_c, 0, 80, 0
3, 5568, Note_on_c, 0, 80, 64
3, 5657, Note_on_c, 0, 80, 0
3, 5856, Note_on_c, 0, 71, 64
3, 5945, Note_on_c, 0, 71, 0
3, 5952, Note_on_c, 0, 71, 64
3, 5997, Note_on_c, 0, 71, 0
3, 6000, Note_on_c, 0, 76, 64
3, 6023, Note_on_c, 0, 76, 0
3, 6024, Note_on_c, 0, 75, 64
3, 6047, Note_on_c, 0, 75, 0
3, 6048, Note_on_c, 0, 76, 64
3, 6093, Note_on_c, 0, 76, 0
3, 6096, Note_on_c, 0, 73, 64
3, 6141, Note_on_c, 0, 73, 0
3, 6144, Note_on_c, 0, 69, 64
3, 6211, Note_on_c, 0, 69, 0
3, 6216, Note_on_c, 0, 71, 64
3, 6239, Note_on_c, 0, 71, 0
3, 6240, Note_on_c, 0, 68, 64
3, 6307, Note_on_c, 0, 68, 0
3, 6312, Note_on_c, 0, 66, 64
3, 6335, Note_on_c, 0, 66, 0
3, 6336, Note_on_c, 0, 66, 64
3, 6425, Note_on_c, 0, 66, 0
3, 6624, Note_on_c, 0, 76, 64
3, 6765, Note_on_c, 0, 76, 0
3, 6768, Note_on_c, 0, 78, 64
3, 6791, Note_on_c, 0, 78, 0
3, 6792, Note_on_c, 0, 79, 64
3, 6815, Note_on_c, 0, 79, 0
3, 6816, Note_on_c, 0, 78, 64
3, 6839, Note_on_c, 0, 78, 0
3, 6840, Note_on_c, 0, 76, 64
3, 6863, Note_on_c, 0, 76, 0
3, 6864, Note_on_c, 0, 74, 64
3, 6887, Note_on_c, 0, 74, 0
3, 6888, Note_on_c, 0, 73, 64
3, 6911, Note_on_c, 0, 73, 0
3, 6912, Note_on_c, 0, 74, 64
3, 6957, Note_on_c, 0, 74, 0
3, 6960, Note_on_c, 0, 71, 64
3, 7005, Note_on_c, 0, 71, 0
3, 7008, Note_on_c, 0, 68, 64
3, 7053, Note_on_c, 0, 68, 0
3, 7056, Note_on_c, 0, 76, 64
3, 7080, Note_on_c, 0, 76, 0
3, 7080, Note_on_c, 0, 73, 64
3, 7103, Note_on_c, 0, 73, 0
3, 7104, Note_on_c, 0, 70, 64
3, 7149, Note_on_c, 0, 70, 0
3, 7152, Note_on_c, 0, 66, 64
3, 7197, Note_on_c, 0, 66, 0
3, 7392, Note_on_c, 0, 73, 64
3, 7533, Note_on_c, 0, 73, 0
3, 7536, Note_on_c, 0, 78, 64
3, 7559, Note_on_c, 0, 78, 0
3, 7560, Note_on_c, 0, 77, 64
3, 7583, Note_on_c, 0, 77, 0
3, 7584, Note_on_c, 0, 78, 64
3, 7629, Note_on_c, 0, 78, 0
3, 7632, Note_on_c, 0, 74, 64
3, 7677, Note_on_c, 0, 74, 0
3, 7680, Note_on_c, 0, 71, 64
3, 7747, Note_on_c, 0, 71, 0
3, 7752, Note_on_c, 0, 73, 64
3, 7775, Note_on_c, 0, 73, 0
3, 7776, Note_on_c, 0, 69, 64
3, 7843, Note_on_c, 0, 69, 0
3, 7848, Note_on_c, 0, 68, 64
3, 7871, Note_on_c, 0, 68, 0
3, 7872, Note_on_c, 0, 68, 64
3, 7961, Note_on_c, 0, 68, 0
3, 8208, Note_on_c, 0, 66, 64
3, 8301, Note_on_c, 0, 66, 0
3, 8304, Note_on_c, 0, 69, 64
3, 8327, Note_on_c, 0, 69, 0
3, 8328, Note_on_c, 0, 68, 64
3, 8351, Note_on_c, 0, 68, 0
3, 8352, Note_on_c, 0, 68, 64
3, 8493, Note_on_c, 0, 68, 0
3, 8496, Note_on_c, 0, 69, 64
3, 8519, Note_on_c, 0, 69, 0
3, 8520, Note_on_c, 0, 71, 64
3, 8543, Note_on_c, 0, 71, 0
3, 8544, Note_on_c, 0, 69, 64
3, 8567, Note_on_c, 0, 69, 0
3, 8568, Note_on_c, 0, 68, 64
3, 8591, Note_on_c, 0, 68, 0
3, 8592, Note_on_c, 0, 69, 64
3, 8615, Note_on_c, 0, 69, 0
3, 8616, Note_on_c, 0, 66, 64
3, 8639, Note_on_c, 0, 66, 0
3, 8640, Note_on_c, 0, 74, 64
3, 8729, Note_on_c, 0, 74, 0
3, 8736, Note_on_c, 0, 74, 64
3, 8759, Note_on_c, 0, 74, 0
3, 8760, Note_on_c, 0, 68, 64
3, 8783, Note_on_c, 0, 68, 0
3, 8784, Note_on_c, 0, 69, 64
3, 8807, Note_on_c, 0, 69, 0
3, 8808, Note_on_c, 0, 71, 64
3, 8831, Note_on_c, 0, 71, 0
3, 8832, Note_on_c, 0, 65, 64
3, 8877, Note_on_c, 0, 65, 0
3, 8880, Note_on_c, 0, 63, 64
3, 8903, Note_on_c, 0, 63, 0
3, 8904, Note_on_c, 0, 61, 64
3, 8927, Note_on_c, 0, 61, 0
3, 8976, Note_on_c, 0, 73, 64
3, 9047, Note_on_c, 0, 73, 0
3, 9048, Note_on_c, 0, 69, 64
3, 9071, Note_on_c, 0, 69, 0
3, 9072, Note_on_c, 0, 68, 64
3, 9095, Note_on_c, 0, 68, 0
3, 9096, Note_on_c, 0, 66, 64
3, 9119, Note_on_c, 0, 66, 0
3, 9120, Note_on_c, 0, 71, 64
3, 9239, Note_on_c, 0, 71, 0
3, 9240, Note_on_c, 0, 65, 64
3, 9263, Note_on_c, 0, 65, 0
3, 9264, Note_on_c, 0, 66, 64
3, 9287, Note_on_c, 0, 66, 0
3, 9288, Note_on_c, 0, 68, 64
3, 9311, Note_on_c, 0, 68, 0
3, 9312, Note_on_c, 0, 69, 64
3, 9336, Note_on_c, 0, 69, 0
3, 9336, Note_on_c, 0, 68, 64
3, 9359, Note_on_c, 0, 68, 0
3, 9360, Note_on_c, 0, 71, 64
3, 9384, Note_on_c, 0, 71, 0
3, 9384, Note_on_c, 0, 69, 64
3, 9407, Note_on_c, 0, 69, 0
3, 9408, Note_on_c, 0, 68, 64
3, 9431, Note_on_c, 0, 68, 0
3, 9432, Note_on_c, 0, 66, 64
3, 9455, Note_on_c, 0, 66, 0
3, 9456, Note_on_c, 0, 65, 64
3, 9479, Note_on_c, 0, 65, 0
3, 9480, Note_on_c, 0, 66, 64
3, 9503, Note_on_c, 0, 66, 0
3, 9504, Note_on_c, 0, 65, 64
3, 9571, Note_on_c, 0, 65, 0
3, 9576, Note_on_c, 0, 66, 64
3, 9599, Note_on_c, 0, 66, 0
3, 9600, Note_on_c, 0, 66, 64
3, 9689, Note_on_c, 0, 66, 0
3, 9840, Note_on_c, 0, 73, 64
3, 9885, Note_on_c, 0, 73, 0
3, 9888, Note_on_c, 0, 71, 64
3, 9933, Note_on_c, 0, 71, 0
3, 9936, Note_on_c, 0, 69, 64
3, 9959, Note_on_c, 0, 69, 0
3, 9960, Note_on_c, 0, 68, 64
3, 9983, Note_on_c, 0, 68, 0
3, 9984, Note_on_c, 0, 69, 64
3, 10029, Note_on_c, 0, 69, 0
3, 10032, Note_on_c, 0, 68, 64
3, 10055, Note_on_c, 0, 68, 0
3, 10056, Note_on_c, 0, 66, 64
3, 10079, Note_on_c, 0, 66, 0
3, 10080, Note_on_c, 0, 74, 64
3, 10125, Note_on_c, 0, 74, 0
3, 10128, Note_on_c, 0, 74, 64
3, 10173, Note_on_c, 0, 74, 0
3, 10176, Note_on_c, 0, 74, 64
3, 10221, Note_on_c, 0, 74, 0
3, 10224, Note_on_c, 0, 73, 64
3, 10269, Note_on_c, 0, 73, 0
3, 10272, Note_on_c, 0, 75, 64
3, 10317, Note_on_c, 0, 75, 0
3, 10320, Note_on_c, 0, 77, 64
3, 10365, Note_on_c, 0, 77, 0
3, 10368, Note_on_c, 0, 78, 64
3, 10487, Note_on_c, 0, 78, 0
3, 10488, Note_on_c, 0, 77, 64
3, 10511, Note_on_c, 0, 77, 0
3, 10512, Note_on_c, 0, 78, 64
3, 10535, Note_on_c, 0, 78, 0
3, 10536, Note_on_c, 0, 80, 64
3, 10559, Note_on_c, 0, 80, 0
3, 10560, Note_on_c, 0, 77, 64
3, 10566, Note_on_c, 0, 77, 0
3, 10566, Note_on_c, 0, 78, 64
3, 10572, Note_on_c, 0, 78, 0
3, 10572, Note_on_c, 0, 77, 64
3, 10578, Note_on_c, 0, 77, 0
3, 10578, Note_on_c, 0, 78, 64
3, 10584, Note_on_c, 0, 78, 0
3, 10584, Note_on_c, 0, 77, 64
3, 10590, Note_on_c, 0, 77, 0
3, 10590, Note_on_c, 0, 78, 64
3, 10596, Note_on_c, 0, 78, 0
3, 10596, Note_on_c, 0, 77, 64
3, 10602, Note_on_c, 0, 77, 0
3, 10602, Note_on_c, 0, 78, 64
3, 10608, Note_on_c, 0, 78, 0
3, 10608, Note_on_c, 0, 77, 64
3, 10614, Note_on_c, 0, 77, 0
3, 10614, Note_on_c, 0, 78, 64
3, 10620, Note_on_c, 0, 78, 0
3, 10620, Note_on_c, 0, 77, 64
3, 10626, Note_on_c, 0, 77, 0
3, 10626, Note_on_c, 0, 78, 64
3, 10632, Note_on_c, 0, 78, 0
3, 10632, Note_on_c, 0, 77, 64
3, 10638, Note_on_c, 0, 77, 0
3, 10638, Note_on_c, 0, 78, 64
3, 10644, Note_on_c, 0, 78, 0
3, 10644, Note_on_c, 0, 77, 64
3, 10650, Note_on_c, 0, 77, 0
3, 10650, Note_on_c, 0, 78, 64
3, 10656, Note_on_c, 0, 78, 0
3, 10656, Note_on_c, 0, 78, 64
3, 10701, Note_on_c, 0, 78, 0
3, 10704, Note_on_c, 0, 80, 64
3, 10749, Note_on_c, 0, 80, 0
3, 10752, Note_on_c, 0, 81, 64
3, 10819, Note_on_c, 0, 81, 0
3, 10824, Note_on_c, 0, 83, 64
3, 10847, Note_on_c, 0, 83, 0
3, 10848, Note_on_c, 0, 83, 64
3, 10915, Note_on_c, 0, 83, 0
3, 10920, Note_on_c, 0, 85, 64
3, 10943, Note_on_c, 0, 85, 0
3, 10944, Note_on_c, 0, 85, 64
3, 11121, Note_on_c, 0, 85, 0
3, 11121, End_track
4, 0, Start_track
4, 0, MIDI_port, 0
4, 0, Title_t, "Clavier (LH) (staccato sempre)"
4, 0, Program_c, 0, 6
4, 0, Control_c, 0, 7, 127
4, 0, Note_on_c, 0, 42, 64
4, 6, Note_on_c, 0, 42, 0
4, 24, Note_on_c, 0, 54, 64
4, 30, Note_on_c, 0, 54, 0
4, 48, Note_on_c, 0, 57, 64
4, 54, Note_on_c, 0, 57, 0
4, 72, Note_on_c, 0, 54, 64
4, 78, Note_on_c, 0, 54, 0
4, 96, Note_on_c, 0, 53, 64
4, 102, Note_on_c, 0, 53, 0
4, 120, Note_on_c, 0, 56, 64
4, 126, Note_on_c, 0, 56, 0
4, 144, Note_on_c, 0, 49, 64
4, 150, Note_on_c, 0, 49, 0
4, 168, Note_on_c, 0, 53, 64
4, 174, Note_on_c, 0, 53, 0
4, 192, Note_on_c, 0, 42, 64
4, 198, Note_on_c, 0, 42, 0
4, 216, Note_on_c, 0, 54, 64
4, 222, Note_on_c, 0, 54, 0
4, 240, Note_on_c, 0, 57, 64
4, 246, Note_on_c, 0, 57, 0
4, 264, Note_on_c, 0, 54, 64
4, 270, Note_on_c, 0, 54, 0
4, 288, Note_on_c, 0, 56, 64
4, 294, Note_on_c, 0, 56, 0
4, 312, Note_on_c, 0, 59, 64
4, 318, Note_on_c, 0, 59, 0
4, 336, Note_on_c, 0, 52, 64
4, 342, Note_on_c, 0, 52, 0
4, 360, Note_on_c, 0, 56, 64
4, 366, Note_on_c, 0, 56, 0
4, 384, Note_on_c, 0, 45, 64
4, 390, Note_on_c, 0, 45, 0
4, 408, Note_on_c, 0, 57, 64
4, 414, Note_on_c, 0, 57, 0
4, 432, Note_on_c, 0, 61, 64
4, 438, Note_on_c, 0, 61, 0
4, 456, Note_on_c, 0, 57, 64
4, 462, Note_on_c, 0, 57, 0
4, 480, Note_on_c, 0, 56, 64
4, 486, Note_on_c, 0, 56, 0
4, 504, Note_on_c, 0, 59, 64
4, 510, Note_on_c, 0, 59, 0
4, 528, Note_on_c, 0, 49, 64
4, 534, Note_on_c, 0, 49, 0
4, 552, Note_on_c, 0, 61, 64
4, 558, Note_on_c, 0, 61, 0
4, 576, Note_on_c, 0, 42, 64
4, 582, Note_on_c, 0, 42, 0
4, 600, Note_on_c, 0, 54, 64
4, 606, Note_on_c, 0, 54, 0
4, 624, Note_on_c, 0, 57, 64
4, 630, Note_on_c, 0, 57, 0
4, 648, Note_on_c, 0, 54, 64
4, 654, Note_on_c, 0, 54, 0
4, 672, Note_on_c, 0, 47, 64
4, 678, Note_on_c, 0, 47, 0
4, 696, Note_on_c, 0, 50, 64
4, 702, Note_on_c, 0, 50, 0
4, 720, Note_on_c, 0, 44, 64
4, 726, Note_on_c, 0, 44, 0
4, 744, Note_on_c, 0, 47, 64
4, 750, Note_on_c, 0, 47, 0
4, 768, Note_on_c, 0, 37, 64
4, 792, Note_on_c, 0, 37, 0
4, 984, Note_on_c, 0, 54, 64
4, 990, Note_on_c, 0, 54, 0
4, 1008, Note_on_c, 0, 57, 64
4, 1014, Note_on_c, 0, 57, 0
4, 1032, Note_on_c, 0, 54, 64
4, 1038, Note_on_c, 0, 54, 0
4, 1056, Note_on_c, 0, 62, 64
4, 1062, Note_on_c, 0, 62, 0
4, 1080, Note_on_c, 0, 61, 64
4, 1086, Note_on_c, 0, 61, 0
4, 1104, Note_on_c, 0, 62, 64
4, 1110, Note_on_c, 0, 62, 0
4, 1128, Note_on_c, 0, 50, 64
4, 1134, Note_on_c, 0, 50, 0
4, 1152, Note_on_c, 0, 49, 64
4, 1158, Note_on_c, 0, 49, 0
4, 1176, Note_on_c, 0, 56, 64
4, 1182, Note_on_c, 0, 56, 0
4, 1200, Note_on_c, 0, 59, 64
4, 1206, Note_on_c, 0, 59, 0
4, 1224, Note_on_c, 0, 56, 64
4, 1230, Note_on_c, 0, 56, 0
4, 1248, Note_on_c, 0, 57, 64
4, 1254, Note_on_c, 0, 57, 0
4, 1272, Note_on_c, 0, 61, 64
4, 1278, Note_on_c, 0, 61, 0
4, 1296, Note_on_c, 0, 53, 64
4, 1302, Note_on_c, 0, 53, 0
4, 1320, Note_on_c, 0, 56, 64
4, 1326, Note_on_c, 0, 56, 0
4, 1344, Note_on_c, 0, 42, 64
4, 1350, Note_on_c, 0, 42, 0
4, 1368, Note_on_c, 0, 54, 64
4, 1374, Note_on_c, 0, 54, 0
4, 1392, Note_on_c, 0, 57, 64
4, 1398, Note_on_c, 0, 57, 0
4, 1416, Note_on_c, 0, 54, 64
4, 1422, Note_on_c, 0, 54, 0
4, 1440, Note_on_c, 0, 56, 64
4, 1446, Note_on_c, 0, 56, 0
4, 1464, Note_on_c, 0, 59, 64
4, 1470, Note_on_c, 0, 59, 0
4, 1488, Note_on_c, 0, 52, 64
4, 1494, Note_on_c, 0, 52, 0
4, 1512, Note_on_c, 0, 56, 64
4, 1518, Note_on_c, 0, 56, 0
4, 1536, Note_on_c, 0, 45, 64
4, 1542, Note_on_c, 0, 45, 0
4, 1560, Note_on_c, 0, 57, 64
4, 1566, Note_on_c, 0, 57, 0
4, 1584, Note_on_c, 0, 61, 64
4, 1590, Note_on_c, 0, 61, 0
4, 1608, Note_on_c, 0, 57, 64
4, 1614, Note_on_c, 0, 57, 0
4, 1632, Note_on_c, 0, 54, 64
4, 1638, Note_on_c, 0, 54, 0
4, 1656, Note_on_c, 0, 57, 64
4, 1662, Note_on_c, 0, 57, 0
4, 1680, Note_on_c, 0, 50, 64
4, 1686, Note_on_c, 0, 50, 0
4, 1704, Note_on_c, 0, 54, 64
4, 1710, Note_on_c, 0, 54, 0
4, 1728, Note_on_c, 0, 47, 64
4, 1734, Note_on_c, 0, 47, 0
4, 1752, Note_on_c, 0, 56, 64
4, 1758, Note_on_c, 0, 56, 0
4, 1776, Note_on_c, 0, 59, 64
4, 1782, Note_on_c, 0, 59, 0
4, 1800, Note_on_c, 0, 56, 64
4, 1806, Note_on_c, 0, 56, 0
4, 1824, Note_on_c, 0, 57, 64
4, 1830, Note_on_c, 0, 57, 0
4, 1848, Note_on_c, 0, 61, 64
4, 1854, Note_on_c, 0, 61, 0
4, 1872, Note_on_c, 0, 52, 64
4, 1878, Note_on_c, 0, 52, 0
4, 1896, Note_on_c, 0, 57, 64
4, 1902, Note_on_c, 0, 57, 0
4, 1920, Note_on_c, 0, 56, 64
4, 1926, Note_on_c, 0, 56, 0
4, 1944, Note_on_c, 0, 59, 64
4, 1950, Note_on_c, 0, 59, 0
4, 1968, Note_on_c, 0, 62, 64
4, 1974, Note_on_c, 0, 62, 0
4, 1992, Note_on_c, 0, 59, 64
4, 1998, Note_on_c, 0, 59, 0
4, 2016, Note_on_c, 0, 61, 64
4, 2118, Note_on_c, 0, 61, 0
4, 2136, Note_on_c, 0, 59, 64
4, 2142, Note_on_c, 0, 59, 0
4, 2160, Note_on_c, 0, 56, 64
4, 2166, Note_on_c, 0, 56, 0
4, 2184, Note_on_c, 0, 52, 64
4, 2190, Note_on_c, 0, 52, 0
4, 2208, Note_on_c, 0, 57, 64
4, 2214, Note_on_c, 0, 57, 0
4, 2232, Note_on_c, 0, 52, 64
4, 2238, Note_on_c, 0, 52, 0
4, 2256, Note_on_c, 0, 49, 64
4, 2262, Note_on_c, 0, 49, 0
4, 2280, Note_on_c, 0, 45, 64
4, 2286, Note_on_c, 0, 45, 0
4, 2304, Note_on_c, 0, 40, 64
4, 2310, Note_on_c, 0, 40, 0
4, 2328, Note_on_c, 0, 52, 64
4, 2334, Note_on_c, 0, 52, 0
4, 2352, Note_on_c, 0, 56, 64
4, 2358, Note_on_c, 0, 56, 0
4, 2376, Note_on_c, 0, 52, 64
4, 2382, Note_on_c, 0, 52, 0
4, 2400, Note_on_c, 0, 57, 64
4, 2406, Note_on_c, 0, 57, 0
4, 2424, Note_on_c, 0, 61, 64
4, 2430, Note_on_c, 0, 61, 0
4, 2448, Note_on_c, 0, 54, 64
4, 2454, Note_on_c, 0, 54, 0
4, 2472, Note_on_c, 0, 57, 64
4, 2478, Note_on_c, 0, 57, 0
4, 2496, Note_on_c, 0, 51, 64
4, 2502, Note_on_c, 0, 51, 0
4, 2520, Note_on_c, 0, 57, 64
4, 2526, Note_on_c, 0, 57, 0
4, 2544, Note_on_c, 0, 61, 64
4, 2550, Note_on_c, 0, 61, 0
4, 2568, Note_on_c, 0, 57, 64
4, 2574, Note_on_c, 0, 57, 0
4, 2592, Note_on_c, 0, 54, 64
4, 2598, Note_on_c, 0, 54, 0
4, 2616, Note_on_c, 0, 57, 64
4, 2622, Note_on_c, 0, 57, 0
4, 2640, Note_on_c, 0, 51, 64
4, 2646, Note_on_c, 0, 51, 0
4, 2664, Note_on_c, 0, 54, 64
4, 2670, Note_on_c, 0, 54, 0
4, 2688, Note_on_c, 0, 48, 64
4, 2694, Note_on_c, 0, 48, 0
4, 2712, Note_on_c, 0, 56, 64
4, 2718, Note_on_c, 0, 56, 0
4, 2736, Note_on_c, 0, 60, 64
4, 2742, Note_on_c, 0, 60, 0
4, 2760, Note_on_c, 0, 56, 64
4, 2766, Note_on_c, 0, 56, 0
4, 2784, Note_on_c, 0, 61, 64
4, 2790, Note_on_c, 0, 61, 0
4, 2808, Note_on_c, 0, 64, 64
4, 2814, Note_on_c, 0, 64, 0
4, 2832, Note_on_c, 0, 57, 64
4, 2838, Note_on_c, 0, 57, 0
4, 2856, Note_on_c, 0, 61, 64
4, 2862, Note_on_c, 0, 61, 0
4, 2880, Note_on_c, 0, 54, 64
4, 2886, Note_on_c, 0, 54, 0
4, 2904, Note_on_c, 0, 57, 64
4, 2910, Note_on_c, 0, 57, 0
4, 2928, Note_on_c, 0, 61, 64
4, 2934, Note_on_c, 0, 61, 0
4, 2952, Note_on_c, 0, 57, 64
4, 2958, Note_on_c, 0, 57, 0
4, 2976, Note_on_c, 0, 54, 64
4, 2982, Note_on_c, 0, 54, 0
4, 3000, Note_on_c, 0, 57, 64
4, 3006, Note_on_c, 0, 57, 0
4, 3024, Note_on_c, 0, 51, 64
4, 3030, Note_on_c, 0, 51, 0
4, 3048, Note_on_c, 0, 54, 64
4, 3054, Note_on_c, 0, 54, 0
4, 3072, Note_on_c, 0, 44, 64
4, 3078, Note_on_c, 0, 44, 0
4, 3096, Note_on_c, 0, 56, 64
4, 3102, Note_on_c, 0, 56, 0
4, 3120, Note_on_c, 0, 60, 64
4, 3126, Note_on_c, 0, 60, 0
4, 3144, Note_on_c, 0, 56, 64
4, 3150, Note_on_c, 0, 56, 0
4, 3168, Note_on_c, 0, 61, 64
4, 3174, Note_on_c, 0, 61, 0
4, 3192, Note_on_c, 0, 64, 64
4, 3198, Note_on_c, 0, 64, 0
4, 3216, Note_on_c, 0, 57, 64
4, 3222, Note_on_c, 0, 57, 0
4, 3240, Note_on_c, 0, 61, 64
4, 3246, Note_on_c, 0, 61, 0
4, 3264, Note_on_c, 0, 42, 64
4, 3270, Note_on_c, 0, 42, 0
4, 3288, Note_on_c, 0, 54, 64
4, 3294, Note_on_c, 0, 54, 0
4, 3312, Note_on_c, 0, 57, 64
4, 3318, Note_on_c, 0, 57, 0
4, 3336, Note_on_c, 0, 54, 64
4, 3342, Note_on_c, 0, 54, 0
4, 3360, Note_on_c, 0, 51, 64
4, 3366, Note_on_c, 0, 51, 0
4, 3384, Note_on_c, 0, 54, 64
4, 3390, Note_on_c, 0, 54, 0
4, 3408, Note_on_c, 0, 48, 64
4, 3414, Note_on_c, 0, 48, 0
4, 3432, Note_on_c, 0, 51, 64
4, 3438, Note_on_c, 0, 51, 0
4, 3456, Note_on_c, 0, 44, 64
4, 3462, Note_on_c, 0, 44, 0
4, 3480, Note_on_c, 0, 56, 64
4, 3486, Note_on_c, 0, 56, 0
4, 3504, Note_on_c, 0, 60, 64
4, 3510, Note_on_c, 0, 60, 0
4, 3528, Note_on_c, 0, 56, 64
4, 3534, Note_on_c, 0, 56, 0
4, 3552, Note_on_c, 0, 61, 64
4, 3558, Note_on_c, 0, 61, 0
4, 3576, Note_on_c, 0, 64, 64
4, 3582, Note_on_c, 0, 64, 0
4, 3600, Note_on_c, 0, 56, 64
4, 3606, Note_on_c, 0, 56, 0
4, 3624, Note_on_c, 0, 59, 64
4, 3630, Note_on_c, 0, 59, 0
4, 3648, Note_on_c, 0, 57, 64
4, 3654, Note_on_c, 0, 57, 0
4, 3672, Note_on_c, 0, 61, 64
4, 3678, Note_on_c, 0, 61, 0
4, 3696, Note_on_c, 0, 54, 64
4, 3702, Note_on_c, 0, 54, 0
4, 3720, Note_on_c, 0, 57, 64
4, 3726, Note_on_c, 0, 57, 0
4, 3744, Note_on_c, 0, 56, 64
4, 3756, Note_on_c, 0, 56, 0
4, 3792, Note_on_c, 0, 44, 64
4, 3804, Note_on_c, 0, 44, 0
4, 3840, Note_on_c, 0, 49, 64
4, 3846, Note_on_c, 0, 49, 0
4, 3864, Note_on_c, 0, 52, 64
4, 3870, Note_on_c, 0, 52, 0
4, 3888, Note_on_c, 0, 56, 64
4, 3894, Note_on_c, 0, 56, 0
4, 3912, Note_on_c, 0, 52, 64
4, 3918, Note_on_c, 0, 52, 0
4, 3936, Note_on_c, 0, 49, 64
4, 3942, Note_on_c, 0, 49, 0
4, 3960, Note_on_c, 0, 52, 64
4, 3966, Note_on_c, 0, 52, 0
4, 3984, Note_on_c, 0, 45, 64
4, 3990, Note_on_c, 0, 45, 0
4, 4008, Note_on_c, 0, 49, 64
4, 4014, Note_on_c, 0, 49, 0
4, 4032, Note_on_c, 0, 42, 64
4, 4038, Note_on_c, 0, 42, 0
4, 4056, Note_on_c, 0, 45, 64
4, 4062, Note_on_c, 0, 45, 0
4, 4080, Note_on_c, 0, 39, 64
4, 4086, Note_on_c, 0, 39, 0
4, 4104, Note_on_c, 0, 42, 64
4, 4110, Note_on_c, 0, 42, 0
4, 4128, Note_on_c, 0, 44, 64
4, 4140, Note_on_c, 0, 44, 0
4, 4176, Note_on_c, 0, 44, 64
4, 4188, Note_on_c, 0, 44, 0
4, 4224, Note_on_c, 0, 37, 64
4, 4230, Note_on_c, 0, 37, 0
4, 4248, Note_on_c, 0, 49, 64
4, 4254, Note_on_c, 0, 49, 0
4, 4272, Note_on_c, 0, 52, 64
4, 4278, Note_on_c, 0, 52, 0
4, 4296, Note_on_c, 0, 49, 64
4, 4302, Note_on_c, 0, 49, 0
4, 4320, Note_on_c, 0, 51, 64
4, 4326, Note_on_c, 0, 51, 0
4, 4344, Note_on_c, 0, 54, 64
4, 4350, Note_on_c, 0, 54, 0
4, 4368, Note_on_c, 0, 47, 64
4, 4374, Note_on_c, 0, 47, 0
4, 4392, Note_on_c, 0, 51, 64
4, 4398, Note_on_c, 0, 51, 0
4, 4416, Note_on_c, 0, 40, 64
4, 4422, Note_on_c, 0, 40, 0
4, 4440, Note_on_c, 0, 52, 64
4, 4446, Note_on_c, 0, 52, 0
4, 4464, Note_on_c, 0, 56, 64
4, 4470, Note_on_c, 0, 56, 0
4, 4488, Note_on_c, 0, 52, 64
4, 4494, Note_on_c, 0, 52, 0
4, 4512, Note_on_c, 0, 51, 64
4, 4518, Note_on_c, 0, 51, 0
4, 4536, Note_on_c, 0, 54, 64
4, 4542, Note_on_c, 0, 54, 0
4, 4560, Note_on_c, 0, 44, 64
4, 4566, Note_on_c, 0, 44, 0
4, 4584, Note_on_c, 0, 56, 64
4, 4590, Note_on_c, 0, 56, 0
4, 4608, Note_on_c, 0, 37, 64
4, 4614, Note_on_c, 0, 37, 0
4, 4632, Note_on_c, 0, 49, 64
4, 4638, Note_on_c, 0, 49, 0
4, 4656, Note_on_c, 0, 52, 64
4, 4662, Note_on_c, 0, 52, 0
4, 4680, Note_on_c, 0, 49, 64
4, 4686, Note_on_c, 0, 49, 0
4, 4704, Note_on_c, 0, 54, 64
4, 4710, Note_on_c, 0, 54, 0
4, 4728, Note_on_c, 0, 57, 64
4, 4734, Note_on_c, 0, 57, 0
4, 4752, Note_on_c, 0, 51, 64
4, 4758, Note_on_c, 0, 51, 0
4, 4776, Note_on_c, 0, 54, 64
4, 4782, Note_on_c, 0, 54, 0
4, 4800, Note_on_c, 0, 44, 64
4, 4824, Note_on_c, 0, 44, 0
4, 5016, Note_on_c, 0, 49, 64
4, 5022, Note_on_c, 0, 49, 0
4, 5040, Note_on_c, 0, 52, 64
4, 5046, Note_on_c, 0, 52, 0
4, 5064, Note_on_c, 0, 49, 64
4, 5070, Note_on_c, 0, 49, 0
4, 5088, Note_on_c, 0, 57, 64
4, 5094, Note_on_c, 0, 57, 0
4, 5112, Note_on_c, 0, 56, 64
4, 5118, Note_on_c, 0, 56, 0
4, 5136, Note_on_c, 0, 57, 64
4, 5142, Note_on_c, 0, 57, 0
4, 5160, Note_on_c, 0, 45, 64
4, 5166, Note_on_c, 0, 45, 0
4, 5184, Note_on_c, 0, 44, 64
4, 5190, Note_on_c, 0, 44, 0
4, 5208, Note_on_c, 0, 51, 64
4, 5214, Note_on_c, 0, 51, 0
4, 5232, Note_on_c, 0, 54, 64
4, 5238, Note_on_c, 0, 54, 0
4, 5256, Note_on_c, 0, 51, 64
4, 5262, Note_on_c, 0, 51, 0
4, 5280, Note_on_c, 0, 52, 64
4, 5286, Note_on_c, 0, 52, 0
4, 5304, Note_on_c, 0, 56, 64
4, 5310, Note_on_c, 0, 56, 0
4, 5328, Note_on_c, 0, 48, 64
4, 5334, Note_on_c, 0, 48, 0
4, 5352, Note_on_c, 0, 51, 64
4, 5358, Note_on_c, 0, 51, 0
4, 5376, Note_on_c, 0, 37, 64
4, 5382, Note_on_c, 0, 37, 0
4, 5400, Note_on_c, 0, 49, 64
4, 5406, Note_on_c, 0, 49, 0
4, 5424, Note_on_c, 0, 52, 64
4, 5430, Note_on_c, 0, 52, 0
4, 5448, Note_on_c, 0, 49, 64
4, 5454, Note_on_c, 0, 49, 0
4, 5472, Note_on_c, 0, 51, 64
4, 5478, Note_on_c, 0, 51, 0
4, 5496, Note_on_c, 0, 54, 64
4, 5502, Note_on_c, 0, 54, 0
4, 5520, Note_on_c, 0, 47, 64
4, 5526, Note_on_c, 0, 47, 0
4, 5544, Note_on_c, 0, 51, 64
4, 5550, Note_on_c, 0, 51, 0
4, 5568, Note_on_c, 0, 40, 64
4, 5574, Note_on_c, 0, 40, 0
4, 5592, Note_on_c, 0, 52, 64
4, 5598, Note_on_c, 0, 52, 0
4, 5616, Note_on_c, 0, 56, 64
4, 5622, Note_on_c, 0, 56, 0
4, 5640, Note_on_c, 0, 52, 64
4, 5646, Note_on_c, 0, 52, 0
4, 5664, Note_on_c, 0, 49, 64
4, 5670, Note_on_c, 0, 49, 0
4, 5688, Note_on_c, 0, 52, 64
4, 5694, Note_on_c, 0, 52, 0
4, 5712, Note_on_c, 0, 45, 64
4, 5718, Note_on_c, 0, 45, 0
4, 5736, Note_on_c, 0, 49, 64
4, 5742, Note_on_c, 0, 49, 0
4, 5760, Note_on_c, 0, 42, 64
4, 5766, Note_on_c, 0, 42, 0
4, 5784, Note_on_c, 0, 51, 64
4, 5790, Note_on_c, 0, 51, 0
4, 5808, Note_on_c, 0, 54, 64
4, 5814, Note_on_c, 0, 54, 0
4, 5832, Note_on_c, 0, 51, 64
4, 5838, Note_on_c, 0, 51, 0
4, 5856, Note_on_c, 0, 52, 64
4, 5862, Note_on_c, 0, 52, 0
4, 5880, Note_on_c, 0, 56, 64
4, 5886, Note_on_c, 0, 56, 0
4, 5904, Note_on_c, 0, 47, 64
4, 5910, Note_on_c, 0, 47, 0
4, 5928, Note_on_c, 0, 52, 64
4, 5934, Note_on_c, 0, 52, 0
4, 5952, Note_on_c, 0, 51, 64
4, 5958, Note_on_c, 0, 51, 0
4, 5976, Note_on_c, 0, 54, 64
4, 5982, Note_on_c, 0, 54, 0
4, 6000, Note_on_c, 0, 57, 64
4, 6006, Note_on_c, 0, 57, 0
4, 6024, Note_on_c, 0, 54, 64
4, 6030, Note_on_c, 0, 54, 0
4, 6048, Note_on_c, 0, 56, 64
4, 6054, Note_on_c, 0, 56, 0
4, 6072, Note_on_c, 0, 59, 64
4, 6078, Note_on_c, 0, 59, 0
4, 6096, Note_on_c, 0, 52, 64
4, 6102, Note_on_c, 0, 52, 0
4, 6120, Note_on_c, 0, 56, 64
4, 6126, Note_on_c, 0, 56, 0
4, 6144, Note_on_c, 0, 49, 64
4, 6150, Note_on_c, 0, 49, 0
4, 6168, Note_on_c, 0, 54, 64
4, 6174, Note_on_c, 0, 54, 0
4, 6192, Note_on_c, 0, 51, 64
4, 6198, Note_on_c, 0, 51, 0
4, 6216, Note_on_c, 0, 47, 64
4, 6222, Note_on_c, 0, 47, 0
4, 6240, Note_on_c, 0, 52, 64
4, 6246, Note_on_c, 0, 52, 0
4, 6264, Note_on_c, 0, 56, 64
4, 6270, Note_on_c, 0, 56, 0
4, 6288, Note_on_c, 0, 49, 64
4, 6294, Note_on_c, 0, 49, 0
4, 6312, Note_on_c, 0, 52, 64
4, 6318, Note_on_c, 0, 52, 0
4, 6336, Note_on_c, 0, 46, 64
4, 6342, Note_on_c, 0, 46, 0
4, 6360, Note_on_c, 0, 61, 64
4, 6366, Note_on_c, 0, 61, 0
4, 6384, Note_on_c, 0, 64, 64
4, 6390, Note_on_c, 0, 64, 0
4, 6408, Note_on_c, 0, 61, 64
4, 6414, Note_on_c, 0, 61, 0
4, 6432, Note_on_c, 0, 58, 64
4, 6438, Note_on_c, 0, 58, 0
4, 6456, Note_on_c, 0, 61, 64
4, 6462, Note_on_c, 0, 61, 0
4, 6480, Note_on_c, 0, 54, 64
4, 6486, Note_on_c, 0, 54, 0
4, 6504, Note_on_c, 0, 58, 64
4, 6510, Note_on_c, 0, 58, 0
4, 6528, Note_on_c, 0, 59, 64
4, 6534, Note_on_c, 0, 59, 0
4, 6552, Note_on_c, 0, 47, 64
4, 6558, Note_on_c, 0, 47, 0
4, 6576, Note_on_c, 0, 50, 64
4, 6582, Note_on_c, 0, 50, 0
4, 6600, Note_on_c, 0, 47, 64
4, 6606, Note_on_c, 0, 47, 0
4, 6624, Note_on_c, 0, 52, 64
4, 6630, Note_on_c, 0, 52, 0
4, 6648, Note_on_c, 0, 56, 64
4, 6654, Note_on_c, 0, 56, 0
4, 6672, Note_on_c, 0, 49, 64
4, 6678, Note_on_c, 0, 49, 0
4, 6696, Note_on_c, 0, 52, 64
4, 6702, Note_on_c, 0, 52, 0
4, 6720, Note_on_c, 0, 42, 64
4, 6726, Note_on_c, 0, 42, 0
4, 6744, Note_on_c, 0, 49, 64
4, 6750, Note_on_c, 0, 49, 0
4, 6768, Note_on_c, 0, 52, 64
4, 6774, Note_on_c, 0, 52, 0
4, 6792, Note_on_c, 0, 49, 64
4, 6798, Note_on_c, 0, 49, 0
4, 6816, Note_on_c, 0, 46, 64
4, 6822, Note_on_c, 0, 46, 0
4, 6840, Note_on_c, 0, 49, 64
4, 6846, Note_on_c, 0, 49, 0
4, 6864, Note_on_c, 0, 42, 64
4, 6870, Note_on_c, 0, 42, 0
4, 6888, Note_on_c, 0, 46, 64
4, 6894, Note_on_c, 0, 46, 0
4, 6912, Note_on_c, 0, 47, 64
4, 6918, Note_on_c, 0, 47, 0
4, 6936, Note_on_c, 0, 59, 64
4, 6942, Note_on_c, 0, 59, 0
4, 6960, Note_on_c, 0, 62, 64
4, 6966, Note_on_c, 0, 62, 0
4, 6984, Note_on_c, 0, 59, 64
4, 6990, Note_on_c, 0, 59, 0
4, 7008, Note_on_c, 0, 52, 64
4, 7014, Note_on_c, 0, 52, 0
4, 7032, Note_on_c, 0, 56, 64
4, 7038, Note_on_c, 0, 56, 0
4, 7056, Note_on_c, 0, 49, 64
4, 7062, Note_on_c, 0, 49, 0
4, 7080, Note_on_c, 0, 52, 64
4, 7086, Note_on_c, 0, 52, 0
4, 7104, Note_on_c, 0, 40, 64
4, 7110, Note_on_c, 0, 40, 0
4, 7128, Note_on_c, 0, 49, 64
4, 7134, Note_on_c, 0, 49, 0
4, 7152, Note_on_c, 0, 52, 64
4, 7158, Note_on_c, 0, 52, 0
4, 7176, Note_on_c, 0, 49, 64
4, 7182, Note_on_c, 0, 49, 0
4, 7200, Note_on_c, 0, 50, 64
4, 7206, Note_on_c, 0, 50, 0
4, 7224, Note_on_c, 0, 54, 64
4, 7230, Note_on_c, 0, 54, 0
4, 7248, Note_on_c, 0, 47, 64
4, 7254, Note_on_c, 0, 47, 0
4, 7272, Note_on_c, 0, 50, 64
4, 7278, Note_on_c, 0, 50, 0
4, 7296, Note_on_c, 0, 44, 64
4, 7302, Note_on_c, 0, 44, 0
4, 7320, Note_on_c, 0, 53, 64
4, 7326, Note_on_c, 0, 53, 0
4, 7344, Note_on_c, 0, 56, 64
4, 7350, Note_on_c, 0, 56, 0
4, 7368, Note_on_c, 0, 53, 64
4, 7374, Note_on_c, 0, 53, 0
4, 7392, Note_on_c, 0, 54, 64
4, 7398, Note_on_c, 0, 54, 0
4, 7416, Note_on_c, 0, 57, 64
4, 7422, Note_on_c, 0, 57, 0
4, 7440, Note_on_c, 0, 49, 64
4, 7446, Note_on_c, 0, 49, 0
4, 7464, Note_on_c, 0, 54, 64
4, 7470, Note_on_c, 0, 54, 0
4, 7488, Note_on_c, 0, 53, 64
4, 7494, Note_on_c, 0, 53, 0
4, 7512, Note_on_c, 0, 56, 64
4, 7518, Note_on_c, 0, 56, 0
4, 7536, Note_on_c, 0, 59, 64
4, 7542, Note_on_c, 0, 59, 0
4, 7560, Note_on_c, 0, 56, 64
4, 7566, Note_on_c, 0, 56, 0
4, 7584, Note_on_c, 0, 57, 64
4, 7590, Note_on_c, 0, 57, 0
4, 7608, Note_on_c, 0, 61, 64
4, 7614, Note_on_c, 0, 61, 0
4, 7632, Note_on_c, 0, 54, 64
4, 7638, Note_on_c, 0, 54, 0
4, 7656, Note_on_c, 0, 57, 64
4, 7662, Note_on_c, 0, 57, 0
4, 7680, Note_on_c, 0, 51, 64
4, 7686, Note_on_c, 0, 51, 0
4, 7704, Note_on_c, 0, 56, 64
4, 7710, Note_on_c, 0, 56, 0
4, 7728, Note_on_c, 0, 53, 64
4, 7734, Note_on_c, 0, 53, 0
4, 7752, Note_on_c, 0, 49, 64
4, 7758, Note_on_c, 0, 49, 0
4, 7776, Note_on_c, 0, 54, 64
4, 7782, Note_on_c, 0, 54, 0
4, 7800, Note_on_c, 0, 57, 64
4, 7806, Note_on_c, 0, 57, 0
4, 7824, Note_on_c, 0, 50, 64
4, 7830, Note_on_c, 0, 50, 0
4, 7848, Note_on_c, 0, 54, 64
4, 7854, Note_on_c, 0, 54, 0
4, 7872, Note_on_c, 0, 47, 64
4, 7878, Note_on_c, 0, 47, 0
4, 7896, Note_on_c, 0, 50, 64
4, 7902, Note_on_c, 0, 50, 0
4, 7920, Note_on_c, 0, 54, 64
4, 7926, Note_on_c, 0, 54, 0
4, 7944, Note_on_c, 0, 50, 64
4, 7950, Note_on_c, 0, 50, 0
4, 7968, Note_on_c, 0, 47, 64
4, 7974, Note_on_c, 0, 47, 0
4, 7992, Note_on_c, 0, 50, 64
4, 7998, Note_on_c, 0, 50, 0
4, 8016, Note_on_c, 0, 44, 64
4, 8022, Note_on_c, 0, 44, 0
4, 8040, Note_on_c, 0, 47, 64
4, 8046, Note_on_c, 0, 47, 0
4, 8064, Note_on_c, 0, 41, 64
4, 8070, Note_on_c, 0, 41, 0
4, 8088, Note_on_c, 0, 49, 64
4, 8094, Note_on_c, 0, 49, 0
4, 8112, Note_on_c, 0, 53, 64
4, 8118, Note_on_c, 0, 53, 0
4, 8136, Note_on_c, 0, 49, 64
4, 8142, Note_on_c, 0, 49, 0
4, 8160, Note_on_c, 0, 54, 64
4, 8166, Note_on_c, 0, 54, 0
4, 8184, Note_on_c, 0, 57, 64
4, 8190, Note_on_c, 0, 57, 0
4, 8208, Note_on_c, 0, 50, 64
4, 8214, Note_on_c, 0, 50, 0
4, 8232, Note_on_c, 0, 54, 64
4, 8238, Note_on_c, 0, 54, 0
4, 8256, Note_on_c, 0, 47, 64
4, 8262, Note_on_c, 0, 47, 0
4, 8280, Note_on_c, 0, 50, 64
4, 8286, Note_on_c, 0, 50, 0
4, 8304, Note_on_c, 0, 54, 64
4, 8310, Note_on_c, 0, 54, 0
4, 8328, Note_on_c, 0, 50, 64
4, 8334, Note_on_c, 0, 50, 0
4, 8352, Note_on_c, 0, 47, 64
4, 8358, Note_on_c, 0, 47, 0
4, 8376, Note_on_c, 0, 50, 64
4, 8382, Note_on_c, 0, 50, 0
4, 8400, Note_on_c, 0, 44, 64
4, 8406, Note_on_c, 0, 44, 0
4, 8424, Note_on_c, 0, 47, 64
4, 8430, Note_on_c, 0, 47, 0
4, 8448, Note_on_c, 0, 37, 64
4, 8454, Note_on_c, 0, 37, 0
4, 8472, Note_on_c, 0, 49, 64
4, 8478, Note_on_c, 0, 49, 0
4, 8496, Note_on_c, 0, 53, 64
4, 8502, Note_on_c, 0, 53, 0
4, 8520, Note_on_c, 0, 49, 64
4, 8526, Note_on_c, 0, 49, 0
4, 8544, Note_on_c, 0, 54, 64
4, 8550, Note_on_c, 0, 54, 0
4, 8568, Note_on_c, 0, 57, 64
4, 8574, Note_on_c, 0, 57, 0
4, 8592, Note_on_c, 0, 50, 64
4, 8598, Note_on_c, 0, 50, 0
4, 8616, Note_on_c, 0, 54, 64
4, 8622, Note_on_c, 0, 54, 0
4, 8640, Note_on_c, 0, 47, 64
4, 8646, Note_on_c, 0, 47, 0
4, 8664, Note_on_c, 0, 59, 64
4, 8670, Note_on_c, 0, 59, 0
4, 8688, Note_on_c, 0, 62, 64
4, 8694, Note_on_c, 0, 62, 0
4, 8712, Note_on_c, 0, 59, 64
4, 8718, Note_on_c, 0, 59, 0
4, 8736, Note_on_c, 0, 56, 64
4, 8742, Note_on_c, 0, 56, 0
4, 8760, Note_on_c, 0, 59, 64
4, 8766, Note_on_c, 0, 59, 0
4, 8784, Note_on_c, 0, 53, 64
4, 8790, Note_on_c, 0, 53, 0
4, 8808, Note_on_c, 0, 56, 64
4, 8814, Note_on_c, 0, 56, 0
4, 8832, Note_on_c, 0, 37, 64
4, 8838, Note_on_c, 0, 37, 0
4, 8856, Note_on_c, 0, 49, 64
4, 8862, Note_on_c, 0, 49, 0
4, 8880, Note_on_c, 0, 53, 64
4, 8886, Note_on_c, 0, 53, 0
4, 8904, Note_on_c, 0, 49, 64
4, 8910, Note_on_c, 0, 49, 0
4, 8928, Note_on_c, 0, 54, 64
4, 8934, Note_on_c, 0, 54, 0
4, 8952, Note_on_c, 0, 57, 64
4, 8958, Note_on_c, 0, 57, 0
4, 8976, Note_on_c, 0, 49, 64
4, 8982, Note_on_c, 0, 49, 0
4, 9000, Note_on_c, 0, 52, 64
4, 9006, Note_on_c, 0, 52, 0
4, 9024, Note_on_c, 0, 50, 64
4, 9030, Note_on_c, 0, 50, 0
4, 9048, Note_on_c, 0, 54, 64
4, 9054, Note_on_c, 0, 54, 0
4, 9072, Note_on_c, 0, 47, 64
4, 9078, Note_on_c, 0, 47, 0
4, 9096, Note_on_c, 0, 50, 64
4, 9102, Note_on_c, 0, 50, 0
4, 9120, Note_on_c, 0, 49, 64
4, 9132, Note_on_c, 0, 49, 0
4, 9168, Note_on_c, 0, 37, 64
4, 9180, Note_on_c, 0, 37, 0
4, 9216, Note_on_c, 0, 42, 64
4, 9222, Note_on_c, 0, 42, 0
4, 9240, Note_on_c, 0, 57, 64
4, 9246, Note_on_c, 0, 57, 0
4, 9264, Note_on_c, 0, 61, 64
4, 9270, Note_on_c, 0, 61, 0
4, 9288, Note_on_c, 0, 57, 64
4, 9294, Note_on_c, 0, 57, 0
4, 9312, Note_on_c, 0, 54, 64
4, 9318, Note_on_c, 0, 54, 0
4, 9336, Note_on_c, 0, 57, 64
4, 9342, Note_on_c, 0, 57, 0
4, 9360, Note_on_c, 0, 50, 64
4, 9366, Note_on_c, 0, 50, 0
4, 9384, Note_on_c, 0, 54, 64
4, 9390, Note_on_c, 0, 54, 0
4, 9408, Note_on_c, 0, 47, 64
4, 9414, Note_on_c, 0, 47, 0
4, 9432, Note_on_c, 0, 50, 64
4, 9438, Note_on_c, 0, 50, 0
4, 9456, Note_on_c, 0, 44, 64
4, 9462, Note_on_c, 0, 44, 0
4, 9480, Note_on_c, 0, 47, 64
4, 9486, Note_on_c, 0, 47, 0
4, 9504, Note_on_c, 0, 49, 64
4, 9516, Note_on_c, 0, 49, 0
4, 9552, Note_on_c, 0, 37, 64
4, 9564, Note_on_c, 0, 37, 0
4, 9600, Note_on_c, 0, 42, 64
4, 9606, Note_on_c, 0, 42, 0
4, 9624, Note_on_c, 0, 54, 64
4, 9630, Note_on_c, 0, 54, 0
4, 9648, Note_on_c, 0, 57, 64
4, 9654, Note_on_c, 0, 57, 0
4, 9672, Note_on_c, 0, 54, 64
4, 9678, Note_on_c, 0, 54, 0
4, 9696, Note_on_c, 0, 56, 64
4, 9702, Note_on_c, 0, 56, 0
4, 9720, Note_on_c, 0, 59, 64
4, 9726, Note_on_c, 0, 59, 0
4, 9744, Note_on_c, 0, 52, 64
4, 9750, Note_on_c, 0, 52, 0
4, 9768, Note_on_c, 0, 56, 64
4, 9774, Note_on_c, 0, 56, 0
4, 9792, Note_on_c, 0, 45, 64
4, 9798, Note_on_c, 0, 45, 0
4, 9816, Note_on_c, 0, 57, 64
4, 9822, Note_on_c, 0, 57, 0
4, 9840, Note_on_c, 0, 61, 64
4, 9846, Note_on_c, 0, 61, 0
4, 9864, Note_on_c, 0, 57, 64
4, 9870, Note_on_c, 0, 57, 0
4, 9888, Note_on_c, 0, 56, 64
4, 9894, Note_on_c, 0, 56, 0
4, 9912, Note_on_c, 0, 59, 64
4, 9918, Note_on_c, 0, 59, 0
4, 9936, Note_on_c, 0, 49, 64
4, 9942, Note_on_c, 0, 49, 0
4, 9960, Note_on_c, 0, 61, 64
4, 9966, Note_on_c, 0, 61, 0
4, 9984, Note_on_c, 0, 42, 64
4, 9990, Note_on_c, 0, 42, 0
4, 10008, Note_on_c, 0, 54, 64
4, 10014, Note_on_c, 0, 54, 0
4, 10032, Note_on_c, 0, 57, 64
4, 10038, Note_on_c, 0, 57, 0
4, 10056, Note_on_c, 0, 54, 64
4, 10062, Note_on_c, 0, 54, 0
4, 10080, Note_on_c, 0, 47, 64
4, 10086, Note_on_c, 0, 47, 0
4, 10104, Note_on_c, 0, 50, 64
4, 10110, Note_on_c, 0, 50, 0
4, 10128, Note_on_c, 0, 44, 64
4, 10134, Note_on_c, 0, 44, 0
4, 10152, Note_on_c, 0, 47, 64
4, 10158, Note_on_c, 0, 47, 0
4, 10176, Note_on_c, 0, 37, 64
4, 10200, Note_on_c, 0, 37, 0
4, 10392, Note_on_c, 0, 54, 64
4, 10398, Note_on_c, 0, 54, 0
4, 10416, Note_on_c, 0, 57, 64
4, 10422, Note_on_c, 0, 57, 0
4, 10440, Note_on_c, 0, 54, 64
4, 10446, Note_on_c, 0, 54, 0
4, 10464, Note_on_c, 0, 62, 64
4, 10470, Note_on_c, 0, 62, 0
4, 10488, Note_on_c, 0, 61, 64
4, 10494, Note_on_c, 0, 61, 0
4, 10512, Note_on_c, 0, 62, 64
4, 10518, Note_on_c, 0, 62, 0
4, 10536, Note_on_c, 0, 50, 64
4, 10542, Note_on_c, 0, 50, 0
4, 10560, Note_on_c, 0, 49, 64
4, 10566, Note_on_c, 0, 49, 0
4, 10584, Note_on_c, 0, 56, 64
4, 10590, Note_on_c, 0, 56, 0
4, 10608, Note_on_c, 0, 59, 64
4, 10614, Note_on_c, 0, 59, 0
4, 10632, Note_on_c, 0, 56, 64
4, 10638, Note_on_c, 0, 56, 0
4, 10656, Note_on_c, 0, 57, 64
4, 10662, Note_on_c, 0, 57, 0
4, 10680, Note_on_c, 0, 61, 64
4, 10686, Note_on_c, 0, 61, 0
4, 10704, Note_on_c, 0, 53, 64
4, 10710, Note_on_c, 0, 53, 0
4, 10728, Note_on_c, 0, 56, 64
4, 10734, Note_on_c, 0, 56, 0
4, 10752, Note_on_c, 0, 42, 64
4, 10758, Note_on_c, 0, 42, 0
4, 10776, Note_on_c, 0, 45, 64
4, 10782, Note_on_c, 0, 45, 0
4, 10800, Note_on_c, 0, 49, 64
4, 10806, Note_on_c, 0, 49, 0
4, 10824, Note_on_c, 0, 45, 64
4, 10830, Note_on_c, 0, 45, 0
4, 10848, Note_on_c, 0, 50, 64
4, 10860, Note_on_c, 0, 50, 0
4, 10896, Note_on_c, 0, 38, 64
4, 10908, Note_on_c, 0, 38, 0
4, 10944, Note_on_c, 0, 37, 64
4, 10992, Note_on_c, 0, 37, 0
4, 10992, End_track
5, 0, Start_track
5, 0, MIDI_port, 0
5, 0, Title_t, "Sonata No. 2 en A mayor"
5, 0, End_track
6, 0, Start_track
6, 0, MIDI_port, 0
6, 0, Title_t, "para violin y clavicembalo"
6, 0, End_track
7, 0, Start_track
7, 0, MIDI_port, 0
7, 0, Title_t, "Tercer Movimiento: Andante un poco"
7, 0, End_track
8, 0, Start_track
8, 0, MIDI_port, 0
8, 0, Title_t, "J. S. Bach (1685-1750)"
8, 0, End_track
9, 0, Start_track
9, 0, MIDI_port, 0
9, 0, Title_t, "Copyright Luis Gerardo Barajas"
9, 0, End_track
10, 0, Start_track
10, 0, MIDI_port, 0
10, 0, Title_t, "*** Bach Keeps RuLiNg!!!"
10, 0, End_track
0, 0, End_of_file
