0, 0, Header, 1, 10, 96
1, 0, Start_track
1, 0, Sequencer_specific, 3, 0, 0, 65
1, 0, Time_signature, 4, 2, 24, 8
1, 0, Key_signature, -3, "major"
1, 0, Tempo, 1500000
1, 9744, Tempo, 1538462
1, 9776, Tempo, 1578947
1, 9824, Tempo, 1621622
1, 9840, Tempo, 1666667
1, 9872, Tempo, 1714286
1, 9888, Tempo, 1764706
1, 9936, Tempo, 1818182
1, 9984, Tempo, 951626
1, 9992, Tempo, 738643
1, 10008, Tempo, 695814
1, 10024, Tempo, 672420
1, 10040, Tempo, 617093
1, 10056, Tempo, 592710
1, 10072, Tempo, 564812
1, 10088, Tempo, 549300
1, 10104, Tempo, 544316
1, 10120, Tempo, 539423
1, 10136, Tempo, 529895
1, 10152, Tempo, 525256
1, 10184, Tempo, 520698
1, 10216, Tempo, 516218
1, 10232, Tempo, 564812
1, 10264, Tempo, 610811
1, 10280, Tempo, 650548
1, 10296, Tempo, 687837
1, 10312, Tempo, 729661
1, 10360, Tempo, 520698
1, 10368, Tempo, 539423
1, 10376, Tempo, 520698
1, 10376, End_track
2, 0, Start_track
2, 0, MIDI_port, 0
2, 0, Title_t, "Violin"
2, 0, Program_c, 0, 40
2, 0, Control_c, 0, 7, 127
2, 0, Note_on_c, 0, 72, 64
2, 0, Note_on_c, 0, 63, 64
2, 45, Note_on_c, 0, 63, 0
2, 45, Note_on_c, 0, 72, 0
2, 48, Note_on_c, 0, 72, 64
2, 48, Note_on_c, 0, 63, 64
2, 93, Note_on_c, 0, 63, 0
2, 93, Note_on_c, 0, 72, 0
2, 96, Note_on_c, 0, 72, 64
2, 96, Note_on_c, 0, 63, 64
2, 141, Note_on_c, 0, 63, 0
2, 141, Note_on_c, 0, 72, 0
2, 144, Note_on_c, 0, 72, 64
2, 144, Note_on_c, 0, 63, 64
2, 189, Note_on_c, 0, 63, 0
2, 189, Note_on_c, 0, 72, 0
2, 192, Note_on_c, 0, 72, 64
2, 192, Note_on_c, 0, 62, 64
2, 237, Note_on_c, 0, 62, 0
2, 237, Note_on_c, 0, 72, 0
2, 240, Note_on_c, 0, 72, 64
2, 240, Note_on_c, 0, 62, 64
2, 285, Note_on_c, 0, 62, 0
2, 285, Note_on_c, 0, 72, 0
2, 288, Note_on_c, 0, 71, 64
2, 288, Note_on_c, 0, 67, 64
2, 333, Note_on_c, 0, 67, 0
2, 333, Note_on_c, 0, 71, 0
2, 336, Note_on_c, 0, 71, 64
2, 336, Note_on_c, 0, 67, 64
2, 381, Note_on_c, 0, 67, 0
2, 381, Note_on_c, 0, 71, 0
2, 384, Note_on_c, 0, 75, 64
2, 384, Note_on_c, 0, 67, 64
2, 429, Note_on_c, 0, 67, 0
2, 429, Note_on_c, 0, 75, 0
2, 432, Note_on_c, 0, 75, 64
2, 432, Note_on_c, 0, 67, 64
2, 477, Note_on_c, 0, 67, 0
2, 477, Note_on_c, 0, 75, 0
2, 480, Note_on_c, 0, 75, 64
2, 480, Note_on_c, 0, 67, 64
2, 525, Note_on_c, 0, 67, 0
2, 525, Note_on_c, 0, 75, 0
2, 528, Note_on_c, 0, 75, 64
2, 528, Note_on_c, 0, 67, 64
2, 573, Note_on_c, 0, 67, 0
2, 573, Note_on_c, 0, 75, 0
2, 576, Note_on_c, 0, 75, 64
2, 576, Note_on_c, 0, 65, 64
2, 621, Note_on_c, 0, 65, 0
2, 621, Note_on_c, 0, 75, 0
2, 624, Note_on_c, 0, 75, 64
2, 624, Note_on_c, 0, 65, 64
2, 669, Note_on_c, 0, 65, 0
2, 669, Note_on_c, 0, 75, 0
2, 672, Note_on_c, 0, 74, 64
2, 672, Note_on_c, 0, 65, 64
2, 717, Note_on_c, 0, 65, 0
2, 717, Note_on_c, 0, 74, 0
2, 720, Note_on_c, 0, 72, 64
2, 720, Note_on_c, 0, 65, 64
2, 765, Note_on_c, 0, 65, 0
2, 765, Note_on_c, 0, 72, 0
2, 768, Note_on_c, 0, 71, 64
2, 768, Note_on_c, 0, 65, 64
2, 813, Note_on_c, 0, 65, 0
2, 813, Note_on_c, 0, 71, 0
2, 816, Note_on_c, 0, 71, 64
2, 816, Note_on_c, 0, 65, 64
2, 861, Note_on_c, 0, 65, 0
2, 861, Note_on_c, 0, 71, 0
2, 864, Note_on_c, 0, 72, 64
2, 864, Note_on_c, 0, 63, 64
2, 909, Note_on_c, 0, 63, 0
2, 909, Note_on_c, 0, 72, 0
2, 912, Note_on_c, 0, 72, 64
2, 912, Note_on_c, 0, 63, 64
2, 957, Note_on_c, 0, 63, 0
2, 957, Note_on_c, 0, 72, 0
2, 960, Note_on_c, 0, 72, 64
2, 960, Note_on_c, 0, 62, 64
2, 1005, Note_on_c, 0, 62, 0
2, 1005, Note_on_c, 0, 72, 0
2, 1008, Note_on_c, 0, 72, 64
2, 1008, Note_on_c, 0, 62, 64
2, 1053, Note_on_c, 0, 62, 0
2, 1053, Note_on_c, 0, 72, 0
2, 1056, Note_on_c, 0, 71, 64
2, 1056, Note_on_c, 0, 65, 64
2, 1101, Note_on_c, 0, 65, 0
2, 1101, Note_on_c, 0, 71, 0
2, 1104, Note_on_c, 0, 71, 64
2, 1104, Note_on_c, 0, 65, 64
2, 1149, Note_on_c, 0, 65, 0
2, 1149, Note_on_c, 0, 71, 0
2, 1152, Note_on_c, 0, 72, 64
2, 1152, Note_on_c, 0, 63, 64
2, 1197, Note_on_c, 0, 63, 0
2, 1197, Note_on_c, 0, 72, 0
2, 1200, Note_on_c, 0, 72, 64
2, 1200, Note_on_c, 0, 63, 64
2, 1245, Note_on_c, 0, 63, 0
2, 1245, Note_on_c, 0, 72, 0
2, 1248, Note_on_c, 0, 72, 64
2, 1248, Note_on_c, 0, 68, 64
2, 1293, Note_on_c, 0, 68, 0
2, 1293, Note_on_c, 0, 72, 0
2, 1296, Note_on_c, 0, 72, 64
2, 1296, Note_on_c, 0, 68, 64
2, 1341, Note_on_c, 0, 68, 0
2, 1341, Note_on_c, 0, 72, 0
2, 1344, Note_on_c, 0, 70, 64
2, 1344, Note_on_c, 0, 68, 64
2, 1389, Note_on_c, 0, 68, 0
2, 1389, Note_on_c, 0, 70, 0
2, 1392, Note_on_c, 0, 70, 64
2, 1392, Note_on_c, 0, 68, 64
2, 1437, Note_on_c, 0, 68, 0
2, 1437, Note_on_c, 0, 70, 0
2, 1440, Note_on_c, 0, 70, 64
2, 1440, Note_on_c, 0, 67, 64
2, 1485, Note_on_c, 0, 67, 0
2, 1485, Note_on_c, 0, 70, 0
2, 1488, Note_on_c, 0, 70, 64
2, 1488, Note_on_c, 0, 65, 64
2, 1533, Note_on_c, 0, 65, 0
2, 1533, Note_on_c, 0, 70, 0
2, 1536, Note_on_c, 0, 70, 64
2, 1536, Note_on_c, 0, 67, 64
2, 1581, Note_on_c, 0, 67, 0
2, 1581, Note_on_c, 0, 70, 0
2, 1584, Note_on_c, 0, 70, 64
2, 1584, Note_on_c, 0, 67, 64
2, 1629, Note_on_c, 0, 67, 0
2, 1629, Note_on_c, 0, 70, 0
2, 1632, Note_on_c, 0, 75, 64
2, 1632, Note_on_c, 0, 67, 64
2, 1677, Note_on_c, 0, 67, 0
2, 1677, Note_on_c, 0, 75, 0
2, 1680, Note_on_c, 0, 75, 64
2, 1680, Note_on_c, 0, 67, 64
2, 1725, Note_on_c, 0, 67, 0
2, 1725, Note_on_c, 0, 75, 0
2, 1728, Note_on_c, 0, 75, 64
2, 1728, Note_on_c, 0, 65, 64
2, 1773, Note_on_c, 0, 65, 0
2, 1773, Note_on_c, 0, 75, 0
2, 1776, Note_on_c, 0, 75, 64
2, 1776, Note_on_c, 0, 65, 64
2, 1821, Note_on_c, 0, 65, 0
2, 1821, Note_on_c, 0, 75, 0
2, 1824, Note_on_c, 0, 74, 64
2, 1824, Note_on_c, 0, 68, 64
2, 1869, Note_on_c, 0, 68, 0
2, 1869, Note_on_c, 0, 74, 0
2, 1872, Note_on_c, 0, 74, 64
2, 1872, Note_on_c, 0, 68, 64
2, 1917, Note_on_c, 0, 68, 0
2, 1917, Note_on_c, 0, 74, 0
2, 1920, Note_on_c, 0, 75, 64
2, 1920, Note_on_c, 0, 67, 64
2, 1965, Note_on_c, 0, 67, 0
2, 1965, Note_on_c, 0, 75, 0
2, 1968, Note_on_c, 0, 75, 64
2, 1968, Note_on_c, 0, 67, 64
2, 2013, Note_on_c, 0, 67, 0
2, 2013, Note_on_c, 0, 75, 0
2, 2016, Note_on_c, 0, 79, 64
2, 2016, Note_on_c, 0, 75, 64
2, 2061, Note_on_c, 0, 75, 0
2, 2061, Note_on_c, 0, 79, 0
2, 2064, Note_on_c, 0, 79, 64
2, 2064, Note_on_c, 0, 75, 64
2, 2109, Note_on_c, 0, 75, 0
2, 2109, Note_on_c, 0, 79, 0
2, 2112, Note_on_c, 0, 77, 64
2, 2112, Note_on_c, 0, 75, 64
2, 2157, Note_on_c, 0, 75, 0
2, 2157, Note_on_c, 0, 77, 0
2, 2160, Note_on_c, 0, 77, 64
2, 2160, Note_on_c, 0, 75, 64
2, 2205, Note_on_c, 0, 75, 0
2, 2205, Note_on_c, 0, 77, 0
2, 2208, Note_on_c, 0, 77, 64
2, 2208, Note_on_c, 0, 74, 64
2, 2253, Note_on_c, 0, 74, 0
2, 2253, Note_on_c, 0, 77, 0
2, 2256, Note_on_c, 0, 77, 64
2, 2256, Note_on_c, 0, 72, 64
2, 2301, Note_on_c, 0, 72, 0
2, 2301, Note_on_c, 0, 77, 0
2, 2304, Note_on_c, 0, 77, 64
2, 2304, Note_on_c, 0, 74, 64
2, 2349, Note_on_c, 0, 74, 0
2, 2349, Note_on_c, 0, 77, 0
2, 2352, Note_on_c, 0, 77, 64
2, 2352, Note_on_c, 0, 74, 64
2, 2397, Note_on_c, 0, 74, 0
2, 2397, Note_on_c, 0, 77, 0
2, 2400, Note_on_c, 0, 77, 64
2, 2400, Note_on_c, 0, 73, 64
2, 2445, Note_on_c, 0, 73, 0
2, 2445, Note_on_c, 0, 77, 0
2, 2448, Note_on_c, 0, 77, 64
2, 2448, Note_on_c, 0, 73, 64
2, 2493, Note_on_c, 0, 73, 0
2, 2493, Note_on_c, 0, 77, 0
2, 2496, Note_on_c, 0, 79, 64
2, 2496, Note_on_c, 0, 73, 64
2, 2541, Note_on_c, 0, 73, 0
2, 2541, Note_on_c, 0, 79, 0
2, 2544, Note_on_c, 0, 79, 64
2, 2544, Note_on_c, 0, 73, 64
2, 2589, Note_on_c, 0, 73, 0
2, 2589, Note_on_c, 0, 79, 0
2, 2592, Note_on_c, 0, 81, 64
2, 2592, Note_on_c, 0, 72, 64
2, 2637, Note_on_c, 0, 72, 0
2, 2637, Note_on_c, 0, 81, 0
2, 2640, Note_on_c, 0, 82, 64
2, 2640, Note_on_c, 0, 72, 64
2, 2685, Note_on_c, 0, 72, 0
2, 2685, Note_on_c, 0, 82, 0
2, 2688, Note_on_c, 0, 81, 64
2, 2688, Note_on_c, 0, 72, 64
2, 2733, Note_on_c, 0, 72, 0
2, 2733, Note_on_c, 0, 81, 0
2, 2736, Note_on_c, 0, 81, 64
2, 2736, Note_on_c, 0, 72, 64
2, 2781, Note_on_c, 0, 72, 0
2, 2781, Note_on_c, 0, 81, 0
2, 2784, Note_on_c, 0, 82, 64
2, 2784, Note_on_c, 0, 70, 64
2, 2829, Note_on_c, 0, 70, 0
2, 2829, Note_on_c, 0, 82, 0
2, 2832, Note_on_c, 0, 82, 64
2, 2832, Note_on_c, 0, 70, 64
2, 2877, Note_on_c, 0, 70, 0
2, 2877, Note_on_c, 0, 82, 0
2, 2880, Note_on_c, 0, 82, 64
2, 2880, Note_on_c, 0, 72, 64
2, 2925, Note_on_c, 0, 72, 0
2, 2925, Note_on_c, 0, 82, 0
2, 2928, Note_on_c, 0, 82, 64
2, 2928, Note_on_c, 0, 72, 64
2, 2973, Note_on_c, 0, 72, 0
2, 2973, Note_on_c, 0, 82, 0
2, 2976, Note_on_c, 0, 80, 64
2, 2976, Note_on_c, 0, 74, 64
2, 3021, Note_on_c, 0, 74, 0
2, 3021, Note_on_c, 0, 80, 0
2, 3024, Note_on_c, 0, 80, 64
2, 3024, Note_on_c, 0, 75, 64
2, 3069, Note_on_c, 0, 75, 0
2, 3069, Note_on_c, 0, 80, 0
2, 3072, Note_on_c, 0, 80, 64
2, 3072, Note_on_c, 0, 74, 64
2, 3117, Note_on_c, 0, 74, 0
2, 3117, Note_on_c, 0, 80, 0
2, 3120, Note_on_c, 0, 79, 64
2, 3120, Note_on_c, 0, 74, 64
2, 3165, Note_on_c, 0, 74, 0
2, 3165, Note_on_c, 0, 79, 0
2, 3168, Note_on_c, 0, 79, 64
2, 3168, Note_on_c, 0, 74, 64
2, 3213, Note_on_c, 0, 74, 0
2, 3213, Note_on_c, 0, 79, 0
2, 3216, Note_on_c, 0, 78, 64
2, 3216, Note_on_c, 0, 74, 64
2, 3261, Note_on_c, 0, 74, 0
2, 3261, Note_on_c, 0, 78, 0
2, 3264, Note_on_c, 0, 79, 64
2, 3264, Note_on_c, 0, 74, 64
2, 3309, Note_on_c, 0, 74, 0
2, 3309, Note_on_c, 0, 79, 0
2, 3312, Note_on_c, 0, 79, 64
2, 3312, Note_on_c, 0, 72, 64
2, 3357, Note_on_c, 0, 72, 0
2, 3357, Note_on_c, 0, 79, 0
2, 3360, Note_on_c, 0, 79, 64
2, 3360, Note_on_c, 0, 72, 64
2, 3405, Note_on_c, 0, 72, 0
2, 3405, Note_on_c, 0, 79, 0
2, 3408, Note_on_c, 0, 79, 64
2, 3408, Note_on_c, 0, 71, 64
2, 3453, Note_on_c, 0, 71, 0
2, 3453, Note_on_c, 0, 79, 0
2, 3456, Note_on_c, 0, 79, 64
2, 3456, Note_on_c, 0, 72, 64
2, 3501, Note_on_c, 0, 72, 0
2, 3501, Note_on_c, 0, 79, 0
2, 3504, Note_on_c, 0, 82, 64
2, 3504, Note_on_c, 0, 72, 64
2, 3549, Note_on_c, 0, 72, 0
2, 3549, Note_on_c, 0, 82, 0
2, 3552, Note_on_c, 0, 81, 64
2, 3552, Note_on_c, 0, 72, 64
2, 3597, Note_on_c, 0, 72, 0
2, 3597, Note_on_c, 0, 81, 0
2, 3600, Note_on_c, 0, 79, 64
2, 3600, Note_on_c, 0, 72, 64
2, 3645, Note_on_c, 0, 72, 0
2, 3645, Note_on_c, 0, 79, 0
2, 3648, Note_on_c, 0, 78, 64
2, 3648, Note_on_c, 0, 72, 64
2, 3693, Note_on_c, 0, 72, 0
2, 3693, Note_on_c, 0, 78, 0
2, 3696, Note_on_c, 0, 78, 64
2, 3696, Note_on_c, 0, 75, 64
2, 3741, Note_on_c, 0, 75, 0
2, 3741, Note_on_c, 0, 78, 0
2, 3744, Note_on_c, 0, 81, 64
2, 3744, Note_on_c, 0, 74, 64
2, 3789, Note_on_c, 0, 74, 0
2, 3789, Note_on_c, 0, 81, 0
2, 3792, Note_on_c, 0, 81, 64
2, 3792, Note_on_c, 0, 72, 64
2, 3837, Note_on_c, 0, 72, 0
2, 3837, Note_on_c, 0, 81, 0
2, 3840, Note_on_c, 0, 81, 64
2, 3840, Note_on_c, 0, 70, 64
2, 3885, Note_on_c, 0, 81, 0
2, 3888, Note_on_c, 0, 82, 64
2, 3929, Note_on_c, 0, 70, 0
2, 3933, Note_on_c, 0, 82, 0
2, 3936, Note_on_c, 0, 79, 64
2, 3981, Note_on_c, 0, 79, 0
2, 3984, Note_on_c, 0, 74, 64
2, 4029, Note_on_c, 0, 74, 0
2, 4032, Note_on_c, 0, 75, 64
2, 4077, Note_on_c, 0, 75, 0
2, 4080, Note_on_c, 0, 75, 64
2, 4080, Note_on_c, 0, 67, 64
2, 4125, Note_on_c, 0, 67, 0
2, 4125, Note_on_c, 0, 75, 0
2, 4128, Note_on_c, 0, 72, 64
2, 4128, Note_on_c, 0, 69, 64
2, 4173, Note_on_c, 0, 69, 0
2, 4176, Note_on_c, 0, 64, 64
2, 4221, Note_on_c, 0, 64, 0
2, 4224, Note_on_c, 0, 66, 64
2, 4269, Note_on_c, 0, 66, 0
2, 4272, Note_on_c, 0, 62, 64
2, 4313, Note_on_c, 0, 72, 0
2, 4317, Note_on_c, 0, 62, 0
2, 4320, Note_on_c, 0, 70, 64
2, 4320, Note_on_c, 0, 67, 64
2, 4365, Note_on_c, 0, 67, 0
2, 4365, Note_on_c, 0, 70, 0
2, 4368, Note_on_c, 0, 70, 64
2, 4368, Note_on_c, 0, 67, 64
2, 4413, Note_on_c, 0, 67, 0
2, 4413, Note_on_c, 0, 70, 0
2, 4416, Note_on_c, 0, 69, 64
2, 4416, Note_on_c, 0, 67, 64
2, 4461, Note_on_c, 0, 67, 0
2, 4461, Note_on_c, 0, 69, 0
2, 4464, Note_on_c, 0, 69, 64
2, 4464, Note_on_c, 0, 67, 64
2, 4509, Note_on_c, 0, 67, 0
2, 4509, Note_on_c, 0, 69, 0
2, 4512, Note_on_c, 0, 69, 64
2, 4512, Note_on_c, 0, 66, 64
2, 4557, Note_on_c, 0, 66, 0
2, 4557, Note_on_c, 0, 69, 0
2, 4560, Note_on_c, 0, 69, 64
2, 4560, Note_on_c, 0, 66, 64
2, 4605, Note_on_c, 0, 66, 0
2, 4605, Note_on_c, 0, 69, 0
2, 4608, Note_on_c, 0, 67, 64
2, 4608, Note_on_c, 0, 67, 64
2, 4653, Note_on_c, 0, 67, 0
2, 4653, Note_on_c, 0, 67, 0
2, 4656, Note_on_c, 0, 62, 64
2, 4656, Note_on_c, 0, 55, 64
2, 4701, Note_on_c, 0, 55, 0
2, 4701, Note_on_c, 0, 62, 0
2, 4704, Note_on_c, 0, 67, 64
2, 4704, Note_on_c, 0, 58, 64
2, 4749, Note_on_c, 0, 58, 0
2, 4749, Note_on_c, 0, 67, 0
2, 4752, Note_on_c, 0, 67, 64
2, 4752, Note_on_c, 0, 58, 64
2, 4797, Note_on_c, 0, 58, 0
2, 4797, Note_on_c, 0, 67, 0
2, 4800, Note_on_c, 0, 67, 64
2, 4800, Note_on_c, 0, 57, 64
2, 4845, Note_on_c, 0, 57, 0
2, 4845, Note_on_c, 0, 67, 0
2, 4848, Note_on_c, 0, 67, 64
2, 4848, Note_on_c, 0, 57, 64
2, 4893, Note_on_c, 0, 57, 0
2, 4893, Note_on_c, 0, 67, 0
2, 4896, Note_on_c, 0, 66, 64
2, 4896, Note_on_c, 0, 62, 64
2, 4941, Note_on_c, 0, 62, 0
2, 4941, Note_on_c, 0, 66, 0
2, 4944, Note_on_c, 0, 66, 64
2, 4944, Note_on_c, 0, 62, 64
2, 4989, Note_on_c, 0, 62, 0
2, 4989, Note_on_c, 0, 66, 0
2, 4992, Note_on_c, 0, 70, 64
2, 4992, Note_on_c, 0, 62, 64
2, 5037, Note_on_c, 0, 62, 0
2, 5037, Note_on_c, 0, 70, 0
2, 5040, Note_on_c, 0, 70, 64
2, 5040, Note_on_c, 0, 62, 64
2, 5085, Note_on_c, 0, 62, 0
2, 5085, Note_on_c, 0, 70, 0
2, 5088, Note_on_c, 0, 70, 64
2, 5088, Note_on_c, 0, 67, 64
2, 5133, Note_on_c, 0, 67, 0
2, 5133, Note_on_c, 0, 70, 0
2, 5136, Note_on_c, 0, 70, 64
2, 5136, Note_on_c, 0, 65, 64
2, 5181, Note_on_c, 0, 65, 0
2, 5181, Note_on_c, 0, 70, 0
2, 5184, Note_on_c, 0, 70, 64
2, 5184, Note_on_c, 0, 63, 64
2, 5229, Note_on_c, 0, 63, 0
2, 5229, Note_on_c, 0, 70, 0
2, 5232, Note_on_c, 0, 70, 64
2, 5232, Note_on_c, 0, 63, 64
2, 5277, Note_on_c, 0, 63, 0
2, 5277, Note_on_c, 0, 70, 0
2, 5280, Note_on_c, 0, 69, 64
2, 5280, Note_on_c, 0, 63, 64
2, 5325, Note_on_c, 0, 63, 0
2, 5325, Note_on_c, 0, 69, 0
2, 5328, Note_on_c, 0, 69, 64
2, 5328, Note_on_c, 0, 63, 64
2, 5373, Note_on_c, 0, 63, 0
2, 5373, Note_on_c, 0, 69, 0
2, 5376, Note_on_c, 0, 70, 64
2, 5376, Note_on_c, 0, 62, 64
2, 5421, Note_on_c, 0, 62, 0
2, 5421, Note_on_c, 0, 70, 0
2, 5424, Note_on_c, 0, 72, 64
2, 5424, Note_on_c, 0, 63, 64
2, 5469, Note_on_c, 0, 63, 0
2, 5469, Note_on_c, 0, 72, 0
2, 5472, Note_on_c, 0, 73, 64
2, 5472, Note_on_c, 0, 65, 64
2, 5517, Note_on_c, 0, 65, 0
2, 5517, Note_on_c, 0, 73, 0
2, 5520, Note_on_c, 0, 73, 64
2, 5520, Note_on_c, 0, 65, 64
2, 5565, Note_on_c, 0, 65, 0
2, 5565, Note_on_c, 0, 73, 0
2, 5568, Note_on_c, 0, 73, 64
2, 5568, Note_on_c, 0, 64, 64
2, 5613, Note_on_c, 0, 64, 0
2, 5613, Note_on_c, 0, 73, 0
2, 5616, Note_on_c, 0, 73, 64
2, 5616, Note_on_c, 0, 65, 64
2, 5661, Note_on_c, 0, 65, 0
2, 5661, Note_on_c, 0, 73, 0
2, 5664, Note_on_c, 0, 72, 64
2, 5664, Note_on_c, 0, 67, 64
2, 5709, Note_on_c, 0, 67, 0
2, 5709, Note_on_c, 0, 72, 0
2, 5712, Note_on_c, 0, 72, 64
2, 5712, Note_on_c, 0, 67, 64
2, 5757, Note_on_c, 0, 67, 0
2, 5757, Note_on_c, 0, 72, 0
2, 5760, Note_on_c, 0, 68, 64
2, 5760, Note_on_c, 0, 60, 64
2, 5805, Note_on_c, 0, 60, 0
2, 5805, Note_on_c, 0, 68, 0
2, 5808, Note_on_c, 0, 64, 64
2, 5808, Note_on_c, 0, 58, 64
2, 5853, Note_on_c, 0, 58, 0
2, 5853, Note_on_c, 0, 64, 0
2, 5856, Note_on_c, 0, 65, 64
2, 5856, Note_on_c, 0, 56, 64
2, 5901, Note_on_c, 0, 56, 0
2, 5901, Note_on_c, 0, 65, 0
2, 5904, Note_on_c, 0, 65, 64
2, 5904, Note_on_c, 0, 56, 64
2, 5949, Note_on_c, 0, 56, 0
2, 5949, Note_on_c, 0, 65, 0
2, 5952, Note_on_c, 0, 65, 64
2, 5952, Note_on_c, 0, 55, 64
2, 5997, Note_on_c, 0, 55, 0
2, 5997, Note_on_c, 0, 65, 0
2, 6000, Note_on_c, 0, 65, 64
2, 6000, Note_on_c, 0, 55, 64
2, 6045, Note_on_c, 0, 55, 0
2, 6045, Note_on_c, 0, 65, 0
2, 6048, Note_on_c, 0, 64, 64
2, 6048, Note_on_c, 0, 60, 64
2, 6093, Note_on_c, 0, 60, 0
2, 6093, Note_on_c, 0, 64, 0
2, 6096, Note_on_c, 0, 64, 64
2, 6096, Note_on_c, 0, 60, 64
2, 6141, Note_on_c, 0, 60, 0
2, 6141, Note_on_c, 0, 64, 0
2, 6144, Note_on_c, 0, 68, 64
2, 6144, Note_on_c, 0, 60, 64
2, 6189, Note_on_c, 0, 60, 0
2, 6189, Note_on_c, 0, 68, 0
2, 6192, Note_on_c, 0, 68, 64
2, 6192, Note_on_c, 0, 60, 64
2, 6237, Note_on_c, 0, 60, 0
2, 6237, Note_on_c, 0, 68, 0
2, 6240, Note_on_c, 0, 68, 64
2, 6240, Note_on_c, 0, 61, 64
2, 6285, Note_on_c, 0, 61, 0
2, 6285, Note_on_c, 0, 68, 0
2, 6288, Note_on_c, 0, 68, 64
2, 6288, Note_on_c, 0, 60, 64
2, 6333, Note_on_c, 0, 60, 0
2, 6333, Note_on_c, 0, 68, 0
2, 6336, Note_on_c, 0, 68, 64
2, 6336, Note_on_c, 0, 58, 64
2, 6381, Note_on_c, 0, 58, 0
2, 6381, Note_on_c, 0, 68, 0
2, 6384, Note_on_c, 0, 68, 64
2, 6384, Note_on_c, 0, 58, 64
2, 6429, Note_on_c, 0, 58, 0
2, 6429, Note_on_c, 0, 68, 0
2, 6432, Note_on_c, 0, 67, 64
2, 6432, Note_on_c, 0, 61, 64
2, 6477, Note_on_c, 0, 61, 0
2, 6477, Note_on_c, 0, 67, 0
2, 6480, Note_on_c, 0, 67, 64
2, 6480, Note_on_c, 0, 61, 64
2, 6525, Note_on_c, 0, 61, 0
2, 6525, Note_on_c, 0, 67, 0
2, 6528, Note_on_c, 0, 68, 64
2, 6528, Note_on_c, 0, 60, 64
2, 6573, Note_on_c, 0, 60, 0
2, 6573, Note_on_c, 0, 68, 0
2, 6576, Note_on_c, 0, 68, 64
2, 6576, Note_on_c, 0, 60, 64
2, 6621, Note_on_c, 0, 60, 0
2, 6621, Note_on_c, 0, 68, 0
2, 6624, Note_on_c, 0, 72, 64
2, 6624, Note_on_c, 0, 68, 64
2, 6669, Note_on_c, 0, 68, 0
2, 6669, Note_on_c, 0, 72, 0
2, 6672, Note_on_c, 0, 72, 64
2, 6672, Note_on_c, 0, 68, 64
2, 6717, Note_on_c, 0, 68, 0
2, 6717, Note_on_c, 0, 72, 0
2, 6720, Note_on_c, 0, 70, 64
2, 6720, Note_on_c, 0, 68, 64
2, 6765, Note_on_c, 0, 68, 0
2, 6765, Note_on_c, 0, 70, 0
2, 6768, Note_on_c, 0, 70, 64
2, 6768, Note_on_c, 0, 68, 64
2, 6813, Note_on_c, 0, 68, 0
2, 6813, Note_on_c, 0, 70, 0
2, 6816, Note_on_c, 0, 70, 64
2, 6816, Note_on_c, 0, 67, 64
2, 6861, Note_on_c, 0, 67, 0
2, 6861, Note_on_c, 0, 70, 0
2, 6864, Note_on_c, 0, 70, 64
2, 6864, Note_on_c, 0, 65, 64
2, 6909, Note_on_c, 0, 65, 0
2, 6909, Note_on_c, 0, 70, 0
2, 6912, Note_on_c, 0, 70, 64
2, 6912, Note_on_c, 0, 67, 64
2, 6957, Note_on_c, 0, 67, 0
2, 6957, Note_on_c, 0, 70, 0
2, 6960, Note_on_c, 0, 70, 64
2, 6960, Note_on_c, 0, 67, 64
2, 7005, Note_on_c, 0, 67, 0
2, 7005, Note_on_c, 0, 70, 0
2, 7008, Note_on_c, 0, 70, 64
2, 7008, Note_on_c, 0, 66, 64
2, 7053, Note_on_c, 0, 66, 0
2, 7053, Note_on_c, 0, 70, 0
2, 7056, Note_on_c, 0, 70, 64
2, 7056, Note_on_c, 0, 66, 64
2, 7101, Note_on_c, 0, 66, 0
2, 7101, Note_on_c, 0, 70, 0
2, 7104, Note_on_c, 0, 72, 64
2, 7104, Note_on_c, 0, 66, 64
2, 7149, Note_on_c, 0, 66, 0
2, 7149, Note_on_c, 0, 72, 0
2, 7152, Note_on_c, 0, 72, 64
2, 7152, Note_on_c, 0, 66, 64
2, 7197, Note_on_c, 0, 66, 0
2, 7197, Note_on_c, 0, 72, 0
2, 7200, Note_on_c, 0, 75, 64
2, 7200, Note_on_c, 0, 65, 64
2, 7245, Note_on_c, 0, 65, 0
2, 7245, Note_on_c, 0, 75, 0
2, 7248, Note_on_c, 0, 75, 64
2, 7248, Note_on_c, 0, 65, 64
2, 7293, Note_on_c, 0, 65, 0
2, 7293, Note_on_c, 0, 75, 0
2, 7296, Note_on_c, 0, 74, 64
2, 7296, Note_on_c, 0, 65, 64
2, 7341, Note_on_c, 0, 65, 0
2, 7341, Note_on_c, 0, 74, 0
2, 7344, Note_on_c, 0, 74, 64
2, 7344, Note_on_c, 0, 65, 64
2, 7389, Note_on_c, 0, 65, 0
2, 7389, Note_on_c, 0, 74, 0
2, 7392, Note_on_c, 0, 75, 64
2, 7392, Note_on_c, 0, 63, 64
2, 7437, Note_on_c, 0, 63, 0
2, 7437, Note_on_c, 0, 75, 0
2, 7440, Note_on_c, 0, 75, 64
2, 7440, Note_on_c, 0, 63, 64
2, 7485, Note_on_c, 0, 63, 0
2, 7485, Note_on_c, 0, 75, 0
2, 7488, Note_on_c, 0, 75, 64
2, 7488, Note_on_c, 0, 65, 64
2, 7533, Note_on_c, 0, 65, 0
2, 7533, Note_on_c, 0, 75, 0
2, 7536, Note_on_c, 0, 75, 64
2, 7536, Note_on_c, 0, 65, 64
2, 7581, Note_on_c, 0, 65, 0
2, 7581, Note_on_c, 0, 75, 0
2, 7584, Note_on_c, 0, 73, 64
2, 7584, Note_on_c, 0, 67, 64
2, 7629, Note_on_c, 0, 67, 0
2, 7629, Note_on_c, 0, 73, 0
2, 7632, Note_on_c, 0, 73, 64
2, 7632, Note_on_c, 0, 68, 64
2, 7677, Note_on_c, 0, 68, 0
2, 7677, Note_on_c, 0, 73, 0
2, 7680, Note_on_c, 0, 73, 64
2, 7680, Note_on_c, 0, 67, 64
2, 7725, Note_on_c, 0, 67, 0
2, 7725, Note_on_c, 0, 73, 0
2, 7728, Note_on_c, 0, 72, 64
2, 7728, Note_on_c, 0, 67, 64
2, 7773, Note_on_c, 0, 67, 0
2, 7773, Note_on_c, 0, 72, 0
2, 7776, Note_on_c, 0, 72, 64
2, 7776, Note_on_c, 0, 67, 64
2, 7821, Note_on_c, 0, 67, 0
2, 7821, Note_on_c, 0, 72, 0
2, 7824, Note_on_c, 0, 71, 64
2, 7824, Note_on_c, 0, 67, 64
2, 7869, Note_on_c, 0, 67, 0
2, 7869, Note_on_c, 0, 71, 0
2, 7872, Note_on_c, 0, 72, 64
2, 7872, Note_on_c, 0, 67, 64
2, 7917, Note_on_c, 0, 67, 0
2, 7917, Note_on_c, 0, 72, 0
2, 7920, Note_on_c, 0, 72, 64
2, 7920, Note_on_c, 0, 65, 64
2, 7965, Note_on_c, 0, 65, 0
2, 7965, Note_on_c, 0, 72, 0
2, 7968, Note_on_c, 0, 72, 64
2, 7968, Note_on_c, 0, 65, 64
2, 8013, Note_on_c, 0, 65, 0
2, 8013, Note_on_c, 0, 72, 0
2, 8016, Note_on_c, 0, 72, 64
2, 8016, Note_on_c, 0, 64, 64
2, 8061, Note_on_c, 0, 64, 0
2, 8061, Note_on_c, 0, 72, 0
2, 8064, Note_on_c, 0, 72, 64
2, 8064, Note_on_c, 0, 65, 64
2, 8109, Note_on_c, 0, 65, 0
2, 8109, Note_on_c, 0, 72, 0
2, 8112, Note_on_c, 0, 75, 64
2, 8112, Note_on_c, 0, 65, 64
2, 8157, Note_on_c, 0, 65, 0
2, 8157, Note_on_c, 0, 75, 0
2, 8160, Note_on_c, 0, 74, 64
2, 8160, Note_on_c, 0, 65, 64
2, 8205, Note_on_c, 0, 65, 0
2, 8205, Note_on_c, 0, 74, 0
2, 8208, Note_on_c, 0, 72, 64
2, 8208, Note_on_c, 0, 65, 64
2, 8253, Note_on_c, 0, 65, 0
2, 8253, Note_on_c, 0, 72, 0
2, 8256, Note_on_c, 0, 71, 64
2, 8256, Note_on_c, 0, 65, 64
2, 8301, Note_on_c, 0, 65, 0
2, 8301, Note_on_c, 0, 71, 0
2, 8304, Note_on_c, 0, 71, 64
2, 8304, Note_on_c, 0, 68, 64
2, 8349, Note_on_c, 0, 68, 0
2, 8349, Note_on_c, 0, 71, 0
2, 8352, Note_on_c, 0, 74, 64
2, 8352, Note_on_c, 0, 67, 64
2, 8397, Note_on_c, 0, 67, 0
2, 8397, Note_on_c, 0, 74, 0
2, 8400, Note_on_c, 0, 74, 64
2, 8400, Note_on_c, 0, 65, 64
2, 8445, Note_on_c, 0, 65, 0
2, 8445, Note_on_c, 0, 74, 0
2, 8448, Note_on_c, 0, 74, 64
2, 8448, Note_on_c, 0, 63, 64
2, 8493, Note_on_c, 0, 63, 0
2, 8493, Note_on_c, 0, 74, 0
2, 8496, Note_on_c, 0, 75, 64
2, 8541, Note_on_c, 0, 75, 0
2, 8544, Note_on_c, 0, 72, 64
2, 8589, Note_on_c, 0, 72, 0
2, 8592, Note_on_c, 0, 67, 64
2, 8637, Note_on_c, 0, 67, 0
2, 8640, Note_on_c, 0, 68, 64
2, 8685, Note_on_c, 0, 68, 0
2, 8688, Note_on_c, 0, 68, 64
2, 8688, Note_on_c, 0, 60, 64
2, 8733, Note_on_c, 0, 60, 0
2, 8733, Note_on_c, 0, 68, 0
2, 8736, Note_on_c, 0, 65, 64
2, 8736, Note_on_c, 0, 62, 64
2, 8781, Note_on_c, 0, 62, 0
2, 8784, Note_on_c, 0, 57, 64
2, 8829, Note_on_c, 0, 57, 0
2, 8832, Note_on_c, 0, 59, 64
2, 8877, Note_on_c, 0, 59, 0
2, 8880, Note_on_c, 0, 55, 64
2, 8921, Note_on_c, 0, 65, 0
2, 8925, Note_on_c, 0, 55, 0
2, 8928, Note_on_c, 0, 63, 64
2, 8928, Note_on_c, 0, 60, 64
2, 8973, Note_on_c, 0, 60, 0
2, 8973, Note_on_c, 0, 63, 0
2, 8976, Note_on_c, 0, 63, 64
2, 8976, Note_on_c, 0, 60, 64
2, 9021, Note_on_c, 0, 60, 0
2, 9021, Note_on_c, 0, 63, 0
2, 9024, Note_on_c, 0, 62, 64
2, 9024, Note_on_c, 0, 60, 64
2, 9069, Note_on_c, 0, 60, 0
2, 9069, Note_on_c, 0, 62, 0
2, 9072, Note_on_c, 0, 62, 64
2, 9072, Note_on_c, 0, 60, 64
2, 9117, Note_on_c, 0, 60, 0
2, 9117, Note_on_c, 0, 62, 0
2, 9120, Note_on_c, 0, 62, 64
2, 9120, Note_on_c, 0, 59, 64
2, 9165, Note_on_c, 0, 59, 0
2, 9165, Note_on_c, 0, 62, 0
2, 9168, Note_on_c, 0, 62, 64
2, 9168, Note_on_c, 0, 59, 64
2, 9213, Note_on_c, 0, 59, 0
2, 9213, Note_on_c, 0, 62, 0
2, 9216, Note_on_c, 0, 60, 64
2, 9261, Note_on_c, 0, 60, 0
2, 9264, Note_on_c, 0, 63, 64
2, 9264, Note_on_c, 0, 55, 64
2, 9309, Note_on_c, 0, 55, 0
2, 9312, Note_on_c, 0, 56, 64
2, 9357, Note_on_c, 0, 63, 0
2, 9360, Note_on_c, 0, 65, 64
2, 9383, Note_on_c, 0, 65, 0
2, 9384, Note_on_c, 0, 66, 64
2, 9401, Note_on_c, 0, 56, 0
2, 9407, Note_on_c, 0, 66, 0
2, 9408, Note_on_c, 0, 65, 64
2, 9456, Note_on_c, 0, 56, 64
2, 9501, Note_on_c, 0, 56, 0
2, 9504, Note_on_c, 0, 58, 64
2, 9549, Note_on_c, 0, 65, 0
2, 9552, Note_on_c, 0, 67, 64
2, 9575, Note_on_c, 0, 67, 0
2, 9576, Note_on_c, 0, 68, 64
2, 9599, Note_on_c, 0, 68, 0
2, 9600, Note_on_c, 0, 67, 64
2, 9645, Note_on_c, 0, 67, 0
2, 9645, Note_on_c, 0, 58, 0
2, 9648, Note_on_c, 0, 63, 64
2, 9693, Note_on_c, 0, 63, 0
2, 9696, Note_on_c, 0, 68, 64
2, 9696, Note_on_c, 0, 59, 64
2, 9741, Note_on_c, 0, 59, 0
2, 9741, Note_on_c, 0, 68, 0
2, 9744, Note_on_c, 0, 68, 64
2, 9744, Note_on_c, 0, 59, 64
2, 9789, Note_on_c, 0, 59, 0
2, 9789, Note_on_c, 0, 68, 0
2, 9792, Note_on_c, 0, 68, 64
2, 9792, Note_on_c, 0, 58, 64
2, 9837, Note_on_c, 0, 58, 0
2, 9837, Note_on_c, 0, 68, 0
2, 9840, Note_on_c, 0, 68, 64
2, 9840, Note_on_c, 0, 60, 64
2, 9885, Note_on_c, 0, 60, 0
2, 9885, Note_on_c, 0, 68, 0
2, 9888, Note_on_c, 0, 67, 64
2, 9888, Note_on_c, 0, 61, 64
2, 9933, Note_on_c, 0, 61, 0
2, 9933, Note_on_c, 0, 67, 0
2, 9936, Note_on_c, 0, 67, 64
2, 9936, Note_on_c, 0, 61, 64
2, 9981, Note_on_c, 0, 61, 0
2, 9981, Note_on_c, 0, 67, 0
2, 9984, Note_on_c, 0, 68, 64
2, 9984, Note_on_c, 0, 60, 64
2, 10338, Note_on_c, 0, 60, 0
2, 10338, Note_on_c, 0, 68, 0
2, 10338, End_track
3, 0, Start_track
3, 0, MIDI_port, 0
3, 0, Program_c, 0, 40
3, 0, Control_c, 0, 7, 127
3, 0, End_track
4, 0, Start_track
4, 0, MIDI_port, 0
4, 0, Title_t, "Clavier (RH)"
4, 0, Program_c, 1, 6
4, 0, Control_c, 1, 7, 127
4, 12, Note_on_c, 1, 68, 64
4, 24, Note_on_c, 1, 68, 0
4, 24, Note_on_c, 1, 67, 64
4, 36, Note_on_c, 1, 67, 0
4, 36, Note_on_c, 1, 65, 64
4, 48, Note_on_c, 1, 65, 0
4, 48, Note_on_c, 1, 67, 64
4, 60, Note_on_c, 1, 67, 0
4, 60, Note_on_c, 1, 63, 64
4, 72, Note_on_c, 1, 63, 0
4, 72, Note_on_c, 1, 62, 64
4, 84, Note_on_c, 1, 62, 0
4, 84, Note_on_c, 1, 60, 64
4, 96, Note_on_c, 1, 60, 0
4, 96, Note_on_c, 1, 67, 64
4, 141, Note_on_c, 1, 67, 0
4, 204, Note_on_c, 1, 75, 64
4, 216, Note_on_c, 1, 75, 0
4, 216, Note_on_c, 1, 74, 64
4, 228, Note_on_c, 1, 74, 0
4, 228, Note_on_c, 1, 72, 64
4, 240, Note_on_c, 1, 72, 0
4, 240, Note_on_c, 1, 74, 64
4, 252, Note_on_c, 1, 74, 0
4, 252, Note_on_c, 1, 68, 64
4, 264, Note_on_c, 1, 68, 0
4, 264, Note_on_c, 1, 67, 64
4, 276, Note_on_c, 1, 67, 0
4, 276, Note_on_c, 1, 65, 64
4, 288, Note_on_c, 1, 65, 0
4, 288, Note_on_c, 1, 74, 64
4, 333, Note_on_c, 1, 74, 0
4, 396, Note_on_c, 1, 74, 64
4, 408, Note_on_c, 1, 74, 0
4, 408, Note_on_c, 1, 72, 64
4, 420, Note_on_c, 1, 72, 0
4, 420, Note_on_c, 1, 71, 64
4, 432, Note_on_c, 1, 71, 0
4, 432, Note_on_c, 1, 72, 64
4, 444, Note_on_c, 1, 72, 0
4, 444, Note_on_c, 1, 71, 64
4, 456, Note_on_c, 1, 71, 0
4, 456, Note_on_c, 1, 69, 64
4, 468, Note_on_c, 1, 69, 0
4, 468, Note_on_c, 1, 67, 64
4, 480, Note_on_c, 1, 67, 0
4, 480, Note_on_c, 1, 72, 64
4, 525, Note_on_c, 1, 72, 0
4, 588, Note_on_c, 1, 73, 64
4, 600, Note_on_c, 1, 73, 0
4, 600, Note_on_c, 1, 72, 64
4, 612, Note_on_c, 1, 72, 0
4, 612, Note_on_c, 1, 70, 64
4, 624, Note_on_c, 1, 70, 0
4, 624, Note_on_c, 1, 72, 64
4, 636, Note_on_c, 1, 72, 0
4, 636, Note_on_c, 1, 70, 64
4, 648, Note_on_c, 1, 70, 0
4, 648, Note_on_c, 1, 68, 64
4, 660, Note_on_c, 1, 68, 0
4, 660, Note_on_c, 1, 67, 64
4, 672, Note_on_c, 1, 67, 0
4, 672, Note_on_c, 1, 68, 64
4, 717, Note_on_c, 1, 68, 0
4, 780, Note_on_c, 1, 75, 64
4, 792, Note_on_c, 1, 75, 0
4, 792, Note_on_c, 1, 74, 64
4, 804, Note_on_c, 1, 74, 0
4, 804, Note_on_c, 1, 72, 64
4, 816, Note_on_c, 1, 72, 0
4, 816, Note_on_c, 1, 74, 64
4, 828, Note_on_c, 1, 74, 0
4, 828, Note_on_c, 1, 71, 64
4, 840, Note_on_c, 1, 71, 0
4, 840, Note_on_c, 1, 69, 64
4, 852, Note_on_c, 1, 69, 0
4, 852, Note_on_c, 1, 67, 64
4, 864, Note_on_c, 1, 67, 0
4, 864, Note_on_c, 1, 79, 64
4, 909, Note_on_c, 1, 79, 0
4, 972, Note_on_c, 1, 70, 64
4, 984, Note_on_c, 1, 70, 0
4, 984, Note_on_c, 1, 68, 64
4, 996, Note_on_c, 1, 68, 0
4, 996, Note_on_c, 1, 67, 64
4, 1008, Note_on_c, 1, 67, 0
4, 1008, Note_on_c, 1, 68, 64
4, 1020, Note_on_c, 1, 68, 0
4, 1020, Note_on_c, 1, 65, 64
4, 1032, Note_on_c, 1, 65, 0
4, 1032, Note_on_c, 1, 63, 64
4, 1044, Note_on_c, 1, 63, 0
4, 1044, Note_on_c, 1, 62, 64
4, 1056, Note_on_c, 1, 62, 0
4, 1056, Note_on_c, 1, 74, 64
4, 1101, Note_on_c, 1, 74, 0
4, 1164, Note_on_c, 1, 80, 64
4, 1176, Note_on_c, 1, 80, 0
4, 1176, Note_on_c, 1, 79, 64
4, 1188, Note_on_c, 1, 79, 0
4, 1188, Note_on_c, 1, 77, 64
4, 1200, Note_on_c, 1, 77, 0
4, 1200, Note_on_c, 1, 79, 64
4, 1212, Note_on_c, 1, 79, 0
4, 1212, Note_on_c, 1, 77, 64
4, 1224, Note_on_c, 1, 77, 0
4, 1224, Note_on_c, 1, 75, 64
4, 1236, Note_on_c, 1, 75, 0
4, 1236, Note_on_c, 1, 74, 64
4, 1248, Note_on_c, 1, 74, 0
4, 1248, Note_on_c, 1, 75, 64
4, 1293, Note_on_c, 1, 75, 0
4, 1356, Note_on_c, 1, 79, 64
4, 1368, Note_on_c, 1, 79, 0
4, 1368, Note_on_c, 1, 77, 64
4, 1380, Note_on_c, 1, 77, 0
4, 1380, Note_on_c, 1, 75, 64
4, 1392, Note_on_c, 1, 75, 0
4, 1392, Note_on_c, 1, 77, 64
4, 1404, Note_on_c, 1, 77, 0
4, 1404, Note_on_c, 1, 75, 64
4, 1416, Note_on_c, 1, 75, 0
4, 1416, Note_on_c, 1, 74, 64
4, 1428, Note_on_c, 1, 74, 0
4, 1428, Note_on_c, 1, 72, 64
4, 1440, Note_on_c, 1, 72, 0
4, 1440, Note_on_c, 1, 74, 64
4, 1485, Note_on_c, 1, 74, 0
4, 1548, Note_on_c, 1, 77, 64
4, 1560, Note_on_c, 1, 77, 0
4, 1560, Note_on_c, 1, 75, 64
4, 1572, Note_on_c, 1, 75, 0
4, 1572, Note_on_c, 1, 74, 64
4, 1584, Note_on_c, 1, 74, 0
4, 1584, Note_on_c, 1, 75, 64
4, 1596, Note_on_c, 1, 75, 0
4, 1596, Note_on_c, 1, 74, 64
4, 1608, Note_on_c, 1, 74, 0
4, 1608, Note_on_c, 1, 72, 64
4, 1620, Note_on_c, 1, 72, 0
4, 1620, Note_on_c, 1, 71, 64
4, 1632, Note_on_c, 1, 71, 0
4, 1632, Note_on_c, 1, 72, 64
4, 1677, Note_on_c, 1, 72, 0
4, 1740, Note_on_c, 1, 73, 64
4, 1752, Note_on_c, 1, 73, 0
4, 1752, Note_on_c, 1, 72, 64
4, 1764, Note_on_c, 1, 72, 0
4, 1764, Note_on_c, 1, 70, 64
4, 1776, Note_on_c, 1, 70, 0
4, 1776, Note_on_c, 1, 72, 64
4, 1788, Note_on_c, 1, 72, 0
4, 1788, Note_on_c, 1, 68, 64
4, 1800, Note_on_c, 1, 68, 0
4, 1800, Note_on_c, 1, 67, 64
4, 1812, Note_on_c, 1, 67, 0
4, 1812, Note_on_c, 1, 65, 64
4, 1824, Note_on_c, 1, 65, 0
4, 1824, Note_on_c, 1, 77, 64
4, 1869, Note_on_c, 1, 77, 0
4, 1932, Note_on_c, 1, 72, 64
4, 1944, Note_on_c, 1, 72, 0
4, 1944, Note_on_c, 1, 70, 64
4, 1956, Note_on_c, 1, 70, 0
4, 1956, Note_on_c, 1, 68, 64
4, 1968, Note_on_c, 1, 68, 0
4, 1968, Note_on_c, 1, 70, 64
4, 1980, Note_on_c, 1, 70, 0
4, 1980, Note_on_c, 1, 68, 64
4, 1992, Note_on_c, 1, 68, 0
4, 1992, Note_on_c, 1, 67, 64
4, 2004, Note_on_c, 1, 67, 0
4, 2004, Note_on_c, 1, 65, 64
4, 2016, Note_on_c, 1, 65, 0
4, 2016, Note_on_c, 1, 63, 64
4, 2061, Note_on_c, 1, 63, 0
4, 2124, Note_on_c, 1, 74, 64
4, 2136, Note_on_c, 1, 74, 0
4, 2136, Note_on_c, 1, 72, 64
4, 2148, Note_on_c, 1, 72, 0
4, 2148, Note_on_c, 1, 70, 64
4, 2160, Note_on_c, 1, 70, 0
4, 2160, Note_on_c, 1, 72, 64
4, 2172, Note_on_c, 1, 72, 0
4, 2172, Note_on_c, 1, 70, 64
4, 2184, Note_on_c, 1, 70, 0
4, 2184, Note_on_c, 1, 69, 64
4, 2196, Note_on_c, 1, 69, 0
4, 2196, Note_on_c, 1, 67, 64
4, 2208, Note_on_c, 1, 67, 0
4, 2208, Note_on_c, 1, 69, 64
4, 2253, Note_on_c, 1, 69, 0
4, 2316, Note_on_c, 1, 72, 64
4, 2328, Note_on_c, 1, 72, 0
4, 2328, Note_on_c, 1, 70, 64
4, 2340, Note_on_c, 1, 70, 0
4, 2340, Note_on_c, 1, 69, 64
4, 2352, Note_on_c, 1, 69, 0
4, 2352, Note_on_c, 1, 70, 64
4, 2364, Note_on_c, 1, 70, 0
4, 2364, Note_on_c, 1, 69, 64
4, 2376, Note_on_c, 1, 69, 0
4, 2376, Note_on_c, 1, 67, 64
4, 2388, Note_on_c, 1, 67, 0
4, 2388, Note_on_c, 1, 65, 64
4, 2400, Note_on_c, 1, 65, 0
4, 2400, Note_on_c, 1, 70, 64
4, 2445, Note_on_c, 1, 70, 0
4, 2508, Note_on_c, 1, 60, 64
4, 2520, Note_on_c, 1, 60, 0
4, 2520, Note_on_c, 1, 58, 64
4, 2532, Note_on_c, 1, 58, 0
4, 2532, Note_on_c, 1, 57, 64
4, 2544, Note_on_c, 1, 57, 0
4, 2544, Note_on_c, 1, 58, 64
4, 2556, Note_on_c, 1, 58, 0
4, 2556, Note_on_c, 1, 55, 64
4, 2568, Note_on_c, 1, 55, 0
4, 2568, Note_on_c, 1, 53, 64
4, 2580, Note_on_c, 1, 53, 0
4, 2580, Note_on_c, 1, 51, 64
4, 2592, Note_on_c, 1, 51, 0
4, 2592, Note_on_c, 1, 64, 64
4, 2637, Note_on_c, 1, 64, 0
4, 2700, Note_on_c, 1, 61, 64
4, 2712, Note_on_c, 1, 61, 0
4, 2712, Note_on_c, 1, 60, 64
4, 2724, Note_on_c, 1, 60, 0
4, 2724, Note_on_c, 1, 58, 64
4, 2736, Note_on_c, 1, 58, 0
4, 2736, Note_on_c, 1, 60, 64
4, 2748, Note_on_c, 1, 60, 0
4, 2748, Note_on_c, 1, 57, 64
4, 2760, Note_on_c, 1, 57, 0
4, 2760, Note_on_c, 1, 55, 64
4, 2772, Note_on_c, 1, 55, 0
4, 2772, Note_on_c, 1, 53, 64
4, 2784, Note_on_c, 1, 53, 0
4, 2784, Note_on_c, 1, 65, 64
4, 2829, Note_on_c, 1, 65, 0
4, 2892, Note_on_c, 1, 68, 64
4, 2904, Note_on_c, 1, 68, 0
4, 2904, Note_on_c, 1, 67, 64
4, 2916, Note_on_c, 1, 67, 0
4, 2916, Note_on_c, 1, 65, 64
4, 2928, Note_on_c, 1, 65, 0
4, 2928, Note_on_c, 1, 67, 64
4, 2940, Note_on_c, 1, 67, 0
4, 2940, Note_on_c, 1, 64, 64
4, 2952, Note_on_c, 1, 64, 0
4, 2952, Note_on_c, 1, 62, 64
4, 2964, Note_on_c, 1, 62, 0
4, 2964, Note_on_c, 1, 60, 64
4, 2976, Note_on_c, 1, 60, 0
4, 2976, Note_on_c, 1, 65, 64
4, 3021, Note_on_c, 1, 65, 0
4, 3084, Note_on_c, 1, 75, 64
4, 3096, Note_on_c, 1, 75, 0
4, 3096, Note_on_c, 1, 74, 64
4, 3108, Note_on_c, 1, 74, 0
4, 3108, Note_on_c, 1, 72, 64
4, 3120, Note_on_c, 1, 72, 0
4, 3120, Note_on_c, 1, 74, 64
4, 3132, Note_on_c, 1, 74, 0
4, 3132, Note_on_c, 1, 72, 64
4, 3144, Note_on_c, 1, 72, 0
4, 3144, Note_on_c, 1, 70, 64
4, 3156, Note_on_c, 1, 70, 0
4, 3156, Note_on_c, 1, 69, 64
4, 3168, Note_on_c, 1, 69, 0
4, 3168, Note_on_c, 1, 70, 64
4, 3213, Note_on_c, 1, 70, 0
4, 3276, Note_on_c, 1, 77, 64
4, 3288, Note_on_c, 1, 77, 0
4, 3288, Note_on_c, 1, 75, 64
4, 3300, Note_on_c, 1, 75, 0
4, 3300, Note_on_c, 1, 74, 64
4, 3312, Note_on_c, 1, 74, 0
4, 3312, Note_on_c, 1, 75, 64
4, 3324, Note_on_c, 1, 75, 0
4, 3324, Note_on_c, 1, 74, 64
4, 3336, Note_on_c, 1, 74, 0
4, 3336, Note_on_c, 1, 72, 64
4, 3348, Note_on_c, 1, 72, 0
4, 3348, Note_on_c, 1, 71, 64
4, 3360, Note_on_c, 1, 71, 0
4, 3360, Note_on_c, 1, 75, 64
4, 3405, Note_on_c, 1, 75, 0
4, 3468, Note_on_c, 1, 74, 64
4, 3480, Note_on_c, 1, 74, 0
4, 3480, Note_on_c, 1, 72, 64
4, 3492, Note_on_c, 1, 72, 0
4, 3492, Note_on_c, 1, 70, 64
4, 3504, Note_on_c, 1, 70, 0
4, 3504, Note_on_c, 1, 72, 64
4, 3516, Note_on_c, 1, 72, 0
4, 3516, Note_on_c, 1, 70, 64
4, 3528, Note_on_c, 1, 70, 0
4, 3528, Note_on_c, 1, 69, 64
4, 3540, Note_on_c, 1, 69, 0
4, 3540, Note_on_c, 1, 67, 64
4, 3552, Note_on_c, 1, 67, 0
4, 3552, Note_on_c, 1, 72, 64
4, 3597, Note_on_c, 1, 72, 0
4, 3660, Note_on_c, 1, 82, 64
4, 3672, Note_on_c, 1, 82, 0
4, 3672, Note_on_c, 1, 81, 64
4, 3684, Note_on_c, 1, 81, 0
4, 3684, Note_on_c, 1, 79, 64
4, 3696, Note_on_c, 1, 79, 0
4, 3696, Note_on_c, 1, 81, 64
4, 3708, Note_on_c, 1, 81, 0
4, 3708, Note_on_c, 1, 79, 64
4, 3720, Note_on_c, 1, 79, 0
4, 3720, Note_on_c, 1, 78, 64
4, 3732, Note_on_c, 1, 78, 0
4, 3732, Note_on_c, 1, 76, 64
4, 3744, Note_on_c, 1, 76, 0
4, 3744, Note_on_c, 1, 78, 64
4, 3789, Note_on_c, 1, 78, 0
4, 3852, Note_on_c, 1, 75, 64
4, 3864, Note_on_c, 1, 75, 0
4, 3864, Note_on_c, 1, 74, 64
4, 3876, Note_on_c, 1, 74, 0
4, 3876, Note_on_c, 1, 72, 64
4, 3888, Note_on_c, 1, 72, 0
4, 3888, Note_on_c, 1, 74, 64
4, 3900, Note_on_c, 1, 74, 0
4, 3900, Note_on_c, 1, 72, 64
4, 3912, Note_on_c, 1, 72, 0
4, 3912, Note_on_c, 1, 70, 64
4, 3924, Note_on_c, 1, 70, 0
4, 3924, Note_on_c, 1, 69, 64
4, 3936, Note_on_c, 1, 69, 0
4, 3936, Note_on_c, 1, 70, 64
4, 3981, Note_on_c, 1, 70, 0
4, 4044, Note_on_c, 1, 74, 64
4, 4056, Note_on_c, 1, 74, 0
4, 4056, Note_on_c, 1, 72, 64
4, 4068, Note_on_c, 1, 72, 0
4, 4068, Note_on_c, 1, 71, 64
4, 4080, Note_on_c, 1, 71, 0
4, 4080, Note_on_c, 1, 72, 64
4, 4092, Note_on_c, 1, 72, 0
4, 4092, Note_on_c, 1, 70, 64
4, 4104, Note_on_c, 1, 70, 0
4, 4104, Note_on_c, 1, 69, 64
4, 4116, Note_on_c, 1, 69, 0
4, 4116, Note_on_c, 1, 67, 64
4, 4128, Note_on_c, 1, 67, 0
4, 4128, Note_on_c, 1, 72, 64
4, 4173, Note_on_c, 1, 72, 0
4, 4236, Note_on_c, 1, 70, 64
4, 4248, Note_on_c, 1, 70, 0
4, 4248, Note_on_c, 1, 69, 64
4, 4260, Note_on_c, 1, 69, 0
4, 4260, Note_on_c, 1, 67, 64
4, 4272, Note_on_c, 1, 67, 0
4, 4272, Note_on_c, 1, 69, 64
4, 4284, Note_on_c, 1, 69, 0
4, 4284, Note_on_c, 1, 67, 64
4, 4296, Note_on_c, 1, 67, 0
4, 4296, Note_on_c, 1, 66, 64
4, 4308, Note_on_c, 1, 66, 0
4, 4308, Note_on_c, 1, 64, 64
4, 4320, Note_on_c, 1, 64, 0
4, 4320, Note_on_c, 1, 62, 64
4, 4365, Note_on_c, 1, 62, 0
4, 4428, Note_on_c, 1, 66, 64
4, 4440, Note_on_c, 1, 66, 0
4, 4440, Note_on_c, 1, 63, 64
4, 4452, Note_on_c, 1, 63, 0
4, 4452, Note_on_c, 1, 62, 64
4, 4464, Note_on_c, 1, 62, 0
4, 4464, Note_on_c, 1, 63, 64
4, 4476, Note_on_c, 1, 63, 0
4, 4476, Note_on_c, 1, 62, 64
4, 4488, Note_on_c, 1, 62, 0
4, 4488, Note_on_c, 1, 60, 64
4, 4500, Note_on_c, 1, 60, 0
4, 4500, Note_on_c, 1, 58, 64
4, 4512, Note_on_c, 1, 58, 0
4, 4512, Note_on_c, 1, 57, 64
4, 4557, Note_on_c, 1, 57, 0
4, 4620, Note_on_c, 1, 63, 64
4, 4632, Note_on_c, 1, 63, 0
4, 4632, Note_on_c, 1, 62, 64
4, 4644, Note_on_c, 1, 62, 0
4, 4644, Note_on_c, 1, 60, 64
4, 4656, Note_on_c, 1, 60, 0
4, 4656, Note_on_c, 1, 62, 64
4, 4668, Note_on_c, 1, 62, 0
4, 4668, Note_on_c, 1, 58, 64
4, 4680, Note_on_c, 1, 58, 0
4, 4680, Note_on_c, 1, 57, 64
4, 4692, Note_on_c, 1, 57, 0
4, 4692, Note_on_c, 1, 55, 64
4, 4704, Note_on_c, 1, 55, 0
4, 4704, Note_on_c, 1, 62, 64
4, 4749, Note_on_c, 1, 62, 0
4, 4812, Note_on_c, 1, 74, 64
4, 4824, Note_on_c, 1, 74, 0
4, 4824, Note_on_c, 1, 72, 64
4, 4836, Note_on_c, 1, 72, 0
4, 4836, Note_on_c, 1, 70, 64
4, 4848, Note_on_c, 1, 70, 0
4, 4848, Note_on_c, 1, 72, 64
4, 4860, Note_on_c, 1, 72, 0
4, 4860, Note_on_c, 1, 70, 64
4, 4872, Note_on_c, 1, 70, 0
4, 4872, Note_on_c, 1, 69, 64
4, 4884, Note_on_c, 1, 69, 0
4, 4884, Note_on_c, 1, 67, 64
4, 4896, Note_on_c, 1, 67, 0
4, 4896, Note_on_c, 1, 69, 64
4, 4941, Note_on_c, 1, 69, 0
4, 5004, Note_on_c, 1, 72, 64
4, 5016, Note_on_c, 1, 72, 0
4, 5016, Note_on_c, 1, 70, 64
4, 5028, Note_on_c, 1, 70, 0
4, 5028, Note_on_c, 1, 69, 64
4, 5040, Note_on_c, 1, 69, 0
4, 5040, Note_on_c, 1, 70, 64
4, 5052, Note_on_c, 1, 70, 0
4, 5052, Note_on_c, 1, 69, 64
4, 5064, Note_on_c, 1, 69, 0
4, 5064, Note_on_c, 1, 67, 64
4, 5076, Note_on_c, 1, 67, 0
4, 5076, Note_on_c, 1, 66, 64
4, 5088, Note_on_c, 1, 66, 0
4, 5088, Note_on_c, 1, 67, 64
4, 5133, Note_on_c, 1, 67, 0
4, 5196, Note_on_c, 1, 68, 64
4, 5208, Note_on_c, 1, 68, 0
4, 5208, Note_on_c, 1, 67, 64
4, 5220, Note_on_c, 1, 67, 0
4, 5220, Note_on_c, 1, 66, 64
4, 5232, Note_on_c, 1, 66, 0
4, 5232, Note_on_c, 1, 67, 64
4, 5244, Note_on_c, 1, 67, 0
4, 5244, Note_on_c, 1, 63, 64
4, 5256, Note_on_c, 1, 63, 0
4, 5256, Note_on_c, 1, 62, 64
4, 5268, Note_on_c, 1, 62, 0
4, 5268, Note_on_c, 1, 60, 64
4, 5280, Note_on_c, 1, 60, 0
4, 5280, Note_on_c, 1, 72, 64
4, 5325, Note_on_c, 1, 72, 0
4, 5388, Note_on_c, 1, 79, 64
4, 5400, Note_on_c, 1, 79, 0
4, 5400, Note_on_c, 1, 77, 64
4, 5412, Note_on_c, 1, 77, 0
4, 5412, Note_on_c, 1, 75, 64
4, 5424, Note_on_c, 1, 75, 0
4, 5424, Note_on_c, 1, 77, 64
4, 5436, Note_on_c, 1, 77, 0
4, 5436, Note_on_c, 1, 75, 64
4, 5448, Note_on_c, 1, 75, 0
4, 5448, Note_on_c, 1, 74, 64
4, 5460, Note_on_c, 1, 74, 0
4, 5460, Note_on_c, 1, 72, 64
4, 5472, Note_on_c, 1, 72, 0
4, 5472, Note_on_c, 1, 70, 64
4, 5517, Note_on_c, 1, 70, 0
4, 5580, Note_on_c, 1, 84, 64
4, 5592, Note_on_c, 1, 84, 0
4, 5592, Note_on_c, 1, 82, 64
4, 5604, Note_on_c, 1, 82, 0
4, 5604, Note_on_c, 1, 80, 64
4, 5616, Note_on_c, 1, 80, 0
4, 5616, Note_on_c, 1, 82, 64
4, 5628, Note_on_c, 1, 82, 0
4, 5628, Note_on_c, 1, 80, 64
4, 5640, Note_on_c, 1, 80, 0
4, 5640, Note_on_c, 1, 79, 64
4, 5652, Note_on_c, 1, 79, 0
4, 5652, Note_on_c, 1, 77, 64
4, 5664, Note_on_c, 1, 77, 0
4, 5664, Note_on_c, 1, 76, 64
4, 5709, Note_on_c, 1, 76, 0
4, 5772, Note_on_c, 1, 80, 64
4, 5784, Note_on_c, 1, 80, 0
4, 5784, Note_on_c, 1, 79, 64
4, 5796, Note_on_c, 1, 79, 0
4, 5796, Note_on_c, 1, 77, 64
4, 5808, Note_on_c, 1, 77, 0
4, 5808, Note_on_c, 1, 79, 64
4, 5820, Note_on_c, 1, 79, 0
4, 5820, Note_on_c, 1, 76, 64
4, 5832, Note_on_c, 1, 76, 0
4, 5832, Note_on_c, 1, 74, 64
4, 5844, Note_on_c, 1, 74, 0
4, 5844, Note_on_c, 1, 72, 64
4, 5856, Note_on_c, 1, 72, 0
4, 5856, Note_on_c, 1, 80, 64
4, 5901, Note_on_c, 1, 80, 0
4, 5964, Note_on_c, 1, 75, 64
4, 5976, Note_on_c, 1, 75, 0
4, 5976, Note_on_c, 1, 73, 64
4, 5988, Note_on_c, 1, 73, 0
4, 5988, Note_on_c, 1, 72, 64
4, 6000, Note_on_c, 1, 72, 0
4, 6000, Note_on_c, 1, 73, 64
4, 6012, Note_on_c, 1, 73, 0
4, 6012, Note_on_c, 1, 70, 64
4, 6024, Note_on_c, 1, 70, 0
4, 6024, Note_on_c, 1, 68, 64
4, 6036, Note_on_c, 1, 68, 0
4, 6036, Note_on_c, 1, 67, 64
4, 6048, Note_on_c, 1, 67, 0
4, 6048, Note_on_c, 1, 79, 64
4, 6093, Note_on_c, 1, 79, 0
4, 6156, Note_on_c, 1, 79, 64
4, 6168, Note_on_c, 1, 79, 0
4, 6168, Note_on_c, 1, 77, 64
4, 6180, Note_on_c, 1, 77, 0
4, 6180, Note_on_c, 1, 76, 64
4, 6192, Note_on_c, 1, 76, 0
4, 6192, Note_on_c, 1, 77, 64
4, 6204, Note_on_c, 1, 77, 0
4, 6204, Note_on_c, 1, 76, 64
4, 6216, Note_on_c, 1, 76, 0
4, 6216, Note_on_c, 1, 74, 64
4, 6228, Note_on_c, 1, 74, 0
4, 6228, Note_on_c, 1, 72, 64
4, 6240, Note_on_c, 1, 72, 0
4, 6240, Note_on_c, 1, 77, 64
4, 6285, Note_on_c, 1, 77, 0
4, 6348, Note_on_c, 1, 65, 64
4, 6360, Note_on_c, 1, 65, 0
4, 6360, Note_on_c, 1, 63, 64
4, 6372, Note_on_c, 1, 63, 0
4, 6372, Note_on_c, 1, 61, 64
4, 6384, Note_on_c, 1, 61, 0
4, 6384, Note_on_c, 1, 63, 64
4, 6396, Note_on_c, 1, 63, 0
4, 6396, Note_on_c, 1, 61, 64
4, 6408, Note_on_c, 1, 61, 0
4, 6408, Note_on_c, 1, 60, 64
4, 6420, Note_on_c, 1, 60, 0
4, 6420, Note_on_c, 1, 58, 64
4, 6432, Note_on_c, 1, 58, 0
4, 6432, Note_on_c, 1, 70, 64
4, 6477, Note_on_c, 1, 70, 0
4, 6540, Note_on_c, 1, 77, 64
4, 6552, Note_on_c, 1, 77, 0
4, 6552, Note_on_c, 1, 75, 64
4, 6564, Note_on_c, 1, 75, 0
4, 6564, Note_on_c, 1, 73, 64
4, 6576, Note_on_c, 1, 73, 0
4, 6576, Note_on_c, 1, 75, 64
4, 6588, Note_on_c, 1, 75, 0
4, 6588, Note_on_c, 1, 73, 64
4, 6600, Note_on_c, 1, 73, 0
4, 6600, Note_on_c, 1, 72, 64
4, 6612, Note_on_c, 1, 72, 0
4, 6612, Note_on_c, 1, 70, 64
4, 6624, Note_on_c, 1, 70, 0
4, 6624, Note_on_c, 1, 72, 64
4, 6669, Note_on_c, 1, 72, 0
4, 6732, Note_on_c, 1, 79, 64
4, 6744, Note_on_c, 1, 79, 0
4, 6744, Note_on_c, 1, 77, 64
4, 6756, Note_on_c, 1, 77, 0
4, 6756, Note_on_c, 1, 75, 64
4, 6768, Note_on_c, 1, 75, 0
4, 6768, Note_on_c, 1, 77, 64
4, 6780, Note_on_c, 1, 77, 0
4, 6780, Note_on_c, 1, 75, 64
4, 6792, Note_on_c, 1, 75, 0
4, 6792, Note_on_c, 1, 74, 64
4, 6804, Note_on_c, 1, 74, 0
4, 6804, Note_on_c, 1, 72, 64
4, 6816, Note_on_c, 1, 72, 0
4, 6816, Note_on_c, 1, 74, 64
4, 6861, Note_on_c, 1, 74, 0
4, 6924, Note_on_c, 1, 77, 64
4, 6936, Note_on_c, 1, 77, 0
4, 6936, Note_on_c, 1, 75, 64
4, 6948, Note_on_c, 1, 75, 0
4, 6948, Note_on_c, 1, 74, 64
4, 6960, Note_on_c, 1, 74, 0
4, 6960, Note_on_c, 1, 75, 64
4, 6972, Note_on_c, 1, 75, 0
4, 6972, Note_on_c, 1, 74, 64
4, 6984, Note_on_c, 1, 74, 0
4, 6984, Note_on_c, 1, 72, 64
4, 6996, Note_on_c, 1, 72, 0
4, 6996, Note_on_c, 1, 70, 64
4, 7008, Note_on_c, 1, 70, 0
4, 7008, Note_on_c, 1, 75, 64
4, 7053, Note_on_c, 1, 75, 0
4, 7116, Note_on_c, 1, 65, 64
4, 7128, Note_on_c, 1, 65, 0
4, 7128, Note_on_c, 1, 63, 64
4, 7140, Note_on_c, 1, 63, 0
4, 7140, Note_on_c, 1, 61, 64
4, 7152, Note_on_c, 1, 61, 0
4, 7152, Note_on_c, 1, 63, 64
4, 7164, Note_on_c, 1, 63, 0
4, 7164, Note_on_c, 1, 61, 64
4, 7176, Note_on_c, 1, 61, 0
4, 7176, Note_on_c, 1, 60, 64
4, 7188, Note_on_c, 1, 60, 0
4, 7188, Note_on_c, 1, 58, 64
4, 7200, Note_on_c, 1, 58, 0
4, 7200, Note_on_c, 1, 57, 64
4, 7245, Note_on_c, 1, 57, 0
4, 7308, Note_on_c, 1, 72, 64
4, 7320, Note_on_c, 1, 72, 0
4, 7320, Note_on_c, 1, 70, 64
4, 7332, Note_on_c, 1, 70, 0
4, 7332, Note_on_c, 1, 68, 64
4, 7344, Note_on_c, 1, 68, 0
4, 7344, Note_on_c, 1, 70, 64
4, 7356, Note_on_c, 1, 70, 0
4, 7356, Note_on_c, 1, 68, 64
4, 7368, Note_on_c, 1, 68, 0
4, 7368, Note_on_c, 1, 67, 64
4, 7380, Note_on_c, 1, 67, 0
4, 7380, Note_on_c, 1, 65, 64
4, 7392, Note_on_c, 1, 65, 0
4, 7392, Note_on_c, 1, 70, 64
4, 7437, Note_on_c, 1, 70, 0
4, 7500, Note_on_c, 1, 73, 64
4, 7512, Note_on_c, 1, 73, 0
4, 7512, Note_on_c, 1, 72, 64
4, 7524, Note_on_c, 1, 72, 0
4, 7524, Note_on_c, 1, 70, 64
4, 7536, Note_on_c, 1, 70, 0
4, 7536, Note_on_c, 1, 72, 64
4, 7548, Note_on_c, 1, 72, 0
4, 7548, Note_on_c, 1, 70, 64
4, 7560, Note_on_c, 1, 70, 0
4, 7560, Note_on_c, 1, 69, 64
4, 7572, Note_on_c, 1, 69, 0
4, 7572, Note_on_c, 1, 67, 64
4, 7584, Note_on_c, 1, 67, 0
4, 7584, Note_on_c, 1, 65, 64
4, 7629, Note_on_c, 1, 65, 0
4, 7692, Note_on_c, 1, 79, 64
4, 7704, Note_on_c, 1, 79, 0
4, 7704, Note_on_c, 1, 77, 64
4, 7716, Note_on_c, 1, 77, 0
4, 7716, Note_on_c, 1, 75, 64
4, 7728, Note_on_c, 1, 75, 0
4, 7728, Note_on_c, 1, 77, 64
4, 7740, Note_on_c, 1, 77, 0
4, 7740, Note_on_c, 1, 75, 64
4, 7752, Note_on_c, 1, 75, 0
4, 7752, Note_on_c, 1, 74, 64
4, 7764, Note_on_c, 1, 74, 0
4, 7764, Note_on_c, 1, 72, 64
4, 7776, Note_on_c, 1, 72, 0
4, 7776, Note_on_c, 1, 80, 64
4, 7821, Note_on_c, 1, 80, 0
4, 7884, Note_on_c, 1, 75, 64
4, 7896, Note_on_c, 1, 75, 0
4, 7896, Note_on_c, 1, 74, 64
4, 7908, Note_on_c, 1, 74, 0
4, 7908, Note_on_c, 1, 72, 64
4, 7920, Note_on_c, 1, 72, 0
4, 7920, Note_on_c, 1, 74, 64
4, 7932, Note_on_c, 1, 74, 0
4, 7932, Note_on_c, 1, 72, 64
4, 7944, Note_on_c, 1, 72, 0
4, 7944, Note_on_c, 1, 71, 64
4, 7956, Note_on_c, 1, 71, 0
4, 7956, Note_on_c, 1, 69, 64
4, 7968, Note_on_c, 1, 69, 0
4, 7968, Note_on_c, 1, 71, 64
4, 8013, Note_on_c, 1, 71, 0
4, 8076, Note_on_c, 1, 68, 64
4, 8088, Note_on_c, 1, 68, 0
4, 8088, Note_on_c, 1, 67, 64
4, 8100, Note_on_c, 1, 67, 0
4, 8100, Note_on_c, 1, 65, 64
4, 8112, Note_on_c, 1, 65, 0
4, 8112, Note_on_c, 1, 67, 64
4, 8124, Note_on_c, 1, 67, 0
4, 8124, Note_on_c, 1, 65, 64
4, 8136, Note_on_c, 1, 65, 0
4, 8136, Note_on_c, 1, 63, 64
4, 8148, Note_on_c, 1, 63, 0
4, 8148, Note_on_c, 1, 62, 64
4, 8160, Note_on_c, 1, 62, 0
4, 8160, Note_on_c, 1, 63, 64
4, 8205, Note_on_c, 1, 63, 0
4, 8268, Note_on_c, 1, 67, 64
4, 8280, Note_on_c, 1, 67, 0
4, 8280, Note_on_c, 1, 65, 64
4, 8292, Note_on_c, 1, 65, 0
4, 8292, Note_on_c, 1, 63, 64
4, 8304, Note_on_c, 1, 63, 0
4, 8304, Note_on_c, 1, 65, 64
4, 8316, Note_on_c, 1, 65, 0
4, 8316, Note_on_c, 1, 63, 64
4, 8328, Note_on_c, 1, 63, 0
4, 8328, Note_on_c, 1, 62, 64
4, 8340, Note_on_c, 1, 62, 0
4, 8340, Note_on_c, 1, 60, 64
4, 8352, Note_on_c, 1, 60, 0
4, 8352, Note_on_c, 1, 65, 64
4, 8397, Note_on_c, 1, 65, 0
4, 8460, Note_on_c, 1, 79, 64
4, 8472, Note_on_c, 1, 79, 0
4, 8472, Note_on_c, 1, 77, 64
4, 8484, Note_on_c, 1, 77, 0
4, 8484, Note_on_c, 1, 75, 64
4, 8496, Note_on_c, 1, 75, 0
4, 8496, Note_on_c, 1, 77, 64
4, 8508, Note_on_c, 1, 77, 0
4, 8508, Note_on_c, 1, 75, 64
4, 8520, Note_on_c, 1, 75, 0
4, 8520, Note_on_c, 1, 74, 64
4, 8532, Note_on_c, 1, 74, 0
4, 8532, Note_on_c, 1, 72, 64
4, 8544, Note_on_c, 1, 72, 0
4, 8544, Note_on_c, 1, 70, 64
4, 8589, Note_on_c, 1, 70, 0
4, 8652, Note_on_c, 1, 84, 64
4, 8664, Note_on_c, 1, 84, 0
4, 8664, Note_on_c, 1, 82, 64
4, 8676, Note_on_c, 1, 82, 0
4, 8676, Note_on_c, 1, 80, 64
4, 8688, Note_on_c, 1, 80, 0
4, 8688, Note_on_c, 1, 82, 64
4, 8700, Note_on_c, 1, 82, 0
4, 8700, Note_on_c, 1, 80, 64
4, 8712, Note_on_c, 1, 80, 0
4, 8712, Note_on_c, 1, 79, 64
4, 8724, Note_on_c, 1, 79, 0
4, 8724, Note_on_c, 1, 77, 64
4, 8736, Note_on_c, 1, 77, 0
4, 8736, Note_on_c, 1, 76, 64
4, 8781, Note_on_c, 1, 76, 0
4, 8844, Note_on_c, 1, 63, 64
4, 8856, Note_on_c, 1, 63, 0
4, 8856, Note_on_c, 1, 62, 64
4, 8868, Note_on_c, 1, 62, 0
4, 8868, Note_on_c, 1, 60, 64
4, 8880, Note_on_c, 1, 60, 0
4, 8880, Note_on_c, 1, 62, 64
4, 8892, Note_on_c, 1, 62, 0
4, 8892, Note_on_c, 1, 60, 64
4, 8904, Note_on_c, 1, 60, 0
4, 8904, Note_on_c, 1, 59, 64
4, 8916, Note_on_c, 1, 59, 0
4, 8916, Note_on_c, 1, 57, 64
4, 8928, Note_on_c, 1, 57, 0
4, 8928, Note_on_c, 1, 55, 64
4, 8973, Note_on_c, 1, 55, 0
4, 9036, Note_on_c, 1, 58, 64
4, 9048, Note_on_c, 1, 58, 0
4, 9048, Note_on_c, 1, 56, 64
4, 9060, Note_on_c, 1, 56, 0
4, 9060, Note_on_c, 1, 55, 64
4, 9072, Note_on_c, 1, 55, 0
4, 9072, Note_on_c, 1, 56, 64
4, 9084, Note_on_c, 1, 56, 0
4, 9084, Note_on_c, 1, 55, 64
4, 9096, Note_on_c, 1, 55, 0
4, 9096, Note_on_c, 1, 53, 64
4, 9108, Note_on_c, 1, 53, 0
4, 9108, Note_on_c, 1, 51, 64
4, 9120, Note_on_c, 1, 51, 0
4, 9120, Note_on_c, 1, 50, 64
4, 9165, Note_on_c, 1, 50, 0
4, 9228, Note_on_c, 1, 68, 64
4, 9240, Note_on_c, 1, 68, 0
4, 9240, Note_on_c, 1, 67, 64
4, 9252, Note_on_c, 1, 67, 0
4, 9252, Note_on_c, 1, 65, 64
4, 9264, Note_on_c, 1, 65, 0
4, 9264, Note_on_c, 1, 67, 64
4, 9276, Note_on_c, 1, 67, 0
4, 9276, Note_on_c, 1, 63, 64
4, 9288, Note_on_c, 1, 63, 0
4, 9288, Note_on_c, 1, 62, 64
4, 9300, Note_on_c, 1, 62, 0
4, 9300, Note_on_c, 1, 60, 64
4, 9312, Note_on_c, 1, 60, 0
4, 9312, Note_on_c, 1, 72, 64
4, 9357, Note_on_c, 1, 72, 0
4, 9420, Note_on_c, 1, 70, 64
4, 9432, Note_on_c, 1, 70, 0
4, 9432, Note_on_c, 1, 68, 64
4, 9444, Note_on_c, 1, 68, 0
4, 9444, Note_on_c, 1, 66, 64
4, 9456, Note_on_c, 1, 66, 0
4, 9456, Note_on_c, 1, 68, 64
4, 9468, Note_on_c, 1, 68, 0
4, 9468, Note_on_c, 1, 65, 64
4, 9480, Note_on_c, 1, 65, 0
4, 9480, Note_on_c, 1, 63, 64
4, 9492, Note_on_c, 1, 63, 0
4, 9492, Note_on_c, 1, 61, 64
4, 9504, Note_on_c, 1, 61, 0
4, 9504, Note_on_c, 1, 73, 64
4, 9549, Note_on_c, 1, 73, 0
4, 9612, Note_on_c, 1, 72, 64
4, 9624, Note_on_c, 1, 72, 0
4, 9624, Note_on_c, 1, 70, 64
4, 9636, Note_on_c, 1, 70, 0
4, 9636, Note_on_c, 1, 68, 64
4, 9648, Note_on_c, 1, 68, 0
4, 9648, Note_on_c, 1, 70, 64
4, 9660, Note_on_c, 1, 70, 0
4, 9660, Note_on_c, 1, 67, 64
4, 9672, Note_on_c, 1, 67, 0
4, 9672, Note_on_c, 1, 65, 64
4, 9684, Note_on_c, 1, 65, 0
4, 9684, Note_on_c, 1, 63, 64
4, 9696, Note_on_c, 1, 63, 0
4, 9696, Note_on_c, 1, 77, 64
4, 9741, Note_on_c, 1, 77, 0
4, 9804, Note_on_c, 1, 77, 64
4, 9816, Note_on_c, 1, 77, 0
4, 9816, Note_on_c, 1, 75, 64
4, 9828, Note_on_c, 1, 75, 0
4, 9828, Note_on_c, 1, 73, 64
4, 9840, Note_on_c, 1, 73, 0
4, 9840, Note_on_c, 1, 75, 64
4, 9852, Note_on_c, 1, 75, 0
4, 9852, Note_on_c, 1, 72, 64
4, 9864, Note_on_c, 1, 72, 0
4, 9864, Note_on_c, 1, 70, 64
4, 9876, Note_on_c, 1, 70, 0
4, 9876, Note_on_c, 1, 68, 64
4, 9888, Note_on_c, 1, 68, 0
4, 9888, Note_on_c, 1, 70, 64
4, 9900, Note_on_c, 1, 70, 0
4, 9900, Note_on_c, 1, 68, 64
4, 9912, Note_on_c, 1, 68, 0
4, 9912, Note_on_c, 1, 67, 64
4, 9924, Note_on_c, 1, 67, 0
4, 9924, Note_on_c, 1, 65, 64
4, 9936, Note_on_c, 1, 65, 0
4, 9936, Note_on_c, 1, 63, 64
4, 9948, Note_on_c, 1, 63, 0
4, 9948, Note_on_c, 1, 61, 64
4, 9960, Note_on_c, 1, 61, 0
4, 9960, Note_on_c, 1, 60, 64
4, 9972, Note_on_c, 1, 60, 0
4, 9972, Note_on_c, 1, 58, 64
4, 9984, Note_on_c, 1, 58, 0
4, 9984, Note_on_c, 1, 56, 64
4, 10338, Note_on_c, 1, 56, 0
4, 10338, End_track
5, 0, Start_track
5, 0, MIDI_port, 0
5, 0, Title_t, "Clavier (LH)"
5, 0, Program_c, 1, 6
5, 0, Note_on_c, 1, 48, 64
5, 45, Note_on_c, 1, 48, 0
5, 108, Note_on_c, 1, 48, 64
5, 120, Note_on_c, 1, 48, 0
5, 120, Note_on_c, 1, 51, 64
5, 132, Note_on_c, 1, 51, 0
5, 132, Note_on_c, 1, 55, 64
5, 144, Note_on_c, 1, 55, 0
5, 144, Note_on_c, 1, 60, 64
5, 156, Note_on_c, 1, 60, 0
5, 156, Note_on_c, 1, 55, 64
5, 168, Note_on_c, 1, 55, 0
5, 168, Note_on_c, 1, 51, 64
5, 180, Note_on_c, 1, 51, 0
5, 180, Note_on_c, 1, 48, 64
5, 192, Note_on_c, 1, 48, 0
5, 192, Note_on_c, 1, 55, 64
5, 237, Note_on_c, 1, 55, 0
5, 300, Note_on_c, 1, 43, 64
5, 312, Note_on_c, 1, 43, 0
5, 312, Note_on_c, 1, 47, 64
5, 324, Note_on_c, 1, 47, 0
5, 324, Note_on_c, 1, 50, 64
5, 336, Note_on_c, 1, 50, 0
5, 336, Note_on_c, 1, 55, 64
5, 348, Note_on_c, 1, 55, 0
5, 348, Note_on_c, 1, 50, 64
5, 360, Note_on_c, 1, 50, 0
5, 360, Note_on_c, 1, 47, 64
5, 372, Note_on_c, 1, 47, 0
5, 372, Note_on_c, 1, 43, 64
5, 384, Note_on_c, 1, 43, 0
5, 384, Note_on_c, 1, 48, 64
5, 429, Note_on_c, 1, 48, 0
5, 492, Note_on_c, 1, 48, 64
5, 504, Note_on_c, 1, 48, 0
5, 504, Note_on_c, 1, 51, 64
5, 516, Note_on_c, 1, 51, 0
5, 516, Note_on_c, 1, 55, 64
5, 528, Note_on_c, 1, 55, 0
5, 528, Note_on_c, 1, 60, 64
5, 540, Note_on_c, 1, 60, 0
5, 540, Note_on_c, 1, 55, 64
5, 552, Note_on_c, 1, 55, 0
5, 552, Note_on_c, 1, 51, 64
5, 564, Note_on_c, 1, 51, 0
5, 564, Note_on_c, 1, 48, 64
5, 576, Note_on_c, 1, 48, 0
5, 576, Note_on_c, 1, 56, 64
5, 621, Note_on_c, 1, 56, 0
5, 684, Note_on_c, 1, 50, 64
5, 696, Note_on_c, 1, 50, 0
5, 696, Note_on_c, 1, 53, 64
5, 708, Note_on_c, 1, 53, 0
5, 708, Note_on_c, 1, 56, 64
5, 720, Note_on_c, 1, 56, 0
5, 720, Note_on_c, 1, 62, 64
5, 732, Note_on_c, 1, 62, 0
5, 732, Note_on_c, 1, 56, 64
5, 744, Note_on_c, 1, 56, 0
5, 744, Note_on_c, 1, 53, 64
5, 756, Note_on_c, 1, 53, 0
5, 756, Note_on_c, 1, 50, 64
5, 768, Note_on_c, 1, 50, 0
5, 768, Note_on_c, 1, 55, 64
5, 813, Note_on_c, 1, 55, 0
5, 876, Note_on_c, 1, 48, 64
5, 888, Note_on_c, 1, 48, 0
5, 888, Note_on_c, 1, 51, 64
5, 900, Note_on_c, 1, 51, 0
5, 900, Note_on_c, 1, 55, 64
5, 912, Note_on_c, 1, 55, 0
5, 912, Note_on_c, 1, 60, 64
5, 924, Note_on_c, 1, 60, 0
5, 924, Note_on_c, 1, 55, 64
5, 936, Note_on_c, 1, 55, 0
5, 936, Note_on_c, 1, 51, 64
5, 948, Note_on_c, 1, 51, 0
5, 948, Note_on_c, 1, 48, 64
5, 960, Note_on_c, 1, 48, 0
5, 960, Note_on_c, 1, 53, 64
5, 1005, Note_on_c, 1, 53, 0
5, 1068, Note_on_c, 1, 43, 64
5, 1080, Note_on_c, 1, 43, 0
5, 1080, Note_on_c, 1, 47, 64
5, 1092, Note_on_c, 1, 47, 0
5, 1092, Note_on_c, 1, 50, 64
5, 1104, Note_on_c, 1, 50, 0
5, 1104, Note_on_c, 1, 55, 64
5, 1116, Note_on_c, 1, 55, 0
5, 1116, Note_on_c, 1, 50, 64
5, 1128, Note_on_c, 1, 50, 0
5, 1128, Note_on_c, 1, 47, 64
5, 1140, Note_on_c, 1, 47, 0
5, 1140, Note_on_c, 1, 43, 64
5, 1152, Note_on_c, 1, 43, 0
5, 1152, Note_on_c, 1, 48, 64
5, 1197, Note_on_c, 1, 48, 0
5, 1260, Note_on_c, 1, 48, 64
5, 1272, Note_on_c, 1, 48, 0
5, 1272, Note_on_c, 1, 51, 64
5, 1284, Note_on_c, 1, 51, 0
5, 1284, Note_on_c, 1, 55, 64
5, 1296, Note_on_c, 1, 55, 0
5, 1296, Note_on_c, 1, 60, 64
5, 1308, Note_on_c, 1, 60, 0
5, 1308, Note_on_c, 1, 55, 64
5, 1320, Note_on_c, 1, 55, 0
5, 1320, Note_on_c, 1, 51, 64
5, 1332, Note_on_c, 1, 51, 0
5, 1332, Note_on_c, 1, 48, 64
5, 1344, Note_on_c, 1, 48, 0
5, 1344, Note_on_c, 1, 50, 64
5, 1389, Note_on_c, 1, 50, 0
5, 1452, Note_on_c, 1, 46, 64
5, 1464, Note_on_c, 1, 46, 0
5, 1464, Note_on_c, 1, 50, 64
5, 1476, Note_on_c, 1, 50, 0
5, 1476, Note_on_c, 1, 53, 64
5, 1488, Note_on_c, 1, 53, 0
5, 1488, Note_on_c, 1, 58, 64
5, 1500, Note_on_c, 1, 58, 0
5, 1500, Note_on_c, 1, 53, 64
5, 1512, Note_on_c, 1, 53, 0
5, 1512, Note_on_c, 1, 50, 64
5, 1524, Note_on_c, 1, 50, 0
5, 1524, Note_on_c, 1, 46, 64
5, 1536, Note_on_c, 1, 46, 0
5, 1536, Note_on_c, 1, 51, 64
5, 1581, Note_on_c, 1, 51, 0
5, 1644, Note_on_c, 1, 48, 64
5, 1656, Note_on_c, 1, 48, 0
5, 1656, Note_on_c, 1, 51, 64
5, 1668, Note_on_c, 1, 51, 0
5, 1668, Note_on_c, 1, 55, 64
5, 1680, Note_on_c, 1, 55, 0
5, 1680, Note_on_c, 1, 60, 64
5, 1692, Note_on_c, 1, 60, 0
5, 1692, Note_on_c, 1, 55, 64
5, 1704, Note_on_c, 1, 55, 0
5, 1704, Note_on_c, 1, 51, 64
5, 1716, Note_on_c, 1, 51, 0
5, 1716, Note_on_c, 1, 48, 64
5, 1728, Note_on_c, 1, 48, 0
5, 1728, Note_on_c, 1, 56, 64
5, 1773, Note_on_c, 1, 56, 0
5, 1836, Note_on_c, 1, 46, 64
5, 1848, Note_on_c, 1, 46, 0
5, 1848, Note_on_c, 1, 50, 64
5, 1860, Note_on_c, 1, 50, 0
5, 1860, Note_on_c, 1, 53, 64
5, 1872, Note_on_c, 1, 53, 0
5, 1872, Note_on_c, 1, 58, 64
5, 1884, Note_on_c, 1, 58, 0
5, 1884, Note_on_c, 1, 53, 64
5, 1896, Note_on_c, 1, 53, 0
5, 1896, Note_on_c, 1, 50, 64
5, 1908, Note_on_c, 1, 50, 0
5, 1908, Note_on_c, 1, 46, 64
5, 1920, Note_on_c, 1, 46, 0
5, 1920, Note_on_c, 1, 51, 64
5, 1965, Note_on_c, 1, 51, 0
5, 2028, Note_on_c, 1, 48, 64
5, 2040, Note_on_c, 1, 48, 0
5, 2040, Note_on_c, 1, 51, 64
5, 2052, Note_on_c, 1, 51, 0
5, 2052, Note_on_c, 1, 55, 64
5, 2064, Note_on_c, 1, 55, 0
5, 2064, Note_on_c, 1, 60, 64
5, 2076, Note_on_c, 1, 60, 0
5, 2076, Note_on_c, 1, 55, 64
5, 2088, Note_on_c, 1, 55, 0
5, 2088, Note_on_c, 1, 51, 64
5, 2100, Note_on_c, 1, 51, 0
5, 2100, Note_on_c, 1, 48, 64
5, 2112, Note_on_c, 1, 48, 0
5, 2112, Note_on_c, 1, 57, 64
5, 2157, Note_on_c, 1, 57, 0
5, 2220, Note_on_c, 1, 53, 64
5, 2232, Note_on_c, 1, 53, 0
5, 2232, Note_on_c, 1, 57, 64
5, 2244, Note_on_c, 1, 57, 0
5, 2244, Note_on_c, 1, 60, 64
5, 2256, Note_on_c, 1, 60, 0
5, 2256, Note_on_c, 1, 65, 64
5, 2268, Note_on_c, 1, 65, 0
5, 2268, Note_on_c, 1, 60, 64
5, 2280, Note_on_c, 1, 60, 0
5, 2280, Note_on_c, 1, 57, 64
5, 2292, Note_on_c, 1, 57, 0
5, 2292, Note_on_c, 1, 53, 64
5, 2304, Note_on_c, 1, 53, 0
5, 2304, Note_on_c, 1, 58, 64
5, 2349, Note_on_c, 1, 58, 0
5, 2412, Note_on_c, 1, 46, 64
5, 2424, Note_on_c, 1, 46, 0
5, 2424, Note_on_c, 1, 49, 64
5, 2436, Note_on_c, 1, 49, 0
5, 2436, Note_on_c, 1, 53, 64
5, 2448, Note_on_c, 1, 53, 0
5, 2448, Note_on_c, 1, 58, 64
5, 2460, Note_on_c, 1, 58, 0
5, 2460, Note_on_c, 1, 53, 64
5, 2472, Note_on_c, 1, 53, 0
5, 2472, Note_on_c, 1, 49, 64
5, 2484, Note_on_c, 1, 49, 0
5, 2484, Note_on_c, 1, 46, 64
5, 2496, Note_on_c, 1, 46, 0
5, 2496, Note_on_c, 1, 52, 64
5, 2541, Note_on_c, 1, 52, 0
5, 2604, Note_on_c, 1, 48, 64
5, 2616, Note_on_c, 1, 48, 0
5, 2616, Note_on_c, 1, 52, 64
5, 2628, Note_on_c, 1, 52, 0
5, 2628, Note_on_c, 1, 55, 64
5, 2640, Note_on_c, 1, 55, 0
5, 2640, Note_on_c, 1, 60, 64
5, 2652, Note_on_c, 1, 60, 0
5, 2652, Note_on_c, 1, 55, 64
5, 2664, Note_on_c, 1, 55, 0
5, 2664, Note_on_c, 1, 52, 64
5, 2676, Note_on_c, 1, 52, 0
5, 2676, Note_on_c, 1, 48, 64
5, 2688, Note_on_c, 1, 48, 0
5, 2688, Note_on_c, 1, 51, 64
5, 2733, Note_on_c, 1, 51, 0
5, 2796, Note_on_c, 1, 50, 64
5, 2808, Note_on_c, 1, 50, 0
5, 2808, Note_on_c, 1, 53, 64
5, 2820, Note_on_c, 1, 53, 0
5, 2820, Note_on_c, 1, 58, 64
5, 2832, Note_on_c, 1, 58, 0
5, 2832, Note_on_c, 1, 62, 64
5, 2844, Note_on_c, 1, 62, 0
5, 2844, Note_on_c, 1, 58, 64
5, 2856, Note_on_c, 1, 58, 0
5, 2856, Note_on_c, 1, 53, 64
5, 2868, Note_on_c, 1, 53, 0
5, 2868, Note_on_c, 1, 50, 64
5, 2880, Note_on_c, 1, 50, 0
5, 2880, Note_on_c, 1, 52, 64
5, 2925, Note_on_c, 1, 52, 0
5, 2988, Note_on_c, 1, 53, 64
5, 3000, Note_on_c, 1, 53, 0
5, 3000, Note_on_c, 1, 56, 64
5, 3012, Note_on_c, 1, 56, 0
5, 3012, Note_on_c, 1, 60, 64
5, 3024, Note_on_c, 1, 60, 0
5, 3024, Note_on_c, 1, 65, 64
5, 3036, Note_on_c, 1, 65, 0
5, 3036, Note_on_c, 1, 60, 64
5, 3048, Note_on_c, 1, 60, 0
5, 3048, Note_on_c, 1, 56, 64
5, 3060, Note_on_c, 1, 56, 0
5, 3060, Note_on_c, 1, 53, 64
5, 3072, Note_on_c, 1, 53, 0
5, 3072, Note_on_c, 1, 58, 64
5, 3117, Note_on_c, 1, 58, 0
5, 3180, Note_on_c, 1, 46, 64
5, 3192, Note_on_c, 1, 46, 0
5, 3192, Note_on_c, 1, 50, 64
5, 3204, Note_on_c, 1, 50, 0
5, 3204, Note_on_c, 1, 55, 64
5, 3216, Note_on_c, 1, 55, 0
5, 3216, Note_on_c, 1, 58, 64
5, 3228, Note_on_c, 1, 58, 0
5, 3228, Note_on_c, 1, 55, 64
5, 3240, Note_on_c, 1, 55, 0
5, 3240, Note_on_c, 1, 50, 64
5, 3252, Note_on_c, 1, 50, 0
5, 3252, Note_on_c, 1, 46, 64
5, 3264, Note_on_c, 1, 46, 0
5, 3264, Note_on_c, 1, 51, 64
5, 3309, Note_on_c, 1, 51, 0
5, 3372, Note_on_c, 1, 48, 64
5, 3384, Note_on_c, 1, 48, 0
5, 3384, Note_on_c, 1, 51, 64
5, 3396, Note_on_c, 1, 51, 0
5, 3396, Note_on_c, 1, 55, 64
5, 3408, Note_on_c, 1, 55, 0
5, 3408, Note_on_c, 1, 60, 64
5, 3420, Note_on_c, 1, 60, 0
5, 3420, Note_on_c, 1, 55, 64
5, 3432, Note_on_c, 1, 55, 0
5, 3432, Note_on_c, 1, 51, 64
5, 3444, Note_on_c, 1, 51, 0
5, 3444, Note_on_c, 1, 48, 64
5, 3456, Note_on_c, 1, 48, 0
5, 3456, Note_on_c, 1, 57, 64
5, 3501, Note_on_c, 1, 57, 0
5, 3564, Note_on_c, 1, 45, 64
5, 3576, Note_on_c, 1, 45, 0
5, 3576, Note_on_c, 1, 48, 64
5, 3588, Note_on_c, 1, 48, 0
5, 3588, Note_on_c, 1, 51, 64
5, 3600, Note_on_c, 1, 51, 0
5, 3600, Note_on_c, 1, 57, 64
5, 3612, Note_on_c, 1, 57, 0
5, 3612, Note_on_c, 1, 51, 64
5, 3624, Note_on_c, 1, 51, 0
5, 3624, Note_on_c, 1, 48, 64
5, 3636, Note_on_c, 1, 48, 0
5, 3636, Note_on_c, 1, 45, 64
5, 3648, Note_on_c, 1, 45, 0
5, 3648, Note_on_c, 1, 50, 64
5, 3693, Note_on_c, 1, 50, 0
5, 3756, Note_on_c, 1, 50, 64
5, 3768, Note_on_c, 1, 50, 0
5, 3768, Note_on_c, 1, 54, 64
5, 3780, Note_on_c, 1, 54, 0
5, 3780, Note_on_c, 1, 57, 64
5, 3792, Note_on_c, 1, 57, 0
5, 3792, Note_on_c, 1, 62, 64
5, 3804, Note_on_c, 1, 62, 0
5, 3804, Note_on_c, 1, 57, 64
5, 3816, Note_on_c, 1, 57, 0
5, 3816, Note_on_c, 1, 54, 64
5, 3828, Note_on_c, 1, 54, 0
5, 3828, Note_on_c, 1, 50, 64
5, 3840, Note_on_c, 1, 50, 0
5, 3840, Note_on_c, 1, 55, 64
5, 3885, Note_on_c, 1, 55, 0
5, 3948, Note_on_c, 1, 43, 64
5, 3960, Note_on_c, 1, 43, 0
5, 3960, Note_on_c, 1, 46, 64
5, 3972, Note_on_c, 1, 46, 0
5, 3972, Note_on_c, 1, 50, 64
5, 3984, Note_on_c, 1, 50, 0
5, 3984, Note_on_c, 1, 55, 64
5, 3996, Note_on_c, 1, 55, 0
5, 3996, Note_on_c, 1, 50, 64
5, 4008, Note_on_c, 1, 50, 0
5, 4008, Note_on_c, 1, 46, 64
5, 4020, Note_on_c, 1, 46, 0
5, 4020, Note_on_c, 1, 43, 64
5, 4032, Note_on_c, 1, 43, 0
5, 4032, Note_on_c, 1, 48, 64
5, 4077, Note_on_c, 1, 48, 0
5, 4140, Note_on_c, 1, 45, 64
5, 4152, Note_on_c, 1, 45, 0
5, 4152, Note_on_c, 1, 48, 64
5, 4164, Note_on_c, 1, 48, 0
5, 4164, Note_on_c, 1, 54, 64
5, 4176, Note_on_c, 1, 54, 0
5, 4176, Note_on_c, 1, 57, 64
5, 4188, Note_on_c, 1, 57, 0
5, 4188, Note_on_c, 1, 54, 64
5, 4200, Note_on_c, 1, 54, 0
5, 4200, Note_on_c, 1, 48, 64
5, 4212, Note_on_c, 1, 48, 0
5, 4212, Note_on_c, 1, 45, 64
5, 4224, Note_on_c, 1, 45, 0
5, 4224, Note_on_c, 1, 50, 64
5, 4269, Note_on_c, 1, 50, 0
5, 4332, Note_on_c, 1, 43, 64
5, 4344, Note_on_c, 1, 43, 0
5, 4344, Note_on_c, 1, 46, 64
5, 4356, Note_on_c, 1, 46, 0
5, 4356, Note_on_c, 1, 50, 64
5, 4368, Note_on_c, 1, 50, 0
5, 4368, Note_on_c, 1, 55, 64
5, 4380, Note_on_c, 1, 55, 0
5, 4380, Note_on_c, 1, 50, 64
5, 4392, Note_on_c, 1, 50, 0
5, 4392, Note_on_c, 1, 46, 64
5, 4404, Note_on_c, 1, 46, 0
5, 4404, Note_on_c, 1, 43, 64
5, 4416, Note_on_c, 1, 43, 0
5, 4416, Note_on_c, 1, 48, 64
5, 4461, Note_on_c, 1, 48, 0
5, 4524, Note_on_c, 1, 38, 64
5, 4536, Note_on_c, 1, 38, 0
5, 4536, Note_on_c, 1, 42, 64
5, 4548, Note_on_c, 1, 42, 0
5, 4548, Note_on_c, 1, 45, 64
5, 4560, Note_on_c, 1, 45, 0
5, 4560, Note_on_c, 1, 50, 64
5, 4572, Note_on_c, 1, 50, 0
5, 4572, Note_on_c, 1, 45, 64
5, 4584, Note_on_c, 1, 45, 0
5, 4584, Note_on_c, 1, 42, 64
5, 4596, Note_on_c, 1, 42, 0
5, 4596, Note_on_c, 1, 38, 64
5, 4608, Note_on_c, 1, 38, 0
5, 4608, Note_on_c, 1, 43, 64
5, 4653, Note_on_c, 1, 43, 0
5, 4716, Note_on_c, 1, 43, 64
5, 4728, Note_on_c, 1, 43, 0
5, 4728, Note_on_c, 1, 46, 64
5, 4740, Note_on_c, 1, 46, 0
5, 4740, Note_on_c, 1, 50, 64
5, 4752, Note_on_c, 1, 50, 0
5, 4752, Note_on_c, 1, 55, 64
5, 4764, Note_on_c, 1, 55, 0
5, 4764, Note_on_c, 1, 50, 64
5, 4776, Note_on_c, 1, 50, 0
5, 4776, Note_on_c, 1, 46, 64
5, 4788, Note_on_c, 1, 46, 0
5, 4788, Note_on_c, 1, 43, 64
5, 4800, Note_on_c, 1, 43, 0
5, 4800, Note_on_c, 1, 50, 64
5, 4845, Note_on_c, 1, 50, 0
5, 4908, Note_on_c, 1, 50, 64
5, 4920, Note_on_c, 1, 50, 0
5, 4920, Note_on_c, 1, 54, 64
5, 4932, Note_on_c, 1, 54, 0
5, 4932, Note_on_c, 1, 57, 64
5, 4944, Note_on_c, 1, 57, 0
5, 4944, Note_on_c, 1, 62, 64
5, 4956, Note_on_c, 1, 62, 0
5, 4956, Note_on_c, 1, 57, 64
5, 4968, Note_on_c, 1, 57, 0
5, 4968, Note_on_c, 1, 54, 64
5, 4980, Note_on_c, 1, 54, 0
5, 4980, Note_on_c, 1, 50, 64
5, 4992, Note_on_c, 1, 50, 0
5, 4992, Note_on_c, 1, 55, 64
5, 5037, Note_on_c, 1, 55, 0
5, 5100, Note_on_c, 1, 43, 64
5, 5112, Note_on_c, 1, 43, 0
5, 5112, Note_on_c, 1, 46, 64
5, 5124, Note_on_c, 1, 46, 0
5, 5124, Note_on_c, 1, 50, 64
5, 5136, Note_on_c, 1, 50, 0
5, 5136, Note_on_c, 1, 55, 64
5, 5148, Note_on_c, 1, 55, 0
5, 5148, Note_on_c, 1, 50, 64
5, 5160, Note_on_c, 1, 50, 0
5, 5160, Note_on_c, 1, 46, 64
5, 5172, Note_on_c, 1, 46, 0
5, 5172, Note_on_c, 1, 43, 64
5, 5184, Note_on_c, 1, 43, 0
5, 5184, Note_on_c, 1, 48, 64
5, 5229, Note_on_c, 1, 48, 0
5, 5292, Note_on_c, 1, 41, 64
5, 5304, Note_on_c, 1, 41, 0
5, 5304, Note_on_c, 1, 45, 64
5, 5316, Note_on_c, 1, 45, 0
5, 5316, Note_on_c, 1, 48, 64
5, 5328, Note_on_c, 1, 48, 0
5, 5328, Note_on_c, 1, 51, 64
5, 5340, Note_on_c, 1, 51, 0
5, 5340, Note_on_c, 1, 48, 64
5, 5352, Note_on_c, 1, 48, 0
5, 5352, Note_on_c, 1, 45, 64
5, 5364, Note_on_c, 1, 45, 0
5, 5364, Note_on_c, 1, 41, 64
5, 5376, Note_on_c, 1, 41, 0
5, 5376, Note_on_c, 1, 46, 64
5, 5421, Note_on_c, 1, 46, 0
5, 5484, Note_on_c, 1, 43, 64
5, 5496, Note_on_c, 1, 43, 0
5, 5496, Note_on_c, 1, 46, 64
5, 5508, Note_on_c, 1, 46, 0
5, 5508, Note_on_c, 1, 49, 64
5, 5520, Note_on_c, 1, 49, 0
5, 5520, Note_on_c, 1, 55, 64
5, 5532, Note_on_c, 1, 55, 0
5, 5532, Note_on_c, 1, 49, 64
5, 5544, Note_on_c, 1, 49, 0
5, 5544, Note_on_c, 1, 46, 64
5, 5556, Note_on_c, 1, 46, 0
5, 5556, Note_on_c, 1, 43, 64
5, 5568, Note_on_c, 1, 43, 0
5, 5568, Note_on_c, 1, 48, 64
5, 5613, Note_on_c, 1, 48, 0
5, 5676, Note_on_c, 1, 48, 64
5, 5688, Note_on_c, 1, 48, 0
5, 5688, Note_on_c, 1, 52, 64
5, 5700, Note_on_c, 1, 52, 0
5, 5700, Note_on_c, 1, 55, 64
5, 5712, Note_on_c, 1, 55, 0
5, 5712, Note_on_c, 1, 60, 64
5, 5724, Note_on_c, 1, 60, 0
5, 5724, Note_on_c, 1, 55, 64
5, 5736, Note_on_c, 1, 55, 0
5, 5736, Note_on_c, 1, 52, 64
5, 5748, Note_on_c, 1, 52, 0
5, 5748, Note_on_c, 1, 48, 64
5, 5760, Note_on_c, 1, 48, 0
5, 5760, Note_on_c, 1, 53, 64
5, 5805, Note_on_c, 1, 53, 0
5, 5868, Note_on_c, 1, 49, 64
5, 5880, Note_on_c, 1, 49, 0
5, 5880, Note_on_c, 1, 53, 64
5, 5892, Note_on_c, 1, 53, 0
5, 5892, Note_on_c, 1, 56, 64
5, 5904, Note_on_c, 1, 56, 0
5, 5904, Note_on_c, 1, 61, 64
5, 5916, Note_on_c, 1, 61, 0
5, 5916, Note_on_c, 1, 56, 64
5, 5928, Note_on_c, 1, 56, 0
5, 5928, Note_on_c, 1, 53, 64
5, 5940, Note_on_c, 1, 53, 0
5, 5940, Note_on_c, 1, 49, 64
5, 5952, Note_on_c, 1, 49, 0
5, 5952, Note_on_c, 1, 58, 64
5, 5997, Note_on_c, 1, 58, 0
5, 6060, Note_on_c, 1, 48, 64
5, 6072, Note_on_c, 1, 48, 0
5, 6072, Note_on_c, 1, 52, 64
5, 6084, Note_on_c, 1, 52, 0
5, 6084, Note_on_c, 1, 55, 64
5, 6096, Note_on_c, 1, 55, 0
5, 6096, Note_on_c, 1, 60, 64
5, 6108, Note_on_c, 1, 60, 0
5, 6108, Note_on_c, 1, 55, 64
5, 6120, Note_on_c, 1, 55, 0
5, 6120, Note_on_c, 1, 52, 64
5, 6132, Note_on_c, 1, 52, 0
5, 6132, Note_on_c, 1, 48, 64
5, 6144, Note_on_c, 1, 48, 0
5, 6144, Note_on_c, 1, 53, 64
5, 6189, Note_on_c, 1, 53, 0
5, 6252, Note_on_c, 1, 41, 64
5, 6264, Note_on_c, 1, 41, 0
5, 6264, Note_on_c, 1, 44, 64
5, 6276, Note_on_c, 1, 44, 0
5, 6276, Note_on_c, 1, 48, 64
5, 6288, Note_on_c, 1, 48, 0
5, 6288, Note_on_c, 1, 53, 64
5, 6300, Note_on_c, 1, 53, 0
5, 6300, Note_on_c, 1, 48, 64
5, 6312, Note_on_c, 1, 48, 0
5, 6312, Note_on_c, 1, 44, 64
5, 6324, Note_on_c, 1, 44, 0
5, 6324, Note_on_c, 1, 41, 64
5, 6336, Note_on_c, 1, 41, 0
5, 6336, Note_on_c, 1, 49, 64
5, 6381, Note_on_c, 1, 49, 0
5, 6444, Note_on_c, 1, 39, 64
5, 6456, Note_on_c, 1, 39, 0
5, 6456, Note_on_c, 1, 43, 64
5, 6468, Note_on_c, 1, 43, 0
5, 6468, Note_on_c, 1, 46, 64
5, 6480, Note_on_c, 1, 46, 0
5, 6480, Note_on_c, 1, 51, 64
5, 6492, Note_on_c, 1, 51, 0
5, 6492, Note_on_c, 1, 46, 64
5, 6504, Note_on_c, 1, 46, 0
5, 6504, Note_on_c, 1, 43, 64
5, 6516, Note_on_c, 1, 43, 0
5, 6516, Note_on_c, 1, 39, 64
5, 6528, Note_on_c, 1, 39, 0
5, 6528, Note_on_c, 1, 44, 64
5, 6573, Note_on_c, 1, 44, 0
5, 6636, Note_on_c, 1, 41, 64
5, 6648, Note_on_c, 1, 41, 0
5, 6648, Note_on_c, 1, 44, 64
5, 6660, Note_on_c, 1, 44, 0
5, 6660, Note_on_c, 1, 48, 64
5, 6672, Note_on_c, 1, 48, 0
5, 6672, Note_on_c, 1, 53, 64
5, 6684, Note_on_c, 1, 53, 0
5, 6684, Note_on_c, 1, 48, 64
5, 6696, Note_on_c, 1, 48, 0
5, 6696, Note_on_c, 1, 44, 64
5, 6708, Note_on_c, 1, 44, 0
5, 6708, Note_on_c, 1, 41, 64
5, 6720, Note_on_c, 1, 41, 0
5, 6720, Note_on_c, 1, 50, 64
5, 6765, Note_on_c, 1, 50, 0
5, 6828, Note_on_c, 1, 46, 64
5, 6840, Note_on_c, 1, 46, 0
5, 6840, Note_on_c, 1, 50, 64
5, 6852, Note_on_c, 1, 50, 0
5, 6852, Note_on_c, 1, 53, 64
5, 6864, Note_on_c, 1, 53, 0
5, 6864, Note_on_c, 1, 58, 64
5, 6876, Note_on_c, 1, 58, 0
5, 6876, Note_on_c, 1, 53, 64
5, 6888, Note_on_c, 1, 53, 0
5, 6888, Note_on_c, 1, 50, 64
5, 6900, Note_on_c, 1, 50, 0
5, 6900, Note_on_c, 1, 46, 64
5, 6912, Note_on_c, 1, 46, 0
5, 6912, Note_on_c, 1, 51, 64
5, 6957, Note_on_c, 1, 51, 0
5, 7020, Note_on_c, 1, 51, 64
5, 7032, Note_on_c, 1, 51, 0
5, 7032, Note_on_c, 1, 54, 64
5, 7044, Note_on_c, 1, 54, 0
5, 7044, Note_on_c, 1, 58, 64
5, 7056, Note_on_c, 1, 58, 0
5, 7056, Note_on_c, 1, 63, 64
5, 7068, Note_on_c, 1, 63, 0
5, 7068, Note_on_c, 1, 58, 64
5, 7080, Note_on_c, 1, 58, 0
5, 7080, Note_on_c, 1, 54, 64
5, 7092, Note_on_c, 1, 54, 0
5, 7092, Note_on_c, 1, 51, 64
5, 7104, Note_on_c, 1, 51, 0
5, 7104, Note_on_c, 1, 57, 64
5, 7149, Note_on_c, 1, 57, 0
5, 7212, Note_on_c, 1, 41, 64
5, 7224, Note_on_c, 1, 41, 0
5, 7224, Note_on_c, 1, 45, 64
5, 7236, Note_on_c, 1, 45, 0
5, 7236, Note_on_c, 1, 48, 64
5, 7248, Note_on_c, 1, 48, 0
5, 7248, Note_on_c, 1, 53, 64
5, 7260, Note_on_c, 1, 53, 0
5, 7260, Note_on_c, 1, 48, 64
5, 7272, Note_on_c, 1, 48, 0
5, 7272, Note_on_c, 1, 45, 64
5, 7284, Note_on_c, 1, 45, 0
5, 7284, Note_on_c, 1, 41, 64
5, 7296, Note_on_c, 1, 41, 0
5, 7296, Note_on_c, 1, 44, 64
5, 7341, Note_on_c, 1, 44, 0
5, 7404, Note_on_c, 1, 43, 64
5, 7416, Note_on_c, 1, 43, 0
5, 7416, Note_on_c, 1, 46, 64
5, 7428, Note_on_c, 1, 46, 0
5, 7428, Note_on_c, 1, 51, 64
5, 7440, Note_on_c, 1, 51, 0
5, 7440, Note_on_c, 1, 55, 64
5, 7452, Note_on_c, 1, 55, 0
5, 7452, Note_on_c, 1, 51, 64
5, 7464, Note_on_c, 1, 51, 0
5, 7464, Note_on_c, 1, 46, 64
5, 7476, Note_on_c, 1, 46, 0
5, 7476, Note_on_c, 1, 43, 64
5, 7488, Note_on_c, 1, 43, 0
5, 7488, Note_on_c, 1, 45, 64
5, 7533, Note_on_c, 1, 45, 0
5, 7596, Note_on_c, 1, 46, 64
5, 7608, Note_on_c, 1, 46, 0
5, 7608, Note_on_c, 1, 49, 64
5, 7620, Note_on_c, 1, 49, 0
5, 7620, Note_on_c, 1, 53, 64
5, 7632, Note_on_c, 1, 53, 0
5, 7632, Note_on_c, 1, 58, 64
5, 7644, Note_on_c, 1, 58, 0
5, 7644, Note_on_c, 1, 53, 64
5, 7656, Note_on_c, 1, 53, 0
5, 7656, Note_on_c, 1, 49, 64
5, 7668, Note_on_c, 1, 49, 0
5, 7668, Note_on_c, 1, 46, 64
5, 7680, Note_on_c, 1, 46, 0
5, 7680, Note_on_c, 1, 51, 64
5, 7725, Note_on_c, 1, 51, 0
5, 7788, Note_on_c, 1, 48, 64
5, 7800, Note_on_c, 1, 48, 0
5, 7800, Note_on_c, 1, 51, 64
5, 7812, Note_on_c, 1, 51, 0
5, 7812, Note_on_c, 1, 55, 64
5, 7824, Note_on_c, 1, 55, 0
5, 7824, Note_on_c, 1, 60, 64
5, 7836, Note_on_c, 1, 60, 0
5, 7836, Note_on_c, 1, 55, 64
5, 7848, Note_on_c, 1, 55, 0
5, 7848, Note_on_c, 1, 51, 64
5, 7860, Note_on_c, 1, 51, 0
5, 7860, Note_on_c, 1, 48, 64
5, 7872, Note_on_c, 1, 48, 0
5, 7872, Note_on_c, 1, 56, 64
5, 7917, Note_on_c, 1, 56, 0
5, 7980, Note_on_c, 1, 44, 64
5, 7992, Note_on_c, 1, 44, 0
5, 7992, Note_on_c, 1, 48, 64
5, 8004, Note_on_c, 1, 48, 0
5, 8004, Note_on_c, 1, 53, 64
5, 8016, Note_on_c, 1, 53, 0
5, 8016, Note_on_c, 1, 56, 64
5, 8028, Note_on_c, 1, 56, 0
5, 8028, Note_on_c, 1, 53, 64
5, 8040, Note_on_c, 1, 53, 0
5, 8040, Note_on_c, 1, 48, 64
5, 8052, Note_on_c, 1, 48, 0
5, 8052, Note_on_c, 1, 44, 64
5, 8064, Note_on_c, 1, 44, 0
5, 8064, Note_on_c, 1, 50, 64
5, 8109, Note_on_c, 1, 50, 0
5, 8172, Note_on_c, 1, 50, 64
5, 8184, Note_on_c, 1, 50, 0
5, 8184, Note_on_c, 1, 53, 64
5, 8196, Note_on_c, 1, 53, 0
5, 8196, Note_on_c, 1, 56, 64
5, 8208, Note_on_c, 1, 56, 0
5, 8208, Note_on_c, 1, 62, 64
5, 8220, Note_on_c, 1, 62, 0
5, 8220, Note_on_c, 1, 56, 64
5, 8232, Note_on_c, 1, 56, 0
5, 8232, Note_on_c, 1, 53, 64
5, 8244, Note_on_c, 1, 53, 0
5, 8244, Note_on_c, 1, 50, 64
5, 8256, Note_on_c, 1, 50, 0
5, 8256, Note_on_c, 1, 55, 64
5, 8301, Note_on_c, 1, 55, 0
5, 8364, Note_on_c, 1, 43, 64
5, 8376, Note_on_c, 1, 43, 0
5, 8376, Note_on_c, 1, 47, 64
5, 8388, Note_on_c, 1, 47, 0
5, 8388, Note_on_c, 1, 50, 64
5, 8400, Note_on_c, 1, 50, 0
5, 8400, Note_on_c, 1, 55, 64
5, 8412, Note_on_c, 1, 55, 0
5, 8412, Note_on_c, 1, 50, 64
5, 8424, Note_on_c, 1, 50, 0
5, 8424, Note_on_c, 1, 47, 64
5, 8436, Note_on_c, 1, 47, 0
5, 8436, Note_on_c, 1, 43, 64
5, 8448, Note_on_c, 1, 43, 0
5, 8448, Note_on_c, 1, 48, 64
5, 8493, Note_on_c, 1, 48, 0
5, 8556, Note_on_c, 1, 48, 64
5, 8568, Note_on_c, 1, 48, 0
5, 8568, Note_on_c, 1, 51, 64
5, 8580, Note_on_c, 1, 51, 0
5, 8580, Note_on_c, 1, 55, 64
5, 8592, Note_on_c, 1, 55, 0
5, 8592, Note_on_c, 1, 60, 64
5, 8604, Note_on_c, 1, 60, 0
5, 8604, Note_on_c, 1, 55, 64
5, 8616, Note_on_c, 1, 55, 0
5, 8616, Note_on_c, 1, 51, 64
5, 8628, Note_on_c, 1, 51, 0
5, 8628, Note_on_c, 1, 48, 64
5, 8640, Note_on_c, 1, 48, 0
5, 8640, Note_on_c, 1, 53, 64
5, 8685, Note_on_c, 1, 53, 0
5, 8748, Note_on_c, 1, 50, 64
5, 8760, Note_on_c, 1, 50, 0
5, 8760, Note_on_c, 1, 53, 64
5, 8772, Note_on_c, 1, 53, 0
5, 8772, Note_on_c, 1, 59, 64
5, 8784, Note_on_c, 1, 59, 0
5, 8784, Note_on_c, 1, 62, 64
5, 8796, Note_on_c, 1, 62, 0
5, 8796, Note_on_c, 1, 59, 64
5, 8808, Note_on_c, 1, 59, 0
5, 8808, Note_on_c, 1, 53, 64
5, 8820, Note_on_c, 1, 53, 0
5, 8820, Note_on_c, 1, 50, 64
5, 8832, Note_on_c, 1, 50, 0
5, 8832, Note_on_c, 1, 55, 64
5, 8877, Note_on_c, 1, 55, 0
5, 8940, Note_on_c, 1, 36, 64
5, 8952, Note_on_c, 1, 36, 0
5, 8952, Note_on_c, 1, 39, 64
5, 8964, Note_on_c, 1, 39, 0
5, 8964, Note_on_c, 1, 43, 64
5, 8976, Note_on_c, 1, 43, 0
5, 8976, Note_on_c, 1, 48, 64
5, 8988, Note_on_c, 1, 48, 0
5, 8988, Note_on_c, 1, 43, 64
5, 9000, Note_on_c, 1, 43, 0
5, 9000, Note_on_c, 1, 39, 64
5, 9012, Note_on_c, 1, 39, 0
5, 9012, Note_on_c, 1, 36, 64
5, 9024, Note_on_c, 1, 36, 0
5, 9024, Note_on_c, 1, 41, 64
5, 9069, Note_on_c, 1, 41, 0
5, 9132, Note_on_c, 1, 43, 64
5, 9144, Note_on_c, 1, 43, 0
5, 9144, Note_on_c, 1, 47, 64
5, 9156, Note_on_c, 1, 47, 0
5, 9156, Note_on_c, 1, 50, 64
5, 9168, Note_on_c, 1, 50, 0
5, 9168, Note_on_c, 1, 55, 64
5, 9180, Note_on_c, 1, 55, 0
5, 9180, Note_on_c, 1, 50, 64
5, 9192, Note_on_c, 1, 50, 0
5, 9192, Note_on_c, 1, 47, 64
5, 9204, Note_on_c, 1, 47, 0
5, 9204, Note_on_c, 1, 43, 64
5, 9216, Note_on_c, 1, 43, 0
5, 9216, Note_on_c, 1, 48, 64
5, 9261, Note_on_c, 1, 48, 0
5, 9324, Note_on_c, 1, 44, 64
5, 9336, Note_on_c, 1, 44, 0
5, 9336, Note_on_c, 1, 48, 64
5, 9348, Note_on_c, 1, 48, 0
5, 9348, Note_on_c, 1, 51, 64
5, 9360, Note_on_c, 1, 51, 0
5, 9360, Note_on_c, 1, 56, 64
5, 9372, Note_on_c, 1, 56, 0
5, 9372, Note_on_c, 1, 51, 64
5, 9384, Note_on_c, 1, 51, 0
5, 9384, Note_on_c, 1, 48, 64
5, 9396, Note_on_c, 1, 48, 0
5, 9396, Note_on_c, 1, 44, 64
5, 9408, Note_on_c, 1, 44, 0
5, 9408, Note_on_c, 1, 49, 64
5, 9453, Note_on_c, 1, 49, 0
5, 9516, Note_on_c, 1, 46, 64
5, 9528, Note_on_c, 1, 46, 0
5, 9528, Note_on_c, 1, 49, 64
5, 9540, Note_on_c, 1, 49, 0
5, 9540, Note_on_c, 1, 53, 64
5, 9552, Note_on_c, 1, 53, 0
5, 9552, Note_on_c, 1, 58, 64
5, 9564, Note_on_c, 1, 58, 0
5, 9564, Note_on_c, 1, 53, 64
5, 9576, Note_on_c, 1, 53, 0
5, 9576, Note_on_c, 1, 49, 64
5, 9588, Note_on_c, 1, 49, 0
5, 9588, Note_on_c, 1, 46, 64
5, 9600, Note_on_c, 1, 46, 0
5, 9600, Note_on_c, 1, 51, 64
5, 9645, Note_on_c, 1, 51, 0
5, 9708, Note_on_c, 1, 50, 64
5, 9720, Note_on_c, 1, 50, 0
5, 9720, Note_on_c, 1, 53, 64
5, 9732, Note_on_c, 1, 53, 0
5, 9732, Note_on_c, 1, 56, 64
5, 9744, Note_on_c, 1, 56, 0
5, 9744, Note_on_c, 1, 59, 64
5, 9756, Note_on_c, 1, 59, 0
5, 9756, Note_on_c, 1, 56, 64
5, 9768, Note_on_c, 1, 56, 0
5, 9768, Note_on_c, 1, 53, 64
5, 9780, Note_on_c, 1, 53, 0
5, 9780, Note_on_c, 1, 50, 64
5, 9792, Note_on_c, 1, 50, 0
5, 9792, Note_on_c, 1, 51, 64
5, 9837, Note_on_c, 1, 51, 0
5, 9840, Note_on_c, 1, 39, 64
5, 9885, Note_on_c, 1, 39, 0
5, 9888, Note_on_c, 1, 39, 64
5, 9933, Note_on_c, 1, 39, 0
5, 9936, Note_on_c, 1, 39, 64
5, 9981, Note_on_c, 1, 39, 0
5, 9984, Note_on_c, 1, 44, 64
5, 10338, Note_on_c, 1, 44, 0
5, 10338, End_track
6, 0, Start_track
6, 0, MIDI_port, 0
6, 0, Title_t, "Sonata No. 5para en fa menor"
6, 0, End_track
7, 0, Start_track
7, 0, MIDI_port, 0
7, 0, Title_t, "para violin y clavicembalo"
7, 0, End_track
8, 0, Start_track
8, 0, MIDI_port, 0
8, 0, Title_t, "J. S. Bach (1685-1750)"
8, 0, End_track
9, 0, Start_track
9, 0, MIDI_port, 0
9, 0, Title_t, "Copyright Luis Gerardo Barajas"
9, 0, End_track
10, 0, Start_track
10, 0, MIDI_port, 0
10, 0, Title_t, "*** Bach Keeps RuLiNg!!!"
10, 0, End_track
0, 0, End_of_file
