0, 0, Header, 1, 10, 96
1, 0, Start_track
1, 0, Sequencer_specific, 3, 0, 0, 65
1, 0, Time_signature, 3, 2, 24, 8
1, 0, Key_signature, 4, "major"
1, 0, Tempo, 631579
1, 43558, Tempo, 618557
1, 43566, Tempo, 625000
1, 43574, Tempo, 631579
1, 43582, Tempo, 638298
1, 43598, Tempo, 645161
1, 43606, Tempo, 652174
1, 43622, Tempo, 659341
1, 43630, Tempo, 666667
1, 43646, Tempo, 674157
1, 43654, Tempo, 681818
1, 43662, Tempo, 689655
1, 43678, Tempo, 697674
1, 43686, Tempo, 705882
1, 43702, Tempo, 714286
1, 43710, Tempo, 722892
1, 43726, Tempo, 731707
1, 43734, Tempo, 740741
1, 43742, Tempo, 750000
1, 43758, Tempo, 759494
1, 43766, Tempo, 769231
1, 43782, Tempo, 779221
1, 43790, Tempo, 789474
1, 43806, Tempo, 800000
1, 43814, Tempo, 810811
1, 43822, Tempo, 821918
1, 43838, Tempo, 833333
1, 43846, Tempo, 845070
1, 43862, Tempo, 857143
1, 43870, Tempo, 869565
1, 43886, Tempo, 882353
1, 43894, Tempo, 895522
1, 43902, Tempo, 909091
1, 43918, Tempo, 923077
1, 43926, Tempo, 937500
1, 43942, Tempo, 952381
1, 43950, Tempo, 967742
1, 43966, Tempo, 983607
1, 43974, Tempo, 1000000
1, 43982, Tempo, 1016949
1, 43998, Tempo, 1034483
1, 44006, Tempo, 1052632
1, 44022, Tempo, 1071429
1, 44030, Tempo, 1090909
1, 44046, Tempo, 937500
1, 44054, Tempo, 1621622
1, 44054, End_track
2, 0, Start_track
2, 0, MIDI_port, 0
2, 0, Title_t, "Violin"
2, 0, Program_c, 1, 40
2, 0, Control_c, 1, 7, 127
2, 24, Note_on_c, 1, 76, 64
2, 47, Note_on_c, 1, 76, 0
2, 48, Note_on_c, 1, 75, 64
2, 71, Note_on_c, 1, 75, 0
2, 72, Note_on_c, 1, 76, 64
2, 95, Note_on_c, 1, 76, 0
2, 96, Note_on_c, 1, 78, 64
2, 119, Note_on_c, 1, 78, 0
2, 120, Note_on_c, 1, 76, 64
2, 143, Note_on_c, 1, 76, 0
2, 144, Note_on_c, 1, 75, 64
2, 167, Note_on_c, 1, 75, 0
2, 168, Note_on_c, 1, 76, 64
2, 191, Note_on_c, 1, 76, 0
2, 192, Note_on_c, 1, 80, 64
2, 215, Note_on_c, 1, 80, 0
2, 216, Note_on_c, 1, 76, 64
2, 239, Note_on_c, 1, 76, 0
2, 240, Note_on_c, 1, 75, 64
2, 263, Note_on_c, 1, 75, 0
2, 264, Note_on_c, 1, 76, 64
2, 287, Note_on_c, 1, 76, 0
2, 288, Note_on_c, 1, 81, 64
2, 311, Note_on_c, 1, 81, 0
2, 312, Note_on_c, 1, 76, 64
2, 335, Note_on_c, 1, 76, 0
2, 336, Note_on_c, 1, 75, 64
2, 359, Note_on_c, 1, 75, 0
2, 360, Note_on_c, 1, 76, 64
2, 383, Note_on_c, 1, 76, 0
2, 384, Note_on_c, 1, 80, 64
2, 407, Note_on_c, 1, 80, 0
2, 408, Note_on_c, 1, 76, 64
2, 431, Note_on_c, 1, 76, 0
2, 432, Note_on_c, 1, 75, 64
2, 455, Note_on_c, 1, 75, 0
2, 456, Note_on_c, 1, 76, 64
2, 479, Note_on_c, 1, 76, 0
2, 480, Note_on_c, 1, 81, 64
2, 503, Note_on_c, 1, 81, 0
2, 504, Note_on_c, 1, 76, 64
2, 527, Note_on_c, 1, 76, 0
2, 528, Note_on_c, 1, 75, 64
2, 551, Note_on_c, 1, 75, 0
2, 552, Note_on_c, 1, 76, 64
2, 575, Note_on_c, 1, 76, 0
2, 576, Note_on_c, 1, 83, 64
2, 599, Note_on_c, 1, 83, 0
2, 600, Note_on_c, 1, 76, 64
2, 623, Note_on_c, 1, 76, 0
2, 624, Note_on_c, 1, 75, 64
2, 647, Note_on_c, 1, 75, 0
2, 648, Note_on_c, 1, 76, 64
2, 671, Note_on_c, 1, 76, 0
2, 672, Note_on_c, 1, 81, 64
2, 695, Note_on_c, 1, 81, 0
2, 696, Note_on_c, 1, 76, 64
2, 719, Note_on_c, 1, 76, 0
2, 720, Note_on_c, 1, 75, 64
2, 743, Note_on_c, 1, 75, 0
2, 744, Note_on_c, 1, 76, 64
2, 767, Note_on_c, 1, 76, 0
2, 768, Note_on_c, 1, 83, 64
2, 791, Note_on_c, 1, 83, 0
2, 792, Note_on_c, 1, 76, 64
2, 815, Note_on_c, 1, 76, 0
2, 816, Note_on_c, 1, 75, 64
2, 839, Note_on_c, 1, 75, 0
2, 840, Note_on_c, 1, 76, 64
2, 863, Note_on_c, 1, 76, 0
2, 864, Note_on_c, 1, 85, 64
2, 887, Note_on_c, 1, 85, 0
2, 888, Note_on_c, 1, 83, 64
2, 911, Note_on_c, 1, 83, 0
2, 912, Note_on_c, 1, 85, 64
2, 935, Note_on_c, 1, 85, 0
2, 936, Note_on_c, 1, 83, 64
2, 959, Note_on_c, 1, 83, 0
2, 960, Note_on_c, 1, 81, 64
2, 983, Note_on_c, 1, 81, 0
2, 984, Note_on_c, 1, 80, 64
2, 1007, Note_on_c, 1, 80, 0
2, 1008, Note_on_c, 1, 81, 64
2, 1031, Note_on_c, 1, 81, 0
2, 1032, Note_on_c, 1, 80, 64
2, 1055, Note_on_c, 1, 80, 0
2, 1056, Note_on_c, 1, 78, 64
2, 1079, Note_on_c, 1, 78, 0
2, 1080, Note_on_c, 1, 76, 64
2, 1103, Note_on_c, 1, 76, 0
2, 1104, Note_on_c, 1, 78, 64
2, 1127, Note_on_c, 1, 78, 0
2, 1128, Note_on_c, 1, 76, 64
2, 1151, Note_on_c, 1, 76, 0
2, 1152, Note_on_c, 1, 75, 64
2, 1197, Note_on_c, 1, 75, 0
2, 1200, Note_on_c, 1, 71, 64
2, 1245, Note_on_c, 1, 71, 0
2, 1248, Note_on_c, 1, 75, 64
2, 1293, Note_on_c, 1, 75, 0
2, 1296, Note_on_c, 1, 78, 64
2, 1341, Note_on_c, 1, 78, 0
2, 1344, Note_on_c, 1, 83, 64
2, 1485, Note_on_c, 1, 83, 0
2, 1488, Note_on_c, 1, 80, 64
2, 1533, Note_on_c, 1, 80, 0
2, 1536, Note_on_c, 1, 78, 64
2, 1581, Note_on_c, 1, 78, 0
2, 1584, Note_on_c, 1, 76, 64
2, 1629, Note_on_c, 1, 76, 0
2, 1632, Note_on_c, 1, 83, 64
2, 1773, Note_on_c, 1, 83, 0
2, 1776, Note_on_c, 1, 75, 64
2, 1821, Note_on_c, 1, 75, 0
2, 1824, Note_on_c, 1, 73, 64
2, 1869, Note_on_c, 1, 73, 0
2, 1872, Note_on_c, 1, 71, 64
2, 1917, Note_on_c, 1, 71, 0
2, 1920, Note_on_c, 1, 83, 64
2, 2061, Note_on_c, 1, 83, 0
2, 2064, Note_on_c, 1, 75, 64
2, 2109, Note_on_c, 1, 75, 0
2, 2112, Note_on_c, 1, 76, 64
2, 2157, Note_on_c, 1, 76, 0
2, 2160, Note_on_c, 1, 78, 64
2, 2205, Note_on_c, 1, 78, 0
2, 2208, Note_on_c, 1, 80, 64
2, 2253, Note_on_c, 1, 80, 0
2, 2256, Note_on_c, 1, 76, 64
2, 2301, Note_on_c, 1, 76, 0
2, 2304, Note_on_c, 1, 73, 64
2, 2327, Note_on_c, 1, 73, 0
2, 2328, Note_on_c, 1, 78, 64
2, 2351, Note_on_c, 1, 78, 0
2, 2352, Note_on_c, 1, 73, 64
2, 2375, Note_on_c, 1, 73, 0
2, 2376, Note_on_c, 1, 78, 64
2, 2399, Note_on_c, 1, 78, 0
2, 2400, Note_on_c, 1, 70, 64
2, 2423, Note_on_c, 1, 70, 0
2, 2424, Note_on_c, 1, 76, 64
2, 2447, Note_on_c, 1, 76, 0
2, 2448, Note_on_c, 1, 73, 64
2, 2471, Note_on_c, 1, 73, 0
2, 2472, Note_on_c, 1, 76, 64
2, 2495, Note_on_c, 1, 76, 0
2, 2496, Note_on_c, 1, 66, 64
2, 2519, Note_on_c, 1, 66, 0
2, 2520, Note_on_c, 1, 76, 64
2, 2543, Note_on_c, 1, 76, 0
2, 2544, Note_on_c, 1, 73, 64
2, 2567, Note_on_c, 1, 73, 0
2, 2568, Note_on_c, 1, 76, 64
2, 2591, Note_on_c, 1, 76, 0
2, 2592, Note_on_c, 1, 66, 64
2, 2637, Note_on_c, 1, 66, 0
2, 2640, Note_on_c, 1, 75, 64
2, 2685, Note_on_c, 1, 75, 0
2, 2712, Note_on_c, 1, 78, 64
2, 2735, Note_on_c, 1, 78, 0
2, 2736, Note_on_c, 1, 75, 64
2, 2759, Note_on_c, 1, 75, 0
2, 2760, Note_on_c, 1, 78, 64
2, 2783, Note_on_c, 1, 78, 0
2, 2784, Note_on_c, 1, 81, 64
2, 2807, Note_on_c, 1, 81, 0
2, 2808, Note_on_c, 1, 78, 64
2, 2831, Note_on_c, 1, 78, 0
2, 2832, Note_on_c, 1, 75, 64
2, 2855, Note_on_c, 1, 75, 0
2, 2856, Note_on_c, 1, 78, 64
2, 2879, Note_on_c, 1, 78, 0
2, 2880, Note_on_c, 1, 80, 64
2, 2903, Note_on_c, 1, 80, 0
2, 2904, Note_on_c, 1, 76, 64
2, 2927, Note_on_c, 1, 76, 0
2, 2928, Note_on_c, 1, 71, 64
2, 2951, Note_on_c, 1, 71, 0
2, 2952, Note_on_c, 1, 76, 64
2, 2975, Note_on_c, 1, 76, 0
2, 2976, Note_on_c, 1, 68, 64
2, 2999, Note_on_c, 1, 68, 0
2, 3000, Note_on_c, 1, 74, 64
2, 3023, Note_on_c, 1, 74, 0
2, 3024, Note_on_c, 1, 71, 64
2, 3047, Note_on_c, 1, 71, 0
2, 3048, Note_on_c, 1, 74, 64
2, 3071, Note_on_c, 1, 74, 0
2, 3072, Note_on_c, 1, 64, 64
2, 3095, Note_on_c, 1, 64, 0
2, 3096, Note_on_c, 1, 74, 64
2, 3119, Note_on_c, 1, 74, 0
2, 3120, Note_on_c, 1, 71, 64
2, 3143, Note_on_c, 1, 71, 0
2, 3144, Note_on_c, 1, 74, 64
2, 3167, Note_on_c, 1, 74, 0
2, 3168, Note_on_c, 1, 73, 64
2, 3191, Note_on_c, 1, 73, 0
2, 3192, Note_on_c, 1, 81, 64
2, 3215, Note_on_c, 1, 81, 0
2, 3216, Note_on_c, 1, 76, 64
2, 3239, Note_on_c, 1, 76, 0
2, 3240, Note_on_c, 1, 81, 64
2, 3263, Note_on_c, 1, 81, 0
2, 3264, Note_on_c, 1, 85, 64
2, 3287, Note_on_c, 1, 85, 0
2, 3288, Note_on_c, 1, 81, 64
2, 3311, Note_on_c, 1, 81, 0
2, 3312, Note_on_c, 1, 76, 64
2, 3335, Note_on_c, 1, 76, 0
2, 3336, Note_on_c, 1, 81, 64
2, 3359, Note_on_c, 1, 81, 0
2, 3360, Note_on_c, 1, 73, 64
2, 3383, Note_on_c, 1, 73, 0
2, 3384, Note_on_c, 1, 76, 64
2, 3407, Note_on_c, 1, 76, 0
2, 3408, Note_on_c, 1, 71, 64
2, 3431, Note_on_c, 1, 71, 0
2, 3432, Note_on_c, 1, 74, 64
2, 3455, Note_on_c, 1, 74, 0
2, 3456, Note_on_c, 1, 73, 64
2, 3479, Note_on_c, 1, 73, 0
2, 3480, Note_on_c, 1, 78, 64
2, 3503, Note_on_c, 1, 78, 0
2, 3504, Note_on_c, 1, 73, 64
2, 3527, Note_on_c, 1, 73, 0
2, 3528, Note_on_c, 1, 78, 64
2, 3551, Note_on_c, 1, 78, 0
2, 3552, Note_on_c, 1, 81, 64
2, 3575, Note_on_c, 1, 81, 0
2, 3576, Note_on_c, 1, 78, 64
2, 3599, Note_on_c, 1, 78, 0
2, 3600, Note_on_c, 1, 73, 64
2, 3623, Note_on_c, 1, 73, 0
2, 3624, Note_on_c, 1, 78, 64
2, 3647, Note_on_c, 1, 78, 0
2, 3648, Note_on_c, 1, 69, 64
2, 3671, Note_on_c, 1, 69, 0
2, 3672, Note_on_c, 1, 73, 64
2, 3695, Note_on_c, 1, 73, 0
2, 3696, Note_on_c, 1, 68, 64
2, 3719, Note_on_c, 1, 68, 0
2, 3720, Note_on_c, 1, 71, 64
2, 3743, Note_on_c, 1, 71, 0
2, 3744, Note_on_c, 1, 69, 64
2, 3767, Note_on_c, 1, 69, 0
2, 3768, Note_on_c, 1, 73, 64
2, 3791, Note_on_c, 1, 73, 0
2, 3792, Note_on_c, 1, 69, 64
2, 3815, Note_on_c, 1, 69, 0
2, 3816, Note_on_c, 1, 73, 64
2, 3839, Note_on_c, 1, 73, 0
2, 3840, Note_on_c, 1, 78, 64
2, 3863, Note_on_c, 1, 78, 0
2, 3864, Note_on_c, 1, 73, 64
2, 3887, Note_on_c, 1, 73, 0
2, 3888, Note_on_c, 1, 69, 64
2, 3911, Note_on_c, 1, 69, 0
2, 3912, Note_on_c, 1, 73, 64
2, 3935, Note_on_c, 1, 73, 0
2, 3936, Note_on_c, 1, 66, 64
2, 3959, Note_on_c, 1, 66, 0
2, 3960, Note_on_c, 1, 69, 64
2, 3983, Note_on_c, 1, 69, 0
2, 3984, Note_on_c, 1, 64, 64
2, 4007, Note_on_c, 1, 64, 0
2, 4008, Note_on_c, 1, 69, 64
2, 4031, Note_on_c, 1, 69, 0
2, 4032, Note_on_c, 1, 63, 64
2, 4055, Note_on_c, 1, 63, 0
2, 4056, Note_on_c, 1, 66, 64
2, 4079, Note_on_c, 1, 66, 0
2, 4080, Note_on_c, 1, 63, 64
2, 4103, Note_on_c, 1, 63, 0
2, 4104, Note_on_c, 1, 66, 64
2, 4127, Note_on_c, 1, 66, 0
2, 4128, Note_on_c, 1, 69, 64
2, 4151, Note_on_c, 1, 69, 0
2, 4152, Note_on_c, 1, 66, 64
2, 4175, Note_on_c, 1, 66, 0
2, 4176, Note_on_c, 1, 63, 64
2, 4199, Note_on_c, 1, 63, 0
2, 4200, Note_on_c, 1, 66, 64
2, 4223, Note_on_c, 1, 66, 0
2, 4224, Note_on_c, 1, 59, 64
2, 4269, Note_on_c, 1, 59, 0
2, 4272, Note_on_c, 1, 75, 64
2, 4317, Note_on_c, 1, 75, 0
2, 4320, Note_on_c, 1, 76, 64
2, 4409, Note_on_c, 1, 76, 0
2, 4464, Note_on_c, 1, 68, 64
2, 4509, Note_on_c, 1, 68, 0
2, 4512, Note_on_c, 1, 71, 64
2, 4557, Note_on_c, 1, 71, 0
2, 4560, Note_on_c, 1, 76, 64
2, 4605, Note_on_c, 1, 76, 0
2, 4608, Note_on_c, 1, 78, 64
2, 4697, Note_on_c, 1, 78, 0
2, 4752, Note_on_c, 1, 69, 64
2, 4797, Note_on_c, 1, 69, 0
2, 4800, Note_on_c, 1, 73, 64
2, 4845, Note_on_c, 1, 73, 0
2, 4848, Note_on_c, 1, 78, 64
2, 4893, Note_on_c, 1, 78, 0
2, 4896, Note_on_c, 1, 80, 64
2, 4985, Note_on_c, 1, 80, 0
2, 5040, Note_on_c, 1, 71, 64
2, 5085, Note_on_c, 1, 71, 0
2, 5088, Note_on_c, 1, 76, 64
2, 5133, Note_on_c, 1, 76, 0
2, 5136, Note_on_c, 1, 80, 64
2, 5181, Note_on_c, 1, 80, 0
2, 5184, Note_on_c, 1, 81, 64
2, 5517, Note_on_c, 1, 81, 0
2, 5520, Note_on_c, 1, 81, 64
2, 5565, Note_on_c, 1, 81, 0
2, 5568, Note_on_c, 1, 80, 64
2, 5613, Note_on_c, 1, 80, 0
2, 5616, Note_on_c, 1, 78, 64
2, 5661, Note_on_c, 1, 78, 0
2, 5664, Note_on_c, 1, 76, 64
2, 5709, Note_on_c, 1, 76, 0
2, 5712, Note_on_c, 1, 75, 64
2, 5757, Note_on_c, 1, 75, 0
2, 5760, Note_on_c, 1, 80, 64
2, 6071, Note_on_c, 1, 80, 0
2, 6072, Note_on_c, 1, 78, 64
2, 6095, Note_on_c, 1, 78, 0
2, 6096, Note_on_c, 1, 81, 64
2, 6119, Note_on_c, 1, 81, 0
2, 6120, Note_on_c, 1, 80, 64
2, 6143, Note_on_c, 1, 80, 0
2, 6144, Note_on_c, 1, 78, 64
2, 6167, Note_on_c, 1, 78, 0
2, 6168, Note_on_c, 1, 76, 64
2, 6191, Note_on_c, 1, 76, 0
2, 6192, Note_on_c, 1, 78, 64
2, 6215, Note_on_c, 1, 78, 0
2, 6216, Note_on_c, 1, 76, 64
2, 6239, Note_on_c, 1, 76, 0
2, 6240, Note_on_c, 1, 75, 64
2, 6263, Note_on_c, 1, 75, 0
2, 6264, Note_on_c, 1, 73, 64
2, 6287, Note_on_c, 1, 73, 0
2, 6288, Note_on_c, 1, 75, 64
2, 6311, Note_on_c, 1, 75, 0
2, 6312, Note_on_c, 1, 73, 64
2, 6335, Note_on_c, 1, 73, 0
2, 6336, Note_on_c, 1, 75, 64
2, 6381, Note_on_c, 1, 75, 0
2, 6384, Note_on_c, 1, 71, 64
2, 6429, Note_on_c, 1, 71, 0
2, 6432, Note_on_c, 1, 75, 64
2, 6477, Note_on_c, 1, 75, 0
2, 6480, Note_on_c, 1, 78, 64
2, 6525, Note_on_c, 1, 78, 0
2, 6528, Note_on_c, 1, 83, 64
2, 6669, Note_on_c, 1, 83, 0
2, 6672, Note_on_c, 1, 80, 64
2, 6717, Note_on_c, 1, 80, 0
2, 6720, Note_on_c, 1, 78, 64
2, 6765, Note_on_c, 1, 78, 0
2, 6768, Note_on_c, 1, 76, 64
2, 6813, Note_on_c, 1, 76, 0
2, 6816, Note_on_c, 1, 83, 64
2, 6957, Note_on_c, 1, 83, 0
2, 6960, Note_on_c, 1, 75, 64
2, 7005, Note_on_c, 1, 75, 0
2, 7008, Note_on_c, 1, 73, 64
2, 7053, Note_on_c, 1, 73, 0
2, 7056, Note_on_c, 1, 71, 64
2, 7101, Note_on_c, 1, 71, 0
2, 7104, Note_on_c, 1, 83, 64
2, 7223, Note_on_c, 1, 83, 0
2, 7224, Note_on_c, 1, 76, 64
2, 7247, Note_on_c, 1, 76, 0
2, 7248, Note_on_c, 1, 75, 64
2, 7271, Note_on_c, 1, 75, 0
2, 7272, Note_on_c, 1, 76, 64
2, 7295, Note_on_c, 1, 76, 0
2, 7296, Note_on_c, 1, 78, 64
2, 7319, Note_on_c, 1, 78, 0
2, 7320, Note_on_c, 1, 76, 64
2, 7343, Note_on_c, 1, 76, 0
2, 7344, Note_on_c, 1, 75, 64
2, 7367, Note_on_c, 1, 75, 0
2, 7368, Note_on_c, 1, 76, 64
2, 7391, Note_on_c, 1, 76, 0
2, 7392, Note_on_c, 1, 80, 64
2, 7415, Note_on_c, 1, 80, 0
2, 7416, Note_on_c, 1, 76, 64
2, 7439, Note_on_c, 1, 76, 0
2, 7440, Note_on_c, 1, 75, 64
2, 7463, Note_on_c, 1, 75, 0
2, 7464, Note_on_c, 1, 76, 64
2, 7487, Note_on_c, 1, 76, 0
2, 7488, Note_on_c, 1, 81, 64
2, 7511, Note_on_c, 1, 81, 0
2, 7512, Note_on_c, 1, 76, 64
2, 7535, Note_on_c, 1, 76, 0
2, 7536, Note_on_c, 1, 75, 64
2, 7559, Note_on_c, 1, 75, 0
2, 7560, Note_on_c, 1, 76, 64
2, 7583, Note_on_c, 1, 76, 0
2, 7584, Note_on_c, 1, 80, 64
2, 7607, Note_on_c, 1, 80, 0
2, 7608, Note_on_c, 1, 76, 64
2, 7631, Note_on_c, 1, 76, 0
2, 7632, Note_on_c, 1, 75, 64
2, 7655, Note_on_c, 1, 75, 0
2, 7656, Note_on_c, 1, 76, 64
2, 7679, Note_on_c, 1, 76, 0
2, 7680, Note_on_c, 1, 81, 64
2, 7703, Note_on_c, 1, 81, 0
2, 7704, Note_on_c, 1, 76, 64
2, 7727, Note_on_c, 1, 76, 0
2, 7728, Note_on_c, 1, 75, 64
2, 7751, Note_on_c, 1, 75, 0
2, 7752, Note_on_c, 1, 76, 64
2, 7775, Note_on_c, 1, 76, 0
2, 7776, Note_on_c, 1, 83, 64
2, 7799, Note_on_c, 1, 83, 0
2, 7800, Note_on_c, 1, 76, 64
2, 7823, Note_on_c, 1, 76, 0
2, 7824, Note_on_c, 1, 75, 64
2, 7847, Note_on_c, 1, 75, 0
2, 7848, Note_on_c, 1, 76, 64
2, 7871, Note_on_c, 1, 76, 0
2, 7872, Note_on_c, 1, 81, 64
2, 7895, Note_on_c, 1, 81, 0
2, 7896, Note_on_c, 1, 76, 64
2, 7919, Note_on_c, 1, 76, 0
2, 7920, Note_on_c, 1, 75, 64
2, 7943, Note_on_c, 1, 75, 0
2, 7944, Note_on_c, 1, 76, 64
2, 7967, Note_on_c, 1, 76, 0
2, 7968, Note_on_c, 1, 83, 64
2, 7991, Note_on_c, 1, 83, 0
2, 7992, Note_on_c, 1, 76, 64
2, 8015, Note_on_c, 1, 76, 0
2, 8016, Note_on_c, 1, 75, 64
2, 8039, Note_on_c, 1, 75, 0
2, 8040, Note_on_c, 1, 76, 64
2, 8063, Note_on_c, 1, 76, 0
2, 8064, Note_on_c, 1, 85, 64
2, 8087, Note_on_c, 1, 85, 0
2, 8088, Note_on_c, 1, 83, 64
2, 8111, Note_on_c, 1, 83, 0
2, 8112, Note_on_c, 1, 85, 64
2, 8135, Note_on_c, 1, 85, 0
2, 8136, Note_on_c, 1, 83, 64
2, 8159, Note_on_c, 1, 83, 0
2, 8160, Note_on_c, 1, 81, 64
2, 8183, Note_on_c, 1, 81, 0
2, 8184, Note_on_c, 1, 80, 64
2, 8207, Note_on_c, 1, 80, 0
2, 8208, Note_on_c, 1, 81, 64
2, 8231, Note_on_c, 1, 81, 0
2, 8232, Note_on_c, 1, 80, 64
2, 8255, Note_on_c, 1, 80, 0
2, 8256, Note_on_c, 1, 78, 64
2, 8279, Note_on_c, 1, 78, 0
2, 8280, Note_on_c, 1, 76, 64
2, 8303, Note_on_c, 1, 76, 0
2, 8304, Note_on_c, 1, 78, 64
2, 8327, Note_on_c, 1, 78, 0
2, 8328, Note_on_c, 1, 76, 64
2, 8351, Note_on_c, 1, 76, 0
2, 8352, Note_on_c, 1, 75, 64
2, 8397, Note_on_c, 1, 75, 0
2, 8400, Note_on_c, 1, 73, 64
2, 8445, Note_on_c, 1, 73, 0
2, 8448, Note_on_c, 1, 75, 64
2, 8493, Note_on_c, 1, 75, 0
2, 8496, Note_on_c, 1, 76, 64
2, 8541, Note_on_c, 1, 76, 0
2, 8544, Note_on_c, 1, 78, 64
2, 8589, Note_on_c, 1, 78, 0
2, 8592, Note_on_c, 1, 75, 64
2, 8637, Note_on_c, 1, 75, 0
2, 8640, Note_on_c, 1, 83, 64
2, 8663, Note_on_c, 1, 83, 0
2, 8664, Note_on_c, 1, 81, 64
2, 8687, Note_on_c, 1, 81, 0
2, 8688, Note_on_c, 1, 83, 64
2, 8711, Note_on_c, 1, 83, 0
2, 8712, Note_on_c, 1, 81, 64
2, 8735, Note_on_c, 1, 81, 0
2, 8736, Note_on_c, 1, 80, 64
2, 8759, Note_on_c, 1, 80, 0
2, 8760, Note_on_c, 1, 78, 64
2, 8783, Note_on_c, 1, 78, 0
2, 8784, Note_on_c, 1, 80, 64
2, 8807, Note_on_c, 1, 80, 0
2, 8808, Note_on_c, 1, 78, 64
2, 8831, Note_on_c, 1, 78, 0
2, 8832, Note_on_c, 1, 76, 64
2, 8855, Note_on_c, 1, 76, 0
2, 8856, Note_on_c, 1, 74, 64
2, 8879, Note_on_c, 1, 74, 0
2, 8880, Note_on_c, 1, 76, 64
2, 8903, Note_on_c, 1, 76, 0
2, 8904, Note_on_c, 1, 74, 64
2, 8927, Note_on_c, 1, 74, 0
2, 8928, Note_on_c, 1, 73, 64
2, 8951, Note_on_c, 1, 73, 0
2, 8952, Note_on_c, 1, 71, 64
2, 8975, Note_on_c, 1, 71, 0
2, 8976, Note_on_c, 1, 73, 64
2, 8999, Note_on_c, 1, 73, 0
2, 9000, Note_on_c, 1, 71, 64
2, 9023, Note_on_c, 1, 71, 0
2, 9024, Note_on_c, 1, 69, 64
2, 9047, Note_on_c, 1, 69, 0
2, 9048, Note_on_c, 1, 68, 64
2, 9071, Note_on_c, 1, 68, 0
2, 9072, Note_on_c, 1, 69, 64
2, 9095, Note_on_c, 1, 69, 0
2, 9096, Note_on_c, 1, 68, 64
2, 9119, Note_on_c, 1, 68, 0
2, 9120, Note_on_c, 1, 66, 64
2, 9143, Note_on_c, 1, 66, 0
2, 9144, Note_on_c, 1, 64, 64
2, 9167, Note_on_c, 1, 64, 0
2, 9168, Note_on_c, 1, 66, 64
2, 9191, Note_on_c, 1, 66, 0
2, 9192, Note_on_c, 1, 64, 64
2, 9215, Note_on_c, 1, 64, 0
2, 9216, Note_on_c, 1, 75, 64
2, 9349, Note_on_c, 1, 75, 0
2, 9360, Note_on_c, 1, 71, 64
2, 9405, Note_on_c, 1, 71, 0
2, 9408, Note_on_c, 1, 76, 64
2, 9453, Note_on_c, 1, 76, 0
2, 9456, Note_on_c, 1, 75, 64
2, 9501, Note_on_c, 1, 75, 0
2, 9504, Note_on_c, 1, 76, 64
2, 9549, Note_on_c, 1, 76, 0
2, 9552, Note_on_c, 1, 78, 64
2, 9597, Note_on_c, 1, 78, 0
2, 9600, Note_on_c, 1, 75, 64
2, 9733, Note_on_c, 1, 75, 0
2, 9744, Note_on_c, 1, 76, 64
2, 9789, Note_on_c, 1, 76, 0
2, 9792, Note_on_c, 1, 76, 64
2, 9822, Note_on_c, 1, 76, 0
2, 9824, Note_on_c, 1, 71, 64
2, 9854, Note_on_c, 1, 71, 0
2, 9856, Note_on_c, 1, 69, 64
2, 9886, Note_on_c, 1, 69, 0
2, 9888, Note_on_c, 1, 71, 64
2, 9918, Note_on_c, 1, 71, 0
2, 9920, Note_on_c, 1, 68, 64
2, 9950, Note_on_c, 1, 68, 0
2, 9952, Note_on_c, 1, 66, 64
2, 9982, Note_on_c, 1, 66, 0
2, 9984, Note_on_c, 1, 68, 64
2, 10014, Note_on_c, 1, 68, 0
2, 10016, Note_on_c, 1, 64, 64
2, 10046, Note_on_c, 1, 64, 0
2, 10048, Note_on_c, 1, 76, 64
2, 10078, Note_on_c, 1, 76, 0
2, 10080, Note_on_c, 1, 64, 64
2, 10110, Note_on_c, 1, 64, 0
2, 10112, Note_on_c, 1, 68, 64
2, 10142, Note_on_c, 1, 68, 0
2, 10144, Note_on_c, 1, 66, 64
2, 10174, Note_on_c, 1, 66, 0
2, 10176, Note_on_c, 1, 68, 64
2, 10206, Note_on_c, 1, 68, 0
2, 10208, Note_on_c, 1, 71, 64
2, 10238, Note_on_c, 1, 71, 0
2, 10240, Note_on_c, 1, 69, 64
2, 10270, Note_on_c, 1, 69, 0
2, 10272, Note_on_c, 1, 71, 64
2, 10302, Note_on_c, 1, 71, 0
2, 10304, Note_on_c, 1, 76, 64
2, 10334, Note_on_c, 1, 76, 0
2, 10336, Note_on_c, 1, 75, 64
2, 10366, Note_on_c, 1, 75, 0
2, 10368, Note_on_c, 1, 76, 64
2, 10398, Note_on_c, 1, 76, 0
2, 10400, Note_on_c, 1, 71, 64
2, 10430, Note_on_c, 1, 71, 0
2, 10432, Note_on_c, 1, 81, 64
2, 10462, Note_on_c, 1, 81, 0
2, 10464, Note_on_c, 1, 80, 64
2, 10494, Note_on_c, 1, 80, 0
2, 10496, Note_on_c, 1, 71, 64
2, 10526, Note_on_c, 1, 71, 0
2, 10528, Note_on_c, 1, 83, 64
2, 10558, Note_on_c, 1, 83, 0
2, 10560, Note_on_c, 1, 78, 64
2, 10590, Note_on_c, 1, 78, 0
2, 10592, Note_on_c, 1, 71, 64
2, 10622, Note_on_c, 1, 71, 0
2, 10624, Note_on_c, 1, 81, 64
2, 10654, Note_on_c, 1, 81, 0
2, 10656, Note_on_c, 1, 80, 64
2, 10668, Note_on_c, 1, 80, 0
2, 10668, Note_on_c, 1, 81, 64
2, 10680, Note_on_c, 1, 81, 0
2, 10680, Note_on_c, 1, 80, 64
2, 10692, Note_on_c, 1, 80, 0
2, 10692, Note_on_c, 1, 81, 64
2, 10704, Note_on_c, 1, 81, 0
2, 10704, Note_on_c, 1, 80, 64
2, 10716, Note_on_c, 1, 80, 0
2, 10716, Note_on_c, 1, 81, 64
2, 10728, Note_on_c, 1, 81, 0
2, 10728, Note_on_c, 1, 80, 64
2, 10740, Note_on_c, 1, 80, 0
2, 10740, Note_on_c, 1, 81, 64
2, 10752, Note_on_c, 1, 81, 0
2, 10752, Note_on_c, 1, 80, 64
2, 10764, Note_on_c, 1, 80, 0
2, 10764, Note_on_c, 1, 81, 64
2, 10776, Note_on_c, 1, 81, 0
2, 10776, Note_on_c, 1, 80, 64
2, 10788, Note_on_c, 1, 80, 0
2, 10788, Note_on_c, 1, 81, 64
2, 10800, Note_on_c, 1, 81, 0
2, 10800, Note_on_c, 1, 80, 64
2, 10812, Note_on_c, 1, 80, 0
2, 10812, Note_on_c, 1, 81, 64
2, 10824, Note_on_c, 1, 81, 0
2, 10824, Note_on_c, 1, 80, 64
2, 10836, Note_on_c, 1, 80, 0
2, 10836, Note_on_c, 1, 81, 64
2, 10848, Note_on_c, 1, 81, 0
2, 10848, Note_on_c, 1, 78, 64
2, 10937, Note_on_c, 1, 78, 0
2, 10944, Note_on_c, 1, 76, 64
2, 10974, Note_on_c, 1, 76, 0
2, 10976, Note_on_c, 1, 73, 64
2, 11006, Note_on_c, 1, 73, 0
2, 11008, Note_on_c, 1, 75, 64
2, 11038, Note_on_c, 1, 75, 0
2, 11040, Note_on_c, 1, 76, 64
2, 11070, Note_on_c, 1, 76, 0
2, 11072, Note_on_c, 1, 78, 64
2, 11102, Note_on_c, 1, 78, 0
2, 11104, Note_on_c, 1, 80, 64
2, 11134, Note_on_c, 1, 80, 0
2, 11136, Note_on_c, 1, 71, 64
2, 11166, Note_on_c, 1, 71, 0
2, 11168, Note_on_c, 1, 70, 64
2, 11198, Note_on_c, 1, 70, 0
2, 11200, Note_on_c, 1, 68, 64
2, 11230, Note_on_c, 1, 68, 0
2, 11232, Note_on_c, 1, 70, 64
2, 11262, Note_on_c, 1, 70, 0
2, 11264, Note_on_c, 1, 66, 64
2, 11294, Note_on_c, 1, 66, 0
2, 11296, Note_on_c, 1, 68, 64
2, 11326, Note_on_c, 1, 68, 0
2, 11328, Note_on_c, 1, 70, 64
2, 11358, Note_on_c, 1, 70, 0
2, 11360, Note_on_c, 1, 71, 64
2, 11390, Note_on_c, 1, 71, 0
2, 11392, Note_on_c, 1, 73, 64
2, 11422, Note_on_c, 1, 73, 0
2, 11424, Note_on_c, 1, 64, 64
2, 11454, Note_on_c, 1, 64, 0
2, 11456, Note_on_c, 1, 63, 64
2, 11486, Note_on_c, 1, 63, 0
2, 11488, Note_on_c, 1, 61, 64
2, 11518, Note_on_c, 1, 61, 0
2, 11520, Note_on_c, 1, 63, 64
2, 11550, Note_on_c, 1, 63, 0
2, 11552, Note_on_c, 1, 71, 64
2, 11582, Note_on_c, 1, 71, 0
2, 11584, Note_on_c, 1, 73, 64
2, 11614, Note_on_c, 1, 73, 0
2, 11616, Note_on_c, 1, 75, 64
2, 11646, Note_on_c, 1, 75, 0
2, 11648, Note_on_c, 1, 76, 64
2, 11678, Note_on_c, 1, 76, 0
2, 11680, Note_on_c, 1, 78, 64
2, 11710, Note_on_c, 1, 78, 0
2, 11712, Note_on_c, 1, 69, 64
2, 11742, Note_on_c, 1, 69, 0
2, 11744, Note_on_c, 1, 68, 64
2, 11774, Note_on_c, 1, 68, 0
2, 11776, Note_on_c, 1, 66, 64
2, 11806, Note_on_c, 1, 66, 0
2, 11808, Note_on_c, 1, 68, 64
2, 11838, Note_on_c, 1, 68, 0
2, 11840, Note_on_c, 1, 64, 64
2, 11870, Note_on_c, 1, 64, 0
2, 11872, Note_on_c, 1, 66, 64
2, 11902, Note_on_c, 1, 66, 0
2, 11904, Note_on_c, 1, 68, 64
2, 11934, Note_on_c, 1, 68, 0
2, 11936, Note_on_c, 1, 70, 64
2, 11966, Note_on_c, 1, 70, 0
2, 11968, Note_on_c, 1, 71, 64
2, 11998, Note_on_c, 1, 71, 0
2, 12000, Note_on_c, 1, 63, 64
2, 12030, Note_on_c, 1, 63, 0
2, 12032, Note_on_c, 1, 61, 64
2, 12062, Note_on_c, 1, 61, 0
2, 12064, Note_on_c, 1, 59, 64
2, 12094, Note_on_c, 1, 59, 0
2, 12096, Note_on_c, 1, 61, 64
2, 12414, Note_on_c, 1, 61, 0
2, 12416, Note_on_c, 1, 66, 64
2, 12446, Note_on_c, 1, 66, 0
2, 12448, Note_on_c, 1, 68, 64
2, 12478, Note_on_c, 1, 68, 0
2, 12480, Note_on_c, 1, 70, 64
2, 12510, Note_on_c, 1, 70, 0
2, 12512, Note_on_c, 1, 71, 64
2, 12542, Note_on_c, 1, 71, 0
2, 12544, Note_on_c, 1, 73, 64
2, 12574, Note_on_c, 1, 73, 0
2, 12576, Note_on_c, 1, 64, 64
2, 12606, Note_on_c, 1, 64, 0
2, 12608, Note_on_c, 1, 63, 64
2, 12638, Note_on_c, 1, 63, 0
2, 12640, Note_on_c, 1, 61, 64
2, 12670, Note_on_c, 1, 61, 0
2, 12672, Note_on_c, 1, 63, 64
2, 12990, Note_on_c, 1, 63, 0
2, 12992, Note_on_c, 1, 68, 64
2, 13022, Note_on_c, 1, 68, 0
2, 13024, Note_on_c, 1, 70, 64
2, 13054, Note_on_c, 1, 70, 0
2, 13056, Note_on_c, 1, 71, 64
2, 13086, Note_on_c, 1, 71, 0
2, 13088, Note_on_c, 1, 73, 64
2, 13118, Note_on_c, 1, 73, 0
2, 13120, Note_on_c, 1, 75, 64
2, 13150, Note_on_c, 1, 75, 0
2, 13152, Note_on_c, 1, 66, 64
2, 13182, Note_on_c, 1, 66, 0
2, 13184, Note_on_c, 1, 64, 64
2, 13214, Note_on_c, 1, 64, 0
2, 13216, Note_on_c, 1, 63, 64
2, 13246, Note_on_c, 1, 63, 0
2, 13248, Note_on_c, 1, 64, 64
2, 13278, Note_on_c, 1, 64, 0
2, 13280, Note_on_c, 1, 73, 64
2, 13310, Note_on_c, 1, 73, 0
2, 13312, Note_on_c, 1, 75, 64
2, 13342, Note_on_c, 1, 75, 0
2, 13344, Note_on_c, 1, 76, 64
2, 13374, Note_on_c, 1, 76, 0
2, 13376, Note_on_c, 1, 78, 64
2, 13406, Note_on_c, 1, 78, 0
2, 13408, Note_on_c, 1, 80, 64
2, 13438, Note_on_c, 1, 80, 0
2, 13440, Note_on_c, 1, 71, 64
2, 13470, Note_on_c, 1, 71, 0
2, 13472, Note_on_c, 1, 70, 64
2, 13502, Note_on_c, 1, 70, 0
2, 13504, Note_on_c, 1, 68, 64
2, 13534, Note_on_c, 1, 68, 0
2, 13536, Note_on_c, 1, 70, 64
2, 13566, Note_on_c, 1, 70, 0
2, 13568, Note_on_c, 1, 66, 64
2, 13598, Note_on_c, 1, 66, 0
2, 13600, Note_on_c, 1, 76, 64
2, 13630, Note_on_c, 1, 76, 0
2, 13632, Note_on_c, 1, 71, 64
2, 13662, Note_on_c, 1, 71, 0
2, 13664, Note_on_c, 1, 68, 64
2, 13694, Note_on_c, 1, 68, 0
2, 13696, Note_on_c, 1, 76, 64
2, 13726, Note_on_c, 1, 76, 0
2, 13728, Note_on_c, 1, 73, 64
2, 13758, Note_on_c, 1, 73, 0
2, 13760, Note_on_c, 1, 70, 64
2, 13790, Note_on_c, 1, 70, 0
2, 13792, Note_on_c, 1, 76, 64
2, 13822, Note_on_c, 1, 76, 0
2, 13824, Note_on_c, 1, 75, 64
2, 13854, Note_on_c, 1, 75, 0
2, 13856, Note_on_c, 1, 71, 64
2, 13886, Note_on_c, 1, 71, 0
2, 13888, Note_on_c, 1, 73, 64
2, 13918, Note_on_c, 1, 73, 0
2, 13920, Note_on_c, 1, 75, 64
2, 13950, Note_on_c, 1, 75, 0
2, 13952, Note_on_c, 1, 76, 64
2, 13982, Note_on_c, 1, 76, 0
2, 13984, Note_on_c, 1, 78, 64
2, 14014, Note_on_c, 1, 78, 0
2, 14016, Note_on_c, 1, 69, 64
2, 14046, Note_on_c, 1, 69, 0
2, 14048, Note_on_c, 1, 68, 64
2, 14078, Note_on_c, 1, 68, 0
2, 14080, Note_on_c, 1, 66, 64
2, 14110, Note_on_c, 1, 66, 0
2, 14112, Note_on_c, 1, 68, 64
2, 14157, Note_on_c, 1, 68, 0
2, 14160, Note_on_c, 1, 76, 64
2, 14205, Note_on_c, 1, 76, 0
2, 14208, Note_on_c, 1, 73, 64
2, 14341, Note_on_c, 1, 73, 0
2, 14352, Note_on_c, 1, 71, 64
2, 14397, Note_on_c, 1, 71, 0
2, 14400, Note_on_c, 1, 71, 64
2, 14489, Note_on_c, 1, 71, 0
2, 15288, Note_on_c, 1, 78, 64
2, 15311, Note_on_c, 1, 78, 0
2, 15312, Note_on_c, 1, 76, 64
2, 15335, Note_on_c, 1, 76, 0
2, 15336, Note_on_c, 1, 78, 64
2, 15359, Note_on_c, 1, 78, 0
2, 15360, Note_on_c, 1, 80, 64
2, 15383, Note_on_c, 1, 80, 0
2, 15384, Note_on_c, 1, 78, 64
2, 15407, Note_on_c, 1, 78, 0
2, 15408, Note_on_c, 1, 76, 64
2, 15431, Note_on_c, 1, 76, 0
2, 15432, Note_on_c, 1, 78, 64
2, 15455, Note_on_c, 1, 78, 0
2, 15456, Note_on_c, 1, 82, 64
2, 15479, Note_on_c, 1, 82, 0
2, 15480, Note_on_c, 1, 78, 64
2, 15503, Note_on_c, 1, 78, 0
2, 15504, Note_on_c, 1, 76, 64
2, 15527, Note_on_c, 1, 76, 0
2, 15528, Note_on_c, 1, 78, 64
2, 15551, Note_on_c, 1, 78, 0
2, 15552, Note_on_c, 1, 83, 64
2, 15641, Note_on_c, 1, 83, 0
2, 16728, Note_on_c, 1, 71, 64
2, 16751, Note_on_c, 1, 71, 0
2, 16752, Note_on_c, 1, 70, 64
2, 16775, Note_on_c, 1, 70, 0
2, 16776, Note_on_c, 1, 71, 64
2, 16799, Note_on_c, 1, 71, 0
2, 16800, Note_on_c, 1, 73, 64
2, 16823, Note_on_c, 1, 73, 0
2, 16824, Note_on_c, 1, 71, 64
2, 16847, Note_on_c, 1, 71, 0
2, 16848, Note_on_c, 1, 70, 64
2, 16871, Note_on_c, 1, 70, 0
2, 16872, Note_on_c, 1, 71, 64
2, 16895, Note_on_c, 1, 71, 0
2, 16896, Note_on_c, 1, 75, 64
2, 16919, Note_on_c, 1, 75, 0
2, 16920, Note_on_c, 1, 71, 64
2, 16943, Note_on_c, 1, 71, 0
2, 16944, Note_on_c, 1, 70, 64
2, 16967, Note_on_c, 1, 70, 0
2, 16968, Note_on_c, 1, 71, 64
2, 16991, Note_on_c, 1, 71, 0
2, 16992, Note_on_c, 1, 77, 64
2, 17081, Note_on_c, 1, 77, 0
2, 17304, Note_on_c, 1, 73, 64
2, 17327, Note_on_c, 1, 73, 0
2, 17328, Note_on_c, 1, 72, 64
2, 17351, Note_on_c, 1, 72, 0
2, 17352, Note_on_c, 1, 73, 64
2, 17375, Note_on_c, 1, 73, 0
2, 17376, Note_on_c, 1, 75, 64
2, 17399, Note_on_c, 1, 75, 0
2, 17400, Note_on_c, 1, 73, 64
2, 17423, Note_on_c, 1, 73, 0
2, 17424, Note_on_c, 1, 72, 64
2, 17447, Note_on_c, 1, 72, 0
2, 17448, Note_on_c, 1, 73, 64
2, 17471, Note_on_c, 1, 73, 0
2, 17472, Note_on_c, 1, 76, 64
2, 17495, Note_on_c, 1, 76, 0
2, 17496, Note_on_c, 1, 73, 64
2, 17519, Note_on_c, 1, 73, 0
2, 17520, Note_on_c, 1, 72, 64
2, 17543, Note_on_c, 1, 72, 0
2, 17544, Note_on_c, 1, 73, 64
2, 17567, Note_on_c, 1, 73, 0
2, 17568, Note_on_c, 1, 78, 64
2, 17657, Note_on_c, 1, 78, 0
2, 18744, Note_on_c, 1, 61, 64
2, 18767, Note_on_c, 1, 61, 0
2, 18768, Note_on_c, 1, 59, 64
2, 18791, Note_on_c, 1, 59, 0
2, 18792, Note_on_c, 1, 61, 64
2, 18815, Note_on_c, 1, 61, 0
2, 18816, Note_on_c, 1, 63, 64
2, 18839, Note_on_c, 1, 63, 0
2, 18840, Note_on_c, 1, 61, 64
2, 18863, Note_on_c, 1, 61, 0
2, 18864, Note_on_c, 1, 59, 64
2, 18887, Note_on_c, 1, 59, 0
2, 18888, Note_on_c, 1, 61, 64
2, 18911, Note_on_c, 1, 61, 0
2, 18912, Note_on_c, 1, 65, 64
2, 18935, Note_on_c, 1, 65, 0
2, 18936, Note_on_c, 1, 61, 64
2, 18959, Note_on_c, 1, 61, 0
2, 18960, Note_on_c, 1, 59, 64
2, 18983, Note_on_c, 1, 59, 0
2, 18984, Note_on_c, 1, 61, 64
2, 19007, Note_on_c, 1, 61, 0
2, 19008, Note_on_c, 1, 66, 64
2, 19038, Note_on_c, 1, 66, 0
2, 19040, Note_on_c, 1, 61, 64
2, 19070, Note_on_c, 1, 61, 0
2, 19072, Note_on_c, 1, 71, 64
2, 19102, Note_on_c, 1, 71, 0
2, 19104, Note_on_c, 1, 70, 64
2, 19134, Note_on_c, 1, 70, 0
2, 19136, Note_on_c, 1, 61, 64
2, 19166, Note_on_c, 1, 61, 0
2, 19168, Note_on_c, 1, 73, 64
2, 19198, Note_on_c, 1, 73, 0
2, 19200, Note_on_c, 1, 68, 64
2, 19230, Note_on_c, 1, 68, 0
2, 19232, Note_on_c, 1, 61, 64
2, 19262, Note_on_c, 1, 61, 0
2, 19264, Note_on_c, 1, 71, 64
2, 19294, Note_on_c, 1, 71, 0
2, 19296, Note_on_c, 1, 70, 64
2, 19385, Note_on_c, 1, 70, 0
2, 19584, Note_on_c, 1, 66, 64
2, 19614, Note_on_c, 1, 66, 0
2, 19616, Note_on_c, 1, 70, 64
2, 19646, Note_on_c, 1, 70, 0
2, 19648, Note_on_c, 1, 68, 64
2, 19678, Note_on_c, 1, 68, 0
2, 19680, Note_on_c, 1, 70, 64
2, 19710, Note_on_c, 1, 70, 0
2, 19712, Note_on_c, 1, 73, 64
2, 19742, Note_on_c, 1, 73, 0
2, 19744, Note_on_c, 1, 71, 64
2, 19774, Note_on_c, 1, 71, 0
2, 19776, Note_on_c, 1, 73, 64
2, 19806, Note_on_c, 1, 73, 0
2, 19808, Note_on_c, 1, 76, 64
2, 19838, Note_on_c, 1, 76, 0
2, 19840, Note_on_c, 1, 75, 64
2, 19870, Note_on_c, 1, 75, 0
2, 19872, Note_on_c, 1, 76, 64
2, 20137, Note_on_c, 1, 76, 0
2, 20160, Note_on_c, 1, 76, 64
2, 20205, Note_on_c, 1, 76, 0
2, 20208, Note_on_c, 1, 66, 64
2, 20253, Note_on_c, 1, 66, 0
2, 20256, Note_on_c, 1, 70, 64
2, 20301, Note_on_c, 1, 70, 0
2, 20304, Note_on_c, 1, 73, 64
2, 20349, Note_on_c, 1, 73, 0
2, 20352, Note_on_c, 1, 78, 64
2, 20493, Note_on_c, 1, 78, 0
2, 20496, Note_on_c, 1, 75, 64
2, 20541, Note_on_c, 1, 75, 0
2, 20544, Note_on_c, 1, 73, 64
2, 20589, Note_on_c, 1, 73, 0
2, 20592, Note_on_c, 1, 71, 64
2, 20637, Note_on_c, 1, 71, 0
2, 20640, Note_on_c, 1, 78, 64
2, 20781, Note_on_c, 1, 78, 0
2, 20784, Note_on_c, 1, 70, 64
2, 20829, Note_on_c, 1, 70, 0
2, 20832, Note_on_c, 1, 68, 64
2, 20877, Note_on_c, 1, 68, 0
2, 20880, Note_on_c, 1, 66, 64
2, 20925, Note_on_c, 1, 66, 0
2, 20928, Note_on_c, 1, 76, 64
2, 21017, Note_on_c, 1, 76, 0
2, 21024, Note_on_c, 1, 75, 64
2, 21113, Note_on_c, 1, 75, 0
2, 21312, Note_on_c, 1, 71, 64
2, 21342, Note_on_c, 1, 71, 0
2, 21344, Note_on_c, 1, 66, 64
2, 21374, Note_on_c, 1, 66, 0
2, 21376, Note_on_c, 1, 76, 64
2, 21406, Note_on_c, 1, 76, 0
2, 21408, Note_on_c, 1, 75, 64
2, 21438, Note_on_c, 1, 75, 0
2, 21440, Note_on_c, 1, 66, 64
2, 21470, Note_on_c, 1, 66, 0
2, 21472, Note_on_c, 1, 78, 64
2, 21502, Note_on_c, 1, 78, 0
2, 21504, Note_on_c, 1, 73, 64
2, 21534, Note_on_c, 1, 73, 0
2, 21536, Note_on_c, 1, 66, 64
2, 21566, Note_on_c, 1, 66, 0
2, 21568, Note_on_c, 1, 76, 64
2, 21598, Note_on_c, 1, 76, 0
2, 21600, Note_on_c, 1, 75, 64
2, 21689, Note_on_c, 1, 75, 0
2, 21888, Note_on_c, 1, 66, 64
2, 21918, Note_on_c, 1, 66, 0
2, 21920, Note_on_c, 1, 69, 64
2, 21950, Note_on_c, 1, 69, 0
2, 21952, Note_on_c, 1, 68, 64
2, 21982, Note_on_c, 1, 68, 0
2, 21984, Note_on_c, 1, 69, 64
2, 22014, Note_on_c, 1, 69, 0
2, 22016, Note_on_c, 1, 73, 64
2, 22046, Note_on_c, 1, 73, 0
2, 22048, Note_on_c, 1, 71, 64
2, 22078, Note_on_c, 1, 71, 0
2, 22080, Note_on_c, 1, 73, 64
2, 22110, Note_on_c, 1, 73, 0
2, 22112, Note_on_c, 1, 76, 64
2, 22142, Note_on_c, 1, 76, 0
2, 22144, Note_on_c, 1, 75, 64
2, 22174, Note_on_c, 1, 75, 0
2, 22176, Note_on_c, 1, 75, 64
2, 22199, Note_on_c, 1, 75, 0
2, 22200, Note_on_c, 1, 71, 64
2, 22223, Note_on_c, 1, 71, 0
2, 22224, Note_on_c, 1, 70, 64
2, 22247, Note_on_c, 1, 70, 0
2, 22248, Note_on_c, 1, 71, 64
2, 22271, Note_on_c, 1, 71, 0
2, 22272, Note_on_c, 1, 73, 64
2, 22295, Note_on_c, 1, 73, 0
2, 22296, Note_on_c, 1, 71, 64
2, 22319, Note_on_c, 1, 71, 0
2, 22320, Note_on_c, 1, 70, 64
2, 22343, Note_on_c, 1, 70, 0
2, 22344, Note_on_c, 1, 71, 64
2, 22367, Note_on_c, 1, 71, 0
2, 22368, Note_on_c, 1, 75, 64
2, 22391, Note_on_c, 1, 75, 0
2, 22392, Note_on_c, 1, 71, 64
2, 22415, Note_on_c, 1, 71, 0
2, 22416, Note_on_c, 1, 70, 64
2, 22439, Note_on_c, 1, 70, 0
2, 22440, Note_on_c, 1, 71, 64
2, 22463, Note_on_c, 1, 71, 0
2, 22464, Note_on_c, 1, 76, 64
2, 22487, Note_on_c, 1, 76, 0
2, 22488, Note_on_c, 1, 71, 64
2, 22511, Note_on_c, 1, 71, 0
2, 22512, Note_on_c, 1, 70, 64
2, 22535, Note_on_c, 1, 70, 0
2, 22536, Note_on_c, 1, 71, 64
2, 22559, Note_on_c, 1, 71, 0
2, 22560, Note_on_c, 1, 75, 64
2, 22583, Note_on_c, 1, 75, 0
2, 22584, Note_on_c, 1, 71, 64
2, 22607, Note_on_c, 1, 71, 0
2, 22608, Note_on_c, 1, 70, 64
2, 22631, Note_on_c, 1, 70, 0
2, 22632, Note_on_c, 1, 71, 64
2, 22655, Note_on_c, 1, 71, 0
2, 22656, Note_on_c, 1, 76, 64
2, 22679, Note_on_c, 1, 76, 0
2, 22680, Note_on_c, 1, 71, 64
2, 22703, Note_on_c, 1, 71, 0
2, 22704, Note_on_c, 1, 70, 64
2, 22727, Note_on_c, 1, 70, 0
2, 22728, Note_on_c, 1, 71, 64
2, 22751, Note_on_c, 1, 71, 0
2, 22752, Note_on_c, 1, 78, 64
2, 22775, Note_on_c, 1, 78, 0
2, 22776, Note_on_c, 1, 71, 64
2, 22799, Note_on_c, 1, 71, 0
2, 22800, Note_on_c, 1, 70, 64
2, 22823, Note_on_c, 1, 70, 0
2, 22824, Note_on_c, 1, 71, 64
2, 22847, Note_on_c, 1, 71, 0
2, 22848, Note_on_c, 1, 76, 64
2, 22871, Note_on_c, 1, 76, 0
2, 22872, Note_on_c, 1, 71, 64
2, 22895, Note_on_c, 1, 71, 0
2, 22896, Note_on_c, 1, 70, 64
2, 22919, Note_on_c, 1, 70, 0
2, 22920, Note_on_c, 1, 71, 64
2, 22943, Note_on_c, 1, 71, 0
2, 22944, Note_on_c, 1, 78, 64
2, 22967, Note_on_c, 1, 78, 0
2, 22968, Note_on_c, 1, 71, 64
2, 22991, Note_on_c, 1, 71, 0
2, 22992, Note_on_c, 1, 70, 64
2, 23015, Note_on_c, 1, 70, 0
2, 23016, Note_on_c, 1, 71, 64
2, 23039, Note_on_c, 1, 71, 0
2, 23040, Note_on_c, 1, 80, 64
2, 23085, Note_on_c, 1, 80, 0
2, 23088, Note_on_c, 1, 88, 64
2, 23177, Note_on_c, 1, 88, 0
2, 23184, Note_on_c, 1, 87, 64
2, 23207, Note_on_c, 1, 87, 0
2, 23208, Note_on_c, 1, 85, 64
2, 23231, Note_on_c, 1, 85, 0
2, 23232, Note_on_c, 1, 87, 64
2, 23277, Note_on_c, 1, 87, 0
2, 23280, Note_on_c, 1, 80, 64
2, 23373, Note_on_c, 1, 80, 0
2, 23376, Note_on_c, 1, 85, 64
2, 23421, Note_on_c, 1, 85, 0
2, 23424, Note_on_c, 1, 78, 64
2, 23447, Note_on_c, 1, 78, 0
2, 23448, Note_on_c, 1, 76, 64
2, 23471, Note_on_c, 1, 76, 0
2, 23472, Note_on_c, 1, 78, 64
2, 23495, Note_on_c, 1, 78, 0
2, 23496, Note_on_c, 1, 75, 64
2, 23519, Note_on_c, 1, 75, 0
2, 23520, Note_on_c, 1, 76, 64
2, 23543, Note_on_c, 1, 76, 0
2, 23544, Note_on_c, 1, 75, 64
2, 23567, Note_on_c, 1, 75, 0
2, 23568, Note_on_c, 1, 76, 64
2, 23591, Note_on_c, 1, 76, 0
2, 23592, Note_on_c, 1, 73, 64
2, 23615, Note_on_c, 1, 73, 0
2, 23616, Note_on_c, 1, 78, 64
2, 23749, Note_on_c, 1, 78, 0
2, 23760, Note_on_c, 1, 76, 64
2, 23783, Note_on_c, 1, 76, 0
2, 23784, Note_on_c, 1, 75, 64
2, 23807, Note_on_c, 1, 75, 0
2, 23808, Note_on_c, 1, 78, 64
2, 23831, Note_on_c, 1, 78, 0
2, 23832, Note_on_c, 1, 76, 64
2, 23855, Note_on_c, 1, 76, 0
2, 23856, Note_on_c, 1, 75, 64
2, 23879, Note_on_c, 1, 75, 0
2, 23880, Note_on_c, 1, 73, 64
2, 23903, Note_on_c, 1, 73, 0
2, 23904, Note_on_c, 1, 80, 64
2, 23993, Note_on_c, 1, 80, 0
2, 24048, Note_on_c, 1, 65, 64
2, 24093, Note_on_c, 1, 65, 0
2, 24096, Note_on_c, 1, 68, 64
2, 24141, Note_on_c, 1, 68, 0
2, 24144, Note_on_c, 1, 73, 64
2, 24189, Note_on_c, 1, 73, 0
2, 24192, Note_on_c, 1, 74, 64
2, 24281, Note_on_c, 1, 74, 0
2, 24336, Note_on_c, 1, 66, 64
2, 24381, Note_on_c, 1, 66, 0
2, 24384, Note_on_c, 1, 69, 64
2, 24429, Note_on_c, 1, 69, 0
2, 24432, Note_on_c, 1, 75, 64
2, 24477, Note_on_c, 1, 75, 0
2, 24480, Note_on_c, 1, 77, 64
2, 24569, Note_on_c, 1, 77, 0
2, 24624, Note_on_c, 1, 68, 64
2, 24669, Note_on_c, 1, 68, 0
2, 24672, Note_on_c, 1, 73, 64
2, 24717, Note_on_c, 1, 73, 0
2, 24720, Note_on_c, 1, 77, 64
2, 24765, Note_on_c, 1, 77, 0
2, 24768, Note_on_c, 1, 78, 64
2, 24791, Note_on_c, 1, 78, 0
2, 24792, Note_on_c, 1, 73, 64
2, 24815, Note_on_c, 1, 73, 0
2, 24816, Note_on_c, 1, 69, 64
2, 24839, Note_on_c, 1, 69, 0
2, 24840, Note_on_c, 1, 73, 64
2, 24863, Note_on_c, 1, 73, 0
2, 24864, Note_on_c, 1, 78, 64
2, 24887, Note_on_c, 1, 78, 0
2, 24888, Note_on_c, 1, 73, 64
2, 24911, Note_on_c, 1, 73, 0
2, 24912, Note_on_c, 1, 69, 64
2, 24935, Note_on_c, 1, 69, 0
2, 24936, Note_on_c, 1, 73, 64
2, 24959, Note_on_c, 1, 73, 0
2, 24960, Note_on_c, 1, 66, 64
2, 24983, Note_on_c, 1, 66, 0
2, 24984, Note_on_c, 1, 69, 64
2, 25007, Note_on_c, 1, 69, 0
2, 25008, Note_on_c, 1, 65, 64
2, 25031, Note_on_c, 1, 65, 0
2, 25032, Note_on_c, 1, 68, 64
2, 25055, Note_on_c, 1, 68, 0
2, 25056, Note_on_c, 1, 66, 64
2, 25079, Note_on_c, 1, 66, 0
2, 25080, Note_on_c, 1, 81, 64
2, 25103, Note_on_c, 1, 81, 0
2, 25104, Note_on_c, 1, 78, 64
2, 25127, Note_on_c, 1, 78, 0
2, 25128, Note_on_c, 1, 81, 64
2, 25151, Note_on_c, 1, 81, 0
2, 25152, Note_on_c, 1, 86, 64
2, 25175, Note_on_c, 1, 86, 0
2, 25176, Note_on_c, 1, 81, 64
2, 25199, Note_on_c, 1, 81, 0
2, 25200, Note_on_c, 1, 78, 64
2, 25223, Note_on_c, 1, 78, 0
2, 25224, Note_on_c, 1, 81, 64
2, 25247, Note_on_c, 1, 81, 0
2, 25248, Note_on_c, 1, 74, 64
2, 25271, Note_on_c, 1, 74, 0
2, 25272, Note_on_c, 1, 78, 64
2, 25295, Note_on_c, 1, 78, 0
2, 25296, Note_on_c, 1, 73, 64
2, 25319, Note_on_c, 1, 73, 0
2, 25320, Note_on_c, 1, 76, 64
2, 25343, Note_on_c, 1, 76, 0
2, 25344, Note_on_c, 1, 74, 64
2, 25367, Note_on_c, 1, 74, 0
2, 25368, Note_on_c, 1, 78, 64
2, 25391, Note_on_c, 1, 78, 0
2, 25392, Note_on_c, 1, 74, 64
2, 25415, Note_on_c, 1, 74, 0
2, 25416, Note_on_c, 1, 78, 64
2, 25439, Note_on_c, 1, 78, 0
2, 25440, Note_on_c, 1, 81, 64
2, 25463, Note_on_c, 1, 81, 0
2, 25464, Note_on_c, 1, 78, 64
2, 25487, Note_on_c, 1, 78, 0
2, 25488, Note_on_c, 1, 74, 64
2, 25511, Note_on_c, 1, 74, 0
2, 25512, Note_on_c, 1, 78, 64
2, 25535, Note_on_c, 1, 78, 0
2, 25536, Note_on_c, 1, 69, 64
2, 25559, Note_on_c, 1, 69, 0
2, 25560, Note_on_c, 1, 74, 64
2, 25583, Note_on_c, 1, 74, 0
2, 25584, Note_on_c, 1, 76, 64
2, 25607, Note_on_c, 1, 76, 0
2, 25608, Note_on_c, 1, 73, 64
2, 25631, Note_on_c, 1, 73, 0
2, 25632, Note_on_c, 1, 66, 64
2, 25655, Note_on_c, 1, 66, 0
2, 25656, Note_on_c, 1, 72, 64
2, 25679, Note_on_c, 1, 72, 0
2, 25680, Note_on_c, 1, 75, 64
2, 25703, Note_on_c, 1, 75, 0
2, 25704, Note_on_c, 1, 72, 64
2, 25727, Note_on_c, 1, 72, 0
2, 25728, Note_on_c, 1, 66, 64
2, 25751, Note_on_c, 1, 66, 0
2, 25752, Note_on_c, 1, 72, 64
2, 25775, Note_on_c, 1, 72, 0
2, 25776, Note_on_c, 1, 75, 64
2, 25799, Note_on_c, 1, 75, 0
2, 25800, Note_on_c, 1, 72, 64
2, 25823, Note_on_c, 1, 72, 0
2, 25824, Note_on_c, 1, 66, 64
2, 25847, Note_on_c, 1, 66, 0
2, 25848, Note_on_c, 1, 72, 64
2, 25871, Note_on_c, 1, 72, 0
2, 25872, Note_on_c, 1, 75, 64
2, 25895, Note_on_c, 1, 75, 0
2, 25896, Note_on_c, 1, 72, 64
2, 25919, Note_on_c, 1, 72, 0
2, 25920, Note_on_c, 1, 64, 64
2, 25943, Note_on_c, 1, 64, 0
2, 25944, Note_on_c, 1, 69, 64
2, 25967, Note_on_c, 1, 69, 0
2, 25968, Note_on_c, 1, 68, 64
2, 25991, Note_on_c, 1, 68, 0
2, 25992, Note_on_c, 1, 66, 64
2, 26015, Note_on_c, 1, 66, 0
2, 26016, Note_on_c, 1, 64, 64
2, 26105, Note_on_c, 1, 64, 0
2, 26112, Note_on_c, 1, 63, 64
2, 26124, Note_on_c, 1, 63, 0
2, 26124, Note_on_c, 1, 64, 64
2, 26136, Note_on_c, 1, 64, 0
2, 26136, Note_on_c, 1, 63, 64
2, 26148, Note_on_c, 1, 63, 0
2, 26148, Note_on_c, 1, 64, 64
2, 26160, Note_on_c, 1, 64, 0
2, 26160, Note_on_c, 1, 63, 64
2, 26172, Note_on_c, 1, 63, 0
2, 26172, Note_on_c, 1, 64, 64
2, 26184, Note_on_c, 1, 64, 0
2, 26184, Note_on_c, 1, 61, 64
2, 26207, Note_on_c, 1, 61, 0
2, 26208, Note_on_c, 1, 61, 64
2, 26297, Note_on_c, 1, 61, 0
2, 26880, Note_on_c, 1, 76, 64
2, 27084, Note_on_c, 1, 76, 0
2, 27084, Note_on_c, 1, 78, 64
2, 27096, Note_on_c, 1, 78, 0
2, 27096, Note_on_c, 1, 76, 64
2, 27108, Note_on_c, 1, 76, 0
2, 27108, Note_on_c, 1, 78, 64
2, 27120, Note_on_c, 1, 78, 0
2, 27120, Note_on_c, 1, 76, 64
2, 27132, Note_on_c, 1, 76, 0
2, 27132, Note_on_c, 1, 78, 64
2, 27144, Note_on_c, 1, 78, 0
2, 27144, Note_on_c, 1, 76, 64
2, 27156, Note_on_c, 1, 76, 0
2, 27156, Note_on_c, 1, 78, 64
2, 27168, Note_on_c, 1, 78, 0
2, 27168, Note_on_c, 1, 76, 64
2, 27180, Note_on_c, 1, 76, 0
2, 27180, Note_on_c, 1, 78, 64
2, 27192, Note_on_c, 1, 78, 0
2, 27192, Note_on_c, 1, 76, 64
2, 27204, Note_on_c, 1, 76, 0
2, 27204, Note_on_c, 1, 78, 64
2, 27216, Note_on_c, 1, 78, 0
2, 27216, Note_on_c, 1, 76, 64
2, 27228, Note_on_c, 1, 76, 0
2, 27228, Note_on_c, 1, 78, 64
2, 27240, Note_on_c, 1, 78, 0
2, 27240, Note_on_c, 1, 76, 64
2, 27252, Note_on_c, 1, 76, 0
2, 27252, Note_on_c, 1, 78, 64
2, 27264, Note_on_c, 1, 78, 0
2, 27264, Note_on_c, 1, 76, 64
2, 27276, Note_on_c, 1, 76, 0
2, 27276, Note_on_c, 1, 78, 64
2, 27288, Note_on_c, 1, 78, 0
2, 27288, Note_on_c, 1, 76, 64
2, 27300, Note_on_c, 1, 76, 0
2, 27300, Note_on_c, 1, 78, 64
2, 27312, Note_on_c, 1, 78, 0
2, 27312, Note_on_c, 1, 76, 64
2, 27324, Note_on_c, 1, 76, 0
2, 27324, Note_on_c, 1, 78, 64
2, 27336, Note_on_c, 1, 78, 0
2, 27336, Note_on_c, 1, 76, 64
2, 27348, Note_on_c, 1, 76, 0
2, 27348, Note_on_c, 1, 78, 64
2, 27360, Note_on_c, 1, 78, 0
2, 27360, Note_on_c, 1, 75, 64
2, 27383, Note_on_c, 1, 75, 0
2, 27384, Note_on_c, 1, 78, 64
2, 27407, Note_on_c, 1, 78, 0
2, 27408, Note_on_c, 1, 80, 64
2, 27431, Note_on_c, 1, 80, 0
2, 27432, Note_on_c, 1, 78, 64
2, 27455, Note_on_c, 1, 78, 0
2, 27456, Note_on_c, 1, 75, 64
2, 27479, Note_on_c, 1, 75, 0
2, 27480, Note_on_c, 1, 78, 64
2, 27503, Note_on_c, 1, 78, 0
2, 27504, Note_on_c, 1, 80, 64
2, 27527, Note_on_c, 1, 80, 0
2, 27528, Note_on_c, 1, 78, 64
2, 27551, Note_on_c, 1, 78, 0
2, 27552, Note_on_c, 1, 75, 64
2, 27575, Note_on_c, 1, 75, 0
2, 27576, Note_on_c, 1, 78, 64
2, 27599, Note_on_c, 1, 78, 0
2, 27600, Note_on_c, 1, 80, 64
2, 27623, Note_on_c, 1, 80, 0
2, 27624, Note_on_c, 1, 78, 64
2, 27647, Note_on_c, 1, 78, 0
2, 27648, Note_on_c, 1, 74, 64
2, 27671, Note_on_c, 1, 74, 0
2, 27672, Note_on_c, 1, 76, 64
2, 27695, Note_on_c, 1, 76, 0
2, 27696, Note_on_c, 1, 78, 64
2, 27719, Note_on_c, 1, 78, 0
2, 27720, Note_on_c, 1, 76, 64
2, 27743, Note_on_c, 1, 76, 0
2, 27744, Note_on_c, 1, 73, 64
2, 27767, Note_on_c, 1, 73, 0
2, 27768, Note_on_c, 1, 76, 64
2, 27791, Note_on_c, 1, 76, 0
2, 27792, Note_on_c, 1, 78, 64
2, 27815, Note_on_c, 1, 78, 0
2, 27816, Note_on_c, 1, 76, 64
2, 27839, Note_on_c, 1, 76, 0
2, 27840, Note_on_c, 1, 71, 64
2, 27863, Note_on_c, 1, 71, 0
2, 27864, Note_on_c, 1, 76, 64
2, 27887, Note_on_c, 1, 76, 0
2, 27888, Note_on_c, 1, 78, 64
2, 27911, Note_on_c, 1, 78, 0
2, 27912, Note_on_c, 1, 76, 64
2, 27935, Note_on_c, 1, 76, 0
2, 27936, Note_on_c, 1, 69, 64
2, 27959, Note_on_c, 1, 69, 0
2, 27960, Note_on_c, 1, 74, 64
2, 27983, Note_on_c, 1, 74, 0
2, 27984, Note_on_c, 1, 76, 64
2, 28007, Note_on_c, 1, 76, 0
2, 28008, Note_on_c, 1, 74, 64
2, 28031, Note_on_c, 1, 74, 0
2, 28032, Note_on_c, 1, 71, 64
2, 28055, Note_on_c, 1, 71, 0
2, 28056, Note_on_c, 1, 74, 64
2, 28079, Note_on_c, 1, 74, 0
2, 28080, Note_on_c, 1, 76, 64
2, 28103, Note_on_c, 1, 76, 0
2, 28104, Note_on_c, 1, 74, 64
2, 28127, Note_on_c, 1, 74, 0
2, 28128, Note_on_c, 1, 69, 64
2, 28151, Note_on_c, 1, 69, 0
2, 28152, Note_on_c, 1, 74, 64
2, 28175, Note_on_c, 1, 74, 0
2, 28176, Note_on_c, 1, 76, 64
2, 28199, Note_on_c, 1, 76, 0
2, 28200, Note_on_c, 1, 74, 64
2, 28223, Note_on_c, 1, 74, 0
2, 28224, Note_on_c, 1, 68, 64
2, 28247, Note_on_c, 1, 68, 0
2, 28248, Note_on_c, 1, 80, 64
2, 28271, Note_on_c, 1, 80, 0
2, 28272, Note_on_c, 1, 78, 64
2, 28295, Note_on_c, 1, 78, 0
2, 28296, Note_on_c, 1, 80, 64
2, 28319, Note_on_c, 1, 80, 0
2, 28320, Note_on_c, 1, 81, 64
2, 28343, Note_on_c, 1, 81, 0
2, 28344, Note_on_c, 1, 80, 64
2, 28367, Note_on_c, 1, 80, 0
2, 28368, Note_on_c, 1, 78, 64
2, 28391, Note_on_c, 1, 78, 0
2, 28392, Note_on_c, 1, 80, 64
2, 28415, Note_on_c, 1, 80, 0
2, 28416, Note_on_c, 1, 83, 64
2, 28439, Note_on_c, 1, 83, 0
2, 28440, Note_on_c, 1, 80, 64
2, 28463, Note_on_c, 1, 80, 0
2, 28464, Note_on_c, 1, 78, 64
2, 28487, Note_on_c, 1, 78, 0
2, 28488, Note_on_c, 1, 80, 64
2, 28511, Note_on_c, 1, 80, 0
2, 28512, Note_on_c, 1, 76, 64
2, 28557, Note_on_c, 1, 76, 0
2, 28560, Note_on_c, 1, 85, 64
2, 28605, Note_on_c, 1, 85, 0
2, 28632, Note_on_c, 1, 78, 64
2, 28655, Note_on_c, 1, 78, 0
2, 28656, Note_on_c, 1, 76, 64
2, 28679, Note_on_c, 1, 76, 0
2, 28680, Note_on_c, 1, 78, 64
2, 28703, Note_on_c, 1, 78, 0
2, 28704, Note_on_c, 1, 81, 64
2, 28727, Note_on_c, 1, 81, 0
2, 28728, Note_on_c, 1, 78, 64
2, 28751, Note_on_c, 1, 78, 0
2, 28752, Note_on_c, 1, 76, 64
2, 28775, Note_on_c, 1, 76, 0
2, 28776, Note_on_c, 1, 78, 64
2, 28799, Note_on_c, 1, 78, 0
2, 28800, Note_on_c, 1, 75, 64
2, 28845, Note_on_c, 1, 75, 0
2, 28848, Note_on_c, 1, 83, 64
2, 28893, Note_on_c, 1, 83, 0
2, 28920, Note_on_c, 1, 76, 64
2, 28943, Note_on_c, 1, 76, 0
2, 28944, Note_on_c, 1, 75, 64
2, 28967, Note_on_c, 1, 75, 0
2, 28968, Note_on_c, 1, 76, 64
2, 28991, Note_on_c, 1, 76, 0
2, 28992, Note_on_c, 1, 80, 64
2, 29015, Note_on_c, 1, 80, 0
2, 29016, Note_on_c, 1, 76, 64
2, 29039, Note_on_c, 1, 76, 0
2, 29040, Note_on_c, 1, 75, 64
2, 29063, Note_on_c, 1, 75, 0
2, 29064, Note_on_c, 1, 76, 64
2, 29087, Note_on_c, 1, 76, 0
2, 29088, Note_on_c, 1, 73, 64
2, 29133, Note_on_c, 1, 73, 0
2, 29136, Note_on_c, 1, 81, 64
2, 29181, Note_on_c, 1, 81, 0
2, 29208, Note_on_c, 1, 75, 64
2, 29231, Note_on_c, 1, 75, 0
2, 29232, Note_on_c, 1, 73, 64
2, 29255, Note_on_c, 1, 73, 0
2, 29256, Note_on_c, 1, 75, 64
2, 29279, Note_on_c, 1, 75, 0
2, 29280, Note_on_c, 1, 78, 64
2, 29303, Note_on_c, 1, 78, 0
2, 29304, Note_on_c, 1, 75, 64
2, 29327, Note_on_c, 1, 75, 0
2, 29328, Note_on_c, 1, 73, 64
2, 29351, Note_on_c, 1, 73, 0
2, 29352, Note_on_c, 1, 75, 64
2, 29375, Note_on_c, 1, 75, 0
2, 29376, Note_on_c, 1, 71, 64
2, 29421, Note_on_c, 1, 71, 0
2, 29424, Note_on_c, 1, 76, 64
2, 29469, Note_on_c, 1, 76, 0
2, 29472, Note_on_c, 1, 80, 64
2, 29517, Note_on_c, 1, 80, 0
2, 29520, Note_on_c, 1, 83, 64
2, 29565, Note_on_c, 1, 83, 0
2, 29568, Note_on_c, 1, 88, 64
2, 29709, Note_on_c, 1, 88, 0
2, 29712, Note_on_c, 1, 85, 64
2, 29757, Note_on_c, 1, 85, 0
2, 29760, Note_on_c, 1, 83, 64
2, 29805, Note_on_c, 1, 83, 0
2, 29808, Note_on_c, 1, 81, 64
2, 29853, Note_on_c, 1, 81, 0
2, 29856, Note_on_c, 1, 88, 64
2, 29997, Note_on_c, 1, 88, 0
2, 30000, Note_on_c, 1, 80, 64
2, 30045, Note_on_c, 1, 80, 0
2, 30048, Note_on_c, 1, 78, 64
2, 30093, Note_on_c, 1, 78, 0
2, 30096, Note_on_c, 1, 76, 64
2, 30141, Note_on_c, 1, 76, 0
2, 30144, Note_on_c, 1, 88, 64
2, 30285, Note_on_c, 1, 88, 0
2, 30288, Note_on_c, 1, 86, 64
2, 30333, Note_on_c, 1, 86, 0
2, 30336, Note_on_c, 1, 85, 64
2, 30381, Note_on_c, 1, 85, 0
2, 30384, Note_on_c, 1, 83, 64
2, 30429, Note_on_c, 1, 83, 0
2, 30432, Note_on_c, 1, 81, 64
2, 30477, Note_on_c, 1, 81, 0
2, 30480, Note_on_c, 1, 80, 64
2, 30525, Note_on_c, 1, 80, 0
2, 30528, Note_on_c, 1, 78, 64
2, 30573, Note_on_c, 1, 78, 0
2, 30576, Note_on_c, 1, 71, 64
2, 30621, Note_on_c, 1, 71, 0
2, 30624, Note_on_c, 1, 83, 64
2, 30839, Note_on_c, 1, 83, 0
2, 30840, Note_on_c, 1, 81, 64
2, 30863, Note_on_c, 1, 81, 0
2, 30864, Note_on_c, 1, 83, 64
2, 30887, Note_on_c, 1, 83, 0
2, 30888, Note_on_c, 1, 81, 64
2, 30911, Note_on_c, 1, 81, 0
2, 30912, Note_on_c, 1, 80, 64
2, 30935, Note_on_c, 1, 80, 0
2, 30936, Note_on_c, 1, 78, 64
2, 30959, Note_on_c, 1, 78, 0
2, 30960, Note_on_c, 1, 80, 64
2, 30983, Note_on_c, 1, 80, 0
2, 30984, Note_on_c, 1, 78, 64
2, 31007, Note_on_c, 1, 78, 0
2, 31008, Note_on_c, 1, 76, 64
2, 31031, Note_on_c, 1, 76, 0
2, 31032, Note_on_c, 1, 75, 64
2, 31055, Note_on_c, 1, 75, 0
2, 31056, Note_on_c, 1, 76, 64
2, 31079, Note_on_c, 1, 76, 0
2, 31080, Note_on_c, 1, 75, 64
2, 31103, Note_on_c, 1, 75, 0
2, 31104, Note_on_c, 1, 73, 64
2, 31149, Note_on_c, 1, 73, 0
2, 31152, Note_on_c, 1, 76, 64
2, 31197, Note_on_c, 1, 76, 0
2, 31200, Note_on_c, 1, 81, 64
2, 31245, Note_on_c, 1, 81, 0
2, 31248, Note_on_c, 1, 85, 64
2, 31293, Note_on_c, 1, 85, 0
2, 31296, Note_on_c, 1, 78, 64
2, 31341, Note_on_c, 1, 78, 0
2, 31344, Note_on_c, 1, 81, 64
2, 31389, Note_on_c, 1, 81, 0
2, 31392, Note_on_c, 1, 75, 64
2, 31415, Note_on_c, 1, 75, 0
2, 31416, Note_on_c, 1, 71, 64
2, 31439, Note_on_c, 1, 71, 0
2, 31440, Note_on_c, 1, 70, 64
2, 31463, Note_on_c, 1, 70, 0
2, 31464, Note_on_c, 1, 71, 64
2, 31487, Note_on_c, 1, 71, 0
2, 31488, Note_on_c, 1, 73, 64
2, 31511, Note_on_c, 1, 73, 0
2, 31512, Note_on_c, 1, 71, 64
2, 31535, Note_on_c, 1, 71, 0
2, 31536, Note_on_c, 1, 70, 64
2, 31559, Note_on_c, 1, 70, 0
2, 31560, Note_on_c, 1, 71, 64
2, 31583, Note_on_c, 1, 71, 0
2, 31584, Note_on_c, 1, 75, 64
2, 31607, Note_on_c, 1, 75, 0
2, 31608, Note_on_c, 1, 71, 64
2, 31631, Note_on_c, 1, 71, 0
2, 31632, Note_on_c, 1, 70, 64
2, 31655, Note_on_c, 1, 70, 0
2, 31656, Note_on_c, 1, 71, 64
2, 31679, Note_on_c, 1, 71, 0
2, 31680, Note_on_c, 1, 76, 64
2, 31703, Note_on_c, 1, 76, 0
2, 31704, Note_on_c, 1, 71, 64
2, 31727, Note_on_c, 1, 71, 0
2, 31728, Note_on_c, 1, 70, 64
2, 31751, Note_on_c, 1, 70, 0
2, 31752, Note_on_c, 1, 71, 64
2, 31775, Note_on_c, 1, 71, 0
2, 31776, Note_on_c, 1, 75, 64
2, 31799, Note_on_c, 1, 75, 0
2, 31800, Note_on_c, 1, 71, 64
2, 31823, Note_on_c, 1, 71, 0
2, 31824, Note_on_c, 1, 70, 64
2, 31847, Note_on_c, 1, 70, 0
2, 31848, Note_on_c, 1, 71, 64
2, 31871, Note_on_c, 1, 71, 0
2, 31872, Note_on_c, 1, 76, 64
2, 31895, Note_on_c, 1, 76, 0
2, 31896, Note_on_c, 1, 71, 64
2, 31919, Note_on_c, 1, 71, 0
2, 31920, Note_on_c, 1, 70, 64
2, 31943, Note_on_c, 1, 70, 0
2, 31944, Note_on_c, 1, 71, 64
2, 31967, Note_on_c, 1, 71, 0
2, 31968, Note_on_c, 1, 78, 64
2, 31991, Note_on_c, 1, 78, 0
2, 31992, Note_on_c, 1, 71, 64
2, 32015, Note_on_c, 1, 71, 0
2, 32016, Note_on_c, 1, 70, 64
2, 32039, Note_on_c, 1, 70, 0
2, 32040, Note_on_c, 1, 71, 64
2, 32063, Note_on_c, 1, 71, 0
2, 32064, Note_on_c, 1, 76, 64
2, 32087, Note_on_c, 1, 76, 0
2, 32088, Note_on_c, 1, 71, 64
2, 32111, Note_on_c, 1, 71, 0
2, 32112, Note_on_c, 1, 70, 64
2, 32135, Note_on_c, 1, 70, 0
2, 32136, Note_on_c, 1, 71, 64
2, 32159, Note_on_c, 1, 71, 0
2, 32160, Note_on_c, 1, 78, 64
2, 32183, Note_on_c, 1, 78, 0
2, 32184, Note_on_c, 1, 71, 64
2, 32207, Note_on_c, 1, 71, 0
2, 32208, Note_on_c, 1, 70, 64
2, 32231, Note_on_c, 1, 70, 0
2, 32232, Note_on_c, 1, 71, 64
2, 32255, Note_on_c, 1, 71, 0
2, 32256, Note_on_c, 1, 80, 64
2, 32279, Note_on_c, 1, 80, 0
2, 32280, Note_on_c, 1, 78, 64
2, 32303, Note_on_c, 1, 78, 0
2, 32304, Note_on_c, 1, 80, 64
2, 32327, Note_on_c, 1, 80, 0
2, 32328, Note_on_c, 1, 78, 64
2, 32351, Note_on_c, 1, 78, 0
2, 32352, Note_on_c, 1, 76, 64
2, 32375, Note_on_c, 1, 76, 0
2, 32376, Note_on_c, 1, 75, 64
2, 32399, Note_on_c, 1, 75, 0
2, 32400, Note_on_c, 1, 76, 64
2, 32423, Note_on_c, 1, 76, 0
2, 32424, Note_on_c, 1, 75, 64
2, 32447, Note_on_c, 1, 75, 0
2, 32448, Note_on_c, 1, 73, 64
2, 32471, Note_on_c, 1, 73, 0
2, 32472, Note_on_c, 1, 71, 64
2, 32495, Note_on_c, 1, 71, 0
2, 32496, Note_on_c, 1, 73, 64
2, 32519, Note_on_c, 1, 73, 0
2, 32520, Note_on_c, 1, 71, 64
2, 32543, Note_on_c, 1, 71, 0
2, 32544, Note_on_c, 1, 70, 64
2, 32589, Note_on_c, 1, 70, 0
2, 32592, Note_on_c, 1, 68, 64
2, 32637, Note_on_c, 1, 68, 0
2, 32640, Note_on_c, 1, 70, 64
2, 32685, Note_on_c, 1, 70, 0
2, 32688, Note_on_c, 1, 71, 64
2, 32733, Note_on_c, 1, 71, 0
2, 32736, Note_on_c, 1, 73, 64
2, 32781, Note_on_c, 1, 73, 0
2, 32784, Note_on_c, 1, 70, 64
2, 32829, Note_on_c, 1, 70, 0
2, 32832, Note_on_c, 1, 78, 64
2, 32855, Note_on_c, 1, 78, 0
2, 32856, Note_on_c, 1, 76, 64
2, 32879, Note_on_c, 1, 76, 0
2, 32880, Note_on_c, 1, 78, 64
2, 32903, Note_on_c, 1, 78, 0
2, 32904, Note_on_c, 1, 76, 64
2, 32927, Note_on_c, 1, 76, 0
2, 32928, Note_on_c, 1, 75, 64
2, 32951, Note_on_c, 1, 75, 0
2, 32952, Note_on_c, 1, 73, 64
2, 32975, Note_on_c, 1, 73, 0
2, 32976, Note_on_c, 1, 75, 64
2, 32999, Note_on_c, 1, 75, 0
2, 33000, Note_on_c, 1, 73, 64
2, 33023, Note_on_c, 1, 73, 0
2, 33024, Note_on_c, 1, 71, 64
2, 33047, Note_on_c, 1, 71, 0
2, 33048, Note_on_c, 1, 70, 64
2, 33071, Note_on_c, 1, 70, 0
2, 33072, Note_on_c, 1, 71, 64
2, 33095, Note_on_c, 1, 71, 0
2, 33096, Note_on_c, 1, 70, 64
2, 33119, Note_on_c, 1, 70, 0
2, 33120, Note_on_c, 1, 68, 64
2, 33143, Note_on_c, 1, 68, 0
2, 33144, Note_on_c, 1, 66, 64
2, 33167, Note_on_c, 1, 66, 0
2, 33168, Note_on_c, 1, 68, 64
2, 33191, Note_on_c, 1, 68, 0
2, 33192, Note_on_c, 1, 66, 64
2, 33215, Note_on_c, 1, 66, 0
2, 33216, Note_on_c, 1, 64, 64
2, 33239, Note_on_c, 1, 64, 0
2, 33240, Note_on_c, 1, 63, 64
2, 33263, Note_on_c, 1, 63, 0
2, 33264, Note_on_c, 1, 64, 64
2, 33287, Note_on_c, 1, 64, 0
2, 33288, Note_on_c, 1, 63, 64
2, 33311, Note_on_c, 1, 63, 0
2, 33312, Note_on_c, 1, 61, 64
2, 33335, Note_on_c, 1, 61, 0
2, 33336, Note_on_c, 1, 59, 64
2, 33359, Note_on_c, 1, 59, 0
2, 33360, Note_on_c, 1, 61, 64
2, 33383, Note_on_c, 1, 61, 0
2, 33384, Note_on_c, 1, 59, 64
2, 33407, Note_on_c, 1, 59, 0
2, 33408, Note_on_c, 1, 70, 64
2, 33541, Note_on_c, 1, 70, 0
2, 33552, Note_on_c, 1, 66, 64
2, 33597, Note_on_c, 1, 66, 0
2, 33600, Note_on_c, 1, 71, 64
2, 33645, Note_on_c, 1, 71, 0
2, 33648, Note_on_c, 1, 70, 64
2, 33693, Note_on_c, 1, 70, 0
2, 33696, Note_on_c, 1, 71, 64
2, 33741, Note_on_c, 1, 71, 0
2, 33744, Note_on_c, 1, 73, 64
2, 33789, Note_on_c, 1, 73, 0
2, 33792, Note_on_c, 1, 70, 64
2, 33925, Note_on_c, 1, 70, 0
2, 33936, Note_on_c, 1, 71, 64
2, 33981, Note_on_c, 1, 71, 0
2, 33984, Note_on_c, 1, 71, 64
2, 34073, Note_on_c, 1, 71, 0
2, 34296, Note_on_c, 1, 76, 64
2, 34319, Note_on_c, 1, 76, 0
2, 34320, Note_on_c, 1, 75, 64
2, 34343, Note_on_c, 1, 75, 0
2, 34344, Note_on_c, 1, 76, 64
2, 34367, Note_on_c, 1, 76, 0
2, 34368, Note_on_c, 1, 78, 64
2, 34391, Note_on_c, 1, 78, 0
2, 34392, Note_on_c, 1, 76, 64
2, 34415, Note_on_c, 1, 76, 0
2, 34416, Note_on_c, 1, 75, 64
2, 34439, Note_on_c, 1, 75, 0
2, 34440, Note_on_c, 1, 76, 64
2, 34463, Note_on_c, 1, 76, 0
2, 34464, Note_on_c, 1, 80, 64
2, 34487, Note_on_c, 1, 80, 0
2, 34488, Note_on_c, 1, 76, 64
2, 34511, Note_on_c, 1, 76, 0
2, 34512, Note_on_c, 1, 75, 64
2, 34535, Note_on_c, 1, 75, 0
2, 34536, Note_on_c, 1, 76, 64
2, 34559, Note_on_c, 1, 76, 0
2, 34560, Note_on_c, 1, 81, 64
2, 34583, Note_on_c, 1, 81, 0
2, 34584, Note_on_c, 1, 76, 64
2, 34607, Note_on_c, 1, 76, 0
2, 34608, Note_on_c, 1, 75, 64
2, 34631, Note_on_c, 1, 75, 0
2, 34632, Note_on_c, 1, 76, 64
2, 34655, Note_on_c, 1, 76, 0
2, 34656, Note_on_c, 1, 80, 64
2, 34679, Note_on_c, 1, 80, 0
2, 34680, Note_on_c, 1, 76, 64
2, 34703, Note_on_c, 1, 76, 0
2, 34704, Note_on_c, 1, 75, 64
2, 34727, Note_on_c, 1, 75, 0
2, 34728, Note_on_c, 1, 76, 64
2, 34751, Note_on_c, 1, 76, 0
2, 34752, Note_on_c, 1, 81, 64
2, 34775, Note_on_c, 1, 81, 0
2, 34776, Note_on_c, 1, 76, 64
2, 34799, Note_on_c, 1, 76, 0
2, 34800, Note_on_c, 1, 75, 64
2, 34823, Note_on_c, 1, 75, 0
2, 34824, Note_on_c, 1, 76, 64
2, 34847, Note_on_c, 1, 76, 0
2, 34848, Note_on_c, 1, 83, 64
2, 34871, Note_on_c, 1, 83, 0
2, 34872, Note_on_c, 1, 76, 64
2, 34895, Note_on_c, 1, 76, 0
2, 34896, Note_on_c, 1, 75, 64
2, 34919, Note_on_c, 1, 75, 0
2, 34920, Note_on_c, 1, 76, 64
2, 34943, Note_on_c, 1, 76, 0
2, 34944, Note_on_c, 1, 81, 64
2, 34967, Note_on_c, 1, 81, 0
2, 34968, Note_on_c, 1, 76, 64
2, 34991, Note_on_c, 1, 76, 0
2, 34992, Note_on_c, 1, 75, 64
2, 35015, Note_on_c, 1, 75, 0
2, 35016, Note_on_c, 1, 76, 64
2, 35039, Note_on_c, 1, 76, 0
2, 35040, Note_on_c, 1, 83, 64
2, 35063, Note_on_c, 1, 83, 0
2, 35064, Note_on_c, 1, 76, 64
2, 35087, Note_on_c, 1, 76, 0
2, 35088, Note_on_c, 1, 75, 64
2, 35111, Note_on_c, 1, 75, 0
2, 35112, Note_on_c, 1, 76, 64
2, 35135, Note_on_c, 1, 76, 0
2, 35136, Note_on_c, 1, 85, 64
2, 35159, Note_on_c, 1, 85, 0
2, 35160, Note_on_c, 1, 83, 64
2, 35183, Note_on_c, 1, 83, 0
2, 35184, Note_on_c, 1, 85, 64
2, 35207, Note_on_c, 1, 85, 0
2, 35208, Note_on_c, 1, 83, 64
2, 35231, Note_on_c, 1, 83, 0
2, 35232, Note_on_c, 1, 81, 64
2, 35255, Note_on_c, 1, 81, 0
2, 35256, Note_on_c, 1, 80, 64
2, 35279, Note_on_c, 1, 80, 0
2, 35280, Note_on_c, 1, 81, 64
2, 35303, Note_on_c, 1, 81, 0
2, 35304, Note_on_c, 1, 80, 64
2, 35327, Note_on_c, 1, 80, 0
2, 35328, Note_on_c, 1, 78, 64
2, 35351, Note_on_c, 1, 78, 0
2, 35352, Note_on_c, 1, 76, 64
2, 35375, Note_on_c, 1, 76, 0
2, 35376, Note_on_c, 1, 78, 64
2, 35399, Note_on_c, 1, 78, 0
2, 35400, Note_on_c, 1, 76, 64
2, 35423, Note_on_c, 1, 76, 0
2, 35424, Note_on_c, 1, 75, 64
2, 35469, Note_on_c, 1, 75, 0
2, 35472, Note_on_c, 1, 71, 64
2, 35517, Note_on_c, 1, 71, 0
2, 35520, Note_on_c, 1, 75, 64
2, 35565, Note_on_c, 1, 75, 0
2, 35568, Note_on_c, 1, 78, 64
2, 35613, Note_on_c, 1, 78, 0
2, 35616, Note_on_c, 1, 83, 64
2, 35757, Note_on_c, 1, 83, 0
2, 35760, Note_on_c, 1, 80, 64
2, 35805, Note_on_c, 1, 80, 0
2, 35808, Note_on_c, 1, 78, 64
2, 35853, Note_on_c, 1, 78, 0
2, 35856, Note_on_c, 1, 76, 64
2, 35901, Note_on_c, 1, 76, 0
2, 35904, Note_on_c, 1, 83, 64
2, 36045, Note_on_c, 1, 83, 0
2, 36048, Note_on_c, 1, 75, 64
2, 36093, Note_on_c, 1, 75, 0
2, 36096, Note_on_c, 1, 73, 64
2, 36141, Note_on_c, 1, 73, 0
2, 36144, Note_on_c, 1, 71, 64
2, 36189, Note_on_c, 1, 71, 0
2, 36192, Note_on_c, 1, 83, 64
2, 36333, Note_on_c, 1, 83, 0
2, 36336, Note_on_c, 1, 75, 64
2, 36381, Note_on_c, 1, 75, 0
2, 36384, Note_on_c, 1, 76, 64
2, 36429, Note_on_c, 1, 76, 0
2, 36432, Note_on_c, 1, 78, 64
2, 36477, Note_on_c, 1, 78, 0
2, 36480, Note_on_c, 1, 80, 64
2, 36525, Note_on_c, 1, 80, 0
2, 36528, Note_on_c, 1, 76, 64
2, 36573, Note_on_c, 1, 76, 0
2, 36576, Note_on_c, 1, 73, 64
2, 36599, Note_on_c, 1, 73, 0
2, 36600, Note_on_c, 1, 78, 64
2, 36623, Note_on_c, 1, 78, 0
2, 36624, Note_on_c, 1, 73, 64
2, 36647, Note_on_c, 1, 73, 0
2, 36648, Note_on_c, 1, 78, 64
2, 36671, Note_on_c, 1, 78, 0
2, 36672, Note_on_c, 1, 70, 64
2, 36695, Note_on_c, 1, 70, 0
2, 36696, Note_on_c, 1, 76, 64
2, 36719, Note_on_c, 1, 76, 0
2, 36720, Note_on_c, 1, 73, 64
2, 36743, Note_on_c, 1, 73, 0
2, 36744, Note_on_c, 1, 76, 64
2, 36767, Note_on_c, 1, 76, 0
2, 36768, Note_on_c, 1, 66, 64
2, 36791, Note_on_c, 1, 66, 0
2, 36792, Note_on_c, 1, 76, 64
2, 36815, Note_on_c, 1, 76, 0
2, 36816, Note_on_c, 1, 73, 64
2, 36839, Note_on_c, 1, 73, 0
2, 36840, Note_on_c, 1, 76, 64
2, 36863, Note_on_c, 1, 76, 0
2, 36864, Note_on_c, 1, 66, 64
2, 36909, Note_on_c, 1, 66, 0
2, 36912, Note_on_c, 1, 75, 64
2, 36957, Note_on_c, 1, 75, 0
2, 36984, Note_on_c, 1, 78, 64
2, 37007, Note_on_c, 1, 78, 0
2, 37008, Note_on_c, 1, 75, 64
2, 37031, Note_on_c, 1, 75, 0
2, 37032, Note_on_c, 1, 78, 64
2, 37055, Note_on_c, 1, 78, 0
2, 37056, Note_on_c, 1, 81, 64
2, 37079, Note_on_c, 1, 81, 0
2, 37080, Note_on_c, 1, 78, 64
2, 37103, Note_on_c, 1, 78, 0
2, 37104, Note_on_c, 1, 75, 64
2, 37127, Note_on_c, 1, 75, 0
2, 37128, Note_on_c, 1, 78, 64
2, 37151, Note_on_c, 1, 78, 0
2, 37152, Note_on_c, 1, 80, 64
2, 37175, Note_on_c, 1, 80, 0
2, 37176, Note_on_c, 1, 76, 64
2, 37199, Note_on_c, 1, 76, 0
2, 37200, Note_on_c, 1, 71, 64
2, 37223, Note_on_c, 1, 71, 0
2, 37224, Note_on_c, 1, 76, 64
2, 37247, Note_on_c, 1, 76, 0
2, 37248, Note_on_c, 1, 68, 64
2, 37271, Note_on_c, 1, 68, 0
2, 37272, Note_on_c, 1, 74, 64
2, 37295, Note_on_c, 1, 74, 0
2, 37296, Note_on_c, 1, 71, 64
2, 37319, Note_on_c, 1, 71, 0
2, 37320, Note_on_c, 1, 74, 64
2, 37343, Note_on_c, 1, 74, 0
2, 37344, Note_on_c, 1, 64, 64
2, 37367, Note_on_c, 1, 64, 0
2, 37368, Note_on_c, 1, 74, 64
2, 37391, Note_on_c, 1, 74, 0
2, 37392, Note_on_c, 1, 71, 64
2, 37415, Note_on_c, 1, 71, 0
2, 37416, Note_on_c, 1, 74, 64
2, 37439, Note_on_c, 1, 74, 0
2, 37440, Note_on_c, 1, 73, 64
2, 37463, Note_on_c, 1, 73, 0
2, 37464, Note_on_c, 1, 81, 64
2, 37487, Note_on_c, 1, 81, 0
2, 37488, Note_on_c, 1, 76, 64
2, 37511, Note_on_c, 1, 76, 0
2, 37512, Note_on_c, 1, 81, 64
2, 37535, Note_on_c, 1, 81, 0
2, 37536, Note_on_c, 1, 85, 64
2, 37559, Note_on_c, 1, 85, 0
2, 37560, Note_on_c, 1, 81, 64
2, 37583, Note_on_c, 1, 81, 0
2, 37584, Note_on_c, 1, 76, 64
2, 37607, Note_on_c, 1, 76, 0
2, 37608, Note_on_c, 1, 81, 64
2, 37631, Note_on_c, 1, 81, 0
2, 37632, Note_on_c, 1, 73, 64
2, 37655, Note_on_c, 1, 73, 0
2, 37656, Note_on_c, 1, 76, 64
2, 37679, Note_on_c, 1, 76, 0
2, 37680, Note_on_c, 1, 71, 64
2, 37703, Note_on_c, 1, 71, 0
2, 37704, Note_on_c, 1, 74, 64
2, 37727, Note_on_c, 1, 74, 0
2, 37728, Note_on_c, 1, 73, 64
2, 37751, Note_on_c, 1, 73, 0
2, 37752, Note_on_c, 1, 78, 64
2, 37775, Note_on_c, 1, 78, 0
2, 37776, Note_on_c, 1, 73, 64
2, 37799, Note_on_c, 1, 73, 0
2, 37800, Note_on_c, 1, 78, 64
2, 37823, Note_on_c, 1, 78, 0
2, 37824, Note_on_c, 1, 81, 64
2, 37847, Note_on_c, 1, 81, 0
2, 37848, Note_on_c, 1, 78, 64
2, 37871, Note_on_c, 1, 78, 0
2, 37872, Note_on_c, 1, 73, 64
2, 37895, Note_on_c, 1, 73, 0
2, 37896, Note_on_c, 1, 78, 64
2, 37919, Note_on_c, 1, 78, 0
2, 37920, Note_on_c, 1, 69, 64
2, 37943, Note_on_c, 1, 69, 0
2, 37944, Note_on_c, 1, 73, 64
2, 37967, Note_on_c, 1, 73, 0
2, 37968, Note_on_c, 1, 68, 64
2, 37991, Note_on_c, 1, 68, 0
2, 37992, Note_on_c, 1, 71, 64
2, 38015, Note_on_c, 1, 71, 0
2, 38016, Note_on_c, 1, 69, 64
2, 38039, Note_on_c, 1, 69, 0
2, 38040, Note_on_c, 1, 73, 64
2, 38063, Note_on_c, 1, 73, 0
2, 38064, Note_on_c, 1, 69, 64
2, 38087, Note_on_c, 1, 69, 0
2, 38088, Note_on_c, 1, 73, 64
2, 38111, Note_on_c, 1, 73, 0
2, 38112, Note_on_c, 1, 78, 64
2, 38135, Note_on_c, 1, 78, 0
2, 38136, Note_on_c, 1, 73, 64
2, 38159, Note_on_c, 1, 73, 0
2, 38160, Note_on_c, 1, 69, 64
2, 38183, Note_on_c, 1, 69, 0
2, 38184, Note_on_c, 1, 73, 64
2, 38207, Note_on_c, 1, 73, 0
2, 38208, Note_on_c, 1, 66, 64
2, 38231, Note_on_c, 1, 66, 0
2, 38232, Note_on_c, 1, 69, 64
2, 38255, Note_on_c, 1, 69, 0
2, 38256, Note_on_c, 1, 64, 64
2, 38279, Note_on_c, 1, 64, 0
2, 38280, Note_on_c, 1, 69, 64
2, 38303, Note_on_c, 1, 69, 0
2, 38304, Note_on_c, 1, 63, 64
2, 38327, Note_on_c, 1, 63, 0
2, 38328, Note_on_c, 1, 66, 64
2, 38351, Note_on_c, 1, 66, 0
2, 38352, Note_on_c, 1, 63, 64
2, 38375, Note_on_c, 1, 63, 0
2, 38376, Note_on_c, 1, 66, 64
2, 38399, Note_on_c, 1, 66, 0
2, 38400, Note_on_c, 1, 69, 64
2, 38423, Note_on_c, 1, 69, 0
2, 38424, Note_on_c, 1, 66, 64
2, 38447, Note_on_c, 1, 66, 0
2, 38448, Note_on_c, 1, 63, 64
2, 38471, Note_on_c, 1, 63, 0
2, 38472, Note_on_c, 1, 66, 64
2, 38495, Note_on_c, 1, 66, 0
2, 38496, Note_on_c, 1, 59, 64
2, 38541, Note_on_c, 1, 59, 0
2, 38544, Note_on_c, 1, 75, 64
2, 38589, Note_on_c, 1, 75, 0
2, 38592, Note_on_c, 1, 76, 64
2, 38681, Note_on_c, 1, 76, 0
2, 38736, Note_on_c, 1, 68, 64
2, 38781, Note_on_c, 1, 68, 0
2, 38784, Note_on_c, 1, 71, 64
2, 38829, Note_on_c, 1, 71, 0
2, 38832, Note_on_c, 1, 76, 64
2, 38877, Note_on_c, 1, 76, 0
2, 38880, Note_on_c, 1, 78, 64
2, 38969, Note_on_c, 1, 78, 0
2, 39024, Note_on_c, 1, 69, 64
2, 39069, Note_on_c, 1, 69, 0
2, 39072, Note_on_c, 1, 73, 64
2, 39117, Note_on_c, 1, 73, 0
2, 39120, Note_on_c, 1, 78, 64
2, 39165, Note_on_c, 1, 78, 0
2, 39168, Note_on_c, 1, 80, 64
2, 39257, Note_on_c, 1, 80, 0
2, 39312, Note_on_c, 1, 71, 64
2, 39357, Note_on_c, 1, 71, 0
2, 39360, Note_on_c, 1, 76, 64
2, 39405, Note_on_c, 1, 76, 0
2, 39408, Note_on_c, 1, 80, 64
2, 39453, Note_on_c, 1, 80, 0
2, 39456, Note_on_c, 1, 81, 64
2, 39789, Note_on_c, 1, 81, 0
2, 39792, Note_on_c, 1, 81, 64
2, 39837, Note_on_c, 1, 81, 0
2, 39840, Note_on_c, 1, 80, 64
2, 39885, Note_on_c, 1, 80, 0
2, 39888, Note_on_c, 1, 78, 64
2, 39933, Note_on_c, 1, 78, 0
2, 39936, Note_on_c, 1, 76, 64
2, 39981, Note_on_c, 1, 76, 0
2, 39984, Note_on_c, 1, 75, 64
2, 40029, Note_on_c, 1, 75, 0
2, 40032, Note_on_c, 1, 80, 64
2, 40343, Note_on_c, 1, 80, 0
2, 40344, Note_on_c, 1, 80, 64
2, 40367, Note_on_c, 1, 80, 0
2, 40368, Note_on_c, 1, 81, 64
2, 40391, Note_on_c, 1, 81, 0
2, 40392, Note_on_c, 1, 80, 64
2, 40415, Note_on_c, 1, 80, 0
2, 40416, Note_on_c, 1, 78, 64
2, 40439, Note_on_c, 1, 78, 0
2, 40440, Note_on_c, 1, 76, 64
2, 40463, Note_on_c, 1, 76, 0
2, 40464, Note_on_c, 1, 78, 64
2, 40487, Note_on_c, 1, 78, 0
2, 40488, Note_on_c, 1, 76, 64
2, 40511, Note_on_c, 1, 76, 0
2, 40512, Note_on_c, 1, 75, 64
2, 40535, Note_on_c, 1, 75, 0
2, 40536, Note_on_c, 1, 73, 64
2, 40559, Note_on_c, 1, 73, 0
2, 40560, Note_on_c, 1, 75, 64
2, 40583, Note_on_c, 1, 75, 0
2, 40584, Note_on_c, 1, 73, 64
2, 40607, Note_on_c, 1, 73, 0
2, 40608, Note_on_c, 1, 75, 64
2, 40653, Note_on_c, 1, 75, 0
2, 40656, Note_on_c, 1, 71, 64
2, 40701, Note_on_c, 1, 71, 0
2, 40704, Note_on_c, 1, 75, 64
2, 40749, Note_on_c, 1, 75, 0
2, 40752, Note_on_c, 1, 78, 64
2, 40797, Note_on_c, 1, 78, 0
2, 40800, Note_on_c, 1, 83, 64
2, 40941, Note_on_c, 1, 83, 0
2, 40944, Note_on_c, 1, 80, 64
2, 40989, Note_on_c, 1, 80, 0
2, 40992, Note_on_c, 1, 78, 64
2, 41037, Note_on_c, 1, 78, 0
2, 41040, Note_on_c, 1, 76, 64
2, 41085, Note_on_c, 1, 76, 0
2, 41088, Note_on_c, 1, 83, 64
2, 41229, Note_on_c, 1, 83, 0
2, 41232, Note_on_c, 1, 75, 64
2, 41277, Note_on_c, 1, 75, 0
2, 41280, Note_on_c, 1, 73, 64
2, 41325, Note_on_c, 1, 73, 0
2, 41328, Note_on_c, 1, 71, 64
2, 41373, Note_on_c, 1, 71, 0
2, 41376, Note_on_c, 1, 83, 64
2, 41495, Note_on_c, 1, 83, 0
2, 41496, Note_on_c, 1, 76, 64
2, 41519, Note_on_c, 1, 76, 0
2, 41520, Note_on_c, 1, 75, 64
2, 41543, Note_on_c, 1, 75, 0
2, 41544, Note_on_c, 1, 76, 64
2, 41567, Note_on_c, 1, 76, 0
2, 41568, Note_on_c, 1, 78, 64
2, 41591, Note_on_c, 1, 78, 0
2, 41592, Note_on_c, 1, 76, 64
2, 41615, Note_on_c, 1, 76, 0
2, 41616, Note_on_c, 1, 75, 64
2, 41639, Note_on_c, 1, 75, 0
2, 41640, Note_on_c, 1, 76, 64
2, 41663, Note_on_c, 1, 76, 0
2, 41664, Note_on_c, 1, 80, 64
2, 41687, Note_on_c, 1, 80, 0
2, 41688, Note_on_c, 1, 76, 64
2, 41711, Note_on_c, 1, 76, 0
2, 41712, Note_on_c, 1, 75, 64
2, 41735, Note_on_c, 1, 75, 0
2, 41736, Note_on_c, 1, 76, 64
2, 41759, Note_on_c, 1, 76, 0
2, 41760, Note_on_c, 1, 81, 64
2, 41783, Note_on_c, 1, 81, 0
2, 41784, Note_on_c, 1, 76, 64
2, 41807, Note_on_c, 1, 76, 0
2, 41808, Note_on_c, 1, 75, 64
2, 41831, Note_on_c, 1, 75, 0
2, 41832, Note_on_c, 1, 76, 64
2, 41855, Note_on_c, 1, 76, 0
2, 41856, Note_on_c, 1, 80, 64
2, 41879, Note_on_c, 1, 80, 0
2, 41880, Note_on_c, 1, 76, 64
2, 41903, Note_on_c, 1, 76, 0
2, 41904, Note_on_c, 1, 75, 64
2, 41927, Note_on_c, 1, 75, 0
2, 41928, Note_on_c, 1, 76, 64
2, 41951, Note_on_c, 1, 76, 0
2, 41952, Note_on_c, 1, 81, 64
2, 41975, Note_on_c, 1, 81, 0
2, 41976, Note_on_c, 1, 76, 64
2, 41999, Note_on_c, 1, 76, 0
2, 42000, Note_on_c, 1, 75, 64
2, 42023, Note_on_c, 1, 75, 0
2, 42024, Note_on_c, 1, 76, 64
2, 42047, Note_on_c, 1, 76, 0
2, 42048, Note_on_c, 1, 83, 64
2, 42071, Note_on_c, 1, 83, 0
2, 42072, Note_on_c, 1, 76, 64
2, 42095, Note_on_c, 1, 76, 0
2, 42096, Note_on_c, 1, 75, 64
2, 42119, Note_on_c, 1, 75, 0
2, 42120, Note_on_c, 1, 76, 64
2, 42143, Note_on_c, 1, 76, 0
2, 42144, Note_on_c, 1, 81, 64
2, 42167, Note_on_c, 1, 81, 0
2, 42168, Note_on_c, 1, 76, 64
2, 42191, Note_on_c, 1, 76, 0
2, 42192, Note_on_c, 1, 75, 64
2, 42215, Note_on_c, 1, 75, 0
2, 42216, Note_on_c, 1, 76, 64
2, 42239, Note_on_c, 1, 76, 0
2, 42240, Note_on_c, 1, 83, 64
2, 42263, Note_on_c, 1, 83, 0
2, 42264, Note_on_c, 1, 76, 64
2, 42287, Note_on_c, 1, 76, 0
2, 42288, Note_on_c, 1, 75, 64
2, 42311, Note_on_c, 1, 75, 0
2, 42312, Note_on_c, 1, 76, 64
2, 42335, Note_on_c, 1, 76, 0
2, 42336, Note_on_c, 1, 85, 64
2, 42359, Note_on_c, 1, 85, 0
2, 42360, Note_on_c, 1, 83, 64
2, 42383, Note_on_c, 1, 83, 0
2, 42384, Note_on_c, 1, 85, 64
2, 42407, Note_on_c, 1, 85, 0
2, 42408, Note_on_c, 1, 83, 64
2, 42431, Note_on_c, 1, 83, 0
2, 42432, Note_on_c, 1, 81, 64
2, 42455, Note_on_c, 1, 81, 0
2, 42456, Note_on_c, 1, 80, 64
2, 42479, Note_on_c, 1, 80, 0
2, 42480, Note_on_c, 1, 81, 64
2, 42503, Note_on_c, 1, 81, 0
2, 42504, Note_on_c, 1, 80, 64
2, 42527, Note_on_c, 1, 80, 0
2, 42528, Note_on_c, 1, 78, 64
2, 42551, Note_on_c, 1, 78, 0
2, 42552, Note_on_c, 1, 76, 64
2, 42575, Note_on_c, 1, 76, 0
2, 42576, Note_on_c, 1, 78, 64
2, 42599, Note_on_c, 1, 78, 0
2, 42600, Note_on_c, 1, 76, 64
2, 42623, Note_on_c, 1, 76, 0
2, 42624, Note_on_c, 1, 75, 64
2, 42669, Note_on_c, 1, 75, 0
2, 42672, Note_on_c, 1, 73, 64
2, 42717, Note_on_c, 1, 73, 0
2, 42720, Note_on_c, 1, 75, 64
2, 42765, Note_on_c, 1, 75, 0
2, 42768, Note_on_c, 1, 76, 64
2, 42813, Note_on_c, 1, 76, 0
2, 42816, Note_on_c, 1, 78, 64
2, 42861, Note_on_c, 1, 78, 0
2, 42864, Note_on_c, 1, 75, 64
2, 42909, Note_on_c, 1, 75, 0
2, 42912, Note_on_c, 1, 83, 64
2, 42935, Note_on_c, 1, 83, 0
2, 42936, Note_on_c, 1, 81, 64
2, 42959, Note_on_c, 1, 81, 0
2, 42960, Note_on_c, 1, 83, 64
2, 42983, Note_on_c, 1, 83, 0
2, 42984, Note_on_c, 1, 81, 64
2, 43007, Note_on_c, 1, 81, 0
2, 43008, Note_on_c, 1, 80, 64
2, 43031, Note_on_c, 1, 80, 0
2, 43032, Note_on_c, 1, 78, 64
2, 43055, Note_on_c, 1, 78, 0
2, 43056, Note_on_c, 1, 80, 64
2, 43079, Note_on_c, 1, 80, 0
2, 43080, Note_on_c, 1, 78, 64
2, 43103, Note_on_c, 1, 78, 0
2, 43104, Note_on_c, 1, 76, 64
2, 43127, Note_on_c, 1, 76, 0
2, 43128, Note_on_c, 1, 74, 64
2, 43151, Note_on_c, 1, 74, 0
2, 43152, Note_on_c, 1, 76, 64
2, 43175, Note_on_c, 1, 76, 0
2, 43176, Note_on_c, 1, 74, 64
2, 43199, Note_on_c, 1, 74, 0
2, 43200, Note_on_c, 1, 73, 64
2, 43223, Note_on_c, 1, 73, 0
2, 43224, Note_on_c, 1, 71, 64
2, 43247, Note_on_c, 1, 71, 0
2, 43248, Note_on_c, 1, 73, 64
2, 43271, Note_on_c, 1, 73, 0
2, 43272, Note_on_c, 1, 71, 64
2, 43295, Note_on_c, 1, 71, 0
2, 43296, Note_on_c, 1, 69, 64
2, 43319, Note_on_c, 1, 69, 0
2, 43320, Note_on_c, 1, 68, 64
2, 43343, Note_on_c, 1, 68, 0
2, 43344, Note_on_c, 1, 69, 64
2, 43367, Note_on_c, 1, 69, 0
2, 43368, Note_on_c, 1, 68, 64
2, 43391, Note_on_c, 1, 68, 0
2, 43392, Note_on_c, 1, 66, 64
2, 43415, Note_on_c, 1, 66, 0
2, 43416, Note_on_c, 1, 64, 64
2, 43439, Note_on_c, 1, 64, 0
2, 43440, Note_on_c, 1, 66, 64
2, 43463, Note_on_c, 1, 66, 0
2, 43464, Note_on_c, 1, 64, 64
2, 43487, Note_on_c, 1, 64, 0
2, 43488, Note_on_c, 1, 75, 64
2, 43621, Note_on_c, 1, 75, 0
2, 43632, Note_on_c, 1, 71, 64
2, 43677, Note_on_c, 1, 71, 0
2, 43680, Note_on_c, 1, 76, 64
2, 43725, Note_on_c, 1, 76, 0
2, 43728, Note_on_c, 1, 75, 64
2, 43773, Note_on_c, 1, 75, 0
2, 43776, Note_on_c, 1, 76, 64
2, 43821, Note_on_c, 1, 76, 0
2, 43824, Note_on_c, 1, 78, 64
2, 43869, Note_on_c, 1, 78, 0
2, 43872, Note_on_c, 1, 75, 64
2, 44005, Note_on_c, 1, 75, 0
2, 44016, Note_on_c, 1, 76, 64
2, 44061, Note_on_c, 1, 76, 0
2, 44064, Note_on_c, 1, 76, 64
2, 44153, Note_on_c, 1, 76, 0
2, 44153, End_track
3, 0, Start_track
3, 0, MIDI_port, 0
3, 0, Title_t, "Clavier (RH)"
3, 0, Program_c, 0, 6
3, 0, Control_c, 0, 7, 127
3, 1176, Note_on_c, 0, 71, 64
3, 1199, Note_on_c, 0, 71, 0
3, 1200, Note_on_c, 0, 70, 64
3, 1223, Note_on_c, 0, 70, 0
3, 1224, Note_on_c, 0, 71, 64
3, 1247, Note_on_c, 0, 71, 0
3, 1248, Note_on_c, 0, 73, 64
3, 1271, Note_on_c, 0, 73, 0
3, 1272, Note_on_c, 0, 71, 64
3, 1295, Note_on_c, 0, 71, 0
3, 1296, Note_on_c, 0, 70, 64
3, 1319, Note_on_c, 0, 70, 0
3, 1320, Note_on_c, 0, 71, 64
3, 1343, Note_on_c, 0, 71, 0
3, 1344, Note_on_c, 0, 75, 64
3, 1367, Note_on_c, 0, 75, 0
3, 1368, Note_on_c, 0, 71, 64
3, 1391, Note_on_c, 0, 71, 0
3, 1392, Note_on_c, 0, 70, 64
3, 1415, Note_on_c, 0, 70, 0
3, 1416, Note_on_c, 0, 71, 64
3, 1439, Note_on_c, 0, 71, 0
3, 1440, Note_on_c, 0, 76, 64
3, 1463, Note_on_c, 0, 76, 0
3, 1464, Note_on_c, 0, 71, 64
3, 1487, Note_on_c, 0, 71, 0
3, 1488, Note_on_c, 0, 70, 64
3, 1511, Note_on_c, 0, 70, 0
3, 1512, Note_on_c, 0, 71, 64
3, 1535, Note_on_c, 0, 71, 0
3, 1536, Note_on_c, 0, 75, 64
3, 1559, Note_on_c, 0, 75, 0
3, 1560, Note_on_c, 0, 71, 64
3, 1583, Note_on_c, 0, 71, 0
3, 1584, Note_on_c, 0, 70, 64
3, 1607, Note_on_c, 0, 70, 0
3, 1608, Note_on_c, 0, 71, 64
3, 1631, Note_on_c, 0, 71, 0
3, 1632, Note_on_c, 0, 76, 64
3, 1655, Note_on_c, 0, 76, 0
3, 1656, Note_on_c, 0, 71, 64
3, 1679, Note_on_c, 0, 71, 0
3, 1680, Note_on_c, 0, 70, 64
3, 1703, Note_on_c, 0, 70, 0
3, 1704, Note_on_c, 0, 71, 64
3, 1727, Note_on_c, 0, 71, 0
3, 1728, Note_on_c, 0, 78, 64
3, 1751, Note_on_c, 0, 78, 0
3, 1752, Note_on_c, 0, 71, 64
3, 1775, Note_on_c, 0, 71, 0
3, 1776, Note_on_c, 0, 70, 64
3, 1799, Note_on_c, 0, 70, 0
3, 1800, Note_on_c, 0, 71, 64
3, 1823, Note_on_c, 0, 71, 0
3, 1824, Note_on_c, 0, 76, 64
3, 1847, Note_on_c, 0, 76, 0
3, 1848, Note_on_c, 0, 71, 64
3, 1871, Note_on_c, 0, 71, 0
3, 1872, Note_on_c, 0, 70, 64
3, 1895, Note_on_c, 0, 70, 0
3, 1896, Note_on_c, 0, 71, 64
3, 1919, Note_on_c, 0, 71, 0
3, 1920, Note_on_c, 0, 78, 64
3, 1943, Note_on_c, 0, 78, 0
3, 1944, Note_on_c, 0, 71, 64
3, 1967, Note_on_c, 0, 71, 0
3, 1968, Note_on_c, 0, 70, 64
3, 1991, Note_on_c, 0, 70, 0
3, 1992, Note_on_c, 0, 71, 64
3, 2015, Note_on_c, 0, 71, 0
3, 2016, Note_on_c, 0, 80, 64
3, 2039, Note_on_c, 0, 80, 0
3, 2040, Note_on_c, 0, 78, 64
3, 2063, Note_on_c, 0, 78, 0
3, 2064, Note_on_c, 0, 80, 64
3, 2087, Note_on_c, 0, 80, 0
3, 2088, Note_on_c, 0, 78, 64
3, 2111, Note_on_c, 0, 78, 0
3, 2112, Note_on_c, 0, 76, 64
3, 2135, Note_on_c, 0, 76, 0
3, 2136, Note_on_c, 0, 75, 64
3, 2159, Note_on_c, 0, 75, 0
3, 2160, Note_on_c, 0, 76, 64
3, 2183, Note_on_c, 0, 76, 0
3, 2184, Note_on_c, 0, 75, 64
3, 2207, Note_on_c, 0, 75, 0
3, 2208, Note_on_c, 0, 73, 64
3, 2231, Note_on_c, 0, 73, 0
3, 2232, Note_on_c, 0, 71, 64
3, 2255, Note_on_c, 0, 71, 0
3, 2256, Note_on_c, 0, 73, 64
3, 2279, Note_on_c, 0, 73, 0
3, 2280, Note_on_c, 0, 71, 64
3, 2303, Note_on_c, 0, 71, 0
3, 2304, Note_on_c, 0, 70, 64
3, 2393, Note_on_c, 0, 70, 0
3, 2424, Note_on_c, 0, 73, 64
3, 2447, Note_on_c, 0, 73, 0
3, 2448, Note_on_c, 0, 70, 64
3, 2471, Note_on_c, 0, 70, 0
3, 2472, Note_on_c, 0, 73, 64
3, 2495, Note_on_c, 0, 73, 0
3, 2496, Note_on_c, 0, 76, 64
3, 2519, Note_on_c, 0, 76, 0
3, 2520, Note_on_c, 0, 73, 64
3, 2543, Note_on_c, 0, 73, 0
3, 2544, Note_on_c, 0, 70, 64
3, 2567, Note_on_c, 0, 70, 0
3, 2568, Note_on_c, 0, 73, 64
3, 2591, Note_on_c, 0, 73, 0
3, 2592, Note_on_c, 0, 75, 64
3, 2615, Note_on_c, 0, 75, 0
3, 2616, Note_on_c, 0, 83, 64
3, 2639, Note_on_c, 0, 83, 0
3, 2640, Note_on_c, 0, 78, 64
3, 2663, Note_on_c, 0, 78, 0
3, 2664, Note_on_c, 0, 83, 64
3, 2687, Note_on_c, 0, 83, 0
3, 2688, Note_on_c, 0, 75, 64
3, 2711, Note_on_c, 0, 75, 0
3, 2712, Note_on_c, 0, 81, 64
3, 2735, Note_on_c, 0, 81, 0
3, 2736, Note_on_c, 0, 78, 64
3, 2759, Note_on_c, 0, 78, 0
3, 2760, Note_on_c, 0, 81, 64
3, 2783, Note_on_c, 0, 81, 0
3, 2784, Note_on_c, 0, 71, 64
3, 2807, Note_on_c, 0, 71, 0
3, 2808, Note_on_c, 0, 81, 64
3, 2831, Note_on_c, 0, 81, 0
3, 2832, Note_on_c, 0, 78, 64
3, 2855, Note_on_c, 0, 78, 0
3, 2856, Note_on_c, 0, 81, 64
3, 2879, Note_on_c, 0, 81, 0
3, 2880, Note_on_c, 0, 71, 64
3, 2925, Note_on_c, 0, 71, 0
3, 2928, Note_on_c, 0, 80, 64
3, 2973, Note_on_c, 0, 80, 0
3, 3000, Note_on_c, 0, 71, 64
3, 3023, Note_on_c, 0, 71, 0
3, 3024, Note_on_c, 0, 68, 64
3, 3047, Note_on_c, 0, 68, 0
3, 3048, Note_on_c, 0, 71, 64
3, 3071, Note_on_c, 0, 71, 0
3, 3072, Note_on_c, 0, 74, 64
3, 3095, Note_on_c, 0, 74, 0
3, 3096, Note_on_c, 0, 71, 64
3, 3119, Note_on_c, 0, 71, 0
3, 3120, Note_on_c, 0, 68, 64
3, 3143, Note_on_c, 0, 68, 0
3, 3144, Note_on_c, 0, 71, 64
3, 3167, Note_on_c, 0, 71, 0
3, 3168, Note_on_c, 0, 73, 64
3, 3191, Note_on_c, 0, 73, 0
3, 3192, Note_on_c, 0, 76, 64
3, 3215, Note_on_c, 0, 76, 0
3, 3216, Note_on_c, 0, 73, 64
3, 3239, Note_on_c, 0, 73, 0
3, 3240, Note_on_c, 0, 76, 64
3, 3263, Note_on_c, 0, 76, 0
3, 3264, Note_on_c, 0, 81, 64
3, 3287, Note_on_c, 0, 81, 0
3, 3288, Note_on_c, 0, 76, 64
3, 3311, Note_on_c, 0, 76, 0
3, 3312, Note_on_c, 0, 73, 64
3, 3335, Note_on_c, 0, 73, 0
3, 3336, Note_on_c, 0, 76, 64
3, 3359, Note_on_c, 0, 76, 0
3, 3360, Note_on_c, 0, 69, 64
3, 3383, Note_on_c, 0, 69, 0
3, 3384, Note_on_c, 0, 73, 64
3, 3407, Note_on_c, 0, 73, 0
3, 3408, Note_on_c, 0, 68, 64
3, 3431, Note_on_c, 0, 68, 0
3, 3432, Note_on_c, 0, 71, 64
3, 3455, Note_on_c, 0, 71, 0
3, 3456, Note_on_c, 0, 69, 64
3, 3479, Note_on_c, 0, 69, 0
3, 3480, Note_on_c, 0, 73, 64
3, 3503, Note_on_c, 0, 73, 0
3, 3504, Note_on_c, 0, 69, 64
3, 3527, Note_on_c, 0, 69, 0
3, 3528, Note_on_c, 0, 73, 64
3, 3551, Note_on_c, 0, 73, 0
3, 3552, Note_on_c, 0, 78, 64
3, 3575, Note_on_c, 0, 78, 0
3, 3576, Note_on_c, 0, 73, 64
3, 3599, Note_on_c, 0, 73, 0
3, 3600, Note_on_c, 0, 69, 64
3, 3623, Note_on_c, 0, 69, 0
3, 3624, Note_on_c, 0, 73, 64
3, 3647, Note_on_c, 0, 73, 0
3, 3648, Note_on_c, 0, 66, 64
3, 3671, Note_on_c, 0, 66, 0
3, 3672, Note_on_c, 0, 69, 64
3, 3695, Note_on_c, 0, 69, 0
3, 3696, Note_on_c, 0, 65, 64
3, 3719, Note_on_c, 0, 65, 0
3, 3720, Note_on_c, 0, 68, 64
3, 3743, Note_on_c, 0, 68, 0
3, 3744, Note_on_c, 0, 66, 64
3, 3767, Note_on_c, 0, 66, 0
3, 3768, Note_on_c, 0, 69, 64
3, 3791, Note_on_c, 0, 69, 0
3, 3792, Note_on_c, 0, 66, 64
3, 3815, Note_on_c, 0, 66, 0
3, 3816, Note_on_c, 0, 69, 64
3, 3839, Note_on_c, 0, 69, 0
3, 3840, Note_on_c, 0, 73, 64
3, 3863, Note_on_c, 0, 73, 0
3, 3864, Note_on_c, 0, 69, 64
3, 3887, Note_on_c, 0, 69, 0
3, 3888, Note_on_c, 0, 66, 64
3, 3911, Note_on_c, 0, 66, 0
3, 3912, Note_on_c, 0, 69, 64
3, 3935, Note_on_c, 0, 69, 0
3, 3936, Note_on_c, 0, 73, 64
3, 3959, Note_on_c, 0, 73, 0
3, 3960, Note_on_c, 0, 66, 64
3, 3983, Note_on_c, 0, 66, 0
3, 3984, Note_on_c, 0, 69, 64
3, 4007, Note_on_c, 0, 69, 0
3, 4008, Note_on_c, 0, 73, 64
3, 4031, Note_on_c, 0, 73, 0
3, 4032, Note_on_c, 0, 69, 64
3, 4055, Note_on_c, 0, 69, 0
3, 4056, Note_on_c, 0, 75, 64
3, 4079, Note_on_c, 0, 75, 0
3, 4080, Note_on_c, 0, 78, 64
3, 4103, Note_on_c, 0, 78, 0
3, 4104, Note_on_c, 0, 75, 64
3, 4127, Note_on_c, 0, 75, 0
3, 4128, Note_on_c, 0, 69, 64
3, 4151, Note_on_c, 0, 69, 0
3, 4152, Note_on_c, 0, 75, 64
3, 4175, Note_on_c, 0, 75, 0
3, 4176, Note_on_c, 0, 78, 64
3, 4199, Note_on_c, 0, 78, 0
3, 4200, Note_on_c, 0, 75, 64
3, 4223, Note_on_c, 0, 75, 0
3, 4224, Note_on_c, 0, 69, 64
3, 4247, Note_on_c, 0, 69, 0
3, 4248, Note_on_c, 0, 75, 64
3, 4271, Note_on_c, 0, 75, 0
3, 4272, Note_on_c, 0, 78, 64
3, 4295, Note_on_c, 0, 78, 0
3, 4296, Note_on_c, 0, 69, 64
3, 4319, Note_on_c, 0, 69, 0
3, 4320, Note_on_c, 0, 68, 64
3, 4365, Note_on_c, 0, 68, 0
3, 4368, Note_on_c, 0, 64, 64
3, 4413, Note_on_c, 0, 64, 0
3, 4416, Note_on_c, 0, 68, 64
3, 4461, Note_on_c, 0, 68, 0
3, 4464, Note_on_c, 0, 71, 64
3, 4509, Note_on_c, 0, 71, 0
3, 4512, Note_on_c, 0, 76, 64
3, 4653, Note_on_c, 0, 76, 0
3, 4656, Note_on_c, 0, 73, 64
3, 4701, Note_on_c, 0, 73, 0
3, 4704, Note_on_c, 0, 71, 64
3, 4749, Note_on_c, 0, 71, 0
3, 4752, Note_on_c, 0, 69, 64
3, 4797, Note_on_c, 0, 69, 0
3, 4800, Note_on_c, 0, 76, 64
3, 4941, Note_on_c, 0, 76, 0
3, 4944, Note_on_c, 0, 68, 64
3, 4989, Note_on_c, 0, 68, 0
3, 4992, Note_on_c, 0, 66, 64
3, 5037, Note_on_c, 0, 66, 0
3, 5040, Note_on_c, 0, 64, 64
3, 5085, Note_on_c, 0, 64, 0
3, 5088, Note_on_c, 0, 76, 64
3, 5229, Note_on_c, 0, 76, 0
3, 5232, Note_on_c, 0, 80, 64
3, 5277, Note_on_c, 0, 80, 0
3, 5280, Note_on_c, 0, 78, 64
3, 5325, Note_on_c, 0, 78, 0
3, 5328, Note_on_c, 0, 76, 64
3, 5373, Note_on_c, 0, 76, 0
3, 5376, Note_on_c, 0, 75, 64
3, 5421, Note_on_c, 0, 75, 0
3, 5424, Note_on_c, 0, 73, 64
3, 5469, Note_on_c, 0, 73, 0
3, 5472, Note_on_c, 0, 71, 64
3, 5783, Note_on_c, 0, 71, 0
3, 5784, Note_on_c, 0, 69, 64
3, 5807, Note_on_c, 0, 69, 0
3, 5808, Note_on_c, 0, 71, 64
3, 5831, Note_on_c, 0, 71, 0
3, 5832, Note_on_c, 0, 69, 64
3, 5855, Note_on_c, 0, 69, 0
3, 5856, Note_on_c, 0, 68, 64
3, 5879, Note_on_c, 0, 68, 0
3, 5880, Note_on_c, 0, 66, 64
3, 5903, Note_on_c, 0, 66, 0
3, 5904, Note_on_c, 0, 68, 64
3, 5927, Note_on_c, 0, 68, 0
3, 5928, Note_on_c, 0, 66, 64
3, 5951, Note_on_c, 0, 66, 0
3, 5952, Note_on_c, 0, 64, 64
3, 5975, Note_on_c, 0, 64, 0
3, 5976, Note_on_c, 0, 62, 64
3, 5999, Note_on_c, 0, 62, 0
3, 6000, Note_on_c, 0, 64, 64
3, 6023, Note_on_c, 0, 64, 0
3, 6024, Note_on_c, 0, 62, 64
3, 6047, Note_on_c, 0, 62, 0
3, 6048, Note_on_c, 0, 61, 64
3, 6093, Note_on_c, 0, 61, 0
3, 6096, Note_on_c, 0, 64, 64
3, 6141, Note_on_c, 0, 64, 0
3, 6144, Note_on_c, 0, 69, 64
3, 6189, Note_on_c, 0, 69, 0
3, 6192, Note_on_c, 0, 73, 64
3, 6237, Note_on_c, 0, 73, 0
3, 6240, Note_on_c, 0, 78, 64
3, 6285, Note_on_c, 0, 78, 0
3, 6288, Note_on_c, 0, 81, 64
3, 6333, Note_on_c, 0, 81, 0
3, 6336, Note_on_c, 0, 83, 64
3, 6359, Note_on_c, 0, 83, 0
3, 6360, Note_on_c, 0, 71, 64
3, 6383, Note_on_c, 0, 71, 0
3, 6384, Note_on_c, 0, 70, 64
3, 6407, Note_on_c, 0, 70, 0
3, 6408, Note_on_c, 0, 71, 64
3, 6431, Note_on_c, 0, 71, 0
3, 6432, Note_on_c, 0, 73, 64
3, 6455, Note_on_c, 0, 73, 0
3, 6456, Note_on_c, 0, 71, 64
3, 6479, Note_on_c, 0, 71, 0
3, 6480, Note_on_c, 0, 70, 64
3, 6503, Note_on_c, 0, 70, 0
3, 6504, Note_on_c, 0, 71, 64
3, 6527, Note_on_c, 0, 71, 0
3, 6528, Note_on_c, 0, 75, 64
3, 6551, Note_on_c, 0, 75, 0
3, 6552, Note_on_c, 0, 71, 64
3, 6575, Note_on_c, 0, 71, 0
3, 6576, Note_on_c, 0, 70, 64
3, 6599, Note_on_c, 0, 70, 0
3, 6600, Note_on_c, 0, 71, 64
3, 6623, Note_on_c, 0, 71, 0
3, 6624, Note_on_c, 0, 76, 64
3, 6647, Note_on_c, 0, 76, 0
3, 6648, Note_on_c, 0, 71, 64
3, 6671, Note_on_c, 0, 71, 0
3, 6672, Note_on_c, 0, 70, 64
3, 6695, Note_on_c, 0, 70, 0
3, 6696, Note_on_c, 0, 71, 64
3, 6719, Note_on_c, 0, 71, 0
3, 6720, Note_on_c, 0, 75, 64
3, 6743, Note_on_c, 0, 75, 0
3, 6744, Note_on_c, 0, 71, 64
3, 6767, Note_on_c, 0, 71, 0
3, 6768, Note_on_c, 0, 70, 64
3, 6791, Note_on_c, 0, 70, 0
3, 6792, Note_on_c, 0, 71, 64
3, 6815, Note_on_c, 0, 71, 0
3, 6816, Note_on_c, 0, 76, 64
3, 6839, Note_on_c, 0, 76, 0
3, 6840, Note_on_c, 0, 71, 64
3, 6863, Note_on_c, 0, 71, 0
3, 6864, Note_on_c, 0, 70, 64
3, 6887, Note_on_c, 0, 70, 0
3, 6888, Note_on_c, 0, 71, 64
3, 6911, Note_on_c, 0, 71, 0
3, 6912, Note_on_c, 0, 78, 64
3, 6935, Note_on_c, 0, 78, 0
3, 6936, Note_on_c, 0, 71, 64
3, 6959, Note_on_c, 0, 71, 0
3, 6960, Note_on_c, 0, 70, 64
3, 6983, Note_on_c, 0, 70, 0
3, 6984, Note_on_c, 0, 71, 64
3, 7007, Note_on_c, 0, 71, 0
3, 7008, Note_on_c, 0, 76, 64
3, 7031, Note_on_c, 0, 76, 0
3, 7032, Note_on_c, 0, 71, 64
3, 7055, Note_on_c, 0, 71, 0
3, 7056, Note_on_c, 0, 70, 64
3, 7079, Note_on_c, 0, 70, 0
3, 7080, Note_on_c, 0, 71, 64
3, 7103, Note_on_c, 0, 71, 0
3, 7104, Note_on_c, 0, 78, 64
3, 7127, Note_on_c, 0, 78, 0
3, 7128, Note_on_c, 0, 71, 64
3, 7151, Note_on_c, 0, 71, 0
3, 7152, Note_on_c, 0, 70, 64
3, 7175, Note_on_c, 0, 70, 0
3, 7176, Note_on_c, 0, 71, 64
3, 7199, Note_on_c, 0, 71, 0
3, 7200, Note_on_c, 0, 80, 64
3, 7245, Note_on_c, 0, 80, 0
3, 7248, Note_on_c, 0, 64, 64
3, 7293, Note_on_c, 0, 64, 0
3, 7296, Note_on_c, 0, 68, 64
3, 7341, Note_on_c, 0, 68, 0
3, 7344, Note_on_c, 0, 71, 64
3, 7389, Note_on_c, 0, 71, 0
3, 7392, Note_on_c, 0, 76, 64
3, 7533, Note_on_c, 0, 76, 0
3, 7536, Note_on_c, 0, 73, 64
3, 7581, Note_on_c, 0, 73, 0
3, 7584, Note_on_c, 0, 71, 64
3, 7629, Note_on_c, 0, 71, 0
3, 7632, Note_on_c, 0, 69, 64
3, 7677, Note_on_c, 0, 69, 0
3, 7680, Note_on_c, 0, 76, 64
3, 7821, Note_on_c, 0, 76, 0
3, 7824, Note_on_c, 0, 68, 64
3, 7869, Note_on_c, 0, 68, 0
3, 7872, Note_on_c, 0, 66, 64
3, 7917, Note_on_c, 0, 66, 0
3, 7920, Note_on_c, 0, 64, 64
3, 7965, Note_on_c, 0, 64, 0
3, 7968, Note_on_c, 0, 76, 64
3, 8109, Note_on_c, 0, 76, 0
3, 8112, Note_on_c, 0, 68, 64
3, 8157, Note_on_c, 0, 68, 0
3, 8160, Note_on_c, 0, 69, 64
3, 8205, Note_on_c, 0, 69, 0
3, 8208, Note_on_c, 0, 71, 64
3, 8253, Note_on_c, 0, 71, 0
3, 8256, Note_on_c, 0, 73, 64
3, 8301, Note_on_c, 0, 73, 0
3, 8304, Note_on_c, 0, 69, 64
3, 8349, Note_on_c, 0, 69, 0
3, 8352, Note_on_c, 0, 78, 64
3, 8375, Note_on_c, 0, 78, 0
3, 8376, Note_on_c, 0, 76, 64
3, 8399, Note_on_c, 0, 76, 0
3, 8400, Note_on_c, 0, 78, 64
3, 8423, Note_on_c, 0, 78, 0
3, 8424, Note_on_c, 0, 76, 64
3, 8447, Note_on_c, 0, 76, 0
3, 8448, Note_on_c, 0, 75, 64
3, 8471, Note_on_c, 0, 75, 0
3, 8472, Note_on_c, 0, 73, 64
3, 8495, Note_on_c, 0, 73, 0
3, 8496, Note_on_c, 0, 75, 64
3, 8519, Note_on_c, 0, 75, 0
3, 8520, Note_on_c, 0, 73, 64
3, 8543, Note_on_c, 0, 73, 0
3, 8544, Note_on_c, 0, 71, 64
3, 8567, Note_on_c, 0, 71, 0
3, 8568, Note_on_c, 0, 69, 64
3, 8591, Note_on_c, 0, 69, 0
3, 8592, Note_on_c, 0, 71, 64
3, 8615, Note_on_c, 0, 71, 0
3, 8616, Note_on_c, 0, 69, 64
3, 8639, Note_on_c, 0, 69, 0
3, 8640, Note_on_c, 0, 68, 64
3, 8685, Note_on_c, 0, 68, 0
3, 8688, Note_on_c, 0, 66, 64
3, 8733, Note_on_c, 0, 66, 0
3, 8736, Note_on_c, 0, 68, 64
3, 8781, Note_on_c, 0, 68, 0
3, 8784, Note_on_c, 0, 69, 64
3, 8829, Note_on_c, 0, 69, 0
3, 8832, Note_on_c, 0, 71, 64
3, 8877, Note_on_c, 0, 71, 0
3, 8880, Note_on_c, 0, 68, 64
3, 8925, Note_on_c, 0, 68, 0
3, 8928, Note_on_c, 0, 76, 64
3, 8951, Note_on_c, 0, 76, 0
3, 8952, Note_on_c, 0, 74, 64
3, 8975, Note_on_c, 0, 74, 0
3, 8976, Note_on_c, 0, 76, 64
3, 8999, Note_on_c, 0, 76, 0
3, 9000, Note_on_c, 0, 74, 64
3, 9023, Note_on_c, 0, 74, 0
3, 9024, Note_on_c, 0, 73, 64
3, 9047, Note_on_c, 0, 73, 0
3, 9048, Note_on_c, 0, 71, 64
3, 9071, Note_on_c, 0, 71, 0
3, 9072, Note_on_c, 0, 73, 64
3, 9095, Note_on_c, 0, 73, 0
3, 9096, Note_on_c, 0, 71, 64
3, 9119, Note_on_c, 0, 71, 0
3, 9120, Note_on_c, 0, 69, 64
3, 9143, Note_on_c, 0, 69, 0
3, 9144, Note_on_c, 0, 68, 64
3, 9167, Note_on_c, 0, 68, 0
3, 9168, Note_on_c, 0, 69, 64
3, 9191, Note_on_c, 0, 69, 0
3, 9192, Note_on_c, 0, 68, 64
3, 9215, Note_on_c, 0, 68, 0
3, 9216, Note_on_c, 0, 66, 64
3, 9261, Note_on_c, 0, 66, 0
3, 9264, Note_on_c, 0, 66, 64
3, 9309, Note_on_c, 0, 66, 0
3, 9312, Note_on_c, 0, 71, 64
3, 9357, Note_on_c, 0, 71, 0
3, 9360, Note_on_c, 0, 69, 64
3, 9405, Note_on_c, 0, 69, 0
3, 9408, Note_on_c, 0, 68, 64
3, 9453, Note_on_c, 0, 68, 0
3, 9456, Note_on_c, 0, 66, 64
3, 9501, Note_on_c, 0, 66, 0
3, 9504, Note_on_c, 0, 68, 64
3, 9549, Note_on_c, 0, 68, 0
3, 9552, Note_on_c, 0, 69, 64
3, 9597, Note_on_c, 0, 69, 0
3, 9600, Note_on_c, 0, 66, 64
3, 9733, Note_on_c, 0, 66, 0
3, 9744, Note_on_c, 0, 64, 64
3, 9789, Note_on_c, 0, 64, 0
3, 9792, Note_on_c, 0, 64, 64
3, 9881, Note_on_c, 0, 64, 0
3, 10680, Note_on_c, 0, 71, 64
3, 10703, Note_on_c, 0, 71, 0
3, 10704, Note_on_c, 0, 70, 64
3, 10727, Note_on_c, 0, 70, 0
3, 10728, Note_on_c, 0, 71, 64
3, 10751, Note_on_c, 0, 71, 0
3, 10752, Note_on_c, 0, 73, 64
3, 10775, Note_on_c, 0, 73, 0
3, 10776, Note_on_c, 0, 71, 64
3, 10799, Note_on_c, 0, 71, 0
3, 10800, Note_on_c, 0, 70, 64
3, 10823, Note_on_c, 0, 70, 0
3, 10824, Note_on_c, 0, 71, 64
3, 10847, Note_on_c, 0, 71, 0
3, 10848, Note_on_c, 0, 75, 64
3, 10871, Note_on_c, 0, 75, 0
3, 10872, Note_on_c, 0, 71, 64
3, 10895, Note_on_c, 0, 71, 0
3, 10896, Note_on_c, 0, 70, 64
3, 10919, Note_on_c, 0, 70, 0
3, 10920, Note_on_c, 0, 71, 64
3, 10943, Note_on_c, 0, 71, 0
3, 10944, Note_on_c, 0, 76, 64
3, 11033, Note_on_c, 0, 76, 0
3, 12120, Note_on_c, 0, 76, 64
3, 12143, Note_on_c, 0, 76, 0
3, 12144, Note_on_c, 0, 75, 64
3, 12167, Note_on_c, 0, 75, 0
3, 12168, Note_on_c, 0, 76, 64
3, 12191, Note_on_c, 0, 76, 0
3, 12192, Note_on_c, 0, 78, 64
3, 12215, Note_on_c, 0, 78, 0
3, 12216, Note_on_c, 0, 76, 64
3, 12239, Note_on_c, 0, 76, 0
3, 12240, Note_on_c, 0, 75, 64
3, 12263, Note_on_c, 0, 75, 0
3, 12264, Note_on_c, 0, 76, 64
3, 12287, Note_on_c, 0, 76, 0
3, 12288, Note_on_c, 0, 80, 64
3, 12311, Note_on_c, 0, 80, 0
3, 12312, Note_on_c, 0, 76, 64
3, 12335, Note_on_c, 0, 76, 0
3, 12336, Note_on_c, 0, 75, 64
3, 12359, Note_on_c, 0, 75, 0
3, 12360, Note_on_c, 0, 76, 64
3, 12383, Note_on_c, 0, 76, 0
3, 12384, Note_on_c, 0, 82, 64
3, 12473, Note_on_c, 0, 82, 0
3, 12696, Note_on_c, 0, 78, 64
3, 12719, Note_on_c, 0, 78, 0
3, 12720, Note_on_c, 0, 77, 64
3, 12743, Note_on_c, 0, 77, 0
3, 12744, Note_on_c, 0, 78, 64
3, 12767, Note_on_c, 0, 78, 0
3, 12768, Note_on_c, 0, 80, 64
3, 12791, Note_on_c, 0, 80, 0
3, 12792, Note_on_c, 0, 78, 64
3, 12815, Note_on_c, 0, 78, 0
3, 12816, Note_on_c, 0, 77, 64
3, 12839, Note_on_c, 0, 77, 0
3, 12840, Note_on_c, 0, 78, 64
3, 12863, Note_on_c, 0, 78, 0
3, 12864, Note_on_c, 0, 82, 64
3, 12887, Note_on_c, 0, 82, 0
3, 12888, Note_on_c, 0, 78, 64
3, 12911, Note_on_c, 0, 78, 0
3, 12912, Note_on_c, 0, 77, 64
3, 12935, Note_on_c, 0, 77, 0
3, 12936, Note_on_c, 0, 78, 64
3, 12959, Note_on_c, 0, 78, 0
3, 12960, Note_on_c, 0, 83, 64
3, 13049, Note_on_c, 0, 83, 0
3, 14136, Note_on_c, 0, 66, 64
3, 14159, Note_on_c, 0, 66, 0
3, 14160, Note_on_c, 0, 64, 64
3, 14183, Note_on_c, 0, 64, 0
3, 14184, Note_on_c, 0, 66, 64
3, 14207, Note_on_c, 0, 66, 0
3, 14208, Note_on_c, 0, 68, 64
3, 14231, Note_on_c, 0, 68, 0
3, 14232, Note_on_c, 0, 66, 64
3, 14255, Note_on_c, 0, 66, 0
3, 14256, Note_on_c, 0, 64, 64
3, 14279, Note_on_c, 0, 64, 0
3, 14280, Note_on_c, 0, 66, 64
3, 14303, Note_on_c, 0, 66, 0
3, 14304, Note_on_c, 0, 70, 64
3, 14327, Note_on_c, 0, 70, 0
3, 14328, Note_on_c, 0, 66, 64
3, 14351, Note_on_c, 0, 66, 0
3, 14352, Note_on_c, 0, 64, 64
3, 14375, Note_on_c, 0, 64, 0
3, 14376, Note_on_c, 0, 66, 64
3, 14399, Note_on_c, 0, 66, 0
3, 14400, Note_on_c, 0, 71, 64
3, 14430, Note_on_c, 0, 71, 0
3, 14432, Note_on_c, 0, 66, 64
3, 14462, Note_on_c, 0, 66, 0
3, 14464, Note_on_c, 0, 64, 64
3, 14494, Note_on_c, 0, 64, 0
3, 14496, Note_on_c, 0, 66, 64
3, 14526, Note_on_c, 0, 66, 0
3, 14528, Note_on_c, 0, 63, 64
3, 14558, Note_on_c, 0, 63, 0
3, 14560, Note_on_c, 0, 61, 64
3, 14590, Note_on_c, 0, 61, 0
3, 14592, Note_on_c, 0, 63, 64
3, 14622, Note_on_c, 0, 63, 0
3, 14624, Note_on_c, 0, 59, 64
3, 14654, Note_on_c, 0, 59, 0
3, 14656, Note_on_c, 0, 58, 64
3, 14686, Note_on_c, 0, 58, 0
3, 14688, Note_on_c, 0, 59, 64
3, 14718, Note_on_c, 0, 59, 0
3, 14720, Note_on_c, 0, 63, 64
3, 14750, Note_on_c, 0, 63, 0
3, 14752, Note_on_c, 0, 61, 64
3, 14782, Note_on_c, 0, 61, 0
3, 14784, Note_on_c, 0, 63, 64
3, 14814, Note_on_c, 0, 63, 0
3, 14816, Note_on_c, 0, 66, 64
3, 14846, Note_on_c, 0, 66, 0
3, 14848, Note_on_c, 0, 64, 64
3, 14878, Note_on_c, 0, 64, 0
3, 14880, Note_on_c, 0, 66, 64
3, 14910, Note_on_c, 0, 66, 0
3, 14912, Note_on_c, 0, 71, 64
3, 14942, Note_on_c, 0, 71, 0
3, 14944, Note_on_c, 0, 70, 64
3, 14974, Note_on_c, 0, 70, 0
3, 14976, Note_on_c, 0, 71, 64
3, 15006, Note_on_c, 0, 71, 0
3, 15008, Note_on_c, 0, 66, 64
3, 15038, Note_on_c, 0, 66, 0
3, 15040, Note_on_c, 0, 76, 64
3, 15070, Note_on_c, 0, 76, 0
3, 15072, Note_on_c, 0, 75, 64
3, 15102, Note_on_c, 0, 75, 0
3, 15104, Note_on_c, 0, 66, 64
3, 15134, Note_on_c, 0, 66, 0
3, 15136, Note_on_c, 0, 78, 64
3, 15166, Note_on_c, 0, 78, 0
3, 15168, Note_on_c, 0, 73, 64
3, 15198, Note_on_c, 0, 73, 0
3, 15200, Note_on_c, 0, 66, 64
3, 15230, Note_on_c, 0, 66, 0
3, 15232, Note_on_c, 0, 76, 64
3, 15262, Note_on_c, 0, 76, 0
3, 15264, Note_on_c, 0, 75, 64
3, 15276, Note_on_c, 0, 75, 0
3, 15276, Note_on_c, 0, 76, 64
3, 15288, Note_on_c, 0, 76, 0
3, 15288, Note_on_c, 0, 75, 64
3, 15300, Note_on_c, 0, 75, 0
3, 15300, Note_on_c, 0, 76, 64
3, 15312, Note_on_c, 0, 76, 0
3, 15312, Note_on_c, 0, 75, 64
3, 15324, Note_on_c, 0, 75, 0
3, 15324, Note_on_c, 0, 76, 64
3, 15336, Note_on_c, 0, 76, 0
3, 15336, Note_on_c, 0, 75, 64
3, 15348, Note_on_c, 0, 75, 0
3, 15348, Note_on_c, 0, 76, 64
3, 15360, Note_on_c, 0, 76, 0
3, 15360, Note_on_c, 0, 75, 64
3, 15372, Note_on_c, 0, 75, 0
3, 15372, Note_on_c, 0, 76, 64
3, 15384, Note_on_c, 0, 76, 0
3, 15384, Note_on_c, 0, 75, 64
3, 15396, Note_on_c, 0, 75, 0
3, 15396, Note_on_c, 0, 76, 64
3, 15408, Note_on_c, 0, 76, 0
3, 15408, Note_on_c, 0, 75, 64
3, 15420, Note_on_c, 0, 75, 0
3, 15420, Note_on_c, 0, 76, 64
3, 15432, Note_on_c, 0, 76, 0
3, 15432, Note_on_c, 0, 75, 64
3, 15444, Note_on_c, 0, 75, 0
3, 15444, Note_on_c, 0, 76, 64
3, 15456, Note_on_c, 0, 76, 0
3, 15456, Note_on_c, 0, 73, 64
3, 15545, Note_on_c, 0, 73, 0
3, 15552, Note_on_c, 0, 71, 64
3, 15582, Note_on_c, 0, 71, 0
3, 15584, Note_on_c, 0, 68, 64
3, 15614, Note_on_c, 0, 68, 0
3, 15616, Note_on_c, 0, 70, 64
3, 15646, Note_on_c, 0, 70, 0
3, 15648, Note_on_c, 0, 71, 64
3, 15678, Note_on_c, 0, 71, 0
3, 15680, Note_on_c, 0, 73, 64
3, 15710, Note_on_c, 0, 73, 0
3, 15712, Note_on_c, 0, 75, 64
3, 15742, Note_on_c, 0, 75, 0
3, 15744, Note_on_c, 0, 66, 64
3, 15774, Note_on_c, 0, 66, 0
3, 15776, Note_on_c, 0, 65, 64
3, 15806, Note_on_c, 0, 65, 0
3, 15808, Note_on_c, 0, 63, 64
3, 15838, Note_on_c, 0, 63, 0
3, 15840, Note_on_c, 0, 65, 64
3, 15870, Note_on_c, 0, 65, 0
3, 15872, Note_on_c, 0, 73, 64
3, 15902, Note_on_c, 0, 73, 0
3, 15904, Note_on_c, 0, 75, 64
3, 15934, Note_on_c, 0, 75, 0
3, 15936, Note_on_c, 0, 77, 64
3, 15966, Note_on_c, 0, 77, 0
3, 15968, Note_on_c, 0, 78, 64
3, 15998, Note_on_c, 0, 78, 0
3, 16000, Note_on_c, 0, 80, 64
3, 16030, Note_on_c, 0, 80, 0
3, 16032, Note_on_c, 0, 71, 64
3, 16062, Note_on_c, 0, 71, 0
3, 16064, Note_on_c, 0, 70, 64
3, 16094, Note_on_c, 0, 70, 0
3, 16096, Note_on_c, 0, 68, 64
3, 16126, Note_on_c, 0, 68, 0
3, 16128, Note_on_c, 0, 70, 64
3, 16158, Note_on_c, 0, 70, 0
3, 16160, Note_on_c, 0, 66, 64
3, 16190, Note_on_c, 0, 66, 0
3, 16192, Note_on_c, 0, 68, 64
3, 16222, Note_on_c, 0, 68, 0
3, 16224, Note_on_c, 0, 70, 64
3, 16254, Note_on_c, 0, 70, 0
3, 16256, Note_on_c, 0, 71, 64
3, 16286, Note_on_c, 0, 71, 0
3, 16288, Note_on_c, 0, 73, 64
3, 16318, Note_on_c, 0, 73, 0
3, 16320, Note_on_c, 0, 64, 64
3, 16350, Note_on_c, 0, 64, 0
3, 16352, Note_on_c, 0, 63, 64
3, 16382, Note_on_c, 0, 63, 0
3, 16384, Note_on_c, 0, 61, 64
3, 16414, Note_on_c, 0, 61, 0
3, 16416, Note_on_c, 0, 63, 64
3, 16446, Note_on_c, 0, 63, 0
3, 16448, Note_on_c, 0, 71, 64
3, 16478, Note_on_c, 0, 71, 0
3, 16480, Note_on_c, 0, 73, 64
3, 16510, Note_on_c, 0, 73, 0
3, 16512, Note_on_c, 0, 75, 64
3, 16542, Note_on_c, 0, 75, 0
3, 16544, Note_on_c, 0, 77, 64
3, 16574, Note_on_c, 0, 77, 0
3, 16576, Note_on_c, 0, 78, 64
3, 16606, Note_on_c, 0, 78, 0
3, 16608, Note_on_c, 0, 70, 64
3, 16638, Note_on_c, 0, 70, 0
3, 16640, Note_on_c, 0, 68, 64
3, 16670, Note_on_c, 0, 68, 0
3, 16672, Note_on_c, 0, 66, 64
3, 16702, Note_on_c, 0, 66, 0
3, 16704, Note_on_c, 0, 68, 64
3, 17022, Note_on_c, 0, 68, 0
3, 17024, Note_on_c, 0, 73, 64
3, 17054, Note_on_c, 0, 73, 0
3, 17056, Note_on_c, 0, 75, 64
3, 17086, Note_on_c, 0, 75, 0
3, 17088, Note_on_c, 0, 77, 64
3, 17118, Note_on_c, 0, 77, 0
3, 17120, Note_on_c, 0, 78, 64
3, 17150, Note_on_c, 0, 78, 0
3, 17152, Note_on_c, 0, 80, 64
3, 17182, Note_on_c, 0, 80, 0
3, 17184, Note_on_c, 0, 71, 64
3, 17214, Note_on_c, 0, 71, 0
3, 17216, Note_on_c, 0, 70, 64
3, 17246, Note_on_c, 0, 70, 0
3, 17248, Note_on_c, 0, 68, 64
3, 17278, Note_on_c, 0, 68, 0
3, 17280, Note_on_c, 0, 70, 64
3, 17598, Note_on_c, 0, 70, 0
3, 17600, Note_on_c, 0, 75, 64
3, 17630, Note_on_c, 0, 75, 0
3, 17632, Note_on_c, 0, 77, 64
3, 17662, Note_on_c, 0, 77, 0
3, 17664, Note_on_c, 0, 78, 64
3, 17694, Note_on_c, 0, 78, 0
3, 17696, Note_on_c, 0, 80, 64
3, 17726, Note_on_c, 0, 80, 0
3, 17728, Note_on_c, 0, 82, 64
3, 17758, Note_on_c, 0, 82, 0
3, 17760, Note_on_c, 0, 73, 64
3, 17790, Note_on_c, 0, 73, 0
3, 17792, Note_on_c, 0, 71, 64
3, 17822, Note_on_c, 0, 71, 0
3, 17824, Note_on_c, 0, 70, 64
3, 17854, Note_on_c, 0, 70, 0
3, 17856, Note_on_c, 0, 71, 64
3, 17886, Note_on_c, 0, 71, 0
3, 17888, Note_on_c, 0, 68, 64
3, 17918, Note_on_c, 0, 68, 0
3, 17920, Note_on_c, 0, 70, 64
3, 17950, Note_on_c, 0, 70, 0
3, 17952, Note_on_c, 0, 71, 64
3, 17982, Note_on_c, 0, 71, 0
3, 17984, Note_on_c, 0, 73, 64
3, 18014, Note_on_c, 0, 73, 0
3, 18016, Note_on_c, 0, 75, 64
3, 18046, Note_on_c, 0, 75, 0
3, 18048, Note_on_c, 0, 66, 64
3, 18078, Note_on_c, 0, 66, 0
3, 18080, Note_on_c, 0, 65, 64
3, 18110, Note_on_c, 0, 65, 0
3, 18112, Note_on_c, 0, 63, 64
3, 18142, Note_on_c, 0, 63, 0
3, 18144, Note_on_c, 0, 65, 64
3, 18174, Note_on_c, 0, 65, 0
3, 18176, Note_on_c, 0, 61, 64
3, 18206, Note_on_c, 0, 61, 0
3, 18208, Note_on_c, 0, 71, 64
3, 18238, Note_on_c, 0, 71, 0
3, 18240, Note_on_c, 0, 66, 64
3, 18270, Note_on_c, 0, 66, 0
3, 18272, Note_on_c, 0, 63, 64
3, 18302, Note_on_c, 0, 63, 0
3, 18304, Note_on_c, 0, 71, 64
3, 18334, Note_on_c, 0, 71, 0
3, 18336, Note_on_c, 0, 68, 64
3, 18366, Note_on_c, 0, 68, 0
3, 18368, Note_on_c, 0, 65, 64
3, 18398, Note_on_c, 0, 65, 0
3, 18400, Note_on_c, 0, 71, 64
3, 18430, Note_on_c, 0, 71, 0
3, 18432, Note_on_c, 0, 70, 64
3, 18462, Note_on_c, 0, 70, 0
3, 18464, Note_on_c, 0, 66, 64
3, 18494, Note_on_c, 0, 66, 0
3, 18496, Note_on_c, 0, 68, 64
3, 18526, Note_on_c, 0, 68, 0
3, 18528, Note_on_c, 0, 70, 64
3, 18558, Note_on_c, 0, 70, 0
3, 18560, Note_on_c, 0, 71, 64
3, 18590, Note_on_c, 0, 71, 0
3, 18592, Note_on_c, 0, 73, 64
3, 18622, Note_on_c, 0, 73, 0
3, 18624, Note_on_c, 0, 64, 64
3, 18654, Note_on_c, 0, 64, 0
3, 18656, Note_on_c, 0, 63, 64
3, 18686, Note_on_c, 0, 63, 0
3, 18688, Note_on_c, 0, 61, 64
3, 18718, Note_on_c, 0, 61, 0
3, 18720, Note_on_c, 0, 63, 64
3, 18765, Note_on_c, 0, 63, 0
3, 18768, Note_on_c, 0, 71, 64
3, 18813, Note_on_c, 0, 71, 0
3, 18816, Note_on_c, 0, 68, 64
3, 18828, Note_on_c, 0, 68, 0
3, 18828, Note_on_c, 0, 69, 64
3, 18840, Note_on_c, 0, 69, 0
3, 18840, Note_on_c, 0, 68, 64
3, 18852, Note_on_c, 0, 68, 0
3, 18852, Note_on_c, 0, 69, 64
3, 18864, Note_on_c, 0, 69, 0
3, 18864, Note_on_c, 0, 68, 64
3, 18876, Note_on_c, 0, 68, 0
3, 18876, Note_on_c, 0, 69, 64
3, 18888, Note_on_c, 0, 69, 0
3, 18888, Note_on_c, 0, 68, 64
3, 18900, Note_on_c, 0, 68, 0
3, 18900, Note_on_c, 0, 69, 64
3, 18912, Note_on_c, 0, 69, 0
3, 18912, Note_on_c, 0, 68, 64
3, 18924, Note_on_c, 0, 68, 0
3, 18924, Note_on_c, 0, 69, 64
3, 18936, Note_on_c, 0, 69, 0
3, 18936, Note_on_c, 0, 68, 64
3, 18948, Note_on_c, 0, 68, 0
3, 18948, Note_on_c, 0, 69, 64
3, 18960, Note_on_c, 0, 69, 0
3, 18960, Note_on_c, 0, 66, 64
3, 19005, Note_on_c, 0, 66, 0
3, 19008, Note_on_c, 0, 66, 64
3, 19097, Note_on_c, 0, 66, 0
3, 19296, Note_on_c, 0, 66, 64
3, 19326, Note_on_c, 0, 66, 0
3, 19328, Note_on_c, 0, 61, 64
3, 19358, Note_on_c, 0, 61, 0
3, 19360, Note_on_c, 0, 71, 64
3, 19390, Note_on_c, 0, 71, 0
3, 19392, Note_on_c, 0, 70, 64
3, 19422, Note_on_c, 0, 70, 0
3, 19424, Note_on_c, 0, 61, 64
3, 19454, Note_on_c, 0, 61, 0
3, 19456, Note_on_c, 0, 73, 64
3, 19486, Note_on_c, 0, 73, 0
3, 19488, Note_on_c, 0, 68, 64
3, 19518, Note_on_c, 0, 68, 0
3, 19520, Note_on_c, 0, 61, 64
3, 19550, Note_on_c, 0, 61, 0
3, 19552, Note_on_c, 0, 71, 64
3, 19582, Note_on_c, 0, 71, 0
3, 19584, Note_on_c, 0, 70, 64
3, 19673, Note_on_c, 0, 70, 0
3, 19872, Note_on_c, 0, 61, 64
3, 19902, Note_on_c, 0, 61, 0
3, 19904, Note_on_c, 0, 64, 64
3, 19934, Note_on_c, 0, 64, 0
3, 19936, Note_on_c, 0, 63, 64
3, 19966, Note_on_c, 0, 63, 0
3, 19968, Note_on_c, 0, 64, 64
3, 19998, Note_on_c, 0, 64, 0
3, 20000, Note_on_c, 0, 68, 64
3, 20030, Note_on_c, 0, 68, 0
3, 20032, Note_on_c, 0, 66, 64
3, 20062, Note_on_c, 0, 66, 0
3, 20064, Note_on_c, 0, 68, 64
3, 20094, Note_on_c, 0, 68, 0
3, 20096, Note_on_c, 0, 71, 64
3, 20126, Note_on_c, 0, 71, 0
3, 20128, Note_on_c, 0, 70, 64
3, 20158, Note_on_c, 0, 70, 0
3, 20160, Note_on_c, 0, 70, 64
3, 20183, Note_on_c, 0, 70, 0
3, 20184, Note_on_c, 0, 66, 64
3, 20207, Note_on_c, 0, 66, 0
3, 20208, Note_on_c, 0, 65, 64
3, 20231, Note_on_c, 0, 65, 0
3, 20232, Note_on_c, 0, 66, 64
3, 20255, Note_on_c, 0, 66, 0
3, 20256, Note_on_c, 0, 68, 64
3, 20279, Note_on_c, 0, 68, 0
3, 20280, Note_on_c, 0, 66, 64
3, 20303, Note_on_c, 0, 66, 0
3, 20304, Note_on_c, 0, 65, 64
3, 20327, Note_on_c, 0, 65, 0
3, 20328, Note_on_c, 0, 66, 64
3, 20351, Note_on_c, 0, 66, 0
3, 20352, Note_on_c, 0, 70, 64
3, 20375, Note_on_c, 0, 70, 0
3, 20376, Note_on_c, 0, 66, 64
3, 20399, Note_on_c, 0, 66, 0
3, 20400, Note_on_c, 0, 65, 64
3, 20423, Note_on_c, 0, 65, 0
3, 20424, Note_on_c, 0, 66, 64
3, 20447, Note_on_c, 0, 66, 0
3, 20448, Note_on_c, 0, 71, 64
3, 20471, Note_on_c, 0, 71, 0
3, 20472, Note_on_c, 0, 66, 64
3, 20495, Note_on_c, 0, 66, 0
3, 20496, Note_on_c, 0, 65, 64
3, 20519, Note_on_c, 0, 65, 0
3, 20520, Note_on_c, 0, 66, 64
3, 20543, Note_on_c, 0, 66, 0
3, 20544, Note_on_c, 0, 70, 64
3, 20567, Note_on_c, 0, 70, 0
3, 20568, Note_on_c, 0, 66, 64
3, 20591, Note_on_c, 0, 66, 0
3, 20592, Note_on_c, 0, 65, 64
3, 20615, Note_on_c, 0, 65, 0
3, 20616, Note_on_c, 0, 66, 64
3, 20639, Note_on_c, 0, 66, 0
3, 20640, Note_on_c, 0, 71, 64
3, 20663, Note_on_c, 0, 71, 0
3, 20664, Note_on_c, 0, 66, 64
3, 20687, Note_on_c, 0, 66, 0
3, 20688, Note_on_c, 0, 65, 64
3, 20711, Note_on_c, 0, 65, 0
3, 20712, Note_on_c, 0, 66, 64
3, 20735, Note_on_c, 0, 66, 0
3, 20736, Note_on_c, 0, 73, 64
3, 20759, Note_on_c, 0, 73, 0
3, 20760, Note_on_c, 0, 66, 64
3, 20783, Note_on_c, 0, 66, 0
3, 20784, Note_on_c, 0, 65, 64
3, 20807, Note_on_c, 0, 65, 0
3, 20808, Note_on_c, 0, 66, 64
3, 20831, Note_on_c, 0, 66, 0
3, 20832, Note_on_c, 0, 71, 64
3, 20855, Note_on_c, 0, 71, 0
3, 20856, Note_on_c, 0, 66, 64
3, 20879, Note_on_c, 0, 66, 0
3, 20880, Note_on_c, 0, 65, 64
3, 20903, Note_on_c, 0, 65, 0
3, 20904, Note_on_c, 0, 66, 64
3, 20927, Note_on_c, 0, 66, 0
3, 20928, Note_on_c, 0, 73, 64
3, 20951, Note_on_c, 0, 73, 0
3, 20952, Note_on_c, 0, 66, 64
3, 20975, Note_on_c, 0, 66, 0
3, 20976, Note_on_c, 0, 65, 64
3, 20999, Note_on_c, 0, 65, 0
3, 21000, Note_on_c, 0, 66, 64
3, 21023, Note_on_c, 0, 66, 0
3, 21024, Note_on_c, 0, 71, 64
3, 21054, Note_on_c, 0, 71, 0
3, 21056, Note_on_c, 0, 66, 64
3, 21086, Note_on_c, 0, 66, 0
3, 21088, Note_on_c, 0, 76, 64
3, 21118, Note_on_c, 0, 76, 0
3, 21120, Note_on_c, 0, 75, 64
3, 21150, Note_on_c, 0, 75, 0
3, 21152, Note_on_c, 0, 66, 64
3, 21182, Note_on_c, 0, 66, 0
3, 21184, Note_on_c, 0, 78, 64
3, 21214, Note_on_c, 0, 78, 0
3, 21216, Note_on_c, 0, 73, 64
3, 21246, Note_on_c, 0, 73, 0
3, 21248, Note_on_c, 0, 66, 64
3, 21278, Note_on_c, 0, 66, 0
3, 21280, Note_on_c, 0, 76, 64
3, 21310, Note_on_c, 0, 76, 0
3, 21312, Note_on_c, 0, 75, 64
3, 21401, Note_on_c, 0, 75, 0
3, 21600, Note_on_c, 0, 71, 64
3, 21630, Note_on_c, 0, 71, 0
3, 21632, Note_on_c, 0, 75, 64
3, 21662, Note_on_c, 0, 75, 0
3, 21664, Note_on_c, 0, 73, 64
3, 21694, Note_on_c, 0, 73, 0
3, 21696, Note_on_c, 0, 75, 64
3, 21726, Note_on_c, 0, 75, 0
3, 21728, Note_on_c, 0, 78, 64
3, 21758, Note_on_c, 0, 78, 0
3, 21760, Note_on_c, 0, 76, 64
3, 21790, Note_on_c, 0, 76, 0
3, 21792, Note_on_c, 0, 78, 64
3, 21822, Note_on_c, 0, 78, 0
3, 21824, Note_on_c, 0, 81, 64
3, 21854, Note_on_c, 0, 81, 0
3, 21856, Note_on_c, 0, 80, 64
3, 21886, Note_on_c, 0, 80, 0
3, 21888, Note_on_c, 0, 81, 64
3, 22221, Note_on_c, 0, 81, 0
3, 22224, Note_on_c, 0, 71, 64
3, 22269, Note_on_c, 0, 71, 0
3, 22272, Note_on_c, 0, 75, 64
3, 22317, Note_on_c, 0, 75, 0
3, 22320, Note_on_c, 0, 78, 64
3, 22365, Note_on_c, 0, 78, 0
3, 22368, Note_on_c, 0, 83, 64
3, 22509, Note_on_c, 0, 83, 0
3, 22512, Note_on_c, 0, 80, 64
3, 22557, Note_on_c, 0, 80, 0
3, 22560, Note_on_c, 0, 78, 64
3, 22605, Note_on_c, 0, 78, 0
3, 22608, Note_on_c, 0, 76, 64
3, 22653, Note_on_c, 0, 76, 0
3, 22656, Note_on_c, 0, 83, 64
3, 22797, Note_on_c, 0, 83, 0
3, 22800, Note_on_c, 0, 75, 64
3, 22845, Note_on_c, 0, 75, 0
3, 22848, Note_on_c, 0, 73, 64
3, 22893, Note_on_c, 0, 73, 0
3, 22896, Note_on_c, 0, 71, 64
3, 22941, Note_on_c, 0, 71, 0
3, 22944, Note_on_c, 0, 81, 64
3, 23033, Note_on_c, 0, 81, 0
3, 23040, Note_on_c, 0, 80, 64
3, 23129, Note_on_c, 0, 80, 0
3, 23136, Note_on_c, 0, 78, 64
3, 23148, Note_on_c, 0, 78, 0
3, 23148, Note_on_c, 0, 80, 64
3, 23160, Note_on_c, 0, 80, 0
3, 23160, Note_on_c, 0, 78, 64
3, 23172, Note_on_c, 0, 78, 0
3, 23172, Note_on_c, 0, 80, 64
3, 23184, Note_on_c, 0, 80, 0
3, 23184, Note_on_c, 0, 78, 64
3, 23196, Note_on_c, 0, 78, 0
3, 23196, Note_on_c, 0, 80, 64
3, 23208, Note_on_c, 0, 80, 0
3, 23208, Note_on_c, 0, 78, 64
3, 23220, Note_on_c, 0, 78, 0
3, 23220, Note_on_c, 0, 80, 64
3, 23232, Note_on_c, 0, 80, 0
3, 23232, Note_on_c, 0, 78, 64
3, 23255, Note_on_c, 0, 78, 0
3, 23256, Note_on_c, 0, 76, 64
3, 23279, Note_on_c, 0, 76, 0
3, 23280, Note_on_c, 0, 78, 64
3, 23303, Note_on_c, 0, 78, 0
3, 23304, Note_on_c, 0, 75, 64
3, 23327, Note_on_c, 0, 75, 0
3, 23328, Note_on_c, 0, 76, 64
3, 23351, Note_on_c, 0, 76, 0
3, 23352, Note_on_c, 0, 75, 64
3, 23375, Note_on_c, 0, 75, 0
3, 23376, Note_on_c, 0, 76, 64
3, 23399, Note_on_c, 0, 76, 0
3, 23400, Note_on_c, 0, 73, 64
3, 23423, Note_on_c, 0, 73, 0
3, 23424, Note_on_c, 0, 75, 64
3, 23447, Note_on_c, 0, 75, 0
3, 23448, Note_on_c, 0, 73, 64
3, 23471, Note_on_c, 0, 73, 0
3, 23472, Note_on_c, 0, 75, 64
3, 23495, Note_on_c, 0, 75, 0
3, 23496, Note_on_c, 0, 72, 64
3, 23519, Note_on_c, 0, 72, 0
3, 23520, Note_on_c, 0, 73, 64
3, 23661, Note_on_c, 0, 73, 0
3, 23664, Note_on_c, 0, 76, 64
3, 23709, Note_on_c, 0, 76, 0
3, 23712, Note_on_c, 0, 75, 64
3, 23757, Note_on_c, 0, 75, 0
3, 23760, Note_on_c, 0, 73, 64
3, 23805, Note_on_c, 0, 73, 0
3, 23808, Note_on_c, 0, 72, 64
3, 23927, Note_on_c, 0, 72, 0
3, 23928, Note_on_c, 0, 73, 64
3, 23951, Note_on_c, 0, 73, 0
3, 23952, Note_on_c, 0, 72, 64
3, 23975, Note_on_c, 0, 72, 0
3, 23976, Note_on_c, 0, 73, 64
3, 23999, Note_on_c, 0, 73, 0
3, 24000, Note_on_c, 0, 74, 64
3, 24023, Note_on_c, 0, 74, 0
3, 24024, Note_on_c, 0, 73, 64
3, 24047, Note_on_c, 0, 73, 0
3, 24048, Note_on_c, 0, 72, 64
3, 24071, Note_on_c, 0, 72, 0
3, 24072, Note_on_c, 0, 73, 64
3, 24095, Note_on_c, 0, 73, 0
3, 24096, Note_on_c, 0, 77, 64
3, 24119, Note_on_c, 0, 77, 0
3, 24120, Note_on_c, 0, 73, 64
3, 24143, Note_on_c, 0, 73, 0
3, 24144, Note_on_c, 0, 72, 64
3, 24167, Note_on_c, 0, 72, 0
3, 24168, Note_on_c, 0, 73, 64
3, 24191, Note_on_c, 0, 73, 0
3, 24192, Note_on_c, 0, 78, 64
3, 24215, Note_on_c, 0, 78, 0
3, 24216, Note_on_c, 0, 73, 64
3, 24239, Note_on_c, 0, 73, 0
3, 24240, Note_on_c, 0, 72, 64
3, 24263, Note_on_c, 0, 72, 0
3, 24264, Note_on_c, 0, 73, 64
3, 24287, Note_on_c, 0, 73, 0
3, 24288, Note_on_c, 0, 77, 64
3, 24311, Note_on_c, 0, 77, 0
3, 24312, Note_on_c, 0, 73, 64
3, 24335, Note_on_c, 0, 73, 0
3, 24336, Note_on_c, 0, 72, 64
3, 24359, Note_on_c, 0, 72, 0
3, 24360, Note_on_c, 0, 73, 64
3, 24383, Note_on_c, 0, 73, 0
3, 24384, Note_on_c, 0, 78, 64
3, 24407, Note_on_c, 0, 78, 0
3, 24408, Note_on_c, 0, 73, 64
3, 24431, Note_on_c, 0, 73, 0
3, 24432, Note_on_c, 0, 72, 64
3, 24455, Note_on_c, 0, 72, 0
3, 24456, Note_on_c, 0, 73, 64
3, 24479, Note_on_c, 0, 73, 0
3, 24480, Note_on_c, 0, 80, 64
3, 24503, Note_on_c, 0, 80, 0
3, 24504, Note_on_c, 0, 73, 64
3, 24527, Note_on_c, 0, 73, 0
3, 24528, Note_on_c, 0, 72, 64
3, 24551, Note_on_c, 0, 72, 0
3, 24552, Note_on_c, 0, 73, 64
3, 24575, Note_on_c, 0, 73, 0
3, 24576, Note_on_c, 0, 78, 64
3, 24599, Note_on_c, 0, 78, 0
3, 24600, Note_on_c, 0, 73, 64
3, 24623, Note_on_c, 0, 73, 0
3, 24624, Note_on_c, 0, 72, 64
3, 24647, Note_on_c, 0, 72, 0
3, 24648, Note_on_c, 0, 73, 64
3, 24671, Note_on_c, 0, 73, 0
3, 24672, Note_on_c, 0, 80, 64
3, 24695, Note_on_c, 0, 80, 0
3, 24696, Note_on_c, 0, 73, 64
3, 24719, Note_on_c, 0, 73, 0
3, 24720, Note_on_c, 0, 72, 64
3, 24743, Note_on_c, 0, 72, 0
3, 24744, Note_on_c, 0, 73, 64
3, 24767, Note_on_c, 0, 73, 0
3, 24768, Note_on_c, 0, 81, 64
3, 24791, Note_on_c, 0, 81, 0
3, 24792, Note_on_c, 0, 78, 64
3, 24815, Note_on_c, 0, 78, 0
3, 24816, Note_on_c, 0, 73, 64
3, 24839, Note_on_c, 0, 73, 0
3, 24840, Note_on_c, 0, 78, 64
3, 24863, Note_on_c, 0, 78, 0
3, 24864, Note_on_c, 0, 81, 64
3, 24887, Note_on_c, 0, 81, 0
3, 24888, Note_on_c, 0, 78, 64
3, 24911, Note_on_c, 0, 78, 0
3, 24912, Note_on_c, 0, 73, 64
3, 24935, Note_on_c, 0, 73, 0
3, 24936, Note_on_c, 0, 78, 64
3, 24959, Note_on_c, 0, 78, 0
3, 24960, Note_on_c, 0, 69, 64
3, 24983, Note_on_c, 0, 69, 0
3, 24984, Note_on_c, 0, 73, 64
3, 25007, Note_on_c, 0, 73, 0
3, 25008, Note_on_c, 0, 68, 64
3, 25031, Note_on_c, 0, 68, 0
3, 25032, Note_on_c, 0, 71, 64
3, 25055, Note_on_c, 0, 71, 0
3, 25056, Note_on_c, 0, 69, 64
3, 25079, Note_on_c, 0, 69, 0
3, 25080, Note_on_c, 0, 74, 64
3, 25103, Note_on_c, 0, 74, 0
3, 25104, Note_on_c, 0, 69, 64
3, 25127, Note_on_c, 0, 69, 0
3, 25128, Note_on_c, 0, 76, 64
3, 25151, Note_on_c, 0, 76, 0
3, 25152, Note_on_c, 0, 80, 64
3, 25175, Note_on_c, 0, 80, 0
3, 25176, Note_on_c, 0, 76, 64
3, 25199, Note_on_c, 0, 76, 0
3, 25200, Note_on_c, 0, 71, 64
3, 25223, Note_on_c, 0, 71, 0
3, 25224, Note_on_c, 0, 76, 64
3, 25247, Note_on_c, 0, 76, 0
3, 25248, Note_on_c, 0, 66, 64
3, 25271, Note_on_c, 0, 66, 0
3, 25272, Note_on_c, 0, 69, 64
3, 25295, Note_on_c, 0, 69, 0
3, 25296, Note_on_c, 0, 64, 64
3, 25319, Note_on_c, 0, 64, 0
3, 25320, Note_on_c, 0, 67, 64
3, 25343, Note_on_c, 0, 67, 0
3, 25344, Note_on_c, 0, 66, 64
3, 25367, Note_on_c, 0, 66, 0
3, 25368, Note_on_c, 0, 69, 64
3, 25391, Note_on_c, 0, 69, 0
3, 25392, Note_on_c, 0, 66, 64
3, 25415, Note_on_c, 0, 66, 0
3, 25416, Note_on_c, 0, 69, 64
3, 25439, Note_on_c, 0, 69, 0
3, 25440, Note_on_c, 0, 74, 64
3, 25463, Note_on_c, 0, 74, 0
3, 25464, Note_on_c, 0, 69, 64
3, 25487, Note_on_c, 0, 69, 0
3, 25488, Note_on_c, 0, 66, 64
3, 25511, Note_on_c, 0, 66, 0
3, 25512, Note_on_c, 0, 69, 64
3, 25535, Note_on_c, 0, 69, 0
3, 25536, Note_on_c, 0, 62, 64
3, 25559, Note_on_c, 0, 62, 0
3, 25560, Note_on_c, 0, 66, 64
3, 25583, Note_on_c, 0, 66, 0
3, 25584, Note_on_c, 0, 61, 64
3, 25607, Note_on_c, 0, 61, 0
3, 25608, Note_on_c, 0, 66, 64
3, 25631, Note_on_c, 0, 66, 0
3, 25632, Note_on_c, 0, 60, 64
3, 25655, Note_on_c, 0, 60, 0
3, 25656, Note_on_c, 0, 63, 64
3, 25679, Note_on_c, 0, 63, 0
3, 25680, Note_on_c, 0, 60, 64
3, 25703, Note_on_c, 0, 60, 0
3, 25704, Note_on_c, 0, 63, 64
3, 25727, Note_on_c, 0, 63, 0
3, 25728, Note_on_c, 0, 66, 64
3, 25751, Note_on_c, 0, 66, 0
3, 25752, Note_on_c, 0, 63, 64
3, 25775, Note_on_c, 0, 63, 0
3, 25776, Note_on_c, 0, 60, 64
3, 25799, Note_on_c, 0, 60, 0
3, 25800, Note_on_c, 0, 63, 64
3, 25823, Note_on_c, 0, 63, 0
3, 25824, Note_on_c, 0, 56, 64
3, 25869, Note_on_c, 0, 56, 0
3, 25872, Note_on_c, 0, 72, 64
3, 25917, Note_on_c, 0, 72, 0
3, 25920, Note_on_c, 0, 80, 64
3, 25943, Note_on_c, 0, 80, 0
3, 25944, Note_on_c, 0, 75, 64
3, 25967, Note_on_c, 0, 75, 0
3, 25968, Note_on_c, 0, 76, 64
3, 25991, Note_on_c, 0, 76, 0
3, 25992, Note_on_c, 0, 73, 64
3, 26015, Note_on_c, 0, 73, 0
3, 26016, Note_on_c, 0, 72, 64
3, 26149, Note_on_c, 0, 72, 0
3, 26160, Note_on_c, 0, 73, 64
3, 26205, Note_on_c, 0, 73, 0
3, 26208, Note_on_c, 0, 73, 64
3, 26231, Note_on_c, 0, 73, 0
3, 26232, Note_on_c, 0, 80, 64
3, 26255, Note_on_c, 0, 80, 0
3, 26256, Note_on_c, 0, 81, 64
3, 26279, Note_on_c, 0, 81, 0
3, 26280, Note_on_c, 0, 80, 64
3, 26303, Note_on_c, 0, 80, 0
3, 26304, Note_on_c, 0, 76, 64
3, 26327, Note_on_c, 0, 76, 0
3, 26328, Note_on_c, 0, 80, 64
3, 26351, Note_on_c, 0, 80, 0
3, 26352, Note_on_c, 0, 81, 64
3, 26375, Note_on_c, 0, 81, 0
3, 26376, Note_on_c, 0, 80, 64
3, 26399, Note_on_c, 0, 80, 0
3, 26400, Note_on_c, 0, 75, 64
3, 26423, Note_on_c, 0, 75, 0
3, 26424, Note_on_c, 0, 80, 64
3, 26447, Note_on_c, 0, 80, 0
3, 26448, Note_on_c, 0, 81, 64
3, 26471, Note_on_c, 0, 81, 0
3, 26472, Note_on_c, 0, 80, 64
3, 26495, Note_on_c, 0, 80, 0
3, 26496, Note_on_c, 0, 73, 64
3, 26519, Note_on_c, 0, 73, 0
3, 26520, Note_on_c, 0, 78, 64
3, 26543, Note_on_c, 0, 78, 0
3, 26544, Note_on_c, 0, 80, 64
3, 26567, Note_on_c, 0, 80, 0
3, 26568, Note_on_c, 0, 78, 64
3, 26591, Note_on_c, 0, 78, 0
3, 26592, Note_on_c, 0, 75, 64
3, 26615, Note_on_c, 0, 75, 0
3, 26616, Note_on_c, 0, 78, 64
3, 26639, Note_on_c, 0, 78, 0
3, 26640, Note_on_c, 0, 80, 64
3, 26663, Note_on_c, 0, 80, 0
3, 26664, Note_on_c, 0, 78, 64
3, 26687, Note_on_c, 0, 78, 0
3, 26688, Note_on_c, 0, 73, 64
3, 26711, Note_on_c, 0, 73, 0
3, 26712, Note_on_c, 0, 78, 64
3, 26735, Note_on_c, 0, 78, 0
3, 26736, Note_on_c, 0, 80, 64
3, 26759, Note_on_c, 0, 80, 0
3, 26760, Note_on_c, 0, 78, 64
3, 26783, Note_on_c, 0, 78, 0
3, 26784, Note_on_c, 0, 71, 64
3, 26807, Note_on_c, 0, 71, 0
3, 26808, Note_on_c, 0, 76, 64
3, 26831, Note_on_c, 0, 76, 0
3, 26832, Note_on_c, 0, 78, 64
3, 26855, Note_on_c, 0, 78, 0
3, 26856, Note_on_c, 0, 76, 64
3, 26879, Note_on_c, 0, 76, 0
3, 26880, Note_on_c, 0, 73, 64
3, 26903, Note_on_c, 0, 73, 0
3, 26904, Note_on_c, 0, 76, 64
3, 26927, Note_on_c, 0, 76, 0
3, 26928, Note_on_c, 0, 78, 64
3, 26951, Note_on_c, 0, 78, 0
3, 26952, Note_on_c, 0, 76, 64
3, 26975, Note_on_c, 0, 76, 0
3, 26976, Note_on_c, 0, 71, 64
3, 26999, Note_on_c, 0, 71, 0
3, 27000, Note_on_c, 0, 76, 64
3, 27023, Note_on_c, 0, 76, 0
3, 27024, Note_on_c, 0, 78, 64
3, 27047, Note_on_c, 0, 78, 0
3, 27048, Note_on_c, 0, 76, 64
3, 27071, Note_on_c, 0, 76, 0
3, 27072, Note_on_c, 0, 70, 64
3, 27095, Note_on_c, 0, 70, 0
3, 27096, Note_on_c, 0, 70, 64
3, 27119, Note_on_c, 0, 70, 0
3, 27120, Note_on_c, 0, 68, 64
3, 27143, Note_on_c, 0, 68, 0
3, 27144, Note_on_c, 0, 70, 64
3, 27167, Note_on_c, 0, 70, 0
3, 27168, Note_on_c, 0, 71, 64
3, 27191, Note_on_c, 0, 71, 0
3, 27192, Note_on_c, 0, 70, 64
3, 27215, Note_on_c, 0, 70, 0
3, 27216, Note_on_c, 0, 68, 64
3, 27239, Note_on_c, 0, 68, 0
3, 27240, Note_on_c, 0, 70, 64
3, 27263, Note_on_c, 0, 70, 0
3, 27264, Note_on_c, 0, 73, 64
3, 27287, Note_on_c, 0, 73, 0
3, 27288, Note_on_c, 0, 70, 64
3, 27311, Note_on_c, 0, 70, 0
3, 27312, Note_on_c, 0, 68, 64
3, 27335, Note_on_c, 0, 68, 0
3, 27336, Note_on_c, 0, 70, 64
3, 27359, Note_on_c, 0, 70, 0
3, 27360, Note_on_c, 0, 66, 64
3, 27405, Note_on_c, 0, 66, 0
3, 27408, Note_on_c, 0, 75, 64
3, 27453, Note_on_c, 0, 75, 0
3, 28032, Note_on_c, 0, 74, 64
3, 28209, Note_on_c, 0, 74, 0
3, 28224, Note_on_c, 0, 74, 64
3, 28236, Note_on_c, 0, 74, 0
3, 28236, Note_on_c, 0, 76, 64
3, 28248, Note_on_c, 0, 76, 0
3, 28248, Note_on_c, 0, 74, 64
3, 28260, Note_on_c, 0, 74, 0
3, 28260, Note_on_c, 0, 76, 64
3, 28272, Note_on_c, 0, 76, 0
3, 28272, Note_on_c, 0, 74, 64
3, 28284, Note_on_c, 0, 74, 0
3, 28284, Note_on_c, 0, 76, 64
3, 28296, Note_on_c, 0, 76, 0
3, 28296, Note_on_c, 0, 74, 64
3, 28308, Note_on_c, 0, 74, 0
3, 28308, Note_on_c, 0, 76, 64
3, 28320, Note_on_c, 0, 76, 0
3, 28320, Note_on_c, 0, 74, 64
3, 28332, Note_on_c, 0, 74, 0
3, 28332, Note_on_c, 0, 76, 64
3, 28344, Note_on_c, 0, 76, 0
3, 28344, Note_on_c, 0, 74, 64
3, 28356, Note_on_c, 0, 74, 0
3, 28356, Note_on_c, 0, 76, 64
3, 28368, Note_on_c, 0, 76, 0
3, 28368, Note_on_c, 0, 74, 64
3, 28380, Note_on_c, 0, 74, 0
3, 28380, Note_on_c, 0, 76, 64
3, 28392, Note_on_c, 0, 76, 0
3, 28392, Note_on_c, 0, 74, 64
3, 28404, Note_on_c, 0, 74, 0
3, 28404, Note_on_c, 0, 76, 64
3, 28416, Note_on_c, 0, 76, 0
3, 28416, Note_on_c, 0, 74, 64
3, 28428, Note_on_c, 0, 74, 0
3, 28428, Note_on_c, 0, 76, 64
3, 28440, Note_on_c, 0, 76, 0
3, 28440, Note_on_c, 0, 74, 64
3, 28452, Note_on_c, 0, 74, 0
3, 28452, Note_on_c, 0, 76, 64
3, 28464, Note_on_c, 0, 76, 0
3, 28464, Note_on_c, 0, 74, 64
3, 28476, Note_on_c, 0, 74, 0
3, 28476, Note_on_c, 0, 76, 64
3, 28488, Note_on_c, 0, 76, 0
3, 28488, Note_on_c, 0, 74, 64
3, 28500, Note_on_c, 0, 74, 0
3, 28500, Note_on_c, 0, 76, 64
3, 28512, Note_on_c, 0, 76, 0
3, 28512, Note_on_c, 0, 73, 64
3, 28524, Note_on_c, 0, 73, 0
3, 28524, Note_on_c, 0, 75, 64
3, 28536, Note_on_c, 0, 75, 0
3, 28536, Note_on_c, 0, 73, 64
3, 28548, Note_on_c, 0, 73, 0
3, 28548, Note_on_c, 0, 75, 64
3, 28560, Note_on_c, 0, 75, 0
3, 28560, Note_on_c, 0, 73, 64
3, 28572, Note_on_c, 0, 73, 0
3, 28572, Note_on_c, 0, 75, 64
3, 28584, Note_on_c, 0, 75, 0
3, 28584, Note_on_c, 0, 73, 64
3, 28596, Note_on_c, 0, 73, 0
3, 28596, Note_on_c, 0, 75, 64
3, 28608, Note_on_c, 0, 75, 0
3, 28608, Note_on_c, 0, 73, 64
3, 28620, Note_on_c, 0, 73, 0
3, 28620, Note_on_c, 0, 75, 64
3, 28632, Note_on_c, 0, 75, 0
3, 28632, Note_on_c, 0, 73, 64
3, 28644, Note_on_c, 0, 73, 0
3, 28644, Note_on_c, 0, 75, 64
3, 28656, Note_on_c, 0, 75, 0
3, 28656, Note_on_c, 0, 73, 64
3, 28668, Note_on_c, 0, 73, 0
3, 28668, Note_on_c, 0, 75, 64
3, 28680, Note_on_c, 0, 75, 0
3, 28680, Note_on_c, 0, 73, 64
3, 28692, Note_on_c, 0, 73, 0
3, 28692, Note_on_c, 0, 75, 64
3, 28704, Note_on_c, 0, 75, 0
3, 28704, Note_on_c, 0, 73, 64
3, 28716, Note_on_c, 0, 73, 0
3, 28716, Note_on_c, 0, 75, 64
3, 28728, Note_on_c, 0, 75, 0
3, 28728, Note_on_c, 0, 73, 64
3, 28740, Note_on_c, 0, 73, 0
3, 28740, Note_on_c, 0, 75, 64
3, 28752, Note_on_c, 0, 75, 0
3, 28752, Note_on_c, 0, 73, 64
3, 28764, Note_on_c, 0, 73, 0
3, 28764, Note_on_c, 0, 75, 64
3, 28776, Note_on_c, 0, 75, 0
3, 28776, Note_on_c, 0, 73, 64
3, 28788, Note_on_c, 0, 73, 0
3, 28788, Note_on_c, 0, 75, 64
3, 28800, Note_on_c, 0, 75, 0
3, 28800, Note_on_c, 0, 71, 64
3, 28812, Note_on_c, 0, 71, 0
3, 28812, Note_on_c, 0, 73, 64
3, 28824, Note_on_c, 0, 73, 0
3, 28824, Note_on_c, 0, 71, 64
3, 28836, Note_on_c, 0, 71, 0
3, 28836, Note_on_c, 0, 73, 64
3, 28848, Note_on_c, 0, 73, 0
3, 28848, Note_on_c, 0, 71, 64
3, 28860, Note_on_c, 0, 71, 0
3, 28860, Note_on_c, 0, 73, 64
3, 28872, Note_on_c, 0, 73, 0
3, 28872, Note_on_c, 0, 71, 64
3, 28884, Note_on_c, 0, 71, 0
3, 28884, Note_on_c, 0, 73, 64
3, 28896, Note_on_c, 0, 73, 0
3, 28896, Note_on_c, 0, 71, 64
3, 28908, Note_on_c, 0, 71, 0
3, 28908, Note_on_c, 0, 73, 64
3, 28920, Note_on_c, 0, 73, 0
3, 28920, Note_on_c, 0, 71, 64
3, 28932, Note_on_c, 0, 71, 0
3, 28932, Note_on_c, 0, 73, 64
3, 28944, Note_on_c, 0, 73, 0
3, 28944, Note_on_c, 0, 71, 64
3, 28956, Note_on_c, 0, 71, 0
3, 28956, Note_on_c, 0, 73, 64
3, 28968, Note_on_c, 0, 73, 0
3, 28968, Note_on_c, 0, 71, 64
3, 28980, Note_on_c, 0, 71, 0
3, 28980, Note_on_c, 0, 73, 64
3, 28992, Note_on_c, 0, 73, 0
3, 28992, Note_on_c, 0, 71, 64
3, 29004, Note_on_c, 0, 71, 0
3, 29004, Note_on_c, 0, 73, 64
3, 29016, Note_on_c, 0, 73, 0
3, 29016, Note_on_c, 0, 71, 64
3, 29028, Note_on_c, 0, 71, 0
3, 29028, Note_on_c, 0, 73, 64
3, 29040, Note_on_c, 0, 73, 0
3, 29040, Note_on_c, 0, 71, 64
3, 29052, Note_on_c, 0, 71, 0
3, 29052, Note_on_c, 0, 73, 64
3, 29064, Note_on_c, 0, 73, 0
3, 29064, Note_on_c, 0, 71, 64
3, 29076, Note_on_c, 0, 71, 0
3, 29076, Note_on_c, 0, 73, 64
3, 29088, Note_on_c, 0, 73, 0
3, 29088, Note_on_c, 0, 69, 64
3, 29100, Note_on_c, 0, 69, 0
3, 29100, Note_on_c, 0, 71, 64
3, 29112, Note_on_c, 0, 71, 0
3, 29112, Note_on_c, 0, 69, 64
3, 29124, Note_on_c, 0, 69, 0
3, 29124, Note_on_c, 0, 71, 64
3, 29136, Note_on_c, 0, 71, 0
3, 29136, Note_on_c, 0, 69, 64
3, 29148, Note_on_c, 0, 69, 0
3, 29148, Note_on_c, 0, 71, 64
3, 29160, Note_on_c, 0, 71, 0
3, 29160, Note_on_c, 0, 69, 64
3, 29172, Note_on_c, 0, 69, 0
3, 29172, Note_on_c, 0, 71, 64
3, 29184, Note_on_c, 0, 71, 0
3, 29184, Note_on_c, 0, 69, 64
3, 29196, Note_on_c, 0, 69, 0
3, 29196, Note_on_c, 0, 71, 64
3, 29208, Note_on_c, 0, 71, 0
3, 29208, Note_on_c, 0, 69, 64
3, 29220, Note_on_c, 0, 69, 0
3, 29220, Note_on_c, 0, 71, 64
3, 29232, Note_on_c, 0, 71, 0
3, 29232, Note_on_c, 0, 69, 64
3, 29244, Note_on_c, 0, 69, 0
3, 29244, Note_on_c, 0, 71, 64
3, 29256, Note_on_c, 0, 71, 0
3, 29256, Note_on_c, 0, 69, 64
3, 29268, Note_on_c, 0, 69, 0
3, 29268, Note_on_c, 0, 71, 64
3, 29280, Note_on_c, 0, 71, 0
3, 29280, Note_on_c, 0, 69, 64
3, 29292, Note_on_c, 0, 69, 0
3, 29292, Note_on_c, 0, 71, 64
3, 29304, Note_on_c, 0, 71, 0
3, 29304, Note_on_c, 0, 69, 64
3, 29316, Note_on_c, 0, 69, 0
3, 29316, Note_on_c, 0, 71, 64
3, 29328, Note_on_c, 0, 71, 0
3, 29328, Note_on_c, 0, 69, 64
3, 29340, Note_on_c, 0, 69, 0
3, 29340, Note_on_c, 0, 71, 64
3, 29352, Note_on_c, 0, 71, 0
3, 29352, Note_on_c, 0, 69, 64
3, 29364, Note_on_c, 0, 69, 0
3, 29364, Note_on_c, 0, 71, 64
3, 29376, Note_on_c, 0, 71, 0
3, 29376, Note_on_c, 0, 68, 64
3, 29399, Note_on_c, 0, 68, 0
3, 29400, Note_on_c, 0, 64, 64
3, 29423, Note_on_c, 0, 64, 0
3, 29424, Note_on_c, 0, 63, 64
3, 29447, Note_on_c, 0, 63, 0
3, 29448, Note_on_c, 0, 64, 64
3, 29471, Note_on_c, 0, 64, 0
3, 29472, Note_on_c, 0, 66, 64
3, 29495, Note_on_c, 0, 66, 0
3, 29496, Note_on_c, 0, 64, 64
3, 29519, Note_on_c, 0, 64, 0
3, 29520, Note_on_c, 0, 63, 64
3, 29543, Note_on_c, 0, 63, 0
3, 29544, Note_on_c, 0, 64, 64
3, 29567, Note_on_c, 0, 64, 0
3, 29568, Note_on_c, 0, 68, 64
3, 29591, Note_on_c, 0, 68, 0
3, 29592, Note_on_c, 0, 64, 64
3, 29615, Note_on_c, 0, 64, 0
3, 29616, Note_on_c, 0, 63, 64
3, 29639, Note_on_c, 0, 63, 0
3, 29640, Note_on_c, 0, 64, 64
3, 29663, Note_on_c, 0, 64, 0
3, 29664, Note_on_c, 0, 69, 64
3, 29687, Note_on_c, 0, 69, 0
3, 29688, Note_on_c, 0, 64, 64
3, 29711, Note_on_c, 0, 64, 0
3, 29712, Note_on_c, 0, 63, 64
3, 29735, Note_on_c, 0, 63, 0
3, 29736, Note_on_c, 0, 64, 64
3, 29759, Note_on_c, 0, 64, 0
3, 29760, Note_on_c, 0, 68, 64
3, 29783, Note_on_c, 0, 68, 0
3, 29784, Note_on_c, 0, 64, 64
3, 29807, Note_on_c, 0, 64, 0
3, 29808, Note_on_c, 0, 63, 64
3, 29831, Note_on_c, 0, 63, 0
3, 29832, Note_on_c, 0, 64, 64
3, 29855, Note_on_c, 0, 64, 0
3, 29856, Note_on_c, 0, 69, 64
3, 29879, Note_on_c, 0, 69, 0
3, 29880, Note_on_c, 0, 64, 64
3, 29903, Note_on_c, 0, 64, 0
3, 29904, Note_on_c, 0, 63, 64
3, 29927, Note_on_c, 0, 63, 0
3, 29928, Note_on_c, 0, 64, 64
3, 29951, Note_on_c, 0, 64, 0
3, 29952, Note_on_c, 0, 71, 64
3, 29975, Note_on_c, 0, 71, 0
3, 29976, Note_on_c, 0, 64, 64
3, 29999, Note_on_c, 0, 64, 0
3, 30000, Note_on_c, 0, 63, 64
3, 30023, Note_on_c, 0, 63, 0
3, 30024, Note_on_c, 0, 64, 64
3, 30047, Note_on_c, 0, 64, 0
3, 30048, Note_on_c, 0, 69, 64
3, 30071, Note_on_c, 0, 69, 0
3, 30072, Note_on_c, 0, 64, 64
3, 30095, Note_on_c, 0, 64, 0
3, 30096, Note_on_c, 0, 63, 64
3, 30119, Note_on_c, 0, 63, 0
3, 30120, Note_on_c, 0, 64, 64
3, 30143, Note_on_c, 0, 64, 0
3, 30144, Note_on_c, 0, 71, 64
3, 30167, Note_on_c, 0, 71, 0
3, 30168, Note_on_c, 0, 64, 64
3, 30191, Note_on_c, 0, 64, 0
3, 30192, Note_on_c, 0, 63, 64
3, 30215, Note_on_c, 0, 63, 0
3, 30216, Note_on_c, 0, 64, 64
3, 30239, Note_on_c, 0, 64, 0
3, 30240, Note_on_c, 0, 73, 64
3, 30263, Note_on_c, 0, 73, 0
3, 30264, Note_on_c, 0, 71, 64
3, 30287, Note_on_c, 0, 71, 0
3, 30288, Note_on_c, 0, 73, 64
3, 30311, Note_on_c, 0, 73, 0
3, 30312, Note_on_c, 0, 71, 64
3, 30335, Note_on_c, 0, 71, 0
3, 30336, Note_on_c, 0, 69, 64
3, 30359, Note_on_c, 0, 69, 0
3, 30360, Note_on_c, 0, 68, 64
3, 30383, Note_on_c, 0, 68, 0
3, 30384, Note_on_c, 0, 69, 64
3, 30407, Note_on_c, 0, 69, 0
3, 30408, Note_on_c, 0, 68, 64
3, 30431, Note_on_c, 0, 68, 0
3, 30432, Note_on_c, 0, 66, 64
3, 30455, Note_on_c, 0, 66, 0
3, 30456, Note_on_c, 0, 64, 64
3, 30479, Note_on_c, 0, 64, 0
3, 30480, Note_on_c, 0, 66, 64
3, 30503, Note_on_c, 0, 66, 0
3, 30504, Note_on_c, 0, 64, 64
3, 30527, Note_on_c, 0, 64, 0
3, 30528, Note_on_c, 0, 75, 64
3, 30551, Note_on_c, 0, 75, 0
3, 30552, Note_on_c, 0, 73, 64
3, 30575, Note_on_c, 0, 73, 0
3, 30576, Note_on_c, 0, 75, 64
3, 30599, Note_on_c, 0, 75, 0
3, 30600, Note_on_c, 0, 73, 64
3, 30623, Note_on_c, 0, 73, 0
3, 30624, Note_on_c, 0, 71, 64
3, 30647, Note_on_c, 0, 71, 0
3, 30648, Note_on_c, 0, 69, 64
3, 30671, Note_on_c, 0, 69, 0
3, 30672, Note_on_c, 0, 71, 64
3, 30695, Note_on_c, 0, 71, 0
3, 30696, Note_on_c, 0, 69, 64
3, 30719, Note_on_c, 0, 69, 0
3, 30720, Note_on_c, 0, 68, 64
3, 30743, Note_on_c, 0, 68, 0
3, 30744, Note_on_c, 0, 66, 64
3, 30767, Note_on_c, 0, 66, 0
3, 30768, Note_on_c, 0, 68, 64
3, 30791, Note_on_c, 0, 68, 0
3, 30792, Note_on_c, 0, 66, 64
3, 30815, Note_on_c, 0, 66, 0
3, 30816, Note_on_c, 0, 64, 64
3, 30861, Note_on_c, 0, 64, 0
3, 30864, Note_on_c, 0, 71, 64
3, 30909, Note_on_c, 0, 71, 0
3, 30912, Note_on_c, 0, 76, 64
3, 30957, Note_on_c, 0, 76, 0
3, 30960, Note_on_c, 0, 80, 64
3, 31005, Note_on_c, 0, 80, 0
3, 31008, Note_on_c, 0, 73, 64
3, 31053, Note_on_c, 0, 73, 0
3, 31056, Note_on_c, 0, 76, 64
3, 31101, Note_on_c, 0, 76, 0
3, 31104, Note_on_c, 0, 69, 64
3, 31193, Note_on_c, 0, 69, 0
3, 31200, Note_on_c, 0, 81, 64
3, 31437, Note_on_c, 0, 81, 0
3, 31440, Note_on_c, 0, 71, 64
3, 31485, Note_on_c, 0, 71, 0
3, 31488, Note_on_c, 0, 75, 64
3, 31533, Note_on_c, 0, 75, 0
3, 31536, Note_on_c, 0, 78, 64
3, 31581, Note_on_c, 0, 78, 0
3, 31584, Note_on_c, 0, 83, 64
3, 31673, Note_on_c, 0, 83, 0
3, 31680, Note_on_c, 0, 83, 64
3, 31725, Note_on_c, 0, 83, 0
3, 31728, Note_on_c, 0, 80, 64
3, 31773, Note_on_c, 0, 80, 0
3, 31776, Note_on_c, 0, 78, 64
3, 31821, Note_on_c, 0, 78, 0
3, 31824, Note_on_c, 0, 76, 64
3, 31869, Note_on_c, 0, 76, 0
3, 31872, Note_on_c, 0, 83, 64
3, 31961, Note_on_c, 0, 83, 0
3, 31968, Note_on_c, 0, 83, 64
3, 32013, Note_on_c, 0, 83, 0
3, 32016, Note_on_c, 0, 75, 64
3, 32061, Note_on_c, 0, 75, 0
3, 32064, Note_on_c, 0, 73, 64
3, 32109, Note_on_c, 0, 73, 0
3, 32112, Note_on_c, 0, 71, 64
3, 32157, Note_on_c, 0, 71, 0
3, 32160, Note_on_c, 0, 83, 64
3, 32301, Note_on_c, 0, 83, 0
3, 32304, Note_on_c, 0, 75, 64
3, 32349, Note_on_c, 0, 75, 0
3, 32352, Note_on_c, 0, 76, 64
3, 32397, Note_on_c, 0, 76, 0
3, 32400, Note_on_c, 0, 78, 64
3, 32445, Note_on_c, 0, 78, 0
3, 32448, Note_on_c, 0, 80, 64
3, 32493, Note_on_c, 0, 80, 0
3, 32496, Note_on_c, 0, 76, 64
3, 32541, Note_on_c, 0, 76, 0
3, 32544, Note_on_c, 0, 85, 64
3, 32567, Note_on_c, 0, 85, 0
3, 32568, Note_on_c, 0, 83, 64
3, 32591, Note_on_c, 0, 83, 0
3, 32592, Note_on_c, 0, 85, 64
3, 32615, Note_on_c, 0, 85, 0
3, 32616, Note_on_c, 0, 83, 64
3, 32639, Note_on_c, 0, 83, 0
3, 32640, Note_on_c, 0, 82, 64
3, 32663, Note_on_c, 0, 82, 0
3, 32664, Note_on_c, 0, 80, 64
3, 32687, Note_on_c, 0, 80, 0
3, 32688, Note_on_c, 0, 82, 64
3, 32711, Note_on_c, 0, 82, 0
3, 32712, Note_on_c, 0, 80, 64
3, 32735, Note_on_c, 0, 80, 0
3, 32736, Note_on_c, 0, 78, 64
3, 32759, Note_on_c, 0, 78, 0
3, 32760, Note_on_c, 0, 76, 64
3, 32783, Note_on_c, 0, 76, 0
3, 32784, Note_on_c, 0, 78, 64
3, 32807, Note_on_c, 0, 78, 0
3, 32808, Note_on_c, 0, 76, 64
3, 32831, Note_on_c, 0, 76, 0
3, 32832, Note_on_c, 0, 75, 64
3, 32877, Note_on_c, 0, 75, 0
3, 32880, Note_on_c, 0, 73, 64
3, 32925, Note_on_c, 0, 73, 0
3, 32928, Note_on_c, 0, 75, 64
3, 32973, Note_on_c, 0, 75, 0
3, 32976, Note_on_c, 0, 76, 64
3, 33021, Note_on_c, 0, 76, 0
3, 33024, Note_on_c, 0, 78, 64
3, 33069, Note_on_c, 0, 78, 0
3, 33072, Note_on_c, 0, 75, 64
3, 33117, Note_on_c, 0, 75, 0
3, 33120, Note_on_c, 0, 83, 64
3, 33143, Note_on_c, 0, 83, 0
3, 33144, Note_on_c, 0, 81, 64
3, 33167, Note_on_c, 0, 81, 0
3, 33168, Note_on_c, 0, 83, 64
3, 33191, Note_on_c, 0, 83, 0
3, 33192, Note_on_c, 0, 81, 64
3, 33215, Note_on_c, 0, 81, 0
3, 33216, Note_on_c, 0, 80, 64
3, 33239, Note_on_c, 0, 80, 0
3, 33240, Note_on_c, 0, 78, 64
3, 33263, Note_on_c, 0, 78, 0
3, 33264, Note_on_c, 0, 80, 64
3, 33287, Note_on_c, 0, 80, 0
3, 33288, Note_on_c, 0, 78, 64
3, 33311, Note_on_c, 0, 78, 0
3, 33312, Note_on_c, 0, 76, 64
3, 33335, Note_on_c, 0, 76, 0
3, 33336, Note_on_c, 0, 75, 64
3, 33359, Note_on_c, 0, 75, 0
3, 33360, Note_on_c, 0, 76, 64
3, 33383, Note_on_c, 0, 76, 0
3, 33384, Note_on_c, 0, 75, 64
3, 33407, Note_on_c, 0, 75, 0
3, 33408, Note_on_c, 0, 73, 64
3, 33453, Note_on_c, 0, 73, 0
3, 33456, Note_on_c, 0, 73, 64
3, 33501, Note_on_c, 0, 73, 0
3, 33504, Note_on_c, 0, 78, 64
3, 33549, Note_on_c, 0, 78, 0
3, 33552, Note_on_c, 0, 76, 64
3, 33597, Note_on_c, 0, 76, 0
3, 33600, Note_on_c, 0, 75, 64
3, 33645, Note_on_c, 0, 75, 0
3, 33648, Note_on_c, 0, 73, 64
3, 33693, Note_on_c, 0, 73, 0
3, 33696, Note_on_c, 0, 75, 64
3, 33741, Note_on_c, 0, 75, 0
3, 33744, Note_on_c, 0, 76, 64
3, 33789, Note_on_c, 0, 76, 0
3, 33792, Note_on_c, 0, 73, 64
3, 33925, Note_on_c, 0, 73, 0
3, 33936, Note_on_c, 0, 71, 64
3, 33981, Note_on_c, 0, 71, 0
3, 33984, Note_on_c, 0, 71, 64
3, 34073, Note_on_c, 0, 71, 0
3, 35448, Note_on_c, 0, 71, 64
3, 35471, Note_on_c, 0, 71, 0
3, 35472, Note_on_c, 0, 70, 64
3, 35495, Note_on_c, 0, 70, 0
3, 35496, Note_on_c, 0, 71, 64
3, 35519, Note_on_c, 0, 71, 0
3, 35520, Note_on_c, 0, 73, 64
3, 35543, Note_on_c, 0, 73, 0
3, 35544, Note_on_c, 0, 71, 64
3, 35567, Note_on_c, 0, 71, 0
3, 35568, Note_on_c, 0, 70, 64
3, 35591, Note_on_c, 0, 70, 0
3, 35592, Note_on_c, 0, 71, 64
3, 35615, Note_on_c, 0, 71, 0
3, 35616, Note_on_c, 0, 75, 64
3, 35639, Note_on_c, 0, 75, 0
3, 35640, Note_on_c, 0, 71, 64
3, 35663, Note_on_c, 0, 71, 0
3, 35664, Note_on_c, 0, 70, 64
3, 35687, Note_on_c, 0, 70, 0
3, 35688, Note_on_c, 0, 71, 64
3, 35711, Note_on_c, 0, 71, 0
3, 35712, Note_on_c, 0, 76, 64
3, 35735, Note_on_c, 0, 76, 0
3, 35736, Note_on_c, 0, 71, 64
3, 35759, Note_on_c, 0, 71, 0
3, 35760, Note_on_c, 0, 70, 64
3, 35783, Note_on_c, 0, 70, 0
3, 35784, Note_on_c, 0, 71, 64
3, 35807, Note_on_c, 0, 71, 0
3, 35808, Note_on_c, 0, 75, 64
3, 35831, Note_on_c, 0, 75, 0
3, 35832, Note_on_c, 0, 71, 64
3, 35855, Note_on_c, 0, 71, 0
3, 35856, Note_on_c, 0, 70, 64
3, 35879, Note_on_c, 0, 70, 0
3, 35880, Note_on_c, 0, 71, 64
3, 35903, Note_on_c, 0, 71, 0
3, 35904, Note_on_c, 0, 76, 64
3, 35927, Note_on_c, 0, 76, 0
3, 35928, Note_on_c, 0, 71, 64
3, 35951, Note_on_c, 0, 71, 0
3, 35952, Note_on_c, 0, 70, 64
3, 35975, Note_on_c, 0, 70, 0
3, 35976, Note_on_c, 0, 71, 64
3, 35999, Note_on_c, 0, 71, 0
3, 36000, Note_on_c, 0, 78, 64
3, 36023, Note_on_c, 0, 78, 0
3, 36024, Note_on_c, 0, 71, 64
3, 36047, Note_on_c, 0, 71, 0
3, 36048, Note_on_c, 0, 70, 64
3, 36071, Note_on_c, 0, 70, 0
3, 36072, Note_on_c, 0, 71, 64
3, 36095, Note_on_c, 0, 71, 0
3, 36096, Note_on_c, 0, 76, 64
3, 36119, Note_on_c, 0, 76, 0
3, 36120, Note_on_c, 0, 71, 64
3, 36143, Note_on_c, 0, 71, 0
3, 36144, Note_on_c, 0, 70, 64
3, 36167, Note_on_c, 0, 70, 0
3, 36168, Note_on_c, 0, 71, 64
3, 36191, Note_on_c, 0, 71, 0
3, 36192, Note_on_c, 0, 78, 64
3, 36215, Note_on_c, 0, 78, 0
3, 36216, Note_on_c, 0, 71, 64
3, 36239, Note_on_c, 0, 71, 0
3, 36240, Note_on_c, 0, 70, 64
3, 36263, Note_on_c, 0, 70, 0
3, 36264, Note_on_c, 0, 71, 64
3, 36287, Note_on_c, 0, 71, 0
3, 36288, Note_on_c, 0, 80, 64
3, 36311, Note_on_c, 0, 80, 0
3, 36312, Note_on_c, 0, 78, 64
3, 36335, Note_on_c, 0, 78, 0
3, 36336, Note_on_c, 0, 80, 64
3, 36359, Note_on_c, 0, 80, 0
3, 36360, Note_on_c, 0, 78, 64
3, 36383, Note_on_c, 0, 78, 0
3, 36384, Note_on_c, 0, 76, 64
3, 36407, Note_on_c, 0, 76, 0
3, 36408, Note_on_c, 0, 75, 64
3, 36431, Note_on_c, 0, 75, 0
3, 36432, Note_on_c, 0, 76, 64
3, 36455, Note_on_c, 0, 76, 0
3, 36456, Note_on_c, 0, 75, 64
3, 36479, Note_on_c, 0, 75, 0
3, 36480, Note_on_c, 0, 73, 64
3, 36503, Note_on_c, 0, 73, 0
3, 36504, Note_on_c, 0, 71, 64
3, 36527, Note_on_c, 0, 71, 0
3, 36528, Note_on_c, 0, 73, 64
3, 36551, Note_on_c, 0, 73, 0
3, 36552, Note_on_c, 0, 71, 64
3, 36575, Note_on_c, 0, 71, 0
3, 36576, Note_on_c, 0, 70, 64
3, 36665, Note_on_c, 0, 70, 0
3, 36696, Note_on_c, 0, 73, 64
3, 36719, Note_on_c, 0, 73, 0
3, 36720, Note_on_c, 0, 70, 64
3, 36743, Note_on_c, 0, 70, 0
3, 36744, Note_on_c, 0, 73, 64
3, 36767, Note_on_c, 0, 73, 0
3, 36768, Note_on_c, 0, 76, 64
3, 36791, Note_on_c, 0, 76, 0
3, 36792, Note_on_c, 0, 73, 64
3, 36815, Note_on_c, 0, 73, 0
3, 36816, Note_on_c, 0, 70, 64
3, 36839, Note_on_c, 0, 70, 0
3, 36840, Note_on_c, 0, 73, 64
3, 36863, Note_on_c, 0, 73, 0
3, 36864, Note_on_c, 0, 75, 64
3, 36887, Note_on_c, 0, 75, 0
3, 36888, Note_on_c, 0, 83, 64
3, 36911, Note_on_c, 0, 83, 0
3, 36912, Note_on_c, 0, 78, 64
3, 36935, Note_on_c, 0, 78, 0
3, 36936, Note_on_c, 0, 83, 64
3, 36959, Note_on_c, 0, 83, 0
3, 36960, Note_on_c, 0, 75, 64
3, 36983, Note_on_c, 0, 75, 0
3, 36984, Note_on_c, 0, 81, 64
3, 37007, Note_on_c, 0, 81, 0
3, 37008, Note_on_c, 0, 78, 64
3, 37031, Note_on_c, 0, 78, 0
3, 37032, Note_on_c, 0, 81, 64
3, 37055, Note_on_c, 0, 81, 0
3, 37056, Note_on_c, 0, 71, 64
3, 37079, Note_on_c, 0, 71, 0
3, 37080, Note_on_c, 0, 81, 64
3, 37103, Note_on_c, 0, 81, 0
3, 37104, Note_on_c, 0, 78, 64
3, 37127, Note_on_c, 0, 78, 0
3, 37128, Note_on_c, 0, 81, 64
3, 37151, Note_on_c, 0, 81, 0
3, 37152, Note_on_c, 0, 71, 64
3, 37197, Note_on_c, 0, 71, 0
3, 37200, Note_on_c, 0, 80, 64
3, 37245, Note_on_c, 0, 80, 0
3, 37272, Note_on_c, 0, 71, 64
3, 37295, Note_on_c, 0, 71, 0
3, 37296, Note_on_c, 0, 68, 64
3, 37319, Note_on_c, 0, 68, 0
3, 37320, Note_on_c, 0, 71, 64
3, 37343, Note_on_c, 0, 71, 0
3, 37344, Note_on_c, 0, 74, 64
3, 37367, Note_on_c, 0, 74, 0
3, 37368, Note_on_c, 0, 71, 64
3, 37391, Note_on_c, 0, 71, 0
3, 37392, Note_on_c, 0, 68, 64
3, 37415, Note_on_c, 0, 68, 0
3, 37416, Note_on_c, 0, 71, 64
3, 37439, Note_on_c, 0, 71, 0
3, 37440, Note_on_c, 0, 73, 64
3, 37463, Note_on_c, 0, 73, 0
3, 37464, Note_on_c, 0, 76, 64
3, 37487, Note_on_c, 0, 76, 0
3, 37488, Note_on_c, 0, 73, 64
3, 37511, Note_on_c, 0, 73, 0
3, 37512, Note_on_c, 0, 76, 64
3, 37535, Note_on_c, 0, 76, 0
3, 37536, Note_on_c, 0, 81, 64
3, 37559, Note_on_c, 0, 81, 0
3, 37560, Note_on_c, 0, 76, 64
3, 37583, Note_on_c, 0, 76, 0
3, 37584, Note_on_c, 0, 73, 64
3, 37607, Note_on_c, 0, 73, 0
3, 37608, Note_on_c, 0, 76, 64
3, 37631, Note_on_c, 0, 76, 0
3, 37632, Note_on_c, 0, 69, 64
3, 37655, Note_on_c, 0, 69, 0
3, 37656, Note_on_c, 0, 73, 64
3, 37679, Note_on_c, 0, 73, 0
3, 37680, Note_on_c, 0, 68, 64
3, 37703, Note_on_c, 0, 68, 0
3, 37704, Note_on_c, 0, 71, 64
3, 37727, Note_on_c, 0, 71, 0
3, 37728, Note_on_c, 0, 69, 64
3, 37751, Note_on_c, 0, 69, 0
3, 37752, Note_on_c, 0, 73, 64
3, 37775, Note_on_c, 0, 73, 0
3, 37776, Note_on_c, 0, 69, 64
3, 37799, Note_on_c, 0, 69, 0
3, 37800, Note_on_c, 0, 73, 64
3, 37823, Note_on_c, 0, 73, 0
3, 37824, Note_on_c, 0, 78, 64
3, 37847, Note_on_c, 0, 78, 0
3, 37848, Note_on_c, 0, 73, 64
3, 37871, Note_on_c, 0, 73, 0
3, 37872, Note_on_c, 0, 69, 64
3, 37895, Note_on_c, 0, 69, 0
3, 37896, Note_on_c, 0, 73, 64
3, 37919, Note_on_c, 0, 73, 0
3, 37920, Note_on_c, 0, 66, 64
3, 37943, Note_on_c, 0, 66, 0
3, 37944, Note_on_c, 0, 69, 64
3, 37967, Note_on_c, 0, 69, 0
3, 37968, Note_on_c, 0, 65, 64
3, 37991, Note_on_c, 0, 65, 0
3, 37992, Note_on_c, 0, 68, 64
3, 38015, Note_on_c, 0, 68, 0
3, 38016, Note_on_c, 0, 66, 64
3, 38039, Note_on_c, 0, 66, 0
3, 38040, Note_on_c, 0, 69, 64
3, 38063, Note_on_c, 0, 69, 0
3, 38064, Note_on_c, 0, 66, 64
3, 38087, Note_on_c, 0, 66, 0
3, 38088, Note_on_c, 0, 69, 64
3, 38111, Note_on_c, 0, 69, 0
3, 38112, Note_on_c, 0, 73, 64
3, 38135, Note_on_c, 0, 73, 0
3, 38136, Note_on_c, 0, 69, 64
3, 38159, Note_on_c, 0, 69, 0
3, 38160, Note_on_c, 0, 66, 64
3, 38183, Note_on_c, 0, 66, 0
3, 38184, Note_on_c, 0, 69, 64
3, 38207, Note_on_c, 0, 69, 0
3, 38208, Note_on_c, 0, 73, 64
3, 38231, Note_on_c, 0, 73, 0
3, 38232, Note_on_c, 0, 66, 64
3, 38255, Note_on_c, 0, 66, 0
3, 38256, Note_on_c, 0, 69, 64
3, 38279, Note_on_c, 0, 69, 0
3, 38280, Note_on_c, 0, 73, 64
3, 38303, Note_on_c, 0, 73, 0
3, 38304, Note_on_c, 0, 69, 64
3, 38327, Note_on_c, 0, 69, 0
3, 38328, Note_on_c, 0, 75, 64
3, 38351, Note_on_c, 0, 75, 0
3, 38352, Note_on_c, 0, 78, 64
3, 38375, Note_on_c, 0, 78, 0
3, 38376, Note_on_c, 0, 75, 64
3, 38399, Note_on_c, 0, 75, 0
3, 38400, Note_on_c, 0, 69, 64
3, 38423, Note_on_c, 0, 69, 0
3, 38424, Note_on_c, 0, 75, 64
3, 38447, Note_on_c, 0, 75, 0
3, 38448, Note_on_c, 0, 78, 64
3, 38471, Note_on_c, 0, 78, 0
3, 38472, Note_on_c, 0, 75, 64
3, 38495, Note_on_c, 0, 75, 0
3, 38496, Note_on_c, 0, 69, 64
3, 38519, Note_on_c, 0, 69, 0
3, 38520, Note_on_c, 0, 75, 64
3, 38543, Note_on_c, 0, 75, 0
3, 38544, Note_on_c, 0, 78, 64
3, 38567, Note_on_c, 0, 78, 0
3, 38568, Note_on_c, 0, 69, 64
3, 38591, Note_on_c, 0, 69, 0
3, 38592, Note_on_c, 0, 68, 64
3, 38637, Note_on_c, 0, 68, 0
3, 38640, Note_on_c, 0, 64, 64
3, 38685, Note_on_c, 0, 64, 0
3, 38688, Note_on_c, 0, 68, 64
3, 38733, Note_on_c, 0, 68, 0
3, 38736, Note_on_c, 0, 71, 64
3, 38781, Note_on_c, 0, 71, 0
3, 38784, Note_on_c, 0, 76, 64
3, 38925, Note_on_c, 0, 76, 0
3, 38928, Note_on_c, 0, 73, 64
3, 38973, Note_on_c, 0, 73, 0
3, 38976, Note_on_c, 0, 71, 64
3, 39021, Note_on_c, 0, 71, 0
3, 39024, Note_on_c, 0, 69, 64
3, 39069, Note_on_c, 0, 69, 0
3, 39072, Note_on_c, 0, 76, 64
3, 39213, Note_on_c, 0, 76, 0
3, 39216, Note_on_c, 0, 68, 64
3, 39261, Note_on_c, 0, 68, 0
3, 39264, Note_on_c, 0, 66, 64
3, 39309, Note_on_c, 0, 66, 0
3, 39312, Note_on_c, 0, 64, 64
3, 39357, Note_on_c, 0, 64, 0
3, 39360, Note_on_c, 0, 76, 64
3, 39501, Note_on_c, 0, 76, 0
3, 39504, Note_on_c, 0, 80, 64
3, 39549, Note_on_c, 0, 80, 0
3, 39552, Note_on_c, 0, 78, 64
3, 39597, Note_on_c, 0, 78, 0
3, 39600, Note_on_c, 0, 76, 64
3, 39645, Note_on_c, 0, 76, 0
3, 39648, Note_on_c, 0, 75, 64
3, 39693, Note_on_c, 0, 75, 0
3, 39696, Note_on_c, 0, 73, 64
3, 39741, Note_on_c, 0, 73, 0
3, 39744, Note_on_c, 0, 71, 64
3, 40055, Note_on_c, 0, 71, 0
3, 40056, Note_on_c, 0, 69, 64
3, 40079, Note_on_c, 0, 69, 0
3, 40080, Note_on_c, 0, 71, 64
3, 40103, Note_on_c, 0, 71, 0
3, 40104, Note_on_c, 0, 69, 64
3, 40127, Note_on_c, 0, 69, 0
3, 40128, Note_on_c, 0, 68, 64
3, 40151, Note_on_c, 0, 68, 0
3, 40152, Note_on_c, 0, 66, 64
3, 40175, Note_on_c, 0, 66, 0
3, 40176, Note_on_c, 0, 68, 64
3, 40199, Note_on_c, 0, 68, 0
3, 40200, Note_on_c, 0, 66, 64
3, 40223, Note_on_c, 0, 66, 0
3, 40224, Note_on_c, 0, 64, 64
3, 40247, Note_on_c, 0, 64, 0
3, 40248, Note_on_c, 0, 62, 64
3, 40271, Note_on_c, 0, 62, 0
3, 40272, Note_on_c, 0, 64, 64
3, 40295, Note_on_c, 0, 64, 0
3, 40296, Note_on_c, 0, 62, 64
3, 40319, Note_on_c, 0, 62, 0
3, 40320, Note_on_c, 0, 61, 64
3, 40365, Note_on_c, 0, 61, 0
3, 40368, Note_on_c, 0, 64, 64
3, 40413, Note_on_c, 0, 64, 0
3, 40416, Note_on_c, 0, 69, 64
3, 40461, Note_on_c, 0, 69, 0
3, 40464, Note_on_c, 0, 73, 64
3, 40509, Note_on_c, 0, 73, 0
3, 40512, Note_on_c, 0, 78, 64
3, 40557, Note_on_c, 0, 78, 0
3, 40560, Note_on_c, 0, 81, 64
3, 40605, Note_on_c, 0, 81, 0
3, 40608, Note_on_c, 0, 83, 64
3, 40631, Note_on_c, 0, 83, 0
3, 40632, Note_on_c, 0, 71, 64
3, 40655, Note_on_c, 0, 71, 0
3, 40656, Note_on_c, 0, 70, 64
3, 40679, Note_on_c, 0, 70, 0
3, 40680, Note_on_c, 0, 71, 64
3, 40703, Note_on_c, 0, 71, 0
3, 40704, Note_on_c, 0, 73, 64
3, 40727, Note_on_c, 0, 73, 0
3, 40728, Note_on_c, 0, 71, 64
3, 40751, Note_on_c, 0, 71, 0
3, 40752, Note_on_c, 0, 70, 64
3, 40775, Note_on_c, 0, 70, 0
3, 40776, Note_on_c, 0, 71, 64
3, 40799, Note_on_c, 0, 71, 0
3, 40800, Note_on_c, 0, 75, 64
3, 40823, Note_on_c, 0, 75, 0
3, 40824, Note_on_c, 0, 71, 64
3, 40847, Note_on_c, 0, 71, 0
3, 40848, Note_on_c, 0, 70, 64
3, 40871, Note_on_c, 0, 70, 0
3, 40872, Note_on_c, 0, 71, 64
3, 40895, Note_on_c, 0, 71, 0
3, 40896, Note_on_c, 0, 76, 64
3, 40919, Note_on_c, 0, 76, 0
3, 40920, Note_on_c, 0, 71, 64
3, 40943, Note_on_c, 0, 71, 0
3, 40944, Note_on_c, 0, 70, 64
3, 40967, Note_on_c, 0, 70, 0
3, 40968, Note_on_c, 0, 71, 64
3, 40991, Note_on_c, 0, 71, 0
3, 40992, Note_on_c, 0, 75, 64
3, 41015, Note_on_c, 0, 75, 0
3, 41016, Note_on_c, 0, 71, 64
3, 41039, Note_on_c, 0, 71, 0
3, 41040, Note_on_c, 0, 70, 64
3, 41063, Note_on_c, 0, 70, 0
3, 41064, Note_on_c, 0, 71, 64
3, 41087, Note_on_c, 0, 71, 0
3, 41088, Note_on_c, 0, 76, 64
3, 41111, Note_on_c, 0, 76, 0
3, 41112, Note_on_c, 0, 71, 64
3, 41135, Note_on_c, 0, 71, 0
3, 41136, Note_on_c, 0, 70, 64
3, 41159, Note_on_c, 0, 70, 0
3, 41160, Note_on_c, 0, 71, 64
3, 41183, Note_on_c, 0, 71, 0
3, 41184, Note_on_c, 0, 78, 64
3, 41207, Note_on_c, 0, 78, 0
3, 41208, Note_on_c, 0, 71, 64
3, 41231, Note_on_c, 0, 71, 0
3, 41232, Note_on_c, 0, 70, 64
3, 41255, Note_on_c, 0, 70, 0
3, 41256, Note_on_c, 0, 71, 64
3, 41279, Note_on_c, 0, 71, 0
3, 41280, Note_on_c, 0, 76, 64
3, 41303, Note_on_c, 0, 76, 0
3, 41304, Note_on_c, 0, 71, 64
3, 41327, Note_on_c, 0, 71, 0
3, 41328, Note_on_c, 0, 70, 64
3, 41351, Note_on_c, 0, 70, 0
3, 41352, Note_on_c, 0, 71, 64
3, 41375, Note_on_c, 0, 71, 0
3, 41376, Note_on_c, 0, 78, 64
3, 41399, Note_on_c, 0, 78, 0
3, 41400, Note_on_c, 0, 71, 64
3, 41423, Note_on_c, 0, 71, 0
3, 41424, Note_on_c, 0, 70, 64
3, 41447, Note_on_c, 0, 70, 0
3, 41448, Note_on_c, 0, 71, 64
3, 41471, Note_on_c, 0, 71, 0
3, 41472, Note_on_c, 0, 80, 64
3, 41517, Note_on_c, 0, 80, 0
3, 41520, Note_on_c, 0, 64, 64
3, 41565, Note_on_c, 0, 64, 0
3, 41568, Note_on_c, 0, 68, 64
3, 41613, Note_on_c, 0, 68, 0
3, 41616, Note_on_c, 0, 71, 64
3, 41661, Note_on_c, 0, 71, 0
3, 41664, Note_on_c, 0, 76, 64
3, 41805, Note_on_c, 0, 76, 0
3, 41808, Note_on_c, 0, 73, 64
3, 41853, Note_on_c, 0, 73, 0
3, 41856, Note_on_c, 0, 71, 64
3, 41901, Note_on_c, 0, 71, 0
3, 41904, Note_on_c, 0, 68, 64
3, 41949, Note_on_c, 0, 68, 0
3, 41952, Note_on_c, 0, 76, 64
3, 42093, Note_on_c, 0, 76, 0
3, 42096, Note_on_c, 0, 68, 64
3, 42141, Note_on_c, 0, 68, 0
3, 42144, Note_on_c, 0, 66, 64
3, 42189, Note_on_c, 0, 66, 0
3, 42192, Note_on_c, 0, 64, 64
3, 42237, Note_on_c, 0, 64, 0
3, 42240, Note_on_c, 0, 76, 64
3, 42381, Note_on_c, 0, 76, 0
3, 42384, Note_on_c, 0, 68, 64
3, 42429, Note_on_c, 0, 68, 0
3, 42432, Note_on_c, 0, 69, 64
3, 42477, Note_on_c, 0, 69, 0
3, 42480, Note_on_c, 0, 71, 64
3, 42525, Note_on_c, 0, 71, 0
3, 42528, Note_on_c, 0, 73, 64
3, 42573, Note_on_c, 0, 73, 0
3, 42576, Note_on_c, 0, 69, 64
3, 42621, Note_on_c, 0, 69, 0
3, 42624, Note_on_c, 0, 78, 64
3, 42647, Note_on_c, 0, 78, 0
3, 42648, Note_on_c, 0, 76, 64
3, 42671, Note_on_c, 0, 76, 0
3, 42672, Note_on_c, 0, 78, 64
3, 42695, Note_on_c, 0, 78, 0
3, 42696, Note_on_c, 0, 76, 64
3, 42719, Note_on_c, 0, 76, 0
3, 42720, Note_on_c, 0, 75, 64
3, 42743, Note_on_c, 0, 75, 0
3, 42744, Note_on_c, 0, 73, 64
3, 42767, Note_on_c, 0, 73, 0
3, 42768, Note_on_c, 0, 75, 64
3, 42791, Note_on_c, 0, 75, 0
3, 42792, Note_on_c, 0, 73, 64
3, 42815, Note_on_c, 0, 73, 0
3, 42816, Note_on_c, 0, 71, 64
3, 42839, Note_on_c, 0, 71, 0
3, 42840, Note_on_c, 0, 69, 64
3, 42863, Note_on_c, 0, 69, 0
3, 42864, Note_on_c, 0, 71, 64
3, 42887, Note_on_c, 0, 71, 0
3, 42888, Note_on_c, 0, 69, 64
3, 42911, Note_on_c, 0, 69, 0
3, 42912, Note_on_c, 0, 68, 64
3, 42957, Note_on_c, 0, 68, 0
3, 42960, Note_on_c, 0, 66, 64
3, 43005, Note_on_c, 0, 66, 0
3, 43008, Note_on_c, 0, 68, 64
3, 43053, Note_on_c, 0, 68, 0
3, 43056, Note_on_c, 0, 69, 64
3, 43101, Note_on_c, 0, 69, 0
3, 43104, Note_on_c, 0, 71, 64
3, 43149, Note_on_c, 0, 71, 0
3, 43152, Note_on_c, 0, 68, 64
3, 43197, Note_on_c, 0, 68, 0
3, 43200, Note_on_c, 0, 76, 64
3, 43223, Note_on_c, 0, 76, 0
3, 43224, Note_on_c, 0, 74, 64
3, 43247, Note_on_c, 0, 74, 0
3, 43248, Note_on_c, 0, 76, 64
3, 43271, Note_on_c, 0, 76, 0
3, 43272, Note_on_c, 0, 74, 64
3, 43295, Note_on_c, 0, 74, 0
3, 43296, Note_on_c, 0, 73, 64
3, 43319, Note_on_c, 0, 73, 0
3, 43320, Note_on_c, 0, 71, 64
3, 43343, Note_on_c, 0, 71, 0
3, 43344, Note_on_c, 0, 73, 64
3, 43367, Note_on_c, 0, 73, 0
3, 43368, Note_on_c, 0, 71, 64
3, 43391, Note_on_c, 0, 71, 0
3, 43392, Note_on_c, 0, 69, 64
3, 43415, Note_on_c, 0, 69, 0
3, 43416, Note_on_c, 0, 68, 64
3, 43439, Note_on_c, 0, 68, 0
3, 43440, Note_on_c, 0, 69, 64
3, 43463, Note_on_c, 0, 69, 0
3, 43464, Note_on_c, 0, 68, 64
3, 43487, Note_on_c, 0, 68, 0
3, 43488, Note_on_c, 0, 66, 64
3, 43533, Note_on_c, 0, 66, 0
3, 43536, Note_on_c, 0, 66, 64
3, 43581, Note_on_c, 0, 66, 0
3, 43584, Note_on_c, 0, 71, 64
3, 43629, Note_on_c, 0, 71, 0
3, 43632, Note_on_c, 0, 69, 64
3, 43677, Note_on_c, 0, 69, 0
3, 43680, Note_on_c, 0, 68, 64
3, 43725, Note_on_c, 0, 68, 0
3, 43728, Note_on_c, 0, 66, 64
3, 43773, Note_on_c, 0, 66, 0
3, 43776, Note_on_c, 0, 68, 64
3, 43821, Note_on_c, 0, 68, 0
3, 43824, Note_on_c, 0, 69, 64
3, 43869, Note_on_c, 0, 69, 0
3, 43872, Note_on_c, 0, 66, 64
3, 44005, Note_on_c, 0, 66, 0
3, 44016, Note_on_c, 0, 64, 64
3, 44061, Note_on_c, 0, 64, 0
3, 44064, Note_on_c, 0, 64, 64
3, 44153, Note_on_c, 0, 64, 0
3, 44153, End_track
4, 0, Start_track
4, 0, MIDI_port, 0
4, 0, Title_t, "Clavier (LH)"
4, 0, Program_c, 0, 6
4, 0, Control_c, 0, 7, 127
4, 0, Note_on_c, 0, 52, 64
4, 89, Note_on_c, 0, 52, 0
4, 192, Note_on_c, 0, 40, 64
4, 281, Note_on_c, 0, 40, 0
4, 288, Note_on_c, 0, 42, 64
4, 377, Note_on_c, 0, 42, 0
4, 480, Note_on_c, 0, 54, 64
4, 569, Note_on_c, 0, 54, 0
4, 576, Note_on_c, 0, 56, 64
4, 665, Note_on_c, 0, 56, 0
4, 768, Note_on_c, 0, 44, 64
4, 857, Note_on_c, 0, 44, 0
4, 864, Note_on_c, 0, 45, 64
4, 909, Note_on_c, 0, 45, 0
4, 912, Note_on_c, 0, 47, 64
4, 957, Note_on_c, 0, 47, 0
4, 960, Note_on_c, 0, 49, 64
4, 1005, Note_on_c, 0, 49, 0
4, 1008, Note_on_c, 0, 47, 64
4, 1053, Note_on_c, 0, 47, 0
4, 1056, Note_on_c, 0, 45, 64
4, 1101, Note_on_c, 0, 45, 0
4, 1104, Note_on_c, 0, 42, 64
4, 1149, Note_on_c, 0, 42, 0
4, 1152, Note_on_c, 0, 47, 64
4, 1241, Note_on_c, 0, 47, 0
4, 1344, Note_on_c, 0, 59, 64
4, 1433, Note_on_c, 0, 59, 0
4, 1440, Note_on_c, 0, 61, 64
4, 1529, Note_on_c, 0, 61, 0
4, 1632, Note_on_c, 0, 49, 64
4, 1721, Note_on_c, 0, 49, 0
4, 1728, Note_on_c, 0, 51, 64
4, 1817, Note_on_c, 0, 51, 0
4, 1920, Note_on_c, 0, 39, 64
4, 2009, Note_on_c, 0, 39, 0
4, 2016, Note_on_c, 0, 40, 64
4, 2061, Note_on_c, 0, 40, 0
4, 2064, Note_on_c, 0, 42, 64
4, 2109, Note_on_c, 0, 42, 0
4, 2112, Note_on_c, 0, 44, 64
4, 2157, Note_on_c, 0, 44, 0
4, 2160, Note_on_c, 0, 42, 64
4, 2205, Note_on_c, 0, 42, 0
4, 2208, Note_on_c, 0, 40, 64
4, 2253, Note_on_c, 0, 40, 0
4, 2256, Note_on_c, 0, 37, 64
4, 2301, Note_on_c, 0, 37, 0
4, 2304, Note_on_c, 0, 42, 64
4, 2349, Note_on_c, 0, 42, 0
4, 2352, Note_on_c, 0, 46, 64
4, 2397, Note_on_c, 0, 46, 0
4, 2400, Note_on_c, 0, 49, 64
4, 2445, Note_on_c, 0, 49, 0
4, 2448, Note_on_c, 0, 54, 64
4, 2493, Note_on_c, 0, 54, 0
4, 2496, Note_on_c, 0, 58, 64
4, 2541, Note_on_c, 0, 58, 0
4, 2544, Note_on_c, 0, 54, 64
4, 2589, Note_on_c, 0, 54, 0
4, 2592, Note_on_c, 0, 47, 64
4, 2637, Note_on_c, 0, 47, 0
4, 2640, Note_on_c, 0, 51, 64
4, 2685, Note_on_c, 0, 51, 0
4, 2688, Note_on_c, 0, 54, 64
4, 2733, Note_on_c, 0, 54, 0
4, 2736, Note_on_c, 0, 59, 64
4, 2781, Note_on_c, 0, 59, 0
4, 2784, Note_on_c, 0, 63, 64
4, 2829, Note_on_c, 0, 63, 0
4, 2832, Note_on_c, 0, 59, 64
4, 2877, Note_on_c, 0, 59, 0
4, 2880, Note_on_c, 0, 52, 64
4, 2925, Note_on_c, 0, 52, 0
4, 2928, Note_on_c, 0, 56, 64
4, 2973, Note_on_c, 0, 56, 0
4, 2976, Note_on_c, 0, 59, 64
4, 3021, Note_on_c, 0, 59, 0
4, 3024, Note_on_c, 0, 64, 64
4, 3069, Note_on_c, 0, 64, 0
4, 3072, Note_on_c, 0, 66, 64
4, 3117, Note_on_c, 0, 66, 0
4, 3120, Note_on_c, 0, 63, 64
4, 3165, Note_on_c, 0, 63, 0
4, 3168, Note_on_c, 0, 69, 64
4, 3257, Note_on_c, 0, 69, 0
4, 3312, Note_on_c, 0, 57, 64
4, 3357, Note_on_c, 0, 57, 0
4, 3360, Note_on_c, 0, 45, 64
4, 3405, Note_on_c, 0, 45, 0
4, 3408, Note_on_c, 0, 57, 64
4, 3453, Note_on_c, 0, 57, 0
4, 3456, Note_on_c, 0, 57, 64
4, 3545, Note_on_c, 0, 57, 0
4, 3600, Note_on_c, 0, 57, 64
4, 3645, Note_on_c, 0, 57, 0
4, 3648, Note_on_c, 0, 45, 64
4, 3693, Note_on_c, 0, 45, 0
4, 3696, Note_on_c, 0, 57, 64
4, 3741, Note_on_c, 0, 57, 0
4, 3744, Note_on_c, 0, 57, 64
4, 3833, Note_on_c, 0, 57, 0
4, 3888, Note_on_c, 0, 57, 64
4, 3933, Note_on_c, 0, 57, 0
4, 3936, Note_on_c, 0, 45, 64
4, 3981, Note_on_c, 0, 45, 0
4, 3984, Note_on_c, 0, 57, 64
4, 4029, Note_on_c, 0, 57, 0
4, 4032, Note_on_c, 0, 59, 64
4, 4055, Note_on_c, 0, 59, 0
4, 4056, Note_on_c, 0, 57, 64
4, 4079, Note_on_c, 0, 57, 0
4, 4080, Note_on_c, 0, 54, 64
4, 4103, Note_on_c, 0, 54, 0
4, 4104, Note_on_c, 0, 57, 64
4, 4127, Note_on_c, 0, 57, 0
4, 4128, Note_on_c, 0, 59, 64
4, 4151, Note_on_c, 0, 59, 0
4, 4152, Note_on_c, 0, 57, 64
4, 4175, Note_on_c, 0, 57, 0
4, 4176, Note_on_c, 0, 54, 64
4, 4199, Note_on_c, 0, 54, 0
4, 4200, Note_on_c, 0, 57, 64
4, 4223, Note_on_c, 0, 57, 0
4, 4224, Note_on_c, 0, 51, 64
4, 4247, Note_on_c, 0, 51, 0
4, 4248, Note_on_c, 0, 54, 64
4, 4271, Note_on_c, 0, 54, 0
4, 4272, Note_on_c, 0, 47, 64
4, 4295, Note_on_c, 0, 47, 0
4, 4296, Note_on_c, 0, 51, 64
4, 4319, Note_on_c, 0, 51, 0
4, 4320, Note_on_c, 0, 40, 64
4, 4343, Note_on_c, 0, 40, 0
4, 4344, Note_on_c, 0, 52, 64
4, 4367, Note_on_c, 0, 52, 0
4, 4368, Note_on_c, 0, 51, 64
4, 4391, Note_on_c, 0, 51, 0
4, 4392, Note_on_c, 0, 52, 64
4, 4415, Note_on_c, 0, 52, 0
4, 4416, Note_on_c, 0, 54, 64
4, 4439, Note_on_c, 0, 54, 0
4, 4440, Note_on_c, 0, 52, 64
4, 4463, Note_on_c, 0, 52, 0
4, 4464, Note_on_c, 0, 51, 64
4, 4487, Note_on_c, 0, 51, 0
4, 4488, Note_on_c, 0, 52, 64
4, 4511, Note_on_c, 0, 52, 0
4, 4512, Note_on_c, 0, 56, 64
4, 4535, Note_on_c, 0, 56, 0
4, 4536, Note_on_c, 0, 52, 64
4, 4559, Note_on_c, 0, 52, 0
4, 4560, Note_on_c, 0, 51, 64
4, 4583, Note_on_c, 0, 51, 0
4, 4584, Note_on_c, 0, 52, 64
4, 4607, Note_on_c, 0, 52, 0
4, 4608, Note_on_c, 0, 57, 64
4, 4631, Note_on_c, 0, 57, 0
4, 4632, Note_on_c, 0, 52, 64
4, 4655, Note_on_c, 0, 52, 0
4, 4656, Note_on_c, 0, 51, 64
4, 4679, Note_on_c, 0, 51, 0
4, 4680, Note_on_c, 0, 52, 64
4, 4703, Note_on_c, 0, 52, 0
4, 4704, Note_on_c, 0, 56, 64
4, 4727, Note_on_c, 0, 56, 0
4, 4728, Note_on_c, 0, 52, 64
4, 4751, Note_on_c, 0, 52, 0
4, 4752, Note_on_c, 0, 51, 64
4, 4775, Note_on_c, 0, 51, 0
4, 4776, Note_on_c, 0, 52, 64
4, 4799, Note_on_c, 0, 52, 0
4, 4800, Note_on_c, 0, 57, 64
4, 4823, Note_on_c, 0, 57, 0
4, 4824, Note_on_c, 0, 52, 64
4, 4847, Note_on_c, 0, 52, 0
4, 4848, Note_on_c, 0, 51, 64
4, 4871, Note_on_c, 0, 51, 0
4, 4872, Note_on_c, 0, 52, 64
4, 4895, Note_on_c, 0, 52, 0
4, 4896, Note_on_c, 0, 59, 64
4, 4919, Note_on_c, 0, 59, 0
4, 4920, Note_on_c, 0, 52, 64
4, 4943, Note_on_c, 0, 52, 0
4, 4944, Note_on_c, 0, 51, 64
4, 4967, Note_on_c, 0, 51, 0
4, 4968, Note_on_c, 0, 52, 64
4, 4991, Note_on_c, 0, 52, 0
4, 4992, Note_on_c, 0, 57, 64
4, 5015, Note_on_c, 0, 57, 0
4, 5016, Note_on_c, 0, 52, 64
4, 5039, Note_on_c, 0, 52, 0
4, 5040, Note_on_c, 0, 51, 64
4, 5063, Note_on_c, 0, 51, 0
4, 5064, Note_on_c, 0, 52, 64
4, 5087, Note_on_c, 0, 52, 0
4, 5088, Note_on_c, 0, 59, 64
4, 5111, Note_on_c, 0, 59, 0
4, 5112, Note_on_c, 0, 51, 64
4, 5135, Note_on_c, 0, 51, 0
4, 5136, Note_on_c, 0, 49, 64
4, 5159, Note_on_c, 0, 49, 0
4, 5160, Note_on_c, 0, 51, 64
4, 5183, Note_on_c, 0, 51, 0
4, 5184, Note_on_c, 0, 61, 64
4, 5207, Note_on_c, 0, 61, 0
4, 5208, Note_on_c, 0, 59, 64
4, 5231, Note_on_c, 0, 59, 0
4, 5232, Note_on_c, 0, 61, 64
4, 5255, Note_on_c, 0, 61, 0
4, 5256, Note_on_c, 0, 59, 64
4, 5279, Note_on_c, 0, 59, 0
4, 5280, Note_on_c, 0, 57, 64
4, 5303, Note_on_c, 0, 57, 0
4, 5304, Note_on_c, 0, 56, 64
4, 5327, Note_on_c, 0, 56, 0
4, 5328, Note_on_c, 0, 57, 64
4, 5351, Note_on_c, 0, 57, 0
4, 5352, Note_on_c, 0, 56, 64
4, 5375, Note_on_c, 0, 56, 0
4, 5376, Note_on_c, 0, 54, 64
4, 5399, Note_on_c, 0, 54, 0
4, 5400, Note_on_c, 0, 52, 64
4, 5423, Note_on_c, 0, 52, 0
4, 5424, Note_on_c, 0, 54, 64
4, 5447, Note_on_c, 0, 54, 0
4, 5448, Note_on_c, 0, 52, 64
4, 5471, Note_on_c, 0, 52, 0
4, 5472, Note_on_c, 0, 51, 64
4, 5495, Note_on_c, 0, 51, 0
4, 5496, Note_on_c, 0, 49, 64
4, 5519, Note_on_c, 0, 49, 0
4, 5520, Note_on_c, 0, 51, 64
4, 5543, Note_on_c, 0, 51, 0
4, 5544, Note_on_c, 0, 49, 64
4, 5567, Note_on_c, 0, 49, 0
4, 5568, Note_on_c, 0, 47, 64
4, 5591, Note_on_c, 0, 47, 0
4, 5592, Note_on_c, 0, 45, 64
4, 5615, Note_on_c, 0, 45, 0
4, 5616, Note_on_c, 0, 47, 64
4, 5639, Note_on_c, 0, 47, 0
4, 5640, Note_on_c, 0, 45, 64
4, 5663, Note_on_c, 0, 45, 0
4, 5664, Note_on_c, 0, 44, 64
4, 5687, Note_on_c, 0, 44, 0
4, 5688, Note_on_c, 0, 42, 64
4, 5711, Note_on_c, 0, 42, 0
4, 5712, Note_on_c, 0, 44, 64
4, 5735, Note_on_c, 0, 44, 0
4, 5736, Note_on_c, 0, 42, 64
4, 5759, Note_on_c, 0, 42, 0
4, 5760, Note_on_c, 0, 40, 64
4, 5805, Note_on_c, 0, 40, 0
4, 5808, Note_on_c, 0, 44, 64
4, 5853, Note_on_c, 0, 44, 0
4, 5856, Note_on_c, 0, 47, 64
4, 5901, Note_on_c, 0, 47, 0
4, 5904, Note_on_c, 0, 52, 64
4, 5949, Note_on_c, 0, 52, 0
4, 5952, Note_on_c, 0, 56, 64
4, 5997, Note_on_c, 0, 56, 0
4, 6000, Note_on_c, 0, 52, 64
4, 6045, Note_on_c, 0, 52, 0
4, 6048, Note_on_c, 0, 57, 64
4, 6425, Note_on_c, 0, 57, 0
4, 6432, Note_on_c, 0, 57, 64
4, 6477, Note_on_c, 0, 57, 0
4, 6480, Note_on_c, 0, 61, 64
4, 6525, Note_on_c, 0, 61, 0
4, 6528, Note_on_c, 0, 59, 64
4, 6573, Note_on_c, 0, 59, 0
4, 6576, Note_on_c, 0, 57, 64
4, 6621, Note_on_c, 0, 57, 0
4, 6624, Note_on_c, 0, 56, 64
4, 6713, Note_on_c, 0, 56, 0
4, 6768, Note_on_c, 0, 56, 64
4, 6813, Note_on_c, 0, 56, 0
4, 6816, Note_on_c, 0, 54, 64
4, 6861, Note_on_c, 0, 54, 0
4, 6864, Note_on_c, 0, 52, 64
4, 6909, Note_on_c, 0, 52, 0
4, 6912, Note_on_c, 0, 51, 64
4, 7001, Note_on_c, 0, 51, 0
4, 7056, Note_on_c, 0, 51, 64
4, 7101, Note_on_c, 0, 51, 0
4, 7104, Note_on_c, 0, 49, 64
4, 7149, Note_on_c, 0, 49, 0
4, 7152, Note_on_c, 0, 47, 64
4, 7197, Note_on_c, 0, 47, 0
4, 7200, Note_on_c, 0, 52, 64
4, 7289, Note_on_c, 0, 52, 0
4, 7344, Note_on_c, 0, 54, 64
4, 7389, Note_on_c, 0, 54, 0
4, 7392, Note_on_c, 0, 52, 64
4, 7437, Note_on_c, 0, 52, 0
4, 7440, Note_on_c, 0, 50, 64
4, 7485, Note_on_c, 0, 50, 0
4, 7488, Note_on_c, 0, 49, 64
4, 7577, Note_on_c, 0, 49, 0
4, 7632, Note_on_c, 0, 49, 64
4, 7677, Note_on_c, 0, 49, 0
4, 7680, Note_on_c, 0, 47, 64
4, 7725, Note_on_c, 0, 47, 0
4, 7728, Note_on_c, 0, 45, 64
4, 7773, Note_on_c, 0, 45, 0
4, 7776, Note_on_c, 0, 44, 64
4, 7865, Note_on_c, 0, 44, 0
4, 7920, Note_on_c, 0, 44, 64
4, 7965, Note_on_c, 0, 44, 0
4, 7968, Note_on_c, 0, 42, 64
4, 8013, Note_on_c, 0, 42, 0
4, 8016, Note_on_c, 0, 40, 64
4, 8061, Note_on_c, 0, 40, 0
4, 8064, Note_on_c, 0, 45, 64
4, 8109, Note_on_c, 0, 45, 0
4, 8112, Note_on_c, 0, 47, 64
4, 8157, Note_on_c, 0, 47, 0
4, 8160, Note_on_c, 0, 49, 64
4, 8205, Note_on_c, 0, 49, 0
4, 8208, Note_on_c, 0, 47, 64
4, 8253, Note_on_c, 0, 47, 0
4, 8256, Note_on_c, 0, 45, 64
4, 8301, Note_on_c, 0, 45, 0
4, 8304, Note_on_c, 0, 42, 64
4, 8349, Note_on_c, 0, 42, 0
4, 8352, Note_on_c, 0, 47, 64
4, 8397, Note_on_c, 0, 47, 0
4, 8400, Note_on_c, 0, 46, 64
4, 8445, Note_on_c, 0, 46, 0
4, 8448, Note_on_c, 0, 47, 64
4, 8493, Note_on_c, 0, 47, 0
4, 8496, Note_on_c, 0, 49, 64
4, 8541, Note_on_c, 0, 49, 0
4, 8544, Note_on_c, 0, 51, 64
4, 8589, Note_on_c, 0, 51, 0
4, 8592, Note_on_c, 0, 47, 64
4, 8637, Note_on_c, 0, 47, 0
4, 8640, Note_on_c, 0, 52, 64
4, 8685, Note_on_c, 0, 52, 0
4, 8688, Note_on_c, 0, 51, 64
4, 8733, Note_on_c, 0, 51, 0
4, 8736, Note_on_c, 0, 52, 64
4, 8781, Note_on_c, 0, 52, 0
4, 8784, Note_on_c, 0, 54, 64
4, 8829, Note_on_c, 0, 54, 0
4, 8832, Note_on_c, 0, 56, 64
4, 8877, Note_on_c, 0, 56, 0
4, 8880, Note_on_c, 0, 52, 64
4, 8925, Note_on_c, 0, 52, 0
4, 8928, Note_on_c, 0, 57, 64
4, 8973, Note_on_c, 0, 57, 0
4, 8976, Note_on_c, 0, 56, 64
4, 9021, Note_on_c, 0, 56, 0
4, 9024, Note_on_c, 0, 57, 64
4, 9069, Note_on_c, 0, 57, 0
4, 9072, Note_on_c, 0, 59, 64
4, 9117, Note_on_c, 0, 59, 0
4, 9120, Note_on_c, 0, 61, 64
4, 9165, Note_on_c, 0, 61, 0
4, 9168, Note_on_c, 0, 57, 64
4, 9213, Note_on_c, 0, 57, 0
4, 9216, Note_on_c, 0, 59, 64
4, 9239, Note_on_c, 0, 59, 0
4, 9240, Note_on_c, 0, 57, 64
4, 9263, Note_on_c, 0, 57, 0
4, 9264, Note_on_c, 0, 59, 64
4, 9287, Note_on_c, 0, 59, 0
4, 9288, Note_on_c, 0, 57, 64
4, 9311, Note_on_c, 0, 57, 0
4, 9312, Note_on_c, 0, 56, 64
4, 9335, Note_on_c, 0, 56, 0
4, 9336, Note_on_c, 0, 54, 64
4, 9359, Note_on_c, 0, 54, 0
4, 9360, Note_on_c, 0, 56, 64
4, 9383, Note_on_c, 0, 56, 0
4, 9384, Note_on_c, 0, 54, 64
4, 9407, Note_on_c, 0, 54, 0
4, 9408, Note_on_c, 0, 52, 64
4, 9431, Note_on_c, 0, 52, 0
4, 9432, Note_on_c, 0, 51, 64
4, 9455, Note_on_c, 0, 51, 0
4, 9456, Note_on_c, 0, 52, 64
4, 9479, Note_on_c, 0, 52, 0
4, 9480, Note_on_c, 0, 51, 64
4, 9503, Note_on_c, 0, 51, 0
4, 9504, Note_on_c, 0, 49, 64
4, 9527, Note_on_c, 0, 49, 0
4, 9528, Note_on_c, 0, 47, 64
4, 9551, Note_on_c, 0, 47, 0
4, 9552, Note_on_c, 0, 49, 64
4, 9575, Note_on_c, 0, 49, 0
4, 9576, Note_on_c, 0, 45, 64
4, 9599, Note_on_c, 0, 45, 0
4, 9600, Note_on_c, 0, 47, 64
4, 9689, Note_on_c, 0, 47, 0
4, 9696, Note_on_c, 0, 47, 64
4, 9785, Note_on_c, 0, 47, 0
4, 9792, Note_on_c, 0, 40, 64
4, 9881, Note_on_c, 0, 40, 0
4, 9936, Note_on_c, 0, 59, 64
4, 9981, Note_on_c, 0, 59, 0
4, 9984, Note_on_c, 0, 64, 64
4, 10029, Note_on_c, 0, 64, 0
4, 10032, Note_on_c, 0, 59, 64
4, 10077, Note_on_c, 0, 59, 0
4, 10080, Note_on_c, 0, 56, 64
4, 10169, Note_on_c, 0, 56, 0
4, 10224, Note_on_c, 0, 59, 64
4, 10269, Note_on_c, 0, 59, 0
4, 10272, Note_on_c, 0, 64, 64
4, 10317, Note_on_c, 0, 64, 0
4, 10320, Note_on_c, 0, 59, 64
4, 10365, Note_on_c, 0, 59, 0
4, 10368, Note_on_c, 0, 56, 64
4, 10457, Note_on_c, 0, 56, 0
4, 10512, Note_on_c, 0, 56, 64
4, 10535, Note_on_c, 0, 56, 0
4, 10536, Note_on_c, 0, 57, 64
4, 10559, Note_on_c, 0, 57, 0
4, 10560, Note_on_c, 0, 59, 64
4, 10605, Note_on_c, 0, 59, 0
4, 10608, Note_on_c, 0, 56, 64
4, 10653, Note_on_c, 0, 56, 0
4, 10656, Note_on_c, 0, 52, 64
4, 10701, Note_on_c, 0, 52, 0
4, 10704, Note_on_c, 0, 56, 64
4, 10749, Note_on_c, 0, 56, 0
4, 10752, Note_on_c, 0, 54, 64
4, 10797, Note_on_c, 0, 54, 0
4, 10800, Note_on_c, 0, 52, 64
4, 10845, Note_on_c, 0, 52, 0
4, 10848, Note_on_c, 0, 59, 64
4, 10893, Note_on_c, 0, 59, 0
4, 10896, Note_on_c, 0, 56, 64
4, 10941, Note_on_c, 0, 56, 0
4, 10944, Note_on_c, 0, 61, 64
4, 11033, Note_on_c, 0, 61, 0
4, 11088, Note_on_c, 0, 49, 64
4, 11133, Note_on_c, 0, 49, 0
4, 11136, Note_on_c, 0, 51, 64
4, 11181, Note_on_c, 0, 51, 0
4, 11184, Note_on_c, 0, 52, 64
4, 11229, Note_on_c, 0, 52, 0
4, 11232, Note_on_c, 0, 54, 64
4, 11321, Note_on_c, 0, 54, 0
4, 11376, Note_on_c, 0, 54, 64
4, 11421, Note_on_c, 0, 54, 0
4, 11424, Note_on_c, 0, 56, 64
4, 11469, Note_on_c, 0, 56, 0
4, 11472, Note_on_c, 0, 58, 64
4, 11517, Note_on_c, 0, 58, 0
4, 11520, Note_on_c, 0, 59, 64
4, 11609, Note_on_c, 0, 59, 0
4, 11664, Note_on_c, 0, 47, 64
4, 11709, Note_on_c, 0, 47, 0
4, 11712, Note_on_c, 0, 49, 64
4, 11757, Note_on_c, 0, 49, 0
4, 11760, Note_on_c, 0, 51, 64
4, 11805, Note_on_c, 0, 51, 0
4, 11808, Note_on_c, 0, 52, 64
4, 11897, Note_on_c, 0, 52, 0
4, 11904, Note_on_c, 0, 40, 64
4, 11993, Note_on_c, 0, 40, 0
4, 12096, Note_on_c, 0, 52, 64
4, 12141, Note_on_c, 0, 52, 0
4, 12144, Note_on_c, 0, 56, 64
4, 12189, Note_on_c, 0, 56, 0
4, 12192, Note_on_c, 0, 61, 64
4, 12237, Note_on_c, 0, 61, 0
4, 12240, Note_on_c, 0, 56, 64
4, 12285, Note_on_c, 0, 56, 0
4, 12288, Note_on_c, 0, 52, 64
4, 12333, Note_on_c, 0, 52, 0
4, 12336, Note_on_c, 0, 49, 64
4, 12381, Note_on_c, 0, 49, 0
4, 12384, Note_on_c, 0, 54, 64
4, 12473, Note_on_c, 0, 54, 0
4, 12480, Note_on_c, 0, 42, 64
4, 12569, Note_on_c, 0, 42, 0
4, 12672, Note_on_c, 0, 54, 64
4, 12717, Note_on_c, 0, 54, 0
4, 12720, Note_on_c, 0, 58, 64
4, 12765, Note_on_c, 0, 58, 0
4, 12768, Note_on_c, 0, 63, 64
4, 12813, Note_on_c, 0, 63, 0
4, 12816, Note_on_c, 0, 58, 64
4, 12861, Note_on_c, 0, 58, 0
4, 12864, Note_on_c, 0, 54, 64
4, 12909, Note_on_c, 0, 54, 0
4, 12912, Note_on_c, 0, 51, 64
4, 12957, Note_on_c, 0, 51, 0
4, 12960, Note_on_c, 0, 56, 64
4, 13049, Note_on_c, 0, 56, 0
4, 13104, Note_on_c, 0, 44, 64
4, 13149, Note_on_c, 0, 44, 0
4, 13152, Note_on_c, 0, 46, 64
4, 13197, Note_on_c, 0, 46, 0
4, 13200, Note_on_c, 0, 47, 64
4, 13245, Note_on_c, 0, 47, 0
4, 13248, Note_on_c, 0, 49, 64
4, 13337, Note_on_c, 0, 49, 0
4, 13392, Note_on_c, 0, 49, 64
4, 13437, Note_on_c, 0, 49, 0
4, 13440, Note_on_c, 0, 51, 64
4, 13485, Note_on_c, 0, 51, 0
4, 13488, Note_on_c, 0, 52, 64
4, 13533, Note_on_c, 0, 52, 0
4, 13536, Note_on_c, 0, 54, 64
4, 13625, Note_on_c, 0, 54, 0
4, 13680, Note_on_c, 0, 56, 64
4, 13725, Note_on_c, 0, 56, 0
4, 13728, Note_on_c, 0, 58, 64
4, 13773, Note_on_c, 0, 58, 0
4, 13776, Note_on_c, 0, 54, 64
4, 13821, Note_on_c, 0, 54, 0
4, 13824, Note_on_c, 0, 59, 64
4, 13913, Note_on_c, 0, 59, 0
4, 13968, Note_on_c, 0, 47, 64
4, 14013, Note_on_c, 0, 47, 0
4, 14016, Note_on_c, 0, 49, 64
4, 14061, Note_on_c, 0, 49, 0
4, 14064, Note_on_c, 0, 51, 64
4, 14109, Note_on_c, 0, 51, 0
4, 14112, Note_on_c, 0, 52, 64
4, 14157, Note_on_c, 0, 52, 0
4, 14160, Note_on_c, 0, 49, 64
4, 14183, Note_on_c, 0, 49, 0
4, 14184, Note_on_c, 0, 51, 64
4, 14207, Note_on_c, 0, 51, 0
4, 14208, Note_on_c, 0, 52, 64
4, 14253, Note_on_c, 0, 52, 0
4, 14256, Note_on_c, 0, 49, 64
4, 14301, Note_on_c, 0, 49, 0
4, 14304, Note_on_c, 0, 54, 64
4, 14349, Note_on_c, 0, 54, 0
4, 14352, Note_on_c, 0, 42, 64
4, 14397, Note_on_c, 0, 42, 0
4, 14400, Note_on_c, 0, 47, 64
4, 14489, Note_on_c, 0, 47, 0
4, 14544, Note_on_c, 0, 42, 64
4, 14589, Note_on_c, 0, 42, 0
4, 14592, Note_on_c, 0, 47, 64
4, 14637, Note_on_c, 0, 47, 0
4, 14640, Note_on_c, 0, 42, 64
4, 14685, Note_on_c, 0, 42, 0
4, 14688, Note_on_c, 0, 39, 64
4, 14777, Note_on_c, 0, 39, 0
4, 14832, Note_on_c, 0, 54, 64
4, 14877, Note_on_c, 0, 54, 0
4, 14880, Note_on_c, 0, 59, 64
4, 14925, Note_on_c, 0, 59, 0
4, 14928, Note_on_c, 0, 54, 64
4, 14973, Note_on_c, 0, 54, 0
4, 14976, Note_on_c, 0, 51, 64
4, 15065, Note_on_c, 0, 51, 0
4, 15120, Note_on_c, 0, 51, 64
4, 15143, Note_on_c, 0, 51, 0
4, 15144, Note_on_c, 0, 52, 64
4, 15167, Note_on_c, 0, 52, 0
4, 15168, Note_on_c, 0, 54, 64
4, 15213, Note_on_c, 0, 54, 0
4, 15216, Note_on_c, 0, 51, 64
4, 15261, Note_on_c, 0, 51, 0
4, 15264, Note_on_c, 0, 47, 64
4, 15309, Note_on_c, 0, 47, 0
4, 15312, Note_on_c, 0, 51, 64
4, 15357, Note_on_c, 0, 51, 0
4, 15360, Note_on_c, 0, 49, 64
4, 15405, Note_on_c, 0, 49, 0
4, 15408, Note_on_c, 0, 47, 64
4, 15453, Note_on_c, 0, 47, 0
4, 15456, Note_on_c, 0, 54, 64
4, 15501, Note_on_c, 0, 54, 0
4, 15504, Note_on_c, 0, 51, 64
4, 15549, Note_on_c, 0, 51, 0
4, 15552, Note_on_c, 0, 56, 64
4, 15641, Note_on_c, 0, 56, 0
4, 15696, Note_on_c, 0, 44, 64
4, 15741, Note_on_c, 0, 44, 0
4, 15744, Note_on_c, 0, 46, 64
4, 15789, Note_on_c, 0, 46, 0
4, 15792, Note_on_c, 0, 48, 64
4, 15837, Note_on_c, 0, 48, 0
4, 15840, Note_on_c, 0, 49, 64
4, 15929, Note_on_c, 0, 49, 0
4, 15984, Note_on_c, 0, 49, 64
4, 16029, Note_on_c, 0, 49, 0
4, 16032, Note_on_c, 0, 51, 64
4, 16077, Note_on_c, 0, 51, 0
4, 16080, Note_on_c, 0, 53, 64
4, 16125, Note_on_c, 0, 53, 0
4, 16128, Note_on_c, 0, 54, 64
4, 16217, Note_on_c, 0, 54, 0
4, 16272, Note_on_c, 0, 42, 64
4, 16317, Note_on_c, 0, 42, 0
4, 16320, Note_on_c, 0, 44, 64
4, 16365, Note_on_c, 0, 44, 0
4, 16368, Note_on_c, 0, 46, 64
4, 16413, Note_on_c, 0, 46, 0
4, 16416, Note_on_c, 0, 47, 64
4, 16505, Note_on_c, 0, 47, 0
4, 16512, Note_on_c, 0, 35, 64
4, 16601, Note_on_c, 0, 35, 0
4, 16752, Note_on_c, 0, 51, 64
4, 16797, Note_on_c, 0, 51, 0
4, 16800, Note_on_c, 0, 56, 64
4, 16845, Note_on_c, 0, 56, 0
4, 16848, Note_on_c, 0, 51, 64
4, 16893, Note_on_c, 0, 51, 0
4, 16896, Note_on_c, 0, 47, 64
4, 16941, Note_on_c, 0, 47, 0
4, 16944, Note_on_c, 0, 44, 64
4, 16989, Note_on_c, 0, 44, 0
4, 16992, Note_on_c, 0, 49, 64
4, 17081, Note_on_c, 0, 49, 0
4, 17088, Note_on_c, 0, 37, 64
4, 17177, Note_on_c, 0, 37, 0
4, 17328, Note_on_c, 0, 53, 64
4, 17373, Note_on_c, 0, 53, 0
4, 17376, Note_on_c, 0, 58, 64
4, 17421, Note_on_c, 0, 58, 0
4, 17424, Note_on_c, 0, 53, 64
4, 17469, Note_on_c, 0, 53, 0
4, 17472, Note_on_c, 0, 49, 64
4, 17517, Note_on_c, 0, 49, 0
4, 17520, Note_on_c, 0, 46, 64
4, 17565, Note_on_c, 0, 46, 0
4, 17568, Note_on_c, 0, 51, 64
4, 17657, Note_on_c, 0, 51, 0
4, 17712, Note_on_c, 0, 39, 64
4, 17757, Note_on_c, 0, 39, 0
4, 17760, Note_on_c, 0, 41, 64
4, 17805, Note_on_c, 0, 41, 0
4, 17808, Note_on_c, 0, 42, 64
4, 17853, Note_on_c, 0, 42, 0
4, 17856, Note_on_c, 0, 44, 64
4, 17945, Note_on_c, 0, 44, 0
4, 18000, Note_on_c, 0, 44, 64
4, 18045, Note_on_c, 0, 44, 0
4, 18048, Note_on_c, 0, 46, 64
4, 18093, Note_on_c, 0, 46, 0
4, 18096, Note_on_c, 0, 47, 64
4, 18141, Note_on_c, 0, 47, 0
4, 18144, Note_on_c, 0, 49, 64
4, 18233, Note_on_c, 0, 49, 0
4, 18288, Note_on_c, 0, 51, 64
4, 18333, Note_on_c, 0, 51, 0
4, 18336, Note_on_c, 0, 53, 64
4, 18381, Note_on_c, 0, 53, 0
4, 18384, Note_on_c, 0, 49, 64
4, 18429, Note_on_c, 0, 49, 0
4, 18432, Note_on_c, 0, 54, 64
4, 18521, Note_on_c, 0, 54, 0
4, 18576, Note_on_c, 0, 42, 64
4, 18621, Note_on_c, 0, 42, 0
4, 18624, Note_on_c, 0, 44, 64
4, 18669, Note_on_c, 0, 44, 0
4, 18672, Note_on_c, 0, 46, 64
4, 18717, Note_on_c, 0, 46, 0
4, 18720, Note_on_c, 0, 47, 64
4, 18765, Note_on_c, 0, 47, 0
4, 18768, Note_on_c, 0, 44, 64
4, 18791, Note_on_c, 0, 44, 0
4, 18792, Note_on_c, 0, 46, 64
4, 18815, Note_on_c, 0, 46, 0
4, 18816, Note_on_c, 0, 47, 64
4, 18861, Note_on_c, 0, 47, 0
4, 18864, Note_on_c, 0, 44, 64
4, 18909, Note_on_c, 0, 44, 0
4, 18912, Note_on_c, 0, 49, 64
4, 18957, Note_on_c, 0, 49, 0
4, 18960, Note_on_c, 0, 37, 64
4, 19005, Note_on_c, 0, 37, 0
4, 19008, Note_on_c, 0, 42, 64
4, 19097, Note_on_c, 0, 42, 0
4, 19152, Note_on_c, 0, 54, 64
4, 19197, Note_on_c, 0, 54, 0
4, 19200, Note_on_c, 0, 53, 64
4, 19245, Note_on_c, 0, 53, 0
4, 19248, Note_on_c, 0, 49, 64
4, 19293, Note_on_c, 0, 49, 0
4, 19296, Note_on_c, 0, 54, 64
4, 19385, Note_on_c, 0, 54, 0
4, 19440, Note_on_c, 0, 54, 64
4, 19485, Note_on_c, 0, 54, 0
4, 19488, Note_on_c, 0, 53, 64
4, 19533, Note_on_c, 0, 53, 0
4, 19536, Note_on_c, 0, 49, 64
4, 19581, Note_on_c, 0, 49, 0
4, 19584, Note_on_c, 0, 54, 64
4, 19673, Note_on_c, 0, 54, 0
4, 19728, Note_on_c, 0, 56, 64
4, 19773, Note_on_c, 0, 56, 0
4, 19776, Note_on_c, 0, 58, 64
4, 19821, Note_on_c, 0, 58, 0
4, 19824, Note_on_c, 0, 54, 64
4, 19869, Note_on_c, 0, 54, 0
4, 19872, Note_on_c, 0, 49, 64
4, 19961, Note_on_c, 0, 49, 0
4, 20016, Note_on_c, 0, 51, 64
4, 20061, Note_on_c, 0, 51, 0
4, 20064, Note_on_c, 0, 52, 64
4, 20109, Note_on_c, 0, 52, 0
4, 20112, Note_on_c, 0, 49, 64
4, 20157, Note_on_c, 0, 49, 0
4, 20160, Note_on_c, 0, 42, 64
4, 20249, Note_on_c, 0, 42, 0
4, 20304, Note_on_c, 0, 56, 64
4, 20349, Note_on_c, 0, 56, 0
4, 20352, Note_on_c, 0, 54, 64
4, 20397, Note_on_c, 0, 54, 0
4, 20400, Note_on_c, 0, 52, 64
4, 20445, Note_on_c, 0, 52, 0
4, 20448, Note_on_c, 0, 51, 64
4, 20537, Note_on_c, 0, 51, 0
4, 20592, Note_on_c, 0, 51, 64
4, 20637, Note_on_c, 0, 51, 0
4, 20640, Note_on_c, 0, 49, 64
4, 20685, Note_on_c, 0, 49, 0
4, 20688, Note_on_c, 0, 47, 64
4, 20733, Note_on_c, 0, 47, 0
4, 20736, Note_on_c, 0, 46, 64
4, 20825, Note_on_c, 0, 46, 0
4, 20880, Note_on_c, 0, 46, 64
4, 20925, Note_on_c, 0, 46, 0
4, 20928, Note_on_c, 0, 44, 64
4, 20973, Note_on_c, 0, 44, 0
4, 20976, Note_on_c, 0, 42, 64
4, 21021, Note_on_c, 0, 42, 0
4, 21024, Note_on_c, 0, 47, 64
4, 21113, Note_on_c, 0, 47, 0
4, 21168, Note_on_c, 0, 59, 64
4, 21213, Note_on_c, 0, 59, 0
4, 21216, Note_on_c, 0, 58, 64
4, 21261, Note_on_c, 0, 58, 0
4, 21264, Note_on_c, 0, 54, 64
4, 21309, Note_on_c, 0, 54, 0
4, 21312, Note_on_c, 0, 59, 64
4, 21401, Note_on_c, 0, 59, 0
4, 21456, Note_on_c, 0, 59, 64
4, 21501, Note_on_c, 0, 59, 0
4, 21504, Note_on_c, 0, 58, 64
4, 21549, Note_on_c, 0, 58, 0
4, 21552, Note_on_c, 0, 54, 64
4, 21597, Note_on_c, 0, 54, 0
4, 21600, Note_on_c, 0, 59, 64
4, 21689, Note_on_c, 0, 59, 0
4, 21744, Note_on_c, 0, 61, 64
4, 21789, Note_on_c, 0, 61, 0
4, 21792, Note_on_c, 0, 63, 64
4, 21837, Note_on_c, 0, 63, 0
4, 21840, Note_on_c, 0, 59, 64
4, 21885, Note_on_c, 0, 59, 0
4, 21888, Note_on_c, 0, 54, 64
4, 21977, Note_on_c, 0, 54, 0
4, 22032, Note_on_c, 0, 56, 64
4, 22077, Note_on_c, 0, 56, 0
4, 22080, Note_on_c, 0, 57, 64
4, 22125, Note_on_c, 0, 57, 0
4, 22128, Note_on_c, 0, 54, 64
4, 22173, Note_on_c, 0, 54, 0
4, 22176, Note_on_c, 0, 47, 64
4, 22265, Note_on_c, 0, 47, 0
4, 22320, Note_on_c, 0, 61, 64
4, 22365, Note_on_c, 0, 61, 0
4, 22368, Note_on_c, 0, 59, 64
4, 22413, Note_on_c, 0, 59, 0
4, 22416, Note_on_c, 0, 57, 64
4, 22461, Note_on_c, 0, 57, 0
4, 22464, Note_on_c, 0, 56, 64
4, 22553, Note_on_c, 0, 56, 0
4, 22608, Note_on_c, 0, 56, 64
4, 22653, Note_on_c, 0, 56, 0
4, 22656, Note_on_c, 0, 54, 64
4, 22701, Note_on_c, 0, 54, 0
4, 22704, Note_on_c, 0, 52, 64
4, 22749, Note_on_c, 0, 52, 0
4, 22752, Note_on_c, 0, 51, 64
4, 22841, Note_on_c, 0, 51, 0
4, 22896, Note_on_c, 0, 51, 64
4, 22941, Note_on_c, 0, 51, 0
4, 22944, Note_on_c, 0, 49, 64
4, 22989, Note_on_c, 0, 49, 0
4, 22992, Note_on_c, 0, 47, 64
4, 23037, Note_on_c, 0, 47, 0
4, 23040, Note_on_c, 0, 52, 64
4, 23063, Note_on_c, 0, 52, 0
4, 23064, Note_on_c, 0, 44, 64
4, 23087, Note_on_c, 0, 44, 0
4, 23088, Note_on_c, 0, 43, 64
4, 23111, Note_on_c, 0, 43, 0
4, 23112, Note_on_c, 0, 44, 64
4, 23135, Note_on_c, 0, 44, 0
4, 23136, Note_on_c, 0, 46, 64
4, 23159, Note_on_c, 0, 46, 0
4, 23160, Note_on_c, 0, 44, 64
4, 23183, Note_on_c, 0, 44, 0
4, 23184, Note_on_c, 0, 43, 64
4, 23207, Note_on_c, 0, 43, 0
4, 23208, Note_on_c, 0, 44, 64
4, 23231, Note_on_c, 0, 44, 0
4, 23232, Note_on_c, 0, 48, 64
4, 23255, Note_on_c, 0, 48, 0
4, 23256, Note_on_c, 0, 44, 64
4, 23279, Note_on_c, 0, 44, 0
4, 23280, Note_on_c, 0, 43, 64
4, 23303, Note_on_c, 0, 43, 0
4, 23304, Note_on_c, 0, 44, 64
4, 23327, Note_on_c, 0, 44, 0
4, 23328, Note_on_c, 0, 49, 64
4, 23351, Note_on_c, 0, 49, 0
4, 23352, Note_on_c, 0, 44, 64
4, 23375, Note_on_c, 0, 44, 0
4, 23376, Note_on_c, 0, 43, 64
4, 23399, Note_on_c, 0, 43, 0
4, 23400, Note_on_c, 0, 44, 64
4, 23423, Note_on_c, 0, 44, 0
4, 23424, Note_on_c, 0, 48, 64
4, 23447, Note_on_c, 0, 48, 0
4, 23448, Note_on_c, 0, 44, 64
4, 23471, Note_on_c, 0, 44, 0
4, 23472, Note_on_c, 0, 43, 64
4, 23495, Note_on_c, 0, 43, 0
4, 23496, Note_on_c, 0, 44, 64
4, 23519, Note_on_c, 0, 44, 0
4, 23520, Note_on_c, 0, 49, 64
4, 23543, Note_on_c, 0, 49, 0
4, 23544, Note_on_c, 0, 44, 64
4, 23567, Note_on_c, 0, 44, 0
4, 23568, Note_on_c, 0, 43, 64
4, 23591, Note_on_c, 0, 43, 0
4, 23592, Note_on_c, 0, 44, 64
4, 23615, Note_on_c, 0, 44, 0
4, 23616, Note_on_c, 0, 51, 64
4, 23639, Note_on_c, 0, 51, 0
4, 23640, Note_on_c, 0, 44, 64
4, 23663, Note_on_c, 0, 44, 0
4, 23664, Note_on_c, 0, 43, 64
4, 23687, Note_on_c, 0, 43, 0
4, 23688, Note_on_c, 0, 44, 64
4, 23711, Note_on_c, 0, 44, 0
4, 23712, Note_on_c, 0, 49, 64
4, 23735, Note_on_c, 0, 49, 0
4, 23736, Note_on_c, 0, 44, 64
4, 23759, Note_on_c, 0, 44, 0
4, 23760, Note_on_c, 0, 43, 64
4, 23783, Note_on_c, 0, 43, 0
4, 23784, Note_on_c, 0, 44, 64
4, 23807, Note_on_c, 0, 44, 0
4, 23808, Note_on_c, 0, 51, 64
4, 23831, Note_on_c, 0, 51, 0
4, 23832, Note_on_c, 0, 44, 64
4, 23855, Note_on_c, 0, 44, 0
4, 23856, Note_on_c, 0, 43, 64
4, 23879, Note_on_c, 0, 43, 0
4, 23880, Note_on_c, 0, 44, 64
4, 23903, Note_on_c, 0, 44, 0
4, 23904, Note_on_c, 0, 53, 64
4, 23949, Note_on_c, 0, 53, 0
4, 23952, Note_on_c, 0, 49, 64
4, 23997, Note_on_c, 0, 49, 0
4, 24000, Note_on_c, 0, 53, 64
4, 24045, Note_on_c, 0, 53, 0
4, 24048, Note_on_c, 0, 56, 64
4, 24093, Note_on_c, 0, 56, 0
4, 24096, Note_on_c, 0, 61, 64
4, 24237, Note_on_c, 0, 61, 0
4, 24240, Note_on_c, 0, 57, 64
4, 24285, Note_on_c, 0, 57, 0
4, 24288, Note_on_c, 0, 56, 64
4, 24333, Note_on_c, 0, 56, 0
4, 24336, Note_on_c, 0, 54, 64
4, 24381, Note_on_c, 0, 54, 0
4, 24384, Note_on_c, 0, 61, 64
4, 24525, Note_on_c, 0, 61, 0
4, 24528, Note_on_c, 0, 53, 64
4, 24573, Note_on_c, 0, 53, 0
4, 24576, Note_on_c, 0, 51, 64
4, 24621, Note_on_c, 0, 51, 0
4, 24624, Note_on_c, 0, 49, 64
4, 24669, Note_on_c, 0, 49, 0
4, 24672, Note_on_c, 0, 61, 64
4, 24717, Note_on_c, 0, 61, 0
4, 24720, Note_on_c, 0, 49, 64
4, 24765, Note_on_c, 0, 49, 0
4, 24768, Note_on_c, 0, 54, 64
4, 24857, Note_on_c, 0, 54, 0
4, 24912, Note_on_c, 0, 54, 64
4, 24957, Note_on_c, 0, 54, 0
4, 24960, Note_on_c, 0, 42, 64
4, 25005, Note_on_c, 0, 42, 0
4, 25008, Note_on_c, 0, 54, 64
4, 25053, Note_on_c, 0, 54, 0
4, 25056, Note_on_c, 0, 54, 64
4, 25145, Note_on_c, 0, 54, 0
4, 25200, Note_on_c, 0, 54, 64
4, 25245, Note_on_c, 0, 54, 0
4, 25248, Note_on_c, 0, 42, 64
4, 25293, Note_on_c, 0, 42, 0
4, 25296, Note_on_c, 0, 54, 64
4, 25341, Note_on_c, 0, 54, 0
4, 25344, Note_on_c, 0, 54, 64
4, 25433, Note_on_c, 0, 54, 0
4, 25488, Note_on_c, 0, 54, 64
4, 25533, Note_on_c, 0, 54, 0
4, 25536, Note_on_c, 0, 42, 64
4, 25581, Note_on_c, 0, 42, 0
4, 25584, Note_on_c, 0, 54, 64
4, 25629, Note_on_c, 0, 54, 0
4, 25632, Note_on_c, 0, 56, 64
4, 25655, Note_on_c, 0, 56, 0
4, 25656, Note_on_c, 0, 54, 64
4, 25679, Note_on_c, 0, 54, 0
4, 25680, Note_on_c, 0, 51, 64
4, 25703, Note_on_c, 0, 51, 0
4, 25704, Note_on_c, 0, 54, 64
4, 25727, Note_on_c, 0, 54, 0
4, 25728, Note_on_c, 0, 56, 64
4, 25751, Note_on_c, 0, 56, 0
4, 25752, Note_on_c, 0, 54, 64
4, 25775, Note_on_c, 0, 54, 0
4, 25776, Note_on_c, 0, 51, 64
4, 25799, Note_on_c, 0, 51, 0
4, 25800, Note_on_c, 0, 54, 64
4, 25823, Note_on_c, 0, 54, 0
4, 25824, Note_on_c, 0, 48, 64
4, 25847, Note_on_c, 0, 48, 0
4, 25848, Note_on_c, 0, 51, 64
4, 25871, Note_on_c, 0, 51, 0
4, 25872, Note_on_c, 0, 44, 64
4, 25895, Note_on_c, 0, 44, 0
4, 25896, Note_on_c, 0, 48, 64
4, 25919, Note_on_c, 0, 48, 0
4, 25920, Note_on_c, 0, 49, 64
4, 25965, Note_on_c, 0, 49, 0
4, 25968, Note_on_c, 0, 54, 64
4, 26013, Note_on_c, 0, 54, 0
4, 26016, Note_on_c, 0, 56, 64
4, 26061, Note_on_c, 0, 56, 0
4, 26064, Note_on_c, 0, 54, 64
4, 26109, Note_on_c, 0, 54, 0
4, 26112, Note_on_c, 0, 56, 64
4, 26157, Note_on_c, 0, 56, 0
4, 26160, Note_on_c, 0, 44, 64
4, 26205, Note_on_c, 0, 44, 0
4, 26208, Note_on_c, 0, 49, 64
4, 26297, Note_on_c, 0, 49, 0
4, 26304, Note_on_c, 0, 61, 64
4, 26349, Note_on_c, 0, 61, 0
4, 26352, Note_on_c, 0, 61, 64
4, 26397, Note_on_c, 0, 61, 0
4, 26400, Note_on_c, 0, 59, 64
4, 26445, Note_on_c, 0, 59, 0
4, 26448, Note_on_c, 0, 59, 64
4, 26493, Note_on_c, 0, 59, 0
4, 26496, Note_on_c, 0, 58, 64
4, 26585, Note_on_c, 0, 58, 0
4, 26592, Note_on_c, 0, 59, 64
4, 26637, Note_on_c, 0, 59, 0
4, 26640, Note_on_c, 0, 59, 64
4, 26685, Note_on_c, 0, 59, 0
4, 26688, Note_on_c, 0, 58, 64
4, 26733, Note_on_c, 0, 58, 0
4, 26736, Note_on_c, 0, 58, 64
4, 26781, Note_on_c, 0, 58, 0
4, 26784, Note_on_c, 0, 56, 64
4, 26873, Note_on_c, 0, 56, 0
4, 26880, Note_on_c, 0, 58, 64
4, 26925, Note_on_c, 0, 58, 0
4, 26928, Note_on_c, 0, 59, 64
4, 26973, Note_on_c, 0, 59, 0
4, 26976, Note_on_c, 0, 61, 64
4, 27065, Note_on_c, 0, 61, 0
4, 27096, Note_on_c, 0, 54, 64
4, 27119, Note_on_c, 0, 54, 0
4, 27120, Note_on_c, 0, 53, 64
4, 27143, Note_on_c, 0, 53, 0
4, 27144, Note_on_c, 0, 54, 64
4, 27167, Note_on_c, 0, 54, 0
4, 27168, Note_on_c, 0, 56, 64
4, 27191, Note_on_c, 0, 56, 0
4, 27192, Note_on_c, 0, 54, 64
4, 27215, Note_on_c, 0, 54, 0
4, 27216, Note_on_c, 0, 53, 64
4, 27239, Note_on_c, 0, 53, 0
4, 27240, Note_on_c, 0, 54, 64
4, 27263, Note_on_c, 0, 54, 0
4, 27264, Note_on_c, 0, 58, 64
4, 27287, Note_on_c, 0, 58, 0
4, 27288, Note_on_c, 0, 54, 64
4, 27311, Note_on_c, 0, 54, 0
4, 27312, Note_on_c, 0, 53, 64
4, 27335, Note_on_c, 0, 53, 0
4, 27336, Note_on_c, 0, 54, 64
4, 27359, Note_on_c, 0, 54, 0
4, 27360, Note_on_c, 0, 59, 64
4, 27405, Note_on_c, 0, 59, 0
4, 27408, Note_on_c, 0, 47, 64
4, 27453, Note_on_c, 0, 47, 0
4, 27456, Note_on_c, 0, 59, 64
4, 27501, Note_on_c, 0, 59, 0
4, 27504, Note_on_c, 0, 59, 64
4, 27549, Note_on_c, 0, 59, 0
4, 27552, Note_on_c, 0, 57, 64
4, 27597, Note_on_c, 0, 57, 0
4, 27600, Note_on_c, 0, 57, 64
4, 27645, Note_on_c, 0, 57, 0
4, 27648, Note_on_c, 0, 56, 64
4, 27737, Note_on_c, 0, 56, 0
4, 27744, Note_on_c, 0, 57, 64
4, 27789, Note_on_c, 0, 57, 0
4, 27792, Note_on_c, 0, 57, 64
4, 27837, Note_on_c, 0, 57, 0
4, 27840, Note_on_c, 0, 56, 64
4, 27885, Note_on_c, 0, 56, 0
4, 27888, Note_on_c, 0, 56, 64
4, 27933, Note_on_c, 0, 56, 0
4, 27936, Note_on_c, 0, 54, 64
4, 28025, Note_on_c, 0, 54, 0
4, 28032, Note_on_c, 0, 56, 64
4, 28077, Note_on_c, 0, 56, 0
4, 28080, Note_on_c, 0, 57, 64
4, 28125, Note_on_c, 0, 57, 0
4, 28128, Note_on_c, 0, 59, 64
4, 28217, Note_on_c, 0, 59, 0
4, 28248, Note_on_c, 0, 52, 64
4, 28271, Note_on_c, 0, 52, 0
4, 28272, Note_on_c, 0, 51, 64
4, 28295, Note_on_c, 0, 51, 0
4, 28296, Note_on_c, 0, 52, 64
4, 28319, Note_on_c, 0, 52, 0
4, 28320, Note_on_c, 0, 54, 64
4, 28343, Note_on_c, 0, 54, 0
4, 28344, Note_on_c, 0, 52, 64
4, 28367, Note_on_c, 0, 52, 0
4, 28368, Note_on_c, 0, 51, 64
4, 28391, Note_on_c, 0, 51, 0
4, 28392, Note_on_c, 0, 52, 64
4, 28415, Note_on_c, 0, 52, 0
4, 28416, Note_on_c, 0, 56, 64
4, 28439, Note_on_c, 0, 56, 0
4, 28440, Note_on_c, 0, 52, 64
4, 28463, Note_on_c, 0, 52, 0
4, 28464, Note_on_c, 0, 51, 64
4, 28487, Note_on_c, 0, 51, 0
4, 28488, Note_on_c, 0, 52, 64
4, 28511, Note_on_c, 0, 52, 0
4, 28512, Note_on_c, 0, 57, 64
4, 28535, Note_on_c, 0, 57, 0
4, 28536, Note_on_c, 0, 51, 64
4, 28559, Note_on_c, 0, 51, 0
4, 28560, Note_on_c, 0, 49, 64
4, 28583, Note_on_c, 0, 49, 0
4, 28584, Note_on_c, 0, 51, 64
4, 28607, Note_on_c, 0, 51, 0
4, 28608, Note_on_c, 0, 52, 64
4, 28631, Note_on_c, 0, 52, 0
4, 28632, Note_on_c, 0, 51, 64
4, 28655, Note_on_c, 0, 51, 0
4, 28656, Note_on_c, 0, 49, 64
4, 28679, Note_on_c, 0, 49, 0
4, 28680, Note_on_c, 0, 51, 64
4, 28703, Note_on_c, 0, 51, 0
4, 28704, Note_on_c, 0, 54, 64
4, 28727, Note_on_c, 0, 54, 0
4, 28728, Note_on_c, 0, 51, 64
4, 28751, Note_on_c, 0, 51, 0
4, 28752, Note_on_c, 0, 49, 64
4, 28775, Note_on_c, 0, 49, 0
4, 28776, Note_on_c, 0, 51, 64
4, 28799, Note_on_c, 0, 51, 0
4, 28800, Note_on_c, 0, 56, 64
4, 28823, Note_on_c, 0, 56, 0
4, 28824, Note_on_c, 0, 49, 64
4, 28847, Note_on_c, 0, 49, 0
4, 28848, Note_on_c, 0, 47, 64
4, 28871, Note_on_c, 0, 47, 0
4, 28872, Note_on_c, 0, 49, 64
4, 28895, Note_on_c, 0, 49, 0
4, 28896, Note_on_c, 0, 51, 64
4, 28919, Note_on_c, 0, 51, 0
4, 28920, Note_on_c, 0, 49, 64
4, 28943, Note_on_c, 0, 49, 0
4, 28944, Note_on_c, 0, 47, 64
4, 28967, Note_on_c, 0, 47, 0
4, 28968, Note_on_c, 0, 49, 64
4, 28991, Note_on_c, 0, 49, 0
4, 28992, Note_on_c, 0, 52, 64
4, 29015, Note_on_c, 0, 52, 0
4, 29016, Note_on_c, 0, 49, 64
4, 29039, Note_on_c, 0, 49, 0
4, 29040, Note_on_c, 0, 47, 64
4, 29063, Note_on_c, 0, 47, 0
4, 29064, Note_on_c, 0, 49, 64
4, 29087, Note_on_c, 0, 49, 0
4, 29088, Note_on_c, 0, 54, 64
4, 29111, Note_on_c, 0, 54, 0
4, 29112, Note_on_c, 0, 47, 64
4, 29135, Note_on_c, 0, 47, 0
4, 29136, Note_on_c, 0, 45, 64
4, 29159, Note_on_c, 0, 45, 0
4, 29160, Note_on_c, 0, 47, 64
4, 29183, Note_on_c, 0, 47, 0
4, 29184, Note_on_c, 0, 49, 64
4, 29207, Note_on_c, 0, 49, 0
4, 29208, Note_on_c, 0, 47, 64
4, 29231, Note_on_c, 0, 47, 0
4, 29232, Note_on_c, 0, 45, 64
4, 29255, Note_on_c, 0, 45, 0
4, 29256, Note_on_c, 0, 47, 64
4, 29279, Note_on_c, 0, 47, 0
4, 29280, Note_on_c, 0, 51, 64
4, 29303, Note_on_c, 0, 51, 0
4, 29304, Note_on_c, 0, 47, 64
4, 29327, Note_on_c, 0, 47, 0
4, 29328, Note_on_c, 0, 45, 64
4, 29351, Note_on_c, 0, 45, 0
4, 29352, Note_on_c, 0, 47, 64
4, 29375, Note_on_c, 0, 47, 0
4, 29376, Note_on_c, 0, 52, 64
4, 29465, Note_on_c, 0, 52, 0
4, 29520, Note_on_c, 0, 44, 64
4, 29565, Note_on_c, 0, 44, 0
4, 29568, Note_on_c, 0, 47, 64
4, 29613, Note_on_c, 0, 47, 0
4, 29616, Note_on_c, 0, 52, 64
4, 29661, Note_on_c, 0, 52, 0
4, 29664, Note_on_c, 0, 54, 64
4, 29753, Note_on_c, 0, 54, 0
4, 29808, Note_on_c, 0, 45, 64
4, 29853, Note_on_c, 0, 45, 0
4, 29856, Note_on_c, 0, 49, 64
4, 29901, Note_on_c, 0, 49, 0
4, 29904, Note_on_c, 0, 54, 64
4, 29949, Note_on_c, 0, 54, 0
4, 29952, Note_on_c, 0, 56, 64
4, 30041, Note_on_c, 0, 56, 0
4, 30096, Note_on_c, 0, 47, 64
4, 30141, Note_on_c, 0, 47, 0
4, 30144, Note_on_c, 0, 52, 64
4, 30189, Note_on_c, 0, 52, 0
4, 30192, Note_on_c, 0, 56, 64
4, 30237, Note_on_c, 0, 56, 0
4, 30240, Note_on_c, 0, 57, 64
4, 30573, Note_on_c, 0, 57, 0
4, 30576, Note_on_c, 0, 57, 64
4, 30621, Note_on_c, 0, 57, 0
4, 30624, Note_on_c, 0, 56, 64
4, 30669, Note_on_c, 0, 56, 0
4, 30672, Note_on_c, 0, 54, 64
4, 30717, Note_on_c, 0, 54, 0
4, 30720, Note_on_c, 0, 52, 64
4, 30765, Note_on_c, 0, 52, 0
4, 30768, Note_on_c, 0, 51, 64
4, 30813, Note_on_c, 0, 51, 0
4, 30816, Note_on_c, 0, 56, 64
4, 31127, Note_on_c, 0, 56, 0
4, 31128, Note_on_c, 0, 56, 64
4, 31151, Note_on_c, 0, 56, 0
4, 31152, Note_on_c, 0, 57, 64
4, 31175, Note_on_c, 0, 57, 0
4, 31176, Note_on_c, 0, 56, 64
4, 31199, Note_on_c, 0, 56, 0
4, 31200, Note_on_c, 0, 54, 64
4, 31223, Note_on_c, 0, 54, 0
4, 31224, Note_on_c, 0, 52, 64
4, 31247, Note_on_c, 0, 52, 0
4, 31248, Note_on_c, 0, 54, 64
4, 31271, Note_on_c, 0, 54, 0
4, 31272, Note_on_c, 0, 52, 64
4, 31295, Note_on_c, 0, 52, 0
4, 31296, Note_on_c, 0, 51, 64
4, 31319, Note_on_c, 0, 51, 0
4, 31320, Note_on_c, 0, 49, 64
4, 31343, Note_on_c, 0, 49, 0
4, 31344, Note_on_c, 0, 51, 64
4, 31367, Note_on_c, 0, 51, 0
4, 31368, Note_on_c, 0, 49, 64
4, 31391, Note_on_c, 0, 49, 0
4, 31392, Note_on_c, 0, 47, 64
4, 31481, Note_on_c, 0, 47, 0
4, 31536, Note_on_c, 0, 61, 64
4, 31581, Note_on_c, 0, 61, 0
4, 31584, Note_on_c, 0, 59, 64
4, 31629, Note_on_c, 0, 59, 0
4, 31632, Note_on_c, 0, 57, 64
4, 31677, Note_on_c, 0, 57, 0
4, 31680, Note_on_c, 0, 56, 64
4, 31769, Note_on_c, 0, 56, 0
4, 31824, Note_on_c, 0, 56, 64
4, 31869, Note_on_c, 0, 56, 0
4, 31872, Note_on_c, 0, 54, 64
4, 31917, Note_on_c, 0, 54, 0
4, 31920, Note_on_c, 0, 52, 64
4, 31965, Note_on_c, 0, 52, 0
4, 31968, Note_on_c, 0, 51, 64
4, 32057, Note_on_c, 0, 51, 0
4, 32112, Note_on_c, 0, 51, 64
4, 32157, Note_on_c, 0, 51, 0
4, 32160, Note_on_c, 0, 49, 64
4, 32205, Note_on_c, 0, 49, 0
4, 32208, Note_on_c, 0, 47, 64
4, 32253, Note_on_c, 0, 47, 0
4, 32256, Note_on_c, 0, 52, 64
4, 32301, Note_on_c, 0, 52, 0
4, 32304, Note_on_c, 0, 54, 64
4, 32349, Note_on_c, 0, 54, 0
4, 32352, Note_on_c, 0, 56, 64
4, 32397, Note_on_c, 0, 56, 0
4, 32400, Note_on_c, 0, 54, 64
4, 32445, Note_on_c, 0, 54, 0
4, 32448, Note_on_c, 0, 52, 64
4, 32493, Note_on_c, 0, 52, 0
4, 32496, Note_on_c, 0, 49, 64
4, 32541, Note_on_c, 0, 49, 0
4, 32544, Note_on_c, 0, 54, 64
4, 32589, Note_on_c, 0, 54, 0
4, 32592, Note_on_c, 0, 53, 64
4, 32637, Note_on_c, 0, 53, 0
4, 32640, Note_on_c, 0, 54, 64
4, 32685, Note_on_c, 0, 54, 0
4, 32688, Note_on_c, 0, 56, 64
4, 32733, Note_on_c, 0, 56, 0
4, 32736, Note_on_c, 0, 58, 64
4, 32781, Note_on_c, 0, 58, 0
4, 32784, Note_on_c, 0, 54, 64
4, 32829, Note_on_c, 0, 54, 0
4, 32832, Note_on_c, 0, 47, 64
4, 32877, Note_on_c, 0, 47, 0
4, 32880, Note_on_c, 0, 46, 64
4, 32925, Note_on_c, 0, 46, 0
4, 32928, Note_on_c, 0, 47, 64
4, 32973, Note_on_c, 0, 47, 0
4, 32976, Note_on_c, 0, 49, 64
4, 33021, Note_on_c, 0, 49, 0
4, 33024, Note_on_c, 0, 51, 64
4, 33069, Note_on_c, 0, 51, 0
4, 33072, Note_on_c, 0, 47, 64
4, 33117, Note_on_c, 0, 47, 0
4, 33120, Note_on_c, 0, 52, 64
4, 33165, Note_on_c, 0, 52, 0
4, 33168, Note_on_c, 0, 51, 64
4, 33213, Note_on_c, 0, 51, 0
4, 33216, Note_on_c, 0, 52, 64
4, 33261, Note_on_c, 0, 52, 0
4, 33264, Note_on_c, 0, 54, 64
4, 33309, Note_on_c, 0, 54, 0
4, 33312, Note_on_c, 0, 56, 64
4, 33357, Note_on_c, 0, 56, 0
4, 33360, Note_on_c, 0, 52, 64
4, 33405, Note_on_c, 0, 52, 0
4, 33408, Note_on_c, 0, 54, 64
4, 33431, Note_on_c, 0, 54, 0
4, 33432, Note_on_c, 0, 52, 64
4, 33455, Note_on_c, 0, 52, 0
4, 33456, Note_on_c, 0, 54, 64
4, 33479, Note_on_c, 0, 54, 0
4, 33480, Note_on_c, 0, 52, 64
4, 33503, Note_on_c, 0, 52, 0
4, 33504, Note_on_c, 0, 51, 64
4, 33527, Note_on_c, 0, 51, 0
4, 33528, Note_on_c, 0, 49, 64
4, 33551, Note_on_c, 0, 49, 0
4, 33552, Note_on_c, 0, 51, 64
4, 33575, Note_on_c, 0, 51, 0
4, 33576, Note_on_c, 0, 49, 64
4, 33599, Note_on_c, 0, 49, 0
4, 33600, Note_on_c, 0, 47, 64
4, 33623, Note_on_c, 0, 47, 0
4, 33624, Note_on_c, 0, 46, 64
4, 33647, Note_on_c, 0, 46, 0
4, 33648, Note_on_c, 0, 47, 64
4, 33671, Note_on_c, 0, 47, 0
4, 33672, Note_on_c, 0, 46, 64
4, 33695, Note_on_c, 0, 46, 0
4, 33696, Note_on_c, 0, 44, 64
4, 33719, Note_on_c, 0, 44, 0
4, 33720, Note_on_c, 0, 42, 64
4, 33743, Note_on_c, 0, 42, 0
4, 33744, Note_on_c, 0, 44, 64
4, 33767, Note_on_c, 0, 44, 0
4, 33768, Note_on_c, 0, 40, 64
4, 33791, Note_on_c, 0, 40, 0
4, 33792, Note_on_c, 0, 42, 64
4, 33881, Note_on_c, 0, 42, 0
4, 33888, Note_on_c, 0, 42, 64
4, 33977, Note_on_c, 0, 42, 0
4, 34008, Note_on_c, 0, 47, 64
4, 34031, Note_on_c, 0, 47, 0
4, 34032, Note_on_c, 0, 46, 64
4, 34055, Note_on_c, 0, 46, 0
4, 34056, Note_on_c, 0, 47, 64
4, 34079, Note_on_c, 0, 47, 0
4, 34080, Note_on_c, 0, 49, 64
4, 34103, Note_on_c, 0, 49, 0
4, 34104, Note_on_c, 0, 47, 64
4, 34127, Note_on_c, 0, 47, 0
4, 34128, Note_on_c, 0, 46, 64
4, 34151, Note_on_c, 0, 46, 0
4, 34152, Note_on_c, 0, 47, 64
4, 34175, Note_on_c, 0, 47, 0
4, 34176, Note_on_c, 0, 51, 64
4, 34199, Note_on_c, 0, 51, 0
4, 34200, Note_on_c, 0, 47, 64
4, 34223, Note_on_c, 0, 47, 0
4, 34224, Note_on_c, 0, 46, 64
4, 34247, Note_on_c, 0, 46, 0
4, 34248, Note_on_c, 0, 47, 64
4, 34271, Note_on_c, 0, 47, 0
4, 34272, Note_on_c, 0, 52, 64
4, 34361, Note_on_c, 0, 52, 0
4, 34464, Note_on_c, 0, 40, 64
4, 34553, Note_on_c, 0, 40, 0
4, 34560, Note_on_c, 0, 42, 64
4, 34649, Note_on_c, 0, 42, 0
4, 34752, Note_on_c, 0, 54, 64
4, 34841, Note_on_c, 0, 54, 0
4, 34848, Note_on_c, 0, 56, 64
4, 34937, Note_on_c, 0, 56, 0
4, 35040, Note_on_c, 0, 44, 64
4, 35129, Note_on_c, 0, 44, 0
4, 35136, Note_on_c, 0, 45, 64
4, 35181, Note_on_c, 0, 45, 0
4, 35184, Note_on_c, 0, 47, 64
4, 35229, Note_on_c, 0, 47, 0
4, 35232, Note_on_c, 0, 49, 64
4, 35277, Note_on_c, 0, 49, 0
4, 35280, Note_on_c, 0, 47, 64
4, 35325, Note_on_c, 0, 47, 0
4, 35328, Note_on_c, 0, 45, 64
4, 35373, Note_on_c, 0, 45, 0
4, 35376, Note_on_c, 0, 42, 64
4, 35421, Note_on_c, 0, 42, 0
4, 35424, Note_on_c, 0, 47, 64
4, 35513, Note_on_c, 0, 47, 0
4, 35616, Note_on_c, 0, 59, 64
4, 35705, Note_on_c, 0, 59, 0
4, 35712, Note_on_c, 0, 61, 64
4, 35801, Note_on_c, 0, 61, 0
4, 35904, Note_on_c, 0, 49, 64
4, 35993, Note_on_c, 0, 49, 0
4, 36000, Note_on_c, 0, 51, 64
4, 36089, Note_on_c, 0, 51, 0
4, 36192, Note_on_c, 0, 39, 64
4, 36281, Note_on_c, 0, 39, 0
4, 36288, Note_on_c, 0, 40, 64
4, 36333, Note_on_c, 0, 40, 0
4, 36336, Note_on_c, 0, 42, 64
4, 36381, Note_on_c, 0, 42, 0
4, 36384, Note_on_c, 0, 44, 64
4, 36429, Note_on_c, 0, 44, 0
4, 36432, Note_on_c, 0, 42, 64
4, 36477, Note_on_c, 0, 42, 0
4, 36480, Note_on_c, 0, 40, 64
4, 36525, Note_on_c, 0, 40, 0
4, 36528, Note_on_c, 0, 39, 64
4, 36573, Note_on_c, 0, 39, 0
4, 36576, Note_on_c, 0, 42, 64
4, 36621, Note_on_c, 0, 42, 0
4, 36624, Note_on_c, 0, 46, 64
4, 36669, Note_on_c, 0, 46, 0
4, 36672, Note_on_c, 0, 49, 64
4, 36717, Note_on_c, 0, 49, 0
4, 36720, Note_on_c, 0, 54, 64
4, 36765, Note_on_c, 0, 54, 0
4, 36768, Note_on_c, 0, 58, 64
4, 36813, Note_on_c, 0, 58, 0
4, 36816, Note_on_c, 0, 54, 64
4, 36861, Note_on_c, 0, 54, 0
4, 36864, Note_on_c, 0, 47, 64
4, 36909, Note_on_c, 0, 47, 0
4, 36912, Note_on_c, 0, 51, 64
4, 36957, Note_on_c, 0, 51, 0
4, 36960, Note_on_c, 0, 54, 64
4, 37005, Note_on_c, 0, 54, 0
4, 37008, Note_on_c, 0, 59, 64
4, 37053, Note_on_c, 0, 59, 0
4, 37056, Note_on_c, 0, 63, 64
4, 37101, Note_on_c, 0, 63, 0
4, 37104, Note_on_c, 0, 59, 64
4, 37149, Note_on_c, 0, 59, 0
4, 37152, Note_on_c, 0, 52, 64
4, 37197, Note_on_c, 0, 52, 0
4, 37200, Note_on_c, 0, 56, 64
4, 37245, Note_on_c, 0, 56, 0
4, 37248, Note_on_c, 0, 59, 64
4, 37293, Note_on_c, 0, 59, 0
4, 37296, Note_on_c, 0, 64, 64
4, 37341, Note_on_c, 0, 64, 0
4, 37344, Note_on_c, 0, 68, 64
4, 37389, Note_on_c, 0, 68, 0
4, 37392, Note_on_c, 0, 64, 64
4, 37437, Note_on_c, 0, 64, 0
4, 37440, Note_on_c, 0, 69, 64
4, 37529, Note_on_c, 0, 69, 0
4, 37584, Note_on_c, 0, 57, 64
4, 37629, Note_on_c, 0, 57, 0
4, 37632, Note_on_c, 0, 45, 64
4, 37677, Note_on_c, 0, 45, 0
4, 37680, Note_on_c, 0, 57, 64
4, 37725, Note_on_c, 0, 57, 0
4, 37728, Note_on_c, 0, 57, 64
4, 37817, Note_on_c, 0, 57, 0
4, 37872, Note_on_c, 0, 57, 64
4, 37917, Note_on_c, 0, 57, 0
4, 37920, Note_on_c, 0, 45, 64
4, 37965, Note_on_c, 0, 45, 0
4, 37968, Note_on_c, 0, 57, 64
4, 38013, Note_on_c, 0, 57, 0
4, 38016, Note_on_c, 0, 57, 64
4, 38105, Note_on_c, 0, 57, 0
4, 38160, Note_on_c, 0, 57, 64
4, 38205, Note_on_c, 0, 57, 0
4, 38208, Note_on_c, 0, 45, 64
4, 38253, Note_on_c, 0, 45, 0
4, 38256, Note_on_c, 0, 57, 64
4, 38301, Note_on_c, 0, 57, 0
4, 38304, Note_on_c, 0, 59, 64
4, 38327, Note_on_c, 0, 59, 0
4, 38328, Note_on_c, 0, 57, 64
4, 38351, Note_on_c, 0, 57, 0
4, 38352, Note_on_c, 0, 54, 64
4, 38375, Note_on_c, 0, 54, 0
4, 38376, Note_on_c, 0, 57, 64
4, 38399, Note_on_c, 0, 57, 0
4, 38400, Note_on_c, 0, 59, 64
4, 38423, Note_on_c, 0, 59, 0
4, 38424, Note_on_c, 0, 57, 64
4, 38447, Note_on_c, 0, 57, 0
4, 38448, Note_on_c, 0, 54, 64
4, 38471, Note_on_c, 0, 54, 0
4, 38472, Note_on_c, 0, 57, 64
4, 38495, Note_on_c, 0, 57, 0
4, 38496, Note_on_c, 0, 51, 64
4, 38519, Note_on_c, 0, 51, 0
4, 38520, Note_on_c, 0, 54, 64
4, 38543, Note_on_c, 0, 54, 0
4, 38544, Note_on_c, 0, 47, 64
4, 38567, Note_on_c, 0, 47, 0
4, 38568, Note_on_c, 0, 51, 64
4, 38591, Note_on_c, 0, 51, 0
4, 38592, Note_on_c, 0, 40, 64
4, 38615, Note_on_c, 0, 40, 0
4, 38616, Note_on_c, 0, 52, 64
4, 38639, Note_on_c, 0, 52, 0
4, 38640, Note_on_c, 0, 51, 64
4, 38663, Note_on_c, 0, 51, 0
4, 38664, Note_on_c, 0, 52, 64
4, 38687, Note_on_c, 0, 52, 0
4, 38688, Note_on_c, 0, 54, 64
4, 38711, Note_on_c, 0, 54, 0
4, 38712, Note_on_c, 0, 52, 64
4, 38735, Note_on_c, 0, 52, 0
4, 38736, Note_on_c, 0, 51, 64
4, 38759, Note_on_c, 0, 51, 0
4, 38760, Note_on_c, 0, 52, 64
4, 38783, Note_on_c, 0, 52, 0
4, 38784, Note_on_c, 0, 56, 64
4, 38807, Note_on_c, 0, 56, 0
4, 38808, Note_on_c, 0, 52, 64
4, 38831, Note_on_c, 0, 52, 0
4, 38832, Note_on_c, 0, 51, 64
4, 38855, Note_on_c, 0, 51, 0
4, 38856, Note_on_c, 0, 52, 64
4, 38879, Note_on_c, 0, 52, 0
4, 38880, Note_on_c, 0, 57, 64
4, 38903, Note_on_c, 0, 57, 0
4, 38904, Note_on_c, 0, 52, 64
4, 38927, Note_on_c, 0, 52, 0
4, 38928, Note_on_c, 0, 51, 64
4, 38951, Note_on_c, 0, 51, 0
4, 38952, Note_on_c, 0, 52, 64
4, 38975, Note_on_c, 0, 52, 0
4, 38976, Note_on_c, 0, 56, 64
4, 38999, Note_on_c, 0, 56, 0
4, 39000, Note_on_c, 0, 52, 64
4, 39023, Note_on_c, 0, 52, 0
4, 39024, Note_on_c, 0, 51, 64
4, 39047, Note_on_c, 0, 51, 0
4, 39048, Note_on_c, 0, 52, 64
4, 39071, Note_on_c, 0, 52, 0
4, 39072, Note_on_c, 0, 57, 64
4, 39095, Note_on_c, 0, 57, 0
4, 39096, Note_on_c, 0, 52, 64
4, 39119, Note_on_c, 0, 52, 0
4, 39120, Note_on_c, 0, 51, 64
4, 39143, Note_on_c, 0, 51, 0
4, 39144, Note_on_c, 0, 52, 64
4, 39167, Note_on_c, 0, 52, 0
4, 39168, Note_on_c, 0, 59, 64
4, 39191, Note_on_c, 0, 59, 0
4, 39192, Note_on_c, 0, 52, 64
4, 39215, Note_on_c, 0, 52, 0
4, 39216, Note_on_c, 0, 51, 64
4, 39239, Note_on_c, 0, 51, 0
4, 39240, Note_on_c, 0, 52, 64
4, 39263, Note_on_c, 0, 52, 0
4, 39264, Note_on_c, 0, 57, 64
4, 39287, Note_on_c, 0, 57, 0
4, 39288, Note_on_c, 0, 52, 64
4, 39311, Note_on_c, 0, 52, 0
4, 39312, Note_on_c, 0, 51, 64
4, 39335, Note_on_c, 0, 51, 0
4, 39336, Note_on_c, 0, 52, 64
4, 39359, Note_on_c, 0, 52, 0
4, 39360, Note_on_c, 0, 59, 64
4, 39383, Note_on_c, 0, 59, 0
4, 39384, Note_on_c, 0, 52, 64
4, 39407, Note_on_c, 0, 52, 0
4, 39408, Note_on_c, 0, 51, 64
4, 39431, Note_on_c, 0, 51, 0
4, 39432, Note_on_c, 0, 52, 64
4, 39455, Note_on_c, 0, 52, 0
4, 39456, Note_on_c, 0, 61, 64
4, 39479, Note_on_c, 0, 61, 0
4, 39480, Note_on_c, 0, 59, 64
4, 39503, Note_on_c, 0, 59, 0
4, 39504, Note_on_c, 0, 61, 64
4, 39527, Note_on_c, 0, 61, 0
4, 39528, Note_on_c, 0, 59, 64
4, 39551, Note_on_c, 0, 59, 0
4, 39552, Note_on_c, 0, 57, 64
4, 39575, Note_on_c, 0, 57, 0
4, 39576, Note_on_c, 0, 56, 64
4, 39599, Note_on_c, 0, 56, 0
4, 39600, Note_on_c, 0, 57, 64
4, 39623, Note_on_c, 0, 57, 0
4, 39624, Note_on_c, 0, 56, 64
4, 39647, Note_on_c, 0, 56, 0
4, 39648, Note_on_c, 0, 54, 64
4, 39671, Note_on_c, 0, 54, 0
4, 39672, Note_on_c, 0, 52, 64
4, 39695, Note_on_c, 0, 52, 0
4, 39696, Note_on_c, 0, 54, 64
4, 39719, Note_on_c, 0, 54, 0
4, 39720, Note_on_c, 0, 52, 64
4, 39743, Note_on_c, 0, 52, 0
4, 39744, Note_on_c, 0, 51, 64
4, 39767, Note_on_c, 0, 51, 0
4, 39768, Note_on_c, 0, 49, 64
4, 39791, Note_on_c, 0, 49, 0
4, 39792, Note_on_c, 0, 51, 64
4, 39815, Note_on_c, 0, 51, 0
4, 39816, Note_on_c, 0, 49, 64
4, 39839, Note_on_c, 0, 49, 0
4, 39840, Note_on_c, 0, 47, 64
4, 39863, Note_on_c, 0, 47, 0
4, 39864, Note_on_c, 0, 45, 64
4, 39887, Note_on_c, 0, 45, 0
4, 39888, Note_on_c, 0, 47, 64
4, 39911, Note_on_c, 0, 47, 0
4, 39912, Note_on_c, 0, 45, 64
4, 39935, Note_on_c, 0, 45, 0
4, 39936, Note_on_c, 0, 44, 64
4, 39959, Note_on_c, 0, 44, 0
4, 39960, Note_on_c, 0, 42, 64
4, 39983, Note_on_c, 0, 42, 0
4, 39984, Note_on_c, 0, 44, 64
4, 40007, Note_on_c, 0, 44, 0
4, 40008, Note_on_c, 0, 42, 64
4, 40031, Note_on_c, 0, 42, 0
4, 40032, Note_on_c, 0, 40, 64
4, 40077, Note_on_c, 0, 40, 0
4, 40080, Note_on_c, 0, 44, 64
4, 40125, Note_on_c, 0, 44, 0
4, 40128, Note_on_c, 0, 47, 64
4, 40173, Note_on_c, 0, 47, 0
4, 40176, Note_on_c, 0, 52, 64
4, 40221, Note_on_c, 0, 52, 0
4, 40224, Note_on_c, 0, 56, 64
4, 40269, Note_on_c, 0, 56, 0
4, 40272, Note_on_c, 0, 52, 64
4, 40317, Note_on_c, 0, 52, 0
4, 40320, Note_on_c, 0, 57, 64
4, 40697, Note_on_c, 0, 57, 0
4, 40752, Note_on_c, 0, 61, 64
4, 40797, Note_on_c, 0, 61, 0
4, 40800, Note_on_c, 0, 59, 64
4, 40845, Note_on_c, 0, 59, 0
4, 40848, Note_on_c, 0, 57, 64
4, 40893, Note_on_c, 0, 57, 0
4, 40896, Note_on_c, 0, 56, 64
4, 40985, Note_on_c, 0, 56, 0
4, 41040, Note_on_c, 0, 56, 64
4, 41085, Note_on_c, 0, 56, 0
4, 41088, Note_on_c, 0, 54, 64
4, 41133, Note_on_c, 0, 54, 0
4, 41136, Note_on_c, 0, 52, 64
4, 41181, Note_on_c, 0, 52, 0
4, 41184, Note_on_c, 0, 51, 64
4, 41273, Note_on_c, 0, 51, 0
4, 41328, Note_on_c, 0, 51, 64
4, 41373, Note_on_c, 0, 51, 0
4, 41376, Note_on_c, 0, 49, 64
4, 41421, Note_on_c, 0, 49, 0
4, 41424, Note_on_c, 0, 47, 64
4, 41469, Note_on_c, 0, 47, 0
4, 41472, Note_on_c, 0, 52, 64
4, 41561, Note_on_c, 0, 52, 0
4, 41616, Note_on_c, 0, 54, 64
4, 41661, Note_on_c, 0, 54, 0
4, 41664, Note_on_c, 0, 52, 64
4, 41709, Note_on_c, 0, 52, 0
4, 41712, Note_on_c, 0, 50, 64
4, 41757, Note_on_c, 0, 50, 0
4, 41760, Note_on_c, 0, 49, 64
4, 41849, Note_on_c, 0, 49, 0
4, 41904, Note_on_c, 0, 49, 64
4, 41949, Note_on_c, 0, 49, 0
4, 41952, Note_on_c, 0, 47, 64
4, 41997, Note_on_c, 0, 47, 0
4, 42000, Note_on_c, 0, 45, 64
4, 42045, Note_on_c, 0, 45, 0
4, 42048, Note_on_c, 0, 44, 64
4, 42137, Note_on_c, 0, 44, 0
4, 42192, Note_on_c, 0, 44, 64
4, 42237, Note_on_c, 0, 44, 0
4, 42240, Note_on_c, 0, 42, 64
4, 42285, Note_on_c, 0, 42, 0
4, 42288, Note_on_c, 0, 40, 64
4, 42333, Note_on_c, 0, 40, 0
4, 42336, Note_on_c, 0, 45, 64
4, 42381, Note_on_c, 0, 45, 0
4, 42384, Note_on_c, 0, 47, 64
4, 42429, Note_on_c, 0, 47, 0
4, 42432, Note_on_c, 0, 49, 64
4, 42477, Note_on_c, 0, 49, 0
4, 42480, Note_on_c, 0, 47, 64
4, 42525, Note_on_c, 0, 47, 0
4, 42528, Note_on_c, 0, 45, 64
4, 42573, Note_on_c, 0, 45, 0
4, 42576, Note_on_c, 0, 42, 64
4, 42621, Note_on_c, 0, 42, 0
4, 42624, Note_on_c, 0, 47, 64
4, 42669, Note_on_c, 0, 47, 0
4, 42672, Note_on_c, 0, 46, 64
4, 42717, Note_on_c, 0, 46, 0
4, 42720, Note_on_c, 0, 47, 64
4, 42765, Note_on_c, 0, 47, 0
4, 42768, Note_on_c, 0, 49, 64
4, 42813, Note_on_c, 0, 49, 0
4, 42816, Note_on_c, 0, 51, 64
4, 42861, Note_on_c, 0, 51, 0
4, 42864, Note_on_c, 0, 47, 64
4, 42909, Note_on_c, 0, 47, 0
4, 42912, Note_on_c, 0, 52, 64
4, 42957, Note_on_c, 0, 52, 0
4, 42960, Note_on_c, 0, 51, 64
4, 43005, Note_on_c, 0, 51, 0
4, 43008, Note_on_c, 0, 52, 64
4, 43053, Note_on_c, 0, 52, 0
4, 43056, Note_on_c, 0, 54, 64
4, 43101, Note_on_c, 0, 54, 0
4, 43104, Note_on_c, 0, 56, 64
4, 43149, Note_on_c, 0, 56, 0
4, 43152, Note_on_c, 0, 52, 64
4, 43197, Note_on_c, 0, 52, 0
4, 43200, Note_on_c, 0, 57, 64
4, 43245, Note_on_c, 0, 57, 0
4, 43248, Note_on_c, 0, 56, 64
4, 43293, Note_on_c, 0, 56, 0
4, 43296, Note_on_c, 0, 57, 64
4, 43341, Note_on_c, 0, 57, 0
4, 43344, Note_on_c, 0, 59, 64
4, 43389, Note_on_c, 0, 59, 0
4, 43392, Note_on_c, 0, 61, 64
4, 43437, Note_on_c, 0, 61, 0
4, 43440, Note_on_c, 0, 57, 64
4, 43485, Note_on_c, 0, 57, 0
4, 43488, Note_on_c, 0, 59, 64
4, 43511, Note_on_c, 0, 59, 0
4, 43512, Note_on_c, 0, 57, 64
4, 43535, Note_on_c, 0, 57, 0
4, 43536, Note_on_c, 0, 59, 64
4, 43559, Note_on_c, 0, 59, 0
4, 43560, Note_on_c, 0, 57, 64
4, 43583, Note_on_c, 0, 57, 0
4, 43584, Note_on_c, 0, 56, 64
4, 43607, Note_on_c, 0, 56, 0
4, 43608, Note_on_c, 0, 54, 64
4, 43631, Note_on_c, 0, 54, 0
4, 43632, Note_on_c, 0, 56, 64
4, 43655, Note_on_c, 0, 56, 0
4, 43656, Note_on_c, 0, 54, 64
4, 43679, Note_on_c, 0, 54, 0
4, 43680, Note_on_c, 0, 52, 64
4, 43703, Note_on_c, 0, 52, 0
4, 43704, Note_on_c, 0, 51, 64
4, 43727, Note_on_c, 0, 51, 0
4, 43728, Note_on_c, 0, 52, 64
4, 43751, Note_on_c, 0, 52, 0
4, 43752, Note_on_c, 0, 51, 64
4, 43775, Note_on_c, 0, 51, 0
4, 43776, Note_on_c, 0, 49, 64
4, 43799, Note_on_c, 0, 49, 0
4, 43800, Note_on_c, 0, 47, 64
4, 43823, Note_on_c, 0, 47, 0
4, 43824, Note_on_c, 0, 49, 64
4, 43847, Note_on_c, 0, 49, 0
4, 43848, Note_on_c, 0, 45, 64
4, 43871, Note_on_c, 0, 45, 0
4, 43872, Note_on_c, 0, 47, 64
4, 43961, Note_on_c, 0, 47, 0
4, 43968, Note_on_c, 0, 47, 64
4, 44057, Note_on_c, 0, 47, 0
4, 44064, Note_on_c, 0, 40, 64
4, 44153, Note_on_c, 0, 40, 0
4, 44153, End_track
5, 0, Start_track
5, 0, MIDI_port, 0
5, 0, Title_t, "Sonata No. 3 en Mi Mayor"
5, 0, End_track
6, 0, Start_track
6, 0, MIDI_port, 0
6, 0, Title_t, "Para violin y clavicembalo"
6, 0, End_track
7, 0, Start_track
7, 0, MIDI_port, 0
7, 0, Title_t, "Cuarto Movimiento: Allegro"
7, 0, End_track
8, 0, Start_track
8, 0, MIDI_port, 0
8, 0, Title_t, "J. S. Bach (1685-1750)"
8, 0, End_track
9, 0, Start_track
9, 0, MIDI_port, 0
9, 0, Title_t, "Copyright Luis Gerardo Barajas"
9, 0, End_track
10, 0, Start_track
10, 0, MIDI_port, 0
10, 0, Title_t, "*** Bach Keeps RuLiNg!!!"
10, 0, End_track
0, 0, End_of_file
