0, 0, Header, 1, 10, 96
1, 0, Start_track
1, 0, Sequencer_specific, 3, 0, 0, 65
1, 0, Time_signature, 4, 2, 24, 8
1, 0, Key_signature, 4, "major"
1, 0, Tempo, 1333333
1, 11800, Tempo, 1224490
1, 11808, Tempo, 1250000
1, 11872, Tempo, 1276596
1, 11936, Tempo, 1304348
1, 12000, Tempo, 1333333
1, 12064, Tempo, 1363636
1, 12128, Tempo, 1395349
1, 12192, Tempo, 1428571
1, 12256, Tempo, 1463415
1, 12320, Tempo, 1500000
1, 12384, Tempo, 1538462
1, 12448, Tempo, 1578947
1, 12512, Tempo, 1621622
1, 12568, Tempo, 1578947
1, 12584, Tempo, 1538462
1, 12592, Tempo, 1500000
1, 12600, Tempo, 1463415
1, 12608, Tempo, 1428571
1, 12616, Tempo, 1395349
1, 12624, Tempo, 1363636
1, 12632, Tempo, 1333333
1, 12640, Tempo, 1304348
1, 12648, Tempo, 1276596
1, 12656, Tempo, 1250000
1, 12660, Tempo, 333333
1, 12660, End_track
2, 0, Start_track
2, 0, MIDI_port, 0
2, 0, Title_t, "Violin"
2, 0, Program_c, 1, 40
2, 0, Control_c, 1, 7, 127
2, 48, Note_on_c, 1, 71, 64
2, 93, Note_on_c, 1, 71, 0
2, 96, Note_on_c, 1, 76, 64
2, 141, Note_on_c, 1, 76, 0
2, 144, Note_on_c, 1, 80, 64
2, 168, Note_on_c, 1, 80, 0
2, 168, Note_on_c, 1, 78, 64
2, 191, Note_on_c, 1, 78, 0
2, 192, Note_on_c, 1, 80, 64
2, 237, Note_on_c, 1, 80, 0
2, 240, Note_on_c, 1, 76, 64
2, 285, Note_on_c, 1, 76, 0
2, 288, Note_on_c, 1, 80, 64
2, 333, Note_on_c, 1, 80, 0
2, 336, Note_on_c, 1, 83, 64
2, 360, Note_on_c, 1, 83, 0
2, 360, Note_on_c, 1, 81, 64
2, 383, Note_on_c, 1, 81, 0
2, 384, Note_on_c, 1, 83, 64
2, 492, Note_on_c, 1, 83, 0
2, 492, Note_on_c, 1, 81, 64
2, 504, Note_on_c, 1, 81, 0
2, 504, Note_on_c, 1, 80, 64
2, 516, Note_on_c, 1, 80, 0
2, 516, Note_on_c, 1, 78, 64
2, 528, Note_on_c, 1, 78, 0
2, 528, Note_on_c, 1, 76, 64
2, 540, Note_on_c, 1, 76, 0
2, 540, Note_on_c, 1, 78, 64
2, 552, Note_on_c, 1, 78, 0
2, 552, Note_on_c, 1, 80, 64
2, 564, Note_on_c, 1, 80, 0
2, 564, Note_on_c, 1, 81, 64
2, 576, Note_on_c, 1, 81, 0
2, 576, Note_on_c, 1, 83, 64
2, 588, Note_on_c, 1, 83, 0
2, 588, Note_on_c, 1, 81, 64
2, 600, Note_on_c, 1, 81, 0
2, 600, Note_on_c, 1, 83, 64
2, 612, Note_on_c, 1, 83, 0
2, 612, Note_on_c, 1, 85, 64
2, 624, Note_on_c, 1, 85, 0
2, 624, Note_on_c, 1, 83, 64
2, 636, Note_on_c, 1, 83, 0
2, 636, Note_on_c, 1, 85, 64
2, 648, Note_on_c, 1, 85, 0
2, 648, Note_on_c, 1, 86, 64
2, 654, Note_on_c, 1, 86, 0
2, 654, Note_on_c, 1, 85, 64
2, 660, Note_on_c, 1, 85, 0
2, 660, Note_on_c, 1, 86, 64
2, 672, Note_on_c, 1, 86, 0
2, 672, Note_on_c, 1, 86, 64
2, 678, Note_on_c, 1, 86, 0
2, 678, Note_on_c, 1, 88, 64
2, 684, Note_on_c, 1, 88, 0
2, 684, Note_on_c, 1, 86, 64
2, 690, Note_on_c, 1, 86, 0
2, 690, Note_on_c, 1, 88, 64
2, 696, Note_on_c, 1, 88, 0
2, 696, Note_on_c, 1, 86, 64
2, 702, Note_on_c, 1, 86, 0
2, 702, Note_on_c, 1, 88, 64
2, 708, Note_on_c, 1, 88, 0
2, 708, Note_on_c, 1, 86, 64
2, 714, Note_on_c, 1, 86, 0
2, 714, Note_on_c, 1, 88, 64
2, 720, Note_on_c, 1, 88, 0
2, 720, Note_on_c, 1, 86, 64
2, 726, Note_on_c, 1, 86, 0
2, 726, Note_on_c, 1, 88, 64
2, 732, Note_on_c, 1, 88, 0
2, 732, Note_on_c, 1, 86, 64
2, 738, Note_on_c, 1, 86, 0
2, 738, Note_on_c, 1, 88, 64
2, 744, Note_on_c, 1, 88, 0
2, 744, Note_on_c, 1, 88, 64
2, 767, Note_on_c, 1, 88, 0
2, 768, Note_on_c, 1, 85, 64
2, 1020, Note_on_c, 1, 85, 0
2, 1020, Note_on_c, 1, 83, 64
2, 1032, Note_on_c, 1, 83, 0
2, 1032, Note_on_c, 1, 81, 64
2, 1044, Note_on_c, 1, 81, 0
2, 1044, Note_on_c, 1, 80, 64
2, 1056, Note_on_c, 1, 80, 0
2, 1056, Note_on_c, 1, 78, 64
2, 1068, Note_on_c, 1, 78, 0
2, 1068, Note_on_c, 1, 80, 64
2, 1080, Note_on_c, 1, 80, 0
2, 1080, Note_on_c, 1, 81, 64
2, 1092, Note_on_c, 1, 81, 0
2, 1092, Note_on_c, 1, 78, 64
2, 1104, Note_on_c, 1, 78, 0
2, 1104, Note_on_c, 1, 75, 64
2, 1116, Note_on_c, 1, 75, 0
2, 1116, Note_on_c, 1, 76, 64
2, 1128, Note_on_c, 1, 76, 0
2, 1128, Note_on_c, 1, 78, 64
2, 1140, Note_on_c, 1, 78, 0
2, 1140, Note_on_c, 1, 75, 64
2, 1152, Note_on_c, 1, 75, 0
2, 1152, Note_on_c, 1, 71, 64
2, 1260, Note_on_c, 1, 71, 0
2, 1260, Note_on_c, 1, 73, 64
2, 1272, Note_on_c, 1, 73, 0
2, 1272, Note_on_c, 1, 71, 64
2, 1284, Note_on_c, 1, 71, 0
2, 1284, Note_on_c, 1, 73, 64
2, 1296, Note_on_c, 1, 73, 0
2, 1296, Note_on_c, 1, 75, 64
2, 1308, Note_on_c, 1, 75, 0
2, 1308, Note_on_c, 1, 76, 64
2, 1320, Note_on_c, 1, 76, 0
2, 1320, Note_on_c, 1, 75, 64
2, 1332, Note_on_c, 1, 75, 0
2, 1332, Note_on_c, 1, 76, 64
2, 1344, Note_on_c, 1, 76, 0
2, 1344, Note_on_c, 1, 78, 64
2, 1356, Note_on_c, 1, 78, 0
2, 1356, Note_on_c, 1, 80, 64
2, 1368, Note_on_c, 1, 80, 0
2, 1368, Note_on_c, 1, 78, 64
2, 1380, Note_on_c, 1, 78, 0
2, 1380, Note_on_c, 1, 80, 64
2, 1392, Note_on_c, 1, 80, 0
2, 1392, Note_on_c, 1, 81, 64
2, 1404, Note_on_c, 1, 81, 0
2, 1404, Note_on_c, 1, 78, 64
2, 1416, Note_on_c, 1, 78, 0
2, 1416, Note_on_c, 1, 75, 64
2, 1428, Note_on_c, 1, 75, 0
2, 1428, Note_on_c, 1, 71, 64
2, 1440, Note_on_c, 1, 71, 0
2, 1440, Note_on_c, 1, 71, 64
2, 1488, Note_on_c, 1, 71, 0
2, 1488, Note_on_c, 1, 69, 64
2, 1494, Note_on_c, 1, 69, 0
2, 1494, Note_on_c, 1, 71, 64
2, 1500, Note_on_c, 1, 71, 0
2, 1500, Note_on_c, 1, 69, 64
2, 1506, Note_on_c, 1, 69, 0
2, 1506, Note_on_c, 1, 71, 64
2, 1512, Note_on_c, 1, 71, 0
2, 1512, Note_on_c, 1, 69, 64
2, 1518, Note_on_c, 1, 69, 0
2, 1518, Note_on_c, 1, 71, 64
2, 1524, Note_on_c, 1, 71, 0
2, 1524, Note_on_c, 1, 68, 64
2, 1536, Note_on_c, 1, 68, 0
2, 1536, Note_on_c, 1, 68, 64
2, 1644, Note_on_c, 1, 68, 0
2, 1644, Note_on_c, 1, 71, 64
2, 1656, Note_on_c, 1, 71, 0
2, 1656, Note_on_c, 1, 69, 64
2, 1668, Note_on_c, 1, 69, 0
2, 1668, Note_on_c, 1, 73, 64
2, 1680, Note_on_c, 1, 73, 0
2, 1680, Note_on_c, 1, 71, 64
2, 1692, Note_on_c, 1, 71, 0
2, 1692, Note_on_c, 1, 69, 64
2, 1704, Note_on_c, 1, 69, 0
2, 1704, Note_on_c, 1, 68, 64
2, 1716, Note_on_c, 1, 68, 0
2, 1716, Note_on_c, 1, 69, 64
2, 1722, Note_on_c, 1, 69, 0
2, 1722, Note_on_c, 1, 66, 64
2, 1728, Note_on_c, 1, 66, 0
2, 1728, Note_on_c, 1, 64, 64
2, 1817, Note_on_c, 1, 64, 0
2, 1968, Note_on_c, 1, 80, 64
2, 2013, Note_on_c, 1, 80, 0
2, 2016, Note_on_c, 1, 76, 64
2, 2061, Note_on_c, 1, 76, 0
2, 2064, Note_on_c, 1, 73, 64
2, 2088, Note_on_c, 1, 73, 0
2, 2088, Note_on_c, 1, 72, 64
2, 2111, Note_on_c, 1, 72, 0
2, 2112, Note_on_c, 1, 73, 64
2, 2157, Note_on_c, 1, 73, 0
2, 2160, Note_on_c, 1, 76, 64
2, 2205, Note_on_c, 1, 76, 0
2, 2208, Note_on_c, 1, 73, 64
2, 2253, Note_on_c, 1, 73, 0
2, 2256, Note_on_c, 1, 71, 64
2, 2262, Note_on_c, 1, 71, 0
2, 2262, Note_on_c, 1, 73, 64
2, 2268, Note_on_c, 1, 73, 0
2, 2268, Note_on_c, 1, 71, 64
2, 2274, Note_on_c, 1, 71, 0
2, 2274, Note_on_c, 1, 73, 64
2, 2280, Note_on_c, 1, 73, 0
2, 2280, Note_on_c, 1, 70, 64
2, 2292, Note_on_c, 1, 70, 0
2, 2292, Note_on_c, 1, 71, 64
2, 2304, Note_on_c, 1, 71, 0
2, 2304, Note_on_c, 1, 70, 64
2, 2393, Note_on_c, 1, 70, 0
2, 2400, Note_on_c, 1, 70, 64
2, 2412, Note_on_c, 1, 70, 0
2, 2412, Note_on_c, 1, 68, 64
2, 2424, Note_on_c, 1, 68, 0
2, 2424, Note_on_c, 1, 66, 64
2, 2436, Note_on_c, 1, 66, 0
2, 2436, Note_on_c, 1, 68, 64
2, 2448, Note_on_c, 1, 68, 0
2, 2448, Note_on_c, 1, 70, 64
2, 2460, Note_on_c, 1, 70, 0
2, 2460, Note_on_c, 1, 71, 64
2, 2472, Note_on_c, 1, 71, 0
2, 2472, Note_on_c, 1, 73, 64
2, 2484, Note_on_c, 1, 73, 0
2, 2484, Note_on_c, 1, 75, 64
2, 2496, Note_on_c, 1, 75, 0
2, 2496, Note_on_c, 1, 76, 64
2, 2508, Note_on_c, 1, 76, 0
2, 2508, Note_on_c, 1, 75, 64
2, 2520, Note_on_c, 1, 75, 0
2, 2520, Note_on_c, 1, 73, 64
2, 2532, Note_on_c, 1, 73, 0
2, 2532, Note_on_c, 1, 75, 64
2, 2544, Note_on_c, 1, 75, 0
2, 2544, Note_on_c, 1, 76, 64
2, 2556, Note_on_c, 1, 76, 0
2, 2556, Note_on_c, 1, 78, 64
2, 2568, Note_on_c, 1, 78, 0
2, 2568, Note_on_c, 1, 80, 64
2, 2580, Note_on_c, 1, 80, 0
2, 2580, Note_on_c, 1, 82, 64
2, 2592, Note_on_c, 1, 82, 0
2, 2592, Note_on_c, 1, 83, 64
2, 2604, Note_on_c, 1, 83, 0
2, 2604, Note_on_c, 1, 82, 64
2, 2616, Note_on_c, 1, 82, 0
2, 2616, Note_on_c, 1, 85, 64
2, 2628, Note_on_c, 1, 85, 0
2, 2628, Note_on_c, 1, 83, 64
2, 2640, Note_on_c, 1, 83, 0
2, 2640, Note_on_c, 1, 82, 64
2, 2652, Note_on_c, 1, 82, 0
2, 2652, Note_on_c, 1, 83, 64
2, 2664, Note_on_c, 1, 83, 0
2, 2664, Note_on_c, 1, 85, 64
2, 2676, Note_on_c, 1, 85, 0
2, 2676, Note_on_c, 1, 82, 64
2, 2688, Note_on_c, 1, 82, 0
2, 2688, Note_on_c, 1, 78, 64
2, 2940, Note_on_c, 1, 78, 0
2, 2940, Note_on_c, 1, 71, 64
2, 2952, Note_on_c, 1, 71, 0
2, 2952, Note_on_c, 1, 75, 64
2, 2964, Note_on_c, 1, 75, 0
2, 2964, Note_on_c, 1, 78, 64
2, 2976, Note_on_c, 1, 78, 0
2, 2976, Note_on_c, 1, 83, 64
2, 2988, Note_on_c, 1, 83, 0
2, 2988, Note_on_c, 1, 82, 64
2, 3000, Note_on_c, 1, 82, 0
2, 3000, Note_on_c, 1, 80, 64
2, 3012, Note_on_c, 1, 80, 0
2, 3012, Note_on_c, 1, 78, 64
2, 3024, Note_on_c, 1, 78, 0
2, 3024, Note_on_c, 1, 76, 64
2, 3036, Note_on_c, 1, 76, 0
2, 3036, Note_on_c, 1, 75, 64
2, 3048, Note_on_c, 1, 75, 0
2, 3048, Note_on_c, 1, 78, 64
2, 3060, Note_on_c, 1, 78, 0
2, 3060, Note_on_c, 1, 76, 64
2, 3072, Note_on_c, 1, 76, 0
2, 3072, Note_on_c, 1, 76, 64
2, 3309, Note_on_c, 1, 76, 0
2, 3312, Note_on_c, 1, 82, 64
2, 3335, Note_on_c, 1, 82, 0
2, 3336, Note_on_c, 1, 83, 64
2, 3348, Note_on_c, 1, 83, 0
2, 3348, Note_on_c, 1, 85, 64
2, 3360, Note_on_c, 1, 85, 0
2, 3360, Note_on_c, 1, 83, 64
2, 3372, Note_on_c, 1, 83, 0
2, 3372, Note_on_c, 1, 82, 64
2, 3384, Note_on_c, 1, 82, 0
2, 3384, Note_on_c, 1, 80, 64
2, 3396, Note_on_c, 1, 80, 0
2, 3396, Note_on_c, 1, 78, 64
2, 3408, Note_on_c, 1, 78, 0
2, 3408, Note_on_c, 1, 76, 64
2, 3414, Note_on_c, 1, 76, 0
2, 3414, Note_on_c, 1, 78, 64
2, 3420, Note_on_c, 1, 78, 0
2, 3420, Note_on_c, 1, 76, 64
2, 3426, Note_on_c, 1, 76, 0
2, 3426, Note_on_c, 1, 78, 64
2, 3432, Note_on_c, 1, 78, 0
2, 3432, Note_on_c, 1, 75, 64
2, 3444, Note_on_c, 1, 75, 0
2, 3444, Note_on_c, 1, 76, 64
2, 3456, Note_on_c, 1, 76, 0
2, 3456, Note_on_c, 1, 75, 64
2, 3564, Note_on_c, 1, 75, 0
2, 3564, Note_on_c, 1, 78, 64
2, 3576, Note_on_c, 1, 78, 0
2, 3576, Note_on_c, 1, 76, 64
2, 3588, Note_on_c, 1, 76, 0
2, 3588, Note_on_c, 1, 80, 64
2, 3600, Note_on_c, 1, 80, 0
2, 3600, Note_on_c, 1, 78, 64
2, 3612, Note_on_c, 1, 78, 0
2, 3612, Note_on_c, 1, 76, 64
2, 3624, Note_on_c, 1, 76, 0
2, 3624, Note_on_c, 1, 75, 64
2, 3636, Note_on_c, 1, 75, 0
2, 3636, Note_on_c, 1, 76, 64
2, 3642, Note_on_c, 1, 76, 0
2, 3642, Note_on_c, 1, 73, 64
2, 3648, Note_on_c, 1, 73, 0
2, 3648, Note_on_c, 1, 71, 64
2, 3737, Note_on_c, 1, 71, 0
2, 3888, Note_on_c, 1, 86, 64
2, 3933, Note_on_c, 1, 86, 0
2, 3936, Note_on_c, 1, 83, 64
2, 3981, Note_on_c, 1, 83, 0
2, 3984, Note_on_c, 1, 80, 64
2, 4029, Note_on_c, 1, 80, 0
2, 4032, Note_on_c, 1, 77, 64
2, 4140, Note_on_c, 1, 77, 0
2, 4140, Note_on_c, 1, 78, 64
2, 4152, Note_on_c, 1, 78, 0
2, 4152, Note_on_c, 1, 77, 64
2, 4164, Note_on_c, 1, 77, 0
2, 4164, Note_on_c, 1, 78, 64
2, 4176, Note_on_c, 1, 78, 0
2, 4176, Note_on_c, 1, 80, 64
2, 4188, Note_on_c, 1, 80, 0
2, 4188, Note_on_c, 1, 77, 64
2, 4200, Note_on_c, 1, 77, 0
2, 4200, Note_on_c, 1, 78, 64
2, 4212, Note_on_c, 1, 78, 0
2, 4212, Note_on_c, 1, 80, 64
2, 4224, Note_on_c, 1, 80, 0
2, 4224, Note_on_c, 1, 73, 64
2, 4343, Note_on_c, 1, 73, 0
2, 4344, Note_on_c, 1, 73, 64
2, 4367, Note_on_c, 1, 73, 0
2, 4368, Note_on_c, 1, 75, 64
2, 4391, Note_on_c, 1, 75, 0
2, 4392, Note_on_c, 1, 78, 64
2, 4404, Note_on_c, 1, 78, 0
2, 4404, Note_on_c, 1, 77, 64
2, 4416, Note_on_c, 1, 77, 0
2, 4416, Note_on_c, 1, 78, 64
2, 4524, Note_on_c, 1, 78, 0
2, 4524, Note_on_c, 1, 77, 64
2, 4536, Note_on_c, 1, 77, 0
2, 4536, Note_on_c, 1, 78, 64
2, 4548, Note_on_c, 1, 78, 0
2, 4548, Note_on_c, 1, 80, 64
2, 4560, Note_on_c, 1, 80, 0
2, 4560, Note_on_c, 1, 81, 64
2, 4572, Note_on_c, 1, 81, 0
2, 4572, Note_on_c, 1, 80, 64
2, 4584, Note_on_c, 1, 80, 0
2, 4584, Note_on_c, 1, 83, 64
2, 4596, Note_on_c, 1, 83, 0
2, 4596, Note_on_c, 1, 81, 64
2, 4608, Note_on_c, 1, 81, 0
2, 4608, Note_on_c, 1, 83, 64
2, 4727, Note_on_c, 1, 83, 0
2, 4728, Note_on_c, 1, 81, 64
2, 4751, Note_on_c, 1, 81, 0
2, 4752, Note_on_c, 1, 80, 64
2, 4775, Note_on_c, 1, 80, 0
2, 4776, Note_on_c, 1, 81, 64
2, 4788, Note_on_c, 1, 81, 0
2, 4788, Note_on_c, 1, 78, 64
2, 4800, Note_on_c, 1, 78, 0
2, 4800, Note_on_c, 1, 77, 64
2, 4823, Note_on_c, 1, 77, 0
2, 4824, Note_on_c, 1, 80, 64
2, 4847, Note_on_c, 1, 80, 0
2, 4848, Note_on_c, 1, 83, 64
2, 4871, Note_on_c, 1, 83, 0
2, 4872, Note_on_c, 1, 86, 64
2, 4919, Note_on_c, 1, 86, 0
2, 4920, Note_on_c, 1, 85, 64
2, 4932, Note_on_c, 1, 85, 0
2, 4932, Note_on_c, 1, 83, 64
2, 4944, Note_on_c, 1, 83, 0
2, 4944, Note_on_c, 1, 81, 64
2, 4956, Note_on_c, 1, 81, 0
2, 4956, Note_on_c, 1, 83, 64
2, 4968, Note_on_c, 1, 83, 0
2, 4968, Note_on_c, 1, 80, 64
2, 4991, Note_on_c, 1, 80, 0
2, 4992, Note_on_c, 1, 81, 64
2, 5111, Note_on_c, 1, 81, 0
2, 5112, Note_on_c, 1, 80, 64
2, 5135, Note_on_c, 1, 80, 0
2, 5136, Note_on_c, 1, 78, 64
2, 5148, Note_on_c, 1, 78, 0
2, 5148, Note_on_c, 1, 77, 64
2, 5160, Note_on_c, 1, 77, 0
2, 5160, Note_on_c, 1, 78, 64
2, 5183, Note_on_c, 1, 78, 0
2, 5184, Note_on_c, 1, 78, 64
2, 5273, Note_on_c, 1, 78, 0
2, 5424, Note_on_c, 1, 81, 64
2, 5469, Note_on_c, 1, 81, 0
2, 5472, Note_on_c, 1, 78, 64
2, 5517, Note_on_c, 1, 78, 0
2, 5520, Note_on_c, 1, 74, 64
2, 5544, Note_on_c, 1, 74, 0
2, 5544, Note_on_c, 1, 73, 64
2, 5567, Note_on_c, 1, 73, 0
2, 5568, Note_on_c, 1, 74, 64
2, 5613, Note_on_c, 1, 74, 0
2, 5616, Note_on_c, 1, 78, 64
2, 5661, Note_on_c, 1, 78, 0
2, 5664, Note_on_c, 1, 74, 64
2, 5709, Note_on_c, 1, 74, 0
2, 5712, Note_on_c, 1, 73, 64
2, 5718, Note_on_c, 1, 73, 0
2, 5718, Note_on_c, 1, 74, 64
2, 5724, Note_on_c, 1, 74, 0
2, 5724, Note_on_c, 1, 72, 64
2, 5736, Note_on_c, 1, 72, 0
2, 5736, Note_on_c, 1, 73, 64
2, 5759, Note_on_c, 1, 73, 0
2, 5760, Note_on_c, 1, 72, 64
2, 5805, Note_on_c, 1, 72, 0
2, 5808, Note_on_c, 1, 87, 64
2, 5868, Note_on_c, 1, 87, 0
2, 5868, Note_on_c, 1, 88, 64
2, 5880, Note_on_c, 1, 88, 0
2, 5880, Note_on_c, 1, 87, 64
2, 5892, Note_on_c, 1, 87, 0
2, 5892, Note_on_c, 1, 85, 64
2, 5898, Note_on_c, 1, 85, 0
2, 5898, Note_on_c, 1, 84, 64
2, 5904, Note_on_c, 1, 84, 0
2, 5904, Note_on_c, 1, 82, 64
2, 5910, Note_on_c, 1, 82, 0
2, 5910, Note_on_c, 1, 84, 64
2, 5916, Note_on_c, 1, 84, 0
2, 5916, Note_on_c, 1, 82, 64
2, 5922, Note_on_c, 1, 82, 0
2, 5922, Note_on_c, 1, 84, 64
2, 5928, Note_on_c, 1, 84, 0
2, 5928, Note_on_c, 1, 82, 64
2, 5934, Note_on_c, 1, 82, 0
2, 5934, Note_on_c, 1, 84, 64
2, 5940, Note_on_c, 1, 84, 0
2, 5940, Note_on_c, 1, 80, 64
2, 5952, Note_on_c, 1, 80, 0
2, 5952, Note_on_c, 1, 85, 64
2, 6060, Note_on_c, 1, 85, 0
2, 6060, Note_on_c, 1, 83, 64
2, 6072, Note_on_c, 1, 83, 0
2, 6072, Note_on_c, 1, 81, 64
2, 6084, Note_on_c, 1, 81, 0
2, 6084, Note_on_c, 1, 80, 64
2, 6096, Note_on_c, 1, 80, 0
2, 6096, Note_on_c, 1, 78, 64
2, 6108, Note_on_c, 1, 78, 0
2, 6108, Note_on_c, 1, 76, 64
2, 6120, Note_on_c, 1, 76, 0
2, 6120, Note_on_c, 1, 75, 64
2, 6126, Note_on_c, 1, 75, 0
2, 6126, Note_on_c, 1, 72, 64
2, 6132, Note_on_c, 1, 72, 0
2, 6132, Note_on_c, 1, 73, 64
2, 6144, Note_on_c, 1, 73, 0
2, 6144, Note_on_c, 1, 66, 64
2, 6167, Note_on_c, 1, 66, 0
2, 6168, Note_on_c, 1, 69, 64
2, 6191, Note_on_c, 1, 69, 0
2, 6192, Note_on_c, 1, 72, 64
2, 6215, Note_on_c, 1, 72, 0
2, 6216, Note_on_c, 1, 75, 64
2, 6239, Note_on_c, 1, 75, 0
2, 6240, Note_on_c, 1, 81, 64
2, 6348, Note_on_c, 1, 81, 0
2, 6348, Note_on_c, 1, 80, 64
2, 6371, Note_on_c, 1, 80, 0
2, 6372, Note_on_c, 1, 78, 64
2, 6395, Note_on_c, 1, 78, 0
2, 6396, Note_on_c, 1, 76, 64
2, 6419, Note_on_c, 1, 76, 0
2, 6420, Note_on_c, 1, 75, 64
2, 6432, Note_on_c, 1, 75, 0
2, 6432, Note_on_c, 1, 73, 64
2, 6444, Note_on_c, 1, 73, 0
2, 6444, Note_on_c, 1, 72, 64
2, 6467, Note_on_c, 1, 72, 0
2, 6468, Note_on_c, 1, 75, 64
2, 6480, Note_on_c, 1, 75, 0
2, 6480, Note_on_c, 1, 69, 64
2, 6486, Note_on_c, 1, 69, 0
2, 6486, Note_on_c, 1, 72, 64
2, 6492, Note_on_c, 1, 72, 0
2, 6492, Note_on_c, 1, 69, 64
2, 6498, Note_on_c, 1, 69, 0
2, 6498, Note_on_c, 1, 72, 64
2, 6504, Note_on_c, 1, 72, 0
2, 6504, Note_on_c, 1, 68, 64
2, 6516, Note_on_c, 1, 68, 0
2, 6516, Note_on_c, 1, 69, 64
2, 6522, Note_on_c, 1, 69, 0
2, 6522, Note_on_c, 1, 66, 64
2, 6528, Note_on_c, 1, 66, 0
2, 6528, Note_on_c, 1, 64, 64
2, 6540, Note_on_c, 1, 64, 0
2, 6540, Note_on_c, 1, 68, 64
2, 6552, Note_on_c, 1, 68, 0
2, 6552, Note_on_c, 1, 68, 64
2, 6564, Note_on_c, 1, 68, 0
2, 6564, Note_on_c, 1, 66, 64
2, 6576, Note_on_c, 1, 66, 0
2, 6576, Note_on_c, 1, 66, 64
2, 6588, Note_on_c, 1, 66, 0
2, 6588, Note_on_c, 1, 69, 64
2, 6600, Note_on_c, 1, 69, 0
2, 6600, Note_on_c, 1, 69, 64
2, 6612, Note_on_c, 1, 69, 0
2, 6612, Note_on_c, 1, 68, 64
2, 6624, Note_on_c, 1, 68, 0
2, 6624, Note_on_c, 1, 68, 64
2, 6636, Note_on_c, 1, 68, 0
2, 6636, Note_on_c, 1, 73, 64
2, 6648, Note_on_c, 1, 73, 0
2, 6648, Note_on_c, 1, 73, 64
2, 6660, Note_on_c, 1, 73, 0
2, 6660, Note_on_c, 1, 72, 64
2, 6672, Note_on_c, 1, 72, 0
2, 6672, Note_on_c, 1, 72, 64
2, 6684, Note_on_c, 1, 72, 0
2, 6684, Note_on_c, 1, 75, 64
2, 6696, Note_on_c, 1, 75, 0
2, 6696, Note_on_c, 1, 75, 64
2, 6708, Note_on_c, 1, 75, 0
2, 6708, Note_on_c, 1, 73, 64
2, 6720, Note_on_c, 1, 73, 0
2, 6720, Note_on_c, 1, 73, 64
2, 6732, Note_on_c, 1, 73, 0
2, 6732, Note_on_c, 1, 76, 64
2, 6744, Note_on_c, 1, 76, 0
2, 6744, Note_on_c, 1, 76, 64
2, 6756, Note_on_c, 1, 76, 0
2, 6756, Note_on_c, 1, 75, 64
2, 6768, Note_on_c, 1, 75, 0
2, 6768, Note_on_c, 1, 75, 64
2, 6780, Note_on_c, 1, 75, 0
2, 6780, Note_on_c, 1, 78, 64
2, 6792, Note_on_c, 1, 78, 0
2, 6792, Note_on_c, 1, 78, 64
2, 6804, Note_on_c, 1, 78, 0
2, 6804, Note_on_c, 1, 76, 64
2, 6816, Note_on_c, 1, 76, 0
2, 6816, Note_on_c, 1, 76, 64
2, 6828, Note_on_c, 1, 76, 0
2, 6828, Note_on_c, 1, 73, 64
2, 6840, Note_on_c, 1, 73, 0
2, 6840, Note_on_c, 1, 72, 64
2, 6852, Note_on_c, 1, 72, 0
2, 6852, Note_on_c, 1, 73, 64
2, 6864, Note_on_c, 1, 73, 0
2, 6864, Note_on_c, 1, 79, 64
2, 6876, Note_on_c, 1, 79, 0
2, 6876, Note_on_c, 1, 80, 64
2, 6888, Note_on_c, 1, 80, 0
2, 6888, Note_on_c, 1, 80, 64
2, 6900, Note_on_c, 1, 80, 0
2, 6900, Note_on_c, 1, 73, 64
2, 6912, Note_on_c, 1, 73, 0
2, 6912, Note_on_c, 1, 76, 64
2, 6972, Note_on_c, 1, 76, 0
2, 6972, Note_on_c, 1, 78, 64
2, 6978, Note_on_c, 1, 78, 0
2, 6978, Note_on_c, 1, 76, 64
2, 6984, Note_on_c, 1, 76, 0
2, 6984, Note_on_c, 1, 75, 64
2, 6990, Note_on_c, 1, 75, 0
2, 6990, Note_on_c, 1, 76, 64
2, 6996, Note_on_c, 1, 76, 0
2, 6996, Note_on_c, 1, 78, 64
2, 7053, Note_on_c, 1, 78, 0
2, 7056, Note_on_c, 1, 75, 64
2, 7062, Note_on_c, 1, 75, 0
2, 7062, Note_on_c, 1, 76, 64
2, 7068, Note_on_c, 1, 76, 0
2, 7068, Note_on_c, 1, 75, 64
2, 7074, Note_on_c, 1, 75, 0
2, 7074, Note_on_c, 1, 76, 64
2, 7080, Note_on_c, 1, 76, 0
2, 7080, Note_on_c, 1, 73, 64
2, 7092, Note_on_c, 1, 73, 0
2, 7092, Note_on_c, 1, 75, 64
2, 7104, Note_on_c, 1, 75, 0
2, 7104, Note_on_c, 1, 73, 64
2, 7193, Note_on_c, 1, 73, 0
2, 7344, Note_on_c, 1, 64, 64
2, 7389, Note_on_c, 1, 64, 0
2, 7392, Note_on_c, 1, 68, 64
2, 7437, Note_on_c, 1, 68, 0
2, 7440, Note_on_c, 1, 71, 64
2, 7463, Note_on_c, 1, 71, 0
2, 7464, Note_on_c, 1, 69, 64
2, 7487, Note_on_c, 1, 69, 0
2, 7488, Note_on_c, 1, 71, 64
2, 7533, Note_on_c, 1, 71, 0
2, 7536, Note_on_c, 1, 64, 64
2, 7581, Note_on_c, 1, 64, 0
2, 7584, Note_on_c, 1, 71, 64
2, 7629, Note_on_c, 1, 71, 0
2, 7632, Note_on_c, 1, 74, 64
2, 7655, Note_on_c, 1, 74, 0
2, 7656, Note_on_c, 1, 73, 64
2, 7679, Note_on_c, 1, 73, 0
2, 7680, Note_on_c, 1, 74, 64
2, 7788, Note_on_c, 1, 74, 0
2, 7788, Note_on_c, 1, 73, 64
2, 7800, Note_on_c, 1, 73, 0
2, 7800, Note_on_c, 1, 71, 64
2, 7812, Note_on_c, 1, 71, 0
2, 7812, Note_on_c, 1, 69, 64
2, 7824, Note_on_c, 1, 69, 0
2, 7824, Note_on_c, 1, 68, 64
2, 7836, Note_on_c, 1, 68, 0
2, 7836, Note_on_c, 1, 69, 64
2, 7848, Note_on_c, 1, 69, 0
2, 7848, Note_on_c, 1, 71, 64
2, 7860, Note_on_c, 1, 71, 0
2, 7860, Note_on_c, 1, 73, 64
2, 7872, Note_on_c, 1, 73, 0
2, 7872, Note_on_c, 1, 74, 64
2, 7884, Note_on_c, 1, 74, 0
2, 7884, Note_on_c, 1, 76, 64
2, 7896, Note_on_c, 1, 76, 0
2, 7896, Note_on_c, 1, 78, 64
2, 7908, Note_on_c, 1, 78, 0
2, 7908, Note_on_c, 1, 80, 64
2, 7920, Note_on_c, 1, 80, 0
2, 7920, Note_on_c, 1, 81, 64
2, 7932, Note_on_c, 1, 81, 0
2, 7932, Note_on_c, 1, 83, 64
2, 7944, Note_on_c, 1, 83, 0
2, 7944, Note_on_c, 1, 85, 64
2, 7956, Note_on_c, 1, 85, 0
2, 7956, Note_on_c, 1, 86, 64
2, 7968, Note_on_c, 1, 86, 0
2, 7968, Note_on_c, 1, 83, 64
2, 7980, Note_on_c, 1, 83, 0
2, 7980, Note_on_c, 1, 80, 64
2, 8003, Note_on_c, 1, 80, 0
2, 8004, Note_on_c, 1, 76, 64
2, 8016, Note_on_c, 1, 76, 0
2, 8016, Note_on_c, 1, 74, 64
2, 8022, Note_on_c, 1, 74, 0
2, 8022, Note_on_c, 1, 76, 64
2, 8028, Note_on_c, 1, 76, 0
2, 8028, Note_on_c, 1, 73, 64
2, 8040, Note_on_c, 1, 73, 0
2, 8040, Note_on_c, 1, 74, 64
2, 8063, Note_on_c, 1, 74, 0
2, 8064, Note_on_c, 1, 73, 64
2, 8268, Note_on_c, 1, 73, 0
2, 8268, Note_on_c, 1, 76, 64
2, 8280, Note_on_c, 1, 76, 0
2, 8280, Note_on_c, 1, 78, 64
2, 8292, Note_on_c, 1, 78, 0
2, 8292, Note_on_c, 1, 80, 64
2, 8304, Note_on_c, 1, 80, 0
2, 8304, Note_on_c, 1, 81, 64
2, 8316, Note_on_c, 1, 81, 0
2, 8316, Note_on_c, 1, 83, 64
2, 8328, Note_on_c, 1, 83, 0
2, 8328, Note_on_c, 1, 85, 64
2, 8340, Note_on_c, 1, 85, 0
2, 8340, Note_on_c, 1, 86, 64
2, 8352, Note_on_c, 1, 86, 0
2, 8352, Note_on_c, 1, 85, 64
2, 8364, Note_on_c, 1, 85, 0
2, 8364, Note_on_c, 1, 83, 64
2, 8376, Note_on_c, 1, 83, 0
2, 8376, Note_on_c, 1, 81, 64
2, 8388, Note_on_c, 1, 81, 0
2, 8388, Note_on_c, 1, 80, 64
2, 8400, Note_on_c, 1, 80, 0
2, 8400, Note_on_c, 1, 78, 64
2, 8412, Note_on_c, 1, 78, 0
2, 8412, Note_on_c, 1, 76, 64
2, 8424, Note_on_c, 1, 76, 0
2, 8424, Note_on_c, 1, 75, 64
2, 8436, Note_on_c, 1, 75, 0
2, 8436, Note_on_c, 1, 76, 64
2, 8442, Note_on_c, 1, 76, 0
2, 8442, Note_on_c, 1, 73, 64
2, 8448, Note_on_c, 1, 73, 0
2, 8448, Note_on_c, 1, 71, 64
2, 8556, Note_on_c, 1, 71, 0
2, 8556, Note_on_c, 1, 69, 64
2, 8568, Note_on_c, 1, 69, 0
2, 8568, Note_on_c, 1, 68, 64
2, 8580, Note_on_c, 1, 68, 0
2, 8580, Note_on_c, 1, 67, 64
2, 8592, Note_on_c, 1, 67, 0
2, 8592, Note_on_c, 1, 68, 64
2, 8598, Note_on_c, 1, 68, 0
2, 8598, Note_on_c, 1, 69, 64
2, 8604, Note_on_c, 1, 69, 0
2, 8604, Note_on_c, 1, 71, 64
2, 8610, Note_on_c, 1, 71, 0
2, 8610, Note_on_c, 1, 73, 64
2, 8616, Note_on_c, 1, 73, 0
2, 8616, Note_on_c, 1, 75, 64
2, 8622, Note_on_c, 1, 75, 0
2, 8622, Note_on_c, 1, 76, 64
2, 8628, Note_on_c, 1, 76, 0
2, 8628, Note_on_c, 1, 78, 64
2, 8640, Note_on_c, 1, 78, 0
2, 8640, Note_on_c, 1, 76, 64
2, 8700, Note_on_c, 1, 76, 0
2, 8700, Note_on_c, 1, 75, 64
2, 8712, Note_on_c, 1, 75, 0
2, 8712, Note_on_c, 1, 73, 64
2, 8724, Note_on_c, 1, 73, 0
2, 8724, Note_on_c, 1, 72, 64
2, 8736, Note_on_c, 1, 72, 0
2, 8736, Note_on_c, 1, 73, 64
2, 8748, Note_on_c, 1, 73, 0
2, 8748, Note_on_c, 1, 75, 64
2, 8760, Note_on_c, 1, 75, 0
2, 8760, Note_on_c, 1, 76, 64
2, 8772, Note_on_c, 1, 76, 0
2, 8772, Note_on_c, 1, 78, 64
2, 8784, Note_on_c, 1, 78, 0
2, 8784, Note_on_c, 1, 80, 64
2, 8796, Note_on_c, 1, 80, 0
2, 8796, Note_on_c, 1, 78, 64
2, 8808, Note_on_c, 1, 78, 0
2, 8808, Note_on_c, 1, 81, 64
2, 8820, Note_on_c, 1, 81, 0
2, 8820, Note_on_c, 1, 80, 64
2, 8832, Note_on_c, 1, 80, 0
2, 8832, Note_on_c, 1, 81, 64
2, 9036, Note_on_c, 1, 81, 0
2, 9036, Note_on_c, 1, 80, 64
2, 9048, Note_on_c, 1, 80, 0
2, 9048, Note_on_c, 1, 78, 64
2, 9060, Note_on_c, 1, 78, 0
2, 9060, Note_on_c, 1, 76, 64
2, 9072, Note_on_c, 1, 76, 0
2, 9072, Note_on_c, 1, 75, 64
2, 9084, Note_on_c, 1, 75, 0
2, 9084, Note_on_c, 1, 80, 64
2, 9096, Note_on_c, 1, 80, 0
2, 9096, Note_on_c, 1, 78, 64
2, 9108, Note_on_c, 1, 78, 0
2, 9108, Note_on_c, 1, 76, 64
2, 9120, Note_on_c, 1, 76, 0
2, 9120, Note_on_c, 1, 75, 64
2, 9132, Note_on_c, 1, 75, 0
2, 9132, Note_on_c, 1, 73, 64
2, 9144, Note_on_c, 1, 73, 0
2, 9144, Note_on_c, 1, 71, 64
2, 9156, Note_on_c, 1, 71, 0
2, 9156, Note_on_c, 1, 76, 64
2, 9168, Note_on_c, 1, 76, 0
2, 9168, Note_on_c, 1, 75, 64
2, 9180, Note_on_c, 1, 75, 0
2, 9180, Note_on_c, 1, 73, 64
2, 9192, Note_on_c, 1, 73, 0
2, 9192, Note_on_c, 1, 71, 64
2, 9204, Note_on_c, 1, 71, 0
2, 9204, Note_on_c, 1, 73, 64
2, 9210, Note_on_c, 1, 73, 0
2, 9210, Note_on_c, 1, 69, 64
2, 9216, Note_on_c, 1, 69, 0
2, 9216, Note_on_c, 1, 68, 64
2, 9261, Note_on_c, 1, 68, 0
2, 9264, Note_on_c, 1, 59, 64
2, 9309, Note_on_c, 1, 59, 0
2, 9312, Note_on_c, 1, 64, 64
2, 9357, Note_on_c, 1, 64, 0
2, 9360, Note_on_c, 1, 68, 64
2, 9384, Note_on_c, 1, 68, 0
2, 9384, Note_on_c, 1, 66, 64
2, 9407, Note_on_c, 1, 66, 0
2, 9408, Note_on_c, 1, 68, 64
2, 9453, Note_on_c, 1, 68, 0
2, 9456, Note_on_c, 1, 64, 64
2, 9501, Note_on_c, 1, 64, 0
2, 9504, Note_on_c, 1, 68, 64
2, 9549, Note_on_c, 1, 68, 0
2, 9552, Note_on_c, 1, 71, 64
2, 9576, Note_on_c, 1, 71, 0
2, 9576, Note_on_c, 1, 69, 64
2, 9599, Note_on_c, 1, 69, 0
2, 9600, Note_on_c, 1, 71, 64
2, 9708, Note_on_c, 1, 71, 0
2, 9708, Note_on_c, 1, 69, 64
2, 9720, Note_on_c, 1, 69, 0
2, 9720, Note_on_c, 1, 68, 64
2, 9732, Note_on_c, 1, 68, 0
2, 9732, Note_on_c, 1, 66, 64
2, 9744, Note_on_c, 1, 66, 0
2, 9744, Note_on_c, 1, 64, 64
2, 9756, Note_on_c, 1, 64, 0
2, 9756, Note_on_c, 1, 66, 64
2, 9768, Note_on_c, 1, 66, 0
2, 9768, Note_on_c, 1, 68, 64
2, 9780, Note_on_c, 1, 68, 0
2, 9780, Note_on_c, 1, 69, 64
2, 9792, Note_on_c, 1, 69, 0
2, 9792, Note_on_c, 1, 71, 64
2, 9804, Note_on_c, 1, 71, 0
2, 9804, Note_on_c, 1, 69, 64
2, 9816, Note_on_c, 1, 69, 0
2, 9816, Note_on_c, 1, 71, 64
2, 9828, Note_on_c, 1, 71, 0
2, 9828, Note_on_c, 1, 73, 64
2, 9840, Note_on_c, 1, 73, 0
2, 9840, Note_on_c, 1, 71, 64
2, 9852, Note_on_c, 1, 71, 0
2, 9852, Note_on_c, 1, 73, 64
2, 9864, Note_on_c, 1, 73, 0
2, 9864, Note_on_c, 1, 74, 64
2, 9870, Note_on_c, 1, 74, 0
2, 9870, Note_on_c, 1, 73, 64
2, 9876, Note_on_c, 1, 73, 0
2, 9876, Note_on_c, 1, 74, 64
2, 9888, Note_on_c, 1, 74, 0
2, 9888, Note_on_c, 1, 74, 64
2, 9894, Note_on_c, 1, 74, 0
2, 9894, Note_on_c, 1, 76, 64
2, 9900, Note_on_c, 1, 76, 0
2, 9900, Note_on_c, 1, 74, 64
2, 9906, Note_on_c, 1, 74, 0
2, 9906, Note_on_c, 1, 76, 64
2, 9912, Note_on_c, 1, 76, 0
2, 9912, Note_on_c, 1, 74, 64
2, 9918, Note_on_c, 1, 74, 0
2, 9918, Note_on_c, 1, 76, 64
2, 9924, Note_on_c, 1, 76, 0
2, 9924, Note_on_c, 1, 74, 64
2, 9930, Note_on_c, 1, 74, 0
2, 9930, Note_on_c, 1, 76, 64
2, 9936, Note_on_c, 1, 76, 0
2, 9936, Note_on_c, 1, 74, 64
2, 9942, Note_on_c, 1, 74, 0
2, 9942, Note_on_c, 1, 76, 64
2, 9948, Note_on_c, 1, 76, 0
2, 9948, Note_on_c, 1, 74, 64
2, 9954, Note_on_c, 1, 74, 0
2, 9954, Note_on_c, 1, 76, 64
2, 9960, Note_on_c, 1, 76, 0
2, 9960, Note_on_c, 1, 76, 64
2, 9983, Note_on_c, 1, 76, 0
2, 9984, Note_on_c, 1, 73, 64
2, 10051, Note_on_c, 1, 73, 0
2, 10056, Note_on_c, 1, 71, 64
2, 10079, Note_on_c, 1, 71, 0
2, 10080, Note_on_c, 1, 69, 64
2, 10114, Note_on_c, 1, 69, 0
2, 10116, Note_on_c, 1, 68, 64
2, 10128, Note_on_c, 1, 68, 0
2, 10128, Note_on_c, 1, 66, 64
2, 10140, Note_on_c, 1, 66, 0
2, 10140, Note_on_c, 1, 65, 64
2, 10152, Note_on_c, 1, 65, 0
2, 10152, Note_on_c, 1, 68, 64
2, 10164, Note_on_c, 1, 68, 0
2, 10164, Note_on_c, 1, 66, 64
2, 10176, Note_on_c, 1, 66, 0
2, 10176, Note_on_c, 1, 66, 64
2, 10248, Note_on_c, 1, 66, 0
2, 10248, Note_on_c, 1, 68, 64
2, 10260, Note_on_c, 1, 68, 0
2, 10260, Note_on_c, 1, 69, 64
2, 10272, Note_on_c, 1, 69, 0
2, 10272, Note_on_c, 1, 68, 64
2, 10284, Note_on_c, 1, 68, 0
2, 10284, Note_on_c, 1, 66, 64
2, 10307, Note_on_c, 1, 66, 0
2, 10308, Note_on_c, 1, 64, 64
2, 10331, Note_on_c, 1, 64, 0
2, 10332, Note_on_c, 1, 63, 64
2, 10355, Note_on_c, 1, 63, 0
2, 10356, Note_on_c, 1, 64, 64
2, 10368, Note_on_c, 1, 64, 0
2, 10368, Note_on_c, 1, 63, 64
2, 10476, Note_on_c, 1, 63, 0
2, 10476, Note_on_c, 1, 61, 64
2, 10488, Note_on_c, 1, 61, 0
2, 10488, Note_on_c, 1, 59, 64
2, 10500, Note_on_c, 1, 59, 0
2, 10500, Note_on_c, 1, 61, 64
2, 10512, Note_on_c, 1, 61, 0
2, 10512, Note_on_c, 1, 63, 64
2, 10524, Note_on_c, 1, 63, 0
2, 10524, Note_on_c, 1, 64, 64
2, 10536, Note_on_c, 1, 64, 0
2, 10536, Note_on_c, 1, 66, 64
2, 10548, Note_on_c, 1, 66, 0
2, 10548, Note_on_c, 1, 68, 64
2, 10560, Note_on_c, 1, 68, 0
2, 10560, Note_on_c, 1, 69, 64
2, 10572, Note_on_c, 1, 69, 0
2, 10572, Note_on_c, 1, 68, 64
2, 10584, Note_on_c, 1, 68, 0
2, 10584, Note_on_c, 1, 66, 64
2, 10596, Note_on_c, 1, 66, 0
2, 10596, Note_on_c, 1, 68, 64
2, 10608, Note_on_c, 1, 68, 0
2, 10608, Note_on_c, 1, 69, 64
2, 10620, Note_on_c, 1, 69, 0
2, 10620, Note_on_c, 1, 71, 64
2, 10632, Note_on_c, 1, 71, 0
2, 10632, Note_on_c, 1, 73, 64
2, 10644, Note_on_c, 1, 73, 0
2, 10644, Note_on_c, 1, 75, 64
2, 10656, Note_on_c, 1, 75, 0
2, 10656, Note_on_c, 1, 76, 64
2, 10668, Note_on_c, 1, 76, 0
2, 10668, Note_on_c, 1, 75, 64
2, 10680, Note_on_c, 1, 75, 0
2, 10680, Note_on_c, 1, 78, 64
2, 10692, Note_on_c, 1, 78, 0
2, 10692, Note_on_c, 1, 76, 64
2, 10704, Note_on_c, 1, 76, 0
2, 10704, Note_on_c, 1, 75, 64
2, 10716, Note_on_c, 1, 75, 0
2, 10716, Note_on_c, 1, 76, 64
2, 10728, Note_on_c, 1, 76, 0
2, 10728, Note_on_c, 1, 78, 64
2, 10740, Note_on_c, 1, 78, 0
2, 10740, Note_on_c, 1, 75, 64
2, 10752, Note_on_c, 1, 75, 0
2, 10752, Note_on_c, 1, 71, 64
2, 11004, Note_on_c, 1, 71, 0
2, 11004, Note_on_c, 1, 64, 64
2, 11016, Note_on_c, 1, 64, 0
2, 11016, Note_on_c, 1, 68, 64
2, 11028, Note_on_c, 1, 68, 0
2, 11028, Note_on_c, 1, 71, 64
2, 11040, Note_on_c, 1, 71, 0
2, 11040, Note_on_c, 1, 76, 64
2, 11052, Note_on_c, 1, 76, 0
2, 11052, Note_on_c, 1, 75, 64
2, 11064, Note_on_c, 1, 75, 0
2, 11064, Note_on_c, 1, 73, 64
2, 11076, Note_on_c, 1, 73, 0
2, 11076, Note_on_c, 1, 71, 64
2, 11088, Note_on_c, 1, 71, 0
2, 11088, Note_on_c, 1, 69, 64
2, 11100, Note_on_c, 1, 69, 0
2, 11100, Note_on_c, 1, 68, 64
2, 11112, Note_on_c, 1, 68, 0
2, 11112, Note_on_c, 1, 71, 64
2, 11124, Note_on_c, 1, 71, 0
2, 11124, Note_on_c, 1, 69, 64
2, 11136, Note_on_c, 1, 69, 0
2, 11136, Note_on_c, 1, 69, 64
2, 11313, Note_on_c, 1, 69, 0
2, 11328, Note_on_c, 1, 69, 64
2, 11373, Note_on_c, 1, 69, 0
2, 11376, Note_on_c, 1, 75, 64
2, 11399, Note_on_c, 1, 75, 0
2, 11400, Note_on_c, 1, 76, 64
2, 11412, Note_on_c, 1, 76, 0
2, 11412, Note_on_c, 1, 78, 64
2, 11424, Note_on_c, 1, 78, 0
2, 11424, Note_on_c, 1, 76, 64
2, 11436, Note_on_c, 1, 76, 0
2, 11436, Note_on_c, 1, 75, 64
2, 11448, Note_on_c, 1, 75, 0
2, 11448, Note_on_c, 1, 73, 64
2, 11460, Note_on_c, 1, 73, 0
2, 11460, Note_on_c, 1, 71, 64
2, 11472, Note_on_c, 1, 71, 0
2, 11472, Note_on_c, 1, 69, 64
2, 11478, Note_on_c, 1, 69, 0
2, 11478, Note_on_c, 1, 71, 64
2, 11484, Note_on_c, 1, 71, 0
2, 11484, Note_on_c, 1, 69, 64
2, 11490, Note_on_c, 1, 69, 0
2, 11490, Note_on_c, 1, 71, 64
2, 11496, Note_on_c, 1, 71, 0
2, 11496, Note_on_c, 1, 68, 64
2, 11508, Note_on_c, 1, 68, 0
2, 11508, Note_on_c, 1, 69, 64
2, 11520, Note_on_c, 1, 69, 0
2, 11520, Note_on_c, 1, 68, 64
2, 11628, Note_on_c, 1, 68, 0
2, 11628, Note_on_c, 1, 71, 64
2, 11640, Note_on_c, 1, 71, 0
2, 11640, Note_on_c, 1, 69, 64
2, 11652, Note_on_c, 1, 69, 0
2, 11652, Note_on_c, 1, 73, 64
2, 11664, Note_on_c, 1, 73, 0
2, 11664, Note_on_c, 1, 71, 64
2, 11676, Note_on_c, 1, 71, 0
2, 11676, Note_on_c, 1, 69, 64
2, 11688, Note_on_c, 1, 69, 0
2, 11688, Note_on_c, 1, 68, 64
2, 11700, Note_on_c, 1, 68, 0
2, 11700, Note_on_c, 1, 69, 64
2, 11706, Note_on_c, 1, 69, 0
2, 11706, Note_on_c, 1, 66, 64
2, 11712, Note_on_c, 1, 66, 0
2, 11712, Note_on_c, 1, 64, 64
2, 11820, Note_on_c, 1, 64, 0
2, 11820, Note_on_c, 1, 68, 64
2, 11832, Note_on_c, 1, 68, 0
2, 11832, Note_on_c, 1, 66, 64
2, 11844, Note_on_c, 1, 66, 0
2, 11844, Note_on_c, 1, 69, 64
2, 11856, Note_on_c, 1, 69, 0
2, 11856, Note_on_c, 1, 68, 64
2, 11868, Note_on_c, 1, 68, 0
2, 11868, Note_on_c, 1, 66, 64
2, 11880, Note_on_c, 1, 66, 0
2, 11880, Note_on_c, 1, 64, 64
2, 11892, Note_on_c, 1, 64, 0
2, 11892, Note_on_c, 1, 66, 64
2, 11898, Note_on_c, 1, 66, 0
2, 11898, Note_on_c, 1, 62, 64
2, 11904, Note_on_c, 1, 62, 0
2, 11904, Note_on_c, 1, 61, 64
2, 11938, Note_on_c, 1, 61, 0
2, 11940, Note_on_c, 1, 64, 64
2, 11952, Note_on_c, 1, 64, 0
2, 11952, Note_on_c, 1, 63, 64
2, 11975, Note_on_c, 1, 63, 0
2, 11976, Note_on_c, 1, 66, 64
2, 11988, Note_on_c, 1, 66, 0
2, 11988, Note_on_c, 1, 64, 64
2, 12000, Note_on_c, 1, 64, 0
2, 12000, Note_on_c, 1, 64, 64
2, 12089, Note_on_c, 1, 64, 0
2, 12096, Note_on_c, 1, 64, 64
2, 12108, Note_on_c, 1, 64, 0
2, 12108, Note_on_c, 1, 69, 64
2, 12120, Note_on_c, 1, 69, 0
2, 12120, Note_on_c, 1, 69, 64
2, 12132, Note_on_c, 1, 69, 0
2, 12132, Note_on_c, 1, 68, 64
2, 12144, Note_on_c, 1, 68, 0
2, 12144, Note_on_c, 1, 68, 64
2, 12156, Note_on_c, 1, 68, 0
2, 12156, Note_on_c, 1, 73, 64
2, 12168, Note_on_c, 1, 73, 0
2, 12168, Note_on_c, 1, 73, 64
2, 12180, Note_on_c, 1, 73, 0
2, 12180, Note_on_c, 1, 71, 64
2, 12192, Note_on_c, 1, 71, 0
2, 12192, Note_on_c, 1, 71, 64
2, 12204, Note_on_c, 1, 71, 0
2, 12204, Note_on_c, 1, 76, 64
2, 12216, Note_on_c, 1, 76, 0
2, 12216, Note_on_c, 1, 76, 64
2, 12228, Note_on_c, 1, 76, 0
2, 12228, Note_on_c, 1, 75, 64
2, 12240, Note_on_c, 1, 75, 0
2, 12240, Note_on_c, 1, 75, 64
2, 12252, Note_on_c, 1, 75, 0
2, 12252, Note_on_c, 1, 78, 64
2, 12264, Note_on_c, 1, 78, 0
2, 12264, Note_on_c, 1, 78, 64
2, 12276, Note_on_c, 1, 78, 0
2, 12276, Note_on_c, 1, 76, 64
2, 12288, Note_on_c, 1, 76, 0
2, 12288, Note_on_c, 1, 76, 64
2, 12300, Note_on_c, 1, 76, 0
2, 12300, Note_on_c, 1, 80, 64
2, 12312, Note_on_c, 1, 80, 0
2, 12312, Note_on_c, 1, 80, 64
2, 12324, Note_on_c, 1, 80, 0
2, 12324, Note_on_c, 1, 78, 64
2, 12336, Note_on_c, 1, 78, 0
2, 12336, Note_on_c, 1, 78, 64
2, 12348, Note_on_c, 1, 78, 0
2, 12348, Note_on_c, 1, 81, 64
2, 12360, Note_on_c, 1, 81, 0
2, 12360, Note_on_c, 1, 81, 64
2, 12372, Note_on_c, 1, 81, 0
2, 12372, Note_on_c, 1, 80, 64
2, 12384, Note_on_c, 1, 80, 0
2, 12384, Note_on_c, 1, 80, 64
2, 12396, Note_on_c, 1, 80, 0
2, 12396, Note_on_c, 1, 76, 64
2, 12408, Note_on_c, 1, 76, 0
2, 12408, Note_on_c, 1, 75, 64
2, 12420, Note_on_c, 1, 75, 0
2, 12420, Note_on_c, 1, 76, 64
2, 12432, Note_on_c, 1, 76, 0
2, 12432, Note_on_c, 1, 82, 64
2, 12444, Note_on_c, 1, 82, 0
2, 12444, Note_on_c, 1, 83, 64
2, 12456, Note_on_c, 1, 83, 0
2, 12456, Note_on_c, 1, 83, 64
2, 12468, Note_on_c, 1, 83, 0
2, 12468, Note_on_c, 1, 76, 64
2, 12480, Note_on_c, 1, 76, 0
2, 12480, Note_on_c, 1, 80, 64
2, 12525, Note_on_c, 1, 80, 0
2, 12528, Note_on_c, 1, 80, 64
2, 12540, Note_on_c, 1, 80, 0
2, 12540, Note_on_c, 1, 81, 64
2, 12546, Note_on_c, 1, 81, 0
2, 12546, Note_on_c, 1, 80, 64
2, 12552, Note_on_c, 1, 80, 0
2, 12552, Note_on_c, 1, 78, 64
2, 12558, Note_on_c, 1, 78, 0
2, 12558, Note_on_c, 1, 80, 64
2, 12564, Note_on_c, 1, 80, 0
2, 12564, Note_on_c, 1, 81, 64
2, 12570, Note_on_c, 1, 81, 0
2, 12570, Note_on_c, 1, 78, 64
2, 12576, Note_on_c, 1, 78, 0
2, 12576, Note_on_c, 1, 75, 64
2, 12582, Note_on_c, 1, 75, 0
2, 12582, Note_on_c, 1, 76, 64
2, 12588, Note_on_c, 1, 76, 0
2, 12588, Note_on_c, 1, 75, 64
2, 12594, Note_on_c, 1, 75, 0
2, 12594, Note_on_c, 1, 76, 64
2, 12600, Note_on_c, 1, 76, 0
2, 12600, Note_on_c, 1, 75, 64
2, 12606, Note_on_c, 1, 75, 0
2, 12606, Note_on_c, 1, 76, 64
2, 12612, Note_on_c, 1, 76, 0
2, 12612, Note_on_c, 1, 75, 64
2, 12618, Note_on_c, 1, 75, 0
2, 12618, Note_on_c, 1, 76, 64
2, 12624, Note_on_c, 1, 76, 0
2, 12624, Note_on_c, 1, 75, 64
2, 12630, Note_on_c, 1, 75, 0
2, 12630, Note_on_c, 1, 76, 64
2, 12636, Note_on_c, 1, 76, 0
2, 12636, Note_on_c, 1, 75, 64
2, 12642, Note_on_c, 1, 75, 0
2, 12642, Note_on_c, 1, 76, 64
2, 12648, Note_on_c, 1, 76, 0
2, 12648, Note_on_c, 1, 76, 64
2, 12671, Note_on_c, 1, 76, 0
2, 12672, Note_on_c, 1, 76, 64
2, 13026, Note_on_c, 1, 76, 0
2, 13026, End_track
3, 0, Start_track
3, 0, MIDI_port, 0
3, 0, Title_t, "Clavier (RH)"
3, 0, Program_c, 0, 6
3, 0, Control_c, 0, 7, 127
3, 0, Note_on_c, 0, 71, 64
3, 0, Note_on_c, 0, 64, 64
3, 0, Note_on_c, 0, 68, 64
3, 12, Control_c, 0, 7, 121
3, 16, Control_c, 0, 7, 116
3, 20, Control_c, 0, 7, 104
3, 23, Note_on_c, 0, 71, 0
3, 24, Note_on_c, 0, 68, 0
3, 24, Control_c, 0, 7, 93
3, 24, Note_on_c, 0, 66, 64
3, 24, Note_on_c, 0, 69, 64
3, 47, Note_on_c, 0, 69, 0
3, 47, Control_c, 0, 7, 82
3, 48, Note_on_c, 0, 66, 0
3, 48, Note_on_c, 0, 64, 0
3, 48, Note_on_c, 0, 64, 64
3, 48, Note_on_c, 0, 68, 64
3, 52, Control_c, 0, 7, 76
3, 56, Control_c, 0, 7, 71
3, 60, Control_c, 0, 7, 59
3, 60, Control_c, 0, 7, 65
3, 71, Note_on_c, 0, 68, 0
3, 72, Note_on_c, 0, 64, 0
3, 72, Note_on_c, 0, 66, 64
3, 72, Note_on_c, 0, 69, 64
3, 80, Control_c, 0, 7, 65
3, 89, Control_c, 0, 7, 71
3, 93, Control_c, 0, 7, 76
3, 95, Note_on_c, 0, 69, 0
3, 96, Note_on_c, 0, 66, 0
3, 96, Note_on_c, 0, 68, 64
3, 96, Note_on_c, 0, 71, 64
3, 141, Note_on_c, 0, 71, 0
3, 144, Note_on_c, 0, 68, 0
3, 192, Note_on_c, 0, 76, 64
3, 192, Note_on_c, 0, 68, 64
3, 192, Note_on_c, 0, 64, 64
3, 192, Note_on_c, 0, 71, 64
3, 215, Note_on_c, 0, 71, 0
3, 216, Note_on_c, 0, 69, 64
3, 239, Note_on_c, 0, 69, 0
3, 240, Note_on_c, 0, 64, 0
3, 240, Note_on_c, 0, 68, 0
3, 240, Note_on_c, 0, 76, 0
3, 240, Note_on_c, 0, 71, 64
3, 240, Note_on_c, 0, 68, 64
3, 263, Note_on_c, 0, 68, 0
3, 264, Note_on_c, 0, 69, 64
3, 285, Control_c, 0, 7, 71
3, 287, Note_on_c, 0, 69, 0
3, 288, Note_on_c, 0, 71, 0
3, 288, Note_on_c, 0, 76, 64
3, 288, Note_on_c, 0, 71, 64
3, 333, Note_on_c, 0, 71, 0
3, 336, Note_on_c, 0, 76, 0
3, 384, Note_on_c, 0, 74, 64
3, 384, Note_on_c, 0, 71, 64
3, 384, Note_on_c, 0, 68, 64
3, 407, Note_on_c, 0, 68, 0
3, 408, Note_on_c, 0, 71, 0
3, 408, Note_on_c, 0, 69, 64
3, 408, Note_on_c, 0, 66, 64
3, 431, Note_on_c, 0, 66, 0
3, 432, Note_on_c, 0, 69, 0
3, 432, Note_on_c, 0, 68, 64
3, 432, Note_on_c, 0, 64, 64
3, 455, Note_on_c, 0, 64, 0
3, 456, Note_on_c, 0, 68, 0
3, 456, Note_on_c, 0, 69, 64
3, 456, Note_on_c, 0, 66, 64
3, 479, Note_on_c, 0, 66, 0
3, 480, Note_on_c, 0, 69, 0
3, 480, Note_on_c, 0, 74, 0
3, 480, Note_on_c, 0, 71, 64
3, 480, Note_on_c, 0, 74, 64
3, 480, Note_on_c, 0, 68, 64
3, 525, Note_on_c, 0, 68, 0
3, 528, Note_on_c, 0, 74, 0
3, 528, Note_on_c, 0, 71, 0
3, 576, Note_on_c, 0, 80, 64
3, 576, Note_on_c, 0, 74, 64
3, 576, Note_on_c, 0, 71, 64
3, 599, Note_on_c, 0, 71, 0
3, 600, Note_on_c, 0, 74, 0
3, 600, Note_on_c, 0, 80, 0
3, 600, Note_on_c, 0, 73, 64
3, 600, Note_on_c, 0, 78, 64
3, 600, Note_on_c, 0, 69, 64
3, 623, Note_on_c, 0, 69, 0
3, 624, Note_on_c, 0, 78, 0
3, 624, Note_on_c, 0, 73, 0
3, 624, Note_on_c, 0, 71, 64
3, 624, Note_on_c, 0, 76, 64
3, 624, Note_on_c, 0, 68, 64
3, 647, Note_on_c, 0, 68, 0
3, 648, Note_on_c, 0, 76, 0
3, 648, Note_on_c, 0, 71, 0
3, 648, Note_on_c, 0, 73, 64
3, 648, Note_on_c, 0, 78, 64
3, 648, Note_on_c, 0, 69, 64
3, 671, Note_on_c, 0, 69, 0
3, 672, Note_on_c, 0, 78, 0
3, 672, Note_on_c, 0, 73, 0
3, 672, Note_on_c, 0, 74, 64
3, 672, Note_on_c, 0, 80, 64
3, 672, Note_on_c, 0, 71, 64
3, 717, Note_on_c, 0, 71, 0
3, 720, Note_on_c, 0, 80, 0
3, 720, Note_on_c, 0, 74, 0
3, 768, Note_on_c, 0, 81, 64
3, 768, Note_on_c, 0, 73, 100
3, 768, Note_on_c, 0, 76, 64
3, 791, Note_on_c, 0, 76, 0
3, 792, Note_on_c, 0, 73, 0
3, 792, Note_on_c, 0, 71, 100
3, 792, Note_on_c, 0, 74, 64
3, 815, Note_on_c, 0, 74, 0
3, 816, Note_on_c, 0, 71, 0
3, 816, Note_on_c, 0, 81, 0
3, 816, Note_on_c, 0, 69, 100
3, 816, Note_on_c, 0, 76, 100
3, 816, Note_on_c, 0, 73, 64
3, 839, Note_on_c, 0, 73, 0
3, 840, Note_on_c, 0, 69, 0
3, 840, Note_on_c, 0, 71, 100
3, 840, Note_on_c, 0, 74, 64
3, 863, Note_on_c, 0, 74, 0
3, 864, Note_on_c, 0, 71, 0
3, 864, Note_on_c, 0, 76, 0
3, 864, Note_on_c, 0, 73, 100
3, 864, Note_on_c, 0, 76, 100
3, 864, Note_on_c, 0, 81, 64
3, 887, Note_on_c, 0, 81, 0
3, 888, Note_on_c, 0, 73, 0
3, 888, Note_on_c, 0, 74, 100
3, 888, Note_on_c, 0, 83, 64
3, 911, Note_on_c, 0, 83, 0
3, 912, Note_on_c, 0, 74, 0
3, 912, Note_on_c, 0, 76, 0
3, 912, Note_on_c, 0, 73, 100
3, 912, Note_on_c, 0, 76, 100
3, 912, Note_on_c, 0, 81, 64
3, 935, Note_on_c, 0, 81, 0
3, 936, Note_on_c, 0, 73, 0
3, 936, Note_on_c, 0, 74, 100
3, 936, Note_on_c, 0, 83, 64
3, 959, Note_on_c, 0, 83, 0
3, 960, Note_on_c, 0, 74, 0
3, 960, Note_on_c, 0, 76, 0
3, 960, Note_on_c, 0, 81, 100
3, 960, Note_on_c, 0, 76, 100
3, 960, Note_on_c, 0, 85, 64
3, 983, Note_on_c, 0, 85, 0
3, 984, Note_on_c, 0, 81, 0
3, 984, Note_on_c, 0, 80, 100
3, 984, Note_on_c, 0, 83, 64
3, 1007, Note_on_c, 0, 83, 0
3, 1008, Note_on_c, 0, 80, 0
3, 1008, Note_on_c, 0, 76, 0
3, 1008, Note_on_c, 0, 78, 100
3, 1008, Note_on_c, 0, 73, 100
3, 1008, Note_on_c, 0, 81, 64
3, 1031, Note_on_c, 0, 81, 0
3, 1032, Note_on_c, 0, 78, 0
3, 1032, Note_on_c, 0, 80, 100
3, 1032, Note_on_c, 0, 83, 64
3, 1055, Note_on_c, 0, 83, 0
3, 1056, Note_on_c, 0, 80, 0
3, 1056, Note_on_c, 0, 73, 0
3, 1056, Note_on_c, 0, 81, 100
3, 1056, Note_on_c, 0, 76, 100
3, 1056, Note_on_c, 0, 85, 64
3, 1101, Note_on_c, 0, 85, 0
3, 1104, Note_on_c, 0, 76, 0
3, 1104, Note_on_c, 0, 81, 0
3, 1152, Note_on_c, 0, 75, 100
3, 1152, Note_on_c, 0, 78, 100
3, 1152, Note_on_c, 0, 81, 64
3, 1175, Note_on_c, 0, 81, 0
3, 1176, Note_on_c, 0, 78, 0
3, 1176, Note_on_c, 0, 76, 100
3, 1176, Note_on_c, 0, 80, 64
3, 1199, Note_on_c, 0, 80, 0
3, 1200, Note_on_c, 0, 76, 0
3, 1200, Note_on_c, 0, 75, 0
3, 1200, Note_on_c, 0, 69, 100
3, 1200, Note_on_c, 0, 75, 100
3, 1200, Note_on_c, 0, 78, 64
3, 1223, Note_on_c, 0, 78, 0
3, 1224, Note_on_c, 0, 75, 0
3, 1224, Note_on_c, 0, 76, 100
3, 1224, Note_on_c, 0, 80, 64
3, 1247, Note_on_c, 0, 80, 0
3, 1248, Note_on_c, 0, 76, 0
3, 1248, Note_on_c, 0, 69, 0
3, 1248, Note_on_c, 0, 78, 64
3, 1248, Note_on_c, 0, 75, 100
3, 1248, Note_on_c, 0, 81, 64
3, 1293, Note_on_c, 0, 81, 0
3, 1296, Note_on_c, 0, 75, 0
3, 1296, Note_on_c, 0, 78, 0
3, 1344, Note_on_c, 0, 69, 100
3, 1344, Note_on_c, 0, 75, 100
3, 1344, Note_on_c, 0, 78, 64
3, 1367, Note_on_c, 0, 78, 0
3, 1368, Note_on_c, 0, 75, 0
3, 1368, Note_on_c, 0, 69, 0
3, 1368, Note_on_c, 0, 68, 100
3, 1368, Note_on_c, 0, 73, 100
3, 1368, Note_on_c, 0, 76, 64
3, 1391, Note_on_c, 0, 76, 0
3, 1392, Note_on_c, 0, 73, 0
3, 1392, Note_on_c, 0, 68, 0
3, 1392, Note_on_c, 0, 66, 100
3, 1392, Note_on_c, 0, 71, 100
3, 1392, Note_on_c, 0, 75, 64
3, 1415, Note_on_c, 0, 75, 0
3, 1416, Note_on_c, 0, 71, 0
3, 1416, Note_on_c, 0, 66, 0
3, 1416, Note_on_c, 0, 68, 100
3, 1416, Note_on_c, 0, 73, 100
3, 1416, Note_on_c, 0, 76, 64
3, 1439, Note_on_c, 0, 76, 0
3, 1440, Note_on_c, 0, 73, 0
3, 1440, Note_on_c, 0, 68, 0
3, 1440, Note_on_c, 0, 69, 100
3, 1440, Note_on_c, 0, 75, 100
3, 1440, Note_on_c, 0, 78, 64
3, 1485, Note_on_c, 0, 78, 0
3, 1488, Note_on_c, 0, 75, 0
3, 1488, Note_on_c, 0, 69, 0
3, 1536, Note_on_c, 0, 76, 100
3, 1536, Note_on_c, 0, 68, 100
3, 1536, Note_on_c, 0, 71, 64
3, 1559, Note_on_c, 0, 71, 0
3, 1560, Note_on_c, 0, 68, 0
3, 1560, Note_on_c, 0, 66, 100
3, 1560, Note_on_c, 0, 69, 64
3, 1583, Note_on_c, 0, 69, 0
3, 1584, Note_on_c, 0, 66, 0
3, 1584, Note_on_c, 0, 76, 0
3, 1584, Note_on_c, 0, 71, 100
3, 1584, Note_on_c, 0, 64, 100
3, 1584, Note_on_c, 0, 68, 64
3, 1607, Note_on_c, 0, 68, 0
3, 1608, Note_on_c, 0, 64, 0
3, 1608, Note_on_c, 0, 66, 100
3, 1608, Note_on_c, 0, 69, 64
3, 1631, Note_on_c, 0, 69, 0
3, 1632, Note_on_c, 0, 66, 0
3, 1632, Note_on_c, 0, 71, 0
3, 1632, Note_on_c, 0, 71, 64
3, 1632, Note_on_c, 0, 68, 100
3, 1632, Note_on_c, 0, 76, 64
3, 1655, Note_on_c, 0, 76, 0
3, 1656, Note_on_c, 0, 68, 0
3, 1656, Note_on_c, 0, 69, 100
3, 1656, Note_on_c, 0, 78, 64
3, 1679, Note_on_c, 0, 78, 0
3, 1680, Note_on_c, 0, 69, 0
3, 1680, Note_on_c, 0, 71, 0
3, 1680, Note_on_c, 0, 71, 100
3, 1680, Note_on_c, 0, 68, 100
3, 1680, Note_on_c, 0, 76, 64
3, 1703, Note_on_c, 0, 76, 0
3, 1704, Note_on_c, 0, 68, 0
3, 1704, Note_on_c, 0, 69, 100
3, 1704, Note_on_c, 0, 78, 64
3, 1727, Note_on_c, 0, 78, 0
3, 1728, Note_on_c, 0, 69, 0
3, 1728, Note_on_c, 0, 71, 0
3, 1728, Note_on_c, 0, 76, 100
3, 1728, Note_on_c, 0, 71, 100
3, 1728, Note_on_c, 0, 80, 64
3, 1751, Note_on_c, 0, 80, 0
3, 1752, Note_on_c, 0, 71, 0
3, 1752, Note_on_c, 0, 69, 100
3, 1752, Note_on_c, 0, 78, 64
3, 1775, Note_on_c, 0, 78, 0
3, 1776, Note_on_c, 0, 69, 0
3, 1776, Note_on_c, 0, 76, 0
3, 1776, Note_on_c, 0, 71, 100
3, 1776, Note_on_c, 0, 68, 100
3, 1776, Note_on_c, 0, 76, 64
3, 1799, Note_on_c, 0, 76, 0
3, 1800, Note_on_c, 0, 68, 0
3, 1800, Note_on_c, 0, 69, 100
3, 1800, Note_on_c, 0, 78, 64
3, 1823, Note_on_c, 0, 78, 0
3, 1824, Note_on_c, 0, 69, 0
3, 1824, Note_on_c, 0, 71, 0
3, 1824, Note_on_c, 0, 76, 100
3, 1824, Note_on_c, 0, 71, 100
3, 1824, Note_on_c, 0, 80, 64
3, 1847, Note_on_c, 0, 80, 0
3, 1848, Note_on_c, 0, 71, 0
3, 1848, Note_on_c, 0, 69, 100
3, 1848, Note_on_c, 0, 78, 64
3, 1871, Note_on_c, 0, 78, 0
3, 1872, Note_on_c, 0, 69, 0
3, 1872, Note_on_c, 0, 76, 0
3, 1872, Note_on_c, 0, 71, 100
3, 1872, Note_on_c, 0, 68, 100
3, 1872, Note_on_c, 0, 76, 64
3, 1895, Note_on_c, 0, 76, 0
3, 1896, Note_on_c, 0, 68, 0
3, 1896, Note_on_c, 0, 66, 100
3, 1896, Note_on_c, 0, 75, 64
3, 1919, Note_on_c, 0, 75, 0
3, 1920, Note_on_c, 0, 66, 0
3, 1920, Note_on_c, 0, 71, 0
3, 1920, Note_on_c, 0, 64, 100
3, 1920, Note_on_c, 0, 73, 100
3, 1920, Note_on_c, 0, 68, 64
3, 1943, Note_on_c, 0, 68, 0
3, 1944, Note_on_c, 0, 64, 0
3, 1944, Note_on_c, 0, 63, 100
3, 1944, Note_on_c, 0, 66, 64
3, 1967, Note_on_c, 0, 66, 0
3, 1968, Note_on_c, 0, 63, 0
3, 1968, Note_on_c, 0, 73, 0
3, 1968, Note_on_c, 0, 61, 100
3, 1968, Note_on_c, 0, 68, 100
3, 1968, Note_on_c, 0, 64, 64
3, 1991, Note_on_c, 0, 64, 0
3, 1992, Note_on_c, 0, 61, 0
3, 1992, Note_on_c, 0, 63, 100
3, 1992, Note_on_c, 0, 66, 64
3, 2015, Note_on_c, 0, 66, 0
3, 2016, Note_on_c, 0, 63, 0
3, 2016, Note_on_c, 0, 68, 0
3, 2016, Note_on_c, 0, 73, 100
3, 2016, Note_on_c, 0, 64, 100
3, 2016, Note_on_c, 0, 68, 64
3, 2061, Note_on_c, 0, 68, 0
3, 2112, Note_on_c, 0, 64, 0
3, 2112, Note_on_c, 0, 73, 0
3, 2112, Note_on_c, 0, 73, 100
3, 2112, Note_on_c, 0, 76, 100
3, 2112, Note_on_c, 0, 68, 64
3, 2135, Note_on_c, 0, 68, 0
3, 2136, Note_on_c, 0, 76, 0
3, 2136, Note_on_c, 0, 75, 100
3, 2136, Note_on_c, 0, 66, 64
3, 2159, Note_on_c, 0, 66, 0
3, 2160, Note_on_c, 0, 75, 0
3, 2160, Note_on_c, 0, 73, 0
3, 2160, Note_on_c, 0, 68, 100
3, 2160, Note_on_c, 0, 73, 100
3, 2160, Note_on_c, 0, 64, 64
3, 2183, Note_on_c, 0, 64, 0
3, 2184, Note_on_c, 0, 73, 0
3, 2184, Note_on_c, 0, 75, 100
3, 2184, Note_on_c, 0, 66, 64
3, 2207, Note_on_c, 0, 66, 0
3, 2208, Note_on_c, 0, 75, 0
3, 2208, Note_on_c, 0, 68, 0
3, 2208, Note_on_c, 0, 73, 100
3, 2208, Note_on_c, 0, 76, 100
3, 2208, Note_on_c, 0, 68, 64
3, 2253, Note_on_c, 0, 68, 0
3, 2256, Note_on_c, 0, 76, 0
3, 2256, Note_on_c, 0, 73, 0
3, 2304, Note_on_c, 0, 73, 100
3, 2304, Note_on_c, 0, 78, 100
3, 2304, Note_on_c, 0, 70, 64
3, 2327, Note_on_c, 0, 70, 0
3, 2328, Note_on_c, 0, 73, 0
3, 2328, Note_on_c, 0, 71, 100
3, 2328, Note_on_c, 0, 68, 64
3, 2351, Note_on_c, 0, 68, 0
3, 2352, Note_on_c, 0, 71, 0
3, 2352, Note_on_c, 0, 78, 0
3, 2352, Note_on_c, 0, 73, 64
3, 2352, Note_on_c, 0, 70, 100
3, 2352, Note_on_c, 0, 66, 64
3, 2375, Note_on_c, 0, 66, 0
3, 2376, Note_on_c, 0, 70, 0
3, 2376, Note_on_c, 0, 71, 100
3, 2376, Note_on_c, 0, 68, 64
3, 2399, Note_on_c, 0, 68, 0
3, 2400, Note_on_c, 0, 71, 0
3, 2400, Note_on_c, 0, 73, 0
3, 2400, Note_on_c, 0, 78, 100
3, 2400, Note_on_c, 0, 73, 100
3, 2400, Note_on_c, 0, 70, 64
3, 2423, Note_on_c, 0, 70, 0
3, 2424, Note_on_c, 0, 78, 0
3, 2424, Note_on_c, 0, 80, 100
3, 2424, Note_on_c, 0, 71, 64
3, 2447, Note_on_c, 0, 71, 0
3, 2448, Note_on_c, 0, 80, 0
3, 2448, Note_on_c, 0, 73, 0
3, 2448, Note_on_c, 0, 78, 100
3, 2448, Note_on_c, 0, 73, 100
3, 2448, Note_on_c, 0, 70, 64
3, 2471, Note_on_c, 0, 70, 0
3, 2472, Note_on_c, 0, 78, 0
3, 2472, Note_on_c, 0, 80, 100
3, 2472, Note_on_c, 0, 71, 64
3, 2495, Note_on_c, 0, 71, 0
3, 2496, Note_on_c, 0, 80, 0
3, 2496, Note_on_c, 0, 73, 0
3, 2496, Note_on_c, 0, 82, 100
3, 2496, Note_on_c, 0, 78, 100
3, 2496, Note_on_c, 0, 73, 64
3, 2519, Note_on_c, 0, 73, 0
3, 2520, Note_on_c, 0, 82, 0
3, 2520, Note_on_c, 0, 80, 100
3, 2520, Note_on_c, 0, 71, 64
3, 2543, Note_on_c, 0, 71, 0
3, 2544, Note_on_c, 0, 80, 0
3, 2544, Note_on_c, 0, 78, 0
3, 2544, Note_on_c, 0, 78, 100
3, 2544, Note_on_c, 0, 73, 100
3, 2544, Note_on_c, 0, 70, 64
3, 2567, Note_on_c, 0, 70, 0
3, 2568, Note_on_c, 0, 78, 0
3, 2568, Note_on_c, 0, 80, 100
3, 2568, Note_on_c, 0, 71, 64
3, 2591, Note_on_c, 0, 71, 0
3, 2592, Note_on_c, 0, 80, 0
3, 2592, Note_on_c, 0, 73, 0
3, 2592, Note_on_c, 0, 82, 100
3, 2592, Note_on_c, 0, 78, 100
3, 2592, Note_on_c, 0, 73, 64
3, 2637, Note_on_c, 0, 73, 0
3, 2640, Note_on_c, 0, 78, 0
3, 2640, Note_on_c, 0, 82, 0
3, 2688, Note_on_c, 0, 78, 100
3, 2688, Note_on_c, 0, 83, 100
3, 2688, Note_on_c, 0, 75, 64
3, 2711, Note_on_c, 0, 75, 0
3, 2712, Note_on_c, 0, 78, 0
3, 2712, Note_on_c, 0, 76, 100
3, 2712, Note_on_c, 0, 73, 64
3, 2735, Note_on_c, 0, 73, 0
3, 2736, Note_on_c, 0, 76, 0
3, 2736, Note_on_c, 0, 83, 0
3, 2736, Note_on_c, 0, 75, 100
3, 2736, Note_on_c, 0, 78, 100
3, 2736, Note_on_c, 0, 71, 64
3, 2759, Note_on_c, 0, 71, 0
3, 2760, Note_on_c, 0, 75, 0
3, 2760, Note_on_c, 0, 76, 100
3, 2760, Note_on_c, 0, 73, 64
3, 2783, Note_on_c, 0, 73, 0
3, 2784, Note_on_c, 0, 76, 0
3, 2784, Note_on_c, 0, 78, 0
3, 2784, Note_on_c, 0, 83, 64
3, 2784, Note_on_c, 0, 78, 100
3, 2784, Note_on_c, 0, 75, 64
3, 2807, Note_on_c, 0, 75, 0
3, 2808, Note_on_c, 0, 78, 0
3, 2808, Note_on_c, 0, 76, 100
3, 2808, Note_on_c, 0, 73, 64
3, 2831, Note_on_c, 0, 73, 0
3, 2832, Note_on_c, 0, 76, 0
3, 2832, Note_on_c, 0, 83, 0
3, 2832, Note_on_c, 0, 75, 100
3, 2832, Note_on_c, 0, 78, 100
3, 2832, Note_on_c, 0, 71, 64
3, 2856, Note_on_c, 0, 78, 0
3, 2856, Note_on_c, 0, 75, 0
3, 2856, Note_on_c, 0, 73, 100
3, 2856, Note_on_c, 0, 76, 100
3, 2877, Note_on_c, 0, 71, 0
3, 2880, Note_on_c, 0, 76, 0
3, 2880, Note_on_c, 0, 73, 0
3, 2880, Note_on_c, 0, 75, 100
3, 2880, Note_on_c, 0, 71, 100
3, 2880, Note_on_c, 0, 66, 64
3, 2903, Note_on_c, 0, 66, 0
3, 2904, Note_on_c, 0, 71, 0
3, 2904, Note_on_c, 0, 75, 0
3, 2904, Note_on_c, 0, 70, 64
3, 2904, Note_on_c, 0, 73, 100
3, 2904, Note_on_c, 0, 64, 64
3, 2927, Note_on_c, 0, 64, 0
3, 2928, Note_on_c, 0, 73, 0
3, 2928, Note_on_c, 0, 70, 0
3, 2928, Note_on_c, 0, 71, 100
3, 2928, Note_on_c, 0, 68, 100
3, 2928, Note_on_c, 0, 63, 64
3, 2951, Note_on_c, 0, 63, 0
3, 2952, Note_on_c, 0, 68, 0
3, 2952, Note_on_c, 0, 71, 0
3, 2952, Note_on_c, 0, 73, 100
3, 2952, Note_on_c, 0, 70, 100
3, 2952, Note_on_c, 0, 64, 64
3, 2975, Note_on_c, 0, 64, 0
3, 2976, Note_on_c, 0, 70, 0
3, 2976, Note_on_c, 0, 73, 0
3, 2976, Note_on_c, 0, 71, 64
3, 2976, Note_on_c, 0, 75, 100
3, 2976, Note_on_c, 0, 66, 64
3, 3021, Note_on_c, 0, 66, 0
3, 3024, Note_on_c, 0, 75, 0
3, 3024, Note_on_c, 0, 71, 0
3, 3072, Note_on_c, 0, 73, 100
3, 3072, Note_on_c, 0, 68, 100
3, 3072, Note_on_c, 0, 64, 64
3, 3095, Note_on_c, 0, 64, 0
3, 3096, Note_on_c, 0, 68, 0
3, 3096, Note_on_c, 0, 66, 100
3, 3096, Note_on_c, 0, 63, 64
3, 3119, Note_on_c, 0, 63, 0
3, 3120, Note_on_c, 0, 66, 0
3, 3120, Note_on_c, 0, 73, 0
3, 3120, Note_on_c, 0, 68, 100
3, 3120, Note_on_c, 0, 64, 100
3, 3120, Note_on_c, 0, 61, 64
3, 3143, Note_on_c, 0, 61, 0
3, 3144, Note_on_c, 0, 64, 0
3, 3144, Note_on_c, 0, 66, 100
3, 3144, Note_on_c, 0, 63, 64
3, 3167, Note_on_c, 0, 63, 0
3, 3168, Note_on_c, 0, 66, 0
3, 3168, Note_on_c, 0, 68, 0
3, 3168, Note_on_c, 0, 68, 100
3, 3168, Note_on_c, 0, 73, 100
3, 3168, Note_on_c, 0, 64, 64
3, 3191, Note_on_c, 0, 64, 0
3, 3192, Note_on_c, 0, 73, 0
3, 3192, Note_on_c, 0, 75, 100
3, 3192, Note_on_c, 0, 66, 64
3, 3215, Note_on_c, 0, 66, 0
3, 3216, Note_on_c, 0, 75, 0
3, 3216, Note_on_c, 0, 68, 0
3, 3216, Note_on_c, 0, 70, 100
3, 3216, Note_on_c, 0, 73, 100
3, 3216, Note_on_c, 0, 64, 64
3, 3240, Note_on_c, 0, 73, 0
3, 3240, Note_on_c, 0, 70, 0
3, 3240, Note_on_c, 0, 75, 100
3, 3261, Note_on_c, 0, 64, 0
3, 3264, Note_on_c, 0, 75, 0
3, 3264, Note_on_c, 0, 70, 100
3, 3264, Note_on_c, 0, 76, 100
3, 3264, Note_on_c, 0, 66, 64
3, 3288, Note_on_c, 0, 76, 0
3, 3288, Note_on_c, 0, 70, 0
3, 3288, Note_on_c, 0, 71, 100
3, 3288, Note_on_c, 0, 75, 100
3, 3309, Note_on_c, 0, 66, 0
3, 3312, Note_on_c, 0, 75, 0
3, 3312, Note_on_c, 0, 71, 0
3, 3312, Note_on_c, 0, 70, 100
3, 3312, Note_on_c, 0, 75, 100
3, 3312, Note_on_c, 0, 66, 64
3, 3336, Note_on_c, 0, 75, 0
3, 3336, Note_on_c, 0, 70, 0
3, 3336, Note_on_c, 0, 71, 100
3, 3336, Note_on_c, 0, 75, 100
3, 3357, Note_on_c, 0, 66, 0
3, 3360, Note_on_c, 0, 75, 0
3, 3360, Note_on_c, 0, 71, 0
3, 3360, Note_on_c, 0, 73, 100
3, 3360, Note_on_c, 0, 76, 100
3, 3360, Note_on_c, 0, 66, 64
3, 3405, Note_on_c, 0, 66, 0
3, 3408, Note_on_c, 0, 76, 0
3, 3408, Note_on_c, 0, 73, 0
3, 3456, Note_on_c, 0, 71, 100
3, 3456, Note_on_c, 0, 66, 100
3, 3456, Note_on_c, 0, 75, 64
3, 3479, Note_on_c, 0, 75, 0
3, 3480, Note_on_c, 0, 66, 0
3, 3480, Note_on_c, 0, 64, 100
3, 3480, Note_on_c, 0, 73, 64
3, 3503, Note_on_c, 0, 73, 0
3, 3504, Note_on_c, 0, 64, 0
3, 3504, Note_on_c, 0, 71, 0
3, 3504, Note_on_c, 0, 66, 100
3, 3504, Note_on_c, 0, 63, 100
3, 3504, Note_on_c, 0, 71, 64
3, 3527, Note_on_c, 0, 71, 0
3, 3528, Note_on_c, 0, 63, 0
3, 3528, Note_on_c, 0, 64, 100
3, 3528, Note_on_c, 0, 73, 64
3, 3551, Note_on_c, 0, 73, 0
3, 3552, Note_on_c, 0, 64, 0
3, 3552, Note_on_c, 0, 66, 0
3, 3552, Note_on_c, 0, 66, 100
3, 3552, Note_on_c, 0, 71, 100
3, 3552, Note_on_c, 0, 75, 64
3, 3575, Note_on_c, 0, 75, 0
3, 3576, Note_on_c, 0, 71, 0
3, 3576, Note_on_c, 0, 73, 100
3, 3576, Note_on_c, 0, 76, 64
3, 3599, Note_on_c, 0, 76, 0
3, 3600, Note_on_c, 0, 73, 0
3, 3600, Note_on_c, 0, 66, 0
3, 3600, Note_on_c, 0, 71, 64
3, 3600, Note_on_c, 0, 66, 100
3, 3600, Note_on_c, 0, 75, 64
3, 3623, Note_on_c, 0, 75, 0
3, 3624, Note_on_c, 0, 71, 0
3, 3624, Note_on_c, 0, 73, 100
3, 3624, Note_on_c, 0, 76, 64
3, 3647, Note_on_c, 0, 76, 0
3, 3648, Note_on_c, 0, 73, 0
3, 3648, Note_on_c, 0, 66, 0
3, 3648, Note_on_c, 0, 71, 100
3, 3648, Note_on_c, 0, 75, 100
3, 3648, Note_on_c, 0, 78, 64
3, 3671, Note_on_c, 0, 78, 0
3, 3672, Note_on_c, 0, 75, 0
3, 3672, Note_on_c, 0, 73, 100
3, 3672, Note_on_c, 0, 76, 64
3, 3695, Note_on_c, 0, 76, 0
3, 3696, Note_on_c, 0, 73, 0
3, 3696, Note_on_c, 0, 71, 0
3, 3696, Note_on_c, 0, 66, 64
3, 3696, Note_on_c, 0, 71, 100
3, 3696, Note_on_c, 0, 75, 64
3, 3719, Note_on_c, 0, 75, 0
3, 3720, Note_on_c, 0, 71, 0
3, 3720, Note_on_c, 0, 73, 100
3, 3720, Note_on_c, 0, 76, 64
3, 3743, Note_on_c, 0, 76, 0
3, 3744, Note_on_c, 0, 73, 0
3, 3744, Note_on_c, 0, 66, 0
3, 3744, Note_on_c, 0, 71, 64
3, 3744, Note_on_c, 0, 75, 100
3, 3744, Note_on_c, 0, 78, 64
3, 3767, Note_on_c, 0, 78, 0
3, 3768, Note_on_c, 0, 75, 0
3, 3768, Note_on_c, 0, 73, 100
3, 3768, Note_on_c, 0, 76, 64
3, 3791, Note_on_c, 0, 76, 0
3, 3792, Note_on_c, 0, 73, 0
3, 3792, Note_on_c, 0, 71, 0
3, 3792, Note_on_c, 0, 66, 100
3, 3792, Note_on_c, 0, 71, 100
3, 3792, Note_on_c, 0, 75, 64
3, 3815, Note_on_c, 0, 75, 0
3, 3816, Note_on_c, 0, 71, 0
3, 3816, Note_on_c, 0, 69, 100
3, 3816, Note_on_c, 0, 73, 64
3, 3839, Note_on_c, 0, 73, 0
3, 3840, Note_on_c, 0, 69, 0
3, 3840, Note_on_c, 0, 66, 0
3, 3840, Note_on_c, 0, 68, 100
3, 3840, Note_on_c, 0, 65, 100
3, 3840, Note_on_c, 0, 71, 64
3, 3863, Note_on_c, 0, 71, 0
3, 3864, Note_on_c, 0, 68, 0
3, 3864, Note_on_c, 0, 66, 100
3, 3864, Note_on_c, 0, 69, 64
3, 3887, Note_on_c, 0, 69, 0
3, 3888, Note_on_c, 0, 66, 0
3, 3888, Note_on_c, 0, 65, 0
3, 3888, Note_on_c, 0, 65, 100
3, 3888, Note_on_c, 0, 59, 100
3, 3888, Note_on_c, 0, 68, 64
3, 3911, Note_on_c, 0, 68, 0
3, 3912, Note_on_c, 0, 65, 0
3, 3912, Note_on_c, 0, 66, 100
3, 3912, Note_on_c, 0, 69, 64
3, 3935, Note_on_c, 0, 69, 0
3, 3936, Note_on_c, 0, 66, 0
3, 3936, Note_on_c, 0, 59, 0
3, 3936, Note_on_c, 0, 65, 100
3, 3936, Note_on_c, 0, 68, 100
3, 3936, Note_on_c, 0, 71, 64
3, 3981, Note_on_c, 0, 71, 0
3, 3984, Note_on_c, 0, 68, 0
3, 3984, Note_on_c, 0, 65, 0
3, 4032, Note_on_c, 0, 65, 64
3, 4032, Note_on_c, 0, 68, 100
3, 4032, Note_on_c, 0, 74, 64
3, 4055, Note_on_c, 0, 74, 0
3, 4056, Note_on_c, 0, 68, 0
3, 4056, Note_on_c, 0, 69, 100
3, 4056, Note_on_c, 0, 73, 64
3, 4079, Note_on_c, 0, 73, 0
3, 4080, Note_on_c, 0, 69, 0
3, 4080, Note_on_c, 0, 65, 0
3, 4080, Note_on_c, 0, 65, 100
3, 4080, Note_on_c, 0, 68, 100
3, 4080, Note_on_c, 0, 71, 64
3, 4103, Note_on_c, 0, 71, 0
3, 4104, Note_on_c, 0, 68, 0
3, 4104, Note_on_c, 0, 69, 100
3, 4104, Note_on_c, 0, 73, 64
3, 4127, Note_on_c, 0, 73, 0
3, 4128, Note_on_c, 0, 69, 0
3, 4128, Note_on_c, 0, 65, 0
3, 4128, Note_on_c, 0, 68, 64
3, 4128, Note_on_c, 0, 65, 100
3, 4128, Note_on_c, 0, 74, 64
3, 4173, Note_on_c, 0, 74, 0
3, 4176, Note_on_c, 0, 65, 0
3, 4176, Note_on_c, 0, 68, 0
3, 4224, Note_on_c, 0, 66, 100
3, 4224, Note_on_c, 0, 66, 100
3, 4224, Note_on_c, 0, 69, 100
3, 4224, Note_on_c, 0, 73, 64
3, 4247, Note_on_c, 0, 73, 0
3, 4248, Note_on_c, 0, 69, 0
3, 4248, Note_on_c, 0, 66, 0
3, 4248, Note_on_c, 0, 68, 100
3, 4248, Note_on_c, 0, 71, 64
3, 4271, Note_on_c, 0, 71, 0
3, 4272, Note_on_c, 0, 68, 0
3, 4272, Note_on_c, 0, 66, 0
3, 4272, Note_on_c, 0, 61, 100
3, 4272, Note_on_c, 0, 66, 100
3, 4272, Note_on_c, 0, 69, 64
3, 4295, Note_on_c, 0, 69, 0
3, 4296, Note_on_c, 0, 66, 0
3, 4296, Note_on_c, 0, 68, 100
3, 4296, Note_on_c, 0, 71, 64
3, 4319, Note_on_c, 0, 71, 0
3, 4320, Note_on_c, 0, 68, 0
3, 4320, Note_on_c, 0, 61, 0
3, 4320, Note_on_c, 0, 69, 100
3, 4320, Note_on_c, 0, 66, 100
3, 4320, Note_on_c, 0, 73, 64
3, 4365, Note_on_c, 0, 73, 0
3, 4368, Note_on_c, 0, 66, 0
3, 4368, Note_on_c, 0, 69, 0
3, 4416, Note_on_c, 0, 66, 100
3, 4416, Note_on_c, 0, 66, 100
3, 4416, Note_on_c, 0, 69, 100
3, 4416, Note_on_c, 0, 73, 64
3, 4439, Note_on_c, 0, 73, 0
3, 4440, Note_on_c, 0, 69, 0
3, 4440, Note_on_c, 0, 66, 0
3, 4440, Note_on_c, 0, 68, 100
3, 4440, Note_on_c, 0, 71, 64
3, 4463, Note_on_c, 0, 71, 0
3, 4464, Note_on_c, 0, 68, 0
3, 4464, Note_on_c, 0, 66, 0
3, 4464, Note_on_c, 0, 61, 100
3, 4464, Note_on_c, 0, 66, 100
3, 4464, Note_on_c, 0, 69, 64
3, 4487, Note_on_c, 0, 69, 0
3, 4488, Note_on_c, 0, 66, 0
3, 4488, Note_on_c, 0, 68, 100
3, 4488, Note_on_c, 0, 71, 64
3, 4511, Note_on_c, 0, 71, 0
3, 4512, Note_on_c, 0, 68, 0
3, 4512, Note_on_c, 0, 61, 0
3, 4512, Note_on_c, 0, 66, 100
3, 4512, Note_on_c, 0, 69, 100
3, 4512, Note_on_c, 0, 73, 64
3, 4557, Note_on_c, 0, 73, 0
3, 4560, Note_on_c, 0, 69, 0
3, 4560, Note_on_c, 0, 66, 0
3, 4608, Note_on_c, 0, 68, 64
3, 4608, Note_on_c, 0, 66, 100
3, 4608, Note_on_c, 0, 71, 64
3, 4631, Note_on_c, 0, 71, 0
3, 4632, Note_on_c, 0, 68, 0
3, 4632, Note_on_c, 0, 66, 100
3, 4632, Note_on_c, 0, 69, 64
3, 4655, Note_on_c, 0, 69, 0
3, 4656, Note_on_c, 0, 66, 0
3, 4656, Note_on_c, 0, 66, 0
3, 4656, Note_on_c, 0, 68, 64
3, 4656, Note_on_c, 0, 59, 100
3, 4656, Note_on_c, 0, 65, 100
3, 4679, Note_on_c, 0, 68, 0
3, 4680, Note_on_c, 0, 65, 0
3, 4680, Note_on_c, 0, 59, 0
3, 4680, Note_on_c, 0, 61, 100
3, 4680, Note_on_c, 0, 66, 100
3, 4680, Note_on_c, 0, 69, 64
3, 4703, Note_on_c, 0, 69, 0
3, 4704, Note_on_c, 0, 66, 0
3, 4704, Note_on_c, 0, 61, 0
3, 4704, Note_on_c, 0, 62, 100
3, 4704, Note_on_c, 0, 68, 100
3, 4704, Note_on_c, 0, 71, 64
3, 4749, Note_on_c, 0, 71, 0
3, 4752, Note_on_c, 0, 68, 0
3, 4752, Note_on_c, 0, 62, 0
3, 4800, Note_on_c, 0, 65, 100
3, 4800, Note_on_c, 0, 68, 100
3, 4800, Note_on_c, 0, 71, 64
3, 4823, Note_on_c, 0, 71, 0
3, 4824, Note_on_c, 0, 68, 0
3, 4824, Note_on_c, 0, 66, 100
3, 4824, Note_on_c, 0, 69, 64
3, 4847, Note_on_c, 0, 69, 0
3, 4848, Note_on_c, 0, 66, 0
3, 4848, Note_on_c, 0, 65, 0
3, 4848, Note_on_c, 0, 65, 100
3, 4848, Note_on_c, 0, 68, 64
3, 4871, Note_on_c, 0, 68, 0
3, 4872, Note_on_c, 0, 66, 100
3, 4872, Note_on_c, 0, 69, 64
3, 4895, Note_on_c, 0, 69, 0
3, 4896, Note_on_c, 0, 66, 0
3, 4896, Note_on_c, 0, 65, 0
3, 4896, Note_on_c, 0, 65, 64
3, 4896, Note_on_c, 0, 68, 64
3, 4896, Note_on_c, 0, 71, 64
3, 4941, Note_on_c, 0, 71, 0
3, 4944, Note_on_c, 0, 68, 0
3, 4944, Note_on_c, 0, 65, 0
3, 4968, Control_c, 0, 7, 76
3, 4976, Control_c, 0, 7, 82
3, 4992, Note_on_c, 0, 66, 64
3, 4992, Note_on_c, 0, 69, 64
3, 5015, Note_on_c, 0, 69, 0
3, 5016, Note_on_c, 0, 68, 64
3, 5039, Note_on_c, 0, 68, 0
3, 5040, Note_on_c, 0, 66, 0
3, 5040, Note_on_c, 0, 61, 64
3, 5040, Note_on_c, 0, 66, 64
3, 5063, Note_on_c, 0, 66, 0
3, 5064, Note_on_c, 0, 68, 64
3, 5087, Note_on_c, 0, 68, 0
3, 5088, Note_on_c, 0, 61, 0
3, 5088, Note_on_c, 0, 66, 64
3, 5088, Note_on_c, 0, 69, 64
3, 5111, Note_on_c, 0, 69, 0
3, 5112, Note_on_c, 0, 66, 0
3, 5112, Note_on_c, 0, 65, 64
3, 5112, Note_on_c, 0, 71, 64
3, 5135, Note_on_c, 0, 71, 0
3, 5136, Note_on_c, 0, 65, 0
3, 5136, Note_on_c, 0, 66, 64
3, 5136, Note_on_c, 0, 69, 64
3, 5159, Note_on_c, 0, 69, 0
3, 5160, Note_on_c, 0, 66, 0
3, 5160, Note_on_c, 0, 68, 64
3, 5160, Note_on_c, 0, 71, 64
3, 5183, Note_on_c, 0, 71, 0
3, 5184, Note_on_c, 0, 68, 0
3, 5184, Note_on_c, 0, 66, 64
3, 5184, Note_on_c, 0, 69, 64
3, 5184, Note_on_c, 0, 73, 64
3, 5204, Control_c, 0, 7, 87
3, 5207, Note_on_c, 0, 73, 0
3, 5208, Note_on_c, 0, 69, 0
3, 5208, Note_on_c, 0, 68, 64
3, 5208, Note_on_c, 0, 71, 64
3, 5231, Note_on_c, 0, 71, 0
3, 5232, Note_on_c, 0, 68, 0
3, 5232, Note_on_c, 0, 66, 0
3, 5232, Note_on_c, 0, 61, 64
3, 5232, Note_on_c, 0, 66, 64
3, 5232, Note_on_c, 0, 69, 64
3, 5255, Note_on_c, 0, 69, 0
3, 5256, Note_on_c, 0, 66, 0
3, 5256, Note_on_c, 0, 68, 64
3, 5256, Note_on_c, 0, 71, 64
3, 5279, Note_on_c, 0, 71, 0
3, 5280, Note_on_c, 0, 68, 0
3, 5280, Note_on_c, 0, 61, 0
3, 5280, Note_on_c, 0, 73, 64
3, 5280, Note_on_c, 0, 66, 64
3, 5280, Note_on_c, 0, 69, 64
3, 5304, Note_on_c, 0, 69, 0
3, 5304, Note_on_c, 0, 66, 0
3, 5304, Note_on_c, 0, 68, 64
3, 5304, Note_on_c, 0, 71, 64
3, 5328, Note_on_c, 0, 71, 0
3, 5328, Note_on_c, 0, 68, 0
3, 5328, Note_on_c, 0, 73, 0
3, 5328, Note_on_c, 0, 66, 64
3, 5328, Note_on_c, 0, 69, 64
3, 5328, Note_on_c, 0, 78, 64
3, 5351, Note_on_c, 0, 78, 0
3, 5352, Note_on_c, 0, 69, 0
3, 5352, Note_on_c, 0, 66, 0
3, 5352, Control_c, 0, 7, 93
3, 5352, Note_on_c, 0, 68, 64
3, 5352, Note_on_c, 0, 71, 64
3, 5352, Note_on_c, 0, 77, 64
3, 5375, Note_on_c, 0, 77, 0
3, 5376, Note_on_c, 0, 71, 0
3, 5376, Note_on_c, 0, 68, 0
3, 5376, Note_on_c, 0, 78, 64
3, 5376, Note_on_c, 0, 69, 64
3, 5376, Note_on_c, 0, 73, 64
3, 5399, Note_on_c, 0, 69, 0
3, 5399, Note_on_c, 0, 78, 0
3, 5400, Note_on_c, 0, 76, 64
3, 5400, Note_on_c, 0, 67, 64
3, 5421, Note_on_c, 0, 73, 0
3, 5423, Note_on_c, 0, 67, 0
3, 5423, Note_on_c, 0, 76, 0
3, 5424, Note_on_c, 0, 74, 64
3, 5424, Note_on_c, 0, 66, 64
3, 5424, Note_on_c, 0, 69, 64
3, 5436, Control_c, 0, 7, 99
3, 5447, Note_on_c, 0, 66, 0
3, 5447, Note_on_c, 0, 74, 0
3, 5448, Note_on_c, 0, 76, 64
3, 5448, Note_on_c, 0, 67, 64
3, 5469, Note_on_c, 0, 69, 0
3, 5471, Note_on_c, 0, 67, 0
3, 5471, Note_on_c, 0, 76, 0
3, 5472, Note_on_c, 0, 78, 64
3, 5472, Note_on_c, 0, 74, 64
3, 5472, Note_on_c, 0, 69, 64
3, 5495, Note_on_c, 0, 74, 0
3, 5495, Note_on_c, 0, 78, 0
3, 5496, Note_on_c, 0, 79, 64
3, 5496, Note_on_c, 0, 76, 64
3, 5517, Note_on_c, 0, 69, 0
3, 5519, Note_on_c, 0, 76, 0
3, 5519, Note_on_c, 0, 79, 0
3, 5520, Note_on_c, 0, 78, 64
3, 5520, Note_on_c, 0, 74, 64
3, 5520, Note_on_c, 0, 69, 64
3, 5543, Note_on_c, 0, 74, 0
3, 5543, Note_on_c, 0, 78, 0
3, 5544, Note_on_c, 0, 79, 64
3, 5544, Note_on_c, 0, 76, 64
3, 5565, Note_on_c, 0, 69, 0
3, 5567, Note_on_c, 0, 76, 0
3, 5567, Note_on_c, 0, 79, 0
3, 5568, Note_on_c, 0, 74, 64
3, 5568, Note_on_c, 0, 81, 64
3, 5568, Note_on_c, 0, 78, 64
3, 5591, Note_on_c, 0, 78, 0
3, 5591, Note_on_c, 0, 81, 0
3, 5592, Note_on_c, 0, 79, 64
3, 5592, Note_on_c, 0, 76, 64
3, 5613, Note_on_c, 0, 74, 0
3, 5615, Note_on_c, 0, 76, 0
3, 5615, Note_on_c, 0, 79, 0
3, 5616, Note_on_c, 0, 78, 64
3, 5616, Note_on_c, 0, 74, 64
3, 5616, Note_on_c, 0, 69, 64
3, 5639, Note_on_c, 0, 74, 0
3, 5639, Note_on_c, 0, 78, 0
3, 5640, Note_on_c, 0, 79, 64
3, 5640, Note_on_c, 0, 76, 64
3, 5661, Note_on_c, 0, 69, 0
3, 5663, Note_on_c, 0, 76, 0
3, 5663, Note_on_c, 0, 79, 0
3, 5664, Note_on_c, 0, 81, 64
3, 5664, Note_on_c, 0, 78, 64
3, 5709, Note_on_c, 0, 78, 0
3, 5709, Note_on_c, 0, 81, 0
3, 5760, Note_on_c, 0, 72, 64
3, 5760, Note_on_c, 0, 75, 64
3, 5760, Note_on_c, 0, 80, 64
3, 5783, Note_on_c, 0, 75, 0
3, 5783, Note_on_c, 0, 72, 0
3, 5784, Note_on_c, 0, 70, 64
3, 5784, Note_on_c, 0, 73, 64
3, 5805, Note_on_c, 0, 80, 0
3, 5807, Note_on_c, 0, 73, 0
3, 5807, Note_on_c, 0, 70, 0
3, 5808, Note_on_c, 0, 72, 64
3, 5808, Note_on_c, 0, 68, 64
3, 5808, Note_on_c, 0, 75, 64
3, 5831, Note_on_c, 0, 68, 0
3, 5831, Note_on_c, 0, 72, 0
3, 5832, Note_on_c, 0, 70, 64
3, 5832, Note_on_c, 0, 73, 64
3, 5853, Note_on_c, 0, 75, 0
3, 5855, Note_on_c, 0, 73, 0
3, 5855, Note_on_c, 0, 70, 0
3, 5856, Note_on_c, 0, 72, 64
3, 5856, Note_on_c, 0, 75, 64
3, 5856, Note_on_c, 0, 80, 64
3, 5901, Note_on_c, 0, 80, 0
3, 5901, Note_on_c, 0, 75, 0
3, 5901, Note_on_c, 0, 72, 0
3, 5952, Note_on_c, 0, 80, 64
3, 5952, Note_on_c, 0, 76, 64
3, 5952, Note_on_c, 0, 73, 64
3, 5975, Note_on_c, 0, 76, 0
3, 5975, Note_on_c, 0, 80, 0
3, 5976, Note_on_c, 0, 78, 64
3, 5976, Note_on_c, 0, 75, 64
3, 5997, Note_on_c, 0, 73, 0
3, 5999, Note_on_c, 0, 75, 0
3, 5999, Note_on_c, 0, 78, 0
3, 6000, Note_on_c, 0, 76, 64
3, 6000, Note_on_c, 0, 73, 64
3, 6000, Note_on_c, 0, 68, 64
3, 6023, Note_on_c, 0, 73, 0
3, 6023, Note_on_c, 0, 76, 0
3, 6024, Note_on_c, 0, 78, 64
3, 6024, Note_on_c, 0, 75, 64
3, 6045, Note_on_c, 0, 68, 0
3, 6047, Note_on_c, 0, 75, 0
3, 6047, Note_on_c, 0, 78, 0
3, 6048, Note_on_c, 0, 80, 64
3, 6048, Note_on_c, 0, 76, 64
3, 6048, Note_on_c, 0, 73, 64
3, 6093, Note_on_c, 0, 73, 0
3, 6093, Note_on_c, 0, 76, 0
3, 6093, Note_on_c, 0, 80, 0
3, 6144, Note_on_c, 0, 78, 64
3, 6144, Note_on_c, 0, 72, 64
3, 6144, Note_on_c, 0, 69, 64
3, 6167, Note_on_c, 0, 72, 0
3, 6167, Note_on_c, 0, 78, 0
3, 6168, Note_on_c, 0, 76, 64
3, 6168, Note_on_c, 0, 73, 64
3, 6189, Note_on_c, 0, 69, 0
3, 6191, Note_on_c, 0, 73, 0
3, 6191, Note_on_c, 0, 76, 0
3, 6192, Note_on_c, 0, 75, 64
3, 6192, Note_on_c, 0, 69, 64
3, 6192, Note_on_c, 0, 72, 64
3, 6215, Note_on_c, 0, 72, 0
3, 6215, Note_on_c, 0, 75, 0
3, 6216, Note_on_c, 0, 76, 64
3, 6216, Note_on_c, 0, 73, 64
3, 6237, Note_on_c, 0, 69, 0
3, 6239, Note_on_c, 0, 73, 0
3, 6239, Note_on_c, 0, 76, 0
3, 6240, Note_on_c, 0, 78, 64
3, 6240, Note_on_c, 0, 75, 64
3, 6240, Note_on_c, 0, 70, 64
3, 6263, Note_on_c, 0, 75, 0
3, 6263, Note_on_c, 0, 78, 0
3, 6264, Note_on_c, 0, 80, 64
3, 6264, Note_on_c, 0, 76, 64
3, 6285, Note_on_c, 0, 70, 0
3, 6287, Note_on_c, 0, 76, 0
3, 6287, Note_on_c, 0, 80, 0
3, 6288, Note_on_c, 0, 81, 64
3, 6288, Note_on_c, 0, 78, 64
3, 6311, Note_on_c, 0, 78, 0
3, 6311, Note_on_c, 0, 81, 0
3, 6312, Note_on_c, 0, 80, 64
3, 6312, Note_on_c, 0, 76, 64
3, 6335, Note_on_c, 0, 76, 0
3, 6335, Note_on_c, 0, 80, 0
3, 6336, Note_on_c, 0, 78, 64
3, 6336, Note_on_c, 0, 75, 64
3, 6336, Note_on_c, 0, 72, 64
3, 6359, Note_on_c, 0, 75, 0
3, 6359, Note_on_c, 0, 78, 0
3, 6360, Note_on_c, 0, 76, 64
3, 6360, Note_on_c, 0, 73, 64
3, 6381, Note_on_c, 0, 72, 0
3, 6383, Note_on_c, 0, 73, 0
3, 6383, Note_on_c, 0, 76, 0
3, 6384, Note_on_c, 0, 75, 64
3, 6384, Note_on_c, 0, 72, 64
3, 6407, Note_on_c, 0, 75, 0
3, 6408, Note_on_c, 0, 76, 64
3, 6408, Note_on_c, 0, 73, 64
3, 6429, Note_on_c, 0, 72, 0
3, 6431, Note_on_c, 0, 73, 0
3, 6431, Note_on_c, 0, 76, 0
3, 6432, Note_on_c, 0, 78, 64
3, 6432, Note_on_c, 0, 75, 64
3, 6432, Note_on_c, 0, 72, 64
3, 6477, Note_on_c, 0, 72, 0
3, 6477, Note_on_c, 0, 75, 0
3, 6477, Note_on_c, 0, 78, 0
3, 6528, Note_on_c, 0, 76, 64
3, 6528, Note_on_c, 0, 73, 64
3, 6528, Note_on_c, 0, 68, 64
3, 6793, Note_on_c, 0, 68, 0
3, 6793, Note_on_c, 0, 73, 0
3, 6793, Note_on_c, 0, 76, 0
3, 6912, Note_on_c, 0, 76, 64
3, 6912, Note_on_c, 0, 73, 64
3, 6912, Note_on_c, 0, 68, 64
3, 6935, Note_on_c, 0, 73, 0
3, 6935, Note_on_c, 0, 76, 0
3, 6936, Note_on_c, 0, 75, 64
3, 6936, Note_on_c, 0, 72, 64
3, 6957, Note_on_c, 0, 68, 0
3, 6959, Note_on_c, 0, 72, 0
3, 6959, Note_on_c, 0, 75, 0
3, 6960, Note_on_c, 0, 73, 64
3, 6960, Note_on_c, 0, 70, 64
3, 6983, Note_on_c, 0, 73, 0
3, 6984, Note_on_c, 0, 75, 64
3, 7005, Note_on_c, 0, 70, 0
3, 7007, Note_on_c, 0, 75, 0
3, 7008, Note_on_c, 0, 72, 64
3, 7008, Note_on_c, 0, 63, 64
3, 7075, Note_on_c, 0, 72, 0
3, 7080, Note_on_c, 0, 73, 64
3, 7097, Note_on_c, 0, 63, 0
3, 7103, Note_on_c, 0, 73, 0
3, 7104, Note_on_c, 0, 64, 64
3, 7104, Note_on_c, 0, 68, 64
3, 7104, Note_on_c, 0, 73, 64
3, 7127, Note_on_c, 0, 68, 0
3, 7127, Note_on_c, 0, 64, 0
3, 7128, Note_on_c, 0, 63, 64
3, 7128, Note_on_c, 0, 66, 64
3, 7149, Note_on_c, 0, 73, 0
3, 7151, Note_on_c, 0, 66, 0
3, 7151, Note_on_c, 0, 63, 0
3, 7152, Note_on_c, 0, 61, 64
3, 7152, Note_on_c, 0, 64, 64
3, 7152, Note_on_c, 0, 68, 64
3, 7175, Note_on_c, 0, 64, 0
3, 7175, Note_on_c, 0, 61, 0
3, 7176, Note_on_c, 0, 63, 64
3, 7176, Note_on_c, 0, 66, 64
3, 7197, Note_on_c, 0, 68, 0
3, 7199, Note_on_c, 0, 66, 0
3, 7199, Note_on_c, 0, 63, 0
3, 7200, Note_on_c, 0, 64, 64
3, 7200, Note_on_c, 0, 68, 64
3, 7200, Note_on_c, 0, 73, 64
3, 7223, Note_on_c, 0, 73, 0
3, 7223, Note_on_c, 0, 68, 0
3, 7223, Note_on_c, 0, 64, 0
3, 7224, Note_on_c, 0, 70, 64
3, 7224, Note_on_c, 0, 66, 64
3, 7224, Note_on_c, 0, 75, 64
3, 7247, Note_on_c, 0, 75, 0
3, 7247, Note_on_c, 0, 66, 0
3, 7247, Note_on_c, 0, 70, 0
3, 7248, Note_on_c, 0, 64, 64
3, 7248, Note_on_c, 0, 68, 64
3, 7248, Note_on_c, 0, 73, 64
3, 7271, Note_on_c, 0, 73, 0
3, 7271, Note_on_c, 0, 68, 0
3, 7271, Note_on_c, 0, 64, 0
3, 7272, Note_on_c, 0, 70, 64
3, 7272, Note_on_c, 0, 66, 64
3, 7272, Note_on_c, 0, 75, 64
3, 7295, Note_on_c, 0, 75, 0
3, 7295, Note_on_c, 0, 66, 0
3, 7295, Note_on_c, 0, 70, 0
3, 7296, Note_on_c, 0, 68, 64
3, 7296, Note_on_c, 0, 76, 64
3, 7319, Note_on_c, 0, 68, 0
3, 7320, Note_on_c, 0, 66, 64
3, 7341, Note_on_c, 0, 76, 0
3, 7343, Note_on_c, 0, 66, 0
3, 7344, Note_on_c, 0, 64, 64
3, 7344, Note_on_c, 0, 71, 64
3, 7367, Note_on_c, 0, 64, 0
3, 7368, Note_on_c, 0, 66, 64
3, 7389, Note_on_c, 0, 71, 0
3, 7391, Note_on_c, 0, 66, 0
3, 7392, Note_on_c, 0, 68, 64
3, 7392, Note_on_c, 0, 71, 64
3, 7392, Note_on_c, 0, 76, 64
3, 7437, Note_on_c, 0, 76, 0
3, 7437, Note_on_c, 0, 71, 0
3, 7437, Note_on_c, 0, 68, 0
3, 7488, Note_on_c, 0, 71, 64
3, 7488, Note_on_c, 0, 74, 64
3, 7488, Note_on_c, 0, 64, 64
3, 7511, Note_on_c, 0, 74, 0
3, 7511, Note_on_c, 0, 71, 0
3, 7512, Note_on_c, 0, 69, 64
3, 7512, Note_on_c, 0, 73, 64
3, 7533, Note_on_c, 0, 64, 0
3, 7535, Note_on_c, 0, 73, 0
3, 7535, Note_on_c, 0, 69, 0
3, 7536, Note_on_c, 0, 68, 64
3, 7536, Note_on_c, 0, 71, 64
3, 7536, Note_on_c, 0, 64, 64
3, 7559, Note_on_c, 0, 71, 0
3, 7559, Note_on_c, 0, 68, 0
3, 7560, Note_on_c, 0, 69, 64
3, 7560, Note_on_c, 0, 73, 64
3, 7581, Note_on_c, 0, 64, 0
3, 7583, Note_on_c, 0, 73, 0
3, 7583, Note_on_c, 0, 69, 0
3, 7584, Note_on_c, 0, 71, 64
3, 7584, Note_on_c, 0, 74, 64
3, 7584, Note_on_c, 0, 64, 64
3, 7629, Note_on_c, 0, 64, 0
3, 7629, Note_on_c, 0, 74, 0
3, 7629, Note_on_c, 0, 71, 0
3, 7680, Note_on_c, 0, 71, 64
3, 7680, Note_on_c, 0, 68, 64
3, 7680, Note_on_c, 0, 64, 64
3, 7703, Note_on_c, 0, 68, 0
3, 7703, Note_on_c, 0, 71, 0
3, 7704, Note_on_c, 0, 69, 64
3, 7704, Note_on_c, 0, 66, 64
3, 7725, Note_on_c, 0, 64, 0
3, 7727, Note_on_c, 0, 66, 0
3, 7727, Note_on_c, 0, 69, 0
3, 7728, Note_on_c, 0, 68, 64
3, 7728, Note_on_c, 0, 64, 64
3, 7728, Note_on_c, 0, 59, 64
3, 7751, Note_on_c, 0, 64, 0
3, 7751, Note_on_c, 0, 68, 0
3, 7752, Note_on_c, 0, 69, 64
3, 7752, Note_on_c, 0, 66, 64
3, 7773, Note_on_c, 0, 59, 0
3, 7775, Note_on_c, 0, 66, 0
3, 7775, Note_on_c, 0, 69, 0
3, 7776, Note_on_c, 0, 71, 64
3, 7776, Note_on_c, 0, 64, 64
3, 7776, Note_on_c, 0, 68, 64
3, 7821, Note_on_c, 0, 68, 0
3, 7821, Note_on_c, 0, 64, 0
3, 7821, Note_on_c, 0, 71, 0
3, 7872, Note_on_c, 0, 68, 64
3, 7872, Note_on_c, 0, 64, 64
3, 7895, Note_on_c, 0, 68, 0
3, 7896, Note_on_c, 0, 66, 64
3, 7917, Note_on_c, 0, 64, 0
3, 7919, Note_on_c, 0, 66, 0
3, 7920, Note_on_c, 0, 64, 64
3, 7920, Note_on_c, 0, 59, 64
3, 7943, Note_on_c, 0, 64, 0
3, 7944, Note_on_c, 0, 66, 64
3, 7965, Note_on_c, 0, 59, 0
3, 7967, Note_on_c, 0, 66, 0
3, 7968, Note_on_c, 0, 68, 64
3, 7968, Note_on_c, 0, 64, 64
3, 8013, Note_on_c, 0, 64, 0
3, 8013, Note_on_c, 0, 68, 0
3, 8064, Note_on_c, 0, 61, 64
3, 8064, Note_on_c, 0, 64, 64
3, 8064, Note_on_c, 0, 69, 64
3, 8087, Note_on_c, 0, 64, 0
3, 8087, Note_on_c, 0, 61, 0
3, 8088, Note_on_c, 0, 59, 64
3, 8088, Note_on_c, 0, 62, 64
3, 8109, Note_on_c, 0, 69, 0
3, 8111, Note_on_c, 0, 62, 0
3, 8111, Note_on_c, 0, 59, 0
3, 8112, Note_on_c, 0, 57, 64
3, 8112, Note_on_c, 0, 61, 64
3, 8112, Note_on_c, 0, 64, 64
3, 8135, Note_on_c, 0, 61, 0
3, 8135, Note_on_c, 0, 57, 0
3, 8136, Note_on_c, 0, 59, 64
3, 8136, Note_on_c, 0, 62, 64
3, 8157, Note_on_c, 0, 64, 0
3, 8159, Note_on_c, 0, 62, 0
3, 8159, Note_on_c, 0, 59, 0
3, 8160, Note_on_c, 0, 61, 64
3, 8160, Note_on_c, 0, 64, 64
3, 8160, Note_on_c, 0, 69, 64
3, 8183, Note_on_c, 0, 69, 0
3, 8184, Note_on_c, 0, 71, 64
3, 8205, Note_on_c, 0, 64, 0
3, 8205, Note_on_c, 0, 61, 0
3, 8207, Note_on_c, 0, 71, 0
3, 8208, Note_on_c, 0, 61, 64
3, 8208, Note_on_c, 0, 69, 64
3, 8231, Note_on_c, 0, 69, 0
3, 8232, Note_on_c, 0, 71, 64
3, 8253, Note_on_c, 0, 61, 0
3, 8255, Note_on_c, 0, 71, 0
3, 8256, Note_on_c, 0, 73, 64
3, 8256, Note_on_c, 0, 69, 64
3, 8256, Note_on_c, 0, 66, 64
3, 8279, Note_on_c, 0, 69, 0
3, 8279, Note_on_c, 0, 73, 0
3, 8280, Note_on_c, 0, 71, 64
3, 8280, Note_on_c, 0, 68, 64
3, 8301, Note_on_c, 0, 66, 0
3, 8303, Note_on_c, 0, 68, 0
3, 8303, Note_on_c, 0, 71, 0
3, 8304, Note_on_c, 0, 69, 64
3, 8304, Note_on_c, 0, 66, 64
3, 8304, Note_on_c, 0, 61, 64
3, 8327, Note_on_c, 0, 66, 0
3, 8327, Note_on_c, 0, 69, 0
3, 8328, Note_on_c, 0, 71, 64
3, 8328, Note_on_c, 0, 68, 64
3, 8349, Note_on_c, 0, 61, 0
3, 8351, Note_on_c, 0, 68, 0
3, 8351, Note_on_c, 0, 71, 0
3, 8352, Note_on_c, 0, 73, 64
3, 8352, Note_on_c, 0, 69, 64
3, 8352, Note_on_c, 0, 66, 64
3, 8397, Note_on_c, 0, 66, 0
3, 8397, Note_on_c, 0, 69, 0
3, 8397, Note_on_c, 0, 73, 0
3, 8448, Note_on_c, 0, 71, 64
3, 8448, Note_on_c, 0, 68, 64
3, 8448, Note_on_c, 0, 66, 64
3, 8471, Note_on_c, 0, 68, 0
3, 8471, Note_on_c, 0, 71, 0
3, 8472, Note_on_c, 0, 69, 64
3, 8472, Note_on_c, 0, 66, 64
3, 8493, Note_on_c, 0, 66, 0
3, 8495, Note_on_c, 0, 69, 0
3, 8495, Note_on_c, 0, 66, 0
3, 8496, Note_on_c, 0, 68, 64
3, 8496, Note_on_c, 0, 64, 64
3, 8496, Note_on_c, 0, 59, 64
3, 8519, Note_on_c, 0, 64, 0
3, 8519, Note_on_c, 0, 68, 0
3, 8520, Note_on_c, 0, 69, 64
3, 8520, Note_on_c, 0, 66, 64
3, 8541, Note_on_c, 0, 59, 0
3, 8543, Note_on_c, 0, 66, 0
3, 8543, Note_on_c, 0, 69, 0
3, 8544, Note_on_c, 0, 71, 64
3, 8544, Note_on_c, 0, 66, 64
3, 8544, Note_on_c, 0, 68, 64
3, 8589, Note_on_c, 0, 68, 0
3, 8589, Note_on_c, 0, 66, 0
3, 8589, Note_on_c, 0, 71, 0
3, 8640, Note_on_c, 0, 71, 64
3, 8640, Note_on_c, 0, 68, 64
3, 8640, Note_on_c, 0, 64, 64
3, 8663, Note_on_c, 0, 68, 0
3, 8663, Note_on_c, 0, 71, 0
3, 8664, Note_on_c, 0, 69, 64
3, 8664, Note_on_c, 0, 66, 64
3, 8685, Note_on_c, 0, 64, 0
3, 8687, Note_on_c, 0, 66, 0
3, 8687, Note_on_c, 0, 69, 0
3, 8688, Note_on_c, 0, 68, 64
3, 8688, Note_on_c, 0, 64, 64
3, 8688, Note_on_c, 0, 59, 64
3, 8711, Note_on_c, 0, 64, 0
3, 8711, Note_on_c, 0, 68, 0
3, 8712, Note_on_c, 0, 69, 64
3, 8712, Note_on_c, 0, 66, 64
3, 8733, Note_on_c, 0, 59, 0
3, 8735, Note_on_c, 0, 66, 0
3, 8735, Note_on_c, 0, 69, 0
3, 8736, Note_on_c, 0, 71, 64
3, 8736, Note_on_c, 0, 68, 64
3, 8736, Note_on_c, 0, 64, 64
3, 8781, Note_on_c, 0, 64, 0
3, 8781, Note_on_c, 0, 68, 0
3, 8781, Note_on_c, 0, 71, 0
3, 8832, Note_on_c, 0, 69, 64
3, 8832, Note_on_c, 0, 66, 64
3, 8855, Note_on_c, 0, 69, 0
3, 8856, Note_on_c, 0, 68, 64
3, 8877, Note_on_c, 0, 66, 0
3, 8879, Note_on_c, 0, 68, 0
3, 8880, Note_on_c, 0, 66, 64
3, 8880, Note_on_c, 0, 61, 64
3, 8903, Note_on_c, 0, 66, 0
3, 8904, Note_on_c, 0, 68, 64
3, 8925, Note_on_c, 0, 61, 0
3, 8927, Note_on_c, 0, 68, 0
3, 8928, Note_on_c, 0, 69, 64
3, 8928, Note_on_c, 0, 66, 64
3, 8951, Note_on_c, 0, 69, 0
3, 8952, Note_on_c, 0, 68, 64
3, 8973, Note_on_c, 0, 66, 0
3, 8975, Note_on_c, 0, 68, 0
3, 8976, Note_on_c, 0, 66, 64
3, 8976, Note_on_c, 0, 61, 64
3, 8999, Note_on_c, 0, 66, 0
3, 9000, Note_on_c, 0, 64, 64
3, 9021, Note_on_c, 0, 61, 0
3, 9023, Note_on_c, 0, 64, 0
3, 9024, Note_on_c, 0, 63, 64
3, 9024, Note_on_c, 0, 59, 64
3, 9047, Note_on_c, 0, 63, 0
3, 9048, Note_on_c, 0, 61, 64
3, 9069, Note_on_c, 0, 59, 0
3, 9071, Note_on_c, 0, 61, 0
3, 9072, Note_on_c, 0, 59, 64
3, 9072, Note_on_c, 0, 59, 64
3, 9095, Note_on_c, 0, 59, 0
3, 9096, Note_on_c, 0, 61, 64
3, 9117, Note_on_c, 0, 59, 0
3, 9119, Note_on_c, 0, 61, 0
3, 9120, Note_on_c, 0, 63, 64
3, 9120, Note_on_c, 0, 59, 64
3, 9165, Note_on_c, 0, 59, 0
3, 9165, Note_on_c, 0, 63, 0
3, 9216, Note_on_c, 0, 64, 64
3, 9261, Note_on_c, 0, 64, 0
3, 9264, Note_on_c, 0, 64, 64
3, 9287, Note_on_c, 0, 64, 0
3, 9288, Note_on_c, 0, 63, 64
3, 9311, Note_on_c, 0, 63, 0
3, 9312, Note_on_c, 0, 64, 64
3, 9357, Note_on_c, 0, 64, 0
3, 9408, Note_on_c, 0, 64, 64
3, 9431, Note_on_c, 0, 64, 0
3, 9432, Note_on_c, 0, 63, 64
3, 9455, Note_on_c, 0, 63, 0
3, 9456, Note_on_c, 0, 61, 64
3, 9479, Note_on_c, 0, 61, 0
3, 9480, Note_on_c, 0, 63, 64
3, 9503, Note_on_c, 0, 63, 0
3, 9504, Note_on_c, 0, 64, 64
3, 9549, Note_on_c, 0, 64, 0
3, 9600, Note_on_c, 0, 59, 64
3, 9600, Note_on_c, 0, 62, 64
3, 9623, Note_on_c, 0, 62, 0
3, 9623, Note_on_c, 0, 59, 0
3, 9624, Note_on_c, 0, 57, 64
3, 9624, Note_on_c, 0, 61, 64
3, 9647, Note_on_c, 0, 61, 0
3, 9647, Note_on_c, 0, 57, 0
3, 9648, Note_on_c, 0, 56, 64
3, 9648, Note_on_c, 0, 59, 64
3, 9671, Note_on_c, 0, 59, 0
3, 9671, Note_on_c, 0, 56, 0
3, 9672, Note_on_c, 0, 57, 64
3, 9672, Note_on_c, 0, 61, 64
3, 9695, Note_on_c, 0, 61, 0
3, 9695, Note_on_c, 0, 57, 0
3, 9696, Note_on_c, 0, 59, 64
3, 9696, Note_on_c, 0, 62, 64
3, 9741, Note_on_c, 0, 62, 0
3, 9744, Note_on_c, 0, 59, 0
3, 9792, Note_on_c, 0, 62, 64
3, 9792, Note_on_c, 0, 59, 64
3, 9792, Note_on_c, 0, 68, 64
3, 9815, Note_on_c, 0, 68, 0
3, 9816, Note_on_c, 0, 59, 0
3, 9816, Note_on_c, 0, 62, 0
3, 9816, Note_on_c, 0, 57, 64
3, 9816, Note_on_c, 0, 61, 64
3, 9816, Note_on_c, 0, 66, 64
3, 9839, Note_on_c, 0, 66, 0
3, 9840, Note_on_c, 0, 61, 0
3, 9840, Note_on_c, 0, 57, 0
3, 9840, Note_on_c, 0, 56, 64
3, 9840, Note_on_c, 0, 59, 64
3, 9840, Note_on_c, 0, 64, 64
3, 9863, Note_on_c, 0, 64, 0
3, 9864, Note_on_c, 0, 59, 0
3, 9864, Note_on_c, 0, 56, 0
3, 9864, Note_on_c, 0, 61, 64
3, 9864, Note_on_c, 0, 57, 64
3, 9864, Note_on_c, 0, 66, 64
3, 9887, Note_on_c, 0, 66, 0
3, 9888, Note_on_c, 0, 57, 0
3, 9888, Note_on_c, 0, 61, 0
3, 9888, Note_on_c, 0, 59, 64
3, 9888, Note_on_c, 0, 62, 64
3, 9888, Note_on_c, 0, 68, 64
3, 9933, Note_on_c, 0, 68, 0
3, 9936, Note_on_c, 0, 62, 0
3, 9936, Note_on_c, 0, 59, 0
3, 9984, Note_on_c, 0, 69, 64
3, 9984, Note_on_c, 0, 61, 64
3, 9984, Note_on_c, 0, 64, 64
3, 10007, Note_on_c, 0, 64, 0
3, 10008, Note_on_c, 0, 61, 0
3, 10008, Note_on_c, 0, 59, 64
3, 10008, Note_on_c, 0, 62, 64
3, 10031, Note_on_c, 0, 62, 0
3, 10032, Note_on_c, 0, 59, 0
3, 10032, Note_on_c, 0, 69, 0
3, 10032, Note_on_c, 0, 64, 64
3, 10032, Note_on_c, 0, 57, 64
3, 10032, Note_on_c, 0, 61, 64
3, 10055, Note_on_c, 0, 61, 0
3, 10056, Note_on_c, 0, 57, 0
3, 10056, Note_on_c, 0, 59, 64
3, 10056, Note_on_c, 0, 62, 64
3, 10079, Note_on_c, 0, 62, 0
3, 10080, Note_on_c, 0, 59, 0
3, 10080, Note_on_c, 0, 64, 0
3, 10080, Note_on_c, 0, 64, 64
3, 10080, Note_on_c, 0, 61, 64
3, 10080, Note_on_c, 0, 69, 64
3, 10103, Note_on_c, 0, 69, 0
3, 10104, Note_on_c, 0, 71, 64
3, 10127, Note_on_c, 0, 71, 0
3, 10128, Note_on_c, 0, 61, 0
3, 10128, Note_on_c, 0, 64, 0
3, 10128, Note_on_c, 0, 66, 64
3, 10128, Note_on_c, 0, 61, 64
3, 10128, Note_on_c, 0, 69, 64
3, 10151, Note_on_c, 0, 69, 0
3, 10152, Note_on_c, 0, 71, 64
3, 10175, Note_on_c, 0, 71, 0
3, 10176, Note_on_c, 0, 61, 0
3, 10176, Note_on_c, 0, 66, 0
3, 10176, Note_on_c, 0, 69, 64
3, 10176, Note_on_c, 0, 73, 64
3, 10199, Note_on_c, 0, 73, 0
3, 10200, Note_on_c, 0, 69, 0
3, 10200, Note_on_c, 0, 68, 64
3, 10200, Note_on_c, 0, 71, 64
3, 10223, Note_on_c, 0, 71, 0
3, 10224, Note_on_c, 0, 68, 0
3, 10224, Note_on_c, 0, 66, 64
3, 10224, Note_on_c, 0, 69, 64
3, 10247, Note_on_c, 0, 69, 0
3, 10248, Note_on_c, 0, 66, 0
3, 10248, Note_on_c, 0, 68, 64
3, 10248, Note_on_c, 0, 71, 64
3, 10271, Note_on_c, 0, 71, 0
3, 10272, Note_on_c, 0, 68, 0
3, 10272, Note_on_c, 0, 66, 64
3, 10272, Note_on_c, 0, 69, 64
3, 10272, Note_on_c, 0, 73, 64
3, 10317, Note_on_c, 0, 73, 0
3, 10320, Note_on_c, 0, 69, 0
3, 10320, Note_on_c, 0, 66, 0
3, 10368, Note_on_c, 0, 71, 64
3, 10368, Note_on_c, 0, 63, 64
3, 10368, Note_on_c, 0, 66, 64
3, 10391, Note_on_c, 0, 66, 0
3, 10392, Note_on_c, 0, 63, 0
3, 10392, Note_on_c, 0, 61, 64
3, 10392, Note_on_c, 0, 64, 64
3, 10415, Note_on_c, 0, 64, 0
3, 10416, Note_on_c, 0, 61, 0
3, 10416, Note_on_c, 0, 71, 0
3, 10416, Note_on_c, 0, 66, 64
3, 10416, Note_on_c, 0, 59, 64
3, 10416, Note_on_c, 0, 63, 64
3, 10439, Note_on_c, 0, 63, 0
3, 10440, Note_on_c, 0, 59, 0
3, 10440, Note_on_c, 0, 61, 64
3, 10440, Note_on_c, 0, 64, 64
3, 10463, Note_on_c, 0, 64, 0
3, 10464, Note_on_c, 0, 61, 0
3, 10464, Note_on_c, 0, 66, 0
3, 10464, Note_on_c, 0, 66, 64
3, 10464, Note_on_c, 0, 63, 64
3, 10464, Note_on_c, 0, 71, 64
3, 10487, Note_on_c, 0, 71, 0
3, 10488, Note_on_c, 0, 63, 0
3, 10488, Note_on_c, 0, 64, 64
3, 10488, Note_on_c, 0, 73, 64
3, 10511, Note_on_c, 0, 73, 0
3, 10512, Note_on_c, 0, 64, 0
3, 10512, Note_on_c, 0, 66, 0
3, 10512, Note_on_c, 0, 66, 64
3, 10512, Note_on_c, 0, 63, 64
3, 10512, Note_on_c, 0, 71, 64
3, 10535, Note_on_c, 0, 71, 0
3, 10536, Note_on_c, 0, 63, 0
3, 10536, Note_on_c, 0, 64, 64
3, 10536, Note_on_c, 0, 73, 64
3, 10559, Note_on_c, 0, 73, 0
3, 10560, Note_on_c, 0, 64, 0
3, 10560, Note_on_c, 0, 66, 0
3, 10560, Note_on_c, 0, 66, 64
3, 10560, Note_on_c, 0, 75, 64
3, 10583, Note_on_c, 0, 75, 0
3, 10584, Note_on_c, 0, 66, 0
3, 10584, Note_on_c, 0, 64, 64
3, 10584, Note_on_c, 0, 73, 64
3, 10607, Note_on_c, 0, 73, 0
3, 10608, Note_on_c, 0, 64, 0
3, 10608, Note_on_c, 0, 63, 64
3, 10608, Note_on_c, 0, 71, 64
3, 10631, Note_on_c, 0, 71, 0
3, 10632, Note_on_c, 0, 63, 0
3, 10632, Note_on_c, 0, 64, 64
3, 10632, Note_on_c, 0, 73, 64
3, 10655, Note_on_c, 0, 73, 0
3, 10656, Note_on_c, 0, 64, 0
3, 10656, Note_on_c, 0, 71, 64
3, 10656, Note_on_c, 0, 66, 64
3, 10656, Note_on_c, 0, 75, 64
3, 10701, Note_on_c, 0, 75, 0
3, 10704, Note_on_c, 0, 66, 0
3, 10704, Note_on_c, 0, 71, 0
3, 10752, Note_on_c, 0, 76, 64
3, 10752, Note_on_c, 0, 68, 64
3, 10752, Note_on_c, 0, 71, 64
3, 10775, Note_on_c, 0, 71, 0
3, 10776, Note_on_c, 0, 68, 0
3, 10776, Note_on_c, 0, 66, 64
3, 10776, Note_on_c, 0, 69, 64
3, 10799, Note_on_c, 0, 69, 0
3, 10800, Note_on_c, 0, 66, 0
3, 10800, Note_on_c, 0, 76, 0
3, 10800, Note_on_c, 0, 71, 64
3, 10800, Note_on_c, 0, 64, 64
3, 10800, Note_on_c, 0, 68, 64
3, 10823, Note_on_c, 0, 68, 0
3, 10824, Note_on_c, 0, 64, 0
3, 10824, Note_on_c, 0, 66, 64
3, 10824, Note_on_c, 0, 69, 64
3, 10847, Note_on_c, 0, 69, 0
3, 10848, Note_on_c, 0, 66, 0
3, 10848, Note_on_c, 0, 71, 0
3, 10848, Note_on_c, 0, 76, 64
3, 10848, Note_on_c, 0, 68, 64
3, 10848, Note_on_c, 0, 71, 64
3, 10871, Note_on_c, 0, 71, 0
3, 10872, Note_on_c, 0, 68, 0
3, 10872, Note_on_c, 0, 66, 64
3, 10872, Note_on_c, 0, 69, 64
3, 10895, Note_on_c, 0, 69, 0
3, 10896, Note_on_c, 0, 66, 0
3, 10896, Note_on_c, 0, 76, 0
3, 10896, Note_on_c, 0, 71, 64
3, 10896, Note_on_c, 0, 64, 64
3, 10920, Note_on_c, 0, 71, 0
3, 10920, Note_on_c, 0, 69, 64
3, 10941, Note_on_c, 0, 64, 0
3, 10944, Note_on_c, 0, 69, 0
3, 10944, Note_on_c, 0, 68, 64
3, 10944, Note_on_c, 0, 64, 64
3, 10967, Note_on_c, 0, 64, 0
3, 10968, Note_on_c, 0, 68, 0
3, 10968, Note_on_c, 0, 66, 64
3, 10968, Note_on_c, 0, 63, 64
3, 10991, Note_on_c, 0, 63, 0
3, 10992, Note_on_c, 0, 66, 0
3, 10992, Note_on_c, 0, 64, 64
3, 10992, Note_on_c, 0, 61, 64
3, 11015, Note_on_c, 0, 61, 0
3, 11016, Note_on_c, 0, 64, 0
3, 11016, Note_on_c, 0, 66, 64
3, 11016, Note_on_c, 0, 63, 64
3, 11039, Note_on_c, 0, 63, 0
3, 11040, Note_on_c, 0, 66, 0
3, 11040, Note_on_c, 0, 68, 64
3, 11040, Note_on_c, 0, 64, 64
3, 11085, Note_on_c, 0, 64, 0
3, 11088, Note_on_c, 0, 68, 0
3, 11136, Note_on_c, 0, 66, 64
3, 11181, Note_on_c, 0, 66, 0
3, 11184, Note_on_c, 0, 61, 64
3, 11229, Note_on_c, 0, 61, 0
3, 11232, Note_on_c, 0, 61, 64
3, 11232, Note_on_c, 0, 66, 64
3, 11255, Note_on_c, 0, 66, 0
3, 11256, Note_on_c, 0, 68, 64
3, 11279, Note_on_c, 0, 68, 0
3, 11280, Note_on_c, 0, 61, 0
3, 11280, Note_on_c, 0, 66, 64
3, 11280, Note_on_c, 0, 63, 64
3, 11303, Note_on_c, 0, 63, 0
3, 11303, Note_on_c, 0, 66, 0
3, 11304, Note_on_c, 0, 64, 64
3, 11304, Note_on_c, 0, 68, 64
3, 11327, Note_on_c, 0, 68, 0
3, 11327, Note_on_c, 0, 64, 0
3, 11328, Note_on_c, 0, 63, 64
3, 11328, Note_on_c, 0, 69, 64
3, 11351, Note_on_c, 0, 69, 0
3, 11351, Note_on_c, 0, 63, 0
3, 11352, Note_on_c, 0, 64, 64
3, 11352, Note_on_c, 0, 68, 64
3, 11375, Note_on_c, 0, 68, 0
3, 11375, Note_on_c, 0, 64, 0
3, 11376, Note_on_c, 0, 63, 64
3, 11376, Note_on_c, 0, 66, 64
3, 11399, Note_on_c, 0, 66, 0
3, 11399, Note_on_c, 0, 63, 0
3, 11400, Note_on_c, 0, 64, 64
3, 11400, Note_on_c, 0, 68, 64
3, 11423, Note_on_c, 0, 68, 0
3, 11423, Note_on_c, 0, 64, 0
3, 11424, Note_on_c, 0, 66, 64
3, 11424, Note_on_c, 0, 69, 64
3, 11469, Note_on_c, 0, 69, 0
3, 11472, Note_on_c, 0, 66, 0
3, 11520, Note_on_c, 0, 59, 64
3, 11520, Note_on_c, 0, 64, 64
3, 11520, Note_on_c, 0, 68, 64
3, 11543, Note_on_c, 0, 68, 0
3, 11543, Note_on_c, 0, 64, 0
3, 11544, Note_on_c, 0, 66, 64
3, 11567, Note_on_c, 0, 66, 0
3, 11568, Note_on_c, 0, 59, 0
3, 11568, Note_on_c, 0, 64, 64
3, 11591, Note_on_c, 0, 64, 0
3, 11592, Note_on_c, 0, 66, 64
3, 11615, Note_on_c, 0, 66, 0
3, 11616, Note_on_c, 0, 68, 64
3, 11639, Note_on_c, 0, 68, 0
3, 11640, Note_on_c, 0, 69, 64
3, 11663, Note_on_c, 0, 69, 0
3, 11664, Note_on_c, 0, 68, 64
3, 11687, Note_on_c, 0, 68, 0
3, 11688, Note_on_c, 0, 69, 64
3, 11711, Note_on_c, 0, 69, 0
3, 11712, Note_on_c, 0, 59, 64
3, 11712, Note_on_c, 0, 64, 64
3, 11712, Note_on_c, 0, 71, 64
3, 11735, Note_on_c, 0, 71, 0
3, 11736, Note_on_c, 0, 69, 64
3, 11759, Note_on_c, 0, 69, 0
3, 11760, Note_on_c, 0, 64, 0
3, 11760, Note_on_c, 0, 59, 0
3, 11760, Note_on_c, 0, 68, 64
3, 11783, Note_on_c, 0, 68, 0
3, 11784, Note_on_c, 0, 69, 64
3, 11807, Note_on_c, 0, 69, 0
3, 11808, Note_on_c, 0, 71, 64
3, 11831, Note_on_c, 0, 71, 0
3, 11832, Note_on_c, 0, 73, 64
3, 11855, Note_on_c, 0, 73, 0
3, 11856, Note_on_c, 0, 69, 64
3, 11879, Note_on_c, 0, 69, 0
3, 11880, Note_on_c, 0, 71, 64
3, 11903, Note_on_c, 0, 71, 0
3, 11904, Note_on_c, 0, 64, 64
3, 11904, Note_on_c, 0, 69, 64
3, 11904, Note_on_c, 0, 73, 64
3, 11927, Note_on_c, 0, 73, 0
3, 11928, Note_on_c, 0, 71, 64
3, 11951, Note_on_c, 0, 71, 0
3, 11952, Note_on_c, 0, 69, 0
3, 11952, Note_on_c, 0, 64, 0
3, 11952, Note_on_c, 0, 69, 64
3, 11975, Note_on_c, 0, 69, 0
3, 11976, Note_on_c, 0, 71, 64
3, 11999, Note_on_c, 0, 71, 0
3, 12000, Note_on_c, 0, 73, 64
3, 12023, Note_on_c, 0, 73, 0
3, 12024, Note_on_c, 0, 75, 64
3, 12047, Note_on_c, 0, 75, 0
3, 12048, Note_on_c, 0, 66, 64
3, 12048, Note_on_c, 0, 73, 64
3, 12048, Note_on_c, 0, 76, 64
3, 12071, Note_on_c, 0, 76, 0
3, 12072, Note_on_c, 0, 75, 64
3, 12095, Note_on_c, 0, 75, 0
3, 12096, Note_on_c, 0, 73, 0
3, 12096, Note_on_c, 0, 66, 0
3, 12096, Note_on_c, 0, 68, 64
3, 12096, Note_on_c, 0, 71, 64
3, 12096, Note_on_c, 0, 76, 64
3, 12141, Note_on_c, 0, 76, 0
3, 12144, Note_on_c, 0, 71, 0
3, 12144, Note_on_c, 0, 68, 0
3, 12144, Note_on_c, 0, 76, 64
3, 12144, Note_on_c, 0, 80, 64
3, 12144, Note_on_c, 0, 83, 64
3, 12189, Note_on_c, 0, 83, 0
3, 12192, Note_on_c, 0, 80, 0
3, 12192, Note_on_c, 0, 76, 0
3, 12192, Note_on_c, 0, 71, 64
3, 12192, Note_on_c, 0, 76, 64
3, 12192, Note_on_c, 0, 80, 64
3, 12237, Note_on_c, 0, 80, 0
3, 12240, Note_on_c, 0, 76, 0
3, 12240, Note_on_c, 0, 71, 0
3, 12240, Note_on_c, 0, 69, 64
3, 12240, Note_on_c, 0, 75, 64
3, 12240, Note_on_c, 0, 78, 64
3, 12285, Note_on_c, 0, 78, 0
3, 12288, Note_on_c, 0, 75, 0
3, 12288, Note_on_c, 0, 69, 0
3, 12288, Note_on_c, 0, 68, 64
3, 12288, Note_on_c, 0, 71, 64
3, 12288, Note_on_c, 0, 76, 64
3, 12333, Note_on_c, 0, 76, 0
3, 12336, Note_on_c, 0, 71, 0
3, 12336, Note_on_c, 0, 68, 0
3, 12336, Note_on_c, 0, 69, 64
3, 12336, Note_on_c, 0, 66, 64
3, 12336, Note_on_c, 0, 75, 64
3, 12381, Note_on_c, 0, 75, 0
3, 12384, Note_on_c, 0, 66, 0
3, 12384, Note_on_c, 0, 69, 0
3, 12384, Note_on_c, 0, 68, 64
3, 12384, Note_on_c, 0, 71, 64
3, 12384, Note_on_c, 0, 76, 64
3, 12429, Note_on_c, 0, 76, 0
3, 12432, Note_on_c, 0, 71, 0
3, 12432, Note_on_c, 0, 68, 0
3, 12432, Note_on_c, 0, 70, 64
3, 12432, Note_on_c, 0, 73, 64
3, 12432, Note_on_c, 0, 67, 64
3, 12432, Note_on_c, 0, 76, 64
3, 12477, Note_on_c, 0, 76, 0
3, 12480, Note_on_c, 0, 70, 0
3, 12480, Note_on_c, 0, 73, 0
3, 12480, Note_on_c, 0, 67, 0
3, 12480, Note_on_c, 0, 68, 64
3, 12480, Note_on_c, 0, 71, 64
3, 12480, Note_on_c, 0, 76, 64
3, 12503, Note_on_c, 0, 76, 0
3, 12504, Note_on_c, 0, 75, 64
3, 12516, Note_on_c, 0, 75, 0
3, 12516, Note_on_c, 0, 73, 64
3, 12528, Note_on_c, 0, 73, 0
3, 12528, Note_on_c, 0, 71, 0
3, 12528, Note_on_c, 0, 68, 0
3, 12528, Note_on_c, 0, 71, 64
3, 12540, Note_on_c, 0, 71, 0
3, 12540, Note_on_c, 0, 73, 64
3, 12552, Note_on_c, 0, 73, 0
3, 12552, Note_on_c, 0, 69, 64
3, 12575, Note_on_c, 0, 69, 0
3, 12576, Note_on_c, 0, 68, 64
3, 12610, Note_on_c, 0, 68, 0
3, 12612, Note_on_c, 0, 66, 64
3, 12618, Note_on_c, 0, 66, 0
3, 12618, Note_on_c, 0, 64, 64
3, 12624, Note_on_c, 0, 64, 0
3, 12624, Note_on_c, 0, 66, 64
3, 12630, Note_on_c, 0, 66, 0
3, 12630, Note_on_c, 0, 66, 64
3, 12636, Note_on_c, 0, 66, 0
3, 12636, Note_on_c, 0, 68, 64
3, 12642, Note_on_c, 0, 68, 0
3, 12642, Note_on_c, 0, 66, 64
3, 12648, Note_on_c, 0, 66, 0
3, 12648, Note_on_c, 0, 68, 64
3, 12654, Note_on_c, 0, 68, 0
3, 12654, Note_on_c, 0, 66, 64
3, 12660, Note_on_c, 0, 66, 0
3, 12660, Note_on_c, 0, 64, 64
3, 12672, Note_on_c, 0, 64, 0
3, 12672, Note_on_c, 0, 64, 64
3, 13026, Note_on_c, 0, 64, 0
3, 13026, End_track
4, 0, Start_track
4, 0, MIDI_port, 0
4, 0, Title_t, "Clavier (LH)"
4, 0, Program_c, 0, 6
4, 0, Control_c, 0, 7, 127
4, 0, Note_on_c, 0, 40, 64
4, 0, Note_on_c, 0, 52, 64
4, 89, Note_on_c, 0, 52, 0
4, 96, Note_on_c, 0, 40, 0
4, 192, Note_on_c, 0, 40, 64
4, 192, Note_on_c, 0, 52, 64
4, 281, Note_on_c, 0, 52, 0
4, 288, Note_on_c, 0, 40, 0
4, 384, Note_on_c, 0, 40, 100
4, 384, Note_on_c, 0, 52, 64
4, 473, Note_on_c, 0, 52, 0
4, 480, Note_on_c, 0, 40, 0
4, 576, Note_on_c, 0, 40, 100
4, 576, Note_on_c, 0, 52, 64
4, 665, Note_on_c, 0, 52, 0
4, 672, Note_on_c, 0, 40, 0
4, 768, Note_on_c, 0, 40, 100
4, 768, Note_on_c, 0, 52, 64
4, 857, Note_on_c, 0, 52, 0
4, 864, Note_on_c, 0, 40, 0
4, 960, Note_on_c, 0, 40, 100
4, 960, Note_on_c, 0, 52, 64
4, 1049, Note_on_c, 0, 52, 0
4, 1056, Note_on_c, 0, 40, 0
4, 1152, Note_on_c, 0, 40, 100
4, 1152, Note_on_c, 0, 52, 64
4, 1241, Note_on_c, 0, 52, 0
4, 1248, Note_on_c, 0, 40, 0
4, 1344, Note_on_c, 0, 40, 100
4, 1344, Note_on_c, 0, 52, 64
4, 1433, Note_on_c, 0, 52, 0
4, 1440, Note_on_c, 0, 40, 0
4, 1536, Note_on_c, 0, 40, 100
4, 1536, Note_on_c, 0, 52, 64
4, 1625, Note_on_c, 0, 52, 0
4, 1632, Note_on_c, 0, 40, 0
4, 1728, Note_on_c, 0, 40, 100
4, 1728, Note_on_c, 0, 52, 64
4, 1817, Note_on_c, 0, 52, 0
4, 1824, Note_on_c, 0, 40, 0
4, 1920, Note_on_c, 0, 40, 100
4, 1920, Note_on_c, 0, 52, 64
4, 2009, Note_on_c, 0, 52, 0
4, 2016, Note_on_c, 0, 40, 0
4, 2112, Note_on_c, 0, 40, 100
4, 2112, Note_on_c, 0, 52, 64
4, 2201, Note_on_c, 0, 52, 0
4, 2208, Note_on_c, 0, 40, 0
4, 2304, Note_on_c, 0, 40, 100
4, 2304, Note_on_c, 0, 52, 64
4, 2393, Note_on_c, 0, 52, 0
4, 2400, Note_on_c, 0, 40, 0
4, 2496, Note_on_c, 0, 40, 100
4, 2496, Note_on_c, 0, 52, 64
4, 2585, Note_on_c, 0, 52, 0
4, 2592, Note_on_c, 0, 40, 0
4, 2688, Note_on_c, 0, 39, 100
4, 2688, Note_on_c, 0, 51, 64
4, 2777, Note_on_c, 0, 51, 0
4, 2784, Note_on_c, 0, 39, 0
4, 2880, Note_on_c, 0, 44, 100
4, 2880, Note_on_c, 0, 56, 64
4, 2969, Note_on_c, 0, 56, 0
4, 2976, Note_on_c, 0, 44, 0
4, 3072, Note_on_c, 0, 37, 100
4, 3072, Note_on_c, 0, 49, 64
4, 3161, Note_on_c, 0, 49, 0
4, 3168, Note_on_c, 0, 37, 0
4, 3264, Note_on_c, 0, 42, 100
4, 3264, Note_on_c, 0, 54, 64
4, 3353, Note_on_c, 0, 54, 0
4, 3360, Note_on_c, 0, 42, 0
4, 3456, Note_on_c, 0, 47, 100
4, 3456, Note_on_c, 0, 59, 64
4, 3545, Note_on_c, 0, 59, 0
4, 3552, Note_on_c, 0, 47, 0
4, 3648, Note_on_c, 0, 47, 100
4, 3648, Note_on_c, 0, 59, 64
4, 3737, Note_on_c, 0, 59, 0
4, 3744, Note_on_c, 0, 47, 0
4, 3840, Note_on_c, 0, 44, 100
4, 3840, Note_on_c, 0, 56, 64
4, 3929, Note_on_c, 0, 56, 0
4, 3936, Note_on_c, 0, 44, 0
4, 4032, Note_on_c, 0, 47, 100
4, 4032, Note_on_c, 0, 59, 64
4, 4121, Note_on_c, 0, 59, 0
4, 4128, Note_on_c, 0, 47, 0
4, 4224, Note_on_c, 0, 45, 100
4, 4224, Note_on_c, 0, 57, 64
4, 4313, Note_on_c, 0, 57, 0
4, 4320, Note_on_c, 0, 45, 0
4, 4416, Note_on_c, 0, 50, 100
4, 4416, Note_on_c, 0, 62, 64
4, 4505, Note_on_c, 0, 62, 0
4, 4512, Note_on_c, 0, 50, 0
4, 4608, Note_on_c, 0, 44, 100
4, 4608, Note_on_c, 0, 56, 64
4, 4697, Note_on_c, 0, 56, 0
4, 4704, Note_on_c, 0, 44, 0
4, 4800, Note_on_c, 0, 49, 100
4, 4800, Note_on_c, 0, 61, 64
4, 4889, Note_on_c, 0, 61, 0
4, 4896, Note_on_c, 0, 49, 0
4, 4992, Note_on_c, 0, 42, 100
4, 4992, Note_on_c, 0, 54, 100
4, 4992, Note_on_c, 0, 61, 64
4, 5015, Note_on_c, 0, 61, 0
4, 5016, Note_on_c, 0, 59, 64
4, 5039, Note_on_c, 0, 59, 0
4, 5040, Note_on_c, 0, 57, 64
4, 5063, Note_on_c, 0, 57, 0
4, 5064, Note_on_c, 0, 59, 64
4, 5087, Note_on_c, 0, 59, 0
4, 5088, Note_on_c, 0, 54, 0
4, 5088, Note_on_c, 0, 42, 0
4, 5088, Note_on_c, 0, 61, 64
4, 5133, Note_on_c, 0, 61, 0
4, 5136, Note_on_c, 0, 61, 64
4, 5181, Note_on_c, 0, 61, 0
4, 5184, Note_on_c, 0, 42, 100
4, 5184, Note_on_c, 0, 54, 64
4, 5273, Note_on_c, 0, 54, 0
4, 5280, Note_on_c, 0, 42, 0
4, 5376, Note_on_c, 0, 42, 100
4, 5376, Note_on_c, 0, 54, 64
4, 5465, Note_on_c, 0, 54, 0
4, 5472, Note_on_c, 0, 42, 0
4, 5568, Note_on_c, 0, 42, 100
4, 5568, Note_on_c, 0, 54, 64
4, 5657, Note_on_c, 0, 54, 0
4, 5664, Note_on_c, 0, 42, 0
4, 5760, Note_on_c, 0, 42, 100
4, 5760, Note_on_c, 0, 54, 64
4, 5849, Note_on_c, 0, 54, 0
4, 5856, Note_on_c, 0, 42, 0
4, 5952, Note_on_c, 0, 40, 100
4, 5952, Note_on_c, 0, 52, 64
4, 6041, Note_on_c, 0, 52, 0
4, 6048, Note_on_c, 0, 40, 0
4, 6144, Note_on_c, 0, 39, 100
4, 6144, Note_on_c, 0, 51, 64
4, 6233, Note_on_c, 0, 51, 0
4, 6240, Note_on_c, 0, 39, 0
4, 6336, Note_on_c, 0, 44, 100
4, 6336, Note_on_c, 0, 56, 64
4, 6425, Note_on_c, 0, 56, 0
4, 6432, Note_on_c, 0, 44, 0
4, 6528, Note_on_c, 0, 49, 100
4, 6528, Note_on_c, 0, 61, 64
4, 6573, Note_on_c, 0, 61, 0
4, 6576, Note_on_c, 0, 49, 0
4, 6576, Note_on_c, 0, 51, 100
4, 6576, Note_on_c, 0, 63, 64
4, 6621, Note_on_c, 0, 63, 0
4, 6624, Note_on_c, 0, 51, 0
4, 6624, Note_on_c, 0, 52, 100
4, 6624, Note_on_c, 0, 64, 64
4, 6669, Note_on_c, 0, 64, 0
4, 6672, Note_on_c, 0, 52, 0
4, 6672, Note_on_c, 0, 44, 100
4, 6672, Note_on_c, 0, 56, 64
4, 6717, Note_on_c, 0, 56, 0
4, 6720, Note_on_c, 0, 44, 0
4, 6720, Note_on_c, 0, 45, 100
4, 6720, Note_on_c, 0, 57, 64
4, 6765, Note_on_c, 0, 57, 0
4, 6768, Note_on_c, 0, 45, 0
4, 6768, Note_on_c, 0, 47, 100
4, 6768, Note_on_c, 0, 59, 64
4, 6813, Note_on_c, 0, 59, 0
4, 6816, Note_on_c, 0, 47, 0
4, 6816, Note_on_c, 0, 46, 100
4, 6816, Note_on_c, 0, 58, 64
4, 6861, Note_on_c, 0, 58, 0
4, 6864, Note_on_c, 0, 46, 0
4, 6864, Note_on_c, 0, 45, 100
4, 6864, Note_on_c, 0, 57, 64
4, 6909, Note_on_c, 0, 57, 0
4, 6912, Note_on_c, 0, 45, 0
4, 6912, Note_on_c, 0, 44, 100
4, 6912, Note_on_c, 0, 56, 64
4, 6957, Note_on_c, 0, 56, 0
4, 6960, Note_on_c, 0, 44, 0
4, 6960, Note_on_c, 0, 43, 100
4, 6960, Note_on_c, 0, 55, 64
4, 7005, Note_on_c, 0, 55, 0
4, 7008, Note_on_c, 0, 43, 0
4, 7008, Note_on_c, 0, 44, 100
4, 7008, Note_on_c, 0, 56, 64
4, 7097, Note_on_c, 0, 56, 0
4, 7104, Note_on_c, 0, 44, 0
4, 7104, Note_on_c, 0, 37, 100
4, 7104, Note_on_c, 0, 49, 64
4, 7193, Note_on_c, 0, 49, 0
4, 7200, Note_on_c, 0, 37, 0
4, 7296, Note_on_c, 0, 44, 100
4, 7296, Note_on_c, 0, 56, 64
4, 7385, Note_on_c, 0, 56, 0
4, 7392, Note_on_c, 0, 44, 0
4, 7488, Note_on_c, 0, 44, 100
4, 7488, Note_on_c, 0, 56, 64
4, 7577, Note_on_c, 0, 56, 0
4, 7584, Note_on_c, 0, 44, 0
4, 7680, Note_on_c, 0, 44, 100
4, 7680, Note_on_c, 0, 56, 64
4, 7769, Note_on_c, 0, 56, 0
4, 7776, Note_on_c, 0, 44, 0
4, 7872, Note_on_c, 0, 40, 100
4, 7872, Note_on_c, 0, 52, 100
4, 7872, Note_on_c, 0, 59, 64
4, 7895, Note_on_c, 0, 59, 0
4, 7896, Note_on_c, 0, 57, 64
4, 7919, Note_on_c, 0, 57, 0
4, 7920, Note_on_c, 0, 56, 64
4, 7943, Note_on_c, 0, 56, 0
4, 7944, Note_on_c, 0, 57, 64
4, 7967, Note_on_c, 0, 57, 0
4, 7968, Note_on_c, 0, 52, 0
4, 7968, Note_on_c, 0, 40, 0
4, 7968, Note_on_c, 0, 59, 64
4, 8013, Note_on_c, 0, 59, 0
4, 8064, Note_on_c, 0, 45, 100
4, 8064, Note_on_c, 0, 57, 64
4, 8153, Note_on_c, 0, 57, 0
4, 8160, Note_on_c, 0, 45, 0
4, 8256, Note_on_c, 0, 51, 64
4, 8256, Note_on_c, 0, 39, 100
4, 8345, Note_on_c, 0, 51, 0
4, 8352, Note_on_c, 0, 39, 0
4, 8448, Note_on_c, 0, 44, 64
4, 8448, Note_on_c, 0, 56, 64
4, 8537, Note_on_c, 0, 56, 0
4, 8537, Note_on_c, 0, 44, 0
4, 8640, Note_on_c, 0, 37, 64
4, 8640, Note_on_c, 0, 49, 64
4, 8729, Note_on_c, 0, 49, 0
4, 8729, Note_on_c, 0, 37, 0
4, 8832, Note_on_c, 0, 42, 64
4, 8832, Note_on_c, 0, 54, 64
4, 8832, Note_on_c, 0, 64, 64
4, 8877, Note_on_c, 0, 64, 0
4, 8880, Note_on_c, 0, 57, 64
4, 8903, Note_on_c, 0, 57, 0
4, 8904, Note_on_c, 0, 59, 64
4, 8921, Note_on_c, 0, 54, 0
4, 8921, Note_on_c, 0, 42, 0
4, 8927, Note_on_c, 0, 59, 0
4, 8928, Note_on_c, 0, 61, 64
4, 8951, Note_on_c, 0, 61, 0
4, 8952, Note_on_c, 0, 59, 64
4, 8975, Note_on_c, 0, 59, 0
4, 8976, Note_on_c, 0, 57, 64
4, 8999, Note_on_c, 0, 57, 0
4, 9000, Note_on_c, 0, 56, 64
4, 9023, Note_on_c, 0, 56, 0
4, 9024, Note_on_c, 0, 35, 64
4, 9024, Note_on_c, 0, 47, 64
4, 9024, Note_on_c, 0, 54, 64
4, 9047, Note_on_c, 0, 54, 0
4, 9048, Note_on_c, 0, 52, 64
4, 9071, Note_on_c, 0, 52, 0
4, 9072, Note_on_c, 0, 51, 64
4, 9095, Note_on_c, 0, 51, 0
4, 9096, Note_on_c, 0, 52, 64
4, 9113, Note_on_c, 0, 47, 0
4, 9113, Note_on_c, 0, 35, 0
4, 9119, Note_on_c, 0, 52, 0
4, 9120, Note_on_c, 0, 54, 64
4, 9165, Note_on_c, 0, 54, 0
4, 9216, Note_on_c, 0, 40, 64
4, 9216, Note_on_c, 0, 52, 64
4, 9216, Note_on_c, 0, 56, 64
4, 9216, Note_on_c, 0, 59, 64
4, 9239, Note_on_c, 0, 59, 0
4, 9240, Note_on_c, 0, 57, 64
4, 9263, Note_on_c, 0, 57, 0
4, 9264, Note_on_c, 0, 56, 64
4, 9287, Note_on_c, 0, 56, 0
4, 9288, Note_on_c, 0, 57, 64
4, 9305, Note_on_c, 0, 40, 0
4, 9305, Note_on_c, 0, 56, 0
4, 9305, Note_on_c, 0, 52, 0
4, 9311, Note_on_c, 0, 57, 0
4, 9312, Note_on_c, 0, 56, 64
4, 9312, Note_on_c, 0, 59, 64
4, 9357, Note_on_c, 0, 59, 0
4, 9401, Note_on_c, 0, 56, 0
4, 9408, Note_on_c, 0, 37, 64
4, 9408, Note_on_c, 0, 49, 64
4, 9408, Note_on_c, 0, 56, 64
4, 9408, Note_on_c, 0, 61, 64
4, 9453, Note_on_c, 0, 61, 0
4, 9456, Note_on_c, 0, 56, 64
4, 9497, Note_on_c, 0, 56, 0
4, 9497, Note_on_c, 0, 49, 0
4, 9497, Note_on_c, 0, 37, 0
4, 9501, Note_on_c, 0, 56, 0
4, 9504, Note_on_c, 0, 56, 64
4, 9504, Note_on_c, 0, 61, 64
4, 9549, Note_on_c, 0, 61, 0
4, 9593, Note_on_c, 0, 56, 0
4, 9600, Note_on_c, 0, 44, 64
4, 9600, Note_on_c, 0, 52, 64
4, 9645, Note_on_c, 0, 52, 0
4, 9648, Note_on_c, 0, 52, 64
4, 9693, Note_on_c, 0, 52, 0
4, 9696, Note_on_c, 0, 44, 0
4, 9696, Note_on_c, 0, 52, 64
4, 9741, Note_on_c, 0, 52, 0
4, 9792, Note_on_c, 0, 40, 64
4, 9792, Note_on_c, 0, 52, 64
4, 9881, Note_on_c, 0, 52, 0
4, 9888, Note_on_c, 0, 40, 0
4, 9984, Note_on_c, 0, 45, 64
4, 9984, Note_on_c, 0, 57, 64
4, 10073, Note_on_c, 0, 57, 0
4, 10080, Note_on_c, 0, 45, 0
4, 10176, Note_on_c, 0, 45, 64
4, 10176, Note_on_c, 0, 57, 64
4, 10265, Note_on_c, 0, 57, 0
4, 10272, Note_on_c, 0, 45, 0
4, 10368, Note_on_c, 0, 45, 64
4, 10368, Note_on_c, 0, 57, 64
4, 10457, Note_on_c, 0, 57, 0
4, 10464, Note_on_c, 0, 45, 0
4, 10560, Note_on_c, 0, 45, 64
4, 10560, Note_on_c, 0, 57, 64
4, 10649, Note_on_c, 0, 57, 0
4, 10656, Note_on_c, 0, 45, 0
4, 10752, Note_on_c, 0, 44, 64
4, 10752, Note_on_c, 0, 56, 64
4, 10841, Note_on_c, 0, 56, 0
4, 10848, Note_on_c, 0, 44, 0
4, 10944, Note_on_c, 0, 37, 64
4, 10944, Note_on_c, 0, 49, 64
4, 10944, Note_on_c, 0, 59, 64
4, 10967, Note_on_c, 0, 59, 0
4, 10968, Note_on_c, 0, 57, 64
4, 10991, Note_on_c, 0, 57, 0
4, 10992, Note_on_c, 0, 56, 64
4, 11015, Note_on_c, 0, 56, 0
4, 11016, Note_on_c, 0, 57, 64
4, 11039, Note_on_c, 0, 57, 0
4, 11040, Note_on_c, 0, 49, 0
4, 11040, Note_on_c, 0, 37, 0
4, 11040, Note_on_c, 0, 59, 64
4, 11085, Note_on_c, 0, 59, 0
4, 11136, Note_on_c, 0, 57, 64
4, 11136, Note_on_c, 0, 54, 64
4, 11136, Note_on_c, 0, 42, 64
4, 11136, Note_on_c, 0, 61, 64
4, 11159, Note_on_c, 0, 61, 0
4, 11160, Note_on_c, 0, 56, 64
4, 11160, Note_on_c, 0, 59, 64
4, 11183, Note_on_c, 0, 59, 0
4, 11184, Note_on_c, 0, 56, 0
4, 11184, Note_on_c, 0, 54, 64
4, 11184, Note_on_c, 0, 57, 64
4, 11207, Note_on_c, 0, 57, 0
4, 11208, Note_on_c, 0, 54, 0
4, 11208, Note_on_c, 0, 56, 64
4, 11208, Note_on_c, 0, 59, 64
4, 11231, Note_on_c, 0, 59, 0
4, 11232, Note_on_c, 0, 57, 0
4, 11232, Note_on_c, 0, 42, 0
4, 11232, Note_on_c, 0, 54, 0
4, 11232, Note_on_c, 0, 56, 0
4, 11232, Note_on_c, 0, 57, 64
4, 11255, Note_on_c, 0, 57, 0
4, 11256, Note_on_c, 0, 59, 64
4, 11279, Note_on_c, 0, 59, 0
4, 11280, Note_on_c, 0, 57, 64
4, 11325, Note_on_c, 0, 57, 0
4, 11328, Note_on_c, 0, 35, 64
4, 11328, Note_on_c, 0, 47, 64
4, 11328, Note_on_c, 0, 59, 64
4, 11373, Note_on_c, 0, 59, 0
4, 11376, Note_on_c, 0, 59, 64
4, 11421, Note_on_c, 0, 59, 0
4, 11424, Note_on_c, 0, 47, 0
4, 11424, Note_on_c, 0, 35, 0
4, 11424, Note_on_c, 0, 59, 64
4, 11469, Note_on_c, 0, 59, 0
4, 11520, Note_on_c, 0, 40, 64
4, 11520, Note_on_c, 0, 52, 64
4, 11565, Note_on_c, 0, 52, 0
4, 11568, Note_on_c, 0, 40, 0
4, 11568, Note_on_c, 0, 39, 64
4, 11568, Note_on_c, 0, 51, 64
4, 11613, Note_on_c, 0, 51, 0
4, 11616, Note_on_c, 0, 39, 0
4, 11616, Note_on_c, 0, 40, 64
4, 11616, Note_on_c, 0, 52, 64
4, 11661, Note_on_c, 0, 52, 0
4, 11664, Note_on_c, 0, 40, 0
4, 11664, Note_on_c, 0, 42, 64
4, 11664, Note_on_c, 0, 54, 64
4, 11709, Note_on_c, 0, 54, 0
4, 11712, Note_on_c, 0, 42, 0
4, 11712, Note_on_c, 0, 44, 64
4, 11712, Note_on_c, 0, 56, 64
4, 11757, Note_on_c, 0, 56, 0
4, 11760, Note_on_c, 0, 44, 0
4, 11760, Note_on_c, 0, 40, 64
4, 11760, Note_on_c, 0, 52, 64
4, 11805, Note_on_c, 0, 52, 0
4, 11808, Note_on_c, 0, 40, 0
4, 11808, Note_on_c, 0, 42, 64
4, 11808, Note_on_c, 0, 54, 64
4, 11853, Note_on_c, 0, 54, 0
4, 11856, Note_on_c, 0, 42, 0
4, 11856, Note_on_c, 0, 44, 64
4, 11856, Note_on_c, 0, 56, 64
4, 11901, Note_on_c, 0, 56, 0
4, 11904, Note_on_c, 0, 44, 0
4, 11904, Note_on_c, 0, 45, 64
4, 11904, Note_on_c, 0, 57, 64
4, 11949, Note_on_c, 0, 57, 0
4, 11952, Note_on_c, 0, 45, 0
4, 11952, Note_on_c, 0, 42, 64
4, 11952, Note_on_c, 0, 54, 64
4, 11997, Note_on_c, 0, 54, 0
4, 12000, Note_on_c, 0, 42, 0
4, 12000, Note_on_c, 0, 44, 64
4, 12000, Note_on_c, 0, 56, 64
4, 12045, Note_on_c, 0, 56, 0
4, 12048, Note_on_c, 0, 44, 0
4, 12048, Note_on_c, 0, 46, 64
4, 12048, Note_on_c, 0, 58, 64
4, 12093, Note_on_c, 0, 58, 0
4, 12096, Note_on_c, 0, 46, 0
4, 12096, Note_on_c, 0, 47, 64
4, 12096, Note_on_c, 0, 59, 64
4, 12384, Note_on_c, 0, 59, 64
4, 12480, Note_on_c, 0, 59, 0
4, 12480, Note_on_c, 0, 47, 0
4, 12610, Note_on_c, 0, 59, 0
4, 12612, Note_on_c, 0, 57, 64
4, 12618, Note_on_c, 0, 57, 0
4, 12618, Note_on_c, 0, 56, 64
4, 12624, Note_on_c, 0, 56, 0
4, 12624, Note_on_c, 0, 57, 64
4, 12630, Note_on_c, 0, 57, 0
4, 12630, Note_on_c, 0, 57, 64
4, 12636, Note_on_c, 0, 57, 0
4, 12636, Note_on_c, 0, 59, 64
4, 12642, Note_on_c, 0, 59, 0
4, 12642, Note_on_c, 0, 57, 64
4, 12648, Note_on_c, 0, 57, 0
4, 12648, Note_on_c, 0, 59, 64
4, 12654, Note_on_c, 0, 59, 0
4, 12654, Note_on_c, 0, 57, 64
4, 12660, Note_on_c, 0, 57, 0
4, 12660, Note_on_c, 0, 56, 64
4, 12672, Note_on_c, 0, 56, 0
4, 12672, Note_on_c, 0, 40, 64
4, 12672, Note_on_c, 0, 52, 64
4, 12672, Note_on_c, 0, 59, 64
4, 12672, Note_on_c, 0, 56, 64
4, 13026, Note_on_c, 0, 56, 0
4, 13056, Note_on_c, 0, 40, 0
4, 13056, Note_on_c, 0, 52, 0
4, 13056, Note_on_c, 0, 59, 0
4, 13056, End_track
5, 0, Start_track
5, 0, MIDI_port, 0
5, 0, Title_t, "Sonata No. 3 en Mi Mayor"
5, 0, End_track
6, 0, Start_track
6, 0, MIDI_port, 0
6, 0, Title_t, "para violin y clavicembalo"
6, 0, End_track
7, 0, Start_track
7, 0, MIDI_port, 0
7, 0, Title_t, "Primer Movimiento: Adagio"
7, 0, End_track
8, 0, Start_track
8, 0, MIDI_port, 0
8, 0, Title_t, "J. S. Bach (1685-1750)"
8, 0, End_track
9, 0, Start_track
9, 0, MIDI_port, 0
9, 0, Title_t, "Copyright Luis Gerardo Barajas"
9, 0, End_track
10, 0, Start_track
10, 0, MIDI_port, 0
10, 0, Title_t, "*** Bach Keeps RuLiNg!!!"
10, 0, End_track
0, 0, End_of_file
