0, 0, Header, 1, 10, 96
1, 0, Start_track
1, 0, Sequencer_specific, 3, 0, 0, 65
1, 0, Time_signature, 6, 2, 24, 8
1, 0, Key_signature, 2, "major"
1, 0, Tempo, 1000000
1, 20408, Tempo, 983607
1, 20416, Tempo, 937500
1, 20424, Tempo, 882353
1, 20432, Tempo, 833333
1, 20440, Tempo, 800000
1, 20448, Tempo, 759494
1, 20456, Tempo, 722892
1, 20464, Tempo, 697674
1, 20472, Tempo, 666667
1, 20480, Tempo, 638298
1, 20488, Tempo, 618557
1, 20496, Tempo, 594059
1, 20504, Tempo, 257511
1, 20504, End_track
2, 0, Start_track
2, 0, MIDI_port, 0
2, 0, Title_t, "Violin"
2, 0, Program_c, 1, 40
2, 0, Control_c, 1, 7, 127
2, 2304, Note_on_c, 1, 78, 64
2, 3287, Note_on_c, 1, 78, 0
2, 3288, Note_on_c, 1, 79, 64
2, 3311, Note_on_c, 1, 79, 0
2, 3312, Note_on_c, 1, 81, 64
2, 3335, Note_on_c, 1, 81, 0
2, 3336, Note_on_c, 1, 79, 64
2, 3359, Note_on_c, 1, 79, 0
2, 3360, Note_on_c, 1, 78, 64
2, 3383, Note_on_c, 1, 78, 0
2, 3384, Note_on_c, 1, 76, 64
2, 3407, Note_on_c, 1, 76, 0
2, 3408, Note_on_c, 1, 75, 64
2, 3431, Note_on_c, 1, 75, 0
2, 3432, Note_on_c, 1, 76, 64
2, 3444, Note_on_c, 1, 76, 0
2, 3444, Note_on_c, 1, 73, 64
2, 3456, Note_on_c, 1, 73, 0
2, 3456, Note_on_c, 1, 71, 64
2, 3545, Note_on_c, 1, 71, 0
2, 3552, Note_on_c, 1, 83, 64
2, 4439, Note_on_c, 1, 83, 0
2, 4440, Note_on_c, 1, 85, 64
2, 4463, Note_on_c, 1, 85, 0
2, 4464, Note_on_c, 1, 86, 64
2, 4487, Note_on_c, 1, 86, 0
2, 4488, Note_on_c, 1, 85, 64
2, 4511, Note_on_c, 1, 85, 0
2, 4512, Note_on_c, 1, 83, 64
2, 4535, Note_on_c, 1, 83, 0
2, 4536, Note_on_c, 1, 81, 64
2, 4559, Note_on_c, 1, 81, 0
2, 4560, Note_on_c, 1, 79, 64
2, 4583, Note_on_c, 1, 79, 0
2, 4584, Note_on_c, 1, 81, 64
2, 4596, Note_on_c, 1, 81, 0
2, 4596, Note_on_c, 1, 78, 64
2, 4608, Note_on_c, 1, 78, 0
2, 4608, Note_on_c, 1, 76, 64
2, 5495, Note_on_c, 1, 76, 0
2, 5496, Note_on_c, 1, 74, 64
2, 5519, Note_on_c, 1, 74, 0
2, 5520, Note_on_c, 1, 73, 64
2, 5543, Note_on_c, 1, 73, 0
2, 5544, Note_on_c, 1, 74, 64
2, 5567, Note_on_c, 1, 74, 0
2, 5568, Note_on_c, 1, 76, 64
2, 5591, Note_on_c, 1, 76, 0
2, 5592, Note_on_c, 1, 74, 64
2, 5615, Note_on_c, 1, 74, 0
2, 5616, Note_on_c, 1, 76, 64
2, 5639, Note_on_c, 1, 76, 0
2, 5640, Note_on_c, 1, 78, 64
2, 5652, Note_on_c, 1, 78, 0
2, 5652, Note_on_c, 1, 79, 64
2, 5664, Note_on_c, 1, 79, 0
2, 5664, Note_on_c, 1, 78, 64
2, 5672, Note_on_c, 1, 78, 0
2, 5672, Note_on_c, 1, 79, 64
2, 5680, Note_on_c, 1, 79, 0
2, 5680, Note_on_c, 1, 78, 64
2, 5688, Note_on_c, 1, 78, 0
2, 5688, Note_on_c, 1, 79, 64
2, 5696, Note_on_c, 1, 79, 0
2, 5696, Note_on_c, 1, 78, 64
2, 5704, Note_on_c, 1, 78, 0
2, 5704, Note_on_c, 1, 79, 64
2, 5712, Note_on_c, 1, 79, 0
2, 5712, Note_on_c, 1, 79, 64
2, 5735, Note_on_c, 1, 79, 0
2, 5736, Note_on_c, 1, 76, 64
2, 5759, Note_on_c, 1, 76, 0
2, 5760, Note_on_c, 1, 74, 64
2, 5768, Note_on_c, 1, 74, 0
2, 5768, Note_on_c, 1, 76, 64
2, 5776, Note_on_c, 1, 76, 0
2, 5776, Note_on_c, 1, 74, 64
2, 5784, Note_on_c, 1, 74, 0
2, 5784, Note_on_c, 1, 76, 64
2, 5792, Note_on_c, 1, 76, 0
2, 5792, Note_on_c, 1, 74, 64
2, 5800, Note_on_c, 1, 74, 0
2, 5800, Note_on_c, 1, 76, 64
2, 5808, Note_on_c, 1, 76, 0
2, 5808, Note_on_c, 1, 74, 64
2, 5816, Note_on_c, 1, 74, 0
2, 5816, Note_on_c, 1, 76, 64
2, 5824, Note_on_c, 1, 76, 0
2, 5824, Note_on_c, 1, 74, 64
2, 5832, Note_on_c, 1, 74, 0
2, 5832, Note_on_c, 1, 76, 64
2, 5840, Note_on_c, 1, 76, 0
2, 5840, Note_on_c, 1, 74, 64
2, 5848, Note_on_c, 1, 74, 0
2, 5848, Note_on_c, 1, 76, 64
2, 5856, Note_on_c, 1, 76, 0
2, 5856, Note_on_c, 1, 74, 64
2, 5864, Note_on_c, 1, 74, 0
2, 5864, Note_on_c, 1, 76, 64
2, 5872, Note_on_c, 1, 76, 0
2, 5872, Note_on_c, 1, 74, 64
2, 5880, Note_on_c, 1, 74, 0
2, 5880, Note_on_c, 1, 76, 64
2, 5888, Note_on_c, 1, 76, 0
2, 5888, Note_on_c, 1, 74, 64
2, 5896, Note_on_c, 1, 74, 0
2, 5896, Note_on_c, 1, 76, 64
2, 5904, Note_on_c, 1, 76, 0
2, 5904, Note_on_c, 1, 73, 64
2, 5949, Note_on_c, 1, 73, 0
2, 5952, Note_on_c, 1, 71, 64
2, 5975, Note_on_c, 1, 71, 0
2, 5976, Note_on_c, 1, 70, 64
2, 5999, Note_on_c, 1, 70, 0
2, 6000, Note_on_c, 1, 71, 64
2, 6045, Note_on_c, 1, 71, 0
2, 6048, Note_on_c, 1, 71, 64
2, 6313, Note_on_c, 1, 71, 0
2, 6336, Note_on_c, 1, 83, 64
2, 6813, Note_on_c, 1, 83, 0
2, 6816, Note_on_c, 1, 80, 64
2, 6824, Note_on_c, 1, 80, 0
2, 6824, Note_on_c, 1, 81, 64
2, 6832, Note_on_c, 1, 81, 0
2, 6832, Note_on_c, 1, 80, 64
2, 6840, Note_on_c, 1, 80, 0
2, 6840, Note_on_c, 1, 81, 64
2, 6848, Note_on_c, 1, 81, 0
2, 6848, Note_on_c, 1, 80, 64
2, 6856, Note_on_c, 1, 80, 0
2, 6856, Note_on_c, 1, 81, 64
2, 6864, Note_on_c, 1, 81, 0
2, 6864, Note_on_c, 1, 80, 64
2, 6872, Note_on_c, 1, 80, 0
2, 6872, Note_on_c, 1, 81, 64
2, 6880, Note_on_c, 1, 81, 0
2, 6880, Note_on_c, 1, 80, 64
2, 6888, Note_on_c, 1, 80, 0
2, 6888, Note_on_c, 1, 81, 64
2, 6896, Note_on_c, 1, 81, 0
2, 6896, Note_on_c, 1, 80, 64
2, 6904, Note_on_c, 1, 80, 0
2, 6904, Note_on_c, 1, 81, 64
2, 6912, Note_on_c, 1, 81, 0
2, 6912, Note_on_c, 1, 81, 64
2, 7533, Note_on_c, 1, 81, 0
2, 7536, Note_on_c, 1, 80, 64
2, 7581, Note_on_c, 1, 80, 0
2, 7584, Note_on_c, 1, 77, 64
2, 7632, Note_on_c, 1, 77, 0
2, 7632, Note_on_c, 1, 78, 64
2, 7677, Note_on_c, 1, 78, 0
2, 7680, Note_on_c, 1, 86, 64
2, 7821, Note_on_c, 1, 86, 0
2, 7824, Note_on_c, 1, 85, 64
2, 7869, Note_on_c, 1, 85, 0
2, 7872, Note_on_c, 1, 83, 64
2, 7917, Note_on_c, 1, 83, 0
2, 7920, Note_on_c, 1, 81, 64
2, 7965, Note_on_c, 1, 81, 0
2, 7968, Note_on_c, 1, 80, 64
2, 8013, Note_on_c, 1, 80, 0
2, 8016, Note_on_c, 1, 78, 64
2, 8061, Note_on_c, 1, 78, 0
2, 8064, Note_on_c, 1, 77, 64
2, 8072, Note_on_c, 1, 77, 0
2, 8072, Note_on_c, 1, 78, 64
2, 8080, Note_on_c, 1, 78, 0
2, 8080, Note_on_c, 1, 77, 64
2, 8088, Note_on_c, 1, 77, 0
2, 8088, Note_on_c, 1, 78, 64
2, 8096, Note_on_c, 1, 78, 0
2, 8096, Note_on_c, 1, 77, 64
2, 8104, Note_on_c, 1, 77, 0
2, 8104, Note_on_c, 1, 78, 64
2, 8112, Note_on_c, 1, 78, 0
2, 8112, Note_on_c, 1, 77, 64
2, 8120, Note_on_c, 1, 77, 0
2, 8120, Note_on_c, 1, 78, 64
2, 8128, Note_on_c, 1, 78, 0
2, 8128, Note_on_c, 1, 77, 64
2, 8136, Note_on_c, 1, 77, 0
2, 8136, Note_on_c, 1, 78, 64
2, 8144, Note_on_c, 1, 78, 0
2, 8144, Note_on_c, 1, 77, 64
2, 8152, Note_on_c, 1, 77, 0
2, 8152, Note_on_c, 1, 78, 64
2, 8160, Note_on_c, 1, 78, 0
2, 8160, Note_on_c, 1, 77, 64
2, 8168, Note_on_c, 1, 77, 0
2, 8168, Note_on_c, 1, 78, 64
2, 8176, Note_on_c, 1, 78, 0
2, 8176, Note_on_c, 1, 77, 64
2, 8184, Note_on_c, 1, 77, 0
2, 8184, Note_on_c, 1, 77, 64
2, 8207, Note_on_c, 1, 77, 0
2, 8208, Note_on_c, 1, 75, 64
2, 8253, Note_on_c, 1, 75, 0
2, 8256, Note_on_c, 1, 73, 64
2, 8345, Note_on_c, 1, 73, 0
2, 8352, Note_on_c, 1, 73, 64
2, 8360, Note_on_c, 1, 73, 0
2, 8360, Note_on_c, 1, 75, 64
2, 8368, Note_on_c, 1, 75, 0
2, 8368, Note_on_c, 1, 73, 64
2, 8685, Note_on_c, 1, 73, 0
2, 8688, Note_on_c, 1, 73, 64
2, 8688, Note_on_c, 1, 81, 64
2, 8733, Note_on_c, 1, 81, 0
2, 8733, Note_on_c, 1, 73, 0
2, 8736, Note_on_c, 1, 73, 64
2, 8736, Note_on_c, 1, 81, 64
2, 8781, Note_on_c, 1, 73, 0
2, 8784, Note_on_c, 1, 81, 0
2, 8784, Note_on_c, 1, 71, 64
2, 8784, Note_on_c, 1, 80, 64
2, 8829, Note_on_c, 1, 80, 0
2, 8829, Note_on_c, 1, 71, 0
2, 8832, Note_on_c, 1, 71, 64
2, 8832, Note_on_c, 1, 80, 64
2, 8877, Note_on_c, 1, 71, 0
2, 8880, Note_on_c, 1, 80, 0
2, 8880, Note_on_c, 1, 69, 64
2, 8880, Note_on_c, 1, 78, 64
2, 8925, Note_on_c, 1, 78, 0
2, 8925, Note_on_c, 1, 69, 0
2, 8928, Note_on_c, 1, 69, 64
2, 8928, Note_on_c, 1, 78, 64
2, 9261, Note_on_c, 1, 78, 0
2, 9261, Note_on_c, 1, 69, 0
2, 9264, Note_on_c, 1, 74, 64
2, 9264, Note_on_c, 1, 83, 64
2, 9309, Note_on_c, 1, 83, 0
2, 9309, Note_on_c, 1, 74, 0
2, 9312, Note_on_c, 1, 74, 64
2, 9312, Note_on_c, 1, 83, 64
2, 9357, Note_on_c, 1, 74, 0
2, 9360, Note_on_c, 1, 83, 0
2, 9360, Note_on_c, 1, 73, 64
2, 9360, Note_on_c, 1, 81, 64
2, 9405, Note_on_c, 1, 81, 0
2, 9405, Note_on_c, 1, 73, 0
2, 9408, Note_on_c, 1, 73, 64
2, 9408, Note_on_c, 1, 81, 64
2, 9453, Note_on_c, 1, 73, 0
2, 9456, Note_on_c, 1, 81, 0
2, 9456, Note_on_c, 1, 71, 64
2, 9456, Note_on_c, 1, 80, 64
2, 9501, Note_on_c, 1, 80, 0
2, 9501, Note_on_c, 1, 71, 0
2, 9504, Note_on_c, 1, 71, 64
2, 9504, Note_on_c, 1, 80, 64
2, 9549, Note_on_c, 1, 71, 0
2, 9552, Note_on_c, 1, 80, 0
2, 9552, Note_on_c, 1, 74, 64
2, 9552, Note_on_c, 1, 83, 64
2, 9597, Note_on_c, 1, 83, 0
2, 9597, Note_on_c, 1, 74, 0
2, 9600, Note_on_c, 1, 74, 64
2, 9600, Note_on_c, 1, 83, 64
2, 9645, Note_on_c, 1, 74, 0
2, 9648, Note_on_c, 1, 83, 0
2, 9648, Note_on_c, 1, 68, 64
2, 9648, Note_on_c, 1, 77, 64
2, 9693, Note_on_c, 1, 77, 0
2, 9693, Note_on_c, 1, 68, 0
2, 9696, Note_on_c, 1, 68, 64
2, 9696, Note_on_c, 1, 77, 64
2, 9741, Note_on_c, 1, 68, 0
2, 9744, Note_on_c, 1, 77, 0
2, 9744, Note_on_c, 1, 71, 64
2, 9744, Note_on_c, 1, 80, 64
2, 9789, Note_on_c, 1, 80, 0
2, 9789, Note_on_c, 1, 71, 0
2, 9792, Note_on_c, 1, 71, 64
2, 9792, Note_on_c, 1, 80, 64
2, 9837, Note_on_c, 1, 71, 0
2, 9840, Note_on_c, 1, 80, 0
2, 9840, Note_on_c, 1, 65, 64
2, 9840, Note_on_c, 1, 71, 64
2, 9885, Note_on_c, 1, 71, 0
2, 9885, Note_on_c, 1, 65, 0
2, 9888, Note_on_c, 1, 65, 64
2, 9888, Note_on_c, 1, 71, 64
2, 9933, Note_on_c, 1, 65, 0
2, 9936, Note_on_c, 1, 71, 0
2, 9936, Note_on_c, 1, 65, 64
2, 9936, Note_on_c, 1, 74, 64
2, 9981, Note_on_c, 1, 74, 0
2, 9981, Note_on_c, 1, 65, 0
2, 9984, Note_on_c, 1, 65, 64
2, 9984, Note_on_c, 1, 74, 64
2, 10169, Note_on_c, 1, 74, 0
2, 10169, Note_on_c, 1, 65, 0
2, 10176, Note_on_c, 1, 73, 64
2, 10224, Note_on_c, 1, 73, 0
2, 10224, Note_on_c, 1, 71, 64
2, 10269, Note_on_c, 1, 71, 0
2, 10272, Note_on_c, 1, 69, 64
2, 10320, Note_on_c, 1, 69, 0
2, 10320, Note_on_c, 1, 68, 64
2, 10365, Note_on_c, 1, 68, 0
2, 10368, Note_on_c, 1, 69, 64
2, 10413, Note_on_c, 1, 69, 0
2, 10416, Note_on_c, 1, 73, 64
2, 10461, Note_on_c, 1, 73, 0
2, 10464, Note_on_c, 1, 80, 64
2, 10512, Note_on_c, 1, 80, 0
2, 10512, Note_on_c, 1, 77, 64
2, 10557, Note_on_c, 1, 77, 0
2, 10560, Note_on_c, 1, 78, 64
2, 10701, Note_on_c, 1, 78, 0
2, 10704, Note_on_c, 1, 83, 64
2, 10749, Note_on_c, 1, 83, 0
2, 10752, Note_on_c, 1, 80, 64
2, 10760, Note_on_c, 1, 80, 0
2, 10760, Note_on_c, 1, 81, 64
2, 10768, Note_on_c, 1, 81, 0
2, 10768, Note_on_c, 1, 80, 64
2, 10776, Note_on_c, 1, 80, 0
2, 10776, Note_on_c, 1, 81, 64
2, 10784, Note_on_c, 1, 81, 0
2, 10784, Note_on_c, 1, 80, 64
2, 10792, Note_on_c, 1, 80, 0
2, 10792, Note_on_c, 1, 81, 64
2, 10800, Note_on_c, 1, 81, 0
2, 10800, Note_on_c, 1, 80, 64
2, 10808, Note_on_c, 1, 80, 0
2, 10808, Note_on_c, 1, 81, 64
2, 10816, Note_on_c, 1, 81, 0
2, 10816, Note_on_c, 1, 80, 64
2, 10824, Note_on_c, 1, 80, 0
2, 10824, Note_on_c, 1, 81, 64
2, 10832, Note_on_c, 1, 81, 0
2, 10832, Note_on_c, 1, 80, 64
2, 10840, Note_on_c, 1, 80, 0
2, 10840, Note_on_c, 1, 81, 64
2, 10848, Note_on_c, 1, 81, 0
2, 10848, Note_on_c, 1, 80, 64
2, 10856, Note_on_c, 1, 80, 0
2, 10856, Note_on_c, 1, 81, 64
2, 10864, Note_on_c, 1, 81, 0
2, 10864, Note_on_c, 1, 80, 64
2, 10872, Note_on_c, 1, 80, 0
2, 10872, Note_on_c, 1, 81, 64
2, 10880, Note_on_c, 1, 81, 0
2, 10880, Note_on_c, 1, 80, 64
2, 10888, Note_on_c, 1, 80, 0
2, 10888, Note_on_c, 1, 81, 64
2, 10896, Note_on_c, 1, 81, 0
2, 10896, Note_on_c, 1, 78, 64
2, 10941, Note_on_c, 1, 78, 0
2, 10944, Note_on_c, 1, 78, 64
2, 11209, Note_on_c, 1, 78, 0
2, 11232, Note_on_c, 1, 78, 64
2, 11409, Note_on_c, 1, 78, 0
2, 11520, Note_on_c, 1, 72, 64
2, 11520, Note_on_c, 1, 81, 64
2, 11853, Note_on_c, 1, 81, 0
2, 11853, Note_on_c, 1, 72, 0
2, 11856, Note_on_c, 1, 71, 64
2, 11856, Note_on_c, 1, 79, 64
2, 11901, Note_on_c, 1, 79, 0
2, 11901, Note_on_c, 1, 71, 0
2, 11904, Note_on_c, 1, 71, 64
2, 11904, Note_on_c, 1, 79, 64
2, 11952, Note_on_c, 1, 79, 0
2, 11952, Note_on_c, 1, 71, 0
2, 11952, Note_on_c, 1, 69, 64
2, 11952, Note_on_c, 1, 78, 64
2, 11997, Note_on_c, 1, 78, 0
2, 11997, Note_on_c, 1, 69, 0
2, 12000, Note_on_c, 1, 69, 64
2, 12000, Note_on_c, 1, 78, 64
2, 12048, Note_on_c, 1, 78, 0
2, 12048, Note_on_c, 1, 69, 0
2, 12048, Note_on_c, 1, 71, 64
2, 12048, Note_on_c, 1, 79, 64
2, 12093, Note_on_c, 1, 79, 0
2, 12093, Note_on_c, 1, 71, 0
2, 12096, Note_on_c, 1, 79, 64
2, 12096, Note_on_c, 1, 71, 64
2, 12384, Note_on_c, 1, 71, 0
2, 12384, Note_on_c, 1, 76, 64
2, 12649, Note_on_c, 1, 76, 0
2, 12649, Note_on_c, 1, 79, 0
2, 12672, Note_on_c, 1, 79, 64
2, 12672, Note_on_c, 1, 76, 64
2, 12717, Note_on_c, 1, 76, 0
2, 12717, Note_on_c, 1, 79, 0
2, 12720, Note_on_c, 1, 78, 64
2, 12720, Note_on_c, 1, 74, 64
2, 12765, Note_on_c, 1, 74, 0
2, 12765, Note_on_c, 1, 78, 0
2, 12768, Note_on_c, 1, 78, 64
2, 12768, Note_on_c, 1, 74, 64
2, 12813, Note_on_c, 1, 74, 0
2, 12813, Note_on_c, 1, 78, 0
2, 12816, Note_on_c, 1, 76, 64
2, 12816, Note_on_c, 1, 73, 64
2, 12861, Note_on_c, 1, 73, 0
2, 12861, Note_on_c, 1, 76, 0
2, 12864, Note_on_c, 1, 76, 64
2, 12864, Note_on_c, 1, 73, 64
2, 12909, Note_on_c, 1, 73, 0
2, 12909, Note_on_c, 1, 76, 0
2, 12912, Note_on_c, 1, 79, 64
2, 12912, Note_on_c, 1, 76, 64
2, 12957, Note_on_c, 1, 76, 0
2, 12957, Note_on_c, 1, 79, 0
2, 12960, Note_on_c, 1, 79, 64
2, 12960, Note_on_c, 1, 76, 64
2, 13005, Note_on_c, 1, 76, 0
2, 13005, Note_on_c, 1, 79, 0
2, 13008, Note_on_c, 1, 78, 64
2, 13008, Note_on_c, 1, 74, 64
2, 13053, Note_on_c, 1, 74, 0
2, 13053, Note_on_c, 1, 78, 0
2, 13056, Note_on_c, 1, 78, 64
2, 13056, Note_on_c, 1, 74, 64
2, 13101, Note_on_c, 1, 74, 0
2, 13101, Note_on_c, 1, 78, 0
2, 13104, Note_on_c, 1, 76, 64
2, 13104, Note_on_c, 1, 73, 64
2, 13149, Note_on_c, 1, 73, 0
2, 13149, Note_on_c, 1, 76, 0
2, 13152, Note_on_c, 1, 76, 64
2, 13152, Note_on_c, 1, 73, 64
2, 13197, Note_on_c, 1, 73, 0
2, 13197, Note_on_c, 1, 76, 0
2, 13200, Note_on_c, 1, 74, 64
2, 13200, Note_on_c, 1, 66, 64
2, 13869, Note_on_c, 1, 66, 0
2, 13869, Note_on_c, 1, 74, 0
2, 13872, Note_on_c, 1, 73, 64
2, 13872, Note_on_c, 1, 64, 64
2, 13917, Note_on_c, 1, 64, 0
2, 13917, Note_on_c, 1, 73, 0
2, 13920, Note_on_c, 1, 76, 64
2, 13920, Note_on_c, 1, 67, 64
2, 13965, Note_on_c, 1, 67, 0
2, 13965, Note_on_c, 1, 76, 0
2, 13968, Note_on_c, 1, 74, 64
2, 13968, Note_on_c, 1, 66, 64
2, 14013, Note_on_c, 1, 66, 0
2, 14013, Note_on_c, 1, 74, 0
2, 14016, Note_on_c, 1, 79, 64
2, 14016, Note_on_c, 1, 71, 64
2, 14064, Note_on_c, 1, 71, 0
2, 14064, Note_on_c, 1, 79, 0
2, 14064, Note_on_c, 1, 78, 64
2, 14064, Note_on_c, 1, 69, 64
2, 14109, Note_on_c, 1, 69, 0
2, 14109, Note_on_c, 1, 78, 0
2, 14112, Note_on_c, 1, 76, 64
2, 14112, Note_on_c, 1, 67, 64
2, 14157, Note_on_c, 1, 76, 0
2, 14160, Note_on_c, 1, 67, 0
2, 14160, Note_on_c, 1, 74, 64
2, 14160, Note_on_c, 1, 66, 64
2, 14205, Note_on_c, 1, 66, 0
2, 14205, Note_on_c, 1, 74, 0
2, 14208, Note_on_c, 1, 73, 64
2, 14208, Note_on_c, 1, 64, 64
2, 14253, Note_on_c, 1, 73, 0
2, 14256, Note_on_c, 1, 76, 64
2, 14297, Note_on_c, 1, 64, 0
2, 14301, Note_on_c, 1, 76, 0
2, 14304, Note_on_c, 1, 70, 64
2, 14349, Note_on_c, 1, 70, 0
2, 14352, Note_on_c, 1, 71, 64
2, 14397, Note_on_c, 1, 71, 0
2, 14400, Note_on_c, 1, 70, 64
2, 14533, Note_on_c, 1, 70, 0
2, 14544, Note_on_c, 1, 68, 64
2, 14589, Note_on_c, 1, 68, 0
2, 14592, Note_on_c, 1, 66, 64
2, 14681, Note_on_c, 1, 66, 0
2, 14688, Note_on_c, 1, 66, 64
2, 15021, Note_on_c, 1, 66, 0
2, 15024, Note_on_c, 1, 66, 64
2, 15024, Note_on_c, 1, 74, 64
2, 15069, Note_on_c, 1, 74, 0
2, 15069, Note_on_c, 1, 66, 0
2, 15072, Note_on_c, 1, 66, 64
2, 15072, Note_on_c, 1, 74, 64
2, 15117, Note_on_c, 1, 74, 0
2, 15117, Note_on_c, 1, 66, 0
2, 15120, Note_on_c, 1, 64, 64
2, 15120, Note_on_c, 1, 73, 64
2, 15165, Note_on_c, 1, 73, 0
2, 15165, Note_on_c, 1, 64, 0
2, 15168, Note_on_c, 1, 64, 64
2, 15168, Note_on_c, 1, 73, 64
2, 15213, Note_on_c, 1, 73, 0
2, 15213, Note_on_c, 1, 64, 0
2, 15216, Note_on_c, 1, 62, 64
2, 15216, Note_on_c, 1, 71, 64
2, 15261, Note_on_c, 1, 71, 0
2, 15261, Note_on_c, 1, 62, 0
2, 15264, Note_on_c, 1, 62, 64
2, 15264, Note_on_c, 1, 71, 64
2, 15597, Note_on_c, 1, 71, 0
2, 15597, Note_on_c, 1, 62, 0
2, 15600, Note_on_c, 1, 67, 64
2, 15600, Note_on_c, 1, 76, 64
2, 15645, Note_on_c, 1, 76, 0
2, 15645, Note_on_c, 1, 67, 0
2, 15648, Note_on_c, 1, 67, 64
2, 15648, Note_on_c, 1, 76, 64
2, 15693, Note_on_c, 1, 76, 0
2, 15693, Note_on_c, 1, 67, 0
2, 15696, Note_on_c, 1, 66, 64
2, 15696, Note_on_c, 1, 74, 64
2, 15741, Note_on_c, 1, 74, 0
2, 15741, Note_on_c, 1, 66, 0
2, 15744, Note_on_c, 1, 66, 64
2, 15744, Note_on_c, 1, 74, 64
2, 15789, Note_on_c, 1, 74, 0
2, 15789, Note_on_c, 1, 66, 0
2, 15792, Note_on_c, 1, 64, 64
2, 15792, Note_on_c, 1, 73, 64
2, 15837, Note_on_c, 1, 73, 0
2, 15837, Note_on_c, 1, 64, 0
2, 15840, Note_on_c, 1, 64, 64
2, 15840, Note_on_c, 1, 73, 64
2, 15885, Note_on_c, 1, 73, 0
2, 15885, Note_on_c, 1, 64, 0
2, 15888, Note_on_c, 1, 67, 64
2, 15888, Note_on_c, 1, 76, 64
2, 15933, Note_on_c, 1, 76, 0
2, 15933, Note_on_c, 1, 67, 0
2, 15936, Note_on_c, 1, 67, 64
2, 15936, Note_on_c, 1, 76, 64
2, 15981, Note_on_c, 1, 76, 0
2, 15981, Note_on_c, 1, 67, 0
2, 15984, Note_on_c, 1, 61, 64
2, 15984, Note_on_c, 1, 70, 64
2, 16029, Note_on_c, 1, 70, 0
2, 16029, Note_on_c, 1, 61, 0
2, 16032, Note_on_c, 1, 61, 64
2, 16032, Note_on_c, 1, 70, 64
2, 16077, Note_on_c, 1, 70, 0
2, 16077, Note_on_c, 1, 61, 0
2, 16080, Note_on_c, 1, 64, 64
2, 16080, Note_on_c, 1, 73, 64
2, 16125, Note_on_c, 1, 73, 0
2, 16125, Note_on_c, 1, 64, 0
2, 16128, Note_on_c, 1, 64, 64
2, 16128, Note_on_c, 1, 73, 64
2, 16173, Note_on_c, 1, 64, 0
2, 16176, Note_on_c, 1, 73, 0
2, 16176, Note_on_c, 1, 58, 64
2, 16176, Note_on_c, 1, 64, 64
2, 16221, Note_on_c, 1, 64, 0
2, 16221, Note_on_c, 1, 58, 0
2, 16224, Note_on_c, 1, 58, 64
2, 16224, Note_on_c, 1, 64, 64
2, 16269, Note_on_c, 1, 58, 0
2, 16272, Note_on_c, 1, 64, 0
2, 16272, Note_on_c, 1, 58, 64
2, 16272, Note_on_c, 1, 67, 64
2, 16317, Note_on_c, 1, 67, 0
2, 16317, Note_on_c, 1, 58, 0
2, 16320, Note_on_c, 1, 58, 64
2, 16320, Note_on_c, 1, 67, 64
2, 16505, Note_on_c, 1, 67, 0
2, 16505, Note_on_c, 1, 58, 0
2, 16512, Note_on_c, 1, 66, 64
2, 16560, Note_on_c, 1, 66, 0
2, 16560, Note_on_c, 1, 64, 64
2, 16605, Note_on_c, 1, 64, 0
2, 16608, Note_on_c, 1, 62, 64
2, 16656, Note_on_c, 1, 62, 0
2, 16656, Note_on_c, 1, 61, 64
2, 16701, Note_on_c, 1, 61, 0
2, 16704, Note_on_c, 1, 62, 64
2, 16752, Note_on_c, 1, 62, 0
2, 16752, Note_on_c, 1, 66, 64
2, 16797, Note_on_c, 1, 66, 0
2, 16800, Note_on_c, 1, 73, 64
2, 16848, Note_on_c, 1, 73, 0
2, 16848, Note_on_c, 1, 70, 64
2, 16893, Note_on_c, 1, 70, 0
2, 16896, Note_on_c, 1, 71, 64
2, 17037, Note_on_c, 1, 71, 0
2, 17040, Note_on_c, 1, 76, 64
2, 17085, Note_on_c, 1, 76, 0
2, 17088, Note_on_c, 1, 73, 64
2, 17096, Note_on_c, 1, 73, 0
2, 17096, Note_on_c, 1, 74, 64
2, 17104, Note_on_c, 1, 74, 0
2, 17104, Note_on_c, 1, 73, 64
2, 17112, Note_on_c, 1, 73, 0
2, 17112, Note_on_c, 1, 74, 64
2, 17120, Note_on_c, 1, 74, 0
2, 17120, Note_on_c, 1, 73, 64
2, 17128, Note_on_c, 1, 73, 0
2, 17128, Note_on_c, 1, 74, 64
2, 17136, Note_on_c, 1, 74, 0
2, 17136, Note_on_c, 1, 73, 64
2, 17144, Note_on_c, 1, 73, 0
2, 17144, Note_on_c, 1, 74, 64
2, 17152, Note_on_c, 1, 74, 0
2, 17152, Note_on_c, 1, 73, 64
2, 17160, Note_on_c, 1, 73, 0
2, 17160, Note_on_c, 1, 74, 64
2, 17168, Note_on_c, 1, 74, 0
2, 17168, Note_on_c, 1, 73, 64
2, 17176, Note_on_c, 1, 73, 0
2, 17176, Note_on_c, 1, 74, 64
2, 17184, Note_on_c, 1, 74, 0
2, 17184, Note_on_c, 1, 73, 64
2, 17192, Note_on_c, 1, 73, 0
2, 17192, Note_on_c, 1, 74, 64
2, 17200, Note_on_c, 1, 74, 0
2, 17200, Note_on_c, 1, 73, 64
2, 17208, Note_on_c, 1, 73, 0
2, 17208, Note_on_c, 1, 74, 64
2, 17216, Note_on_c, 1, 74, 0
2, 17216, Note_on_c, 1, 73, 64
2, 17224, Note_on_c, 1, 73, 0
2, 17224, Note_on_c, 1, 74, 64
2, 17232, Note_on_c, 1, 74, 0
2, 17232, Note_on_c, 1, 71, 64
2, 17277, Note_on_c, 1, 71, 0
2, 17280, Note_on_c, 1, 71, 64
2, 17687, Note_on_c, 1, 71, 0
2, 17688, Note_on_c, 1, 69, 64
2, 17711, Note_on_c, 1, 69, 0
2, 17712, Note_on_c, 1, 67, 64
2, 17735, Note_on_c, 1, 67, 0
2, 17736, Note_on_c, 1, 66, 64
2, 17759, Note_on_c, 1, 66, 0
2, 17760, Note_on_c, 1, 64, 64
2, 17805, Note_on_c, 1, 64, 0
2, 17808, Note_on_c, 1, 66, 64
2, 17831, Note_on_c, 1, 66, 0
2, 17832, Note_on_c, 1, 63, 64
2, 17855, Note_on_c, 1, 63, 0
2, 17856, Note_on_c, 1, 64, 64
2, 18263, Note_on_c, 1, 64, 0
2, 18264, Note_on_c, 1, 66, 64
2, 18287, Note_on_c, 1, 66, 0
2, 18288, Note_on_c, 1, 67, 64
2, 18311, Note_on_c, 1, 67, 0
2, 18312, Note_on_c, 1, 66, 64
2, 18335, Note_on_c, 1, 66, 0
2, 18336, Note_on_c, 1, 64, 64
2, 18359, Note_on_c, 1, 64, 0
2, 18360, Note_on_c, 1, 62, 64
2, 18383, Note_on_c, 1, 62, 0
2, 18384, Note_on_c, 1, 60, 64
2, 18407, Note_on_c, 1, 60, 0
2, 18408, Note_on_c, 1, 62, 64
2, 18420, Note_on_c, 1, 62, 0
2, 18420, Note_on_c, 1, 59, 64
2, 18432, Note_on_c, 1, 59, 0
2, 18432, Note_on_c, 1, 60, 64
2, 18477, Note_on_c, 1, 60, 0
2, 18480, Note_on_c, 1, 64, 64
2, 18480, Note_on_c, 1, 55, 64
2, 18525, Note_on_c, 1, 55, 0
2, 18525, Note_on_c, 1, 64, 0
2, 18528, Note_on_c, 1, 64, 64
2, 18528, Note_on_c, 1, 55, 64
2, 18573, Note_on_c, 1, 64, 0
2, 18576, Note_on_c, 1, 55, 0
2, 18576, Note_on_c, 1, 67, 64
2, 18576, Note_on_c, 1, 61, 64
2, 18621, Note_on_c, 1, 61, 0
2, 18621, Note_on_c, 1, 67, 0
2, 18624, Note_on_c, 1, 67, 64
2, 18624, Note_on_c, 1, 61, 64
2, 18669, Note_on_c, 1, 67, 0
2, 18672, Note_on_c, 1, 61, 0
2, 18672, Note_on_c, 1, 72, 64
2, 18672, Note_on_c, 1, 64, 64
2, 18717, Note_on_c, 1, 64, 0
2, 18717, Note_on_c, 1, 72, 0
2, 18720, Note_on_c, 1, 72, 64
2, 18720, Note_on_c, 1, 64, 64
2, 18765, Note_on_c, 1, 72, 0
2, 18768, Note_on_c, 1, 64, 0
2, 18768, Note_on_c, 1, 76, 64
2, 18768, Note_on_c, 1, 67, 64
2, 18813, Note_on_c, 1, 67, 0
2, 18813, Note_on_c, 1, 76, 0
2, 18816, Note_on_c, 1, 76, 64
2, 18816, Note_on_c, 1, 67, 64
2, 18861, Note_on_c, 1, 76, 0
2, 18864, Note_on_c, 1, 67, 0
2, 18864, Note_on_c, 1, 79, 64
2, 18864, Note_on_c, 1, 71, 64
2, 18909, Note_on_c, 1, 71, 0
2, 18909, Note_on_c, 1, 79, 0
2, 18912, Note_on_c, 1, 79, 64
2, 18912, Note_on_c, 1, 71, 64
2, 18957, Note_on_c, 1, 79, 0
2, 18960, Note_on_c, 1, 71, 0
2, 18960, Note_on_c, 1, 82, 64
2, 18960, Note_on_c, 1, 73, 64
2, 19005, Note_on_c, 1, 73, 0
2, 19005, Note_on_c, 1, 82, 0
2, 19008, Note_on_c, 1, 82, 64
2, 19008, Note_on_c, 1, 73, 64
2, 19031, Note_on_c, 1, 73, 0
2, 19031, Note_on_c, 1, 82, 0
2, 19032, Note_on_c, 1, 79, 64
2, 19055, Note_on_c, 1, 79, 0
2, 19056, Note_on_c, 1, 78, 64
2, 19079, Note_on_c, 1, 78, 0
2, 19080, Note_on_c, 1, 76, 64
2, 19103, Note_on_c, 1, 76, 0
2, 19104, Note_on_c, 1, 74, 64
2, 19127, Note_on_c, 1, 74, 0
2, 19128, Note_on_c, 1, 73, 64
2, 19151, Note_on_c, 1, 73, 0
2, 19152, Note_on_c, 1, 76, 64
2, 19175, Note_on_c, 1, 76, 0
2, 19176, Note_on_c, 1, 74, 64
2, 19199, Note_on_c, 1, 74, 0
2, 19200, Note_on_c, 1, 73, 64
2, 19223, Note_on_c, 1, 73, 0
2, 19224, Note_on_c, 1, 71, 64
2, 19247, Note_on_c, 1, 71, 0
2, 19248, Note_on_c, 1, 70, 64
2, 19271, Note_on_c, 1, 70, 0
2, 19272, Note_on_c, 1, 73, 64
2, 19295, Note_on_c, 1, 73, 0
2, 19296, Note_on_c, 1, 70, 64
2, 19296, Note_on_c, 1, 79, 64
2, 19296, Note_on_c, 1, 64, 100
2, 19385, Note_on_c, 1, 79, 0
2, 19385, Note_on_c, 1, 70, 0
2, 19392, Note_on_c, 1, 64, 0
2, 19584, Note_on_c, 1, 78, 64
2, 19584, Note_on_c, 1, 71, 64
2, 19584, Note_on_c, 1, 62, 64
2, 19608, Note_on_c, 1, 78, 0
2, 19629, Note_on_c, 1, 62, 0
2, 19629, Note_on_c, 1, 71, 0
2, 19632, Note_on_c, 1, 74, 64
2, 19677, Note_on_c, 1, 74, 0
2, 19680, Note_on_c, 1, 73, 64
2, 19728, Note_on_c, 1, 73, 0
2, 19728, Note_on_c, 1, 76, 64
2, 19773, Note_on_c, 1, 76, 0
2, 19776, Note_on_c, 1, 70, 64
2, 19824, Note_on_c, 1, 70, 0
2, 19824, Note_on_c, 1, 71, 64
2, 19869, Note_on_c, 1, 71, 0
2, 19872, Note_on_c, 1, 67, 64
2, 19920, Note_on_c, 1, 67, 0
2, 19920, Note_on_c, 1, 66, 64
2, 19965, Note_on_c, 1, 66, 0
2, 19968, Note_on_c, 1, 74, 64
2, 20016, Note_on_c, 1, 74, 0
2, 20016, Note_on_c, 1, 73, 64
2, 20061, Note_on_c, 1, 73, 0
2, 20064, Note_on_c, 1, 71, 64
2, 20112, Note_on_c, 1, 71, 0
2, 20112, Note_on_c, 1, 70, 64
2, 20157, Note_on_c, 1, 70, 0
2, 20160, Note_on_c, 1, 71, 64
2, 20690, Note_on_c, 1, 71, 0
2, 20690, End_track
3, 0, Start_track
3, 0, MIDI_port, 0
3, 0, Title_t, "Clavier (RH)"
3, 0, Program_c, 0, 6
3, 0, Control_c, 0, 7, 127
3, 0, Note_on_c, 0, 74, 64
3, 0, Note_on_c, 0, 78, 64
3, 333, Note_on_c, 0, 78, 0
3, 333, Note_on_c, 0, 74, 0
3, 336, Note_on_c, 0, 76, 64
3, 336, Note_on_c, 0, 79, 64
3, 381, Note_on_c, 0, 79, 0
3, 381, Note_on_c, 0, 76, 0
3, 384, Note_on_c, 0, 76, 64
3, 384, Note_on_c, 0, 79, 64
3, 429, Note_on_c, 0, 79, 0
3, 429, Note_on_c, 0, 76, 0
3, 432, Note_on_c, 0, 74, 64
3, 432, Note_on_c, 0, 78, 64
3, 477, Note_on_c, 0, 78, 0
3, 477, Note_on_c, 0, 74, 0
3, 480, Note_on_c, 0, 74, 64
3, 480, Note_on_c, 0, 78, 64
3, 525, Note_on_c, 0, 78, 0
3, 525, Note_on_c, 0, 74, 0
3, 528, Note_on_c, 0, 73, 64
3, 528, Note_on_c, 0, 76, 64
3, 573, Note_on_c, 0, 76, 0
3, 573, Note_on_c, 0, 73, 0
3, 576, Note_on_c, 0, 73, 64
3, 576, Note_on_c, 0, 76, 64
3, 909, Note_on_c, 0, 76, 0
3, 909, Note_on_c, 0, 73, 0
3, 912, Note_on_c, 0, 74, 64
3, 912, Note_on_c, 0, 78, 64
3, 957, Note_on_c, 0, 78, 0
3, 957, Note_on_c, 0, 74, 0
3, 960, Note_on_c, 0, 74, 64
3, 960, Note_on_c, 0, 78, 64
3, 1005, Note_on_c, 0, 78, 0
3, 1005, Note_on_c, 0, 74, 0
3, 1008, Note_on_c, 0, 73, 64
3, 1008, Note_on_c, 0, 76, 64
3, 1053, Note_on_c, 0, 76, 0
3, 1053, Note_on_c, 0, 73, 0
3, 1056, Note_on_c, 0, 73, 64
3, 1056, Note_on_c, 0, 76, 64
3, 1101, Note_on_c, 0, 76, 0
3, 1101, Note_on_c, 0, 73, 0
3, 1104, Note_on_c, 0, 71, 64
3, 1104, Note_on_c, 0, 74, 64
3, 1149, Note_on_c, 0, 74, 0
3, 1149, Note_on_c, 0, 71, 0
3, 1152, Note_on_c, 0, 71, 64
3, 1152, Note_on_c, 0, 74, 64
3, 1485, Note_on_c, 0, 74, 0
3, 1485, Note_on_c, 0, 71, 0
3, 1488, Note_on_c, 0, 73, 64
3, 1488, Note_on_c, 0, 83, 64
3, 1533, Note_on_c, 0, 83, 0
3, 1533, Note_on_c, 0, 73, 0
3, 1536, Note_on_c, 0, 73, 64
3, 1536, Note_on_c, 0, 83, 64
3, 1581, Note_on_c, 0, 83, 0
3, 1581, Note_on_c, 0, 73, 0
3, 1584, Note_on_c, 0, 75, 64
3, 1584, Note_on_c, 0, 81, 64
3, 1629, Note_on_c, 0, 81, 0
3, 1629, Note_on_c, 0, 75, 0
3, 1632, Note_on_c, 0, 75, 64
3, 1632, Note_on_c, 0, 81, 64
3, 1677, Note_on_c, 0, 81, 0
3, 1677, Note_on_c, 0, 75, 0
3, 1680, Note_on_c, 0, 76, 64
3, 1680, Note_on_c, 0, 79, 64
3, 1725, Note_on_c, 0, 79, 0
3, 1725, Note_on_c, 0, 76, 0
3, 1728, Note_on_c, 0, 76, 64
3, 1728, Note_on_c, 0, 79, 64
3, 1773, Note_on_c, 0, 79, 0
3, 1773, Note_on_c, 0, 76, 0
3, 1776, Note_on_c, 0, 74, 64
3, 1776, Note_on_c, 0, 78, 64
3, 1821, Note_on_c, 0, 78, 0
3, 1821, Note_on_c, 0, 74, 0
3, 1824, Note_on_c, 0, 74, 64
3, 1824, Note_on_c, 0, 78, 64
3, 1869, Note_on_c, 0, 78, 0
3, 1869, Note_on_c, 0, 74, 0
3, 1872, Note_on_c, 0, 73, 64
3, 1872, Note_on_c, 0, 76, 64
3, 1917, Note_on_c, 0, 76, 0
3, 1917, Note_on_c, 0, 73, 0
3, 1920, Note_on_c, 0, 73, 64
3, 1920, Note_on_c, 0, 76, 64
3, 1965, Note_on_c, 0, 76, 0
3, 1965, Note_on_c, 0, 73, 0
3, 1968, Note_on_c, 0, 71, 64
3, 1968, Note_on_c, 0, 74, 64
3, 2013, Note_on_c, 0, 74, 0
3, 2013, Note_on_c, 0, 71, 0
3, 2016, Note_on_c, 0, 66, 64
3, 2016, Note_on_c, 0, 74, 64
3, 2061, Note_on_c, 0, 74, 0
3, 2061, Note_on_c, 0, 66, 0
3, 2064, Note_on_c, 0, 64, 64
3, 2064, Note_on_c, 0, 73, 64
3, 2109, Note_on_c, 0, 73, 0
3, 2109, Note_on_c, 0, 64, 0
3, 2112, Note_on_c, 0, 64, 64
3, 2112, Note_on_c, 0, 73, 64
3, 2157, Note_on_c, 0, 73, 0
3, 2157, Note_on_c, 0, 64, 0
3, 2160, Note_on_c, 0, 62, 64
3, 2160, Note_on_c, 0, 71, 64
3, 2205, Note_on_c, 0, 71, 0
3, 2205, Note_on_c, 0, 62, 0
3, 2208, Note_on_c, 0, 62, 64
3, 2208, Note_on_c, 0, 71, 64
3, 2253, Note_on_c, 0, 71, 0
3, 2253, Note_on_c, 0, 62, 0
3, 2256, Note_on_c, 0, 61, 64
3, 2256, Note_on_c, 0, 70, 64
3, 2301, Note_on_c, 0, 70, 0
3, 2301, Note_on_c, 0, 61, 0
3, 2304, Note_on_c, 0, 61, 64
3, 2304, Note_on_c, 0, 70, 64
3, 2349, Note_on_c, 0, 70, 0
3, 2349, Note_on_c, 0, 61, 0
3, 2352, Note_on_c, 0, 59, 64
3, 2352, Note_on_c, 0, 68, 64
3, 2397, Note_on_c, 0, 68, 0
3, 2397, Note_on_c, 0, 59, 0
3, 2400, Note_on_c, 0, 59, 64
3, 2400, Note_on_c, 0, 68, 64
3, 2445, Note_on_c, 0, 68, 0
3, 2445, Note_on_c, 0, 59, 0
3, 2448, Note_on_c, 0, 61, 64
3, 2448, Note_on_c, 0, 70, 64
3, 2493, Note_on_c, 0, 70, 0
3, 2493, Note_on_c, 0, 61, 0
3, 2496, Note_on_c, 0, 61, 64
3, 2496, Note_on_c, 0, 70, 64
3, 2541, Note_on_c, 0, 70, 0
3, 2541, Note_on_c, 0, 61, 0
3, 2544, Note_on_c, 0, 62, 64
3, 2544, Note_on_c, 0, 71, 64
3, 2589, Note_on_c, 0, 71, 0
3, 2589, Note_on_c, 0, 62, 0
3, 2592, Note_on_c, 0, 62, 64
3, 2592, Note_on_c, 0, 71, 64
3, 2637, Note_on_c, 0, 71, 0
3, 2637, Note_on_c, 0, 62, 0
3, 2640, Note_on_c, 0, 61, 64
3, 2640, Note_on_c, 0, 70, 64
3, 2685, Note_on_c, 0, 70, 0
3, 2685, Note_on_c, 0, 61, 0
3, 2688, Note_on_c, 0, 61, 64
3, 2688, Note_on_c, 0, 70, 64
3, 2733, Note_on_c, 0, 70, 0
3, 2733, Note_on_c, 0, 61, 0
3, 2736, Note_on_c, 0, 62, 64
3, 2736, Note_on_c, 0, 71, 64
3, 2781, Note_on_c, 0, 71, 0
3, 2781, Note_on_c, 0, 62, 0
3, 2784, Note_on_c, 0, 62, 64
3, 2784, Note_on_c, 0, 71, 64
3, 2829, Note_on_c, 0, 71, 0
3, 2829, Note_on_c, 0, 62, 0
3, 2832, Note_on_c, 0, 64, 64
3, 2832, Note_on_c, 0, 73, 64
3, 2877, Note_on_c, 0, 73, 0
3, 2877, Note_on_c, 0, 64, 0
3, 2880, Note_on_c, 0, 64, 64
3, 2880, Note_on_c, 0, 73, 64
3, 3145, Note_on_c, 0, 73, 0
3, 3145, Note_on_c, 0, 64, 0
3, 3168, Note_on_c, 0, 63, 64
3, 3168, Note_on_c, 0, 71, 64
3, 3213, Note_on_c, 0, 71, 0
3, 3213, Note_on_c, 0, 63, 0
3, 3216, Note_on_c, 0, 64, 64
3, 3216, Note_on_c, 0, 73, 64
3, 3261, Note_on_c, 0, 73, 0
3, 3261, Note_on_c, 0, 64, 0
3, 3264, Note_on_c, 0, 64, 64
3, 3264, Note_on_c, 0, 73, 64
3, 3309, Note_on_c, 0, 73, 0
3, 3309, Note_on_c, 0, 64, 0
3, 3312, Note_on_c, 0, 66, 64
3, 3312, Note_on_c, 0, 75, 64
3, 3357, Note_on_c, 0, 75, 0
3, 3357, Note_on_c, 0, 66, 0
3, 3360, Note_on_c, 0, 66, 64
3, 3360, Note_on_c, 0, 75, 64
3, 3405, Note_on_c, 0, 75, 0
3, 3405, Note_on_c, 0, 66, 0
3, 3408, Note_on_c, 0, 67, 64
3, 3408, Note_on_c, 0, 76, 64
3, 3453, Note_on_c, 0, 76, 0
3, 3453, Note_on_c, 0, 67, 0
3, 3456, Note_on_c, 0, 67, 64
3, 3456, Note_on_c, 0, 76, 64
3, 3589, Note_on_c, 0, 76, 0
3, 3589, Note_on_c, 0, 67, 0
3, 3600, Note_on_c, 0, 64, 64
3, 3600, Note_on_c, 0, 71, 64
3, 3645, Note_on_c, 0, 71, 0
3, 3645, Note_on_c, 0, 64, 0
3, 3648, Note_on_c, 0, 71, 64
3, 3648, Note_on_c, 0, 74, 64
3, 3693, Note_on_c, 0, 74, 0
3, 3693, Note_on_c, 0, 71, 0
3, 3696, Note_on_c, 0, 70, 64
3, 3696, Note_on_c, 0, 73, 64
3, 3741, Note_on_c, 0, 73, 0
3, 3741, Note_on_c, 0, 70, 0
3, 3744, Note_on_c, 0, 71, 64
3, 3744, Note_on_c, 0, 74, 64
3, 3789, Note_on_c, 0, 74, 0
3, 3789, Note_on_c, 0, 71, 0
3, 3792, Note_on_c, 0, 73, 64
3, 3792, Note_on_c, 0, 76, 64
3, 3837, Note_on_c, 0, 76, 0
3, 3837, Note_on_c, 0, 73, 0
3, 3840, Note_on_c, 0, 73, 64
3, 3840, Note_on_c, 0, 76, 64
3, 3885, Note_on_c, 0, 76, 0
3, 3885, Note_on_c, 0, 73, 0
3, 3888, Note_on_c, 0, 74, 64
3, 3888, Note_on_c, 0, 78, 64
3, 3933, Note_on_c, 0, 78, 0
3, 3933, Note_on_c, 0, 74, 0
3, 3936, Note_on_c, 0, 74, 64
3, 3936, Note_on_c, 0, 78, 64
3, 3981, Note_on_c, 0, 78, 0
3, 3981, Note_on_c, 0, 74, 0
3, 3984, Note_on_c, 0, 76, 64
3, 3984, Note_on_c, 0, 79, 64
3, 4029, Note_on_c, 0, 79, 0
3, 4029, Note_on_c, 0, 76, 0
3, 4032, Note_on_c, 0, 76, 64
3, 4032, Note_on_c, 0, 79, 64
3, 4365, Note_on_c, 0, 79, 0
3, 4365, Note_on_c, 0, 76, 0
3, 4368, Note_on_c, 0, 71, 64
3, 4368, Note_on_c, 0, 78, 64
3, 4413, Note_on_c, 0, 78, 0
3, 4413, Note_on_c, 0, 71, 0
3, 4416, Note_on_c, 0, 71, 64
3, 4416, Note_on_c, 0, 78, 64
3, 4461, Note_on_c, 0, 78, 0
3, 4461, Note_on_c, 0, 71, 0
3, 4464, Note_on_c, 0, 76, 64
3, 4464, Note_on_c, 0, 80, 64
3, 4509, Note_on_c, 0, 80, 0
3, 4509, Note_on_c, 0, 76, 0
3, 4512, Note_on_c, 0, 76, 64
3, 4512, Note_on_c, 0, 80, 64
3, 4557, Note_on_c, 0, 80, 0
3, 4557, Note_on_c, 0, 76, 0
3, 4560, Note_on_c, 0, 73, 64
3, 4560, Note_on_c, 0, 82, 64
3, 4605, Note_on_c, 0, 82, 0
3, 4605, Note_on_c, 0, 73, 0
3, 4608, Note_on_c, 0, 73, 64
3, 4608, Note_on_c, 0, 82, 64
3, 4941, Note_on_c, 0, 82, 0
3, 4941, Note_on_c, 0, 73, 0
3, 4944, Note_on_c, 0, 71, 64
3, 4944, Note_on_c, 0, 80, 64
3, 4989, Note_on_c, 0, 80, 0
3, 4989, Note_on_c, 0, 71, 0
3, 4992, Note_on_c, 0, 73, 64
3, 4992, Note_on_c, 0, 82, 64
3, 5037, Note_on_c, 0, 82, 0
3, 5037, Note_on_c, 0, 73, 0
3, 5040, Note_on_c, 0, 74, 64
3, 5040, Note_on_c, 0, 83, 64
3, 5085, Note_on_c, 0, 83, 0
3, 5085, Note_on_c, 0, 74, 0
3, 5088, Note_on_c, 0, 73, 64
3, 5088, Note_on_c, 0, 82, 64
3, 5133, Note_on_c, 0, 82, 0
3, 5133, Note_on_c, 0, 73, 0
3, 5136, Note_on_c, 0, 83, 64
3, 5136, Note_on_c, 0, 74, 64
3, 5181, Note_on_c, 0, 74, 0
3, 5181, Note_on_c, 0, 83, 0
3, 5184, Note_on_c, 0, 76, 64
3, 5184, Note_on_c, 0, 85, 64
3, 5317, Note_on_c, 0, 85, 0
3, 5328, Note_on_c, 0, 83, 64
3, 5373, Note_on_c, 0, 83, 0
3, 5376, Note_on_c, 0, 82, 64
3, 5421, Note_on_c, 0, 82, 0
3, 5424, Note_on_c, 0, 83, 64
3, 5449, Note_on_c, 0, 76, 0
3, 5469, Note_on_c, 0, 83, 0
3, 5472, Note_on_c, 0, 73, 64
3, 5472, Note_on_c, 0, 82, 64
3, 5478, Note_on_c, 0, 82, 0
3, 5478, Note_on_c, 0, 83, 64
3, 5484, Note_on_c, 0, 83, 0
3, 5484, Note_on_c, 0, 82, 64
3, 5490, Note_on_c, 0, 82, 0
3, 5490, Note_on_c, 0, 83, 64
3, 5496, Note_on_c, 0, 83, 0
3, 5496, Note_on_c, 0, 82, 64
3, 5502, Note_on_c, 0, 82, 0
3, 5502, Note_on_c, 0, 83, 64
3, 5508, Note_on_c, 0, 83, 0
3, 5508, Note_on_c, 0, 82, 64
3, 5514, Note_on_c, 0, 82, 0
3, 5514, Note_on_c, 0, 83, 64
3, 5520, Note_on_c, 0, 83, 0
3, 5520, Note_on_c, 0, 82, 64
3, 5526, Note_on_c, 0, 82, 0
3, 5526, Note_on_c, 0, 83, 64
3, 5532, Note_on_c, 0, 83, 0
3, 5532, Note_on_c, 0, 82, 64
3, 5538, Note_on_c, 0, 82, 0
3, 5538, Note_on_c, 0, 83, 64
3, 5544, Note_on_c, 0, 83, 0
3, 5544, Note_on_c, 0, 82, 64
3, 5550, Note_on_c, 0, 82, 0
3, 5550, Note_on_c, 0, 83, 64
3, 5556, Note_on_c, 0, 83, 0
3, 5556, Note_on_c, 0, 82, 64
3, 5562, Note_on_c, 0, 82, 0
3, 5562, Note_on_c, 0, 83, 64
3, 5568, Note_on_c, 0, 83, 0
3, 5568, Note_on_c, 0, 82, 64
3, 5574, Note_on_c, 0, 82, 0
3, 5574, Note_on_c, 0, 83, 64
3, 5580, Note_on_c, 0, 83, 0
3, 5580, Note_on_c, 0, 82, 64
3, 5586, Note_on_c, 0, 82, 0
3, 5586, Note_on_c, 0, 83, 64
3, 5592, Note_on_c, 0, 83, 0
3, 5592, Note_on_c, 0, 82, 64
3, 5598, Note_on_c, 0, 82, 0
3, 5598, Note_on_c, 0, 83, 64
3, 5604, Note_on_c, 0, 83, 0
3, 5604, Note_on_c, 0, 82, 64
3, 5610, Note_on_c, 0, 82, 0
3, 5610, Note_on_c, 0, 83, 64
3, 5616, Note_on_c, 0, 83, 0
3, 5616, Note_on_c, 0, 82, 64
3, 5622, Note_on_c, 0, 82, 0
3, 5622, Note_on_c, 0, 83, 64
3, 5628, Note_on_c, 0, 83, 0
3, 5628, Note_on_c, 0, 82, 64
3, 5634, Note_on_c, 0, 82, 0
3, 5634, Note_on_c, 0, 83, 64
3, 5640, Note_on_c, 0, 83, 0
3, 5640, Note_on_c, 0, 82, 64
3, 5646, Note_on_c, 0, 82, 0
3, 5646, Note_on_c, 0, 83, 64
3, 5649, Note_on_c, 0, 73, 0
3, 5652, Note_on_c, 0, 83, 0
3, 5652, Note_on_c, 0, 82, 64
3, 5658, Note_on_c, 0, 82, 0
3, 5658, Note_on_c, 0, 83, 64
3, 5664, Note_on_c, 0, 83, 0
3, 5760, Note_on_c, 0, 71, 64
3, 5760, Note_on_c, 0, 74, 64
3, 5805, Note_on_c, 0, 74, 0
3, 5805, Note_on_c, 0, 71, 0
3, 5808, Note_on_c, 0, 74, 64
3, 5808, Note_on_c, 0, 78, 64
3, 5853, Note_on_c, 0, 78, 0
3, 5853, Note_on_c, 0, 74, 0
3, 5856, Note_on_c, 0, 74, 64
3, 5856, Note_on_c, 0, 78, 64
3, 5901, Note_on_c, 0, 78, 0
3, 5901, Note_on_c, 0, 74, 0
3, 5904, Note_on_c, 0, 70, 64
3, 5904, Note_on_c, 0, 76, 64
3, 5949, Note_on_c, 0, 76, 0
3, 5949, Note_on_c, 0, 70, 0
3, 5952, Note_on_c, 0, 73, 64
3, 5952, Note_on_c, 0, 76, 64
3, 5997, Note_on_c, 0, 76, 0
3, 5997, Note_on_c, 0, 73, 0
3, 6000, Note_on_c, 0, 66, 64
3, 6000, Note_on_c, 0, 74, 64
3, 6045, Note_on_c, 0, 74, 0
3, 6045, Note_on_c, 0, 66, 0
3, 6048, Note_on_c, 0, 66, 64
3, 6048, Note_on_c, 0, 74, 64
3, 6181, Note_on_c, 0, 66, 0
3, 6192, Note_on_c, 0, 68, 64
3, 6237, Note_on_c, 0, 68, 0
3, 6240, Note_on_c, 0, 66, 64
3, 6285, Note_on_c, 0, 66, 0
3, 6288, Note_on_c, 0, 68, 64
3, 6333, Note_on_c, 0, 68, 0
3, 6336, Note_on_c, 0, 65, 64
3, 6425, Note_on_c, 0, 65, 0
3, 6432, Note_on_c, 0, 65, 64
3, 6455, Note_on_c, 0, 65, 0
3, 6456, Note_on_c, 0, 66, 64
3, 6479, Note_on_c, 0, 66, 0
3, 6480, Note_on_c, 0, 65, 64
3, 6503, Note_on_c, 0, 65, 0
3, 6504, Note_on_c, 0, 66, 64
3, 6527, Note_on_c, 0, 66, 0
3, 6528, Note_on_c, 0, 66, 64
3, 6534, Note_on_c, 0, 66, 0
3, 6534, Note_on_c, 0, 68, 64
3, 6540, Note_on_c, 0, 68, 0
3, 6540, Note_on_c, 0, 66, 64
3, 6546, Note_on_c, 0, 66, 0
3, 6546, Note_on_c, 0, 68, 64
3, 6552, Note_on_c, 0, 68, 0
3, 6552, Note_on_c, 0, 66, 64
3, 6558, Note_on_c, 0, 66, 0
3, 6558, Note_on_c, 0, 68, 64
3, 6564, Note_on_c, 0, 68, 0
3, 6564, Note_on_c, 0, 66, 64
3, 6570, Note_on_c, 0, 66, 0
3, 6570, Note_on_c, 0, 68, 64
3, 6576, Note_on_c, 0, 68, 0
3, 6576, Note_on_c, 0, 66, 64
3, 6582, Note_on_c, 0, 66, 0
3, 6582, Note_on_c, 0, 68, 64
3, 6588, Note_on_c, 0, 68, 0
3, 6588, Note_on_c, 0, 66, 64
3, 6594, Note_on_c, 0, 66, 0
3, 6594, Note_on_c, 0, 68, 64
3, 6600, Note_on_c, 0, 68, 0
3, 6600, Note_on_c, 0, 65, 64
3, 6601, Note_on_c, 0, 74, 0
3, 6612, Note_on_c, 0, 65, 0
3, 6612, Note_on_c, 0, 66, 64
3, 6624, Note_on_c, 0, 66, 0
3, 6624, Note_on_c, 0, 68, 64
3, 6624, Note_on_c, 0, 76, 64
3, 6669, Note_on_c, 0, 76, 0
3, 6669, Note_on_c, 0, 68, 0
3, 6672, Note_on_c, 0, 65, 64
3, 6672, Note_on_c, 0, 73, 64
3, 6717, Note_on_c, 0, 73, 0
3, 6717, Note_on_c, 0, 65, 0
3, 6720, Note_on_c, 0, 65, 64
3, 6720, Note_on_c, 0, 73, 64
3, 6765, Note_on_c, 0, 73, 0
3, 6765, Note_on_c, 0, 65, 0
3, 6768, Note_on_c, 0, 61, 64
3, 6768, Note_on_c, 0, 71, 64
3, 6813, Note_on_c, 0, 71, 0
3, 6813, Note_on_c, 0, 61, 0
3, 6816, Note_on_c, 0, 61, 64
3, 6816, Note_on_c, 0, 71, 64
3, 6861, Note_on_c, 0, 71, 0
3, 6861, Note_on_c, 0, 61, 0
3, 6864, Note_on_c, 0, 66, 64
3, 6864, Note_on_c, 0, 69, 64
3, 6909, Note_on_c, 0, 69, 0
3, 6909, Note_on_c, 0, 66, 0
3, 6912, Note_on_c, 0, 66, 64
3, 6912, Note_on_c, 0, 69, 64
3, 7001, Note_on_c, 0, 69, 0
3, 7045, Note_on_c, 0, 66, 0
3, 7056, Note_on_c, 0, 69, 64
3, 7101, Note_on_c, 0, 69, 0
3, 7104, Note_on_c, 0, 68, 64
3, 7149, Note_on_c, 0, 68, 0
3, 7152, Note_on_c, 0, 69, 64
3, 7197, Note_on_c, 0, 69, 0
3, 7200, Note_on_c, 0, 66, 64
3, 7344, Note_on_c, 0, 78, 64
3, 7389, Note_on_c, 0, 78, 0
3, 7392, Note_on_c, 0, 76, 64
3, 7437, Note_on_c, 0, 76, 0
3, 7440, Note_on_c, 0, 78, 64
3, 7485, Note_on_c, 0, 78, 0
3, 7488, Note_on_c, 0, 74, 64
3, 7621, Note_on_c, 0, 66, 0
3, 7629, Note_on_c, 0, 74, 0
3, 7632, Note_on_c, 0, 69, 64
3, 7632, Note_on_c, 0, 73, 64
3, 7677, Note_on_c, 0, 73, 0
3, 7677, Note_on_c, 0, 69, 0
3, 7680, Note_on_c, 0, 68, 64
3, 7680, Note_on_c, 0, 78, 64
3, 7725, Note_on_c, 0, 68, 0
3, 7728, Note_on_c, 0, 69, 64
3, 7773, Note_on_c, 0, 69, 0
3, 7776, Note_on_c, 0, 71, 64
3, 7821, Note_on_c, 0, 78, 0
3, 7824, Note_on_c, 0, 76, 64
3, 7865, Note_on_c, 0, 71, 0
3, 7869, Note_on_c, 0, 76, 0
3, 7872, Note_on_c, 0, 66, 64
3, 7872, Note_on_c, 0, 74, 64
3, 7917, Note_on_c, 0, 74, 0
3, 7920, Note_on_c, 0, 73, 64
3, 7965, Note_on_c, 0, 73, 0
3, 7968, Note_on_c, 0, 71, 64
3, 8013, Note_on_c, 0, 71, 0
3, 8016, Note_on_c, 0, 69, 64
3, 8049, Note_on_c, 0, 66, 0
3, 8061, Note_on_c, 0, 69, 0
3, 8064, Note_on_c, 0, 68, 64
3, 8112, Note_on_c, 0, 56, 64
3, 8157, Note_on_c, 0, 56, 0
3, 8160, Note_on_c, 0, 61, 64
3, 8205, Note_on_c, 0, 61, 0
3, 8208, Note_on_c, 0, 63, 64
3, 8253, Note_on_c, 0, 63, 0
3, 8256, Note_on_c, 0, 66, 64
3, 8301, Note_on_c, 0, 66, 0
3, 8304, Note_on_c, 0, 65, 64
3, 8329, Note_on_c, 0, 68, 0
3, 8349, Note_on_c, 0, 65, 0
3, 8352, Note_on_c, 0, 66, 64
3, 8352, Note_on_c, 0, 69, 64
3, 8485, Note_on_c, 0, 69, 0
3, 8496, Note_on_c, 0, 73, 64
3, 8541, Note_on_c, 0, 73, 0
3, 8544, Note_on_c, 0, 78, 64
3, 8589, Note_on_c, 0, 78, 0
3, 8589, Note_on_c, 0, 66, 0
3, 8592, Note_on_c, 0, 68, 64
3, 8592, Note_on_c, 0, 77, 64
3, 8637, Note_on_c, 0, 77, 0
3, 8637, Note_on_c, 0, 68, 0
3, 8640, Note_on_c, 0, 69, 64
3, 8640, Note_on_c, 0, 78, 64
3, 8729, Note_on_c, 0, 78, 0
3, 8729, Note_on_c, 0, 69, 0
3, 8976, Note_on_c, 0, 69, 64
3, 8976, Note_on_c, 0, 78, 64
3, 9021, Note_on_c, 0, 78, 0
3, 9021, Note_on_c, 0, 69, 0
3, 9024, Note_on_c, 0, 69, 64
3, 9024, Note_on_c, 0, 78, 64
3, 9069, Note_on_c, 0, 78, 0
3, 9069, Note_on_c, 0, 69, 0
3, 9072, Note_on_c, 0, 73, 64
3, 9072, Note_on_c, 0, 76, 64
3, 9117, Note_on_c, 0, 76, 0
3, 9117, Note_on_c, 0, 73, 0
3, 9120, Note_on_c, 0, 73, 64
3, 9120, Note_on_c, 0, 76, 64
3, 9165, Note_on_c, 0, 76, 0
3, 9165, Note_on_c, 0, 73, 0
3, 9168, Note_on_c, 0, 66, 64
3, 9168, Note_on_c, 0, 74, 64
3, 9213, Note_on_c, 0, 74, 0
3, 9213, Note_on_c, 0, 66, 0
3, 9216, Note_on_c, 0, 66, 64
3, 9216, Note_on_c, 0, 74, 64
3, 9305, Note_on_c, 0, 74, 0
3, 9312, Note_on_c, 0, 78, 64
3, 9357, Note_on_c, 0, 78, 0
3, 9360, Note_on_c, 0, 77, 64
3, 9393, Note_on_c, 0, 66, 0
3, 9405, Note_on_c, 0, 77, 0
3, 9408, Note_on_c, 0, 69, 64
3, 9408, Note_on_c, 0, 78, 64
3, 9497, Note_on_c, 0, 69, 0
3, 9504, Note_on_c, 0, 71, 64
3, 9593, Note_on_c, 0, 71, 0
3, 9593, Note_on_c, 0, 78, 0
3, 9600, Note_on_c, 0, 65, 64
3, 9600, Note_on_c, 0, 76, 64
3, 9612, Note_on_c, 0, 76, 0
3, 9612, Note_on_c, 0, 74, 64
3, 9689, Note_on_c, 0, 65, 0
3, 9690, Note_on_c, 0, 74, 0
3, 9696, Note_on_c, 0, 68, 64
3, 9696, Note_on_c, 0, 73, 64
3, 9708, Note_on_c, 0, 73, 0
3, 9708, Note_on_c, 0, 71, 64
3, 9785, Note_on_c, 0, 68, 0
3, 9786, Note_on_c, 0, 71, 0
3, 9792, Note_on_c, 0, 61, 64
3, 9792, Note_on_c, 0, 68, 64
3, 9881, Note_on_c, 0, 68, 0
3, 9888, Note_on_c, 0, 71, 64
3, 9925, Note_on_c, 0, 61, 0
3, 9936, Note_on_c, 0, 68, 64
3, 9981, Note_on_c, 0, 68, 0
3, 9984, Note_on_c, 0, 66, 64
3, 10029, Note_on_c, 0, 66, 0
3, 10032, Note_on_c, 0, 68, 64
3, 10077, Note_on_c, 0, 68, 0
3, 10080, Note_on_c, 0, 65, 64
3, 10169, Note_on_c, 0, 71, 0
3, 10176, Note_on_c, 0, 69, 64
3, 10221, Note_on_c, 0, 69, 0
3, 10224, Note_on_c, 0, 68, 64
3, 10257, Note_on_c, 0, 65, 0
3, 10269, Note_on_c, 0, 68, 0
3, 10272, Note_on_c, 0, 73, 64
3, 10320, Note_on_c, 0, 71, 64
3, 10365, Note_on_c, 0, 71, 0
3, 10368, Note_on_c, 0, 69, 64
3, 10413, Note_on_c, 0, 73, 0
3, 10416, Note_on_c, 0, 78, 64
3, 10457, Note_on_c, 0, 69, 0
3, 10461, Note_on_c, 0, 78, 0
3, 10464, Note_on_c, 0, 71, 64
3, 10464, Note_on_c, 0, 77, 64
3, 10509, Note_on_c, 0, 77, 0
3, 10512, Note_on_c, 0, 80, 64
3, 10553, Note_on_c, 0, 71, 0
3, 10557, Note_on_c, 0, 80, 0
3, 10560, Note_on_c, 0, 78, 64
3, 10608, Note_on_c, 0, 74, 64
3, 10653, Note_on_c, 0, 74, 0
3, 10656, Note_on_c, 0, 73, 64
3, 10679, Note_on_c, 0, 78, 0
3, 10680, Note_on_c, 0, 77, 64
3, 10703, Note_on_c, 0, 77, 0
3, 10704, Note_on_c, 0, 78, 64
3, 10727, Note_on_c, 0, 78, 0
3, 10728, Note_on_c, 0, 80, 64
3, 10751, Note_on_c, 0, 80, 0
3, 10752, Note_on_c, 0, 77, 64
3, 10833, Note_on_c, 0, 73, 0
3, 10848, Note_on_c, 0, 71, 64
3, 10885, Note_on_c, 0, 77, 0
3, 10896, Note_on_c, 0, 78, 64
3, 10937, Note_on_c, 0, 71, 0
3, 10941, Note_on_c, 0, 78, 0
3, 10944, Note_on_c, 0, 69, 64
3, 10944, Note_on_c, 0, 78, 64
3, 11277, Note_on_c, 0, 78, 0
3, 11277, Note_on_c, 0, 69, 0
3, 11280, Note_on_c, 0, 72, 64
3, 11280, Note_on_c, 0, 81, 64
3, 11325, Note_on_c, 0, 81, 0
3, 11325, Note_on_c, 0, 72, 0
3, 11328, Note_on_c, 0, 72, 64
3, 11328, Note_on_c, 0, 81, 64
3, 11373, Note_on_c, 0, 81, 0
3, 11373, Note_on_c, 0, 72, 0
3, 11376, Note_on_c, 0, 71, 64
3, 11376, Note_on_c, 0, 79, 64
3, 11421, Note_on_c, 0, 79, 0
3, 11421, Note_on_c, 0, 71, 0
3, 11424, Note_on_c, 0, 71, 64
3, 11424, Note_on_c, 0, 79, 64
3, 11469, Note_on_c, 0, 79, 0
3, 11469, Note_on_c, 0, 71, 0
3, 11472, Note_on_c, 0, 69, 64
3, 11472, Note_on_c, 0, 78, 64
3, 11517, Note_on_c, 0, 78, 0
3, 11517, Note_on_c, 0, 69, 0
3, 11520, Note_on_c, 0, 69, 64
3, 11520, Note_on_c, 0, 78, 64
3, 11609, Note_on_c, 0, 69, 0
3, 11616, Note_on_c, 0, 66, 64
3, 11653, Note_on_c, 0, 78, 0
3, 11664, Note_on_c, 0, 78, 64
3, 11709, Note_on_c, 0, 78, 0
3, 11712, Note_on_c, 0, 76, 64
3, 11757, Note_on_c, 0, 76, 0
3, 11760, Note_on_c, 0, 78, 64
3, 11805, Note_on_c, 0, 78, 0
3, 11808, Note_on_c, 0, 75, 64
3, 11897, Note_on_c, 0, 75, 0
3, 11897, Note_on_c, 0, 66, 0
3, 11904, Note_on_c, 0, 67, 64
3, 11904, Note_on_c, 0, 76, 64
3, 11993, Note_on_c, 0, 76, 0
3, 11993, Note_on_c, 0, 67, 0
3, 12000, Note_on_c, 0, 69, 64
3, 12000, Note_on_c, 0, 78, 64
3, 12023, Note_on_c, 0, 78, 0
3, 12024, Note_on_c, 0, 75, 64
3, 12047, Note_on_c, 0, 75, 0
3, 12048, Note_on_c, 0, 76, 64
3, 12089, Note_on_c, 0, 69, 0
3, 12093, Note_on_c, 0, 76, 0
3, 12096, Note_on_c, 0, 67, 64
3, 12096, Note_on_c, 0, 76, 64
3, 12229, Note_on_c, 0, 76, 0
3, 12240, Note_on_c, 0, 79, 64
3, 12285, Note_on_c, 0, 79, 0
3, 12288, Note_on_c, 0, 78, 64
3, 12333, Note_on_c, 0, 78, 0
3, 12336, Note_on_c, 0, 79, 64
3, 12381, Note_on_c, 0, 79, 0
3, 12384, Note_on_c, 0, 76, 64
3, 12429, Note_on_c, 0, 76, 0
3, 12432, Note_on_c, 0, 74, 64
3, 12477, Note_on_c, 0, 74, 0
3, 12480, Note_on_c, 0, 73, 64
3, 12517, Note_on_c, 0, 67, 0
3, 12528, Note_on_c, 0, 64, 64
3, 12573, Note_on_c, 0, 64, 0
3, 12576, Note_on_c, 0, 62, 64
3, 12621, Note_on_c, 0, 62, 0
3, 12624, Note_on_c, 0, 64, 64
3, 12669, Note_on_c, 0, 64, 0
3, 12672, Note_on_c, 0, 61, 64
3, 12761, Note_on_c, 0, 61, 0
3, 12761, Note_on_c, 0, 73, 0
3, 12768, Note_on_c, 0, 62, 64
3, 12768, Note_on_c, 0, 71, 64
3, 12857, Note_on_c, 0, 71, 0
3, 12857, Note_on_c, 0, 62, 0
3, 12864, Note_on_c, 0, 64, 64
3, 12864, Note_on_c, 0, 73, 64
3, 12953, Note_on_c, 0, 73, 0
3, 12953, Note_on_c, 0, 64, 0
3, 12960, Note_on_c, 0, 61, 64
3, 12960, Note_on_c, 0, 70, 64
3, 13049, Note_on_c, 0, 70, 0
3, 13049, Note_on_c, 0, 61, 0
3, 13056, Note_on_c, 0, 62, 64
3, 13056, Note_on_c, 0, 71, 64
3, 13145, Note_on_c, 0, 71, 0
3, 13145, Note_on_c, 0, 62, 0
3, 13152, Note_on_c, 0, 64, 64
3, 13152, Note_on_c, 0, 73, 64
3, 13241, Note_on_c, 0, 73, 0
3, 13241, Note_on_c, 0, 64, 0
3, 13248, Note_on_c, 0, 66, 64
3, 13248, Note_on_c, 0, 74, 64
3, 13337, Note_on_c, 0, 74, 0
3, 13381, Note_on_c, 0, 66, 0
3, 13392, Note_on_c, 0, 74, 64
3, 13437, Note_on_c, 0, 74, 0
3, 13440, Note_on_c, 0, 73, 64
3, 13485, Note_on_c, 0, 73, 0
3, 13488, Note_on_c, 0, 74, 64
3, 13533, Note_on_c, 0, 74, 0
3, 13536, Note_on_c, 0, 71, 64
3, 13680, Note_on_c, 0, 83, 64
3, 13725, Note_on_c, 0, 83, 0
3, 13728, Note_on_c, 0, 81, 64
3, 13773, Note_on_c, 0, 81, 0
3, 13776, Note_on_c, 0, 83, 64
3, 13821, Note_on_c, 0, 83, 0
3, 13824, Note_on_c, 0, 79, 64
3, 13913, Note_on_c, 0, 79, 0
3, 13913, Note_on_c, 0, 71, 0
3, 13920, Note_on_c, 0, 76, 64
3, 13932, Note_on_c, 0, 76, 0
3, 13932, Note_on_c, 0, 78, 64
3, 13944, Note_on_c, 0, 78, 0
3, 13944, Note_on_c, 0, 76, 64
3, 14061, Note_on_c, 0, 76, 0
3, 14064, Note_on_c, 0, 74, 64
3, 14109, Note_on_c, 0, 74, 0
3, 14112, Note_on_c, 0, 61, 64
3, 14112, Note_on_c, 0, 73, 64
3, 14157, Note_on_c, 0, 73, 0
3, 14157, Note_on_c, 0, 61, 0
3, 14160, Note_on_c, 0, 62, 64
3, 14160, Note_on_c, 0, 71, 64
3, 14205, Note_on_c, 0, 71, 0
3, 14205, Note_on_c, 0, 62, 0
3, 14208, Note_on_c, 0, 64, 64
3, 14208, Note_on_c, 0, 70, 64
3, 14253, Note_on_c, 0, 70, 0
3, 14256, Note_on_c, 0, 71, 64
3, 14297, Note_on_c, 0, 64, 0
3, 14301, Note_on_c, 0, 71, 0
3, 14304, Note_on_c, 0, 73, 64
3, 14304, Note_on_c, 0, 73, 64
3, 14349, Note_on_c, 0, 73, 0
3, 14352, Note_on_c, 0, 74, 64
3, 14397, Note_on_c, 0, 74, 0
3, 14400, Note_on_c, 0, 76, 64
3, 14445, Note_on_c, 0, 73, 0
3, 14448, Note_on_c, 0, 71, 64
3, 14493, Note_on_c, 0, 71, 0
3, 14496, Note_on_c, 0, 70, 64
3, 14533, Note_on_c, 0, 76, 0
3, 14544, Note_on_c, 0, 74, 64
3, 14589, Note_on_c, 0, 74, 0
3, 14592, Note_on_c, 0, 76, 64
3, 14637, Note_on_c, 0, 76, 0
3, 14640, Note_on_c, 0, 73, 64
3, 14673, Note_on_c, 0, 70, 0
3, 14685, Note_on_c, 0, 73, 0
3, 14688, Note_on_c, 0, 71, 64
3, 14688, Note_on_c, 0, 78, 64
3, 14733, Note_on_c, 0, 71, 0
3, 14736, Note_on_c, 0, 73, 64
3, 14781, Note_on_c, 0, 73, 0
3, 14784, Note_on_c, 0, 74, 64
3, 14821, Note_on_c, 0, 78, 0
3, 14832, Note_on_c, 0, 78, 64
3, 14873, Note_on_c, 0, 74, 0
3, 14877, Note_on_c, 0, 78, 0
3, 14880, Note_on_c, 0, 70, 64
3, 14880, Note_on_c, 0, 76, 64
3, 14925, Note_on_c, 0, 76, 0
3, 14928, Note_on_c, 0, 78, 64
3, 14969, Note_on_c, 0, 70, 0
3, 14973, Note_on_c, 0, 78, 0
3, 14976, Note_on_c, 0, 71, 64
3, 14976, Note_on_c, 0, 74, 64
3, 15065, Note_on_c, 0, 74, 0
3, 15065, Note_on_c, 0, 71, 0
3, 15312, Note_on_c, 0, 62, 64
3, 15312, Note_on_c, 0, 71, 64
3, 15357, Note_on_c, 0, 71, 0
3, 15357, Note_on_c, 0, 62, 0
3, 15360, Note_on_c, 0, 62, 64
3, 15360, Note_on_c, 0, 71, 64
3, 15405, Note_on_c, 0, 71, 0
3, 15405, Note_on_c, 0, 62, 0
3, 15408, Note_on_c, 0, 66, 64
3, 15408, Note_on_c, 0, 69, 64
3, 15453, Note_on_c, 0, 69, 0
3, 15453, Note_on_c, 0, 66, 0
3, 15456, Note_on_c, 0, 66, 64
3, 15456, Note_on_c, 0, 69, 64
3, 15501, Note_on_c, 0, 69, 0
3, 15501, Note_on_c, 0, 66, 0
3, 15504, Note_on_c, 0, 59, 64
3, 15504, Note_on_c, 0, 67, 64
3, 15549, Note_on_c, 0, 67, 0
3, 15549, Note_on_c, 0, 59, 0
3, 15552, Note_on_c, 0, 59, 64
3, 15552, Note_on_c, 0, 67, 64
3, 15641, Note_on_c, 0, 67, 0
3, 15648, Note_on_c, 0, 71, 64
3, 15693, Note_on_c, 0, 71, 0
3, 15696, Note_on_c, 0, 70, 64
3, 15729, Note_on_c, 0, 59, 0
3, 15741, Note_on_c, 0, 70, 0
3, 15744, Note_on_c, 0, 62, 64
3, 15744, Note_on_c, 0, 71, 64
3, 15833, Note_on_c, 0, 62, 0
3, 15840, Note_on_c, 0, 64, 64
3, 15929, Note_on_c, 0, 64, 0
3, 15929, Note_on_c, 0, 71, 0
3, 15936, Note_on_c, 0, 67, 64
3, 15936, Note_on_c, 0, 69, 64
3, 15948, Note_on_c, 0, 69, 0
3, 15948, Note_on_c, 0, 67, 64
3, 16026, Note_on_c, 0, 67, 0
3, 16026, Note_on_c, 0, 67, 0
3, 16032, Note_on_c, 0, 66, 64
3, 16044, Note_on_c, 0, 66, 0
3, 16044, Note_on_c, 0, 64, 64
3, 16122, Note_on_c, 0, 64, 0
3, 16128, Note_on_c, 0, 61, 64
3, 16217, Note_on_c, 0, 61, 0
3, 16224, Note_on_c, 0, 64, 64
3, 16505, Note_on_c, 0, 64, 0
3, 16512, Note_on_c, 0, 62, 64
3, 16557, Note_on_c, 0, 62, 0
3, 16560, Note_on_c, 0, 61, 64
3, 16605, Note_on_c, 0, 61, 0
3, 16656, Note_on_c, 0, 64, 64
3, 16701, Note_on_c, 0, 64, 0
3, 16704, Note_on_c, 0, 62, 64
3, 16793, Note_on_c, 0, 62, 0
3, 16800, Note_on_c, 0, 64, 64
3, 16889, Note_on_c, 0, 64, 0
3, 16944, Note_on_c, 0, 67, 64
3, 16989, Note_on_c, 0, 67, 0
3, 16992, Note_on_c, 0, 66, 64
3, 17169, Note_on_c, 0, 66, 0
3, 17184, Note_on_c, 0, 64, 64
3, 17273, Note_on_c, 0, 64, 0
3, 17280, Note_on_c, 0, 62, 64
3, 17280, Note_on_c, 0, 71, 64
3, 17413, Note_on_c, 0, 71, 0
3, 17424, Note_on_c, 0, 74, 64
3, 17457, Note_on_c, 0, 62, 0
3, 17469, Note_on_c, 0, 74, 0
3, 17472, Note_on_c, 0, 64, 64
3, 17472, Note_on_c, 0, 73, 64
3, 17517, Note_on_c, 0, 73, 0
3, 17520, Note_on_c, 0, 76, 64
3, 17543, Note_on_c, 0, 76, 0
3, 17544, Note_on_c, 0, 75, 64
3, 17561, Note_on_c, 0, 64, 0
3, 17567, Note_on_c, 0, 75, 0
3, 17568, Note_on_c, 0, 66, 64
3, 17568, Note_on_c, 0, 75, 64
3, 17613, Note_on_c, 0, 75, 0
3, 17613, Note_on_c, 0, 66, 0
3, 17616, Note_on_c, 0, 67, 64
3, 17616, Note_on_c, 0, 76, 64
3, 17661, Note_on_c, 0, 76, 0
3, 17661, Note_on_c, 0, 67, 0
3, 17664, Note_on_c, 0, 67, 64
3, 17664, Note_on_c, 0, 76, 64
3, 17709, Note_on_c, 0, 76, 0
3, 17709, Note_on_c, 0, 67, 0
3, 17712, Note_on_c, 0, 69, 64
3, 17712, Note_on_c, 0, 78, 64
3, 17757, Note_on_c, 0, 78, 0
3, 17757, Note_on_c, 0, 69, 0
3, 17760, Note_on_c, 0, 69, 64
3, 17760, Note_on_c, 0, 78, 64
3, 17805, Note_on_c, 0, 78, 0
3, 17805, Note_on_c, 0, 69, 0
3, 17808, Note_on_c, 0, 71, 64
3, 17808, Note_on_c, 0, 79, 64
3, 17853, Note_on_c, 0, 79, 0
3, 17853, Note_on_c, 0, 71, 0
3, 17856, Note_on_c, 0, 71, 64
3, 17856, Note_on_c, 0, 79, 64
3, 17989, Note_on_c, 0, 79, 0
3, 18000, Note_on_c, 0, 76, 64
3, 18045, Note_on_c, 0, 76, 0
3, 18048, Note_on_c, 0, 75, 64
3, 18093, Note_on_c, 0, 75, 0
3, 18096, Note_on_c, 0, 76, 64
3, 18121, Note_on_c, 0, 71, 0
3, 18141, Note_on_c, 0, 76, 0
3, 18144, Note_on_c, 0, 72, 64
3, 18144, Note_on_c, 0, 81, 64
3, 18189, Note_on_c, 0, 81, 0
3, 18189, Note_on_c, 0, 72, 0
3, 18192, Note_on_c, 0, 71, 64
3, 18192, Note_on_c, 0, 79, 64
3, 18237, Note_on_c, 0, 79, 0
3, 18237, Note_on_c, 0, 71, 0
3, 18240, Note_on_c, 0, 69, 64
3, 18240, Note_on_c, 0, 78, 64
3, 18285, Note_on_c, 0, 78, 0
3, 18288, Note_on_c, 0, 76, 64
3, 18333, Note_on_c, 0, 76, 0
3, 18336, Note_on_c, 0, 78, 64
3, 18381, Note_on_c, 0, 78, 0
3, 18384, Note_on_c, 0, 75, 64
3, 18417, Note_on_c, 0, 69, 0
3, 18429, Note_on_c, 0, 75, 0
3, 18432, Note_on_c, 0, 67, 64
3, 18432, Note_on_c, 0, 76, 64
3, 19097, Note_on_c, 0, 76, 0
3, 19097, Note_on_c, 0, 67, 0
3, 19584, Note_on_c, 0, 66, 64
3, 19584, Note_on_c, 0, 71, 64
3, 19673, Note_on_c, 0, 71, 0
3, 19673, Note_on_c, 0, 66, 0
3, 19680, Note_on_c, 0, 64, 64
3, 19680, Note_on_c, 0, 70, 64
3, 19725, Note_on_c, 0, 70, 0
3, 19728, Note_on_c, 0, 71, 64
3, 19769, Note_on_c, 0, 64, 0
3, 19773, Note_on_c, 0, 71, 0
3, 19776, Note_on_c, 0, 67, 64
3, 19776, Note_on_c, 0, 73, 64
3, 19821, Note_on_c, 0, 73, 0
3, 19824, Note_on_c, 0, 74, 64
3, 19847, Note_on_c, 0, 74, 0
3, 19848, Note_on_c, 0, 76, 64
3, 19865, Note_on_c, 0, 67, 0
3, 19871, Note_on_c, 0, 76, 0
3, 19872, Note_on_c, 0, 66, 64
3, 19872, Note_on_c, 0, 74, 64
3, 19917, Note_on_c, 0, 66, 0
3, 19920, Note_on_c, 0, 70, 64
3, 19965, Note_on_c, 0, 70, 0
3, 19968, Note_on_c, 0, 71, 64
3, 20005, Note_on_c, 0, 74, 0
3, 20016, Note_on_c, 0, 76, 64
3, 20057, Note_on_c, 0, 71, 0
3, 20061, Note_on_c, 0, 76, 0
3, 20064, Note_on_c, 0, 64, 64
3, 20064, Note_on_c, 0, 73, 64
3, 20153, Note_on_c, 0, 73, 0
3, 20153, Note_on_c, 0, 64, 0
3, 20160, Note_on_c, 0, 66, 64
3, 20160, Note_on_c, 0, 62, 64
3, 20160, Note_on_c, 0, 71, 64
3, 20690, Note_on_c, 0, 71, 0
3, 20690, Note_on_c, 0, 62, 0
3, 20736, Note_on_c, 0, 66, 0
3, 20736, End_track
4, 0, Start_track
4, 0, MIDI_port, 0
4, 0, Title_t, "Clavier (LH)"
4, 0, Program_c, 0, 6
4, 0, Control_c, 0, 7, 127
4, 0, Note_on_c, 0, 47, 64
4, 45, Note_on_c, 0, 47, 0
4, 48, Note_on_c, 0, 50, 64
4, 93, Note_on_c, 0, 50, 0
4, 96, Note_on_c, 0, 54, 64
4, 141, Note_on_c, 0, 54, 0
4, 144, Note_on_c, 0, 59, 64
4, 189, Note_on_c, 0, 59, 0
4, 192, Note_on_c, 0, 58, 64
4, 237, Note_on_c, 0, 58, 0
4, 240, Note_on_c, 0, 59, 64
4, 285, Note_on_c, 0, 59, 0
4, 288, Note_on_c, 0, 47, 64
4, 377, Note_on_c, 0, 47, 0
4, 576, Note_on_c, 0, 49, 64
4, 621, Note_on_c, 0, 49, 0
4, 624, Note_on_c, 0, 52, 64
4, 669, Note_on_c, 0, 52, 0
4, 672, Note_on_c, 0, 55, 64
4, 717, Note_on_c, 0, 55, 0
4, 720, Note_on_c, 0, 59, 64
4, 765, Note_on_c, 0, 59, 0
4, 768, Note_on_c, 0, 58, 64
4, 813, Note_on_c, 0, 58, 0
4, 816, Note_on_c, 0, 59, 64
4, 861, Note_on_c, 0, 59, 0
4, 864, Note_on_c, 0, 42, 64
4, 953, Note_on_c, 0, 42, 0
4, 1152, Note_on_c, 0, 47, 64
4, 1197, Note_on_c, 0, 47, 0
4, 1200, Note_on_c, 0, 59, 64
4, 1245, Note_on_c, 0, 59, 0
4, 1248, Note_on_c, 0, 59, 64
4, 1293, Note_on_c, 0, 59, 0
4, 1296, Note_on_c, 0, 57, 64
4, 1341, Note_on_c, 0, 57, 0
4, 1344, Note_on_c, 0, 57, 64
4, 1389, Note_on_c, 0, 57, 0
4, 1392, Note_on_c, 0, 55, 64
4, 1437, Note_on_c, 0, 55, 0
4, 1440, Note_on_c, 0, 55, 64
4, 1529, Note_on_c, 0, 55, 0
4, 1536, Note_on_c, 0, 43, 64
4, 1625, Note_on_c, 0, 43, 0
4, 1632, Note_on_c, 0, 42, 64
4, 1721, Note_on_c, 0, 42, 0
4, 1728, Note_on_c, 0, 40, 64
4, 1817, Note_on_c, 0, 40, 0
4, 1824, Note_on_c, 0, 52, 64
4, 1913, Note_on_c, 0, 52, 0
4, 1920, Note_on_c, 0, 54, 64
4, 2009, Note_on_c, 0, 54, 0
4, 2016, Note_on_c, 0, 56, 64
4, 2105, Note_on_c, 0, 56, 0
4, 2112, Note_on_c, 0, 58, 64
4, 2201, Note_on_c, 0, 58, 0
4, 2208, Note_on_c, 0, 59, 64
4, 2297, Note_on_c, 0, 59, 0
4, 2304, Note_on_c, 0, 52, 64
4, 2393, Note_on_c, 0, 52, 0
4, 2592, Note_on_c, 0, 50, 64
4, 2681, Note_on_c, 0, 50, 0
4, 2880, Note_on_c, 0, 46, 64
4, 2925, Note_on_c, 0, 46, 0
4, 2928, Note_on_c, 0, 49, 64
4, 2973, Note_on_c, 0, 49, 0
4, 2976, Note_on_c, 0, 54, 64
4, 3021, Note_on_c, 0, 54, 0
4, 3024, Note_on_c, 0, 58, 64
4, 3069, Note_on_c, 0, 58, 0
4, 3072, Note_on_c, 0, 56, 64
4, 3117, Note_on_c, 0, 56, 0
4, 3120, Note_on_c, 0, 58, 64
4, 3165, Note_on_c, 0, 58, 0
4, 3168, Note_on_c, 0, 45, 64
4, 3257, Note_on_c, 0, 45, 0
4, 3456, Note_on_c, 0, 43, 64
4, 3501, Note_on_c, 0, 43, 0
4, 3504, Note_on_c, 0, 47, 64
4, 3549, Note_on_c, 0, 47, 0
4, 3552, Note_on_c, 0, 52, 64
4, 3597, Note_on_c, 0, 52, 0
4, 3600, Note_on_c, 0, 55, 64
4, 3645, Note_on_c, 0, 55, 0
4, 3648, Note_on_c, 0, 54, 64
4, 3693, Note_on_c, 0, 54, 0
4, 3696, Note_on_c, 0, 55, 64
4, 3741, Note_on_c, 0, 55, 0
4, 3744, Note_on_c, 0, 42, 64
4, 3833, Note_on_c, 0, 42, 0
4, 4032, Note_on_c, 0, 40, 64
4, 4077, Note_on_c, 0, 40, 0
4, 4080, Note_on_c, 0, 43, 64
4, 4125, Note_on_c, 0, 43, 0
4, 4128, Note_on_c, 0, 47, 64
4, 4173, Note_on_c, 0, 47, 0
4, 4176, Note_on_c, 0, 52, 64
4, 4221, Note_on_c, 0, 52, 0
4, 4224, Note_on_c, 0, 50, 64
4, 4269, Note_on_c, 0, 50, 0
4, 4272, Note_on_c, 0, 52, 64
4, 4317, Note_on_c, 0, 52, 0
4, 4320, Note_on_c, 0, 38, 64
4, 4409, Note_on_c, 0, 38, 0
4, 4608, Note_on_c, 0, 49, 64
4, 4653, Note_on_c, 0, 49, 0
4, 4656, Note_on_c, 0, 52, 64
4, 4701, Note_on_c, 0, 52, 0
4, 4704, Note_on_c, 0, 55, 64
4, 4749, Note_on_c, 0, 55, 0
4, 4752, Note_on_c, 0, 59, 64
4, 4797, Note_on_c, 0, 59, 0
4, 4800, Note_on_c, 0, 58, 64
4, 4845, Note_on_c, 0, 58, 0
4, 4848, Note_on_c, 0, 59, 64
4, 4893, Note_on_c, 0, 59, 0
4, 4896, Note_on_c, 0, 47, 64
4, 4985, Note_on_c, 0, 47, 0
4, 5184, Note_on_c, 0, 46, 64
4, 5229, Note_on_c, 0, 46, 0
4, 5232, Note_on_c, 0, 49, 64
4, 5277, Note_on_c, 0, 49, 0
4, 5280, Note_on_c, 0, 52, 64
4, 5325, Note_on_c, 0, 52, 0
4, 5328, Note_on_c, 0, 55, 64
4, 5373, Note_on_c, 0, 55, 0
4, 5376, Note_on_c, 0, 54, 64
4, 5421, Note_on_c, 0, 54, 0
4, 5424, Note_on_c, 0, 55, 64
4, 5469, Note_on_c, 0, 55, 0
4, 5472, Note_on_c, 0, 42, 64
4, 5649, Note_on_c, 0, 42, 0
4, 5760, Note_on_c, 0, 47, 64
4, 5937, Note_on_c, 0, 47, 0
4, 6048, Note_on_c, 0, 47, 64
4, 6093, Note_on_c, 0, 47, 0
4, 6096, Note_on_c, 0, 50, 64
4, 6141, Note_on_c, 0, 50, 0
4, 6144, Note_on_c, 0, 54, 64
4, 6189, Note_on_c, 0, 54, 0
4, 6192, Note_on_c, 0, 59, 64
4, 6237, Note_on_c, 0, 59, 0
4, 6240, Note_on_c, 0, 57, 64
4, 6285, Note_on_c, 0, 57, 0
4, 6288, Note_on_c, 0, 59, 64
4, 6333, Note_on_c, 0, 59, 0
4, 6336, Note_on_c, 0, 44, 64
4, 6381, Note_on_c, 0, 44, 0
4, 6384, Note_on_c, 0, 47, 64
4, 6429, Note_on_c, 0, 47, 0
4, 6432, Note_on_c, 0, 50, 64
4, 6477, Note_on_c, 0, 50, 0
4, 6480, Note_on_c, 0, 56, 64
4, 6525, Note_on_c, 0, 56, 0
4, 6528, Note_on_c, 0, 54, 64
4, 6573, Note_on_c, 0, 54, 0
4, 6576, Note_on_c, 0, 56, 64
4, 6621, Note_on_c, 0, 56, 0
4, 6624, Note_on_c, 0, 41, 64
4, 6713, Note_on_c, 0, 41, 0
4, 6912, Note_on_c, 0, 54, 64
4, 6957, Note_on_c, 0, 54, 0
4, 6960, Note_on_c, 0, 57, 64
4, 7005, Note_on_c, 0, 57, 0
4, 7008, Note_on_c, 0, 61, 64
4, 7053, Note_on_c, 0, 61, 0
4, 7056, Note_on_c, 0, 66, 64
4, 7101, Note_on_c, 0, 66, 0
4, 7104, Note_on_c, 0, 65, 64
4, 7149, Note_on_c, 0, 65, 0
4, 7152, Note_on_c, 0, 66, 64
4, 7197, Note_on_c, 0, 66, 0
4, 7200, Note_on_c, 0, 50, 64
4, 7245, Note_on_c, 0, 50, 0
4, 7248, Note_on_c, 0, 54, 64
4, 7293, Note_on_c, 0, 54, 0
4, 7296, Note_on_c, 0, 57, 64
4, 7341, Note_on_c, 0, 57, 0
4, 7344, Note_on_c, 0, 62, 64
4, 7389, Note_on_c, 0, 62, 0
4, 7392, Note_on_c, 0, 61, 64
4, 7437, Note_on_c, 0, 61, 0
4, 7440, Note_on_c, 0, 62, 64
4, 7485, Note_on_c, 0, 62, 0
4, 7488, Note_on_c, 0, 47, 64
4, 7577, Note_on_c, 0, 47, 0
4, 7776, Note_on_c, 0, 44, 64
4, 7865, Note_on_c, 0, 44, 0
4, 7872, Note_on_c, 0, 45, 64
4, 7961, Note_on_c, 0, 45, 0
4, 7968, Note_on_c, 0, 47, 64
4, 8057, Note_on_c, 0, 47, 0
4, 8064, Note_on_c, 0, 49, 64
4, 8109, Note_on_c, 0, 49, 0
4, 8112, Note_on_c, 0, 53, 64
4, 8157, Note_on_c, 0, 53, 0
4, 8160, Note_on_c, 0, 56, 64
4, 8205, Note_on_c, 0, 56, 0
4, 8208, Note_on_c, 0, 61, 64
4, 8253, Note_on_c, 0, 61, 0
4, 8256, Note_on_c, 0, 59, 64
4, 8301, Note_on_c, 0, 59, 0
4, 8304, Note_on_c, 0, 61, 64
4, 8349, Note_on_c, 0, 61, 0
4, 8352, Note_on_c, 0, 45, 64
4, 8397, Note_on_c, 0, 45, 0
4, 8400, Note_on_c, 0, 49, 64
4, 8445, Note_on_c, 0, 49, 0
4, 8448, Note_on_c, 0, 54, 64
4, 8493, Note_on_c, 0, 54, 0
4, 8496, Note_on_c, 0, 57, 64
4, 8541, Note_on_c, 0, 57, 0
4, 8544, Note_on_c, 0, 56, 64
4, 8589, Note_on_c, 0, 56, 0
4, 8592, Note_on_c, 0, 57, 64
4, 8637, Note_on_c, 0, 57, 0
4, 8640, Note_on_c, 0, 42, 64
4, 8729, Note_on_c, 0, 42, 0
4, 8976, Note_on_c, 0, 62, 64
4, 9021, Note_on_c, 0, 62, 0
4, 9024, Note_on_c, 0, 62, 64
4, 9069, Note_on_c, 0, 62, 0
4, 9072, Note_on_c, 0, 61, 64
4, 9117, Note_on_c, 0, 61, 0
4, 9120, Note_on_c, 0, 61, 64
4, 9165, Note_on_c, 0, 61, 0
4, 9168, Note_on_c, 0, 59, 64
4, 9213, Note_on_c, 0, 59, 0
4, 9216, Note_on_c, 0, 59, 64
4, 9393, Note_on_c, 0, 59, 0
4, 9408, Note_on_c, 0, 61, 64
4, 9497, Note_on_c, 0, 61, 0
4, 9504, Note_on_c, 0, 62, 64
4, 9593, Note_on_c, 0, 62, 0
4, 9600, Note_on_c, 0, 56, 64
4, 9689, Note_on_c, 0, 56, 0
4, 9696, Note_on_c, 0, 59, 64
4, 9785, Note_on_c, 0, 59, 0
4, 9792, Note_on_c, 0, 53, 64
4, 9837, Note_on_c, 0, 53, 0
4, 9840, Note_on_c, 0, 54, 64
4, 9885, Note_on_c, 0, 54, 0
4, 9888, Note_on_c, 0, 56, 64
4, 9933, Note_on_c, 0, 56, 0
4, 9936, Note_on_c, 0, 59, 64
4, 9981, Note_on_c, 0, 59, 0
4, 9984, Note_on_c, 0, 57, 64
4, 10029, Note_on_c, 0, 57, 0
4, 10032, Note_on_c, 0, 59, 64
4, 10077, Note_on_c, 0, 59, 0
4, 10080, Note_on_c, 0, 49, 64
4, 10169, Note_on_c, 0, 49, 0
4, 10272, Note_on_c, 0, 53, 64
4, 10361, Note_on_c, 0, 53, 0
4, 10368, Note_on_c, 0, 54, 64
4, 10457, Note_on_c, 0, 54, 0
4, 10464, Note_on_c, 0, 50, 64
4, 10553, Note_on_c, 0, 50, 0
4, 10560, Note_on_c, 0, 47, 64
4, 10649, Note_on_c, 0, 47, 0
4, 10656, Note_on_c, 0, 49, 64
4, 10833, Note_on_c, 0, 49, 0
4, 10848, Note_on_c, 0, 37, 64
4, 10937, Note_on_c, 0, 37, 0
4, 10944, Note_on_c, 0, 42, 64
4, 10989, Note_on_c, 0, 42, 0
4, 10992, Note_on_c, 0, 45, 64
4, 11037, Note_on_c, 0, 45, 0
4, 11040, Note_on_c, 0, 49, 64
4, 11085, Note_on_c, 0, 49, 0
4, 11088, Note_on_c, 0, 54, 64
4, 11133, Note_on_c, 0, 54, 0
4, 11136, Note_on_c, 0, 52, 64
4, 11181, Note_on_c, 0, 52, 0
4, 11184, Note_on_c, 0, 54, 64
4, 11229, Note_on_c, 0, 54, 0
4, 11232, Note_on_c, 0, 40, 64
4, 11321, Note_on_c, 0, 40, 0
4, 11520, Note_on_c, 0, 39, 64
4, 11565, Note_on_c, 0, 39, 0
4, 11568, Note_on_c, 0, 42, 64
4, 11613, Note_on_c, 0, 42, 0
4, 11616, Note_on_c, 0, 47, 64
4, 11661, Note_on_c, 0, 47, 0
4, 11664, Note_on_c, 0, 51, 64
4, 11709, Note_on_c, 0, 51, 0
4, 11712, Note_on_c, 0, 49, 64
4, 11757, Note_on_c, 0, 49, 0
4, 11760, Note_on_c, 0, 51, 64
4, 11805, Note_on_c, 0, 51, 0
4, 11808, Note_on_c, 0, 35, 64
4, 11897, Note_on_c, 0, 35, 0
4, 12096, Note_on_c, 0, 52, 64
4, 12141, Note_on_c, 0, 52, 0
4, 12144, Note_on_c, 0, 55, 64
4, 12189, Note_on_c, 0, 55, 0
4, 12192, Note_on_c, 0, 59, 64
4, 12237, Note_on_c, 0, 59, 0
4, 12240, Note_on_c, 0, 64, 64
4, 12285, Note_on_c, 0, 64, 0
4, 12288, Note_on_c, 0, 62, 64
4, 12333, Note_on_c, 0, 62, 0
4, 12336, Note_on_c, 0, 64, 64
4, 12381, Note_on_c, 0, 64, 0
4, 12384, Note_on_c, 0, 49, 64
4, 12429, Note_on_c, 0, 49, 0
4, 12432, Note_on_c, 0, 52, 64
4, 12477, Note_on_c, 0, 52, 0
4, 12480, Note_on_c, 0, 58, 64
4, 12525, Note_on_c, 0, 58, 0
4, 12528, Note_on_c, 0, 61, 64
4, 12573, Note_on_c, 0, 61, 0
4, 12576, Note_on_c, 0, 59, 64
4, 12621, Note_on_c, 0, 59, 0
4, 12624, Note_on_c, 0, 61, 64
4, 12669, Note_on_c, 0, 61, 0
4, 12672, Note_on_c, 0, 46, 64
4, 12761, Note_on_c, 0, 46, 0
4, 12960, Note_on_c, 0, 42, 64
4, 13049, Note_on_c, 0, 42, 0
4, 13248, Note_on_c, 0, 47, 64
4, 13293, Note_on_c, 0, 47, 0
4, 13296, Note_on_c, 0, 50, 64
4, 13341, Note_on_c, 0, 50, 0
4, 13344, Note_on_c, 0, 54, 64
4, 13389, Note_on_c, 0, 54, 0
4, 13392, Note_on_c, 0, 59, 64
4, 13437, Note_on_c, 0, 59, 0
4, 13440, Note_on_c, 0, 57, 64
4, 13485, Note_on_c, 0, 57, 0
4, 13488, Note_on_c, 0, 59, 64
4, 13533, Note_on_c, 0, 59, 0
4, 13536, Note_on_c, 0, 43, 64
4, 13581, Note_on_c, 0, 43, 0
4, 13584, Note_on_c, 0, 47, 64
4, 13629, Note_on_c, 0, 47, 0
4, 13632, Note_on_c, 0, 50, 64
4, 13677, Note_on_c, 0, 50, 0
4, 13680, Note_on_c, 0, 55, 64
4, 13725, Note_on_c, 0, 55, 0
4, 13728, Note_on_c, 0, 54, 64
4, 13773, Note_on_c, 0, 54, 0
4, 13776, Note_on_c, 0, 55, 64
4, 13821, Note_on_c, 0, 55, 0
4, 13824, Note_on_c, 0, 40, 64
4, 13913, Note_on_c, 0, 40, 0
4, 14112, Note_on_c, 0, 52, 64
4, 14157, Note_on_c, 0, 52, 0
4, 14160, Note_on_c, 0, 54, 64
4, 14205, Note_on_c, 0, 54, 0
4, 14208, Note_on_c, 0, 54, 64
4, 14253, Note_on_c, 0, 54, 0
4, 14256, Note_on_c, 0, 55, 64
4, 14301, Note_on_c, 0, 55, 0
4, 14304, Note_on_c, 0, 55, 64
4, 14349, Note_on_c, 0, 55, 0
4, 14352, Note_on_c, 0, 54, 64
4, 14397, Note_on_c, 0, 54, 0
4, 14400, Note_on_c, 0, 54, 64
4, 14445, Note_on_c, 0, 54, 0
4, 14448, Note_on_c, 0, 58, 64
4, 14493, Note_on_c, 0, 58, 0
4, 14496, Note_on_c, 0, 61, 64
4, 14541, Note_on_c, 0, 61, 0
4, 14544, Note_on_c, 0, 66, 64
4, 14589, Note_on_c, 0, 66, 0
4, 14592, Note_on_c, 0, 64, 64
4, 14637, Note_on_c, 0, 64, 0
4, 14640, Note_on_c, 0, 66, 64
4, 14685, Note_on_c, 0, 66, 0
4, 14688, Note_on_c, 0, 50, 64
4, 14733, Note_on_c, 0, 50, 0
4, 14736, Note_on_c, 0, 54, 64
4, 14781, Note_on_c, 0, 54, 0
4, 14784, Note_on_c, 0, 59, 64
4, 14829, Note_on_c, 0, 59, 0
4, 14832, Note_on_c, 0, 62, 64
4, 14877, Note_on_c, 0, 62, 0
4, 14880, Note_on_c, 0, 61, 64
4, 14925, Note_on_c, 0, 61, 0
4, 14928, Note_on_c, 0, 62, 64
4, 14973, Note_on_c, 0, 62, 0
4, 14976, Note_on_c, 0, 47, 64
4, 15065, Note_on_c, 0, 47, 0
4, 15312, Note_on_c, 0, 55, 64
4, 15357, Note_on_c, 0, 55, 0
4, 15360, Note_on_c, 0, 55, 64
4, 15405, Note_on_c, 0, 55, 0
4, 15408, Note_on_c, 0, 54, 64
4, 15453, Note_on_c, 0, 54, 0
4, 15456, Note_on_c, 0, 54, 64
4, 15501, Note_on_c, 0, 54, 0
4, 15504, Note_on_c, 0, 52, 64
4, 15549, Note_on_c, 0, 52, 0
4, 15552, Note_on_c, 0, 52, 64
4, 15729, Note_on_c, 0, 52, 0
4, 15744, Note_on_c, 0, 54, 64
4, 15833, Note_on_c, 0, 54, 0
4, 15840, Note_on_c, 0, 55, 64
4, 15929, Note_on_c, 0, 55, 0
4, 15936, Note_on_c, 0, 49, 64
4, 16025, Note_on_c, 0, 49, 0
4, 16032, Note_on_c, 0, 52, 64
4, 16121, Note_on_c, 0, 52, 0
4, 16128, Note_on_c, 0, 46, 64
4, 16173, Note_on_c, 0, 46, 0
4, 16176, Note_on_c, 0, 47, 64
4, 16221, Note_on_c, 0, 47, 0
4, 16224, Note_on_c, 0, 49, 64
4, 16269, Note_on_c, 0, 49, 0
4, 16272, Note_on_c, 0, 52, 64
4, 16317, Note_on_c, 0, 52, 0
4, 16320, Note_on_c, 0, 50, 64
4, 16365, Note_on_c, 0, 50, 0
4, 16368, Note_on_c, 0, 52, 64
4, 16413, Note_on_c, 0, 52, 0
4, 16416, Note_on_c, 0, 42, 64
4, 16505, Note_on_c, 0, 42, 0
4, 16608, Note_on_c, 0, 46, 64
4, 16697, Note_on_c, 0, 46, 0
4, 16704, Note_on_c, 0, 47, 64
4, 16793, Note_on_c, 0, 47, 0
4, 16800, Note_on_c, 0, 43, 64
4, 16889, Note_on_c, 0, 43, 0
4, 16896, Note_on_c, 0, 40, 64
4, 16985, Note_on_c, 0, 40, 0
4, 16992, Note_on_c, 0, 42, 64
4, 17169, Note_on_c, 0, 42, 0
4, 17184, Note_on_c, 0, 54, 64
4, 17273, Note_on_c, 0, 54, 0
4, 17280, Note_on_c, 0, 47, 64
4, 17325, Note_on_c, 0, 47, 0
4, 17328, Note_on_c, 0, 50, 64
4, 17373, Note_on_c, 0, 50, 0
4, 17376, Note_on_c, 0, 54, 64
4, 17421, Note_on_c, 0, 54, 0
4, 17424, Note_on_c, 0, 59, 64
4, 17469, Note_on_c, 0, 59, 0
4, 17472, Note_on_c, 0, 58, 64
4, 17517, Note_on_c, 0, 58, 0
4, 17520, Note_on_c, 0, 59, 64
4, 17565, Note_on_c, 0, 59, 0
4, 17568, Note_on_c, 0, 45, 64
4, 17657, Note_on_c, 0, 45, 0
4, 17856, Note_on_c, 0, 43, 64
4, 17901, Note_on_c, 0, 43, 0
4, 17904, Note_on_c, 0, 47, 64
4, 17949, Note_on_c, 0, 47, 0
4, 17952, Note_on_c, 0, 52, 64
4, 17997, Note_on_c, 0, 52, 0
4, 18000, Note_on_c, 0, 55, 64
4, 18045, Note_on_c, 0, 55, 0
4, 18048, Note_on_c, 0, 54, 64
4, 18093, Note_on_c, 0, 54, 0
4, 18096, Note_on_c, 0, 55, 64
4, 18141, Note_on_c, 0, 55, 0
4, 18144, Note_on_c, 0, 42, 64
4, 18233, Note_on_c, 0, 42, 0
4, 18432, Note_on_c, 0, 40, 64
4, 19097, Note_on_c, 0, 40, 0
4, 19584, Note_on_c, 0, 38, 64
4, 19673, Note_on_c, 0, 38, 0
4, 19680, Note_on_c, 0, 43, 64
4, 19769, Note_on_c, 0, 43, 0
4, 19776, Note_on_c, 0, 40, 64
4, 19865, Note_on_c, 0, 40, 0
4, 19872, Note_on_c, 0, 42, 64
4, 20049, Note_on_c, 0, 42, 0
4, 20064, Note_on_c, 0, 42, 64
4, 20153, Note_on_c, 0, 42, 0
4, 20160, Note_on_c, 0, 47, 64
4, 20205, Note_on_c, 0, 47, 0
4, 20208, Note_on_c, 0, 50, 64
4, 20253, Note_on_c, 0, 50, 0
4, 20256, Note_on_c, 0, 54, 64
4, 20301, Note_on_c, 0, 54, 0
4, 20304, Note_on_c, 0, 59, 64
4, 20349, Note_on_c, 0, 59, 0
4, 20352, Note_on_c, 0, 58, 64
4, 20397, Note_on_c, 0, 58, 0
4, 20400, Note_on_c, 0, 59, 64
4, 20445, Note_on_c, 0, 59, 0
4, 20448, Note_on_c, 0, 35, 64
4, 20713, Note_on_c, 0, 35, 0
4, 20713, End_track
5, 0, Start_track
5, 0, MIDI_port, 0
5, 0, Title_t, "Sonata No. 1 en Si menor"
5, 0, Program_c, 1, 40
5, 0, End_track
6, 0, Start_track
6, 0, MIDI_port, 0
6, 0, Title_t, "para violin y clavicembalo"
6, 0, End_track
7, 0, Start_track
7, 0, MIDI_port, 0
7, 0, Title_t, "Primer Movimiento: Adagio"
7, 0, End_track
8, 0, Start_track
8, 0, MIDI_port, 0
8, 0, Title_t, "J. S. Bach (1685-1750)"
8, 0, End_track
9, 0, Start_track
9, 0, MIDI_port, 0
9, 0, Title_t, "Copyright Luis Gerardo Barajas "
9, 0, End_track
10, 0, Start_track
10, 0, MIDI_port, 0
10, 0, Title_t, "*** Bach Keeps RuLiNg!!!"
10, 0, End_track
0, 0, End_of_file
