0, 0, Header, 1, 11, 96
1, 0, Start_track
1, 0, Sequencer_specific, 3, 0, 0, 65
1, 0, Time_signature, 6, 3, 12, 8
1, 0, Key_signature, 3, "major"
1, 0, Tempo, 779626
1, 10306, Tempo, 789889
1, 10418, Tempo, 811249
1, 10498, Tempo, 857633
1, 10562, Tempo, 909642
1, 10610, Tempo, 968367
1, 10626, Tempo, 968367
1, 10834, Tempo, 517420
1, 10834, End_track
2, 0, Start_track
2, 0, MIDI_port, 0
2, 0, Title_t, "Violin"
2, 0, Program_c, 1, 40
2, 0, Control_c, 1, 7, 127
2, 0, Note_on_c, 1, 69, 64
2, 89, Note_on_c, 1, 69, 0
2, 96, Note_on_c, 1, 64, 64
2, 141, Note_on_c, 1, 64, 0
2, 144, Note_on_c, 1, 66, 64
2, 167, Note_on_c, 1, 66, 0
2, 168, Note_on_c, 1, 68, 64
2, 191, Note_on_c, 1, 68, 0
2, 192, Note_on_c, 1, 68, 64
2, 204, Note_on_c, 1, 68, 0
2, 204, Note_on_c, 1, 69, 64
2, 216, Note_on_c, 1, 69, 0
2, 216, Note_on_c, 1, 68, 64
2, 228, Note_on_c, 1, 68, 0
2, 228, Note_on_c, 1, 69, 64
2, 240, Note_on_c, 1, 69, 0
2, 240, Note_on_c, 1, 68, 64
2, 252, Note_on_c, 1, 68, 0
2, 252, Note_on_c, 1, 69, 64
2, 264, Note_on_c, 1, 69, 0
2, 264, Note_on_c, 1, 66, 64
2, 276, Note_on_c, 1, 66, 0
2, 276, Note_on_c, 1, 68, 64
2, 288, Note_on_c, 1, 68, 0
2, 288, Note_on_c, 1, 69, 64
2, 311, Note_on_c, 1, 69, 0
2, 312, Note_on_c, 1, 68, 64
2, 335, Note_on_c, 1, 68, 0
2, 336, Note_on_c, 1, 69, 64
2, 359, Note_on_c, 1, 69, 0
2, 360, Note_on_c, 1, 71, 64
2, 383, Note_on_c, 1, 71, 0
2, 384, Note_on_c, 1, 73, 64
2, 407, Note_on_c, 1, 73, 0
2, 408, Note_on_c, 1, 71, 64
2, 431, Note_on_c, 1, 71, 0
2, 432, Note_on_c, 1, 71, 64
2, 444, Note_on_c, 1, 71, 0
2, 444, Note_on_c, 1, 73, 64
2, 456, Note_on_c, 1, 73, 0
2, 456, Note_on_c, 1, 74, 64
2, 479, Note_on_c, 1, 74, 0
2, 480, Note_on_c, 1, 73, 64
2, 503, Note_on_c, 1, 73, 0
2, 504, Note_on_c, 1, 71, 64
2, 527, Note_on_c, 1, 71, 0
2, 528, Note_on_c, 1, 76, 64
2, 573, Note_on_c, 1, 76, 0
2, 576, Note_on_c, 1, 73, 64
2, 621, Note_on_c, 1, 73, 0
2, 624, Note_on_c, 1, 76, 64
2, 669, Note_on_c, 1, 76, 0
2, 672, Note_on_c, 1, 81, 64
2, 743, Note_on_c, 1, 81, 0
2, 744, Note_on_c, 1, 80, 64
2, 767, Note_on_c, 1, 80, 0
2, 768, Note_on_c, 1, 83, 64
2, 887, Note_on_c, 1, 83, 0
2, 888, Note_on_c, 1, 81, 64
2, 911, Note_on_c, 1, 81, 0
2, 912, Note_on_c, 1, 85, 64
2, 936, Note_on_c, 1, 85, 0
2, 936, Note_on_c, 1, 83, 64
2, 959, Note_on_c, 1, 83, 0
2, 960, Note_on_c, 1, 81, 64
2, 984, Note_on_c, 1, 81, 0
2, 984, Note_on_c, 1, 80, 64
2, 1007, Note_on_c, 1, 80, 0
2, 1008, Note_on_c, 1, 78, 64
2, 1031, Note_on_c, 1, 78, 0
2, 1032, Note_on_c, 1, 80, 64
2, 1055, Note_on_c, 1, 80, 0
2, 1056, Note_on_c, 1, 80, 64
2, 1068, Note_on_c, 1, 80, 0
2, 1068, Note_on_c, 1, 81, 64
2, 1080, Note_on_c, 1, 81, 0
2, 1080, Note_on_c, 1, 80, 64
2, 1092, Note_on_c, 1, 80, 0
2, 1092, Note_on_c, 1, 81, 64
2, 1104, Note_on_c, 1, 81, 0
2, 1104, Note_on_c, 1, 80, 64
2, 1116, Note_on_c, 1, 80, 0
2, 1116, Note_on_c, 1, 81, 64
2, 1128, Note_on_c, 1, 81, 0
2, 1128, Note_on_c, 1, 78, 64
2, 1140, Note_on_c, 1, 78, 0
2, 1140, Note_on_c, 1, 80, 64
2, 1152, Note_on_c, 1, 80, 0
2, 1152, Note_on_c, 1, 81, 64
2, 1175, Note_on_c, 1, 81, 0
2, 1176, Note_on_c, 1, 80, 64
2, 1199, Note_on_c, 1, 80, 0
2, 1200, Note_on_c, 1, 83, 64
2, 1223, Note_on_c, 1, 83, 0
2, 1224, Note_on_c, 1, 81, 64
2, 1247, Note_on_c, 1, 81, 0
2, 1248, Note_on_c, 1, 80, 64
2, 1271, Note_on_c, 1, 80, 0
2, 1272, Note_on_c, 1, 78, 64
2, 1295, Note_on_c, 1, 78, 0
2, 1296, Note_on_c, 1, 80, 64
2, 1429, Note_on_c, 1, 80, 0
2, 1440, Note_on_c, 1, 80, 64
2, 1463, Note_on_c, 1, 80, 0
2, 1464, Note_on_c, 1, 78, 64
2, 1487, Note_on_c, 1, 78, 0
2, 1488, Note_on_c, 1, 81, 64
2, 1511, Note_on_c, 1, 81, 0
2, 1512, Note_on_c, 1, 80, 64
2, 1535, Note_on_c, 1, 80, 0
2, 1536, Note_on_c, 1, 78, 64
2, 1559, Note_on_c, 1, 78, 0
2, 1560, Note_on_c, 1, 76, 64
2, 1583, Note_on_c, 1, 76, 0
2, 1584, Note_on_c, 1, 75, 64
2, 1629, Note_on_c, 1, 75, 0
2, 1632, Note_on_c, 1, 76, 64
2, 1677, Note_on_c, 1, 76, 0
2, 1680, Note_on_c, 1, 78, 64
2, 1725, Note_on_c, 1, 78, 0
2, 1728, Note_on_c, 1, 78, 64
2, 1751, Note_on_c, 1, 78, 0
2, 1752, Note_on_c, 1, 76, 64
2, 1775, Note_on_c, 1, 76, 0
2, 1776, Note_on_c, 1, 80, 64
2, 1799, Note_on_c, 1, 80, 0
2, 1800, Note_on_c, 1, 78, 64
2, 1823, Note_on_c, 1, 78, 0
2, 1824, Note_on_c, 1, 81, 64
2, 1847, Note_on_c, 1, 81, 0
2, 1848, Note_on_c, 1, 80, 64
2, 1871, Note_on_c, 1, 80, 0
2, 1872, Note_on_c, 1, 78, 64
2, 1895, Note_on_c, 1, 78, 0
2, 1896, Note_on_c, 1, 80, 64
2, 1908, Note_on_c, 1, 80, 0
2, 1908, Note_on_c, 1, 76, 64
2, 1920, Note_on_c, 1, 76, 0
2, 1920, Note_on_c, 1, 75, 64
2, 1932, Note_on_c, 1, 75, 0
2, 1932, Note_on_c, 1, 76, 64
2, 1944, Note_on_c, 1, 76, 0
2, 1944, Note_on_c, 1, 75, 64
2, 1956, Note_on_c, 1, 75, 0
2, 1956, Note_on_c, 1, 76, 64
2, 1968, Note_on_c, 1, 76, 0
2, 1968, Note_on_c, 1, 75, 64
2, 1980, Note_on_c, 1, 75, 0
2, 1980, Note_on_c, 1, 76, 64
2, 1992, Note_on_c, 1, 76, 0
2, 1992, Note_on_c, 1, 76, 64
2, 2015, Note_on_c, 1, 76, 0
2, 2016, Note_on_c, 1, 76, 64
2, 2040, Note_on_c, 1, 76, 0
2, 2040, Note_on_c, 1, 71, 64
2, 2063, Note_on_c, 1, 71, 0
2, 2064, Note_on_c, 1, 73, 64
2, 2088, Note_on_c, 1, 73, 0
2, 2088, Note_on_c, 1, 69, 64
2, 2111, Note_on_c, 1, 69, 0
2, 2112, Note_on_c, 1, 71, 64
2, 2183, Note_on_c, 1, 71, 0
2, 2184, Note_on_c, 1, 76, 64
2, 2207, Note_on_c, 1, 76, 0
2, 2208, Note_on_c, 1, 71, 64
2, 2232, Note_on_c, 1, 71, 0
2, 2232, Note_on_c, 1, 68, 64
2, 2255, Note_on_c, 1, 68, 0
2, 2256, Note_on_c, 1, 69, 64
2, 2280, Note_on_c, 1, 69, 0
2, 2280, Note_on_c, 1, 66, 64
2, 2303, Note_on_c, 1, 66, 0
2, 2304, Note_on_c, 1, 68, 64
2, 2393, Note_on_c, 1, 68, 0
2, 2592, Note_on_c, 1, 76, 64
2, 2681, Note_on_c, 1, 76, 0
2, 2688, Note_on_c, 1, 71, 64
2, 2733, Note_on_c, 1, 71, 0
2, 2736, Note_on_c, 1, 73, 64
2, 2759, Note_on_c, 1, 73, 0
2, 2760, Note_on_c, 1, 75, 64
2, 2783, Note_on_c, 1, 75, 0
2, 2784, Note_on_c, 1, 75, 64
2, 2796, Note_on_c, 1, 75, 0
2, 2796, Note_on_c, 1, 76, 64
2, 2808, Note_on_c, 1, 76, 0
2, 2808, Note_on_c, 1, 75, 64
2, 2820, Note_on_c, 1, 75, 0
2, 2820, Note_on_c, 1, 76, 64
2, 2832, Note_on_c, 1, 76, 0
2, 2832, Note_on_c, 1, 75, 64
2, 2844, Note_on_c, 1, 75, 0
2, 2844, Note_on_c, 1, 76, 64
2, 2856, Note_on_c, 1, 76, 0
2, 2856, Note_on_c, 1, 73, 64
2, 2868, Note_on_c, 1, 73, 0
2, 2868, Note_on_c, 1, 75, 64
2, 2880, Note_on_c, 1, 75, 0
2, 2880, Note_on_c, 1, 76, 64
2, 2903, Note_on_c, 1, 76, 0
2, 2904, Note_on_c, 1, 75, 64
2, 2927, Note_on_c, 1, 75, 0
2, 2928, Note_on_c, 1, 76, 64
2, 2951, Note_on_c, 1, 76, 0
2, 2952, Note_on_c, 1, 78, 64
2, 2975, Note_on_c, 1, 78, 0
2, 2976, Note_on_c, 1, 80, 64
2, 3000, Note_on_c, 1, 80, 0
2, 3000, Note_on_c, 1, 78, 64
2, 3023, Note_on_c, 1, 78, 0
2, 3024, Note_on_c, 1, 81, 64
2, 3069, Note_on_c, 1, 81, 0
2, 3072, Note_on_c, 1, 80, 64
2, 3096, Note_on_c, 1, 80, 0
2, 3096, Note_on_c, 1, 78, 64
2, 3119, Note_on_c, 1, 78, 0
2, 3120, Note_on_c, 1, 83, 64
2, 3165, Note_on_c, 1, 83, 0
2, 3168, Note_on_c, 1, 80, 64
2, 3213, Note_on_c, 1, 80, 0
2, 3216, Note_on_c, 1, 83, 64
2, 3239, Note_on_c, 1, 83, 0
2, 3240, Note_on_c, 1, 82, 64
2, 3263, Note_on_c, 1, 82, 0
2, 3264, Note_on_c, 1, 85, 64
2, 3287, Note_on_c, 1, 85, 0
2, 3288, Note_on_c, 1, 83, 64
2, 3311, Note_on_c, 1, 83, 0
2, 3312, Note_on_c, 1, 82, 64
2, 3335, Note_on_c, 1, 82, 0
2, 3336, Note_on_c, 1, 78, 64
2, 3359, Note_on_c, 1, 78, 0
2, 3360, Note_on_c, 1, 83, 64
2, 3501, Note_on_c, 1, 83, 0
2, 3504, Note_on_c, 1, 82, 64
2, 3593, Note_on_c, 1, 82, 0
2, 3600, Note_on_c, 1, 83, 64
2, 3624, Note_on_c, 1, 83, 0
2, 3624, Note_on_c, 1, 78, 64
2, 3647, Note_on_c, 1, 78, 0
2, 3648, Note_on_c, 1, 86, 64
2, 3672, Note_on_c, 1, 86, 0
2, 3672, Note_on_c, 1, 85, 64
2, 3695, Note_on_c, 1, 85, 0
2, 3696, Note_on_c, 1, 83, 64
2, 3720, Note_on_c, 1, 83, 0
2, 3720, Note_on_c, 1, 81, 64
2, 3743, Note_on_c, 1, 81, 0
2, 3744, Note_on_c, 1, 80, 64
2, 3767, Note_on_c, 1, 80, 0
2, 3768, Note_on_c, 1, 81, 64
2, 3791, Note_on_c, 1, 81, 0
2, 3792, Note_on_c, 1, 81, 64
2, 3804, Note_on_c, 1, 81, 0
2, 3804, Note_on_c, 1, 83, 64
2, 3816, Note_on_c, 1, 83, 0
2, 3816, Note_on_c, 1, 81, 64
2, 3828, Note_on_c, 1, 81, 0
2, 3828, Note_on_c, 1, 83, 64
2, 3840, Note_on_c, 1, 83, 0
2, 3840, Note_on_c, 1, 81, 64
2, 3852, Note_on_c, 1, 81, 0
2, 3852, Note_on_c, 1, 83, 64
2, 3864, Note_on_c, 1, 83, 0
2, 3864, Note_on_c, 1, 80, 64
2, 3876, Note_on_c, 1, 80, 0
2, 3876, Note_on_c, 1, 81, 64
2, 3888, Note_on_c, 1, 81, 0
2, 3888, Note_on_c, 1, 83, 64
2, 3911, Note_on_c, 1, 83, 0
2, 3912, Note_on_c, 1, 81, 64
2, 3935, Note_on_c, 1, 81, 0
2, 3936, Note_on_c, 1, 85, 64
2, 3959, Note_on_c, 1, 85, 0
2, 3960, Note_on_c, 1, 83, 64
2, 3983, Note_on_c, 1, 83, 0
2, 3984, Note_on_c, 1, 81, 64
2, 4007, Note_on_c, 1, 81, 0
2, 4008, Note_on_c, 1, 80, 64
2, 4031, Note_on_c, 1, 80, 0
2, 4032, Note_on_c, 1, 81, 64
2, 4199, Note_on_c, 1, 81, 0
2, 4200, Note_on_c, 1, 80, 64
2, 4223, Note_on_c, 1, 80, 0
2, 4224, Note_on_c, 1, 83, 64
2, 4247, Note_on_c, 1, 83, 0
2, 4248, Note_on_c, 1, 81, 64
2, 4271, Note_on_c, 1, 81, 0
2, 4272, Note_on_c, 1, 80, 64
2, 4295, Note_on_c, 1, 80, 0
2, 4296, Note_on_c, 1, 78, 64
2, 4319, Note_on_c, 1, 78, 0
2, 4320, Note_on_c, 1, 77, 64
2, 4365, Note_on_c, 1, 77, 0
2, 4368, Note_on_c, 1, 78, 64
2, 4413, Note_on_c, 1, 78, 0
2, 4416, Note_on_c, 1, 80, 64
2, 4487, Note_on_c, 1, 80, 0
2, 4488, Note_on_c, 1, 78, 64
2, 4511, Note_on_c, 1, 78, 0
2, 4512, Note_on_c, 1, 81, 64
2, 4535, Note_on_c, 1, 81, 0
2, 4536, Note_on_c, 1, 80, 64
2, 4559, Note_on_c, 1, 80, 0
2, 4560, Note_on_c, 1, 83, 64
2, 4583, Note_on_c, 1, 83, 0
2, 4584, Note_on_c, 1, 81, 64
2, 4607, Note_on_c, 1, 81, 0
2, 4608, Note_on_c, 1, 80, 64
2, 4631, Note_on_c, 1, 80, 0
2, 4632, Note_on_c, 1, 81, 64
2, 4644, Note_on_c, 1, 81, 0
2, 4644, Note_on_c, 1, 78, 64
2, 4656, Note_on_c, 1, 78, 0
2, 4656, Note_on_c, 1, 77, 64
2, 4668, Note_on_c, 1, 77, 0
2, 4668, Note_on_c, 1, 78, 64
2, 4680, Note_on_c, 1, 78, 0
2, 4680, Note_on_c, 1, 77, 64
2, 4692, Note_on_c, 1, 77, 0
2, 4692, Note_on_c, 1, 78, 64
2, 4704, Note_on_c, 1, 78, 0
2, 4704, Note_on_c, 1, 77, 64
2, 4716, Note_on_c, 1, 77, 0
2, 4716, Note_on_c, 1, 78, 64
2, 4728, Note_on_c, 1, 78, 0
2, 4728, Note_on_c, 1, 78, 64
2, 4751, Note_on_c, 1, 78, 0
2, 4752, Note_on_c, 1, 78, 64
2, 4885, Note_on_c, 1, 78, 0
2, 5064, Note_on_c, 1, 83, 64
2, 5087, Note_on_c, 1, 83, 0
2, 5088, Note_on_c, 1, 78, 64
2, 5111, Note_on_c, 1, 78, 0
2, 5112, Note_on_c, 1, 74, 64
2, 5135, Note_on_c, 1, 74, 0
2, 5136, Note_on_c, 1, 76, 64
2, 5159, Note_on_c, 1, 76, 0
2, 5160, Note_on_c, 1, 73, 64
2, 5183, Note_on_c, 1, 73, 0
2, 5184, Note_on_c, 1, 74, 64
2, 5207, Note_on_c, 1, 74, 0
2, 5208, Note_on_c, 1, 78, 64
2, 5231, Note_on_c, 1, 78, 0
2, 5232, Note_on_c, 1, 83, 64
2, 5255, Note_on_c, 1, 83, 0
2, 5256, Note_on_c, 1, 81, 64
2, 5279, Note_on_c, 1, 81, 0
2, 5280, Note_on_c, 1, 80, 64
2, 5303, Note_on_c, 1, 80, 0
2, 5304, Note_on_c, 1, 78, 64
2, 5327, Note_on_c, 1, 78, 0
2, 5328, Note_on_c, 1, 76, 64
2, 5351, Note_on_c, 1, 76, 0
2, 5352, Note_on_c, 1, 75, 64
2, 5375, Note_on_c, 1, 75, 0
2, 5376, Note_on_c, 1, 81, 64
2, 5399, Note_on_c, 1, 81, 0
2, 5400, Note_on_c, 1, 80, 64
2, 5423, Note_on_c, 1, 80, 0
2, 5424, Note_on_c, 1, 81, 64
2, 5495, Note_on_c, 1, 81, 0
2, 5496, Note_on_c, 1, 83, 64
2, 5519, Note_on_c, 1, 83, 0
2, 5520, Note_on_c, 1, 80, 64
2, 5543, Note_on_c, 1, 80, 0
2, 5544, Note_on_c, 1, 76, 64
2, 5567, Note_on_c, 1, 76, 0
2, 5568, Note_on_c, 1, 78, 64
2, 5591, Note_on_c, 1, 78, 0
2, 5592, Note_on_c, 1, 75, 64
2, 5615, Note_on_c, 1, 75, 0
2, 5616, Note_on_c, 1, 76, 64
2, 5749, Note_on_c, 1, 76, 0
2, 5928, Note_on_c, 1, 81, 64
2, 5951, Note_on_c, 1, 81, 0
2, 5952, Note_on_c, 1, 76, 64
2, 5975, Note_on_c, 1, 76, 0
2, 5976, Note_on_c, 1, 73, 64
2, 5999, Note_on_c, 1, 73, 0
2, 6000, Note_on_c, 1, 74, 64
2, 6023, Note_on_c, 1, 74, 0
2, 6024, Note_on_c, 1, 71, 64
2, 6047, Note_on_c, 1, 71, 0
2, 6048, Note_on_c, 1, 73, 64
2, 6071, Note_on_c, 1, 73, 0
2, 6072, Note_on_c, 1, 76, 64
2, 6095, Note_on_c, 1, 76, 0
2, 6096, Note_on_c, 1, 81, 64
2, 6119, Note_on_c, 1, 81, 0
2, 6120, Note_on_c, 1, 79, 64
2, 6143, Note_on_c, 1, 79, 0
2, 6144, Note_on_c, 1, 78, 64
2, 6167, Note_on_c, 1, 78, 0
2, 6168, Note_on_c, 1, 76, 64
2, 6191, Note_on_c, 1, 76, 0
2, 6192, Note_on_c, 1, 74, 64
2, 6215, Note_on_c, 1, 74, 0
2, 6216, Note_on_c, 1, 73, 64
2, 6239, Note_on_c, 1, 73, 0
2, 6240, Note_on_c, 1, 79, 64
2, 6263, Note_on_c, 1, 79, 0
2, 6264, Note_on_c, 1, 78, 64
2, 6287, Note_on_c, 1, 78, 0
2, 6288, Note_on_c, 1, 79, 64
2, 6359, Note_on_c, 1, 79, 0
2, 6360, Note_on_c, 1, 81, 64
2, 6383, Note_on_c, 1, 81, 0
2, 6384, Note_on_c, 1, 78, 64
2, 6407, Note_on_c, 1, 78, 0
2, 6408, Note_on_c, 1, 74, 64
2, 6431, Note_on_c, 1, 74, 0
2, 6432, Note_on_c, 1, 76, 64
2, 6455, Note_on_c, 1, 76, 0
2, 6456, Note_on_c, 1, 73, 64
2, 6479, Note_on_c, 1, 73, 0
2, 6480, Note_on_c, 1, 74, 64
2, 6503, Note_on_c, 1, 74, 0
2, 6504, Note_on_c, 1, 78, 64
2, 6527, Note_on_c, 1, 78, 0
2, 6528, Note_on_c, 1, 74, 64
2, 6551, Note_on_c, 1, 74, 0
2, 6552, Note_on_c, 1, 71, 64
2, 6575, Note_on_c, 1, 71, 0
2, 6576, Note_on_c, 1, 73, 64
2, 6599, Note_on_c, 1, 73, 0
2, 6600, Note_on_c, 1, 69, 64
2, 6623, Note_on_c, 1, 69, 0
2, 6624, Note_on_c, 1, 71, 64
2, 6648, Note_on_c, 1, 71, 0
2, 6648, Note_on_c, 1, 74, 64
2, 6671, Note_on_c, 1, 74, 0
2, 6672, Note_on_c, 1, 71, 64
2, 6696, Note_on_c, 1, 71, 0
2, 6696, Note_on_c, 1, 68, 64
2, 6719, Note_on_c, 1, 68, 0
2, 6720, Note_on_c, 1, 69, 64
2, 6744, Note_on_c, 1, 69, 0
2, 6744, Note_on_c, 1, 66, 64
2, 6767, Note_on_c, 1, 66, 0
2, 6768, Note_on_c, 1, 68, 64
2, 6792, Note_on_c, 1, 68, 0
2, 6792, Note_on_c, 1, 69, 64
2, 6815, Note_on_c, 1, 69, 0
2, 6816, Note_on_c, 1, 69, 64
2, 6828, Note_on_c, 1, 69, 0
2, 6828, Note_on_c, 1, 71, 64
2, 6840, Note_on_c, 1, 71, 0
2, 6840, Note_on_c, 1, 69, 64
2, 6852, Note_on_c, 1, 69, 0
2, 6852, Note_on_c, 1, 71, 64
2, 6864, Note_on_c, 1, 71, 0
2, 6864, Note_on_c, 1, 69, 64
2, 6876, Note_on_c, 1, 69, 0
2, 6876, Note_on_c, 1, 71, 64
2, 6888, Note_on_c, 1, 71, 0
2, 6888, Note_on_c, 1, 68, 64
2, 6900, Note_on_c, 1, 68, 0
2, 6900, Note_on_c, 1, 69, 64
2, 6912, Note_on_c, 1, 69, 0
2, 6912, Note_on_c, 1, 71, 64
2, 6936, Note_on_c, 1, 71, 0
2, 6936, Note_on_c, 1, 73, 64
2, 6959, Note_on_c, 1, 73, 0
2, 6960, Note_on_c, 1, 73, 64
2, 6972, Note_on_c, 1, 73, 0
2, 6972, Note_on_c, 1, 74, 64
2, 6984, Note_on_c, 1, 74, 0
2, 6984, Note_on_c, 1, 73, 64
2, 6996, Note_on_c, 1, 73, 0
2, 6996, Note_on_c, 1, 74, 64
2, 7008, Note_on_c, 1, 74, 0
2, 7008, Note_on_c, 1, 73, 64
2, 7020, Note_on_c, 1, 73, 0
2, 7020, Note_on_c, 1, 74, 64
2, 7032, Note_on_c, 1, 74, 0
2, 7032, Note_on_c, 1, 71, 64
2, 7044, Note_on_c, 1, 71, 0
2, 7044, Note_on_c, 1, 73, 64
2, 7056, Note_on_c, 1, 73, 0
2, 7056, Note_on_c, 1, 74, 64
2, 7080, Note_on_c, 1, 74, 0
2, 7080, Note_on_c, 1, 76, 64
2, 7103, Note_on_c, 1, 76, 0
2, 7104, Note_on_c, 1, 76, 64
2, 7116, Note_on_c, 1, 76, 0
2, 7116, Note_on_c, 1, 78, 64
2, 7128, Note_on_c, 1, 78, 0
2, 7128, Note_on_c, 1, 76, 64
2, 7140, Note_on_c, 1, 76, 0
2, 7140, Note_on_c, 1, 78, 64
2, 7152, Note_on_c, 1, 78, 0
2, 7152, Note_on_c, 1, 80, 64
2, 7175, Note_on_c, 1, 80, 0
2, 7176, Note_on_c, 1, 76, 64
2, 7188, Note_on_c, 1, 76, 0
2, 7188, Note_on_c, 1, 78, 64
2, 7200, Note_on_c, 1, 78, 0
2, 7200, Note_on_c, 1, 80, 64
2, 7212, Note_on_c, 1, 80, 0
2, 7212, Note_on_c, 1, 81, 64
2, 7224, Note_on_c, 1, 81, 0
2, 7224, Note_on_c, 1, 78, 64
2, 7236, Note_on_c, 1, 78, 0
2, 7236, Note_on_c, 1, 80, 64
2, 7248, Note_on_c, 1, 80, 0
2, 7248, Note_on_c, 1, 81, 64
2, 7315, Note_on_c, 1, 81, 0
2, 7320, Note_on_c, 1, 83, 64
2, 7343, Note_on_c, 1, 83, 0
2, 7344, Note_on_c, 1, 80, 64
2, 7368, Note_on_c, 1, 80, 0
2, 7368, Note_on_c, 1, 78, 64
2, 7391, Note_on_c, 1, 78, 0
2, 7392, Note_on_c, 1, 81, 64
2, 7416, Note_on_c, 1, 81, 0
2, 7416, Note_on_c, 1, 80, 64
2, 7439, Note_on_c, 1, 80, 0
2, 7440, Note_on_c, 1, 78, 64
2, 7464, Note_on_c, 1, 78, 0
2, 7464, Note_on_c, 1, 76, 64
2, 7487, Note_on_c, 1, 76, 0
2, 7488, Note_on_c, 1, 79, 64
2, 7799, Note_on_c, 1, 79, 0
2, 7800, Note_on_c, 1, 83, 64
2, 7823, Note_on_c, 1, 83, 0
2, 7824, Note_on_c, 1, 81, 64
2, 7848, Note_on_c, 1, 81, 0
2, 7848, Note_on_c, 1, 78, 64
2, 7871, Note_on_c, 1, 78, 0
2, 7872, Note_on_c, 1, 79, 64
2, 7896, Note_on_c, 1, 79, 0
2, 7896, Note_on_c, 1, 76, 64
2, 7919, Note_on_c, 1, 76, 0
2, 7920, Note_on_c, 1, 78, 64
2, 8087, Note_on_c, 1, 78, 0
2, 8088, Note_on_c, 1, 78, 64
2, 8111, Note_on_c, 1, 78, 0
2, 8112, Note_on_c, 1, 76, 64
2, 8136, Note_on_c, 1, 76, 0
2, 8136, Note_on_c, 1, 73, 64
2, 8159, Note_on_c, 1, 73, 0
2, 8160, Note_on_c, 1, 74, 64
2, 8183, Note_on_c, 1, 74, 0
2, 8184, Note_on_c, 1, 71, 64
2, 8207, Note_on_c, 1, 71, 0
2, 8208, Note_on_c, 1, 73, 64
2, 8375, Note_on_c, 1, 73, 0
2, 8376, Note_on_c, 1, 73, 64
2, 8399, Note_on_c, 1, 73, 0
2, 8400, Note_on_c, 1, 71, 64
2, 8423, Note_on_c, 1, 71, 0
2, 8424, Note_on_c, 1, 68, 64
2, 8447, Note_on_c, 1, 68, 0
2, 8448, Note_on_c, 1, 69, 64
2, 8471, Note_on_c, 1, 69, 0
2, 8472, Note_on_c, 1, 66, 64
2, 8495, Note_on_c, 1, 66, 0
2, 8496, Note_on_c, 1, 68, 64
2, 8519, Note_on_c, 1, 68, 0
2, 8520, Note_on_c, 1, 74, 64
2, 8543, Note_on_c, 1, 74, 0
2, 8544, Note_on_c, 1, 73, 64
2, 8567, Note_on_c, 1, 73, 0
2, 8568, Note_on_c, 1, 69, 64
2, 8591, Note_on_c, 1, 69, 0
2, 8592, Note_on_c, 1, 71, 64
2, 8615, Note_on_c, 1, 71, 0
2, 8616, Note_on_c, 1, 68, 64
2, 8639, Note_on_c, 1, 68, 0
2, 8640, Note_on_c, 1, 69, 64
2, 8663, Note_on_c, 1, 69, 0
2, 8664, Note_on_c, 1, 76, 64
2, 8687, Note_on_c, 1, 76, 0
2, 8688, Note_on_c, 1, 74, 64
2, 8711, Note_on_c, 1, 74, 0
2, 8712, Note_on_c, 1, 71, 64
2, 8735, Note_on_c, 1, 71, 0
2, 8736, Note_on_c, 1, 73, 64
2, 8759, Note_on_c, 1, 73, 0
2, 8760, Note_on_c, 1, 69, 64
2, 8783, Note_on_c, 1, 69, 0
2, 8784, Note_on_c, 1, 71, 64
2, 8807, Note_on_c, 1, 71, 0
2, 8808, Note_on_c, 1, 78, 64
2, 8831, Note_on_c, 1, 78, 0
2, 8832, Note_on_c, 1, 76, 64
2, 8855, Note_on_c, 1, 76, 0
2, 8856, Note_on_c, 1, 73, 64
2, 8879, Note_on_c, 1, 73, 0
2, 8880, Note_on_c, 1, 74, 64
2, 8903, Note_on_c, 1, 74, 0
2, 8904, Note_on_c, 1, 71, 64
2, 8927, Note_on_c, 1, 71, 0
2, 8928, Note_on_c, 1, 73, 64
2, 8951, Note_on_c, 1, 73, 0
2, 8952, Note_on_c, 1, 71, 64
2, 8975, Note_on_c, 1, 71, 0
2, 8976, Note_on_c, 1, 74, 64
2, 8999, Note_on_c, 1, 74, 0
2, 9000, Note_on_c, 1, 73, 64
2, 9023, Note_on_c, 1, 73, 0
2, 9024, Note_on_c, 1, 71, 64
2, 9047, Note_on_c, 1, 71, 0
2, 9048, Note_on_c, 1, 69, 64
2, 9071, Note_on_c, 1, 69, 0
2, 9072, Note_on_c, 1, 76, 64
2, 9095, Note_on_c, 1, 76, 0
2, 9096, Note_on_c, 1, 78, 64
2, 9119, Note_on_c, 1, 78, 0
2, 9120, Note_on_c, 1, 71, 64
2, 9132, Note_on_c, 1, 71, 0
2, 9132, Note_on_c, 1, 73, 64
2, 9144, Note_on_c, 1, 73, 0
2, 9144, Note_on_c, 1, 71, 64
2, 9156, Note_on_c, 1, 71, 0
2, 9156, Note_on_c, 1, 73, 64
2, 9168, Note_on_c, 1, 73, 0
2, 9168, Note_on_c, 1, 71, 64
2, 9180, Note_on_c, 1, 71, 0
2, 9180, Note_on_c, 1, 73, 64
2, 9192, Note_on_c, 1, 73, 0
2, 9192, Note_on_c, 1, 69, 64
2, 9215, Note_on_c, 1, 69, 0
2, 9216, Note_on_c, 1, 69, 64
2, 9239, Note_on_c, 1, 69, 0
2, 9240, Note_on_c, 1, 64, 64
2, 9263, Note_on_c, 1, 64, 0
2, 9264, Note_on_c, 1, 66, 64
2, 9287, Note_on_c, 1, 66, 0
2, 9288, Note_on_c, 1, 62, 64
2, 9311, Note_on_c, 1, 62, 0
2, 9312, Note_on_c, 1, 64, 64
2, 9383, Note_on_c, 1, 64, 0
2, 9384, Note_on_c, 1, 69, 64
2, 9407, Note_on_c, 1, 69, 0
2, 9408, Note_on_c, 1, 64, 64
2, 9431, Note_on_c, 1, 64, 0
2, 9432, Note_on_c, 1, 61, 64
2, 9455, Note_on_c, 1, 61, 0
2, 9456, Note_on_c, 1, 62, 64
2, 9479, Note_on_c, 1, 62, 0
2, 9480, Note_on_c, 1, 59, 64
2, 9503, Note_on_c, 1, 59, 0
2, 9504, Note_on_c, 1, 60, 64
2, 9637, Note_on_c, 1, 60, 0
2, 9648, Note_on_c, 1, 59, 64
2, 9959, Note_on_c, 1, 59, 0
2, 9960, Note_on_c, 1, 78, 64
2, 9983, Note_on_c, 1, 78, 0
2, 9984, Note_on_c, 1, 81, 64
2, 10007, Note_on_c, 1, 81, 0
2, 10008, Note_on_c, 1, 80, 64
2, 10031, Note_on_c, 1, 80, 0
2, 10032, Note_on_c, 1, 78, 64
2, 10055, Note_on_c, 1, 78, 0
2, 10056, Note_on_c, 1, 76, 64
2, 10079, Note_on_c, 1, 76, 0
2, 10080, Note_on_c, 1, 81, 64
2, 10103, Note_on_c, 1, 81, 0
2, 10104, Note_on_c, 1, 76, 64
2, 10127, Note_on_c, 1, 76, 0
2, 10128, Note_on_c, 1, 78, 64
2, 10151, Note_on_c, 1, 78, 0
2, 10152, Note_on_c, 1, 74, 64
2, 10175, Note_on_c, 1, 74, 0
2, 10176, Note_on_c, 1, 76, 64
2, 10247, Note_on_c, 1, 76, 0
2, 10248, Note_on_c, 1, 81, 64
2, 10271, Note_on_c, 1, 81, 0
2, 10272, Note_on_c, 1, 76, 64
2, 10295, Note_on_c, 1, 76, 0
2, 10296, Note_on_c, 1, 73, 64
2, 10319, Note_on_c, 1, 73, 0
2, 10320, Note_on_c, 1, 74, 64
2, 10343, Note_on_c, 1, 74, 0
2, 10344, Note_on_c, 1, 71, 64
2, 10367, Note_on_c, 1, 71, 0
2, 10368, Note_on_c, 1, 73, 64
2, 10391, Note_on_c, 1, 73, 0
2, 10392, Note_on_c, 1, 74, 64
2, 10415, Note_on_c, 1, 74, 0
2, 10416, Note_on_c, 1, 74, 64
2, 10428, Note_on_c, 1, 74, 0
2, 10428, Note_on_c, 1, 76, 64
2, 10440, Note_on_c, 1, 76, 0
2, 10440, Note_on_c, 1, 73, 64
2, 10452, Note_on_c, 1, 73, 0
2, 10452, Note_on_c, 1, 74, 64
2, 10464, Note_on_c, 1, 74, 0
2, 10464, Note_on_c, 1, 76, 64
2, 10535, Note_on_c, 1, 76, 0
2, 10536, Note_on_c, 1, 78, 64
2, 10559, Note_on_c, 1, 78, 0
2, 10560, Note_on_c, 1, 71, 64
2, 10572, Note_on_c, 1, 71, 0
2, 10572, Note_on_c, 1, 73, 64
2, 10584, Note_on_c, 1, 73, 0
2, 10584, Note_on_c, 1, 71, 64
2, 10596, Note_on_c, 1, 71, 0
2, 10596, Note_on_c, 1, 73, 64
2, 10608, Note_on_c, 1, 73, 0
2, 10608, Note_on_c, 1, 71, 64
2, 10620, Note_on_c, 1, 71, 0
2, 10620, Note_on_c, 1, 73, 64
2, 10632, Note_on_c, 1, 73, 0
2, 10632, Note_on_c, 1, 69, 64
2, 10655, Note_on_c, 1, 69, 0
2, 10656, Note_on_c, 1, 69, 64
2, 10679, Note_on_c, 1, 69, 0
2, 10680, Note_on_c, 1, 66, 64
2, 10703, Note_on_c, 1, 66, 0
2, 10704, Note_on_c, 1, 64, 64
2, 10728, Note_on_c, 1, 64, 0
2, 10728, Note_on_c, 1, 61, 64
2, 10751, Note_on_c, 1, 61, 0
2, 10752, Note_on_c, 1, 62, 64
2, 10776, Note_on_c, 1, 62, 0
2, 10776, Note_on_c, 1, 59, 64
2, 10799, Note_on_c, 1, 59, 0
2, 10800, Note_on_c, 1, 61, 64
2, 10933, Note_on_c, 1, 61, 0
2, 10933, End_track
3, 0, Start_track
3, 0, MIDI_port, 0
3, 0, Title_t, "Clavier (RH)"
3, 0, Program_c, 0, 6
3, 0, Control_c, 0, 7, 127
3, 288, Note_on_c, 0, 69, 64
3, 377, Note_on_c, 0, 69, 0
3, 384, Note_on_c, 0, 64, 64
3, 429, Note_on_c, 0, 64, 0
3, 432, Note_on_c, 0, 66, 64
3, 455, Note_on_c, 0, 66, 0
3, 456, Note_on_c, 0, 68, 64
3, 479, Note_on_c, 0, 68, 0
3, 480, Note_on_c, 0, 68, 64
3, 492, Note_on_c, 0, 68, 0
3, 492, Note_on_c, 0, 69, 64
3, 504, Note_on_c, 0, 69, 0
3, 504, Note_on_c, 0, 68, 64
3, 516, Note_on_c, 0, 68, 0
3, 516, Note_on_c, 0, 69, 64
3, 528, Note_on_c, 0, 69, 0
3, 528, Note_on_c, 0, 68, 64
3, 540, Note_on_c, 0, 68, 0
3, 540, Note_on_c, 0, 69, 64
3, 552, Note_on_c, 0, 69, 0
3, 552, Note_on_c, 0, 66, 64
3, 564, Note_on_c, 0, 66, 0
3, 564, Note_on_c, 0, 68, 64
3, 576, Note_on_c, 0, 68, 0
3, 576, Note_on_c, 0, 69, 64
3, 599, Note_on_c, 0, 69, 0
3, 600, Note_on_c, 0, 68, 64
3, 623, Note_on_c, 0, 68, 0
3, 624, Note_on_c, 0, 69, 64
3, 647, Note_on_c, 0, 69, 0
3, 648, Note_on_c, 0, 71, 64
3, 671, Note_on_c, 0, 71, 0
3, 672, Note_on_c, 0, 73, 64
3, 695, Note_on_c, 0, 73, 0
3, 696, Note_on_c, 0, 71, 64
3, 719, Note_on_c, 0, 71, 0
3, 720, Note_on_c, 0, 71, 64
3, 732, Note_on_c, 0, 71, 0
3, 732, Note_on_c, 0, 73, 64
3, 744, Note_on_c, 0, 73, 0
3, 744, Note_on_c, 0, 74, 64
3, 767, Note_on_c, 0, 74, 0
3, 768, Note_on_c, 0, 73, 64
3, 791, Note_on_c, 0, 73, 0
3, 792, Note_on_c, 0, 71, 64
3, 815, Note_on_c, 0, 71, 0
3, 816, Note_on_c, 0, 76, 64
3, 861, Note_on_c, 0, 76, 0
3, 864, Note_on_c, 0, 73, 64
3, 909, Note_on_c, 0, 73, 0
3, 912, Note_on_c, 0, 76, 64
3, 935, Note_on_c, 0, 76, 0
3, 936, Note_on_c, 0, 75, 64
3, 959, Note_on_c, 0, 75, 0
3, 960, Note_on_c, 0, 78, 64
3, 983, Note_on_c, 0, 78, 0
3, 984, Note_on_c, 0, 76, 64
3, 1007, Note_on_c, 0, 76, 0
3, 1008, Note_on_c, 0, 75, 64
3, 1031, Note_on_c, 0, 75, 0
3, 1032, Note_on_c, 0, 71, 64
3, 1055, Note_on_c, 0, 71, 0
3, 1056, Note_on_c, 0, 76, 64
3, 1145, Note_on_c, 0, 76, 0
3, 1152, Note_on_c, 0, 76, 64
3, 1197, Note_on_c, 0, 76, 0
3, 1200, Note_on_c, 0, 75, 64
3, 1289, Note_on_c, 0, 75, 0
3, 1296, Note_on_c, 0, 76, 64
3, 1319, Note_on_c, 0, 76, 0
3, 1320, Note_on_c, 0, 75, 64
3, 1343, Note_on_c, 0, 75, 0
3, 1344, Note_on_c, 0, 80, 64
3, 1367, Note_on_c, 0, 80, 0
3, 1368, Note_on_c, 0, 78, 64
3, 1391, Note_on_c, 0, 78, 0
3, 1392, Note_on_c, 0, 76, 64
3, 1415, Note_on_c, 0, 76, 0
3, 1416, Note_on_c, 0, 75, 64
3, 1439, Note_on_c, 0, 75, 0
3, 1440, Note_on_c, 0, 73, 64
3, 1573, Note_on_c, 0, 73, 0
3, 1584, Note_on_c, 0, 73, 64
3, 1607, Note_on_c, 0, 73, 0
3, 1608, Note_on_c, 0, 78, 64
3, 1631, Note_on_c, 0, 78, 0
3, 1632, Note_on_c, 0, 71, 64
3, 1655, Note_on_c, 0, 71, 0
3, 1656, Note_on_c, 0, 69, 64
3, 1679, Note_on_c, 0, 69, 0
3, 1680, Note_on_c, 0, 68, 64
3, 1703, Note_on_c, 0, 68, 0
3, 1704, Note_on_c, 0, 66, 64
3, 1727, Note_on_c, 0, 66, 0
3, 1728, Note_on_c, 0, 68, 64
3, 1751, Note_on_c, 0, 68, 0
3, 1752, Note_on_c, 0, 69, 64
3, 1775, Note_on_c, 0, 69, 0
3, 1776, Note_on_c, 0, 71, 64
3, 1799, Note_on_c, 0, 71, 0
3, 1800, Note_on_c, 0, 69, 64
3, 1823, Note_on_c, 0, 69, 0
3, 1824, Note_on_c, 0, 73, 64
3, 1847, Note_on_c, 0, 73, 0
3, 1848, Note_on_c, 0, 71, 64
3, 1871, Note_on_c, 0, 71, 0
3, 1872, Note_on_c, 0, 69, 64
3, 1895, Note_on_c, 0, 69, 0
3, 1896, Note_on_c, 0, 71, 64
3, 1908, Note_on_c, 0, 71, 0
3, 1908, Note_on_c, 0, 68, 64
3, 1920, Note_on_c, 0, 68, 0
3, 1920, Note_on_c, 0, 66, 64
3, 1932, Note_on_c, 0, 66, 0
3, 1932, Note_on_c, 0, 68, 64
3, 1944, Note_on_c, 0, 68, 0
3, 1944, Note_on_c, 0, 66, 64
3, 1956, Note_on_c, 0, 66, 0
3, 1956, Note_on_c, 0, 68, 64
3, 1968, Note_on_c, 0, 68, 0
3, 1968, Note_on_c, 0, 66, 64
3, 1980, Note_on_c, 0, 66, 0
3, 1980, Note_on_c, 0, 68, 64
3, 1992, Note_on_c, 0, 68, 0
3, 1992, Note_on_c, 0, 64, 64
3, 2015, Note_on_c, 0, 64, 0
3, 2016, Note_on_c, 0, 64, 64
3, 2039, Note_on_c, 0, 64, 0
3, 2040, Note_on_c, 0, 68, 64
3, 2063, Note_on_c, 0, 68, 0
3, 2064, Note_on_c, 0, 69, 64
3, 2087, Note_on_c, 0, 69, 0
3, 2088, Note_on_c, 0, 66, 64
3, 2111, Note_on_c, 0, 66, 0
3, 2112, Note_on_c, 0, 68, 64
3, 2183, Note_on_c, 0, 68, 0
3, 2184, Note_on_c, 0, 71, 64
3, 2207, Note_on_c, 0, 71, 0
3, 2208, Note_on_c, 0, 68, 64
3, 2231, Note_on_c, 0, 68, 0
3, 2232, Note_on_c, 0, 64, 64
3, 2255, Note_on_c, 0, 64, 0
3, 2256, Note_on_c, 0, 66, 64
3, 2279, Note_on_c, 0, 66, 0
3, 2280, Note_on_c, 0, 63, 64
3, 2303, Note_on_c, 0, 63, 0
3, 2304, Note_on_c, 0, 64, 64
3, 2393, Note_on_c, 0, 64, 0
3, 2400, Note_on_c, 0, 59, 64
3, 2445, Note_on_c, 0, 59, 0
3, 2448, Note_on_c, 0, 61, 64
3, 2471, Note_on_c, 0, 61, 0
3, 2472, Note_on_c, 0, 63, 64
3, 2495, Note_on_c, 0, 63, 0
3, 2496, Note_on_c, 0, 63, 64
3, 2508, Note_on_c, 0, 63, 0
3, 2508, Note_on_c, 0, 64, 64
3, 2520, Note_on_c, 0, 64, 0
3, 2520, Note_on_c, 0, 63, 64
3, 2532, Note_on_c, 0, 63, 0
3, 2532, Note_on_c, 0, 64, 64
3, 2544, Note_on_c, 0, 64, 0
3, 2544, Note_on_c, 0, 63, 64
3, 2556, Note_on_c, 0, 63, 0
3, 2556, Note_on_c, 0, 64, 64
3, 2568, Note_on_c, 0, 64, 0
3, 2568, Note_on_c, 0, 61, 64
3, 2580, Note_on_c, 0, 61, 0
3, 2580, Note_on_c, 0, 63, 64
3, 2592, Note_on_c, 0, 63, 0
3, 2592, Note_on_c, 0, 64, 64
3, 2615, Note_on_c, 0, 64, 0
3, 2616, Note_on_c, 0, 63, 64
3, 2639, Note_on_c, 0, 63, 0
3, 2640, Note_on_c, 0, 64, 64
3, 2663, Note_on_c, 0, 64, 0
3, 2664, Note_on_c, 0, 66, 64
3, 2687, Note_on_c, 0, 66, 0
3, 2688, Note_on_c, 0, 68, 64
3, 2711, Note_on_c, 0, 68, 0
3, 2712, Note_on_c, 0, 66, 64
3, 2735, Note_on_c, 0, 66, 0
3, 2736, Note_on_c, 0, 66, 64
3, 2748, Note_on_c, 0, 66, 0
3, 2748, Note_on_c, 0, 68, 64
3, 2760, Note_on_c, 0, 68, 0
3, 2760, Note_on_c, 0, 69, 64
3, 2783, Note_on_c, 0, 69, 0
3, 2784, Note_on_c, 0, 68, 64
3, 2807, Note_on_c, 0, 68, 0
3, 2808, Note_on_c, 0, 66, 64
3, 2831, Note_on_c, 0, 66, 0
3, 2832, Note_on_c, 0, 71, 64
3, 2877, Note_on_c, 0, 71, 0
3, 2880, Note_on_c, 0, 68, 64
3, 2925, Note_on_c, 0, 68, 0
3, 2928, Note_on_c, 0, 71, 64
3, 2973, Note_on_c, 0, 71, 0
3, 2976, Note_on_c, 0, 76, 64
3, 3021, Note_on_c, 0, 76, 0
3, 3024, Note_on_c, 0, 76, 64
3, 3047, Note_on_c, 0, 76, 0
3, 3048, Note_on_c, 0, 75, 64
3, 3071, Note_on_c, 0, 75, 0
3, 3072, Note_on_c, 0, 78, 64
3, 3161, Note_on_c, 0, 78, 0
3, 3168, Note_on_c, 0, 78, 64
3, 3191, Note_on_c, 0, 78, 0
3, 3192, Note_on_c, 0, 76, 64
3, 3215, Note_on_c, 0, 76, 0
3, 3216, Note_on_c, 0, 79, 64
3, 3239, Note_on_c, 0, 79, 0
3, 3240, Note_on_c, 0, 78, 64
3, 3263, Note_on_c, 0, 78, 0
3, 3264, Note_on_c, 0, 76, 64
3, 3287, Note_on_c, 0, 76, 0
3, 3288, Note_on_c, 0, 74, 64
3, 3311, Note_on_c, 0, 74, 0
3, 3312, Note_on_c, 0, 73, 64
3, 3335, Note_on_c, 0, 73, 0
3, 3336, Note_on_c, 0, 74, 64
3, 3359, Note_on_c, 0, 74, 0
3, 3360, Note_on_c, 0, 74, 64
3, 3372, Note_on_c, 0, 74, 0
3, 3372, Note_on_c, 0, 76, 64
3, 3384, Note_on_c, 0, 76, 0
3, 3384, Note_on_c, 0, 74, 64
3, 3396, Note_on_c, 0, 74, 0
3, 3396, Note_on_c, 0, 76, 64
3, 3408, Note_on_c, 0, 76, 0
3, 3408, Note_on_c, 0, 74, 64
3, 3420, Note_on_c, 0, 74, 0
3, 3420, Note_on_c, 0, 76, 64
3, 3432, Note_on_c, 0, 76, 0
3, 3432, Note_on_c, 0, 73, 64
3, 3444, Note_on_c, 0, 73, 0
3, 3444, Note_on_c, 0, 74, 64
3, 3456, Note_on_c, 0, 74, 0
3, 3456, Note_on_c, 0, 76, 64
3, 3479, Note_on_c, 0, 76, 0
3, 3480, Note_on_c, 0, 74, 64
3, 3503, Note_on_c, 0, 74, 0
3, 3504, Note_on_c, 0, 78, 64
3, 3527, Note_on_c, 0, 78, 0
3, 3528, Note_on_c, 0, 76, 64
3, 3551, Note_on_c, 0, 76, 0
3, 3552, Note_on_c, 0, 74, 64
3, 3575, Note_on_c, 0, 74, 0
3, 3576, Note_on_c, 0, 73, 64
3, 3599, Note_on_c, 0, 73, 0
3, 3600, Note_on_c, 0, 74, 64
3, 3645, Note_on_c, 0, 74, 0
3, 3648, Note_on_c, 0, 78, 64
3, 3671, Note_on_c, 0, 78, 0
3, 3672, Note_on_c, 0, 77, 64
3, 3695, Note_on_c, 0, 77, 0
3, 3696, Note_on_c, 0, 80, 64
3, 3719, Note_on_c, 0, 80, 0
3, 3720, Note_on_c, 0, 78, 64
3, 3743, Note_on_c, 0, 78, 0
3, 3744, Note_on_c, 0, 77, 64
3, 3767, Note_on_c, 0, 77, 0
3, 3768, Note_on_c, 0, 73, 64
3, 3791, Note_on_c, 0, 73, 0
3, 3792, Note_on_c, 0, 78, 64
3, 3925, Note_on_c, 0, 78, 0
3, 3936, Note_on_c, 0, 77, 64
3, 4025, Note_on_c, 0, 77, 0
3, 4032, Note_on_c, 0, 78, 64
3, 4055, Note_on_c, 0, 78, 0
3, 4056, Note_on_c, 0, 76, 64
3, 4079, Note_on_c, 0, 76, 0
3, 4080, Note_on_c, 0, 74, 64
3, 4103, Note_on_c, 0, 74, 0
3, 4104, Note_on_c, 0, 73, 64
3, 4127, Note_on_c, 0, 73, 0
3, 4128, Note_on_c, 0, 71, 64
3, 4151, Note_on_c, 0, 71, 0
3, 4152, Note_on_c, 0, 69, 64
3, 4175, Note_on_c, 0, 69, 0
3, 4176, Note_on_c, 0, 74, 64
3, 4343, Note_on_c, 0, 74, 0
3, 4344, Note_on_c, 0, 80, 64
3, 4367, Note_on_c, 0, 80, 0
3, 4368, Note_on_c, 0, 73, 64
3, 4391, Note_on_c, 0, 73, 0
3, 4392, Note_on_c, 0, 71, 64
3, 4415, Note_on_c, 0, 71, 0
3, 4416, Note_on_c, 0, 69, 64
3, 4439, Note_on_c, 0, 69, 0
3, 4440, Note_on_c, 0, 68, 64
3, 4463, Note_on_c, 0, 68, 0
3, 4464, Note_on_c, 0, 69, 64
3, 4487, Note_on_c, 0, 69, 0
3, 4488, Note_on_c, 0, 71, 64
3, 4511, Note_on_c, 0, 71, 0
3, 4512, Note_on_c, 0, 73, 64
3, 4535, Note_on_c, 0, 73, 0
3, 4536, Note_on_c, 0, 71, 64
3, 4559, Note_on_c, 0, 71, 0
3, 4560, Note_on_c, 0, 74, 64
3, 4583, Note_on_c, 0, 74, 0
3, 4584, Note_on_c, 0, 73, 64
3, 4607, Note_on_c, 0, 73, 0
3, 4608, Note_on_c, 0, 71, 64
3, 4631, Note_on_c, 0, 71, 0
3, 4632, Note_on_c, 0, 73, 64
3, 4644, Note_on_c, 0, 73, 0
3, 4644, Note_on_c, 0, 69, 64
3, 4656, Note_on_c, 0, 69, 0
3, 4656, Note_on_c, 0, 68, 64
3, 4668, Note_on_c, 0, 68, 0
3, 4668, Note_on_c, 0, 69, 64
3, 4680, Note_on_c, 0, 69, 0
3, 4680, Note_on_c, 0, 68, 64
3, 4692, Note_on_c, 0, 68, 0
3, 4692, Note_on_c, 0, 69, 64
3, 4704, Note_on_c, 0, 69, 0
3, 4704, Note_on_c, 0, 68, 64
3, 4716, Note_on_c, 0, 68, 0
3, 4716, Note_on_c, 0, 69, 64
3, 4728, Note_on_c, 0, 69, 0
3, 4728, Note_on_c, 0, 66, 64
3, 4751, Note_on_c, 0, 66, 0
3, 4752, Note_on_c, 0, 66, 64
3, 4775, Note_on_c, 0, 66, 0
3, 4776, Note_on_c, 0, 73, 64
3, 4799, Note_on_c, 0, 73, 0
3, 4800, Note_on_c, 0, 78, 64
3, 4823, Note_on_c, 0, 78, 0
3, 4824, Note_on_c, 0, 76, 64
3, 4847, Note_on_c, 0, 76, 0
3, 4848, Note_on_c, 0, 74, 64
3, 4871, Note_on_c, 0, 74, 0
3, 4872, Note_on_c, 0, 73, 64
3, 4895, Note_on_c, 0, 73, 0
3, 4896, Note_on_c, 0, 71, 64
3, 4919, Note_on_c, 0, 71, 0
3, 4920, Note_on_c, 0, 70, 64
3, 4943, Note_on_c, 0, 70, 0
3, 4944, Note_on_c, 0, 76, 64
3, 4967, Note_on_c, 0, 76, 0
3, 4968, Note_on_c, 0, 74, 64
3, 4991, Note_on_c, 0, 74, 0
3, 4992, Note_on_c, 0, 76, 64
3, 5063, Note_on_c, 0, 76, 0
3, 5064, Note_on_c, 0, 78, 64
3, 5087, Note_on_c, 0, 78, 0
3, 5088, Note_on_c, 0, 74, 64
3, 5112, Note_on_c, 0, 74, 0
3, 5112, Note_on_c, 0, 71, 64
3, 5135, Note_on_c, 0, 71, 0
3, 5136, Note_on_c, 0, 73, 64
3, 5160, Note_on_c, 0, 73, 0
3, 5160, Note_on_c, 0, 70, 64
3, 5183, Note_on_c, 0, 70, 0
3, 5184, Note_on_c, 0, 71, 64
3, 5317, Note_on_c, 0, 71, 0
3, 5496, Note_on_c, 0, 76, 64
3, 5519, Note_on_c, 0, 76, 0
3, 5520, Note_on_c, 0, 71, 64
3, 5544, Note_on_c, 0, 71, 0
3, 5544, Note_on_c, 0, 68, 64
3, 5567, Note_on_c, 0, 68, 0
3, 5568, Note_on_c, 0, 69, 64
3, 5592, Note_on_c, 0, 69, 0
3, 5592, Note_on_c, 0, 66, 64
3, 5615, Note_on_c, 0, 66, 0
3, 5616, Note_on_c, 0, 68, 64
3, 5639, Note_on_c, 0, 68, 0
3, 5640, Note_on_c, 0, 71, 64
3, 5663, Note_on_c, 0, 71, 0
3, 5664, Note_on_c, 0, 76, 64
3, 5687, Note_on_c, 0, 76, 0
3, 5688, Note_on_c, 0, 74, 64
3, 5711, Note_on_c, 0, 74, 0
3, 5712, Note_on_c, 0, 73, 64
3, 5735, Note_on_c, 0, 73, 0
3, 5736, Note_on_c, 0, 71, 64
3, 5759, Note_on_c, 0, 71, 0
3, 5760, Note_on_c, 0, 69, 64
3, 5783, Note_on_c, 0, 69, 0
3, 5784, Note_on_c, 0, 68, 64
3, 5807, Note_on_c, 0, 68, 0
3, 5808, Note_on_c, 0, 74, 64
3, 5831, Note_on_c, 0, 74, 0
3, 5832, Note_on_c, 0, 73, 64
3, 5855, Note_on_c, 0, 73, 0
3, 5856, Note_on_c, 0, 74, 64
3, 5927, Note_on_c, 0, 74, 0
3, 5928, Note_on_c, 0, 76, 64
3, 5951, Note_on_c, 0, 76, 0
3, 5952, Note_on_c, 0, 73, 64
3, 5976, Note_on_c, 0, 73, 0
3, 5976, Note_on_c, 0, 69, 64
3, 5999, Note_on_c, 0, 69, 0
3, 6000, Note_on_c, 0, 71, 64
3, 6024, Note_on_c, 0, 71, 0
3, 6024, Note_on_c, 0, 68, 64
3, 6047, Note_on_c, 0, 68, 0
3, 6048, Note_on_c, 0, 69, 64
3, 6181, Note_on_c, 0, 69, 0
3, 6360, Note_on_c, 0, 74, 64
3, 6383, Note_on_c, 0, 74, 0
3, 6384, Note_on_c, 0, 69, 64
3, 6407, Note_on_c, 0, 69, 0
3, 6408, Note_on_c, 0, 66, 64
3, 6431, Note_on_c, 0, 66, 0
3, 6432, Note_on_c, 0, 67, 64
3, 6455, Note_on_c, 0, 67, 0
3, 6456, Note_on_c, 0, 64, 64
3, 6479, Note_on_c, 0, 64, 0
3, 6480, Note_on_c, 0, 66, 64
3, 6503, Note_on_c, 0, 66, 0
3, 6504, Note_on_c, 0, 69, 64
3, 6527, Note_on_c, 0, 69, 0
3, 6528, Note_on_c, 0, 66, 64
3, 6551, Note_on_c, 0, 66, 0
3, 6552, Note_on_c, 0, 62, 64
3, 6575, Note_on_c, 0, 62, 0
3, 6576, Note_on_c, 0, 64, 64
3, 6599, Note_on_c, 0, 64, 0
3, 6600, Note_on_c, 0, 61, 64
3, 6623, Note_on_c, 0, 61, 0
3, 6624, Note_on_c, 0, 62, 64
3, 6647, Note_on_c, 0, 62, 0
3, 6648, Note_on_c, 0, 66, 64
3, 6671, Note_on_c, 0, 66, 0
3, 6672, Note_on_c, 0, 62, 64
3, 6695, Note_on_c, 0, 62, 0
3, 6696, Note_on_c, 0, 59, 64
3, 6719, Note_on_c, 0, 59, 0
3, 6720, Note_on_c, 0, 61, 64
3, 6743, Note_on_c, 0, 61, 0
3, 6744, Note_on_c, 0, 57, 64
3, 6767, Note_on_c, 0, 57, 0
3, 6768, Note_on_c, 0, 59, 64
3, 6791, Note_on_c, 0, 59, 0
3, 6792, Note_on_c, 0, 61, 64
3, 6815, Note_on_c, 0, 61, 0
3, 6816, Note_on_c, 0, 61, 64
3, 6828, Note_on_c, 0, 61, 0
3, 6828, Note_on_c, 0, 62, 64
3, 6840, Note_on_c, 0, 62, 0
3, 6840, Note_on_c, 0, 61, 64
3, 6852, Note_on_c, 0, 61, 0
3, 6852, Note_on_c, 0, 62, 64
3, 6864, Note_on_c, 0, 62, 0
3, 6864, Note_on_c, 0, 61, 64
3, 6876, Note_on_c, 0, 61, 0
3, 6876, Note_on_c, 0, 62, 64
3, 6888, Note_on_c, 0, 62, 0
3, 6888, Note_on_c, 0, 61, 64
3, 6900, Note_on_c, 0, 61, 0
3, 6900, Note_on_c, 0, 62, 64
3, 6912, Note_on_c, 0, 62, 0
3, 6912, Note_on_c, 0, 62, 64
3, 6935, Note_on_c, 0, 62, 0
3, 6936, Note_on_c, 0, 64, 64
3, 6959, Note_on_c, 0, 64, 0
3, 6960, Note_on_c, 0, 64, 64
3, 6972, Note_on_c, 0, 64, 0
3, 6972, Note_on_c, 0, 66, 64
3, 6984, Note_on_c, 0, 66, 0
3, 6984, Note_on_c, 0, 64, 64
3, 6996, Note_on_c, 0, 64, 0
3, 6996, Note_on_c, 0, 66, 64
3, 7008, Note_on_c, 0, 66, 0
3, 7008, Note_on_c, 0, 64, 64
3, 7020, Note_on_c, 0, 64, 0
3, 7020, Note_on_c, 0, 66, 64
3, 7032, Note_on_c, 0, 66, 0
3, 7032, Note_on_c, 0, 62, 64
3, 7044, Note_on_c, 0, 62, 0
3, 7044, Note_on_c, 0, 64, 64
3, 7056, Note_on_c, 0, 64, 0
3, 7056, Note_on_c, 0, 66, 64
3, 7079, Note_on_c, 0, 66, 0
3, 7080, Note_on_c, 0, 68, 64
3, 7103, Note_on_c, 0, 68, 0
3, 7104, Note_on_c, 0, 68, 64
3, 7116, Note_on_c, 0, 68, 0
3, 7116, Note_on_c, 0, 69, 64
3, 7128, Note_on_c, 0, 69, 0
3, 7128, Note_on_c, 0, 66, 64
3, 7140, Note_on_c, 0, 66, 0
3, 7140, Note_on_c, 0, 68, 64
3, 7152, Note_on_c, 0, 68, 0
3, 7152, Note_on_c, 0, 69, 64
3, 7164, Note_on_c, 0, 69, 0
3, 7164, Note_on_c, 0, 71, 64
3, 7176, Note_on_c, 0, 71, 0
3, 7176, Note_on_c, 0, 68, 64
3, 7188, Note_on_c, 0, 68, 0
3, 7188, Note_on_c, 0, 69, 64
3, 7200, Note_on_c, 0, 69, 0
3, 7200, Note_on_c, 0, 71, 64
3, 7212, Note_on_c, 0, 71, 0
3, 7212, Note_on_c, 0, 73, 64
3, 7224, Note_on_c, 0, 73, 0
3, 7224, Note_on_c, 0, 69, 64
3, 7236, Note_on_c, 0, 69, 0
3, 7236, Note_on_c, 0, 71, 64
3, 7248, Note_on_c, 0, 71, 0
3, 7248, Note_on_c, 0, 73, 64
3, 7315, Note_on_c, 0, 73, 0
3, 7320, Note_on_c, 0, 74, 64
3, 7343, Note_on_c, 0, 74, 0
3, 7344, Note_on_c, 0, 71, 64
3, 7433, Note_on_c, 0, 71, 0
3, 7488, Note_on_c, 0, 76, 64
3, 7655, Note_on_c, 0, 76, 0
3, 7656, Note_on_c, 0, 76, 64
3, 7679, Note_on_c, 0, 76, 0
3, 7680, Note_on_c, 0, 74, 64
3, 7703, Note_on_c, 0, 74, 0
3, 7704, Note_on_c, 0, 71, 64
3, 7727, Note_on_c, 0, 71, 0
3, 7728, Note_on_c, 0, 73, 64
3, 7751, Note_on_c, 0, 73, 0
3, 7752, Note_on_c, 0, 69, 64
3, 7775, Note_on_c, 0, 69, 0
3, 7776, Note_on_c, 0, 74, 64
3, 7799, Note_on_c, 0, 74, 0
3, 7800, Note_on_c, 0, 67, 64
3, 7823, Note_on_c, 0, 67, 0
3, 7824, Note_on_c, 0, 66, 64
3, 7847, Note_on_c, 0, 66, 0
3, 7848, Note_on_c, 0, 62, 64
3, 7871, Note_on_c, 0, 62, 0
3, 7872, Note_on_c, 0, 64, 64
3, 7895, Note_on_c, 0, 64, 0
3, 7896, Note_on_c, 0, 61, 64
3, 7919, Note_on_c, 0, 61, 0
3, 7920, Note_on_c, 0, 62, 64
3, 7943, Note_on_c, 0, 62, 0
3, 7944, Note_on_c, 0, 66, 64
3, 7967, Note_on_c, 0, 66, 0
3, 7968, Note_on_c, 0, 69, 64
3, 7991, Note_on_c, 0, 69, 0
3, 7992, Note_on_c, 0, 73, 64
3, 8015, Note_on_c, 0, 73, 0
3, 8016, Note_on_c, 0, 74, 64
3, 8039, Note_on_c, 0, 74, 0
3, 8040, Note_on_c, 0, 78, 64
3, 8063, Note_on_c, 0, 78, 0
3, 8064, Note_on_c, 0, 71, 64
3, 8231, Note_on_c, 0, 71, 0
3, 8232, Note_on_c, 0, 61, 64
3, 8255, Note_on_c, 0, 61, 0
3, 8256, Note_on_c, 0, 64, 64
3, 8279, Note_on_c, 0, 64, 0
3, 8280, Note_on_c, 0, 68, 64
3, 8303, Note_on_c, 0, 68, 0
3, 8304, Note_on_c, 0, 69, 64
3, 8327, Note_on_c, 0, 69, 0
3, 8328, Note_on_c, 0, 73, 64
3, 8351, Note_on_c, 0, 73, 0
3, 8352, Note_on_c, 0, 66, 64
3, 8485, Note_on_c, 0, 66, 0
3, 8496, Note_on_c, 0, 66, 64
3, 8519, Note_on_c, 0, 66, 0
3, 8520, Note_on_c, 0, 64, 64
3, 8543, Note_on_c, 0, 64, 0
3, 8544, Note_on_c, 0, 68, 64
3, 8567, Note_on_c, 0, 68, 0
3, 8568, Note_on_c, 0, 66, 64
3, 8591, Note_on_c, 0, 66, 0
3, 8592, Note_on_c, 0, 68, 64
3, 8663, Note_on_c, 0, 68, 0
3, 8664, Note_on_c, 0, 66, 64
3, 8687, Note_on_c, 0, 66, 0
3, 8688, Note_on_c, 0, 69, 64
3, 8711, Note_on_c, 0, 69, 0
3, 8712, Note_on_c, 0, 68, 64
3, 8735, Note_on_c, 0, 68, 0
3, 8736, Note_on_c, 0, 69, 64
3, 8807, Note_on_c, 0, 69, 0
3, 8808, Note_on_c, 0, 68, 64
3, 8831, Note_on_c, 0, 68, 0
3, 8832, Note_on_c, 0, 71, 64
3, 8855, Note_on_c, 0, 71, 0
3, 8856, Note_on_c, 0, 69, 64
3, 8879, Note_on_c, 0, 69, 0
3, 8880, Note_on_c, 0, 71, 64
3, 8973, Note_on_c, 0, 71, 0
3, 8976, Note_on_c, 0, 69, 64
3, 9021, Note_on_c, 0, 69, 0
3, 9024, Note_on_c, 0, 68, 64
3, 9069, Note_on_c, 0, 68, 0
3, 9072, Note_on_c, 0, 69, 64
3, 9095, Note_on_c, 0, 69, 0
3, 9096, Note_on_c, 0, 66, 64
3, 9119, Note_on_c, 0, 66, 0
3, 9120, Note_on_c, 0, 68, 64
3, 9132, Note_on_c, 0, 68, 0
3, 9132, Note_on_c, 0, 69, 64
3, 9144, Note_on_c, 0, 69, 0
3, 9144, Note_on_c, 0, 68, 64
3, 9156, Note_on_c, 0, 68, 0
3, 9156, Note_on_c, 0, 69, 64
3, 9168, Note_on_c, 0, 69, 0
3, 9168, Note_on_c, 0, 68, 64
3, 9180, Note_on_c, 0, 68, 0
3, 9180, Note_on_c, 0, 69, 64
3, 9192, Note_on_c, 0, 69, 0
3, 9192, Note_on_c, 0, 69, 64
3, 9215, Note_on_c, 0, 69, 0
3, 9216, Note_on_c, 0, 69, 64
3, 9239, Note_on_c, 0, 69, 0
3, 9240, Note_on_c, 0, 73, 64
3, 9263, Note_on_c, 0, 73, 0
3, 9264, Note_on_c, 0, 74, 64
3, 9287, Note_on_c, 0, 74, 0
3, 9288, Note_on_c, 0, 71, 64
3, 9311, Note_on_c, 0, 71, 0
3, 9312, Note_on_c, 0, 73, 64
3, 9383, Note_on_c, 0, 73, 0
3, 9384, Note_on_c, 0, 76, 64
3, 9407, Note_on_c, 0, 76, 0
3, 9408, Note_on_c, 0, 73, 64
3, 9432, Note_on_c, 0, 73, 0
3, 9432, Note_on_c, 0, 69, 64
3, 9455, Note_on_c, 0, 69, 0
3, 9456, Note_on_c, 0, 71, 64
3, 9480, Note_on_c, 0, 71, 0
3, 9480, Note_on_c, 0, 68, 64
3, 9503, Note_on_c, 0, 68, 0
3, 9504, Note_on_c, 0, 69, 64
3, 9815, Note_on_c, 0, 69, 0
3, 9816, Note_on_c, 0, 66, 64
3, 9839, Note_on_c, 0, 66, 0
3, 9840, Note_on_c, 0, 69, 64
3, 9863, Note_on_c, 0, 69, 0
3, 9864, Note_on_c, 0, 68, 64
3, 9887, Note_on_c, 0, 68, 0
3, 9888, Note_on_c, 0, 66, 64
3, 9911, Note_on_c, 0, 66, 0
3, 9912, Note_on_c, 0, 64, 64
3, 9935, Note_on_c, 0, 64, 0
3, 9936, Note_on_c, 0, 76, 64
3, 10103, Note_on_c, 0, 76, 0
3, 10104, Note_on_c, 0, 73, 64
3, 10127, Note_on_c, 0, 73, 0
3, 10128, Note_on_c, 0, 74, 64
3, 10151, Note_on_c, 0, 74, 0
3, 10152, Note_on_c, 0, 71, 64
3, 10175, Note_on_c, 0, 71, 0
3, 10176, Note_on_c, 0, 73, 64
3, 10247, Note_on_c, 0, 73, 0
3, 10248, Note_on_c, 0, 76, 64
3, 10271, Note_on_c, 0, 76, 0
3, 10272, Note_on_c, 0, 73, 64
3, 10295, Note_on_c, 0, 73, 0
3, 10296, Note_on_c, 0, 69, 64
3, 10319, Note_on_c, 0, 69, 0
3, 10320, Note_on_c, 0, 71, 64
3, 10343, Note_on_c, 0, 71, 0
3, 10344, Note_on_c, 0, 68, 64
3, 10367, Note_on_c, 0, 68, 0
3, 10368, Note_on_c, 0, 69, 64
3, 10391, Note_on_c, 0, 69, 0
3, 10392, Note_on_c, 0, 71, 64
3, 10415, Note_on_c, 0, 71, 0
3, 10416, Note_on_c, 0, 71, 64
3, 10428, Note_on_c, 0, 71, 0
3, 10428, Note_on_c, 0, 73, 64
3, 10440, Note_on_c, 0, 73, 0
3, 10440, Note_on_c, 0, 69, 64
3, 10452, Note_on_c, 0, 69, 0
3, 10452, Note_on_c, 0, 71, 64
3, 10464, Note_on_c, 0, 71, 0
3, 10464, Note_on_c, 0, 73, 64
3, 10535, Note_on_c, 0, 73, 0
3, 10536, Note_on_c, 0, 69, 64
3, 10559, Note_on_c, 0, 69, 0
3, 10560, Note_on_c, 0, 68, 64
3, 10572, Note_on_c, 0, 68, 0
3, 10572, Note_on_c, 0, 69, 64
3, 10584, Note_on_c, 0, 69, 0
3, 10584, Note_on_c, 0, 68, 64
3, 10596, Note_on_c, 0, 68, 0
3, 10596, Note_on_c, 0, 69, 64
3, 10608, Note_on_c, 0, 69, 0
3, 10608, Note_on_c, 0, 68, 64
3, 10620, Note_on_c, 0, 68, 0
3, 10620, Note_on_c, 0, 69, 64
3, 10632, Note_on_c, 0, 69, 0
3, 10632, Note_on_c, 0, 69, 64
3, 10655, Note_on_c, 0, 69, 0
3, 10656, Note_on_c, 0, 69, 64
3, 10679, Note_on_c, 0, 69, 0
3, 10680, Note_on_c, 0, 62, 64
3, 10703, Note_on_c, 0, 62, 0
3, 10704, Note_on_c, 0, 61, 64
3, 10728, Note_on_c, 0, 61, 0
3, 10728, Note_on_c, 0, 59, 64
3, 10751, Note_on_c, 0, 59, 0
3, 10752, Note_on_c, 0, 61, 64
3, 10776, Note_on_c, 0, 61, 0
3, 10776, Note_on_c, 0, 57, 64
3, 10799, Note_on_c, 0, 57, 0
3, 10800, Note_on_c, 0, 57, 64
3, 10933, Note_on_c, 0, 57, 0
3, 10933, End_track
4, 0, Start_track
4, 0, MIDI_port, 0
4, 0, Title_t, "Clavier (LH)"
4, 0, Program_c, 0, 6
4, 0, Control_c, 0, 7, 127
4, 0, Note_on_c, 0, 45, 64
4, 553, Note_on_c, 0, 45, 0
4, 576, Note_on_c, 0, 57, 64
4, 665, Note_on_c, 0, 57, 0
4, 672, Note_on_c, 0, 52, 64
4, 717, Note_on_c, 0, 52, 0
4, 720, Note_on_c, 0, 54, 64
4, 744, Note_on_c, 0, 54, 0
4, 744, Note_on_c, 0, 56, 64
4, 767, Note_on_c, 0, 56, 0
4, 768, Note_on_c, 0, 56, 64
4, 780, Note_on_c, 0, 56, 0
4, 780, Note_on_c, 0, 57, 64
4, 792, Note_on_c, 0, 57, 0
4, 792, Note_on_c, 0, 56, 64
4, 804, Note_on_c, 0, 56, 0
4, 804, Note_on_c, 0, 57, 64
4, 816, Note_on_c, 0, 57, 0
4, 816, Note_on_c, 0, 56, 64
4, 828, Note_on_c, 0, 56, 0
4, 828, Note_on_c, 0, 57, 64
4, 840, Note_on_c, 0, 57, 0
4, 840, Note_on_c, 0, 54, 64
4, 852, Note_on_c, 0, 54, 0
4, 852, Note_on_c, 0, 56, 64
4, 864, Note_on_c, 0, 56, 0
4, 864, Note_on_c, 0, 57, 64
4, 1031, Note_on_c, 0, 57, 0
4, 1032, Note_on_c, 0, 56, 64
4, 1055, Note_on_c, 0, 56, 0
4, 1056, Note_on_c, 0, 61, 64
4, 1079, Note_on_c, 0, 61, 0
4, 1080, Note_on_c, 0, 59, 64
4, 1103, Note_on_c, 0, 59, 0
4, 1104, Note_on_c, 0, 57, 64
4, 1127, Note_on_c, 0, 57, 0
4, 1128, Note_on_c, 0, 56, 64
4, 1151, Note_on_c, 0, 56, 0
4, 1152, Note_on_c, 0, 54, 64
4, 1197, Note_on_c, 0, 54, 0
4, 1200, Note_on_c, 0, 59, 64
4, 1245, Note_on_c, 0, 59, 0
4, 1248, Note_on_c, 0, 47, 64
4, 1293, Note_on_c, 0, 47, 0
4, 1296, Note_on_c, 0, 52, 64
4, 1319, Note_on_c, 0, 52, 0
4, 1320, Note_on_c, 0, 59, 64
4, 1343, Note_on_c, 0, 59, 0
4, 1344, Note_on_c, 0, 64, 64
4, 1367, Note_on_c, 0, 64, 0
4, 1368, Note_on_c, 0, 63, 64
4, 1391, Note_on_c, 0, 63, 0
4, 1392, Note_on_c, 0, 61, 64
4, 1415, Note_on_c, 0, 61, 0
4, 1416, Note_on_c, 0, 59, 64
4, 1439, Note_on_c, 0, 59, 0
4, 1440, Note_on_c, 0, 57, 64
4, 1485, Note_on_c, 0, 57, 0
4, 1488, Note_on_c, 0, 54, 64
4, 1533, Note_on_c, 0, 54, 0
4, 1536, Note_on_c, 0, 57, 64
4, 1581, Note_on_c, 0, 57, 0
4, 1584, Note_on_c, 0, 59, 64
4, 1629, Note_on_c, 0, 59, 0
4, 1632, Note_on_c, 0, 61, 64
4, 1677, Note_on_c, 0, 61, 0
4, 1680, Note_on_c, 0, 63, 64
4, 1725, Note_on_c, 0, 63, 0
4, 1728, Note_on_c, 0, 64, 64
4, 1773, Note_on_c, 0, 64, 0
4, 1776, Note_on_c, 0, 61, 64
4, 1821, Note_on_c, 0, 61, 0
4, 1824, Note_on_c, 0, 57, 64
4, 1917, Note_on_c, 0, 57, 0
4, 1920, Note_on_c, 0, 59, 64
4, 1965, Note_on_c, 0, 59, 0
4, 1968, Note_on_c, 0, 47, 64
4, 2013, Note_on_c, 0, 47, 0
4, 2016, Note_on_c, 0, 52, 64
4, 2105, Note_on_c, 0, 52, 0
4, 2160, Note_on_c, 0, 40, 64
4, 2249, Note_on_c, 0, 40, 0
4, 2304, Note_on_c, 0, 52, 64
4, 2327, Note_on_c, 0, 52, 0
4, 2328, Note_on_c, 0, 51, 64
4, 2351, Note_on_c, 0, 51, 0
4, 2352, Note_on_c, 0, 52, 64
4, 2375, Note_on_c, 0, 52, 0
4, 2376, Note_on_c, 0, 54, 64
4, 2399, Note_on_c, 0, 54, 0
4, 2400, Note_on_c, 0, 56, 64
4, 2423, Note_on_c, 0, 56, 0
4, 2424, Note_on_c, 0, 54, 64
4, 2447, Note_on_c, 0, 54, 0
4, 2448, Note_on_c, 0, 57, 64
4, 2493, Note_on_c, 0, 57, 0
4, 2496, Note_on_c, 0, 56, 64
4, 2519, Note_on_c, 0, 56, 0
4, 2520, Note_on_c, 0, 54, 64
4, 2543, Note_on_c, 0, 54, 0
4, 2544, Note_on_c, 0, 59, 64
4, 2589, Note_on_c, 0, 59, 0
4, 2592, Note_on_c, 0, 56, 64
4, 2681, Note_on_c, 0, 56, 0
4, 2736, Note_on_c, 0, 54, 64
4, 2781, Note_on_c, 0, 54, 0
4, 2784, Note_on_c, 0, 59, 64
4, 2829, Note_on_c, 0, 59, 0
4, 2832, Note_on_c, 0, 47, 64
4, 2877, Note_on_c, 0, 47, 0
4, 2880, Note_on_c, 0, 52, 64
4, 2969, Note_on_c, 0, 52, 0
4, 2976, Note_on_c, 0, 47, 64
4, 3021, Note_on_c, 0, 47, 0
4, 3024, Note_on_c, 0, 49, 64
4, 3047, Note_on_c, 0, 49, 0
4, 3048, Note_on_c, 0, 51, 64
4, 3071, Note_on_c, 0, 51, 0
4, 3072, Note_on_c, 0, 51, 64
4, 3084, Note_on_c, 0, 51, 0
4, 3084, Note_on_c, 0, 52, 64
4, 3096, Note_on_c, 0, 52, 0
4, 3096, Note_on_c, 0, 51, 64
4, 3108, Note_on_c, 0, 51, 0
4, 3108, Note_on_c, 0, 52, 64
4, 3120, Note_on_c, 0, 52, 0
4, 3120, Note_on_c, 0, 51, 64
4, 3132, Note_on_c, 0, 51, 0
4, 3132, Note_on_c, 0, 52, 64
4, 3144, Note_on_c, 0, 52, 0
4, 3144, Note_on_c, 0, 49, 64
4, 3156, Note_on_c, 0, 49, 0
4, 3156, Note_on_c, 0, 51, 64
4, 3168, Note_on_c, 0, 51, 0
4, 3168, Note_on_c, 0, 52, 64
4, 3335, Note_on_c, 0, 52, 0
4, 3336, Note_on_c, 0, 50, 64
4, 3359, Note_on_c, 0, 50, 0
4, 3360, Note_on_c, 0, 55, 64
4, 3383, Note_on_c, 0, 55, 0
4, 3384, Note_on_c, 0, 54, 64
4, 3407, Note_on_c, 0, 54, 0
4, 3408, Note_on_c, 0, 52, 64
4, 3431, Note_on_c, 0, 52, 0
4, 3432, Note_on_c, 0, 50, 64
4, 3455, Note_on_c, 0, 50, 0
4, 3456, Note_on_c, 0, 49, 64
4, 3501, Note_on_c, 0, 49, 0
4, 3504, Note_on_c, 0, 54, 64
4, 3549, Note_on_c, 0, 54, 0
4, 3552, Note_on_c, 0, 42, 64
4, 3597, Note_on_c, 0, 42, 0
4, 3600, Note_on_c, 0, 47, 64
4, 3767, Note_on_c, 0, 47, 0
4, 3768, Note_on_c, 0, 45, 64
4, 3791, Note_on_c, 0, 45, 0
4, 3792, Note_on_c, 0, 50, 64
4, 3815, Note_on_c, 0, 50, 0
4, 3816, Note_on_c, 0, 49, 64
4, 3839, Note_on_c, 0, 49, 0
4, 3840, Note_on_c, 0, 47, 64
4, 3863, Note_on_c, 0, 47, 0
4, 3864, Note_on_c, 0, 45, 64
4, 3887, Note_on_c, 0, 45, 0
4, 3888, Note_on_c, 0, 44, 64
4, 3933, Note_on_c, 0, 44, 0
4, 3936, Note_on_c, 0, 49, 64
4, 3981, Note_on_c, 0, 49, 0
4, 3984, Note_on_c, 0, 37, 64
4, 4029, Note_on_c, 0, 37, 0
4, 4032, Note_on_c, 0, 42, 64
4, 4055, Note_on_c, 0, 42, 0
4, 4056, Note_on_c, 0, 49, 64
4, 4079, Note_on_c, 0, 49, 0
4, 4080, Note_on_c, 0, 54, 64
4, 4103, Note_on_c, 0, 54, 0
4, 4104, Note_on_c, 0, 52, 64
4, 4127, Note_on_c, 0, 52, 0
4, 4128, Note_on_c, 0, 50, 64
4, 4151, Note_on_c, 0, 50, 0
4, 4152, Note_on_c, 0, 49, 64
4, 4175, Note_on_c, 0, 49, 0
4, 4176, Note_on_c, 0, 47, 64
4, 4221, Note_on_c, 0, 47, 0
4, 4224, Note_on_c, 0, 44, 64
4, 4269, Note_on_c, 0, 44, 0
4, 4272, Note_on_c, 0, 47, 64
4, 4317, Note_on_c, 0, 47, 0
4, 4320, Note_on_c, 0, 49, 64
4, 4365, Note_on_c, 0, 49, 0
4, 4368, Note_on_c, 0, 51, 64
4, 4413, Note_on_c, 0, 51, 0
4, 4416, Note_on_c, 0, 53, 64
4, 4461, Note_on_c, 0, 53, 0
4, 4464, Note_on_c, 0, 54, 64
4, 4509, Note_on_c, 0, 54, 0
4, 4512, Note_on_c, 0, 50, 64
4, 4557, Note_on_c, 0, 50, 0
4, 4560, Note_on_c, 0, 47, 64
4, 4653, Note_on_c, 0, 47, 0
4, 4656, Note_on_c, 0, 49, 64
4, 4701, Note_on_c, 0, 49, 0
4, 4704, Note_on_c, 0, 37, 64
4, 4749, Note_on_c, 0, 37, 0
4, 4752, Note_on_c, 0, 42, 64
4, 4841, Note_on_c, 0, 42, 0
4, 4848, Note_on_c, 0, 54, 64
4, 4893, Note_on_c, 0, 54, 0
4, 4896, Note_on_c, 0, 56, 64
4, 4919, Note_on_c, 0, 56, 0
4, 4920, Note_on_c, 0, 58, 64
4, 4943, Note_on_c, 0, 58, 0
4, 4944, Note_on_c, 0, 58, 64
4, 4956, Note_on_c, 0, 58, 0
4, 4956, Note_on_c, 0, 59, 64
4, 4968, Note_on_c, 0, 59, 0
4, 4968, Note_on_c, 0, 58, 64
4, 4980, Note_on_c, 0, 58, 0
4, 4980, Note_on_c, 0, 59, 64
4, 4992, Note_on_c, 0, 59, 0
4, 4992, Note_on_c, 0, 58, 64
4, 5004, Note_on_c, 0, 58, 0
4, 5004, Note_on_c, 0, 59, 64
4, 5016, Note_on_c, 0, 59, 0
4, 5016, Note_on_c, 0, 56, 64
4, 5028, Note_on_c, 0, 56, 0
4, 5028, Note_on_c, 0, 58, 64
4, 5040, Note_on_c, 0, 58, 0
4, 5040, Note_on_c, 0, 59, 64
4, 5273, Note_on_c, 0, 59, 0
4, 5280, Note_on_c, 0, 47, 64
4, 5325, Note_on_c, 0, 47, 0
4, 5328, Note_on_c, 0, 49, 64
4, 5351, Note_on_c, 0, 49, 0
4, 5352, Note_on_c, 0, 51, 64
4, 5375, Note_on_c, 0, 51, 0
4, 5376, Note_on_c, 0, 51, 64
4, 5388, Note_on_c, 0, 51, 0
4, 5388, Note_on_c, 0, 52, 64
4, 5400, Note_on_c, 0, 52, 0
4, 5400, Note_on_c, 0, 51, 64
4, 5412, Note_on_c, 0, 51, 0
4, 5412, Note_on_c, 0, 52, 64
4, 5424, Note_on_c, 0, 52, 0
4, 5424, Note_on_c, 0, 51, 64
4, 5436, Note_on_c, 0, 51, 0
4, 5436, Note_on_c, 0, 52, 64
4, 5448, Note_on_c, 0, 52, 0
4, 5448, Note_on_c, 0, 49, 64
4, 5460, Note_on_c, 0, 49, 0
4, 5460, Note_on_c, 0, 51, 64
4, 5472, Note_on_c, 0, 51, 0
4, 5472, Note_on_c, 0, 52, 64
4, 5705, Note_on_c, 0, 52, 0
4, 5712, Note_on_c, 0, 52, 64
4, 5757, Note_on_c, 0, 52, 0
4, 5760, Note_on_c, 0, 54, 64
4, 5783, Note_on_c, 0, 54, 0
4, 5784, Note_on_c, 0, 56, 64
4, 5807, Note_on_c, 0, 56, 0
4, 5808, Note_on_c, 0, 56, 64
4, 5820, Note_on_c, 0, 56, 0
4, 5820, Note_on_c, 0, 57, 64
4, 5832, Note_on_c, 0, 57, 0
4, 5832, Note_on_c, 0, 56, 64
4, 5844, Note_on_c, 0, 56, 0
4, 5844, Note_on_c, 0, 57, 64
4, 5856, Note_on_c, 0, 57, 0
4, 5856, Note_on_c, 0, 56, 64
4, 5868, Note_on_c, 0, 56, 0
4, 5868, Note_on_c, 0, 57, 64
4, 5880, Note_on_c, 0, 57, 0
4, 5880, Note_on_c, 0, 54, 64
4, 5892, Note_on_c, 0, 54, 0
4, 5892, Note_on_c, 0, 56, 64
4, 5904, Note_on_c, 0, 56, 0
4, 5904, Note_on_c, 0, 57, 64
4, 6137, Note_on_c, 0, 57, 0
4, 6144, Note_on_c, 0, 45, 64
4, 6189, Note_on_c, 0, 45, 0
4, 6192, Note_on_c, 0, 47, 64
4, 6215, Note_on_c, 0, 47, 0
4, 6216, Note_on_c, 0, 49, 64
4, 6239, Note_on_c, 0, 49, 0
4, 6240, Note_on_c, 0, 49, 64
4, 6252, Note_on_c, 0, 49, 0
4, 6252, Note_on_c, 0, 50, 64
4, 6264, Note_on_c, 0, 50, 0
4, 6264, Note_on_c, 0, 49, 64
4, 6309, Note_on_c, 0, 49, 0
4, 6312, Note_on_c, 0, 47, 64
4, 6324, Note_on_c, 0, 47, 0
4, 6324, Note_on_c, 0, 49, 64
4, 6336, Note_on_c, 0, 49, 0
4, 6336, Note_on_c, 0, 50, 64
4, 6757, Note_on_c, 0, 50, 0
4, 6768, Note_on_c, 0, 50, 64
4, 6791, Note_on_c, 0, 50, 0
4, 6792, Note_on_c, 0, 52, 64
4, 6815, Note_on_c, 0, 52, 0
4, 6816, Note_on_c, 0, 50, 64
4, 6839, Note_on_c, 0, 50, 0
4, 6840, Note_on_c, 0, 47, 64
4, 6863, Note_on_c, 0, 47, 0
4, 6864, Note_on_c, 0, 49, 64
4, 6887, Note_on_c, 0, 49, 0
4, 6888, Note_on_c, 0, 45, 64
4, 6911, Note_on_c, 0, 45, 0
4, 6912, Note_on_c, 0, 44, 64
4, 6935, Note_on_c, 0, 44, 0
4, 6936, Note_on_c, 0, 47, 64
4, 6959, Note_on_c, 0, 47, 0
4, 6960, Note_on_c, 0, 45, 64
4, 6983, Note_on_c, 0, 45, 0
4, 6984, Note_on_c, 0, 42, 64
4, 7007, Note_on_c, 0, 42, 0
4, 7008, Note_on_c, 0, 43, 64
4, 7031, Note_on_c, 0, 43, 0
4, 7032, Note_on_c, 0, 40, 64
4, 7055, Note_on_c, 0, 40, 0
4, 7056, Note_on_c, 0, 47, 64
4, 7223, Note_on_c, 0, 47, 0
4, 7224, Note_on_c, 0, 64, 64
4, 7247, Note_on_c, 0, 64, 0
4, 7248, Note_on_c, 0, 62, 64
4, 7271, Note_on_c, 0, 62, 0
4, 7272, Note_on_c, 0, 59, 64
4, 7295, Note_on_c, 0, 59, 0
4, 7296, Note_on_c, 0, 61, 64
4, 7319, Note_on_c, 0, 61, 0
4, 7320, Note_on_c, 0, 57, 64
4, 7343, Note_on_c, 0, 57, 0
4, 7344, Note_on_c, 0, 64, 64
4, 7389, Note_on_c, 0, 64, 0
4, 7392, Note_on_c, 0, 52, 64
4, 7437, Note_on_c, 0, 52, 0
4, 7440, Note_on_c, 0, 50, 64
4, 7485, Note_on_c, 0, 50, 0
4, 7488, Note_on_c, 0, 49, 64
4, 7511, Note_on_c, 0, 49, 0
4, 7512, Note_on_c, 0, 52, 64
4, 7535, Note_on_c, 0, 52, 0
4, 7536, Note_on_c, 0, 50, 64
4, 7559, Note_on_c, 0, 50, 0
4, 7560, Note_on_c, 0, 47, 64
4, 7583, Note_on_c, 0, 47, 0
4, 7584, Note_on_c, 0, 49, 64
4, 7607, Note_on_c, 0, 49, 0
4, 7608, Note_on_c, 0, 45, 64
4, 7631, Note_on_c, 0, 45, 0
4, 7632, Note_on_c, 0, 50, 64
4, 7656, Note_on_c, 0, 50, 0
4, 7656, Note_on_c, 0, 52, 64
4, 7679, Note_on_c, 0, 52, 0
4, 7680, Note_on_c, 0, 52, 64
4, 7692, Note_on_c, 0, 52, 0
4, 7692, Note_on_c, 0, 54, 64
4, 7704, Note_on_c, 0, 54, 0
4, 7704, Note_on_c, 0, 52, 64
4, 7716, Note_on_c, 0, 52, 0
4, 7716, Note_on_c, 0, 54, 64
4, 7728, Note_on_c, 0, 54, 0
4, 7728, Note_on_c, 0, 52, 64
4, 7740, Note_on_c, 0, 52, 0
4, 7740, Note_on_c, 0, 54, 64
4, 7752, Note_on_c, 0, 54, 0
4, 7752, Note_on_c, 0, 50, 64
4, 7764, Note_on_c, 0, 50, 0
4, 7764, Note_on_c, 0, 52, 64
4, 7776, Note_on_c, 0, 52, 0
4, 7776, Note_on_c, 0, 54, 64
4, 7909, Note_on_c, 0, 54, 0
4, 7920, Note_on_c, 0, 54, 64
4, 7943, Note_on_c, 0, 54, 0
4, 7944, Note_on_c, 0, 57, 64
4, 7967, Note_on_c, 0, 57, 0
4, 7968, Note_on_c, 0, 62, 64
4, 7991, Note_on_c, 0, 62, 0
4, 7992, Note_on_c, 0, 61, 64
4, 8015, Note_on_c, 0, 61, 0
4, 8016, Note_on_c, 0, 59, 64
4, 8039, Note_on_c, 0, 59, 0
4, 8040, Note_on_c, 0, 57, 64
4, 8063, Note_on_c, 0, 57, 0
4, 8064, Note_on_c, 0, 56, 64
4, 8087, Note_on_c, 0, 56, 0
4, 8088, Note_on_c, 0, 54, 64
4, 8111, Note_on_c, 0, 54, 0
4, 8112, Note_on_c, 0, 57, 64
4, 8135, Note_on_c, 0, 57, 0
4, 8136, Note_on_c, 0, 56, 64
4, 8159, Note_on_c, 0, 56, 0
4, 8160, Note_on_c, 0, 54, 64
4, 8183, Note_on_c, 0, 54, 0
4, 8184, Note_on_c, 0, 52, 64
4, 8207, Note_on_c, 0, 52, 0
4, 8208, Note_on_c, 0, 57, 64
4, 8231, Note_on_c, 0, 57, 0
4, 8232, Note_on_c, 0, 52, 64
4, 8255, Note_on_c, 0, 52, 0
4, 8256, Note_on_c, 0, 57, 64
4, 8279, Note_on_c, 0, 57, 0
4, 8280, Note_on_c, 0, 56, 64
4, 8303, Note_on_c, 0, 56, 0
4, 8304, Note_on_c, 0, 54, 64
4, 8327, Note_on_c, 0, 54, 0
4, 8328, Note_on_c, 0, 52, 64
4, 8351, Note_on_c, 0, 52, 0
4, 8352, Note_on_c, 0, 51, 64
4, 8397, Note_on_c, 0, 51, 0
4, 8400, Note_on_c, 0, 51, 64
4, 8412, Note_on_c, 0, 51, 0
4, 8412, Note_on_c, 0, 52, 64
4, 8424, Note_on_c, 0, 52, 0
4, 8424, Note_on_c, 0, 51, 64
4, 8436, Note_on_c, 0, 51, 0
4, 8436, Note_on_c, 0, 52, 64
4, 8448, Note_on_c, 0, 52, 0
4, 8448, Note_on_c, 0, 51, 64
4, 8460, Note_on_c, 0, 51, 0
4, 8460, Note_on_c, 0, 52, 64
4, 8472, Note_on_c, 0, 52, 0
4, 8472, Note_on_c, 0, 49, 64
4, 8484, Note_on_c, 0, 49, 0
4, 8484, Note_on_c, 0, 51, 64
4, 8496, Note_on_c, 0, 51, 0
4, 8496, Note_on_c, 0, 52, 64
4, 8541, Note_on_c, 0, 52, 0
4, 8544, Note_on_c, 0, 53, 64
4, 8556, Note_on_c, 0, 53, 0
4, 8556, Note_on_c, 0, 54, 64
4, 8568, Note_on_c, 0, 54, 0
4, 8568, Note_on_c, 0, 53, 64
4, 8580, Note_on_c, 0, 53, 0
4, 8580, Note_on_c, 0, 54, 64
4, 8592, Note_on_c, 0, 54, 0
4, 8592, Note_on_c, 0, 53, 64
4, 8604, Note_on_c, 0, 53, 0
4, 8604, Note_on_c, 0, 54, 64
4, 8616, Note_on_c, 0, 54, 0
4, 8616, Note_on_c, 0, 51, 64
4, 8628, Note_on_c, 0, 51, 0
4, 8628, Note_on_c, 0, 53, 64
4, 8640, Note_on_c, 0, 53, 0
4, 8640, Note_on_c, 0, 54, 64
4, 8685, Note_on_c, 0, 54, 0
4, 8688, Note_on_c, 0, 54, 64
4, 8700, Note_on_c, 0, 54, 0
4, 8700, Note_on_c, 0, 56, 64
4, 8712, Note_on_c, 0, 56, 0
4, 8712, Note_on_c, 0, 54, 64
4, 8724, Note_on_c, 0, 54, 0
4, 8724, Note_on_c, 0, 56, 64
4, 8736, Note_on_c, 0, 56, 0
4, 8736, Note_on_c, 0, 54, 64
4, 8748, Note_on_c, 0, 54, 0
4, 8748, Note_on_c, 0, 56, 64
4, 8760, Note_on_c, 0, 56, 0
4, 8760, Note_on_c, 0, 52, 64
4, 8772, Note_on_c, 0, 52, 0
4, 8772, Note_on_c, 0, 54, 64
4, 8784, Note_on_c, 0, 54, 0
4, 8784, Note_on_c, 0, 56, 64
4, 8829, Note_on_c, 0, 56, 0
4, 8832, Note_on_c, 0, 56, 64
4, 8844, Note_on_c, 0, 56, 0
4, 8844, Note_on_c, 0, 57, 64
4, 8856, Note_on_c, 0, 57, 0
4, 8856, Note_on_c, 0, 56, 64
4, 8868, Note_on_c, 0, 56, 0
4, 8868, Note_on_c, 0, 57, 64
4, 8880, Note_on_c, 0, 57, 0
4, 8880, Note_on_c, 0, 56, 64
4, 8892, Note_on_c, 0, 56, 0
4, 8892, Note_on_c, 0, 57, 64
4, 8904, Note_on_c, 0, 57, 0
4, 8904, Note_on_c, 0, 54, 64
4, 8916, Note_on_c, 0, 54, 0
4, 8916, Note_on_c, 0, 56, 64
4, 8928, Note_on_c, 0, 56, 0
4, 8928, Note_on_c, 0, 57, 64
4, 8951, Note_on_c, 0, 57, 0
4, 8952, Note_on_c, 0, 54, 64
4, 8975, Note_on_c, 0, 54, 0
4, 8976, Note_on_c, 0, 52, 64
4, 8999, Note_on_c, 0, 52, 0
4, 9000, Note_on_c, 0, 49, 64
4, 9023, Note_on_c, 0, 49, 0
4, 9024, Note_on_c, 0, 50, 64
4, 9047, Note_on_c, 0, 50, 0
4, 9048, Note_on_c, 0, 47, 64
4, 9071, Note_on_c, 0, 47, 0
4, 9072, Note_on_c, 0, 49, 64
4, 9095, Note_on_c, 0, 49, 0
4, 9096, Note_on_c, 0, 50, 64
4, 9119, Note_on_c, 0, 50, 0
4, 9120, Note_on_c, 0, 52, 64
4, 9165, Note_on_c, 0, 52, 0
4, 9168, Note_on_c, 0, 40, 64
4, 9213, Note_on_c, 0, 40, 0
4, 9216, Note_on_c, 0, 45, 64
4, 9305, Note_on_c, 0, 45, 0
4, 9360, Note_on_c, 0, 57, 64
4, 9449, Note_on_c, 0, 57, 0
4, 9528, Note_on_c, 0, 55, 64
4, 9551, Note_on_c, 0, 55, 0
4, 9552, Note_on_c, 0, 53, 64
4, 9575, Note_on_c, 0, 53, 0
4, 9576, Note_on_c, 0, 52, 64
4, 9599, Note_on_c, 0, 52, 0
4, 9600, Note_on_c, 0, 51, 64
4, 9623, Note_on_c, 0, 51, 0
4, 9624, Note_on_c, 0, 52, 64
4, 9647, Note_on_c, 0, 52, 0
4, 9648, Note_on_c, 0, 51, 64
4, 9671, Note_on_c, 0, 51, 0
4, 9672, Note_on_c, 0, 49, 64
4, 9695, Note_on_c, 0, 49, 0
4, 9696, Note_on_c, 0, 52, 64
4, 9719, Note_on_c, 0, 52, 0
4, 9720, Note_on_c, 0, 51, 64
4, 9743, Note_on_c, 0, 51, 0
4, 9744, Note_on_c, 0, 49, 64
4, 9767, Note_on_c, 0, 49, 0
4, 9768, Note_on_c, 0, 47, 64
4, 9791, Note_on_c, 0, 47, 0
4, 9792, Note_on_c, 0, 50, 64
4, 10057, Note_on_c, 0, 50, 0
4, 10080, Note_on_c, 0, 49, 64
4, 10169, Note_on_c, 0, 49, 0
4, 10224, Note_on_c, 0, 52, 64
4, 10313, Note_on_c, 0, 52, 0
4, 10368, Note_on_c, 0, 57, 64
4, 10413, Note_on_c, 0, 57, 0
4, 10416, Note_on_c, 0, 54, 64
4, 10461, Note_on_c, 0, 54, 0
4, 10464, Note_on_c, 0, 49, 64
4, 10509, Note_on_c, 0, 49, 0
4, 10512, Note_on_c, 0, 50, 64
4, 10557, Note_on_c, 0, 50, 0
4, 10560, Note_on_c, 0, 52, 64
4, 10605, Note_on_c, 0, 52, 0
4, 10608, Note_on_c, 0, 40, 64
4, 10653, Note_on_c, 0, 40, 0
4, 10656, Note_on_c, 0, 45, 64
4, 10921, Note_on_c, 0, 45, 0
4, 10921, End_track
5, 0, Start_track
5, 0, MIDI_port, 0
5, 0, Title_t, "Sonata No. 2 en La Mayor"
5, 0, End_track
6, 0, Start_track
6, 0, MIDI_port, 0
6, 0, Title_t, "para violin y clavicembalo"
6, 0, End_track
7, 0, Start_track
7, 0, MIDI_port, 0
7, 0, Title_t, "Primer Movimiento (Allegro)"
7, 0, End_track
8, 0, Start_track
8, 0, MIDI_port, 0
8, 0, End_track
9, 0, Start_track
9, 0, MIDI_port, 0
9, 0, Title_t, "J.S. Bach (1685-1750)"
9, 0, End_track
10, 0, Start_track
10, 0, MIDI_port, 0
10, 0, Title_t, "Luis Gerardo Barajas"
10, 0, End_track
11, 0, Start_track
11, 0, MIDI_port, 0
11, 0, Title_t, "Bach Keeps RuLiNg!!!"
11, 0, End_track
0, 0, End_of_file
