0, 0, Header, 1, 10, 96
1, 0, Start_track
1, 0, Sequencer_specific, 3, 0, 0, 65
1, 0, Time_signature, 3, 1, 48, 8
1, 0, Key_signature, -4, "major"
1, 0, Tempo, 750000
1, 60872, Tempo, 731707
1, 60912, Tempo, 740741
1, 60952, Tempo, 750000
1, 60992, Tempo, 759494
1, 61032, Tempo, 769231
1, 61072, Tempo, 779221
1, 61112, Tempo, 789474
1, 61152, Tempo, 800000
1, 61192, Tempo, 810811
1, 61232, Tempo, 821918
1, 61272, Tempo, 833333
1, 61312, Tempo, 845070
1, 61352, Tempo, 857143
1, 61392, Tempo, 869565
1, 61432, Tempo, 882353
1, 61472, Tempo, 895522
1, 61512, Tempo, 909091
1, 61552, Tempo, 923077
1, 61592, Tempo, 937500
1, 61632, Tempo, 952381
1, 61672, Tempo, 967742
1, 61712, Tempo, 983607
1, 61720, Tempo, 240964
1, 61720, End_track
2, 0, Start_track
2, 0, MIDI_port, 0
2, 0, Title_t, "Violin"
2, 0, Program_c, 1, 40
2, 0, Control_c, 1, 7, 127
2, 3072, Note_on_c, 1, 60, 64
2, 4165, Note_on_c, 1, 60, 0
2, 4176, Note_on_c, 1, 68, 64
2, 4221, Note_on_c, 1, 68, 0
2, 4224, Note_on_c, 1, 67, 64
2, 4401, Note_on_c, 1, 67, 0
2, 4416, Note_on_c, 1, 65, 64
2, 4424, Note_on_c, 1, 65, 0
2, 4424, Note_on_c, 1, 67, 64
2, 4432, Note_on_c, 1, 67, 0
2, 4432, Note_on_c, 1, 65, 64
2, 4440, Note_on_c, 1, 65, 0
2, 4440, Note_on_c, 1, 65, 64
2, 4448, Note_on_c, 1, 65, 0
2, 4448, Note_on_c, 1, 67, 64
2, 4456, Note_on_c, 1, 67, 0
2, 4456, Note_on_c, 1, 65, 64
2, 4464, Note_on_c, 1, 65, 0
2, 4464, Note_on_c, 1, 64, 64
2, 4509, Note_on_c, 1, 64, 0
2, 4512, Note_on_c, 1, 65, 64
2, 4601, Note_on_c, 1, 65, 0
2, 4608, Note_on_c, 1, 64, 64
2, 4962, Note_on_c, 1, 64, 0
2, 7680, Note_on_c, 1, 60, 64
2, 8773, Note_on_c, 1, 60, 0
2, 8784, Note_on_c, 1, 68, 64
2, 8829, Note_on_c, 1, 68, 0
2, 8832, Note_on_c, 1, 67, 64
2, 9024, Note_on_c, 1, 67, 0
2, 9024, Note_on_c, 1, 65, 64
2, 9032, Note_on_c, 1, 65, 0
2, 9032, Note_on_c, 1, 67, 64
2, 9040, Note_on_c, 1, 67, 0
2, 9040, Note_on_c, 1, 65, 64
2, 9048, Note_on_c, 1, 65, 0
2, 9048, Note_on_c, 1, 67, 64
2, 9056, Note_on_c, 1, 67, 0
2, 9056, Note_on_c, 1, 65, 64
2, 9064, Note_on_c, 1, 65, 0
2, 9064, Note_on_c, 1, 67, 64
2, 9072, Note_on_c, 1, 67, 0
2, 9072, Note_on_c, 1, 64, 64
2, 9117, Note_on_c, 1, 64, 0
2, 9120, Note_on_c, 1, 65, 64
2, 9209, Note_on_c, 1, 65, 0
2, 9216, Note_on_c, 1, 64, 64
2, 9261, Note_on_c, 1, 64, 0
2, 9264, Note_on_c, 1, 67, 64
2, 9309, Note_on_c, 1, 67, 0
2, 9312, Note_on_c, 1, 70, 64
2, 9357, Note_on_c, 1, 70, 0
2, 9360, Note_on_c, 1, 73, 64
2, 9405, Note_on_c, 1, 73, 0
2, 9408, Note_on_c, 1, 72, 64
2, 9585, Note_on_c, 1, 72, 0
2, 9600, Note_on_c, 1, 72, 64
2, 9645, Note_on_c, 1, 72, 0
2, 9648, Note_on_c, 1, 70, 64
2, 9693, Note_on_c, 1, 70, 0
2, 9696, Note_on_c, 1, 68, 64
2, 9719, Note_on_c, 1, 68, 0
2, 9720, Note_on_c, 1, 67, 64
2, 9743, Note_on_c, 1, 67, 0
2, 9744, Note_on_c, 1, 70, 64
2, 9767, Note_on_c, 1, 70, 0
2, 9768, Note_on_c, 1, 68, 64
2, 9791, Note_on_c, 1, 68, 0
2, 9792, Note_on_c, 1, 68, 64
2, 10545, Note_on_c, 1, 68, 0
2, 10560, Note_on_c, 1, 73, 64
2, 10737, Note_on_c, 1, 73, 0
2, 10752, Note_on_c, 1, 70, 64
2, 10929, Note_on_c, 1, 70, 0
2, 10944, Note_on_c, 1, 67, 64
2, 11697, Note_on_c, 1, 67, 0
2, 11712, Note_on_c, 1, 72, 64
2, 11889, Note_on_c, 1, 72, 0
2, 11904, Note_on_c, 1, 68, 64
2, 12081, Note_on_c, 1, 68, 0
2, 12096, Note_on_c, 1, 65, 64
2, 12185, Note_on_c, 1, 65, 0
2, 12192, Note_on_c, 1, 77, 64
2, 12240, Note_on_c, 1, 77, 0
2, 12240, Note_on_c, 1, 73, 64
2, 12285, Note_on_c, 1, 73, 0
2, 12288, Note_on_c, 1, 70, 64
2, 12805, Note_on_c, 1, 70, 0
2, 12816, Note_on_c, 1, 72, 64
2, 12839, Note_on_c, 1, 72, 0
2, 12840, Note_on_c, 1, 73, 64
2, 12863, Note_on_c, 1, 73, 0
2, 12864, Note_on_c, 1, 72, 64
2, 12953, Note_on_c, 1, 72, 0
2, 12960, Note_on_c, 1, 70, 64
2, 13049, Note_on_c, 1, 70, 0
2, 13056, Note_on_c, 1, 68, 64
2, 13145, Note_on_c, 1, 68, 0
2, 13152, Note_on_c, 1, 70, 64
2, 13197, Note_on_c, 1, 70, 0
2, 13200, Note_on_c, 1, 67, 64
2, 13245, Note_on_c, 1, 67, 0
2, 13248, Note_on_c, 1, 68, 64
2, 13381, Note_on_c, 1, 68, 0
2, 13392, Note_on_c, 1, 70, 64
2, 13437, Note_on_c, 1, 70, 0
2, 13440, Note_on_c, 1, 70, 64
2, 13448, Note_on_c, 1, 70, 0
2, 13448, Note_on_c, 1, 72, 64
2, 13456, Note_on_c, 1, 72, 0
2, 13456, Note_on_c, 1, 70, 64
2, 13464, Note_on_c, 1, 70, 0
2, 13464, Note_on_c, 1, 72, 64
2, 13472, Note_on_c, 1, 72, 0
2, 13472, Note_on_c, 1, 70, 64
2, 13480, Note_on_c, 1, 70, 0
2, 13480, Note_on_c, 1, 72, 64
2, 13488, Note_on_c, 1, 72, 0
2, 13488, Note_on_c, 1, 70, 64
2, 13496, Note_on_c, 1, 70, 0
2, 13496, Note_on_c, 1, 72, 64
2, 13504, Note_on_c, 1, 72, 0
2, 13504, Note_on_c, 1, 70, 64
2, 13512, Note_on_c, 1, 70, 0
2, 13512, Note_on_c, 1, 72, 64
2, 13520, Note_on_c, 1, 72, 0
2, 13520, Note_on_c, 1, 70, 64
2, 13528, Note_on_c, 1, 70, 0
2, 13528, Note_on_c, 1, 72, 64
2, 13536, Note_on_c, 1, 72, 0
2, 13536, Note_on_c, 1, 70, 64
2, 13544, Note_on_c, 1, 70, 0
2, 13544, Note_on_c, 1, 72, 64
2, 13552, Note_on_c, 1, 72, 0
2, 13552, Note_on_c, 1, 70, 64
2, 13560, Note_on_c, 1, 70, 0
2, 13560, Note_on_c, 1, 72, 64
2, 13568, Note_on_c, 1, 72, 0
2, 13568, Note_on_c, 1, 70, 64
2, 13576, Note_on_c, 1, 70, 0
2, 13576, Note_on_c, 1, 72, 64
2, 13584, Note_on_c, 1, 72, 0
2, 13584, Note_on_c, 1, 70, 64
2, 13592, Note_on_c, 1, 70, 0
2, 13592, Note_on_c, 1, 72, 64
2, 13600, Note_on_c, 1, 72, 0
2, 13600, Note_on_c, 1, 70, 64
2, 13608, Note_on_c, 1, 70, 0
2, 13608, Note_on_c, 1, 72, 64
2, 13616, Note_on_c, 1, 72, 0
2, 13616, Note_on_c, 1, 70, 64
2, 13624, Note_on_c, 1, 70, 0
2, 13624, Note_on_c, 1, 72, 64
2, 13632, Note_on_c, 1, 72, 0
2, 13632, Note_on_c, 1, 70, 64
2, 13640, Note_on_c, 1, 70, 0
2, 13640, Note_on_c, 1, 72, 64
2, 13648, Note_on_c, 1, 72, 0
2, 13648, Note_on_c, 1, 70, 64
2, 13656, Note_on_c, 1, 70, 0
2, 13656, Note_on_c, 1, 72, 64
2, 13664, Note_on_c, 1, 72, 0
2, 13664, Note_on_c, 1, 70, 64
2, 13672, Note_on_c, 1, 70, 0
2, 13672, Note_on_c, 1, 72, 64
2, 13680, Note_on_c, 1, 72, 0
2, 13680, Note_on_c, 1, 70, 64
2, 13688, Note_on_c, 1, 70, 0
2, 13688, Note_on_c, 1, 72, 64
2, 13696, Note_on_c, 1, 72, 0
2, 13696, Note_on_c, 1, 70, 64
2, 13704, Note_on_c, 1, 70, 0
2, 13704, Note_on_c, 1, 72, 64
2, 13712, Note_on_c, 1, 72, 0
2, 13712, Note_on_c, 1, 70, 64
2, 13720, Note_on_c, 1, 70, 0
2, 13720, Note_on_c, 1, 72, 64
2, 13728, Note_on_c, 1, 72, 0
2, 13728, Note_on_c, 1, 72, 64
2, 13817, Note_on_c, 1, 72, 0
2, 13824, Note_on_c, 1, 72, 64
2, 14178, Note_on_c, 1, 72, 0
2, 14496, Note_on_c, 1, 72, 64
2, 14585, Note_on_c, 1, 72, 0
2, 14592, Note_on_c, 1, 68, 64
2, 14681, Note_on_c, 1, 68, 0
2, 14688, Note_on_c, 1, 65, 64
2, 14777, Note_on_c, 1, 65, 0
2, 14784, Note_on_c, 1, 61, 64
2, 14873, Note_on_c, 1, 61, 0
2, 14880, Note_on_c, 1, 60, 64
2, 14969, Note_on_c, 1, 60, 0
2, 14976, Note_on_c, 1, 61, 64
2, 15641, Note_on_c, 1, 61, 0
2, 15648, Note_on_c, 1, 70, 64
2, 15737, Note_on_c, 1, 70, 0
2, 15744, Note_on_c, 1, 67, 64
2, 15833, Note_on_c, 1, 67, 0
2, 15840, Note_on_c, 1, 63, 64
2, 15929, Note_on_c, 1, 63, 0
2, 15936, Note_on_c, 1, 60, 64
2, 16025, Note_on_c, 1, 60, 0
2, 16032, Note_on_c, 1, 58, 64
2, 16121, Note_on_c, 1, 58, 0
2, 16128, Note_on_c, 1, 60, 64
2, 16305, Note_on_c, 1, 60, 0
2, 16320, Note_on_c, 1, 61, 64
2, 16497, Note_on_c, 1, 61, 0
2, 16512, Note_on_c, 1, 63, 64
2, 16881, Note_on_c, 1, 63, 0
2, 16896, Note_on_c, 1, 56, 64
2, 17073, Note_on_c, 1, 56, 0
2, 17088, Note_on_c, 1, 61, 64
2, 17413, Note_on_c, 1, 61, 0
2, 17424, Note_on_c, 1, 63, 64
2, 17469, Note_on_c, 1, 63, 0
2, 17472, Note_on_c, 1, 60, 64
2, 17709, Note_on_c, 1, 60, 0
2, 17712, Note_on_c, 1, 56, 64
2, 17757, Note_on_c, 1, 56, 0
2, 17760, Note_on_c, 1, 55, 64
2, 17805, Note_on_c, 1, 55, 0
2, 17808, Note_on_c, 1, 56, 64
2, 17853, Note_on_c, 1, 56, 0
2, 17856, Note_on_c, 1, 58, 64
2, 18210, Note_on_c, 1, 58, 0
2, 18624, Note_on_c, 1, 63, 64
2, 18801, Note_on_c, 1, 63, 0
2, 18816, Note_on_c, 1, 65, 64
2, 18905, Note_on_c, 1, 65, 0
2, 18912, Note_on_c, 1, 66, 64
2, 19001, Note_on_c, 1, 66, 0
2, 19008, Note_on_c, 1, 65, 64
2, 19185, Note_on_c, 1, 65, 0
2, 19200, Note_on_c, 1, 70, 64
2, 19377, Note_on_c, 1, 70, 0
2, 19392, Note_on_c, 1, 72, 64
2, 19481, Note_on_c, 1, 72, 0
2, 19488, Note_on_c, 1, 73, 64
2, 19577, Note_on_c, 1, 73, 0
2, 19584, Note_on_c, 1, 63, 64
2, 19849, Note_on_c, 1, 63, 0
2, 19872, Note_on_c, 1, 68, 64
2, 19961, Note_on_c, 1, 68, 0
2, 19968, Note_on_c, 1, 65, 64
2, 20249, Note_on_c, 1, 65, 0
2, 20256, Note_on_c, 1, 63, 64
2, 20301, Note_on_c, 1, 63, 0
2, 20304, Note_on_c, 1, 61, 64
2, 20349, Note_on_c, 1, 61, 0
2, 20352, Note_on_c, 1, 60, 64
2, 20529, Note_on_c, 1, 60, 0
2, 20544, Note_on_c, 1, 58, 64
2, 20552, Note_on_c, 1, 58, 0
2, 20552, Note_on_c, 1, 60, 64
2, 20560, Note_on_c, 1, 60, 0
2, 20560, Note_on_c, 1, 58, 64
2, 20568, Note_on_c, 1, 58, 0
2, 20568, Note_on_c, 1, 60, 64
2, 20576, Note_on_c, 1, 60, 0
2, 20576, Note_on_c, 1, 58, 64
2, 20584, Note_on_c, 1, 58, 0
2, 20584, Note_on_c, 1, 60, 64
2, 20592, Note_on_c, 1, 60, 0
2, 20592, Note_on_c, 1, 58, 64
2, 20600, Note_on_c, 1, 58, 0
2, 20600, Note_on_c, 1, 60, 64
2, 20608, Note_on_c, 1, 60, 0
2, 20608, Note_on_c, 1, 58, 64
2, 20616, Note_on_c, 1, 58, 0
2, 20616, Note_on_c, 1, 60, 64
2, 20624, Note_on_c, 1, 60, 0
2, 20624, Note_on_c, 1, 58, 64
2, 20632, Note_on_c, 1, 58, 0
2, 20632, Note_on_c, 1, 60, 64
2, 20640, Note_on_c, 1, 60, 0
2, 20640, Note_on_c, 1, 58, 64
2, 20648, Note_on_c, 1, 58, 0
2, 20648, Note_on_c, 1, 60, 64
2, 20656, Note_on_c, 1, 60, 0
2, 20656, Note_on_c, 1, 58, 64
2, 20664, Note_on_c, 1, 58, 0
2, 20664, Note_on_c, 1, 60, 64
2, 20672, Note_on_c, 1, 60, 0
2, 20672, Note_on_c, 1, 58, 64
2, 20680, Note_on_c, 1, 58, 0
2, 20680, Note_on_c, 1, 60, 64
2, 20688, Note_on_c, 1, 60, 0
2, 20688, Note_on_c, 1, 56, 64
2, 20733, Note_on_c, 1, 56, 0
2, 20736, Note_on_c, 1, 56, 64
2, 21090, Note_on_c, 1, 56, 0
2, 22656, Note_on_c, 1, 63, 64
2, 22833, Note_on_c, 1, 63, 0
2, 22848, Note_on_c, 1, 61, 64
2, 22856, Note_on_c, 1, 61, 0
2, 22856, Note_on_c, 1, 63, 64
2, 22864, Note_on_c, 1, 63, 0
2, 22864, Note_on_c, 1, 61, 64
2, 22872, Note_on_c, 1, 61, 0
2, 22872, Note_on_c, 1, 63, 64
2, 22880, Note_on_c, 1, 63, 0
2, 22880, Note_on_c, 1, 61, 64
2, 22888, Note_on_c, 1, 61, 0
2, 22888, Note_on_c, 1, 63, 64
2, 22896, Note_on_c, 1, 63, 0
2, 22896, Note_on_c, 1, 60, 64
2, 22941, Note_on_c, 1, 60, 0
2, 22944, Note_on_c, 1, 61, 64
2, 23033, Note_on_c, 1, 61, 0
2, 23040, Note_on_c, 1, 60, 64
2, 23085, Note_on_c, 1, 60, 0
2, 23088, Note_on_c, 1, 63, 64
2, 23133, Note_on_c, 1, 63, 0
2, 23136, Note_on_c, 1, 66, 64
2, 23181, Note_on_c, 1, 66, 0
2, 23184, Note_on_c, 1, 70, 64
2, 23229, Note_on_c, 1, 70, 0
2, 23232, Note_on_c, 1, 68, 64
2, 23409, Note_on_c, 1, 68, 0
2, 23424, Note_on_c, 1, 66, 64
2, 23432, Note_on_c, 1, 66, 0
2, 23432, Note_on_c, 1, 68, 64
2, 23440, Note_on_c, 1, 68, 0
2, 23440, Note_on_c, 1, 66, 64
2, 23448, Note_on_c, 1, 66, 0
2, 23448, Note_on_c, 1, 68, 64
2, 23456, Note_on_c, 1, 68, 0
2, 23456, Note_on_c, 1, 66, 64
2, 23464, Note_on_c, 1, 66, 0
2, 23464, Note_on_c, 1, 68, 64
2, 23472, Note_on_c, 1, 68, 0
2, 23472, Note_on_c, 1, 65, 64
2, 23517, Note_on_c, 1, 65, 0
2, 23520, Note_on_c, 1, 66, 64
2, 23609, Note_on_c, 1, 66, 0
2, 23616, Note_on_c, 1, 65, 64
2, 23970, Note_on_c, 1, 65, 0
2, 24960, Note_on_c, 1, 65, 64
2, 25137, Note_on_c, 1, 65, 0
2, 25152, Note_on_c, 1, 63, 64
2, 25160, Note_on_c, 1, 63, 0
2, 25160, Note_on_c, 1, 65, 64
2, 25168, Note_on_c, 1, 65, 0
2, 25168, Note_on_c, 1, 63, 64
2, 25176, Note_on_c, 1, 63, 0
2, 25176, Note_on_c, 1, 65, 64
2, 25184, Note_on_c, 1, 65, 0
2, 25184, Note_on_c, 1, 63, 64
2, 25192, Note_on_c, 1, 63, 0
2, 25192, Note_on_c, 1, 65, 64
2, 25200, Note_on_c, 1, 65, 0
2, 25200, Note_on_c, 1, 62, 64
2, 25245, Note_on_c, 1, 62, 0
2, 25248, Note_on_c, 1, 63, 64
2, 25337, Note_on_c, 1, 63, 0
2, 25344, Note_on_c, 1, 62, 64
2, 25389, Note_on_c, 1, 62, 0
2, 25392, Note_on_c, 1, 65, 64
2, 25437, Note_on_c, 1, 65, 0
2, 25440, Note_on_c, 1, 68, 64
2, 25485, Note_on_c, 1, 68, 0
2, 25488, Note_on_c, 1, 72, 64
2, 25533, Note_on_c, 1, 72, 0
2, 25536, Note_on_c, 1, 70, 64
2, 25713, Note_on_c, 1, 70, 0
2, 25728, Note_on_c, 1, 68, 64
2, 25736, Note_on_c, 1, 68, 0
2, 25736, Note_on_c, 1, 70, 64
2, 25744, Note_on_c, 1, 70, 0
2, 25744, Note_on_c, 1, 68, 64
2, 25752, Note_on_c, 1, 68, 0
2, 25752, Note_on_c, 1, 70, 64
2, 25760, Note_on_c, 1, 70, 0
2, 25760, Note_on_c, 1, 68, 64
2, 25768, Note_on_c, 1, 68, 0
2, 25768, Note_on_c, 1, 70, 64
2, 25776, Note_on_c, 1, 70, 0
2, 25776, Note_on_c, 1, 67, 64
2, 25821, Note_on_c, 1, 67, 0
2, 25824, Note_on_c, 1, 68, 64
2, 25913, Note_on_c, 1, 68, 0
2, 25920, Note_on_c, 1, 67, 64
2, 26274, Note_on_c, 1, 67, 0
2, 27264, Note_on_c, 1, 67, 64
2, 27441, Note_on_c, 1, 67, 0
2, 27456, Note_on_c, 1, 65, 64
2, 27464, Note_on_c, 1, 65, 0
2, 27464, Note_on_c, 1, 67, 64
2, 27472, Note_on_c, 1, 67, 0
2, 27472, Note_on_c, 1, 65, 64
2, 27480, Note_on_c, 1, 65, 0
2, 27480, Note_on_c, 1, 67, 64
2, 27488, Note_on_c, 1, 67, 0
2, 27488, Note_on_c, 1, 65, 64
2, 27496, Note_on_c, 1, 65, 0
2, 27496, Note_on_c, 1, 67, 64
2, 27504, Note_on_c, 1, 67, 0
2, 27504, Note_on_c, 1, 64, 64
2, 27549, Note_on_c, 1, 64, 0
2, 27552, Note_on_c, 1, 65, 64
2, 27641, Note_on_c, 1, 65, 0
2, 27648, Note_on_c, 1, 64, 64
2, 27693, Note_on_c, 1, 64, 0
2, 27696, Note_on_c, 1, 67, 64
2, 27741, Note_on_c, 1, 67, 0
2, 27744, Note_on_c, 1, 70, 64
2, 27789, Note_on_c, 1, 70, 0
2, 27792, Note_on_c, 1, 73, 64
2, 27837, Note_on_c, 1, 73, 0
2, 27840, Note_on_c, 1, 72, 64
2, 28017, Note_on_c, 1, 72, 0
2, 28032, Note_on_c, 1, 70, 64
2, 28040, Note_on_c, 1, 70, 0
2, 28040, Note_on_c, 1, 72, 64
2, 28048, Note_on_c, 1, 72, 0
2, 28048, Note_on_c, 1, 70, 64
2, 28056, Note_on_c, 1, 70, 0
2, 28056, Note_on_c, 1, 72, 64
2, 28064, Note_on_c, 1, 72, 0
2, 28064, Note_on_c, 1, 70, 64
2, 28072, Note_on_c, 1, 70, 0
2, 28072, Note_on_c, 1, 72, 64
2, 28080, Note_on_c, 1, 72, 0
2, 28080, Note_on_c, 1, 68, 64
2, 28125, Note_on_c, 1, 68, 0
2, 28128, Note_on_c, 1, 70, 64
2, 28217, Note_on_c, 1, 70, 0
2, 28224, Note_on_c, 1, 68, 64
2, 28578, Note_on_c, 1, 68, 0
2, 29568, Note_on_c, 1, 60, 64
2, 29745, Note_on_c, 1, 60, 0
2, 29760, Note_on_c, 1, 65, 64
2, 30129, Note_on_c, 1, 65, 0
2, 30144, Note_on_c, 1, 63, 64
2, 30321, Note_on_c, 1, 63, 0
2, 30336, Note_on_c, 1, 67, 64
2, 30705, Note_on_c, 1, 67, 0
2, 30720, Note_on_c, 1, 65, 64
2, 30897, Note_on_c, 1, 65, 0
2, 30912, Note_on_c, 1, 68, 64
2, 31193, Note_on_c, 1, 68, 0
2, 31200, Note_on_c, 1, 67, 64
2, 31289, Note_on_c, 1, 67, 0
2, 31296, Note_on_c, 1, 74, 64
2, 31385, Note_on_c, 1, 74, 0
2, 31392, Note_on_c, 1, 67, 64
2, 31481, Note_on_c, 1, 67, 0
2, 31488, Note_on_c, 1, 65, 64
2, 31577, Note_on_c, 1, 65, 0
2, 31584, Note_on_c, 1, 63, 64
2, 31629, Note_on_c, 1, 63, 0
2, 31632, Note_on_c, 1, 62, 64
2, 31677, Note_on_c, 1, 62, 0
2, 31680, Note_on_c, 1, 63, 64
2, 31725, Note_on_c, 1, 63, 0
2, 31728, Note_on_c, 1, 67, 64
2, 31773, Note_on_c, 1, 67, 0
2, 31776, Note_on_c, 1, 72, 64
2, 31821, Note_on_c, 1, 72, 0
2, 31824, Note_on_c, 1, 75, 64
2, 31869, Note_on_c, 1, 75, 0
2, 31872, Note_on_c, 1, 79, 64
2, 31961, Note_on_c, 1, 79, 0
2, 31968, Note_on_c, 1, 72, 64
2, 32057, Note_on_c, 1, 72, 0
2, 32064, Note_on_c, 1, 70, 64
2, 32153, Note_on_c, 1, 70, 0
2, 32160, Note_on_c, 1, 68, 64
2, 32205, Note_on_c, 1, 68, 0
2, 32208, Note_on_c, 1, 67, 64
2, 32253, Note_on_c, 1, 67, 0
2, 32256, Note_on_c, 1, 68, 64
2, 32301, Note_on_c, 1, 68, 0
2, 32304, Note_on_c, 1, 65, 64
2, 32349, Note_on_c, 1, 65, 0
2, 32352, Note_on_c, 1, 64, 64
2, 32397, Note_on_c, 1, 64, 0
2, 32400, Note_on_c, 1, 65, 64
2, 32445, Note_on_c, 1, 65, 0
2, 32448, Note_on_c, 1, 71, 64
2, 32713, Note_on_c, 1, 71, 0
2, 32736, Note_on_c, 1, 72, 64
2, 32781, Note_on_c, 1, 72, 0
2, 32784, Note_on_c, 1, 74, 64
2, 32829, Note_on_c, 1, 74, 0
2, 32832, Note_on_c, 1, 67, 64
2, 32877, Note_on_c, 1, 67, 0
2, 32880, Note_on_c, 1, 77, 64
2, 32925, Note_on_c, 1, 77, 0
2, 32928, Note_on_c, 1, 75, 64
2, 32973, Note_on_c, 1, 75, 0
2, 32976, Note_on_c, 1, 74, 64
2, 33021, Note_on_c, 1, 74, 0
2, 33024, Note_on_c, 1, 71, 64
2, 33032, Note_on_c, 1, 71, 0
2, 33032, Note_on_c, 1, 72, 64
2, 33040, Note_on_c, 1, 72, 0
2, 33040, Note_on_c, 1, 71, 64
2, 33048, Note_on_c, 1, 71, 0
2, 33048, Note_on_c, 1, 72, 64
2, 33056, Note_on_c, 1, 72, 0
2, 33056, Note_on_c, 1, 71, 64
2, 33064, Note_on_c, 1, 71, 0
2, 33064, Note_on_c, 1, 72, 64
2, 33072, Note_on_c, 1, 72, 0
2, 33072, Note_on_c, 1, 71, 64
2, 33080, Note_on_c, 1, 71, 0
2, 33080, Note_on_c, 1, 72, 64
2, 33088, Note_on_c, 1, 72, 0
2, 33088, Note_on_c, 1, 71, 64
2, 33096, Note_on_c, 1, 71, 0
2, 33096, Note_on_c, 1, 72, 64
2, 33104, Note_on_c, 1, 72, 0
2, 33104, Note_on_c, 1, 71, 64
2, 33112, Note_on_c, 1, 71, 0
2, 33112, Note_on_c, 1, 72, 64
2, 33120, Note_on_c, 1, 72, 0
2, 33120, Note_on_c, 1, 71, 64
2, 33128, Note_on_c, 1, 71, 0
2, 33128, Note_on_c, 1, 72, 64
2, 33136, Note_on_c, 1, 72, 0
2, 33136, Note_on_c, 1, 71, 64
2, 33144, Note_on_c, 1, 71, 0
2, 33144, Note_on_c, 1, 72, 64
2, 33152, Note_on_c, 1, 72, 0
2, 33152, Note_on_c, 1, 71, 64
2, 33160, Note_on_c, 1, 71, 0
2, 33160, Note_on_c, 1, 72, 64
2, 33168, Note_on_c, 1, 72, 0
2, 33168, Note_on_c, 1, 71, 64
2, 33176, Note_on_c, 1, 71, 0
2, 33176, Note_on_c, 1, 72, 64
2, 33184, Note_on_c, 1, 72, 0
2, 33184, Note_on_c, 1, 71, 64
2, 33192, Note_on_c, 1, 71, 0
2, 33192, Note_on_c, 1, 72, 64
2, 33200, Note_on_c, 1, 72, 0
2, 33200, Note_on_c, 1, 71, 64
2, 33208, Note_on_c, 1, 71, 0
2, 33208, Note_on_c, 1, 72, 64
2, 33216, Note_on_c, 1, 72, 0
2, 33216, Note_on_c, 1, 71, 64
2, 33224, Note_on_c, 1, 71, 0
2, 33224, Note_on_c, 1, 72, 64
2, 33232, Note_on_c, 1, 72, 0
2, 33232, Note_on_c, 1, 71, 64
2, 33240, Note_on_c, 1, 71, 0
2, 33240, Note_on_c, 1, 72, 64
2, 33248, Note_on_c, 1, 72, 0
2, 33248, Note_on_c, 1, 71, 64
2, 33256, Note_on_c, 1, 71, 0
2, 33256, Note_on_c, 1, 72, 64
2, 33264, Note_on_c, 1, 72, 0
2, 33264, Note_on_c, 1, 71, 64
2, 33272, Note_on_c, 1, 71, 0
2, 33272, Note_on_c, 1, 72, 64
2, 33280, Note_on_c, 1, 72, 0
2, 33280, Note_on_c, 1, 71, 64
2, 33288, Note_on_c, 1, 71, 0
2, 33288, Note_on_c, 1, 72, 64
2, 33296, Note_on_c, 1, 72, 0
2, 33296, Note_on_c, 1, 71, 64
2, 33304, Note_on_c, 1, 71, 0
2, 33304, Note_on_c, 1, 72, 64
2, 33312, Note_on_c, 1, 72, 0
2, 33312, Note_on_c, 1, 72, 64
2, 33401, Note_on_c, 1, 72, 0
2, 33408, Note_on_c, 1, 72, 64
2, 33762, Note_on_c, 1, 72, 0
2, 36480, Note_on_c, 1, 67, 64
2, 36953, Note_on_c, 1, 67, 0
2, 36960, Note_on_c, 1, 67, 64
2, 37049, Note_on_c, 1, 67, 0
2, 37056, Note_on_c, 1, 72, 64
2, 37145, Note_on_c, 1, 72, 0
2, 37152, Note_on_c, 1, 67, 64
2, 37241, Note_on_c, 1, 67, 0
2, 37248, Note_on_c, 1, 63, 64
2, 37337, Note_on_c, 1, 63, 0
2, 37344, Note_on_c, 1, 62, 64
2, 37389, Note_on_c, 1, 62, 0
2, 37392, Note_on_c, 1, 60, 64
2, 37437, Note_on_c, 1, 60, 0
2, 37440, Note_on_c, 1, 68, 64
2, 38681, Note_on_c, 1, 68, 0
2, 38688, Note_on_c, 1, 61, 64
2, 38777, Note_on_c, 1, 61, 0
2, 38784, Note_on_c, 1, 65, 64
2, 38873, Note_on_c, 1, 65, 0
2, 38880, Note_on_c, 1, 68, 64
2, 38969, Note_on_c, 1, 68, 0
2, 38976, Note_on_c, 1, 72, 64
2, 39072, Note_on_c, 1, 72, 0
2, 39072, Note_on_c, 1, 70, 64
2, 39161, Note_on_c, 1, 70, 0
2, 39168, Note_on_c, 1, 70, 64
2, 40409, Note_on_c, 1, 70, 0
2, 40416, Note_on_c, 1, 63, 64
2, 40505, Note_on_c, 1, 63, 0
2, 40512, Note_on_c, 1, 67, 64
2, 40601, Note_on_c, 1, 67, 0
2, 40608, Note_on_c, 1, 70, 64
2, 40697, Note_on_c, 1, 70, 0
2, 40704, Note_on_c, 1, 73, 64
2, 40800, Note_on_c, 1, 73, 0
2, 40800, Note_on_c, 1, 72, 64
2, 40889, Note_on_c, 1, 72, 0
2, 40896, Note_on_c, 1, 72, 64
2, 42137, Note_on_c, 1, 72, 0
2, 42144, Note_on_c, 1, 65, 64
2, 42233, Note_on_c, 1, 65, 0
2, 42240, Note_on_c, 1, 68, 64
2, 42329, Note_on_c, 1, 68, 0
2, 42336, Note_on_c, 1, 72, 64
2, 42425, Note_on_c, 1, 72, 0
2, 42432, Note_on_c, 1, 80, 64
2, 42713, Note_on_c, 1, 80, 0
2, 42720, Note_on_c, 1, 77, 64
2, 42809, Note_on_c, 1, 77, 0
2, 42816, Note_on_c, 1, 73, 64
2, 42905, Note_on_c, 1, 73, 0
2, 42912, Note_on_c, 1, 70, 64
2, 43001, Note_on_c, 1, 70, 0
2, 43008, Note_on_c, 1, 68, 64
2, 43097, Note_on_c, 1, 68, 0
2, 43104, Note_on_c, 1, 67, 64
2, 43149, Note_on_c, 1, 67, 0
2, 43152, Note_on_c, 1, 65, 64
2, 43197, Note_on_c, 1, 65, 0
2, 43200, Note_on_c, 1, 67, 64
2, 43289, Note_on_c, 1, 67, 0
2, 43296, Note_on_c, 1, 63, 64
2, 43385, Note_on_c, 1, 63, 0
2, 43392, Note_on_c, 1, 67, 64
2, 43481, Note_on_c, 1, 67, 0
2, 43488, Note_on_c, 1, 70, 64
2, 43577, Note_on_c, 1, 70, 0
2, 43584, Note_on_c, 1, 79, 64
2, 43865, Note_on_c, 1, 79, 0
2, 43872, Note_on_c, 1, 75, 64
2, 43961, Note_on_c, 1, 75, 0
2, 43968, Note_on_c, 1, 72, 64
2, 44057, Note_on_c, 1, 72, 0
2, 44064, Note_on_c, 1, 68, 64
2, 44153, Note_on_c, 1, 68, 0
2, 44160, Note_on_c, 1, 66, 64
2, 44249, Note_on_c, 1, 66, 0
2, 44256, Note_on_c, 1, 65, 64
2, 44301, Note_on_c, 1, 65, 0
2, 44304, Note_on_c, 1, 63, 64
2, 44349, Note_on_c, 1, 63, 0
2, 44352, Note_on_c, 1, 65, 64
2, 45105, Note_on_c, 1, 65, 0
2, 45120, Note_on_c, 1, 70, 64
2, 45297, Note_on_c, 1, 70, 0
2, 45312, Note_on_c, 1, 67, 64
2, 45489, Note_on_c, 1, 67, 0
2, 45504, Note_on_c, 1, 73, 64
2, 46257, Note_on_c, 1, 73, 0
2, 46272, Note_on_c, 1, 67, 64
2, 46449, Note_on_c, 1, 67, 0
2, 46464, Note_on_c, 1, 70, 64
2, 46641, Note_on_c, 1, 70, 0
2, 46656, Note_on_c, 1, 64, 64
2, 46833, Note_on_c, 1, 64, 0
2, 46848, Note_on_c, 1, 63, 64
2, 47365, Note_on_c, 1, 63, 0
2, 47376, Note_on_c, 1, 65, 64
2, 47399, Note_on_c, 1, 65, 0
2, 47400, Note_on_c, 1, 66, 64
2, 47423, Note_on_c, 1, 66, 0
2, 47424, Note_on_c, 1, 65, 64
2, 47513, Note_on_c, 1, 65, 0
2, 47520, Note_on_c, 1, 63, 64
2, 47609, Note_on_c, 1, 63, 0
2, 47616, Note_on_c, 1, 61, 64
2, 47705, Note_on_c, 1, 61, 0
2, 47712, Note_on_c, 1, 63, 64
2, 47757, Note_on_c, 1, 63, 0
2, 47760, Note_on_c, 1, 60, 64
2, 47805, Note_on_c, 1, 60, 0
2, 47808, Note_on_c, 1, 61, 64
2, 47985, Note_on_c, 1, 61, 0
2, 48000, Note_on_c, 1, 70, 64
2, 48517, Note_on_c, 1, 70, 0
2, 48528, Note_on_c, 1, 72, 64
2, 48551, Note_on_c, 1, 72, 0
2, 48552, Note_on_c, 1, 73, 64
2, 48575, Note_on_c, 1, 73, 0
2, 48576, Note_on_c, 1, 72, 64
2, 48665, Note_on_c, 1, 72, 0
2, 48672, Note_on_c, 1, 70, 64
2, 48761, Note_on_c, 1, 70, 0
2, 48768, Note_on_c, 1, 68, 64
2, 48857, Note_on_c, 1, 68, 0
2, 48864, Note_on_c, 1, 70, 64
2, 48909, Note_on_c, 1, 70, 0
2, 48912, Note_on_c, 1, 67, 64
2, 48957, Note_on_c, 1, 67, 0
2, 48960, Note_on_c, 1, 68, 64
2, 49093, Note_on_c, 1, 68, 0
2, 49104, Note_on_c, 1, 70, 64
2, 49149, Note_on_c, 1, 70, 0
2, 49152, Note_on_c, 1, 70, 64
2, 49160, Note_on_c, 1, 70, 0
2, 49160, Note_on_c, 1, 72, 64
2, 49168, Note_on_c, 1, 72, 0
2, 49168, Note_on_c, 1, 70, 64
2, 49176, Note_on_c, 1, 70, 0
2, 49176, Note_on_c, 1, 70, 64
2, 49184, Note_on_c, 1, 70, 0
2, 49184, Note_on_c, 1, 72, 64
2, 49192, Note_on_c, 1, 72, 0
2, 49192, Note_on_c, 1, 70, 64
2, 49200, Note_on_c, 1, 70, 0
2, 49200, Note_on_c, 1, 72, 64
2, 49208, Note_on_c, 1, 72, 0
2, 49208, Note_on_c, 1, 70, 64
2, 49216, Note_on_c, 1, 70, 0
2, 49216, Note_on_c, 1, 72, 64
2, 49224, Note_on_c, 1, 72, 0
2, 49224, Note_on_c, 1, 70, 64
2, 49232, Note_on_c, 1, 70, 0
2, 49232, Note_on_c, 1, 72, 64
2, 49240, Note_on_c, 1, 72, 0
2, 49240, Note_on_c, 1, 70, 64
2, 49248, Note_on_c, 1, 70, 0
2, 49248, Note_on_c, 1, 72, 64
2, 49256, Note_on_c, 1, 72, 0
2, 49256, Note_on_c, 1, 70, 64
2, 49264, Note_on_c, 1, 70, 0
2, 49264, Note_on_c, 1, 72, 64
2, 49272, Note_on_c, 1, 72, 0
2, 49272, Note_on_c, 1, 70, 64
2, 49280, Note_on_c, 1, 70, 0
2, 49280, Note_on_c, 1, 72, 64
2, 49288, Note_on_c, 1, 72, 0
2, 49288, Note_on_c, 1, 70, 64
2, 49296, Note_on_c, 1, 70, 0
2, 49296, Note_on_c, 1, 72, 64
2, 49304, Note_on_c, 1, 72, 0
2, 49304, Note_on_c, 1, 70, 64
2, 49312, Note_on_c, 1, 70, 0
2, 49312, Note_on_c, 1, 72, 64
2, 49320, Note_on_c, 1, 72, 0
2, 49320, Note_on_c, 1, 70, 64
2, 49328, Note_on_c, 1, 70, 0
2, 49328, Note_on_c, 1, 72, 64
2, 49336, Note_on_c, 1, 72, 0
2, 49336, Note_on_c, 1, 70, 64
2, 49344, Note_on_c, 1, 70, 0
2, 49344, Note_on_c, 1, 72, 64
2, 49352, Note_on_c, 1, 72, 0
2, 49352, Note_on_c, 1, 70, 64
2, 49360, Note_on_c, 1, 70, 0
2, 49360, Note_on_c, 1, 72, 64
2, 49368, Note_on_c, 1, 72, 0
2, 49368, Note_on_c, 1, 70, 64
2, 49376, Note_on_c, 1, 70, 0
2, 49376, Note_on_c, 1, 72, 64
2, 49384, Note_on_c, 1, 72, 0
2, 49384, Note_on_c, 1, 70, 64
2, 49392, Note_on_c, 1, 70, 0
2, 49392, Note_on_c, 1, 72, 64
2, 49400, Note_on_c, 1, 72, 0
2, 49400, Note_on_c, 1, 70, 64
2, 49408, Note_on_c, 1, 70, 0
2, 49408, Note_on_c, 1, 72, 64
2, 49416, Note_on_c, 1, 72, 0
2, 49416, Note_on_c, 1, 70, 64
2, 49424, Note_on_c, 1, 70, 0
2, 49424, Note_on_c, 1, 72, 64
2, 49432, Note_on_c, 1, 72, 0
2, 49432, Note_on_c, 1, 70, 64
2, 49440, Note_on_c, 1, 70, 0
2, 49440, Note_on_c, 1, 72, 64
2, 49529, Note_on_c, 1, 72, 0
2, 49536, Note_on_c, 1, 72, 64
2, 49625, Note_on_c, 1, 72, 0
2, 49632, Note_on_c, 1, 65, 64
2, 49721, Note_on_c, 1, 65, 0
2, 49728, Note_on_c, 1, 64, 64
2, 49817, Note_on_c, 1, 64, 0
2, 49824, Note_on_c, 1, 65, 64
2, 49913, Note_on_c, 1, 65, 0
2, 49920, Note_on_c, 1, 70, 64
2, 50009, Note_on_c, 1, 70, 0
2, 50016, Note_on_c, 1, 68, 64
2, 50105, Note_on_c, 1, 68, 0
2, 50112, Note_on_c, 1, 65, 64
2, 50466, Note_on_c, 1, 65, 0
2, 51456, Note_on_c, 1, 68, 64
2, 51633, Note_on_c, 1, 68, 0
2, 51648, Note_on_c, 1, 58, 64
2, 52017, Note_on_c, 1, 58, 0
2, 52032, Note_on_c, 1, 67, 64
2, 52209, Note_on_c, 1, 67, 0
2, 52224, Note_on_c, 1, 56, 64
2, 52593, Note_on_c, 1, 56, 0
2, 52608, Note_on_c, 1, 65, 64
2, 52785, Note_on_c, 1, 65, 0
2, 52800, Note_on_c, 1, 55, 64
2, 53081, Note_on_c, 1, 55, 0
2, 53088, Note_on_c, 1, 58, 64
2, 53177, Note_on_c, 1, 58, 0
2, 53184, Note_on_c, 1, 61, 64
2, 53280, Note_on_c, 1, 61, 0
2, 53280, Note_on_c, 1, 60, 64
2, 53369, Note_on_c, 1, 60, 0
2, 53376, Note_on_c, 1, 65, 64
2, 53472, Note_on_c, 1, 65, 0
2, 53472, Note_on_c, 1, 64, 64
2, 53561, Note_on_c, 1, 64, 0
2, 53568, Note_on_c, 1, 68, 64
2, 54233, Note_on_c, 1, 68, 0
2, 54240, Note_on_c, 1, 70, 64
2, 54329, Note_on_c, 1, 70, 0
2, 54336, Note_on_c, 1, 73, 64
2, 54432, Note_on_c, 1, 73, 0
2, 54432, Note_on_c, 1, 72, 64
2, 54521, Note_on_c, 1, 72, 0
2, 54528, Note_on_c, 1, 77, 64
2, 54624, Note_on_c, 1, 77, 0
2, 54624, Note_on_c, 1, 76, 64
2, 54713, Note_on_c, 1, 76, 0
2, 54720, Note_on_c, 1, 82, 64
2, 55385, Note_on_c, 1, 82, 0
2, 55392, Note_on_c, 1, 79, 64
2, 55481, Note_on_c, 1, 79, 0
2, 55488, Note_on_c, 1, 76, 64
2, 55577, Note_on_c, 1, 76, 0
2, 55584, Note_on_c, 1, 72, 64
2, 55673, Note_on_c, 1, 72, 0
2, 55680, Note_on_c, 1, 68, 64
2, 55769, Note_on_c, 1, 68, 0
2, 55776, Note_on_c, 1, 70, 64
2, 55821, Note_on_c, 1, 70, 0
2, 55824, Note_on_c, 1, 67, 64
2, 55869, Note_on_c, 1, 67, 0
2, 55872, Note_on_c, 1, 68, 64
2, 56049, Note_on_c, 1, 68, 0
2, 56064, Note_on_c, 1, 70, 64
2, 56241, Note_on_c, 1, 70, 0
2, 56256, Note_on_c, 1, 72, 64
2, 56625, Note_on_c, 1, 72, 0
2, 56640, Note_on_c, 1, 65, 64
2, 56817, Note_on_c, 1, 65, 0
2, 56832, Note_on_c, 1, 70, 64
2, 57113, Note_on_c, 1, 70, 0
2, 57120, Note_on_c, 1, 72, 64
2, 57209, Note_on_c, 1, 72, 0
2, 57216, Note_on_c, 1, 68, 64
2, 57453, Note_on_c, 1, 68, 0
2, 57456, Note_on_c, 1, 65, 64
2, 57501, Note_on_c, 1, 65, 0
2, 57504, Note_on_c, 1, 64, 64
2, 57549, Note_on_c, 1, 64, 0
2, 57552, Note_on_c, 1, 65, 64
2, 57597, Note_on_c, 1, 65, 0
2, 57600, Note_on_c, 1, 67, 64
2, 57954, Note_on_c, 1, 67, 0
2, 58368, Note_on_c, 1, 72, 64
2, 58545, Note_on_c, 1, 72, 0
2, 58560, Note_on_c, 1, 74, 64
2, 58649, Note_on_c, 1, 74, 0
2, 58656, Note_on_c, 1, 75, 64
2, 58745, Note_on_c, 1, 75, 0
2, 58752, Note_on_c, 1, 74, 64
2, 58929, Note_on_c, 1, 74, 0
2, 58944, Note_on_c, 1, 79, 64
2, 59121, Note_on_c, 1, 79, 0
2, 59136, Note_on_c, 1, 80, 64
2, 59225, Note_on_c, 1, 80, 0
2, 59232, Note_on_c, 1, 82, 64
2, 59321, Note_on_c, 1, 82, 0
2, 59328, Note_on_c, 1, 72, 64
2, 59593, Note_on_c, 1, 72, 0
2, 59616, Note_on_c, 1, 77, 64
2, 59705, Note_on_c, 1, 77, 0
2, 59712, Note_on_c, 1, 73, 64
2, 59993, Note_on_c, 1, 73, 0
2, 60000, Note_on_c, 1, 72, 64
2, 60045, Note_on_c, 1, 72, 0
2, 60048, Note_on_c, 1, 70, 64
2, 60093, Note_on_c, 1, 70, 0
2, 60096, Note_on_c, 1, 68, 64
2, 60273, Note_on_c, 1, 68, 0
2, 60288, Note_on_c, 1, 67, 64
2, 60296, Note_on_c, 1, 67, 0
2, 60296, Note_on_c, 1, 68, 64
2, 60304, Note_on_c, 1, 68, 0
2, 60304, Note_on_c, 1, 67, 64
2, 60312, Note_on_c, 1, 67, 0
2, 60312, Note_on_c, 1, 68, 64
2, 60320, Note_on_c, 1, 68, 0
2, 60320, Note_on_c, 1, 67, 64
2, 60328, Note_on_c, 1, 67, 0
2, 60328, Note_on_c, 1, 68, 64
2, 60336, Note_on_c, 1, 68, 0
2, 60336, Note_on_c, 1, 67, 64
2, 60344, Note_on_c, 1, 67, 0
2, 60344, Note_on_c, 1, 68, 64
2, 60352, Note_on_c, 1, 68, 0
2, 60352, Note_on_c, 1, 67, 64
2, 60360, Note_on_c, 1, 67, 0
2, 60360, Note_on_c, 1, 68, 64
2, 60368, Note_on_c, 1, 68, 0
2, 60368, Note_on_c, 1, 67, 64
2, 60376, Note_on_c, 1, 67, 0
2, 60376, Note_on_c, 1, 68, 64
2, 60384, Note_on_c, 1, 68, 0
2, 60384, Note_on_c, 1, 67, 64
2, 60392, Note_on_c, 1, 67, 0
2, 60392, Note_on_c, 1, 68, 64
2, 60400, Note_on_c, 1, 68, 0
2, 60400, Note_on_c, 1, 67, 64
2, 60408, Note_on_c, 1, 67, 0
2, 60408, Note_on_c, 1, 68, 64
2, 60416, Note_on_c, 1, 68, 0
2, 60416, Note_on_c, 1, 67, 64
2, 60424, Note_on_c, 1, 67, 0
2, 60424, Note_on_c, 1, 68, 64
2, 60432, Note_on_c, 1, 68, 0
2, 60432, Note_on_c, 1, 65, 64
2, 60477, Note_on_c, 1, 65, 0
2, 60480, Note_on_c, 1, 65, 64
2, 60569, Note_on_c, 1, 65, 0
2, 60576, Note_on_c, 1, 77, 64
2, 60665, Note_on_c, 1, 77, 0
2, 60672, Note_on_c, 1, 78, 64
2, 60768, Note_on_c, 1, 78, 0
2, 60768, Note_on_c, 1, 76, 64
2, 60857, Note_on_c, 1, 76, 0
2, 60864, Note_on_c, 1, 77, 64
2, 60960, Note_on_c, 1, 77, 0
2, 60960, Note_on_c, 1, 73, 64
2, 61049, Note_on_c, 1, 73, 0
2, 61056, Note_on_c, 1, 71, 64
2, 61152, Note_on_c, 1, 71, 0
2, 61152, Note_on_c, 1, 72, 64
2, 61241, Note_on_c, 1, 72, 0
2, 61248, Note_on_c, 1, 65, 64
2, 61513, Note_on_c, 1, 65, 0
2, 61536, Note_on_c, 1, 64, 64
2, 61581, Note_on_c, 1, 64, 0
2, 61584, Note_on_c, 1, 65, 64
2, 61629, Note_on_c, 1, 65, 0
2, 61632, Note_on_c, 1, 67, 64
2, 62162, Note_on_c, 1, 67, 0
2, 62162, End_track
3, 0, Start_track
3, 0, MIDI_port, 0
3, 0, Title_t, "Clavier (RH)"
3, 0, Program_c, 0, 6
3, 0, Control_c, 0, 7, 127
3, 96, Note_on_c, 0, 72, 64
3, 185, Note_on_c, 0, 72, 0
3, 192, Note_on_c, 0, 77, 64
3, 281, Note_on_c, 0, 77, 0
3, 288, Note_on_c, 0, 72, 64
3, 377, Note_on_c, 0, 72, 0
3, 384, Note_on_c, 0, 70, 64
3, 473, Note_on_c, 0, 70, 0
3, 480, Note_on_c, 0, 68, 64
3, 525, Note_on_c, 0, 68, 0
3, 528, Note_on_c, 0, 67, 64
3, 573, Note_on_c, 0, 67, 0
3, 576, Note_on_c, 0, 68, 64
3, 672, Note_on_c, 0, 60, 64
3, 753, Note_on_c, 0, 68, 0
3, 761, Note_on_c, 0, 60, 0
3, 768, Note_on_c, 0, 65, 64
3, 857, Note_on_c, 0, 65, 0
3, 864, Note_on_c, 0, 68, 64
3, 864, Note_on_c, 0, 60, 64
3, 953, Note_on_c, 0, 60, 0
3, 953, Note_on_c, 0, 68, 0
3, 960, Note_on_c, 0, 67, 64
3, 960, Note_on_c, 0, 58, 64
3, 1049, Note_on_c, 0, 58, 0
3, 1049, Note_on_c, 0, 67, 0
3, 1056, Note_on_c, 0, 65, 64
3, 1056, Note_on_c, 0, 56, 64
3, 1101, Note_on_c, 0, 56, 0
3, 1101, Note_on_c, 0, 65, 0
3, 1104, Note_on_c, 0, 64, 64
3, 1104, Note_on_c, 0, 55, 64
3, 1149, Note_on_c, 0, 55, 0
3, 1149, Note_on_c, 0, 64, 0
3, 1152, Note_on_c, 0, 65, 64
3, 1152, Note_on_c, 0, 56, 64
3, 1329, Note_on_c, 0, 56, 0
3, 1329, Note_on_c, 0, 65, 0
3, 1344, Note_on_c, 0, 72, 64
3, 1440, Note_on_c, 0, 68, 64
3, 1485, Note_on_c, 0, 68, 0
3, 1488, Note_on_c, 0, 67, 64
3, 1521, Note_on_c, 0, 72, 0
3, 1533, Note_on_c, 0, 67, 0
3, 1536, Note_on_c, 0, 77, 64
3, 1536, Note_on_c, 0, 68, 64
3, 1625, Note_on_c, 0, 68, 0
3, 1632, Note_on_c, 0, 73, 64
3, 1713, Note_on_c, 0, 77, 0
3, 1721, Note_on_c, 0, 73, 0
3, 1728, Note_on_c, 0, 77, 64
3, 1728, Note_on_c, 0, 67, 64
3, 1905, Note_on_c, 0, 67, 0
3, 1905, Note_on_c, 0, 77, 0
3, 1920, Note_on_c, 0, 70, 64
3, 2016, Note_on_c, 0, 67, 64
3, 2061, Note_on_c, 0, 67, 0
3, 2064, Note_on_c, 0, 65, 64
3, 2097, Note_on_c, 0, 70, 0
3, 2109, Note_on_c, 0, 65, 0
3, 2112, Note_on_c, 0, 75, 64
3, 2112, Note_on_c, 0, 67, 64
3, 2201, Note_on_c, 0, 67, 0
3, 2208, Note_on_c, 0, 72, 64
3, 2297, Note_on_c, 0, 72, 0
3, 2304, Note_on_c, 0, 65, 64
3, 2481, Note_on_c, 0, 65, 0
3, 2481, Note_on_c, 0, 75, 0
3, 2496, Note_on_c, 0, 68, 64
3, 2592, Note_on_c, 0, 65, 64
3, 2637, Note_on_c, 0, 65, 0
3, 2640, Note_on_c, 0, 64, 64
3, 2673, Note_on_c, 0, 68, 0
3, 2685, Note_on_c, 0, 64, 0
3, 2688, Note_on_c, 0, 73, 64
3, 2688, Note_on_c, 0, 65, 64
3, 2777, Note_on_c, 0, 65, 0
3, 2784, Note_on_c, 0, 70, 64
3, 2873, Note_on_c, 0, 70, 0
3, 2880, Note_on_c, 0, 64, 64
3, 2969, Note_on_c, 0, 73, 0
3, 2976, Note_on_c, 0, 72, 64
3, 3057, Note_on_c, 0, 64, 0
3, 3065, Note_on_c, 0, 72, 0
3, 3072, Note_on_c, 0, 77, 64
3, 3161, Note_on_c, 0, 77, 0
3, 3168, Note_on_c, 0, 72, 64
3, 3168, Note_on_c, 0, 68, 64
3, 3257, Note_on_c, 0, 68, 0
3, 3257, Note_on_c, 0, 72, 0
3, 3264, Note_on_c, 0, 70, 64
3, 3264, Note_on_c, 0, 67, 64
3, 3353, Note_on_c, 0, 67, 0
3, 3353, Note_on_c, 0, 70, 0
3, 3360, Note_on_c, 0, 68, 64
3, 3360, Note_on_c, 0, 65, 64
3, 3405, Note_on_c, 0, 65, 0
3, 3405, Note_on_c, 0, 68, 0
3, 3408, Note_on_c, 0, 67, 64
3, 3408, Note_on_c, 0, 64, 64
3, 3453, Note_on_c, 0, 64, 0
3, 3453, Note_on_c, 0, 67, 0
3, 3456, Note_on_c, 0, 68, 64
3, 3456, Note_on_c, 0, 65, 64
3, 3545, Note_on_c, 0, 65, 0
3, 3552, Note_on_c, 0, 60, 64
3, 3633, Note_on_c, 0, 68, 0
3, 3641, Note_on_c, 0, 60, 0
3, 3648, Note_on_c, 0, 65, 64
3, 3648, Note_on_c, 0, 65, 64
3, 3737, Note_on_c, 0, 65, 0
3, 3737, Note_on_c, 0, 65, 0
3, 3744, Note_on_c, 0, 68, 64
3, 3744, Note_on_c, 0, 60, 64
3, 3833, Note_on_c, 0, 60, 0
3, 3833, Note_on_c, 0, 68, 0
3, 3840, Note_on_c, 0, 67, 64
3, 3840, Note_on_c, 0, 58, 64
3, 3929, Note_on_c, 0, 58, 0
3, 3929, Note_on_c, 0, 67, 0
3, 3936, Note_on_c, 0, 65, 64
3, 3936, Note_on_c, 0, 56, 64
3, 3981, Note_on_c, 0, 56, 0
3, 3981, Note_on_c, 0, 65, 0
3, 3984, Note_on_c, 0, 64, 64
3, 3984, Note_on_c, 0, 55, 64
3, 4029, Note_on_c, 0, 55, 0
3, 4029, Note_on_c, 0, 64, 0
3, 4032, Note_on_c, 0, 56, 64
3, 4032, Note_on_c, 0, 65, 64
3, 4209, Note_on_c, 0, 65, 0
3, 4209, Note_on_c, 0, 56, 0
3, 4704, Note_on_c, 0, 72, 64
3, 4793, Note_on_c, 0, 72, 0
3, 4800, Note_on_c, 0, 79, 64
3, 4889, Note_on_c, 0, 79, 0
3, 4896, Note_on_c, 0, 72, 64
3, 4985, Note_on_c, 0, 72, 0
3, 4992, Note_on_c, 0, 70, 64
3, 5081, Note_on_c, 0, 70, 0
3, 5088, Note_on_c, 0, 68, 64
3, 5133, Note_on_c, 0, 68, 0
3, 5136, Note_on_c, 0, 67, 64
3, 5181, Note_on_c, 0, 67, 0
3, 5184, Note_on_c, 0, 68, 64
3, 5280, Note_on_c, 0, 77, 64
3, 5361, Note_on_c, 0, 68, 0
3, 5369, Note_on_c, 0, 77, 0
3, 5376, Note_on_c, 0, 84, 64
3, 5465, Note_on_c, 0, 84, 0
3, 5472, Note_on_c, 0, 77, 64
3, 5561, Note_on_c, 0, 77, 0
3, 5568, Note_on_c, 0, 72, 64
3, 5568, Note_on_c, 0, 75, 64
3, 5657, Note_on_c, 0, 75, 0
3, 5664, Note_on_c, 0, 73, 64
3, 5709, Note_on_c, 0, 73, 0
3, 5712, Note_on_c, 0, 72, 64
3, 5757, Note_on_c, 0, 72, 0
3, 5760, Note_on_c, 0, 73, 64
3, 5937, Note_on_c, 0, 73, 0
3, 5937, Note_on_c, 0, 72, 0
3, 5952, Note_on_c, 0, 65, 64
3, 6048, Note_on_c, 0, 73, 64
3, 6093, Note_on_c, 0, 73, 0
3, 6096, Note_on_c, 0, 72, 64
3, 6129, Note_on_c, 0, 65, 0
3, 6141, Note_on_c, 0, 72, 0
3, 6144, Note_on_c, 0, 70, 64
3, 6144, Note_on_c, 0, 73, 64
3, 6233, Note_on_c, 0, 73, 0
3, 6240, Note_on_c, 0, 79, 64
3, 6321, Note_on_c, 0, 70, 0
3, 6329, Note_on_c, 0, 79, 0
3, 6336, Note_on_c, 0, 70, 64
3, 6336, Note_on_c, 0, 72, 64
3, 6513, Note_on_c, 0, 72, 0
3, 6513, Note_on_c, 0, 70, 0
3, 6528, Note_on_c, 0, 63, 64
3, 6624, Note_on_c, 0, 72, 64
3, 6669, Note_on_c, 0, 72, 0
3, 6672, Note_on_c, 0, 70, 64
3, 6705, Note_on_c, 0, 63, 0
3, 6717, Note_on_c, 0, 70, 0
3, 6720, Note_on_c, 0, 68, 64
3, 6720, Note_on_c, 0, 72, 64
3, 6809, Note_on_c, 0, 72, 0
3, 6816, Note_on_c, 0, 77, 64
3, 6905, Note_on_c, 0, 77, 0
3, 6912, Note_on_c, 0, 70, 64
3, 7089, Note_on_c, 0, 70, 0
3, 7089, Note_on_c, 0, 68, 0
3, 7104, Note_on_c, 0, 67, 64
3, 7193, Note_on_c, 0, 67, 0
3, 7200, Note_on_c, 0, 65, 64
3, 7200, Note_on_c, 0, 70, 64
3, 7245, Note_on_c, 0, 70, 0
3, 7248, Note_on_c, 0, 68, 64
3, 7289, Note_on_c, 0, 65, 0
3, 7293, Note_on_c, 0, 68, 0
3, 7296, Note_on_c, 0, 67, 64
3, 7296, Note_on_c, 0, 70, 64
3, 7385, Note_on_c, 0, 70, 0
3, 7392, Note_on_c, 0, 76, 64
3, 7473, Note_on_c, 0, 67, 0
3, 7481, Note_on_c, 0, 76, 0
3, 7488, Note_on_c, 0, 68, 64
3, 7488, Note_on_c, 0, 77, 64
3, 7577, Note_on_c, 0, 77, 0
3, 7577, Note_on_c, 0, 68, 0
3, 7584, Note_on_c, 0, 60, 64
3, 7673, Note_on_c, 0, 60, 0
3, 7680, Note_on_c, 0, 65, 64
3, 7769, Note_on_c, 0, 65, 0
3, 7776, Note_on_c, 0, 60, 64
3, 7776, Note_on_c, 0, 68, 64
3, 7865, Note_on_c, 0, 68, 0
3, 7865, Note_on_c, 0, 60, 0
3, 7872, Note_on_c, 0, 58, 64
3, 7872, Note_on_c, 0, 67, 64
3, 7961, Note_on_c, 0, 67, 0
3, 7961, Note_on_c, 0, 58, 0
3, 7968, Note_on_c, 0, 56, 64
3, 7968, Note_on_c, 0, 65, 64
3, 8013, Note_on_c, 0, 65, 0
3, 8013, Note_on_c, 0, 56, 0
3, 8016, Note_on_c, 0, 55, 64
3, 8016, Note_on_c, 0, 64, 64
3, 8061, Note_on_c, 0, 64, 0
3, 8061, Note_on_c, 0, 55, 0
3, 8064, Note_on_c, 0, 56, 64
3, 8064, Note_on_c, 0, 65, 64
3, 8153, Note_on_c, 0, 65, 0
3, 8160, Note_on_c, 0, 72, 64
3, 8241, Note_on_c, 0, 56, 0
3, 8249, Note_on_c, 0, 72, 0
3, 8256, Note_on_c, 0, 77, 64
3, 8345, Note_on_c, 0, 77, 0
3, 8352, Note_on_c, 0, 68, 64
3, 8352, Note_on_c, 0, 72, 64
3, 8441, Note_on_c, 0, 72, 0
3, 8441, Note_on_c, 0, 68, 0
3, 8448, Note_on_c, 0, 67, 64
3, 8448, Note_on_c, 0, 70, 64
3, 8537, Note_on_c, 0, 70, 0
3, 8537, Note_on_c, 0, 67, 0
3, 8544, Note_on_c, 0, 65, 64
3, 8544, Note_on_c, 0, 68, 64
3, 8589, Note_on_c, 0, 68, 0
3, 8589, Note_on_c, 0, 65, 0
3, 8592, Note_on_c, 0, 64, 64
3, 8592, Note_on_c, 0, 67, 64
3, 8637, Note_on_c, 0, 67, 0
3, 8637, Note_on_c, 0, 64, 0
3, 8640, Note_on_c, 0, 65, 64
3, 8640, Note_on_c, 0, 68, 64
3, 8817, Note_on_c, 0, 68, 0
3, 8817, Note_on_c, 0, 65, 0
3, 9312, Note_on_c, 0, 67, 64
3, 9401, Note_on_c, 0, 67, 0
3, 9408, Note_on_c, 0, 72, 64
3, 9497, Note_on_c, 0, 72, 0
3, 9504, Note_on_c, 0, 67, 64
3, 9593, Note_on_c, 0, 67, 0
3, 9600, Note_on_c, 0, 64, 64
3, 9689, Note_on_c, 0, 64, 0
3, 9696, Note_on_c, 0, 62, 64
3, 9741, Note_on_c, 0, 62, 0
3, 9744, Note_on_c, 0, 60, 64
3, 9789, Note_on_c, 0, 60, 0
3, 9792, Note_on_c, 0, 68, 64
3, 9888, Note_on_c, 0, 72, 64
3, 9969, Note_on_c, 0, 68, 0
3, 9977, Note_on_c, 0, 72, 0
3, 9984, Note_on_c, 0, 77, 64
3, 10073, Note_on_c, 0, 77, 0
3, 10080, Note_on_c, 0, 72, 64
3, 10169, Note_on_c, 0, 72, 0
3, 10176, Note_on_c, 0, 68, 64
3, 10265, Note_on_c, 0, 68, 0
3, 10272, Note_on_c, 0, 67, 64
3, 10317, Note_on_c, 0, 67, 0
3, 10320, Note_on_c, 0, 65, 64
3, 10365, Note_on_c, 0, 65, 0
3, 10368, Note_on_c, 0, 73, 64
3, 10464, Note_on_c, 0, 65, 64
3, 10553, Note_on_c, 0, 65, 0
3, 10560, Note_on_c, 0, 70, 64
3, 10649, Note_on_c, 0, 70, 0
3, 10656, Note_on_c, 0, 65, 64
3, 10745, Note_on_c, 0, 65, 0
3, 10752, Note_on_c, 0, 61, 64
3, 10841, Note_on_c, 0, 61, 0
3, 10848, Note_on_c, 0, 60, 64
3, 10893, Note_on_c, 0, 60, 0
3, 10896, Note_on_c, 0, 58, 64
3, 10941, Note_on_c, 0, 58, 0
3, 10944, Note_on_c, 0, 67, 64
3, 10989, Note_on_c, 0, 73, 0
3, 10992, Note_on_c, 0, 72, 64
3, 11037, Note_on_c, 0, 72, 0
3, 11040, Note_on_c, 0, 70, 64
3, 11085, Note_on_c, 0, 70, 0
3, 11088, Note_on_c, 0, 72, 64
3, 11133, Note_on_c, 0, 72, 0
3, 11136, Note_on_c, 0, 73, 64
3, 11181, Note_on_c, 0, 73, 0
3, 11184, Note_on_c, 0, 72, 64
3, 11229, Note_on_c, 0, 72, 0
3, 11232, Note_on_c, 0, 73, 64
3, 11277, Note_on_c, 0, 73, 0
3, 11280, Note_on_c, 0, 77, 64
3, 11325, Note_on_c, 0, 77, 0
3, 11328, Note_on_c, 0, 75, 64
3, 11417, Note_on_c, 0, 75, 0
3, 11424, Note_on_c, 0, 73, 64
3, 11469, Note_on_c, 0, 73, 0
3, 11472, Note_on_c, 0, 72, 64
3, 11517, Note_on_c, 0, 72, 0
3, 11520, Note_on_c, 0, 72, 64
3, 11565, Note_on_c, 0, 67, 0
3, 11568, Note_on_c, 0, 65, 64
3, 11613, Note_on_c, 0, 65, 0
3, 11616, Note_on_c, 0, 63, 64
3, 11661, Note_on_c, 0, 63, 0
3, 11664, Note_on_c, 0, 65, 64
3, 11709, Note_on_c, 0, 65, 0
3, 11712, Note_on_c, 0, 66, 64
3, 11757, Note_on_c, 0, 66, 0
3, 11760, Note_on_c, 0, 65, 64
3, 11805, Note_on_c, 0, 65, 0
3, 11808, Note_on_c, 0, 66, 64
3, 11853, Note_on_c, 0, 66, 0
3, 11856, Note_on_c, 0, 70, 64
3, 11901, Note_on_c, 0, 70, 0
3, 11904, Note_on_c, 0, 68, 64
3, 11993, Note_on_c, 0, 68, 0
3, 12000, Note_on_c, 0, 66, 64
3, 12045, Note_on_c, 0, 66, 0
3, 12048, Note_on_c, 0, 65, 64
3, 12093, Note_on_c, 0, 65, 0
3, 12096, Note_on_c, 0, 63, 64
3, 12185, Note_on_c, 0, 63, 0
3, 12185, Note_on_c, 0, 72, 0
3, 12288, Note_on_c, 0, 70, 64
3, 12377, Note_on_c, 0, 70, 0
3, 12384, Note_on_c, 0, 65, 64
3, 12473, Note_on_c, 0, 65, 0
3, 12480, Note_on_c, 0, 61, 64
3, 12569, Note_on_c, 0, 61, 0
3, 12576, Note_on_c, 0, 60, 64
3, 12621, Note_on_c, 0, 60, 0
3, 12624, Note_on_c, 0, 58, 64
3, 12669, Note_on_c, 0, 58, 0
3, 12672, Note_on_c, 0, 67, 64
3, 12768, Note_on_c, 0, 55, 64
3, 12857, Note_on_c, 0, 55, 0
3, 12864, Note_on_c, 0, 60, 64
3, 12953, Note_on_c, 0, 60, 0
3, 12960, Note_on_c, 0, 55, 64
3, 13049, Note_on_c, 0, 55, 0
3, 13056, Note_on_c, 0, 52, 64
3, 13145, Note_on_c, 0, 52, 0
3, 13152, Note_on_c, 0, 50, 64
3, 13197, Note_on_c, 0, 50, 0
3, 13200, Note_on_c, 0, 48, 64
3, 13245, Note_on_c, 0, 48, 0
3, 13248, Note_on_c, 0, 56, 64
3, 13337, Note_on_c, 0, 67, 0
3, 13344, Note_on_c, 0, 60, 64
3, 13433, Note_on_c, 0, 60, 0
3, 13440, Note_on_c, 0, 65, 64
3, 13513, Note_on_c, 0, 56, 0
3, 13529, Note_on_c, 0, 65, 0
3, 13536, Note_on_c, 0, 60, 64
3, 13536, Note_on_c, 0, 68, 64
3, 13625, Note_on_c, 0, 68, 0
3, 13625, Note_on_c, 0, 60, 0
3, 13632, Note_on_c, 0, 58, 64
3, 13632, Note_on_c, 0, 67, 64
3, 13721, Note_on_c, 0, 67, 0
3, 13728, Note_on_c, 0, 65, 64
3, 13809, Note_on_c, 0, 58, 0
3, 13817, Note_on_c, 0, 65, 0
3, 13824, Note_on_c, 0, 55, 64
3, 13824, Note_on_c, 0, 64, 64
3, 13913, Note_on_c, 0, 64, 0
3, 13913, Note_on_c, 0, 55, 0
3, 13920, Note_on_c, 0, 72, 64
3, 14009, Note_on_c, 0, 72, 0
3, 14016, Note_on_c, 0, 79, 64
3, 14105, Note_on_c, 0, 79, 0
3, 14112, Note_on_c, 0, 72, 64
3, 14201, Note_on_c, 0, 72, 0
3, 14208, Note_on_c, 0, 70, 64
3, 14297, Note_on_c, 0, 70, 0
3, 14304, Note_on_c, 0, 68, 64
3, 14349, Note_on_c, 0, 68, 0
3, 14352, Note_on_c, 0, 67, 64
3, 14397, Note_on_c, 0, 67, 0
3, 14400, Note_on_c, 0, 68, 64
3, 14496, Note_on_c, 0, 60, 64
3, 14585, Note_on_c, 0, 60, 0
3, 14592, Note_on_c, 0, 65, 64
3, 14681, Note_on_c, 0, 65, 0
3, 14688, Note_on_c, 0, 60, 64
3, 14777, Note_on_c, 0, 60, 0
3, 14784, Note_on_c, 0, 56, 64
3, 14873, Note_on_c, 0, 56, 0
3, 14880, Note_on_c, 0, 55, 64
3, 14925, Note_on_c, 0, 55, 0
3, 14928, Note_on_c, 0, 53, 64
3, 14930, Note_on_c, 0, 68, 0
3, 14973, Note_on_c, 0, 53, 0
3, 14976, Note_on_c, 0, 58, 64
3, 14976, Note_on_c, 0, 65, 64
3, 14976, Note_on_c, 0, 68, 64
3, 15065, Note_on_c, 0, 68, 0
3, 15072, Note_on_c, 0, 70, 64
3, 15161, Note_on_c, 0, 70, 0
3, 15168, Note_on_c, 0, 77, 64
3, 15257, Note_on_c, 0, 77, 0
3, 15264, Note_on_c, 0, 70, 64
3, 15353, Note_on_c, 0, 70, 0
3, 15360, Note_on_c, 0, 68, 64
3, 15449, Note_on_c, 0, 68, 0
3, 15456, Note_on_c, 0, 67, 64
3, 15501, Note_on_c, 0, 67, 0
3, 15504, Note_on_c, 0, 65, 64
3, 15549, Note_on_c, 0, 65, 0
3, 15552, Note_on_c, 0, 65, 0
3, 15552, Note_on_c, 0, 63, 64
3, 15552, Note_on_c, 0, 67, 64
3, 15641, Note_on_c, 0, 58, 0
3, 15648, Note_on_c, 0, 58, 64
3, 15737, Note_on_c, 0, 58, 0
3, 15744, Note_on_c, 0, 63, 64
3, 15833, Note_on_c, 0, 63, 0
3, 15840, Note_on_c, 0, 58, 64
3, 15929, Note_on_c, 0, 58, 0
3, 15936, Note_on_c, 0, 55, 64
3, 16025, Note_on_c, 0, 55, 0
3, 16032, Note_on_c, 0, 53, 64
3, 16077, Note_on_c, 0, 53, 0
3, 16080, Note_on_c, 0, 51, 64
3, 16125, Note_on_c, 0, 51, 0
3, 16128, Note_on_c, 0, 63, 0
3, 16128, Note_on_c, 0, 56, 64
3, 16217, Note_on_c, 0, 67, 0
3, 16224, Note_on_c, 0, 68, 64
3, 16313, Note_on_c, 0, 68, 0
3, 16320, Note_on_c, 0, 75, 64
3, 16409, Note_on_c, 0, 75, 0
3, 16416, Note_on_c, 0, 68, 64
3, 16505, Note_on_c, 0, 68, 0
3, 16512, Note_on_c, 0, 66, 64
3, 16601, Note_on_c, 0, 66, 0
3, 16608, Note_on_c, 0, 65, 64
3, 16653, Note_on_c, 0, 65, 0
3, 16656, Note_on_c, 0, 63, 64
3, 16701, Note_on_c, 0, 63, 0
3, 16704, Note_on_c, 0, 65, 64
3, 16793, Note_on_c, 0, 56, 0
3, 16881, Note_on_c, 0, 65, 0
3, 16992, Note_on_c, 0, 65, 64
3, 17088, Note_on_c, 0, 68, 64
3, 17177, Note_on_c, 0, 68, 0
3, 17184, Note_on_c, 0, 73, 64
3, 17273, Note_on_c, 0, 73, 0
3, 17280, Note_on_c, 0, 70, 64
3, 17369, Note_on_c, 0, 65, 0
3, 17376, Note_on_c, 0, 67, 64
3, 17465, Note_on_c, 0, 67, 0
3, 17472, Note_on_c, 0, 63, 64
3, 17561, Note_on_c, 0, 70, 0
3, 17568, Note_on_c, 0, 67, 64
3, 17657, Note_on_c, 0, 67, 0
3, 17664, Note_on_c, 0, 68, 64
3, 17737, Note_on_c, 0, 63, 0
3, 17753, Note_on_c, 0, 68, 0
3, 17760, Note_on_c, 0, 65, 64
3, 17760, Note_on_c, 0, 74, 64
3, 17849, Note_on_c, 0, 74, 0
3, 17849, Note_on_c, 0, 65, 0
3, 17856, Note_on_c, 0, 67, 64
3, 17856, Note_on_c, 0, 75, 64
3, 17945, Note_on_c, 0, 75, 0
3, 17952, Note_on_c, 0, 75, 64
3, 18033, Note_on_c, 0, 67, 0
3, 18041, Note_on_c, 0, 75, 0
3, 18048, Note_on_c, 0, 82, 64
3, 18137, Note_on_c, 0, 82, 0
3, 18144, Note_on_c, 0, 75, 64
3, 18233, Note_on_c, 0, 75, 0
3, 18240, Note_on_c, 0, 73, 64
3, 18329, Note_on_c, 0, 73, 0
3, 18336, Note_on_c, 0, 72, 64
3, 18381, Note_on_c, 0, 72, 0
3, 18384, Note_on_c, 0, 70, 64
3, 18429, Note_on_c, 0, 70, 0
3, 18432, Note_on_c, 0, 72, 64
3, 18528, Note_on_c, 0, 63, 64
3, 18617, Note_on_c, 0, 63, 0
3, 18624, Note_on_c, 0, 68, 64
3, 18713, Note_on_c, 0, 68, 0
3, 18720, Note_on_c, 0, 63, 64
3, 18809, Note_on_c, 0, 63, 0
3, 18816, Note_on_c, 0, 60, 64
3, 18905, Note_on_c, 0, 60, 0
3, 18912, Note_on_c, 0, 58, 64
3, 18957, Note_on_c, 0, 58, 0
3, 18960, Note_on_c, 0, 56, 64
3, 19005, Note_on_c, 0, 56, 0
3, 19008, Note_on_c, 0, 65, 64
3, 19053, Note_on_c, 0, 72, 0
3, 19056, Note_on_c, 0, 63, 64
3, 19101, Note_on_c, 0, 63, 0
3, 19104, Note_on_c, 0, 61, 64
3, 19149, Note_on_c, 0, 61, 0
3, 19152, Note_on_c, 0, 60, 64
3, 19197, Note_on_c, 0, 60, 0
3, 19200, Note_on_c, 0, 61, 64
3, 19245, Note_on_c, 0, 61, 0
3, 19248, Note_on_c, 0, 65, 64
3, 19293, Note_on_c, 0, 65, 0
3, 19296, Note_on_c, 0, 70, 64
3, 19341, Note_on_c, 0, 70, 0
3, 19344, Note_on_c, 0, 65, 64
3, 19389, Note_on_c, 0, 65, 0
3, 19392, Note_on_c, 0, 63, 64
3, 19437, Note_on_c, 0, 63, 0
3, 19440, Note_on_c, 0, 61, 64
3, 19485, Note_on_c, 0, 61, 0
3, 19488, Note_on_c, 0, 60, 64
3, 19533, Note_on_c, 0, 60, 0
3, 19536, Note_on_c, 0, 58, 64
3, 19538, Note_on_c, 0, 65, 0
3, 19581, Note_on_c, 0, 58, 0
3, 19584, Note_on_c, 0, 58, 64
3, 19584, Note_on_c, 0, 67, 64
3, 19629, Note_on_c, 0, 67, 0
3, 19632, Note_on_c, 0, 63, 64
3, 19677, Note_on_c, 0, 63, 0
3, 19680, Note_on_c, 0, 65, 64
3, 19725, Note_on_c, 0, 65, 0
3, 19728, Note_on_c, 0, 67, 64
3, 19761, Note_on_c, 0, 58, 0
3, 19773, Note_on_c, 0, 67, 0
3, 19776, Note_on_c, 0, 56, 64
3, 19776, Note_on_c, 0, 68, 64
3, 19821, Note_on_c, 0, 68, 0
3, 19824, Note_on_c, 0, 72, 64
3, 19869, Note_on_c, 0, 72, 0
3, 19872, Note_on_c, 0, 75, 64
3, 19917, Note_on_c, 0, 75, 0
3, 19920, Note_on_c, 0, 72, 64
3, 19953, Note_on_c, 0, 56, 0
3, 19965, Note_on_c, 0, 72, 0
3, 19968, Note_on_c, 0, 70, 64
3, 20013, Note_on_c, 0, 70, 0
3, 20016, Note_on_c, 0, 68, 64
3, 20061, Note_on_c, 0, 68, 0
3, 20064, Note_on_c, 0, 67, 64
3, 20109, Note_on_c, 0, 67, 0
3, 20112, Note_on_c, 0, 65, 64
3, 20160, Note_on_c, 0, 73, 64
3, 20160, Note_on_c, 0, 58, 64
3, 20249, Note_on_c, 0, 73, 0
3, 20249, Note_on_c, 0, 65, 0
3, 20256, Note_on_c, 0, 72, 64
3, 20301, Note_on_c, 0, 72, 0
3, 20304, Note_on_c, 0, 70, 64
3, 20337, Note_on_c, 0, 58, 0
3, 20349, Note_on_c, 0, 70, 0
3, 20352, Note_on_c, 0, 63, 64
3, 20352, Note_on_c, 0, 60, 64
3, 20352, Note_on_c, 0, 68, 64
3, 20529, Note_on_c, 0, 68, 0
3, 20529, Note_on_c, 0, 60, 0
3, 20544, Note_on_c, 0, 63, 0
3, 20544, Note_on_c, 0, 63, 64
3, 20544, Note_on_c, 0, 61, 64
3, 20544, Note_on_c, 0, 67, 64
3, 20677, Note_on_c, 0, 67, 0
3, 20688, Note_on_c, 0, 68, 64
3, 20721, Note_on_c, 0, 61, 0
3, 20733, Note_on_c, 0, 68, 0
3, 20736, Note_on_c, 0, 63, 0
3, 20736, Note_on_c, 0, 60, 64
3, 20736, Note_on_c, 0, 68, 64
3, 20825, Note_on_c, 0, 68, 0
3, 20825, Note_on_c, 0, 60, 0
3, 20832, Note_on_c, 0, 68, 64
3, 20921, Note_on_c, 0, 68, 0
3, 20928, Note_on_c, 0, 75, 64
3, 21017, Note_on_c, 0, 75, 0
3, 21024, Note_on_c, 0, 68, 64
3, 21113, Note_on_c, 0, 68, 0
3, 21120, Note_on_c, 0, 66, 64
3, 21209, Note_on_c, 0, 66, 0
3, 21216, Note_on_c, 0, 65, 64
3, 21261, Note_on_c, 0, 65, 0
3, 21264, Note_on_c, 0, 63, 64
3, 21309, Note_on_c, 0, 63, 0
3, 21312, Note_on_c, 0, 65, 64
3, 21408, Note_on_c, 0, 70, 64
3, 21497, Note_on_c, 0, 70, 0
3, 21504, Note_on_c, 0, 77, 64
3, 21593, Note_on_c, 0, 77, 0
3, 21600, Note_on_c, 0, 70, 64
3, 21689, Note_on_c, 0, 70, 0
3, 21696, Note_on_c, 0, 68, 64
3, 21785, Note_on_c, 0, 68, 0
3, 21792, Note_on_c, 0, 67, 64
3, 21837, Note_on_c, 0, 67, 0
3, 21840, Note_on_c, 0, 65, 64
3, 21842, Note_on_c, 0, 65, 0
3, 21885, Note_on_c, 0, 65, 0
3, 21888, Note_on_c, 0, 65, 64
3, 21888, Note_on_c, 0, 67, 64
3, 22065, Note_on_c, 0, 65, 0
3, 22080, Note_on_c, 0, 63, 64
3, 22153, Note_on_c, 0, 67, 0
3, 22176, Note_on_c, 0, 68, 64
3, 22257, Note_on_c, 0, 63, 0
3, 22265, Note_on_c, 0, 68, 0
3, 22272, Note_on_c, 0, 61, 64
3, 22272, Note_on_c, 0, 70, 64
3, 22449, Note_on_c, 0, 61, 0
3, 22464, Note_on_c, 0, 60, 64
3, 22509, Note_on_c, 0, 70, 0
3, 22512, Note_on_c, 0, 68, 64
3, 22557, Note_on_c, 0, 68, 0
3, 22560, Note_on_c, 0, 67, 64
3, 22605, Note_on_c, 0, 67, 0
3, 22608, Note_on_c, 0, 68, 64
3, 22641, Note_on_c, 0, 60, 0
3, 22656, Note_on_c, 0, 58, 64
3, 22701, Note_on_c, 0, 68, 0
3, 22704, Note_on_c, 0, 67, 64
3, 22749, Note_on_c, 0, 67, 0
3, 22752, Note_on_c, 0, 65, 64
3, 22797, Note_on_c, 0, 65, 0
3, 22800, Note_on_c, 0, 67, 64
3, 22833, Note_on_c, 0, 58, 0
3, 22845, Note_on_c, 0, 67, 0
3, 22848, Note_on_c, 0, 58, 64
3, 22848, Note_on_c, 0, 63, 64
3, 22854, Note_on_c, 0, 63, 0
3, 22854, Note_on_c, 0, 65, 64
3, 22860, Note_on_c, 0, 65, 0
3, 22860, Note_on_c, 0, 63, 64
3, 22866, Note_on_c, 0, 63, 0
3, 22866, Note_on_c, 0, 65, 64
3, 22872, Note_on_c, 0, 65, 0
3, 22872, Note_on_c, 0, 63, 64
3, 22878, Note_on_c, 0, 63, 0
3, 22878, Note_on_c, 0, 65, 64
3, 22884, Note_on_c, 0, 65, 0
3, 22884, Note_on_c, 0, 63, 64
3, 22890, Note_on_c, 0, 63, 0
3, 22890, Note_on_c, 0, 65, 64
3, 22896, Note_on_c, 0, 65, 0
3, 22896, Note_on_c, 0, 63, 64
3, 22902, Note_on_c, 0, 63, 0
3, 22902, Note_on_c, 0, 65, 64
3, 22908, Note_on_c, 0, 65, 0
3, 22908, Note_on_c, 0, 63, 64
3, 22914, Note_on_c, 0, 63, 0
3, 22914, Note_on_c, 0, 65, 64
3, 22920, Note_on_c, 0, 65, 0
3, 22920, Note_on_c, 0, 63, 64
3, 22926, Note_on_c, 0, 63, 0
3, 22926, Note_on_c, 0, 65, 64
3, 22932, Note_on_c, 0, 65, 0
3, 22932, Note_on_c, 0, 63, 64
3, 22938, Note_on_c, 0, 63, 0
3, 22938, Note_on_c, 0, 65, 64
3, 22944, Note_on_c, 0, 65, 0
3, 22944, Note_on_c, 0, 63, 64
3, 22950, Note_on_c, 0, 63, 0
3, 22950, Note_on_c, 0, 65, 64
3, 22956, Note_on_c, 0, 65, 0
3, 22956, Note_on_c, 0, 63, 64
3, 22962, Note_on_c, 0, 63, 0
3, 22962, Note_on_c, 0, 65, 64
3, 22968, Note_on_c, 0, 65, 0
3, 22968, Note_on_c, 0, 63, 64
3, 22974, Note_on_c, 0, 63, 0
3, 22974, Note_on_c, 0, 65, 64
3, 22980, Note_on_c, 0, 65, 0
3, 22980, Note_on_c, 0, 63, 64
3, 22986, Note_on_c, 0, 63, 0
3, 22986, Note_on_c, 0, 65, 64
3, 22992, Note_on_c, 0, 65, 0
3, 22992, Note_on_c, 0, 63, 64
3, 22998, Note_on_c, 0, 63, 0
3, 22998, Note_on_c, 0, 65, 64
3, 23004, Note_on_c, 0, 65, 0
3, 23004, Note_on_c, 0, 63, 64
3, 23010, Note_on_c, 0, 63, 0
3, 23010, Note_on_c, 0, 65, 64
3, 23016, Note_on_c, 0, 65, 0
3, 23016, Note_on_c, 0, 63, 64
3, 23022, Note_on_c, 0, 63, 0
3, 23022, Note_on_c, 0, 65, 64
3, 23025, Note_on_c, 0, 58, 0
3, 23028, Note_on_c, 0, 65, 0
3, 23028, Note_on_c, 0, 63, 64
3, 23034, Note_on_c, 0, 63, 0
3, 23034, Note_on_c, 0, 65, 64
3, 23040, Note_on_c, 0, 65, 0
3, 23040, Note_on_c, 0, 60, 64
3, 23040, Note_on_c, 0, 68, 64
3, 23129, Note_on_c, 0, 68, 0
3, 23129, Note_on_c, 0, 60, 0
3, 23136, Note_on_c, 0, 63, 64
3, 23225, Note_on_c, 0, 63, 0
3, 23232, Note_on_c, 0, 68, 64
3, 23321, Note_on_c, 0, 68, 0
3, 23328, Note_on_c, 0, 63, 64
3, 23417, Note_on_c, 0, 63, 0
3, 23424, Note_on_c, 0, 60, 64
3, 23513, Note_on_c, 0, 60, 0
3, 23520, Note_on_c, 0, 58, 64
3, 23565, Note_on_c, 0, 58, 0
3, 23568, Note_on_c, 0, 56, 64
3, 23613, Note_on_c, 0, 56, 0
3, 23616, Note_on_c, 0, 65, 64
3, 23712, Note_on_c, 0, 68, 64
3, 23793, Note_on_c, 0, 65, 0
3, 23801, Note_on_c, 0, 68, 0
3, 23808, Note_on_c, 0, 73, 64
3, 23897, Note_on_c, 0, 73, 0
3, 23904, Note_on_c, 0, 65, 64
3, 23904, Note_on_c, 0, 68, 64
3, 23993, Note_on_c, 0, 68, 0
3, 23993, Note_on_c, 0, 65, 0
3, 24000, Note_on_c, 0, 63, 64
3, 24000, Note_on_c, 0, 66, 64
3, 24089, Note_on_c, 0, 66, 0
3, 24089, Note_on_c, 0, 63, 0
3, 24096, Note_on_c, 0, 61, 64
3, 24096, Note_on_c, 0, 65, 64
3, 24141, Note_on_c, 0, 65, 0
3, 24141, Note_on_c, 0, 61, 0
3, 24144, Note_on_c, 0, 60, 64
3, 24144, Note_on_c, 0, 63, 64
3, 24189, Note_on_c, 0, 63, 0
3, 24189, Note_on_c, 0, 60, 0
3, 24192, Note_on_c, 0, 61, 64
3, 24192, Note_on_c, 0, 65, 64
3, 24281, Note_on_c, 0, 61, 0
3, 24288, Note_on_c, 0, 56, 64
3, 24369, Note_on_c, 0, 65, 0
3, 24377, Note_on_c, 0, 56, 0
3, 24384, Note_on_c, 0, 61, 64
3, 24473, Note_on_c, 0, 61, 0
3, 24480, Note_on_c, 0, 56, 64
3, 24480, Note_on_c, 0, 65, 64
3, 24569, Note_on_c, 0, 65, 0
3, 24569, Note_on_c, 0, 56, 0
3, 24576, Note_on_c, 0, 54, 64
3, 24576, Note_on_c, 0, 63, 64
3, 24665, Note_on_c, 0, 63, 0
3, 24665, Note_on_c, 0, 54, 0
3, 24672, Note_on_c, 0, 53, 64
3, 24672, Note_on_c, 0, 61, 64
3, 24717, Note_on_c, 0, 61, 0
3, 24717, Note_on_c, 0, 53, 0
3, 24720, Note_on_c, 0, 51, 64
3, 24720, Note_on_c, 0, 60, 64
3, 24765, Note_on_c, 0, 60, 0
3, 24765, Note_on_c, 0, 51, 0
3, 24768, Note_on_c, 0, 53, 64
3, 24768, Note_on_c, 0, 61, 64
3, 24945, Note_on_c, 0, 61, 0
3, 24945, Note_on_c, 0, 53, 0
3, 25440, Note_on_c, 0, 65, 64
3, 25529, Note_on_c, 0, 65, 0
3, 25536, Note_on_c, 0, 70, 64
3, 25625, Note_on_c, 0, 70, 0
3, 25632, Note_on_c, 0, 65, 64
3, 25721, Note_on_c, 0, 65, 0
3, 25728, Note_on_c, 0, 62, 64
3, 25817, Note_on_c, 0, 62, 0
3, 25824, Note_on_c, 0, 60, 64
3, 25869, Note_on_c, 0, 60, 0
3, 25872, Note_on_c, 0, 58, 64
3, 25917, Note_on_c, 0, 58, 0
3, 25920, Note_on_c, 0, 67, 64
3, 26016, Note_on_c, 0, 70, 64
3, 26097, Note_on_c, 0, 67, 0
3, 26105, Note_on_c, 0, 70, 0
3, 26112, Note_on_c, 0, 75, 64
3, 26201, Note_on_c, 0, 75, 0
3, 26208, Note_on_c, 0, 67, 64
3, 26208, Note_on_c, 0, 70, 64
3, 26297, Note_on_c, 0, 70, 0
3, 26297, Note_on_c, 0, 67, 0
3, 26304, Note_on_c, 0, 65, 64
3, 26304, Note_on_c, 0, 68, 64
3, 26393, Note_on_c, 0, 68, 0
3, 26393, Note_on_c, 0, 65, 0
3, 26400, Note_on_c, 0, 63, 64
3, 26400, Note_on_c, 0, 67, 64
3, 26445, Note_on_c, 0, 67, 0
3, 26445, Note_on_c, 0, 63, 0
3, 26448, Note_on_c, 0, 62, 64
3, 26448, Note_on_c, 0, 65, 64
3, 26493, Note_on_c, 0, 65, 0
3, 26493, Note_on_c, 0, 62, 0
3, 26496, Note_on_c, 0, 63, 64
3, 26496, Note_on_c, 0, 67, 64
3, 26585, Note_on_c, 0, 63, 0
3, 26592, Note_on_c, 0, 58, 64
3, 26673, Note_on_c, 0, 67, 0
3, 26681, Note_on_c, 0, 58, 0
3, 26688, Note_on_c, 0, 63, 64
3, 26777, Note_on_c, 0, 63, 0
3, 26784, Note_on_c, 0, 58, 64
3, 26784, Note_on_c, 0, 67, 64
3, 26873, Note_on_c, 0, 67, 0
3, 26873, Note_on_c, 0, 58, 0
3, 26880, Note_on_c, 0, 56, 64
3, 26880, Note_on_c, 0, 65, 64
3, 26969, Note_on_c, 0, 65, 0
3, 26969, Note_on_c, 0, 56, 0
3, 26976, Note_on_c, 0, 55, 64
3, 26976, Note_on_c, 0, 63, 64
3, 27021, Note_on_c, 0, 63, 0
3, 27021, Note_on_c, 0, 55, 0
3, 27024, Note_on_c, 0, 53, 64
3, 27024, Note_on_c, 0, 62, 64
3, 27069, Note_on_c, 0, 62, 0
3, 27069, Note_on_c, 0, 53, 0
3, 27072, Note_on_c, 0, 55, 64
3, 27072, Note_on_c, 0, 63, 64
3, 27249, Note_on_c, 0, 63, 0
3, 27249, Note_on_c, 0, 55, 0
3, 27744, Note_on_c, 0, 67, 64
3, 27833, Note_on_c, 0, 67, 0
3, 27840, Note_on_c, 0, 72, 64
3, 27929, Note_on_c, 0, 72, 0
3, 27936, Note_on_c, 0, 67, 64
3, 28025, Note_on_c, 0, 67, 0
3, 28032, Note_on_c, 0, 64, 64
3, 28121, Note_on_c, 0, 64, 0
3, 28128, Note_on_c, 0, 62, 64
3, 28173, Note_on_c, 0, 62, 0
3, 28176, Note_on_c, 0, 60, 64
3, 28221, Note_on_c, 0, 60, 0
3, 28224, Note_on_c, 0, 68, 64
3, 28320, Note_on_c, 0, 72, 64
3, 28401, Note_on_c, 0, 68, 0
3, 28409, Note_on_c, 0, 72, 0
3, 28416, Note_on_c, 0, 77, 64
3, 28505, Note_on_c, 0, 77, 0
3, 28512, Note_on_c, 0, 68, 64
3, 28512, Note_on_c, 0, 72, 64
3, 28601, Note_on_c, 0, 72, 0
3, 28601, Note_on_c, 0, 68, 0
3, 28608, Note_on_c, 0, 67, 64
3, 28608, Note_on_c, 0, 70, 64
3, 28697, Note_on_c, 0, 70, 0
3, 28697, Note_on_c, 0, 67, 0
3, 28704, Note_on_c, 0, 65, 64
3, 28704, Note_on_c, 0, 68, 64
3, 28749, Note_on_c, 0, 68, 0
3, 28749, Note_on_c, 0, 65, 0
3, 28752, Note_on_c, 0, 64, 64
3, 28752, Note_on_c, 0, 67, 64
3, 28797, Note_on_c, 0, 67, 0
3, 28797, Note_on_c, 0, 64, 0
3, 28800, Note_on_c, 0, 65, 64
3, 28800, Note_on_c, 0, 68, 64
3, 28889, Note_on_c, 0, 65, 0
3, 28896, Note_on_c, 0, 60, 64
3, 28977, Note_on_c, 0, 68, 0
3, 28985, Note_on_c, 0, 60, 0
3, 28992, Note_on_c, 0, 65, 64
3, 29081, Note_on_c, 0, 65, 0
3, 29088, Note_on_c, 0, 60, 64
3, 29088, Note_on_c, 0, 68, 64
3, 29177, Note_on_c, 0, 68, 0
3, 29177, Note_on_c, 0, 60, 0
3, 29184, Note_on_c, 0, 58, 64
3, 29184, Note_on_c, 0, 67, 64
3, 29273, Note_on_c, 0, 67, 0
3, 29273, Note_on_c, 0, 58, 0
3, 29280, Note_on_c, 0, 56, 64
3, 29280, Note_on_c, 0, 65, 64
3, 29325, Note_on_c, 0, 65, 0
3, 29325, Note_on_c, 0, 56, 0
3, 29328, Note_on_c, 0, 55, 64
3, 29328, Note_on_c, 0, 64, 64
3, 29373, Note_on_c, 0, 64, 0
3, 29373, Note_on_c, 0, 55, 0
3, 29376, Note_on_c, 0, 60, 64
3, 29376, Note_on_c, 0, 65, 64
3, 29553, Note_on_c, 0, 65, 0
3, 29553, Note_on_c, 0, 60, 0
3, 30048, Note_on_c, 0, 67, 64
3, 30137, Note_on_c, 0, 67, 0
3, 30144, Note_on_c, 0, 72, 64
3, 30233, Note_on_c, 0, 72, 0
3, 30240, Note_on_c, 0, 67, 64
3, 30329, Note_on_c, 0, 67, 0
3, 30336, Note_on_c, 0, 63, 64
3, 30425, Note_on_c, 0, 63, 0
3, 30432, Note_on_c, 0, 62, 64
3, 30477, Note_on_c, 0, 62, 0
3, 30480, Note_on_c, 0, 60, 64
3, 30525, Note_on_c, 0, 60, 0
3, 30528, Note_on_c, 0, 68, 64
3, 30624, Note_on_c, 0, 72, 64
3, 30713, Note_on_c, 0, 72, 0
3, 30720, Note_on_c, 0, 77, 64
3, 30809, Note_on_c, 0, 77, 0
3, 30816, Note_on_c, 0, 72, 64
3, 30905, Note_on_c, 0, 72, 0
3, 30912, Note_on_c, 0, 68, 64
3, 31001, Note_on_c, 0, 68, 0
3, 31008, Note_on_c, 0, 67, 64
3, 31053, Note_on_c, 0, 67, 0
3, 31056, Note_on_c, 0, 65, 64
3, 31058, Note_on_c, 0, 68, 0
3, 31101, Note_on_c, 0, 65, 0
3, 31104, Note_on_c, 0, 65, 64
3, 31104, Note_on_c, 0, 74, 64
3, 31149, Note_on_c, 0, 74, 0
3, 31152, Note_on_c, 0, 72, 64
3, 31193, Note_on_c, 0, 65, 0
3, 31197, Note_on_c, 0, 72, 0
3, 31200, Note_on_c, 0, 71, 64
3, 31245, Note_on_c, 0, 71, 0
3, 31248, Note_on_c, 0, 72, 64
3, 31293, Note_on_c, 0, 72, 0
3, 31296, Note_on_c, 0, 74, 64
3, 31341, Note_on_c, 0, 74, 0
3, 31344, Note_on_c, 0, 72, 64
3, 31389, Note_on_c, 0, 72, 0
3, 31392, Note_on_c, 0, 74, 64
3, 31437, Note_on_c, 0, 74, 0
3, 31440, Note_on_c, 0, 77, 64
3, 31485, Note_on_c, 0, 77, 0
3, 31488, Note_on_c, 0, 75, 64
3, 31533, Note_on_c, 0, 75, 0
3, 31536, Note_on_c, 0, 74, 64
3, 31581, Note_on_c, 0, 74, 0
3, 31584, Note_on_c, 0, 72, 64
3, 31629, Note_on_c, 0, 72, 0
3, 31632, Note_on_c, 0, 71, 64
3, 31677, Note_on_c, 0, 71, 0
3, 31728, Note_on_c, 0, 60, 64
3, 31773, Note_on_c, 0, 60, 0
3, 31776, Note_on_c, 0, 63, 64
3, 31821, Note_on_c, 0, 63, 0
3, 31824, Note_on_c, 0, 67, 64
3, 31869, Note_on_c, 0, 67, 0
3, 31872, Note_on_c, 0, 70, 64
3, 31917, Note_on_c, 0, 70, 0
3, 31920, Note_on_c, 0, 68, 64
3, 31965, Note_on_c, 0, 68, 0
3, 31968, Note_on_c, 0, 67, 64
3, 32013, Note_on_c, 0, 67, 0
3, 32016, Note_on_c, 0, 65, 64
3, 32061, Note_on_c, 0, 65, 0
3, 32064, Note_on_c, 0, 68, 64
3, 32109, Note_on_c, 0, 68, 0
3, 32112, Note_on_c, 0, 67, 64
3, 32157, Note_on_c, 0, 67, 0
3, 32160, Note_on_c, 0, 65, 64
3, 32205, Note_on_c, 0, 65, 0
3, 32208, Note_on_c, 0, 64, 64
3, 32253, Note_on_c, 0, 64, 0
3, 32256, Note_on_c, 0, 65, 64
3, 32256, Note_on_c, 0, 72, 64
3, 32433, Note_on_c, 0, 72, 0
3, 32433, Note_on_c, 0, 65, 0
3, 33504, Note_on_c, 0, 79, 64
3, 33593, Note_on_c, 0, 79, 0
3, 33600, Note_on_c, 0, 84, 64
3, 33689, Note_on_c, 0, 84, 0
3, 33696, Note_on_c, 0, 79, 64
3, 33785, Note_on_c, 0, 79, 0
3, 33792, Note_on_c, 0, 77, 64
3, 33881, Note_on_c, 0, 77, 0
3, 33888, Note_on_c, 0, 75, 64
3, 33933, Note_on_c, 0, 75, 0
3, 33936, Note_on_c, 0, 74, 64
3, 33981, Note_on_c, 0, 74, 0
3, 33984, Note_on_c, 0, 75, 64
3, 34080, Note_on_c, 0, 67, 64
3, 34161, Note_on_c, 0, 75, 0
3, 34169, Note_on_c, 0, 67, 0
3, 34176, Note_on_c, 0, 72, 64
3, 34265, Note_on_c, 0, 72, 0
3, 34272, Note_on_c, 0, 67, 64
3, 34272, Note_on_c, 0, 75, 64
3, 34361, Note_on_c, 0, 75, 0
3, 34361, Note_on_c, 0, 67, 0
3, 34368, Note_on_c, 0, 65, 64
3, 34368, Note_on_c, 0, 74, 64
3, 34457, Note_on_c, 0, 74, 0
3, 34457, Note_on_c, 0, 65, 0
3, 34464, Note_on_c, 0, 63, 64
3, 34464, Note_on_c, 0, 72, 64
3, 34509, Note_on_c, 0, 72, 0
3, 34509, Note_on_c, 0, 63, 0
3, 34512, Note_on_c, 0, 62, 64
3, 34512, Note_on_c, 0, 71, 64
3, 34557, Note_on_c, 0, 71, 0
3, 34557, Note_on_c, 0, 62, 0
3, 34560, Note_on_c, 0, 63, 64
3, 34560, Note_on_c, 0, 72, 64
3, 34737, Note_on_c, 0, 72, 0
3, 34737, Note_on_c, 0, 63, 0
3, 34752, Note_on_c, 0, 67, 64
3, 34848, Note_on_c, 0, 75, 64
3, 34893, Note_on_c, 0, 75, 0
3, 34896, Note_on_c, 0, 74, 64
3, 34929, Note_on_c, 0, 67, 0
3, 34941, Note_on_c, 0, 74, 0
3, 34944, Note_on_c, 0, 72, 64
3, 34944, Note_on_c, 0, 75, 64
3, 35033, Note_on_c, 0, 75, 0
3, 35040, Note_on_c, 0, 80, 64
3, 35129, Note_on_c, 0, 80, 0
3, 35136, Note_on_c, 0, 74, 64
3, 35313, Note_on_c, 0, 74, 0
3, 35313, Note_on_c, 0, 72, 0
3, 35328, Note_on_c, 0, 65, 64
3, 35424, Note_on_c, 0, 74, 64
3, 35469, Note_on_c, 0, 74, 0
3, 35472, Note_on_c, 0, 72, 64
3, 35505, Note_on_c, 0, 65, 0
3, 35517, Note_on_c, 0, 72, 0
3, 35520, Note_on_c, 0, 70, 64
3, 35520, Note_on_c, 0, 74, 64
3, 35609, Note_on_c, 0, 74, 0
3, 35616, Note_on_c, 0, 79, 64
3, 35705, Note_on_c, 0, 79, 0
3, 35712, Note_on_c, 0, 72, 64
3, 35889, Note_on_c, 0, 72, 0
3, 35889, Note_on_c, 0, 70, 0
3, 35904, Note_on_c, 0, 63, 64
3, 36000, Note_on_c, 0, 72, 64
3, 36045, Note_on_c, 0, 72, 0
3, 36048, Note_on_c, 0, 71, 64
3, 36081, Note_on_c, 0, 63, 0
3, 36093, Note_on_c, 0, 71, 0
3, 36096, Note_on_c, 0, 68, 64
3, 36096, Note_on_c, 0, 72, 64
3, 36185, Note_on_c, 0, 72, 0
3, 36192, Note_on_c, 0, 77, 64
3, 36281, Note_on_c, 0, 77, 0
3, 36288, Note_on_c, 0, 71, 64
3, 36377, Note_on_c, 0, 71, 0
3, 36377, Note_on_c, 0, 68, 0
3, 36384, Note_on_c, 0, 67, 64
3, 36384, Note_on_c, 0, 79, 64
3, 36473, Note_on_c, 0, 79, 0
3, 36473, Note_on_c, 0, 67, 0
3, 36480, Note_on_c, 0, 72, 64
3, 36480, Note_on_c, 0, 75, 64
3, 36569, Note_on_c, 0, 72, 0
3, 36576, Note_on_c, 0, 67, 64
3, 36665, Note_on_c, 0, 67, 0
3, 36672, Note_on_c, 0, 65, 64
3, 36717, Note_on_c, 0, 75, 0
3, 36720, Note_on_c, 0, 74, 64
3, 36761, Note_on_c, 0, 65, 0
3, 36765, Note_on_c, 0, 74, 0
3, 36768, Note_on_c, 0, 63, 64
3, 36768, Note_on_c, 0, 72, 64
3, 36813, Note_on_c, 0, 72, 0
3, 36813, Note_on_c, 0, 63, 0
3, 36816, Note_on_c, 0, 62, 64
3, 36816, Note_on_c, 0, 71, 64
3, 36861, Note_on_c, 0, 71, 0
3, 36861, Note_on_c, 0, 62, 0
3, 36864, Note_on_c, 0, 63, 64
3, 36864, Note_on_c, 0, 72, 64
3, 37041, Note_on_c, 0, 72, 0
3, 37041, Note_on_c, 0, 63, 0
3, 37536, Note_on_c, 0, 68, 64
3, 37625, Note_on_c, 0, 68, 0
3, 37632, Note_on_c, 0, 73, 64
3, 37721, Note_on_c, 0, 73, 0
3, 37728, Note_on_c, 0, 68, 64
3, 37817, Note_on_c, 0, 68, 0
3, 37824, Note_on_c, 0, 66, 64
3, 37913, Note_on_c, 0, 66, 0
3, 37920, Note_on_c, 0, 65, 64
3, 37965, Note_on_c, 0, 65, 0
3, 37968, Note_on_c, 0, 63, 64
3, 38013, Note_on_c, 0, 63, 0
3, 38016, Note_on_c, 0, 65, 64
3, 38112, Note_on_c, 0, 56, 64
3, 38201, Note_on_c, 0, 56, 0
3, 38208, Note_on_c, 0, 61, 64
3, 38281, Note_on_c, 0, 65, 0
3, 38297, Note_on_c, 0, 61, 0
3, 38304, Note_on_c, 0, 56, 64
3, 38304, Note_on_c, 0, 65, 64
3, 38393, Note_on_c, 0, 65, 0
3, 38393, Note_on_c, 0, 56, 0
3, 38400, Note_on_c, 0, 54, 64
3, 38400, Note_on_c, 0, 63, 64
3, 38489, Note_on_c, 0, 63, 0
3, 38489, Note_on_c, 0, 54, 0
3, 38496, Note_on_c, 0, 53, 64
3, 38496, Note_on_c, 0, 61, 64
3, 38541, Note_on_c, 0, 61, 0
3, 38541, Note_on_c, 0, 53, 0
3, 38544, Note_on_c, 0, 51, 64
3, 38544, Note_on_c, 0, 60, 64
3, 38589, Note_on_c, 0, 60, 0
3, 38589, Note_on_c, 0, 51, 0
3, 38592, Note_on_c, 0, 53, 64
3, 38592, Note_on_c, 0, 61, 64
3, 38769, Note_on_c, 0, 61, 0
3, 38769, Note_on_c, 0, 53, 0
3, 39264, Note_on_c, 0, 70, 64
3, 39353, Note_on_c, 0, 70, 0
3, 39360, Note_on_c, 0, 77, 64
3, 39449, Note_on_c, 0, 77, 0
3, 39456, Note_on_c, 0, 70, 64
3, 39545, Note_on_c, 0, 70, 0
3, 39552, Note_on_c, 0, 68, 64
3, 39641, Note_on_c, 0, 68, 0
3, 39648, Note_on_c, 0, 67, 64
3, 39693, Note_on_c, 0, 67, 0
3, 39696, Note_on_c, 0, 65, 64
3, 39741, Note_on_c, 0, 65, 0
3, 39744, Note_on_c, 0, 67, 64
3, 39840, Note_on_c, 0, 58, 64
3, 39929, Note_on_c, 0, 58, 0
3, 39936, Note_on_c, 0, 63, 64
3, 40009, Note_on_c, 0, 67, 0
3, 40025, Note_on_c, 0, 63, 0
3, 40032, Note_on_c, 0, 58, 64
3, 40032, Note_on_c, 0, 67, 64
3, 40121, Note_on_c, 0, 67, 0
3, 40121, Note_on_c, 0, 58, 0
3, 40128, Note_on_c, 0, 56, 64
3, 40128, Note_on_c, 0, 65, 64
3, 40217, Note_on_c, 0, 65, 0
3, 40217, Note_on_c, 0, 56, 0
3, 40224, Note_on_c, 0, 55, 64
3, 40224, Note_on_c, 0, 63, 64
3, 40269, Note_on_c, 0, 63, 0
3, 40269, Note_on_c, 0, 55, 0
3, 40272, Note_on_c, 0, 53, 64
3, 40272, Note_on_c, 0, 62, 64
3, 40317, Note_on_c, 0, 62, 0
3, 40317, Note_on_c, 0, 53, 0
3, 40320, Note_on_c, 0, 55, 64
3, 40320, Note_on_c, 0, 63, 64
3, 40497, Note_on_c, 0, 63, 0
3, 40497, Note_on_c, 0, 55, 0
3, 40992, Note_on_c, 0, 72, 64
3, 41081, Note_on_c, 0, 72, 0
3, 41088, Note_on_c, 0, 79, 64
3, 41177, Note_on_c, 0, 79, 0
3, 41184, Note_on_c, 0, 72, 64
3, 41273, Note_on_c, 0, 72, 0
3, 41280, Note_on_c, 0, 70, 64
3, 41369, Note_on_c, 0, 70, 0
3, 41376, Note_on_c, 0, 68, 64
3, 41421, Note_on_c, 0, 68, 0
3, 41424, Note_on_c, 0, 67, 64
3, 41469, Note_on_c, 0, 67, 0
3, 41472, Note_on_c, 0, 68, 64
3, 41568, Note_on_c, 0, 60, 64
3, 41657, Note_on_c, 0, 60, 0
3, 41664, Note_on_c, 0, 65, 64
3, 41737, Note_on_c, 0, 68, 0
3, 41753, Note_on_c, 0, 65, 0
3, 41760, Note_on_c, 0, 60, 64
3, 41760, Note_on_c, 0, 68, 64
3, 41849, Note_on_c, 0, 68, 0
3, 41849, Note_on_c, 0, 60, 0
3, 41856, Note_on_c, 0, 58, 64
3, 41856, Note_on_c, 0, 67, 64
3, 41945, Note_on_c, 0, 67, 0
3, 41945, Note_on_c, 0, 58, 0
3, 41952, Note_on_c, 0, 56, 64
3, 41952, Note_on_c, 0, 65, 64
3, 41997, Note_on_c, 0, 65, 0
3, 41997, Note_on_c, 0, 56, 0
3, 42000, Note_on_c, 0, 55, 64
3, 42000, Note_on_c, 0, 64, 64
3, 42045, Note_on_c, 0, 64, 0
3, 42045, Note_on_c, 0, 55, 0
3, 42048, Note_on_c, 0, 56, 64
3, 42048, Note_on_c, 0, 65, 64
3, 42137, Note_on_c, 0, 65, 0
3, 42137, Note_on_c, 0, 56, 0
3, 42144, Note_on_c, 0, 72, 64
3, 42233, Note_on_c, 0, 72, 0
3, 42240, Note_on_c, 0, 77, 64
3, 42329, Note_on_c, 0, 77, 0
3, 42336, Note_on_c, 0, 72, 64
3, 42425, Note_on_c, 0, 72, 0
3, 42432, Note_on_c, 0, 60, 64
3, 42432, Note_on_c, 0, 70, 64
3, 42477, Note_on_c, 0, 70, 0
3, 42480, Note_on_c, 0, 68, 64
3, 42525, Note_on_c, 0, 68, 0
3, 42528, Note_on_c, 0, 67, 64
3, 42573, Note_on_c, 0, 67, 0
3, 42576, Note_on_c, 0, 65, 64
3, 42609, Note_on_c, 0, 60, 0
3, 42621, Note_on_c, 0, 65, 0
3, 42624, Note_on_c, 0, 58, 64
3, 42624, Note_on_c, 0, 73, 64
3, 42713, Note_on_c, 0, 58, 0
3, 42720, Note_on_c, 0, 65, 64
3, 42809, Note_on_c, 0, 65, 0
3, 42816, Note_on_c, 0, 70, 64
3, 42905, Note_on_c, 0, 70, 0
3, 42912, Note_on_c, 0, 65, 64
3, 43001, Note_on_c, 0, 65, 0
3, 43008, Note_on_c, 0, 63, 64
3, 43053, Note_on_c, 0, 63, 0
3, 43056, Note_on_c, 0, 60, 64
3, 43101, Note_on_c, 0, 60, 0
3, 43104, Note_on_c, 0, 61, 64
3, 43149, Note_on_c, 0, 61, 0
3, 43152, Note_on_c, 0, 58, 64
3, 43197, Note_on_c, 0, 58, 0
3, 43200, Note_on_c, 0, 67, 64
3, 43289, Note_on_c, 0, 73, 0
3, 43296, Note_on_c, 0, 70, 64
3, 43377, Note_on_c, 0, 67, 0
3, 43385, Note_on_c, 0, 70, 0
3, 43392, Note_on_c, 0, 75, 64
3, 43481, Note_on_c, 0, 75, 0
3, 43488, Note_on_c, 0, 70, 64
3, 43577, Note_on_c, 0, 70, 0
3, 43584, Note_on_c, 0, 68, 64
3, 43629, Note_on_c, 0, 68, 0
3, 43632, Note_on_c, 0, 67, 64
3, 43677, Note_on_c, 0, 67, 0
3, 43680, Note_on_c, 0, 65, 64
3, 43725, Note_on_c, 0, 65, 0
3, 43728, Note_on_c, 0, 63, 64
3, 43773, Note_on_c, 0, 63, 0
3, 43776, Note_on_c, 0, 56, 64
3, 43776, Note_on_c, 0, 72, 64
3, 43865, Note_on_c, 0, 56, 0
3, 43872, Note_on_c, 0, 63, 64
3, 43961, Note_on_c, 0, 63, 0
3, 43968, Note_on_c, 0, 68, 64
3, 44057, Note_on_c, 0, 68, 0
3, 44064, Note_on_c, 0, 63, 64
3, 44153, Note_on_c, 0, 63, 0
3, 44160, Note_on_c, 0, 61, 64
3, 44205, Note_on_c, 0, 61, 0
3, 44208, Note_on_c, 0, 58, 64
3, 44253, Note_on_c, 0, 58, 0
3, 44256, Note_on_c, 0, 60, 64
3, 44301, Note_on_c, 0, 60, 0
3, 44304, Note_on_c, 0, 56, 64
3, 44349, Note_on_c, 0, 56, 0
3, 44352, Note_on_c, 0, 65, 64
3, 44441, Note_on_c, 0, 72, 0
3, 44448, Note_on_c, 0, 72, 64
3, 44529, Note_on_c, 0, 65, 0
3, 44537, Note_on_c, 0, 72, 0
3, 44544, Note_on_c, 0, 77, 64
3, 44633, Note_on_c, 0, 77, 0
3, 44640, Note_on_c, 0, 72, 64
3, 44729, Note_on_c, 0, 72, 0
3, 44736, Note_on_c, 0, 70, 64
3, 44781, Note_on_c, 0, 70, 0
3, 44784, Note_on_c, 0, 68, 64
3, 44829, Note_on_c, 0, 68, 0
3, 44832, Note_on_c, 0, 67, 64
3, 44877, Note_on_c, 0, 67, 0
3, 44880, Note_on_c, 0, 65, 64
3, 44925, Note_on_c, 0, 65, 0
3, 44928, Note_on_c, 0, 70, 64
3, 44976, Note_on_c, 0, 56, 64
3, 45021, Note_on_c, 0, 56, 0
3, 45024, Note_on_c, 0, 58, 64
3, 45069, Note_on_c, 0, 58, 0
3, 45072, Note_on_c, 0, 60, 64
3, 45117, Note_on_c, 0, 60, 0
3, 45120, Note_on_c, 0, 61, 64
3, 45165, Note_on_c, 0, 61, 0
3, 45168, Note_on_c, 0, 63, 64
3, 45213, Note_on_c, 0, 63, 0
3, 45216, Note_on_c, 0, 65, 64
3, 45261, Note_on_c, 0, 65, 0
3, 45264, Note_on_c, 0, 68, 64
3, 45309, Note_on_c, 0, 68, 0
3, 45312, Note_on_c, 0, 67, 64
3, 45357, Note_on_c, 0, 67, 0
3, 45360, Note_on_c, 0, 65, 64
3, 45405, Note_on_c, 0, 65, 0
3, 45408, Note_on_c, 0, 64, 64
3, 45453, Note_on_c, 0, 64, 0
3, 45456, Note_on_c, 0, 65, 64
3, 45501, Note_on_c, 0, 65, 0
3, 45504, Note_on_c, 0, 64, 64
3, 45593, Note_on_c, 0, 70, 0
3, 45600, Note_on_c, 0, 70, 64
3, 45689, Note_on_c, 0, 70, 0
3, 45696, Note_on_c, 0, 73, 64
3, 45785, Note_on_c, 0, 73, 0
3, 45792, Note_on_c, 0, 70, 64
3, 45881, Note_on_c, 0, 70, 0
3, 45888, Note_on_c, 0, 67, 64
3, 45977, Note_on_c, 0, 67, 0
3, 45984, Note_on_c, 0, 68, 64
3, 46029, Note_on_c, 0, 68, 0
3, 46032, Note_on_c, 0, 70, 64
3, 46034, Note_on_c, 0, 64, 0
3, 46077, Note_on_c, 0, 70, 0
3, 46080, Note_on_c, 0, 64, 64
3, 46169, Note_on_c, 0, 64, 0
3, 46176, Note_on_c, 0, 67, 64
3, 46265, Note_on_c, 0, 67, 0
3, 46272, Note_on_c, 0, 70, 64
3, 46361, Note_on_c, 0, 70, 0
3, 46368, Note_on_c, 0, 67, 64
3, 46457, Note_on_c, 0, 67, 0
3, 46464, Note_on_c, 0, 64, 64
3, 46553, Note_on_c, 0, 64, 0
3, 46560, Note_on_c, 0, 65, 64
3, 46605, Note_on_c, 0, 65, 0
3, 46608, Note_on_c, 0, 67, 64
3, 46656, Note_on_c, 0, 58, 64
3, 46701, Note_on_c, 0, 67, 0
3, 46704, Note_on_c, 0, 70, 64
3, 46745, Note_on_c, 0, 58, 0
3, 46749, Note_on_c, 0, 70, 0
3, 46752, Note_on_c, 0, 73, 64
3, 46797, Note_on_c, 0, 73, 0
3, 46800, Note_on_c, 0, 72, 64
3, 46845, Note_on_c, 0, 72, 0
3, 46848, Note_on_c, 0, 70, 64
3, 46893, Note_on_c, 0, 70, 0
3, 46896, Note_on_c, 0, 69, 64
3, 46941, Note_on_c, 0, 69, 0
3, 46944, Note_on_c, 0, 72, 64
3, 46989, Note_on_c, 0, 72, 0
3, 46992, Note_on_c, 0, 70, 64
3, 47037, Note_on_c, 0, 70, 0
3, 47040, Note_on_c, 0, 72, 64
3, 47328, Note_on_c, 0, 53, 64
3, 47365, Note_on_c, 0, 72, 0
3, 47376, Note_on_c, 0, 73, 64
3, 47399, Note_on_c, 0, 73, 0
3, 47400, Note_on_c, 0, 75, 64
3, 47417, Note_on_c, 0, 53, 0
3, 47423, Note_on_c, 0, 75, 0
3, 47424, Note_on_c, 0, 58, 64
3, 47424, Note_on_c, 0, 73, 64
3, 47513, Note_on_c, 0, 73, 0
3, 47513, Note_on_c, 0, 58, 0
3, 47520, Note_on_c, 0, 53, 64
3, 47520, Note_on_c, 0, 72, 64
3, 47609, Note_on_c, 0, 72, 0
3, 47609, Note_on_c, 0, 53, 0
3, 47616, Note_on_c, 0, 49, 64
3, 47616, Note_on_c, 0, 70, 64
3, 47705, Note_on_c, 0, 70, 0
3, 47705, Note_on_c, 0, 49, 0
3, 47712, Note_on_c, 0, 48, 64
3, 47712, Note_on_c, 0, 72, 64
3, 47757, Note_on_c, 0, 72, 0
3, 47757, Note_on_c, 0, 48, 0
3, 47760, Note_on_c, 0, 46, 64
3, 47760, Note_on_c, 0, 69, 64
3, 47805, Note_on_c, 0, 69, 0
3, 47805, Note_on_c, 0, 46, 0
3, 47808, Note_on_c, 0, 58, 64
3, 47808, Note_on_c, 0, 70, 64
3, 47897, Note_on_c, 0, 70, 0
3, 47904, Note_on_c, 0, 65, 64
3, 47985, Note_on_c, 0, 58, 0
3, 47993, Note_on_c, 0, 65, 0
3, 48000, Note_on_c, 0, 70, 64
3, 48089, Note_on_c, 0, 70, 0
3, 48096, Note_on_c, 0, 65, 64
3, 48185, Note_on_c, 0, 65, 0
3, 48192, Note_on_c, 0, 61, 64
3, 48281, Note_on_c, 0, 61, 0
3, 48288, Note_on_c, 0, 60, 64
3, 48333, Note_on_c, 0, 60, 0
3, 48336, Note_on_c, 0, 58, 64
3, 48381, Note_on_c, 0, 58, 0
3, 48384, Note_on_c, 0, 67, 64
3, 48480, Note_on_c, 0, 55, 64
3, 48569, Note_on_c, 0, 55, 0
3, 48576, Note_on_c, 0, 60, 64
3, 48665, Note_on_c, 0, 60, 0
3, 48672, Note_on_c, 0, 55, 64
3, 48761, Note_on_c, 0, 55, 0
3, 48768, Note_on_c, 0, 52, 64
3, 48857, Note_on_c, 0, 52, 0
3, 48864, Note_on_c, 0, 50, 64
3, 48909, Note_on_c, 0, 50, 0
3, 48912, Note_on_c, 0, 48, 64
3, 48957, Note_on_c, 0, 48, 0
3, 48960, Note_on_c, 0, 56, 64
3, 49005, Note_on_c, 0, 67, 0
3, 49008, Note_on_c, 0, 60, 64
3, 49053, Note_on_c, 0, 60, 0
3, 49056, Note_on_c, 0, 62, 64
3, 49101, Note_on_c, 0, 62, 0
3, 49104, Note_on_c, 0, 64, 64
3, 49137, Note_on_c, 0, 56, 0
3, 49149, Note_on_c, 0, 64, 0
3, 49152, Note_on_c, 0, 65, 64
3, 49197, Note_on_c, 0, 65, 0
3, 49200, Note_on_c, 0, 67, 64
3, 49245, Note_on_c, 0, 67, 0
3, 49248, Note_on_c, 0, 68, 64
3, 49293, Note_on_c, 0, 68, 0
3, 49296, Note_on_c, 0, 67, 64
3, 49341, Note_on_c, 0, 67, 0
3, 49344, Note_on_c, 0, 70, 64
3, 49389, Note_on_c, 0, 70, 0
3, 49392, Note_on_c, 0, 64, 64
3, 49437, Note_on_c, 0, 64, 0
3, 49440, Note_on_c, 0, 65, 64
3, 49485, Note_on_c, 0, 65, 0
3, 49488, Note_on_c, 0, 67, 64
3, 49533, Note_on_c, 0, 67, 0
3, 49536, Note_on_c, 0, 60, 64
3, 49625, Note_on_c, 0, 60, 0
3, 50208, Note_on_c, 0, 72, 64
3, 50297, Note_on_c, 0, 72, 0
3, 50304, Note_on_c, 0, 77, 64
3, 50393, Note_on_c, 0, 77, 0
3, 50400, Note_on_c, 0, 72, 64
3, 50489, Note_on_c, 0, 72, 0
3, 50496, Note_on_c, 0, 70, 64
3, 50585, Note_on_c, 0, 70, 0
3, 50592, Note_on_c, 0, 68, 64
3, 50637, Note_on_c, 0, 68, 0
3, 50640, Note_on_c, 0, 67, 64
3, 50685, Note_on_c, 0, 67, 0
3, 50688, Note_on_c, 0, 68, 64
3, 50784, Note_on_c, 0, 60, 64
3, 50865, Note_on_c, 0, 68, 0
3, 50873, Note_on_c, 0, 60, 0
3, 50880, Note_on_c, 0, 65, 64
3, 50969, Note_on_c, 0, 65, 0
3, 50976, Note_on_c, 0, 60, 64
3, 50976, Note_on_c, 0, 68, 64
3, 51065, Note_on_c, 0, 68, 0
3, 51065, Note_on_c, 0, 60, 0
3, 51072, Note_on_c, 0, 58, 64
3, 51072, Note_on_c, 0, 67, 64
3, 51161, Note_on_c, 0, 67, 0
3, 51161, Note_on_c, 0, 58, 0
3, 51168, Note_on_c, 0, 56, 64
3, 51168, Note_on_c, 0, 65, 64
3, 51213, Note_on_c, 0, 65, 0
3, 51213, Note_on_c, 0, 56, 0
3, 51216, Note_on_c, 0, 55, 64
3, 51216, Note_on_c, 0, 64, 64
3, 51261, Note_on_c, 0, 64, 0
3, 51261, Note_on_c, 0, 55, 0
3, 51264, Note_on_c, 0, 56, 64
3, 51264, Note_on_c, 0, 65, 64
3, 51441, Note_on_c, 0, 65, 0
3, 51441, Note_on_c, 0, 56, 0
3, 51456, Note_on_c, 0, 72, 64
3, 51552, Note_on_c, 0, 68, 64
3, 51597, Note_on_c, 0, 68, 0
3, 51600, Note_on_c, 0, 67, 64
3, 51633, Note_on_c, 0, 72, 0
3, 51645, Note_on_c, 0, 67, 0
3, 51648, Note_on_c, 0, 68, 64
3, 51648, Note_on_c, 0, 77, 64
3, 51737, Note_on_c, 0, 68, 0
3, 51744, Note_on_c, 0, 73, 64
3, 51833, Note_on_c, 0, 73, 0
3, 51840, Note_on_c, 0, 67, 64
3, 52017, Note_on_c, 0, 67, 0
3, 52017, Note_on_c, 0, 77, 0
3, 52032, Note_on_c, 0, 70, 64
3, 52128, Note_on_c, 0, 67, 64
3, 52173, Note_on_c, 0, 67, 0
3, 52176, Note_on_c, 0, 65, 64
3, 52209, Note_on_c, 0, 70, 0
3, 52221, Note_on_c, 0, 65, 0
3, 52224, Note_on_c, 0, 67, 64
3, 52224, Note_on_c, 0, 75, 64
3, 52313, Note_on_c, 0, 67, 0
3, 52320, Note_on_c, 0, 72, 64
3, 52409, Note_on_c, 0, 72, 0
3, 52416, Note_on_c, 0, 65, 64
3, 52593, Note_on_c, 0, 65, 0
3, 52593, Note_on_c, 0, 75, 0
3, 52608, Note_on_c, 0, 68, 64
3, 52704, Note_on_c, 0, 65, 64
3, 52749, Note_on_c, 0, 65, 0
3, 52752, Note_on_c, 0, 64, 64
3, 52785, Note_on_c, 0, 68, 0
3, 52797, Note_on_c, 0, 64, 0
3, 52800, Note_on_c, 0, 65, 64
3, 52800, Note_on_c, 0, 73, 64
3, 52889, Note_on_c, 0, 65, 0
3, 52896, Note_on_c, 0, 70, 64
3, 52985, Note_on_c, 0, 70, 0
3, 52992, Note_on_c, 0, 64, 64
3, 53081, Note_on_c, 0, 73, 0
3, 53088, Note_on_c, 0, 72, 64
3, 53169, Note_on_c, 0, 64, 0
3, 53177, Note_on_c, 0, 72, 0
3, 53184, Note_on_c, 0, 77, 64
3, 53273, Note_on_c, 0, 77, 0
3, 53280, Note_on_c, 0, 72, 64
3, 53369, Note_on_c, 0, 72, 0
3, 53376, Note_on_c, 0, 70, 64
3, 53465, Note_on_c, 0, 70, 0
3, 53472, Note_on_c, 0, 68, 64
3, 53517, Note_on_c, 0, 68, 0
3, 53520, Note_on_c, 0, 67, 64
3, 53565, Note_on_c, 0, 67, 0
3, 53568, Note_on_c, 0, 68, 64
3, 53613, Note_on_c, 0, 68, 0
3, 53616, Note_on_c, 0, 67, 64
3, 53661, Note_on_c, 0, 67, 0
3, 53664, Note_on_c, 0, 65, 64
3, 53709, Note_on_c, 0, 65, 0
3, 53712, Note_on_c, 0, 67, 64
3, 53757, Note_on_c, 0, 67, 0
3, 53760, Note_on_c, 0, 68, 64
3, 53805, Note_on_c, 0, 68, 0
3, 53808, Note_on_c, 0, 70, 64
3, 53853, Note_on_c, 0, 70, 0
3, 53856, Note_on_c, 0, 72, 64
3, 53901, Note_on_c, 0, 72, 0
3, 53904, Note_on_c, 0, 73, 64
3, 53949, Note_on_c, 0, 73, 0
3, 53952, Note_on_c, 0, 75, 64
3, 53997, Note_on_c, 0, 75, 0
3, 54000, Note_on_c, 0, 77, 64
3, 54023, Note_on_c, 0, 77, 0
3, 54024, Note_on_c, 0, 78, 64
3, 54047, Note_on_c, 0, 78, 0
3, 54048, Note_on_c, 0, 77, 64
3, 54093, Note_on_c, 0, 77, 0
3, 54096, Note_on_c, 0, 75, 64
3, 54141, Note_on_c, 0, 75, 0
3, 54144, Note_on_c, 0, 73, 64
3, 54240, Note_on_c, 0, 65, 64
3, 54329, Note_on_c, 0, 65, 0
3, 54336, Note_on_c, 0, 70, 64
3, 54425, Note_on_c, 0, 70, 0
3, 54432, Note_on_c, 0, 65, 64
3, 54521, Note_on_c, 0, 65, 0
3, 54528, Note_on_c, 0, 61, 64
3, 54617, Note_on_c, 0, 61, 0
3, 54624, Note_on_c, 0, 60, 64
3, 54669, Note_on_c, 0, 60, 0
3, 54672, Note_on_c, 0, 58, 64
3, 54717, Note_on_c, 0, 58, 0
3, 54720, Note_on_c, 0, 64, 64
3, 54765, Note_on_c, 0, 73, 0
3, 54768, Note_on_c, 0, 72, 64
3, 54813, Note_on_c, 0, 72, 0
3, 54816, Note_on_c, 0, 70, 64
3, 54861, Note_on_c, 0, 70, 0
3, 54864, Note_on_c, 0, 72, 64
3, 54897, Note_on_c, 0, 64, 0
3, 54909, Note_on_c, 0, 72, 0
3, 54912, Note_on_c, 0, 73, 64
3, 54957, Note_on_c, 0, 73, 0
3, 54960, Note_on_c, 0, 67, 64
3, 55005, Note_on_c, 0, 67, 0
3, 55008, Note_on_c, 0, 68, 64
3, 55053, Note_on_c, 0, 68, 0
3, 55056, Note_on_c, 0, 70, 64
3, 55101, Note_on_c, 0, 70, 0
3, 55104, Note_on_c, 0, 65, 64
3, 55149, Note_on_c, 0, 65, 0
3, 55152, Note_on_c, 0, 64, 64
3, 55197, Note_on_c, 0, 64, 0
3, 55200, Note_on_c, 0, 65, 64
3, 55245, Note_on_c, 0, 65, 0
3, 55248, Note_on_c, 0, 62, 64
3, 55293, Note_on_c, 0, 62, 0
3, 55296, Note_on_c, 0, 64, 64
3, 55392, Note_on_c, 0, 55, 64
3, 55473, Note_on_c, 0, 64, 0
3, 55481, Note_on_c, 0, 55, 0
3, 55488, Note_on_c, 0, 60, 64
3, 55488, Note_on_c, 0, 67, 64
3, 55577, Note_on_c, 0, 60, 0
3, 55584, Note_on_c, 0, 55, 64
3, 55665, Note_on_c, 0, 67, 0
3, 55673, Note_on_c, 0, 55, 0
3, 55680, Note_on_c, 0, 52, 64
3, 55680, Note_on_c, 0, 72, 64
3, 55769, Note_on_c, 0, 52, 0
3, 55776, Note_on_c, 0, 50, 64
3, 55821, Note_on_c, 0, 50, 0
3, 55824, Note_on_c, 0, 48, 64
3, 55869, Note_on_c, 0, 48, 0
3, 55872, Note_on_c, 0, 56, 64
3, 55961, Note_on_c, 0, 72, 0
3, 55968, Note_on_c, 0, 77, 64
3, 56049, Note_on_c, 0, 56, 0
3, 56057, Note_on_c, 0, 77, 0
3, 56064, Note_on_c, 0, 84, 64
3, 56153, Note_on_c, 0, 84, 0
3, 56160, Note_on_c, 0, 77, 64
3, 56249, Note_on_c, 0, 77, 0
3, 56256, Note_on_c, 0, 75, 64
3, 56345, Note_on_c, 0, 75, 0
3, 56352, Note_on_c, 0, 73, 64
3, 56397, Note_on_c, 0, 73, 0
3, 56400, Note_on_c, 0, 72, 64
3, 56445, Note_on_c, 0, 72, 0
3, 56448, Note_on_c, 0, 73, 64
3, 56544, Note_on_c, 0, 65, 64
3, 56625, Note_on_c, 0, 73, 0
3, 56633, Note_on_c, 0, 65, 0
3, 56640, Note_on_c, 0, 70, 64
3, 56729, Note_on_c, 0, 70, 0
3, 56736, Note_on_c, 0, 65, 64
3, 56736, Note_on_c, 0, 73, 64
3, 56825, Note_on_c, 0, 73, 0
3, 56825, Note_on_c, 0, 65, 0
3, 56832, Note_on_c, 0, 61, 64
3, 56832, Note_on_c, 0, 77, 64
3, 56921, Note_on_c, 0, 77, 0
3, 56921, Note_on_c, 0, 61, 0
3, 56928, Note_on_c, 0, 60, 64
3, 56928, Note_on_c, 0, 82, 64
3, 56973, Note_on_c, 0, 60, 0
3, 56976, Note_on_c, 0, 58, 64
3, 57017, Note_on_c, 0, 82, 0
3, 57021, Note_on_c, 0, 58, 0
3, 57024, Note_on_c, 0, 73, 64
3, 57024, Note_on_c, 0, 79, 64
3, 57113, Note_on_c, 0, 73, 0
3, 57120, Note_on_c, 0, 76, 64
3, 57209, Note_on_c, 0, 76, 0
3, 57216, Note_on_c, 0, 72, 64
3, 57289, Note_on_c, 0, 79, 0
3, 57312, Note_on_c, 0, 76, 64
3, 57401, Note_on_c, 0, 76, 0
3, 57408, Note_on_c, 0, 77, 64
3, 57497, Note_on_c, 0, 77, 0
3, 57497, Note_on_c, 0, 72, 0
3, 57504, Note_on_c, 0, 74, 64
3, 57504, Note_on_c, 0, 83, 64
3, 57593, Note_on_c, 0, 83, 0
3, 57593, Note_on_c, 0, 74, 0
3, 57600, Note_on_c, 0, 76, 64
3, 57600, Note_on_c, 0, 84, 64
3, 57689, Note_on_c, 0, 84, 0
3, 57696, Note_on_c, 0, 72, 64
3, 57777, Note_on_c, 0, 76, 0
3, 57785, Note_on_c, 0, 72, 0
3, 57792, Note_on_c, 0, 79, 64
3, 57888, Note_on_c, 0, 72, 64
3, 57977, Note_on_c, 0, 72, 0
3, 57984, Note_on_c, 0, 70, 64
3, 58073, Note_on_c, 0, 70, 0
3, 58080, Note_on_c, 0, 68, 64
3, 58125, Note_on_c, 0, 68, 0
3, 58128, Note_on_c, 0, 67, 64
3, 58173, Note_on_c, 0, 67, 0
3, 58176, Note_on_c, 0, 68, 64
3, 58265, Note_on_c, 0, 79, 0
3, 58272, Note_on_c, 0, 72, 64
3, 58361, Note_on_c, 0, 72, 0
3, 58368, Note_on_c, 0, 77, 64
3, 58457, Note_on_c, 0, 77, 0
3, 58464, Note_on_c, 0, 72, 64
3, 58553, Note_on_c, 0, 72, 0
3, 58560, Note_on_c, 0, 68, 64
3, 58649, Note_on_c, 0, 68, 0
3, 58656, Note_on_c, 0, 67, 64
3, 58701, Note_on_c, 0, 67, 0
3, 58704, Note_on_c, 0, 65, 64
3, 58749, Note_on_c, 0, 65, 0
3, 58752, Note_on_c, 0, 74, 64
3, 58841, Note_on_c, 0, 68, 0
3, 58848, Note_on_c, 0, 65, 64
3, 58929, Note_on_c, 0, 74, 0
3, 58937, Note_on_c, 0, 65, 0
3, 58944, Note_on_c, 0, 70, 64
3, 58944, Note_on_c, 0, 73, 64
3, 59033, Note_on_c, 0, 70, 0
3, 59040, Note_on_c, 0, 65, 64
3, 59129, Note_on_c, 0, 65, 0
3, 59136, Note_on_c, 0, 61, 64
3, 59225, Note_on_c, 0, 61, 0
3, 59232, Note_on_c, 0, 60, 64
3, 59277, Note_on_c, 0, 60, 0
3, 59280, Note_on_c, 0, 58, 64
3, 59298, Note_on_c, 0, 73, 0
3, 59325, Note_on_c, 0, 58, 0
3, 59328, Note_on_c, 0, 55, 64
3, 59328, Note_on_c, 0, 72, 64
3, 59417, Note_on_c, 0, 72, 0
3, 59424, Note_on_c, 0, 67, 64
3, 59505, Note_on_c, 0, 55, 0
3, 59513, Note_on_c, 0, 67, 0
3, 59520, Note_on_c, 0, 53, 64
3, 59520, Note_on_c, 0, 72, 64
3, 59609, Note_on_c, 0, 72, 0
3, 59616, Note_on_c, 0, 68, 64
3, 59697, Note_on_c, 0, 53, 0
3, 59705, Note_on_c, 0, 68, 0
3, 59712, Note_on_c, 0, 58, 64
3, 59712, Note_on_c, 0, 66, 64
3, 59757, Note_on_c, 0, 66, 0
3, 59760, Note_on_c, 0, 65, 64
3, 59805, Note_on_c, 0, 65, 0
3, 59808, Note_on_c, 0, 64, 64
3, 59853, Note_on_c, 0, 64, 0
3, 59856, Note_on_c, 0, 65, 64
3, 59889, Note_on_c, 0, 58, 0
3, 59901, Note_on_c, 0, 65, 0
3, 59904, Note_on_c, 0, 70, 64
3, 59949, Note_on_c, 0, 70, 0
3, 59952, Note_on_c, 0, 68, 64
3, 59975, Note_on_c, 0, 68, 0
3, 59976, Note_on_c, 0, 67, 64
3, 59999, Note_on_c, 0, 67, 0
3, 60000, Note_on_c, 0, 61, 64
3, 60000, Note_on_c, 0, 68, 64
3, 60045, Note_on_c, 0, 68, 0
3, 60048, Note_on_c, 0, 65, 64
3, 60089, Note_on_c, 0, 61, 0
3, 60093, Note_on_c, 0, 65, 0
3, 60096, Note_on_c, 0, 60, 64
3, 60096, Note_on_c, 0, 65, 64
3, 60273, Note_on_c, 0, 65, 0
3, 60273, Note_on_c, 0, 60, 0
3, 60288, Note_on_c, 0, 60, 64
3, 60288, Note_on_c, 0, 64, 64
3, 60294, Note_on_c, 0, 64, 0
3, 60294, Note_on_c, 0, 65, 64
3, 60300, Note_on_c, 0, 65, 0
3, 60300, Note_on_c, 0, 64, 64
3, 60306, Note_on_c, 0, 64, 0
3, 60306, Note_on_c, 0, 65, 64
3, 60312, Note_on_c, 0, 65, 0
3, 60312, Note_on_c, 0, 64, 64
3, 60318, Note_on_c, 0, 64, 0
3, 60318, Note_on_c, 0, 65, 64
3, 60324, Note_on_c, 0, 65, 0
3, 60324, Note_on_c, 0, 64, 64
3, 60330, Note_on_c, 0, 64, 0
3, 60330, Note_on_c, 0, 65, 64
3, 60336, Note_on_c, 0, 65, 0
3, 60336, Note_on_c, 0, 64, 64
3, 60342, Note_on_c, 0, 64, 0
3, 60342, Note_on_c, 0, 65, 64
3, 60348, Note_on_c, 0, 65, 0
3, 60348, Note_on_c, 0, 64, 64
3, 60354, Note_on_c, 0, 64, 0
3, 60354, Note_on_c, 0, 65, 64
3, 60360, Note_on_c, 0, 65, 0
3, 60360, Note_on_c, 0, 64, 64
3, 60366, Note_on_c, 0, 64, 0
3, 60366, Note_on_c, 0, 65, 64
3, 60372, Note_on_c, 0, 65, 0
3, 60372, Note_on_c, 0, 64, 64
3, 60378, Note_on_c, 0, 64, 0
3, 60378, Note_on_c, 0, 65, 64
3, 60384, Note_on_c, 0, 65, 0
3, 60384, Note_on_c, 0, 64, 64
3, 60390, Note_on_c, 0, 64, 0
3, 60390, Note_on_c, 0, 65, 64
3, 60396, Note_on_c, 0, 65, 0
3, 60396, Note_on_c, 0, 64, 64
3, 60402, Note_on_c, 0, 64, 0
3, 60402, Note_on_c, 0, 65, 64
3, 60408, Note_on_c, 0, 65, 0
3, 60408, Note_on_c, 0, 64, 64
3, 60414, Note_on_c, 0, 64, 0
3, 60414, Note_on_c, 0, 65, 64
3, 60420, Note_on_c, 0, 65, 0
3, 60420, Note_on_c, 0, 64, 64
3, 60426, Note_on_c, 0, 64, 0
3, 60426, Note_on_c, 0, 65, 64
3, 60432, Note_on_c, 0, 65, 0
3, 60432, Note_on_c, 0, 65, 64
3, 60465, Note_on_c, 0, 60, 0
3, 60477, Note_on_c, 0, 65, 0
3, 60480, Note_on_c, 0, 60, 64
3, 60480, Note_on_c, 0, 65, 64
3, 60657, Note_on_c, 0, 65, 0
3, 60657, Note_on_c, 0, 60, 0
3, 61104, Note_on_c, 0, 77, 64
3, 61149, Note_on_c, 0, 77, 0
3, 61152, Note_on_c, 0, 80, 64
3, 61197, Note_on_c, 0, 80, 0
3, 61200, Note_on_c, 0, 79, 64
3, 61245, Note_on_c, 0, 79, 0
3, 61248, Note_on_c, 0, 77, 64
3, 61293, Note_on_c, 0, 77, 0
3, 61296, Note_on_c, 0, 75, 64
3, 61341, Note_on_c, 0, 75, 0
3, 61344, Note_on_c, 0, 74, 64
3, 61389, Note_on_c, 0, 74, 0
3, 61392, Note_on_c, 0, 72, 64
3, 61437, Note_on_c, 0, 72, 0
3, 61440, Note_on_c, 0, 71, 64
3, 61488, Note_on_c, 0, 68, 64
3, 61533, Note_on_c, 0, 68, 0
3, 61536, Note_on_c, 0, 67, 64
3, 61581, Note_on_c, 0, 67, 0
3, 61584, Note_on_c, 0, 65, 64
3, 61617, Note_on_c, 0, 71, 0
3, 61629, Note_on_c, 0, 65, 0
3, 61632, Note_on_c, 0, 64, 64
3, 61632, Note_on_c, 0, 67, 64
3, 62162, Note_on_c, 0, 67, 0
3, 62162, Note_on_c, 0, 64, 0
3, 62162, End_track
4, 0, Start_track
4, 0, MIDI_port, 0
4, 0, Title_t, "Clavier (LH)"
4, 0, Program_c, 0, 6
4, 0, Control_c, 0, 7, 127
4, 0, Note_on_c, 0, 53, 64
4, 177, Note_on_c, 0, 53, 0
4, 192, Note_on_c, 0, 56, 64
4, 369, Note_on_c, 0, 56, 0
4, 384, Note_on_c, 0, 60, 64
4, 561, Note_on_c, 0, 60, 0
4, 576, Note_on_c, 0, 53, 64
4, 753, Note_on_c, 0, 53, 0
4, 768, Note_on_c, 0, 44, 64
4, 945, Note_on_c, 0, 44, 0
4, 960, Note_on_c, 0, 48, 64
4, 1137, Note_on_c, 0, 48, 0
4, 1152, Note_on_c, 0, 56, 64
4, 1329, Note_on_c, 0, 56, 0
4, 1344, Note_on_c, 0, 56, 64
4, 1433, Note_on_c, 0, 56, 0
4, 1440, Note_on_c, 0, 53, 64
4, 1529, Note_on_c, 0, 53, 0
4, 1536, Note_on_c, 0, 49, 64
4, 1625, Note_on_c, 0, 49, 0
4, 1632, Note_on_c, 0, 48, 64
4, 1677, Note_on_c, 0, 48, 0
4, 1680, Note_on_c, 0, 46, 64
4, 1725, Note_on_c, 0, 46, 0
4, 1728, Note_on_c, 0, 39, 64
4, 1817, Note_on_c, 0, 39, 0
4, 1824, Note_on_c, 0, 51, 64
4, 1913, Note_on_c, 0, 51, 0
4, 1920, Note_on_c, 0, 55, 64
4, 2009, Note_on_c, 0, 55, 0
4, 2016, Note_on_c, 0, 51, 64
4, 2105, Note_on_c, 0, 51, 0
4, 2112, Note_on_c, 0, 48, 64
4, 2201, Note_on_c, 0, 48, 0
4, 2208, Note_on_c, 0, 46, 64
4, 2253, Note_on_c, 0, 46, 0
4, 2256, Note_on_c, 0, 44, 64
4, 2301, Note_on_c, 0, 44, 0
4, 2304, Note_on_c, 0, 37, 64
4, 2393, Note_on_c, 0, 37, 0
4, 2400, Note_on_c, 0, 49, 64
4, 2489, Note_on_c, 0, 49, 0
4, 2496, Note_on_c, 0, 53, 64
4, 2585, Note_on_c, 0, 53, 0
4, 2592, Note_on_c, 0, 49, 64
4, 2681, Note_on_c, 0, 49, 0
4, 2688, Note_on_c, 0, 46, 64
4, 2777, Note_on_c, 0, 46, 0
4, 2784, Note_on_c, 0, 44, 64
4, 2829, Note_on_c, 0, 44, 0
4, 2832, Note_on_c, 0, 43, 64
4, 2877, Note_on_c, 0, 43, 0
4, 2880, Note_on_c, 0, 44, 64
4, 2969, Note_on_c, 0, 44, 0
4, 2976, Note_on_c, 0, 43, 64
4, 3065, Note_on_c, 0, 43, 0
4, 3072, Note_on_c, 0, 44, 64
4, 3161, Note_on_c, 0, 44, 0
4, 3168, Note_on_c, 0, 41, 64
4, 3257, Note_on_c, 0, 41, 0
4, 3264, Note_on_c, 0, 48, 64
4, 3353, Note_on_c, 0, 48, 0
4, 3360, Note_on_c, 0, 36, 64
4, 3449, Note_on_c, 0, 36, 0
4, 3456, Note_on_c, 0, 41, 64
4, 3633, Note_on_c, 0, 41, 0
4, 3648, Note_on_c, 0, 44, 64
4, 3825, Note_on_c, 0, 44, 0
4, 3840, Note_on_c, 0, 48, 64
4, 4017, Note_on_c, 0, 48, 0
4, 4032, Note_on_c, 0, 53, 64
4, 4209, Note_on_c, 0, 53, 0
4, 4224, Note_on_c, 0, 46, 64
4, 4401, Note_on_c, 0, 46, 0
4, 4416, Note_on_c, 0, 49, 64
4, 4593, Note_on_c, 0, 49, 0
4, 4608, Note_on_c, 0, 48, 64
4, 4785, Note_on_c, 0, 48, 0
4, 4800, Note_on_c, 0, 52, 64
4, 4977, Note_on_c, 0, 52, 0
4, 4992, Note_on_c, 0, 48, 64
4, 5169, Note_on_c, 0, 48, 0
4, 5184, Note_on_c, 0, 53, 64
4, 5361, Note_on_c, 0, 53, 0
4, 5376, Note_on_c, 0, 56, 64
4, 5553, Note_on_c, 0, 56, 0
4, 5568, Note_on_c, 0, 57, 64
4, 5745, Note_on_c, 0, 57, 0
4, 5760, Note_on_c, 0, 46, 64
4, 5849, Note_on_c, 0, 46, 0
4, 5856, Note_on_c, 0, 58, 64
4, 5945, Note_on_c, 0, 58, 0
4, 5952, Note_on_c, 0, 61, 64
4, 6041, Note_on_c, 0, 61, 0
4, 6048, Note_on_c, 0, 58, 64
4, 6137, Note_on_c, 0, 58, 0
4, 6144, Note_on_c, 0, 55, 64
4, 6233, Note_on_c, 0, 55, 0
4, 6240, Note_on_c, 0, 53, 64
4, 6285, Note_on_c, 0, 53, 0
4, 6288, Note_on_c, 0, 51, 64
4, 6333, Note_on_c, 0, 51, 0
4, 6336, Note_on_c, 0, 44, 64
4, 6425, Note_on_c, 0, 44, 0
4, 6432, Note_on_c, 0, 56, 64
4, 6521, Note_on_c, 0, 56, 0
4, 6528, Note_on_c, 0, 60, 64
4, 6617, Note_on_c, 0, 60, 0
4, 6624, Note_on_c, 0, 56, 64
4, 6713, Note_on_c, 0, 56, 0
4, 6720, Note_on_c, 0, 53, 64
4, 6809, Note_on_c, 0, 53, 0
4, 6816, Note_on_c, 0, 51, 64
4, 6861, Note_on_c, 0, 51, 0
4, 6864, Note_on_c, 0, 49, 64
4, 6909, Note_on_c, 0, 49, 0
4, 6912, Note_on_c, 0, 43, 64
4, 7001, Note_on_c, 0, 43, 0
4, 7008, Note_on_c, 0, 55, 64
4, 7097, Note_on_c, 0, 55, 0
4, 7104, Note_on_c, 0, 58, 64
4, 7193, Note_on_c, 0, 58, 0
4, 7200, Note_on_c, 0, 55, 64
4, 7289, Note_on_c, 0, 55, 0
4, 7296, Note_on_c, 0, 52, 64
4, 7385, Note_on_c, 0, 52, 0
4, 7392, Note_on_c, 0, 50, 64
4, 7437, Note_on_c, 0, 50, 0
4, 7440, Note_on_c, 0, 48, 64
4, 7485, Note_on_c, 0, 48, 0
4, 7488, Note_on_c, 0, 53, 64
4, 7665, Note_on_c, 0, 53, 0
4, 7680, Note_on_c, 0, 44, 64
4, 7857, Note_on_c, 0, 44, 0
4, 7872, Note_on_c, 0, 48, 64
4, 8049, Note_on_c, 0, 48, 0
4, 8064, Note_on_c, 0, 53, 64
4, 8241, Note_on_c, 0, 53, 0
4, 8256, Note_on_c, 0, 56, 64
4, 8433, Note_on_c, 0, 56, 0
4, 8448, Note_on_c, 0, 60, 64
4, 8625, Note_on_c, 0, 60, 0
4, 8640, Note_on_c, 0, 53, 64
4, 8817, Note_on_c, 0, 53, 0
4, 8832, Note_on_c, 0, 46, 64
4, 9009, Note_on_c, 0, 46, 0
4, 9024, Note_on_c, 0, 49, 64
4, 9201, Note_on_c, 0, 49, 0
4, 9216, Note_on_c, 0, 48, 64
4, 9393, Note_on_c, 0, 48, 0
4, 9408, Note_on_c, 0, 52, 64
4, 9585, Note_on_c, 0, 52, 0
4, 9600, Note_on_c, 0, 48, 64
4, 9777, Note_on_c, 0, 48, 0
4, 9792, Note_on_c, 0, 53, 64
4, 9969, Note_on_c, 0, 53, 0
4, 9984, Note_on_c, 0, 56, 64
4, 10161, Note_on_c, 0, 56, 0
4, 10176, Note_on_c, 0, 53, 64
4, 10353, Note_on_c, 0, 53, 0
4, 10368, Note_on_c, 0, 58, 64
4, 10545, Note_on_c, 0, 58, 0
4, 11040, Note_on_c, 0, 58, 64
4, 11129, Note_on_c, 0, 58, 0
4, 11136, Note_on_c, 0, 63, 64
4, 11225, Note_on_c, 0, 63, 0
4, 11232, Note_on_c, 0, 58, 64
4, 11321, Note_on_c, 0, 58, 0
4, 11328, Note_on_c, 0, 55, 64
4, 11417, Note_on_c, 0, 55, 0
4, 11424, Note_on_c, 0, 53, 64
4, 11469, Note_on_c, 0, 53, 0
4, 11472, Note_on_c, 0, 51, 64
4, 11517, Note_on_c, 0, 51, 0
4, 11520, Note_on_c, 0, 56, 64
4, 11609, Note_on_c, 0, 56, 0
4, 11616, Note_on_c, 0, 51, 64
4, 11705, Note_on_c, 0, 51, 0
4, 11712, Note_on_c, 0, 56, 64
4, 11801, Note_on_c, 0, 56, 0
4, 11808, Note_on_c, 0, 51, 64
4, 11897, Note_on_c, 0, 51, 0
4, 11904, Note_on_c, 0, 48, 64
4, 11993, Note_on_c, 0, 48, 0
4, 12000, Note_on_c, 0, 46, 64
4, 12045, Note_on_c, 0, 46, 0
4, 12048, Note_on_c, 0, 44, 64
4, 12093, Note_on_c, 0, 44, 0
4, 12096, Note_on_c, 0, 49, 64
4, 12361, Note_on_c, 0, 49, 0
4, 12384, Note_on_c, 0, 49, 64
4, 12473, Note_on_c, 0, 49, 0
4, 12480, Note_on_c, 0, 46, 64
4, 12569, Note_on_c, 0, 46, 0
4, 12576, Note_on_c, 0, 43, 64
4, 12665, Note_on_c, 0, 43, 0
4, 12672, Note_on_c, 0, 40, 64
4, 12849, Note_on_c, 0, 40, 0
4, 13248, Note_on_c, 0, 41, 64
4, 13425, Note_on_c, 0, 41, 0
4, 13440, Note_on_c, 0, 49, 64
4, 13794, Note_on_c, 0, 49, 0
4, 13824, Note_on_c, 0, 48, 64
4, 14001, Note_on_c, 0, 48, 0
4, 14016, Note_on_c, 0, 52, 64
4, 14193, Note_on_c, 0, 52, 0
4, 14208, Note_on_c, 0, 48, 64
4, 14385, Note_on_c, 0, 48, 0
4, 14400, Note_on_c, 0, 53, 64
4, 14577, Note_on_c, 0, 53, 0
4, 14976, Note_on_c, 0, 46, 64
4, 15153, Note_on_c, 0, 46, 0
4, 15168, Note_on_c, 0, 49, 64
4, 15345, Note_on_c, 0, 49, 0
4, 15360, Note_on_c, 0, 46, 64
4, 15537, Note_on_c, 0, 46, 0
4, 15552, Note_on_c, 0, 51, 64
4, 15729, Note_on_c, 0, 51, 0
4, 16128, Note_on_c, 0, 44, 64
4, 16305, Note_on_c, 0, 44, 0
4, 16320, Note_on_c, 0, 46, 64
4, 16497, Note_on_c, 0, 46, 0
4, 16512, Note_on_c, 0, 48, 64
4, 16689, Note_on_c, 0, 48, 0
4, 16704, Note_on_c, 0, 49, 64
4, 16793, Note_on_c, 0, 49, 0
4, 16800, Note_on_c, 0, 56, 64
4, 16889, Note_on_c, 0, 56, 0
4, 16896, Note_on_c, 0, 61, 64
4, 16985, Note_on_c, 0, 61, 0
4, 16992, Note_on_c, 0, 56, 64
4, 17081, Note_on_c, 0, 56, 0
4, 17088, Note_on_c, 0, 53, 64
4, 17177, Note_on_c, 0, 53, 0
4, 17184, Note_on_c, 0, 51, 64
4, 17229, Note_on_c, 0, 51, 0
4, 17232, Note_on_c, 0, 49, 64
4, 17277, Note_on_c, 0, 49, 0
4, 17280, Note_on_c, 0, 55, 64
4, 17369, Note_on_c, 0, 55, 0
4, 17376, Note_on_c, 0, 51, 64
4, 17465, Note_on_c, 0, 51, 0
4, 17472, Note_on_c, 0, 56, 64
4, 17561, Note_on_c, 0, 56, 0
4, 17568, Note_on_c, 0, 51, 64
4, 17657, Note_on_c, 0, 51, 0
4, 17664, Note_on_c, 0, 48, 64
4, 17753, Note_on_c, 0, 48, 0
4, 17760, Note_on_c, 0, 46, 64
4, 17805, Note_on_c, 0, 46, 0
4, 17808, Note_on_c, 0, 44, 64
4, 17853, Note_on_c, 0, 44, 0
4, 17856, Note_on_c, 0, 51, 64
4, 18033, Note_on_c, 0, 51, 0
4, 18048, Note_on_c, 0, 55, 64
4, 18225, Note_on_c, 0, 55, 0
4, 18240, Note_on_c, 0, 51, 64
4, 18417, Note_on_c, 0, 51, 0
4, 18432, Note_on_c, 0, 56, 64
4, 18609, Note_on_c, 0, 56, 0
4, 18624, Note_on_c, 0, 60, 64
4, 18801, Note_on_c, 0, 60, 0
4, 18816, Note_on_c, 0, 56, 64
4, 18993, Note_on_c, 0, 56, 0
4, 19008, Note_on_c, 0, 49, 64
4, 19761, Note_on_c, 0, 49, 0
4, 19776, Note_on_c, 0, 48, 64
4, 19953, Note_on_c, 0, 48, 0
4, 19968, Note_on_c, 0, 49, 64
4, 20145, Note_on_c, 0, 49, 0
4, 20160, Note_on_c, 0, 46, 64
4, 20337, Note_on_c, 0, 46, 0
4, 20352, Note_on_c, 0, 51, 64
4, 20529, Note_on_c, 0, 51, 0
4, 20544, Note_on_c, 0, 39, 64
4, 20721, Note_on_c, 0, 39, 0
4, 20736, Note_on_c, 0, 44, 64
4, 20913, Note_on_c, 0, 44, 0
4, 20928, Note_on_c, 0, 48, 64
4, 21105, Note_on_c, 0, 48, 0
4, 21120, Note_on_c, 0, 44, 64
4, 21297, Note_on_c, 0, 44, 0
4, 21312, Note_on_c, 0, 49, 64
4, 21489, Note_on_c, 0, 49, 0
4, 21696, Note_on_c, 0, 50, 64
4, 21873, Note_on_c, 0, 50, 0
4, 21888, Note_on_c, 0, 51, 64
4, 21977, Note_on_c, 0, 51, 0
4, 21984, Note_on_c, 0, 46, 64
4, 22073, Note_on_c, 0, 46, 0
4, 22080, Note_on_c, 0, 49, 64
4, 22169, Note_on_c, 0, 49, 0
4, 22176, Note_on_c, 0, 46, 64
4, 22265, Note_on_c, 0, 46, 0
4, 22272, Note_on_c, 0, 43, 64
4, 22361, Note_on_c, 0, 43, 0
4, 22368, Note_on_c, 0, 41, 64
4, 22413, Note_on_c, 0, 41, 0
4, 22416, Note_on_c, 0, 39, 64
4, 22461, Note_on_c, 0, 39, 0
4, 22464, Note_on_c, 0, 44, 64
4, 22553, Note_on_c, 0, 44, 0
4, 22560, Note_on_c, 0, 49, 64
4, 22649, Note_on_c, 0, 49, 0
4, 22656, Note_on_c, 0, 51, 64
4, 22833, Note_on_c, 0, 51, 0
4, 22848, Note_on_c, 0, 39, 64
4, 23025, Note_on_c, 0, 39, 0
4, 23040, Note_on_c, 0, 44, 64
4, 23217, Note_on_c, 0, 44, 0
4, 23232, Note_on_c, 0, 48, 64
4, 23409, Note_on_c, 0, 48, 0
4, 23424, Note_on_c, 0, 44, 64
4, 23601, Note_on_c, 0, 44, 0
4, 23616, Note_on_c, 0, 49, 64
4, 23793, Note_on_c, 0, 49, 0
4, 23808, Note_on_c, 0, 53, 64
4, 23985, Note_on_c, 0, 53, 0
4, 24000, Note_on_c, 0, 56, 64
4, 24177, Note_on_c, 0, 56, 0
4, 24192, Note_on_c, 0, 49, 64
4, 24369, Note_on_c, 0, 49, 0
4, 24384, Note_on_c, 0, 41, 64
4, 24561, Note_on_c, 0, 41, 0
4, 24576, Note_on_c, 0, 44, 64
4, 24753, Note_on_c, 0, 44, 0
4, 24768, Note_on_c, 0, 37, 64
4, 24857, Note_on_c, 0, 37, 0
4, 24864, Note_on_c, 0, 44, 64
4, 24953, Note_on_c, 0, 44, 0
4, 24960, Note_on_c, 0, 49, 64
4, 25049, Note_on_c, 0, 49, 0
4, 25056, Note_on_c, 0, 43, 64
4, 25145, Note_on_c, 0, 43, 0
4, 25152, Note_on_c, 0, 46, 64
4, 25197, Note_on_c, 0, 46, 0
4, 25200, Note_on_c, 0, 45, 64
4, 25245, Note_on_c, 0, 45, 0
4, 25248, Note_on_c, 0, 43, 64
4, 25293, Note_on_c, 0, 43, 0
4, 25296, Note_on_c, 0, 41, 64
4, 25341, Note_on_c, 0, 41, 0
4, 25344, Note_on_c, 0, 46, 64
4, 25521, Note_on_c, 0, 46, 0
4, 25536, Note_on_c, 0, 50, 64
4, 25713, Note_on_c, 0, 50, 0
4, 25728, Note_on_c, 0, 46, 64
4, 25905, Note_on_c, 0, 46, 0
4, 25920, Note_on_c, 0, 51, 64
4, 26097, Note_on_c, 0, 51, 0
4, 26112, Note_on_c, 0, 55, 64
4, 26289, Note_on_c, 0, 55, 0
4, 26304, Note_on_c, 0, 58, 64
4, 26481, Note_on_c, 0, 58, 0
4, 26496, Note_on_c, 0, 51, 64
4, 26673, Note_on_c, 0, 51, 0
4, 26688, Note_on_c, 0, 43, 64
4, 26865, Note_on_c, 0, 43, 0
4, 26880, Note_on_c, 0, 46, 64
4, 27057, Note_on_c, 0, 46, 0
4, 27072, Note_on_c, 0, 39, 64
4, 27161, Note_on_c, 0, 39, 0
4, 27168, Note_on_c, 0, 46, 64
4, 27257, Note_on_c, 0, 46, 0
4, 27264, Note_on_c, 0, 51, 64
4, 27353, Note_on_c, 0, 51, 0
4, 27360, Note_on_c, 0, 45, 64
4, 27449, Note_on_c, 0, 45, 0
4, 27456, Note_on_c, 0, 48, 64
4, 27501, Note_on_c, 0, 48, 0
4, 27504, Note_on_c, 0, 47, 64
4, 27549, Note_on_c, 0, 47, 0
4, 27552, Note_on_c, 0, 45, 64
4, 27597, Note_on_c, 0, 45, 0
4, 27600, Note_on_c, 0, 43, 64
4, 27645, Note_on_c, 0, 43, 0
4, 27648, Note_on_c, 0, 48, 64
4, 27825, Note_on_c, 0, 48, 0
4, 27840, Note_on_c, 0, 52, 64
4, 28017, Note_on_c, 0, 52, 0
4, 28032, Note_on_c, 0, 48, 64
4, 28209, Note_on_c, 0, 48, 0
4, 28224, Note_on_c, 0, 53, 64
4, 28401, Note_on_c, 0, 53, 0
4, 28416, Note_on_c, 0, 56, 64
4, 28593, Note_on_c, 0, 56, 0
4, 28608, Note_on_c, 0, 60, 64
4, 28785, Note_on_c, 0, 60, 0
4, 28800, Note_on_c, 0, 53, 64
4, 28977, Note_on_c, 0, 53, 0
4, 28992, Note_on_c, 0, 44, 64
4, 29169, Note_on_c, 0, 44, 0
4, 29184, Note_on_c, 0, 48, 64
4, 29361, Note_on_c, 0, 48, 0
4, 29376, Note_on_c, 0, 41, 64
4, 29465, Note_on_c, 0, 41, 0
4, 29472, Note_on_c, 0, 48, 64
4, 29561, Note_on_c, 0, 48, 0
4, 29568, Note_on_c, 0, 53, 64
4, 29657, Note_on_c, 0, 53, 0
4, 29664, Note_on_c, 0, 48, 64
4, 29753, Note_on_c, 0, 48, 0
4, 29760, Note_on_c, 0, 44, 64
4, 29849, Note_on_c, 0, 44, 0
4, 29856, Note_on_c, 0, 43, 64
4, 29901, Note_on_c, 0, 43, 0
4, 29904, Note_on_c, 0, 41, 64
4, 29949, Note_on_c, 0, 41, 0
4, 29952, Note_on_c, 0, 47, 64
4, 30129, Note_on_c, 0, 47, 0
4, 30144, Note_on_c, 0, 48, 64
4, 30321, Note_on_c, 0, 48, 0
4, 30336, Note_on_c, 0, 36, 64
4, 30513, Note_on_c, 0, 36, 0
4, 30528, Note_on_c, 0, 41, 64
4, 30705, Note_on_c, 0, 41, 0
4, 30720, Note_on_c, 0, 44, 64
4, 30897, Note_on_c, 0, 44, 0
4, 30912, Note_on_c, 0, 41, 64
4, 31089, Note_on_c, 0, 41, 0
4, 31104, Note_on_c, 0, 47, 64
4, 31281, Note_on_c, 0, 47, 0
4, 31488, Note_on_c, 0, 43, 64
4, 31665, Note_on_c, 0, 43, 0
4, 31680, Note_on_c, 0, 48, 64
4, 31857, Note_on_c, 0, 48, 0
4, 32064, Note_on_c, 0, 48, 64
4, 32241, Note_on_c, 0, 48, 0
4, 32256, Note_on_c, 0, 41, 64
4, 32345, Note_on_c, 0, 41, 0
4, 32352, Note_on_c, 0, 53, 64
4, 32441, Note_on_c, 0, 53, 0
4, 32448, Note_on_c, 0, 56, 64
4, 32537, Note_on_c, 0, 56, 0
4, 32544, Note_on_c, 0, 53, 64
4, 32633, Note_on_c, 0, 53, 0
4, 32640, Note_on_c, 0, 50, 64
4, 32729, Note_on_c, 0, 50, 0
4, 32736, Note_on_c, 0, 48, 64
4, 32781, Note_on_c, 0, 48, 0
4, 32784, Note_on_c, 0, 47, 64
4, 32829, Note_on_c, 0, 47, 0
4, 32832, Note_on_c, 0, 51, 64
4, 32921, Note_on_c, 0, 51, 0
4, 32928, Note_on_c, 0, 48, 64
4, 33017, Note_on_c, 0, 48, 0
4, 33024, Note_on_c, 0, 55, 64
4, 33201, Note_on_c, 0, 55, 0
4, 33216, Note_on_c, 0, 43, 64
4, 33393, Note_on_c, 0, 43, 0
4, 33408, Note_on_c, 0, 48, 64
4, 33585, Note_on_c, 0, 48, 0
4, 33600, Note_on_c, 0, 51, 64
4, 33777, Note_on_c, 0, 51, 0
4, 33792, Note_on_c, 0, 55, 64
4, 33969, Note_on_c, 0, 55, 0
4, 33984, Note_on_c, 0, 60, 64
4, 34161, Note_on_c, 0, 60, 0
4, 34176, Note_on_c, 0, 51, 64
4, 34353, Note_on_c, 0, 51, 0
4, 34368, Note_on_c, 0, 55, 64
4, 34545, Note_on_c, 0, 55, 0
4, 34560, Note_on_c, 0, 48, 64
4, 34649, Note_on_c, 0, 48, 0
4, 34656, Note_on_c, 0, 60, 64
4, 34745, Note_on_c, 0, 60, 0
4, 34752, Note_on_c, 0, 63, 64
4, 34841, Note_on_c, 0, 63, 0
4, 34848, Note_on_c, 0, 60, 64
4, 34937, Note_on_c, 0, 60, 0
4, 34944, Note_on_c, 0, 56, 64
4, 35033, Note_on_c, 0, 56, 0
4, 35040, Note_on_c, 0, 55, 64
4, 35085, Note_on_c, 0, 55, 0
4, 35088, Note_on_c, 0, 53, 64
4, 35133, Note_on_c, 0, 53, 0
4, 35136, Note_on_c, 0, 46, 64
4, 35225, Note_on_c, 0, 46, 0
4, 35232, Note_on_c, 0, 58, 64
4, 35321, Note_on_c, 0, 58, 0
4, 35328, Note_on_c, 0, 62, 64
4, 35417, Note_on_c, 0, 62, 0
4, 35424, Note_on_c, 0, 58, 64
4, 35513, Note_on_c, 0, 58, 0
4, 35520, Note_on_c, 0, 55, 64
4, 35609, Note_on_c, 0, 55, 0
4, 35616, Note_on_c, 0, 53, 64
4, 35661, Note_on_c, 0, 53, 0
4, 35664, Note_on_c, 0, 51, 64
4, 35709, Note_on_c, 0, 51, 0
4, 35712, Note_on_c, 0, 44, 64
4, 35801, Note_on_c, 0, 44, 0
4, 35808, Note_on_c, 0, 56, 64
4, 35897, Note_on_c, 0, 56, 0
4, 35904, Note_on_c, 0, 60, 64
4, 35993, Note_on_c, 0, 60, 0
4, 36000, Note_on_c, 0, 56, 64
4, 36089, Note_on_c, 0, 56, 0
4, 36096, Note_on_c, 0, 53, 64
4, 36185, Note_on_c, 0, 53, 0
4, 36192, Note_on_c, 0, 51, 64
4, 36237, Note_on_c, 0, 51, 0
4, 36240, Note_on_c, 0, 50, 64
4, 36285, Note_on_c, 0, 50, 0
4, 36288, Note_on_c, 0, 51, 64
4, 36377, Note_on_c, 0, 51, 0
4, 36384, Note_on_c, 0, 48, 64
4, 36429, Note_on_c, 0, 48, 0
4, 36432, Note_on_c, 0, 50, 64
4, 36477, Note_on_c, 0, 50, 0
4, 36480, Note_on_c, 0, 51, 64
4, 36569, Note_on_c, 0, 51, 0
4, 36576, Note_on_c, 0, 53, 64
4, 36665, Note_on_c, 0, 53, 0
4, 36672, Note_on_c, 0, 55, 64
4, 36761, Note_on_c, 0, 55, 0
4, 36768, Note_on_c, 0, 43, 64
4, 36857, Note_on_c, 0, 43, 0
4, 36864, Note_on_c, 0, 48, 64
4, 37041, Note_on_c, 0, 48, 0
4, 37056, Note_on_c, 0, 51, 64
4, 37233, Note_on_c, 0, 51, 0
4, 37248, Note_on_c, 0, 48, 64
4, 37425, Note_on_c, 0, 48, 0
4, 37440, Note_on_c, 0, 53, 64
4, 37617, Note_on_c, 0, 53, 0
4, 37824, Note_on_c, 0, 56, 64
4, 38001, Note_on_c, 0, 56, 0
4, 38016, Note_on_c, 0, 49, 64
4, 38193, Note_on_c, 0, 49, 0
4, 38208, Note_on_c, 0, 41, 64
4, 38385, Note_on_c, 0, 41, 0
4, 38400, Note_on_c, 0, 44, 64
4, 38577, Note_on_c, 0, 44, 0
4, 38592, Note_on_c, 0, 37, 64
4, 38769, Note_on_c, 0, 37, 0
4, 39168, Note_on_c, 0, 50, 64
4, 39345, Note_on_c, 0, 50, 0
4, 39360, Note_on_c, 0, 46, 64
4, 39537, Note_on_c, 0, 46, 0
4, 39552, Note_on_c, 0, 50, 64
4, 39729, Note_on_c, 0, 50, 0
4, 39744, Note_on_c, 0, 51, 64
4, 39921, Note_on_c, 0, 51, 0
4, 39936, Note_on_c, 0, 43, 64
4, 40113, Note_on_c, 0, 43, 0
4, 40128, Note_on_c, 0, 46, 64
4, 40305, Note_on_c, 0, 46, 0
4, 40320, Note_on_c, 0, 39, 64
4, 40497, Note_on_c, 0, 39, 0
4, 40896, Note_on_c, 0, 52, 64
4, 41073, Note_on_c, 0, 52, 0
4, 41088, Note_on_c, 0, 48, 64
4, 41265, Note_on_c, 0, 48, 0
4, 41280, Note_on_c, 0, 52, 64
4, 41457, Note_on_c, 0, 52, 0
4, 41472, Note_on_c, 0, 53, 64
4, 41649, Note_on_c, 0, 53, 0
4, 41664, Note_on_c, 0, 44, 64
4, 41841, Note_on_c, 0, 44, 0
4, 41856, Note_on_c, 0, 48, 64
4, 42033, Note_on_c, 0, 48, 0
4, 42048, Note_on_c, 0, 41, 64
4, 42225, Note_on_c, 0, 41, 0
4, 42432, Note_on_c, 0, 53, 64
4, 42609, Note_on_c, 0, 53, 0
4, 42624, Note_on_c, 0, 46, 64
4, 42801, Note_on_c, 0, 46, 0
4, 43008, Note_on_c, 0, 46, 64
4, 43185, Note_on_c, 0, 46, 0
4, 43200, Note_on_c, 0, 51, 64
4, 43377, Note_on_c, 0, 51, 0
4, 43584, Note_on_c, 0, 51, 64
4, 43761, Note_on_c, 0, 51, 0
4, 43776, Note_on_c, 0, 44, 64
4, 43953, Note_on_c, 0, 44, 0
4, 44160, Note_on_c, 0, 44, 64
4, 44337, Note_on_c, 0, 44, 0
4, 44352, Note_on_c, 0, 49, 64
4, 44441, Note_on_c, 0, 49, 0
4, 44448, Note_on_c, 0, 56, 64
4, 44537, Note_on_c, 0, 56, 0
4, 44544, Note_on_c, 0, 61, 64
4, 44633, Note_on_c, 0, 61, 0
4, 44640, Note_on_c, 0, 56, 64
4, 44729, Note_on_c, 0, 56, 0
4, 44736, Note_on_c, 0, 53, 64
4, 44825, Note_on_c, 0, 53, 0
4, 44832, Note_on_c, 0, 51, 64
4, 44877, Note_on_c, 0, 51, 0
4, 44880, Note_on_c, 0, 49, 64
4, 44925, Note_on_c, 0, 49, 0
4, 44928, Note_on_c, 0, 55, 64
4, 45593, Note_on_c, 0, 55, 0
4, 45600, Note_on_c, 0, 55, 64
4, 45689, Note_on_c, 0, 55, 0
4, 45696, Note_on_c, 0, 58, 64
4, 45785, Note_on_c, 0, 58, 0
4, 45792, Note_on_c, 0, 55, 64
4, 45881, Note_on_c, 0, 55, 0
4, 45888, Note_on_c, 0, 52, 64
4, 45977, Note_on_c, 0, 52, 0
4, 45984, Note_on_c, 0, 53, 64
4, 46029, Note_on_c, 0, 53, 0
4, 46032, Note_on_c, 0, 55, 64
4, 46077, Note_on_c, 0, 55, 0
4, 46080, Note_on_c, 0, 46, 64
4, 46257, Note_on_c, 0, 46, 0
4, 46272, Note_on_c, 0, 48, 64
4, 46449, Note_on_c, 0, 48, 0
4, 46464, Note_on_c, 0, 49, 64
4, 46641, Note_on_c, 0, 49, 0
4, 46656, Note_on_c, 0, 48, 64
4, 46745, Note_on_c, 0, 48, 0
4, 46752, Note_on_c, 0, 48, 64
4, 46841, Note_on_c, 0, 48, 0
4, 46848, Note_on_c, 0, 53, 64
4, 46937, Note_on_c, 0, 53, 0
4, 46944, Note_on_c, 0, 48, 64
4, 47033, Note_on_c, 0, 48, 0
4, 47040, Note_on_c, 0, 45, 64
4, 47129, Note_on_c, 0, 45, 0
4, 47136, Note_on_c, 0, 43, 64
4, 47181, Note_on_c, 0, 43, 0
4, 47184, Note_on_c, 0, 41, 64
4, 47229, Note_on_c, 0, 41, 0
4, 47232, Note_on_c, 0, 46, 64
4, 47985, Note_on_c, 0, 46, 0
4, 48000, Note_on_c, 0, 49, 64
4, 48177, Note_on_c, 0, 49, 0
4, 48192, Note_on_c, 0, 46, 64
4, 48369, Note_on_c, 0, 46, 0
4, 48384, Note_on_c, 0, 52, 64
4, 48561, Note_on_c, 0, 52, 0
4, 48768, Note_on_c, 0, 48, 64
4, 48945, Note_on_c, 0, 48, 0
4, 48960, Note_on_c, 0, 53, 64
4, 49049, Note_on_c, 0, 53, 0
4, 49056, Note_on_c, 0, 44, 64
4, 49145, Note_on_c, 0, 44, 0
4, 49152, Note_on_c, 0, 49, 64
4, 49241, Note_on_c, 0, 49, 0
4, 49248, Note_on_c, 0, 46, 64
4, 49337, Note_on_c, 0, 46, 0
4, 49344, Note_on_c, 0, 43, 64
4, 49433, Note_on_c, 0, 43, 0
4, 49440, Note_on_c, 0, 41, 64
4, 49485, Note_on_c, 0, 41, 0
4, 49488, Note_on_c, 0, 40, 64
4, 49533, Note_on_c, 0, 40, 0
4, 49536, Note_on_c, 0, 44, 64
4, 49625, Note_on_c, 0, 44, 0
4, 49632, Note_on_c, 0, 46, 64
4, 49721, Note_on_c, 0, 46, 0
4, 49728, Note_on_c, 0, 48, 64
4, 49905, Note_on_c, 0, 48, 0
4, 49920, Note_on_c, 0, 36, 64
4, 50097, Note_on_c, 0, 36, 0
4, 50112, Note_on_c, 0, 41, 64
4, 50289, Note_on_c, 0, 41, 0
4, 50304, Note_on_c, 0, 44, 64
4, 50481, Note_on_c, 0, 44, 0
4, 50496, Note_on_c, 0, 48, 64
4, 50673, Note_on_c, 0, 48, 0
4, 50688, Note_on_c, 0, 53, 64
4, 50865, Note_on_c, 0, 53, 0
4, 50880, Note_on_c, 0, 44, 64
4, 51057, Note_on_c, 0, 44, 0
4, 51072, Note_on_c, 0, 48, 64
4, 51249, Note_on_c, 0, 48, 0
4, 51264, Note_on_c, 0, 41, 64
4, 51353, Note_on_c, 0, 41, 0
4, 51360, Note_on_c, 0, 53, 64
4, 51449, Note_on_c, 0, 53, 0
4, 51456, Note_on_c, 0, 56, 64
4, 51545, Note_on_c, 0, 56, 0
4, 51552, Note_on_c, 0, 53, 64
4, 51641, Note_on_c, 0, 53, 0
4, 51648, Note_on_c, 0, 49, 64
4, 51737, Note_on_c, 0, 49, 0
4, 51744, Note_on_c, 0, 48, 64
4, 51789, Note_on_c, 0, 48, 0
4, 51792, Note_on_c, 0, 46, 64
4, 51837, Note_on_c, 0, 46, 0
4, 51840, Note_on_c, 0, 39, 64
4, 51929, Note_on_c, 0, 39, 0
4, 51936, Note_on_c, 0, 51, 64
4, 52025, Note_on_c, 0, 51, 0
4, 52032, Note_on_c, 0, 55, 64
4, 52121, Note_on_c, 0, 55, 0
4, 52128, Note_on_c, 0, 51, 64
4, 52217, Note_on_c, 0, 51, 0
4, 52224, Note_on_c, 0, 48, 64
4, 52313, Note_on_c, 0, 48, 0
4, 52320, Note_on_c, 0, 46, 64
4, 52365, Note_on_c, 0, 46, 0
4, 52368, Note_on_c, 0, 44, 64
4, 52413, Note_on_c, 0, 44, 0
4, 52416, Note_on_c, 0, 37, 64
4, 52505, Note_on_c, 0, 37, 0
4, 52512, Note_on_c, 0, 49, 64
4, 52601, Note_on_c, 0, 49, 0
4, 52608, Note_on_c, 0, 53, 64
4, 52697, Note_on_c, 0, 53, 0
4, 52704, Note_on_c, 0, 49, 64
4, 52793, Note_on_c, 0, 49, 0
4, 52800, Note_on_c, 0, 46, 64
4, 52889, Note_on_c, 0, 46, 0
4, 52896, Note_on_c, 0, 44, 64
4, 52941, Note_on_c, 0, 44, 0
4, 52944, Note_on_c, 0, 43, 64
4, 52989, Note_on_c, 0, 43, 0
4, 52992, Note_on_c, 0, 44, 64
4, 53081, Note_on_c, 0, 44, 0
4, 53088, Note_on_c, 0, 43, 64
4, 53177, Note_on_c, 0, 43, 0
4, 53184, Note_on_c, 0, 44, 64
4, 53273, Note_on_c, 0, 44, 0
4, 53280, Note_on_c, 0, 41, 64
4, 53369, Note_on_c, 0, 41, 0
4, 53376, Note_on_c, 0, 48, 64
4, 53465, Note_on_c, 0, 48, 0
4, 53472, Note_on_c, 0, 36, 64
4, 53561, Note_on_c, 0, 36, 0
4, 53568, Note_on_c, 0, 41, 64
4, 53657, Note_on_c, 0, 41, 0
4, 53664, Note_on_c, 0, 48, 64
4, 53753, Note_on_c, 0, 48, 0
4, 53760, Note_on_c, 0, 53, 64
4, 53849, Note_on_c, 0, 53, 0
4, 53856, Note_on_c, 0, 48, 64
4, 53945, Note_on_c, 0, 48, 0
4, 53952, Note_on_c, 0, 44, 64
4, 54041, Note_on_c, 0, 44, 0
4, 54048, Note_on_c, 0, 43, 64
4, 54093, Note_on_c, 0, 43, 0
4, 54096, Note_on_c, 0, 41, 64
4, 54141, Note_on_c, 0, 41, 0
4, 54144, Note_on_c, 0, 46, 64
4, 54321, Note_on_c, 0, 46, 0
4, 54720, Note_on_c, 0, 43, 64
4, 54897, Note_on_c, 0, 43, 0
4, 54912, Note_on_c, 0, 46, 64
4, 55089, Note_on_c, 0, 46, 0
4, 55104, Note_on_c, 0, 43, 64
4, 55281, Note_on_c, 0, 43, 0
4, 55296, Note_on_c, 0, 48, 64
4, 55473, Note_on_c, 0, 48, 0
4, 55680, Note_on_c, 0, 48, 64
4, 55857, Note_on_c, 0, 48, 0
4, 55872, Note_on_c, 0, 53, 64
4, 56049, Note_on_c, 0, 53, 0
4, 56064, Note_on_c, 0, 55, 64
4, 56241, Note_on_c, 0, 55, 0
4, 56256, Note_on_c, 0, 57, 64
4, 56433, Note_on_c, 0, 57, 0
4, 56448, Note_on_c, 0, 58, 64
4, 56625, Note_on_c, 0, 58, 0
4, 57024, Note_on_c, 0, 64, 64
4, 57113, Note_on_c, 0, 64, 0
4, 57120, Note_on_c, 0, 60, 64
4, 57209, Note_on_c, 0, 60, 0
4, 57216, Note_on_c, 0, 65, 64
4, 57305, Note_on_c, 0, 65, 0
4, 57312, Note_on_c, 0, 60, 64
4, 57401, Note_on_c, 0, 60, 0
4, 57408, Note_on_c, 0, 56, 64
4, 57497, Note_on_c, 0, 56, 0
4, 57504, Note_on_c, 0, 55, 64
4, 57549, Note_on_c, 0, 55, 0
4, 57552, Note_on_c, 0, 53, 64
4, 57597, Note_on_c, 0, 53, 0
4, 57600, Note_on_c, 0, 60, 64
4, 57777, Note_on_c, 0, 60, 0
4, 57792, Note_on_c, 0, 52, 64
4, 57969, Note_on_c, 0, 52, 0
4, 57984, Note_on_c, 0, 48, 64
4, 58161, Note_on_c, 0, 48, 0
4, 58176, Note_on_c, 0, 53, 64
4, 58353, Note_on_c, 0, 53, 0
4, 58368, Note_on_c, 0, 44, 64
4, 58545, Note_on_c, 0, 44, 0
4, 58560, Note_on_c, 0, 41, 64
4, 58737, Note_on_c, 0, 41, 0
4, 58752, Note_on_c, 0, 46, 64
4, 59505, Note_on_c, 0, 46, 0
4, 59520, Note_on_c, 0, 56, 64
4, 59520, Note_on_c, 0, 44, 64
4, 59697, Note_on_c, 0, 44, 0
4, 59712, Note_on_c, 0, 56, 0
4, 59712, Note_on_c, 0, 58, 64
4, 59712, Note_on_c, 0, 46, 64
4, 59889, Note_on_c, 0, 46, 0
4, 59904, Note_on_c, 0, 58, 0
4, 59904, Note_on_c, 0, 43, 64
4, 60258, Note_on_c, 0, 43, 0
4, 60288, Note_on_c, 0, 36, 64
4, 60465, Note_on_c, 0, 36, 0
4, 60480, Note_on_c, 0, 56, 64
4, 60480, Note_on_c, 0, 37, 64
4, 60657, Note_on_c, 0, 37, 0
4, 60672, Note_on_c, 0, 56, 0
4, 61248, Note_on_c, 0, 38, 64
4, 61602, Note_on_c, 0, 38, 0
4, 61632, Note_on_c, 0, 36, 64
4, 62162, Note_on_c, 0, 36, 0
4, 62162, End_track
5, 0, Start_track
5, 0, MIDI_port, 0
5, 0, Title_t, "Sonata No. 5 en Fa Menor"
5, 0, End_track
6, 0, Start_track
6, 0, MIDI_port, 0
6, 0, Title_t, "para violin y clavicembalo"
6, 0, End_track
7, 0, Start_track
7, 0, MIDI_port, 0
7, 0, Title_t, "Primer Movimiento: Largo"
7, 0, End_track
8, 0, Start_track
8, 0, MIDI_port, 0
8, 0, Title_t, "J. S. Bach (1685-1750)"
8, 0, End_track
9, 0, Start_track
9, 0, MIDI_port, 0
9, 0, Title_t, "Copyright Luis Gerardo Barajas "
9, 0, End_track
10, 0, Start_track
10, 0, MIDI_port, 0
10, 0, Title_t, "*** Bach Keeps RuLiNg!!!"
10, 0, End_track
0, 0, End_of_file
