0, 0, Header, 1, 10, 96
1, 0, Start_track
1, 0, Sequencer_specific, 3, 0, 0, 65
1, 0, Time_signature, 3, 2, 24, 8
1, 0, Key_signature, 1, "major"
1, 0, Tempo, 1333333
1, 5304, Tempo, 1224490
1, 5312, Tempo, 1250000
1, 5352, Tempo, 1276596
1, 5392, Tempo, 1304348
1, 5440, Tempo, 1333333
1, 5480, Tempo, 1363636
1, 5528, Tempo, 1395349
1, 5568, Tempo, 1428571
1, 5608, Tempo, 1463415
1, 5656, Tempo, 1500000
1, 5696, Tempo, 1538462
1, 5744, Tempo, 1500000
1, 5760, Tempo, 1578947
1, 5768, Tempo, 1463415
1, 5784, Tempo, 335196
1, 5952, Tempo, 566038
1, 5952, End_track
2, 0, Start_track
2, 0, MIDI_port, 0
2, 0, Title_t, "Violin"
2, 0, Program_c, 1, 40
2, 0, Control_c, 1, 7, 127
2, 168, Note_on_c, 1, 83, 64
2, 191, Note_on_c, 1, 83, 0
2, 192, Note_on_c, 1, 76, 64
2, 259, Note_on_c, 1, 76, 0
2, 264, Note_on_c, 1, 79, 64
2, 287, Note_on_c, 1, 79, 0
2, 288, Note_on_c, 1, 79, 64
2, 294, Note_on_c, 1, 79, 0
2, 294, Note_on_c, 1, 78, 64
2, 425, Note_on_c, 1, 78, 0
2, 444, Note_on_c, 1, 69, 64
2, 456, Note_on_c, 1, 69, 0
2, 456, Note_on_c, 1, 67, 64
2, 468, Note_on_c, 1, 67, 0
2, 468, Note_on_c, 1, 69, 64
2, 480, Note_on_c, 1, 69, 0
2, 480, Note_on_c, 1, 71, 64
2, 547, Note_on_c, 1, 71, 0
2, 552, Note_on_c, 1, 66, 64
2, 575, Note_on_c, 1, 66, 0
2, 576, Note_on_c, 1, 67, 64
2, 582, Note_on_c, 1, 67, 0
2, 582, Note_on_c, 1, 69, 64
2, 588, Note_on_c, 1, 69, 0
2, 588, Note_on_c, 1, 67, 64
2, 594, Note_on_c, 1, 67, 0
2, 594, Note_on_c, 1, 69, 64
2, 600, Note_on_c, 1, 69, 0
2, 600, Note_on_c, 1, 67, 64
2, 606, Note_on_c, 1, 67, 0
2, 606, Note_on_c, 1, 69, 64
2, 612, Note_on_c, 1, 69, 0
2, 612, Note_on_c, 1, 67, 64
2, 618, Note_on_c, 1, 67, 0
2, 618, Note_on_c, 1, 69, 64
2, 624, Note_on_c, 1, 69, 0
2, 624, Note_on_c, 1, 67, 64
2, 630, Note_on_c, 1, 67, 0
2, 630, Note_on_c, 1, 69, 64
2, 636, Note_on_c, 1, 69, 0
2, 636, Note_on_c, 1, 67, 64
2, 642, Note_on_c, 1, 67, 0
2, 642, Note_on_c, 1, 69, 64
2, 648, Note_on_c, 1, 69, 0
2, 648, Note_on_c, 1, 66, 64
2, 660, Note_on_c, 1, 66, 0
2, 660, Note_on_c, 1, 64, 64
2, 672, Note_on_c, 1, 64, 0
2, 672, Note_on_c, 1, 76, 64
2, 931, Note_on_c, 1, 76, 0
2, 936, Note_on_c, 1, 73, 64
2, 959, Note_on_c, 1, 73, 0
2, 960, Note_on_c, 1, 75, 64
2, 966, Note_on_c, 1, 75, 0
2, 966, Note_on_c, 1, 76, 64
2, 972, Note_on_c, 1, 76, 0
2, 972, Note_on_c, 1, 75, 64
2, 978, Note_on_c, 1, 75, 0
2, 978, Note_on_c, 1, 76, 64
2, 984, Note_on_c, 1, 76, 0
2, 984, Note_on_c, 1, 75, 64
2, 990, Note_on_c, 1, 75, 0
2, 990, Note_on_c, 1, 76, 64
2, 996, Note_on_c, 1, 76, 0
2, 996, Note_on_c, 1, 75, 64
2, 1002, Note_on_c, 1, 75, 0
2, 1002, Note_on_c, 1, 76, 64
2, 1008, Note_on_c, 1, 76, 0
2, 1008, Note_on_c, 1, 75, 64
2, 1014, Note_on_c, 1, 75, 0
2, 1014, Note_on_c, 1, 76, 64
2, 1020, Note_on_c, 1, 76, 0
2, 1020, Note_on_c, 1, 75, 64
2, 1026, Note_on_c, 1, 75, 0
2, 1026, Note_on_c, 1, 76, 64
2, 1032, Note_on_c, 1, 76, 0
2, 1032, Note_on_c, 1, 75, 64
2, 1038, Note_on_c, 1, 75, 0
2, 1038, Note_on_c, 1, 76, 64
2, 1044, Note_on_c, 1, 76, 0
2, 1044, Note_on_c, 1, 75, 64
2, 1050, Note_on_c, 1, 75, 0
2, 1050, Note_on_c, 1, 76, 64
2, 1056, Note_on_c, 1, 76, 0
2, 1056, Note_on_c, 1, 75, 64
2, 1062, Note_on_c, 1, 75, 0
2, 1062, Note_on_c, 1, 76, 64
2, 1068, Note_on_c, 1, 76, 0
2, 1068, Note_on_c, 1, 75, 64
2, 1074, Note_on_c, 1, 75, 0
2, 1074, Note_on_c, 1, 76, 64
2, 1080, Note_on_c, 1, 76, 0
2, 1080, Note_on_c, 1, 75, 64
2, 1086, Note_on_c, 1, 75, 0
2, 1086, Note_on_c, 1, 76, 64
2, 1092, Note_on_c, 1, 76, 0
2, 1092, Note_on_c, 1, 75, 64
2, 1098, Note_on_c, 1, 75, 0
2, 1098, Note_on_c, 1, 76, 64
2, 1104, Note_on_c, 1, 76, 0
2, 1104, Note_on_c, 1, 75, 64
2, 1110, Note_on_c, 1, 75, 0
2, 1110, Note_on_c, 1, 76, 64
2, 1116, Note_on_c, 1, 76, 0
2, 1116, Note_on_c, 1, 75, 64
2, 1122, Note_on_c, 1, 75, 0
2, 1122, Note_on_c, 1, 76, 64
2, 1128, Note_on_c, 1, 76, 0
2, 1128, Note_on_c, 1, 75, 64
2, 1134, Note_on_c, 1, 75, 0
2, 1134, Note_on_c, 1, 76, 64
2, 1140, Note_on_c, 1, 76, 0
2, 1140, Note_on_c, 1, 75, 64
2, 1146, Note_on_c, 1, 75, 0
2, 1146, Note_on_c, 1, 76, 64
2, 1152, Note_on_c, 1, 76, 0
2, 1152, Note_on_c, 1, 76, 64
2, 1241, Note_on_c, 1, 76, 0
2, 1272, Note_on_c, 1, 76, 64
2, 1295, Note_on_c, 1, 76, 0
2, 1296, Note_on_c, 1, 78, 64
2, 1319, Note_on_c, 1, 78, 0
2, 1320, Note_on_c, 1, 79, 64
2, 1343, Note_on_c, 1, 79, 0
2, 1344, Note_on_c, 1, 72, 64
2, 1367, Note_on_c, 1, 72, 0
2, 1368, Note_on_c, 1, 71, 64
2, 1391, Note_on_c, 1, 71, 0
2, 1392, Note_on_c, 1, 69, 64
2, 1415, Note_on_c, 1, 69, 0
2, 1416, Note_on_c, 1, 79, 64
2, 1439, Note_on_c, 1, 79, 0
2, 1440, Note_on_c, 1, 79, 64
2, 1446, Note_on_c, 1, 79, 0
2, 1446, Note_on_c, 1, 78, 64
2, 1533, Note_on_c, 1, 78, 0
2, 1560, Note_on_c, 1, 74, 64
2, 1583, Note_on_c, 1, 74, 0
2, 1584, Note_on_c, 1, 76, 64
2, 1607, Note_on_c, 1, 76, 0
2, 1608, Note_on_c, 1, 78, 64
2, 1631, Note_on_c, 1, 78, 0
2, 1632, Note_on_c, 1, 71, 64
2, 1655, Note_on_c, 1, 71, 0
2, 1656, Note_on_c, 1, 69, 64
2, 1679, Note_on_c, 1, 69, 0
2, 1680, Note_on_c, 1, 67, 64
2, 1703, Note_on_c, 1, 67, 0
2, 1704, Note_on_c, 1, 77, 64
2, 1727, Note_on_c, 1, 77, 0
2, 1728, Note_on_c, 1, 76, 64
2, 1817, Note_on_c, 1, 76, 0
2, 1920, Note_on_c, 1, 81, 64
2, 2083, Note_on_c, 1, 81, 0
2, 2088, Note_on_c, 1, 80, 64
2, 2100, Note_on_c, 1, 80, 0
2, 2100, Note_on_c, 1, 78, 64
2, 2112, Note_on_c, 1, 78, 0
2, 2112, Note_on_c, 1, 80, 64
2, 2118, Note_on_c, 1, 80, 0
2, 2118, Note_on_c, 1, 81, 64
2, 2124, Note_on_c, 1, 81, 0
2, 2124, Note_on_c, 1, 80, 64
2, 2130, Note_on_c, 1, 80, 0
2, 2130, Note_on_c, 1, 81, 64
2, 2136, Note_on_c, 1, 81, 0
2, 2136, Note_on_c, 1, 80, 64
2, 2142, Note_on_c, 1, 80, 0
2, 2142, Note_on_c, 1, 81, 64
2, 2148, Note_on_c, 1, 81, 0
2, 2148, Note_on_c, 1, 80, 64
2, 2154, Note_on_c, 1, 80, 0
2, 2154, Note_on_c, 1, 81, 64
2, 2160, Note_on_c, 1, 81, 0
2, 2160, Note_on_c, 1, 80, 64
2, 2166, Note_on_c, 1, 80, 0
2, 2166, Note_on_c, 1, 81, 64
2, 2172, Note_on_c, 1, 81, 0
2, 2172, Note_on_c, 1, 80, 64
2, 2178, Note_on_c, 1, 80, 0
2, 2178, Note_on_c, 1, 81, 64
2, 2184, Note_on_c, 1, 81, 0
2, 2184, Note_on_c, 1, 80, 64
2, 2190, Note_on_c, 1, 80, 0
2, 2190, Note_on_c, 1, 81, 64
2, 2196, Note_on_c, 1, 81, 0
2, 2196, Note_on_c, 1, 80, 64
2, 2202, Note_on_c, 1, 80, 0
2, 2202, Note_on_c, 1, 81, 64
2, 2208, Note_on_c, 1, 81, 0
2, 2208, Note_on_c, 1, 80, 64
2, 2214, Note_on_c, 1, 80, 0
2, 2214, Note_on_c, 1, 81, 64
2, 2220, Note_on_c, 1, 81, 0
2, 2220, Note_on_c, 1, 80, 64
2, 2226, Note_on_c, 1, 80, 0
2, 2226, Note_on_c, 1, 81, 64
2, 2232, Note_on_c, 1, 81, 0
2, 2232, Note_on_c, 1, 80, 64
2, 2238, Note_on_c, 1, 80, 0
2, 2238, Note_on_c, 1, 81, 64
2, 2244, Note_on_c, 1, 81, 0
2, 2244, Note_on_c, 1, 80, 64
2, 2250, Note_on_c, 1, 80, 0
2, 2250, Note_on_c, 1, 81, 64
2, 2256, Note_on_c, 1, 81, 0
2, 2256, Note_on_c, 1, 80, 64
2, 2262, Note_on_c, 1, 80, 0
2, 2262, Note_on_c, 1, 81, 64
2, 2268, Note_on_c, 1, 81, 0
2, 2268, Note_on_c, 1, 80, 64
2, 2274, Note_on_c, 1, 80, 0
2, 2274, Note_on_c, 1, 81, 64
2, 2280, Note_on_c, 1, 81, 0
2, 2280, Note_on_c, 1, 80, 64
2, 2286, Note_on_c, 1, 80, 0
2, 2286, Note_on_c, 1, 81, 64
2, 2292, Note_on_c, 1, 81, 0
2, 2292, Note_on_c, 1, 80, 64
2, 2298, Note_on_c, 1, 80, 0
2, 2298, Note_on_c, 1, 81, 64
2, 2304, Note_on_c, 1, 81, 0
2, 2304, Note_on_c, 1, 81, 64
2, 2437, Note_on_c, 1, 81, 0
2, 2472, Note_on_c, 1, 76, 64
2, 2495, Note_on_c, 1, 76, 0
2, 2496, Note_on_c, 1, 69, 64
2, 2563, Note_on_c, 1, 69, 0
2, 2568, Note_on_c, 1, 72, 64
2, 2591, Note_on_c, 1, 72, 0
2, 2592, Note_on_c, 1, 72, 64
2, 2598, Note_on_c, 1, 72, 0
2, 2598, Note_on_c, 1, 71, 64
2, 2729, Note_on_c, 1, 71, 0
2, 2748, Note_on_c, 1, 62, 64
2, 2760, Note_on_c, 1, 62, 0
2, 2760, Note_on_c, 1, 60, 64
2, 2772, Note_on_c, 1, 60, 0
2, 2772, Note_on_c, 1, 62, 64
2, 2784, Note_on_c, 1, 62, 0
2, 2784, Note_on_c, 1, 64, 64
2, 2851, Note_on_c, 1, 64, 0
2, 2856, Note_on_c, 1, 59, 64
2, 2879, Note_on_c, 1, 59, 0
2, 2880, Note_on_c, 1, 60, 64
2, 2886, Note_on_c, 1, 60, 0
2, 2886, Note_on_c, 1, 62, 64
2, 2892, Note_on_c, 1, 62, 0
2, 2892, Note_on_c, 1, 60, 64
2, 2898, Note_on_c, 1, 60, 0
2, 2898, Note_on_c, 1, 62, 64
2, 2904, Note_on_c, 1, 62, 0
2, 2904, Note_on_c, 1, 60, 64
2, 2910, Note_on_c, 1, 60, 0
2, 2910, Note_on_c, 1, 62, 64
2, 2916, Note_on_c, 1, 62, 0
2, 2916, Note_on_c, 1, 60, 64
2, 2922, Note_on_c, 1, 60, 0
2, 2922, Note_on_c, 1, 62, 64
2, 2928, Note_on_c, 1, 62, 0
2, 2928, Note_on_c, 1, 60, 64
2, 2934, Note_on_c, 1, 60, 0
2, 2934, Note_on_c, 1, 62, 64
2, 2940, Note_on_c, 1, 62, 0
2, 2940, Note_on_c, 1, 60, 64
2, 2946, Note_on_c, 1, 60, 0
2, 2946, Note_on_c, 1, 62, 64
2, 2952, Note_on_c, 1, 62, 0
2, 2952, Note_on_c, 1, 60, 64
2, 2964, Note_on_c, 1, 60, 0
2, 2964, Note_on_c, 1, 57, 64
2, 2976, Note_on_c, 1, 57, 0
2, 2976, Note_on_c, 1, 69, 64
2, 3235, Note_on_c, 1, 69, 0
2, 3240, Note_on_c, 1, 62, 64
2, 3263, Note_on_c, 1, 62, 0
2, 3264, Note_on_c, 1, 67, 64
2, 3523, Note_on_c, 1, 67, 0
2, 3528, Note_on_c, 1, 64, 64
2, 3551, Note_on_c, 1, 64, 0
2, 3552, Note_on_c, 1, 66, 64
2, 3811, Note_on_c, 1, 66, 0
2, 3816, Note_on_c, 1, 59, 64
2, 3839, Note_on_c, 1, 59, 0
2, 3840, Note_on_c, 1, 64, 64
2, 4099, Note_on_c, 1, 64, 0
2, 4104, Note_on_c, 1, 61, 64
2, 4127, Note_on_c, 1, 61, 0
2, 4128, Note_on_c, 1, 63, 64
2, 4134, Note_on_c, 1, 63, 0
2, 4134, Note_on_c, 1, 64, 64
2, 4140, Note_on_c, 1, 64, 0
2, 4140, Note_on_c, 1, 63, 64
2, 4146, Note_on_c, 1, 63, 0
2, 4146, Note_on_c, 1, 64, 64
2, 4152, Note_on_c, 1, 64, 0
2, 4152, Note_on_c, 1, 63, 64
2, 4158, Note_on_c, 1, 63, 0
2, 4158, Note_on_c, 1, 64, 64
2, 4164, Note_on_c, 1, 64, 0
2, 4164, Note_on_c, 1, 63, 64
2, 4170, Note_on_c, 1, 63, 0
2, 4170, Note_on_c, 1, 64, 64
2, 4176, Note_on_c, 1, 64, 0
2, 4176, Note_on_c, 1, 63, 64
2, 4182, Note_on_c, 1, 63, 0
2, 4182, Note_on_c, 1, 64, 64
2, 4188, Note_on_c, 1, 64, 0
2, 4188, Note_on_c, 1, 63, 64
2, 4194, Note_on_c, 1, 63, 0
2, 4194, Note_on_c, 1, 64, 64
2, 4200, Note_on_c, 1, 64, 0
2, 4200, Note_on_c, 1, 63, 64
2, 4206, Note_on_c, 1, 63, 0
2, 4206, Note_on_c, 1, 64, 64
2, 4212, Note_on_c, 1, 64, 0
2, 4212, Note_on_c, 1, 63, 64
2, 4218, Note_on_c, 1, 63, 0
2, 4218, Note_on_c, 1, 64, 64
2, 4224, Note_on_c, 1, 64, 0
2, 4224, Note_on_c, 1, 63, 64
2, 4230, Note_on_c, 1, 63, 0
2, 4230, Note_on_c, 1, 64, 64
2, 4236, Note_on_c, 1, 64, 0
2, 4236, Note_on_c, 1, 63, 64
2, 4242, Note_on_c, 1, 63, 0
2, 4242, Note_on_c, 1, 64, 64
2, 4248, Note_on_c, 1, 64, 0
2, 4248, Note_on_c, 1, 63, 64
2, 4254, Note_on_c, 1, 63, 0
2, 4254, Note_on_c, 1, 64, 64
2, 4260, Note_on_c, 1, 64, 0
2, 4260, Note_on_c, 1, 63, 64
2, 4266, Note_on_c, 1, 63, 0
2, 4266, Note_on_c, 1, 64, 64
2, 4272, Note_on_c, 1, 64, 0
2, 4272, Note_on_c, 1, 63, 64
2, 4278, Note_on_c, 1, 63, 0
2, 4278, Note_on_c, 1, 64, 64
2, 4284, Note_on_c, 1, 64, 0
2, 4284, Note_on_c, 1, 63, 64
2, 4290, Note_on_c, 1, 63, 0
2, 4290, Note_on_c, 1, 64, 64
2, 4296, Note_on_c, 1, 64, 0
2, 4296, Note_on_c, 1, 63, 64
2, 4302, Note_on_c, 1, 63, 0
2, 4302, Note_on_c, 1, 64, 64
2, 4308, Note_on_c, 1, 64, 0
2, 4308, Note_on_c, 1, 63, 64
2, 4314, Note_on_c, 1, 63, 0
2, 4314, Note_on_c, 1, 64, 64
2, 4320, Note_on_c, 1, 64, 0
2, 4320, Note_on_c, 1, 64, 64
2, 4409, Note_on_c, 1, 64, 0
2, 4488, Note_on_c, 1, 83, 64
2, 4511, Note_on_c, 1, 83, 0
2, 4512, Note_on_c, 1, 76, 64
2, 4579, Note_on_c, 1, 76, 0
2, 4584, Note_on_c, 1, 79, 64
2, 4607, Note_on_c, 1, 79, 0
2, 4608, Note_on_c, 1, 79, 64
2, 4614, Note_on_c, 1, 79, 0
2, 4614, Note_on_c, 1, 78, 64
2, 4745, Note_on_c, 1, 78, 0
2, 4764, Note_on_c, 1, 69, 64
2, 4776, Note_on_c, 1, 69, 0
2, 4776, Note_on_c, 1, 67, 64
2, 4788, Note_on_c, 1, 67, 0
2, 4788, Note_on_c, 1, 69, 64
2, 4800, Note_on_c, 1, 69, 0
2, 4800, Note_on_c, 1, 71, 64
2, 4867, Note_on_c, 1, 71, 0
2, 4872, Note_on_c, 1, 66, 64
2, 4895, Note_on_c, 1, 66, 0
2, 4896, Note_on_c, 1, 67, 64
2, 4902, Note_on_c, 1, 67, 0
2, 4902, Note_on_c, 1, 69, 64
2, 4908, Note_on_c, 1, 69, 0
2, 4908, Note_on_c, 1, 67, 64
2, 4914, Note_on_c, 1, 67, 0
2, 4914, Note_on_c, 1, 69, 64
2, 4920, Note_on_c, 1, 69, 0
2, 4920, Note_on_c, 1, 67, 64
2, 4926, Note_on_c, 1, 67, 0
2, 4926, Note_on_c, 1, 69, 64
2, 4932, Note_on_c, 1, 69, 0
2, 4932, Note_on_c, 1, 67, 64
2, 4938, Note_on_c, 1, 67, 0
2, 4938, Note_on_c, 1, 69, 64
2, 4944, Note_on_c, 1, 69, 0
2, 4944, Note_on_c, 1, 67, 64
2, 4950, Note_on_c, 1, 67, 0
2, 4950, Note_on_c, 1, 69, 64
2, 4956, Note_on_c, 1, 69, 0
2, 4956, Note_on_c, 1, 67, 64
2, 4962, Note_on_c, 1, 67, 0
2, 4962, Note_on_c, 1, 69, 64
2, 4968, Note_on_c, 1, 69, 0
2, 4968, Note_on_c, 1, 66, 64
2, 4980, Note_on_c, 1, 66, 0
2, 4980, Note_on_c, 1, 64, 64
2, 4992, Note_on_c, 1, 64, 0
2, 4992, Note_on_c, 1, 72, 64
2, 5251, Note_on_c, 1, 72, 0
2, 5256, Note_on_c, 1, 71, 64
2, 5268, Note_on_c, 1, 71, 0
2, 5268, Note_on_c, 1, 69, 64
2, 5280, Note_on_c, 1, 69, 0
2, 5280, Note_on_c, 1, 71, 64
2, 5539, Note_on_c, 1, 71, 0
2, 5544, Note_on_c, 1, 76, 64
2, 5567, Note_on_c, 1, 76, 0
2, 5568, Note_on_c, 1, 69, 64
2, 5574, Note_on_c, 1, 69, 0
2, 5574, Note_on_c, 1, 71, 64
2, 5580, Note_on_c, 1, 71, 0
2, 5580, Note_on_c, 1, 69, 64
2, 5586, Note_on_c, 1, 69, 0
2, 5586, Note_on_c, 1, 71, 64
2, 5592, Note_on_c, 1, 71, 0
2, 5592, Note_on_c, 1, 69, 64
2, 5598, Note_on_c, 1, 69, 0
2, 5598, Note_on_c, 1, 71, 64
2, 5604, Note_on_c, 1, 71, 0
2, 5604, Note_on_c, 1, 69, 64
2, 5610, Note_on_c, 1, 69, 0
2, 5610, Note_on_c, 1, 71, 64
2, 5616, Note_on_c, 1, 71, 0
2, 5616, Note_on_c, 1, 69, 64
2, 5622, Note_on_c, 1, 69, 0
2, 5622, Note_on_c, 1, 71, 64
2, 5628, Note_on_c, 1, 71, 0
2, 5628, Note_on_c, 1, 69, 64
2, 5634, Note_on_c, 1, 69, 0
2, 5634, Note_on_c, 1, 71, 64
2, 5640, Note_on_c, 1, 71, 0
2, 5640, Note_on_c, 1, 69, 64
2, 5646, Note_on_c, 1, 69, 0
2, 5646, Note_on_c, 1, 71, 64
2, 5652, Note_on_c, 1, 71, 0
2, 5652, Note_on_c, 1, 69, 64
2, 5658, Note_on_c, 1, 69, 0
2, 5658, Note_on_c, 1, 71, 64
2, 5664, Note_on_c, 1, 71, 0
2, 5664, Note_on_c, 1, 69, 64
2, 5670, Note_on_c, 1, 69, 0
2, 5670, Note_on_c, 1, 71, 64
2, 5676, Note_on_c, 1, 71, 0
2, 5676, Note_on_c, 1, 69, 64
2, 5682, Note_on_c, 1, 69, 0
2, 5682, Note_on_c, 1, 71, 64
2, 5688, Note_on_c, 1, 71, 0
2, 5688, Note_on_c, 1, 67, 64
2, 5700, Note_on_c, 1, 67, 0
2, 5700, Note_on_c, 1, 69, 64
2, 5712, Note_on_c, 1, 69, 0
2, 5712, Note_on_c, 1, 71, 64
2, 6025, Note_on_c, 1, 71, 0
2, 6025, End_track
3, 0, Start_track
3, 0, MIDI_port, 0
3, 0, Title_t, "Clavier (RH)"
3, 0, Program_c, 0, 6
3, 0, Control_c, 0, 7, 127
3, 744, Note_on_c, 0, 83, 64
3, 767, Note_on_c, 0, 83, 0
3, 768, Note_on_c, 0, 76, 64
3, 835, Note_on_c, 0, 76, 0
3, 840, Note_on_c, 0, 79, 64
3, 863, Note_on_c, 0, 79, 0
3, 864, Note_on_c, 0, 79, 64
3, 876, Note_on_c, 0, 79, 0
3, 876, Note_on_c, 0, 78, 64
3, 1005, Note_on_c, 0, 78, 0
3, 1020, Note_on_c, 0, 69, 64
3, 1032, Note_on_c, 0, 69, 0
3, 1032, Note_on_c, 0, 67, 64
3, 1044, Note_on_c, 0, 67, 0
3, 1044, Note_on_c, 0, 69, 64
3, 1056, Note_on_c, 0, 69, 0
3, 1056, Note_on_c, 0, 71, 64
3, 1123, Note_on_c, 0, 71, 0
3, 1128, Note_on_c, 0, 66, 64
3, 1151, Note_on_c, 0, 66, 0
3, 1152, Note_on_c, 0, 67, 64
3, 1158, Note_on_c, 0, 67, 0
3, 1158, Note_on_c, 0, 69, 64
3, 1164, Note_on_c, 0, 69, 0
3, 1164, Note_on_c, 0, 67, 64
3, 1170, Note_on_c, 0, 67, 0
3, 1170, Note_on_c, 0, 69, 64
3, 1176, Note_on_c, 0, 69, 0
3, 1176, Note_on_c, 0, 67, 64
3, 1182, Note_on_c, 0, 67, 0
3, 1182, Note_on_c, 0, 69, 64
3, 1188, Note_on_c, 0, 69, 0
3, 1188, Note_on_c, 0, 67, 64
3, 1194, Note_on_c, 0, 67, 0
3, 1194, Note_on_c, 0, 69, 64
3, 1200, Note_on_c, 0, 69, 0
3, 1200, Note_on_c, 0, 67, 64
3, 1206, Note_on_c, 0, 67, 0
3, 1206, Note_on_c, 0, 69, 64
3, 1212, Note_on_c, 0, 69, 0
3, 1212, Note_on_c, 0, 67, 64
3, 1218, Note_on_c, 0, 67, 0
3, 1218, Note_on_c, 0, 69, 64
3, 1224, Note_on_c, 0, 69, 0
3, 1224, Note_on_c, 0, 66, 64
3, 1236, Note_on_c, 0, 66, 0
3, 1236, Note_on_c, 0, 64, 64
3, 1248, Note_on_c, 0, 64, 0
3, 1248, Note_on_c, 0, 76, 64
3, 1507, Note_on_c, 0, 76, 0
3, 1512, Note_on_c, 0, 69, 64
3, 1535, Note_on_c, 0, 69, 0
3, 1536, Note_on_c, 0, 69, 64
3, 1548, Note_on_c, 0, 69, 0
3, 1548, Note_on_c, 0, 74, 64
3, 1721, Note_on_c, 0, 74, 0
3, 1728, Note_on_c, 0, 74, 64
3, 1795, Note_on_c, 0, 74, 0
3, 1800, Note_on_c, 0, 72, 64
3, 1812, Note_on_c, 0, 72, 0
3, 1812, Note_on_c, 0, 71, 64
3, 1824, Note_on_c, 0, 71, 0
3, 1824, Note_on_c, 0, 72, 64
3, 1891, Note_on_c, 0, 72, 0
3, 1896, Note_on_c, 0, 76, 64
3, 1919, Note_on_c, 0, 76, 0
3, 1920, Note_on_c, 0, 69, 64
3, 1987, Note_on_c, 0, 69, 0
3, 1992, Note_on_c, 0, 72, 64
3, 2015, Note_on_c, 0, 72, 0
3, 2016, Note_on_c, 0, 71, 64
3, 2149, Note_on_c, 0, 71, 0
3, 2172, Note_on_c, 0, 62, 64
3, 2184, Note_on_c, 0, 62, 0
3, 2184, Note_on_c, 0, 60, 64
3, 2196, Note_on_c, 0, 60, 0
3, 2196, Note_on_c, 0, 62, 64
3, 2208, Note_on_c, 0, 62, 0
3, 2208, Note_on_c, 0, 64, 64
3, 2275, Note_on_c, 0, 64, 0
3, 2280, Note_on_c, 0, 59, 64
3, 2303, Note_on_c, 0, 59, 0
3, 2304, Note_on_c, 0, 60, 64
3, 2310, Note_on_c, 0, 60, 0
3, 2310, Note_on_c, 0, 62, 64
3, 2316, Note_on_c, 0, 62, 0
3, 2316, Note_on_c, 0, 60, 64
3, 2322, Note_on_c, 0, 60, 0
3, 2322, Note_on_c, 0, 62, 64
3, 2328, Note_on_c, 0, 62, 0
3, 2328, Note_on_c, 0, 60, 64
3, 2334, Note_on_c, 0, 60, 0
3, 2334, Note_on_c, 0, 62, 64
3, 2340, Note_on_c, 0, 62, 0
3, 2340, Note_on_c, 0, 60, 64
3, 2346, Note_on_c, 0, 60, 0
3, 2346, Note_on_c, 0, 62, 64
3, 2352, Note_on_c, 0, 62, 0
3, 2352, Note_on_c, 0, 60, 64
3, 2358, Note_on_c, 0, 60, 0
3, 2358, Note_on_c, 0, 62, 64
3, 2364, Note_on_c, 0, 62, 0
3, 2364, Note_on_c, 0, 60, 64
3, 2370, Note_on_c, 0, 60, 0
3, 2370, Note_on_c, 0, 62, 64
3, 2376, Note_on_c, 0, 62, 0
3, 2376, Note_on_c, 0, 59, 64
3, 2388, Note_on_c, 0, 59, 0
3, 2388, Note_on_c, 0, 57, 64
3, 2400, Note_on_c, 0, 57, 0
3, 2400, Note_on_c, 0, 69, 64
3, 2577, Note_on_c, 0, 69, 0
3, 2592, Note_on_c, 0, 69, 64
3, 2659, Note_on_c, 0, 69, 0
3, 2664, Note_on_c, 0, 66, 64
3, 2687, Note_on_c, 0, 66, 0
3, 2688, Note_on_c, 0, 68, 64
3, 2700, Note_on_c, 0, 68, 0
3, 2700, Note_on_c, 0, 69, 64
3, 2712, Note_on_c, 0, 69, 0
3, 2712, Note_on_c, 0, 68, 64
3, 2867, Note_on_c, 0, 68, 0
3, 2880, Note_on_c, 0, 69, 64
3, 2904, Note_on_c, 0, 64, 64
3, 2927, Note_on_c, 0, 64, 0
3, 2928, Note_on_c, 0, 62, 64
3, 2951, Note_on_c, 0, 62, 0
3, 2952, Note_on_c, 0, 64, 64
3, 2975, Note_on_c, 0, 64, 0
3, 2976, Note_on_c, 0, 69, 0
3, 3000, Note_on_c, 0, 72, 64
3, 3023, Note_on_c, 0, 72, 0
3, 3024, Note_on_c, 0, 74, 64
3, 3047, Note_on_c, 0, 74, 0
3, 3048, Note_on_c, 0, 76, 64
3, 3071, Note_on_c, 0, 76, 0
3, 3072, Note_on_c, 0, 69, 64
3, 3095, Note_on_c, 0, 69, 0
3, 3096, Note_on_c, 0, 67, 64
3, 3119, Note_on_c, 0, 67, 0
3, 3120, Note_on_c, 0, 66, 64
3, 3143, Note_on_c, 0, 66, 0
3, 3144, Note_on_c, 0, 72, 64
3, 3167, Note_on_c, 0, 72, 0
3, 3168, Note_on_c, 0, 71, 64
3, 3192, Note_on_c, 0, 62, 64
3, 3215, Note_on_c, 0, 62, 0
3, 3216, Note_on_c, 0, 60, 64
3, 3239, Note_on_c, 0, 60, 0
3, 3240, Note_on_c, 0, 62, 64
3, 3263, Note_on_c, 0, 62, 0
3, 3264, Note_on_c, 0, 71, 0
3, 3264, Note_on_c, 0, 71, 64
3, 3287, Note_on_c, 0, 71, 0
3, 3288, Note_on_c, 0, 71, 64
3, 3311, Note_on_c, 0, 71, 0
3, 3312, Note_on_c, 0, 72, 64
3, 3335, Note_on_c, 0, 72, 0
3, 3336, Note_on_c, 0, 74, 64
3, 3359, Note_on_c, 0, 74, 0
3, 3360, Note_on_c, 0, 67, 64
3, 3383, Note_on_c, 0, 67, 0
3, 3384, Note_on_c, 0, 66, 64
3, 3407, Note_on_c, 0, 66, 0
3, 3408, Note_on_c, 0, 64, 64
3, 3431, Note_on_c, 0, 64, 0
3, 3432, Note_on_c, 0, 71, 64
3, 3455, Note_on_c, 0, 71, 0
3, 3456, Note_on_c, 0, 69, 64
3, 3480, Note_on_c, 0, 60, 64
3, 3503, Note_on_c, 0, 60, 0
3, 3504, Note_on_c, 0, 59, 64
3, 3527, Note_on_c, 0, 59, 0
3, 3528, Note_on_c, 0, 60, 64
3, 3551, Note_on_c, 0, 60, 0
3, 3552, Note_on_c, 0, 69, 0
3, 3552, Note_on_c, 0, 69, 64
3, 3575, Note_on_c, 0, 69, 0
3, 3576, Note_on_c, 0, 69, 64
3, 3599, Note_on_c, 0, 69, 0
3, 3600, Note_on_c, 0, 71, 64
3, 3623, Note_on_c, 0, 71, 0
3, 3624, Note_on_c, 0, 72, 64
3, 3647, Note_on_c, 0, 72, 0
3, 3648, Note_on_c, 0, 66, 64
3, 3671, Note_on_c, 0, 66, 0
3, 3672, Note_on_c, 0, 64, 64
3, 3695, Note_on_c, 0, 64, 0
3, 3696, Note_on_c, 0, 63, 64
3, 3719, Note_on_c, 0, 63, 0
3, 3720, Note_on_c, 0, 69, 64
3, 3743, Note_on_c, 0, 69, 0
3, 3744, Note_on_c, 0, 67, 64
3, 3768, Note_on_c, 0, 59, 64
3, 3791, Note_on_c, 0, 59, 0
3, 3792, Note_on_c, 0, 61, 64
3, 3815, Note_on_c, 0, 61, 0
3, 3816, Note_on_c, 0, 63, 64
3, 3839, Note_on_c, 0, 63, 0
3, 3840, Note_on_c, 0, 67, 0
3, 3840, Note_on_c, 0, 64, 64
3, 3840, Note_on_c, 0, 67, 64
3, 3863, Note_on_c, 0, 67, 0
3, 3864, Note_on_c, 0, 71, 64
3, 3887, Note_on_c, 0, 71, 0
3, 3888, Note_on_c, 0, 64, 0
3, 3888, Note_on_c, 0, 76, 64
3, 3911, Note_on_c, 0, 76, 0
3, 3912, Note_on_c, 0, 78, 64
3, 3935, Note_on_c, 0, 78, 0
3, 3936, Note_on_c, 0, 79, 64
3, 3959, Note_on_c, 0, 79, 0
3, 3960, Note_on_c, 0, 78, 64
3, 3983, Note_on_c, 0, 78, 0
3, 3984, Note_on_c, 0, 76, 64
3, 4007, Note_on_c, 0, 76, 0
3, 4008, Note_on_c, 0, 83, 64
3, 4031, Note_on_c, 0, 83, 0
3, 4032, Note_on_c, 0, 81, 64
3, 4055, Note_on_c, 0, 81, 0
3, 4056, Note_on_c, 0, 83, 64
3, 4079, Note_on_c, 0, 83, 0
3, 4080, Note_on_c, 0, 84, 64
3, 4103, Note_on_c, 0, 84, 0
3, 4104, Note_on_c, 0, 81, 64
3, 4127, Note_on_c, 0, 81, 0
3, 4128, Note_on_c, 0, 78, 64
3, 4140, Note_on_c, 0, 78, 0
3, 4140, Note_on_c, 0, 79, 64
3, 4152, Note_on_c, 0, 79, 0
3, 4152, Note_on_c, 0, 78, 64
3, 4269, Note_on_c, 0, 78, 0
3, 4272, Note_on_c, 0, 76, 64
3, 4295, Note_on_c, 0, 76, 0
3, 4296, Note_on_c, 0, 78, 64
3, 4319, Note_on_c, 0, 78, 0
3, 4320, Note_on_c, 0, 76, 64
3, 4343, Note_on_c, 0, 76, 0
3, 4344, Note_on_c, 0, 71, 64
3, 4367, Note_on_c, 0, 71, 0
3, 4368, Note_on_c, 0, 76, 64
3, 4391, Note_on_c, 0, 76, 0
3, 4392, Note_on_c, 0, 78, 64
3, 4415, Note_on_c, 0, 78, 0
3, 4416, Note_on_c, 0, 79, 64
3, 4439, Note_on_c, 0, 79, 0
3, 4440, Note_on_c, 0, 76, 64
3, 4463, Note_on_c, 0, 76, 0
3, 4464, Note_on_c, 0, 71, 64
3, 4487, Note_on_c, 0, 71, 0
3, 4488, Note_on_c, 0, 74, 64
3, 4511, Note_on_c, 0, 74, 0
3, 4512, Note_on_c, 0, 72, 64
3, 4535, Note_on_c, 0, 72, 0
3, 4536, Note_on_c, 0, 74, 64
3, 4559, Note_on_c, 0, 74, 0
3, 4560, Note_on_c, 0, 76, 64
3, 4583, Note_on_c, 0, 76, 0
3, 4584, Note_on_c, 0, 72, 64
3, 4607, Note_on_c, 0, 72, 0
3, 4608, Note_on_c, 0, 69, 64
3, 4631, Note_on_c, 0, 69, 0
3, 4632, Note_on_c, 0, 71, 64
3, 4655, Note_on_c, 0, 71, 0
3, 4656, Note_on_c, 0, 72, 64
3, 4679, Note_on_c, 0, 72, 0
3, 4680, Note_on_c, 0, 69, 64
3, 4703, Note_on_c, 0, 69, 0
3, 4704, Note_on_c, 0, 67, 64
3, 4716, Note_on_c, 0, 67, 0
3, 4716, Note_on_c, 0, 66, 64
3, 4794, Note_on_c, 0, 66, 0
3, 4800, Note_on_c, 0, 78, 64
3, 4919, Note_on_c, 0, 78, 0
3, 4920, Note_on_c, 0, 76, 64
3, 4943, Note_on_c, 0, 76, 0
3, 4944, Note_on_c, 0, 78, 64
3, 4967, Note_on_c, 0, 78, 0
3, 4968, Note_on_c, 0, 79, 64
3, 4991, Note_on_c, 0, 79, 0
3, 4992, Note_on_c, 0, 81, 64
3, 5015, Note_on_c, 0, 81, 0
3, 5016, Note_on_c, 0, 79, 64
3, 5039, Note_on_c, 0, 79, 0
3, 5040, Note_on_c, 0, 81, 64
3, 5063, Note_on_c, 0, 81, 0
3, 5064, Note_on_c, 0, 83, 64
3, 5087, Note_on_c, 0, 83, 0
3, 5088, Note_on_c, 0, 84, 64
3, 5155, Note_on_c, 0, 84, 0
3, 5160, Note_on_c, 0, 76, 64
3, 5183, Note_on_c, 0, 76, 0
3, 5184, Note_on_c, 0, 78, 64
3, 5207, Note_on_c, 0, 78, 0
3, 5208, Note_on_c, 0, 66, 64
3, 5208, Note_on_c, 0, 74, 64
3, 5231, Note_on_c, 0, 74, 0
3, 5232, Note_on_c, 0, 66, 0
3, 5232, Note_on_c, 0, 67, 64
3, 5232, Note_on_c, 0, 76, 64
3, 5255, Note_on_c, 0, 76, 0
3, 5256, Note_on_c, 0, 67, 0
3, 5256, Note_on_c, 0, 69, 64
3, 5256, Note_on_c, 0, 78, 64
3, 5279, Note_on_c, 0, 78, 0
3, 5280, Note_on_c, 0, 69, 0
3, 5280, Note_on_c, 0, 62, 64
3, 5280, Note_on_c, 0, 79, 64
3, 5303, Note_on_c, 0, 79, 0
3, 5304, Note_on_c, 0, 78, 64
3, 5327, Note_on_c, 0, 78, 0
3, 5328, Note_on_c, 0, 62, 64
3, 5328, Note_on_c, 0, 79, 64
3, 5351, Note_on_c, 0, 79, 0
3, 5352, Note_on_c, 0, 81, 64
3, 5375, Note_on_c, 0, 81, 0
3, 5376, Note_on_c, 0, 62, 0
3, 5376, Note_on_c, 0, 62, 0
3, 5376, Note_on_c, 0, 62, 64
3, 5376, Note_on_c, 0, 83, 64
3, 5424, Note_on_c, 0, 62, 0
3, 5443, Note_on_c, 0, 83, 0
3, 5448, Note_on_c, 0, 75, 64
3, 5471, Note_on_c, 0, 75, 0
3, 5472, Note_on_c, 0, 76, 64
3, 5495, Note_on_c, 0, 76, 0
3, 5496, Note_on_c, 0, 75, 64
3, 5519, Note_on_c, 0, 75, 0
3, 5520, Note_on_c, 0, 76, 64
3, 5543, Note_on_c, 0, 76, 0
3, 5544, Note_on_c, 0, 81, 64
3, 5567, Note_on_c, 0, 81, 0
3, 5568, Note_on_c, 0, 79, 64
3, 5591, Note_on_c, 0, 79, 0
3, 5592, Note_on_c, 0, 78, 64
3, 5615, Note_on_c, 0, 78, 0
3, 5616, Note_on_c, 0, 76, 64
3, 5639, Note_on_c, 0, 76, 0
3, 5640, Note_on_c, 0, 79, 64
3, 5663, Note_on_c, 0, 79, 0
3, 5664, Note_on_c, 0, 78, 64
3, 5687, Note_on_c, 0, 78, 0
3, 5688, Note_on_c, 0, 76, 64
3, 5711, Note_on_c, 0, 76, 0
3, 5712, Note_on_c, 0, 75, 64
3, 5735, Note_on_c, 0, 75, 0
3, 5736, Note_on_c, 0, 76, 64
3, 5759, Note_on_c, 0, 76, 0
3, 5760, Note_on_c, 0, 75, 64
3, 6025, Note_on_c, 0, 75, 0
3, 6025, End_track
4, 0, Start_track
4, 0, MIDI_port, 0
4, 0, Title_t, "Clavier (LH)"
4, 0, Program_c, 0, 6
4, 0, Control_c, 0, 7, 127
4, 0, Note_on_c, 0, 52, 64
4, 45, Note_on_c, 0, 52, 0
4, 48, Note_on_c, 0, 59, 64
4, 93, Note_on_c, 0, 59, 0
4, 96, Note_on_c, 0, 64, 64
4, 141, Note_on_c, 0, 64, 0
4, 144, Note_on_c, 0, 62, 64
4, 189, Note_on_c, 0, 62, 0
4, 192, Note_on_c, 0, 60, 64
4, 237, Note_on_c, 0, 60, 0
4, 240, Note_on_c, 0, 59, 64
4, 285, Note_on_c, 0, 59, 0
4, 288, Note_on_c, 0, 57, 64
4, 333, Note_on_c, 0, 57, 0
4, 336, Note_on_c, 0, 55, 64
4, 381, Note_on_c, 0, 55, 0
4, 384, Note_on_c, 0, 54, 64
4, 429, Note_on_c, 0, 54, 0
4, 432, Note_on_c, 0, 52, 64
4, 477, Note_on_c, 0, 52, 0
4, 480, Note_on_c, 0, 51, 64
4, 525, Note_on_c, 0, 51, 0
4, 528, Note_on_c, 0, 47, 64
4, 573, Note_on_c, 0, 47, 0
4, 576, Note_on_c, 0, 52, 64
4, 621, Note_on_c, 0, 52, 0
4, 624, Note_on_c, 0, 54, 64
4, 669, Note_on_c, 0, 54, 0
4, 672, Note_on_c, 0, 55, 64
4, 717, Note_on_c, 0, 55, 0
4, 720, Note_on_c, 0, 52, 64
4, 765, Note_on_c, 0, 52, 0
4, 768, Note_on_c, 0, 60, 64
4, 813, Note_on_c, 0, 60, 0
4, 816, Note_on_c, 0, 59, 64
4, 861, Note_on_c, 0, 59, 0
4, 864, Note_on_c, 0, 57, 64
4, 909, Note_on_c, 0, 57, 0
4, 912, Note_on_c, 0, 55, 64
4, 957, Note_on_c, 0, 55, 0
4, 960, Note_on_c, 0, 54, 64
4, 1005, Note_on_c, 0, 54, 0
4, 1008, Note_on_c, 0, 59, 64
4, 1053, Note_on_c, 0, 59, 0
4, 1056, Note_on_c, 0, 57, 64
4, 1101, Note_on_c, 0, 57, 0
4, 1104, Note_on_c, 0, 59, 64
4, 1149, Note_on_c, 0, 59, 0
4, 1152, Note_on_c, 0, 52, 64
4, 1197, Note_on_c, 0, 52, 0
4, 1200, Note_on_c, 0, 50, 64
4, 1245, Note_on_c, 0, 50, 0
4, 1248, Note_on_c, 0, 48, 64
4, 1293, Note_on_c, 0, 48, 0
4, 1296, Note_on_c, 0, 47, 64
4, 1341, Note_on_c, 0, 47, 0
4, 1344, Note_on_c, 0, 45, 64
4, 1389, Note_on_c, 0, 45, 0
4, 1392, Note_on_c, 0, 48, 64
4, 1437, Note_on_c, 0, 48, 0
4, 1440, Note_on_c, 0, 50, 64
4, 1485, Note_on_c, 0, 50, 0
4, 1488, Note_on_c, 0, 48, 64
4, 1533, Note_on_c, 0, 48, 0
4, 1536, Note_on_c, 0, 47, 64
4, 1581, Note_on_c, 0, 47, 0
4, 1584, Note_on_c, 0, 45, 64
4, 1629, Note_on_c, 0, 45, 0
4, 1632, Note_on_c, 0, 43, 64
4, 1677, Note_on_c, 0, 43, 0
4, 1680, Note_on_c, 0, 47, 64
4, 1725, Note_on_c, 0, 47, 0
4, 1728, Note_on_c, 0, 48, 64
4, 1773, Note_on_c, 0, 48, 0
4, 1776, Note_on_c, 0, 52, 64
4, 1821, Note_on_c, 0, 52, 0
4, 1824, Note_on_c, 0, 57, 64
4, 1869, Note_on_c, 0, 57, 0
4, 1872, Note_on_c, 0, 55, 64
4, 1917, Note_on_c, 0, 55, 0
4, 1920, Note_on_c, 0, 53, 64
4, 1965, Note_on_c, 0, 53, 0
4, 1968, Note_on_c, 0, 52, 64
4, 2013, Note_on_c, 0, 52, 0
4, 2016, Note_on_c, 0, 50, 64
4, 2061, Note_on_c, 0, 50, 0
4, 2064, Note_on_c, 0, 48, 64
4, 2109, Note_on_c, 0, 48, 0
4, 2112, Note_on_c, 0, 47, 64
4, 2157, Note_on_c, 0, 47, 0
4, 2160, Note_on_c, 0, 52, 64
4, 2205, Note_on_c, 0, 52, 0
4, 2208, Note_on_c, 0, 50, 64
4, 2253, Note_on_c, 0, 50, 0
4, 2256, Note_on_c, 0, 52, 64
4, 2301, Note_on_c, 0, 52, 0
4, 2304, Note_on_c, 0, 45, 64
4, 2349, Note_on_c, 0, 45, 0
4, 2352, Note_on_c, 0, 47, 64
4, 2397, Note_on_c, 0, 47, 0
4, 2400, Note_on_c, 0, 48, 64
4, 2445, Note_on_c, 0, 48, 0
4, 2448, Note_on_c, 0, 45, 64
4, 2493, Note_on_c, 0, 45, 0
4, 2496, Note_on_c, 0, 53, 64
4, 2541, Note_on_c, 0, 53, 0
4, 2544, Note_on_c, 0, 52, 64
4, 2589, Note_on_c, 0, 52, 0
4, 2592, Note_on_c, 0, 50, 64
4, 2637, Note_on_c, 0, 50, 0
4, 2640, Note_on_c, 0, 48, 64
4, 2685, Note_on_c, 0, 48, 0
4, 2688, Note_on_c, 0, 47, 64
4, 2733, Note_on_c, 0, 47, 0
4, 2736, Note_on_c, 0, 52, 64
4, 2781, Note_on_c, 0, 52, 0
4, 2784, Note_on_c, 0, 50, 64
4, 2829, Note_on_c, 0, 50, 0
4, 2832, Note_on_c, 0, 52, 64
4, 2877, Note_on_c, 0, 52, 0
4, 2880, Note_on_c, 0, 45, 64
4, 2947, Note_on_c, 0, 45, 0
4, 2952, Note_on_c, 0, 60, 64
4, 2975, Note_on_c, 0, 60, 0
4, 2976, Note_on_c, 0, 54, 64
4, 2976, Note_on_c, 0, 57, 64
4, 3021, Note_on_c, 0, 57, 0
4, 3024, Note_on_c, 0, 59, 64
4, 3047, Note_on_c, 0, 59, 0
4, 3048, Note_on_c, 0, 60, 64
4, 3071, Note_on_c, 0, 60, 0
4, 3072, Note_on_c, 0, 54, 0
4, 3072, Note_on_c, 0, 62, 64
4, 3072, Note_on_c, 0, 54, 64
4, 3139, Note_on_c, 0, 54, 0
4, 3144, Note_on_c, 0, 50, 64
4, 3167, Note_on_c, 0, 50, 0
4, 3168, Note_on_c, 0, 62, 0
4, 3168, Note_on_c, 0, 43, 64
4, 3235, Note_on_c, 0, 43, 0
4, 3240, Note_on_c, 0, 59, 64
4, 3263, Note_on_c, 0, 59, 0
4, 3264, Note_on_c, 0, 52, 64
4, 3264, Note_on_c, 0, 55, 64
4, 3309, Note_on_c, 0, 55, 0
4, 3312, Note_on_c, 0, 57, 64
4, 3335, Note_on_c, 0, 57, 0
4, 3336, Note_on_c, 0, 59, 64
4, 3359, Note_on_c, 0, 59, 0
4, 3360, Note_on_c, 0, 52, 0
4, 3360, Note_on_c, 0, 60, 64
4, 3405, Note_on_c, 0, 60, 0
4, 3408, Note_on_c, 0, 48, 64
4, 3453, Note_on_c, 0, 48, 0
4, 3456, Note_on_c, 0, 42, 64
4, 3523, Note_on_c, 0, 42, 0
4, 3528, Note_on_c, 0, 57, 64
4, 3551, Note_on_c, 0, 57, 0
4, 3552, Note_on_c, 0, 51, 64
4, 3552, Note_on_c, 0, 54, 64
4, 3597, Note_on_c, 0, 54, 0
4, 3600, Note_on_c, 0, 55, 64
4, 3623, Note_on_c, 0, 55, 0
4, 3624, Note_on_c, 0, 57, 64
4, 3647, Note_on_c, 0, 57, 0
4, 3648, Note_on_c, 0, 51, 0
4, 3648, Note_on_c, 0, 51, 64
4, 3715, Note_on_c, 0, 51, 0
4, 3720, Note_on_c, 0, 47, 64
4, 3743, Note_on_c, 0, 47, 0
4, 3744, Note_on_c, 0, 40, 64
4, 3833, Note_on_c, 0, 40, 0
4, 3912, Note_on_c, 0, 59, 64
4, 3935, Note_on_c, 0, 59, 0
4, 3936, Note_on_c, 0, 52, 64
4, 4003, Note_on_c, 0, 52, 0
4, 4008, Note_on_c, 0, 55, 64
4, 4031, Note_on_c, 0, 55, 0
4, 4032, Note_on_c, 0, 55, 64
4, 4044, Note_on_c, 0, 55, 0
4, 4044, Note_on_c, 0, 54, 64
4, 4173, Note_on_c, 0, 54, 0
4, 4188, Note_on_c, 0, 45, 64
4, 4200, Note_on_c, 0, 45, 0
4, 4200, Note_on_c, 0, 43, 64
4, 4212, Note_on_c, 0, 43, 0
4, 4212, Note_on_c, 0, 45, 64
4, 4224, Note_on_c, 0, 45, 0
4, 4224, Note_on_c, 0, 47, 64
4, 4291, Note_on_c, 0, 47, 0
4, 4296, Note_on_c, 0, 42, 64
4, 4319, Note_on_c, 0, 42, 0
4, 4320, Note_on_c, 0, 43, 64
4, 4326, Note_on_c, 0, 43, 0
4, 4326, Note_on_c, 0, 45, 64
4, 4332, Note_on_c, 0, 45, 0
4, 4332, Note_on_c, 0, 43, 64
4, 4338, Note_on_c, 0, 43, 0
4, 4338, Note_on_c, 0, 45, 64
4, 4344, Note_on_c, 0, 45, 0
4, 4344, Note_on_c, 0, 43, 64
4, 4350, Note_on_c, 0, 43, 0
4, 4350, Note_on_c, 0, 45, 64
4, 4356, Note_on_c, 0, 45, 0
4, 4356, Note_on_c, 0, 43, 64
4, 4362, Note_on_c, 0, 43, 0
4, 4362, Note_on_c, 0, 45, 64
4, 4368, Note_on_c, 0, 45, 0
4, 4368, Note_on_c, 0, 43, 64
4, 4374, Note_on_c, 0, 43, 0
4, 4374, Note_on_c, 0, 45, 64
4, 4380, Note_on_c, 0, 45, 0
4, 4380, Note_on_c, 0, 43, 64
4, 4386, Note_on_c, 0, 43, 0
4, 4386, Note_on_c, 0, 45, 64
4, 4392, Note_on_c, 0, 45, 0
4, 4392, Note_on_c, 0, 42, 64
4, 4404, Note_on_c, 0, 42, 0
4, 4404, Note_on_c, 0, 40, 64
4, 4416, Note_on_c, 0, 40, 0
4, 4416, Note_on_c, 0, 52, 64
4, 4464, Note_on_c, 0, 55, 64
4, 4487, Note_on_c, 0, 55, 0
4, 4488, Note_on_c, 0, 54, 64
4, 4511, Note_on_c, 0, 54, 0
4, 4512, Note_on_c, 0, 55, 64
4, 4579, Note_on_c, 0, 55, 0
4, 4584, Note_on_c, 0, 52, 64
4, 4607, Note_on_c, 0, 52, 0
4, 4608, Note_on_c, 0, 52, 0
4, 4608, Note_on_c, 0, 52, 64
4, 4608, Note_on_c, 0, 60, 64
4, 4631, Note_on_c, 0, 60, 0
4, 4632, Note_on_c, 0, 59, 64
4, 4655, Note_on_c, 0, 59, 0
4, 4656, Note_on_c, 0, 57, 64
4, 4680, Note_on_c, 0, 52, 0
4, 4701, Note_on_c, 0, 57, 0
4, 4704, Note_on_c, 0, 51, 64
4, 4752, Note_on_c, 0, 59, 64
4, 4797, Note_on_c, 0, 59, 0
4, 4800, Note_on_c, 0, 47, 64
4, 4845, Note_on_c, 0, 47, 0
4, 4848, Note_on_c, 0, 59, 64
4, 4893, Note_on_c, 0, 59, 0
4, 4896, Note_on_c, 0, 51, 0
4, 4896, Note_on_c, 0, 52, 64
4, 4896, Note_on_c, 0, 59, 64
4, 4919, Note_on_c, 0, 59, 0
4, 4920, Note_on_c, 0, 67, 64
4, 4943, Note_on_c, 0, 67, 0
4, 4944, Note_on_c, 0, 69, 64
4, 4967, Note_on_c, 0, 69, 0
4, 4968, Note_on_c, 0, 71, 64
4, 4991, Note_on_c, 0, 71, 0
4, 4992, Note_on_c, 0, 52, 0
4, 5016, Note_on_c, 0, 52, 64
4, 5039, Note_on_c, 0, 52, 0
4, 5040, Note_on_c, 0, 54, 64
4, 5063, Note_on_c, 0, 54, 0
4, 5064, Note_on_c, 0, 55, 64
4, 5087, Note_on_c, 0, 55, 0
4, 5088, Note_on_c, 0, 57, 64
4, 5111, Note_on_c, 0, 57, 0
4, 5112, Note_on_c, 0, 59, 64
4, 5135, Note_on_c, 0, 59, 0
4, 5136, Note_on_c, 0, 60, 64
4, 5159, Note_on_c, 0, 60, 0
4, 5160, Note_on_c, 0, 57, 64
4, 5183, Note_on_c, 0, 57, 0
4, 5184, Note_on_c, 0, 50, 64
4, 5273, Note_on_c, 0, 50, 0
4, 5304, Note_on_c, 0, 50, 64
4, 5327, Note_on_c, 0, 50, 0
4, 5328, Note_on_c, 0, 52, 64
4, 5351, Note_on_c, 0, 52, 0
4, 5352, Note_on_c, 0, 54, 64
4, 5375, Note_on_c, 0, 54, 0
4, 5376, Note_on_c, 0, 55, 64
4, 5399, Note_on_c, 0, 55, 0
4, 5400, Note_on_c, 0, 57, 64
4, 5423, Note_on_c, 0, 57, 0
4, 5424, Note_on_c, 0, 59, 64
4, 5447, Note_on_c, 0, 59, 0
4, 5448, Note_on_c, 0, 55, 64
4, 5471, Note_on_c, 0, 55, 0
4, 5472, Note_on_c, 0, 48, 64
4, 5517, Note_on_c, 0, 48, 0
4, 5520, Note_on_c, 0, 50, 64
4, 5532, Note_on_c, 0, 50, 0
4, 5532, Note_on_c, 0, 48, 64
4, 5544, Note_on_c, 0, 48, 0
4, 5544, Note_on_c, 0, 47, 64
4, 5556, Note_on_c, 0, 47, 0
4, 5556, Note_on_c, 0, 48, 64
4, 5568, Note_on_c, 0, 48, 0
4, 5568, Note_on_c, 0, 48, 64
4, 5574, Note_on_c, 0, 48, 0
4, 5574, Note_on_c, 0, 50, 64
4, 5580, Note_on_c, 0, 50, 0
4, 5580, Note_on_c, 0, 48, 64
4, 5586, Note_on_c, 0, 48, 0
4, 5586, Note_on_c, 0, 50, 64
4, 5592, Note_on_c, 0, 50, 0
4, 5592, Note_on_c, 0, 48, 64
4, 5598, Note_on_c, 0, 48, 0
4, 5598, Note_on_c, 0, 50, 64
4, 5604, Note_on_c, 0, 50, 0
4, 5604, Note_on_c, 0, 48, 64
4, 5610, Note_on_c, 0, 48, 0
4, 5610, Note_on_c, 0, 50, 64
4, 5616, Note_on_c, 0, 50, 0
4, 5616, Note_on_c, 0, 48, 64
4, 5622, Note_on_c, 0, 48, 0
4, 5622, Note_on_c, 0, 50, 64
4, 5628, Note_on_c, 0, 50, 0
4, 5628, Note_on_c, 0, 48, 64
4, 5634, Note_on_c, 0, 48, 0
4, 5634, Note_on_c, 0, 50, 64
4, 5640, Note_on_c, 0, 50, 0
4, 5640, Note_on_c, 0, 48, 64
4, 5646, Note_on_c, 0, 48, 0
4, 5646, Note_on_c, 0, 50, 64
4, 5652, Note_on_c, 0, 50, 0
4, 5652, Note_on_c, 0, 48, 64
4, 5658, Note_on_c, 0, 48, 0
4, 5658, Note_on_c, 0, 50, 64
4, 5664, Note_on_c, 0, 50, 0
4, 5664, Note_on_c, 0, 48, 64
4, 5670, Note_on_c, 0, 48, 0
4, 5670, Note_on_c, 0, 50, 64
4, 5676, Note_on_c, 0, 50, 0
4, 5676, Note_on_c, 0, 48, 64
4, 5682, Note_on_c, 0, 48, 0
4, 5682, Note_on_c, 0, 50, 64
4, 5688, Note_on_c, 0, 50, 0
4, 5688, Note_on_c, 0, 48, 64
4, 5694, Note_on_c, 0, 48, 0
4, 5694, Note_on_c, 0, 50, 64
4, 5700, Note_on_c, 0, 50, 0
4, 5700, Note_on_c, 0, 48, 64
4, 5706, Note_on_c, 0, 48, 0
4, 5706, Note_on_c, 0, 50, 64
4, 5712, Note_on_c, 0, 50, 0
4, 5712, Note_on_c, 0, 47, 64
4, 5735, Note_on_c, 0, 47, 0
4, 5736, Note_on_c, 0, 48, 64
4, 5759, Note_on_c, 0, 48, 0
4, 5760, Note_on_c, 0, 47, 64
4, 6025, Note_on_c, 0, 47, 0
4, 6025, End_track
5, 0, Start_track
5, 0, MIDI_port, 0
5, 0, Title_t, "Sonata No. 6 en G mayor"
5, 0, End_track
6, 0, Start_track
6, 0, MIDI_port, 0
6, 0, Title_t, "para violin y clavicembalo"
6, 0, End_track
7, 0, Start_track
7, 0, MIDI_port, 0
7, 0, Title_t, "Segundo Movimiento: Largo"
7, 0, End_track
8, 0, Start_track
8, 0, MIDI_port, 0
8, 0, Title_t, "J. S. Bach (1685-1750)"
8, 0, End_track
9, 0, Start_track
9, 0, MIDI_port, 0
9, 0, Title_t, "Copyright Luis Gerardo Barajas"
9, 0, End_track
10, 0, Start_track
10, 0, MIDI_port, 0
10, 0, Title_t, "*** Bach Keeps RuLiNg!!!"
10, 0, End_track
0, 0, End_of_file
