0, 0, Header, 1, 11, 96
1, 0, Start_track
1, 0, Sequencer_specific, 3, 0, 0, 65
1, 0, Time_signature, 4, 2, 24, 8
1, 0, Key_signature, -4, "major"
1, 0, Tempo, 666667
1, 0, End_track
2, 0, Start_track
2, 0, MIDI_port, 0
2, 0, Title_t, "Violin"
2, 0, Program_c, 1, 40
2, 0, Control_c, 1, 7, 127
2, 0, Note_on_c, 1, 77, 64
2, 177, Note_on_c, 1, 77, 0
2, 192, Note_on_c, 1, 79, 64
2, 369, Note_on_c, 1, 79, 0
2, 384, Note_on_c, 1, 80, 64
2, 429, Note_on_c, 1, 80, 0
2, 432, Note_on_c, 1, 79, 64
2, 455, Note_on_c, 1, 79, 0
2, 456, Note_on_c, 1, 77, 64
2, 479, Note_on_c, 1, 77, 0
2, 480, Note_on_c, 1, 76, 64
2, 525, Note_on_c, 1, 76, 0
2, 528, Note_on_c, 1, 79, 64
2, 573, Note_on_c, 1, 79, 0
2, 576, Note_on_c, 1, 72, 64
2, 665, Note_on_c, 1, 72, 0
2, 672, Note_on_c, 1, 84, 64
2, 813, Note_on_c, 1, 84, 0
2, 816, Note_on_c, 1, 82, 64
2, 839, Note_on_c, 1, 82, 0
2, 840, Note_on_c, 1, 80, 64
2, 863, Note_on_c, 1, 80, 0
2, 864, Note_on_c, 1, 79, 64
2, 909, Note_on_c, 1, 79, 0
2, 912, Note_on_c, 1, 82, 64
2, 957, Note_on_c, 1, 82, 0
2, 960, Note_on_c, 1, 76, 64
2, 1005, Note_on_c, 1, 76, 0
2, 1008, Note_on_c, 1, 72, 64
2, 1053, Note_on_c, 1, 72, 0
2, 1056, Note_on_c, 1, 77, 64
2, 1175, Note_on_c, 1, 77, 0
2, 1176, Note_on_c, 1, 80, 64
2, 1199, Note_on_c, 1, 80, 0
2, 1200, Note_on_c, 1, 79, 64
2, 1223, Note_on_c, 1, 79, 0
2, 1224, Note_on_c, 1, 77, 64
2, 1247, Note_on_c, 1, 77, 0
2, 1248, Note_on_c, 1, 76, 64
2, 1271, Note_on_c, 1, 76, 0
2, 1272, Note_on_c, 1, 77, 64
2, 1295, Note_on_c, 1, 77, 0
2, 1296, Note_on_c, 1, 74, 64
2, 1319, Note_on_c, 1, 74, 0
2, 1320, Note_on_c, 1, 76, 64
2, 1343, Note_on_c, 1, 76, 0
2, 1344, Note_on_c, 1, 77, 64
2, 1367, Note_on_c, 1, 77, 0
2, 1368, Note_on_c, 1, 79, 64
2, 1391, Note_on_c, 1, 79, 0
2, 1392, Note_on_c, 1, 77, 64
2, 1415, Note_on_c, 1, 77, 0
2, 1416, Note_on_c, 1, 75, 64
2, 1439, Note_on_c, 1, 75, 0
2, 1440, Note_on_c, 1, 74, 64
2, 1463, Note_on_c, 1, 74, 0
2, 1464, Note_on_c, 1, 75, 64
2, 1487, Note_on_c, 1, 75, 0
2, 1488, Note_on_c, 1, 72, 64
2, 1511, Note_on_c, 1, 72, 0
2, 1512, Note_on_c, 1, 74, 64
2, 1535, Note_on_c, 1, 74, 0
2, 1536, Note_on_c, 1, 75, 64
2, 1559, Note_on_c, 1, 75, 0
2, 1560, Note_on_c, 1, 77, 64
2, 1583, Note_on_c, 1, 77, 0
2, 1584, Note_on_c, 1, 79, 64
2, 1607, Note_on_c, 1, 79, 0
2, 1608, Note_on_c, 1, 75, 64
2, 1631, Note_on_c, 1, 75, 0
2, 1632, Note_on_c, 1, 72, 64
2, 1751, Note_on_c, 1, 72, 0
2, 1752, Note_on_c, 1, 75, 64
2, 1775, Note_on_c, 1, 75, 0
2, 1776, Note_on_c, 1, 74, 64
2, 1799, Note_on_c, 1, 74, 0
2, 1800, Note_on_c, 1, 72, 64
2, 1823, Note_on_c, 1, 72, 0
2, 1824, Note_on_c, 1, 71, 64
2, 1847, Note_on_c, 1, 71, 0
2, 1848, Note_on_c, 1, 72, 64
2, 1871, Note_on_c, 1, 72, 0
2, 1872, Note_on_c, 1, 69, 64
2, 1895, Note_on_c, 1, 69, 0
2, 1896, Note_on_c, 1, 71, 64
2, 1919, Note_on_c, 1, 71, 0
2, 1920, Note_on_c, 1, 72, 64
2, 1943, Note_on_c, 1, 72, 0
2, 1944, Note_on_c, 1, 67, 64
2, 1967, Note_on_c, 1, 67, 0
2, 1968, Note_on_c, 1, 65, 64
2, 1991, Note_on_c, 1, 65, 0
2, 1992, Note_on_c, 1, 63, 64
2, 2015, Note_on_c, 1, 63, 0
2, 2016, Note_on_c, 1, 62, 64
2, 2039, Note_on_c, 1, 62, 0
2, 2040, Note_on_c, 1, 63, 64
2, 2063, Note_on_c, 1, 63, 0
2, 2064, Note_on_c, 1, 60, 64
2, 2087, Note_on_c, 1, 60, 0
2, 2088, Note_on_c, 1, 62, 64
2, 2111, Note_on_c, 1, 62, 0
2, 2112, Note_on_c, 1, 63, 64
2, 2157, Note_on_c, 1, 63, 0
2, 2160, Note_on_c, 1, 72, 64
2, 2183, Note_on_c, 1, 72, 0
2, 2184, Note_on_c, 1, 74, 64
2, 2207, Note_on_c, 1, 74, 0
2, 2208, Note_on_c, 1, 75, 64
2, 2253, Note_on_c, 1, 75, 0
2, 2256, Note_on_c, 1, 77, 64
2, 2279, Note_on_c, 1, 77, 0
2, 2280, Note_on_c, 1, 79, 64
2, 2303, Note_on_c, 1, 79, 0
2, 2304, Note_on_c, 1, 80, 64
2, 2327, Note_on_c, 1, 80, 0
2, 2328, Note_on_c, 1, 82, 64
2, 2351, Note_on_c, 1, 82, 0
2, 2352, Note_on_c, 1, 80, 64
2, 2375, Note_on_c, 1, 80, 0
2, 2376, Note_on_c, 1, 79, 64
2, 2399, Note_on_c, 1, 79, 0
2, 2400, Note_on_c, 1, 77, 64
2, 2423, Note_on_c, 1, 77, 0
2, 2424, Note_on_c, 1, 79, 64
2, 2447, Note_on_c, 1, 79, 0
2, 2448, Note_on_c, 1, 75, 64
2, 2471, Note_on_c, 1, 75, 0
2, 2472, Note_on_c, 1, 77, 64
2, 2495, Note_on_c, 1, 77, 0
2, 2496, Note_on_c, 1, 79, 64
2, 2519, Note_on_c, 1, 79, 0
2, 2520, Note_on_c, 1, 80, 64
2, 2543, Note_on_c, 1, 80, 0
2, 2544, Note_on_c, 1, 79, 64
2, 2567, Note_on_c, 1, 79, 0
2, 2568, Note_on_c, 1, 77, 64
2, 2591, Note_on_c, 1, 77, 0
2, 2592, Note_on_c, 1, 75, 64
2, 2615, Note_on_c, 1, 75, 0
2, 2616, Note_on_c, 1, 77, 64
2, 2639, Note_on_c, 1, 77, 0
2, 2640, Note_on_c, 1, 74, 64
2, 2663, Note_on_c, 1, 74, 0
2, 2664, Note_on_c, 1, 75, 64
2, 2687, Note_on_c, 1, 75, 0
2, 2688, Note_on_c, 1, 77, 64
2, 2711, Note_on_c, 1, 77, 0
2, 2712, Note_on_c, 1, 79, 64
2, 2735, Note_on_c, 1, 79, 0
2, 2736, Note_on_c, 1, 77, 64
2, 2759, Note_on_c, 1, 77, 0
2, 2760, Note_on_c, 1, 75, 64
2, 2783, Note_on_c, 1, 75, 0
2, 2784, Note_on_c, 1, 74, 64
2, 2807, Note_on_c, 1, 74, 0
2, 2808, Note_on_c, 1, 75, 64
2, 2831, Note_on_c, 1, 75, 0
2, 2832, Note_on_c, 1, 72, 64
2, 2855, Note_on_c, 1, 72, 0
2, 2856, Note_on_c, 1, 74, 64
2, 2879, Note_on_c, 1, 74, 0
2, 2880, Note_on_c, 1, 75, 64
2, 2925, Note_on_c, 1, 75, 0
2, 2928, Note_on_c, 1, 84, 64
2, 3017, Note_on_c, 1, 84, 0
2, 3024, Note_on_c, 1, 75, 64
2, 3069, Note_on_c, 1, 75, 0
2, 3072, Note_on_c, 1, 73, 64
2, 3117, Note_on_c, 1, 73, 0
2, 3120, Note_on_c, 1, 79, 64
2, 3143, Note_on_c, 1, 79, 0
2, 3144, Note_on_c, 1, 80, 64
2, 3167, Note_on_c, 1, 80, 0
2, 3168, Note_on_c, 1, 82, 64
2, 3213, Note_on_c, 1, 82, 0
2, 3216, Note_on_c, 1, 73, 64
2, 3261, Note_on_c, 1, 73, 0
2, 3264, Note_on_c, 1, 72, 64
2, 3309, Note_on_c, 1, 72, 0
2, 3312, Note_on_c, 1, 80, 64
2, 3401, Note_on_c, 1, 80, 0
2, 3408, Note_on_c, 1, 72, 64
2, 3453, Note_on_c, 1, 72, 0
2, 3456, Note_on_c, 1, 70, 64
2, 3501, Note_on_c, 1, 70, 0
2, 3504, Note_on_c, 1, 76, 64
2, 3527, Note_on_c, 1, 76, 0
2, 3528, Note_on_c, 1, 77, 64
2, 3551, Note_on_c, 1, 77, 0
2, 3552, Note_on_c, 1, 79, 64
2, 3597, Note_on_c, 1, 79, 0
2, 3600, Note_on_c, 1, 70, 64
2, 3645, Note_on_c, 1, 70, 0
2, 3648, Note_on_c, 1, 68, 64
2, 3671, Note_on_c, 1, 68, 0
2, 3672, Note_on_c, 1, 73, 64
2, 3695, Note_on_c, 1, 73, 0
2, 3696, Note_on_c, 1, 72, 64
2, 3719, Note_on_c, 1, 72, 0
2, 3720, Note_on_c, 1, 70, 64
2, 3743, Note_on_c, 1, 70, 0
2, 3744, Note_on_c, 1, 68, 64
2, 3767, Note_on_c, 1, 68, 0
2, 3768, Note_on_c, 1, 70, 64
2, 3791, Note_on_c, 1, 70, 0
2, 3792, Note_on_c, 1, 67, 64
2, 3815, Note_on_c, 1, 67, 0
2, 3816, Note_on_c, 1, 68, 64
2, 3839, Note_on_c, 1, 68, 0
2, 3840, Note_on_c, 1, 70, 64
2, 3863, Note_on_c, 1, 70, 0
2, 3864, Note_on_c, 1, 72, 64
2, 3887, Note_on_c, 1, 72, 0
2, 3888, Note_on_c, 1, 70, 64
2, 3911, Note_on_c, 1, 70, 0
2, 3912, Note_on_c, 1, 68, 64
2, 3935, Note_on_c, 1, 68, 0
2, 3936, Note_on_c, 1, 67, 64
2, 3959, Note_on_c, 1, 67, 0
2, 3960, Note_on_c, 1, 68, 64
2, 3983, Note_on_c, 1, 68, 0
2, 3984, Note_on_c, 1, 65, 64
2, 4007, Note_on_c, 1, 65, 0
2, 4008, Note_on_c, 1, 67, 64
2, 4031, Note_on_c, 1, 67, 0
2, 4032, Note_on_c, 1, 60, 64
2, 4077, Note_on_c, 1, 60, 0
2, 4080, Note_on_c, 1, 73, 64
2, 4125, Note_on_c, 1, 73, 0
2, 4128, Note_on_c, 1, 72, 64
2, 4173, Note_on_c, 1, 72, 0
2, 4176, Note_on_c, 1, 79, 64
2, 4247, Note_on_c, 1, 79, 0
2, 4248, Note_on_c, 1, 82, 64
2, 4271, Note_on_c, 1, 82, 0
2, 4272, Note_on_c, 1, 80, 64
2, 4295, Note_on_c, 1, 80, 0
2, 4296, Note_on_c, 1, 79, 64
2, 4319, Note_on_c, 1, 79, 0
2, 4320, Note_on_c, 1, 77, 64
2, 4343, Note_on_c, 1, 77, 0
2, 4344, Note_on_c, 1, 76, 64
2, 4367, Note_on_c, 1, 76, 0
2, 4368, Note_on_c, 1, 74, 64
2, 4391, Note_on_c, 1, 74, 0
2, 4392, Note_on_c, 1, 72, 64
2, 4415, Note_on_c, 1, 72, 0
2, 4416, Note_on_c, 1, 77, 64
2, 4461, Note_on_c, 1, 77, 0
2, 4464, Note_on_c, 1, 79, 64
2, 4487, Note_on_c, 1, 79, 0
2, 4488, Note_on_c, 1, 80, 64
2, 4511, Note_on_c, 1, 80, 0
2, 4512, Note_on_c, 1, 82, 64
2, 4653, Note_on_c, 1, 82, 0
2, 4656, Note_on_c, 1, 76, 64
2, 4701, Note_on_c, 1, 76, 0
2, 4704, Note_on_c, 1, 77, 64
2, 4749, Note_on_c, 1, 77, 0
2, 4752, Note_on_c, 1, 73, 64
2, 4797, Note_on_c, 1, 73, 0
2, 4800, Note_on_c, 1, 67, 64
2, 4845, Note_on_c, 1, 67, 0
2, 4848, Note_on_c, 1, 68, 64
2, 4871, Note_on_c, 1, 68, 0
2, 4872, Note_on_c, 1, 70, 64
2, 4895, Note_on_c, 1, 70, 0
2, 4896, Note_on_c, 1, 72, 64
2, 5037, Note_on_c, 1, 72, 0
2, 5040, Note_on_c, 1, 80, 64
2, 5085, Note_on_c, 1, 80, 0
2, 5088, Note_on_c, 1, 70, 64
2, 5229, Note_on_c, 1, 70, 0
2, 5232, Note_on_c, 1, 79, 64
2, 5277, Note_on_c, 1, 79, 0
2, 5280, Note_on_c, 1, 68, 64
2, 5421, Note_on_c, 1, 68, 0
2, 5424, Note_on_c, 1, 77, 64
2, 5469, Note_on_c, 1, 77, 0
2, 5472, Note_on_c, 1, 67, 64
2, 5613, Note_on_c, 1, 67, 0
2, 5616, Note_on_c, 1, 75, 64
2, 5661, Note_on_c, 1, 75, 0
2, 5664, Note_on_c, 1, 65, 64
2, 5753, Note_on_c, 1, 65, 0
2, 5760, Note_on_c, 1, 65, 64
2, 5805, Note_on_c, 1, 65, 0
2, 5808, Note_on_c, 1, 73, 64
2, 5853, Note_on_c, 1, 73, 0
2, 5856, Note_on_c, 1, 63, 64
2, 5975, Note_on_c, 1, 63, 0
2, 5976, Note_on_c, 1, 63, 64
2, 5999, Note_on_c, 1, 63, 0
2, 6000, Note_on_c, 1, 68, 64
2, 6023, Note_on_c, 1, 68, 0
2, 6024, Note_on_c, 1, 72, 64
2, 6047, Note_on_c, 1, 72, 0
2, 6048, Note_on_c, 1, 70, 64
2, 6071, Note_on_c, 1, 70, 0
2, 6072, Note_on_c, 1, 63, 64
2, 6095, Note_on_c, 1, 63, 0
2, 6096, Note_on_c, 1, 70, 64
2, 6119, Note_on_c, 1, 70, 0
2, 6120, Note_on_c, 1, 73, 64
2, 6143, Note_on_c, 1, 73, 0
2, 6144, Note_on_c, 1, 72, 64
2, 6233, Note_on_c, 1, 72, 0
2, 6360, Note_on_c, 1, 68, 64
2, 6383, Note_on_c, 1, 68, 0
2, 6384, Note_on_c, 1, 72, 64
2, 6407, Note_on_c, 1, 72, 0
2, 6408, Note_on_c, 1, 75, 64
2, 6431, Note_on_c, 1, 75, 0
2, 6432, Note_on_c, 1, 73, 64
2, 6455, Note_on_c, 1, 73, 0
2, 6456, Note_on_c, 1, 68, 64
2, 6479, Note_on_c, 1, 68, 0
2, 6480, Note_on_c, 1, 73, 64
2, 6503, Note_on_c, 1, 73, 0
2, 6504, Note_on_c, 1, 77, 64
2, 6527, Note_on_c, 1, 77, 0
2, 6528, Note_on_c, 1, 75, 64
2, 6573, Note_on_c, 1, 75, 0
2, 6576, Note_on_c, 1, 80, 64
2, 6621, Note_on_c, 1, 80, 0
2, 6624, Note_on_c, 1, 77, 64
2, 6669, Note_on_c, 1, 77, 0
2, 6672, Note_on_c, 1, 82, 64
2, 6717, Note_on_c, 1, 82, 0
2, 6720, Note_on_c, 1, 79, 64
2, 6765, Note_on_c, 1, 79, 0
2, 6768, Note_on_c, 1, 75, 64
2, 6813, Note_on_c, 1, 75, 0
2, 6816, Note_on_c, 1, 80, 64
2, 6935, Note_on_c, 1, 80, 0
2, 6936, Note_on_c, 1, 84, 64
2, 6959, Note_on_c, 1, 84, 0
2, 6960, Note_on_c, 1, 82, 64
2, 6983, Note_on_c, 1, 82, 0
2, 6984, Note_on_c, 1, 80, 64
2, 7007, Note_on_c, 1, 80, 0
2, 7008, Note_on_c, 1, 79, 64
2, 7031, Note_on_c, 1, 79, 0
2, 7032, Note_on_c, 1, 80, 64
2, 7055, Note_on_c, 1, 80, 0
2, 7056, Note_on_c, 1, 77, 64
2, 7079, Note_on_c, 1, 77, 0
2, 7080, Note_on_c, 1, 79, 64
2, 7103, Note_on_c, 1, 79, 0
2, 7104, Note_on_c, 1, 80, 64
2, 7149, Note_on_c, 1, 80, 0
2, 7152, Note_on_c, 1, 68, 64
2, 7197, Note_on_c, 1, 68, 0
2, 7200, Note_on_c, 1, 80, 64
2, 7341, Note_on_c, 1, 80, 0
2, 7344, Note_on_c, 1, 79, 64
2, 7367, Note_on_c, 1, 79, 0
2, 7368, Note_on_c, 1, 77, 64
2, 7391, Note_on_c, 1, 77, 0
2, 7392, Note_on_c, 1, 76, 64
2, 7437, Note_on_c, 1, 76, 0
2, 7440, Note_on_c, 1, 79, 64
2, 7485, Note_on_c, 1, 79, 0
2, 7488, Note_on_c, 1, 72, 64
2, 7577, Note_on_c, 1, 72, 0
2, 7584, Note_on_c, 1, 77, 64
2, 7725, Note_on_c, 1, 77, 0
2, 7728, Note_on_c, 1, 75, 64
2, 7751, Note_on_c, 1, 75, 0
2, 7752, Note_on_c, 1, 73, 64
2, 7775, Note_on_c, 1, 73, 0
2, 7776, Note_on_c, 1, 72, 64
2, 7821, Note_on_c, 1, 72, 0
2, 7824, Note_on_c, 1, 75, 64
2, 7869, Note_on_c, 1, 75, 0
2, 7872, Note_on_c, 1, 68, 64
2, 7961, Note_on_c, 1, 68, 0
2, 7968, Note_on_c, 1, 73, 64
2, 8109, Note_on_c, 1, 73, 0
2, 8112, Note_on_c, 1, 72, 64
2, 8135, Note_on_c, 1, 72, 0
2, 8136, Note_on_c, 1, 70, 64
2, 8159, Note_on_c, 1, 70, 0
2, 8160, Note_on_c, 1, 75, 64
2, 8205, Note_on_c, 1, 75, 0
2, 8208, Note_on_c, 1, 73, 64
2, 8253, Note_on_c, 1, 73, 0
2, 8256, Note_on_c, 1, 72, 64
2, 8345, Note_on_c, 1, 72, 0
2, 8352, Note_on_c, 1, 70, 64
2, 8441, Note_on_c, 1, 70, 0
2, 8448, Note_on_c, 1, 68, 64
2, 8471, Note_on_c, 1, 68, 0
2, 8472, Note_on_c, 1, 72, 64
2, 8495, Note_on_c, 1, 72, 0
2, 8496, Note_on_c, 1, 74, 64
2, 8519, Note_on_c, 1, 74, 0
2, 8520, Note_on_c, 1, 76, 64
2, 8543, Note_on_c, 1, 76, 0
2, 8544, Note_on_c, 1, 77, 64
2, 8567, Note_on_c, 1, 77, 0
2, 8568, Note_on_c, 1, 79, 64
2, 8591, Note_on_c, 1, 79, 0
2, 8592, Note_on_c, 1, 80, 64
2, 8615, Note_on_c, 1, 80, 0
2, 8616, Note_on_c, 1, 77, 64
2, 8639, Note_on_c, 1, 77, 0
2, 8640, Note_on_c, 1, 71, 64
2, 8685, Note_on_c, 1, 71, 0
2, 8688, Note_on_c, 1, 67, 64
2, 8733, Note_on_c, 1, 67, 0
2, 8736, Note_on_c, 1, 79, 64
2, 8781, Note_on_c, 1, 79, 0
2, 8784, Note_on_c, 1, 77, 64
2, 8829, Note_on_c, 1, 77, 0
2, 8832, Note_on_c, 1, 75, 64
2, 8855, Note_on_c, 1, 75, 0
2, 8856, Note_on_c, 1, 74, 64
2, 8879, Note_on_c, 1, 74, 0
2, 8880, Note_on_c, 1, 72, 64
2, 8903, Note_on_c, 1, 72, 0
2, 8904, Note_on_c, 1, 80, 64
2, 8927, Note_on_c, 1, 80, 0
2, 8928, Note_on_c, 1, 79, 64
2, 8951, Note_on_c, 1, 79, 0
2, 8952, Note_on_c, 1, 77, 64
2, 8975, Note_on_c, 1, 77, 0
2, 8976, Note_on_c, 1, 75, 64
2, 8999, Note_on_c, 1, 75, 0
2, 9000, Note_on_c, 1, 74, 64
2, 9023, Note_on_c, 1, 74, 0
2, 9024, Note_on_c, 1, 72, 64
2, 9201, Note_on_c, 1, 72, 0
2, 9216, Note_on_c, 1, 77, 64
2, 9393, Note_on_c, 1, 77, 0
2, 9408, Note_on_c, 1, 79, 64
2, 9585, Note_on_c, 1, 79, 0
2, 9600, Note_on_c, 1, 80, 64
2, 9645, Note_on_c, 1, 80, 0
2, 9648, Note_on_c, 1, 79, 64
2, 9671, Note_on_c, 1, 79, 0
2, 9672, Note_on_c, 1, 77, 64
2, 9695, Note_on_c, 1, 77, 0
2, 9696, Note_on_c, 1, 76, 64
2, 9741, Note_on_c, 1, 76, 0
2, 9744, Note_on_c, 1, 79, 64
2, 9789, Note_on_c, 1, 79, 0
2, 9792, Note_on_c, 1, 72, 64
2, 9881, Note_on_c, 1, 72, 0
2, 9888, Note_on_c, 1, 84, 64
2, 9977, Note_on_c, 1, 84, 0
2, 9984, Note_on_c, 1, 84, 64
2, 10029, Note_on_c, 1, 84, 0
2, 10032, Note_on_c, 1, 82, 64
2, 10055, Note_on_c, 1, 82, 0
2, 10056, Note_on_c, 1, 80, 64
2, 10079, Note_on_c, 1, 80, 0
2, 10080, Note_on_c, 1, 79, 64
2, 10125, Note_on_c, 1, 79, 0
2, 10128, Note_on_c, 1, 82, 64
2, 10173, Note_on_c, 1, 82, 0
2, 10176, Note_on_c, 1, 76, 64
2, 10221, Note_on_c, 1, 76, 0
2, 10224, Note_on_c, 1, 72, 64
2, 10269, Note_on_c, 1, 72, 0
2, 10272, Note_on_c, 1, 77, 64
2, 10361, Note_on_c, 1, 77, 0
2, 10368, Note_on_c, 1, 77, 64
2, 10391, Note_on_c, 1, 77, 0
2, 10392, Note_on_c, 1, 80, 64
2, 10415, Note_on_c, 1, 80, 0
2, 10416, Note_on_c, 1, 79, 64
2, 10439, Note_on_c, 1, 79, 0
2, 10440, Note_on_c, 1, 77, 64
2, 10463, Note_on_c, 1, 77, 0
2, 10464, Note_on_c, 1, 76, 64
2, 10487, Note_on_c, 1, 76, 0
2, 10488, Note_on_c, 1, 77, 64
2, 10511, Note_on_c, 1, 77, 0
2, 10512, Note_on_c, 1, 74, 64
2, 10535, Note_on_c, 1, 74, 0
2, 10536, Note_on_c, 1, 76, 64
2, 10559, Note_on_c, 1, 76, 0
2, 10560, Note_on_c, 1, 77, 64
2, 10583, Note_on_c, 1, 77, 0
2, 10584, Note_on_c, 1, 79, 64
2, 10607, Note_on_c, 1, 79, 0
2, 10608, Note_on_c, 1, 77, 64
2, 10631, Note_on_c, 1, 77, 0
2, 10632, Note_on_c, 1, 75, 64
2, 10655, Note_on_c, 1, 75, 0
2, 10656, Note_on_c, 1, 74, 64
2, 10679, Note_on_c, 1, 74, 0
2, 10680, Note_on_c, 1, 75, 64
2, 10703, Note_on_c, 1, 75, 0
2, 10704, Note_on_c, 1, 72, 64
2, 10727, Note_on_c, 1, 72, 0
2, 10728, Note_on_c, 1, 74, 64
2, 10751, Note_on_c, 1, 74, 0
2, 10752, Note_on_c, 1, 75, 64
2, 10775, Note_on_c, 1, 75, 0
2, 10776, Note_on_c, 1, 77, 64
2, 10799, Note_on_c, 1, 77, 0
2, 10800, Note_on_c, 1, 79, 64
2, 10823, Note_on_c, 1, 79, 0
2, 10824, Note_on_c, 1, 75, 64
2, 10847, Note_on_c, 1, 75, 0
2, 10848, Note_on_c, 1, 72, 64
2, 10967, Note_on_c, 1, 72, 0
2, 10968, Note_on_c, 1, 75, 64
2, 10991, Note_on_c, 1, 75, 0
2, 10992, Note_on_c, 1, 74, 64
2, 11015, Note_on_c, 1, 74, 0
2, 11016, Note_on_c, 1, 72, 64
2, 11039, Note_on_c, 1, 72, 0
2, 11040, Note_on_c, 1, 71, 64
2, 11063, Note_on_c, 1, 71, 0
2, 11064, Note_on_c, 1, 72, 64
2, 11087, Note_on_c, 1, 72, 0
2, 11088, Note_on_c, 1, 69, 64
2, 11111, Note_on_c, 1, 69, 0
2, 11112, Note_on_c, 1, 71, 64
2, 11135, Note_on_c, 1, 71, 0
2, 11136, Note_on_c, 1, 72, 64
2, 11159, Note_on_c, 1, 72, 0
2, 11160, Note_on_c, 1, 67, 64
2, 11183, Note_on_c, 1, 67, 0
2, 11184, Note_on_c, 1, 65, 64
2, 11207, Note_on_c, 1, 65, 0
2, 11208, Note_on_c, 1, 63, 64
2, 11231, Note_on_c, 1, 63, 0
2, 11232, Note_on_c, 1, 62, 64
2, 11255, Note_on_c, 1, 62, 0
2, 11256, Note_on_c, 1, 63, 64
2, 11279, Note_on_c, 1, 63, 0
2, 11280, Note_on_c, 1, 60, 64
2, 11303, Note_on_c, 1, 60, 0
2, 11304, Note_on_c, 1, 62, 64
2, 11327, Note_on_c, 1, 62, 0
2, 11328, Note_on_c, 1, 63, 64
2, 11373, Note_on_c, 1, 63, 0
2, 11376, Note_on_c, 1, 72, 64
2, 11399, Note_on_c, 1, 72, 0
2, 11400, Note_on_c, 1, 74, 64
2, 11423, Note_on_c, 1, 74, 0
2, 11424, Note_on_c, 1, 75, 64
2, 11469, Note_on_c, 1, 75, 0
2, 11472, Note_on_c, 1, 77, 64
2, 11495, Note_on_c, 1, 77, 0
2, 11496, Note_on_c, 1, 79, 64
2, 11519, Note_on_c, 1, 79, 0
2, 11520, Note_on_c, 1, 80, 64
2, 11543, Note_on_c, 1, 80, 0
2, 11544, Note_on_c, 1, 82, 64
2, 11567, Note_on_c, 1, 82, 0
2, 11568, Note_on_c, 1, 80, 64
2, 11591, Note_on_c, 1, 80, 0
2, 11592, Note_on_c, 1, 79, 64
2, 11615, Note_on_c, 1, 79, 0
2, 11616, Note_on_c, 1, 77, 64
2, 11639, Note_on_c, 1, 77, 0
2, 11640, Note_on_c, 1, 79, 64
2, 11663, Note_on_c, 1, 79, 0
2, 11664, Note_on_c, 1, 75, 64
2, 11687, Note_on_c, 1, 75, 0
2, 11688, Note_on_c, 1, 77, 64
2, 11711, Note_on_c, 1, 77, 0
2, 11712, Note_on_c, 1, 79, 64
2, 11735, Note_on_c, 1, 79, 0
2, 11736, Note_on_c, 1, 80, 64
2, 11759, Note_on_c, 1, 80, 0
2, 11760, Note_on_c, 1, 79, 64
2, 11783, Note_on_c, 1, 79, 0
2, 11784, Note_on_c, 1, 77, 64
2, 11807, Note_on_c, 1, 77, 0
2, 11808, Note_on_c, 1, 75, 64
2, 11831, Note_on_c, 1, 75, 0
2, 11832, Note_on_c, 1, 77, 64
2, 11855, Note_on_c, 1, 77, 0
2, 11856, Note_on_c, 1, 74, 64
2, 11879, Note_on_c, 1, 74, 0
2, 11880, Note_on_c, 1, 75, 64
2, 11903, Note_on_c, 1, 75, 0
2, 11904, Note_on_c, 1, 77, 64
2, 11927, Note_on_c, 1, 77, 0
2, 11928, Note_on_c, 1, 79, 64
2, 11951, Note_on_c, 1, 79, 0
2, 11952, Note_on_c, 1, 77, 64
2, 11975, Note_on_c, 1, 77, 0
2, 11976, Note_on_c, 1, 75, 64
2, 11999, Note_on_c, 1, 75, 0
2, 12000, Note_on_c, 1, 74, 64
2, 12023, Note_on_c, 1, 74, 0
2, 12024, Note_on_c, 1, 75, 64
2, 12047, Note_on_c, 1, 75, 0
2, 12048, Note_on_c, 1, 72, 64
2, 12071, Note_on_c, 1, 72, 0
2, 12072, Note_on_c, 1, 74, 64
2, 12095, Note_on_c, 1, 74, 0
2, 12096, Note_on_c, 1, 75, 64
2, 12141, Note_on_c, 1, 75, 0
2, 12144, Note_on_c, 1, 84, 64
2, 12233, Note_on_c, 1, 84, 0
2, 12240, Note_on_c, 1, 75, 64
2, 12285, Note_on_c, 1, 75, 0
2, 12288, Note_on_c, 1, 73, 64
2, 12333, Note_on_c, 1, 73, 0
2, 12336, Note_on_c, 1, 79, 64
2, 12359, Note_on_c, 1, 79, 0
2, 12360, Note_on_c, 1, 80, 64
2, 12383, Note_on_c, 1, 80, 0
2, 12384, Note_on_c, 1, 82, 64
2, 12429, Note_on_c, 1, 82, 0
2, 12432, Note_on_c, 1, 73, 64
2, 12477, Note_on_c, 1, 73, 0
2, 12480, Note_on_c, 1, 72, 64
2, 12525, Note_on_c, 1, 72, 0
2, 12528, Note_on_c, 1, 80, 64
2, 12617, Note_on_c, 1, 80, 0
2, 12624, Note_on_c, 1, 72, 64
2, 12669, Note_on_c, 1, 72, 0
2, 12672, Note_on_c, 1, 70, 64
2, 12717, Note_on_c, 1, 70, 0
2, 12720, Note_on_c, 1, 76, 64
2, 12743, Note_on_c, 1, 76, 0
2, 12744, Note_on_c, 1, 77, 64
2, 12767, Note_on_c, 1, 77, 0
2, 12768, Note_on_c, 1, 79, 64
2, 12813, Note_on_c, 1, 79, 0
2, 12816, Note_on_c, 1, 70, 64
2, 12861, Note_on_c, 1, 70, 0
2, 12864, Note_on_c, 1, 68, 64
2, 12887, Note_on_c, 1, 68, 0
2, 12888, Note_on_c, 1, 73, 64
2, 12911, Note_on_c, 1, 73, 0
2, 12912, Note_on_c, 1, 72, 64
2, 12935, Note_on_c, 1, 72, 0
2, 12936, Note_on_c, 1, 70, 64
2, 12959, Note_on_c, 1, 70, 0
2, 12960, Note_on_c, 1, 68, 64
2, 12983, Note_on_c, 1, 68, 0
2, 12984, Note_on_c, 1, 70, 64
2, 13007, Note_on_c, 1, 70, 0
2, 13008, Note_on_c, 1, 67, 64
2, 13031, Note_on_c, 1, 67, 0
2, 13032, Note_on_c, 1, 68, 64
2, 13055, Note_on_c, 1, 68, 0
2, 13056, Note_on_c, 1, 70, 64
2, 13079, Note_on_c, 1, 70, 0
2, 13080, Note_on_c, 1, 72, 64
2, 13103, Note_on_c, 1, 72, 0
2, 13104, Note_on_c, 1, 70, 64
2, 13127, Note_on_c, 1, 70, 0
2, 13128, Note_on_c, 1, 68, 64
2, 13151, Note_on_c, 1, 68, 0
2, 13152, Note_on_c, 1, 67, 64
2, 13175, Note_on_c, 1, 67, 0
2, 13176, Note_on_c, 1, 68, 64
2, 13199, Note_on_c, 1, 68, 0
2, 13200, Note_on_c, 1, 65, 64
2, 13223, Note_on_c, 1, 65, 0
2, 13224, Note_on_c, 1, 67, 64
2, 13247, Note_on_c, 1, 67, 0
2, 13248, Note_on_c, 1, 60, 64
2, 13293, Note_on_c, 1, 60, 0
2, 13296, Note_on_c, 1, 73, 64
2, 13341, Note_on_c, 1, 73, 0
2, 13344, Note_on_c, 1, 72, 64
2, 13389, Note_on_c, 1, 72, 0
2, 13392, Note_on_c, 1, 79, 64
2, 13463, Note_on_c, 1, 79, 0
2, 13464, Note_on_c, 1, 82, 64
2, 13487, Note_on_c, 1, 82, 0
2, 13488, Note_on_c, 1, 80, 64
2, 13511, Note_on_c, 1, 80, 0
2, 13512, Note_on_c, 1, 79, 64
2, 13535, Note_on_c, 1, 79, 0
2, 13536, Note_on_c, 1, 77, 64
2, 13559, Note_on_c, 1, 77, 0
2, 13560, Note_on_c, 1, 76, 64
2, 13583, Note_on_c, 1, 76, 0
2, 13584, Note_on_c, 1, 74, 64
2, 13607, Note_on_c, 1, 74, 0
2, 13608, Note_on_c, 1, 72, 64
2, 13631, Note_on_c, 1, 72, 0
2, 13632, Note_on_c, 1, 77, 64
2, 13677, Note_on_c, 1, 77, 0
2, 13680, Note_on_c, 1, 79, 64
2, 13703, Note_on_c, 1, 79, 0
2, 13704, Note_on_c, 1, 80, 64
2, 13727, Note_on_c, 1, 80, 0
2, 13728, Note_on_c, 1, 82, 64
2, 13869, Note_on_c, 1, 82, 0
2, 13872, Note_on_c, 1, 76, 64
2, 13917, Note_on_c, 1, 76, 0
2, 13920, Note_on_c, 1, 77, 64
2, 13965, Note_on_c, 1, 77, 0
2, 13968, Note_on_c, 1, 73, 64
2, 14013, Note_on_c, 1, 73, 0
2, 14016, Note_on_c, 1, 67, 64
2, 14061, Note_on_c, 1, 67, 0
2, 14064, Note_on_c, 1, 68, 64
2, 14087, Note_on_c, 1, 68, 0
2, 14088, Note_on_c, 1, 70, 64
2, 14111, Note_on_c, 1, 70, 0
2, 14112, Note_on_c, 1, 72, 64
2, 14253, Note_on_c, 1, 72, 0
2, 14256, Note_on_c, 1, 80, 64
2, 14301, Note_on_c, 1, 80, 0
2, 14304, Note_on_c, 1, 70, 64
2, 14445, Note_on_c, 1, 70, 0
2, 14448, Note_on_c, 1, 79, 64
2, 14493, Note_on_c, 1, 79, 0
2, 14496, Note_on_c, 1, 68, 64
2, 14637, Note_on_c, 1, 68, 0
2, 14640, Note_on_c, 1, 77, 64
2, 14685, Note_on_c, 1, 77, 0
2, 14688, Note_on_c, 1, 67, 64
2, 14829, Note_on_c, 1, 67, 0
2, 14832, Note_on_c, 1, 75, 64
2, 14877, Note_on_c, 1, 75, 0
2, 14880, Note_on_c, 1, 65, 64
2, 14969, Note_on_c, 1, 65, 0
2, 14976, Note_on_c, 1, 65, 64
2, 15021, Note_on_c, 1, 65, 0
2, 15024, Note_on_c, 1, 73, 64
2, 15069, Note_on_c, 1, 73, 0
2, 15072, Note_on_c, 1, 63, 64
2, 15191, Note_on_c, 1, 63, 0
2, 15192, Note_on_c, 1, 63, 64
2, 15215, Note_on_c, 1, 63, 0
2, 15216, Note_on_c, 1, 68, 64
2, 15239, Note_on_c, 1, 68, 0
2, 15240, Note_on_c, 1, 72, 64
2, 15263, Note_on_c, 1, 72, 0
2, 15264, Note_on_c, 1, 70, 64
2, 15287, Note_on_c, 1, 70, 0
2, 15288, Note_on_c, 1, 63, 64
2, 15311, Note_on_c, 1, 63, 0
2, 15312, Note_on_c, 1, 70, 64
2, 15335, Note_on_c, 1, 70, 0
2, 15336, Note_on_c, 1, 73, 64
2, 15359, Note_on_c, 1, 73, 0
2, 15360, Note_on_c, 1, 72, 64
2, 15449, Note_on_c, 1, 72, 0
2, 15576, Note_on_c, 1, 68, 64
2, 15599, Note_on_c, 1, 68, 0
2, 15600, Note_on_c, 1, 72, 64
2, 15623, Note_on_c, 1, 72, 0
2, 15624, Note_on_c, 1, 75, 64
2, 15647, Note_on_c, 1, 75, 0
2, 15648, Note_on_c, 1, 73, 64
2, 15671, Note_on_c, 1, 73, 0
2, 15672, Note_on_c, 1, 68, 64
2, 15695, Note_on_c, 1, 68, 0
2, 15696, Note_on_c, 1, 73, 64
2, 15719, Note_on_c, 1, 73, 0
2, 15720, Note_on_c, 1, 77, 64
2, 15743, Note_on_c, 1, 77, 0
2, 15744, Note_on_c, 1, 75, 64
2, 15789, Note_on_c, 1, 75, 0
2, 15792, Note_on_c, 1, 80, 64
2, 15837, Note_on_c, 1, 80, 0
2, 15840, Note_on_c, 1, 77, 64
2, 15885, Note_on_c, 1, 77, 0
2, 15888, Note_on_c, 1, 82, 64
2, 15933, Note_on_c, 1, 82, 0
2, 15936, Note_on_c, 1, 79, 64
2, 15981, Note_on_c, 1, 79, 0
2, 15984, Note_on_c, 1, 75, 64
2, 16029, Note_on_c, 1, 75, 0
2, 16032, Note_on_c, 1, 80, 64
2, 16151, Note_on_c, 1, 80, 0
2, 16152, Note_on_c, 1, 84, 64
2, 16175, Note_on_c, 1, 84, 0
2, 16176, Note_on_c, 1, 82, 64
2, 16199, Note_on_c, 1, 82, 0
2, 16200, Note_on_c, 1, 80, 64
2, 16223, Note_on_c, 1, 80, 0
2, 16224, Note_on_c, 1, 79, 64
2, 16247, Note_on_c, 1, 79, 0
2, 16248, Note_on_c, 1, 80, 64
2, 16271, Note_on_c, 1, 80, 0
2, 16272, Note_on_c, 1, 77, 64
2, 16295, Note_on_c, 1, 77, 0
2, 16296, Note_on_c, 1, 79, 64
2, 16319, Note_on_c, 1, 79, 0
2, 16320, Note_on_c, 1, 80, 64
2, 16365, Note_on_c, 1, 80, 0
2, 16368, Note_on_c, 1, 68, 64
2, 16413, Note_on_c, 1, 68, 0
2, 16416, Note_on_c, 1, 80, 64
2, 16557, Note_on_c, 1, 80, 0
2, 16560, Note_on_c, 1, 79, 64
2, 16583, Note_on_c, 1, 79, 0
2, 16584, Note_on_c, 1, 77, 64
2, 16607, Note_on_c, 1, 77, 0
2, 16608, Note_on_c, 1, 76, 64
2, 16653, Note_on_c, 1, 76, 0
2, 16656, Note_on_c, 1, 79, 64
2, 16701, Note_on_c, 1, 79, 0
2, 16704, Note_on_c, 1, 72, 64
2, 16793, Note_on_c, 1, 72, 0
2, 16800, Note_on_c, 1, 77, 64
2, 16941, Note_on_c, 1, 77, 0
2, 16944, Note_on_c, 1, 75, 64
2, 16967, Note_on_c, 1, 75, 0
2, 16968, Note_on_c, 1, 73, 64
2, 16991, Note_on_c, 1, 73, 0
2, 16992, Note_on_c, 1, 72, 64
2, 17037, Note_on_c, 1, 72, 0
2, 17040, Note_on_c, 1, 75, 64
2, 17085, Note_on_c, 1, 75, 0
2, 17088, Note_on_c, 1, 68, 64
2, 17177, Note_on_c, 1, 68, 0
2, 17184, Note_on_c, 1, 73, 64
2, 17325, Note_on_c, 1, 73, 0
2, 17328, Note_on_c, 1, 72, 64
2, 17351, Note_on_c, 1, 72, 0
2, 17352, Note_on_c, 1, 70, 64
2, 17375, Note_on_c, 1, 70, 0
2, 17376, Note_on_c, 1, 75, 64
2, 17421, Note_on_c, 1, 75, 0
2, 17424, Note_on_c, 1, 73, 64
2, 17469, Note_on_c, 1, 73, 0
2, 17472, Note_on_c, 1, 72, 64
2, 17561, Note_on_c, 1, 72, 0
2, 17568, Note_on_c, 1, 70, 64
2, 17657, Note_on_c, 1, 70, 0
2, 17664, Note_on_c, 1, 68, 64
2, 17687, Note_on_c, 1, 68, 0
2, 17688, Note_on_c, 1, 72, 64
2, 17711, Note_on_c, 1, 72, 0
2, 17712, Note_on_c, 1, 74, 64
2, 17735, Note_on_c, 1, 74, 0
2, 17736, Note_on_c, 1, 76, 64
2, 17759, Note_on_c, 1, 76, 0
2, 17760, Note_on_c, 1, 77, 64
2, 17783, Note_on_c, 1, 77, 0
2, 17784, Note_on_c, 1, 79, 64
2, 17807, Note_on_c, 1, 79, 0
2, 17808, Note_on_c, 1, 80, 64
2, 17831, Note_on_c, 1, 80, 0
2, 17832, Note_on_c, 1, 77, 64
2, 17855, Note_on_c, 1, 77, 0
2, 17856, Note_on_c, 1, 71, 64
2, 17901, Note_on_c, 1, 71, 0
2, 17904, Note_on_c, 1, 67, 64
2, 17949, Note_on_c, 1, 67, 0
2, 17952, Note_on_c, 1, 79, 64
2, 17997, Note_on_c, 1, 79, 0
2, 18000, Note_on_c, 1, 77, 64
2, 18045, Note_on_c, 1, 77, 0
2, 18048, Note_on_c, 1, 75, 64
2, 18071, Note_on_c, 1, 75, 0
2, 18072, Note_on_c, 1, 74, 64
2, 18095, Note_on_c, 1, 74, 0
2, 18096, Note_on_c, 1, 72, 64
2, 18119, Note_on_c, 1, 72, 0
2, 18120, Note_on_c, 1, 80, 64
2, 18143, Note_on_c, 1, 80, 0
2, 18144, Note_on_c, 1, 79, 64
2, 18167, Note_on_c, 1, 79, 0
2, 18168, Note_on_c, 1, 77, 64
2, 18191, Note_on_c, 1, 77, 0
2, 18192, Note_on_c, 1, 75, 64
2, 18215, Note_on_c, 1, 75, 0
2, 18216, Note_on_c, 1, 74, 64
2, 18239, Note_on_c, 1, 74, 0
2, 18240, Note_on_c, 1, 72, 64
2, 18417, Note_on_c, 1, 72, 0
2, 18432, Note_on_c, 1, 75, 64
2, 18455, Note_on_c, 1, 75, 0
2, 18456, Note_on_c, 1, 73, 64
2, 18479, Note_on_c, 1, 73, 0
2, 18480, Note_on_c, 1, 72, 64
2, 18503, Note_on_c, 1, 72, 0
2, 18504, Note_on_c, 1, 73, 64
2, 18527, Note_on_c, 1, 73, 0
2, 18528, Note_on_c, 1, 75, 64
2, 18551, Note_on_c, 1, 75, 0
2, 18552, Note_on_c, 1, 73, 64
2, 18575, Note_on_c, 1, 73, 0
2, 18576, Note_on_c, 1, 72, 64
2, 18599, Note_on_c, 1, 72, 0
2, 18600, Note_on_c, 1, 70, 64
2, 18623, Note_on_c, 1, 70, 0
2, 18624, Note_on_c, 1, 69, 64
2, 18669, Note_on_c, 1, 69, 0
2, 18672, Note_on_c, 1, 78, 64
2, 18761, Note_on_c, 1, 78, 0
2, 18768, Note_on_c, 1, 77, 64
2, 18813, Note_on_c, 1, 77, 0
2, 18816, Note_on_c, 1, 75, 64
2, 18839, Note_on_c, 1, 75, 0
2, 18840, Note_on_c, 1, 73, 64
2, 18863, Note_on_c, 1, 73, 0
2, 18864, Note_on_c, 1, 72, 64
2, 18887, Note_on_c, 1, 72, 0
2, 18888, Note_on_c, 1, 73, 64
2, 18911, Note_on_c, 1, 73, 0
2, 18912, Note_on_c, 1, 75, 64
2, 18935, Note_on_c, 1, 75, 0
2, 18936, Note_on_c, 1, 73, 64
2, 18959, Note_on_c, 1, 73, 0
2, 18960, Note_on_c, 1, 72, 64
2, 18983, Note_on_c, 1, 72, 0
2, 18984, Note_on_c, 1, 70, 64
2, 19007, Note_on_c, 1, 70, 0
2, 19008, Note_on_c, 1, 81, 64
2, 19053, Note_on_c, 1, 81, 0
2, 19056, Note_on_c, 1, 84, 64
2, 19101, Note_on_c, 1, 84, 0
2, 19152, Note_on_c, 1, 77, 64
2, 19197, Note_on_c, 1, 77, 0
2, 19200, Note_on_c, 1, 77, 64
2, 19248, Note_on_c, 1, 77, 0
2, 19248, Note_on_c, 1, 75, 64
2, 19293, Note_on_c, 1, 75, 0
2, 19344, Note_on_c, 1, 78, 64
2, 19389, Note_on_c, 1, 78, 0
2, 19392, Note_on_c, 1, 78, 64
2, 19440, Note_on_c, 1, 78, 0
2, 19440, Note_on_c, 1, 77, 64
2, 19485, Note_on_c, 1, 77, 0
2, 19536, Note_on_c, 1, 75, 64
2, 19581, Note_on_c, 1, 75, 0
2, 19584, Note_on_c, 1, 75, 64
2, 19632, Note_on_c, 1, 75, 0
2, 19632, Note_on_c, 1, 73, 64
2, 19677, Note_on_c, 1, 73, 0
2, 19728, Note_on_c, 1, 69, 64
2, 19773, Note_on_c, 1, 69, 0
2, 19776, Note_on_c, 1, 69, 64
2, 19824, Note_on_c, 1, 69, 0
2, 19824, Note_on_c, 1, 70, 64
2, 19869, Note_on_c, 1, 70, 0
2, 19920, Note_on_c, 1, 72, 64
2, 19965, Note_on_c, 1, 72, 0
2, 19968, Note_on_c, 1, 72, 64
2, 20013, Note_on_c, 1, 72, 0
2, 20016, Note_on_c, 1, 73, 64
2, 20061, Note_on_c, 1, 73, 0
2, 20112, Note_on_c, 1, 77, 64
2, 20157, Note_on_c, 1, 77, 0
2, 20160, Note_on_c, 1, 70, 64
2, 20227, Note_on_c, 1, 70, 0
2, 20232, Note_on_c, 1, 72, 64
2, 20255, Note_on_c, 1, 72, 0
2, 20256, Note_on_c, 1, 69, 64
2, 20323, Note_on_c, 1, 69, 0
2, 20328, Note_on_c, 1, 70, 64
2, 20351, Note_on_c, 1, 70, 0
2, 20352, Note_on_c, 1, 70, 64
2, 20375, Note_on_c, 1, 70, 0
2, 20376, Note_on_c, 1, 65, 64
2, 20399, Note_on_c, 1, 65, 0
2, 20400, Note_on_c, 1, 70, 64
2, 20423, Note_on_c, 1, 70, 0
2, 20424, Note_on_c, 1, 73, 64
2, 20447, Note_on_c, 1, 73, 0
2, 20448, Note_on_c, 1, 72, 64
2, 20471, Note_on_c, 1, 72, 0
2, 20472, Note_on_c, 1, 65, 64
2, 20495, Note_on_c, 1, 65, 0
2, 20496, Note_on_c, 1, 72, 64
2, 20519, Note_on_c, 1, 72, 0
2, 20520, Note_on_c, 1, 75, 64
2, 20543, Note_on_c, 1, 75, 0
2, 20544, Note_on_c, 1, 73, 64
2, 20633, Note_on_c, 1, 73, 0
2, 20760, Note_on_c, 1, 70, 64
2, 20783, Note_on_c, 1, 70, 0
2, 20784, Note_on_c, 1, 73, 64
2, 20807, Note_on_c, 1, 73, 0
2, 20808, Note_on_c, 1, 77, 64
2, 20831, Note_on_c, 1, 77, 0
2, 20832, Note_on_c, 1, 82, 64
2, 20855, Note_on_c, 1, 82, 0
2, 20856, Note_on_c, 1, 78, 64
2, 20879, Note_on_c, 1, 78, 0
2, 20880, Note_on_c, 1, 80, 64
2, 20903, Note_on_c, 1, 80, 0
2, 20904, Note_on_c, 1, 77, 64
2, 20927, Note_on_c, 1, 77, 0
2, 20928, Note_on_c, 1, 78, 64
2, 20973, Note_on_c, 1, 78, 0
2, 20976, Note_on_c, 1, 70, 64
2, 21021, Note_on_c, 1, 70, 0
2, 21024, Note_on_c, 1, 78, 64
2, 21143, Note_on_c, 1, 78, 0
2, 21144, Note_on_c, 1, 68, 64
2, 21167, Note_on_c, 1, 68, 0
2, 21168, Note_on_c, 1, 72, 64
2, 21191, Note_on_c, 1, 72, 0
2, 21192, Note_on_c, 1, 75, 64
2, 21215, Note_on_c, 1, 75, 0
2, 21216, Note_on_c, 1, 80, 64
2, 21239, Note_on_c, 1, 80, 0
2, 21240, Note_on_c, 1, 77, 64
2, 21263, Note_on_c, 1, 77, 0
2, 21264, Note_on_c, 1, 78, 64
2, 21287, Note_on_c, 1, 78, 0
2, 21288, Note_on_c, 1, 75, 64
2, 21311, Note_on_c, 1, 75, 0
2, 21312, Note_on_c, 1, 77, 64
2, 21379, Note_on_c, 1, 77, 0
2, 21384, Note_on_c, 1, 78, 64
2, 21396, Note_on_c, 1, 78, 0
2, 21396, Note_on_c, 1, 80, 64
2, 21408, Note_on_c, 1, 80, 0
2, 21408, Note_on_c, 1, 78, 64
2, 21431, Note_on_c, 1, 78, 0
2, 21432, Note_on_c, 1, 77, 64
2, 21455, Note_on_c, 1, 77, 0
2, 21456, Note_on_c, 1, 75, 64
2, 21479, Note_on_c, 1, 75, 0
2, 21480, Note_on_c, 1, 73, 64
2, 21503, Note_on_c, 1, 73, 0
2, 21504, Note_on_c, 1, 80, 64
2, 21977, Note_on_c, 1, 80, 0
2, 21984, Note_on_c, 1, 78, 64
2, 22161, Note_on_c, 1, 78, 0
2, 22176, Note_on_c, 1, 77, 64
2, 22361, Note_on_c, 1, 77, 0
2, 22368, Note_on_c, 1, 82, 64
2, 22487, Note_on_c, 1, 82, 0
2, 22488, Note_on_c, 1, 72, 64
2, 22511, Note_on_c, 1, 72, 0
2, 22512, Note_on_c, 1, 76, 64
2, 22535, Note_on_c, 1, 76, 0
2, 22536, Note_on_c, 1, 79, 64
2, 22559, Note_on_c, 1, 79, 0
2, 22560, Note_on_c, 1, 84, 64
2, 22583, Note_on_c, 1, 84, 0
2, 22584, Note_on_c, 1, 80, 64
2, 22607, Note_on_c, 1, 80, 0
2, 22608, Note_on_c, 1, 82, 64
2, 22631, Note_on_c, 1, 82, 0
2, 22632, Note_on_c, 1, 79, 64
2, 22655, Note_on_c, 1, 79, 0
2, 22656, Note_on_c, 1, 80, 64
2, 22679, Note_on_c, 1, 80, 0
2, 22680, Note_on_c, 1, 65, 64
2, 22703, Note_on_c, 1, 65, 0
2, 22704, Note_on_c, 1, 68, 64
2, 22727, Note_on_c, 1, 68, 0
2, 22728, Note_on_c, 1, 72, 64
2, 22751, Note_on_c, 1, 72, 0
2, 22752, Note_on_c, 1, 77, 64
2, 22775, Note_on_c, 1, 77, 0
2, 22776, Note_on_c, 1, 74, 64
2, 22799, Note_on_c, 1, 74, 0
2, 22800, Note_on_c, 1, 75, 64
2, 22823, Note_on_c, 1, 75, 0
2, 22824, Note_on_c, 1, 72, 64
2, 22847, Note_on_c, 1, 72, 0
2, 22848, Note_on_c, 1, 79, 64
2, 22893, Note_on_c, 1, 79, 0
2, 22896, Note_on_c, 1, 67, 64
2, 22941, Note_on_c, 1, 67, 0
2, 22944, Note_on_c, 1, 71, 64
2, 22989, Note_on_c, 1, 71, 0
2, 22992, Note_on_c, 1, 74, 64
2, 23063, Note_on_c, 1, 74, 0
2, 23064, Note_on_c, 1, 72, 64
2, 23087, Note_on_c, 1, 72, 0
2, 23088, Note_on_c, 1, 74, 64
2, 23111, Note_on_c, 1, 74, 0
2, 23112, Note_on_c, 1, 75, 64
2, 23135, Note_on_c, 1, 75, 0
2, 23136, Note_on_c, 1, 77, 64
2, 23159, Note_on_c, 1, 77, 0
2, 23160, Note_on_c, 1, 79, 64
2, 23183, Note_on_c, 1, 79, 0
2, 23184, Note_on_c, 1, 75, 64
2, 23207, Note_on_c, 1, 75, 0
2, 23208, Note_on_c, 1, 77, 64
2, 23231, Note_on_c, 1, 77, 0
2, 23232, Note_on_c, 1, 79, 64
2, 23255, Note_on_c, 1, 79, 0
2, 23256, Note_on_c, 1, 80, 64
2, 23279, Note_on_c, 1, 80, 0
2, 23280, Note_on_c, 1, 79, 64
2, 23303, Note_on_c, 1, 79, 0
2, 23304, Note_on_c, 1, 77, 64
2, 23327, Note_on_c, 1, 77, 0
2, 23328, Note_on_c, 1, 75, 64
2, 23351, Note_on_c, 1, 75, 0
2, 23352, Note_on_c, 1, 77, 64
2, 23375, Note_on_c, 1, 77, 0
2, 23376, Note_on_c, 1, 74, 64
2, 23399, Note_on_c, 1, 74, 0
2, 23400, Note_on_c, 1, 75, 64
2, 23423, Note_on_c, 1, 75, 0
2, 23424, Note_on_c, 1, 72, 64
2, 23543, Note_on_c, 1, 72, 0
2, 23544, Note_on_c, 1, 71, 64
2, 23567, Note_on_c, 1, 71, 0
2, 23568, Note_on_c, 1, 72, 64
2, 23591, Note_on_c, 1, 72, 0
2, 23592, Note_on_c, 1, 74, 64
2, 23615, Note_on_c, 1, 74, 0
2, 23616, Note_on_c, 1, 71, 64
2, 23705, Note_on_c, 1, 71, 0
2, 23808, Note_on_c, 1, 77, 64
2, 23831, Note_on_c, 1, 77, 0
2, 23832, Note_on_c, 1, 75, 64
2, 23855, Note_on_c, 1, 75, 0
2, 23856, Note_on_c, 1, 74, 64
2, 23879, Note_on_c, 1, 74, 0
2, 23880, Note_on_c, 1, 75, 64
2, 23903, Note_on_c, 1, 75, 0
2, 23904, Note_on_c, 1, 77, 64
2, 23927, Note_on_c, 1, 77, 0
2, 23928, Note_on_c, 1, 75, 64
2, 23951, Note_on_c, 1, 75, 0
2, 23952, Note_on_c, 1, 74, 64
2, 23975, Note_on_c, 1, 74, 0
2, 23976, Note_on_c, 1, 72, 64
2, 23999, Note_on_c, 1, 72, 0
2, 24000, Note_on_c, 1, 71, 64
2, 24045, Note_on_c, 1, 71, 0
2, 24048, Note_on_c, 1, 80, 64
2, 24144, Note_on_c, 1, 80, 0
2, 24144, Note_on_c, 1, 79, 64
2, 24189, Note_on_c, 1, 79, 0
2, 24192, Note_on_c, 1, 77, 64
2, 24215, Note_on_c, 1, 77, 0
2, 24216, Note_on_c, 1, 75, 64
2, 24239, Note_on_c, 1, 75, 0
2, 24240, Note_on_c, 1, 74, 64
2, 24263, Note_on_c, 1, 74, 0
2, 24264, Note_on_c, 1, 75, 64
2, 24287, Note_on_c, 1, 75, 0
2, 24288, Note_on_c, 1, 77, 64
2, 24311, Note_on_c, 1, 77, 0
2, 24312, Note_on_c, 1, 75, 64
2, 24335, Note_on_c, 1, 75, 0
2, 24336, Note_on_c, 1, 74, 64
2, 24359, Note_on_c, 1, 74, 0
2, 24360, Note_on_c, 1, 72, 64
2, 24383, Note_on_c, 1, 72, 0
2, 24384, Note_on_c, 1, 71, 64
2, 24407, Note_on_c, 1, 71, 0
2, 24408, Note_on_c, 1, 69, 64
2, 24431, Note_on_c, 1, 69, 0
2, 24432, Note_on_c, 1, 67, 64
2, 24455, Note_on_c, 1, 67, 0
2, 24456, Note_on_c, 1, 69, 64
2, 24479, Note_on_c, 1, 69, 0
2, 24480, Note_on_c, 1, 71, 64
2, 24503, Note_on_c, 1, 71, 0
2, 24504, Note_on_c, 1, 72, 64
2, 24527, Note_on_c, 1, 72, 0
2, 24528, Note_on_c, 1, 74, 64
2, 24551, Note_on_c, 1, 74, 0
2, 24552, Note_on_c, 1, 71, 64
2, 24575, Note_on_c, 1, 71, 0
2, 24576, Note_on_c, 1, 72, 64
2, 24599, Note_on_c, 1, 72, 0
2, 24600, Note_on_c, 1, 74, 64
2, 24623, Note_on_c, 1, 74, 0
2, 24624, Note_on_c, 1, 71, 64
2, 24647, Note_on_c, 1, 71, 0
2, 24648, Note_on_c, 1, 72, 64
2, 24671, Note_on_c, 1, 72, 0
2, 24672, Note_on_c, 1, 74, 64
2, 24695, Note_on_c, 1, 74, 0
2, 24696, Note_on_c, 1, 75, 64
2, 24719, Note_on_c, 1, 75, 0
2, 24720, Note_on_c, 1, 77, 64
2, 24743, Note_on_c, 1, 77, 0
2, 24744, Note_on_c, 1, 74, 64
2, 24767, Note_on_c, 1, 74, 0
2, 24768, Note_on_c, 1, 72, 64
2, 24791, Note_on_c, 1, 72, 0
2, 24792, Note_on_c, 1, 71, 64
2, 24815, Note_on_c, 1, 71, 0
2, 24816, Note_on_c, 1, 72, 64
2, 24839, Note_on_c, 1, 72, 0
2, 24840, Note_on_c, 1, 74, 64
2, 24863, Note_on_c, 1, 74, 0
2, 24864, Note_on_c, 1, 75, 64
2, 24887, Note_on_c, 1, 75, 0
2, 24888, Note_on_c, 1, 77, 64
2, 24911, Note_on_c, 1, 77, 0
2, 24912, Note_on_c, 1, 79, 64
2, 24935, Note_on_c, 1, 79, 0
2, 24936, Note_on_c, 1, 75, 64
2, 24959, Note_on_c, 1, 75, 0
2, 24960, Note_on_c, 1, 80, 64
2, 24983, Note_on_c, 1, 80, 0
2, 24984, Note_on_c, 1, 82, 64
2, 25007, Note_on_c, 1, 82, 0
2, 25008, Note_on_c, 1, 80, 64
2, 25031, Note_on_c, 1, 80, 0
2, 25032, Note_on_c, 1, 79, 64
2, 25055, Note_on_c, 1, 79, 0
2, 25056, Note_on_c, 1, 77, 64
2, 25079, Note_on_c, 1, 77, 0
2, 25080, Note_on_c, 1, 79, 64
2, 25103, Note_on_c, 1, 79, 0
2, 25104, Note_on_c, 1, 75, 64
2, 25127, Note_on_c, 1, 75, 0
2, 25128, Note_on_c, 1, 77, 64
2, 25151, Note_on_c, 1, 77, 0
2, 25152, Note_on_c, 1, 79, 64
2, 25175, Note_on_c, 1, 79, 0
2, 25176, Note_on_c, 1, 80, 64
2, 25199, Note_on_c, 1, 80, 0
2, 25200, Note_on_c, 1, 79, 64
2, 25223, Note_on_c, 1, 79, 0
2, 25224, Note_on_c, 1, 77, 64
2, 25247, Note_on_c, 1, 77, 0
2, 25248, Note_on_c, 1, 75, 64
2, 25271, Note_on_c, 1, 75, 0
2, 25272, Note_on_c, 1, 77, 64
2, 25295, Note_on_c, 1, 77, 0
2, 25296, Note_on_c, 1, 74, 64
2, 25319, Note_on_c, 1, 74, 0
2, 25320, Note_on_c, 1, 75, 64
2, 25343, Note_on_c, 1, 75, 0
2, 25344, Note_on_c, 1, 77, 64
2, 25367, Note_on_c, 1, 77, 0
2, 25368, Note_on_c, 1, 79, 64
2, 25391, Note_on_c, 1, 79, 0
2, 25392, Note_on_c, 1, 77, 64
2, 25415, Note_on_c, 1, 77, 0
2, 25416, Note_on_c, 1, 75, 64
2, 25439, Note_on_c, 1, 75, 0
2, 25440, Note_on_c, 1, 74, 64
2, 25463, Note_on_c, 1, 74, 0
2, 25464, Note_on_c, 1, 75, 64
2, 25487, Note_on_c, 1, 75, 0
2, 25488, Note_on_c, 1, 72, 64
2, 25511, Note_on_c, 1, 72, 0
2, 25512, Note_on_c, 1, 74, 64
2, 25535, Note_on_c, 1, 74, 0
2, 25536, Note_on_c, 1, 75, 64
2, 25581, Note_on_c, 1, 75, 0
2, 25584, Note_on_c, 1, 79, 64
2, 25629, Note_on_c, 1, 79, 0
2, 25632, Note_on_c, 1, 80, 64
2, 25680, Note_on_c, 1, 80, 0
2, 25680, Note_on_c, 1, 79, 64
2, 25725, Note_on_c, 1, 79, 0
2, 25752, Note_on_c, 1, 67, 64
2, 25775, Note_on_c, 1, 67, 0
2, 25776, Note_on_c, 1, 72, 64
2, 25799, Note_on_c, 1, 72, 0
2, 25800, Note_on_c, 1, 75, 64
2, 25823, Note_on_c, 1, 75, 0
2, 25824, Note_on_c, 1, 74, 64
2, 25847, Note_on_c, 1, 74, 0
2, 25848, Note_on_c, 1, 67, 64
2, 25871, Note_on_c, 1, 67, 0
2, 25872, Note_on_c, 1, 74, 64
2, 25895, Note_on_c, 1, 74, 0
2, 25896, Note_on_c, 1, 77, 64
2, 25919, Note_on_c, 1, 77, 0
2, 25920, Note_on_c, 1, 75, 64
2, 25965, Note_on_c, 1, 75, 0
2, 25968, Note_on_c, 1, 84, 64
2, 26057, Note_on_c, 1, 84, 0
2, 26064, Note_on_c, 1, 75, 64
2, 26109, Note_on_c, 1, 75, 0
2, 26112, Note_on_c, 1, 74, 64
2, 26157, Note_on_c, 1, 74, 0
2, 26160, Note_on_c, 1, 79, 64
2, 26183, Note_on_c, 1, 79, 0
2, 26184, Note_on_c, 1, 80, 64
2, 26207, Note_on_c, 1, 80, 0
2, 26208, Note_on_c, 1, 82, 64
2, 26253, Note_on_c, 1, 82, 0
2, 26256, Note_on_c, 1, 74, 64
2, 26301, Note_on_c, 1, 74, 0
2, 26304, Note_on_c, 1, 72, 64
2, 26349, Note_on_c, 1, 72, 0
2, 26352, Note_on_c, 1, 80, 64
2, 26441, Note_on_c, 1, 80, 0
2, 26448, Note_on_c, 1, 72, 64
2, 26493, Note_on_c, 1, 72, 0
2, 26496, Note_on_c, 1, 70, 64
2, 26541, Note_on_c, 1, 70, 0
2, 26544, Note_on_c, 1, 75, 64
2, 26567, Note_on_c, 1, 75, 0
2, 26568, Note_on_c, 1, 77, 64
2, 26591, Note_on_c, 1, 77, 0
2, 26592, Note_on_c, 1, 79, 64
2, 26637, Note_on_c, 1, 79, 0
2, 26640, Note_on_c, 1, 70, 64
2, 26685, Note_on_c, 1, 70, 0
2, 26688, Note_on_c, 1, 68, 64
2, 26733, Note_on_c, 1, 68, 0
2, 26736, Note_on_c, 1, 77, 64
2, 26825, Note_on_c, 1, 77, 0
2, 26832, Note_on_c, 1, 68, 64
2, 26877, Note_on_c, 1, 68, 0
2, 26880, Note_on_c, 1, 67, 64
2, 26969, Note_on_c, 1, 67, 0
2, 27096, Note_on_c, 1, 58, 64
2, 27119, Note_on_c, 1, 58, 0
2, 27120, Note_on_c, 1, 63, 64
2, 27143, Note_on_c, 1, 63, 0
2, 27144, Note_on_c, 1, 67, 64
2, 27167, Note_on_c, 1, 67, 0
2, 27168, Note_on_c, 1, 65, 64
2, 27191, Note_on_c, 1, 65, 0
2, 27192, Note_on_c, 1, 58, 64
2, 27215, Note_on_c, 1, 58, 0
2, 27216, Note_on_c, 1, 65, 64
2, 27239, Note_on_c, 1, 65, 0
2, 27240, Note_on_c, 1, 68, 64
2, 27263, Note_on_c, 1, 68, 0
2, 27264, Note_on_c, 1, 67, 64
2, 27309, Note_on_c, 1, 67, 0
2, 27480, Note_on_c, 1, 68, 64
2, 27503, Note_on_c, 1, 68, 0
2, 27504, Note_on_c, 1, 72, 64
2, 27527, Note_on_c, 1, 72, 0
2, 27528, Note_on_c, 1, 75, 64
2, 27551, Note_on_c, 1, 75, 0
2, 27552, Note_on_c, 1, 80, 64
2, 27575, Note_on_c, 1, 80, 0
2, 27576, Note_on_c, 1, 77, 64
2, 27599, Note_on_c, 1, 77, 0
2, 27600, Note_on_c, 1, 79, 64
2, 27623, Note_on_c, 1, 79, 0
2, 27624, Note_on_c, 1, 76, 64
2, 27647, Note_on_c, 1, 76, 0
2, 27648, Note_on_c, 1, 77, 64
2, 27693, Note_on_c, 1, 77, 0
2, 27696, Note_on_c, 1, 68, 64
2, 27741, Note_on_c, 1, 68, 0
2, 27744, Note_on_c, 1, 77, 64
2, 27863, Note_on_c, 1, 77, 0
2, 27864, Note_on_c, 1, 67, 64
2, 27887, Note_on_c, 1, 67, 0
2, 27888, Note_on_c, 1, 70, 64
2, 27911, Note_on_c, 1, 70, 0
2, 27912, Note_on_c, 1, 74, 64
2, 27935, Note_on_c, 1, 74, 0
2, 27936, Note_on_c, 1, 79, 64
2, 27959, Note_on_c, 1, 79, 0
2, 27960, Note_on_c, 1, 76, 64
2, 27983, Note_on_c, 1, 76, 0
2, 27984, Note_on_c, 1, 77, 64
2, 28007, Note_on_c, 1, 77, 0
2, 28008, Note_on_c, 1, 74, 64
2, 28031, Note_on_c, 1, 74, 0
2, 28032, Note_on_c, 1, 76, 64
2, 28121, Note_on_c, 1, 76, 0
2, 28176, Note_on_c, 1, 84, 64
2, 28221, Note_on_c, 1, 84, 0
2, 28224, Note_on_c, 1, 84, 64
2, 28272, Note_on_c, 1, 84, 0
2, 28272, Note_on_c, 1, 82, 64
2, 28317, Note_on_c, 1, 82, 0
2, 28368, Note_on_c, 1, 77, 64
2, 28413, Note_on_c, 1, 77, 0
2, 28416, Note_on_c, 1, 77, 64
2, 28464, Note_on_c, 1, 77, 0
2, 28464, Note_on_c, 1, 76, 64
2, 28509, Note_on_c, 1, 76, 0
2, 28560, Note_on_c, 1, 82, 64
2, 28653, Note_on_c, 1, 82, 0
2, 28656, Note_on_c, 1, 80, 64
2, 28679, Note_on_c, 1, 80, 0
2, 28680, Note_on_c, 1, 79, 64
2, 28703, Note_on_c, 1, 79, 0
2, 28704, Note_on_c, 1, 80, 64
2, 28727, Note_on_c, 1, 80, 0
2, 28728, Note_on_c, 1, 82, 64
2, 28751, Note_on_c, 1, 82, 0
2, 28752, Note_on_c, 1, 84, 64
2, 28775, Note_on_c, 1, 84, 0
2, 28776, Note_on_c, 1, 80, 64
2, 28799, Note_on_c, 1, 80, 0
2, 28800, Note_on_c, 1, 77, 64
2, 28977, Note_on_c, 1, 77, 0
2, 28992, Note_on_c, 1, 79, 64
2, 29169, Note_on_c, 1, 79, 0
2, 29184, Note_on_c, 1, 80, 64
2, 29229, Note_on_c, 1, 80, 0
2, 29232, Note_on_c, 1, 79, 64
2, 29255, Note_on_c, 1, 79, 0
2, 29256, Note_on_c, 1, 77, 64
2, 29279, Note_on_c, 1, 77, 0
2, 29280, Note_on_c, 1, 76, 64
2, 29325, Note_on_c, 1, 76, 0
2, 29328, Note_on_c, 1, 79, 64
2, 29373, Note_on_c, 1, 79, 0
2, 29376, Note_on_c, 1, 72, 64
2, 29465, Note_on_c, 1, 72, 0
2, 29472, Note_on_c, 1, 84, 64
2, 29613, Note_on_c, 1, 84, 0
2, 29616, Note_on_c, 1, 82, 64
2, 29639, Note_on_c, 1, 82, 0
2, 29640, Note_on_c, 1, 80, 64
2, 29663, Note_on_c, 1, 80, 0
2, 29664, Note_on_c, 1, 79, 64
2, 29709, Note_on_c, 1, 79, 0
2, 29712, Note_on_c, 1, 82, 64
2, 29757, Note_on_c, 1, 82, 0
2, 29760, Note_on_c, 1, 76, 64
2, 29805, Note_on_c, 1, 76, 0
2, 29808, Note_on_c, 1, 72, 64
2, 29853, Note_on_c, 1, 72, 0
2, 29856, Note_on_c, 1, 77, 64
2, 29975, Note_on_c, 1, 77, 0
2, 29976, Note_on_c, 1, 80, 64
2, 29999, Note_on_c, 1, 80, 0
2, 30000, Note_on_c, 1, 79, 64
2, 30023, Note_on_c, 1, 79, 0
2, 30024, Note_on_c, 1, 77, 64
2, 30047, Note_on_c, 1, 77, 0
2, 30048, Note_on_c, 1, 76, 64
2, 30071, Note_on_c, 1, 76, 0
2, 30072, Note_on_c, 1, 77, 64
2, 30095, Note_on_c, 1, 77, 0
2, 30096, Note_on_c, 1, 74, 64
2, 30119, Note_on_c, 1, 74, 0
2, 30120, Note_on_c, 1, 76, 64
2, 30143, Note_on_c, 1, 76, 0
2, 30144, Note_on_c, 1, 77, 64
2, 30233, Note_on_c, 1, 77, 0
2, 30384, Note_on_c, 1, 70, 64
2, 30429, Note_on_c, 1, 70, 0
2, 30432, Note_on_c, 1, 75, 64
2, 30573, Note_on_c, 1, 75, 0
2, 30576, Note_on_c, 1, 73, 64
2, 30599, Note_on_c, 1, 73, 0
2, 30600, Note_on_c, 1, 72, 64
2, 30623, Note_on_c, 1, 72, 0
2, 30624, Note_on_c, 1, 70, 64
2, 30669, Note_on_c, 1, 70, 0
2, 30672, Note_on_c, 1, 73, 64
2, 30717, Note_on_c, 1, 73, 0
2, 30720, Note_on_c, 1, 67, 64
2, 30809, Note_on_c, 1, 67, 0
2, 30816, Note_on_c, 1, 72, 64
2, 30957, Note_on_c, 1, 72, 0
2, 30960, Note_on_c, 1, 70, 64
2, 30983, Note_on_c, 1, 70, 0
2, 30984, Note_on_c, 1, 68, 64
2, 31007, Note_on_c, 1, 68, 0
2, 31008, Note_on_c, 1, 66, 64
2, 31053, Note_on_c, 1, 66, 0
2, 31056, Note_on_c, 1, 70, 64
2, 31101, Note_on_c, 1, 70, 0
2, 31104, Note_on_c, 1, 64, 64
2, 31149, Note_on_c, 1, 64, 0
2, 31152, Note_on_c, 1, 60, 64
2, 31197, Note_on_c, 1, 60, 0
2, 31248, Note_on_c, 1, 79, 64
2, 31337, Note_on_c, 1, 79, 0
2, 31344, Note_on_c, 1, 77, 64
2, 31433, Note_on_c, 1, 77, 0
2, 31440, Note_on_c, 1, 76, 64
2, 31485, Note_on_c, 1, 76, 0
2, 31488, Note_on_c, 1, 82, 64
2, 31536, Note_on_c, 1, 82, 0
2, 31536, Note_on_c, 1, 80, 64
2, 31581, Note_on_c, 1, 80, 0
2, 31632, Note_on_c, 1, 78, 64
2, 31677, Note_on_c, 1, 78, 0
2, 31680, Note_on_c, 1, 76, 64
2, 31728, Note_on_c, 1, 76, 0
2, 31728, Note_on_c, 1, 77, 64
2, 31773, Note_on_c, 1, 77, 0
2, 31824, Note_on_c, 1, 73, 64
2, 31895, Note_on_c, 1, 73, 0
2, 31896, Note_on_c, 1, 70, 64
2, 31919, Note_on_c, 1, 70, 0
2, 31920, Note_on_c, 1, 72, 64
2, 31943, Note_on_c, 1, 72, 0
2, 31944, Note_on_c, 1, 80, 64
2, 31967, Note_on_c, 1, 80, 0
2, 31968, Note_on_c, 1, 76, 64
2, 32035, Note_on_c, 1, 76, 0
2, 32040, Note_on_c, 1, 77, 64
2, 32063, Note_on_c, 1, 77, 0
2, 32064, Note_on_c, 1, 77, 64
2, 32241, Note_on_c, 1, 77, 0
2, 32256, Note_on_c, 1, 75, 64
2, 32279, Note_on_c, 1, 75, 0
2, 32280, Note_on_c, 1, 73, 64
2, 32303, Note_on_c, 1, 73, 0
2, 32304, Note_on_c, 1, 72, 64
2, 32327, Note_on_c, 1, 72, 0
2, 32328, Note_on_c, 1, 73, 64
2, 32351, Note_on_c, 1, 73, 0
2, 32352, Note_on_c, 1, 75, 64
2, 32376, Note_on_c, 1, 75, 0
2, 32376, Note_on_c, 1, 73, 64
2, 32399, Note_on_c, 1, 73, 0
2, 32400, Note_on_c, 1, 72, 64
2, 32424, Note_on_c, 1, 72, 0
2, 32424, Note_on_c, 1, 70, 64
2, 32447, Note_on_c, 1, 70, 0
2, 32448, Note_on_c, 1, 69, 64
2, 32493, Note_on_c, 1, 69, 0
2, 32496, Note_on_c, 1, 78, 64
2, 32592, Note_on_c, 1, 78, 0
2, 32592, Note_on_c, 1, 77, 64
2, 32637, Note_on_c, 1, 77, 0
2, 32640, Note_on_c, 1, 75, 64
2, 32663, Note_on_c, 1, 75, 0
2, 32664, Note_on_c, 1, 73, 64
2, 32687, Note_on_c, 1, 73, 0
2, 32688, Note_on_c, 1, 72, 64
2, 32711, Note_on_c, 1, 72, 0
2, 32712, Note_on_c, 1, 73, 64
2, 32735, Note_on_c, 1, 73, 0
2, 32736, Note_on_c, 1, 75, 64
2, 32759, Note_on_c, 1, 75, 0
2, 32760, Note_on_c, 1, 73, 64
2, 32783, Note_on_c, 1, 73, 0
2, 32784, Note_on_c, 1, 72, 64
2, 32807, Note_on_c, 1, 72, 0
2, 32808, Note_on_c, 1, 70, 64
2, 32831, Note_on_c, 1, 70, 0
2, 32832, Note_on_c, 1, 81, 64
2, 32877, Note_on_c, 1, 81, 0
2, 32880, Note_on_c, 1, 84, 64
2, 32925, Note_on_c, 1, 84, 0
2, 32976, Note_on_c, 1, 77, 64
2, 33021, Note_on_c, 1, 77, 0
2, 33024, Note_on_c, 1, 77, 64
2, 33072, Note_on_c, 1, 77, 0
2, 33072, Note_on_c, 1, 75, 64
2, 33117, Note_on_c, 1, 75, 0
2, 33168, Note_on_c, 1, 78, 64
2, 33213, Note_on_c, 1, 78, 0
2, 33216, Note_on_c, 1, 78, 64
2, 33264, Note_on_c, 1, 78, 0
2, 33264, Note_on_c, 1, 77, 64
2, 33309, Note_on_c, 1, 77, 0
2, 33360, Note_on_c, 1, 75, 64
2, 33405, Note_on_c, 1, 75, 0
2, 33408, Note_on_c, 1, 75, 64
2, 33456, Note_on_c, 1, 75, 0
2, 33456, Note_on_c, 1, 73, 64
2, 33501, Note_on_c, 1, 73, 0
2, 33552, Note_on_c, 1, 69, 64
2, 33597, Note_on_c, 1, 69, 0
2, 33600, Note_on_c, 1, 69, 64
2, 33648, Note_on_c, 1, 69, 0
2, 33648, Note_on_c, 1, 70, 64
2, 33693, Note_on_c, 1, 70, 0
2, 33744, Note_on_c, 1, 72, 64
2, 33789, Note_on_c, 1, 72, 0
2, 33792, Note_on_c, 1, 72, 64
2, 33837, Note_on_c, 1, 72, 0
2, 33840, Note_on_c, 1, 73, 64
2, 33885, Note_on_c, 1, 73, 0
2, 33936, Note_on_c, 1, 77, 64
2, 33981, Note_on_c, 1, 77, 0
2, 33984, Note_on_c, 1, 70, 64
2, 34051, Note_on_c, 1, 70, 0
2, 34056, Note_on_c, 1, 72, 64
2, 34079, Note_on_c, 1, 72, 0
2, 34080, Note_on_c, 1, 69, 64
2, 34147, Note_on_c, 1, 69, 0
2, 34152, Note_on_c, 1, 70, 64
2, 34175, Note_on_c, 1, 70, 0
2, 34176, Note_on_c, 1, 70, 64
2, 34199, Note_on_c, 1, 70, 0
2, 34200, Note_on_c, 1, 65, 64
2, 34223, Note_on_c, 1, 65, 0
2, 34224, Note_on_c, 1, 70, 64
2, 34247, Note_on_c, 1, 70, 0
2, 34248, Note_on_c, 1, 73, 64
2, 34271, Note_on_c, 1, 73, 0
2, 34272, Note_on_c, 1, 72, 64
2, 34295, Note_on_c, 1, 72, 0
2, 34296, Note_on_c, 1, 65, 64
2, 34319, Note_on_c, 1, 65, 0
2, 34320, Note_on_c, 1, 72, 64
2, 34343, Note_on_c, 1, 72, 0
2, 34344, Note_on_c, 1, 75, 64
2, 34367, Note_on_c, 1, 75, 0
2, 34368, Note_on_c, 1, 73, 64
2, 34457, Note_on_c, 1, 73, 0
2, 34584, Note_on_c, 1, 70, 64
2, 34607, Note_on_c, 1, 70, 0
2, 34608, Note_on_c, 1, 73, 64
2, 34631, Note_on_c, 1, 73, 0
2, 34632, Note_on_c, 1, 77, 64
2, 34655, Note_on_c, 1, 77, 0
2, 34656, Note_on_c, 1, 82, 64
2, 34679, Note_on_c, 1, 82, 0
2, 34680, Note_on_c, 1, 78, 64
2, 34703, Note_on_c, 1, 78, 0
2, 34704, Note_on_c, 1, 80, 64
2, 34727, Note_on_c, 1, 80, 0
2, 34728, Note_on_c, 1, 77, 64
2, 34751, Note_on_c, 1, 77, 0
2, 34752, Note_on_c, 1, 78, 64
2, 34797, Note_on_c, 1, 78, 0
2, 34800, Note_on_c, 1, 70, 64
2, 34845, Note_on_c, 1, 70, 0
2, 34848, Note_on_c, 1, 78, 64
2, 34967, Note_on_c, 1, 78, 0
2, 34968, Note_on_c, 1, 68, 64
2, 34991, Note_on_c, 1, 68, 0
2, 34992, Note_on_c, 1, 72, 64
2, 35015, Note_on_c, 1, 72, 0
2, 35016, Note_on_c, 1, 75, 64
2, 35039, Note_on_c, 1, 75, 0
2, 35040, Note_on_c, 1, 80, 64
2, 35063, Note_on_c, 1, 80, 0
2, 35064, Note_on_c, 1, 77, 64
2, 35087, Note_on_c, 1, 77, 0
2, 35088, Note_on_c, 1, 78, 64
2, 35111, Note_on_c, 1, 78, 0
2, 35112, Note_on_c, 1, 75, 64
2, 35135, Note_on_c, 1, 75, 0
2, 35136, Note_on_c, 1, 77, 64
2, 35203, Note_on_c, 1, 77, 0
2, 35208, Note_on_c, 1, 78, 64
2, 35220, Note_on_c, 1, 78, 0
2, 35220, Note_on_c, 1, 80, 64
2, 35232, Note_on_c, 1, 80, 0
2, 35232, Note_on_c, 1, 78, 64
2, 35255, Note_on_c, 1, 78, 0
2, 35256, Note_on_c, 1, 77, 64
2, 35279, Note_on_c, 1, 77, 0
2, 35280, Note_on_c, 1, 75, 64
2, 35303, Note_on_c, 1, 75, 0
2, 35304, Note_on_c, 1, 73, 64
2, 35327, Note_on_c, 1, 73, 0
2, 35328, Note_on_c, 1, 80, 64
2, 35801, Note_on_c, 1, 80, 0
2, 35808, Note_on_c, 1, 78, 64
2, 35985, Note_on_c, 1, 78, 0
2, 36000, Note_on_c, 1, 77, 64
2, 36185, Note_on_c, 1, 77, 0
2, 36192, Note_on_c, 1, 82, 64
2, 36311, Note_on_c, 1, 82, 0
2, 36312, Note_on_c, 1, 72, 64
2, 36335, Note_on_c, 1, 72, 0
2, 36336, Note_on_c, 1, 76, 64
2, 36359, Note_on_c, 1, 76, 0
2, 36360, Note_on_c, 1, 79, 64
2, 36383, Note_on_c, 1, 79, 0
2, 36384, Note_on_c, 1, 84, 64
2, 36407, Note_on_c, 1, 84, 0
2, 36408, Note_on_c, 1, 80, 64
2, 36431, Note_on_c, 1, 80, 0
2, 36432, Note_on_c, 1, 82, 64
2, 36455, Note_on_c, 1, 82, 0
2, 36456, Note_on_c, 1, 79, 64
2, 36479, Note_on_c, 1, 79, 0
2, 36480, Note_on_c, 1, 80, 64
2, 36503, Note_on_c, 1, 80, 0
2, 36504, Note_on_c, 1, 65, 64
2, 36527, Note_on_c, 1, 65, 0
2, 36528, Note_on_c, 1, 68, 64
2, 36551, Note_on_c, 1, 68, 0
2, 36552, Note_on_c, 1, 72, 64
2, 36575, Note_on_c, 1, 72, 0
2, 36576, Note_on_c, 1, 77, 64
2, 36599, Note_on_c, 1, 77, 0
2, 36600, Note_on_c, 1, 74, 64
2, 36623, Note_on_c, 1, 74, 0
2, 36624, Note_on_c, 1, 75, 64
2, 36647, Note_on_c, 1, 75, 0
2, 36648, Note_on_c, 1, 72, 64
2, 36671, Note_on_c, 1, 72, 0
2, 36672, Note_on_c, 1, 79, 64
2, 36717, Note_on_c, 1, 79, 0
2, 36720, Note_on_c, 1, 67, 64
2, 36765, Note_on_c, 1, 67, 0
2, 36768, Note_on_c, 1, 71, 64
2, 36813, Note_on_c, 1, 71, 0
2, 36816, Note_on_c, 1, 74, 64
2, 36887, Note_on_c, 1, 74, 0
2, 36888, Note_on_c, 1, 72, 64
2, 36911, Note_on_c, 1, 72, 0
2, 36912, Note_on_c, 1, 74, 64
2, 36935, Note_on_c, 1, 74, 0
2, 36936, Note_on_c, 1, 75, 64
2, 36959, Note_on_c, 1, 75, 0
2, 36960, Note_on_c, 1, 77, 64
2, 36983, Note_on_c, 1, 77, 0
2, 36984, Note_on_c, 1, 79, 64
2, 37007, Note_on_c, 1, 79, 0
2, 37008, Note_on_c, 1, 75, 64
2, 37031, Note_on_c, 1, 75, 0
2, 37032, Note_on_c, 1, 77, 64
2, 37055, Note_on_c, 1, 77, 0
2, 37056, Note_on_c, 1, 79, 64
2, 37079, Note_on_c, 1, 79, 0
2, 37080, Note_on_c, 1, 80, 64
2, 37103, Note_on_c, 1, 80, 0
2, 37104, Note_on_c, 1, 79, 64
2, 37127, Note_on_c, 1, 79, 0
2, 37128, Note_on_c, 1, 77, 64
2, 37151, Note_on_c, 1, 77, 0
2, 37152, Note_on_c, 1, 75, 64
2, 37175, Note_on_c, 1, 75, 0
2, 37176, Note_on_c, 1, 77, 64
2, 37199, Note_on_c, 1, 77, 0
2, 37200, Note_on_c, 1, 74, 64
2, 37223, Note_on_c, 1, 74, 0
2, 37224, Note_on_c, 1, 75, 64
2, 37247, Note_on_c, 1, 75, 0
2, 37248, Note_on_c, 1, 72, 64
2, 37367, Note_on_c, 1, 72, 0
2, 37368, Note_on_c, 1, 71, 64
2, 37391, Note_on_c, 1, 71, 0
2, 37392, Note_on_c, 1, 72, 64
2, 37415, Note_on_c, 1, 72, 0
2, 37416, Note_on_c, 1, 74, 64
2, 37439, Note_on_c, 1, 74, 0
2, 37440, Note_on_c, 1, 71, 64
2, 37529, Note_on_c, 1, 71, 0
2, 37632, Note_on_c, 1, 77, 64
2, 37655, Note_on_c, 1, 77, 0
2, 37656, Note_on_c, 1, 75, 64
2, 37679, Note_on_c, 1, 75, 0
2, 37680, Note_on_c, 1, 74, 64
2, 37703, Note_on_c, 1, 74, 0
2, 37704, Note_on_c, 1, 75, 64
2, 37727, Note_on_c, 1, 75, 0
2, 37728, Note_on_c, 1, 77, 64
2, 37751, Note_on_c, 1, 77, 0
2, 37752, Note_on_c, 1, 75, 64
2, 37775, Note_on_c, 1, 75, 0
2, 37776, Note_on_c, 1, 74, 64
2, 37799, Note_on_c, 1, 74, 0
2, 37800, Note_on_c, 1, 72, 64
2, 37823, Note_on_c, 1, 72, 0
2, 37824, Note_on_c, 1, 71, 64
2, 37869, Note_on_c, 1, 71, 0
2, 37872, Note_on_c, 1, 80, 64
2, 37968, Note_on_c, 1, 80, 0
2, 37968, Note_on_c, 1, 79, 64
2, 38013, Note_on_c, 1, 79, 0
2, 38016, Note_on_c, 1, 77, 64
2, 38039, Note_on_c, 1, 77, 0
2, 38040, Note_on_c, 1, 75, 64
2, 38063, Note_on_c, 1, 75, 0
2, 38064, Note_on_c, 1, 74, 64
2, 38087, Note_on_c, 1, 74, 0
2, 38088, Note_on_c, 1, 75, 64
2, 38111, Note_on_c, 1, 75, 0
2, 38112, Note_on_c, 1, 77, 64
2, 38135, Note_on_c, 1, 77, 0
2, 38136, Note_on_c, 1, 75, 64
2, 38159, Note_on_c, 1, 75, 0
2, 38160, Note_on_c, 1, 74, 64
2, 38183, Note_on_c, 1, 74, 0
2, 38184, Note_on_c, 1, 72, 64
2, 38207, Note_on_c, 1, 72, 0
2, 38208, Note_on_c, 1, 71, 64
2, 38231, Note_on_c, 1, 71, 0
2, 38232, Note_on_c, 1, 69, 64
2, 38255, Note_on_c, 1, 69, 0
2, 38256, Note_on_c, 1, 67, 64
2, 38279, Note_on_c, 1, 67, 0
2, 38280, Note_on_c, 1, 69, 64
2, 38303, Note_on_c, 1, 69, 0
2, 38304, Note_on_c, 1, 71, 64
2, 38327, Note_on_c, 1, 71, 0
2, 38328, Note_on_c, 1, 72, 64
2, 38351, Note_on_c, 1, 72, 0
2, 38352, Note_on_c, 1, 74, 64
2, 38375, Note_on_c, 1, 74, 0
2, 38376, Note_on_c, 1, 71, 64
2, 38399, Note_on_c, 1, 71, 0
2, 38400, Note_on_c, 1, 72, 64
2, 38423, Note_on_c, 1, 72, 0
2, 38424, Note_on_c, 1, 74, 64
2, 38447, Note_on_c, 1, 74, 0
2, 38448, Note_on_c, 1, 71, 64
2, 38471, Note_on_c, 1, 71, 0
2, 38472, Note_on_c, 1, 72, 64
2, 38495, Note_on_c, 1, 72, 0
2, 38496, Note_on_c, 1, 74, 64
2, 38519, Note_on_c, 1, 74, 0
2, 38520, Note_on_c, 1, 75, 64
2, 38543, Note_on_c, 1, 75, 0
2, 38544, Note_on_c, 1, 77, 64
2, 38567, Note_on_c, 1, 77, 0
2, 38568, Note_on_c, 1, 74, 64
2, 38591, Note_on_c, 1, 74, 0
2, 38592, Note_on_c, 1, 72, 64
2, 38615, Note_on_c, 1, 72, 0
2, 38616, Note_on_c, 1, 71, 64
2, 38639, Note_on_c, 1, 71, 0
2, 38640, Note_on_c, 1, 72, 64
2, 38663, Note_on_c, 1, 72, 0
2, 38664, Note_on_c, 1, 74, 64
2, 38687, Note_on_c, 1, 74, 0
2, 38688, Note_on_c, 1, 75, 64
2, 38711, Note_on_c, 1, 75, 0
2, 38712, Note_on_c, 1, 77, 64
2, 38735, Note_on_c, 1, 77, 0
2, 38736, Note_on_c, 1, 79, 64
2, 38759, Note_on_c, 1, 79, 0
2, 38760, Note_on_c, 1, 75, 64
2, 38783, Note_on_c, 1, 75, 0
2, 38784, Note_on_c, 1, 80, 64
2, 38807, Note_on_c, 1, 80, 0
2, 38808, Note_on_c, 1, 82, 64
2, 38831, Note_on_c, 1, 82, 0
2, 38832, Note_on_c, 1, 80, 64
2, 38855, Note_on_c, 1, 80, 0
2, 38856, Note_on_c, 1, 79, 64
2, 38879, Note_on_c, 1, 79, 0
2, 38880, Note_on_c, 1, 77, 64
2, 38903, Note_on_c, 1, 77, 0
2, 38904, Note_on_c, 1, 79, 64
2, 38927, Note_on_c, 1, 79, 0
2, 38928, Note_on_c, 1, 75, 64
2, 38951, Note_on_c, 1, 75, 0
2, 38952, Note_on_c, 1, 77, 64
2, 38975, Note_on_c, 1, 77, 0
2, 38976, Note_on_c, 1, 79, 64
2, 38999, Note_on_c, 1, 79, 0
2, 39000, Note_on_c, 1, 80, 64
2, 39023, Note_on_c, 1, 80, 0
2, 39024, Note_on_c, 1, 79, 64
2, 39047, Note_on_c, 1, 79, 0
2, 39048, Note_on_c, 1, 77, 64
2, 39071, Note_on_c, 1, 77, 0
2, 39072, Note_on_c, 1, 75, 64
2, 39095, Note_on_c, 1, 75, 0
2, 39096, Note_on_c, 1, 77, 64
2, 39119, Note_on_c, 1, 77, 0
2, 39120, Note_on_c, 1, 74, 64
2, 39143, Note_on_c, 1, 74, 0
2, 39144, Note_on_c, 1, 75, 64
2, 39167, Note_on_c, 1, 75, 0
2, 39168, Note_on_c, 1, 77, 64
2, 39191, Note_on_c, 1, 77, 0
2, 39192, Note_on_c, 1, 79, 64
2, 39215, Note_on_c, 1, 79, 0
2, 39216, Note_on_c, 1, 77, 64
2, 39239, Note_on_c, 1, 77, 0
2, 39240, Note_on_c, 1, 75, 64
2, 39263, Note_on_c, 1, 75, 0
2, 39264, Note_on_c, 1, 74, 64
2, 39287, Note_on_c, 1, 74, 0
2, 39288, Note_on_c, 1, 75, 64
2, 39311, Note_on_c, 1, 75, 0
2, 39312, Note_on_c, 1, 72, 64
2, 39335, Note_on_c, 1, 72, 0
2, 39336, Note_on_c, 1, 74, 64
2, 39359, Note_on_c, 1, 74, 0
2, 39360, Note_on_c, 1, 75, 64
2, 39405, Note_on_c, 1, 75, 0
2, 39408, Note_on_c, 1, 79, 64
2, 39453, Note_on_c, 1, 79, 0
2, 39456, Note_on_c, 1, 80, 64
2, 39504, Note_on_c, 1, 80, 0
2, 39504, Note_on_c, 1, 79, 64
2, 39549, Note_on_c, 1, 79, 0
2, 39576, Note_on_c, 1, 67, 64
2, 39599, Note_on_c, 1, 67, 0
2, 39600, Note_on_c, 1, 72, 64
2, 39623, Note_on_c, 1, 72, 0
2, 39624, Note_on_c, 1, 75, 64
2, 39647, Note_on_c, 1, 75, 0
2, 39648, Note_on_c, 1, 74, 64
2, 39671, Note_on_c, 1, 74, 0
2, 39672, Note_on_c, 1, 67, 64
2, 39695, Note_on_c, 1, 67, 0
2, 39696, Note_on_c, 1, 74, 64
2, 39719, Note_on_c, 1, 74, 0
2, 39720, Note_on_c, 1, 77, 64
2, 39743, Note_on_c, 1, 77, 0
2, 39744, Note_on_c, 1, 75, 64
2, 39789, Note_on_c, 1, 75, 0
2, 39792, Note_on_c, 1, 84, 64
2, 39881, Note_on_c, 1, 84, 0
2, 39888, Note_on_c, 1, 75, 64
2, 39933, Note_on_c, 1, 75, 0
2, 39936, Note_on_c, 1, 74, 64
2, 39981, Note_on_c, 1, 74, 0
2, 39984, Note_on_c, 1, 79, 64
2, 40007, Note_on_c, 1, 79, 0
2, 40008, Note_on_c, 1, 80, 64
2, 40031, Note_on_c, 1, 80, 0
2, 40032, Note_on_c, 1, 82, 64
2, 40077, Note_on_c, 1, 82, 0
2, 40080, Note_on_c, 1, 74, 64
2, 40125, Note_on_c, 1, 74, 0
2, 40128, Note_on_c, 1, 72, 64
2, 40173, Note_on_c, 1, 72, 0
2, 40176, Note_on_c, 1, 80, 64
2, 40265, Note_on_c, 1, 80, 0
2, 40272, Note_on_c, 1, 72, 64
2, 40317, Note_on_c, 1, 72, 0
2, 40320, Note_on_c, 1, 70, 64
2, 40365, Note_on_c, 1, 70, 0
2, 40368, Note_on_c, 1, 75, 64
2, 40391, Note_on_c, 1, 75, 0
2, 40392, Note_on_c, 1, 77, 64
2, 40415, Note_on_c, 1, 77, 0
2, 40416, Note_on_c, 1, 79, 64
2, 40461, Note_on_c, 1, 79, 0
2, 40464, Note_on_c, 1, 70, 64
2, 40509, Note_on_c, 1, 70, 0
2, 40512, Note_on_c, 1, 68, 64
2, 40557, Note_on_c, 1, 68, 0
2, 40560, Note_on_c, 1, 77, 64
2, 40649, Note_on_c, 1, 77, 0
2, 40656, Note_on_c, 1, 68, 64
2, 40701, Note_on_c, 1, 68, 0
2, 40704, Note_on_c, 1, 67, 64
2, 40793, Note_on_c, 1, 67, 0
2, 40920, Note_on_c, 1, 58, 64
2, 40943, Note_on_c, 1, 58, 0
2, 40944, Note_on_c, 1, 63, 64
2, 40967, Note_on_c, 1, 63, 0
2, 40968, Note_on_c, 1, 67, 64
2, 40991, Note_on_c, 1, 67, 0
2, 40992, Note_on_c, 1, 65, 64
2, 41015, Note_on_c, 1, 65, 0
2, 41016, Note_on_c, 1, 58, 64
2, 41039, Note_on_c, 1, 58, 0
2, 41040, Note_on_c, 1, 65, 64
2, 41063, Note_on_c, 1, 65, 0
2, 41064, Note_on_c, 1, 68, 64
2, 41087, Note_on_c, 1, 68, 0
2, 41088, Note_on_c, 1, 67, 64
2, 41133, Note_on_c, 1, 67, 0
2, 41304, Note_on_c, 1, 68, 64
2, 41327, Note_on_c, 1, 68, 0
2, 41328, Note_on_c, 1, 72, 64
2, 41351, Note_on_c, 1, 72, 0
2, 41352, Note_on_c, 1, 75, 64
2, 41375, Note_on_c, 1, 75, 0
2, 41376, Note_on_c, 1, 80, 64
2, 41399, Note_on_c, 1, 80, 0
2, 41400, Note_on_c, 1, 77, 64
2, 41423, Note_on_c, 1, 77, 0
2, 41424, Note_on_c, 1, 79, 64
2, 41447, Note_on_c, 1, 79, 0
2, 41448, Note_on_c, 1, 76, 64
2, 41471, Note_on_c, 1, 76, 0
2, 41472, Note_on_c, 1, 77, 64
2, 41517, Note_on_c, 1, 77, 0
2, 41520, Note_on_c, 1, 68, 64
2, 41565, Note_on_c, 1, 68, 0
2, 41568, Note_on_c, 1, 77, 64
2, 41687, Note_on_c, 1, 77, 0
2, 41688, Note_on_c, 1, 67, 64
2, 41711, Note_on_c, 1, 67, 0
2, 41712, Note_on_c, 1, 70, 64
2, 41735, Note_on_c, 1, 70, 0
2, 41736, Note_on_c, 1, 74, 64
2, 41759, Note_on_c, 1, 74, 0
2, 41760, Note_on_c, 1, 79, 64
2, 41783, Note_on_c, 1, 79, 0
2, 41784, Note_on_c, 1, 76, 64
2, 41807, Note_on_c, 1, 76, 0
2, 41808, Note_on_c, 1, 77, 64
2, 41831, Note_on_c, 1, 77, 0
2, 41832, Note_on_c, 1, 74, 64
2, 41855, Note_on_c, 1, 74, 0
2, 41856, Note_on_c, 1, 76, 64
2, 41945, Note_on_c, 1, 76, 0
2, 42000, Note_on_c, 1, 84, 64
2, 42045, Note_on_c, 1, 84, 0
2, 42048, Note_on_c, 1, 84, 64
2, 42096, Note_on_c, 1, 84, 0
2, 42096, Note_on_c, 1, 82, 64
2, 42141, Note_on_c, 1, 82, 0
2, 42192, Note_on_c, 1, 77, 64
2, 42237, Note_on_c, 1, 77, 0
2, 42240, Note_on_c, 1, 77, 64
2, 42288, Note_on_c, 1, 77, 0
2, 42288, Note_on_c, 1, 76, 64
2, 42333, Note_on_c, 1, 76, 0
2, 42384, Note_on_c, 1, 82, 64
2, 42477, Note_on_c, 1, 82, 0
2, 42480, Note_on_c, 1, 80, 64
2, 42503, Note_on_c, 1, 80, 0
2, 42504, Note_on_c, 1, 79, 64
2, 42527, Note_on_c, 1, 79, 0
2, 42528, Note_on_c, 1, 80, 64
2, 42551, Note_on_c, 1, 80, 0
2, 42552, Note_on_c, 1, 82, 64
2, 42575, Note_on_c, 1, 82, 0
2, 42576, Note_on_c, 1, 84, 64
2, 42599, Note_on_c, 1, 84, 0
2, 42600, Note_on_c, 1, 80, 64
2, 42623, Note_on_c, 1, 80, 0
2, 42624, Note_on_c, 1, 77, 64
2, 42801, Note_on_c, 1, 77, 0
2, 42816, Note_on_c, 1, 79, 64
2, 42993, Note_on_c, 1, 79, 0
2, 43008, Note_on_c, 1, 80, 64
2, 43053, Note_on_c, 1, 80, 0
2, 43056, Note_on_c, 1, 79, 64
2, 43079, Note_on_c, 1, 79, 0
2, 43080, Note_on_c, 1, 77, 64
2, 43103, Note_on_c, 1, 77, 0
2, 43104, Note_on_c, 1, 76, 64
2, 43149, Note_on_c, 1, 76, 0
2, 43152, Note_on_c, 1, 79, 64
2, 43197, Note_on_c, 1, 79, 0
2, 43200, Note_on_c, 1, 72, 64
2, 43289, Note_on_c, 1, 72, 0
2, 43296, Note_on_c, 1, 84, 64
2, 43437, Note_on_c, 1, 84, 0
2, 43440, Note_on_c, 1, 82, 64
2, 43463, Note_on_c, 1, 82, 0
2, 43464, Note_on_c, 1, 80, 64
2, 43487, Note_on_c, 1, 80, 0
2, 43488, Note_on_c, 1, 79, 64
2, 43533, Note_on_c, 1, 79, 0
2, 43536, Note_on_c, 1, 82, 64
2, 43581, Note_on_c, 1, 82, 0
2, 43584, Note_on_c, 1, 76, 64
2, 43629, Note_on_c, 1, 76, 0
2, 43632, Note_on_c, 1, 72, 64
2, 43677, Note_on_c, 1, 72, 0
2, 43680, Note_on_c, 1, 77, 64
2, 43799, Note_on_c, 1, 77, 0
2, 43800, Note_on_c, 1, 80, 64
2, 43823, Note_on_c, 1, 80, 0
2, 43824, Note_on_c, 1, 79, 64
2, 43847, Note_on_c, 1, 79, 0
2, 43848, Note_on_c, 1, 77, 64
2, 43871, Note_on_c, 1, 77, 0
2, 43872, Note_on_c, 1, 76, 64
2, 43895, Note_on_c, 1, 76, 0
2, 43896, Note_on_c, 1, 77, 64
2, 43919, Note_on_c, 1, 77, 0
2, 43920, Note_on_c, 1, 74, 64
2, 43943, Note_on_c, 1, 74, 0
2, 43944, Note_on_c, 1, 76, 64
2, 43967, Note_on_c, 1, 76, 0
2, 43968, Note_on_c, 1, 77, 64
2, 44057, Note_on_c, 1, 77, 0
2, 44208, Note_on_c, 1, 70, 64
2, 44253, Note_on_c, 1, 70, 0
2, 44256, Note_on_c, 1, 75, 64
2, 44397, Note_on_c, 1, 75, 0
2, 44400, Note_on_c, 1, 73, 64
2, 44423, Note_on_c, 1, 73, 0
2, 44424, Note_on_c, 1, 72, 64
2, 44447, Note_on_c, 1, 72, 0
2, 44448, Note_on_c, 1, 70, 64
2, 44493, Note_on_c, 1, 70, 0
2, 44496, Note_on_c, 1, 73, 64
2, 44541, Note_on_c, 1, 73, 0
2, 44544, Note_on_c, 1, 67, 64
2, 44633, Note_on_c, 1, 67, 0
2, 44640, Note_on_c, 1, 72, 64
2, 44781, Note_on_c, 1, 72, 0
2, 44784, Note_on_c, 1, 70, 64
2, 44807, Note_on_c, 1, 70, 0
2, 44808, Note_on_c, 1, 68, 64
2, 44831, Note_on_c, 1, 68, 0
2, 44832, Note_on_c, 1, 66, 64
2, 44877, Note_on_c, 1, 66, 0
2, 44880, Note_on_c, 1, 70, 64
2, 44925, Note_on_c, 1, 70, 0
2, 44928, Note_on_c, 1, 64, 64
2, 44973, Note_on_c, 1, 64, 0
2, 44976, Note_on_c, 1, 60, 64
2, 45021, Note_on_c, 1, 60, 0
2, 45072, Note_on_c, 1, 79, 64
2, 45161, Note_on_c, 1, 79, 0
2, 45168, Note_on_c, 1, 77, 64
2, 45257, Note_on_c, 1, 77, 0
2, 45264, Note_on_c, 1, 76, 64
2, 45309, Note_on_c, 1, 76, 0
2, 45312, Note_on_c, 1, 82, 64
2, 45360, Note_on_c, 1, 82, 0
2, 45360, Note_on_c, 1, 80, 64
2, 45405, Note_on_c, 1, 80, 0
2, 45456, Note_on_c, 1, 78, 64
2, 45501, Note_on_c, 1, 78, 0
2, 45504, Note_on_c, 1, 76, 64
2, 45552, Note_on_c, 1, 76, 0
2, 45552, Note_on_c, 1, 77, 64
2, 45597, Note_on_c, 1, 77, 0
2, 45648, Note_on_c, 1, 73, 64
2, 45719, Note_on_c, 1, 73, 0
2, 45720, Note_on_c, 1, 70, 64
2, 45743, Note_on_c, 1, 70, 0
2, 45744, Note_on_c, 1, 72, 64
2, 45767, Note_on_c, 1, 72, 0
2, 45768, Note_on_c, 1, 80, 64
2, 45791, Note_on_c, 1, 80, 0
2, 45792, Note_on_c, 1, 76, 64
2, 45859, Note_on_c, 1, 76, 0
2, 45864, Note_on_c, 1, 77, 64
2, 45887, Note_on_c, 1, 77, 0
2, 45888, Note_on_c, 1, 77, 64
2, 46065, Note_on_c, 1, 77, 0
2, 46065, End_track
3, 0, Start_track
3, 0, MIDI_port, 0
3, 0, Title_t, "Clavier (RH)"
3, 0, Program_c, 0, 6
3, 0, Control_c, 0, 7, 127
3, 1536, Note_on_c, 0, 72, 64
3, 1713, Note_on_c, 0, 72, 0
3, 1728, Note_on_c, 0, 74, 64
3, 1905, Note_on_c, 0, 74, 0
3, 1920, Note_on_c, 0, 75, 64
3, 1965, Note_on_c, 0, 75, 0
3, 1968, Note_on_c, 0, 74, 64
3, 1991, Note_on_c, 0, 74, 0
3, 1992, Note_on_c, 0, 72, 64
3, 2015, Note_on_c, 0, 72, 0
3, 2016, Note_on_c, 0, 71, 64
3, 2061, Note_on_c, 0, 71, 0
3, 2064, Note_on_c, 0, 74, 64
3, 2109, Note_on_c, 0, 74, 0
3, 2112, Note_on_c, 0, 67, 64
3, 2201, Note_on_c, 0, 67, 0
3, 2208, Note_on_c, 0, 79, 64
3, 2349, Note_on_c, 0, 79, 0
3, 2352, Note_on_c, 0, 77, 64
3, 2375, Note_on_c, 0, 77, 0
3, 2376, Note_on_c, 0, 75, 64
3, 2399, Note_on_c, 0, 75, 0
3, 2400, Note_on_c, 0, 74, 64
3, 2445, Note_on_c, 0, 74, 0
3, 2448, Note_on_c, 0, 77, 64
3, 2493, Note_on_c, 0, 77, 0
3, 2496, Note_on_c, 0, 71, 64
3, 2541, Note_on_c, 0, 71, 0
3, 2544, Note_on_c, 0, 67, 64
3, 2589, Note_on_c, 0, 67, 0
3, 2592, Note_on_c, 0, 72, 64
3, 2711, Note_on_c, 0, 72, 0
3, 2712, Note_on_c, 0, 75, 64
3, 2735, Note_on_c, 0, 75, 0
3, 2736, Note_on_c, 0, 74, 64
3, 2759, Note_on_c, 0, 74, 0
3, 2760, Note_on_c, 0, 72, 64
3, 2783, Note_on_c, 0, 72, 0
3, 2784, Note_on_c, 0, 71, 64
3, 2807, Note_on_c, 0, 71, 0
3, 2808, Note_on_c, 0, 72, 64
3, 2831, Note_on_c, 0, 72, 0
3, 2832, Note_on_c, 0, 69, 64
3, 2855, Note_on_c, 0, 69, 0
3, 2856, Note_on_c, 0, 71, 64
3, 2879, Note_on_c, 0, 71, 0
3, 2880, Note_on_c, 0, 72, 64
3, 2903, Note_on_c, 0, 72, 0
3, 2904, Note_on_c, 0, 74, 64
3, 2927, Note_on_c, 0, 74, 0
3, 2928, Note_on_c, 0, 72, 64
3, 2951, Note_on_c, 0, 72, 0
3, 2952, Note_on_c, 0, 70, 64
3, 2975, Note_on_c, 0, 70, 0
3, 2976, Note_on_c, 0, 69, 64
3, 2999, Note_on_c, 0, 69, 0
3, 3000, Note_on_c, 0, 70, 64
3, 3023, Note_on_c, 0, 70, 0
3, 3024, Note_on_c, 0, 67, 64
3, 3047, Note_on_c, 0, 67, 0
3, 3048, Note_on_c, 0, 69, 64
3, 3071, Note_on_c, 0, 69, 0
3, 3072, Note_on_c, 0, 70, 64
3, 3095, Note_on_c, 0, 70, 0
3, 3096, Note_on_c, 0, 72, 64
3, 3119, Note_on_c, 0, 72, 0
3, 3120, Note_on_c, 0, 70, 64
3, 3143, Note_on_c, 0, 70, 0
3, 3144, Note_on_c, 0, 68, 64
3, 3167, Note_on_c, 0, 68, 0
3, 3168, Note_on_c, 0, 67, 64
3, 3191, Note_on_c, 0, 67, 0
3, 3192, Note_on_c, 0, 68, 64
3, 3215, Note_on_c, 0, 68, 0
3, 3216, Note_on_c, 0, 65, 64
3, 3239, Note_on_c, 0, 65, 0
3, 3240, Note_on_c, 0, 67, 64
3, 3263, Note_on_c, 0, 67, 0
3, 3264, Note_on_c, 0, 68, 64
3, 3287, Note_on_c, 0, 68, 0
3, 3288, Note_on_c, 0, 70, 64
3, 3311, Note_on_c, 0, 70, 0
3, 3312, Note_on_c, 0, 68, 64
3, 3335, Note_on_c, 0, 68, 0
3, 3336, Note_on_c, 0, 67, 64
3, 3359, Note_on_c, 0, 67, 0
3, 3360, Note_on_c, 0, 65, 64
3, 3383, Note_on_c, 0, 65, 0
3, 3384, Note_on_c, 0, 67, 64
3, 3407, Note_on_c, 0, 67, 0
3, 3408, Note_on_c, 0, 64, 64
3, 3431, Note_on_c, 0, 64, 0
3, 3432, Note_on_c, 0, 65, 64
3, 3455, Note_on_c, 0, 65, 0
3, 3456, Note_on_c, 0, 67, 64
3, 3479, Note_on_c, 0, 67, 0
3, 3480, Note_on_c, 0, 68, 64
3, 3503, Note_on_c, 0, 68, 0
3, 3504, Note_on_c, 0, 67, 64
3, 3527, Note_on_c, 0, 67, 0
3, 3528, Note_on_c, 0, 65, 64
3, 3551, Note_on_c, 0, 65, 0
3, 3552, Note_on_c, 0, 64, 64
3, 3575, Note_on_c, 0, 64, 0
3, 3576, Note_on_c, 0, 65, 64
3, 3599, Note_on_c, 0, 65, 0
3, 3600, Note_on_c, 0, 62, 64
3, 3623, Note_on_c, 0, 62, 0
3, 3624, Note_on_c, 0, 64, 64
3, 3647, Note_on_c, 0, 64, 0
3, 3648, Note_on_c, 0, 65, 64
3, 3693, Note_on_c, 0, 65, 0
3, 3696, Note_on_c, 0, 72, 64
3, 3741, Note_on_c, 0, 72, 0
3, 3744, Note_on_c, 0, 77, 64
3, 3863, Note_on_c, 0, 77, 0
3, 3864, Note_on_c, 0, 80, 64
3, 3887, Note_on_c, 0, 80, 0
3, 3888, Note_on_c, 0, 79, 64
3, 3911, Note_on_c, 0, 79, 0
3, 3912, Note_on_c, 0, 77, 64
3, 3935, Note_on_c, 0, 77, 0
3, 3936, Note_on_c, 0, 76, 64
3, 3959, Note_on_c, 0, 76, 0
3, 3960, Note_on_c, 0, 77, 64
3, 3983, Note_on_c, 0, 77, 0
3, 3984, Note_on_c, 0, 74, 64
3, 4007, Note_on_c, 0, 74, 0
3, 4008, Note_on_c, 0, 76, 64
3, 4031, Note_on_c, 0, 76, 0
3, 4032, Note_on_c, 0, 77, 64
3, 4055, Note_on_c, 0, 77, 0
3, 4056, Note_on_c, 0, 72, 64
3, 4079, Note_on_c, 0, 72, 0
3, 4080, Note_on_c, 0, 70, 64
3, 4103, Note_on_c, 0, 70, 0
3, 4104, Note_on_c, 0, 68, 64
3, 4127, Note_on_c, 0, 68, 0
3, 4128, Note_on_c, 0, 67, 64
3, 4151, Note_on_c, 0, 67, 0
3, 4152, Note_on_c, 0, 68, 64
3, 4175, Note_on_c, 0, 68, 0
3, 4176, Note_on_c, 0, 65, 64
3, 4199, Note_on_c, 0, 65, 0
3, 4200, Note_on_c, 0, 67, 64
3, 4223, Note_on_c, 0, 67, 0
3, 4224, Note_on_c, 0, 68, 64
3, 4269, Note_on_c, 0, 68, 0
3, 4272, Note_on_c, 0, 65, 64
3, 4295, Note_on_c, 0, 65, 0
3, 4296, Note_on_c, 0, 67, 64
3, 4319, Note_on_c, 0, 67, 0
3, 4320, Note_on_c, 0, 68, 64
3, 4365, Note_on_c, 0, 68, 0
3, 4368, Note_on_c, 0, 70, 64
3, 4391, Note_on_c, 0, 70, 0
3, 4392, Note_on_c, 0, 72, 64
3, 4415, Note_on_c, 0, 72, 0
3, 4416, Note_on_c, 0, 73, 64
3, 4439, Note_on_c, 0, 73, 0
3, 4440, Note_on_c, 0, 75, 64
3, 4463, Note_on_c, 0, 75, 0
3, 4464, Note_on_c, 0, 73, 64
3, 4487, Note_on_c, 0, 73, 0
3, 4488, Note_on_c, 0, 72, 64
3, 4511, Note_on_c, 0, 72, 0
3, 4512, Note_on_c, 0, 70, 64
3, 4535, Note_on_c, 0, 70, 0
3, 4536, Note_on_c, 0, 72, 64
3, 4559, Note_on_c, 0, 72, 0
3, 4560, Note_on_c, 0, 68, 64
3, 4583, Note_on_c, 0, 68, 0
3, 4584, Note_on_c, 0, 70, 64
3, 4607, Note_on_c, 0, 70, 0
3, 4608, Note_on_c, 0, 72, 64
3, 4631, Note_on_c, 0, 72, 0
3, 4632, Note_on_c, 0, 73, 64
3, 4655, Note_on_c, 0, 73, 0
3, 4656, Note_on_c, 0, 72, 64
3, 4679, Note_on_c, 0, 72, 0
3, 4680, Note_on_c, 0, 70, 64
3, 4703, Note_on_c, 0, 70, 0
3, 4704, Note_on_c, 0, 68, 64
3, 4727, Note_on_c, 0, 68, 0
3, 4728, Note_on_c, 0, 70, 64
3, 4751, Note_on_c, 0, 70, 0
3, 4752, Note_on_c, 0, 67, 64
3, 4775, Note_on_c, 0, 67, 0
3, 4776, Note_on_c, 0, 68, 64
3, 4799, Note_on_c, 0, 68, 0
3, 4800, Note_on_c, 0, 70, 64
3, 4823, Note_on_c, 0, 70, 0
3, 4824, Note_on_c, 0, 72, 64
3, 4847, Note_on_c, 0, 72, 0
3, 4848, Note_on_c, 0, 70, 64
3, 4871, Note_on_c, 0, 70, 0
3, 4872, Note_on_c, 0, 68, 64
3, 4895, Note_on_c, 0, 68, 0
3, 4896, Note_on_c, 0, 67, 64
3, 4919, Note_on_c, 0, 67, 0
3, 4920, Note_on_c, 0, 68, 64
3, 4943, Note_on_c, 0, 68, 0
3, 4944, Note_on_c, 0, 65, 64
3, 4967, Note_on_c, 0, 65, 0
3, 4968, Note_on_c, 0, 67, 64
3, 4991, Note_on_c, 0, 67, 0
3, 4992, Note_on_c, 0, 68, 64
3, 5037, Note_on_c, 0, 68, 0
3, 5040, Note_on_c, 0, 77, 64
3, 5129, Note_on_c, 0, 77, 0
3, 5136, Note_on_c, 0, 68, 64
3, 5181, Note_on_c, 0, 68, 0
3, 5184, Note_on_c, 0, 67, 64
3, 5229, Note_on_c, 0, 67, 0
3, 5232, Note_on_c, 0, 72, 64
3, 5255, Note_on_c, 0, 72, 0
3, 5256, Note_on_c, 0, 73, 64
3, 5279, Note_on_c, 0, 73, 0
3, 5280, Note_on_c, 0, 75, 64
3, 5325, Note_on_c, 0, 75, 0
3, 5328, Note_on_c, 0, 67, 64
3, 5373, Note_on_c, 0, 67, 0
3, 5376, Note_on_c, 0, 65, 64
3, 5421, Note_on_c, 0, 65, 0
3, 5424, Note_on_c, 0, 73, 64
3, 5513, Note_on_c, 0, 73, 0
3, 5520, Note_on_c, 0, 65, 64
3, 5565, Note_on_c, 0, 65, 0
3, 5568, Note_on_c, 0, 63, 64
3, 5613, Note_on_c, 0, 63, 0
3, 5616, Note_on_c, 0, 68, 64
3, 5639, Note_on_c, 0, 68, 0
3, 5640, Note_on_c, 0, 70, 64
3, 5663, Note_on_c, 0, 70, 0
3, 5664, Note_on_c, 0, 72, 64
3, 5709, Note_on_c, 0, 72, 0
3, 5712, Note_on_c, 0, 63, 64
3, 5757, Note_on_c, 0, 63, 0
3, 5760, Note_on_c, 0, 61, 64
3, 5805, Note_on_c, 0, 61, 0
3, 5808, Note_on_c, 0, 70, 64
3, 5897, Note_on_c, 0, 70, 0
3, 5904, Note_on_c, 0, 61, 64
3, 5949, Note_on_c, 0, 61, 0
3, 5952, Note_on_c, 0, 60, 64
3, 6041, Note_on_c, 0, 60, 0
3, 6168, Note_on_c, 0, 63, 64
3, 6191, Note_on_c, 0, 63, 0
3, 6192, Note_on_c, 0, 68, 64
3, 6215, Note_on_c, 0, 68, 0
3, 6216, Note_on_c, 0, 72, 64
3, 6239, Note_on_c, 0, 72, 0
3, 6240, Note_on_c, 0, 70, 64
3, 6263, Note_on_c, 0, 70, 0
3, 6264, Note_on_c, 0, 63, 64
3, 6287, Note_on_c, 0, 63, 0
3, 6288, Note_on_c, 0, 70, 64
3, 6311, Note_on_c, 0, 70, 0
3, 6312, Note_on_c, 0, 73, 64
3, 6335, Note_on_c, 0, 73, 0
3, 6336, Note_on_c, 0, 72, 64
3, 6425, Note_on_c, 0, 72, 0
3, 6552, Note_on_c, 0, 68, 64
3, 6575, Note_on_c, 0, 68, 0
3, 6576, Note_on_c, 0, 72, 64
3, 6599, Note_on_c, 0, 72, 0
3, 6600, Note_on_c, 0, 75, 64
3, 6623, Note_on_c, 0, 75, 0
3, 6624, Note_on_c, 0, 73, 64
3, 6647, Note_on_c, 0, 73, 0
3, 6648, Note_on_c, 0, 68, 64
3, 6671, Note_on_c, 0, 68, 0
3, 6672, Note_on_c, 0, 73, 64
3, 6695, Note_on_c, 0, 73, 0
3, 6696, Note_on_c, 0, 77, 64
3, 6719, Note_on_c, 0, 77, 0
3, 6720, Note_on_c, 0, 70, 64
3, 6809, Note_on_c, 0, 70, 0
3, 6840, Note_on_c, 0, 75, 64
3, 6863, Note_on_c, 0, 75, 0
3, 6864, Note_on_c, 0, 73, 64
3, 6887, Note_on_c, 0, 73, 0
3, 6888, Note_on_c, 0, 75, 64
3, 6911, Note_on_c, 0, 75, 0
3, 6912, Note_on_c, 0, 77, 64
3, 6935, Note_on_c, 0, 77, 0
3, 6936, Note_on_c, 0, 79, 64
3, 6959, Note_on_c, 0, 79, 0
3, 6960, Note_on_c, 0, 77, 64
3, 6983, Note_on_c, 0, 77, 0
3, 6984, Note_on_c, 0, 75, 64
3, 7007, Note_on_c, 0, 75, 0
3, 7008, Note_on_c, 0, 73, 64
3, 7031, Note_on_c, 0, 73, 0
3, 7032, Note_on_c, 0, 75, 64
3, 7055, Note_on_c, 0, 75, 0
3, 7056, Note_on_c, 0, 72, 64
3, 7079, Note_on_c, 0, 72, 0
3, 7080, Note_on_c, 0, 73, 64
3, 7103, Note_on_c, 0, 73, 0
3, 7104, Note_on_c, 0, 75, 64
3, 7127, Note_on_c, 0, 75, 0
3, 7128, Note_on_c, 0, 77, 64
3, 7151, Note_on_c, 0, 77, 0
3, 7152, Note_on_c, 0, 75, 64
3, 7175, Note_on_c, 0, 75, 0
3, 7176, Note_on_c, 0, 73, 64
3, 7199, Note_on_c, 0, 73, 0
3, 7200, Note_on_c, 0, 72, 64
3, 7223, Note_on_c, 0, 72, 0
3, 7224, Note_on_c, 0, 73, 64
3, 7247, Note_on_c, 0, 73, 0
3, 7248, Note_on_c, 0, 70, 64
3, 7271, Note_on_c, 0, 70, 0
3, 7272, Note_on_c, 0, 72, 64
3, 7295, Note_on_c, 0, 72, 0
3, 7296, Note_on_c, 0, 73, 64
3, 7341, Note_on_c, 0, 73, 0
3, 7344, Note_on_c, 0, 70, 64
3, 7367, Note_on_c, 0, 70, 0
3, 7368, Note_on_c, 0, 67, 64
3, 7391, Note_on_c, 0, 67, 0
3, 7392, Note_on_c, 0, 79, 64
3, 7533, Note_on_c, 0, 79, 0
3, 7536, Note_on_c, 0, 77, 64
3, 7559, Note_on_c, 0, 77, 0
3, 7560, Note_on_c, 0, 75, 64
3, 7583, Note_on_c, 0, 75, 0
3, 7584, Note_on_c, 0, 74, 64
3, 7629, Note_on_c, 0, 74, 0
3, 7632, Note_on_c, 0, 77, 64
3, 7677, Note_on_c, 0, 77, 0
3, 7680, Note_on_c, 0, 70, 64
3, 7769, Note_on_c, 0, 70, 0
3, 7776, Note_on_c, 0, 75, 64
3, 7865, Note_on_c, 0, 75, 0
3, 7872, Note_on_c, 0, 75, 64
3, 7917, Note_on_c, 0, 75, 0
3, 7920, Note_on_c, 0, 72, 64
3, 7943, Note_on_c, 0, 72, 0
3, 7944, Note_on_c, 0, 72, 64
3, 7967, Note_on_c, 0, 72, 0
3, 7968, Note_on_c, 0, 70, 64
3, 8013, Note_on_c, 0, 70, 0
3, 8016, Note_on_c, 0, 72, 64
3, 8061, Note_on_c, 0, 72, 0
3, 8064, Note_on_c, 0, 67, 64
3, 8109, Note_on_c, 0, 67, 0
3, 8112, Note_on_c, 0, 63, 64
3, 8157, Note_on_c, 0, 63, 0
3, 8208, Note_on_c, 0, 82, 64
3, 8301, Note_on_c, 0, 82, 0
3, 8304, Note_on_c, 0, 80, 64
3, 8393, Note_on_c, 0, 80, 0
3, 8400, Note_on_c, 0, 79, 64
3, 8471, Note_on_c, 0, 79, 0
3, 8472, Note_on_c, 0, 82, 64
3, 8495, Note_on_c, 0, 82, 0
3, 8496, Note_on_c, 0, 80, 64
3, 8519, Note_on_c, 0, 80, 0
3, 8520, Note_on_c, 0, 79, 64
3, 8543, Note_on_c, 0, 79, 0
3, 8544, Note_on_c, 0, 77, 64
3, 8633, Note_on_c, 0, 77, 0
3, 8640, Note_on_c, 0, 77, 64
3, 8663, Note_on_c, 0, 77, 0
3, 8664, Note_on_c, 0, 79, 64
3, 8687, Note_on_c, 0, 79, 0
3, 8688, Note_on_c, 0, 77, 64
3, 8711, Note_on_c, 0, 77, 0
3, 8712, Note_on_c, 0, 75, 64
3, 8735, Note_on_c, 0, 75, 0
3, 8736, Note_on_c, 0, 74, 64
3, 8759, Note_on_c, 0, 74, 0
3, 8760, Note_on_c, 0, 72, 64
3, 8783, Note_on_c, 0, 72, 0
3, 8784, Note_on_c, 0, 71, 64
3, 8807, Note_on_c, 0, 71, 0
3, 8808, Note_on_c, 0, 74, 64
3, 8831, Note_on_c, 0, 74, 0
3, 8832, Note_on_c, 0, 67, 64
3, 8855, Note_on_c, 0, 67, 0
3, 8856, Note_on_c, 0, 77, 64
3, 8879, Note_on_c, 0, 77, 0
3, 8880, Note_on_c, 0, 75, 64
3, 8903, Note_on_c, 0, 75, 0
3, 8904, Note_on_c, 0, 74, 64
3, 8927, Note_on_c, 0, 74, 0
3, 8928, Note_on_c, 0, 71, 64
3, 8995, Note_on_c, 0, 71, 0
3, 9000, Note_on_c, 0, 72, 64
3, 9023, Note_on_c, 0, 72, 0
3, 9024, Note_on_c, 0, 72, 64
3, 9201, Note_on_c, 0, 72, 0
3, 10752, Note_on_c, 0, 72, 64
3, 10929, Note_on_c, 0, 72, 0
3, 10944, Note_on_c, 0, 74, 64
3, 11121, Note_on_c, 0, 74, 0
3, 11136, Note_on_c, 0, 75, 64
3, 11181, Note_on_c, 0, 75, 0
3, 11184, Note_on_c, 0, 74, 64
3, 11207, Note_on_c, 0, 74, 0
3, 11208, Note_on_c, 0, 72, 64
3, 11231, Note_on_c, 0, 72, 0
3, 11232, Note_on_c, 0, 71, 64
3, 11277, Note_on_c, 0, 71, 0
3, 11280, Note_on_c, 0, 74, 64
3, 11325, Note_on_c, 0, 74, 0
3, 11328, Note_on_c, 0, 67, 64
3, 11417, Note_on_c, 0, 67, 0
3, 11424, Note_on_c, 0, 79, 64
3, 11565, Note_on_c, 0, 79, 0
3, 11568, Note_on_c, 0, 77, 64
3, 11591, Note_on_c, 0, 77, 0
3, 11592, Note_on_c, 0, 75, 64
3, 11615, Note_on_c, 0, 75, 0
3, 11616, Note_on_c, 0, 74, 64
3, 11661, Note_on_c, 0, 74, 0
3, 11664, Note_on_c, 0, 77, 64
3, 11709, Note_on_c, 0, 77, 0
3, 11712, Note_on_c, 0, 71, 64
3, 11757, Note_on_c, 0, 71, 0
3, 11760, Note_on_c, 0, 67, 64
3, 11805, Note_on_c, 0, 67, 0
3, 11808, Note_on_c, 0, 72, 64
3, 11927, Note_on_c, 0, 72, 0
3, 11928, Note_on_c, 0, 75, 64
3, 11951, Note_on_c, 0, 75, 0
3, 11952, Note_on_c, 0, 74, 64
3, 11975, Note_on_c, 0, 74, 0
3, 11976, Note_on_c, 0, 72, 64
3, 11999, Note_on_c, 0, 72, 0
3, 12000, Note_on_c, 0, 71, 64
3, 12023, Note_on_c, 0, 71, 0
3, 12024, Note_on_c, 0, 72, 64
3, 12047, Note_on_c, 0, 72, 0
3, 12048, Note_on_c, 0, 69, 64
3, 12071, Note_on_c, 0, 69, 0
3, 12072, Note_on_c, 0, 71, 64
3, 12095, Note_on_c, 0, 71, 0
3, 12096, Note_on_c, 0, 72, 64
3, 12119, Note_on_c, 0, 72, 0
3, 12120, Note_on_c, 0, 74, 64
3, 12143, Note_on_c, 0, 74, 0
3, 12144, Note_on_c, 0, 72, 64
3, 12167, Note_on_c, 0, 72, 0
3, 12168, Note_on_c, 0, 70, 64
3, 12191, Note_on_c, 0, 70, 0
3, 12192, Note_on_c, 0, 69, 64
3, 12215, Note_on_c, 0, 69, 0
3, 12216, Note_on_c, 0, 70, 64
3, 12239, Note_on_c, 0, 70, 0
3, 12240, Note_on_c, 0, 67, 64
3, 12263, Note_on_c, 0, 67, 0
3, 12264, Note_on_c, 0, 69, 64
3, 12287, Note_on_c, 0, 69, 0
3, 12288, Note_on_c, 0, 70, 64
3, 12311, Note_on_c, 0, 70, 0
3, 12312, Note_on_c, 0, 72, 64
3, 12335, Note_on_c, 0, 72, 0
3, 12336, Note_on_c, 0, 70, 64
3, 12359, Note_on_c, 0, 70, 0
3, 12360, Note_on_c, 0, 68, 64
3, 12383, Note_on_c, 0, 68, 0
3, 12384, Note_on_c, 0, 67, 64
3, 12407, Note_on_c, 0, 67, 0
3, 12408, Note_on_c, 0, 68, 64
3, 12431, Note_on_c, 0, 68, 0
3, 12432, Note_on_c, 0, 65, 64
3, 12455, Note_on_c, 0, 65, 0
3, 12456, Note_on_c, 0, 67, 64
3, 12479, Note_on_c, 0, 67, 0
3, 12480, Note_on_c, 0, 68, 64
3, 12503, Note_on_c, 0, 68, 0
3, 12504, Note_on_c, 0, 70, 64
3, 12527, Note_on_c, 0, 70, 0
3, 12528, Note_on_c, 0, 68, 64
3, 12551, Note_on_c, 0, 68, 0
3, 12552, Note_on_c, 0, 67, 64
3, 12575, Note_on_c, 0, 67, 0
3, 12576, Note_on_c, 0, 65, 64
3, 12599, Note_on_c, 0, 65, 0
3, 12600, Note_on_c, 0, 67, 64
3, 12623, Note_on_c, 0, 67, 0
3, 12624, Note_on_c, 0, 64, 64
3, 12647, Note_on_c, 0, 64, 0
3, 12648, Note_on_c, 0, 65, 64
3, 12671, Note_on_c, 0, 65, 0
3, 12672, Note_on_c, 0, 67, 64
3, 12695, Note_on_c, 0, 67, 0
3, 12696, Note_on_c, 0, 68, 64
3, 12719, Note_on_c, 0, 68, 0
3, 12720, Note_on_c, 0, 67, 64
3, 12743, Note_on_c, 0, 67, 0
3, 12744, Note_on_c, 0, 65, 64
3, 12767, Note_on_c, 0, 65, 0
3, 12768, Note_on_c, 0, 64, 64
3, 12791, Note_on_c, 0, 64, 0
3, 12792, Note_on_c, 0, 65, 64
3, 12815, Note_on_c, 0, 65, 0
3, 12816, Note_on_c, 0, 62, 64
3, 12839, Note_on_c, 0, 62, 0
3, 12840, Note_on_c, 0, 64, 64
3, 12863, Note_on_c, 0, 64, 0
3, 12864, Note_on_c, 0, 65, 64
3, 12909, Note_on_c, 0, 65, 0
3, 12912, Note_on_c, 0, 72, 64
3, 12957, Note_on_c, 0, 72, 0
3, 12960, Note_on_c, 0, 77, 64
3, 13079, Note_on_c, 0, 77, 0
3, 13080, Note_on_c, 0, 80, 64
3, 13103, Note_on_c, 0, 80, 0
3, 13104, Note_on_c, 0, 79, 64
3, 13127, Note_on_c, 0, 79, 0
3, 13128, Note_on_c, 0, 77, 64
3, 13151, Note_on_c, 0, 77, 0
3, 13152, Note_on_c, 0, 76, 64
3, 13175, Note_on_c, 0, 76, 0
3, 13176, Note_on_c, 0, 77, 64
3, 13199, Note_on_c, 0, 77, 0
3, 13200, Note_on_c, 0, 74, 64
3, 13223, Note_on_c, 0, 74, 0
3, 13224, Note_on_c, 0, 76, 64
3, 13247, Note_on_c, 0, 76, 0
3, 13248, Note_on_c, 0, 77, 64
3, 13271, Note_on_c, 0, 77, 0
3, 13272, Note_on_c, 0, 72, 64
3, 13295, Note_on_c, 0, 72, 0
3, 13296, Note_on_c, 0, 70, 64
3, 13319, Note_on_c, 0, 70, 0
3, 13320, Note_on_c, 0, 68, 64
3, 13343, Note_on_c, 0, 68, 0
3, 13344, Note_on_c, 0, 67, 64
3, 13367, Note_on_c, 0, 67, 0
3, 13368, Note_on_c, 0, 68, 64
3, 13391, Note_on_c, 0, 68, 0
3, 13392, Note_on_c, 0, 65, 64
3, 13415, Note_on_c, 0, 65, 0
3, 13416, Note_on_c, 0, 67, 64
3, 13439, Note_on_c, 0, 67, 0
3, 13440, Note_on_c, 0, 68, 64
3, 13485, Note_on_c, 0, 68, 0
3, 13488, Note_on_c, 0, 65, 64
3, 13511, Note_on_c, 0, 65, 0
3, 13512, Note_on_c, 0, 67, 64
3, 13535, Note_on_c, 0, 67, 0
3, 13536, Note_on_c, 0, 68, 64
3, 13581, Note_on_c, 0, 68, 0
3, 13584, Note_on_c, 0, 70, 64
3, 13607, Note_on_c, 0, 70, 0
3, 13608, Note_on_c, 0, 72, 64
3, 13631, Note_on_c, 0, 72, 0
3, 13632, Note_on_c, 0, 73, 64
3, 13655, Note_on_c, 0, 73, 0
3, 13656, Note_on_c, 0, 75, 64
3, 13679, Note_on_c, 0, 75, 0
3, 13680, Note_on_c, 0, 73, 64
3, 13703, Note_on_c, 0, 73, 0
3, 13704, Note_on_c, 0, 72, 64
3, 13727, Note_on_c, 0, 72, 0
3, 13728, Note_on_c, 0, 70, 64
3, 13751, Note_on_c, 0, 70, 0
3, 13752, Note_on_c, 0, 72, 64
3, 13775, Note_on_c, 0, 72, 0
3, 13776, Note_on_c, 0, 68, 64
3, 13799, Note_on_c, 0, 68, 0
3, 13800, Note_on_c, 0, 70, 64
3, 13823, Note_on_c, 0, 70, 0
3, 13824, Note_on_c, 0, 72, 64
3, 13847, Note_on_c, 0, 72, 0
3, 13848, Note_on_c, 0, 73, 64
3, 13871, Note_on_c, 0, 73, 0
3, 13872, Note_on_c, 0, 72, 64
3, 13895, Note_on_c, 0, 72, 0
3, 13896, Note_on_c, 0, 70, 64
3, 13919, Note_on_c, 0, 70, 0
3, 13920, Note_on_c, 0, 68, 64
3, 13943, Note_on_c, 0, 68, 0
3, 13944, Note_on_c, 0, 70, 64
3, 13967, Note_on_c, 0, 70, 0
3, 13968, Note_on_c, 0, 67, 64
3, 13991, Note_on_c, 0, 67, 0
3, 13992, Note_on_c, 0, 68, 64
3, 14015, Note_on_c, 0, 68, 0
3, 14016, Note_on_c, 0, 70, 64
3, 14039, Note_on_c, 0, 70, 0
3, 14040, Note_on_c, 0, 72, 64
3, 14063, Note_on_c, 0, 72, 0
3, 14064, Note_on_c, 0, 70, 64
3, 14087, Note_on_c, 0, 70, 0
3, 14088, Note_on_c, 0, 68, 64
3, 14111, Note_on_c, 0, 68, 0
3, 14112, Note_on_c, 0, 67, 64
3, 14135, Note_on_c, 0, 67, 0
3, 14136, Note_on_c, 0, 68, 64
3, 14159, Note_on_c, 0, 68, 0
3, 14160, Note_on_c, 0, 65, 64
3, 14183, Note_on_c, 0, 65, 0
3, 14184, Note_on_c, 0, 67, 64
3, 14207, Note_on_c, 0, 67, 0
3, 14208, Note_on_c, 0, 68, 64
3, 14253, Note_on_c, 0, 68, 0
3, 14256, Note_on_c, 0, 77, 64
3, 14345, Note_on_c, 0, 77, 0
3, 14352, Note_on_c, 0, 68, 64
3, 14397, Note_on_c, 0, 68, 0
3, 14400, Note_on_c, 0, 67, 64
3, 14445, Note_on_c, 0, 67, 0
3, 14448, Note_on_c, 0, 72, 64
3, 14471, Note_on_c, 0, 72, 0
3, 14472, Note_on_c, 0, 73, 64
3, 14495, Note_on_c, 0, 73, 0
3, 14496, Note_on_c, 0, 75, 64
3, 14541, Note_on_c, 0, 75, 0
3, 14544, Note_on_c, 0, 67, 64
3, 14589, Note_on_c, 0, 67, 0
3, 14592, Note_on_c, 0, 65, 64
3, 14637, Note_on_c, 0, 65, 0
3, 14640, Note_on_c, 0, 73, 64
3, 14729, Note_on_c, 0, 73, 0
3, 14736, Note_on_c, 0, 65, 64
3, 14781, Note_on_c, 0, 65, 0
3, 14784, Note_on_c, 0, 63, 64
3, 14829, Note_on_c, 0, 63, 0
3, 14832, Note_on_c, 0, 68, 64
3, 14855, Note_on_c, 0, 68, 0
3, 14856, Note_on_c, 0, 70, 64
3, 14879, Note_on_c, 0, 70, 0
3, 14880, Note_on_c, 0, 72, 64
3, 14925, Note_on_c, 0, 72, 0
3, 14928, Note_on_c, 0, 63, 64
3, 14973, Note_on_c, 0, 63, 0
3, 14976, Note_on_c, 0, 61, 64
3, 15021, Note_on_c, 0, 61, 0
3, 15024, Note_on_c, 0, 70, 64
3, 15113, Note_on_c, 0, 70, 0
3, 15120, Note_on_c, 0, 61, 64
3, 15165, Note_on_c, 0, 61, 0
3, 15168, Note_on_c, 0, 60, 64
3, 15257, Note_on_c, 0, 60, 0
3, 15384, Note_on_c, 0, 63, 64
3, 15407, Note_on_c, 0, 63, 0
3, 15408, Note_on_c, 0, 68, 64
3, 15431, Note_on_c, 0, 68, 0
3, 15432, Note_on_c, 0, 72, 64
3, 15455, Note_on_c, 0, 72, 0
3, 15456, Note_on_c, 0, 70, 64
3, 15479, Note_on_c, 0, 70, 0
3, 15480, Note_on_c, 0, 63, 64
3, 15503, Note_on_c, 0, 63, 0
3, 15504, Note_on_c, 0, 70, 64
3, 15527, Note_on_c, 0, 70, 0
3, 15528, Note_on_c, 0, 73, 64
3, 15551, Note_on_c, 0, 73, 0
3, 15552, Note_on_c, 0, 72, 64
3, 15641, Note_on_c, 0, 72, 0
3, 15768, Note_on_c, 0, 68, 64
3, 15791, Note_on_c, 0, 68, 0
3, 15792, Note_on_c, 0, 72, 64
3, 15815, Note_on_c, 0, 72, 0
3, 15816, Note_on_c, 0, 75, 64
3, 15839, Note_on_c, 0, 75, 0
3, 15840, Note_on_c, 0, 73, 64
3, 15863, Note_on_c, 0, 73, 0
3, 15864, Note_on_c, 0, 68, 64
3, 15887, Note_on_c, 0, 68, 0
3, 15888, Note_on_c, 0, 73, 64
3, 15911, Note_on_c, 0, 73, 0
3, 15912, Note_on_c, 0, 77, 64
3, 15935, Note_on_c, 0, 77, 0
3, 15936, Note_on_c, 0, 70, 64
3, 16025, Note_on_c, 0, 70, 0
3, 16056, Note_on_c, 0, 75, 64
3, 16079, Note_on_c, 0, 75, 0
3, 16080, Note_on_c, 0, 73, 64
3, 16103, Note_on_c, 0, 73, 0
3, 16104, Note_on_c, 0, 75, 64
3, 16127, Note_on_c, 0, 75, 0
3, 16128, Note_on_c, 0, 77, 64
3, 16151, Note_on_c, 0, 77, 0
3, 16152, Note_on_c, 0, 79, 64
3, 16175, Note_on_c, 0, 79, 0
3, 16176, Note_on_c, 0, 77, 64
3, 16199, Note_on_c, 0, 77, 0
3, 16200, Note_on_c, 0, 75, 64
3, 16223, Note_on_c, 0, 75, 0
3, 16224, Note_on_c, 0, 73, 64
3, 16247, Note_on_c, 0, 73, 0
3, 16248, Note_on_c, 0, 75, 64
3, 16271, Note_on_c, 0, 75, 0
3, 16272, Note_on_c, 0, 72, 64
3, 16295, Note_on_c, 0, 72, 0
3, 16296, Note_on_c, 0, 73, 64
3, 16319, Note_on_c, 0, 73, 0
3, 16320, Note_on_c, 0, 75, 64
3, 16343, Note_on_c, 0, 75, 0
3, 16344, Note_on_c, 0, 77, 64
3, 16367, Note_on_c, 0, 77, 0
3, 16368, Note_on_c, 0, 75, 64
3, 16391, Note_on_c, 0, 75, 0
3, 16392, Note_on_c, 0, 73, 64
3, 16415, Note_on_c, 0, 73, 0
3, 16416, Note_on_c, 0, 72, 64
3, 16439, Note_on_c, 0, 72, 0
3, 16440, Note_on_c, 0, 73, 64
3, 16463, Note_on_c, 0, 73, 0
3, 16464, Note_on_c, 0, 70, 64
3, 16487, Note_on_c, 0, 70, 0
3, 16488, Note_on_c, 0, 72, 64
3, 16511, Note_on_c, 0, 72, 0
3, 16512, Note_on_c, 0, 73, 64
3, 16557, Note_on_c, 0, 73, 0
3, 16560, Note_on_c, 0, 70, 64
3, 16583, Note_on_c, 0, 70, 0
3, 16584, Note_on_c, 0, 67, 64
3, 16607, Note_on_c, 0, 67, 0
3, 16608, Note_on_c, 0, 79, 64
3, 16749, Note_on_c, 0, 79, 0
3, 16752, Note_on_c, 0, 77, 64
3, 16775, Note_on_c, 0, 77, 0
3, 16776, Note_on_c, 0, 75, 64
3, 16799, Note_on_c, 0, 75, 0
3, 16800, Note_on_c, 0, 74, 64
3, 16845, Note_on_c, 0, 74, 0
3, 16848, Note_on_c, 0, 77, 64
3, 16893, Note_on_c, 0, 77, 0
3, 16896, Note_on_c, 0, 70, 64
3, 16985, Note_on_c, 0, 70, 0
3, 16992, Note_on_c, 0, 75, 64
3, 17081, Note_on_c, 0, 75, 0
3, 17088, Note_on_c, 0, 75, 64
3, 17133, Note_on_c, 0, 75, 0
3, 17136, Note_on_c, 0, 72, 64
3, 17159, Note_on_c, 0, 72, 0
3, 17160, Note_on_c, 0, 72, 64
3, 17183, Note_on_c, 0, 72, 0
3, 17184, Note_on_c, 0, 70, 64
3, 17229, Note_on_c, 0, 70, 0
3, 17232, Note_on_c, 0, 72, 64
3, 17277, Note_on_c, 0, 72, 0
3, 17280, Note_on_c, 0, 67, 64
3, 17325, Note_on_c, 0, 67, 0
3, 17328, Note_on_c, 0, 63, 64
3, 17373, Note_on_c, 0, 63, 0
3, 17424, Note_on_c, 0, 82, 64
3, 17517, Note_on_c, 0, 82, 0
3, 17520, Note_on_c, 0, 80, 64
3, 17609, Note_on_c, 0, 80, 0
3, 17616, Note_on_c, 0, 79, 64
3, 17687, Note_on_c, 0, 79, 0
3, 17688, Note_on_c, 0, 82, 64
3, 17711, Note_on_c, 0, 82, 0
3, 17712, Note_on_c, 0, 80, 64
3, 17735, Note_on_c, 0, 80, 0
3, 17736, Note_on_c, 0, 79, 64
3, 17759, Note_on_c, 0, 79, 0
3, 17760, Note_on_c, 0, 77, 64
3, 17849, Note_on_c, 0, 77, 0
3, 17856, Note_on_c, 0, 77, 64
3, 17879, Note_on_c, 0, 77, 0
3, 17880, Note_on_c, 0, 79, 64
3, 17903, Note_on_c, 0, 79, 0
3, 17904, Note_on_c, 0, 77, 64
3, 17927, Note_on_c, 0, 77, 0
3, 17928, Note_on_c, 0, 75, 64
3, 17951, Note_on_c, 0, 75, 0
3, 17952, Note_on_c, 0, 74, 64
3, 17975, Note_on_c, 0, 74, 0
3, 17976, Note_on_c, 0, 72, 64
3, 17999, Note_on_c, 0, 72, 0
3, 18000, Note_on_c, 0, 71, 64
3, 18023, Note_on_c, 0, 71, 0
3, 18024, Note_on_c, 0, 74, 64
3, 18047, Note_on_c, 0, 74, 0
3, 18048, Note_on_c, 0, 67, 64
3, 18071, Note_on_c, 0, 67, 0
3, 18072, Note_on_c, 0, 77, 64
3, 18095, Note_on_c, 0, 77, 0
3, 18096, Note_on_c, 0, 75, 64
3, 18119, Note_on_c, 0, 75, 0
3, 18120, Note_on_c, 0, 74, 64
3, 18143, Note_on_c, 0, 74, 0
3, 18144, Note_on_c, 0, 71, 64
3, 18211, Note_on_c, 0, 71, 0
3, 18216, Note_on_c, 0, 72, 64
3, 18239, Note_on_c, 0, 72, 0
3, 18240, Note_on_c, 0, 72, 64
3, 18417, Note_on_c, 0, 72, 0
3, 18624, Note_on_c, 0, 75, 64
3, 18647, Note_on_c, 0, 75, 0
3, 18648, Note_on_c, 0, 73, 64
3, 18671, Note_on_c, 0, 73, 0
3, 18672, Note_on_c, 0, 72, 64
3, 18695, Note_on_c, 0, 72, 0
3, 18696, Note_on_c, 0, 73, 64
3, 18719, Note_on_c, 0, 73, 0
3, 18720, Note_on_c, 0, 75, 64
3, 18743, Note_on_c, 0, 75, 0
3, 18744, Note_on_c, 0, 73, 64
3, 18767, Note_on_c, 0, 73, 0
3, 18768, Note_on_c, 0, 72, 64
3, 18791, Note_on_c, 0, 72, 0
3, 18792, Note_on_c, 0, 70, 64
3, 18815, Note_on_c, 0, 70, 0
3, 18816, Note_on_c, 0, 69, 64
3, 18861, Note_on_c, 0, 69, 0
3, 18864, Note_on_c, 0, 78, 64
3, 18953, Note_on_c, 0, 78, 0
3, 18960, Note_on_c, 0, 77, 64
3, 19005, Note_on_c, 0, 77, 0
3, 19008, Note_on_c, 0, 75, 64
3, 19031, Note_on_c, 0, 75, 0
3, 19032, Note_on_c, 0, 73, 64
3, 19055, Note_on_c, 0, 73, 0
3, 19056, Note_on_c, 0, 72, 64
3, 19079, Note_on_c, 0, 72, 0
3, 19080, Note_on_c, 0, 73, 64
3, 19103, Note_on_c, 0, 73, 0
3, 19104, Note_on_c, 0, 75, 64
3, 19127, Note_on_c, 0, 75, 0
3, 19128, Note_on_c, 0, 73, 64
3, 19151, Note_on_c, 0, 73, 0
3, 19152, Note_on_c, 0, 72, 64
3, 19175, Note_on_c, 0, 72, 0
3, 19176, Note_on_c, 0, 70, 64
3, 19199, Note_on_c, 0, 70, 0
3, 19200, Note_on_c, 0, 69, 64
3, 19223, Note_on_c, 0, 69, 0
3, 19224, Note_on_c, 0, 67, 64
3, 19247, Note_on_c, 0, 67, 0
3, 19248, Note_on_c, 0, 65, 64
3, 19271, Note_on_c, 0, 65, 0
3, 19272, Note_on_c, 0, 67, 64
3, 19295, Note_on_c, 0, 67, 0
3, 19296, Note_on_c, 0, 69, 64
3, 19319, Note_on_c, 0, 69, 0
3, 19320, Note_on_c, 0, 70, 64
3, 19343, Note_on_c, 0, 70, 0
3, 19344, Note_on_c, 0, 72, 64
3, 19367, Note_on_c, 0, 72, 0
3, 19368, Note_on_c, 0, 69, 64
3, 19391, Note_on_c, 0, 69, 0
3, 19392, Note_on_c, 0, 70, 64
3, 19415, Note_on_c, 0, 70, 0
3, 19416, Note_on_c, 0, 72, 64
3, 19439, Note_on_c, 0, 72, 0
3, 19440, Note_on_c, 0, 69, 64
3, 19463, Note_on_c, 0, 69, 0
3, 19464, Note_on_c, 0, 70, 64
3, 19487, Note_on_c, 0, 70, 0
3, 19488, Note_on_c, 0, 72, 64
3, 19511, Note_on_c, 0, 72, 0
3, 19512, Note_on_c, 0, 73, 64
3, 19535, Note_on_c, 0, 73, 0
3, 19536, Note_on_c, 0, 75, 64
3, 19559, Note_on_c, 0, 75, 0
3, 19560, Note_on_c, 0, 72, 64
3, 19583, Note_on_c, 0, 72, 0
3, 19584, Note_on_c, 0, 70, 64
3, 19607, Note_on_c, 0, 70, 0
3, 19608, Note_on_c, 0, 69, 64
3, 19631, Note_on_c, 0, 69, 0
3, 19632, Note_on_c, 0, 70, 64
3, 19655, Note_on_c, 0, 70, 0
3, 19656, Note_on_c, 0, 72, 64
3, 19679, Note_on_c, 0, 72, 0
3, 19680, Note_on_c, 0, 73, 64
3, 19703, Note_on_c, 0, 73, 0
3, 19704, Note_on_c, 0, 75, 64
3, 19727, Note_on_c, 0, 75, 0
3, 19728, Note_on_c, 0, 77, 64
3, 19751, Note_on_c, 0, 77, 0
3, 19752, Note_on_c, 0, 73, 64
3, 19775, Note_on_c, 0, 73, 0
3, 19776, Note_on_c, 0, 78, 64
3, 19799, Note_on_c, 0, 78, 0
3, 19800, Note_on_c, 0, 80, 64
3, 19823, Note_on_c, 0, 80, 0
3, 19824, Note_on_c, 0, 78, 64
3, 19847, Note_on_c, 0, 78, 0
3, 19848, Note_on_c, 0, 77, 64
3, 19871, Note_on_c, 0, 77, 0
3, 19872, Note_on_c, 0, 75, 64
3, 19895, Note_on_c, 0, 75, 0
3, 19896, Note_on_c, 0, 77, 64
3, 19919, Note_on_c, 0, 77, 0
3, 19920, Note_on_c, 0, 73, 64
3, 19943, Note_on_c, 0, 73, 0
3, 19944, Note_on_c, 0, 75, 64
3, 19967, Note_on_c, 0, 75, 0
3, 19968, Note_on_c, 0, 77, 64
3, 19991, Note_on_c, 0, 77, 0
3, 19992, Note_on_c, 0, 78, 64
3, 20015, Note_on_c, 0, 78, 0
3, 20016, Note_on_c, 0, 77, 64
3, 20039, Note_on_c, 0, 77, 0
3, 20040, Note_on_c, 0, 75, 64
3, 20063, Note_on_c, 0, 75, 0
3, 20064, Note_on_c, 0, 73, 64
3, 20087, Note_on_c, 0, 73, 0
3, 20088, Note_on_c, 0, 75, 64
3, 20111, Note_on_c, 0, 75, 0
3, 20112, Note_on_c, 0, 72, 64
3, 20135, Note_on_c, 0, 72, 0
3, 20136, Note_on_c, 0, 73, 64
3, 20159, Note_on_c, 0, 73, 0
3, 20160, Note_on_c, 0, 75, 64
3, 20183, Note_on_c, 0, 75, 0
3, 20184, Note_on_c, 0, 77, 64
3, 20207, Note_on_c, 0, 77, 0
3, 20208, Note_on_c, 0, 75, 64
3, 20231, Note_on_c, 0, 75, 0
3, 20232, Note_on_c, 0, 73, 64
3, 20255, Note_on_c, 0, 73, 0
3, 20256, Note_on_c, 0, 72, 64
3, 20279, Note_on_c, 0, 72, 0
3, 20280, Note_on_c, 0, 73, 64
3, 20303, Note_on_c, 0, 73, 0
3, 20304, Note_on_c, 0, 70, 64
3, 20327, Note_on_c, 0, 70, 0
3, 20328, Note_on_c, 0, 72, 64
3, 20351, Note_on_c, 0, 72, 0
3, 20352, Note_on_c, 0, 73, 64
3, 20441, Note_on_c, 0, 73, 0
3, 20568, Note_on_c, 0, 63, 64
3, 20591, Note_on_c, 0, 63, 0
3, 20592, Note_on_c, 0, 70, 64
3, 20615, Note_on_c, 0, 70, 0
3, 20616, Note_on_c, 0, 73, 64
3, 20639, Note_on_c, 0, 73, 0
3, 20640, Note_on_c, 0, 72, 64
3, 20663, Note_on_c, 0, 72, 0
3, 20664, Note_on_c, 0, 65, 64
3, 20687, Note_on_c, 0, 65, 0
3, 20688, Note_on_c, 0, 72, 64
3, 20711, Note_on_c, 0, 72, 0
3, 20712, Note_on_c, 0, 75, 64
3, 20735, Note_on_c, 0, 75, 0
3, 20736, Note_on_c, 0, 73, 64
3, 20825, Note_on_c, 0, 73, 0
3, 20952, Note_on_c, 0, 63, 64
3, 20975, Note_on_c, 0, 63, 0
3, 20976, Note_on_c, 0, 66, 64
3, 20999, Note_on_c, 0, 66, 0
3, 21000, Note_on_c, 0, 70, 64
3, 21023, Note_on_c, 0, 70, 0
3, 21024, Note_on_c, 0, 75, 64
3, 21047, Note_on_c, 0, 75, 0
3, 21048, Note_on_c, 0, 72, 64
3, 21071, Note_on_c, 0, 72, 0
3, 21072, Note_on_c, 0, 73, 64
3, 21095, Note_on_c, 0, 73, 0
3, 21096, Note_on_c, 0, 70, 64
3, 21119, Note_on_c, 0, 70, 0
3, 21120, Note_on_c, 0, 72, 64
3, 21165, Note_on_c, 0, 72, 0
3, 21168, Note_on_c, 0, 75, 64
3, 21213, Note_on_c, 0, 75, 0
3, 21216, Note_on_c, 0, 68, 64
3, 21261, Note_on_c, 0, 68, 0
3, 21264, Note_on_c, 0, 72, 64
3, 21309, Note_on_c, 0, 72, 0
3, 21312, Note_on_c, 0, 73, 64
3, 21357, Note_on_c, 0, 73, 0
3, 21528, Note_on_c, 0, 56, 64
3, 21551, Note_on_c, 0, 56, 0
3, 21552, Note_on_c, 0, 61, 64
3, 21575, Note_on_c, 0, 61, 0
3, 21576, Note_on_c, 0, 65, 64
3, 21599, Note_on_c, 0, 65, 0
3, 21600, Note_on_c, 0, 63, 64
3, 21623, Note_on_c, 0, 63, 0
3, 21624, Note_on_c, 0, 56, 64
3, 21647, Note_on_c, 0, 56, 0
3, 21648, Note_on_c, 0, 63, 64
3, 21671, Note_on_c, 0, 63, 0
3, 21672, Note_on_c, 0, 66, 64
3, 21695, Note_on_c, 0, 66, 0
3, 21696, Note_on_c, 0, 65, 64
3, 21719, Note_on_c, 0, 65, 0
3, 21720, Note_on_c, 0, 61, 64
3, 21743, Note_on_c, 0, 61, 0
3, 21744, Note_on_c, 0, 65, 64
3, 21767, Note_on_c, 0, 65, 0
3, 21768, Note_on_c, 0, 68, 64
3, 21791, Note_on_c, 0, 68, 0
3, 21792, Note_on_c, 0, 73, 64
3, 21815, Note_on_c, 0, 73, 0
3, 21816, Note_on_c, 0, 70, 64
3, 21839, Note_on_c, 0, 70, 0
3, 21840, Note_on_c, 0, 71, 64
3, 21863, Note_on_c, 0, 71, 0
3, 21864, Note_on_c, 0, 68, 64
3, 21887, Note_on_c, 0, 68, 0
3, 21888, Note_on_c, 0, 70, 64
3, 21911, Note_on_c, 0, 70, 0
3, 21912, Note_on_c, 0, 66, 64
3, 21935, Note_on_c, 0, 66, 0
3, 21936, Note_on_c, 0, 70, 64
3, 21959, Note_on_c, 0, 70, 0
3, 21960, Note_on_c, 0, 73, 64
3, 21983, Note_on_c, 0, 73, 0
3, 21984, Note_on_c, 0, 77, 64
3, 22007, Note_on_c, 0, 77, 0
3, 22008, Note_on_c, 0, 72, 64
3, 22031, Note_on_c, 0, 72, 0
3, 22032, Note_on_c, 0, 73, 64
3, 22055, Note_on_c, 0, 73, 0
3, 22056, Note_on_c, 0, 70, 64
3, 22079, Note_on_c, 0, 70, 0
3, 22080, Note_on_c, 0, 72, 64
3, 22103, Note_on_c, 0, 72, 0
3, 22104, Note_on_c, 0, 68, 64
3, 22127, Note_on_c, 0, 68, 0
3, 22128, Note_on_c, 0, 72, 64
3, 22151, Note_on_c, 0, 72, 0
3, 22152, Note_on_c, 0, 75, 64
3, 22175, Note_on_c, 0, 75, 0
3, 22176, Note_on_c, 0, 77, 64
3, 22199, Note_on_c, 0, 77, 0
3, 22200, Note_on_c, 0, 73, 64
3, 22223, Note_on_c, 0, 73, 0
3, 22224, Note_on_c, 0, 75, 64
3, 22247, Note_on_c, 0, 75, 0
3, 22248, Note_on_c, 0, 72, 64
3, 22271, Note_on_c, 0, 72, 0
3, 22272, Note_on_c, 0, 73, 64
3, 22295, Note_on_c, 0, 73, 0
3, 22296, Note_on_c, 0, 70, 64
3, 22319, Note_on_c, 0, 70, 0
3, 22320, Note_on_c, 0, 73, 64
3, 22343, Note_on_c, 0, 73, 0
3, 22344, Note_on_c, 0, 77, 64
3, 22367, Note_on_c, 0, 77, 0
3, 22368, Note_on_c, 0, 79, 64
3, 22391, Note_on_c, 0, 79, 0
3, 22392, Note_on_c, 0, 76, 64
3, 22415, Note_on_c, 0, 76, 0
3, 22416, Note_on_c, 0, 77, 64
3, 22439, Note_on_c, 0, 77, 0
3, 22440, Note_on_c, 0, 74, 64
3, 22463, Note_on_c, 0, 74, 0
3, 22464, Note_on_c, 0, 76, 64
3, 22509, Note_on_c, 0, 76, 0
3, 22512, Note_on_c, 0, 72, 64
3, 22557, Note_on_c, 0, 72, 0
3, 22656, Note_on_c, 0, 72, 64
3, 22833, Note_on_c, 0, 72, 0
3, 22848, Note_on_c, 0, 74, 64
3, 23025, Note_on_c, 0, 74, 0
3, 23040, Note_on_c, 0, 75, 64
3, 23085, Note_on_c, 0, 75, 0
3, 23088, Note_on_c, 0, 74, 64
3, 23111, Note_on_c, 0, 74, 0
3, 23112, Note_on_c, 0, 72, 64
3, 23135, Note_on_c, 0, 72, 0
3, 23136, Note_on_c, 0, 71, 64
3, 23181, Note_on_c, 0, 71, 0
3, 23184, Note_on_c, 0, 74, 64
3, 23229, Note_on_c, 0, 74, 0
3, 23232, Note_on_c, 0, 67, 64
3, 23321, Note_on_c, 0, 67, 0
3, 23328, Note_on_c, 0, 79, 64
3, 23417, Note_on_c, 0, 79, 0
3, 23424, Note_on_c, 0, 79, 64
3, 23469, Note_on_c, 0, 79, 0
3, 23472, Note_on_c, 0, 77, 64
3, 23495, Note_on_c, 0, 77, 0
3, 23496, Note_on_c, 0, 75, 64
3, 23519, Note_on_c, 0, 75, 0
3, 23520, Note_on_c, 0, 74, 64
3, 23565, Note_on_c, 0, 74, 0
3, 23568, Note_on_c, 0, 77, 64
3, 23613, Note_on_c, 0, 77, 0
3, 23616, Note_on_c, 0, 77, 64
3, 23639, Note_on_c, 0, 77, 0
3, 23640, Note_on_c, 0, 75, 64
3, 23663, Note_on_c, 0, 75, 0
3, 23664, Note_on_c, 0, 74, 64
3, 23687, Note_on_c, 0, 74, 0
3, 23688, Note_on_c, 0, 75, 64
3, 23711, Note_on_c, 0, 75, 0
3, 23712, Note_on_c, 0, 77, 64
3, 23735, Note_on_c, 0, 77, 0
3, 23736, Note_on_c, 0, 75, 64
3, 23759, Note_on_c, 0, 75, 0
3, 23760, Note_on_c, 0, 74, 64
3, 23783, Note_on_c, 0, 74, 0
3, 23784, Note_on_c, 0, 72, 64
3, 23807, Note_on_c, 0, 72, 0
3, 23808, Note_on_c, 0, 71, 64
3, 23853, Note_on_c, 0, 71, 0
3, 23856, Note_on_c, 0, 80, 64
3, 23945, Note_on_c, 0, 80, 0
3, 23952, Note_on_c, 0, 79, 64
3, 23997, Note_on_c, 0, 79, 0
3, 24000, Note_on_c, 0, 77, 64
3, 24023, Note_on_c, 0, 77, 0
3, 24024, Note_on_c, 0, 75, 64
3, 24047, Note_on_c, 0, 75, 0
3, 24048, Note_on_c, 0, 74, 64
3, 24071, Note_on_c, 0, 74, 0
3, 24072, Note_on_c, 0, 75, 64
3, 24095, Note_on_c, 0, 75, 0
3, 24096, Note_on_c, 0, 77, 64
3, 24119, Note_on_c, 0, 77, 0
3, 24120, Note_on_c, 0, 75, 64
3, 24143, Note_on_c, 0, 75, 0
3, 24144, Note_on_c, 0, 74, 64
3, 24167, Note_on_c, 0, 74, 0
3, 24168, Note_on_c, 0, 72, 64
3, 24191, Note_on_c, 0, 72, 0
3, 24192, Note_on_c, 0, 83, 64
3, 24240, Note_on_c, 0, 83, 0
3, 24240, Note_on_c, 0, 84, 64
3, 24285, Note_on_c, 0, 84, 0
3, 24336, Note_on_c, 0, 79, 64
3, 24381, Note_on_c, 0, 79, 0
3, 24384, Note_on_c, 0, 79, 64
3, 24432, Note_on_c, 0, 79, 0
3, 24432, Note_on_c, 0, 77, 64
3, 24477, Note_on_c, 0, 77, 0
3, 24528, Note_on_c, 0, 80, 64
3, 24573, Note_on_c, 0, 80, 0
3, 24576, Note_on_c, 0, 80, 64
3, 24624, Note_on_c, 0, 80, 0
3, 24624, Note_on_c, 0, 79, 64
3, 24669, Note_on_c, 0, 79, 0
3, 24720, Note_on_c, 0, 77, 64
3, 24765, Note_on_c, 0, 77, 0
3, 24768, Note_on_c, 0, 77, 64
3, 24816, Note_on_c, 0, 77, 0
3, 24816, Note_on_c, 0, 75, 64
3, 24861, Note_on_c, 0, 75, 0
3, 24912, Note_on_c, 0, 71, 64
3, 24957, Note_on_c, 0, 71, 0
3, 24960, Note_on_c, 0, 71, 64
3, 25008, Note_on_c, 0, 71, 0
3, 25008, Note_on_c, 0, 72, 64
3, 25053, Note_on_c, 0, 72, 0
3, 25104, Note_on_c, 0, 74, 64
3, 25149, Note_on_c, 0, 74, 0
3, 25152, Note_on_c, 0, 74, 64
3, 25200, Note_on_c, 0, 74, 0
3, 25200, Note_on_c, 0, 75, 64
3, 25245, Note_on_c, 0, 75, 0
3, 25296, Note_on_c, 0, 79, 64
3, 25341, Note_on_c, 0, 79, 0
3, 25344, Note_on_c, 0, 72, 64
3, 25411, Note_on_c, 0, 72, 0
3, 25416, Note_on_c, 0, 74, 64
3, 25439, Note_on_c, 0, 74, 0
3, 25440, Note_on_c, 0, 71, 64
3, 25507, Note_on_c, 0, 71, 0
3, 25512, Note_on_c, 0, 72, 64
3, 25535, Note_on_c, 0, 72, 0
3, 25536, Note_on_c, 0, 72, 64
3, 25559, Note_on_c, 0, 72, 0
3, 25560, Note_on_c, 0, 67, 64
3, 25583, Note_on_c, 0, 67, 0
3, 25584, Note_on_c, 0, 72, 64
3, 25607, Note_on_c, 0, 72, 0
3, 25608, Note_on_c, 0, 75, 64
3, 25631, Note_on_c, 0, 75, 0
3, 25632, Note_on_c, 0, 74, 64
3, 25655, Note_on_c, 0, 74, 0
3, 25656, Note_on_c, 0, 67, 64
3, 25679, Note_on_c, 0, 67, 0
3, 25680, Note_on_c, 0, 74, 64
3, 25703, Note_on_c, 0, 74, 0
3, 25704, Note_on_c, 0, 77, 64
3, 25727, Note_on_c, 0, 77, 0
3, 25728, Note_on_c, 0, 75, 64
3, 25773, Note_on_c, 0, 75, 0
3, 25776, Note_on_c, 0, 67, 64
3, 25821, Note_on_c, 0, 67, 0
3, 25824, Note_on_c, 0, 68, 64
3, 25869, Note_on_c, 0, 68, 0
3, 25872, Note_on_c, 0, 67, 64
3, 25965, Note_on_c, 0, 67, 0
3, 25968, Note_on_c, 0, 75, 64
3, 26013, Note_on_c, 0, 75, 0
3, 26016, Note_on_c, 0, 65, 64
3, 26157, Note_on_c, 0, 65, 0
3, 26160, Note_on_c, 0, 74, 64
3, 26205, Note_on_c, 0, 74, 0
3, 26208, Note_on_c, 0, 63, 64
3, 26297, Note_on_c, 0, 63, 0
3, 26304, Note_on_c, 0, 63, 64
3, 26349, Note_on_c, 0, 63, 0
3, 26352, Note_on_c, 0, 72, 64
3, 26397, Note_on_c, 0, 72, 0
3, 26400, Note_on_c, 0, 62, 64
3, 26541, Note_on_c, 0, 62, 0
3, 26544, Note_on_c, 0, 70, 64
3, 26589, Note_on_c, 0, 70, 0
3, 26592, Note_on_c, 0, 60, 64
3, 26733, Note_on_c, 0, 60, 0
3, 26736, Note_on_c, 0, 68, 64
3, 26781, Note_on_c, 0, 68, 0
3, 26784, Note_on_c, 0, 58, 64
3, 26903, Note_on_c, 0, 58, 0
3, 26904, Note_on_c, 0, 58, 64
3, 26927, Note_on_c, 0, 58, 0
3, 26928, Note_on_c, 0, 63, 64
3, 26951, Note_on_c, 0, 63, 0
3, 26952, Note_on_c, 0, 67, 64
3, 26975, Note_on_c, 0, 67, 0
3, 26976, Note_on_c, 0, 65, 64
3, 26999, Note_on_c, 0, 65, 0
3, 27000, Note_on_c, 0, 58, 64
3, 27023, Note_on_c, 0, 58, 0
3, 27024, Note_on_c, 0, 65, 64
3, 27047, Note_on_c, 0, 65, 0
3, 27048, Note_on_c, 0, 68, 64
3, 27071, Note_on_c, 0, 68, 0
3, 27072, Note_on_c, 0, 67, 64
3, 27161, Note_on_c, 0, 67, 0
3, 27288, Note_on_c, 0, 63, 64
3, 27311, Note_on_c, 0, 63, 0
3, 27312, Note_on_c, 0, 67, 64
3, 27335, Note_on_c, 0, 67, 0
3, 27336, Note_on_c, 0, 70, 64
3, 27359, Note_on_c, 0, 70, 0
3, 27360, Note_on_c, 0, 75, 64
3, 27383, Note_on_c, 0, 75, 0
3, 27384, Note_on_c, 0, 72, 64
3, 27407, Note_on_c, 0, 72, 0
3, 27408, Note_on_c, 0, 73, 64
3, 27431, Note_on_c, 0, 73, 0
3, 27432, Note_on_c, 0, 70, 64
3, 27455, Note_on_c, 0, 70, 0
3, 27456, Note_on_c, 0, 72, 64
3, 27501, Note_on_c, 0, 72, 0
3, 27504, Note_on_c, 0, 63, 64
3, 27549, Note_on_c, 0, 63, 0
3, 27552, Note_on_c, 0, 72, 64
3, 27671, Note_on_c, 0, 72, 0
3, 27672, Note_on_c, 0, 61, 64
3, 27695, Note_on_c, 0, 61, 0
3, 27696, Note_on_c, 0, 65, 64
3, 27719, Note_on_c, 0, 65, 0
3, 27720, Note_on_c, 0, 68, 64
3, 27743, Note_on_c, 0, 68, 0
3, 27744, Note_on_c, 0, 73, 64
3, 27767, Note_on_c, 0, 73, 0
3, 27768, Note_on_c, 0, 70, 64
3, 27791, Note_on_c, 0, 70, 0
3, 27792, Note_on_c, 0, 72, 64
3, 27815, Note_on_c, 0, 72, 0
3, 27816, Note_on_c, 0, 68, 64
3, 27839, Note_on_c, 0, 68, 0
3, 27840, Note_on_c, 0, 70, 64
3, 27959, Note_on_c, 0, 70, 0
3, 27960, Note_on_c, 0, 67, 64
3, 27983, Note_on_c, 0, 67, 0
3, 27984, Note_on_c, 0, 68, 64
3, 28007, Note_on_c, 0, 68, 0
3, 28008, Note_on_c, 0, 65, 64
3, 28031, Note_on_c, 0, 65, 0
3, 28032, Note_on_c, 0, 73, 64
3, 28055, Note_on_c, 0, 73, 0
3, 28056, Note_on_c, 0, 72, 64
3, 28079, Note_on_c, 0, 72, 0
3, 28080, Note_on_c, 0, 70, 64
3, 28103, Note_on_c, 0, 70, 0
3, 28104, Note_on_c, 0, 72, 64
3, 28127, Note_on_c, 0, 72, 0
3, 28128, Note_on_c, 0, 73, 64
3, 28151, Note_on_c, 0, 73, 0
3, 28152, Note_on_c, 0, 72, 64
3, 28175, Note_on_c, 0, 72, 0
3, 28176, Note_on_c, 0, 70, 64
3, 28199, Note_on_c, 0, 70, 0
3, 28200, Note_on_c, 0, 68, 64
3, 28223, Note_on_c, 0, 68, 0
3, 28224, Note_on_c, 0, 67, 64
3, 28247, Note_on_c, 0, 67, 0
3, 28248, Note_on_c, 0, 65, 64
3, 28271, Note_on_c, 0, 65, 0
3, 28272, Note_on_c, 0, 67, 64
3, 28295, Note_on_c, 0, 67, 0
3, 28296, Note_on_c, 0, 68, 64
3, 28319, Note_on_c, 0, 68, 0
3, 28320, Note_on_c, 0, 70, 64
3, 28343, Note_on_c, 0, 70, 0
3, 28344, Note_on_c, 0, 67, 64
3, 28367, Note_on_c, 0, 67, 0
3, 28368, Note_on_c, 0, 68, 64
3, 28391, Note_on_c, 0, 68, 0
3, 28392, Note_on_c, 0, 65, 64
3, 28415, Note_on_c, 0, 65, 0
3, 28416, Note_on_c, 0, 72, 64
3, 28505, Note_on_c, 0, 72, 0
3, 28512, Note_on_c, 0, 72, 64
3, 28535, Note_on_c, 0, 72, 0
3, 28536, Note_on_c, 0, 74, 64
3, 28559, Note_on_c, 0, 74, 0
3, 28560, Note_on_c, 0, 76, 64
3, 28583, Note_on_c, 0, 76, 0
3, 28584, Note_on_c, 0, 77, 64
3, 28607, Note_on_c, 0, 77, 0
3, 28608, Note_on_c, 0, 79, 64
3, 28653, Note_on_c, 0, 79, 0
3, 28656, Note_on_c, 0, 72, 64
3, 28701, Note_on_c, 0, 72, 0
3, 28704, Note_on_c, 0, 77, 64
3, 28793, Note_on_c, 0, 77, 0
3, 28800, Note_on_c, 0, 77, 64
3, 28823, Note_on_c, 0, 77, 0
3, 28824, Note_on_c, 0, 70, 64
3, 28847, Note_on_c, 0, 70, 0
3, 28848, Note_on_c, 0, 73, 64
3, 28871, Note_on_c, 0, 73, 0
3, 28872, Note_on_c, 0, 77, 64
3, 28895, Note_on_c, 0, 77, 0
3, 28896, Note_on_c, 0, 82, 64
3, 28919, Note_on_c, 0, 82, 0
3, 28920, Note_on_c, 0, 79, 64
3, 28943, Note_on_c, 0, 79, 0
3, 28944, Note_on_c, 0, 80, 64
3, 28967, Note_on_c, 0, 80, 0
3, 28968, Note_on_c, 0, 77, 64
3, 28991, Note_on_c, 0, 77, 0
3, 28992, Note_on_c, 0, 84, 64
3, 29037, Note_on_c, 0, 84, 0
3, 29040, Note_on_c, 0, 72, 64
3, 29085, Note_on_c, 0, 72, 0
3, 29088, Note_on_c, 0, 76, 64
3, 29133, Note_on_c, 0, 76, 0
3, 29136, Note_on_c, 0, 79, 64
3, 29207, Note_on_c, 0, 79, 0
3, 29208, Note_on_c, 0, 77, 64
3, 29231, Note_on_c, 0, 77, 0
3, 29232, Note_on_c, 0, 79, 64
3, 29255, Note_on_c, 0, 79, 0
3, 29256, Note_on_c, 0, 80, 64
3, 29279, Note_on_c, 0, 80, 0
3, 29280, Note_on_c, 0, 82, 64
3, 29303, Note_on_c, 0, 82, 0
3, 29304, Note_on_c, 0, 84, 64
3, 29327, Note_on_c, 0, 84, 0
3, 29328, Note_on_c, 0, 80, 64
3, 29351, Note_on_c, 0, 80, 0
3, 29352, Note_on_c, 0, 82, 64
3, 29375, Note_on_c, 0, 82, 0
3, 29376, Note_on_c, 0, 84, 64
3, 29399, Note_on_c, 0, 84, 0
3, 29400, Note_on_c, 0, 85, 64
3, 29423, Note_on_c, 0, 85, 0
3, 29424, Note_on_c, 0, 84, 64
3, 29447, Note_on_c, 0, 84, 0
3, 29448, Note_on_c, 0, 82, 64
3, 29471, Note_on_c, 0, 82, 0
3, 29472, Note_on_c, 0, 80, 64
3, 29495, Note_on_c, 0, 80, 0
3, 29496, Note_on_c, 0, 82, 64
3, 29519, Note_on_c, 0, 82, 0
3, 29520, Note_on_c, 0, 79, 64
3, 29543, Note_on_c, 0, 79, 0
3, 29544, Note_on_c, 0, 80, 64
3, 29567, Note_on_c, 0, 80, 0
3, 29568, Note_on_c, 0, 77, 64
3, 29687, Note_on_c, 0, 77, 0
3, 29688, Note_on_c, 0, 76, 64
3, 29711, Note_on_c, 0, 76, 0
3, 29712, Note_on_c, 0, 77, 64
3, 29735, Note_on_c, 0, 77, 0
3, 29736, Note_on_c, 0, 79, 64
3, 29759, Note_on_c, 0, 79, 0
3, 29760, Note_on_c, 0, 70, 64
3, 29805, Note_on_c, 0, 70, 0
3, 29808, Note_on_c, 0, 79, 64
3, 29853, Note_on_c, 0, 79, 0
3, 29856, Note_on_c, 0, 72, 64
3, 29901, Note_on_c, 0, 72, 0
3, 29904, Note_on_c, 0, 77, 64
3, 29927, Note_on_c, 0, 77, 0
3, 29928, Note_on_c, 0, 75, 64
3, 29951, Note_on_c, 0, 75, 0
3, 29952, Note_on_c, 0, 73, 64
3, 29975, Note_on_c, 0, 73, 0
3, 29976, Note_on_c, 0, 75, 64
3, 29999, Note_on_c, 0, 75, 0
3, 30000, Note_on_c, 0, 73, 64
3, 30023, Note_on_c, 0, 73, 0
3, 30024, Note_on_c, 0, 72, 64
3, 30047, Note_on_c, 0, 72, 0
3, 30048, Note_on_c, 0, 70, 64
3, 30071, Note_on_c, 0, 70, 0
3, 30072, Note_on_c, 0, 72, 64
3, 30095, Note_on_c, 0, 72, 0
3, 30096, Note_on_c, 0, 68, 64
3, 30119, Note_on_c, 0, 68, 0
3, 30120, Note_on_c, 0, 70, 64
3, 30143, Note_on_c, 0, 70, 0
3, 30144, Note_on_c, 0, 72, 64
3, 30189, Note_on_c, 0, 72, 0
3, 30192, Note_on_c, 0, 65, 64
3, 30237, Note_on_c, 0, 65, 0
3, 30240, Note_on_c, 0, 77, 64
3, 30381, Note_on_c, 0, 77, 0
3, 30384, Note_on_c, 0, 75, 64
3, 30407, Note_on_c, 0, 75, 0
3, 30408, Note_on_c, 0, 73, 64
3, 30431, Note_on_c, 0, 73, 0
3, 30432, Note_on_c, 0, 72, 64
3, 30477, Note_on_c, 0, 72, 0
3, 30480, Note_on_c, 0, 75, 64
3, 30525, Note_on_c, 0, 75, 0
3, 30528, Note_on_c, 0, 68, 64
3, 30617, Note_on_c, 0, 68, 0
3, 30624, Note_on_c, 0, 73, 64
3, 30765, Note_on_c, 0, 73, 0
3, 30768, Note_on_c, 0, 72, 64
3, 30791, Note_on_c, 0, 72, 0
3, 30792, Note_on_c, 0, 70, 64
3, 30815, Note_on_c, 0, 70, 0
3, 30816, Note_on_c, 0, 68, 64
3, 30861, Note_on_c, 0, 68, 0
3, 30864, Note_on_c, 0, 72, 64
3, 30909, Note_on_c, 0, 72, 0
3, 30912, Note_on_c, 0, 65, 64
3, 31001, Note_on_c, 0, 65, 0
3, 31008, Note_on_c, 0, 70, 64
3, 31149, Note_on_c, 0, 70, 0
3, 31152, Note_on_c, 0, 68, 64
3, 31175, Note_on_c, 0, 68, 0
3, 31176, Note_on_c, 0, 67, 64
3, 31199, Note_on_c, 0, 67, 0
3, 31200, Note_on_c, 0, 72, 64
3, 31245, Note_on_c, 0, 72, 0
3, 31248, Note_on_c, 0, 70, 64
3, 31293, Note_on_c, 0, 70, 0
3, 31296, Note_on_c, 0, 68, 64
3, 31385, Note_on_c, 0, 68, 0
3, 31392, Note_on_c, 0, 67, 64
3, 31511, Note_on_c, 0, 67, 0
3, 31512, Note_on_c, 0, 65, 64
3, 31535, Note_on_c, 0, 65, 0
3, 31536, Note_on_c, 0, 64, 64
3, 31559, Note_on_c, 0, 64, 0
3, 31560, Note_on_c, 0, 65, 64
3, 31583, Note_on_c, 0, 65, 0
3, 31584, Note_on_c, 0, 73, 64
3, 31703, Note_on_c, 0, 73, 0
3, 31704, Note_on_c, 0, 70, 64
3, 31727, Note_on_c, 0, 70, 0
3, 31728, Note_on_c, 0, 69, 64
3, 31751, Note_on_c, 0, 69, 0
3, 31752, Note_on_c, 0, 70, 64
3, 31775, Note_on_c, 0, 70, 0
3, 31776, Note_on_c, 0, 76, 64
3, 31821, Note_on_c, 0, 76, 0
3, 31824, Note_on_c, 0, 79, 64
3, 31869, Note_on_c, 0, 79, 0
3, 31872, Note_on_c, 0, 68, 64
3, 31895, Note_on_c, 0, 68, 0
3, 31896, Note_on_c, 0, 67, 64
3, 31919, Note_on_c, 0, 67, 0
3, 31920, Note_on_c, 0, 68, 64
3, 31943, Note_on_c, 0, 68, 0
3, 31944, Note_on_c, 0, 73, 64
3, 31967, Note_on_c, 0, 73, 0
3, 31968, Note_on_c, 0, 72, 64
3, 31991, Note_on_c, 0, 72, 0
3, 31992, Note_on_c, 0, 70, 64
3, 32015, Note_on_c, 0, 70, 0
3, 32016, Note_on_c, 0, 68, 64
3, 32039, Note_on_c, 0, 68, 0
3, 32040, Note_on_c, 0, 67, 64
3, 32063, Note_on_c, 0, 67, 0
3, 32064, Note_on_c, 0, 65, 64
3, 32241, Note_on_c, 0, 65, 0
3, 32448, Note_on_c, 0, 75, 64
3, 32471, Note_on_c, 0, 75, 0
3, 32472, Note_on_c, 0, 73, 64
3, 32495, Note_on_c, 0, 73, 0
3, 32496, Note_on_c, 0, 72, 64
3, 32519, Note_on_c, 0, 72, 0
3, 32520, Note_on_c, 0, 73, 64
3, 32543, Note_on_c, 0, 73, 0
3, 32544, Note_on_c, 0, 75, 64
3, 32567, Note_on_c, 0, 75, 0
3, 32568, Note_on_c, 0, 73, 64
3, 32591, Note_on_c, 0, 73, 0
3, 32592, Note_on_c, 0, 72, 64
3, 32615, Note_on_c, 0, 72, 0
3, 32616, Note_on_c, 0, 70, 64
3, 32639, Note_on_c, 0, 70, 0
3, 32640, Note_on_c, 0, 69, 64
3, 32685, Note_on_c, 0, 69, 0
3, 32688, Note_on_c, 0, 78, 64
3, 32777, Note_on_c, 0, 78, 0
3, 32784, Note_on_c, 0, 77, 64
3, 32829, Note_on_c, 0, 77, 0
3, 32832, Note_on_c, 0, 75, 64
3, 32855, Note_on_c, 0, 75, 0
3, 32856, Note_on_c, 0, 73, 64
3, 32879, Note_on_c, 0, 73, 0
3, 32880, Note_on_c, 0, 72, 64
3, 32903, Note_on_c, 0, 72, 0
3, 32904, Note_on_c, 0, 73, 64
3, 32927, Note_on_c, 0, 73, 0
3, 32928, Note_on_c, 0, 75, 64
3, 32951, Note_on_c, 0, 75, 0
3, 32952, Note_on_c, 0, 73, 64
3, 32975, Note_on_c, 0, 73, 0
3, 32976, Note_on_c, 0, 72, 64
3, 32999, Note_on_c, 0, 72, 0
3, 33000, Note_on_c, 0, 70, 64
3, 33023, Note_on_c, 0, 70, 0
3, 33024, Note_on_c, 0, 69, 64
3, 33047, Note_on_c, 0, 69, 0
3, 33048, Note_on_c, 0, 67, 64
3, 33071, Note_on_c, 0, 67, 0
3, 33072, Note_on_c, 0, 65, 64
3, 33095, Note_on_c, 0, 65, 0
3, 33096, Note_on_c, 0, 67, 64
3, 33119, Note_on_c, 0, 67, 0
3, 33120, Note_on_c, 0, 69, 64
3, 33143, Note_on_c, 0, 69, 0
3, 33144, Note_on_c, 0, 70, 64
3, 33167, Note_on_c, 0, 70, 0
3, 33168, Note_on_c, 0, 72, 64
3, 33191, Note_on_c, 0, 72, 0
3, 33192, Note_on_c, 0, 69, 64
3, 33215, Note_on_c, 0, 69, 0
3, 33216, Note_on_c, 0, 70, 64
3, 33239, Note_on_c, 0, 70, 0
3, 33240, Note_on_c, 0, 72, 64
3, 33263, Note_on_c, 0, 72, 0
3, 33264, Note_on_c, 0, 69, 64
3, 33287, Note_on_c, 0, 69, 0
3, 33288, Note_on_c, 0, 70, 64
3, 33311, Note_on_c, 0, 70, 0
3, 33312, Note_on_c, 0, 72, 64
3, 33335, Note_on_c, 0, 72, 0
3, 33336, Note_on_c, 0, 73, 64
3, 33359, Note_on_c, 0, 73, 0
3, 33360, Note_on_c, 0, 75, 64
3, 33383, Note_on_c, 0, 75, 0
3, 33384, Note_on_c, 0, 72, 64
3, 33407, Note_on_c, 0, 72, 0
3, 33408, Note_on_c, 0, 70, 64
3, 33431, Note_on_c, 0, 70, 0
3, 33432, Note_on_c, 0, 69, 64
3, 33455, Note_on_c, 0, 69, 0
3, 33456, Note_on_c, 0, 70, 64
3, 33479, Note_on_c, 0, 70, 0
3, 33480, Note_on_c, 0, 72, 64
3, 33503, Note_on_c, 0, 72, 0
3, 33504, Note_on_c, 0, 73, 64
3, 33527, Note_on_c, 0, 73, 0
3, 33528, Note_on_c, 0, 75, 64
3, 33551, Note_on_c, 0, 75, 0
3, 33552, Note_on_c, 0, 77, 64
3, 33575, Note_on_c, 0, 77, 0
3, 33576, Note_on_c, 0, 73, 64
3, 33599, Note_on_c, 0, 73, 0
3, 33600, Note_on_c, 0, 78, 64
3, 33623, Note_on_c, 0, 78, 0
3, 33624, Note_on_c, 0, 80, 64
3, 33647, Note_on_c, 0, 80, 0
3, 33648, Note_on_c, 0, 78, 64
3, 33671, Note_on_c, 0, 78, 0
3, 33672, Note_on_c, 0, 77, 64
3, 33695, Note_on_c, 0, 77, 0
3, 33696, Note_on_c, 0, 75, 64
3, 33719, Note_on_c, 0, 75, 0
3, 33720, Note_on_c, 0, 77, 64
3, 33743, Note_on_c, 0, 77, 0
3, 33744, Note_on_c, 0, 73, 64
3, 33767, Note_on_c, 0, 73, 0
3, 33768, Note_on_c, 0, 75, 64
3, 33791, Note_on_c, 0, 75, 0
3, 33792, Note_on_c, 0, 77, 64
3, 33815, Note_on_c, 0, 77, 0
3, 33816, Note_on_c, 0, 78, 64
3, 33839, Note_on_c, 0, 78, 0
3, 33840, Note_on_c, 0, 77, 64
3, 33863, Note_on_c, 0, 77, 0
3, 33864, Note_on_c, 0, 75, 64
3, 33887, Note_on_c, 0, 75, 0
3, 33888, Note_on_c, 0, 73, 64
3, 33911, Note_on_c, 0, 73, 0
3, 33912, Note_on_c, 0, 75, 64
3, 33935, Note_on_c, 0, 75, 0
3, 33936, Note_on_c, 0, 72, 64
3, 33959, Note_on_c, 0, 72, 0
3, 33960, Note_on_c, 0, 73, 64
3, 33983, Note_on_c, 0, 73, 0
3, 33984, Note_on_c, 0, 75, 64
3, 34007, Note_on_c, 0, 75, 0
3, 34008, Note_on_c, 0, 77, 64
3, 34031, Note_on_c, 0, 77, 0
3, 34032, Note_on_c, 0, 75, 64
3, 34055, Note_on_c, 0, 75, 0
3, 34056, Note_on_c, 0, 73, 64
3, 34079, Note_on_c, 0, 73, 0
3, 34080, Note_on_c, 0, 72, 64
3, 34103, Note_on_c, 0, 72, 0
3, 34104, Note_on_c, 0, 73, 64
3, 34127, Note_on_c, 0, 73, 0
3, 34128, Note_on_c, 0, 70, 64
3, 34151, Note_on_c, 0, 70, 0
3, 34152, Note_on_c, 0, 72, 64
3, 34175, Note_on_c, 0, 72, 0
3, 34176, Note_on_c, 0, 73, 64
3, 34265, Note_on_c, 0, 73, 0
3, 34392, Note_on_c, 0, 63, 64
3, 34415, Note_on_c, 0, 63, 0
3, 34416, Note_on_c, 0, 70, 64
3, 34439, Note_on_c, 0, 70, 0
3, 34440, Note_on_c, 0, 73, 64
3, 34463, Note_on_c, 0, 73, 0
3, 34464, Note_on_c, 0, 72, 64
3, 34487, Note_on_c, 0, 72, 0
3, 34488, Note_on_c, 0, 65, 64
3, 34511, Note_on_c, 0, 65, 0
3, 34512, Note_on_c, 0, 72, 64
3, 34535, Note_on_c, 0, 72, 0
3, 34536, Note_on_c, 0, 75, 64
3, 34559, Note_on_c, 0, 75, 0
3, 34560, Note_on_c, 0, 73, 64
3, 34649, Note_on_c, 0, 73, 0
3, 34776, Note_on_c, 0, 63, 64
3, 34799, Note_on_c, 0, 63, 0
3, 34800, Note_on_c, 0, 66, 64
3, 34823, Note_on_c, 0, 66, 0
3, 34824, Note_on_c, 0, 70, 64
3, 34847, Note_on_c, 0, 70, 0
3, 34848, Note_on_c, 0, 75, 64
3, 34871, Note_on_c, 0, 75, 0
3, 34872, Note_on_c, 0, 72, 64
3, 34895, Note_on_c, 0, 72, 0
3, 34896, Note_on_c, 0, 73, 64
3, 34919, Note_on_c, 0, 73, 0
3, 34920, Note_on_c, 0, 70, 64
3, 34943, Note_on_c, 0, 70, 0
3, 34944, Note_on_c, 0, 72, 64
3, 34989, Note_on_c, 0, 72, 0
3, 34992, Note_on_c, 0, 75, 64
3, 35037, Note_on_c, 0, 75, 0
3, 35040, Note_on_c, 0, 68, 64
3, 35085, Note_on_c, 0, 68, 0
3, 35088, Note_on_c, 0, 72, 64
3, 35133, Note_on_c, 0, 72, 0
3, 35136, Note_on_c, 0, 73, 64
3, 35181, Note_on_c, 0, 73, 0
3, 35352, Note_on_c, 0, 56, 64
3, 35375, Note_on_c, 0, 56, 0
3, 35376, Note_on_c, 0, 61, 64
3, 35399, Note_on_c, 0, 61, 0
3, 35400, Note_on_c, 0, 65, 64
3, 35423, Note_on_c, 0, 65, 0
3, 35424, Note_on_c, 0, 63, 64
3, 35447, Note_on_c, 0, 63, 0
3, 35448, Note_on_c, 0, 56, 64
3, 35471, Note_on_c, 0, 56, 0
3, 35472, Note_on_c, 0, 63, 64
3, 35495, Note_on_c, 0, 63, 0
3, 35496, Note_on_c, 0, 66, 64
3, 35519, Note_on_c, 0, 66, 0
3, 35520, Note_on_c, 0, 65, 64
3, 35543, Note_on_c, 0, 65, 0
3, 35544, Note_on_c, 0, 61, 64
3, 35567, Note_on_c, 0, 61, 0
3, 35568, Note_on_c, 0, 65, 64
3, 35591, Note_on_c, 0, 65, 0
3, 35592, Note_on_c, 0, 68, 64
3, 35615, Note_on_c, 0, 68, 0
3, 35616, Note_on_c, 0, 73, 64
3, 35639, Note_on_c, 0, 73, 0
3, 35640, Note_on_c, 0, 70, 64
3, 35663, Note_on_c, 0, 70, 0
3, 35664, Note_on_c, 0, 71, 64
3, 35687, Note_on_c, 0, 71, 0
3, 35688, Note_on_c, 0, 68, 64
3, 35711, Note_on_c, 0, 68, 0
3, 35712, Note_on_c, 0, 70, 64
3, 35735, Note_on_c, 0, 70, 0
3, 35736, Note_on_c, 0, 66, 64
3, 35759, Note_on_c, 0, 66, 0
3, 35760, Note_on_c, 0, 70, 64
3, 35783, Note_on_c, 0, 70, 0
3, 35784, Note_on_c, 0, 73, 64
3, 35807, Note_on_c, 0, 73, 0
3, 35808, Note_on_c, 0, 77, 64
3, 35831, Note_on_c, 0, 77, 0
3, 35832, Note_on_c, 0, 72, 64
3, 35855, Note_on_c, 0, 72, 0
3, 35856, Note_on_c, 0, 73, 64
3, 35879, Note_on_c, 0, 73, 0
3, 35880, Note_on_c, 0, 70, 64
3, 35903, Note_on_c, 0, 70, 0
3, 35904, Note_on_c, 0, 72, 64
3, 35927, Note_on_c, 0, 72, 0
3, 35928, Note_on_c, 0, 68, 64
3, 35951, Note_on_c, 0, 68, 0
3, 35952, Note_on_c, 0, 72, 64
3, 35975, Note_on_c, 0, 72, 0
3, 35976, Note_on_c, 0, 75, 64
3, 35999, Note_on_c, 0, 75, 0
3, 36000, Note_on_c, 0, 77, 64
3, 36023, Note_on_c, 0, 77, 0
3, 36024, Note_on_c, 0, 73, 64
3, 36047, Note_on_c, 0, 73, 0
3, 36048, Note_on_c, 0, 75, 64
3, 36071, Note_on_c, 0, 75, 0
3, 36072, Note_on_c, 0, 72, 64
3, 36095, Note_on_c, 0, 72, 0
3, 36096, Note_on_c, 0, 73, 64
3, 36119, Note_on_c, 0, 73, 0
3, 36120, Note_on_c, 0, 70, 64
3, 36143, Note_on_c, 0, 70, 0
3, 36144, Note_on_c, 0, 73, 64
3, 36167, Note_on_c, 0, 73, 0
3, 36168, Note_on_c, 0, 77, 64
3, 36191, Note_on_c, 0, 77, 0
3, 36192, Note_on_c, 0, 79, 64
3, 36215, Note_on_c, 0, 79, 0
3, 36216, Note_on_c, 0, 76, 64
3, 36239, Note_on_c, 0, 76, 0
3, 36240, Note_on_c, 0, 77, 64
3, 36263, Note_on_c, 0, 77, 0
3, 36264, Note_on_c, 0, 74, 64
3, 36287, Note_on_c, 0, 74, 0
3, 36288, Note_on_c, 0, 76, 64
3, 36333, Note_on_c, 0, 76, 0
3, 36336, Note_on_c, 0, 72, 64
3, 36381, Note_on_c, 0, 72, 0
3, 36480, Note_on_c, 0, 72, 64
3, 36657, Note_on_c, 0, 72, 0
3, 36672, Note_on_c, 0, 74, 64
3, 36849, Note_on_c, 0, 74, 0
3, 36864, Note_on_c, 0, 75, 64
3, 36909, Note_on_c, 0, 75, 0
3, 36912, Note_on_c, 0, 74, 64
3, 36935, Note_on_c, 0, 74, 0
3, 36936, Note_on_c, 0, 72, 64
3, 36959, Note_on_c, 0, 72, 0
3, 36960, Note_on_c, 0, 71, 64
3, 37005, Note_on_c, 0, 71, 0
3, 37008, Note_on_c, 0, 74, 64
3, 37053, Note_on_c, 0, 74, 0
3, 37056, Note_on_c, 0, 67, 64
3, 37145, Note_on_c, 0, 67, 0
3, 37152, Note_on_c, 0, 79, 64
3, 37241, Note_on_c, 0, 79, 0
3, 37248, Note_on_c, 0, 79, 64
3, 37293, Note_on_c, 0, 79, 0
3, 37296, Note_on_c, 0, 77, 64
3, 37319, Note_on_c, 0, 77, 0
3, 37320, Note_on_c, 0, 75, 64
3, 37343, Note_on_c, 0, 75, 0
3, 37344, Note_on_c, 0, 74, 64
3, 37389, Note_on_c, 0, 74, 0
3, 37392, Note_on_c, 0, 77, 64
3, 37437, Note_on_c, 0, 77, 0
3, 37440, Note_on_c, 0, 77, 64
3, 37463, Note_on_c, 0, 77, 0
3, 37464, Note_on_c, 0, 75, 64
3, 37487, Note_on_c, 0, 75, 0
3, 37488, Note_on_c, 0, 74, 64
3, 37511, Note_on_c, 0, 74, 0
3, 37512, Note_on_c, 0, 75, 64
3, 37535, Note_on_c, 0, 75, 0
3, 37536, Note_on_c, 0, 77, 64
3, 37559, Note_on_c, 0, 77, 0
3, 37560, Note_on_c, 0, 75, 64
3, 37583, Note_on_c, 0, 75, 0
3, 37584, Note_on_c, 0, 74, 64
3, 37607, Note_on_c, 0, 74, 0
3, 37608, Note_on_c, 0, 72, 64
3, 37631, Note_on_c, 0, 72, 0
3, 37632, Note_on_c, 0, 71, 64
3, 37677, Note_on_c, 0, 71, 0
3, 37680, Note_on_c, 0, 80, 64
3, 37769, Note_on_c, 0, 80, 0
3, 37776, Note_on_c, 0, 79, 64
3, 37821, Note_on_c, 0, 79, 0
3, 37824, Note_on_c, 0, 77, 64
3, 37847, Note_on_c, 0, 77, 0
3, 37848, Note_on_c, 0, 75, 64
3, 37871, Note_on_c, 0, 75, 0
3, 37872, Note_on_c, 0, 74, 64
3, 37895, Note_on_c, 0, 74, 0
3, 37896, Note_on_c, 0, 75, 64
3, 37919, Note_on_c, 0, 75, 0
3, 37920, Note_on_c, 0, 77, 64
3, 37943, Note_on_c, 0, 77, 0
3, 37944, Note_on_c, 0, 75, 64
3, 37967, Note_on_c, 0, 75, 0
3, 37968, Note_on_c, 0, 74, 64
3, 37991, Note_on_c, 0, 74, 0
3, 37992, Note_on_c, 0, 72, 64
3, 38015, Note_on_c, 0, 72, 0
3, 38016, Note_on_c, 0, 83, 64
3, 38064, Note_on_c, 0, 83, 0
3, 38064, Note_on_c, 0, 84, 64
3, 38109, Note_on_c, 0, 84, 0
3, 38160, Note_on_c, 0, 79, 64
3, 38205, Note_on_c, 0, 79, 0
3, 38208, Note_on_c, 0, 79, 64
3, 38256, Note_on_c, 0, 79, 0
3, 38256, Note_on_c, 0, 77, 64
3, 38301, Note_on_c, 0, 77, 0
3, 38352, Note_on_c, 0, 80, 64
3, 38397, Note_on_c, 0, 80, 0
3, 38400, Note_on_c, 0, 80, 64
3, 38448, Note_on_c, 0, 80, 0
3, 38448, Note_on_c, 0, 79, 64
3, 38493, Note_on_c, 0, 79, 0
3, 38544, Note_on_c, 0, 77, 64
3, 38589, Note_on_c, 0, 77, 0
3, 38592, Note_on_c, 0, 77, 64
3, 38640, Note_on_c, 0, 77, 0
3, 38640, Note_on_c, 0, 75, 64
3, 38685, Note_on_c, 0, 75, 0
3, 38736, Note_on_c, 0, 71, 64
3, 38781, Note_on_c, 0, 71, 0
3, 38784, Note_on_c, 0, 71, 64
3, 38832, Note_on_c, 0, 71, 0
3, 38832, Note_on_c, 0, 72, 64
3, 38877, Note_on_c, 0, 72, 0
3, 38928, Note_on_c, 0, 74, 64
3, 38973, Note_on_c, 0, 74, 0
3, 38976, Note_on_c, 0, 74, 64
3, 39024, Note_on_c, 0, 74, 0
3, 39024, Note_on_c, 0, 75, 64
3, 39069, Note_on_c, 0, 75, 0
3, 39120, Note_on_c, 0, 79, 64
3, 39165, Note_on_c, 0, 79, 0
3, 39168, Note_on_c, 0, 72, 64
3, 39235, Note_on_c, 0, 72, 0
3, 39240, Note_on_c, 0, 74, 64
3, 39263, Note_on_c, 0, 74, 0
3, 39264, Note_on_c, 0, 71, 64
3, 39331, Note_on_c, 0, 71, 0
3, 39336, Note_on_c, 0, 72, 64
3, 39359, Note_on_c, 0, 72, 0
3, 39360, Note_on_c, 0, 72, 64
3, 39383, Note_on_c, 0, 72, 0
3, 39384, Note_on_c, 0, 67, 64
3, 39407, Note_on_c, 0, 67, 0
3, 39408, Note_on_c, 0, 72, 64
3, 39431, Note_on_c, 0, 72, 0
3, 39432, Note_on_c, 0, 75, 64
3, 39455, Note_on_c, 0, 75, 0
3, 39456, Note_on_c, 0, 74, 64
3, 39479, Note_on_c, 0, 74, 0
3, 39480, Note_on_c, 0, 67, 64
3, 39503, Note_on_c, 0, 67, 0
3, 39504, Note_on_c, 0, 74, 64
3, 39527, Note_on_c, 0, 74, 0
3, 39528, Note_on_c, 0, 77, 64
3, 39551, Note_on_c, 0, 77, 0
3, 39552, Note_on_c, 0, 75, 64
3, 39597, Note_on_c, 0, 75, 0
3, 39600, Note_on_c, 0, 67, 64
3, 39645, Note_on_c, 0, 67, 0
3, 39648, Note_on_c, 0, 68, 64
3, 39693, Note_on_c, 0, 68, 0
3, 39696, Note_on_c, 0, 67, 64
3, 39789, Note_on_c, 0, 67, 0
3, 39792, Note_on_c, 0, 75, 64
3, 39837, Note_on_c, 0, 75, 0
3, 39840, Note_on_c, 0, 65, 64
3, 39981, Note_on_c, 0, 65, 0
3, 39984, Note_on_c, 0, 74, 64
3, 40029, Note_on_c, 0, 74, 0
3, 40032, Note_on_c, 0, 63, 64
3, 40121, Note_on_c, 0, 63, 0
3, 40128, Note_on_c, 0, 63, 64
3, 40173, Note_on_c, 0, 63, 0
3, 40176, Note_on_c, 0, 72, 64
3, 40221, Note_on_c, 0, 72, 0
3, 40224, Note_on_c, 0, 62, 64
3, 40365, Note_on_c, 0, 62, 0
3, 40368, Note_on_c, 0, 70, 64
3, 40413, Note_on_c, 0, 70, 0
3, 40416, Note_on_c, 0, 60, 64
3, 40557, Note_on_c, 0, 60, 0
3, 40560, Note_on_c, 0, 68, 64
3, 40605, Note_on_c, 0, 68, 0
3, 40608, Note_on_c, 0, 58, 64
3, 40727, Note_on_c, 0, 58, 0
3, 40728, Note_on_c, 0, 58, 64
3, 40751, Note_on_c, 0, 58, 0
3, 40752, Note_on_c, 0, 63, 64
3, 40775, Note_on_c, 0, 63, 0
3, 40776, Note_on_c, 0, 67, 64
3, 40799, Note_on_c, 0, 67, 0
3, 40800, Note_on_c, 0, 65, 64
3, 40823, Note_on_c, 0, 65, 0
3, 40824, Note_on_c, 0, 58, 64
3, 40847, Note_on_c, 0, 58, 0
3, 40848, Note_on_c, 0, 65, 64
3, 40871, Note_on_c, 0, 65, 0
3, 40872, Note_on_c, 0, 68, 64
3, 40895, Note_on_c, 0, 68, 0
3, 40896, Note_on_c, 0, 67, 64
3, 40985, Note_on_c, 0, 67, 0
3, 41112, Note_on_c, 0, 63, 64
3, 41135, Note_on_c, 0, 63, 0
3, 41136, Note_on_c, 0, 67, 64
3, 41159, Note_on_c, 0, 67, 0
3, 41160, Note_on_c, 0, 70, 64
3, 41183, Note_on_c, 0, 70, 0
3, 41184, Note_on_c, 0, 75, 64
3, 41207, Note_on_c, 0, 75, 0
3, 41208, Note_on_c, 0, 72, 64
3, 41231, Note_on_c, 0, 72, 0
3, 41232, Note_on_c, 0, 73, 64
3, 41255, Note_on_c, 0, 73, 0
3, 41256, Note_on_c, 0, 70, 64
3, 41279, Note_on_c, 0, 70, 0
3, 41280, Note_on_c, 0, 72, 64
3, 41325, Note_on_c, 0, 72, 0
3, 41328, Note_on_c, 0, 63, 64
3, 41373, Note_on_c, 0, 63, 0
3, 41376, Note_on_c, 0, 72, 64
3, 41495, Note_on_c, 0, 72, 0
3, 41496, Note_on_c, 0, 61, 64
3, 41519, Note_on_c, 0, 61, 0
3, 41520, Note_on_c, 0, 65, 64
3, 41543, Note_on_c, 0, 65, 0
3, 41544, Note_on_c, 0, 68, 64
3, 41567, Note_on_c, 0, 68, 0
3, 41568, Note_on_c, 0, 73, 64
3, 41591, Note_on_c, 0, 73, 0
3, 41592, Note_on_c, 0, 70, 64
3, 41615, Note_on_c, 0, 70, 0
3, 41616, Note_on_c, 0, 72, 64
3, 41639, Note_on_c, 0, 72, 0
3, 41640, Note_on_c, 0, 68, 64
3, 41663, Note_on_c, 0, 68, 0
3, 41664, Note_on_c, 0, 70, 64
3, 41783, Note_on_c, 0, 70, 0
3, 41784, Note_on_c, 0, 67, 64
3, 41807, Note_on_c, 0, 67, 0
3, 41808, Note_on_c, 0, 68, 64
3, 41831, Note_on_c, 0, 68, 0
3, 41832, Note_on_c, 0, 65, 64
3, 41855, Note_on_c, 0, 65, 0
3, 41856, Note_on_c, 0, 73, 64
3, 41879, Note_on_c, 0, 73, 0
3, 41880, Note_on_c, 0, 72, 64
3, 41903, Note_on_c, 0, 72, 0
3, 41904, Note_on_c, 0, 70, 64
3, 41927, Note_on_c, 0, 70, 0
3, 41928, Note_on_c, 0, 72, 64
3, 41951, Note_on_c, 0, 72, 0
3, 41952, Note_on_c, 0, 73, 64
3, 41975, Note_on_c, 0, 73, 0
3, 41976, Note_on_c, 0, 72, 64
3, 41999, Note_on_c, 0, 72, 0
3, 42000, Note_on_c, 0, 70, 64
3, 42023, Note_on_c, 0, 70, 0
3, 42024, Note_on_c, 0, 68, 64
3, 42047, Note_on_c, 0, 68, 0
3, 42048, Note_on_c, 0, 67, 64
3, 42071, Note_on_c, 0, 67, 0
3, 42072, Note_on_c, 0, 65, 64
3, 42095, Note_on_c, 0, 65, 0
3, 42096, Note_on_c, 0, 67, 64
3, 42119, Note_on_c, 0, 67, 0
3, 42120, Note_on_c, 0, 68, 64
3, 42143, Note_on_c, 0, 68, 0
3, 42144, Note_on_c, 0, 70, 64
3, 42167, Note_on_c, 0, 70, 0
3, 42168, Note_on_c, 0, 67, 64
3, 42191, Note_on_c, 0, 67, 0
3, 42192, Note_on_c, 0, 68, 64
3, 42215, Note_on_c, 0, 68, 0
3, 42216, Note_on_c, 0, 65, 64
3, 42239, Note_on_c, 0, 65, 0
3, 42240, Note_on_c, 0, 72, 64
3, 42329, Note_on_c, 0, 72, 0
3, 42336, Note_on_c, 0, 72, 64
3, 42359, Note_on_c, 0, 72, 0
3, 42360, Note_on_c, 0, 74, 64
3, 42383, Note_on_c, 0, 74, 0
3, 42384, Note_on_c, 0, 76, 64
3, 42407, Note_on_c, 0, 76, 0
3, 42408, Note_on_c, 0, 77, 64
3, 42431, Note_on_c, 0, 77, 0
3, 42432, Note_on_c, 0, 79, 64
3, 42477, Note_on_c, 0, 79, 0
3, 42480, Note_on_c, 0, 72, 64
3, 42525, Note_on_c, 0, 72, 0
3, 42528, Note_on_c, 0, 77, 64
3, 42617, Note_on_c, 0, 77, 0
3, 42624, Note_on_c, 0, 77, 64
3, 42647, Note_on_c, 0, 77, 0
3, 42648, Note_on_c, 0, 70, 64
3, 42671, Note_on_c, 0, 70, 0
3, 42672, Note_on_c, 0, 73, 64
3, 42695, Note_on_c, 0, 73, 0
3, 42696, Note_on_c, 0, 77, 64
3, 42719, Note_on_c, 0, 77, 0
3, 42720, Note_on_c, 0, 82, 64
3, 42743, Note_on_c, 0, 82, 0
3, 42744, Note_on_c, 0, 79, 64
3, 42767, Note_on_c, 0, 79, 0
3, 42768, Note_on_c, 0, 80, 64
3, 42791, Note_on_c, 0, 80, 0
3, 42792, Note_on_c, 0, 77, 64
3, 42815, Note_on_c, 0, 77, 0
3, 42816, Note_on_c, 0, 84, 64
3, 42861, Note_on_c, 0, 84, 0
3, 42864, Note_on_c, 0, 72, 64
3, 42909, Note_on_c, 0, 72, 0
3, 42912, Note_on_c, 0, 76, 64
3, 42957, Note_on_c, 0, 76, 0
3, 42960, Note_on_c, 0, 79, 64
3, 43031, Note_on_c, 0, 79, 0
3, 43032, Note_on_c, 0, 77, 64
3, 43055, Note_on_c, 0, 77, 0
3, 43056, Note_on_c, 0, 79, 64
3, 43079, Note_on_c, 0, 79, 0
3, 43080, Note_on_c, 0, 80, 64
3, 43103, Note_on_c, 0, 80, 0
3, 43104, Note_on_c, 0, 82, 64
3, 43127, Note_on_c, 0, 82, 0
3, 43128, Note_on_c, 0, 84, 64
3, 43151, Note_on_c, 0, 84, 0
3, 43152, Note_on_c, 0, 80, 64
3, 43175, Note_on_c, 0, 80, 0
3, 43176, Note_on_c, 0, 82, 64
3, 43199, Note_on_c, 0, 82, 0
3, 43200, Note_on_c, 0, 84, 64
3, 43223, Note_on_c, 0, 84, 0
3, 43224, Note_on_c, 0, 85, 64
3, 43247, Note_on_c, 0, 85, 0
3, 43248, Note_on_c, 0, 84, 64
3, 43271, Note_on_c, 0, 84, 0
3, 43272, Note_on_c, 0, 82, 64
3, 43295, Note_on_c, 0, 82, 0
3, 43296, Note_on_c, 0, 80, 64
3, 43319, Note_on_c, 0, 80, 0
3, 43320, Note_on_c, 0, 82, 64
3, 43343, Note_on_c, 0, 82, 0
3, 43344, Note_on_c, 0, 79, 64
3, 43367, Note_on_c, 0, 79, 0
3, 43368, Note_on_c, 0, 80, 64
3, 43391, Note_on_c, 0, 80, 0
3, 43392, Note_on_c, 0, 77, 64
3, 43511, Note_on_c, 0, 77, 0
3, 43512, Note_on_c, 0, 76, 64
3, 43535, Note_on_c, 0, 76, 0
3, 43536, Note_on_c, 0, 77, 64
3, 43559, Note_on_c, 0, 77, 0
3, 43560, Note_on_c, 0, 79, 64
3, 43583, Note_on_c, 0, 79, 0
3, 43584, Note_on_c, 0, 70, 64
3, 43629, Note_on_c, 0, 70, 0
3, 43632, Note_on_c, 0, 79, 64
3, 43677, Note_on_c, 0, 79, 0
3, 43680, Note_on_c, 0, 72, 64
3, 43725, Note_on_c, 0, 72, 0
3, 43728, Note_on_c, 0, 77, 64
3, 43751, Note_on_c, 0, 77, 0
3, 43752, Note_on_c, 0, 75, 64
3, 43775, Note_on_c, 0, 75, 0
3, 43776, Note_on_c, 0, 73, 64
3, 43799, Note_on_c, 0, 73, 0
3, 43800, Note_on_c, 0, 75, 64
3, 43823, Note_on_c, 0, 75, 0
3, 43824, Note_on_c, 0, 73, 64
3, 43847, Note_on_c, 0, 73, 0
3, 43848, Note_on_c, 0, 72, 64
3, 43871, Note_on_c, 0, 72, 0
3, 43872, Note_on_c, 0, 70, 64
3, 43895, Note_on_c, 0, 70, 0
3, 43896, Note_on_c, 0, 72, 64
3, 43919, Note_on_c, 0, 72, 0
3, 43920, Note_on_c, 0, 68, 64
3, 43943, Note_on_c, 0, 68, 0
3, 43944, Note_on_c, 0, 70, 64
3, 43967, Note_on_c, 0, 70, 0
3, 43968, Note_on_c, 0, 72, 64
3, 44013, Note_on_c, 0, 72, 0
3, 44016, Note_on_c, 0, 65, 64
3, 44061, Note_on_c, 0, 65, 0
3, 44064, Note_on_c, 0, 77, 64
3, 44205, Note_on_c, 0, 77, 0
3, 44208, Note_on_c, 0, 75, 64
3, 44231, Note_on_c, 0, 75, 0
3, 44232, Note_on_c, 0, 73, 64
3, 44255, Note_on_c, 0, 73, 0
3, 44256, Note_on_c, 0, 72, 64
3, 44301, Note_on_c, 0, 72, 0
3, 44304, Note_on_c, 0, 75, 64
3, 44349, Note_on_c, 0, 75, 0
3, 44352, Note_on_c, 0, 68, 64
3, 44441, Note_on_c, 0, 68, 0
3, 44448, Note_on_c, 0, 73, 64
3, 44589, Note_on_c, 0, 73, 0
3, 44592, Note_on_c, 0, 72, 64
3, 44615, Note_on_c, 0, 72, 0
3, 44616, Note_on_c, 0, 70, 64
3, 44639, Note_on_c, 0, 70, 0
3, 44640, Note_on_c, 0, 68, 64
3, 44685, Note_on_c, 0, 68, 0
3, 44688, Note_on_c, 0, 72, 64
3, 44733, Note_on_c, 0, 72, 0
3, 44736, Note_on_c, 0, 65, 64
3, 44825, Note_on_c, 0, 65, 0
3, 44832, Note_on_c, 0, 70, 64
3, 44973, Note_on_c, 0, 70, 0
3, 44976, Note_on_c, 0, 68, 64
3, 44999, Note_on_c, 0, 68, 0
3, 45000, Note_on_c, 0, 67, 64
3, 45023, Note_on_c, 0, 67, 0
3, 45024, Note_on_c, 0, 72, 64
3, 45069, Note_on_c, 0, 72, 0
3, 45072, Note_on_c, 0, 70, 64
3, 45117, Note_on_c, 0, 70, 0
3, 45120, Note_on_c, 0, 68, 64
3, 45209, Note_on_c, 0, 68, 0
3, 45216, Note_on_c, 0, 67, 64
3, 45335, Note_on_c, 0, 67, 0
3, 45336, Note_on_c, 0, 65, 64
3, 45359, Note_on_c, 0, 65, 0
3, 45360, Note_on_c, 0, 64, 64
3, 45383, Note_on_c, 0, 64, 0
3, 45384, Note_on_c, 0, 65, 64
3, 45407, Note_on_c, 0, 65, 0
3, 45408, Note_on_c, 0, 73, 64
3, 45527, Note_on_c, 0, 73, 0
3, 45528, Note_on_c, 0, 70, 64
3, 45551, Note_on_c, 0, 70, 0
3, 45552, Note_on_c, 0, 69, 64
3, 45575, Note_on_c, 0, 69, 0
3, 45576, Note_on_c, 0, 70, 64
3, 45599, Note_on_c, 0, 70, 0
3, 45600, Note_on_c, 0, 76, 64
3, 45645, Note_on_c, 0, 76, 0
3, 45648, Note_on_c, 0, 79, 64
3, 45693, Note_on_c, 0, 79, 0
3, 45696, Note_on_c, 0, 68, 64
3, 45719, Note_on_c, 0, 68, 0
3, 45720, Note_on_c, 0, 67, 64
3, 45743, Note_on_c, 0, 67, 0
3, 45744, Note_on_c, 0, 68, 64
3, 45767, Note_on_c, 0, 68, 0
3, 45768, Note_on_c, 0, 73, 64
3, 45791, Note_on_c, 0, 73, 0
3, 45792, Note_on_c, 0, 72, 64
3, 45815, Note_on_c, 0, 72, 0
3, 45816, Note_on_c, 0, 70, 64
3, 45839, Note_on_c, 0, 70, 0
3, 45840, Note_on_c, 0, 68, 64
3, 45863, Note_on_c, 0, 68, 0
3, 45864, Note_on_c, 0, 67, 64
3, 45887, Note_on_c, 0, 67, 0
3, 45888, Note_on_c, 0, 65, 64
3, 46065, Note_on_c, 0, 65, 0
3, 46065, End_track
4, 0, Start_track
4, 0, MIDI_port, 0
4, 0, Title_t, "Clavier (LH)"
4, 0, Program_c, 0, 6
4, 0, Control_c, 0, 7, 127
4, 48, Note_on_c, 0, 65, 64
4, 71, Note_on_c, 0, 65, 0
4, 72, Note_on_c, 0, 63, 64
4, 95, Note_on_c, 0, 63, 0
4, 96, Note_on_c, 0, 61, 64
4, 141, Note_on_c, 0, 61, 0
4, 144, Note_on_c, 0, 60, 64
4, 189, Note_on_c, 0, 60, 0
4, 192, Note_on_c, 0, 58, 64
4, 237, Note_on_c, 0, 58, 0
4, 240, Note_on_c, 0, 56, 64
4, 263, Note_on_c, 0, 56, 0
4, 264, Note_on_c, 0, 58, 64
4, 287, Note_on_c, 0, 58, 0
4, 288, Note_on_c, 0, 60, 64
4, 333, Note_on_c, 0, 60, 0
4, 336, Note_on_c, 0, 48, 64
4, 381, Note_on_c, 0, 48, 0
4, 384, Note_on_c, 0, 53, 64
4, 473, Note_on_c, 0, 53, 0
4, 480, Note_on_c, 0, 55, 64
4, 569, Note_on_c, 0, 55, 0
4, 576, Note_on_c, 0, 56, 64
4, 621, Note_on_c, 0, 56, 0
4, 624, Note_on_c, 0, 53, 64
4, 647, Note_on_c, 0, 53, 0
4, 648, Note_on_c, 0, 55, 64
4, 671, Note_on_c, 0, 55, 0
4, 672, Note_on_c, 0, 56, 64
4, 717, Note_on_c, 0, 56, 0
4, 720, Note_on_c, 0, 58, 64
4, 743, Note_on_c, 0, 58, 0
4, 744, Note_on_c, 0, 60, 64
4, 767, Note_on_c, 0, 60, 0
4, 768, Note_on_c, 0, 61, 64
4, 791, Note_on_c, 0, 61, 0
4, 792, Note_on_c, 0, 63, 64
4, 815, Note_on_c, 0, 63, 0
4, 816, Note_on_c, 0, 61, 64
4, 839, Note_on_c, 0, 61, 0
4, 840, Note_on_c, 0, 60, 64
4, 863, Note_on_c, 0, 60, 0
4, 864, Note_on_c, 0, 58, 64
4, 887, Note_on_c, 0, 58, 0
4, 888, Note_on_c, 0, 60, 64
4, 911, Note_on_c, 0, 60, 0
4, 912, Note_on_c, 0, 56, 64
4, 935, Note_on_c, 0, 56, 0
4, 936, Note_on_c, 0, 58, 64
4, 959, Note_on_c, 0, 58, 0
4, 960, Note_on_c, 0, 60, 64
4, 983, Note_on_c, 0, 60, 0
4, 984, Note_on_c, 0, 61, 64
4, 1007, Note_on_c, 0, 61, 0
4, 1008, Note_on_c, 0, 60, 64
4, 1031, Note_on_c, 0, 60, 0
4, 1032, Note_on_c, 0, 58, 64
4, 1055, Note_on_c, 0, 58, 0
4, 1056, Note_on_c, 0, 56, 64
4, 1079, Note_on_c, 0, 56, 0
4, 1080, Note_on_c, 0, 58, 64
4, 1103, Note_on_c, 0, 58, 0
4, 1104, Note_on_c, 0, 55, 64
4, 1127, Note_on_c, 0, 55, 0
4, 1128, Note_on_c, 0, 56, 64
4, 1151, Note_on_c, 0, 56, 0
4, 1152, Note_on_c, 0, 58, 64
4, 1175, Note_on_c, 0, 58, 0
4, 1176, Note_on_c, 0, 60, 64
4, 1199, Note_on_c, 0, 60, 0
4, 1200, Note_on_c, 0, 58, 64
4, 1223, Note_on_c, 0, 58, 0
4, 1224, Note_on_c, 0, 56, 64
4, 1247, Note_on_c, 0, 56, 0
4, 1248, Note_on_c, 0, 55, 64
4, 1271, Note_on_c, 0, 55, 0
4, 1272, Note_on_c, 0, 60, 64
4, 1295, Note_on_c, 0, 60, 0
4, 1296, Note_on_c, 0, 58, 64
4, 1319, Note_on_c, 0, 58, 0
4, 1320, Note_on_c, 0, 60, 64
4, 1343, Note_on_c, 0, 60, 0
4, 1344, Note_on_c, 0, 53, 64
4, 1389, Note_on_c, 0, 53, 0
4, 1392, Note_on_c, 0, 50, 64
4, 1437, Note_on_c, 0, 50, 0
4, 1440, Note_on_c, 0, 55, 64
4, 1485, Note_on_c, 0, 55, 0
4, 1488, Note_on_c, 0, 43, 64
4, 1533, Note_on_c, 0, 43, 0
4, 1536, Note_on_c, 0, 48, 64
4, 1581, Note_on_c, 0, 48, 0
4, 1584, Note_on_c, 0, 60, 64
4, 1607, Note_on_c, 0, 60, 0
4, 1608, Note_on_c, 0, 58, 64
4, 1631, Note_on_c, 0, 58, 0
4, 1632, Note_on_c, 0, 56, 64
4, 1677, Note_on_c, 0, 56, 0
4, 1680, Note_on_c, 0, 55, 64
4, 1725, Note_on_c, 0, 55, 0
4, 1728, Note_on_c, 0, 53, 64
4, 1773, Note_on_c, 0, 53, 0
4, 1776, Note_on_c, 0, 51, 64
4, 1799, Note_on_c, 0, 51, 0
4, 1800, Note_on_c, 0, 53, 64
4, 1823, Note_on_c, 0, 53, 0
4, 1824, Note_on_c, 0, 55, 64
4, 1869, Note_on_c, 0, 55, 0
4, 1872, Note_on_c, 0, 43, 64
4, 1917, Note_on_c, 0, 43, 0
4, 1920, Note_on_c, 0, 48, 64
4, 1965, Note_on_c, 0, 48, 0
4, 1968, Note_on_c, 0, 43, 64
4, 2013, Note_on_c, 0, 43, 0
4, 2016, Note_on_c, 0, 55, 64
4, 2105, Note_on_c, 0, 55, 0
4, 2112, Note_on_c, 0, 55, 64
4, 2135, Note_on_c, 0, 55, 0
4, 2136, Note_on_c, 0, 53, 64
4, 2159, Note_on_c, 0, 53, 0
4, 2160, Note_on_c, 0, 51, 64
4, 2183, Note_on_c, 0, 51, 0
4, 2184, Note_on_c, 0, 50, 64
4, 2207, Note_on_c, 0, 50, 0
4, 2208, Note_on_c, 0, 48, 64
4, 2231, Note_on_c, 0, 48, 0
4, 2232, Note_on_c, 0, 46, 64
4, 2255, Note_on_c, 0, 46, 0
4, 2256, Note_on_c, 0, 44, 64
4, 2279, Note_on_c, 0, 44, 0
4, 2280, Note_on_c, 0, 43, 64
4, 2303, Note_on_c, 0, 43, 0
4, 2304, Note_on_c, 0, 41, 64
4, 2349, Note_on_c, 0, 41, 0
4, 2352, Note_on_c, 0, 48, 64
4, 2397, Note_on_c, 0, 48, 0
4, 2400, Note_on_c, 0, 53, 64
4, 2519, Note_on_c, 0, 53, 0
4, 2520, Note_on_c, 0, 51, 64
4, 2543, Note_on_c, 0, 51, 0
4, 2544, Note_on_c, 0, 53, 64
4, 2567, Note_on_c, 0, 53, 0
4, 2568, Note_on_c, 0, 55, 64
4, 2591, Note_on_c, 0, 55, 0
4, 2592, Note_on_c, 0, 56, 64
4, 2615, Note_on_c, 0, 56, 0
4, 2616, Note_on_c, 0, 55, 64
4, 2639, Note_on_c, 0, 55, 0
4, 2640, Note_on_c, 0, 53, 64
4, 2663, Note_on_c, 0, 53, 0
4, 2664, Note_on_c, 0, 51, 64
4, 2687, Note_on_c, 0, 51, 0
4, 2688, Note_on_c, 0, 50, 64
4, 2733, Note_on_c, 0, 50, 0
4, 2736, Note_on_c, 0, 51, 64
4, 2759, Note_on_c, 0, 51, 0
4, 2760, Note_on_c, 0, 53, 64
4, 2783, Note_on_c, 0, 53, 0
4, 2784, Note_on_c, 0, 55, 64
4, 2829, Note_on_c, 0, 55, 0
4, 2832, Note_on_c, 0, 43, 64
4, 2877, Note_on_c, 0, 43, 0
4, 2880, Note_on_c, 0, 48, 64
4, 2925, Note_on_c, 0, 48, 0
4, 2928, Note_on_c, 0, 51, 64
4, 2973, Note_on_c, 0, 51, 0
4, 2976, Note_on_c, 0, 41, 64
4, 3021, Note_on_c, 0, 41, 0
4, 3024, Note_on_c, 0, 53, 64
4, 3069, Note_on_c, 0, 53, 0
4, 3072, Note_on_c, 0, 46, 64
4, 3117, Note_on_c, 0, 46, 0
4, 3120, Note_on_c, 0, 49, 64
4, 3165, Note_on_c, 0, 49, 0
4, 3168, Note_on_c, 0, 39, 64
4, 3213, Note_on_c, 0, 39, 0
4, 3216, Note_on_c, 0, 51, 64
4, 3261, Note_on_c, 0, 51, 0
4, 3264, Note_on_c, 0, 44, 64
4, 3309, Note_on_c, 0, 44, 0
4, 3312, Note_on_c, 0, 46, 64
4, 3335, Note_on_c, 0, 46, 0
4, 3336, Note_on_c, 0, 48, 64
4, 3359, Note_on_c, 0, 48, 0
4, 3360, Note_on_c, 0, 49, 64
4, 3501, Note_on_c, 0, 49, 0
4, 3504, Note_on_c, 0, 46, 64
4, 3527, Note_on_c, 0, 46, 0
4, 3528, Note_on_c, 0, 43, 64
4, 3551, Note_on_c, 0, 43, 0
4, 3552, Note_on_c, 0, 48, 64
4, 3597, Note_on_c, 0, 48, 0
4, 3600, Note_on_c, 0, 36, 64
4, 3645, Note_on_c, 0, 36, 0
4, 3648, Note_on_c, 0, 53, 64
4, 3825, Note_on_c, 0, 53, 0
4, 3840, Note_on_c, 0, 55, 64
4, 4017, Note_on_c, 0, 55, 0
4, 4032, Note_on_c, 0, 56, 64
4, 4077, Note_on_c, 0, 56, 0
4, 4080, Note_on_c, 0, 55, 64
4, 4103, Note_on_c, 0, 55, 0
4, 4104, Note_on_c, 0, 53, 64
4, 4127, Note_on_c, 0, 53, 0
4, 4128, Note_on_c, 0, 52, 64
4, 4173, Note_on_c, 0, 52, 0
4, 4176, Note_on_c, 0, 55, 64
4, 4221, Note_on_c, 0, 55, 0
4, 4224, Note_on_c, 0, 48, 64
4, 4313, Note_on_c, 0, 48, 0
4, 4320, Note_on_c, 0, 60, 64
4, 4461, Note_on_c, 0, 60, 0
4, 4464, Note_on_c, 0, 58, 64
4, 4487, Note_on_c, 0, 58, 0
4, 4488, Note_on_c, 0, 56, 64
4, 4511, Note_on_c, 0, 56, 0
4, 4512, Note_on_c, 0, 55, 64
4, 4557, Note_on_c, 0, 55, 0
4, 4560, Note_on_c, 0, 58, 64
4, 4605, Note_on_c, 0, 58, 0
4, 4608, Note_on_c, 0, 52, 64
4, 4653, Note_on_c, 0, 52, 0
4, 4656, Note_on_c, 0, 48, 64
4, 4701, Note_on_c, 0, 48, 0
4, 4704, Note_on_c, 0, 53, 64
4, 4823, Note_on_c, 0, 53, 0
4, 4824, Note_on_c, 0, 56, 64
4, 4847, Note_on_c, 0, 56, 0
4, 4848, Note_on_c, 0, 55, 64
4, 4871, Note_on_c, 0, 55, 0
4, 4872, Note_on_c, 0, 53, 64
4, 4895, Note_on_c, 0, 53, 0
4, 4896, Note_on_c, 0, 52, 64
4, 4919, Note_on_c, 0, 52, 0
4, 4920, Note_on_c, 0, 53, 64
4, 4943, Note_on_c, 0, 53, 0
4, 4944, Note_on_c, 0, 50, 64
4, 4967, Note_on_c, 0, 50, 0
4, 4968, Note_on_c, 0, 52, 64
4, 4991, Note_on_c, 0, 52, 0
4, 4992, Note_on_c, 0, 53, 64
4, 5015, Note_on_c, 0, 53, 0
4, 5016, Note_on_c, 0, 55, 64
4, 5039, Note_on_c, 0, 55, 0
4, 5040, Note_on_c, 0, 53, 64
4, 5063, Note_on_c, 0, 53, 0
4, 5064, Note_on_c, 0, 51, 64
4, 5087, Note_on_c, 0, 51, 0
4, 5088, Note_on_c, 0, 50, 64
4, 5111, Note_on_c, 0, 50, 0
4, 5112, Note_on_c, 0, 51, 64
4, 5135, Note_on_c, 0, 51, 0
4, 5136, Note_on_c, 0, 48, 64
4, 5159, Note_on_c, 0, 48, 0
4, 5160, Note_on_c, 0, 50, 64
4, 5183, Note_on_c, 0, 50, 0
4, 5184, Note_on_c, 0, 51, 64
4, 5207, Note_on_c, 0, 51, 0
4, 5208, Note_on_c, 0, 53, 64
4, 5231, Note_on_c, 0, 53, 0
4, 5232, Note_on_c, 0, 51, 64
4, 5255, Note_on_c, 0, 51, 0
4, 5256, Note_on_c, 0, 49, 64
4, 5279, Note_on_c, 0, 49, 0
4, 5280, Note_on_c, 0, 48, 64
4, 5303, Note_on_c, 0, 48, 0
4, 5304, Note_on_c, 0, 49, 64
4, 5327, Note_on_c, 0, 49, 0
4, 5328, Note_on_c, 0, 46, 64
4, 5351, Note_on_c, 0, 46, 0
4, 5352, Note_on_c, 0, 48, 64
4, 5375, Note_on_c, 0, 48, 0
4, 5376, Note_on_c, 0, 49, 64
4, 5399, Note_on_c, 0, 49, 0
4, 5400, Note_on_c, 0, 51, 64
4, 5423, Note_on_c, 0, 51, 0
4, 5424, Note_on_c, 0, 49, 64
4, 5447, Note_on_c, 0, 49, 0
4, 5448, Note_on_c, 0, 48, 64
4, 5471, Note_on_c, 0, 48, 0
4, 5472, Note_on_c, 0, 46, 64
4, 5495, Note_on_c, 0, 46, 0
4, 5496, Note_on_c, 0, 48, 64
4, 5519, Note_on_c, 0, 48, 0
4, 5520, Note_on_c, 0, 44, 64
4, 5543, Note_on_c, 0, 44, 0
4, 5544, Note_on_c, 0, 46, 64
4, 5567, Note_on_c, 0, 46, 0
4, 5568, Note_on_c, 0, 48, 64
4, 5591, Note_on_c, 0, 48, 0
4, 5592, Note_on_c, 0, 49, 64
4, 5615, Note_on_c, 0, 49, 0
4, 5616, Note_on_c, 0, 48, 64
4, 5639, Note_on_c, 0, 48, 0
4, 5640, Note_on_c, 0, 46, 64
4, 5663, Note_on_c, 0, 46, 0
4, 5664, Note_on_c, 0, 44, 64
4, 5687, Note_on_c, 0, 44, 0
4, 5688, Note_on_c, 0, 46, 64
4, 5711, Note_on_c, 0, 46, 0
4, 5712, Note_on_c, 0, 43, 64
4, 5735, Note_on_c, 0, 43, 0
4, 5736, Note_on_c, 0, 44, 64
4, 5759, Note_on_c, 0, 44, 0
4, 5760, Note_on_c, 0, 46, 64
4, 5783, Note_on_c, 0, 46, 0
4, 5784, Note_on_c, 0, 48, 64
4, 5807, Note_on_c, 0, 48, 0
4, 5808, Note_on_c, 0, 46, 64
4, 5831, Note_on_c, 0, 46, 0
4, 5832, Note_on_c, 0, 44, 64
4, 5855, Note_on_c, 0, 44, 0
4, 5856, Note_on_c, 0, 43, 64
4, 5879, Note_on_c, 0, 43, 0
4, 5880, Note_on_c, 0, 44, 64
4, 5903, Note_on_c, 0, 44, 0
4, 5904, Note_on_c, 0, 41, 64
4, 5927, Note_on_c, 0, 41, 0
4, 5928, Note_on_c, 0, 43, 64
4, 5951, Note_on_c, 0, 43, 0
4, 5952, Note_on_c, 0, 44, 64
4, 5997, Note_on_c, 0, 44, 0
4, 6000, Note_on_c, 0, 56, 64
4, 6045, Note_on_c, 0, 56, 0
4, 6048, Note_on_c, 0, 55, 64
4, 6093, Note_on_c, 0, 55, 0
4, 6096, Note_on_c, 0, 51, 64
4, 6141, Note_on_c, 0, 51, 0
4, 6144, Note_on_c, 0, 44, 64
4, 6189, Note_on_c, 0, 44, 0
4, 6192, Note_on_c, 0, 56, 64
4, 6237, Note_on_c, 0, 56, 0
4, 6240, Note_on_c, 0, 55, 64
4, 6285, Note_on_c, 0, 55, 0
4, 6288, Note_on_c, 0, 51, 64
4, 6333, Note_on_c, 0, 51, 0
4, 6336, Note_on_c, 0, 44, 64
4, 6381, Note_on_c, 0, 44, 0
4, 6384, Note_on_c, 0, 56, 64
4, 6429, Note_on_c, 0, 56, 0
4, 6432, Note_on_c, 0, 58, 64
4, 6477, Note_on_c, 0, 58, 0
4, 6480, Note_on_c, 0, 55, 64
4, 6525, Note_on_c, 0, 55, 0
4, 6528, Note_on_c, 0, 60, 64
4, 6573, Note_on_c, 0, 60, 0
4, 6576, Note_on_c, 0, 56, 64
4, 6621, Note_on_c, 0, 56, 0
4, 6624, Note_on_c, 0, 61, 64
4, 6743, Note_on_c, 0, 61, 0
4, 6744, Note_on_c, 0, 65, 64
4, 6767, Note_on_c, 0, 65, 0
4, 6768, Note_on_c, 0, 63, 64
4, 6791, Note_on_c, 0, 63, 0
4, 6792, Note_on_c, 0, 61, 64
4, 6815, Note_on_c, 0, 61, 0
4, 6816, Note_on_c, 0, 60, 64
4, 6839, Note_on_c, 0, 60, 0
4, 6840, Note_on_c, 0, 61, 64
4, 6863, Note_on_c, 0, 61, 0
4, 6864, Note_on_c, 0, 58, 64
4, 6887, Note_on_c, 0, 58, 0
4, 6888, Note_on_c, 0, 60, 64
4, 6911, Note_on_c, 0, 60, 0
4, 6912, Note_on_c, 0, 61, 64
4, 6935, Note_on_c, 0, 61, 0
4, 6936, Note_on_c, 0, 63, 64
4, 6959, Note_on_c, 0, 63, 0
4, 6960, Note_on_c, 0, 61, 64
4, 6983, Note_on_c, 0, 61, 0
4, 6984, Note_on_c, 0, 60, 64
4, 7007, Note_on_c, 0, 60, 0
4, 7008, Note_on_c, 0, 58, 64
4, 7031, Note_on_c, 0, 58, 0
4, 7032, Note_on_c, 0, 60, 64
4, 7055, Note_on_c, 0, 60, 0
4, 7056, Note_on_c, 0, 56, 64
4, 7079, Note_on_c, 0, 56, 0
4, 7080, Note_on_c, 0, 58, 64
4, 7103, Note_on_c, 0, 58, 0
4, 7104, Note_on_c, 0, 60, 64
4, 7127, Note_on_c, 0, 60, 0
4, 7128, Note_on_c, 0, 61, 64
4, 7151, Note_on_c, 0, 61, 0
4, 7152, Note_on_c, 0, 60, 64
4, 7175, Note_on_c, 0, 60, 0
4, 7176, Note_on_c, 0, 58, 64
4, 7199, Note_on_c, 0, 58, 0
4, 7200, Note_on_c, 0, 56, 64
4, 7223, Note_on_c, 0, 56, 0
4, 7224, Note_on_c, 0, 58, 64
4, 7247, Note_on_c, 0, 58, 0
4, 7248, Note_on_c, 0, 55, 64
4, 7271, Note_on_c, 0, 55, 0
4, 7272, Note_on_c, 0, 56, 64
4, 7295, Note_on_c, 0, 56, 0
4, 7296, Note_on_c, 0, 58, 64
4, 7319, Note_on_c, 0, 58, 0
4, 7320, Note_on_c, 0, 60, 64
4, 7343, Note_on_c, 0, 60, 0
4, 7344, Note_on_c, 0, 58, 64
4, 7367, Note_on_c, 0, 58, 0
4, 7368, Note_on_c, 0, 56, 64
4, 7391, Note_on_c, 0, 56, 0
4, 7392, Note_on_c, 0, 55, 64
4, 7415, Note_on_c, 0, 55, 0
4, 7416, Note_on_c, 0, 56, 64
4, 7439, Note_on_c, 0, 56, 0
4, 7440, Note_on_c, 0, 53, 64
4, 7463, Note_on_c, 0, 53, 0
4, 7464, Note_on_c, 0, 55, 64
4, 7487, Note_on_c, 0, 55, 0
4, 7488, Note_on_c, 0, 56, 64
4, 7511, Note_on_c, 0, 56, 0
4, 7512, Note_on_c, 0, 58, 64
4, 7535, Note_on_c, 0, 58, 0
4, 7536, Note_on_c, 0, 56, 64
4, 7559, Note_on_c, 0, 56, 0
4, 7560, Note_on_c, 0, 55, 64
4, 7583, Note_on_c, 0, 55, 0
4, 7584, Note_on_c, 0, 53, 64
4, 7607, Note_on_c, 0, 53, 0
4, 7608, Note_on_c, 0, 55, 64
4, 7631, Note_on_c, 0, 55, 0
4, 7632, Note_on_c, 0, 51, 64
4, 7655, Note_on_c, 0, 51, 0
4, 7656, Note_on_c, 0, 53, 64
4, 7679, Note_on_c, 0, 53, 0
4, 7680, Note_on_c, 0, 55, 64
4, 7703, Note_on_c, 0, 55, 0
4, 7704, Note_on_c, 0, 56, 64
4, 7727, Note_on_c, 0, 56, 0
4, 7728, Note_on_c, 0, 55, 64
4, 7751, Note_on_c, 0, 55, 0
4, 7752, Note_on_c, 0, 53, 64
4, 7775, Note_on_c, 0, 53, 0
4, 7776, Note_on_c, 0, 51, 64
4, 7799, Note_on_c, 0, 51, 0
4, 7800, Note_on_c, 0, 53, 64
4, 7823, Note_on_c, 0, 53, 0
4, 7824, Note_on_c, 0, 49, 64
4, 7847, Note_on_c, 0, 49, 0
4, 7848, Note_on_c, 0, 51, 64
4, 7871, Note_on_c, 0, 51, 0
4, 7872, Note_on_c, 0, 53, 64
4, 7895, Note_on_c, 0, 53, 0
4, 7896, Note_on_c, 0, 55, 64
4, 7919, Note_on_c, 0, 55, 0
4, 7920, Note_on_c, 0, 53, 64
4, 7943, Note_on_c, 0, 53, 0
4, 7944, Note_on_c, 0, 51, 64
4, 7967, Note_on_c, 0, 51, 0
4, 7968, Note_on_c, 0, 49, 64
4, 7991, Note_on_c, 0, 49, 0
4, 7992, Note_on_c, 0, 51, 64
4, 8015, Note_on_c, 0, 51, 0
4, 8016, Note_on_c, 0, 48, 64
4, 8039, Note_on_c, 0, 48, 0
4, 8040, Note_on_c, 0, 49, 64
4, 8063, Note_on_c, 0, 49, 0
4, 8064, Note_on_c, 0, 51, 64
4, 8087, Note_on_c, 0, 51, 0
4, 8088, Note_on_c, 0, 53, 64
4, 8111, Note_on_c, 0, 53, 0
4, 8112, Note_on_c, 0, 51, 64
4, 8135, Note_on_c, 0, 51, 0
4, 8136, Note_on_c, 0, 49, 64
4, 8159, Note_on_c, 0, 49, 0
4, 8160, Note_on_c, 0, 48, 64
4, 8183, Note_on_c, 0, 48, 0
4, 8184, Note_on_c, 0, 46, 64
4, 8207, Note_on_c, 0, 46, 0
4, 8208, Note_on_c, 0, 44, 64
4, 8231, Note_on_c, 0, 44, 0
4, 8232, Note_on_c, 0, 43, 64
4, 8255, Note_on_c, 0, 43, 0
4, 8256, Note_on_c, 0, 44, 64
4, 8279, Note_on_c, 0, 44, 0
4, 8280, Note_on_c, 0, 46, 64
4, 8303, Note_on_c, 0, 46, 0
4, 8304, Note_on_c, 0, 48, 64
4, 8327, Note_on_c, 0, 48, 0
4, 8328, Note_on_c, 0, 49, 64
4, 8351, Note_on_c, 0, 49, 0
4, 8352, Note_on_c, 0, 51, 64
4, 8375, Note_on_c, 0, 51, 0
4, 8376, Note_on_c, 0, 53, 64
4, 8399, Note_on_c, 0, 53, 0
4, 8400, Note_on_c, 0, 50, 64
4, 8423, Note_on_c, 0, 50, 0
4, 8424, Note_on_c, 0, 52, 64
4, 8447, Note_on_c, 0, 52, 0
4, 8448, Note_on_c, 0, 53, 64
4, 8471, Note_on_c, 0, 53, 0
4, 8472, Note_on_c, 0, 52, 64
4, 8495, Note_on_c, 0, 52, 0
4, 8496, Note_on_c, 0, 53, 64
4, 8519, Note_on_c, 0, 53, 0
4, 8520, Note_on_c, 0, 55, 64
4, 8543, Note_on_c, 0, 55, 0
4, 8544, Note_on_c, 0, 56, 64
4, 8589, Note_on_c, 0, 56, 0
4, 8592, Note_on_c, 0, 53, 64
4, 8637, Note_on_c, 0, 53, 0
4, 8640, Note_on_c, 0, 55, 64
4, 8685, Note_on_c, 0, 55, 0
4, 8688, Note_on_c, 0, 57, 64
4, 8733, Note_on_c, 0, 57, 0
4, 8736, Note_on_c, 0, 59, 64
4, 8781, Note_on_c, 0, 59, 0
4, 8784, Note_on_c, 0, 55, 64
4, 8829, Note_on_c, 0, 55, 0
4, 8832, Note_on_c, 0, 60, 64
4, 8877, Note_on_c, 0, 60, 0
4, 8880, Note_on_c, 0, 53, 64
4, 8925, Note_on_c, 0, 53, 0
4, 8928, Note_on_c, 0, 55, 64
4, 8973, Note_on_c, 0, 55, 0
4, 8976, Note_on_c, 0, 43, 64
4, 9021, Note_on_c, 0, 43, 0
4, 9024, Note_on_c, 0, 48, 64
4, 9047, Note_on_c, 0, 48, 0
4, 9048, Note_on_c, 0, 50, 64
4, 9071, Note_on_c, 0, 50, 0
4, 9072, Note_on_c, 0, 52, 64
4, 9095, Note_on_c, 0, 52, 0
4, 9096, Note_on_c, 0, 53, 64
4, 9119, Note_on_c, 0, 53, 0
4, 9120, Note_on_c, 0, 55, 64
4, 9143, Note_on_c, 0, 55, 0
4, 9144, Note_on_c, 0, 56, 64
4, 9167, Note_on_c, 0, 56, 0
4, 9168, Note_on_c, 0, 58, 64
4, 9191, Note_on_c, 0, 58, 0
4, 9192, Note_on_c, 0, 55, 64
4, 9215, Note_on_c, 0, 55, 0
4, 9216, Note_on_c, 0, 56, 64
4, 9239, Note_on_c, 0, 56, 0
4, 9240, Note_on_c, 0, 60, 64
4, 9263, Note_on_c, 0, 60, 0
4, 9264, Note_on_c, 0, 65, 64
4, 9287, Note_on_c, 0, 65, 0
4, 9288, Note_on_c, 0, 63, 64
4, 9311, Note_on_c, 0, 63, 0
4, 9312, Note_on_c, 0, 61, 64
4, 9357, Note_on_c, 0, 61, 0
4, 9360, Note_on_c, 0, 60, 64
4, 9405, Note_on_c, 0, 60, 0
4, 9408, Note_on_c, 0, 58, 64
4, 9453, Note_on_c, 0, 58, 0
4, 9456, Note_on_c, 0, 56, 64
4, 9479, Note_on_c, 0, 56, 0
4, 9480, Note_on_c, 0, 58, 64
4, 9503, Note_on_c, 0, 58, 0
4, 9504, Note_on_c, 0, 60, 64
4, 9549, Note_on_c, 0, 60, 0
4, 9552, Note_on_c, 0, 48, 64
4, 9597, Note_on_c, 0, 48, 0
4, 9600, Note_on_c, 0, 53, 64
4, 9689, Note_on_c, 0, 53, 0
4, 9696, Note_on_c, 0, 55, 64
4, 9785, Note_on_c, 0, 55, 0
4, 9792, Note_on_c, 0, 56, 64
4, 9837, Note_on_c, 0, 56, 0
4, 9840, Note_on_c, 0, 53, 64
4, 9863, Note_on_c, 0, 53, 0
4, 9864, Note_on_c, 0, 55, 64
4, 9887, Note_on_c, 0, 55, 0
4, 9888, Note_on_c, 0, 56, 64
4, 9933, Note_on_c, 0, 56, 0
4, 9936, Note_on_c, 0, 58, 64
4, 9959, Note_on_c, 0, 58, 0
4, 9960, Note_on_c, 0, 60, 64
4, 9983, Note_on_c, 0, 60, 0
4, 9984, Note_on_c, 0, 61, 64
4, 10007, Note_on_c, 0, 61, 0
4, 10008, Note_on_c, 0, 63, 64
4, 10031, Note_on_c, 0, 63, 0
4, 10032, Note_on_c, 0, 61, 64
4, 10055, Note_on_c, 0, 61, 0
4, 10056, Note_on_c, 0, 60, 64
4, 10079, Note_on_c, 0, 60, 0
4, 10080, Note_on_c, 0, 58, 64
4, 10103, Note_on_c, 0, 58, 0
4, 10104, Note_on_c, 0, 60, 64
4, 10127, Note_on_c, 0, 60, 0
4, 10128, Note_on_c, 0, 56, 64
4, 10151, Note_on_c, 0, 56, 0
4, 10152, Note_on_c, 0, 58, 64
4, 10175, Note_on_c, 0, 58, 0
4, 10176, Note_on_c, 0, 60, 64
4, 10199, Note_on_c, 0, 60, 0
4, 10200, Note_on_c, 0, 61, 64
4, 10223, Note_on_c, 0, 61, 0
4, 10224, Note_on_c, 0, 60, 64
4, 10247, Note_on_c, 0, 60, 0
4, 10248, Note_on_c, 0, 58, 64
4, 10271, Note_on_c, 0, 58, 0
4, 10272, Note_on_c, 0, 56, 64
4, 10295, Note_on_c, 0, 56, 0
4, 10296, Note_on_c, 0, 58, 64
4, 10319, Note_on_c, 0, 58, 0
4, 10320, Note_on_c, 0, 55, 64
4, 10343, Note_on_c, 0, 55, 0
4, 10344, Note_on_c, 0, 56, 64
4, 10367, Note_on_c, 0, 56, 0
4, 10368, Note_on_c, 0, 58, 64
4, 10391, Note_on_c, 0, 58, 0
4, 10392, Note_on_c, 0, 60, 64
4, 10415, Note_on_c, 0, 60, 0
4, 10416, Note_on_c, 0, 58, 64
4, 10439, Note_on_c, 0, 58, 0
4, 10440, Note_on_c, 0, 56, 64
4, 10463, Note_on_c, 0, 56, 0
4, 10464, Note_on_c, 0, 55, 64
4, 10487, Note_on_c, 0, 55, 0
4, 10488, Note_on_c, 0, 60, 64
4, 10511, Note_on_c, 0, 60, 0
4, 10512, Note_on_c, 0, 58, 64
4, 10535, Note_on_c, 0, 58, 0
4, 10536, Note_on_c, 0, 60, 64
4, 10559, Note_on_c, 0, 60, 0
4, 10560, Note_on_c, 0, 53, 64
4, 10605, Note_on_c, 0, 53, 0
4, 10608, Note_on_c, 0, 50, 64
4, 10653, Note_on_c, 0, 50, 0
4, 10656, Note_on_c, 0, 55, 64
4, 10701, Note_on_c, 0, 55, 0
4, 10704, Note_on_c, 0, 43, 64
4, 10749, Note_on_c, 0, 43, 0
4, 10752, Note_on_c, 0, 48, 64
4, 10797, Note_on_c, 0, 48, 0
4, 10800, Note_on_c, 0, 60, 64
4, 10823, Note_on_c, 0, 60, 0
4, 10824, Note_on_c, 0, 58, 64
4, 10847, Note_on_c, 0, 58, 0
4, 10848, Note_on_c, 0, 56, 64
4, 10893, Note_on_c, 0, 56, 0
4, 10896, Note_on_c, 0, 55, 64
4, 10941, Note_on_c, 0, 55, 0
4, 10944, Note_on_c, 0, 53, 64
4, 10989, Note_on_c, 0, 53, 0
4, 10992, Note_on_c, 0, 51, 64
4, 11015, Note_on_c, 0, 51, 0
4, 11016, Note_on_c, 0, 53, 64
4, 11039, Note_on_c, 0, 53, 0
4, 11040, Note_on_c, 0, 55, 64
4, 11085, Note_on_c, 0, 55, 0
4, 11088, Note_on_c, 0, 43, 64
4, 11133, Note_on_c, 0, 43, 0
4, 11136, Note_on_c, 0, 48, 64
4, 11181, Note_on_c, 0, 48, 0
4, 11184, Note_on_c, 0, 43, 64
4, 11229, Note_on_c, 0, 43, 0
4, 11232, Note_on_c, 0, 55, 64
4, 11321, Note_on_c, 0, 55, 0
4, 11328, Note_on_c, 0, 55, 64
4, 11351, Note_on_c, 0, 55, 0
4, 11352, Note_on_c, 0, 53, 64
4, 11375, Note_on_c, 0, 53, 0
4, 11376, Note_on_c, 0, 51, 64
4, 11399, Note_on_c, 0, 51, 0
4, 11400, Note_on_c, 0, 50, 64
4, 11423, Note_on_c, 0, 50, 0
4, 11424, Note_on_c, 0, 48, 64
4, 11447, Note_on_c, 0, 48, 0
4, 11448, Note_on_c, 0, 46, 64
4, 11471, Note_on_c, 0, 46, 0
4, 11472, Note_on_c, 0, 44, 64
4, 11495, Note_on_c, 0, 44, 0
4, 11496, Note_on_c, 0, 43, 64
4, 11519, Note_on_c, 0, 43, 0
4, 11520, Note_on_c, 0, 41, 64
4, 11565, Note_on_c, 0, 41, 0
4, 11568, Note_on_c, 0, 48, 64
4, 11613, Note_on_c, 0, 48, 0
4, 11616, Note_on_c, 0, 53, 64
4, 11735, Note_on_c, 0, 53, 0
4, 11736, Note_on_c, 0, 51, 64
4, 11759, Note_on_c, 0, 51, 0
4, 11760, Note_on_c, 0, 53, 64
4, 11783, Note_on_c, 0, 53, 0
4, 11784, Note_on_c, 0, 55, 64
4, 11807, Note_on_c, 0, 55, 0
4, 11808, Note_on_c, 0, 56, 64
4, 11831, Note_on_c, 0, 56, 0
4, 11832, Note_on_c, 0, 55, 64
4, 11855, Note_on_c, 0, 55, 0
4, 11856, Note_on_c, 0, 53, 64
4, 11879, Note_on_c, 0, 53, 0
4, 11880, Note_on_c, 0, 51, 64
4, 11903, Note_on_c, 0, 51, 0
4, 11904, Note_on_c, 0, 50, 64
4, 11949, Note_on_c, 0, 50, 0
4, 11952, Note_on_c, 0, 51, 64
4, 11975, Note_on_c, 0, 51, 0
4, 11976, Note_on_c, 0, 53, 64
4, 11999, Note_on_c, 0, 53, 0
4, 12000, Note_on_c, 0, 55, 64
4, 12045, Note_on_c, 0, 55, 0
4, 12048, Note_on_c, 0, 43, 64
4, 12093, Note_on_c, 0, 43, 0
4, 12096, Note_on_c, 0, 48, 64
4, 12141, Note_on_c, 0, 48, 0
4, 12144, Note_on_c, 0, 51, 64
4, 12189, Note_on_c, 0, 51, 0
4, 12192, Note_on_c, 0, 41, 64
4, 12237, Note_on_c, 0, 41, 0
4, 12240, Note_on_c, 0, 53, 64
4, 12285, Note_on_c, 0, 53, 0
4, 12288, Note_on_c, 0, 46, 64
4, 12333, Note_on_c, 0, 46, 0
4, 12336, Note_on_c, 0, 49, 64
4, 12381, Note_on_c, 0, 49, 0
4, 12384, Note_on_c, 0, 39, 64
4, 12429, Note_on_c, 0, 39, 0
4, 12432, Note_on_c, 0, 51, 64
4, 12477, Note_on_c, 0, 51, 0
4, 12480, Note_on_c, 0, 44, 64
4, 12525, Note_on_c, 0, 44, 0
4, 12528, Note_on_c, 0, 46, 64
4, 12551, Note_on_c, 0, 46, 0
4, 12552, Note_on_c, 0, 48, 64
4, 12575, Note_on_c, 0, 48, 0
4, 12576, Note_on_c, 0, 49, 64
4, 12717, Note_on_c, 0, 49, 0
4, 12720, Note_on_c, 0, 46, 64
4, 12743, Note_on_c, 0, 46, 0
4, 12744, Note_on_c, 0, 43, 64
4, 12767, Note_on_c, 0, 43, 0
4, 12768, Note_on_c, 0, 48, 64
4, 12813, Note_on_c, 0, 48, 0
4, 12816, Note_on_c, 0, 36, 64
4, 12861, Note_on_c, 0, 36, 0
4, 12864, Note_on_c, 0, 53, 64
4, 13041, Note_on_c, 0, 53, 0
4, 13056, Note_on_c, 0, 55, 64
4, 13233, Note_on_c, 0, 55, 0
4, 13248, Note_on_c, 0, 56, 64
4, 13293, Note_on_c, 0, 56, 0
4, 13296, Note_on_c, 0, 55, 64
4, 13319, Note_on_c, 0, 55, 0
4, 13320, Note_on_c, 0, 53, 64
4, 13343, Note_on_c, 0, 53, 0
4, 13344, Note_on_c, 0, 52, 64
4, 13389, Note_on_c, 0, 52, 0
4, 13392, Note_on_c, 0, 55, 64
4, 13437, Note_on_c, 0, 55, 0
4, 13440, Note_on_c, 0, 48, 64
4, 13529, Note_on_c, 0, 48, 0
4, 13536, Note_on_c, 0, 60, 64
4, 13677, Note_on_c, 0, 60, 0
4, 13680, Note_on_c, 0, 58, 64
4, 13703, Note_on_c, 0, 58, 0
4, 13704, Note_on_c, 0, 56, 64
4, 13727, Note_on_c, 0, 56, 0
4, 13728, Note_on_c, 0, 55, 64
4, 13773, Note_on_c, 0, 55, 0
4, 13776, Note_on_c, 0, 58, 64
4, 13821, Note_on_c, 0, 58, 0
4, 13824, Note_on_c, 0, 52, 64
4, 13869, Note_on_c, 0, 52, 0
4, 13872, Note_on_c, 0, 48, 64
4, 13917, Note_on_c, 0, 48, 0
4, 13920, Note_on_c, 0, 53, 64
4, 14039, Note_on_c, 0, 53, 0
4, 14040, Note_on_c, 0, 56, 64
4, 14063, Note_on_c, 0, 56, 0
4, 14064, Note_on_c, 0, 55, 64
4, 14087, Note_on_c, 0, 55, 0
4, 14088, Note_on_c, 0, 53, 64
4, 14111, Note_on_c, 0, 53, 0
4, 14112, Note_on_c, 0, 52, 64
4, 14135, Note_on_c, 0, 52, 0
4, 14136, Note_on_c, 0, 53, 64
4, 14159, Note_on_c, 0, 53, 0
4, 14160, Note_on_c, 0, 50, 64
4, 14183, Note_on_c, 0, 50, 0
4, 14184, Note_on_c, 0, 52, 64
4, 14207, Note_on_c, 0, 52, 0
4, 14208, Note_on_c, 0, 53, 64
4, 14231, Note_on_c, 0, 53, 0
4, 14232, Note_on_c, 0, 55, 64
4, 14255, Note_on_c, 0, 55, 0
4, 14256, Note_on_c, 0, 53, 64
4, 14279, Note_on_c, 0, 53, 0
4, 14280, Note_on_c, 0, 51, 64
4, 14303, Note_on_c, 0, 51, 0
4, 14304, Note_on_c, 0, 50, 64
4, 14327, Note_on_c, 0, 50, 0
4, 14328, Note_on_c, 0, 51, 64
4, 14351, Note_on_c, 0, 51, 0
4, 14352, Note_on_c, 0, 48, 64
4, 14375, Note_on_c, 0, 48, 0
4, 14376, Note_on_c, 0, 50, 64
4, 14399, Note_on_c, 0, 50, 0
4, 14400, Note_on_c, 0, 51, 64
4, 14423, Note_on_c, 0, 51, 0
4, 14424, Note_on_c, 0, 53, 64
4, 14447, Note_on_c, 0, 53, 0
4, 14448, Note_on_c, 0, 51, 64
4, 14471, Note_on_c, 0, 51, 0
4, 14472, Note_on_c, 0, 49, 64
4, 14495, Note_on_c, 0, 49, 0
4, 14496, Note_on_c, 0, 48, 64
4, 14519, Note_on_c, 0, 48, 0
4, 14520, Note_on_c, 0, 49, 64
4, 14543, Note_on_c, 0, 49, 0
4, 14544, Note_on_c, 0, 46, 64
4, 14567, Note_on_c, 0, 46, 0
4, 14568, Note_on_c, 0, 48, 64
4, 14591, Note_on_c, 0, 48, 0
4, 14592, Note_on_c, 0, 49, 64
4, 14615, Note_on_c, 0, 49, 0
4, 14616, Note_on_c, 0, 51, 64
4, 14639, Note_on_c, 0, 51, 0
4, 14640, Note_on_c, 0, 49, 64
4, 14663, Note_on_c, 0, 49, 0
4, 14664, Note_on_c, 0, 48, 64
4, 14687, Note_on_c, 0, 48, 0
4, 14688, Note_on_c, 0, 46, 64
4, 14711, Note_on_c, 0, 46, 0
4, 14712, Note_on_c, 0, 48, 64
4, 14735, Note_on_c, 0, 48, 0
4, 14736, Note_on_c, 0, 44, 64
4, 14759, Note_on_c, 0, 44, 0
4, 14760, Note_on_c, 0, 46, 64
4, 14783, Note_on_c, 0, 46, 0
4, 14784, Note_on_c, 0, 48, 64
4, 14807, Note_on_c, 0, 48, 0
4, 14808, Note_on_c, 0, 49, 64
4, 14831, Note_on_c, 0, 49, 0
4, 14832, Note_on_c, 0, 48, 64
4, 14855, Note_on_c, 0, 48, 0
4, 14856, Note_on_c, 0, 46, 64
4, 14879, Note_on_c, 0, 46, 0
4, 14880, Note_on_c, 0, 44, 64
4, 14903, Note_on_c, 0, 44, 0
4, 14904, Note_on_c, 0, 46, 64
4, 14927, Note_on_c, 0, 46, 0
4, 14928, Note_on_c, 0, 43, 64
4, 14951, Note_on_c, 0, 43, 0
4, 14952, Note_on_c, 0, 44, 64
4, 14975, Note_on_c, 0, 44, 0
4, 14976, Note_on_c, 0, 46, 64
4, 14999, Note_on_c, 0, 46, 0
4, 15000, Note_on_c, 0, 48, 64
4, 15023, Note_on_c, 0, 48, 0
4, 15024, Note_on_c, 0, 46, 64
4, 15047, Note_on_c, 0, 46, 0
4, 15048, Note_on_c, 0, 44, 64
4, 15071, Note_on_c, 0, 44, 0
4, 15072, Note_on_c, 0, 43, 64
4, 15095, Note_on_c, 0, 43, 0
4, 15096, Note_on_c, 0, 44, 64
4, 15119, Note_on_c, 0, 44, 0
4, 15120, Note_on_c, 0, 41, 64
4, 15143, Note_on_c, 0, 41, 0
4, 15144, Note_on_c, 0, 43, 64
4, 15167, Note_on_c, 0, 43, 0
4, 15168, Note_on_c, 0, 44, 64
4, 15213, Note_on_c, 0, 44, 0
4, 15216, Note_on_c, 0, 56, 64
4, 15261, Note_on_c, 0, 56, 0
4, 15264, Note_on_c, 0, 55, 64
4, 15309, Note_on_c, 0, 55, 0
4, 15312, Note_on_c, 0, 51, 64
4, 15357, Note_on_c, 0, 51, 0
4, 15360, Note_on_c, 0, 44, 64
4, 15405, Note_on_c, 0, 44, 0
4, 15408, Note_on_c, 0, 56, 64
4, 15453, Note_on_c, 0, 56, 0
4, 15456, Note_on_c, 0, 55, 64
4, 15501, Note_on_c, 0, 55, 0
4, 15504, Note_on_c, 0, 51, 64
4, 15549, Note_on_c, 0, 51, 0
4, 15552, Note_on_c, 0, 44, 64
4, 15597, Note_on_c, 0, 44, 0
4, 15600, Note_on_c, 0, 56, 64
4, 15645, Note_on_c, 0, 56, 0
4, 15648, Note_on_c, 0, 58, 64
4, 15693, Note_on_c, 0, 58, 0
4, 15696, Note_on_c, 0, 55, 64
4, 15741, Note_on_c, 0, 55, 0
4, 15744, Note_on_c, 0, 60, 64
4, 15789, Note_on_c, 0, 60, 0
4, 15792, Note_on_c, 0, 56, 64
4, 15837, Note_on_c, 0, 56, 0
4, 15840, Note_on_c, 0, 61, 64
4, 15959, Note_on_c, 0, 61, 0
4, 15960, Note_on_c, 0, 65, 64
4, 15983, Note_on_c, 0, 65, 0
4, 15984, Note_on_c, 0, 63, 64
4, 16007, Note_on_c, 0, 63, 0
4, 16008, Note_on_c, 0, 61, 64
4, 16031, Note_on_c, 0, 61, 0
4, 16032, Note_on_c, 0, 60, 64
4, 16055, Note_on_c, 0, 60, 0
4, 16056, Note_on_c, 0, 61, 64
4, 16079, Note_on_c, 0, 61, 0
4, 16080, Note_on_c, 0, 58, 64
4, 16103, Note_on_c, 0, 58, 0
4, 16104, Note_on_c, 0, 60, 64
4, 16127, Note_on_c, 0, 60, 0
4, 16128, Note_on_c, 0, 61, 64
4, 16151, Note_on_c, 0, 61, 0
4, 16152, Note_on_c, 0, 63, 64
4, 16175, Note_on_c, 0, 63, 0
4, 16176, Note_on_c, 0, 61, 64
4, 16199, Note_on_c, 0, 61, 0
4, 16200, Note_on_c, 0, 60, 64
4, 16223, Note_on_c, 0, 60, 0
4, 16224, Note_on_c, 0, 58, 64
4, 16247, Note_on_c, 0, 58, 0
4, 16248, Note_on_c, 0, 60, 64
4, 16271, Note_on_c, 0, 60, 0
4, 16272, Note_on_c, 0, 56, 64
4, 16295, Note_on_c, 0, 56, 0
4, 16296, Note_on_c, 0, 58, 64
4, 16319, Note_on_c, 0, 58, 0
4, 16320, Note_on_c, 0, 60, 64
4, 16343, Note_on_c, 0, 60, 0
4, 16344, Note_on_c, 0, 61, 64
4, 16367, Note_on_c, 0, 61, 0
4, 16368, Note_on_c, 0, 60, 64
4, 16391, Note_on_c, 0, 60, 0
4, 16392, Note_on_c, 0, 58, 64
4, 16415, Note_on_c, 0, 58, 0
4, 16416, Note_on_c, 0, 56, 64
4, 16439, Note_on_c, 0, 56, 0
4, 16440, Note_on_c, 0, 58, 64
4, 16463, Note_on_c, 0, 58, 0
4, 16464, Note_on_c, 0, 55, 64
4, 16487, Note_on_c, 0, 55, 0
4, 16488, Note_on_c, 0, 56, 64
4, 16511, Note_on_c, 0, 56, 0
4, 16512, Note_on_c, 0, 58, 64
4, 16535, Note_on_c, 0, 58, 0
4, 16536, Note_on_c, 0, 60, 64
4, 16559, Note_on_c, 0, 60, 0
4, 16560, Note_on_c, 0, 58, 64
4, 16583, Note_on_c, 0, 58, 0
4, 16584, Note_on_c, 0, 56, 64
4, 16607, Note_on_c, 0, 56, 0
4, 16608, Note_on_c, 0, 55, 64
4, 16631, Note_on_c, 0, 55, 0
4, 16632, Note_on_c, 0, 56, 64
4, 16655, Note_on_c, 0, 56, 0
4, 16656, Note_on_c, 0, 53, 64
4, 16679, Note_on_c, 0, 53, 0
4, 16680, Note_on_c, 0, 55, 64
4, 16703, Note_on_c, 0, 55, 0
4, 16704, Note_on_c, 0, 56, 64
4, 16727, Note_on_c, 0, 56, 0
4, 16728, Note_on_c, 0, 58, 64
4, 16751, Note_on_c, 0, 58, 0
4, 16752, Note_on_c, 0, 56, 64
4, 16775, Note_on_c, 0, 56, 0
4, 16776, Note_on_c, 0, 55, 64
4, 16799, Note_on_c, 0, 55, 0
4, 16800, Note_on_c, 0, 53, 64
4, 16823, Note_on_c, 0, 53, 0
4, 16824, Note_on_c, 0, 55, 64
4, 16847, Note_on_c, 0, 55, 0
4, 16848, Note_on_c, 0, 51, 64
4, 16871, Note_on_c, 0, 51, 0
4, 16872, Note_on_c, 0, 53, 64
4, 16895, Note_on_c, 0, 53, 0
4, 16896, Note_on_c, 0, 55, 64
4, 16919, Note_on_c, 0, 55, 0
4, 16920, Note_on_c, 0, 56, 64
4, 16943, Note_on_c, 0, 56, 0
4, 16944, Note_on_c, 0, 55, 64
4, 16967, Note_on_c, 0, 55, 0
4, 16968, Note_on_c, 0, 53, 64
4, 16991, Note_on_c, 0, 53, 0
4, 16992, Note_on_c, 0, 51, 64
4, 17015, Note_on_c, 0, 51, 0
4, 17016, Note_on_c, 0, 53, 64
4, 17039, Note_on_c, 0, 53, 0
4, 17040, Note_on_c, 0, 49, 64
4, 17063, Note_on_c, 0, 49, 0
4, 17064, Note_on_c, 0, 51, 64
4, 17087, Note_on_c, 0, 51, 0
4, 17088, Note_on_c, 0, 53, 64
4, 17111, Note_on_c, 0, 53, 0
4, 17112, Note_on_c, 0, 55, 64
4, 17135, Note_on_c, 0, 55, 0
4, 17136, Note_on_c, 0, 53, 64
4, 17159, Note_on_c, 0, 53, 0
4, 17160, Note_on_c, 0, 51, 64
4, 17183, Note_on_c, 0, 51, 0
4, 17184, Note_on_c, 0, 49, 64
4, 17207, Note_on_c, 0, 49, 0
4, 17208, Note_on_c, 0, 51, 64
4, 17231, Note_on_c, 0, 51, 0
4, 17232, Note_on_c, 0, 48, 64
4, 17255, Note_on_c, 0, 48, 0
4, 17256, Note_on_c, 0, 49, 64
4, 17279, Note_on_c, 0, 49, 0
4, 17280, Note_on_c, 0, 51, 64
4, 17303, Note_on_c, 0, 51, 0
4, 17304, Note_on_c, 0, 53, 64
4, 17327, Note_on_c, 0, 53, 0
4, 17328, Note_on_c, 0, 51, 64
4, 17351, Note_on_c, 0, 51, 0
4, 17352, Note_on_c, 0, 49, 64
4, 17375, Note_on_c, 0, 49, 0
4, 17376, Note_on_c, 0, 48, 64
4, 17399, Note_on_c, 0, 48, 0
4, 17400, Note_on_c, 0, 46, 64
4, 17423, Note_on_c, 0, 46, 0
4, 17424, Note_on_c, 0, 44, 64
4, 17447, Note_on_c, 0, 44, 0
4, 17448, Note_on_c, 0, 43, 64
4, 17471, Note_on_c, 0, 43, 0
4, 17472, Note_on_c, 0, 44, 64
4, 17495, Note_on_c, 0, 44, 0
4, 17496, Note_on_c, 0, 46, 64
4, 17519, Note_on_c, 0, 46, 0
4, 17520, Note_on_c, 0, 48, 64
4, 17543, Note_on_c, 0, 48, 0
4, 17544, Note_on_c, 0, 49, 64
4, 17567, Note_on_c, 0, 49, 0
4, 17568, Note_on_c, 0, 51, 64
4, 17591, Note_on_c, 0, 51, 0
4, 17592, Note_on_c, 0, 53, 64
4, 17615, Note_on_c, 0, 53, 0
4, 17616, Note_on_c, 0, 50, 64
4, 17639, Note_on_c, 0, 50, 0
4, 17640, Note_on_c, 0, 52, 64
4, 17663, Note_on_c, 0, 52, 0
4, 17664, Note_on_c, 0, 53, 64
4, 17687, Note_on_c, 0, 53, 0
4, 17688, Note_on_c, 0, 52, 64
4, 17711, Note_on_c, 0, 52, 0
4, 17712, Note_on_c, 0, 53, 64
4, 17735, Note_on_c, 0, 53, 0
4, 17736, Note_on_c, 0, 55, 64
4, 17759, Note_on_c, 0, 55, 0
4, 17760, Note_on_c, 0, 56, 64
4, 17805, Note_on_c, 0, 56, 0
4, 17808, Note_on_c, 0, 53, 64
4, 17853, Note_on_c, 0, 53, 0
4, 17856, Note_on_c, 0, 55, 64
4, 17901, Note_on_c, 0, 55, 0
4, 17904, Note_on_c, 0, 57, 64
4, 17949, Note_on_c, 0, 57, 0
4, 17952, Note_on_c, 0, 59, 64
4, 17997, Note_on_c, 0, 59, 0
4, 18000, Note_on_c, 0, 55, 64
4, 18045, Note_on_c, 0, 55, 0
4, 18048, Note_on_c, 0, 60, 64
4, 18093, Note_on_c, 0, 60, 0
4, 18096, Note_on_c, 0, 53, 64
4, 18141, Note_on_c, 0, 53, 0
4, 18144, Note_on_c, 0, 55, 64
4, 18189, Note_on_c, 0, 55, 0
4, 18192, Note_on_c, 0, 43, 64
4, 18237, Note_on_c, 0, 43, 0
4, 18240, Note_on_c, 0, 48, 64
4, 18417, Note_on_c, 0, 48, 0
4, 18480, Note_on_c, 0, 51, 64
4, 18525, Note_on_c, 0, 51, 0
4, 18528, Note_on_c, 0, 48, 64
4, 18573, Note_on_c, 0, 48, 0
4, 18576, Note_on_c, 0, 51, 64
4, 18621, Note_on_c, 0, 51, 0
4, 18624, Note_on_c, 0, 53, 64
4, 18669, Note_on_c, 0, 53, 0
4, 18672, Note_on_c, 0, 57, 64
4, 18717, Note_on_c, 0, 57, 0
4, 18720, Note_on_c, 0, 53, 64
4, 18765, Note_on_c, 0, 53, 0
4, 18768, Note_on_c, 0, 57, 64
4, 18813, Note_on_c, 0, 57, 0
4, 18816, Note_on_c, 0, 60, 64
4, 18839, Note_on_c, 0, 60, 0
4, 18840, Note_on_c, 0, 61, 64
4, 18863, Note_on_c, 0, 61, 0
4, 18864, Note_on_c, 0, 63, 64
4, 18887, Note_on_c, 0, 63, 0
4, 18888, Note_on_c, 0, 61, 64
4, 18911, Note_on_c, 0, 61, 0
4, 18912, Note_on_c, 0, 60, 64
4, 18935, Note_on_c, 0, 60, 0
4, 18936, Note_on_c, 0, 58, 64
4, 18959, Note_on_c, 0, 58, 0
4, 18960, Note_on_c, 0, 57, 64
4, 18983, Note_on_c, 0, 57, 0
4, 18984, Note_on_c, 0, 58, 64
4, 19007, Note_on_c, 0, 58, 0
4, 19008, Note_on_c, 0, 46, 64
4, 19185, Note_on_c, 0, 46, 0
4, 19200, Note_on_c, 0, 48, 64
4, 19377, Note_on_c, 0, 48, 0
4, 19392, Note_on_c, 0, 49, 64
4, 19437, Note_on_c, 0, 49, 0
4, 19440, Note_on_c, 0, 48, 64
4, 19463, Note_on_c, 0, 48, 0
4, 19464, Note_on_c, 0, 46, 64
4, 19487, Note_on_c, 0, 46, 0
4, 19488, Note_on_c, 0, 45, 64
4, 19533, Note_on_c, 0, 45, 0
4, 19536, Note_on_c, 0, 48, 64
4, 19581, Note_on_c, 0, 48, 0
4, 19584, Note_on_c, 0, 41, 64
4, 19673, Note_on_c, 0, 41, 0
4, 19680, Note_on_c, 0, 53, 64
4, 19821, Note_on_c, 0, 53, 0
4, 19824, Note_on_c, 0, 51, 64
4, 19847, Note_on_c, 0, 51, 0
4, 19848, Note_on_c, 0, 49, 64
4, 19871, Note_on_c, 0, 49, 0
4, 19872, Note_on_c, 0, 48, 64
4, 19917, Note_on_c, 0, 48, 0
4, 19920, Note_on_c, 0, 51, 64
4, 19965, Note_on_c, 0, 51, 0
4, 19968, Note_on_c, 0, 45, 64
4, 20013, Note_on_c, 0, 45, 0
4, 20016, Note_on_c, 0, 41, 64
4, 20061, Note_on_c, 0, 41, 0
4, 20064, Note_on_c, 0, 46, 64
4, 20109, Note_on_c, 0, 46, 0
4, 20112, Note_on_c, 0, 49, 64
4, 20157, Note_on_c, 0, 49, 0
4, 20160, Note_on_c, 0, 54, 64
4, 20205, Note_on_c, 0, 54, 0
4, 20208, Note_on_c, 0, 51, 64
4, 20253, Note_on_c, 0, 51, 0
4, 20256, Note_on_c, 0, 53, 64
4, 20301, Note_on_c, 0, 53, 0
4, 20304, Note_on_c, 0, 41, 64
4, 20349, Note_on_c, 0, 41, 0
4, 20352, Note_on_c, 0, 46, 64
4, 20397, Note_on_c, 0, 46, 0
4, 20400, Note_on_c, 0, 58, 64
4, 20445, Note_on_c, 0, 58, 0
4, 20448, Note_on_c, 0, 57, 64
4, 20493, Note_on_c, 0, 57, 0
4, 20496, Note_on_c, 0, 53, 64
4, 20541, Note_on_c, 0, 53, 0
4, 20544, Note_on_c, 0, 46, 64
4, 20589, Note_on_c, 0, 46, 0
4, 20592, Note_on_c, 0, 58, 64
4, 20637, Note_on_c, 0, 58, 0
4, 20640, Note_on_c, 0, 57, 64
4, 20685, Note_on_c, 0, 57, 0
4, 20688, Note_on_c, 0, 53, 64
4, 20733, Note_on_c, 0, 53, 0
4, 20736, Note_on_c, 0, 46, 64
4, 20781, Note_on_c, 0, 46, 0
4, 20784, Note_on_c, 0, 58, 64
4, 20829, Note_on_c, 0, 58, 0
4, 20832, Note_on_c, 0, 61, 64
4, 20877, Note_on_c, 0, 61, 0
4, 20880, Note_on_c, 0, 58, 64
4, 20925, Note_on_c, 0, 58, 0
4, 20928, Note_on_c, 0, 51, 64
4, 20973, Note_on_c, 0, 51, 0
4, 20976, Note_on_c, 0, 49, 64
4, 21021, Note_on_c, 0, 49, 0
4, 21024, Note_on_c, 0, 48, 64
4, 21069, Note_on_c, 0, 48, 0
4, 21072, Note_on_c, 0, 51, 64
4, 21117, Note_on_c, 0, 51, 0
4, 21120, Note_on_c, 0, 44, 64
4, 21165, Note_on_c, 0, 44, 0
4, 21168, Note_on_c, 0, 42, 64
4, 21213, Note_on_c, 0, 42, 0
4, 21216, Note_on_c, 0, 41, 64
4, 21261, Note_on_c, 0, 41, 0
4, 21264, Note_on_c, 0, 44, 64
4, 21309, Note_on_c, 0, 44, 0
4, 21312, Note_on_c, 0, 37, 64
4, 21335, Note_on_c, 0, 37, 0
4, 21336, Note_on_c, 0, 44, 64
4, 21359, Note_on_c, 0, 44, 0
4, 21360, Note_on_c, 0, 49, 64
4, 21383, Note_on_c, 0, 49, 0
4, 21384, Note_on_c, 0, 53, 64
4, 21407, Note_on_c, 0, 53, 0
4, 21408, Note_on_c, 0, 51, 64
4, 21431, Note_on_c, 0, 51, 0
4, 21432, Note_on_c, 0, 44, 64
4, 21455, Note_on_c, 0, 44, 0
4, 21456, Note_on_c, 0, 51, 64
4, 21479, Note_on_c, 0, 51, 0
4, 21480, Note_on_c, 0, 54, 64
4, 21503, Note_on_c, 0, 54, 0
4, 21504, Note_on_c, 0, 53, 64
4, 21549, Note_on_c, 0, 53, 0
4, 21552, Note_on_c, 0, 49, 64
4, 21597, Note_on_c, 0, 49, 0
4, 21600, Note_on_c, 0, 48, 64
4, 21645, Note_on_c, 0, 48, 0
4, 21648, Note_on_c, 0, 44, 64
4, 21693, Note_on_c, 0, 44, 0
4, 21696, Note_on_c, 0, 49, 64
4, 21741, Note_on_c, 0, 49, 0
4, 21744, Note_on_c, 0, 51, 64
4, 21789, Note_on_c, 0, 51, 0
4, 21792, Note_on_c, 0, 53, 64
4, 21837, Note_on_c, 0, 53, 0
4, 21840, Note_on_c, 0, 49, 64
4, 21885, Note_on_c, 0, 49, 0
4, 21888, Note_on_c, 0, 54, 64
4, 21933, Note_on_c, 0, 54, 0
4, 21936, Note_on_c, 0, 53, 64
4, 21981, Note_on_c, 0, 53, 0
4, 21984, Note_on_c, 0, 54, 64
4, 22029, Note_on_c, 0, 54, 0
4, 22032, Note_on_c, 0, 51, 64
4, 22077, Note_on_c, 0, 51, 0
4, 22080, Note_on_c, 0, 56, 64
4, 22125, Note_on_c, 0, 56, 0
4, 22128, Note_on_c, 0, 44, 64
4, 22173, Note_on_c, 0, 44, 0
4, 22176, Note_on_c, 0, 45, 64
4, 22221, Note_on_c, 0, 45, 0
4, 22224, Note_on_c, 0, 41, 64
4, 22269, Note_on_c, 0, 41, 0
4, 22272, Note_on_c, 0, 46, 64
4, 22317, Note_on_c, 0, 46, 0
4, 22320, Note_on_c, 0, 48, 64
4, 22365, Note_on_c, 0, 48, 0
4, 22368, Note_on_c, 0, 49, 64
4, 22413, Note_on_c, 0, 49, 0
4, 22416, Note_on_c, 0, 46, 64
4, 22461, Note_on_c, 0, 46, 0
4, 22464, Note_on_c, 0, 48, 64
4, 22509, Note_on_c, 0, 48, 0
4, 22512, Note_on_c, 0, 46, 64
4, 22557, Note_on_c, 0, 46, 0
4, 22560, Note_on_c, 0, 44, 64
4, 22605, Note_on_c, 0, 44, 0
4, 22608, Note_on_c, 0, 43, 64
4, 22653, Note_on_c, 0, 43, 0
4, 22656, Note_on_c, 0, 41, 64
4, 22701, Note_on_c, 0, 41, 0
4, 22704, Note_on_c, 0, 51, 64
4, 22749, Note_on_c, 0, 51, 0
4, 22752, Note_on_c, 0, 50, 64
4, 22797, Note_on_c, 0, 50, 0
4, 22800, Note_on_c, 0, 48, 64
4, 22845, Note_on_c, 0, 48, 0
4, 22848, Note_on_c, 0, 47, 64
4, 22871, Note_on_c, 0, 47, 0
4, 22872, Note_on_c, 0, 43, 64
4, 22895, Note_on_c, 0, 43, 0
4, 22896, Note_on_c, 0, 47, 64
4, 22919, Note_on_c, 0, 47, 0
4, 22920, Note_on_c, 0, 50, 64
4, 22943, Note_on_c, 0, 50, 0
4, 22944, Note_on_c, 0, 55, 64
4, 22967, Note_on_c, 0, 55, 0
4, 22968, Note_on_c, 0, 51, 64
4, 22991, Note_on_c, 0, 51, 0
4, 22992, Note_on_c, 0, 53, 64
4, 23015, Note_on_c, 0, 53, 0
4, 23016, Note_on_c, 0, 50, 64
4, 23039, Note_on_c, 0, 50, 0
4, 23040, Note_on_c, 0, 48, 64
4, 23129, Note_on_c, 0, 48, 0
4, 23136, Note_on_c, 0, 50, 64
4, 23225, Note_on_c, 0, 50, 0
4, 23232, Note_on_c, 0, 51, 64
4, 23277, Note_on_c, 0, 51, 0
4, 23280, Note_on_c, 0, 48, 64
4, 23303, Note_on_c, 0, 48, 0
4, 23304, Note_on_c, 0, 50, 64
4, 23327, Note_on_c, 0, 50, 0
4, 23328, Note_on_c, 0, 51, 64
4, 23373, Note_on_c, 0, 51, 0
4, 23376, Note_on_c, 0, 53, 64
4, 23399, Note_on_c, 0, 53, 0
4, 23400, Note_on_c, 0, 55, 64
4, 23423, Note_on_c, 0, 55, 0
4, 23424, Note_on_c, 0, 56, 64
4, 23447, Note_on_c, 0, 56, 0
4, 23448, Note_on_c, 0, 58, 64
4, 23471, Note_on_c, 0, 58, 0
4, 23472, Note_on_c, 0, 56, 64
4, 23495, Note_on_c, 0, 56, 0
4, 23496, Note_on_c, 0, 55, 64
4, 23519, Note_on_c, 0, 55, 0
4, 23520, Note_on_c, 0, 53, 64
4, 23543, Note_on_c, 0, 53, 0
4, 23544, Note_on_c, 0, 55, 64
4, 23567, Note_on_c, 0, 55, 0
4, 23568, Note_on_c, 0, 51, 64
4, 23591, Note_on_c, 0, 51, 0
4, 23592, Note_on_c, 0, 53, 64
4, 23615, Note_on_c, 0, 53, 0
4, 23616, Note_on_c, 0, 55, 64
4, 23661, Note_on_c, 0, 55, 0
4, 23664, Note_on_c, 0, 53, 64
4, 23709, Note_on_c, 0, 53, 0
4, 23712, Note_on_c, 0, 50, 64
4, 23757, Note_on_c, 0, 50, 0
4, 23760, Note_on_c, 0, 53, 64
4, 23805, Note_on_c, 0, 53, 0
4, 23808, Note_on_c, 0, 55, 64
4, 23853, Note_on_c, 0, 55, 0
4, 23856, Note_on_c, 0, 59, 64
4, 23901, Note_on_c, 0, 59, 0
4, 23904, Note_on_c, 0, 55, 64
4, 23949, Note_on_c, 0, 55, 0
4, 23952, Note_on_c, 0, 59, 64
4, 23997, Note_on_c, 0, 59, 0
4, 24000, Note_on_c, 0, 62, 64
4, 24023, Note_on_c, 0, 62, 0
4, 24024, Note_on_c, 0, 63, 64
4, 24047, Note_on_c, 0, 63, 0
4, 24048, Note_on_c, 0, 65, 64
4, 24071, Note_on_c, 0, 65, 0
4, 24072, Note_on_c, 0, 63, 64
4, 24095, Note_on_c, 0, 63, 0
4, 24096, Note_on_c, 0, 62, 64
4, 24119, Note_on_c, 0, 62, 0
4, 24120, Note_on_c, 0, 60, 64
4, 24143, Note_on_c, 0, 60, 0
4, 24144, Note_on_c, 0, 59, 64
4, 24167, Note_on_c, 0, 59, 0
4, 24168, Note_on_c, 0, 60, 64
4, 24191, Note_on_c, 0, 60, 0
4, 24192, Note_on_c, 0, 48, 64
4, 24369, Note_on_c, 0, 48, 0
4, 24384, Note_on_c, 0, 50, 64
4, 24561, Note_on_c, 0, 50, 0
4, 24576, Note_on_c, 0, 51, 64
4, 24621, Note_on_c, 0, 51, 0
4, 24624, Note_on_c, 0, 50, 64
4, 24647, Note_on_c, 0, 50, 0
4, 24648, Note_on_c, 0, 48, 64
4, 24671, Note_on_c, 0, 48, 0
4, 24672, Note_on_c, 0, 47, 64
4, 24717, Note_on_c, 0, 47, 0
4, 24720, Note_on_c, 0, 50, 64
4, 24765, Note_on_c, 0, 50, 0
4, 24768, Note_on_c, 0, 43, 64
4, 24857, Note_on_c, 0, 43, 0
4, 24864, Note_on_c, 0, 55, 64
4, 25005, Note_on_c, 0, 55, 0
4, 25008, Note_on_c, 0, 53, 64
4, 25031, Note_on_c, 0, 53, 0
4, 25032, Note_on_c, 0, 51, 64
4, 25055, Note_on_c, 0, 51, 0
4, 25056, Note_on_c, 0, 50, 64
4, 25101, Note_on_c, 0, 50, 0
4, 25104, Note_on_c, 0, 53, 64
4, 25149, Note_on_c, 0, 53, 0
4, 25152, Note_on_c, 0, 47, 64
4, 25197, Note_on_c, 0, 47, 0
4, 25200, Note_on_c, 0, 43, 64
4, 25245, Note_on_c, 0, 43, 0
4, 25248, Note_on_c, 0, 48, 64
4, 25293, Note_on_c, 0, 48, 0
4, 25296, Note_on_c, 0, 51, 64
4, 25341, Note_on_c, 0, 51, 0
4, 25344, Note_on_c, 0, 56, 64
4, 25389, Note_on_c, 0, 56, 0
4, 25392, Note_on_c, 0, 53, 64
4, 25437, Note_on_c, 0, 53, 0
4, 25440, Note_on_c, 0, 55, 64
4, 25485, Note_on_c, 0, 55, 0
4, 25488, Note_on_c, 0, 43, 64
4, 25533, Note_on_c, 0, 43, 0
4, 25536, Note_on_c, 0, 48, 64
4, 25581, Note_on_c, 0, 48, 0
4, 25584, Note_on_c, 0, 60, 64
4, 25629, Note_on_c, 0, 60, 0
4, 25632, Note_on_c, 0, 59, 64
4, 25677, Note_on_c, 0, 59, 0
4, 25680, Note_on_c, 0, 55, 64
4, 25725, Note_on_c, 0, 55, 0
4, 25728, Note_on_c, 0, 60, 64
4, 25773, Note_on_c, 0, 60, 0
4, 25776, Note_on_c, 0, 48, 64
4, 25821, Note_on_c, 0, 48, 0
4, 25824, Note_on_c, 0, 47, 64
4, 25869, Note_on_c, 0, 47, 0
4, 25872, Note_on_c, 0, 43, 64
4, 25917, Note_on_c, 0, 43, 0
4, 25920, Note_on_c, 0, 48, 64
4, 25943, Note_on_c, 0, 48, 0
4, 25944, Note_on_c, 0, 50, 64
4, 25967, Note_on_c, 0, 50, 0
4, 25968, Note_on_c, 0, 48, 64
4, 25991, Note_on_c, 0, 48, 0
4, 25992, Note_on_c, 0, 46, 64
4, 26015, Note_on_c, 0, 46, 0
4, 26016, Note_on_c, 0, 44, 64
4, 26039, Note_on_c, 0, 44, 0
4, 26040, Note_on_c, 0, 46, 64
4, 26063, Note_on_c, 0, 46, 0
4, 26064, Note_on_c, 0, 43, 64
4, 26087, Note_on_c, 0, 43, 0
4, 26088, Note_on_c, 0, 44, 64
4, 26111, Note_on_c, 0, 44, 0
4, 26112, Note_on_c, 0, 46, 64
4, 26135, Note_on_c, 0, 46, 0
4, 26136, Note_on_c, 0, 48, 64
4, 26159, Note_on_c, 0, 48, 0
4, 26160, Note_on_c, 0, 46, 64
4, 26183, Note_on_c, 0, 46, 0
4, 26184, Note_on_c, 0, 44, 64
4, 26207, Note_on_c, 0, 44, 0
4, 26208, Note_on_c, 0, 43, 64
4, 26231, Note_on_c, 0, 43, 0
4, 26232, Note_on_c, 0, 44, 64
4, 26255, Note_on_c, 0, 44, 0
4, 26256, Note_on_c, 0, 41, 64
4, 26279, Note_on_c, 0, 41, 0
4, 26280, Note_on_c, 0, 43, 64
4, 26303, Note_on_c, 0, 43, 0
4, 26304, Note_on_c, 0, 44, 64
4, 26327, Note_on_c, 0, 44, 0
4, 26328, Note_on_c, 0, 46, 64
4, 26351, Note_on_c, 0, 46, 0
4, 26352, Note_on_c, 0, 44, 64
4, 26375, Note_on_c, 0, 44, 0
4, 26376, Note_on_c, 0, 43, 64
4, 26399, Note_on_c, 0, 43, 0
4, 26400, Note_on_c, 0, 41, 64
4, 26423, Note_on_c, 0, 41, 0
4, 26424, Note_on_c, 0, 43, 64
4, 26447, Note_on_c, 0, 43, 0
4, 26448, Note_on_c, 0, 39, 64
4, 26471, Note_on_c, 0, 39, 0
4, 26472, Note_on_c, 0, 41, 64
4, 26495, Note_on_c, 0, 41, 0
4, 26496, Note_on_c, 0, 43, 64
4, 26519, Note_on_c, 0, 43, 0
4, 26520, Note_on_c, 0, 44, 64
4, 26543, Note_on_c, 0, 44, 0
4, 26544, Note_on_c, 0, 43, 64
4, 26567, Note_on_c, 0, 43, 0
4, 26568, Note_on_c, 0, 41, 64
4, 26591, Note_on_c, 0, 41, 0
4, 26592, Note_on_c, 0, 39, 64
4, 26615, Note_on_c, 0, 39, 0
4, 26616, Note_on_c, 0, 41, 64
4, 26639, Note_on_c, 0, 41, 0
4, 26640, Note_on_c, 0, 38, 64
4, 26663, Note_on_c, 0, 38, 0
4, 26664, Note_on_c, 0, 39, 64
4, 26687, Note_on_c, 0, 39, 0
4, 26688, Note_on_c, 0, 41, 64
4, 26711, Note_on_c, 0, 41, 0
4, 26712, Note_on_c, 0, 43, 64
4, 26735, Note_on_c, 0, 43, 0
4, 26736, Note_on_c, 0, 41, 64
4, 26759, Note_on_c, 0, 41, 0
4, 26760, Note_on_c, 0, 39, 64
4, 26783, Note_on_c, 0, 39, 0
4, 26784, Note_on_c, 0, 38, 64
4, 26807, Note_on_c, 0, 38, 0
4, 26808, Note_on_c, 0, 39, 64
4, 26831, Note_on_c, 0, 39, 0
4, 26832, Note_on_c, 0, 36, 64
4, 26855, Note_on_c, 0, 36, 0
4, 26856, Note_on_c, 0, 38, 64
4, 26879, Note_on_c, 0, 38, 0
4, 26880, Note_on_c, 0, 39, 64
4, 26925, Note_on_c, 0, 39, 0
4, 26928, Note_on_c, 0, 51, 64
4, 26973, Note_on_c, 0, 51, 0
4, 26976, Note_on_c, 0, 50, 64
4, 27021, Note_on_c, 0, 50, 0
4, 27024, Note_on_c, 0, 46, 64
4, 27069, Note_on_c, 0, 46, 0
4, 27072, Note_on_c, 0, 39, 64
4, 27117, Note_on_c, 0, 39, 0
4, 27120, Note_on_c, 0, 51, 64
4, 27165, Note_on_c, 0, 51, 0
4, 27168, Note_on_c, 0, 50, 64
4, 27213, Note_on_c, 0, 50, 0
4, 27216, Note_on_c, 0, 46, 64
4, 27261, Note_on_c, 0, 46, 0
4, 27264, Note_on_c, 0, 39, 64
4, 27309, Note_on_c, 0, 39, 0
4, 27312, Note_on_c, 0, 51, 64
4, 27357, Note_on_c, 0, 51, 0
4, 27360, Note_on_c, 0, 55, 64
4, 27405, Note_on_c, 0, 55, 0
4, 27408, Note_on_c, 0, 51, 64
4, 27453, Note_on_c, 0, 51, 0
4, 27456, Note_on_c, 0, 56, 64
4, 27501, Note_on_c, 0, 56, 0
4, 27504, Note_on_c, 0, 55, 64
4, 27549, Note_on_c, 0, 55, 0
4, 27552, Note_on_c, 0, 53, 64
4, 27597, Note_on_c, 0, 53, 0
4, 27600, Note_on_c, 0, 56, 64
4, 27645, Note_on_c, 0, 56, 0
4, 27648, Note_on_c, 0, 49, 64
4, 27693, Note_on_c, 0, 49, 0
4, 27696, Note_on_c, 0, 48, 64
4, 27741, Note_on_c, 0, 48, 0
4, 27744, Note_on_c, 0, 46, 64
4, 27789, Note_on_c, 0, 46, 0
4, 27792, Note_on_c, 0, 49, 64
4, 27837, Note_on_c, 0, 49, 0
4, 27840, Note_on_c, 0, 43, 64
4, 27885, Note_on_c, 0, 43, 0
4, 27888, Note_on_c, 0, 44, 64
4, 27933, Note_on_c, 0, 44, 0
4, 27936, Note_on_c, 0, 46, 64
4, 28055, Note_on_c, 0, 46, 0
4, 28056, Note_on_c, 0, 44, 64
4, 28079, Note_on_c, 0, 44, 0
4, 28080, Note_on_c, 0, 43, 64
4, 28103, Note_on_c, 0, 43, 0
4, 28104, Note_on_c, 0, 44, 64
4, 28127, Note_on_c, 0, 44, 0
4, 28128, Note_on_c, 0, 46, 64
4, 28151, Note_on_c, 0, 46, 0
4, 28152, Note_on_c, 0, 44, 64
4, 28175, Note_on_c, 0, 44, 0
4, 28176, Note_on_c, 0, 43, 64
4, 28199, Note_on_c, 0, 43, 0
4, 28200, Note_on_c, 0, 41, 64
4, 28223, Note_on_c, 0, 41, 0
4, 28224, Note_on_c, 0, 40, 64
4, 28269, Note_on_c, 0, 40, 0
4, 28272, Note_on_c, 0, 49, 64
4, 28361, Note_on_c, 0, 49, 0
4, 28368, Note_on_c, 0, 48, 64
4, 28413, Note_on_c, 0, 48, 0
4, 28416, Note_on_c, 0, 46, 64
4, 28439, Note_on_c, 0, 46, 0
4, 28440, Note_on_c, 0, 44, 64
4, 28463, Note_on_c, 0, 44, 0
4, 28464, Note_on_c, 0, 43, 64
4, 28487, Note_on_c, 0, 43, 0
4, 28488, Note_on_c, 0, 44, 64
4, 28511, Note_on_c, 0, 44, 0
4, 28512, Note_on_c, 0, 46, 64
4, 28535, Note_on_c, 0, 46, 0
4, 28536, Note_on_c, 0, 44, 64
4, 28559, Note_on_c, 0, 44, 0
4, 28560, Note_on_c, 0, 43, 64
4, 28583, Note_on_c, 0, 43, 0
4, 28584, Note_on_c, 0, 41, 64
4, 28607, Note_on_c, 0, 41, 0
4, 28608, Note_on_c, 0, 52, 64
4, 28653, Note_on_c, 0, 52, 0
4, 28656, Note_on_c, 0, 53, 64
4, 28701, Note_on_c, 0, 53, 0
4, 28752, Note_on_c, 0, 51, 64
4, 28797, Note_on_c, 0, 51, 0
4, 28800, Note_on_c, 0, 49, 64
4, 28845, Note_on_c, 0, 49, 0
4, 28848, Note_on_c, 0, 48, 64
4, 28893, Note_on_c, 0, 48, 0
4, 28896, Note_on_c, 0, 49, 64
4, 28941, Note_on_c, 0, 49, 0
4, 28944, Note_on_c, 0, 46, 64
4, 28989, Note_on_c, 0, 46, 0
4, 28992, Note_on_c, 0, 52, 64
4, 29015, Note_on_c, 0, 52, 0
4, 29016, Note_on_c, 0, 48, 64
4, 29039, Note_on_c, 0, 48, 0
4, 29040, Note_on_c, 0, 52, 64
4, 29063, Note_on_c, 0, 52, 0
4, 29064, Note_on_c, 0, 55, 64
4, 29087, Note_on_c, 0, 55, 0
4, 29088, Note_on_c, 0, 60, 64
4, 29111, Note_on_c, 0, 60, 0
4, 29112, Note_on_c, 0, 56, 64
4, 29135, Note_on_c, 0, 56, 0
4, 29136, Note_on_c, 0, 58, 64
4, 29159, Note_on_c, 0, 58, 0
4, 29160, Note_on_c, 0, 55, 64
4, 29183, Note_on_c, 0, 55, 0
4, 29184, Note_on_c, 0, 53, 64
4, 29273, Note_on_c, 0, 53, 0
4, 29280, Note_on_c, 0, 55, 64
4, 29369, Note_on_c, 0, 55, 0
4, 29376, Note_on_c, 0, 56, 64
4, 29421, Note_on_c, 0, 56, 0
4, 29424, Note_on_c, 0, 53, 64
4, 29447, Note_on_c, 0, 53, 0
4, 29448, Note_on_c, 0, 55, 64
4, 29471, Note_on_c, 0, 55, 0
4, 29472, Note_on_c, 0, 56, 64
4, 29517, Note_on_c, 0, 56, 0
4, 29520, Note_on_c, 0, 58, 64
4, 29543, Note_on_c, 0, 58, 0
4, 29544, Note_on_c, 0, 60, 64
4, 29567, Note_on_c, 0, 60, 0
4, 29568, Note_on_c, 0, 61, 64
4, 29591, Note_on_c, 0, 61, 0
4, 29592, Note_on_c, 0, 63, 64
4, 29615, Note_on_c, 0, 63, 0
4, 29616, Note_on_c, 0, 61, 64
4, 29639, Note_on_c, 0, 61, 0
4, 29640, Note_on_c, 0, 60, 64
4, 29663, Note_on_c, 0, 60, 0
4, 29664, Note_on_c, 0, 58, 64
4, 29687, Note_on_c, 0, 58, 0
4, 29688, Note_on_c, 0, 60, 64
4, 29711, Note_on_c, 0, 60, 0
4, 29712, Note_on_c, 0, 56, 64
4, 29735, Note_on_c, 0, 56, 0
4, 29736, Note_on_c, 0, 58, 64
4, 29759, Note_on_c, 0, 58, 0
4, 29760, Note_on_c, 0, 60, 64
4, 29783, Note_on_c, 0, 60, 0
4, 29784, Note_on_c, 0, 61, 64
4, 29807, Note_on_c, 0, 61, 0
4, 29808, Note_on_c, 0, 60, 64
4, 29831, Note_on_c, 0, 60, 0
4, 29832, Note_on_c, 0, 58, 64
4, 29855, Note_on_c, 0, 58, 0
4, 29856, Note_on_c, 0, 56, 64
4, 29879, Note_on_c, 0, 56, 0
4, 29880, Note_on_c, 0, 58, 64
4, 29903, Note_on_c, 0, 58, 0
4, 29904, Note_on_c, 0, 55, 64
4, 29927, Note_on_c, 0, 55, 0
4, 29928, Note_on_c, 0, 56, 64
4, 29951, Note_on_c, 0, 56, 0
4, 29952, Note_on_c, 0, 58, 64
4, 29975, Note_on_c, 0, 58, 0
4, 29976, Note_on_c, 0, 60, 64
4, 29999, Note_on_c, 0, 60, 0
4, 30000, Note_on_c, 0, 58, 64
4, 30023, Note_on_c, 0, 58, 0
4, 30024, Note_on_c, 0, 56, 64
4, 30047, Note_on_c, 0, 56, 0
4, 30048, Note_on_c, 0, 55, 64
4, 30071, Note_on_c, 0, 55, 0
4, 30072, Note_on_c, 0, 56, 64
4, 30095, Note_on_c, 0, 56, 0
4, 30096, Note_on_c, 0, 53, 64
4, 30119, Note_on_c, 0, 53, 0
4, 30120, Note_on_c, 0, 55, 64
4, 30143, Note_on_c, 0, 55, 0
4, 30144, Note_on_c, 0, 56, 64
4, 30167, Note_on_c, 0, 56, 0
4, 30168, Note_on_c, 0, 58, 64
4, 30191, Note_on_c, 0, 58, 0
4, 30192, Note_on_c, 0, 56, 64
4, 30215, Note_on_c, 0, 56, 0
4, 30216, Note_on_c, 0, 55, 64
4, 30239, Note_on_c, 0, 55, 0
4, 30240, Note_on_c, 0, 53, 64
4, 30263, Note_on_c, 0, 53, 0
4, 30264, Note_on_c, 0, 55, 64
4, 30287, Note_on_c, 0, 55, 0
4, 30288, Note_on_c, 0, 51, 64
4, 30311, Note_on_c, 0, 51, 0
4, 30312, Note_on_c, 0, 53, 64
4, 30335, Note_on_c, 0, 53, 0
4, 30336, Note_on_c, 0, 55, 64
4, 30359, Note_on_c, 0, 55, 0
4, 30360, Note_on_c, 0, 56, 64
4, 30383, Note_on_c, 0, 56, 0
4, 30384, Note_on_c, 0, 55, 64
4, 30407, Note_on_c, 0, 55, 0
4, 30408, Note_on_c, 0, 53, 64
4, 30431, Note_on_c, 0, 53, 0
4, 30432, Note_on_c, 0, 51, 64
4, 30455, Note_on_c, 0, 51, 0
4, 30456, Note_on_c, 0, 53, 64
4, 30479, Note_on_c, 0, 53, 0
4, 30480, Note_on_c, 0, 49, 64
4, 30503, Note_on_c, 0, 49, 0
4, 30504, Note_on_c, 0, 51, 64
4, 30527, Note_on_c, 0, 51, 0
4, 30528, Note_on_c, 0, 53, 64
4, 30551, Note_on_c, 0, 53, 0
4, 30552, Note_on_c, 0, 55, 64
4, 30575, Note_on_c, 0, 55, 0
4, 30576, Note_on_c, 0, 53, 64
4, 30599, Note_on_c, 0, 53, 0
4, 30600, Note_on_c, 0, 51, 64
4, 30623, Note_on_c, 0, 51, 0
4, 30624, Note_on_c, 0, 49, 64
4, 30647, Note_on_c, 0, 49, 0
4, 30648, Note_on_c, 0, 51, 64
4, 30671, Note_on_c, 0, 51, 0
4, 30672, Note_on_c, 0, 48, 64
4, 30695, Note_on_c, 0, 48, 0
4, 30696, Note_on_c, 0, 49, 64
4, 30719, Note_on_c, 0, 49, 0
4, 30720, Note_on_c, 0, 51, 64
4, 30743, Note_on_c, 0, 51, 0
4, 30744, Note_on_c, 0, 53, 64
4, 30767, Note_on_c, 0, 53, 0
4, 30768, Note_on_c, 0, 51, 64
4, 30791, Note_on_c, 0, 51, 0
4, 30792, Note_on_c, 0, 49, 64
4, 30815, Note_on_c, 0, 49, 0
4, 30816, Note_on_c, 0, 48, 64
4, 30839, Note_on_c, 0, 48, 0
4, 30840, Note_on_c, 0, 49, 64
4, 30863, Note_on_c, 0, 49, 0
4, 30864, Note_on_c, 0, 46, 64
4, 30887, Note_on_c, 0, 46, 0
4, 30888, Note_on_c, 0, 48, 64
4, 30911, Note_on_c, 0, 48, 0
4, 30912, Note_on_c, 0, 49, 64
4, 30935, Note_on_c, 0, 49, 0
4, 30936, Note_on_c, 0, 51, 64
4, 30959, Note_on_c, 0, 51, 0
4, 30960, Note_on_c, 0, 49, 64
4, 30983, Note_on_c, 0, 49, 0
4, 30984, Note_on_c, 0, 48, 64
4, 31007, Note_on_c, 0, 48, 0
4, 31008, Note_on_c, 0, 46, 64
4, 31031, Note_on_c, 0, 46, 0
4, 31032, Note_on_c, 0, 48, 64
4, 31055, Note_on_c, 0, 48, 0
4, 31056, Note_on_c, 0, 44, 64
4, 31079, Note_on_c, 0, 44, 0
4, 31080, Note_on_c, 0, 46, 64
4, 31103, Note_on_c, 0, 46, 0
4, 31104, Note_on_c, 0, 48, 64
4, 31127, Note_on_c, 0, 48, 0
4, 31128, Note_on_c, 0, 49, 64
4, 31151, Note_on_c, 0, 49, 0
4, 31152, Note_on_c, 0, 48, 64
4, 31175, Note_on_c, 0, 48, 0
4, 31176, Note_on_c, 0, 46, 64
4, 31199, Note_on_c, 0, 46, 0
4, 31200, Note_on_c, 0, 44, 64
4, 31223, Note_on_c, 0, 44, 0
4, 31224, Note_on_c, 0, 43, 64
4, 31247, Note_on_c, 0, 43, 0
4, 31248, Note_on_c, 0, 41, 64
4, 31271, Note_on_c, 0, 41, 0
4, 31272, Note_on_c, 0, 40, 64
4, 31295, Note_on_c, 0, 40, 0
4, 31296, Note_on_c, 0, 41, 64
4, 31319, Note_on_c, 0, 41, 0
4, 31320, Note_on_c, 0, 43, 64
4, 31343, Note_on_c, 0, 43, 0
4, 31344, Note_on_c, 0, 44, 64
4, 31367, Note_on_c, 0, 44, 0
4, 31368, Note_on_c, 0, 46, 64
4, 31391, Note_on_c, 0, 46, 0
4, 31392, Note_on_c, 0, 48, 64
4, 31415, Note_on_c, 0, 48, 0
4, 31416, Note_on_c, 0, 49, 64
4, 31439, Note_on_c, 0, 49, 0
4, 31440, Note_on_c, 0, 46, 64
4, 31463, Note_on_c, 0, 46, 0
4, 31464, Note_on_c, 0, 48, 64
4, 31487, Note_on_c, 0, 48, 0
4, 31488, Note_on_c, 0, 49, 64
4, 31511, Note_on_c, 0, 49, 0
4, 31512, Note_on_c, 0, 51, 64
4, 31535, Note_on_c, 0, 51, 0
4, 31536, Note_on_c, 0, 49, 64
4, 31559, Note_on_c, 0, 49, 0
4, 31560, Note_on_c, 0, 48, 64
4, 31583, Note_on_c, 0, 48, 0
4, 31584, Note_on_c, 0, 46, 64
4, 31607, Note_on_c, 0, 46, 0
4, 31608, Note_on_c, 0, 48, 64
4, 31631, Note_on_c, 0, 48, 0
4, 31632, Note_on_c, 0, 44, 64
4, 31655, Note_on_c, 0, 44, 0
4, 31656, Note_on_c, 0, 46, 64
4, 31679, Note_on_c, 0, 46, 0
4, 31680, Note_on_c, 0, 48, 64
4, 31703, Note_on_c, 0, 48, 0
4, 31704, Note_on_c, 0, 49, 64
4, 31727, Note_on_c, 0, 49, 0
4, 31728, Note_on_c, 0, 48, 64
4, 31751, Note_on_c, 0, 48, 0
4, 31752, Note_on_c, 0, 46, 64
4, 31775, Note_on_c, 0, 46, 0
4, 31776, Note_on_c, 0, 44, 64
4, 31799, Note_on_c, 0, 44, 0
4, 31800, Note_on_c, 0, 43, 64
4, 31823, Note_on_c, 0, 43, 0
4, 31824, Note_on_c, 0, 41, 64
4, 31847, Note_on_c, 0, 41, 0
4, 31848, Note_on_c, 0, 40, 64
4, 31871, Note_on_c, 0, 40, 0
4, 31872, Note_on_c, 0, 41, 64
4, 31917, Note_on_c, 0, 41, 0
4, 31920, Note_on_c, 0, 53, 64
4, 31943, Note_on_c, 0, 53, 0
4, 31944, Note_on_c, 0, 46, 64
4, 31967, Note_on_c, 0, 46, 0
4, 31968, Note_on_c, 0, 48, 64
4, 32013, Note_on_c, 0, 48, 0
4, 32016, Note_on_c, 0, 36, 64
4, 32061, Note_on_c, 0, 36, 0
4, 32064, Note_on_c, 0, 41, 64
4, 32087, Note_on_c, 0, 41, 0
4, 32088, Note_on_c, 0, 48, 64
4, 32111, Note_on_c, 0, 48, 0
4, 32112, Note_on_c, 0, 50, 64
4, 32135, Note_on_c, 0, 50, 0
4, 32136, Note_on_c, 0, 52, 64
4, 32159, Note_on_c, 0, 52, 0
4, 32160, Note_on_c, 0, 53, 64
4, 32183, Note_on_c, 0, 53, 0
4, 32184, Note_on_c, 0, 55, 64
4, 32207, Note_on_c, 0, 55, 0
4, 32208, Note_on_c, 0, 56, 64
4, 32231, Note_on_c, 0, 56, 0
4, 32232, Note_on_c, 0, 58, 64
4, 32255, Note_on_c, 0, 58, 0
4, 32256, Note_on_c, 0, 60, 64
4, 32301, Note_on_c, 0, 60, 0
4, 32304, Note_on_c, 0, 51, 64
4, 32349, Note_on_c, 0, 51, 0
4, 32352, Note_on_c, 0, 48, 64
4, 32397, Note_on_c, 0, 48, 0
4, 32400, Note_on_c, 0, 51, 64
4, 32445, Note_on_c, 0, 51, 0
4, 32448, Note_on_c, 0, 53, 64
4, 32493, Note_on_c, 0, 53, 0
4, 32496, Note_on_c, 0, 57, 64
4, 32541, Note_on_c, 0, 57, 0
4, 32544, Note_on_c, 0, 53, 64
4, 32589, Note_on_c, 0, 53, 0
4, 32592, Note_on_c, 0, 57, 64
4, 32637, Note_on_c, 0, 57, 0
4, 32640, Note_on_c, 0, 60, 64
4, 32663, Note_on_c, 0, 60, 0
4, 32664, Note_on_c, 0, 61, 64
4, 32687, Note_on_c, 0, 61, 0
4, 32688, Note_on_c, 0, 63, 64
4, 32711, Note_on_c, 0, 63, 0
4, 32712, Note_on_c, 0, 61, 64
4, 32735, Note_on_c, 0, 61, 0
4, 32736, Note_on_c, 0, 60, 64
4, 32759, Note_on_c, 0, 60, 0
4, 32760, Note_on_c, 0, 58, 64
4, 32783, Note_on_c, 0, 58, 0
4, 32784, Note_on_c, 0, 57, 64
4, 32807, Note_on_c, 0, 57, 0
4, 32808, Note_on_c, 0, 58, 64
4, 32831, Note_on_c, 0, 58, 0
4, 32832, Note_on_c, 0, 46, 64
4, 33009, Note_on_c, 0, 46, 0
4, 33024, Note_on_c, 0, 48, 64
4, 33201, Note_on_c, 0, 48, 0
4, 33216, Note_on_c, 0, 49, 64
4, 33261, Note_on_c, 0, 49, 0
4, 33264, Note_on_c, 0, 48, 64
4, 33287, Note_on_c, 0, 48, 0
4, 33288, Note_on_c, 0, 46, 64
4, 33311, Note_on_c, 0, 46, 0
4, 33312, Note_on_c, 0, 45, 64
4, 33357, Note_on_c, 0, 45, 0
4, 33360, Note_on_c, 0, 48, 64
4, 33405, Note_on_c, 0, 48, 0
4, 33408, Note_on_c, 0, 41, 64
4, 33497, Note_on_c, 0, 41, 0
4, 33504, Note_on_c, 0, 53, 64
4, 33645, Note_on_c, 0, 53, 0
4, 33648, Note_on_c, 0, 51, 64
4, 33671, Note_on_c, 0, 51, 0
4, 33672, Note_on_c, 0, 49, 64
4, 33695, Note_on_c, 0, 49, 0
4, 33696, Note_on_c, 0, 48, 64
4, 33741, Note_on_c, 0, 48, 0
4, 33744, Note_on_c, 0, 51, 64
4, 33789, Note_on_c, 0, 51, 0
4, 33792, Note_on_c, 0, 45, 64
4, 33837, Note_on_c, 0, 45, 0
4, 33840, Note_on_c, 0, 41, 64
4, 33885, Note_on_c, 0, 41, 0
4, 33888, Note_on_c, 0, 46, 64
4, 33933, Note_on_c, 0, 46, 0
4, 33936, Note_on_c, 0, 49, 64
4, 33981, Note_on_c, 0, 49, 0
4, 33984, Note_on_c, 0, 54, 64
4, 34029, Note_on_c, 0, 54, 0
4, 34032, Note_on_c, 0, 51, 64
4, 34077, Note_on_c, 0, 51, 0
4, 34080, Note_on_c, 0, 53, 64
4, 34125, Note_on_c, 0, 53, 0
4, 34128, Note_on_c, 0, 41, 64
4, 34173, Note_on_c, 0, 41, 0
4, 34176, Note_on_c, 0, 46, 64
4, 34221, Note_on_c, 0, 46, 0
4, 34224, Note_on_c, 0, 58, 64
4, 34269, Note_on_c, 0, 58, 0
4, 34272, Note_on_c, 0, 57, 64
4, 34317, Note_on_c, 0, 57, 0
4, 34320, Note_on_c, 0, 53, 64
4, 34365, Note_on_c, 0, 53, 0
4, 34368, Note_on_c, 0, 46, 64
4, 34413, Note_on_c, 0, 46, 0
4, 34416, Note_on_c, 0, 58, 64
4, 34461, Note_on_c, 0, 58, 0
4, 34464, Note_on_c, 0, 57, 64
4, 34509, Note_on_c, 0, 57, 0
4, 34512, Note_on_c, 0, 53, 64
4, 34557, Note_on_c, 0, 53, 0
4, 34560, Note_on_c, 0, 46, 64
4, 34605, Note_on_c, 0, 46, 0
4, 34608, Note_on_c, 0, 58, 64
4, 34653, Note_on_c, 0, 58, 0
4, 34656, Note_on_c, 0, 61, 64
4, 34701, Note_on_c, 0, 61, 0
4, 34704, Note_on_c, 0, 58, 64
4, 34749, Note_on_c, 0, 58, 0
4, 34752, Note_on_c, 0, 51, 64
4, 34797, Note_on_c, 0, 51, 0
4, 34800, Note_on_c, 0, 49, 64
4, 34845, Note_on_c, 0, 49, 0
4, 34848, Note_on_c, 0, 48, 64
4, 34893, Note_on_c, 0, 48, 0
4, 34896, Note_on_c, 0, 51, 64
4, 34941, Note_on_c, 0, 51, 0
4, 34944, Note_on_c, 0, 44, 64
4, 34989, Note_on_c, 0, 44, 0
4, 34992, Note_on_c, 0, 42, 64
4, 35037, Note_on_c, 0, 42, 0
4, 35040, Note_on_c, 0, 41, 64
4, 35085, Note_on_c, 0, 41, 0
4, 35088, Note_on_c, 0, 44, 64
4, 35133, Note_on_c, 0, 44, 0
4, 35136, Note_on_c, 0, 37, 64
4, 35159, Note_on_c, 0, 37, 0
4, 35160, Note_on_c, 0, 44, 64
4, 35183, Note_on_c, 0, 44, 0
4, 35184, Note_on_c, 0, 49, 64
4, 35207, Note_on_c, 0, 49, 0
4, 35208, Note_on_c, 0, 53, 64
4, 35231, Note_on_c, 0, 53, 0
4, 35232, Note_on_c, 0, 51, 64
4, 35255, Note_on_c, 0, 51, 0
4, 35256, Note_on_c, 0, 44, 64
4, 35279, Note_on_c, 0, 44, 0
4, 35280, Note_on_c, 0, 51, 64
4, 35303, Note_on_c, 0, 51, 0
4, 35304, Note_on_c, 0, 54, 64
4, 35327, Note_on_c, 0, 54, 0
4, 35328, Note_on_c, 0, 53, 64
4, 35373, Note_on_c, 0, 53, 0
4, 35376, Note_on_c, 0, 49, 64
4, 35421, Note_on_c, 0, 49, 0
4, 35424, Note_on_c, 0, 48, 64
4, 35469, Note_on_c, 0, 48, 0
4, 35472, Note_on_c, 0, 44, 64
4, 35517, Note_on_c, 0, 44, 0
4, 35520, Note_on_c, 0, 49, 64
4, 35565, Note_on_c, 0, 49, 0
4, 35568, Note_on_c, 0, 51, 64
4, 35613, Note_on_c, 0, 51, 0
4, 35616, Note_on_c, 0, 53, 64
4, 35661, Note_on_c, 0, 53, 0
4, 35664, Note_on_c, 0, 49, 64
4, 35709, Note_on_c, 0, 49, 0
4, 35712, Note_on_c, 0, 54, 64
4, 35757, Note_on_c, 0, 54, 0
4, 35760, Note_on_c, 0, 53, 64
4, 35805, Note_on_c, 0, 53, 0
4, 35808, Note_on_c, 0, 54, 64
4, 35853, Note_on_c, 0, 54, 0
4, 35856, Note_on_c, 0, 51, 64
4, 35901, Note_on_c, 0, 51, 0
4, 35904, Note_on_c, 0, 56, 64
4, 35949, Note_on_c, 0, 56, 0
4, 35952, Note_on_c, 0, 44, 64
4, 35997, Note_on_c, 0, 44, 0
4, 36000, Note_on_c, 0, 45, 64
4, 36045, Note_on_c, 0, 45, 0
4, 36048, Note_on_c, 0, 41, 64
4, 36093, Note_on_c, 0, 41, 0
4, 36096, Note_on_c, 0, 46, 64
4, 36141, Note_on_c, 0, 46, 0
4, 36144, Note_on_c, 0, 48, 64
4, 36189, Note_on_c, 0, 48, 0
4, 36192, Note_on_c, 0, 49, 64
4, 36237, Note_on_c, 0, 49, 0
4, 36240, Note_on_c, 0, 46, 64
4, 36285, Note_on_c, 0, 46, 0
4, 36288, Note_on_c, 0, 48, 64
4, 36333, Note_on_c, 0, 48, 0
4, 36336, Note_on_c, 0, 46, 64
4, 36381, Note_on_c, 0, 46, 0
4, 36384, Note_on_c, 0, 44, 64
4, 36429, Note_on_c, 0, 44, 0
4, 36432, Note_on_c, 0, 43, 64
4, 36477, Note_on_c, 0, 43, 0
4, 36480, Note_on_c, 0, 41, 64
4, 36525, Note_on_c, 0, 41, 0
4, 36528, Note_on_c, 0, 51, 64
4, 36573, Note_on_c, 0, 51, 0
4, 36576, Note_on_c, 0, 50, 64
4, 36621, Note_on_c, 0, 50, 0
4, 36624, Note_on_c, 0, 48, 64
4, 36669, Note_on_c, 0, 48, 0
4, 36672, Note_on_c, 0, 47, 64
4, 36695, Note_on_c, 0, 47, 0
4, 36696, Note_on_c, 0, 43, 64
4, 36719, Note_on_c, 0, 43, 0
4, 36720, Note_on_c, 0, 47, 64
4, 36743, Note_on_c, 0, 47, 0
4, 36744, Note_on_c, 0, 50, 64
4, 36767, Note_on_c, 0, 50, 0
4, 36768, Note_on_c, 0, 55, 64
4, 36791, Note_on_c, 0, 55, 0
4, 36792, Note_on_c, 0, 51, 64
4, 36815, Note_on_c, 0, 51, 0
4, 36816, Note_on_c, 0, 53, 64
4, 36839, Note_on_c, 0, 53, 0
4, 36840, Note_on_c, 0, 50, 64
4, 36863, Note_on_c, 0, 50, 0
4, 36864, Note_on_c, 0, 48, 64
4, 36953, Note_on_c, 0, 48, 0
4, 36960, Note_on_c, 0, 50, 64
4, 37049, Note_on_c, 0, 50, 0
4, 37056, Note_on_c, 0, 51, 64
4, 37101, Note_on_c, 0, 51, 0
4, 37104, Note_on_c, 0, 48, 64
4, 37127, Note_on_c, 0, 48, 0
4, 37128, Note_on_c, 0, 50, 64
4, 37151, Note_on_c, 0, 50, 0
4, 37152, Note_on_c, 0, 51, 64
4, 37197, Note_on_c, 0, 51, 0
4, 37200, Note_on_c, 0, 53, 64
4, 37223, Note_on_c, 0, 53, 0
4, 37224, Note_on_c, 0, 55, 64
4, 37247, Note_on_c, 0, 55, 0
4, 37248, Note_on_c, 0, 56, 64
4, 37271, Note_on_c, 0, 56, 0
4, 37272, Note_on_c, 0, 58, 64
4, 37295, Note_on_c, 0, 58, 0
4, 37296, Note_on_c, 0, 56, 64
4, 37319, Note_on_c, 0, 56, 0
4, 37320, Note_on_c, 0, 55, 64
4, 37343, Note_on_c, 0, 55, 0
4, 37344, Note_on_c, 0, 53, 64
4, 37367, Note_on_c, 0, 53, 0
4, 37368, Note_on_c, 0, 55, 64
4, 37391, Note_on_c, 0, 55, 0
4, 37392, Note_on_c, 0, 51, 64
4, 37415, Note_on_c, 0, 51, 0
4, 37416, Note_on_c, 0, 53, 64
4, 37439, Note_on_c, 0, 53, 0
4, 37440, Note_on_c, 0, 55, 64
4, 37485, Note_on_c, 0, 55, 0
4, 37488, Note_on_c, 0, 53, 64
4, 37533, Note_on_c, 0, 53, 0
4, 37536, Note_on_c, 0, 50, 64
4, 37581, Note_on_c, 0, 50, 0
4, 37584, Note_on_c, 0, 53, 64
4, 37629, Note_on_c, 0, 53, 0
4, 37632, Note_on_c, 0, 55, 64
4, 37677, Note_on_c, 0, 55, 0
4, 37680, Note_on_c, 0, 59, 64
4, 37725, Note_on_c, 0, 59, 0
4, 37728, Note_on_c, 0, 55, 64
4, 37773, Note_on_c, 0, 55, 0
4, 37776, Note_on_c, 0, 59, 64
4, 37821, Note_on_c, 0, 59, 0
4, 37824, Note_on_c, 0, 62, 64
4, 37847, Note_on_c, 0, 62, 0
4, 37848, Note_on_c, 0, 63, 64
4, 37871, Note_on_c, 0, 63, 0
4, 37872, Note_on_c, 0, 65, 64
4, 37895, Note_on_c, 0, 65, 0
4, 37896, Note_on_c, 0, 63, 64
4, 37919, Note_on_c, 0, 63, 0
4, 37920, Note_on_c, 0, 62, 64
4, 37943, Note_on_c, 0, 62, 0
4, 37944, Note_on_c, 0, 60, 64
4, 37967, Note_on_c, 0, 60, 0
4, 37968, Note_on_c, 0, 59, 64
4, 37991, Note_on_c, 0, 59, 0
4, 37992, Note_on_c, 0, 60, 64
4, 38015, Note_on_c, 0, 60, 0
4, 38016, Note_on_c, 0, 48, 64
4, 38193, Note_on_c, 0, 48, 0
4, 38208, Note_on_c, 0, 50, 64
4, 38385, Note_on_c, 0, 50, 0
4, 38400, Note_on_c, 0, 51, 64
4, 38445, Note_on_c, 0, 51, 0
4, 38448, Note_on_c, 0, 50, 64
4, 38471, Note_on_c, 0, 50, 0
4, 38472, Note_on_c, 0, 48, 64
4, 38495, Note_on_c, 0, 48, 0
4, 38496, Note_on_c, 0, 47, 64
4, 38541, Note_on_c, 0, 47, 0
4, 38544, Note_on_c, 0, 50, 64
4, 38589, Note_on_c, 0, 50, 0
4, 38592, Note_on_c, 0, 43, 64
4, 38681, Note_on_c, 0, 43, 0
4, 38688, Note_on_c, 0, 55, 64
4, 38829, Note_on_c, 0, 55, 0
4, 38832, Note_on_c, 0, 53, 64
4, 38855, Note_on_c, 0, 53, 0
4, 38856, Note_on_c, 0, 51, 64
4, 38879, Note_on_c, 0, 51, 0
4, 38880, Note_on_c, 0, 50, 64
4, 38925, Note_on_c, 0, 50, 0
4, 38928, Note_on_c, 0, 53, 64
4, 38973, Note_on_c, 0, 53, 0
4, 38976, Note_on_c, 0, 47, 64
4, 39021, Note_on_c, 0, 47, 0
4, 39024, Note_on_c, 0, 43, 64
4, 39069, Note_on_c, 0, 43, 0
4, 39072, Note_on_c, 0, 48, 64
4, 39117, Note_on_c, 0, 48, 0
4, 39120, Note_on_c, 0, 51, 64
4, 39165, Note_on_c, 0, 51, 0
4, 39168, Note_on_c, 0, 56, 64
4, 39213, Note_on_c, 0, 56, 0
4, 39216, Note_on_c, 0, 53, 64
4, 39261, Note_on_c, 0, 53, 0
4, 39264, Note_on_c, 0, 55, 64
4, 39309, Note_on_c, 0, 55, 0
4, 39312, Note_on_c, 0, 43, 64
4, 39357, Note_on_c, 0, 43, 0
4, 39360, Note_on_c, 0, 48, 64
4, 39405, Note_on_c, 0, 48, 0
4, 39408, Note_on_c, 0, 60, 64
4, 39453, Note_on_c, 0, 60, 0
4, 39456, Note_on_c, 0, 59, 64
4, 39501, Note_on_c, 0, 59, 0
4, 39504, Note_on_c, 0, 55, 64
4, 39549, Note_on_c, 0, 55, 0
4, 39552, Note_on_c, 0, 60, 64
4, 39597, Note_on_c, 0, 60, 0
4, 39600, Note_on_c, 0, 48, 64
4, 39645, Note_on_c, 0, 48, 0
4, 39648, Note_on_c, 0, 47, 64
4, 39693, Note_on_c, 0, 47, 0
4, 39696, Note_on_c, 0, 43, 64
4, 39741, Note_on_c, 0, 43, 0
4, 39744, Note_on_c, 0, 48, 64
4, 39767, Note_on_c, 0, 48, 0
4, 39768, Note_on_c, 0, 50, 64
4, 39791, Note_on_c, 0, 50, 0
4, 39792, Note_on_c, 0, 48, 64
4, 39815, Note_on_c, 0, 48, 0
4, 39816, Note_on_c, 0, 46, 64
4, 39839, Note_on_c, 0, 46, 0
4, 39840, Note_on_c, 0, 44, 64
4, 39863, Note_on_c, 0, 44, 0
4, 39864, Note_on_c, 0, 46, 64
4, 39887, Note_on_c, 0, 46, 0
4, 39888, Note_on_c, 0, 43, 64
4, 39911, Note_on_c, 0, 43, 0
4, 39912, Note_on_c, 0, 44, 64
4, 39935, Note_on_c, 0, 44, 0
4, 39936, Note_on_c, 0, 46, 64
4, 39959, Note_on_c, 0, 46, 0
4, 39960, Note_on_c, 0, 48, 64
4, 39983, Note_on_c, 0, 48, 0
4, 39984, Note_on_c, 0, 46, 64
4, 40007, Note_on_c, 0, 46, 0
4, 40008, Note_on_c, 0, 44, 64
4, 40031, Note_on_c, 0, 44, 0
4, 40032, Note_on_c, 0, 43, 64
4, 40055, Note_on_c, 0, 43, 0
4, 40056, Note_on_c, 0, 44, 64
4, 40079, Note_on_c, 0, 44, 0
4, 40080, Note_on_c, 0, 41, 64
4, 40103, Note_on_c, 0, 41, 0
4, 40104, Note_on_c, 0, 43, 64
4, 40127, Note_on_c, 0, 43, 0
4, 40128, Note_on_c, 0, 44, 64
4, 40151, Note_on_c, 0, 44, 0
4, 40152, Note_on_c, 0, 46, 64
4, 40175, Note_on_c, 0, 46, 0
4, 40176, Note_on_c, 0, 44, 64
4, 40199, Note_on_c, 0, 44, 0
4, 40200, Note_on_c, 0, 43, 64
4, 40223, Note_on_c, 0, 43, 0
4, 40224, Note_on_c, 0, 41, 64
4, 40247, Note_on_c, 0, 41, 0
4, 40248, Note_on_c, 0, 43, 64
4, 40271, Note_on_c, 0, 43, 0
4, 40272, Note_on_c, 0, 39, 64
4, 40295, Note_on_c, 0, 39, 0
4, 40296, Note_on_c, 0, 41, 64
4, 40319, Note_on_c, 0, 41, 0
4, 40320, Note_on_c, 0, 43, 64
4, 40343, Note_on_c, 0, 43, 0
4, 40344, Note_on_c, 0, 44, 64
4, 40367, Note_on_c, 0, 44, 0
4, 40368, Note_on_c, 0, 43, 64
4, 40391, Note_on_c, 0, 43, 0
4, 40392, Note_on_c, 0, 41, 64
4, 40415, Note_on_c, 0, 41, 0
4, 40416, Note_on_c, 0, 39, 64
4, 40439, Note_on_c, 0, 39, 0
4, 40440, Note_on_c, 0, 41, 64
4, 40463, Note_on_c, 0, 41, 0
4, 40464, Note_on_c, 0, 38, 64
4, 40487, Note_on_c, 0, 38, 0
4, 40488, Note_on_c, 0, 39, 64
4, 40511, Note_on_c, 0, 39, 0
4, 40512, Note_on_c, 0, 41, 64
4, 40535, Note_on_c, 0, 41, 0
4, 40536, Note_on_c, 0, 43, 64
4, 40559, Note_on_c, 0, 43, 0
4, 40560, Note_on_c, 0, 41, 64
4, 40583, Note_on_c, 0, 41, 0
4, 40584, Note_on_c, 0, 39, 64
4, 40607, Note_on_c, 0, 39, 0
4, 40608, Note_on_c, 0, 38, 64
4, 40631, Note_on_c, 0, 38, 0
4, 40632, Note_on_c, 0, 39, 64
4, 40655, Note_on_c, 0, 39, 0
4, 40656, Note_on_c, 0, 36, 64
4, 40679, Note_on_c, 0, 36, 0
4, 40680, Note_on_c, 0, 38, 64
4, 40703, Note_on_c, 0, 38, 0
4, 40704, Note_on_c, 0, 39, 64
4, 40749, Note_on_c, 0, 39, 0
4, 40752, Note_on_c, 0, 51, 64
4, 40797, Note_on_c, 0, 51, 0
4, 40800, Note_on_c, 0, 50, 64
4, 40845, Note_on_c, 0, 50, 0
4, 40848, Note_on_c, 0, 46, 64
4, 40893, Note_on_c, 0, 46, 0
4, 40896, Note_on_c, 0, 39, 64
4, 40941, Note_on_c, 0, 39, 0
4, 40944, Note_on_c, 0, 51, 64
4, 40989, Note_on_c, 0, 51, 0
4, 40992, Note_on_c, 0, 50, 64
4, 41037, Note_on_c, 0, 50, 0
4, 41040, Note_on_c, 0, 46, 64
4, 41085, Note_on_c, 0, 46, 0
4, 41088, Note_on_c, 0, 39, 64
4, 41133, Note_on_c, 0, 39, 0
4, 41136, Note_on_c, 0, 51, 64
4, 41181, Note_on_c, 0, 51, 0
4, 41184, Note_on_c, 0, 55, 64
4, 41229, Note_on_c, 0, 55, 0
4, 41232, Note_on_c, 0, 51, 64
4, 41277, Note_on_c, 0, 51, 0
4, 41280, Note_on_c, 0, 56, 64
4, 41325, Note_on_c, 0, 56, 0
4, 41328, Note_on_c, 0, 55, 64
4, 41373, Note_on_c, 0, 55, 0
4, 41376, Note_on_c, 0, 53, 64
4, 41421, Note_on_c, 0, 53, 0
4, 41424, Note_on_c, 0, 56, 64
4, 41469, Note_on_c, 0, 56, 0
4, 41472, Note_on_c, 0, 49, 64
4, 41517, Note_on_c, 0, 49, 0
4, 41520, Note_on_c, 0, 48, 64
4, 41565, Note_on_c, 0, 48, 0
4, 41568, Note_on_c, 0, 46, 64
4, 41613, Note_on_c, 0, 46, 0
4, 41616, Note_on_c, 0, 49, 64
4, 41661, Note_on_c, 0, 49, 0
4, 41664, Note_on_c, 0, 43, 64
4, 41709, Note_on_c, 0, 43, 0
4, 41712, Note_on_c, 0, 44, 64
4, 41757, Note_on_c, 0, 44, 0
4, 41760, Note_on_c, 0, 46, 64
4, 41879, Note_on_c, 0, 46, 0
4, 41880, Note_on_c, 0, 44, 64
4, 41903, Note_on_c, 0, 44, 0
4, 41904, Note_on_c, 0, 43, 64
4, 41927, Note_on_c, 0, 43, 0
4, 41928, Note_on_c, 0, 44, 64
4, 41951, Note_on_c, 0, 44, 0
4, 41952, Note_on_c, 0, 46, 64
4, 41975, Note_on_c, 0, 46, 0
4, 41976, Note_on_c, 0, 44, 64
4, 41999, Note_on_c, 0, 44, 0
4, 42000, Note_on_c, 0, 43, 64
4, 42023, Note_on_c, 0, 43, 0
4, 42024, Note_on_c, 0, 41, 64
4, 42047, Note_on_c, 0, 41, 0
4, 42048, Note_on_c, 0, 40, 64
4, 42093, Note_on_c, 0, 40, 0
4, 42096, Note_on_c, 0, 49, 64
4, 42185, Note_on_c, 0, 49, 0
4, 42192, Note_on_c, 0, 48, 64
4, 42237, Note_on_c, 0, 48, 0
4, 42240, Note_on_c, 0, 46, 64
4, 42263, Note_on_c, 0, 46, 0
4, 42264, Note_on_c, 0, 44, 64
4, 42287, Note_on_c, 0, 44, 0
4, 42288, Note_on_c, 0, 43, 64
4, 42311, Note_on_c, 0, 43, 0
4, 42312, Note_on_c, 0, 44, 64
4, 42335, Note_on_c, 0, 44, 0
4, 42336, Note_on_c, 0, 46, 64
4, 42359, Note_on_c, 0, 46, 0
4, 42360, Note_on_c, 0, 44, 64
4, 42383, Note_on_c, 0, 44, 0
4, 42384, Note_on_c, 0, 43, 64
4, 42407, Note_on_c, 0, 43, 0
4, 42408, Note_on_c, 0, 41, 64
4, 42431, Note_on_c, 0, 41, 0
4, 42432, Note_on_c, 0, 52, 64
4, 42477, Note_on_c, 0, 52, 0
4, 42480, Note_on_c, 0, 53, 64
4, 42525, Note_on_c, 0, 53, 0
4, 42576, Note_on_c, 0, 51, 64
4, 42621, Note_on_c, 0, 51, 0
4, 42624, Note_on_c, 0, 49, 64
4, 42669, Note_on_c, 0, 49, 0
4, 42672, Note_on_c, 0, 48, 64
4, 42717, Note_on_c, 0, 48, 0
4, 42720, Note_on_c, 0, 49, 64
4, 42765, Note_on_c, 0, 49, 0
4, 42768, Note_on_c, 0, 46, 64
4, 42813, Note_on_c, 0, 46, 0
4, 42816, Note_on_c, 0, 52, 64
4, 42839, Note_on_c, 0, 52, 0
4, 42840, Note_on_c, 0, 48, 64
4, 42863, Note_on_c, 0, 48, 0
4, 42864, Note_on_c, 0, 52, 64
4, 42887, Note_on_c, 0, 52, 0
4, 42888, Note_on_c, 0, 55, 64
4, 42911, Note_on_c, 0, 55, 0
4, 42912, Note_on_c, 0, 60, 64
4, 42935, Note_on_c, 0, 60, 0
4, 42936, Note_on_c, 0, 56, 64
4, 42959, Note_on_c, 0, 56, 0
4, 42960, Note_on_c, 0, 58, 64
4, 42983, Note_on_c, 0, 58, 0
4, 42984, Note_on_c, 0, 55, 64
4, 43007, Note_on_c, 0, 55, 0
4, 43008, Note_on_c, 0, 53, 64
4, 43097, Note_on_c, 0, 53, 0
4, 43104, Note_on_c, 0, 55, 64
4, 43193, Note_on_c, 0, 55, 0
4, 43200, Note_on_c, 0, 56, 64
4, 43245, Note_on_c, 0, 56, 0
4, 43248, Note_on_c, 0, 53, 64
4, 43271, Note_on_c, 0, 53, 0
4, 43272, Note_on_c, 0, 55, 64
4, 43295, Note_on_c, 0, 55, 0
4, 43296, Note_on_c, 0, 56, 64
4, 43341, Note_on_c, 0, 56, 0
4, 43344, Note_on_c, 0, 58, 64
4, 43367, Note_on_c, 0, 58, 0
4, 43368, Note_on_c, 0, 60, 64
4, 43391, Note_on_c, 0, 60, 0
4, 43392, Note_on_c, 0, 61, 64
4, 43415, Note_on_c, 0, 61, 0
4, 43416, Note_on_c, 0, 63, 64
4, 43439, Note_on_c, 0, 63, 0
4, 43440, Note_on_c, 0, 61, 64
4, 43463, Note_on_c, 0, 61, 0
4, 43464, Note_on_c, 0, 60, 64
4, 43487, Note_on_c, 0, 60, 0
4, 43488, Note_on_c, 0, 58, 64
4, 43511, Note_on_c, 0, 58, 0
4, 43512, Note_on_c, 0, 60, 64
4, 43535, Note_on_c, 0, 60, 0
4, 43536, Note_on_c, 0, 56, 64
4, 43559, Note_on_c, 0, 56, 0
4, 43560, Note_on_c, 0, 58, 64
4, 43583, Note_on_c, 0, 58, 0
4, 43584, Note_on_c, 0, 60, 64
4, 43607, Note_on_c, 0, 60, 0
4, 43608, Note_on_c, 0, 61, 64
4, 43631, Note_on_c, 0, 61, 0
4, 43632, Note_on_c, 0, 60, 64
4, 43655, Note_on_c, 0, 60, 0
4, 43656, Note_on_c, 0, 58, 64
4, 43679, Note_on_c, 0, 58, 0
4, 43680, Note_on_c, 0, 56, 64
4, 43703, Note_on_c, 0, 56, 0
4, 43704, Note_on_c, 0, 58, 64
4, 43727, Note_on_c, 0, 58, 0
4, 43728, Note_on_c, 0, 55, 64
4, 43751, Note_on_c, 0, 55, 0
4, 43752, Note_on_c, 0, 56, 64
4, 43775, Note_on_c, 0, 56, 0
4, 43776, Note_on_c, 0, 58, 64
4, 43799, Note_on_c, 0, 58, 0
4, 43800, Note_on_c, 0, 60, 64
4, 43823, Note_on_c, 0, 60, 0
4, 43824, Note_on_c, 0, 58, 64
4, 43847, Note_on_c, 0, 58, 0
4, 43848, Note_on_c, 0, 56, 64
4, 43871, Note_on_c, 0, 56, 0
4, 43872, Note_on_c, 0, 55, 64
4, 43895, Note_on_c, 0, 55, 0
4, 43896, Note_on_c, 0, 56, 64
4, 43919, Note_on_c, 0, 56, 0
4, 43920, Note_on_c, 0, 53, 64
4, 43943, Note_on_c, 0, 53, 0
4, 43944, Note_on_c, 0, 55, 64
4, 43967, Note_on_c, 0, 55, 0
4, 43968, Note_on_c, 0, 56, 64
4, 43991, Note_on_c, 0, 56, 0
4, 43992, Note_on_c, 0, 58, 64
4, 44015, Note_on_c, 0, 58, 0
4, 44016, Note_on_c, 0, 56, 64
4, 44039, Note_on_c, 0, 56, 0
4, 44040, Note_on_c, 0, 55, 64
4, 44063, Note_on_c, 0, 55, 0
4, 44064, Note_on_c, 0, 53, 64
4, 44087, Note_on_c, 0, 53, 0
4, 44088, Note_on_c, 0, 55, 64
4, 44111, Note_on_c, 0, 55, 0
4, 44112, Note_on_c, 0, 51, 64
4, 44135, Note_on_c, 0, 51, 0
4, 44136, Note_on_c, 0, 53, 64
4, 44159, Note_on_c, 0, 53, 0
4, 44160, Note_on_c, 0, 55, 64
4, 44183, Note_on_c, 0, 55, 0
4, 44184, Note_on_c, 0, 56, 64
4, 44207, Note_on_c, 0, 56, 0
4, 44208, Note_on_c, 0, 55, 64
4, 44231, Note_on_c, 0, 55, 0
4, 44232, Note_on_c, 0, 53, 64
4, 44255, Note_on_c, 0, 53, 0
4, 44256, Note_on_c, 0, 51, 64
4, 44279, Note_on_c, 0, 51, 0
4, 44280, Note_on_c, 0, 53, 64
4, 44303, Note_on_c, 0, 53, 0
4, 44304, Note_on_c, 0, 49, 64
4, 44327, Note_on_c, 0, 49, 0
4, 44328, Note_on_c, 0, 51, 64
4, 44351, Note_on_c, 0, 51, 0
4, 44352, Note_on_c, 0, 53, 64
4, 44375, Note_on_c, 0, 53, 0
4, 44376, Note_on_c, 0, 55, 64
4, 44399, Note_on_c, 0, 55, 0
4, 44400, Note_on_c, 0, 53, 64
4, 44423, Note_on_c, 0, 53, 0
4, 44424, Note_on_c, 0, 51, 64
4, 44447, Note_on_c, 0, 51, 0
4, 44448, Note_on_c, 0, 49, 64
4, 44471, Note_on_c, 0, 49, 0
4, 44472, Note_on_c, 0, 51, 64
4, 44495, Note_on_c, 0, 51, 0
4, 44496, Note_on_c, 0, 48, 64
4, 44519, Note_on_c, 0, 48, 0
4, 44520, Note_on_c, 0, 49, 64
4, 44543, Note_on_c, 0, 49, 0
4, 44544, Note_on_c, 0, 51, 64
4, 44567, Note_on_c, 0, 51, 0
4, 44568, Note_on_c, 0, 53, 64
4, 44591, Note_on_c, 0, 53, 0
4, 44592, Note_on_c, 0, 51, 64
4, 44615, Note_on_c, 0, 51, 0
4, 44616, Note_on_c, 0, 49, 64
4, 44639, Note_on_c, 0, 49, 0
4, 44640, Note_on_c, 0, 48, 64
4, 44663, Note_on_c, 0, 48, 0
4, 44664, Note_on_c, 0, 49, 64
4, 44687, Note_on_c, 0, 49, 0
4, 44688, Note_on_c, 0, 46, 64
4, 44711, Note_on_c, 0, 46, 0
4, 44712, Note_on_c, 0, 48, 64
4, 44735, Note_on_c, 0, 48, 0
4, 44736, Note_on_c, 0, 49, 64
4, 44759, Note_on_c, 0, 49, 0
4, 44760, Note_on_c, 0, 51, 64
4, 44783, Note_on_c, 0, 51, 0
4, 44784, Note_on_c, 0, 49, 64
4, 44807, Note_on_c, 0, 49, 0
4, 44808, Note_on_c, 0, 48, 64
4, 44831, Note_on_c, 0, 48, 0
4, 44832, Note_on_c, 0, 46, 64
4, 44855, Note_on_c, 0, 46, 0
4, 44856, Note_on_c, 0, 48, 64
4, 44879, Note_on_c, 0, 48, 0
4, 44880, Note_on_c, 0, 44, 64
4, 44903, Note_on_c, 0, 44, 0
4, 44904, Note_on_c, 0, 46, 64
4, 44927, Note_on_c, 0, 46, 0
4, 44928, Note_on_c, 0, 48, 64
4, 44951, Note_on_c, 0, 48, 0
4, 44952, Note_on_c, 0, 49, 64
4, 44975, Note_on_c, 0, 49, 0
4, 44976, Note_on_c, 0, 48, 64
4, 44999, Note_on_c, 0, 48, 0
4, 45000, Note_on_c, 0, 46, 64
4, 45023, Note_on_c, 0, 46, 0
4, 45024, Note_on_c, 0, 44, 64
4, 45047, Note_on_c, 0, 44, 0
4, 45048, Note_on_c, 0, 43, 64
4, 45071, Note_on_c, 0, 43, 0
4, 45072, Note_on_c, 0, 41, 64
4, 45095, Note_on_c, 0, 41, 0
4, 45096, Note_on_c, 0, 40, 64
4, 45119, Note_on_c, 0, 40, 0
4, 45120, Note_on_c, 0, 41, 64
4, 45143, Note_on_c, 0, 41, 0
4, 45144, Note_on_c, 0, 43, 64
4, 45167, Note_on_c, 0, 43, 0
4, 45168, Note_on_c, 0, 44, 64
4, 45191, Note_on_c, 0, 44, 0
4, 45192, Note_on_c, 0, 46, 64
4, 45215, Note_on_c, 0, 46, 0
4, 45216, Note_on_c, 0, 48, 64
4, 45239, Note_on_c, 0, 48, 0
4, 45240, Note_on_c, 0, 49, 64
4, 45263, Note_on_c, 0, 49, 0
4, 45264, Note_on_c, 0, 46, 64
4, 45287, Note_on_c, 0, 46, 0
4, 45288, Note_on_c, 0, 48, 64
4, 45311, Note_on_c, 0, 48, 0
4, 45312, Note_on_c, 0, 49, 64
4, 45335, Note_on_c, 0, 49, 0
4, 45336, Note_on_c, 0, 51, 64
4, 45359, Note_on_c, 0, 51, 0
4, 45360, Note_on_c, 0, 49, 64
4, 45383, Note_on_c, 0, 49, 0
4, 45384, Note_on_c, 0, 48, 64
4, 45407, Note_on_c, 0, 48, 0
4, 45408, Note_on_c, 0, 46, 64
4, 45431, Note_on_c, 0, 46, 0
4, 45432, Note_on_c, 0, 48, 64
4, 45455, Note_on_c, 0, 48, 0
4, 45456, Note_on_c, 0, 44, 64
4, 45479, Note_on_c, 0, 44, 0
4, 45480, Note_on_c, 0, 46, 64
4, 45503, Note_on_c, 0, 46, 0
4, 45504, Note_on_c, 0, 48, 64
4, 45527, Note_on_c, 0, 48, 0
4, 45528, Note_on_c, 0, 49, 64
4, 45551, Note_on_c, 0, 49, 0
4, 45552, Note_on_c, 0, 48, 64
4, 45575, Note_on_c, 0, 48, 0
4, 45576, Note_on_c, 0, 46, 64
4, 45599, Note_on_c, 0, 46, 0
4, 45600, Note_on_c, 0, 44, 64
4, 45623, Note_on_c, 0, 44, 0
4, 45624, Note_on_c, 0, 43, 64
4, 45647, Note_on_c, 0, 43, 0
4, 45648, Note_on_c, 0, 41, 64
4, 45671, Note_on_c, 0, 41, 0
4, 45672, Note_on_c, 0, 40, 64
4, 45695, Note_on_c, 0, 40, 0
4, 45696, Note_on_c, 0, 41, 64
4, 45741, Note_on_c, 0, 41, 0
4, 45744, Note_on_c, 0, 53, 64
4, 45767, Note_on_c, 0, 53, 0
4, 45768, Note_on_c, 0, 46, 64
4, 45791, Note_on_c, 0, 46, 0
4, 45792, Note_on_c, 0, 48, 64
4, 45837, Note_on_c, 0, 48, 0
4, 45840, Note_on_c, 0, 36, 64
4, 45885, Note_on_c, 0, 36, 0
4, 45888, Note_on_c, 0, 41, 64
4, 46065, Note_on_c, 0, 41, 0
4, 46065, End_track
5, 0, Start_track
5, 0, MIDI_port, 0
5, 0, Title_t, "Sonata No. 5 en Fa menor"
5, 0, End_track
6, 0, Start_track
6, 0, MIDI_port, 0
6, 0, Title_t, "Para violin y clavicembalo"
6, 0, End_track
7, 0, Start_track
7, 0, MIDI_port, 0
7, 0, Title_t, "J. S. Bach (1685-1750)"
7, 0, End_track
8, 0, Start_track
8, 0, MIDI_port, 0
8, 0, Title_t, "Segundo Movimiento: Allegro"
8, 0, End_track
9, 0, Start_track
9, 0, MIDI_port, 0
9, 0, Title_t, "Copyright Luis Gerardo Barajas"
9, 0, End_track
10, 0, Start_track
10, 0, MIDI_port, 0
10, 0, Title_t, "***Bach Keeps RuLiNg!!!"
10, 0, End_track
11, 0, Start_track
11, 0, MIDI_port, 0
11, 0, End_track
0, 0, End_of_file
