0, 0, Header, 1, 10, 96
1, 0, Start_track
1, 0, Sequencer_specific, 3, 0, 0, 65
1, 0, Time_signature, 4, 2, 24, 8
1, 0, Key_signature, 2, "major"
1, 0, Tempo, 1200000
1, 7293, Tempo, 1250000
1, 7309, Tempo, 1200000
1, 7357, Tempo, 1224490
1, 7405, Tempo, 1250000
1, 7453, Tempo, 1276596
1, 7501, Tempo, 1304348
1, 7549, Tempo, 1333333
1, 7589, Tempo, 1363636
1, 7637, Tempo, 1395349
1, 7685, Tempo, 1428571
1, 7733, Tempo, 1463415
1, 7781, Tempo, 1500000
1, 7829, Tempo, 1538462
1, 7869, Tempo, 1578947
1, 7885, Tempo, 652174
1, 7885, End_track
2, 0, Start_track
2, 0, MIDI_port, 0
2, 0, Title_t, "Violin"
2, 0, Program_c, 1, 40
2, 0, Control_c, 1, 7, 127
2, 384, Note_on_c, 1, 71, 64
2, 407, Note_on_c, 1, 71, 0
2, 408, Note_on_c, 1, 78, 64
2, 453, Note_on_c, 1, 78, 0
2, 456, Note_on_c, 1, 77, 64
2, 479, Note_on_c, 1, 77, 0
2, 480, Note_on_c, 1, 78, 64
2, 492, Note_on_c, 1, 78, 0
2, 492, Note_on_c, 1, 80, 64
2, 504, Note_on_c, 1, 80, 0
2, 504, Note_on_c, 1, 81, 64
2, 549, Note_on_c, 1, 81, 0
2, 552, Note_on_c, 1, 80, 64
2, 564, Note_on_c, 1, 80, 0
2, 564, Note_on_c, 1, 78, 64
2, 576, Note_on_c, 1, 78, 0
2, 576, Note_on_c, 1, 77, 64
2, 588, Note_on_c, 1, 77, 0
2, 588, Note_on_c, 1, 78, 64
2, 600, Note_on_c, 1, 78, 0
2, 600, Note_on_c, 1, 80, 64
2, 636, Note_on_c, 1, 80, 0
2, 636, Note_on_c, 1, 81, 64
2, 648, Note_on_c, 1, 81, 0
2, 648, Note_on_c, 1, 83, 64
2, 684, Note_on_c, 1, 83, 0
2, 684, Note_on_c, 1, 86, 64
2, 696, Note_on_c, 1, 86, 0
2, 696, Note_on_c, 1, 85, 64
2, 708, Note_on_c, 1, 85, 0
2, 708, Note_on_c, 1, 83, 64
2, 720, Note_on_c, 1, 83, 0
2, 720, Note_on_c, 1, 81, 64
2, 743, Note_on_c, 1, 81, 0
2, 744, Note_on_c, 1, 80, 64
2, 767, Note_on_c, 1, 80, 0
2, 768, Note_on_c, 1, 81, 64
2, 792, Note_on_c, 1, 81, 0
2, 792, Note_on_c, 1, 78, 64
2, 815, Note_on_c, 1, 78, 0
2, 816, Note_on_c, 1, 75, 64
2, 840, Note_on_c, 1, 75, 0
2, 840, Note_on_c, 1, 72, 64
2, 863, Note_on_c, 1, 72, 0
2, 864, Note_on_c, 1, 71, 64
2, 888, Note_on_c, 1, 71, 0
2, 888, Note_on_c, 1, 64, 64
2, 911, Note_on_c, 1, 64, 0
2, 912, Note_on_c, 1, 63, 64
2, 918, Note_on_c, 1, 63, 0
2, 918, Note_on_c, 1, 64, 64
2, 924, Note_on_c, 1, 64, 0
2, 924, Note_on_c, 1, 63, 64
2, 930, Note_on_c, 1, 63, 0
2, 930, Note_on_c, 1, 64, 64
2, 936, Note_on_c, 1, 64, 0
2, 936, Note_on_c, 1, 63, 64
2, 942, Note_on_c, 1, 63, 0
2, 942, Note_on_c, 1, 64, 64
2, 948, Note_on_c, 1, 64, 0
2, 948, Note_on_c, 1, 63, 64
2, 954, Note_on_c, 1, 63, 0
2, 954, Note_on_c, 1, 64, 64
2, 960, Note_on_c, 1, 64, 0
2, 1008, Note_on_c, 1, 79, 64
2, 1079, Note_on_c, 1, 79, 0
2, 1080, Note_on_c, 1, 78, 64
2, 1103, Note_on_c, 1, 78, 0
2, 1104, Note_on_c, 1, 78, 64
2, 1128, Note_on_c, 1, 78, 0
2, 1128, Note_on_c, 1, 76, 64
2, 1151, Note_on_c, 1, 76, 0
2, 1152, Note_on_c, 1, 78, 64
2, 1176, Note_on_c, 1, 78, 0
2, 1176, Note_on_c, 1, 74, 64
2, 1199, Note_on_c, 1, 74, 0
2, 1200, Note_on_c, 1, 76, 64
2, 1224, Note_on_c, 1, 76, 0
2, 1224, Note_on_c, 1, 73, 64
2, 1247, Note_on_c, 1, 73, 0
2, 1248, Note_on_c, 1, 74, 64
2, 1272, Note_on_c, 1, 74, 0
2, 1272, Note_on_c, 1, 71, 64
2, 1295, Note_on_c, 1, 71, 0
2, 1296, Note_on_c, 1, 66, 64
2, 1320, Note_on_c, 1, 66, 0
2, 1320, Note_on_c, 1, 74, 64
2, 1343, Note_on_c, 1, 74, 0
2, 1344, Note_on_c, 1, 73, 64
2, 1368, Note_on_c, 1, 73, 0
2, 1368, Note_on_c, 1, 76, 64
2, 1391, Note_on_c, 1, 76, 0
2, 1392, Note_on_c, 1, 79, 64
2, 1416, Note_on_c, 1, 79, 0
2, 1416, Note_on_c, 1, 71, 64
2, 1439, Note_on_c, 1, 71, 0
2, 1440, Note_on_c, 1, 70, 64
2, 1446, Note_on_c, 1, 70, 0
2, 1446, Note_on_c, 1, 71, 64
2, 1452, Note_on_c, 1, 71, 0
2, 1452, Note_on_c, 1, 70, 64
2, 1458, Note_on_c, 1, 70, 0
2, 1458, Note_on_c, 1, 71, 64
2, 1464, Note_on_c, 1, 71, 0
2, 1464, Note_on_c, 1, 70, 64
2, 1470, Note_on_c, 1, 70, 0
2, 1470, Note_on_c, 1, 71, 64
2, 1476, Note_on_c, 1, 71, 0
2, 1476, Note_on_c, 1, 70, 64
2, 1482, Note_on_c, 1, 70, 0
2, 1482, Note_on_c, 1, 71, 64
2, 1488, Note_on_c, 1, 71, 0
2, 1488, Note_on_c, 1, 70, 64
2, 1494, Note_on_c, 1, 70, 0
2, 1494, Note_on_c, 1, 71, 64
2, 1500, Note_on_c, 1, 71, 0
2, 1500, Note_on_c, 1, 70, 64
2, 1506, Note_on_c, 1, 70, 0
2, 1506, Note_on_c, 1, 71, 64
2, 1512, Note_on_c, 1, 71, 0
2, 1512, Note_on_c, 1, 70, 64
2, 1518, Note_on_c, 1, 70, 0
2, 1518, Note_on_c, 1, 71, 64
2, 1524, Note_on_c, 1, 71, 0
2, 1524, Note_on_c, 1, 70, 64
2, 1530, Note_on_c, 1, 70, 0
2, 1530, Note_on_c, 1, 71, 64
2, 1536, Note_on_c, 1, 71, 0
2, 1536, Note_on_c, 1, 71, 64
2, 1581, Note_on_c, 1, 71, 0
2, 1872, Note_on_c, 1, 85, 64
2, 1917, Note_on_c, 1, 85, 0
2, 1920, Note_on_c, 1, 78, 64
2, 1943, Note_on_c, 1, 78, 0
2, 1944, Note_on_c, 1, 82, 64
2, 1992, Note_on_c, 1, 82, 0
2, 1992, Note_on_c, 1, 83, 64
2, 2015, Note_on_c, 1, 83, 0
2, 2016, Note_on_c, 1, 76, 64
2, 2039, Note_on_c, 1, 76, 0
2, 2040, Note_on_c, 1, 80, 64
2, 2088, Note_on_c, 1, 80, 0
2, 2088, Note_on_c, 1, 81, 64
2, 2111, Note_on_c, 1, 81, 0
2, 2112, Note_on_c, 1, 74, 64
2, 2135, Note_on_c, 1, 74, 0
2, 2136, Note_on_c, 1, 78, 64
2, 2184, Note_on_c, 1, 78, 0
2, 2184, Note_on_c, 1, 79, 64
2, 2207, Note_on_c, 1, 79, 0
2, 2208, Note_on_c, 1, 72, 64
2, 2231, Note_on_c, 1, 72, 0
2, 2232, Note_on_c, 1, 79, 64
2, 2277, Note_on_c, 1, 79, 0
2, 2280, Note_on_c, 1, 78, 64
2, 2292, Note_on_c, 1, 78, 0
2, 2292, Note_on_c, 1, 76, 64
2, 2304, Note_on_c, 1, 76, 0
2, 2304, Note_on_c, 1, 75, 64
2, 2316, Note_on_c, 1, 75, 0
2, 2316, Note_on_c, 1, 73, 64
2, 2328, Note_on_c, 1, 73, 0
2, 2328, Note_on_c, 1, 71, 64
2, 2351, Note_on_c, 1, 71, 0
2, 2448, Note_on_c, 1, 71, 64
2, 2493, Note_on_c, 1, 71, 0
2, 2496, Note_on_c, 1, 78, 64
2, 2541, Note_on_c, 1, 78, 0
2, 2544, Note_on_c, 1, 81, 64
2, 2589, Note_on_c, 1, 81, 0
2, 2640, Note_on_c, 1, 75, 64
2, 2685, Note_on_c, 1, 75, 0
2, 2688, Note_on_c, 1, 76, 64
2, 2733, Note_on_c, 1, 76, 0
2, 2736, Note_on_c, 1, 71, 64
2, 2781, Note_on_c, 1, 71, 0
2, 2784, Note_on_c, 1, 72, 64
2, 2807, Note_on_c, 1, 72, 0
2, 2808, Note_on_c, 1, 69, 64
2, 2853, Note_on_c, 1, 69, 0
2, 2856, Note_on_c, 1, 67, 64
2, 2868, Note_on_c, 1, 67, 0
2, 2868, Note_on_c, 1, 66, 64
2, 2880, Note_on_c, 1, 66, 0
2, 2880, Note_on_c, 1, 71, 64
2, 2903, Note_on_c, 1, 71, 0
2, 2904, Note_on_c, 1, 67, 64
2, 2949, Note_on_c, 1, 67, 0
2, 2952, Note_on_c, 1, 66, 64
2, 2964, Note_on_c, 1, 66, 0
2, 2964, Note_on_c, 1, 64, 64
2, 2976, Note_on_c, 1, 64, 0
2, 2976, Note_on_c, 1, 69, 64
2, 3021, Note_on_c, 1, 69, 0
2, 3024, Note_on_c, 1, 66, 64
2, 3069, Note_on_c, 1, 66, 0
2, 3072, Note_on_c, 1, 59, 64
2, 3095, Note_on_c, 1, 59, 0
2, 3096, Note_on_c, 1, 76, 64
2, 3144, Note_on_c, 1, 76, 0
2, 3144, Note_on_c, 1, 78, 64
2, 3167, Note_on_c, 1, 78, 0
2, 3168, Note_on_c, 1, 71, 64
2, 3191, Note_on_c, 1, 71, 0
2, 3192, Note_on_c, 1, 75, 64
2, 3240, Note_on_c, 1, 75, 0
2, 3240, Note_on_c, 1, 76, 64
2, 3263, Note_on_c, 1, 76, 0
2, 3264, Note_on_c, 1, 69, 64
2, 3287, Note_on_c, 1, 69, 0
2, 3288, Note_on_c, 1, 73, 64
2, 3336, Note_on_c, 1, 73, 0
2, 3336, Note_on_c, 1, 74, 64
2, 3359, Note_on_c, 1, 74, 0
2, 3360, Note_on_c, 1, 68, 64
2, 3383, Note_on_c, 1, 68, 0
2, 3384, Note_on_c, 1, 74, 64
2, 3429, Note_on_c, 1, 74, 0
2, 3432, Note_on_c, 1, 73, 64
2, 3444, Note_on_c, 1, 73, 0
2, 3444, Note_on_c, 1, 71, 64
2, 3456, Note_on_c, 1, 71, 0
2, 3456, Note_on_c, 1, 69, 64
2, 3468, Note_on_c, 1, 69, 0
2, 3468, Note_on_c, 1, 68, 64
2, 3480, Note_on_c, 1, 68, 0
2, 3480, Note_on_c, 1, 66, 64
2, 3503, Note_on_c, 1, 66, 0
2, 3840, Note_on_c, 1, 69, 64
2, 3863, Note_on_c, 1, 69, 0
2, 3864, Note_on_c, 1, 74, 64
2, 3909, Note_on_c, 1, 74, 0
2, 3912, Note_on_c, 1, 73, 64
2, 3935, Note_on_c, 1, 73, 0
2, 3936, Note_on_c, 1, 74, 64
2, 3948, Note_on_c, 1, 74, 0
2, 3948, Note_on_c, 1, 76, 64
2, 3960, Note_on_c, 1, 76, 0
2, 3960, Note_on_c, 1, 78, 64
2, 4005, Note_on_c, 1, 78, 0
2, 4008, Note_on_c, 1, 76, 64
2, 4020, Note_on_c, 1, 76, 0
2, 4020, Note_on_c, 1, 74, 64
2, 4032, Note_on_c, 1, 74, 0
2, 4032, Note_on_c, 1, 73, 64
2, 4044, Note_on_c, 1, 73, 0
2, 4044, Note_on_c, 1, 74, 64
2, 4056, Note_on_c, 1, 74, 0
2, 4056, Note_on_c, 1, 76, 64
2, 4092, Note_on_c, 1, 76, 0
2, 4092, Note_on_c, 1, 78, 64
2, 4104, Note_on_c, 1, 78, 0
2, 4104, Note_on_c, 1, 79, 64
2, 4140, Note_on_c, 1, 79, 0
2, 4140, Note_on_c, 1, 83, 64
2, 4152, Note_on_c, 1, 83, 0
2, 4152, Note_on_c, 1, 81, 64
2, 4164, Note_on_c, 1, 81, 0
2, 4164, Note_on_c, 1, 79, 64
2, 4176, Note_on_c, 1, 79, 0
2, 4176, Note_on_c, 1, 78, 64
2, 4199, Note_on_c, 1, 78, 0
2, 4200, Note_on_c, 1, 76, 64
2, 4223, Note_on_c, 1, 76, 0
2, 4224, Note_on_c, 1, 78, 64
2, 4236, Note_on_c, 1, 78, 0
2, 4236, Note_on_c, 1, 76, 64
2, 4248, Note_on_c, 1, 76, 0
2, 4248, Note_on_c, 1, 74, 64
2, 4271, Note_on_c, 1, 74, 0
2, 4272, Note_on_c, 1, 78, 64
2, 4343, Note_on_c, 1, 78, 0
2, 4344, Note_on_c, 1, 76, 64
2, 4367, Note_on_c, 1, 76, 0
2, 4368, Note_on_c, 1, 76, 64
2, 4392, Note_on_c, 1, 76, 0
2, 4392, Note_on_c, 1, 74, 64
2, 4415, Note_on_c, 1, 74, 0
2, 4416, Note_on_c, 1, 76, 64
2, 4461, Note_on_c, 1, 76, 0
2, 4464, Note_on_c, 1, 67, 64
2, 4509, Note_on_c, 1, 67, 0
2, 4512, Note_on_c, 1, 66, 64
2, 4557, Note_on_c, 1, 66, 0
2, 4560, Note_on_c, 1, 58, 64
2, 4605, Note_on_c, 1, 58, 0
2, 4632, Note_on_c, 1, 78, 64
2, 4680, Note_on_c, 1, 78, 0
2, 4680, Note_on_c, 1, 79, 64
2, 4703, Note_on_c, 1, 79, 0
2, 4704, Note_on_c, 1, 73, 64
2, 4727, Note_on_c, 1, 73, 0
2, 4728, Note_on_c, 1, 77, 64
2, 4776, Note_on_c, 1, 77, 0
2, 4776, Note_on_c, 1, 78, 64
2, 4799, Note_on_c, 1, 78, 0
2, 4800, Note_on_c, 1, 71, 64
2, 4823, Note_on_c, 1, 71, 0
2, 4824, Note_on_c, 1, 75, 64
2, 4872, Note_on_c, 1, 75, 0
2, 4872, Note_on_c, 1, 76, 64
2, 4895, Note_on_c, 1, 76, 0
2, 4896, Note_on_c, 1, 69, 64
2, 4919, Note_on_c, 1, 69, 0
2, 4920, Note_on_c, 1, 76, 64
2, 4968, Note_on_c, 1, 76, 0
2, 4968, Note_on_c, 1, 75, 64
2, 4980, Note_on_c, 1, 75, 0
2, 4980, Note_on_c, 1, 73, 64
2, 4992, Note_on_c, 1, 73, 0
2, 4992, Note_on_c, 1, 75, 64
2, 5037, Note_on_c, 1, 75, 0
2, 5040, Note_on_c, 1, 74, 64
2, 5111, Note_on_c, 1, 74, 0
2, 5112, Note_on_c, 1, 73, 64
2, 5124, Note_on_c, 1, 73, 0
2, 5124, Note_on_c, 1, 71, 64
2, 5136, Note_on_c, 1, 71, 0
2, 5136, Note_on_c, 1, 73, 64
2, 5207, Note_on_c, 1, 73, 0
2, 5208, Note_on_c, 1, 71, 64
2, 5220, Note_on_c, 1, 71, 0
2, 5220, Note_on_c, 1, 70, 64
2, 5232, Note_on_c, 1, 70, 0
2, 5232, Note_on_c, 1, 71, 64
2, 5325, Note_on_c, 1, 71, 0
2, 5328, Note_on_c, 1, 70, 64
2, 5373, Note_on_c, 1, 70, 0
2, 5376, Note_on_c, 1, 71, 64
2, 5421, Note_on_c, 1, 71, 0
2, 5424, Note_on_c, 1, 86, 64
2, 5495, Note_on_c, 1, 86, 0
2, 5496, Note_on_c, 1, 85, 64
2, 5519, Note_on_c, 1, 85, 0
2, 5520, Note_on_c, 1, 85, 64
2, 5544, Note_on_c, 1, 85, 0
2, 5544, Note_on_c, 1, 83, 64
2, 5567, Note_on_c, 1, 83, 0
2, 5568, Note_on_c, 1, 85, 64
2, 5592, Note_on_c, 1, 85, 0
2, 5592, Note_on_c, 1, 81, 64
2, 5615, Note_on_c, 1, 81, 0
2, 5616, Note_on_c, 1, 78, 64
2, 5640, Note_on_c, 1, 78, 0
2, 5640, Note_on_c, 1, 75, 64
2, 5663, Note_on_c, 1, 75, 0
2, 5664, Note_on_c, 1, 74, 64
2, 5687, Note_on_c, 1, 74, 0
2, 5688, Note_on_c, 1, 79, 64
2, 5711, Note_on_c, 1, 79, 0
2, 5712, Note_on_c, 1, 78, 64
2, 5783, Note_on_c, 1, 78, 0
2, 5784, Note_on_c, 1, 76, 64
2, 5829, Note_on_c, 1, 76, 0
2, 5832, Note_on_c, 1, 75, 64
2, 5855, Note_on_c, 1, 75, 0
2, 5856, Note_on_c, 1, 76, 64
2, 5868, Note_on_c, 1, 76, 0
2, 5868, Note_on_c, 1, 78, 64
2, 5880, Note_on_c, 1, 78, 0
2, 5880, Note_on_c, 1, 79, 64
2, 5925, Note_on_c, 1, 79, 0
2, 5928, Note_on_c, 1, 78, 64
2, 5940, Note_on_c, 1, 78, 0
2, 5940, Note_on_c, 1, 76, 64
2, 5952, Note_on_c, 1, 76, 0
2, 5952, Note_on_c, 1, 75, 64
2, 5975, Note_on_c, 1, 75, 0
2, 5976, Note_on_c, 1, 74, 64
2, 6021, Note_on_c, 1, 74, 0
2, 6024, Note_on_c, 1, 73, 64
2, 6047, Note_on_c, 1, 73, 0
2, 6048, Note_on_c, 1, 74, 64
2, 6060, Note_on_c, 1, 74, 0
2, 6060, Note_on_c, 1, 76, 64
2, 6072, Note_on_c, 1, 76, 0
2, 6072, Note_on_c, 1, 78, 64
2, 6117, Note_on_c, 1, 78, 0
2, 6120, Note_on_c, 1, 76, 64
2, 6132, Note_on_c, 1, 76, 0
2, 6132, Note_on_c, 1, 74, 64
2, 6144, Note_on_c, 1, 74, 0
2, 6144, Note_on_c, 1, 74, 64
2, 6150, Note_on_c, 1, 74, 0
2, 6150, Note_on_c, 1, 76, 64
2, 6156, Note_on_c, 1, 76, 0
2, 6156, Note_on_c, 1, 74, 64
2, 6162, Note_on_c, 1, 74, 0
2, 6162, Note_on_c, 1, 76, 64
2, 6168, Note_on_c, 1, 76, 0
2, 6168, Note_on_c, 1, 74, 64
2, 6174, Note_on_c, 1, 74, 0
2, 6174, Note_on_c, 1, 76, 64
2, 6180, Note_on_c, 1, 76, 0
2, 6180, Note_on_c, 1, 74, 64
2, 6186, Note_on_c, 1, 74, 0
2, 6186, Note_on_c, 1, 76, 64
2, 6192, Note_on_c, 1, 76, 0
2, 6192, Note_on_c, 1, 74, 64
2, 6198, Note_on_c, 1, 74, 0
2, 6198, Note_on_c, 1, 76, 64
2, 6204, Note_on_c, 1, 76, 0
2, 6204, Note_on_c, 1, 74, 64
2, 6210, Note_on_c, 1, 74, 0
2, 6210, Note_on_c, 1, 76, 64
2, 6216, Note_on_c, 1, 76, 0
2, 6216, Note_on_c, 1, 74, 64
2, 6222, Note_on_c, 1, 74, 0
2, 6222, Note_on_c, 1, 76, 64
2, 6228, Note_on_c, 1, 76, 0
2, 6228, Note_on_c, 1, 74, 64
2, 6234, Note_on_c, 1, 74, 0
2, 6234, Note_on_c, 1, 76, 64
2, 6240, Note_on_c, 1, 76, 0
2, 6240, Note_on_c, 1, 74, 64
2, 6246, Note_on_c, 1, 74, 0
2, 6246, Note_on_c, 1, 76, 64
2, 6252, Note_on_c, 1, 76, 0
2, 6252, Note_on_c, 1, 74, 64
2, 6258, Note_on_c, 1, 74, 0
2, 6258, Note_on_c, 1, 76, 64
2, 6264, Note_on_c, 1, 76, 0
2, 6264, Note_on_c, 1, 74, 64
2, 6270, Note_on_c, 1, 74, 0
2, 6270, Note_on_c, 1, 76, 64
2, 6276, Note_on_c, 1, 76, 0
2, 6276, Note_on_c, 1, 74, 64
2, 6282, Note_on_c, 1, 74, 0
2, 6282, Note_on_c, 1, 76, 64
2, 6288, Note_on_c, 1, 76, 0
2, 6288, Note_on_c, 1, 74, 64
2, 6294, Note_on_c, 1, 74, 0
2, 6294, Note_on_c, 1, 76, 64
2, 6300, Note_on_c, 1, 76, 0
2, 6300, Note_on_c, 1, 74, 64
2, 6306, Note_on_c, 1, 74, 0
2, 6306, Note_on_c, 1, 76, 64
2, 6312, Note_on_c, 1, 76, 0
2, 6312, Note_on_c, 1, 74, 64
2, 6318, Note_on_c, 1, 74, 0
2, 6318, Note_on_c, 1, 76, 64
2, 6324, Note_on_c, 1, 76, 0
2, 6324, Note_on_c, 1, 74, 64
2, 6330, Note_on_c, 1, 74, 0
2, 6330, Note_on_c, 1, 76, 64
2, 6336, Note_on_c, 1, 76, 0
2, 6336, Note_on_c, 1, 74, 64
2, 6381, Note_on_c, 1, 74, 0
2, 6384, Note_on_c, 1, 73, 64
2, 6429, Note_on_c, 1, 73, 0
2, 6576, Note_on_c, 1, 67, 64
2, 6621, Note_on_c, 1, 67, 0
2, 6624, Note_on_c, 1, 66, 64
2, 6669, Note_on_c, 1, 66, 0
2, 6672, Note_on_c, 1, 71, 64
2, 6717, Note_on_c, 1, 71, 0
2, 6768, Note_on_c, 1, 76, 64
2, 6813, Note_on_c, 1, 76, 0
2, 6816, Note_on_c, 1, 73, 64
2, 6861, Note_on_c, 1, 73, 0
2, 6864, Note_on_c, 1, 78, 64
2, 6957, Note_on_c, 1, 78, 0
2, 6960, Note_on_c, 1, 71, 64
2, 7049, Note_on_c, 1, 71, 0
2, 7056, Note_on_c, 1, 70, 64
2, 7101, Note_on_c, 1, 70, 0
2, 7104, Note_on_c, 1, 71, 64
2, 7127, Note_on_c, 1, 71, 0
2, 7128, Note_on_c, 1, 82, 64
2, 7176, Note_on_c, 1, 82, 0
2, 7176, Note_on_c, 1, 83, 64
2, 7199, Note_on_c, 1, 83, 0
2, 7200, Note_on_c, 1, 76, 64
2, 7223, Note_on_c, 1, 76, 0
2, 7224, Note_on_c, 1, 80, 64
2, 7272, Note_on_c, 1, 80, 0
2, 7272, Note_on_c, 1, 81, 64
2, 7295, Note_on_c, 1, 81, 0
2, 7296, Note_on_c, 1, 75, 64
2, 7341, Note_on_c, 1, 75, 0
2, 7344, Note_on_c, 1, 71, 64
2, 7389, Note_on_c, 1, 71, 0
2, 7392, Note_on_c, 1, 70, 64
2, 7437, Note_on_c, 1, 70, 0
2, 7440, Note_on_c, 1, 69, 64
2, 7485, Note_on_c, 1, 69, 0
2, 7488, Note_on_c, 1, 68, 64
2, 7533, Note_on_c, 1, 68, 0
2, 7536, Note_on_c, 1, 67, 64
2, 7560, Note_on_c, 1, 67, 0
2, 7560, Note_on_c, 1, 59, 64
2, 7583, Note_on_c, 1, 59, 0
2, 7584, Note_on_c, 1, 58, 64
2, 7608, Note_on_c, 1, 58, 0
2, 7608, Note_on_c, 1, 67, 64
2, 7631, Note_on_c, 1, 67, 0
2, 7632, Note_on_c, 1, 66, 64
2, 7656, Note_on_c, 1, 66, 0
2, 7656, Note_on_c, 1, 59, 64
2, 7679, Note_on_c, 1, 59, 0
2, 7680, Note_on_c, 1, 67, 64
2, 7857, Note_on_c, 1, 67, 0
2, 7872, Note_on_c, 1, 66, 64
2, 8049, Note_on_c, 1, 66, 0
2, 8049, End_track
3, 0, Start_track
3, 0, MIDI_port, 0
3, 0, Title_t, "Clavier (RH)"
3, 0, Program_c, 0, 6
3, 0, Control_c, 0, 7, 127
3, 0, Note_on_c, 0, 66, 64
3, 23, Note_on_c, 0, 66, 0
3, 24, Note_on_c, 0, 71, 64
3, 69, Note_on_c, 0, 71, 0
3, 72, Note_on_c, 0, 70, 64
3, 95, Note_on_c, 0, 70, 0
3, 96, Note_on_c, 0, 71, 64
3, 108, Note_on_c, 0, 71, 0
3, 108, Note_on_c, 0, 73, 64
3, 120, Note_on_c, 0, 73, 0
3, 120, Note_on_c, 0, 74, 64
3, 165, Note_on_c, 0, 74, 0
3, 168, Note_on_c, 0, 73, 64
3, 180, Note_on_c, 0, 73, 0
3, 180, Note_on_c, 0, 71, 64
3, 192, Note_on_c, 0, 71, 0
3, 192, Note_on_c, 0, 70, 64
3, 204, Note_on_c, 0, 70, 0
3, 204, Note_on_c, 0, 71, 64
3, 216, Note_on_c, 0, 71, 0
3, 216, Note_on_c, 0, 73, 64
3, 252, Note_on_c, 0, 73, 0
3, 252, Note_on_c, 0, 74, 64
3, 264, Note_on_c, 0, 74, 0
3, 264, Note_on_c, 0, 76, 64
3, 300, Note_on_c, 0, 76, 0
3, 300, Note_on_c, 0, 79, 64
3, 312, Note_on_c, 0, 79, 0
3, 312, Note_on_c, 0, 78, 64
3, 324, Note_on_c, 0, 78, 0
3, 324, Note_on_c, 0, 76, 64
3, 336, Note_on_c, 0, 76, 0
3, 336, Note_on_c, 0, 74, 64
3, 359, Note_on_c, 0, 74, 0
3, 360, Note_on_c, 0, 73, 64
3, 383, Note_on_c, 0, 73, 0
3, 384, Note_on_c, 0, 74, 64
3, 429, Note_on_c, 0, 74, 0
3, 432, Note_on_c, 0, 86, 64
3, 477, Note_on_c, 0, 86, 0
3, 480, Note_on_c, 0, 85, 64
3, 525, Note_on_c, 0, 85, 0
3, 528, Note_on_c, 0, 78, 64
3, 573, Note_on_c, 0, 78, 0
3, 624, Note_on_c, 0, 77, 64
3, 647, Note_on_c, 0, 77, 0
3, 648, Note_on_c, 0, 78, 64
3, 671, Note_on_c, 0, 78, 0
3, 672, Note_on_c, 0, 80, 64
3, 717, Note_on_c, 0, 80, 0
3, 720, Note_on_c, 0, 77, 64
3, 765, Note_on_c, 0, 77, 0
3, 768, Note_on_c, 0, 78, 64
3, 813, Note_on_c, 0, 78, 0
3, 816, Note_on_c, 0, 81, 64
3, 861, Note_on_c, 0, 81, 0
3, 864, Note_on_c, 0, 81, 64
3, 887, Note_on_c, 0, 81, 0
3, 888, Note_on_c, 0, 79, 64
3, 911, Note_on_c, 0, 79, 0
3, 912, Note_on_c, 0, 79, 64
3, 936, Note_on_c, 0, 79, 0
3, 936, Note_on_c, 0, 78, 64
3, 959, Note_on_c, 0, 78, 0
3, 960, Note_on_c, 0, 79, 64
3, 984, Note_on_c, 0, 79, 0
3, 984, Note_on_c, 0, 76, 64
3, 1007, Note_on_c, 0, 76, 0
3, 1008, Note_on_c, 0, 73, 64
3, 1032, Note_on_c, 0, 73, 0
3, 1032, Note_on_c, 0, 70, 64
3, 1055, Note_on_c, 0, 70, 0
3, 1056, Note_on_c, 0, 69, 64
3, 1080, Note_on_c, 0, 69, 0
3, 1080, Note_on_c, 0, 62, 64
3, 1103, Note_on_c, 0, 62, 0
3, 1104, Note_on_c, 0, 61, 64
3, 1116, Note_on_c, 0, 61, 0
3, 1116, Note_on_c, 0, 62, 64
3, 1122, Note_on_c, 0, 62, 0
3, 1122, Note_on_c, 0, 61, 64
3, 1128, Note_on_c, 0, 61, 0
3, 1128, Note_on_c, 0, 62, 64
3, 1134, Note_on_c, 0, 62, 0
3, 1134, Note_on_c, 0, 61, 64
3, 1140, Note_on_c, 0, 61, 0
3, 1140, Note_on_c, 0, 62, 64
3, 1146, Note_on_c, 0, 62, 0
3, 1146, Note_on_c, 0, 61, 64
3, 1152, Note_on_c, 0, 61, 0
3, 1200, Note_on_c, 0, 67, 64
3, 1245, Note_on_c, 0, 67, 0
3, 1248, Note_on_c, 0, 66, 64
3, 1293, Note_on_c, 0, 66, 0
3, 1296, Note_on_c, 0, 71, 64
3, 1341, Note_on_c, 0, 71, 0
3, 1392, Note_on_c, 0, 76, 64
3, 1437, Note_on_c, 0, 76, 0
3, 1440, Note_on_c, 0, 73, 64
3, 1485, Note_on_c, 0, 73, 0
3, 1488, Note_on_c, 0, 78, 64
3, 1533, Note_on_c, 0, 78, 0
3, 1560, Note_on_c, 0, 82, 64
3, 1605, Note_on_c, 0, 82, 0
3, 1608, Note_on_c, 0, 83, 64
3, 1631, Note_on_c, 0, 83, 0
3, 1632, Note_on_c, 0, 76, 64
3, 1655, Note_on_c, 0, 76, 0
3, 1656, Note_on_c, 0, 80, 64
3, 1701, Note_on_c, 0, 80, 0
3, 1704, Note_on_c, 0, 81, 64
3, 1727, Note_on_c, 0, 81, 0
3, 1728, Note_on_c, 0, 74, 64
3, 1751, Note_on_c, 0, 74, 0
3, 1752, Note_on_c, 0, 78, 64
3, 1797, Note_on_c, 0, 78, 0
3, 1800, Note_on_c, 0, 79, 64
3, 1823, Note_on_c, 0, 79, 0
3, 1824, Note_on_c, 0, 73, 64
3, 1847, Note_on_c, 0, 73, 0
3, 1848, Note_on_c, 0, 79, 64
3, 1893, Note_on_c, 0, 79, 0
3, 1896, Note_on_c, 0, 78, 64
3, 1908, Note_on_c, 0, 78, 0
3, 1908, Note_on_c, 0, 76, 64
3, 1920, Note_on_c, 0, 76, 0
3, 1920, Note_on_c, 0, 74, 64
3, 1943, Note_on_c, 0, 74, 0
3, 1944, Note_on_c, 0, 73, 64
3, 1967, Note_on_c, 0, 73, 0
3, 1968, Note_on_c, 0, 74, 64
3, 2039, Note_on_c, 0, 74, 0
3, 2040, Note_on_c, 0, 72, 64
3, 2052, Note_on_c, 0, 72, 0
3, 2052, Note_on_c, 0, 71, 64
3, 2064, Note_on_c, 0, 71, 0
3, 2064, Note_on_c, 0, 72, 64
3, 2135, Note_on_c, 0, 72, 0
3, 2136, Note_on_c, 0, 71, 64
3, 2148, Note_on_c, 0, 71, 0
3, 2148, Note_on_c, 0, 69, 64
3, 2160, Note_on_c, 0, 69, 0
3, 2160, Note_on_c, 0, 71, 64
3, 2231, Note_on_c, 0, 71, 0
3, 2232, Note_on_c, 0, 76, 64
3, 2255, Note_on_c, 0, 76, 0
3, 2256, Note_on_c, 0, 72, 64
3, 2279, Note_on_c, 0, 72, 0
3, 2280, Note_on_c, 0, 69, 64
3, 2303, Note_on_c, 0, 69, 0
3, 2304, Note_on_c, 0, 66, 64
3, 2349, Note_on_c, 0, 66, 0
3, 2352, Note_on_c, 0, 78, 64
3, 2375, Note_on_c, 0, 78, 0
3, 2376, Note_on_c, 0, 69, 64
3, 2399, Note_on_c, 0, 69, 0
3, 2400, Note_on_c, 0, 67, 64
3, 2423, Note_on_c, 0, 67, 0
3, 2424, Note_on_c, 0, 71, 64
3, 2447, Note_on_c, 0, 71, 0
3, 2448, Note_on_c, 0, 76, 64
3, 2493, Note_on_c, 0, 76, 0
3, 2544, Note_on_c, 0, 76, 64
3, 2567, Note_on_c, 0, 76, 0
3, 2568, Note_on_c, 0, 74, 64
3, 2591, Note_on_c, 0, 74, 0
3, 2592, Note_on_c, 0, 75, 64
3, 2615, Note_on_c, 0, 75, 0
3, 2616, Note_on_c, 0, 78, 64
3, 2639, Note_on_c, 0, 78, 0
3, 2640, Note_on_c, 0, 81, 64
3, 2685, Note_on_c, 0, 81, 0
3, 2736, Note_on_c, 0, 79, 64
3, 2807, Note_on_c, 0, 79, 0
3, 2808, Note_on_c, 0, 78, 64
3, 2820, Note_on_c, 0, 78, 0
3, 2820, Note_on_c, 0, 76, 64
3, 2832, Note_on_c, 0, 76, 0
3, 2832, Note_on_c, 0, 78, 64
3, 2903, Note_on_c, 0, 78, 0
3, 2904, Note_on_c, 0, 76, 64
3, 2916, Note_on_c, 0, 76, 0
3, 2916, Note_on_c, 0, 75, 64
3, 2928, Note_on_c, 0, 75, 0
3, 2928, Note_on_c, 0, 76, 64
3, 3021, Note_on_c, 0, 76, 0
3, 3024, Note_on_c, 0, 75, 64
3, 3069, Note_on_c, 0, 75, 0
3, 3072, Note_on_c, 0, 74, 64
3, 3117, Note_on_c, 0, 74, 0
3, 3120, Note_on_c, 0, 73, 64
3, 3165, Note_on_c, 0, 73, 0
3, 3168, Note_on_c, 0, 74, 64
3, 3191, Note_on_c, 0, 74, 0
3, 3192, Note_on_c, 0, 71, 64
3, 3237, Note_on_c, 0, 71, 0
3, 3240, Note_on_c, 0, 69, 64
3, 3252, Note_on_c, 0, 69, 0
3, 3252, Note_on_c, 0, 68, 64
3, 3264, Note_on_c, 0, 68, 0
3, 3264, Note_on_c, 0, 73, 64
3, 3287, Note_on_c, 0, 73, 0
3, 3288, Note_on_c, 0, 69, 64
3, 3333, Note_on_c, 0, 69, 0
3, 3336, Note_on_c, 0, 68, 64
3, 3348, Note_on_c, 0, 68, 0
3, 3348, Note_on_c, 0, 66, 64
3, 3360, Note_on_c, 0, 66, 0
3, 3360, Note_on_c, 0, 71, 64
3, 3405, Note_on_c, 0, 71, 0
3, 3408, Note_on_c, 0, 68, 64
3, 3453, Note_on_c, 0, 68, 0
3, 3456, Note_on_c, 0, 61, 64
3, 3479, Note_on_c, 0, 61, 0
3, 3480, Note_on_c, 0, 66, 64
3, 3525, Note_on_c, 0, 66, 0
3, 3528, Note_on_c, 0, 65, 64
3, 3551, Note_on_c, 0, 65, 0
3, 3552, Note_on_c, 0, 66, 64
3, 3564, Note_on_c, 0, 66, 0
3, 3564, Note_on_c, 0, 68, 64
3, 3576, Note_on_c, 0, 68, 0
3, 3576, Note_on_c, 0, 69, 64
3, 3621, Note_on_c, 0, 69, 0
3, 3624, Note_on_c, 0, 68, 64
3, 3636, Note_on_c, 0, 68, 0
3, 3636, Note_on_c, 0, 66, 64
3, 3648, Note_on_c, 0, 66, 0
3, 3648, Note_on_c, 0, 65, 64
3, 3660, Note_on_c, 0, 65, 0
3, 3660, Note_on_c, 0, 66, 64
3, 3672, Note_on_c, 0, 66, 0
3, 3672, Note_on_c, 0, 68, 64
3, 3708, Note_on_c, 0, 68, 0
3, 3708, Note_on_c, 0, 69, 64
3, 3720, Note_on_c, 0, 69, 0
3, 3720, Note_on_c, 0, 71, 64
3, 3756, Note_on_c, 0, 71, 0
3, 3756, Note_on_c, 0, 74, 64
3, 3768, Note_on_c, 0, 74, 0
3, 3768, Note_on_c, 0, 73, 64
3, 3780, Note_on_c, 0, 73, 0
3, 3780, Note_on_c, 0, 71, 64
3, 3792, Note_on_c, 0, 71, 0
3, 3792, Note_on_c, 0, 69, 64
3, 3815, Note_on_c, 0, 69, 0
3, 3816, Note_on_c, 0, 68, 64
3, 3839, Note_on_c, 0, 68, 0
3, 3840, Note_on_c, 0, 69, 64
3, 3885, Note_on_c, 0, 69, 0
3, 3888, Note_on_c, 0, 68, 64
3, 3933, Note_on_c, 0, 68, 0
3, 3936, Note_on_c, 0, 69, 64
3, 3981, Note_on_c, 0, 69, 0
3, 3984, Note_on_c, 0, 71, 64
3, 4029, Note_on_c, 0, 71, 0
3, 4032, Note_on_c, 0, 64, 64
3, 4077, Note_on_c, 0, 64, 0
3, 4080, Note_on_c, 0, 73, 64
3, 4103, Note_on_c, 0, 73, 0
3, 4104, Note_on_c, 0, 74, 64
3, 4127, Note_on_c, 0, 74, 0
3, 4128, Note_on_c, 0, 76, 64
3, 4173, Note_on_c, 0, 76, 0
3, 4176, Note_on_c, 0, 73, 64
3, 4221, Note_on_c, 0, 73, 0
3, 4224, Note_on_c, 0, 74, 64
3, 4269, Note_on_c, 0, 74, 0
3, 4368, Note_on_c, 0, 71, 64
3, 4439, Note_on_c, 0, 71, 0
3, 4440, Note_on_c, 0, 70, 64
3, 4463, Note_on_c, 0, 70, 0
3, 4464, Note_on_c, 0, 76, 64
3, 4535, Note_on_c, 0, 76, 0
3, 4536, Note_on_c, 0, 74, 64
3, 4559, Note_on_c, 0, 74, 0
3, 4560, Note_on_c, 0, 74, 64
3, 4583, Note_on_c, 0, 74, 0
3, 4584, Note_on_c, 0, 73, 64
3, 4607, Note_on_c, 0, 73, 0
3, 4608, Note_on_c, 0, 74, 64
3, 4653, Note_on_c, 0, 74, 0
3, 4944, Note_on_c, 0, 84, 64
3, 4967, Note_on_c, 0, 84, 0
3, 4968, Note_on_c, 0, 81, 64
3, 4991, Note_on_c, 0, 81, 0
3, 4992, Note_on_c, 0, 78, 64
3, 5015, Note_on_c, 0, 78, 0
3, 5016, Note_on_c, 0, 82, 64
3, 5061, Note_on_c, 0, 82, 0
3, 5064, Note_on_c, 0, 83, 64
3, 5087, Note_on_c, 0, 83, 0
3, 5088, Note_on_c, 0, 76, 64
3, 5111, Note_on_c, 0, 76, 0
3, 5112, Note_on_c, 0, 80, 64
3, 5157, Note_on_c, 0, 80, 0
3, 5160, Note_on_c, 0, 81, 64
3, 5183, Note_on_c, 0, 81, 0
3, 5184, Note_on_c, 0, 74, 64
3, 5207, Note_on_c, 0, 74, 0
3, 5208, Note_on_c, 0, 78, 64
3, 5253, Note_on_c, 0, 78, 0
3, 5256, Note_on_c, 0, 79, 64
3, 5279, Note_on_c, 0, 79, 0
3, 5280, Note_on_c, 0, 73, 64
3, 5303, Note_on_c, 0, 73, 0
3, 5304, Note_on_c, 0, 79, 64
3, 5349, Note_on_c, 0, 79, 0
3, 5352, Note_on_c, 0, 78, 64
3, 5364, Note_on_c, 0, 78, 0
3, 5364, Note_on_c, 0, 76, 64
3, 5376, Note_on_c, 0, 76, 0
3, 5376, Note_on_c, 0, 74, 64
3, 5399, Note_on_c, 0, 74, 0
3, 5400, Note_on_c, 0, 71, 64
3, 5423, Note_on_c, 0, 71, 0
3, 5424, Note_on_c, 0, 68, 64
3, 5447, Note_on_c, 0, 68, 0
3, 5448, Note_on_c, 0, 65, 64
3, 5471, Note_on_c, 0, 65, 0
3, 5472, Note_on_c, 0, 64, 64
3, 5495, Note_on_c, 0, 64, 0
3, 5496, Note_on_c, 0, 69, 64
3, 5519, Note_on_c, 0, 69, 0
3, 5520, Note_on_c, 0, 68, 64
3, 5565, Note_on_c, 0, 68, 0
3, 5616, Note_on_c, 0, 84, 64
3, 5687, Note_on_c, 0, 84, 0
3, 5688, Note_on_c, 0, 83, 64
3, 5711, Note_on_c, 0, 83, 0
3, 5712, Note_on_c, 0, 83, 64
3, 5735, Note_on_c, 0, 83, 0
3, 5736, Note_on_c, 0, 82, 64
3, 5759, Note_on_c, 0, 82, 0
3, 5760, Note_on_c, 0, 83, 64
3, 5975, Note_on_c, 0, 83, 0
3, 5976, Note_on_c, 0, 83, 64
3, 6021, Note_on_c, 0, 83, 0
3, 6024, Note_on_c, 0, 82, 64
3, 6047, Note_on_c, 0, 82, 0
3, 6048, Note_on_c, 0, 83, 64
3, 6060, Note_on_c, 0, 83, 0
3, 6060, Note_on_c, 0, 85, 64
3, 6072, Note_on_c, 0, 85, 0
3, 6072, Note_on_c, 0, 86, 64
3, 6117, Note_on_c, 0, 86, 0
3, 6120, Note_on_c, 0, 85, 64
3, 6132, Note_on_c, 0, 85, 0
3, 6132, Note_on_c, 0, 83, 64
3, 6144, Note_on_c, 0, 83, 0
3, 6144, Note_on_c, 0, 83, 64
3, 6150, Note_on_c, 0, 83, 0
3, 6150, Note_on_c, 0, 85, 64
3, 6156, Note_on_c, 0, 85, 0
3, 6156, Note_on_c, 0, 83, 64
3, 6162, Note_on_c, 0, 83, 0
3, 6162, Note_on_c, 0, 85, 64
3, 6168, Note_on_c, 0, 85, 0
3, 6168, Note_on_c, 0, 83, 64
3, 6174, Note_on_c, 0, 83, 0
3, 6174, Note_on_c, 0, 85, 64
3, 6180, Note_on_c, 0, 85, 0
3, 6180, Note_on_c, 0, 83, 64
3, 6186, Note_on_c, 0, 83, 0
3, 6186, Note_on_c, 0, 85, 64
3, 6192, Note_on_c, 0, 85, 0
3, 6192, Note_on_c, 0, 83, 64
3, 6198, Note_on_c, 0, 83, 0
3, 6198, Note_on_c, 0, 85, 64
3, 6204, Note_on_c, 0, 85, 0
3, 6204, Note_on_c, 0, 83, 64
3, 6210, Note_on_c, 0, 83, 0
3, 6210, Note_on_c, 0, 85, 64
3, 6216, Note_on_c, 0, 85, 0
3, 6216, Note_on_c, 0, 83, 64
3, 6222, Note_on_c, 0, 83, 0
3, 6222, Note_on_c, 0, 85, 64
3, 6228, Note_on_c, 0, 85, 0
3, 6228, Note_on_c, 0, 83, 64
3, 6234, Note_on_c, 0, 83, 0
3, 6234, Note_on_c, 0, 85, 64
3, 6240, Note_on_c, 0, 85, 0
3, 6240, Note_on_c, 0, 83, 64
3, 6246, Note_on_c, 0, 83, 0
3, 6246, Note_on_c, 0, 85, 64
3, 6252, Note_on_c, 0, 85, 0
3, 6252, Note_on_c, 0, 83, 64
3, 6258, Note_on_c, 0, 83, 0
3, 6258, Note_on_c, 0, 85, 64
3, 6264, Note_on_c, 0, 85, 0
3, 6264, Note_on_c, 0, 83, 64
3, 6270, Note_on_c, 0, 83, 0
3, 6270, Note_on_c, 0, 85, 64
3, 6276, Note_on_c, 0, 85, 0
3, 6276, Note_on_c, 0, 83, 64
3, 6282, Note_on_c, 0, 83, 0
3, 6282, Note_on_c, 0, 85, 64
3, 6288, Note_on_c, 0, 85, 0
3, 6288, Note_on_c, 0, 83, 64
3, 6294, Note_on_c, 0, 83, 0
3, 6294, Note_on_c, 0, 85, 64
3, 6300, Note_on_c, 0, 85, 0
3, 6300, Note_on_c, 0, 83, 64
3, 6306, Note_on_c, 0, 83, 0
3, 6306, Note_on_c, 0, 85, 64
3, 6312, Note_on_c, 0, 85, 0
3, 6312, Note_on_c, 0, 83, 64
3, 6318, Note_on_c, 0, 83, 0
3, 6318, Note_on_c, 0, 85, 64
3, 6324, Note_on_c, 0, 85, 0
3, 6324, Note_on_c, 0, 83, 64
3, 6330, Note_on_c, 0, 83, 0
3, 6330, Note_on_c, 0, 85, 64
3, 6336, Note_on_c, 0, 85, 0
3, 6336, Note_on_c, 0, 83, 64
3, 6381, Note_on_c, 0, 83, 0
3, 6384, Note_on_c, 0, 82, 64
3, 6429, Note_on_c, 0, 82, 0
3, 6456, Note_on_c, 0, 71, 64
3, 6479, Note_on_c, 0, 71, 0
3, 6480, Note_on_c, 0, 70, 64
3, 6503, Note_on_c, 0, 70, 0
3, 6504, Note_on_c, 0, 73, 64
3, 6527, Note_on_c, 0, 73, 0
3, 6528, Note_on_c, 0, 78, 64
3, 6552, Note_on_c, 0, 78, 0
3, 6552, Note_on_c, 0, 74, 64
3, 6575, Note_on_c, 0, 74, 0
3, 6576, Note_on_c, 0, 76, 64
3, 6600, Note_on_c, 0, 76, 0
3, 6600, Note_on_c, 0, 73, 64
3, 6623, Note_on_c, 0, 73, 0
3, 6624, Note_on_c, 0, 74, 64
3, 6648, Note_on_c, 0, 74, 0
3, 6648, Note_on_c, 0, 71, 64
3, 6671, Note_on_c, 0, 71, 0
3, 6672, Note_on_c, 0, 66, 64
3, 6696, Note_on_c, 0, 66, 0
3, 6696, Note_on_c, 0, 74, 64
3, 6719, Note_on_c, 0, 74, 0
3, 6720, Note_on_c, 0, 73, 64
3, 6744, Note_on_c, 0, 73, 0
3, 6744, Note_on_c, 0, 76, 64
3, 6767, Note_on_c, 0, 76, 0
3, 6768, Note_on_c, 0, 79, 64
3, 6791, Note_on_c, 0, 79, 0
3, 6792, Note_on_c, 0, 71, 64
3, 6815, Note_on_c, 0, 71, 0
3, 6816, Note_on_c, 0, 70, 64
3, 6861, Note_on_c, 0, 70, 0
3, 6864, Note_on_c, 0, 82, 64
3, 6909, Note_on_c, 0, 82, 0
3, 6912, Note_on_c, 0, 83, 64
3, 6935, Note_on_c, 0, 83, 0
3, 6936, Note_on_c, 0, 71, 64
3, 6959, Note_on_c, 0, 71, 0
3, 6960, Note_on_c, 0, 76, 64
3, 6972, Note_on_c, 0, 76, 0
3, 6972, Note_on_c, 0, 78, 64
3, 6984, Note_on_c, 0, 78, 0
3, 6984, Note_on_c, 0, 79, 64
3, 7007, Note_on_c, 0, 79, 0
3, 7008, Note_on_c, 0, 74, 64
3, 7031, Note_on_c, 0, 74, 0
3, 7032, Note_on_c, 0, 73, 64
3, 7044, Note_on_c, 0, 73, 0
3, 7044, Note_on_c, 0, 71, 64
3, 7056, Note_on_c, 0, 71, 0
3, 7056, Note_on_c, 0, 73, 64
3, 7062, Note_on_c, 0, 73, 0
3, 7062, Note_on_c, 0, 74, 64
3, 7068, Note_on_c, 0, 74, 0
3, 7068, Note_on_c, 0, 73, 64
3, 7102, Note_on_c, 0, 73, 0
3, 7104, Note_on_c, 0, 71, 64
3, 7149, Note_on_c, 0, 71, 0
3, 7152, Note_on_c, 0, 74, 64
3, 7197, Note_on_c, 0, 74, 0
3, 7200, Note_on_c, 0, 73, 64
3, 7245, Note_on_c, 0, 73, 0
3, 7248, Note_on_c, 0, 72, 64
3, 7293, Note_on_c, 0, 72, 0
3, 7296, Note_on_c, 0, 71, 64
3, 7319, Note_on_c, 0, 71, 0
3, 7320, Note_on_c, 0, 78, 64
3, 7365, Note_on_c, 0, 78, 0
3, 7368, Note_on_c, 0, 79, 64
3, 7391, Note_on_c, 0, 79, 0
3, 7392, Note_on_c, 0, 73, 64
3, 7415, Note_on_c, 0, 73, 0
3, 7416, Note_on_c, 0, 77, 64
3, 7461, Note_on_c, 0, 77, 0
3, 7464, Note_on_c, 0, 78, 64
3, 7487, Note_on_c, 0, 78, 0
3, 7488, Note_on_c, 0, 71, 64
3, 7533, Note_on_c, 0, 71, 0
3, 7536, Note_on_c, 0, 76, 64
3, 7625, Note_on_c, 0, 76, 0
3, 7632, Note_on_c, 0, 74, 64
3, 7725, Note_on_c, 0, 74, 0
3, 7728, Note_on_c, 0, 73, 64
3, 7751, Note_on_c, 0, 73, 0
3, 7752, Note_on_c, 0, 71, 64
3, 7775, Note_on_c, 0, 71, 0
3, 7776, Note_on_c, 0, 73, 64
3, 7782, Note_on_c, 0, 73, 0
3, 7782, Note_on_c, 0, 74, 64
3, 7788, Note_on_c, 0, 74, 0
3, 7788, Note_on_c, 0, 73, 64
3, 7794, Note_on_c, 0, 73, 0
3, 7794, Note_on_c, 0, 74, 64
3, 7800, Note_on_c, 0, 74, 0
3, 7800, Note_on_c, 0, 73, 64
3, 7806, Note_on_c, 0, 73, 0
3, 7806, Note_on_c, 0, 74, 64
3, 7812, Note_on_c, 0, 74, 0
3, 7812, Note_on_c, 0, 73, 64
3, 7818, Note_on_c, 0, 73, 0
3, 7818, Note_on_c, 0, 74, 64
3, 7824, Note_on_c, 0, 74, 0
3, 7824, Note_on_c, 0, 73, 64
3, 7830, Note_on_c, 0, 73, 0
3, 7830, Note_on_c, 0, 74, 64
3, 7836, Note_on_c, 0, 74, 0
3, 7836, Note_on_c, 0, 73, 64
3, 7842, Note_on_c, 0, 73, 0
3, 7842, Note_on_c, 0, 74, 64
3, 7848, Note_on_c, 0, 74, 0
3, 7848, Note_on_c, 0, 73, 64
3, 7854, Note_on_c, 0, 73, 0
3, 7854, Note_on_c, 0, 74, 64
3, 7860, Note_on_c, 0, 74, 0
3, 7860, Note_on_c, 0, 73, 64
3, 7866, Note_on_c, 0, 73, 0
3, 7866, Note_on_c, 0, 74, 64
3, 7872, Note_on_c, 0, 74, 0
3, 7872, Note_on_c, 0, 74, 64
3, 8049, Note_on_c, 0, 74, 0
3, 8049, End_track
4, 0, Start_track
4, 0, MIDI_port, 0
4, 0, Title_t, "Clavier (LH)"
4, 0, Program_c, 0, 6
4, 0, Control_c, 0, 7, 127
4, 0, Note_on_c, 0, 47, 64
4, 45, Note_on_c, 0, 47, 0
4, 48, Note_on_c, 0, 49, 64
4, 93, Note_on_c, 0, 49, 0
4, 96, Note_on_c, 0, 50, 64
4, 141, Note_on_c, 0, 50, 0
4, 144, Note_on_c, 0, 52, 64
4, 189, Note_on_c, 0, 52, 0
4, 192, Note_on_c, 0, 54, 64
4, 237, Note_on_c, 0, 54, 0
4, 240, Note_on_c, 0, 56, 64
4, 285, Note_on_c, 0, 56, 0
4, 288, Note_on_c, 0, 58, 64
4, 333, Note_on_c, 0, 58, 0
4, 336, Note_on_c, 0, 54, 64
4, 381, Note_on_c, 0, 54, 0
4, 384, Note_on_c, 0, 59, 64
4, 429, Note_on_c, 0, 59, 0
4, 432, Note_on_c, 0, 56, 64
4, 477, Note_on_c, 0, 56, 0
4, 480, Note_on_c, 0, 57, 64
4, 525, Note_on_c, 0, 57, 0
4, 528, Note_on_c, 0, 59, 64
4, 573, Note_on_c, 0, 59, 0
4, 576, Note_on_c, 0, 61, 64
4, 621, Note_on_c, 0, 61, 0
4, 624, Note_on_c, 0, 49, 64
4, 647, Note_on_c, 0, 49, 0
4, 648, Note_on_c, 0, 51, 64
4, 671, Note_on_c, 0, 51, 0
4, 672, Note_on_c, 0, 53, 64
4, 717, Note_on_c, 0, 53, 0
4, 720, Note_on_c, 0, 49, 64
4, 765, Note_on_c, 0, 49, 0
4, 768, Note_on_c, 0, 42, 64
4, 791, Note_on_c, 0, 42, 0
4, 792, Note_on_c, 0, 54, 64
4, 837, Note_on_c, 0, 54, 0
4, 840, Note_on_c, 0, 52, 64
4, 863, Note_on_c, 0, 52, 0
4, 864, Note_on_c, 0, 51, 64
4, 876, Note_on_c, 0, 51, 0
4, 876, Note_on_c, 0, 49, 64
4, 888, Note_on_c, 0, 49, 0
4, 888, Note_on_c, 0, 47, 64
4, 933, Note_on_c, 0, 47, 0
4, 936, Note_on_c, 0, 49, 64
4, 948, Note_on_c, 0, 49, 0
4, 948, Note_on_c, 0, 51, 64
4, 960, Note_on_c, 0, 51, 0
4, 960, Note_on_c, 0, 40, 64
4, 983, Note_on_c, 0, 40, 0
4, 984, Note_on_c, 0, 52, 64
4, 1029, Note_on_c, 0, 52, 0
4, 1032, Note_on_c, 0, 50, 64
4, 1055, Note_on_c, 0, 50, 0
4, 1056, Note_on_c, 0, 49, 64
4, 1068, Note_on_c, 0, 49, 0
4, 1068, Note_on_c, 0, 47, 64
4, 1080, Note_on_c, 0, 47, 0
4, 1080, Note_on_c, 0, 45, 64
4, 1125, Note_on_c, 0, 45, 0
4, 1128, Note_on_c, 0, 47, 64
4, 1140, Note_on_c, 0, 47, 0
4, 1140, Note_on_c, 0, 49, 64
4, 1152, Note_on_c, 0, 49, 0
4, 1152, Note_on_c, 0, 50, 64
4, 1164, Note_on_c, 0, 50, 0
4, 1164, Note_on_c, 0, 54, 64
4, 1176, Note_on_c, 0, 54, 0
4, 1176, Note_on_c, 0, 59, 64
4, 1221, Note_on_c, 0, 59, 0
4, 1224, Note_on_c, 0, 58, 64
4, 1247, Note_on_c, 0, 58, 0
4, 1248, Note_on_c, 0, 59, 64
4, 1260, Note_on_c, 0, 59, 0
4, 1260, Note_on_c, 0, 61, 64
4, 1272, Note_on_c, 0, 61, 0
4, 1272, Note_on_c, 0, 62, 64
4, 1317, Note_on_c, 0, 62, 0
4, 1320, Note_on_c, 0, 61, 64
4, 1332, Note_on_c, 0, 61, 0
4, 1332, Note_on_c, 0, 59, 64
4, 1344, Note_on_c, 0, 59, 0
4, 1344, Note_on_c, 0, 58, 64
4, 1356, Note_on_c, 0, 58, 0
4, 1356, Note_on_c, 0, 59, 64
4, 1368, Note_on_c, 0, 59, 0
4, 1368, Note_on_c, 0, 61, 64
4, 1404, Note_on_c, 0, 61, 0
4, 1404, Note_on_c, 0, 62, 64
4, 1416, Note_on_c, 0, 62, 0
4, 1416, Note_on_c, 0, 64, 64
4, 1452, Note_on_c, 0, 64, 0
4, 1452, Note_on_c, 0, 67, 64
4, 1464, Note_on_c, 0, 67, 0
4, 1464, Note_on_c, 0, 66, 64
4, 1476, Note_on_c, 0, 66, 0
4, 1476, Note_on_c, 0, 64, 64
4, 1488, Note_on_c, 0, 64, 0
4, 1488, Note_on_c, 0, 62, 64
4, 1511, Note_on_c, 0, 62, 0
4, 1512, Note_on_c, 0, 61, 64
4, 1535, Note_on_c, 0, 61, 0
4, 1536, Note_on_c, 0, 62, 64
4, 1559, Note_on_c, 0, 62, 0
4, 1560, Note_on_c, 0, 61, 64
4, 1583, Note_on_c, 0, 61, 0
4, 1584, Note_on_c, 0, 62, 64
4, 1655, Note_on_c, 0, 62, 0
4, 1656, Note_on_c, 0, 61, 64
4, 1668, Note_on_c, 0, 61, 0
4, 1668, Note_on_c, 0, 59, 64
4, 1680, Note_on_c, 0, 59, 0
4, 1680, Note_on_c, 0, 61, 64
4, 1751, Note_on_c, 0, 61, 0
4, 1752, Note_on_c, 0, 59, 64
4, 1764, Note_on_c, 0, 59, 0
4, 1764, Note_on_c, 0, 58, 64
4, 1776, Note_on_c, 0, 58, 0
4, 1776, Note_on_c, 0, 59, 64
4, 1869, Note_on_c, 0, 59, 0
4, 1872, Note_on_c, 0, 58, 64
4, 1917, Note_on_c, 0, 58, 0
4, 1920, Note_on_c, 0, 59, 64
4, 1965, Note_on_c, 0, 59, 0
4, 1968, Note_on_c, 0, 56, 64
4, 2013, Note_on_c, 0, 56, 0
4, 2016, Note_on_c, 0, 57, 64
4, 2061, Note_on_c, 0, 57, 0
4, 2064, Note_on_c, 0, 54, 64
4, 2109, Note_on_c, 0, 54, 0
4, 2112, Note_on_c, 0, 55, 64
4, 2157, Note_on_c, 0, 55, 0
4, 2160, Note_on_c, 0, 52, 64
4, 2205, Note_on_c, 0, 52, 0
4, 2208, Note_on_c, 0, 57, 64
4, 2253, Note_on_c, 0, 57, 0
4, 2256, Note_on_c, 0, 45, 64
4, 2301, Note_on_c, 0, 45, 0
4, 2304, Note_on_c, 0, 47, 64
4, 2327, Note_on_c, 0, 47, 0
4, 2328, Note_on_c, 0, 52, 64
4, 2373, Note_on_c, 0, 52, 0
4, 2376, Note_on_c, 0, 51, 64
4, 2399, Note_on_c, 0, 51, 0
4, 2400, Note_on_c, 0, 52, 64
4, 2412, Note_on_c, 0, 52, 0
4, 2412, Note_on_c, 0, 54, 64
4, 2424, Note_on_c, 0, 54, 0
4, 2424, Note_on_c, 0, 55, 64
4, 2469, Note_on_c, 0, 55, 0
4, 2472, Note_on_c, 0, 54, 64
4, 2484, Note_on_c, 0, 54, 0
4, 2484, Note_on_c, 0, 52, 64
4, 2496, Note_on_c, 0, 52, 0
4, 2496, Note_on_c, 0, 51, 64
4, 2508, Note_on_c, 0, 51, 0
4, 2508, Note_on_c, 0, 52, 64
4, 2520, Note_on_c, 0, 52, 0
4, 2520, Note_on_c, 0, 54, 64
4, 2556, Note_on_c, 0, 54, 0
4, 2556, Note_on_c, 0, 55, 64
4, 2568, Note_on_c, 0, 55, 0
4, 2568, Note_on_c, 0, 57, 64
4, 2604, Note_on_c, 0, 57, 0
4, 2604, Note_on_c, 0, 60, 64
4, 2616, Note_on_c, 0, 60, 0
4, 2616, Note_on_c, 0, 59, 64
4, 2628, Note_on_c, 0, 59, 0
4, 2628, Note_on_c, 0, 57, 64
4, 2640, Note_on_c, 0, 57, 0
4, 2640, Note_on_c, 0, 55, 64
4, 2663, Note_on_c, 0, 55, 0
4, 2664, Note_on_c, 0, 54, 64
4, 2687, Note_on_c, 0, 54, 0
4, 2688, Note_on_c, 0, 55, 64
4, 2711, Note_on_c, 0, 55, 0
4, 2712, Note_on_c, 0, 63, 64
4, 2757, Note_on_c, 0, 63, 0
4, 2760, Note_on_c, 0, 64, 64
4, 2783, Note_on_c, 0, 64, 0
4, 2784, Note_on_c, 0, 57, 64
4, 2807, Note_on_c, 0, 57, 0
4, 2808, Note_on_c, 0, 61, 64
4, 2853, Note_on_c, 0, 61, 0
4, 2856, Note_on_c, 0, 62, 64
4, 2879, Note_on_c, 0, 62, 0
4, 2880, Note_on_c, 0, 55, 64
4, 2903, Note_on_c, 0, 55, 0
4, 2904, Note_on_c, 0, 59, 64
4, 2949, Note_on_c, 0, 59, 0
4, 2952, Note_on_c, 0, 60, 64
4, 2975, Note_on_c, 0, 60, 0
4, 2976, Note_on_c, 0, 54, 64
4, 2999, Note_on_c, 0, 54, 0
4, 3000, Note_on_c, 0, 60, 64
4, 3045, Note_on_c, 0, 60, 0
4, 3048, Note_on_c, 0, 59, 64
4, 3060, Note_on_c, 0, 59, 0
4, 3060, Note_on_c, 0, 57, 64
4, 3072, Note_on_c, 0, 57, 0
4, 3072, Note_on_c, 0, 56, 64
4, 3095, Note_on_c, 0, 56, 0
4, 3096, Note_on_c, 0, 52, 64
4, 3119, Note_on_c, 0, 52, 0
4, 3120, Note_on_c, 0, 57, 64
4, 3191, Note_on_c, 0, 57, 0
4, 3192, Note_on_c, 0, 56, 64
4, 3204, Note_on_c, 0, 56, 0
4, 3204, Note_on_c, 0, 54, 64
4, 3216, Note_on_c, 0, 54, 0
4, 3216, Note_on_c, 0, 56, 64
4, 3287, Note_on_c, 0, 56, 0
4, 3288, Note_on_c, 0, 54, 64
4, 3300, Note_on_c, 0, 54, 0
4, 3300, Note_on_c, 0, 53, 64
4, 3312, Note_on_c, 0, 53, 0
4, 3312, Note_on_c, 0, 54, 64
4, 3405, Note_on_c, 0, 54, 0
4, 3408, Note_on_c, 0, 53, 64
4, 3453, Note_on_c, 0, 53, 0
4, 3456, Note_on_c, 0, 54, 64
4, 3501, Note_on_c, 0, 54, 0
4, 3504, Note_on_c, 0, 56, 64
4, 3549, Note_on_c, 0, 56, 0
4, 3552, Note_on_c, 0, 57, 64
4, 3597, Note_on_c, 0, 57, 0
4, 3600, Note_on_c, 0, 59, 64
4, 3645, Note_on_c, 0, 59, 0
4, 3648, Note_on_c, 0, 61, 64
4, 3693, Note_on_c, 0, 61, 0
4, 3696, Note_on_c, 0, 49, 64
4, 3719, Note_on_c, 0, 49, 0
4, 3720, Note_on_c, 0, 51, 64
4, 3743, Note_on_c, 0, 51, 0
4, 3744, Note_on_c, 0, 53, 64
4, 3789, Note_on_c, 0, 53, 0
4, 3792, Note_on_c, 0, 49, 64
4, 3837, Note_on_c, 0, 49, 0
4, 3840, Note_on_c, 0, 54, 64
4, 3885, Note_on_c, 0, 54, 0
4, 3888, Note_on_c, 0, 53, 64
4, 3933, Note_on_c, 0, 53, 0
4, 3936, Note_on_c, 0, 54, 64
4, 3981, Note_on_c, 0, 54, 0
4, 3984, Note_on_c, 0, 56, 64
4, 4029, Note_on_c, 0, 56, 0
4, 4032, Note_on_c, 0, 57, 64
4, 4077, Note_on_c, 0, 57, 0
4, 4080, Note_on_c, 0, 45, 64
4, 4103, Note_on_c, 0, 45, 0
4, 4104, Note_on_c, 0, 47, 64
4, 4127, Note_on_c, 0, 47, 0
4, 4128, Note_on_c, 0, 49, 64
4, 4173, Note_on_c, 0, 49, 0
4, 4176, Note_on_c, 0, 45, 64
4, 4221, Note_on_c, 0, 45, 0
4, 4224, Note_on_c, 0, 50, 64
4, 4247, Note_on_c, 0, 50, 0
4, 4248, Note_on_c, 0, 62, 64
4, 4293, Note_on_c, 0, 62, 0
4, 4296, Note_on_c, 0, 61, 64
4, 4319, Note_on_c, 0, 61, 0
4, 4320, Note_on_c, 0, 59, 64
4, 4332, Note_on_c, 0, 59, 0
4, 4332, Note_on_c, 0, 57, 64
4, 4344, Note_on_c, 0, 57, 0
4, 4344, Note_on_c, 0, 56, 64
4, 4389, Note_on_c, 0, 56, 0
4, 4392, Note_on_c, 0, 57, 64
4, 4404, Note_on_c, 0, 57, 0
4, 4404, Note_on_c, 0, 59, 64
4, 4416, Note_on_c, 0, 59, 0
4, 4416, Note_on_c, 0, 49, 64
4, 4439, Note_on_c, 0, 49, 0
4, 4440, Note_on_c, 0, 61, 64
4, 4485, Note_on_c, 0, 61, 0
4, 4488, Note_on_c, 0, 59, 64
4, 4511, Note_on_c, 0, 59, 0
4, 4512, Note_on_c, 0, 58, 64
4, 4524, Note_on_c, 0, 58, 0
4, 4524, Note_on_c, 0, 56, 64
4, 4536, Note_on_c, 0, 56, 0
4, 4536, Note_on_c, 0, 54, 64
4, 4581, Note_on_c, 0, 54, 0
4, 4584, Note_on_c, 0, 56, 64
4, 4596, Note_on_c, 0, 56, 0
4, 4596, Note_on_c, 0, 58, 64
4, 4608, Note_on_c, 0, 58, 0
4, 4608, Note_on_c, 0, 47, 64
4, 4631, Note_on_c, 0, 47, 0
4, 4632, Note_on_c, 0, 59, 64
4, 4644, Note_on_c, 0, 59, 0
4, 4644, Note_on_c, 0, 58, 64
4, 4656, Note_on_c, 0, 58, 0
4, 4656, Note_on_c, 0, 59, 64
4, 4727, Note_on_c, 0, 59, 0
4, 4728, Note_on_c, 0, 57, 64
4, 4740, Note_on_c, 0, 57, 0
4, 4740, Note_on_c, 0, 56, 64
4, 4752, Note_on_c, 0, 56, 0
4, 4752, Note_on_c, 0, 57, 64
4, 4823, Note_on_c, 0, 57, 0
4, 4824, Note_on_c, 0, 55, 64
4, 4836, Note_on_c, 0, 55, 0
4, 4836, Note_on_c, 0, 54, 64
4, 4848, Note_on_c, 0, 54, 0
4, 4848, Note_on_c, 0, 55, 64
4, 4871, Note_on_c, 0, 55, 0
4, 4872, Note_on_c, 0, 52, 64
4, 4895, Note_on_c, 0, 52, 0
4, 4896, Note_on_c, 0, 48, 64
4, 4919, Note_on_c, 0, 48, 0
4, 4920, Note_on_c, 0, 47, 64
4, 4943, Note_on_c, 0, 47, 0
4, 4944, Note_on_c, 0, 45, 64
4, 5015, Note_on_c, 0, 45, 0
4, 5016, Note_on_c, 0, 44, 64
4, 5028, Note_on_c, 0, 44, 0
4, 5028, Note_on_c, 0, 42, 64
4, 5040, Note_on_c, 0, 42, 0
4, 5040, Note_on_c, 0, 44, 64
4, 5085, Note_on_c, 0, 44, 0
4, 5088, Note_on_c, 0, 45, 64
4, 5133, Note_on_c, 0, 45, 0
4, 5136, Note_on_c, 0, 42, 64
4, 5181, Note_on_c, 0, 42, 0
4, 5184, Note_on_c, 0, 43, 64
4, 5229, Note_on_c, 0, 43, 0
4, 5232, Note_on_c, 0, 40, 64
4, 5277, Note_on_c, 0, 40, 0
4, 5280, Note_on_c, 0, 42, 64
4, 5325, Note_on_c, 0, 42, 0
4, 5328, Note_on_c, 0, 54, 64
4, 5373, Note_on_c, 0, 54, 0
4, 5376, Note_on_c, 0, 47, 64
4, 5399, Note_on_c, 0, 47, 0
4, 5400, Note_on_c, 0, 59, 64
4, 5445, Note_on_c, 0, 59, 0
4, 5448, Note_on_c, 0, 57, 64
4, 5471, Note_on_c, 0, 57, 0
4, 5472, Note_on_c, 0, 56, 64
4, 5484, Note_on_c, 0, 56, 0
4, 5484, Note_on_c, 0, 54, 64
4, 5496, Note_on_c, 0, 54, 0
4, 5496, Note_on_c, 0, 52, 64
4, 5541, Note_on_c, 0, 52, 0
4, 5544, Note_on_c, 0, 54, 64
4, 5556, Note_on_c, 0, 54, 0
4, 5556, Note_on_c, 0, 56, 64
4, 5568, Note_on_c, 0, 56, 0
4, 5568, Note_on_c, 0, 45, 64
4, 5591, Note_on_c, 0, 45, 0
4, 5592, Note_on_c, 0, 57, 64
4, 5637, Note_on_c, 0, 57, 0
4, 5640, Note_on_c, 0, 55, 64
4, 5663, Note_on_c, 0, 55, 0
4, 5664, Note_on_c, 0, 54, 64
4, 5676, Note_on_c, 0, 54, 0
4, 5676, Note_on_c, 0, 52, 64
4, 5688, Note_on_c, 0, 52, 0
4, 5688, Note_on_c, 0, 50, 64
4, 5733, Note_on_c, 0, 50, 0
4, 5736, Note_on_c, 0, 52, 64
4, 5748, Note_on_c, 0, 52, 0
4, 5748, Note_on_c, 0, 54, 64
4, 5760, Note_on_c, 0, 54, 0
4, 5760, Note_on_c, 0, 43, 64
4, 5805, Note_on_c, 0, 43, 0
4, 5808, Note_on_c, 0, 55, 64
4, 5853, Note_on_c, 0, 55, 0
4, 5880, Note_on_c, 0, 49, 64
4, 5903, Note_on_c, 0, 49, 0
4, 5904, Note_on_c, 0, 47, 64
4, 5927, Note_on_c, 0, 47, 0
4, 5928, Note_on_c, 0, 49, 64
4, 5951, Note_on_c, 0, 49, 0
4, 5952, Note_on_c, 0, 42, 64
4, 5997, Note_on_c, 0, 42, 0
4, 6000, Note_on_c, 0, 54, 64
4, 6045, Note_on_c, 0, 54, 0
4, 6072, Note_on_c, 0, 47, 64
4, 6095, Note_on_c, 0, 47, 0
4, 6096, Note_on_c, 0, 46, 64
4, 6119, Note_on_c, 0, 46, 0
4, 6120, Note_on_c, 0, 47, 64
4, 6143, Note_on_c, 0, 47, 0
4, 6144, Note_on_c, 0, 41, 64
4, 6167, Note_on_c, 0, 41, 0
4, 6168, Note_on_c, 0, 53, 64
4, 6204, Note_on_c, 0, 53, 0
4, 6204, Note_on_c, 0, 54, 64
4, 6216, Note_on_c, 0, 54, 0
4, 6216, Note_on_c, 0, 56, 64
4, 6252, Note_on_c, 0, 56, 0
4, 6252, Note_on_c, 0, 59, 64
4, 6264, Note_on_c, 0, 59, 0
4, 6264, Note_on_c, 0, 57, 64
4, 6276, Note_on_c, 0, 57, 0
4, 6276, Note_on_c, 0, 56, 64
4, 6288, Note_on_c, 0, 56, 0
4, 6288, Note_on_c, 0, 54, 64
4, 6311, Note_on_c, 0, 54, 0
4, 6312, Note_on_c, 0, 53, 64
4, 6335, Note_on_c, 0, 53, 0
4, 6336, Note_on_c, 0, 54, 64
4, 6359, Note_on_c, 0, 54, 0
4, 6360, Note_on_c, 0, 40, 64
4, 6405, Note_on_c, 0, 40, 0
4, 6408, Note_on_c, 0, 38, 64
4, 6431, Note_on_c, 0, 38, 0
4, 6432, Note_on_c, 0, 40, 64
4, 6444, Note_on_c, 0, 40, 0
4, 6444, Note_on_c, 0, 42, 64
4, 6456, Note_on_c, 0, 42, 0
4, 6456, Note_on_c, 0, 43, 64
4, 6501, Note_on_c, 0, 43, 0
4, 6504, Note_on_c, 0, 42, 64
4, 6516, Note_on_c, 0, 42, 0
4, 6516, Note_on_c, 0, 40, 64
4, 6528, Note_on_c, 0, 40, 0
4, 6528, Note_on_c, 0, 38, 64
4, 6540, Note_on_c, 0, 38, 0
4, 6540, Note_on_c, 0, 42, 64
4, 6552, Note_on_c, 0, 42, 0
4, 6552, Note_on_c, 0, 47, 64
4, 6597, Note_on_c, 0, 47, 0
4, 6600, Note_on_c, 0, 46, 64
4, 6623, Note_on_c, 0, 46, 0
4, 6624, Note_on_c, 0, 47, 64
4, 6636, Note_on_c, 0, 47, 0
4, 6636, Note_on_c, 0, 49, 64
4, 6648, Note_on_c, 0, 49, 0
4, 6648, Note_on_c, 0, 50, 64
4, 6693, Note_on_c, 0, 50, 0
4, 6696, Note_on_c, 0, 49, 64
4, 6708, Note_on_c, 0, 49, 0
4, 6708, Note_on_c, 0, 47, 64
4, 6720, Note_on_c, 0, 47, 0
4, 6720, Note_on_c, 0, 46, 64
4, 6732, Note_on_c, 0, 46, 0
4, 6732, Note_on_c, 0, 47, 64
4, 6744, Note_on_c, 0, 47, 0
4, 6744, Note_on_c, 0, 49, 64
4, 6780, Note_on_c, 0, 49, 0
4, 6780, Note_on_c, 0, 50, 64
4, 6792, Note_on_c, 0, 50, 0
4, 6792, Note_on_c, 0, 52, 64
4, 6828, Note_on_c, 0, 52, 0
4, 6828, Note_on_c, 0, 55, 64
4, 6840, Note_on_c, 0, 55, 0
4, 6840, Note_on_c, 0, 54, 64
4, 6852, Note_on_c, 0, 54, 0
4, 6852, Note_on_c, 0, 52, 64
4, 6864, Note_on_c, 0, 52, 0
4, 6864, Note_on_c, 0, 50, 64
4, 6887, Note_on_c, 0, 50, 0
4, 6888, Note_on_c, 0, 49, 64
4, 6911, Note_on_c, 0, 49, 0
4, 6912, Note_on_c, 0, 50, 64
4, 6957, Note_on_c, 0, 50, 0
4, 6960, Note_on_c, 0, 55, 64
4, 6983, Note_on_c, 0, 55, 0
4, 6984, Note_on_c, 0, 52, 64
4, 7007, Note_on_c, 0, 52, 0
4, 7008, Note_on_c, 0, 54, 64
4, 7053, Note_on_c, 0, 54, 0
4, 7056, Note_on_c, 0, 42, 64
4, 7101, Note_on_c, 0, 42, 0
4, 7104, Note_on_c, 0, 47, 64
4, 7193, Note_on_c, 0, 47, 0
4, 7296, Note_on_c, 0, 47, 64
4, 7385, Note_on_c, 0, 47, 0
4, 7512, Note_on_c, 0, 59, 64
4, 7557, Note_on_c, 0, 59, 0
4, 7560, Note_on_c, 0, 61, 64
4, 7583, Note_on_c, 0, 61, 0
4, 7584, Note_on_c, 0, 54, 64
4, 7607, Note_on_c, 0, 54, 0
4, 7608, Note_on_c, 0, 58, 64
4, 7653, Note_on_c, 0, 58, 0
4, 7656, Note_on_c, 0, 59, 64
4, 7679, Note_on_c, 0, 59, 0
4, 7680, Note_on_c, 0, 52, 64
4, 7857, Note_on_c, 0, 52, 0
4, 7872, Note_on_c, 0, 50, 64
4, 8049, Note_on_c, 0, 50, 0
4, 8049, End_track
5, 0, Start_track
5, 0, MIDI_port, 0
5, 0, Title_t, "Sonata No. 6 en G mayor "
5, 0, End_track
6, 0, Start_track
6, 0, MIDI_port, 0
6, 0, Title_t, "para violin y clavicembalo"
6, 0, End_track
7, 0, Start_track
7, 0, MIDI_port, 0
7, 0, Title_t, "Cuarto Movimiento: Adagio"
7, 0, End_track
8, 0, Start_track
8, 0, MIDI_port, 0
8, 0, Title_t, "J. S. Bach (1685-1750)"
8, 0, End_track
9, 0, Start_track
9, 0, MIDI_port, 0
9, 0, Title_t, "Copyright Luis Gerardo Barajas "
9, 0, End_track
10, 0, Start_track
10, 0, MIDI_port, 0
10, 0, Title_t, "*** Bach Keeps RuLiNg!!!"
10, 0, End_track
0, 0, End_of_file
