0, 0, Header, 1, 10, 96
1, 0, Start_track
1, 0, Sequencer_specific, 3, 0, 0, 65
1, 0, Time_signature, 3, 2, 24, 8
1, 0, Key_signature, 3, "major"
1, 0, Tempo, 526316
1, 33904, Tempo, 495868
1, 34336, Tempo, 495868
1, 34656, Tempo, 508475
1, 34664, Tempo, 512821
1, 34672, Tempo, 521739
1, 34680, Tempo, 530973
1, 34688, Tempo, 535714
1, 34696, Tempo, 545455
1, 34704, Tempo, 555556
1, 34712, Tempo, 566038
1, 34720, Tempo, 571429
1, 34728, Tempo, 582524
1, 34736, Tempo, 594059
1, 34744, Tempo, 600000
1, 34752, Tempo, 612245
1, 34760, Tempo, 625000
1, 34768, Tempo, 638298
1, 34776, Tempo, 645161
1, 34784, Tempo, 659341
1, 34792, Tempo, 674157
1, 34800, Tempo, 689655
1, 34808, Tempo, 697674
1, 34816, Tempo, 714286
1, 34824, Tempo, 731707
1, 34832, Tempo, 740741
1, 34840, Tempo, 759494
1, 34848, Tempo, 779221
1, 34856, Tempo, 800000
1, 34864, Tempo, 810811
1, 34872, Tempo, 833333
1, 34880, Tempo, 857143
1, 34888, Tempo, 882353
1, 34896, Tempo, 895522
1, 34904, Tempo, 923077
1, 34912, Tempo, 952381
1, 34920, Tempo, 967742
1, 34928, Tempo, 1000000
1, 34936, Tempo, 1034483
1, 34944, Tempo, 1071429
1, 34952, Tempo, 1090909
1, 34960, Tempo, 1132075
1, 34968, Tempo, 1176471
1, 34976, Tempo, 1224490
1, 34984, Tempo, 2857143
1, 34992, Tempo, 1666667
1, 35000, Tempo, 1153846
1, 35008, Tempo, 895522
1, 35016, Tempo, 731707
1, 35024, Tempo, 612245
1, 35024, End_track
2, 0, Start_track
2, 0, MIDI_port, 0
2, 0, Title_t, "Violin"
2, 0, Program_c, 1, 40
2, 0, Control_c, 1, 7, 127
2, 48, Note_on_c, 1, 69, 64
2, 71, Note_on_c, 1, 69, 0
2, 72, Note_on_c, 1, 71, 64
2, 95, Note_on_c, 1, 71, 0
2, 96, Note_on_c, 1, 73, 64
2, 141, Note_on_c, 1, 73, 0
2, 144, Note_on_c, 1, 73, 64
2, 167, Note_on_c, 1, 73, 0
2, 168, Note_on_c, 1, 74, 64
2, 191, Note_on_c, 1, 74, 0
2, 192, Note_on_c, 1, 76, 64
2, 237, Note_on_c, 1, 76, 0
2, 240, Note_on_c, 1, 78, 64
2, 263, Note_on_c, 1, 78, 0
2, 264, Note_on_c, 1, 80, 64
2, 287, Note_on_c, 1, 80, 0
2, 288, Note_on_c, 1, 81, 64
2, 333, Note_on_c, 1, 81, 0
2, 336, Note_on_c, 1, 80, 64
2, 359, Note_on_c, 1, 80, 0
2, 360, Note_on_c, 1, 78, 64
2, 383, Note_on_c, 1, 78, 0
2, 384, Note_on_c, 1, 76, 64
2, 429, Note_on_c, 1, 76, 0
2, 432, Note_on_c, 1, 74, 64
2, 477, Note_on_c, 1, 74, 0
2, 480, Note_on_c, 1, 73, 64
2, 525, Note_on_c, 1, 73, 0
2, 528, Note_on_c, 1, 71, 64
2, 573, Note_on_c, 1, 71, 0
2, 576, Note_on_c, 1, 69, 64
2, 621, Note_on_c, 1, 69, 0
2, 624, Note_on_c, 1, 74, 64
2, 647, Note_on_c, 1, 74, 0
2, 648, Note_on_c, 1, 73, 64
2, 671, Note_on_c, 1, 73, 0
2, 672, Note_on_c, 1, 74, 64
2, 717, Note_on_c, 1, 74, 0
2, 720, Note_on_c, 1, 78, 64
2, 765, Note_on_c, 1, 78, 0
2, 768, Note_on_c, 1, 71, 64
2, 813, Note_on_c, 1, 71, 0
2, 816, Note_on_c, 1, 76, 64
2, 861, Note_on_c, 1, 76, 0
2, 864, Note_on_c, 1, 73, 64
2, 909, Note_on_c, 1, 73, 0
2, 912, Note_on_c, 1, 78, 64
2, 935, Note_on_c, 1, 78, 0
2, 936, Note_on_c, 1, 76, 64
2, 959, Note_on_c, 1, 76, 0
2, 960, Note_on_c, 1, 78, 64
2, 1005, Note_on_c, 1, 78, 0
2, 1008, Note_on_c, 1, 81, 64
2, 1053, Note_on_c, 1, 81, 0
2, 1056, Note_on_c, 1, 75, 64
2, 1101, Note_on_c, 1, 75, 0
2, 1104, Note_on_c, 1, 80, 64
2, 1149, Note_on_c, 1, 80, 0
2, 1152, Note_on_c, 1, 76, 64
2, 1197, Note_on_c, 1, 76, 0
2, 1200, Note_on_c, 1, 81, 64
2, 1223, Note_on_c, 1, 81, 0
2, 1224, Note_on_c, 1, 80, 64
2, 1247, Note_on_c, 1, 80, 0
2, 1248, Note_on_c, 1, 81, 64
2, 1293, Note_on_c, 1, 81, 0
2, 1296, Note_on_c, 1, 85, 64
2, 1341, Note_on_c, 1, 85, 0
2, 1344, Note_on_c, 1, 78, 64
2, 1389, Note_on_c, 1, 78, 0
2, 1392, Note_on_c, 1, 83, 64
2, 1437, Note_on_c, 1, 83, 0
2, 1440, Note_on_c, 1, 80, 64
2, 1463, Note_on_c, 1, 80, 0
2, 1464, Note_on_c, 1, 78, 64
2, 1487, Note_on_c, 1, 78, 0
2, 1488, Note_on_c, 1, 80, 64
2, 1511, Note_on_c, 1, 80, 0
2, 1512, Note_on_c, 1, 81, 64
2, 1535, Note_on_c, 1, 81, 0
2, 1536, Note_on_c, 1, 83, 64
2, 1581, Note_on_c, 1, 83, 0
2, 1584, Note_on_c, 1, 76, 64
2, 1629, Note_on_c, 1, 76, 0
2, 1632, Note_on_c, 1, 75, 64
2, 1677, Note_on_c, 1, 75, 0
2, 1680, Note_on_c, 1, 81, 64
2, 1725, Note_on_c, 1, 81, 0
2, 1728, Note_on_c, 1, 80, 64
2, 1751, Note_on_c, 1, 80, 0
2, 1752, Note_on_c, 1, 78, 64
2, 1775, Note_on_c, 1, 78, 0
2, 1776, Note_on_c, 1, 80, 64
2, 1799, Note_on_c, 1, 80, 0
2, 1800, Note_on_c, 1, 81, 64
2, 1823, Note_on_c, 1, 81, 0
2, 1824, Note_on_c, 1, 83, 64
2, 1869, Note_on_c, 1, 83, 0
2, 1872, Note_on_c, 1, 76, 64
2, 1917, Note_on_c, 1, 76, 0
2, 1920, Note_on_c, 1, 71, 64
2, 1965, Note_on_c, 1, 71, 0
2, 1968, Note_on_c, 1, 74, 64
2, 2013, Note_on_c, 1, 74, 0
2, 2016, Note_on_c, 1, 73, 64
2, 2039, Note_on_c, 1, 73, 0
2, 2040, Note_on_c, 1, 74, 64
2, 2063, Note_on_c, 1, 74, 0
2, 2064, Note_on_c, 1, 73, 64
2, 2087, Note_on_c, 1, 73, 0
2, 2088, Note_on_c, 1, 71, 64
2, 2111, Note_on_c, 1, 71, 0
2, 2112, Note_on_c, 1, 69, 64
2, 2135, Note_on_c, 1, 69, 0
2, 2136, Note_on_c, 1, 68, 64
2, 2159, Note_on_c, 1, 68, 0
2, 2160, Note_on_c, 1, 66, 64
2, 2183, Note_on_c, 1, 66, 0
2, 2184, Note_on_c, 1, 64, 64
2, 2207, Note_on_c, 1, 64, 0
2, 2208, Note_on_c, 1, 63, 64
2, 2253, Note_on_c, 1, 63, 0
2, 2256, Note_on_c, 1, 76, 64
2, 2280, Note_on_c, 1, 76, 0
2, 2280, Note_on_c, 1, 75, 64
2, 2303, Note_on_c, 1, 75, 0
2, 2304, Note_on_c, 1, 76, 64
2, 2481, Note_on_c, 1, 76, 0
2, 2496, Note_on_c, 1, 74, 64
2, 2681, Note_on_c, 1, 74, 0
2, 2688, Note_on_c, 1, 73, 64
2, 2733, Note_on_c, 1, 73, 0
2, 2736, Note_on_c, 1, 71, 64
2, 2781, Note_on_c, 1, 71, 0
2, 2784, Note_on_c, 1, 73, 64
2, 2925, Note_on_c, 1, 73, 0
2, 2928, Note_on_c, 1, 81, 64
2, 2951, Note_on_c, 1, 81, 0
2, 2952, Note_on_c, 1, 80, 64
2, 2975, Note_on_c, 1, 80, 0
2, 2976, Note_on_c, 1, 78, 64
2, 2999, Note_on_c, 1, 78, 0
2, 3000, Note_on_c, 1, 76, 64
2, 3023, Note_on_c, 1, 76, 0
2, 3024, Note_on_c, 1, 74, 64
2, 3047, Note_on_c, 1, 74, 0
2, 3048, Note_on_c, 1, 73, 64
2, 3071, Note_on_c, 1, 73, 0
2, 3072, Note_on_c, 1, 71, 64
2, 3095, Note_on_c, 1, 71, 0
2, 3096, Note_on_c, 1, 69, 64
2, 3119, Note_on_c, 1, 69, 0
2, 3120, Note_on_c, 1, 71, 64
2, 3143, Note_on_c, 1, 71, 0
2, 3144, Note_on_c, 1, 68, 64
2, 3167, Note_on_c, 1, 68, 0
2, 3168, Note_on_c, 1, 69, 64
2, 3257, Note_on_c, 1, 69, 0
2, 3360, Note_on_c, 1, 76, 64
2, 3449, Note_on_c, 1, 76, 0
2, 3456, Note_on_c, 1, 76, 64
2, 3833, Note_on_c, 1, 76, 0
2, 3840, Note_on_c, 1, 78, 64
2, 3929, Note_on_c, 1, 78, 0
2, 3936, Note_on_c, 1, 80, 64
2, 4121, Note_on_c, 1, 80, 0
2, 4128, Note_on_c, 1, 81, 64
2, 4217, Note_on_c, 1, 81, 0
2, 4224, Note_on_c, 1, 83, 64
2, 4409, Note_on_c, 1, 83, 0
2, 4416, Note_on_c, 1, 85, 64
2, 4505, Note_on_c, 1, 85, 0
2, 4512, Note_on_c, 1, 87, 64
2, 4601, Note_on_c, 1, 87, 0
2, 4608, Note_on_c, 1, 88, 64
2, 4653, Note_on_c, 1, 88, 0
2, 4656, Note_on_c, 1, 86, 64
2, 4679, Note_on_c, 1, 86, 0
2, 4680, Note_on_c, 1, 85, 64
2, 4703, Note_on_c, 1, 85, 0
2, 4704, Note_on_c, 1, 83, 64
2, 4727, Note_on_c, 1, 83, 0
2, 4728, Note_on_c, 1, 81, 64
2, 4751, Note_on_c, 1, 81, 0
2, 4752, Note_on_c, 1, 80, 64
2, 4775, Note_on_c, 1, 80, 0
2, 4776, Note_on_c, 1, 78, 64
2, 4799, Note_on_c, 1, 78, 0
2, 4800, Note_on_c, 1, 76, 64
2, 4823, Note_on_c, 1, 76, 0
2, 4824, Note_on_c, 1, 80, 64
2, 4847, Note_on_c, 1, 80, 0
2, 4848, Note_on_c, 1, 78, 64
2, 4871, Note_on_c, 1, 78, 0
2, 4872, Note_on_c, 1, 76, 64
2, 4895, Note_on_c, 1, 76, 0
2, 4896, Note_on_c, 1, 81, 64
2, 4941, Note_on_c, 1, 81, 0
2, 4944, Note_on_c, 1, 76, 64
2, 4989, Note_on_c, 1, 76, 0
2, 4992, Note_on_c, 1, 73, 64
2, 5037, Note_on_c, 1, 73, 0
2, 5040, Note_on_c, 1, 69, 64
2, 5085, Note_on_c, 1, 69, 0
2, 5088, Note_on_c, 1, 79, 64
2, 5184, Note_on_c, 1, 79, 0
2, 5184, Note_on_c, 1, 78, 64
2, 5229, Note_on_c, 1, 78, 0
2, 5232, Note_on_c, 1, 74, 64
2, 5277, Note_on_c, 1, 74, 0
2, 5280, Note_on_c, 1, 69, 64
2, 5325, Note_on_c, 1, 69, 0
2, 5328, Note_on_c, 1, 66, 64
2, 5373, Note_on_c, 1, 66, 0
2, 5376, Note_on_c, 1, 78, 64
2, 5561, Note_on_c, 1, 78, 0
2, 5568, Note_on_c, 1, 76, 64
2, 5613, Note_on_c, 1, 76, 0
2, 5616, Note_on_c, 1, 74, 64
2, 5661, Note_on_c, 1, 74, 0
2, 5664, Note_on_c, 1, 76, 64
2, 5849, Note_on_c, 1, 76, 0
2, 5856, Note_on_c, 1, 74, 64
2, 5901, Note_on_c, 1, 74, 0
2, 5904, Note_on_c, 1, 73, 64
2, 5949, Note_on_c, 1, 73, 0
2, 5952, Note_on_c, 1, 74, 64
2, 6137, Note_on_c, 1, 74, 0
2, 6144, Note_on_c, 1, 73, 64
2, 6189, Note_on_c, 1, 73, 0
2, 6192, Note_on_c, 1, 71, 64
2, 6237, Note_on_c, 1, 71, 0
2, 6240, Note_on_c, 1, 73, 64
2, 6425, Note_on_c, 1, 73, 0
2, 6432, Note_on_c, 1, 71, 64
2, 6477, Note_on_c, 1, 71, 0
2, 6480, Note_on_c, 1, 69, 64
2, 6525, Note_on_c, 1, 69, 0
2, 6528, Note_on_c, 1, 68, 64
2, 6573, Note_on_c, 1, 68, 0
2, 6576, Note_on_c, 1, 76, 64
2, 6647, Note_on_c, 1, 76, 0
2, 6648, Note_on_c, 1, 80, 64
2, 6671, Note_on_c, 1, 80, 0
2, 6672, Note_on_c, 1, 78, 64
2, 6695, Note_on_c, 1, 78, 0
2, 6696, Note_on_c, 1, 76, 64
2, 6719, Note_on_c, 1, 76, 0
2, 6720, Note_on_c, 1, 74, 64
2, 6743, Note_on_c, 1, 74, 0
2, 6744, Note_on_c, 1, 73, 64
2, 6767, Note_on_c, 1, 73, 0
2, 6768, Note_on_c, 1, 71, 64
2, 6791, Note_on_c, 1, 71, 0
2, 6792, Note_on_c, 1, 69, 64
2, 6815, Note_on_c, 1, 69, 0
2, 6816, Note_on_c, 1, 68, 64
2, 6861, Note_on_c, 1, 68, 0
2, 6864, Note_on_c, 1, 80, 64
2, 6935, Note_on_c, 1, 80, 0
2, 6936, Note_on_c, 1, 83, 64
2, 6959, Note_on_c, 1, 83, 0
2, 6960, Note_on_c, 1, 81, 64
2, 6983, Note_on_c, 1, 81, 0
2, 6984, Note_on_c, 1, 80, 64
2, 7007, Note_on_c, 1, 80, 0
2, 7008, Note_on_c, 1, 78, 64
2, 7031, Note_on_c, 1, 78, 0
2, 7032, Note_on_c, 1, 76, 64
2, 7055, Note_on_c, 1, 76, 0
2, 7056, Note_on_c, 1, 74, 64
2, 7079, Note_on_c, 1, 74, 0
2, 7080, Note_on_c, 1, 73, 64
2, 7103, Note_on_c, 1, 73, 0
2, 7104, Note_on_c, 1, 71, 64
2, 7149, Note_on_c, 1, 71, 0
2, 7152, Note_on_c, 1, 83, 64
2, 7223, Note_on_c, 1, 83, 0
2, 7224, Note_on_c, 1, 86, 64
2, 7247, Note_on_c, 1, 86, 0
2, 7248, Note_on_c, 1, 85, 64
2, 7271, Note_on_c, 1, 85, 0
2, 7272, Note_on_c, 1, 83, 64
2, 7295, Note_on_c, 1, 83, 0
2, 7296, Note_on_c, 1, 81, 64
2, 7319, Note_on_c, 1, 81, 0
2, 7320, Note_on_c, 1, 80, 64
2, 7343, Note_on_c, 1, 80, 0
2, 7344, Note_on_c, 1, 78, 64
2, 7367, Note_on_c, 1, 78, 0
2, 7368, Note_on_c, 1, 76, 64
2, 7391, Note_on_c, 1, 76, 0
2, 7392, Note_on_c, 1, 74, 64
2, 7437, Note_on_c, 1, 74, 0
2, 7440, Note_on_c, 1, 86, 64
2, 7485, Note_on_c, 1, 86, 0
2, 7488, Note_on_c, 1, 86, 64
2, 7753, Note_on_c, 1, 86, 0
2, 7776, Note_on_c, 1, 85, 64
2, 7843, Note_on_c, 1, 85, 0
2, 7848, Note_on_c, 1, 83, 64
2, 7871, Note_on_c, 1, 83, 0
2, 7872, Note_on_c, 1, 80, 64
2, 7884, Note_on_c, 1, 80, 0
2, 7884, Note_on_c, 1, 81, 64
2, 7896, Note_on_c, 1, 81, 0
2, 7896, Note_on_c, 1, 80, 64
2, 7908, Note_on_c, 1, 80, 0
2, 7908, Note_on_c, 1, 81, 64
2, 7920, Note_on_c, 1, 81, 0
2, 7920, Note_on_c, 1, 80, 64
2, 7932, Note_on_c, 1, 80, 0
2, 7932, Note_on_c, 1, 81, 64
2, 7944, Note_on_c, 1, 81, 0
2, 7944, Note_on_c, 1, 80, 64
2, 7956, Note_on_c, 1, 80, 0
2, 7956, Note_on_c, 1, 81, 64
2, 7968, Note_on_c, 1, 81, 0
2, 7968, Note_on_c, 1, 80, 64
2, 7980, Note_on_c, 1, 80, 0
2, 7980, Note_on_c, 1, 81, 64
2, 7992, Note_on_c, 1, 81, 0
2, 7992, Note_on_c, 1, 80, 64
2, 8004, Note_on_c, 1, 80, 0
2, 8004, Note_on_c, 1, 81, 64
2, 8016, Note_on_c, 1, 81, 0
2, 8016, Note_on_c, 1, 81, 64
2, 8061, Note_on_c, 1, 81, 0
2, 8064, Note_on_c, 1, 81, 64
2, 8109, Note_on_c, 1, 81, 0
2, 8112, Note_on_c, 1, 69, 64
2, 8135, Note_on_c, 1, 69, 0
2, 8136, Note_on_c, 1, 71, 64
2, 8159, Note_on_c, 1, 71, 0
2, 8160, Note_on_c, 1, 73, 64
2, 8205, Note_on_c, 1, 73, 0
2, 8208, Note_on_c, 1, 73, 64
2, 8231, Note_on_c, 1, 73, 0
2, 8232, Note_on_c, 1, 74, 64
2, 8255, Note_on_c, 1, 74, 0
2, 8256, Note_on_c, 1, 76, 64
2, 8301, Note_on_c, 1, 76, 0
2, 8304, Note_on_c, 1, 78, 64
2, 8327, Note_on_c, 1, 78, 0
2, 8328, Note_on_c, 1, 80, 64
2, 8351, Note_on_c, 1, 80, 0
2, 8352, Note_on_c, 1, 81, 64
2, 8397, Note_on_c, 1, 81, 0
2, 8400, Note_on_c, 1, 76, 64
2, 8445, Note_on_c, 1, 76, 0
2, 8448, Note_on_c, 1, 73, 64
2, 8493, Note_on_c, 1, 73, 0
2, 8496, Note_on_c, 1, 69, 64
2, 8541, Note_on_c, 1, 69, 0
2, 8544, Note_on_c, 1, 76, 64
2, 8589, Note_on_c, 1, 76, 0
2, 8592, Note_on_c, 1, 80, 64
2, 8637, Note_on_c, 1, 80, 0
2, 8640, Note_on_c, 1, 81, 64
2, 8685, Note_on_c, 1, 81, 0
2, 8688, Note_on_c, 1, 76, 64
2, 8733, Note_on_c, 1, 76, 0
2, 8736, Note_on_c, 1, 73, 64
2, 8781, Note_on_c, 1, 73, 0
2, 8784, Note_on_c, 1, 69, 64
2, 8829, Note_on_c, 1, 69, 0
2, 8832, Note_on_c, 1, 76, 64
2, 8877, Note_on_c, 1, 76, 0
2, 8880, Note_on_c, 1, 80, 64
2, 8925, Note_on_c, 1, 80, 0
2, 8928, Note_on_c, 1, 81, 64
2, 8973, Note_on_c, 1, 81, 0
2, 8976, Note_on_c, 1, 85, 64
2, 9021, Note_on_c, 1, 85, 0
2, 9024, Note_on_c, 1, 81, 64
2, 9069, Note_on_c, 1, 81, 0
2, 9072, Note_on_c, 1, 78, 64
2, 9117, Note_on_c, 1, 78, 0
2, 9120, Note_on_c, 1, 75, 64
2, 9165, Note_on_c, 1, 75, 0
2, 9168, Note_on_c, 1, 83, 64
2, 9213, Note_on_c, 1, 83, 0
2, 9216, Note_on_c, 1, 76, 64
2, 9261, Note_on_c, 1, 76, 0
2, 9264, Note_on_c, 1, 71, 64
2, 9309, Note_on_c, 1, 71, 0
2, 9312, Note_on_c, 1, 73, 64
2, 9357, Note_on_c, 1, 73, 0
2, 9360, Note_on_c, 1, 76, 64
2, 9405, Note_on_c, 1, 76, 0
2, 9408, Note_on_c, 1, 81, 64
2, 9453, Note_on_c, 1, 81, 0
2, 9456, Note_on_c, 1, 75, 64
2, 9501, Note_on_c, 1, 75, 0
2, 9504, Note_on_c, 1, 76, 64
2, 9549, Note_on_c, 1, 76, 0
2, 9552, Note_on_c, 1, 80, 64
2, 9597, Note_on_c, 1, 80, 0
2, 9600, Note_on_c, 1, 83, 64
2, 10457, Note_on_c, 1, 83, 0
2, 10704, Note_on_c, 1, 71, 64
2, 10727, Note_on_c, 1, 71, 0
2, 10728, Note_on_c, 1, 73, 64
2, 10751, Note_on_c, 1, 73, 0
2, 10752, Note_on_c, 1, 74, 64
2, 10797, Note_on_c, 1, 74, 0
2, 10800, Note_on_c, 1, 74, 64
2, 10823, Note_on_c, 1, 74, 0
2, 10824, Note_on_c, 1, 76, 64
2, 10847, Note_on_c, 1, 76, 0
2, 10848, Note_on_c, 1, 78, 64
2, 10893, Note_on_c, 1, 78, 0
2, 10896, Note_on_c, 1, 80, 64
2, 10919, Note_on_c, 1, 80, 0
2, 10920, Note_on_c, 1, 82, 64
2, 10943, Note_on_c, 1, 82, 0
2, 10944, Note_on_c, 1, 83, 64
2, 10989, Note_on_c, 1, 83, 0
2, 10992, Note_on_c, 1, 81, 64
2, 11015, Note_on_c, 1, 81, 0
2, 11016, Note_on_c, 1, 79, 64
2, 11039, Note_on_c, 1, 79, 0
2, 11040, Note_on_c, 1, 78, 64
2, 11085, Note_on_c, 1, 78, 0
2, 11088, Note_on_c, 1, 76, 64
2, 11133, Note_on_c, 1, 76, 0
2, 11136, Note_on_c, 1, 74, 64
2, 11181, Note_on_c, 1, 74, 0
2, 11184, Note_on_c, 1, 73, 64
2, 11229, Note_on_c, 1, 73, 0
2, 11232, Note_on_c, 1, 74, 64
2, 11277, Note_on_c, 1, 74, 0
2, 11280, Note_on_c, 1, 71, 64
2, 11325, Note_on_c, 1, 71, 0
2, 11328, Note_on_c, 1, 66, 64
2, 11373, Note_on_c, 1, 66, 0
2, 11376, Note_on_c, 1, 62, 64
2, 11421, Note_on_c, 1, 62, 0
2, 11424, Note_on_c, 1, 61, 64
2, 11469, Note_on_c, 1, 61, 0
2, 11472, Note_on_c, 1, 78, 64
2, 11517, Note_on_c, 1, 78, 0
2, 11520, Note_on_c, 1, 78, 64
2, 11639, Note_on_c, 1, 78, 0
2, 11640, Note_on_c, 1, 83, 64
2, 11663, Note_on_c, 1, 83, 0
2, 11664, Note_on_c, 1, 81, 64
2, 11687, Note_on_c, 1, 81, 0
2, 11688, Note_on_c, 1, 79, 64
2, 11711, Note_on_c, 1, 79, 0
2, 11712, Note_on_c, 1, 78, 64
2, 11735, Note_on_c, 1, 78, 0
2, 11736, Note_on_c, 1, 83, 64
2, 11759, Note_on_c, 1, 83, 0
2, 11760, Note_on_c, 1, 76, 64
2, 11783, Note_on_c, 1, 76, 0
2, 11784, Note_on_c, 1, 82, 64
2, 11807, Note_on_c, 1, 82, 0
2, 11808, Note_on_c, 1, 83, 64
2, 11853, Note_on_c, 1, 83, 0
2, 11856, Note_on_c, 1, 74, 64
2, 11879, Note_on_c, 1, 74, 0
2, 11880, Note_on_c, 1, 73, 64
2, 11903, Note_on_c, 1, 73, 0
2, 11904, Note_on_c, 1, 74, 64
2, 11993, Note_on_c, 1, 74, 0
2, 12144, Note_on_c, 1, 73, 64
2, 12167, Note_on_c, 1, 73, 0
2, 12168, Note_on_c, 1, 71, 64
2, 12191, Note_on_c, 1, 71, 0
2, 12192, Note_on_c, 1, 73, 64
2, 12281, Note_on_c, 1, 73, 0
2, 12432, Note_on_c, 1, 71, 64
2, 12455, Note_on_c, 1, 71, 0
2, 12456, Note_on_c, 1, 69, 64
2, 12479, Note_on_c, 1, 69, 0
2, 12480, Note_on_c, 1, 71, 64
2, 12569, Note_on_c, 1, 71, 0
2, 12720, Note_on_c, 1, 73, 64
2, 12765, Note_on_c, 1, 73, 0
2, 12768, Note_on_c, 1, 69, 64
2, 12813, Note_on_c, 1, 69, 0
2, 12816, Note_on_c, 1, 66, 64
2, 12861, Note_on_c, 1, 66, 0
2, 12864, Note_on_c, 1, 73, 64
2, 12909, Note_on_c, 1, 73, 0
2, 12912, Note_on_c, 1, 77, 64
2, 12957, Note_on_c, 1, 77, 0
2, 12960, Note_on_c, 1, 78, 64
2, 13005, Note_on_c, 1, 78, 0
2, 13008, Note_on_c, 1, 73, 64
2, 13053, Note_on_c, 1, 73, 0
2, 13056, Note_on_c, 1, 69, 64
2, 13101, Note_on_c, 1, 69, 0
2, 13104, Note_on_c, 1, 66, 64
2, 13149, Note_on_c, 1, 66, 0
2, 13152, Note_on_c, 1, 73, 64
2, 13197, Note_on_c, 1, 73, 0
2, 13200, Note_on_c, 1, 77, 64
2, 13245, Note_on_c, 1, 77, 0
2, 13248, Note_on_c, 1, 78, 64
2, 13869, Note_on_c, 1, 78, 0
2, 13872, Note_on_c, 1, 71, 64
2, 13917, Note_on_c, 1, 71, 0
2, 13920, Note_on_c, 1, 68, 64
2, 13965, Note_on_c, 1, 68, 0
2, 13968, Note_on_c, 1, 64, 64
2, 14013, Note_on_c, 1, 64, 0
2, 14016, Note_on_c, 1, 71, 64
2, 14061, Note_on_c, 1, 71, 0
2, 14064, Note_on_c, 1, 75, 64
2, 14109, Note_on_c, 1, 75, 0
2, 14112, Note_on_c, 1, 76, 64
2, 14157, Note_on_c, 1, 76, 0
2, 14160, Note_on_c, 1, 71, 64
2, 14205, Note_on_c, 1, 71, 0
2, 14208, Note_on_c, 1, 68, 64
2, 14253, Note_on_c, 1, 68, 0
2, 14256, Note_on_c, 1, 64, 64
2, 14301, Note_on_c, 1, 64, 0
2, 14304, Note_on_c, 1, 71, 64
2, 14349, Note_on_c, 1, 71, 0
2, 14352, Note_on_c, 1, 75, 64
2, 14397, Note_on_c, 1, 75, 0
2, 14400, Note_on_c, 1, 76, 64
2, 14445, Note_on_c, 1, 76, 0
2, 14448, Note_on_c, 1, 64, 64
2, 14471, Note_on_c, 1, 64, 0
2, 14472, Note_on_c, 1, 66, 64
2, 14495, Note_on_c, 1, 66, 0
2, 14496, Note_on_c, 1, 68, 64
2, 14541, Note_on_c, 1, 68, 0
2, 14544, Note_on_c, 1, 68, 64
2, 14567, Note_on_c, 1, 68, 0
2, 14568, Note_on_c, 1, 69, 64
2, 14591, Note_on_c, 1, 69, 0
2, 14592, Note_on_c, 1, 71, 64
2, 14637, Note_on_c, 1, 71, 0
2, 14640, Note_on_c, 1, 73, 64
2, 14663, Note_on_c, 1, 73, 0
2, 14664, Note_on_c, 1, 74, 64
2, 14687, Note_on_c, 1, 74, 0
2, 14688, Note_on_c, 1, 76, 64
2, 14733, Note_on_c, 1, 76, 0
2, 14736, Note_on_c, 1, 69, 64
2, 14759, Note_on_c, 1, 69, 0
2, 14760, Note_on_c, 1, 71, 64
2, 14783, Note_on_c, 1, 71, 0
2, 14784, Note_on_c, 1, 73, 64
2, 14829, Note_on_c, 1, 73, 0
2, 14832, Note_on_c, 1, 73, 64
2, 14855, Note_on_c, 1, 73, 0
2, 14856, Note_on_c, 1, 74, 64
2, 14879, Note_on_c, 1, 74, 0
2, 14880, Note_on_c, 1, 76, 64
2, 14925, Note_on_c, 1, 76, 0
2, 14928, Note_on_c, 1, 78, 64
2, 14951, Note_on_c, 1, 78, 0
2, 14952, Note_on_c, 1, 80, 64
2, 14975, Note_on_c, 1, 80, 0
2, 14976, Note_on_c, 1, 81, 64
2, 15021, Note_on_c, 1, 81, 0
2, 15024, Note_on_c, 1, 73, 64
2, 15047, Note_on_c, 1, 73, 0
2, 15048, Note_on_c, 1, 74, 64
2, 15071, Note_on_c, 1, 74, 0
2, 15072, Note_on_c, 1, 76, 64
2, 15117, Note_on_c, 1, 76, 0
2, 15120, Note_on_c, 1, 69, 64
2, 15165, Note_on_c, 1, 69, 0
2, 15168, Note_on_c, 1, 68, 64
2, 15213, Note_on_c, 1, 68, 0
2, 15216, Note_on_c, 1, 74, 64
2, 15261, Note_on_c, 1, 74, 0
2, 15264, Note_on_c, 1, 73, 64
2, 15287, Note_on_c, 1, 73, 0
2, 15288, Note_on_c, 1, 71, 64
2, 15311, Note_on_c, 1, 71, 0
2, 15312, Note_on_c, 1, 73, 64
2, 15335, Note_on_c, 1, 73, 0
2, 15336, Note_on_c, 1, 74, 64
2, 15359, Note_on_c, 1, 74, 0
2, 15360, Note_on_c, 1, 76, 64
2, 15405, Note_on_c, 1, 76, 0
2, 15408, Note_on_c, 1, 69, 64
2, 15453, Note_on_c, 1, 69, 0
2, 15456, Note_on_c, 1, 64, 64
2, 15501, Note_on_c, 1, 64, 0
2, 15504, Note_on_c, 1, 67, 64
2, 15549, Note_on_c, 1, 67, 0
2, 15552, Note_on_c, 1, 66, 64
2, 15575, Note_on_c, 1, 66, 0
2, 15576, Note_on_c, 1, 67, 64
2, 15599, Note_on_c, 1, 67, 0
2, 15600, Note_on_c, 1, 66, 64
2, 15623, Note_on_c, 1, 66, 0
2, 15624, Note_on_c, 1, 64, 64
2, 15647, Note_on_c, 1, 64, 0
2, 15648, Note_on_c, 1, 62, 64
2, 15671, Note_on_c, 1, 62, 0
2, 15672, Note_on_c, 1, 61, 64
2, 15695, Note_on_c, 1, 61, 0
2, 15696, Note_on_c, 1, 59, 64
2, 15719, Note_on_c, 1, 59, 0
2, 15720, Note_on_c, 1, 57, 64
2, 15743, Note_on_c, 1, 57, 0
2, 15744, Note_on_c, 1, 56, 64
2, 15789, Note_on_c, 1, 56, 0
2, 15792, Note_on_c, 1, 68, 64
2, 15837, Note_on_c, 1, 68, 0
2, 15840, Note_on_c, 1, 69, 64
2, 15863, Note_on_c, 1, 69, 0
2, 15864, Note_on_c, 1, 71, 64
2, 15887, Note_on_c, 1, 71, 0
2, 15888, Note_on_c, 1, 69, 64
2, 15911, Note_on_c, 1, 69, 0
2, 15912, Note_on_c, 1, 68, 64
2, 15935, Note_on_c, 1, 68, 0
2, 15936, Note_on_c, 1, 66, 64
2, 15959, Note_on_c, 1, 66, 0
2, 15960, Note_on_c, 1, 64, 64
2, 15983, Note_on_c, 1, 64, 0
2, 15984, Note_on_c, 1, 62, 64
2, 16007, Note_on_c, 1, 62, 0
2, 16008, Note_on_c, 1, 61, 64
2, 16031, Note_on_c, 1, 61, 0
2, 16032, Note_on_c, 1, 59, 64
2, 16077, Note_on_c, 1, 59, 0
2, 16080, Note_on_c, 1, 71, 64
2, 16125, Note_on_c, 1, 71, 0
2, 16128, Note_on_c, 1, 73, 64
2, 16151, Note_on_c, 1, 73, 0
2, 16152, Note_on_c, 1, 74, 64
2, 16175, Note_on_c, 1, 74, 0
2, 16176, Note_on_c, 1, 73, 64
2, 16199, Note_on_c, 1, 73, 0
2, 16200, Note_on_c, 1, 71, 64
2, 16223, Note_on_c, 1, 71, 0
2, 16224, Note_on_c, 1, 69, 64
2, 16247, Note_on_c, 1, 69, 0
2, 16248, Note_on_c, 1, 68, 64
2, 16271, Note_on_c, 1, 68, 0
2, 16272, Note_on_c, 1, 66, 64
2, 16295, Note_on_c, 1, 66, 0
2, 16296, Note_on_c, 1, 64, 64
2, 16319, Note_on_c, 1, 64, 0
2, 16320, Note_on_c, 1, 62, 64
2, 16365, Note_on_c, 1, 62, 0
2, 16368, Note_on_c, 1, 74, 64
2, 16413, Note_on_c, 1, 74, 0
2, 16416, Note_on_c, 1, 64, 64
2, 16461, Note_on_c, 1, 64, 0
2, 16464, Note_on_c, 1, 68, 64
2, 16509, Note_on_c, 1, 68, 0
2, 16512, Note_on_c, 1, 71, 64
2, 16557, Note_on_c, 1, 71, 0
2, 16560, Note_on_c, 1, 74, 64
2, 16605, Note_on_c, 1, 74, 0
2, 16608, Note_on_c, 1, 76, 64
2, 16653, Note_on_c, 1, 76, 0
2, 16656, Note_on_c, 1, 80, 64
2, 16701, Note_on_c, 1, 80, 0
2, 16704, Note_on_c, 1, 64, 64
2, 16749, Note_on_c, 1, 64, 0
2, 16752, Note_on_c, 1, 69, 64
2, 16797, Note_on_c, 1, 69, 0
2, 16800, Note_on_c, 1, 73, 64
2, 16845, Note_on_c, 1, 73, 0
2, 16848, Note_on_c, 1, 76, 64
2, 16893, Note_on_c, 1, 76, 0
2, 16896, Note_on_c, 1, 80, 64
2, 16941, Note_on_c, 1, 80, 0
2, 16944, Note_on_c, 1, 81, 64
2, 16989, Note_on_c, 1, 81, 0
2, 16992, Note_on_c, 1, 64, 64
2, 17037, Note_on_c, 1, 64, 0
2, 17040, Note_on_c, 1, 68, 64
2, 17085, Note_on_c, 1, 68, 0
2, 17088, Note_on_c, 1, 71, 64
2, 17133, Note_on_c, 1, 71, 0
2, 17136, Note_on_c, 1, 74, 64
2, 17181, Note_on_c, 1, 74, 0
2, 17184, Note_on_c, 1, 76, 64
2, 17229, Note_on_c, 1, 76, 0
2, 17232, Note_on_c, 1, 80, 64
2, 17277, Note_on_c, 1, 80, 0
2, 17280, Note_on_c, 1, 64, 64
2, 17325, Note_on_c, 1, 64, 0
2, 17328, Note_on_c, 1, 69, 64
2, 17373, Note_on_c, 1, 69, 0
2, 17376, Note_on_c, 1, 73, 64
2, 17421, Note_on_c, 1, 73, 0
2, 17424, Note_on_c, 1, 76, 64
2, 17469, Note_on_c, 1, 76, 0
2, 17472, Note_on_c, 1, 80, 64
2, 17517, Note_on_c, 1, 80, 0
2, 17520, Note_on_c, 1, 81, 64
2, 17565, Note_on_c, 1, 81, 0
2, 17568, Note_on_c, 1, 61, 64
2, 17613, Note_on_c, 1, 61, 0
2, 17616, Note_on_c, 1, 65, 64
2, 17661, Note_on_c, 1, 65, 0
2, 17664, Note_on_c, 1, 68, 64
2, 17709, Note_on_c, 1, 68, 0
2, 17712, Note_on_c, 1, 71, 64
2, 17757, Note_on_c, 1, 71, 0
2, 17760, Note_on_c, 1, 73, 64
2, 17805, Note_on_c, 1, 73, 0
2, 17808, Note_on_c, 1, 77, 64
2, 17853, Note_on_c, 1, 77, 0
2, 17856, Note_on_c, 1, 61, 64
2, 17901, Note_on_c, 1, 61, 0
2, 17904, Note_on_c, 1, 66, 64
2, 17949, Note_on_c, 1, 66, 0
2, 17952, Note_on_c, 1, 69, 64
2, 17997, Note_on_c, 1, 69, 0
2, 18000, Note_on_c, 1, 73, 64
2, 18045, Note_on_c, 1, 73, 0
2, 18048, Note_on_c, 1, 77, 64
2, 18093, Note_on_c, 1, 77, 0
2, 18096, Note_on_c, 1, 78, 64
2, 18141, Note_on_c, 1, 78, 0
2, 18144, Note_on_c, 1, 61, 64
2, 18189, Note_on_c, 1, 61, 0
2, 18192, Note_on_c, 1, 65, 64
2, 18237, Note_on_c, 1, 65, 0
2, 18240, Note_on_c, 1, 68, 64
2, 18285, Note_on_c, 1, 68, 0
2, 18288, Note_on_c, 1, 71, 64
2, 18333, Note_on_c, 1, 71, 0
2, 18336, Note_on_c, 1, 73, 64
2, 18381, Note_on_c, 1, 73, 0
2, 18384, Note_on_c, 1, 77, 64
2, 18429, Note_on_c, 1, 77, 0
2, 18432, Note_on_c, 1, 61, 64
2, 18477, Note_on_c, 1, 61, 0
2, 18480, Note_on_c, 1, 66, 64
2, 18525, Note_on_c, 1, 66, 0
2, 18528, Note_on_c, 1, 69, 64
2, 18573, Note_on_c, 1, 69, 0
2, 18576, Note_on_c, 1, 73, 64
2, 18621, Note_on_c, 1, 73, 0
2, 18624, Note_on_c, 1, 77, 64
2, 18669, Note_on_c, 1, 77, 0
2, 18672, Note_on_c, 1, 78, 64
2, 18717, Note_on_c, 1, 78, 0
2, 18720, Note_on_c, 1, 57, 64
2, 18765, Note_on_c, 1, 57, 0
2, 18768, Note_on_c, 1, 61, 64
2, 18813, Note_on_c, 1, 61, 0
2, 18816, Note_on_c, 1, 64, 64
2, 18861, Note_on_c, 1, 64, 0
2, 18864, Note_on_c, 1, 67, 64
2, 18909, Note_on_c, 1, 67, 0
2, 18912, Note_on_c, 1, 69, 64
2, 18957, Note_on_c, 1, 69, 0
2, 18960, Note_on_c, 1, 73, 64
2, 19005, Note_on_c, 1, 73, 0
2, 19008, Note_on_c, 1, 57, 64
2, 19053, Note_on_c, 1, 57, 0
2, 19056, Note_on_c, 1, 62, 64
2, 19101, Note_on_c, 1, 62, 0
2, 19104, Note_on_c, 1, 66, 64
2, 19149, Note_on_c, 1, 66, 0
2, 19152, Note_on_c, 1, 69, 64
2, 19197, Note_on_c, 1, 69, 0
2, 19200, Note_on_c, 1, 73, 64
2, 19245, Note_on_c, 1, 73, 0
2, 19248, Note_on_c, 1, 74, 64
2, 19293, Note_on_c, 1, 74, 0
2, 19296, Note_on_c, 1, 57, 64
2, 19341, Note_on_c, 1, 57, 0
2, 19344, Note_on_c, 1, 61, 64
2, 19389, Note_on_c, 1, 61, 0
2, 19392, Note_on_c, 1, 64, 64
2, 19437, Note_on_c, 1, 64, 0
2, 19440, Note_on_c, 1, 67, 64
2, 19485, Note_on_c, 1, 67, 0
2, 19488, Note_on_c, 1, 69, 64
2, 19533, Note_on_c, 1, 69, 0
2, 19536, Note_on_c, 1, 73, 64
2, 19581, Note_on_c, 1, 73, 0
2, 19584, Note_on_c, 1, 57, 64
2, 19629, Note_on_c, 1, 57, 0
2, 19632, Note_on_c, 1, 62, 64
2, 19677, Note_on_c, 1, 62, 0
2, 19680, Note_on_c, 1, 66, 64
2, 19725, Note_on_c, 1, 66, 0
2, 19728, Note_on_c, 1, 69, 64
2, 19773, Note_on_c, 1, 69, 0
2, 19776, Note_on_c, 1, 73, 64
2, 19821, Note_on_c, 1, 73, 0
2, 19824, Note_on_c, 1, 74, 64
2, 19869, Note_on_c, 1, 74, 0
2, 19872, Note_on_c, 1, 56, 64
2, 19917, Note_on_c, 1, 56, 0
2, 19920, Note_on_c, 1, 59, 64
2, 19965, Note_on_c, 1, 59, 0
2, 19968, Note_on_c, 1, 64, 64
2, 20013, Note_on_c, 1, 64, 0
2, 20016, Note_on_c, 1, 68, 64
2, 20061, Note_on_c, 1, 68, 0
2, 20064, Note_on_c, 1, 71, 64
2, 20109, Note_on_c, 1, 71, 0
2, 20112, Note_on_c, 1, 76, 64
2, 20157, Note_on_c, 1, 76, 0
2, 20160, Note_on_c, 1, 57, 64
2, 20205, Note_on_c, 1, 57, 0
2, 20208, Note_on_c, 1, 61, 64
2, 20253, Note_on_c, 1, 61, 0
2, 20256, Note_on_c, 1, 64, 64
2, 20301, Note_on_c, 1, 64, 0
2, 20304, Note_on_c, 1, 69, 64
2, 20349, Note_on_c, 1, 69, 0
2, 20352, Note_on_c, 1, 73, 64
2, 20397, Note_on_c, 1, 73, 0
2, 20400, Note_on_c, 1, 76, 64
2, 20445, Note_on_c, 1, 76, 0
2, 20448, Note_on_c, 1, 59, 64
2, 20493, Note_on_c, 1, 59, 0
2, 20496, Note_on_c, 1, 66, 64
2, 20541, Note_on_c, 1, 66, 0
2, 20544, Note_on_c, 1, 71, 64
2, 20589, Note_on_c, 1, 71, 0
2, 20592, Note_on_c, 1, 75, 64
2, 20637, Note_on_c, 1, 75, 0
2, 20640, Note_on_c, 1, 81, 64
2, 20759, Note_on_c, 1, 81, 0
2, 20760, Note_on_c, 1, 80, 64
2, 20783, Note_on_c, 1, 80, 0
2, 20784, Note_on_c, 1, 78, 64
2, 20807, Note_on_c, 1, 78, 0
2, 20808, Note_on_c, 1, 76, 64
2, 20831, Note_on_c, 1, 76, 0
2, 20832, Note_on_c, 1, 78, 64
2, 20855, Note_on_c, 1, 78, 0
2, 20856, Note_on_c, 1, 80, 64
2, 20879, Note_on_c, 1, 80, 0
2, 20880, Note_on_c, 1, 81, 64
2, 20903, Note_on_c, 1, 81, 0
2, 20904, Note_on_c, 1, 83, 64
2, 20927, Note_on_c, 1, 83, 0
2, 20928, Note_on_c, 1, 85, 64
2, 20951, Note_on_c, 1, 85, 0
2, 20952, Note_on_c, 1, 87, 64
2, 20975, Note_on_c, 1, 87, 0
2, 20976, Note_on_c, 1, 88, 64
2, 20999, Note_on_c, 1, 88, 0
2, 21000, Note_on_c, 1, 87, 64
2, 21023, Note_on_c, 1, 87, 0
2, 21024, Note_on_c, 1, 71, 100
2, 21024, Note_on_c, 1, 80, 100
2, 21024, Note_on_c, 1, 88, 64
2, 21289, Note_on_c, 1, 88, 0
2, 21312, Note_on_c, 1, 80, 0
2, 21312, Note_on_c, 1, 71, 0
2, 21312, Note_on_c, 1, 80, 100
2, 21312, Note_on_c, 1, 71, 100
2, 21312, Note_on_c, 1, 88, 64
2, 21577, Note_on_c, 1, 88, 0
2, 21600, Note_on_c, 1, 71, 0
2, 21600, Note_on_c, 1, 80, 0
2, 21600, Note_on_c, 1, 73, 100
2, 21600, Note_on_c, 1, 76, 100
2, 21600, Note_on_c, 1, 81, 64
2, 21865, Note_on_c, 1, 81, 0
2, 21888, Note_on_c, 1, 76, 0
2, 21888, Note_on_c, 1, 73, 0
2, 21888, Note_on_c, 1, 73, 100
2, 21888, Note_on_c, 1, 76, 100
2, 21888, Note_on_c, 1, 81, 64
2, 22153, Note_on_c, 1, 81, 0
2, 22176, Note_on_c, 1, 76, 0
2, 22176, Note_on_c, 1, 73, 0
2, 22176, Note_on_c, 1, 69, 100
2, 22176, Note_on_c, 1, 78, 100
2, 22176, Note_on_c, 1, 87, 64
2, 22441, Note_on_c, 1, 87, 0
2, 22464, Note_on_c, 1, 78, 0
2, 22464, Note_on_c, 1, 69, 0
2, 22464, Note_on_c, 1, 69, 100
2, 22464, Note_on_c, 1, 78, 100
2, 22464, Note_on_c, 1, 87, 64
2, 22729, Note_on_c, 1, 87, 0
2, 22752, Note_on_c, 1, 78, 0
2, 22752, Note_on_c, 1, 69, 0
2, 22752, Note_on_c, 1, 71, 100
2, 22752, Note_on_c, 1, 80, 100
2, 22752, Note_on_c, 1, 88, 64
2, 23017, Note_on_c, 1, 88, 0
2, 23040, Note_on_c, 1, 80, 0
2, 23040, Note_on_c, 1, 71, 0
2, 23040, Note_on_c, 1, 69, 100
2, 23040, Note_on_c, 1, 78, 64
2, 23063, Note_on_c, 1, 78, 0
2, 23064, Note_on_c, 1, 69, 0
2, 23064, Note_on_c, 1, 88, 64
2, 23087, Note_on_c, 1, 88, 0
2, 23088, Note_on_c, 1, 86, 64
2, 23111, Note_on_c, 1, 86, 0
2, 23112, Note_on_c, 1, 85, 64
2, 23135, Note_on_c, 1, 85, 0
2, 23136, Note_on_c, 1, 83, 64
2, 23159, Note_on_c, 1, 83, 0
2, 23160, Note_on_c, 1, 81, 64
2, 23183, Note_on_c, 1, 81, 0
2, 23184, Note_on_c, 1, 80, 64
2, 23207, Note_on_c, 1, 80, 0
2, 23208, Note_on_c, 1, 78, 64
2, 23231, Note_on_c, 1, 78, 0
2, 23232, Note_on_c, 1, 76, 64
2, 23255, Note_on_c, 1, 76, 0
2, 23256, Note_on_c, 1, 74, 64
2, 23279, Note_on_c, 1, 74, 0
2, 23280, Note_on_c, 1, 73, 64
2, 23303, Note_on_c, 1, 73, 0
2, 23304, Note_on_c, 1, 71, 64
2, 23327, Note_on_c, 1, 71, 0
2, 23328, Note_on_c, 1, 78, 100
2, 23328, Note_on_c, 1, 69, 100
2, 23328, Note_on_c, 1, 86, 64
2, 23593, Note_on_c, 1, 86, 0
2, 23616, Note_on_c, 1, 69, 0
2, 23616, Note_on_c, 1, 78, 0
2, 23616, Note_on_c, 1, 66, 100
2, 23616, Note_on_c, 1, 76, 64
2, 23639, Note_on_c, 1, 76, 0
2, 23640, Note_on_c, 1, 66, 0
2, 23640, Note_on_c, 1, 86, 64
2, 23663, Note_on_c, 1, 86, 0
2, 23664, Note_on_c, 1, 85, 64
2, 23687, Note_on_c, 1, 85, 0
2, 23688, Note_on_c, 1, 83, 64
2, 23711, Note_on_c, 1, 83, 0
2, 23712, Note_on_c, 1, 81, 64
2, 23735, Note_on_c, 1, 81, 0
2, 23736, Note_on_c, 1, 80, 64
2, 23759, Note_on_c, 1, 80, 0
2, 23760, Note_on_c, 1, 78, 64
2, 23783, Note_on_c, 1, 78, 0
2, 23784, Note_on_c, 1, 76, 64
2, 23807, Note_on_c, 1, 76, 0
2, 23808, Note_on_c, 1, 85, 100
2, 23808, Note_on_c, 1, 74, 64
2, 23831, Note_on_c, 1, 74, 0
2, 23832, Note_on_c, 1, 73, 64
2, 23855, Note_on_c, 1, 73, 0
2, 23856, Note_on_c, 1, 71, 64
2, 23879, Note_on_c, 1, 71, 0
2, 23880, Note_on_c, 1, 69, 64
2, 23903, Note_on_c, 1, 69, 0
2, 23904, Note_on_c, 1, 85, 0
2, 23904, Note_on_c, 1, 68, 100
2, 23904, Note_on_c, 1, 76, 100
2, 23904, Note_on_c, 1, 85, 64
2, 24169, Note_on_c, 1, 85, 0
2, 24192, Note_on_c, 1, 76, 0
2, 24192, Note_on_c, 1, 68, 0
2, 24192, Note_on_c, 1, 66, 100
2, 24192, Note_on_c, 1, 74, 64
2, 24215, Note_on_c, 1, 74, 0
2, 24216, Note_on_c, 1, 66, 0
2, 24216, Note_on_c, 1, 85, 64
2, 24239, Note_on_c, 1, 85, 0
2, 24240, Note_on_c, 1, 83, 64
2, 24263, Note_on_c, 1, 83, 0
2, 24264, Note_on_c, 1, 81, 64
2, 24287, Note_on_c, 1, 81, 0
2, 24288, Note_on_c, 1, 80, 64
2, 24311, Note_on_c, 1, 80, 0
2, 24312, Note_on_c, 1, 78, 64
2, 24335, Note_on_c, 1, 78, 0
2, 24336, Note_on_c, 1, 76, 64
2, 24359, Note_on_c, 1, 76, 0
2, 24360, Note_on_c, 1, 74, 64
2, 24383, Note_on_c, 1, 74, 0
2, 24384, Note_on_c, 1, 73, 64
2, 24407, Note_on_c, 1, 73, 0
2, 24408, Note_on_c, 1, 71, 64
2, 24431, Note_on_c, 1, 71, 0
2, 24432, Note_on_c, 1, 69, 64
2, 24455, Note_on_c, 1, 69, 0
2, 24456, Note_on_c, 1, 68, 64
2, 24479, Note_on_c, 1, 68, 0
2, 24480, Note_on_c, 1, 66, 100
2, 24480, Note_on_c, 1, 74, 100
2, 24480, Note_on_c, 1, 83, 64
2, 24745, Note_on_c, 1, 83, 0
2, 24768, Note_on_c, 1, 74, 0
2, 24768, Note_on_c, 1, 66, 0
2, 24768, Note_on_c, 1, 64, 100
2, 24768, Note_on_c, 1, 73, 64
2, 24791, Note_on_c, 1, 73, 0
2, 24792, Note_on_c, 1, 64, 0
2, 24792, Note_on_c, 1, 83, 64
2, 24815, Note_on_c, 1, 83, 0
2, 24816, Note_on_c, 1, 81, 64
2, 24839, Note_on_c, 1, 81, 0
2, 24840, Note_on_c, 1, 80, 64
2, 24863, Note_on_c, 1, 80, 0
2, 24864, Note_on_c, 1, 78, 64
2, 24887, Note_on_c, 1, 78, 0
2, 24888, Note_on_c, 1, 76, 64
2, 24911, Note_on_c, 1, 76, 0
2, 24912, Note_on_c, 1, 74, 64
2, 24935, Note_on_c, 1, 74, 0
2, 24936, Note_on_c, 1, 73, 64
2, 24959, Note_on_c, 1, 73, 0
2, 24960, Note_on_c, 1, 71, 64
2, 24983, Note_on_c, 1, 71, 0
2, 24984, Note_on_c, 1, 69, 64
2, 25007, Note_on_c, 1, 69, 0
2, 25008, Note_on_c, 1, 68, 64
2, 25031, Note_on_c, 1, 68, 0
2, 25032, Note_on_c, 1, 66, 64
2, 25055, Note_on_c, 1, 66, 0
2, 25056, Note_on_c, 1, 64, 100
2, 25056, Note_on_c, 1, 73, 100
2, 25056, Note_on_c, 1, 81, 64
2, 25321, Note_on_c, 1, 81, 0
2, 25344, Note_on_c, 1, 73, 0
2, 25344, Note_on_c, 1, 64, 0
2, 25344, Note_on_c, 1, 63, 100
2, 25344, Note_on_c, 1, 72, 100
2, 25344, Note_on_c, 1, 81, 64
2, 25609, Note_on_c, 1, 81, 0
2, 25632, Note_on_c, 1, 72, 0
2, 25632, Note_on_c, 1, 63, 0
2, 25632, Note_on_c, 1, 63, 100
2, 25632, Note_on_c, 1, 71, 100
2, 25632, Note_on_c, 1, 81, 64
2, 25897, Note_on_c, 1, 81, 0
2, 25920, Note_on_c, 1, 71, 0
2, 25920, Note_on_c, 1, 63, 0
2, 25920, Note_on_c, 1, 64, 100
2, 25920, Note_on_c, 1, 71, 100
2, 25920, Note_on_c, 1, 80, 64
2, 26185, Note_on_c, 1, 80, 0
2, 26208, Note_on_c, 1, 71, 0
2, 26208, Note_on_c, 1, 64, 0
2, 26208, Note_on_c, 1, 64, 100
2, 26208, Note_on_c, 1, 71, 100
2, 26208, Note_on_c, 1, 80, 64
2, 26297, Note_on_c, 1, 80, 0
2, 26304, Note_on_c, 1, 71, 0
2, 26304, Note_on_c, 1, 64, 0
2, 26544, Note_on_c, 1, 69, 64
2, 26567, Note_on_c, 1, 69, 0
2, 26568, Note_on_c, 1, 71, 64
2, 26591, Note_on_c, 1, 71, 0
2, 26592, Note_on_c, 1, 73, 64
2, 26637, Note_on_c, 1, 73, 0
2, 26640, Note_on_c, 1, 73, 64
2, 26663, Note_on_c, 1, 73, 0
2, 26664, Note_on_c, 1, 74, 64
2, 26687, Note_on_c, 1, 74, 0
2, 26688, Note_on_c, 1, 76, 64
2, 26733, Note_on_c, 1, 76, 0
2, 26736, Note_on_c, 1, 78, 64
2, 26759, Note_on_c, 1, 78, 0
2, 26760, Note_on_c, 1, 80, 64
2, 26783, Note_on_c, 1, 80, 0
2, 26784, Note_on_c, 1, 81, 64
2, 26829, Note_on_c, 1, 81, 0
2, 26832, Note_on_c, 1, 80, 64
2, 26855, Note_on_c, 1, 80, 0
2, 26856, Note_on_c, 1, 78, 64
2, 26879, Note_on_c, 1, 78, 0
2, 26880, Note_on_c, 1, 76, 64
2, 26925, Note_on_c, 1, 76, 0
2, 26928, Note_on_c, 1, 74, 64
2, 26973, Note_on_c, 1, 74, 0
2, 26976, Note_on_c, 1, 73, 64
2, 27021, Note_on_c, 1, 73, 0
2, 27024, Note_on_c, 1, 71, 64
2, 27069, Note_on_c, 1, 71, 0
2, 27072, Note_on_c, 1, 69, 64
2, 27117, Note_on_c, 1, 69, 0
2, 27120, Note_on_c, 1, 74, 64
2, 27143, Note_on_c, 1, 74, 0
2, 27144, Note_on_c, 1, 73, 64
2, 27167, Note_on_c, 1, 73, 0
2, 27168, Note_on_c, 1, 74, 64
2, 27213, Note_on_c, 1, 74, 0
2, 27216, Note_on_c, 1, 78, 64
2, 27261, Note_on_c, 1, 78, 0
2, 27264, Note_on_c, 1, 71, 64
2, 27309, Note_on_c, 1, 71, 0
2, 27312, Note_on_c, 1, 76, 64
2, 27357, Note_on_c, 1, 76, 0
2, 27360, Note_on_c, 1, 73, 64
2, 27405, Note_on_c, 1, 73, 0
2, 27408, Note_on_c, 1, 78, 64
2, 27431, Note_on_c, 1, 78, 0
2, 27432, Note_on_c, 1, 76, 64
2, 27455, Note_on_c, 1, 76, 0
2, 27456, Note_on_c, 1, 78, 64
2, 27501, Note_on_c, 1, 78, 0
2, 27504, Note_on_c, 1, 81, 64
2, 27549, Note_on_c, 1, 81, 0
2, 27552, Note_on_c, 1, 75, 64
2, 27597, Note_on_c, 1, 75, 0
2, 27600, Note_on_c, 1, 80, 64
2, 27645, Note_on_c, 1, 80, 0
2, 27648, Note_on_c, 1, 76, 64
2, 27693, Note_on_c, 1, 76, 0
2, 27696, Note_on_c, 1, 81, 64
2, 27719, Note_on_c, 1, 81, 0
2, 27720, Note_on_c, 1, 80, 64
2, 27743, Note_on_c, 1, 80, 0
2, 27744, Note_on_c, 1, 81, 64
2, 27789, Note_on_c, 1, 81, 0
2, 27792, Note_on_c, 1, 85, 64
2, 27837, Note_on_c, 1, 85, 0
2, 27840, Note_on_c, 1, 78, 64
2, 27885, Note_on_c, 1, 78, 0
2, 27888, Note_on_c, 1, 83, 64
2, 27933, Note_on_c, 1, 83, 0
2, 27936, Note_on_c, 1, 80, 64
2, 27959, Note_on_c, 1, 80, 0
2, 27960, Note_on_c, 1, 78, 64
2, 27983, Note_on_c, 1, 78, 0
2, 27984, Note_on_c, 1, 80, 64
2, 28007, Note_on_c, 1, 80, 0
2, 28008, Note_on_c, 1, 81, 64
2, 28031, Note_on_c, 1, 81, 0
2, 28032, Note_on_c, 1, 83, 64
2, 28077, Note_on_c, 1, 83, 0
2, 28080, Note_on_c, 1, 76, 64
2, 28125, Note_on_c, 1, 76, 0
2, 28128, Note_on_c, 1, 75, 64
2, 28173, Note_on_c, 1, 75, 0
2, 28176, Note_on_c, 1, 81, 64
2, 28221, Note_on_c, 1, 81, 0
2, 28224, Note_on_c, 1, 80, 64
2, 28247, Note_on_c, 1, 80, 0
2, 28248, Note_on_c, 1, 78, 64
2, 28271, Note_on_c, 1, 78, 0
2, 28272, Note_on_c, 1, 80, 64
2, 28295, Note_on_c, 1, 80, 0
2, 28296, Note_on_c, 1, 81, 64
2, 28319, Note_on_c, 1, 81, 0
2, 28320, Note_on_c, 1, 83, 64
2, 28365, Note_on_c, 1, 83, 0
2, 28368, Note_on_c, 1, 76, 64
2, 28413, Note_on_c, 1, 76, 0
2, 28416, Note_on_c, 1, 71, 64
2, 28461, Note_on_c, 1, 71, 0
2, 28464, Note_on_c, 1, 74, 64
2, 28509, Note_on_c, 1, 74, 0
2, 28512, Note_on_c, 1, 73, 64
2, 28535, Note_on_c, 1, 73, 0
2, 28536, Note_on_c, 1, 74, 64
2, 28559, Note_on_c, 1, 74, 0
2, 28560, Note_on_c, 1, 73, 64
2, 28583, Note_on_c, 1, 73, 0
2, 28584, Note_on_c, 1, 71, 64
2, 28607, Note_on_c, 1, 71, 0
2, 28608, Note_on_c, 1, 69, 64
2, 28631, Note_on_c, 1, 69, 0
2, 28632, Note_on_c, 1, 68, 64
2, 28655, Note_on_c, 1, 68, 0
2, 28656, Note_on_c, 1, 66, 64
2, 28679, Note_on_c, 1, 66, 0
2, 28680, Note_on_c, 1, 64, 64
2, 28703, Note_on_c, 1, 64, 0
2, 28704, Note_on_c, 1, 63, 64
2, 28749, Note_on_c, 1, 63, 0
2, 28752, Note_on_c, 1, 76, 64
2, 28776, Note_on_c, 1, 76, 0
2, 28776, Note_on_c, 1, 75, 64
2, 28799, Note_on_c, 1, 75, 0
2, 28800, Note_on_c, 1, 76, 64
2, 28977, Note_on_c, 1, 76, 0
2, 28992, Note_on_c, 1, 74, 64
2, 29177, Note_on_c, 1, 74, 0
2, 29184, Note_on_c, 1, 73, 64
2, 29229, Note_on_c, 1, 73, 0
2, 29232, Note_on_c, 1, 71, 64
2, 29277, Note_on_c, 1, 71, 0
2, 29280, Note_on_c, 1, 73, 64
2, 29421, Note_on_c, 1, 73, 0
2, 29424, Note_on_c, 1, 81, 64
2, 29447, Note_on_c, 1, 81, 0
2, 29448, Note_on_c, 1, 80, 64
2, 29471, Note_on_c, 1, 80, 0
2, 29472, Note_on_c, 1, 78, 64
2, 29495, Note_on_c, 1, 78, 0
2, 29496, Note_on_c, 1, 76, 64
2, 29519, Note_on_c, 1, 76, 0
2, 29520, Note_on_c, 1, 74, 64
2, 29543, Note_on_c, 1, 74, 0
2, 29544, Note_on_c, 1, 73, 64
2, 29567, Note_on_c, 1, 73, 0
2, 29568, Note_on_c, 1, 71, 64
2, 29591, Note_on_c, 1, 71, 0
2, 29592, Note_on_c, 1, 69, 64
2, 29615, Note_on_c, 1, 69, 0
2, 29616, Note_on_c, 1, 71, 64
2, 29639, Note_on_c, 1, 71, 0
2, 29640, Note_on_c, 1, 68, 64
2, 29663, Note_on_c, 1, 68, 0
2, 29664, Note_on_c, 1, 69, 64
2, 29753, Note_on_c, 1, 69, 0
2, 29856, Note_on_c, 1, 76, 64
2, 29945, Note_on_c, 1, 76, 0
2, 29952, Note_on_c, 1, 76, 64
2, 30329, Note_on_c, 1, 76, 0
2, 30336, Note_on_c, 1, 78, 64
2, 30425, Note_on_c, 1, 78, 0
2, 30432, Note_on_c, 1, 80, 64
2, 30617, Note_on_c, 1, 80, 0
2, 30624, Note_on_c, 1, 81, 64
2, 30713, Note_on_c, 1, 81, 0
2, 30720, Note_on_c, 1, 83, 64
2, 30905, Note_on_c, 1, 83, 0
2, 30912, Note_on_c, 1, 85, 64
2, 31001, Note_on_c, 1, 85, 0
2, 31008, Note_on_c, 1, 87, 64
2, 31097, Note_on_c, 1, 87, 0
2, 31104, Note_on_c, 1, 88, 64
2, 31149, Note_on_c, 1, 88, 0
2, 31152, Note_on_c, 1, 86, 64
2, 31175, Note_on_c, 1, 86, 0
2, 31176, Note_on_c, 1, 85, 64
2, 31199, Note_on_c, 1, 85, 0
2, 31200, Note_on_c, 1, 83, 64
2, 31223, Note_on_c, 1, 83, 0
2, 31224, Note_on_c, 1, 81, 64
2, 31247, Note_on_c, 1, 81, 0
2, 31248, Note_on_c, 1, 80, 64
2, 31271, Note_on_c, 1, 80, 0
2, 31272, Note_on_c, 1, 78, 64
2, 31295, Note_on_c, 1, 78, 0
2, 31296, Note_on_c, 1, 76, 64
2, 31319, Note_on_c, 1, 76, 0
2, 31320, Note_on_c, 1, 80, 64
2, 31343, Note_on_c, 1, 80, 0
2, 31344, Note_on_c, 1, 78, 64
2, 31367, Note_on_c, 1, 78, 0
2, 31368, Note_on_c, 1, 76, 64
2, 31391, Note_on_c, 1, 76, 0
2, 31392, Note_on_c, 1, 81, 64
2, 31437, Note_on_c, 1, 81, 0
2, 31440, Note_on_c, 1, 76, 64
2, 31485, Note_on_c, 1, 76, 0
2, 31488, Note_on_c, 1, 73, 64
2, 31533, Note_on_c, 1, 73, 0
2, 31536, Note_on_c, 1, 69, 64
2, 31581, Note_on_c, 1, 69, 0
2, 31584, Note_on_c, 1, 79, 64
2, 31680, Note_on_c, 1, 79, 0
2, 31680, Note_on_c, 1, 78, 64
2, 31725, Note_on_c, 1, 78, 0
2, 31728, Note_on_c, 1, 74, 64
2, 31773, Note_on_c, 1, 74, 0
2, 31776, Note_on_c, 1, 69, 64
2, 31821, Note_on_c, 1, 69, 0
2, 31824, Note_on_c, 1, 66, 64
2, 31869, Note_on_c, 1, 66, 0
2, 31872, Note_on_c, 1, 78, 64
2, 32057, Note_on_c, 1, 78, 0
2, 32064, Note_on_c, 1, 76, 64
2, 32109, Note_on_c, 1, 76, 0
2, 32112, Note_on_c, 1, 74, 64
2, 32157, Note_on_c, 1, 74, 0
2, 32160, Note_on_c, 1, 76, 64
2, 32345, Note_on_c, 1, 76, 0
2, 32352, Note_on_c, 1, 74, 64
2, 32397, Note_on_c, 1, 74, 0
2, 32400, Note_on_c, 1, 73, 64
2, 32445, Note_on_c, 1, 73, 0
2, 32448, Note_on_c, 1, 74, 64
2, 32633, Note_on_c, 1, 74, 0
2, 32640, Note_on_c, 1, 73, 64
2, 32685, Note_on_c, 1, 73, 0
2, 32688, Note_on_c, 1, 71, 64
2, 32733, Note_on_c, 1, 71, 0
2, 32736, Note_on_c, 1, 73, 64
2, 32921, Note_on_c, 1, 73, 0
2, 32928, Note_on_c, 1, 71, 64
2, 32973, Note_on_c, 1, 71, 0
2, 32976, Note_on_c, 1, 69, 64
2, 33021, Note_on_c, 1, 69, 0
2, 33024, Note_on_c, 1, 68, 64
2, 33069, Note_on_c, 1, 68, 0
2, 33072, Note_on_c, 1, 76, 64
2, 33143, Note_on_c, 1, 76, 0
2, 33144, Note_on_c, 1, 80, 64
2, 33167, Note_on_c, 1, 80, 0
2, 33168, Note_on_c, 1, 78, 64
2, 33191, Note_on_c, 1, 78, 0
2, 33192, Note_on_c, 1, 76, 64
2, 33215, Note_on_c, 1, 76, 0
2, 33216, Note_on_c, 1, 74, 64
2, 33239, Note_on_c, 1, 74, 0
2, 33240, Note_on_c, 1, 73, 64
2, 33263, Note_on_c, 1, 73, 0
2, 33264, Note_on_c, 1, 71, 64
2, 33287, Note_on_c, 1, 71, 0
2, 33288, Note_on_c, 1, 69, 64
2, 33311, Note_on_c, 1, 69, 0
2, 33312, Note_on_c, 1, 68, 64
2, 33357, Note_on_c, 1, 68, 0
2, 33360, Note_on_c, 1, 80, 64
2, 33431, Note_on_c, 1, 80, 0
2, 33432, Note_on_c, 1, 83, 64
2, 33455, Note_on_c, 1, 83, 0
2, 33456, Note_on_c, 1, 81, 64
2, 33479, Note_on_c, 1, 81, 0
2, 33480, Note_on_c, 1, 80, 64
2, 33503, Note_on_c, 1, 80, 0
2, 33504, Note_on_c, 1, 78, 64
2, 33527, Note_on_c, 1, 78, 0
2, 33528, Note_on_c, 1, 76, 64
2, 33551, Note_on_c, 1, 76, 0
2, 33552, Note_on_c, 1, 74, 64
2, 33575, Note_on_c, 1, 74, 0
2, 33576, Note_on_c, 1, 73, 64
2, 33599, Note_on_c, 1, 73, 0
2, 33600, Note_on_c, 1, 71, 64
2, 33645, Note_on_c, 1, 71, 0
2, 33648, Note_on_c, 1, 83, 64
2, 33719, Note_on_c, 1, 83, 0
2, 33720, Note_on_c, 1, 86, 64
2, 33743, Note_on_c, 1, 86, 0
2, 33744, Note_on_c, 1, 85, 64
2, 33767, Note_on_c, 1, 85, 0
2, 33768, Note_on_c, 1, 83, 64
2, 33791, Note_on_c, 1, 83, 0
2, 33792, Note_on_c, 1, 81, 64
2, 33815, Note_on_c, 1, 81, 0
2, 33816, Note_on_c, 1, 80, 64
2, 33839, Note_on_c, 1, 80, 0
2, 33840, Note_on_c, 1, 78, 64
2, 33863, Note_on_c, 1, 78, 0
2, 33864, Note_on_c, 1, 76, 64
2, 33887, Note_on_c, 1, 76, 0
2, 33888, Note_on_c, 1, 74, 64
2, 33933, Note_on_c, 1, 74, 0
2, 33936, Note_on_c, 1, 86, 64
2, 33981, Note_on_c, 1, 86, 0
2, 33984, Note_on_c, 1, 86, 64
2, 34249, Note_on_c, 1, 86, 0
2, 34272, Note_on_c, 1, 85, 64
2, 34339, Note_on_c, 1, 85, 0
2, 34344, Note_on_c, 1, 83, 64
2, 34367, Note_on_c, 1, 83, 0
2, 34368, Note_on_c, 1, 80, 64
2, 34380, Note_on_c, 1, 80, 0
2, 34380, Note_on_c, 1, 81, 64
2, 34392, Note_on_c, 1, 81, 0
2, 34392, Note_on_c, 1, 80, 64
2, 34404, Note_on_c, 1, 80, 0
2, 34404, Note_on_c, 1, 81, 64
2, 34416, Note_on_c, 1, 81, 0
2, 34416, Note_on_c, 1, 80, 64
2, 34428, Note_on_c, 1, 80, 0
2, 34428, Note_on_c, 1, 81, 64
2, 34440, Note_on_c, 1, 81, 0
2, 34440, Note_on_c, 1, 80, 64
2, 34452, Note_on_c, 1, 80, 0
2, 34452, Note_on_c, 1, 81, 64
2, 34464, Note_on_c, 1, 81, 0
2, 34464, Note_on_c, 1, 80, 64
2, 34476, Note_on_c, 1, 80, 0
2, 34476, Note_on_c, 1, 81, 64
2, 34488, Note_on_c, 1, 81, 0
2, 34488, Note_on_c, 1, 80, 64
2, 34500, Note_on_c, 1, 80, 0
2, 34500, Note_on_c, 1, 81, 64
2, 34512, Note_on_c, 1, 81, 0
2, 34512, Note_on_c, 1, 81, 64
2, 34557, Note_on_c, 1, 81, 0
2, 34560, Note_on_c, 1, 81, 64
2, 34605, Note_on_c, 1, 81, 0
2, 34608, Note_on_c, 1, 69, 64
2, 34631, Note_on_c, 1, 69, 0
2, 34632, Note_on_c, 1, 71, 64
2, 34655, Note_on_c, 1, 71, 0
2, 34656, Note_on_c, 1, 73, 64
2, 34701, Note_on_c, 1, 73, 0
2, 34704, Note_on_c, 1, 73, 64
2, 34727, Note_on_c, 1, 73, 0
2, 34728, Note_on_c, 1, 74, 64
2, 34751, Note_on_c, 1, 74, 0
2, 34752, Note_on_c, 1, 76, 64
2, 34797, Note_on_c, 1, 76, 0
2, 34800, Note_on_c, 1, 78, 64
2, 34823, Note_on_c, 1, 78, 0
2, 34824, Note_on_c, 1, 80, 64
2, 34847, Note_on_c, 1, 80, 0
2, 34848, Note_on_c, 1, 81, 64
2, 34937, Note_on_c, 1, 81, 0
2, 34937, End_track
3, 0, Start_track
3, 0, MIDI_port, 0
3, 0, Title_t, "Clavier (RH)"
3, 0, Program_c, 0, 6
3, 0, Control_c, 0, 7, 127
3, 1488, Note_on_c, 0, 64, 64
3, 1511, Note_on_c, 0, 64, 0
3, 1512, Note_on_c, 0, 66, 64
3, 1535, Note_on_c, 0, 66, 0
3, 1536, Note_on_c, 0, 68, 64
3, 1581, Note_on_c, 0, 68, 0
3, 1584, Note_on_c, 0, 68, 64
3, 1607, Note_on_c, 0, 68, 0
3, 1608, Note_on_c, 0, 69, 64
3, 1631, Note_on_c, 0, 69, 0
3, 1632, Note_on_c, 0, 71, 64
3, 1677, Note_on_c, 0, 71, 0
3, 1680, Note_on_c, 0, 73, 64
3, 1703, Note_on_c, 0, 73, 0
3, 1704, Note_on_c, 0, 75, 64
3, 1727, Note_on_c, 0, 75, 0
3, 1728, Note_on_c, 0, 76, 64
3, 1773, Note_on_c, 0, 76, 0
3, 1776, Note_on_c, 0, 75, 64
3, 1799, Note_on_c, 0, 75, 0
3, 1800, Note_on_c, 0, 73, 64
3, 1823, Note_on_c, 0, 73, 0
3, 1824, Note_on_c, 0, 71, 64
3, 1869, Note_on_c, 0, 71, 0
3, 1872, Note_on_c, 0, 69, 64
3, 1917, Note_on_c, 0, 69, 0
3, 1920, Note_on_c, 0, 68, 64
3, 1965, Note_on_c, 0, 68, 0
3, 1968, Note_on_c, 0, 66, 64
3, 2013, Note_on_c, 0, 66, 0
3, 2016, Note_on_c, 0, 64, 64
3, 2061, Note_on_c, 0, 64, 0
3, 2064, Note_on_c, 0, 69, 64
3, 2087, Note_on_c, 0, 69, 0
3, 2088, Note_on_c, 0, 68, 64
3, 2111, Note_on_c, 0, 68, 0
3, 2112, Note_on_c, 0, 69, 64
3, 2157, Note_on_c, 0, 69, 0
3, 2160, Note_on_c, 0, 73, 64
3, 2205, Note_on_c, 0, 73, 0
3, 2208, Note_on_c, 0, 66, 64
3, 2253, Note_on_c, 0, 66, 0
3, 2256, Note_on_c, 0, 71, 64
3, 2301, Note_on_c, 0, 71, 0
3, 2304, Note_on_c, 0, 68, 64
3, 2349, Note_on_c, 0, 68, 0
3, 2352, Note_on_c, 0, 73, 64
3, 2375, Note_on_c, 0, 73, 0
3, 2376, Note_on_c, 0, 71, 64
3, 2399, Note_on_c, 0, 71, 0
3, 2400, Note_on_c, 0, 73, 64
3, 2445, Note_on_c, 0, 73, 0
3, 2448, Note_on_c, 0, 76, 64
3, 2493, Note_on_c, 0, 76, 0
3, 2496, Note_on_c, 0, 69, 64
3, 2541, Note_on_c, 0, 69, 0
3, 2544, Note_on_c, 0, 74, 64
3, 2589, Note_on_c, 0, 74, 0
3, 2592, Note_on_c, 0, 71, 64
3, 2637, Note_on_c, 0, 71, 0
3, 2640, Note_on_c, 0, 76, 64
3, 2663, Note_on_c, 0, 76, 0
3, 2664, Note_on_c, 0, 74, 64
3, 2687, Note_on_c, 0, 74, 0
3, 2688, Note_on_c, 0, 76, 64
3, 2733, Note_on_c, 0, 76, 0
3, 2736, Note_on_c, 0, 80, 64
3, 2781, Note_on_c, 0, 80, 0
3, 2784, Note_on_c, 0, 73, 64
3, 2829, Note_on_c, 0, 73, 0
3, 2832, Note_on_c, 0, 78, 64
3, 2877, Note_on_c, 0, 78, 0
3, 2880, Note_on_c, 0, 74, 64
3, 2903, Note_on_c, 0, 74, 0
3, 2904, Note_on_c, 0, 73, 64
3, 2927, Note_on_c, 0, 73, 0
3, 2928, Note_on_c, 0, 74, 64
3, 2951, Note_on_c, 0, 74, 0
3, 2952, Note_on_c, 0, 76, 64
3, 2975, Note_on_c, 0, 76, 0
3, 2976, Note_on_c, 0, 78, 64
3, 3021, Note_on_c, 0, 78, 0
3, 3024, Note_on_c, 0, 69, 64
3, 3069, Note_on_c, 0, 69, 0
3, 3072, Note_on_c, 0, 68, 64
3, 3117, Note_on_c, 0, 68, 0
3, 3120, Note_on_c, 0, 74, 64
3, 3165, Note_on_c, 0, 74, 0
3, 3168, Note_on_c, 0, 73, 64
3, 3191, Note_on_c, 0, 73, 0
3, 3192, Note_on_c, 0, 71, 64
3, 3215, Note_on_c, 0, 71, 0
3, 3216, Note_on_c, 0, 73, 64
3, 3239, Note_on_c, 0, 73, 0
3, 3240, Note_on_c, 0, 74, 64
3, 3263, Note_on_c, 0, 74, 0
3, 3264, Note_on_c, 0, 76, 64
3, 3309, Note_on_c, 0, 76, 0
3, 3312, Note_on_c, 0, 69, 64
3, 3357, Note_on_c, 0, 69, 0
3, 3360, Note_on_c, 0, 68, 64
3, 3405, Note_on_c, 0, 68, 0
3, 3408, Note_on_c, 0, 74, 64
3, 3453, Note_on_c, 0, 74, 0
3, 3456, Note_on_c, 0, 73, 64
3, 3479, Note_on_c, 0, 73, 0
3, 3480, Note_on_c, 0, 71, 64
3, 3503, Note_on_c, 0, 71, 0
3, 3504, Note_on_c, 0, 73, 64
3, 3527, Note_on_c, 0, 73, 0
3, 3528, Note_on_c, 0, 74, 64
3, 3551, Note_on_c, 0, 74, 0
3, 3552, Note_on_c, 0, 76, 64
3, 3597, Note_on_c, 0, 76, 0
3, 3600, Note_on_c, 0, 69, 64
3, 3645, Note_on_c, 0, 69, 0
3, 3648, Note_on_c, 0, 64, 64
3, 3693, Note_on_c, 0, 64, 0
3, 3696, Note_on_c, 0, 67, 64
3, 3741, Note_on_c, 0, 67, 0
3, 3744, Note_on_c, 0, 66, 64
3, 3767, Note_on_c, 0, 66, 0
3, 3768, Note_on_c, 0, 67, 64
3, 3791, Note_on_c, 0, 67, 0
3, 3792, Note_on_c, 0, 66, 64
3, 3815, Note_on_c, 0, 66, 0
3, 3816, Note_on_c, 0, 64, 64
3, 3839, Note_on_c, 0, 64, 0
3, 3840, Note_on_c, 0, 62, 64
3, 3863, Note_on_c, 0, 62, 0
3, 3864, Note_on_c, 0, 61, 64
3, 3887, Note_on_c, 0, 61, 0
3, 3888, Note_on_c, 0, 59, 64
3, 3911, Note_on_c, 0, 59, 0
3, 3912, Note_on_c, 0, 57, 64
3, 3935, Note_on_c, 0, 57, 0
3, 3936, Note_on_c, 0, 56, 64
3, 3981, Note_on_c, 0, 56, 0
3, 3984, Note_on_c, 0, 68, 64
3, 4029, Note_on_c, 0, 68, 0
3, 4032, Note_on_c, 0, 69, 64
3, 4055, Note_on_c, 0, 69, 0
3, 4056, Note_on_c, 0, 71, 64
3, 4079, Note_on_c, 0, 71, 0
3, 4080, Note_on_c, 0, 69, 64
3, 4103, Note_on_c, 0, 69, 0
3, 4104, Note_on_c, 0, 68, 64
3, 4127, Note_on_c, 0, 68, 0
3, 4128, Note_on_c, 0, 66, 64
3, 4151, Note_on_c, 0, 66, 0
3, 4152, Note_on_c, 0, 64, 64
3, 4175, Note_on_c, 0, 64, 0
3, 4176, Note_on_c, 0, 63, 64
3, 4199, Note_on_c, 0, 63, 0
3, 4200, Note_on_c, 0, 61, 64
3, 4223, Note_on_c, 0, 61, 0
3, 4224, Note_on_c, 0, 59, 64
3, 4269, Note_on_c, 0, 59, 0
3, 4272, Note_on_c, 0, 71, 64
3, 4317, Note_on_c, 0, 71, 0
3, 4320, Note_on_c, 0, 73, 64
3, 4343, Note_on_c, 0, 73, 0
3, 4344, Note_on_c, 0, 74, 64
3, 4367, Note_on_c, 0, 74, 0
3, 4368, Note_on_c, 0, 73, 64
3, 4391, Note_on_c, 0, 73, 0
3, 4392, Note_on_c, 0, 71, 64
3, 4415, Note_on_c, 0, 71, 0
3, 4416, Note_on_c, 0, 69, 64
3, 4439, Note_on_c, 0, 69, 0
3, 4440, Note_on_c, 0, 68, 64
3, 4463, Note_on_c, 0, 68, 0
3, 4464, Note_on_c, 0, 66, 64
3, 4487, Note_on_c, 0, 66, 0
3, 4488, Note_on_c, 0, 64, 64
3, 4511, Note_on_c, 0, 64, 0
3, 4512, Note_on_c, 0, 66, 64
3, 4535, Note_on_c, 0, 66, 0
3, 4536, Note_on_c, 0, 69, 64
3, 4559, Note_on_c, 0, 69, 0
3, 4560, Note_on_c, 0, 68, 64
3, 4583, Note_on_c, 0, 68, 0
3, 4584, Note_on_c, 0, 66, 64
3, 4607, Note_on_c, 0, 66, 0
3, 4608, Note_on_c, 0, 64, 64
3, 4697, Note_on_c, 0, 64, 0
3, 4896, Note_on_c, 0, 81, 64
3, 4941, Note_on_c, 0, 81, 0
3, 4944, Note_on_c, 0, 80, 64
3, 4967, Note_on_c, 0, 80, 0
3, 4968, Note_on_c, 0, 78, 64
3, 4991, Note_on_c, 0, 78, 0
3, 4992, Note_on_c, 0, 76, 64
3, 5015, Note_on_c, 0, 76, 0
3, 5016, Note_on_c, 0, 74, 64
3, 5039, Note_on_c, 0, 74, 0
3, 5040, Note_on_c, 0, 73, 64
3, 5063, Note_on_c, 0, 73, 0
3, 5064, Note_on_c, 0, 71, 64
3, 5087, Note_on_c, 0, 71, 0
3, 5088, Note_on_c, 0, 69, 64
3, 5111, Note_on_c, 0, 69, 0
3, 5112, Note_on_c, 0, 73, 64
3, 5135, Note_on_c, 0, 73, 0
3, 5136, Note_on_c, 0, 71, 64
3, 5159, Note_on_c, 0, 71, 0
3, 5160, Note_on_c, 0, 69, 64
3, 5183, Note_on_c, 0, 69, 0
3, 5184, Note_on_c, 0, 74, 64
3, 5229, Note_on_c, 0, 74, 0
3, 5232, Note_on_c, 0, 69, 64
3, 5277, Note_on_c, 0, 69, 0
3, 5280, Note_on_c, 0, 66, 64
3, 5325, Note_on_c, 0, 66, 0
3, 5328, Note_on_c, 0, 62, 64
3, 5373, Note_on_c, 0, 62, 0
3, 5376, Note_on_c, 0, 74, 64
3, 5421, Note_on_c, 0, 74, 0
3, 5424, Note_on_c, 0, 71, 64
3, 5469, Note_on_c, 0, 71, 0
3, 5472, Note_on_c, 0, 68, 64
3, 5495, Note_on_c, 0, 68, 0
3, 5496, Note_on_c, 0, 61, 64
3, 5519, Note_on_c, 0, 61, 0
3, 5520, Note_on_c, 0, 62, 64
3, 5543, Note_on_c, 0, 62, 0
3, 5544, Note_on_c, 0, 64, 64
3, 5567, Note_on_c, 0, 64, 0
3, 5568, Note_on_c, 0, 66, 64
3, 5591, Note_on_c, 0, 66, 0
3, 5592, Note_on_c, 0, 68, 64
3, 5615, Note_on_c, 0, 68, 0
3, 5616, Note_on_c, 0, 69, 64
3, 5639, Note_on_c, 0, 69, 0
3, 5640, Note_on_c, 0, 71, 64
3, 5663, Note_on_c, 0, 71, 0
3, 5664, Note_on_c, 0, 73, 64
3, 5687, Note_on_c, 0, 73, 0
3, 5688, Note_on_c, 0, 71, 64
3, 5711, Note_on_c, 0, 71, 0
3, 5712, Note_on_c, 0, 69, 64
3, 5735, Note_on_c, 0, 69, 0
3, 5736, Note_on_c, 0, 68, 64
3, 5759, Note_on_c, 0, 68, 0
3, 5760, Note_on_c, 0, 66, 64
3, 5879, Note_on_c, 0, 66, 0
3, 5880, Note_on_c, 0, 73, 64
3, 5903, Note_on_c, 0, 73, 0
3, 5904, Note_on_c, 0, 71, 64
3, 5927, Note_on_c, 0, 71, 0
3, 5928, Note_on_c, 0, 69, 64
3, 5951, Note_on_c, 0, 69, 0
3, 5952, Note_on_c, 0, 68, 64
3, 5964, Note_on_c, 0, 68, 0
3, 5964, Note_on_c, 0, 69, 64
3, 5976, Note_on_c, 0, 69, 0
3, 5976, Note_on_c, 0, 68, 64
3, 5988, Note_on_c, 0, 68, 0
3, 5988, Note_on_c, 0, 69, 64
3, 6000, Note_on_c, 0, 69, 0
3, 6000, Note_on_c, 0, 68, 64
3, 6012, Note_on_c, 0, 68, 0
3, 6012, Note_on_c, 0, 69, 64
3, 6024, Note_on_c, 0, 69, 0
3, 6024, Note_on_c, 0, 66, 64
3, 6036, Note_on_c, 0, 66, 0
3, 6036, Note_on_c, 0, 68, 64
3, 6048, Note_on_c, 0, 68, 0
3, 6048, Note_on_c, 0, 69, 64
3, 6093, Note_on_c, 0, 69, 0
3, 6096, Note_on_c, 0, 69, 64
3, 6119, Note_on_c, 0, 69, 0
3, 6120, Note_on_c, 0, 71, 64
3, 6143, Note_on_c, 0, 71, 0
3, 6144, Note_on_c, 0, 73, 64
3, 6189, Note_on_c, 0, 73, 0
3, 6192, Note_on_c, 0, 73, 64
3, 6215, Note_on_c, 0, 73, 0
3, 6216, Note_on_c, 0, 74, 64
3, 6239, Note_on_c, 0, 74, 0
3, 6240, Note_on_c, 0, 76, 64
3, 6285, Note_on_c, 0, 76, 0
3, 6288, Note_on_c, 0, 78, 64
3, 6311, Note_on_c, 0, 78, 0
3, 6312, Note_on_c, 0, 80, 64
3, 6335, Note_on_c, 0, 80, 0
3, 6336, Note_on_c, 0, 81, 64
3, 6381, Note_on_c, 0, 81, 0
3, 6384, Note_on_c, 0, 80, 64
3, 6407, Note_on_c, 0, 80, 0
3, 6408, Note_on_c, 0, 78, 64
3, 6431, Note_on_c, 0, 78, 0
3, 6432, Note_on_c, 0, 76, 64
3, 6477, Note_on_c, 0, 76, 0
3, 6480, Note_on_c, 0, 74, 64
3, 6525, Note_on_c, 0, 74, 0
3, 6528, Note_on_c, 0, 73, 64
3, 6573, Note_on_c, 0, 73, 0
3, 6576, Note_on_c, 0, 71, 64
3, 6621, Note_on_c, 0, 71, 0
3, 6624, Note_on_c, 0, 69, 64
3, 6669, Note_on_c, 0, 69, 0
3, 6672, Note_on_c, 0, 74, 64
3, 6695, Note_on_c, 0, 74, 0
3, 6696, Note_on_c, 0, 73, 64
3, 6719, Note_on_c, 0, 73, 0
3, 6720, Note_on_c, 0, 74, 64
3, 6765, Note_on_c, 0, 74, 0
3, 6768, Note_on_c, 0, 78, 64
3, 6813, Note_on_c, 0, 78, 0
3, 6816, Note_on_c, 0, 71, 64
3, 6861, Note_on_c, 0, 71, 0
3, 6864, Note_on_c, 0, 76, 64
3, 6909, Note_on_c, 0, 76, 0
3, 6912, Note_on_c, 0, 73, 64
3, 6957, Note_on_c, 0, 73, 0
3, 6960, Note_on_c, 0, 78, 64
3, 6983, Note_on_c, 0, 78, 0
3, 6984, Note_on_c, 0, 76, 64
3, 7007, Note_on_c, 0, 76, 0
3, 7008, Note_on_c, 0, 78, 64
3, 7053, Note_on_c, 0, 78, 0
3, 7056, Note_on_c, 0, 81, 64
3, 7101, Note_on_c, 0, 81, 0
3, 7104, Note_on_c, 0, 75, 64
3, 7149, Note_on_c, 0, 75, 0
3, 7152, Note_on_c, 0, 80, 64
3, 7197, Note_on_c, 0, 80, 0
3, 7200, Note_on_c, 0, 76, 64
3, 7245, Note_on_c, 0, 76, 0
3, 7248, Note_on_c, 0, 81, 64
3, 7271, Note_on_c, 0, 81, 0
3, 7272, Note_on_c, 0, 80, 64
3, 7295, Note_on_c, 0, 80, 0
3, 7296, Note_on_c, 0, 81, 64
3, 7341, Note_on_c, 0, 81, 0
3, 7344, Note_on_c, 0, 85, 64
3, 7389, Note_on_c, 0, 85, 0
3, 7392, Note_on_c, 0, 78, 64
3, 7437, Note_on_c, 0, 78, 0
3, 7440, Note_on_c, 0, 83, 64
3, 7485, Note_on_c, 0, 83, 0
3, 7488, Note_on_c, 0, 80, 64
3, 7511, Note_on_c, 0, 80, 0
3, 7512, Note_on_c, 0, 81, 64
3, 7535, Note_on_c, 0, 81, 0
3, 7536, Note_on_c, 0, 80, 64
3, 7559, Note_on_c, 0, 80, 0
3, 7560, Note_on_c, 0, 78, 64
3, 7583, Note_on_c, 0, 78, 0
3, 7584, Note_on_c, 0, 76, 64
3, 7607, Note_on_c, 0, 76, 0
3, 7608, Note_on_c, 0, 74, 64
3, 7631, Note_on_c, 0, 74, 0
3, 7632, Note_on_c, 0, 73, 64
3, 7655, Note_on_c, 0, 73, 0
3, 7656, Note_on_c, 0, 71, 64
3, 7679, Note_on_c, 0, 71, 0
3, 7680, Note_on_c, 0, 69, 64
3, 7703, Note_on_c, 0, 69, 0
3, 7704, Note_on_c, 0, 68, 64
3, 7727, Note_on_c, 0, 68, 0
3, 7728, Note_on_c, 0, 66, 64
3, 7751, Note_on_c, 0, 66, 0
3, 7752, Note_on_c, 0, 64, 64
3, 7775, Note_on_c, 0, 64, 0
3, 7776, Note_on_c, 0, 76, 64
3, 7843, Note_on_c, 0, 76, 0
3, 7848, Note_on_c, 0, 78, 64
3, 7871, Note_on_c, 0, 78, 0
3, 7872, Note_on_c, 0, 71, 64
3, 7884, Note_on_c, 0, 71, 0
3, 7884, Note_on_c, 0, 73, 64
3, 7896, Note_on_c, 0, 73, 0
3, 7896, Note_on_c, 0, 71, 64
3, 7908, Note_on_c, 0, 71, 0
3, 7908, Note_on_c, 0, 73, 64
3, 7920, Note_on_c, 0, 73, 0
3, 7920, Note_on_c, 0, 71, 64
3, 7932, Note_on_c, 0, 71, 0
3, 7932, Note_on_c, 0, 73, 64
3, 7944, Note_on_c, 0, 73, 0
3, 7944, Note_on_c, 0, 71, 64
3, 7956, Note_on_c, 0, 71, 0
3, 7956, Note_on_c, 0, 73, 64
3, 7968, Note_on_c, 0, 73, 0
3, 7968, Note_on_c, 0, 71, 64
3, 7980, Note_on_c, 0, 71, 0
3, 7980, Note_on_c, 0, 73, 64
3, 7992, Note_on_c, 0, 73, 0
3, 7992, Note_on_c, 0, 71, 64
3, 8004, Note_on_c, 0, 71, 0
3, 8004, Note_on_c, 0, 73, 64
3, 8016, Note_on_c, 0, 73, 0
3, 8016, Note_on_c, 0, 69, 64
3, 8061, Note_on_c, 0, 69, 0
3, 8064, Note_on_c, 0, 69, 64
3, 8109, Note_on_c, 0, 69, 0
3, 8112, Note_on_c, 0, 57, 64
3, 8135, Note_on_c, 0, 57, 0
3, 8136, Note_on_c, 0, 59, 64
3, 8159, Note_on_c, 0, 59, 0
3, 8160, Note_on_c, 0, 61, 64
3, 8205, Note_on_c, 0, 61, 0
3, 8208, Note_on_c, 0, 61, 64
3, 8231, Note_on_c, 0, 61, 0
3, 8232, Note_on_c, 0, 62, 64
3, 8255, Note_on_c, 0, 62, 0
3, 8256, Note_on_c, 0, 64, 64
3, 8301, Note_on_c, 0, 64, 0
3, 8304, Note_on_c, 0, 66, 64
3, 8327, Note_on_c, 0, 66, 0
3, 8328, Note_on_c, 0, 68, 64
3, 8351, Note_on_c, 0, 68, 0
3, 8352, Note_on_c, 0, 69, 64
3, 8375, Note_on_c, 0, 69, 0
3, 8376, Note_on_c, 0, 73, 64
3, 8399, Note_on_c, 0, 73, 0
3, 8400, Note_on_c, 0, 76, 64
3, 8423, Note_on_c, 0, 76, 0
3, 8424, Note_on_c, 0, 78, 64
3, 8447, Note_on_c, 0, 78, 0
3, 8448, Note_on_c, 0, 76, 64
3, 8472, Note_on_c, 0, 76, 0
3, 8472, Note_on_c, 0, 78, 64
3, 8495, Note_on_c, 0, 78, 0
3, 8496, Note_on_c, 0, 76, 64
3, 8520, Note_on_c, 0, 76, 0
3, 8520, Note_on_c, 0, 78, 64
3, 8543, Note_on_c, 0, 78, 0
3, 8544, Note_on_c, 0, 68, 64
3, 8567, Note_on_c, 0, 68, 0
3, 8568, Note_on_c, 0, 71, 64
3, 8591, Note_on_c, 0, 71, 0
3, 8592, Note_on_c, 0, 74, 64
3, 8615, Note_on_c, 0, 74, 0
3, 8616, Note_on_c, 0, 76, 64
3, 8639, Note_on_c, 0, 76, 0
3, 8640, Note_on_c, 0, 69, 64
3, 8663, Note_on_c, 0, 69, 0
3, 8664, Note_on_c, 0, 73, 64
3, 8687, Note_on_c, 0, 73, 0
3, 8688, Note_on_c, 0, 76, 64
3, 8711, Note_on_c, 0, 76, 0
3, 8712, Note_on_c, 0, 78, 64
3, 8735, Note_on_c, 0, 78, 0
3, 8736, Note_on_c, 0, 76, 64
3, 8760, Note_on_c, 0, 76, 0
3, 8760, Note_on_c, 0, 78, 64
3, 8783, Note_on_c, 0, 78, 0
3, 8784, Note_on_c, 0, 76, 64
3, 8808, Note_on_c, 0, 76, 0
3, 8808, Note_on_c, 0, 78, 64
3, 8831, Note_on_c, 0, 78, 0
3, 8832, Note_on_c, 0, 68, 64
3, 8855, Note_on_c, 0, 68, 0
3, 8856, Note_on_c, 0, 71, 64
3, 8879, Note_on_c, 0, 71, 0
3, 8880, Note_on_c, 0, 74, 64
3, 8903, Note_on_c, 0, 74, 0
3, 8904, Note_on_c, 0, 76, 64
3, 8927, Note_on_c, 0, 76, 0
3, 8928, Note_on_c, 0, 69, 64
3, 8951, Note_on_c, 0, 69, 0
3, 8952, Note_on_c, 0, 73, 64
3, 8975, Note_on_c, 0, 73, 0
3, 8976, Note_on_c, 0, 76, 64
3, 8999, Note_on_c, 0, 76, 0
3, 9000, Note_on_c, 0, 78, 64
3, 9023, Note_on_c, 0, 78, 0
3, 9024, Note_on_c, 0, 76, 64
3, 9048, Note_on_c, 0, 76, 0
3, 9048, Note_on_c, 0, 78, 64
3, 9071, Note_on_c, 0, 78, 0
3, 9072, Note_on_c, 0, 76, 64
3, 9096, Note_on_c, 0, 76, 0
3, 9096, Note_on_c, 0, 78, 64
3, 9119, Note_on_c, 0, 78, 0
3, 9120, Note_on_c, 0, 71, 64
3, 9143, Note_on_c, 0, 71, 0
3, 9144, Note_on_c, 0, 75, 64
3, 9167, Note_on_c, 0, 75, 0
3, 9168, Note_on_c, 0, 78, 64
3, 9191, Note_on_c, 0, 78, 0
3, 9192, Note_on_c, 0, 80, 64
3, 9215, Note_on_c, 0, 80, 0
3, 9216, Note_on_c, 0, 73, 64
3, 9239, Note_on_c, 0, 73, 0
3, 9240, Note_on_c, 0, 76, 64
3, 9263, Note_on_c, 0, 76, 0
3, 9264, Note_on_c, 0, 80, 64
3, 9287, Note_on_c, 0, 80, 0
3, 9288, Note_on_c, 0, 81, 64
3, 9311, Note_on_c, 0, 81, 0
3, 9312, Note_on_c, 0, 80, 64
3, 9335, Note_on_c, 0, 80, 0
3, 9336, Note_on_c, 0, 81, 64
3, 9359, Note_on_c, 0, 81, 0
3, 9360, Note_on_c, 0, 80, 64
3, 9383, Note_on_c, 0, 80, 0
3, 9384, Note_on_c, 0, 81, 64
3, 9407, Note_on_c, 0, 81, 0
3, 9408, Note_on_c, 0, 75, 64
3, 9431, Note_on_c, 0, 75, 0
3, 9432, Note_on_c, 0, 78, 64
3, 9455, Note_on_c, 0, 78, 0
3, 9456, Note_on_c, 0, 81, 64
3, 9479, Note_on_c, 0, 81, 0
3, 9480, Note_on_c, 0, 83, 64
3, 9503, Note_on_c, 0, 83, 0
3, 9504, Note_on_c, 0, 80, 64
3, 9549, Note_on_c, 0, 80, 0
3, 9552, Note_on_c, 0, 71, 64
3, 9597, Note_on_c, 0, 71, 0
3, 9600, Note_on_c, 0, 68, 64
3, 9645, Note_on_c, 0, 68, 0
3, 9648, Note_on_c, 0, 64, 64
3, 9693, Note_on_c, 0, 64, 0
3, 9696, Note_on_c, 0, 71, 64
3, 9741, Note_on_c, 0, 71, 0
3, 9744, Note_on_c, 0, 75, 64
3, 9789, Note_on_c, 0, 75, 0
3, 9792, Note_on_c, 0, 76, 64
3, 9837, Note_on_c, 0, 76, 0
3, 9840, Note_on_c, 0, 71, 64
3, 9885, Note_on_c, 0, 71, 0
3, 9888, Note_on_c, 0, 68, 64
3, 9933, Note_on_c, 0, 68, 0
3, 9936, Note_on_c, 0, 64, 64
3, 9981, Note_on_c, 0, 64, 0
3, 9984, Note_on_c, 0, 71, 64
3, 10029, Note_on_c, 0, 71, 0
3, 10032, Note_on_c, 0, 75, 64
3, 10077, Note_on_c, 0, 75, 0
3, 10080, Note_on_c, 0, 76, 64
3, 10125, Note_on_c, 0, 76, 0
3, 10128, Note_on_c, 0, 80, 64
3, 10173, Note_on_c, 0, 80, 0
3, 10176, Note_on_c, 0, 76, 64
3, 10221, Note_on_c, 0, 76, 0
3, 10224, Note_on_c, 0, 73, 64
3, 10269, Note_on_c, 0, 73, 0
3, 10272, Note_on_c, 0, 69, 64
3, 10317, Note_on_c, 0, 69, 0
3, 10320, Note_on_c, 0, 78, 64
3, 10365, Note_on_c, 0, 78, 0
3, 10368, Note_on_c, 0, 71, 64
3, 10413, Note_on_c, 0, 71, 0
3, 10416, Note_on_c, 0, 66, 64
3, 10461, Note_on_c, 0, 66, 0
3, 10464, Note_on_c, 0, 68, 64
3, 10509, Note_on_c, 0, 68, 0
3, 10512, Note_on_c, 0, 71, 64
3, 10557, Note_on_c, 0, 71, 0
3, 10560, Note_on_c, 0, 76, 64
3, 10605, Note_on_c, 0, 76, 0
3, 10608, Note_on_c, 0, 70, 64
3, 10653, Note_on_c, 0, 70, 0
3, 10656, Note_on_c, 0, 71, 64
3, 10679, Note_on_c, 0, 71, 0
3, 10680, Note_on_c, 0, 74, 64
3, 10703, Note_on_c, 0, 74, 0
3, 10704, Note_on_c, 0, 78, 64
3, 10727, Note_on_c, 0, 78, 0
3, 10728, Note_on_c, 0, 79, 64
3, 10751, Note_on_c, 0, 79, 0
3, 10752, Note_on_c, 0, 71, 64
3, 10775, Note_on_c, 0, 71, 0
3, 10776, Note_on_c, 0, 74, 64
3, 10799, Note_on_c, 0, 74, 0
3, 10800, Note_on_c, 0, 78, 64
3, 10823, Note_on_c, 0, 78, 0
3, 10824, Note_on_c, 0, 79, 64
3, 10847, Note_on_c, 0, 79, 0
3, 10848, Note_on_c, 0, 73, 64
3, 10871, Note_on_c, 0, 73, 0
3, 10872, Note_on_c, 0, 74, 64
3, 10895, Note_on_c, 0, 74, 0
3, 10896, Note_on_c, 0, 76, 64
3, 10919, Note_on_c, 0, 76, 0
3, 10920, Note_on_c, 0, 78, 64
3, 10943, Note_on_c, 0, 78, 0
3, 10944, Note_on_c, 0, 66, 64
3, 11033, Note_on_c, 0, 66, 0
3, 11064, Note_on_c, 0, 83, 64
3, 11087, Note_on_c, 0, 83, 0
3, 11088, Note_on_c, 0, 81, 64
3, 11111, Note_on_c, 0, 81, 0
3, 11112, Note_on_c, 0, 79, 64
3, 11135, Note_on_c, 0, 79, 0
3, 11136, Note_on_c, 0, 78, 64
3, 11159, Note_on_c, 0, 78, 0
3, 11160, Note_on_c, 0, 83, 64
3, 11183, Note_on_c, 0, 83, 0
3, 11184, Note_on_c, 0, 76, 64
3, 11207, Note_on_c, 0, 76, 0
3, 11208, Note_on_c, 0, 82, 64
3, 11231, Note_on_c, 0, 82, 0
3, 11232, Note_on_c, 0, 83, 64
3, 11277, Note_on_c, 0, 83, 0
3, 11280, Note_on_c, 0, 71, 64
3, 11303, Note_on_c, 0, 71, 0
3, 11304, Note_on_c, 0, 73, 64
3, 11327, Note_on_c, 0, 73, 0
3, 11328, Note_on_c, 0, 74, 64
3, 11373, Note_on_c, 0, 74, 0
3, 11376, Note_on_c, 0, 74, 64
3, 11399, Note_on_c, 0, 74, 0
3, 11400, Note_on_c, 0, 76, 64
3, 11423, Note_on_c, 0, 76, 0
3, 11424, Note_on_c, 0, 78, 64
3, 11469, Note_on_c, 0, 78, 0
3, 11472, Note_on_c, 0, 80, 64
3, 11495, Note_on_c, 0, 80, 0
3, 11496, Note_on_c, 0, 82, 64
3, 11519, Note_on_c, 0, 82, 0
3, 11520, Note_on_c, 0, 83, 64
3, 11565, Note_on_c, 0, 83, 0
3, 11568, Note_on_c, 0, 81, 64
3, 11591, Note_on_c, 0, 81, 0
3, 11592, Note_on_c, 0, 79, 64
3, 11615, Note_on_c, 0, 79, 0
3, 11616, Note_on_c, 0, 78, 64
3, 11661, Note_on_c, 0, 78, 0
3, 11664, Note_on_c, 0, 76, 64
3, 11709, Note_on_c, 0, 76, 0
3, 11712, Note_on_c, 0, 74, 64
3, 11757, Note_on_c, 0, 74, 0
3, 11760, Note_on_c, 0, 73, 64
3, 11805, Note_on_c, 0, 73, 0
3, 11808, Note_on_c, 0, 74, 64
3, 11897, Note_on_c, 0, 74, 0
3, 11952, Note_on_c, 0, 83, 64
3, 11975, Note_on_c, 0, 83, 0
3, 11976, Note_on_c, 0, 81, 64
3, 11999, Note_on_c, 0, 81, 0
3, 12000, Note_on_c, 0, 80, 64
3, 12023, Note_on_c, 0, 80, 0
3, 12024, Note_on_c, 0, 78, 64
3, 12047, Note_on_c, 0, 78, 0
3, 12048, Note_on_c, 0, 76, 64
3, 12071, Note_on_c, 0, 76, 0
3, 12072, Note_on_c, 0, 74, 64
3, 12095, Note_on_c, 0, 74, 0
3, 12096, Note_on_c, 0, 73, 64
3, 12185, Note_on_c, 0, 73, 0
3, 12240, Note_on_c, 0, 81, 64
3, 12263, Note_on_c, 0, 81, 0
3, 12264, Note_on_c, 0, 80, 64
3, 12287, Note_on_c, 0, 80, 0
3, 12288, Note_on_c, 0, 78, 64
3, 12311, Note_on_c, 0, 78, 0
3, 12312, Note_on_c, 0, 76, 64
3, 12335, Note_on_c, 0, 76, 0
3, 12336, Note_on_c, 0, 74, 64
3, 12359, Note_on_c, 0, 74, 0
3, 12360, Note_on_c, 0, 73, 64
3, 12383, Note_on_c, 0, 73, 0
3, 12384, Note_on_c, 0, 71, 64
3, 12473, Note_on_c, 0, 71, 0
3, 12528, Note_on_c, 0, 80, 64
3, 12551, Note_on_c, 0, 80, 0
3, 12552, Note_on_c, 0, 78, 64
3, 12575, Note_on_c, 0, 78, 0
3, 12576, Note_on_c, 0, 77, 64
3, 12599, Note_on_c, 0, 77, 0
3, 12600, Note_on_c, 0, 75, 64
3, 12623, Note_on_c, 0, 75, 0
3, 12624, Note_on_c, 0, 73, 64
3, 12647, Note_on_c, 0, 73, 0
3, 12648, Note_on_c, 0, 71, 64
3, 12671, Note_on_c, 0, 71, 0
3, 12672, Note_on_c, 0, 69, 64
3, 12717, Note_on_c, 0, 69, 0
3, 12720, Note_on_c, 0, 66, 64
3, 12765, Note_on_c, 0, 66, 0
3, 12768, Note_on_c, 0, 73, 64
3, 12780, Note_on_c, 0, 73, 0
3, 12780, Note_on_c, 0, 74, 64
3, 12792, Note_on_c, 0, 74, 0
3, 12792, Note_on_c, 0, 73, 64
3, 12804, Note_on_c, 0, 73, 0
3, 12804, Note_on_c, 0, 74, 64
3, 12816, Note_on_c, 0, 74, 0
3, 12816, Note_on_c, 0, 73, 64
3, 12828, Note_on_c, 0, 73, 0
3, 12828, Note_on_c, 0, 74, 64
3, 12840, Note_on_c, 0, 74, 0
3, 12840, Note_on_c, 0, 73, 64
3, 12852, Note_on_c, 0, 73, 0
3, 12852, Note_on_c, 0, 74, 64
3, 12864, Note_on_c, 0, 74, 0
3, 12864, Note_on_c, 0, 73, 64
3, 12876, Note_on_c, 0, 73, 0
3, 12876, Note_on_c, 0, 74, 64
3, 12888, Note_on_c, 0, 74, 0
3, 12888, Note_on_c, 0, 73, 64
3, 12900, Note_on_c, 0, 73, 0
3, 12900, Note_on_c, 0, 74, 64
3, 12912, Note_on_c, 0, 74, 0
3, 12912, Note_on_c, 0, 73, 64
3, 12924, Note_on_c, 0, 73, 0
3, 12924, Note_on_c, 0, 74, 64
3, 12936, Note_on_c, 0, 74, 0
3, 12936, Note_on_c, 0, 73, 64
3, 12948, Note_on_c, 0, 73, 0
3, 12948, Note_on_c, 0, 74, 64
3, 12960, Note_on_c, 0, 74, 0
3, 12960, Note_on_c, 0, 73, 64
3, 12972, Note_on_c, 0, 73, 0
3, 12972, Note_on_c, 0, 74, 64
3, 12984, Note_on_c, 0, 74, 0
3, 12984, Note_on_c, 0, 73, 64
3, 12996, Note_on_c, 0, 73, 0
3, 12996, Note_on_c, 0, 74, 64
3, 13008, Note_on_c, 0, 74, 0
3, 13008, Note_on_c, 0, 73, 64
3, 13020, Note_on_c, 0, 73, 0
3, 13020, Note_on_c, 0, 74, 64
3, 13032, Note_on_c, 0, 74, 0
3, 13032, Note_on_c, 0, 73, 64
3, 13044, Note_on_c, 0, 73, 0
3, 13044, Note_on_c, 0, 74, 64
3, 13056, Note_on_c, 0, 74, 0
3, 13056, Note_on_c, 0, 73, 64
3, 13068, Note_on_c, 0, 73, 0
3, 13068, Note_on_c, 0, 74, 64
3, 13080, Note_on_c, 0, 74, 0
3, 13080, Note_on_c, 0, 73, 64
3, 13092, Note_on_c, 0, 73, 0
3, 13092, Note_on_c, 0, 74, 64
3, 13104, Note_on_c, 0, 74, 0
3, 13104, Note_on_c, 0, 73, 64
3, 13116, Note_on_c, 0, 73, 0
3, 13116, Note_on_c, 0, 74, 64
3, 13128, Note_on_c, 0, 74, 0
3, 13128, Note_on_c, 0, 73, 64
3, 13140, Note_on_c, 0, 73, 0
3, 13140, Note_on_c, 0, 74, 64
3, 13152, Note_on_c, 0, 74, 0
3, 13152, Note_on_c, 0, 73, 64
3, 13164, Note_on_c, 0, 73, 0
3, 13164, Note_on_c, 0, 74, 64
3, 13176, Note_on_c, 0, 74, 0
3, 13176, Note_on_c, 0, 73, 64
3, 13188, Note_on_c, 0, 73, 0
3, 13188, Note_on_c, 0, 74, 64
3, 13200, Note_on_c, 0, 74, 0
3, 13200, Note_on_c, 0, 73, 64
3, 13212, Note_on_c, 0, 73, 0
3, 13212, Note_on_c, 0, 74, 64
3, 13224, Note_on_c, 0, 74, 0
3, 13224, Note_on_c, 0, 73, 64
3, 13236, Note_on_c, 0, 73, 0
3, 13236, Note_on_c, 0, 74, 64
3, 13248, Note_on_c, 0, 74, 0
3, 13248, Note_on_c, 0, 73, 64
3, 13293, Note_on_c, 0, 73, 0
3, 13296, Note_on_c, 0, 78, 64
3, 13319, Note_on_c, 0, 78, 0
3, 13320, Note_on_c, 0, 79, 64
3, 13343, Note_on_c, 0, 79, 0
3, 13344, Note_on_c, 0, 78, 64
3, 13367, Note_on_c, 0, 78, 0
3, 13368, Note_on_c, 0, 79, 64
3, 13391, Note_on_c, 0, 79, 0
3, 13392, Note_on_c, 0, 78, 64
3, 13415, Note_on_c, 0, 78, 0
3, 13416, Note_on_c, 0, 79, 64
3, 13439, Note_on_c, 0, 79, 0
3, 13440, Note_on_c, 0, 70, 64
3, 13463, Note_on_c, 0, 70, 0
3, 13464, Note_on_c, 0, 73, 64
3, 13487, Note_on_c, 0, 73, 0
3, 13488, Note_on_c, 0, 76, 64
3, 13511, Note_on_c, 0, 76, 0
3, 13512, Note_on_c, 0, 78, 64
3, 13535, Note_on_c, 0, 78, 0
3, 13536, Note_on_c, 0, 71, 64
3, 13559, Note_on_c, 0, 71, 0
3, 13560, Note_on_c, 0, 74, 64
3, 13583, Note_on_c, 0, 74, 0
3, 13584, Note_on_c, 0, 78, 64
3, 13607, Note_on_c, 0, 78, 0
3, 13608, Note_on_c, 0, 79, 64
3, 13631, Note_on_c, 0, 79, 0
3, 13632, Note_on_c, 0, 78, 64
3, 13655, Note_on_c, 0, 78, 0
3, 13656, Note_on_c, 0, 79, 64
3, 13679, Note_on_c, 0, 79, 0
3, 13680, Note_on_c, 0, 78, 64
3, 13703, Note_on_c, 0, 78, 0
3, 13704, Note_on_c, 0, 79, 64
3, 13727, Note_on_c, 0, 79, 0
3, 13728, Note_on_c, 0, 70, 64
3, 13751, Note_on_c, 0, 70, 0
3, 13752, Note_on_c, 0, 73, 64
3, 13775, Note_on_c, 0, 73, 0
3, 13776, Note_on_c, 0, 76, 64
3, 13799, Note_on_c, 0, 76, 0
3, 13800, Note_on_c, 0, 78, 64
3, 13823, Note_on_c, 0, 78, 0
3, 13824, Note_on_c, 0, 75, 64
3, 13847, Note_on_c, 0, 75, 0
3, 13848, Note_on_c, 0, 78, 64
3, 13871, Note_on_c, 0, 78, 0
3, 13872, Note_on_c, 0, 83, 64
3, 13895, Note_on_c, 0, 83, 0
3, 13896, Note_on_c, 0, 85, 64
3, 13919, Note_on_c, 0, 85, 0
3, 13920, Note_on_c, 0, 83, 64
3, 13943, Note_on_c, 0, 83, 0
3, 13944, Note_on_c, 0, 85, 64
3, 13967, Note_on_c, 0, 85, 0
3, 13968, Note_on_c, 0, 83, 64
3, 13991, Note_on_c, 0, 83, 0
3, 13992, Note_on_c, 0, 85, 64
3, 14015, Note_on_c, 0, 85, 0
3, 14016, Note_on_c, 0, 75, 64
3, 14039, Note_on_c, 0, 75, 0
3, 14040, Note_on_c, 0, 78, 64
3, 14063, Note_on_c, 0, 78, 0
3, 14064, Note_on_c, 0, 81, 64
3, 14087, Note_on_c, 0, 81, 0
3, 14088, Note_on_c, 0, 83, 64
3, 14111, Note_on_c, 0, 83, 0
3, 14112, Note_on_c, 0, 76, 64
3, 14135, Note_on_c, 0, 76, 0
3, 14136, Note_on_c, 0, 80, 64
3, 14159, Note_on_c, 0, 80, 0
3, 14160, Note_on_c, 0, 83, 64
3, 14183, Note_on_c, 0, 83, 0
3, 14184, Note_on_c, 0, 85, 64
3, 14207, Note_on_c, 0, 85, 0
3, 14208, Note_on_c, 0, 83, 64
3, 14231, Note_on_c, 0, 83, 0
3, 14232, Note_on_c, 0, 85, 64
3, 14255, Note_on_c, 0, 85, 0
3, 14256, Note_on_c, 0, 83, 64
3, 14279, Note_on_c, 0, 83, 0
3, 14280, Note_on_c, 0, 85, 64
3, 14303, Note_on_c, 0, 85, 0
3, 14304, Note_on_c, 0, 75, 64
3, 14327, Note_on_c, 0, 75, 0
3, 14328, Note_on_c, 0, 78, 64
3, 14351, Note_on_c, 0, 78, 0
3, 14352, Note_on_c, 0, 81, 64
3, 14375, Note_on_c, 0, 81, 0
3, 14376, Note_on_c, 0, 83, 64
3, 14399, Note_on_c, 0, 83, 0
3, 14400, Note_on_c, 0, 80, 64
3, 14445, Note_on_c, 0, 80, 0
3, 14448, Note_on_c, 0, 76, 64
3, 14493, Note_on_c, 0, 76, 0
3, 14496, Note_on_c, 0, 71, 64
3, 14541, Note_on_c, 0, 71, 0
3, 14544, Note_on_c, 0, 68, 64
3, 14589, Note_on_c, 0, 68, 0
3, 14592, Note_on_c, 0, 64, 64
3, 14681, Note_on_c, 0, 64, 0
3, 14736, Note_on_c, 0, 61, 64
3, 14759, Note_on_c, 0, 61, 0
3, 14760, Note_on_c, 0, 62, 64
3, 14783, Note_on_c, 0, 62, 0
3, 14784, Note_on_c, 0, 64, 64
3, 14829, Note_on_c, 0, 64, 0
3, 14832, Note_on_c, 0, 64, 64
3, 14855, Note_on_c, 0, 64, 0
3, 14856, Note_on_c, 0, 66, 64
3, 14879, Note_on_c, 0, 66, 0
3, 14880, Note_on_c, 0, 68, 64
3, 14925, Note_on_c, 0, 68, 0
3, 14928, Note_on_c, 0, 69, 64
3, 14951, Note_on_c, 0, 69, 0
3, 14952, Note_on_c, 0, 71, 64
3, 14975, Note_on_c, 0, 71, 0
3, 14976, Note_on_c, 0, 73, 64
3, 15021, Note_on_c, 0, 73, 0
3, 15024, Note_on_c, 0, 76, 64
3, 15069, Note_on_c, 0, 76, 0
3, 15072, Note_on_c, 0, 69, 64
3, 15117, Note_on_c, 0, 69, 0
3, 15120, Note_on_c, 0, 76, 64
3, 15165, Note_on_c, 0, 76, 0
3, 15168, Note_on_c, 0, 71, 64
3, 15213, Note_on_c, 0, 71, 0
3, 15216, Note_on_c, 0, 68, 64
3, 15261, Note_on_c, 0, 68, 0
3, 15264, Note_on_c, 0, 64, 64
3, 15276, Note_on_c, 0, 64, 0
3, 15276, Note_on_c, 0, 66, 64
3, 15288, Note_on_c, 0, 66, 0
3, 15288, Note_on_c, 0, 64, 64
3, 15300, Note_on_c, 0, 64, 0
3, 15300, Note_on_c, 0, 66, 64
3, 15312, Note_on_c, 0, 66, 0
3, 15312, Note_on_c, 0, 64, 64
3, 15324, Note_on_c, 0, 64, 0
3, 15324, Note_on_c, 0, 66, 64
3, 15336, Note_on_c, 0, 66, 0
3, 15336, Note_on_c, 0, 64, 64
3, 15348, Note_on_c, 0, 64, 0
3, 15348, Note_on_c, 0, 66, 64
3, 15360, Note_on_c, 0, 66, 0
3, 15360, Note_on_c, 0, 64, 64
3, 15372, Note_on_c, 0, 64, 0
3, 15372, Note_on_c, 0, 66, 64
3, 15384, Note_on_c, 0, 66, 0
3, 15384, Note_on_c, 0, 64, 64
3, 15396, Note_on_c, 0, 64, 0
3, 15396, Note_on_c, 0, 66, 64
3, 15408, Note_on_c, 0, 66, 0
3, 15408, Note_on_c, 0, 64, 64
3, 15420, Note_on_c, 0, 64, 0
3, 15420, Note_on_c, 0, 66, 64
3, 15432, Note_on_c, 0, 66, 0
3, 15432, Note_on_c, 0, 64, 64
3, 15444, Note_on_c, 0, 64, 0
3, 15444, Note_on_c, 0, 66, 64
3, 15456, Note_on_c, 0, 66, 0
3, 15456, Note_on_c, 0, 64, 64
3, 15468, Note_on_c, 0, 64, 0
3, 15468, Note_on_c, 0, 66, 64
3, 15480, Note_on_c, 0, 66, 0
3, 15480, Note_on_c, 0, 64, 64
3, 15492, Note_on_c, 0, 64, 0
3, 15492, Note_on_c, 0, 66, 64
3, 15504, Note_on_c, 0, 66, 0
3, 15504, Note_on_c, 0, 64, 64
3, 15516, Note_on_c, 0, 64, 0
3, 15516, Note_on_c, 0, 66, 64
3, 15528, Note_on_c, 0, 66, 0
3, 15528, Note_on_c, 0, 64, 64
3, 15540, Note_on_c, 0, 64, 0
3, 15540, Note_on_c, 0, 66, 64
3, 15552, Note_on_c, 0, 66, 0
3, 15552, Note_on_c, 0, 64, 64
3, 15564, Note_on_c, 0, 64, 0
3, 15564, Note_on_c, 0, 66, 64
3, 15576, Note_on_c, 0, 66, 0
3, 15576, Note_on_c, 0, 64, 64
3, 15588, Note_on_c, 0, 64, 0
3, 15588, Note_on_c, 0, 66, 64
3, 15600, Note_on_c, 0, 66, 0
3, 15600, Note_on_c, 0, 64, 64
3, 15612, Note_on_c, 0, 64, 0
3, 15612, Note_on_c, 0, 66, 64
3, 15624, Note_on_c, 0, 66, 0
3, 15624, Note_on_c, 0, 64, 64
3, 15636, Note_on_c, 0, 64, 0
3, 15636, Note_on_c, 0, 66, 64
3, 15648, Note_on_c, 0, 66, 0
3, 15648, Note_on_c, 0, 66, 64
3, 15737, Note_on_c, 0, 66, 0
3, 15744, Note_on_c, 0, 68, 64
3, 15929, Note_on_c, 0, 68, 0
3, 15936, Note_on_c, 0, 69, 64
3, 16025, Note_on_c, 0, 69, 0
3, 16032, Note_on_c, 0, 71, 64
3, 16217, Note_on_c, 0, 71, 0
3, 16224, Note_on_c, 0, 73, 64
3, 16313, Note_on_c, 0, 73, 0
3, 16320, Note_on_c, 0, 74, 64
3, 16409, Note_on_c, 0, 74, 0
3, 16416, Note_on_c, 0, 74, 64
3, 16428, Note_on_c, 0, 74, 0
3, 16428, Note_on_c, 0, 76, 64
3, 16440, Note_on_c, 0, 76, 0
3, 16440, Note_on_c, 0, 74, 64
3, 16452, Note_on_c, 0, 74, 0
3, 16452, Note_on_c, 0, 76, 64
3, 16464, Note_on_c, 0, 76, 0
3, 16464, Note_on_c, 0, 74, 64
3, 16476, Note_on_c, 0, 74, 0
3, 16476, Note_on_c, 0, 76, 64
3, 16488, Note_on_c, 0, 76, 0
3, 16488, Note_on_c, 0, 74, 64
3, 16500, Note_on_c, 0, 74, 0
3, 16500, Note_on_c, 0, 76, 64
3, 16512, Note_on_c, 0, 76, 0
3, 16512, Note_on_c, 0, 74, 64
3, 16524, Note_on_c, 0, 74, 0
3, 16524, Note_on_c, 0, 76, 64
3, 16536, Note_on_c, 0, 76, 0
3, 16536, Note_on_c, 0, 74, 64
3, 16548, Note_on_c, 0, 74, 0
3, 16548, Note_on_c, 0, 76, 64
3, 16560, Note_on_c, 0, 76, 0
3, 16560, Note_on_c, 0, 74, 64
3, 16572, Note_on_c, 0, 74, 0
3, 16572, Note_on_c, 0, 76, 64
3, 16584, Note_on_c, 0, 76, 0
3, 16584, Note_on_c, 0, 74, 64
3, 16596, Note_on_c, 0, 74, 0
3, 16596, Note_on_c, 0, 76, 64
3, 16608, Note_on_c, 0, 76, 0
3, 16608, Note_on_c, 0, 74, 64
3, 16620, Note_on_c, 0, 74, 0
3, 16620, Note_on_c, 0, 76, 64
3, 16632, Note_on_c, 0, 76, 0
3, 16632, Note_on_c, 0, 74, 64
3, 16644, Note_on_c, 0, 74, 0
3, 16644, Note_on_c, 0, 76, 64
3, 16656, Note_on_c, 0, 76, 0
3, 16656, Note_on_c, 0, 74, 64
3, 16668, Note_on_c, 0, 74, 0
3, 16668, Note_on_c, 0, 76, 64
3, 16680, Note_on_c, 0, 76, 0
3, 16680, Note_on_c, 0, 74, 64
3, 16692, Note_on_c, 0, 74, 0
3, 16692, Note_on_c, 0, 76, 64
3, 16704, Note_on_c, 0, 76, 0
3, 16704, Note_on_c, 0, 74, 64
3, 16716, Note_on_c, 0, 74, 0
3, 16716, Note_on_c, 0, 76, 64
3, 16728, Note_on_c, 0, 76, 0
3, 16728, Note_on_c, 0, 74, 64
3, 16740, Note_on_c, 0, 74, 0
3, 16740, Note_on_c, 0, 76, 64
3, 16752, Note_on_c, 0, 76, 0
3, 16752, Note_on_c, 0, 74, 64
3, 16764, Note_on_c, 0, 74, 0
3, 16764, Note_on_c, 0, 76, 64
3, 16776, Note_on_c, 0, 76, 0
3, 16776, Note_on_c, 0, 74, 64
3, 16788, Note_on_c, 0, 74, 0
3, 16788, Note_on_c, 0, 76, 64
3, 16800, Note_on_c, 0, 76, 0
3, 16800, Note_on_c, 0, 73, 64
3, 16845, Note_on_c, 0, 73, 0
3, 16848, Note_on_c, 0, 71, 64
3, 16893, Note_on_c, 0, 71, 0
3, 16896, Note_on_c, 0, 73, 64
3, 16941, Note_on_c, 0, 73, 0
3, 16944, Note_on_c, 0, 69, 64
3, 16989, Note_on_c, 0, 69, 0
3, 16992, Note_on_c, 0, 74, 64
3, 17004, Note_on_c, 0, 74, 0
3, 17004, Note_on_c, 0, 76, 64
3, 17016, Note_on_c, 0, 76, 0
3, 17016, Note_on_c, 0, 74, 64
3, 17028, Note_on_c, 0, 74, 0
3, 17028, Note_on_c, 0, 76, 64
3, 17040, Note_on_c, 0, 76, 0
3, 17040, Note_on_c, 0, 74, 64
3, 17052, Note_on_c, 0, 74, 0
3, 17052, Note_on_c, 0, 76, 64
3, 17064, Note_on_c, 0, 76, 0
3, 17064, Note_on_c, 0, 74, 64
3, 17076, Note_on_c, 0, 74, 0
3, 17076, Note_on_c, 0, 76, 64
3, 17088, Note_on_c, 0, 76, 0
3, 17088, Note_on_c, 0, 74, 64
3, 17100, Note_on_c, 0, 74, 0
3, 17100, Note_on_c, 0, 76, 64
3, 17112, Note_on_c, 0, 76, 0
3, 17112, Note_on_c, 0, 74, 64
3, 17124, Note_on_c, 0, 74, 0
3, 17124, Note_on_c, 0, 76, 64
3, 17136, Note_on_c, 0, 76, 0
3, 17136, Note_on_c, 0, 74, 64
3, 17148, Note_on_c, 0, 74, 0
3, 17148, Note_on_c, 0, 76, 64
3, 17160, Note_on_c, 0, 76, 0
3, 17160, Note_on_c, 0, 74, 64
3, 17172, Note_on_c, 0, 74, 0
3, 17172, Note_on_c, 0, 76, 64
3, 17184, Note_on_c, 0, 76, 0
3, 17184, Note_on_c, 0, 74, 64
3, 17196, Note_on_c, 0, 74, 0
3, 17196, Note_on_c, 0, 76, 64
3, 17208, Note_on_c, 0, 76, 0
3, 17208, Note_on_c, 0, 74, 64
3, 17220, Note_on_c, 0, 74, 0
3, 17220, Note_on_c, 0, 76, 64
3, 17232, Note_on_c, 0, 76, 0
3, 17232, Note_on_c, 0, 74, 64
3, 17244, Note_on_c, 0, 74, 0
3, 17244, Note_on_c, 0, 76, 64
3, 17256, Note_on_c, 0, 76, 0
3, 17256, Note_on_c, 0, 74, 64
3, 17268, Note_on_c, 0, 74, 0
3, 17268, Note_on_c, 0, 76, 64
3, 17280, Note_on_c, 0, 76, 0
3, 17280, Note_on_c, 0, 74, 64
3, 17292, Note_on_c, 0, 74, 0
3, 17292, Note_on_c, 0, 76, 64
3, 17304, Note_on_c, 0, 76, 0
3, 17304, Note_on_c, 0, 74, 64
3, 17316, Note_on_c, 0, 74, 0
3, 17316, Note_on_c, 0, 76, 64
3, 17328, Note_on_c, 0, 76, 0
3, 17328, Note_on_c, 0, 74, 64
3, 17340, Note_on_c, 0, 74, 0
3, 17340, Note_on_c, 0, 76, 64
3, 17352, Note_on_c, 0, 76, 0
3, 17352, Note_on_c, 0, 74, 64
3, 17364, Note_on_c, 0, 74, 0
3, 17364, Note_on_c, 0, 76, 64
3, 17376, Note_on_c, 0, 76, 0
3, 17376, Note_on_c, 0, 73, 64
3, 17421, Note_on_c, 0, 73, 0
3, 17424, Note_on_c, 0, 71, 64
3, 17469, Note_on_c, 0, 71, 0
3, 17472, Note_on_c, 0, 73, 64
3, 17517, Note_on_c, 0, 73, 0
3, 17520, Note_on_c, 0, 69, 64
3, 17565, Note_on_c, 0, 69, 0
3, 17568, Note_on_c, 0, 71, 64
3, 17580, Note_on_c, 0, 71, 0
3, 17580, Note_on_c, 0, 73, 64
3, 17592, Note_on_c, 0, 73, 0
3, 17592, Note_on_c, 0, 71, 64
3, 17604, Note_on_c, 0, 71, 0
3, 17604, Note_on_c, 0, 73, 64
3, 17616, Note_on_c, 0, 73, 0
3, 17616, Note_on_c, 0, 71, 64
3, 17628, Note_on_c, 0, 71, 0
3, 17628, Note_on_c, 0, 73, 64
3, 17640, Note_on_c, 0, 73, 0
3, 17640, Note_on_c, 0, 71, 64
3, 17652, Note_on_c, 0, 71, 0
3, 17652, Note_on_c, 0, 73, 64
3, 17664, Note_on_c, 0, 73, 0
3, 17664, Note_on_c, 0, 71, 64
3, 17676, Note_on_c, 0, 71, 0
3, 17676, Note_on_c, 0, 73, 64
3, 17688, Note_on_c, 0, 73, 0
3, 17688, Note_on_c, 0, 71, 64
3, 17700, Note_on_c, 0, 71, 0
3, 17700, Note_on_c, 0, 73, 64
3, 17712, Note_on_c, 0, 73, 0
3, 17712, Note_on_c, 0, 71, 64
3, 17724, Note_on_c, 0, 71, 0
3, 17724, Note_on_c, 0, 73, 64
3, 17736, Note_on_c, 0, 73, 0
3, 17736, Note_on_c, 0, 71, 64
3, 17748, Note_on_c, 0, 71, 0
3, 17748, Note_on_c, 0, 73, 64
3, 17760, Note_on_c, 0, 73, 0
3, 17760, Note_on_c, 0, 71, 64
3, 17772, Note_on_c, 0, 71, 0
3, 17772, Note_on_c, 0, 73, 64
3, 17784, Note_on_c, 0, 73, 0
3, 17784, Note_on_c, 0, 71, 64
3, 17796, Note_on_c, 0, 71, 0
3, 17796, Note_on_c, 0, 73, 64
3, 17808, Note_on_c, 0, 73, 0
3, 17808, Note_on_c, 0, 71, 64
3, 17820, Note_on_c, 0, 71, 0
3, 17820, Note_on_c, 0, 73, 64
3, 17832, Note_on_c, 0, 73, 0
3, 17832, Note_on_c, 0, 71, 64
3, 17844, Note_on_c, 0, 71, 0
3, 17844, Note_on_c, 0, 73, 64
3, 17856, Note_on_c, 0, 73, 0
3, 17856, Note_on_c, 0, 71, 64
3, 17868, Note_on_c, 0, 71, 0
3, 17868, Note_on_c, 0, 73, 64
3, 17880, Note_on_c, 0, 73, 0
3, 17880, Note_on_c, 0, 71, 64
3, 17892, Note_on_c, 0, 71, 0
3, 17892, Note_on_c, 0, 73, 64
3, 17904, Note_on_c, 0, 73, 0
3, 17904, Note_on_c, 0, 71, 64
3, 17916, Note_on_c, 0, 71, 0
3, 17916, Note_on_c, 0, 73, 64
3, 17928, Note_on_c, 0, 73, 0
3, 17928, Note_on_c, 0, 71, 64
3, 17940, Note_on_c, 0, 71, 0
3, 17940, Note_on_c, 0, 73, 64
3, 17952, Note_on_c, 0, 73, 0
3, 17952, Note_on_c, 0, 69, 64
3, 17997, Note_on_c, 0, 69, 0
3, 18000, Note_on_c, 0, 68, 64
3, 18045, Note_on_c, 0, 68, 0
3, 18048, Note_on_c, 0, 69, 64
3, 18093, Note_on_c, 0, 69, 0
3, 18096, Note_on_c, 0, 66, 64
3, 18141, Note_on_c, 0, 66, 0
3, 18144, Note_on_c, 0, 71, 64
3, 18156, Note_on_c, 0, 71, 0
3, 18156, Note_on_c, 0, 73, 64
3, 18168, Note_on_c, 0, 73, 0
3, 18168, Note_on_c, 0, 71, 64
3, 18180, Note_on_c, 0, 71, 0
3, 18180, Note_on_c, 0, 73, 64
3, 18192, Note_on_c, 0, 73, 0
3, 18192, Note_on_c, 0, 71, 64
3, 18204, Note_on_c, 0, 71, 0
3, 18204, Note_on_c, 0, 73, 64
3, 18216, Note_on_c, 0, 73, 0
3, 18216, Note_on_c, 0, 71, 64
3, 18228, Note_on_c, 0, 71, 0
3, 18228, Note_on_c, 0, 73, 64
3, 18240, Note_on_c, 0, 73, 0
3, 18240, Note_on_c, 0, 71, 64
3, 18252, Note_on_c, 0, 71, 0
3, 18252, Note_on_c, 0, 73, 64
3, 18264, Note_on_c, 0, 73, 0
3, 18264, Note_on_c, 0, 71, 64
3, 18276, Note_on_c, 0, 71, 0
3, 18276, Note_on_c, 0, 73, 64
3, 18288, Note_on_c, 0, 73, 0
3, 18288, Note_on_c, 0, 71, 64
3, 18300, Note_on_c, 0, 71, 0
3, 18300, Note_on_c, 0, 73, 64
3, 18312, Note_on_c, 0, 73, 0
3, 18312, Note_on_c, 0, 71, 64
3, 18324, Note_on_c, 0, 71, 0
3, 18324, Note_on_c, 0, 73, 64
3, 18336, Note_on_c, 0, 73, 0
3, 18336, Note_on_c, 0, 71, 64
3, 18348, Note_on_c, 0, 71, 0
3, 18348, Note_on_c, 0, 73, 64
3, 18360, Note_on_c, 0, 73, 0
3, 18360, Note_on_c, 0, 71, 64
3, 18372, Note_on_c, 0, 71, 0
3, 18372, Note_on_c, 0, 73, 64
3, 18384, Note_on_c, 0, 73, 0
3, 18384, Note_on_c, 0, 71, 64
3, 18396, Note_on_c, 0, 71, 0
3, 18396, Note_on_c, 0, 73, 64
3, 18408, Note_on_c, 0, 73, 0
3, 18408, Note_on_c, 0, 71, 64
3, 18420, Note_on_c, 0, 71, 0
3, 18420, Note_on_c, 0, 73, 64
3, 18432, Note_on_c, 0, 73, 0
3, 18432, Note_on_c, 0, 71, 64
3, 18444, Note_on_c, 0, 71, 0
3, 18444, Note_on_c, 0, 73, 64
3, 18456, Note_on_c, 0, 73, 0
3, 18456, Note_on_c, 0, 71, 64
3, 18468, Note_on_c, 0, 71, 0
3, 18468, Note_on_c, 0, 73, 64
3, 18480, Note_on_c, 0, 73, 0
3, 18480, Note_on_c, 0, 71, 64
3, 18492, Note_on_c, 0, 71, 0
3, 18492, Note_on_c, 0, 73, 64
3, 18504, Note_on_c, 0, 73, 0
3, 18504, Note_on_c, 0, 71, 64
3, 18516, Note_on_c, 0, 71, 0
3, 18516, Note_on_c, 0, 73, 64
3, 18528, Note_on_c, 0, 73, 0
3, 18528, Note_on_c, 0, 69, 64
3, 18573, Note_on_c, 0, 69, 0
3, 18576, Note_on_c, 0, 68, 64
3, 18621, Note_on_c, 0, 68, 0
3, 18624, Note_on_c, 0, 69, 64
3, 18669, Note_on_c, 0, 69, 0
3, 18672, Note_on_c, 0, 66, 64
3, 18717, Note_on_c, 0, 66, 0
3, 18720, Note_on_c, 0, 67, 64
3, 18732, Note_on_c, 0, 67, 0
3, 18732, Note_on_c, 0, 69, 64
3, 18744, Note_on_c, 0, 69, 0
3, 18744, Note_on_c, 0, 67, 64
3, 18756, Note_on_c, 0, 67, 0
3, 18756, Note_on_c, 0, 69, 64
3, 18768, Note_on_c, 0, 69, 0
3, 18768, Note_on_c, 0, 67, 64
3, 18780, Note_on_c, 0, 67, 0
3, 18780, Note_on_c, 0, 69, 64
3, 18792, Note_on_c, 0, 69, 0
3, 18792, Note_on_c, 0, 67, 64
3, 18804, Note_on_c, 0, 67, 0
3, 18804, Note_on_c, 0, 69, 64
3, 18816, Note_on_c, 0, 69, 0
3, 18816, Note_on_c, 0, 67, 64
3, 18828, Note_on_c, 0, 67, 0
3, 18828, Note_on_c, 0, 69, 64
3, 18840, Note_on_c, 0, 69, 0
3, 18840, Note_on_c, 0, 67, 64
3, 18852, Note_on_c, 0, 67, 0
3, 18852, Note_on_c, 0, 69, 64
3, 18864, Note_on_c, 0, 69, 0
3, 18864, Note_on_c, 0, 67, 64
3, 18876, Note_on_c, 0, 67, 0
3, 18876, Note_on_c, 0, 69, 64
3, 18888, Note_on_c, 0, 69, 0
3, 18888, Note_on_c, 0, 67, 64
3, 18900, Note_on_c, 0, 67, 0
3, 18900, Note_on_c, 0, 69, 64
3, 18912, Note_on_c, 0, 69, 0
3, 18912, Note_on_c, 0, 67, 64
3, 18924, Note_on_c, 0, 67, 0
3, 18924, Note_on_c, 0, 69, 64
3, 18936, Note_on_c, 0, 69, 0
3, 18936, Note_on_c, 0, 67, 64
3, 18948, Note_on_c, 0, 67, 0
3, 18948, Note_on_c, 0, 69, 64
3, 18960, Note_on_c, 0, 69, 0
3, 18960, Note_on_c, 0, 67, 64
3, 18972, Note_on_c, 0, 67, 0
3, 18972, Note_on_c, 0, 69, 64
3, 18984, Note_on_c, 0, 69, 0
3, 18984, Note_on_c, 0, 67, 64
3, 18996, Note_on_c, 0, 67, 0
3, 18996, Note_on_c, 0, 69, 64
3, 19008, Note_on_c, 0, 69, 0
3, 19008, Note_on_c, 0, 67, 64
3, 19020, Note_on_c, 0, 67, 0
3, 19020, Note_on_c, 0, 69, 64
3, 19032, Note_on_c, 0, 69, 0
3, 19032, Note_on_c, 0, 67, 64
3, 19044, Note_on_c, 0, 67, 0
3, 19044, Note_on_c, 0, 69, 64
3, 19056, Note_on_c, 0, 69, 0
3, 19056, Note_on_c, 0, 67, 64
3, 19068, Note_on_c, 0, 67, 0
3, 19068, Note_on_c, 0, 69, 64
3, 19080, Note_on_c, 0, 69, 0
3, 19080, Note_on_c, 0, 67, 64
3, 19092, Note_on_c, 0, 67, 0
3, 19092, Note_on_c, 0, 69, 64
3, 19104, Note_on_c, 0, 69, 0
3, 19104, Note_on_c, 0, 66, 64
3, 19149, Note_on_c, 0, 66, 0
3, 19152, Note_on_c, 0, 64, 64
3, 19197, Note_on_c, 0, 64, 0
3, 19200, Note_on_c, 0, 66, 64
3, 19245, Note_on_c, 0, 66, 0
3, 19248, Note_on_c, 0, 62, 64
3, 19293, Note_on_c, 0, 62, 0
3, 19296, Note_on_c, 0, 67, 64
3, 19308, Note_on_c, 0, 67, 0
3, 19308, Note_on_c, 0, 69, 64
3, 19320, Note_on_c, 0, 69, 0
3, 19320, Note_on_c, 0, 67, 64
3, 19332, Note_on_c, 0, 67, 0
3, 19332, Note_on_c, 0, 69, 64
3, 19344, Note_on_c, 0, 69, 0
3, 19344, Note_on_c, 0, 67, 64
3, 19356, Note_on_c, 0, 67, 0
3, 19356, Note_on_c, 0, 69, 64
3, 19368, Note_on_c, 0, 69, 0
3, 19368, Note_on_c, 0, 67, 64
3, 19380, Note_on_c, 0, 67, 0
3, 19380, Note_on_c, 0, 69, 64
3, 19392, Note_on_c, 0, 69, 0
3, 19392, Note_on_c, 0, 67, 64
3, 19404, Note_on_c, 0, 67, 0
3, 19404, Note_on_c, 0, 69, 64
3, 19416, Note_on_c, 0, 69, 0
3, 19416, Note_on_c, 0, 67, 64
3, 19428, Note_on_c, 0, 67, 0
3, 19428, Note_on_c, 0, 69, 64
3, 19440, Note_on_c, 0, 69, 0
3, 19440, Note_on_c, 0, 67, 64
3, 19452, Note_on_c, 0, 67, 0
3, 19452, Note_on_c, 0, 69, 64
3, 19464, Note_on_c, 0, 69, 0
3, 19464, Note_on_c, 0, 67, 64
3, 19476, Note_on_c, 0, 67, 0
3, 19476, Note_on_c, 0, 69, 64
3, 19488, Note_on_c, 0, 69, 0
3, 19488, Note_on_c, 0, 67, 64
3, 19500, Note_on_c, 0, 67, 0
3, 19500, Note_on_c, 0, 69, 64
3, 19512, Note_on_c, 0, 69, 0
3, 19512, Note_on_c, 0, 67, 64
3, 19524, Note_on_c, 0, 67, 0
3, 19524, Note_on_c, 0, 69, 64
3, 19536, Note_on_c, 0, 69, 0
3, 19536, Note_on_c, 0, 67, 64
3, 19548, Note_on_c, 0, 67, 0
3, 19548, Note_on_c, 0, 69, 64
3, 19560, Note_on_c, 0, 69, 0
3, 19560, Note_on_c, 0, 67, 64
3, 19572, Note_on_c, 0, 67, 0
3, 19572, Note_on_c, 0, 69, 64
3, 19584, Note_on_c, 0, 69, 0
3, 19584, Note_on_c, 0, 67, 64
3, 19596, Note_on_c, 0, 67, 0
3, 19596, Note_on_c, 0, 69, 64
3, 19608, Note_on_c, 0, 69, 0
3, 19608, Note_on_c, 0, 67, 64
3, 19620, Note_on_c, 0, 67, 0
3, 19620, Note_on_c, 0, 69, 64
3, 19632, Note_on_c, 0, 69, 0
3, 19632, Note_on_c, 0, 67, 64
3, 19644, Note_on_c, 0, 67, 0
3, 19644, Note_on_c, 0, 69, 64
3, 19656, Note_on_c, 0, 69, 0
3, 19656, Note_on_c, 0, 67, 64
3, 19668, Note_on_c, 0, 67, 0
3, 19668, Note_on_c, 0, 69, 64
3, 19680, Note_on_c, 0, 69, 0
3, 19680, Note_on_c, 0, 66, 64
3, 19725, Note_on_c, 0, 66, 0
3, 19728, Note_on_c, 0, 64, 64
3, 19773, Note_on_c, 0, 64, 0
3, 19776, Note_on_c, 0, 66, 64
3, 19821, Note_on_c, 0, 66, 0
3, 19824, Note_on_c, 0, 62, 64
3, 19869, Note_on_c, 0, 62, 0
3, 19872, Note_on_c, 0, 64, 100
3, 19872, Note_on_c, 0, 68, 100
3, 19872, Note_on_c, 0, 71, 100
3, 19872, Note_on_c, 0, 76, 64
3, 19961, Note_on_c, 0, 76, 0
3, 19968, Note_on_c, 0, 64, 0
3, 19968, Note_on_c, 0, 68, 0
3, 19968, Note_on_c, 0, 71, 0
3, 19992, Note_on_c, 0, 76, 64
3, 20015, Note_on_c, 0, 76, 0
3, 20016, Note_on_c, 0, 74, 64
3, 20039, Note_on_c, 0, 74, 0
3, 20040, Note_on_c, 0, 73, 64
3, 20063, Note_on_c, 0, 73, 0
3, 20064, Note_on_c, 0, 71, 64
3, 20087, Note_on_c, 0, 71, 0
3, 20088, Note_on_c, 0, 69, 64
3, 20111, Note_on_c, 0, 69, 0
3, 20112, Note_on_c, 0, 68, 64
3, 20135, Note_on_c, 0, 68, 0
3, 20136, Note_on_c, 0, 66, 64
3, 20159, Note_on_c, 0, 66, 0
3, 20160, Note_on_c, 0, 64, 100
3, 20160, Note_on_c, 0, 73, 100
3, 20160, Note_on_c, 0, 76, 100
3, 20160, Note_on_c, 0, 69, 64
3, 20249, Note_on_c, 0, 69, 0
3, 20256, Note_on_c, 0, 64, 0
3, 20256, Note_on_c, 0, 73, 0
3, 20256, Note_on_c, 0, 76, 0
3, 20304, Note_on_c, 0, 76, 64
3, 20327, Note_on_c, 0, 76, 0
3, 20328, Note_on_c, 0, 74, 64
3, 20351, Note_on_c, 0, 74, 0
3, 20352, Note_on_c, 0, 73, 64
3, 20375, Note_on_c, 0, 73, 0
3, 20376, Note_on_c, 0, 71, 64
3, 20399, Note_on_c, 0, 71, 0
3, 20400, Note_on_c, 0, 69, 64
3, 20423, Note_on_c, 0, 69, 0
3, 20424, Note_on_c, 0, 68, 64
3, 20447, Note_on_c, 0, 68, 0
3, 20448, Note_on_c, 0, 78, 100
3, 20448, Note_on_c, 0, 75, 100
3, 20448, Note_on_c, 0, 71, 100
3, 20448, Note_on_c, 0, 66, 64
3, 20537, Note_on_c, 0, 66, 0
3, 20544, Note_on_c, 0, 78, 0
3, 20544, Note_on_c, 0, 75, 0
3, 20544, Note_on_c, 0, 71, 0
3, 20592, Note_on_c, 0, 78, 64
3, 20615, Note_on_c, 0, 78, 0
3, 20616, Note_on_c, 0, 76, 64
3, 20639, Note_on_c, 0, 76, 0
3, 20640, Note_on_c, 0, 75, 64
3, 20663, Note_on_c, 0, 75, 0
3, 20664, Note_on_c, 0, 73, 64
3, 20687, Note_on_c, 0, 73, 0
3, 20688, Note_on_c, 0, 71, 64
3, 20711, Note_on_c, 0, 71, 0
3, 20712, Note_on_c, 0, 69, 64
3, 20735, Note_on_c, 0, 69, 0
3, 20736, Note_on_c, 0, 73, 64
3, 20759, Note_on_c, 0, 73, 0
3, 20760, Note_on_c, 0, 71, 64
3, 20783, Note_on_c, 0, 71, 0
3, 20784, Note_on_c, 0, 69, 64
3, 20807, Note_on_c, 0, 69, 0
3, 20808, Note_on_c, 0, 68, 64
3, 20831, Note_on_c, 0, 68, 0
3, 20832, Note_on_c, 0, 69, 64
3, 20855, Note_on_c, 0, 69, 0
3, 20856, Note_on_c, 0, 71, 64
3, 20879, Note_on_c, 0, 71, 0
3, 20880, Note_on_c, 0, 73, 64
3, 20903, Note_on_c, 0, 73, 0
3, 20904, Note_on_c, 0, 75, 64
3, 20927, Note_on_c, 0, 75, 0
3, 20928, Note_on_c, 0, 76, 64
3, 20951, Note_on_c, 0, 76, 0
3, 20952, Note_on_c, 0, 78, 64
3, 20975, Note_on_c, 0, 78, 0
3, 20976, Note_on_c, 0, 80, 64
3, 20999, Note_on_c, 0, 80, 0
3, 21000, Note_on_c, 0, 78, 64
3, 21023, Note_on_c, 0, 78, 0
3, 21024, Note_on_c, 0, 80, 64
3, 21069, Note_on_c, 0, 80, 0
3, 21072, Note_on_c, 0, 64, 64
3, 21095, Note_on_c, 0, 64, 0
3, 21096, Note_on_c, 0, 66, 64
3, 21119, Note_on_c, 0, 66, 0
3, 21120, Note_on_c, 0, 68, 64
3, 21165, Note_on_c, 0, 68, 0
3, 21168, Note_on_c, 0, 68, 64
3, 21191, Note_on_c, 0, 68, 0
3, 21192, Note_on_c, 0, 69, 64
3, 21215, Note_on_c, 0, 69, 0
3, 21216, Note_on_c, 0, 71, 64
3, 21261, Note_on_c, 0, 71, 0
3, 21264, Note_on_c, 0, 71, 64
3, 21287, Note_on_c, 0, 71, 0
3, 21288, Note_on_c, 0, 73, 64
3, 21311, Note_on_c, 0, 73, 0
3, 21312, Note_on_c, 0, 74, 64
3, 21445, Note_on_c, 0, 74, 0
3, 21456, Note_on_c, 0, 73, 64
3, 21479, Note_on_c, 0, 73, 0
3, 21480, Note_on_c, 0, 74, 64
3, 21503, Note_on_c, 0, 74, 0
3, 21504, Note_on_c, 0, 76, 64
3, 21527, Note_on_c, 0, 76, 0
3, 21528, Note_on_c, 0, 74, 64
3, 21551, Note_on_c, 0, 74, 0
3, 21552, Note_on_c, 0, 73, 64
3, 21575, Note_on_c, 0, 73, 0
3, 21576, Note_on_c, 0, 71, 64
3, 21599, Note_on_c, 0, 71, 0
3, 21600, Note_on_c, 0, 73, 64
3, 21645, Note_on_c, 0, 73, 0
3, 21648, Note_on_c, 0, 69, 64
3, 21671, Note_on_c, 0, 69, 0
3, 21672, Note_on_c, 0, 71, 64
3, 21695, Note_on_c, 0, 71, 0
3, 21696, Note_on_c, 0, 73, 64
3, 21741, Note_on_c, 0, 73, 0
3, 21744, Note_on_c, 0, 73, 64
3, 21767, Note_on_c, 0, 73, 0
3, 21768, Note_on_c, 0, 74, 64
3, 21791, Note_on_c, 0, 74, 0
3, 21792, Note_on_c, 0, 76, 64
3, 21837, Note_on_c, 0, 76, 0
3, 21840, Note_on_c, 0, 78, 64
3, 21863, Note_on_c, 0, 78, 0
3, 21864, Note_on_c, 0, 80, 64
3, 21887, Note_on_c, 0, 80, 0
3, 21888, Note_on_c, 0, 81, 64
3, 22021, Note_on_c, 0, 81, 0
3, 22032, Note_on_c, 0, 78, 64
3, 22055, Note_on_c, 0, 78, 0
3, 22056, Note_on_c, 0, 80, 64
3, 22079, Note_on_c, 0, 80, 0
3, 22080, Note_on_c, 0, 81, 64
3, 22103, Note_on_c, 0, 81, 0
3, 22104, Note_on_c, 0, 80, 64
3, 22127, Note_on_c, 0, 80, 0
3, 22128, Note_on_c, 0, 78, 64
3, 22151, Note_on_c, 0, 78, 0
3, 22152, Note_on_c, 0, 76, 64
3, 22175, Note_on_c, 0, 76, 0
3, 22176, Note_on_c, 0, 75, 64
3, 22221, Note_on_c, 0, 75, 0
3, 22224, Note_on_c, 0, 71, 64
3, 22247, Note_on_c, 0, 71, 0
3, 22248, Note_on_c, 0, 73, 64
3, 22271, Note_on_c, 0, 73, 0
3, 22272, Note_on_c, 0, 75, 64
3, 22317, Note_on_c, 0, 75, 0
3, 22320, Note_on_c, 0, 75, 64
3, 22343, Note_on_c, 0, 75, 0
3, 22344, Note_on_c, 0, 76, 64
3, 22367, Note_on_c, 0, 76, 0
3, 22368, Note_on_c, 0, 78, 64
3, 22413, Note_on_c, 0, 78, 0
3, 22416, Note_on_c, 0, 78, 64
3, 22439, Note_on_c, 0, 78, 0
3, 22440, Note_on_c, 0, 80, 64
3, 22463, Note_on_c, 0, 80, 0
3, 22464, Note_on_c, 0, 81, 64
3, 22597, Note_on_c, 0, 81, 0
3, 22608, Note_on_c, 0, 80, 64
3, 22631, Note_on_c, 0, 80, 0
3, 22632, Note_on_c, 0, 81, 64
3, 22655, Note_on_c, 0, 81, 0
3, 22656, Note_on_c, 0, 83, 64
3, 22679, Note_on_c, 0, 83, 0
3, 22680, Note_on_c, 0, 81, 64
3, 22703, Note_on_c, 0, 81, 0
3, 22704, Note_on_c, 0, 80, 64
3, 22727, Note_on_c, 0, 80, 0
3, 22728, Note_on_c, 0, 78, 64
3, 22751, Note_on_c, 0, 78, 0
3, 22752, Note_on_c, 0, 80, 64
3, 22775, Note_on_c, 0, 80, 0
3, 22776, Note_on_c, 0, 83, 64
3, 22799, Note_on_c, 0, 83, 0
3, 22800, Note_on_c, 0, 86, 64
3, 22823, Note_on_c, 0, 86, 0
3, 22824, Note_on_c, 0, 85, 64
3, 22847, Note_on_c, 0, 85, 0
3, 22848, Note_on_c, 0, 83, 64
3, 22871, Note_on_c, 0, 83, 0
3, 22872, Note_on_c, 0, 81, 64
3, 22895, Note_on_c, 0, 81, 0
3, 22896, Note_on_c, 0, 80, 64
3, 22919, Note_on_c, 0, 80, 0
3, 22920, Note_on_c, 0, 78, 64
3, 22943, Note_on_c, 0, 78, 0
3, 22944, Note_on_c, 0, 76, 64
3, 22967, Note_on_c, 0, 76, 0
3, 22968, Note_on_c, 0, 74, 64
3, 22991, Note_on_c, 0, 74, 0
3, 22992, Note_on_c, 0, 73, 64
3, 23015, Note_on_c, 0, 73, 0
3, 23016, Note_on_c, 0, 71, 64
3, 23039, Note_on_c, 0, 71, 0
3, 23040, Note_on_c, 0, 73, 64
3, 23085, Note_on_c, 0, 73, 0
3, 23088, Note_on_c, 0, 66, 64
3, 23111, Note_on_c, 0, 66, 0
3, 23112, Note_on_c, 0, 68, 64
3, 23135, Note_on_c, 0, 68, 0
3, 23136, Note_on_c, 0, 69, 64
3, 23181, Note_on_c, 0, 69, 0
3, 23184, Note_on_c, 0, 69, 64
3, 23207, Note_on_c, 0, 69, 0
3, 23208, Note_on_c, 0, 71, 64
3, 23231, Note_on_c, 0, 71, 0
3, 23232, Note_on_c, 0, 73, 64
3, 23277, Note_on_c, 0, 73, 0
3, 23280, Note_on_c, 0, 74, 64
3, 23303, Note_on_c, 0, 74, 0
3, 23304, Note_on_c, 0, 76, 64
3, 23327, Note_on_c, 0, 76, 0
3, 23328, Note_on_c, 0, 78, 64
3, 23351, Note_on_c, 0, 78, 0
3, 23352, Note_on_c, 0, 81, 64
3, 23375, Note_on_c, 0, 81, 0
3, 23376, Note_on_c, 0, 85, 64
3, 23399, Note_on_c, 0, 85, 0
3, 23400, Note_on_c, 0, 83, 64
3, 23423, Note_on_c, 0, 83, 0
3, 23424, Note_on_c, 0, 81, 64
3, 23447, Note_on_c, 0, 81, 0
3, 23448, Note_on_c, 0, 80, 64
3, 23471, Note_on_c, 0, 80, 0
3, 23472, Note_on_c, 0, 78, 64
3, 23495, Note_on_c, 0, 78, 0
3, 23496, Note_on_c, 0, 76, 64
3, 23519, Note_on_c, 0, 76, 0
3, 23520, Note_on_c, 0, 74, 64
3, 23543, Note_on_c, 0, 74, 0
3, 23544, Note_on_c, 0, 73, 64
3, 23567, Note_on_c, 0, 73, 0
3, 23568, Note_on_c, 0, 71, 64
3, 23591, Note_on_c, 0, 71, 0
3, 23592, Note_on_c, 0, 69, 64
3, 23615, Note_on_c, 0, 69, 0
3, 23616, Note_on_c, 0, 71, 64
3, 23661, Note_on_c, 0, 71, 0
3, 23664, Note_on_c, 0, 64, 64
3, 23687, Note_on_c, 0, 64, 0
3, 23688, Note_on_c, 0, 66, 64
3, 23711, Note_on_c, 0, 66, 0
3, 23712, Note_on_c, 0, 68, 64
3, 23757, Note_on_c, 0, 68, 0
3, 23760, Note_on_c, 0, 68, 64
3, 23783, Note_on_c, 0, 68, 0
3, 23784, Note_on_c, 0, 69, 64
3, 23807, Note_on_c, 0, 69, 0
3, 23808, Note_on_c, 0, 71, 64
3, 23853, Note_on_c, 0, 71, 0
3, 23856, Note_on_c, 0, 73, 64
3, 23879, Note_on_c, 0, 73, 0
3, 23880, Note_on_c, 0, 74, 64
3, 23903, Note_on_c, 0, 74, 0
3, 23904, Note_on_c, 0, 76, 64
3, 23927, Note_on_c, 0, 76, 0
3, 23928, Note_on_c, 0, 80, 64
3, 23951, Note_on_c, 0, 80, 0
3, 23952, Note_on_c, 0, 83, 64
3, 23975, Note_on_c, 0, 83, 0
3, 23976, Note_on_c, 0, 81, 64
3, 23999, Note_on_c, 0, 81, 0
3, 24000, Note_on_c, 0, 80, 64
3, 24023, Note_on_c, 0, 80, 0
3, 24024, Note_on_c, 0, 78, 64
3, 24047, Note_on_c, 0, 78, 0
3, 24048, Note_on_c, 0, 76, 64
3, 24071, Note_on_c, 0, 76, 0
3, 24072, Note_on_c, 0, 74, 64
3, 24095, Note_on_c, 0, 74, 0
3, 24096, Note_on_c, 0, 73, 64
3, 24119, Note_on_c, 0, 73, 0
3, 24120, Note_on_c, 0, 71, 64
3, 24143, Note_on_c, 0, 71, 0
3, 24144, Note_on_c, 0, 69, 64
3, 24167, Note_on_c, 0, 69, 0
3, 24168, Note_on_c, 0, 68, 64
3, 24191, Note_on_c, 0, 68, 0
3, 24192, Note_on_c, 0, 69, 64
3, 24237, Note_on_c, 0, 69, 0
3, 24240, Note_on_c, 0, 62, 64
3, 24263, Note_on_c, 0, 62, 0
3, 24264, Note_on_c, 0, 64, 64
3, 24287, Note_on_c, 0, 64, 0
3, 24288, Note_on_c, 0, 66, 64
3, 24333, Note_on_c, 0, 66, 0
3, 24336, Note_on_c, 0, 66, 64
3, 24359, Note_on_c, 0, 66, 0
3, 24360, Note_on_c, 0, 68, 64
3, 24383, Note_on_c, 0, 68, 0
3, 24384, Note_on_c, 0, 69, 64
3, 24429, Note_on_c, 0, 69, 0
3, 24432, Note_on_c, 0, 71, 64
3, 24455, Note_on_c, 0, 71, 0
3, 24456, Note_on_c, 0, 73, 64
3, 24479, Note_on_c, 0, 73, 0
3, 24480, Note_on_c, 0, 74, 64
3, 24503, Note_on_c, 0, 74, 0
3, 24504, Note_on_c, 0, 78, 64
3, 24527, Note_on_c, 0, 78, 0
3, 24528, Note_on_c, 0, 81, 64
3, 24551, Note_on_c, 0, 81, 0
3, 24552, Note_on_c, 0, 80, 64
3, 24575, Note_on_c, 0, 80, 0
3, 24576, Note_on_c, 0, 78, 64
3, 24599, Note_on_c, 0, 78, 0
3, 24600, Note_on_c, 0, 76, 64
3, 24623, Note_on_c, 0, 76, 0
3, 24624, Note_on_c, 0, 74, 64
3, 24647, Note_on_c, 0, 74, 0
3, 24648, Note_on_c, 0, 73, 64
3, 24671, Note_on_c, 0, 73, 0
3, 24672, Note_on_c, 0, 71, 64
3, 24695, Note_on_c, 0, 71, 0
3, 24696, Note_on_c, 0, 69, 64
3, 24719, Note_on_c, 0, 69, 0
3, 24720, Note_on_c, 0, 68, 64
3, 24743, Note_on_c, 0, 68, 0
3, 24744, Note_on_c, 0, 66, 64
3, 24767, Note_on_c, 0, 66, 0
3, 24768, Note_on_c, 0, 68, 64
3, 24813, Note_on_c, 0, 68, 0
3, 24816, Note_on_c, 0, 61, 64
3, 24839, Note_on_c, 0, 61, 0
3, 24840, Note_on_c, 0, 62, 64
3, 24863, Note_on_c, 0, 62, 0
3, 24864, Note_on_c, 0, 64, 64
3, 24909, Note_on_c, 0, 64, 0
3, 24912, Note_on_c, 0, 64, 64
3, 24935, Note_on_c, 0, 64, 0
3, 24936, Note_on_c, 0, 66, 64
3, 24959, Note_on_c, 0, 66, 0
3, 24960, Note_on_c, 0, 68, 64
3, 25005, Note_on_c, 0, 68, 0
3, 25008, Note_on_c, 0, 69, 64
3, 25031, Note_on_c, 0, 69, 0
3, 25032, Note_on_c, 0, 71, 64
3, 25055, Note_on_c, 0, 71, 0
3, 25056, Note_on_c, 0, 73, 64
3, 25101, Note_on_c, 0, 73, 0
3, 25104, Note_on_c, 0, 73, 64
3, 25127, Note_on_c, 0, 73, 0
3, 25128, Note_on_c, 0, 71, 64
3, 25151, Note_on_c, 0, 71, 0
3, 25152, Note_on_c, 0, 73, 64
3, 25197, Note_on_c, 0, 73, 0
3, 25200, Note_on_c, 0, 76, 64
3, 25245, Note_on_c, 0, 76, 0
3, 25248, Note_on_c, 0, 69, 64
3, 25293, Note_on_c, 0, 69, 0
3, 25296, Note_on_c, 0, 73, 64
3, 25341, Note_on_c, 0, 73, 0
3, 25344, Note_on_c, 0, 66, 64
3, 25389, Note_on_c, 0, 66, 0
3, 25392, Note_on_c, 0, 69, 64
3, 25415, Note_on_c, 0, 69, 0
3, 25416, Note_on_c, 0, 68, 64
3, 25439, Note_on_c, 0, 68, 0
3, 25440, Note_on_c, 0, 69, 64
3, 25485, Note_on_c, 0, 69, 0
3, 25488, Note_on_c, 0, 72, 64
3, 25533, Note_on_c, 0, 72, 0
3, 25536, Note_on_c, 0, 66, 64
3, 25581, Note_on_c, 0, 66, 0
3, 25584, Note_on_c, 0, 69, 64
3, 25629, Note_on_c, 0, 69, 0
3, 25632, Note_on_c, 0, 63, 64
3, 25677, Note_on_c, 0, 63, 0
3, 25680, Note_on_c, 0, 66, 64
3, 25703, Note_on_c, 0, 66, 0
3, 25704, Note_on_c, 0, 64, 64
3, 25727, Note_on_c, 0, 64, 0
3, 25728, Note_on_c, 0, 66, 64
3, 25773, Note_on_c, 0, 66, 0
3, 25776, Note_on_c, 0, 69, 64
3, 25821, Note_on_c, 0, 69, 0
3, 25824, Note_on_c, 0, 63, 64
3, 25869, Note_on_c, 0, 63, 0
3, 25872, Note_on_c, 0, 66, 64
3, 25917, Note_on_c, 0, 66, 0
3, 25920, Note_on_c, 0, 64, 64
3, 25943, Note_on_c, 0, 64, 0
3, 26112, Note_on_c, 0, 64, 64
3, 26135, Note_on_c, 0, 64, 0
3, 26136, Note_on_c, 0, 68, 64
3, 26159, Note_on_c, 0, 68, 0
3, 26160, Note_on_c, 0, 71, 64
3, 26183, Note_on_c, 0, 71, 0
3, 26184, Note_on_c, 0, 74, 64
3, 26207, Note_on_c, 0, 74, 0
3, 26208, Note_on_c, 0, 76, 64
3, 26231, Note_on_c, 0, 76, 0
3, 26232, Note_on_c, 0, 80, 64
3, 26255, Note_on_c, 0, 80, 0
3, 26256, Note_on_c, 0, 83, 64
3, 26279, Note_on_c, 0, 83, 0
3, 26280, Note_on_c, 0, 86, 64
3, 26303, Note_on_c, 0, 86, 0
3, 27984, Note_on_c, 0, 64, 64
3, 28007, Note_on_c, 0, 64, 0
3, 28008, Note_on_c, 0, 66, 64
3, 28031, Note_on_c, 0, 66, 0
3, 28032, Note_on_c, 0, 68, 64
3, 28077, Note_on_c, 0, 68, 0
3, 28080, Note_on_c, 0, 68, 64
3, 28103, Note_on_c, 0, 68, 0
3, 28104, Note_on_c, 0, 69, 64
3, 28127, Note_on_c, 0, 69, 0
3, 28128, Note_on_c, 0, 71, 64
3, 28173, Note_on_c, 0, 71, 0
3, 28176, Note_on_c, 0, 73, 64
3, 28199, Note_on_c, 0, 73, 0
3, 28200, Note_on_c, 0, 75, 64
3, 28223, Note_on_c, 0, 75, 0
3, 28224, Note_on_c, 0, 76, 64
3, 28269, Note_on_c, 0, 76, 0
3, 28272, Note_on_c, 0, 75, 64
3, 28295, Note_on_c, 0, 75, 0
3, 28296, Note_on_c, 0, 73, 64
3, 28319, Note_on_c, 0, 73, 0
3, 28320, Note_on_c, 0, 71, 64
3, 28365, Note_on_c, 0, 71, 0
3, 28368, Note_on_c, 0, 69, 64
3, 28413, Note_on_c, 0, 69, 0
3, 28416, Note_on_c, 0, 68, 64
3, 28461, Note_on_c, 0, 68, 0
3, 28464, Note_on_c, 0, 66, 64
3, 28509, Note_on_c, 0, 66, 0
3, 28512, Note_on_c, 0, 64, 64
3, 28557, Note_on_c, 0, 64, 0
3, 28560, Note_on_c, 0, 69, 64
3, 28583, Note_on_c, 0, 69, 0
3, 28584, Note_on_c, 0, 68, 64
3, 28607, Note_on_c, 0, 68, 0
3, 28608, Note_on_c, 0, 69, 64
3, 28653, Note_on_c, 0, 69, 0
3, 28656, Note_on_c, 0, 73, 64
3, 28701, Note_on_c, 0, 73, 0
3, 28704, Note_on_c, 0, 66, 64
3, 28749, Note_on_c, 0, 66, 0
3, 28752, Note_on_c, 0, 71, 64
3, 28797, Note_on_c, 0, 71, 0
3, 28800, Note_on_c, 0, 68, 64
3, 28845, Note_on_c, 0, 68, 0
3, 28848, Note_on_c, 0, 73, 64
3, 28871, Note_on_c, 0, 73, 0
3, 28872, Note_on_c, 0, 71, 64
3, 28895, Note_on_c, 0, 71, 0
3, 28896, Note_on_c, 0, 73, 64
3, 28941, Note_on_c, 0, 73, 0
3, 28944, Note_on_c, 0, 76, 64
3, 28989, Note_on_c, 0, 76, 0
3, 28992, Note_on_c, 0, 69, 64
3, 29037, Note_on_c, 0, 69, 0
3, 29040, Note_on_c, 0, 74, 64
3, 29085, Note_on_c, 0, 74, 0
3, 29088, Note_on_c, 0, 71, 64
3, 29133, Note_on_c, 0, 71, 0
3, 29136, Note_on_c, 0, 76, 64
3, 29159, Note_on_c, 0, 76, 0
3, 29160, Note_on_c, 0, 74, 64
3, 29183, Note_on_c, 0, 74, 0
3, 29184, Note_on_c, 0, 76, 64
3, 29229, Note_on_c, 0, 76, 0
3, 29232, Note_on_c, 0, 80, 64
3, 29277, Note_on_c, 0, 80, 0
3, 29280, Note_on_c, 0, 73, 64
3, 29325, Note_on_c, 0, 73, 0
3, 29328, Note_on_c, 0, 78, 64
3, 29373, Note_on_c, 0, 78, 0
3, 29376, Note_on_c, 0, 74, 64
3, 29399, Note_on_c, 0, 74, 0
3, 29400, Note_on_c, 0, 73, 64
3, 29423, Note_on_c, 0, 73, 0
3, 29424, Note_on_c, 0, 74, 64
3, 29447, Note_on_c, 0, 74, 0
3, 29448, Note_on_c, 0, 76, 64
3, 29471, Note_on_c, 0, 76, 0
3, 29472, Note_on_c, 0, 78, 64
3, 29517, Note_on_c, 0, 78, 0
3, 29520, Note_on_c, 0, 69, 64
3, 29565, Note_on_c, 0, 69, 0
3, 29568, Note_on_c, 0, 68, 64
3, 29613, Note_on_c, 0, 68, 0
3, 29616, Note_on_c, 0, 74, 64
3, 29661, Note_on_c, 0, 74, 0
3, 29664, Note_on_c, 0, 73, 64
3, 29687, Note_on_c, 0, 73, 0
3, 29688, Note_on_c, 0, 71, 64
3, 29711, Note_on_c, 0, 71, 0
3, 29712, Note_on_c, 0, 73, 64
3, 29735, Note_on_c, 0, 73, 0
3, 29736, Note_on_c, 0, 74, 64
3, 29759, Note_on_c, 0, 74, 0
3, 29760, Note_on_c, 0, 76, 64
3, 29805, Note_on_c, 0, 76, 0
3, 29808, Note_on_c, 0, 69, 64
3, 29853, Note_on_c, 0, 69, 0
3, 29856, Note_on_c, 0, 68, 64
3, 29901, Note_on_c, 0, 68, 0
3, 29904, Note_on_c, 0, 74, 64
3, 29949, Note_on_c, 0, 74, 0
3, 29952, Note_on_c, 0, 73, 64
3, 29975, Note_on_c, 0, 73, 0
3, 29976, Note_on_c, 0, 71, 64
3, 29999, Note_on_c, 0, 71, 0
3, 30000, Note_on_c, 0, 73, 64
3, 30023, Note_on_c, 0, 73, 0
3, 30024, Note_on_c, 0, 74, 64
3, 30047, Note_on_c, 0, 74, 0
3, 30048, Note_on_c, 0, 76, 64
3, 30093, Note_on_c, 0, 76, 0
3, 30096, Note_on_c, 0, 69, 64
3, 30141, Note_on_c, 0, 69, 0
3, 30144, Note_on_c, 0, 64, 64
3, 30189, Note_on_c, 0, 64, 0
3, 30192, Note_on_c, 0, 67, 64
3, 30237, Note_on_c, 0, 67, 0
3, 30240, Note_on_c, 0, 66, 64
3, 30263, Note_on_c, 0, 66, 0
3, 30264, Note_on_c, 0, 67, 64
3, 30287, Note_on_c, 0, 67, 0
3, 30288, Note_on_c, 0, 66, 64
3, 30311, Note_on_c, 0, 66, 0
3, 30312, Note_on_c, 0, 64, 64
3, 30335, Note_on_c, 0, 64, 0
3, 30336, Note_on_c, 0, 62, 64
3, 30359, Note_on_c, 0, 62, 0
3, 30360, Note_on_c, 0, 61, 64
3, 30383, Note_on_c, 0, 61, 0
3, 30384, Note_on_c, 0, 59, 64
3, 30407, Note_on_c, 0, 59, 0
3, 30408, Note_on_c, 0, 57, 64
3, 30431, Note_on_c, 0, 57, 0
3, 30432, Note_on_c, 0, 56, 64
3, 30477, Note_on_c, 0, 56, 0
3, 30480, Note_on_c, 0, 68, 64
3, 30525, Note_on_c, 0, 68, 0
3, 30528, Note_on_c, 0, 69, 64
3, 30551, Note_on_c, 0, 69, 0
3, 30552, Note_on_c, 0, 71, 64
3, 30575, Note_on_c, 0, 71, 0
3, 30576, Note_on_c, 0, 69, 64
3, 30599, Note_on_c, 0, 69, 0
3, 30600, Note_on_c, 0, 68, 64
3, 30623, Note_on_c, 0, 68, 0
3, 30624, Note_on_c, 0, 66, 64
3, 30647, Note_on_c, 0, 66, 0
3, 30648, Note_on_c, 0, 64, 64
3, 30671, Note_on_c, 0, 64, 0
3, 30672, Note_on_c, 0, 63, 64
3, 30695, Note_on_c, 0, 63, 0
3, 30696, Note_on_c, 0, 61, 64
3, 30719, Note_on_c, 0, 61, 0
3, 30720, Note_on_c, 0, 59, 64
3, 30765, Note_on_c, 0, 59, 0
3, 30768, Note_on_c, 0, 71, 64
3, 30813, Note_on_c, 0, 71, 0
3, 30816, Note_on_c, 0, 73, 64
3, 30839, Note_on_c, 0, 73, 0
3, 30840, Note_on_c, 0, 74, 64
3, 30863, Note_on_c, 0, 74, 0
3, 30864, Note_on_c, 0, 73, 64
3, 30887, Note_on_c, 0, 73, 0
3, 30888, Note_on_c, 0, 71, 64
3, 30911, Note_on_c, 0, 71, 0
3, 30912, Note_on_c, 0, 69, 64
3, 30935, Note_on_c, 0, 69, 0
3, 30936, Note_on_c, 0, 68, 64
3, 30959, Note_on_c, 0, 68, 0
3, 30960, Note_on_c, 0, 66, 64
3, 30983, Note_on_c, 0, 66, 0
3, 30984, Note_on_c, 0, 64, 64
3, 31007, Note_on_c, 0, 64, 0
3, 31008, Note_on_c, 0, 66, 64
3, 31031, Note_on_c, 0, 66, 0
3, 31032, Note_on_c, 0, 69, 64
3, 31055, Note_on_c, 0, 69, 0
3, 31056, Note_on_c, 0, 68, 64
3, 31079, Note_on_c, 0, 68, 0
3, 31080, Note_on_c, 0, 66, 64
3, 31103, Note_on_c, 0, 66, 0
3, 31104, Note_on_c, 0, 68, 64
3, 31193, Note_on_c, 0, 68, 0
3, 31392, Note_on_c, 0, 81, 64
3, 31437, Note_on_c, 0, 81, 0
3, 31440, Note_on_c, 0, 80, 64
3, 31463, Note_on_c, 0, 80, 0
3, 31464, Note_on_c, 0, 78, 64
3, 31487, Note_on_c, 0, 78, 0
3, 31488, Note_on_c, 0, 76, 64
3, 31511, Note_on_c, 0, 76, 0
3, 31512, Note_on_c, 0, 74, 64
3, 31535, Note_on_c, 0, 74, 0
3, 31536, Note_on_c, 0, 73, 64
3, 31559, Note_on_c, 0, 73, 0
3, 31560, Note_on_c, 0, 71, 64
3, 31583, Note_on_c, 0, 71, 0
3, 31584, Note_on_c, 0, 69, 64
3, 31607, Note_on_c, 0, 69, 0
3, 31608, Note_on_c, 0, 73, 64
3, 31631, Note_on_c, 0, 73, 0
3, 31632, Note_on_c, 0, 71, 64
3, 31655, Note_on_c, 0, 71, 0
3, 31656, Note_on_c, 0, 69, 64
3, 31679, Note_on_c, 0, 69, 0
3, 31680, Note_on_c, 0, 74, 64
3, 31725, Note_on_c, 0, 74, 0
3, 31728, Note_on_c, 0, 69, 64
3, 31773, Note_on_c, 0, 69, 0
3, 31776, Note_on_c, 0, 66, 64
3, 31821, Note_on_c, 0, 66, 0
3, 31824, Note_on_c, 0, 62, 64
3, 31869, Note_on_c, 0, 62, 0
3, 31872, Note_on_c, 0, 74, 64
3, 31917, Note_on_c, 0, 74, 0
3, 31920, Note_on_c, 0, 71, 64
3, 31965, Note_on_c, 0, 71, 0
3, 31968, Note_on_c, 0, 68, 64
3, 31991, Note_on_c, 0, 68, 0
3, 31992, Note_on_c, 0, 61, 64
3, 32015, Note_on_c, 0, 61, 0
3, 32016, Note_on_c, 0, 62, 64
3, 32039, Note_on_c, 0, 62, 0
3, 32040, Note_on_c, 0, 64, 64
3, 32063, Note_on_c, 0, 64, 0
3, 32064, Note_on_c, 0, 66, 64
3, 32087, Note_on_c, 0, 66, 0
3, 32088, Note_on_c, 0, 68, 64
3, 32111, Note_on_c, 0, 68, 0
3, 32112, Note_on_c, 0, 69, 64
3, 32135, Note_on_c, 0, 69, 0
3, 32136, Note_on_c, 0, 71, 64
3, 32159, Note_on_c, 0, 71, 0
3, 32160, Note_on_c, 0, 73, 64
3, 32183, Note_on_c, 0, 73, 0
3, 32184, Note_on_c, 0, 71, 64
3, 32207, Note_on_c, 0, 71, 0
3, 32208, Note_on_c, 0, 69, 64
3, 32231, Note_on_c, 0, 69, 0
3, 32232, Note_on_c, 0, 68, 64
3, 32255, Note_on_c, 0, 68, 0
3, 32256, Note_on_c, 0, 66, 64
3, 32375, Note_on_c, 0, 66, 0
3, 32376, Note_on_c, 0, 73, 64
3, 32399, Note_on_c, 0, 73, 0
3, 32400, Note_on_c, 0, 71, 64
3, 32423, Note_on_c, 0, 71, 0
3, 32424, Note_on_c, 0, 69, 64
3, 32447, Note_on_c, 0, 69, 0
3, 32448, Note_on_c, 0, 68, 64
3, 32460, Note_on_c, 0, 68, 0
3, 32460, Note_on_c, 0, 69, 64
3, 32472, Note_on_c, 0, 69, 0
3, 32472, Note_on_c, 0, 68, 64
3, 32484, Note_on_c, 0, 68, 0
3, 32484, Note_on_c, 0, 69, 64
3, 32496, Note_on_c, 0, 69, 0
3, 32496, Note_on_c, 0, 68, 64
3, 32508, Note_on_c, 0, 68, 0
3, 32508, Note_on_c, 0, 69, 64
3, 32520, Note_on_c, 0, 69, 0
3, 32520, Note_on_c, 0, 66, 64
3, 32532, Note_on_c, 0, 66, 0
3, 32532, Note_on_c, 0, 68, 64
3, 32544, Note_on_c, 0, 68, 0
3, 32544, Note_on_c, 0, 69, 64
3, 32589, Note_on_c, 0, 69, 0
3, 32592, Note_on_c, 0, 69, 64
3, 32615, Note_on_c, 0, 69, 0
3, 32616, Note_on_c, 0, 71, 64
3, 32639, Note_on_c, 0, 71, 0
3, 32640, Note_on_c, 0, 73, 64
3, 32685, Note_on_c, 0, 73, 0
3, 32688, Note_on_c, 0, 73, 64
3, 32711, Note_on_c, 0, 73, 0
3, 32712, Note_on_c, 0, 74, 64
3, 32735, Note_on_c, 0, 74, 0
3, 32736, Note_on_c, 0, 76, 64
3, 32781, Note_on_c, 0, 76, 0
3, 32784, Note_on_c, 0, 78, 64
3, 32807, Note_on_c, 0, 78, 0
3, 32808, Note_on_c, 0, 80, 64
3, 32831, Note_on_c, 0, 80, 0
3, 32832, Note_on_c, 0, 81, 64
3, 32877, Note_on_c, 0, 81, 0
3, 32880, Note_on_c, 0, 80, 64
3, 32903, Note_on_c, 0, 80, 0
3, 32904, Note_on_c, 0, 78, 64
3, 32927, Note_on_c, 0, 78, 0
3, 32928, Note_on_c, 0, 76, 64
3, 32973, Note_on_c, 0, 76, 0
3, 32976, Note_on_c, 0, 74, 64
3, 33021, Note_on_c, 0, 74, 0
3, 33024, Note_on_c, 0, 73, 64
3, 33069, Note_on_c, 0, 73, 0
3, 33072, Note_on_c, 0, 71, 64
3, 33117, Note_on_c, 0, 71, 0
3, 33120, Note_on_c, 0, 69, 64
3, 33165, Note_on_c, 0, 69, 0
3, 33168, Note_on_c, 0, 74, 64
3, 33191, Note_on_c, 0, 74, 0
3, 33192, Note_on_c, 0, 73, 64
3, 33215, Note_on_c, 0, 73, 0
3, 33216, Note_on_c, 0, 74, 64
3, 33261, Note_on_c, 0, 74, 0
3, 33264, Note_on_c, 0, 78, 64
3, 33309, Note_on_c, 0, 78, 0
3, 33312, Note_on_c, 0, 71, 64
3, 33357, Note_on_c, 0, 71, 0
3, 33360, Note_on_c, 0, 76, 64
3, 33405, Note_on_c, 0, 76, 0
3, 33408, Note_on_c, 0, 73, 64
3, 33453, Note_on_c, 0, 73, 0
3, 33456, Note_on_c, 0, 78, 64
3, 33479, Note_on_c, 0, 78, 0
3, 33480, Note_on_c, 0, 76, 64
3, 33503, Note_on_c, 0, 76, 0
3, 33504, Note_on_c, 0, 78, 64
3, 33549, Note_on_c, 0, 78, 0
3, 33552, Note_on_c, 0, 81, 64
3, 33597, Note_on_c, 0, 81, 0
3, 33600, Note_on_c, 0, 75, 64
3, 33645, Note_on_c, 0, 75, 0
3, 33648, Note_on_c, 0, 80, 64
3, 33693, Note_on_c, 0, 80, 0
3, 33696, Note_on_c, 0, 76, 64
3, 33741, Note_on_c, 0, 76, 0
3, 33744, Note_on_c, 0, 81, 64
3, 33767, Note_on_c, 0, 81, 0
3, 33768, Note_on_c, 0, 80, 64
3, 33791, Note_on_c, 0, 80, 0
3, 33792, Note_on_c, 0, 81, 64
3, 33837, Note_on_c, 0, 81, 0
3, 33840, Note_on_c, 0, 85, 64
3, 33885, Note_on_c, 0, 85, 0
3, 33888, Note_on_c, 0, 78, 64
3, 33933, Note_on_c, 0, 78, 0
3, 33936, Note_on_c, 0, 83, 64
3, 33981, Note_on_c, 0, 83, 0
3, 33984, Note_on_c, 0, 80, 64
3, 34007, Note_on_c, 0, 80, 0
3, 34008, Note_on_c, 0, 81, 64
3, 34031, Note_on_c, 0, 81, 0
3, 34032, Note_on_c, 0, 80, 64
3, 34055, Note_on_c, 0, 80, 0
3, 34056, Note_on_c, 0, 78, 64
3, 34079, Note_on_c, 0, 78, 0
3, 34080, Note_on_c, 0, 76, 64
3, 34103, Note_on_c, 0, 76, 0
3, 34104, Note_on_c, 0, 74, 64
3, 34127, Note_on_c, 0, 74, 0
3, 34128, Note_on_c, 0, 73, 64
3, 34151, Note_on_c, 0, 73, 0
3, 34152, Note_on_c, 0, 71, 64
3, 34175, Note_on_c, 0, 71, 0
3, 34176, Note_on_c, 0, 69, 64
3, 34199, Note_on_c, 0, 69, 0
3, 34200, Note_on_c, 0, 68, 64
3, 34223, Note_on_c, 0, 68, 0
3, 34224, Note_on_c, 0, 66, 64
3, 34247, Note_on_c, 0, 66, 0
3, 34248, Note_on_c, 0, 64, 64
3, 34271, Note_on_c, 0, 64, 0
3, 34272, Note_on_c, 0, 76, 64
3, 34339, Note_on_c, 0, 76, 0
3, 34344, Note_on_c, 0, 78, 64
3, 34367, Note_on_c, 0, 78, 0
3, 34368, Note_on_c, 0, 71, 64
3, 34380, Note_on_c, 0, 71, 0
3, 34380, Note_on_c, 0, 73, 64
3, 34392, Note_on_c, 0, 73, 0
3, 34392, Note_on_c, 0, 71, 64
3, 34404, Note_on_c, 0, 71, 0
3, 34404, Note_on_c, 0, 73, 64
3, 34416, Note_on_c, 0, 73, 0
3, 34416, Note_on_c, 0, 71, 64
3, 34428, Note_on_c, 0, 71, 0
3, 34428, Note_on_c, 0, 73, 64
3, 34440, Note_on_c, 0, 73, 0
3, 34440, Note_on_c, 0, 71, 64
3, 34452, Note_on_c, 0, 71, 0
3, 34452, Note_on_c, 0, 73, 64
3, 34464, Note_on_c, 0, 73, 0
3, 34464, Note_on_c, 0, 71, 64
3, 34476, Note_on_c, 0, 71, 0
3, 34476, Note_on_c, 0, 73, 64
3, 34488, Note_on_c, 0, 73, 0
3, 34488, Note_on_c, 0, 71, 64
3, 34500, Note_on_c, 0, 71, 0
3, 34500, Note_on_c, 0, 73, 64
3, 34512, Note_on_c, 0, 73, 0
3, 34512, Note_on_c, 0, 69, 64
3, 34557, Note_on_c, 0, 69, 0
3, 34560, Note_on_c, 0, 69, 64
3, 34605, Note_on_c, 0, 69, 0
3, 34608, Note_on_c, 0, 57, 64
3, 34631, Note_on_c, 0, 57, 0
3, 34632, Note_on_c, 0, 59, 64
3, 34655, Note_on_c, 0, 59, 0
3, 34656, Note_on_c, 0, 61, 64
3, 34701, Note_on_c, 0, 61, 0
3, 34704, Note_on_c, 0, 61, 64
3, 34727, Note_on_c, 0, 61, 0
3, 34728, Note_on_c, 0, 62, 64
3, 34751, Note_on_c, 0, 62, 0
3, 34752, Note_on_c, 0, 64, 64
3, 34797, Note_on_c, 0, 64, 0
3, 34800, Note_on_c, 0, 66, 64
3, 34823, Note_on_c, 0, 66, 0
3, 34824, Note_on_c, 0, 68, 64
3, 34847, Note_on_c, 0, 68, 0
3, 34848, Note_on_c, 0, 69, 64
3, 34937, Note_on_c, 0, 69, 0
3, 34937, End_track
4, 0, Start_track
4, 0, MIDI_port, 0
4, 0, Title_t, "Clavier (LH)"
4, 0, Program_c, 0, 6
4, 0, Control_c, 0, 7, 127
4, 0, Note_on_c, 0, 45, 64
4, 89, Note_on_c, 0, 45, 0
4, 96, Note_on_c, 0, 57, 64
4, 185, Note_on_c, 0, 57, 0
4, 192, Note_on_c, 0, 59, 64
4, 281, Note_on_c, 0, 59, 0
4, 288, Note_on_c, 0, 61, 64
4, 377, Note_on_c, 0, 61, 0
4, 384, Note_on_c, 0, 49, 64
4, 429, Note_on_c, 0, 49, 0
4, 432, Note_on_c, 0, 50, 64
4, 477, Note_on_c, 0, 50, 0
4, 480, Note_on_c, 0, 52, 64
4, 525, Note_on_c, 0, 52, 0
4, 528, Note_on_c, 0, 49, 64
4, 573, Note_on_c, 0, 49, 0
4, 576, Note_on_c, 0, 54, 64
4, 665, Note_on_c, 0, 54, 0
4, 672, Note_on_c, 0, 42, 64
4, 761, Note_on_c, 0, 42, 0
4, 768, Note_on_c, 0, 44, 64
4, 857, Note_on_c, 0, 44, 0
4, 864, Note_on_c, 0, 45, 64
4, 953, Note_on_c, 0, 45, 0
4, 960, Note_on_c, 0, 57, 64
4, 1049, Note_on_c, 0, 57, 0
4, 1056, Note_on_c, 0, 59, 64
4, 1145, Note_on_c, 0, 59, 0
4, 1152, Note_on_c, 0, 61, 64
4, 1241, Note_on_c, 0, 61, 0
4, 1248, Note_on_c, 0, 49, 64
4, 1337, Note_on_c, 0, 49, 0
4, 1344, Note_on_c, 0, 51, 64
4, 1433, Note_on_c, 0, 51, 0
4, 1440, Note_on_c, 0, 52, 64
4, 1617, Note_on_c, 0, 52, 0
4, 1632, Note_on_c, 0, 47, 64
4, 1721, Note_on_c, 0, 47, 0
4, 1728, Note_on_c, 0, 49, 64
4, 1773, Note_on_c, 0, 49, 0
4, 1776, Note_on_c, 0, 47, 64
4, 1799, Note_on_c, 0, 47, 0
4, 1800, Note_on_c, 0, 45, 64
4, 1823, Note_on_c, 0, 45, 0
4, 1824, Note_on_c, 0, 44, 64
4, 1869, Note_on_c, 0, 44, 0
4, 1872, Note_on_c, 0, 42, 64
4, 1917, Note_on_c, 0, 42, 0
4, 1920, Note_on_c, 0, 40, 64
4, 2009, Note_on_c, 0, 40, 0
4, 2016, Note_on_c, 0, 45, 64
4, 2105, Note_on_c, 0, 45, 0
4, 2112, Note_on_c, 0, 42, 64
4, 2201, Note_on_c, 0, 42, 0
4, 2208, Note_on_c, 0, 47, 64
4, 2297, Note_on_c, 0, 47, 0
4, 2304, Note_on_c, 0, 40, 64
4, 2393, Note_on_c, 0, 40, 0
4, 2400, Note_on_c, 0, 52, 64
4, 2489, Note_on_c, 0, 52, 0
4, 2496, Note_on_c, 0, 54, 64
4, 2585, Note_on_c, 0, 54, 0
4, 2592, Note_on_c, 0, 56, 64
4, 2681, Note_on_c, 0, 56, 0
4, 2688, Note_on_c, 0, 44, 64
4, 2777, Note_on_c, 0, 44, 0
4, 2784, Note_on_c, 0, 45, 64
4, 2873, Note_on_c, 0, 45, 0
4, 2880, Note_on_c, 0, 47, 64
4, 2969, Note_on_c, 0, 47, 0
4, 2976, Note_on_c, 0, 50, 64
4, 3065, Note_on_c, 0, 50, 0
4, 3072, Note_on_c, 0, 52, 64
4, 3161, Note_on_c, 0, 52, 0
4, 3168, Note_on_c, 0, 57, 64
4, 3213, Note_on_c, 0, 57, 0
4, 3216, Note_on_c, 0, 45, 64
4, 3239, Note_on_c, 0, 45, 0
4, 3240, Note_on_c, 0, 47, 64
4, 3263, Note_on_c, 0, 47, 0
4, 3264, Note_on_c, 0, 49, 64
4, 3309, Note_on_c, 0, 49, 0
4, 3312, Note_on_c, 0, 49, 64
4, 3335, Note_on_c, 0, 49, 0
4, 3336, Note_on_c, 0, 50, 64
4, 3359, Note_on_c, 0, 50, 0
4, 3360, Note_on_c, 0, 52, 64
4, 3405, Note_on_c, 0, 52, 0
4, 3408, Note_on_c, 0, 54, 64
4, 3431, Note_on_c, 0, 54, 0
4, 3432, Note_on_c, 0, 56, 64
4, 3455, Note_on_c, 0, 56, 0
4, 3456, Note_on_c, 0, 57, 64
4, 3501, Note_on_c, 0, 57, 0
4, 3504, Note_on_c, 0, 56, 64
4, 3527, Note_on_c, 0, 56, 0
4, 3528, Note_on_c, 0, 54, 64
4, 3551, Note_on_c, 0, 54, 0
4, 3552, Note_on_c, 0, 52, 64
4, 3597, Note_on_c, 0, 52, 0
4, 3600, Note_on_c, 0, 50, 64
4, 3645, Note_on_c, 0, 50, 0
4, 3648, Note_on_c, 0, 49, 64
4, 3693, Note_on_c, 0, 49, 0
4, 3696, Note_on_c, 0, 47, 64
4, 3741, Note_on_c, 0, 47, 0
4, 3744, Note_on_c, 0, 45, 64
4, 3789, Note_on_c, 0, 45, 0
4, 3792, Note_on_c, 0, 50, 64
4, 3815, Note_on_c, 0, 50, 0
4, 3816, Note_on_c, 0, 49, 64
4, 3839, Note_on_c, 0, 49, 0
4, 3840, Note_on_c, 0, 50, 64
4, 3885, Note_on_c, 0, 50, 0
4, 3888, Note_on_c, 0, 54, 64
4, 3933, Note_on_c, 0, 54, 0
4, 3936, Note_on_c, 0, 47, 64
4, 3981, Note_on_c, 0, 47, 0
4, 3984, Note_on_c, 0, 52, 64
4, 4029, Note_on_c, 0, 52, 0
4, 4032, Note_on_c, 0, 49, 64
4, 4077, Note_on_c, 0, 49, 0
4, 4080, Note_on_c, 0, 54, 64
4, 4103, Note_on_c, 0, 54, 0
4, 4104, Note_on_c, 0, 52, 64
4, 4127, Note_on_c, 0, 52, 0
4, 4128, Note_on_c, 0, 54, 64
4, 4173, Note_on_c, 0, 54, 0
4, 4176, Note_on_c, 0, 57, 64
4, 4221, Note_on_c, 0, 57, 0
4, 4224, Note_on_c, 0, 51, 64
4, 4269, Note_on_c, 0, 51, 0
4, 4272, Note_on_c, 0, 56, 64
4, 4317, Note_on_c, 0, 56, 0
4, 4320, Note_on_c, 0, 52, 64
4, 4365, Note_on_c, 0, 52, 0
4, 4368, Note_on_c, 0, 57, 64
4, 4391, Note_on_c, 0, 57, 0
4, 4392, Note_on_c, 0, 56, 64
4, 4415, Note_on_c, 0, 56, 0
4, 4416, Note_on_c, 0, 57, 64
4, 4461, Note_on_c, 0, 57, 0
4, 4464, Note_on_c, 0, 61, 64
4, 4509, Note_on_c, 0, 61, 0
4, 4512, Note_on_c, 0, 54, 64
4, 4557, Note_on_c, 0, 54, 0
4, 4560, Note_on_c, 0, 59, 64
4, 4605, Note_on_c, 0, 59, 0
4, 4608, Note_on_c, 0, 56, 64
4, 4653, Note_on_c, 0, 56, 0
4, 4656, Note_on_c, 0, 52, 64
4, 4701, Note_on_c, 0, 52, 0
4, 4704, Note_on_c, 0, 56, 64
4, 4749, Note_on_c, 0, 56, 0
4, 4752, Note_on_c, 0, 59, 64
4, 4797, Note_on_c, 0, 59, 0
4, 4800, Note_on_c, 0, 64, 64
4, 4845, Note_on_c, 0, 64, 0
4, 4848, Note_on_c, 0, 62, 64
4, 4893, Note_on_c, 0, 62, 0
4, 4896, Note_on_c, 0, 61, 64
4, 4985, Note_on_c, 0, 61, 0
4, 5208, Note_on_c, 0, 50, 64
4, 5231, Note_on_c, 0, 50, 0
4, 5232, Note_on_c, 0, 52, 64
4, 5255, Note_on_c, 0, 52, 0
4, 5256, Note_on_c, 0, 54, 64
4, 5279, Note_on_c, 0, 54, 0
4, 5280, Note_on_c, 0, 55, 64
4, 5303, Note_on_c, 0, 55, 0
4, 5304, Note_on_c, 0, 57, 64
4, 5327, Note_on_c, 0, 57, 0
4, 5328, Note_on_c, 0, 59, 64
4, 5351, Note_on_c, 0, 59, 0
4, 5352, Note_on_c, 0, 61, 64
4, 5375, Note_on_c, 0, 61, 0
4, 5376, Note_on_c, 0, 62, 64
4, 5399, Note_on_c, 0, 62, 0
4, 5400, Note_on_c, 0, 59, 64
4, 5423, Note_on_c, 0, 59, 0
4, 5424, Note_on_c, 0, 57, 64
4, 5447, Note_on_c, 0, 57, 0
4, 5448, Note_on_c, 0, 56, 64
4, 5471, Note_on_c, 0, 56, 0
4, 5472, Note_on_c, 0, 61, 64
4, 5495, Note_on_c, 0, 61, 0
4, 5592, Note_on_c, 0, 62, 64
4, 5615, Note_on_c, 0, 62, 0
4, 5616, Note_on_c, 0, 61, 64
4, 5639, Note_on_c, 0, 61, 0
4, 5640, Note_on_c, 0, 59, 64
4, 5663, Note_on_c, 0, 59, 0
4, 5664, Note_on_c, 0, 57, 64
4, 5687, Note_on_c, 0, 57, 0
4, 5688, Note_on_c, 0, 54, 64
4, 5711, Note_on_c, 0, 54, 0
4, 5712, Note_on_c, 0, 56, 64
4, 5735, Note_on_c, 0, 56, 0
4, 5736, Note_on_c, 0, 57, 64
4, 5759, Note_on_c, 0, 57, 0
4, 5760, Note_on_c, 0, 59, 64
4, 5783, Note_on_c, 0, 59, 0
4, 5784, Note_on_c, 0, 47, 64
4, 5807, Note_on_c, 0, 47, 0
4, 5808, Note_on_c, 0, 49, 64
4, 5831, Note_on_c, 0, 49, 0
4, 5832, Note_on_c, 0, 50, 64
4, 5855, Note_on_c, 0, 50, 0
4, 5856, Note_on_c, 0, 52, 64
4, 5879, Note_on_c, 0, 52, 0
4, 5880, Note_on_c, 0, 54, 64
4, 5903, Note_on_c, 0, 54, 0
4, 5904, Note_on_c, 0, 56, 64
4, 5927, Note_on_c, 0, 56, 0
4, 5928, Note_on_c, 0, 57, 64
4, 5951, Note_on_c, 0, 57, 0
4, 5952, Note_on_c, 0, 59, 64
4, 5975, Note_on_c, 0, 59, 0
4, 5976, Note_on_c, 0, 56, 64
4, 5999, Note_on_c, 0, 56, 0
4, 6000, Note_on_c, 0, 54, 64
4, 6023, Note_on_c, 0, 54, 0
4, 6024, Note_on_c, 0, 52, 64
4, 6047, Note_on_c, 0, 52, 0
4, 6048, Note_on_c, 0, 57, 64
4, 6137, Note_on_c, 0, 57, 0
4, 6144, Note_on_c, 0, 45, 64
4, 6189, Note_on_c, 0, 45, 0
4, 6192, Note_on_c, 0, 47, 64
4, 6237, Note_on_c, 0, 47, 0
4, 6240, Note_on_c, 0, 45, 64
4, 6285, Note_on_c, 0, 45, 0
4, 6288, Note_on_c, 0, 44, 64
4, 6333, Note_on_c, 0, 44, 0
4, 6336, Note_on_c, 0, 42, 64
4, 6381, Note_on_c, 0, 42, 0
4, 6384, Note_on_c, 0, 57, 64
4, 6429, Note_on_c, 0, 57, 0
4, 6432, Note_on_c, 0, 56, 64
4, 6477, Note_on_c, 0, 56, 0
4, 6480, Note_on_c, 0, 54, 64
4, 6525, Note_on_c, 0, 54, 0
4, 6528, Note_on_c, 0, 52, 64
4, 6573, Note_on_c, 0, 52, 0
4, 6576, Note_on_c, 0, 50, 64
4, 6621, Note_on_c, 0, 50, 0
4, 6624, Note_on_c, 0, 49, 64
4, 6713, Note_on_c, 0, 49, 0
4, 6744, Note_on_c, 0, 47, 64
4, 6767, Note_on_c, 0, 47, 0
4, 6768, Note_on_c, 0, 49, 64
4, 6791, Note_on_c, 0, 49, 0
4, 6792, Note_on_c, 0, 50, 64
4, 6815, Note_on_c, 0, 50, 0
4, 6816, Note_on_c, 0, 52, 64
4, 6839, Note_on_c, 0, 52, 0
4, 6840, Note_on_c, 0, 50, 64
4, 6863, Note_on_c, 0, 50, 0
4, 6864, Note_on_c, 0, 49, 64
4, 6887, Note_on_c, 0, 49, 0
4, 6888, Note_on_c, 0, 47, 64
4, 6911, Note_on_c, 0, 47, 0
4, 6912, Note_on_c, 0, 45, 64
4, 7001, Note_on_c, 0, 45, 0
4, 7032, Note_on_c, 0, 61, 64
4, 7055, Note_on_c, 0, 61, 0
4, 7056, Note_on_c, 0, 59, 64
4, 7079, Note_on_c, 0, 59, 0
4, 7080, Note_on_c, 0, 57, 64
4, 7103, Note_on_c, 0, 57, 0
4, 7104, Note_on_c, 0, 56, 64
4, 7127, Note_on_c, 0, 56, 0
4, 7128, Note_on_c, 0, 54, 64
4, 7151, Note_on_c, 0, 54, 0
4, 7152, Note_on_c, 0, 52, 64
4, 7175, Note_on_c, 0, 52, 0
4, 7176, Note_on_c, 0, 51, 64
4, 7199, Note_on_c, 0, 51, 0
4, 7200, Note_on_c, 0, 56, 64
4, 7289, Note_on_c, 0, 56, 0
4, 7320, Note_on_c, 0, 54, 64
4, 7343, Note_on_c, 0, 54, 0
4, 7344, Note_on_c, 0, 56, 64
4, 7367, Note_on_c, 0, 56, 0
4, 7368, Note_on_c, 0, 57, 64
4, 7391, Note_on_c, 0, 57, 0
4, 7392, Note_on_c, 0, 59, 64
4, 7415, Note_on_c, 0, 59, 0
4, 7416, Note_on_c, 0, 57, 64
4, 7439, Note_on_c, 0, 57, 0
4, 7440, Note_on_c, 0, 56, 64
4, 7463, Note_on_c, 0, 56, 0
4, 7464, Note_on_c, 0, 54, 64
4, 7487, Note_on_c, 0, 54, 0
4, 7488, Note_on_c, 0, 52, 64
4, 7533, Note_on_c, 0, 52, 0
4, 7536, Note_on_c, 0, 40, 64
4, 7581, Note_on_c, 0, 40, 0
4, 7584, Note_on_c, 0, 44, 64
4, 7629, Note_on_c, 0, 44, 0
4, 7632, Note_on_c, 0, 47, 64
4, 7677, Note_on_c, 0, 47, 0
4, 7680, Note_on_c, 0, 52, 64
4, 7725, Note_on_c, 0, 52, 0
4, 7728, Note_on_c, 0, 56, 64
4, 7773, Note_on_c, 0, 56, 0
4, 7776, Note_on_c, 0, 57, 64
4, 7821, Note_on_c, 0, 57, 0
4, 7824, Note_on_c, 0, 50, 64
4, 7869, Note_on_c, 0, 50, 0
4, 7872, Note_on_c, 0, 52, 64
4, 7961, Note_on_c, 0, 52, 0
4, 7968, Note_on_c, 0, 40, 64
4, 8057, Note_on_c, 0, 40, 0
4, 8064, Note_on_c, 0, 45, 64
4, 8109, Note_on_c, 0, 45, 0
4, 8112, Note_on_c, 0, 45, 64
4, 8135, Note_on_c, 0, 45, 0
4, 8136, Note_on_c, 0, 47, 64
4, 8159, Note_on_c, 0, 47, 0
4, 8160, Note_on_c, 0, 49, 64
4, 8205, Note_on_c, 0, 49, 0
4, 8208, Note_on_c, 0, 49, 64
4, 8231, Note_on_c, 0, 49, 0
4, 8232, Note_on_c, 0, 50, 64
4, 8255, Note_on_c, 0, 50, 0
4, 8256, Note_on_c, 0, 52, 64
4, 8301, Note_on_c, 0, 52, 0
4, 8304, Note_on_c, 0, 54, 64
4, 8327, Note_on_c, 0, 54, 0
4, 8328, Note_on_c, 0, 56, 64
4, 8351, Note_on_c, 0, 56, 0
4, 8352, Note_on_c, 0, 57, 64
4, 8441, Note_on_c, 0, 57, 0
4, 8640, Note_on_c, 0, 45, 64
4, 8729, Note_on_c, 0, 45, 0
4, 8928, Note_on_c, 0, 45, 64
4, 9017, Note_on_c, 0, 45, 0
4, 9120, Note_on_c, 0, 57, 64
4, 9209, Note_on_c, 0, 57, 0
4, 9216, Note_on_c, 0, 56, 64
4, 9305, Note_on_c, 0, 56, 0
4, 9408, Note_on_c, 0, 54, 64
4, 9497, Note_on_c, 0, 54, 0
4, 9504, Note_on_c, 0, 52, 64
4, 9527, Note_on_c, 0, 52, 0
4, 9528, Note_on_c, 0, 56, 64
4, 9551, Note_on_c, 0, 56, 0
4, 9552, Note_on_c, 0, 59, 64
4, 9575, Note_on_c, 0, 59, 0
4, 9576, Note_on_c, 0, 61, 64
4, 9599, Note_on_c, 0, 61, 0
4, 9600, Note_on_c, 0, 59, 64
4, 9623, Note_on_c, 0, 59, 0
4, 9624, Note_on_c, 0, 61, 64
4, 9647, Note_on_c, 0, 61, 0
4, 9648, Note_on_c, 0, 59, 64
4, 9671, Note_on_c, 0, 59, 0
4, 9672, Note_on_c, 0, 61, 64
4, 9695, Note_on_c, 0, 61, 0
4, 9696, Note_on_c, 0, 51, 64
4, 9719, Note_on_c, 0, 51, 0
4, 9720, Note_on_c, 0, 54, 64
4, 9743, Note_on_c, 0, 54, 0
4, 9744, Note_on_c, 0, 57, 64
4, 9767, Note_on_c, 0, 57, 0
4, 9768, Note_on_c, 0, 59, 64
4, 9791, Note_on_c, 0, 59, 0
4, 9792, Note_on_c, 0, 52, 64
4, 9815, Note_on_c, 0, 52, 0
4, 9816, Note_on_c, 0, 56, 64
4, 9839, Note_on_c, 0, 56, 0
4, 9840, Note_on_c, 0, 59, 64
4, 9863, Note_on_c, 0, 59, 0
4, 9864, Note_on_c, 0, 61, 64
4, 9887, Note_on_c, 0, 61, 0
4, 9888, Note_on_c, 0, 59, 64
4, 9911, Note_on_c, 0, 59, 0
4, 9912, Note_on_c, 0, 61, 64
4, 9935, Note_on_c, 0, 61, 0
4, 9936, Note_on_c, 0, 59, 64
4, 9959, Note_on_c, 0, 59, 0
4, 9960, Note_on_c, 0, 61, 64
4, 9983, Note_on_c, 0, 61, 0
4, 9984, Note_on_c, 0, 51, 64
4, 10007, Note_on_c, 0, 51, 0
4, 10008, Note_on_c, 0, 54, 64
4, 10031, Note_on_c, 0, 54, 0
4, 10032, Note_on_c, 0, 57, 64
4, 10055, Note_on_c, 0, 57, 0
4, 10056, Note_on_c, 0, 59, 64
4, 10079, Note_on_c, 0, 59, 0
4, 10080, Note_on_c, 0, 52, 64
4, 10103, Note_on_c, 0, 52, 0
4, 10104, Note_on_c, 0, 56, 64
4, 10127, Note_on_c, 0, 56, 0
4, 10128, Note_on_c, 0, 59, 64
4, 10151, Note_on_c, 0, 59, 0
4, 10152, Note_on_c, 0, 61, 64
4, 10175, Note_on_c, 0, 61, 0
4, 10176, Note_on_c, 0, 59, 64
4, 10199, Note_on_c, 0, 59, 0
4, 10200, Note_on_c, 0, 61, 64
4, 10223, Note_on_c, 0, 61, 0
4, 10224, Note_on_c, 0, 59, 64
4, 10247, Note_on_c, 0, 59, 0
4, 10248, Note_on_c, 0, 61, 64
4, 10271, Note_on_c, 0, 61, 0
4, 10272, Note_on_c, 0, 54, 64
4, 10295, Note_on_c, 0, 54, 0
4, 10296, Note_on_c, 0, 57, 64
4, 10319, Note_on_c, 0, 57, 0
4, 10320, Note_on_c, 0, 61, 64
4, 10343, Note_on_c, 0, 61, 0
4, 10344, Note_on_c, 0, 63, 64
4, 10367, Note_on_c, 0, 63, 0
4, 10368, Note_on_c, 0, 56, 64
4, 10391, Note_on_c, 0, 56, 0
4, 10392, Note_on_c, 0, 59, 64
4, 10415, Note_on_c, 0, 59, 0
4, 10416, Note_on_c, 0, 63, 64
4, 10439, Note_on_c, 0, 63, 0
4, 10440, Note_on_c, 0, 64, 64
4, 10463, Note_on_c, 0, 64, 0
4, 10464, Note_on_c, 0, 63, 64
4, 10487, Note_on_c, 0, 63, 0
4, 10488, Note_on_c, 0, 64, 64
4, 10511, Note_on_c, 0, 64, 0
4, 10512, Note_on_c, 0, 63, 64
4, 10535, Note_on_c, 0, 63, 0
4, 10536, Note_on_c, 0, 64, 64
4, 10559, Note_on_c, 0, 64, 0
4, 10560, Note_on_c, 0, 58, 64
4, 10583, Note_on_c, 0, 58, 0
4, 10584, Note_on_c, 0, 61, 64
4, 10607, Note_on_c, 0, 61, 0
4, 10608, Note_on_c, 0, 64, 64
4, 10631, Note_on_c, 0, 64, 0
4, 10632, Note_on_c, 0, 66, 64
4, 10655, Note_on_c, 0, 66, 0
4, 10656, Note_on_c, 0, 62, 64
4, 10701, Note_on_c, 0, 62, 0
4, 10776, Note_on_c, 0, 62, 64
4, 10799, Note_on_c, 0, 62, 0
4, 10800, Note_on_c, 0, 61, 64
4, 10823, Note_on_c, 0, 61, 0
4, 10824, Note_on_c, 0, 59, 64
4, 10847, Note_on_c, 0, 59, 0
4, 10848, Note_on_c, 0, 58, 64
4, 10871, Note_on_c, 0, 58, 0
4, 10872, Note_on_c, 0, 56, 64
4, 10895, Note_on_c, 0, 56, 0
4, 10896, Note_on_c, 0, 54, 64
4, 10919, Note_on_c, 0, 54, 0
4, 10920, Note_on_c, 0, 52, 64
4, 10943, Note_on_c, 0, 52, 0
4, 10944, Note_on_c, 0, 50, 64
4, 10989, Note_on_c, 0, 50, 0
4, 10992, Note_on_c, 0, 49, 64
4, 11037, Note_on_c, 0, 49, 0
4, 11040, Note_on_c, 0, 50, 64
4, 11085, Note_on_c, 0, 50, 0
4, 11088, Note_on_c, 0, 52, 64
4, 11133, Note_on_c, 0, 52, 0
4, 11136, Note_on_c, 0, 54, 64
4, 11181, Note_on_c, 0, 54, 0
4, 11184, Note_on_c, 0, 42, 64
4, 11229, Note_on_c, 0, 42, 0
4, 11232, Note_on_c, 0, 47, 64
4, 11321, Note_on_c, 0, 47, 0
4, 11352, Note_on_c, 0, 50, 64
4, 11375, Note_on_c, 0, 50, 0
4, 11376, Note_on_c, 0, 49, 64
4, 11399, Note_on_c, 0, 49, 0
4, 11400, Note_on_c, 0, 47, 64
4, 11423, Note_on_c, 0, 47, 0
4, 11424, Note_on_c, 0, 46, 64
4, 11447, Note_on_c, 0, 46, 0
4, 11448, Note_on_c, 0, 44, 64
4, 11471, Note_on_c, 0, 44, 0
4, 11472, Note_on_c, 0, 42, 64
4, 11495, Note_on_c, 0, 42, 0
4, 11496, Note_on_c, 0, 40, 64
4, 11519, Note_on_c, 0, 40, 0
4, 11520, Note_on_c, 0, 38, 64
4, 11565, Note_on_c, 0, 38, 0
4, 11568, Note_on_c, 0, 37, 64
4, 11613, Note_on_c, 0, 37, 0
4, 11616, Note_on_c, 0, 38, 64
4, 11661, Note_on_c, 0, 38, 0
4, 11664, Note_on_c, 0, 40, 64
4, 11709, Note_on_c, 0, 40, 0
4, 11712, Note_on_c, 0, 42, 64
4, 11757, Note_on_c, 0, 42, 0
4, 11760, Note_on_c, 0, 54, 64
4, 11805, Note_on_c, 0, 54, 0
4, 11808, Note_on_c, 0, 47, 64
4, 11853, Note_on_c, 0, 47, 0
4, 11856, Note_on_c, 0, 59, 64
4, 11879, Note_on_c, 0, 59, 0
4, 11880, Note_on_c, 0, 57, 64
4, 11903, Note_on_c, 0, 57, 0
4, 11904, Note_on_c, 0, 59, 64
4, 11949, Note_on_c, 0, 59, 0
4, 11952, Note_on_c, 0, 62, 64
4, 11997, Note_on_c, 0, 62, 0
4, 12000, Note_on_c, 0, 52, 64
4, 12045, Note_on_c, 0, 52, 0
4, 12048, Note_on_c, 0, 56, 64
4, 12093, Note_on_c, 0, 56, 0
4, 12096, Note_on_c, 0, 45, 64
4, 12141, Note_on_c, 0, 45, 0
4, 12144, Note_on_c, 0, 57, 64
4, 12167, Note_on_c, 0, 57, 0
4, 12168, Note_on_c, 0, 56, 64
4, 12191, Note_on_c, 0, 56, 0
4, 12192, Note_on_c, 0, 57, 64
4, 12237, Note_on_c, 0, 57, 0
4, 12240, Note_on_c, 0, 61, 64
4, 12285, Note_on_c, 0, 61, 0
4, 12288, Note_on_c, 0, 50, 64
4, 12333, Note_on_c, 0, 50, 0
4, 12336, Note_on_c, 0, 54, 64
4, 12381, Note_on_c, 0, 54, 0
4, 12384, Note_on_c, 0, 44, 64
4, 12429, Note_on_c, 0, 44, 0
4, 12432, Note_on_c, 0, 56, 64
4, 12455, Note_on_c, 0, 56, 0
4, 12456, Note_on_c, 0, 54, 64
4, 12479, Note_on_c, 0, 54, 0
4, 12480, Note_on_c, 0, 56, 64
4, 12525, Note_on_c, 0, 56, 0
4, 12528, Note_on_c, 0, 59, 64
4, 12573, Note_on_c, 0, 59, 0
4, 12576, Note_on_c, 0, 49, 64
4, 12621, Note_on_c, 0, 49, 0
4, 12624, Note_on_c, 0, 53, 64
4, 12669, Note_on_c, 0, 53, 0
4, 12672, Note_on_c, 0, 54, 64
4, 12695, Note_on_c, 0, 54, 0
4, 12696, Note_on_c, 0, 57, 64
4, 12719, Note_on_c, 0, 57, 0
4, 12720, Note_on_c, 0, 61, 64
4, 12743, Note_on_c, 0, 61, 0
4, 12744, Note_on_c, 0, 62, 64
4, 12767, Note_on_c, 0, 62, 0
4, 12768, Note_on_c, 0, 61, 64
4, 12791, Note_on_c, 0, 61, 0
4, 12792, Note_on_c, 0, 62, 64
4, 12815, Note_on_c, 0, 62, 0
4, 12816, Note_on_c, 0, 61, 64
4, 12839, Note_on_c, 0, 61, 0
4, 12840, Note_on_c, 0, 62, 64
4, 12863, Note_on_c, 0, 62, 0
4, 12864, Note_on_c, 0, 53, 64
4, 12887, Note_on_c, 0, 53, 0
4, 12888, Note_on_c, 0, 56, 64
4, 12911, Note_on_c, 0, 56, 0
4, 12912, Note_on_c, 0, 59, 64
4, 12935, Note_on_c, 0, 59, 0
4, 12936, Note_on_c, 0, 61, 64
4, 12959, Note_on_c, 0, 61, 0
4, 12960, Note_on_c, 0, 54, 64
4, 12983, Note_on_c, 0, 54, 0
4, 12984, Note_on_c, 0, 57, 64
4, 13007, Note_on_c, 0, 57, 0
4, 13008, Note_on_c, 0, 61, 64
4, 13031, Note_on_c, 0, 61, 0
4, 13032, Note_on_c, 0, 62, 64
4, 13055, Note_on_c, 0, 62, 0
4, 13056, Note_on_c, 0, 61, 64
4, 13079, Note_on_c, 0, 61, 0
4, 13080, Note_on_c, 0, 62, 64
4, 13103, Note_on_c, 0, 62, 0
4, 13104, Note_on_c, 0, 61, 64
4, 13127, Note_on_c, 0, 61, 0
4, 13128, Note_on_c, 0, 62, 64
4, 13151, Note_on_c, 0, 62, 0
4, 13152, Note_on_c, 0, 53, 64
4, 13175, Note_on_c, 0, 53, 0
4, 13176, Note_on_c, 0, 56, 64
4, 13199, Note_on_c, 0, 56, 0
4, 13200, Note_on_c, 0, 59, 64
4, 13223, Note_on_c, 0, 59, 0
4, 13224, Note_on_c, 0, 61, 64
4, 13247, Note_on_c, 0, 61, 0
4, 13248, Note_on_c, 0, 57, 64
4, 13293, Note_on_c, 0, 57, 0
4, 13296, Note_on_c, 0, 54, 64
4, 13341, Note_on_c, 0, 54, 0
4, 13344, Note_on_c, 0, 50, 64
4, 13389, Note_on_c, 0, 50, 0
4, 13392, Note_on_c, 0, 47, 64
4, 13437, Note_on_c, 0, 47, 0
4, 13440, Note_on_c, 0, 54, 64
4, 13485, Note_on_c, 0, 54, 0
4, 13488, Note_on_c, 0, 58, 64
4, 13533, Note_on_c, 0, 58, 0
4, 13536, Note_on_c, 0, 59, 64
4, 13581, Note_on_c, 0, 59, 0
4, 13584, Note_on_c, 0, 54, 64
4, 13629, Note_on_c, 0, 54, 0
4, 13632, Note_on_c, 0, 50, 64
4, 13677, Note_on_c, 0, 50, 0
4, 13680, Note_on_c, 0, 47, 64
4, 13725, Note_on_c, 0, 47, 0
4, 13728, Note_on_c, 0, 54, 64
4, 13773, Note_on_c, 0, 54, 0
4, 13776, Note_on_c, 0, 58, 64
4, 13821, Note_on_c, 0, 58, 0
4, 13824, Note_on_c, 0, 59, 64
4, 14377, Note_on_c, 0, 59, 0
4, 14400, Note_on_c, 0, 52, 64
4, 14533, Note_on_c, 0, 52, 0
4, 14544, Note_on_c, 0, 50, 64
4, 14567, Note_on_c, 0, 50, 0
4, 14568, Note_on_c, 0, 49, 64
4, 14591, Note_on_c, 0, 49, 0
4, 14592, Note_on_c, 0, 50, 64
4, 14637, Note_on_c, 0, 50, 0
4, 14640, Note_on_c, 0, 49, 64
4, 14663, Note_on_c, 0, 49, 0
4, 14664, Note_on_c, 0, 47, 64
4, 14687, Note_on_c, 0, 47, 0
4, 14688, Note_on_c, 0, 49, 64
4, 14777, Note_on_c, 0, 49, 0
4, 14784, Note_on_c, 0, 61, 64
4, 14873, Note_on_c, 0, 61, 0
4, 14880, Note_on_c, 0, 59, 64
4, 14969, Note_on_c, 0, 59, 0
4, 14976, Note_on_c, 0, 57, 64
4, 15021, Note_on_c, 0, 57, 0
4, 15024, Note_on_c, 0, 45, 64
4, 15047, Note_on_c, 0, 45, 0
4, 15048, Note_on_c, 0, 47, 64
4, 15071, Note_on_c, 0, 47, 0
4, 15072, Note_on_c, 0, 49, 64
4, 15117, Note_on_c, 0, 49, 0
4, 15120, Note_on_c, 0, 49, 64
4, 15143, Note_on_c, 0, 49, 0
4, 15144, Note_on_c, 0, 50, 64
4, 15167, Note_on_c, 0, 50, 0
4, 15168, Note_on_c, 0, 52, 64
4, 15213, Note_on_c, 0, 52, 0
4, 15216, Note_on_c, 0, 54, 64
4, 15239, Note_on_c, 0, 54, 0
4, 15240, Note_on_c, 0, 56, 64
4, 15263, Note_on_c, 0, 56, 0
4, 15264, Note_on_c, 0, 57, 64
4, 15309, Note_on_c, 0, 57, 0
4, 15312, Note_on_c, 0, 56, 64
4, 15335, Note_on_c, 0, 56, 0
4, 15336, Note_on_c, 0, 54, 64
4, 15359, Note_on_c, 0, 54, 0
4, 15360, Note_on_c, 0, 52, 64
4, 15405, Note_on_c, 0, 52, 0
4, 15408, Note_on_c, 0, 50, 64
4, 15453, Note_on_c, 0, 50, 0
4, 15456, Note_on_c, 0, 49, 64
4, 15501, Note_on_c, 0, 49, 0
4, 15504, Note_on_c, 0, 47, 64
4, 15549, Note_on_c, 0, 47, 0
4, 15552, Note_on_c, 0, 45, 64
4, 15597, Note_on_c, 0, 45, 0
4, 15600, Note_on_c, 0, 50, 64
4, 15623, Note_on_c, 0, 50, 0
4, 15624, Note_on_c, 0, 49, 64
4, 15647, Note_on_c, 0, 49, 0
4, 15648, Note_on_c, 0, 50, 64
4, 15693, Note_on_c, 0, 50, 0
4, 15696, Note_on_c, 0, 54, 64
4, 15741, Note_on_c, 0, 54, 0
4, 15744, Note_on_c, 0, 47, 64
4, 15789, Note_on_c, 0, 47, 0
4, 15792, Note_on_c, 0, 52, 64
4, 15837, Note_on_c, 0, 52, 0
4, 15840, Note_on_c, 0, 49, 64
4, 15885, Note_on_c, 0, 49, 0
4, 15888, Note_on_c, 0, 54, 64
4, 15911, Note_on_c, 0, 54, 0
4, 15912, Note_on_c, 0, 52, 64
4, 15935, Note_on_c, 0, 52, 0
4, 15936, Note_on_c, 0, 54, 64
4, 15981, Note_on_c, 0, 54, 0
4, 15984, Note_on_c, 0, 57, 64
4, 16029, Note_on_c, 0, 57, 0
4, 16032, Note_on_c, 0, 50, 64
4, 16077, Note_on_c, 0, 50, 0
4, 16080, Note_on_c, 0, 56, 64
4, 16125, Note_on_c, 0, 56, 0
4, 16128, Note_on_c, 0, 52, 64
4, 16173, Note_on_c, 0, 52, 0
4, 16176, Note_on_c, 0, 57, 64
4, 16199, Note_on_c, 0, 57, 0
4, 16200, Note_on_c, 0, 56, 64
4, 16223, Note_on_c, 0, 56, 0
4, 16224, Note_on_c, 0, 57, 64
4, 16269, Note_on_c, 0, 57, 0
4, 16272, Note_on_c, 0, 61, 64
4, 16317, Note_on_c, 0, 61, 0
4, 16320, Note_on_c, 0, 54, 64
4, 16365, Note_on_c, 0, 54, 0
4, 16368, Note_on_c, 0, 59, 64
4, 16413, Note_on_c, 0, 59, 0
4, 16416, Note_on_c, 0, 56, 64
4, 16439, Note_on_c, 0, 56, 0
4, 16440, Note_on_c, 0, 59, 64
4, 16463, Note_on_c, 0, 59, 0
4, 16464, Note_on_c, 0, 64, 64
4, 16487, Note_on_c, 0, 64, 0
4, 16488, Note_on_c, 0, 66, 64
4, 16511, Note_on_c, 0, 66, 0
4, 16512, Note_on_c, 0, 64, 64
4, 16535, Note_on_c, 0, 64, 0
4, 16536, Note_on_c, 0, 66, 64
4, 16559, Note_on_c, 0, 66, 0
4, 16560, Note_on_c, 0, 64, 64
4, 16583, Note_on_c, 0, 64, 0
4, 16584, Note_on_c, 0, 66, 64
4, 16607, Note_on_c, 0, 66, 0
4, 16608, Note_on_c, 0, 56, 64
4, 16631, Note_on_c, 0, 56, 0
4, 16632, Note_on_c, 0, 59, 64
4, 16655, Note_on_c, 0, 59, 0
4, 16656, Note_on_c, 0, 64, 64
4, 16679, Note_on_c, 0, 64, 0
4, 16680, Note_on_c, 0, 66, 64
4, 16703, Note_on_c, 0, 66, 0
4, 16704, Note_on_c, 0, 57, 64
4, 16727, Note_on_c, 0, 57, 0
4, 16728, Note_on_c, 0, 61, 64
4, 16751, Note_on_c, 0, 61, 0
4, 16752, Note_on_c, 0, 64, 64
4, 16775, Note_on_c, 0, 64, 0
4, 16776, Note_on_c, 0, 66, 64
4, 16799, Note_on_c, 0, 66, 0
4, 16800, Note_on_c, 0, 64, 64
4, 16823, Note_on_c, 0, 64, 0
4, 16824, Note_on_c, 0, 66, 64
4, 16847, Note_on_c, 0, 66, 0
4, 16848, Note_on_c, 0, 64, 64
4, 16871, Note_on_c, 0, 64, 0
4, 16872, Note_on_c, 0, 66, 64
4, 16895, Note_on_c, 0, 66, 0
4, 16896, Note_on_c, 0, 57, 64
4, 16919, Note_on_c, 0, 57, 0
4, 16920, Note_on_c, 0, 61, 64
4, 16943, Note_on_c, 0, 61, 0
4, 16944, Note_on_c, 0, 64, 64
4, 16967, Note_on_c, 0, 64, 0
4, 16968, Note_on_c, 0, 66, 64
4, 16991, Note_on_c, 0, 66, 0
4, 16992, Note_on_c, 0, 56, 64
4, 17015, Note_on_c, 0, 56, 0
4, 17016, Note_on_c, 0, 59, 64
4, 17039, Note_on_c, 0, 59, 0
4, 17040, Note_on_c, 0, 64, 64
4, 17063, Note_on_c, 0, 64, 0
4, 17064, Note_on_c, 0, 66, 64
4, 17087, Note_on_c, 0, 66, 0
4, 17088, Note_on_c, 0, 64, 64
4, 17111, Note_on_c, 0, 64, 0
4, 17112, Note_on_c, 0, 66, 64
4, 17135, Note_on_c, 0, 66, 0
4, 17136, Note_on_c, 0, 64, 64
4, 17159, Note_on_c, 0, 64, 0
4, 17160, Note_on_c, 0, 66, 64
4, 17183, Note_on_c, 0, 66, 0
4, 17184, Note_on_c, 0, 56, 64
4, 17207, Note_on_c, 0, 56, 0
4, 17208, Note_on_c, 0, 59, 64
4, 17231, Note_on_c, 0, 59, 0
4, 17232, Note_on_c, 0, 64, 64
4, 17255, Note_on_c, 0, 64, 0
4, 17256, Note_on_c, 0, 66, 64
4, 17279, Note_on_c, 0, 66, 0
4, 17280, Note_on_c, 0, 57, 64
4, 17303, Note_on_c, 0, 57, 0
4, 17304, Note_on_c, 0, 61, 64
4, 17327, Note_on_c, 0, 61, 0
4, 17328, Note_on_c, 0, 64, 64
4, 17351, Note_on_c, 0, 64, 0
4, 17352, Note_on_c, 0, 66, 64
4, 17375, Note_on_c, 0, 66, 0
4, 17376, Note_on_c, 0, 64, 64
4, 17399, Note_on_c, 0, 64, 0
4, 17400, Note_on_c, 0, 66, 64
4, 17423, Note_on_c, 0, 66, 0
4, 17424, Note_on_c, 0, 64, 64
4, 17447, Note_on_c, 0, 64, 0
4, 17448, Note_on_c, 0, 66, 64
4, 17471, Note_on_c, 0, 66, 0
4, 17472, Note_on_c, 0, 57, 64
4, 17495, Note_on_c, 0, 57, 0
4, 17496, Note_on_c, 0, 61, 64
4, 17519, Note_on_c, 0, 61, 0
4, 17520, Note_on_c, 0, 64, 64
4, 17543, Note_on_c, 0, 64, 0
4, 17544, Note_on_c, 0, 66, 64
4, 17567, Note_on_c, 0, 66, 0
4, 17568, Note_on_c, 0, 53, 64
4, 17591, Note_on_c, 0, 53, 0
4, 17592, Note_on_c, 0, 56, 64
4, 17615, Note_on_c, 0, 56, 0
4, 17616, Note_on_c, 0, 61, 64
4, 17639, Note_on_c, 0, 61, 0
4, 17640, Note_on_c, 0, 62, 64
4, 17663, Note_on_c, 0, 62, 0
4, 17664, Note_on_c, 0, 61, 64
4, 17687, Note_on_c, 0, 61, 0
4, 17688, Note_on_c, 0, 62, 64
4, 17711, Note_on_c, 0, 62, 0
4, 17712, Note_on_c, 0, 61, 64
4, 17735, Note_on_c, 0, 61, 0
4, 17736, Note_on_c, 0, 62, 64
4, 17759, Note_on_c, 0, 62, 0
4, 17760, Note_on_c, 0, 53, 64
4, 17783, Note_on_c, 0, 53, 0
4, 17784, Note_on_c, 0, 56, 64
4, 17807, Note_on_c, 0, 56, 0
4, 17808, Note_on_c, 0, 61, 64
4, 17831, Note_on_c, 0, 61, 0
4, 17832, Note_on_c, 0, 62, 64
4, 17855, Note_on_c, 0, 62, 0
4, 17856, Note_on_c, 0, 54, 64
4, 17879, Note_on_c, 0, 54, 0
4, 17880, Note_on_c, 0, 57, 64
4, 17903, Note_on_c, 0, 57, 0
4, 17904, Note_on_c, 0, 61, 64
4, 17927, Note_on_c, 0, 61, 0
4, 17928, Note_on_c, 0, 62, 64
4, 17951, Note_on_c, 0, 62, 0
4, 17952, Note_on_c, 0, 61, 64
4, 17975, Note_on_c, 0, 61, 0
4, 17976, Note_on_c, 0, 62, 64
4, 17999, Note_on_c, 0, 62, 0
4, 18000, Note_on_c, 0, 61, 64
4, 18023, Note_on_c, 0, 61, 0
4, 18024, Note_on_c, 0, 62, 64
4, 18047, Note_on_c, 0, 62, 0
4, 18048, Note_on_c, 0, 54, 64
4, 18071, Note_on_c, 0, 54, 0
4, 18072, Note_on_c, 0, 57, 64
4, 18095, Note_on_c, 0, 57, 0
4, 18096, Note_on_c, 0, 61, 64
4, 18119, Note_on_c, 0, 61, 0
4, 18120, Note_on_c, 0, 62, 64
4, 18143, Note_on_c, 0, 62, 0
4, 18144, Note_on_c, 0, 53, 64
4, 18167, Note_on_c, 0, 53, 0
4, 18168, Note_on_c, 0, 56, 64
4, 18191, Note_on_c, 0, 56, 0
4, 18192, Note_on_c, 0, 61, 64
4, 18215, Note_on_c, 0, 61, 0
4, 18216, Note_on_c, 0, 62, 64
4, 18239, Note_on_c, 0, 62, 0
4, 18240, Note_on_c, 0, 61, 64
4, 18263, Note_on_c, 0, 61, 0
4, 18264, Note_on_c, 0, 62, 64
4, 18287, Note_on_c, 0, 62, 0
4, 18288, Note_on_c, 0, 61, 64
4, 18311, Note_on_c, 0, 61, 0
4, 18312, Note_on_c, 0, 62, 64
4, 18335, Note_on_c, 0, 62, 0
4, 18336, Note_on_c, 0, 53, 64
4, 18359, Note_on_c, 0, 53, 0
4, 18360, Note_on_c, 0, 56, 64
4, 18383, Note_on_c, 0, 56, 0
4, 18384, Note_on_c, 0, 61, 64
4, 18407, Note_on_c, 0, 61, 0
4, 18408, Note_on_c, 0, 62, 64
4, 18431, Note_on_c, 0, 62, 0
4, 18432, Note_on_c, 0, 54, 64
4, 18455, Note_on_c, 0, 54, 0
4, 18456, Note_on_c, 0, 57, 64
4, 18479, Note_on_c, 0, 57, 0
4, 18480, Note_on_c, 0, 61, 64
4, 18503, Note_on_c, 0, 61, 0
4, 18504, Note_on_c, 0, 62, 64
4, 18527, Note_on_c, 0, 62, 0
4, 18528, Note_on_c, 0, 61, 64
4, 18551, Note_on_c, 0, 61, 0
4, 18552, Note_on_c, 0, 62, 64
4, 18575, Note_on_c, 0, 62, 0
4, 18576, Note_on_c, 0, 61, 64
4, 18599, Note_on_c, 0, 61, 0
4, 18600, Note_on_c, 0, 62, 64
4, 18623, Note_on_c, 0, 62, 0
4, 18624, Note_on_c, 0, 54, 64
4, 18647, Note_on_c, 0, 54, 0
4, 18648, Note_on_c, 0, 57, 64
4, 18671, Note_on_c, 0, 57, 0
4, 18672, Note_on_c, 0, 61, 64
4, 18695, Note_on_c, 0, 61, 0
4, 18696, Note_on_c, 0, 62, 64
4, 18719, Note_on_c, 0, 62, 0
4, 18720, Note_on_c, 0, 49, 64
4, 18743, Note_on_c, 0, 49, 0
4, 18744, Note_on_c, 0, 52, 64
4, 18767, Note_on_c, 0, 52, 0
4, 18768, Note_on_c, 0, 57, 64
4, 18791, Note_on_c, 0, 57, 0
4, 18792, Note_on_c, 0, 59, 64
4, 18815, Note_on_c, 0, 59, 0
4, 18816, Note_on_c, 0, 57, 64
4, 18839, Note_on_c, 0, 57, 0
4, 18840, Note_on_c, 0, 59, 64
4, 18863, Note_on_c, 0, 59, 0
4, 18864, Note_on_c, 0, 57, 64
4, 18887, Note_on_c, 0, 57, 0
4, 18888, Note_on_c, 0, 59, 64
4, 18911, Note_on_c, 0, 59, 0
4, 18912, Note_on_c, 0, 49, 64
4, 18935, Note_on_c, 0, 49, 0
4, 18936, Note_on_c, 0, 52, 64
4, 18959, Note_on_c, 0, 52, 0
4, 18960, Note_on_c, 0, 57, 64
4, 18983, Note_on_c, 0, 57, 0
4, 18984, Note_on_c, 0, 59, 64
4, 19007, Note_on_c, 0, 59, 0
4, 19008, Note_on_c, 0, 50, 64
4, 19031, Note_on_c, 0, 50, 0
4, 19032, Note_on_c, 0, 54, 64
4, 19055, Note_on_c, 0, 54, 0
4, 19056, Note_on_c, 0, 57, 64
4, 19079, Note_on_c, 0, 57, 0
4, 19080, Note_on_c, 0, 59, 64
4, 19103, Note_on_c, 0, 59, 0
4, 19104, Note_on_c, 0, 57, 64
4, 19127, Note_on_c, 0, 57, 0
4, 19128, Note_on_c, 0, 59, 64
4, 19151, Note_on_c, 0, 59, 0
4, 19152, Note_on_c, 0, 57, 64
4, 19175, Note_on_c, 0, 57, 0
4, 19176, Note_on_c, 0, 59, 64
4, 19199, Note_on_c, 0, 59, 0
4, 19200, Note_on_c, 0, 50, 64
4, 19223, Note_on_c, 0, 50, 0
4, 19224, Note_on_c, 0, 54, 64
4, 19247, Note_on_c, 0, 54, 0
4, 19248, Note_on_c, 0, 57, 64
4, 19271, Note_on_c, 0, 57, 0
4, 19272, Note_on_c, 0, 59, 64
4, 19295, Note_on_c, 0, 59, 0
4, 19296, Note_on_c, 0, 49, 64
4, 19319, Note_on_c, 0, 49, 0
4, 19320, Note_on_c, 0, 52, 64
4, 19343, Note_on_c, 0, 52, 0
4, 19344, Note_on_c, 0, 57, 64
4, 19367, Note_on_c, 0, 57, 0
4, 19368, Note_on_c, 0, 59, 64
4, 19391, Note_on_c, 0, 59, 0
4, 19392, Note_on_c, 0, 57, 64
4, 19415, Note_on_c, 0, 57, 0
4, 19416, Note_on_c, 0, 59, 64
4, 19439, Note_on_c, 0, 59, 0
4, 19440, Note_on_c, 0, 57, 64
4, 19463, Note_on_c, 0, 57, 0
4, 19464, Note_on_c, 0, 59, 64
4, 19487, Note_on_c, 0, 59, 0
4, 19488, Note_on_c, 0, 49, 64
4, 19511, Note_on_c, 0, 49, 0
4, 19512, Note_on_c, 0, 52, 64
4, 19535, Note_on_c, 0, 52, 0
4, 19536, Note_on_c, 0, 57, 64
4, 19559, Note_on_c, 0, 57, 0
4, 19560, Note_on_c, 0, 59, 64
4, 19583, Note_on_c, 0, 59, 0
4, 19584, Note_on_c, 0, 50, 64
4, 19607, Note_on_c, 0, 50, 0
4, 19608, Note_on_c, 0, 54, 64
4, 19631, Note_on_c, 0, 54, 0
4, 19632, Note_on_c, 0, 57, 64
4, 19655, Note_on_c, 0, 57, 0
4, 19656, Note_on_c, 0, 59, 64
4, 19679, Note_on_c, 0, 59, 0
4, 19680, Note_on_c, 0, 57, 64
4, 19703, Note_on_c, 0, 57, 0
4, 19704, Note_on_c, 0, 59, 64
4, 19727, Note_on_c, 0, 59, 0
4, 19728, Note_on_c, 0, 57, 64
4, 19751, Note_on_c, 0, 57, 0
4, 19752, Note_on_c, 0, 59, 64
4, 19775, Note_on_c, 0, 59, 0
4, 19776, Note_on_c, 0, 50, 64
4, 19799, Note_on_c, 0, 50, 0
4, 19800, Note_on_c, 0, 54, 64
4, 19823, Note_on_c, 0, 54, 0
4, 19824, Note_on_c, 0, 57, 64
4, 19847, Note_on_c, 0, 57, 0
4, 19848, Note_on_c, 0, 59, 64
4, 19871, Note_on_c, 0, 59, 0
4, 19872, Note_on_c, 0, 50, 64
4, 19895, Note_on_c, 0, 50, 0
4, 19896, Note_on_c, 0, 52, 64
4, 19919, Note_on_c, 0, 52, 0
4, 19920, Note_on_c, 0, 56, 64
4, 19943, Note_on_c, 0, 56, 0
4, 19944, Note_on_c, 0, 57, 64
4, 19967, Note_on_c, 0, 57, 0
4, 19968, Note_on_c, 0, 56, 64
4, 19991, Note_on_c, 0, 56, 0
4, 19992, Note_on_c, 0, 57, 64
4, 20015, Note_on_c, 0, 57, 0
4, 20016, Note_on_c, 0, 56, 64
4, 20039, Note_on_c, 0, 56, 0
4, 20040, Note_on_c, 0, 57, 64
4, 20063, Note_on_c, 0, 57, 0
4, 20064, Note_on_c, 0, 50, 64
4, 20087, Note_on_c, 0, 50, 0
4, 20088, Note_on_c, 0, 52, 64
4, 20111, Note_on_c, 0, 52, 0
4, 20112, Note_on_c, 0, 56, 64
4, 20135, Note_on_c, 0, 56, 0
4, 20136, Note_on_c, 0, 57, 64
4, 20159, Note_on_c, 0, 57, 0
4, 20160, Note_on_c, 0, 49, 64
4, 20183, Note_on_c, 0, 49, 0
4, 20184, Note_on_c, 0, 52, 64
4, 20207, Note_on_c, 0, 52, 0
4, 20208, Note_on_c, 0, 57, 64
4, 20231, Note_on_c, 0, 57, 0
4, 20232, Note_on_c, 0, 59, 64
4, 20255, Note_on_c, 0, 59, 0
4, 20256, Note_on_c, 0, 57, 64
4, 20279, Note_on_c, 0, 57, 0
4, 20280, Note_on_c, 0, 59, 64
4, 20303, Note_on_c, 0, 59, 0
4, 20304, Note_on_c, 0, 57, 64
4, 20327, Note_on_c, 0, 57, 0
4, 20328, Note_on_c, 0, 59, 64
4, 20351, Note_on_c, 0, 59, 0
4, 20352, Note_on_c, 0, 49, 64
4, 20375, Note_on_c, 0, 49, 0
4, 20376, Note_on_c, 0, 52, 64
4, 20399, Note_on_c, 0, 52, 0
4, 20400, Note_on_c, 0, 57, 64
4, 20423, Note_on_c, 0, 57, 0
4, 20424, Note_on_c, 0, 59, 64
4, 20447, Note_on_c, 0, 59, 0
4, 20448, Note_on_c, 0, 51, 64
4, 20471, Note_on_c, 0, 51, 0
4, 20472, Note_on_c, 0, 54, 64
4, 20495, Note_on_c, 0, 54, 0
4, 20496, Note_on_c, 0, 57, 64
4, 20519, Note_on_c, 0, 57, 0
4, 20520, Note_on_c, 0, 59, 64
4, 20543, Note_on_c, 0, 59, 0
4, 20544, Note_on_c, 0, 57, 64
4, 20567, Note_on_c, 0, 57, 0
4, 20568, Note_on_c, 0, 59, 64
4, 20591, Note_on_c, 0, 59, 0
4, 20592, Note_on_c, 0, 57, 64
4, 20615, Note_on_c, 0, 57, 0
4, 20616, Note_on_c, 0, 59, 64
4, 20639, Note_on_c, 0, 59, 0
4, 20640, Note_on_c, 0, 51, 64
4, 20663, Note_on_c, 0, 51, 0
4, 20664, Note_on_c, 0, 54, 64
4, 20687, Note_on_c, 0, 54, 0
4, 20688, Note_on_c, 0, 57, 64
4, 20711, Note_on_c, 0, 57, 0
4, 20712, Note_on_c, 0, 59, 64
4, 20735, Note_on_c, 0, 59, 0
4, 20736, Note_on_c, 0, 40, 100
4, 20736, Note_on_c, 0, 52, 64
4, 21001, Note_on_c, 0, 52, 0
4, 21024, Note_on_c, 0, 40, 0
4, 21024, Note_on_c, 0, 40, 100
4, 21024, Note_on_c, 0, 52, 64
4, 21289, Note_on_c, 0, 52, 0
4, 21312, Note_on_c, 0, 40, 0
4, 21312, Note_on_c, 0, 40, 100
4, 21312, Note_on_c, 0, 52, 64
4, 21577, Note_on_c, 0, 52, 0
4, 21600, Note_on_c, 0, 40, 0
4, 21600, Note_on_c, 0, 40, 100
4, 21600, Note_on_c, 0, 52, 64
4, 21865, Note_on_c, 0, 52, 0
4, 21888, Note_on_c, 0, 40, 0
4, 21888, Note_on_c, 0, 40, 100
4, 21888, Note_on_c, 0, 52, 64
4, 22153, Note_on_c, 0, 52, 0
4, 22176, Note_on_c, 0, 40, 0
4, 22176, Note_on_c, 0, 40, 100
4, 22176, Note_on_c, 0, 52, 64
4, 22441, Note_on_c, 0, 52, 0
4, 22464, Note_on_c, 0, 40, 0
4, 22464, Note_on_c, 0, 40, 100
4, 22464, Note_on_c, 0, 52, 64
4, 22729, Note_on_c, 0, 52, 0
4, 22752, Note_on_c, 0, 40, 0
4, 22752, Note_on_c, 0, 40, 100
4, 22752, Note_on_c, 0, 52, 64
4, 23017, Note_on_c, 0, 52, 0
4, 23040, Note_on_c, 0, 40, 0
4, 23040, Note_on_c, 0, 40, 100
4, 23040, Note_on_c, 0, 52, 64
4, 23305, Note_on_c, 0, 52, 0
4, 23328, Note_on_c, 0, 40, 0
4, 23328, Note_on_c, 0, 40, 100
4, 23328, Note_on_c, 0, 52, 64
4, 23593, Note_on_c, 0, 52, 0
4, 23616, Note_on_c, 0, 40, 0
4, 23616, Note_on_c, 0, 40, 100
4, 23616, Note_on_c, 0, 52, 64
4, 23881, Note_on_c, 0, 52, 0
4, 23904, Note_on_c, 0, 40, 0
4, 23904, Note_on_c, 0, 40, 100
4, 23904, Note_on_c, 0, 52, 64
4, 24169, Note_on_c, 0, 52, 0
4, 24192, Note_on_c, 0, 40, 0
4, 24192, Note_on_c, 0, 40, 100
4, 24192, Note_on_c, 0, 52, 64
4, 24457, Note_on_c, 0, 52, 0
4, 24480, Note_on_c, 0, 40, 0
4, 24480, Note_on_c, 0, 40, 100
4, 24480, Note_on_c, 0, 52, 64
4, 24745, Note_on_c, 0, 52, 0
4, 24768, Note_on_c, 0, 40, 0
4, 24768, Note_on_c, 0, 40, 100
4, 24768, Note_on_c, 0, 52, 64
4, 25033, Note_on_c, 0, 52, 0
4, 25056, Note_on_c, 0, 40, 0
4, 25056, Note_on_c, 0, 40, 100
4, 25056, Note_on_c, 0, 52, 64
4, 25321, Note_on_c, 0, 52, 0
4, 25344, Note_on_c, 0, 40, 0
4, 25344, Note_on_c, 0, 40, 100
4, 25344, Note_on_c, 0, 52, 64
4, 25609, Note_on_c, 0, 52, 0
4, 25632, Note_on_c, 0, 40, 0
4, 25632, Note_on_c, 0, 40, 100
4, 25632, Note_on_c, 0, 52, 64
4, 25897, Note_on_c, 0, 52, 0
4, 25920, Note_on_c, 0, 40, 0
4, 25920, Note_on_c, 0, 40, 64
4, 25943, Note_on_c, 0, 40, 0
4, 25944, Note_on_c, 0, 40, 64
4, 25967, Note_on_c, 0, 40, 0
4, 25968, Note_on_c, 0, 44, 64
4, 25991, Note_on_c, 0, 44, 0
4, 25992, Note_on_c, 0, 47, 64
4, 26015, Note_on_c, 0, 47, 0
4, 26016, Note_on_c, 0, 52, 64
4, 26039, Note_on_c, 0, 52, 0
4, 26040, Note_on_c, 0, 56, 64
4, 26063, Note_on_c, 0, 56, 0
4, 26064, Note_on_c, 0, 59, 64
4, 26087, Note_on_c, 0, 59, 0
4, 26088, Note_on_c, 0, 62, 64
4, 26111, Note_on_c, 0, 62, 0
4, 26496, Note_on_c, 0, 45, 64
4, 26585, Note_on_c, 0, 45, 0
4, 26592, Note_on_c, 0, 57, 64
4, 26681, Note_on_c, 0, 57, 0
4, 26688, Note_on_c, 0, 59, 64
4, 26777, Note_on_c, 0, 59, 0
4, 26784, Note_on_c, 0, 61, 64
4, 26873, Note_on_c, 0, 61, 0
4, 26880, Note_on_c, 0, 49, 64
4, 26925, Note_on_c, 0, 49, 0
4, 26928, Note_on_c, 0, 50, 64
4, 26973, Note_on_c, 0, 50, 0
4, 26976, Note_on_c, 0, 52, 64
4, 27021, Note_on_c, 0, 52, 0
4, 27024, Note_on_c, 0, 49, 64
4, 27069, Note_on_c, 0, 49, 0
4, 27072, Note_on_c, 0, 54, 64
4, 27161, Note_on_c, 0, 54, 0
4, 27168, Note_on_c, 0, 42, 64
4, 27257, Note_on_c, 0, 42, 0
4, 27264, Note_on_c, 0, 44, 64
4, 27353, Note_on_c, 0, 44, 0
4, 27360, Note_on_c, 0, 45, 64
4, 27449, Note_on_c, 0, 45, 0
4, 27456, Note_on_c, 0, 57, 64
4, 27545, Note_on_c, 0, 57, 0
4, 27552, Note_on_c, 0, 59, 64
4, 27641, Note_on_c, 0, 59, 0
4, 27648, Note_on_c, 0, 61, 64
4, 27737, Note_on_c, 0, 61, 0
4, 27744, Note_on_c, 0, 49, 64
4, 27833, Note_on_c, 0, 49, 0
4, 27840, Note_on_c, 0, 51, 64
4, 27929, Note_on_c, 0, 51, 0
4, 27936, Note_on_c, 0, 52, 64
4, 28113, Note_on_c, 0, 52, 0
4, 28128, Note_on_c, 0, 47, 64
4, 28217, Note_on_c, 0, 47, 0
4, 28224, Note_on_c, 0, 49, 64
4, 28269, Note_on_c, 0, 49, 0
4, 28272, Note_on_c, 0, 47, 64
4, 28295, Note_on_c, 0, 47, 0
4, 28296, Note_on_c, 0, 45, 64
4, 28319, Note_on_c, 0, 45, 0
4, 28320, Note_on_c, 0, 44, 64
4, 28365, Note_on_c, 0, 44, 0
4, 28368, Note_on_c, 0, 42, 64
4, 28413, Note_on_c, 0, 42, 0
4, 28416, Note_on_c, 0, 40, 64
4, 28505, Note_on_c, 0, 40, 0
4, 28512, Note_on_c, 0, 45, 64
4, 28601, Note_on_c, 0, 45, 0
4, 28608, Note_on_c, 0, 42, 64
4, 28697, Note_on_c, 0, 42, 0
4, 28704, Note_on_c, 0, 47, 64
4, 28793, Note_on_c, 0, 47, 0
4, 28800, Note_on_c, 0, 40, 64
4, 28889, Note_on_c, 0, 40, 0
4, 28896, Note_on_c, 0, 52, 64
4, 28985, Note_on_c, 0, 52, 0
4, 28992, Note_on_c, 0, 54, 64
4, 29081, Note_on_c, 0, 54, 0
4, 29088, Note_on_c, 0, 56, 64
4, 29177, Note_on_c, 0, 56, 0
4, 29184, Note_on_c, 0, 44, 64
4, 29273, Note_on_c, 0, 44, 0
4, 29280, Note_on_c, 0, 45, 64
4, 29369, Note_on_c, 0, 45, 0
4, 29376, Note_on_c, 0, 47, 64
4, 29465, Note_on_c, 0, 47, 0
4, 29472, Note_on_c, 0, 50, 64
4, 29561, Note_on_c, 0, 50, 0
4, 29568, Note_on_c, 0, 52, 64
4, 29657, Note_on_c, 0, 52, 0
4, 29664, Note_on_c, 0, 57, 64
4, 29709, Note_on_c, 0, 57, 0
4, 29712, Note_on_c, 0, 45, 64
4, 29735, Note_on_c, 0, 45, 0
4, 29736, Note_on_c, 0, 47, 64
4, 29759, Note_on_c, 0, 47, 0
4, 29760, Note_on_c, 0, 49, 64
4, 29805, Note_on_c, 0, 49, 0
4, 29808, Note_on_c, 0, 49, 64
4, 29831, Note_on_c, 0, 49, 0
4, 29832, Note_on_c, 0, 50, 64
4, 29855, Note_on_c, 0, 50, 0
4, 29856, Note_on_c, 0, 52, 64
4, 29901, Note_on_c, 0, 52, 0
4, 29904, Note_on_c, 0, 54, 64
4, 29927, Note_on_c, 0, 54, 0
4, 29928, Note_on_c, 0, 56, 64
4, 29951, Note_on_c, 0, 56, 0
4, 29952, Note_on_c, 0, 57, 64
4, 29997, Note_on_c, 0, 57, 0
4, 30000, Note_on_c, 0, 56, 64
4, 30023, Note_on_c, 0, 56, 0
4, 30024, Note_on_c, 0, 54, 64
4, 30047, Note_on_c, 0, 54, 0
4, 30048, Note_on_c, 0, 52, 64
4, 30093, Note_on_c, 0, 52, 0
4, 30096, Note_on_c, 0, 50, 64
4, 30141, Note_on_c, 0, 50, 0
4, 30144, Note_on_c, 0, 49, 64
4, 30189, Note_on_c, 0, 49, 0
4, 30192, Note_on_c, 0, 47, 64
4, 30237, Note_on_c, 0, 47, 0
4, 30240, Note_on_c, 0, 45, 64
4, 30285, Note_on_c, 0, 45, 0
4, 30288, Note_on_c, 0, 50, 64
4, 30311, Note_on_c, 0, 50, 0
4, 30312, Note_on_c, 0, 49, 64
4, 30335, Note_on_c, 0, 49, 0
4, 30336, Note_on_c, 0, 50, 64
4, 30381, Note_on_c, 0, 50, 0
4, 30384, Note_on_c, 0, 54, 64
4, 30429, Note_on_c, 0, 54, 0
4, 30432, Note_on_c, 0, 47, 64
4, 30477, Note_on_c, 0, 47, 0
4, 30480, Note_on_c, 0, 52, 64
4, 30525, Note_on_c, 0, 52, 0
4, 30528, Note_on_c, 0, 49, 64
4, 30573, Note_on_c, 0, 49, 0
4, 30576, Note_on_c, 0, 54, 64
4, 30599, Note_on_c, 0, 54, 0
4, 30600, Note_on_c, 0, 52, 64
4, 30623, Note_on_c, 0, 52, 0
4, 30624, Note_on_c, 0, 54, 64
4, 30669, Note_on_c, 0, 54, 0
4, 30672, Note_on_c, 0, 57, 64
4, 30717, Note_on_c, 0, 57, 0
4, 30720, Note_on_c, 0, 51, 64
4, 30765, Note_on_c, 0, 51, 0
4, 30768, Note_on_c, 0, 56, 64
4, 30813, Note_on_c, 0, 56, 0
4, 30816, Note_on_c, 0, 52, 64
4, 30861, Note_on_c, 0, 52, 0
4, 30864, Note_on_c, 0, 57, 64
4, 30887, Note_on_c, 0, 57, 0
4, 30888, Note_on_c, 0, 56, 64
4, 30911, Note_on_c, 0, 56, 0
4, 30912, Note_on_c, 0, 57, 64
4, 30957, Note_on_c, 0, 57, 0
4, 30960, Note_on_c, 0, 61, 64
4, 31005, Note_on_c, 0, 61, 0
4, 31008, Note_on_c, 0, 54, 64
4, 31053, Note_on_c, 0, 54, 0
4, 31056, Note_on_c, 0, 59, 64
4, 31101, Note_on_c, 0, 59, 0
4, 31104, Note_on_c, 0, 56, 64
4, 31149, Note_on_c, 0, 56, 0
4, 31152, Note_on_c, 0, 52, 64
4, 31197, Note_on_c, 0, 52, 0
4, 31200, Note_on_c, 0, 56, 64
4, 31245, Note_on_c, 0, 56, 0
4, 31248, Note_on_c, 0, 59, 64
4, 31293, Note_on_c, 0, 59, 0
4, 31296, Note_on_c, 0, 64, 64
4, 31341, Note_on_c, 0, 64, 0
4, 31344, Note_on_c, 0, 62, 64
4, 31389, Note_on_c, 0, 62, 0
4, 31392, Note_on_c, 0, 64, 64
4, 31481, Note_on_c, 0, 64, 0
4, 31704, Note_on_c, 0, 50, 64
4, 31727, Note_on_c, 0, 50, 0
4, 31728, Note_on_c, 0, 52, 64
4, 31751, Note_on_c, 0, 52, 0
4, 31752, Note_on_c, 0, 54, 64
4, 31775, Note_on_c, 0, 54, 0
4, 31776, Note_on_c, 0, 55, 64
4, 31799, Note_on_c, 0, 55, 0
4, 31800, Note_on_c, 0, 57, 64
4, 31823, Note_on_c, 0, 57, 0
4, 31824, Note_on_c, 0, 59, 64
4, 31847, Note_on_c, 0, 59, 0
4, 31848, Note_on_c, 0, 61, 64
4, 31871, Note_on_c, 0, 61, 0
4, 31872, Note_on_c, 0, 62, 64
4, 31895, Note_on_c, 0, 62, 0
4, 31896, Note_on_c, 0, 59, 64
4, 31919, Note_on_c, 0, 59, 0
4, 31920, Note_on_c, 0, 57, 64
4, 31943, Note_on_c, 0, 57, 0
4, 31944, Note_on_c, 0, 56, 64
4, 31967, Note_on_c, 0, 56, 0
4, 31968, Note_on_c, 0, 61, 64
4, 31991, Note_on_c, 0, 61, 0
4, 32088, Note_on_c, 0, 62, 64
4, 32111, Note_on_c, 0, 62, 0
4, 32112, Note_on_c, 0, 61, 64
4, 32135, Note_on_c, 0, 61, 0
4, 32136, Note_on_c, 0, 59, 64
4, 32159, Note_on_c, 0, 59, 0
4, 32160, Note_on_c, 0, 57, 64
4, 32183, Note_on_c, 0, 57, 0
4, 32184, Note_on_c, 0, 54, 64
4, 32207, Note_on_c, 0, 54, 0
4, 32208, Note_on_c, 0, 56, 64
4, 32231, Note_on_c, 0, 56, 0
4, 32232, Note_on_c, 0, 57, 64
4, 32255, Note_on_c, 0, 57, 0
4, 32256, Note_on_c, 0, 59, 64
4, 32279, Note_on_c, 0, 59, 0
4, 32280, Note_on_c, 0, 47, 64
4, 32303, Note_on_c, 0, 47, 0
4, 32304, Note_on_c, 0, 49, 64
4, 32327, Note_on_c, 0, 49, 0
4, 32328, Note_on_c, 0, 50, 64
4, 32351, Note_on_c, 0, 50, 0
4, 32352, Note_on_c, 0, 52, 64
4, 32375, Note_on_c, 0, 52, 0
4, 32376, Note_on_c, 0, 54, 64
4, 32399, Note_on_c, 0, 54, 0
4, 32400, Note_on_c, 0, 56, 64
4, 32423, Note_on_c, 0, 56, 0
4, 32424, Note_on_c, 0, 57, 64
4, 32447, Note_on_c, 0, 57, 0
4, 32448, Note_on_c, 0, 59, 64
4, 32471, Note_on_c, 0, 59, 0
4, 32472, Note_on_c, 0, 56, 64
4, 32495, Note_on_c, 0, 56, 0
4, 32496, Note_on_c, 0, 54, 64
4, 32519, Note_on_c, 0, 54, 0
4, 32520, Note_on_c, 0, 52, 64
4, 32543, Note_on_c, 0, 52, 0
4, 32544, Note_on_c, 0, 57, 64
4, 32633, Note_on_c, 0, 57, 0
4, 32640, Note_on_c, 0, 45, 64
4, 32685, Note_on_c, 0, 45, 0
4, 32688, Note_on_c, 0, 47, 64
4, 32733, Note_on_c, 0, 47, 0
4, 32736, Note_on_c, 0, 45, 64
4, 32781, Note_on_c, 0, 45, 0
4, 32784, Note_on_c, 0, 44, 64
4, 32829, Note_on_c, 0, 44, 0
4, 32832, Note_on_c, 0, 42, 64
4, 32877, Note_on_c, 0, 42, 0
4, 32880, Note_on_c, 0, 57, 64
4, 32925, Note_on_c, 0, 57, 0
4, 32928, Note_on_c, 0, 56, 64
4, 32973, Note_on_c, 0, 56, 0
4, 32976, Note_on_c, 0, 54, 64
4, 33021, Note_on_c, 0, 54, 0
4, 33024, Note_on_c, 0, 52, 64
4, 33069, Note_on_c, 0, 52, 0
4, 33072, Note_on_c, 0, 50, 64
4, 33117, Note_on_c, 0, 50, 0
4, 33120, Note_on_c, 0, 49, 64
4, 33209, Note_on_c, 0, 49, 0
4, 33240, Note_on_c, 0, 47, 64
4, 33263, Note_on_c, 0, 47, 0
4, 33264, Note_on_c, 0, 49, 64
4, 33287, Note_on_c, 0, 49, 0
4, 33288, Note_on_c, 0, 50, 64
4, 33311, Note_on_c, 0, 50, 0
4, 33312, Note_on_c, 0, 52, 64
4, 33335, Note_on_c, 0, 52, 0
4, 33336, Note_on_c, 0, 50, 64
4, 33359, Note_on_c, 0, 50, 0
4, 33360, Note_on_c, 0, 49, 64
4, 33383, Note_on_c, 0, 49, 0
4, 33384, Note_on_c, 0, 47, 64
4, 33407, Note_on_c, 0, 47, 0
4, 33408, Note_on_c, 0, 45, 64
4, 33497, Note_on_c, 0, 45, 0
4, 33528, Note_on_c, 0, 61, 64
4, 33551, Note_on_c, 0, 61, 0
4, 33552, Note_on_c, 0, 59, 64
4, 33575, Note_on_c, 0, 59, 0
4, 33576, Note_on_c, 0, 57, 64
4, 33599, Note_on_c, 0, 57, 0
4, 33600, Note_on_c, 0, 56, 64
4, 33623, Note_on_c, 0, 56, 0
4, 33624, Note_on_c, 0, 54, 64
4, 33647, Note_on_c, 0, 54, 0
4, 33648, Note_on_c, 0, 52, 64
4, 33671, Note_on_c, 0, 52, 0
4, 33672, Note_on_c, 0, 51, 64
4, 33695, Note_on_c, 0, 51, 0
4, 33696, Note_on_c, 0, 56, 64
4, 33785, Note_on_c, 0, 56, 0
4, 33816, Note_on_c, 0, 54, 64
4, 33839, Note_on_c, 0, 54, 0
4, 33840, Note_on_c, 0, 56, 64
4, 33863, Note_on_c, 0, 56, 0
4, 33864, Note_on_c, 0, 57, 64
4, 33887, Note_on_c, 0, 57, 0
4, 33888, Note_on_c, 0, 59, 64
4, 33911, Note_on_c, 0, 59, 0
4, 33912, Note_on_c, 0, 57, 64
4, 33935, Note_on_c, 0, 57, 0
4, 33936, Note_on_c, 0, 56, 64
4, 33959, Note_on_c, 0, 56, 0
4, 33960, Note_on_c, 0, 54, 64
4, 33983, Note_on_c, 0, 54, 0
4, 33984, Note_on_c, 0, 52, 64
4, 34029, Note_on_c, 0, 52, 0
4, 34032, Note_on_c, 0, 40, 64
4, 34077, Note_on_c, 0, 40, 0
4, 34080, Note_on_c, 0, 44, 64
4, 34125, Note_on_c, 0, 44, 0
4, 34128, Note_on_c, 0, 47, 64
4, 34173, Note_on_c, 0, 47, 0
4, 34176, Note_on_c, 0, 52, 64
4, 34221, Note_on_c, 0, 52, 0
4, 34224, Note_on_c, 0, 56, 64
4, 34269, Note_on_c, 0, 56, 0
4, 34272, Note_on_c, 0, 57, 64
4, 34317, Note_on_c, 0, 57, 0
4, 34320, Note_on_c, 0, 50, 64
4, 34365, Note_on_c, 0, 50, 0
4, 34368, Note_on_c, 0, 52, 64
4, 34457, Note_on_c, 0, 52, 0
4, 34464, Note_on_c, 0, 40, 64
4, 34553, Note_on_c, 0, 40, 0
4, 34560, Note_on_c, 0, 45, 64
4, 34605, Note_on_c, 0, 45, 0
4, 34608, Note_on_c, 0, 45, 64
4, 34631, Note_on_c, 0, 45, 0
4, 34632, Note_on_c, 0, 47, 64
4, 34655, Note_on_c, 0, 47, 0
4, 34656, Note_on_c, 0, 49, 64
4, 34701, Note_on_c, 0, 49, 0
4, 34704, Note_on_c, 0, 49, 64
4, 34727, Note_on_c, 0, 49, 0
4, 34728, Note_on_c, 0, 50, 64
4, 34751, Note_on_c, 0, 50, 0
4, 34752, Note_on_c, 0, 52, 64
4, 34797, Note_on_c, 0, 52, 0
4, 34800, Note_on_c, 0, 54, 64
4, 34823, Note_on_c, 0, 54, 0
4, 34824, Note_on_c, 0, 56, 64
4, 34847, Note_on_c, 0, 56, 0
4, 34848, Note_on_c, 0, 57, 64
4, 34937, Note_on_c, 0, 57, 0
4, 34937, End_track
5, 0, Start_track
5, 0, MIDI_port, 0
5, 0, Title_t, "Sonata No. 2 en A mayor"
5, 0, End_track
6, 0, Start_track
6, 0, MIDI_port, 0
6, 0, Title_t, "para violin y clavicembalo"
6, 0, End_track
7, 0, Start_track
7, 0, MIDI_port, 0
7, 0, Title_t, "Segundo Movimiento: Allegro Assai"
7, 0, End_track
8, 0, Start_track
8, 0, MIDI_port, 0
8, 0, Title_t, "J. S. Bach (1685-1750)"
8, 0, End_track
9, 0, Start_track
9, 0, MIDI_port, 0
9, 0, Title_t, "Copyright Luis Barajas"
9, 0, End_track
10, 0, Start_track
10, 0, MIDI_port, 0
10, 0, Title_t, "*** Bach Keeps Ruling!"
10, 0, End_track
0, 0, End_of_file
