0, 0, Header, 1, 10, 96
1, 0, Start_track
1, 0, Sequencer_specific, 3, 0, 0, 65
1, 0, Time_signature, 6, 3, 12, 8
1, 0, Key_signature, 1, "major"
1, 0, Tempo, 545455
1, 33488, Tempo, 545455
1, 33504, Tempo, 555556
1, 33544, Tempo, 555556
1, 33704, Tempo, 555556
1, 33712, Tempo, 560748
1, 33716, Tempo, 566038
1, 33724, Tempo, 571429
1, 33728, Tempo, 576923
1, 33732, Tempo, 582524
1, 33740, Tempo, 588235
1, 33744, Tempo, 594059
1, 33748, Tempo, 600000
1, 33756, Tempo, 606061
1, 33760, Tempo, 612245
1, 33764, Tempo, 618557
1, 33772, Tempo, 625000
1, 33776, Tempo, 631579
1, 33780, Tempo, 638298
1, 33788, Tempo, 645161
1, 33792, Tempo, 652174
1, 33800, Tempo, 659341
1, 33804, Tempo, 666667
1, 33808, Tempo, 674157
1, 33816, Tempo, 681818
1, 33820, Tempo, 689655
1, 33824, Tempo, 697674
1, 33832, Tempo, 705882
1, 33836, Tempo, 714286
1, 33840, Tempo, 722892
1, 33848, Tempo, 731707
1, 33852, Tempo, 740741
1, 33856, Tempo, 750000
1, 33864, Tempo, 759494
1, 33868, Tempo, 769231
1, 33876, Tempo, 779221
1, 33880, Tempo, 789474
1, 33884, Tempo, 800000
1, 33892, Tempo, 810811
1, 33896, Tempo, 821918
1, 33900, Tempo, 833333
1, 33908, Tempo, 845070
1, 33912, Tempo, 857143
1, 33916, Tempo, 869565
1, 33924, Tempo, 882353
1, 33928, Tempo, 895522
1, 33932, Tempo, 909091
1, 33940, Tempo, 923077
1, 33944, Tempo, 937500
1, 33952, Tempo, 952381
1, 33956, Tempo, 967742
1, 33960, Tempo, 983607
1, 33968, Tempo, 1000000
1, 33972, Tempo, 1016949
1, 33976, Tempo, 1034483
1, 33984, Tempo, 1052632
1, 33988, Tempo, 1071429
1, 33992, Tempo, 1090909
1, 34000, Tempo, 1111111
1, 34004, Tempo, 1132075
1, 34008, Tempo, 1153846
1, 34056, Tempo, 1132075
1, 34100, Tempo, 1111111
1, 34148, Tempo, 1090909
1, 34192, Tempo, 1071429
1, 34192, End_track
2, 0, Start_track
2, 0, MIDI_port, 0
2, 0, Title_t, "Violin"
2, 0, Program_c, 1, 40
2, 0, Control_c, 1, 7, 127
2, 0, Note_on_c, 1, 55, 64
2, 45, Note_on_c, 1, 55, 0
2, 48, Note_on_c, 1, 67, 64
2, 93, Note_on_c, 1, 67, 0
2, 96, Note_on_c, 1, 67, 64
2, 141, Note_on_c, 1, 67, 0
2, 144, Note_on_c, 1, 57, 64
2, 189, Note_on_c, 1, 57, 0
2, 192, Note_on_c, 1, 67, 64
2, 237, Note_on_c, 1, 67, 0
2, 240, Note_on_c, 1, 67, 64
2, 285, Note_on_c, 1, 67, 0
2, 288, Note_on_c, 1, 59, 64
2, 333, Note_on_c, 1, 59, 0
2, 336, Note_on_c, 1, 67, 64
2, 381, Note_on_c, 1, 67, 0
2, 384, Note_on_c, 1, 67, 64
2, 429, Note_on_c, 1, 67, 0
2, 432, Note_on_c, 1, 60, 64
2, 477, Note_on_c, 1, 60, 0
2, 480, Note_on_c, 1, 69, 64
2, 525, Note_on_c, 1, 69, 0
2, 528, Note_on_c, 1, 64, 64
2, 573, Note_on_c, 1, 64, 0
2, 576, Note_on_c, 1, 66, 64
2, 621, Note_on_c, 1, 66, 0
2, 624, Note_on_c, 1, 62, 64
2, 669, Note_on_c, 1, 62, 0
2, 672, Note_on_c, 1, 67, 64
2, 717, Note_on_c, 1, 67, 0
2, 720, Note_on_c, 1, 64, 64
2, 765, Note_on_c, 1, 64, 0
2, 768, Note_on_c, 1, 60, 64
2, 813, Note_on_c, 1, 60, 0
2, 816, Note_on_c, 1, 62, 64
2, 861, Note_on_c, 1, 62, 0
2, 864, Note_on_c, 1, 55, 64
2, 909, Note_on_c, 1, 55, 0
2, 912, Note_on_c, 1, 74, 64
2, 1001, Note_on_c, 1, 74, 0
2, 1008, Note_on_c, 1, 74, 64
2, 1053, Note_on_c, 1, 74, 0
2, 1056, Note_on_c, 1, 72, 64
2, 1079, Note_on_c, 1, 72, 0
2, 1080, Note_on_c, 1, 71, 64
2, 1103, Note_on_c, 1, 71, 0
2, 1104, Note_on_c, 1, 69, 64
2, 1127, Note_on_c, 1, 69, 0
2, 1128, Note_on_c, 1, 67, 64
2, 1151, Note_on_c, 1, 67, 0
2, 1152, Note_on_c, 1, 66, 64
2, 1175, Note_on_c, 1, 66, 0
2, 1176, Note_on_c, 1, 67, 64
2, 1199, Note_on_c, 1, 67, 0
2, 1200, Note_on_c, 1, 66, 64
2, 1223, Note_on_c, 1, 66, 0
2, 1224, Note_on_c, 1, 64, 64
2, 1247, Note_on_c, 1, 64, 0
2, 1248, Note_on_c, 1, 66, 64
2, 1271, Note_on_c, 1, 66, 0
2, 1272, Note_on_c, 1, 62, 64
2, 1295, Note_on_c, 1, 62, 0
2, 1296, Note_on_c, 1, 67, 64
2, 1319, Note_on_c, 1, 67, 0
2, 1320, Note_on_c, 1, 69, 64
2, 1343, Note_on_c, 1, 69, 0
2, 1344, Note_on_c, 1, 67, 64
2, 1367, Note_on_c, 1, 67, 0
2, 1368, Note_on_c, 1, 66, 64
2, 1391, Note_on_c, 1, 66, 0
2, 1392, Note_on_c, 1, 67, 64
2, 1415, Note_on_c, 1, 67, 0
2, 1416, Note_on_c, 1, 64, 64
2, 1439, Note_on_c, 1, 64, 0
2, 1440, Note_on_c, 1, 69, 64
2, 1463, Note_on_c, 1, 69, 0
2, 1464, Note_on_c, 1, 71, 64
2, 1487, Note_on_c, 1, 71, 0
2, 1488, Note_on_c, 1, 69, 64
2, 1511, Note_on_c, 1, 69, 0
2, 1512, Note_on_c, 1, 67, 64
2, 1535, Note_on_c, 1, 67, 0
2, 1536, Note_on_c, 1, 69, 64
2, 1559, Note_on_c, 1, 69, 0
2, 1560, Note_on_c, 1, 66, 64
2, 1583, Note_on_c, 1, 66, 0
2, 1584, Note_on_c, 1, 71, 64
2, 1607, Note_on_c, 1, 71, 0
2, 1608, Note_on_c, 1, 72, 64
2, 1631, Note_on_c, 1, 72, 0
2, 1632, Note_on_c, 1, 71, 64
2, 1655, Note_on_c, 1, 71, 0
2, 1656, Note_on_c, 1, 69, 64
2, 1679, Note_on_c, 1, 69, 0
2, 1680, Note_on_c, 1, 71, 64
2, 1703, Note_on_c, 1, 71, 0
2, 1704, Note_on_c, 1, 67, 64
2, 1727, Note_on_c, 1, 67, 0
2, 1728, Note_on_c, 1, 69, 64
2, 1751, Note_on_c, 1, 69, 0
2, 1752, Note_on_c, 1, 71, 64
2, 1775, Note_on_c, 1, 71, 0
2, 1776, Note_on_c, 1, 69, 64
2, 1799, Note_on_c, 1, 69, 0
2, 1800, Note_on_c, 1, 67, 64
2, 1823, Note_on_c, 1, 67, 0
2, 1824, Note_on_c, 1, 69, 64
2, 1847, Note_on_c, 1, 69, 0
2, 1848, Note_on_c, 1, 66, 64
2, 1871, Note_on_c, 1, 66, 0
2, 1872, Note_on_c, 1, 67, 64
2, 1895, Note_on_c, 1, 67, 0
2, 1896, Note_on_c, 1, 69, 64
2, 1919, Note_on_c, 1, 69, 0
2, 1920, Note_on_c, 1, 67, 64
2, 1943, Note_on_c, 1, 67, 0
2, 1944, Note_on_c, 1, 66, 64
2, 1967, Note_on_c, 1, 66, 0
2, 1968, Note_on_c, 1, 67, 64
2, 1991, Note_on_c, 1, 67, 0
2, 1992, Note_on_c, 1, 64, 64
2, 2015, Note_on_c, 1, 64, 0
2, 2016, Note_on_c, 1, 66, 64
2, 2061, Note_on_c, 1, 66, 0
2, 2064, Note_on_c, 1, 62, 64
2, 2109, Note_on_c, 1, 62, 0
2, 2112, Note_on_c, 1, 67, 64
2, 2157, Note_on_c, 1, 67, 0
2, 2160, Note_on_c, 1, 72, 64
2, 2205, Note_on_c, 1, 72, 0
2, 2208, Note_on_c, 1, 69, 64
2, 2253, Note_on_c, 1, 69, 0
2, 2256, Note_on_c, 1, 78, 64
2, 2301, Note_on_c, 1, 78, 0
2, 2304, Note_on_c, 1, 79, 64
2, 2637, Note_on_c, 1, 79, 0
2, 2640, Note_on_c, 1, 74, 64
2, 2685, Note_on_c, 1, 74, 0
2, 2688, Note_on_c, 1, 71, 64
2, 2733, Note_on_c, 1, 71, 0
2, 2736, Note_on_c, 1, 67, 64
2, 2781, Note_on_c, 1, 67, 0
2, 2784, Note_on_c, 1, 72, 64
2, 2925, Note_on_c, 1, 72, 0
2, 2928, Note_on_c, 1, 71, 64
2, 2951, Note_on_c, 1, 71, 0
2, 2952, Note_on_c, 1, 69, 64
2, 2975, Note_on_c, 1, 69, 0
2, 2976, Note_on_c, 1, 71, 64
2, 3069, Note_on_c, 1, 71, 0
2, 3072, Note_on_c, 1, 69, 64
2, 3117, Note_on_c, 1, 69, 0
2, 3120, Note_on_c, 1, 78, 64
2, 3165, Note_on_c, 1, 78, 0
2, 3168, Note_on_c, 1, 67, 64
2, 3213, Note_on_c, 1, 67, 0
2, 3216, Note_on_c, 1, 83, 64
2, 3357, Note_on_c, 1, 83, 0
2, 3360, Note_on_c, 1, 81, 64
2, 3383, Note_on_c, 1, 81, 0
2, 3384, Note_on_c, 1, 79, 64
2, 3407, Note_on_c, 1, 79, 0
2, 3408, Note_on_c, 1, 78, 64
2, 3431, Note_on_c, 1, 78, 0
2, 3432, Note_on_c, 1, 76, 64
2, 3455, Note_on_c, 1, 76, 0
2, 3456, Note_on_c, 1, 74, 64
2, 3501, Note_on_c, 1, 74, 0
2, 3504, Note_on_c, 1, 86, 64
2, 3645, Note_on_c, 1, 86, 0
2, 3648, Note_on_c, 1, 84, 64
2, 3671, Note_on_c, 1, 84, 0
2, 3672, Note_on_c, 1, 83, 64
2, 3695, Note_on_c, 1, 83, 0
2, 3696, Note_on_c, 1, 81, 64
2, 3719, Note_on_c, 1, 81, 0
2, 3720, Note_on_c, 1, 79, 64
2, 3743, Note_on_c, 1, 79, 0
2, 3744, Note_on_c, 1, 78, 64
2, 3789, Note_on_c, 1, 78, 0
2, 3792, Note_on_c, 1, 74, 64
2, 3815, Note_on_c, 1, 74, 0
2, 3816, Note_on_c, 1, 76, 64
2, 3839, Note_on_c, 1, 76, 0
2, 3840, Note_on_c, 1, 74, 64
2, 3885, Note_on_c, 1, 74, 0
2, 3888, Note_on_c, 1, 81, 64
2, 3933, Note_on_c, 1, 81, 0
2, 3936, Note_on_c, 1, 74, 64
2, 3981, Note_on_c, 1, 74, 0
2, 3984, Note_on_c, 1, 74, 64
2, 4029, Note_on_c, 1, 74, 0
2, 4032, Note_on_c, 1, 86, 64
2, 4077, Note_on_c, 1, 86, 0
2, 4080, Note_on_c, 1, 67, 64
2, 4103, Note_on_c, 1, 67, 0
2, 4104, Note_on_c, 1, 69, 64
2, 4127, Note_on_c, 1, 69, 0
2, 4128, Note_on_c, 1, 67, 64
2, 4173, Note_on_c, 1, 67, 0
2, 4176, Note_on_c, 1, 77, 64
2, 4221, Note_on_c, 1, 77, 0
2, 4224, Note_on_c, 1, 67, 64
2, 4269, Note_on_c, 1, 67, 0
2, 4272, Note_on_c, 1, 67, 64
2, 4317, Note_on_c, 1, 67, 0
2, 4320, Note_on_c, 1, 60, 64
2, 4365, Note_on_c, 1, 60, 0
2, 4368, Note_on_c, 1, 72, 64
2, 4391, Note_on_c, 1, 72, 0
2, 4392, Note_on_c, 1, 74, 64
2, 4415, Note_on_c, 1, 74, 0
2, 4416, Note_on_c, 1, 72, 64
2, 4461, Note_on_c, 1, 72, 0
2, 4464, Note_on_c, 1, 79, 64
2, 4509, Note_on_c, 1, 79, 0
2, 4512, Note_on_c, 1, 72, 64
2, 4557, Note_on_c, 1, 72, 0
2, 4560, Note_on_c, 1, 72, 64
2, 4605, Note_on_c, 1, 72, 0
2, 4608, Note_on_c, 1, 84, 64
2, 4653, Note_on_c, 1, 84, 0
2, 4656, Note_on_c, 1, 66, 64
2, 4679, Note_on_c, 1, 66, 0
2, 4680, Note_on_c, 1, 67, 64
2, 4703, Note_on_c, 1, 67, 0
2, 4704, Note_on_c, 1, 66, 64
2, 4749, Note_on_c, 1, 66, 0
2, 4752, Note_on_c, 1, 76, 64
2, 4797, Note_on_c, 1, 76, 0
2, 4800, Note_on_c, 1, 66, 64
2, 4845, Note_on_c, 1, 66, 0
2, 4848, Note_on_c, 1, 66, 64
2, 4893, Note_on_c, 1, 66, 0
2, 4896, Note_on_c, 1, 59, 64
2, 4919, Note_on_c, 1, 59, 0
2, 4920, Note_on_c, 1, 60, 64
2, 4943, Note_on_c, 1, 60, 0
2, 4944, Note_on_c, 1, 62, 64
2, 4967, Note_on_c, 1, 62, 0
2, 4968, Note_on_c, 1, 64, 64
2, 4991, Note_on_c, 1, 64, 0
2, 4992, Note_on_c, 1, 62, 64
2, 5015, Note_on_c, 1, 62, 0
2, 5016, Note_on_c, 1, 60, 64
2, 5039, Note_on_c, 1, 60, 0
2, 5040, Note_on_c, 1, 62, 64
2, 5063, Note_on_c, 1, 62, 0
2, 5064, Note_on_c, 1, 59, 64
2, 5087, Note_on_c, 1, 59, 0
2, 5088, Note_on_c, 1, 60, 64
2, 5111, Note_on_c, 1, 60, 0
2, 5112, Note_on_c, 1, 62, 64
2, 5135, Note_on_c, 1, 62, 0
2, 5136, Note_on_c, 1, 64, 64
2, 5159, Note_on_c, 1, 64, 0
2, 5160, Note_on_c, 1, 66, 64
2, 5183, Note_on_c, 1, 66, 0
2, 5184, Note_on_c, 1, 67, 64
2, 5207, Note_on_c, 1, 67, 0
2, 5208, Note_on_c, 1, 69, 64
2, 5231, Note_on_c, 1, 69, 0
2, 5232, Note_on_c, 1, 71, 64
2, 5255, Note_on_c, 1, 71, 0
2, 5256, Note_on_c, 1, 72, 64
2, 5279, Note_on_c, 1, 72, 0
2, 5280, Note_on_c, 1, 71, 64
2, 5303, Note_on_c, 1, 71, 0
2, 5304, Note_on_c, 1, 69, 64
2, 5327, Note_on_c, 1, 69, 0
2, 5328, Note_on_c, 1, 71, 64
2, 5351, Note_on_c, 1, 71, 0
2, 5352, Note_on_c, 1, 67, 64
2, 5375, Note_on_c, 1, 67, 0
2, 5376, Note_on_c, 1, 69, 64
2, 5399, Note_on_c, 1, 69, 0
2, 5400, Note_on_c, 1, 71, 64
2, 5423, Note_on_c, 1, 71, 0
2, 5424, Note_on_c, 1, 72, 64
2, 5447, Note_on_c, 1, 72, 0
2, 5448, Note_on_c, 1, 74, 64
2, 5471, Note_on_c, 1, 74, 0
2, 5472, Note_on_c, 1, 76, 64
2, 5517, Note_on_c, 1, 76, 0
2, 5520, Note_on_c, 1, 69, 64
2, 5543, Note_on_c, 1, 69, 0
2, 5544, Note_on_c, 1, 68, 64
2, 5567, Note_on_c, 1, 68, 0
2, 5568, Note_on_c, 1, 69, 64
2, 5613, Note_on_c, 1, 69, 0
2, 5616, Note_on_c, 1, 81, 64
2, 5661, Note_on_c, 1, 81, 0
2, 5664, Note_on_c, 1, 57, 64
2, 5709, Note_on_c, 1, 57, 0
2, 5712, Note_on_c, 1, 57, 64
2, 5757, Note_on_c, 1, 57, 0
2, 5760, Note_on_c, 1, 62, 64
2, 5783, Note_on_c, 1, 62, 0
2, 5784, Note_on_c, 1, 64, 64
2, 5807, Note_on_c, 1, 64, 0
2, 5808, Note_on_c, 1, 66, 64
2, 5831, Note_on_c, 1, 66, 0
2, 5832, Note_on_c, 1, 67, 64
2, 5855, Note_on_c, 1, 67, 0
2, 5856, Note_on_c, 1, 66, 64
2, 5879, Note_on_c, 1, 66, 0
2, 5880, Note_on_c, 1, 64, 64
2, 5903, Note_on_c, 1, 64, 0
2, 5904, Note_on_c, 1, 66, 64
2, 5927, Note_on_c, 1, 66, 0
2, 5928, Note_on_c, 1, 62, 64
2, 5951, Note_on_c, 1, 62, 0
2, 5952, Note_on_c, 1, 64, 64
2, 5975, Note_on_c, 1, 64, 0
2, 5976, Note_on_c, 1, 66, 64
2, 5999, Note_on_c, 1, 66, 0
2, 6000, Note_on_c, 1, 67, 64
2, 6023, Note_on_c, 1, 67, 0
2, 6024, Note_on_c, 1, 69, 64
2, 6047, Note_on_c, 1, 69, 0
2, 6048, Note_on_c, 1, 71, 64
2, 6071, Note_on_c, 1, 71, 0
2, 6072, Note_on_c, 1, 72, 64
2, 6095, Note_on_c, 1, 72, 0
2, 6096, Note_on_c, 1, 71, 64
2, 6119, Note_on_c, 1, 71, 0
2, 6120, Note_on_c, 1, 69, 64
2, 6143, Note_on_c, 1, 69, 0
2, 6144, Note_on_c, 1, 71, 64
2, 6167, Note_on_c, 1, 71, 0
2, 6168, Note_on_c, 1, 67, 64
2, 6191, Note_on_c, 1, 67, 0
2, 6192, Note_on_c, 1, 69, 64
2, 6215, Note_on_c, 1, 69, 0
2, 6216, Note_on_c, 1, 71, 64
2, 6239, Note_on_c, 1, 71, 0
2, 6240, Note_on_c, 1, 69, 64
2, 6263, Note_on_c, 1, 69, 0
2, 6264, Note_on_c, 1, 67, 64
2, 6287, Note_on_c, 1, 67, 0
2, 6288, Note_on_c, 1, 69, 64
2, 6311, Note_on_c, 1, 69, 0
2, 6312, Note_on_c, 1, 66, 64
2, 6335, Note_on_c, 1, 66, 0
2, 6336, Note_on_c, 1, 67, 64
2, 6381, Note_on_c, 1, 67, 0
2, 6384, Note_on_c, 1, 79, 64
2, 6407, Note_on_c, 1, 79, 0
2, 6408, Note_on_c, 1, 78, 64
2, 6431, Note_on_c, 1, 78, 0
2, 6432, Note_on_c, 1, 79, 64
2, 6525, Note_on_c, 1, 79, 0
2, 6528, Note_on_c, 1, 78, 64
2, 6573, Note_on_c, 1, 78, 0
2, 6576, Note_on_c, 1, 66, 64
2, 6669, Note_on_c, 1, 66, 0
2, 6672, Note_on_c, 1, 64, 64
2, 6717, Note_on_c, 1, 64, 0
2, 6720, Note_on_c, 1, 71, 64
2, 6765, Note_on_c, 1, 71, 0
2, 6768, Note_on_c, 1, 69, 64
2, 6813, Note_on_c, 1, 69, 0
2, 6816, Note_on_c, 1, 74, 64
2, 6957, Note_on_c, 1, 74, 0
2, 6960, Note_on_c, 1, 72, 64
2, 6983, Note_on_c, 1, 72, 0
2, 6984, Note_on_c, 1, 71, 64
2, 7007, Note_on_c, 1, 71, 0
2, 7008, Note_on_c, 1, 69, 64
2, 7031, Note_on_c, 1, 69, 0
2, 7032, Note_on_c, 1, 67, 64
2, 7055, Note_on_c, 1, 67, 0
2, 7056, Note_on_c, 1, 66, 64
2, 7101, Note_on_c, 1, 66, 0
2, 7104, Note_on_c, 1, 71, 64
2, 7245, Note_on_c, 1, 71, 0
2, 7248, Note_on_c, 1, 69, 64
2, 7271, Note_on_c, 1, 69, 0
2, 7272, Note_on_c, 1, 67, 64
2, 7295, Note_on_c, 1, 67, 0
2, 7296, Note_on_c, 1, 66, 64
2, 7319, Note_on_c, 1, 66, 0
2, 7320, Note_on_c, 1, 64, 64
2, 7343, Note_on_c, 1, 64, 0
2, 7344, Note_on_c, 1, 62, 64
2, 7389, Note_on_c, 1, 62, 0
2, 7392, Note_on_c, 1, 67, 64
2, 7511, Note_on_c, 1, 67, 0
2, 7512, Note_on_c, 1, 69, 64
2, 7535, Note_on_c, 1, 69, 0
2, 7536, Note_on_c, 1, 67, 64
2, 7559, Note_on_c, 1, 67, 0
2, 7560, Note_on_c, 1, 66, 64
2, 7583, Note_on_c, 1, 66, 0
2, 7584, Note_on_c, 1, 67, 64
2, 7607, Note_on_c, 1, 67, 0
2, 7608, Note_on_c, 1, 64, 64
2, 7631, Note_on_c, 1, 64, 0
2, 7632, Note_on_c, 1, 57, 64
2, 7655, Note_on_c, 1, 57, 0
2, 7656, Note_on_c, 1, 69, 64
2, 7679, Note_on_c, 1, 69, 0
2, 7680, Note_on_c, 1, 67, 64
2, 7703, Note_on_c, 1, 67, 0
2, 7704, Note_on_c, 1, 66, 64
2, 7727, Note_on_c, 1, 66, 0
2, 7728, Note_on_c, 1, 67, 64
2, 7751, Note_on_c, 1, 67, 0
2, 7752, Note_on_c, 1, 64, 64
2, 7775, Note_on_c, 1, 64, 0
2, 7776, Note_on_c, 1, 66, 64
2, 7821, Note_on_c, 1, 66, 0
2, 7824, Note_on_c, 1, 78, 64
2, 7847, Note_on_c, 1, 78, 0
2, 7848, Note_on_c, 1, 79, 64
2, 7871, Note_on_c, 1, 79, 0
2, 7872, Note_on_c, 1, 81, 64
2, 7943, Note_on_c, 1, 81, 0
2, 7944, Note_on_c, 1, 83, 64
2, 7967, Note_on_c, 1, 83, 0
2, 7968, Note_on_c, 1, 81, 64
2, 7991, Note_on_c, 1, 81, 0
2, 7992, Note_on_c, 1, 79, 64
2, 8015, Note_on_c, 1, 79, 0
2, 8016, Note_on_c, 1, 81, 64
2, 8039, Note_on_c, 1, 81, 0
2, 8040, Note_on_c, 1, 78, 64
2, 8063, Note_on_c, 1, 78, 0
2, 8064, Note_on_c, 1, 79, 64
2, 8109, Note_on_c, 1, 79, 0
2, 8112, Note_on_c, 1, 67, 64
2, 8135, Note_on_c, 1, 67, 0
2, 8136, Note_on_c, 1, 66, 64
2, 8159, Note_on_c, 1, 66, 0
2, 8160, Note_on_c, 1, 67, 64
2, 8205, Note_on_c, 1, 67, 0
2, 8208, Note_on_c, 1, 67, 64
2, 8253, Note_on_c, 1, 67, 0
2, 8256, Note_on_c, 1, 77, 64
2, 8301, Note_on_c, 1, 77, 0
2, 8304, Note_on_c, 1, 71, 64
2, 8349, Note_on_c, 1, 71, 0
2, 8352, Note_on_c, 1, 72, 64
2, 8375, Note_on_c, 1, 72, 0
2, 8376, Note_on_c, 1, 71, 64
2, 8399, Note_on_c, 1, 71, 0
2, 8400, Note_on_c, 1, 72, 64
2, 8423, Note_on_c, 1, 72, 0
2, 8424, Note_on_c, 1, 74, 64
2, 8447, Note_on_c, 1, 74, 0
2, 8448, Note_on_c, 1, 76, 64
2, 8471, Note_on_c, 1, 76, 0
2, 8472, Note_on_c, 1, 69, 64
2, 8495, Note_on_c, 1, 69, 0
2, 8496, Note_on_c, 1, 71, 64
2, 8541, Note_on_c, 1, 71, 0
2, 8544, Note_on_c, 1, 72, 64
2, 8589, Note_on_c, 1, 72, 0
2, 8592, Note_on_c, 1, 69, 64
2, 8637, Note_on_c, 1, 69, 0
2, 8640, Note_on_c, 1, 67, 64
2, 8729, Note_on_c, 1, 67, 0
2, 8928, Note_on_c, 1, 79, 64
2, 8973, Note_on_c, 1, 79, 0
2, 8976, Note_on_c, 1, 81, 64
2, 8988, Note_on_c, 1, 81, 0
2, 8988, Note_on_c, 1, 79, 64
2, 9000, Note_on_c, 1, 79, 0
2, 9000, Note_on_c, 1, 78, 64
2, 9023, Note_on_c, 1, 78, 0
2, 9024, Note_on_c, 1, 79, 64
2, 9069, Note_on_c, 1, 79, 0
2, 9072, Note_on_c, 1, 67, 64
2, 9095, Note_on_c, 1, 67, 0
2, 9096, Note_on_c, 1, 69, 64
2, 9119, Note_on_c, 1, 69, 0
2, 9120, Note_on_c, 1, 69, 64
2, 9132, Note_on_c, 1, 69, 0
2, 9132, Note_on_c, 1, 71, 64
2, 9144, Note_on_c, 1, 71, 0
2, 9144, Note_on_c, 1, 69, 64
2, 9156, Note_on_c, 1, 69, 0
2, 9156, Note_on_c, 1, 71, 64
2, 9168, Note_on_c, 1, 71, 0
2, 9168, Note_on_c, 1, 69, 64
2, 9180, Note_on_c, 1, 69, 0
2, 9180, Note_on_c, 1, 71, 64
2, 9192, Note_on_c, 1, 71, 0
2, 9192, Note_on_c, 1, 67, 64
2, 9204, Note_on_c, 1, 67, 0
2, 9204, Note_on_c, 1, 69, 64
2, 9216, Note_on_c, 1, 69, 0
2, 9216, Note_on_c, 1, 71, 64
2, 9239, Note_on_c, 1, 71, 0
2, 9240, Note_on_c, 1, 74, 64
2, 9263, Note_on_c, 1, 74, 0
2, 9264, Note_on_c, 1, 72, 64
2, 9287, Note_on_c, 1, 72, 0
2, 9288, Note_on_c, 1, 71, 64
2, 9311, Note_on_c, 1, 71, 0
2, 9312, Note_on_c, 1, 69, 64
2, 9335, Note_on_c, 1, 69, 0
2, 9336, Note_on_c, 1, 67, 64
2, 9359, Note_on_c, 1, 67, 0
2, 9360, Note_on_c, 1, 66, 64
2, 9383, Note_on_c, 1, 66, 0
2, 9384, Note_on_c, 1, 64, 64
2, 9407, Note_on_c, 1, 64, 0
2, 9408, Note_on_c, 1, 62, 64
2, 9431, Note_on_c, 1, 62, 0
2, 9432, Note_on_c, 1, 60, 64
2, 9455, Note_on_c, 1, 60, 0
2, 9456, Note_on_c, 1, 59, 64
2, 9479, Note_on_c, 1, 59, 0
2, 9480, Note_on_c, 1, 57, 64
2, 9503, Note_on_c, 1, 57, 0
2, 9504, Note_on_c, 1, 55, 64
2, 9549, Note_on_c, 1, 55, 0
2, 9792, Note_on_c, 1, 74, 64
2, 9837, Note_on_c, 1, 74, 0
2, 9840, Note_on_c, 1, 76, 64
2, 9852, Note_on_c, 1, 76, 0
2, 9852, Note_on_c, 1, 74, 64
2, 9864, Note_on_c, 1, 74, 0
2, 9864, Note_on_c, 1, 73, 64
2, 9887, Note_on_c, 1, 73, 0
2, 9888, Note_on_c, 1, 74, 64
2, 9933, Note_on_c, 1, 74, 0
2, 9936, Note_on_c, 1, 62, 64
2, 9959, Note_on_c, 1, 62, 0
2, 9960, Note_on_c, 1, 64, 64
2, 9983, Note_on_c, 1, 64, 0
2, 9984, Note_on_c, 1, 64, 64
2, 9996, Note_on_c, 1, 64, 0
2, 9996, Note_on_c, 1, 66, 64
2, 10008, Note_on_c, 1, 66, 0
2, 10008, Note_on_c, 1, 64, 64
2, 10020, Note_on_c, 1, 64, 0
2, 10020, Note_on_c, 1, 66, 64
2, 10032, Note_on_c, 1, 66, 0
2, 10032, Note_on_c, 1, 64, 64
2, 10044, Note_on_c, 1, 64, 0
2, 10044, Note_on_c, 1, 66, 64
2, 10056, Note_on_c, 1, 66, 0
2, 10056, Note_on_c, 1, 62, 64
2, 10068, Note_on_c, 1, 62, 0
2, 10068, Note_on_c, 1, 64, 64
2, 10080, Note_on_c, 1, 64, 0
2, 10080, Note_on_c, 1, 66, 64
2, 10125, Note_on_c, 1, 66, 0
2, 10128, Note_on_c, 1, 67, 64
2, 10140, Note_on_c, 1, 67, 0
2, 10140, Note_on_c, 1, 66, 64
2, 10152, Note_on_c, 1, 66, 0
2, 10152, Note_on_c, 1, 64, 64
2, 10175, Note_on_c, 1, 64, 0
2, 10176, Note_on_c, 1, 66, 64
2, 10199, Note_on_c, 1, 66, 0
2, 10200, Note_on_c, 1, 67, 64
2, 10223, Note_on_c, 1, 67, 0
2, 10224, Note_on_c, 1, 66, 64
2, 10247, Note_on_c, 1, 66, 0
2, 10248, Note_on_c, 1, 67, 64
2, 10271, Note_on_c, 1, 67, 0
2, 10272, Note_on_c, 1, 67, 64
2, 10284, Note_on_c, 1, 67, 0
2, 10284, Note_on_c, 1, 69, 64
2, 10296, Note_on_c, 1, 69, 0
2, 10296, Note_on_c, 1, 67, 64
2, 10308, Note_on_c, 1, 67, 0
2, 10308, Note_on_c, 1, 69, 64
2, 10320, Note_on_c, 1, 69, 0
2, 10320, Note_on_c, 1, 67, 64
2, 10332, Note_on_c, 1, 67, 0
2, 10332, Note_on_c, 1, 69, 64
2, 10344, Note_on_c, 1, 69, 0
2, 10344, Note_on_c, 1, 66, 64
2, 10356, Note_on_c, 1, 66, 0
2, 10356, Note_on_c, 1, 67, 64
2, 10368, Note_on_c, 1, 67, 0
2, 10368, Note_on_c, 1, 69, 64
2, 10633, Note_on_c, 1, 69, 0
2, 10656, Note_on_c, 1, 69, 64
2, 10679, Note_on_c, 1, 69, 0
2, 10680, Note_on_c, 1, 62, 64
2, 10703, Note_on_c, 1, 62, 0
2, 10704, Note_on_c, 1, 64, 64
2, 10727, Note_on_c, 1, 64, 0
2, 10728, Note_on_c, 1, 66, 64
2, 10751, Note_on_c, 1, 66, 0
2, 10752, Note_on_c, 1, 67, 64
2, 10775, Note_on_c, 1, 67, 0
2, 10776, Note_on_c, 1, 69, 64
2, 10799, Note_on_c, 1, 69, 0
2, 10800, Note_on_c, 1, 71, 64
2, 10823, Note_on_c, 1, 71, 0
2, 10824, Note_on_c, 1, 73, 64
2, 10847, Note_on_c, 1, 73, 0
2, 10848, Note_on_c, 1, 74, 64
2, 10871, Note_on_c, 1, 74, 0
2, 10872, Note_on_c, 1, 76, 64
2, 10895, Note_on_c, 1, 76, 0
2, 10896, Note_on_c, 1, 78, 64
2, 10919, Note_on_c, 1, 78, 0
2, 10920, Note_on_c, 1, 79, 64
2, 10943, Note_on_c, 1, 79, 0
2, 10944, Note_on_c, 1, 73, 64
2, 11033, Note_on_c, 1, 73, 0
2, 11040, Note_on_c, 1, 76, 64
2, 11085, Note_on_c, 1, 76, 0
2, 11088, Note_on_c, 1, 69, 64
2, 11177, Note_on_c, 1, 69, 0
2, 11184, Note_on_c, 1, 73, 64
2, 11229, Note_on_c, 1, 73, 0
2, 11232, Note_on_c, 1, 62, 64
2, 11255, Note_on_c, 1, 62, 0
2, 11256, Note_on_c, 1, 64, 64
2, 11279, Note_on_c, 1, 64, 0
2, 11280, Note_on_c, 1, 66, 64
2, 11303, Note_on_c, 1, 66, 0
2, 11304, Note_on_c, 1, 67, 64
2, 11327, Note_on_c, 1, 67, 0
2, 11328, Note_on_c, 1, 66, 64
2, 11351, Note_on_c, 1, 66, 0
2, 11352, Note_on_c, 1, 64, 64
2, 11375, Note_on_c, 1, 64, 0
2, 11376, Note_on_c, 1, 66, 64
2, 11399, Note_on_c, 1, 66, 0
2, 11400, Note_on_c, 1, 62, 64
2, 11423, Note_on_c, 1, 62, 0
2, 11424, Note_on_c, 1, 64, 64
2, 11447, Note_on_c, 1, 64, 0
2, 11448, Note_on_c, 1, 66, 64
2, 11471, Note_on_c, 1, 66, 0
2, 11472, Note_on_c, 1, 67, 64
2, 11495, Note_on_c, 1, 67, 0
2, 11496, Note_on_c, 1, 69, 64
2, 11519, Note_on_c, 1, 69, 0
2, 11520, Note_on_c, 1, 71, 64
2, 11609, Note_on_c, 1, 71, 0
2, 11616, Note_on_c, 1, 74, 64
2, 11661, Note_on_c, 1, 74, 0
2, 11664, Note_on_c, 1, 79, 64
2, 11753, Note_on_c, 1, 79, 0
2, 11760, Note_on_c, 1, 83, 64
2, 11853, Note_on_c, 1, 83, 0
2, 11856, Note_on_c, 1, 81, 64
2, 11879, Note_on_c, 1, 81, 0
2, 11880, Note_on_c, 1, 79, 64
2, 11903, Note_on_c, 1, 79, 0
2, 11904, Note_on_c, 1, 78, 64
2, 11927, Note_on_c, 1, 78, 0
2, 11928, Note_on_c, 1, 76, 64
2, 11951, Note_on_c, 1, 76, 0
2, 11952, Note_on_c, 1, 74, 64
2, 11997, Note_on_c, 1, 74, 0
2, 12000, Note_on_c, 1, 79, 64
2, 12141, Note_on_c, 1, 79, 0
2, 12144, Note_on_c, 1, 78, 64
2, 12167, Note_on_c, 1, 78, 0
2, 12168, Note_on_c, 1, 76, 64
2, 12191, Note_on_c, 1, 76, 0
2, 12192, Note_on_c, 1, 74, 64
2, 12215, Note_on_c, 1, 74, 0
2, 12216, Note_on_c, 1, 72, 64
2, 12239, Note_on_c, 1, 72, 0
2, 12240, Note_on_c, 1, 71, 64
2, 12285, Note_on_c, 1, 71, 0
2, 12288, Note_on_c, 1, 76, 64
2, 12429, Note_on_c, 1, 76, 0
2, 12432, Note_on_c, 1, 75, 64
2, 12477, Note_on_c, 1, 75, 0
2, 12480, Note_on_c, 1, 72, 64
2, 12551, Note_on_c, 1, 72, 0
2, 12552, Note_on_c, 1, 71, 64
2, 12575, Note_on_c, 1, 71, 0
2, 12576, Note_on_c, 1, 69, 64
2, 12599, Note_on_c, 1, 69, 0
2, 12600, Note_on_c, 1, 67, 64
2, 12623, Note_on_c, 1, 67, 0
2, 12624, Note_on_c, 1, 69, 64
2, 12647, Note_on_c, 1, 69, 0
2, 12648, Note_on_c, 1, 66, 64
2, 12671, Note_on_c, 1, 66, 0
2, 12672, Note_on_c, 1, 67, 64
2, 12717, Note_on_c, 1, 67, 0
2, 12720, Note_on_c, 1, 64, 64
2, 12765, Note_on_c, 1, 64, 0
2, 12768, Note_on_c, 1, 71, 64
2, 12813, Note_on_c, 1, 71, 0
2, 12816, Note_on_c, 1, 71, 64
2, 12839, Note_on_c, 1, 71, 0
2, 12840, Note_on_c, 1, 72, 64
2, 12863, Note_on_c, 1, 72, 0
2, 12864, Note_on_c, 1, 71, 64
2, 12887, Note_on_c, 1, 71, 0
2, 12888, Note_on_c, 1, 69, 64
2, 12911, Note_on_c, 1, 69, 0
2, 12912, Note_on_c, 1, 71, 64
2, 12935, Note_on_c, 1, 71, 0
2, 12936, Note_on_c, 1, 67, 64
2, 12959, Note_on_c, 1, 67, 0
2, 12960, Note_on_c, 1, 69, 64
2, 13005, Note_on_c, 1, 69, 0
2, 13008, Note_on_c, 1, 66, 64
2, 13053, Note_on_c, 1, 66, 0
2, 13056, Note_on_c, 1, 72, 64
2, 13127, Note_on_c, 1, 72, 0
2, 13128, Note_on_c, 1, 74, 64
2, 13151, Note_on_c, 1, 74, 0
2, 13152, Note_on_c, 1, 72, 64
2, 13175, Note_on_c, 1, 72, 0
2, 13176, Note_on_c, 1, 71, 64
2, 13199, Note_on_c, 1, 71, 0
2, 13200, Note_on_c, 1, 72, 64
2, 13223, Note_on_c, 1, 72, 0
2, 13224, Note_on_c, 1, 69, 64
2, 13247, Note_on_c, 1, 69, 0
2, 13248, Note_on_c, 1, 71, 64
2, 13293, Note_on_c, 1, 71, 0
2, 13296, Note_on_c, 1, 62, 64
2, 13341, Note_on_c, 1, 62, 0
2, 13344, Note_on_c, 1, 71, 64
2, 13415, Note_on_c, 1, 71, 0
2, 13416, Note_on_c, 1, 72, 64
2, 13439, Note_on_c, 1, 72, 0
2, 13440, Note_on_c, 1, 71, 64
2, 13463, Note_on_c, 1, 71, 0
2, 13464, Note_on_c, 1, 69, 64
2, 13487, Note_on_c, 1, 69, 0
2, 13488, Note_on_c, 1, 71, 64
2, 13511, Note_on_c, 1, 71, 0
2, 13512, Note_on_c, 1, 67, 64
2, 13535, Note_on_c, 1, 67, 0
2, 13536, Note_on_c, 1, 69, 64
2, 13581, Note_on_c, 1, 69, 0
2, 13584, Note_on_c, 1, 64, 64
2, 13629, Note_on_c, 1, 64, 0
2, 13632, Note_on_c, 1, 69, 64
2, 13703, Note_on_c, 1, 69, 0
2, 13704, Note_on_c, 1, 71, 64
2, 13727, Note_on_c, 1, 71, 0
2, 13728, Note_on_c, 1, 69, 64
2, 13751, Note_on_c, 1, 69, 0
2, 13752, Note_on_c, 1, 67, 64
2, 13775, Note_on_c, 1, 67, 0
2, 13776, Note_on_c, 1, 69, 64
2, 13799, Note_on_c, 1, 69, 0
2, 13800, Note_on_c, 1, 66, 64
2, 13823, Note_on_c, 1, 66, 0
2, 13824, Note_on_c, 1, 67, 64
2, 13847, Note_on_c, 1, 67, 0
2, 13848, Note_on_c, 1, 69, 64
2, 13871, Note_on_c, 1, 69, 0
2, 13872, Note_on_c, 1, 67, 64
2, 13895, Note_on_c, 1, 67, 0
2, 13896, Note_on_c, 1, 66, 64
2, 13919, Note_on_c, 1, 66, 0
2, 13920, Note_on_c, 1, 67, 64
2, 13943, Note_on_c, 1, 67, 0
2, 13944, Note_on_c, 1, 64, 64
2, 13967, Note_on_c, 1, 64, 0
2, 13968, Note_on_c, 1, 69, 64
2, 13991, Note_on_c, 1, 69, 0
2, 13992, Note_on_c, 1, 71, 64
2, 14015, Note_on_c, 1, 71, 0
2, 14016, Note_on_c, 1, 69, 64
2, 14039, Note_on_c, 1, 69, 0
2, 14040, Note_on_c, 1, 67, 64
2, 14063, Note_on_c, 1, 67, 0
2, 14064, Note_on_c, 1, 69, 64
2, 14087, Note_on_c, 1, 69, 0
2, 14088, Note_on_c, 1, 66, 64
2, 14111, Note_on_c, 1, 66, 0
2, 14112, Note_on_c, 1, 71, 64
2, 14135, Note_on_c, 1, 71, 0
2, 14136, Note_on_c, 1, 72, 64
2, 14159, Note_on_c, 1, 72, 0
2, 14160, Note_on_c, 1, 71, 64
2, 14183, Note_on_c, 1, 71, 0
2, 14184, Note_on_c, 1, 69, 64
2, 14207, Note_on_c, 1, 69, 0
2, 14208, Note_on_c, 1, 71, 64
2, 14231, Note_on_c, 1, 71, 0
2, 14232, Note_on_c, 1, 67, 64
2, 14255, Note_on_c, 1, 67, 0
2, 14256, Note_on_c, 1, 76, 64
2, 14301, Note_on_c, 1, 76, 0
2, 14304, Note_on_c, 1, 69, 64
2, 14349, Note_on_c, 1, 69, 0
2, 14352, Note_on_c, 1, 81, 64
2, 14445, Note_on_c, 1, 81, 0
2, 14448, Note_on_c, 1, 79, 64
2, 14471, Note_on_c, 1, 79, 0
2, 14472, Note_on_c, 1, 78, 64
2, 14495, Note_on_c, 1, 78, 0
2, 14496, Note_on_c, 1, 79, 64
2, 14589, Note_on_c, 1, 79, 0
2, 14592, Note_on_c, 1, 78, 64
2, 14615, Note_on_c, 1, 78, 0
2, 14616, Note_on_c, 1, 76, 64
2, 14639, Note_on_c, 1, 76, 0
2, 14640, Note_on_c, 1, 75, 64
2, 14663, Note_on_c, 1, 75, 0
2, 14664, Note_on_c, 1, 73, 64
2, 14687, Note_on_c, 1, 73, 0
2, 14688, Note_on_c, 1, 75, 64
2, 14733, Note_on_c, 1, 75, 0
2, 14736, Note_on_c, 1, 71, 64
2, 14781, Note_on_c, 1, 71, 0
2, 14784, Note_on_c, 1, 76, 64
2, 14855, Note_on_c, 1, 76, 0
2, 14856, Note_on_c, 1, 78, 64
2, 14879, Note_on_c, 1, 78, 0
2, 14880, Note_on_c, 1, 78, 64
2, 14892, Note_on_c, 1, 78, 0
2, 14892, Note_on_c, 1, 79, 64
2, 14904, Note_on_c, 1, 79, 0
2, 14904, Note_on_c, 1, 78, 64
2, 14916, Note_on_c, 1, 78, 0
2, 14916, Note_on_c, 1, 79, 64
2, 14928, Note_on_c, 1, 79, 0
2, 14928, Note_on_c, 1, 78, 64
2, 14940, Note_on_c, 1, 78, 0
2, 14940, Note_on_c, 1, 79, 64
2, 14952, Note_on_c, 1, 79, 0
2, 14952, Note_on_c, 1, 76, 64
2, 14975, Note_on_c, 1, 76, 0
2, 14976, Note_on_c, 1, 76, 64
2, 15021, Note_on_c, 1, 76, 0
2, 15024, Note_on_c, 1, 78, 64
2, 15036, Note_on_c, 1, 78, 0
2, 15036, Note_on_c, 1, 76, 64
2, 15048, Note_on_c, 1, 76, 0
2, 15048, Note_on_c, 1, 75, 64
2, 15071, Note_on_c, 1, 75, 0
2, 15072, Note_on_c, 1, 76, 64
2, 15117, Note_on_c, 1, 76, 0
2, 15120, Note_on_c, 1, 64, 64
2, 15143, Note_on_c, 1, 64, 0
2, 15144, Note_on_c, 1, 66, 64
2, 15167, Note_on_c, 1, 66, 0
2, 15168, Note_on_c, 1, 66, 64
2, 15180, Note_on_c, 1, 66, 0
2, 15180, Note_on_c, 1, 67, 64
2, 15192, Note_on_c, 1, 67, 0
2, 15192, Note_on_c, 1, 66, 64
2, 15204, Note_on_c, 1, 66, 0
2, 15204, Note_on_c, 1, 67, 64
2, 15216, Note_on_c, 1, 67, 0
2, 15216, Note_on_c, 1, 66, 64
2, 15228, Note_on_c, 1, 66, 0
2, 15228, Note_on_c, 1, 67, 64
2, 15240, Note_on_c, 1, 67, 0
2, 15240, Note_on_c, 1, 64, 64
2, 15252, Note_on_c, 1, 64, 0
2, 15252, Note_on_c, 1, 66, 64
2, 15264, Note_on_c, 1, 66, 0
2, 15264, Note_on_c, 1, 67, 64
2, 15309, Note_on_c, 1, 67, 0
2, 15312, Note_on_c, 1, 69, 64
2, 15324, Note_on_c, 1, 69, 0
2, 15324, Note_on_c, 1, 67, 64
2, 15336, Note_on_c, 1, 67, 0
2, 15336, Note_on_c, 1, 66, 64
2, 15359, Note_on_c, 1, 66, 0
2, 15360, Note_on_c, 1, 67, 64
2, 15383, Note_on_c, 1, 67, 0
2, 15384, Note_on_c, 1, 69, 64
2, 15407, Note_on_c, 1, 69, 0
2, 15408, Note_on_c, 1, 67, 64
2, 15431, Note_on_c, 1, 67, 0
2, 15432, Note_on_c, 1, 69, 64
2, 15455, Note_on_c, 1, 69, 0
2, 15456, Note_on_c, 1, 69, 64
2, 15468, Note_on_c, 1, 69, 0
2, 15468, Note_on_c, 1, 71, 64
2, 15480, Note_on_c, 1, 71, 0
2, 15480, Note_on_c, 1, 69, 64
2, 15492, Note_on_c, 1, 69, 0
2, 15492, Note_on_c, 1, 71, 64
2, 15504, Note_on_c, 1, 71, 0
2, 15504, Note_on_c, 1, 69, 64
2, 15516, Note_on_c, 1, 69, 0
2, 15516, Note_on_c, 1, 71, 64
2, 15528, Note_on_c, 1, 71, 0
2, 15528, Note_on_c, 1, 67, 64
2, 15540, Note_on_c, 1, 67, 0
2, 15540, Note_on_c, 1, 69, 64
2, 15552, Note_on_c, 1, 69, 0
2, 15552, Note_on_c, 1, 71, 64
2, 15863, Note_on_c, 1, 71, 0
2, 15864, Note_on_c, 1, 64, 64
2, 15887, Note_on_c, 1, 64, 0
2, 15888, Note_on_c, 1, 66, 64
2, 15911, Note_on_c, 1, 66, 0
2, 15912, Note_on_c, 1, 67, 64
2, 15935, Note_on_c, 1, 67, 0
2, 15936, Note_on_c, 1, 69, 64
2, 15959, Note_on_c, 1, 69, 0
2, 15960, Note_on_c, 1, 71, 64
2, 15983, Note_on_c, 1, 71, 0
2, 15984, Note_on_c, 1, 72, 64
2, 16007, Note_on_c, 1, 72, 0
2, 16008, Note_on_c, 1, 74, 64
2, 16031, Note_on_c, 1, 74, 0
2, 16032, Note_on_c, 1, 76, 64
2, 16055, Note_on_c, 1, 76, 0
2, 16056, Note_on_c, 1, 78, 64
2, 16079, Note_on_c, 1, 78, 0
2, 16080, Note_on_c, 1, 79, 64
2, 16103, Note_on_c, 1, 79, 0
2, 16104, Note_on_c, 1, 81, 64
2, 16127, Note_on_c, 1, 81, 0
2, 16128, Note_on_c, 1, 74, 64
2, 16261, Note_on_c, 1, 74, 0
2, 16416, Note_on_c, 1, 74, 64
2, 16461, Note_on_c, 1, 74, 0
2, 16464, Note_on_c, 1, 76, 64
2, 16476, Note_on_c, 1, 76, 0
2, 16476, Note_on_c, 1, 74, 64
2, 16488, Note_on_c, 1, 74, 0
2, 16488, Note_on_c, 1, 73, 64
2, 16511, Note_on_c, 1, 73, 0
2, 16512, Note_on_c, 1, 74, 64
2, 16557, Note_on_c, 1, 74, 0
2, 16560, Note_on_c, 1, 62, 64
2, 16583, Note_on_c, 1, 62, 0
2, 16584, Note_on_c, 1, 64, 64
2, 16607, Note_on_c, 1, 64, 0
2, 16608, Note_on_c, 1, 64, 64
2, 16620, Note_on_c, 1, 64, 0
2, 16620, Note_on_c, 1, 66, 64
2, 16632, Note_on_c, 1, 66, 0
2, 16632, Note_on_c, 1, 64, 64
2, 16644, Note_on_c, 1, 64, 0
2, 16644, Note_on_c, 1, 66, 64
2, 16656, Note_on_c, 1, 66, 0
2, 16656, Note_on_c, 1, 64, 64
2, 16668, Note_on_c, 1, 64, 0
2, 16668, Note_on_c, 1, 66, 64
2, 16680, Note_on_c, 1, 66, 0
2, 16680, Note_on_c, 1, 62, 64
2, 16692, Note_on_c, 1, 62, 0
2, 16692, Note_on_c, 1, 64, 64
2, 16704, Note_on_c, 1, 64, 0
2, 16704, Note_on_c, 1, 66, 64
2, 16727, Note_on_c, 1, 66, 0
2, 16728, Note_on_c, 1, 78, 64
2, 16751, Note_on_c, 1, 78, 0
2, 16752, Note_on_c, 1, 76, 64
2, 16775, Note_on_c, 1, 76, 0
2, 16776, Note_on_c, 1, 74, 64
2, 16799, Note_on_c, 1, 74, 0
2, 16800, Note_on_c, 1, 73, 64
2, 16823, Note_on_c, 1, 73, 0
2, 16824, Note_on_c, 1, 71, 64
2, 16847, Note_on_c, 1, 71, 0
2, 16848, Note_on_c, 1, 70, 64
2, 16871, Note_on_c, 1, 70, 0
2, 16872, Note_on_c, 1, 68, 64
2, 16895, Note_on_c, 1, 68, 0
2, 16896, Note_on_c, 1, 66, 64
2, 16919, Note_on_c, 1, 66, 0
2, 16920, Note_on_c, 1, 64, 64
2, 16943, Note_on_c, 1, 64, 0
2, 16944, Note_on_c, 1, 62, 64
2, 16967, Note_on_c, 1, 62, 0
2, 16968, Note_on_c, 1, 61, 64
2, 16991, Note_on_c, 1, 61, 0
2, 16992, Note_on_c, 1, 59, 64
2, 17037, Note_on_c, 1, 59, 0
2, 17280, Note_on_c, 1, 66, 64
2, 17303, Note_on_c, 1, 66, 0
2, 17304, Note_on_c, 1, 68, 64
2, 17327, Note_on_c, 1, 68, 0
2, 17328, Note_on_c, 1, 70, 64
2, 17351, Note_on_c, 1, 70, 0
2, 17352, Note_on_c, 1, 71, 64
2, 17375, Note_on_c, 1, 71, 0
2, 17376, Note_on_c, 1, 70, 64
2, 17399, Note_on_c, 1, 70, 0
2, 17400, Note_on_c, 1, 68, 64
2, 17423, Note_on_c, 1, 68, 0
2, 17424, Note_on_c, 1, 70, 64
2, 17447, Note_on_c, 1, 70, 0
2, 17448, Note_on_c, 1, 66, 64
2, 17471, Note_on_c, 1, 66, 0
2, 17472, Note_on_c, 1, 68, 64
2, 17495, Note_on_c, 1, 68, 0
2, 17496, Note_on_c, 1, 70, 64
2, 17519, Note_on_c, 1, 70, 0
2, 17520, Note_on_c, 1, 71, 64
2, 17543, Note_on_c, 1, 71, 0
2, 17544, Note_on_c, 1, 73, 64
2, 17567, Note_on_c, 1, 73, 0
2, 17568, Note_on_c, 1, 74, 64
2, 17613, Note_on_c, 1, 74, 0
2, 17712, Note_on_c, 1, 71, 64
2, 17757, Note_on_c, 1, 71, 0
2, 17856, Note_on_c, 1, 64, 64
2, 17879, Note_on_c, 1, 64, 0
2, 17880, Note_on_c, 1, 66, 64
2, 17903, Note_on_c, 1, 66, 0
2, 17904, Note_on_c, 1, 67, 64
2, 17927, Note_on_c, 1, 67, 0
2, 17928, Note_on_c, 1, 69, 64
2, 17951, Note_on_c, 1, 69, 0
2, 17952, Note_on_c, 1, 67, 64
2, 17975, Note_on_c, 1, 67, 0
2, 17976, Note_on_c, 1, 66, 64
2, 17999, Note_on_c, 1, 66, 0
2, 18000, Note_on_c, 1, 68, 64
2, 18023, Note_on_c, 1, 68, 0
2, 18024, Note_on_c, 1, 64, 64
2, 18047, Note_on_c, 1, 64, 0
2, 18048, Note_on_c, 1, 66, 64
2, 18071, Note_on_c, 1, 66, 0
2, 18072, Note_on_c, 1, 68, 64
2, 18095, Note_on_c, 1, 68, 0
2, 18096, Note_on_c, 1, 69, 64
2, 18119, Note_on_c, 1, 69, 0
2, 18120, Note_on_c, 1, 71, 64
2, 18143, Note_on_c, 1, 71, 0
2, 18144, Note_on_c, 1, 72, 64
2, 18189, Note_on_c, 1, 72, 0
2, 18288, Note_on_c, 1, 69, 64
2, 18333, Note_on_c, 1, 69, 0
2, 18432, Note_on_c, 1, 62, 64
2, 18455, Note_on_c, 1, 62, 0
2, 18456, Note_on_c, 1, 64, 64
2, 18479, Note_on_c, 1, 64, 0
2, 18480, Note_on_c, 1, 66, 64
2, 18503, Note_on_c, 1, 66, 0
2, 18504, Note_on_c, 1, 67, 64
2, 18527, Note_on_c, 1, 67, 0
2, 18528, Note_on_c, 1, 66, 64
2, 18551, Note_on_c, 1, 66, 0
2, 18552, Note_on_c, 1, 64, 64
2, 18575, Note_on_c, 1, 64, 0
2, 18576, Note_on_c, 1, 66, 64
2, 18599, Note_on_c, 1, 66, 0
2, 18600, Note_on_c, 1, 62, 64
2, 18623, Note_on_c, 1, 62, 0
2, 18624, Note_on_c, 1, 64, 64
2, 18647, Note_on_c, 1, 64, 0
2, 18648, Note_on_c, 1, 66, 64
2, 18671, Note_on_c, 1, 66, 0
2, 18672, Note_on_c, 1, 67, 64
2, 18695, Note_on_c, 1, 67, 0
2, 18696, Note_on_c, 1, 69, 64
2, 18719, Note_on_c, 1, 69, 0
2, 18720, Note_on_c, 1, 71, 64
2, 18743, Note_on_c, 1, 71, 0
2, 18744, Note_on_c, 1, 72, 64
2, 18767, Note_on_c, 1, 72, 0
2, 18768, Note_on_c, 1, 74, 64
2, 18791, Note_on_c, 1, 74, 0
2, 18792, Note_on_c, 1, 76, 64
2, 18815, Note_on_c, 1, 76, 0
2, 18816, Note_on_c, 1, 74, 64
2, 18839, Note_on_c, 1, 74, 0
2, 18840, Note_on_c, 1, 72, 64
2, 18863, Note_on_c, 1, 72, 0
2, 18864, Note_on_c, 1, 74, 64
2, 18909, Note_on_c, 1, 74, 0
2, 18912, Note_on_c, 1, 86, 64
2, 19053, Note_on_c, 1, 86, 0
2, 19056, Note_on_c, 1, 74, 64
2, 19079, Note_on_c, 1, 74, 0
2, 19080, Note_on_c, 1, 72, 64
2, 19103, Note_on_c, 1, 72, 0
2, 19104, Note_on_c, 1, 74, 64
2, 19149, Note_on_c, 1, 74, 0
2, 19152, Note_on_c, 1, 74, 64
2, 19197, Note_on_c, 1, 74, 0
2, 19200, Note_on_c, 1, 86, 64
2, 19289, Note_on_c, 1, 86, 0
2, 19296, Note_on_c, 1, 84, 64
2, 19341, Note_on_c, 1, 84, 0
2, 19344, Note_on_c, 1, 72, 64
2, 19367, Note_on_c, 1, 72, 0
2, 19368, Note_on_c, 1, 71, 64
2, 19391, Note_on_c, 1, 71, 0
2, 19392, Note_on_c, 1, 72, 64
2, 19437, Note_on_c, 1, 72, 0
2, 19440, Note_on_c, 1, 72, 64
2, 19485, Note_on_c, 1, 72, 0
2, 19488, Note_on_c, 1, 84, 64
2, 19607, Note_on_c, 1, 84, 0
2, 19608, Note_on_c, 1, 86, 64
2, 19631, Note_on_c, 1, 86, 0
2, 19632, Note_on_c, 1, 84, 64
2, 19655, Note_on_c, 1, 84, 0
2, 19656, Note_on_c, 1, 83, 64
2, 19679, Note_on_c, 1, 83, 0
2, 19680, Note_on_c, 1, 84, 64
2, 19703, Note_on_c, 1, 84, 0
2, 19704, Note_on_c, 1, 81, 64
2, 19727, Note_on_c, 1, 81, 0
2, 19728, Note_on_c, 1, 83, 64
2, 19751, Note_on_c, 1, 83, 0
2, 19752, Note_on_c, 1, 84, 64
2, 19775, Note_on_c, 1, 84, 0
2, 19776, Note_on_c, 1, 83, 64
2, 19799, Note_on_c, 1, 83, 0
2, 19800, Note_on_c, 1, 81, 64
2, 19823, Note_on_c, 1, 81, 0
2, 19824, Note_on_c, 1, 83, 64
2, 19847, Note_on_c, 1, 83, 0
2, 19848, Note_on_c, 1, 79, 64
2, 19871, Note_on_c, 1, 79, 0
2, 19872, Note_on_c, 1, 81, 64
2, 19895, Note_on_c, 1, 81, 0
2, 19896, Note_on_c, 1, 83, 64
2, 19919, Note_on_c, 1, 83, 0
2, 19920, Note_on_c, 1, 81, 64
2, 19943, Note_on_c, 1, 81, 0
2, 19944, Note_on_c, 1, 79, 64
2, 19967, Note_on_c, 1, 79, 0
2, 19968, Note_on_c, 1, 81, 64
2, 19991, Note_on_c, 1, 81, 0
2, 19992, Note_on_c, 1, 78, 64
2, 20015, Note_on_c, 1, 78, 0
2, 20016, Note_on_c, 1, 79, 64
2, 20039, Note_on_c, 1, 79, 0
2, 20040, Note_on_c, 1, 81, 64
2, 20063, Note_on_c, 1, 81, 0
2, 20064, Note_on_c, 1, 79, 64
2, 20087, Note_on_c, 1, 79, 0
2, 20088, Note_on_c, 1, 78, 64
2, 20111, Note_on_c, 1, 78, 0
2, 20112, Note_on_c, 1, 79, 64
2, 20135, Note_on_c, 1, 79, 0
2, 20136, Note_on_c, 1, 76, 64
2, 20159, Note_on_c, 1, 76, 0
2, 20160, Note_on_c, 1, 78, 64
2, 20172, Note_on_c, 1, 78, 0
2, 20172, Note_on_c, 1, 79, 64
2, 20184, Note_on_c, 1, 79, 0
2, 20184, Note_on_c, 1, 78, 64
2, 20196, Note_on_c, 1, 78, 0
2, 20196, Note_on_c, 1, 79, 64
2, 20208, Note_on_c, 1, 79, 0
2, 20208, Note_on_c, 1, 78, 64
2, 20220, Note_on_c, 1, 78, 0
2, 20220, Note_on_c, 1, 79, 64
2, 20232, Note_on_c, 1, 79, 0
2, 20232, Note_on_c, 1, 78, 64
2, 20244, Note_on_c, 1, 78, 0
2, 20244, Note_on_c, 1, 79, 64
2, 20256, Note_on_c, 1, 79, 0
2, 20256, Note_on_c, 1, 78, 64
2, 20268, Note_on_c, 1, 78, 0
2, 20268, Note_on_c, 1, 79, 64
2, 20280, Note_on_c, 1, 79, 0
2, 20280, Note_on_c, 1, 78, 64
2, 20292, Note_on_c, 1, 78, 0
2, 20292, Note_on_c, 1, 79, 64
2, 20304, Note_on_c, 1, 79, 0
2, 20304, Note_on_c, 1, 78, 64
2, 20316, Note_on_c, 1, 78, 0
2, 21072, Note_on_c, 1, 74, 64
2, 21161, Note_on_c, 1, 74, 0
2, 21168, Note_on_c, 1, 74, 64
2, 21213, Note_on_c, 1, 74, 0
2, 21216, Note_on_c, 1, 72, 64
2, 21239, Note_on_c, 1, 72, 0
2, 21240, Note_on_c, 1, 71, 64
2, 21263, Note_on_c, 1, 71, 0
2, 21264, Note_on_c, 1, 69, 64
2, 21287, Note_on_c, 1, 69, 0
2, 21288, Note_on_c, 1, 67, 64
2, 21311, Note_on_c, 1, 67, 0
2, 21312, Note_on_c, 1, 72, 64
2, 21335, Note_on_c, 1, 72, 0
2, 21336, Note_on_c, 1, 71, 64
2, 21359, Note_on_c, 1, 71, 0
2, 21360, Note_on_c, 1, 72, 64
2, 21383, Note_on_c, 1, 72, 0
2, 21384, Note_on_c, 1, 74, 64
2, 21407, Note_on_c, 1, 74, 0
2, 21408, Note_on_c, 1, 76, 64
2, 21431, Note_on_c, 1, 76, 0
2, 21432, Note_on_c, 1, 72, 64
2, 21455, Note_on_c, 1, 72, 0
2, 21456, Note_on_c, 1, 74, 64
2, 21479, Note_on_c, 1, 74, 0
2, 21480, Note_on_c, 1, 72, 64
2, 21503, Note_on_c, 1, 72, 0
2, 21504, Note_on_c, 1, 74, 64
2, 21527, Note_on_c, 1, 74, 0
2, 21528, Note_on_c, 1, 76, 64
2, 21551, Note_on_c, 1, 76, 0
2, 21552, Note_on_c, 1, 77, 64
2, 21575, Note_on_c, 1, 77, 0
2, 21576, Note_on_c, 1, 74, 64
2, 21599, Note_on_c, 1, 74, 0
2, 21600, Note_on_c, 1, 76, 64
2, 21645, Note_on_c, 1, 76, 0
2, 21648, Note_on_c, 1, 77, 64
2, 21660, Note_on_c, 1, 77, 0
2, 21660, Note_on_c, 1, 76, 64
2, 21672, Note_on_c, 1, 76, 0
2, 21672, Note_on_c, 1, 74, 64
2, 21695, Note_on_c, 1, 74, 0
2, 21696, Note_on_c, 1, 76, 64
2, 21741, Note_on_c, 1, 76, 0
2, 21768, Note_on_c, 1, 74, 64
2, 21791, Note_on_c, 1, 74, 0
2, 21792, Note_on_c, 1, 72, 64
2, 21815, Note_on_c, 1, 72, 0
2, 21816, Note_on_c, 1, 71, 64
2, 21839, Note_on_c, 1, 71, 0
2, 21840, Note_on_c, 1, 72, 64
2, 21863, Note_on_c, 1, 72, 0
2, 21864, Note_on_c, 1, 69, 64
2, 21887, Note_on_c, 1, 69, 0
2, 21888, Note_on_c, 1, 71, 64
2, 21933, Note_on_c, 1, 71, 0
2, 21936, Note_on_c, 1, 84, 64
2, 21948, Note_on_c, 1, 84, 0
2, 21948, Note_on_c, 1, 83, 64
2, 21960, Note_on_c, 1, 83, 0
2, 21960, Note_on_c, 1, 81, 64
2, 21983, Note_on_c, 1, 81, 0
2, 21984, Note_on_c, 1, 83, 64
2, 22029, Note_on_c, 1, 83, 0
2, 22056, Note_on_c, 1, 76, 64
2, 22079, Note_on_c, 1, 76, 0
2, 22080, Note_on_c, 1, 74, 64
2, 22103, Note_on_c, 1, 74, 0
2, 22104, Note_on_c, 1, 72, 64
2, 22127, Note_on_c, 1, 72, 0
2, 22128, Note_on_c, 1, 74, 64
2, 22151, Note_on_c, 1, 74, 0
2, 22152, Note_on_c, 1, 71, 64
2, 22175, Note_on_c, 1, 71, 0
2, 22176, Note_on_c, 1, 72, 64
2, 22221, Note_on_c, 1, 72, 0
2, 22224, Note_on_c, 1, 74, 64
2, 22236, Note_on_c, 1, 74, 0
2, 22236, Note_on_c, 1, 72, 64
2, 22248, Note_on_c, 1, 72, 0
2, 22248, Note_on_c, 1, 71, 64
2, 22271, Note_on_c, 1, 71, 0
2, 22272, Note_on_c, 1, 72, 64
2, 22317, Note_on_c, 1, 72, 0
2, 22344, Note_on_c, 1, 71, 64
2, 22367, Note_on_c, 1, 71, 0
2, 22368, Note_on_c, 1, 69, 64
2, 22391, Note_on_c, 1, 69, 0
2, 22392, Note_on_c, 1, 67, 64
2, 22415, Note_on_c, 1, 67, 0
2, 22416, Note_on_c, 1, 69, 64
2, 22439, Note_on_c, 1, 69, 0
2, 22440, Note_on_c, 1, 66, 64
2, 22463, Note_on_c, 1, 66, 0
2, 22464, Note_on_c, 1, 67, 64
2, 22509, Note_on_c, 1, 67, 0
2, 22512, Note_on_c, 1, 81, 64
2, 22524, Note_on_c, 1, 81, 0
2, 22524, Note_on_c, 1, 79, 64
2, 22536, Note_on_c, 1, 79, 0
2, 22536, Note_on_c, 1, 78, 64
2, 22559, Note_on_c, 1, 78, 0
2, 22560, Note_on_c, 1, 79, 64
2, 22605, Note_on_c, 1, 79, 0
2, 22632, Note_on_c, 1, 72, 64
2, 22655, Note_on_c, 1, 72, 0
2, 22656, Note_on_c, 1, 71, 64
2, 22679, Note_on_c, 1, 71, 0
2, 22680, Note_on_c, 1, 69, 64
2, 22703, Note_on_c, 1, 69, 0
2, 22704, Note_on_c, 1, 71, 64
2, 22727, Note_on_c, 1, 71, 0
2, 22728, Note_on_c, 1, 67, 64
2, 22751, Note_on_c, 1, 67, 0
2, 22752, Note_on_c, 1, 69, 64
2, 22797, Note_on_c, 1, 69, 0
2, 22800, Note_on_c, 1, 62, 64
2, 22823, Note_on_c, 1, 62, 0
2, 22824, Note_on_c, 1, 64, 64
2, 22847, Note_on_c, 1, 64, 0
2, 22848, Note_on_c, 1, 62, 64
2, 22893, Note_on_c, 1, 62, 0
2, 22896, Note_on_c, 1, 69, 64
2, 22941, Note_on_c, 1, 69, 0
2, 22944, Note_on_c, 1, 60, 64
2, 22989, Note_on_c, 1, 60, 0
2, 22992, Note_on_c, 1, 60, 64
2, 23037, Note_on_c, 1, 60, 0
2, 23040, Note_on_c, 1, 60, 64
2, 23085, Note_on_c, 1, 60, 0
2, 23088, Note_on_c, 1, 66, 64
2, 23111, Note_on_c, 1, 66, 0
2, 23112, Note_on_c, 1, 67, 64
2, 23135, Note_on_c, 1, 67, 0
2, 23136, Note_on_c, 1, 66, 64
2, 23181, Note_on_c, 1, 66, 0
2, 23184, Note_on_c, 1, 78, 64
2, 23229, Note_on_c, 1, 78, 0
2, 23232, Note_on_c, 1, 67, 64
2, 23277, Note_on_c, 1, 67, 0
2, 23280, Note_on_c, 1, 67, 64
2, 23325, Note_on_c, 1, 67, 0
2, 23328, Note_on_c, 1, 76, 64
2, 23373, Note_on_c, 1, 76, 0
2, 23376, Note_on_c, 1, 61, 64
2, 23399, Note_on_c, 1, 61, 0
2, 23400, Note_on_c, 1, 62, 64
2, 23423, Note_on_c, 1, 62, 0
2, 23424, Note_on_c, 1, 61, 64
2, 23469, Note_on_c, 1, 61, 0
2, 23472, Note_on_c, 1, 67, 64
2, 23517, Note_on_c, 1, 67, 0
2, 23520, Note_on_c, 1, 61, 64
2, 23565, Note_on_c, 1, 61, 0
2, 23568, Note_on_c, 1, 61, 64
2, 23613, Note_on_c, 1, 61, 0
2, 23616, Note_on_c, 1, 61, 64
2, 23661, Note_on_c, 1, 61, 0
2, 23664, Note_on_c, 1, 66, 64
2, 23687, Note_on_c, 1, 66, 0
2, 23688, Note_on_c, 1, 67, 64
2, 23711, Note_on_c, 1, 67, 0
2, 23712, Note_on_c, 1, 66, 64
2, 23757, Note_on_c, 1, 66, 0
2, 23760, Note_on_c, 1, 76, 64
2, 23805, Note_on_c, 1, 76, 0
2, 23808, Note_on_c, 1, 66, 64
2, 23853, Note_on_c, 1, 66, 0
2, 23856, Note_on_c, 1, 66, 64
2, 23901, Note_on_c, 1, 66, 0
2, 23904, Note_on_c, 1, 74, 64
2, 23949, Note_on_c, 1, 74, 0
2, 23952, Note_on_c, 1, 78, 64
2, 23997, Note_on_c, 1, 78, 0
2, 24000, Note_on_c, 1, 83, 64
2, 24071, Note_on_c, 1, 83, 0
2, 24072, Note_on_c, 1, 81, 64
2, 24095, Note_on_c, 1, 81, 0
2, 24096, Note_on_c, 1, 79, 64
2, 24119, Note_on_c, 1, 79, 0
2, 24120, Note_on_c, 1, 78, 64
2, 24143, Note_on_c, 1, 78, 0
2, 24144, Note_on_c, 1, 79, 64
2, 24167, Note_on_c, 1, 79, 0
2, 24168, Note_on_c, 1, 76, 64
2, 24191, Note_on_c, 1, 76, 0
2, 24192, Note_on_c, 1, 81, 64
2, 24381, Note_on_c, 1, 81, 0
2, 24384, Note_on_c, 1, 79, 64
2, 24407, Note_on_c, 1, 79, 0
2, 24408, Note_on_c, 1, 78, 64
2, 24431, Note_on_c, 1, 78, 0
2, 24432, Note_on_c, 1, 76, 64
2, 24455, Note_on_c, 1, 76, 0
2, 24456, Note_on_c, 1, 74, 64
2, 24479, Note_on_c, 1, 74, 0
2, 24480, Note_on_c, 1, 73, 64
2, 24503, Note_on_c, 1, 73, 0
2, 24504, Note_on_c, 1, 71, 64
2, 24527, Note_on_c, 1, 71, 0
2, 24528, Note_on_c, 1, 73, 64
2, 24551, Note_on_c, 1, 73, 0
2, 24552, Note_on_c, 1, 70, 64
2, 24575, Note_on_c, 1, 70, 0
2, 24576, Note_on_c, 1, 71, 64
2, 24599, Note_on_c, 1, 71, 0
2, 24600, Note_on_c, 1, 74, 64
2, 24623, Note_on_c, 1, 74, 0
2, 24624, Note_on_c, 1, 64, 64
2, 24647, Note_on_c, 1, 64, 0
2, 24648, Note_on_c, 1, 66, 64
2, 24671, Note_on_c, 1, 66, 0
2, 24672, Note_on_c, 1, 67, 64
2, 24717, Note_on_c, 1, 67, 0
2, 24720, Note_on_c, 1, 61, 64
2, 24765, Note_on_c, 1, 61, 0
2, 24768, Note_on_c, 1, 66, 64
2, 24791, Note_on_c, 1, 66, 0
2, 24792, Note_on_c, 1, 70, 64
2, 24815, Note_on_c, 1, 70, 0
2, 24816, Note_on_c, 1, 71, 64
2, 24839, Note_on_c, 1, 71, 0
2, 24840, Note_on_c, 1, 73, 64
2, 24863, Note_on_c, 1, 73, 0
2, 24864, Note_on_c, 1, 74, 64
2, 24887, Note_on_c, 1, 74, 0
2, 24888, Note_on_c, 1, 71, 64
2, 24911, Note_on_c, 1, 71, 0
2, 24912, Note_on_c, 1, 79, 64
2, 24957, Note_on_c, 1, 79, 0
2, 24960, Note_on_c, 1, 70, 64
2, 25027, Note_on_c, 1, 70, 0
2, 25032, Note_on_c, 1, 71, 64
2, 25055, Note_on_c, 1, 71, 0
2, 25056, Note_on_c, 1, 71, 64
2, 25145, Note_on_c, 1, 71, 0
2, 25344, Note_on_c, 1, 55, 64
2, 25389, Note_on_c, 1, 55, 0
2, 25392, Note_on_c, 1, 67, 64
2, 25437, Note_on_c, 1, 67, 0
2, 25440, Note_on_c, 1, 67, 64
2, 25485, Note_on_c, 1, 67, 0
2, 25488, Note_on_c, 1, 57, 64
2, 25533, Note_on_c, 1, 57, 0
2, 25536, Note_on_c, 1, 67, 64
2, 25581, Note_on_c, 1, 67, 0
2, 25584, Note_on_c, 1, 67, 64
2, 25629, Note_on_c, 1, 67, 0
2, 25632, Note_on_c, 1, 59, 64
2, 25677, Note_on_c, 1, 59, 0
2, 25680, Note_on_c, 1, 67, 64
2, 25725, Note_on_c, 1, 67, 0
2, 25728, Note_on_c, 1, 67, 64
2, 25773, Note_on_c, 1, 67, 0
2, 25776, Note_on_c, 1, 60, 64
2, 25821, Note_on_c, 1, 60, 0
2, 25824, Note_on_c, 1, 69, 64
2, 25869, Note_on_c, 1, 69, 0
2, 25872, Note_on_c, 1, 64, 64
2, 25917, Note_on_c, 1, 64, 0
2, 25920, Note_on_c, 1, 66, 64
2, 25965, Note_on_c, 1, 66, 0
2, 25968, Note_on_c, 1, 62, 64
2, 26013, Note_on_c, 1, 62, 0
2, 26016, Note_on_c, 1, 67, 64
2, 26061, Note_on_c, 1, 67, 0
2, 26064, Note_on_c, 1, 64, 64
2, 26109, Note_on_c, 1, 64, 0
2, 26112, Note_on_c, 1, 60, 64
2, 26157, Note_on_c, 1, 60, 0
2, 26160, Note_on_c, 1, 62, 64
2, 26205, Note_on_c, 1, 62, 0
2, 26208, Note_on_c, 1, 55, 64
2, 26253, Note_on_c, 1, 55, 0
2, 26256, Note_on_c, 1, 74, 64
2, 26397, Note_on_c, 1, 74, 0
2, 26400, Note_on_c, 1, 72, 64
2, 26423, Note_on_c, 1, 72, 0
2, 26424, Note_on_c, 1, 71, 64
2, 26447, Note_on_c, 1, 71, 0
2, 26448, Note_on_c, 1, 69, 64
2, 26471, Note_on_c, 1, 69, 0
2, 26472, Note_on_c, 1, 67, 64
2, 26495, Note_on_c, 1, 67, 0
2, 26496, Note_on_c, 1, 66, 64
2, 26519, Note_on_c, 1, 66, 0
2, 26520, Note_on_c, 1, 67, 64
2, 26543, Note_on_c, 1, 67, 0
2, 26544, Note_on_c, 1, 66, 64
2, 26567, Note_on_c, 1, 66, 0
2, 26568, Note_on_c, 1, 64, 64
2, 26591, Note_on_c, 1, 64, 0
2, 26592, Note_on_c, 1, 66, 64
2, 26615, Note_on_c, 1, 66, 0
2, 26616, Note_on_c, 1, 62, 64
2, 26639, Note_on_c, 1, 62, 0
2, 26640, Note_on_c, 1, 67, 64
2, 26663, Note_on_c, 1, 67, 0
2, 26664, Note_on_c, 1, 69, 64
2, 26687, Note_on_c, 1, 69, 0
2, 26688, Note_on_c, 1, 67, 64
2, 26711, Note_on_c, 1, 67, 0
2, 26712, Note_on_c, 1, 66, 64
2, 26735, Note_on_c, 1, 66, 0
2, 26736, Note_on_c, 1, 67, 64
2, 26759, Note_on_c, 1, 67, 0
2, 26760, Note_on_c, 1, 64, 64
2, 26783, Note_on_c, 1, 64, 0
2, 26784, Note_on_c, 1, 69, 64
2, 26807, Note_on_c, 1, 69, 0
2, 26808, Note_on_c, 1, 71, 64
2, 26831, Note_on_c, 1, 71, 0
2, 26832, Note_on_c, 1, 69, 64
2, 26855, Note_on_c, 1, 69, 0
2, 26856, Note_on_c, 1, 67, 64
2, 26879, Note_on_c, 1, 67, 0
2, 26880, Note_on_c, 1, 69, 64
2, 26903, Note_on_c, 1, 69, 0
2, 26904, Note_on_c, 1, 66, 64
2, 26927, Note_on_c, 1, 66, 0
2, 26928, Note_on_c, 1, 71, 64
2, 26951, Note_on_c, 1, 71, 0
2, 26952, Note_on_c, 1, 72, 64
2, 26975, Note_on_c, 1, 72, 0
2, 26976, Note_on_c, 1, 71, 64
2, 26999, Note_on_c, 1, 71, 0
2, 27000, Note_on_c, 1, 69, 64
2, 27023, Note_on_c, 1, 69, 0
2, 27024, Note_on_c, 1, 71, 64
2, 27047, Note_on_c, 1, 71, 0
2, 27048, Note_on_c, 1, 67, 64
2, 27071, Note_on_c, 1, 67, 0
2, 27072, Note_on_c, 1, 69, 64
2, 27095, Note_on_c, 1, 69, 0
2, 27096, Note_on_c, 1, 71, 64
2, 27119, Note_on_c, 1, 71, 0
2, 27120, Note_on_c, 1, 69, 64
2, 27143, Note_on_c, 1, 69, 0
2, 27144, Note_on_c, 1, 67, 64
2, 27167, Note_on_c, 1, 67, 0
2, 27168, Note_on_c, 1, 69, 64
2, 27191, Note_on_c, 1, 69, 0
2, 27192, Note_on_c, 1, 66, 64
2, 27215, Note_on_c, 1, 66, 0
2, 27216, Note_on_c, 1, 67, 64
2, 27239, Note_on_c, 1, 67, 0
2, 27240, Note_on_c, 1, 69, 64
2, 27263, Note_on_c, 1, 69, 0
2, 27264, Note_on_c, 1, 67, 64
2, 27287, Note_on_c, 1, 67, 0
2, 27288, Note_on_c, 1, 66, 64
2, 27311, Note_on_c, 1, 66, 0
2, 27312, Note_on_c, 1, 67, 64
2, 27335, Note_on_c, 1, 67, 0
2, 27336, Note_on_c, 1, 64, 64
2, 27359, Note_on_c, 1, 64, 0
2, 27360, Note_on_c, 1, 66, 64
2, 27405, Note_on_c, 1, 66, 0
2, 27408, Note_on_c, 1, 62, 64
2, 27453, Note_on_c, 1, 62, 0
2, 27456, Note_on_c, 1, 67, 64
2, 27501, Note_on_c, 1, 67, 0
2, 27504, Note_on_c, 1, 72, 64
2, 27549, Note_on_c, 1, 72, 0
2, 27552, Note_on_c, 1, 69, 64
2, 27597, Note_on_c, 1, 69, 0
2, 27600, Note_on_c, 1, 78, 64
2, 27645, Note_on_c, 1, 78, 0
2, 27648, Note_on_c, 1, 79, 64
2, 27981, Note_on_c, 1, 79, 0
2, 27984, Note_on_c, 1, 74, 64
2, 28029, Note_on_c, 1, 74, 0
2, 28032, Note_on_c, 1, 71, 64
2, 28077, Note_on_c, 1, 71, 0
2, 28080, Note_on_c, 1, 67, 64
2, 28125, Note_on_c, 1, 67, 0
2, 28128, Note_on_c, 1, 72, 64
2, 28269, Note_on_c, 1, 72, 0
2, 28272, Note_on_c, 1, 71, 64
2, 28295, Note_on_c, 1, 71, 0
2, 28296, Note_on_c, 1, 69, 64
2, 28319, Note_on_c, 1, 69, 0
2, 28320, Note_on_c, 1, 71, 64
2, 28413, Note_on_c, 1, 71, 0
2, 28416, Note_on_c, 1, 69, 64
2, 28461, Note_on_c, 1, 69, 0
2, 28464, Note_on_c, 1, 78, 64
2, 28509, Note_on_c, 1, 78, 0
2, 28512, Note_on_c, 1, 67, 64
2, 28557, Note_on_c, 1, 67, 0
2, 28560, Note_on_c, 1, 83, 64
2, 28701, Note_on_c, 1, 83, 0
2, 28704, Note_on_c, 1, 81, 64
2, 28727, Note_on_c, 1, 81, 0
2, 28728, Note_on_c, 1, 79, 64
2, 28751, Note_on_c, 1, 79, 0
2, 28752, Note_on_c, 1, 78, 64
2, 28775, Note_on_c, 1, 78, 0
2, 28776, Note_on_c, 1, 76, 64
2, 28799, Note_on_c, 1, 76, 0
2, 28800, Note_on_c, 1, 74, 64
2, 28845, Note_on_c, 1, 74, 0
2, 28848, Note_on_c, 1, 86, 64
2, 28989, Note_on_c, 1, 86, 0
2, 28992, Note_on_c, 1, 84, 64
2, 29015, Note_on_c, 1, 84, 0
2, 29016, Note_on_c, 1, 83, 64
2, 29039, Note_on_c, 1, 83, 0
2, 29040, Note_on_c, 1, 81, 64
2, 29063, Note_on_c, 1, 81, 0
2, 29064, Note_on_c, 1, 79, 64
2, 29087, Note_on_c, 1, 79, 0
2, 29088, Note_on_c, 1, 78, 64
2, 29133, Note_on_c, 1, 78, 0
2, 29136, Note_on_c, 1, 74, 64
2, 29159, Note_on_c, 1, 74, 0
2, 29160, Note_on_c, 1, 76, 64
2, 29183, Note_on_c, 1, 76, 0
2, 29184, Note_on_c, 1, 74, 64
2, 29229, Note_on_c, 1, 74, 0
2, 29232, Note_on_c, 1, 81, 64
2, 29277, Note_on_c, 1, 81, 0
2, 29280, Note_on_c, 1, 74, 64
2, 29325, Note_on_c, 1, 74, 0
2, 29328, Note_on_c, 1, 74, 64
2, 29373, Note_on_c, 1, 74, 0
2, 29376, Note_on_c, 1, 86, 64
2, 29421, Note_on_c, 1, 86, 0
2, 29424, Note_on_c, 1, 67, 64
2, 29447, Note_on_c, 1, 67, 0
2, 29448, Note_on_c, 1, 69, 64
2, 29471, Note_on_c, 1, 69, 0
2, 29472, Note_on_c, 1, 67, 64
2, 29517, Note_on_c, 1, 67, 0
2, 29520, Note_on_c, 1, 77, 64
2, 29565, Note_on_c, 1, 77, 0
2, 29568, Note_on_c, 1, 67, 64
2, 29613, Note_on_c, 1, 67, 0
2, 29616, Note_on_c, 1, 67, 64
2, 29661, Note_on_c, 1, 67, 0
2, 29664, Note_on_c, 1, 60, 64
2, 29709, Note_on_c, 1, 60, 0
2, 29712, Note_on_c, 1, 72, 64
2, 29735, Note_on_c, 1, 72, 0
2, 29736, Note_on_c, 1, 74, 64
2, 29759, Note_on_c, 1, 74, 0
2, 29760, Note_on_c, 1, 72, 64
2, 29805, Note_on_c, 1, 72, 0
2, 29808, Note_on_c, 1, 79, 64
2, 29853, Note_on_c, 1, 79, 0
2, 29856, Note_on_c, 1, 72, 64
2, 29901, Note_on_c, 1, 72, 0
2, 29904, Note_on_c, 1, 72, 64
2, 29949, Note_on_c, 1, 72, 0
2, 29952, Note_on_c, 1, 84, 64
2, 29997, Note_on_c, 1, 84, 0
2, 30000, Note_on_c, 1, 66, 64
2, 30023, Note_on_c, 1, 66, 0
2, 30024, Note_on_c, 1, 67, 64
2, 30047, Note_on_c, 1, 67, 0
2, 30048, Note_on_c, 1, 66, 64
2, 30093, Note_on_c, 1, 66, 0
2, 30096, Note_on_c, 1, 76, 64
2, 30141, Note_on_c, 1, 76, 0
2, 30144, Note_on_c, 1, 66, 64
2, 30189, Note_on_c, 1, 66, 0
2, 30192, Note_on_c, 1, 66, 64
2, 30237, Note_on_c, 1, 66, 0
2, 30240, Note_on_c, 1, 59, 64
2, 30263, Note_on_c, 1, 59, 0
2, 30264, Note_on_c, 1, 60, 64
2, 30287, Note_on_c, 1, 60, 0
2, 30288, Note_on_c, 1, 62, 64
2, 30311, Note_on_c, 1, 62, 0
2, 30312, Note_on_c, 1, 64, 64
2, 30335, Note_on_c, 1, 64, 0
2, 30336, Note_on_c, 1, 62, 64
2, 30359, Note_on_c, 1, 62, 0
2, 30360, Note_on_c, 1, 60, 64
2, 30383, Note_on_c, 1, 60, 0
2, 30384, Note_on_c, 1, 62, 64
2, 30407, Note_on_c, 1, 62, 0
2, 30408, Note_on_c, 1, 59, 64
2, 30431, Note_on_c, 1, 59, 0
2, 30432, Note_on_c, 1, 60, 64
2, 30455, Note_on_c, 1, 60, 0
2, 30456, Note_on_c, 1, 62, 64
2, 30479, Note_on_c, 1, 62, 0
2, 30480, Note_on_c, 1, 64, 64
2, 30503, Note_on_c, 1, 64, 0
2, 30504, Note_on_c, 1, 66, 64
2, 30527, Note_on_c, 1, 66, 0
2, 30528, Note_on_c, 1, 67, 64
2, 30551, Note_on_c, 1, 67, 0
2, 30552, Note_on_c, 1, 69, 64
2, 30575, Note_on_c, 1, 69, 0
2, 30576, Note_on_c, 1, 71, 64
2, 30599, Note_on_c, 1, 71, 0
2, 30600, Note_on_c, 1, 72, 64
2, 30623, Note_on_c, 1, 72, 0
2, 30624, Note_on_c, 1, 71, 64
2, 30647, Note_on_c, 1, 71, 0
2, 30648, Note_on_c, 1, 69, 64
2, 30671, Note_on_c, 1, 69, 0
2, 30672, Note_on_c, 1, 71, 64
2, 30695, Note_on_c, 1, 71, 0
2, 30696, Note_on_c, 1, 67, 64
2, 30719, Note_on_c, 1, 67, 0
2, 30720, Note_on_c, 1, 69, 64
2, 30743, Note_on_c, 1, 69, 0
2, 30744, Note_on_c, 1, 71, 64
2, 30767, Note_on_c, 1, 71, 0
2, 30768, Note_on_c, 1, 72, 64
2, 30791, Note_on_c, 1, 72, 0
2, 30792, Note_on_c, 1, 74, 64
2, 30815, Note_on_c, 1, 74, 0
2, 30816, Note_on_c, 1, 76, 64
2, 30861, Note_on_c, 1, 76, 0
2, 30864, Note_on_c, 1, 69, 64
2, 30887, Note_on_c, 1, 69, 0
2, 30888, Note_on_c, 1, 68, 64
2, 30911, Note_on_c, 1, 68, 0
2, 30912, Note_on_c, 1, 69, 64
2, 30957, Note_on_c, 1, 69, 0
2, 30960, Note_on_c, 1, 81, 64
2, 31005, Note_on_c, 1, 81, 0
2, 31008, Note_on_c, 1, 57, 64
2, 31053, Note_on_c, 1, 57, 0
2, 31056, Note_on_c, 1, 57, 64
2, 31101, Note_on_c, 1, 57, 0
2, 31104, Note_on_c, 1, 62, 64
2, 31127, Note_on_c, 1, 62, 0
2, 31128, Note_on_c, 1, 64, 64
2, 31151, Note_on_c, 1, 64, 0
2, 31152, Note_on_c, 1, 66, 64
2, 31175, Note_on_c, 1, 66, 0
2, 31176, Note_on_c, 1, 67, 64
2, 31199, Note_on_c, 1, 67, 0
2, 31200, Note_on_c, 1, 66, 64
2, 31223, Note_on_c, 1, 66, 0
2, 31224, Note_on_c, 1, 64, 64
2, 31247, Note_on_c, 1, 64, 0
2, 31248, Note_on_c, 1, 66, 64
2, 31271, Note_on_c, 1, 66, 0
2, 31272, Note_on_c, 1, 62, 64
2, 31295, Note_on_c, 1, 62, 0
2, 31296, Note_on_c, 1, 64, 64
2, 31319, Note_on_c, 1, 64, 0
2, 31320, Note_on_c, 1, 66, 64
2, 31343, Note_on_c, 1, 66, 0
2, 31344, Note_on_c, 1, 67, 64
2, 31367, Note_on_c, 1, 67, 0
2, 31368, Note_on_c, 1, 69, 64
2, 31391, Note_on_c, 1, 69, 0
2, 31392, Note_on_c, 1, 71, 64
2, 31415, Note_on_c, 1, 71, 0
2, 31416, Note_on_c, 1, 72, 64
2, 31439, Note_on_c, 1, 72, 0
2, 31440, Note_on_c, 1, 71, 64
2, 31463, Note_on_c, 1, 71, 0
2, 31464, Note_on_c, 1, 69, 64
2, 31487, Note_on_c, 1, 69, 0
2, 31488, Note_on_c, 1, 71, 64
2, 31511, Note_on_c, 1, 71, 0
2, 31512, Note_on_c, 1, 67, 64
2, 31535, Note_on_c, 1, 67, 0
2, 31536, Note_on_c, 1, 69, 64
2, 31559, Note_on_c, 1, 69, 0
2, 31560, Note_on_c, 1, 71, 64
2, 31583, Note_on_c, 1, 71, 0
2, 31584, Note_on_c, 1, 69, 64
2, 31607, Note_on_c, 1, 69, 0
2, 31608, Note_on_c, 1, 67, 64
2, 31631, Note_on_c, 1, 67, 0
2, 31632, Note_on_c, 1, 69, 64
2, 31655, Note_on_c, 1, 69, 0
2, 31656, Note_on_c, 1, 66, 64
2, 31679, Note_on_c, 1, 66, 0
2, 31680, Note_on_c, 1, 67, 64
2, 31725, Note_on_c, 1, 67, 0
2, 31728, Note_on_c, 1, 79, 64
2, 31751, Note_on_c, 1, 79, 0
2, 31752, Note_on_c, 1, 78, 64
2, 31775, Note_on_c, 1, 78, 0
2, 31776, Note_on_c, 1, 79, 64
2, 31869, Note_on_c, 1, 79, 0
2, 31872, Note_on_c, 1, 78, 64
2, 31917, Note_on_c, 1, 78, 0
2, 31920, Note_on_c, 1, 66, 64
2, 32013, Note_on_c, 1, 66, 0
2, 32016, Note_on_c, 1, 64, 64
2, 32061, Note_on_c, 1, 64, 0
2, 32064, Note_on_c, 1, 71, 64
2, 32109, Note_on_c, 1, 71, 0
2, 32112, Note_on_c, 1, 69, 64
2, 32157, Note_on_c, 1, 69, 0
2, 32160, Note_on_c, 1, 74, 64
2, 32301, Note_on_c, 1, 74, 0
2, 32304, Note_on_c, 1, 72, 64
2, 32327, Note_on_c, 1, 72, 0
2, 32328, Note_on_c, 1, 71, 64
2, 32351, Note_on_c, 1, 71, 0
2, 32352, Note_on_c, 1, 69, 64
2, 32375, Note_on_c, 1, 69, 0
2, 32376, Note_on_c, 1, 67, 64
2, 32399, Note_on_c, 1, 67, 0
2, 32400, Note_on_c, 1, 66, 64
2, 32445, Note_on_c, 1, 66, 0
2, 32448, Note_on_c, 1, 71, 64
2, 32589, Note_on_c, 1, 71, 0
2, 32592, Note_on_c, 1, 69, 64
2, 32615, Note_on_c, 1, 69, 0
2, 32616, Note_on_c, 1, 67, 64
2, 32639, Note_on_c, 1, 67, 0
2, 32640, Note_on_c, 1, 66, 64
2, 32663, Note_on_c, 1, 66, 0
2, 32664, Note_on_c, 1, 64, 64
2, 32687, Note_on_c, 1, 64, 0
2, 32688, Note_on_c, 1, 62, 64
2, 32733, Note_on_c, 1, 62, 0
2, 32736, Note_on_c, 1, 67, 64
2, 32855, Note_on_c, 1, 67, 0
2, 32856, Note_on_c, 1, 69, 64
2, 32879, Note_on_c, 1, 69, 0
2, 32880, Note_on_c, 1, 67, 64
2, 32903, Note_on_c, 1, 67, 0
2, 32904, Note_on_c, 1, 66, 64
2, 32927, Note_on_c, 1, 66, 0
2, 32928, Note_on_c, 1, 67, 64
2, 32951, Note_on_c, 1, 67, 0
2, 32952, Note_on_c, 1, 64, 64
2, 32975, Note_on_c, 1, 64, 0
2, 32976, Note_on_c, 1, 57, 64
2, 32999, Note_on_c, 1, 57, 0
2, 33000, Note_on_c, 1, 69, 64
2, 33023, Note_on_c, 1, 69, 0
2, 33024, Note_on_c, 1, 67, 64
2, 33047, Note_on_c, 1, 67, 0
2, 33048, Note_on_c, 1, 66, 64
2, 33071, Note_on_c, 1, 66, 0
2, 33072, Note_on_c, 1, 67, 64
2, 33095, Note_on_c, 1, 67, 0
2, 33096, Note_on_c, 1, 64, 64
2, 33119, Note_on_c, 1, 64, 0
2, 33120, Note_on_c, 1, 66, 64
2, 33165, Note_on_c, 1, 66, 0
2, 33168, Note_on_c, 1, 78, 64
2, 33191, Note_on_c, 1, 78, 0
2, 33192, Note_on_c, 1, 79, 64
2, 33215, Note_on_c, 1, 79, 0
2, 33216, Note_on_c, 1, 81, 64
2, 33287, Note_on_c, 1, 81, 0
2, 33288, Note_on_c, 1, 83, 64
2, 33311, Note_on_c, 1, 83, 0
2, 33312, Note_on_c, 1, 81, 64
2, 33335, Note_on_c, 1, 81, 0
2, 33336, Note_on_c, 1, 79, 64
2, 33359, Note_on_c, 1, 79, 0
2, 33360, Note_on_c, 1, 81, 64
2, 33383, Note_on_c, 1, 81, 0
2, 33384, Note_on_c, 1, 78, 64
2, 33407, Note_on_c, 1, 78, 0
2, 33408, Note_on_c, 1, 79, 64
2, 33453, Note_on_c, 1, 79, 0
2, 33456, Note_on_c, 1, 67, 64
2, 33479, Note_on_c, 1, 67, 0
2, 33480, Note_on_c, 1, 66, 64
2, 33503, Note_on_c, 1, 66, 0
2, 33504, Note_on_c, 1, 67, 64
2, 33549, Note_on_c, 1, 67, 0
2, 33552, Note_on_c, 1, 67, 64
2, 33597, Note_on_c, 1, 67, 0
2, 33600, Note_on_c, 1, 77, 64
2, 33645, Note_on_c, 1, 77, 0
2, 33648, Note_on_c, 1, 71, 64
2, 33693, Note_on_c, 1, 71, 0
2, 33696, Note_on_c, 1, 72, 64
2, 33719, Note_on_c, 1, 72, 0
2, 33720, Note_on_c, 1, 71, 64
2, 33743, Note_on_c, 1, 71, 0
2, 33744, Note_on_c, 1, 72, 64
2, 33767, Note_on_c, 1, 72, 0
2, 33768, Note_on_c, 1, 74, 64
2, 33791, Note_on_c, 1, 74, 0
2, 33792, Note_on_c, 1, 76, 64
2, 33815, Note_on_c, 1, 76, 0
2, 33816, Note_on_c, 1, 69, 64
2, 33839, Note_on_c, 1, 69, 0
2, 33840, Note_on_c, 1, 71, 64
2, 33885, Note_on_c, 1, 71, 0
2, 33888, Note_on_c, 1, 72, 64
2, 33933, Note_on_c, 1, 72, 0
2, 33936, Note_on_c, 1, 69, 64
2, 33981, Note_on_c, 1, 69, 0
2, 33984, Note_on_c, 1, 67, 64
2, 34073, Note_on_c, 1, 67, 0
2, 34073, End_track
3, 0, Start_track
3, 0, MIDI_port, 0
3, 0, Title_t, "Clavier (RH)"
3, 0, Program_c, 0, 6
3, 0, Control_c, 0, 7, 127
3, 1152, Note_on_c, 0, 62, 64
3, 1197, Note_on_c, 0, 62, 0
3, 1200, Note_on_c, 0, 74, 64
3, 1245, Note_on_c, 0, 74, 0
3, 1248, Note_on_c, 0, 74, 64
3, 1293, Note_on_c, 0, 74, 0
3, 1296, Note_on_c, 0, 64, 64
3, 1341, Note_on_c, 0, 64, 0
3, 1344, Note_on_c, 0, 74, 64
3, 1389, Note_on_c, 0, 74, 0
3, 1392, Note_on_c, 0, 74, 64
3, 1437, Note_on_c, 0, 74, 0
3, 1440, Note_on_c, 0, 66, 64
3, 1485, Note_on_c, 0, 66, 0
3, 1488, Note_on_c, 0, 74, 64
3, 1533, Note_on_c, 0, 74, 0
3, 1536, Note_on_c, 0, 74, 64
3, 1581, Note_on_c, 0, 74, 0
3, 1584, Note_on_c, 0, 67, 64
3, 1629, Note_on_c, 0, 67, 0
3, 1632, Note_on_c, 0, 76, 64
3, 1677, Note_on_c, 0, 76, 0
3, 1680, Note_on_c, 0, 71, 64
3, 1725, Note_on_c, 0, 71, 0
3, 1728, Note_on_c, 0, 73, 64
3, 1773, Note_on_c, 0, 73, 0
3, 1776, Note_on_c, 0, 69, 64
3, 1821, Note_on_c, 0, 69, 0
3, 1824, Note_on_c, 0, 74, 64
3, 1869, Note_on_c, 0, 74, 0
3, 1872, Note_on_c, 0, 71, 64
3, 1917, Note_on_c, 0, 71, 0
3, 1920, Note_on_c, 0, 67, 64
3, 1965, Note_on_c, 0, 67, 0
3, 1968, Note_on_c, 0, 69, 64
3, 2013, Note_on_c, 0, 69, 0
3, 2016, Note_on_c, 0, 62, 64
3, 2061, Note_on_c, 0, 62, 0
3, 2064, Note_on_c, 0, 79, 64
3, 2205, Note_on_c, 0, 79, 0
3, 2208, Note_on_c, 0, 78, 64
3, 2231, Note_on_c, 0, 78, 0
3, 2232, Note_on_c, 0, 76, 64
3, 2255, Note_on_c, 0, 76, 0
3, 2256, Note_on_c, 0, 74, 64
3, 2279, Note_on_c, 0, 74, 0
3, 2280, Note_on_c, 0, 72, 64
3, 2303, Note_on_c, 0, 72, 0
3, 2304, Note_on_c, 0, 71, 64
3, 2327, Note_on_c, 0, 71, 0
3, 2328, Note_on_c, 0, 72, 64
3, 2351, Note_on_c, 0, 72, 0
3, 2352, Note_on_c, 0, 71, 64
3, 2375, Note_on_c, 0, 71, 0
3, 2376, Note_on_c, 0, 69, 64
3, 2399, Note_on_c, 0, 69, 0
3, 2400, Note_on_c, 0, 71, 64
3, 2423, Note_on_c, 0, 71, 0
3, 2424, Note_on_c, 0, 67, 64
3, 2447, Note_on_c, 0, 67, 0
3, 2448, Note_on_c, 0, 72, 64
3, 2471, Note_on_c, 0, 72, 0
3, 2472, Note_on_c, 0, 74, 64
3, 2495, Note_on_c, 0, 74, 0
3, 2496, Note_on_c, 0, 72, 64
3, 2519, Note_on_c, 0, 72, 0
3, 2520, Note_on_c, 0, 71, 64
3, 2543, Note_on_c, 0, 71, 0
3, 2544, Note_on_c, 0, 72, 64
3, 2567, Note_on_c, 0, 72, 0
3, 2568, Note_on_c, 0, 69, 64
3, 2591, Note_on_c, 0, 69, 0
3, 2592, Note_on_c, 0, 74, 64
3, 2615, Note_on_c, 0, 74, 0
3, 2616, Note_on_c, 0, 76, 64
3, 2639, Note_on_c, 0, 76, 0
3, 2640, Note_on_c, 0, 74, 64
3, 2663, Note_on_c, 0, 74, 0
3, 2664, Note_on_c, 0, 72, 64
3, 2687, Note_on_c, 0, 72, 0
3, 2688, Note_on_c, 0, 74, 64
3, 2711, Note_on_c, 0, 74, 0
3, 2712, Note_on_c, 0, 71, 64
3, 2735, Note_on_c, 0, 71, 0
3, 2736, Note_on_c, 0, 76, 64
3, 2759, Note_on_c, 0, 76, 0
3, 2760, Note_on_c, 0, 77, 64
3, 2783, Note_on_c, 0, 77, 0
3, 2784, Note_on_c, 0, 76, 64
3, 2807, Note_on_c, 0, 76, 0
3, 2808, Note_on_c, 0, 74, 64
3, 2831, Note_on_c, 0, 74, 0
3, 2832, Note_on_c, 0, 76, 64
3, 2855, Note_on_c, 0, 76, 0
3, 2856, Note_on_c, 0, 72, 64
3, 2879, Note_on_c, 0, 72, 0
3, 2880, Note_on_c, 0, 74, 64
3, 2903, Note_on_c, 0, 74, 0
3, 2904, Note_on_c, 0, 76, 64
3, 2927, Note_on_c, 0, 76, 0
3, 2928, Note_on_c, 0, 74, 64
3, 2951, Note_on_c, 0, 74, 0
3, 2952, Note_on_c, 0, 72, 64
3, 2975, Note_on_c, 0, 72, 0
3, 2976, Note_on_c, 0, 74, 64
3, 2999, Note_on_c, 0, 74, 0
3, 3000, Note_on_c, 0, 71, 64
3, 3023, Note_on_c, 0, 71, 0
3, 3024, Note_on_c, 0, 72, 64
3, 3047, Note_on_c, 0, 72, 0
3, 3048, Note_on_c, 0, 74, 64
3, 3071, Note_on_c, 0, 74, 0
3, 3072, Note_on_c, 0, 72, 64
3, 3095, Note_on_c, 0, 72, 0
3, 3096, Note_on_c, 0, 72, 64
3, 3119, Note_on_c, 0, 72, 0
3, 3120, Note_on_c, 0, 69, 64
3, 3143, Note_on_c, 0, 69, 0
3, 3144, Note_on_c, 0, 71, 64
3, 3167, Note_on_c, 0, 71, 0
3, 3168, Note_on_c, 0, 71, 64
3, 3191, Note_on_c, 0, 71, 0
3, 3192, Note_on_c, 0, 69, 64
3, 3215, Note_on_c, 0, 69, 0
3, 3216, Note_on_c, 0, 67, 64
3, 3239, Note_on_c, 0, 67, 0
3, 3240, Note_on_c, 0, 66, 64
3, 3263, Note_on_c, 0, 66, 0
3, 3264, Note_on_c, 0, 64, 64
3, 3287, Note_on_c, 0, 64, 0
3, 3288, Note_on_c, 0, 62, 64
3, 3311, Note_on_c, 0, 62, 0
3, 3312, Note_on_c, 0, 60, 64
3, 3357, Note_on_c, 0, 60, 0
3, 3360, Note_on_c, 0, 84, 64
3, 3501, Note_on_c, 0, 84, 0
3, 3504, Note_on_c, 0, 83, 64
3, 3527, Note_on_c, 0, 83, 0
3, 3528, Note_on_c, 0, 81, 64
3, 3551, Note_on_c, 0, 81, 0
3, 3552, Note_on_c, 0, 79, 64
3, 3575, Note_on_c, 0, 79, 0
3, 3576, Note_on_c, 0, 77, 64
3, 3599, Note_on_c, 0, 77, 0
3, 3600, Note_on_c, 0, 76, 64
3, 3623, Note_on_c, 0, 76, 0
3, 3624, Note_on_c, 0, 76, 64
3, 3647, Note_on_c, 0, 76, 0
3, 3648, Note_on_c, 0, 77, 64
3, 3671, Note_on_c, 0, 77, 0
3, 3672, Note_on_c, 0, 76, 64
3, 3695, Note_on_c, 0, 76, 0
3, 3696, Note_on_c, 0, 74, 64
3, 3719, Note_on_c, 0, 74, 0
3, 3720, Note_on_c, 0, 72, 64
3, 3743, Note_on_c, 0, 72, 0
3, 3744, Note_on_c, 0, 69, 64
3, 3833, Note_on_c, 0, 69, 0
3, 4032, Note_on_c, 0, 67, 64
3, 4055, Note_on_c, 0, 67, 0
3, 4056, Note_on_c, 0, 69, 64
3, 4079, Note_on_c, 0, 69, 0
3, 4080, Note_on_c, 0, 71, 64
3, 4103, Note_on_c, 0, 71, 0
3, 4104, Note_on_c, 0, 72, 64
3, 4127, Note_on_c, 0, 72, 0
3, 4128, Note_on_c, 0, 71, 64
3, 4151, Note_on_c, 0, 71, 0
3, 4152, Note_on_c, 0, 69, 64
3, 4175, Note_on_c, 0, 69, 0
3, 4176, Note_on_c, 0, 71, 64
3, 4199, Note_on_c, 0, 71, 0
3, 4200, Note_on_c, 0, 67, 64
3, 4223, Note_on_c, 0, 67, 0
3, 4224, Note_on_c, 0, 69, 64
3, 4247, Note_on_c, 0, 69, 0
3, 4248, Note_on_c, 0, 71, 64
3, 4271, Note_on_c, 0, 71, 0
3, 4272, Note_on_c, 0, 72, 64
3, 4295, Note_on_c, 0, 72, 0
3, 4296, Note_on_c, 0, 74, 64
3, 4319, Note_on_c, 0, 74, 0
3, 4320, Note_on_c, 0, 76, 64
3, 4409, Note_on_c, 0, 76, 0
3, 4608, Note_on_c, 0, 66, 64
3, 4631, Note_on_c, 0, 66, 0
3, 4632, Note_on_c, 0, 67, 64
3, 4655, Note_on_c, 0, 67, 0
3, 4656, Note_on_c, 0, 69, 64
3, 4679, Note_on_c, 0, 69, 0
3, 4680, Note_on_c, 0, 71, 64
3, 4703, Note_on_c, 0, 71, 0
3, 4704, Note_on_c, 0, 69, 64
3, 4727, Note_on_c, 0, 69, 0
3, 4728, Note_on_c, 0, 67, 64
3, 4751, Note_on_c, 0, 67, 0
3, 4752, Note_on_c, 0, 69, 64
3, 4775, Note_on_c, 0, 69, 0
3, 4776, Note_on_c, 0, 66, 64
3, 4799, Note_on_c, 0, 66, 0
3, 4800, Note_on_c, 0, 67, 64
3, 4823, Note_on_c, 0, 67, 0
3, 4824, Note_on_c, 0, 69, 64
3, 4847, Note_on_c, 0, 69, 0
3, 4848, Note_on_c, 0, 71, 64
3, 4871, Note_on_c, 0, 71, 0
3, 4872, Note_on_c, 0, 72, 64
3, 4895, Note_on_c, 0, 72, 0
3, 4896, Note_on_c, 0, 74, 64
3, 4985, Note_on_c, 0, 74, 0
3, 4992, Note_on_c, 0, 78, 64
3, 5037, Note_on_c, 0, 78, 0
3, 5040, Note_on_c, 0, 71, 64
3, 5129, Note_on_c, 0, 71, 0
3, 5136, Note_on_c, 0, 74, 64
3, 5181, Note_on_c, 0, 74, 0
3, 5184, Note_on_c, 0, 64, 64
3, 5207, Note_on_c, 0, 64, 0
3, 5208, Note_on_c, 0, 66, 64
3, 5231, Note_on_c, 0, 66, 0
3, 5232, Note_on_c, 0, 67, 64
3, 5255, Note_on_c, 0, 67, 0
3, 5256, Note_on_c, 0, 69, 64
3, 5279, Note_on_c, 0, 69, 0
3, 5280, Note_on_c, 0, 67, 64
3, 5303, Note_on_c, 0, 67, 0
3, 5304, Note_on_c, 0, 66, 64
3, 5327, Note_on_c, 0, 66, 0
3, 5328, Note_on_c, 0, 67, 64
3, 5351, Note_on_c, 0, 67, 0
3, 5352, Note_on_c, 0, 64, 64
3, 5375, Note_on_c, 0, 64, 0
3, 5376, Note_on_c, 0, 66, 64
3, 5399, Note_on_c, 0, 66, 0
3, 5400, Note_on_c, 0, 67, 64
3, 5423, Note_on_c, 0, 67, 0
3, 5424, Note_on_c, 0, 69, 64
3, 5447, Note_on_c, 0, 69, 0
3, 5448, Note_on_c, 0, 71, 64
3, 5471, Note_on_c, 0, 71, 0
3, 5472, Note_on_c, 0, 72, 64
3, 5495, Note_on_c, 0, 72, 0
3, 5496, Note_on_c, 0, 74, 64
3, 5519, Note_on_c, 0, 74, 0
3, 5520, Note_on_c, 0, 76, 64
3, 5543, Note_on_c, 0, 76, 0
3, 5544, Note_on_c, 0, 77, 64
3, 5567, Note_on_c, 0, 77, 0
3, 5568, Note_on_c, 0, 76, 64
3, 5591, Note_on_c, 0, 76, 0
3, 5592, Note_on_c, 0, 74, 64
3, 5615, Note_on_c, 0, 74, 0
3, 5616, Note_on_c, 0, 76, 64
3, 5639, Note_on_c, 0, 76, 0
3, 5640, Note_on_c, 0, 72, 64
3, 5663, Note_on_c, 0, 72, 0
3, 5664, Note_on_c, 0, 74, 64
3, 5687, Note_on_c, 0, 74, 0
3, 5688, Note_on_c, 0, 76, 64
3, 5711, Note_on_c, 0, 76, 0
3, 5712, Note_on_c, 0, 78, 64
3, 5735, Note_on_c, 0, 78, 0
3, 5736, Note_on_c, 0, 79, 64
3, 5759, Note_on_c, 0, 79, 0
3, 5760, Note_on_c, 0, 81, 64
3, 5805, Note_on_c, 0, 81, 0
3, 5808, Note_on_c, 0, 72, 64
3, 5831, Note_on_c, 0, 72, 0
3, 5832, Note_on_c, 0, 71, 64
3, 5855, Note_on_c, 0, 71, 0
3, 5856, Note_on_c, 0, 72, 64
3, 5901, Note_on_c, 0, 72, 0
3, 5904, Note_on_c, 0, 72, 64
3, 5949, Note_on_c, 0, 72, 0
3, 5952, Note_on_c, 0, 81, 64
3, 6093, Note_on_c, 0, 81, 0
3, 6096, Note_on_c, 0, 79, 64
3, 6119, Note_on_c, 0, 79, 0
3, 6120, Note_on_c, 0, 78, 64
3, 6143, Note_on_c, 0, 78, 0
3, 6144, Note_on_c, 0, 79, 64
3, 6237, Note_on_c, 0, 79, 0
3, 6240, Note_on_c, 0, 78, 64
3, 6263, Note_on_c, 0, 78, 0
3, 6264, Note_on_c, 0, 76, 64
3, 6287, Note_on_c, 0, 76, 0
3, 6288, Note_on_c, 0, 78, 64
3, 6311, Note_on_c, 0, 78, 0
3, 6312, Note_on_c, 0, 81, 64
3, 6335, Note_on_c, 0, 81, 0
3, 6336, Note_on_c, 0, 74, 64
3, 6359, Note_on_c, 0, 74, 0
3, 6360, Note_on_c, 0, 76, 64
3, 6383, Note_on_c, 0, 76, 0
3, 6384, Note_on_c, 0, 74, 64
3, 6407, Note_on_c, 0, 74, 0
3, 6408, Note_on_c, 0, 72, 64
3, 6431, Note_on_c, 0, 72, 0
3, 6432, Note_on_c, 0, 74, 64
3, 6455, Note_on_c, 0, 74, 0
3, 6456, Note_on_c, 0, 71, 64
3, 6479, Note_on_c, 0, 71, 0
3, 6480, Note_on_c, 0, 72, 64
3, 6503, Note_on_c, 0, 72, 0
3, 6504, Note_on_c, 0, 74, 64
3, 6527, Note_on_c, 0, 74, 0
3, 6528, Note_on_c, 0, 72, 64
3, 6551, Note_on_c, 0, 72, 0
3, 6552, Note_on_c, 0, 71, 64
3, 6575, Note_on_c, 0, 71, 0
3, 6576, Note_on_c, 0, 72, 64
3, 6599, Note_on_c, 0, 72, 0
3, 6600, Note_on_c, 0, 69, 64
3, 6623, Note_on_c, 0, 69, 0
3, 6624, Note_on_c, 0, 71, 64
3, 6669, Note_on_c, 0, 71, 0
3, 6672, Note_on_c, 0, 76, 64
3, 6813, Note_on_c, 0, 76, 0
3, 6816, Note_on_c, 0, 74, 64
3, 6839, Note_on_c, 0, 74, 0
3, 6840, Note_on_c, 0, 72, 64
3, 6863, Note_on_c, 0, 72, 0
3, 6864, Note_on_c, 0, 71, 64
3, 6887, Note_on_c, 0, 71, 0
3, 6888, Note_on_c, 0, 69, 64
3, 6911, Note_on_c, 0, 69, 0
3, 6912, Note_on_c, 0, 67, 64
3, 6957, Note_on_c, 0, 67, 0
3, 6960, Note_on_c, 0, 72, 64
3, 7101, Note_on_c, 0, 72, 0
3, 7104, Note_on_c, 0, 71, 64
3, 7127, Note_on_c, 0, 71, 0
3, 7128, Note_on_c, 0, 69, 64
3, 7151, Note_on_c, 0, 69, 0
3, 7152, Note_on_c, 0, 67, 64
3, 7175, Note_on_c, 0, 67, 0
3, 7176, Note_on_c, 0, 66, 64
3, 7199, Note_on_c, 0, 66, 0
3, 7200, Note_on_c, 0, 64, 64
3, 7245, Note_on_c, 0, 64, 0
3, 7248, Note_on_c, 0, 69, 64
3, 7389, Note_on_c, 0, 69, 0
3, 7392, Note_on_c, 0, 67, 64
3, 7415, Note_on_c, 0, 67, 0
3, 7416, Note_on_c, 0, 66, 64
3, 7439, Note_on_c, 0, 66, 0
3, 7440, Note_on_c, 0, 64, 64
3, 7463, Note_on_c, 0, 64, 0
3, 7464, Note_on_c, 0, 62, 64
3, 7487, Note_on_c, 0, 62, 0
3, 7488, Note_on_c, 0, 61, 64
3, 7533, Note_on_c, 0, 61, 0
3, 7536, Note_on_c, 0, 73, 64
3, 7559, Note_on_c, 0, 73, 0
3, 7560, Note_on_c, 0, 74, 64
3, 7583, Note_on_c, 0, 74, 0
3, 7584, Note_on_c, 0, 76, 64
3, 7655, Note_on_c, 0, 76, 0
3, 7656, Note_on_c, 0, 78, 64
3, 7679, Note_on_c, 0, 78, 0
3, 7680, Note_on_c, 0, 76, 64
3, 7703, Note_on_c, 0, 76, 0
3, 7704, Note_on_c, 0, 74, 64
3, 7727, Note_on_c, 0, 74, 0
3, 7728, Note_on_c, 0, 76, 64
3, 7751, Note_on_c, 0, 76, 0
3, 7752, Note_on_c, 0, 73, 64
3, 7775, Note_on_c, 0, 73, 0
3, 7776, Note_on_c, 0, 74, 64
3, 7799, Note_on_c, 0, 74, 0
3, 7800, Note_on_c, 0, 81, 64
3, 7823, Note_on_c, 0, 81, 0
3, 7824, Note_on_c, 0, 72, 64
3, 7847, Note_on_c, 0, 72, 0
3, 7848, Note_on_c, 0, 71, 64
3, 7871, Note_on_c, 0, 71, 0
3, 7872, Note_on_c, 0, 72, 64
3, 7895, Note_on_c, 0, 72, 0
3, 7896, Note_on_c, 0, 69, 64
3, 7919, Note_on_c, 0, 69, 0
3, 7920, Note_on_c, 0, 62, 64
3, 7943, Note_on_c, 0, 62, 0
3, 7944, Note_on_c, 0, 74, 64
3, 7967, Note_on_c, 0, 74, 0
3, 7968, Note_on_c, 0, 72, 64
3, 7991, Note_on_c, 0, 72, 0
3, 7992, Note_on_c, 0, 71, 64
3, 8015, Note_on_c, 0, 71, 0
3, 8016, Note_on_c, 0, 72, 64
3, 8039, Note_on_c, 0, 72, 0
3, 8040, Note_on_c, 0, 69, 64
3, 8063, Note_on_c, 0, 69, 0
3, 8064, Note_on_c, 0, 71, 64
3, 8109, Note_on_c, 0, 71, 0
3, 8112, Note_on_c, 0, 67, 64
3, 8135, Note_on_c, 0, 67, 0
3, 8136, Note_on_c, 0, 69, 64
3, 8159, Note_on_c, 0, 69, 0
3, 8160, Note_on_c, 0, 71, 64
3, 8183, Note_on_c, 0, 71, 0
3, 8184, Note_on_c, 0, 72, 64
3, 8207, Note_on_c, 0, 72, 0
3, 8208, Note_on_c, 0, 74, 64
3, 8253, Note_on_c, 0, 74, 0
3, 8256, Note_on_c, 0, 72, 64
3, 8279, Note_on_c, 0, 72, 0
3, 8280, Note_on_c, 0, 71, 64
3, 8303, Note_on_c, 0, 71, 0
3, 8304, Note_on_c, 0, 69, 64
3, 8327, Note_on_c, 0, 69, 0
3, 8328, Note_on_c, 0, 67, 64
3, 8351, Note_on_c, 0, 67, 0
3, 8352, Note_on_c, 0, 79, 64
3, 8541, Note_on_c, 0, 79, 0
3, 8544, Note_on_c, 0, 83, 64
3, 8567, Note_on_c, 0, 83, 0
3, 8568, Note_on_c, 0, 81, 64
3, 8591, Note_on_c, 0, 81, 0
3, 8592, Note_on_c, 0, 79, 64
3, 8615, Note_on_c, 0, 79, 0
3, 8616, Note_on_c, 0, 78, 64
3, 8639, Note_on_c, 0, 78, 0
3, 8640, Note_on_c, 0, 79, 64
3, 8685, Note_on_c, 0, 79, 0
3, 8688, Note_on_c, 0, 81, 64
3, 8700, Note_on_c, 0, 81, 0
3, 8700, Note_on_c, 0, 79, 64
3, 8712, Note_on_c, 0, 79, 0
3, 8712, Note_on_c, 0, 78, 64
3, 8735, Note_on_c, 0, 78, 0
3, 8736, Note_on_c, 0, 79, 64
3, 8781, Note_on_c, 0, 79, 0
3, 8784, Note_on_c, 0, 67, 64
3, 8807, Note_on_c, 0, 67, 0
3, 8808, Note_on_c, 0, 69, 64
3, 8831, Note_on_c, 0, 69, 0
3, 8832, Note_on_c, 0, 69, 64
3, 8844, Note_on_c, 0, 69, 0
3, 8844, Note_on_c, 0, 71, 64
3, 8856, Note_on_c, 0, 71, 0
3, 8856, Note_on_c, 0, 69, 64
3, 8868, Note_on_c, 0, 69, 0
3, 8868, Note_on_c, 0, 71, 64
3, 8880, Note_on_c, 0, 71, 0
3, 8880, Note_on_c, 0, 69, 64
3, 8892, Note_on_c, 0, 69, 0
3, 8892, Note_on_c, 0, 71, 64
3, 8904, Note_on_c, 0, 71, 0
3, 8904, Note_on_c, 0, 67, 64
3, 8916, Note_on_c, 0, 67, 0
3, 8916, Note_on_c, 0, 69, 64
3, 8928, Note_on_c, 0, 69, 0
3, 8928, Note_on_c, 0, 71, 64
3, 8973, Note_on_c, 0, 71, 0
3, 8976, Note_on_c, 0, 72, 64
3, 8988, Note_on_c, 0, 72, 0
3, 8988, Note_on_c, 0, 71, 64
3, 9000, Note_on_c, 0, 71, 0
3, 9000, Note_on_c, 0, 69, 64
3, 9023, Note_on_c, 0, 69, 0
3, 9024, Note_on_c, 0, 71, 64
3, 9047, Note_on_c, 0, 71, 0
3, 9048, Note_on_c, 0, 72, 64
3, 9071, Note_on_c, 0, 72, 0
3, 9072, Note_on_c, 0, 71, 64
3, 9095, Note_on_c, 0, 71, 0
3, 9096, Note_on_c, 0, 72, 64
3, 9119, Note_on_c, 0, 72, 0
3, 9120, Note_on_c, 0, 72, 64
3, 9132, Note_on_c, 0, 72, 0
3, 9132, Note_on_c, 0, 74, 64
3, 9144, Note_on_c, 0, 74, 0
3, 9144, Note_on_c, 0, 72, 64
3, 9156, Note_on_c, 0, 72, 0
3, 9156, Note_on_c, 0, 74, 64
3, 9168, Note_on_c, 0, 74, 0
3, 9168, Note_on_c, 0, 72, 64
3, 9180, Note_on_c, 0, 72, 0
3, 9180, Note_on_c, 0, 74, 64
3, 9192, Note_on_c, 0, 74, 0
3, 9192, Note_on_c, 0, 71, 64
3, 9204, Note_on_c, 0, 71, 0
3, 9204, Note_on_c, 0, 72, 64
3, 9216, Note_on_c, 0, 72, 0
3, 9216, Note_on_c, 0, 74, 64
3, 9527, Note_on_c, 0, 74, 0
3, 9528, Note_on_c, 0, 67, 64
3, 9551, Note_on_c, 0, 67, 0
3, 9552, Note_on_c, 0, 69, 64
3, 9575, Note_on_c, 0, 69, 0
3, 9576, Note_on_c, 0, 71, 64
3, 9599, Note_on_c, 0, 71, 0
3, 9600, Note_on_c, 0, 72, 64
3, 9623, Note_on_c, 0, 72, 0
3, 9624, Note_on_c, 0, 74, 64
3, 9647, Note_on_c, 0, 74, 0
3, 9648, Note_on_c, 0, 76, 64
3, 9671, Note_on_c, 0, 76, 0
3, 9672, Note_on_c, 0, 78, 64
3, 9695, Note_on_c, 0, 78, 0
3, 9696, Note_on_c, 0, 79, 64
3, 9719, Note_on_c, 0, 79, 0
3, 9720, Note_on_c, 0, 81, 64
3, 9743, Note_on_c, 0, 81, 0
3, 9744, Note_on_c, 0, 83, 64
3, 9767, Note_on_c, 0, 83, 0
3, 9768, Note_on_c, 0, 84, 64
3, 9791, Note_on_c, 0, 84, 0
3, 9792, Note_on_c, 0, 78, 64
3, 9881, Note_on_c, 0, 78, 0
3, 10080, Note_on_c, 0, 74, 64
3, 10125, Note_on_c, 0, 74, 0
3, 10128, Note_on_c, 0, 76, 64
3, 10140, Note_on_c, 0, 76, 0
3, 10140, Note_on_c, 0, 74, 64
3, 10152, Note_on_c, 0, 74, 0
3, 10152, Note_on_c, 0, 73, 64
3, 10175, Note_on_c, 0, 73, 0
3, 10176, Note_on_c, 0, 74, 64
3, 10221, Note_on_c, 0, 74, 0
3, 10224, Note_on_c, 0, 62, 64
3, 10247, Note_on_c, 0, 62, 0
3, 10248, Note_on_c, 0, 64, 64
3, 10271, Note_on_c, 0, 64, 0
3, 10272, Note_on_c, 0, 64, 64
3, 10284, Note_on_c, 0, 64, 0
3, 10284, Note_on_c, 0, 66, 64
3, 10296, Note_on_c, 0, 66, 0
3, 10296, Note_on_c, 0, 64, 64
3, 10308, Note_on_c, 0, 64, 0
3, 10308, Note_on_c, 0, 66, 64
3, 10320, Note_on_c, 0, 66, 0
3, 10320, Note_on_c, 0, 64, 64
3, 10332, Note_on_c, 0, 64, 0
3, 10332, Note_on_c, 0, 66, 64
3, 10344, Note_on_c, 0, 66, 0
3, 10344, Note_on_c, 0, 62, 64
3, 10356, Note_on_c, 0, 62, 0
3, 10356, Note_on_c, 0, 64, 64
3, 10368, Note_on_c, 0, 64, 0
3, 10368, Note_on_c, 0, 66, 64
3, 10391, Note_on_c, 0, 66, 0
3, 10392, Note_on_c, 0, 69, 64
3, 10415, Note_on_c, 0, 69, 0
3, 10416, Note_on_c, 0, 67, 64
3, 10439, Note_on_c, 0, 67, 0
3, 10440, Note_on_c, 0, 66, 64
3, 10463, Note_on_c, 0, 66, 0
3, 10464, Note_on_c, 0, 64, 64
3, 10487, Note_on_c, 0, 64, 0
3, 10488, Note_on_c, 0, 62, 64
3, 10511, Note_on_c, 0, 62, 0
3, 10512, Note_on_c, 0, 61, 64
3, 10535, Note_on_c, 0, 61, 0
3, 10536, Note_on_c, 0, 59, 64
3, 10559, Note_on_c, 0, 59, 0
3, 10560, Note_on_c, 0, 57, 64
3, 10583, Note_on_c, 0, 57, 0
3, 10584, Note_on_c, 0, 55, 64
3, 10607, Note_on_c, 0, 55, 0
3, 10608, Note_on_c, 0, 54, 64
3, 10631, Note_on_c, 0, 54, 0
3, 10632, Note_on_c, 0, 52, 64
3, 10655, Note_on_c, 0, 52, 0
3, 10656, Note_on_c, 0, 50, 64
3, 10701, Note_on_c, 0, 50, 0
3, 10704, Note_on_c, 0, 50, 64
3, 10749, Note_on_c, 0, 50, 0
3, 10752, Note_on_c, 0, 50, 64
3, 10797, Note_on_c, 0, 50, 0
3, 10944, Note_on_c, 0, 57, 64
3, 10967, Note_on_c, 0, 57, 0
3, 10968, Note_on_c, 0, 59, 64
3, 10991, Note_on_c, 0, 59, 0
3, 10992, Note_on_c, 0, 61, 64
3, 11015, Note_on_c, 0, 61, 0
3, 11016, Note_on_c, 0, 62, 64
3, 11039, Note_on_c, 0, 62, 0
3, 11040, Note_on_c, 0, 61, 64
3, 11063, Note_on_c, 0, 61, 0
3, 11064, Note_on_c, 0, 59, 64
3, 11087, Note_on_c, 0, 59, 0
3, 11088, Note_on_c, 0, 61, 64
3, 11111, Note_on_c, 0, 61, 0
3, 11112, Note_on_c, 0, 57, 64
3, 11135, Note_on_c, 0, 57, 0
3, 11136, Note_on_c, 0, 59, 64
3, 11159, Note_on_c, 0, 59, 0
3, 11160, Note_on_c, 0, 61, 64
3, 11183, Note_on_c, 0, 61, 0
3, 11184, Note_on_c, 0, 62, 64
3, 11207, Note_on_c, 0, 62, 0
3, 11208, Note_on_c, 0, 64, 64
3, 11231, Note_on_c, 0, 64, 0
3, 11232, Note_on_c, 0, 66, 64
3, 11321, Note_on_c, 0, 66, 0
3, 11328, Note_on_c, 0, 69, 64
3, 11373, Note_on_c, 0, 69, 0
3, 11376, Note_on_c, 0, 62, 64
3, 11465, Note_on_c, 0, 62, 0
3, 11472, Note_on_c, 0, 66, 64
3, 11517, Note_on_c, 0, 66, 0
3, 11520, Note_on_c, 0, 67, 64
3, 11543, Note_on_c, 0, 67, 0
3, 11544, Note_on_c, 0, 69, 64
3, 11567, Note_on_c, 0, 69, 0
3, 11568, Note_on_c, 0, 71, 64
3, 11591, Note_on_c, 0, 71, 0
3, 11592, Note_on_c, 0, 72, 64
3, 11615, Note_on_c, 0, 72, 0
3, 11616, Note_on_c, 0, 71, 64
3, 11639, Note_on_c, 0, 71, 0
3, 11640, Note_on_c, 0, 69, 64
3, 11663, Note_on_c, 0, 69, 0
3, 11664, Note_on_c, 0, 71, 64
3, 11687, Note_on_c, 0, 71, 0
3, 11688, Note_on_c, 0, 67, 64
3, 11711, Note_on_c, 0, 67, 0
3, 11712, Note_on_c, 0, 69, 64
3, 11735, Note_on_c, 0, 69, 0
3, 11736, Note_on_c, 0, 71, 64
3, 11759, Note_on_c, 0, 71, 0
3, 11760, Note_on_c, 0, 72, 64
3, 11783, Note_on_c, 0, 72, 0
3, 11784, Note_on_c, 0, 74, 64
3, 11807, Note_on_c, 0, 74, 0
3, 11808, Note_on_c, 0, 76, 64
3, 11853, Note_on_c, 0, 76, 0
3, 11856, Note_on_c, 0, 81, 64
3, 11997, Note_on_c, 0, 81, 0
3, 12000, Note_on_c, 0, 79, 64
3, 12023, Note_on_c, 0, 79, 0
3, 12024, Note_on_c, 0, 78, 64
3, 12047, Note_on_c, 0, 78, 0
3, 12048, Note_on_c, 0, 76, 64
3, 12071, Note_on_c, 0, 76, 0
3, 12072, Note_on_c, 0, 74, 64
3, 12095, Note_on_c, 0, 74, 0
3, 12096, Note_on_c, 0, 72, 64
3, 12141, Note_on_c, 0, 72, 0
3, 12144, Note_on_c, 0, 78, 64
3, 12233, Note_on_c, 0, 78, 0
3, 12240, Note_on_c, 0, 78, 64
3, 12285, Note_on_c, 0, 78, 0
3, 12288, Note_on_c, 0, 76, 64
3, 12311, Note_on_c, 0, 76, 0
3, 12312, Note_on_c, 0, 74, 64
3, 12335, Note_on_c, 0, 74, 0
3, 12336, Note_on_c, 0, 72, 64
3, 12359, Note_on_c, 0, 72, 0
3, 12360, Note_on_c, 0, 71, 64
3, 12383, Note_on_c, 0, 71, 0
3, 12384, Note_on_c, 0, 69, 64
3, 12407, Note_on_c, 0, 69, 0
3, 12408, Note_on_c, 0, 71, 64
3, 12431, Note_on_c, 0, 71, 0
3, 12432, Note_on_c, 0, 69, 64
3, 12455, Note_on_c, 0, 69, 0
3, 12456, Note_on_c, 0, 67, 64
3, 12479, Note_on_c, 0, 67, 0
3, 12480, Note_on_c, 0, 69, 64
3, 12503, Note_on_c, 0, 69, 0
3, 12504, Note_on_c, 0, 66, 64
3, 12527, Note_on_c, 0, 66, 0
3, 12528, Note_on_c, 0, 63, 64
3, 12573, Note_on_c, 0, 63, 0
3, 12576, Note_on_c, 0, 59, 64
3, 12621, Note_on_c, 0, 59, 0
3, 12624, Note_on_c, 0, 71, 64
3, 12695, Note_on_c, 0, 71, 0
3, 12696, Note_on_c, 0, 72, 64
3, 12719, Note_on_c, 0, 72, 0
3, 12720, Note_on_c, 0, 71, 64
3, 12743, Note_on_c, 0, 71, 0
3, 12744, Note_on_c, 0, 69, 64
3, 12767, Note_on_c, 0, 69, 0
3, 12768, Note_on_c, 0, 71, 64
3, 12791, Note_on_c, 0, 71, 0
3, 12792, Note_on_c, 0, 67, 64
3, 12815, Note_on_c, 0, 67, 0
3, 12816, Note_on_c, 0, 64, 64
3, 12861, Note_on_c, 0, 64, 0
3, 12864, Note_on_c, 0, 60, 64
3, 12909, Note_on_c, 0, 60, 0
3, 12912, Note_on_c, 0, 72, 64
3, 12983, Note_on_c, 0, 72, 0
3, 12984, Note_on_c, 0, 74, 64
3, 13007, Note_on_c, 0, 74, 0
3, 13008, Note_on_c, 0, 72, 64
3, 13031, Note_on_c, 0, 72, 0
3, 13032, Note_on_c, 0, 71, 64
3, 13055, Note_on_c, 0, 71, 0
3, 13056, Note_on_c, 0, 72, 64
3, 13079, Note_on_c, 0, 72, 0
3, 13080, Note_on_c, 0, 69, 64
3, 13103, Note_on_c, 0, 69, 0
3, 13104, Note_on_c, 0, 66, 64
3, 13149, Note_on_c, 0, 66, 0
3, 13152, Note_on_c, 0, 62, 64
3, 13197, Note_on_c, 0, 62, 0
3, 13200, Note_on_c, 0, 81, 64
3, 13271, Note_on_c, 0, 81, 0
3, 13272, Note_on_c, 0, 83, 64
3, 13295, Note_on_c, 0, 83, 0
3, 13296, Note_on_c, 0, 81, 64
3, 13319, Note_on_c, 0, 81, 0
3, 13320, Note_on_c, 0, 79, 64
3, 13343, Note_on_c, 0, 79, 0
3, 13344, Note_on_c, 0, 81, 64
3, 13367, Note_on_c, 0, 81, 0
3, 13368, Note_on_c, 0, 78, 64
3, 13391, Note_on_c, 0, 78, 0
3, 13392, Note_on_c, 0, 79, 64
3, 13437, Note_on_c, 0, 79, 0
3, 13440, Note_on_c, 0, 67, 64
3, 13485, Note_on_c, 0, 67, 0
3, 13488, Note_on_c, 0, 79, 64
3, 13559, Note_on_c, 0, 79, 0
3, 13560, Note_on_c, 0, 81, 64
3, 13583, Note_on_c, 0, 81, 0
3, 13584, Note_on_c, 0, 79, 64
3, 13607, Note_on_c, 0, 79, 0
3, 13608, Note_on_c, 0, 78, 64
3, 13631, Note_on_c, 0, 78, 0
3, 13632, Note_on_c, 0, 79, 64
3, 13655, Note_on_c, 0, 79, 0
3, 13656, Note_on_c, 0, 76, 64
3, 13679, Note_on_c, 0, 76, 0
3, 13680, Note_on_c, 0, 78, 64
3, 13725, Note_on_c, 0, 78, 0
3, 13728, Note_on_c, 0, 66, 64
3, 13773, Note_on_c, 0, 66, 0
3, 13776, Note_on_c, 0, 78, 64
3, 13869, Note_on_c, 0, 78, 0
3, 13872, Note_on_c, 0, 76, 64
3, 13895, Note_on_c, 0, 76, 0
3, 13896, Note_on_c, 0, 75, 64
3, 13919, Note_on_c, 0, 75, 0
3, 13920, Note_on_c, 0, 76, 64
3, 13991, Note_on_c, 0, 76, 0
3, 13992, Note_on_c, 0, 74, 64
3, 14015, Note_on_c, 0, 74, 0
3, 14016, Note_on_c, 0, 72, 64
3, 14039, Note_on_c, 0, 72, 0
3, 14040, Note_on_c, 0, 71, 64
3, 14063, Note_on_c, 0, 71, 0
3, 14064, Note_on_c, 0, 72, 64
3, 14087, Note_on_c, 0, 72, 0
3, 14088, Note_on_c, 0, 69, 64
3, 14111, Note_on_c, 0, 69, 0
3, 14112, Note_on_c, 0, 74, 64
3, 14301, Note_on_c, 0, 74, 0
3, 14304, Note_on_c, 0, 72, 64
3, 14327, Note_on_c, 0, 72, 0
3, 14328, Note_on_c, 0, 71, 64
3, 14351, Note_on_c, 0, 71, 0
3, 14352, Note_on_c, 0, 69, 64
3, 14375, Note_on_c, 0, 69, 0
3, 14376, Note_on_c, 0, 67, 64
3, 14399, Note_on_c, 0, 67, 0
3, 14400, Note_on_c, 0, 66, 64
3, 14423, Note_on_c, 0, 66, 0
3, 14424, Note_on_c, 0, 71, 64
3, 14447, Note_on_c, 0, 71, 0
3, 14448, Note_on_c, 0, 64, 64
3, 14471, Note_on_c, 0, 64, 0
3, 14472, Note_on_c, 0, 63, 64
3, 14495, Note_on_c, 0, 63, 0
3, 14496, Note_on_c, 0, 64, 64
3, 14519, Note_on_c, 0, 64, 0
3, 14520, Note_on_c, 0, 67, 64
3, 14543, Note_on_c, 0, 67, 0
3, 14544, Note_on_c, 0, 69, 64
3, 14567, Note_on_c, 0, 69, 0
3, 14568, Note_on_c, 0, 71, 64
3, 14591, Note_on_c, 0, 71, 0
3, 14592, Note_on_c, 0, 72, 64
3, 14637, Note_on_c, 0, 72, 0
3, 14640, Note_on_c, 0, 66, 64
3, 14685, Note_on_c, 0, 66, 0
3, 14688, Note_on_c, 0, 71, 64
3, 14711, Note_on_c, 0, 71, 0
3, 14712, Note_on_c, 0, 75, 64
3, 14735, Note_on_c, 0, 75, 0
3, 14736, Note_on_c, 0, 76, 64
3, 14759, Note_on_c, 0, 76, 0
3, 14760, Note_on_c, 0, 78, 64
3, 14783, Note_on_c, 0, 78, 0
3, 14784, Note_on_c, 0, 79, 64
3, 14807, Note_on_c, 0, 79, 0
3, 14808, Note_on_c, 0, 76, 64
3, 14831, Note_on_c, 0, 76, 0
3, 14832, Note_on_c, 0, 84, 64
3, 14877, Note_on_c, 0, 84, 0
3, 14880, Note_on_c, 0, 75, 64
3, 14947, Note_on_c, 0, 75, 0
3, 14952, Note_on_c, 0, 76, 64
3, 14975, Note_on_c, 0, 76, 0
3, 14976, Note_on_c, 0, 76, 64
3, 15065, Note_on_c, 0, 76, 0
3, 15264, Note_on_c, 0, 76, 64
3, 15309, Note_on_c, 0, 76, 0
3, 15312, Note_on_c, 0, 78, 64
3, 15324, Note_on_c, 0, 78, 0
3, 15324, Note_on_c, 0, 76, 64
3, 15336, Note_on_c, 0, 76, 0
3, 15336, Note_on_c, 0, 75, 64
3, 15359, Note_on_c, 0, 75, 0
3, 15360, Note_on_c, 0, 76, 64
3, 15405, Note_on_c, 0, 76, 0
3, 15408, Note_on_c, 0, 64, 64
3, 15431, Note_on_c, 0, 64, 0
3, 15432, Note_on_c, 0, 66, 64
3, 15455, Note_on_c, 0, 66, 0
3, 15456, Note_on_c, 0, 66, 64
3, 15468, Note_on_c, 0, 66, 0
3, 15468, Note_on_c, 0, 67, 64
3, 15480, Note_on_c, 0, 67, 0
3, 15480, Note_on_c, 0, 66, 64
3, 15492, Note_on_c, 0, 66, 0
3, 15492, Note_on_c, 0, 67, 64
3, 15504, Note_on_c, 0, 67, 0
3, 15504, Note_on_c, 0, 66, 64
3, 15516, Note_on_c, 0, 66, 0
3, 15516, Note_on_c, 0, 67, 64
3, 15528, Note_on_c, 0, 67, 0
3, 15528, Note_on_c, 0, 64, 64
3, 15540, Note_on_c, 0, 64, 0
3, 15540, Note_on_c, 0, 66, 64
3, 15552, Note_on_c, 0, 66, 0
3, 15552, Note_on_c, 0, 67, 64
3, 15575, Note_on_c, 0, 67, 0
3, 15576, Note_on_c, 0, 71, 64
3, 15599, Note_on_c, 0, 71, 0
3, 15600, Note_on_c, 0, 69, 64
3, 15623, Note_on_c, 0, 69, 0
3, 15624, Note_on_c, 0, 67, 64
3, 15647, Note_on_c, 0, 67, 0
3, 15648, Note_on_c, 0, 66, 64
3, 15671, Note_on_c, 0, 66, 0
3, 15672, Note_on_c, 0, 64, 64
3, 15695, Note_on_c, 0, 64, 0
3, 15696, Note_on_c, 0, 63, 64
3, 15719, Note_on_c, 0, 63, 0
3, 15720, Note_on_c, 0, 61, 64
3, 15743, Note_on_c, 0, 61, 0
3, 15744, Note_on_c, 0, 59, 64
3, 15767, Note_on_c, 0, 59, 0
3, 15768, Note_on_c, 0, 57, 64
3, 15791, Note_on_c, 0, 57, 0
3, 15792, Note_on_c, 0, 55, 64
3, 15815, Note_on_c, 0, 55, 0
3, 15816, Note_on_c, 0, 54, 64
3, 15839, Note_on_c, 0, 54, 0
3, 15840, Note_on_c, 0, 52, 64
3, 15885, Note_on_c, 0, 52, 0
3, 15888, Note_on_c, 0, 52, 64
3, 15933, Note_on_c, 0, 52, 0
3, 15936, Note_on_c, 0, 52, 64
3, 15981, Note_on_c, 0, 52, 0
3, 16128, Note_on_c, 0, 79, 64
3, 16173, Note_on_c, 0, 79, 0
3, 16176, Note_on_c, 0, 81, 64
3, 16188, Note_on_c, 0, 81, 0
3, 16188, Note_on_c, 0, 79, 64
3, 16200, Note_on_c, 0, 79, 0
3, 16200, Note_on_c, 0, 78, 64
3, 16223, Note_on_c, 0, 78, 0
3, 16224, Note_on_c, 0, 79, 64
3, 16269, Note_on_c, 0, 79, 0
3, 16272, Note_on_c, 0, 67, 64
3, 16295, Note_on_c, 0, 67, 0
3, 16296, Note_on_c, 0, 69, 64
3, 16319, Note_on_c, 0, 69, 0
3, 16320, Note_on_c, 0, 69, 64
3, 16332, Note_on_c, 0, 69, 0
3, 16332, Note_on_c, 0, 71, 64
3, 16344, Note_on_c, 0, 71, 0
3, 16344, Note_on_c, 0, 69, 64
3, 16356, Note_on_c, 0, 69, 0
3, 16356, Note_on_c, 0, 71, 64
3, 16368, Note_on_c, 0, 71, 0
3, 16368, Note_on_c, 0, 69, 64
3, 16380, Note_on_c, 0, 69, 0
3, 16380, Note_on_c, 0, 71, 64
3, 16392, Note_on_c, 0, 71, 0
3, 16392, Note_on_c, 0, 67, 64
3, 16404, Note_on_c, 0, 67, 0
3, 16404, Note_on_c, 0, 69, 64
3, 16416, Note_on_c, 0, 69, 0
3, 16416, Note_on_c, 0, 71, 64
3, 16461, Note_on_c, 0, 71, 0
3, 16464, Note_on_c, 0, 72, 64
3, 16476, Note_on_c, 0, 72, 0
3, 16476, Note_on_c, 0, 71, 64
3, 16488, Note_on_c, 0, 71, 0
3, 16488, Note_on_c, 0, 69, 64
3, 16511, Note_on_c, 0, 69, 0
3, 16512, Note_on_c, 0, 71, 64
3, 16535, Note_on_c, 0, 71, 0
3, 16536, Note_on_c, 0, 73, 64
3, 16559, Note_on_c, 0, 73, 0
3, 16560, Note_on_c, 0, 71, 64
3, 16583, Note_on_c, 0, 71, 0
3, 16584, Note_on_c, 0, 73, 64
3, 16607, Note_on_c, 0, 73, 0
3, 16608, Note_on_c, 0, 73, 64
3, 16620, Note_on_c, 0, 73, 0
3, 16620, Note_on_c, 0, 74, 64
3, 16632, Note_on_c, 0, 74, 0
3, 16632, Note_on_c, 0, 73, 64
3, 16644, Note_on_c, 0, 73, 0
3, 16644, Note_on_c, 0, 74, 64
3, 16656, Note_on_c, 0, 74, 0
3, 16656, Note_on_c, 0, 73, 64
3, 16668, Note_on_c, 0, 73, 0
3, 16668, Note_on_c, 0, 74, 64
3, 16680, Note_on_c, 0, 74, 0
3, 16680, Note_on_c, 0, 71, 64
3, 16692, Note_on_c, 0, 71, 0
3, 16692, Note_on_c, 0, 73, 64
3, 16704, Note_on_c, 0, 73, 0
3, 16704, Note_on_c, 0, 74, 64
3, 16969, Note_on_c, 0, 74, 0
3, 16992, Note_on_c, 0, 74, 64
3, 17015, Note_on_c, 0, 74, 0
3, 17016, Note_on_c, 0, 71, 64
3, 17039, Note_on_c, 0, 71, 0
3, 17040, Note_on_c, 0, 73, 64
3, 17063, Note_on_c, 0, 73, 0
3, 17064, Note_on_c, 0, 74, 64
3, 17087, Note_on_c, 0, 74, 0
3, 17088, Note_on_c, 0, 76, 64
3, 17111, Note_on_c, 0, 76, 0
3, 17112, Note_on_c, 0, 78, 64
3, 17135, Note_on_c, 0, 78, 0
3, 17136, Note_on_c, 0, 79, 64
3, 17159, Note_on_c, 0, 79, 0
3, 17160, Note_on_c, 0, 78, 64
3, 17183, Note_on_c, 0, 78, 0
3, 17184, Note_on_c, 0, 76, 64
3, 17207, Note_on_c, 0, 76, 0
3, 17208, Note_on_c, 0, 74, 64
3, 17231, Note_on_c, 0, 74, 0
3, 17232, Note_on_c, 0, 73, 64
3, 17255, Note_on_c, 0, 73, 0
3, 17256, Note_on_c, 0, 71, 64
3, 17279, Note_on_c, 0, 71, 0
3, 17280, Note_on_c, 0, 70, 64
3, 17303, Note_on_c, 0, 70, 0
3, 17304, Note_on_c, 0, 71, 64
3, 17327, Note_on_c, 0, 71, 0
3, 17328, Note_on_c, 0, 73, 64
3, 17351, Note_on_c, 0, 73, 0
3, 17352, Note_on_c, 0, 74, 64
3, 17375, Note_on_c, 0, 74, 0
3, 17376, Note_on_c, 0, 73, 64
3, 17399, Note_on_c, 0, 73, 0
3, 17400, Note_on_c, 0, 71, 64
3, 17423, Note_on_c, 0, 71, 0
3, 17424, Note_on_c, 0, 73, 64
3, 17447, Note_on_c, 0, 73, 0
3, 17448, Note_on_c, 0, 70, 64
3, 17471, Note_on_c, 0, 70, 0
3, 17472, Note_on_c, 0, 71, 64
3, 17495, Note_on_c, 0, 71, 0
3, 17496, Note_on_c, 0, 73, 64
3, 17519, Note_on_c, 0, 73, 0
3, 17520, Note_on_c, 0, 74, 64
3, 17543, Note_on_c, 0, 74, 0
3, 17544, Note_on_c, 0, 76, 64
3, 17567, Note_on_c, 0, 76, 0
3, 17568, Note_on_c, 0, 78, 64
3, 17613, Note_on_c, 0, 78, 0
3, 17616, Note_on_c, 0, 71, 64
3, 17639, Note_on_c, 0, 71, 0
3, 17640, Note_on_c, 0, 73, 64
3, 17663, Note_on_c, 0, 73, 0
3, 17664, Note_on_c, 0, 71, 64
3, 17709, Note_on_c, 0, 71, 0
3, 17712, Note_on_c, 0, 78, 64
3, 17757, Note_on_c, 0, 78, 0
3, 17760, Note_on_c, 0, 71, 64
3, 17805, Note_on_c, 0, 71, 0
3, 17808, Note_on_c, 0, 71, 64
3, 17853, Note_on_c, 0, 71, 0
3, 17856, Note_on_c, 0, 83, 64
3, 17901, Note_on_c, 0, 83, 0
3, 17904, Note_on_c, 0, 64, 64
3, 17927, Note_on_c, 0, 64, 0
3, 17928, Note_on_c, 0, 66, 64
3, 17951, Note_on_c, 0, 66, 0
3, 17952, Note_on_c, 0, 64, 64
3, 17997, Note_on_c, 0, 64, 0
3, 18000, Note_on_c, 0, 74, 64
3, 18045, Note_on_c, 0, 74, 0
3, 18048, Note_on_c, 0, 64, 64
3, 18093, Note_on_c, 0, 64, 0
3, 18096, Note_on_c, 0, 64, 64
3, 18141, Note_on_c, 0, 64, 0
3, 18144, Note_on_c, 0, 64, 64
3, 18189, Note_on_c, 0, 64, 0
3, 18192, Note_on_c, 0, 69, 64
3, 18215, Note_on_c, 0, 69, 0
3, 18216, Note_on_c, 0, 71, 64
3, 18239, Note_on_c, 0, 71, 0
3, 18240, Note_on_c, 0, 69, 64
3, 18285, Note_on_c, 0, 69, 0
3, 18288, Note_on_c, 0, 76, 64
3, 18333, Note_on_c, 0, 76, 0
3, 18336, Note_on_c, 0, 69, 64
3, 18381, Note_on_c, 0, 69, 0
3, 18384, Note_on_c, 0, 69, 64
3, 18429, Note_on_c, 0, 69, 0
3, 18432, Note_on_c, 0, 81, 64
3, 18477, Note_on_c, 0, 81, 0
3, 18480, Note_on_c, 0, 62, 64
3, 18503, Note_on_c, 0, 62, 0
3, 18504, Note_on_c, 0, 64, 64
3, 18527, Note_on_c, 0, 64, 0
3, 18528, Note_on_c, 0, 62, 64
3, 18573, Note_on_c, 0, 62, 0
3, 18576, Note_on_c, 0, 72, 64
3, 18621, Note_on_c, 0, 72, 0
3, 18624, Note_on_c, 0, 62, 64
3, 18669, Note_on_c, 0, 62, 0
3, 18672, Note_on_c, 0, 62, 64
3, 18717, Note_on_c, 0, 62, 0
3, 18720, Note_on_c, 0, 55, 64
3, 18743, Note_on_c, 0, 55, 0
3, 18744, Note_on_c, 0, 57, 64
3, 18767, Note_on_c, 0, 57, 0
3, 18768, Note_on_c, 0, 59, 64
3, 18791, Note_on_c, 0, 59, 0
3, 18792, Note_on_c, 0, 60, 64
3, 18815, Note_on_c, 0, 60, 0
3, 18816, Note_on_c, 0, 59, 64
3, 18839, Note_on_c, 0, 59, 0
3, 18840, Note_on_c, 0, 57, 64
3, 18863, Note_on_c, 0, 57, 0
3, 18864, Note_on_c, 0, 59, 64
3, 18887, Note_on_c, 0, 59, 0
3, 18888, Note_on_c, 0, 55, 64
3, 18911, Note_on_c, 0, 55, 0
3, 18912, Note_on_c, 0, 57, 64
3, 18935, Note_on_c, 0, 57, 0
3, 18936, Note_on_c, 0, 59, 64
3, 18959, Note_on_c, 0, 59, 0
3, 18960, Note_on_c, 0, 60, 64
3, 18983, Note_on_c, 0, 60, 0
3, 18984, Note_on_c, 0, 62, 64
3, 19007, Note_on_c, 0, 62, 0
3, 19008, Note_on_c, 0, 64, 64
3, 19031, Note_on_c, 0, 64, 0
3, 19032, Note_on_c, 0, 66, 64
3, 19055, Note_on_c, 0, 66, 0
3, 19056, Note_on_c, 0, 68, 64
3, 19079, Note_on_c, 0, 68, 0
3, 19080, Note_on_c, 0, 69, 64
3, 19103, Note_on_c, 0, 69, 0
3, 19104, Note_on_c, 0, 68, 64
3, 19127, Note_on_c, 0, 68, 0
3, 19128, Note_on_c, 0, 66, 64
3, 19151, Note_on_c, 0, 66, 0
3, 19152, Note_on_c, 0, 68, 64
3, 19175, Note_on_c, 0, 68, 0
3, 19176, Note_on_c, 0, 64, 64
3, 19199, Note_on_c, 0, 64, 0
3, 19200, Note_on_c, 0, 66, 64
3, 19223, Note_on_c, 0, 66, 0
3, 19224, Note_on_c, 0, 68, 64
3, 19247, Note_on_c, 0, 68, 0
3, 19248, Note_on_c, 0, 69, 64
3, 19271, Note_on_c, 0, 69, 0
3, 19272, Note_on_c, 0, 71, 64
3, 19295, Note_on_c, 0, 71, 0
3, 19296, Note_on_c, 0, 72, 64
3, 19319, Note_on_c, 0, 72, 0
3, 19320, Note_on_c, 0, 74, 64
3, 19343, Note_on_c, 0, 74, 0
3, 19344, Note_on_c, 0, 76, 64
3, 19367, Note_on_c, 0, 76, 0
3, 19368, Note_on_c, 0, 78, 64
3, 19391, Note_on_c, 0, 78, 0
3, 19392, Note_on_c, 0, 76, 64
3, 19415, Note_on_c, 0, 76, 0
3, 19416, Note_on_c, 0, 74, 64
3, 19439, Note_on_c, 0, 74, 0
3, 19440, Note_on_c, 0, 76, 64
3, 19463, Note_on_c, 0, 76, 0
3, 19464, Note_on_c, 0, 72, 64
3, 19487, Note_on_c, 0, 72, 0
3, 19488, Note_on_c, 0, 74, 64
3, 19511, Note_on_c, 0, 74, 0
3, 19512, Note_on_c, 0, 76, 64
3, 19535, Note_on_c, 0, 76, 0
3, 19536, Note_on_c, 0, 79, 64
3, 19559, Note_on_c, 0, 79, 0
3, 19560, Note_on_c, 0, 79, 64
3, 19583, Note_on_c, 0, 79, 0
3, 19584, Note_on_c, 0, 81, 64
3, 19607, Note_on_c, 0, 81, 0
3, 19608, Note_on_c, 0, 83, 64
3, 19631, Note_on_c, 0, 83, 0
3, 19632, Note_on_c, 0, 81, 64
3, 19655, Note_on_c, 0, 81, 0
3, 19656, Note_on_c, 0, 79, 64
3, 19679, Note_on_c, 0, 79, 0
3, 19680, Note_on_c, 0, 81, 64
3, 19703, Note_on_c, 0, 81, 0
3, 19704, Note_on_c, 0, 78, 64
3, 19727, Note_on_c, 0, 78, 0
3, 19728, Note_on_c, 0, 79, 64
3, 19751, Note_on_c, 0, 79, 0
3, 19752, Note_on_c, 0, 81, 64
3, 19775, Note_on_c, 0, 81, 0
3, 19776, Note_on_c, 0, 79, 64
3, 19799, Note_on_c, 0, 79, 0
3, 19800, Note_on_c, 0, 78, 64
3, 19823, Note_on_c, 0, 78, 0
3, 19824, Note_on_c, 0, 79, 64
3, 19847, Note_on_c, 0, 79, 0
3, 19848, Note_on_c, 0, 76, 64
3, 19871, Note_on_c, 0, 76, 0
3, 19872, Note_on_c, 0, 78, 64
3, 19895, Note_on_c, 0, 78, 0
3, 19896, Note_on_c, 0, 79, 64
3, 19919, Note_on_c, 0, 79, 0
3, 19920, Note_on_c, 0, 78, 64
3, 19943, Note_on_c, 0, 78, 0
3, 19944, Note_on_c, 0, 76, 64
3, 19967, Note_on_c, 0, 76, 0
3, 19968, Note_on_c, 0, 78, 64
3, 19991, Note_on_c, 0, 78, 0
3, 19992, Note_on_c, 0, 74, 64
3, 20015, Note_on_c, 0, 74, 0
3, 20016, Note_on_c, 0, 76, 64
3, 20039, Note_on_c, 0, 76, 0
3, 20040, Note_on_c, 0, 78, 64
3, 20063, Note_on_c, 0, 78, 0
3, 20064, Note_on_c, 0, 76, 64
3, 20087, Note_on_c, 0, 76, 0
3, 20088, Note_on_c, 0, 74, 64
3, 20111, Note_on_c, 0, 74, 0
3, 20112, Note_on_c, 0, 76, 64
3, 20135, Note_on_c, 0, 76, 0
3, 20136, Note_on_c, 0, 73, 64
3, 20159, Note_on_c, 0, 73, 0
3, 20160, Note_on_c, 0, 74, 64
3, 20172, Note_on_c, 0, 74, 0
3, 20172, Note_on_c, 0, 76, 64
3, 20184, Note_on_c, 0, 76, 0
3, 20184, Note_on_c, 0, 74, 64
3, 20196, Note_on_c, 0, 74, 0
3, 20196, Note_on_c, 0, 76, 64
3, 20208, Note_on_c, 0, 76, 0
3, 20208, Note_on_c, 0, 74, 64
3, 20220, Note_on_c, 0, 74, 0
3, 20220, Note_on_c, 0, 76, 64
3, 20232, Note_on_c, 0, 76, 0
3, 20232, Note_on_c, 0, 74, 64
3, 20244, Note_on_c, 0, 74, 0
3, 20244, Note_on_c, 0, 76, 64
3, 20256, Note_on_c, 0, 76, 0
3, 20256, Note_on_c, 0, 74, 64
3, 20268, Note_on_c, 0, 74, 0
3, 20268, Note_on_c, 0, 76, 64
3, 20280, Note_on_c, 0, 76, 0
3, 20280, Note_on_c, 0, 74, 64
3, 20292, Note_on_c, 0, 74, 0
3, 20292, Note_on_c, 0, 76, 64
3, 20304, Note_on_c, 0, 76, 0
3, 20304, Note_on_c, 0, 74, 64
3, 20316, Note_on_c, 0, 74, 0
3, 20496, Note_on_c, 0, 69, 64
3, 20585, Note_on_c, 0, 69, 0
3, 20592, Note_on_c, 0, 69, 64
3, 20637, Note_on_c, 0, 69, 0
3, 20640, Note_on_c, 0, 67, 64
3, 20663, Note_on_c, 0, 67, 0
3, 20664, Note_on_c, 0, 66, 64
3, 20687, Note_on_c, 0, 66, 0
3, 20688, Note_on_c, 0, 64, 64
3, 20711, Note_on_c, 0, 64, 0
3, 20712, Note_on_c, 0, 62, 64
3, 20735, Note_on_c, 0, 62, 0
3, 20736, Note_on_c, 0, 67, 64
3, 20759, Note_on_c, 0, 67, 0
3, 20760, Note_on_c, 0, 66, 64
3, 20783, Note_on_c, 0, 66, 0
3, 20784, Note_on_c, 0, 67, 64
3, 20807, Note_on_c, 0, 67, 0
3, 20808, Note_on_c, 0, 69, 64
3, 20831, Note_on_c, 0, 69, 0
3, 20832, Note_on_c, 0, 71, 64
3, 20855, Note_on_c, 0, 71, 0
3, 20856, Note_on_c, 0, 67, 64
3, 20879, Note_on_c, 0, 67, 0
3, 20880, Note_on_c, 0, 69, 64
3, 20903, Note_on_c, 0, 69, 0
3, 20904, Note_on_c, 0, 67, 64
3, 20927, Note_on_c, 0, 67, 0
3, 20928, Note_on_c, 0, 69, 64
3, 20951, Note_on_c, 0, 69, 0
3, 20952, Note_on_c, 0, 71, 64
3, 20975, Note_on_c, 0, 71, 0
3, 20976, Note_on_c, 0, 72, 64
3, 20999, Note_on_c, 0, 72, 0
3, 21000, Note_on_c, 0, 69, 64
3, 21023, Note_on_c, 0, 69, 0
3, 21024, Note_on_c, 0, 71, 64
3, 21047, Note_on_c, 0, 71, 0
3, 21048, Note_on_c, 0, 69, 64
3, 21071, Note_on_c, 0, 69, 0
3, 21072, Note_on_c, 0, 71, 64
3, 21095, Note_on_c, 0, 71, 0
3, 21096, Note_on_c, 0, 72, 64
3, 21119, Note_on_c, 0, 72, 0
3, 21120, Note_on_c, 0, 71, 64
3, 21143, Note_on_c, 0, 71, 0
3, 21144, Note_on_c, 0, 69, 64
3, 21167, Note_on_c, 0, 69, 0
3, 21168, Note_on_c, 0, 71, 64
3, 21191, Note_on_c, 0, 71, 0
3, 21192, Note_on_c, 0, 67, 64
3, 21215, Note_on_c, 0, 67, 0
3, 21216, Note_on_c, 0, 69, 64
3, 21239, Note_on_c, 0, 69, 0
3, 21240, Note_on_c, 0, 71, 64
3, 21263, Note_on_c, 0, 71, 0
3, 21264, Note_on_c, 0, 72, 64
3, 21287, Note_on_c, 0, 72, 0
3, 21288, Note_on_c, 0, 74, 64
3, 21311, Note_on_c, 0, 74, 0
3, 21312, Note_on_c, 0, 76, 64
3, 21357, Note_on_c, 0, 76, 0
3, 21360, Note_on_c, 0, 79, 64
3, 21405, Note_on_c, 0, 79, 0
3, 21408, Note_on_c, 0, 84, 64
3, 21501, Note_on_c, 0, 84, 0
3, 21504, Note_on_c, 0, 83, 64
3, 21527, Note_on_c, 0, 83, 0
3, 21528, Note_on_c, 0, 81, 64
3, 21551, Note_on_c, 0, 81, 0
3, 21552, Note_on_c, 0, 83, 64
3, 21597, Note_on_c, 0, 83, 0
3, 21600, Note_on_c, 0, 84, 64
3, 21645, Note_on_c, 0, 84, 0
3, 21648, Note_on_c, 0, 86, 64
3, 21660, Note_on_c, 0, 86, 0
3, 21660, Note_on_c, 0, 84, 64
3, 21672, Note_on_c, 0, 84, 0
3, 21672, Note_on_c, 0, 83, 64
3, 21695, Note_on_c, 0, 83, 0
3, 21696, Note_on_c, 0, 84, 64
3, 21741, Note_on_c, 0, 84, 0
3, 21768, Note_on_c, 0, 77, 64
3, 21791, Note_on_c, 0, 77, 0
3, 21792, Note_on_c, 0, 76, 64
3, 21815, Note_on_c, 0, 76, 0
3, 21816, Note_on_c, 0, 74, 64
3, 21839, Note_on_c, 0, 74, 0
3, 21840, Note_on_c, 0, 76, 64
3, 21863, Note_on_c, 0, 76, 0
3, 21864, Note_on_c, 0, 72, 64
3, 21887, Note_on_c, 0, 72, 0
3, 21888, Note_on_c, 0, 74, 64
3, 21933, Note_on_c, 0, 74, 0
3, 21936, Note_on_c, 0, 76, 64
3, 21948, Note_on_c, 0, 76, 0
3, 21948, Note_on_c, 0, 74, 64
3, 21960, Note_on_c, 0, 74, 0
3, 21960, Note_on_c, 0, 72, 64
3, 21983, Note_on_c, 0, 72, 0
3, 21984, Note_on_c, 0, 74, 64
3, 22029, Note_on_c, 0, 74, 0
3, 22056, Note_on_c, 0, 72, 64
3, 22079, Note_on_c, 0, 72, 0
3, 22080, Note_on_c, 0, 71, 64
3, 22103, Note_on_c, 0, 71, 0
3, 22104, Note_on_c, 0, 69, 64
3, 22127, Note_on_c, 0, 69, 0
3, 22128, Note_on_c, 0, 71, 64
3, 22151, Note_on_c, 0, 71, 0
3, 22152, Note_on_c, 0, 68, 64
3, 22175, Note_on_c, 0, 68, 0
3, 22176, Note_on_c, 0, 69, 64
3, 22221, Note_on_c, 0, 69, 0
3, 22224, Note_on_c, 0, 83, 64
3, 22236, Note_on_c, 0, 83, 0
3, 22236, Note_on_c, 0, 81, 64
3, 22248, Note_on_c, 0, 81, 0
3, 22248, Note_on_c, 0, 80, 64
3, 22271, Note_on_c, 0, 80, 0
3, 22272, Note_on_c, 0, 81, 64
3, 22317, Note_on_c, 0, 81, 0
3, 22344, Note_on_c, 0, 74, 64
3, 22367, Note_on_c, 0, 74, 0
3, 22368, Note_on_c, 0, 72, 64
3, 22391, Note_on_c, 0, 72, 0
3, 22392, Note_on_c, 0, 71, 64
3, 22415, Note_on_c, 0, 71, 0
3, 22416, Note_on_c, 0, 72, 64
3, 22439, Note_on_c, 0, 72, 0
3, 22440, Note_on_c, 0, 69, 64
3, 22463, Note_on_c, 0, 69, 0
3, 22464, Note_on_c, 0, 71, 64
3, 22509, Note_on_c, 0, 71, 0
3, 22512, Note_on_c, 0, 72, 64
3, 22524, Note_on_c, 0, 72, 0
3, 22524, Note_on_c, 0, 71, 64
3, 22536, Note_on_c, 0, 71, 0
3, 22536, Note_on_c, 0, 69, 64
3, 22559, Note_on_c, 0, 69, 0
3, 22560, Note_on_c, 0, 71, 64
3, 22605, Note_on_c, 0, 71, 0
3, 22632, Note_on_c, 0, 69, 64
3, 22655, Note_on_c, 0, 69, 0
3, 22656, Note_on_c, 0, 67, 64
3, 22679, Note_on_c, 0, 67, 0
3, 22680, Note_on_c, 0, 66, 64
3, 22703, Note_on_c, 0, 66, 0
3, 22704, Note_on_c, 0, 67, 64
3, 22727, Note_on_c, 0, 67, 0
3, 22728, Note_on_c, 0, 64, 64
3, 22751, Note_on_c, 0, 64, 0
3, 22752, Note_on_c, 0, 66, 64
3, 22797, Note_on_c, 0, 66, 0
3, 22896, Note_on_c, 0, 72, 64
3, 22941, Note_on_c, 0, 72, 0
3, 23040, Note_on_c, 0, 67, 64
3, 23063, Note_on_c, 0, 67, 0
3, 23064, Note_on_c, 0, 69, 64
3, 23087, Note_on_c, 0, 69, 0
3, 23088, Note_on_c, 0, 71, 64
3, 23111, Note_on_c, 0, 71, 0
3, 23112, Note_on_c, 0, 72, 64
3, 23135, Note_on_c, 0, 72, 0
3, 23136, Note_on_c, 0, 71, 64
3, 23159, Note_on_c, 0, 71, 0
3, 23160, Note_on_c, 0, 69, 64
3, 23183, Note_on_c, 0, 69, 0
3, 23184, Note_on_c, 0, 71, 64
3, 23207, Note_on_c, 0, 71, 0
3, 23208, Note_on_c, 0, 67, 64
3, 23231, Note_on_c, 0, 67, 0
3, 23232, Note_on_c, 0, 69, 64
3, 23255, Note_on_c, 0, 69, 0
3, 23256, Note_on_c, 0, 71, 64
3, 23279, Note_on_c, 0, 71, 0
3, 23280, Note_on_c, 0, 73, 64
3, 23303, Note_on_c, 0, 73, 0
3, 23304, Note_on_c, 0, 74, 64
3, 23327, Note_on_c, 0, 74, 0
3, 23328, Note_on_c, 0, 76, 64
3, 23373, Note_on_c, 0, 76, 0
3, 23472, Note_on_c, 0, 73, 64
3, 23517, Note_on_c, 0, 73, 0
3, 23616, Note_on_c, 0, 66, 64
3, 23639, Note_on_c, 0, 66, 0
3, 23640, Note_on_c, 0, 68, 64
3, 23663, Note_on_c, 0, 68, 0
3, 23664, Note_on_c, 0, 70, 64
3, 23687, Note_on_c, 0, 70, 0
3, 23688, Note_on_c, 0, 71, 64
3, 23711, Note_on_c, 0, 71, 0
3, 23712, Note_on_c, 0, 70, 64
3, 23735, Note_on_c, 0, 70, 0
3, 23736, Note_on_c, 0, 68, 64
3, 23759, Note_on_c, 0, 68, 0
3, 23760, Note_on_c, 0, 70, 64
3, 23783, Note_on_c, 0, 70, 0
3, 23784, Note_on_c, 0, 66, 64
3, 23807, Note_on_c, 0, 66, 0
3, 23808, Note_on_c, 0, 68, 64
3, 23831, Note_on_c, 0, 68, 0
3, 23832, Note_on_c, 0, 70, 64
3, 23855, Note_on_c, 0, 70, 0
3, 23856, Note_on_c, 0, 71, 64
3, 23879, Note_on_c, 0, 71, 0
3, 23880, Note_on_c, 0, 73, 64
3, 23903, Note_on_c, 0, 73, 0
3, 23904, Note_on_c, 0, 74, 64
3, 23927, Note_on_c, 0, 74, 0
3, 23928, Note_on_c, 0, 76, 64
3, 23951, Note_on_c, 0, 76, 0
3, 23952, Note_on_c, 0, 74, 64
3, 23975, Note_on_c, 0, 74, 0
3, 23976, Note_on_c, 0, 73, 64
3, 23999, Note_on_c, 0, 73, 0
3, 24000, Note_on_c, 0, 74, 64
3, 24023, Note_on_c, 0, 74, 0
3, 24024, Note_on_c, 0, 71, 64
3, 24047, Note_on_c, 0, 71, 0
3, 24048, Note_on_c, 0, 76, 64
3, 24071, Note_on_c, 0, 76, 0
3, 24072, Note_on_c, 0, 78, 64
3, 24095, Note_on_c, 0, 78, 0
3, 24096, Note_on_c, 0, 76, 64
3, 24119, Note_on_c, 0, 76, 0
3, 24120, Note_on_c, 0, 74, 64
3, 24143, Note_on_c, 0, 74, 0
3, 24144, Note_on_c, 0, 76, 64
3, 24167, Note_on_c, 0, 76, 0
3, 24168, Note_on_c, 0, 73, 64
3, 24191, Note_on_c, 0, 73, 0
3, 24192, Note_on_c, 0, 78, 64
3, 24215, Note_on_c, 0, 78, 0
3, 24216, Note_on_c, 0, 79, 64
3, 24239, Note_on_c, 0, 79, 0
3, 24240, Note_on_c, 0, 78, 64
3, 24263, Note_on_c, 0, 78, 0
3, 24264, Note_on_c, 0, 76, 64
3, 24287, Note_on_c, 0, 76, 0
3, 24288, Note_on_c, 0, 78, 64
3, 24311, Note_on_c, 0, 78, 0
3, 24312, Note_on_c, 0, 75, 64
3, 24335, Note_on_c, 0, 75, 0
3, 24336, Note_on_c, 0, 83, 64
3, 24381, Note_on_c, 0, 83, 0
3, 24384, Note_on_c, 0, 71, 64
3, 24429, Note_on_c, 0, 71, 0
3, 24432, Note_on_c, 0, 76, 64
3, 24503, Note_on_c, 0, 76, 0
3, 24504, Note_on_c, 0, 74, 64
3, 24527, Note_on_c, 0, 74, 0
3, 24528, Note_on_c, 0, 76, 64
3, 24551, Note_on_c, 0, 76, 0
3, 24552, Note_on_c, 0, 73, 64
3, 24575, Note_on_c, 0, 73, 0
3, 24576, Note_on_c, 0, 74, 64
3, 24669, Note_on_c, 0, 74, 0
3, 24672, Note_on_c, 0, 73, 64
3, 24695, Note_on_c, 0, 73, 0
3, 24696, Note_on_c, 0, 71, 64
3, 24719, Note_on_c, 0, 71, 0
3, 24720, Note_on_c, 0, 70, 64
3, 24743, Note_on_c, 0, 70, 0
3, 24744, Note_on_c, 0, 68, 64
3, 24767, Note_on_c, 0, 68, 0
3, 24768, Note_on_c, 0, 70, 64
3, 24813, Note_on_c, 0, 70, 0
3, 24816, Note_on_c, 0, 66, 64
3, 24861, Note_on_c, 0, 66, 0
3, 24864, Note_on_c, 0, 71, 64
3, 24935, Note_on_c, 0, 71, 0
3, 24936, Note_on_c, 0, 73, 64
3, 24959, Note_on_c, 0, 73, 0
3, 24960, Note_on_c, 0, 73, 64
3, 25027, Note_on_c, 0, 73, 0
3, 25032, Note_on_c, 0, 71, 64
3, 25055, Note_on_c, 0, 71, 0
3, 25056, Note_on_c, 0, 71, 64
3, 25145, Note_on_c, 0, 71, 0
3, 26496, Note_on_c, 0, 62, 64
3, 26541, Note_on_c, 0, 62, 0
3, 26544, Note_on_c, 0, 74, 64
3, 26589, Note_on_c, 0, 74, 0
3, 26592, Note_on_c, 0, 74, 64
3, 26637, Note_on_c, 0, 74, 0
3, 26640, Note_on_c, 0, 64, 64
3, 26685, Note_on_c, 0, 64, 0
3, 26688, Note_on_c, 0, 74, 64
3, 26733, Note_on_c, 0, 74, 0
3, 26736, Note_on_c, 0, 74, 64
3, 26781, Note_on_c, 0, 74, 0
3, 26784, Note_on_c, 0, 66, 64
3, 26829, Note_on_c, 0, 66, 0
3, 26832, Note_on_c, 0, 74, 64
3, 26877, Note_on_c, 0, 74, 0
3, 26880, Note_on_c, 0, 74, 64
3, 26925, Note_on_c, 0, 74, 0
3, 26928, Note_on_c, 0, 67, 64
3, 26973, Note_on_c, 0, 67, 0
3, 26976, Note_on_c, 0, 76, 64
3, 27021, Note_on_c, 0, 76, 0
3, 27024, Note_on_c, 0, 71, 64
3, 27069, Note_on_c, 0, 71, 0
3, 27072, Note_on_c, 0, 73, 64
3, 27117, Note_on_c, 0, 73, 0
3, 27120, Note_on_c, 0, 69, 64
3, 27165, Note_on_c, 0, 69, 0
3, 27168, Note_on_c, 0, 74, 64
3, 27213, Note_on_c, 0, 74, 0
3, 27216, Note_on_c, 0, 71, 64
3, 27261, Note_on_c, 0, 71, 0
3, 27264, Note_on_c, 0, 67, 64
3, 27309, Note_on_c, 0, 67, 0
3, 27312, Note_on_c, 0, 69, 64
3, 27357, Note_on_c, 0, 69, 0
3, 27360, Note_on_c, 0, 62, 64
3, 27405, Note_on_c, 0, 62, 0
3, 27408, Note_on_c, 0, 79, 64
3, 27549, Note_on_c, 0, 79, 0
3, 27552, Note_on_c, 0, 78, 64
3, 27575, Note_on_c, 0, 78, 0
3, 27576, Note_on_c, 0, 76, 64
3, 27599, Note_on_c, 0, 76, 0
3, 27600, Note_on_c, 0, 74, 64
3, 27623, Note_on_c, 0, 74, 0
3, 27624, Note_on_c, 0, 72, 64
3, 27647, Note_on_c, 0, 72, 0
3, 27648, Note_on_c, 0, 71, 64
3, 27671, Note_on_c, 0, 71, 0
3, 27672, Note_on_c, 0, 72, 64
3, 27695, Note_on_c, 0, 72, 0
3, 27696, Note_on_c, 0, 71, 64
3, 27719, Note_on_c, 0, 71, 0
3, 27720, Note_on_c, 0, 69, 64
3, 27743, Note_on_c, 0, 69, 0
3, 27744, Note_on_c, 0, 71, 64
3, 27767, Note_on_c, 0, 71, 0
3, 27768, Note_on_c, 0, 67, 64
3, 27791, Note_on_c, 0, 67, 0
3, 27792, Note_on_c, 0, 72, 64
3, 27815, Note_on_c, 0, 72, 0
3, 27816, Note_on_c, 0, 74, 64
3, 27839, Note_on_c, 0, 74, 0
3, 27840, Note_on_c, 0, 72, 64
3, 27863, Note_on_c, 0, 72, 0
3, 27864, Note_on_c, 0, 71, 64
3, 27887, Note_on_c, 0, 71, 0
3, 27888, Note_on_c, 0, 72, 64
3, 27911, Note_on_c, 0, 72, 0
3, 27912, Note_on_c, 0, 69, 64
3, 27935, Note_on_c, 0, 69, 0
3, 27936, Note_on_c, 0, 74, 64
3, 27959, Note_on_c, 0, 74, 0
3, 27960, Note_on_c, 0, 76, 64
3, 27983, Note_on_c, 0, 76, 0
3, 27984, Note_on_c, 0, 74, 64
3, 28007, Note_on_c, 0, 74, 0
3, 28008, Note_on_c, 0, 72, 64
3, 28031, Note_on_c, 0, 72, 0
3, 28032, Note_on_c, 0, 74, 64
3, 28055, Note_on_c, 0, 74, 0
3, 28056, Note_on_c, 0, 71, 64
3, 28079, Note_on_c, 0, 71, 0
3, 28080, Note_on_c, 0, 76, 64
3, 28103, Note_on_c, 0, 76, 0
3, 28104, Note_on_c, 0, 77, 64
3, 28127, Note_on_c, 0, 77, 0
3, 28128, Note_on_c, 0, 76, 64
3, 28151, Note_on_c, 0, 76, 0
3, 28152, Note_on_c, 0, 74, 64
3, 28175, Note_on_c, 0, 74, 0
3, 28176, Note_on_c, 0, 76, 64
3, 28199, Note_on_c, 0, 76, 0
3, 28200, Note_on_c, 0, 72, 64
3, 28223, Note_on_c, 0, 72, 0
3, 28224, Note_on_c, 0, 74, 64
3, 28247, Note_on_c, 0, 74, 0
3, 28248, Note_on_c, 0, 76, 64
3, 28271, Note_on_c, 0, 76, 0
3, 28272, Note_on_c, 0, 74, 64
3, 28295, Note_on_c, 0, 74, 0
3, 28296, Note_on_c, 0, 72, 64
3, 28319, Note_on_c, 0, 72, 0
3, 28320, Note_on_c, 0, 74, 64
3, 28343, Note_on_c, 0, 74, 0
3, 28344, Note_on_c, 0, 71, 64
3, 28367, Note_on_c, 0, 71, 0
3, 28368, Note_on_c, 0, 72, 64
3, 28391, Note_on_c, 0, 72, 0
3, 28392, Note_on_c, 0, 74, 64
3, 28415, Note_on_c, 0, 74, 0
3, 28416, Note_on_c, 0, 72, 64
3, 28439, Note_on_c, 0, 72, 0
3, 28440, Note_on_c, 0, 71, 64
3, 28463, Note_on_c, 0, 71, 0
3, 28464, Note_on_c, 0, 72, 64
3, 28487, Note_on_c, 0, 72, 0
3, 28488, Note_on_c, 0, 69, 64
3, 28511, Note_on_c, 0, 69, 0
3, 28512, Note_on_c, 0, 71, 64
3, 28535, Note_on_c, 0, 71, 0
3, 28536, Note_on_c, 0, 69, 64
3, 28559, Note_on_c, 0, 69, 0
3, 28560, Note_on_c, 0, 67, 64
3, 28583, Note_on_c, 0, 67, 0
3, 28584, Note_on_c, 0, 66, 64
3, 28607, Note_on_c, 0, 66, 0
3, 28608, Note_on_c, 0, 64, 64
3, 28631, Note_on_c, 0, 64, 0
3, 28632, Note_on_c, 0, 60, 64
3, 28677, Note_on_c, 0, 60, 0
3, 28680, Note_on_c, 0, 84, 64
3, 28769, Note_on_c, 0, 84, 0
3, 28800, Note_on_c, 0, 84, 64
3, 28845, Note_on_c, 0, 84, 0
3, 28848, Note_on_c, 0, 83, 64
3, 28871, Note_on_c, 0, 83, 0
3, 28872, Note_on_c, 0, 81, 64
3, 28895, Note_on_c, 0, 81, 0
3, 28896, Note_on_c, 0, 79, 64
3, 28919, Note_on_c, 0, 79, 0
3, 28920, Note_on_c, 0, 77, 64
3, 28943, Note_on_c, 0, 77, 0
3, 28944, Note_on_c, 0, 76, 64
3, 28967, Note_on_c, 0, 76, 0
3, 28968, Note_on_c, 0, 77, 64
3, 28991, Note_on_c, 0, 77, 0
3, 28992, Note_on_c, 0, 76, 64
3, 29015, Note_on_c, 0, 76, 0
3, 29016, Note_on_c, 0, 74, 64
3, 29039, Note_on_c, 0, 74, 0
3, 29040, Note_on_c, 0, 72, 64
3, 29063, Note_on_c, 0, 72, 0
3, 29064, Note_on_c, 0, 71, 64
3, 29087, Note_on_c, 0, 71, 0
3, 29088, Note_on_c, 0, 69, 64
3, 29177, Note_on_c, 0, 69, 0
3, 29376, Note_on_c, 0, 67, 64
3, 29399, Note_on_c, 0, 67, 0
3, 29400, Note_on_c, 0, 69, 64
3, 29423, Note_on_c, 0, 69, 0
3, 29424, Note_on_c, 0, 71, 64
3, 29447, Note_on_c, 0, 71, 0
3, 29448, Note_on_c, 0, 72, 64
3, 29471, Note_on_c, 0, 72, 0
3, 29472, Note_on_c, 0, 71, 64
3, 29495, Note_on_c, 0, 71, 0
3, 29496, Note_on_c, 0, 69, 64
3, 29519, Note_on_c, 0, 69, 0
3, 29520, Note_on_c, 0, 71, 64
3, 29543, Note_on_c, 0, 71, 0
3, 29544, Note_on_c, 0, 67, 64
3, 29567, Note_on_c, 0, 67, 0
3, 29568, Note_on_c, 0, 69, 64
3, 29591, Note_on_c, 0, 69, 0
3, 29592, Note_on_c, 0, 71, 64
3, 29615, Note_on_c, 0, 71, 0
3, 29616, Note_on_c, 0, 72, 64
3, 29639, Note_on_c, 0, 72, 0
3, 29640, Note_on_c, 0, 74, 64
3, 29663, Note_on_c, 0, 74, 0
3, 29664, Note_on_c, 0, 76, 64
3, 29753, Note_on_c, 0, 76, 0
3, 29952, Note_on_c, 0, 66, 64
3, 29975, Note_on_c, 0, 66, 0
3, 29976, Note_on_c, 0, 67, 64
3, 29999, Note_on_c, 0, 67, 0
3, 30000, Note_on_c, 0, 69, 64
3, 30023, Note_on_c, 0, 69, 0
3, 30024, Note_on_c, 0, 71, 64
3, 30047, Note_on_c, 0, 71, 0
3, 30048, Note_on_c, 0, 69, 64
3, 30071, Note_on_c, 0, 69, 0
3, 30072, Note_on_c, 0, 67, 64
3, 30095, Note_on_c, 0, 67, 0
3, 30096, Note_on_c, 0, 69, 64
3, 30119, Note_on_c, 0, 69, 0
3, 30120, Note_on_c, 0, 66, 64
3, 30143, Note_on_c, 0, 66, 0
3, 30144, Note_on_c, 0, 67, 64
3, 30167, Note_on_c, 0, 67, 0
3, 30168, Note_on_c, 0, 69, 64
3, 30191, Note_on_c, 0, 69, 0
3, 30192, Note_on_c, 0, 71, 64
3, 30215, Note_on_c, 0, 71, 0
3, 30216, Note_on_c, 0, 72, 64
3, 30239, Note_on_c, 0, 72, 0
3, 30240, Note_on_c, 0, 74, 64
3, 30329, Note_on_c, 0, 74, 0
3, 30336, Note_on_c, 0, 78, 64
3, 30381, Note_on_c, 0, 78, 0
3, 30384, Note_on_c, 0, 71, 64
3, 30473, Note_on_c, 0, 71, 0
3, 30480, Note_on_c, 0, 74, 64
3, 30525, Note_on_c, 0, 74, 0
3, 30528, Note_on_c, 0, 64, 64
3, 30551, Note_on_c, 0, 64, 0
3, 30552, Note_on_c, 0, 66, 64
3, 30575, Note_on_c, 0, 66, 0
3, 30576, Note_on_c, 0, 67, 64
3, 30599, Note_on_c, 0, 67, 0
3, 30600, Note_on_c, 0, 69, 64
3, 30623, Note_on_c, 0, 69, 0
3, 30624, Note_on_c, 0, 67, 64
3, 30647, Note_on_c, 0, 67, 0
3, 30648, Note_on_c, 0, 66, 64
3, 30671, Note_on_c, 0, 66, 0
3, 30672, Note_on_c, 0, 67, 64
3, 30695, Note_on_c, 0, 67, 0
3, 30696, Note_on_c, 0, 64, 64
3, 30719, Note_on_c, 0, 64, 0
3, 30720, Note_on_c, 0, 66, 64
3, 30743, Note_on_c, 0, 66, 0
3, 30744, Note_on_c, 0, 67, 64
3, 30767, Note_on_c, 0, 67, 0
3, 30768, Note_on_c, 0, 69, 64
3, 30791, Note_on_c, 0, 69, 0
3, 30792, Note_on_c, 0, 71, 64
3, 30815, Note_on_c, 0, 71, 0
3, 30816, Note_on_c, 0, 72, 64
3, 30839, Note_on_c, 0, 72, 0
3, 30840, Note_on_c, 0, 74, 64
3, 30863, Note_on_c, 0, 74, 0
3, 30864, Note_on_c, 0, 76, 64
3, 30887, Note_on_c, 0, 76, 0
3, 30888, Note_on_c, 0, 77, 64
3, 30911, Note_on_c, 0, 77, 0
3, 30912, Note_on_c, 0, 76, 64
3, 30935, Note_on_c, 0, 76, 0
3, 30936, Note_on_c, 0, 74, 64
3, 30959, Note_on_c, 0, 74, 0
3, 30960, Note_on_c, 0, 76, 64
3, 30983, Note_on_c, 0, 76, 0
3, 30984, Note_on_c, 0, 72, 64
3, 31007, Note_on_c, 0, 72, 0
3, 31008, Note_on_c, 0, 74, 64
3, 31031, Note_on_c, 0, 74, 0
3, 31032, Note_on_c, 0, 76, 64
3, 31055, Note_on_c, 0, 76, 0
3, 31056, Note_on_c, 0, 78, 64
3, 31079, Note_on_c, 0, 78, 0
3, 31080, Note_on_c, 0, 79, 64
3, 31103, Note_on_c, 0, 79, 0
3, 31104, Note_on_c, 0, 81, 64
3, 31149, Note_on_c, 0, 81, 0
3, 31152, Note_on_c, 0, 72, 64
3, 31175, Note_on_c, 0, 72, 0
3, 31176, Note_on_c, 0, 71, 64
3, 31199, Note_on_c, 0, 71, 0
3, 31200, Note_on_c, 0, 72, 64
3, 31245, Note_on_c, 0, 72, 0
3, 31248, Note_on_c, 0, 72, 64
3, 31293, Note_on_c, 0, 72, 0
3, 31296, Note_on_c, 0, 81, 64
3, 31437, Note_on_c, 0, 81, 0
3, 31440, Note_on_c, 0, 79, 64
3, 31463, Note_on_c, 0, 79, 0
3, 31464, Note_on_c, 0, 78, 64
3, 31487, Note_on_c, 0, 78, 0
3, 31488, Note_on_c, 0, 79, 64
3, 31581, Note_on_c, 0, 79, 0
3, 31584, Note_on_c, 0, 78, 64
3, 31607, Note_on_c, 0, 78, 0
3, 31608, Note_on_c, 0, 76, 64
3, 31631, Note_on_c, 0, 76, 0
3, 31632, Note_on_c, 0, 78, 64
3, 31655, Note_on_c, 0, 78, 0
3, 31656, Note_on_c, 0, 81, 64
3, 31679, Note_on_c, 0, 81, 0
3, 31680, Note_on_c, 0, 74, 64
3, 31703, Note_on_c, 0, 74, 0
3, 31704, Note_on_c, 0, 76, 64
3, 31727, Note_on_c, 0, 76, 0
3, 31728, Note_on_c, 0, 74, 64
3, 31751, Note_on_c, 0, 74, 0
3, 31752, Note_on_c, 0, 72, 64
3, 31775, Note_on_c, 0, 72, 0
3, 31776, Note_on_c, 0, 74, 64
3, 31799, Note_on_c, 0, 74, 0
3, 31800, Note_on_c, 0, 71, 64
3, 31823, Note_on_c, 0, 71, 0
3, 31824, Note_on_c, 0, 72, 64
3, 31847, Note_on_c, 0, 72, 0
3, 31848, Note_on_c, 0, 74, 64
3, 31871, Note_on_c, 0, 74, 0
3, 31872, Note_on_c, 0, 72, 64
3, 31895, Note_on_c, 0, 72, 0
3, 31896, Note_on_c, 0, 71, 64
3, 31919, Note_on_c, 0, 71, 0
3, 31920, Note_on_c, 0, 72, 64
3, 31943, Note_on_c, 0, 72, 0
3, 31944, Note_on_c, 0, 69, 64
3, 31967, Note_on_c, 0, 69, 0
3, 31968, Note_on_c, 0, 71, 64
3, 32013, Note_on_c, 0, 71, 0
3, 32016, Note_on_c, 0, 76, 64
3, 32157, Note_on_c, 0, 76, 0
3, 32160, Note_on_c, 0, 74, 64
3, 32183, Note_on_c, 0, 74, 0
3, 32184, Note_on_c, 0, 72, 64
3, 32207, Note_on_c, 0, 72, 0
3, 32208, Note_on_c, 0, 71, 64
3, 32231, Note_on_c, 0, 71, 0
3, 32232, Note_on_c, 0, 69, 64
3, 32255, Note_on_c, 0, 69, 0
3, 32256, Note_on_c, 0, 67, 64
3, 32301, Note_on_c, 0, 67, 0
3, 32304, Note_on_c, 0, 72, 64
3, 32445, Note_on_c, 0, 72, 0
3, 32448, Note_on_c, 0, 71, 64
3, 32471, Note_on_c, 0, 71, 0
3, 32472, Note_on_c, 0, 69, 64
3, 32495, Note_on_c, 0, 69, 0
3, 32496, Note_on_c, 0, 67, 64
3, 32519, Note_on_c, 0, 67, 0
3, 32520, Note_on_c, 0, 66, 64
3, 32543, Note_on_c, 0, 66, 0
3, 32544, Note_on_c, 0, 64, 64
3, 32589, Note_on_c, 0, 64, 0
3, 32592, Note_on_c, 0, 69, 64
3, 32733, Note_on_c, 0, 69, 0
3, 32736, Note_on_c, 0, 67, 64
3, 32759, Note_on_c, 0, 67, 0
3, 32760, Note_on_c, 0, 66, 64
3, 32783, Note_on_c, 0, 66, 0
3, 32784, Note_on_c, 0, 64, 64
3, 32807, Note_on_c, 0, 64, 0
3, 32808, Note_on_c, 0, 62, 64
3, 32831, Note_on_c, 0, 62, 0
3, 32832, Note_on_c, 0, 61, 64
3, 32877, Note_on_c, 0, 61, 0
3, 32880, Note_on_c, 0, 73, 64
3, 32903, Note_on_c, 0, 73, 0
3, 32904, Note_on_c, 0, 74, 64
3, 32927, Note_on_c, 0, 74, 0
3, 32928, Note_on_c, 0, 76, 64
3, 32999, Note_on_c, 0, 76, 0
3, 33000, Note_on_c, 0, 78, 64
3, 33023, Note_on_c, 0, 78, 0
3, 33024, Note_on_c, 0, 76, 64
3, 33047, Note_on_c, 0, 76, 0
3, 33048, Note_on_c, 0, 74, 64
3, 33071, Note_on_c, 0, 74, 0
3, 33072, Note_on_c, 0, 76, 64
3, 33095, Note_on_c, 0, 76, 0
3, 33096, Note_on_c, 0, 73, 64
3, 33119, Note_on_c, 0, 73, 0
3, 33120, Note_on_c, 0, 74, 64
3, 33143, Note_on_c, 0, 74, 0
3, 33144, Note_on_c, 0, 81, 64
3, 33167, Note_on_c, 0, 81, 0
3, 33168, Note_on_c, 0, 72, 64
3, 33191, Note_on_c, 0, 72, 0
3, 33192, Note_on_c, 0, 71, 64
3, 33215, Note_on_c, 0, 71, 0
3, 33216, Note_on_c, 0, 72, 64
3, 33239, Note_on_c, 0, 72, 0
3, 33240, Note_on_c, 0, 69, 64
3, 33263, Note_on_c, 0, 69, 0
3, 33264, Note_on_c, 0, 62, 64
3, 33287, Note_on_c, 0, 62, 0
3, 33288, Note_on_c, 0, 74, 64
3, 33311, Note_on_c, 0, 74, 0
3, 33312, Note_on_c, 0, 72, 64
3, 33335, Note_on_c, 0, 72, 0
3, 33336, Note_on_c, 0, 71, 64
3, 33359, Note_on_c, 0, 71, 0
3, 33360, Note_on_c, 0, 72, 64
3, 33383, Note_on_c, 0, 72, 0
3, 33384, Note_on_c, 0, 69, 64
3, 33407, Note_on_c, 0, 69, 0
3, 33408, Note_on_c, 0, 71, 64
3, 33453, Note_on_c, 0, 71, 0
3, 33456, Note_on_c, 0, 67, 64
3, 33479, Note_on_c, 0, 67, 0
3, 33480, Note_on_c, 0, 69, 64
3, 33503, Note_on_c, 0, 69, 0
3, 33504, Note_on_c, 0, 71, 64
3, 33527, Note_on_c, 0, 71, 0
3, 33528, Note_on_c, 0, 72, 64
3, 33551, Note_on_c, 0, 72, 0
3, 33552, Note_on_c, 0, 74, 64
3, 33597, Note_on_c, 0, 74, 0
3, 33600, Note_on_c, 0, 72, 64
3, 33623, Note_on_c, 0, 72, 0
3, 33624, Note_on_c, 0, 71, 64
3, 33647, Note_on_c, 0, 71, 0
3, 33648, Note_on_c, 0, 69, 64
3, 33671, Note_on_c, 0, 69, 0
3, 33672, Note_on_c, 0, 67, 64
3, 33695, Note_on_c, 0, 67, 0
3, 33696, Note_on_c, 0, 79, 64
3, 33885, Note_on_c, 0, 79, 0
3, 33888, Note_on_c, 0, 83, 64
3, 33911, Note_on_c, 0, 83, 0
3, 33912, Note_on_c, 0, 81, 64
3, 33935, Note_on_c, 0, 81, 0
3, 33936, Note_on_c, 0, 79, 64
3, 33959, Note_on_c, 0, 79, 0
3, 33960, Note_on_c, 0, 78, 64
3, 33983, Note_on_c, 0, 78, 0
3, 33984, Note_on_c, 0, 79, 64
3, 34073, Note_on_c, 0, 79, 0
3, 34073, End_track
4, 0, Start_track
4, 0, MIDI_port, 0
4, 0, Title_t, "Clavier (LH)"
4, 0, Program_c, 0, 6
4, 0, Control_c, 0, 7, 127
4, 0, Note_on_c, 0, 43, 64
4, 133, Note_on_c, 0, 43, 0
4, 384, Note_on_c, 0, 55, 64
4, 429, Note_on_c, 0, 55, 0
4, 432, Note_on_c, 0, 52, 64
4, 477, Note_on_c, 0, 52, 0
4, 480, Note_on_c, 0, 60, 64
4, 665, Note_on_c, 0, 60, 0
4, 672, Note_on_c, 0, 59, 64
4, 717, Note_on_c, 0, 59, 0
4, 720, Note_on_c, 0, 60, 64
4, 765, Note_on_c, 0, 60, 0
4, 768, Note_on_c, 0, 57, 64
4, 813, Note_on_c, 0, 57, 0
4, 816, Note_on_c, 0, 54, 64
4, 861, Note_on_c, 0, 54, 0
4, 864, Note_on_c, 0, 59, 64
4, 909, Note_on_c, 0, 59, 0
4, 912, Note_on_c, 0, 55, 64
4, 957, Note_on_c, 0, 55, 0
4, 960, Note_on_c, 0, 57, 64
4, 1005, Note_on_c, 0, 57, 0
4, 1008, Note_on_c, 0, 59, 64
4, 1053, Note_on_c, 0, 59, 0
4, 1056, Note_on_c, 0, 64, 64
4, 1101, Note_on_c, 0, 64, 0
4, 1104, Note_on_c, 0, 60, 64
4, 1149, Note_on_c, 0, 60, 0
4, 1152, Note_on_c, 0, 62, 64
4, 1285, Note_on_c, 0, 62, 0
4, 1536, Note_on_c, 0, 50, 64
4, 1581, Note_on_c, 0, 50, 0
4, 1584, Note_on_c, 0, 47, 64
4, 1629, Note_on_c, 0, 47, 0
4, 1632, Note_on_c, 0, 43, 64
4, 1677, Note_on_c, 0, 43, 0
4, 1680, Note_on_c, 0, 55, 64
4, 1773, Note_on_c, 0, 55, 0
4, 1776, Note_on_c, 0, 54, 64
4, 1821, Note_on_c, 0, 54, 0
4, 1824, Note_on_c, 0, 59, 64
4, 1869, Note_on_c, 0, 59, 0
4, 1872, Note_on_c, 0, 52, 64
4, 1917, Note_on_c, 0, 52, 0
4, 1920, Note_on_c, 0, 62, 64
4, 1965, Note_on_c, 0, 62, 0
4, 1968, Note_on_c, 0, 60, 64
4, 2061, Note_on_c, 0, 60, 0
4, 2064, Note_on_c, 0, 59, 64
4, 2109, Note_on_c, 0, 59, 0
4, 2112, Note_on_c, 0, 64, 64
4, 2157, Note_on_c, 0, 64, 0
4, 2160, Note_on_c, 0, 57, 64
4, 2205, Note_on_c, 0, 57, 0
4, 2208, Note_on_c, 0, 62, 64
4, 2253, Note_on_c, 0, 62, 0
4, 2256, Note_on_c, 0, 50, 64
4, 2301, Note_on_c, 0, 50, 0
4, 2304, Note_on_c, 0, 43, 64
4, 2349, Note_on_c, 0, 43, 0
4, 2352, Note_on_c, 0, 55, 64
4, 2397, Note_on_c, 0, 55, 0
4, 2400, Note_on_c, 0, 55, 64
4, 2445, Note_on_c, 0, 55, 0
4, 2448, Note_on_c, 0, 45, 64
4, 2493, Note_on_c, 0, 45, 0
4, 2496, Note_on_c, 0, 55, 64
4, 2541, Note_on_c, 0, 55, 0
4, 2544, Note_on_c, 0, 55, 64
4, 2589, Note_on_c, 0, 55, 0
4, 2592, Note_on_c, 0, 47, 64
4, 2637, Note_on_c, 0, 47, 0
4, 2640, Note_on_c, 0, 55, 64
4, 2685, Note_on_c, 0, 55, 0
4, 2688, Note_on_c, 0, 55, 64
4, 2733, Note_on_c, 0, 55, 0
4, 2736, Note_on_c, 0, 48, 64
4, 2781, Note_on_c, 0, 48, 0
4, 2784, Note_on_c, 0, 57, 64
4, 2829, Note_on_c, 0, 57, 0
4, 2832, Note_on_c, 0, 52, 64
4, 2877, Note_on_c, 0, 52, 0
4, 2880, Note_on_c, 0, 54, 64
4, 2925, Note_on_c, 0, 54, 0
4, 2928, Note_on_c, 0, 50, 64
4, 2973, Note_on_c, 0, 50, 0
4, 2976, Note_on_c, 0, 55, 64
4, 3021, Note_on_c, 0, 55, 0
4, 3024, Note_on_c, 0, 52, 64
4, 3069, Note_on_c, 0, 52, 0
4, 3072, Note_on_c, 0, 48, 64
4, 3117, Note_on_c, 0, 48, 0
4, 3120, Note_on_c, 0, 50, 64
4, 3165, Note_on_c, 0, 50, 0
4, 3168, Note_on_c, 0, 43, 64
4, 3213, Note_on_c, 0, 43, 0
4, 3216, Note_on_c, 0, 55, 64
4, 3261, Note_on_c, 0, 55, 0
4, 3264, Note_on_c, 0, 43, 64
4, 3309, Note_on_c, 0, 43, 0
4, 3312, Note_on_c, 0, 45, 64
4, 3357, Note_on_c, 0, 45, 0
4, 3360, Note_on_c, 0, 54, 64
4, 3405, Note_on_c, 0, 54, 0
4, 3408, Note_on_c, 0, 45, 64
4, 3453, Note_on_c, 0, 45, 0
4, 3456, Note_on_c, 0, 47, 64
4, 3501, Note_on_c, 0, 47, 0
4, 3504, Note_on_c, 0, 55, 64
4, 3549, Note_on_c, 0, 55, 0
4, 3552, Note_on_c, 0, 47, 64
4, 3597, Note_on_c, 0, 47, 0
4, 3600, Note_on_c, 0, 48, 64
4, 3645, Note_on_c, 0, 48, 0
4, 3648, Note_on_c, 0, 55, 64
4, 3693, Note_on_c, 0, 55, 0
4, 3696, Note_on_c, 0, 48, 64
4, 3741, Note_on_c, 0, 48, 0
4, 3744, Note_on_c, 0, 50, 64
4, 3767, Note_on_c, 0, 50, 0
4, 3768, Note_on_c, 0, 52, 64
4, 3791, Note_on_c, 0, 52, 0
4, 3792, Note_on_c, 0, 54, 64
4, 3815, Note_on_c, 0, 54, 0
4, 3816, Note_on_c, 0, 55, 64
4, 3839, Note_on_c, 0, 55, 0
4, 3840, Note_on_c, 0, 54, 64
4, 3863, Note_on_c, 0, 54, 0
4, 3864, Note_on_c, 0, 52, 64
4, 3887, Note_on_c, 0, 52, 0
4, 3888, Note_on_c, 0, 54, 64
4, 3911, Note_on_c, 0, 54, 0
4, 3912, Note_on_c, 0, 50, 64
4, 3935, Note_on_c, 0, 50, 0
4, 3936, Note_on_c, 0, 52, 64
4, 3959, Note_on_c, 0, 52, 0
4, 3960, Note_on_c, 0, 54, 64
4, 3983, Note_on_c, 0, 54, 0
4, 3984, Note_on_c, 0, 55, 64
4, 4007, Note_on_c, 0, 55, 0
4, 4008, Note_on_c, 0, 57, 64
4, 4031, Note_on_c, 0, 57, 0
4, 4032, Note_on_c, 0, 59, 64
4, 4121, Note_on_c, 0, 59, 0
4, 4320, Note_on_c, 0, 48, 64
4, 4343, Note_on_c, 0, 48, 0
4, 4344, Note_on_c, 0, 50, 64
4, 4367, Note_on_c, 0, 50, 0
4, 4368, Note_on_c, 0, 52, 64
4, 4391, Note_on_c, 0, 52, 0
4, 4392, Note_on_c, 0, 53, 64
4, 4415, Note_on_c, 0, 53, 0
4, 4416, Note_on_c, 0, 52, 64
4, 4439, Note_on_c, 0, 52, 0
4, 4440, Note_on_c, 0, 50, 64
4, 4463, Note_on_c, 0, 50, 0
4, 4464, Note_on_c, 0, 52, 64
4, 4487, Note_on_c, 0, 52, 0
4, 4488, Note_on_c, 0, 48, 64
4, 4511, Note_on_c, 0, 48, 0
4, 4512, Note_on_c, 0, 50, 64
4, 4535, Note_on_c, 0, 50, 0
4, 4536, Note_on_c, 0, 52, 64
4, 4559, Note_on_c, 0, 52, 0
4, 4560, Note_on_c, 0, 53, 64
4, 4583, Note_on_c, 0, 53, 0
4, 4584, Note_on_c, 0, 55, 64
4, 4607, Note_on_c, 0, 55, 0
4, 4608, Note_on_c, 0, 57, 64
4, 4697, Note_on_c, 0, 57, 0
4, 4704, Note_on_c, 0, 60, 64
4, 4749, Note_on_c, 0, 60, 0
4, 4752, Note_on_c, 0, 54, 64
4, 4841, Note_on_c, 0, 54, 0
4, 4848, Note_on_c, 0, 57, 64
4, 4893, Note_on_c, 0, 57, 0
4, 4896, Note_on_c, 0, 47, 64
4, 4941, Note_on_c, 0, 47, 0
4, 4944, Note_on_c, 0, 59, 64
4, 4989, Note_on_c, 0, 59, 0
4, 4992, Note_on_c, 0, 57, 64
4, 5037, Note_on_c, 0, 57, 0
4, 5040, Note_on_c, 0, 55, 64
4, 5052, Note_on_c, 0, 55, 0
4, 5052, Note_on_c, 0, 57, 64
4, 5064, Note_on_c, 0, 57, 0
4, 5064, Note_on_c, 0, 55, 64
4, 5131, Note_on_c, 0, 55, 0
4, 5136, Note_on_c, 0, 54, 64
4, 5181, Note_on_c, 0, 54, 0
4, 5184, Note_on_c, 0, 52, 64
4, 5229, Note_on_c, 0, 52, 0
4, 5232, Note_on_c, 0, 40, 64
4, 5277, Note_on_c, 0, 40, 0
4, 5280, Note_on_c, 0, 40, 64
4, 5325, Note_on_c, 0, 40, 0
4, 5328, Note_on_c, 0, 40, 64
4, 5373, Note_on_c, 0, 40, 0
4, 5376, Note_on_c, 0, 52, 64
4, 5399, Note_on_c, 0, 52, 0
4, 5400, Note_on_c, 0, 50, 64
4, 5423, Note_on_c, 0, 50, 0
4, 5424, Note_on_c, 0, 48, 64
4, 5447, Note_on_c, 0, 48, 0
4, 5448, Note_on_c, 0, 47, 64
4, 5471, Note_on_c, 0, 47, 0
4, 5472, Note_on_c, 0, 45, 64
4, 5495, Note_on_c, 0, 45, 0
4, 5496, Note_on_c, 0, 47, 64
4, 5519, Note_on_c, 0, 47, 0
4, 5520, Note_on_c, 0, 48, 64
4, 5543, Note_on_c, 0, 48, 0
4, 5544, Note_on_c, 0, 50, 64
4, 5567, Note_on_c, 0, 50, 0
4, 5568, Note_on_c, 0, 48, 64
4, 5591, Note_on_c, 0, 48, 0
4, 5592, Note_on_c, 0, 47, 64
4, 5615, Note_on_c, 0, 47, 0
4, 5616, Note_on_c, 0, 48, 64
4, 5639, Note_on_c, 0, 48, 0
4, 5640, Note_on_c, 0, 45, 64
4, 5663, Note_on_c, 0, 45, 0
4, 5664, Note_on_c, 0, 47, 64
4, 5687, Note_on_c, 0, 47, 0
4, 5688, Note_on_c, 0, 48, 64
4, 5711, Note_on_c, 0, 48, 0
4, 5712, Note_on_c, 0, 50, 64
4, 5735, Note_on_c, 0, 50, 0
4, 5736, Note_on_c, 0, 52, 64
4, 5759, Note_on_c, 0, 52, 0
4, 5760, Note_on_c, 0, 54, 64
4, 5783, Note_on_c, 0, 54, 0
4, 5784, Note_on_c, 0, 55, 64
4, 5807, Note_on_c, 0, 55, 0
4, 5808, Note_on_c, 0, 57, 64
4, 5831, Note_on_c, 0, 57, 0
4, 5832, Note_on_c, 0, 59, 64
4, 5855, Note_on_c, 0, 59, 0
4, 5856, Note_on_c, 0, 57, 64
4, 5879, Note_on_c, 0, 57, 0
4, 5880, Note_on_c, 0, 55, 64
4, 5903, Note_on_c, 0, 55, 0
4, 5904, Note_on_c, 0, 57, 64
4, 5927, Note_on_c, 0, 57, 0
4, 5928, Note_on_c, 0, 54, 64
4, 5951, Note_on_c, 0, 54, 0
4, 5952, Note_on_c, 0, 55, 64
4, 5975, Note_on_c, 0, 55, 0
4, 5976, Note_on_c, 0, 57, 64
4, 5999, Note_on_c, 0, 57, 0
4, 6000, Note_on_c, 0, 59, 64
4, 6023, Note_on_c, 0, 59, 0
4, 6024, Note_on_c, 0, 60, 64
4, 6047, Note_on_c, 0, 60, 0
4, 6048, Note_on_c, 0, 62, 64
4, 6093, Note_on_c, 0, 62, 0
4, 6096, Note_on_c, 0, 50, 64
4, 6119, Note_on_c, 0, 50, 0
4, 6120, Note_on_c, 0, 52, 64
4, 6143, Note_on_c, 0, 52, 0
4, 6144, Note_on_c, 0, 50, 64
4, 6189, Note_on_c, 0, 50, 0
4, 6192, Note_on_c, 0, 50, 64
4, 6237, Note_on_c, 0, 50, 0
4, 6240, Note_on_c, 0, 60, 64
4, 6381, Note_on_c, 0, 60, 0
4, 6384, Note_on_c, 0, 59, 64
4, 6407, Note_on_c, 0, 59, 0
4, 6408, Note_on_c, 0, 57, 64
4, 6431, Note_on_c, 0, 57, 0
4, 6432, Note_on_c, 0, 59, 64
4, 6455, Note_on_c, 0, 59, 0
4, 6456, Note_on_c, 0, 55, 64
4, 6479, Note_on_c, 0, 55, 0
4, 6480, Note_on_c, 0, 57, 64
4, 6503, Note_on_c, 0, 57, 0
4, 6504, Note_on_c, 0, 59, 64
4, 6527, Note_on_c, 0, 59, 0
4, 6528, Note_on_c, 0, 57, 64
4, 6551, Note_on_c, 0, 57, 0
4, 6552, Note_on_c, 0, 55, 64
4, 6575, Note_on_c, 0, 55, 0
4, 6576, Note_on_c, 0, 57, 64
4, 6599, Note_on_c, 0, 57, 0
4, 6600, Note_on_c, 0, 54, 64
4, 6623, Note_on_c, 0, 54, 0
4, 6624, Note_on_c, 0, 55, 64
4, 6647, Note_on_c, 0, 55, 0
4, 6648, Note_on_c, 0, 57, 64
4, 6671, Note_on_c, 0, 57, 0
4, 6672, Note_on_c, 0, 55, 64
4, 6695, Note_on_c, 0, 55, 0
4, 6696, Note_on_c, 0, 54, 64
4, 6719, Note_on_c, 0, 54, 0
4, 6720, Note_on_c, 0, 55, 64
4, 6743, Note_on_c, 0, 55, 0
4, 6744, Note_on_c, 0, 52, 64
4, 6767, Note_on_c, 0, 52, 0
4, 6768, Note_on_c, 0, 54, 64
4, 6791, Note_on_c, 0, 54, 0
4, 6792, Note_on_c, 0, 55, 64
4, 6815, Note_on_c, 0, 55, 0
4, 6816, Note_on_c, 0, 54, 64
4, 6839, Note_on_c, 0, 54, 0
4, 6840, Note_on_c, 0, 52, 64
4, 6863, Note_on_c, 0, 52, 0
4, 6864, Note_on_c, 0, 54, 64
4, 6887, Note_on_c, 0, 54, 0
4, 6888, Note_on_c, 0, 50, 64
4, 6911, Note_on_c, 0, 50, 0
4, 6912, Note_on_c, 0, 52, 64
4, 6935, Note_on_c, 0, 52, 0
4, 6936, Note_on_c, 0, 54, 64
4, 6959, Note_on_c, 0, 54, 0
4, 6960, Note_on_c, 0, 52, 64
4, 6983, Note_on_c, 0, 52, 0
4, 6984, Note_on_c, 0, 50, 64
4, 7007, Note_on_c, 0, 50, 0
4, 7008, Note_on_c, 0, 52, 64
4, 7031, Note_on_c, 0, 52, 0
4, 7032, Note_on_c, 0, 48, 64
4, 7055, Note_on_c, 0, 48, 0
4, 7056, Note_on_c, 0, 50, 64
4, 7079, Note_on_c, 0, 50, 0
4, 7080, Note_on_c, 0, 52, 64
4, 7103, Note_on_c, 0, 52, 0
4, 7104, Note_on_c, 0, 50, 64
4, 7127, Note_on_c, 0, 50, 0
4, 7128, Note_on_c, 0, 48, 64
4, 7151, Note_on_c, 0, 48, 0
4, 7152, Note_on_c, 0, 50, 64
4, 7175, Note_on_c, 0, 50, 0
4, 7176, Note_on_c, 0, 47, 64
4, 7199, Note_on_c, 0, 47, 0
4, 7200, Note_on_c, 0, 48, 64
4, 7223, Note_on_c, 0, 48, 0
4, 7224, Note_on_c, 0, 50, 64
4, 7247, Note_on_c, 0, 50, 0
4, 7248, Note_on_c, 0, 48, 64
4, 7271, Note_on_c, 0, 48, 0
4, 7272, Note_on_c, 0, 47, 64
4, 7295, Note_on_c, 0, 47, 0
4, 7296, Note_on_c, 0, 48, 64
4, 7319, Note_on_c, 0, 48, 0
4, 7320, Note_on_c, 0, 45, 64
4, 7343, Note_on_c, 0, 45, 0
4, 7344, Note_on_c, 0, 47, 64
4, 7367, Note_on_c, 0, 47, 0
4, 7368, Note_on_c, 0, 48, 64
4, 7391, Note_on_c, 0, 48, 0
4, 7392, Note_on_c, 0, 47, 64
4, 7415, Note_on_c, 0, 47, 0
4, 7416, Note_on_c, 0, 45, 64
4, 7439, Note_on_c, 0, 45, 0
4, 7440, Note_on_c, 0, 47, 64
4, 7463, Note_on_c, 0, 47, 0
4, 7464, Note_on_c, 0, 43, 64
4, 7487, Note_on_c, 0, 43, 0
4, 7488, Note_on_c, 0, 45, 64
4, 7533, Note_on_c, 0, 45, 0
4, 7536, Note_on_c, 0, 57, 64
4, 7559, Note_on_c, 0, 57, 0
4, 7560, Note_on_c, 0, 59, 64
4, 7583, Note_on_c, 0, 59, 0
4, 7584, Note_on_c, 0, 57, 64
4, 7629, Note_on_c, 0, 57, 0
4, 7632, Note_on_c, 0, 49, 64
4, 7677, Note_on_c, 0, 49, 0
4, 7680, Note_on_c, 0, 57, 64
4, 7725, Note_on_c, 0, 57, 0
4, 7728, Note_on_c, 0, 57, 64
4, 7773, Note_on_c, 0, 57, 0
4, 7776, Note_on_c, 0, 50, 64
4, 7821, Note_on_c, 0, 50, 0
4, 7824, Note_on_c, 0, 62, 64
4, 7847, Note_on_c, 0, 62, 0
4, 7848, Note_on_c, 0, 64, 64
4, 7871, Note_on_c, 0, 64, 0
4, 7872, Note_on_c, 0, 62, 64
4, 7917, Note_on_c, 0, 62, 0
4, 7920, Note_on_c, 0, 54, 64
4, 7965, Note_on_c, 0, 54, 0
4, 7968, Note_on_c, 0, 62, 64
4, 8013, Note_on_c, 0, 62, 0
4, 8016, Note_on_c, 0, 62, 64
4, 8061, Note_on_c, 0, 62, 0
4, 8064, Note_on_c, 0, 55, 64
4, 8087, Note_on_c, 0, 55, 0
4, 8088, Note_on_c, 0, 57, 64
4, 8111, Note_on_c, 0, 57, 0
4, 8112, Note_on_c, 0, 59, 64
4, 8135, Note_on_c, 0, 59, 0
4, 8136, Note_on_c, 0, 60, 64
4, 8159, Note_on_c, 0, 60, 0
4, 8160, Note_on_c, 0, 59, 64
4, 8183, Note_on_c, 0, 59, 0
4, 8184, Note_on_c, 0, 57, 64
4, 8207, Note_on_c, 0, 57, 0
4, 8208, Note_on_c, 0, 59, 64
4, 8231, Note_on_c, 0, 59, 0
4, 8232, Note_on_c, 0, 55, 64
4, 8255, Note_on_c, 0, 55, 0
4, 8256, Note_on_c, 0, 57, 64
4, 8279, Note_on_c, 0, 57, 0
4, 8280, Note_on_c, 0, 59, 64
4, 8303, Note_on_c, 0, 59, 0
4, 8304, Note_on_c, 0, 60, 64
4, 8327, Note_on_c, 0, 60, 0
4, 8328, Note_on_c, 0, 62, 64
4, 8351, Note_on_c, 0, 62, 0
4, 8352, Note_on_c, 0, 64, 64
4, 8397, Note_on_c, 0, 64, 0
4, 8400, Note_on_c, 0, 62, 64
4, 8445, Note_on_c, 0, 62, 0
4, 8448, Note_on_c, 0, 60, 64
4, 8493, Note_on_c, 0, 60, 0
4, 8496, Note_on_c, 0, 62, 64
4, 8585, Note_on_c, 0, 62, 0
4, 8592, Note_on_c, 0, 50, 64
4, 8637, Note_on_c, 0, 50, 0
4, 8640, Note_on_c, 0, 43, 64
4, 8729, Note_on_c, 0, 43, 0
4, 8928, Note_on_c, 0, 55, 64
4, 9017, Note_on_c, 0, 55, 0
4, 9216, Note_on_c, 0, 43, 64
4, 9261, Note_on_c, 0, 43, 0
4, 9264, Note_on_c, 0, 55, 64
4, 9309, Note_on_c, 0, 55, 0
4, 9312, Note_on_c, 0, 55, 64
4, 9357, Note_on_c, 0, 55, 0
4, 9360, Note_on_c, 0, 45, 64
4, 9405, Note_on_c, 0, 45, 0
4, 9408, Note_on_c, 0, 55, 64
4, 9453, Note_on_c, 0, 55, 0
4, 9456, Note_on_c, 0, 55, 64
4, 9501, Note_on_c, 0, 55, 0
4, 9504, Note_on_c, 0, 47, 64
4, 9549, Note_on_c, 0, 47, 0
4, 9552, Note_on_c, 0, 55, 64
4, 9597, Note_on_c, 0, 55, 0
4, 9600, Note_on_c, 0, 55, 64
4, 9645, Note_on_c, 0, 55, 0
4, 9648, Note_on_c, 0, 48, 64
4, 9693, Note_on_c, 0, 48, 0
4, 9696, Note_on_c, 0, 52, 64
4, 9741, Note_on_c, 0, 52, 0
4, 9744, Note_on_c, 0, 45, 64
4, 9789, Note_on_c, 0, 45, 0
4, 9792, Note_on_c, 0, 50, 64
4, 9881, Note_on_c, 0, 50, 0
4, 10080, Note_on_c, 0, 62, 64
4, 10169, Note_on_c, 0, 62, 0
4, 10368, Note_on_c, 0, 38, 64
4, 10413, Note_on_c, 0, 38, 0
4, 10416, Note_on_c, 0, 50, 64
4, 10461, Note_on_c, 0, 50, 0
4, 10464, Note_on_c, 0, 50, 64
4, 10509, Note_on_c, 0, 50, 0
4, 10512, Note_on_c, 0, 40, 64
4, 10557, Note_on_c, 0, 40, 0
4, 10560, Note_on_c, 0, 50, 64
4, 10605, Note_on_c, 0, 50, 0
4, 10608, Note_on_c, 0, 50, 64
4, 10653, Note_on_c, 0, 50, 0
4, 10656, Note_on_c, 0, 42, 64
4, 10701, Note_on_c, 0, 42, 0
4, 10704, Note_on_c, 0, 50, 64
4, 10749, Note_on_c, 0, 50, 0
4, 10752, Note_on_c, 0, 50, 64
4, 10797, Note_on_c, 0, 50, 0
4, 10800, Note_on_c, 0, 43, 64
4, 10845, Note_on_c, 0, 43, 0
4, 10848, Note_on_c, 0, 47, 64
4, 10893, Note_on_c, 0, 47, 0
4, 10896, Note_on_c, 0, 40, 64
4, 10941, Note_on_c, 0, 40, 0
4, 10944, Note_on_c, 0, 45, 64
4, 10989, Note_on_c, 0, 45, 0
4, 10992, Note_on_c, 0, 57, 64
4, 11037, Note_on_c, 0, 57, 0
4, 11040, Note_on_c, 0, 55, 64
4, 11133, Note_on_c, 0, 55, 0
4, 11136, Note_on_c, 0, 54, 64
4, 11181, Note_on_c, 0, 54, 0
4, 11184, Note_on_c, 0, 52, 64
4, 11229, Note_on_c, 0, 52, 0
4, 11232, Note_on_c, 0, 50, 64
4, 11277, Note_on_c, 0, 50, 0
4, 11280, Note_on_c, 0, 62, 64
4, 11325, Note_on_c, 0, 62, 0
4, 11328, Note_on_c, 0, 60, 64
4, 11421, Note_on_c, 0, 60, 0
4, 11424, Note_on_c, 0, 59, 64
4, 11469, Note_on_c, 0, 59, 0
4, 11472, Note_on_c, 0, 57, 64
4, 11517, Note_on_c, 0, 57, 0
4, 11520, Note_on_c, 0, 55, 64
4, 11565, Note_on_c, 0, 55, 0
4, 11568, Note_on_c, 0, 67, 64
4, 11613, Note_on_c, 0, 67, 0
4, 11616, Note_on_c, 0, 65, 64
4, 11709, Note_on_c, 0, 65, 0
4, 11712, Note_on_c, 0, 64, 64
4, 11757, Note_on_c, 0, 64, 0
4, 11760, Note_on_c, 0, 62, 64
4, 11805, Note_on_c, 0, 62, 0
4, 11808, Note_on_c, 0, 60, 64
4, 11831, Note_on_c, 0, 60, 0
4, 11832, Note_on_c, 0, 62, 64
4, 11855, Note_on_c, 0, 62, 0
4, 11856, Note_on_c, 0, 60, 64
4, 11879, Note_on_c, 0, 60, 0
4, 11880, Note_on_c, 0, 59, 64
4, 11903, Note_on_c, 0, 59, 0
4, 11904, Note_on_c, 0, 60, 64
4, 11927, Note_on_c, 0, 60, 0
4, 11928, Note_on_c, 0, 57, 64
4, 11951, Note_on_c, 0, 57, 0
4, 11952, Note_on_c, 0, 59, 64
4, 11975, Note_on_c, 0, 59, 0
4, 11976, Note_on_c, 0, 60, 64
4, 11999, Note_on_c, 0, 60, 0
4, 12000, Note_on_c, 0, 59, 64
4, 12023, Note_on_c, 0, 59, 0
4, 12024, Note_on_c, 0, 57, 64
4, 12047, Note_on_c, 0, 57, 0
4, 12048, Note_on_c, 0, 59, 64
4, 12071, Note_on_c, 0, 59, 0
4, 12072, Note_on_c, 0, 55, 64
4, 12095, Note_on_c, 0, 55, 0
4, 12096, Note_on_c, 0, 57, 64
4, 12119, Note_on_c, 0, 57, 0
4, 12120, Note_on_c, 0, 59, 64
4, 12143, Note_on_c, 0, 59, 0
4, 12144, Note_on_c, 0, 57, 64
4, 12167, Note_on_c, 0, 57, 0
4, 12168, Note_on_c, 0, 55, 64
4, 12191, Note_on_c, 0, 55, 0
4, 12192, Note_on_c, 0, 57, 64
4, 12215, Note_on_c, 0, 57, 0
4, 12216, Note_on_c, 0, 54, 64
4, 12239, Note_on_c, 0, 54, 0
4, 12240, Note_on_c, 0, 55, 64
4, 12263, Note_on_c, 0, 55, 0
4, 12264, Note_on_c, 0, 57, 64
4, 12287, Note_on_c, 0, 57, 0
4, 12288, Note_on_c, 0, 55, 64
4, 12311, Note_on_c, 0, 55, 0
4, 12312, Note_on_c, 0, 54, 64
4, 12335, Note_on_c, 0, 54, 0
4, 12336, Note_on_c, 0, 55, 64
4, 12359, Note_on_c, 0, 55, 0
4, 12360, Note_on_c, 0, 52, 64
4, 12383, Note_on_c, 0, 52, 0
4, 12384, Note_on_c, 0, 54, 64
4, 12407, Note_on_c, 0, 54, 0
4, 12408, Note_on_c, 0, 55, 64
4, 12431, Note_on_c, 0, 55, 0
4, 12432, Note_on_c, 0, 54, 64
4, 12455, Note_on_c, 0, 54, 0
4, 12456, Note_on_c, 0, 52, 64
4, 12479, Note_on_c, 0, 52, 0
4, 12480, Note_on_c, 0, 54, 64
4, 12503, Note_on_c, 0, 54, 0
4, 12504, Note_on_c, 0, 51, 64
4, 12527, Note_on_c, 0, 51, 0
4, 12528, Note_on_c, 0, 47, 64
4, 12573, Note_on_c, 0, 47, 0
4, 12576, Note_on_c, 0, 51, 64
4, 12621, Note_on_c, 0, 51, 0
4, 12624, Note_on_c, 0, 47, 64
4, 12669, Note_on_c, 0, 47, 0
4, 12672, Note_on_c, 0, 52, 64
4, 12717, Note_on_c, 0, 52, 0
4, 12720, Note_on_c, 0, 55, 64
4, 12765, Note_on_c, 0, 55, 0
4, 12768, Note_on_c, 0, 52, 64
4, 12813, Note_on_c, 0, 52, 0
4, 12816, Note_on_c, 0, 48, 64
4, 12861, Note_on_c, 0, 48, 0
4, 12864, Note_on_c, 0, 52, 64
4, 12909, Note_on_c, 0, 52, 0
4, 12912, Note_on_c, 0, 48, 64
4, 12957, Note_on_c, 0, 48, 0
4, 12960, Note_on_c, 0, 54, 64
4, 13005, Note_on_c, 0, 54, 0
4, 13008, Note_on_c, 0, 57, 64
4, 13053, Note_on_c, 0, 57, 0
4, 13056, Note_on_c, 0, 54, 64
4, 13101, Note_on_c, 0, 54, 0
4, 13104, Note_on_c, 0, 50, 64
4, 13149, Note_on_c, 0, 50, 0
4, 13152, Note_on_c, 0, 54, 64
4, 13197, Note_on_c, 0, 54, 0
4, 13200, Note_on_c, 0, 50, 64
4, 13245, Note_on_c, 0, 50, 0
4, 13248, Note_on_c, 0, 55, 64
4, 13293, Note_on_c, 0, 55, 0
4, 13296, Note_on_c, 0, 55, 64
4, 13341, Note_on_c, 0, 55, 0
4, 13344, Note_on_c, 0, 55, 64
4, 13389, Note_on_c, 0, 55, 0
4, 13392, Note_on_c, 0, 52, 64
4, 13437, Note_on_c, 0, 52, 0
4, 13440, Note_on_c, 0, 52, 64
4, 13485, Note_on_c, 0, 52, 0
4, 13488, Note_on_c, 0, 52, 64
4, 13533, Note_on_c, 0, 52, 0
4, 13536, Note_on_c, 0, 49, 64
4, 13581, Note_on_c, 0, 49, 0
4, 13584, Note_on_c, 0, 49, 64
4, 13629, Note_on_c, 0, 49, 0
4, 13632, Note_on_c, 0, 49, 64
4, 13677, Note_on_c, 0, 49, 0
4, 13680, Note_on_c, 0, 51, 64
4, 13725, Note_on_c, 0, 51, 0
4, 13728, Note_on_c, 0, 51, 64
4, 13773, Note_on_c, 0, 51, 0
4, 13776, Note_on_c, 0, 51, 64
4, 13821, Note_on_c, 0, 51, 0
4, 13824, Note_on_c, 0, 40, 64
4, 13869, Note_on_c, 0, 40, 0
4, 13872, Note_on_c, 0, 52, 64
4, 13917, Note_on_c, 0, 52, 0
4, 13920, Note_on_c, 0, 52, 64
4, 13965, Note_on_c, 0, 52, 0
4, 13968, Note_on_c, 0, 42, 64
4, 14013, Note_on_c, 0, 42, 0
4, 14016, Note_on_c, 0, 52, 64
4, 14061, Note_on_c, 0, 52, 0
4, 14064, Note_on_c, 0, 52, 64
4, 14109, Note_on_c, 0, 52, 0
4, 14112, Note_on_c, 0, 44, 64
4, 14157, Note_on_c, 0, 44, 0
4, 14160, Note_on_c, 0, 52, 64
4, 14205, Note_on_c, 0, 52, 0
4, 14208, Note_on_c, 0, 52, 64
4, 14253, Note_on_c, 0, 52, 0
4, 14256, Note_on_c, 0, 45, 64
4, 14279, Note_on_c, 0, 45, 0
4, 14280, Note_on_c, 0, 52, 64
4, 14303, Note_on_c, 0, 52, 0
4, 14304, Note_on_c, 0, 57, 64
4, 14327, Note_on_c, 0, 57, 0
4, 14328, Note_on_c, 0, 55, 64
4, 14351, Note_on_c, 0, 55, 0
4, 14352, Note_on_c, 0, 54, 64
4, 14375, Note_on_c, 0, 54, 0
4, 14376, Note_on_c, 0, 52, 64
4, 14399, Note_on_c, 0, 52, 0
4, 14400, Note_on_c, 0, 51, 64
4, 14445, Note_on_c, 0, 51, 0
4, 14448, Note_on_c, 0, 47, 64
4, 14493, Note_on_c, 0, 47, 0
4, 14496, Note_on_c, 0, 52, 64
4, 14519, Note_on_c, 0, 52, 0
4, 14520, Note_on_c, 0, 50, 64
4, 14543, Note_on_c, 0, 50, 0
4, 14544, Note_on_c, 0, 48, 64
4, 14567, Note_on_c, 0, 48, 0
4, 14568, Note_on_c, 0, 47, 64
4, 14591, Note_on_c, 0, 47, 0
4, 14592, Note_on_c, 0, 45, 64
4, 14637, Note_on_c, 0, 45, 0
4, 14640, Note_on_c, 0, 57, 64
4, 14733, Note_on_c, 0, 57, 0
4, 14736, Note_on_c, 0, 55, 64
4, 14781, Note_on_c, 0, 55, 0
4, 14784, Note_on_c, 0, 60, 64
4, 14829, Note_on_c, 0, 60, 0
4, 14832, Note_on_c, 0, 57, 64
4, 14877, Note_on_c, 0, 57, 0
4, 14880, Note_on_c, 0, 59, 64
4, 14925, Note_on_c, 0, 59, 0
4, 14928, Note_on_c, 0, 47, 64
4, 14973, Note_on_c, 0, 47, 0
4, 14976, Note_on_c, 0, 40, 64
4, 15065, Note_on_c, 0, 40, 0
4, 15264, Note_on_c, 0, 52, 64
4, 15353, Note_on_c, 0, 52, 0
4, 15552, Note_on_c, 0, 40, 64
4, 15597, Note_on_c, 0, 40, 0
4, 15600, Note_on_c, 0, 52, 64
4, 15645, Note_on_c, 0, 52, 0
4, 15648, Note_on_c, 0, 52, 64
4, 15693, Note_on_c, 0, 52, 0
4, 15696, Note_on_c, 0, 42, 64
4, 15741, Note_on_c, 0, 42, 0
4, 15744, Note_on_c, 0, 52, 64
4, 15789, Note_on_c, 0, 52, 0
4, 15792, Note_on_c, 0, 52, 64
4, 15837, Note_on_c, 0, 52, 0
4, 15840, Note_on_c, 0, 43, 64
4, 15885, Note_on_c, 0, 43, 0
4, 15888, Note_on_c, 0, 52, 64
4, 15933, Note_on_c, 0, 52, 0
4, 15936, Note_on_c, 0, 52, 64
4, 15981, Note_on_c, 0, 52, 0
4, 15984, Note_on_c, 0, 45, 64
4, 16029, Note_on_c, 0, 45, 0
4, 16032, Note_on_c, 0, 48, 64
4, 16077, Note_on_c, 0, 48, 0
4, 16080, Note_on_c, 0, 42, 64
4, 16125, Note_on_c, 0, 42, 0
4, 16128, Note_on_c, 0, 47, 64
4, 16173, Note_on_c, 0, 47, 0
4, 16176, Note_on_c, 0, 48, 64
4, 16188, Note_on_c, 0, 48, 0
4, 16188, Note_on_c, 0, 47, 64
4, 16200, Note_on_c, 0, 47, 0
4, 16200, Note_on_c, 0, 45, 64
4, 16223, Note_on_c, 0, 45, 0
4, 16224, Note_on_c, 0, 47, 64
4, 16269, Note_on_c, 0, 47, 0
4, 16272, Note_on_c, 0, 52, 64
4, 16317, Note_on_c, 0, 52, 0
4, 16320, Note_on_c, 0, 48, 64
4, 16365, Note_on_c, 0, 48, 0
4, 16368, Note_on_c, 0, 50, 64
4, 16413, Note_on_c, 0, 50, 0
4, 16416, Note_on_c, 0, 43, 64
4, 16461, Note_on_c, 0, 43, 0
4, 16464, Note_on_c, 0, 55, 64
4, 16509, Note_on_c, 0, 55, 0
4, 16512, Note_on_c, 0, 54, 64
4, 16605, Note_on_c, 0, 54, 0
4, 16608, Note_on_c, 0, 52, 64
4, 16653, Note_on_c, 0, 52, 0
4, 16656, Note_on_c, 0, 57, 64
4, 16701, Note_on_c, 0, 57, 0
4, 16704, Note_on_c, 0, 50, 64
4, 16749, Note_on_c, 0, 50, 0
4, 16752, Note_on_c, 0, 47, 64
4, 16797, Note_on_c, 0, 47, 0
4, 16800, Note_on_c, 0, 50, 64
4, 16845, Note_on_c, 0, 50, 0
4, 16848, Note_on_c, 0, 54, 64
4, 16893, Note_on_c, 0, 54, 0
4, 16896, Note_on_c, 0, 50, 64
4, 16941, Note_on_c, 0, 50, 0
4, 16944, Note_on_c, 0, 54, 64
4, 16989, Note_on_c, 0, 54, 0
4, 16992, Note_on_c, 0, 55, 64
4, 17037, Note_on_c, 0, 55, 0
4, 17040, Note_on_c, 0, 59, 64
4, 17085, Note_on_c, 0, 59, 0
4, 17088, Note_on_c, 0, 55, 64
4, 17133, Note_on_c, 0, 55, 0
4, 17136, Note_on_c, 0, 52, 64
4, 17181, Note_on_c, 0, 52, 0
4, 17184, Note_on_c, 0, 49, 64
4, 17229, Note_on_c, 0, 49, 0
4, 17232, Note_on_c, 0, 52, 64
4, 17277, Note_on_c, 0, 52, 0
4, 17280, Note_on_c, 0, 54, 64
4, 17325, Note_on_c, 0, 54, 0
4, 17328, Note_on_c, 0, 52, 64
4, 17351, Note_on_c, 0, 52, 0
4, 17352, Note_on_c, 0, 50, 64
4, 17375, Note_on_c, 0, 50, 0
4, 17376, Note_on_c, 0, 52, 64
4, 17469, Note_on_c, 0, 52, 0
4, 17472, Note_on_c, 0, 50, 64
4, 17517, Note_on_c, 0, 50, 0
4, 17520, Note_on_c, 0, 49, 64
4, 17565, Note_on_c, 0, 49, 0
4, 17568, Note_on_c, 0, 47, 64
4, 17591, Note_on_c, 0, 47, 0
4, 17592, Note_on_c, 0, 49, 64
4, 17615, Note_on_c, 0, 49, 0
4, 17616, Note_on_c, 0, 50, 64
4, 17639, Note_on_c, 0, 50, 0
4, 17640, Note_on_c, 0, 52, 64
4, 17663, Note_on_c, 0, 52, 0
4, 17664, Note_on_c, 0, 50, 64
4, 17687, Note_on_c, 0, 50, 0
4, 17688, Note_on_c, 0, 49, 64
4, 17711, Note_on_c, 0, 49, 0
4, 17712, Note_on_c, 0, 51, 64
4, 17735, Note_on_c, 0, 51, 0
4, 17736, Note_on_c, 0, 47, 64
4, 17759, Note_on_c, 0, 47, 0
4, 17760, Note_on_c, 0, 49, 64
4, 17783, Note_on_c, 0, 49, 0
4, 17784, Note_on_c, 0, 51, 64
4, 17807, Note_on_c, 0, 51, 0
4, 17808, Note_on_c, 0, 52, 64
4, 17831, Note_on_c, 0, 52, 0
4, 17832, Note_on_c, 0, 54, 64
4, 17855, Note_on_c, 0, 54, 0
4, 17856, Note_on_c, 0, 55, 64
4, 17901, Note_on_c, 0, 55, 0
4, 18000, Note_on_c, 0, 52, 64
4, 18045, Note_on_c, 0, 52, 0
4, 18144, Note_on_c, 0, 45, 64
4, 18167, Note_on_c, 0, 45, 0
4, 18168, Note_on_c, 0, 47, 64
4, 18191, Note_on_c, 0, 47, 0
4, 18192, Note_on_c, 0, 48, 64
4, 18215, Note_on_c, 0, 48, 0
4, 18216, Note_on_c, 0, 50, 64
4, 18239, Note_on_c, 0, 50, 0
4, 18240, Note_on_c, 0, 48, 64
4, 18263, Note_on_c, 0, 48, 0
4, 18264, Note_on_c, 0, 47, 64
4, 18287, Note_on_c, 0, 47, 0
4, 18288, Note_on_c, 0, 49, 64
4, 18311, Note_on_c, 0, 49, 0
4, 18312, Note_on_c, 0, 45, 64
4, 18335, Note_on_c, 0, 45, 0
4, 18336, Note_on_c, 0, 47, 64
4, 18359, Note_on_c, 0, 47, 0
4, 18360, Note_on_c, 0, 49, 64
4, 18383, Note_on_c, 0, 49, 0
4, 18384, Note_on_c, 0, 50, 64
4, 18407, Note_on_c, 0, 50, 0
4, 18408, Note_on_c, 0, 52, 64
4, 18431, Note_on_c, 0, 52, 0
4, 18432, Note_on_c, 0, 54, 64
4, 18477, Note_on_c, 0, 54, 0
4, 18576, Note_on_c, 0, 50, 64
4, 18621, Note_on_c, 0, 50, 0
4, 18768, Note_on_c, 0, 55, 64
4, 18791, Note_on_c, 0, 55, 0
4, 18792, Note_on_c, 0, 54, 64
4, 18815, Note_on_c, 0, 54, 0
4, 18816, Note_on_c, 0, 55, 64
4, 18861, Note_on_c, 0, 55, 0
4, 18864, Note_on_c, 0, 43, 64
4, 18909, Note_on_c, 0, 43, 0
4, 18912, Note_on_c, 0, 43, 64
4, 18957, Note_on_c, 0, 43, 0
4, 18960, Note_on_c, 0, 43, 64
4, 19005, Note_on_c, 0, 43, 0
4, 19008, Note_on_c, 0, 44, 64
4, 19053, Note_on_c, 0, 44, 0
4, 19056, Note_on_c, 0, 59, 64
4, 19079, Note_on_c, 0, 59, 0
4, 19080, Note_on_c, 0, 57, 64
4, 19103, Note_on_c, 0, 57, 0
4, 19104, Note_on_c, 0, 59, 64
4, 19149, Note_on_c, 0, 59, 0
4, 19152, Note_on_c, 0, 52, 64
4, 19197, Note_on_c, 0, 52, 0
4, 19200, Note_on_c, 0, 52, 64
4, 19245, Note_on_c, 0, 52, 0
4, 19248, Note_on_c, 0, 52, 64
4, 19293, Note_on_c, 0, 52, 0
4, 19296, Note_on_c, 0, 45, 64
4, 19341, Note_on_c, 0, 45, 0
4, 19344, Note_on_c, 0, 57, 64
4, 19367, Note_on_c, 0, 57, 0
4, 19368, Note_on_c, 0, 56, 64
4, 19391, Note_on_c, 0, 56, 0
4, 19392, Note_on_c, 0, 57, 64
4, 19437, Note_on_c, 0, 57, 0
4, 19440, Note_on_c, 0, 45, 64
4, 19485, Note_on_c, 0, 45, 0
4, 19488, Note_on_c, 0, 45, 64
4, 19533, Note_on_c, 0, 45, 0
4, 19536, Note_on_c, 0, 45, 64
4, 19581, Note_on_c, 0, 45, 0
4, 19584, Note_on_c, 0, 38, 64
4, 19629, Note_on_c, 0, 38, 0
4, 19632, Note_on_c, 0, 50, 64
4, 19655, Note_on_c, 0, 50, 0
4, 19656, Note_on_c, 0, 52, 64
4, 19679, Note_on_c, 0, 52, 0
4, 19680, Note_on_c, 0, 50, 64
4, 19725, Note_on_c, 0, 50, 0
4, 19728, Note_on_c, 0, 38, 64
4, 19773, Note_on_c, 0, 38, 0
4, 19776, Note_on_c, 0, 38, 64
4, 19821, Note_on_c, 0, 38, 0
4, 19824, Note_on_c, 0, 38, 64
4, 19869, Note_on_c, 0, 38, 0
4, 19872, Note_on_c, 0, 38, 64
4, 19917, Note_on_c, 0, 38, 0
4, 19920, Note_on_c, 0, 50, 64
4, 19943, Note_on_c, 0, 50, 0
4, 19944, Note_on_c, 0, 52, 64
4, 19967, Note_on_c, 0, 52, 0
4, 19968, Note_on_c, 0, 50, 64
4, 20013, Note_on_c, 0, 50, 0
4, 20016, Note_on_c, 0, 38, 64
4, 20061, Note_on_c, 0, 38, 0
4, 20064, Note_on_c, 0, 38, 64
4, 20109, Note_on_c, 0, 38, 0
4, 20112, Note_on_c, 0, 38, 64
4, 20157, Note_on_c, 0, 38, 0
4, 20160, Note_on_c, 0, 38, 64
4, 20293, Note_on_c, 0, 38, 0
4, 20448, Note_on_c, 0, 38, 64
4, 20471, Note_on_c, 0, 38, 0
4, 20472, Note_on_c, 0, 40, 64
4, 20495, Note_on_c, 0, 40, 0
4, 20496, Note_on_c, 0, 42, 64
4, 20519, Note_on_c, 0, 42, 0
4, 20520, Note_on_c, 0, 43, 64
4, 20543, Note_on_c, 0, 43, 0
4, 20544, Note_on_c, 0, 42, 64
4, 20567, Note_on_c, 0, 42, 0
4, 20568, Note_on_c, 0, 40, 64
4, 20591, Note_on_c, 0, 40, 0
4, 20592, Note_on_c, 0, 42, 64
4, 20615, Note_on_c, 0, 42, 0
4, 20616, Note_on_c, 0, 38, 64
4, 20639, Note_on_c, 0, 38, 0
4, 20640, Note_on_c, 0, 40, 64
4, 20663, Note_on_c, 0, 40, 0
4, 20664, Note_on_c, 0, 42, 64
4, 20687, Note_on_c, 0, 42, 0
4, 20688, Note_on_c, 0, 43, 64
4, 20711, Note_on_c, 0, 43, 0
4, 20712, Note_on_c, 0, 45, 64
4, 20735, Note_on_c, 0, 45, 0
4, 20736, Note_on_c, 0, 47, 64
4, 20781, Note_on_c, 0, 47, 0
4, 20784, Note_on_c, 0, 52, 64
4, 20829, Note_on_c, 0, 52, 0
4, 20832, Note_on_c, 0, 50, 64
4, 20877, Note_on_c, 0, 50, 0
4, 20880, Note_on_c, 0, 48, 64
4, 20925, Note_on_c, 0, 48, 0
4, 20928, Note_on_c, 0, 45, 64
4, 20973, Note_on_c, 0, 45, 0
4, 20976, Note_on_c, 0, 50, 64
4, 21021, Note_on_c, 0, 50, 0
4, 21024, Note_on_c, 0, 43, 64
4, 21069, Note_on_c, 0, 43, 0
4, 21072, Note_on_c, 0, 55, 64
4, 21117, Note_on_c, 0, 55, 0
4, 21120, Note_on_c, 0, 55, 64
4, 21165, Note_on_c, 0, 55, 0
4, 21168, Note_on_c, 0, 53, 64
4, 21213, Note_on_c, 0, 53, 0
4, 21216, Note_on_c, 0, 43, 64
4, 21261, Note_on_c, 0, 43, 0
4, 21264, Note_on_c, 0, 43, 64
4, 21309, Note_on_c, 0, 43, 0
4, 21312, Note_on_c, 0, 43, 64
4, 21357, Note_on_c, 0, 43, 0
4, 21360, Note_on_c, 0, 52, 64
4, 21405, Note_on_c, 0, 52, 0
4, 21408, Note_on_c, 0, 45, 64
4, 21453, Note_on_c, 0, 45, 0
4, 21456, Note_on_c, 0, 41, 64
4, 21501, Note_on_c, 0, 41, 0
4, 21504, Note_on_c, 0, 50, 64
4, 21549, Note_on_c, 0, 50, 0
4, 21552, Note_on_c, 0, 43, 64
4, 21597, Note_on_c, 0, 43, 0
4, 21600, Note_on_c, 0, 36, 64
4, 21645, Note_on_c, 0, 36, 0
4, 21648, Note_on_c, 0, 48, 64
4, 21693, Note_on_c, 0, 48, 0
4, 21744, Note_on_c, 0, 48, 64
4, 21789, Note_on_c, 0, 48, 0
4, 21792, Note_on_c, 0, 52, 64
4, 21837, Note_on_c, 0, 52, 0
4, 21840, Note_on_c, 0, 48, 64
4, 21885, Note_on_c, 0, 48, 0
4, 21888, Note_on_c, 0, 55, 64
4, 21933, Note_on_c, 0, 55, 0
4, 21936, Note_on_c, 0, 43, 64
4, 21981, Note_on_c, 0, 43, 0
4, 22032, Note_on_c, 0, 52, 64
4, 22077, Note_on_c, 0, 52, 0
4, 22080, Note_on_c, 0, 56, 64
4, 22125, Note_on_c, 0, 56, 0
4, 22128, Note_on_c, 0, 52, 64
4, 22173, Note_on_c, 0, 52, 0
4, 22176, Note_on_c, 0, 57, 64
4, 22221, Note_on_c, 0, 57, 0
4, 22224, Note_on_c, 0, 45, 64
4, 22269, Note_on_c, 0, 45, 0
4, 22320, Note_on_c, 0, 50, 64
4, 22365, Note_on_c, 0, 50, 0
4, 22368, Note_on_c, 0, 54, 64
4, 22413, Note_on_c, 0, 54, 0
4, 22416, Note_on_c, 0, 50, 64
4, 22461, Note_on_c, 0, 50, 0
4, 22464, Note_on_c, 0, 55, 64
4, 22509, Note_on_c, 0, 55, 0
4, 22512, Note_on_c, 0, 43, 64
4, 22557, Note_on_c, 0, 43, 0
4, 22608, Note_on_c, 0, 43, 64
4, 22653, Note_on_c, 0, 43, 0
4, 22656, Note_on_c, 0, 47, 64
4, 22701, Note_on_c, 0, 47, 0
4, 22704, Note_on_c, 0, 43, 64
4, 22749, Note_on_c, 0, 43, 0
4, 22752, Note_on_c, 0, 50, 64
4, 22775, Note_on_c, 0, 50, 0
4, 22776, Note_on_c, 0, 52, 64
4, 22799, Note_on_c, 0, 52, 0
4, 22800, Note_on_c, 0, 54, 64
4, 22823, Note_on_c, 0, 54, 0
4, 22824, Note_on_c, 0, 55, 64
4, 22847, Note_on_c, 0, 55, 0
4, 22848, Note_on_c, 0, 54, 64
4, 22871, Note_on_c, 0, 54, 0
4, 22872, Note_on_c, 0, 52, 64
4, 22895, Note_on_c, 0, 52, 0
4, 22896, Note_on_c, 0, 54, 64
4, 22919, Note_on_c, 0, 54, 0
4, 22920, Note_on_c, 0, 50, 64
4, 22943, Note_on_c, 0, 50, 0
4, 22944, Note_on_c, 0, 52, 64
4, 22967, Note_on_c, 0, 52, 0
4, 22968, Note_on_c, 0, 54, 64
4, 22991, Note_on_c, 0, 54, 0
4, 22992, Note_on_c, 0, 55, 64
4, 23015, Note_on_c, 0, 55, 0
4, 23016, Note_on_c, 0, 57, 64
4, 23039, Note_on_c, 0, 57, 0
4, 23040, Note_on_c, 0, 59, 64
4, 23085, Note_on_c, 0, 59, 0
4, 23184, Note_on_c, 0, 55, 64
4, 23229, Note_on_c, 0, 55, 0
4, 23328, Note_on_c, 0, 49, 64
4, 23351, Note_on_c, 0, 49, 0
4, 23352, Note_on_c, 0, 50, 64
4, 23375, Note_on_c, 0, 50, 0
4, 23376, Note_on_c, 0, 52, 64
4, 23399, Note_on_c, 0, 52, 0
4, 23400, Note_on_c, 0, 54, 64
4, 23423, Note_on_c, 0, 54, 0
4, 23424, Note_on_c, 0, 52, 64
4, 23447, Note_on_c, 0, 52, 0
4, 23448, Note_on_c, 0, 50, 64
4, 23471, Note_on_c, 0, 50, 0
4, 23472, Note_on_c, 0, 52, 64
4, 23495, Note_on_c, 0, 52, 0
4, 23496, Note_on_c, 0, 49, 64
4, 23519, Note_on_c, 0, 49, 0
4, 23520, Note_on_c, 0, 50, 64
4, 23543, Note_on_c, 0, 50, 0
4, 23544, Note_on_c, 0, 52, 64
4, 23567, Note_on_c, 0, 52, 0
4, 23568, Note_on_c, 0, 54, 64
4, 23591, Note_on_c, 0, 54, 0
4, 23592, Note_on_c, 0, 56, 64
4, 23615, Note_on_c, 0, 56, 0
4, 23616, Note_on_c, 0, 58, 64
4, 23661, Note_on_c, 0, 58, 0
4, 23760, Note_on_c, 0, 54, 64
4, 23805, Note_on_c, 0, 54, 0
4, 23904, Note_on_c, 0, 47, 64
4, 23949, Note_on_c, 0, 47, 0
4, 23952, Note_on_c, 0, 59, 64
4, 23997, Note_on_c, 0, 59, 0
4, 24000, Note_on_c, 0, 59, 64
4, 24045, Note_on_c, 0, 59, 0
4, 24048, Note_on_c, 0, 49, 64
4, 24093, Note_on_c, 0, 49, 0
4, 24096, Note_on_c, 0, 59, 64
4, 24141, Note_on_c, 0, 59, 0
4, 24144, Note_on_c, 0, 59, 64
4, 24189, Note_on_c, 0, 59, 0
4, 24192, Note_on_c, 0, 51, 64
4, 24237, Note_on_c, 0, 51, 0
4, 24240, Note_on_c, 0, 59, 64
4, 24285, Note_on_c, 0, 59, 0
4, 24288, Note_on_c, 0, 59, 64
4, 24333, Note_on_c, 0, 59, 0
4, 24336, Note_on_c, 0, 52, 64
4, 24359, Note_on_c, 0, 52, 0
4, 24360, Note_on_c, 0, 54, 64
4, 24383, Note_on_c, 0, 54, 0
4, 24384, Note_on_c, 0, 52, 64
4, 24407, Note_on_c, 0, 52, 0
4, 24408, Note_on_c, 0, 50, 64
4, 24431, Note_on_c, 0, 50, 0
4, 24432, Note_on_c, 0, 49, 64
4, 24455, Note_on_c, 0, 49, 0
4, 24456, Note_on_c, 0, 47, 64
4, 24479, Note_on_c, 0, 47, 0
4, 24480, Note_on_c, 0, 46, 64
4, 24525, Note_on_c, 0, 46, 0
4, 24528, Note_on_c, 0, 42, 64
4, 24573, Note_on_c, 0, 42, 0
4, 24576, Note_on_c, 0, 47, 64
4, 24599, Note_on_c, 0, 47, 0
4, 24600, Note_on_c, 0, 45, 64
4, 24623, Note_on_c, 0, 45, 0
4, 24624, Note_on_c, 0, 43, 64
4, 24647, Note_on_c, 0, 43, 0
4, 24648, Note_on_c, 0, 42, 64
4, 24671, Note_on_c, 0, 42, 0
4, 24672, Note_on_c, 0, 40, 64
4, 24717, Note_on_c, 0, 40, 0
4, 24720, Note_on_c, 0, 52, 64
4, 24813, Note_on_c, 0, 52, 0
4, 24816, Note_on_c, 0, 50, 64
4, 24861, Note_on_c, 0, 50, 0
4, 24864, Note_on_c, 0, 55, 64
4, 24909, Note_on_c, 0, 55, 0
4, 24912, Note_on_c, 0, 52, 64
4, 24957, Note_on_c, 0, 52, 0
4, 24960, Note_on_c, 0, 54, 64
4, 25005, Note_on_c, 0, 54, 0
4, 25008, Note_on_c, 0, 42, 64
4, 25053, Note_on_c, 0, 42, 0
4, 25056, Note_on_c, 0, 47, 64
4, 25145, Note_on_c, 0, 47, 0
4, 25344, Note_on_c, 0, 43, 64
4, 25477, Note_on_c, 0, 43, 0
4, 25728, Note_on_c, 0, 55, 64
4, 25773, Note_on_c, 0, 55, 0
4, 25776, Note_on_c, 0, 52, 64
4, 25821, Note_on_c, 0, 52, 0
4, 25824, Note_on_c, 0, 60, 64
4, 26009, Note_on_c, 0, 60, 0
4, 26016, Note_on_c, 0, 59, 64
4, 26061, Note_on_c, 0, 59, 0
4, 26064, Note_on_c, 0, 60, 64
4, 26109, Note_on_c, 0, 60, 0
4, 26112, Note_on_c, 0, 57, 64
4, 26157, Note_on_c, 0, 57, 0
4, 26160, Note_on_c, 0, 54, 64
4, 26205, Note_on_c, 0, 54, 0
4, 26208, Note_on_c, 0, 59, 64
4, 26253, Note_on_c, 0, 59, 0
4, 26256, Note_on_c, 0, 55, 64
4, 26301, Note_on_c, 0, 55, 0
4, 26304, Note_on_c, 0, 57, 64
4, 26349, Note_on_c, 0, 57, 0
4, 26352, Note_on_c, 0, 59, 64
4, 26397, Note_on_c, 0, 59, 0
4, 26400, Note_on_c, 0, 64, 64
4, 26445, Note_on_c, 0, 64, 0
4, 26448, Note_on_c, 0, 60, 64
4, 26493, Note_on_c, 0, 60, 0
4, 26496, Note_on_c, 0, 62, 64
4, 26629, Note_on_c, 0, 62, 0
4, 26880, Note_on_c, 0, 50, 64
4, 26925, Note_on_c, 0, 50, 0
4, 26928, Note_on_c, 0, 47, 64
4, 26973, Note_on_c, 0, 47, 0
4, 26976, Note_on_c, 0, 43, 64
4, 27021, Note_on_c, 0, 43, 0
4, 27024, Note_on_c, 0, 55, 64
4, 27117, Note_on_c, 0, 55, 0
4, 27120, Note_on_c, 0, 54, 64
4, 27165, Note_on_c, 0, 54, 0
4, 27168, Note_on_c, 0, 59, 64
4, 27213, Note_on_c, 0, 59, 0
4, 27216, Note_on_c, 0, 52, 64
4, 27261, Note_on_c, 0, 52, 0
4, 27264, Note_on_c, 0, 62, 64
4, 27309, Note_on_c, 0, 62, 0
4, 27312, Note_on_c, 0, 60, 64
4, 27405, Note_on_c, 0, 60, 0
4, 27408, Note_on_c, 0, 59, 64
4, 27453, Note_on_c, 0, 59, 0
4, 27456, Note_on_c, 0, 64, 64
4, 27501, Note_on_c, 0, 64, 0
4, 27504, Note_on_c, 0, 57, 64
4, 27549, Note_on_c, 0, 57, 0
4, 27552, Note_on_c, 0, 62, 64
4, 27597, Note_on_c, 0, 62, 0
4, 27600, Note_on_c, 0, 50, 64
4, 27645, Note_on_c, 0, 50, 0
4, 27648, Note_on_c, 0, 43, 64
4, 27693, Note_on_c, 0, 43, 0
4, 27696, Note_on_c, 0, 55, 64
4, 27741, Note_on_c, 0, 55, 0
4, 27744, Note_on_c, 0, 55, 64
4, 27789, Note_on_c, 0, 55, 0
4, 27792, Note_on_c, 0, 45, 64
4, 27837, Note_on_c, 0, 45, 0
4, 27840, Note_on_c, 0, 55, 64
4, 27885, Note_on_c, 0, 55, 0
4, 27888, Note_on_c, 0, 55, 64
4, 27933, Note_on_c, 0, 55, 0
4, 27936, Note_on_c, 0, 47, 64
4, 27981, Note_on_c, 0, 47, 0
4, 27984, Note_on_c, 0, 55, 64
4, 28029, Note_on_c, 0, 55, 0
4, 28032, Note_on_c, 0, 55, 64
4, 28077, Note_on_c, 0, 55, 0
4, 28080, Note_on_c, 0, 48, 64
4, 28125, Note_on_c, 0, 48, 0
4, 28128, Note_on_c, 0, 57, 64
4, 28173, Note_on_c, 0, 57, 0
4, 28176, Note_on_c, 0, 52, 64
4, 28221, Note_on_c, 0, 52, 0
4, 28224, Note_on_c, 0, 54, 64
4, 28269, Note_on_c, 0, 54, 0
4, 28272, Note_on_c, 0, 50, 64
4, 28317, Note_on_c, 0, 50, 0
4, 28320, Note_on_c, 0, 55, 64
4, 28365, Note_on_c, 0, 55, 0
4, 28368, Note_on_c, 0, 52, 64
4, 28413, Note_on_c, 0, 52, 0
4, 28416, Note_on_c, 0, 48, 64
4, 28461, Note_on_c, 0, 48, 0
4, 28464, Note_on_c, 0, 50, 64
4, 28509, Note_on_c, 0, 50, 0
4, 28512, Note_on_c, 0, 43, 64
4, 28557, Note_on_c, 0, 43, 0
4, 28560, Note_on_c, 0, 55, 64
4, 28605, Note_on_c, 0, 55, 0
4, 28608, Note_on_c, 0, 43, 64
4, 28653, Note_on_c, 0, 43, 0
4, 28656, Note_on_c, 0, 45, 64
4, 28701, Note_on_c, 0, 45, 0
4, 28704, Note_on_c, 0, 54, 64
4, 28749, Note_on_c, 0, 54, 0
4, 28752, Note_on_c, 0, 45, 64
4, 28797, Note_on_c, 0, 45, 0
4, 28800, Note_on_c, 0, 47, 64
4, 28845, Note_on_c, 0, 47, 0
4, 28848, Note_on_c, 0, 55, 64
4, 28893, Note_on_c, 0, 55, 0
4, 28896, Note_on_c, 0, 47, 64
4, 28941, Note_on_c, 0, 47, 0
4, 28944, Note_on_c, 0, 48, 64
4, 28989, Note_on_c, 0, 48, 0
4, 28992, Note_on_c, 0, 57, 64
4, 29037, Note_on_c, 0, 57, 0
4, 29040, Note_on_c, 0, 48, 64
4, 29085, Note_on_c, 0, 48, 0
4, 29088, Note_on_c, 0, 50, 64
4, 29111, Note_on_c, 0, 50, 0
4, 29112, Note_on_c, 0, 52, 64
4, 29135, Note_on_c, 0, 52, 0
4, 29136, Note_on_c, 0, 54, 64
4, 29159, Note_on_c, 0, 54, 0
4, 29160, Note_on_c, 0, 55, 64
4, 29183, Note_on_c, 0, 55, 0
4, 29184, Note_on_c, 0, 54, 64
4, 29207, Note_on_c, 0, 54, 0
4, 29208, Note_on_c, 0, 52, 64
4, 29231, Note_on_c, 0, 52, 0
4, 29232, Note_on_c, 0, 54, 64
4, 29255, Note_on_c, 0, 54, 0
4, 29256, Note_on_c, 0, 50, 64
4, 29279, Note_on_c, 0, 50, 0
4, 29280, Note_on_c, 0, 52, 64
4, 29303, Note_on_c, 0, 52, 0
4, 29304, Note_on_c, 0, 54, 64
4, 29327, Note_on_c, 0, 54, 0
4, 29328, Note_on_c, 0, 55, 64
4, 29351, Note_on_c, 0, 55, 0
4, 29352, Note_on_c, 0, 57, 64
4, 29375, Note_on_c, 0, 57, 0
4, 29376, Note_on_c, 0, 59, 64
4, 29465, Note_on_c, 0, 59, 0
4, 29664, Note_on_c, 0, 48, 64
4, 29687, Note_on_c, 0, 48, 0
4, 29688, Note_on_c, 0, 50, 64
4, 29711, Note_on_c, 0, 50, 0
4, 29712, Note_on_c, 0, 52, 64
4, 29735, Note_on_c, 0, 52, 0
4, 29736, Note_on_c, 0, 53, 64
4, 29759, Note_on_c, 0, 53, 0
4, 29760, Note_on_c, 0, 52, 64
4, 29783, Note_on_c, 0, 52, 0
4, 29784, Note_on_c, 0, 50, 64
4, 29807, Note_on_c, 0, 50, 0
4, 29808, Note_on_c, 0, 52, 64
4, 29831, Note_on_c, 0, 52, 0
4, 29832, Note_on_c, 0, 48, 64
4, 29855, Note_on_c, 0, 48, 0
4, 29856, Note_on_c, 0, 50, 64
4, 29879, Note_on_c, 0, 50, 0
4, 29880, Note_on_c, 0, 52, 64
4, 29903, Note_on_c, 0, 52, 0
4, 29904, Note_on_c, 0, 54, 64
4, 29927, Note_on_c, 0, 54, 0
4, 29928, Note_on_c, 0, 55, 64
4, 29951, Note_on_c, 0, 55, 0
4, 29952, Note_on_c, 0, 57, 64
4, 30041, Note_on_c, 0, 57, 0
4, 30048, Note_on_c, 0, 60, 64
4, 30093, Note_on_c, 0, 60, 0
4, 30096, Note_on_c, 0, 54, 64
4, 30185, Note_on_c, 0, 54, 0
4, 30192, Note_on_c, 0, 57, 64
4, 30237, Note_on_c, 0, 57, 0
4, 30240, Note_on_c, 0, 47, 64
4, 30285, Note_on_c, 0, 47, 0
4, 30288, Note_on_c, 0, 59, 64
4, 30333, Note_on_c, 0, 59, 0
4, 30336, Note_on_c, 0, 57, 64
4, 30381, Note_on_c, 0, 57, 0
4, 30384, Note_on_c, 0, 55, 64
4, 30396, Note_on_c, 0, 55, 0
4, 30396, Note_on_c, 0, 57, 64
4, 30408, Note_on_c, 0, 57, 0
4, 30408, Note_on_c, 0, 55, 64
4, 30475, Note_on_c, 0, 55, 0
4, 30480, Note_on_c, 0, 54, 64
4, 30525, Note_on_c, 0, 54, 0
4, 30528, Note_on_c, 0, 52, 64
4, 30573, Note_on_c, 0, 52, 0
4, 30576, Note_on_c, 0, 40, 64
4, 30621, Note_on_c, 0, 40, 0
4, 30624, Note_on_c, 0, 40, 64
4, 30669, Note_on_c, 0, 40, 0
4, 30672, Note_on_c, 0, 40, 64
4, 30717, Note_on_c, 0, 40, 0
4, 30720, Note_on_c, 0, 52, 64
4, 30743, Note_on_c, 0, 52, 0
4, 30744, Note_on_c, 0, 50, 64
4, 30767, Note_on_c, 0, 50, 0
4, 30768, Note_on_c, 0, 48, 64
4, 30791, Note_on_c, 0, 48, 0
4, 30792, Note_on_c, 0, 47, 64
4, 30815, Note_on_c, 0, 47, 0
4, 30816, Note_on_c, 0, 45, 64
4, 30839, Note_on_c, 0, 45, 0
4, 30840, Note_on_c, 0, 47, 64
4, 30863, Note_on_c, 0, 47, 0
4, 30864, Note_on_c, 0, 48, 64
4, 30887, Note_on_c, 0, 48, 0
4, 30888, Note_on_c, 0, 50, 64
4, 30911, Note_on_c, 0, 50, 0
4, 30912, Note_on_c, 0, 48, 64
4, 30935, Note_on_c, 0, 48, 0
4, 30936, Note_on_c, 0, 47, 64
4, 30959, Note_on_c, 0, 47, 0
4, 30960, Note_on_c, 0, 48, 64
4, 30983, Note_on_c, 0, 48, 0
4, 30984, Note_on_c, 0, 45, 64
4, 31007, Note_on_c, 0, 45, 0
4, 31008, Note_on_c, 0, 47, 64
4, 31031, Note_on_c, 0, 47, 0
4, 31032, Note_on_c, 0, 48, 64
4, 31055, Note_on_c, 0, 48, 0
4, 31056, Note_on_c, 0, 50, 64
4, 31079, Note_on_c, 0, 50, 0
4, 31080, Note_on_c, 0, 52, 64
4, 31103, Note_on_c, 0, 52, 0
4, 31104, Note_on_c, 0, 54, 64
4, 31127, Note_on_c, 0, 54, 0
4, 31128, Note_on_c, 0, 55, 64
4, 31151, Note_on_c, 0, 55, 0
4, 31152, Note_on_c, 0, 57, 64
4, 31175, Note_on_c, 0, 57, 0
4, 31176, Note_on_c, 0, 59, 64
4, 31199, Note_on_c, 0, 59, 0
4, 31200, Note_on_c, 0, 57, 64
4, 31223, Note_on_c, 0, 57, 0
4, 31224, Note_on_c, 0, 55, 64
4, 31247, Note_on_c, 0, 55, 0
4, 31248, Note_on_c, 0, 57, 64
4, 31271, Note_on_c, 0, 57, 0
4, 31272, Note_on_c, 0, 54, 64
4, 31295, Note_on_c, 0, 54, 0
4, 31296, Note_on_c, 0, 55, 64
4, 31319, Note_on_c, 0, 55, 0
4, 31320, Note_on_c, 0, 57, 64
4, 31343, Note_on_c, 0, 57, 0
4, 31344, Note_on_c, 0, 59, 64
4, 31367, Note_on_c, 0, 59, 0
4, 31368, Note_on_c, 0, 60, 64
4, 31391, Note_on_c, 0, 60, 0
4, 31392, Note_on_c, 0, 62, 64
4, 31437, Note_on_c, 0, 62, 0
4, 31440, Note_on_c, 0, 50, 64
4, 31463, Note_on_c, 0, 50, 0
4, 31464, Note_on_c, 0, 52, 64
4, 31487, Note_on_c, 0, 52, 0
4, 31488, Note_on_c, 0, 50, 64
4, 31533, Note_on_c, 0, 50, 0
4, 31536, Note_on_c, 0, 50, 64
4, 31581, Note_on_c, 0, 50, 0
4, 31584, Note_on_c, 0, 60, 64
4, 31673, Note_on_c, 0, 60, 0
4, 31680, Note_on_c, 0, 60, 64
4, 31725, Note_on_c, 0, 60, 0
4, 31728, Note_on_c, 0, 59, 64
4, 31751, Note_on_c, 0, 59, 0
4, 31752, Note_on_c, 0, 57, 64
4, 31775, Note_on_c, 0, 57, 0
4, 31776, Note_on_c, 0, 59, 64
4, 31799, Note_on_c, 0, 59, 0
4, 31800, Note_on_c, 0, 55, 64
4, 31823, Note_on_c, 0, 55, 0
4, 31824, Note_on_c, 0, 57, 64
4, 31847, Note_on_c, 0, 57, 0
4, 31848, Note_on_c, 0, 59, 64
4, 31871, Note_on_c, 0, 59, 0
4, 31872, Note_on_c, 0, 57, 64
4, 31895, Note_on_c, 0, 57, 0
4, 31896, Note_on_c, 0, 55, 64
4, 31919, Note_on_c, 0, 55, 0
4, 31920, Note_on_c, 0, 57, 64
4, 31943, Note_on_c, 0, 57, 0
4, 31944, Note_on_c, 0, 54, 64
4, 31967, Note_on_c, 0, 54, 0
4, 31968, Note_on_c, 0, 55, 64
4, 31991, Note_on_c, 0, 55, 0
4, 31992, Note_on_c, 0, 57, 64
4, 32015, Note_on_c, 0, 57, 0
4, 32016, Note_on_c, 0, 55, 64
4, 32039, Note_on_c, 0, 55, 0
4, 32040, Note_on_c, 0, 54, 64
4, 32063, Note_on_c, 0, 54, 0
4, 32064, Note_on_c, 0, 55, 64
4, 32087, Note_on_c, 0, 55, 0
4, 32088, Note_on_c, 0, 52, 64
4, 32111, Note_on_c, 0, 52, 0
4, 32112, Note_on_c, 0, 54, 64
4, 32135, Note_on_c, 0, 54, 0
4, 32136, Note_on_c, 0, 55, 64
4, 32159, Note_on_c, 0, 55, 0
4, 32160, Note_on_c, 0, 54, 64
4, 32183, Note_on_c, 0, 54, 0
4, 32184, Note_on_c, 0, 52, 64
4, 32207, Note_on_c, 0, 52, 0
4, 32208, Note_on_c, 0, 54, 64
4, 32231, Note_on_c, 0, 54, 0
4, 32232, Note_on_c, 0, 50, 64
4, 32255, Note_on_c, 0, 50, 0
4, 32256, Note_on_c, 0, 52, 64
4, 32279, Note_on_c, 0, 52, 0
4, 32280, Note_on_c, 0, 54, 64
4, 32303, Note_on_c, 0, 54, 0
4, 32304, Note_on_c, 0, 52, 64
4, 32327, Note_on_c, 0, 52, 0
4, 32328, Note_on_c, 0, 50, 64
4, 32351, Note_on_c, 0, 50, 0
4, 32352, Note_on_c, 0, 52, 64
4, 32375, Note_on_c, 0, 52, 0
4, 32376, Note_on_c, 0, 48, 64
4, 32399, Note_on_c, 0, 48, 0
4, 32400, Note_on_c, 0, 50, 64
4, 32423, Note_on_c, 0, 50, 0
4, 32424, Note_on_c, 0, 52, 64
4, 32447, Note_on_c, 0, 52, 0
4, 32448, Note_on_c, 0, 50, 64
4, 32471, Note_on_c, 0, 50, 0
4, 32472, Note_on_c, 0, 48, 64
4, 32495, Note_on_c, 0, 48, 0
4, 32496, Note_on_c, 0, 50, 64
4, 32519, Note_on_c, 0, 50, 0
4, 32520, Note_on_c, 0, 47, 64
4, 32543, Note_on_c, 0, 47, 0
4, 32544, Note_on_c, 0, 48, 64
4, 32567, Note_on_c, 0, 48, 0
4, 32568, Note_on_c, 0, 50, 64
4, 32591, Note_on_c, 0, 50, 0
4, 32592, Note_on_c, 0, 48, 64
4, 32615, Note_on_c, 0, 48, 0
4, 32616, Note_on_c, 0, 47, 64
4, 32639, Note_on_c, 0, 47, 0
4, 32640, Note_on_c, 0, 48, 64
4, 32663, Note_on_c, 0, 48, 0
4, 32664, Note_on_c, 0, 45, 64
4, 32687, Note_on_c, 0, 45, 0
4, 32688, Note_on_c, 0, 47, 64
4, 32711, Note_on_c, 0, 47, 0
4, 32712, Note_on_c, 0, 48, 64
4, 32735, Note_on_c, 0, 48, 0
4, 32736, Note_on_c, 0, 47, 64
4, 32759, Note_on_c, 0, 47, 0
4, 32760, Note_on_c, 0, 45, 64
4, 32783, Note_on_c, 0, 45, 0
4, 32784, Note_on_c, 0, 47, 64
4, 32807, Note_on_c, 0, 47, 0
4, 32808, Note_on_c, 0, 43, 64
4, 32831, Note_on_c, 0, 43, 0
4, 32832, Note_on_c, 0, 45, 64
4, 32877, Note_on_c, 0, 45, 0
4, 32880, Note_on_c, 0, 57, 64
4, 32903, Note_on_c, 0, 57, 0
4, 32904, Note_on_c, 0, 59, 64
4, 32927, Note_on_c, 0, 59, 0
4, 32928, Note_on_c, 0, 57, 64
4, 32973, Note_on_c, 0, 57, 0
4, 32976, Note_on_c, 0, 49, 64
4, 33021, Note_on_c, 0, 49, 0
4, 33024, Note_on_c, 0, 57, 64
4, 33069, Note_on_c, 0, 57, 0
4, 33072, Note_on_c, 0, 57, 64
4, 33117, Note_on_c, 0, 57, 0
4, 33120, Note_on_c, 0, 50, 64
4, 33165, Note_on_c, 0, 50, 0
4, 33168, Note_on_c, 0, 62, 64
4, 33191, Note_on_c, 0, 62, 0
4, 33192, Note_on_c, 0, 64, 64
4, 33215, Note_on_c, 0, 64, 0
4, 33216, Note_on_c, 0, 62, 64
4, 33261, Note_on_c, 0, 62, 0
4, 33264, Note_on_c, 0, 54, 64
4, 33309, Note_on_c, 0, 54, 0
4, 33312, Note_on_c, 0, 62, 64
4, 33357, Note_on_c, 0, 62, 0
4, 33360, Note_on_c, 0, 62, 64
4, 33405, Note_on_c, 0, 62, 0
4, 33408, Note_on_c, 0, 55, 64
4, 33431, Note_on_c, 0, 55, 0
4, 33432, Note_on_c, 0, 57, 64
4, 33455, Note_on_c, 0, 57, 0
4, 33456, Note_on_c, 0, 59, 64
4, 33479, Note_on_c, 0, 59, 0
4, 33480, Note_on_c, 0, 60, 64
4, 33503, Note_on_c, 0, 60, 0
4, 33504, Note_on_c, 0, 59, 64
4, 33527, Note_on_c, 0, 59, 0
4, 33528, Note_on_c, 0, 57, 64
4, 33551, Note_on_c, 0, 57, 0
4, 33552, Note_on_c, 0, 59, 64
4, 33575, Note_on_c, 0, 59, 0
4, 33576, Note_on_c, 0, 55, 64
4, 33599, Note_on_c, 0, 55, 0
4, 33600, Note_on_c, 0, 57, 64
4, 33623, Note_on_c, 0, 57, 0
4, 33624, Note_on_c, 0, 59, 64
4, 33647, Note_on_c, 0, 59, 0
4, 33648, Note_on_c, 0, 60, 64
4, 33671, Note_on_c, 0, 60, 0
4, 33672, Note_on_c, 0, 62, 64
4, 33695, Note_on_c, 0, 62, 0
4, 33696, Note_on_c, 0, 64, 64
4, 33741, Note_on_c, 0, 64, 0
4, 33744, Note_on_c, 0, 62, 64
4, 33789, Note_on_c, 0, 62, 0
4, 33792, Note_on_c, 0, 60, 64
4, 33837, Note_on_c, 0, 60, 0
4, 33840, Note_on_c, 0, 62, 64
4, 33929, Note_on_c, 0, 62, 0
4, 33936, Note_on_c, 0, 50, 64
4, 33981, Note_on_c, 0, 50, 0
4, 33984, Note_on_c, 0, 43, 64
4, 34073, Note_on_c, 0, 43, 0
4, 34073, End_track
5, 0, Start_track
5, 0, MIDI_port, 0
5, 0, Title_t, "Sonata No. 6 en G mayor"
5, 0, End_track
6, 0, Start_track
6, 0, MIDI_port, 0
6, 0, Title_t, "para violin y clavicembalo"
6, 0, End_track
7, 0, Start_track
7, 0, MIDI_port, 0
7, 0, Title_t, "Quinto Movimiento: Allegro"
7, 0, End_track
8, 0, Start_track
8, 0, MIDI_port, 0
8, 0, Title_t, "J. S. Bach (1685-1750)"
8, 0, End_track
9, 0, Start_track
9, 0, MIDI_port, 0
9, 0, Title_t, "Copyright Luis Gerardo Barajas"
9, 0, End_track
10, 0, Start_track
10, 0, MIDI_port, 0
10, 0, Title_t, "*** Bach Keeps RuLiNg!!!"
10, 0, End_track
0, 0, End_of_file
