0, 0, Header, 1, 10, 96
1, 0, Start_track
1, 0, Sequencer_specific, 3, 0, 0, 65
1, 0, Time_signature, 3, 2, 24, 8
1, 0, Key_signature, 2, "major"
1, 0, Tempo, 681818
1, 34620, Tempo, 697674
1, 34720, Tempo, 731707
1, 34740, Tempo, 750000
1, 34760, Tempo, 789474
1, 34780, Tempo, 833333
1, 34800, Tempo, 909091
1, 34820, Tempo, 1000000
1, 34860, Tempo, 1071429
1, 34880, Tempo, 1153846
1, 34900, Tempo, 1200000
1, 34920, Tempo, 1071429
1, 34940, Tempo, 370370
1, 34960, Tempo, 405405
1, 34980, Tempo, 370370
1, 35020, Tempo, 365854
1, 35040, Tempo, 394737
1, 35060, Tempo, 365854
1, 35080, Tempo, 352941
1, 35120, Tempo, 508475
1, 35140, Tempo, 410959
1, 35200, Tempo, 1500000
1, 35280, Tempo, 1363636
1, 35320, Tempo, 1250000
1, 35360, Tempo, 1111111
1, 35400, Tempo, 1000000
1, 35440, Tempo, 909091
1, 35480, Tempo, 882353
1, 35500, Tempo, 833333
1, 35500, End_track
2, 0, Start_track
2, 0, MIDI_port, 0
2, 0, Title_t, "Violin"
2, 0, Program_c, 1, 40
2, 0, Control_c, 1, 7, 127
2, 48, Note_on_c, 1, 78, 64
2, 93, Note_on_c, 1, 78, 0
2, 96, Note_on_c, 1, 78, 64
2, 141, Note_on_c, 1, 78, 0
2, 144, Note_on_c, 1, 78, 64
2, 189, Note_on_c, 1, 78, 0
2, 192, Note_on_c, 1, 78, 64
2, 237, Note_on_c, 1, 78, 0
2, 240, Note_on_c, 1, 78, 64
2, 285, Note_on_c, 1, 78, 0
2, 288, Note_on_c, 1, 78, 64
2, 333, Note_on_c, 1, 78, 0
2, 336, Note_on_c, 1, 83, 64
2, 359, Note_on_c, 1, 83, 0
2, 360, Note_on_c, 1, 82, 64
2, 383, Note_on_c, 1, 82, 0
2, 384, Note_on_c, 1, 83, 64
2, 429, Note_on_c, 1, 83, 0
2, 432, Note_on_c, 1, 78, 64
2, 477, Note_on_c, 1, 78, 0
2, 480, Note_on_c, 1, 78, 64
2, 525, Note_on_c, 1, 78, 0
2, 528, Note_on_c, 1, 78, 64
2, 573, Note_on_c, 1, 78, 0
2, 576, Note_on_c, 1, 78, 64
2, 621, Note_on_c, 1, 78, 0
2, 624, Note_on_c, 1, 85, 64
2, 648, Note_on_c, 1, 85, 0
2, 648, Note_on_c, 1, 83, 64
2, 671, Note_on_c, 1, 83, 0
2, 672, Note_on_c, 1, 85, 64
2, 717, Note_on_c, 1, 85, 0
2, 720, Note_on_c, 1, 78, 64
2, 765, Note_on_c, 1, 78, 0
2, 768, Note_on_c, 1, 78, 64
2, 813, Note_on_c, 1, 78, 0
2, 816, Note_on_c, 1, 78, 64
2, 861, Note_on_c, 1, 78, 0
2, 864, Note_on_c, 1, 78, 64
2, 909, Note_on_c, 1, 78, 0
2, 912, Note_on_c, 1, 86, 64
2, 924, Note_on_c, 1, 86, 0
2, 924, Note_on_c, 1, 85, 64
2, 936, Note_on_c, 1, 85, 0
2, 936, Note_on_c, 1, 83, 64
2, 959, Note_on_c, 1, 83, 0
2, 960, Note_on_c, 1, 85, 64
2, 1005, Note_on_c, 1, 85, 0
2, 1008, Note_on_c, 1, 85, 64
2, 1020, Note_on_c, 1, 85, 0
2, 1020, Note_on_c, 1, 83, 64
2, 1032, Note_on_c, 1, 83, 0
2, 1032, Note_on_c, 1, 81, 64
2, 1055, Note_on_c, 1, 81, 0
2, 1056, Note_on_c, 1, 83, 64
2, 1101, Note_on_c, 1, 83, 0
2, 1104, Note_on_c, 1, 83, 64
2, 1116, Note_on_c, 1, 83, 0
2, 1116, Note_on_c, 1, 81, 64
2, 1128, Note_on_c, 1, 81, 0
2, 1128, Note_on_c, 1, 80, 64
2, 1151, Note_on_c, 1, 80, 0
2, 1152, Note_on_c, 1, 81, 64
2, 1197, Note_on_c, 1, 81, 0
2, 1200, Note_on_c, 1, 66, 64
2, 1223, Note_on_c, 1, 66, 0
2, 1224, Note_on_c, 1, 68, 64
2, 1247, Note_on_c, 1, 68, 0
2, 1248, Note_on_c, 1, 69, 64
2, 1271, Note_on_c, 1, 69, 0
2, 1272, Note_on_c, 1, 73, 64
2, 1295, Note_on_c, 1, 73, 0
2, 1296, Note_on_c, 1, 78, 64
2, 1319, Note_on_c, 1, 78, 0
2, 1320, Note_on_c, 1, 73, 64
2, 1343, Note_on_c, 1, 73, 0
2, 1344, Note_on_c, 1, 69, 64
2, 1367, Note_on_c, 1, 69, 0
2, 1368, Note_on_c, 1, 73, 64
2, 1391, Note_on_c, 1, 73, 0
2, 1392, Note_on_c, 1, 68, 64
2, 1415, Note_on_c, 1, 68, 0
2, 1416, Note_on_c, 1, 73, 64
2, 1439, Note_on_c, 1, 73, 0
2, 1440, Note_on_c, 1, 69, 64
2, 1463, Note_on_c, 1, 69, 0
2, 1464, Note_on_c, 1, 68, 64
2, 1487, Note_on_c, 1, 68, 0
2, 1488, Note_on_c, 1, 66, 64
2, 1511, Note_on_c, 1, 66, 0
2, 1512, Note_on_c, 1, 68, 64
2, 1535, Note_on_c, 1, 68, 0
2, 1536, Note_on_c, 1, 69, 64
2, 1559, Note_on_c, 1, 69, 0
2, 1560, Note_on_c, 1, 73, 64
2, 1583, Note_on_c, 1, 73, 0
2, 1584, Note_on_c, 1, 78, 64
2, 1607, Note_on_c, 1, 78, 0
2, 1608, Note_on_c, 1, 73, 64
2, 1631, Note_on_c, 1, 73, 0
2, 1632, Note_on_c, 1, 71, 64
2, 1655, Note_on_c, 1, 71, 0
2, 1656, Note_on_c, 1, 69, 64
2, 1679, Note_on_c, 1, 69, 0
2, 1680, Note_on_c, 1, 68, 64
2, 1703, Note_on_c, 1, 68, 0
2, 1704, Note_on_c, 1, 66, 64
2, 1727, Note_on_c, 1, 66, 0
2, 1728, Note_on_c, 1, 65, 64
2, 1751, Note_on_c, 1, 65, 0
2, 1752, Note_on_c, 1, 63, 64
2, 1775, Note_on_c, 1, 63, 0
2, 1776, Note_on_c, 1, 61, 64
2, 1799, Note_on_c, 1, 61, 0
2, 1800, Note_on_c, 1, 63, 64
2, 1823, Note_on_c, 1, 63, 0
2, 1824, Note_on_c, 1, 65, 64
2, 1847, Note_on_c, 1, 65, 0
2, 1848, Note_on_c, 1, 66, 64
2, 1871, Note_on_c, 1, 66, 0
2, 1872, Note_on_c, 1, 68, 64
2, 1895, Note_on_c, 1, 68, 0
2, 1896, Note_on_c, 1, 69, 64
2, 1919, Note_on_c, 1, 69, 0
2, 1920, Note_on_c, 1, 71, 64
2, 1943, Note_on_c, 1, 71, 0
2, 1944, Note_on_c, 1, 69, 64
2, 1967, Note_on_c, 1, 69, 0
2, 1968, Note_on_c, 1, 71, 64
2, 1991, Note_on_c, 1, 71, 0
2, 1992, Note_on_c, 1, 68, 64
2, 2015, Note_on_c, 1, 68, 0
2, 2016, Note_on_c, 1, 69, 64
2, 2061, Note_on_c, 1, 69, 0
2, 2064, Note_on_c, 1, 66, 64
2, 2109, Note_on_c, 1, 66, 0
2, 2208, Note_on_c, 1, 71, 64
2, 2349, Note_on_c, 1, 71, 0
2, 2352, Note_on_c, 1, 73, 64
2, 2376, Note_on_c, 1, 73, 0
2, 2376, Note_on_c, 1, 71, 64
2, 2399, Note_on_c, 1, 71, 0
2, 2400, Note_on_c, 1, 74, 64
2, 2423, Note_on_c, 1, 74, 0
2, 2424, Note_on_c, 1, 73, 64
2, 2447, Note_on_c, 1, 73, 0
2, 2448, Note_on_c, 1, 71, 64
2, 2471, Note_on_c, 1, 71, 0
2, 2472, Note_on_c, 1, 69, 64
2, 2495, Note_on_c, 1, 69, 0
2, 2496, Note_on_c, 1, 68, 64
2, 2563, Note_on_c, 1, 68, 0
2, 2568, Note_on_c, 1, 66, 64
2, 2591, Note_on_c, 1, 66, 0
2, 2592, Note_on_c, 1, 66, 64
2, 2615, Note_on_c, 1, 66, 0
2, 2616, Note_on_c, 1, 65, 64
2, 2639, Note_on_c, 1, 65, 0
2, 2640, Note_on_c, 1, 66, 64
2, 2663, Note_on_c, 1, 66, 0
2, 2664, Note_on_c, 1, 68, 64
2, 2687, Note_on_c, 1, 68, 0
2, 2688, Note_on_c, 1, 69, 64
2, 2711, Note_on_c, 1, 69, 0
2, 2712, Note_on_c, 1, 71, 64
2, 2735, Note_on_c, 1, 71, 0
2, 2736, Note_on_c, 1, 73, 64
2, 2759, Note_on_c, 1, 73, 0
2, 2760, Note_on_c, 1, 74, 64
2, 2783, Note_on_c, 1, 74, 0
2, 2784, Note_on_c, 1, 76, 64
2, 2807, Note_on_c, 1, 76, 0
2, 2808, Note_on_c, 1, 74, 64
2, 2831, Note_on_c, 1, 74, 0
2, 2832, Note_on_c, 1, 76, 64
2, 2855, Note_on_c, 1, 76, 0
2, 2856, Note_on_c, 1, 73, 64
2, 2879, Note_on_c, 1, 73, 0
2, 2880, Note_on_c, 1, 74, 64
2, 2903, Note_on_c, 1, 74, 0
2, 2904, Note_on_c, 1, 73, 64
2, 2927, Note_on_c, 1, 73, 0
2, 2928, Note_on_c, 1, 71, 64
2, 2951, Note_on_c, 1, 71, 0
2, 2952, Note_on_c, 1, 73, 64
2, 2975, Note_on_c, 1, 73, 0
2, 2976, Note_on_c, 1, 74, 64
2, 2999, Note_on_c, 1, 74, 0
2, 3000, Note_on_c, 1, 78, 64
2, 3023, Note_on_c, 1, 78, 0
2, 3024, Note_on_c, 1, 83, 64
2, 3047, Note_on_c, 1, 83, 0
2, 3048, Note_on_c, 1, 78, 64
2, 3071, Note_on_c, 1, 78, 0
2, 3072, Note_on_c, 1, 76, 64
2, 3095, Note_on_c, 1, 76, 0
2, 3096, Note_on_c, 1, 74, 64
2, 3119, Note_on_c, 1, 74, 0
2, 3120, Note_on_c, 1, 73, 64
2, 3143, Note_on_c, 1, 73, 0
2, 3144, Note_on_c, 1, 71, 64
2, 3167, Note_on_c, 1, 71, 0
2, 3168, Note_on_c, 1, 70, 64
2, 3191, Note_on_c, 1, 70, 0
2, 3192, Note_on_c, 1, 68, 64
2, 3215, Note_on_c, 1, 68, 0
2, 3216, Note_on_c, 1, 66, 64
2, 3239, Note_on_c, 1, 66, 0
2, 3240, Note_on_c, 1, 68, 64
2, 3263, Note_on_c, 1, 68, 0
2, 3264, Note_on_c, 1, 70, 64
2, 3287, Note_on_c, 1, 70, 0
2, 3288, Note_on_c, 1, 71, 64
2, 3311, Note_on_c, 1, 71, 0
2, 3312, Note_on_c, 1, 73, 64
2, 3335, Note_on_c, 1, 73, 0
2, 3336, Note_on_c, 1, 74, 64
2, 3359, Note_on_c, 1, 74, 0
2, 3360, Note_on_c, 1, 76, 64
2, 3383, Note_on_c, 1, 76, 0
2, 3384, Note_on_c, 1, 74, 64
2, 3407, Note_on_c, 1, 74, 0
2, 3408, Note_on_c, 1, 76, 64
2, 3431, Note_on_c, 1, 76, 0
2, 3432, Note_on_c, 1, 73, 64
2, 3455, Note_on_c, 1, 73, 0
2, 3456, Note_on_c, 1, 74, 64
2, 3501, Note_on_c, 1, 74, 0
2, 3504, Note_on_c, 1, 83, 64
2, 3593, Note_on_c, 1, 83, 0
2, 3600, Note_on_c, 1, 81, 64
2, 3689, Note_on_c, 1, 81, 0
2, 3696, Note_on_c, 1, 79, 64
2, 3741, Note_on_c, 1, 79, 0
2, 3744, Note_on_c, 1, 85, 64
2, 3789, Note_on_c, 1, 85, 0
2, 3792, Note_on_c, 1, 79, 64
2, 3881, Note_on_c, 1, 79, 0
2, 3888, Note_on_c, 1, 78, 64
2, 3977, Note_on_c, 1, 78, 0
2, 3984, Note_on_c, 1, 76, 64
2, 4029, Note_on_c, 1, 76, 0
2, 4032, Note_on_c, 1, 81, 64
2, 4077, Note_on_c, 1, 81, 0
2, 4080, Note_on_c, 1, 76, 64
2, 4169, Note_on_c, 1, 76, 0
2, 4176, Note_on_c, 1, 74, 64
2, 4265, Note_on_c, 1, 74, 0
2, 4272, Note_on_c, 1, 73, 64
2, 4317, Note_on_c, 1, 73, 0
2, 4320, Note_on_c, 1, 78, 64
2, 4343, Note_on_c, 1, 78, 0
2, 4344, Note_on_c, 1, 76, 64
2, 4367, Note_on_c, 1, 76, 0
2, 4368, Note_on_c, 1, 74, 64
2, 4391, Note_on_c, 1, 74, 0
2, 4392, Note_on_c, 1, 73, 64
2, 4415, Note_on_c, 1, 73, 0
2, 4416, Note_on_c, 1, 71, 64
2, 4439, Note_on_c, 1, 71, 0
2, 4440, Note_on_c, 1, 73, 64
2, 4463, Note_on_c, 1, 73, 0
2, 4464, Note_on_c, 1, 74, 64
2, 4487, Note_on_c, 1, 74, 0
2, 4488, Note_on_c, 1, 76, 64
2, 4511, Note_on_c, 1, 76, 0
2, 4512, Note_on_c, 1, 78, 64
2, 4557, Note_on_c, 1, 78, 0
2, 4560, Note_on_c, 1, 82, 64
2, 4605, Note_on_c, 1, 82, 0
2, 4608, Note_on_c, 1, 83, 64
2, 4653, Note_on_c, 1, 83, 0
2, 4656, Note_on_c, 1, 78, 64
2, 4701, Note_on_c, 1, 78, 0
2, 4704, Note_on_c, 1, 74, 64
2, 4749, Note_on_c, 1, 74, 0
2, 4752, Note_on_c, 1, 78, 64
2, 4797, Note_on_c, 1, 78, 0
2, 4800, Note_on_c, 1, 83, 64
2, 4867, Note_on_c, 1, 83, 0
2, 4872, Note_on_c, 1, 82, 64
2, 4884, Note_on_c, 1, 82, 0
2, 4884, Note_on_c, 1, 83, 64
2, 4896, Note_on_c, 1, 83, 0
2, 4896, Note_on_c, 1, 85, 64
2, 4919, Note_on_c, 1, 85, 0
2, 4920, Note_on_c, 1, 83, 64
2, 4943, Note_on_c, 1, 83, 0
2, 4944, Note_on_c, 1, 82, 64
2, 4967, Note_on_c, 1, 82, 0
2, 4968, Note_on_c, 1, 80, 64
2, 4991, Note_on_c, 1, 80, 0
2, 4992, Note_on_c, 1, 78, 64
2, 5015, Note_on_c, 1, 78, 0
2, 5016, Note_on_c, 1, 80, 64
2, 5039, Note_on_c, 1, 80, 0
2, 5040, Note_on_c, 1, 82, 64
2, 5063, Note_on_c, 1, 82, 0
2, 5064, Note_on_c, 1, 83, 64
2, 5087, Note_on_c, 1, 83, 0
2, 5088, Note_on_c, 1, 85, 64
2, 5111, Note_on_c, 1, 85, 0
2, 5112, Note_on_c, 1, 83, 64
2, 5135, Note_on_c, 1, 83, 0
2, 5136, Note_on_c, 1, 85, 64
2, 5159, Note_on_c, 1, 85, 0
2, 5160, Note_on_c, 1, 82, 64
2, 5183, Note_on_c, 1, 82, 0
2, 5184, Note_on_c, 1, 83, 64
2, 5229, Note_on_c, 1, 83, 0
2, 5232, Note_on_c, 1, 79, 64
2, 5321, Note_on_c, 1, 79, 0
2, 5328, Note_on_c, 1, 78, 64
2, 5417, Note_on_c, 1, 78, 0
2, 5424, Note_on_c, 1, 76, 64
2, 5495, Note_on_c, 1, 76, 0
2, 5496, Note_on_c, 1, 79, 64
2, 5519, Note_on_c, 1, 79, 0
2, 5520, Note_on_c, 1, 78, 64
2, 5543, Note_on_c, 1, 78, 0
2, 5544, Note_on_c, 1, 76, 64
2, 5567, Note_on_c, 1, 76, 0
2, 5568, Note_on_c, 1, 85, 64
2, 5591, Note_on_c, 1, 85, 0
2, 5592, Note_on_c, 1, 83, 64
2, 5615, Note_on_c, 1, 83, 0
2, 5616, Note_on_c, 1, 82, 64
2, 5639, Note_on_c, 1, 82, 0
2, 5640, Note_on_c, 1, 80, 64
2, 5663, Note_on_c, 1, 80, 0
2, 5664, Note_on_c, 1, 78, 64
2, 5687, Note_on_c, 1, 78, 0
2, 5688, Note_on_c, 1, 76, 64
2, 5711, Note_on_c, 1, 76, 0
2, 5712, Note_on_c, 1, 74, 64
2, 5735, Note_on_c, 1, 74, 0
2, 5736, Note_on_c, 1, 73, 64
2, 5759, Note_on_c, 1, 73, 0
2, 5760, Note_on_c, 1, 71, 64
2, 5783, Note_on_c, 1, 71, 0
2, 5784, Note_on_c, 1, 70, 64
2, 5807, Note_on_c, 1, 70, 0
2, 5808, Note_on_c, 1, 71, 64
2, 5831, Note_on_c, 1, 71, 0
2, 5832, Note_on_c, 1, 76, 64
2, 5855, Note_on_c, 1, 76, 0
2, 5856, Note_on_c, 1, 73, 64
2, 5989, Note_on_c, 1, 73, 0
2, 6000, Note_on_c, 1, 71, 64
2, 6045, Note_on_c, 1, 71, 0
2, 6048, Note_on_c, 1, 71, 64
2, 6137, Note_on_c, 1, 71, 0
2, 6192, Note_on_c, 1, 71, 64
2, 6215, Note_on_c, 1, 71, 0
2, 6216, Note_on_c, 1, 73, 64
2, 6239, Note_on_c, 1, 73, 0
2, 6240, Note_on_c, 1, 74, 64
2, 6263, Note_on_c, 1, 74, 0
2, 6264, Note_on_c, 1, 76, 64
2, 6287, Note_on_c, 1, 76, 0
2, 6288, Note_on_c, 1, 76, 64
2, 6294, Note_on_c, 1, 76, 0
2, 6294, Note_on_c, 1, 78, 64
2, 6300, Note_on_c, 1, 78, 0
2, 6300, Note_on_c, 1, 76, 64
2, 6306, Note_on_c, 1, 76, 0
2, 6306, Note_on_c, 1, 78, 64
2, 6312, Note_on_c, 1, 78, 0
2, 6312, Note_on_c, 1, 74, 64
2, 6324, Note_on_c, 1, 74, 0
2, 6324, Note_on_c, 1, 76, 64
2, 6336, Note_on_c, 1, 76, 0
2, 6336, Note_on_c, 1, 78, 64
2, 6601, Note_on_c, 1, 78, 0
2, 6672, Note_on_c, 1, 78, 64
2, 6717, Note_on_c, 1, 78, 0
2, 6720, Note_on_c, 1, 78, 64
2, 6765, Note_on_c, 1, 78, 0
2, 6768, Note_on_c, 1, 78, 64
2, 6813, Note_on_c, 1, 78, 0
2, 6816, Note_on_c, 1, 78, 64
2, 6861, Note_on_c, 1, 78, 0
2, 6864, Note_on_c, 1, 78, 64
2, 6909, Note_on_c, 1, 78, 0
2, 6912, Note_on_c, 1, 78, 64
2, 6957, Note_on_c, 1, 78, 0
2, 6960, Note_on_c, 1, 83, 64
2, 6983, Note_on_c, 1, 83, 0
2, 6984, Note_on_c, 1, 82, 64
2, 7007, Note_on_c, 1, 82, 0
2, 7008, Note_on_c, 1, 83, 64
2, 7053, Note_on_c, 1, 83, 0
2, 7056, Note_on_c, 1, 78, 64
2, 7101, Note_on_c, 1, 78, 0
2, 7104, Note_on_c, 1, 78, 64
2, 7149, Note_on_c, 1, 78, 0
2, 7152, Note_on_c, 1, 78, 64
2, 7197, Note_on_c, 1, 78, 0
2, 7200, Note_on_c, 1, 78, 64
2, 7245, Note_on_c, 1, 78, 0
2, 7248, Note_on_c, 1, 85, 64
2, 7272, Note_on_c, 1, 85, 0
2, 7272, Note_on_c, 1, 83, 64
2, 7295, Note_on_c, 1, 83, 0
2, 7296, Note_on_c, 1, 85, 64
2, 7341, Note_on_c, 1, 85, 0
2, 7344, Note_on_c, 1, 78, 64
2, 7389, Note_on_c, 1, 78, 0
2, 7392, Note_on_c, 1, 78, 64
2, 7437, Note_on_c, 1, 78, 0
2, 7440, Note_on_c, 1, 78, 64
2, 7485, Note_on_c, 1, 78, 0
2, 7488, Note_on_c, 1, 78, 64
2, 7533, Note_on_c, 1, 78, 0
2, 7536, Note_on_c, 1, 86, 64
2, 7548, Note_on_c, 1, 86, 0
2, 7548, Note_on_c, 1, 85, 64
2, 7560, Note_on_c, 1, 85, 0
2, 7560, Note_on_c, 1, 83, 64
2, 7583, Note_on_c, 1, 83, 0
2, 7584, Note_on_c, 1, 85, 64
2, 7629, Note_on_c, 1, 85, 0
2, 7632, Note_on_c, 1, 85, 64
2, 7644, Note_on_c, 1, 85, 0
2, 7644, Note_on_c, 1, 83, 64
2, 7656, Note_on_c, 1, 83, 0
2, 7656, Note_on_c, 1, 81, 64
2, 7679, Note_on_c, 1, 81, 0
2, 7680, Note_on_c, 1, 83, 64
2, 7725, Note_on_c, 1, 83, 0
2, 7728, Note_on_c, 1, 83, 64
2, 7740, Note_on_c, 1, 83, 0
2, 7740, Note_on_c, 1, 81, 64
2, 7752, Note_on_c, 1, 81, 0
2, 7752, Note_on_c, 1, 80, 64
2, 7775, Note_on_c, 1, 80, 0
2, 7776, Note_on_c, 1, 81, 64
2, 7821, Note_on_c, 1, 81, 0
2, 7824, Note_on_c, 1, 66, 64
2, 7847, Note_on_c, 1, 66, 0
2, 7848, Note_on_c, 1, 68, 64
2, 7871, Note_on_c, 1, 68, 0
2, 7872, Note_on_c, 1, 69, 64
2, 7895, Note_on_c, 1, 69, 0
2, 7896, Note_on_c, 1, 73, 64
2, 7919, Note_on_c, 1, 73, 0
2, 7920, Note_on_c, 1, 78, 64
2, 7943, Note_on_c, 1, 78, 0
2, 7944, Note_on_c, 1, 73, 64
2, 7967, Note_on_c, 1, 73, 0
2, 7968, Note_on_c, 1, 69, 64
2, 7991, Note_on_c, 1, 69, 0
2, 7992, Note_on_c, 1, 73, 64
2, 8015, Note_on_c, 1, 73, 0
2, 8016, Note_on_c, 1, 68, 64
2, 8039, Note_on_c, 1, 68, 0
2, 8040, Note_on_c, 1, 73, 64
2, 8063, Note_on_c, 1, 73, 0
2, 8064, Note_on_c, 1, 69, 64
2, 8087, Note_on_c, 1, 69, 0
2, 8088, Note_on_c, 1, 68, 64
2, 8111, Note_on_c, 1, 68, 0
2, 8112, Note_on_c, 1, 66, 64
2, 8135, Note_on_c, 1, 66, 0
2, 8136, Note_on_c, 1, 68, 64
2, 8159, Note_on_c, 1, 68, 0
2, 8160, Note_on_c, 1, 69, 64
2, 8183, Note_on_c, 1, 69, 0
2, 8184, Note_on_c, 1, 73, 64
2, 8207, Note_on_c, 1, 73, 0
2, 8208, Note_on_c, 1, 78, 64
2, 8231, Note_on_c, 1, 78, 0
2, 8232, Note_on_c, 1, 73, 64
2, 8255, Note_on_c, 1, 73, 0
2, 8256, Note_on_c, 1, 71, 64
2, 8279, Note_on_c, 1, 71, 0
2, 8280, Note_on_c, 1, 69, 64
2, 8303, Note_on_c, 1, 69, 0
2, 8304, Note_on_c, 1, 68, 64
2, 8327, Note_on_c, 1, 68, 0
2, 8328, Note_on_c, 1, 66, 64
2, 8351, Note_on_c, 1, 66, 0
2, 8352, Note_on_c, 1, 65, 64
2, 8375, Note_on_c, 1, 65, 0
2, 8376, Note_on_c, 1, 63, 64
2, 8399, Note_on_c, 1, 63, 0
2, 8400, Note_on_c, 1, 61, 64
2, 8423, Note_on_c, 1, 61, 0
2, 8424, Note_on_c, 1, 63, 64
2, 8447, Note_on_c, 1, 63, 0
2, 8448, Note_on_c, 1, 65, 64
2, 8471, Note_on_c, 1, 65, 0
2, 8472, Note_on_c, 1, 66, 64
2, 8495, Note_on_c, 1, 66, 0
2, 8496, Note_on_c, 1, 68, 64
2, 8519, Note_on_c, 1, 68, 0
2, 8520, Note_on_c, 1, 69, 64
2, 8543, Note_on_c, 1, 69, 0
2, 8544, Note_on_c, 1, 71, 64
2, 8567, Note_on_c, 1, 71, 0
2, 8568, Note_on_c, 1, 69, 64
2, 8591, Note_on_c, 1, 69, 0
2, 8592, Note_on_c, 1, 71, 64
2, 8615, Note_on_c, 1, 71, 0
2, 8616, Note_on_c, 1, 68, 64
2, 8639, Note_on_c, 1, 68, 0
2, 8640, Note_on_c, 1, 69, 64
2, 8685, Note_on_c, 1, 69, 0
2, 8688, Note_on_c, 1, 66, 64
2, 8733, Note_on_c, 1, 66, 0
2, 8832, Note_on_c, 1, 71, 64
2, 8973, Note_on_c, 1, 71, 0
2, 8976, Note_on_c, 1, 73, 64
2, 9000, Note_on_c, 1, 73, 0
2, 9000, Note_on_c, 1, 71, 64
2, 9023, Note_on_c, 1, 71, 0
2, 9024, Note_on_c, 1, 74, 64
2, 9047, Note_on_c, 1, 74, 0
2, 9048, Note_on_c, 1, 73, 64
2, 9071, Note_on_c, 1, 73, 0
2, 9072, Note_on_c, 1, 71, 64
2, 9095, Note_on_c, 1, 71, 0
2, 9096, Note_on_c, 1, 69, 64
2, 9119, Note_on_c, 1, 69, 0
2, 9120, Note_on_c, 1, 68, 64
2, 9187, Note_on_c, 1, 68, 0
2, 9192, Note_on_c, 1, 66, 64
2, 9215, Note_on_c, 1, 66, 0
2, 9216, Note_on_c, 1, 66, 64
2, 9239, Note_on_c, 1, 66, 0
2, 9240, Note_on_c, 1, 65, 64
2, 9263, Note_on_c, 1, 65, 0
2, 9264, Note_on_c, 1, 66, 64
2, 9287, Note_on_c, 1, 66, 0
2, 9288, Note_on_c, 1, 68, 64
2, 9311, Note_on_c, 1, 68, 0
2, 9312, Note_on_c, 1, 69, 64
2, 9335, Note_on_c, 1, 69, 0
2, 9336, Note_on_c, 1, 71, 64
2, 9359, Note_on_c, 1, 71, 0
2, 9360, Note_on_c, 1, 73, 64
2, 9383, Note_on_c, 1, 73, 0
2, 9384, Note_on_c, 1, 74, 64
2, 9407, Note_on_c, 1, 74, 0
2, 9408, Note_on_c, 1, 76, 64
2, 9431, Note_on_c, 1, 76, 0
2, 9432, Note_on_c, 1, 74, 64
2, 9455, Note_on_c, 1, 74, 0
2, 9456, Note_on_c, 1, 76, 64
2, 9479, Note_on_c, 1, 76, 0
2, 9480, Note_on_c, 1, 73, 64
2, 9503, Note_on_c, 1, 73, 0
2, 9504, Note_on_c, 1, 74, 64
2, 9527, Note_on_c, 1, 74, 0
2, 9528, Note_on_c, 1, 73, 64
2, 9551, Note_on_c, 1, 73, 0
2, 9552, Note_on_c, 1, 71, 64
2, 9575, Note_on_c, 1, 71, 0
2, 9576, Note_on_c, 1, 73, 64
2, 9599, Note_on_c, 1, 73, 0
2, 9600, Note_on_c, 1, 74, 64
2, 9623, Note_on_c, 1, 74, 0
2, 9624, Note_on_c, 1, 78, 64
2, 9647, Note_on_c, 1, 78, 0
2, 9648, Note_on_c, 1, 83, 64
2, 9671, Note_on_c, 1, 83, 0
2, 9672, Note_on_c, 1, 78, 64
2, 9695, Note_on_c, 1, 78, 0
2, 9696, Note_on_c, 1, 76, 64
2, 9719, Note_on_c, 1, 76, 0
2, 9720, Note_on_c, 1, 74, 64
2, 9743, Note_on_c, 1, 74, 0
2, 9744, Note_on_c, 1, 73, 64
2, 9767, Note_on_c, 1, 73, 0
2, 9768, Note_on_c, 1, 71, 64
2, 9791, Note_on_c, 1, 71, 0
2, 9792, Note_on_c, 1, 70, 64
2, 9815, Note_on_c, 1, 70, 0
2, 9816, Note_on_c, 1, 68, 64
2, 9839, Note_on_c, 1, 68, 0
2, 9840, Note_on_c, 1, 66, 64
2, 9863, Note_on_c, 1, 66, 0
2, 9864, Note_on_c, 1, 68, 64
2, 9887, Note_on_c, 1, 68, 0
2, 9888, Note_on_c, 1, 70, 64
2, 9911, Note_on_c, 1, 70, 0
2, 9912, Note_on_c, 1, 71, 64
2, 9935, Note_on_c, 1, 71, 0
2, 9936, Note_on_c, 1, 73, 64
2, 9959, Note_on_c, 1, 73, 0
2, 9960, Note_on_c, 1, 74, 64
2, 9983, Note_on_c, 1, 74, 0
2, 9984, Note_on_c, 1, 76, 64
2, 10007, Note_on_c, 1, 76, 0
2, 10008, Note_on_c, 1, 74, 64
2, 10031, Note_on_c, 1, 74, 0
2, 10032, Note_on_c, 1, 76, 64
2, 10055, Note_on_c, 1, 76, 0
2, 10056, Note_on_c, 1, 73, 64
2, 10079, Note_on_c, 1, 73, 0
2, 10080, Note_on_c, 1, 74, 64
2, 10125, Note_on_c, 1, 74, 0
2, 10128, Note_on_c, 1, 83, 64
2, 10217, Note_on_c, 1, 83, 0
2, 10224, Note_on_c, 1, 81, 64
2, 10313, Note_on_c, 1, 81, 0
2, 10320, Note_on_c, 1, 79, 64
2, 10365, Note_on_c, 1, 79, 0
2, 10368, Note_on_c, 1, 85, 64
2, 10413, Note_on_c, 1, 85, 0
2, 10416, Note_on_c, 1, 79, 64
2, 10505, Note_on_c, 1, 79, 0
2, 10512, Note_on_c, 1, 78, 64
2, 10601, Note_on_c, 1, 78, 0
2, 10608, Note_on_c, 1, 76, 64
2, 10653, Note_on_c, 1, 76, 0
2, 10656, Note_on_c, 1, 81, 64
2, 10701, Note_on_c, 1, 81, 0
2, 10704, Note_on_c, 1, 76, 64
2, 10793, Note_on_c, 1, 76, 0
2, 10800, Note_on_c, 1, 74, 64
2, 10889, Note_on_c, 1, 74, 0
2, 10896, Note_on_c, 1, 73, 64
2, 10941, Note_on_c, 1, 73, 0
2, 10944, Note_on_c, 1, 78, 64
2, 10967, Note_on_c, 1, 78, 0
2, 10968, Note_on_c, 1, 76, 64
2, 10991, Note_on_c, 1, 76, 0
2, 10992, Note_on_c, 1, 74, 64
2, 11015, Note_on_c, 1, 74, 0
2, 11016, Note_on_c, 1, 73, 64
2, 11039, Note_on_c, 1, 73, 0
2, 11040, Note_on_c, 1, 71, 64
2, 11063, Note_on_c, 1, 71, 0
2, 11064, Note_on_c, 1, 73, 64
2, 11087, Note_on_c, 1, 73, 0
2, 11088, Note_on_c, 1, 74, 64
2, 11111, Note_on_c, 1, 74, 0
2, 11112, Note_on_c, 1, 76, 64
2, 11135, Note_on_c, 1, 76, 0
2, 11136, Note_on_c, 1, 78, 64
2, 11181, Note_on_c, 1, 78, 0
2, 11184, Note_on_c, 1, 82, 64
2, 11229, Note_on_c, 1, 82, 0
2, 11232, Note_on_c, 1, 83, 64
2, 11277, Note_on_c, 1, 83, 0
2, 11280, Note_on_c, 1, 78, 64
2, 11325, Note_on_c, 1, 78, 0
2, 11328, Note_on_c, 1, 74, 64
2, 11373, Note_on_c, 1, 74, 0
2, 11376, Note_on_c, 1, 78, 64
2, 11421, Note_on_c, 1, 78, 0
2, 11424, Note_on_c, 1, 83, 64
2, 11491, Note_on_c, 1, 83, 0
2, 11496, Note_on_c, 1, 82, 64
2, 11508, Note_on_c, 1, 82, 0
2, 11508, Note_on_c, 1, 83, 64
2, 11520, Note_on_c, 1, 83, 0
2, 11520, Note_on_c, 1, 85, 64
2, 11543, Note_on_c, 1, 85, 0
2, 11544, Note_on_c, 1, 83, 64
2, 11567, Note_on_c, 1, 83, 0
2, 11568, Note_on_c, 1, 82, 64
2, 11591, Note_on_c, 1, 82, 0
2, 11592, Note_on_c, 1, 80, 64
2, 11615, Note_on_c, 1, 80, 0
2, 11616, Note_on_c, 1, 78, 64
2, 11639, Note_on_c, 1, 78, 0
2, 11640, Note_on_c, 1, 80, 64
2, 11663, Note_on_c, 1, 80, 0
2, 11664, Note_on_c, 1, 82, 64
2, 11687, Note_on_c, 1, 82, 0
2, 11688, Note_on_c, 1, 83, 64
2, 11711, Note_on_c, 1, 83, 0
2, 11712, Note_on_c, 1, 85, 64
2, 11735, Note_on_c, 1, 85, 0
2, 11736, Note_on_c, 1, 83, 64
2, 11759, Note_on_c, 1, 83, 0
2, 11760, Note_on_c, 1, 85, 64
2, 11783, Note_on_c, 1, 85, 0
2, 11784, Note_on_c, 1, 82, 64
2, 11807, Note_on_c, 1, 82, 0
2, 11808, Note_on_c, 1, 83, 64
2, 11853, Note_on_c, 1, 83, 0
2, 11856, Note_on_c, 1, 79, 64
2, 11945, Note_on_c, 1, 79, 0
2, 11952, Note_on_c, 1, 78, 64
2, 12041, Note_on_c, 1, 78, 0
2, 12048, Note_on_c, 1, 76, 64
2, 12119, Note_on_c, 1, 76, 0
2, 12120, Note_on_c, 1, 79, 64
2, 12143, Note_on_c, 1, 79, 0
2, 12144, Note_on_c, 1, 78, 64
2, 12167, Note_on_c, 1, 78, 0
2, 12168, Note_on_c, 1, 76, 64
2, 12191, Note_on_c, 1, 76, 0
2, 12192, Note_on_c, 1, 85, 64
2, 12215, Note_on_c, 1, 85, 0
2, 12216, Note_on_c, 1, 83, 64
2, 12239, Note_on_c, 1, 83, 0
2, 12240, Note_on_c, 1, 82, 64
2, 12263, Note_on_c, 1, 82, 0
2, 12264, Note_on_c, 1, 80, 64
2, 12287, Note_on_c, 1, 80, 0
2, 12288, Note_on_c, 1, 78, 64
2, 12311, Note_on_c, 1, 78, 0
2, 12312, Note_on_c, 1, 76, 64
2, 12335, Note_on_c, 1, 76, 0
2, 12336, Note_on_c, 1, 74, 64
2, 12359, Note_on_c, 1, 74, 0
2, 12360, Note_on_c, 1, 73, 64
2, 12383, Note_on_c, 1, 73, 0
2, 12384, Note_on_c, 1, 71, 64
2, 12407, Note_on_c, 1, 71, 0
2, 12408, Note_on_c, 1, 70, 64
2, 12431, Note_on_c, 1, 70, 0
2, 12432, Note_on_c, 1, 71, 64
2, 12455, Note_on_c, 1, 71, 0
2, 12456, Note_on_c, 1, 76, 64
2, 12479, Note_on_c, 1, 76, 0
2, 12480, Note_on_c, 1, 73, 64
2, 12613, Note_on_c, 1, 73, 0
2, 12624, Note_on_c, 1, 71, 64
2, 12669, Note_on_c, 1, 71, 0
2, 12672, Note_on_c, 1, 71, 64
2, 12761, Note_on_c, 1, 71, 0
2, 12816, Note_on_c, 1, 71, 64
2, 12839, Note_on_c, 1, 71, 0
2, 12840, Note_on_c, 1, 73, 64
2, 12863, Note_on_c, 1, 73, 0
2, 12864, Note_on_c, 1, 74, 64
2, 12887, Note_on_c, 1, 74, 0
2, 12888, Note_on_c, 1, 76, 64
2, 12911, Note_on_c, 1, 76, 0
2, 12912, Note_on_c, 1, 76, 64
2, 12918, Note_on_c, 1, 76, 0
2, 12918, Note_on_c, 1, 78, 64
2, 12924, Note_on_c, 1, 78, 0
2, 12924, Note_on_c, 1, 76, 64
2, 12930, Note_on_c, 1, 76, 0
2, 12930, Note_on_c, 1, 78, 64
2, 12936, Note_on_c, 1, 78, 0
2, 12936, Note_on_c, 1, 74, 64
2, 12948, Note_on_c, 1, 74, 0
2, 12948, Note_on_c, 1, 76, 64
2, 12960, Note_on_c, 1, 76, 0
2, 12960, Note_on_c, 1, 78, 64
2, 13225, Note_on_c, 1, 78, 0
2, 13296, Note_on_c, 1, 81, 64
2, 13341, Note_on_c, 1, 81, 0
2, 13344, Note_on_c, 1, 81, 64
2, 13389, Note_on_c, 1, 81, 0
2, 13392, Note_on_c, 1, 81, 64
2, 13437, Note_on_c, 1, 81, 0
2, 13440, Note_on_c, 1, 81, 64
2, 13485, Note_on_c, 1, 81, 0
2, 13488, Note_on_c, 1, 81, 64
2, 13533, Note_on_c, 1, 81, 0
2, 13536, Note_on_c, 1, 81, 64
2, 13581, Note_on_c, 1, 81, 0
2, 13584, Note_on_c, 1, 84, 64
2, 13607, Note_on_c, 1, 84, 0
2, 13608, Note_on_c, 1, 83, 64
2, 13631, Note_on_c, 1, 83, 0
2, 13632, Note_on_c, 1, 81, 64
2, 13677, Note_on_c, 1, 81, 0
2, 13680, Note_on_c, 1, 81, 64
2, 13725, Note_on_c, 1, 81, 0
2, 13728, Note_on_c, 1, 81, 64
2, 13773, Note_on_c, 1, 81, 0
2, 13776, Note_on_c, 1, 81, 64
2, 13821, Note_on_c, 1, 81, 0
2, 13824, Note_on_c, 1, 81, 64
2, 13869, Note_on_c, 1, 81, 0
2, 13872, Note_on_c, 1, 78, 64
2, 13895, Note_on_c, 1, 78, 0
2, 13896, Note_on_c, 1, 79, 64
2, 13919, Note_on_c, 1, 79, 0
2, 13920, Note_on_c, 1, 81, 64
2, 13965, Note_on_c, 1, 81, 0
2, 13968, Note_on_c, 1, 79, 64
2, 13991, Note_on_c, 1, 79, 0
2, 13992, Note_on_c, 1, 81, 64
2, 14015, Note_on_c, 1, 81, 0
2, 14016, Note_on_c, 1, 83, 64
2, 14061, Note_on_c, 1, 83, 0
2, 14064, Note_on_c, 1, 78, 64
2, 14109, Note_on_c, 1, 78, 0
2, 14112, Note_on_c, 1, 79, 64
2, 14135, Note_on_c, 1, 79, 0
2, 14136, Note_on_c, 1, 78, 64
2, 14159, Note_on_c, 1, 78, 0
2, 14160, Note_on_c, 1, 76, 64
2, 14183, Note_on_c, 1, 76, 0
2, 14184, Note_on_c, 1, 78, 64
2, 14207, Note_on_c, 1, 78, 0
2, 14208, Note_on_c, 1, 79, 64
2, 14231, Note_on_c, 1, 79, 0
2, 14232, Note_on_c, 1, 81, 64
2, 14255, Note_on_c, 1, 81, 0
2, 14256, Note_on_c, 1, 83, 64
2, 14279, Note_on_c, 1, 83, 0
2, 14280, Note_on_c, 1, 81, 64
2, 14303, Note_on_c, 1, 81, 0
2, 14304, Note_on_c, 1, 79, 64
2, 14327, Note_on_c, 1, 79, 0
2, 14328, Note_on_c, 1, 83, 64
2, 14351, Note_on_c, 1, 83, 0
2, 14352, Note_on_c, 1, 78, 64
2, 14375, Note_on_c, 1, 78, 0
2, 14376, Note_on_c, 1, 83, 64
2, 14399, Note_on_c, 1, 83, 0
2, 14400, Note_on_c, 1, 76, 64
2, 14423, Note_on_c, 1, 76, 0
2, 14424, Note_on_c, 1, 74, 64
2, 14447, Note_on_c, 1, 74, 0
2, 14448, Note_on_c, 1, 73, 64
2, 14471, Note_on_c, 1, 73, 0
2, 14472, Note_on_c, 1, 74, 64
2, 14495, Note_on_c, 1, 74, 0
2, 14496, Note_on_c, 1, 76, 64
2, 14519, Note_on_c, 1, 76, 0
2, 14520, Note_on_c, 1, 78, 64
2, 14543, Note_on_c, 1, 78, 0
2, 14544, Note_on_c, 1, 79, 64
2, 14567, Note_on_c, 1, 79, 0
2, 14568, Note_on_c, 1, 78, 64
2, 14591, Note_on_c, 1, 78, 0
2, 14592, Note_on_c, 1, 76, 64
2, 14615, Note_on_c, 1, 76, 0
2, 14616, Note_on_c, 1, 79, 64
2, 14639, Note_on_c, 1, 79, 0
2, 14640, Note_on_c, 1, 74, 64
2, 14663, Note_on_c, 1, 74, 0
2, 14664, Note_on_c, 1, 79, 64
2, 14687, Note_on_c, 1, 79, 0
2, 14688, Note_on_c, 1, 73, 64
2, 14711, Note_on_c, 1, 73, 0
2, 14712, Note_on_c, 1, 74, 64
2, 14735, Note_on_c, 1, 74, 0
2, 14736, Note_on_c, 1, 76, 64
2, 14759, Note_on_c, 1, 76, 0
2, 14760, Note_on_c, 1, 74, 64
2, 14783, Note_on_c, 1, 74, 0
2, 14784, Note_on_c, 1, 73, 64
2, 14807, Note_on_c, 1, 73, 0
2, 14808, Note_on_c, 1, 71, 64
2, 14831, Note_on_c, 1, 71, 0
2, 14832, Note_on_c, 1, 69, 64
2, 14855, Note_on_c, 1, 69, 0
2, 14856, Note_on_c, 1, 67, 64
2, 14879, Note_on_c, 1, 67, 0
2, 14880, Note_on_c, 1, 66, 64
2, 14903, Note_on_c, 1, 66, 0
2, 14904, Note_on_c, 1, 64, 64
2, 14927, Note_on_c, 1, 64, 0
2, 14928, Note_on_c, 1, 62, 64
2, 14951, Note_on_c, 1, 62, 0
2, 14952, Note_on_c, 1, 61, 64
2, 14975, Note_on_c, 1, 61, 0
2, 14976, Note_on_c, 1, 62, 64
2, 15021, Note_on_c, 1, 62, 0
2, 15024, Note_on_c, 1, 78, 64
2, 15047, Note_on_c, 1, 78, 0
2, 15048, Note_on_c, 1, 79, 64
2, 15071, Note_on_c, 1, 79, 0
2, 15072, Note_on_c, 1, 81, 64
2, 15095, Note_on_c, 1, 81, 0
2, 15096, Note_on_c, 1, 79, 64
2, 15119, Note_on_c, 1, 79, 0
2, 15120, Note_on_c, 1, 78, 64
2, 15143, Note_on_c, 1, 78, 0
2, 15144, Note_on_c, 1, 76, 64
2, 15167, Note_on_c, 1, 76, 0
2, 15168, Note_on_c, 1, 74, 64
2, 15213, Note_on_c, 1, 74, 0
2, 15216, Note_on_c, 1, 73, 64
2, 15261, Note_on_c, 1, 73, 0
2, 15264, Note_on_c, 1, 71, 64
2, 15309, Note_on_c, 1, 71, 0
2, 15312, Note_on_c, 1, 74, 64
2, 15335, Note_on_c, 1, 74, 0
2, 15336, Note_on_c, 1, 76, 64
2, 15359, Note_on_c, 1, 76, 0
2, 15360, Note_on_c, 1, 78, 64
2, 15383, Note_on_c, 1, 78, 0
2, 15384, Note_on_c, 1, 76, 64
2, 15407, Note_on_c, 1, 76, 0
2, 15408, Note_on_c, 1, 74, 64
2, 15431, Note_on_c, 1, 74, 0
2, 15432, Note_on_c, 1, 73, 64
2, 15455, Note_on_c, 1, 73, 0
2, 15456, Note_on_c, 1, 71, 64
2, 15501, Note_on_c, 1, 71, 0
2, 15504, Note_on_c, 1, 69, 64
2, 15549, Note_on_c, 1, 69, 0
2, 15552, Note_on_c, 1, 68, 64
2, 15597, Note_on_c, 1, 68, 0
2, 15600, Note_on_c, 1, 80, 64
2, 15623, Note_on_c, 1, 80, 0
2, 15624, Note_on_c, 1, 78, 64
2, 15647, Note_on_c, 1, 78, 0
2, 15648, Note_on_c, 1, 80, 64
2, 15693, Note_on_c, 1, 80, 0
2, 15696, Note_on_c, 1, 83, 64
2, 15741, Note_on_c, 1, 83, 0
2, 15744, Note_on_c, 1, 76, 64
2, 15789, Note_on_c, 1, 76, 0
2, 15792, Note_on_c, 1, 80, 64
2, 15837, Note_on_c, 1, 80, 0
2, 15840, Note_on_c, 1, 81, 64
2, 15885, Note_on_c, 1, 81, 0
2, 15888, Note_on_c, 1, 76, 64
2, 15933, Note_on_c, 1, 76, 0
2, 15936, Note_on_c, 1, 76, 64
2, 15981, Note_on_c, 1, 76, 0
2, 15984, Note_on_c, 1, 76, 64
2, 16029, Note_on_c, 1, 76, 0
2, 16032, Note_on_c, 1, 76, 64
2, 16077, Note_on_c, 1, 76, 0
2, 16080, Note_on_c, 1, 76, 64
2, 16125, Note_on_c, 1, 76, 0
2, 16128, Note_on_c, 1, 76, 64
2, 16173, Note_on_c, 1, 76, 0
2, 16176, Note_on_c, 1, 81, 64
2, 16199, Note_on_c, 1, 81, 0
2, 16200, Note_on_c, 1, 80, 64
2, 16223, Note_on_c, 1, 80, 0
2, 16224, Note_on_c, 1, 81, 64
2, 16269, Note_on_c, 1, 81, 0
2, 16272, Note_on_c, 1, 76, 64
2, 16317, Note_on_c, 1, 76, 0
2, 16320, Note_on_c, 1, 76, 64
2, 16365, Note_on_c, 1, 76, 0
2, 16368, Note_on_c, 1, 76, 64
2, 16413, Note_on_c, 1, 76, 0
2, 16416, Note_on_c, 1, 76, 64
2, 16461, Note_on_c, 1, 76, 0
2, 16464, Note_on_c, 1, 83, 64
2, 16487, Note_on_c, 1, 83, 0
2, 16488, Note_on_c, 1, 81, 64
2, 16511, Note_on_c, 1, 81, 0
2, 16512, Note_on_c, 1, 83, 64
2, 16557, Note_on_c, 1, 83, 0
2, 16560, Note_on_c, 1, 76, 64
2, 16605, Note_on_c, 1, 76, 0
2, 16608, Note_on_c, 1, 76, 64
2, 16653, Note_on_c, 1, 76, 0
2, 16656, Note_on_c, 1, 76, 64
2, 16701, Note_on_c, 1, 76, 0
2, 16704, Note_on_c, 1, 76, 64
2, 16749, Note_on_c, 1, 76, 0
2, 16752, Note_on_c, 1, 81, 64
2, 16764, Note_on_c, 1, 81, 0
2, 16764, Note_on_c, 1, 83, 64
2, 16776, Note_on_c, 1, 83, 0
2, 16776, Note_on_c, 1, 84, 64
2, 16799, Note_on_c, 1, 84, 0
2, 16800, Note_on_c, 1, 83, 64
2, 16845, Note_on_c, 1, 83, 0
2, 16848, Note_on_c, 1, 83, 64
2, 16860, Note_on_c, 1, 83, 0
2, 16860, Note_on_c, 1, 81, 64
2, 16872, Note_on_c, 1, 81, 0
2, 16872, Note_on_c, 1, 79, 64
2, 16895, Note_on_c, 1, 79, 0
2, 16896, Note_on_c, 1, 81, 64
2, 16941, Note_on_c, 1, 81, 0
2, 16944, Note_on_c, 1, 81, 64
2, 16956, Note_on_c, 1, 81, 0
2, 16956, Note_on_c, 1, 79, 64
2, 16968, Note_on_c, 1, 79, 0
2, 16968, Note_on_c, 1, 78, 64
2, 16991, Note_on_c, 1, 78, 0
2, 16992, Note_on_c, 1, 79, 64
2, 17015, Note_on_c, 1, 79, 0
2, 17016, Note_on_c, 1, 78, 64
2, 17039, Note_on_c, 1, 78, 0
2, 17040, Note_on_c, 1, 76, 64
2, 17063, Note_on_c, 1, 76, 0
2, 17064, Note_on_c, 1, 78, 64
2, 17087, Note_on_c, 1, 78, 0
2, 17088, Note_on_c, 1, 79, 64
2, 17111, Note_on_c, 1, 79, 0
2, 17112, Note_on_c, 1, 83, 64
2, 17135, Note_on_c, 1, 83, 0
2, 17136, Note_on_c, 1, 88, 64
2, 17159, Note_on_c, 1, 88, 0
2, 17160, Note_on_c, 1, 83, 64
2, 17183, Note_on_c, 1, 83, 0
2, 17184, Note_on_c, 1, 79, 64
2, 17207, Note_on_c, 1, 79, 0
2, 17208, Note_on_c, 1, 83, 64
2, 17231, Note_on_c, 1, 83, 0
2, 17232, Note_on_c, 1, 78, 64
2, 17255, Note_on_c, 1, 78, 0
2, 17256, Note_on_c, 1, 83, 64
2, 17279, Note_on_c, 1, 83, 0
2, 17280, Note_on_c, 1, 79, 64
2, 17303, Note_on_c, 1, 79, 0
2, 17304, Note_on_c, 1, 78, 64
2, 17327, Note_on_c, 1, 78, 0
2, 17328, Note_on_c, 1, 76, 64
2, 17351, Note_on_c, 1, 76, 0
2, 17352, Note_on_c, 1, 78, 64
2, 17375, Note_on_c, 1, 78, 0
2, 17376, Note_on_c, 1, 79, 64
2, 17399, Note_on_c, 1, 79, 0
2, 17400, Note_on_c, 1, 83, 64
2, 17423, Note_on_c, 1, 83, 0
2, 17424, Note_on_c, 1, 88, 64
2, 17447, Note_on_c, 1, 88, 0
2, 17448, Note_on_c, 1, 83, 64
2, 17471, Note_on_c, 1, 83, 0
2, 17472, Note_on_c, 1, 81, 64
2, 17495, Note_on_c, 1, 81, 0
2, 17496, Note_on_c, 1, 79, 64
2, 17519, Note_on_c, 1, 79, 0
2, 17520, Note_on_c, 1, 78, 64
2, 17543, Note_on_c, 1, 78, 0
2, 17544, Note_on_c, 1, 76, 64
2, 17567, Note_on_c, 1, 76, 0
2, 17568, Note_on_c, 1, 75, 64
2, 17591, Note_on_c, 1, 75, 0
2, 17592, Note_on_c, 1, 73, 64
2, 17615, Note_on_c, 1, 73, 0
2, 17616, Note_on_c, 1, 71, 64
2, 17639, Note_on_c, 1, 71, 0
2, 17640, Note_on_c, 1, 73, 64
2, 17663, Note_on_c, 1, 73, 0
2, 17664, Note_on_c, 1, 75, 64
2, 17687, Note_on_c, 1, 75, 0
2, 17688, Note_on_c, 1, 76, 64
2, 17711, Note_on_c, 1, 76, 0
2, 17712, Note_on_c, 1, 78, 64
2, 17735, Note_on_c, 1, 78, 0
2, 17736, Note_on_c, 1, 79, 64
2, 17759, Note_on_c, 1, 79, 0
2, 17760, Note_on_c, 1, 81, 64
2, 17783, Note_on_c, 1, 81, 0
2, 17784, Note_on_c, 1, 79, 64
2, 17807, Note_on_c, 1, 79, 0
2, 17808, Note_on_c, 1, 81, 64
2, 17831, Note_on_c, 1, 81, 0
2, 17832, Note_on_c, 1, 78, 64
2, 17855, Note_on_c, 1, 78, 0
2, 17856, Note_on_c, 1, 79, 64
2, 17901, Note_on_c, 1, 79, 0
2, 17904, Note_on_c, 1, 84, 64
2, 17993, Note_on_c, 1, 84, 0
2, 18000, Note_on_c, 1, 83, 64
2, 18089, Note_on_c, 1, 83, 0
2, 18096, Note_on_c, 1, 81, 64
2, 18167, Note_on_c, 1, 81, 0
2, 18168, Note_on_c, 1, 79, 64
2, 18191, Note_on_c, 1, 79, 0
2, 18192, Note_on_c, 1, 78, 64
2, 18215, Note_on_c, 1, 78, 0
2, 18216, Note_on_c, 1, 79, 64
2, 18239, Note_on_c, 1, 79, 0
2, 18240, Note_on_c, 1, 81, 64
2, 18263, Note_on_c, 1, 81, 0
2, 18264, Note_on_c, 1, 83, 64
2, 18287, Note_on_c, 1, 83, 0
2, 18288, Note_on_c, 1, 84, 64
2, 18311, Note_on_c, 1, 84, 0
2, 18312, Note_on_c, 1, 83, 64
2, 18335, Note_on_c, 1, 83, 0
2, 18336, Note_on_c, 1, 81, 64
2, 18359, Note_on_c, 1, 81, 0
2, 18360, Note_on_c, 1, 84, 64
2, 18383, Note_on_c, 1, 84, 0
2, 18384, Note_on_c, 1, 79, 64
2, 18407, Note_on_c, 1, 79, 0
2, 18408, Note_on_c, 1, 84, 64
2, 18431, Note_on_c, 1, 84, 0
2, 18432, Note_on_c, 1, 78, 64
2, 18455, Note_on_c, 1, 78, 0
2, 18456, Note_on_c, 1, 76, 64
2, 18479, Note_on_c, 1, 76, 0
2, 18480, Note_on_c, 1, 75, 64
2, 18503, Note_on_c, 1, 75, 0
2, 18504, Note_on_c, 1, 76, 64
2, 18527, Note_on_c, 1, 76, 0
2, 18528, Note_on_c, 1, 78, 64
2, 18551, Note_on_c, 1, 78, 0
2, 18552, Note_on_c, 1, 79, 64
2, 18575, Note_on_c, 1, 79, 0
2, 18576, Note_on_c, 1, 81, 64
2, 18599, Note_on_c, 1, 81, 0
2, 18600, Note_on_c, 1, 79, 64
2, 18623, Note_on_c, 1, 79, 0
2, 18624, Note_on_c, 1, 78, 64
2, 18647, Note_on_c, 1, 78, 0
2, 18648, Note_on_c, 1, 81, 64
2, 18671, Note_on_c, 1, 81, 0
2, 18672, Note_on_c, 1, 76, 64
2, 18695, Note_on_c, 1, 76, 0
2, 18696, Note_on_c, 1, 81, 64
2, 18719, Note_on_c, 1, 81, 0
2, 18720, Note_on_c, 1, 75, 64
2, 18743, Note_on_c, 1, 75, 0
2, 18744, Note_on_c, 1, 76, 64
2, 18767, Note_on_c, 1, 76, 0
2, 18768, Note_on_c, 1, 78, 64
2, 18791, Note_on_c, 1, 78, 0
2, 18792, Note_on_c, 1, 76, 64
2, 18815, Note_on_c, 1, 76, 0
2, 18816, Note_on_c, 1, 75, 64
2, 18839, Note_on_c, 1, 75, 0
2, 18840, Note_on_c, 1, 73, 64
2, 18863, Note_on_c, 1, 73, 0
2, 18864, Note_on_c, 1, 71, 64
2, 18887, Note_on_c, 1, 71, 0
2, 18888, Note_on_c, 1, 69, 64
2, 18911, Note_on_c, 1, 69, 0
2, 18912, Note_on_c, 1, 67, 64
2, 18935, Note_on_c, 1, 67, 0
2, 18936, Note_on_c, 1, 66, 64
2, 18959, Note_on_c, 1, 66, 0
2, 18960, Note_on_c, 1, 64, 64
2, 18983, Note_on_c, 1, 64, 0
2, 18984, Note_on_c, 1, 63, 64
2, 19007, Note_on_c, 1, 63, 0
2, 19008, Note_on_c, 1, 64, 64
2, 19053, Note_on_c, 1, 64, 0
2, 19056, Note_on_c, 1, 67, 64
2, 19101, Note_on_c, 1, 67, 0
2, 19104, Note_on_c, 1, 67, 64
2, 19149, Note_on_c, 1, 67, 0
2, 19152, Note_on_c, 1, 67, 64
2, 19197, Note_on_c, 1, 67, 0
2, 19200, Note_on_c, 1, 67, 64
2, 19245, Note_on_c, 1, 67, 0
2, 19248, Note_on_c, 1, 67, 64
2, 19293, Note_on_c, 1, 67, 0
2, 19296, Note_on_c, 1, 67, 64
2, 19341, Note_on_c, 1, 67, 0
2, 19344, Note_on_c, 1, 71, 64
2, 19367, Note_on_c, 1, 71, 0
2, 19368, Note_on_c, 1, 69, 64
2, 19391, Note_on_c, 1, 69, 0
2, 19392, Note_on_c, 1, 67, 64
2, 19437, Note_on_c, 1, 67, 0
2, 19440, Note_on_c, 1, 67, 64
2, 19485, Note_on_c, 1, 67, 0
2, 19488, Note_on_c, 1, 67, 64
2, 19533, Note_on_c, 1, 67, 0
2, 19536, Note_on_c, 1, 67, 64
2, 19581, Note_on_c, 1, 67, 0
2, 19584, Note_on_c, 1, 67, 64
2, 19629, Note_on_c, 1, 67, 0
2, 19632, Note_on_c, 1, 64, 64
2, 19655, Note_on_c, 1, 64, 0
2, 19656, Note_on_c, 1, 66, 64
2, 19679, Note_on_c, 1, 66, 0
2, 19680, Note_on_c, 1, 67, 64
2, 19725, Note_on_c, 1, 67, 0
2, 19728, Note_on_c, 1, 66, 64
2, 19751, Note_on_c, 1, 66, 0
2, 19752, Note_on_c, 1, 67, 64
2, 19775, Note_on_c, 1, 67, 0
2, 19776, Note_on_c, 1, 69, 64
2, 19821, Note_on_c, 1, 69, 0
2, 19824, Note_on_c, 1, 64, 64
2, 19869, Note_on_c, 1, 64, 0
2, 19872, Note_on_c, 1, 66, 64
2, 19895, Note_on_c, 1, 66, 0
2, 19896, Note_on_c, 1, 64, 64
2, 19919, Note_on_c, 1, 64, 0
2, 19920, Note_on_c, 1, 66, 64
2, 19943, Note_on_c, 1, 66, 0
2, 19944, Note_on_c, 1, 69, 64
2, 19967, Note_on_c, 1, 69, 0
2, 19968, Note_on_c, 1, 64, 64
2, 19991, Note_on_c, 1, 64, 0
2, 19992, Note_on_c, 1, 62, 64
2, 20015, Note_on_c, 1, 62, 0
2, 20016, Note_on_c, 1, 64, 64
2, 20039, Note_on_c, 1, 64, 0
2, 20040, Note_on_c, 1, 69, 64
2, 20063, Note_on_c, 1, 69, 0
2, 20064, Note_on_c, 1, 62, 64
2, 20087, Note_on_c, 1, 62, 0
2, 20088, Note_on_c, 1, 61, 64
2, 20111, Note_on_c, 1, 61, 0
2, 20112, Note_on_c, 1, 62, 64
2, 20135, Note_on_c, 1, 62, 0
2, 20136, Note_on_c, 1, 69, 64
2, 20159, Note_on_c, 1, 69, 0
2, 20160, Note_on_c, 1, 61, 64
2, 20183, Note_on_c, 1, 61, 0
2, 20184, Note_on_c, 1, 59, 64
2, 20207, Note_on_c, 1, 59, 0
2, 20208, Note_on_c, 1, 61, 64
2, 20231, Note_on_c, 1, 61, 0
2, 20232, Note_on_c, 1, 69, 64
2, 20255, Note_on_c, 1, 69, 0
2, 20256, Note_on_c, 1, 62, 64
2, 20279, Note_on_c, 1, 62, 0
2, 20280, Note_on_c, 1, 61, 64
2, 20303, Note_on_c, 1, 61, 0
2, 20304, Note_on_c, 1, 62, 64
2, 20327, Note_on_c, 1, 62, 0
2, 20328, Note_on_c, 1, 69, 64
2, 20351, Note_on_c, 1, 69, 0
2, 20352, Note_on_c, 1, 61, 64
2, 20375, Note_on_c, 1, 61, 0
2, 20376, Note_on_c, 1, 59, 64
2, 20399, Note_on_c, 1, 59, 0
2, 20400, Note_on_c, 1, 61, 64
2, 20423, Note_on_c, 1, 61, 0
2, 20424, Note_on_c, 1, 66, 64
2, 20447, Note_on_c, 1, 66, 0
2, 20448, Note_on_c, 1, 59, 64
2, 20471, Note_on_c, 1, 59, 0
2, 20472, Note_on_c, 1, 58, 64
2, 20495, Note_on_c, 1, 58, 0
2, 20496, Note_on_c, 1, 59, 64
2, 20519, Note_on_c, 1, 59, 0
2, 20520, Note_on_c, 1, 66, 64
2, 20543, Note_on_c, 1, 66, 0
2, 20544, Note_on_c, 1, 61, 64
2, 20567, Note_on_c, 1, 61, 0
2, 20568, Note_on_c, 1, 59, 64
2, 20591, Note_on_c, 1, 59, 0
2, 20592, Note_on_c, 1, 61, 64
2, 20615, Note_on_c, 1, 61, 0
2, 20616, Note_on_c, 1, 66, 64
2, 20639, Note_on_c, 1, 66, 0
2, 20640, Note_on_c, 1, 59, 64
2, 20663, Note_on_c, 1, 59, 0
2, 20664, Note_on_c, 1, 58, 64
2, 20687, Note_on_c, 1, 58, 0
2, 20688, Note_on_c, 1, 59, 64
2, 20711, Note_on_c, 1, 59, 0
2, 20712, Note_on_c, 1, 66, 64
2, 20735, Note_on_c, 1, 66, 0
2, 20736, Note_on_c, 1, 58, 64
2, 20781, Note_on_c, 1, 58, 0
2, 20784, Note_on_c, 1, 61, 64
2, 20829, Note_on_c, 1, 61, 0
2, 20832, Note_on_c, 1, 66, 64
2, 20877, Note_on_c, 1, 66, 0
2, 20880, Note_on_c, 1, 70, 64
2, 20925, Note_on_c, 1, 70, 0
2, 20928, Note_on_c, 1, 70, 64
2, 20995, Note_on_c, 1, 70, 0
2, 21000, Note_on_c, 1, 68, 64
2, 21012, Note_on_c, 1, 68, 0
2, 21012, Note_on_c, 1, 70, 64
2, 21024, Note_on_c, 1, 70, 0
2, 21024, Note_on_c, 1, 71, 64
2, 21069, Note_on_c, 1, 71, 0
2, 21072, Note_on_c, 1, 66, 64
2, 21117, Note_on_c, 1, 66, 0
2, 21120, Note_on_c, 1, 62, 64
2, 21165, Note_on_c, 1, 62, 0
2, 21168, Note_on_c, 1, 66, 64
2, 21213, Note_on_c, 1, 66, 0
2, 21216, Note_on_c, 1, 71, 64
2, 21283, Note_on_c, 1, 71, 0
2, 21288, Note_on_c, 1, 70, 64
2, 21300, Note_on_c, 1, 70, 0
2, 21300, Note_on_c, 1, 71, 64
2, 21312, Note_on_c, 1, 71, 0
2, 21312, Note_on_c, 1, 73, 64
2, 21357, Note_on_c, 1, 73, 0
2, 21360, Note_on_c, 1, 70, 64
2, 21405, Note_on_c, 1, 70, 0
2, 21408, Note_on_c, 1, 66, 64
2, 21431, Note_on_c, 1, 66, 0
2, 21432, Note_on_c, 1, 68, 64
2, 21455, Note_on_c, 1, 68, 0
2, 21456, Note_on_c, 1, 70, 64
2, 21479, Note_on_c, 1, 70, 0
2, 21480, Note_on_c, 1, 71, 64
2, 21503, Note_on_c, 1, 71, 0
2, 21504, Note_on_c, 1, 73, 64
2, 21527, Note_on_c, 1, 73, 0
2, 21528, Note_on_c, 1, 71, 64
2, 21551, Note_on_c, 1, 71, 0
2, 21552, Note_on_c, 1, 73, 64
2, 21575, Note_on_c, 1, 73, 0
2, 21576, Note_on_c, 1, 70, 64
2, 21599, Note_on_c, 1, 70, 0
2, 21600, Note_on_c, 1, 71, 64
2, 21645, Note_on_c, 1, 71, 0
2, 21648, Note_on_c, 1, 79, 64
2, 21737, Note_on_c, 1, 79, 0
2, 21744, Note_on_c, 1, 78, 64
2, 21833, Note_on_c, 1, 78, 0
2, 21840, Note_on_c, 1, 76, 64
2, 21885, Note_on_c, 1, 76, 0
2, 21888, Note_on_c, 1, 76, 64
2, 22021, Note_on_c, 1, 76, 0
2, 22032, Note_on_c, 1, 78, 64
2, 22077, Note_on_c, 1, 78, 0
2, 22080, Note_on_c, 1, 74, 64
2, 22221, Note_on_c, 1, 74, 0
2, 22224, Note_on_c, 1, 79, 64
2, 22269, Note_on_c, 1, 79, 0
2, 22272, Note_on_c, 1, 73, 64
2, 22405, Note_on_c, 1, 73, 0
2, 22416, Note_on_c, 1, 71, 64
2, 22461, Note_on_c, 1, 71, 0
2, 22464, Note_on_c, 1, 71, 64
2, 22487, Note_on_c, 1, 71, 0
2, 22488, Note_on_c, 1, 66, 64
2, 22511, Note_on_c, 1, 66, 0
2, 22512, Note_on_c, 1, 68, 64
2, 22535, Note_on_c, 1, 68, 0
2, 22536, Note_on_c, 1, 70, 64
2, 22559, Note_on_c, 1, 70, 0
2, 22560, Note_on_c, 1, 71, 64
2, 22583, Note_on_c, 1, 71, 0
2, 22584, Note_on_c, 1, 73, 64
2, 22607, Note_on_c, 1, 73, 0
2, 22608, Note_on_c, 1, 74, 64
2, 22631, Note_on_c, 1, 74, 0
2, 22632, Note_on_c, 1, 76, 64
2, 22655, Note_on_c, 1, 76, 0
2, 22656, Note_on_c, 1, 78, 64
2, 22679, Note_on_c, 1, 78, 0
2, 22680, Note_on_c, 1, 73, 64
2, 22703, Note_on_c, 1, 73, 0
2, 22704, Note_on_c, 1, 81, 64
2, 22749, Note_on_c, 1, 81, 0
2, 22752, Note_on_c, 1, 79, 64
2, 22797, Note_on_c, 1, 79, 0
2, 22800, Note_on_c, 1, 72, 64
2, 22845, Note_on_c, 1, 72, 0
2, 22848, Note_on_c, 1, 72, 64
2, 22893, Note_on_c, 1, 72, 0
2, 22896, Note_on_c, 1, 72, 64
2, 22941, Note_on_c, 1, 72, 0
2, 22944, Note_on_c, 1, 72, 64
2, 22989, Note_on_c, 1, 72, 0
2, 22992, Note_on_c, 1, 72, 64
2, 23037, Note_on_c, 1, 72, 0
2, 23040, Note_on_c, 1, 72, 64
2, 23085, Note_on_c, 1, 72, 0
2, 23088, Note_on_c, 1, 76, 64
2, 23111, Note_on_c, 1, 76, 0
2, 23112, Note_on_c, 1, 74, 64
2, 23135, Note_on_c, 1, 74, 0
2, 23136, Note_on_c, 1, 72, 64
2, 23181, Note_on_c, 1, 72, 0
2, 23184, Note_on_c, 1, 72, 64
2, 23229, Note_on_c, 1, 72, 0
2, 23232, Note_on_c, 1, 72, 64
2, 23277, Note_on_c, 1, 72, 0
2, 23280, Note_on_c, 1, 72, 64
2, 23325, Note_on_c, 1, 72, 0
2, 23328, Note_on_c, 1, 73, 64
2, 23373, Note_on_c, 1, 73, 0
2, 23376, Note_on_c, 1, 70, 64
2, 23399, Note_on_c, 1, 70, 0
2, 23400, Note_on_c, 1, 71, 64
2, 23423, Note_on_c, 1, 71, 0
2, 23424, Note_on_c, 1, 73, 64
2, 23469, Note_on_c, 1, 73, 0
2, 23472, Note_on_c, 1, 71, 64
2, 23495, Note_on_c, 1, 71, 0
2, 23496, Note_on_c, 1, 73, 64
2, 23519, Note_on_c, 1, 73, 0
2, 23520, Note_on_c, 1, 74, 64
2, 23565, Note_on_c, 1, 74, 0
2, 23568, Note_on_c, 1, 70, 64
2, 23613, Note_on_c, 1, 70, 0
2, 23616, Note_on_c, 1, 71, 64
2, 23661, Note_on_c, 1, 71, 0
2, 23664, Note_on_c, 1, 73, 64
2, 23709, Note_on_c, 1, 73, 0
2, 23712, Note_on_c, 1, 70, 64
2, 23845, Note_on_c, 1, 70, 0
2, 23856, Note_on_c, 1, 71, 64
2, 23901, Note_on_c, 1, 71, 0
2, 23904, Note_on_c, 1, 71, 64
2, 24169, Note_on_c, 1, 71, 0
2, 24240, Note_on_c, 1, 81, 64
2, 24285, Note_on_c, 1, 81, 0
2, 24288, Note_on_c, 1, 81, 64
2, 24333, Note_on_c, 1, 81, 0
2, 24336, Note_on_c, 1, 81, 64
2, 24381, Note_on_c, 1, 81, 0
2, 24384, Note_on_c, 1, 81, 64
2, 24429, Note_on_c, 1, 81, 0
2, 24432, Note_on_c, 1, 81, 64
2, 24477, Note_on_c, 1, 81, 0
2, 24480, Note_on_c, 1, 81, 64
2, 24525, Note_on_c, 1, 81, 0
2, 24528, Note_on_c, 1, 84, 64
2, 24551, Note_on_c, 1, 84, 0
2, 24552, Note_on_c, 1, 83, 64
2, 24575, Note_on_c, 1, 83, 0
2, 24576, Note_on_c, 1, 81, 64
2, 24621, Note_on_c, 1, 81, 0
2, 24624, Note_on_c, 1, 81, 64
2, 24669, Note_on_c, 1, 81, 0
2, 24672, Note_on_c, 1, 81, 64
2, 24717, Note_on_c, 1, 81, 0
2, 24720, Note_on_c, 1, 81, 64
2, 24765, Note_on_c, 1, 81, 0
2, 24768, Note_on_c, 1, 81, 64
2, 24813, Note_on_c, 1, 81, 0
2, 24816, Note_on_c, 1, 78, 64
2, 24839, Note_on_c, 1, 78, 0
2, 24840, Note_on_c, 1, 79, 64
2, 24863, Note_on_c, 1, 79, 0
2, 24864, Note_on_c, 1, 81, 64
2, 24909, Note_on_c, 1, 81, 0
2, 24912, Note_on_c, 1, 79, 64
2, 24935, Note_on_c, 1, 79, 0
2, 24936, Note_on_c, 1, 81, 64
2, 24959, Note_on_c, 1, 81, 0
2, 24960, Note_on_c, 1, 83, 64
2, 25005, Note_on_c, 1, 83, 0
2, 25008, Note_on_c, 1, 78, 64
2, 25053, Note_on_c, 1, 78, 0
2, 25056, Note_on_c, 1, 79, 64
2, 25079, Note_on_c, 1, 79, 0
2, 25080, Note_on_c, 1, 78, 64
2, 25103, Note_on_c, 1, 78, 0
2, 25104, Note_on_c, 1, 76, 64
2, 25127, Note_on_c, 1, 76, 0
2, 25128, Note_on_c, 1, 78, 64
2, 25151, Note_on_c, 1, 78, 0
2, 25152, Note_on_c, 1, 79, 64
2, 25175, Note_on_c, 1, 79, 0
2, 25176, Note_on_c, 1, 81, 64
2, 25199, Note_on_c, 1, 81, 0
2, 25200, Note_on_c, 1, 83, 64
2, 25223, Note_on_c, 1, 83, 0
2, 25224, Note_on_c, 1, 81, 64
2, 25247, Note_on_c, 1, 81, 0
2, 25248, Note_on_c, 1, 79, 64
2, 25271, Note_on_c, 1, 79, 0
2, 25272, Note_on_c, 1, 83, 64
2, 25295, Note_on_c, 1, 83, 0
2, 25296, Note_on_c, 1, 78, 64
2, 25319, Note_on_c, 1, 78, 0
2, 25320, Note_on_c, 1, 83, 64
2, 25343, Note_on_c, 1, 83, 0
2, 25344, Note_on_c, 1, 76, 64
2, 25367, Note_on_c, 1, 76, 0
2, 25368, Note_on_c, 1, 74, 64
2, 25391, Note_on_c, 1, 74, 0
2, 25392, Note_on_c, 1, 73, 64
2, 25415, Note_on_c, 1, 73, 0
2, 25416, Note_on_c, 1, 74, 64
2, 25439, Note_on_c, 1, 74, 0
2, 25440, Note_on_c, 1, 76, 64
2, 25463, Note_on_c, 1, 76, 0
2, 25464, Note_on_c, 1, 78, 64
2, 25487, Note_on_c, 1, 78, 0
2, 25488, Note_on_c, 1, 79, 64
2, 25511, Note_on_c, 1, 79, 0
2, 25512, Note_on_c, 1, 78, 64
2, 25535, Note_on_c, 1, 78, 0
2, 25536, Note_on_c, 1, 76, 64
2, 25559, Note_on_c, 1, 76, 0
2, 25560, Note_on_c, 1, 79, 64
2, 25583, Note_on_c, 1, 79, 0
2, 25584, Note_on_c, 1, 74, 64
2, 25607, Note_on_c, 1, 74, 0
2, 25608, Note_on_c, 1, 79, 64
2, 25631, Note_on_c, 1, 79, 0
2, 25632, Note_on_c, 1, 73, 64
2, 25655, Note_on_c, 1, 73, 0
2, 25656, Note_on_c, 1, 74, 64
2, 25679, Note_on_c, 1, 74, 0
2, 25680, Note_on_c, 1, 76, 64
2, 25703, Note_on_c, 1, 76, 0
2, 25704, Note_on_c, 1, 74, 64
2, 25727, Note_on_c, 1, 74, 0
2, 25728, Note_on_c, 1, 73, 64
2, 25751, Note_on_c, 1, 73, 0
2, 25752, Note_on_c, 1, 71, 64
2, 25775, Note_on_c, 1, 71, 0
2, 25776, Note_on_c, 1, 69, 64
2, 25799, Note_on_c, 1, 69, 0
2, 25800, Note_on_c, 1, 67, 64
2, 25823, Note_on_c, 1, 67, 0
2, 25824, Note_on_c, 1, 66, 64
2, 25847, Note_on_c, 1, 66, 0
2, 25848, Note_on_c, 1, 64, 64
2, 25871, Note_on_c, 1, 64, 0
2, 25872, Note_on_c, 1, 62, 64
2, 25895, Note_on_c, 1, 62, 0
2, 25896, Note_on_c, 1, 61, 64
2, 25919, Note_on_c, 1, 61, 0
2, 25920, Note_on_c, 1, 62, 64
2, 25965, Note_on_c, 1, 62, 0
2, 25968, Note_on_c, 1, 78, 64
2, 25991, Note_on_c, 1, 78, 0
2, 25992, Note_on_c, 1, 79, 64
2, 26015, Note_on_c, 1, 79, 0
2, 26016, Note_on_c, 1, 81, 64
2, 26039, Note_on_c, 1, 81, 0
2, 26040, Note_on_c, 1, 79, 64
2, 26063, Note_on_c, 1, 79, 0
2, 26064, Note_on_c, 1, 78, 64
2, 26087, Note_on_c, 1, 78, 0
2, 26088, Note_on_c, 1, 76, 64
2, 26111, Note_on_c, 1, 76, 0
2, 26112, Note_on_c, 1, 74, 64
2, 26157, Note_on_c, 1, 74, 0
2, 26160, Note_on_c, 1, 73, 64
2, 26205, Note_on_c, 1, 73, 0
2, 26208, Note_on_c, 1, 71, 64
2, 26253, Note_on_c, 1, 71, 0
2, 26256, Note_on_c, 1, 74, 64
2, 26279, Note_on_c, 1, 74, 0
2, 26280, Note_on_c, 1, 76, 64
2, 26303, Note_on_c, 1, 76, 0
2, 26304, Note_on_c, 1, 78, 64
2, 26327, Note_on_c, 1, 78, 0
2, 26328, Note_on_c, 1, 76, 64
2, 26351, Note_on_c, 1, 76, 0
2, 26352, Note_on_c, 1, 74, 64
2, 26375, Note_on_c, 1, 74, 0
2, 26376, Note_on_c, 1, 73, 64
2, 26399, Note_on_c, 1, 73, 0
2, 26400, Note_on_c, 1, 71, 64
2, 26445, Note_on_c, 1, 71, 0
2, 26448, Note_on_c, 1, 69, 64
2, 26493, Note_on_c, 1, 69, 0
2, 26496, Note_on_c, 1, 68, 64
2, 26541, Note_on_c, 1, 68, 0
2, 26544, Note_on_c, 1, 80, 64
2, 26567, Note_on_c, 1, 80, 0
2, 26568, Note_on_c, 1, 78, 64
2, 26591, Note_on_c, 1, 78, 0
2, 26592, Note_on_c, 1, 80, 64
2, 26637, Note_on_c, 1, 80, 0
2, 26640, Note_on_c, 1, 83, 64
2, 26685, Note_on_c, 1, 83, 0
2, 26688, Note_on_c, 1, 76, 64
2, 26733, Note_on_c, 1, 76, 0
2, 26736, Note_on_c, 1, 80, 64
2, 26781, Note_on_c, 1, 80, 0
2, 26784, Note_on_c, 1, 81, 64
2, 26829, Note_on_c, 1, 81, 0
2, 26832, Note_on_c, 1, 76, 64
2, 26877, Note_on_c, 1, 76, 0
2, 26880, Note_on_c, 1, 76, 64
2, 26925, Note_on_c, 1, 76, 0
2, 26928, Note_on_c, 1, 76, 64
2, 26973, Note_on_c, 1, 76, 0
2, 26976, Note_on_c, 1, 76, 64
2, 27021, Note_on_c, 1, 76, 0
2, 27024, Note_on_c, 1, 76, 64
2, 27069, Note_on_c, 1, 76, 0
2, 27072, Note_on_c, 1, 76, 64
2, 27117, Note_on_c, 1, 76, 0
2, 27120, Note_on_c, 1, 81, 64
2, 27143, Note_on_c, 1, 81, 0
2, 27144, Note_on_c, 1, 80, 64
2, 27167, Note_on_c, 1, 80, 0
2, 27168, Note_on_c, 1, 81, 64
2, 27213, Note_on_c, 1, 81, 0
2, 27216, Note_on_c, 1, 76, 64
2, 27261, Note_on_c, 1, 76, 0
2, 27264, Note_on_c, 1, 76, 64
2, 27309, Note_on_c, 1, 76, 0
2, 27312, Note_on_c, 1, 76, 64
2, 27357, Note_on_c, 1, 76, 0
2, 27360, Note_on_c, 1, 76, 64
2, 27405, Note_on_c, 1, 76, 0
2, 27408, Note_on_c, 1, 83, 64
2, 27431, Note_on_c, 1, 83, 0
2, 27432, Note_on_c, 1, 81, 64
2, 27455, Note_on_c, 1, 81, 0
2, 27456, Note_on_c, 1, 83, 64
2, 27501, Note_on_c, 1, 83, 0
2, 27504, Note_on_c, 1, 76, 64
2, 27549, Note_on_c, 1, 76, 0
2, 27552, Note_on_c, 1, 76, 64
2, 27597, Note_on_c, 1, 76, 0
2, 27600, Note_on_c, 1, 76, 64
2, 27645, Note_on_c, 1, 76, 0
2, 27648, Note_on_c, 1, 76, 64
2, 27693, Note_on_c, 1, 76, 0
2, 27696, Note_on_c, 1, 81, 64
2, 27708, Note_on_c, 1, 81, 0
2, 27708, Note_on_c, 1, 83, 64
2, 27720, Note_on_c, 1, 83, 0
2, 27720, Note_on_c, 1, 84, 64
2, 27743, Note_on_c, 1, 84, 0
2, 27744, Note_on_c, 1, 83, 64
2, 27789, Note_on_c, 1, 83, 0
2, 27792, Note_on_c, 1, 83, 64
2, 27804, Note_on_c, 1, 83, 0
2, 27804, Note_on_c, 1, 81, 64
2, 27816, Note_on_c, 1, 81, 0
2, 27816, Note_on_c, 1, 79, 64
2, 27839, Note_on_c, 1, 79, 0
2, 27840, Note_on_c, 1, 81, 64
2, 27885, Note_on_c, 1, 81, 0
2, 27888, Note_on_c, 1, 81, 64
2, 27900, Note_on_c, 1, 81, 0
2, 27900, Note_on_c, 1, 79, 64
2, 27912, Note_on_c, 1, 79, 0
2, 27912, Note_on_c, 1, 78, 64
2, 27935, Note_on_c, 1, 78, 0
2, 27936, Note_on_c, 1, 79, 64
2, 27959, Note_on_c, 1, 79, 0
2, 27960, Note_on_c, 1, 78, 64
2, 27983, Note_on_c, 1, 78, 0
2, 27984, Note_on_c, 1, 76, 64
2, 28007, Note_on_c, 1, 76, 0
2, 28008, Note_on_c, 1, 78, 64
2, 28031, Note_on_c, 1, 78, 0
2, 28032, Note_on_c, 1, 79, 64
2, 28055, Note_on_c, 1, 79, 0
2, 28056, Note_on_c, 1, 83, 64
2, 28079, Note_on_c, 1, 83, 0
2, 28080, Note_on_c, 1, 88, 64
2, 28103, Note_on_c, 1, 88, 0
2, 28104, Note_on_c, 1, 83, 64
2, 28127, Note_on_c, 1, 83, 0
2, 28128, Note_on_c, 1, 79, 64
2, 28151, Note_on_c, 1, 79, 0
2, 28152, Note_on_c, 1, 83, 64
2, 28175, Note_on_c, 1, 83, 0
2, 28176, Note_on_c, 1, 78, 64
2, 28199, Note_on_c, 1, 78, 0
2, 28200, Note_on_c, 1, 83, 64
2, 28223, Note_on_c, 1, 83, 0
2, 28224, Note_on_c, 1, 79, 64
2, 28247, Note_on_c, 1, 79, 0
2, 28248, Note_on_c, 1, 78, 64
2, 28271, Note_on_c, 1, 78, 0
2, 28272, Note_on_c, 1, 76, 64
2, 28295, Note_on_c, 1, 76, 0
2, 28296, Note_on_c, 1, 78, 64
2, 28319, Note_on_c, 1, 78, 0
2, 28320, Note_on_c, 1, 79, 64
2, 28343, Note_on_c, 1, 79, 0
2, 28344, Note_on_c, 1, 83, 64
2, 28367, Note_on_c, 1, 83, 0
2, 28368, Note_on_c, 1, 88, 64
2, 28391, Note_on_c, 1, 88, 0
2, 28392, Note_on_c, 1, 83, 64
2, 28415, Note_on_c, 1, 83, 0
2, 28416, Note_on_c, 1, 81, 64
2, 28439, Note_on_c, 1, 81, 0
2, 28440, Note_on_c, 1, 79, 64
2, 28463, Note_on_c, 1, 79, 0
2, 28464, Note_on_c, 1, 78, 64
2, 28487, Note_on_c, 1, 78, 0
2, 28488, Note_on_c, 1, 76, 64
2, 28511, Note_on_c, 1, 76, 0
2, 28512, Note_on_c, 1, 75, 64
2, 28535, Note_on_c, 1, 75, 0
2, 28536, Note_on_c, 1, 73, 64
2, 28559, Note_on_c, 1, 73, 0
2, 28560, Note_on_c, 1, 71, 64
2, 28583, Note_on_c, 1, 71, 0
2, 28584, Note_on_c, 1, 73, 64
2, 28607, Note_on_c, 1, 73, 0
2, 28608, Note_on_c, 1, 75, 64
2, 28631, Note_on_c, 1, 75, 0
2, 28632, Note_on_c, 1, 76, 64
2, 28655, Note_on_c, 1, 76, 0
2, 28656, Note_on_c, 1, 78, 64
2, 28679, Note_on_c, 1, 78, 0
2, 28680, Note_on_c, 1, 79, 64
2, 28703, Note_on_c, 1, 79, 0
2, 28704, Note_on_c, 1, 81, 64
2, 28727, Note_on_c, 1, 81, 0
2, 28728, Note_on_c, 1, 79, 64
2, 28751, Note_on_c, 1, 79, 0
2, 28752, Note_on_c, 1, 81, 64
2, 28775, Note_on_c, 1, 81, 0
2, 28776, Note_on_c, 1, 78, 64
2, 28799, Note_on_c, 1, 78, 0
2, 28800, Note_on_c, 1, 79, 64
2, 28845, Note_on_c, 1, 79, 0
2, 28848, Note_on_c, 1, 84, 64
2, 28937, Note_on_c, 1, 84, 0
2, 28944, Note_on_c, 1, 83, 64
2, 29033, Note_on_c, 1, 83, 0
2, 29040, Note_on_c, 1, 81, 64
2, 29111, Note_on_c, 1, 81, 0
2, 29112, Note_on_c, 1, 79, 64
2, 29135, Note_on_c, 1, 79, 0
2, 29136, Note_on_c, 1, 78, 64
2, 29159, Note_on_c, 1, 78, 0
2, 29160, Note_on_c, 1, 79, 64
2, 29183, Note_on_c, 1, 79, 0
2, 29184, Note_on_c, 1, 81, 64
2, 29207, Note_on_c, 1, 81, 0
2, 29208, Note_on_c, 1, 83, 64
2, 29231, Note_on_c, 1, 83, 0
2, 29232, Note_on_c, 1, 84, 64
2, 29255, Note_on_c, 1, 84, 0
2, 29256, Note_on_c, 1, 83, 64
2, 29279, Note_on_c, 1, 83, 0
2, 29280, Note_on_c, 1, 81, 64
2, 29303, Note_on_c, 1, 81, 0
2, 29304, Note_on_c, 1, 84, 64
2, 29327, Note_on_c, 1, 84, 0
2, 29328, Note_on_c, 1, 79, 64
2, 29351, Note_on_c, 1, 79, 0
2, 29352, Note_on_c, 1, 84, 64
2, 29375, Note_on_c, 1, 84, 0
2, 29376, Note_on_c, 1, 78, 64
2, 29399, Note_on_c, 1, 78, 0
2, 29400, Note_on_c, 1, 76, 64
2, 29423, Note_on_c, 1, 76, 0
2, 29424, Note_on_c, 1, 75, 64
2, 29447, Note_on_c, 1, 75, 0
2, 29448, Note_on_c, 1, 76, 64
2, 29471, Note_on_c, 1, 76, 0
2, 29472, Note_on_c, 1, 78, 64
2, 29495, Note_on_c, 1, 78, 0
2, 29496, Note_on_c, 1, 79, 64
2, 29519, Note_on_c, 1, 79, 0
2, 29520, Note_on_c, 1, 81, 64
2, 29543, Note_on_c, 1, 81, 0
2, 29544, Note_on_c, 1, 79, 64
2, 29567, Note_on_c, 1, 79, 0
2, 29568, Note_on_c, 1, 78, 64
2, 29591, Note_on_c, 1, 78, 0
2, 29592, Note_on_c, 1, 81, 64
2, 29615, Note_on_c, 1, 81, 0
2, 29616, Note_on_c, 1, 76, 64
2, 29639, Note_on_c, 1, 76, 0
2, 29640, Note_on_c, 1, 81, 64
2, 29663, Note_on_c, 1, 81, 0
2, 29664, Note_on_c, 1, 75, 64
2, 29687, Note_on_c, 1, 75, 0
2, 29688, Note_on_c, 1, 76, 64
2, 29711, Note_on_c, 1, 76, 0
2, 29712, Note_on_c, 1, 78, 64
2, 29735, Note_on_c, 1, 78, 0
2, 29736, Note_on_c, 1, 76, 64
2, 29759, Note_on_c, 1, 76, 0
2, 29760, Note_on_c, 1, 75, 64
2, 29783, Note_on_c, 1, 75, 0
2, 29784, Note_on_c, 1, 73, 64
2, 29807, Note_on_c, 1, 73, 0
2, 29808, Note_on_c, 1, 71, 64
2, 29831, Note_on_c, 1, 71, 0
2, 29832, Note_on_c, 1, 69, 64
2, 29855, Note_on_c, 1, 69, 0
2, 29856, Note_on_c, 1, 67, 64
2, 29879, Note_on_c, 1, 67, 0
2, 29880, Note_on_c, 1, 66, 64
2, 29903, Note_on_c, 1, 66, 0
2, 29904, Note_on_c, 1, 64, 64
2, 29927, Note_on_c, 1, 64, 0
2, 29928, Note_on_c, 1, 63, 64
2, 29951, Note_on_c, 1, 63, 0
2, 29952, Note_on_c, 1, 64, 64
2, 29997, Note_on_c, 1, 64, 0
2, 30000, Note_on_c, 1, 67, 64
2, 30045, Note_on_c, 1, 67, 0
2, 30048, Note_on_c, 1, 67, 64
2, 30093, Note_on_c, 1, 67, 0
2, 30096, Note_on_c, 1, 67, 64
2, 30141, Note_on_c, 1, 67, 0
2, 30144, Note_on_c, 1, 67, 64
2, 30189, Note_on_c, 1, 67, 0
2, 30192, Note_on_c, 1, 67, 64
2, 30237, Note_on_c, 1, 67, 0
2, 30240, Note_on_c, 1, 67, 64
2, 30285, Note_on_c, 1, 67, 0
2, 30288, Note_on_c, 1, 71, 64
2, 30311, Note_on_c, 1, 71, 0
2, 30312, Note_on_c, 1, 69, 64
2, 30335, Note_on_c, 1, 69, 0
2, 30336, Note_on_c, 1, 67, 64
2, 30381, Note_on_c, 1, 67, 0
2, 30384, Note_on_c, 1, 67, 64
2, 30429, Note_on_c, 1, 67, 0
2, 30432, Note_on_c, 1, 67, 64
2, 30477, Note_on_c, 1, 67, 0
2, 30480, Note_on_c, 1, 67, 64
2, 30525, Note_on_c, 1, 67, 0
2, 30528, Note_on_c, 1, 67, 64
2, 30573, Note_on_c, 1, 67, 0
2, 30576, Note_on_c, 1, 64, 64
2, 30599, Note_on_c, 1, 64, 0
2, 30600, Note_on_c, 1, 66, 64
2, 30623, Note_on_c, 1, 66, 0
2, 30624, Note_on_c, 1, 67, 64
2, 30669, Note_on_c, 1, 67, 0
2, 30672, Note_on_c, 1, 66, 64
2, 30695, Note_on_c, 1, 66, 0
2, 30696, Note_on_c, 1, 67, 64
2, 30719, Note_on_c, 1, 67, 0
2, 30720, Note_on_c, 1, 69, 64
2, 30765, Note_on_c, 1, 69, 0
2, 30768, Note_on_c, 1, 64, 64
2, 30813, Note_on_c, 1, 64, 0
2, 30816, Note_on_c, 1, 66, 64
2, 30839, Note_on_c, 1, 66, 0
2, 30840, Note_on_c, 1, 64, 64
2, 30863, Note_on_c, 1, 64, 0
2, 30864, Note_on_c, 1, 66, 64
2, 30887, Note_on_c, 1, 66, 0
2, 30888, Note_on_c, 1, 69, 64
2, 30911, Note_on_c, 1, 69, 0
2, 30912, Note_on_c, 1, 64, 64
2, 30935, Note_on_c, 1, 64, 0
2, 30936, Note_on_c, 1, 62, 64
2, 30959, Note_on_c, 1, 62, 0
2, 30960, Note_on_c, 1, 64, 64
2, 30983, Note_on_c, 1, 64, 0
2, 30984, Note_on_c, 1, 69, 64
2, 31007, Note_on_c, 1, 69, 0
2, 31008, Note_on_c, 1, 62, 64
2, 31031, Note_on_c, 1, 62, 0
2, 31032, Note_on_c, 1, 61, 64
2, 31055, Note_on_c, 1, 61, 0
2, 31056, Note_on_c, 1, 62, 64
2, 31079, Note_on_c, 1, 62, 0
2, 31080, Note_on_c, 1, 69, 64
2, 31103, Note_on_c, 1, 69, 0
2, 31104, Note_on_c, 1, 61, 64
2, 31127, Note_on_c, 1, 61, 0
2, 31128, Note_on_c, 1, 59, 64
2, 31151, Note_on_c, 1, 59, 0
2, 31152, Note_on_c, 1, 61, 64
2, 31175, Note_on_c, 1, 61, 0
2, 31176, Note_on_c, 1, 69, 64
2, 31199, Note_on_c, 1, 69, 0
2, 31200, Note_on_c, 1, 62, 64
2, 31223, Note_on_c, 1, 62, 0
2, 31224, Note_on_c, 1, 61, 64
2, 31247, Note_on_c, 1, 61, 0
2, 31248, Note_on_c, 1, 62, 64
2, 31271, Note_on_c, 1, 62, 0
2, 31272, Note_on_c, 1, 69, 64
2, 31295, Note_on_c, 1, 69, 0
2, 31296, Note_on_c, 1, 61, 64
2, 31319, Note_on_c, 1, 61, 0
2, 31320, Note_on_c, 1, 59, 64
2, 31343, Note_on_c, 1, 59, 0
2, 31344, Note_on_c, 1, 61, 64
2, 31367, Note_on_c, 1, 61, 0
2, 31368, Note_on_c, 1, 66, 64
2, 31391, Note_on_c, 1, 66, 0
2, 31392, Note_on_c, 1, 59, 64
2, 31415, Note_on_c, 1, 59, 0
2, 31416, Note_on_c, 1, 58, 64
2, 31439, Note_on_c, 1, 58, 0
2, 31440, Note_on_c, 1, 59, 64
2, 31463, Note_on_c, 1, 59, 0
2, 31464, Note_on_c, 1, 66, 64
2, 31487, Note_on_c, 1, 66, 0
2, 31488, Note_on_c, 1, 61, 64
2, 31511, Note_on_c, 1, 61, 0
2, 31512, Note_on_c, 1, 59, 64
2, 31535, Note_on_c, 1, 59, 0
2, 31536, Note_on_c, 1, 61, 64
2, 31559, Note_on_c, 1, 61, 0
2, 31560, Note_on_c, 1, 66, 64
2, 31583, Note_on_c, 1, 66, 0
2, 31584, Note_on_c, 1, 59, 64
2, 31607, Note_on_c, 1, 59, 0
2, 31608, Note_on_c, 1, 58, 64
2, 31631, Note_on_c, 1, 58, 0
2, 31632, Note_on_c, 1, 59, 64
2, 31655, Note_on_c, 1, 59, 0
2, 31656, Note_on_c, 1, 66, 64
2, 31679, Note_on_c, 1, 66, 0
2, 31680, Note_on_c, 1, 58, 64
2, 31725, Note_on_c, 1, 58, 0
2, 31728, Note_on_c, 1, 61, 64
2, 31773, Note_on_c, 1, 61, 0
2, 31776, Note_on_c, 1, 66, 64
2, 31821, Note_on_c, 1, 66, 0
2, 31824, Note_on_c, 1, 70, 64
2, 31869, Note_on_c, 1, 70, 0
2, 31872, Note_on_c, 1, 70, 64
2, 31939, Note_on_c, 1, 70, 0
2, 31944, Note_on_c, 1, 68, 64
2, 31956, Note_on_c, 1, 68, 0
2, 31956, Note_on_c, 1, 70, 64
2, 31968, Note_on_c, 1, 70, 0
2, 31968, Note_on_c, 1, 71, 64
2, 32013, Note_on_c, 1, 71, 0
2, 32016, Note_on_c, 1, 66, 64
2, 32061, Note_on_c, 1, 66, 0
2, 32064, Note_on_c, 1, 62, 64
2, 32109, Note_on_c, 1, 62, 0
2, 32112, Note_on_c, 1, 66, 64
2, 32157, Note_on_c, 1, 66, 0
2, 32160, Note_on_c, 1, 71, 64
2, 32227, Note_on_c, 1, 71, 0
2, 32232, Note_on_c, 1, 70, 64
2, 32244, Note_on_c, 1, 70, 0
2, 32244, Note_on_c, 1, 71, 64
2, 32256, Note_on_c, 1, 71, 0
2, 32256, Note_on_c, 1, 73, 64
2, 32301, Note_on_c, 1, 73, 0
2, 32304, Note_on_c, 1, 70, 64
2, 32349, Note_on_c, 1, 70, 0
2, 32352, Note_on_c, 1, 66, 64
2, 32375, Note_on_c, 1, 66, 0
2, 32376, Note_on_c, 1, 68, 64
2, 32399, Note_on_c, 1, 68, 0
2, 32400, Note_on_c, 1, 70, 64
2, 32423, Note_on_c, 1, 70, 0
2, 32424, Note_on_c, 1, 71, 64
2, 32447, Note_on_c, 1, 71, 0
2, 32448, Note_on_c, 1, 73, 64
2, 32471, Note_on_c, 1, 73, 0
2, 32472, Note_on_c, 1, 71, 64
2, 32495, Note_on_c, 1, 71, 0
2, 32496, Note_on_c, 1, 73, 64
2, 32519, Note_on_c, 1, 73, 0
2, 32520, Note_on_c, 1, 70, 64
2, 32543, Note_on_c, 1, 70, 0
2, 32544, Note_on_c, 1, 71, 64
2, 32589, Note_on_c, 1, 71, 0
2, 32592, Note_on_c, 1, 79, 64
2, 32681, Note_on_c, 1, 79, 0
2, 32688, Note_on_c, 1, 78, 64
2, 32777, Note_on_c, 1, 78, 0
2, 32784, Note_on_c, 1, 76, 64
2, 32829, Note_on_c, 1, 76, 0
2, 32832, Note_on_c, 1, 76, 64
2, 32965, Note_on_c, 1, 76, 0
2, 32976, Note_on_c, 1, 78, 64
2, 33021, Note_on_c, 1, 78, 0
2, 33024, Note_on_c, 1, 74, 64
2, 33165, Note_on_c, 1, 74, 0
2, 33168, Note_on_c, 1, 79, 64
2, 33213, Note_on_c, 1, 79, 0
2, 33216, Note_on_c, 1, 73, 64
2, 33349, Note_on_c, 1, 73, 0
2, 33360, Note_on_c, 1, 71, 64
2, 33405, Note_on_c, 1, 71, 0
2, 33408, Note_on_c, 1, 71, 64
2, 33431, Note_on_c, 1, 71, 0
2, 33432, Note_on_c, 1, 66, 64
2, 33455, Note_on_c, 1, 66, 0
2, 33456, Note_on_c, 1, 68, 64
2, 33479, Note_on_c, 1, 68, 0
2, 33480, Note_on_c, 1, 70, 64
2, 33503, Note_on_c, 1, 70, 0
2, 33504, Note_on_c, 1, 71, 64
2, 33527, Note_on_c, 1, 71, 0
2, 33528, Note_on_c, 1, 73, 64
2, 33551, Note_on_c, 1, 73, 0
2, 33552, Note_on_c, 1, 74, 64
2, 33575, Note_on_c, 1, 74, 0
2, 33576, Note_on_c, 1, 76, 64
2, 33599, Note_on_c, 1, 76, 0
2, 33600, Note_on_c, 1, 78, 64
2, 33623, Note_on_c, 1, 78, 0
2, 33624, Note_on_c, 1, 73, 64
2, 33647, Note_on_c, 1, 73, 0
2, 33648, Note_on_c, 1, 81, 64
2, 33693, Note_on_c, 1, 81, 0
2, 33696, Note_on_c, 1, 79, 64
2, 33741, Note_on_c, 1, 79, 0
2, 33744, Note_on_c, 1, 72, 64
2, 33789, Note_on_c, 1, 72, 0
2, 33792, Note_on_c, 1, 72, 64
2, 33837, Note_on_c, 1, 72, 0
2, 33840, Note_on_c, 1, 72, 64
2, 33885, Note_on_c, 1, 72, 0
2, 33888, Note_on_c, 1, 72, 64
2, 33933, Note_on_c, 1, 72, 0
2, 33936, Note_on_c, 1, 72, 64
2, 33981, Note_on_c, 1, 72, 0
2, 33984, Note_on_c, 1, 72, 64
2, 34029, Note_on_c, 1, 72, 0
2, 34032, Note_on_c, 1, 76, 64
2, 34055, Note_on_c, 1, 76, 0
2, 34056, Note_on_c, 1, 74, 64
2, 34079, Note_on_c, 1, 74, 0
2, 34080, Note_on_c, 1, 72, 64
2, 34125, Note_on_c, 1, 72, 0
2, 34128, Note_on_c, 1, 72, 64
2, 34173, Note_on_c, 1, 72, 0
2, 34176, Note_on_c, 1, 72, 64
2, 34221, Note_on_c, 1, 72, 0
2, 34224, Note_on_c, 1, 72, 64
2, 34269, Note_on_c, 1, 72, 0
2, 34272, Note_on_c, 1, 73, 64
2, 34317, Note_on_c, 1, 73, 0
2, 34320, Note_on_c, 1, 70, 64
2, 34343, Note_on_c, 1, 70, 0
2, 34344, Note_on_c, 1, 71, 64
2, 34367, Note_on_c, 1, 71, 0
2, 34368, Note_on_c, 1, 73, 64
2, 34413, Note_on_c, 1, 73, 0
2, 34416, Note_on_c, 1, 71, 64
2, 34439, Note_on_c, 1, 71, 0
2, 34440, Note_on_c, 1, 73, 64
2, 34463, Note_on_c, 1, 73, 0
2, 34464, Note_on_c, 1, 74, 64
2, 34509, Note_on_c, 1, 74, 0
2, 34512, Note_on_c, 1, 70, 64
2, 34557, Note_on_c, 1, 70, 0
2, 34560, Note_on_c, 1, 71, 64
2, 34605, Note_on_c, 1, 71, 0
2, 34608, Note_on_c, 1, 73, 64
2, 34653, Note_on_c, 1, 73, 0
2, 34656, Note_on_c, 1, 70, 64
2, 34789, Note_on_c, 1, 70, 0
2, 34800, Note_on_c, 1, 71, 64
2, 34845, Note_on_c, 1, 71, 0
2, 34848, Note_on_c, 1, 71, 64
2, 35113, Note_on_c, 1, 71, 0
2, 35113, End_track
3, 0, Start_track
3, 0, MIDI_port, 0
3, 0, Title_t, "Clavier (RH)"
3, 0, Program_c, 0, 6
3, 0, Control_c, 0, 7, 127
3, 0, Note_on_c, 0, 74, 64
3, 23, Note_on_c, 0, 74, 0
3, 24, Note_on_c, 0, 73, 64
3, 47, Note_on_c, 0, 73, 0
3, 48, Note_on_c, 0, 71, 64
3, 71, Note_on_c, 0, 71, 0
3, 72, Note_on_c, 0, 73, 64
3, 95, Note_on_c, 0, 73, 0
3, 96, Note_on_c, 0, 74, 64
3, 119, Note_on_c, 0, 74, 0
3, 120, Note_on_c, 0, 78, 64
3, 143, Note_on_c, 0, 78, 0
3, 144, Note_on_c, 0, 83, 64
3, 167, Note_on_c, 0, 83, 0
3, 168, Note_on_c, 0, 78, 64
3, 191, Note_on_c, 0, 78, 0
3, 192, Note_on_c, 0, 74, 64
3, 215, Note_on_c, 0, 74, 0
3, 216, Note_on_c, 0, 78, 64
3, 239, Note_on_c, 0, 78, 0
3, 240, Note_on_c, 0, 73, 64
3, 263, Note_on_c, 0, 73, 0
3, 264, Note_on_c, 0, 78, 64
3, 287, Note_on_c, 0, 78, 0
3, 288, Note_on_c, 0, 74, 64
3, 311, Note_on_c, 0, 74, 0
3, 312, Note_on_c, 0, 73, 64
3, 335, Note_on_c, 0, 73, 0
3, 336, Note_on_c, 0, 71, 64
3, 359, Note_on_c, 0, 71, 0
3, 360, Note_on_c, 0, 73, 64
3, 383, Note_on_c, 0, 73, 0
3, 384, Note_on_c, 0, 74, 64
3, 407, Note_on_c, 0, 74, 0
3, 408, Note_on_c, 0, 78, 64
3, 431, Note_on_c, 0, 78, 0
3, 432, Note_on_c, 0, 83, 64
3, 455, Note_on_c, 0, 83, 0
3, 456, Note_on_c, 0, 78, 64
3, 479, Note_on_c, 0, 78, 0
3, 480, Note_on_c, 0, 76, 64
3, 503, Note_on_c, 0, 76, 0
3, 504, Note_on_c, 0, 74, 64
3, 527, Note_on_c, 0, 74, 0
3, 528, Note_on_c, 0, 73, 64
3, 551, Note_on_c, 0, 73, 0
3, 552, Note_on_c, 0, 71, 64
3, 575, Note_on_c, 0, 71, 0
3, 576, Note_on_c, 0, 70, 64
3, 599, Note_on_c, 0, 70, 0
3, 600, Note_on_c, 0, 68, 64
3, 623, Note_on_c, 0, 68, 0
3, 624, Note_on_c, 0, 66, 64
3, 647, Note_on_c, 0, 66, 0
3, 648, Note_on_c, 0, 68, 64
3, 671, Note_on_c, 0, 68, 0
3, 672, Note_on_c, 0, 70, 64
3, 695, Note_on_c, 0, 70, 0
3, 696, Note_on_c, 0, 71, 64
3, 719, Note_on_c, 0, 71, 0
3, 720, Note_on_c, 0, 73, 64
3, 743, Note_on_c, 0, 73, 0
3, 744, Note_on_c, 0, 74, 64
3, 767, Note_on_c, 0, 74, 0
3, 768, Note_on_c, 0, 76, 64
3, 791, Note_on_c, 0, 76, 0
3, 792, Note_on_c, 0, 74, 64
3, 815, Note_on_c, 0, 74, 0
3, 816, Note_on_c, 0, 76, 64
3, 839, Note_on_c, 0, 76, 0
3, 840, Note_on_c, 0, 73, 64
3, 863, Note_on_c, 0, 73, 0
3, 864, Note_on_c, 0, 74, 64
3, 909, Note_on_c, 0, 74, 0
3, 912, Note_on_c, 0, 71, 64
3, 957, Note_on_c, 0, 71, 0
3, 1200, Note_on_c, 0, 73, 64
3, 1245, Note_on_c, 0, 73, 0
3, 1248, Note_on_c, 0, 73, 64
3, 1293, Note_on_c, 0, 73, 0
3, 1296, Note_on_c, 0, 73, 64
3, 1341, Note_on_c, 0, 73, 0
3, 1344, Note_on_c, 0, 73, 64
3, 1389, Note_on_c, 0, 73, 0
3, 1392, Note_on_c, 0, 73, 64
3, 1437, Note_on_c, 0, 73, 0
3, 1440, Note_on_c, 0, 73, 64
3, 1485, Note_on_c, 0, 73, 0
3, 1488, Note_on_c, 0, 78, 64
3, 1511, Note_on_c, 0, 78, 0
3, 1512, Note_on_c, 0, 77, 64
3, 1535, Note_on_c, 0, 77, 0
3, 1536, Note_on_c, 0, 78, 64
3, 1581, Note_on_c, 0, 78, 0
3, 1584, Note_on_c, 0, 73, 64
3, 1629, Note_on_c, 0, 73, 0
3, 1632, Note_on_c, 0, 73, 64
3, 1677, Note_on_c, 0, 73, 0
3, 1680, Note_on_c, 0, 73, 64
3, 1725, Note_on_c, 0, 73, 0
3, 1728, Note_on_c, 0, 73, 64
3, 1773, Note_on_c, 0, 73, 0
3, 1776, Note_on_c, 0, 80, 64
3, 1799, Note_on_c, 0, 80, 0
3, 1800, Note_on_c, 0, 78, 64
3, 1823, Note_on_c, 0, 78, 0
3, 1824, Note_on_c, 0, 80, 64
3, 1869, Note_on_c, 0, 80, 0
3, 1872, Note_on_c, 0, 73, 64
3, 1917, Note_on_c, 0, 73, 0
3, 1920, Note_on_c, 0, 73, 64
3, 1965, Note_on_c, 0, 73, 0
3, 1968, Note_on_c, 0, 73, 64
3, 2013, Note_on_c, 0, 73, 0
3, 2016, Note_on_c, 0, 73, 64
3, 2061, Note_on_c, 0, 73, 0
3, 2064, Note_on_c, 0, 81, 64
3, 2076, Note_on_c, 0, 81, 0
3, 2076, Note_on_c, 0, 80, 64
3, 2088, Note_on_c, 0, 80, 0
3, 2088, Note_on_c, 0, 78, 64
3, 2111, Note_on_c, 0, 78, 0
3, 2112, Note_on_c, 0, 80, 64
3, 2157, Note_on_c, 0, 80, 0
3, 2160, Note_on_c, 0, 80, 64
3, 2172, Note_on_c, 0, 80, 0
3, 2172, Note_on_c, 0, 78, 64
3, 2184, Note_on_c, 0, 78, 0
3, 2184, Note_on_c, 0, 77, 64
3, 2207, Note_on_c, 0, 77, 0
3, 2208, Note_on_c, 0, 78, 64
3, 2253, Note_on_c, 0, 78, 0
3, 2256, Note_on_c, 0, 78, 64
3, 2268, Note_on_c, 0, 78, 0
3, 2268, Note_on_c, 0, 77, 64
3, 2280, Note_on_c, 0, 77, 0
3, 2280, Note_on_c, 0, 75, 64
3, 2303, Note_on_c, 0, 75, 0
3, 2304, Note_on_c, 0, 77, 64
3, 2327, Note_on_c, 0, 77, 0
3, 2328, Note_on_c, 0, 75, 64
3, 2351, Note_on_c, 0, 75, 0
3, 2352, Note_on_c, 0, 73, 64
3, 2375, Note_on_c, 0, 73, 0
3, 2376, Note_on_c, 0, 75, 64
3, 2399, Note_on_c, 0, 75, 0
3, 2400, Note_on_c, 0, 77, 64
3, 2423, Note_on_c, 0, 77, 0
3, 2424, Note_on_c, 0, 78, 64
3, 2447, Note_on_c, 0, 78, 0
3, 2448, Note_on_c, 0, 80, 64
3, 2471, Note_on_c, 0, 80, 0
3, 2472, Note_on_c, 0, 81, 64
3, 2495, Note_on_c, 0, 81, 0
3, 2496, Note_on_c, 0, 83, 64
3, 2519, Note_on_c, 0, 83, 0
3, 2520, Note_on_c, 0, 81, 64
3, 2543, Note_on_c, 0, 81, 0
3, 2544, Note_on_c, 0, 83, 64
3, 2567, Note_on_c, 0, 83, 0
3, 2568, Note_on_c, 0, 80, 64
3, 2591, Note_on_c, 0, 80, 0
3, 2592, Note_on_c, 0, 81, 64
3, 2637, Note_on_c, 0, 81, 0
3, 2640, Note_on_c, 0, 78, 64
3, 2685, Note_on_c, 0, 78, 0
3, 2688, Note_on_c, 0, 73, 64
3, 2733, Note_on_c, 0, 73, 0
3, 2736, Note_on_c, 0, 78, 64
3, 2781, Note_on_c, 0, 78, 0
3, 2784, Note_on_c, 0, 82, 64
3, 2851, Note_on_c, 0, 82, 0
3, 2856, Note_on_c, 0, 80, 64
3, 2868, Note_on_c, 0, 80, 0
3, 2868, Note_on_c, 0, 82, 64
3, 2880, Note_on_c, 0, 82, 0
3, 2880, Note_on_c, 0, 83, 64
3, 2925, Note_on_c, 0, 83, 0
3, 2928, Note_on_c, 0, 78, 64
3, 2973, Note_on_c, 0, 78, 0
3, 2976, Note_on_c, 0, 74, 64
3, 3021, Note_on_c, 0, 74, 0
3, 3024, Note_on_c, 0, 78, 64
3, 3069, Note_on_c, 0, 78, 0
3, 3072, Note_on_c, 0, 83, 64
3, 3139, Note_on_c, 0, 83, 0
3, 3144, Note_on_c, 0, 82, 64
3, 3156, Note_on_c, 0, 82, 0
3, 3156, Note_on_c, 0, 83, 64
3, 3168, Note_on_c, 0, 83, 0
3, 3168, Note_on_c, 0, 85, 64
3, 3257, Note_on_c, 0, 85, 0
3, 3312, Note_on_c, 0, 70, 64
3, 3335, Note_on_c, 0, 70, 0
3, 3336, Note_on_c, 0, 71, 64
3, 3359, Note_on_c, 0, 71, 0
3, 3360, Note_on_c, 0, 73, 64
3, 3383, Note_on_c, 0, 73, 0
3, 3384, Note_on_c, 0, 71, 64
3, 3407, Note_on_c, 0, 71, 0
3, 3408, Note_on_c, 0, 73, 64
3, 3431, Note_on_c, 0, 73, 0
3, 3432, Note_on_c, 0, 70, 64
3, 3455, Note_on_c, 0, 70, 0
3, 3456, Note_on_c, 0, 71, 64
3, 3479, Note_on_c, 0, 71, 0
3, 3480, Note_on_c, 0, 74, 64
3, 3503, Note_on_c, 0, 74, 0
3, 3504, Note_on_c, 0, 78, 64
3, 3527, Note_on_c, 0, 78, 0
3, 3528, Note_on_c, 0, 83, 64
3, 3551, Note_on_c, 0, 83, 0
3, 3552, Note_on_c, 0, 76, 64
3, 3575, Note_on_c, 0, 76, 0
3, 3576, Note_on_c, 0, 74, 64
3, 3599, Note_on_c, 0, 74, 0
3, 3600, Note_on_c, 0, 76, 64
3, 3623, Note_on_c, 0, 76, 0
3, 3624, Note_on_c, 0, 81, 64
3, 3647, Note_on_c, 0, 81, 0
3, 3648, Note_on_c, 0, 74, 64
3, 3671, Note_on_c, 0, 74, 0
3, 3672, Note_on_c, 0, 73, 64
3, 3695, Note_on_c, 0, 73, 0
3, 3696, Note_on_c, 0, 74, 64
3, 3719, Note_on_c, 0, 74, 0
3, 3720, Note_on_c, 0, 79, 64
3, 3743, Note_on_c, 0, 79, 0
3, 3744, Note_on_c, 0, 78, 64
3, 3767, Note_on_c, 0, 78, 0
3, 3768, Note_on_c, 0, 76, 64
3, 3791, Note_on_c, 0, 76, 0
3, 3792, Note_on_c, 0, 74, 64
3, 3815, Note_on_c, 0, 74, 0
3, 3816, Note_on_c, 0, 79, 64
3, 3839, Note_on_c, 0, 79, 0
3, 3840, Note_on_c, 0, 73, 64
3, 3863, Note_on_c, 0, 73, 0
3, 3864, Note_on_c, 0, 71, 64
3, 3887, Note_on_c, 0, 71, 0
3, 3888, Note_on_c, 0, 73, 64
3, 3911, Note_on_c, 0, 73, 0
3, 3912, Note_on_c, 0, 78, 64
3, 3935, Note_on_c, 0, 78, 0
3, 3936, Note_on_c, 0, 71, 64
3, 3959, Note_on_c, 0, 71, 0
3, 3960, Note_on_c, 0, 69, 64
3, 3983, Note_on_c, 0, 69, 0
3, 3984, Note_on_c, 0, 71, 64
3, 4007, Note_on_c, 0, 71, 0
3, 4008, Note_on_c, 0, 76, 64
3, 4031, Note_on_c, 0, 76, 0
3, 4032, Note_on_c, 0, 74, 64
3, 4055, Note_on_c, 0, 74, 0
3, 4056, Note_on_c, 0, 73, 64
3, 4079, Note_on_c, 0, 73, 0
3, 4080, Note_on_c, 0, 71, 64
3, 4103, Note_on_c, 0, 71, 0
3, 4104, Note_on_c, 0, 76, 64
3, 4127, Note_on_c, 0, 76, 0
3, 4128, Note_on_c, 0, 69, 64
3, 4151, Note_on_c, 0, 69, 0
3, 4152, Note_on_c, 0, 67, 64
3, 4175, Note_on_c, 0, 67, 0
3, 4176, Note_on_c, 0, 69, 64
3, 4199, Note_on_c, 0, 69, 0
3, 4200, Note_on_c, 0, 74, 64
3, 4223, Note_on_c, 0, 74, 0
3, 4224, Note_on_c, 0, 67, 64
3, 4247, Note_on_c, 0, 67, 0
3, 4248, Note_on_c, 0, 66, 64
3, 4271, Note_on_c, 0, 66, 0
3, 4272, Note_on_c, 0, 67, 64
3, 4295, Note_on_c, 0, 67, 0
3, 4296, Note_on_c, 0, 73, 64
3, 4319, Note_on_c, 0, 73, 0
3, 4320, Note_on_c, 0, 66, 64
3, 4365, Note_on_c, 0, 66, 0
3, 4368, Note_on_c, 0, 66, 64
3, 4413, Note_on_c, 0, 66, 0
3, 4416, Note_on_c, 0, 66, 64
3, 4461, Note_on_c, 0, 66, 0
3, 4464, Note_on_c, 0, 66, 64
3, 4509, Note_on_c, 0, 66, 0
3, 4512, Note_on_c, 0, 66, 64
3, 4557, Note_on_c, 0, 66, 0
3, 4560, Note_on_c, 0, 66, 64
3, 4605, Note_on_c, 0, 66, 0
3, 4608, Note_on_c, 0, 66, 64
3, 4653, Note_on_c, 0, 66, 0
3, 4656, Note_on_c, 0, 71, 64
3, 4679, Note_on_c, 0, 71, 0
3, 4680, Note_on_c, 0, 70, 64
3, 4703, Note_on_c, 0, 70, 0
3, 4704, Note_on_c, 0, 71, 64
3, 4749, Note_on_c, 0, 71, 0
3, 4752, Note_on_c, 0, 66, 64
3, 4797, Note_on_c, 0, 66, 0
3, 4800, Note_on_c, 0, 66, 64
3, 4845, Note_on_c, 0, 66, 0
3, 4848, Note_on_c, 0, 66, 64
3, 4893, Note_on_c, 0, 66, 0
3, 4896, Note_on_c, 0, 66, 64
3, 4941, Note_on_c, 0, 66, 0
3, 4944, Note_on_c, 0, 73, 64
3, 4967, Note_on_c, 0, 73, 0
3, 4968, Note_on_c, 0, 71, 64
3, 4991, Note_on_c, 0, 71, 0
3, 4992, Note_on_c, 0, 73, 64
3, 5037, Note_on_c, 0, 73, 0
3, 5040, Note_on_c, 0, 66, 64
3, 5085, Note_on_c, 0, 66, 0
3, 5088, Note_on_c, 0, 66, 64
3, 5133, Note_on_c, 0, 66, 0
3, 5136, Note_on_c, 0, 66, 64
3, 5181, Note_on_c, 0, 66, 0
3, 5184, Note_on_c, 0, 66, 64
3, 5229, Note_on_c, 0, 66, 0
3, 5232, Note_on_c, 0, 74, 64
3, 5244, Note_on_c, 0, 74, 0
3, 5244, Note_on_c, 0, 73, 64
3, 5256, Note_on_c, 0, 73, 0
3, 5256, Note_on_c, 0, 71, 64
3, 5279, Note_on_c, 0, 71, 0
3, 5280, Note_on_c, 0, 73, 64
3, 5325, Note_on_c, 0, 73, 0
3, 5328, Note_on_c, 0, 73, 64
3, 5340, Note_on_c, 0, 73, 0
3, 5340, Note_on_c, 0, 71, 64
3, 5352, Note_on_c, 0, 71, 0
3, 5352, Note_on_c, 0, 70, 64
3, 5375, Note_on_c, 0, 70, 0
3, 5376, Note_on_c, 0, 71, 64
3, 5421, Note_on_c, 0, 71, 0
3, 5424, Note_on_c, 0, 71, 64
3, 5436, Note_on_c, 0, 71, 0
3, 5436, Note_on_c, 0, 70, 64
3, 5448, Note_on_c, 0, 70, 0
3, 5448, Note_on_c, 0, 68, 64
3, 5471, Note_on_c, 0, 68, 0
3, 5472, Note_on_c, 0, 70, 64
3, 5484, Note_on_c, 0, 70, 0
3, 5484, Note_on_c, 0, 71, 64
3, 5496, Note_on_c, 0, 71, 0
3, 5496, Note_on_c, 0, 70, 64
3, 5613, Note_on_c, 0, 70, 0
3, 5616, Note_on_c, 0, 66, 64
3, 5661, Note_on_c, 0, 66, 0
3, 5664, Note_on_c, 0, 71, 64
3, 5805, Note_on_c, 0, 71, 0
3, 5808, Note_on_c, 0, 79, 64
3, 5853, Note_on_c, 0, 79, 0
3, 5856, Note_on_c, 0, 70, 64
3, 5989, Note_on_c, 0, 70, 0
3, 6000, Note_on_c, 0, 71, 64
3, 6045, Note_on_c, 0, 71, 0
3, 6048, Note_on_c, 0, 71, 64
3, 6071, Note_on_c, 0, 71, 0
3, 6072, Note_on_c, 0, 66, 64
3, 6095, Note_on_c, 0, 66, 0
3, 6096, Note_on_c, 0, 68, 64
3, 6119, Note_on_c, 0, 68, 0
3, 6120, Note_on_c, 0, 70, 64
3, 6143, Note_on_c, 0, 70, 0
3, 6144, Note_on_c, 0, 71, 64
3, 6167, Note_on_c, 0, 71, 0
3, 6168, Note_on_c, 0, 73, 64
3, 6191, Note_on_c, 0, 73, 0
3, 6192, Note_on_c, 0, 74, 64
3, 6215, Note_on_c, 0, 74, 0
3, 6216, Note_on_c, 0, 76, 64
3, 6239, Note_on_c, 0, 76, 0
3, 6240, Note_on_c, 0, 78, 64
3, 6263, Note_on_c, 0, 78, 0
3, 6264, Note_on_c, 0, 71, 64
3, 6287, Note_on_c, 0, 71, 0
3, 6288, Note_on_c, 0, 83, 64
3, 6333, Note_on_c, 0, 83, 0
3, 6336, Note_on_c, 0, 82, 64
3, 6601, Note_on_c, 0, 82, 0
3, 6624, Note_on_c, 0, 74, 64
3, 6647, Note_on_c, 0, 74, 0
3, 6648, Note_on_c, 0, 73, 64
3, 6671, Note_on_c, 0, 73, 0
3, 6672, Note_on_c, 0, 71, 64
3, 6695, Note_on_c, 0, 71, 0
3, 6696, Note_on_c, 0, 73, 64
3, 6719, Note_on_c, 0, 73, 0
3, 6720, Note_on_c, 0, 74, 64
3, 6743, Note_on_c, 0, 74, 0
3, 6744, Note_on_c, 0, 78, 64
3, 6767, Note_on_c, 0, 78, 0
3, 6768, Note_on_c, 0, 83, 64
3, 6791, Note_on_c, 0, 83, 0
3, 6792, Note_on_c, 0, 78, 64
3, 6815, Note_on_c, 0, 78, 0
3, 6816, Note_on_c, 0, 74, 64
3, 6839, Note_on_c, 0, 74, 0
3, 6840, Note_on_c, 0, 78, 64
3, 6863, Note_on_c, 0, 78, 0
3, 6864, Note_on_c, 0, 73, 64
3, 6887, Note_on_c, 0, 73, 0
3, 6888, Note_on_c, 0, 78, 64
3, 6911, Note_on_c, 0, 78, 0
3, 6912, Note_on_c, 0, 74, 64
3, 6935, Note_on_c, 0, 74, 0
3, 6936, Note_on_c, 0, 73, 64
3, 6959, Note_on_c, 0, 73, 0
3, 6960, Note_on_c, 0, 71, 64
3, 6983, Note_on_c, 0, 71, 0
3, 6984, Note_on_c, 0, 73, 64
3, 7007, Note_on_c, 0, 73, 0
3, 7008, Note_on_c, 0, 74, 64
3, 7031, Note_on_c, 0, 74, 0
3, 7032, Note_on_c, 0, 78, 64
3, 7055, Note_on_c, 0, 78, 0
3, 7056, Note_on_c, 0, 83, 64
3, 7079, Note_on_c, 0, 83, 0
3, 7080, Note_on_c, 0, 78, 64
3, 7103, Note_on_c, 0, 78, 0
3, 7104, Note_on_c, 0, 76, 64
3, 7127, Note_on_c, 0, 76, 0
3, 7128, Note_on_c, 0, 74, 64
3, 7151, Note_on_c, 0, 74, 0
3, 7152, Note_on_c, 0, 73, 64
3, 7175, Note_on_c, 0, 73, 0
3, 7176, Note_on_c, 0, 71, 64
3, 7199, Note_on_c, 0, 71, 0
3, 7200, Note_on_c, 0, 70, 64
3, 7223, Note_on_c, 0, 70, 0
3, 7224, Note_on_c, 0, 68, 64
3, 7247, Note_on_c, 0, 68, 0
3, 7248, Note_on_c, 0, 66, 64
3, 7271, Note_on_c, 0, 66, 0
3, 7272, Note_on_c, 0, 68, 64
3, 7295, Note_on_c, 0, 68, 0
3, 7296, Note_on_c, 0, 70, 64
3, 7319, Note_on_c, 0, 70, 0
3, 7320, Note_on_c, 0, 71, 64
3, 7343, Note_on_c, 0, 71, 0
3, 7344, Note_on_c, 0, 73, 64
3, 7367, Note_on_c, 0, 73, 0
3, 7368, Note_on_c, 0, 74, 64
3, 7391, Note_on_c, 0, 74, 0
3, 7392, Note_on_c, 0, 76, 64
3, 7415, Note_on_c, 0, 76, 0
3, 7416, Note_on_c, 0, 74, 64
3, 7439, Note_on_c, 0, 74, 0
3, 7440, Note_on_c, 0, 76, 64
3, 7463, Note_on_c, 0, 76, 0
3, 7464, Note_on_c, 0, 73, 64
3, 7487, Note_on_c, 0, 73, 0
3, 7488, Note_on_c, 0, 74, 64
3, 7533, Note_on_c, 0, 74, 0
3, 7536, Note_on_c, 0, 71, 64
3, 7581, Note_on_c, 0, 71, 0
3, 7824, Note_on_c, 0, 73, 64
3, 7869, Note_on_c, 0, 73, 0
3, 7872, Note_on_c, 0, 73, 64
3, 7917, Note_on_c, 0, 73, 0
3, 7920, Note_on_c, 0, 73, 64
3, 7965, Note_on_c, 0, 73, 0
3, 7968, Note_on_c, 0, 73, 64
3, 8013, Note_on_c, 0, 73, 0
3, 8016, Note_on_c, 0, 73, 64
3, 8061, Note_on_c, 0, 73, 0
3, 8064, Note_on_c, 0, 73, 64
3, 8109, Note_on_c, 0, 73, 0
3, 8112, Note_on_c, 0, 78, 64
3, 8135, Note_on_c, 0, 78, 0
3, 8136, Note_on_c, 0, 77, 64
3, 8159, Note_on_c, 0, 77, 0
3, 8160, Note_on_c, 0, 78, 64
3, 8205, Note_on_c, 0, 78, 0
3, 8208, Note_on_c, 0, 73, 64
3, 8253, Note_on_c, 0, 73, 0
3, 8256, Note_on_c, 0, 73, 64
3, 8301, Note_on_c, 0, 73, 0
3, 8304, Note_on_c, 0, 73, 64
3, 8349, Note_on_c, 0, 73, 0
3, 8352, Note_on_c, 0, 73, 64
3, 8397, Note_on_c, 0, 73, 0
3, 8400, Note_on_c, 0, 80, 64
3, 8423, Note_on_c, 0, 80, 0
3, 8424, Note_on_c, 0, 78, 64
3, 8447, Note_on_c, 0, 78, 0
3, 8448, Note_on_c, 0, 80, 64
3, 8493, Note_on_c, 0, 80, 0
3, 8496, Note_on_c, 0, 73, 64
3, 8541, Note_on_c, 0, 73, 0
3, 8544, Note_on_c, 0, 73, 64
3, 8589, Note_on_c, 0, 73, 0
3, 8592, Note_on_c, 0, 73, 64
3, 8637, Note_on_c, 0, 73, 0
3, 8640, Note_on_c, 0, 73, 64
3, 8685, Note_on_c, 0, 73, 0
3, 8688, Note_on_c, 0, 81, 64
3, 8700, Note_on_c, 0, 81, 0
3, 8700, Note_on_c, 0, 80, 64
3, 8712, Note_on_c, 0, 80, 0
3, 8712, Note_on_c, 0, 78, 64
3, 8735, Note_on_c, 0, 78, 0
3, 8736, Note_on_c, 0, 80, 64
3, 8781, Note_on_c, 0, 80, 0
3, 8784, Note_on_c, 0, 80, 64
3, 8796, Note_on_c, 0, 80, 0
3, 8796, Note_on_c, 0, 78, 64
3, 8808, Note_on_c, 0, 78, 0
3, 8808, Note_on_c, 0, 77, 64
3, 8831, Note_on_c, 0, 77, 0
3, 8832, Note_on_c, 0, 78, 64
3, 8877, Note_on_c, 0, 78, 0
3, 8880, Note_on_c, 0, 78, 64
3, 8892, Note_on_c, 0, 78, 0
3, 8892, Note_on_c, 0, 77, 64
3, 8904, Note_on_c, 0, 77, 0
3, 8904, Note_on_c, 0, 75, 64
3, 8927, Note_on_c, 0, 75, 0
3, 8928, Note_on_c, 0, 77, 64
3, 8951, Note_on_c, 0, 77, 0
3, 8952, Note_on_c, 0, 75, 64
3, 8975, Note_on_c, 0, 75, 0
3, 8976, Note_on_c, 0, 73, 64
3, 8999, Note_on_c, 0, 73, 0
3, 9000, Note_on_c, 0, 75, 64
3, 9023, Note_on_c, 0, 75, 0
3, 9024, Note_on_c, 0, 77, 64
3, 9047, Note_on_c, 0, 77, 0
3, 9048, Note_on_c, 0, 78, 64
3, 9071, Note_on_c, 0, 78, 0
3, 9072, Note_on_c, 0, 80, 64
3, 9095, Note_on_c, 0, 80, 0
3, 9096, Note_on_c, 0, 81, 64
3, 9119, Note_on_c, 0, 81, 0
3, 9120, Note_on_c, 0, 83, 64
3, 9143, Note_on_c, 0, 83, 0
3, 9144, Note_on_c, 0, 81, 64
3, 9167, Note_on_c, 0, 81, 0
3, 9168, Note_on_c, 0, 83, 64
3, 9191, Note_on_c, 0, 83, 0
3, 9192, Note_on_c, 0, 80, 64
3, 9215, Note_on_c, 0, 80, 0
3, 9216, Note_on_c, 0, 81, 64
3, 9261, Note_on_c, 0, 81, 0
3, 9264, Note_on_c, 0, 78, 64
3, 9309, Note_on_c, 0, 78, 0
3, 9312, Note_on_c, 0, 73, 64
3, 9357, Note_on_c, 0, 73, 0
3, 9360, Note_on_c, 0, 78, 64
3, 9405, Note_on_c, 0, 78, 0
3, 9408, Note_on_c, 0, 82, 64
3, 9475, Note_on_c, 0, 82, 0
3, 9480, Note_on_c, 0, 80, 64
3, 9492, Note_on_c, 0, 80, 0
3, 9492, Note_on_c, 0, 82, 64
3, 9504, Note_on_c, 0, 82, 0
3, 9504, Note_on_c, 0, 83, 64
3, 9549, Note_on_c, 0, 83, 0
3, 9552, Note_on_c, 0, 78, 64
3, 9597, Note_on_c, 0, 78, 0
3, 9600, Note_on_c, 0, 74, 64
3, 9645, Note_on_c, 0, 74, 0
3, 9648, Note_on_c, 0, 78, 64
3, 9693, Note_on_c, 0, 78, 0
3, 9696, Note_on_c, 0, 83, 64
3, 9763, Note_on_c, 0, 83, 0
3, 9768, Note_on_c, 0, 82, 64
3, 9780, Note_on_c, 0, 82, 0
3, 9780, Note_on_c, 0, 83, 64
3, 9792, Note_on_c, 0, 83, 0
3, 9792, Note_on_c, 0, 85, 64
3, 9881, Note_on_c, 0, 85, 0
3, 9936, Note_on_c, 0, 70, 64
3, 9959, Note_on_c, 0, 70, 0
3, 9960, Note_on_c, 0, 71, 64
3, 9983, Note_on_c, 0, 71, 0
3, 9984, Note_on_c, 0, 73, 64
3, 10007, Note_on_c, 0, 73, 0
3, 10008, Note_on_c, 0, 71, 64
3, 10031, Note_on_c, 0, 71, 0
3, 10032, Note_on_c, 0, 73, 64
3, 10055, Note_on_c, 0, 73, 0
3, 10056, Note_on_c, 0, 70, 64
3, 10079, Note_on_c, 0, 70, 0
3, 10080, Note_on_c, 0, 71, 64
3, 10103, Note_on_c, 0, 71, 0
3, 10104, Note_on_c, 0, 74, 64
3, 10127, Note_on_c, 0, 74, 0
3, 10128, Note_on_c, 0, 78, 64
3, 10151, Note_on_c, 0, 78, 0
3, 10152, Note_on_c, 0, 83, 64
3, 10175, Note_on_c, 0, 83, 0
3, 10176, Note_on_c, 0, 76, 64
3, 10199, Note_on_c, 0, 76, 0
3, 10200, Note_on_c, 0, 74, 64
3, 10223, Note_on_c, 0, 74, 0
3, 10224, Note_on_c, 0, 76, 64
3, 10247, Note_on_c, 0, 76, 0
3, 10248, Note_on_c, 0, 81, 64
3, 10271, Note_on_c, 0, 81, 0
3, 10272, Note_on_c, 0, 74, 64
3, 10295, Note_on_c, 0, 74, 0
3, 10296, Note_on_c, 0, 73, 64
3, 10319, Note_on_c, 0, 73, 0
3, 10320, Note_on_c, 0, 74, 64
3, 10343, Note_on_c, 0, 74, 0
3, 10344, Note_on_c, 0, 79, 64
3, 10367, Note_on_c, 0, 79, 0
3, 10368, Note_on_c, 0, 78, 64
3, 10391, Note_on_c, 0, 78, 0
3, 10392, Note_on_c, 0, 76, 64
3, 10415, Note_on_c, 0, 76, 0
3, 10416, Note_on_c, 0, 74, 64
3, 10439, Note_on_c, 0, 74, 0
3, 10440, Note_on_c, 0, 79, 64
3, 10463, Note_on_c, 0, 79, 0
3, 10464, Note_on_c, 0, 73, 64
3, 10487, Note_on_c, 0, 73, 0
3, 10488, Note_on_c, 0, 71, 64
3, 10511, Note_on_c, 0, 71, 0
3, 10512, Note_on_c, 0, 73, 64
3, 10535, Note_on_c, 0, 73, 0
3, 10536, Note_on_c, 0, 78, 64
3, 10559, Note_on_c, 0, 78, 0
3, 10560, Note_on_c, 0, 71, 64
3, 10583, Note_on_c, 0, 71, 0
3, 10584, Note_on_c, 0, 69, 64
3, 10607, Note_on_c, 0, 69, 0
3, 10608, Note_on_c, 0, 71, 64
3, 10631, Note_on_c, 0, 71, 0
3, 10632, Note_on_c, 0, 76, 64
3, 10655, Note_on_c, 0, 76, 0
3, 10656, Note_on_c, 0, 74, 64
3, 10679, Note_on_c, 0, 74, 0
3, 10680, Note_on_c, 0, 73, 64
3, 10703, Note_on_c, 0, 73, 0
3, 10704, Note_on_c, 0, 71, 64
3, 10727, Note_on_c, 0, 71, 0
3, 10728, Note_on_c, 0, 76, 64
3, 10751, Note_on_c, 0, 76, 0
3, 10752, Note_on_c, 0, 69, 64
3, 10775, Note_on_c, 0, 69, 0
3, 10776, Note_on_c, 0, 67, 64
3, 10799, Note_on_c, 0, 67, 0
3, 10800, Note_on_c, 0, 69, 64
3, 10823, Note_on_c, 0, 69, 0
3, 10824, Note_on_c, 0, 74, 64
3, 10847, Note_on_c, 0, 74, 0
3, 10848, Note_on_c, 0, 67, 64
3, 10871, Note_on_c, 0, 67, 0
3, 10872, Note_on_c, 0, 66, 64
3, 10895, Note_on_c, 0, 66, 0
3, 10896, Note_on_c, 0, 67, 64
3, 10919, Note_on_c, 0, 67, 0
3, 10920, Note_on_c, 0, 73, 64
3, 10943, Note_on_c, 0, 73, 0
3, 10944, Note_on_c, 0, 66, 64
3, 10989, Note_on_c, 0, 66, 0
3, 10992, Note_on_c, 0, 66, 64
3, 11037, Note_on_c, 0, 66, 0
3, 11040, Note_on_c, 0, 66, 64
3, 11085, Note_on_c, 0, 66, 0
3, 11088, Note_on_c, 0, 66, 64
3, 11133, Note_on_c, 0, 66, 0
3, 11136, Note_on_c, 0, 66, 64
3, 11181, Note_on_c, 0, 66, 0
3, 11184, Note_on_c, 0, 66, 64
3, 11229, Note_on_c, 0, 66, 0
3, 11232, Note_on_c, 0, 66, 64
3, 11277, Note_on_c, 0, 66, 0
3, 11280, Note_on_c, 0, 71, 64
3, 11303, Note_on_c, 0, 71, 0
3, 11304, Note_on_c, 0, 70, 64
3, 11327, Note_on_c, 0, 70, 0
3, 11328, Note_on_c, 0, 71, 64
3, 11373, Note_on_c, 0, 71, 0
3, 11376, Note_on_c, 0, 66, 64
3, 11421, Note_on_c, 0, 66, 0
3, 11424, Note_on_c, 0, 66, 64
3, 11469, Note_on_c, 0, 66, 0
3, 11472, Note_on_c, 0, 66, 64
3, 11517, Note_on_c, 0, 66, 0
3, 11520, Note_on_c, 0, 66, 64
3, 11565, Note_on_c, 0, 66, 0
3, 11568, Note_on_c, 0, 73, 64
3, 11591, Note_on_c, 0, 73, 0
3, 11592, Note_on_c, 0, 71, 64
3, 11615, Note_on_c, 0, 71, 0
3, 11616, Note_on_c, 0, 73, 64
3, 11661, Note_on_c, 0, 73, 0
3, 11664, Note_on_c, 0, 66, 64
3, 11709, Note_on_c, 0, 66, 0
3, 11712, Note_on_c, 0, 66, 64
3, 11757, Note_on_c, 0, 66, 0
3, 11760, Note_on_c, 0, 66, 64
3, 11805, Note_on_c, 0, 66, 0
3, 11808, Note_on_c, 0, 66, 64
3, 11853, Note_on_c, 0, 66, 0
3, 11856, Note_on_c, 0, 74, 64
3, 11868, Note_on_c, 0, 74, 0
3, 11868, Note_on_c, 0, 73, 64
3, 11880, Note_on_c, 0, 73, 0
3, 11880, Note_on_c, 0, 71, 64
3, 11903, Note_on_c, 0, 71, 0
3, 11904, Note_on_c, 0, 73, 64
3, 11949, Note_on_c, 0, 73, 0
3, 11952, Note_on_c, 0, 73, 64
3, 11964, Note_on_c, 0, 73, 0
3, 11964, Note_on_c, 0, 71, 64
3, 11976, Note_on_c, 0, 71, 0
3, 11976, Note_on_c, 0, 70, 64
3, 11999, Note_on_c, 0, 70, 0
3, 12000, Note_on_c, 0, 71, 64
3, 12045, Note_on_c, 0, 71, 0
3, 12048, Note_on_c, 0, 71, 64
3, 12060, Note_on_c, 0, 71, 0
3, 12060, Note_on_c, 0, 70, 64
3, 12072, Note_on_c, 0, 70, 0
3, 12072, Note_on_c, 0, 68, 64
3, 12095, Note_on_c, 0, 68, 0
3, 12096, Note_on_c, 0, 70, 64
3, 12108, Note_on_c, 0, 70, 0
3, 12108, Note_on_c, 0, 71, 64
3, 12120, Note_on_c, 0, 71, 0
3, 12120, Note_on_c, 0, 70, 64
3, 12237, Note_on_c, 0, 70, 0
3, 12240, Note_on_c, 0, 66, 64
3, 12285, Note_on_c, 0, 66, 0
3, 12288, Note_on_c, 0, 71, 64
3, 12429, Note_on_c, 0, 71, 0
3, 12432, Note_on_c, 0, 79, 64
3, 12477, Note_on_c, 0, 79, 0
3, 12480, Note_on_c, 0, 70, 64
3, 12613, Note_on_c, 0, 70, 0
3, 12624, Note_on_c, 0, 71, 64
3, 12669, Note_on_c, 0, 71, 0
3, 12672, Note_on_c, 0, 71, 64
3, 12695, Note_on_c, 0, 71, 0
3, 12696, Note_on_c, 0, 66, 64
3, 12719, Note_on_c, 0, 66, 0
3, 12720, Note_on_c, 0, 68, 64
3, 12743, Note_on_c, 0, 68, 0
3, 12744, Note_on_c, 0, 70, 64
3, 12767, Note_on_c, 0, 70, 0
3, 12768, Note_on_c, 0, 71, 64
3, 12791, Note_on_c, 0, 71, 0
3, 12792, Note_on_c, 0, 73, 64
3, 12815, Note_on_c, 0, 73, 0
3, 12816, Note_on_c, 0, 74, 64
3, 12839, Note_on_c, 0, 74, 0
3, 12840, Note_on_c, 0, 76, 64
3, 12863, Note_on_c, 0, 76, 0
3, 12864, Note_on_c, 0, 78, 64
3, 12887, Note_on_c, 0, 78, 0
3, 12888, Note_on_c, 0, 71, 64
3, 12911, Note_on_c, 0, 71, 0
3, 12912, Note_on_c, 0, 83, 64
3, 12957, Note_on_c, 0, 83, 0
3, 12960, Note_on_c, 0, 82, 64
3, 13225, Note_on_c, 0, 82, 0
3, 13248, Note_on_c, 0, 81, 64
3, 13271, Note_on_c, 0, 81, 0
3, 13272, Note_on_c, 0, 79, 64
3, 13295, Note_on_c, 0, 79, 0
3, 13296, Note_on_c, 0, 78, 64
3, 13319, Note_on_c, 0, 78, 0
3, 13320, Note_on_c, 0, 79, 64
3, 13343, Note_on_c, 0, 79, 0
3, 13344, Note_on_c, 0, 81, 64
3, 13367, Note_on_c, 0, 81, 0
3, 13368, Note_on_c, 0, 83, 64
3, 13391, Note_on_c, 0, 83, 0
3, 13392, Note_on_c, 0, 84, 64
3, 13415, Note_on_c, 0, 84, 0
3, 13416, Note_on_c, 0, 83, 64
3, 13439, Note_on_c, 0, 83, 0
3, 13440, Note_on_c, 0, 81, 64
3, 13463, Note_on_c, 0, 81, 0
3, 13464, Note_on_c, 0, 84, 64
3, 13487, Note_on_c, 0, 84, 0
3, 13488, Note_on_c, 0, 79, 64
3, 13511, Note_on_c, 0, 79, 0
3, 13512, Note_on_c, 0, 84, 64
3, 13535, Note_on_c, 0, 84, 0
3, 13536, Note_on_c, 0, 78, 64
3, 13559, Note_on_c, 0, 78, 0
3, 13560, Note_on_c, 0, 76, 64
3, 13583, Note_on_c, 0, 76, 0
3, 13584, Note_on_c, 0, 75, 64
3, 13607, Note_on_c, 0, 75, 0
3, 13608, Note_on_c, 0, 76, 64
3, 13631, Note_on_c, 0, 76, 0
3, 13632, Note_on_c, 0, 78, 64
3, 13655, Note_on_c, 0, 78, 0
3, 13656, Note_on_c, 0, 79, 64
3, 13679, Note_on_c, 0, 79, 0
3, 13680, Note_on_c, 0, 81, 64
3, 13703, Note_on_c, 0, 81, 0
3, 13704, Note_on_c, 0, 79, 64
3, 13727, Note_on_c, 0, 79, 0
3, 13728, Note_on_c, 0, 78, 64
3, 13751, Note_on_c, 0, 78, 0
3, 13752, Note_on_c, 0, 81, 64
3, 13775, Note_on_c, 0, 81, 0
3, 13776, Note_on_c, 0, 76, 64
3, 13799, Note_on_c, 0, 76, 0
3, 13800, Note_on_c, 0, 81, 64
3, 13823, Note_on_c, 0, 81, 0
3, 13824, Note_on_c, 0, 75, 64
3, 13847, Note_on_c, 0, 75, 0
3, 13848, Note_on_c, 0, 76, 64
3, 13871, Note_on_c, 0, 76, 0
3, 13872, Note_on_c, 0, 78, 64
3, 13895, Note_on_c, 0, 78, 0
3, 13896, Note_on_c, 0, 76, 64
3, 13919, Note_on_c, 0, 76, 0
3, 13920, Note_on_c, 0, 75, 64
3, 13943, Note_on_c, 0, 75, 0
3, 13944, Note_on_c, 0, 73, 64
3, 13967, Note_on_c, 0, 73, 0
3, 13968, Note_on_c, 0, 71, 64
3, 13991, Note_on_c, 0, 71, 0
3, 13992, Note_on_c, 0, 69, 64
3, 14015, Note_on_c, 0, 69, 0
3, 14016, Note_on_c, 0, 67, 64
3, 14039, Note_on_c, 0, 67, 0
3, 14040, Note_on_c, 0, 66, 64
3, 14063, Note_on_c, 0, 66, 0
3, 14064, Note_on_c, 0, 64, 64
3, 14087, Note_on_c, 0, 64, 0
3, 14088, Note_on_c, 0, 63, 64
3, 14111, Note_on_c, 0, 63, 0
3, 14112, Note_on_c, 0, 62, 64
3, 14157, Note_on_c, 0, 62, 0
3, 14160, Note_on_c, 0, 79, 64
3, 14205, Note_on_c, 0, 79, 0
3, 14208, Note_on_c, 0, 79, 64
3, 14253, Note_on_c, 0, 79, 0
3, 14256, Note_on_c, 0, 79, 64
3, 14301, Note_on_c, 0, 79, 0
3, 14304, Note_on_c, 0, 79, 64
3, 14349, Note_on_c, 0, 79, 0
3, 14352, Note_on_c, 0, 79, 64
3, 14397, Note_on_c, 0, 79, 0
3, 14400, Note_on_c, 0, 79, 64
3, 14445, Note_on_c, 0, 79, 0
3, 14448, Note_on_c, 0, 83, 64
3, 14471, Note_on_c, 0, 83, 0
3, 14472, Note_on_c, 0, 81, 64
3, 14495, Note_on_c, 0, 81, 0
3, 14496, Note_on_c, 0, 79, 64
3, 14541, Note_on_c, 0, 79, 0
3, 14544, Note_on_c, 0, 79, 64
3, 14589, Note_on_c, 0, 79, 0
3, 14592, Note_on_c, 0, 79, 64
3, 14637, Note_on_c, 0, 79, 0
3, 14640, Note_on_c, 0, 79, 64
3, 14685, Note_on_c, 0, 79, 0
3, 14688, Note_on_c, 0, 79, 64
3, 14733, Note_on_c, 0, 79, 0
3, 14736, Note_on_c, 0, 76, 64
3, 14759, Note_on_c, 0, 76, 0
3, 14760, Note_on_c, 0, 78, 64
3, 14783, Note_on_c, 0, 78, 0
3, 14784, Note_on_c, 0, 79, 64
3, 14829, Note_on_c, 0, 79, 0
3, 14832, Note_on_c, 0, 78, 64
3, 14855, Note_on_c, 0, 78, 0
3, 14856, Note_on_c, 0, 79, 64
3, 14879, Note_on_c, 0, 79, 0
3, 14880, Note_on_c, 0, 81, 64
3, 14925, Note_on_c, 0, 81, 0
3, 14928, Note_on_c, 0, 76, 64
3, 14973, Note_on_c, 0, 76, 0
3, 14976, Note_on_c, 0, 78, 64
3, 14999, Note_on_c, 0, 78, 0
3, 15000, Note_on_c, 0, 76, 64
3, 15023, Note_on_c, 0, 76, 0
3, 15024, Note_on_c, 0, 74, 64
3, 15047, Note_on_c, 0, 74, 0
3, 15048, Note_on_c, 0, 76, 64
3, 15071, Note_on_c, 0, 76, 0
3, 15072, Note_on_c, 0, 78, 64
3, 15095, Note_on_c, 0, 78, 0
3, 15096, Note_on_c, 0, 79, 64
3, 15119, Note_on_c, 0, 79, 0
3, 15120, Note_on_c, 0, 81, 64
3, 15143, Note_on_c, 0, 81, 0
3, 15144, Note_on_c, 0, 79, 64
3, 15167, Note_on_c, 0, 79, 0
3, 15168, Note_on_c, 0, 78, 64
3, 15191, Note_on_c, 0, 78, 0
3, 15192, Note_on_c, 0, 81, 64
3, 15215, Note_on_c, 0, 81, 0
3, 15216, Note_on_c, 0, 76, 64
3, 15239, Note_on_c, 0, 76, 0
3, 15240, Note_on_c, 0, 81, 64
3, 15263, Note_on_c, 0, 81, 0
3, 15264, Note_on_c, 0, 74, 64
3, 15287, Note_on_c, 0, 74, 0
3, 15288, Note_on_c, 0, 73, 64
3, 15311, Note_on_c, 0, 73, 0
3, 15312, Note_on_c, 0, 71, 64
3, 15335, Note_on_c, 0, 71, 0
3, 15336, Note_on_c, 0, 73, 64
3, 15359, Note_on_c, 0, 73, 0
3, 15360, Note_on_c, 0, 74, 64
3, 15383, Note_on_c, 0, 74, 0
3, 15384, Note_on_c, 0, 76, 64
3, 15407, Note_on_c, 0, 76, 0
3, 15408, Note_on_c, 0, 78, 64
3, 15431, Note_on_c, 0, 78, 0
3, 15432, Note_on_c, 0, 76, 64
3, 15455, Note_on_c, 0, 76, 0
3, 15456, Note_on_c, 0, 74, 64
3, 15479, Note_on_c, 0, 74, 0
3, 15480, Note_on_c, 0, 78, 64
3, 15503, Note_on_c, 0, 78, 0
3, 15504, Note_on_c, 0, 73, 64
3, 15527, Note_on_c, 0, 73, 0
3, 15528, Note_on_c, 0, 78, 64
3, 15551, Note_on_c, 0, 78, 0
3, 15552, Note_on_c, 0, 71, 64
3, 15575, Note_on_c, 0, 71, 0
3, 15576, Note_on_c, 0, 73, 64
3, 15599, Note_on_c, 0, 73, 0
3, 15600, Note_on_c, 0, 74, 64
3, 15623, Note_on_c, 0, 74, 0
3, 15624, Note_on_c, 0, 73, 64
3, 15647, Note_on_c, 0, 73, 0
3, 15648, Note_on_c, 0, 71, 64
3, 15671, Note_on_c, 0, 71, 0
3, 15672, Note_on_c, 0, 69, 64
3, 15695, Note_on_c, 0, 69, 0
3, 15696, Note_on_c, 0, 68, 64
3, 15719, Note_on_c, 0, 68, 0
3, 15720, Note_on_c, 0, 66, 64
3, 15743, Note_on_c, 0, 66, 0
3, 15744, Note_on_c, 0, 64, 64
3, 15767, Note_on_c, 0, 64, 0
3, 15768, Note_on_c, 0, 62, 64
3, 15791, Note_on_c, 0, 62, 0
3, 15792, Note_on_c, 0, 61, 64
3, 15815, Note_on_c, 0, 61, 0
3, 15816, Note_on_c, 0, 59, 64
3, 15839, Note_on_c, 0, 59, 0
3, 15840, Note_on_c, 0, 61, 64
3, 15863, Note_on_c, 0, 61, 0
3, 15864, Note_on_c, 0, 64, 64
3, 15887, Note_on_c, 0, 64, 0
3, 15888, Note_on_c, 0, 69, 64
3, 15911, Note_on_c, 0, 69, 0
3, 15912, Note_on_c, 0, 68, 64
3, 15935, Note_on_c, 0, 68, 0
3, 15936, Note_on_c, 0, 69, 64
3, 15959, Note_on_c, 0, 69, 0
3, 15960, Note_on_c, 0, 73, 64
3, 15983, Note_on_c, 0, 73, 0
3, 15984, Note_on_c, 0, 76, 64
3, 16007, Note_on_c, 0, 76, 0
3, 16008, Note_on_c, 0, 73, 64
3, 16031, Note_on_c, 0, 73, 0
3, 16032, Note_on_c, 0, 69, 64
3, 16055, Note_on_c, 0, 69, 0
3, 16056, Note_on_c, 0, 73, 64
3, 16079, Note_on_c, 0, 73, 0
3, 16080, Note_on_c, 0, 68, 64
3, 16103, Note_on_c, 0, 68, 0
3, 16104, Note_on_c, 0, 71, 64
3, 16127, Note_on_c, 0, 71, 0
3, 16128, Note_on_c, 0, 69, 64
3, 16151, Note_on_c, 0, 69, 0
3, 16152, Note_on_c, 0, 71, 64
3, 16175, Note_on_c, 0, 71, 0
3, 16176, Note_on_c, 0, 73, 64
3, 16199, Note_on_c, 0, 73, 0
3, 16200, Note_on_c, 0, 74, 64
3, 16223, Note_on_c, 0, 74, 0
3, 16224, Note_on_c, 0, 76, 64
3, 16247, Note_on_c, 0, 76, 0
3, 16248, Note_on_c, 0, 81, 64
3, 16271, Note_on_c, 0, 81, 0
3, 16272, Note_on_c, 0, 85, 64
3, 16295, Note_on_c, 0, 85, 0
3, 16296, Note_on_c, 0, 81, 64
3, 16319, Note_on_c, 0, 81, 0
3, 16320, Note_on_c, 0, 83, 64
3, 16343, Note_on_c, 0, 83, 0
3, 16344, Note_on_c, 0, 81, 64
3, 16367, Note_on_c, 0, 81, 0
3, 16368, Note_on_c, 0, 80, 64
3, 16391, Note_on_c, 0, 80, 0
3, 16392, Note_on_c, 0, 81, 64
3, 16415, Note_on_c, 0, 81, 0
3, 16416, Note_on_c, 0, 83, 64
3, 16439, Note_on_c, 0, 83, 0
3, 16440, Note_on_c, 0, 81, 64
3, 16463, Note_on_c, 0, 81, 0
3, 16464, Note_on_c, 0, 80, 64
3, 16487, Note_on_c, 0, 80, 0
3, 16488, Note_on_c, 0, 78, 64
3, 16511, Note_on_c, 0, 78, 0
3, 16512, Note_on_c, 0, 76, 64
3, 16535, Note_on_c, 0, 76, 0
3, 16536, Note_on_c, 0, 78, 64
3, 16559, Note_on_c, 0, 78, 0
3, 16560, Note_on_c, 0, 80, 64
3, 16583, Note_on_c, 0, 80, 0
3, 16584, Note_on_c, 0, 81, 64
3, 16607, Note_on_c, 0, 81, 0
3, 16608, Note_on_c, 0, 83, 64
3, 16631, Note_on_c, 0, 83, 0
3, 16632, Note_on_c, 0, 81, 64
3, 16655, Note_on_c, 0, 81, 0
3, 16656, Note_on_c, 0, 83, 64
3, 16679, Note_on_c, 0, 83, 0
3, 16680, Note_on_c, 0, 80, 64
3, 16703, Note_on_c, 0, 80, 0
3, 16704, Note_on_c, 0, 81, 64
3, 16749, Note_on_c, 0, 81, 0
3, 16752, Note_on_c, 0, 69, 64
3, 16797, Note_on_c, 0, 69, 0
3, 17040, Note_on_c, 0, 71, 64
3, 17085, Note_on_c, 0, 71, 0
3, 17088, Note_on_c, 0, 71, 64
3, 17133, Note_on_c, 0, 71, 0
3, 17136, Note_on_c, 0, 71, 64
3, 17181, Note_on_c, 0, 71, 0
3, 17184, Note_on_c, 0, 71, 64
3, 17229, Note_on_c, 0, 71, 0
3, 17232, Note_on_c, 0, 71, 64
3, 17277, Note_on_c, 0, 71, 0
3, 17280, Note_on_c, 0, 71, 64
3, 17325, Note_on_c, 0, 71, 0
3, 17328, Note_on_c, 0, 76, 64
3, 17351, Note_on_c, 0, 76, 0
3, 17352, Note_on_c, 0, 75, 64
3, 17375, Note_on_c, 0, 75, 0
3, 17376, Note_on_c, 0, 76, 64
3, 17421, Note_on_c, 0, 76, 0
3, 17424, Note_on_c, 0, 71, 64
3, 17469, Note_on_c, 0, 71, 0
3, 17472, Note_on_c, 0, 71, 64
3, 17517, Note_on_c, 0, 71, 0
3, 17520, Note_on_c, 0, 71, 64
3, 17565, Note_on_c, 0, 71, 0
3, 17568, Note_on_c, 0, 71, 64
3, 17613, Note_on_c, 0, 71, 0
3, 17616, Note_on_c, 0, 78, 64
3, 17639, Note_on_c, 0, 78, 0
3, 17640, Note_on_c, 0, 76, 64
3, 17663, Note_on_c, 0, 76, 0
3, 17664, Note_on_c, 0, 78, 64
3, 17709, Note_on_c, 0, 78, 0
3, 17712, Note_on_c, 0, 71, 64
3, 17757, Note_on_c, 0, 71, 0
3, 17760, Note_on_c, 0, 71, 64
3, 17805, Note_on_c, 0, 71, 0
3, 17808, Note_on_c, 0, 71, 64
3, 17853, Note_on_c, 0, 71, 0
3, 17856, Note_on_c, 0, 71, 64
3, 17901, Note_on_c, 0, 71, 0
3, 17904, Note_on_c, 0, 79, 64
3, 17916, Note_on_c, 0, 79, 0
3, 17916, Note_on_c, 0, 78, 64
3, 17928, Note_on_c, 0, 78, 0
3, 17928, Note_on_c, 0, 76, 64
3, 17951, Note_on_c, 0, 76, 0
3, 17952, Note_on_c, 0, 78, 64
3, 17997, Note_on_c, 0, 78, 0
3, 18000, Note_on_c, 0, 78, 64
3, 18012, Note_on_c, 0, 78, 0
3, 18012, Note_on_c, 0, 76, 64
3, 18024, Note_on_c, 0, 76, 0
3, 18024, Note_on_c, 0, 75, 64
3, 18047, Note_on_c, 0, 75, 0
3, 18048, Note_on_c, 0, 76, 64
3, 18093, Note_on_c, 0, 76, 0
3, 18096, Note_on_c, 0, 76, 64
3, 18108, Note_on_c, 0, 76, 0
3, 18108, Note_on_c, 0, 75, 64
3, 18120, Note_on_c, 0, 75, 0
3, 18120, Note_on_c, 0, 73, 64
3, 18143, Note_on_c, 0, 73, 0
3, 18144, Note_on_c, 0, 75, 64
3, 18189, Note_on_c, 0, 75, 0
3, 18192, Note_on_c, 0, 81, 64
3, 18215, Note_on_c, 0, 81, 0
3, 18216, Note_on_c, 0, 83, 64
3, 18239, Note_on_c, 0, 83, 0
3, 18240, Note_on_c, 0, 84, 64
3, 18263, Note_on_c, 0, 84, 0
3, 18264, Note_on_c, 0, 83, 64
3, 18287, Note_on_c, 0, 83, 0
3, 18288, Note_on_c, 0, 81, 64
3, 18311, Note_on_c, 0, 81, 0
3, 18312, Note_on_c, 0, 79, 64
3, 18335, Note_on_c, 0, 79, 0
3, 18336, Note_on_c, 0, 78, 64
3, 18381, Note_on_c, 0, 78, 0
3, 18384, Note_on_c, 0, 76, 64
3, 18429, Note_on_c, 0, 76, 0
3, 18432, Note_on_c, 0, 75, 64
3, 18477, Note_on_c, 0, 75, 0
3, 18480, Note_on_c, 0, 78, 64
3, 18503, Note_on_c, 0, 78, 0
3, 18504, Note_on_c, 0, 79, 64
3, 18527, Note_on_c, 0, 79, 0
3, 18528, Note_on_c, 0, 81, 64
3, 18551, Note_on_c, 0, 81, 0
3, 18552, Note_on_c, 0, 79, 64
3, 18575, Note_on_c, 0, 79, 0
3, 18576, Note_on_c, 0, 78, 64
3, 18599, Note_on_c, 0, 78, 0
3, 18600, Note_on_c, 0, 76, 64
3, 18623, Note_on_c, 0, 76, 0
3, 18624, Note_on_c, 0, 75, 64
3, 18669, Note_on_c, 0, 75, 0
3, 18672, Note_on_c, 0, 73, 64
3, 18717, Note_on_c, 0, 73, 0
3, 18720, Note_on_c, 0, 71, 64
3, 18765, Note_on_c, 0, 71, 0
3, 18768, Note_on_c, 0, 81, 64
3, 18813, Note_on_c, 0, 81, 0
3, 18816, Note_on_c, 0, 78, 64
3, 18861, Note_on_c, 0, 78, 0
3, 18864, Note_on_c, 0, 75, 64
3, 18909, Note_on_c, 0, 75, 0
3, 18912, Note_on_c, 0, 71, 64
3, 18957, Note_on_c, 0, 71, 0
3, 18960, Note_on_c, 0, 78, 64
3, 19005, Note_on_c, 0, 78, 0
3, 19008, Note_on_c, 0, 83, 64
3, 19031, Note_on_c, 0, 83, 0
3, 19032, Note_on_c, 0, 81, 64
3, 19055, Note_on_c, 0, 81, 0
3, 19056, Note_on_c, 0, 79, 64
3, 19079, Note_on_c, 0, 79, 0
3, 19080, Note_on_c, 0, 81, 64
3, 19103, Note_on_c, 0, 81, 0
3, 19104, Note_on_c, 0, 83, 64
3, 19127, Note_on_c, 0, 83, 0
3, 19128, Note_on_c, 0, 81, 64
3, 19151, Note_on_c, 0, 81, 0
3, 19152, Note_on_c, 0, 79, 64
3, 19175, Note_on_c, 0, 79, 0
3, 19176, Note_on_c, 0, 78, 64
3, 19199, Note_on_c, 0, 78, 0
3, 19200, Note_on_c, 0, 76, 64
3, 19245, Note_on_c, 0, 76, 0
3, 19248, Note_on_c, 0, 74, 64
3, 19293, Note_on_c, 0, 74, 0
3, 19296, Note_on_c, 0, 73, 64
3, 19341, Note_on_c, 0, 73, 0
3, 19344, Note_on_c, 0, 76, 64
3, 19367, Note_on_c, 0, 76, 0
3, 19368, Note_on_c, 0, 78, 64
3, 19391, Note_on_c, 0, 78, 0
3, 19392, Note_on_c, 0, 79, 64
3, 19415, Note_on_c, 0, 79, 0
3, 19416, Note_on_c, 0, 78, 64
3, 19439, Note_on_c, 0, 78, 0
3, 19440, Note_on_c, 0, 76, 64
3, 19463, Note_on_c, 0, 76, 0
3, 19464, Note_on_c, 0, 74, 64
3, 19487, Note_on_c, 0, 74, 0
3, 19488, Note_on_c, 0, 73, 64
3, 19533, Note_on_c, 0, 73, 0
3, 19536, Note_on_c, 0, 71, 64
3, 19581, Note_on_c, 0, 71, 0
3, 19584, Note_on_c, 0, 73, 64
3, 19629, Note_on_c, 0, 73, 0
3, 19632, Note_on_c, 0, 79, 64
3, 19677, Note_on_c, 0, 79, 0
3, 19680, Note_on_c, 0, 76, 64
3, 19725, Note_on_c, 0, 76, 0
3, 19728, Note_on_c, 0, 73, 64
3, 19773, Note_on_c, 0, 73, 0
3, 19776, Note_on_c, 0, 69, 64
3, 19821, Note_on_c, 0, 69, 0
3, 19824, Note_on_c, 0, 79, 64
3, 19869, Note_on_c, 0, 79, 0
3, 19872, Note_on_c, 0, 78, 64
3, 19917, Note_on_c, 0, 78, 0
3, 19920, Note_on_c, 0, 81, 64
3, 19932, Note_on_c, 0, 81, 0
3, 19932, Note_on_c, 0, 79, 64
3, 19944, Note_on_c, 0, 79, 0
3, 19944, Note_on_c, 0, 78, 64
3, 19967, Note_on_c, 0, 78, 0
3, 19968, Note_on_c, 0, 79, 64
3, 20013, Note_on_c, 0, 79, 0
3, 20016, Note_on_c, 0, 79, 64
3, 20028, Note_on_c, 0, 79, 0
3, 20028, Note_on_c, 0, 78, 64
3, 20040, Note_on_c, 0, 78, 0
3, 20040, Note_on_c, 0, 76, 64
3, 20063, Note_on_c, 0, 76, 0
3, 20064, Note_on_c, 0, 78, 64
3, 20109, Note_on_c, 0, 78, 0
3, 20112, Note_on_c, 0, 78, 64
3, 20124, Note_on_c, 0, 78, 0
3, 20124, Note_on_c, 0, 76, 64
3, 20136, Note_on_c, 0, 76, 0
3, 20136, Note_on_c, 0, 74, 64
3, 20159, Note_on_c, 0, 74, 0
3, 20160, Note_on_c, 0, 76, 64
3, 20205, Note_on_c, 0, 76, 0
3, 20208, Note_on_c, 0, 79, 64
3, 20220, Note_on_c, 0, 79, 0
3, 20220, Note_on_c, 0, 78, 64
3, 20232, Note_on_c, 0, 78, 0
3, 20232, Note_on_c, 0, 76, 64
3, 20255, Note_on_c, 0, 76, 0
3, 20256, Note_on_c, 0, 78, 64
3, 20301, Note_on_c, 0, 78, 0
3, 20304, Note_on_c, 0, 78, 64
3, 20316, Note_on_c, 0, 78, 0
3, 20316, Note_on_c, 0, 76, 64
3, 20328, Note_on_c, 0, 76, 0
3, 20328, Note_on_c, 0, 74, 64
3, 20351, Note_on_c, 0, 74, 0
3, 20352, Note_on_c, 0, 76, 64
3, 20397, Note_on_c, 0, 76, 0
3, 20400, Note_on_c, 0, 76, 64
3, 20412, Note_on_c, 0, 76, 0
3, 20412, Note_on_c, 0, 74, 64
3, 20424, Note_on_c, 0, 74, 0
3, 20424, Note_on_c, 0, 73, 64
3, 20447, Note_on_c, 0, 73, 0
3, 20448, Note_on_c, 0, 74, 64
3, 20493, Note_on_c, 0, 74, 0
3, 20496, Note_on_c, 0, 78, 64
3, 20508, Note_on_c, 0, 78, 0
3, 20508, Note_on_c, 0, 76, 64
3, 20520, Note_on_c, 0, 76, 0
3, 20520, Note_on_c, 0, 74, 64
3, 20543, Note_on_c, 0, 74, 0
3, 20544, Note_on_c, 0, 76, 64
3, 20589, Note_on_c, 0, 76, 0
3, 20592, Note_on_c, 0, 76, 64
3, 20604, Note_on_c, 0, 76, 0
3, 20604, Note_on_c, 0, 74, 64
3, 20616, Note_on_c, 0, 74, 0
3, 20616, Note_on_c, 0, 73, 64
3, 20639, Note_on_c, 0, 73, 0
3, 20640, Note_on_c, 0, 74, 64
3, 20685, Note_on_c, 0, 74, 0
3, 20688, Note_on_c, 0, 74, 64
3, 20700, Note_on_c, 0, 74, 0
3, 20700, Note_on_c, 0, 73, 64
3, 20712, Note_on_c, 0, 73, 0
3, 20712, Note_on_c, 0, 71, 64
3, 20735, Note_on_c, 0, 71, 0
3, 20736, Note_on_c, 0, 73, 64
3, 20759, Note_on_c, 0, 73, 0
3, 20760, Note_on_c, 0, 70, 64
3, 20783, Note_on_c, 0, 70, 0
3, 20784, Note_on_c, 0, 66, 64
3, 20807, Note_on_c, 0, 66, 0
3, 20808, Note_on_c, 0, 68, 64
3, 20831, Note_on_c, 0, 68, 0
3, 20832, Note_on_c, 0, 70, 64
3, 20855, Note_on_c, 0, 70, 0
3, 20856, Note_on_c, 0, 71, 64
3, 20879, Note_on_c, 0, 71, 0
3, 20880, Note_on_c, 0, 73, 64
3, 20903, Note_on_c, 0, 73, 0
3, 20904, Note_on_c, 0, 74, 64
3, 20927, Note_on_c, 0, 74, 0
3, 20928, Note_on_c, 0, 76, 64
3, 20951, Note_on_c, 0, 76, 0
3, 20952, Note_on_c, 0, 74, 64
3, 20975, Note_on_c, 0, 74, 0
3, 20976, Note_on_c, 0, 76, 64
3, 20999, Note_on_c, 0, 76, 0
3, 21000, Note_on_c, 0, 73, 64
3, 21023, Note_on_c, 0, 73, 0
3, 21024, Note_on_c, 0, 74, 64
3, 21047, Note_on_c, 0, 74, 0
3, 21048, Note_on_c, 0, 73, 64
3, 21071, Note_on_c, 0, 73, 0
3, 21072, Note_on_c, 0, 71, 64
3, 21095, Note_on_c, 0, 71, 0
3, 21096, Note_on_c, 0, 73, 64
3, 21119, Note_on_c, 0, 73, 0
3, 21120, Note_on_c, 0, 74, 64
3, 21143, Note_on_c, 0, 74, 0
3, 21144, Note_on_c, 0, 78, 64
3, 21167, Note_on_c, 0, 78, 0
3, 21168, Note_on_c, 0, 83, 64
3, 21191, Note_on_c, 0, 83, 0
3, 21192, Note_on_c, 0, 78, 64
3, 21215, Note_on_c, 0, 78, 0
3, 21216, Note_on_c, 0, 76, 64
3, 21239, Note_on_c, 0, 76, 0
3, 21240, Note_on_c, 0, 74, 64
3, 21263, Note_on_c, 0, 74, 0
3, 21264, Note_on_c, 0, 73, 64
3, 21287, Note_on_c, 0, 73, 0
3, 21288, Note_on_c, 0, 71, 64
3, 21311, Note_on_c, 0, 71, 0
3, 21312, Note_on_c, 0, 70, 64
3, 21335, Note_on_c, 0, 70, 0
3, 21336, Note_on_c, 0, 68, 64
3, 21359, Note_on_c, 0, 68, 0
3, 21360, Note_on_c, 0, 66, 64
3, 21383, Note_on_c, 0, 66, 0
3, 21384, Note_on_c, 0, 68, 64
3, 21407, Note_on_c, 0, 68, 0
3, 21408, Note_on_c, 0, 70, 64
3, 21431, Note_on_c, 0, 70, 0
3, 21432, Note_on_c, 0, 71, 64
3, 21455, Note_on_c, 0, 71, 0
3, 21456, Note_on_c, 0, 73, 64
3, 21479, Note_on_c, 0, 73, 0
3, 21480, Note_on_c, 0, 74, 64
3, 21503, Note_on_c, 0, 74, 0
3, 21504, Note_on_c, 0, 76, 64
3, 21527, Note_on_c, 0, 76, 0
3, 21528, Note_on_c, 0, 74, 64
3, 21551, Note_on_c, 0, 74, 0
3, 21552, Note_on_c, 0, 76, 64
3, 21575, Note_on_c, 0, 76, 0
3, 21576, Note_on_c, 0, 73, 64
3, 21599, Note_on_c, 0, 73, 0
3, 21600, Note_on_c, 0, 74, 64
3, 21623, Note_on_c, 0, 74, 0
3, 21624, Note_on_c, 0, 73, 64
3, 21647, Note_on_c, 0, 73, 0
3, 21648, Note_on_c, 0, 71, 64
3, 21671, Note_on_c, 0, 71, 0
3, 21672, Note_on_c, 0, 79, 64
3, 21695, Note_on_c, 0, 79, 0
3, 21696, Note_on_c, 0, 76, 64
3, 21719, Note_on_c, 0, 76, 0
3, 21720, Note_on_c, 0, 73, 64
3, 21743, Note_on_c, 0, 73, 0
3, 21744, Note_on_c, 0, 70, 64
3, 21767, Note_on_c, 0, 70, 0
3, 21768, Note_on_c, 0, 78, 64
3, 21791, Note_on_c, 0, 78, 0
3, 21792, Note_on_c, 0, 74, 64
3, 21815, Note_on_c, 0, 74, 0
3, 21816, Note_on_c, 0, 71, 64
3, 21839, Note_on_c, 0, 71, 0
3, 21840, Note_on_c, 0, 68, 64
3, 21863, Note_on_c, 0, 68, 0
3, 21864, Note_on_c, 0, 76, 64
3, 21887, Note_on_c, 0, 76, 0
3, 21888, Note_on_c, 0, 73, 64
3, 21911, Note_on_c, 0, 73, 0
3, 21912, Note_on_c, 0, 79, 64
3, 21935, Note_on_c, 0, 79, 0
3, 21936, Note_on_c, 0, 78, 64
3, 21959, Note_on_c, 0, 78, 0
3, 21960, Note_on_c, 0, 76, 64
3, 21983, Note_on_c, 0, 76, 0
3, 21984, Note_on_c, 0, 85, 64
3, 22007, Note_on_c, 0, 85, 0
3, 22008, Note_on_c, 0, 83, 64
3, 22031, Note_on_c, 0, 83, 0
3, 22032, Note_on_c, 0, 82, 64
3, 22055, Note_on_c, 0, 82, 0
3, 22056, Note_on_c, 0, 80, 64
3, 22079, Note_on_c, 0, 80, 0
3, 22080, Note_on_c, 0, 78, 64
3, 22103, Note_on_c, 0, 78, 0
3, 22104, Note_on_c, 0, 76, 64
3, 22127, Note_on_c, 0, 76, 0
3, 22128, Note_on_c, 0, 74, 64
3, 22151, Note_on_c, 0, 74, 0
3, 22152, Note_on_c, 0, 73, 64
3, 22175, Note_on_c, 0, 73, 0
3, 22176, Note_on_c, 0, 71, 64
3, 22199, Note_on_c, 0, 71, 0
3, 22200, Note_on_c, 0, 70, 64
3, 22223, Note_on_c, 0, 70, 0
3, 22224, Note_on_c, 0, 71, 64
3, 22247, Note_on_c, 0, 71, 0
3, 22248, Note_on_c, 0, 76, 64
3, 22271, Note_on_c, 0, 76, 0
3, 22272, Note_on_c, 0, 70, 64
3, 22405, Note_on_c, 0, 70, 0
3, 22416, Note_on_c, 0, 71, 64
3, 22461, Note_on_c, 0, 71, 0
3, 22464, Note_on_c, 0, 71, 64
3, 22509, Note_on_c, 0, 71, 0
3, 22512, Note_on_c, 0, 78, 64
3, 22557, Note_on_c, 0, 78, 0
3, 22560, Note_on_c, 0, 74, 64
3, 22605, Note_on_c, 0, 74, 0
3, 22608, Note_on_c, 0, 71, 64
3, 22653, Note_on_c, 0, 71, 0
3, 22656, Note_on_c, 0, 83, 64
3, 22745, Note_on_c, 0, 83, 0
3, 22800, Note_on_c, 0, 64, 64
3, 22823, Note_on_c, 0, 64, 0
3, 22824, Note_on_c, 0, 66, 64
3, 22847, Note_on_c, 0, 66, 0
3, 22848, Note_on_c, 0, 67, 64
3, 22871, Note_on_c, 0, 67, 0
3, 22872, Note_on_c, 0, 72, 64
3, 22895, Note_on_c, 0, 72, 0
3, 22896, Note_on_c, 0, 76, 64
3, 22919, Note_on_c, 0, 76, 0
3, 22920, Note_on_c, 0, 72, 64
3, 22943, Note_on_c, 0, 72, 0
3, 22944, Note_on_c, 0, 67, 64
3, 22967, Note_on_c, 0, 67, 0
3, 22968, Note_on_c, 0, 72, 64
3, 22991, Note_on_c, 0, 72, 0
3, 22992, Note_on_c, 0, 66, 64
3, 23015, Note_on_c, 0, 66, 0
3, 23016, Note_on_c, 0, 72, 64
3, 23039, Note_on_c, 0, 72, 0
3, 23040, Note_on_c, 0, 67, 64
3, 23063, Note_on_c, 0, 67, 0
3, 23064, Note_on_c, 0, 66, 64
3, 23087, Note_on_c, 0, 66, 0
3, 23088, Note_on_c, 0, 64, 64
3, 23111, Note_on_c, 0, 64, 0
3, 23112, Note_on_c, 0, 66, 64
3, 23135, Note_on_c, 0, 66, 0
3, 23136, Note_on_c, 0, 67, 64
3, 23159, Note_on_c, 0, 67, 0
3, 23160, Note_on_c, 0, 72, 64
3, 23183, Note_on_c, 0, 72, 0
3, 23184, Note_on_c, 0, 76, 64
3, 23207, Note_on_c, 0, 76, 0
3, 23208, Note_on_c, 0, 72, 64
3, 23231, Note_on_c, 0, 72, 0
3, 23232, Note_on_c, 0, 71, 64
3, 23255, Note_on_c, 0, 71, 0
3, 23256, Note_on_c, 0, 69, 64
3, 23279, Note_on_c, 0, 69, 0
3, 23280, Note_on_c, 0, 67, 64
3, 23303, Note_on_c, 0, 67, 0
3, 23304, Note_on_c, 0, 66, 64
3, 23327, Note_on_c, 0, 66, 0
3, 23328, Note_on_c, 0, 64, 64
3, 23351, Note_on_c, 0, 64, 0
3, 23352, Note_on_c, 0, 62, 64
3, 23375, Note_on_c, 0, 62, 0
3, 23376, Note_on_c, 0, 61, 64
3, 23399, Note_on_c, 0, 61, 0
3, 23400, Note_on_c, 0, 62, 64
3, 23423, Note_on_c, 0, 62, 0
3, 23424, Note_on_c, 0, 64, 64
3, 23447, Note_on_c, 0, 64, 0
3, 23448, Note_on_c, 0, 66, 64
3, 23471, Note_on_c, 0, 66, 0
3, 23472, Note_on_c, 0, 68, 64
3, 23495, Note_on_c, 0, 68, 0
3, 23496, Note_on_c, 0, 70, 64
3, 23519, Note_on_c, 0, 70, 0
3, 23520, Note_on_c, 0, 71, 64
3, 23543, Note_on_c, 0, 71, 0
3, 23544, Note_on_c, 0, 73, 64
3, 23567, Note_on_c, 0, 73, 0
3, 23568, Note_on_c, 0, 74, 64
3, 23591, Note_on_c, 0, 74, 0
3, 23592, Note_on_c, 0, 76, 64
3, 23615, Note_on_c, 0, 76, 0
3, 23616, Note_on_c, 0, 78, 64
3, 23639, Note_on_c, 0, 78, 0
3, 23640, Note_on_c, 0, 76, 64
3, 23663, Note_on_c, 0, 76, 0
3, 23664, Note_on_c, 0, 78, 64
3, 23687, Note_on_c, 0, 78, 0
3, 23688, Note_on_c, 0, 79, 64
3, 23711, Note_on_c, 0, 79, 0
3, 23712, Note_on_c, 0, 73, 64
3, 23845, Note_on_c, 0, 73, 0
3, 23856, Note_on_c, 0, 71, 64
3, 23901, Note_on_c, 0, 71, 0
3, 23904, Note_on_c, 0, 71, 64
3, 24169, Note_on_c, 0, 71, 0
3, 24192, Note_on_c, 0, 81, 64
3, 24215, Note_on_c, 0, 81, 0
3, 24216, Note_on_c, 0, 79, 64
3, 24239, Note_on_c, 0, 79, 0
3, 24240, Note_on_c, 0, 78, 64
3, 24263, Note_on_c, 0, 78, 0
3, 24264, Note_on_c, 0, 79, 64
3, 24287, Note_on_c, 0, 79, 0
3, 24288, Note_on_c, 0, 81, 64
3, 24311, Note_on_c, 0, 81, 0
3, 24312, Note_on_c, 0, 83, 64
3, 24335, Note_on_c, 0, 83, 0
3, 24336, Note_on_c, 0, 84, 64
3, 24359, Note_on_c, 0, 84, 0
3, 24360, Note_on_c, 0, 83, 64
3, 24383, Note_on_c, 0, 83, 0
3, 24384, Note_on_c, 0, 81, 64
3, 24407, Note_on_c, 0, 81, 0
3, 24408, Note_on_c, 0, 84, 64
3, 24431, Note_on_c, 0, 84, 0
3, 24432, Note_on_c, 0, 79, 64
3, 24455, Note_on_c, 0, 79, 0
3, 24456, Note_on_c, 0, 84, 64
3, 24479, Note_on_c, 0, 84, 0
3, 24480, Note_on_c, 0, 78, 64
3, 24503, Note_on_c, 0, 78, 0
3, 24504, Note_on_c, 0, 76, 64
3, 24527, Note_on_c, 0, 76, 0
3, 24528, Note_on_c, 0, 75, 64
3, 24551, Note_on_c, 0, 75, 0
3, 24552, Note_on_c, 0, 76, 64
3, 24575, Note_on_c, 0, 76, 0
3, 24576, Note_on_c, 0, 78, 64
3, 24599, Note_on_c, 0, 78, 0
3, 24600, Note_on_c, 0, 79, 64
3, 24623, Note_on_c, 0, 79, 0
3, 24624, Note_on_c, 0, 81, 64
3, 24647, Note_on_c, 0, 81, 0
3, 24648, Note_on_c, 0, 79, 64
3, 24671, Note_on_c, 0, 79, 0
3, 24672, Note_on_c, 0, 78, 64
3, 24695, Note_on_c, 0, 78, 0
3, 24696, Note_on_c, 0, 81, 64
3, 24719, Note_on_c, 0, 81, 0
3, 24720, Note_on_c, 0, 76, 64
3, 24743, Note_on_c, 0, 76, 0
3, 24744, Note_on_c, 0, 81, 64
3, 24767, Note_on_c, 0, 81, 0
3, 24768, Note_on_c, 0, 75, 64
3, 24791, Note_on_c, 0, 75, 0
3, 24792, Note_on_c, 0, 76, 64
3, 24815, Note_on_c, 0, 76, 0
3, 24816, Note_on_c, 0, 78, 64
3, 24839, Note_on_c, 0, 78, 0
3, 24840, Note_on_c, 0, 76, 64
3, 24863, Note_on_c, 0, 76, 0
3, 24864, Note_on_c, 0, 75, 64
3, 24887, Note_on_c, 0, 75, 0
3, 24888, Note_on_c, 0, 73, 64
3, 24911, Note_on_c, 0, 73, 0
3, 24912, Note_on_c, 0, 71, 64
3, 24935, Note_on_c, 0, 71, 0
3, 24936, Note_on_c, 0, 69, 64
3, 24959, Note_on_c, 0, 69, 0
3, 24960, Note_on_c, 0, 67, 64
3, 24983, Note_on_c, 0, 67, 0
3, 24984, Note_on_c, 0, 66, 64
3, 25007, Note_on_c, 0, 66, 0
3, 25008, Note_on_c, 0, 64, 64
3, 25031, Note_on_c, 0, 64, 0
3, 25032, Note_on_c, 0, 63, 64
3, 25055, Note_on_c, 0, 63, 0
3, 25056, Note_on_c, 0, 62, 64
3, 25101, Note_on_c, 0, 62, 0
3, 25104, Note_on_c, 0, 79, 64
3, 25149, Note_on_c, 0, 79, 0
3, 25152, Note_on_c, 0, 79, 64
3, 25197, Note_on_c, 0, 79, 0
3, 25200, Note_on_c, 0, 79, 64
3, 25245, Note_on_c, 0, 79, 0
3, 25248, Note_on_c, 0, 79, 64
3, 25293, Note_on_c, 0, 79, 0
3, 25296, Note_on_c, 0, 79, 64
3, 25341, Note_on_c, 0, 79, 0
3, 25344, Note_on_c, 0, 79, 64
3, 25389, Note_on_c, 0, 79, 0
3, 25392, Note_on_c, 0, 83, 64
3, 25415, Note_on_c, 0, 83, 0
3, 25416, Note_on_c, 0, 81, 64
3, 25439, Note_on_c, 0, 81, 0
3, 25440, Note_on_c, 0, 79, 64
3, 25485, Note_on_c, 0, 79, 0
3, 25488, Note_on_c, 0, 79, 64
3, 25533, Note_on_c, 0, 79, 0
3, 25536, Note_on_c, 0, 79, 64
3, 25581, Note_on_c, 0, 79, 0
3, 25584, Note_on_c, 0, 79, 64
3, 25629, Note_on_c, 0, 79, 0
3, 25632, Note_on_c, 0, 79, 64
3, 25677, Note_on_c, 0, 79, 0
3, 25680, Note_on_c, 0, 76, 64
3, 25703, Note_on_c, 0, 76, 0
3, 25704, Note_on_c, 0, 78, 64
3, 25727, Note_on_c, 0, 78, 0
3, 25728, Note_on_c, 0, 79, 64
3, 25773, Note_on_c, 0, 79, 0
3, 25776, Note_on_c, 0, 78, 64
3, 25799, Note_on_c, 0, 78, 0
3, 25800, Note_on_c, 0, 79, 64
3, 25823, Note_on_c, 0, 79, 0
3, 25824, Note_on_c, 0, 81, 64
3, 25869, Note_on_c, 0, 81, 0
3, 25872, Note_on_c, 0, 76, 64
3, 25917, Note_on_c, 0, 76, 0
3, 25920, Note_on_c, 0, 78, 64
3, 25943, Note_on_c, 0, 78, 0
3, 25944, Note_on_c, 0, 76, 64
3, 25967, Note_on_c, 0, 76, 0
3, 25968, Note_on_c, 0, 74, 64
3, 25991, Note_on_c, 0, 74, 0
3, 25992, Note_on_c, 0, 76, 64
3, 26015, Note_on_c, 0, 76, 0
3, 26016, Note_on_c, 0, 78, 64
3, 26039, Note_on_c, 0, 78, 0
3, 26040, Note_on_c, 0, 79, 64
3, 26063, Note_on_c, 0, 79, 0
3, 26064, Note_on_c, 0, 81, 64
3, 26087, Note_on_c, 0, 81, 0
3, 26088, Note_on_c, 0, 79, 64
3, 26111, Note_on_c, 0, 79, 0
3, 26112, Note_on_c, 0, 78, 64
3, 26135, Note_on_c, 0, 78, 0
3, 26136, Note_on_c, 0, 81, 64
3, 26159, Note_on_c, 0, 81, 0
3, 26160, Note_on_c, 0, 76, 64
3, 26183, Note_on_c, 0, 76, 0
3, 26184, Note_on_c, 0, 81, 64
3, 26207, Note_on_c, 0, 81, 0
3, 26208, Note_on_c, 0, 74, 64
3, 26231, Note_on_c, 0, 74, 0
3, 26232, Note_on_c, 0, 73, 64
3, 26255, Note_on_c, 0, 73, 0
3, 26256, Note_on_c, 0, 71, 64
3, 26279, Note_on_c, 0, 71, 0
3, 26280, Note_on_c, 0, 73, 64
3, 26303, Note_on_c, 0, 73, 0
3, 26304, Note_on_c, 0, 74, 64
3, 26327, Note_on_c, 0, 74, 0
3, 26328, Note_on_c, 0, 76, 64
3, 26351, Note_on_c, 0, 76, 0
3, 26352, Note_on_c, 0, 78, 64
3, 26375, Note_on_c, 0, 78, 0
3, 26376, Note_on_c, 0, 76, 64
3, 26399, Note_on_c, 0, 76, 0
3, 26400, Note_on_c, 0, 74, 64
3, 26423, Note_on_c, 0, 74, 0
3, 26424, Note_on_c, 0, 78, 64
3, 26447, Note_on_c, 0, 78, 0
3, 26448, Note_on_c, 0, 73, 64
3, 26471, Note_on_c, 0, 73, 0
3, 26472, Note_on_c, 0, 78, 64
3, 26495, Note_on_c, 0, 78, 0
3, 26496, Note_on_c, 0, 71, 64
3, 26519, Note_on_c, 0, 71, 0
3, 26520, Note_on_c, 0, 73, 64
3, 26543, Note_on_c, 0, 73, 0
3, 26544, Note_on_c, 0, 74, 64
3, 26567, Note_on_c, 0, 74, 0
3, 26568, Note_on_c, 0, 73, 64
3, 26591, Note_on_c, 0, 73, 0
3, 26592, Note_on_c, 0, 71, 64
3, 26615, Note_on_c, 0, 71, 0
3, 26616, Note_on_c, 0, 69, 64
3, 26639, Note_on_c, 0, 69, 0
3, 26640, Note_on_c, 0, 68, 64
3, 26663, Note_on_c, 0, 68, 0
3, 26664, Note_on_c, 0, 66, 64
3, 26687, Note_on_c, 0, 66, 0
3, 26688, Note_on_c, 0, 64, 64
3, 26711, Note_on_c, 0, 64, 0
3, 26712, Note_on_c, 0, 62, 64
3, 26735, Note_on_c, 0, 62, 0
3, 26736, Note_on_c, 0, 61, 64
3, 26759, Note_on_c, 0, 61, 0
3, 26760, Note_on_c, 0, 59, 64
3, 26783, Note_on_c, 0, 59, 0
3, 26784, Note_on_c, 0, 61, 64
3, 26807, Note_on_c, 0, 61, 0
3, 26808, Note_on_c, 0, 64, 64
3, 26831, Note_on_c, 0, 64, 0
3, 26832, Note_on_c, 0, 69, 64
3, 26855, Note_on_c, 0, 69, 0
3, 26856, Note_on_c, 0, 68, 64
3, 26879, Note_on_c, 0, 68, 0
3, 26880, Note_on_c, 0, 69, 64
3, 26903, Note_on_c, 0, 69, 0
3, 26904, Note_on_c, 0, 73, 64
3, 26927, Note_on_c, 0, 73, 0
3, 26928, Note_on_c, 0, 76, 64
3, 26951, Note_on_c, 0, 76, 0
3, 26952, Note_on_c, 0, 73, 64
3, 26975, Note_on_c, 0, 73, 0
3, 26976, Note_on_c, 0, 69, 64
3, 26999, Note_on_c, 0, 69, 0
3, 27000, Note_on_c, 0, 73, 64
3, 27023, Note_on_c, 0, 73, 0
3, 27024, Note_on_c, 0, 68, 64
3, 27047, Note_on_c, 0, 68, 0
3, 27048, Note_on_c, 0, 71, 64
3, 27071, Note_on_c, 0, 71, 0
3, 27072, Note_on_c, 0, 69, 64
3, 27095, Note_on_c, 0, 69, 0
3, 27096, Note_on_c, 0, 71, 64
3, 27119, Note_on_c, 0, 71, 0
3, 27120, Note_on_c, 0, 73, 64
3, 27143, Note_on_c, 0, 73, 0
3, 27144, Note_on_c, 0, 74, 64
3, 27167, Note_on_c, 0, 74, 0
3, 27168, Note_on_c, 0, 76, 64
3, 27191, Note_on_c, 0, 76, 0
3, 27192, Note_on_c, 0, 81, 64
3, 27215, Note_on_c, 0, 81, 0
3, 27216, Note_on_c, 0, 85, 64
3, 27239, Note_on_c, 0, 85, 0
3, 27240, Note_on_c, 0, 81, 64
3, 27263, Note_on_c, 0, 81, 0
3, 27264, Note_on_c, 0, 83, 64
3, 27287, Note_on_c, 0, 83, 0
3, 27288, Note_on_c, 0, 81, 64
3, 27311, Note_on_c, 0, 81, 0
3, 27312, Note_on_c, 0, 80, 64
3, 27335, Note_on_c, 0, 80, 0
3, 27336, Note_on_c, 0, 81, 64
3, 27359, Note_on_c, 0, 81, 0
3, 27360, Note_on_c, 0, 83, 64
3, 27383, Note_on_c, 0, 83, 0
3, 27384, Note_on_c, 0, 81, 64
3, 27407, Note_on_c, 0, 81, 0
3, 27408, Note_on_c, 0, 80, 64
3, 27431, Note_on_c, 0, 80, 0
3, 27432, Note_on_c, 0, 78, 64
3, 27455, Note_on_c, 0, 78, 0
3, 27456, Note_on_c, 0, 76, 64
3, 27479, Note_on_c, 0, 76, 0
3, 27480, Note_on_c, 0, 78, 64
3, 27503, Note_on_c, 0, 78, 0
3, 27504, Note_on_c, 0, 80, 64
3, 27527, Note_on_c, 0, 80, 0
3, 27528, Note_on_c, 0, 81, 64
3, 27551, Note_on_c, 0, 81, 0
3, 27552, Note_on_c, 0, 83, 64
3, 27575, Note_on_c, 0, 83, 0
3, 27576, Note_on_c, 0, 81, 64
3, 27599, Note_on_c, 0, 81, 0
3, 27600, Note_on_c, 0, 83, 64
3, 27623, Note_on_c, 0, 83, 0
3, 27624, Note_on_c, 0, 80, 64
3, 27647, Note_on_c, 0, 80, 0
3, 27648, Note_on_c, 0, 81, 64
3, 27693, Note_on_c, 0, 81, 0
3, 27696, Note_on_c, 0, 69, 64
3, 27741, Note_on_c, 0, 69, 0
3, 27984, Note_on_c, 0, 71, 64
3, 28029, Note_on_c, 0, 71, 0
3, 28032, Note_on_c, 0, 71, 64
3, 28077, Note_on_c, 0, 71, 0
3, 28080, Note_on_c, 0, 71, 64
3, 28125, Note_on_c, 0, 71, 0
3, 28128, Note_on_c, 0, 71, 64
3, 28173, Note_on_c, 0, 71, 0
3, 28176, Note_on_c, 0, 71, 64
3, 28221, Note_on_c, 0, 71, 0
3, 28224, Note_on_c, 0, 71, 64
3, 28269, Note_on_c, 0, 71, 0
3, 28272, Note_on_c, 0, 76, 64
3, 28295, Note_on_c, 0, 76, 0
3, 28296, Note_on_c, 0, 75, 64
3, 28319, Note_on_c, 0, 75, 0
3, 28320, Note_on_c, 0, 76, 64
3, 28365, Note_on_c, 0, 76, 0
3, 28368, Note_on_c, 0, 71, 64
3, 28413, Note_on_c, 0, 71, 0
3, 28416, Note_on_c, 0, 71, 64
3, 28461, Note_on_c, 0, 71, 0
3, 28464, Note_on_c, 0, 71, 64
3, 28509, Note_on_c, 0, 71, 0
3, 28512, Note_on_c, 0, 71, 64
3, 28557, Note_on_c, 0, 71, 0
3, 28560, Note_on_c, 0, 78, 64
3, 28583, Note_on_c, 0, 78, 0
3, 28584, Note_on_c, 0, 76, 64
3, 28607, Note_on_c, 0, 76, 0
3, 28608, Note_on_c, 0, 78, 64
3, 28653, Note_on_c, 0, 78, 0
3, 28656, Note_on_c, 0, 71, 64
3, 28701, Note_on_c, 0, 71, 0
3, 28704, Note_on_c, 0, 71, 64
3, 28749, Note_on_c, 0, 71, 0
3, 28752, Note_on_c, 0, 71, 64
3, 28797, Note_on_c, 0, 71, 0
3, 28800, Note_on_c, 0, 71, 64
3, 28845, Note_on_c, 0, 71, 0
3, 28848, Note_on_c, 0, 79, 64
3, 28860, Note_on_c, 0, 79, 0
3, 28860, Note_on_c, 0, 78, 64
3, 28872, Note_on_c, 0, 78, 0
3, 28872, Note_on_c, 0, 76, 64
3, 28895, Note_on_c, 0, 76, 0
3, 28896, Note_on_c, 0, 78, 64
3, 28941, Note_on_c, 0, 78, 0
3, 28944, Note_on_c, 0, 78, 64
3, 28956, Note_on_c, 0, 78, 0
3, 28956, Note_on_c, 0, 76, 64
3, 28968, Note_on_c, 0, 76, 0
3, 28968, Note_on_c, 0, 75, 64
3, 28991, Note_on_c, 0, 75, 0
3, 28992, Note_on_c, 0, 76, 64
3, 29037, Note_on_c, 0, 76, 0
3, 29040, Note_on_c, 0, 76, 64
3, 29052, Note_on_c, 0, 76, 0
3, 29052, Note_on_c, 0, 75, 64
3, 29064, Note_on_c, 0, 75, 0
3, 29064, Note_on_c, 0, 73, 64
3, 29087, Note_on_c, 0, 73, 0
3, 29088, Note_on_c, 0, 75, 64
3, 29133, Note_on_c, 0, 75, 0
3, 29136, Note_on_c, 0, 81, 64
3, 29159, Note_on_c, 0, 81, 0
3, 29160, Note_on_c, 0, 83, 64
3, 29183, Note_on_c, 0, 83, 0
3, 29184, Note_on_c, 0, 84, 64
3, 29207, Note_on_c, 0, 84, 0
3, 29208, Note_on_c, 0, 83, 64
3, 29231, Note_on_c, 0, 83, 0
3, 29232, Note_on_c, 0, 81, 64
3, 29255, Note_on_c, 0, 81, 0
3, 29256, Note_on_c, 0, 79, 64
3, 29279, Note_on_c, 0, 79, 0
3, 29280, Note_on_c, 0, 78, 64
3, 29325, Note_on_c, 0, 78, 0
3, 29328, Note_on_c, 0, 76, 64
3, 29373, Note_on_c, 0, 76, 0
3, 29376, Note_on_c, 0, 75, 64
3, 29421, Note_on_c, 0, 75, 0
3, 29424, Note_on_c, 0, 78, 64
3, 29447, Note_on_c, 0, 78, 0
3, 29448, Note_on_c, 0, 79, 64
3, 29471, Note_on_c, 0, 79, 0
3, 29472, Note_on_c, 0, 81, 64
3, 29495, Note_on_c, 0, 81, 0
3, 29496, Note_on_c, 0, 79, 64
3, 29519, Note_on_c, 0, 79, 0
3, 29520, Note_on_c, 0, 78, 64
3, 29543, Note_on_c, 0, 78, 0
3, 29544, Note_on_c, 0, 76, 64
3, 29567, Note_on_c, 0, 76, 0
3, 29568, Note_on_c, 0, 75, 64
3, 29613, Note_on_c, 0, 75, 0
3, 29616, Note_on_c, 0, 73, 64
3, 29661, Note_on_c, 0, 73, 0
3, 29664, Note_on_c, 0, 71, 64
3, 29709, Note_on_c, 0, 71, 0
3, 29712, Note_on_c, 0, 81, 64
3, 29757, Note_on_c, 0, 81, 0
3, 29760, Note_on_c, 0, 78, 64
3, 29805, Note_on_c, 0, 78, 0
3, 29808, Note_on_c, 0, 75, 64
3, 29853, Note_on_c, 0, 75, 0
3, 29856, Note_on_c, 0, 71, 64
3, 29901, Note_on_c, 0, 71, 0
3, 29904, Note_on_c, 0, 78, 64
3, 29949, Note_on_c, 0, 78, 0
3, 29952, Note_on_c, 0, 83, 64
3, 29975, Note_on_c, 0, 83, 0
3, 29976, Note_on_c, 0, 81, 64
3, 29999, Note_on_c, 0, 81, 0
3, 30000, Note_on_c, 0, 79, 64
3, 30023, Note_on_c, 0, 79, 0
3, 30024, Note_on_c, 0, 81, 64
3, 30047, Note_on_c, 0, 81, 0
3, 30048, Note_on_c, 0, 83, 64
3, 30071, Note_on_c, 0, 83, 0
3, 30072, Note_on_c, 0, 81, 64
3, 30095, Note_on_c, 0, 81, 0
3, 30096, Note_on_c, 0, 79, 64
3, 30119, Note_on_c, 0, 79, 0
3, 30120, Note_on_c, 0, 78, 64
3, 30143, Note_on_c, 0, 78, 0
3, 30144, Note_on_c, 0, 76, 64
3, 30189, Note_on_c, 0, 76, 0
3, 30192, Note_on_c, 0, 74, 64
3, 30237, Note_on_c, 0, 74, 0
3, 30240, Note_on_c, 0, 73, 64
3, 30285, Note_on_c, 0, 73, 0
3, 30288, Note_on_c, 0, 76, 64
3, 30311, Note_on_c, 0, 76, 0
3, 30312, Note_on_c, 0, 78, 64
3, 30335, Note_on_c, 0, 78, 0
3, 30336, Note_on_c, 0, 79, 64
3, 30359, Note_on_c, 0, 79, 0
3, 30360, Note_on_c, 0, 78, 64
3, 30383, Note_on_c, 0, 78, 0
3, 30384, Note_on_c, 0, 76, 64
3, 30407, Note_on_c, 0, 76, 0
3, 30408, Note_on_c, 0, 74, 64
3, 30431, Note_on_c, 0, 74, 0
3, 30432, Note_on_c, 0, 73, 64
3, 30477, Note_on_c, 0, 73, 0
3, 30480, Note_on_c, 0, 71, 64
3, 30525, Note_on_c, 0, 71, 0
3, 30528, Note_on_c, 0, 73, 64
3, 30573, Note_on_c, 0, 73, 0
3, 30576, Note_on_c, 0, 79, 64
3, 30621, Note_on_c, 0, 79, 0
3, 30624, Note_on_c, 0, 76, 64
3, 30669, Note_on_c, 0, 76, 0
3, 30672, Note_on_c, 0, 73, 64
3, 30717, Note_on_c, 0, 73, 0
3, 30720, Note_on_c, 0, 69, 64
3, 30765, Note_on_c, 0, 69, 0
3, 30768, Note_on_c, 0, 79, 64
3, 30813, Note_on_c, 0, 79, 0
3, 30816, Note_on_c, 0, 78, 64
3, 30861, Note_on_c, 0, 78, 0
3, 30864, Note_on_c, 0, 81, 64
3, 30876, Note_on_c, 0, 81, 0
3, 30876, Note_on_c, 0, 79, 64
3, 30888, Note_on_c, 0, 79, 0
3, 30888, Note_on_c, 0, 78, 64
3, 30911, Note_on_c, 0, 78, 0
3, 30912, Note_on_c, 0, 79, 64
3, 30957, Note_on_c, 0, 79, 0
3, 30960, Note_on_c, 0, 79, 64
3, 30972, Note_on_c, 0, 79, 0
3, 30972, Note_on_c, 0, 78, 64
3, 30984, Note_on_c, 0, 78, 0
3, 30984, Note_on_c, 0, 76, 64
3, 31007, Note_on_c, 0, 76, 0
3, 31008, Note_on_c, 0, 78, 64
3, 31053, Note_on_c, 0, 78, 0
3, 31056, Note_on_c, 0, 78, 64
3, 31068, Note_on_c, 0, 78, 0
3, 31068, Note_on_c, 0, 76, 64
3, 31080, Note_on_c, 0, 76, 0
3, 31080, Note_on_c, 0, 74, 64
3, 31103, Note_on_c, 0, 74, 0
3, 31104, Note_on_c, 0, 76, 64
3, 31149, Note_on_c, 0, 76, 0
3, 31152, Note_on_c, 0, 79, 64
3, 31164, Note_on_c, 0, 79, 0
3, 31164, Note_on_c, 0, 78, 64
3, 31176, Note_on_c, 0, 78, 0
3, 31176, Note_on_c, 0, 76, 64
3, 31199, Note_on_c, 0, 76, 0
3, 31200, Note_on_c, 0, 78, 64
3, 31245, Note_on_c, 0, 78, 0
3, 31248, Note_on_c, 0, 78, 64
3, 31260, Note_on_c, 0, 78, 0
3, 31260, Note_on_c, 0, 76, 64
3, 31272, Note_on_c, 0, 76, 0
3, 31272, Note_on_c, 0, 74, 64
3, 31295, Note_on_c, 0, 74, 0
3, 31296, Note_on_c, 0, 76, 64
3, 31341, Note_on_c, 0, 76, 0
3, 31344, Note_on_c, 0, 76, 64
3, 31356, Note_on_c, 0, 76, 0
3, 31356, Note_on_c, 0, 74, 64
3, 31368, Note_on_c, 0, 74, 0
3, 31368, Note_on_c, 0, 73, 64
3, 31391, Note_on_c, 0, 73, 0
3, 31392, Note_on_c, 0, 74, 64
3, 31437, Note_on_c, 0, 74, 0
3, 31440, Note_on_c, 0, 78, 64
3, 31452, Note_on_c, 0, 78, 0
3, 31452, Note_on_c, 0, 76, 64
3, 31464, Note_on_c, 0, 76, 0
3, 31464, Note_on_c, 0, 74, 64
3, 31487, Note_on_c, 0, 74, 0
3, 31488, Note_on_c, 0, 76, 64
3, 31533, Note_on_c, 0, 76, 0
3, 31536, Note_on_c, 0, 76, 64
3, 31548, Note_on_c, 0, 76, 0
3, 31548, Note_on_c, 0, 74, 64
3, 31560, Note_on_c, 0, 74, 0
3, 31560, Note_on_c, 0, 73, 64
3, 31583, Note_on_c, 0, 73, 0
3, 31584, Note_on_c, 0, 74, 64
3, 31629, Note_on_c, 0, 74, 0
3, 31632, Note_on_c, 0, 74, 64
3, 31644, Note_on_c, 0, 74, 0
3, 31644, Note_on_c, 0, 73, 64
3, 31656, Note_on_c, 0, 73, 0
3, 31656, Note_on_c, 0, 71, 64
3, 31679, Note_on_c, 0, 71, 0
3, 31680, Note_on_c, 0, 73, 64
3, 31703, Note_on_c, 0, 73, 0
3, 31704, Note_on_c, 0, 70, 64
3, 31727, Note_on_c, 0, 70, 0
3, 31728, Note_on_c, 0, 66, 64
3, 31751, Note_on_c, 0, 66, 0
3, 31752, Note_on_c, 0, 68, 64
3, 31775, Note_on_c, 0, 68, 0
3, 31776, Note_on_c, 0, 70, 64
3, 31799, Note_on_c, 0, 70, 0
3, 31800, Note_on_c, 0, 71, 64
3, 31823, Note_on_c, 0, 71, 0
3, 31824, Note_on_c, 0, 73, 64
3, 31847, Note_on_c, 0, 73, 0
3, 31848, Note_on_c, 0, 74, 64
3, 31871, Note_on_c, 0, 74, 0
3, 31872, Note_on_c, 0, 76, 64
3, 31895, Note_on_c, 0, 76, 0
3, 31896, Note_on_c, 0, 74, 64
3, 31919, Note_on_c, 0, 74, 0
3, 31920, Note_on_c, 0, 76, 64
3, 31943, Note_on_c, 0, 76, 0
3, 31944, Note_on_c, 0, 73, 64
3, 31967, Note_on_c, 0, 73, 0
3, 31968, Note_on_c, 0, 74, 64
3, 31991, Note_on_c, 0, 74, 0
3, 31992, Note_on_c, 0, 73, 64
3, 32015, Note_on_c, 0, 73, 0
3, 32016, Note_on_c, 0, 71, 64
3, 32039, Note_on_c, 0, 71, 0
3, 32040, Note_on_c, 0, 73, 64
3, 32063, Note_on_c, 0, 73, 0
3, 32064, Note_on_c, 0, 74, 64
3, 32087, Note_on_c, 0, 74, 0
3, 32088, Note_on_c, 0, 78, 64
3, 32111, Note_on_c, 0, 78, 0
3, 32112, Note_on_c, 0, 83, 64
3, 32135, Note_on_c, 0, 83, 0
3, 32136, Note_on_c, 0, 78, 64
3, 32159, Note_on_c, 0, 78, 0
3, 32160, Note_on_c, 0, 76, 64
3, 32183, Note_on_c, 0, 76, 0
3, 32184, Note_on_c, 0, 74, 64
3, 32207, Note_on_c, 0, 74, 0
3, 32208, Note_on_c, 0, 73, 64
3, 32231, Note_on_c, 0, 73, 0
3, 32232, Note_on_c, 0, 71, 64
3, 32255, Note_on_c, 0, 71, 0
3, 32256, Note_on_c, 0, 70, 64
3, 32279, Note_on_c, 0, 70, 0
3, 32280, Note_on_c, 0, 68, 64
3, 32303, Note_on_c, 0, 68, 0
3, 32304, Note_on_c, 0, 66, 64
3, 32327, Note_on_c, 0, 66, 0
3, 32328, Note_on_c, 0, 68, 64
3, 32351, Note_on_c, 0, 68, 0
3, 32352, Note_on_c, 0, 70, 64
3, 32375, Note_on_c, 0, 70, 0
3, 32376, Note_on_c, 0, 71, 64
3, 32399, Note_on_c, 0, 71, 0
3, 32400, Note_on_c, 0, 73, 64
3, 32423, Note_on_c, 0, 73, 0
3, 32424, Note_on_c, 0, 74, 64
3, 32447, Note_on_c, 0, 74, 0
3, 32448, Note_on_c, 0, 76, 64
3, 32471, Note_on_c, 0, 76, 0
3, 32472, Note_on_c, 0, 74, 64
3, 32495, Note_on_c, 0, 74, 0
3, 32496, Note_on_c, 0, 76, 64
3, 32519, Note_on_c, 0, 76, 0
3, 32520, Note_on_c, 0, 73, 64
3, 32543, Note_on_c, 0, 73, 0
3, 32544, Note_on_c, 0, 74, 64
3, 32567, Note_on_c, 0, 74, 0
3, 32568, Note_on_c, 0, 73, 64
3, 32591, Note_on_c, 0, 73, 0
3, 32592, Note_on_c, 0, 71, 64
3, 32615, Note_on_c, 0, 71, 0
3, 32616, Note_on_c, 0, 79, 64
3, 32639, Note_on_c, 0, 79, 0
3, 32640, Note_on_c, 0, 76, 64
3, 32663, Note_on_c, 0, 76, 0
3, 32664, Note_on_c, 0, 73, 64
3, 32687, Note_on_c, 0, 73, 0
3, 32688, Note_on_c, 0, 70, 64
3, 32711, Note_on_c, 0, 70, 0
3, 32712, Note_on_c, 0, 78, 64
3, 32735, Note_on_c, 0, 78, 0
3, 32736, Note_on_c, 0, 74, 64
3, 32759, Note_on_c, 0, 74, 0
3, 32760, Note_on_c, 0, 71, 64
3, 32783, Note_on_c, 0, 71, 0
3, 32784, Note_on_c, 0, 68, 64
3, 32807, Note_on_c, 0, 68, 0
3, 32808, Note_on_c, 0, 76, 64
3, 32831, Note_on_c, 0, 76, 0
3, 32832, Note_on_c, 0, 73, 64
3, 32855, Note_on_c, 0, 73, 0
3, 32856, Note_on_c, 0, 79, 64
3, 32879, Note_on_c, 0, 79, 0
3, 32880, Note_on_c, 0, 78, 64
3, 32903, Note_on_c, 0, 78, 0
3, 32904, Note_on_c, 0, 76, 64
3, 32927, Note_on_c, 0, 76, 0
3, 32928, Note_on_c, 0, 85, 64
3, 32951, Note_on_c, 0, 85, 0
3, 32952, Note_on_c, 0, 83, 64
3, 32975, Note_on_c, 0, 83, 0
3, 32976, Note_on_c, 0, 82, 64
3, 32999, Note_on_c, 0, 82, 0
3, 33000, Note_on_c, 0, 80, 64
3, 33023, Note_on_c, 0, 80, 0
3, 33024, Note_on_c, 0, 78, 64
3, 33047, Note_on_c, 0, 78, 0
3, 33048, Note_on_c, 0, 76, 64
3, 33071, Note_on_c, 0, 76, 0
3, 33072, Note_on_c, 0, 74, 64
3, 33095, Note_on_c, 0, 74, 0
3, 33096, Note_on_c, 0, 73, 64
3, 33119, Note_on_c, 0, 73, 0
3, 33120, Note_on_c, 0, 71, 64
3, 33143, Note_on_c, 0, 71, 0
3, 33144, Note_on_c, 0, 70, 64
3, 33167, Note_on_c, 0, 70, 0
3, 33168, Note_on_c, 0, 71, 64
3, 33191, Note_on_c, 0, 71, 0
3, 33192, Note_on_c, 0, 76, 64
3, 33215, Note_on_c, 0, 76, 0
3, 33216, Note_on_c, 0, 70, 64
3, 33349, Note_on_c, 0, 70, 0
3, 33360, Note_on_c, 0, 71, 64
3, 33405, Note_on_c, 0, 71, 0
3, 33408, Note_on_c, 0, 71, 64
3, 33453, Note_on_c, 0, 71, 0
3, 33456, Note_on_c, 0, 78, 64
3, 33501, Note_on_c, 0, 78, 0
3, 33504, Note_on_c, 0, 74, 64
3, 33549, Note_on_c, 0, 74, 0
3, 33552, Note_on_c, 0, 71, 64
3, 33597, Note_on_c, 0, 71, 0
3, 33600, Note_on_c, 0, 83, 64
3, 33689, Note_on_c, 0, 83, 0
3, 33744, Note_on_c, 0, 64, 64
3, 33767, Note_on_c, 0, 64, 0
3, 33768, Note_on_c, 0, 66, 64
3, 33791, Note_on_c, 0, 66, 0
3, 33792, Note_on_c, 0, 67, 64
3, 33815, Note_on_c, 0, 67, 0
3, 33816, Note_on_c, 0, 72, 64
3, 33839, Note_on_c, 0, 72, 0
3, 33840, Note_on_c, 0, 76, 64
3, 33863, Note_on_c, 0, 76, 0
3, 33864, Note_on_c, 0, 72, 64
3, 33887, Note_on_c, 0, 72, 0
3, 33888, Note_on_c, 0, 67, 64
3, 33911, Note_on_c, 0, 67, 0
3, 33912, Note_on_c, 0, 72, 64
3, 33935, Note_on_c, 0, 72, 0
3, 33936, Note_on_c, 0, 66, 64
3, 33959, Note_on_c, 0, 66, 0
3, 33960, Note_on_c, 0, 72, 64
3, 33983, Note_on_c, 0, 72, 0
3, 33984, Note_on_c, 0, 67, 64
3, 34007, Note_on_c, 0, 67, 0
3, 34008, Note_on_c, 0, 66, 64
3, 34031, Note_on_c, 0, 66, 0
3, 34032, Note_on_c, 0, 64, 64
3, 34055, Note_on_c, 0, 64, 0
3, 34056, Note_on_c, 0, 66, 64
3, 34079, Note_on_c, 0, 66, 0
3, 34080, Note_on_c, 0, 67, 64
3, 34103, Note_on_c, 0, 67, 0
3, 34104, Note_on_c, 0, 72, 64
3, 34127, Note_on_c, 0, 72, 0
3, 34128, Note_on_c, 0, 76, 64
3, 34151, Note_on_c, 0, 76, 0
3, 34152, Note_on_c, 0, 72, 64
3, 34175, Note_on_c, 0, 72, 0
3, 34176, Note_on_c, 0, 71, 64
3, 34199, Note_on_c, 0, 71, 0
3, 34200, Note_on_c, 0, 69, 64
3, 34223, Note_on_c, 0, 69, 0
3, 34224, Note_on_c, 0, 67, 64
3, 34247, Note_on_c, 0, 67, 0
3, 34248, Note_on_c, 0, 66, 64
3, 34271, Note_on_c, 0, 66, 0
3, 34272, Note_on_c, 0, 64, 64
3, 34295, Note_on_c, 0, 64, 0
3, 34296, Note_on_c, 0, 62, 64
3, 34319, Note_on_c, 0, 62, 0
3, 34320, Note_on_c, 0, 61, 64
3, 34343, Note_on_c, 0, 61, 0
3, 34344, Note_on_c, 0, 62, 64
3, 34367, Note_on_c, 0, 62, 0
3, 34368, Note_on_c, 0, 64, 64
3, 34391, Note_on_c, 0, 64, 0
3, 34392, Note_on_c, 0, 66, 64
3, 34415, Note_on_c, 0, 66, 0
3, 34416, Note_on_c, 0, 68, 64
3, 34439, Note_on_c, 0, 68, 0
3, 34440, Note_on_c, 0, 70, 64
3, 34463, Note_on_c, 0, 70, 0
3, 34464, Note_on_c, 0, 71, 64
3, 34487, Note_on_c, 0, 71, 0
3, 34488, Note_on_c, 0, 73, 64
3, 34511, Note_on_c, 0, 73, 0
3, 34512, Note_on_c, 0, 74, 64
3, 34535, Note_on_c, 0, 74, 0
3, 34536, Note_on_c, 0, 76, 64
3, 34559, Note_on_c, 0, 76, 0
3, 34560, Note_on_c, 0, 78, 64
3, 34583, Note_on_c, 0, 78, 0
3, 34584, Note_on_c, 0, 76, 64
3, 34607, Note_on_c, 0, 76, 0
3, 34608, Note_on_c, 0, 78, 64
3, 34631, Note_on_c, 0, 78, 0
3, 34632, Note_on_c, 0, 79, 64
3, 34655, Note_on_c, 0, 79, 0
3, 34656, Note_on_c, 0, 73, 64
3, 34789, Note_on_c, 0, 73, 0
3, 34800, Note_on_c, 0, 71, 64
3, 34845, Note_on_c, 0, 71, 0
3, 34848, Note_on_c, 0, 71, 64
3, 35113, Note_on_c, 0, 71, 0
3, 35113, End_track
4, 0, Start_track
4, 0, MIDI_port, 0
4, 0, Title_t, "Clavier (LH)"
4, 0, Program_c, 0, 6
4, 0, Control_c, 0, 7, 127
4, 0, Note_on_c, 0, 59, 64
4, 89, Note_on_c, 0, 59, 0
4, 144, Note_on_c, 0, 47, 64
4, 189, Note_on_c, 0, 47, 0
4, 192, Note_on_c, 0, 59, 64
4, 237, Note_on_c, 0, 59, 0
4, 240, Note_on_c, 0, 58, 64
4, 285, Note_on_c, 0, 58, 0
4, 288, Note_on_c, 0, 59, 64
4, 377, Note_on_c, 0, 59, 0
4, 432, Note_on_c, 0, 47, 64
4, 455, Note_on_c, 0, 47, 0
4, 456, Note_on_c, 0, 49, 64
4, 479, Note_on_c, 0, 49, 0
4, 480, Note_on_c, 0, 50, 64
4, 525, Note_on_c, 0, 50, 0
4, 528, Note_on_c, 0, 52, 64
4, 573, Note_on_c, 0, 52, 0
4, 576, Note_on_c, 0, 54, 64
4, 665, Note_on_c, 0, 54, 0
4, 720, Note_on_c, 0, 58, 64
4, 743, Note_on_c, 0, 58, 0
4, 744, Note_on_c, 0, 56, 64
4, 767, Note_on_c, 0, 56, 0
4, 768, Note_on_c, 0, 58, 64
4, 813, Note_on_c, 0, 58, 0
4, 816, Note_on_c, 0, 54, 64
4, 861, Note_on_c, 0, 54, 0
4, 864, Note_on_c, 0, 47, 64
4, 909, Note_on_c, 0, 47, 0
4, 912, Note_on_c, 0, 54, 64
4, 957, Note_on_c, 0, 54, 0
4, 960, Note_on_c, 0, 45, 64
4, 1005, Note_on_c, 0, 45, 0
4, 1008, Note_on_c, 0, 54, 64
4, 1053, Note_on_c, 0, 54, 0
4, 1056, Note_on_c, 0, 44, 64
4, 1101, Note_on_c, 0, 44, 0
4, 1104, Note_on_c, 0, 53, 64
4, 1149, Note_on_c, 0, 53, 0
4, 1152, Note_on_c, 0, 42, 64
4, 1241, Note_on_c, 0, 42, 0
4, 1296, Note_on_c, 0, 42, 64
4, 1341, Note_on_c, 0, 42, 0
4, 1344, Note_on_c, 0, 54, 64
4, 1389, Note_on_c, 0, 54, 0
4, 1392, Note_on_c, 0, 53, 64
4, 1437, Note_on_c, 0, 53, 0
4, 1440, Note_on_c, 0, 54, 64
4, 1529, Note_on_c, 0, 54, 0
4, 1584, Note_on_c, 0, 42, 64
4, 1607, Note_on_c, 0, 42, 0
4, 1608, Note_on_c, 0, 44, 64
4, 1631, Note_on_c, 0, 44, 0
4, 1632, Note_on_c, 0, 45, 64
4, 1677, Note_on_c, 0, 45, 0
4, 1680, Note_on_c, 0, 47, 64
4, 1725, Note_on_c, 0, 47, 0
4, 1728, Note_on_c, 0, 49, 64
4, 1817, Note_on_c, 0, 49, 0
4, 1872, Note_on_c, 0, 53, 64
4, 1895, Note_on_c, 0, 53, 0
4, 1896, Note_on_c, 0, 51, 64
4, 1919, Note_on_c, 0, 51, 0
4, 1920, Note_on_c, 0, 53, 64
4, 1965, Note_on_c, 0, 53, 0
4, 1968, Note_on_c, 0, 49, 64
4, 2013, Note_on_c, 0, 49, 0
4, 2016, Note_on_c, 0, 54, 64
4, 2061, Note_on_c, 0, 54, 0
4, 2064, Note_on_c, 0, 61, 64
4, 2109, Note_on_c, 0, 61, 0
4, 2112, Note_on_c, 0, 52, 64
4, 2157, Note_on_c, 0, 52, 0
4, 2160, Note_on_c, 0, 61, 64
4, 2205, Note_on_c, 0, 61, 0
4, 2208, Note_on_c, 0, 50, 64
4, 2253, Note_on_c, 0, 50, 0
4, 2256, Note_on_c, 0, 59, 64
4, 2301, Note_on_c, 0, 59, 0
4, 2304, Note_on_c, 0, 49, 64
4, 2349, Note_on_c, 0, 49, 0
4, 2352, Note_on_c, 0, 57, 64
4, 2397, Note_on_c, 0, 57, 0
4, 2400, Note_on_c, 0, 56, 64
4, 2445, Note_on_c, 0, 56, 0
4, 2448, Note_on_c, 0, 54, 64
4, 2493, Note_on_c, 0, 54, 0
4, 2496, Note_on_c, 0, 61, 64
4, 2541, Note_on_c, 0, 61, 0
4, 2544, Note_on_c, 0, 49, 64
4, 2589, Note_on_c, 0, 49, 0
4, 2592, Note_on_c, 0, 42, 64
4, 2637, Note_on_c, 0, 42, 0
4, 2640, Note_on_c, 0, 54, 64
4, 2685, Note_on_c, 0, 54, 0
4, 2688, Note_on_c, 0, 54, 64
4, 2733, Note_on_c, 0, 54, 0
4, 2736, Note_on_c, 0, 54, 64
4, 2781, Note_on_c, 0, 54, 0
4, 2784, Note_on_c, 0, 54, 64
4, 2829, Note_on_c, 0, 54, 0
4, 2832, Note_on_c, 0, 54, 64
4, 2877, Note_on_c, 0, 54, 0
4, 2880, Note_on_c, 0, 54, 64
4, 2925, Note_on_c, 0, 54, 0
4, 2928, Note_on_c, 0, 59, 64
4, 2951, Note_on_c, 0, 59, 0
4, 2952, Note_on_c, 0, 58, 64
4, 2975, Note_on_c, 0, 58, 0
4, 2976, Note_on_c, 0, 59, 64
4, 3021, Note_on_c, 0, 59, 0
4, 3024, Note_on_c, 0, 54, 64
4, 3069, Note_on_c, 0, 54, 0
4, 3072, Note_on_c, 0, 54, 64
4, 3117, Note_on_c, 0, 54, 0
4, 3120, Note_on_c, 0, 54, 64
4, 3165, Note_on_c, 0, 54, 0
4, 3168, Note_on_c, 0, 54, 64
4, 3213, Note_on_c, 0, 54, 0
4, 3216, Note_on_c, 0, 61, 64
4, 3239, Note_on_c, 0, 61, 0
4, 3240, Note_on_c, 0, 59, 64
4, 3263, Note_on_c, 0, 59, 0
4, 3264, Note_on_c, 0, 61, 64
4, 3309, Note_on_c, 0, 61, 0
4, 3312, Note_on_c, 0, 54, 64
4, 3357, Note_on_c, 0, 54, 0
4, 3360, Note_on_c, 0, 54, 64
4, 3405, Note_on_c, 0, 54, 0
4, 3408, Note_on_c, 0, 54, 64
4, 3453, Note_on_c, 0, 54, 0
4, 3456, Note_on_c, 0, 54, 64
4, 3501, Note_on_c, 0, 54, 0
4, 3504, Note_on_c, 0, 62, 64
4, 3516, Note_on_c, 0, 62, 0
4, 3516, Note_on_c, 0, 61, 64
4, 3528, Note_on_c, 0, 61, 0
4, 3528, Note_on_c, 0, 59, 64
4, 3551, Note_on_c, 0, 59, 0
4, 3552, Note_on_c, 0, 61, 64
4, 3597, Note_on_c, 0, 61, 0
4, 3600, Note_on_c, 0, 61, 64
4, 3612, Note_on_c, 0, 61, 0
4, 3612, Note_on_c, 0, 59, 64
4, 3624, Note_on_c, 0, 59, 0
4, 3624, Note_on_c, 0, 57, 64
4, 3647, Note_on_c, 0, 57, 0
4, 3648, Note_on_c, 0, 59, 64
4, 3693, Note_on_c, 0, 59, 0
4, 3696, Note_on_c, 0, 59, 64
4, 3708, Note_on_c, 0, 59, 0
4, 3708, Note_on_c, 0, 57, 64
4, 3720, Note_on_c, 0, 57, 0
4, 3720, Note_on_c, 0, 55, 64
4, 3743, Note_on_c, 0, 55, 0
4, 3744, Note_on_c, 0, 57, 64
4, 3789, Note_on_c, 0, 57, 0
4, 3792, Note_on_c, 0, 59, 64
4, 3804, Note_on_c, 0, 59, 0
4, 3804, Note_on_c, 0, 57, 64
4, 3816, Note_on_c, 0, 57, 0
4, 3816, Note_on_c, 0, 55, 64
4, 3839, Note_on_c, 0, 55, 0
4, 3840, Note_on_c, 0, 57, 64
4, 3885, Note_on_c, 0, 57, 0
4, 3888, Note_on_c, 0, 57, 64
4, 3900, Note_on_c, 0, 57, 0
4, 3900, Note_on_c, 0, 55, 64
4, 3912, Note_on_c, 0, 55, 0
4, 3912, Note_on_c, 0, 54, 64
4, 3935, Note_on_c, 0, 54, 0
4, 3936, Note_on_c, 0, 55, 64
4, 3981, Note_on_c, 0, 55, 0
4, 3984, Note_on_c, 0, 55, 64
4, 3996, Note_on_c, 0, 55, 0
4, 3996, Note_on_c, 0, 54, 64
4, 4008, Note_on_c, 0, 54, 0
4, 4008, Note_on_c, 0, 52, 64
4, 4031, Note_on_c, 0, 52, 0
4, 4032, Note_on_c, 0, 54, 64
4, 4077, Note_on_c, 0, 54, 0
4, 4080, Note_on_c, 0, 55, 64
4, 4092, Note_on_c, 0, 55, 0
4, 4092, Note_on_c, 0, 54, 64
4, 4104, Note_on_c, 0, 54, 0
4, 4104, Note_on_c, 0, 52, 64
4, 4127, Note_on_c, 0, 52, 0
4, 4128, Note_on_c, 0, 54, 64
4, 4173, Note_on_c, 0, 54, 0
4, 4176, Note_on_c, 0, 54, 64
4, 4188, Note_on_c, 0, 54, 0
4, 4188, Note_on_c, 0, 52, 64
4, 4200, Note_on_c, 0, 52, 0
4, 4200, Note_on_c, 0, 50, 64
4, 4223, Note_on_c, 0, 50, 0
4, 4224, Note_on_c, 0, 52, 64
4, 4269, Note_on_c, 0, 52, 0
4, 4272, Note_on_c, 0, 52, 64
4, 4284, Note_on_c, 0, 52, 0
4, 4284, Note_on_c, 0, 50, 64
4, 4296, Note_on_c, 0, 50, 0
4, 4296, Note_on_c, 0, 49, 64
4, 4319, Note_on_c, 0, 49, 0
4, 4320, Note_on_c, 0, 50, 64
4, 4343, Note_on_c, 0, 50, 0
4, 4344, Note_on_c, 0, 49, 64
4, 4367, Note_on_c, 0, 49, 0
4, 4368, Note_on_c, 0, 47, 64
4, 4391, Note_on_c, 0, 47, 0
4, 4392, Note_on_c, 0, 49, 64
4, 4415, Note_on_c, 0, 49, 0
4, 4416, Note_on_c, 0, 50, 64
4, 4439, Note_on_c, 0, 50, 0
4, 4440, Note_on_c, 0, 54, 64
4, 4463, Note_on_c, 0, 54, 0
4, 4464, Note_on_c, 0, 59, 64
4, 4487, Note_on_c, 0, 59, 0
4, 4488, Note_on_c, 0, 54, 64
4, 4511, Note_on_c, 0, 54, 0
4, 4512, Note_on_c, 0, 50, 64
4, 4535, Note_on_c, 0, 50, 0
4, 4536, Note_on_c, 0, 54, 64
4, 4559, Note_on_c, 0, 54, 0
4, 4560, Note_on_c, 0, 49, 64
4, 4583, Note_on_c, 0, 49, 0
4, 4584, Note_on_c, 0, 54, 64
4, 4607, Note_on_c, 0, 54, 0
4, 4608, Note_on_c, 0, 50, 64
4, 4631, Note_on_c, 0, 50, 0
4, 4632, Note_on_c, 0, 49, 64
4, 4655, Note_on_c, 0, 49, 0
4, 4656, Note_on_c, 0, 47, 64
4, 4679, Note_on_c, 0, 47, 0
4, 4680, Note_on_c, 0, 49, 64
4, 4703, Note_on_c, 0, 49, 0
4, 4704, Note_on_c, 0, 50, 64
4, 4727, Note_on_c, 0, 50, 0
4, 4728, Note_on_c, 0, 54, 64
4, 4751, Note_on_c, 0, 54, 0
4, 4752, Note_on_c, 0, 59, 64
4, 4775, Note_on_c, 0, 59, 0
4, 4776, Note_on_c, 0, 54, 64
4, 4799, Note_on_c, 0, 54, 0
4, 4800, Note_on_c, 0, 52, 64
4, 4823, Note_on_c, 0, 52, 0
4, 4824, Note_on_c, 0, 50, 64
4, 4847, Note_on_c, 0, 50, 0
4, 4848, Note_on_c, 0, 49, 64
4, 4871, Note_on_c, 0, 49, 0
4, 4872, Note_on_c, 0, 47, 64
4, 4895, Note_on_c, 0, 47, 0
4, 4896, Note_on_c, 0, 46, 64
4, 4919, Note_on_c, 0, 46, 0
4, 4920, Note_on_c, 0, 44, 64
4, 4943, Note_on_c, 0, 44, 0
4, 4944, Note_on_c, 0, 42, 64
4, 4967, Note_on_c, 0, 42, 0
4, 4968, Note_on_c, 0, 44, 64
4, 4991, Note_on_c, 0, 44, 0
4, 4992, Note_on_c, 0, 46, 64
4, 5015, Note_on_c, 0, 46, 0
4, 5016, Note_on_c, 0, 47, 64
4, 5039, Note_on_c, 0, 47, 0
4, 5040, Note_on_c, 0, 49, 64
4, 5063, Note_on_c, 0, 49, 0
4, 5064, Note_on_c, 0, 50, 64
4, 5087, Note_on_c, 0, 50, 0
4, 5088, Note_on_c, 0, 52, 64
4, 5111, Note_on_c, 0, 52, 0
4, 5112, Note_on_c, 0, 50, 64
4, 5135, Note_on_c, 0, 50, 0
4, 5136, Note_on_c, 0, 52, 64
4, 5159, Note_on_c, 0, 52, 0
4, 5160, Note_on_c, 0, 49, 64
4, 5183, Note_on_c, 0, 49, 0
4, 5184, Note_on_c, 0, 50, 64
4, 5207, Note_on_c, 0, 50, 0
4, 5208, Note_on_c, 0, 49, 64
4, 5231, Note_on_c, 0, 49, 0
4, 5232, Note_on_c, 0, 47, 64
4, 5255, Note_on_c, 0, 47, 0
4, 5256, Note_on_c, 0, 55, 64
4, 5279, Note_on_c, 0, 55, 0
4, 5280, Note_on_c, 0, 45, 64
4, 5303, Note_on_c, 0, 45, 0
4, 5304, Note_on_c, 0, 54, 64
4, 5327, Note_on_c, 0, 54, 0
4, 5328, Note_on_c, 0, 52, 64
4, 5351, Note_on_c, 0, 52, 0
4, 5352, Note_on_c, 0, 54, 64
4, 5375, Note_on_c, 0, 54, 0
4, 5376, Note_on_c, 0, 43, 64
4, 5399, Note_on_c, 0, 43, 0
4, 5400, Note_on_c, 0, 52, 64
4, 5423, Note_on_c, 0, 52, 0
4, 5424, Note_on_c, 0, 50, 64
4, 5447, Note_on_c, 0, 50, 0
4, 5448, Note_on_c, 0, 52, 64
4, 5471, Note_on_c, 0, 52, 0
4, 5472, Note_on_c, 0, 42, 64
4, 5605, Note_on_c, 0, 42, 0
4, 5616, Note_on_c, 0, 52, 64
4, 5661, Note_on_c, 0, 52, 0
4, 5664, Note_on_c, 0, 50, 64
4, 5709, Note_on_c, 0, 50, 0
4, 5712, Note_on_c, 0, 49, 64
4, 5757, Note_on_c, 0, 49, 0
4, 5760, Note_on_c, 0, 55, 64
4, 5805, Note_on_c, 0, 55, 0
4, 5808, Note_on_c, 0, 52, 64
4, 5853, Note_on_c, 0, 52, 0
4, 5856, Note_on_c, 0, 54, 64
4, 5901, Note_on_c, 0, 54, 0
4, 5904, Note_on_c, 0, 52, 64
4, 5949, Note_on_c, 0, 52, 0
4, 5952, Note_on_c, 0, 54, 64
4, 5997, Note_on_c, 0, 54, 0
4, 6000, Note_on_c, 0, 42, 64
4, 6045, Note_on_c, 0, 42, 0
4, 6048, Note_on_c, 0, 47, 64
4, 6137, Note_on_c, 0, 47, 0
4, 6192, Note_on_c, 0, 59, 64
4, 6237, Note_on_c, 0, 59, 0
4, 6240, Note_on_c, 0, 57, 64
4, 6285, Note_on_c, 0, 57, 0
4, 6288, Note_on_c, 0, 55, 64
4, 6333, Note_on_c, 0, 55, 0
4, 6336, Note_on_c, 0, 54, 64
4, 6601, Note_on_c, 0, 54, 0
4, 6624, Note_on_c, 0, 59, 64
4, 6713, Note_on_c, 0, 59, 0
4, 6768, Note_on_c, 0, 47, 64
4, 6813, Note_on_c, 0, 47, 0
4, 6816, Note_on_c, 0, 59, 64
4, 6861, Note_on_c, 0, 59, 0
4, 6864, Note_on_c, 0, 58, 64
4, 6909, Note_on_c, 0, 58, 0
4, 6912, Note_on_c, 0, 59, 64
4, 7001, Note_on_c, 0, 59, 0
4, 7056, Note_on_c, 0, 47, 64
4, 7079, Note_on_c, 0, 47, 0
4, 7080, Note_on_c, 0, 49, 64
4, 7103, Note_on_c, 0, 49, 0
4, 7104, Note_on_c, 0, 50, 64
4, 7149, Note_on_c, 0, 50, 0
4, 7152, Note_on_c, 0, 52, 64
4, 7197, Note_on_c, 0, 52, 0
4, 7200, Note_on_c, 0, 54, 64
4, 7289, Note_on_c, 0, 54, 0
4, 7344, Note_on_c, 0, 58, 64
4, 7367, Note_on_c, 0, 58, 0
4, 7368, Note_on_c, 0, 56, 64
4, 7391, Note_on_c, 0, 56, 0
4, 7392, Note_on_c, 0, 58, 64
4, 7437, Note_on_c, 0, 58, 0
4, 7440, Note_on_c, 0, 54, 64
4, 7485, Note_on_c, 0, 54, 0
4, 7488, Note_on_c, 0, 47, 64
4, 7533, Note_on_c, 0, 47, 0
4, 7536, Note_on_c, 0, 54, 64
4, 7581, Note_on_c, 0, 54, 0
4, 7584, Note_on_c, 0, 45, 64
4, 7629, Note_on_c, 0, 45, 0
4, 7632, Note_on_c, 0, 54, 64
4, 7677, Note_on_c, 0, 54, 0
4, 7680, Note_on_c, 0, 44, 64
4, 7725, Note_on_c, 0, 44, 0
4, 7728, Note_on_c, 0, 53, 64
4, 7773, Note_on_c, 0, 53, 0
4, 7776, Note_on_c, 0, 42, 64
4, 7865, Note_on_c, 0, 42, 0
4, 7920, Note_on_c, 0, 42, 64
4, 7965, Note_on_c, 0, 42, 0
4, 7968, Note_on_c, 0, 54, 64
4, 8013, Note_on_c, 0, 54, 0
4, 8016, Note_on_c, 0, 53, 64
4, 8061, Note_on_c, 0, 53, 0
4, 8064, Note_on_c, 0, 54, 64
4, 8153, Note_on_c, 0, 54, 0
4, 8208, Note_on_c, 0, 42, 64
4, 8231, Note_on_c, 0, 42, 0
4, 8232, Note_on_c, 0, 44, 64
4, 8255, Note_on_c, 0, 44, 0
4, 8256, Note_on_c, 0, 45, 64
4, 8301, Note_on_c, 0, 45, 0
4, 8304, Note_on_c, 0, 47, 64
4, 8349, Note_on_c, 0, 47, 0
4, 8352, Note_on_c, 0, 49, 64
4, 8441, Note_on_c, 0, 49, 0
4, 8496, Note_on_c, 0, 53, 64
4, 8519, Note_on_c, 0, 53, 0
4, 8520, Note_on_c, 0, 51, 64
4, 8543, Note_on_c, 0, 51, 0
4, 8544, Note_on_c, 0, 53, 64
4, 8589, Note_on_c, 0, 53, 0
4, 8592, Note_on_c, 0, 49, 64
4, 8637, Note_on_c, 0, 49, 0
4, 8640, Note_on_c, 0, 54, 64
4, 8685, Note_on_c, 0, 54, 0
4, 8688, Note_on_c, 0, 61, 64
4, 8733, Note_on_c, 0, 61, 0
4, 8736, Note_on_c, 0, 52, 64
4, 8781, Note_on_c, 0, 52, 0
4, 8784, Note_on_c, 0, 61, 64
4, 8829, Note_on_c, 0, 61, 0
4, 8832, Note_on_c, 0, 50, 64
4, 8877, Note_on_c, 0, 50, 0
4, 8880, Note_on_c, 0, 59, 64
4, 8925, Note_on_c, 0, 59, 0
4, 8928, Note_on_c, 0, 49, 64
4, 8973, Note_on_c, 0, 49, 0
4, 8976, Note_on_c, 0, 57, 64
4, 9021, Note_on_c, 0, 57, 0
4, 9024, Note_on_c, 0, 56, 64
4, 9069, Note_on_c, 0, 56, 0
4, 9072, Note_on_c, 0, 54, 64
4, 9117, Note_on_c, 0, 54, 0
4, 9120, Note_on_c, 0, 61, 64
4, 9165, Note_on_c, 0, 61, 0
4, 9168, Note_on_c, 0, 49, 64
4, 9213, Note_on_c, 0, 49, 0
4, 9216, Note_on_c, 0, 42, 64
4, 9261, Note_on_c, 0, 42, 0
4, 9264, Note_on_c, 0, 54, 64
4, 9309, Note_on_c, 0, 54, 0
4, 9312, Note_on_c, 0, 54, 64
4, 9357, Note_on_c, 0, 54, 0
4, 9360, Note_on_c, 0, 54, 64
4, 9405, Note_on_c, 0, 54, 0
4, 9408, Note_on_c, 0, 54, 64
4, 9453, Note_on_c, 0, 54, 0
4, 9456, Note_on_c, 0, 54, 64
4, 9501, Note_on_c, 0, 54, 0
4, 9504, Note_on_c, 0, 54, 64
4, 9549, Note_on_c, 0, 54, 0
4, 9552, Note_on_c, 0, 59, 64
4, 9575, Note_on_c, 0, 59, 0
4, 9576, Note_on_c, 0, 58, 64
4, 9599, Note_on_c, 0, 58, 0
4, 9600, Note_on_c, 0, 59, 64
4, 9645, Note_on_c, 0, 59, 0
4, 9648, Note_on_c, 0, 54, 64
4, 9693, Note_on_c, 0, 54, 0
4, 9696, Note_on_c, 0, 54, 64
4, 9741, Note_on_c, 0, 54, 0
4, 9744, Note_on_c, 0, 54, 64
4, 9789, Note_on_c, 0, 54, 0
4, 9792, Note_on_c, 0, 54, 64
4, 9837, Note_on_c, 0, 54, 0
4, 9840, Note_on_c, 0, 61, 64
4, 9863, Note_on_c, 0, 61, 0
4, 9864, Note_on_c, 0, 59, 64
4, 9887, Note_on_c, 0, 59, 0
4, 9888, Note_on_c, 0, 61, 64
4, 9933, Note_on_c, 0, 61, 0
4, 9936, Note_on_c, 0, 54, 64
4, 9981, Note_on_c, 0, 54, 0
4, 9984, Note_on_c, 0, 54, 64
4, 10029, Note_on_c, 0, 54, 0
4, 10032, Note_on_c, 0, 54, 64
4, 10077, Note_on_c, 0, 54, 0
4, 10080, Note_on_c, 0, 54, 64
4, 10125, Note_on_c, 0, 54, 0
4, 10128, Note_on_c, 0, 62, 64
4, 10140, Note_on_c, 0, 62, 0
4, 10140, Note_on_c, 0, 61, 64
4, 10152, Note_on_c, 0, 61, 0
4, 10152, Note_on_c, 0, 59, 64
4, 10175, Note_on_c, 0, 59, 0
4, 10176, Note_on_c, 0, 61, 64
4, 10221, Note_on_c, 0, 61, 0
4, 10224, Note_on_c, 0, 61, 64
4, 10236, Note_on_c, 0, 61, 0
4, 10236, Note_on_c, 0, 59, 64
4, 10248, Note_on_c, 0, 59, 0
4, 10248, Note_on_c, 0, 57, 64
4, 10271, Note_on_c, 0, 57, 0
4, 10272, Note_on_c, 0, 59, 64
4, 10317, Note_on_c, 0, 59, 0
4, 10320, Note_on_c, 0, 59, 64
4, 10332, Note_on_c, 0, 59, 0
4, 10332, Note_on_c, 0, 57, 64
4, 10344, Note_on_c, 0, 57, 0
4, 10344, Note_on_c, 0, 55, 64
4, 10367, Note_on_c, 0, 55, 0
4, 10368, Note_on_c, 0, 57, 64
4, 10413, Note_on_c, 0, 57, 0
4, 10416, Note_on_c, 0, 59, 64
4, 10428, Note_on_c, 0, 59, 0
4, 10428, Note_on_c, 0, 57, 64
4, 10440, Note_on_c, 0, 57, 0
4, 10440, Note_on_c, 0, 55, 64
4, 10463, Note_on_c, 0, 55, 0
4, 10464, Note_on_c, 0, 57, 64
4, 10509, Note_on_c, 0, 57, 0
4, 10512, Note_on_c, 0, 57, 64
4, 10524, Note_on_c, 0, 57, 0
4, 10524, Note_on_c, 0, 55, 64
4, 10536, Note_on_c, 0, 55, 0
4, 10536, Note_on_c, 0, 54, 64
4, 10559, Note_on_c, 0, 54, 0
4, 10560, Note_on_c, 0, 55, 64
4, 10605, Note_on_c, 0, 55, 0
4, 10608, Note_on_c, 0, 55, 64
4, 10620, Note_on_c, 0, 55, 0
4, 10620, Note_on_c, 0, 54, 64
4, 10632, Note_on_c, 0, 54, 0
4, 10632, Note_on_c, 0, 52, 64
4, 10655, Note_on_c, 0, 52, 0
4, 10656, Note_on_c, 0, 54, 64
4, 10701, Note_on_c, 0, 54, 0
4, 10704, Note_on_c, 0, 55, 64
4, 10716, Note_on_c, 0, 55, 0
4, 10716, Note_on_c, 0, 54, 64
4, 10728, Note_on_c, 0, 54, 0
4, 10728, Note_on_c, 0, 52, 64
4, 10751, Note_on_c, 0, 52, 0
4, 10752, Note_on_c, 0, 54, 64
4, 10797, Note_on_c, 0, 54, 0
4, 10800, Note_on_c, 0, 54, 64
4, 10812, Note_on_c, 0, 54, 0
4, 10812, Note_on_c, 0, 52, 64
4, 10824, Note_on_c, 0, 52, 0
4, 10824, Note_on_c, 0, 50, 64
4, 10847, Note_on_c, 0, 50, 0
4, 10848, Note_on_c, 0, 52, 64
4, 10893, Note_on_c, 0, 52, 0
4, 10896, Note_on_c, 0, 52, 64
4, 10908, Note_on_c, 0, 52, 0
4, 10908, Note_on_c, 0, 50, 64
4, 10920, Note_on_c, 0, 50, 0
4, 10920, Note_on_c, 0, 49, 64
4, 10943, Note_on_c, 0, 49, 0
4, 10944, Note_on_c, 0, 50, 64
4, 10967, Note_on_c, 0, 50, 0
4, 10968, Note_on_c, 0, 49, 64
4, 10991, Note_on_c, 0, 49, 0
4, 10992, Note_on_c, 0, 47, 64
4, 11015, Note_on_c, 0, 47, 0
4, 11016, Note_on_c, 0, 49, 64
4, 11039, Note_on_c, 0, 49, 0
4, 11040, Note_on_c, 0, 50, 64
4, 11063, Note_on_c, 0, 50, 0
4, 11064, Note_on_c, 0, 54, 64
4, 11087, Note_on_c, 0, 54, 0
4, 11088, Note_on_c, 0, 59, 64
4, 11111, Note_on_c, 0, 59, 0
4, 11112, Note_on_c, 0, 54, 64
4, 11135, Note_on_c, 0, 54, 0
4, 11136, Note_on_c, 0, 50, 64
4, 11159, Note_on_c, 0, 50, 0
4, 11160, Note_on_c, 0, 54, 64
4, 11183, Note_on_c, 0, 54, 0
4, 11184, Note_on_c, 0, 49, 64
4, 11207, Note_on_c, 0, 49, 0
4, 11208, Note_on_c, 0, 54, 64
4, 11231, Note_on_c, 0, 54, 0
4, 11232, Note_on_c, 0, 50, 64
4, 11255, Note_on_c, 0, 50, 0
4, 11256, Note_on_c, 0, 49, 64
4, 11279, Note_on_c, 0, 49, 0
4, 11280, Note_on_c, 0, 47, 64
4, 11303, Note_on_c, 0, 47, 0
4, 11304, Note_on_c, 0, 49, 64
4, 11327, Note_on_c, 0, 49, 0
4, 11328, Note_on_c, 0, 50, 64
4, 11351, Note_on_c, 0, 50, 0
4, 11352, Note_on_c, 0, 54, 64
4, 11375, Note_on_c, 0, 54, 0
4, 11376, Note_on_c, 0, 59, 64
4, 11399, Note_on_c, 0, 59, 0
4, 11400, Note_on_c, 0, 54, 64
4, 11423, Note_on_c, 0, 54, 0
4, 11424, Note_on_c, 0, 52, 64
4, 11447, Note_on_c, 0, 52, 0
4, 11448, Note_on_c, 0, 50, 64
4, 11471, Note_on_c, 0, 50, 0
4, 11472, Note_on_c, 0, 49, 64
4, 11495, Note_on_c, 0, 49, 0
4, 11496, Note_on_c, 0, 47, 64
4, 11519, Note_on_c, 0, 47, 0
4, 11520, Note_on_c, 0, 46, 64
4, 11543, Note_on_c, 0, 46, 0
4, 11544, Note_on_c, 0, 44, 64
4, 11567, Note_on_c, 0, 44, 0
4, 11568, Note_on_c, 0, 42, 64
4, 11591, Note_on_c, 0, 42, 0
4, 11592, Note_on_c, 0, 44, 64
4, 11615, Note_on_c, 0, 44, 0
4, 11616, Note_on_c, 0, 46, 64
4, 11639, Note_on_c, 0, 46, 0
4, 11640, Note_on_c, 0, 47, 64
4, 11663, Note_on_c, 0, 47, 0
4, 11664, Note_on_c, 0, 49, 64
4, 11687, Note_on_c, 0, 49, 0
4, 11688, Note_on_c, 0, 50, 64
4, 11711, Note_on_c, 0, 50, 0
4, 11712, Note_on_c, 0, 52, 64
4, 11735, Note_on_c, 0, 52, 0
4, 11736, Note_on_c, 0, 50, 64
4, 11759, Note_on_c, 0, 50, 0
4, 11760, Note_on_c, 0, 52, 64
4, 11783, Note_on_c, 0, 52, 0
4, 11784, Note_on_c, 0, 49, 64
4, 11807, Note_on_c, 0, 49, 0
4, 11808, Note_on_c, 0, 50, 64
4, 11831, Note_on_c, 0, 50, 0
4, 11832, Note_on_c, 0, 49, 64
4, 11855, Note_on_c, 0, 49, 0
4, 11856, Note_on_c, 0, 47, 64
4, 11879, Note_on_c, 0, 47, 0
4, 11880, Note_on_c, 0, 55, 64
4, 11903, Note_on_c, 0, 55, 0
4, 11904, Note_on_c, 0, 45, 64
4, 11927, Note_on_c, 0, 45, 0
4, 11928, Note_on_c, 0, 54, 64
4, 11951, Note_on_c, 0, 54, 0
4, 11952, Note_on_c, 0, 52, 64
4, 11975, Note_on_c, 0, 52, 0
4, 11976, Note_on_c, 0, 54, 64
4, 11999, Note_on_c, 0, 54, 0
4, 12000, Note_on_c, 0, 43, 64
4, 12023, Note_on_c, 0, 43, 0
4, 12024, Note_on_c, 0, 52, 64
4, 12047, Note_on_c, 0, 52, 0
4, 12048, Note_on_c, 0, 50, 64
4, 12071, Note_on_c, 0, 50, 0
4, 12072, Note_on_c, 0, 52, 64
4, 12095, Note_on_c, 0, 52, 0
4, 12096, Note_on_c, 0, 42, 64
4, 12229, Note_on_c, 0, 42, 0
4, 12240, Note_on_c, 0, 52, 64
4, 12285, Note_on_c, 0, 52, 0
4, 12288, Note_on_c, 0, 50, 64
4, 12333, Note_on_c, 0, 50, 0
4, 12336, Note_on_c, 0, 49, 64
4, 12381, Note_on_c, 0, 49, 0
4, 12384, Note_on_c, 0, 55, 64
4, 12429, Note_on_c, 0, 55, 0
4, 12432, Note_on_c, 0, 52, 64
4, 12477, Note_on_c, 0, 52, 0
4, 12480, Note_on_c, 0, 54, 64
4, 12525, Note_on_c, 0, 54, 0
4, 12528, Note_on_c, 0, 52, 64
4, 12573, Note_on_c, 0, 52, 0
4, 12576, Note_on_c, 0, 54, 64
4, 12621, Note_on_c, 0, 54, 0
4, 12624, Note_on_c, 0, 42, 64
4, 12669, Note_on_c, 0, 42, 0
4, 12672, Note_on_c, 0, 47, 64
4, 12761, Note_on_c, 0, 47, 0
4, 12816, Note_on_c, 0, 59, 64
4, 12861, Note_on_c, 0, 59, 0
4, 12864, Note_on_c, 0, 57, 64
4, 12909, Note_on_c, 0, 57, 0
4, 12912, Note_on_c, 0, 55, 64
4, 12957, Note_on_c, 0, 55, 0
4, 12960, Note_on_c, 0, 54, 64
4, 13225, Note_on_c, 0, 54, 0
4, 13248, Note_on_c, 0, 54, 64
4, 13337, Note_on_c, 0, 54, 0
4, 13392, Note_on_c, 0, 57, 64
4, 13415, Note_on_c, 0, 57, 0
4, 13416, Note_on_c, 0, 55, 64
4, 13439, Note_on_c, 0, 55, 0
4, 13440, Note_on_c, 0, 54, 64
4, 13485, Note_on_c, 0, 54, 0
4, 13488, Note_on_c, 0, 52, 64
4, 13533, Note_on_c, 0, 52, 0
4, 13536, Note_on_c, 0, 51, 64
4, 13625, Note_on_c, 0, 51, 0
4, 13680, Note_on_c, 0, 54, 64
4, 13703, Note_on_c, 0, 54, 0
4, 13704, Note_on_c, 0, 52, 64
4, 13727, Note_on_c, 0, 52, 0
4, 13728, Note_on_c, 0, 51, 64
4, 13773, Note_on_c, 0, 51, 0
4, 13776, Note_on_c, 0, 49, 64
4, 13821, Note_on_c, 0, 49, 0
4, 13824, Note_on_c, 0, 47, 64
4, 13869, Note_on_c, 0, 47, 0
4, 13872, Note_on_c, 0, 57, 64
4, 13917, Note_on_c, 0, 57, 0
4, 13920, Note_on_c, 0, 54, 64
4, 13965, Note_on_c, 0, 54, 0
4, 13968, Note_on_c, 0, 51, 64
4, 14013, Note_on_c, 0, 51, 0
4, 14016, Note_on_c, 0, 47, 64
4, 14061, Note_on_c, 0, 47, 0
4, 14064, Note_on_c, 0, 59, 64
4, 14109, Note_on_c, 0, 59, 0
4, 14112, Note_on_c, 0, 52, 64
4, 14201, Note_on_c, 0, 52, 0
4, 14256, Note_on_c, 0, 55, 64
4, 14279, Note_on_c, 0, 55, 0
4, 14280, Note_on_c, 0, 54, 64
4, 14303, Note_on_c, 0, 54, 0
4, 14304, Note_on_c, 0, 52, 64
4, 14349, Note_on_c, 0, 52, 0
4, 14352, Note_on_c, 0, 50, 64
4, 14397, Note_on_c, 0, 50, 0
4, 14400, Note_on_c, 0, 49, 64
4, 14489, Note_on_c, 0, 49, 0
4, 14544, Note_on_c, 0, 52, 64
4, 14567, Note_on_c, 0, 52, 0
4, 14568, Note_on_c, 0, 50, 64
4, 14591, Note_on_c, 0, 50, 0
4, 14592, Note_on_c, 0, 49, 64
4, 14637, Note_on_c, 0, 49, 0
4, 14640, Note_on_c, 0, 47, 64
4, 14685, Note_on_c, 0, 47, 0
4, 14688, Note_on_c, 0, 45, 64
4, 14733, Note_on_c, 0, 45, 0
4, 14736, Note_on_c, 0, 55, 64
4, 14781, Note_on_c, 0, 55, 0
4, 14784, Note_on_c, 0, 52, 64
4, 14829, Note_on_c, 0, 52, 0
4, 14832, Note_on_c, 0, 49, 64
4, 14877, Note_on_c, 0, 49, 0
4, 14880, Note_on_c, 0, 45, 64
4, 14925, Note_on_c, 0, 45, 0
4, 14928, Note_on_c, 0, 57, 64
4, 14973, Note_on_c, 0, 57, 0
4, 14976, Note_on_c, 0, 50, 64
4, 15021, Note_on_c, 0, 50, 0
4, 15024, Note_on_c, 0, 50, 64
4, 15069, Note_on_c, 0, 50, 0
4, 15072, Note_on_c, 0, 50, 64
4, 15117, Note_on_c, 0, 50, 0
4, 15120, Note_on_c, 0, 50, 64
4, 15165, Note_on_c, 0, 50, 0
4, 15168, Note_on_c, 0, 50, 64
4, 15213, Note_on_c, 0, 50, 0
4, 15216, Note_on_c, 0, 50, 64
4, 15261, Note_on_c, 0, 50, 0
4, 15264, Note_on_c, 0, 50, 64
4, 15309, Note_on_c, 0, 50, 0
4, 15312, Note_on_c, 0, 54, 64
4, 15335, Note_on_c, 0, 54, 0
4, 15336, Note_on_c, 0, 52, 64
4, 15359, Note_on_c, 0, 52, 0
4, 15360, Note_on_c, 0, 50, 64
4, 15405, Note_on_c, 0, 50, 0
4, 15408, Note_on_c, 0, 50, 64
4, 15453, Note_on_c, 0, 50, 0
4, 15456, Note_on_c, 0, 50, 64
4, 15501, Note_on_c, 0, 50, 0
4, 15504, Note_on_c, 0, 50, 64
4, 15549, Note_on_c, 0, 50, 0
4, 15552, Note_on_c, 0, 50, 64
4, 15597, Note_on_c, 0, 50, 0
4, 15600, Note_on_c, 0, 47, 64
4, 15623, Note_on_c, 0, 47, 0
4, 15624, Note_on_c, 0, 49, 64
4, 15647, Note_on_c, 0, 49, 0
4, 15648, Note_on_c, 0, 50, 64
4, 15693, Note_on_c, 0, 50, 0
4, 15696, Note_on_c, 0, 52, 64
4, 15719, Note_on_c, 0, 52, 0
4, 15720, Note_on_c, 0, 54, 64
4, 15743, Note_on_c, 0, 54, 0
4, 15744, Note_on_c, 0, 56, 64
4, 15789, Note_on_c, 0, 56, 0
4, 15792, Note_on_c, 0, 52, 64
4, 15837, Note_on_c, 0, 52, 0
4, 15840, Note_on_c, 0, 57, 64
4, 15885, Note_on_c, 0, 57, 0
4, 15888, Note_on_c, 0, 45, 64
4, 15911, Note_on_c, 0, 45, 0
4, 15912, Note_on_c, 0, 47, 64
4, 15935, Note_on_c, 0, 47, 0
4, 15936, Note_on_c, 0, 49, 64
4, 15959, Note_on_c, 0, 49, 0
4, 15960, Note_on_c, 0, 52, 64
4, 15983, Note_on_c, 0, 52, 0
4, 15984, Note_on_c, 0, 57, 64
4, 16007, Note_on_c, 0, 57, 0
4, 16008, Note_on_c, 0, 52, 64
4, 16031, Note_on_c, 0, 52, 0
4, 16032, Note_on_c, 0, 49, 64
4, 16055, Note_on_c, 0, 49, 0
4, 16056, Note_on_c, 0, 52, 64
4, 16079, Note_on_c, 0, 52, 0
4, 16080, Note_on_c, 0, 47, 64
4, 16103, Note_on_c, 0, 47, 0
4, 16104, Note_on_c, 0, 52, 64
4, 16127, Note_on_c, 0, 52, 0
4, 16128, Note_on_c, 0, 49, 64
4, 16151, Note_on_c, 0, 49, 0
4, 16152, Note_on_c, 0, 47, 64
4, 16175, Note_on_c, 0, 47, 0
4, 16176, Note_on_c, 0, 45, 64
4, 16199, Note_on_c, 0, 45, 0
4, 16200, Note_on_c, 0, 47, 64
4, 16223, Note_on_c, 0, 47, 0
4, 16224, Note_on_c, 0, 49, 64
4, 16247, Note_on_c, 0, 49, 0
4, 16248, Note_on_c, 0, 52, 64
4, 16271, Note_on_c, 0, 52, 0
4, 16272, Note_on_c, 0, 57, 64
4, 16295, Note_on_c, 0, 57, 0
4, 16296, Note_on_c, 0, 52, 64
4, 16319, Note_on_c, 0, 52, 0
4, 16320, Note_on_c, 0, 50, 64
4, 16343, Note_on_c, 0, 50, 0
4, 16344, Note_on_c, 0, 49, 64
4, 16367, Note_on_c, 0, 49, 0
4, 16368, Note_on_c, 0, 47, 64
4, 16391, Note_on_c, 0, 47, 0
4, 16392, Note_on_c, 0, 45, 64
4, 16415, Note_on_c, 0, 45, 0
4, 16416, Note_on_c, 0, 44, 64
4, 16439, Note_on_c, 0, 44, 0
4, 16440, Note_on_c, 0, 42, 64
4, 16463, Note_on_c, 0, 42, 0
4, 16464, Note_on_c, 0, 40, 64
4, 16487, Note_on_c, 0, 40, 0
4, 16488, Note_on_c, 0, 42, 64
4, 16511, Note_on_c, 0, 42, 0
4, 16512, Note_on_c, 0, 44, 64
4, 16535, Note_on_c, 0, 44, 0
4, 16536, Note_on_c, 0, 45, 64
4, 16559, Note_on_c, 0, 45, 0
4, 16560, Note_on_c, 0, 47, 64
4, 16583, Note_on_c, 0, 47, 0
4, 16584, Note_on_c, 0, 49, 64
4, 16607, Note_on_c, 0, 49, 0
4, 16608, Note_on_c, 0, 50, 64
4, 16631, Note_on_c, 0, 50, 0
4, 16632, Note_on_c, 0, 49, 64
4, 16655, Note_on_c, 0, 49, 0
4, 16656, Note_on_c, 0, 50, 64
4, 16679, Note_on_c, 0, 50, 0
4, 16680, Note_on_c, 0, 47, 64
4, 16703, Note_on_c, 0, 47, 0
4, 16704, Note_on_c, 0, 49, 64
4, 16749, Note_on_c, 0, 49, 0
4, 16752, Note_on_c, 0, 54, 64
4, 16797, Note_on_c, 0, 54, 0
4, 16800, Note_on_c, 0, 51, 64
4, 16845, Note_on_c, 0, 51, 0
4, 16848, Note_on_c, 0, 47, 64
4, 16871, Note_on_c, 0, 47, 0
4, 16872, Note_on_c, 0, 49, 64
4, 16895, Note_on_c, 0, 49, 0
4, 16896, Note_on_c, 0, 51, 64
4, 16941, Note_on_c, 0, 51, 0
4, 16944, Note_on_c, 0, 47, 64
4, 16989, Note_on_c, 0, 47, 0
4, 16992, Note_on_c, 0, 52, 64
4, 17081, Note_on_c, 0, 52, 0
4, 17136, Note_on_c, 0, 52, 64
4, 17181, Note_on_c, 0, 52, 0
4, 17184, Note_on_c, 0, 64, 64
4, 17229, Note_on_c, 0, 64, 0
4, 17232, Note_on_c, 0, 63, 64
4, 17277, Note_on_c, 0, 63, 0
4, 17280, Note_on_c, 0, 64, 64
4, 17369, Note_on_c, 0, 64, 0
4, 17424, Note_on_c, 0, 52, 64
4, 17447, Note_on_c, 0, 52, 0
4, 17448, Note_on_c, 0, 54, 64
4, 17471, Note_on_c, 0, 54, 0
4, 17472, Note_on_c, 0, 55, 64
4, 17517, Note_on_c, 0, 55, 0
4, 17520, Note_on_c, 0, 57, 64
4, 17565, Note_on_c, 0, 57, 0
4, 17568, Note_on_c, 0, 59, 64
4, 17657, Note_on_c, 0, 59, 0
4, 17712, Note_on_c, 0, 63, 64
4, 17735, Note_on_c, 0, 63, 0
4, 17736, Note_on_c, 0, 61, 64
4, 17759, Note_on_c, 0, 61, 0
4, 17760, Note_on_c, 0, 63, 64
4, 17805, Note_on_c, 0, 63, 0
4, 17808, Note_on_c, 0, 59, 64
4, 17853, Note_on_c, 0, 59, 0
4, 17856, Note_on_c, 0, 52, 64
4, 17901, Note_on_c, 0, 52, 0
4, 17904, Note_on_c, 0, 60, 64
4, 17949, Note_on_c, 0, 60, 0
4, 17952, Note_on_c, 0, 50, 64
4, 17997, Note_on_c, 0, 50, 0
4, 18000, Note_on_c, 0, 59, 64
4, 18045, Note_on_c, 0, 59, 0
4, 18048, Note_on_c, 0, 48, 64
4, 18093, Note_on_c, 0, 48, 0
4, 18096, Note_on_c, 0, 57, 64
4, 18141, Note_on_c, 0, 57, 0
4, 18144, Note_on_c, 0, 47, 64
4, 18189, Note_on_c, 0, 47, 0
4, 18192, Note_on_c, 0, 57, 64
4, 18237, Note_on_c, 0, 57, 0
4, 18240, Note_on_c, 0, 57, 64
4, 18285, Note_on_c, 0, 57, 0
4, 18288, Note_on_c, 0, 57, 64
4, 18333, Note_on_c, 0, 57, 0
4, 18336, Note_on_c, 0, 57, 64
4, 18381, Note_on_c, 0, 57, 0
4, 18384, Note_on_c, 0, 57, 64
4, 18429, Note_on_c, 0, 57, 0
4, 18432, Note_on_c, 0, 57, 64
4, 18477, Note_on_c, 0, 57, 0
4, 18480, Note_on_c, 0, 60, 64
4, 18503, Note_on_c, 0, 60, 0
4, 18504, Note_on_c, 0, 59, 64
4, 18527, Note_on_c, 0, 59, 0
4, 18528, Note_on_c, 0, 57, 64
4, 18573, Note_on_c, 0, 57, 0
4, 18576, Note_on_c, 0, 57, 64
4, 18621, Note_on_c, 0, 57, 0
4, 18624, Note_on_c, 0, 57, 64
4, 18669, Note_on_c, 0, 57, 0
4, 18672, Note_on_c, 0, 57, 64
4, 18717, Note_on_c, 0, 57, 0
4, 18720, Note_on_c, 0, 57, 64
4, 18765, Note_on_c, 0, 57, 0
4, 18768, Note_on_c, 0, 54, 64
4, 18791, Note_on_c, 0, 54, 0
4, 18792, Note_on_c, 0, 55, 64
4, 18815, Note_on_c, 0, 55, 0
4, 18816, Note_on_c, 0, 57, 64
4, 18861, Note_on_c, 0, 57, 0
4, 18864, Note_on_c, 0, 55, 64
4, 18887, Note_on_c, 0, 55, 0
4, 18888, Note_on_c, 0, 57, 64
4, 18911, Note_on_c, 0, 57, 0
4, 18912, Note_on_c, 0, 59, 64
4, 18957, Note_on_c, 0, 59, 0
4, 18960, Note_on_c, 0, 54, 64
4, 19005, Note_on_c, 0, 54, 0
4, 19008, Note_on_c, 0, 55, 64
4, 19031, Note_on_c, 0, 55, 0
4, 19032, Note_on_c, 0, 54, 64
4, 19055, Note_on_c, 0, 54, 0
4, 19056, Note_on_c, 0, 52, 64
4, 19079, Note_on_c, 0, 52, 0
4, 19080, Note_on_c, 0, 54, 64
4, 19103, Note_on_c, 0, 54, 0
4, 19104, Note_on_c, 0, 55, 64
4, 19127, Note_on_c, 0, 55, 0
4, 19128, Note_on_c, 0, 57, 64
4, 19151, Note_on_c, 0, 57, 0
4, 19152, Note_on_c, 0, 59, 64
4, 19175, Note_on_c, 0, 59, 0
4, 19176, Note_on_c, 0, 57, 64
4, 19199, Note_on_c, 0, 57, 0
4, 19200, Note_on_c, 0, 55, 64
4, 19223, Note_on_c, 0, 55, 0
4, 19224, Note_on_c, 0, 59, 64
4, 19247, Note_on_c, 0, 59, 0
4, 19248, Note_on_c, 0, 54, 64
4, 19271, Note_on_c, 0, 54, 0
4, 19272, Note_on_c, 0, 59, 64
4, 19295, Note_on_c, 0, 59, 0
4, 19296, Note_on_c, 0, 52, 64
4, 19319, Note_on_c, 0, 52, 0
4, 19320, Note_on_c, 0, 50, 64
4, 19343, Note_on_c, 0, 50, 0
4, 19344, Note_on_c, 0, 49, 64
4, 19367, Note_on_c, 0, 49, 0
4, 19368, Note_on_c, 0, 50, 64
4, 19391, Note_on_c, 0, 50, 0
4, 19392, Note_on_c, 0, 52, 64
4, 19415, Note_on_c, 0, 52, 0
4, 19416, Note_on_c, 0, 54, 64
4, 19439, Note_on_c, 0, 54, 0
4, 19440, Note_on_c, 0, 55, 64
4, 19463, Note_on_c, 0, 55, 0
4, 19464, Note_on_c, 0, 54, 64
4, 19487, Note_on_c, 0, 54, 0
4, 19488, Note_on_c, 0, 52, 64
4, 19511, Note_on_c, 0, 52, 0
4, 19512, Note_on_c, 0, 55, 64
4, 19535, Note_on_c, 0, 55, 0
4, 19536, Note_on_c, 0, 50, 64
4, 19559, Note_on_c, 0, 50, 0
4, 19560, Note_on_c, 0, 55, 64
4, 19583, Note_on_c, 0, 55, 0
4, 19584, Note_on_c, 0, 49, 64
4, 19607, Note_on_c, 0, 49, 0
4, 19608, Note_on_c, 0, 50, 64
4, 19631, Note_on_c, 0, 50, 0
4, 19632, Note_on_c, 0, 52, 64
4, 19655, Note_on_c, 0, 52, 0
4, 19656, Note_on_c, 0, 50, 64
4, 19679, Note_on_c, 0, 50, 0
4, 19680, Note_on_c, 0, 49, 64
4, 19703, Note_on_c, 0, 49, 0
4, 19704, Note_on_c, 0, 47, 64
4, 19727, Note_on_c, 0, 47, 0
4, 19728, Note_on_c, 0, 45, 64
4, 19751, Note_on_c, 0, 45, 0
4, 19752, Note_on_c, 0, 43, 64
4, 19775, Note_on_c, 0, 43, 0
4, 19776, Note_on_c, 0, 42, 64
4, 19799, Note_on_c, 0, 42, 0
4, 19800, Note_on_c, 0, 40, 64
4, 19823, Note_on_c, 0, 40, 0
4, 19824, Note_on_c, 0, 38, 64
4, 19847, Note_on_c, 0, 38, 0
4, 19848, Note_on_c, 0, 37, 64
4, 19871, Note_on_c, 0, 37, 0
4, 19872, Note_on_c, 0, 38, 64
4, 19961, Note_on_c, 0, 38, 0
4, 20064, Note_on_c, 0, 50, 64
4, 20153, Note_on_c, 0, 50, 0
4, 20160, Note_on_c, 0, 57, 64
4, 20249, Note_on_c, 0, 57, 0
4, 20352, Note_on_c, 0, 58, 64
4, 20441, Note_on_c, 0, 58, 0
4, 20448, Note_on_c, 0, 59, 64
4, 20537, Note_on_c, 0, 59, 0
4, 20640, Note_on_c, 0, 47, 64
4, 20729, Note_on_c, 0, 47, 0
4, 20736, Note_on_c, 0, 42, 64
4, 20781, Note_on_c, 0, 42, 0
4, 20784, Note_on_c, 0, 54, 64
4, 20829, Note_on_c, 0, 54, 0
4, 20832, Note_on_c, 0, 54, 64
4, 20877, Note_on_c, 0, 54, 0
4, 20880, Note_on_c, 0, 54, 64
4, 20925, Note_on_c, 0, 54, 0
4, 20928, Note_on_c, 0, 54, 64
4, 20973, Note_on_c, 0, 54, 0
4, 20976, Note_on_c, 0, 54, 64
4, 21021, Note_on_c, 0, 54, 0
4, 21024, Note_on_c, 0, 54, 64
4, 21069, Note_on_c, 0, 54, 0
4, 21072, Note_on_c, 0, 59, 64
4, 21095, Note_on_c, 0, 59, 0
4, 21096, Note_on_c, 0, 58, 64
4, 21119, Note_on_c, 0, 58, 0
4, 21120, Note_on_c, 0, 59, 64
4, 21165, Note_on_c, 0, 59, 0
4, 21168, Note_on_c, 0, 54, 64
4, 21213, Note_on_c, 0, 54, 0
4, 21216, Note_on_c, 0, 54, 64
4, 21261, Note_on_c, 0, 54, 0
4, 21264, Note_on_c, 0, 54, 64
4, 21309, Note_on_c, 0, 54, 0
4, 21312, Note_on_c, 0, 54, 64
4, 21357, Note_on_c, 0, 54, 0
4, 21360, Note_on_c, 0, 61, 64
4, 21383, Note_on_c, 0, 61, 0
4, 21384, Note_on_c, 0, 59, 64
4, 21407, Note_on_c, 0, 59, 0
4, 21408, Note_on_c, 0, 61, 64
4, 21453, Note_on_c, 0, 61, 0
4, 21456, Note_on_c, 0, 54, 64
4, 21501, Note_on_c, 0, 54, 0
4, 21504, Note_on_c, 0, 54, 64
4, 21549, Note_on_c, 0, 54, 0
4, 21552, Note_on_c, 0, 54, 64
4, 21597, Note_on_c, 0, 54, 0
4, 21600, Note_on_c, 0, 54, 64
4, 21645, Note_on_c, 0, 54, 0
4, 21648, Note_on_c, 0, 62, 64
4, 21660, Note_on_c, 0, 62, 0
4, 21660, Note_on_c, 0, 61, 64
4, 21672, Note_on_c, 0, 61, 0
4, 21672, Note_on_c, 0, 59, 64
4, 21695, Note_on_c, 0, 59, 0
4, 21696, Note_on_c, 0, 61, 64
4, 21741, Note_on_c, 0, 61, 0
4, 21744, Note_on_c, 0, 61, 64
4, 21756, Note_on_c, 0, 61, 0
4, 21756, Note_on_c, 0, 59, 64
4, 21768, Note_on_c, 0, 59, 0
4, 21768, Note_on_c, 0, 58, 64
4, 21791, Note_on_c, 0, 58, 0
4, 21792, Note_on_c, 0, 59, 64
4, 21837, Note_on_c, 0, 59, 0
4, 21840, Note_on_c, 0, 59, 64
4, 21852, Note_on_c, 0, 59, 0
4, 21852, Note_on_c, 0, 58, 64
4, 21864, Note_on_c, 0, 58, 0
4, 21864, Note_on_c, 0, 56, 64
4, 21887, Note_on_c, 0, 56, 0
4, 21888, Note_on_c, 0, 58, 64
4, 22021, Note_on_c, 0, 58, 0
4, 22032, Note_on_c, 0, 54, 64
4, 22077, Note_on_c, 0, 54, 0
4, 22080, Note_on_c, 0, 59, 64
4, 22125, Note_on_c, 0, 59, 0
4, 22128, Note_on_c, 0, 54, 64
4, 22173, Note_on_c, 0, 54, 0
4, 22176, Note_on_c, 0, 55, 64
4, 22221, Note_on_c, 0, 55, 0
4, 22224, Note_on_c, 0, 52, 64
4, 22269, Note_on_c, 0, 52, 0
4, 22272, Note_on_c, 0, 54, 64
4, 22317, Note_on_c, 0, 54, 0
4, 22320, Note_on_c, 0, 52, 64
4, 22365, Note_on_c, 0, 52, 0
4, 22368, Note_on_c, 0, 54, 64
4, 22413, Note_on_c, 0, 54, 0
4, 22416, Note_on_c, 0, 42, 64
4, 22461, Note_on_c, 0, 42, 0
4, 22464, Note_on_c, 0, 47, 64
4, 22553, Note_on_c, 0, 47, 0
4, 22608, Note_on_c, 0, 59, 64
4, 22631, Note_on_c, 0, 59, 0
4, 22632, Note_on_c, 0, 61, 64
4, 22655, Note_on_c, 0, 61, 0
4, 22656, Note_on_c, 0, 59, 64
4, 22679, Note_on_c, 0, 59, 0
4, 22680, Note_on_c, 0, 57, 64
4, 22703, Note_on_c, 0, 57, 0
4, 22704, Note_on_c, 0, 55, 64
4, 22727, Note_on_c, 0, 55, 0
4, 22728, Note_on_c, 0, 54, 64
4, 22751, Note_on_c, 0, 54, 0
4, 22752, Note_on_c, 0, 52, 64
4, 22841, Note_on_c, 0, 52, 0
4, 22896, Note_on_c, 0, 40, 64
4, 22941, Note_on_c, 0, 40, 0
4, 22944, Note_on_c, 0, 52, 64
4, 22989, Note_on_c, 0, 52, 0
4, 22992, Note_on_c, 0, 51, 64
4, 23037, Note_on_c, 0, 51, 0
4, 23040, Note_on_c, 0, 52, 64
4, 23129, Note_on_c, 0, 52, 0
4, 23184, Note_on_c, 0, 52, 64
4, 23207, Note_on_c, 0, 52, 0
4, 23208, Note_on_c, 0, 51, 64
4, 23231, Note_on_c, 0, 51, 0
4, 23232, Note_on_c, 0, 52, 64
4, 23277, Note_on_c, 0, 52, 0
4, 23280, Note_on_c, 0, 54, 64
4, 23325, Note_on_c, 0, 54, 0
4, 23328, Note_on_c, 0, 55, 64
4, 23373, Note_on_c, 0, 55, 0
4, 23376, Note_on_c, 0, 52, 64
4, 23421, Note_on_c, 0, 52, 0
4, 23424, Note_on_c, 0, 58, 64
4, 23469, Note_on_c, 0, 58, 0
4, 23472, Note_on_c, 0, 54, 64
4, 23517, Note_on_c, 0, 54, 0
4, 23520, Note_on_c, 0, 59, 64
4, 23565, Note_on_c, 0, 59, 0
4, 23568, Note_on_c, 0, 54, 64
4, 23613, Note_on_c, 0, 54, 0
4, 23616, Note_on_c, 0, 50, 64
4, 23661, Note_on_c, 0, 50, 0
4, 23664, Note_on_c, 0, 52, 64
4, 23709, Note_on_c, 0, 52, 0
4, 23712, Note_on_c, 0, 54, 64
4, 23757, Note_on_c, 0, 54, 0
4, 23760, Note_on_c, 0, 52, 64
4, 23805, Note_on_c, 0, 52, 0
4, 23808, Note_on_c, 0, 54, 64
4, 23853, Note_on_c, 0, 54, 0
4, 23856, Note_on_c, 0, 42, 64
4, 23901, Note_on_c, 0, 42, 0
4, 23904, Note_on_c, 0, 47, 64
4, 24169, Note_on_c, 0, 47, 0
4, 24192, Note_on_c, 0, 54, 64
4, 24281, Note_on_c, 0, 54, 0
4, 24336, Note_on_c, 0, 57, 64
4, 24359, Note_on_c, 0, 57, 0
4, 24360, Note_on_c, 0, 55, 64
4, 24383, Note_on_c, 0, 55, 0
4, 24384, Note_on_c, 0, 54, 64
4, 24429, Note_on_c, 0, 54, 0
4, 24432, Note_on_c, 0, 52, 64
4, 24477, Note_on_c, 0, 52, 0
4, 24480, Note_on_c, 0, 51, 64
4, 24569, Note_on_c, 0, 51, 0
4, 24624, Note_on_c, 0, 54, 64
4, 24647, Note_on_c, 0, 54, 0
4, 24648, Note_on_c, 0, 52, 64
4, 24671, Note_on_c, 0, 52, 0
4, 24672, Note_on_c, 0, 51, 64
4, 24717, Note_on_c, 0, 51, 0
4, 24720, Note_on_c, 0, 49, 64
4, 24765, Note_on_c, 0, 49, 0
4, 24768, Note_on_c, 0, 47, 64
4, 24813, Note_on_c, 0, 47, 0
4, 24816, Note_on_c, 0, 57, 64
4, 24861, Note_on_c, 0, 57, 0
4, 24864, Note_on_c, 0, 54, 64
4, 24909, Note_on_c, 0, 54, 0
4, 24912, Note_on_c, 0, 51, 64
4, 24957, Note_on_c, 0, 51, 0
4, 24960, Note_on_c, 0, 47, 64
4, 25005, Note_on_c, 0, 47, 0
4, 25008, Note_on_c, 0, 59, 64
4, 25053, Note_on_c, 0, 59, 0
4, 25056, Note_on_c, 0, 52, 64
4, 25145, Note_on_c, 0, 52, 0
4, 25200, Note_on_c, 0, 55, 64
4, 25223, Note_on_c, 0, 55, 0
4, 25224, Note_on_c, 0, 54, 64
4, 25247, Note_on_c, 0, 54, 0
4, 25248, Note_on_c, 0, 52, 64
4, 25293, Note_on_c, 0, 52, 0
4, 25296, Note_on_c, 0, 50, 64
4, 25341, Note_on_c, 0, 50, 0
4, 25344, Note_on_c, 0, 49, 64
4, 25433, Note_on_c, 0, 49, 0
4, 25488, Note_on_c, 0, 52, 64
4, 25511, Note_on_c, 0, 52, 0
4, 25512, Note_on_c, 0, 50, 64
4, 25535, Note_on_c, 0, 50, 0
4, 25536, Note_on_c, 0, 49, 64
4, 25581, Note_on_c, 0, 49, 0
4, 25584, Note_on_c, 0, 47, 64
4, 25629, Note_on_c, 0, 47, 0
4, 25632, Note_on_c, 0, 45, 64
4, 25677, Note_on_c, 0, 45, 0
4, 25680, Note_on_c, 0, 55, 64
4, 25725, Note_on_c, 0, 55, 0
4, 25728, Note_on_c, 0, 52, 64
4, 25773, Note_on_c, 0, 52, 0
4, 25776, Note_on_c, 0, 49, 64
4, 25821, Note_on_c, 0, 49, 0
4, 25824, Note_on_c, 0, 45, 64
4, 25869, Note_on_c, 0, 45, 0
4, 25872, Note_on_c, 0, 57, 64
4, 25917, Note_on_c, 0, 57, 0
4, 25920, Note_on_c, 0, 50, 64
4, 25965, Note_on_c, 0, 50, 0
4, 25968, Note_on_c, 0, 50, 64
4, 26013, Note_on_c, 0, 50, 0
4, 26016, Note_on_c, 0, 50, 64
4, 26061, Note_on_c, 0, 50, 0
4, 26064, Note_on_c, 0, 50, 64
4, 26109, Note_on_c, 0, 50, 0
4, 26112, Note_on_c, 0, 50, 64
4, 26157, Note_on_c, 0, 50, 0
4, 26160, Note_on_c, 0, 50, 64
4, 26205, Note_on_c, 0, 50, 0
4, 26208, Note_on_c, 0, 50, 64
4, 26253, Note_on_c, 0, 50, 0
4, 26256, Note_on_c, 0, 54, 64
4, 26279, Note_on_c, 0, 54, 0
4, 26280, Note_on_c, 0, 52, 64
4, 26303, Note_on_c, 0, 52, 0
4, 26304, Note_on_c, 0, 50, 64
4, 26349, Note_on_c, 0, 50, 0
4, 26352, Note_on_c, 0, 50, 64
4, 26397, Note_on_c, 0, 50, 0
4, 26400, Note_on_c, 0, 50, 64
4, 26445, Note_on_c, 0, 50, 0
4, 26448, Note_on_c, 0, 50, 64
4, 26493, Note_on_c, 0, 50, 0
4, 26496, Note_on_c, 0, 50, 64
4, 26541, Note_on_c, 0, 50, 0
4, 26544, Note_on_c, 0, 47, 64
4, 26567, Note_on_c, 0, 47, 0
4, 26568, Note_on_c, 0, 49, 64
4, 26591, Note_on_c, 0, 49, 0
4, 26592, Note_on_c, 0, 50, 64
4, 26637, Note_on_c, 0, 50, 0
4, 26640, Note_on_c, 0, 52, 64
4, 26663, Note_on_c, 0, 52, 0
4, 26664, Note_on_c, 0, 54, 64
4, 26687, Note_on_c, 0, 54, 0
4, 26688, Note_on_c, 0, 56, 64
4, 26733, Note_on_c, 0, 56, 0
4, 26736, Note_on_c, 0, 52, 64
4, 26781, Note_on_c, 0, 52, 0
4, 26784, Note_on_c, 0, 57, 64
4, 26829, Note_on_c, 0, 57, 0
4, 26832, Note_on_c, 0, 45, 64
4, 26855, Note_on_c, 0, 45, 0
4, 26856, Note_on_c, 0, 47, 64
4, 26879, Note_on_c, 0, 47, 0
4, 26880, Note_on_c, 0, 49, 64
4, 26903, Note_on_c, 0, 49, 0
4, 26904, Note_on_c, 0, 52, 64
4, 26927, Note_on_c, 0, 52, 0
4, 26928, Note_on_c, 0, 57, 64
4, 26951, Note_on_c, 0, 57, 0
4, 26952, Note_on_c, 0, 52, 64
4, 26975, Note_on_c, 0, 52, 0
4, 26976, Note_on_c, 0, 49, 64
4, 26999, Note_on_c, 0, 49, 0
4, 27000, Note_on_c, 0, 52, 64
4, 27023, Note_on_c, 0, 52, 0
4, 27024, Note_on_c, 0, 47, 64
4, 27047, Note_on_c, 0, 47, 0
4, 27048, Note_on_c, 0, 52, 64
4, 27071, Note_on_c, 0, 52, 0
4, 27072, Note_on_c, 0, 49, 64
4, 27095, Note_on_c, 0, 49, 0
4, 27096, Note_on_c, 0, 47, 64
4, 27119, Note_on_c, 0, 47, 0
4, 27120, Note_on_c, 0, 45, 64
4, 27143, Note_on_c, 0, 45, 0
4, 27144, Note_on_c, 0, 47, 64
4, 27167, Note_on_c, 0, 47, 0
4, 27168, Note_on_c, 0, 49, 64
4, 27191, Note_on_c, 0, 49, 0
4, 27192, Note_on_c, 0, 52, 64
4, 27215, Note_on_c, 0, 52, 0
4, 27216, Note_on_c, 0, 57, 64
4, 27239, Note_on_c, 0, 57, 0
4, 27240, Note_on_c, 0, 52, 64
4, 27263, Note_on_c, 0, 52, 0
4, 27264, Note_on_c, 0, 50, 64
4, 27287, Note_on_c, 0, 50, 0
4, 27288, Note_on_c, 0, 49, 64
4, 27311, Note_on_c, 0, 49, 0
4, 27312, Note_on_c, 0, 47, 64
4, 27335, Note_on_c, 0, 47, 0
4, 27336, Note_on_c, 0, 45, 64
4, 27359, Note_on_c, 0, 45, 0
4, 27360, Note_on_c, 0, 44, 64
4, 27383, Note_on_c, 0, 44, 0
4, 27384, Note_on_c, 0, 42, 64
4, 27407, Note_on_c, 0, 42, 0
4, 27408, Note_on_c, 0, 40, 64
4, 27431, Note_on_c, 0, 40, 0
4, 27432, Note_on_c, 0, 42, 64
4, 27455, Note_on_c, 0, 42, 0
4, 27456, Note_on_c, 0, 44, 64
4, 27479, Note_on_c, 0, 44, 0
4, 27480, Note_on_c, 0, 45, 64
4, 27503, Note_on_c, 0, 45, 0
4, 27504, Note_on_c, 0, 47, 64
4, 27527, Note_on_c, 0, 47, 0
4, 27528, Note_on_c, 0, 49, 64
4, 27551, Note_on_c, 0, 49, 0
4, 27552, Note_on_c, 0, 50, 64
4, 27575, Note_on_c, 0, 50, 0
4, 27576, Note_on_c, 0, 49, 64
4, 27599, Note_on_c, 0, 49, 0
4, 27600, Note_on_c, 0, 50, 64
4, 27623, Note_on_c, 0, 50, 0
4, 27624, Note_on_c, 0, 47, 64
4, 27647, Note_on_c, 0, 47, 0
4, 27648, Note_on_c, 0, 49, 64
4, 27693, Note_on_c, 0, 49, 0
4, 27696, Note_on_c, 0, 54, 64
4, 27741, Note_on_c, 0, 54, 0
4, 27744, Note_on_c, 0, 51, 64
4, 27789, Note_on_c, 0, 51, 0
4, 27792, Note_on_c, 0, 47, 64
4, 27815, Note_on_c, 0, 47, 0
4, 27816, Note_on_c, 0, 49, 64
4, 27839, Note_on_c, 0, 49, 0
4, 27840, Note_on_c, 0, 51, 64
4, 27885, Note_on_c, 0, 51, 0
4, 27888, Note_on_c, 0, 47, 64
4, 27933, Note_on_c, 0, 47, 0
4, 27936, Note_on_c, 0, 52, 64
4, 28025, Note_on_c, 0, 52, 0
4, 28080, Note_on_c, 0, 52, 64
4, 28125, Note_on_c, 0, 52, 0
4, 28128, Note_on_c, 0, 64, 64
4, 28173, Note_on_c, 0, 64, 0
4, 28176, Note_on_c, 0, 63, 64
4, 28221, Note_on_c, 0, 63, 0
4, 28224, Note_on_c, 0, 64, 64
4, 28313, Note_on_c, 0, 64, 0
4, 28368, Note_on_c, 0, 52, 64
4, 28391, Note_on_c, 0, 52, 0
4, 28392, Note_on_c, 0, 54, 64
4, 28415, Note_on_c, 0, 54, 0
4, 28416, Note_on_c, 0, 55, 64
4, 28461, Note_on_c, 0, 55, 0
4, 28464, Note_on_c, 0, 57, 64
4, 28509, Note_on_c, 0, 57, 0
4, 28512, Note_on_c, 0, 59, 64
4, 28601, Note_on_c, 0, 59, 0
4, 28656, Note_on_c, 0, 63, 64
4, 28679, Note_on_c, 0, 63, 0
4, 28680, Note_on_c, 0, 61, 64
4, 28703, Note_on_c, 0, 61, 0
4, 28704, Note_on_c, 0, 63, 64
4, 28749, Note_on_c, 0, 63, 0
4, 28752, Note_on_c, 0, 59, 64
4, 28797, Note_on_c, 0, 59, 0
4, 28800, Note_on_c, 0, 52, 64
4, 28845, Note_on_c, 0, 52, 0
4, 28848, Note_on_c, 0, 60, 64
4, 28893, Note_on_c, 0, 60, 0
4, 28896, Note_on_c, 0, 50, 64
4, 28941, Note_on_c, 0, 50, 0
4, 28944, Note_on_c, 0, 59, 64
4, 28989, Note_on_c, 0, 59, 0
4, 28992, Note_on_c, 0, 48, 64
4, 29037, Note_on_c, 0, 48, 0
4, 29040, Note_on_c, 0, 57, 64
4, 29085, Note_on_c, 0, 57, 0
4, 29088, Note_on_c, 0, 47, 64
4, 29133, Note_on_c, 0, 47, 0
4, 29136, Note_on_c, 0, 57, 64
4, 29181, Note_on_c, 0, 57, 0
4, 29184, Note_on_c, 0, 57, 64
4, 29229, Note_on_c, 0, 57, 0
4, 29232, Note_on_c, 0, 57, 64
4, 29277, Note_on_c, 0, 57, 0
4, 29280, Note_on_c, 0, 57, 64
4, 29325, Note_on_c, 0, 57, 0
4, 29328, Note_on_c, 0, 57, 64
4, 29373, Note_on_c, 0, 57, 0
4, 29376, Note_on_c, 0, 57, 64
4, 29421, Note_on_c, 0, 57, 0
4, 29424, Note_on_c, 0, 60, 64
4, 29447, Note_on_c, 0, 60, 0
4, 29448, Note_on_c, 0, 59, 64
4, 29471, Note_on_c, 0, 59, 0
4, 29472, Note_on_c, 0, 57, 64
4, 29517, Note_on_c, 0, 57, 0
4, 29520, Note_on_c, 0, 57, 64
4, 29565, Note_on_c, 0, 57, 0
4, 29568, Note_on_c, 0, 57, 64
4, 29613, Note_on_c, 0, 57, 0
4, 29616, Note_on_c, 0, 57, 64
4, 29661, Note_on_c, 0, 57, 0
4, 29664, Note_on_c, 0, 57, 64
4, 29709, Note_on_c, 0, 57, 0
4, 29712, Note_on_c, 0, 54, 64
4, 29735, Note_on_c, 0, 54, 0
4, 29736, Note_on_c, 0, 55, 64
4, 29759, Note_on_c, 0, 55, 0
4, 29760, Note_on_c, 0, 57, 64
4, 29805, Note_on_c, 0, 57, 0
4, 29808, Note_on_c, 0, 55, 64
4, 29831, Note_on_c, 0, 55, 0
4, 29832, Note_on_c, 0, 57, 64
4, 29855, Note_on_c, 0, 57, 0
4, 29856, Note_on_c, 0, 59, 64
4, 29901, Note_on_c, 0, 59, 0
4, 29904, Note_on_c, 0, 54, 64
4, 29949, Note_on_c, 0, 54, 0
4, 29952, Note_on_c, 0, 55, 64
4, 29975, Note_on_c, 0, 55, 0
4, 29976, Note_on_c, 0, 54, 64
4, 29999, Note_on_c, 0, 54, 0
4, 30000, Note_on_c, 0, 52, 64
4, 30023, Note_on_c, 0, 52, 0
4, 30024, Note_on_c, 0, 54, 64
4, 30047, Note_on_c, 0, 54, 0
4, 30048, Note_on_c, 0, 55, 64
4, 30071, Note_on_c, 0, 55, 0
4, 30072, Note_on_c, 0, 57, 64
4, 30095, Note_on_c, 0, 57, 0
4, 30096, Note_on_c, 0, 59, 64
4, 30119, Note_on_c, 0, 59, 0
4, 30120, Note_on_c, 0, 57, 64
4, 30143, Note_on_c, 0, 57, 0
4, 30144, Note_on_c, 0, 55, 64
4, 30167, Note_on_c, 0, 55, 0
4, 30168, Note_on_c, 0, 59, 64
4, 30191, Note_on_c, 0, 59, 0
4, 30192, Note_on_c, 0, 54, 64
4, 30215, Note_on_c, 0, 54, 0
4, 30216, Note_on_c, 0, 59, 64
4, 30239, Note_on_c, 0, 59, 0
4, 30240, Note_on_c, 0, 52, 64
4, 30263, Note_on_c, 0, 52, 0
4, 30264, Note_on_c, 0, 50, 64
4, 30287, Note_on_c, 0, 50, 0
4, 30288, Note_on_c, 0, 49, 64
4, 30311, Note_on_c, 0, 49, 0
4, 30312, Note_on_c, 0, 50, 64
4, 30335, Note_on_c, 0, 50, 0
4, 30336, Note_on_c, 0, 52, 64
4, 30359, Note_on_c, 0, 52, 0
4, 30360, Note_on_c, 0, 54, 64
4, 30383, Note_on_c, 0, 54, 0
4, 30384, Note_on_c, 0, 55, 64
4, 30407, Note_on_c, 0, 55, 0
4, 30408, Note_on_c, 0, 54, 64
4, 30431, Note_on_c, 0, 54, 0
4, 30432, Note_on_c, 0, 52, 64
4, 30455, Note_on_c, 0, 52, 0
4, 30456, Note_on_c, 0, 55, 64
4, 30479, Note_on_c, 0, 55, 0
4, 30480, Note_on_c, 0, 50, 64
4, 30503, Note_on_c, 0, 50, 0
4, 30504, Note_on_c, 0, 55, 64
4, 30527, Note_on_c, 0, 55, 0
4, 30528, Note_on_c, 0, 49, 64
4, 30551, Note_on_c, 0, 49, 0
4, 30552, Note_on_c, 0, 50, 64
4, 30575, Note_on_c, 0, 50, 0
4, 30576, Note_on_c, 0, 52, 64
4, 30599, Note_on_c, 0, 52, 0
4, 30600, Note_on_c, 0, 50, 64
4, 30623, Note_on_c, 0, 50, 0
4, 30624, Note_on_c, 0, 49, 64
4, 30647, Note_on_c, 0, 49, 0
4, 30648, Note_on_c, 0, 47, 64
4, 30671, Note_on_c, 0, 47, 0
4, 30672, Note_on_c, 0, 45, 64
4, 30695, Note_on_c, 0, 45, 0
4, 30696, Note_on_c, 0, 43, 64
4, 30719, Note_on_c, 0, 43, 0
4, 30720, Note_on_c, 0, 42, 64
4, 30743, Note_on_c, 0, 42, 0
4, 30744, Note_on_c, 0, 40, 64
4, 30767, Note_on_c, 0, 40, 0
4, 30768, Note_on_c, 0, 38, 64
4, 30791, Note_on_c, 0, 38, 0
4, 30792, Note_on_c, 0, 37, 64
4, 30815, Note_on_c, 0, 37, 0
4, 30816, Note_on_c, 0, 38, 64
4, 30905, Note_on_c, 0, 38, 0
4, 31008, Note_on_c, 0, 50, 64
4, 31097, Note_on_c, 0, 50, 0
4, 31104, Note_on_c, 0, 57, 64
4, 31193, Note_on_c, 0, 57, 0
4, 31296, Note_on_c, 0, 58, 64
4, 31385, Note_on_c, 0, 58, 0
4, 31392, Note_on_c, 0, 59, 64
4, 31481, Note_on_c, 0, 59, 0
4, 31584, Note_on_c, 0, 47, 64
4, 31673, Note_on_c, 0, 47, 0
4, 31680, Note_on_c, 0, 42, 64
4, 31725, Note_on_c, 0, 42, 0
4, 31728, Note_on_c, 0, 54, 64
4, 31773, Note_on_c, 0, 54, 0
4, 31776, Note_on_c, 0, 54, 64
4, 31821, Note_on_c, 0, 54, 0
4, 31824, Note_on_c, 0, 54, 64
4, 31869, Note_on_c, 0, 54, 0
4, 31872, Note_on_c, 0, 54, 64
4, 31917, Note_on_c, 0, 54, 0
4, 31920, Note_on_c, 0, 54, 64
4, 31965, Note_on_c, 0, 54, 0
4, 31968, Note_on_c, 0, 54, 64
4, 32013, Note_on_c, 0, 54, 0
4, 32016, Note_on_c, 0, 59, 64
4, 32039, Note_on_c, 0, 59, 0
4, 32040, Note_on_c, 0, 58, 64
4, 32063, Note_on_c, 0, 58, 0
4, 32064, Note_on_c, 0, 59, 64
4, 32109, Note_on_c, 0, 59, 0
4, 32112, Note_on_c, 0, 54, 64
4, 32157, Note_on_c, 0, 54, 0
4, 32160, Note_on_c, 0, 54, 64
4, 32205, Note_on_c, 0, 54, 0
4, 32208, Note_on_c, 0, 54, 64
4, 32253, Note_on_c, 0, 54, 0
4, 32256, Note_on_c, 0, 54, 64
4, 32301, Note_on_c, 0, 54, 0
4, 32304, Note_on_c, 0, 61, 64
4, 32327, Note_on_c, 0, 61, 0
4, 32328, Note_on_c, 0, 59, 64
4, 32351, Note_on_c, 0, 59, 0
4, 32352, Note_on_c, 0, 61, 64
4, 32397, Note_on_c, 0, 61, 0
4, 32400, Note_on_c, 0, 54, 64
4, 32445, Note_on_c, 0, 54, 0
4, 32448, Note_on_c, 0, 54, 64
4, 32493, Note_on_c, 0, 54, 0
4, 32496, Note_on_c, 0, 54, 64
4, 32541, Note_on_c, 0, 54, 0
4, 32544, Note_on_c, 0, 54, 64
4, 32589, Note_on_c, 0, 54, 0
4, 32592, Note_on_c, 0, 62, 64
4, 32604, Note_on_c, 0, 62, 0
4, 32604, Note_on_c, 0, 61, 64
4, 32616, Note_on_c, 0, 61, 0
4, 32616, Note_on_c, 0, 59, 64
4, 32639, Note_on_c, 0, 59, 0
4, 32640, Note_on_c, 0, 61, 64
4, 32685, Note_on_c, 0, 61, 0
4, 32688, Note_on_c, 0, 61, 64
4, 32700, Note_on_c, 0, 61, 0
4, 32700, Note_on_c, 0, 59, 64
4, 32712, Note_on_c, 0, 59, 0
4, 32712, Note_on_c, 0, 58, 64
4, 32735, Note_on_c, 0, 58, 0
4, 32736, Note_on_c, 0, 59, 64
4, 32781, Note_on_c, 0, 59, 0
4, 32784, Note_on_c, 0, 59, 64
4, 32796, Note_on_c, 0, 59, 0
4, 32796, Note_on_c, 0, 58, 64
4, 32808, Note_on_c, 0, 58, 0
4, 32808, Note_on_c, 0, 56, 64
4, 32831, Note_on_c, 0, 56, 0
4, 32832, Note_on_c, 0, 58, 64
4, 32965, Note_on_c, 0, 58, 0
4, 32976, Note_on_c, 0, 54, 64
4, 33021, Note_on_c, 0, 54, 0
4, 33024, Note_on_c, 0, 59, 64
4, 33069, Note_on_c, 0, 59, 0
4, 33072, Note_on_c, 0, 54, 64
4, 33117, Note_on_c, 0, 54, 0
4, 33120, Note_on_c, 0, 55, 64
4, 33165, Note_on_c, 0, 55, 0
4, 33168, Note_on_c, 0, 52, 64
4, 33213, Note_on_c, 0, 52, 0
4, 33216, Note_on_c, 0, 54, 64
4, 33261, Note_on_c, 0, 54, 0
4, 33264, Note_on_c, 0, 52, 64
4, 33309, Note_on_c, 0, 52, 0
4, 33312, Note_on_c, 0, 54, 64
4, 33357, Note_on_c, 0, 54, 0
4, 33360, Note_on_c, 0, 42, 64
4, 33405, Note_on_c, 0, 42, 0
4, 33408, Note_on_c, 0, 47, 64
4, 33497, Note_on_c, 0, 47, 0
4, 33552, Note_on_c, 0, 59, 64
4, 33575, Note_on_c, 0, 59, 0
4, 33576, Note_on_c, 0, 61, 64
4, 33599, Note_on_c, 0, 61, 0
4, 33600, Note_on_c, 0, 59, 64
4, 33623, Note_on_c, 0, 59, 0
4, 33624, Note_on_c, 0, 57, 64
4, 33647, Note_on_c, 0, 57, 0
4, 33648, Note_on_c, 0, 55, 64
4, 33671, Note_on_c, 0, 55, 0
4, 33672, Note_on_c, 0, 54, 64
4, 33695, Note_on_c, 0, 54, 0
4, 33696, Note_on_c, 0, 52, 64
4, 33785, Note_on_c, 0, 52, 0
4, 33840, Note_on_c, 0, 40, 64
4, 33885, Note_on_c, 0, 40, 0
4, 33888, Note_on_c, 0, 52, 64
4, 33933, Note_on_c, 0, 52, 0
4, 33936, Note_on_c, 0, 51, 64
4, 33981, Note_on_c, 0, 51, 0
4, 33984, Note_on_c, 0, 52, 64
4, 34073, Note_on_c, 0, 52, 0
4, 34128, Note_on_c, 0, 52, 64
4, 34151, Note_on_c, 0, 52, 0
4, 34152, Note_on_c, 0, 51, 64
4, 34175, Note_on_c, 0, 51, 0
4, 34176, Note_on_c, 0, 52, 64
4, 34221, Note_on_c, 0, 52, 0
4, 34224, Note_on_c, 0, 54, 64
4, 34269, Note_on_c, 0, 54, 0
4, 34272, Note_on_c, 0, 55, 64
4, 34317, Note_on_c, 0, 55, 0
4, 34320, Note_on_c, 0, 52, 64
4, 34365, Note_on_c, 0, 52, 0
4, 34368, Note_on_c, 0, 58, 64
4, 34413, Note_on_c, 0, 58, 0
4, 34416, Note_on_c, 0, 54, 64
4, 34461, Note_on_c, 0, 54, 0
4, 34464, Note_on_c, 0, 59, 64
4, 34509, Note_on_c, 0, 59, 0
4, 34512, Note_on_c, 0, 54, 64
4, 34557, Note_on_c, 0, 54, 0
4, 34560, Note_on_c, 0, 50, 64
4, 34605, Note_on_c, 0, 50, 0
4, 34608, Note_on_c, 0, 52, 64
4, 34653, Note_on_c, 0, 52, 0
4, 34656, Note_on_c, 0, 54, 64
4, 34701, Note_on_c, 0, 54, 0
4, 34704, Note_on_c, 0, 52, 64
4, 34749, Note_on_c, 0, 52, 0
4, 34752, Note_on_c, 0, 54, 64
4, 34797, Note_on_c, 0, 54, 0
4, 34800, Note_on_c, 0, 42, 64
4, 34845, Note_on_c, 0, 42, 0
4, 34848, Note_on_c, 0, 47, 64
4, 35113, Note_on_c, 0, 47, 0
4, 35113, End_track
5, 0, Start_track
5, 0, MIDI_port, 0
5, 0, Title_t, "Sonata No. 1 en Si menor"
5, 0, End_track
6, 0, Start_track
6, 0, MIDI_port, 0
6, 0, Title_t, "para violin y clavicembalo"
6, 0, End_track
7, 0, Start_track
7, 0, MIDI_port, 0
7, 0, Title_t, "Cuarto Movimiento: Allegro"
7, 0, End_track
8, 0, Start_track
8, 0, MIDI_port, 0
8, 0, Title_t, "J. S. Bach (1685-1750)"
8, 0, End_track
9, 0, Start_track
9, 0, MIDI_port, 0
9, 0, Title_t, "Luis Gerardo Barajas"
9, 0, End_track
10, 0, Start_track
10, 0, MIDI_port, 0
10, 0, Title_t, "Bach keeps RuLiNg!!!"
10, 0, End_track
0, 0, End_of_file
