0, 0, Header, 1, 11, 96
1, 0, Start_track
1, 0, Sequencer_specific, 3, 0, 0, 65
1, 0, Time_signature, 4, 2, 24, 8
1, 0, Key_signature, -3, "major"
1, 0, Tempo, 666667
1, 40714, Tempo, 674157
1, 40730, Tempo, 666667
1, 40842, Tempo, 674157
1, 40890, Tempo, 681818
1, 40906, Tempo, 689655
1, 40938, Tempo, 697674
1, 40954, Tempo, 705882
1, 40986, Tempo, 714286
1, 41002, Tempo, 722892
1, 41016, Tempo, 740741
1, 41040, Tempo, 759494
1, 41056, Tempo, 779221
1, 41064, Tempo, 800000
1, 41080, Tempo, 821918
1, 41088, Tempo, 845070
1, 41096, Tempo, 869565
1, 41104, Tempo, 895522
1, 41120, Tempo, 923077
1, 41128, Tempo, 983607
1, 41152, Tempo, 1016949
1, 41168, Tempo, 1052632
1, 41200, Tempo, 1132075
1, 41224, Tempo, 1176471
1, 41248, Tempo, 1224490
1, 41296, Tempo, 1333333
1, 41328, Tempo, 1395349
1, 41344, Tempo, 1463415
1, 41360, Tempo, 1463415
1, 41376, Tempo, 1538462
1, 41408, Tempo, 1621622
1, 41456, Tempo, 1538462
1, 41472, Tempo, 1621622
1, 41488, Tempo, 1333333
1, 41504, Tempo, 1276596
1, 41520, Tempo, 1224490
1, 41536, Tempo, 952381
1, 41552, Tempo, 444444
1, 41568, Tempo, 365854
1, 41584, Tempo, 357143
1, 41600, Tempo, 348837
1, 41616, Tempo, 319149
1, 41632, Tempo, 297030
1, 41648, Tempo, 267857
1, 41664, Tempo, 263158
1, 41680, Tempo, 240000
1, 41728, Tempo, 241935
1, 41754, Tempo, 283688
1, 41770, Tempo, 278422
1, 41802, Tempo, 272109
1, 41834, Tempo, 267261
1, 41866, Tempo, 261438
1, 41914, Tempo, 256959
1, 41946, Tempo, 253700
1, 41962, Tempo, 250522
1, 41978, Tempo, 248447
1, 41994, Tempo, 246407
1, 42010, Tempo, 242424
1, 42090, Tempo, 508475
1, 42202, Tempo, 779221
1, 42250, Tempo, 769231
1, 42266, Tempo, 750000
1, 42282, Tempo, 740741
1, 42298, Tempo, 722892
1, 42298, End_track
2, 0, Start_track
2, 0, MIDI_port, 0
2, 0, Title_t, "Violin"
2, 0, Program_c, 0, 40
2, 0, Control_c, 0, 7, 127
2, 1920, Note_on_c, 0, 79, 64
2, 1943, Note_on_c, 0, 79, 0
2, 1944, Note_on_c, 0, 81, 64
2, 1967, Note_on_c, 0, 81, 0
2, 1968, Note_on_c, 0, 82, 64
2, 1991, Note_on_c, 0, 82, 0
2, 1992, Note_on_c, 0, 79, 64
2, 2015, Note_on_c, 0, 79, 0
2, 2016, Note_on_c, 0, 81, 64
2, 2061, Note_on_c, 0, 81, 0
2, 2064, Note_on_c, 0, 74, 64
2, 2109, Note_on_c, 0, 74, 0
2, 2112, Note_on_c, 0, 79, 64
2, 2157, Note_on_c, 0, 79, 0
2, 2160, Note_on_c, 0, 67, 64
2, 2205, Note_on_c, 0, 67, 0
2, 2208, Note_on_c, 0, 82, 64
2, 2327, Note_on_c, 0, 82, 0
2, 2328, Note_on_c, 0, 81, 64
2, 2351, Note_on_c, 0, 81, 0
2, 2352, Note_on_c, 0, 82, 64
2, 2375, Note_on_c, 0, 82, 0
2, 2376, Note_on_c, 0, 86, 64
2, 2399, Note_on_c, 0, 86, 0
2, 2400, Note_on_c, 0, 84, 64
2, 2423, Note_on_c, 0, 84, 0
2, 2424, Note_on_c, 0, 82, 64
2, 2447, Note_on_c, 0, 82, 0
2, 2448, Note_on_c, 0, 81, 64
2, 2471, Note_on_c, 0, 81, 0
2, 2472, Note_on_c, 0, 84, 64
2, 2495, Note_on_c, 0, 84, 0
2, 2496, Note_on_c, 0, 82, 64
2, 2585, Note_on_c, 0, 82, 0
2, 2640, Note_on_c, 0, 86, 64
2, 2685, Note_on_c, 0, 86, 0
2, 2688, Note_on_c, 0, 75, 64
2, 2711, Note_on_c, 0, 75, 0
2, 2712, Note_on_c, 0, 74, 64
2, 2735, Note_on_c, 0, 74, 0
2, 2736, Note_on_c, 0, 75, 64
2, 2759, Note_on_c, 0, 75, 0
2, 2760, Note_on_c, 0, 79, 64
2, 2783, Note_on_c, 0, 79, 0
2, 2784, Note_on_c, 0, 84, 64
2, 2829, Note_on_c, 0, 84, 0
2, 2832, Note_on_c, 0, 84, 64
2, 2877, Note_on_c, 0, 84, 0
2, 2880, Note_on_c, 0, 84, 64
2, 2925, Note_on_c, 0, 84, 0
2, 2928, Note_on_c, 0, 74, 64
2, 2973, Note_on_c, 0, 74, 0
2, 2976, Note_on_c, 0, 82, 64
2, 3117, Note_on_c, 0, 82, 0
2, 3120, Note_on_c, 0, 87, 64
2, 3143, Note_on_c, 0, 87, 0
2, 3144, Note_on_c, 0, 86, 64
2, 3167, Note_on_c, 0, 86, 0
2, 3168, Note_on_c, 0, 84, 64
2, 3191, Note_on_c, 0, 84, 0
2, 3192, Note_on_c, 0, 82, 64
2, 3215, Note_on_c, 0, 82, 0
2, 3216, Note_on_c, 0, 81, 64
2, 3239, Note_on_c, 0, 81, 0
2, 3240, Note_on_c, 0, 79, 64
2, 3263, Note_on_c, 0, 79, 0
2, 3264, Note_on_c, 0, 78, 64
2, 3287, Note_on_c, 0, 78, 0
2, 3288, Note_on_c, 0, 74, 64
2, 3311, Note_on_c, 0, 74, 0
2, 3312, Note_on_c, 0, 75, 64
2, 3335, Note_on_c, 0, 75, 0
2, 3336, Note_on_c, 0, 74, 64
2, 3359, Note_on_c, 0, 74, 0
2, 3360, Note_on_c, 0, 72, 64
2, 3383, Note_on_c, 0, 72, 0
2, 3384, Note_on_c, 0, 81, 64
2, 3407, Note_on_c, 0, 81, 0
2, 3408, Note_on_c, 0, 74, 64
2, 3431, Note_on_c, 0, 74, 0
2, 3432, Note_on_c, 0, 72, 64
2, 3455, Note_on_c, 0, 72, 0
2, 3456, Note_on_c, 0, 70, 64
2, 3501, Note_on_c, 0, 70, 0
2, 3504, Note_on_c, 0, 79, 64
2, 3549, Note_on_c, 0, 79, 0
2, 3552, Note_on_c, 0, 69, 64
2, 3597, Note_on_c, 0, 69, 0
2, 3600, Note_on_c, 0, 78, 64
2, 3645, Note_on_c, 0, 78, 0
2, 3648, Note_on_c, 0, 79, 64
2, 3671, Note_on_c, 0, 79, 0
2, 3672, Note_on_c, 0, 82, 64
2, 3695, Note_on_c, 0, 82, 0
2, 3696, Note_on_c, 0, 79, 64
2, 3719, Note_on_c, 0, 79, 0
2, 3720, Note_on_c, 0, 77, 64
2, 3743, Note_on_c, 0, 77, 0
2, 3744, Note_on_c, 0, 76, 64
2, 3767, Note_on_c, 0, 76, 0
2, 3768, Note_on_c, 0, 73, 64
2, 3791, Note_on_c, 0, 73, 0
2, 3792, Note_on_c, 0, 72, 64
2, 3815, Note_on_c, 0, 72, 0
2, 3816, Note_on_c, 0, 70, 64
2, 3839, Note_on_c, 0, 70, 0
2, 3840, Note_on_c, 0, 68, 64
2, 3863, Note_on_c, 0, 68, 0
2, 3864, Note_on_c, 0, 67, 64
2, 3887, Note_on_c, 0, 67, 0
2, 3888, Note_on_c, 0, 68, 64
2, 3911, Note_on_c, 0, 68, 0
2, 3912, Note_on_c, 0, 72, 64
2, 3935, Note_on_c, 0, 72, 0
2, 3936, Note_on_c, 0, 77, 64
2, 4055, Note_on_c, 0, 77, 0
2, 4056, Note_on_c, 0, 80, 64
2, 4079, Note_on_c, 0, 80, 0
2, 4080, Note_on_c, 0, 77, 64
2, 4103, Note_on_c, 0, 77, 0
2, 4104, Note_on_c, 0, 74, 64
2, 4127, Note_on_c, 0, 74, 0
2, 4128, Note_on_c, 0, 71, 64
2, 4151, Note_on_c, 0, 71, 0
2, 4152, Note_on_c, 0, 68, 64
2, 4175, Note_on_c, 0, 68, 0
2, 4176, Note_on_c, 0, 67, 64
2, 4199, Note_on_c, 0, 67, 0
2, 4200, Note_on_c, 0, 65, 64
2, 4223, Note_on_c, 0, 65, 0
2, 4224, Note_on_c, 0, 63, 64
2, 4247, Note_on_c, 0, 63, 0
2, 4248, Note_on_c, 0, 65, 64
2, 4271, Note_on_c, 0, 65, 0
2, 4272, Note_on_c, 0, 67, 64
2, 4295, Note_on_c, 0, 67, 0
2, 4296, Note_on_c, 0, 75, 64
2, 4319, Note_on_c, 0, 75, 0
2, 4320, Note_on_c, 0, 71, 64
2, 4387, Note_on_c, 0, 71, 0
2, 4392, Note_on_c, 0, 72, 64
2, 4415, Note_on_c, 0, 72, 0
2, 4416, Note_on_c, 0, 72, 64
2, 4505, Note_on_c, 0, 72, 0
2, 4536, Note_on_c, 0, 72, 64
2, 4559, Note_on_c, 0, 72, 0
2, 4560, Note_on_c, 0, 74, 64
2, 4583, Note_on_c, 0, 74, 0
2, 4584, Note_on_c, 0, 75, 64
2, 4607, Note_on_c, 0, 75, 0
2, 4608, Note_on_c, 0, 68, 64
2, 4653, Note_on_c, 0, 68, 0
2, 4656, Note_on_c, 0, 72, 64
2, 4701, Note_on_c, 0, 72, 0
2, 4704, Note_on_c, 0, 74, 64
2, 4749, Note_on_c, 0, 74, 0
2, 4752, Note_on_c, 0, 77, 64
2, 4797, Note_on_c, 0, 77, 0
2, 4800, Note_on_c, 0, 70, 64
2, 4823, Note_on_c, 0, 70, 0
2, 4824, Note_on_c, 0, 74, 64
2, 4847, Note_on_c, 0, 74, 0
2, 4848, Note_on_c, 0, 75, 64
2, 4871, Note_on_c, 0, 75, 0
2, 4872, Note_on_c, 0, 77, 64
2, 4895, Note_on_c, 0, 77, 0
2, 4896, Note_on_c, 0, 79, 64
2, 5037, Note_on_c, 0, 79, 0
2, 5040, Note_on_c, 0, 77, 64
2, 5063, Note_on_c, 0, 77, 0
2, 5064, Note_on_c, 0, 75, 64
2, 5087, Note_on_c, 0, 75, 0
2, 5088, Note_on_c, 0, 74, 64
2, 5111, Note_on_c, 0, 74, 0
2, 5112, Note_on_c, 0, 75, 64
2, 5135, Note_on_c, 0, 75, 0
2, 5136, Note_on_c, 0, 77, 64
2, 5159, Note_on_c, 0, 77, 0
2, 5160, Note_on_c, 0, 74, 64
2, 5183, Note_on_c, 0, 74, 0
2, 5184, Note_on_c, 0, 70, 64
2, 5229, Note_on_c, 0, 70, 0
2, 5232, Note_on_c, 0, 75, 64
2, 5255, Note_on_c, 0, 75, 0
2, 5256, Note_on_c, 0, 74, 64
2, 5279, Note_on_c, 0, 74, 0
2, 5280, Note_on_c, 0, 72, 64
2, 5303, Note_on_c, 0, 72, 0
2, 5304, Note_on_c, 0, 74, 64
2, 5327, Note_on_c, 0, 74, 0
2, 5328, Note_on_c, 0, 75, 64
2, 5351, Note_on_c, 0, 75, 0
2, 5352, Note_on_c, 0, 72, 64
2, 5375, Note_on_c, 0, 72, 0
2, 5376, Note_on_c, 0, 68, 64
2, 5421, Note_on_c, 0, 68, 0
2, 5424, Note_on_c, 0, 72, 64
2, 5469, Note_on_c, 0, 72, 0
2, 5472, Note_on_c, 0, 77, 64
2, 5613, Note_on_c, 0, 77, 0
2, 5616, Note_on_c, 0, 71, 64
2, 5661, Note_on_c, 0, 71, 0
2, 5664, Note_on_c, 0, 80, 64
2, 5753, Note_on_c, 0, 80, 0
2, 5760, Note_on_c, 0, 80, 64
2, 5783, Note_on_c, 0, 80, 0
2, 5784, Note_on_c, 0, 79, 64
2, 5807, Note_on_c, 0, 79, 0
2, 5808, Note_on_c, 0, 77, 64
2, 5831, Note_on_c, 0, 77, 0
2, 5832, Note_on_c, 0, 75, 64
2, 5855, Note_on_c, 0, 75, 0
2, 5856, Note_on_c, 0, 79, 64
2, 5880, Note_on_c, 0, 79, 0
2, 5880, Note_on_c, 0, 77, 64
2, 5903, Note_on_c, 0, 77, 0
2, 5904, Note_on_c, 0, 75, 64
2, 5928, Note_on_c, 0, 75, 0
2, 5928, Note_on_c, 0, 74, 64
2, 5951, Note_on_c, 0, 74, 0
2, 5952, Note_on_c, 0, 75, 64
2, 5975, Note_on_c, 0, 75, 0
2, 5976, Note_on_c, 0, 74, 64
2, 5999, Note_on_c, 0, 74, 0
2, 6000, Note_on_c, 0, 75, 64
2, 6023, Note_on_c, 0, 75, 0
2, 6024, Note_on_c, 0, 79, 64
2, 6047, Note_on_c, 0, 79, 0
2, 6048, Note_on_c, 0, 84, 64
2, 6093, Note_on_c, 0, 84, 0
2, 6096, Note_on_c, 0, 84, 64
2, 6141, Note_on_c, 0, 84, 0
2, 6144, Note_on_c, 0, 84, 64
2, 6189, Note_on_c, 0, 84, 0
2, 6192, Note_on_c, 0, 74, 64
2, 6237, Note_on_c, 0, 74, 0
2, 6240, Note_on_c, 0, 82, 64
2, 6329, Note_on_c, 0, 82, 0
2, 6336, Note_on_c, 0, 72, 64
2, 6359, Note_on_c, 0, 72, 0
2, 6360, Note_on_c, 0, 70, 64
2, 6383, Note_on_c, 0, 70, 0
2, 6384, Note_on_c, 0, 72, 64
2, 6407, Note_on_c, 0, 72, 0
2, 6408, Note_on_c, 0, 75, 64
2, 6431, Note_on_c, 0, 75, 0
2, 6432, Note_on_c, 0, 80, 64
2, 6477, Note_on_c, 0, 80, 0
2, 6480, Note_on_c, 0, 80, 64
2, 6525, Note_on_c, 0, 80, 0
2, 6528, Note_on_c, 0, 80, 64
2, 6573, Note_on_c, 0, 80, 0
2, 6576, Note_on_c, 0, 70, 64
2, 6621, Note_on_c, 0, 70, 0
2, 6624, Note_on_c, 0, 79, 64
2, 6720, Note_on_c, 0, 79, 0
2, 6720, Note_on_c, 0, 68, 64
2, 6743, Note_on_c, 0, 68, 0
2, 6744, Note_on_c, 0, 67, 64
2, 6767, Note_on_c, 0, 67, 0
2, 6768, Note_on_c, 0, 68, 64
2, 6791, Note_on_c, 0, 68, 0
2, 6792, Note_on_c, 0, 72, 64
2, 6815, Note_on_c, 0, 72, 0
2, 6816, Note_on_c, 0, 77, 64
2, 6861, Note_on_c, 0, 77, 0
2, 6864, Note_on_c, 0, 77, 64
2, 6909, Note_on_c, 0, 77, 0
2, 6912, Note_on_c, 0, 77, 64
2, 6957, Note_on_c, 0, 77, 0
2, 6960, Note_on_c, 0, 67, 64
2, 7005, Note_on_c, 0, 67, 0
2, 7008, Note_on_c, 0, 75, 64
2, 7097, Note_on_c, 0, 75, 0
2, 7104, Note_on_c, 0, 75, 64
2, 7149, Note_on_c, 0, 75, 0
2, 7152, Note_on_c, 0, 84, 64
2, 7175, Note_on_c, 0, 84, 0
2, 7176, Note_on_c, 0, 82, 64
2, 7199, Note_on_c, 0, 82, 0
2, 7200, Note_on_c, 0, 80, 64
2, 7223, Note_on_c, 0, 80, 0
2, 7224, Note_on_c, 0, 79, 64
2, 7247, Note_on_c, 0, 79, 0
2, 7248, Note_on_c, 0, 77, 64
2, 7271, Note_on_c, 0, 77, 0
2, 7272, Note_on_c, 0, 75, 64
2, 7295, Note_on_c, 0, 75, 0
2, 7296, Note_on_c, 0, 74, 64
2, 7319, Note_on_c, 0, 74, 0
2, 7320, Note_on_c, 0, 72, 64
2, 7343, Note_on_c, 0, 72, 0
2, 7344, Note_on_c, 0, 70, 64
2, 7367, Note_on_c, 0, 70, 0
2, 7368, Note_on_c, 0, 72, 64
2, 7391, Note_on_c, 0, 72, 0
2, 7392, Note_on_c, 0, 74, 64
2, 7415, Note_on_c, 0, 74, 0
2, 7416, Note_on_c, 0, 75, 64
2, 7439, Note_on_c, 0, 75, 0
2, 7440, Note_on_c, 0, 77, 64
2, 7463, Note_on_c, 0, 77, 0
2, 7464, Note_on_c, 0, 68, 64
2, 7487, Note_on_c, 0, 68, 0
2, 7488, Note_on_c, 0, 67, 64
2, 7511, Note_on_c, 0, 67, 0
2, 7512, Note_on_c, 0, 65, 64
2, 7535, Note_on_c, 0, 65, 0
2, 7536, Note_on_c, 0, 67, 64
2, 7559, Note_on_c, 0, 67, 0
2, 7560, Note_on_c, 0, 70, 64
2, 7583, Note_on_c, 0, 70, 0
2, 7584, Note_on_c, 0, 75, 64
2, 7629, Note_on_c, 0, 75, 0
2, 7632, Note_on_c, 0, 67, 64
2, 7677, Note_on_c, 0, 67, 0
2, 7680, Note_on_c, 0, 65, 64
2, 7725, Note_on_c, 0, 65, 0
2, 7728, Note_on_c, 0, 75, 64
2, 7773, Note_on_c, 0, 75, 0
2, 7776, Note_on_c, 0, 74, 64
2, 7821, Note_on_c, 0, 74, 0
2, 7824, Note_on_c, 0, 70, 64
2, 7869, Note_on_c, 0, 70, 0
2, 7872, Note_on_c, 0, 68, 64
2, 7895, Note_on_c, 0, 68, 0
2, 7896, Note_on_c, 0, 67, 64
2, 7919, Note_on_c, 0, 67, 0
2, 7920, Note_on_c, 0, 68, 64
2, 7943, Note_on_c, 0, 68, 0
2, 7944, Note_on_c, 0, 72, 64
2, 7967, Note_on_c, 0, 72, 0
2, 7968, Note_on_c, 0, 77, 64
2, 8013, Note_on_c, 0, 77, 0
2, 8016, Note_on_c, 0, 68, 64
2, 8061, Note_on_c, 0, 68, 0
2, 8064, Note_on_c, 0, 67, 64
2, 8109, Note_on_c, 0, 67, 0
2, 8112, Note_on_c, 0, 77, 64
2, 8157, Note_on_c, 0, 77, 0
2, 8160, Note_on_c, 0, 75, 64
2, 8205, Note_on_c, 0, 75, 0
2, 8208, Note_on_c, 0, 72, 64
2, 8253, Note_on_c, 0, 72, 0
2, 8256, Note_on_c, 0, 70, 64
2, 8279, Note_on_c, 0, 70, 0
2, 8280, Note_on_c, 0, 69, 64
2, 8303, Note_on_c, 0, 69, 0
2, 8304, Note_on_c, 0, 70, 64
2, 8327, Note_on_c, 0, 70, 0
2, 8328, Note_on_c, 0, 74, 64
2, 8351, Note_on_c, 0, 74, 0
2, 8352, Note_on_c, 0, 79, 64
2, 8397, Note_on_c, 0, 79, 0
2, 8400, Note_on_c, 0, 70, 64
2, 8445, Note_on_c, 0, 70, 0
2, 8448, Note_on_c, 0, 69, 64
2, 8493, Note_on_c, 0, 69, 0
2, 8496, Note_on_c, 0, 79, 64
2, 8541, Note_on_c, 0, 79, 0
2, 8544, Note_on_c, 0, 78, 64
2, 8567, Note_on_c, 0, 78, 0
2, 8568, Note_on_c, 0, 74, 64
2, 8591, Note_on_c, 0, 74, 0
2, 8592, Note_on_c, 0, 76, 64
2, 8615, Note_on_c, 0, 76, 0
2, 8616, Note_on_c, 0, 78, 64
2, 8639, Note_on_c, 0, 78, 0
2, 8640, Note_on_c, 0, 79, 64
2, 8759, Note_on_c, 0, 79, 0
2, 8760, Note_on_c, 0, 82, 64
2, 8783, Note_on_c, 0, 82, 0
2, 8784, Note_on_c, 0, 81, 64
2, 8807, Note_on_c, 0, 81, 0
2, 8808, Note_on_c, 0, 79, 64
2, 8831, Note_on_c, 0, 79, 0
2, 8832, Note_on_c, 0, 78, 64
2, 8855, Note_on_c, 0, 78, 0
2, 8856, Note_on_c, 0, 79, 64
2, 8879, Note_on_c, 0, 79, 0
2, 8880, Note_on_c, 0, 81, 64
2, 8903, Note_on_c, 0, 81, 0
2, 8904, Note_on_c, 0, 74, 64
2, 8927, Note_on_c, 0, 74, 0
2, 8928, Note_on_c, 0, 79, 64
2, 9105, Note_on_c, 0, 79, 0
2, 9120, Note_on_c, 0, 78, 64
2, 9209, Note_on_c, 0, 78, 0
2, 9216, Note_on_c, 0, 79, 64
2, 9305, Note_on_c, 0, 79, 0
2, 9312, Note_on_c, 0, 70, 64
2, 9335, Note_on_c, 0, 70, 0
2, 9336, Note_on_c, 0, 68, 64
2, 9359, Note_on_c, 0, 68, 0
2, 9360, Note_on_c, 0, 70, 64
2, 9383, Note_on_c, 0, 70, 0
2, 9384, Note_on_c, 0, 75, 64
2, 9407, Note_on_c, 0, 75, 0
2, 9408, Note_on_c, 0, 80, 64
2, 9585, Note_on_c, 0, 80, 0
2, 9600, Note_on_c, 0, 79, 64
2, 9689, Note_on_c, 0, 79, 0
2, 9696, Note_on_c, 0, 67, 64
2, 9719, Note_on_c, 0, 67, 0
2, 9720, Note_on_c, 0, 65, 64
2, 9743, Note_on_c, 0, 65, 0
2, 9744, Note_on_c, 0, 67, 64
2, 9767, Note_on_c, 0, 67, 0
2, 9768, Note_on_c, 0, 72, 64
2, 9791, Note_on_c, 0, 72, 0
2, 9792, Note_on_c, 0, 77, 64
2, 9969, Note_on_c, 0, 77, 0
2, 9984, Note_on_c, 0, 75, 64
2, 10073, Note_on_c, 0, 75, 0
2, 10128, Note_on_c, 0, 79, 64
2, 10199, Note_on_c, 0, 79, 0
2, 10200, Note_on_c, 0, 77, 64
2, 10223, Note_on_c, 0, 77, 0
2, 10224, Note_on_c, 0, 75, 64
2, 10247, Note_on_c, 0, 75, 0
2, 10248, Note_on_c, 0, 74, 64
2, 10271, Note_on_c, 0, 74, 0
2, 10272, Note_on_c, 0, 72, 64
2, 10295, Note_on_c, 0, 72, 0
2, 10296, Note_on_c, 0, 70, 64
2, 10319, Note_on_c, 0, 70, 0
2, 10320, Note_on_c, 0, 68, 64
2, 10343, Note_on_c, 0, 68, 0
2, 10344, Note_on_c, 0, 67, 64
2, 10367, Note_on_c, 0, 67, 0
2, 10368, Note_on_c, 0, 68, 64
2, 10391, Note_on_c, 0, 68, 0
2, 10392, Note_on_c, 0, 65, 64
2, 10415, Note_on_c, 0, 65, 0
2, 10416, Note_on_c, 0, 70, 64
2, 10439, Note_on_c, 0, 70, 0
2, 10440, Note_on_c, 0, 67, 64
2, 10463, Note_on_c, 0, 67, 0
2, 10464, Note_on_c, 0, 72, 64
2, 10509, Note_on_c, 0, 72, 0
2, 10512, Note_on_c, 0, 70, 64
2, 10535, Note_on_c, 0, 70, 0
2, 10536, Note_on_c, 0, 68, 64
2, 10559, Note_on_c, 0, 68, 0
2, 10560, Note_on_c, 0, 68, 64
2, 10605, Note_on_c, 0, 68, 0
2, 10608, Note_on_c, 0, 67, 64
2, 10653, Note_on_c, 0, 67, 0
2, 10680, Note_on_c, 0, 67, 64
2, 10703, Note_on_c, 0, 67, 0
2, 10704, Note_on_c, 0, 69, 64
2, 10727, Note_on_c, 0, 69, 0
2, 10728, Note_on_c, 0, 71, 64
2, 10751, Note_on_c, 0, 71, 0
2, 10752, Note_on_c, 0, 72, 64
2, 10775, Note_on_c, 0, 72, 0
2, 10776, Note_on_c, 0, 71, 64
2, 10799, Note_on_c, 0, 71, 0
2, 10800, Note_on_c, 0, 72, 64
2, 10823, Note_on_c, 0, 72, 0
2, 10824, Note_on_c, 0, 75, 64
2, 10847, Note_on_c, 0, 75, 0
2, 10848, Note_on_c, 0, 74, 64
2, 10871, Note_on_c, 0, 74, 0
2, 10872, Note_on_c, 0, 72, 64
2, 10895, Note_on_c, 0, 72, 0
2, 10896, Note_on_c, 0, 71, 64
2, 10919, Note_on_c, 0, 71, 0
2, 10920, Note_on_c, 0, 72, 64
2, 10943, Note_on_c, 0, 72, 0
2, 10944, Note_on_c, 0, 74, 64
2, 10967, Note_on_c, 0, 74, 0
2, 10968, Note_on_c, 0, 72, 64
2, 10991, Note_on_c, 0, 72, 0
2, 10992, Note_on_c, 0, 71, 64
2, 11015, Note_on_c, 0, 71, 0
2, 11016, Note_on_c, 0, 69, 64
2, 11039, Note_on_c, 0, 69, 0
2, 11040, Note_on_c, 0, 67, 64
2, 11085, Note_on_c, 0, 67, 0
2, 11088, Note_on_c, 0, 72, 64
2, 11133, Note_on_c, 0, 72, 0
2, 11136, Note_on_c, 0, 68, 64
2, 11181, Note_on_c, 0, 68, 0
2, 11184, Note_on_c, 0, 65, 64
2, 11229, Note_on_c, 0, 65, 0
2, 11280, Note_on_c, 0, 68, 64
2, 11351, Note_on_c, 0, 68, 0
2, 11352, Note_on_c, 0, 65, 64
2, 11375, Note_on_c, 0, 65, 0
2, 11376, Note_on_c, 0, 62, 64
2, 11399, Note_on_c, 0, 62, 0
2, 11400, Note_on_c, 0, 59, 64
2, 11423, Note_on_c, 0, 59, 0
2, 11424, Note_on_c, 0, 55, 64
2, 11469, Note_on_c, 0, 55, 0
2, 11472, Note_on_c, 0, 71, 64
2, 11517, Note_on_c, 0, 71, 0
2, 11520, Note_on_c, 0, 72, 64
2, 11587, Note_on_c, 0, 72, 0
2, 11592, Note_on_c, 0, 74, 64
2, 11615, Note_on_c, 0, 74, 0
2, 11616, Note_on_c, 0, 74, 64
2, 11683, Note_on_c, 0, 74, 0
2, 11688, Note_on_c, 0, 72, 64
2, 11711, Note_on_c, 0, 72, 0
2, 11712, Note_on_c, 0, 72, 64
2, 11889, Note_on_c, 0, 72, 0
2, 11904, Note_on_c, 0, 72, 64
2, 12081, Note_on_c, 0, 72, 0
2, 12096, Note_on_c, 0, 72, 64
2, 12119, Note_on_c, 0, 72, 0
2, 12120, Note_on_c, 0, 71, 64
2, 12143, Note_on_c, 0, 71, 0
2, 12144, Note_on_c, 0, 72, 64
2, 12167, Note_on_c, 0, 72, 0
2, 12168, Note_on_c, 0, 77, 64
2, 12191, Note_on_c, 0, 77, 0
2, 12192, Note_on_c, 0, 80, 64
2, 12281, Note_on_c, 0, 80, 0
2, 12288, Note_on_c, 0, 80, 64
2, 12311, Note_on_c, 0, 80, 0
2, 12312, Note_on_c, 0, 79, 64
2, 12335, Note_on_c, 0, 79, 0
2, 12336, Note_on_c, 0, 80, 64
2, 12359, Note_on_c, 0, 80, 0
2, 12360, Note_on_c, 0, 83, 64
2, 12383, Note_on_c, 0, 83, 0
2, 12384, Note_on_c, 0, 86, 64
2, 12429, Note_on_c, 0, 86, 0
2, 12432, Note_on_c, 0, 77, 64
2, 12477, Note_on_c, 0, 77, 0
2, 12480, Note_on_c, 0, 75, 64
2, 12547, Note_on_c, 0, 75, 0
2, 12552, Note_on_c, 0, 74, 64
2, 12575, Note_on_c, 0, 74, 0
2, 12576, Note_on_c, 0, 74, 64
2, 12643, Note_on_c, 0, 74, 0
2, 12648, Note_on_c, 0, 72, 64
2, 12671, Note_on_c, 0, 72, 0
2, 12672, Note_on_c, 0, 72, 64
2, 12761, Note_on_c, 0, 72, 0
2, 12912, Note_on_c, 0, 80, 64
2, 12935, Note_on_c, 0, 80, 0
2, 12936, Note_on_c, 0, 77, 64
2, 12959, Note_on_c, 0, 77, 0
2, 12960, Note_on_c, 0, 74, 64
2, 12983, Note_on_c, 0, 74, 0
2, 12984, Note_on_c, 0, 75, 64
2, 12996, Note_on_c, 0, 75, 0
2, 12996, Note_on_c, 0, 77, 64
2, 13008, Note_on_c, 0, 77, 0
2, 13008, Note_on_c, 0, 75, 64
2, 13031, Note_on_c, 0, 75, 0
2, 13032, Note_on_c, 0, 74, 64
2, 13055, Note_on_c, 0, 74, 0
2, 13056, Note_on_c, 0, 74, 64
2, 13233, Note_on_c, 0, 74, 0
2, 13248, Note_on_c, 0, 74, 64
2, 13293, Note_on_c, 0, 74, 0
2, 13296, Note_on_c, 0, 72, 64
2, 13385, Note_on_c, 0, 72, 0
2, 13392, Note_on_c, 0, 71, 64
2, 13437, Note_on_c, 0, 71, 0
2, 13440, Note_on_c, 0, 72, 64
2, 13463, Note_on_c, 0, 72, 0
2, 13464, Note_on_c, 0, 74, 64
2, 13487, Note_on_c, 0, 74, 0
2, 13488, Note_on_c, 0, 75, 64
2, 13511, Note_on_c, 0, 75, 0
2, 13512, Note_on_c, 0, 72, 64
2, 13535, Note_on_c, 0, 72, 0
2, 13536, Note_on_c, 0, 74, 64
2, 13581, Note_on_c, 0, 74, 0
2, 13584, Note_on_c, 0, 67, 64
2, 13629, Note_on_c, 0, 67, 0
2, 13632, Note_on_c, 0, 72, 64
2, 13677, Note_on_c, 0, 72, 0
2, 13680, Note_on_c, 0, 60, 64
2, 13725, Note_on_c, 0, 60, 0
2, 13728, Note_on_c, 0, 75, 64
2, 13817, Note_on_c, 0, 75, 0
2, 13824, Note_on_c, 0, 75, 64
2, 13847, Note_on_c, 0, 75, 0
2, 13848, Note_on_c, 0, 74, 64
2, 13871, Note_on_c, 0, 74, 0
2, 13872, Note_on_c, 0, 75, 64
2, 13895, Note_on_c, 0, 75, 0
2, 13896, Note_on_c, 0, 79, 64
2, 13919, Note_on_c, 0, 79, 0
2, 13920, Note_on_c, 0, 77, 64
2, 13943, Note_on_c, 0, 77, 0
2, 13944, Note_on_c, 0, 75, 64
2, 13967, Note_on_c, 0, 75, 0
2, 13968, Note_on_c, 0, 74, 64
2, 13991, Note_on_c, 0, 74, 0
2, 13992, Note_on_c, 0, 77, 64
2, 14015, Note_on_c, 0, 77, 0
2, 14016, Note_on_c, 0, 75, 64
2, 14039, Note_on_c, 0, 75, 0
2, 14040, Note_on_c, 0, 74, 64
2, 14063, Note_on_c, 0, 74, 0
2, 14064, Note_on_c, 0, 72, 64
2, 14087, Note_on_c, 0, 72, 0
2, 14088, Note_on_c, 0, 74, 64
2, 14111, Note_on_c, 0, 74, 0
2, 14112, Note_on_c, 0, 75, 64
2, 14135, Note_on_c, 0, 75, 0
2, 14136, Note_on_c, 0, 78, 64
2, 14159, Note_on_c, 0, 78, 0
2, 14160, Note_on_c, 0, 79, 64
2, 14183, Note_on_c, 0, 79, 0
2, 14184, Note_on_c, 0, 81, 64
2, 14207, Note_on_c, 0, 81, 0
2, 14208, Note_on_c, 0, 70, 64
2, 14253, Note_on_c, 0, 70, 0
2, 14256, Note_on_c, 0, 74, 64
2, 14279, Note_on_c, 0, 74, 0
2, 14280, Note_on_c, 0, 70, 64
2, 14303, Note_on_c, 0, 70, 0
2, 14304, Note_on_c, 0, 67, 64
2, 14327, Note_on_c, 0, 67, 0
2, 14328, Note_on_c, 0, 69, 64
2, 14340, Note_on_c, 0, 69, 0
2, 14340, Note_on_c, 0, 70, 64
2, 14352, Note_on_c, 0, 70, 0
2, 14352, Note_on_c, 0, 69, 64
2, 14375, Note_on_c, 0, 69, 0
2, 14376, Note_on_c, 0, 67, 64
2, 14399, Note_on_c, 0, 67, 0
2, 14400, Note_on_c, 0, 67, 64
2, 14615, Note_on_c, 0, 67, 0
2, 14616, Note_on_c, 0, 66, 64
2, 14639, Note_on_c, 0, 66, 0
2, 14640, Note_on_c, 0, 69, 64
2, 14663, Note_on_c, 0, 69, 0
2, 14664, Note_on_c, 0, 72, 64
2, 14687, Note_on_c, 0, 72, 0
2, 14688, Note_on_c, 0, 75, 64
2, 14711, Note_on_c, 0, 75, 0
2, 14712, Note_on_c, 0, 74, 64
2, 14724, Note_on_c, 0, 74, 0
2, 14724, Note_on_c, 0, 72, 64
2, 14736, Note_on_c, 0, 72, 0
2, 14736, Note_on_c, 0, 74, 64
2, 14759, Note_on_c, 0, 74, 0
2, 14760, Note_on_c, 0, 69, 64
2, 14783, Note_on_c, 0, 69, 0
2, 14784, Note_on_c, 0, 70, 64
2, 14851, Note_on_c, 0, 70, 0
2, 14856, Note_on_c, 0, 72, 64
2, 14879, Note_on_c, 0, 72, 0
2, 14880, Note_on_c, 0, 70, 64
2, 14904, Note_on_c, 0, 70, 0
2, 14904, Note_on_c, 0, 69, 64
2, 14927, Note_on_c, 0, 69, 0
2, 14928, Note_on_c, 0, 74, 64
2, 14973, Note_on_c, 0, 74, 0
2, 14976, Note_on_c, 0, 70, 64
2, 15021, Note_on_c, 0, 70, 0
2, 15024, Note_on_c, 0, 67, 64
2, 15069, Note_on_c, 0, 67, 0
2, 15120, Note_on_c, 0, 74, 64
2, 15165, Note_on_c, 0, 74, 0
2, 15168, Note_on_c, 0, 74, 64
2, 15191, Note_on_c, 0, 74, 0
2, 15192, Note_on_c, 0, 72, 64
2, 15215, Note_on_c, 0, 72, 0
2, 15216, Note_on_c, 0, 74, 64
2, 15239, Note_on_c, 0, 74, 0
2, 15240, Note_on_c, 0, 75, 64
2, 15263, Note_on_c, 0, 75, 0
2, 15264, Note_on_c, 0, 77, 64
2, 15287, Note_on_c, 0, 77, 0
2, 15288, Note_on_c, 0, 75, 64
2, 15311, Note_on_c, 0, 75, 0
2, 15312, Note_on_c, 0, 74, 64
2, 15335, Note_on_c, 0, 74, 0
2, 15336, Note_on_c, 0, 77, 64
2, 15359, Note_on_c, 0, 77, 0
2, 15360, Note_on_c, 0, 75, 64
2, 15405, Note_on_c, 0, 75, 0
2, 15408, Note_on_c, 0, 76, 64
2, 15453, Note_on_c, 0, 76, 0
2, 15456, Note_on_c, 0, 77, 64
2, 15501, Note_on_c, 0, 77, 0
2, 15504, Note_on_c, 0, 78, 64
2, 15549, Note_on_c, 0, 78, 0
2, 15552, Note_on_c, 0, 79, 64
2, 15729, Note_on_c, 0, 79, 0
2, 15744, Note_on_c, 0, 79, 64
2, 15789, Note_on_c, 0, 79, 0
2, 15792, Note_on_c, 0, 77, 64
2, 15815, Note_on_c, 0, 77, 0
2, 15816, Note_on_c, 0, 76, 64
2, 15839, Note_on_c, 0, 76, 0
2, 15840, Note_on_c, 0, 77, 64
2, 15929, Note_on_c, 0, 77, 0
2, 15936, Note_on_c, 0, 77, 64
2, 15981, Note_on_c, 0, 77, 0
2, 15984, Note_on_c, 0, 75, 64
2, 16007, Note_on_c, 0, 75, 0
2, 16008, Note_on_c, 0, 74, 64
2, 16031, Note_on_c, 0, 74, 0
2, 16032, Note_on_c, 0, 75, 64
2, 16077, Note_on_c, 0, 75, 0
2, 16128, Note_on_c, 0, 65, 64
2, 16151, Note_on_c, 0, 65, 0
2, 16152, Note_on_c, 0, 63, 64
2, 16175, Note_on_c, 0, 63, 0
2, 16176, Note_on_c, 0, 65, 64
2, 16199, Note_on_c, 0, 65, 0
2, 16200, Note_on_c, 0, 68, 64
2, 16223, Note_on_c, 0, 68, 0
2, 16224, Note_on_c, 0, 74, 64
2, 16269, Note_on_c, 0, 74, 0
2, 16272, Note_on_c, 0, 70, 64
2, 16317, Note_on_c, 0, 70, 0
2, 16320, Note_on_c, 0, 70, 64
2, 16365, Note_on_c, 0, 70, 0
2, 16368, Note_on_c, 0, 68, 64
2, 16413, Note_on_c, 0, 68, 0
2, 16512, Note_on_c, 0, 73, 64
2, 16535, Note_on_c, 0, 73, 0
2, 16536, Note_on_c, 0, 72, 64
2, 16559, Note_on_c, 0, 72, 0
2, 16560, Note_on_c, 0, 73, 64
2, 16583, Note_on_c, 0, 73, 0
2, 16584, Note_on_c, 0, 77, 64
2, 16607, Note_on_c, 0, 77, 0
2, 16608, Note_on_c, 0, 82, 64
2, 16653, Note_on_c, 0, 82, 0
2, 16656, Note_on_c, 0, 79, 64
2, 16701, Note_on_c, 0, 79, 0
2, 16704, Note_on_c, 0, 79, 64
2, 16749, Note_on_c, 0, 79, 0
2, 16752, Note_on_c, 0, 77, 64
2, 16797, Note_on_c, 0, 77, 0
2, 16896, Note_on_c, 0, 70, 64
2, 16919, Note_on_c, 0, 70, 0
2, 16920, Note_on_c, 0, 68, 64
2, 16943, Note_on_c, 0, 68, 0
2, 16944, Note_on_c, 0, 70, 64
2, 16967, Note_on_c, 0, 70, 0
2, 16968, Note_on_c, 0, 73, 64
2, 16991, Note_on_c, 0, 73, 0
2, 16992, Note_on_c, 0, 79, 64
2, 17015, Note_on_c, 0, 79, 0
2, 17016, Note_on_c, 0, 77, 64
2, 17039, Note_on_c, 0, 77, 0
2, 17040, Note_on_c, 0, 79, 64
2, 17063, Note_on_c, 0, 79, 0
2, 17064, Note_on_c, 0, 82, 64
2, 17087, Note_on_c, 0, 82, 0
2, 17088, Note_on_c, 0, 79, 64
2, 17111, Note_on_c, 0, 79, 0
2, 17112, Note_on_c, 0, 84, 64
2, 17135, Note_on_c, 0, 84, 0
2, 17136, Note_on_c, 0, 80, 64
2, 17159, Note_on_c, 0, 80, 0
2, 17160, Note_on_c, 0, 77, 64
2, 17183, Note_on_c, 0, 77, 0
2, 17184, Note_on_c, 0, 79, 64
2, 17229, Note_on_c, 0, 79, 0
2, 17232, Note_on_c, 0, 72, 64
2, 17277, Note_on_c, 0, 72, 0
2, 17280, Note_on_c, 0, 77, 64
2, 17325, Note_on_c, 0, 77, 0
2, 17328, Note_on_c, 0, 65, 64
2, 17373, Note_on_c, 0, 65, 0
2, 17376, Note_on_c, 0, 80, 64
2, 17465, Note_on_c, 0, 80, 0
2, 17472, Note_on_c, 0, 80, 64
2, 17495, Note_on_c, 0, 80, 0
2, 17496, Note_on_c, 0, 79, 64
2, 17519, Note_on_c, 0, 79, 0
2, 17520, Note_on_c, 0, 80, 64
2, 17543, Note_on_c, 0, 80, 0
2, 17544, Note_on_c, 0, 84, 64
2, 17567, Note_on_c, 0, 84, 0
2, 17568, Note_on_c, 0, 82, 64
2, 17591, Note_on_c, 0, 82, 0
2, 17592, Note_on_c, 0, 80, 64
2, 17615, Note_on_c, 0, 80, 0
2, 17616, Note_on_c, 0, 79, 64
2, 17639, Note_on_c, 0, 79, 0
2, 17640, Note_on_c, 0, 82, 64
2, 17663, Note_on_c, 0, 82, 0
2, 17664, Note_on_c, 0, 80, 64
2, 17753, Note_on_c, 0, 80, 0
2, 17808, Note_on_c, 0, 84, 64
2, 17853, Note_on_c, 0, 84, 0
2, 17856, Note_on_c, 0, 73, 64
2, 17879, Note_on_c, 0, 73, 0
2, 17880, Note_on_c, 0, 72, 64
2, 17903, Note_on_c, 0, 72, 0
2, 17904, Note_on_c, 0, 73, 64
2, 17927, Note_on_c, 0, 73, 0
2, 17928, Note_on_c, 0, 77, 64
2, 17951, Note_on_c, 0, 77, 0
2, 17952, Note_on_c, 0, 82, 64
2, 17997, Note_on_c, 0, 82, 0
2, 18000, Note_on_c, 0, 82, 64
2, 18045, Note_on_c, 0, 82, 0
2, 18048, Note_on_c, 0, 82, 64
2, 18093, Note_on_c, 0, 82, 0
2, 18096, Note_on_c, 0, 72, 64
2, 18141, Note_on_c, 0, 72, 0
2, 18144, Note_on_c, 0, 80, 64
2, 18233, Note_on_c, 0, 80, 0
2, 18240, Note_on_c, 0, 80, 64
2, 18285, Note_on_c, 0, 80, 0
2, 18288, Note_on_c, 0, 85, 64
2, 18311, Note_on_c, 0, 85, 0
2, 18312, Note_on_c, 0, 84, 64
2, 18335, Note_on_c, 0, 84, 0
2, 18336, Note_on_c, 0, 82, 64
2, 18359, Note_on_c, 0, 82, 0
2, 18360, Note_on_c, 0, 80, 64
2, 18383, Note_on_c, 0, 80, 0
2, 18384, Note_on_c, 0, 79, 64
2, 18407, Note_on_c, 0, 79, 0
2, 18408, Note_on_c, 0, 77, 64
2, 18431, Note_on_c, 0, 77, 0
2, 18432, Note_on_c, 0, 76, 64
2, 18455, Note_on_c, 0, 76, 0
2, 18456, Note_on_c, 0, 72, 64
2, 18479, Note_on_c, 0, 72, 0
2, 18480, Note_on_c, 0, 73, 64
2, 18503, Note_on_c, 0, 73, 0
2, 18504, Note_on_c, 0, 72, 64
2, 18527, Note_on_c, 0, 72, 0
2, 18528, Note_on_c, 0, 70, 64
2, 18551, Note_on_c, 0, 70, 0
2, 18552, Note_on_c, 0, 79, 64
2, 18575, Note_on_c, 0, 79, 0
2, 18576, Note_on_c, 0, 72, 64
2, 18599, Note_on_c, 0, 72, 0
2, 18600, Note_on_c, 0, 70, 64
2, 18623, Note_on_c, 0, 70, 0
2, 18624, Note_on_c, 0, 68, 64
2, 18669, Note_on_c, 0, 68, 0
2, 18672, Note_on_c, 0, 77, 64
2, 18717, Note_on_c, 0, 77, 0
2, 18720, Note_on_c, 0, 67, 64
2, 18765, Note_on_c, 0, 67, 0
2, 18768, Note_on_c, 0, 76, 64
2, 18813, Note_on_c, 0, 76, 0
2, 18816, Note_on_c, 0, 65, 64
2, 18839, Note_on_c, 0, 65, 0
2, 18840, Note_on_c, 0, 64, 64
2, 18863, Note_on_c, 0, 64, 0
2, 18864, Note_on_c, 0, 65, 64
2, 18887, Note_on_c, 0, 65, 0
2, 18888, Note_on_c, 0, 70, 64
2, 18911, Note_on_c, 0, 70, 0
2, 18912, Note_on_c, 0, 73, 64
2, 18935, Note_on_c, 0, 73, 0
2, 18936, Note_on_c, 0, 70, 64
2, 18959, Note_on_c, 0, 70, 0
2, 18960, Note_on_c, 0, 69, 64
2, 18983, Note_on_c, 0, 69, 0
2, 18984, Note_on_c, 0, 70, 64
2, 19007, Note_on_c, 0, 70, 0
2, 19008, Note_on_c, 0, 63, 64
2, 19031, Note_on_c, 0, 63, 0
2, 19032, Note_on_c, 0, 61, 64
2, 19055, Note_on_c, 0, 61, 0
2, 19056, Note_on_c, 0, 63, 64
2, 19079, Note_on_c, 0, 63, 0
2, 19080, Note_on_c, 0, 69, 64
2, 19103, Note_on_c, 0, 69, 0
2, 19104, Note_on_c, 0, 72, 64
2, 19127, Note_on_c, 0, 72, 0
2, 19128, Note_on_c, 0, 69, 64
2, 19151, Note_on_c, 0, 69, 0
2, 19152, Note_on_c, 0, 67, 64
2, 19175, Note_on_c, 0, 67, 0
2, 19176, Note_on_c, 0, 69, 64
2, 19199, Note_on_c, 0, 69, 0
2, 19200, Note_on_c, 0, 61, 64
2, 19223, Note_on_c, 0, 61, 0
2, 19224, Note_on_c, 0, 60, 64
2, 19247, Note_on_c, 0, 60, 0
2, 19248, Note_on_c, 0, 61, 64
2, 19271, Note_on_c, 0, 61, 0
2, 19272, Note_on_c, 0, 65, 64
2, 19295, Note_on_c, 0, 65, 0
2, 19296, Note_on_c, 0, 70, 64
2, 19319, Note_on_c, 0, 70, 0
2, 19320, Note_on_c, 0, 66, 64
2, 19343, Note_on_c, 0, 66, 0
2, 19344, Note_on_c, 0, 65, 64
2, 19367, Note_on_c, 0, 65, 0
2, 19368, Note_on_c, 0, 66, 64
2, 19391, Note_on_c, 0, 66, 0
2, 19392, Note_on_c, 0, 64, 64
2, 19481, Note_on_c, 0, 64, 0
2, 19536, Note_on_c, 0, 77, 64
2, 19559, Note_on_c, 0, 77, 0
2, 19560, Note_on_c, 0, 76, 64
2, 19583, Note_on_c, 0, 76, 0
2, 19584, Note_on_c, 0, 77, 64
2, 19651, Note_on_c, 0, 77, 0
2, 19656, Note_on_c, 0, 79, 64
2, 19679, Note_on_c, 0, 79, 0
2, 19680, Note_on_c, 0, 76, 64
2, 19747, Note_on_c, 0, 76, 0
2, 19752, Note_on_c, 0, 77, 64
2, 19775, Note_on_c, 0, 77, 0
2, 19776, Note_on_c, 0, 77, 64
2, 19821, Note_on_c, 0, 77, 0
2, 19824, Note_on_c, 0, 79, 64
2, 19869, Note_on_c, 0, 79, 0
2, 19872, Note_on_c, 0, 80, 64
2, 19961, Note_on_c, 0, 80, 0
2, 19968, Note_on_c, 0, 80, 64
2, 20035, Note_on_c, 0, 80, 0
2, 20040, Note_on_c, 0, 82, 64
2, 20063, Note_on_c, 0, 82, 0
2, 20064, Note_on_c, 0, 80, 64
2, 20087, Note_on_c, 0, 80, 0
2, 20088, Note_on_c, 0, 79, 64
2, 20111, Note_on_c, 0, 79, 0
2, 20112, Note_on_c, 0, 77, 64
2, 20135, Note_on_c, 0, 77, 0
2, 20136, Note_on_c, 0, 79, 64
2, 20159, Note_on_c, 0, 79, 0
2, 20160, Note_on_c, 0, 77, 64
2, 20183, Note_on_c, 0, 77, 0
2, 20184, Note_on_c, 0, 69, 64
2, 20207, Note_on_c, 0, 69, 0
2, 20208, Note_on_c, 0, 70, 64
2, 20231, Note_on_c, 0, 70, 0
2, 20232, Note_on_c, 0, 72, 64
2, 20255, Note_on_c, 0, 72, 0
2, 20256, Note_on_c, 0, 74, 64
2, 20279, Note_on_c, 0, 74, 0
2, 20280, Note_on_c, 0, 75, 64
2, 20303, Note_on_c, 0, 75, 0
2, 20304, Note_on_c, 0, 77, 64
2, 20327, Note_on_c, 0, 77, 0
2, 20328, Note_on_c, 0, 74, 64
2, 20351, Note_on_c, 0, 74, 0
2, 20352, Note_on_c, 0, 71, 64
2, 20375, Note_on_c, 0, 71, 0
2, 20376, Note_on_c, 0, 72, 64
2, 20399, Note_on_c, 0, 72, 0
2, 20400, Note_on_c, 0, 74, 64
2, 20423, Note_on_c, 0, 74, 0
2, 20424, Note_on_c, 0, 71, 64
2, 20447, Note_on_c, 0, 71, 0
2, 20448, Note_on_c, 0, 67, 64
2, 20493, Note_on_c, 0, 67, 0
2, 20496, Note_on_c, 0, 72, 64
2, 20541, Note_on_c, 0, 72, 0
2, 20544, Note_on_c, 0, 72, 64
2, 20589, Note_on_c, 0, 72, 0
2, 20592, Note_on_c, 0, 71, 64
2, 20615, Note_on_c, 0, 71, 0
2, 20616, Note_on_c, 0, 72, 64
2, 20639, Note_on_c, 0, 72, 0
2, 20640, Note_on_c, 0, 74, 64
2, 20685, Note_on_c, 0, 74, 0
2, 20688, Note_on_c, 0, 74, 64
2, 20733, Note_on_c, 0, 74, 0
2, 20736, Note_on_c, 0, 74, 64
2, 20781, Note_on_c, 0, 74, 0
2, 20784, Note_on_c, 0, 72, 64
2, 20829, Note_on_c, 0, 72, 0
2, 20832, Note_on_c, 0, 77, 64
2, 20877, Note_on_c, 0, 77, 0
2, 20880, Note_on_c, 0, 77, 64
2, 20925, Note_on_c, 0, 77, 0
2, 20928, Note_on_c, 0, 77, 64
2, 20973, Note_on_c, 0, 77, 0
2, 20976, Note_on_c, 0, 75, 64
2, 20999, Note_on_c, 0, 75, 0
2, 21000, Note_on_c, 0, 77, 64
2, 21023, Note_on_c, 0, 77, 0
2, 21024, Note_on_c, 0, 79, 64
2, 21069, Note_on_c, 0, 79, 0
2, 21072, Note_on_c, 0, 79, 64
2, 21117, Note_on_c, 0, 79, 0
2, 21120, Note_on_c, 0, 79, 64
2, 21165, Note_on_c, 0, 79, 0
2, 21168, Note_on_c, 0, 77, 64
2, 21191, Note_on_c, 0, 77, 0
2, 21192, Note_on_c, 0, 79, 64
2, 21215, Note_on_c, 0, 79, 0
2, 21216, Note_on_c, 0, 80, 64
2, 21261, Note_on_c, 0, 80, 0
2, 21264, Note_on_c, 0, 80, 64
2, 21309, Note_on_c, 0, 80, 0
2, 21312, Note_on_c, 0, 80, 64
2, 21357, Note_on_c, 0, 80, 0
2, 21360, Note_on_c, 0, 79, 64
2, 21383, Note_on_c, 0, 79, 0
2, 21384, Note_on_c, 0, 80, 64
2, 21407, Note_on_c, 0, 80, 0
2, 21408, Note_on_c, 0, 82, 64
2, 21453, Note_on_c, 0, 82, 0
2, 21456, Note_on_c, 0, 70, 64
2, 21501, Note_on_c, 0, 70, 0
2, 21504, Note_on_c, 0, 72, 64
2, 21549, Note_on_c, 0, 72, 0
2, 21552, Note_on_c, 0, 75, 64
2, 21597, Note_on_c, 0, 75, 0
2, 21600, Note_on_c, 0, 80, 64
2, 21645, Note_on_c, 0, 80, 0
2, 21648, Note_on_c, 0, 74, 64
2, 21693, Note_on_c, 0, 74, 0
2, 21696, Note_on_c, 0, 79, 64
2, 21829, Note_on_c, 0, 79, 0
2, 21840, Note_on_c, 0, 72, 64
2, 21885, Note_on_c, 0, 72, 0
2, 21888, Note_on_c, 0, 77, 64
2, 21911, Note_on_c, 0, 77, 0
2, 21912, Note_on_c, 0, 79, 64
2, 21935, Note_on_c, 0, 79, 0
2, 21936, Note_on_c, 0, 77, 64
2, 21959, Note_on_c, 0, 77, 0
2, 21960, Note_on_c, 0, 75, 64
2, 21983, Note_on_c, 0, 75, 0
2, 21984, Note_on_c, 0, 74, 64
2, 22007, Note_on_c, 0, 74, 0
2, 22008, Note_on_c, 0, 72, 64
2, 22031, Note_on_c, 0, 72, 0
2, 22032, Note_on_c, 0, 71, 64
2, 22055, Note_on_c, 0, 71, 0
2, 22056, Note_on_c, 0, 74, 64
2, 22079, Note_on_c, 0, 74, 0
2, 22080, Note_on_c, 0, 67, 64
2, 22169, Note_on_c, 0, 67, 0
2, 22224, Note_on_c, 0, 71, 64
2, 22269, Note_on_c, 0, 71, 0
2, 22272, Note_on_c, 0, 72, 64
2, 22339, Note_on_c, 0, 72, 0
2, 22344, Note_on_c, 0, 74, 64
2, 22367, Note_on_c, 0, 74, 0
2, 22368, Note_on_c, 0, 71, 64
2, 22435, Note_on_c, 0, 71, 0
2, 22440, Note_on_c, 0, 72, 64
2, 22463, Note_on_c, 0, 72, 0
2, 22464, Note_on_c, 0, 72, 64
2, 22553, Note_on_c, 0, 72, 0
2, 22584, Note_on_c, 0, 79, 64
2, 22607, Note_on_c, 0, 79, 0
2, 22608, Note_on_c, 0, 77, 64
2, 22631, Note_on_c, 0, 77, 0
2, 22632, Note_on_c, 0, 75, 64
2, 22655, Note_on_c, 0, 75, 0
2, 22656, Note_on_c, 0, 74, 64
2, 22679, Note_on_c, 0, 74, 0
2, 22680, Note_on_c, 0, 72, 64
2, 22703, Note_on_c, 0, 72, 0
2, 22704, Note_on_c, 0, 69, 64
2, 22727, Note_on_c, 0, 69, 0
2, 22728, Note_on_c, 0, 72, 64
2, 22751, Note_on_c, 0, 72, 0
2, 22752, Note_on_c, 0, 73, 64
2, 22775, Note_on_c, 0, 73, 0
2, 22776, Note_on_c, 0, 72, 64
2, 22799, Note_on_c, 0, 72, 0
2, 22800, Note_on_c, 0, 73, 64
2, 22823, Note_on_c, 0, 73, 0
2, 22824, Note_on_c, 0, 79, 64
2, 22847, Note_on_c, 0, 79, 0
2, 22848, Note_on_c, 0, 79, 64
2, 22893, Note_on_c, 0, 79, 0
2, 22896, Note_on_c, 0, 68, 64
2, 22941, Note_on_c, 0, 68, 0
2, 22968, Note_on_c, 0, 75, 64
2, 22991, Note_on_c, 0, 75, 0
2, 22992, Note_on_c, 0, 74, 64
2, 23015, Note_on_c, 0, 74, 0
2, 23016, Note_on_c, 0, 72, 64
2, 23039, Note_on_c, 0, 72, 0
2, 23040, Note_on_c, 0, 70, 64
2, 23063, Note_on_c, 0, 70, 0
2, 23064, Note_on_c, 0, 68, 64
2, 23087, Note_on_c, 0, 68, 0
2, 23088, Note_on_c, 0, 67, 64
2, 23111, Note_on_c, 0, 67, 0
2, 23112, Note_on_c, 0, 68, 64
2, 23135, Note_on_c, 0, 68, 0
2, 23136, Note_on_c, 0, 70, 64
2, 23159, Note_on_c, 0, 70, 0
2, 23160, Note_on_c, 0, 68, 64
2, 23183, Note_on_c, 0, 68, 0
2, 23184, Note_on_c, 0, 70, 64
2, 23207, Note_on_c, 0, 70, 0
2, 23208, Note_on_c, 0, 75, 64
2, 23231, Note_on_c, 0, 75, 0
2, 23232, Note_on_c, 0, 75, 64
2, 23277, Note_on_c, 0, 75, 0
2, 23280, Note_on_c, 0, 65, 64
2, 23325, Note_on_c, 0, 65, 0
2, 23352, Note_on_c, 0, 72, 64
2, 23375, Note_on_c, 0, 72, 0
2, 23376, Note_on_c, 0, 70, 64
2, 23399, Note_on_c, 0, 70, 0
2, 23400, Note_on_c, 0, 68, 64
2, 23423, Note_on_c, 0, 68, 0
2, 23424, Note_on_c, 0, 67, 64
2, 23447, Note_on_c, 0, 67, 0
2, 23448, Note_on_c, 0, 65, 64
2, 23471, Note_on_c, 0, 65, 0
2, 23472, Note_on_c, 0, 63, 64
2, 23495, Note_on_c, 0, 63, 0
2, 23496, Note_on_c, 0, 65, 64
2, 23519, Note_on_c, 0, 65, 0
2, 23520, Note_on_c, 0, 67, 64
2, 23543, Note_on_c, 0, 67, 0
2, 23544, Note_on_c, 0, 68, 64
2, 23567, Note_on_c, 0, 68, 0
2, 23568, Note_on_c, 0, 70, 64
2, 23591, Note_on_c, 0, 70, 0
2, 23592, Note_on_c, 0, 67, 64
2, 23615, Note_on_c, 0, 67, 0
2, 23616, Note_on_c, 0, 72, 64
2, 23661, Note_on_c, 0, 72, 0
2, 23664, Note_on_c, 0, 62, 64
2, 23709, Note_on_c, 0, 62, 0
2, 23712, Note_on_c, 0, 63, 64
2, 23757, Note_on_c, 0, 63, 0
2, 23760, Note_on_c, 0, 72, 64
2, 23805, Note_on_c, 0, 72, 0
2, 23808, Note_on_c, 0, 65, 64
2, 23853, Note_on_c, 0, 65, 0
2, 23856, Note_on_c, 0, 67, 64
2, 23879, Note_on_c, 0, 67, 0
2, 23880, Note_on_c, 0, 68, 64
2, 23903, Note_on_c, 0, 68, 0
2, 23904, Note_on_c, 0, 70, 64
2, 23927, Note_on_c, 0, 70, 0
2, 23928, Note_on_c, 0, 72, 64
2, 23951, Note_on_c, 0, 72, 0
2, 23952, Note_on_c, 0, 74, 64
2, 23975, Note_on_c, 0, 74, 0
2, 23976, Note_on_c, 0, 70, 64
2, 23999, Note_on_c, 0, 70, 0
2, 24000, Note_on_c, 0, 75, 64
2, 24023, Note_on_c, 0, 75, 0
2, 24024, Note_on_c, 0, 77, 64
2, 24047, Note_on_c, 0, 77, 0
2, 24048, Note_on_c, 0, 79, 64
2, 24071, Note_on_c, 0, 79, 0
2, 24072, Note_on_c, 0, 75, 64
2, 24095, Note_on_c, 0, 75, 0
2, 24096, Note_on_c, 0, 77, 64
2, 24141, Note_on_c, 0, 77, 0
2, 24144, Note_on_c, 0, 70, 64
2, 24189, Note_on_c, 0, 70, 0
2, 24192, Note_on_c, 0, 75, 64
2, 24237, Note_on_c, 0, 75, 0
2, 24240, Note_on_c, 0, 63, 64
2, 24285, Note_on_c, 0, 63, 0
2, 24288, Note_on_c, 0, 79, 64
2, 24377, Note_on_c, 0, 79, 0
2, 24384, Note_on_c, 0, 79, 64
2, 24407, Note_on_c, 0, 79, 0
2, 24408, Note_on_c, 0, 78, 64
2, 24431, Note_on_c, 0, 78, 0
2, 24432, Note_on_c, 0, 79, 64
2, 24455, Note_on_c, 0, 79, 0
2, 24456, Note_on_c, 0, 82, 64
2, 24479, Note_on_c, 0, 82, 0
2, 24480, Note_on_c, 0, 81, 64
2, 24503, Note_on_c, 0, 81, 0
2, 24504, Note_on_c, 0, 79, 64
2, 24527, Note_on_c, 0, 79, 0
2, 24528, Note_on_c, 0, 78, 64
2, 24551, Note_on_c, 0, 78, 0
2, 24552, Note_on_c, 0, 81, 64
2, 24575, Note_on_c, 0, 81, 0
2, 24576, Note_on_c, 0, 79, 64
2, 24665, Note_on_c, 0, 79, 0
2, 24720, Note_on_c, 0, 82, 64
2, 24765, Note_on_c, 0, 82, 0
2, 24768, Note_on_c, 0, 72, 64
2, 24791, Note_on_c, 0, 72, 0
2, 24792, Note_on_c, 0, 70, 64
2, 24815, Note_on_c, 0, 70, 0
2, 24816, Note_on_c, 0, 72, 64
2, 24839, Note_on_c, 0, 72, 0
2, 24840, Note_on_c, 0, 75, 64
2, 24863, Note_on_c, 0, 75, 0
2, 24864, Note_on_c, 0, 80, 64
2, 24909, Note_on_c, 0, 80, 0
2, 24912, Note_on_c, 0, 80, 64
2, 24957, Note_on_c, 0, 80, 0
2, 24960, Note_on_c, 0, 80, 64
2, 25005, Note_on_c, 0, 80, 0
2, 25008, Note_on_c, 0, 70, 64
2, 25053, Note_on_c, 0, 70, 0
2, 25056, Note_on_c, 0, 79, 64
2, 25145, Note_on_c, 0, 79, 0
2, 25152, Note_on_c, 0, 79, 64
2, 25197, Note_on_c, 0, 79, 0
2, 25200, Note_on_c, 0, 84, 64
2, 25223, Note_on_c, 0, 84, 0
2, 25224, Note_on_c, 0, 82, 64
2, 25247, Note_on_c, 0, 82, 0
2, 25248, Note_on_c, 0, 80, 64
2, 25271, Note_on_c, 0, 80, 0
2, 25272, Note_on_c, 0, 79, 64
2, 25295, Note_on_c, 0, 79, 0
2, 25296, Note_on_c, 0, 77, 64
2, 25319, Note_on_c, 0, 77, 0
2, 25320, Note_on_c, 0, 75, 64
2, 25343, Note_on_c, 0, 75, 0
2, 25344, Note_on_c, 0, 74, 64
2, 25367, Note_on_c, 0, 74, 0
2, 25368, Note_on_c, 0, 70, 64
2, 25391, Note_on_c, 0, 70, 0
2, 25392, Note_on_c, 0, 72, 64
2, 25415, Note_on_c, 0, 72, 0
2, 25416, Note_on_c, 0, 70, 64
2, 25439, Note_on_c, 0, 70, 0
2, 25440, Note_on_c, 0, 68, 64
2, 25463, Note_on_c, 0, 68, 0
2, 25464, Note_on_c, 0, 77, 64
2, 25487, Note_on_c, 0, 77, 0
2, 25488, Note_on_c, 0, 70, 64
2, 25511, Note_on_c, 0, 70, 0
2, 25512, Note_on_c, 0, 68, 64
2, 25535, Note_on_c, 0, 68, 0
2, 25536, Note_on_c, 0, 67, 64
2, 25581, Note_on_c, 0, 67, 0
2, 25584, Note_on_c, 0, 75, 64
2, 25629, Note_on_c, 0, 75, 0
2, 25632, Note_on_c, 0, 65, 64
2, 25677, Note_on_c, 0, 65, 0
2, 25680, Note_on_c, 0, 74, 64
2, 25751, Note_on_c, 0, 74, 0
2, 25752, Note_on_c, 0, 67, 64
2, 25775, Note_on_c, 0, 67, 0
2, 25776, Note_on_c, 0, 69, 64
2, 25799, Note_on_c, 0, 69, 0
2, 25800, Note_on_c, 0, 70, 64
2, 25823, Note_on_c, 0, 70, 0
2, 25824, Note_on_c, 0, 72, 64
2, 25847, Note_on_c, 0, 72, 0
2, 25848, Note_on_c, 0, 74, 64
2, 25871, Note_on_c, 0, 74, 0
2, 25872, Note_on_c, 0, 75, 64
2, 25895, Note_on_c, 0, 75, 0
2, 25896, Note_on_c, 0, 77, 64
2, 25919, Note_on_c, 0, 77, 0
2, 25920, Note_on_c, 0, 79, 64
2, 25965, Note_on_c, 0, 79, 0
2, 25968, Note_on_c, 0, 77, 64
2, 26057, Note_on_c, 0, 77, 0
2, 26064, Note_on_c, 0, 81, 64
2, 26109, Note_on_c, 0, 81, 0
2, 26112, Note_on_c, 0, 82, 64
2, 26157, Note_on_c, 0, 82, 0
2, 26160, Note_on_c, 0, 81, 64
2, 26183, Note_on_c, 0, 81, 0
2, 26184, Note_on_c, 0, 79, 64
2, 26207, Note_on_c, 0, 79, 0
2, 26208, Note_on_c, 0, 77, 64
2, 26297, Note_on_c, 0, 77, 0
2, 26304, Note_on_c, 0, 77, 64
2, 26327, Note_on_c, 0, 77, 0
2, 26328, Note_on_c, 0, 75, 64
2, 26351, Note_on_c, 0, 75, 0
2, 26352, Note_on_c, 0, 74, 64
2, 26375, Note_on_c, 0, 74, 0
2, 26376, Note_on_c, 0, 72, 64
2, 26399, Note_on_c, 0, 72, 0
2, 26400, Note_on_c, 0, 70, 64
2, 26423, Note_on_c, 0, 70, 0
2, 26424, Note_on_c, 0, 69, 64
2, 26447, Note_on_c, 0, 69, 0
2, 26448, Note_on_c, 0, 67, 64
2, 26471, Note_on_c, 0, 67, 0
2, 26472, Note_on_c, 0, 65, 64
2, 26495, Note_on_c, 0, 65, 0
2, 26496, Note_on_c, 0, 67, 64
2, 26519, Note_on_c, 0, 67, 0
2, 26520, Note_on_c, 0, 64, 64
2, 26543, Note_on_c, 0, 64, 0
2, 26544, Note_on_c, 0, 69, 64
2, 26567, Note_on_c, 0, 69, 0
2, 26568, Note_on_c, 0, 65, 64
2, 26591, Note_on_c, 0, 65, 0
2, 26592, Note_on_c, 0, 70, 64
2, 26637, Note_on_c, 0, 70, 0
2, 26640, Note_on_c, 0, 69, 64
2, 26664, Note_on_c, 0, 69, 0
2, 26664, Note_on_c, 0, 67, 64
2, 26687, Note_on_c, 0, 67, 0
2, 26688, Note_on_c, 0, 67, 64
2, 26733, Note_on_c, 0, 67, 0
2, 26736, Note_on_c, 0, 65, 64
2, 26781, Note_on_c, 0, 65, 0
2, 26808, Note_on_c, 0, 65, 64
2, 26831, Note_on_c, 0, 65, 0
2, 26832, Note_on_c, 0, 67, 64
2, 26855, Note_on_c, 0, 67, 0
2, 26856, Note_on_c, 0, 69, 64
2, 26879, Note_on_c, 0, 69, 0
2, 26880, Note_on_c, 0, 70, 64
2, 26903, Note_on_c, 0, 70, 0
2, 26904, Note_on_c, 0, 69, 64
2, 26927, Note_on_c, 0, 69, 0
2, 26928, Note_on_c, 0, 70, 64
2, 26951, Note_on_c, 0, 70, 0
2, 26952, Note_on_c, 0, 74, 64
2, 26975, Note_on_c, 0, 74, 0
2, 26976, Note_on_c, 0, 72, 64
2, 26999, Note_on_c, 0, 72, 0
2, 27000, Note_on_c, 0, 70, 64
2, 27023, Note_on_c, 0, 70, 0
2, 27024, Note_on_c, 0, 69, 64
2, 27047, Note_on_c, 0, 69, 0
2, 27048, Note_on_c, 0, 70, 64
2, 27071, Note_on_c, 0, 70, 0
2, 27072, Note_on_c, 0, 72, 64
2, 27095, Note_on_c, 0, 72, 0
2, 27096, Note_on_c, 0, 70, 64
2, 27119, Note_on_c, 0, 70, 0
2, 27120, Note_on_c, 0, 69, 64
2, 27143, Note_on_c, 0, 69, 0
2, 27144, Note_on_c, 0, 67, 64
2, 27167, Note_on_c, 0, 67, 0
2, 27168, Note_on_c, 0, 65, 64
2, 27213, Note_on_c, 0, 65, 0
2, 27216, Note_on_c, 0, 70, 64
2, 27261, Note_on_c, 0, 70, 0
2, 27264, Note_on_c, 0, 67, 64
2, 27309, Note_on_c, 0, 67, 0
2, 27312, Note_on_c, 0, 63, 64
2, 27357, Note_on_c, 0, 63, 0
2, 27408, Note_on_c, 0, 79, 64
2, 27453, Note_on_c, 0, 79, 0
2, 27456, Note_on_c, 0, 79, 64
2, 27479, Note_on_c, 0, 79, 0
2, 27480, Note_on_c, 0, 75, 64
2, 27503, Note_on_c, 0, 75, 0
2, 27504, Note_on_c, 0, 72, 64
2, 27527, Note_on_c, 0, 72, 0
2, 27528, Note_on_c, 0, 69, 64
2, 27551, Note_on_c, 0, 69, 0
2, 27552, Note_on_c, 0, 65, 64
2, 27597, Note_on_c, 0, 65, 0
2, 27600, Note_on_c, 0, 69, 64
2, 27645, Note_on_c, 0, 69, 0
2, 27648, Note_on_c, 0, 70, 64
2, 27715, Note_on_c, 0, 70, 0
2, 27720, Note_on_c, 0, 72, 64
2, 27743, Note_on_c, 0, 72, 0
2, 27744, Note_on_c, 0, 72, 64
2, 27811, Note_on_c, 0, 72, 0
2, 27816, Note_on_c, 0, 70, 64
2, 27839, Note_on_c, 0, 70, 0
2, 27840, Note_on_c, 0, 70, 64
2, 27863, Note_on_c, 0, 70, 0
2, 27864, Note_on_c, 0, 69, 64
2, 27887, Note_on_c, 0, 69, 0
2, 27888, Note_on_c, 0, 70, 64
2, 27911, Note_on_c, 0, 70, 0
2, 27912, Note_on_c, 0, 74, 64
2, 27935, Note_on_c, 0, 74, 0
2, 27936, Note_on_c, 0, 77, 64
2, 27959, Note_on_c, 0, 77, 0
2, 27960, Note_on_c, 0, 74, 64
2, 27983, Note_on_c, 0, 74, 0
2, 27984, Note_on_c, 0, 72, 64
2, 28007, Note_on_c, 0, 72, 0
2, 28008, Note_on_c, 0, 70, 64
2, 28031, Note_on_c, 0, 70, 0
2, 28032, Note_on_c, 0, 69, 64
2, 28055, Note_on_c, 0, 69, 0
2, 28056, Note_on_c, 0, 70, 64
2, 28079, Note_on_c, 0, 70, 0
2, 28080, Note_on_c, 0, 72, 64
2, 28103, Note_on_c, 0, 72, 0
2, 28104, Note_on_c, 0, 76, 64
2, 28127, Note_on_c, 0, 76, 0
2, 28128, Note_on_c, 0, 77, 64
2, 28151, Note_on_c, 0, 77, 0
2, 28152, Note_on_c, 0, 69, 64
2, 28175, Note_on_c, 0, 69, 0
2, 28176, Note_on_c, 0, 72, 64
2, 28199, Note_on_c, 0, 72, 0
2, 28200, Note_on_c, 0, 71, 64
2, 28223, Note_on_c, 0, 71, 0
2, 28224, Note_on_c, 0, 72, 64
2, 28247, Note_on_c, 0, 72, 0
2, 28248, Note_on_c, 0, 71, 64
2, 28271, Note_on_c, 0, 71, 0
2, 28272, Note_on_c, 0, 72, 64
2, 28295, Note_on_c, 0, 72, 0
2, 28296, Note_on_c, 0, 75, 64
2, 28319, Note_on_c, 0, 75, 0
2, 28320, Note_on_c, 0, 79, 64
2, 28343, Note_on_c, 0, 79, 0
2, 28344, Note_on_c, 0, 75, 64
2, 28367, Note_on_c, 0, 75, 0
2, 28368, Note_on_c, 0, 74, 64
2, 28391, Note_on_c, 0, 74, 0
2, 28392, Note_on_c, 0, 72, 64
2, 28415, Note_on_c, 0, 72, 0
2, 28416, Note_on_c, 0, 70, 64
2, 28439, Note_on_c, 0, 70, 0
2, 28440, Note_on_c, 0, 72, 64
2, 28463, Note_on_c, 0, 72, 0
2, 28464, Note_on_c, 0, 74, 64
2, 28487, Note_on_c, 0, 74, 0
2, 28488, Note_on_c, 0, 78, 64
2, 28511, Note_on_c, 0, 78, 0
2, 28512, Note_on_c, 0, 79, 64
2, 28535, Note_on_c, 0, 79, 0
2, 28536, Note_on_c, 0, 70, 64
2, 28559, Note_on_c, 0, 70, 0
2, 28560, Note_on_c, 0, 74, 64
2, 28583, Note_on_c, 0, 74, 0
2, 28584, Note_on_c, 0, 73, 64
2, 28607, Note_on_c, 0, 73, 0
2, 28608, Note_on_c, 0, 74, 64
2, 28631, Note_on_c, 0, 74, 0
2, 28632, Note_on_c, 0, 73, 64
2, 28655, Note_on_c, 0, 73, 0
2, 28656, Note_on_c, 0, 74, 64
2, 28679, Note_on_c, 0, 74, 0
2, 28680, Note_on_c, 0, 77, 64
2, 28703, Note_on_c, 0, 77, 0
2, 28704, Note_on_c, 0, 81, 64
2, 28727, Note_on_c, 0, 81, 0
2, 28728, Note_on_c, 0, 77, 64
2, 28751, Note_on_c, 0, 77, 0
2, 28752, Note_on_c, 0, 76, 64
2, 28775, Note_on_c, 0, 76, 0
2, 28776, Note_on_c, 0, 74, 64
2, 28799, Note_on_c, 0, 74, 0
2, 28800, Note_on_c, 0, 73, 64
2, 28823, Note_on_c, 0, 73, 0
2, 28824, Note_on_c, 0, 74, 64
2, 28847, Note_on_c, 0, 74, 0
2, 28848, Note_on_c, 0, 76, 64
2, 28871, Note_on_c, 0, 76, 0
2, 28872, Note_on_c, 0, 73, 64
2, 28895, Note_on_c, 0, 73, 0
2, 28896, Note_on_c, 0, 69, 64
2, 28985, Note_on_c, 0, 69, 0
2, 28992, Note_on_c, 0, 69, 64
2, 29015, Note_on_c, 0, 69, 0
2, 29016, Note_on_c, 0, 62, 64
2, 29039, Note_on_c, 0, 62, 0
2, 29040, Note_on_c, 0, 64, 64
2, 29063, Note_on_c, 0, 64, 0
2, 29064, Note_on_c, 0, 65, 64
2, 29087, Note_on_c, 0, 65, 0
2, 29088, Note_on_c, 0, 67, 64
2, 29177, Note_on_c, 0, 67, 0
2, 29184, Note_on_c, 0, 67, 64
2, 29207, Note_on_c, 0, 67, 0
2, 29208, Note_on_c, 0, 70, 64
2, 29231, Note_on_c, 0, 70, 0
2, 29232, Note_on_c, 0, 69, 64
2, 29255, Note_on_c, 0, 69, 0
2, 29256, Note_on_c, 0, 67, 64
2, 29279, Note_on_c, 0, 67, 0
2, 29280, Note_on_c, 0, 65, 64
2, 29303, Note_on_c, 0, 65, 0
2, 29304, Note_on_c, 0, 69, 64
2, 29327, Note_on_c, 0, 69, 0
2, 29328, Note_on_c, 0, 74, 64
2, 29351, Note_on_c, 0, 74, 0
2, 29352, Note_on_c, 0, 72, 64
2, 29375, Note_on_c, 0, 72, 0
2, 29376, Note_on_c, 0, 70, 64
2, 29399, Note_on_c, 0, 70, 0
2, 29400, Note_on_c, 0, 69, 64
2, 29423, Note_on_c, 0, 69, 0
2, 29424, Note_on_c, 0, 67, 64
2, 29447, Note_on_c, 0, 67, 0
2, 29448, Note_on_c, 0, 65, 64
2, 29471, Note_on_c, 0, 65, 0
2, 29472, Note_on_c, 0, 67, 64
2, 29495, Note_on_c, 0, 67, 0
2, 29496, Note_on_c, 0, 65, 64
2, 29519, Note_on_c, 0, 65, 0
2, 29520, Note_on_c, 0, 64, 64
2, 29543, Note_on_c, 0, 64, 0
2, 29544, Note_on_c, 0, 65, 64
2, 29567, Note_on_c, 0, 65, 0
2, 29568, Note_on_c, 0, 62, 64
2, 29657, Note_on_c, 0, 62, 0
2, 29760, Note_on_c, 0, 67, 64
2, 29783, Note_on_c, 0, 67, 0
2, 29784, Note_on_c, 0, 65, 64
2, 29807, Note_on_c, 0, 65, 0
2, 29808, Note_on_c, 0, 67, 64
2, 29831, Note_on_c, 0, 67, 0
2, 29832, Note_on_c, 0, 70, 64
2, 29855, Note_on_c, 0, 70, 0
2, 29856, Note_on_c, 0, 75, 64
2, 29901, Note_on_c, 0, 75, 0
2, 29904, Note_on_c, 0, 69, 64
2, 29949, Note_on_c, 0, 69, 0
2, 29952, Note_on_c, 0, 69, 64
2, 29997, Note_on_c, 0, 69, 0
2, 30000, Note_on_c, 0, 67, 64
2, 30045, Note_on_c, 0, 67, 0
2, 30144, Note_on_c, 0, 72, 64
2, 30167, Note_on_c, 0, 72, 0
2, 30168, Note_on_c, 0, 70, 64
2, 30191, Note_on_c, 0, 70, 0
2, 30192, Note_on_c, 0, 72, 64
2, 30215, Note_on_c, 0, 72, 0
2, 30216, Note_on_c, 0, 78, 64
2, 30239, Note_on_c, 0, 78, 0
2, 30240, Note_on_c, 0, 81, 64
2, 30263, Note_on_c, 0, 81, 0
2, 30264, Note_on_c, 0, 79, 64
2, 30287, Note_on_c, 0, 79, 0
2, 30288, Note_on_c, 0, 81, 64
2, 30311, Note_on_c, 0, 81, 0
2, 30312, Note_on_c, 0, 84, 64
2, 30335, Note_on_c, 0, 84, 0
2, 30336, Note_on_c, 0, 81, 64
2, 30381, Note_on_c, 0, 81, 0
2, 30384, Note_on_c, 0, 79, 64
2, 30429, Note_on_c, 0, 79, 0
2, 30432, Note_on_c, 0, 70, 64
2, 30455, Note_on_c, 0, 70, 0
2, 30456, Note_on_c, 0, 68, 64
2, 30479, Note_on_c, 0, 68, 0
2, 30480, Note_on_c, 0, 70, 64
2, 30503, Note_on_c, 0, 70, 0
2, 30504, Note_on_c, 0, 75, 64
2, 30527, Note_on_c, 0, 75, 0
2, 30528, Note_on_c, 0, 80, 64
2, 30705, Note_on_c, 0, 80, 0
2, 30720, Note_on_c, 0, 79, 64
2, 30809, Note_on_c, 0, 79, 0
2, 30816, Note_on_c, 0, 67, 64
2, 30839, Note_on_c, 0, 67, 0
2, 30840, Note_on_c, 0, 65, 64
2, 30863, Note_on_c, 0, 65, 0
2, 30864, Note_on_c, 0, 67, 64
2, 30887, Note_on_c, 0, 67, 0
2, 30888, Note_on_c, 0, 72, 64
2, 30911, Note_on_c, 0, 72, 0
2, 30912, Note_on_c, 0, 77, 64
2, 31089, Note_on_c, 0, 77, 0
2, 31104, Note_on_c, 0, 75, 64
2, 31127, Note_on_c, 0, 75, 0
2, 31128, Note_on_c, 0, 67, 64
2, 31151, Note_on_c, 0, 67, 0
2, 31152, Note_on_c, 0, 69, 64
2, 31175, Note_on_c, 0, 69, 0
2, 31176, Note_on_c, 0, 71, 64
2, 31199, Note_on_c, 0, 71, 0
2, 31200, Note_on_c, 0, 72, 64
2, 31223, Note_on_c, 0, 72, 0
2, 31224, Note_on_c, 0, 74, 64
2, 31247, Note_on_c, 0, 74, 0
2, 31248, Note_on_c, 0, 75, 64
2, 31271, Note_on_c, 0, 75, 0
2, 31272, Note_on_c, 0, 72, 64
2, 31295, Note_on_c, 0, 72, 0
2, 31296, Note_on_c, 0, 69, 64
2, 31319, Note_on_c, 0, 69, 0
2, 31320, Note_on_c, 0, 70, 64
2, 31343, Note_on_c, 0, 70, 0
2, 31344, Note_on_c, 0, 72, 64
2, 31367, Note_on_c, 0, 72, 0
2, 31368, Note_on_c, 0, 69, 64
2, 31391, Note_on_c, 0, 69, 0
2, 31392, Note_on_c, 0, 65, 64
2, 31437, Note_on_c, 0, 65, 0
2, 31440, Note_on_c, 0, 70, 64
2, 31485, Note_on_c, 0, 70, 0
2, 31488, Note_on_c, 0, 70, 64
2, 31533, Note_on_c, 0, 70, 0
2, 31536, Note_on_c, 0, 69, 64
2, 31559, Note_on_c, 0, 69, 0
2, 31560, Note_on_c, 0, 70, 64
2, 31583, Note_on_c, 0, 70, 0
2, 31584, Note_on_c, 0, 72, 64
2, 31673, Note_on_c, 0, 72, 0
2, 31680, Note_on_c, 0, 72, 64
2, 31747, Note_on_c, 0, 72, 0
2, 31752, Note_on_c, 0, 74, 64
2, 31775, Note_on_c, 0, 74, 0
2, 31776, Note_on_c, 0, 72, 64
2, 31799, Note_on_c, 0, 72, 0
2, 31800, Note_on_c, 0, 70, 64
2, 31823, Note_on_c, 0, 70, 0
2, 31824, Note_on_c, 0, 69, 64
2, 31847, Note_on_c, 0, 69, 0
2, 31848, Note_on_c, 0, 70, 64
2, 31871, Note_on_c, 0, 70, 0
2, 31872, Note_on_c, 0, 69, 64
2, 31895, Note_on_c, 0, 69, 0
2, 31896, Note_on_c, 0, 75, 64
2, 31919, Note_on_c, 0, 75, 0
2, 31920, Note_on_c, 0, 72, 64
2, 31943, Note_on_c, 0, 72, 0
2, 31944, Note_on_c, 0, 69, 64
2, 31967, Note_on_c, 0, 69, 0
2, 31968, Note_on_c, 0, 66, 64
2, 31991, Note_on_c, 0, 66, 0
2, 31992, Note_on_c, 0, 63, 64
2, 32015, Note_on_c, 0, 63, 0
2, 32016, Note_on_c, 0, 62, 64
2, 32039, Note_on_c, 0, 62, 0
2, 32040, Note_on_c, 0, 60, 64
2, 32063, Note_on_c, 0, 60, 0
2, 32064, Note_on_c, 0, 58, 64
2, 32087, Note_on_c, 0, 58, 0
2, 32088, Note_on_c, 0, 60, 64
2, 32111, Note_on_c, 0, 60, 0
2, 32112, Note_on_c, 0, 62, 64
2, 32135, Note_on_c, 0, 62, 0
2, 32136, Note_on_c, 0, 70, 64
2, 32159, Note_on_c, 0, 70, 0
2, 32160, Note_on_c, 0, 66, 64
2, 32227, Note_on_c, 0, 66, 0
2, 32232, Note_on_c, 0, 67, 64
2, 32255, Note_on_c, 0, 67, 0
2, 32256, Note_on_c, 0, 67, 64
2, 32345, Note_on_c, 0, 67, 0
2, 32376, Note_on_c, 0, 67, 64
2, 32399, Note_on_c, 0, 67, 0
2, 32400, Note_on_c, 0, 69, 64
2, 32423, Note_on_c, 0, 69, 0
2, 32424, Note_on_c, 0, 70, 64
2, 32447, Note_on_c, 0, 70, 0
2, 32448, Note_on_c, 0, 63, 64
2, 32493, Note_on_c, 0, 63, 0
2, 32496, Note_on_c, 0, 67, 64
2, 32541, Note_on_c, 0, 67, 0
2, 32544, Note_on_c, 0, 69, 64
2, 32589, Note_on_c, 0, 69, 0
2, 32592, Note_on_c, 0, 72, 64
2, 32637, Note_on_c, 0, 72, 0
2, 32640, Note_on_c, 0, 65, 64
2, 32663, Note_on_c, 0, 65, 0
2, 32664, Note_on_c, 0, 69, 64
2, 32687, Note_on_c, 0, 69, 0
2, 32688, Note_on_c, 0, 70, 64
2, 32711, Note_on_c, 0, 70, 0
2, 32712, Note_on_c, 0, 72, 64
2, 32735, Note_on_c, 0, 72, 0
2, 32736, Note_on_c, 0, 74, 64
2, 32825, Note_on_c, 0, 74, 0
2, 32832, Note_on_c, 0, 74, 64
2, 32877, Note_on_c, 0, 74, 0
2, 32880, Note_on_c, 0, 72, 64
2, 32903, Note_on_c, 0, 72, 0
2, 32904, Note_on_c, 0, 70, 64
2, 32927, Note_on_c, 0, 70, 0
2, 32928, Note_on_c, 0, 69, 64
2, 32951, Note_on_c, 0, 69, 0
2, 32952, Note_on_c, 0, 70, 64
2, 32975, Note_on_c, 0, 70, 0
2, 32976, Note_on_c, 0, 72, 64
2, 32999, Note_on_c, 0, 72, 0
2, 33000, Note_on_c, 0, 69, 64
2, 33023, Note_on_c, 0, 69, 0
2, 33024, Note_on_c, 0, 66, 64
2, 33069, Note_on_c, 0, 66, 0
2, 33072, Note_on_c, 0, 70, 64
2, 33095, Note_on_c, 0, 70, 0
2, 33096, Note_on_c, 0, 69, 64
2, 33119, Note_on_c, 0, 69, 0
2, 33120, Note_on_c, 0, 67, 64
2, 33143, Note_on_c, 0, 67, 0
2, 33144, Note_on_c, 0, 69, 64
2, 33167, Note_on_c, 0, 69, 0
2, 33168, Note_on_c, 0, 70, 64
2, 33191, Note_on_c, 0, 70, 0
2, 33192, Note_on_c, 0, 67, 64
2, 33215, Note_on_c, 0, 67, 0
2, 33216, Note_on_c, 0, 63, 64
2, 33261, Note_on_c, 0, 63, 0
2, 33264, Note_on_c, 0, 67, 64
2, 33309, Note_on_c, 0, 67, 0
2, 33312, Note_on_c, 0, 72, 64
2, 33401, Note_on_c, 0, 72, 0
2, 33408, Note_on_c, 0, 72, 64
2, 33453, Note_on_c, 0, 72, 0
2, 33456, Note_on_c, 0, 66, 64
2, 33501, Note_on_c, 0, 66, 0
2, 33504, Note_on_c, 0, 75, 64
2, 33593, Note_on_c, 0, 75, 0
2, 33600, Note_on_c, 0, 75, 64
2, 33623, Note_on_c, 0, 75, 0
2, 33624, Note_on_c, 0, 74, 64
2, 33647, Note_on_c, 0, 74, 0
2, 33648, Note_on_c, 0, 72, 64
2, 33671, Note_on_c, 0, 72, 0
2, 33672, Note_on_c, 0, 70, 64
2, 33695, Note_on_c, 0, 70, 0
2, 33696, Note_on_c, 0, 74, 64
2, 33719, Note_on_c, 0, 74, 0
2, 33720, Note_on_c, 0, 72, 64
2, 33743, Note_on_c, 0, 72, 0
2, 33744, Note_on_c, 0, 70, 64
2, 33767, Note_on_c, 0, 70, 0
2, 33768, Note_on_c, 0, 69, 64
2, 33791, Note_on_c, 0, 69, 0
2, 33792, Note_on_c, 0, 70, 64
2, 33837, Note_on_c, 0, 70, 0
2, 33840, Note_on_c, 0, 74, 64
2, 33863, Note_on_c, 0, 74, 0
2, 33864, Note_on_c, 0, 70, 64
2, 33887, Note_on_c, 0, 70, 0
2, 33888, Note_on_c, 0, 67, 64
2, 33911, Note_on_c, 0, 67, 0
2, 33912, Note_on_c, 0, 69, 64
2, 33924, Note_on_c, 0, 69, 0
2, 33924, Note_on_c, 0, 70, 64
2, 33936, Note_on_c, 0, 70, 0
2, 33936, Note_on_c, 0, 69, 64
2, 33959, Note_on_c, 0, 69, 0
2, 33960, Note_on_c, 0, 67, 64
2, 33983, Note_on_c, 0, 67, 0
2, 33984, Note_on_c, 0, 67, 64
2, 34161, Note_on_c, 0, 67, 0
2, 34176, Note_on_c, 0, 67, 64
2, 34199, Note_on_c, 0, 67, 0
2, 34200, Note_on_c, 0, 66, 64
2, 34223, Note_on_c, 0, 66, 0
2, 34224, Note_on_c, 0, 69, 64
2, 34247, Note_on_c, 0, 69, 0
2, 34248, Note_on_c, 0, 72, 64
2, 34271, Note_on_c, 0, 72, 0
2, 34272, Note_on_c, 0, 75, 64
2, 34295, Note_on_c, 0, 75, 0
2, 34296, Note_on_c, 0, 74, 64
2, 34308, Note_on_c, 0, 74, 0
2, 34308, Note_on_c, 0, 72, 64
2, 34320, Note_on_c, 0, 72, 0
2, 34320, Note_on_c, 0, 74, 64
2, 34343, Note_on_c, 0, 74, 0
2, 34344, Note_on_c, 0, 69, 64
2, 34367, Note_on_c, 0, 69, 0
2, 34368, Note_on_c, 0, 70, 64
2, 34435, Note_on_c, 0, 70, 0
2, 34440, Note_on_c, 0, 72, 64
2, 34463, Note_on_c, 0, 72, 0
2, 34464, Note_on_c, 0, 70, 64
2, 34487, Note_on_c, 0, 70, 0
2, 34488, Note_on_c, 0, 69, 64
2, 34511, Note_on_c, 0, 69, 0
2, 34512, Note_on_c, 0, 74, 64
2, 34557, Note_on_c, 0, 74, 0
2, 34560, Note_on_c, 0, 70, 64
2, 34605, Note_on_c, 0, 70, 0
2, 34608, Note_on_c, 0, 67, 64
2, 34653, Note_on_c, 0, 67, 0
2, 34704, Note_on_c, 0, 74, 64
2, 34749, Note_on_c, 0, 74, 0
2, 34752, Note_on_c, 0, 74, 64
2, 34775, Note_on_c, 0, 74, 0
2, 34776, Note_on_c, 0, 72, 64
2, 34799, Note_on_c, 0, 72, 0
2, 34800, Note_on_c, 0, 74, 64
2, 34823, Note_on_c, 0, 74, 0
2, 34824, Note_on_c, 0, 75, 64
2, 34847, Note_on_c, 0, 75, 0
2, 34848, Note_on_c, 0, 77, 64
2, 34871, Note_on_c, 0, 77, 0
2, 34872, Note_on_c, 0, 75, 64
2, 34895, Note_on_c, 0, 75, 0
2, 34896, Note_on_c, 0, 74, 64
2, 34919, Note_on_c, 0, 74, 0
2, 34920, Note_on_c, 0, 77, 64
2, 34943, Note_on_c, 0, 77, 0
2, 34944, Note_on_c, 0, 75, 64
2, 34989, Note_on_c, 0, 75, 0
2, 34992, Note_on_c, 0, 76, 64
2, 35037, Note_on_c, 0, 76, 0
2, 35040, Note_on_c, 0, 77, 64
2, 35085, Note_on_c, 0, 77, 0
2, 35088, Note_on_c, 0, 78, 64
2, 35133, Note_on_c, 0, 78, 0
2, 35136, Note_on_c, 0, 79, 64
2, 35225, Note_on_c, 0, 79, 0
2, 35352, Note_on_c, 0, 74, 64
2, 35375, Note_on_c, 0, 74, 0
2, 35376, Note_on_c, 0, 75, 64
2, 35399, Note_on_c, 0, 75, 0
2, 35400, Note_on_c, 0, 77, 64
2, 35423, Note_on_c, 0, 77, 0
2, 35424, Note_on_c, 0, 79, 64
2, 35447, Note_on_c, 0, 79, 0
2, 35448, Note_on_c, 0, 80, 64
2, 35471, Note_on_c, 0, 80, 0
2, 35472, Note_on_c, 0, 82, 64
2, 35495, Note_on_c, 0, 82, 0
2, 35496, Note_on_c, 0, 79, 64
2, 35519, Note_on_c, 0, 79, 0
2, 35520, Note_on_c, 0, 80, 64
2, 35565, Note_on_c, 0, 80, 0
2, 35568, Note_on_c, 0, 80, 64
2, 35592, Note_on_c, 0, 80, 0
2, 35592, Note_on_c, 0, 77, 64
2, 35615, Note_on_c, 0, 77, 0
2, 35616, Note_on_c, 0, 74, 64
2, 35639, Note_on_c, 0, 74, 0
2, 35640, Note_on_c, 0, 75, 64
2, 35652, Note_on_c, 0, 75, 0
2, 35652, Note_on_c, 0, 77, 64
2, 35664, Note_on_c, 0, 77, 0
2, 35664, Note_on_c, 0, 75, 64
2, 35688, Note_on_c, 0, 75, 0
2, 35688, Note_on_c, 0, 74, 64
2, 35711, Note_on_c, 0, 74, 0
2, 35712, Note_on_c, 0, 74, 64
2, 35949, Note_on_c, 0, 74, 0
2, 35952, Note_on_c, 0, 72, 64
2, 36041, Note_on_c, 0, 72, 0
2, 36048, Note_on_c, 0, 71, 64
2, 36093, Note_on_c, 0, 71, 0
2, 36096, Note_on_c, 0, 72, 64
2, 36119, Note_on_c, 0, 72, 0
2, 36120, Note_on_c, 0, 74, 64
2, 36143, Note_on_c, 0, 74, 0
2, 36144, Note_on_c, 0, 75, 64
2, 36167, Note_on_c, 0, 75, 0
2, 36168, Note_on_c, 0, 72, 64
2, 36191, Note_on_c, 0, 72, 0
2, 36192, Note_on_c, 0, 74, 64
2, 36237, Note_on_c, 0, 74, 0
2, 36240, Note_on_c, 0, 67, 64
2, 36285, Note_on_c, 0, 67, 0
2, 36288, Note_on_c, 0, 72, 64
2, 36333, Note_on_c, 0, 72, 0
2, 36336, Note_on_c, 0, 60, 64
2, 36381, Note_on_c, 0, 60, 0
2, 36384, Note_on_c, 0, 75, 64
2, 36473, Note_on_c, 0, 75, 0
2, 36480, Note_on_c, 0, 75, 64
2, 36503, Note_on_c, 0, 75, 0
2, 36504, Note_on_c, 0, 74, 64
2, 36527, Note_on_c, 0, 74, 0
2, 36528, Note_on_c, 0, 75, 64
2, 36551, Note_on_c, 0, 75, 0
2, 36552, Note_on_c, 0, 79, 64
2, 36575, Note_on_c, 0, 79, 0
2, 36576, Note_on_c, 0, 77, 64
2, 36599, Note_on_c, 0, 77, 0
2, 36600, Note_on_c, 0, 75, 64
2, 36623, Note_on_c, 0, 75, 0
2, 36624, Note_on_c, 0, 74, 64
2, 36647, Note_on_c, 0, 74, 0
2, 36648, Note_on_c, 0, 77, 64
2, 36671, Note_on_c, 0, 77, 0
2, 36672, Note_on_c, 0, 75, 64
2, 36695, Note_on_c, 0, 75, 0
2, 36696, Note_on_c, 0, 79, 64
2, 36719, Note_on_c, 0, 79, 0
2, 36720, Note_on_c, 0, 75, 64
2, 36743, Note_on_c, 0, 75, 0
2, 36744, Note_on_c, 0, 72, 64
2, 36767, Note_on_c, 0, 72, 0
2, 36768, Note_on_c, 0, 69, 64
2, 36791, Note_on_c, 0, 69, 0
2, 36792, Note_on_c, 0, 79, 64
2, 36815, Note_on_c, 0, 79, 0
2, 36816, Note_on_c, 0, 77, 64
2, 36839, Note_on_c, 0, 77, 0
2, 36840, Note_on_c, 0, 75, 64
2, 36863, Note_on_c, 0, 75, 0
2, 36864, Note_on_c, 0, 74, 64
2, 36887, Note_on_c, 0, 74, 0
2, 36888, Note_on_c, 0, 77, 64
2, 36911, Note_on_c, 0, 77, 0
2, 36912, Note_on_c, 0, 74, 64
2, 36935, Note_on_c, 0, 74, 0
2, 36936, Note_on_c, 0, 70, 64
2, 36959, Note_on_c, 0, 70, 0
2, 36960, Note_on_c, 0, 67, 64
2, 36983, Note_on_c, 0, 67, 0
2, 36984, Note_on_c, 0, 77, 64
2, 37007, Note_on_c, 0, 77, 0
2, 37008, Note_on_c, 0, 75, 64
2, 37031, Note_on_c, 0, 75, 0
2, 37032, Note_on_c, 0, 73, 64
2, 37055, Note_on_c, 0, 73, 0
2, 37056, Note_on_c, 0, 72, 64
2, 37145, Note_on_c, 0, 72, 0
2, 37152, Note_on_c, 0, 72, 64
2, 37175, Note_on_c, 0, 72, 0
2, 37176, Note_on_c, 0, 73, 64
2, 37199, Note_on_c, 0, 73, 0
2, 37200, Note_on_c, 0, 72, 64
2, 37223, Note_on_c, 0, 72, 0
2, 37224, Note_on_c, 0, 70, 64
2, 37247, Note_on_c, 0, 70, 0
2, 37248, Note_on_c, 0, 68, 64
2, 37271, Note_on_c, 0, 68, 0
2, 37272, Note_on_c, 0, 67, 64
2, 37295, Note_on_c, 0, 67, 0
2, 37296, Note_on_c, 0, 68, 64
2, 37367, Note_on_c, 0, 68, 0
2, 37368, Note_on_c, 0, 80, 64
2, 37391, Note_on_c, 0, 80, 0
2, 37392, Note_on_c, 0, 79, 64
2, 37415, Note_on_c, 0, 79, 0
2, 37416, Note_on_c, 0, 77, 64
2, 37439, Note_on_c, 0, 77, 0
2, 37440, Note_on_c, 0, 75, 64
2, 37463, Note_on_c, 0, 75, 0
2, 37464, Note_on_c, 0, 74, 64
2, 37487, Note_on_c, 0, 74, 0
2, 37488, Note_on_c, 0, 75, 64
2, 37533, Note_on_c, 0, 75, 0
2, 37536, Note_on_c, 0, 75, 64
2, 37559, Note_on_c, 0, 75, 0
2, 37560, Note_on_c, 0, 75, 64
2, 37583, Note_on_c, 0, 75, 0
2, 37584, Note_on_c, 0, 74, 64
2, 37607, Note_on_c, 0, 74, 0
2, 37608, Note_on_c, 0, 72, 64
2, 37631, Note_on_c, 0, 72, 0
2, 37632, Note_on_c, 0, 71, 64
2, 37655, Note_on_c, 0, 71, 0
2, 37656, Note_on_c, 0, 69, 64
2, 37679, Note_on_c, 0, 69, 0
2, 37680, Note_on_c, 0, 71, 64
2, 37703, Note_on_c, 0, 71, 0
2, 37704, Note_on_c, 0, 74, 64
2, 37727, Note_on_c, 0, 74, 0
2, 37728, Note_on_c, 0, 79, 64
2, 37773, Note_on_c, 0, 79, 0
2, 37776, Note_on_c, 0, 79, 64
2, 37821, Note_on_c, 0, 79, 0
2, 37824, Note_on_c, 0, 79, 64
2, 37869, Note_on_c, 0, 79, 0
2, 37872, Note_on_c, 0, 68, 64
2, 37917, Note_on_c, 0, 68, 0
2, 37920, Note_on_c, 0, 77, 64
2, 38009, Note_on_c, 0, 77, 0
2, 38016, Note_on_c, 0, 67, 64
2, 38039, Note_on_c, 0, 67, 0
2, 38040, Note_on_c, 0, 65, 64
2, 38063, Note_on_c, 0, 65, 0
2, 38064, Note_on_c, 0, 67, 64
2, 38087, Note_on_c, 0, 67, 0
2, 38088, Note_on_c, 0, 71, 64
2, 38111, Note_on_c, 0, 71, 0
2, 38112, Note_on_c, 0, 75, 64
2, 38157, Note_on_c, 0, 75, 0
2, 38160, Note_on_c, 0, 75, 64
2, 38205, Note_on_c, 0, 75, 0
2, 38208, Note_on_c, 0, 75, 64
2, 38253, Note_on_c, 0, 75, 0
2, 38256, Note_on_c, 0, 65, 64
2, 38301, Note_on_c, 0, 65, 0
2, 38304, Note_on_c, 0, 74, 64
2, 38393, Note_on_c, 0, 74, 0
2, 38400, Note_on_c, 0, 63, 64
2, 38423, Note_on_c, 0, 63, 0
2, 38424, Note_on_c, 0, 62, 64
2, 38447, Note_on_c, 0, 62, 0
2, 38448, Note_on_c, 0, 63, 64
2, 38471, Note_on_c, 0, 63, 0
2, 38472, Note_on_c, 0, 67, 64
2, 38495, Note_on_c, 0, 67, 0
2, 38496, Note_on_c, 0, 72, 64
2, 38541, Note_on_c, 0, 72, 0
2, 38544, Note_on_c, 0, 72, 64
2, 38589, Note_on_c, 0, 72, 0
2, 38592, Note_on_c, 0, 72, 64
2, 38637, Note_on_c, 0, 72, 0
2, 38640, Note_on_c, 0, 62, 64
2, 38685, Note_on_c, 0, 62, 0
2, 38688, Note_on_c, 0, 71, 64
2, 38777, Note_on_c, 0, 71, 0
2, 38784, Note_on_c, 0, 72, 64
2, 38807, Note_on_c, 0, 72, 0
2, 38808, Note_on_c, 0, 74, 64
2, 38831, Note_on_c, 0, 74, 0
2, 38832, Note_on_c, 0, 75, 64
2, 38855, Note_on_c, 0, 75, 0
2, 38856, Note_on_c, 0, 72, 64
2, 38879, Note_on_c, 0, 72, 0
2, 38880, Note_on_c, 0, 74, 64
2, 38925, Note_on_c, 0, 74, 0
2, 38928, Note_on_c, 0, 67, 64
2, 38973, Note_on_c, 0, 67, 0
2, 38976, Note_on_c, 0, 72, 64
2, 39021, Note_on_c, 0, 72, 0
2, 39024, Note_on_c, 0, 60, 64
2, 39069, Note_on_c, 0, 60, 0
2, 39072, Note_on_c, 0, 75, 64
2, 39161, Note_on_c, 0, 75, 0
2, 39168, Note_on_c, 0, 75, 64
2, 39191, Note_on_c, 0, 75, 0
2, 39192, Note_on_c, 0, 74, 64
2, 39215, Note_on_c, 0, 74, 0
2, 39216, Note_on_c, 0, 75, 64
2, 39239, Note_on_c, 0, 75, 0
2, 39240, Note_on_c, 0, 79, 64
2, 39263, Note_on_c, 0, 79, 0
2, 39264, Note_on_c, 0, 77, 64
2, 39287, Note_on_c, 0, 77, 0
2, 39288, Note_on_c, 0, 75, 64
2, 39311, Note_on_c, 0, 75, 0
2, 39312, Note_on_c, 0, 74, 64
2, 39335, Note_on_c, 0, 74, 0
2, 39336, Note_on_c, 0, 77, 64
2, 39359, Note_on_c, 0, 77, 0
2, 39360, Note_on_c, 0, 75, 64
2, 39449, Note_on_c, 0, 75, 0
2, 39504, Note_on_c, 0, 79, 64
2, 39549, Note_on_c, 0, 79, 0
2, 39552, Note_on_c, 0, 68, 64
2, 39575, Note_on_c, 0, 68, 0
2, 39576, Note_on_c, 0, 67, 64
2, 39599, Note_on_c, 0, 67, 0
2, 39600, Note_on_c, 0, 68, 64
2, 39623, Note_on_c, 0, 68, 0
2, 39624, Note_on_c, 0, 72, 64
2, 39647, Note_on_c, 0, 72, 0
2, 39648, Note_on_c, 0, 77, 64
2, 39693, Note_on_c, 0, 77, 0
2, 39696, Note_on_c, 0, 77, 64
2, 39741, Note_on_c, 0, 77, 0
2, 39744, Note_on_c, 0, 77, 64
2, 39789, Note_on_c, 0, 77, 0
2, 39792, Note_on_c, 0, 67, 64
2, 39837, Note_on_c, 0, 67, 0
2, 39840, Note_on_c, 0, 75, 64
2, 39981, Note_on_c, 0, 75, 0
2, 39984, Note_on_c, 0, 80, 64
2, 40008, Note_on_c, 0, 80, 0
2, 40008, Note_on_c, 0, 79, 64
2, 40031, Note_on_c, 0, 79, 0
2, 40032, Note_on_c, 0, 77, 64
2, 40056, Note_on_c, 0, 77, 0
2, 40056, Note_on_c, 0, 75, 64
2, 40079, Note_on_c, 0, 75, 0
2, 40080, Note_on_c, 0, 74, 64
2, 40104, Note_on_c, 0, 74, 0
2, 40104, Note_on_c, 0, 72, 64
2, 40127, Note_on_c, 0, 72, 0
2, 40128, Note_on_c, 0, 71, 64
2, 40151, Note_on_c, 0, 71, 0
2, 40152, Note_on_c, 0, 67, 64
2, 40175, Note_on_c, 0, 67, 0
2, 40176, Note_on_c, 0, 68, 64
2, 40199, Note_on_c, 0, 68, 0
2, 40200, Note_on_c, 0, 67, 64
2, 40223, Note_on_c, 0, 67, 0
2, 40224, Note_on_c, 0, 65, 64
2, 40247, Note_on_c, 0, 65, 0
2, 40248, Note_on_c, 0, 74, 64
2, 40271, Note_on_c, 0, 74, 0
2, 40272, Note_on_c, 0, 67, 64
2, 40296, Note_on_c, 0, 67, 0
2, 40296, Note_on_c, 0, 65, 64
2, 40319, Note_on_c, 0, 65, 0
2, 40320, Note_on_c, 0, 63, 64
2, 40365, Note_on_c, 0, 63, 0
2, 40368, Note_on_c, 0, 72, 64
2, 40413, Note_on_c, 0, 72, 0
2, 40416, Note_on_c, 0, 62, 64
2, 40461, Note_on_c, 0, 62, 0
2, 40464, Note_on_c, 0, 71, 64
2, 40509, Note_on_c, 0, 71, 0
2, 40512, Note_on_c, 0, 72, 64
2, 40535, Note_on_c, 0, 72, 0
2, 40536, Note_on_c, 0, 70, 64
2, 40559, Note_on_c, 0, 70, 0
2, 40560, Note_on_c, 0, 72, 64
2, 40583, Note_on_c, 0, 72, 0
2, 40584, Note_on_c, 0, 77, 64
2, 40607, Note_on_c, 0, 77, 0
2, 40608, Note_on_c, 0, 80, 64
2, 40631, Note_on_c, 0, 80, 0
2, 40632, Note_on_c, 0, 77, 64
2, 40655, Note_on_c, 0, 77, 0
2, 40656, Note_on_c, 0, 76, 64
2, 40679, Note_on_c, 0, 76, 0
2, 40680, Note_on_c, 0, 77, 64
2, 40703, Note_on_c, 0, 77, 0
2, 40704, Note_on_c, 0, 70, 64
2, 40727, Note_on_c, 0, 70, 0
2, 40728, Note_on_c, 0, 68, 64
2, 40751, Note_on_c, 0, 68, 0
2, 40752, Note_on_c, 0, 70, 64
2, 40775, Note_on_c, 0, 70, 0
2, 40776, Note_on_c, 0, 76, 64
2, 40799, Note_on_c, 0, 76, 0
2, 40800, Note_on_c, 0, 79, 64
2, 40823, Note_on_c, 0, 79, 0
2, 40824, Note_on_c, 0, 76, 64
2, 40847, Note_on_c, 0, 76, 0
2, 40848, Note_on_c, 0, 74, 64
2, 40871, Note_on_c, 0, 74, 0
2, 40872, Note_on_c, 0, 76, 64
2, 40895, Note_on_c, 0, 76, 0
2, 40896, Note_on_c, 0, 68, 64
2, 40919, Note_on_c, 0, 68, 0
2, 40920, Note_on_c, 0, 67, 64
2, 40943, Note_on_c, 0, 67, 0
2, 40944, Note_on_c, 0, 68, 64
2, 40967, Note_on_c, 0, 68, 0
2, 40968, Note_on_c, 0, 72, 64
2, 40991, Note_on_c, 0, 72, 0
2, 40992, Note_on_c, 0, 77, 64
2, 41015, Note_on_c, 0, 77, 0
2, 41016, Note_on_c, 0, 73, 64
2, 41039, Note_on_c, 0, 73, 0
2, 41040, Note_on_c, 0, 72, 64
2, 41063, Note_on_c, 0, 72, 0
2, 41064, Note_on_c, 0, 73, 64
2, 41087, Note_on_c, 0, 73, 0
2, 41088, Note_on_c, 0, 71, 64
2, 41177, Note_on_c, 0, 71, 0
2, 41232, Note_on_c, 0, 72, 64
2, 41256, Note_on_c, 0, 72, 0
2, 41256, Note_on_c, 0, 71, 64
2, 41279, Note_on_c, 0, 71, 0
2, 41280, Note_on_c, 0, 72, 64
2, 41347, Note_on_c, 0, 72, 0
2, 41352, Note_on_c, 0, 74, 64
2, 41375, Note_on_c, 0, 74, 0
2, 41376, Note_on_c, 0, 71, 64
2, 41443, Note_on_c, 0, 71, 0
2, 41448, Note_on_c, 0, 72, 64
2, 41471, Note_on_c, 0, 72, 0
2, 41472, Note_on_c, 0, 72, 64
2, 41826, Note_on_c, 0, 72, 0
2, 41826, End_track
3, 0, Start_track
3, 0, MIDI_port, 0
3, 0, Title_t, "Clavier (RH)"
3, 0, Program_c, 1, 6
3, 0, Control_c, 1, 7, 127
3, 0, Note_on_c, 1, 72, 64
3, 23, Note_on_c, 1, 72, 0
3, 24, Note_on_c, 1, 74, 64
3, 47, Note_on_c, 1, 74, 0
3, 48, Note_on_c, 1, 75, 64
3, 71, Note_on_c, 1, 75, 0
3, 72, Note_on_c, 1, 72, 64
3, 95, Note_on_c, 1, 72, 0
3, 96, Note_on_c, 1, 74, 64
3, 141, Note_on_c, 1, 74, 0
3, 144, Note_on_c, 1, 67, 64
3, 189, Note_on_c, 1, 67, 0
3, 192, Note_on_c, 1, 72, 64
3, 237, Note_on_c, 1, 72, 0
3, 240, Note_on_c, 1, 60, 64
3, 285, Note_on_c, 1, 60, 0
3, 288, Note_on_c, 1, 75, 64
3, 407, Note_on_c, 1, 75, 0
3, 408, Note_on_c, 1, 74, 64
3, 431, Note_on_c, 1, 74, 0
3, 432, Note_on_c, 1, 75, 64
3, 455, Note_on_c, 1, 75, 0
3, 456, Note_on_c, 1, 79, 64
3, 479, Note_on_c, 1, 79, 0
3, 480, Note_on_c, 1, 77, 64
3, 503, Note_on_c, 1, 77, 0
3, 504, Note_on_c, 1, 75, 64
3, 527, Note_on_c, 1, 75, 0
3, 528, Note_on_c, 1, 74, 64
3, 551, Note_on_c, 1, 74, 0
3, 552, Note_on_c, 1, 77, 64
3, 575, Note_on_c, 1, 77, 0
3, 576, Note_on_c, 1, 75, 64
3, 665, Note_on_c, 1, 75, 0
3, 720, Note_on_c, 1, 79, 64
3, 765, Note_on_c, 1, 79, 0
3, 768, Note_on_c, 1, 68, 64
3, 791, Note_on_c, 1, 68, 0
3, 792, Note_on_c, 1, 67, 64
3, 815, Note_on_c, 1, 67, 0
3, 816, Note_on_c, 1, 68, 64
3, 839, Note_on_c, 1, 68, 0
3, 840, Note_on_c, 1, 72, 64
3, 863, Note_on_c, 1, 72, 0
3, 864, Note_on_c, 1, 77, 64
3, 909, Note_on_c, 1, 77, 0
3, 912, Note_on_c, 1, 77, 64
3, 957, Note_on_c, 1, 77, 0
3, 960, Note_on_c, 1, 77, 64
3, 1005, Note_on_c, 1, 77, 0
3, 1008, Note_on_c, 1, 67, 64
3, 1053, Note_on_c, 1, 67, 0
3, 1056, Note_on_c, 1, 75, 64
3, 1145, Note_on_c, 1, 75, 0
3, 1152, Note_on_c, 1, 75, 64
3, 1197, Note_on_c, 1, 75, 0
3, 1200, Note_on_c, 1, 80, 64
3, 1223, Note_on_c, 1, 80, 0
3, 1224, Note_on_c, 1, 79, 64
3, 1247, Note_on_c, 1, 79, 0
3, 1248, Note_on_c, 1, 77, 64
3, 1271, Note_on_c, 1, 77, 0
3, 1272, Note_on_c, 1, 75, 64
3, 1295, Note_on_c, 1, 75, 0
3, 1296, Note_on_c, 1, 74, 64
3, 1319, Note_on_c, 1, 74, 0
3, 1320, Note_on_c, 1, 72, 64
3, 1343, Note_on_c, 1, 72, 0
3, 1344, Note_on_c, 1, 71, 64
3, 1367, Note_on_c, 1, 71, 0
3, 1368, Note_on_c, 1, 67, 64
3, 1391, Note_on_c, 1, 67, 0
3, 1392, Note_on_c, 1, 68, 64
3, 1415, Note_on_c, 1, 68, 0
3, 1416, Note_on_c, 1, 67, 64
3, 1439, Note_on_c, 1, 67, 0
3, 1440, Note_on_c, 1, 65, 64
3, 1463, Note_on_c, 1, 65, 0
3, 1464, Note_on_c, 1, 74, 64
3, 1487, Note_on_c, 1, 74, 0
3, 1488, Note_on_c, 1, 67, 64
3, 1511, Note_on_c, 1, 67, 0
3, 1512, Note_on_c, 1, 65, 64
3, 1535, Note_on_c, 1, 65, 0
3, 1536, Note_on_c, 1, 63, 64
3, 1581, Note_on_c, 1, 63, 0
3, 1584, Note_on_c, 1, 72, 64
3, 1629, Note_on_c, 1, 72, 0
3, 1632, Note_on_c, 1, 62, 64
3, 1677, Note_on_c, 1, 62, 0
3, 1680, Note_on_c, 1, 71, 64
3, 1725, Note_on_c, 1, 71, 0
3, 1728, Note_on_c, 1, 72, 64
3, 1751, Note_on_c, 1, 72, 0
3, 1752, Note_on_c, 1, 75, 64
3, 1775, Note_on_c, 1, 75, 0
3, 1776, Note_on_c, 1, 72, 64
3, 1799, Note_on_c, 1, 72, 0
3, 1800, Note_on_c, 1, 69, 64
3, 1823, Note_on_c, 1, 69, 0
3, 1824, Note_on_c, 1, 66, 64
3, 1847, Note_on_c, 1, 66, 0
3, 1848, Note_on_c, 1, 62, 64
3, 1871, Note_on_c, 1, 62, 0
3, 1872, Note_on_c, 1, 62, 64
3, 1895, Note_on_c, 1, 62, 0
3, 1896, Note_on_c, 1, 60, 64
3, 1919, Note_on_c, 1, 60, 0
3, 1920, Note_on_c, 1, 58, 64
3, 2009, Note_on_c, 1, 58, 0
3, 2064, Note_on_c, 1, 74, 64
3, 2109, Note_on_c, 1, 74, 0
3, 2112, Note_on_c, 1, 74, 64
3, 2135, Note_on_c, 1, 74, 0
3, 2136, Note_on_c, 1, 72, 64
3, 2159, Note_on_c, 1, 72, 0
3, 2160, Note_on_c, 1, 70, 64
3, 2183, Note_on_c, 1, 70, 0
3, 2184, Note_on_c, 1, 69, 64
3, 2207, Note_on_c, 1, 69, 0
3, 2208, Note_on_c, 1, 67, 64
3, 2231, Note_on_c, 1, 67, 0
3, 2232, Note_on_c, 1, 65, 64
3, 2255, Note_on_c, 1, 65, 0
3, 2256, Note_on_c, 1, 63, 64
3, 2279, Note_on_c, 1, 63, 0
3, 2280, Note_on_c, 1, 62, 64
3, 2303, Note_on_c, 1, 62, 0
3, 2304, Note_on_c, 1, 63, 64
3, 2327, Note_on_c, 1, 63, 0
3, 2328, Note_on_c, 1, 60, 64
3, 2351, Note_on_c, 1, 60, 0
3, 2352, Note_on_c, 1, 65, 64
3, 2375, Note_on_c, 1, 65, 0
3, 2376, Note_on_c, 1, 62, 64
3, 2399, Note_on_c, 1, 62, 0
3, 2400, Note_on_c, 1, 67, 64
3, 2445, Note_on_c, 1, 67, 0
3, 2448, Note_on_c, 1, 65, 64
3, 2471, Note_on_c, 1, 65, 0
3, 2472, Note_on_c, 1, 63, 64
3, 2495, Note_on_c, 1, 63, 0
3, 2496, Note_on_c, 1, 63, 64
3, 2541, Note_on_c, 1, 63, 0
3, 2544, Note_on_c, 1, 62, 64
3, 2589, Note_on_c, 1, 62, 0
3, 2616, Note_on_c, 1, 74, 64
3, 2639, Note_on_c, 1, 74, 0
3, 2640, Note_on_c, 1, 76, 64
3, 2663, Note_on_c, 1, 76, 0
3, 2664, Note_on_c, 1, 78, 64
3, 2687, Note_on_c, 1, 78, 0
3, 2688, Note_on_c, 1, 79, 64
3, 2711, Note_on_c, 1, 79, 0
3, 2712, Note_on_c, 1, 78, 64
3, 2735, Note_on_c, 1, 78, 0
3, 2736, Note_on_c, 1, 79, 64
3, 2759, Note_on_c, 1, 79, 0
3, 2760, Note_on_c, 1, 82, 64
3, 2783, Note_on_c, 1, 82, 0
3, 2784, Note_on_c, 1, 81, 64
3, 2807, Note_on_c, 1, 81, 0
3, 2808, Note_on_c, 1, 79, 64
3, 2831, Note_on_c, 1, 79, 0
3, 2832, Note_on_c, 1, 78, 64
3, 2855, Note_on_c, 1, 78, 0
3, 2856, Note_on_c, 1, 79, 64
3, 2879, Note_on_c, 1, 79, 0
3, 2880, Note_on_c, 1, 81, 64
3, 2903, Note_on_c, 1, 81, 0
3, 2904, Note_on_c, 1, 79, 64
3, 2927, Note_on_c, 1, 79, 0
3, 2928, Note_on_c, 1, 78, 64
3, 2951, Note_on_c, 1, 78, 0
3, 2952, Note_on_c, 1, 76, 64
3, 2975, Note_on_c, 1, 76, 0
3, 2976, Note_on_c, 1, 74, 64
3, 3021, Note_on_c, 1, 74, 0
3, 3024, Note_on_c, 1, 79, 64
3, 3069, Note_on_c, 1, 79, 0
3, 3072, Note_on_c, 1, 75, 64
3, 3117, Note_on_c, 1, 75, 0
3, 3120, Note_on_c, 1, 72, 64
3, 3165, Note_on_c, 1, 72, 0
3, 3216, Note_on_c, 1, 75, 64
3, 3261, Note_on_c, 1, 75, 0
3, 3264, Note_on_c, 1, 75, 64
3, 3287, Note_on_c, 1, 75, 0
3, 3288, Note_on_c, 1, 72, 64
3, 3311, Note_on_c, 1, 72, 0
3, 3312, Note_on_c, 1, 69, 64
3, 3335, Note_on_c, 1, 69, 0
3, 3336, Note_on_c, 1, 66, 64
3, 3359, Note_on_c, 1, 66, 0
3, 3360, Note_on_c, 1, 62, 64
3, 3405, Note_on_c, 1, 62, 0
3, 3408, Note_on_c, 1, 78, 64
3, 3453, Note_on_c, 1, 78, 0
3, 3456, Note_on_c, 1, 79, 64
3, 3523, Note_on_c, 1, 79, 0
3, 3528, Note_on_c, 1, 81, 64
3, 3551, Note_on_c, 1, 81, 0
3, 3552, Note_on_c, 1, 81, 64
3, 3619, Note_on_c, 1, 81, 0
3, 3624, Note_on_c, 1, 79, 64
3, 3647, Note_on_c, 1, 79, 0
3, 3648, Note_on_c, 1, 79, 64
3, 3737, Note_on_c, 1, 79, 0
3, 3792, Note_on_c, 1, 67, 64
3, 3837, Note_on_c, 1, 67, 0
3, 3840, Note_on_c, 1, 67, 64
3, 3863, Note_on_c, 1, 67, 0
3, 3864, Note_on_c, 1, 64, 64
3, 3887, Note_on_c, 1, 64, 0
3, 3888, Note_on_c, 1, 65, 64
3, 3911, Note_on_c, 1, 65, 0
3, 3912, Note_on_c, 1, 67, 64
3, 3935, Note_on_c, 1, 67, 0
3, 3936, Note_on_c, 1, 68, 64
3, 3959, Note_on_c, 1, 68, 0
3, 3960, Note_on_c, 1, 71, 64
3, 3983, Note_on_c, 1, 71, 0
3, 3984, Note_on_c, 1, 72, 64
3, 4007, Note_on_c, 1, 72, 0
3, 4008, Note_on_c, 1, 74, 64
3, 4031, Note_on_c, 1, 74, 0
3, 4032, Note_on_c, 1, 67, 64
3, 4121, Note_on_c, 1, 67, 0
3, 4176, Note_on_c, 1, 74, 64
3, 4221, Note_on_c, 1, 74, 0
3, 4224, Note_on_c, 1, 74, 64
3, 4269, Note_on_c, 1, 74, 0
3, 4272, Note_on_c, 1, 72, 64
3, 4317, Note_on_c, 1, 72, 0
3, 4320, Note_on_c, 1, 77, 64
3, 4365, Note_on_c, 1, 77, 0
3, 4368, Note_on_c, 1, 77, 64
3, 4413, Note_on_c, 1, 77, 0
3, 4416, Note_on_c, 1, 77, 64
3, 4461, Note_on_c, 1, 77, 0
3, 4464, Note_on_c, 1, 75, 64
3, 4487, Note_on_c, 1, 75, 0
3, 4488, Note_on_c, 1, 77, 64
3, 4511, Note_on_c, 1, 77, 0
3, 4512, Note_on_c, 1, 79, 64
3, 4557, Note_on_c, 1, 79, 0
3, 4560, Note_on_c, 1, 79, 64
3, 4605, Note_on_c, 1, 79, 0
3, 4608, Note_on_c, 1, 79, 64
3, 4653, Note_on_c, 1, 79, 0
3, 4656, Note_on_c, 1, 77, 64
3, 4679, Note_on_c, 1, 77, 0
3, 4680, Note_on_c, 1, 79, 64
3, 4703, Note_on_c, 1, 79, 0
3, 4704, Note_on_c, 1, 80, 64
3, 4749, Note_on_c, 1, 80, 0
3, 4752, Note_on_c, 1, 80, 64
3, 4797, Note_on_c, 1, 80, 0
3, 4800, Note_on_c, 1, 80, 64
3, 4845, Note_on_c, 1, 80, 0
3, 4848, Note_on_c, 1, 79, 64
3, 4871, Note_on_c, 1, 79, 0
3, 4872, Note_on_c, 1, 80, 64
3, 4895, Note_on_c, 1, 80, 0
3, 4896, Note_on_c, 1, 82, 64
3, 4941, Note_on_c, 1, 82, 0
3, 4944, Note_on_c, 1, 70, 64
3, 4989, Note_on_c, 1, 70, 0
3, 4992, Note_on_c, 1, 72, 64
3, 5037, Note_on_c, 1, 72, 0
3, 5040, Note_on_c, 1, 75, 64
3, 5085, Note_on_c, 1, 75, 0
3, 5088, Note_on_c, 1, 80, 64
3, 5133, Note_on_c, 1, 80, 0
3, 5136, Note_on_c, 1, 74, 64
3, 5181, Note_on_c, 1, 74, 0
3, 5184, Note_on_c, 1, 79, 64
3, 5273, Note_on_c, 1, 79, 0
3, 5280, Note_on_c, 1, 72, 64
3, 5369, Note_on_c, 1, 72, 0
3, 5376, Note_on_c, 1, 77, 64
3, 5399, Note_on_c, 1, 77, 0
3, 5400, Note_on_c, 1, 79, 64
3, 5423, Note_on_c, 1, 79, 0
3, 5424, Note_on_c, 1, 77, 64
3, 5447, Note_on_c, 1, 77, 0
3, 5448, Note_on_c, 1, 75, 64
3, 5471, Note_on_c, 1, 75, 0
3, 5472, Note_on_c, 1, 74, 64
3, 5495, Note_on_c, 1, 74, 0
3, 5496, Note_on_c, 1, 72, 64
3, 5519, Note_on_c, 1, 72, 0
3, 5520, Note_on_c, 1, 71, 64
3, 5543, Note_on_c, 1, 71, 0
3, 5544, Note_on_c, 1, 74, 64
3, 5567, Note_on_c, 1, 74, 0
3, 5568, Note_on_c, 1, 67, 64
3, 5657, Note_on_c, 1, 67, 0
3, 5712, Note_on_c, 1, 71, 64
3, 5757, Note_on_c, 1, 71, 0
3, 5760, Note_on_c, 1, 72, 64
3, 5827, Note_on_c, 1, 72, 0
3, 5832, Note_on_c, 1, 74, 64
3, 5855, Note_on_c, 1, 74, 0
3, 5856, Note_on_c, 1, 71, 64
3, 5923, Note_on_c, 1, 71, 0
3, 5928, Note_on_c, 1, 72, 64
3, 5951, Note_on_c, 1, 72, 0
3, 5952, Note_on_c, 1, 72, 64
3, 6041, Note_on_c, 1, 72, 0
3, 6072, Note_on_c, 1, 79, 64
3, 6095, Note_on_c, 1, 79, 0
3, 6096, Note_on_c, 1, 77, 64
3, 6119, Note_on_c, 1, 77, 0
3, 6120, Note_on_c, 1, 75, 64
3, 6143, Note_on_c, 1, 75, 0
3, 6144, Note_on_c, 1, 74, 64
3, 6167, Note_on_c, 1, 74, 0
3, 6168, Note_on_c, 1, 72, 64
3, 6191, Note_on_c, 1, 72, 0
3, 6192, Note_on_c, 1, 70, 64
3, 6215, Note_on_c, 1, 70, 0
3, 6216, Note_on_c, 1, 72, 64
3, 6239, Note_on_c, 1, 72, 0
3, 6240, Note_on_c, 1, 73, 64
3, 6263, Note_on_c, 1, 73, 0
3, 6264, Note_on_c, 1, 72, 64
3, 6287, Note_on_c, 1, 72, 0
3, 6288, Note_on_c, 1, 73, 64
3, 6311, Note_on_c, 1, 73, 0
3, 6312, Note_on_c, 1, 79, 64
3, 6335, Note_on_c, 1, 79, 0
3, 6336, Note_on_c, 1, 79, 64
3, 6381, Note_on_c, 1, 79, 0
3, 6384, Note_on_c, 1, 68, 64
3, 6429, Note_on_c, 1, 68, 0
3, 6456, Note_on_c, 1, 75, 64
3, 6479, Note_on_c, 1, 75, 0
3, 6480, Note_on_c, 1, 74, 64
3, 6503, Note_on_c, 1, 74, 0
3, 6504, Note_on_c, 1, 72, 64
3, 6527, Note_on_c, 1, 72, 0
3, 6528, Note_on_c, 1, 70, 64
3, 6551, Note_on_c, 1, 70, 0
3, 6552, Note_on_c, 1, 68, 64
3, 6575, Note_on_c, 1, 68, 0
3, 6576, Note_on_c, 1, 67, 64
3, 6599, Note_on_c, 1, 67, 0
3, 6600, Note_on_c, 1, 68, 64
3, 6623, Note_on_c, 1, 68, 0
3, 6624, Note_on_c, 1, 70, 64
3, 6647, Note_on_c, 1, 70, 0
3, 6648, Note_on_c, 1, 68, 64
3, 6671, Note_on_c, 1, 68, 0
3, 6672, Note_on_c, 1, 70, 64
3, 6695, Note_on_c, 1, 70, 0
3, 6696, Note_on_c, 1, 75, 64
3, 6719, Note_on_c, 1, 75, 0
3, 6720, Note_on_c, 1, 75, 64
3, 6765, Note_on_c, 1, 75, 0
3, 6768, Note_on_c, 1, 65, 64
3, 6813, Note_on_c, 1, 65, 0
3, 6840, Note_on_c, 1, 72, 64
3, 6863, Note_on_c, 1, 72, 0
3, 6864, Note_on_c, 1, 70, 64
3, 6887, Note_on_c, 1, 70, 0
3, 6888, Note_on_c, 1, 68, 64
3, 6911, Note_on_c, 1, 68, 0
3, 6912, Note_on_c, 1, 67, 64
3, 6935, Note_on_c, 1, 67, 0
3, 6936, Note_on_c, 1, 65, 64
3, 6959, Note_on_c, 1, 65, 0
3, 6960, Note_on_c, 1, 63, 64
3, 6983, Note_on_c, 1, 63, 0
3, 6984, Note_on_c, 1, 65, 64
3, 7007, Note_on_c, 1, 65, 0
3, 7008, Note_on_c, 1, 67, 64
3, 7031, Note_on_c, 1, 67, 0
3, 7032, Note_on_c, 1, 68, 64
3, 7055, Note_on_c, 1, 68, 0
3, 7056, Note_on_c, 1, 70, 64
3, 7079, Note_on_c, 1, 70, 0
3, 7080, Note_on_c, 1, 67, 64
3, 7103, Note_on_c, 1, 67, 0
3, 7104, Note_on_c, 1, 72, 64
3, 7149, Note_on_c, 1, 72, 0
3, 7152, Note_on_c, 1, 62, 64
3, 7197, Note_on_c, 1, 62, 0
3, 7200, Note_on_c, 1, 63, 64
3, 7245, Note_on_c, 1, 63, 0
3, 7248, Note_on_c, 1, 72, 64
3, 7293, Note_on_c, 1, 72, 0
3, 7296, Note_on_c, 1, 65, 64
3, 7341, Note_on_c, 1, 65, 0
3, 7344, Note_on_c, 1, 67, 64
3, 7367, Note_on_c, 1, 67, 0
3, 7368, Note_on_c, 1, 68, 64
3, 7391, Note_on_c, 1, 68, 0
3, 7392, Note_on_c, 1, 70, 64
3, 7415, Note_on_c, 1, 70, 0
3, 7416, Note_on_c, 1, 72, 64
3, 7439, Note_on_c, 1, 72, 0
3, 7440, Note_on_c, 1, 74, 64
3, 7463, Note_on_c, 1, 74, 0
3, 7464, Note_on_c, 1, 70, 64
3, 7487, Note_on_c, 1, 70, 0
3, 7488, Note_on_c, 1, 75, 64
3, 7511, Note_on_c, 1, 75, 0
3, 7512, Note_on_c, 1, 74, 64
3, 7535, Note_on_c, 1, 74, 0
3, 7536, Note_on_c, 1, 75, 64
3, 7559, Note_on_c, 1, 75, 0
3, 7560, Note_on_c, 1, 79, 64
3, 7583, Note_on_c, 1, 79, 0
3, 7584, Note_on_c, 1, 82, 64
3, 7607, Note_on_c, 1, 82, 0
3, 7608, Note_on_c, 1, 79, 64
3, 7631, Note_on_c, 1, 79, 0
3, 7632, Note_on_c, 1, 77, 64
3, 7655, Note_on_c, 1, 77, 0
3, 7656, Note_on_c, 1, 75, 64
3, 7679, Note_on_c, 1, 75, 0
3, 7680, Note_on_c, 1, 74, 64
3, 7703, Note_on_c, 1, 74, 0
3, 7704, Note_on_c, 1, 75, 64
3, 7727, Note_on_c, 1, 75, 0
3, 7728, Note_on_c, 1, 77, 64
3, 7751, Note_on_c, 1, 77, 0
3, 7752, Note_on_c, 1, 81, 64
3, 7775, Note_on_c, 1, 81, 0
3, 7776, Note_on_c, 1, 82, 64
3, 7799, Note_on_c, 1, 82, 0
3, 7800, Note_on_c, 1, 74, 64
3, 7823, Note_on_c, 1, 74, 0
3, 7824, Note_on_c, 1, 77, 64
3, 7847, Note_on_c, 1, 77, 0
3, 7848, Note_on_c, 1, 76, 64
3, 7871, Note_on_c, 1, 76, 0
3, 7872, Note_on_c, 1, 77, 64
3, 7895, Note_on_c, 1, 77, 0
3, 7896, Note_on_c, 1, 76, 64
3, 7919, Note_on_c, 1, 76, 0
3, 7920, Note_on_c, 1, 77, 64
3, 7943, Note_on_c, 1, 77, 0
3, 7944, Note_on_c, 1, 80, 64
3, 7967, Note_on_c, 1, 80, 0
3, 7968, Note_on_c, 1, 84, 64
3, 7991, Note_on_c, 1, 84, 0
3, 7992, Note_on_c, 1, 80, 64
3, 8015, Note_on_c, 1, 80, 0
3, 8016, Note_on_c, 1, 79, 64
3, 8039, Note_on_c, 1, 79, 0
3, 8040, Note_on_c, 1, 77, 64
3, 8063, Note_on_c, 1, 77, 0
3, 8064, Note_on_c, 1, 75, 64
3, 8087, Note_on_c, 1, 75, 0
3, 8088, Note_on_c, 1, 77, 64
3, 8111, Note_on_c, 1, 77, 0
3, 8112, Note_on_c, 1, 79, 64
3, 8135, Note_on_c, 1, 79, 0
3, 8136, Note_on_c, 1, 83, 64
3, 8159, Note_on_c, 1, 83, 0
3, 8160, Note_on_c, 1, 84, 64
3, 8183, Note_on_c, 1, 84, 0
3, 8184, Note_on_c, 1, 75, 64
3, 8207, Note_on_c, 1, 75, 0
3, 8208, Note_on_c, 1, 79, 64
3, 8231, Note_on_c, 1, 79, 0
3, 8232, Note_on_c, 1, 78, 64
3, 8255, Note_on_c, 1, 78, 0
3, 8256, Note_on_c, 1, 79, 64
3, 8279, Note_on_c, 1, 79, 0
3, 8280, Note_on_c, 1, 78, 64
3, 8303, Note_on_c, 1, 78, 0
3, 8304, Note_on_c, 1, 79, 64
3, 8327, Note_on_c, 1, 79, 0
3, 8328, Note_on_c, 1, 82, 64
3, 8351, Note_on_c, 1, 82, 0
3, 8352, Note_on_c, 1, 86, 64
3, 8375, Note_on_c, 1, 86, 0
3, 8376, Note_on_c, 1, 82, 64
3, 8399, Note_on_c, 1, 82, 0
3, 8400, Note_on_c, 1, 81, 64
3, 8423, Note_on_c, 1, 81, 0
3, 8424, Note_on_c, 1, 79, 64
3, 8447, Note_on_c, 1, 79, 0
3, 8448, Note_on_c, 1, 78, 64
3, 8471, Note_on_c, 1, 78, 0
3, 8472, Note_on_c, 1, 79, 64
3, 8495, Note_on_c, 1, 79, 0
3, 8496, Note_on_c, 1, 81, 64
3, 8519, Note_on_c, 1, 81, 0
3, 8520, Note_on_c, 1, 78, 64
3, 8543, Note_on_c, 1, 78, 0
3, 8544, Note_on_c, 1, 74, 64
3, 8633, Note_on_c, 1, 74, 0
3, 8640, Note_on_c, 1, 74, 64
3, 8663, Note_on_c, 1, 74, 0
3, 8664, Note_on_c, 1, 67, 64
3, 8687, Note_on_c, 1, 67, 0
3, 8688, Note_on_c, 1, 69, 64
3, 8711, Note_on_c, 1, 69, 0
3, 8712, Note_on_c, 1, 70, 64
3, 8735, Note_on_c, 1, 70, 0
3, 8736, Note_on_c, 1, 72, 64
3, 8825, Note_on_c, 1, 72, 0
3, 8832, Note_on_c, 1, 72, 64
3, 8855, Note_on_c, 1, 72, 0
3, 8856, Note_on_c, 1, 75, 64
3, 8879, Note_on_c, 1, 75, 0
3, 8880, Note_on_c, 1, 74, 64
3, 8903, Note_on_c, 1, 74, 0
3, 8904, Note_on_c, 1, 72, 64
3, 8927, Note_on_c, 1, 72, 0
3, 8928, Note_on_c, 1, 70, 64
3, 8951, Note_on_c, 1, 70, 0
3, 8952, Note_on_c, 1, 74, 64
3, 8975, Note_on_c, 1, 74, 0
3, 8976, Note_on_c, 1, 79, 64
3, 8999, Note_on_c, 1, 79, 0
3, 9000, Note_on_c, 1, 77, 64
3, 9023, Note_on_c, 1, 77, 0
3, 9024, Note_on_c, 1, 75, 64
3, 9047, Note_on_c, 1, 75, 0
3, 9048, Note_on_c, 1, 74, 64
3, 9071, Note_on_c, 1, 74, 0
3, 9072, Note_on_c, 1, 72, 64
3, 9095, Note_on_c, 1, 72, 0
3, 9096, Note_on_c, 1, 70, 64
3, 9119, Note_on_c, 1, 70, 0
3, 9120, Note_on_c, 1, 72, 64
3, 9143, Note_on_c, 1, 72, 0
3, 9144, Note_on_c, 1, 70, 64
3, 9167, Note_on_c, 1, 70, 0
3, 9168, Note_on_c, 1, 69, 64
3, 9191, Note_on_c, 1, 69, 0
3, 9192, Note_on_c, 1, 70, 64
3, 9215, Note_on_c, 1, 70, 0
3, 9216, Note_on_c, 1, 67, 64
3, 9305, Note_on_c, 1, 67, 0
3, 9408, Note_on_c, 1, 72, 64
3, 9431, Note_on_c, 1, 72, 0
3, 9432, Note_on_c, 1, 70, 64
3, 9455, Note_on_c, 1, 70, 0
3, 9456, Note_on_c, 1, 72, 64
3, 9479, Note_on_c, 1, 72, 0
3, 9480, Note_on_c, 1, 75, 64
3, 9503, Note_on_c, 1, 75, 0
3, 9504, Note_on_c, 1, 80, 64
3, 9549, Note_on_c, 1, 80, 0
3, 9552, Note_on_c, 1, 74, 64
3, 9597, Note_on_c, 1, 74, 0
3, 9600, Note_on_c, 1, 74, 64
3, 9645, Note_on_c, 1, 74, 0
3, 9648, Note_on_c, 1, 72, 64
3, 9693, Note_on_c, 1, 72, 0
3, 9792, Note_on_c, 1, 65, 64
3, 9815, Note_on_c, 1, 65, 0
3, 9816, Note_on_c, 1, 63, 64
3, 9839, Note_on_c, 1, 63, 0
3, 9840, Note_on_c, 1, 65, 64
3, 9863, Note_on_c, 1, 65, 0
3, 9864, Note_on_c, 1, 68, 64
3, 9887, Note_on_c, 1, 68, 0
3, 9888, Note_on_c, 1, 74, 64
3, 9911, Note_on_c, 1, 74, 0
3, 9912, Note_on_c, 1, 72, 64
3, 9935, Note_on_c, 1, 72, 0
3, 9936, Note_on_c, 1, 74, 64
3, 9959, Note_on_c, 1, 74, 0
3, 9960, Note_on_c, 1, 77, 64
3, 9983, Note_on_c, 1, 77, 0
3, 9984, Note_on_c, 1, 74, 64
3, 10007, Note_on_c, 1, 74, 0
3, 10008, Note_on_c, 1, 79, 64
3, 10031, Note_on_c, 1, 79, 0
3, 10032, Note_on_c, 1, 75, 64
3, 10055, Note_on_c, 1, 75, 0
3, 10056, Note_on_c, 1, 72, 64
3, 10079, Note_on_c, 1, 72, 0
3, 10080, Note_on_c, 1, 74, 64
3, 10125, Note_on_c, 1, 74, 0
3, 10128, Note_on_c, 1, 67, 64
3, 10173, Note_on_c, 1, 67, 0
3, 10176, Note_on_c, 1, 72, 64
3, 10221, Note_on_c, 1, 72, 0
3, 10224, Note_on_c, 1, 60, 64
3, 10269, Note_on_c, 1, 60, 0
3, 10272, Note_on_c, 1, 75, 64
3, 10361, Note_on_c, 1, 75, 0
3, 10368, Note_on_c, 1, 75, 64
3, 10391, Note_on_c, 1, 75, 0
3, 10392, Note_on_c, 1, 74, 64
3, 10415, Note_on_c, 1, 74, 0
3, 10416, Note_on_c, 1, 75, 64
3, 10439, Note_on_c, 1, 75, 0
3, 10440, Note_on_c, 1, 79, 64
3, 10463, Note_on_c, 1, 79, 0
3, 10464, Note_on_c, 1, 77, 64
3, 10487, Note_on_c, 1, 77, 0
3, 10488, Note_on_c, 1, 75, 64
3, 10511, Note_on_c, 1, 75, 0
3, 10512, Note_on_c, 1, 74, 64
3, 10535, Note_on_c, 1, 74, 0
3, 10536, Note_on_c, 1, 77, 64
3, 10559, Note_on_c, 1, 77, 0
3, 10560, Note_on_c, 1, 75, 64
3, 10649, Note_on_c, 1, 75, 0
3, 10704, Note_on_c, 1, 79, 64
3, 10749, Note_on_c, 1, 79, 0
3, 10752, Note_on_c, 1, 68, 64
3, 10775, Note_on_c, 1, 68, 0
3, 10776, Note_on_c, 1, 67, 64
3, 10799, Note_on_c, 1, 67, 0
3, 10800, Note_on_c, 1, 68, 64
3, 10823, Note_on_c, 1, 68, 0
3, 10824, Note_on_c, 1, 72, 64
3, 10847, Note_on_c, 1, 72, 0
3, 10848, Note_on_c, 1, 77, 64
3, 10893, Note_on_c, 1, 77, 0
3, 10896, Note_on_c, 1, 77, 64
3, 10941, Note_on_c, 1, 77, 0
3, 10944, Note_on_c, 1, 77, 64
3, 10989, Note_on_c, 1, 77, 0
3, 10992, Note_on_c, 1, 67, 64
3, 11037, Note_on_c, 1, 67, 0
3, 11040, Note_on_c, 1, 75, 64
3, 11181, Note_on_c, 1, 75, 0
3, 11184, Note_on_c, 1, 80, 64
3, 11207, Note_on_c, 1, 80, 0
3, 11208, Note_on_c, 1, 79, 64
3, 11231, Note_on_c, 1, 79, 0
3, 11232, Note_on_c, 1, 77, 64
3, 11255, Note_on_c, 1, 77, 0
3, 11256, Note_on_c, 1, 75, 64
3, 11279, Note_on_c, 1, 75, 0
3, 11280, Note_on_c, 1, 74, 64
3, 11303, Note_on_c, 1, 74, 0
3, 11304, Note_on_c, 1, 72, 64
3, 11327, Note_on_c, 1, 72, 0
3, 11328, Note_on_c, 1, 71, 64
3, 11351, Note_on_c, 1, 71, 0
3, 11352, Note_on_c, 1, 67, 64
3, 11375, Note_on_c, 1, 67, 0
3, 11376, Note_on_c, 1, 68, 64
3, 11399, Note_on_c, 1, 68, 0
3, 11400, Note_on_c, 1, 67, 64
3, 11423, Note_on_c, 1, 67, 0
3, 11424, Note_on_c, 1, 65, 64
3, 11447, Note_on_c, 1, 65, 0
3, 11448, Note_on_c, 1, 74, 64
3, 11471, Note_on_c, 1, 74, 0
3, 11472, Note_on_c, 1, 67, 64
3, 11495, Note_on_c, 1, 67, 0
3, 11496, Note_on_c, 1, 65, 64
3, 11519, Note_on_c, 1, 65, 0
3, 11520, Note_on_c, 1, 63, 64
3, 11565, Note_on_c, 1, 63, 0
3, 11568, Note_on_c, 1, 72, 64
3, 11613, Note_on_c, 1, 72, 0
3, 11616, Note_on_c, 1, 62, 64
3, 11661, Note_on_c, 1, 62, 0
3, 11664, Note_on_c, 1, 71, 64
3, 11709, Note_on_c, 1, 71, 0
3, 11712, Note_on_c, 1, 72, 64
3, 11735, Note_on_c, 1, 72, 0
3, 11736, Note_on_c, 1, 70, 64
3, 11759, Note_on_c, 1, 70, 0
3, 11760, Note_on_c, 1, 72, 64
3, 11783, Note_on_c, 1, 72, 0
3, 11784, Note_on_c, 1, 77, 64
3, 11807, Note_on_c, 1, 77, 0
3, 11808, Note_on_c, 1, 80, 64
3, 11831, Note_on_c, 1, 80, 0
3, 11832, Note_on_c, 1, 77, 64
3, 11855, Note_on_c, 1, 77, 0
3, 11856, Note_on_c, 1, 76, 64
3, 11879, Note_on_c, 1, 76, 0
3, 11880, Note_on_c, 1, 77, 64
3, 11903, Note_on_c, 1, 77, 0
3, 11904, Note_on_c, 1, 70, 64
3, 11927, Note_on_c, 1, 70, 0
3, 11928, Note_on_c, 1, 68, 64
3, 11951, Note_on_c, 1, 68, 0
3, 11952, Note_on_c, 1, 70, 64
3, 11975, Note_on_c, 1, 70, 0
3, 11976, Note_on_c, 1, 76, 64
3, 11999, Note_on_c, 1, 76, 0
3, 12000, Note_on_c, 1, 79, 64
3, 12023, Note_on_c, 1, 79, 0
3, 12024, Note_on_c, 1, 76, 64
3, 12047, Note_on_c, 1, 76, 0
3, 12048, Note_on_c, 1, 74, 64
3, 12071, Note_on_c, 1, 74, 0
3, 12072, Note_on_c, 1, 76, 64
3, 12095, Note_on_c, 1, 76, 0
3, 12096, Note_on_c, 1, 68, 64
3, 12119, Note_on_c, 1, 68, 0
3, 12120, Note_on_c, 1, 67, 64
3, 12143, Note_on_c, 1, 67, 0
3, 12144, Note_on_c, 1, 68, 64
3, 12167, Note_on_c, 1, 68, 0
3, 12168, Note_on_c, 1, 72, 64
3, 12191, Note_on_c, 1, 72, 0
3, 12192, Note_on_c, 1, 77, 64
3, 12215, Note_on_c, 1, 77, 0
3, 12216, Note_on_c, 1, 73, 64
3, 12239, Note_on_c, 1, 73, 0
3, 12240, Note_on_c, 1, 72, 64
3, 12263, Note_on_c, 1, 72, 0
3, 12264, Note_on_c, 1, 73, 64
3, 12287, Note_on_c, 1, 73, 0
3, 12288, Note_on_c, 1, 71, 64
3, 12377, Note_on_c, 1, 71, 0
3, 12432, Note_on_c, 1, 72, 64
3, 12455, Note_on_c, 1, 72, 0
3, 12456, Note_on_c, 1, 71, 64
3, 12479, Note_on_c, 1, 71, 0
3, 12480, Note_on_c, 1, 72, 64
3, 12547, Note_on_c, 1, 72, 0
3, 12552, Note_on_c, 1, 74, 64
3, 12575, Note_on_c, 1, 74, 0
3, 12576, Note_on_c, 1, 71, 64
3, 12643, Note_on_c, 1, 71, 0
3, 12648, Note_on_c, 1, 72, 64
3, 12671, Note_on_c, 1, 72, 0
3, 12672, Note_on_c, 1, 72, 64
3, 12717, Note_on_c, 1, 72, 0
3, 12720, Note_on_c, 1, 79, 64
3, 12743, Note_on_c, 1, 79, 0
3, 12744, Note_on_c, 1, 75, 64
3, 12767, Note_on_c, 1, 75, 0
3, 12768, Note_on_c, 1, 72, 64
3, 12791, Note_on_c, 1, 72, 0
3, 12792, Note_on_c, 1, 74, 64
3, 12804, Note_on_c, 1, 74, 0
3, 12804, Note_on_c, 1, 75, 64
3, 12816, Note_on_c, 1, 75, 0
3, 12816, Note_on_c, 1, 74, 64
3, 12839, Note_on_c, 1, 74, 0
3, 12840, Note_on_c, 1, 72, 64
3, 12863, Note_on_c, 1, 72, 0
3, 12864, Note_on_c, 1, 72, 64
3, 13041, Note_on_c, 1, 72, 0
3, 13056, Note_on_c, 1, 72, 64
3, 13079, Note_on_c, 1, 72, 0
3, 13080, Note_on_c, 1, 71, 64
3, 13103, Note_on_c, 1, 71, 0
3, 13104, Note_on_c, 1, 74, 64
3, 13127, Note_on_c, 1, 74, 0
3, 13128, Note_on_c, 1, 77, 64
3, 13151, Note_on_c, 1, 77, 0
3, 13152, Note_on_c, 1, 80, 64
3, 13175, Note_on_c, 1, 80, 0
3, 13176, Note_on_c, 1, 79, 64
3, 13188, Note_on_c, 1, 79, 0
3, 13188, Note_on_c, 1, 77, 64
3, 13200, Note_on_c, 1, 77, 0
3, 13200, Note_on_c, 1, 79, 64
3, 13223, Note_on_c, 1, 79, 0
3, 13224, Note_on_c, 1, 74, 64
3, 13247, Note_on_c, 1, 74, 0
3, 13248, Note_on_c, 1, 75, 64
3, 13315, Note_on_c, 1, 75, 0
3, 13320, Note_on_c, 1, 77, 64
3, 13343, Note_on_c, 1, 77, 0
3, 13344, Note_on_c, 1, 75, 64
3, 13367, Note_on_c, 1, 75, 0
3, 13368, Note_on_c, 1, 74, 64
3, 13391, Note_on_c, 1, 74, 0
3, 13392, Note_on_c, 1, 79, 64
3, 13437, Note_on_c, 1, 79, 0
3, 13440, Note_on_c, 1, 75, 64
3, 13485, Note_on_c, 1, 75, 0
3, 13488, Note_on_c, 1, 72, 64
3, 13533, Note_on_c, 1, 72, 0
3, 13584, Note_on_c, 1, 79, 64
3, 13629, Note_on_c, 1, 79, 0
3, 13632, Note_on_c, 1, 79, 64
3, 13655, Note_on_c, 1, 79, 0
3, 13656, Note_on_c, 1, 77, 64
3, 13679, Note_on_c, 1, 77, 0
3, 13680, Note_on_c, 1, 79, 64
3, 13703, Note_on_c, 1, 79, 0
3, 13704, Note_on_c, 1, 80, 64
3, 13727, Note_on_c, 1, 80, 0
3, 13728, Note_on_c, 1, 82, 64
3, 13751, Note_on_c, 1, 82, 0
3, 13752, Note_on_c, 1, 80, 64
3, 13775, Note_on_c, 1, 80, 0
3, 13776, Note_on_c, 1, 79, 64
3, 13799, Note_on_c, 1, 79, 0
3, 13800, Note_on_c, 1, 82, 64
3, 13823, Note_on_c, 1, 82, 0
3, 13824, Note_on_c, 1, 80, 64
3, 13869, Note_on_c, 1, 80, 0
3, 13872, Note_on_c, 1, 81, 64
3, 13917, Note_on_c, 1, 81, 0
3, 13920, Note_on_c, 1, 82, 64
3, 13965, Note_on_c, 1, 82, 0
3, 13968, Note_on_c, 1, 83, 64
3, 14013, Note_on_c, 1, 83, 0
3, 14016, Note_on_c, 1, 84, 64
3, 14105, Note_on_c, 1, 84, 0
3, 14448, Note_on_c, 1, 75, 64
3, 14471, Note_on_c, 1, 75, 0
3, 14472, Note_on_c, 1, 72, 64
3, 14495, Note_on_c, 1, 72, 0
3, 14496, Note_on_c, 1, 69, 64
3, 14519, Note_on_c, 1, 69, 0
3, 14520, Note_on_c, 1, 70, 64
3, 14532, Note_on_c, 1, 70, 0
3, 14532, Note_on_c, 1, 72, 64
3, 14544, Note_on_c, 1, 72, 0
3, 14544, Note_on_c, 1, 70, 64
3, 14567, Note_on_c, 1, 70, 0
3, 14568, Note_on_c, 1, 69, 64
3, 14591, Note_on_c, 1, 69, 0
3, 14592, Note_on_c, 1, 69, 64
3, 14829, Note_on_c, 1, 69, 0
3, 14832, Note_on_c, 1, 67, 64
3, 14921, Note_on_c, 1, 67, 0
3, 14928, Note_on_c, 1, 66, 64
3, 14973, Note_on_c, 1, 66, 0
3, 14976, Note_on_c, 1, 67, 64
3, 14999, Note_on_c, 1, 67, 0
3, 15000, Note_on_c, 1, 69, 64
3, 15023, Note_on_c, 1, 69, 0
3, 15024, Note_on_c, 1, 70, 64
3, 15047, Note_on_c, 1, 70, 0
3, 15048, Note_on_c, 1, 67, 64
3, 15071, Note_on_c, 1, 67, 0
3, 15072, Note_on_c, 1, 69, 64
3, 15117, Note_on_c, 1, 69, 0
3, 15120, Note_on_c, 1, 62, 64
3, 15165, Note_on_c, 1, 62, 0
3, 15168, Note_on_c, 1, 67, 64
3, 15213, Note_on_c, 1, 67, 0
3, 15216, Note_on_c, 1, 55, 64
3, 15261, Note_on_c, 1, 55, 0
3, 15264, Note_on_c, 1, 70, 64
3, 15353, Note_on_c, 1, 70, 0
3, 15360, Note_on_c, 1, 70, 64
3, 15383, Note_on_c, 1, 70, 0
3, 15384, Note_on_c, 1, 69, 64
3, 15407, Note_on_c, 1, 69, 0
3, 15408, Note_on_c, 1, 70, 64
3, 15431, Note_on_c, 1, 70, 0
3, 15432, Note_on_c, 1, 74, 64
3, 15455, Note_on_c, 1, 74, 0
3, 15456, Note_on_c, 1, 72, 64
3, 15479, Note_on_c, 1, 72, 0
3, 15480, Note_on_c, 1, 70, 64
3, 15503, Note_on_c, 1, 70, 0
3, 15504, Note_on_c, 1, 69, 64
3, 15527, Note_on_c, 1, 69, 0
3, 15528, Note_on_c, 1, 72, 64
3, 15551, Note_on_c, 1, 72, 0
3, 15552, Note_on_c, 1, 70, 64
3, 15575, Note_on_c, 1, 70, 0
3, 15576, Note_on_c, 1, 74, 64
3, 15599, Note_on_c, 1, 74, 0
3, 15600, Note_on_c, 1, 70, 64
3, 15623, Note_on_c, 1, 70, 0
3, 15624, Note_on_c, 1, 67, 64
3, 15647, Note_on_c, 1, 67, 0
3, 15648, Note_on_c, 1, 64, 64
3, 15671, Note_on_c, 1, 64, 0
3, 15672, Note_on_c, 1, 73, 64
3, 15695, Note_on_c, 1, 73, 0
3, 15696, Note_on_c, 1, 72, 64
3, 15719, Note_on_c, 1, 72, 0
3, 15720, Note_on_c, 1, 70, 64
3, 15743, Note_on_c, 1, 70, 0
3, 15744, Note_on_c, 1, 68, 64
3, 15767, Note_on_c, 1, 68, 0
3, 15768, Note_on_c, 1, 72, 64
3, 15791, Note_on_c, 1, 72, 0
3, 15792, Note_on_c, 1, 68, 64
3, 15815, Note_on_c, 1, 68, 0
3, 15816, Note_on_c, 1, 65, 64
3, 15839, Note_on_c, 1, 65, 0
3, 15840, Note_on_c, 1, 62, 64
3, 15863, Note_on_c, 1, 62, 0
3, 15864, Note_on_c, 1, 72, 64
3, 15887, Note_on_c, 1, 72, 0
3, 15888, Note_on_c, 1, 70, 64
3, 15911, Note_on_c, 1, 70, 0
3, 15912, Note_on_c, 1, 68, 64
3, 15935, Note_on_c, 1, 68, 0
3, 15936, Note_on_c, 1, 67, 64
3, 15981, Note_on_c, 1, 67, 0
3, 16032, Note_on_c, 1, 67, 64
3, 16055, Note_on_c, 1, 67, 0
3, 16056, Note_on_c, 1, 65, 64
3, 16079, Note_on_c, 1, 65, 0
3, 16080, Note_on_c, 1, 67, 64
3, 16103, Note_on_c, 1, 67, 0
3, 16104, Note_on_c, 1, 72, 64
3, 16127, Note_on_c, 1, 72, 0
3, 16128, Note_on_c, 1, 77, 64
3, 16305, Note_on_c, 1, 77, 0
3, 16320, Note_on_c, 1, 75, 64
3, 16409, Note_on_c, 1, 75, 0
3, 16416, Note_on_c, 1, 63, 64
3, 16439, Note_on_c, 1, 63, 0
3, 16440, Note_on_c, 1, 62, 64
3, 16463, Note_on_c, 1, 62, 0
3, 16464, Note_on_c, 1, 63, 64
3, 16487, Note_on_c, 1, 63, 0
3, 16488, Note_on_c, 1, 68, 64
3, 16511, Note_on_c, 1, 68, 0
3, 16512, Note_on_c, 1, 73, 64
3, 16689, Note_on_c, 1, 73, 0
3, 16704, Note_on_c, 1, 72, 64
3, 16793, Note_on_c, 1, 72, 0
3, 16800, Note_on_c, 1, 60, 64
3, 16823, Note_on_c, 1, 60, 0
3, 16824, Note_on_c, 1, 58, 64
3, 16847, Note_on_c, 1, 58, 0
3, 16848, Note_on_c, 1, 60, 64
3, 16871, Note_on_c, 1, 60, 0
3, 16872, Note_on_c, 1, 65, 64
3, 16895, Note_on_c, 1, 65, 0
3, 16896, Note_on_c, 1, 70, 64
3, 17073, Note_on_c, 1, 70, 0
3, 17088, Note_on_c, 1, 68, 64
3, 17177, Note_on_c, 1, 68, 0
3, 17232, Note_on_c, 1, 72, 64
3, 17277, Note_on_c, 1, 72, 0
3, 17280, Note_on_c, 1, 72, 64
3, 17303, Note_on_c, 1, 72, 0
3, 17304, Note_on_c, 1, 70, 64
3, 17327, Note_on_c, 1, 70, 0
3, 17328, Note_on_c, 1, 68, 64
3, 17351, Note_on_c, 1, 68, 0
3, 17352, Note_on_c, 1, 67, 64
3, 17375, Note_on_c, 1, 67, 0
3, 17376, Note_on_c, 1, 65, 64
3, 17399, Note_on_c, 1, 65, 0
3, 17400, Note_on_c, 1, 63, 64
3, 17423, Note_on_c, 1, 63, 0
3, 17424, Note_on_c, 1, 61, 64
3, 17447, Note_on_c, 1, 61, 0
3, 17448, Note_on_c, 1, 60, 64
3, 17471, Note_on_c, 1, 60, 0
3, 17472, Note_on_c, 1, 61, 64
3, 17495, Note_on_c, 1, 61, 0
3, 17496, Note_on_c, 1, 58, 64
3, 17519, Note_on_c, 1, 58, 0
3, 17520, Note_on_c, 1, 63, 64
3, 17543, Note_on_c, 1, 63, 0
3, 17544, Note_on_c, 1, 60, 64
3, 17567, Note_on_c, 1, 60, 0
3, 17568, Note_on_c, 1, 65, 64
3, 17613, Note_on_c, 1, 65, 0
3, 17616, Note_on_c, 1, 63, 64
3, 17639, Note_on_c, 1, 63, 0
3, 17640, Note_on_c, 1, 61, 64
3, 17663, Note_on_c, 1, 61, 0
3, 17664, Note_on_c, 1, 61, 64
3, 17709, Note_on_c, 1, 61, 0
3, 17712, Note_on_c, 1, 60, 64
3, 17757, Note_on_c, 1, 60, 0
3, 17808, Note_on_c, 1, 72, 64
3, 17831, Note_on_c, 1, 72, 0
3, 17832, Note_on_c, 1, 74, 64
3, 17855, Note_on_c, 1, 74, 0
3, 17856, Note_on_c, 1, 76, 64
3, 17879, Note_on_c, 1, 76, 0
3, 17880, Note_on_c, 1, 77, 64
3, 17903, Note_on_c, 1, 77, 0
3, 17904, Note_on_c, 1, 76, 64
3, 17927, Note_on_c, 1, 76, 0
3, 17928, Note_on_c, 1, 77, 64
3, 17951, Note_on_c, 1, 77, 0
3, 17952, Note_on_c, 1, 80, 64
3, 17975, Note_on_c, 1, 80, 0
3, 17976, Note_on_c, 1, 79, 64
3, 17999, Note_on_c, 1, 79, 0
3, 18000, Note_on_c, 1, 77, 64
3, 18023, Note_on_c, 1, 77, 0
3, 18024, Note_on_c, 1, 76, 64
3, 18047, Note_on_c, 1, 76, 0
3, 18048, Note_on_c, 1, 77, 64
3, 18071, Note_on_c, 1, 77, 0
3, 18072, Note_on_c, 1, 79, 64
3, 18095, Note_on_c, 1, 79, 0
3, 18096, Note_on_c, 1, 77, 64
3, 18119, Note_on_c, 1, 77, 0
3, 18120, Note_on_c, 1, 76, 64
3, 18143, Note_on_c, 1, 76, 0
3, 18144, Note_on_c, 1, 72, 64
3, 18189, Note_on_c, 1, 72, 0
3, 18192, Note_on_c, 1, 77, 64
3, 18237, Note_on_c, 1, 77, 0
3, 18240, Note_on_c, 1, 73, 64
3, 18285, Note_on_c, 1, 73, 0
3, 18288, Note_on_c, 1, 70, 64
3, 18333, Note_on_c, 1, 70, 0
3, 18384, Note_on_c, 1, 73, 64
3, 18429, Note_on_c, 1, 73, 0
3, 18432, Note_on_c, 1, 73, 64
3, 18455, Note_on_c, 1, 73, 0
3, 18456, Note_on_c, 1, 70, 64
3, 18479, Note_on_c, 1, 70, 0
3, 18480, Note_on_c, 1, 67, 64
3, 18503, Note_on_c, 1, 67, 0
3, 18504, Note_on_c, 1, 64, 64
3, 18527, Note_on_c, 1, 64, 0
3, 18528, Note_on_c, 1, 60, 64
3, 18573, Note_on_c, 1, 60, 0
3, 18576, Note_on_c, 1, 76, 64
3, 18621, Note_on_c, 1, 76, 0
3, 18624, Note_on_c, 1, 77, 64
3, 18691, Note_on_c, 1, 77, 0
3, 18696, Note_on_c, 1, 79, 64
3, 18719, Note_on_c, 1, 79, 0
3, 18720, Note_on_c, 1, 79, 64
3, 18787, Note_on_c, 1, 79, 0
3, 18792, Note_on_c, 1, 77, 64
3, 18815, Note_on_c, 1, 77, 0
3, 18816, Note_on_c, 1, 77, 64
3, 19170, Note_on_c, 1, 77, 0
3, 19200, Note_on_c, 1, 77, 64
3, 19223, Note_on_c, 1, 77, 0
3, 19224, Note_on_c, 1, 76, 64
3, 19247, Note_on_c, 1, 76, 0
3, 19248, Note_on_c, 1, 77, 64
3, 19271, Note_on_c, 1, 77, 0
3, 19272, Note_on_c, 1, 82, 64
3, 19295, Note_on_c, 1, 82, 0
3, 19296, Note_on_c, 1, 73, 64
3, 19385, Note_on_c, 1, 73, 0
3, 19392, Note_on_c, 1, 73, 64
3, 19415, Note_on_c, 1, 73, 0
3, 19416, Note_on_c, 1, 72, 64
3, 19439, Note_on_c, 1, 72, 0
3, 19440, Note_on_c, 1, 73, 64
3, 19463, Note_on_c, 1, 73, 0
3, 19464, Note_on_c, 1, 76, 64
3, 19487, Note_on_c, 1, 76, 0
3, 19488, Note_on_c, 1, 79, 64
3, 19533, Note_on_c, 1, 79, 0
3, 19536, Note_on_c, 1, 70, 64
3, 19581, Note_on_c, 1, 70, 0
3, 19584, Note_on_c, 1, 68, 64
3, 19651, Note_on_c, 1, 68, 0
3, 19656, Note_on_c, 1, 67, 64
3, 19679, Note_on_c, 1, 67, 0
3, 19680, Note_on_c, 1, 67, 64
3, 19747, Note_on_c, 1, 67, 0
3, 19752, Note_on_c, 1, 65, 64
3, 19775, Note_on_c, 1, 65, 0
3, 19776, Note_on_c, 1, 65, 64
3, 19799, Note_on_c, 1, 65, 0
3, 19800, Note_on_c, 1, 72, 64
3, 19823, Note_on_c, 1, 72, 0
3, 19824, Note_on_c, 1, 74, 64
3, 19847, Note_on_c, 1, 74, 0
3, 19848, Note_on_c, 1, 76, 64
3, 19871, Note_on_c, 1, 76, 0
3, 19872, Note_on_c, 1, 77, 64
3, 19895, Note_on_c, 1, 77, 0
3, 19896, Note_on_c, 1, 79, 64
3, 19919, Note_on_c, 1, 79, 0
3, 19920, Note_on_c, 1, 80, 64
3, 19943, Note_on_c, 1, 80, 0
3, 19944, Note_on_c, 1, 77, 64
3, 19967, Note_on_c, 1, 77, 0
3, 19968, Note_on_c, 1, 74, 64
3, 19991, Note_on_c, 1, 74, 0
3, 19992, Note_on_c, 1, 75, 64
3, 20015, Note_on_c, 1, 75, 0
3, 20016, Note_on_c, 1, 77, 64
3, 20039, Note_on_c, 1, 77, 0
3, 20040, Note_on_c, 1, 74, 64
3, 20063, Note_on_c, 1, 74, 0
3, 20064, Note_on_c, 1, 70, 64
3, 20109, Note_on_c, 1, 70, 0
3, 20112, Note_on_c, 1, 75, 64
3, 20157, Note_on_c, 1, 75, 0
3, 20160, Note_on_c, 1, 75, 64
3, 20205, Note_on_c, 1, 75, 0
3, 20208, Note_on_c, 1, 74, 64
3, 20231, Note_on_c, 1, 74, 0
3, 20232, Note_on_c, 1, 75, 64
3, 20255, Note_on_c, 1, 75, 0
3, 20256, Note_on_c, 1, 77, 64
3, 20345, Note_on_c, 1, 77, 0
3, 20352, Note_on_c, 1, 77, 64
3, 20419, Note_on_c, 1, 77, 0
3, 20424, Note_on_c, 1, 79, 64
3, 20447, Note_on_c, 1, 79, 0
3, 20448, Note_on_c, 1, 77, 64
3, 20471, Note_on_c, 1, 77, 0
3, 20472, Note_on_c, 1, 75, 64
3, 20495, Note_on_c, 1, 75, 0
3, 20496, Note_on_c, 1, 74, 64
3, 20519, Note_on_c, 1, 74, 0
3, 20520, Note_on_c, 1, 75, 64
3, 20543, Note_on_c, 1, 75, 0
3, 20544, Note_on_c, 1, 74, 64
3, 20567, Note_on_c, 1, 74, 0
3, 20568, Note_on_c, 1, 80, 64
3, 20591, Note_on_c, 1, 80, 0
3, 20592, Note_on_c, 1, 77, 64
3, 20615, Note_on_c, 1, 77, 0
3, 20616, Note_on_c, 1, 74, 64
3, 20639, Note_on_c, 1, 74, 0
3, 20640, Note_on_c, 1, 71, 64
3, 20663, Note_on_c, 1, 71, 0
3, 20664, Note_on_c, 1, 68, 64
3, 20687, Note_on_c, 1, 68, 0
3, 20688, Note_on_c, 1, 67, 64
3, 20711, Note_on_c, 1, 67, 0
3, 20712, Note_on_c, 1, 65, 64
3, 20735, Note_on_c, 1, 65, 0
3, 20736, Note_on_c, 1, 63, 64
3, 20759, Note_on_c, 1, 63, 0
3, 20760, Note_on_c, 1, 65, 64
3, 20783, Note_on_c, 1, 65, 0
3, 20784, Note_on_c, 1, 67, 64
3, 20807, Note_on_c, 1, 67, 0
3, 20808, Note_on_c, 1, 75, 64
3, 20831, Note_on_c, 1, 75, 0
3, 20832, Note_on_c, 1, 71, 64
3, 20899, Note_on_c, 1, 71, 0
3, 20904, Note_on_c, 1, 72, 64
3, 20927, Note_on_c, 1, 72, 0
3, 20928, Note_on_c, 1, 72, 64
3, 21017, Note_on_c, 1, 72, 0
3, 21048, Note_on_c, 1, 72, 64
3, 21071, Note_on_c, 1, 72, 0
3, 21072, Note_on_c, 1, 74, 64
3, 21095, Note_on_c, 1, 74, 0
3, 21096, Note_on_c, 1, 75, 64
3, 21119, Note_on_c, 1, 75, 0
3, 21120, Note_on_c, 1, 63, 64
3, 21143, Note_on_c, 1, 63, 0
3, 21144, Note_on_c, 1, 62, 64
3, 21167, Note_on_c, 1, 62, 0
3, 21168, Note_on_c, 1, 63, 64
3, 21191, Note_on_c, 1, 63, 0
3, 21192, Note_on_c, 1, 67, 64
3, 21215, Note_on_c, 1, 67, 0
3, 21216, Note_on_c, 1, 65, 64
3, 21239, Note_on_c, 1, 65, 0
3, 21240, Note_on_c, 1, 63, 64
3, 21263, Note_on_c, 1, 63, 0
3, 21264, Note_on_c, 1, 62, 64
3, 21287, Note_on_c, 1, 62, 0
3, 21288, Note_on_c, 1, 65, 64
3, 21311, Note_on_c, 1, 65, 0
3, 21312, Note_on_c, 1, 70, 64
3, 21335, Note_on_c, 1, 70, 0
3, 21336, Note_on_c, 1, 74, 64
3, 21359, Note_on_c, 1, 74, 0
3, 21360, Note_on_c, 1, 75, 64
3, 21383, Note_on_c, 1, 75, 0
3, 21384, Note_on_c, 1, 77, 64
3, 21407, Note_on_c, 1, 77, 0
3, 21408, Note_on_c, 1, 79, 64
3, 21497, Note_on_c, 1, 79, 0
3, 21504, Note_on_c, 1, 79, 64
3, 21549, Note_on_c, 1, 79, 0
3, 21552, Note_on_c, 1, 77, 64
3, 21575, Note_on_c, 1, 77, 0
3, 21576, Note_on_c, 1, 75, 64
3, 21599, Note_on_c, 1, 75, 0
3, 21600, Note_on_c, 1, 74, 64
3, 21623, Note_on_c, 1, 74, 0
3, 21624, Note_on_c, 1, 75, 64
3, 21647, Note_on_c, 1, 75, 0
3, 21648, Note_on_c, 1, 77, 64
3, 21671, Note_on_c, 1, 77, 0
3, 21672, Note_on_c, 1, 74, 64
3, 21695, Note_on_c, 1, 74, 0
3, 21696, Note_on_c, 1, 71, 64
3, 21741, Note_on_c, 1, 71, 0
3, 21744, Note_on_c, 1, 75, 64
3, 21767, Note_on_c, 1, 75, 0
3, 21768, Note_on_c, 1, 74, 64
3, 21791, Note_on_c, 1, 74, 0
3, 21792, Note_on_c, 1, 72, 64
3, 21815, Note_on_c, 1, 72, 0
3, 21816, Note_on_c, 1, 74, 64
3, 21839, Note_on_c, 1, 74, 0
3, 21840, Note_on_c, 1, 75, 64
3, 21863, Note_on_c, 1, 75, 0
3, 21864, Note_on_c, 1, 72, 64
3, 21887, Note_on_c, 1, 72, 0
3, 21888, Note_on_c, 1, 63, 64
3, 21933, Note_on_c, 1, 63, 0
3, 21936, Note_on_c, 1, 68, 64
3, 21959, Note_on_c, 1, 68, 0
3, 21960, Note_on_c, 1, 67, 64
3, 21983, Note_on_c, 1, 67, 0
3, 21984, Note_on_c, 1, 65, 64
3, 22007, Note_on_c, 1, 65, 0
3, 22008, Note_on_c, 1, 63, 64
3, 22031, Note_on_c, 1, 63, 0
3, 22032, Note_on_c, 1, 62, 64
3, 22055, Note_on_c, 1, 62, 0
3, 22056, Note_on_c, 1, 60, 64
3, 22079, Note_on_c, 1, 60, 0
3, 22080, Note_on_c, 1, 77, 64
3, 22125, Note_on_c, 1, 77, 0
3, 22128, Note_on_c, 1, 71, 64
3, 22173, Note_on_c, 1, 71, 0
3, 22176, Note_on_c, 1, 80, 64
3, 22265, Note_on_c, 1, 80, 0
3, 22272, Note_on_c, 1, 80, 64
3, 22295, Note_on_c, 1, 80, 0
3, 22296, Note_on_c, 1, 79, 64
3, 22319, Note_on_c, 1, 79, 0
3, 22320, Note_on_c, 1, 77, 64
3, 22343, Note_on_c, 1, 77, 0
3, 22344, Note_on_c, 1, 75, 64
3, 22367, Note_on_c, 1, 75, 0
3, 22368, Note_on_c, 1, 79, 64
3, 22391, Note_on_c, 1, 79, 0
3, 22392, Note_on_c, 1, 77, 64
3, 22415, Note_on_c, 1, 77, 0
3, 22416, Note_on_c, 1, 75, 64
3, 22439, Note_on_c, 1, 75, 0
3, 22440, Note_on_c, 1, 74, 64
3, 22463, Note_on_c, 1, 74, 0
3, 22464, Note_on_c, 1, 75, 64
3, 22487, Note_on_c, 1, 75, 0
3, 22488, Note_on_c, 1, 74, 64
3, 22511, Note_on_c, 1, 74, 0
3, 22512, Note_on_c, 1, 75, 64
3, 22535, Note_on_c, 1, 75, 0
3, 22536, Note_on_c, 1, 79, 64
3, 22559, Note_on_c, 1, 79, 0
3, 22560, Note_on_c, 1, 84, 64
3, 22605, Note_on_c, 1, 84, 0
3, 22608, Note_on_c, 1, 84, 64
3, 22653, Note_on_c, 1, 84, 0
3, 22656, Note_on_c, 1, 84, 64
3, 22701, Note_on_c, 1, 84, 0
3, 22704, Note_on_c, 1, 74, 64
3, 22749, Note_on_c, 1, 74, 0
3, 22752, Note_on_c, 1, 82, 64
3, 22841, Note_on_c, 1, 82, 0
3, 22848, Note_on_c, 1, 72, 64
3, 22871, Note_on_c, 1, 72, 0
3, 22872, Note_on_c, 1, 70, 64
3, 22895, Note_on_c, 1, 70, 0
3, 22896, Note_on_c, 1, 72, 64
3, 22919, Note_on_c, 1, 72, 0
3, 22920, Note_on_c, 1, 75, 64
3, 22943, Note_on_c, 1, 75, 0
3, 22944, Note_on_c, 1, 80, 64
3, 22989, Note_on_c, 1, 80, 0
3, 22992, Note_on_c, 1, 80, 64
3, 23037, Note_on_c, 1, 80, 0
3, 23040, Note_on_c, 1, 80, 64
3, 23085, Note_on_c, 1, 80, 0
3, 23088, Note_on_c, 1, 70, 64
3, 23133, Note_on_c, 1, 70, 0
3, 23136, Note_on_c, 1, 79, 64
3, 23225, Note_on_c, 1, 79, 0
3, 23232, Note_on_c, 1, 68, 64
3, 23255, Note_on_c, 1, 68, 0
3, 23256, Note_on_c, 1, 67, 64
3, 23279, Note_on_c, 1, 67, 0
3, 23280, Note_on_c, 1, 68, 64
3, 23303, Note_on_c, 1, 68, 0
3, 23304, Note_on_c, 1, 72, 64
3, 23327, Note_on_c, 1, 72, 0
3, 23328, Note_on_c, 1, 77, 64
3, 23373, Note_on_c, 1, 77, 0
3, 23376, Note_on_c, 1, 77, 64
3, 23421, Note_on_c, 1, 77, 0
3, 23424, Note_on_c, 1, 77, 64
3, 23469, Note_on_c, 1, 77, 0
3, 23472, Note_on_c, 1, 67, 64
3, 23517, Note_on_c, 1, 67, 0
3, 23520, Note_on_c, 1, 75, 64
3, 23609, Note_on_c, 1, 75, 0
3, 23616, Note_on_c, 1, 75, 64
3, 23661, Note_on_c, 1, 75, 0
3, 23664, Note_on_c, 1, 84, 64
3, 23687, Note_on_c, 1, 84, 0
3, 23688, Note_on_c, 1, 82, 64
3, 23711, Note_on_c, 1, 82, 0
3, 23712, Note_on_c, 1, 80, 64
3, 23735, Note_on_c, 1, 80, 0
3, 23736, Note_on_c, 1, 79, 64
3, 23759, Note_on_c, 1, 79, 0
3, 23760, Note_on_c, 1, 77, 64
3, 23783, Note_on_c, 1, 77, 0
3, 23784, Note_on_c, 1, 75, 64
3, 23807, Note_on_c, 1, 75, 0
3, 23808, Note_on_c, 1, 74, 64
3, 23831, Note_on_c, 1, 74, 0
3, 23832, Note_on_c, 1, 72, 64
3, 23855, Note_on_c, 1, 72, 0
3, 23856, Note_on_c, 1, 70, 64
3, 23879, Note_on_c, 1, 70, 0
3, 23880, Note_on_c, 1, 72, 64
3, 23903, Note_on_c, 1, 72, 0
3, 23904, Note_on_c, 1, 74, 64
3, 23927, Note_on_c, 1, 74, 0
3, 23928, Note_on_c, 1, 75, 64
3, 23951, Note_on_c, 1, 75, 0
3, 23952, Note_on_c, 1, 77, 64
3, 23975, Note_on_c, 1, 77, 0
3, 23976, Note_on_c, 1, 68, 64
3, 23999, Note_on_c, 1, 68, 0
3, 24000, Note_on_c, 1, 67, 64
3, 24089, Note_on_c, 1, 67, 0
3, 24144, Note_on_c, 1, 82, 64
3, 24189, Note_on_c, 1, 82, 0
3, 24192, Note_on_c, 1, 82, 64
3, 24215, Note_on_c, 1, 82, 0
3, 24216, Note_on_c, 1, 80, 64
3, 24239, Note_on_c, 1, 80, 0
3, 24240, Note_on_c, 1, 79, 64
3, 24263, Note_on_c, 1, 79, 0
3, 24264, Note_on_c, 1, 77, 64
3, 24287, Note_on_c, 1, 77, 0
3, 24288, Note_on_c, 1, 75, 64
3, 24311, Note_on_c, 1, 75, 0
3, 24312, Note_on_c, 1, 74, 64
3, 24335, Note_on_c, 1, 74, 0
3, 24336, Note_on_c, 1, 72, 64
3, 24359, Note_on_c, 1, 72, 0
3, 24360, Note_on_c, 1, 70, 64
3, 24383, Note_on_c, 1, 70, 0
3, 24384, Note_on_c, 1, 72, 64
3, 24407, Note_on_c, 1, 72, 0
3, 24408, Note_on_c, 1, 69, 64
3, 24431, Note_on_c, 1, 69, 0
3, 24432, Note_on_c, 1, 74, 64
3, 24455, Note_on_c, 1, 74, 0
3, 24456, Note_on_c, 1, 70, 64
3, 24479, Note_on_c, 1, 70, 0
3, 24480, Note_on_c, 1, 75, 64
3, 24525, Note_on_c, 1, 75, 0
3, 24528, Note_on_c, 1, 74, 64
3, 24551, Note_on_c, 1, 74, 0
3, 24552, Note_on_c, 1, 72, 64
3, 24575, Note_on_c, 1, 72, 0
3, 24576, Note_on_c, 1, 72, 64
3, 24621, Note_on_c, 1, 72, 0
3, 24624, Note_on_c, 1, 70, 64
3, 24669, Note_on_c, 1, 70, 0
3, 24696, Note_on_c, 1, 70, 64
3, 24719, Note_on_c, 1, 70, 0
3, 24720, Note_on_c, 1, 72, 64
3, 24743, Note_on_c, 1, 72, 0
3, 24744, Note_on_c, 1, 74, 64
3, 24767, Note_on_c, 1, 74, 0
3, 24768, Note_on_c, 1, 75, 64
3, 24791, Note_on_c, 1, 75, 0
3, 24792, Note_on_c, 1, 74, 64
3, 24815, Note_on_c, 1, 74, 0
3, 24816, Note_on_c, 1, 75, 64
3, 24839, Note_on_c, 1, 75, 0
3, 24840, Note_on_c, 1, 79, 64
3, 24863, Note_on_c, 1, 79, 0
3, 24864, Note_on_c, 1, 77, 64
3, 24887, Note_on_c, 1, 77, 0
3, 24888, Note_on_c, 1, 75, 64
3, 24911, Note_on_c, 1, 75, 0
3, 24912, Note_on_c, 1, 74, 64
3, 24935, Note_on_c, 1, 74, 0
3, 24936, Note_on_c, 1, 75, 64
3, 24959, Note_on_c, 1, 75, 0
3, 24960, Note_on_c, 1, 77, 64
3, 24983, Note_on_c, 1, 77, 0
3, 24984, Note_on_c, 1, 75, 64
3, 25007, Note_on_c, 1, 75, 0
3, 25008, Note_on_c, 1, 74, 64
3, 25031, Note_on_c, 1, 74, 0
3, 25032, Note_on_c, 1, 72, 64
3, 25055, Note_on_c, 1, 72, 0
3, 25056, Note_on_c, 1, 70, 64
3, 25101, Note_on_c, 1, 70, 0
3, 25104, Note_on_c, 1, 75, 64
3, 25149, Note_on_c, 1, 75, 0
3, 25152, Note_on_c, 1, 72, 64
3, 25197, Note_on_c, 1, 72, 0
3, 25200, Note_on_c, 1, 68, 64
3, 25245, Note_on_c, 1, 68, 0
3, 25296, Note_on_c, 1, 84, 64
3, 25341, Note_on_c, 1, 84, 0
3, 25344, Note_on_c, 1, 84, 64
3, 25367, Note_on_c, 1, 84, 0
3, 25368, Note_on_c, 1, 80, 64
3, 25391, Note_on_c, 1, 80, 0
3, 25392, Note_on_c, 1, 77, 64
3, 25415, Note_on_c, 1, 77, 0
3, 25416, Note_on_c, 1, 74, 64
3, 25439, Note_on_c, 1, 74, 0
3, 25440, Note_on_c, 1, 70, 64
3, 25485, Note_on_c, 1, 70, 0
3, 25488, Note_on_c, 1, 74, 64
3, 25533, Note_on_c, 1, 74, 0
3, 25536, Note_on_c, 1, 75, 64
3, 25603, Note_on_c, 1, 75, 0
3, 25608, Note_on_c, 1, 77, 64
3, 25631, Note_on_c, 1, 77, 0
3, 25632, Note_on_c, 1, 77, 64
3, 25699, Note_on_c, 1, 77, 0
3, 25704, Note_on_c, 1, 75, 64
3, 25716, Note_on_c, 1, 75, 0
3, 25716, Note_on_c, 1, 77, 64
3, 25728, Note_on_c, 1, 77, 0
3, 25728, Note_on_c, 1, 79, 64
3, 25847, Note_on_c, 1, 79, 0
3, 25848, Note_on_c, 1, 77, 64
3, 25871, Note_on_c, 1, 77, 0
3, 25872, Note_on_c, 1, 75, 64
3, 25895, Note_on_c, 1, 75, 0
3, 25896, Note_on_c, 1, 74, 64
3, 25919, Note_on_c, 1, 74, 0
3, 25920, Note_on_c, 1, 72, 64
3, 25943, Note_on_c, 1, 72, 0
3, 25944, Note_on_c, 1, 70, 64
3, 25967, Note_on_c, 1, 70, 0
3, 25968, Note_on_c, 1, 69, 64
3, 25991, Note_on_c, 1, 69, 0
3, 25992, Note_on_c, 1, 70, 64
3, 26015, Note_on_c, 1, 70, 0
3, 26016, Note_on_c, 1, 72, 64
3, 26039, Note_on_c, 1, 72, 0
3, 26040, Note_on_c, 1, 75, 64
3, 26063, Note_on_c, 1, 75, 0
3, 26064, Note_on_c, 1, 74, 64
3, 26087, Note_on_c, 1, 74, 0
3, 26088, Note_on_c, 1, 72, 64
3, 26111, Note_on_c, 1, 72, 0
3, 26112, Note_on_c, 1, 70, 64
3, 26135, Note_on_c, 1, 70, 0
3, 26136, Note_on_c, 1, 72, 64
3, 26159, Note_on_c, 1, 72, 0
3, 26160, Note_on_c, 1, 74, 64
3, 26183, Note_on_c, 1, 74, 0
3, 26184, Note_on_c, 1, 70, 64
3, 26207, Note_on_c, 1, 70, 0
3, 26208, Note_on_c, 1, 72, 64
3, 26253, Note_on_c, 1, 72, 0
3, 26256, Note_on_c, 1, 65, 64
3, 26301, Note_on_c, 1, 65, 0
3, 26304, Note_on_c, 1, 70, 64
3, 26349, Note_on_c, 1, 70, 0
3, 26352, Note_on_c, 1, 58, 64
3, 26397, Note_on_c, 1, 58, 0
3, 26400, Note_on_c, 1, 74, 64
3, 26489, Note_on_c, 1, 74, 0
3, 26496, Note_on_c, 1, 74, 64
3, 26519, Note_on_c, 1, 74, 0
3, 26520, Note_on_c, 1, 73, 64
3, 26543, Note_on_c, 1, 73, 0
3, 26544, Note_on_c, 1, 74, 64
3, 26567, Note_on_c, 1, 74, 0
3, 26568, Note_on_c, 1, 77, 64
3, 26591, Note_on_c, 1, 77, 0
3, 26592, Note_on_c, 1, 76, 64
3, 26615, Note_on_c, 1, 76, 0
3, 26616, Note_on_c, 1, 74, 64
3, 26639, Note_on_c, 1, 74, 0
3, 26640, Note_on_c, 1, 73, 64
3, 26663, Note_on_c, 1, 73, 0
3, 26664, Note_on_c, 1, 76, 64
3, 26687, Note_on_c, 1, 76, 0
3, 26688, Note_on_c, 1, 74, 64
3, 26777, Note_on_c, 1, 74, 0
3, 26832, Note_on_c, 1, 77, 64
3, 26877, Note_on_c, 1, 77, 0
3, 26880, Note_on_c, 1, 67, 64
3, 26903, Note_on_c, 1, 67, 0
3, 26904, Note_on_c, 1, 65, 64
3, 26927, Note_on_c, 1, 65, 0
3, 26928, Note_on_c, 1, 67, 64
3, 26951, Note_on_c, 1, 67, 0
3, 26952, Note_on_c, 1, 70, 64
3, 26975, Note_on_c, 1, 70, 0
3, 26976, Note_on_c, 1, 75, 64
3, 27021, Note_on_c, 1, 75, 0
3, 27024, Note_on_c, 1, 75, 64
3, 27069, Note_on_c, 1, 75, 0
3, 27072, Note_on_c, 1, 75, 64
3, 27117, Note_on_c, 1, 75, 0
3, 27120, Note_on_c, 1, 65, 64
3, 27165, Note_on_c, 1, 65, 0
3, 27168, Note_on_c, 1, 74, 64
3, 27257, Note_on_c, 1, 74, 0
3, 27264, Note_on_c, 1, 74, 64
3, 27309, Note_on_c, 1, 74, 0
3, 27312, Note_on_c, 1, 79, 64
3, 27335, Note_on_c, 1, 79, 0
3, 27336, Note_on_c, 1, 77, 64
3, 27359, Note_on_c, 1, 77, 0
3, 27360, Note_on_c, 1, 75, 64
3, 27383, Note_on_c, 1, 75, 0
3, 27384, Note_on_c, 1, 74, 64
3, 27407, Note_on_c, 1, 74, 0
3, 27408, Note_on_c, 1, 72, 64
3, 27431, Note_on_c, 1, 72, 0
3, 27432, Note_on_c, 1, 70, 64
3, 27455, Note_on_c, 1, 70, 0
3, 27456, Note_on_c, 1, 69, 64
3, 27479, Note_on_c, 1, 69, 0
3, 27480, Note_on_c, 1, 65, 64
3, 27503, Note_on_c, 1, 65, 0
3, 27504, Note_on_c, 1, 67, 64
3, 27527, Note_on_c, 1, 67, 0
3, 27528, Note_on_c, 1, 65, 64
3, 27551, Note_on_c, 1, 65, 0
3, 27552, Note_on_c, 1, 63, 64
3, 27575, Note_on_c, 1, 63, 0
3, 27576, Note_on_c, 1, 72, 64
3, 27599, Note_on_c, 1, 72, 0
3, 27600, Note_on_c, 1, 65, 64
3, 27623, Note_on_c, 1, 65, 0
3, 27624, Note_on_c, 1, 63, 64
3, 27647, Note_on_c, 1, 63, 0
3, 27648, Note_on_c, 1, 62, 64
3, 27693, Note_on_c, 1, 62, 0
3, 27696, Note_on_c, 1, 70, 64
3, 27741, Note_on_c, 1, 70, 0
3, 27744, Note_on_c, 1, 60, 64
3, 27789, Note_on_c, 1, 60, 0
3, 27792, Note_on_c, 1, 69, 64
3, 27837, Note_on_c, 1, 69, 0
3, 27840, Note_on_c, 1, 62, 64
3, 27863, Note_on_c, 1, 62, 0
3, 27864, Note_on_c, 1, 60, 64
3, 27887, Note_on_c, 1, 60, 0
3, 27888, Note_on_c, 1, 62, 64
3, 27911, Note_on_c, 1, 62, 0
3, 27912, Note_on_c, 1, 65, 64
3, 27935, Note_on_c, 1, 65, 0
3, 27936, Note_on_c, 1, 70, 64
3, 27981, Note_on_c, 1, 70, 0
3, 27984, Note_on_c, 1, 62, 64
3, 28029, Note_on_c, 1, 62, 0
3, 28032, Note_on_c, 1, 60, 64
3, 28077, Note_on_c, 1, 60, 0
3, 28080, Note_on_c, 1, 70, 64
3, 28125, Note_on_c, 1, 70, 0
3, 28128, Note_on_c, 1, 69, 64
3, 28173, Note_on_c, 1, 69, 0
3, 28176, Note_on_c, 1, 65, 64
3, 28221, Note_on_c, 1, 65, 0
3, 28224, Note_on_c, 1, 63, 64
3, 28247, Note_on_c, 1, 63, 0
3, 28248, Note_on_c, 1, 62, 64
3, 28271, Note_on_c, 1, 62, 0
3, 28272, Note_on_c, 1, 63, 64
3, 28295, Note_on_c, 1, 63, 0
3, 28296, Note_on_c, 1, 67, 64
3, 28319, Note_on_c, 1, 67, 0
3, 28320, Note_on_c, 1, 72, 64
3, 28365, Note_on_c, 1, 72, 0
3, 28368, Note_on_c, 1, 63, 64
3, 28413, Note_on_c, 1, 63, 0
3, 28416, Note_on_c, 1, 62, 64
3, 28461, Note_on_c, 1, 62, 0
3, 28464, Note_on_c, 1, 72, 64
3, 28509, Note_on_c, 1, 72, 0
3, 28512, Note_on_c, 1, 70, 64
3, 28557, Note_on_c, 1, 70, 0
3, 28560, Note_on_c, 1, 67, 64
3, 28605, Note_on_c, 1, 67, 0
3, 28608, Note_on_c, 1, 65, 64
3, 28631, Note_on_c, 1, 65, 0
3, 28632, Note_on_c, 1, 64, 64
3, 28655, Note_on_c, 1, 64, 0
3, 28656, Note_on_c, 1, 65, 64
3, 28679, Note_on_c, 1, 65, 0
3, 28680, Note_on_c, 1, 69, 64
3, 28703, Note_on_c, 1, 69, 0
3, 28704, Note_on_c, 1, 74, 64
3, 28749, Note_on_c, 1, 74, 0
3, 28752, Note_on_c, 1, 65, 64
3, 28797, Note_on_c, 1, 65, 0
3, 28800, Note_on_c, 1, 64, 64
3, 28845, Note_on_c, 1, 64, 0
3, 28848, Note_on_c, 1, 74, 64
3, 28893, Note_on_c, 1, 74, 0
3, 28896, Note_on_c, 1, 73, 64
3, 28919, Note_on_c, 1, 73, 0
3, 28920, Note_on_c, 1, 68, 64
3, 28943, Note_on_c, 1, 68, 0
3, 28944, Note_on_c, 1, 71, 64
3, 28967, Note_on_c, 1, 71, 0
3, 28968, Note_on_c, 1, 73, 64
3, 28991, Note_on_c, 1, 73, 0
3, 28992, Note_on_c, 1, 74, 64
3, 29081, Note_on_c, 1, 74, 0
3, 29088, Note_on_c, 1, 74, 64
3, 29111, Note_on_c, 1, 74, 0
3, 29112, Note_on_c, 1, 77, 64
3, 29135, Note_on_c, 1, 77, 0
3, 29136, Note_on_c, 1, 76, 64
3, 29159, Note_on_c, 1, 76, 0
3, 29160, Note_on_c, 1, 74, 64
3, 29183, Note_on_c, 1, 74, 0
3, 29184, Note_on_c, 1, 73, 64
3, 29207, Note_on_c, 1, 73, 0
3, 29208, Note_on_c, 1, 74, 64
3, 29231, Note_on_c, 1, 74, 0
3, 29232, Note_on_c, 1, 76, 64
3, 29255, Note_on_c, 1, 76, 0
3, 29256, Note_on_c, 1, 68, 64
3, 29279, Note_on_c, 1, 68, 0
3, 29280, Note_on_c, 1, 74, 64
3, 29457, Note_on_c, 1, 74, 0
3, 29472, Note_on_c, 1, 73, 64
3, 29561, Note_on_c, 1, 73, 0
3, 29568, Note_on_c, 1, 74, 64
3, 29657, Note_on_c, 1, 74, 0
3, 29664, Note_on_c, 1, 65, 64
3, 29687, Note_on_c, 1, 65, 0
3, 29688, Note_on_c, 1, 63, 64
3, 29711, Note_on_c, 1, 63, 0
3, 29712, Note_on_c, 1, 65, 64
3, 29735, Note_on_c, 1, 65, 0
3, 29736, Note_on_c, 1, 70, 64
3, 29759, Note_on_c, 1, 70, 0
3, 29760, Note_on_c, 1, 75, 64
3, 29937, Note_on_c, 1, 75, 0
3, 29952, Note_on_c, 1, 74, 64
3, 30041, Note_on_c, 1, 74, 0
3, 30048, Note_on_c, 1, 62, 64
3, 30071, Note_on_c, 1, 62, 0
3, 30072, Note_on_c, 1, 60, 64
3, 30095, Note_on_c, 1, 60, 0
3, 30096, Note_on_c, 1, 62, 64
3, 30119, Note_on_c, 1, 62, 0
3, 30120, Note_on_c, 1, 67, 64
3, 30143, Note_on_c, 1, 67, 0
3, 30144, Note_on_c, 1, 72, 64
3, 30321, Note_on_c, 1, 72, 0
3, 30336, Note_on_c, 1, 70, 64
3, 30425, Note_on_c, 1, 70, 0
3, 30528, Note_on_c, 1, 72, 64
3, 30551, Note_on_c, 1, 72, 0
3, 30552, Note_on_c, 1, 70, 64
3, 30575, Note_on_c, 1, 70, 0
3, 30576, Note_on_c, 1, 72, 64
3, 30599, Note_on_c, 1, 72, 0
3, 30600, Note_on_c, 1, 75, 64
3, 30623, Note_on_c, 1, 75, 0
3, 30624, Note_on_c, 1, 80, 64
3, 30669, Note_on_c, 1, 80, 0
3, 30672, Note_on_c, 1, 74, 64
3, 30717, Note_on_c, 1, 74, 0
3, 30720, Note_on_c, 1, 74, 64
3, 30765, Note_on_c, 1, 74, 0
3, 30768, Note_on_c, 1, 72, 64
3, 30813, Note_on_c, 1, 72, 0
3, 30912, Note_on_c, 1, 65, 64
3, 30935, Note_on_c, 1, 65, 0
3, 30936, Note_on_c, 1, 63, 64
3, 30959, Note_on_c, 1, 63, 0
3, 30960, Note_on_c, 1, 65, 64
3, 30983, Note_on_c, 1, 65, 0
3, 30984, Note_on_c, 1, 71, 64
3, 31007, Note_on_c, 1, 71, 0
3, 31008, Note_on_c, 1, 74, 64
3, 31031, Note_on_c, 1, 74, 0
3, 31032, Note_on_c, 1, 72, 64
3, 31055, Note_on_c, 1, 72, 0
3, 31056, Note_on_c, 1, 74, 64
3, 31079, Note_on_c, 1, 74, 0
3, 31080, Note_on_c, 1, 77, 64
3, 31103, Note_on_c, 1, 77, 0
3, 31104, Note_on_c, 1, 74, 64
3, 31149, Note_on_c, 1, 74, 0
3, 31152, Note_on_c, 1, 72, 64
3, 31175, Note_on_c, 1, 72, 0
3, 31176, Note_on_c, 1, 74, 64
3, 31199, Note_on_c, 1, 74, 0
3, 31200, Note_on_c, 1, 75, 64
3, 31289, Note_on_c, 1, 75, 0
3, 31296, Note_on_c, 1, 75, 64
3, 31363, Note_on_c, 1, 75, 0
3, 31368, Note_on_c, 1, 77, 64
3, 31391, Note_on_c, 1, 77, 0
3, 31392, Note_on_c, 1, 75, 64
3, 31415, Note_on_c, 1, 75, 0
3, 31416, Note_on_c, 1, 74, 64
3, 31439, Note_on_c, 1, 74, 0
3, 31440, Note_on_c, 1, 72, 64
3, 31463, Note_on_c, 1, 72, 0
3, 31464, Note_on_c, 1, 74, 64
3, 31487, Note_on_c, 1, 74, 0
3, 31488, Note_on_c, 1, 72, 64
3, 31511, Note_on_c, 1, 72, 0
3, 31512, Note_on_c, 1, 64, 64
3, 31535, Note_on_c, 1, 64, 0
3, 31536, Note_on_c, 1, 65, 64
3, 31559, Note_on_c, 1, 65, 0
3, 31560, Note_on_c, 1, 67, 64
3, 31583, Note_on_c, 1, 67, 0
3, 31584, Note_on_c, 1, 69, 64
3, 31607, Note_on_c, 1, 69, 0
3, 31608, Note_on_c, 1, 70, 64
3, 31631, Note_on_c, 1, 70, 0
3, 31632, Note_on_c, 1, 72, 64
3, 31655, Note_on_c, 1, 72, 0
3, 31656, Note_on_c, 1, 69, 64
3, 31679, Note_on_c, 1, 69, 0
3, 31680, Note_on_c, 1, 66, 64
3, 31703, Note_on_c, 1, 66, 0
3, 31704, Note_on_c, 1, 67, 64
3, 31727, Note_on_c, 1, 67, 0
3, 31728, Note_on_c, 1, 69, 64
3, 31751, Note_on_c, 1, 69, 0
3, 31752, Note_on_c, 1, 66, 64
3, 31775, Note_on_c, 1, 66, 0
3, 31776, Note_on_c, 1, 62, 64
3, 31821, Note_on_c, 1, 62, 0
3, 31824, Note_on_c, 1, 67, 64
3, 31869, Note_on_c, 1, 67, 0
3, 31872, Note_on_c, 1, 67, 64
3, 31917, Note_on_c, 1, 67, 0
3, 31920, Note_on_c, 1, 66, 64
3, 31943, Note_on_c, 1, 66, 0
3, 31944, Note_on_c, 1, 67, 64
3, 31967, Note_on_c, 1, 67, 0
3, 31968, Note_on_c, 1, 69, 64
3, 32013, Note_on_c, 1, 69, 0
3, 32016, Note_on_c, 1, 69, 64
3, 32061, Note_on_c, 1, 69, 0
3, 32064, Note_on_c, 1, 69, 64
3, 32109, Note_on_c, 1, 69, 0
3, 32112, Note_on_c, 1, 67, 64
3, 32157, Note_on_c, 1, 67, 0
3, 32160, Note_on_c, 1, 72, 64
3, 32205, Note_on_c, 1, 72, 0
3, 32208, Note_on_c, 1, 72, 64
3, 32253, Note_on_c, 1, 72, 0
3, 32256, Note_on_c, 1, 72, 64
3, 32301, Note_on_c, 1, 72, 0
3, 32304, Note_on_c, 1, 70, 64
3, 32327, Note_on_c, 1, 70, 0
3, 32328, Note_on_c, 1, 72, 64
3, 32351, Note_on_c, 1, 72, 0
3, 32352, Note_on_c, 1, 74, 64
3, 32397, Note_on_c, 1, 74, 0
3, 32400, Note_on_c, 1, 74, 64
3, 32445, Note_on_c, 1, 74, 0
3, 32448, Note_on_c, 1, 74, 64
3, 32493, Note_on_c, 1, 74, 0
3, 32496, Note_on_c, 1, 72, 64
3, 32519, Note_on_c, 1, 72, 0
3, 32520, Note_on_c, 1, 74, 64
3, 32543, Note_on_c, 1, 74, 0
3, 32544, Note_on_c, 1, 75, 64
3, 32589, Note_on_c, 1, 75, 0
3, 32592, Note_on_c, 1, 75, 64
3, 32637, Note_on_c, 1, 75, 0
3, 32640, Note_on_c, 1, 75, 64
3, 32685, Note_on_c, 1, 75, 0
3, 32688, Note_on_c, 1, 74, 64
3, 32711, Note_on_c, 1, 74, 0
3, 32712, Note_on_c, 1, 75, 64
3, 32735, Note_on_c, 1, 75, 0
3, 32736, Note_on_c, 1, 77, 64
3, 32781, Note_on_c, 1, 77, 0
3, 32784, Note_on_c, 1, 65, 64
3, 32829, Note_on_c, 1, 65, 0
3, 32832, Note_on_c, 1, 67, 64
3, 32877, Note_on_c, 1, 67, 0
3, 32880, Note_on_c, 1, 70, 64
3, 32925, Note_on_c, 1, 70, 0
3, 32928, Note_on_c, 1, 75, 64
3, 32973, Note_on_c, 1, 75, 0
3, 32976, Note_on_c, 1, 69, 64
3, 33021, Note_on_c, 1, 69, 0
3, 33024, Note_on_c, 1, 74, 64
3, 33157, Note_on_c, 1, 74, 0
3, 33168, Note_on_c, 1, 67, 64
3, 33213, Note_on_c, 1, 67, 0
3, 33216, Note_on_c, 1, 72, 64
3, 33239, Note_on_c, 1, 72, 0
3, 33240, Note_on_c, 1, 74, 64
3, 33263, Note_on_c, 1, 74, 0
3, 33264, Note_on_c, 1, 72, 64
3, 33287, Note_on_c, 1, 72, 0
3, 33288, Note_on_c, 1, 70, 64
3, 33311, Note_on_c, 1, 70, 0
3, 33312, Note_on_c, 1, 69, 64
3, 33335, Note_on_c, 1, 69, 0
3, 33336, Note_on_c, 1, 67, 64
3, 33359, Note_on_c, 1, 67, 0
3, 33360, Note_on_c, 1, 66, 64
3, 33383, Note_on_c, 1, 66, 0
3, 33384, Note_on_c, 1, 69, 64
3, 33407, Note_on_c, 1, 69, 0
3, 33408, Note_on_c, 1, 62, 64
3, 33497, Note_on_c, 1, 62, 0
3, 33552, Note_on_c, 1, 78, 64
3, 33597, Note_on_c, 1, 78, 0
3, 33600, Note_on_c, 1, 79, 64
3, 33667, Note_on_c, 1, 79, 0
3, 33672, Note_on_c, 1, 81, 64
3, 33695, Note_on_c, 1, 81, 0
3, 33696, Note_on_c, 1, 78, 64
3, 33763, Note_on_c, 1, 78, 0
3, 33768, Note_on_c, 1, 79, 64
3, 33791, Note_on_c, 1, 79, 0
3, 33792, Note_on_c, 1, 79, 64
3, 33881, Note_on_c, 1, 79, 0
3, 34032, Note_on_c, 1, 75, 64
3, 34055, Note_on_c, 1, 75, 0
3, 34056, Note_on_c, 1, 72, 64
3, 34079, Note_on_c, 1, 72, 0
3, 34080, Note_on_c, 1, 69, 64
3, 34103, Note_on_c, 1, 69, 0
3, 34104, Note_on_c, 1, 70, 64
3, 34116, Note_on_c, 1, 70, 0
3, 34116, Note_on_c, 1, 72, 64
3, 34128, Note_on_c, 1, 72, 0
3, 34128, Note_on_c, 1, 70, 64
3, 34151, Note_on_c, 1, 70, 0
3, 34152, Note_on_c, 1, 69, 64
3, 34175, Note_on_c, 1, 69, 0
3, 34176, Note_on_c, 1, 69, 64
3, 34353, Note_on_c, 1, 69, 0
3, 34368, Note_on_c, 1, 69, 64
3, 34413, Note_on_c, 1, 69, 0
3, 34416, Note_on_c, 1, 67, 64
3, 34505, Note_on_c, 1, 67, 0
3, 34512, Note_on_c, 1, 66, 64
3, 34557, Note_on_c, 1, 66, 0
3, 34560, Note_on_c, 1, 67, 64
3, 34583, Note_on_c, 1, 67, 0
3, 34584, Note_on_c, 1, 69, 64
3, 34607, Note_on_c, 1, 69, 0
3, 34608, Note_on_c, 1, 70, 64
3, 34631, Note_on_c, 1, 70, 0
3, 34632, Note_on_c, 1, 67, 64
3, 34655, Note_on_c, 1, 67, 0
3, 34656, Note_on_c, 1, 69, 64
3, 34701, Note_on_c, 1, 69, 0
3, 34704, Note_on_c, 1, 62, 64
3, 34749, Note_on_c, 1, 62, 0
3, 34752, Note_on_c, 1, 67, 64
3, 34797, Note_on_c, 1, 67, 0
3, 34800, Note_on_c, 1, 55, 64
3, 34845, Note_on_c, 1, 55, 0
3, 34848, Note_on_c, 1, 70, 64
3, 34937, Note_on_c, 1, 70, 0
3, 34944, Note_on_c, 1, 70, 64
3, 34967, Note_on_c, 1, 70, 0
3, 34968, Note_on_c, 1, 69, 64
3, 34991, Note_on_c, 1, 69, 0
3, 34992, Note_on_c, 1, 70, 64
3, 35015, Note_on_c, 1, 70, 0
3, 35016, Note_on_c, 1, 74, 64
3, 35039, Note_on_c, 1, 74, 0
3, 35040, Note_on_c, 1, 72, 64
3, 35063, Note_on_c, 1, 72, 0
3, 35064, Note_on_c, 1, 70, 64
3, 35087, Note_on_c, 1, 70, 0
3, 35088, Note_on_c, 1, 69, 64
3, 35111, Note_on_c, 1, 69, 0
3, 35112, Note_on_c, 1, 72, 64
3, 35135, Note_on_c, 1, 72, 0
3, 35136, Note_on_c, 1, 70, 64
3, 35159, Note_on_c, 1, 70, 0
3, 35160, Note_on_c, 1, 69, 64
3, 35183, Note_on_c, 1, 69, 0
3, 35184, Note_on_c, 1, 70, 64
3, 35207, Note_on_c, 1, 70, 0
3, 35208, Note_on_c, 1, 72, 64
3, 35231, Note_on_c, 1, 72, 0
3, 35232, Note_on_c, 1, 74, 64
3, 35255, Note_on_c, 1, 74, 0
3, 35256, Note_on_c, 1, 75, 64
3, 35279, Note_on_c, 1, 75, 0
3, 35280, Note_on_c, 1, 77, 64
3, 35303, Note_on_c, 1, 77, 0
3, 35304, Note_on_c, 1, 74, 64
3, 35327, Note_on_c, 1, 74, 0
3, 35328, Note_on_c, 1, 75, 64
3, 35373, Note_on_c, 1, 75, 0
3, 35376, Note_on_c, 1, 79, 64
3, 35399, Note_on_c, 1, 79, 0
3, 35400, Note_on_c, 1, 75, 64
3, 35423, Note_on_c, 1, 75, 0
3, 35424, Note_on_c, 1, 72, 64
3, 35447, Note_on_c, 1, 72, 0
3, 35448, Note_on_c, 1, 74, 64
3, 35460, Note_on_c, 1, 74, 0
3, 35460, Note_on_c, 1, 75, 64
3, 35472, Note_on_c, 1, 75, 0
3, 35472, Note_on_c, 1, 74, 64
3, 35495, Note_on_c, 1, 74, 0
3, 35496, Note_on_c, 1, 72, 64
3, 35519, Note_on_c, 1, 72, 0
3, 35520, Note_on_c, 1, 72, 64
3, 35697, Note_on_c, 1, 72, 0
3, 35712, Note_on_c, 1, 72, 64
3, 35735, Note_on_c, 1, 72, 0
3, 35736, Note_on_c, 1, 71, 64
3, 35759, Note_on_c, 1, 71, 0
3, 35760, Note_on_c, 1, 74, 64
3, 35783, Note_on_c, 1, 74, 0
3, 35784, Note_on_c, 1, 77, 64
3, 35807, Note_on_c, 1, 77, 0
3, 35808, Note_on_c, 1, 80, 64
3, 35831, Note_on_c, 1, 80, 0
3, 35832, Note_on_c, 1, 79, 64
3, 35844, Note_on_c, 1, 79, 0
3, 35844, Note_on_c, 1, 77, 64
3, 35856, Note_on_c, 1, 77, 0
3, 35856, Note_on_c, 1, 79, 64
3, 35879, Note_on_c, 1, 79, 0
3, 35880, Note_on_c, 1, 74, 64
3, 35903, Note_on_c, 1, 74, 0
3, 35904, Note_on_c, 1, 75, 64
3, 35971, Note_on_c, 1, 75, 0
3, 35976, Note_on_c, 1, 77, 64
3, 35999, Note_on_c, 1, 77, 0
3, 36000, Note_on_c, 1, 75, 64
3, 36023, Note_on_c, 1, 75, 0
3, 36024, Note_on_c, 1, 74, 64
3, 36047, Note_on_c, 1, 74, 0
3, 36048, Note_on_c, 1, 79, 64
3, 36093, Note_on_c, 1, 79, 0
3, 36096, Note_on_c, 1, 75, 64
3, 36141, Note_on_c, 1, 75, 0
3, 36144, Note_on_c, 1, 72, 64
3, 36189, Note_on_c, 1, 72, 0
3, 36240, Note_on_c, 1, 79, 64
3, 36285, Note_on_c, 1, 79, 0
3, 36288, Note_on_c, 1, 79, 64
3, 36311, Note_on_c, 1, 79, 0
3, 36312, Note_on_c, 1, 77, 64
3, 36335, Note_on_c, 1, 77, 0
3, 36336, Note_on_c, 1, 79, 64
3, 36359, Note_on_c, 1, 79, 0
3, 36360, Note_on_c, 1, 80, 64
3, 36383, Note_on_c, 1, 80, 0
3, 36384, Note_on_c, 1, 82, 64
3, 36407, Note_on_c, 1, 82, 0
3, 36408, Note_on_c, 1, 80, 64
3, 36431, Note_on_c, 1, 80, 0
3, 36432, Note_on_c, 1, 79, 64
3, 36455, Note_on_c, 1, 79, 0
3, 36456, Note_on_c, 1, 82, 64
3, 36479, Note_on_c, 1, 82, 0
3, 36480, Note_on_c, 1, 80, 64
3, 36525, Note_on_c, 1, 80, 0
3, 36528, Note_on_c, 1, 81, 64
3, 36573, Note_on_c, 1, 81, 0
3, 36576, Note_on_c, 1, 82, 64
3, 36621, Note_on_c, 1, 82, 0
3, 36624, Note_on_c, 1, 83, 64
3, 36669, Note_on_c, 1, 83, 0
3, 36672, Note_on_c, 1, 84, 64
3, 36849, Note_on_c, 1, 84, 0
3, 36864, Note_on_c, 1, 84, 64
3, 36909, Note_on_c, 1, 84, 0
3, 36912, Note_on_c, 1, 82, 64
3, 36935, Note_on_c, 1, 82, 0
3, 36936, Note_on_c, 1, 81, 64
3, 36959, Note_on_c, 1, 81, 0
3, 36960, Note_on_c, 1, 82, 64
3, 37049, Note_on_c, 1, 82, 0
3, 37056, Note_on_c, 1, 82, 64
3, 37079, Note_on_c, 1, 82, 0
3, 37080, Note_on_c, 1, 84, 64
3, 37103, Note_on_c, 1, 84, 0
3, 37104, Note_on_c, 1, 76, 64
3, 37127, Note_on_c, 1, 76, 0
3, 37128, Note_on_c, 1, 77, 64
3, 37151, Note_on_c, 1, 77, 0
3, 37152, Note_on_c, 1, 79, 64
3, 37241, Note_on_c, 1, 79, 0
3, 37248, Note_on_c, 1, 79, 64
3, 37271, Note_on_c, 1, 79, 0
3, 37272, Note_on_c, 1, 84, 64
3, 37295, Note_on_c, 1, 84, 0
3, 37296, Note_on_c, 1, 80, 64
3, 37319, Note_on_c, 1, 80, 0
3, 37320, Note_on_c, 1, 77, 64
3, 37343, Note_on_c, 1, 77, 0
3, 37344, Note_on_c, 1, 74, 64
3, 37433, Note_on_c, 1, 74, 0
3, 37440, Note_on_c, 1, 74, 64
3, 37463, Note_on_c, 1, 74, 0
3, 37464, Note_on_c, 1, 79, 64
3, 37487, Note_on_c, 1, 79, 0
3, 37488, Note_on_c, 1, 75, 64
3, 37511, Note_on_c, 1, 75, 0
3, 37512, Note_on_c, 1, 72, 64
3, 37535, Note_on_c, 1, 72, 0
3, 37536, Note_on_c, 1, 69, 64
3, 37625, Note_on_c, 1, 69, 0
3, 37632, Note_on_c, 1, 68, 64
3, 37655, Note_on_c, 1, 68, 0
3, 37656, Note_on_c, 1, 66, 64
3, 37679, Note_on_c, 1, 66, 0
3, 37680, Note_on_c, 1, 67, 64
3, 37703, Note_on_c, 1, 67, 0
3, 37704, Note_on_c, 1, 71, 64
3, 37727, Note_on_c, 1, 71, 0
3, 37728, Note_on_c, 1, 75, 64
3, 37751, Note_on_c, 1, 75, 0
3, 37752, Note_on_c, 1, 72, 64
3, 37775, Note_on_c, 1, 72, 0
3, 37776, Note_on_c, 1, 71, 64
3, 37799, Note_on_c, 1, 71, 0
3, 37800, Note_on_c, 1, 72, 64
3, 37823, Note_on_c, 1, 72, 0
3, 37824, Note_on_c, 1, 68, 64
3, 37847, Note_on_c, 1, 68, 0
3, 37848, Note_on_c, 1, 67, 64
3, 37871, Note_on_c, 1, 67, 0
3, 37872, Note_on_c, 1, 68, 64
3, 37895, Note_on_c, 1, 68, 0
3, 37896, Note_on_c, 1, 72, 64
3, 37919, Note_on_c, 1, 72, 0
3, 37920, Note_on_c, 1, 77, 64
3, 37943, Note_on_c, 1, 77, 0
3, 37944, Note_on_c, 1, 74, 64
3, 37967, Note_on_c, 1, 74, 0
3, 37968, Note_on_c, 1, 72, 64
3, 37991, Note_on_c, 1, 72, 0
3, 37992, Note_on_c, 1, 74, 64
3, 38015, Note_on_c, 1, 74, 0
3, 38016, Note_on_c, 1, 71, 64
3, 38039, Note_on_c, 1, 71, 0
3, 38040, Note_on_c, 1, 69, 64
3, 38063, Note_on_c, 1, 69, 0
3, 38064, Note_on_c, 1, 71, 64
3, 38087, Note_on_c, 1, 71, 0
3, 38088, Note_on_c, 1, 74, 64
3, 38111, Note_on_c, 1, 74, 0
3, 38112, Note_on_c, 1, 79, 64
3, 38135, Note_on_c, 1, 79, 0
3, 38136, Note_on_c, 1, 75, 64
3, 38159, Note_on_c, 1, 75, 0
3, 38160, Note_on_c, 1, 74, 64
3, 38183, Note_on_c, 1, 74, 0
3, 38184, Note_on_c, 1, 75, 64
3, 38207, Note_on_c, 1, 75, 0
3, 38208, Note_on_c, 1, 72, 64
3, 38231, Note_on_c, 1, 72, 0
3, 38232, Note_on_c, 1, 71, 64
3, 38255, Note_on_c, 1, 71, 0
3, 38256, Note_on_c, 1, 72, 64
3, 38279, Note_on_c, 1, 72, 0
3, 38280, Note_on_c, 1, 75, 64
3, 38303, Note_on_c, 1, 75, 0
3, 38304, Note_on_c, 1, 80, 64
3, 38327, Note_on_c, 1, 80, 0
3, 38328, Note_on_c, 1, 77, 64
3, 38351, Note_on_c, 1, 77, 0
3, 38352, Note_on_c, 1, 75, 64
3, 38375, Note_on_c, 1, 75, 0
3, 38376, Note_on_c, 1, 77, 64
3, 38399, Note_on_c, 1, 77, 0
3, 38400, Note_on_c, 1, 79, 64
3, 38423, Note_on_c, 1, 79, 0
3, 38424, Note_on_c, 1, 84, 64
3, 38447, Note_on_c, 1, 84, 0
3, 38448, Note_on_c, 1, 79, 64
3, 38471, Note_on_c, 1, 79, 0
3, 38472, Note_on_c, 1, 77, 64
3, 38495, Note_on_c, 1, 77, 0
3, 38496, Note_on_c, 1, 75, 64
3, 38519, Note_on_c, 1, 75, 0
3, 38520, Note_on_c, 1, 84, 64
3, 38543, Note_on_c, 1, 84, 0
3, 38544, Note_on_c, 1, 80, 64
3, 38567, Note_on_c, 1, 80, 0
3, 38568, Note_on_c, 1, 79, 64
3, 38591, Note_on_c, 1, 79, 0
3, 38592, Note_on_c, 1, 77, 64
3, 38615, Note_on_c, 1, 77, 0
3, 38616, Note_on_c, 1, 84, 64
3, 38639, Note_on_c, 1, 84, 0
3, 38640, Note_on_c, 1, 77, 64
3, 38663, Note_on_c, 1, 77, 0
3, 38664, Note_on_c, 1, 75, 64
3, 38687, Note_on_c, 1, 75, 0
3, 38688, Note_on_c, 1, 74, 64
3, 38711, Note_on_c, 1, 74, 0
3, 38712, Note_on_c, 1, 80, 64
3, 38735, Note_on_c, 1, 80, 0
3, 38736, Note_on_c, 1, 79, 64
3, 38759, Note_on_c, 1, 79, 0
3, 38760, Note_on_c, 1, 77, 64
3, 38783, Note_on_c, 1, 77, 0
3, 38784, Note_on_c, 1, 75, 64
3, 38807, Note_on_c, 1, 75, 0
3, 38808, Note_on_c, 1, 79, 64
3, 38831, Note_on_c, 1, 79, 0
3, 38832, Note_on_c, 1, 77, 64
3, 38903, Note_on_c, 1, 77, 0
3, 38904, Note_on_c, 1, 80, 64
3, 38927, Note_on_c, 1, 80, 0
3, 38928, Note_on_c, 1, 79, 64
3, 38951, Note_on_c, 1, 79, 0
3, 38952, Note_on_c, 1, 77, 64
3, 38975, Note_on_c, 1, 77, 0
3, 38976, Note_on_c, 1, 75, 64
3, 38999, Note_on_c, 1, 75, 0
3, 39000, Note_on_c, 1, 77, 64
3, 39023, Note_on_c, 1, 77, 0
3, 39024, Note_on_c, 1, 75, 64
3, 39047, Note_on_c, 1, 75, 0
3, 39048, Note_on_c, 1, 74, 64
3, 39071, Note_on_c, 1, 74, 0
3, 39072, Note_on_c, 1, 72, 64
3, 39095, Note_on_c, 1, 72, 0
3, 39096, Note_on_c, 1, 70, 64
3, 39119, Note_on_c, 1, 70, 0
3, 39120, Note_on_c, 1, 68, 64
3, 39143, Note_on_c, 1, 68, 0
3, 39144, Note_on_c, 1, 67, 64
3, 39167, Note_on_c, 1, 67, 0
3, 39168, Note_on_c, 1, 68, 64
3, 39191, Note_on_c, 1, 68, 0
3, 39192, Note_on_c, 1, 65, 64
3, 39215, Note_on_c, 1, 65, 0
3, 39216, Note_on_c, 1, 70, 64
3, 39239, Note_on_c, 1, 70, 0
3, 39240, Note_on_c, 1, 67, 64
3, 39263, Note_on_c, 1, 67, 0
3, 39264, Note_on_c, 1, 72, 64
3, 39309, Note_on_c, 1, 72, 0
3, 39312, Note_on_c, 1, 70, 64
3, 39335, Note_on_c, 1, 70, 0
3, 39336, Note_on_c, 1, 68, 64
3, 39359, Note_on_c, 1, 68, 0
3, 39360, Note_on_c, 1, 68, 64
3, 39405, Note_on_c, 1, 68, 0
3, 39408, Note_on_c, 1, 67, 64
3, 39453, Note_on_c, 1, 67, 0
3, 39480, Note_on_c, 1, 67, 64
3, 39503, Note_on_c, 1, 67, 0
3, 39504, Note_on_c, 1, 69, 64
3, 39527, Note_on_c, 1, 69, 0
3, 39528, Note_on_c, 1, 71, 64
3, 39551, Note_on_c, 1, 71, 0
3, 39552, Note_on_c, 1, 72, 64
3, 39575, Note_on_c, 1, 72, 0
3, 39576, Note_on_c, 1, 71, 64
3, 39599, Note_on_c, 1, 71, 0
3, 39600, Note_on_c, 1, 72, 64
3, 39623, Note_on_c, 1, 72, 0
3, 39624, Note_on_c, 1, 75, 64
3, 39647, Note_on_c, 1, 75, 0
3, 39648, Note_on_c, 1, 74, 64
3, 39671, Note_on_c, 1, 74, 0
3, 39672, Note_on_c, 1, 72, 64
3, 39695, Note_on_c, 1, 72, 0
3, 39696, Note_on_c, 1, 71, 64
3, 39719, Note_on_c, 1, 71, 0
3, 39720, Note_on_c, 1, 72, 64
3, 39743, Note_on_c, 1, 72, 0
3, 39744, Note_on_c, 1, 74, 64
3, 39767, Note_on_c, 1, 74, 0
3, 39768, Note_on_c, 1, 72, 64
3, 39791, Note_on_c, 1, 72, 0
3, 39792, Note_on_c, 1, 71, 64
3, 39815, Note_on_c, 1, 71, 0
3, 39816, Note_on_c, 1, 69, 64
3, 39839, Note_on_c, 1, 69, 0
3, 39840, Note_on_c, 1, 67, 64
3, 39885, Note_on_c, 1, 67, 0
3, 39888, Note_on_c, 1, 72, 64
3, 39933, Note_on_c, 1, 72, 0
3, 39936, Note_on_c, 1, 68, 64
3, 39981, Note_on_c, 1, 68, 0
3, 39984, Note_on_c, 1, 65, 64
3, 40029, Note_on_c, 1, 65, 0
3, 40080, Note_on_c, 1, 68, 64
3, 40125, Note_on_c, 1, 68, 0
3, 40128, Note_on_c, 1, 68, 64
3, 40151, Note_on_c, 1, 68, 0
3, 40152, Note_on_c, 1, 65, 64
3, 40175, Note_on_c, 1, 65, 0
3, 40176, Note_on_c, 1, 62, 64
3, 40199, Note_on_c, 1, 62, 0
3, 40200, Note_on_c, 1, 59, 64
3, 40223, Note_on_c, 1, 59, 0
3, 40224, Note_on_c, 1, 55, 64
3, 40269, Note_on_c, 1, 55, 0
3, 40272, Note_on_c, 1, 71, 64
3, 40317, Note_on_c, 1, 71, 0
3, 40320, Note_on_c, 1, 72, 64
3, 40387, Note_on_c, 1, 72, 0
3, 40392, Note_on_c, 1, 74, 64
3, 40415, Note_on_c, 1, 74, 0
3, 40416, Note_on_c, 1, 74, 64
3, 40483, Note_on_c, 1, 74, 0
3, 40488, Note_on_c, 1, 72, 64
3, 40511, Note_on_c, 1, 72, 0
3, 40512, Note_on_c, 1, 72, 64
3, 40881, Note_on_c, 1, 72, 0
3, 40896, Note_on_c, 1, 72, 64
3, 40919, Note_on_c, 1, 72, 0
3, 40920, Note_on_c, 1, 71, 64
3, 40943, Note_on_c, 1, 71, 0
3, 40944, Note_on_c, 1, 72, 64
3, 40967, Note_on_c, 1, 72, 0
3, 40968, Note_on_c, 1, 77, 64
3, 40991, Note_on_c, 1, 77, 0
3, 40992, Note_on_c, 1, 80, 64
3, 41081, Note_on_c, 1, 80, 0
3, 41088, Note_on_c, 1, 80, 64
3, 41111, Note_on_c, 1, 80, 0
3, 41112, Note_on_c, 1, 79, 64
3, 41135, Note_on_c, 1, 79, 0
3, 41136, Note_on_c, 1, 80, 64
3, 41159, Note_on_c, 1, 80, 0
3, 41160, Note_on_c, 1, 83, 64
3, 41183, Note_on_c, 1, 83, 0
3, 41184, Note_on_c, 1, 86, 64
3, 41229, Note_on_c, 1, 86, 0
3, 41232, Note_on_c, 1, 77, 64
3, 41277, Note_on_c, 1, 77, 0
3, 41280, Note_on_c, 1, 75, 64
3, 41347, Note_on_c, 1, 75, 0
3, 41352, Note_on_c, 1, 74, 64
3, 41375, Note_on_c, 1, 74, 0
3, 41376, Note_on_c, 1, 74, 64
3, 41443, Note_on_c, 1, 74, 0
3, 41448, Note_on_c, 1, 72, 64
3, 41471, Note_on_c, 1, 72, 0
3, 41472, Note_on_c, 1, 72, 64
3, 41826, Note_on_c, 1, 72, 0
3, 41826, End_track
4, 0, Start_track
4, 0, MIDI_port, 0
4, 0, Title_t, "Clavier (LH)"
4, 0, Program_c, 1, 6
4, 0, Control_c, 1, 7, 127
4, 0, Note_on_c, 1, 60, 64
4, 89, Note_on_c, 1, 60, 0
4, 96, Note_on_c, 1, 58, 64
4, 185, Note_on_c, 1, 58, 0
4, 192, Note_on_c, 1, 56, 64
4, 281, Note_on_c, 1, 56, 0
4, 312, Note_on_c, 1, 55, 64
4, 335, Note_on_c, 1, 55, 0
4, 336, Note_on_c, 1, 53, 64
4, 359, Note_on_c, 1, 53, 0
4, 360, Note_on_c, 1, 51, 64
4, 383, Note_on_c, 1, 51, 0
4, 384, Note_on_c, 1, 53, 64
4, 429, Note_on_c, 1, 53, 0
4, 432, Note_on_c, 1, 55, 64
4, 477, Note_on_c, 1, 55, 0
4, 480, Note_on_c, 1, 56, 64
4, 525, Note_on_c, 1, 56, 0
4, 528, Note_on_c, 1, 58, 64
4, 573, Note_on_c, 1, 58, 0
4, 576, Note_on_c, 1, 51, 64
4, 599, Note_on_c, 1, 51, 0
4, 600, Note_on_c, 1, 58, 64
4, 623, Note_on_c, 1, 58, 0
4, 624, Note_on_c, 1, 60, 64
4, 647, Note_on_c, 1, 60, 0
4, 648, Note_on_c, 1, 62, 64
4, 671, Note_on_c, 1, 62, 0
4, 672, Note_on_c, 1, 63, 64
4, 813, Note_on_c, 1, 63, 0
4, 816, Note_on_c, 1, 62, 64
4, 839, Note_on_c, 1, 62, 0
4, 840, Note_on_c, 1, 60, 64
4, 863, Note_on_c, 1, 60, 0
4, 864, Note_on_c, 1, 62, 64
4, 887, Note_on_c, 1, 62, 0
4, 888, Note_on_c, 1, 63, 64
4, 911, Note_on_c, 1, 63, 0
4, 912, Note_on_c, 1, 62, 64
4, 935, Note_on_c, 1, 62, 0
4, 936, Note_on_c, 1, 60, 64
4, 959, Note_on_c, 1, 60, 0
4, 960, Note_on_c, 1, 59, 64
4, 1005, Note_on_c, 1, 59, 0
4, 1008, Note_on_c, 1, 55, 64
4, 1053, Note_on_c, 1, 55, 0
4, 1080, Note_on_c, 1, 48, 64
4, 1103, Note_on_c, 1, 48, 0
4, 1104, Note_on_c, 1, 50, 64
4, 1127, Note_on_c, 1, 50, 0
4, 1128, Note_on_c, 1, 51, 64
4, 1151, Note_on_c, 1, 51, 0
4, 1152, Note_on_c, 1, 53, 64
4, 1175, Note_on_c, 1, 53, 0
4, 1176, Note_on_c, 1, 51, 64
4, 1199, Note_on_c, 1, 51, 0
4, 1200, Note_on_c, 1, 53, 64
4, 1223, Note_on_c, 1, 53, 0
4, 1224, Note_on_c, 1, 55, 64
4, 1247, Note_on_c, 1, 55, 0
4, 1248, Note_on_c, 1, 56, 64
4, 1293, Note_on_c, 1, 56, 0
4, 1296, Note_on_c, 1, 53, 64
4, 1341, Note_on_c, 1, 53, 0
4, 1344, Note_on_c, 1, 55, 64
4, 1433, Note_on_c, 1, 55, 0
4, 1464, Note_on_c, 1, 53, 64
4, 1487, Note_on_c, 1, 53, 0
4, 1488, Note_on_c, 1, 51, 64
4, 1511, Note_on_c, 1, 51, 0
4, 1512, Note_on_c, 1, 50, 64
4, 1535, Note_on_c, 1, 50, 0
4, 1536, Note_on_c, 1, 48, 64
4, 1559, Note_on_c, 1, 48, 0
4, 1560, Note_on_c, 1, 46, 64
4, 1583, Note_on_c, 1, 46, 0
4, 1584, Note_on_c, 1, 44, 64
4, 1607, Note_on_c, 1, 44, 0
4, 1608, Note_on_c, 1, 43, 64
4, 1631, Note_on_c, 1, 43, 0
4, 1632, Note_on_c, 1, 41, 64
4, 1677, Note_on_c, 1, 41, 0
4, 1680, Note_on_c, 1, 43, 64
4, 1725, Note_on_c, 1, 43, 0
4, 1728, Note_on_c, 1, 36, 64
4, 1773, Note_on_c, 1, 36, 0
4, 1776, Note_on_c, 1, 48, 64
4, 1821, Note_on_c, 1, 48, 0
4, 1824, Note_on_c, 1, 50, 64
4, 1869, Note_on_c, 1, 50, 0
4, 1872, Note_on_c, 1, 54, 64
4, 1917, Note_on_c, 1, 54, 0
4, 1920, Note_on_c, 1, 55, 64
4, 2009, Note_on_c, 1, 55, 0
4, 2016, Note_on_c, 1, 53, 64
4, 2105, Note_on_c, 1, 53, 0
4, 2112, Note_on_c, 1, 51, 64
4, 2201, Note_on_c, 1, 51, 0
4, 2232, Note_on_c, 1, 50, 64
4, 2255, Note_on_c, 1, 50, 0
4, 2256, Note_on_c, 1, 48, 64
4, 2279, Note_on_c, 1, 48, 0
4, 2280, Note_on_c, 1, 46, 64
4, 2303, Note_on_c, 1, 46, 0
4, 2304, Note_on_c, 1, 48, 64
4, 2349, Note_on_c, 1, 48, 0
4, 2352, Note_on_c, 1, 50, 64
4, 2397, Note_on_c, 1, 50, 0
4, 2400, Note_on_c, 1, 51, 64
4, 2445, Note_on_c, 1, 51, 0
4, 2448, Note_on_c, 1, 53, 64
4, 2493, Note_on_c, 1, 53, 0
4, 2496, Note_on_c, 1, 46, 64
4, 2519, Note_on_c, 1, 46, 0
4, 2520, Note_on_c, 1, 53, 64
4, 2543, Note_on_c, 1, 53, 0
4, 2544, Note_on_c, 1, 55, 64
4, 2567, Note_on_c, 1, 55, 0
4, 2568, Note_on_c, 1, 57, 64
4, 2591, Note_on_c, 1, 57, 0
4, 2592, Note_on_c, 1, 58, 64
4, 2681, Note_on_c, 1, 58, 0
4, 2688, Note_on_c, 1, 58, 64
4, 2733, Note_on_c, 1, 58, 0
4, 2736, Note_on_c, 1, 57, 64
4, 2759, Note_on_c, 1, 57, 0
4, 2760, Note_on_c, 1, 55, 64
4, 2783, Note_on_c, 1, 55, 0
4, 2784, Note_on_c, 1, 57, 64
4, 2807, Note_on_c, 1, 57, 0
4, 2808, Note_on_c, 1, 58, 64
4, 2831, Note_on_c, 1, 58, 0
4, 2832, Note_on_c, 1, 57, 64
4, 2855, Note_on_c, 1, 57, 0
4, 2856, Note_on_c, 1, 55, 64
4, 2879, Note_on_c, 1, 55, 0
4, 2880, Note_on_c, 1, 54, 64
4, 2925, Note_on_c, 1, 54, 0
4, 2928, Note_on_c, 1, 50, 64
4, 2973, Note_on_c, 1, 50, 0
4, 3000, Note_on_c, 1, 55, 64
4, 3023, Note_on_c, 1, 55, 0
4, 3024, Note_on_c, 1, 57, 64
4, 3047, Note_on_c, 1, 57, 0
4, 3048, Note_on_c, 1, 58, 64
4, 3071, Note_on_c, 1, 58, 0
4, 3072, Note_on_c, 1, 60, 64
4, 3095, Note_on_c, 1, 60, 0
4, 3096, Note_on_c, 1, 58, 64
4, 3119, Note_on_c, 1, 58, 0
4, 3120, Note_on_c, 1, 60, 64
4, 3143, Note_on_c, 1, 60, 0
4, 3144, Note_on_c, 1, 62, 64
4, 3167, Note_on_c, 1, 62, 0
4, 3168, Note_on_c, 1, 63, 64
4, 3213, Note_on_c, 1, 63, 0
4, 3216, Note_on_c, 1, 60, 64
4, 3261, Note_on_c, 1, 60, 0
4, 3264, Note_on_c, 1, 62, 64
4, 3353, Note_on_c, 1, 62, 0
4, 3384, Note_on_c, 1, 60, 64
4, 3407, Note_on_c, 1, 60, 0
4, 3408, Note_on_c, 1, 58, 64
4, 3431, Note_on_c, 1, 58, 0
4, 3432, Note_on_c, 1, 57, 64
4, 3455, Note_on_c, 1, 57, 0
4, 3456, Note_on_c, 1, 55, 64
4, 3479, Note_on_c, 1, 55, 0
4, 3480, Note_on_c, 1, 53, 64
4, 3503, Note_on_c, 1, 53, 0
4, 3504, Note_on_c, 1, 51, 64
4, 3527, Note_on_c, 1, 51, 0
4, 3528, Note_on_c, 1, 50, 64
4, 3551, Note_on_c, 1, 50, 0
4, 3552, Note_on_c, 1, 48, 64
4, 3597, Note_on_c, 1, 48, 0
4, 3600, Note_on_c, 1, 50, 64
4, 3645, Note_on_c, 1, 50, 0
4, 3648, Note_on_c, 1, 43, 64
4, 3693, Note_on_c, 1, 43, 0
4, 3696, Note_on_c, 1, 46, 64
4, 3741, Note_on_c, 1, 46, 0
4, 3744, Note_on_c, 1, 48, 64
4, 3789, Note_on_c, 1, 48, 0
4, 3792, Note_on_c, 1, 52, 64
4, 3837, Note_on_c, 1, 52, 0
4, 3840, Note_on_c, 1, 53, 64
4, 3885, Note_on_c, 1, 53, 0
4, 3888, Note_on_c, 1, 50, 64
4, 3933, Note_on_c, 1, 50, 0
4, 3936, Note_on_c, 1, 50, 64
4, 3981, Note_on_c, 1, 50, 0
4, 3984, Note_on_c, 1, 48, 64
4, 4029, Note_on_c, 1, 48, 0
4, 4032, Note_on_c, 1, 47, 64
4, 4077, Note_on_c, 1, 47, 0
4, 4080, Note_on_c, 1, 50, 64
4, 4125, Note_on_c, 1, 50, 0
4, 4128, Note_on_c, 1, 43, 64
4, 4173, Note_on_c, 1, 43, 0
4, 4176, Note_on_c, 1, 47, 64
4, 4221, Note_on_c, 1, 47, 0
4, 4224, Note_on_c, 1, 48, 64
4, 4247, Note_on_c, 1, 48, 0
4, 4248, Note_on_c, 1, 50, 64
4, 4271, Note_on_c, 1, 50, 0
4, 4272, Note_on_c, 1, 51, 64
4, 4295, Note_on_c, 1, 51, 0
4, 4296, Note_on_c, 1, 48, 64
4, 4319, Note_on_c, 1, 48, 0
4, 4320, Note_on_c, 1, 50, 64
4, 4365, Note_on_c, 1, 50, 0
4, 4368, Note_on_c, 1, 43, 64
4, 4413, Note_on_c, 1, 43, 0
4, 4416, Note_on_c, 1, 48, 64
4, 4461, Note_on_c, 1, 48, 0
4, 4464, Note_on_c, 1, 36, 64
4, 4509, Note_on_c, 1, 36, 0
4, 4512, Note_on_c, 1, 51, 64
4, 4601, Note_on_c, 1, 51, 0
4, 4608, Note_on_c, 1, 51, 64
4, 4631, Note_on_c, 1, 51, 0
4, 4632, Note_on_c, 1, 50, 64
4, 4655, Note_on_c, 1, 50, 0
4, 4656, Note_on_c, 1, 51, 64
4, 4679, Note_on_c, 1, 51, 0
4, 4680, Note_on_c, 1, 55, 64
4, 4703, Note_on_c, 1, 55, 0
4, 4704, Note_on_c, 1, 53, 64
4, 4727, Note_on_c, 1, 53, 0
4, 4728, Note_on_c, 1, 51, 64
4, 4751, Note_on_c, 1, 51, 0
4, 4752, Note_on_c, 1, 50, 64
4, 4775, Note_on_c, 1, 50, 0
4, 4776, Note_on_c, 1, 53, 64
4, 4799, Note_on_c, 1, 53, 0
4, 4800, Note_on_c, 1, 51, 64
4, 4889, Note_on_c, 1, 51, 0
4, 4944, Note_on_c, 1, 55, 64
4, 4989, Note_on_c, 1, 55, 0
4, 4992, Note_on_c, 1, 44, 64
4, 5015, Note_on_c, 1, 44, 0
4, 5016, Note_on_c, 1, 43, 64
4, 5039, Note_on_c, 1, 43, 0
4, 5040, Note_on_c, 1, 44, 64
4, 5063, Note_on_c, 1, 44, 0
4, 5064, Note_on_c, 1, 48, 64
4, 5087, Note_on_c, 1, 48, 0
4, 5088, Note_on_c, 1, 53, 64
4, 5133, Note_on_c, 1, 53, 0
4, 5136, Note_on_c, 1, 53, 64
4, 5181, Note_on_c, 1, 53, 0
4, 5184, Note_on_c, 1, 53, 64
4, 5229, Note_on_c, 1, 53, 0
4, 5232, Note_on_c, 1, 43, 64
4, 5277, Note_on_c, 1, 43, 0
4, 5280, Note_on_c, 1, 51, 64
4, 5421, Note_on_c, 1, 51, 0
4, 5424, Note_on_c, 1, 56, 64
4, 5447, Note_on_c, 1, 56, 0
4, 5448, Note_on_c, 1, 55, 64
4, 5471, Note_on_c, 1, 55, 0
4, 5472, Note_on_c, 1, 53, 64
4, 5495, Note_on_c, 1, 53, 0
4, 5496, Note_on_c, 1, 51, 64
4, 5519, Note_on_c, 1, 51, 0
4, 5520, Note_on_c, 1, 50, 64
4, 5543, Note_on_c, 1, 50, 0
4, 5544, Note_on_c, 1, 48, 64
4, 5567, Note_on_c, 1, 48, 0
4, 5568, Note_on_c, 1, 47, 64
4, 5591, Note_on_c, 1, 47, 0
4, 5592, Note_on_c, 1, 43, 64
4, 5615, Note_on_c, 1, 43, 0
4, 5616, Note_on_c, 1, 44, 64
4, 5639, Note_on_c, 1, 44, 0
4, 5640, Note_on_c, 1, 43, 64
4, 5663, Note_on_c, 1, 43, 0
4, 5664, Note_on_c, 1, 41, 64
4, 5687, Note_on_c, 1, 41, 0
4, 5688, Note_on_c, 1, 50, 64
4, 5711, Note_on_c, 1, 50, 0
4, 5712, Note_on_c, 1, 43, 64
4, 5735, Note_on_c, 1, 43, 0
4, 5736, Note_on_c, 1, 41, 64
4, 5760, Note_on_c, 1, 41, 0
4, 5760, Note_on_c, 1, 39, 64
4, 5805, Note_on_c, 1, 39, 0
4, 5808, Note_on_c, 1, 44, 64
4, 5853, Note_on_c, 1, 44, 0
4, 5856, Note_on_c, 1, 38, 64
4, 5901, Note_on_c, 1, 38, 0
4, 5904, Note_on_c, 1, 43, 64
4, 5949, Note_on_c, 1, 43, 0
4, 5952, Note_on_c, 1, 36, 64
4, 5997, Note_on_c, 1, 36, 0
4, 6000, Note_on_c, 1, 38, 64
4, 6045, Note_on_c, 1, 38, 0
4, 6048, Note_on_c, 1, 39, 64
4, 6093, Note_on_c, 1, 39, 0
4, 6096, Note_on_c, 1, 41, 64
4, 6141, Note_on_c, 1, 41, 0
4, 6144, Note_on_c, 1, 43, 64
4, 6189, Note_on_c, 1, 43, 0
4, 6192, Note_on_c, 1, 41, 64
4, 6237, Note_on_c, 1, 41, 0
4, 6240, Note_on_c, 1, 39, 64
4, 6285, Note_on_c, 1, 39, 0
4, 6288, Note_on_c, 1, 43, 64
4, 6333, Note_on_c, 1, 43, 0
4, 6336, Note_on_c, 1, 44, 64
4, 6381, Note_on_c, 1, 44, 0
4, 6384, Note_on_c, 1, 46, 64
4, 6429, Note_on_c, 1, 46, 0
4, 6432, Note_on_c, 1, 48, 64
4, 6477, Note_on_c, 1, 48, 0
4, 6480, Note_on_c, 1, 50, 64
4, 6525, Note_on_c, 1, 50, 0
4, 6528, Note_on_c, 1, 51, 64
4, 6573, Note_on_c, 1, 51, 0
4, 6576, Note_on_c, 1, 50, 64
4, 6621, Note_on_c, 1, 50, 0
4, 6624, Note_on_c, 1, 48, 64
4, 6669, Note_on_c, 1, 48, 0
4, 6672, Note_on_c, 1, 51, 64
4, 6717, Note_on_c, 1, 51, 0
4, 6720, Note_on_c, 1, 53, 64
4, 6765, Note_on_c, 1, 53, 0
4, 6768, Note_on_c, 1, 55, 64
4, 6813, Note_on_c, 1, 55, 0
4, 6816, Note_on_c, 1, 56, 64
4, 6861, Note_on_c, 1, 56, 0
4, 6864, Note_on_c, 1, 58, 64
4, 6909, Note_on_c, 1, 58, 0
4, 6912, Note_on_c, 1, 60, 64
4, 6957, Note_on_c, 1, 60, 0
4, 6960, Note_on_c, 1, 62, 64
4, 7005, Note_on_c, 1, 62, 0
4, 7008, Note_on_c, 1, 60, 64
4, 7053, Note_on_c, 1, 60, 0
4, 7056, Note_on_c, 1, 58, 64
4, 7101, Note_on_c, 1, 58, 0
4, 7104, Note_on_c, 1, 56, 64
4, 7149, Note_on_c, 1, 56, 0
4, 7152, Note_on_c, 1, 58, 64
4, 7197, Note_on_c, 1, 58, 0
4, 7200, Note_on_c, 1, 60, 64
4, 7245, Note_on_c, 1, 60, 0
4, 7248, Note_on_c, 1, 56, 64
4, 7293, Note_on_c, 1, 56, 0
4, 7296, Note_on_c, 1, 58, 64
4, 7341, Note_on_c, 1, 58, 0
4, 7344, Note_on_c, 1, 56, 64
4, 7389, Note_on_c, 1, 56, 0
4, 7392, Note_on_c, 1, 55, 64
4, 7437, Note_on_c, 1, 55, 0
4, 7440, Note_on_c, 1, 53, 64
4, 7485, Note_on_c, 1, 53, 0
4, 7488, Note_on_c, 1, 51, 64
4, 7533, Note_on_c, 1, 51, 0
4, 7536, Note_on_c, 1, 53, 64
4, 7581, Note_on_c, 1, 53, 0
4, 7584, Note_on_c, 1, 55, 64
4, 7629, Note_on_c, 1, 55, 0
4, 7632, Note_on_c, 1, 56, 64
4, 7677, Note_on_c, 1, 56, 0
4, 7680, Note_on_c, 1, 58, 64
4, 7725, Note_on_c, 1, 58, 0
4, 7728, Note_on_c, 1, 46, 64
4, 7773, Note_on_c, 1, 46, 0
4, 7800, Note_on_c, 1, 58, 64
4, 7823, Note_on_c, 1, 58, 0
4, 7824, Note_on_c, 1, 56, 64
4, 7847, Note_on_c, 1, 56, 0
4, 7848, Note_on_c, 1, 55, 64
4, 7871, Note_on_c, 1, 55, 0
4, 7872, Note_on_c, 1, 53, 64
4, 7917, Note_on_c, 1, 53, 0
4, 7920, Note_on_c, 1, 55, 64
4, 7965, Note_on_c, 1, 55, 0
4, 7968, Note_on_c, 1, 56, 64
4, 8013, Note_on_c, 1, 56, 0
4, 8016, Note_on_c, 1, 58, 64
4, 8061, Note_on_c, 1, 58, 0
4, 8064, Note_on_c, 1, 60, 64
4, 8109, Note_on_c, 1, 60, 0
4, 8112, Note_on_c, 1, 48, 64
4, 8157, Note_on_c, 1, 48, 0
4, 8184, Note_on_c, 1, 60, 64
4, 8207, Note_on_c, 1, 60, 0
4, 8208, Note_on_c, 1, 58, 64
4, 8231, Note_on_c, 1, 58, 0
4, 8232, Note_on_c, 1, 57, 64
4, 8255, Note_on_c, 1, 57, 0
4, 8256, Note_on_c, 1, 55, 64
4, 8301, Note_on_c, 1, 55, 0
4, 8304, Note_on_c, 1, 57, 64
4, 8349, Note_on_c, 1, 57, 0
4, 8352, Note_on_c, 1, 58, 64
4, 8397, Note_on_c, 1, 58, 0
4, 8400, Note_on_c, 1, 60, 64
4, 8445, Note_on_c, 1, 60, 0
4, 8448, Note_on_c, 1, 62, 64
4, 8493, Note_on_c, 1, 62, 0
4, 8496, Note_on_c, 1, 60, 64
4, 8541, Note_on_c, 1, 60, 0
4, 8544, Note_on_c, 1, 62, 64
4, 8589, Note_on_c, 1, 62, 0
4, 8592, Note_on_c, 1, 58, 64
4, 8637, Note_on_c, 1, 58, 0
4, 8640, Note_on_c, 1, 63, 64
4, 8685, Note_on_c, 1, 63, 0
4, 8688, Note_on_c, 1, 62, 64
4, 8733, Note_on_c, 1, 62, 0
4, 8736, Note_on_c, 1, 63, 64
4, 8781, Note_on_c, 1, 63, 0
4, 8784, Note_on_c, 1, 60, 64
4, 8829, Note_on_c, 1, 60, 0
4, 8832, Note_on_c, 1, 62, 64
4, 8877, Note_on_c, 1, 62, 0
4, 8880, Note_on_c, 1, 50, 64
4, 8925, Note_on_c, 1, 50, 0
4, 8928, Note_on_c, 1, 51, 64
4, 8973, Note_on_c, 1, 51, 0
4, 8976, Note_on_c, 1, 46, 64
4, 9021, Note_on_c, 1, 46, 0
4, 9024, Note_on_c, 1, 48, 64
4, 9069, Note_on_c, 1, 48, 0
4, 9072, Note_on_c, 1, 45, 64
4, 9117, Note_on_c, 1, 45, 0
4, 9120, Note_on_c, 1, 50, 64
4, 9165, Note_on_c, 1, 50, 0
4, 9168, Note_on_c, 1, 38, 64
4, 9213, Note_on_c, 1, 38, 0
4, 9216, Note_on_c, 1, 55, 64
4, 9239, Note_on_c, 1, 55, 0
4, 9240, Note_on_c, 1, 53, 64
4, 9263, Note_on_c, 1, 53, 0
4, 9264, Note_on_c, 1, 55, 64
4, 9287, Note_on_c, 1, 55, 0
4, 9288, Note_on_c, 1, 58, 64
4, 9311, Note_on_c, 1, 58, 0
4, 9312, Note_on_c, 1, 63, 64
4, 9357, Note_on_c, 1, 63, 0
4, 9360, Note_on_c, 1, 55, 64
4, 9405, Note_on_c, 1, 55, 0
4, 9408, Note_on_c, 1, 53, 64
4, 9453, Note_on_c, 1, 53, 0
4, 9456, Note_on_c, 1, 63, 64
4, 9501, Note_on_c, 1, 63, 0
4, 9504, Note_on_c, 1, 62, 64
4, 9549, Note_on_c, 1, 62, 0
4, 9552, Note_on_c, 1, 53, 64
4, 9597, Note_on_c, 1, 53, 0
4, 9600, Note_on_c, 1, 51, 64
4, 9623, Note_on_c, 1, 51, 0
4, 9624, Note_on_c, 1, 50, 64
4, 9647, Note_on_c, 1, 50, 0
4, 9648, Note_on_c, 1, 51, 64
4, 9671, Note_on_c, 1, 51, 0
4, 9672, Note_on_c, 1, 55, 64
4, 9695, Note_on_c, 1, 55, 0
4, 9696, Note_on_c, 1, 60, 64
4, 9741, Note_on_c, 1, 60, 0
4, 9744, Note_on_c, 1, 51, 64
4, 9789, Note_on_c, 1, 51, 0
4, 9792, Note_on_c, 1, 50, 64
4, 9837, Note_on_c, 1, 50, 0
4, 9840, Note_on_c, 1, 60, 64
4, 9885, Note_on_c, 1, 60, 0
4, 9888, Note_on_c, 1, 59, 64
4, 9933, Note_on_c, 1, 59, 0
4, 9936, Note_on_c, 1, 55, 64
4, 9981, Note_on_c, 1, 55, 0
4, 9984, Note_on_c, 1, 48, 64
4, 10073, Note_on_c, 1, 48, 0
4, 10080, Note_on_c, 1, 46, 64
4, 10169, Note_on_c, 1, 46, 0
4, 10176, Note_on_c, 1, 44, 64
4, 10265, Note_on_c, 1, 44, 0
4, 10296, Note_on_c, 1, 43, 64
4, 10319, Note_on_c, 1, 43, 0
4, 10320, Note_on_c, 1, 41, 64
4, 10343, Note_on_c, 1, 41, 0
4, 10344, Note_on_c, 1, 39, 64
4, 10367, Note_on_c, 1, 39, 0
4, 10368, Note_on_c, 1, 41, 64
4, 10413, Note_on_c, 1, 41, 0
4, 10416, Note_on_c, 1, 43, 64
4, 10461, Note_on_c, 1, 43, 0
4, 10464, Note_on_c, 1, 44, 64
4, 10509, Note_on_c, 1, 44, 0
4, 10512, Note_on_c, 1, 46, 64
4, 10557, Note_on_c, 1, 46, 0
4, 10560, Note_on_c, 1, 39, 64
4, 10583, Note_on_c, 1, 39, 0
4, 10584, Note_on_c, 1, 46, 64
4, 10607, Note_on_c, 1, 46, 0
4, 10608, Note_on_c, 1, 48, 64
4, 10631, Note_on_c, 1, 48, 0
4, 10632, Note_on_c, 1, 50, 64
4, 10655, Note_on_c, 1, 50, 0
4, 10656, Note_on_c, 1, 51, 64
4, 10797, Note_on_c, 1, 51, 0
4, 10800, Note_on_c, 1, 50, 64
4, 10823, Note_on_c, 1, 50, 0
4, 10824, Note_on_c, 1, 48, 64
4, 10847, Note_on_c, 1, 48, 0
4, 10848, Note_on_c, 1, 50, 64
4, 10871, Note_on_c, 1, 50, 0
4, 10872, Note_on_c, 1, 51, 64
4, 10895, Note_on_c, 1, 51, 0
4, 10896, Note_on_c, 1, 50, 64
4, 10919, Note_on_c, 1, 50, 0
4, 10920, Note_on_c, 1, 48, 64
4, 10943, Note_on_c, 1, 48, 0
4, 10944, Note_on_c, 1, 47, 64
4, 10989, Note_on_c, 1, 47, 0
4, 10992, Note_on_c, 1, 43, 64
4, 11037, Note_on_c, 1, 43, 0
4, 11064, Note_on_c, 1, 48, 64
4, 11087, Note_on_c, 1, 48, 0
4, 11088, Note_on_c, 1, 50, 64
4, 11111, Note_on_c, 1, 50, 0
4, 11112, Note_on_c, 1, 51, 64
4, 11135, Note_on_c, 1, 51, 0
4, 11136, Note_on_c, 1, 53, 64
4, 11159, Note_on_c, 1, 53, 0
4, 11160, Note_on_c, 1, 51, 64
4, 11183, Note_on_c, 1, 51, 0
4, 11184, Note_on_c, 1, 53, 64
4, 11207, Note_on_c, 1, 53, 0
4, 11208, Note_on_c, 1, 55, 64
4, 11231, Note_on_c, 1, 55, 0
4, 11232, Note_on_c, 1, 56, 64
4, 11277, Note_on_c, 1, 56, 0
4, 11280, Note_on_c, 1, 53, 64
4, 11325, Note_on_c, 1, 53, 0
4, 11328, Note_on_c, 1, 55, 64
4, 11417, Note_on_c, 1, 55, 0
4, 11448, Note_on_c, 1, 53, 64
4, 11471, Note_on_c, 1, 53, 0
4, 11472, Note_on_c, 1, 51, 64
4, 11495, Note_on_c, 1, 51, 0
4, 11496, Note_on_c, 1, 50, 64
4, 11519, Note_on_c, 1, 50, 0
4, 11520, Note_on_c, 1, 48, 64
4, 11543, Note_on_c, 1, 48, 0
4, 11544, Note_on_c, 1, 46, 64
4, 11567, Note_on_c, 1, 46, 0
4, 11568, Note_on_c, 1, 44, 64
4, 11591, Note_on_c, 1, 44, 0
4, 11592, Note_on_c, 1, 43, 64
4, 11615, Note_on_c, 1, 43, 0
4, 11616, Note_on_c, 1, 41, 64
4, 11661, Note_on_c, 1, 41, 0
4, 11664, Note_on_c, 1, 43, 64
4, 11709, Note_on_c, 1, 43, 0
4, 11712, Note_on_c, 1, 44, 64
4, 11757, Note_on_c, 1, 44, 0
4, 11760, Note_on_c, 1, 56, 64
4, 11805, Note_on_c, 1, 56, 0
4, 11856, Note_on_c, 1, 44, 64
4, 11901, Note_on_c, 1, 44, 0
4, 11904, Note_on_c, 1, 43, 64
4, 11949, Note_on_c, 1, 43, 0
4, 11952, Note_on_c, 1, 55, 64
4, 11997, Note_on_c, 1, 55, 0
4, 12048, Note_on_c, 1, 43, 64
4, 12093, Note_on_c, 1, 43, 0
4, 12096, Note_on_c, 1, 41, 64
4, 12141, Note_on_c, 1, 41, 0
4, 12144, Note_on_c, 1, 53, 64
4, 12189, Note_on_c, 1, 53, 0
4, 12216, Note_on_c, 1, 53, 64
4, 12239, Note_on_c, 1, 53, 0
4, 12240, Note_on_c, 1, 51, 64
4, 12263, Note_on_c, 1, 51, 0
4, 12264, Note_on_c, 1, 53, 64
4, 12287, Note_on_c, 1, 53, 0
4, 12288, Note_on_c, 1, 50, 64
4, 12311, Note_on_c, 1, 50, 0
4, 12312, Note_on_c, 1, 51, 64
4, 12335, Note_on_c, 1, 51, 0
4, 12336, Note_on_c, 1, 53, 64
4, 12359, Note_on_c, 1, 53, 0
4, 12360, Note_on_c, 1, 50, 64
4, 12383, Note_on_c, 1, 50, 0
4, 12384, Note_on_c, 1, 48, 64
4, 12407, Note_on_c, 1, 48, 0
4, 12408, Note_on_c, 1, 47, 64
4, 12431, Note_on_c, 1, 47, 0
4, 12432, Note_on_c, 1, 45, 64
4, 12455, Note_on_c, 1, 45, 0
4, 12456, Note_on_c, 1, 43, 64
4, 12479, Note_on_c, 1, 43, 0
4, 12480, Note_on_c, 1, 48, 64
4, 12525, Note_on_c, 1, 48, 0
4, 12528, Note_on_c, 1, 41, 64
4, 12573, Note_on_c, 1, 41, 0
4, 12576, Note_on_c, 1, 43, 64
4, 12621, Note_on_c, 1, 43, 0
4, 12624, Note_on_c, 1, 43, 64
4, 12669, Note_on_c, 1, 43, 0
4, 12672, Note_on_c, 1, 36, 64
4, 12717, Note_on_c, 1, 36, 0
4, 12720, Note_on_c, 1, 48, 64
4, 12743, Note_on_c, 1, 48, 0
4, 12744, Note_on_c, 1, 50, 64
4, 12767, Note_on_c, 1, 50, 0
4, 12768, Note_on_c, 1, 51, 64
4, 12813, Note_on_c, 1, 51, 0
4, 12816, Note_on_c, 1, 52, 64
4, 12861, Note_on_c, 1, 52, 0
4, 12864, Note_on_c, 1, 53, 64
4, 12909, Note_on_c, 1, 53, 0
4, 12912, Note_on_c, 1, 50, 64
4, 12935, Note_on_c, 1, 50, 0
4, 12936, Note_on_c, 1, 51, 64
4, 12959, Note_on_c, 1, 51, 0
4, 12960, Note_on_c, 1, 53, 64
4, 13005, Note_on_c, 1, 53, 0
4, 13008, Note_on_c, 1, 54, 64
4, 13053, Note_on_c, 1, 54, 0
4, 13056, Note_on_c, 1, 55, 64
4, 13101, Note_on_c, 1, 55, 0
4, 13104, Note_on_c, 1, 55, 64
4, 13127, Note_on_c, 1, 55, 0
4, 13128, Note_on_c, 1, 57, 64
4, 13151, Note_on_c, 1, 57, 0
4, 13152, Note_on_c, 1, 58, 64
4, 13197, Note_on_c, 1, 58, 0
4, 13200, Note_on_c, 1, 59, 64
4, 13245, Note_on_c, 1, 59, 0
4, 13248, Note_on_c, 1, 60, 64
4, 13293, Note_on_c, 1, 60, 0
4, 13296, Note_on_c, 1, 53, 64
4, 13341, Note_on_c, 1, 53, 0
4, 13344, Note_on_c, 1, 55, 64
4, 13389, Note_on_c, 1, 55, 0
4, 13392, Note_on_c, 1, 43, 64
4, 13437, Note_on_c, 1, 43, 0
4, 13440, Note_on_c, 1, 48, 64
4, 13485, Note_on_c, 1, 48, 0
4, 13488, Note_on_c, 1, 60, 64
4, 13533, Note_on_c, 1, 60, 0
4, 13536, Note_on_c, 1, 59, 64
4, 13581, Note_on_c, 1, 59, 0
4, 13584, Note_on_c, 1, 58, 64
4, 13629, Note_on_c, 1, 58, 0
4, 13632, Note_on_c, 1, 57, 64
4, 13677, Note_on_c, 1, 57, 0
4, 13680, Note_on_c, 1, 56, 64
4, 13725, Note_on_c, 1, 56, 0
4, 13728, Note_on_c, 1, 55, 64
4, 13773, Note_on_c, 1, 55, 0
4, 13776, Note_on_c, 1, 60, 64
4, 13821, Note_on_c, 1, 60, 0
4, 13824, Note_on_c, 1, 53, 64
4, 13869, Note_on_c, 1, 53, 0
4, 13872, Note_on_c, 1, 51, 64
4, 13895, Note_on_c, 1, 51, 0
4, 13896, Note_on_c, 1, 50, 64
4, 13919, Note_on_c, 1, 50, 0
4, 13920, Note_on_c, 1, 55, 64
4, 13965, Note_on_c, 1, 55, 0
4, 13968, Note_on_c, 1, 43, 64
4, 14013, Note_on_c, 1, 43, 0
4, 14016, Note_on_c, 1, 48, 64
4, 14061, Note_on_c, 1, 48, 0
4, 14064, Note_on_c, 1, 57, 64
4, 14109, Note_on_c, 1, 57, 0
4, 14112, Note_on_c, 1, 54, 64
4, 14157, Note_on_c, 1, 54, 0
4, 14160, Note_on_c, 1, 50, 64
4, 14205, Note_on_c, 1, 50, 0
4, 14208, Note_on_c, 1, 55, 64
4, 14253, Note_on_c, 1, 55, 0
4, 14256, Note_on_c, 1, 43, 64
4, 14279, Note_on_c, 1, 43, 0
4, 14280, Note_on_c, 1, 45, 64
4, 14303, Note_on_c, 1, 45, 0
4, 14304, Note_on_c, 1, 46, 64
4, 14349, Note_on_c, 1, 46, 0
4, 14352, Note_on_c, 1, 47, 64
4, 14397, Note_on_c, 1, 47, 0
4, 14400, Note_on_c, 1, 48, 64
4, 14445, Note_on_c, 1, 48, 0
4, 14448, Note_on_c, 1, 45, 64
4, 14471, Note_on_c, 1, 45, 0
4, 14472, Note_on_c, 1, 46, 64
4, 14495, Note_on_c, 1, 46, 0
4, 14496, Note_on_c, 1, 48, 64
4, 14541, Note_on_c, 1, 48, 0
4, 14544, Note_on_c, 1, 49, 64
4, 14589, Note_on_c, 1, 49, 0
4, 14592, Note_on_c, 1, 50, 64
4, 14637, Note_on_c, 1, 50, 0
4, 14640, Note_on_c, 1, 50, 64
4, 14663, Note_on_c, 1, 50, 0
4, 14664, Note_on_c, 1, 52, 64
4, 14687, Note_on_c, 1, 52, 0
4, 14688, Note_on_c, 1, 53, 64
4, 14733, Note_on_c, 1, 53, 0
4, 14736, Note_on_c, 1, 54, 64
4, 14781, Note_on_c, 1, 54, 0
4, 14784, Note_on_c, 1, 55, 64
4, 14829, Note_on_c, 1, 55, 0
4, 14832, Note_on_c, 1, 48, 64
4, 14877, Note_on_c, 1, 48, 0
4, 14880, Note_on_c, 1, 50, 64
4, 14925, Note_on_c, 1, 50, 0
4, 14928, Note_on_c, 1, 38, 64
4, 14973, Note_on_c, 1, 38, 0
4, 14976, Note_on_c, 1, 43, 64
4, 15021, Note_on_c, 1, 43, 0
4, 15024, Note_on_c, 1, 55, 64
4, 15069, Note_on_c, 1, 55, 0
4, 15072, Note_on_c, 1, 54, 64
4, 15117, Note_on_c, 1, 54, 0
4, 15120, Note_on_c, 1, 53, 64
4, 15165, Note_on_c, 1, 53, 0
4, 15168, Note_on_c, 1, 52, 64
4, 15213, Note_on_c, 1, 52, 0
4, 15216, Note_on_c, 1, 51, 64
4, 15261, Note_on_c, 1, 51, 0
4, 15264, Note_on_c, 1, 50, 64
4, 15309, Note_on_c, 1, 50, 0
4, 15312, Note_on_c, 1, 55, 64
4, 15357, Note_on_c, 1, 55, 0
4, 15360, Note_on_c, 1, 48, 64
4, 15405, Note_on_c, 1, 48, 0
4, 15408, Note_on_c, 1, 46, 64
4, 15431, Note_on_c, 1, 46, 0
4, 15432, Note_on_c, 1, 45, 64
4, 15455, Note_on_c, 1, 45, 0
4, 15456, Note_on_c, 1, 50, 64
4, 15501, Note_on_c, 1, 50, 0
4, 15504, Note_on_c, 1, 38, 64
4, 15549, Note_on_c, 1, 38, 0
4, 15552, Note_on_c, 1, 43, 64
4, 15597, Note_on_c, 1, 43, 0
4, 15600, Note_on_c, 1, 55, 64
4, 15645, Note_on_c, 1, 55, 0
4, 15648, Note_on_c, 1, 48, 64
4, 15693, Note_on_c, 1, 48, 0
4, 15696, Note_on_c, 1, 52, 64
4, 15741, Note_on_c, 1, 52, 0
4, 15744, Note_on_c, 1, 41, 64
4, 15789, Note_on_c, 1, 41, 0
4, 15792, Note_on_c, 1, 53, 64
4, 15837, Note_on_c, 1, 53, 0
4, 15840, Note_on_c, 1, 46, 64
4, 15885, Note_on_c, 1, 46, 0
4, 15888, Note_on_c, 1, 50, 64
4, 15933, Note_on_c, 1, 50, 0
4, 15936, Note_on_c, 1, 51, 64
4, 15959, Note_on_c, 1, 51, 0
4, 15960, Note_on_c, 1, 50, 64
4, 15983, Note_on_c, 1, 50, 0
4, 15984, Note_on_c, 1, 51, 64
4, 16007, Note_on_c, 1, 51, 0
4, 16008, Note_on_c, 1, 55, 64
4, 16031, Note_on_c, 1, 55, 0
4, 16032, Note_on_c, 1, 60, 64
4, 16077, Note_on_c, 1, 60, 0
4, 16080, Note_on_c, 1, 51, 64
4, 16125, Note_on_c, 1, 51, 0
4, 16128, Note_on_c, 1, 50, 64
4, 16173, Note_on_c, 1, 50, 0
4, 16176, Note_on_c, 1, 60, 64
4, 16221, Note_on_c, 1, 60, 0
4, 16224, Note_on_c, 1, 58, 64
4, 16269, Note_on_c, 1, 58, 0
4, 16272, Note_on_c, 1, 50, 64
4, 16317, Note_on_c, 1, 50, 0
4, 16320, Note_on_c, 1, 48, 64
4, 16343, Note_on_c, 1, 48, 0
4, 16344, Note_on_c, 1, 46, 64
4, 16367, Note_on_c, 1, 46, 0
4, 16368, Note_on_c, 1, 48, 64
4, 16391, Note_on_c, 1, 48, 0
4, 16392, Note_on_c, 1, 51, 64
4, 16415, Note_on_c, 1, 51, 0
4, 16416, Note_on_c, 1, 56, 64
4, 16461, Note_on_c, 1, 56, 0
4, 16464, Note_on_c, 1, 48, 64
4, 16509, Note_on_c, 1, 48, 0
4, 16512, Note_on_c, 1, 46, 64
4, 16557, Note_on_c, 1, 46, 0
4, 16560, Note_on_c, 1, 56, 64
4, 16605, Note_on_c, 1, 56, 0
4, 16608, Note_on_c, 1, 55, 64
4, 16653, Note_on_c, 1, 55, 0
4, 16656, Note_on_c, 1, 51, 64
4, 16701, Note_on_c, 1, 51, 0
4, 16704, Note_on_c, 1, 44, 64
4, 16727, Note_on_c, 1, 44, 0
4, 16728, Note_on_c, 1, 43, 64
4, 16751, Note_on_c, 1, 43, 0
4, 16752, Note_on_c, 1, 44, 64
4, 16775, Note_on_c, 1, 44, 0
4, 16776, Note_on_c, 1, 48, 64
4, 16799, Note_on_c, 1, 48, 0
4, 16800, Note_on_c, 1, 53, 64
4, 16845, Note_on_c, 1, 53, 0
4, 16848, Note_on_c, 1, 44, 64
4, 16893, Note_on_c, 1, 44, 0
4, 16896, Note_on_c, 1, 43, 64
4, 16941, Note_on_c, 1, 43, 0
4, 16944, Note_on_c, 1, 53, 64
4, 16989, Note_on_c, 1, 53, 0
4, 16992, Note_on_c, 1, 52, 64
4, 17037, Note_on_c, 1, 52, 0
4, 17040, Note_on_c, 1, 48, 64
4, 17085, Note_on_c, 1, 48, 0
4, 17088, Note_on_c, 1, 41, 64
4, 17133, Note_on_c, 1, 41, 0
4, 17136, Note_on_c, 1, 53, 64
4, 17181, Note_on_c, 1, 53, 0
4, 17184, Note_on_c, 1, 52, 64
4, 17229, Note_on_c, 1, 52, 0
4, 17232, Note_on_c, 1, 51, 64
4, 17277, Note_on_c, 1, 51, 0
4, 17280, Note_on_c, 1, 49, 64
4, 17369, Note_on_c, 1, 49, 0
4, 17400, Note_on_c, 1, 48, 64
4, 17423, Note_on_c, 1, 48, 0
4, 17424, Note_on_c, 1, 46, 64
4, 17447, Note_on_c, 1, 46, 0
4, 17448, Note_on_c, 1, 44, 64
4, 17471, Note_on_c, 1, 44, 0
4, 17472, Note_on_c, 1, 46, 64
4, 17517, Note_on_c, 1, 46, 0
4, 17520, Note_on_c, 1, 48, 64
4, 17565, Note_on_c, 1, 48, 0
4, 17568, Note_on_c, 1, 49, 64
4, 17613, Note_on_c, 1, 49, 0
4, 17616, Note_on_c, 1, 51, 64
4, 17661, Note_on_c, 1, 51, 0
4, 17664, Note_on_c, 1, 44, 64
4, 17687, Note_on_c, 1, 44, 0
4, 17688, Note_on_c, 1, 51, 64
4, 17711, Note_on_c, 1, 51, 0
4, 17712, Note_on_c, 1, 53, 64
4, 17735, Note_on_c, 1, 53, 0
4, 17736, Note_on_c, 1, 55, 64
4, 17759, Note_on_c, 1, 55, 0
4, 17760, Note_on_c, 1, 56, 64
4, 17849, Note_on_c, 1, 56, 0
4, 17856, Note_on_c, 1, 56, 64
4, 17901, Note_on_c, 1, 56, 0
4, 17904, Note_on_c, 1, 55, 64
4, 17927, Note_on_c, 1, 55, 0
4, 17928, Note_on_c, 1, 53, 64
4, 17951, Note_on_c, 1, 53, 0
4, 17952, Note_on_c, 1, 55, 64
4, 17975, Note_on_c, 1, 55, 0
4, 17976, Note_on_c, 1, 56, 64
4, 17999, Note_on_c, 1, 56, 0
4, 18000, Note_on_c, 1, 55, 64
4, 18023, Note_on_c, 1, 55, 0
4, 18024, Note_on_c, 1, 53, 64
4, 18047, Note_on_c, 1, 53, 0
4, 18048, Note_on_c, 1, 52, 64
4, 18093, Note_on_c, 1, 52, 0
4, 18096, Note_on_c, 1, 48, 64
4, 18141, Note_on_c, 1, 48, 0
4, 18168, Note_on_c, 1, 53, 64
4, 18191, Note_on_c, 1, 53, 0
4, 18192, Note_on_c, 1, 55, 64
4, 18215, Note_on_c, 1, 55, 0
4, 18216, Note_on_c, 1, 56, 64
4, 18239, Note_on_c, 1, 56, 0
4, 18240, Note_on_c, 1, 58, 64
4, 18263, Note_on_c, 1, 58, 0
4, 18264, Note_on_c, 1, 56, 64
4, 18287, Note_on_c, 1, 56, 0
4, 18288, Note_on_c, 1, 58, 64
4, 18311, Note_on_c, 1, 58, 0
4, 18312, Note_on_c, 1, 60, 64
4, 18335, Note_on_c, 1, 60, 0
4, 18336, Note_on_c, 1, 61, 64
4, 18381, Note_on_c, 1, 61, 0
4, 18384, Note_on_c, 1, 58, 64
4, 18429, Note_on_c, 1, 58, 0
4, 18432, Note_on_c, 1, 60, 64
4, 18521, Note_on_c, 1, 60, 0
4, 18552, Note_on_c, 1, 58, 64
4, 18575, Note_on_c, 1, 58, 0
4, 18576, Note_on_c, 1, 56, 64
4, 18599, Note_on_c, 1, 56, 0
4, 18600, Note_on_c, 1, 55, 64
4, 18623, Note_on_c, 1, 55, 0
4, 18624, Note_on_c, 1, 53, 64
4, 18647, Note_on_c, 1, 53, 0
4, 18648, Note_on_c, 1, 51, 64
4, 18671, Note_on_c, 1, 51, 0
4, 18672, Note_on_c, 1, 49, 64
4, 18695, Note_on_c, 1, 49, 0
4, 18696, Note_on_c, 1, 48, 64
4, 18719, Note_on_c, 1, 48, 0
4, 18720, Note_on_c, 1, 46, 64
4, 18765, Note_on_c, 1, 46, 0
4, 18768, Note_on_c, 1, 48, 64
4, 18813, Note_on_c, 1, 48, 0
4, 18816, Note_on_c, 1, 49, 64
4, 18861, Note_on_c, 1, 49, 0
4, 18864, Note_on_c, 1, 61, 64
4, 18909, Note_on_c, 1, 61, 0
4, 18960, Note_on_c, 1, 49, 64
4, 19005, Note_on_c, 1, 49, 0
4, 19008, Note_on_c, 1, 48, 64
4, 19053, Note_on_c, 1, 48, 0
4, 19056, Note_on_c, 1, 60, 64
4, 19101, Note_on_c, 1, 60, 0
4, 19152, Note_on_c, 1, 48, 64
4, 19197, Note_on_c, 1, 48, 0
4, 19200, Note_on_c, 1, 46, 64
4, 19245, Note_on_c, 1, 46, 0
4, 19248, Note_on_c, 1, 58, 64
4, 19293, Note_on_c, 1, 58, 0
4, 19320, Note_on_c, 1, 58, 64
4, 19343, Note_on_c, 1, 58, 0
4, 19344, Note_on_c, 1, 56, 64
4, 19367, Note_on_c, 1, 56, 0
4, 19368, Note_on_c, 1, 58, 64
4, 19391, Note_on_c, 1, 58, 0
4, 19392, Note_on_c, 1, 55, 64
4, 19415, Note_on_c, 1, 55, 0
4, 19416, Note_on_c, 1, 56, 64
4, 19439, Note_on_c, 1, 56, 0
4, 19440, Note_on_c, 1, 58, 64
4, 19463, Note_on_c, 1, 58, 0
4, 19464, Note_on_c, 1, 55, 64
4, 19487, Note_on_c, 1, 55, 0
4, 19488, Note_on_c, 1, 53, 64
4, 19511, Note_on_c, 1, 53, 0
4, 19512, Note_on_c, 1, 52, 64
4, 19535, Note_on_c, 1, 52, 0
4, 19536, Note_on_c, 1, 50, 64
4, 19559, Note_on_c, 1, 50, 0
4, 19560, Note_on_c, 1, 48, 64
4, 19583, Note_on_c, 1, 48, 0
4, 19584, Note_on_c, 1, 53, 64
4, 19629, Note_on_c, 1, 53, 0
4, 19632, Note_on_c, 1, 46, 64
4, 19677, Note_on_c, 1, 46, 0
4, 19680, Note_on_c, 1, 48, 64
4, 19725, Note_on_c, 1, 48, 0
4, 19728, Note_on_c, 1, 36, 64
4, 19773, Note_on_c, 1, 36, 0
4, 19776, Note_on_c, 1, 41, 64
4, 19865, Note_on_c, 1, 41, 0
4, 19968, Note_on_c, 1, 58, 64
4, 19991, Note_on_c, 1, 58, 0
4, 19992, Note_on_c, 1, 60, 64
4, 20015, Note_on_c, 1, 60, 0
4, 20016, Note_on_c, 1, 62, 64
4, 20039, Note_on_c, 1, 62, 0
4, 20040, Note_on_c, 1, 58, 64
4, 20063, Note_on_c, 1, 58, 0
4, 20064, Note_on_c, 1, 63, 64
4, 20109, Note_on_c, 1, 63, 0
4, 20112, Note_on_c, 1, 51, 64
4, 20157, Note_on_c, 1, 51, 0
4, 20160, Note_on_c, 1, 58, 64
4, 20205, Note_on_c, 1, 58, 0
4, 20208, Note_on_c, 1, 46, 64
4, 20253, Note_on_c, 1, 46, 0
4, 20352, Note_on_c, 1, 55, 64
4, 20375, Note_on_c, 1, 55, 0
4, 20376, Note_on_c, 1, 57, 64
4, 20399, Note_on_c, 1, 57, 0
4, 20400, Note_on_c, 1, 59, 64
4, 20423, Note_on_c, 1, 59, 0
4, 20424, Note_on_c, 1, 55, 64
4, 20447, Note_on_c, 1, 55, 0
4, 20448, Note_on_c, 1, 60, 64
4, 20493, Note_on_c, 1, 60, 0
4, 20496, Note_on_c, 1, 48, 64
4, 20541, Note_on_c, 1, 48, 0
4, 20544, Note_on_c, 1, 55, 64
4, 20589, Note_on_c, 1, 55, 0
4, 20592, Note_on_c, 1, 43, 64
4, 20637, Note_on_c, 1, 43, 0
4, 20736, Note_on_c, 1, 60, 64
4, 20781, Note_on_c, 1, 60, 0
4, 20784, Note_on_c, 1, 62, 64
4, 20829, Note_on_c, 1, 62, 0
4, 20832, Note_on_c, 1, 63, 64
4, 20877, Note_on_c, 1, 63, 0
4, 20880, Note_on_c, 1, 60, 64
4, 20925, Note_on_c, 1, 60, 0
4, 20928, Note_on_c, 1, 62, 64
4, 20973, Note_on_c, 1, 62, 0
4, 20976, Note_on_c, 1, 55, 64
4, 21021, Note_on_c, 1, 55, 0
4, 21024, Note_on_c, 1, 60, 64
4, 21069, Note_on_c, 1, 60, 0
4, 21072, Note_on_c, 1, 48, 64
4, 21117, Note_on_c, 1, 48, 0
4, 21120, Note_on_c, 1, 63, 64
4, 21143, Note_on_c, 1, 63, 0
4, 21144, Note_on_c, 1, 62, 64
4, 21167, Note_on_c, 1, 62, 0
4, 21168, Note_on_c, 1, 63, 64
4, 21191, Note_on_c, 1, 63, 0
4, 21192, Note_on_c, 1, 67, 64
4, 21215, Note_on_c, 1, 67, 0
4, 21216, Note_on_c, 1, 65, 64
4, 21239, Note_on_c, 1, 65, 0
4, 21240, Note_on_c, 1, 63, 64
4, 21263, Note_on_c, 1, 63, 0
4, 21264, Note_on_c, 1, 62, 64
4, 21287, Note_on_c, 1, 62, 0
4, 21288, Note_on_c, 1, 65, 64
4, 21311, Note_on_c, 1, 65, 0
4, 21312, Note_on_c, 1, 63, 64
4, 21401, Note_on_c, 1, 63, 0
4, 21456, Note_on_c, 1, 67, 64
4, 21501, Note_on_c, 1, 67, 0
4, 21504, Note_on_c, 1, 56, 64
4, 21527, Note_on_c, 1, 56, 0
4, 21528, Note_on_c, 1, 55, 64
4, 21551, Note_on_c, 1, 55, 0
4, 21552, Note_on_c, 1, 56, 64
4, 21575, Note_on_c, 1, 56, 0
4, 21576, Note_on_c, 1, 60, 64
4, 21599, Note_on_c, 1, 60, 0
4, 21600, Note_on_c, 1, 65, 64
4, 21645, Note_on_c, 1, 65, 0
4, 21648, Note_on_c, 1, 65, 64
4, 21693, Note_on_c, 1, 65, 0
4, 21696, Note_on_c, 1, 65, 64
4, 21741, Note_on_c, 1, 65, 0
4, 21744, Note_on_c, 1, 55, 64
4, 21789, Note_on_c, 1, 55, 0
4, 21792, Note_on_c, 1, 63, 64
4, 21881, Note_on_c, 1, 63, 0
4, 21888, Note_on_c, 1, 63, 64
4, 21933, Note_on_c, 1, 63, 0
4, 21936, Note_on_c, 1, 56, 64
4, 21959, Note_on_c, 1, 56, 0
4, 21960, Note_on_c, 1, 67, 64
4, 21983, Note_on_c, 1, 67, 0
4, 21984, Note_on_c, 1, 65, 64
4, 22007, Note_on_c, 1, 65, 0
4, 22008, Note_on_c, 1, 63, 64
4, 22031, Note_on_c, 1, 63, 0
4, 22032, Note_on_c, 1, 62, 64
4, 22055, Note_on_c, 1, 62, 0
4, 22056, Note_on_c, 1, 60, 64
4, 22079, Note_on_c, 1, 60, 0
4, 22080, Note_on_c, 1, 59, 64
4, 22103, Note_on_c, 1, 59, 0
4, 22104, Note_on_c, 1, 55, 64
4, 22127, Note_on_c, 1, 55, 0
4, 22128, Note_on_c, 1, 56, 64
4, 22151, Note_on_c, 1, 56, 0
4, 22152, Note_on_c, 1, 55, 64
4, 22175, Note_on_c, 1, 55, 0
4, 22176, Note_on_c, 1, 53, 64
4, 22199, Note_on_c, 1, 53, 0
4, 22200, Note_on_c, 1, 62, 64
4, 22223, Note_on_c, 1, 62, 0
4, 22224, Note_on_c, 1, 55, 64
4, 22247, Note_on_c, 1, 55, 0
4, 22248, Note_on_c, 1, 53, 64
4, 22271, Note_on_c, 1, 53, 0
4, 22272, Note_on_c, 1, 51, 64
4, 22317, Note_on_c, 1, 51, 0
4, 22320, Note_on_c, 1, 56, 64
4, 22365, Note_on_c, 1, 56, 0
4, 22368, Note_on_c, 1, 50, 64
4, 22413, Note_on_c, 1, 50, 0
4, 22416, Note_on_c, 1, 55, 64
4, 22461, Note_on_c, 1, 55, 0
4, 22464, Note_on_c, 1, 48, 64
4, 22509, Note_on_c, 1, 48, 0
4, 22512, Note_on_c, 1, 50, 64
4, 22557, Note_on_c, 1, 50, 0
4, 22560, Note_on_c, 1, 51, 64
4, 22605, Note_on_c, 1, 51, 0
4, 22608, Note_on_c, 1, 53, 64
4, 22653, Note_on_c, 1, 53, 0
4, 22656, Note_on_c, 1, 55, 64
4, 22701, Note_on_c, 1, 55, 0
4, 22704, Note_on_c, 1, 53, 64
4, 22749, Note_on_c, 1, 53, 0
4, 22752, Note_on_c, 1, 51, 64
4, 22797, Note_on_c, 1, 51, 0
4, 22800, Note_on_c, 1, 55, 64
4, 22845, Note_on_c, 1, 55, 0
4, 22848, Note_on_c, 1, 56, 64
4, 22893, Note_on_c, 1, 56, 0
4, 22896, Note_on_c, 1, 58, 64
4, 22941, Note_on_c, 1, 58, 0
4, 22944, Note_on_c, 1, 60, 64
4, 22989, Note_on_c, 1, 60, 0
4, 22992, Note_on_c, 1, 62, 64
4, 23037, Note_on_c, 1, 62, 0
4, 23040, Note_on_c, 1, 63, 64
4, 23085, Note_on_c, 1, 63, 0
4, 23088, Note_on_c, 1, 62, 64
4, 23133, Note_on_c, 1, 62, 0
4, 23136, Note_on_c, 1, 60, 64
4, 23181, Note_on_c, 1, 60, 0
4, 23184, Note_on_c, 1, 63, 64
4, 23229, Note_on_c, 1, 63, 0
4, 23232, Note_on_c, 1, 53, 64
4, 23277, Note_on_c, 1, 53, 0
4, 23280, Note_on_c, 1, 55, 64
4, 23325, Note_on_c, 1, 55, 0
4, 23328, Note_on_c, 1, 56, 64
4, 23373, Note_on_c, 1, 56, 0
4, 23376, Note_on_c, 1, 58, 64
4, 23421, Note_on_c, 1, 58, 0
4, 23424, Note_on_c, 1, 60, 64
4, 23469, Note_on_c, 1, 60, 0
4, 23472, Note_on_c, 1, 62, 64
4, 23517, Note_on_c, 1, 62, 0
4, 23520, Note_on_c, 1, 60, 64
4, 23565, Note_on_c, 1, 60, 0
4, 23568, Note_on_c, 1, 58, 64
4, 23613, Note_on_c, 1, 58, 0
4, 23616, Note_on_c, 1, 56, 64
4, 23661, Note_on_c, 1, 56, 0
4, 23664, Note_on_c, 1, 58, 64
4, 23709, Note_on_c, 1, 58, 0
4, 23712, Note_on_c, 1, 60, 64
4, 23757, Note_on_c, 1, 60, 0
4, 23760, Note_on_c, 1, 56, 64
4, 23805, Note_on_c, 1, 56, 0
4, 23808, Note_on_c, 1, 58, 64
4, 23853, Note_on_c, 1, 58, 0
4, 23856, Note_on_c, 1, 56, 64
4, 23901, Note_on_c, 1, 56, 0
4, 23904, Note_on_c, 1, 55, 64
4, 23949, Note_on_c, 1, 55, 0
4, 23952, Note_on_c, 1, 53, 64
4, 23997, Note_on_c, 1, 53, 0
4, 24000, Note_on_c, 1, 51, 64
4, 24089, Note_on_c, 1, 51, 0
4, 24096, Note_on_c, 1, 50, 64
4, 24185, Note_on_c, 1, 50, 0
4, 24192, Note_on_c, 1, 48, 64
4, 24281, Note_on_c, 1, 48, 0
4, 24312, Note_on_c, 1, 46, 64
4, 24335, Note_on_c, 1, 46, 0
4, 24336, Note_on_c, 1, 48, 64
4, 24359, Note_on_c, 1, 48, 0
4, 24360, Note_on_c, 1, 50, 64
4, 24383, Note_on_c, 1, 50, 0
4, 24384, Note_on_c, 1, 51, 64
4, 24429, Note_on_c, 1, 51, 0
4, 24432, Note_on_c, 1, 50, 64
4, 24477, Note_on_c, 1, 50, 0
4, 24480, Note_on_c, 1, 48, 64
4, 24525, Note_on_c, 1, 48, 0
4, 24528, Note_on_c, 1, 50, 64
4, 24573, Note_on_c, 1, 50, 0
4, 24576, Note_on_c, 1, 43, 64
4, 24599, Note_on_c, 1, 43, 0
4, 24600, Note_on_c, 1, 50, 64
4, 24623, Note_on_c, 1, 50, 0
4, 24624, Note_on_c, 1, 51, 64
4, 24647, Note_on_c, 1, 51, 0
4, 24648, Note_on_c, 1, 53, 64
4, 24671, Note_on_c, 1, 53, 0
4, 24672, Note_on_c, 1, 55, 64
4, 24761, Note_on_c, 1, 55, 0
4, 24768, Note_on_c, 1, 55, 64
4, 24813, Note_on_c, 1, 55, 0
4, 24816, Note_on_c, 1, 53, 64
4, 24839, Note_on_c, 1, 53, 0
4, 24840, Note_on_c, 1, 51, 64
4, 24863, Note_on_c, 1, 51, 0
4, 24864, Note_on_c, 1, 53, 64
4, 24887, Note_on_c, 1, 53, 0
4, 24888, Note_on_c, 1, 55, 64
4, 24911, Note_on_c, 1, 55, 0
4, 24912, Note_on_c, 1, 53, 64
4, 24935, Note_on_c, 1, 53, 0
4, 24936, Note_on_c, 1, 51, 64
4, 24959, Note_on_c, 1, 51, 0
4, 24960, Note_on_c, 1, 50, 64
4, 25005, Note_on_c, 1, 50, 0
4, 25008, Note_on_c, 1, 46, 64
4, 25053, Note_on_c, 1, 46, 0
4, 25080, Note_on_c, 1, 51, 64
4, 25103, Note_on_c, 1, 51, 0
4, 25104, Note_on_c, 1, 53, 64
4, 25127, Note_on_c, 1, 53, 0
4, 25128, Note_on_c, 1, 55, 64
4, 25151, Note_on_c, 1, 55, 0
4, 25152, Note_on_c, 1, 56, 64
4, 25175, Note_on_c, 1, 56, 0
4, 25176, Note_on_c, 1, 55, 64
4, 25199, Note_on_c, 1, 55, 0
4, 25200, Note_on_c, 1, 56, 64
4, 25223, Note_on_c, 1, 56, 0
4, 25224, Note_on_c, 1, 58, 64
4, 25247, Note_on_c, 1, 58, 0
4, 25248, Note_on_c, 1, 60, 64
4, 25293, Note_on_c, 1, 60, 0
4, 25296, Note_on_c, 1, 56, 64
4, 25341, Note_on_c, 1, 56, 0
4, 25344, Note_on_c, 1, 58, 64
4, 25433, Note_on_c, 1, 58, 0
4, 25464, Note_on_c, 1, 56, 64
4, 25487, Note_on_c, 1, 56, 0
4, 25488, Note_on_c, 1, 55, 64
4, 25511, Note_on_c, 1, 55, 0
4, 25512, Note_on_c, 1, 53, 64
4, 25535, Note_on_c, 1, 53, 0
4, 25536, Note_on_c, 1, 51, 64
4, 25559, Note_on_c, 1, 51, 0
4, 25560, Note_on_c, 1, 50, 64
4, 25583, Note_on_c, 1, 50, 0
4, 25584, Note_on_c, 1, 48, 64
4, 25607, Note_on_c, 1, 48, 0
4, 25608, Note_on_c, 1, 46, 64
4, 25631, Note_on_c, 1, 46, 0
4, 25632, Note_on_c, 1, 44, 64
4, 25677, Note_on_c, 1, 44, 0
4, 25680, Note_on_c, 1, 46, 64
4, 25725, Note_on_c, 1, 46, 0
4, 25728, Note_on_c, 1, 39, 64
4, 25773, Note_on_c, 1, 39, 0
4, 25776, Note_on_c, 1, 55, 64
4, 25799, Note_on_c, 1, 55, 0
4, 25800, Note_on_c, 1, 53, 64
4, 25823, Note_on_c, 1, 53, 0
4, 25824, Note_on_c, 1, 51, 64
4, 25847, Note_on_c, 1, 51, 0
4, 25848, Note_on_c, 1, 50, 64
4, 25871, Note_on_c, 1, 50, 0
4, 25872, Note_on_c, 1, 48, 64
4, 25895, Note_on_c, 1, 48, 0
4, 25896, Note_on_c, 1, 46, 64
4, 25919, Note_on_c, 1, 46, 0
4, 25920, Note_on_c, 1, 45, 64
4, 25943, Note_on_c, 1, 45, 0
4, 25944, Note_on_c, 1, 53, 64
4, 25967, Note_on_c, 1, 53, 0
4, 25968, Note_on_c, 1, 55, 64
4, 25991, Note_on_c, 1, 55, 0
4, 25992, Note_on_c, 1, 53, 64
4, 26015, Note_on_c, 1, 53, 0
4, 26016, Note_on_c, 1, 51, 64
4, 26039, Note_on_c, 1, 51, 0
4, 26040, Note_on_c, 1, 60, 64
4, 26063, Note_on_c, 1, 60, 0
4, 26064, Note_on_c, 1, 53, 64
4, 26087, Note_on_c, 1, 53, 0
4, 26088, Note_on_c, 1, 51, 64
4, 26111, Note_on_c, 1, 51, 0
4, 26112, Note_on_c, 1, 50, 64
4, 26157, Note_on_c, 1, 50, 0
4, 26160, Note_on_c, 1, 58, 64
4, 26249, Note_on_c, 1, 58, 0
4, 26256, Note_on_c, 1, 57, 64
4, 26301, Note_on_c, 1, 57, 0
4, 26304, Note_on_c, 1, 55, 64
4, 26327, Note_on_c, 1, 55, 0
4, 26328, Note_on_c, 1, 54, 64
4, 26351, Note_on_c, 1, 54, 0
4, 26352, Note_on_c, 1, 55, 64
4, 26397, Note_on_c, 1, 55, 0
4, 26424, Note_on_c, 1, 54, 64
4, 26447, Note_on_c, 1, 54, 0
4, 26448, Note_on_c, 1, 55, 64
4, 26471, Note_on_c, 1, 55, 0
4, 26472, Note_on_c, 1, 57, 64
4, 26495, Note_on_c, 1, 57, 0
4, 26496, Note_on_c, 1, 58, 64
4, 26541, Note_on_c, 1, 58, 0
4, 26544, Note_on_c, 1, 57, 64
4, 26589, Note_on_c, 1, 57, 0
4, 26592, Note_on_c, 1, 55, 64
4, 26637, Note_on_c, 1, 55, 0
4, 26640, Note_on_c, 1, 57, 64
4, 26685, Note_on_c, 1, 57, 0
4, 26688, Note_on_c, 1, 50, 64
4, 26711, Note_on_c, 1, 50, 0
4, 26712, Note_on_c, 1, 57, 64
4, 26735, Note_on_c, 1, 57, 0
4, 26736, Note_on_c, 1, 58, 64
4, 26759, Note_on_c, 1, 58, 0
4, 26760, Note_on_c, 1, 60, 64
4, 26783, Note_on_c, 1, 60, 0
4, 26784, Note_on_c, 1, 62, 64
4, 26873, Note_on_c, 1, 62, 0
4, 26880, Note_on_c, 1, 62, 64
4, 26925, Note_on_c, 1, 62, 0
4, 26928, Note_on_c, 1, 60, 64
4, 26951, Note_on_c, 1, 60, 0
4, 26952, Note_on_c, 1, 58, 64
4, 26975, Note_on_c, 1, 58, 0
4, 26976, Note_on_c, 1, 60, 64
4, 26999, Note_on_c, 1, 60, 0
4, 27000, Note_on_c, 1, 62, 64
4, 27023, Note_on_c, 1, 62, 0
4, 27024, Note_on_c, 1, 60, 64
4, 27047, Note_on_c, 1, 60, 0
4, 27048, Note_on_c, 1, 58, 64
4, 27071, Note_on_c, 1, 58, 0
4, 27072, Note_on_c, 1, 57, 64
4, 27117, Note_on_c, 1, 57, 0
4, 27120, Note_on_c, 1, 53, 64
4, 27165, Note_on_c, 1, 53, 0
4, 27192, Note_on_c, 1, 46, 64
4, 27215, Note_on_c, 1, 46, 0
4, 27216, Note_on_c, 1, 48, 64
4, 27239, Note_on_c, 1, 48, 0
4, 27240, Note_on_c, 1, 50, 64
4, 27263, Note_on_c, 1, 50, 0
4, 27264, Note_on_c, 1, 51, 64
4, 27287, Note_on_c, 1, 51, 0
4, 27288, Note_on_c, 1, 50, 64
4, 27311, Note_on_c, 1, 50, 0
4, 27312, Note_on_c, 1, 51, 64
4, 27335, Note_on_c, 1, 51, 0
4, 27336, Note_on_c, 1, 53, 64
4, 27359, Note_on_c, 1, 53, 0
4, 27360, Note_on_c, 1, 55, 64
4, 27405, Note_on_c, 1, 55, 0
4, 27408, Note_on_c, 1, 51, 64
4, 27453, Note_on_c, 1, 51, 0
4, 27456, Note_on_c, 1, 53, 64
4, 27545, Note_on_c, 1, 53, 0
4, 27576, Note_on_c, 1, 51, 64
4, 27599, Note_on_c, 1, 51, 0
4, 27600, Note_on_c, 1, 50, 64
4, 27623, Note_on_c, 1, 50, 0
4, 27624, Note_on_c, 1, 48, 64
4, 27647, Note_on_c, 1, 48, 0
4, 27648, Note_on_c, 1, 46, 64
4, 27671, Note_on_c, 1, 46, 0
4, 27672, Note_on_c, 1, 45, 64
4, 27695, Note_on_c, 1, 45, 0
4, 27696, Note_on_c, 1, 43, 64
4, 27719, Note_on_c, 1, 43, 0
4, 27720, Note_on_c, 1, 41, 64
4, 27743, Note_on_c, 1, 41, 0
4, 27744, Note_on_c, 1, 39, 64
4, 27789, Note_on_c, 1, 39, 0
4, 27792, Note_on_c, 1, 41, 64
4, 27837, Note_on_c, 1, 41, 0
4, 27840, Note_on_c, 1, 46, 64
4, 27885, Note_on_c, 1, 46, 0
4, 27888, Note_on_c, 1, 48, 64
4, 27933, Note_on_c, 1, 48, 0
4, 27936, Note_on_c, 1, 50, 64
4, 27981, Note_on_c, 1, 50, 0
4, 27984, Note_on_c, 1, 51, 64
4, 28029, Note_on_c, 1, 51, 0
4, 28032, Note_on_c, 1, 53, 64
4, 28077, Note_on_c, 1, 53, 0
4, 28080, Note_on_c, 1, 41, 64
4, 28125, Note_on_c, 1, 41, 0
4, 28152, Note_on_c, 1, 53, 64
4, 28175, Note_on_c, 1, 53, 0
4, 28176, Note_on_c, 1, 51, 64
4, 28199, Note_on_c, 1, 51, 0
4, 28200, Note_on_c, 1, 50, 64
4, 28223, Note_on_c, 1, 50, 0
4, 28224, Note_on_c, 1, 48, 64
4, 28269, Note_on_c, 1, 48, 0
4, 28272, Note_on_c, 1, 50, 64
4, 28317, Note_on_c, 1, 50, 0
4, 28320, Note_on_c, 1, 51, 64
4, 28365, Note_on_c, 1, 51, 0
4, 28368, Note_on_c, 1, 53, 64
4, 28413, Note_on_c, 1, 53, 0
4, 28416, Note_on_c, 1, 55, 64
4, 28461, Note_on_c, 1, 55, 0
4, 28464, Note_on_c, 1, 43, 64
4, 28509, Note_on_c, 1, 43, 0
4, 28536, Note_on_c, 1, 55, 64
4, 28559, Note_on_c, 1, 55, 0
4, 28560, Note_on_c, 1, 53, 64
4, 28583, Note_on_c, 1, 53, 0
4, 28584, Note_on_c, 1, 52, 64
4, 28607, Note_on_c, 1, 52, 0
4, 28608, Note_on_c, 1, 50, 64
4, 28653, Note_on_c, 1, 50, 0
4, 28656, Note_on_c, 1, 52, 64
4, 28701, Note_on_c, 1, 52, 0
4, 28704, Note_on_c, 1, 53, 64
4, 28749, Note_on_c, 1, 53, 0
4, 28752, Note_on_c, 1, 55, 64
4, 28797, Note_on_c, 1, 55, 0
4, 28800, Note_on_c, 1, 57, 64
4, 28845, Note_on_c, 1, 57, 0
4, 28848, Note_on_c, 1, 55, 64
4, 28893, Note_on_c, 1, 55, 0
4, 28896, Note_on_c, 1, 57, 64
4, 28941, Note_on_c, 1, 57, 0
4, 28944, Note_on_c, 1, 53, 64
4, 28989, Note_on_c, 1, 53, 0
4, 28992, Note_on_c, 1, 58, 64
4, 29037, Note_on_c, 1, 58, 0
4, 29040, Note_on_c, 1, 57, 64
4, 29085, Note_on_c, 1, 57, 0
4, 29088, Note_on_c, 1, 58, 64
4, 29133, Note_on_c, 1, 58, 0
4, 29136, Note_on_c, 1, 55, 64
4, 29181, Note_on_c, 1, 55, 0
4, 29184, Note_on_c, 1, 57, 64
4, 29229, Note_on_c, 1, 57, 0
4, 29232, Note_on_c, 1, 55, 64
4, 29255, Note_on_c, 1, 55, 0
4, 29256, Note_on_c, 1, 57, 64
4, 29279, Note_on_c, 1, 57, 0
4, 29280, Note_on_c, 1, 58, 64
4, 29325, Note_on_c, 1, 58, 0
4, 29328, Note_on_c, 1, 53, 64
4, 29373, Note_on_c, 1, 53, 0
4, 29376, Note_on_c, 1, 55, 64
4, 29421, Note_on_c, 1, 55, 0
4, 29424, Note_on_c, 1, 52, 64
4, 29469, Note_on_c, 1, 52, 0
4, 29472, Note_on_c, 1, 57, 64
4, 29517, Note_on_c, 1, 57, 0
4, 29520, Note_on_c, 1, 45, 64
4, 29565, Note_on_c, 1, 45, 0
4, 29568, Note_on_c, 1, 50, 64
4, 29591, Note_on_c, 1, 50, 0
4, 29592, Note_on_c, 1, 48, 64
4, 29615, Note_on_c, 1, 48, 0
4, 29616, Note_on_c, 1, 50, 64
4, 29639, Note_on_c, 1, 50, 0
4, 29640, Note_on_c, 1, 53, 64
4, 29663, Note_on_c, 1, 53, 0
4, 29664, Note_on_c, 1, 58, 64
4, 29709, Note_on_c, 1, 58, 0
4, 29712, Note_on_c, 1, 50, 64
4, 29757, Note_on_c, 1, 50, 0
4, 29760, Note_on_c, 1, 48, 64
4, 29805, Note_on_c, 1, 48, 0
4, 29808, Note_on_c, 1, 58, 64
4, 29853, Note_on_c, 1, 58, 0
4, 29856, Note_on_c, 1, 57, 64
4, 29901, Note_on_c, 1, 57, 0
4, 29904, Note_on_c, 1, 48, 64
4, 29949, Note_on_c, 1, 48, 0
4, 29952, Note_on_c, 1, 46, 64
4, 29975, Note_on_c, 1, 46, 0
4, 29976, Note_on_c, 1, 45, 64
4, 29999, Note_on_c, 1, 45, 0
4, 30000, Note_on_c, 1, 46, 64
4, 30023, Note_on_c, 1, 46, 0
4, 30024, Note_on_c, 1, 50, 64
4, 30047, Note_on_c, 1, 50, 0
4, 30048, Note_on_c, 1, 55, 64
4, 30093, Note_on_c, 1, 55, 0
4, 30096, Note_on_c, 1, 46, 64
4, 30141, Note_on_c, 1, 46, 0
4, 30144, Note_on_c, 1, 45, 64
4, 30189, Note_on_c, 1, 45, 0
4, 30192, Note_on_c, 1, 55, 64
4, 30237, Note_on_c, 1, 55, 0
4, 30240, Note_on_c, 1, 54, 64
4, 30285, Note_on_c, 1, 54, 0
4, 30288, Note_on_c, 1, 50, 64
4, 30333, Note_on_c, 1, 50, 0
4, 30336, Note_on_c, 1, 43, 64
4, 30359, Note_on_c, 1, 43, 0
4, 30360, Note_on_c, 1, 42, 64
4, 30383, Note_on_c, 1, 42, 0
4, 30384, Note_on_c, 1, 43, 64
4, 30407, Note_on_c, 1, 43, 0
4, 30408, Note_on_c, 1, 46, 64
4, 30431, Note_on_c, 1, 46, 0
4, 30432, Note_on_c, 1, 51, 64
4, 30477, Note_on_c, 1, 51, 0
4, 30480, Note_on_c, 1, 43, 64
4, 30525, Note_on_c, 1, 43, 0
4, 30528, Note_on_c, 1, 41, 64
4, 30573, Note_on_c, 1, 41, 0
4, 30576, Note_on_c, 1, 51, 64
4, 30621, Note_on_c, 1, 51, 0
4, 30624, Note_on_c, 1, 50, 64
4, 30669, Note_on_c, 1, 50, 0
4, 30672, Note_on_c, 1, 41, 64
4, 30717, Note_on_c, 1, 41, 0
4, 30720, Note_on_c, 1, 39, 64
4, 30743, Note_on_c, 1, 39, 0
4, 30744, Note_on_c, 1, 38, 64
4, 30767, Note_on_c, 1, 38, 0
4, 30768, Note_on_c, 1, 39, 64
4, 30791, Note_on_c, 1, 39, 0
4, 30792, Note_on_c, 1, 43, 64
4, 30815, Note_on_c, 1, 43, 0
4, 30816, Note_on_c, 1, 48, 64
4, 30861, Note_on_c, 1, 48, 0
4, 30864, Note_on_c, 1, 39, 64
4, 30909, Note_on_c, 1, 39, 0
4, 30912, Note_on_c, 1, 38, 64
4, 30957, Note_on_c, 1, 38, 0
4, 30960, Note_on_c, 1, 48, 64
4, 31005, Note_on_c, 1, 48, 0
4, 31008, Note_on_c, 1, 47, 64
4, 31053, Note_on_c, 1, 47, 0
4, 31056, Note_on_c, 1, 43, 64
4, 31101, Note_on_c, 1, 43, 0
4, 31104, Note_on_c, 1, 48, 64
4, 31149, Note_on_c, 1, 48, 0
4, 31152, Note_on_c, 1, 36, 64
4, 31197, Note_on_c, 1, 36, 0
4, 31296, Note_on_c, 1, 53, 64
4, 31319, Note_on_c, 1, 53, 0
4, 31320, Note_on_c, 1, 55, 64
4, 31343, Note_on_c, 1, 55, 0
4, 31344, Note_on_c, 1, 57, 64
4, 31367, Note_on_c, 1, 57, 0
4, 31368, Note_on_c, 1, 53, 64
4, 31391, Note_on_c, 1, 53, 0
4, 31392, Note_on_c, 1, 58, 64
4, 31437, Note_on_c, 1, 58, 0
4, 31440, Note_on_c, 1, 46, 64
4, 31485, Note_on_c, 1, 46, 0
4, 31488, Note_on_c, 1, 53, 64
4, 31533, Note_on_c, 1, 53, 0
4, 31536, Note_on_c, 1, 41, 64
4, 31581, Note_on_c, 1, 41, 0
4, 31680, Note_on_c, 1, 50, 64
4, 31703, Note_on_c, 1, 50, 0
4, 31704, Note_on_c, 1, 52, 64
4, 31727, Note_on_c, 1, 52, 0
4, 31728, Note_on_c, 1, 54, 64
4, 31751, Note_on_c, 1, 54, 0
4, 31752, Note_on_c, 1, 50, 64
4, 31775, Note_on_c, 1, 50, 0
4, 31776, Note_on_c, 1, 55, 64
4, 31821, Note_on_c, 1, 55, 0
4, 31824, Note_on_c, 1, 43, 64
4, 31869, Note_on_c, 1, 43, 0
4, 31872, Note_on_c, 1, 50, 64
4, 31917, Note_on_c, 1, 50, 0
4, 31920, Note_on_c, 1, 38, 64
4, 31965, Note_on_c, 1, 38, 0
4, 32064, Note_on_c, 1, 55, 64
4, 32087, Note_on_c, 1, 55, 0
4, 32088, Note_on_c, 1, 57, 64
4, 32111, Note_on_c, 1, 57, 0
4, 32112, Note_on_c, 1, 58, 64
4, 32135, Note_on_c, 1, 58, 0
4, 32136, Note_on_c, 1, 55, 64
4, 32159, Note_on_c, 1, 55, 0
4, 32160, Note_on_c, 1, 57, 64
4, 32205, Note_on_c, 1, 57, 0
4, 32208, Note_on_c, 1, 50, 64
4, 32253, Note_on_c, 1, 50, 0
4, 32256, Note_on_c, 1, 55, 64
4, 32301, Note_on_c, 1, 55, 0
4, 32304, Note_on_c, 1, 43, 64
4, 32349, Note_on_c, 1, 43, 0
4, 32352, Note_on_c, 1, 58, 64
4, 32441, Note_on_c, 1, 58, 0
4, 32448, Note_on_c, 1, 58, 64
4, 32471, Note_on_c, 1, 58, 0
4, 32472, Note_on_c, 1, 57, 64
4, 32495, Note_on_c, 1, 57, 0
4, 32496, Note_on_c, 1, 58, 64
4, 32519, Note_on_c, 1, 58, 0
4, 32520, Note_on_c, 1, 62, 64
4, 32543, Note_on_c, 1, 62, 0
4, 32544, Note_on_c, 1, 60, 64
4, 32567, Note_on_c, 1, 60, 0
4, 32568, Note_on_c, 1, 58, 64
4, 32591, Note_on_c, 1, 58, 0
4, 32592, Note_on_c, 1, 57, 64
4, 32615, Note_on_c, 1, 57, 0
4, 32616, Note_on_c, 1, 60, 64
4, 32639, Note_on_c, 1, 60, 0
4, 32640, Note_on_c, 1, 58, 64
4, 32729, Note_on_c, 1, 58, 0
4, 32784, Note_on_c, 1, 62, 64
4, 32829, Note_on_c, 1, 62, 0
4, 32832, Note_on_c, 1, 51, 64
4, 32855, Note_on_c, 1, 51, 0
4, 32856, Note_on_c, 1, 50, 64
4, 32879, Note_on_c, 1, 50, 0
4, 32880, Note_on_c, 1, 51, 64
4, 32903, Note_on_c, 1, 51, 0
4, 32904, Note_on_c, 1, 55, 64
4, 32927, Note_on_c, 1, 55, 0
4, 32928, Note_on_c, 1, 60, 64
4, 32973, Note_on_c, 1, 60, 0
4, 32976, Note_on_c, 1, 60, 64
4, 33021, Note_on_c, 1, 60, 0
4, 33024, Note_on_c, 1, 60, 64
4, 33069, Note_on_c, 1, 60, 0
4, 33072, Note_on_c, 1, 50, 64
4, 33117, Note_on_c, 1, 50, 0
4, 33120, Note_on_c, 1, 58, 64
4, 33209, Note_on_c, 1, 58, 0
4, 33216, Note_on_c, 1, 58, 64
4, 33261, Note_on_c, 1, 58, 0
4, 33264, Note_on_c, 1, 63, 64
4, 33287, Note_on_c, 1, 63, 0
4, 33288, Note_on_c, 1, 62, 64
4, 33311, Note_on_c, 1, 62, 0
4, 33312, Note_on_c, 1, 60, 64
4, 33335, Note_on_c, 1, 60, 0
4, 33336, Note_on_c, 1, 58, 64
4, 33359, Note_on_c, 1, 58, 0
4, 33360, Note_on_c, 1, 57, 64
4, 33383, Note_on_c, 1, 57, 0
4, 33384, Note_on_c, 1, 55, 64
4, 33407, Note_on_c, 1, 55, 0
4, 33408, Note_on_c, 1, 54, 64
4, 33431, Note_on_c, 1, 54, 0
4, 33432, Note_on_c, 1, 50, 64
4, 33455, Note_on_c, 1, 50, 0
4, 33456, Note_on_c, 1, 51, 64
4, 33479, Note_on_c, 1, 51, 0
4, 33480, Note_on_c, 1, 50, 64
4, 33503, Note_on_c, 1, 50, 0
4, 33504, Note_on_c, 1, 48, 64
4, 33527, Note_on_c, 1, 48, 0
4, 33528, Note_on_c, 1, 57, 64
4, 33551, Note_on_c, 1, 57, 0
4, 33552, Note_on_c, 1, 50, 64
4, 33575, Note_on_c, 1, 50, 0
4, 33576, Note_on_c, 1, 48, 64
4, 33599, Note_on_c, 1, 48, 0
4, 33600, Note_on_c, 1, 46, 64
4, 33645, Note_on_c, 1, 46, 0
4, 33648, Note_on_c, 1, 51, 64
4, 33693, Note_on_c, 1, 51, 0
4, 33696, Note_on_c, 1, 45, 64
4, 33741, Note_on_c, 1, 45, 0
4, 33744, Note_on_c, 1, 50, 64
4, 33789, Note_on_c, 1, 50, 0
4, 33792, Note_on_c, 1, 43, 64
4, 33837, Note_on_c, 1, 43, 0
4, 33840, Note_on_c, 1, 55, 64
4, 33863, Note_on_c, 1, 55, 0
4, 33864, Note_on_c, 1, 57, 64
4, 33887, Note_on_c, 1, 57, 0
4, 33888, Note_on_c, 1, 58, 64
4, 33933, Note_on_c, 1, 58, 0
4, 33936, Note_on_c, 1, 59, 64
4, 33981, Note_on_c, 1, 59, 0
4, 33984, Note_on_c, 1, 60, 64
4, 34029, Note_on_c, 1, 60, 0
4, 34032, Note_on_c, 1, 57, 64
4, 34055, Note_on_c, 1, 57, 0
4, 34056, Note_on_c, 1, 58, 64
4, 34079, Note_on_c, 1, 58, 0
4, 34080, Note_on_c, 1, 60, 64
4, 34125, Note_on_c, 1, 60, 0
4, 34128, Note_on_c, 1, 61, 64
4, 34173, Note_on_c, 1, 61, 0
4, 34176, Note_on_c, 1, 62, 64
4, 34221, Note_on_c, 1, 62, 0
4, 34224, Note_on_c, 1, 50, 64
4, 34247, Note_on_c, 1, 50, 0
4, 34248, Note_on_c, 1, 52, 64
4, 34271, Note_on_c, 1, 52, 0
4, 34272, Note_on_c, 1, 53, 64
4, 34317, Note_on_c, 1, 53, 0
4, 34320, Note_on_c, 1, 54, 64
4, 34365, Note_on_c, 1, 54, 0
4, 34368, Note_on_c, 1, 55, 64
4, 34413, Note_on_c, 1, 55, 0
4, 34416, Note_on_c, 1, 48, 64
4, 34461, Note_on_c, 1, 48, 0
4, 34464, Note_on_c, 1, 50, 64
4, 34509, Note_on_c, 1, 50, 0
4, 34512, Note_on_c, 1, 38, 64
4, 34557, Note_on_c, 1, 38, 0
4, 34560, Note_on_c, 1, 43, 64
4, 34605, Note_on_c, 1, 43, 0
4, 34608, Note_on_c, 1, 55, 64
4, 34653, Note_on_c, 1, 55, 0
4, 34656, Note_on_c, 1, 54, 64
4, 34701, Note_on_c, 1, 54, 0
4, 34704, Note_on_c, 1, 53, 64
4, 34749, Note_on_c, 1, 53, 0
4, 34752, Note_on_c, 1, 52, 64
4, 34797, Note_on_c, 1, 52, 0
4, 34800, Note_on_c, 1, 51, 64
4, 34845, Note_on_c, 1, 51, 0
4, 34848, Note_on_c, 1, 50, 64
4, 34893, Note_on_c, 1, 50, 0
4, 34896, Note_on_c, 1, 55, 64
4, 34941, Note_on_c, 1, 55, 0
4, 34944, Note_on_c, 1, 48, 64
4, 34989, Note_on_c, 1, 48, 0
4, 34992, Note_on_c, 1, 46, 64
4, 35015, Note_on_c, 1, 46, 0
4, 35016, Note_on_c, 1, 45, 64
4, 35039, Note_on_c, 1, 45, 0
4, 35040, Note_on_c, 1, 50, 64
4, 35085, Note_on_c, 1, 50, 0
4, 35088, Note_on_c, 1, 38, 64
4, 35133, Note_on_c, 1, 38, 0
4, 35136, Note_on_c, 1, 43, 64
4, 35181, Note_on_c, 1, 43, 0
4, 35184, Note_on_c, 1, 55, 64
4, 35207, Note_on_c, 1, 55, 0
4, 35208, Note_on_c, 1, 57, 64
4, 35231, Note_on_c, 1, 57, 0
4, 35232, Note_on_c, 1, 58, 64
4, 35277, Note_on_c, 1, 58, 0
4, 35280, Note_on_c, 1, 59, 64
4, 35325, Note_on_c, 1, 59, 0
4, 35328, Note_on_c, 1, 60, 64
4, 35373, Note_on_c, 1, 60, 0
4, 35376, Note_on_c, 1, 48, 64
4, 35399, Note_on_c, 1, 48, 0
4, 35400, Note_on_c, 1, 50, 64
4, 35423, Note_on_c, 1, 50, 0
4, 35424, Note_on_c, 1, 51, 64
4, 35469, Note_on_c, 1, 51, 0
4, 35472, Note_on_c, 1, 52, 64
4, 35517, Note_on_c, 1, 52, 0
4, 35520, Note_on_c, 1, 53, 64
4, 35565, Note_on_c, 1, 53, 0
4, 35568, Note_on_c, 1, 50, 64
4, 35591, Note_on_c, 1, 50, 0
4, 35592, Note_on_c, 1, 51, 64
4, 35615, Note_on_c, 1, 51, 0
4, 35616, Note_on_c, 1, 53, 64
4, 35661, Note_on_c, 1, 53, 0
4, 35664, Note_on_c, 1, 54, 64
4, 35709, Note_on_c, 1, 54, 0
4, 35712, Note_on_c, 1, 55, 64
4, 35757, Note_on_c, 1, 55, 0
4, 35760, Note_on_c, 1, 43, 64
4, 35783, Note_on_c, 1, 43, 0
4, 35784, Note_on_c, 1, 45, 64
4, 35807, Note_on_c, 1, 45, 0
4, 35808, Note_on_c, 1, 46, 64
4, 35853, Note_on_c, 1, 46, 0
4, 35856, Note_on_c, 1, 47, 64
4, 35901, Note_on_c, 1, 47, 0
4, 35904, Note_on_c, 1, 48, 64
4, 35949, Note_on_c, 1, 48, 0
4, 35952, Note_on_c, 1, 53, 64
4, 35997, Note_on_c, 1, 53, 0
4, 36000, Note_on_c, 1, 55, 64
4, 36045, Note_on_c, 1, 55, 0
4, 36048, Note_on_c, 1, 43, 64
4, 36093, Note_on_c, 1, 43, 0
4, 36096, Note_on_c, 1, 48, 64
4, 36141, Note_on_c, 1, 48, 0
4, 36144, Note_on_c, 1, 60, 64
4, 36189, Note_on_c, 1, 60, 0
4, 36192, Note_on_c, 1, 59, 64
4, 36237, Note_on_c, 1, 59, 0
4, 36240, Note_on_c, 1, 58, 64
4, 36285, Note_on_c, 1, 58, 0
4, 36288, Note_on_c, 1, 57, 64
4, 36333, Note_on_c, 1, 57, 0
4, 36336, Note_on_c, 1, 56, 64
4, 36381, Note_on_c, 1, 56, 0
4, 36384, Note_on_c, 1, 55, 64
4, 36429, Note_on_c, 1, 55, 0
4, 36432, Note_on_c, 1, 60, 64
4, 36477, Note_on_c, 1, 60, 0
4, 36480, Note_on_c, 1, 53, 64
4, 36525, Note_on_c, 1, 53, 0
4, 36528, Note_on_c, 1, 51, 64
4, 36551, Note_on_c, 1, 51, 0
4, 36552, Note_on_c, 1, 50, 64
4, 36575, Note_on_c, 1, 50, 0
4, 36576, Note_on_c, 1, 55, 64
4, 36621, Note_on_c, 1, 55, 0
4, 36624, Note_on_c, 1, 43, 64
4, 36669, Note_on_c, 1, 43, 0
4, 36672, Note_on_c, 1, 48, 64
4, 36717, Note_on_c, 1, 48, 0
4, 36720, Note_on_c, 1, 60, 64
4, 36765, Note_on_c, 1, 60, 0
4, 36768, Note_on_c, 1, 53, 64
4, 36813, Note_on_c, 1, 53, 0
4, 36816, Note_on_c, 1, 57, 64
4, 36861, Note_on_c, 1, 57, 0
4, 36864, Note_on_c, 1, 46, 64
4, 36909, Note_on_c, 1, 46, 0
4, 36912, Note_on_c, 1, 58, 64
4, 36957, Note_on_c, 1, 58, 0
4, 36960, Note_on_c, 1, 51, 64
4, 37005, Note_on_c, 1, 51, 0
4, 37008, Note_on_c, 1, 55, 64
4, 37053, Note_on_c, 1, 55, 0
4, 37056, Note_on_c, 1, 44, 64
4, 37101, Note_on_c, 1, 44, 0
4, 37104, Note_on_c, 1, 56, 64
4, 37149, Note_on_c, 1, 56, 0
4, 37152, Note_on_c, 1, 52, 64
4, 37197, Note_on_c, 1, 52, 0
4, 37200, Note_on_c, 1, 48, 64
4, 37245, Note_on_c, 1, 48, 0
4, 37248, Note_on_c, 1, 41, 64
4, 37293, Note_on_c, 1, 41, 0
4, 37296, Note_on_c, 1, 53, 64
4, 37341, Note_on_c, 1, 53, 0
4, 37344, Note_on_c, 1, 47, 64
4, 37389, Note_on_c, 1, 47, 0
4, 37392, Note_on_c, 1, 43, 64
4, 37437, Note_on_c, 1, 43, 0
4, 37440, Note_on_c, 1, 36, 64
4, 37485, Note_on_c, 1, 36, 0
4, 37488, Note_on_c, 1, 48, 64
4, 37533, Note_on_c, 1, 48, 0
4, 37536, Note_on_c, 1, 42, 64
4, 37581, Note_on_c, 1, 42, 0
4, 37584, Note_on_c, 1, 38, 64
4, 37629, Note_on_c, 1, 38, 0
4, 37632, Note_on_c, 1, 43, 64
4, 37986, Note_on_c, 1, 43, 0
4, 38016, Note_on_c, 1, 43, 64
4, 38370, Note_on_c, 1, 43, 0
4, 38400, Note_on_c, 1, 43, 64
4, 38665, Note_on_c, 1, 43, 0
4, 38688, Note_on_c, 1, 43, 64
4, 38733, Note_on_c, 1, 43, 0
4, 38736, Note_on_c, 1, 55, 64
4, 38781, Note_on_c, 1, 55, 0
4, 38784, Note_on_c, 1, 56, 64
4, 38829, Note_on_c, 1, 56, 0
4, 38832, Note_on_c, 1, 57, 64
4, 38877, Note_on_c, 1, 57, 0
4, 38880, Note_on_c, 1, 58, 64
4, 38925, Note_on_c, 1, 58, 0
4, 38928, Note_on_c, 1, 59, 64
4, 38973, Note_on_c, 1, 59, 0
4, 38976, Note_on_c, 1, 60, 64
4, 39065, Note_on_c, 1, 60, 0
4, 39096, Note_on_c, 1, 55, 64
4, 39119, Note_on_c, 1, 55, 0
4, 39120, Note_on_c, 1, 53, 64
4, 39143, Note_on_c, 1, 53, 0
4, 39144, Note_on_c, 1, 51, 64
4, 39167, Note_on_c, 1, 51, 0
4, 39168, Note_on_c, 1, 53, 64
4, 39213, Note_on_c, 1, 53, 0
4, 39216, Note_on_c, 1, 55, 64
4, 39261, Note_on_c, 1, 55, 0
4, 39264, Note_on_c, 1, 56, 64
4, 39309, Note_on_c, 1, 56, 0
4, 39312, Note_on_c, 1, 58, 64
4, 39357, Note_on_c, 1, 58, 0
4, 39360, Note_on_c, 1, 51, 64
4, 39383, Note_on_c, 1, 51, 0
4, 39384, Note_on_c, 1, 58, 64
4, 39407, Note_on_c, 1, 58, 0
4, 39408, Note_on_c, 1, 60, 64
4, 39431, Note_on_c, 1, 60, 0
4, 39432, Note_on_c, 1, 62, 64
4, 39455, Note_on_c, 1, 62, 0
4, 39456, Note_on_c, 1, 63, 64
4, 39545, Note_on_c, 1, 63, 0
4, 39552, Note_on_c, 1, 63, 64
4, 39597, Note_on_c, 1, 63, 0
4, 39600, Note_on_c, 1, 62, 64
4, 39623, Note_on_c, 1, 62, 0
4, 39624, Note_on_c, 1, 60, 64
4, 39647, Note_on_c, 1, 60, 0
4, 39648, Note_on_c, 1, 62, 64
4, 39671, Note_on_c, 1, 62, 0
4, 39672, Note_on_c, 1, 63, 64
4, 39695, Note_on_c, 1, 63, 0
4, 39696, Note_on_c, 1, 62, 64
4, 39719, Note_on_c, 1, 62, 0
4, 39720, Note_on_c, 1, 60, 64
4, 39743, Note_on_c, 1, 60, 0
4, 39744, Note_on_c, 1, 59, 64
4, 39789, Note_on_c, 1, 59, 0
4, 39792, Note_on_c, 1, 55, 64
4, 39837, Note_on_c, 1, 55, 0
4, 39864, Note_on_c, 1, 48, 64
4, 39887, Note_on_c, 1, 48, 0
4, 39888, Note_on_c, 1, 50, 64
4, 39911, Note_on_c, 1, 50, 0
4, 39912, Note_on_c, 1, 51, 64
4, 39935, Note_on_c, 1, 51, 0
4, 39936, Note_on_c, 1, 53, 64
4, 39959, Note_on_c, 1, 53, 0
4, 39960, Note_on_c, 1, 51, 64
4, 39983, Note_on_c, 1, 51, 0
4, 39984, Note_on_c, 1, 53, 64
4, 40007, Note_on_c, 1, 53, 0
4, 40008, Note_on_c, 1, 55, 64
4, 40031, Note_on_c, 1, 55, 0
4, 40032, Note_on_c, 1, 56, 64
4, 40077, Note_on_c, 1, 56, 0
4, 40080, Note_on_c, 1, 53, 64
4, 40125, Note_on_c, 1, 53, 0
4, 40128, Note_on_c, 1, 55, 64
4, 40217, Note_on_c, 1, 55, 0
4, 40248, Note_on_c, 1, 53, 64
4, 40271, Note_on_c, 1, 53, 0
4, 40272, Note_on_c, 1, 51, 64
4, 40295, Note_on_c, 1, 51, 0
4, 40296, Note_on_c, 1, 50, 64
4, 40319, Note_on_c, 1, 50, 0
4, 40320, Note_on_c, 1, 48, 64
4, 40343, Note_on_c, 1, 48, 0
4, 40344, Note_on_c, 1, 46, 64
4, 40367, Note_on_c, 1, 46, 0
4, 40368, Note_on_c, 1, 44, 64
4, 40391, Note_on_c, 1, 44, 0
4, 40392, Note_on_c, 1, 43, 64
4, 40415, Note_on_c, 1, 43, 0
4, 40416, Note_on_c, 1, 41, 64
4, 40461, Note_on_c, 1, 41, 0
4, 40464, Note_on_c, 1, 43, 64
4, 40509, Note_on_c, 1, 43, 0
4, 40512, Note_on_c, 1, 44, 64
4, 40557, Note_on_c, 1, 44, 0
4, 40560, Note_on_c, 1, 56, 64
4, 40605, Note_on_c, 1, 56, 0
4, 40656, Note_on_c, 1, 44, 64
4, 40701, Note_on_c, 1, 44, 0
4, 40704, Note_on_c, 1, 43, 64
4, 40749, Note_on_c, 1, 43, 0
4, 40752, Note_on_c, 1, 55, 64
4, 40797, Note_on_c, 1, 55, 0
4, 40848, Note_on_c, 1, 43, 64
4, 40893, Note_on_c, 1, 43, 0
4, 40896, Note_on_c, 1, 41, 64
4, 40941, Note_on_c, 1, 41, 0
4, 40944, Note_on_c, 1, 53, 64
4, 40989, Note_on_c, 1, 53, 0
4, 41016, Note_on_c, 1, 53, 64
4, 41039, Note_on_c, 1, 53, 0
4, 41040, Note_on_c, 1, 51, 64
4, 41063, Note_on_c, 1, 51, 0
4, 41064, Note_on_c, 1, 53, 64
4, 41087, Note_on_c, 1, 53, 0
4, 41088, Note_on_c, 1, 50, 64
4, 41111, Note_on_c, 1, 50, 0
4, 41112, Note_on_c, 1, 51, 64
4, 41135, Note_on_c, 1, 51, 0
4, 41136, Note_on_c, 1, 53, 64
4, 41159, Note_on_c, 1, 53, 0
4, 41160, Note_on_c, 1, 50, 64
4, 41183, Note_on_c, 1, 50, 0
4, 41184, Note_on_c, 1, 48, 64
4, 41207, Note_on_c, 1, 48, 0
4, 41208, Note_on_c, 1, 47, 64
4, 41231, Note_on_c, 1, 47, 0
4, 41232, Note_on_c, 1, 45, 64
4, 41255, Note_on_c, 1, 45, 0
4, 41256, Note_on_c, 1, 43, 64
4, 41279, Note_on_c, 1, 43, 0
4, 41280, Note_on_c, 1, 48, 64
4, 41325, Note_on_c, 1, 48, 0
4, 41328, Note_on_c, 1, 41, 64
4, 41373, Note_on_c, 1, 41, 0
4, 41376, Note_on_c, 1, 43, 64
4, 41421, Note_on_c, 1, 43, 0
4, 41424, Note_on_c, 1, 43, 64
4, 41469, Note_on_c, 1, 43, 0
4, 41472, Note_on_c, 1, 36, 64
4, 41826, Note_on_c, 1, 36, 0
4, 41826, End_track
5, 0, Start_track
5, 0, MIDI_port, 0
5, 0, Title_t, "Sonata No. 4 en C menor"
5, 0, End_track
6, 0, Start_track
6, 0, MIDI_port, 0
6, 0, Title_t, "para violin y Clavicembalo"
6, 0, End_track
7, 0, Start_track
7, 0, MIDI_port, 0
7, 0, Title_t, "Segundo Mov. Allegro"
7, 0, End_track
8, 0, Start_track
8, 0, MIDI_port, 0
8, 0, Title_t, "J. S. Bach (1685-1750)"
8, 0, End_track
9, 0, Start_track
9, 0, MIDI_port, 0
9, 0, Title_t, "Copyright Luis Gerardo Barajas"
9, 0, End_track
10, 0, Start_track
10, 0, MIDI_port, 0
10, 0, Title_t, "Bach Keeps RuLiNg"
10, 0, End_track
11, 0, Start_track
11, 0, MIDI_port, 0
11, 0, End_track
0, 0, End_of_file
