0, 0, Header, 1, 11, 96
1, 0, Start_track
1, 0, Sequencer_specific, 3, 0, 0, 65
1, 0, Time_signature, 3, 3, 12, 8
1, 0, Key_signature, -4, "major"
1, 0, Tempo, 666667
1, 20912, Tempo, 652174
1, 20920, Tempo, 659341
1, 20924, Tempo, 666667
1, 20928, Tempo, 674157
1, 20932, Tempo, 681818
1, 20936, Tempo, 689655
1, 20940, Tempo, 697674
1, 20944, Tempo, 705882
1, 20948, Tempo, 714286
1, 20952, Tempo, 722892
1, 20956, Tempo, 731707
1, 20960, Tempo, 740741
1, 20964, Tempo, 750000
1, 20968, Tempo, 759494
1, 20972, Tempo, 769231
1, 20976, Tempo, 779221
1, 20980, Tempo, 789474
1, 20988, Tempo, 800000
1, 20992, Tempo, 810811
1, 20996, Tempo, 821918
1, 21000, Tempo, 833333
1, 21004, Tempo, 845070
1, 21008, Tempo, 857143
1, 21012, Tempo, 869565
1, 21016, Tempo, 882353
1, 21020, Tempo, 895522
1, 21024, Tempo, 909091
1, 21028, Tempo, 923077
1, 21032, Tempo, 937500
1, 21036, Tempo, 952381
1, 21040, Tempo, 967742
1, 21044, Tempo, 983607
1, 21048, Tempo, 1000000
1, 21052, Tempo, 1016949
1, 21060, Tempo, 1034483
1, 21064, Tempo, 1052632
1, 21068, Tempo, 1071429
1, 21072, Tempo, 1090909
1, 21076, Tempo, 1111111
1, 21080, Tempo, 1132075
1, 21084, Tempo, 1153846
1, 21088, Tempo, 1176471
1, 21092, Tempo, 1200000
1, 21096, Tempo, 1224490
1, 21100, Tempo, 1250000
1, 21104, Tempo, 1276596
1, 21108, Tempo, 1304348
1, 21112, Tempo, 1333333
1, 21116, Tempo, 1363636
1, 21120, Tempo, 1395349
1, 21128, Tempo, 1428571
1, 21132, Tempo, 1463415
1, 21136, Tempo, 1500000
1, 21140, Tempo, 1538462
1, 21144, Tempo, 1578947
1, 21148, Tempo, 1621622
1, 21152, Tempo, 1666667
1, 21156, Tempo, 1714286
1, 21160, Tempo, 1764706
1, 21164, Tempo, 1818182
1, 21168, Tempo, 1875000
1, 21172, Tempo, 1935484
1, 21176, Tempo, 2000000
1, 21180, Tempo, 2068966
1, 21184, Tempo, 2142857
1, 21188, Tempo, 2222222
1, 21192, Tempo, 2307692
1, 21200, Tempo, 2400000
1, 21204, Tempo, 2500000
1, 21208, Tempo, 2608696
1, 21212, Tempo, 2727273
1, 21216, Tempo, 500000
1, 21216, End_track
2, 0, Start_track
2, 0, MIDI_port, 0
2, 0, Title_t, "Violin"
2, 0, Program_c, 1, 40
2, 0, Control_c, 1, 7, 127
2, 48, Note_on_c, 1, 72, 64
2, 93, Note_on_c, 1, 72, 0
2, 96, Note_on_c, 1, 73, 64
2, 189, Note_on_c, 1, 73, 0
2, 192, Note_on_c, 1, 74, 64
2, 237, Note_on_c, 1, 74, 0
2, 240, Note_on_c, 1, 75, 64
2, 333, Note_on_c, 1, 75, 0
2, 336, Note_on_c, 1, 76, 64
2, 381, Note_on_c, 1, 76, 0
2, 384, Note_on_c, 1, 77, 64
2, 455, Note_on_c, 1, 77, 0
2, 456, Note_on_c, 1, 79, 64
2, 479, Note_on_c, 1, 79, 0
2, 480, Note_on_c, 1, 79, 64
2, 492, Note_on_c, 1, 79, 0
2, 492, Note_on_c, 1, 80, 64
2, 504, Note_on_c, 1, 80, 0
2, 504, Note_on_c, 1, 79, 64
2, 516, Note_on_c, 1, 79, 0
2, 516, Note_on_c, 1, 80, 64
2, 528, Note_on_c, 1, 80, 0
2, 528, Note_on_c, 1, 79, 64
2, 540, Note_on_c, 1, 79, 0
2, 540, Note_on_c, 1, 80, 64
2, 552, Note_on_c, 1, 80, 0
2, 552, Note_on_c, 1, 77, 64
2, 564, Note_on_c, 1, 77, 0
2, 564, Note_on_c, 1, 79, 64
2, 576, Note_on_c, 1, 79, 0
2, 576, Note_on_c, 1, 80, 64
2, 643, Note_on_c, 1, 80, 0
2, 648, Note_on_c, 1, 85, 64
2, 671, Note_on_c, 1, 85, 0
2, 672, Note_on_c, 1, 84, 64
2, 695, Note_on_c, 1, 84, 0
2, 696, Note_on_c, 1, 82, 64
2, 719, Note_on_c, 1, 82, 0
2, 720, Note_on_c, 1, 80, 64
2, 743, Note_on_c, 1, 80, 0
2, 744, Note_on_c, 1, 79, 64
2, 767, Note_on_c, 1, 79, 0
2, 768, Note_on_c, 1, 77, 64
2, 791, Note_on_c, 1, 77, 0
2, 792, Note_on_c, 1, 75, 64
2, 815, Note_on_c, 1, 75, 0
2, 816, Note_on_c, 1, 74, 64
2, 839, Note_on_c, 1, 74, 0
2, 840, Note_on_c, 1, 72, 64
2, 863, Note_on_c, 1, 72, 0
2, 864, Note_on_c, 1, 70, 64
2, 887, Note_on_c, 1, 70, 0
2, 888, Note_on_c, 1, 68, 64
2, 911, Note_on_c, 1, 68, 0
2, 912, Note_on_c, 1, 67, 64
2, 935, Note_on_c, 1, 67, 0
2, 936, Note_on_c, 1, 65, 64
2, 959, Note_on_c, 1, 65, 0
2, 960, Note_on_c, 1, 63, 64
2, 983, Note_on_c, 1, 63, 0
2, 984, Note_on_c, 1, 62, 64
2, 1007, Note_on_c, 1, 62, 0
2, 1008, Note_on_c, 1, 60, 64
2, 1053, Note_on_c, 1, 60, 0
2, 1056, Note_on_c, 1, 72, 64
2, 1101, Note_on_c, 1, 72, 0
2, 1104, Note_on_c, 1, 71, 64
2, 1149, Note_on_c, 1, 71, 0
2, 1152, Note_on_c, 1, 72, 64
2, 1197, Note_on_c, 1, 72, 0
2, 1200, Note_on_c, 1, 84, 64
2, 1223, Note_on_c, 1, 84, 0
2, 1224, Note_on_c, 1, 82, 64
2, 1247, Note_on_c, 1, 82, 0
2, 1248, Note_on_c, 1, 84, 64
2, 1341, Note_on_c, 1, 84, 0
2, 1344, Note_on_c, 1, 82, 64
2, 1367, Note_on_c, 1, 82, 0
2, 1368, Note_on_c, 1, 80, 64
2, 1391, Note_on_c, 1, 80, 0
2, 1392, Note_on_c, 1, 82, 64
2, 1485, Note_on_c, 1, 82, 0
2, 1488, Note_on_c, 1, 80, 64
2, 1533, Note_on_c, 1, 80, 0
2, 1536, Note_on_c, 1, 70, 64
2, 1629, Note_on_c, 1, 70, 0
2, 1632, Note_on_c, 1, 76, 64
2, 1677, Note_on_c, 1, 76, 0
2, 1680, Note_on_c, 1, 79, 64
2, 1751, Note_on_c, 1, 79, 0
2, 1752, Note_on_c, 1, 73, 64
2, 1775, Note_on_c, 1, 73, 0
2, 1776, Note_on_c, 1, 72, 64
2, 1799, Note_on_c, 1, 72, 0
2, 1800, Note_on_c, 1, 70, 64
2, 1823, Note_on_c, 1, 70, 0
2, 1824, Note_on_c, 1, 68, 64
2, 1847, Note_on_c, 1, 68, 0
2, 1848, Note_on_c, 1, 67, 64
2, 1871, Note_on_c, 1, 67, 0
2, 1872, Note_on_c, 1, 65, 64
2, 1939, Note_on_c, 1, 65, 0
2, 1944, Note_on_c, 1, 72, 64
2, 1967, Note_on_c, 1, 72, 0
2, 1968, Note_on_c, 1, 70, 64
2, 1991, Note_on_c, 1, 70, 0
2, 1992, Note_on_c, 1, 68, 64
2, 2015, Note_on_c, 1, 68, 0
2, 2016, Note_on_c, 1, 67, 64
2, 2083, Note_on_c, 1, 67, 0
2, 2088, Note_on_c, 1, 73, 64
2, 2111, Note_on_c, 1, 73, 0
2, 2112, Note_on_c, 1, 72, 64
2, 2135, Note_on_c, 1, 72, 0
2, 2136, Note_on_c, 1, 70, 64
2, 2159, Note_on_c, 1, 70, 0
2, 2160, Note_on_c, 1, 68, 64
2, 2184, Note_on_c, 1, 68, 0
2, 2184, Note_on_c, 1, 67, 64
2, 2207, Note_on_c, 1, 67, 0
2, 2208, Note_on_c, 1, 70, 64
2, 2232, Note_on_c, 1, 70, 0
2, 2232, Note_on_c, 1, 68, 64
2, 2255, Note_on_c, 1, 68, 0
2, 2256, Note_on_c, 1, 67, 64
2, 2280, Note_on_c, 1, 67, 0
2, 2280, Note_on_c, 1, 68, 64
2, 2303, Note_on_c, 1, 68, 0
2, 2304, Note_on_c, 1, 65, 64
2, 2327, Note_on_c, 1, 65, 0
2, 2328, Note_on_c, 1, 67, 64
2, 2351, Note_on_c, 1, 67, 0
2, 2352, Note_on_c, 1, 68, 64
2, 2375, Note_on_c, 1, 68, 0
2, 2376, Note_on_c, 1, 70, 64
2, 2399, Note_on_c, 1, 70, 0
2, 2400, Note_on_c, 1, 72, 64
2, 2423, Note_on_c, 1, 72, 0
2, 2424, Note_on_c, 1, 73, 64
2, 2447, Note_on_c, 1, 73, 0
2, 2448, Note_on_c, 1, 75, 64
2, 2615, Note_on_c, 1, 75, 0
2, 2616, Note_on_c, 1, 72, 64
2, 2639, Note_on_c, 1, 72, 0
2, 2640, Note_on_c, 1, 73, 64
2, 2663, Note_on_c, 1, 73, 0
2, 2664, Note_on_c, 1, 69, 64
2, 2687, Note_on_c, 1, 69, 0
2, 2688, Note_on_c, 1, 70, 64
2, 2711, Note_on_c, 1, 70, 0
2, 2712, Note_on_c, 1, 72, 64
2, 2735, Note_on_c, 1, 72, 0
2, 2736, Note_on_c, 1, 74, 64
2, 2759, Note_on_c, 1, 74, 0
2, 2760, Note_on_c, 1, 75, 64
2, 2783, Note_on_c, 1, 75, 0
2, 2784, Note_on_c, 1, 77, 64
2, 2807, Note_on_c, 1, 77, 0
2, 2808, Note_on_c, 1, 79, 64
2, 2831, Note_on_c, 1, 79, 0
2, 2832, Note_on_c, 1, 81, 64
2, 2855, Note_on_c, 1, 81, 0
2, 2856, Note_on_c, 1, 83, 64
2, 2879, Note_on_c, 1, 83, 0
2, 2880, Note_on_c, 1, 84, 64
2, 2925, Note_on_c, 1, 84, 0
2, 2928, Note_on_c, 1, 67, 64
2, 2973, Note_on_c, 1, 67, 0
2, 2976, Note_on_c, 1, 68, 64
2, 3069, Note_on_c, 1, 68, 0
2, 3072, Note_on_c, 1, 69, 64
2, 3117, Note_on_c, 1, 69, 0
2, 3120, Note_on_c, 1, 70, 64
2, 3213, Note_on_c, 1, 70, 0
2, 3216, Note_on_c, 1, 71, 64
2, 3261, Note_on_c, 1, 71, 0
2, 3264, Note_on_c, 1, 72, 64
2, 3335, Note_on_c, 1, 72, 0
2, 3336, Note_on_c, 1, 74, 64
2, 3359, Note_on_c, 1, 74, 0
2, 3360, Note_on_c, 1, 74, 64
2, 3372, Note_on_c, 1, 74, 0
2, 3372, Note_on_c, 1, 75, 64
2, 3384, Note_on_c, 1, 75, 0
2, 3384, Note_on_c, 1, 74, 64
2, 3396, Note_on_c, 1, 74, 0
2, 3396, Note_on_c, 1, 75, 64
2, 3408, Note_on_c, 1, 75, 0
2, 3408, Note_on_c, 1, 74, 64
2, 3420, Note_on_c, 1, 74, 0
2, 3420, Note_on_c, 1, 75, 64
2, 3432, Note_on_c, 1, 75, 0
2, 3432, Note_on_c, 1, 72, 64
2, 3444, Note_on_c, 1, 72, 0
2, 3444, Note_on_c, 1, 74, 64
2, 3456, Note_on_c, 1, 74, 0
2, 3456, Note_on_c, 1, 75, 64
2, 3523, Note_on_c, 1, 75, 0
2, 3528, Note_on_c, 1, 82, 64
2, 3551, Note_on_c, 1, 82, 0
2, 3552, Note_on_c, 1, 80, 64
2, 3575, Note_on_c, 1, 80, 0
2, 3576, Note_on_c, 1, 79, 64
2, 3599, Note_on_c, 1, 79, 0
2, 3600, Note_on_c, 1, 77, 64
2, 3667, Note_on_c, 1, 77, 0
2, 3672, Note_on_c, 1, 84, 64
2, 3695, Note_on_c, 1, 84, 0
2, 3696, Note_on_c, 1, 82, 64
2, 3719, Note_on_c, 1, 82, 0
2, 3720, Note_on_c, 1, 80, 64
2, 3743, Note_on_c, 1, 80, 0
2, 3744, Note_on_c, 1, 79, 64
2, 3811, Note_on_c, 1, 79, 0
2, 3816, Note_on_c, 1, 85, 64
2, 3839, Note_on_c, 1, 85, 0
2, 3840, Note_on_c, 1, 84, 64
2, 3863, Note_on_c, 1, 84, 0
2, 3864, Note_on_c, 1, 82, 64
2, 3887, Note_on_c, 1, 82, 0
2, 3888, Note_on_c, 1, 80, 64
2, 3912, Note_on_c, 1, 80, 0
2, 3912, Note_on_c, 1, 79, 64
2, 3935, Note_on_c, 1, 79, 0
2, 3936, Note_on_c, 1, 82, 64
2, 3960, Note_on_c, 1, 82, 0
2, 3960, Note_on_c, 1, 80, 64
2, 3983, Note_on_c, 1, 80, 0
2, 3984, Note_on_c, 1, 79, 64
2, 4008, Note_on_c, 1, 79, 0
2, 4008, Note_on_c, 1, 80, 64
2, 4031, Note_on_c, 1, 80, 0
2, 4032, Note_on_c, 1, 77, 64
2, 4055, Note_on_c, 1, 77, 0
2, 4056, Note_on_c, 1, 80, 64
2, 4079, Note_on_c, 1, 80, 0
2, 4080, Note_on_c, 1, 76, 64
2, 4103, Note_on_c, 1, 76, 0
2, 4104, Note_on_c, 1, 77, 64
2, 4127, Note_on_c, 1, 77, 0
2, 4128, Note_on_c, 1, 72, 64
2, 4199, Note_on_c, 1, 72, 0
2, 4200, Note_on_c, 1, 82, 64
2, 4223, Note_on_c, 1, 82, 0
2, 4224, Note_on_c, 1, 76, 64
2, 4247, Note_on_c, 1, 76, 0
2, 4248, Note_on_c, 1, 77, 64
2, 4271, Note_on_c, 1, 77, 0
2, 4272, Note_on_c, 1, 72, 64
2, 4343, Note_on_c, 1, 72, 0
2, 4344, Note_on_c, 1, 84, 64
2, 4367, Note_on_c, 1, 84, 0
2, 4368, Note_on_c, 1, 76, 64
2, 4391, Note_on_c, 1, 76, 0
2, 4392, Note_on_c, 1, 77, 64
2, 4415, Note_on_c, 1, 77, 0
2, 4416, Note_on_c, 1, 72, 64
2, 4487, Note_on_c, 1, 72, 0
2, 4488, Note_on_c, 1, 85, 64
2, 4511, Note_on_c, 1, 85, 0
2, 4512, Note_on_c, 1, 76, 64
2, 4535, Note_on_c, 1, 76, 0
2, 4536, Note_on_c, 1, 77, 64
2, 4559, Note_on_c, 1, 77, 0
2, 4560, Note_on_c, 1, 70, 64
2, 4583, Note_on_c, 1, 70, 0
2, 4584, Note_on_c, 1, 79, 64
2, 4607, Note_on_c, 1, 79, 0
2, 4608, Note_on_c, 1, 68, 64
2, 4653, Note_on_c, 1, 68, 0
2, 4656, Note_on_c, 1, 80, 64
2, 4775, Note_on_c, 1, 80, 0
2, 4776, Note_on_c, 1, 80, 64
2, 4799, Note_on_c, 1, 80, 0
2, 4800, Note_on_c, 1, 79, 64
2, 4823, Note_on_c, 1, 79, 0
2, 4824, Note_on_c, 1, 77, 64
2, 4847, Note_on_c, 1, 77, 0
2, 4848, Note_on_c, 1, 75, 64
2, 4871, Note_on_c, 1, 75, 0
2, 4872, Note_on_c, 1, 74, 64
2, 4895, Note_on_c, 1, 74, 0
2, 4896, Note_on_c, 1, 75, 64
2, 4941, Note_on_c, 1, 75, 0
2, 4944, Note_on_c, 1, 78, 64
2, 5063, Note_on_c, 1, 78, 0
2, 5064, Note_on_c, 1, 78, 64
2, 5087, Note_on_c, 1, 78, 0
2, 5088, Note_on_c, 1, 77, 64
2, 5111, Note_on_c, 1, 77, 0
2, 5112, Note_on_c, 1, 75, 64
2, 5135, Note_on_c, 1, 75, 0
2, 5136, Note_on_c, 1, 73, 64
2, 5159, Note_on_c, 1, 73, 0
2, 5160, Note_on_c, 1, 72, 64
2, 5183, Note_on_c, 1, 72, 0
2, 5184, Note_on_c, 1, 73, 64
2, 5229, Note_on_c, 1, 73, 0
2, 5232, Note_on_c, 1, 77, 64
2, 5351, Note_on_c, 1, 77, 0
2, 5352, Note_on_c, 1, 77, 64
2, 5375, Note_on_c, 1, 77, 0
2, 5376, Note_on_c, 1, 75, 64
2, 5399, Note_on_c, 1, 75, 0
2, 5400, Note_on_c, 1, 73, 64
2, 5423, Note_on_c, 1, 73, 0
2, 5424, Note_on_c, 1, 72, 64
2, 5447, Note_on_c, 1, 72, 0
2, 5448, Note_on_c, 1, 70, 64
2, 5471, Note_on_c, 1, 70, 0
2, 5472, Note_on_c, 1, 72, 64
2, 5539, Note_on_c, 1, 72, 0
2, 5544, Note_on_c, 1, 72, 64
2, 5567, Note_on_c, 1, 72, 0
2, 5568, Note_on_c, 1, 67, 64
2, 5591, Note_on_c, 1, 67, 0
2, 5592, Note_on_c, 1, 68, 64
2, 5615, Note_on_c, 1, 68, 0
2, 5616, Note_on_c, 1, 73, 64
2, 5683, Note_on_c, 1, 73, 0
2, 5688, Note_on_c, 1, 72, 64
2, 5711, Note_on_c, 1, 72, 0
2, 5712, Note_on_c, 1, 67, 64
2, 5735, Note_on_c, 1, 67, 0
2, 5736, Note_on_c, 1, 68, 64
2, 5759, Note_on_c, 1, 68, 0
2, 5760, Note_on_c, 1, 75, 64
2, 5827, Note_on_c, 1, 75, 0
2, 5832, Note_on_c, 1, 72, 64
2, 5855, Note_on_c, 1, 72, 0
2, 5856, Note_on_c, 1, 67, 64
2, 5879, Note_on_c, 1, 67, 0
2, 5880, Note_on_c, 1, 68, 64
2, 5903, Note_on_c, 1, 68, 0
2, 5904, Note_on_c, 1, 77, 64
2, 5949, Note_on_c, 1, 77, 0
2, 5952, Note_on_c, 1, 73, 64
2, 5997, Note_on_c, 1, 73, 0
2, 6000, Note_on_c, 1, 82, 64
2, 6093, Note_on_c, 1, 82, 0
2, 6096, Note_on_c, 1, 75, 64
2, 6141, Note_on_c, 1, 75, 0
2, 6144, Note_on_c, 1, 80, 64
2, 6237, Note_on_c, 1, 80, 0
2, 6240, Note_on_c, 1, 79, 64
2, 6263, Note_on_c, 1, 79, 0
2, 6264, Note_on_c, 1, 77, 64
2, 6287, Note_on_c, 1, 77, 0
2, 6288, Note_on_c, 1, 79, 64
2, 6381, Note_on_c, 1, 79, 0
2, 6384, Note_on_c, 1, 72, 64
2, 6429, Note_on_c, 1, 72, 0
2, 6432, Note_on_c, 1, 77, 64
2, 6525, Note_on_c, 1, 77, 0
2, 6528, Note_on_c, 1, 75, 64
2, 6551, Note_on_c, 1, 75, 0
2, 6552, Note_on_c, 1, 73, 64
2, 6575, Note_on_c, 1, 73, 0
2, 6576, Note_on_c, 1, 75, 64
2, 6669, Note_on_c, 1, 75, 0
2, 6672, Note_on_c, 1, 68, 64
2, 6717, Note_on_c, 1, 68, 0
2, 6720, Note_on_c, 1, 73, 64
2, 6813, Note_on_c, 1, 73, 0
2, 6816, Note_on_c, 1, 72, 64
2, 6839, Note_on_c, 1, 72, 0
2, 6840, Note_on_c, 1, 70, 64
2, 6863, Note_on_c, 1, 70, 0
2, 6864, Note_on_c, 1, 72, 64
2, 6887, Note_on_c, 1, 72, 0
2, 6888, Note_on_c, 1, 73, 64
2, 6911, Note_on_c, 1, 73, 0
2, 6912, Note_on_c, 1, 75, 64
2, 6935, Note_on_c, 1, 75, 0
2, 6936, Note_on_c, 1, 77, 64
2, 6959, Note_on_c, 1, 77, 0
2, 6960, Note_on_c, 1, 70, 64
2, 6983, Note_on_c, 1, 70, 0
2, 6984, Note_on_c, 1, 73, 64
2, 7007, Note_on_c, 1, 73, 0
2, 7008, Note_on_c, 1, 72, 64
2, 7031, Note_on_c, 1, 72, 0
2, 7032, Note_on_c, 1, 70, 64
2, 7055, Note_on_c, 1, 70, 0
2, 7056, Note_on_c, 1, 68, 64
2, 7079, Note_on_c, 1, 68, 0
2, 7080, Note_on_c, 1, 67, 64
2, 7103, Note_on_c, 1, 67, 0
2, 7104, Note_on_c, 1, 65, 64
2, 7127, Note_on_c, 1, 65, 0
2, 7128, Note_on_c, 1, 67, 64
2, 7151, Note_on_c, 1, 67, 0
2, 7152, Note_on_c, 1, 68, 64
2, 7175, Note_on_c, 1, 68, 0
2, 7176, Note_on_c, 1, 70, 64
2, 7199, Note_on_c, 1, 70, 0
2, 7200, Note_on_c, 1, 72, 64
2, 7223, Note_on_c, 1, 72, 0
2, 7224, Note_on_c, 1, 73, 64
2, 7247, Note_on_c, 1, 73, 0
2, 7248, Note_on_c, 1, 67, 64
2, 7271, Note_on_c, 1, 67, 0
2, 7272, Note_on_c, 1, 70, 64
2, 7295, Note_on_c, 1, 70, 0
2, 7296, Note_on_c, 1, 68, 64
2, 7319, Note_on_c, 1, 68, 0
2, 7320, Note_on_c, 1, 67, 64
2, 7343, Note_on_c, 1, 67, 0
2, 7344, Note_on_c, 1, 65, 64
2, 7433, Note_on_c, 1, 65, 0
2, 7440, Note_on_c, 1, 70, 64
2, 7485, Note_on_c, 1, 70, 0
2, 7488, Note_on_c, 1, 63, 64
2, 7577, Note_on_c, 1, 63, 0
2, 7584, Note_on_c, 1, 68, 64
2, 7629, Note_on_c, 1, 68, 0
2, 7632, Note_on_c, 1, 62, 64
2, 7721, Note_on_c, 1, 62, 0
2, 7728, Note_on_c, 1, 77, 64
2, 7799, Note_on_c, 1, 77, 0
2, 7800, Note_on_c, 1, 80, 64
2, 7823, Note_on_c, 1, 80, 0
2, 7824, Note_on_c, 1, 79, 64
2, 7847, Note_on_c, 1, 79, 0
2, 7848, Note_on_c, 1, 77, 64
2, 7871, Note_on_c, 1, 77, 0
2, 7872, Note_on_c, 1, 75, 64
2, 7895, Note_on_c, 1, 75, 0
2, 7896, Note_on_c, 1, 74, 64
2, 7919, Note_on_c, 1, 74, 0
2, 7920, Note_on_c, 1, 72, 64
2, 7987, Note_on_c, 1, 72, 0
2, 7992, Note_on_c, 1, 79, 64
2, 8015, Note_on_c, 1, 79, 0
2, 8016, Note_on_c, 1, 77, 64
2, 8039, Note_on_c, 1, 77, 0
2, 8040, Note_on_c, 1, 75, 64
2, 8063, Note_on_c, 1, 75, 0
2, 8064, Note_on_c, 1, 74, 64
2, 8131, Note_on_c, 1, 74, 0
2, 8136, Note_on_c, 1, 80, 64
2, 8159, Note_on_c, 1, 80, 0
2, 8160, Note_on_c, 1, 79, 64
2, 8183, Note_on_c, 1, 79, 0
2, 8184, Note_on_c, 1, 77, 64
2, 8207, Note_on_c, 1, 77, 0
2, 8208, Note_on_c, 1, 75, 64
2, 8232, Note_on_c, 1, 75, 0
2, 8232, Note_on_c, 1, 74, 64
2, 8255, Note_on_c, 1, 74, 0
2, 8256, Note_on_c, 1, 77, 64
2, 8280, Note_on_c, 1, 77, 0
2, 8280, Note_on_c, 1, 75, 64
2, 8303, Note_on_c, 1, 75, 0
2, 8304, Note_on_c, 1, 74, 64
2, 8328, Note_on_c, 1, 74, 0
2, 8328, Note_on_c, 1, 80, 64
2, 8351, Note_on_c, 1, 80, 0
2, 8352, Note_on_c, 1, 79, 64
2, 8376, Note_on_c, 1, 79, 0
2, 8376, Note_on_c, 1, 77, 64
2, 8399, Note_on_c, 1, 77, 0
2, 8400, Note_on_c, 1, 80, 64
2, 8424, Note_on_c, 1, 80, 0
2, 8424, Note_on_c, 1, 79, 64
2, 8447, Note_on_c, 1, 79, 0
2, 8448, Note_on_c, 1, 77, 64
2, 8472, Note_on_c, 1, 77, 0
2, 8472, Note_on_c, 1, 79, 64
2, 8495, Note_on_c, 1, 79, 0
2, 8496, Note_on_c, 1, 77, 64
2, 8520, Note_on_c, 1, 77, 0
2, 8520, Note_on_c, 1, 75, 64
2, 8543, Note_on_c, 1, 75, 0
2, 8544, Note_on_c, 1, 77, 64
2, 8568, Note_on_c, 1, 77, 0
2, 8568, Note_on_c, 1, 75, 64
2, 8591, Note_on_c, 1, 75, 0
2, 8592, Note_on_c, 1, 74, 64
2, 8616, Note_on_c, 1, 74, 0
2, 8616, Note_on_c, 1, 75, 64
2, 8639, Note_on_c, 1, 75, 0
2, 8640, Note_on_c, 1, 72, 64
2, 8729, Note_on_c, 1, 72, 0
2, 9552, Note_on_c, 1, 72, 64
2, 9597, Note_on_c, 1, 72, 0
2, 9600, Note_on_c, 1, 73, 64
2, 9693, Note_on_c, 1, 73, 0
2, 9696, Note_on_c, 1, 69, 64
2, 9741, Note_on_c, 1, 69, 0
2, 9744, Note_on_c, 1, 70, 64
2, 9837, Note_on_c, 1, 70, 0
2, 9840, Note_on_c, 1, 74, 64
2, 9885, Note_on_c, 1, 74, 0
2, 9888, Note_on_c, 1, 75, 64
2, 9981, Note_on_c, 1, 75, 0
2, 9984, Note_on_c, 1, 70, 64
2, 10029, Note_on_c, 1, 70, 0
2, 10032, Note_on_c, 1, 72, 64
2, 10125, Note_on_c, 1, 72, 0
2, 10128, Note_on_c, 1, 76, 64
2, 10173, Note_on_c, 1, 76, 0
2, 10176, Note_on_c, 1, 77, 64
2, 10247, Note_on_c, 1, 77, 0
2, 10248, Note_on_c, 1, 72, 64
2, 10271, Note_on_c, 1, 72, 0
2, 10272, Note_on_c, 1, 73, 64
2, 10295, Note_on_c, 1, 73, 0
2, 10296, Note_on_c, 1, 69, 64
2, 10319, Note_on_c, 1, 69, 0
2, 10320, Note_on_c, 1, 70, 64
2, 10343, Note_on_c, 1, 70, 0
2, 10344, Note_on_c, 1, 73, 64
2, 10367, Note_on_c, 1, 73, 0
2, 10368, Note_on_c, 1, 77, 64
2, 10391, Note_on_c, 1, 77, 0
2, 10392, Note_on_c, 1, 70, 64
2, 10415, Note_on_c, 1, 70, 0
2, 10416, Note_on_c, 1, 73, 64
2, 10439, Note_on_c, 1, 73, 0
2, 10440, Note_on_c, 1, 77, 64
2, 10463, Note_on_c, 1, 77, 0
2, 10464, Note_on_c, 1, 82, 64
2, 10487, Note_on_c, 1, 82, 0
2, 10488, Note_on_c, 1, 81, 64
2, 10512, Note_on_c, 1, 81, 0
2, 10512, Note_on_c, 1, 82, 64
2, 10535, Note_on_c, 1, 82, 0
2, 10536, Note_on_c, 1, 77, 64
2, 10559, Note_on_c, 1, 77, 0
2, 10560, Note_on_c, 1, 75, 64
2, 10583, Note_on_c, 1, 75, 0
2, 10584, Note_on_c, 1, 73, 64
2, 10607, Note_on_c, 1, 73, 0
2, 10608, Note_on_c, 1, 72, 64
2, 10631, Note_on_c, 1, 72, 0
2, 10632, Note_on_c, 1, 70, 64
2, 10655, Note_on_c, 1, 70, 0
2, 10656, Note_on_c, 1, 68, 64
2, 10679, Note_on_c, 1, 68, 0
2, 10680, Note_on_c, 1, 66, 64
2, 10703, Note_on_c, 1, 66, 0
2, 10704, Note_on_c, 1, 65, 64
2, 10727, Note_on_c, 1, 65, 0
2, 10728, Note_on_c, 1, 63, 64
2, 10751, Note_on_c, 1, 63, 0
2, 10752, Note_on_c, 1, 61, 64
2, 10775, Note_on_c, 1, 61, 0
2, 10776, Note_on_c, 1, 60, 64
2, 10799, Note_on_c, 1, 60, 0
2, 10800, Note_on_c, 1, 58, 64
2, 10845, Note_on_c, 1, 58, 0
2, 10848, Note_on_c, 1, 70, 64
2, 10893, Note_on_c, 1, 70, 0
2, 10896, Note_on_c, 1, 69, 64
2, 10941, Note_on_c, 1, 69, 0
2, 10944, Note_on_c, 1, 70, 64
2, 10967, Note_on_c, 1, 70, 0
2, 10968, Note_on_c, 1, 72, 64
2, 10991, Note_on_c, 1, 72, 0
2, 10992, Note_on_c, 1, 73, 64
2, 11015, Note_on_c, 1, 73, 0
2, 11016, Note_on_c, 1, 75, 64
2, 11039, Note_on_c, 1, 75, 0
2, 11040, Note_on_c, 1, 77, 64
2, 11063, Note_on_c, 1, 77, 0
2, 11064, Note_on_c, 1, 78, 64
2, 11087, Note_on_c, 1, 78, 0
2, 11088, Note_on_c, 1, 80, 64
2, 11255, Note_on_c, 1, 80, 0
2, 11256, Note_on_c, 1, 77, 64
2, 11279, Note_on_c, 1, 77, 0
2, 11280, Note_on_c, 1, 78, 64
2, 11303, Note_on_c, 1, 78, 0
2, 11304, Note_on_c, 1, 62, 64
2, 11327, Note_on_c, 1, 62, 0
2, 11328, Note_on_c, 1, 63, 64
2, 11351, Note_on_c, 1, 63, 0
2, 11352, Note_on_c, 1, 65, 64
2, 11375, Note_on_c, 1, 65, 0
2, 11376, Note_on_c, 1, 67, 64
2, 11399, Note_on_c, 1, 67, 0
2, 11400, Note_on_c, 1, 68, 64
2, 11423, Note_on_c, 1, 68, 0
2, 11424, Note_on_c, 1, 70, 64
2, 11447, Note_on_c, 1, 70, 0
2, 11448, Note_on_c, 1, 72, 64
2, 11471, Note_on_c, 1, 72, 0
2, 11472, Note_on_c, 1, 74, 64
2, 11495, Note_on_c, 1, 74, 0
2, 11496, Note_on_c, 1, 76, 64
2, 11519, Note_on_c, 1, 76, 0
2, 11520, Note_on_c, 1, 77, 64
2, 11565, Note_on_c, 1, 77, 0
2, 11568, Note_on_c, 1, 60, 64
2, 11613, Note_on_c, 1, 60, 0
2, 11616, Note_on_c, 1, 61, 64
2, 11709, Note_on_c, 1, 61, 0
2, 11712, Note_on_c, 1, 62, 64
2, 11757, Note_on_c, 1, 62, 0
2, 11760, Note_on_c, 1, 63, 64
2, 11853, Note_on_c, 1, 63, 0
2, 11856, Note_on_c, 1, 64, 64
2, 11901, Note_on_c, 1, 64, 0
2, 11904, Note_on_c, 1, 65, 64
2, 11975, Note_on_c, 1, 65, 0
2, 11976, Note_on_c, 1, 67, 64
2, 11999, Note_on_c, 1, 67, 0
2, 12000, Note_on_c, 1, 67, 64
2, 12012, Note_on_c, 1, 67, 0
2, 12012, Note_on_c, 1, 68, 64
2, 12024, Note_on_c, 1, 68, 0
2, 12024, Note_on_c, 1, 67, 64
2, 12036, Note_on_c, 1, 67, 0
2, 12036, Note_on_c, 1, 68, 64
2, 12048, Note_on_c, 1, 68, 0
2, 12048, Note_on_c, 1, 67, 64
2, 12060, Note_on_c, 1, 67, 0
2, 12060, Note_on_c, 1, 68, 64
2, 12072, Note_on_c, 1, 68, 0
2, 12072, Note_on_c, 1, 65, 64
2, 12084, Note_on_c, 1, 65, 0
2, 12084, Note_on_c, 1, 67, 64
2, 12096, Note_on_c, 1, 67, 0
2, 12096, Note_on_c, 1, 68, 64
2, 12163, Note_on_c, 1, 68, 0
2, 12168, Note_on_c, 1, 77, 64
2, 12191, Note_on_c, 1, 77, 0
2, 12192, Note_on_c, 1, 75, 64
2, 12215, Note_on_c, 1, 75, 0
2, 12216, Note_on_c, 1, 73, 64
2, 12239, Note_on_c, 1, 73, 0
2, 12240, Note_on_c, 1, 72, 64
2, 12307, Note_on_c, 1, 72, 0
2, 12312, Note_on_c, 1, 79, 64
2, 12335, Note_on_c, 1, 79, 0
2, 12336, Note_on_c, 1, 77, 64
2, 12359, Note_on_c, 1, 77, 0
2, 12360, Note_on_c, 1, 75, 64
2, 12383, Note_on_c, 1, 75, 0
2, 12384, Note_on_c, 1, 74, 64
2, 12451, Note_on_c, 1, 74, 0
2, 12456, Note_on_c, 1, 80, 64
2, 12479, Note_on_c, 1, 80, 0
2, 12480, Note_on_c, 1, 79, 64
2, 12503, Note_on_c, 1, 79, 0
2, 12504, Note_on_c, 1, 77, 64
2, 12527, Note_on_c, 1, 77, 0
2, 12528, Note_on_c, 1, 75, 64
2, 12552, Note_on_c, 1, 75, 0
2, 12552, Note_on_c, 1, 74, 64
2, 12575, Note_on_c, 1, 74, 0
2, 12576, Note_on_c, 1, 77, 64
2, 12599, Note_on_c, 1, 77, 0
2, 12600, Note_on_c, 1, 75, 64
2, 12623, Note_on_c, 1, 75, 0
2, 12624, Note_on_c, 1, 74, 64
2, 12647, Note_on_c, 1, 74, 0
2, 12648, Note_on_c, 1, 75, 64
2, 12671, Note_on_c, 1, 75, 0
2, 12672, Note_on_c, 1, 72, 64
2, 12695, Note_on_c, 1, 72, 0
2, 12696, Note_on_c, 1, 75, 64
2, 12719, Note_on_c, 1, 75, 0
2, 12720, Note_on_c, 1, 71, 64
2, 12743, Note_on_c, 1, 71, 0
2, 12744, Note_on_c, 1, 72, 64
2, 12767, Note_on_c, 1, 72, 0
2, 12768, Note_on_c, 1, 67, 64
2, 12839, Note_on_c, 1, 67, 0
2, 12840, Note_on_c, 1, 77, 64
2, 12863, Note_on_c, 1, 77, 0
2, 12864, Note_on_c, 1, 71, 64
2, 12887, Note_on_c, 1, 71, 0
2, 12888, Note_on_c, 1, 72, 64
2, 12911, Note_on_c, 1, 72, 0
2, 12912, Note_on_c, 1, 67, 64
2, 12983, Note_on_c, 1, 67, 0
2, 12984, Note_on_c, 1, 79, 64
2, 13007, Note_on_c, 1, 79, 0
2, 13008, Note_on_c, 1, 71, 64
2, 13031, Note_on_c, 1, 71, 0
2, 13032, Note_on_c, 1, 72, 64
2, 13055, Note_on_c, 1, 72, 0
2, 13056, Note_on_c, 1, 67, 64
2, 13127, Note_on_c, 1, 67, 0
2, 13128, Note_on_c, 1, 80, 64
2, 13151, Note_on_c, 1, 80, 0
2, 13152, Note_on_c, 1, 71, 64
2, 13175, Note_on_c, 1, 71, 0
2, 13176, Note_on_c, 1, 72, 64
2, 13199, Note_on_c, 1, 72, 0
2, 13200, Note_on_c, 1, 65, 64
2, 13223, Note_on_c, 1, 65, 0
2, 13224, Note_on_c, 1, 74, 64
2, 13247, Note_on_c, 1, 74, 0
2, 13248, Note_on_c, 1, 63, 64
2, 13293, Note_on_c, 1, 63, 0
2, 13296, Note_on_c, 1, 75, 64
2, 13415, Note_on_c, 1, 75, 0
2, 13416, Note_on_c, 1, 75, 64
2, 13439, Note_on_c, 1, 75, 0
2, 13440, Note_on_c, 1, 74, 64
2, 13463, Note_on_c, 1, 74, 0
2, 13464, Note_on_c, 1, 72, 64
2, 13487, Note_on_c, 1, 72, 0
2, 13488, Note_on_c, 1, 70, 64
2, 13511, Note_on_c, 1, 70, 0
2, 13512, Note_on_c, 1, 69, 64
2, 13535, Note_on_c, 1, 69, 0
2, 13536, Note_on_c, 1, 70, 64
2, 13581, Note_on_c, 1, 70, 0
2, 13584, Note_on_c, 1, 73, 64
2, 13703, Note_on_c, 1, 73, 0
2, 13704, Note_on_c, 1, 73, 64
2, 13727, Note_on_c, 1, 73, 0
2, 13728, Note_on_c, 1, 72, 64
2, 13751, Note_on_c, 1, 72, 0
2, 13752, Note_on_c, 1, 70, 64
2, 13775, Note_on_c, 1, 70, 0
2, 13776, Note_on_c, 1, 68, 64
2, 13799, Note_on_c, 1, 68, 0
2, 13800, Note_on_c, 1, 67, 64
2, 13823, Note_on_c, 1, 67, 0
2, 13824, Note_on_c, 1, 68, 64
2, 13869, Note_on_c, 1, 68, 0
2, 13872, Note_on_c, 1, 72, 64
2, 13991, Note_on_c, 1, 72, 0
2, 13992, Note_on_c, 1, 72, 64
2, 14015, Note_on_c, 1, 72, 0
2, 14016, Note_on_c, 1, 70, 64
2, 14039, Note_on_c, 1, 70, 0
2, 14040, Note_on_c, 1, 68, 64
2, 14063, Note_on_c, 1, 68, 0
2, 14064, Note_on_c, 1, 67, 64
2, 14087, Note_on_c, 1, 67, 0
2, 14088, Note_on_c, 1, 65, 64
2, 14111, Note_on_c, 1, 65, 0
2, 14112, Note_on_c, 1, 67, 64
2, 14179, Note_on_c, 1, 67, 0
2, 14184, Note_on_c, 1, 79, 64
2, 14207, Note_on_c, 1, 79, 0
2, 14208, Note_on_c, 1, 74, 64
2, 14231, Note_on_c, 1, 74, 0
2, 14232, Note_on_c, 1, 75, 64
2, 14255, Note_on_c, 1, 75, 0
2, 14256, Note_on_c, 1, 80, 64
2, 14323, Note_on_c, 1, 80, 0
2, 14328, Note_on_c, 1, 79, 64
2, 14351, Note_on_c, 1, 79, 0
2, 14352, Note_on_c, 1, 74, 64
2, 14375, Note_on_c, 1, 74, 0
2, 14376, Note_on_c, 1, 75, 64
2, 14399, Note_on_c, 1, 75, 0
2, 14400, Note_on_c, 1, 82, 64
2, 14467, Note_on_c, 1, 82, 0
2, 14472, Note_on_c, 1, 79, 64
2, 14495, Note_on_c, 1, 79, 0
2, 14496, Note_on_c, 1, 74, 64
2, 14519, Note_on_c, 1, 74, 0
2, 14520, Note_on_c, 1, 75, 64
2, 14543, Note_on_c, 1, 75, 0
2, 14544, Note_on_c, 1, 84, 64
2, 14589, Note_on_c, 1, 84, 0
2, 14592, Note_on_c, 1, 80, 64
2, 14637, Note_on_c, 1, 80, 0
2, 14640, Note_on_c, 1, 77, 64
2, 14733, Note_on_c, 1, 77, 0
2, 14736, Note_on_c, 1, 70, 64
2, 14781, Note_on_c, 1, 70, 0
2, 14784, Note_on_c, 1, 75, 64
2, 14877, Note_on_c, 1, 75, 0
2, 14880, Note_on_c, 1, 74, 64
2, 14903, Note_on_c, 1, 74, 0
2, 14904, Note_on_c, 1, 72, 64
2, 14927, Note_on_c, 1, 72, 0
2, 14928, Note_on_c, 1, 74, 64
2, 14951, Note_on_c, 1, 74, 0
2, 14952, Note_on_c, 1, 79, 64
2, 14975, Note_on_c, 1, 79, 0
2, 14976, Note_on_c, 1, 72, 64
2, 14999, Note_on_c, 1, 72, 0
2, 15000, Note_on_c, 1, 70, 64
2, 15023, Note_on_c, 1, 70, 0
2, 15024, Note_on_c, 1, 72, 64
2, 15069, Note_on_c, 1, 72, 0
2, 15072, Note_on_c, 1, 77, 64
2, 15165, Note_on_c, 1, 77, 0
2, 15168, Note_on_c, 1, 75, 64
2, 15191, Note_on_c, 1, 75, 0
2, 15192, Note_on_c, 1, 74, 64
2, 15215, Note_on_c, 1, 74, 0
2, 15216, Note_on_c, 1, 75, 64
2, 15239, Note_on_c, 1, 75, 0
2, 15240, Note_on_c, 1, 80, 64
2, 15263, Note_on_c, 1, 80, 0
2, 15264, Note_on_c, 1, 74, 64
2, 15287, Note_on_c, 1, 74, 0
2, 15288, Note_on_c, 1, 72, 64
2, 15311, Note_on_c, 1, 72, 0
2, 15312, Note_on_c, 1, 74, 64
2, 15357, Note_on_c, 1, 74, 0
2, 15360, Note_on_c, 1, 79, 64
2, 15453, Note_on_c, 1, 79, 0
2, 15456, Note_on_c, 1, 77, 64
2, 15479, Note_on_c, 1, 77, 0
2, 15480, Note_on_c, 1, 75, 64
2, 15503, Note_on_c, 1, 75, 0
2, 15504, Note_on_c, 1, 77, 64
2, 15597, Note_on_c, 1, 77, 0
2, 15600, Note_on_c, 1, 75, 64
2, 15623, Note_on_c, 1, 75, 0
2, 15624, Note_on_c, 1, 74, 64
2, 15647, Note_on_c, 1, 74, 0
2, 15648, Note_on_c, 1, 75, 64
2, 15693, Note_on_c, 1, 75, 0
2, 15696, Note_on_c, 1, 75, 64
2, 15719, Note_on_c, 1, 75, 0
2, 15720, Note_on_c, 1, 74, 64
2, 15743, Note_on_c, 1, 74, 0
2, 15744, Note_on_c, 1, 77, 64
2, 15767, Note_on_c, 1, 77, 0
2, 15768, Note_on_c, 1, 75, 64
2, 15791, Note_on_c, 1, 75, 0
2, 15792, Note_on_c, 1, 74, 64
2, 15815, Note_on_c, 1, 74, 0
2, 15816, Note_on_c, 1, 72, 64
2, 15839, Note_on_c, 1, 72, 0
2, 15840, Note_on_c, 1, 71, 64
2, 15885, Note_on_c, 1, 71, 0
2, 15888, Note_on_c, 1, 74, 64
2, 15933, Note_on_c, 1, 74, 0
2, 15936, Note_on_c, 1, 75, 64
2, 16029, Note_on_c, 1, 75, 0
2, 16032, Note_on_c, 1, 71, 64
2, 16077, Note_on_c, 1, 71, 0
2, 16080, Note_on_c, 1, 72, 64
2, 16173, Note_on_c, 1, 72, 0
2, 16176, Note_on_c, 1, 76, 64
2, 16221, Note_on_c, 1, 76, 0
2, 16224, Note_on_c, 1, 77, 64
2, 16317, Note_on_c, 1, 77, 0
2, 16320, Note_on_c, 1, 72, 64
2, 16365, Note_on_c, 1, 72, 0
2, 16368, Note_on_c, 1, 74, 64
2, 16461, Note_on_c, 1, 74, 0
2, 16464, Note_on_c, 1, 78, 64
2, 16509, Note_on_c, 1, 78, 0
2, 16512, Note_on_c, 1, 79, 64
2, 16583, Note_on_c, 1, 79, 0
2, 16584, Note_on_c, 1, 74, 64
2, 16607, Note_on_c, 1, 74, 0
2, 16608, Note_on_c, 1, 75, 64
2, 16631, Note_on_c, 1, 75, 0
2, 16632, Note_on_c, 1, 71, 64
2, 16655, Note_on_c, 1, 71, 0
2, 16656, Note_on_c, 1, 72, 64
2, 16679, Note_on_c, 1, 72, 0
2, 16680, Note_on_c, 1, 75, 64
2, 16703, Note_on_c, 1, 75, 0
2, 16704, Note_on_c, 1, 79, 64
2, 16727, Note_on_c, 1, 79, 0
2, 16728, Note_on_c, 1, 72, 64
2, 16751, Note_on_c, 1, 72, 0
2, 16752, Note_on_c, 1, 76, 64
2, 16775, Note_on_c, 1, 76, 0
2, 16776, Note_on_c, 1, 79, 64
2, 16799, Note_on_c, 1, 79, 0
2, 16800, Note_on_c, 1, 84, 64
2, 16871, Note_on_c, 1, 84, 0
2, 16872, Note_on_c, 1, 82, 64
2, 16895, Note_on_c, 1, 82, 0
2, 16896, Note_on_c, 1, 85, 64
2, 16920, Note_on_c, 1, 85, 0
2, 16920, Note_on_c, 1, 84, 64
2, 16943, Note_on_c, 1, 84, 0
2, 16944, Note_on_c, 1, 82, 64
2, 16968, Note_on_c, 1, 82, 0
2, 16968, Note_on_c, 1, 81, 64
2, 16991, Note_on_c, 1, 81, 0
2, 16992, Note_on_c, 1, 82, 64
2, 17059, Note_on_c, 1, 82, 0
2, 17064, Note_on_c, 1, 77, 64
2, 17087, Note_on_c, 1, 77, 0
2, 17088, Note_on_c, 1, 79, 64
2, 17111, Note_on_c, 1, 79, 0
2, 17112, Note_on_c, 1, 80, 64
2, 17135, Note_on_c, 1, 80, 0
2, 17136, Note_on_c, 1, 79, 64
2, 17159, Note_on_c, 1, 79, 0
2, 17160, Note_on_c, 1, 82, 64
2, 17183, Note_on_c, 1, 82, 0
2, 17184, Note_on_c, 1, 80, 64
2, 17207, Note_on_c, 1, 80, 0
2, 17208, Note_on_c, 1, 79, 64
2, 17231, Note_on_c, 1, 79, 0
2, 17232, Note_on_c, 1, 77, 64
2, 17255, Note_on_c, 1, 77, 0
2, 17256, Note_on_c, 1, 75, 64
2, 17279, Note_on_c, 1, 75, 0
2, 17280, Note_on_c, 1, 73, 64
2, 17304, Note_on_c, 1, 73, 0
2, 17304, Note_on_c, 1, 72, 64
2, 17327, Note_on_c, 1, 72, 0
2, 17328, Note_on_c, 1, 80, 64
2, 17351, Note_on_c, 1, 80, 0
2, 17352, Note_on_c, 1, 79, 64
2, 17375, Note_on_c, 1, 79, 0
2, 17376, Note_on_c, 1, 77, 64
2, 17399, Note_on_c, 1, 77, 0
2, 17400, Note_on_c, 1, 79, 64
2, 17423, Note_on_c, 1, 79, 0
2, 17424, Note_on_c, 1, 80, 64
2, 17591, Note_on_c, 1, 80, 0
2, 17592, Note_on_c, 1, 73, 64
2, 17615, Note_on_c, 1, 73, 0
2, 17616, Note_on_c, 1, 72, 64
2, 17639, Note_on_c, 1, 72, 0
2, 17640, Note_on_c, 1, 70, 64
2, 17663, Note_on_c, 1, 70, 0
2, 17664, Note_on_c, 1, 68, 64
2, 17687, Note_on_c, 1, 68, 0
2, 17688, Note_on_c, 1, 67, 64
2, 17711, Note_on_c, 1, 67, 0
2, 17712, Note_on_c, 1, 65, 64
2, 17779, Note_on_c, 1, 65, 0
2, 17784, Note_on_c, 1, 72, 64
2, 17807, Note_on_c, 1, 72, 0
2, 17808, Note_on_c, 1, 70, 64
2, 17831, Note_on_c, 1, 70, 0
2, 17832, Note_on_c, 1, 68, 64
2, 17855, Note_on_c, 1, 68, 0
2, 17856, Note_on_c, 1, 67, 64
2, 17901, Note_on_c, 1, 67, 0
2, 17904, Note_on_c, 1, 72, 64
2, 17949, Note_on_c, 1, 72, 0
2, 17952, Note_on_c, 1, 73, 64
2, 18045, Note_on_c, 1, 73, 0
2, 18048, Note_on_c, 1, 74, 64
2, 18093, Note_on_c, 1, 74, 0
2, 18096, Note_on_c, 1, 75, 64
2, 18189, Note_on_c, 1, 75, 0
2, 18192, Note_on_c, 1, 76, 64
2, 18237, Note_on_c, 1, 76, 0
2, 18240, Note_on_c, 1, 77, 64
2, 18333, Note_on_c, 1, 77, 0
2, 18336, Note_on_c, 1, 77, 64
2, 18348, Note_on_c, 1, 77, 0
2, 18348, Note_on_c, 1, 78, 64
2, 18360, Note_on_c, 1, 78, 0
2, 18360, Note_on_c, 1, 77, 64
2, 18372, Note_on_c, 1, 77, 0
2, 18372, Note_on_c, 1, 78, 64
2, 18384, Note_on_c, 1, 78, 0
2, 18384, Note_on_c, 1, 77, 64
2, 18396, Note_on_c, 1, 77, 0
2, 18396, Note_on_c, 1, 78, 64
2, 18408, Note_on_c, 1, 78, 0
2, 18408, Note_on_c, 1, 75, 64
2, 18420, Note_on_c, 1, 75, 0
2, 18420, Note_on_c, 1, 77, 64
2, 18432, Note_on_c, 1, 77, 0
2, 18432, Note_on_c, 1, 78, 64
2, 18499, Note_on_c, 1, 78, 0
2, 18504, Note_on_c, 1, 77, 64
2, 18527, Note_on_c, 1, 77, 0
2, 18528, Note_on_c, 1, 76, 64
2, 18551, Note_on_c, 1, 76, 0
2, 18552, Note_on_c, 1, 77, 64
2, 18575, Note_on_c, 1, 77, 0
2, 18576, Note_on_c, 1, 76, 64
2, 18765, Note_on_c, 1, 76, 0
2, 18768, Note_on_c, 1, 72, 64
2, 18813, Note_on_c, 1, 72, 0
2, 18816, Note_on_c, 1, 80, 64
2, 18909, Note_on_c, 1, 80, 0
2, 18912, Note_on_c, 1, 79, 64
2, 18935, Note_on_c, 1, 79, 0
2, 18936, Note_on_c, 1, 77, 64
2, 18959, Note_on_c, 1, 77, 0
2, 18960, Note_on_c, 1, 79, 64
2, 19053, Note_on_c, 1, 79, 0
2, 19056, Note_on_c, 1, 72, 64
2, 19101, Note_on_c, 1, 72, 0
2, 19104, Note_on_c, 1, 77, 64
2, 19197, Note_on_c, 1, 77, 0
2, 19200, Note_on_c, 1, 75, 64
2, 19223, Note_on_c, 1, 75, 0
2, 19224, Note_on_c, 1, 73, 64
2, 19247, Note_on_c, 1, 73, 0
2, 19248, Note_on_c, 1, 75, 64
2, 19341, Note_on_c, 1, 75, 0
2, 19344, Note_on_c, 1, 68, 64
2, 19389, Note_on_c, 1, 68, 0
2, 19392, Note_on_c, 1, 73, 64
2, 19485, Note_on_c, 1, 73, 0
2, 19488, Note_on_c, 1, 72, 64
2, 19511, Note_on_c, 1, 72, 0
2, 19512, Note_on_c, 1, 70, 64
2, 19535, Note_on_c, 1, 70, 0
2, 19536, Note_on_c, 1, 72, 64
2, 19629, Note_on_c, 1, 72, 0
2, 19632, Note_on_c, 1, 65, 64
2, 19677, Note_on_c, 1, 65, 0
2, 19680, Note_on_c, 1, 70, 64
2, 19773, Note_on_c, 1, 70, 0
2, 19776, Note_on_c, 1, 68, 64
2, 19799, Note_on_c, 1, 68, 0
2, 19800, Note_on_c, 1, 67, 64
2, 19823, Note_on_c, 1, 67, 0
2, 19824, Note_on_c, 1, 68, 64
2, 19847, Note_on_c, 1, 68, 0
2, 19848, Note_on_c, 1, 70, 64
2, 19871, Note_on_c, 1, 70, 0
2, 19872, Note_on_c, 1, 72, 64
2, 19895, Note_on_c, 1, 72, 0
2, 19896, Note_on_c, 1, 73, 64
2, 19919, Note_on_c, 1, 73, 0
2, 19920, Note_on_c, 1, 72, 64
2, 19943, Note_on_c, 1, 72, 0
2, 19944, Note_on_c, 1, 70, 64
2, 19967, Note_on_c, 1, 70, 0
2, 19968, Note_on_c, 1, 68, 64
2, 19991, Note_on_c, 1, 68, 0
2, 19992, Note_on_c, 1, 67, 64
2, 20015, Note_on_c, 1, 67, 0
2, 20016, Note_on_c, 1, 68, 64
2, 20083, Note_on_c, 1, 68, 0
2, 20088, Note_on_c, 1, 80, 64
2, 20111, Note_on_c, 1, 80, 0
2, 20112, Note_on_c, 1, 76, 64
2, 20135, Note_on_c, 1, 76, 0
2, 20136, Note_on_c, 1, 77, 64
2, 20159, Note_on_c, 1, 77, 0
2, 20160, Note_on_c, 1, 82, 64
2, 20227, Note_on_c, 1, 82, 0
2, 20232, Note_on_c, 1, 80, 64
2, 20255, Note_on_c, 1, 80, 0
2, 20256, Note_on_c, 1, 76, 64
2, 20279, Note_on_c, 1, 76, 0
2, 20280, Note_on_c, 1, 77, 64
2, 20303, Note_on_c, 1, 77, 0
2, 20304, Note_on_c, 1, 84, 64
2, 20371, Note_on_c, 1, 84, 0
2, 20376, Note_on_c, 1, 80, 64
2, 20399, Note_on_c, 1, 80, 0
2, 20400, Note_on_c, 1, 76, 64
2, 20423, Note_on_c, 1, 76, 0
2, 20424, Note_on_c, 1, 77, 64
2, 20447, Note_on_c, 1, 77, 0
2, 20448, Note_on_c, 1, 85, 64
2, 20493, Note_on_c, 1, 85, 0
2, 20496, Note_on_c, 1, 82, 64
2, 20541, Note_on_c, 1, 82, 0
2, 20544, Note_on_c, 1, 79, 64
2, 20615, Note_on_c, 1, 79, 0
2, 20616, Note_on_c, 1, 80, 64
2, 20639, Note_on_c, 1, 80, 0
2, 20640, Note_on_c, 1, 76, 64
2, 20663, Note_on_c, 1, 76, 0
2, 20664, Note_on_c, 1, 77, 64
2, 20687, Note_on_c, 1, 77, 0
2, 20688, Note_on_c, 1, 72, 64
2, 20759, Note_on_c, 1, 72, 0
2, 20760, Note_on_c, 1, 69, 64
2, 20783, Note_on_c, 1, 69, 0
2, 20784, Note_on_c, 1, 65, 64
2, 20807, Note_on_c, 1, 65, 0
2, 20808, Note_on_c, 1, 66, 64
2, 20831, Note_on_c, 1, 66, 0
2, 20832, Note_on_c, 1, 60, 64
2, 20903, Note_on_c, 1, 60, 0
2, 20904, Note_on_c, 1, 65, 64
2, 20927, Note_on_c, 1, 65, 0
2, 20928, Note_on_c, 1, 57, 64
2, 20951, Note_on_c, 1, 57, 0
2, 20952, Note_on_c, 1, 58, 64
2, 20975, Note_on_c, 1, 58, 0
2, 20976, Note_on_c, 1, 67, 64
2, 21047, Note_on_c, 1, 67, 0
2, 21048, Note_on_c, 1, 80, 64
2, 21071, Note_on_c, 1, 80, 0
2, 21072, Note_on_c, 1, 76, 64
2, 21095, Note_on_c, 1, 76, 0
2, 21096, Note_on_c, 1, 77, 64
2, 21119, Note_on_c, 1, 77, 0
2, 21120, Note_on_c, 1, 72, 64
2, 21143, Note_on_c, 1, 72, 0
2, 21144, Note_on_c, 1, 76, 64
2, 21167, Note_on_c, 1, 76, 0
2, 21168, Note_on_c, 1, 77, 64
2, 21301, Note_on_c, 1, 77, 0
2, 21301, End_track
3, 0, Start_track
3, 0, MIDI_port, 0
3, 0, Title_t, "Clavier (RH)"
3, 0, Program_c, 0, 6
3, 0, Control_c, 0, 7, 127
3, 624, Note_on_c, 0, 65, 64
3, 669, Note_on_c, 0, 65, 0
3, 672, Note_on_c, 0, 68, 64
3, 765, Note_on_c, 0, 68, 0
3, 768, Note_on_c, 0, 69, 64
3, 813, Note_on_c, 0, 69, 0
3, 816, Note_on_c, 0, 70, 64
3, 909, Note_on_c, 0, 70, 0
3, 912, Note_on_c, 0, 71, 64
3, 957, Note_on_c, 0, 71, 0
3, 960, Note_on_c, 0, 72, 64
3, 1031, Note_on_c, 0, 72, 0
3, 1032, Note_on_c, 0, 74, 64
3, 1055, Note_on_c, 0, 74, 0
3, 1056, Note_on_c, 0, 74, 64
3, 1068, Note_on_c, 0, 74, 0
3, 1068, Note_on_c, 0, 75, 64
3, 1080, Note_on_c, 0, 75, 0
3, 1080, Note_on_c, 0, 74, 64
3, 1092, Note_on_c, 0, 74, 0
3, 1092, Note_on_c, 0, 75, 64
3, 1104, Note_on_c, 0, 75, 0
3, 1104, Note_on_c, 0, 74, 64
3, 1116, Note_on_c, 0, 74, 0
3, 1116, Note_on_c, 0, 75, 64
3, 1128, Note_on_c, 0, 75, 0
3, 1128, Note_on_c, 0, 72, 64
3, 1140, Note_on_c, 0, 72, 0
3, 1140, Note_on_c, 0, 74, 64
3, 1152, Note_on_c, 0, 74, 0
3, 1152, Note_on_c, 0, 75, 64
3, 1219, Note_on_c, 0, 75, 0
3, 1224, Note_on_c, 0, 79, 64
3, 1247, Note_on_c, 0, 79, 0
3, 1248, Note_on_c, 0, 77, 64
3, 1271, Note_on_c, 0, 77, 0
3, 1272, Note_on_c, 0, 75, 64
3, 1295, Note_on_c, 0, 75, 0
3, 1296, Note_on_c, 0, 73, 64
3, 1363, Note_on_c, 0, 73, 0
3, 1368, Note_on_c, 0, 77, 64
3, 1391, Note_on_c, 0, 77, 0
3, 1392, Note_on_c, 0, 75, 64
3, 1415, Note_on_c, 0, 75, 0
3, 1416, Note_on_c, 0, 73, 64
3, 1439, Note_on_c, 0, 73, 0
3, 1440, Note_on_c, 0, 72, 64
3, 1463, Note_on_c, 0, 72, 0
3, 1464, Note_on_c, 0, 70, 64
3, 1487, Note_on_c, 0, 70, 0
3, 1488, Note_on_c, 0, 72, 64
3, 1511, Note_on_c, 0, 72, 0
3, 1512, Note_on_c, 0, 74, 64
3, 1535, Note_on_c, 0, 74, 0
3, 1536, Note_on_c, 0, 76, 64
3, 1559, Note_on_c, 0, 76, 0
3, 1560, Note_on_c, 0, 77, 64
3, 1583, Note_on_c, 0, 77, 0
3, 1584, Note_on_c, 0, 79, 64
3, 1607, Note_on_c, 0, 79, 0
3, 1608, Note_on_c, 0, 80, 64
3, 1631, Note_on_c, 0, 80, 0
3, 1632, Note_on_c, 0, 82, 64
3, 1655, Note_on_c, 0, 82, 0
3, 1656, Note_on_c, 0, 85, 64
3, 1679, Note_on_c, 0, 85, 0
3, 1680, Note_on_c, 0, 84, 64
3, 1703, Note_on_c, 0, 84, 0
3, 1704, Note_on_c, 0, 82, 64
3, 1727, Note_on_c, 0, 82, 0
3, 1728, Note_on_c, 0, 80, 64
3, 1795, Note_on_c, 0, 80, 0
3, 1800, Note_on_c, 0, 79, 64
3, 1823, Note_on_c, 0, 79, 0
3, 1824, Note_on_c, 0, 77, 64
3, 1847, Note_on_c, 0, 77, 0
3, 1848, Note_on_c, 0, 75, 64
3, 1871, Note_on_c, 0, 75, 0
3, 1872, Note_on_c, 0, 73, 64
3, 1895, Note_on_c, 0, 73, 0
3, 1896, Note_on_c, 0, 72, 64
3, 1919, Note_on_c, 0, 72, 0
3, 1920, Note_on_c, 0, 70, 64
3, 1943, Note_on_c, 0, 70, 0
3, 1944, Note_on_c, 0, 68, 64
3, 1967, Note_on_c, 0, 68, 0
3, 1968, Note_on_c, 0, 67, 64
3, 1991, Note_on_c, 0, 67, 0
3, 1992, Note_on_c, 0, 65, 64
3, 2015, Note_on_c, 0, 65, 0
3, 2016, Note_on_c, 0, 63, 64
3, 2039, Note_on_c, 0, 63, 0
3, 2040, Note_on_c, 0, 61, 64
3, 2063, Note_on_c, 0, 61, 0
3, 2064, Note_on_c, 0, 60, 64
3, 2087, Note_on_c, 0, 60, 0
3, 2088, Note_on_c, 0, 58, 64
3, 2111, Note_on_c, 0, 58, 0
3, 2112, Note_on_c, 0, 56, 64
3, 2135, Note_on_c, 0, 56, 0
3, 2136, Note_on_c, 0, 55, 64
3, 2159, Note_on_c, 0, 55, 0
3, 2160, Note_on_c, 0, 53, 64
3, 2205, Note_on_c, 0, 53, 0
3, 2208, Note_on_c, 0, 65, 64
3, 2253, Note_on_c, 0, 65, 0
3, 2256, Note_on_c, 0, 64, 64
3, 2301, Note_on_c, 0, 64, 0
3, 2304, Note_on_c, 0, 65, 64
3, 2327, Note_on_c, 0, 65, 0
3, 2328, Note_on_c, 0, 64, 64
3, 2351, Note_on_c, 0, 64, 0
3, 2352, Note_on_c, 0, 65, 64
3, 2375, Note_on_c, 0, 65, 0
3, 2376, Note_on_c, 0, 67, 64
3, 2399, Note_on_c, 0, 67, 0
3, 2400, Note_on_c, 0, 68, 64
3, 2423, Note_on_c, 0, 68, 0
3, 2424, Note_on_c, 0, 70, 64
3, 2447, Note_on_c, 0, 70, 0
3, 2448, Note_on_c, 0, 72, 64
3, 2471, Note_on_c, 0, 72, 0
3, 2472, Note_on_c, 0, 73, 64
3, 2495, Note_on_c, 0, 73, 0
3, 2496, Note_on_c, 0, 75, 64
3, 2519, Note_on_c, 0, 75, 0
3, 2520, Note_on_c, 0, 77, 64
3, 2543, Note_on_c, 0, 77, 0
3, 2544, Note_on_c, 0, 79, 64
3, 2567, Note_on_c, 0, 79, 0
3, 2568, Note_on_c, 0, 81, 64
3, 2591, Note_on_c, 0, 81, 0
3, 2592, Note_on_c, 0, 82, 64
3, 2615, Note_on_c, 0, 82, 0
3, 2616, Note_on_c, 0, 69, 64
3, 2639, Note_on_c, 0, 69, 0
3, 2640, Note_on_c, 0, 70, 64
3, 2663, Note_on_c, 0, 70, 0
3, 2664, Note_on_c, 0, 72, 64
3, 2687, Note_on_c, 0, 72, 0
3, 2688, Note_on_c, 0, 74, 64
3, 2711, Note_on_c, 0, 74, 0
3, 2712, Note_on_c, 0, 75, 64
3, 2735, Note_on_c, 0, 75, 0
3, 2736, Note_on_c, 0, 77, 64
3, 2903, Note_on_c, 0, 77, 0
3, 2904, Note_on_c, 0, 80, 64
3, 2927, Note_on_c, 0, 80, 0
3, 2928, Note_on_c, 0, 79, 64
3, 2951, Note_on_c, 0, 79, 0
3, 2952, Note_on_c, 0, 77, 64
3, 2975, Note_on_c, 0, 77, 0
3, 2976, Note_on_c, 0, 75, 64
3, 2999, Note_on_c, 0, 75, 0
3, 3000, Note_on_c, 0, 74, 64
3, 3023, Note_on_c, 0, 74, 0
3, 3024, Note_on_c, 0, 72, 64
3, 3091, Note_on_c, 0, 72, 0
3, 3096, Note_on_c, 0, 79, 64
3, 3119, Note_on_c, 0, 79, 0
3, 3120, Note_on_c, 0, 77, 64
3, 3143, Note_on_c, 0, 77, 0
3, 3144, Note_on_c, 0, 75, 64
3, 3167, Note_on_c, 0, 75, 0
3, 3168, Note_on_c, 0, 74, 64
3, 3235, Note_on_c, 0, 74, 0
3, 3240, Note_on_c, 0, 80, 64
3, 3263, Note_on_c, 0, 80, 0
3, 3264, Note_on_c, 0, 79, 64
3, 3287, Note_on_c, 0, 79, 0
3, 3288, Note_on_c, 0, 77, 64
3, 3311, Note_on_c, 0, 77, 0
3, 3312, Note_on_c, 0, 75, 64
3, 3335, Note_on_c, 0, 75, 0
3, 3336, Note_on_c, 0, 74, 64
3, 3359, Note_on_c, 0, 74, 0
3, 3360, Note_on_c, 0, 77, 64
3, 3383, Note_on_c, 0, 77, 0
3, 3384, Note_on_c, 0, 75, 64
3, 3407, Note_on_c, 0, 75, 0
3, 3408, Note_on_c, 0, 74, 64
3, 3431, Note_on_c, 0, 74, 0
3, 3432, Note_on_c, 0, 75, 64
3, 3455, Note_on_c, 0, 75, 0
3, 3456, Note_on_c, 0, 72, 64
3, 3501, Note_on_c, 0, 72, 0
3, 3504, Note_on_c, 0, 72, 64
3, 3549, Note_on_c, 0, 72, 0
3, 3552, Note_on_c, 0, 73, 64
3, 3645, Note_on_c, 0, 73, 0
3, 3648, Note_on_c, 0, 74, 64
3, 3693, Note_on_c, 0, 74, 0
3, 3696, Note_on_c, 0, 75, 64
3, 3789, Note_on_c, 0, 75, 0
3, 3792, Note_on_c, 0, 76, 64
3, 3837, Note_on_c, 0, 76, 0
3, 3840, Note_on_c, 0, 77, 64
3, 3911, Note_on_c, 0, 77, 0
3, 3912, Note_on_c, 0, 79, 64
3, 3935, Note_on_c, 0, 79, 0
3, 3936, Note_on_c, 0, 79, 64
3, 3948, Note_on_c, 0, 79, 0
3, 3948, Note_on_c, 0, 80, 64
3, 3960, Note_on_c, 0, 80, 0
3, 3960, Note_on_c, 0, 79, 64
3, 3972, Note_on_c, 0, 79, 0
3, 3972, Note_on_c, 0, 80, 64
3, 3984, Note_on_c, 0, 80, 0
3, 3984, Note_on_c, 0, 79, 64
3, 3996, Note_on_c, 0, 79, 0
3, 3996, Note_on_c, 0, 80, 64
3, 4008, Note_on_c, 0, 80, 0
3, 4008, Note_on_c, 0, 77, 64
3, 4020, Note_on_c, 0, 77, 0
3, 4020, Note_on_c, 0, 79, 64
3, 4032, Note_on_c, 0, 79, 0
3, 4032, Note_on_c, 0, 80, 64
3, 4099, Note_on_c, 0, 80, 0
3, 4104, Note_on_c, 0, 80, 64
3, 4127, Note_on_c, 0, 80, 0
3, 4128, Note_on_c, 0, 76, 64
3, 4151, Note_on_c, 0, 76, 0
3, 4152, Note_on_c, 0, 77, 64
3, 4175, Note_on_c, 0, 77, 0
3, 4176, Note_on_c, 0, 82, 64
3, 4243, Note_on_c, 0, 82, 0
3, 4248, Note_on_c, 0, 80, 64
3, 4271, Note_on_c, 0, 80, 0
3, 4272, Note_on_c, 0, 76, 64
3, 4295, Note_on_c, 0, 76, 0
3, 4296, Note_on_c, 0, 77, 64
3, 4319, Note_on_c, 0, 77, 0
3, 4320, Note_on_c, 0, 84, 64
3, 4387, Note_on_c, 0, 84, 0
3, 4392, Note_on_c, 0, 80, 64
3, 4415, Note_on_c, 0, 80, 0
3, 4416, Note_on_c, 0, 76, 64
3, 4439, Note_on_c, 0, 76, 0
3, 4440, Note_on_c, 0, 77, 64
3, 4463, Note_on_c, 0, 77, 0
3, 4464, Note_on_c, 0, 85, 64
3, 4509, Note_on_c, 0, 85, 0
3, 4512, Note_on_c, 0, 82, 64
3, 4557, Note_on_c, 0, 82, 0
3, 4560, Note_on_c, 0, 79, 64
3, 4631, Note_on_c, 0, 79, 0
3, 4632, Note_on_c, 0, 80, 64
3, 4655, Note_on_c, 0, 80, 0
3, 4656, Note_on_c, 0, 76, 64
3, 4679, Note_on_c, 0, 76, 0
3, 4680, Note_on_c, 0, 77, 64
3, 4703, Note_on_c, 0, 77, 0
3, 4704, Note_on_c, 0, 71, 64
3, 4727, Note_on_c, 0, 71, 0
3, 4728, Note_on_c, 0, 72, 64
3, 4751, Note_on_c, 0, 72, 0
3, 4752, Note_on_c, 0, 71, 64
3, 4797, Note_on_c, 0, 71, 0
3, 4800, Note_on_c, 0, 72, 64
3, 4845, Note_on_c, 0, 72, 0
3, 4848, Note_on_c, 0, 74, 64
3, 4919, Note_on_c, 0, 74, 0
3, 4920, Note_on_c, 0, 79, 64
3, 4943, Note_on_c, 0, 79, 0
3, 4944, Note_on_c, 0, 74, 64
3, 4967, Note_on_c, 0, 74, 0
3, 4968, Note_on_c, 0, 75, 64
3, 4991, Note_on_c, 0, 75, 0
3, 4992, Note_on_c, 0, 69, 64
3, 5015, Note_on_c, 0, 69, 0
3, 5016, Note_on_c, 0, 70, 64
3, 5039, Note_on_c, 0, 70, 0
3, 5040, Note_on_c, 0, 69, 64
3, 5085, Note_on_c, 0, 69, 0
3, 5088, Note_on_c, 0, 70, 64
3, 5133, Note_on_c, 0, 70, 0
3, 5136, Note_on_c, 0, 72, 64
3, 5207, Note_on_c, 0, 72, 0
3, 5208, Note_on_c, 0, 77, 64
3, 5231, Note_on_c, 0, 77, 0
3, 5232, Note_on_c, 0, 72, 64
3, 5255, Note_on_c, 0, 72, 0
3, 5256, Note_on_c, 0, 73, 64
3, 5279, Note_on_c, 0, 73, 0
3, 5280, Note_on_c, 0, 67, 64
3, 5303, Note_on_c, 0, 67, 0
3, 5304, Note_on_c, 0, 68, 64
3, 5327, Note_on_c, 0, 68, 0
3, 5328, Note_on_c, 0, 67, 64
3, 5373, Note_on_c, 0, 67, 0
3, 5376, Note_on_c, 0, 68, 64
3, 5421, Note_on_c, 0, 68, 0
3, 5424, Note_on_c, 0, 70, 64
3, 5495, Note_on_c, 0, 70, 0
3, 5496, Note_on_c, 0, 72, 64
3, 5519, Note_on_c, 0, 72, 0
3, 5520, Note_on_c, 0, 67, 64
3, 5543, Note_on_c, 0, 67, 0
3, 5544, Note_on_c, 0, 68, 64
3, 5567, Note_on_c, 0, 68, 0
3, 5568, Note_on_c, 0, 63, 64
3, 5639, Note_on_c, 0, 63, 0
3, 5640, Note_on_c, 0, 73, 64
3, 5663, Note_on_c, 0, 73, 0
3, 5664, Note_on_c, 0, 67, 64
3, 5687, Note_on_c, 0, 67, 0
3, 5688, Note_on_c, 0, 68, 64
3, 5711, Note_on_c, 0, 68, 0
3, 5712, Note_on_c, 0, 63, 64
3, 5783, Note_on_c, 0, 63, 0
3, 5784, Note_on_c, 0, 75, 64
3, 5807, Note_on_c, 0, 75, 0
3, 5808, Note_on_c, 0, 67, 64
3, 5831, Note_on_c, 0, 67, 0
3, 5832, Note_on_c, 0, 68, 64
3, 5855, Note_on_c, 0, 68, 0
3, 5856, Note_on_c, 0, 63, 64
3, 5927, Note_on_c, 0, 63, 0
3, 5928, Note_on_c, 0, 77, 64
3, 5951, Note_on_c, 0, 77, 0
3, 5952, Note_on_c, 0, 67, 64
3, 5975, Note_on_c, 0, 67, 0
3, 5976, Note_on_c, 0, 68, 64
3, 5999, Note_on_c, 0, 68, 0
3, 6000, Note_on_c, 0, 61, 64
3, 6023, Note_on_c, 0, 61, 0
3, 6024, Note_on_c, 0, 70, 64
3, 6047, Note_on_c, 0, 70, 0
3, 6048, Note_on_c, 0, 60, 64
3, 6115, Note_on_c, 0, 60, 0
3, 6120, Note_on_c, 0, 75, 64
3, 6143, Note_on_c, 0, 75, 0
3, 6144, Note_on_c, 0, 73, 64
3, 6167, Note_on_c, 0, 73, 0
3, 6168, Note_on_c, 0, 72, 64
3, 6191, Note_on_c, 0, 72, 0
3, 6192, Note_on_c, 0, 70, 64
3, 6215, Note_on_c, 0, 70, 0
3, 6216, Note_on_c, 0, 68, 64
3, 6239, Note_on_c, 0, 68, 0
3, 6240, Note_on_c, 0, 70, 64
3, 6263, Note_on_c, 0, 70, 0
3, 6264, Note_on_c, 0, 73, 64
3, 6287, Note_on_c, 0, 73, 0
3, 6288, Note_on_c, 0, 72, 64
3, 6311, Note_on_c, 0, 72, 0
3, 6312, Note_on_c, 0, 70, 64
3, 6335, Note_on_c, 0, 70, 0
3, 6336, Note_on_c, 0, 68, 64
3, 6359, Note_on_c, 0, 68, 0
3, 6360, Note_on_c, 0, 67, 64
3, 6383, Note_on_c, 0, 67, 0
3, 6384, Note_on_c, 0, 68, 64
3, 6407, Note_on_c, 0, 68, 0
3, 6408, Note_on_c, 0, 72, 64
3, 6431, Note_on_c, 0, 72, 0
3, 6432, Note_on_c, 0, 70, 64
3, 6455, Note_on_c, 0, 70, 0
3, 6456, Note_on_c, 0, 68, 64
3, 6479, Note_on_c, 0, 68, 0
3, 6480, Note_on_c, 0, 67, 64
3, 6503, Note_on_c, 0, 67, 0
3, 6504, Note_on_c, 0, 65, 64
3, 6527, Note_on_c, 0, 65, 0
3, 6528, Note_on_c, 0, 67, 64
3, 6551, Note_on_c, 0, 67, 0
3, 6552, Note_on_c, 0, 70, 64
3, 6575, Note_on_c, 0, 70, 0
3, 6576, Note_on_c, 0, 68, 64
3, 6599, Note_on_c, 0, 68, 0
3, 6600, Note_on_c, 0, 67, 64
3, 6623, Note_on_c, 0, 67, 0
3, 6624, Note_on_c, 0, 65, 64
3, 6691, Note_on_c, 0, 65, 0
3, 6696, Note_on_c, 0, 65, 64
3, 6719, Note_on_c, 0, 65, 0
3, 6720, Note_on_c, 0, 67, 64
3, 6743, Note_on_c, 0, 67, 0
3, 6744, Note_on_c, 0, 68, 64
3, 6767, Note_on_c, 0, 68, 0
3, 6768, Note_on_c, 0, 70, 64
3, 6791, Note_on_c, 0, 70, 0
3, 6792, Note_on_c, 0, 63, 64
3, 6815, Note_on_c, 0, 63, 0
3, 6816, Note_on_c, 0, 75, 64
3, 6861, Note_on_c, 0, 75, 0
3, 6864, Note_on_c, 0, 80, 64
3, 6957, Note_on_c, 0, 80, 0
3, 6960, Note_on_c, 0, 79, 64
3, 6983, Note_on_c, 0, 79, 0
3, 6984, Note_on_c, 0, 77, 64
3, 7007, Note_on_c, 0, 77, 0
3, 7008, Note_on_c, 0, 79, 64
3, 7101, Note_on_c, 0, 79, 0
3, 7104, Note_on_c, 0, 72, 64
3, 7149, Note_on_c, 0, 72, 0
3, 7152, Note_on_c, 0, 77, 64
3, 7245, Note_on_c, 0, 77, 0
3, 7248, Note_on_c, 0, 75, 64
3, 7271, Note_on_c, 0, 75, 0
3, 7272, Note_on_c, 0, 74, 64
3, 7295, Note_on_c, 0, 74, 0
3, 7296, Note_on_c, 0, 75, 64
3, 7367, Note_on_c, 0, 75, 0
3, 7368, Note_on_c, 0, 75, 64
3, 7391, Note_on_c, 0, 75, 0
3, 7392, Note_on_c, 0, 73, 64
3, 7415, Note_on_c, 0, 73, 0
3, 7416, Note_on_c, 0, 72, 64
3, 7439, Note_on_c, 0, 72, 0
3, 7440, Note_on_c, 0, 73, 64
3, 7463, Note_on_c, 0, 73, 0
3, 7464, Note_on_c, 0, 82, 64
3, 7511, Note_on_c, 0, 82, 0
3, 7512, Note_on_c, 0, 73, 64
3, 7535, Note_on_c, 0, 73, 0
3, 7536, Note_on_c, 0, 72, 64
3, 7559, Note_on_c, 0, 72, 0
3, 7560, Note_on_c, 0, 71, 64
3, 7583, Note_on_c, 0, 71, 0
3, 7584, Note_on_c, 0, 72, 64
3, 7607, Note_on_c, 0, 72, 0
3, 7608, Note_on_c, 0, 80, 64
3, 7655, Note_on_c, 0, 80, 0
3, 7656, Note_on_c, 0, 79, 64
3, 7679, Note_on_c, 0, 79, 0
3, 7680, Note_on_c, 0, 77, 64
3, 7703, Note_on_c, 0, 77, 0
3, 7704, Note_on_c, 0, 75, 64
3, 7727, Note_on_c, 0, 75, 0
3, 7728, Note_on_c, 0, 74, 64
3, 7751, Note_on_c, 0, 74, 0
3, 7752, Note_on_c, 0, 72, 64
3, 7775, Note_on_c, 0, 72, 0
3, 7776, Note_on_c, 0, 71, 64
3, 7843, Note_on_c, 0, 71, 0
3, 7848, Note_on_c, 0, 79, 64
3, 7871, Note_on_c, 0, 79, 0
3, 7872, Note_on_c, 0, 84, 64
3, 7895, Note_on_c, 0, 84, 0
3, 7896, Note_on_c, 0, 82, 64
3, 7919, Note_on_c, 0, 82, 0
3, 7920, Note_on_c, 0, 80, 64
3, 7943, Note_on_c, 0, 80, 0
3, 7944, Note_on_c, 0, 79, 64
3, 7967, Note_on_c, 0, 79, 0
3, 7968, Note_on_c, 0, 77, 64
3, 7991, Note_on_c, 0, 77, 0
3, 7992, Note_on_c, 0, 75, 64
3, 8015, Note_on_c, 0, 75, 0
3, 8016, Note_on_c, 0, 74, 64
3, 8039, Note_on_c, 0, 74, 0
3, 8040, Note_on_c, 0, 72, 64
3, 8063, Note_on_c, 0, 72, 0
3, 8064, Note_on_c, 0, 70, 64
3, 8087, Note_on_c, 0, 70, 0
3, 8088, Note_on_c, 0, 68, 64
3, 8111, Note_on_c, 0, 68, 0
3, 8112, Note_on_c, 0, 67, 64
3, 8135, Note_on_c, 0, 67, 0
3, 8136, Note_on_c, 0, 65, 64
3, 8159, Note_on_c, 0, 65, 0
3, 8160, Note_on_c, 0, 63, 64
3, 8183, Note_on_c, 0, 63, 0
3, 8184, Note_on_c, 0, 62, 64
3, 8207, Note_on_c, 0, 62, 0
3, 8208, Note_on_c, 0, 60, 64
3, 8253, Note_on_c, 0, 60, 0
3, 8256, Note_on_c, 0, 72, 64
3, 8301, Note_on_c, 0, 72, 0
3, 8304, Note_on_c, 0, 71, 64
3, 8349, Note_on_c, 0, 71, 0
3, 8352, Note_on_c, 0, 72, 64
3, 8541, Note_on_c, 0, 72, 0
3, 8544, Note_on_c, 0, 84, 64
3, 8589, Note_on_c, 0, 84, 0
3, 8592, Note_on_c, 0, 83, 64
3, 8637, Note_on_c, 0, 83, 0
3, 8640, Note_on_c, 0, 84, 64
3, 8685, Note_on_c, 0, 84, 0
3, 8688, Note_on_c, 0, 67, 64
3, 8733, Note_on_c, 0, 67, 0
3, 8736, Note_on_c, 0, 68, 64
3, 8829, Note_on_c, 0, 68, 0
3, 8832, Note_on_c, 0, 64, 64
3, 8877, Note_on_c, 0, 64, 0
3, 8880, Note_on_c, 0, 65, 64
3, 8973, Note_on_c, 0, 65, 0
3, 8976, Note_on_c, 0, 69, 64
3, 9021, Note_on_c, 0, 69, 0
3, 9024, Note_on_c, 0, 70, 64
3, 9117, Note_on_c, 0, 70, 0
3, 9120, Note_on_c, 0, 65, 64
3, 9165, Note_on_c, 0, 65, 0
3, 9168, Note_on_c, 0, 67, 64
3, 9261, Note_on_c, 0, 67, 0
3, 9264, Note_on_c, 0, 71, 64
3, 9309, Note_on_c, 0, 71, 0
3, 9312, Note_on_c, 0, 72, 64
3, 9383, Note_on_c, 0, 72, 0
3, 9384, Note_on_c, 0, 67, 64
3, 9407, Note_on_c, 0, 67, 0
3, 9408, Note_on_c, 0, 68, 64
3, 9431, Note_on_c, 0, 68, 0
3, 9432, Note_on_c, 0, 64, 64
3, 9455, Note_on_c, 0, 64, 0
3, 9456, Note_on_c, 0, 65, 64
3, 9479, Note_on_c, 0, 65, 0
3, 9480, Note_on_c, 0, 68, 64
3, 9503, Note_on_c, 0, 68, 0
3, 9504, Note_on_c, 0, 72, 64
3, 9527, Note_on_c, 0, 72, 0
3, 9528, Note_on_c, 0, 65, 64
3, 9551, Note_on_c, 0, 65, 0
3, 9552, Note_on_c, 0, 69, 64
3, 9575, Note_on_c, 0, 69, 0
3, 9576, Note_on_c, 0, 72, 64
3, 9599, Note_on_c, 0, 72, 0
3, 9600, Note_on_c, 0, 77, 64
3, 9671, Note_on_c, 0, 77, 0
3, 9672, Note_on_c, 0, 75, 64
3, 9695, Note_on_c, 0, 75, 0
3, 9696, Note_on_c, 0, 78, 64
3, 9719, Note_on_c, 0, 78, 0
3, 9720, Note_on_c, 0, 77, 64
3, 9743, Note_on_c, 0, 77, 0
3, 9744, Note_on_c, 0, 75, 64
3, 9767, Note_on_c, 0, 75, 0
3, 9768, Note_on_c, 0, 74, 64
3, 9791, Note_on_c, 0, 74, 0
3, 9792, Note_on_c, 0, 75, 64
3, 9859, Note_on_c, 0, 75, 0
3, 9864, Note_on_c, 0, 70, 64
3, 9887, Note_on_c, 0, 70, 0
3, 9888, Note_on_c, 0, 72, 64
3, 9911, Note_on_c, 0, 72, 0
3, 9912, Note_on_c, 0, 73, 64
3, 9935, Note_on_c, 0, 73, 0
3, 9936, Note_on_c, 0, 72, 64
3, 9959, Note_on_c, 0, 72, 0
3, 9960, Note_on_c, 0, 75, 64
3, 9983, Note_on_c, 0, 75, 0
3, 9984, Note_on_c, 0, 73, 64
3, 10008, Note_on_c, 0, 73, 0
3, 10008, Note_on_c, 0, 72, 64
3, 10031, Note_on_c, 0, 72, 0
3, 10032, Note_on_c, 0, 70, 64
3, 10056, Note_on_c, 0, 70, 0
3, 10056, Note_on_c, 0, 68, 64
3, 10079, Note_on_c, 0, 68, 0
3, 10080, Note_on_c, 0, 66, 64
3, 10103, Note_on_c, 0, 66, 0
3, 10104, Note_on_c, 0, 65, 64
3, 10127, Note_on_c, 0, 65, 0
3, 10128, Note_on_c, 0, 73, 64
3, 10151, Note_on_c, 0, 73, 0
3, 10152, Note_on_c, 0, 72, 64
3, 10175, Note_on_c, 0, 72, 0
3, 10176, Note_on_c, 0, 70, 64
3, 10199, Note_on_c, 0, 70, 0
3, 10200, Note_on_c, 0, 72, 64
3, 10223, Note_on_c, 0, 72, 0
3, 10224, Note_on_c, 0, 73, 64
3, 10391, Note_on_c, 0, 73, 0
3, 10392, Note_on_c, 0, 78, 64
3, 10415, Note_on_c, 0, 78, 0
3, 10416, Note_on_c, 0, 77, 64
3, 10439, Note_on_c, 0, 77, 0
3, 10440, Note_on_c, 0, 75, 64
3, 10463, Note_on_c, 0, 75, 0
3, 10464, Note_on_c, 0, 73, 64
3, 10487, Note_on_c, 0, 73, 0
3, 10488, Note_on_c, 0, 72, 64
3, 10511, Note_on_c, 0, 72, 0
3, 10512, Note_on_c, 0, 70, 64
3, 10579, Note_on_c, 0, 70, 0
3, 10584, Note_on_c, 0, 77, 64
3, 10607, Note_on_c, 0, 77, 0
3, 10608, Note_on_c, 0, 75, 64
3, 10631, Note_on_c, 0, 75, 0
3, 10632, Note_on_c, 0, 73, 64
3, 10655, Note_on_c, 0, 73, 0
3, 10656, Note_on_c, 0, 72, 64
3, 10723, Note_on_c, 0, 72, 0
3, 10728, Note_on_c, 0, 78, 64
3, 10751, Note_on_c, 0, 78, 0
3, 10752, Note_on_c, 0, 77, 64
3, 10775, Note_on_c, 0, 77, 0
3, 10776, Note_on_c, 0, 75, 64
3, 10799, Note_on_c, 0, 75, 0
3, 10800, Note_on_c, 0, 73, 64
3, 10823, Note_on_c, 0, 73, 0
3, 10824, Note_on_c, 0, 72, 64
3, 10847, Note_on_c, 0, 72, 0
3, 10848, Note_on_c, 0, 75, 64
3, 10871, Note_on_c, 0, 75, 0
3, 10872, Note_on_c, 0, 73, 64
3, 10895, Note_on_c, 0, 73, 0
3, 10896, Note_on_c, 0, 72, 64
3, 10919, Note_on_c, 0, 72, 0
3, 10920, Note_on_c, 0, 78, 64
3, 10943, Note_on_c, 0, 78, 0
3, 10944, Note_on_c, 0, 77, 64
3, 10967, Note_on_c, 0, 77, 0
3, 10968, Note_on_c, 0, 69, 64
3, 10991, Note_on_c, 0, 69, 0
3, 10992, Note_on_c, 0, 70, 64
3, 11015, Note_on_c, 0, 70, 0
3, 11016, Note_on_c, 0, 60, 64
3, 11039, Note_on_c, 0, 60, 0
3, 11040, Note_on_c, 0, 61, 64
3, 11063, Note_on_c, 0, 61, 0
3, 11064, Note_on_c, 0, 63, 64
3, 11087, Note_on_c, 0, 63, 0
3, 11088, Note_on_c, 0, 65, 64
3, 11111, Note_on_c, 0, 65, 0
3, 11112, Note_on_c, 0, 66, 64
3, 11135, Note_on_c, 0, 66, 0
3, 11136, Note_on_c, 0, 68, 64
3, 11159, Note_on_c, 0, 68, 0
3, 11160, Note_on_c, 0, 70, 64
3, 11183, Note_on_c, 0, 70, 0
3, 11184, Note_on_c, 0, 72, 64
3, 11207, Note_on_c, 0, 72, 0
3, 11208, Note_on_c, 0, 74, 64
3, 11231, Note_on_c, 0, 74, 0
3, 11232, Note_on_c, 0, 75, 64
3, 11255, Note_on_c, 0, 75, 0
3, 11256, Note_on_c, 0, 74, 64
3, 11279, Note_on_c, 0, 74, 0
3, 11280, Note_on_c, 0, 75, 64
3, 11303, Note_on_c, 0, 75, 0
3, 11304, Note_on_c, 0, 77, 64
3, 11327, Note_on_c, 0, 77, 0
3, 11328, Note_on_c, 0, 79, 64
3, 11351, Note_on_c, 0, 79, 0
3, 11352, Note_on_c, 0, 80, 64
3, 11375, Note_on_c, 0, 80, 0
3, 11376, Note_on_c, 0, 82, 64
3, 11543, Note_on_c, 0, 82, 0
3, 11544, Note_on_c, 0, 85, 64
3, 11567, Note_on_c, 0, 85, 0
3, 11568, Note_on_c, 0, 84, 64
3, 11591, Note_on_c, 0, 84, 0
3, 11592, Note_on_c, 0, 82, 64
3, 11615, Note_on_c, 0, 82, 0
3, 11616, Note_on_c, 0, 80, 64
3, 11639, Note_on_c, 0, 80, 0
3, 11640, Note_on_c, 0, 79, 64
3, 11663, Note_on_c, 0, 79, 0
3, 11664, Note_on_c, 0, 77, 64
3, 11731, Note_on_c, 0, 77, 0
3, 11736, Note_on_c, 0, 84, 64
3, 11759, Note_on_c, 0, 84, 0
3, 11760, Note_on_c, 0, 82, 64
3, 11783, Note_on_c, 0, 82, 0
3, 11784, Note_on_c, 0, 80, 64
3, 11807, Note_on_c, 0, 80, 0
3, 11808, Note_on_c, 0, 79, 64
3, 11875, Note_on_c, 0, 79, 0
3, 11880, Note_on_c, 0, 85, 64
3, 11903, Note_on_c, 0, 85, 0
3, 11904, Note_on_c, 0, 84, 64
3, 11927, Note_on_c, 0, 84, 0
3, 11928, Note_on_c, 0, 82, 64
3, 11951, Note_on_c, 0, 82, 0
3, 11952, Note_on_c, 0, 80, 64
3, 11975, Note_on_c, 0, 80, 0
3, 11976, Note_on_c, 0, 79, 64
3, 11999, Note_on_c, 0, 79, 0
3, 12000, Note_on_c, 0, 82, 64
3, 12023, Note_on_c, 0, 82, 0
3, 12024, Note_on_c, 0, 80, 64
3, 12047, Note_on_c, 0, 80, 0
3, 12048, Note_on_c, 0, 79, 64
3, 12071, Note_on_c, 0, 79, 0
3, 12072, Note_on_c, 0, 80, 64
3, 12095, Note_on_c, 0, 80, 0
3, 12096, Note_on_c, 0, 77, 64
3, 12141, Note_on_c, 0, 77, 0
3, 12144, Note_on_c, 0, 65, 64
3, 12189, Note_on_c, 0, 65, 0
3, 12192, Note_on_c, 0, 68, 64
3, 12285, Note_on_c, 0, 68, 0
3, 12288, Note_on_c, 0, 69, 64
3, 12333, Note_on_c, 0, 69, 0
3, 12336, Note_on_c, 0, 70, 64
3, 12429, Note_on_c, 0, 70, 0
3, 12432, Note_on_c, 0, 71, 64
3, 12477, Note_on_c, 0, 71, 0
3, 12480, Note_on_c, 0, 72, 64
3, 12551, Note_on_c, 0, 72, 0
3, 12552, Note_on_c, 0, 74, 64
3, 12575, Note_on_c, 0, 74, 0
3, 12576, Note_on_c, 0, 74, 64
3, 12588, Note_on_c, 0, 74, 0
3, 12588, Note_on_c, 0, 75, 64
3, 12600, Note_on_c, 0, 75, 0
3, 12600, Note_on_c, 0, 74, 64
3, 12612, Note_on_c, 0, 74, 0
3, 12612, Note_on_c, 0, 75, 64
3, 12624, Note_on_c, 0, 75, 0
3, 12624, Note_on_c, 0, 74, 64
3, 12636, Note_on_c, 0, 74, 0
3, 12636, Note_on_c, 0, 75, 64
3, 12648, Note_on_c, 0, 75, 0
3, 12648, Note_on_c, 0, 72, 64
3, 12660, Note_on_c, 0, 72, 0
3, 12660, Note_on_c, 0, 74, 64
3, 12672, Note_on_c, 0, 74, 0
3, 12672, Note_on_c, 0, 75, 64
3, 12739, Note_on_c, 0, 75, 0
3, 12744, Note_on_c, 0, 75, 64
3, 12767, Note_on_c, 0, 75, 0
3, 12768, Note_on_c, 0, 71, 64
3, 12791, Note_on_c, 0, 71, 0
3, 12792, Note_on_c, 0, 72, 64
3, 12815, Note_on_c, 0, 72, 0
3, 12816, Note_on_c, 0, 77, 64
3, 12883, Note_on_c, 0, 77, 0
3, 12888, Note_on_c, 0, 75, 64
3, 12911, Note_on_c, 0, 75, 0
3, 12912, Note_on_c, 0, 71, 64
3, 12935, Note_on_c, 0, 71, 0
3, 12936, Note_on_c, 0, 72, 64
3, 12959, Note_on_c, 0, 72, 0
3, 12960, Note_on_c, 0, 79, 64
3, 13027, Note_on_c, 0, 79, 0
3, 13032, Note_on_c, 0, 75, 64
3, 13055, Note_on_c, 0, 75, 0
3, 13056, Note_on_c, 0, 71, 64
3, 13079, Note_on_c, 0, 71, 0
3, 13080, Note_on_c, 0, 72, 64
3, 13103, Note_on_c, 0, 72, 0
3, 13104, Note_on_c, 0, 80, 64
3, 13149, Note_on_c, 0, 80, 0
3, 13152, Note_on_c, 0, 77, 64
3, 13197, Note_on_c, 0, 77, 0
3, 13200, Note_on_c, 0, 74, 64
3, 13271, Note_on_c, 0, 74, 0
3, 13272, Note_on_c, 0, 75, 64
3, 13295, Note_on_c, 0, 75, 0
3, 13296, Note_on_c, 0, 71, 64
3, 13319, Note_on_c, 0, 71, 0
3, 13320, Note_on_c, 0, 72, 64
3, 13343, Note_on_c, 0, 72, 0
3, 13344, Note_on_c, 0, 66, 64
3, 13367, Note_on_c, 0, 66, 0
3, 13368, Note_on_c, 0, 67, 64
3, 13391, Note_on_c, 0, 67, 0
3, 13392, Note_on_c, 0, 66, 64
3, 13437, Note_on_c, 0, 66, 0
3, 13440, Note_on_c, 0, 67, 64
3, 13485, Note_on_c, 0, 67, 0
3, 13488, Note_on_c, 0, 69, 64
3, 13559, Note_on_c, 0, 69, 0
3, 13560, Note_on_c, 0, 74, 64
3, 13583, Note_on_c, 0, 74, 0
3, 13584, Note_on_c, 0, 69, 64
3, 13607, Note_on_c, 0, 69, 0
3, 13608, Note_on_c, 0, 70, 64
3, 13631, Note_on_c, 0, 70, 0
3, 13632, Note_on_c, 0, 64, 64
3, 13655, Note_on_c, 0, 64, 0
3, 13656, Note_on_c, 0, 65, 64
3, 13679, Note_on_c, 0, 65, 0
3, 13680, Note_on_c, 0, 64, 64
3, 13725, Note_on_c, 0, 64, 0
3, 13728, Note_on_c, 0, 65, 64
3, 13773, Note_on_c, 0, 65, 0
3, 13776, Note_on_c, 0, 67, 64
3, 13847, Note_on_c, 0, 67, 0
3, 13848, Note_on_c, 0, 72, 64
3, 13871, Note_on_c, 0, 72, 0
3, 13872, Note_on_c, 0, 67, 64
3, 13895, Note_on_c, 0, 67, 0
3, 13896, Note_on_c, 0, 68, 64
3, 13919, Note_on_c, 0, 68, 0
3, 13920, Note_on_c, 0, 62, 64
3, 13943, Note_on_c, 0, 62, 0
3, 13944, Note_on_c, 0, 63, 64
3, 13967, Note_on_c, 0, 63, 0
3, 13968, Note_on_c, 0, 62, 64
3, 14013, Note_on_c, 0, 62, 0
3, 14016, Note_on_c, 0, 63, 64
3, 14061, Note_on_c, 0, 63, 0
3, 14064, Note_on_c, 0, 65, 64
3, 14135, Note_on_c, 0, 65, 0
3, 14136, Note_on_c, 0, 67, 64
3, 14159, Note_on_c, 0, 67, 0
3, 14160, Note_on_c, 0, 62, 64
3, 14183, Note_on_c, 0, 62, 0
3, 14184, Note_on_c, 0, 63, 64
3, 14207, Note_on_c, 0, 63, 0
3, 14208, Note_on_c, 0, 58, 64
3, 14279, Note_on_c, 0, 58, 0
3, 14280, Note_on_c, 0, 68, 64
3, 14303, Note_on_c, 0, 68, 0
3, 14304, Note_on_c, 0, 62, 64
3, 14327, Note_on_c, 0, 62, 0
3, 14328, Note_on_c, 0, 63, 64
3, 14351, Note_on_c, 0, 63, 0
3, 14352, Note_on_c, 0, 58, 64
3, 14423, Note_on_c, 0, 58, 0
3, 14424, Note_on_c, 0, 70, 64
3, 14447, Note_on_c, 0, 70, 0
3, 14448, Note_on_c, 0, 62, 64
3, 14471, Note_on_c, 0, 62, 0
3, 14472, Note_on_c, 0, 63, 64
3, 14495, Note_on_c, 0, 63, 0
3, 14496, Note_on_c, 0, 58, 64
3, 14567, Note_on_c, 0, 58, 0
3, 14568, Note_on_c, 0, 72, 64
3, 14591, Note_on_c, 0, 72, 0
3, 14592, Note_on_c, 0, 62, 64
3, 14615, Note_on_c, 0, 62, 0
3, 14616, Note_on_c, 0, 63, 64
3, 14639, Note_on_c, 0, 63, 0
3, 14640, Note_on_c, 0, 56, 64
3, 14663, Note_on_c, 0, 56, 0
3, 14664, Note_on_c, 0, 65, 64
3, 14687, Note_on_c, 0, 65, 0
3, 14688, Note_on_c, 0, 55, 64
3, 14733, Note_on_c, 0, 55, 0
3, 14880, Note_on_c, 0, 65, 64
3, 14925, Note_on_c, 0, 65, 0
3, 14928, Note_on_c, 0, 70, 64
3, 15021, Note_on_c, 0, 70, 0
3, 15024, Note_on_c, 0, 68, 64
3, 15047, Note_on_c, 0, 68, 0
3, 15048, Note_on_c, 0, 67, 64
3, 15071, Note_on_c, 0, 67, 0
3, 15072, Note_on_c, 0, 68, 64
3, 15095, Note_on_c, 0, 68, 0
3, 15096, Note_on_c, 0, 74, 64
3, 15119, Note_on_c, 0, 74, 0
3, 15120, Note_on_c, 0, 67, 64
3, 15143, Note_on_c, 0, 67, 0
3, 15144, Note_on_c, 0, 65, 64
3, 15167, Note_on_c, 0, 65, 0
3, 15168, Note_on_c, 0, 67, 64
3, 15213, Note_on_c, 0, 67, 0
3, 15216, Note_on_c, 0, 72, 64
3, 15309, Note_on_c, 0, 72, 0
3, 15312, Note_on_c, 0, 70, 64
3, 15335, Note_on_c, 0, 70, 0
3, 15336, Note_on_c, 0, 68, 64
3, 15359, Note_on_c, 0, 68, 0
3, 15360, Note_on_c, 0, 70, 64
3, 15383, Note_on_c, 0, 70, 0
3, 15384, Note_on_c, 0, 75, 64
3, 15407, Note_on_c, 0, 75, 0
3, 15408, Note_on_c, 0, 68, 64
3, 15431, Note_on_c, 0, 68, 0
3, 15432, Note_on_c, 0, 67, 64
3, 15455, Note_on_c, 0, 67, 0
3, 15456, Note_on_c, 0, 68, 64
3, 15501, Note_on_c, 0, 68, 0
3, 15504, Note_on_c, 0, 74, 64
3, 15575, Note_on_c, 0, 74, 0
3, 15576, Note_on_c, 0, 67, 64
3, 15599, Note_on_c, 0, 67, 0
3, 15600, Note_on_c, 0, 72, 64
3, 15623, Note_on_c, 0, 72, 0
3, 15624, Note_on_c, 0, 70, 64
3, 15647, Note_on_c, 0, 70, 0
3, 15648, Note_on_c, 0, 68, 64
3, 15671, Note_on_c, 0, 68, 0
3, 15672, Note_on_c, 0, 67, 64
3, 15695, Note_on_c, 0, 67, 0
3, 15696, Note_on_c, 0, 65, 64
3, 15719, Note_on_c, 0, 65, 0
3, 15720, Note_on_c, 0, 70, 64
3, 15743, Note_on_c, 0, 70, 0
3, 15744, Note_on_c, 0, 68, 64
3, 15767, Note_on_c, 0, 68, 0
3, 15768, Note_on_c, 0, 67, 64
3, 15791, Note_on_c, 0, 67, 0
3, 15792, Note_on_c, 0, 65, 64
3, 15815, Note_on_c, 0, 65, 0
3, 15816, Note_on_c, 0, 63, 64
3, 15839, Note_on_c, 0, 63, 0
3, 15840, Note_on_c, 0, 62, 64
3, 15929, Note_on_c, 0, 62, 0
3, 16752, Note_on_c, 0, 67, 64
3, 16797, Note_on_c, 0, 67, 0
3, 16800, Note_on_c, 0, 68, 64
3, 16893, Note_on_c, 0, 68, 0
3, 16896, Note_on_c, 0, 64, 64
3, 16941, Note_on_c, 0, 64, 0
3, 16944, Note_on_c, 0, 65, 64
3, 17037, Note_on_c, 0, 65, 0
3, 17040, Note_on_c, 0, 69, 64
3, 17085, Note_on_c, 0, 69, 0
3, 17088, Note_on_c, 0, 70, 64
3, 17181, Note_on_c, 0, 70, 0
3, 17184, Note_on_c, 0, 65, 64
3, 17229, Note_on_c, 0, 65, 0
3, 17232, Note_on_c, 0, 67, 64
3, 17325, Note_on_c, 0, 67, 0
3, 17328, Note_on_c, 0, 71, 64
3, 17373, Note_on_c, 0, 71, 0
3, 17376, Note_on_c, 0, 72, 64
3, 17447, Note_on_c, 0, 72, 0
3, 17448, Note_on_c, 0, 67, 64
3, 17471, Note_on_c, 0, 67, 0
3, 17472, Note_on_c, 0, 68, 64
3, 17495, Note_on_c, 0, 68, 0
3, 17496, Note_on_c, 0, 64, 64
3, 17519, Note_on_c, 0, 64, 0
3, 17520, Note_on_c, 0, 65, 64
3, 17543, Note_on_c, 0, 65, 0
3, 17544, Note_on_c, 0, 68, 64
3, 17567, Note_on_c, 0, 68, 0
3, 17568, Note_on_c, 0, 72, 64
3, 17591, Note_on_c, 0, 72, 0
3, 17592, Note_on_c, 0, 65, 64
3, 17615, Note_on_c, 0, 65, 0
3, 17616, Note_on_c, 0, 68, 64
3, 17639, Note_on_c, 0, 68, 0
3, 17640, Note_on_c, 0, 72, 64
3, 17663, Note_on_c, 0, 72, 0
3, 17664, Note_on_c, 0, 77, 64
3, 17687, Note_on_c, 0, 77, 0
3, 17688, Note_on_c, 0, 76, 64
3, 17711, Note_on_c, 0, 76, 0
3, 17712, Note_on_c, 0, 77, 64
3, 17735, Note_on_c, 0, 77, 0
3, 17736, Note_on_c, 0, 84, 64
3, 17759, Note_on_c, 0, 84, 0
3, 17760, Note_on_c, 0, 82, 64
3, 17783, Note_on_c, 0, 82, 0
3, 17784, Note_on_c, 0, 80, 64
3, 17807, Note_on_c, 0, 80, 0
3, 17808, Note_on_c, 0, 79, 64
3, 17831, Note_on_c, 0, 79, 0
3, 17832, Note_on_c, 0, 77, 64
3, 17855, Note_on_c, 0, 77, 0
3, 17856, Note_on_c, 0, 75, 64
3, 17879, Note_on_c, 0, 75, 0
3, 17880, Note_on_c, 0, 73, 64
3, 17903, Note_on_c, 0, 73, 0
3, 17904, Note_on_c, 0, 72, 64
3, 17927, Note_on_c, 0, 72, 0
3, 17928, Note_on_c, 0, 70, 64
3, 17951, Note_on_c, 0, 70, 0
3, 17952, Note_on_c, 0, 68, 64
3, 17975, Note_on_c, 0, 68, 0
3, 17976, Note_on_c, 0, 67, 64
3, 17999, Note_on_c, 0, 67, 0
3, 18000, Note_on_c, 0, 65, 64
3, 18023, Note_on_c, 0, 65, 0
3, 18024, Note_on_c, 0, 72, 64
3, 18047, Note_on_c, 0, 72, 0
3, 18048, Note_on_c, 0, 70, 64
3, 18071, Note_on_c, 0, 70, 0
3, 18072, Note_on_c, 0, 68, 64
3, 18095, Note_on_c, 0, 68, 0
3, 18096, Note_on_c, 0, 67, 64
3, 18119, Note_on_c, 0, 67, 0
3, 18120, Note_on_c, 0, 73, 64
3, 18143, Note_on_c, 0, 73, 0
3, 18144, Note_on_c, 0, 72, 64
3, 18189, Note_on_c, 0, 72, 0
3, 18192, Note_on_c, 0, 79, 64
3, 18237, Note_on_c, 0, 79, 0
3, 18240, Note_on_c, 0, 80, 64
3, 18333, Note_on_c, 0, 80, 0
3, 18336, Note_on_c, 0, 81, 64
3, 18381, Note_on_c, 0, 81, 0
3, 18384, Note_on_c, 0, 82, 64
3, 18455, Note_on_c, 0, 82, 0
3, 18456, Note_on_c, 0, 84, 64
3, 18479, Note_on_c, 0, 84, 0
3, 18480, Note_on_c, 0, 84, 64
3, 18492, Note_on_c, 0, 84, 0
3, 18492, Note_on_c, 0, 85, 64
3, 18504, Note_on_c, 0, 85, 0
3, 18504, Note_on_c, 0, 84, 64
3, 18516, Note_on_c, 0, 84, 0
3, 18516, Note_on_c, 0, 85, 64
3, 18528, Note_on_c, 0, 85, 0
3, 18528, Note_on_c, 0, 84, 64
3, 18540, Note_on_c, 0, 84, 0
3, 18540, Note_on_c, 0, 85, 64
3, 18552, Note_on_c, 0, 85, 0
3, 18552, Note_on_c, 0, 82, 64
3, 18564, Note_on_c, 0, 82, 0
3, 18564, Note_on_c, 0, 84, 64
3, 18576, Note_on_c, 0, 84, 0
3, 18576, Note_on_c, 0, 85, 64
3, 18599, Note_on_c, 0, 85, 0
3, 18600, Note_on_c, 0, 84, 64
3, 18623, Note_on_c, 0, 84, 0
3, 18624, Note_on_c, 0, 82, 64
3, 18647, Note_on_c, 0, 82, 0
3, 18648, Note_on_c, 0, 80, 64
3, 18671, Note_on_c, 0, 80, 0
3, 18672, Note_on_c, 0, 79, 64
3, 18695, Note_on_c, 0, 79, 0
3, 18696, Note_on_c, 0, 77, 64
3, 18719, Note_on_c, 0, 77, 0
3, 18720, Note_on_c, 0, 84, 64
3, 18853, Note_on_c, 0, 84, 0
3, 18864, Note_on_c, 0, 82, 64
3, 18997, Note_on_c, 0, 82, 0
3, 19008, Note_on_c, 0, 80, 64
3, 19075, Note_on_c, 0, 80, 0
3, 19080, Note_on_c, 0, 84, 64
3, 19103, Note_on_c, 0, 84, 0
3, 19104, Note_on_c, 0, 82, 64
3, 19127, Note_on_c, 0, 82, 0
3, 19128, Note_on_c, 0, 80, 64
3, 19151, Note_on_c, 0, 80, 0
3, 19152, Note_on_c, 0, 78, 64
3, 19175, Note_on_c, 0, 78, 0
3, 19176, Note_on_c, 0, 77, 64
3, 19199, Note_on_c, 0, 77, 0
3, 19200, Note_on_c, 0, 78, 64
3, 19223, Note_on_c, 0, 78, 0
3, 19224, Note_on_c, 0, 82, 64
3, 19247, Note_on_c, 0, 82, 0
3, 19248, Note_on_c, 0, 80, 64
3, 19271, Note_on_c, 0, 80, 0
3, 19272, Note_on_c, 0, 78, 64
3, 19295, Note_on_c, 0, 78, 0
3, 19296, Note_on_c, 0, 77, 64
3, 19319, Note_on_c, 0, 77, 0
3, 19320, Note_on_c, 0, 75, 64
3, 19343, Note_on_c, 0, 75, 0
3, 19344, Note_on_c, 0, 77, 64
3, 19367, Note_on_c, 0, 77, 0
3, 19368, Note_on_c, 0, 80, 64
3, 19391, Note_on_c, 0, 80, 0
3, 19392, Note_on_c, 0, 78, 64
3, 19415, Note_on_c, 0, 78, 0
3, 19416, Note_on_c, 0, 77, 64
3, 19439, Note_on_c, 0, 77, 0
3, 19440, Note_on_c, 0, 75, 64
3, 19463, Note_on_c, 0, 75, 0
3, 19464, Note_on_c, 0, 73, 64
3, 19487, Note_on_c, 0, 73, 0
3, 19488, Note_on_c, 0, 75, 64
3, 19511, Note_on_c, 0, 75, 0
3, 19512, Note_on_c, 0, 78, 64
3, 19535, Note_on_c, 0, 78, 0
3, 19536, Note_on_c, 0, 77, 64
3, 19559, Note_on_c, 0, 77, 0
3, 19560, Note_on_c, 0, 75, 64
3, 19583, Note_on_c, 0, 75, 0
3, 19584, Note_on_c, 0, 73, 64
3, 19607, Note_on_c, 0, 73, 0
3, 19608, Note_on_c, 0, 72, 64
3, 19631, Note_on_c, 0, 72, 0
3, 19632, Note_on_c, 0, 73, 64
3, 19655, Note_on_c, 0, 73, 0
3, 19656, Note_on_c, 0, 77, 64
3, 19679, Note_on_c, 0, 77, 0
3, 19680, Note_on_c, 0, 75, 64
3, 19703, Note_on_c, 0, 75, 0
3, 19704, Note_on_c, 0, 73, 64
3, 19727, Note_on_c, 0, 73, 0
3, 19728, Note_on_c, 0, 72, 64
3, 19795, Note_on_c, 0, 72, 0
3, 19800, Note_on_c, 0, 72, 64
3, 19823, Note_on_c, 0, 72, 0
3, 19824, Note_on_c, 0, 74, 64
3, 19847, Note_on_c, 0, 74, 0
3, 19848, Note_on_c, 0, 76, 64
3, 19871, Note_on_c, 0, 76, 0
3, 19872, Note_on_c, 0, 77, 64
3, 19895, Note_on_c, 0, 77, 0
3, 19896, Note_on_c, 0, 79, 64
3, 19919, Note_on_c, 0, 79, 0
3, 19920, Note_on_c, 0, 76, 64
3, 19987, Note_on_c, 0, 76, 0
3, 19992, Note_on_c, 0, 77, 64
3, 20015, Note_on_c, 0, 77, 0
3, 20016, Note_on_c, 0, 77, 64
3, 20039, Note_on_c, 0, 77, 0
3, 20040, Note_on_c, 0, 80, 64
3, 20063, Note_on_c, 0, 80, 0
3, 20064, Note_on_c, 0, 76, 64
3, 20087, Note_on_c, 0, 76, 0
3, 20088, Note_on_c, 0, 77, 64
3, 20111, Note_on_c, 0, 77, 0
3, 20112, Note_on_c, 0, 72, 64
3, 20183, Note_on_c, 0, 72, 0
3, 20184, Note_on_c, 0, 82, 64
3, 20207, Note_on_c, 0, 82, 0
3, 20208, Note_on_c, 0, 76, 64
3, 20231, Note_on_c, 0, 76, 0
3, 20232, Note_on_c, 0, 77, 64
3, 20255, Note_on_c, 0, 77, 0
3, 20256, Note_on_c, 0, 72, 64
3, 20327, Note_on_c, 0, 72, 0
3, 20328, Note_on_c, 0, 84, 64
3, 20351, Note_on_c, 0, 84, 0
3, 20352, Note_on_c, 0, 76, 64
3, 20375, Note_on_c, 0, 76, 0
3, 20376, Note_on_c, 0, 77, 64
3, 20399, Note_on_c, 0, 77, 0
3, 20400, Note_on_c, 0, 72, 64
3, 20471, Note_on_c, 0, 72, 0
3, 20472, Note_on_c, 0, 85, 64
3, 20495, Note_on_c, 0, 85, 0
3, 20496, Note_on_c, 0, 76, 64
3, 20519, Note_on_c, 0, 76, 0
3, 20520, Note_on_c, 0, 77, 64
3, 20543, Note_on_c, 0, 77, 0
3, 20544, Note_on_c, 0, 70, 64
3, 20567, Note_on_c, 0, 70, 0
3, 20568, Note_on_c, 0, 79, 64
3, 20591, Note_on_c, 0, 79, 0
3, 20592, Note_on_c, 0, 68, 64
3, 20659, Note_on_c, 0, 68, 0
3, 20664, Note_on_c, 0, 68, 64
3, 20687, Note_on_c, 0, 68, 0
3, 20688, Note_on_c, 0, 64, 64
3, 20711, Note_on_c, 0, 64, 0
3, 20712, Note_on_c, 0, 65, 64
3, 20735, Note_on_c, 0, 65, 0
3, 20736, Note_on_c, 0, 69, 64
3, 20803, Note_on_c, 0, 69, 0
3, 20808, Note_on_c, 0, 72, 64
3, 20831, Note_on_c, 0, 72, 0
3, 20832, Note_on_c, 0, 69, 64
3, 20855, Note_on_c, 0, 69, 0
3, 20856, Note_on_c, 0, 70, 64
3, 20879, Note_on_c, 0, 70, 0
3, 20880, Note_on_c, 0, 77, 64
3, 20947, Note_on_c, 0, 77, 0
3, 20952, Note_on_c, 0, 78, 64
3, 20975, Note_on_c, 0, 78, 0
3, 20976, Note_on_c, 0, 76, 64
3, 20999, Note_on_c, 0, 76, 0
3, 21000, Note_on_c, 0, 77, 64
3, 21023, Note_on_c, 0, 77, 0
3, 21024, Note_on_c, 0, 85, 64
3, 21047, Note_on_c, 0, 85, 0
3, 21048, Note_on_c, 0, 84, 64
3, 21071, Note_on_c, 0, 84, 0
3, 21072, Note_on_c, 0, 80, 64
3, 21084, Note_on_c, 0, 80, 0
3, 21084, Note_on_c, 0, 82, 64
3, 21096, Note_on_c, 0, 82, 0
3, 21096, Note_on_c, 0, 80, 64
3, 21108, Note_on_c, 0, 80, 0
3, 21108, Note_on_c, 0, 82, 64
3, 21120, Note_on_c, 0, 82, 0
3, 21120, Note_on_c, 0, 79, 64
3, 21143, Note_on_c, 0, 79, 0
3, 21144, Note_on_c, 0, 77, 64
3, 21167, Note_on_c, 0, 77, 0
3, 21168, Note_on_c, 0, 77, 64
3, 21301, Note_on_c, 0, 77, 0
3, 21301, End_track
4, 0, Start_track
4, 0, MIDI_port, 0
4, 0, Title_t, "Clavier (LH)"
4, 0, Program_c, 0, 6
4, 0, Control_c, 0, 7, 127
4, 0, Note_on_c, 0, 53, 64
4, 89, Note_on_c, 0, 53, 0
4, 96, Note_on_c, 0, 58, 64
4, 141, Note_on_c, 0, 58, 0
4, 144, Note_on_c, 0, 55, 64
4, 233, Note_on_c, 0, 55, 0
4, 240, Note_on_c, 0, 60, 64
4, 285, Note_on_c, 0, 60, 0
4, 288, Note_on_c, 0, 56, 64
4, 377, Note_on_c, 0, 56, 0
4, 384, Note_on_c, 0, 61, 64
4, 429, Note_on_c, 0, 61, 0
4, 432, Note_on_c, 0, 60, 64
4, 477, Note_on_c, 0, 60, 0
4, 480, Note_on_c, 0, 58, 64
4, 525, Note_on_c, 0, 58, 0
4, 528, Note_on_c, 0, 60, 64
4, 573, Note_on_c, 0, 60, 0
4, 576, Note_on_c, 0, 53, 64
4, 599, Note_on_c, 0, 53, 0
4, 600, Note_on_c, 0, 49, 64
4, 623, Note_on_c, 0, 49, 0
4, 624, Note_on_c, 0, 48, 64
4, 647, Note_on_c, 0, 48, 0
4, 648, Note_on_c, 0, 46, 64
4, 671, Note_on_c, 0, 46, 0
4, 672, Note_on_c, 0, 44, 64
4, 695, Note_on_c, 0, 44, 0
4, 696, Note_on_c, 0, 43, 64
4, 719, Note_on_c, 0, 43, 0
4, 720, Note_on_c, 0, 41, 64
4, 787, Note_on_c, 0, 41, 0
4, 792, Note_on_c, 0, 43, 64
4, 815, Note_on_c, 0, 43, 0
4, 816, Note_on_c, 0, 44, 64
4, 861, Note_on_c, 0, 44, 0
4, 864, Note_on_c, 0, 43, 64
4, 931, Note_on_c, 0, 43, 0
4, 936, Note_on_c, 0, 44, 64
4, 959, Note_on_c, 0, 44, 0
4, 960, Note_on_c, 0, 46, 64
4, 1005, Note_on_c, 0, 46, 0
4, 1008, Note_on_c, 0, 44, 64
4, 1053, Note_on_c, 0, 44, 0
4, 1056, Note_on_c, 0, 41, 64
4, 1101, Note_on_c, 0, 41, 0
4, 1104, Note_on_c, 0, 43, 64
4, 1149, Note_on_c, 0, 43, 0
4, 1152, Note_on_c, 0, 48, 64
4, 1175, Note_on_c, 0, 48, 0
4, 1176, Note_on_c, 0, 50, 64
4, 1199, Note_on_c, 0, 50, 0
4, 1200, Note_on_c, 0, 51, 64
4, 1223, Note_on_c, 0, 51, 0
4, 1224, Note_on_c, 0, 53, 64
4, 1247, Note_on_c, 0, 53, 0
4, 1248, Note_on_c, 0, 55, 64
4, 1271, Note_on_c, 0, 55, 0
4, 1272, Note_on_c, 0, 57, 64
4, 1295, Note_on_c, 0, 57, 0
4, 1296, Note_on_c, 0, 58, 64
4, 1319, Note_on_c, 0, 58, 0
4, 1320, Note_on_c, 0, 60, 64
4, 1343, Note_on_c, 0, 60, 0
4, 1344, Note_on_c, 0, 61, 64
4, 1367, Note_on_c, 0, 61, 0
4, 1368, Note_on_c, 0, 63, 64
4, 1391, Note_on_c, 0, 63, 0
4, 1392, Note_on_c, 0, 65, 64
4, 1415, Note_on_c, 0, 65, 0
4, 1416, Note_on_c, 0, 67, 64
4, 1439, Note_on_c, 0, 67, 0
4, 1440, Note_on_c, 0, 68, 64
4, 1507, Note_on_c, 0, 68, 0
4, 1512, Note_on_c, 0, 68, 64
4, 1535, Note_on_c, 0, 68, 0
4, 1536, Note_on_c, 0, 67, 64
4, 1559, Note_on_c, 0, 67, 0
4, 1560, Note_on_c, 0, 65, 64
4, 1583, Note_on_c, 0, 65, 0
4, 1584, Note_on_c, 0, 64, 64
4, 1607, Note_on_c, 0, 64, 0
4, 1608, Note_on_c, 0, 62, 64
4, 1631, Note_on_c, 0, 62, 0
4, 1632, Note_on_c, 0, 60, 64
4, 1655, Note_on_c, 0, 60, 0
4, 1656, Note_on_c, 0, 58, 64
4, 1679, Note_on_c, 0, 58, 0
4, 1680, Note_on_c, 0, 56, 64
4, 1703, Note_on_c, 0, 56, 0
4, 1704, Note_on_c, 0, 55, 64
4, 1727, Note_on_c, 0, 55, 0
4, 1728, Note_on_c, 0, 53, 64
4, 1773, Note_on_c, 0, 53, 0
4, 1776, Note_on_c, 0, 48, 64
4, 1821, Note_on_c, 0, 48, 0
4, 1824, Note_on_c, 0, 49, 64
4, 1917, Note_on_c, 0, 49, 0
4, 1920, Note_on_c, 0, 50, 64
4, 1965, Note_on_c, 0, 50, 0
4, 1968, Note_on_c, 0, 51, 64
4, 2061, Note_on_c, 0, 51, 0
4, 2064, Note_on_c, 0, 52, 64
4, 2109, Note_on_c, 0, 52, 0
4, 2112, Note_on_c, 0, 53, 64
4, 2183, Note_on_c, 0, 53, 0
4, 2184, Note_on_c, 0, 55, 64
4, 2207, Note_on_c, 0, 55, 0
4, 2208, Note_on_c, 0, 55, 64
4, 2220, Note_on_c, 0, 55, 0
4, 2220, Note_on_c, 0, 56, 64
4, 2232, Note_on_c, 0, 56, 0
4, 2232, Note_on_c, 0, 55, 64
4, 2244, Note_on_c, 0, 55, 0
4, 2244, Note_on_c, 0, 56, 64
4, 2256, Note_on_c, 0, 56, 0
4, 2256, Note_on_c, 0, 55, 64
4, 2268, Note_on_c, 0, 55, 0
4, 2268, Note_on_c, 0, 56, 64
4, 2280, Note_on_c, 0, 56, 0
4, 2280, Note_on_c, 0, 53, 64
4, 2292, Note_on_c, 0, 53, 0
4, 2292, Note_on_c, 0, 55, 64
4, 2304, Note_on_c, 0, 55, 0
4, 2304, Note_on_c, 0, 56, 64
4, 2371, Note_on_c, 0, 56, 0
4, 2376, Note_on_c, 0, 61, 64
4, 2399, Note_on_c, 0, 61, 0
4, 2400, Note_on_c, 0, 60, 64
4, 2423, Note_on_c, 0, 60, 0
4, 2424, Note_on_c, 0, 58, 64
4, 2447, Note_on_c, 0, 58, 0
4, 2448, Note_on_c, 0, 57, 64
4, 2471, Note_on_c, 0, 57, 0
4, 2472, Note_on_c, 0, 55, 64
4, 2495, Note_on_c, 0, 55, 0
4, 2496, Note_on_c, 0, 53, 64
4, 2519, Note_on_c, 0, 53, 0
4, 2520, Note_on_c, 0, 51, 64
4, 2543, Note_on_c, 0, 51, 0
4, 2544, Note_on_c, 0, 49, 64
4, 2567, Note_on_c, 0, 49, 0
4, 2568, Note_on_c, 0, 48, 64
4, 2591, Note_on_c, 0, 48, 0
4, 2592, Note_on_c, 0, 46, 64
4, 2659, Note_on_c, 0, 46, 0
4, 2664, Note_on_c, 0, 51, 64
4, 2687, Note_on_c, 0, 51, 0
4, 2688, Note_on_c, 0, 50, 64
4, 2711, Note_on_c, 0, 50, 0
4, 2712, Note_on_c, 0, 48, 64
4, 2735, Note_on_c, 0, 48, 0
4, 2736, Note_on_c, 0, 47, 64
4, 2759, Note_on_c, 0, 47, 0
4, 2760, Note_on_c, 0, 45, 64
4, 2783, Note_on_c, 0, 45, 0
4, 2784, Note_on_c, 0, 43, 64
4, 2807, Note_on_c, 0, 43, 0
4, 2808, Note_on_c, 0, 41, 64
4, 2831, Note_on_c, 0, 41, 0
4, 2832, Note_on_c, 0, 39, 64
4, 2855, Note_on_c, 0, 39, 0
4, 2856, Note_on_c, 0, 38, 64
4, 2879, Note_on_c, 0, 38, 0
4, 2880, Note_on_c, 0, 36, 64
4, 2947, Note_on_c, 0, 36, 0
4, 3024, Note_on_c, 0, 68, 64
4, 3047, Note_on_c, 0, 68, 0
4, 3048, Note_on_c, 0, 67, 64
4, 3071, Note_on_c, 0, 67, 0
4, 3072, Note_on_c, 0, 65, 64
4, 3095, Note_on_c, 0, 65, 0
4, 3096, Note_on_c, 0, 63, 64
4, 3119, Note_on_c, 0, 63, 0
4, 3120, Note_on_c, 0, 62, 64
4, 3143, Note_on_c, 0, 62, 0
4, 3144, Note_on_c, 0, 60, 64
4, 3167, Note_on_c, 0, 60, 0
4, 3168, Note_on_c, 0, 58, 64
4, 3191, Note_on_c, 0, 58, 0
4, 3192, Note_on_c, 0, 56, 64
4, 3215, Note_on_c, 0, 56, 0
4, 3216, Note_on_c, 0, 55, 64
4, 3239, Note_on_c, 0, 55, 0
4, 3240, Note_on_c, 0, 53, 64
4, 3263, Note_on_c, 0, 53, 0
4, 3264, Note_on_c, 0, 51, 64
4, 3287, Note_on_c, 0, 51, 0
4, 3288, Note_on_c, 0, 50, 64
4, 3311, Note_on_c, 0, 50, 0
4, 3312, Note_on_c, 0, 48, 64
4, 3357, Note_on_c, 0, 48, 0
4, 3360, Note_on_c, 0, 60, 64
4, 3405, Note_on_c, 0, 60, 0
4, 3408, Note_on_c, 0, 59, 64
4, 3453, Note_on_c, 0, 59, 0
4, 3456, Note_on_c, 0, 60, 64
4, 3479, Note_on_c, 0, 60, 0
4, 3480, Note_on_c, 0, 70, 64
4, 3503, Note_on_c, 0, 70, 0
4, 3504, Note_on_c, 0, 68, 64
4, 3527, Note_on_c, 0, 68, 0
4, 3528, Note_on_c, 0, 67, 64
4, 3551, Note_on_c, 0, 67, 0
4, 3552, Note_on_c, 0, 65, 64
4, 3575, Note_on_c, 0, 65, 0
4, 3576, Note_on_c, 0, 63, 64
4, 3599, Note_on_c, 0, 63, 0
4, 3600, Note_on_c, 0, 61, 64
4, 3623, Note_on_c, 0, 61, 0
4, 3624, Note_on_c, 0, 60, 64
4, 3647, Note_on_c, 0, 60, 0
4, 3648, Note_on_c, 0, 58, 64
4, 3671, Note_on_c, 0, 58, 0
4, 3672, Note_on_c, 0, 56, 64
4, 3695, Note_on_c, 0, 56, 0
4, 3696, Note_on_c, 0, 55, 64
4, 3719, Note_on_c, 0, 55, 0
4, 3720, Note_on_c, 0, 53, 64
4, 3743, Note_on_c, 0, 53, 0
4, 3744, Note_on_c, 0, 51, 64
4, 3767, Note_on_c, 0, 51, 0
4, 3768, Note_on_c, 0, 49, 64
4, 3791, Note_on_c, 0, 49, 0
4, 3792, Note_on_c, 0, 48, 64
4, 3815, Note_on_c, 0, 48, 0
4, 3816, Note_on_c, 0, 46, 64
4, 3839, Note_on_c, 0, 46, 0
4, 3840, Note_on_c, 0, 44, 64
4, 3863, Note_on_c, 0, 44, 0
4, 3864, Note_on_c, 0, 43, 64
4, 3887, Note_on_c, 0, 43, 0
4, 3888, Note_on_c, 0, 41, 64
4, 3933, Note_on_c, 0, 41, 0
4, 3936, Note_on_c, 0, 53, 64
4, 3981, Note_on_c, 0, 53, 0
4, 3984, Note_on_c, 0, 52, 64
4, 4029, Note_on_c, 0, 52, 0
4, 4032, Note_on_c, 0, 53, 64
4, 4077, Note_on_c, 0, 53, 0
4, 4080, Note_on_c, 0, 41, 64
4, 4125, Note_on_c, 0, 41, 0
4, 4128, Note_on_c, 0, 53, 64
4, 4173, Note_on_c, 0, 53, 0
4, 4176, Note_on_c, 0, 55, 64
4, 4221, Note_on_c, 0, 55, 0
4, 4224, Note_on_c, 0, 43, 64
4, 4269, Note_on_c, 0, 43, 0
4, 4272, Note_on_c, 0, 55, 64
4, 4317, Note_on_c, 0, 55, 0
4, 4320, Note_on_c, 0, 56, 64
4, 4365, Note_on_c, 0, 56, 0
4, 4368, Note_on_c, 0, 44, 64
4, 4413, Note_on_c, 0, 44, 0
4, 4416, Note_on_c, 0, 56, 64
4, 4461, Note_on_c, 0, 56, 0
4, 4464, Note_on_c, 0, 58, 64
4, 4509, Note_on_c, 0, 58, 0
4, 4512, Note_on_c, 0, 55, 64
4, 4557, Note_on_c, 0, 55, 0
4, 4560, Note_on_c, 0, 58, 64
4, 4605, Note_on_c, 0, 58, 0
4, 4608, Note_on_c, 0, 55, 64
4, 4653, Note_on_c, 0, 55, 0
4, 4656, Note_on_c, 0, 50, 64
4, 4701, Note_on_c, 0, 50, 0
4, 4704, Note_on_c, 0, 53, 64
4, 4749, Note_on_c, 0, 53, 0
4, 4752, Note_on_c, 0, 55, 64
4, 4797, Note_on_c, 0, 55, 0
4, 4800, Note_on_c, 0, 57, 64
4, 4845, Note_on_c, 0, 57, 0
4, 4848, Note_on_c, 0, 59, 64
4, 4893, Note_on_c, 0, 59, 0
4, 4896, Note_on_c, 0, 60, 64
4, 4941, Note_on_c, 0, 60, 0
4, 4944, Note_on_c, 0, 48, 64
4, 4989, Note_on_c, 0, 48, 0
4, 4992, Note_on_c, 0, 51, 64
4, 5037, Note_on_c, 0, 51, 0
4, 5040, Note_on_c, 0, 53, 64
4, 5085, Note_on_c, 0, 53, 0
4, 5088, Note_on_c, 0, 55, 64
4, 5133, Note_on_c, 0, 55, 0
4, 5136, Note_on_c, 0, 57, 64
4, 5181, Note_on_c, 0, 57, 0
4, 5184, Note_on_c, 0, 58, 64
4, 5229, Note_on_c, 0, 58, 0
4, 5232, Note_on_c, 0, 46, 64
4, 5277, Note_on_c, 0, 46, 0
4, 5280, Note_on_c, 0, 49, 64
4, 5325, Note_on_c, 0, 49, 0
4, 5328, Note_on_c, 0, 51, 64
4, 5373, Note_on_c, 0, 51, 0
4, 5376, Note_on_c, 0, 53, 64
4, 5421, Note_on_c, 0, 53, 0
4, 5424, Note_on_c, 0, 55, 64
4, 5469, Note_on_c, 0, 55, 0
4, 5472, Note_on_c, 0, 56, 64
4, 5517, Note_on_c, 0, 56, 0
4, 5520, Note_on_c, 0, 44, 64
4, 5565, Note_on_c, 0, 44, 0
4, 5568, Note_on_c, 0, 56, 64
4, 5613, Note_on_c, 0, 56, 0
4, 5616, Note_on_c, 0, 58, 64
4, 5661, Note_on_c, 0, 58, 0
4, 5664, Note_on_c, 0, 46, 64
4, 5709, Note_on_c, 0, 46, 0
4, 5712, Note_on_c, 0, 58, 64
4, 5757, Note_on_c, 0, 58, 0
4, 5760, Note_on_c, 0, 60, 64
4, 5805, Note_on_c, 0, 60, 0
4, 5808, Note_on_c, 0, 48, 64
4, 5853, Note_on_c, 0, 48, 0
4, 5856, Note_on_c, 0, 60, 64
4, 5901, Note_on_c, 0, 60, 0
4, 5904, Note_on_c, 0, 61, 64
4, 5949, Note_on_c, 0, 61, 0
4, 5952, Note_on_c, 0, 58, 64
4, 5997, Note_on_c, 0, 58, 0
4, 6000, Note_on_c, 0, 51, 64
4, 6045, Note_on_c, 0, 51, 0
4, 6048, Note_on_c, 0, 56, 64
4, 6071, Note_on_c, 0, 56, 0
4, 6072, Note_on_c, 0, 58, 64
4, 6095, Note_on_c, 0, 58, 0
4, 6096, Note_on_c, 0, 56, 64
4, 6119, Note_on_c, 0, 56, 0
4, 6120, Note_on_c, 0, 55, 64
4, 6143, Note_on_c, 0, 55, 0
4, 6144, Note_on_c, 0, 53, 64
4, 6167, Note_on_c, 0, 53, 0
4, 6168, Note_on_c, 0, 51, 64
4, 6191, Note_on_c, 0, 51, 0
4, 6192, Note_on_c, 0, 50, 64
4, 6237, Note_on_c, 0, 50, 0
4, 6240, Note_on_c, 0, 52, 64
4, 6285, Note_on_c, 0, 52, 0
4, 6288, Note_on_c, 0, 48, 64
4, 6333, Note_on_c, 0, 48, 0
4, 6336, Note_on_c, 0, 53, 64
4, 6359, Note_on_c, 0, 53, 0
4, 6360, Note_on_c, 0, 55, 64
4, 6383, Note_on_c, 0, 55, 0
4, 6384, Note_on_c, 0, 53, 64
4, 6407, Note_on_c, 0, 53, 0
4, 6408, Note_on_c, 0, 51, 64
4, 6431, Note_on_c, 0, 51, 0
4, 6432, Note_on_c, 0, 50, 64
4, 6455, Note_on_c, 0, 50, 0
4, 6456, Note_on_c, 0, 48, 64
4, 6479, Note_on_c, 0, 48, 0
4, 6480, Note_on_c, 0, 47, 64
4, 6525, Note_on_c, 0, 47, 0
4, 6528, Note_on_c, 0, 48, 64
4, 6573, Note_on_c, 0, 48, 0
4, 6576, Note_on_c, 0, 60, 64
4, 6621, Note_on_c, 0, 60, 0
4, 6624, Note_on_c, 0, 61, 64
4, 6647, Note_on_c, 0, 61, 0
4, 6648, Note_on_c, 0, 63, 64
4, 6671, Note_on_c, 0, 63, 0
4, 6672, Note_on_c, 0, 61, 64
4, 6695, Note_on_c, 0, 61, 0
4, 6696, Note_on_c, 0, 60, 64
4, 6719, Note_on_c, 0, 60, 0
4, 6720, Note_on_c, 0, 58, 64
4, 6743, Note_on_c, 0, 58, 0
4, 6744, Note_on_c, 0, 56, 64
4, 6767, Note_on_c, 0, 56, 0
4, 6768, Note_on_c, 0, 55, 64
4, 6813, Note_on_c, 0, 55, 0
4, 6816, Note_on_c, 0, 56, 64
4, 6861, Note_on_c, 0, 56, 0
4, 6864, Note_on_c, 0, 53, 64
4, 6909, Note_on_c, 0, 53, 0
4, 6912, Note_on_c, 0, 49, 64
4, 6957, Note_on_c, 0, 49, 0
4, 6960, Note_on_c, 0, 51, 64
4, 7005, Note_on_c, 0, 51, 0
4, 7008, Note_on_c, 0, 52, 64
4, 7053, Note_on_c, 0, 52, 0
4, 7056, Note_on_c, 0, 53, 64
4, 7101, Note_on_c, 0, 53, 0
4, 7104, Note_on_c, 0, 56, 64
4, 7149, Note_on_c, 0, 56, 0
4, 7152, Note_on_c, 0, 61, 64
4, 7197, Note_on_c, 0, 61, 0
4, 7200, Note_on_c, 0, 58, 64
4, 7245, Note_on_c, 0, 58, 0
4, 7248, Note_on_c, 0, 60, 64
4, 7293, Note_on_c, 0, 60, 0
4, 7296, Note_on_c, 0, 58, 64
4, 7341, Note_on_c, 0, 58, 0
4, 7344, Note_on_c, 0, 57, 64
4, 7367, Note_on_c, 0, 57, 0
4, 7368, Note_on_c, 0, 60, 64
4, 7391, Note_on_c, 0, 60, 0
4, 7392, Note_on_c, 0, 58, 64
4, 7415, Note_on_c, 0, 58, 0
4, 7416, Note_on_c, 0, 56, 64
4, 7439, Note_on_c, 0, 56, 0
4, 7440, Note_on_c, 0, 55, 64
4, 7463, Note_on_c, 0, 55, 0
4, 7464, Note_on_c, 0, 53, 64
4, 7487, Note_on_c, 0, 53, 0
4, 7488, Note_on_c, 0, 55, 64
4, 7511, Note_on_c, 0, 55, 0
4, 7512, Note_on_c, 0, 58, 64
4, 7535, Note_on_c, 0, 58, 0
4, 7536, Note_on_c, 0, 56, 64
4, 7559, Note_on_c, 0, 56, 0
4, 7560, Note_on_c, 0, 55, 64
4, 7583, Note_on_c, 0, 55, 0
4, 7584, Note_on_c, 0, 53, 64
4, 7607, Note_on_c, 0, 53, 0
4, 7608, Note_on_c, 0, 51, 64
4, 7631, Note_on_c, 0, 51, 0
4, 7632, Note_on_c, 0, 53, 64
4, 7677, Note_on_c, 0, 53, 0
4, 7680, Note_on_c, 0, 55, 64
4, 7725, Note_on_c, 0, 55, 0
4, 7728, Note_on_c, 0, 56, 64
4, 7773, Note_on_c, 0, 56, 0
4, 7776, Note_on_c, 0, 55, 64
4, 7821, Note_on_c, 0, 55, 0
4, 7824, Note_on_c, 0, 43, 64
4, 7869, Note_on_c, 0, 43, 0
4, 7872, Note_on_c, 0, 44, 64
4, 7965, Note_on_c, 0, 44, 0
4, 7968, Note_on_c, 0, 45, 64
4, 8013, Note_on_c, 0, 45, 0
4, 8016, Note_on_c, 0, 46, 64
4, 8109, Note_on_c, 0, 46, 0
4, 8112, Note_on_c, 0, 47, 64
4, 8157, Note_on_c, 0, 47, 0
4, 8160, Note_on_c, 0, 48, 64
4, 8231, Note_on_c, 0, 48, 0
4, 8232, Note_on_c, 0, 50, 64
4, 8255, Note_on_c, 0, 50, 0
4, 8256, Note_on_c, 0, 50, 64
4, 8268, Note_on_c, 0, 50, 0
4, 8268, Note_on_c, 0, 51, 64
4, 8280, Note_on_c, 0, 51, 0
4, 8280, Note_on_c, 0, 50, 64
4, 8292, Note_on_c, 0, 50, 0
4, 8292, Note_on_c, 0, 51, 64
4, 8304, Note_on_c, 0, 51, 0
4, 8304, Note_on_c, 0, 50, 64
4, 8316, Note_on_c, 0, 50, 0
4, 8316, Note_on_c, 0, 51, 64
4, 8328, Note_on_c, 0, 51, 0
4, 8328, Note_on_c, 0, 48, 64
4, 8340, Note_on_c, 0, 48, 0
4, 8340, Note_on_c, 0, 50, 64
4, 8352, Note_on_c, 0, 50, 0
4, 8352, Note_on_c, 0, 51, 64
4, 8375, Note_on_c, 0, 51, 0
4, 8376, Note_on_c, 0, 53, 64
4, 8399, Note_on_c, 0, 53, 0
4, 8400, Note_on_c, 0, 53, 64
4, 8412, Note_on_c, 0, 53, 0
4, 8412, Note_on_c, 0, 55, 64
4, 8424, Note_on_c, 0, 55, 0
4, 8424, Note_on_c, 0, 53, 64
4, 8436, Note_on_c, 0, 53, 0
4, 8436, Note_on_c, 0, 55, 64
4, 8448, Note_on_c, 0, 55, 0
4, 8448, Note_on_c, 0, 53, 64
4, 8460, Note_on_c, 0, 53, 0
4, 8460, Note_on_c, 0, 55, 64
4, 8472, Note_on_c, 0, 55, 0
4, 8472, Note_on_c, 0, 51, 64
4, 8484, Note_on_c, 0, 51, 0
4, 8484, Note_on_c, 0, 53, 64
4, 8496, Note_on_c, 0, 53, 0
4, 8496, Note_on_c, 0, 55, 64
4, 8541, Note_on_c, 0, 55, 0
4, 8544, Note_on_c, 0, 41, 64
4, 8589, Note_on_c, 0, 41, 0
4, 8592, Note_on_c, 0, 43, 64
4, 8637, Note_on_c, 0, 43, 0
4, 8640, Note_on_c, 0, 36, 64
4, 8663, Note_on_c, 0, 36, 0
4, 8664, Note_on_c, 0, 48, 64
4, 8687, Note_on_c, 0, 48, 0
4, 8688, Note_on_c, 0, 46, 64
4, 8711, Note_on_c, 0, 46, 0
4, 8712, Note_on_c, 0, 44, 64
4, 8735, Note_on_c, 0, 44, 0
4, 8736, Note_on_c, 0, 43, 64
4, 8759, Note_on_c, 0, 43, 0
4, 8760, Note_on_c, 0, 41, 64
4, 8783, Note_on_c, 0, 41, 0
4, 8784, Note_on_c, 0, 49, 64
4, 8873, Note_on_c, 0, 49, 0
4, 8928, Note_on_c, 0, 50, 64
4, 8951, Note_on_c, 0, 50, 0
4, 8952, Note_on_c, 0, 53, 64
4, 8975, Note_on_c, 0, 53, 0
4, 8976, Note_on_c, 0, 51, 64
4, 8999, Note_on_c, 0, 51, 0
4, 9000, Note_on_c, 0, 50, 64
4, 9023, Note_on_c, 0, 50, 0
4, 9024, Note_on_c, 0, 48, 64
4, 9047, Note_on_c, 0, 48, 0
4, 9048, Note_on_c, 0, 46, 64
4, 9071, Note_on_c, 0, 46, 0
4, 9072, Note_on_c, 0, 51, 64
4, 9161, Note_on_c, 0, 51, 0
4, 9216, Note_on_c, 0, 52, 64
4, 9239, Note_on_c, 0, 52, 0
4, 9240, Note_on_c, 0, 55, 64
4, 9263, Note_on_c, 0, 55, 0
4, 9264, Note_on_c, 0, 53, 64
4, 9287, Note_on_c, 0, 53, 0
4, 9288, Note_on_c, 0, 52, 64
4, 9311, Note_on_c, 0, 52, 0
4, 9312, Note_on_c, 0, 50, 64
4, 9335, Note_on_c, 0, 50, 0
4, 9336, Note_on_c, 0, 48, 64
4, 9359, Note_on_c, 0, 48, 0
4, 9360, Note_on_c, 0, 53, 64
4, 9405, Note_on_c, 0, 53, 0
4, 9408, Note_on_c, 0, 48, 64
4, 9453, Note_on_c, 0, 48, 0
4, 9456, Note_on_c, 0, 44, 64
4, 9501, Note_on_c, 0, 44, 0
4, 9504, Note_on_c, 0, 41, 64
4, 9527, Note_on_c, 0, 41, 0
4, 9528, Note_on_c, 0, 53, 64
4, 9551, Note_on_c, 0, 53, 0
4, 9552, Note_on_c, 0, 51, 64
4, 9575, Note_on_c, 0, 51, 0
4, 9576, Note_on_c, 0, 49, 64
4, 9599, Note_on_c, 0, 49, 0
4, 9600, Note_on_c, 0, 48, 64
4, 9623, Note_on_c, 0, 48, 0
4, 9624, Note_on_c, 0, 46, 64
4, 9647, Note_on_c, 0, 46, 0
4, 9648, Note_on_c, 0, 54, 64
4, 9737, Note_on_c, 0, 54, 0
4, 9792, Note_on_c, 0, 55, 64
4, 9815, Note_on_c, 0, 55, 0
4, 9816, Note_on_c, 0, 58, 64
4, 9839, Note_on_c, 0, 58, 0
4, 9840, Note_on_c, 0, 56, 64
4, 9863, Note_on_c, 0, 56, 0
4, 9864, Note_on_c, 0, 55, 64
4, 9887, Note_on_c, 0, 55, 0
4, 9888, Note_on_c, 0, 53, 64
4, 9911, Note_on_c, 0, 53, 0
4, 9912, Note_on_c, 0, 51, 64
4, 9935, Note_on_c, 0, 51, 0
4, 9936, Note_on_c, 0, 56, 64
4, 10025, Note_on_c, 0, 56, 0
4, 10080, Note_on_c, 0, 57, 64
4, 10103, Note_on_c, 0, 57, 0
4, 10104, Note_on_c, 0, 60, 64
4, 10127, Note_on_c, 0, 60, 0
4, 10128, Note_on_c, 0, 58, 64
4, 10151, Note_on_c, 0, 58, 0
4, 10152, Note_on_c, 0, 57, 64
4, 10175, Note_on_c, 0, 57, 0
4, 10176, Note_on_c, 0, 55, 64
4, 10199, Note_on_c, 0, 55, 0
4, 10200, Note_on_c, 0, 53, 64
4, 10223, Note_on_c, 0, 53, 0
4, 10224, Note_on_c, 0, 58, 64
4, 10269, Note_on_c, 0, 58, 0
4, 10272, Note_on_c, 0, 53, 64
4, 10317, Note_on_c, 0, 53, 0
4, 10320, Note_on_c, 0, 49, 64
4, 10365, Note_on_c, 0, 49, 0
4, 10368, Note_on_c, 0, 46, 64
4, 10413, Note_on_c, 0, 46, 0
4, 10416, Note_on_c, 0, 41, 64
4, 10461, Note_on_c, 0, 41, 0
4, 10464, Note_on_c, 0, 42, 64
4, 10557, Note_on_c, 0, 42, 0
4, 10560, Note_on_c, 0, 43, 64
4, 10605, Note_on_c, 0, 43, 0
4, 10608, Note_on_c, 0, 44, 64
4, 10701, Note_on_c, 0, 44, 0
4, 10704, Note_on_c, 0, 45, 64
4, 10749, Note_on_c, 0, 45, 0
4, 10752, Note_on_c, 0, 46, 64
4, 10823, Note_on_c, 0, 46, 0
4, 10824, Note_on_c, 0, 48, 64
4, 10847, Note_on_c, 0, 48, 0
4, 10848, Note_on_c, 0, 48, 64
4, 10860, Note_on_c, 0, 48, 0
4, 10860, Note_on_c, 0, 49, 64
4, 10872, Note_on_c, 0, 49, 0
4, 10872, Note_on_c, 0, 48, 64
4, 10884, Note_on_c, 0, 48, 0
4, 10884, Note_on_c, 0, 49, 64
4, 10896, Note_on_c, 0, 49, 0
4, 10896, Note_on_c, 0, 48, 64
4, 10908, Note_on_c, 0, 48, 0
4, 10908, Note_on_c, 0, 49, 64
4, 10920, Note_on_c, 0, 49, 0
4, 10920, Note_on_c, 0, 46, 64
4, 10932, Note_on_c, 0, 46, 0
4, 10932, Note_on_c, 0, 48, 64
4, 10944, Note_on_c, 0, 48, 0
4, 10944, Note_on_c, 0, 49, 64
4, 11011, Note_on_c, 0, 49, 0
4, 11016, Note_on_c, 0, 54, 64
4, 11039, Note_on_c, 0, 54, 0
4, 11040, Note_on_c, 0, 53, 64
4, 11063, Note_on_c, 0, 53, 0
4, 11064, Note_on_c, 0, 51, 64
4, 11087, Note_on_c, 0, 51, 0
4, 11088, Note_on_c, 0, 50, 64
4, 11111, Note_on_c, 0, 50, 0
4, 11112, Note_on_c, 0, 48, 64
4, 11135, Note_on_c, 0, 48, 0
4, 11136, Note_on_c, 0, 46, 64
4, 11159, Note_on_c, 0, 46, 0
4, 11160, Note_on_c, 0, 44, 64
4, 11183, Note_on_c, 0, 44, 0
4, 11184, Note_on_c, 0, 42, 64
4, 11207, Note_on_c, 0, 42, 0
4, 11208, Note_on_c, 0, 41, 64
4, 11231, Note_on_c, 0, 41, 0
4, 11232, Note_on_c, 0, 39, 64
4, 11299, Note_on_c, 0, 39, 0
4, 11304, Note_on_c, 0, 56, 64
4, 11327, Note_on_c, 0, 56, 0
4, 11328, Note_on_c, 0, 55, 64
4, 11351, Note_on_c, 0, 55, 0
4, 11352, Note_on_c, 0, 53, 64
4, 11375, Note_on_c, 0, 53, 0
4, 11376, Note_on_c, 0, 52, 64
4, 11399, Note_on_c, 0, 52, 0
4, 11400, Note_on_c, 0, 50, 64
4, 11423, Note_on_c, 0, 50, 0
4, 11424, Note_on_c, 0, 48, 64
4, 11447, Note_on_c, 0, 48, 0
4, 11448, Note_on_c, 0, 46, 64
4, 11471, Note_on_c, 0, 46, 0
4, 11472, Note_on_c, 0, 44, 64
4, 11495, Note_on_c, 0, 44, 0
4, 11496, Note_on_c, 0, 43, 64
4, 11519, Note_on_c, 0, 43, 0
4, 11520, Note_on_c, 0, 41, 64
4, 11587, Note_on_c, 0, 41, 0
4, 11592, Note_on_c, 0, 67, 64
4, 11615, Note_on_c, 0, 67, 0
4, 11616, Note_on_c, 0, 65, 64
4, 11639, Note_on_c, 0, 65, 0
4, 11640, Note_on_c, 0, 63, 64
4, 11663, Note_on_c, 0, 63, 0
4, 11664, Note_on_c, 0, 61, 64
4, 11687, Note_on_c, 0, 61, 0
4, 11688, Note_on_c, 0, 60, 64
4, 11711, Note_on_c, 0, 60, 0
4, 11712, Note_on_c, 0, 58, 64
4, 11735, Note_on_c, 0, 58, 0
4, 11736, Note_on_c, 0, 56, 64
4, 11759, Note_on_c, 0, 56, 0
4, 11760, Note_on_c, 0, 55, 64
4, 11783, Note_on_c, 0, 55, 0
4, 11784, Note_on_c, 0, 53, 64
4, 11807, Note_on_c, 0, 53, 0
4, 11808, Note_on_c, 0, 51, 64
4, 11831, Note_on_c, 0, 51, 0
4, 11832, Note_on_c, 0, 49, 64
4, 11855, Note_on_c, 0, 49, 0
4, 11856, Note_on_c, 0, 48, 64
4, 11879, Note_on_c, 0, 48, 0
4, 11880, Note_on_c, 0, 46, 64
4, 11903, Note_on_c, 0, 46, 0
4, 11904, Note_on_c, 0, 44, 64
4, 11927, Note_on_c, 0, 44, 0
4, 11928, Note_on_c, 0, 43, 64
4, 11951, Note_on_c, 0, 43, 0
4, 11952, Note_on_c, 0, 41, 64
4, 11997, Note_on_c, 0, 41, 0
4, 12000, Note_on_c, 0, 53, 64
4, 12045, Note_on_c, 0, 53, 0
4, 12048, Note_on_c, 0, 52, 64
4, 12093, Note_on_c, 0, 52, 0
4, 12096, Note_on_c, 0, 53, 64
4, 12119, Note_on_c, 0, 53, 0
4, 12120, Note_on_c, 0, 65, 64
4, 12143, Note_on_c, 0, 65, 0
4, 12144, Note_on_c, 0, 63, 64
4, 12167, Note_on_c, 0, 63, 0
4, 12168, Note_on_c, 0, 60, 64
4, 12191, Note_on_c, 0, 60, 0
4, 12192, Note_on_c, 0, 60, 64
4, 12215, Note_on_c, 0, 60, 0
4, 12216, Note_on_c, 0, 58, 64
4, 12239, Note_on_c, 0, 58, 0
4, 12240, Note_on_c, 0, 56, 64
4, 12263, Note_on_c, 0, 56, 0
4, 12264, Note_on_c, 0, 55, 64
4, 12287, Note_on_c, 0, 55, 0
4, 12288, Note_on_c, 0, 53, 64
4, 12311, Note_on_c, 0, 53, 0
4, 12312, Note_on_c, 0, 51, 64
4, 12335, Note_on_c, 0, 51, 0
4, 12336, Note_on_c, 0, 50, 64
4, 12359, Note_on_c, 0, 50, 0
4, 12360, Note_on_c, 0, 48, 64
4, 12383, Note_on_c, 0, 48, 0
4, 12384, Note_on_c, 0, 46, 64
4, 12407, Note_on_c, 0, 46, 0
4, 12408, Note_on_c, 0, 44, 64
4, 12431, Note_on_c, 0, 44, 0
4, 12432, Note_on_c, 0, 43, 64
4, 12455, Note_on_c, 0, 43, 0
4, 12456, Note_on_c, 0, 41, 64
4, 12479, Note_on_c, 0, 41, 0
4, 12480, Note_on_c, 0, 39, 64
4, 12503, Note_on_c, 0, 39, 0
4, 12504, Note_on_c, 0, 38, 64
4, 12527, Note_on_c, 0, 38, 0
4, 12528, Note_on_c, 0, 36, 64
4, 12573, Note_on_c, 0, 36, 0
4, 12576, Note_on_c, 0, 48, 64
4, 12621, Note_on_c, 0, 48, 0
4, 12624, Note_on_c, 0, 47, 64
4, 12669, Note_on_c, 0, 47, 0
4, 12672, Note_on_c, 0, 48, 64
4, 12717, Note_on_c, 0, 48, 0
4, 12720, Note_on_c, 0, 36, 64
4, 12765, Note_on_c, 0, 36, 0
4, 12768, Note_on_c, 0, 48, 64
4, 12813, Note_on_c, 0, 48, 0
4, 12816, Note_on_c, 0, 50, 64
4, 12861, Note_on_c, 0, 50, 0
4, 12864, Note_on_c, 0, 38, 64
4, 12909, Note_on_c, 0, 38, 0
4, 12912, Note_on_c, 0, 50, 64
4, 12957, Note_on_c, 0, 50, 0
4, 12960, Note_on_c, 0, 51, 64
4, 13005, Note_on_c, 0, 51, 0
4, 13008, Note_on_c, 0, 39, 64
4, 13053, Note_on_c, 0, 39, 0
4, 13056, Note_on_c, 0, 51, 64
4, 13101, Note_on_c, 0, 51, 0
4, 13104, Note_on_c, 0, 53, 64
4, 13149, Note_on_c, 0, 53, 0
4, 13152, Note_on_c, 0, 50, 64
4, 13197, Note_on_c, 0, 50, 0
4, 13200, Note_on_c, 0, 55, 64
4, 13245, Note_on_c, 0, 55, 0
4, 13248, Note_on_c, 0, 48, 64
4, 13293, Note_on_c, 0, 48, 0
4, 13296, Note_on_c, 0, 45, 64
4, 13341, Note_on_c, 0, 45, 0
4, 13344, Note_on_c, 0, 48, 64
4, 13389, Note_on_c, 0, 48, 0
4, 13392, Note_on_c, 0, 50, 64
4, 13437, Note_on_c, 0, 50, 0
4, 13440, Note_on_c, 0, 52, 64
4, 13485, Note_on_c, 0, 52, 0
4, 13488, Note_on_c, 0, 54, 64
4, 13533, Note_on_c, 0, 54, 0
4, 13536, Note_on_c, 0, 55, 64
4, 13581, Note_on_c, 0, 55, 0
4, 13584, Note_on_c, 0, 43, 64
4, 13629, Note_on_c, 0, 43, 0
4, 13632, Note_on_c, 0, 46, 64
4, 13677, Note_on_c, 0, 46, 0
4, 13680, Note_on_c, 0, 48, 64
4, 13725, Note_on_c, 0, 48, 0
4, 13728, Note_on_c, 0, 50, 64
4, 13773, Note_on_c, 0, 50, 0
4, 13776, Note_on_c, 0, 52, 64
4, 13821, Note_on_c, 0, 52, 0
4, 13824, Note_on_c, 0, 53, 64
4, 13869, Note_on_c, 0, 53, 0
4, 13872, Note_on_c, 0, 41, 64
4, 13917, Note_on_c, 0, 41, 0
4, 13920, Note_on_c, 0, 44, 64
4, 13965, Note_on_c, 0, 44, 0
4, 13968, Note_on_c, 0, 46, 64
4, 14013, Note_on_c, 0, 46, 0
4, 14016, Note_on_c, 0, 48, 64
4, 14061, Note_on_c, 0, 48, 0
4, 14064, Note_on_c, 0, 50, 64
4, 14109, Note_on_c, 0, 50, 0
4, 14112, Note_on_c, 0, 51, 64
4, 14157, Note_on_c, 0, 51, 0
4, 14160, Note_on_c, 0, 39, 64
4, 14205, Note_on_c, 0, 39, 0
4, 14208, Note_on_c, 0, 51, 64
4, 14253, Note_on_c, 0, 51, 0
4, 14256, Note_on_c, 0, 53, 64
4, 14301, Note_on_c, 0, 53, 0
4, 14304, Note_on_c, 0, 41, 64
4, 14349, Note_on_c, 0, 41, 0
4, 14352, Note_on_c, 0, 53, 64
4, 14397, Note_on_c, 0, 53, 0
4, 14400, Note_on_c, 0, 55, 64
4, 14445, Note_on_c, 0, 55, 0
4, 14448, Note_on_c, 0, 43, 64
4, 14493, Note_on_c, 0, 43, 0
4, 14496, Note_on_c, 0, 55, 64
4, 14541, Note_on_c, 0, 55, 0
4, 14544, Note_on_c, 0, 56, 64
4, 14589, Note_on_c, 0, 56, 0
4, 14592, Note_on_c, 0, 53, 64
4, 14637, Note_on_c, 0, 53, 0
4, 14640, Note_on_c, 0, 46, 64
4, 14685, Note_on_c, 0, 46, 0
4, 14688, Note_on_c, 0, 51, 64
4, 14711, Note_on_c, 0, 51, 0
4, 14712, Note_on_c, 0, 53, 64
4, 14735, Note_on_c, 0, 53, 0
4, 14736, Note_on_c, 0, 50, 64
4, 14759, Note_on_c, 0, 50, 0
4, 14760, Note_on_c, 0, 51, 64
4, 14783, Note_on_c, 0, 51, 0
4, 14784, Note_on_c, 0, 48, 64
4, 14807, Note_on_c, 0, 48, 0
4, 14808, Note_on_c, 0, 57, 64
4, 14831, Note_on_c, 0, 57, 0
4, 14832, Note_on_c, 0, 46, 64
4, 14855, Note_on_c, 0, 46, 0
4, 14856, Note_on_c, 0, 48, 64
4, 14879, Note_on_c, 0, 48, 0
4, 14880, Note_on_c, 0, 44, 64
4, 14903, Note_on_c, 0, 44, 0
4, 14904, Note_on_c, 0, 46, 64
4, 14927, Note_on_c, 0, 46, 0
4, 14928, Note_on_c, 0, 43, 64
4, 14951, Note_on_c, 0, 43, 0
4, 14952, Note_on_c, 0, 52, 64
4, 14975, Note_on_c, 0, 52, 0
4, 14976, Note_on_c, 0, 41, 64
4, 14999, Note_on_c, 0, 41, 0
4, 15000, Note_on_c, 0, 43, 64
4, 15023, Note_on_c, 0, 43, 0
4, 15024, Note_on_c, 0, 39, 64
4, 15047, Note_on_c, 0, 39, 0
4, 15048, Note_on_c, 0, 41, 64
4, 15071, Note_on_c, 0, 41, 0
4, 15072, Note_on_c, 0, 38, 64
4, 15095, Note_on_c, 0, 38, 0
4, 15096, Note_on_c, 0, 47, 64
4, 15119, Note_on_c, 0, 47, 0
4, 15120, Note_on_c, 0, 48, 64
4, 15143, Note_on_c, 0, 48, 0
4, 15144, Note_on_c, 0, 50, 64
4, 15167, Note_on_c, 0, 50, 0
4, 15168, Note_on_c, 0, 46, 64
4, 15191, Note_on_c, 0, 46, 0
4, 15192, Note_on_c, 0, 48, 64
4, 15215, Note_on_c, 0, 48, 0
4, 15216, Note_on_c, 0, 44, 64
4, 15239, Note_on_c, 0, 44, 0
4, 15240, Note_on_c, 0, 53, 64
4, 15263, Note_on_c, 0, 53, 0
4, 15264, Note_on_c, 0, 55, 64
4, 15287, Note_on_c, 0, 55, 0
4, 15288, Note_on_c, 0, 56, 64
4, 15311, Note_on_c, 0, 56, 0
4, 15312, Note_on_c, 0, 53, 64
4, 15335, Note_on_c, 0, 53, 0
4, 15336, Note_on_c, 0, 55, 64
4, 15359, Note_on_c, 0, 55, 0
4, 15360, Note_on_c, 0, 51, 64
4, 15383, Note_on_c, 0, 51, 0
4, 15384, Note_on_c, 0, 60, 64
4, 15407, Note_on_c, 0, 60, 0
4, 15408, Note_on_c, 0, 53, 64
4, 15431, Note_on_c, 0, 53, 0
4, 15432, Note_on_c, 0, 55, 64
4, 15455, Note_on_c, 0, 55, 0
4, 15456, Note_on_c, 0, 51, 64
4, 15479, Note_on_c, 0, 51, 0
4, 15480, Note_on_c, 0, 53, 64
4, 15503, Note_on_c, 0, 53, 0
4, 15504, Note_on_c, 0, 50, 64
4, 15527, Note_on_c, 0, 50, 0
4, 15528, Note_on_c, 0, 59, 64
4, 15551, Note_on_c, 0, 59, 0
4, 15552, Note_on_c, 0, 60, 64
4, 15597, Note_on_c, 0, 60, 0
4, 15600, Note_on_c, 0, 63, 64
4, 15645, Note_on_c, 0, 63, 0
4, 15648, Note_on_c, 0, 60, 64
4, 15693, Note_on_c, 0, 60, 0
4, 15696, Note_on_c, 0, 56, 64
4, 15741, Note_on_c, 0, 56, 0
4, 15744, Note_on_c, 0, 51, 64
4, 15789, Note_on_c, 0, 51, 0
4, 15792, Note_on_c, 0, 53, 64
4, 15837, Note_on_c, 0, 53, 0
4, 15840, Note_on_c, 0, 43, 64
4, 15863, Note_on_c, 0, 43, 0
4, 15864, Note_on_c, 0, 55, 64
4, 15887, Note_on_c, 0, 55, 0
4, 15888, Note_on_c, 0, 53, 64
4, 15911, Note_on_c, 0, 53, 0
4, 15912, Note_on_c, 0, 51, 64
4, 15935, Note_on_c, 0, 51, 0
4, 15936, Note_on_c, 0, 50, 64
4, 15959, Note_on_c, 0, 50, 0
4, 15960, Note_on_c, 0, 48, 64
4, 15983, Note_on_c, 0, 48, 0
4, 15984, Note_on_c, 0, 56, 64
4, 16073, Note_on_c, 0, 56, 0
4, 16128, Note_on_c, 0, 57, 64
4, 16151, Note_on_c, 0, 57, 0
4, 16152, Note_on_c, 0, 60, 64
4, 16175, Note_on_c, 0, 60, 0
4, 16176, Note_on_c, 0, 58, 64
4, 16199, Note_on_c, 0, 58, 0
4, 16200, Note_on_c, 0, 57, 64
4, 16223, Note_on_c, 0, 57, 0
4, 16224, Note_on_c, 0, 55, 64
4, 16247, Note_on_c, 0, 55, 0
4, 16248, Note_on_c, 0, 53, 64
4, 16271, Note_on_c, 0, 53, 0
4, 16272, Note_on_c, 0, 58, 64
4, 16361, Note_on_c, 0, 58, 0
4, 16416, Note_on_c, 0, 59, 64
4, 16439, Note_on_c, 0, 59, 0
4, 16440, Note_on_c, 0, 62, 64
4, 16463, Note_on_c, 0, 62, 0
4, 16464, Note_on_c, 0, 60, 64
4, 16487, Note_on_c, 0, 60, 0
4, 16488, Note_on_c, 0, 59, 64
4, 16511, Note_on_c, 0, 59, 0
4, 16512, Note_on_c, 0, 57, 64
4, 16535, Note_on_c, 0, 57, 0
4, 16536, Note_on_c, 0, 55, 64
4, 16559, Note_on_c, 0, 55, 0
4, 16560, Note_on_c, 0, 60, 64
4, 16605, Note_on_c, 0, 60, 0
4, 16608, Note_on_c, 0, 55, 64
4, 16653, Note_on_c, 0, 55, 0
4, 16656, Note_on_c, 0, 51, 64
4, 16701, Note_on_c, 0, 51, 0
4, 16704, Note_on_c, 0, 48, 64
4, 16727, Note_on_c, 0, 48, 0
4, 16728, Note_on_c, 0, 48, 64
4, 16751, Note_on_c, 0, 48, 0
4, 16752, Note_on_c, 0, 46, 64
4, 16775, Note_on_c, 0, 46, 0
4, 16776, Note_on_c, 0, 44, 64
4, 16799, Note_on_c, 0, 44, 0
4, 16800, Note_on_c, 0, 43, 64
4, 16823, Note_on_c, 0, 43, 0
4, 16824, Note_on_c, 0, 41, 64
4, 16847, Note_on_c, 0, 41, 0
4, 16848, Note_on_c, 0, 49, 64
4, 16937, Note_on_c, 0, 49, 0
4, 16992, Note_on_c, 0, 50, 64
4, 17015, Note_on_c, 0, 50, 0
4, 17016, Note_on_c, 0, 53, 64
4, 17039, Note_on_c, 0, 53, 0
4, 17040, Note_on_c, 0, 51, 64
4, 17063, Note_on_c, 0, 51, 0
4, 17064, Note_on_c, 0, 50, 64
4, 17087, Note_on_c, 0, 50, 0
4, 17088, Note_on_c, 0, 48, 64
4, 17111, Note_on_c, 0, 48, 0
4, 17112, Note_on_c, 0, 46, 64
4, 17135, Note_on_c, 0, 46, 0
4, 17136, Note_on_c, 0, 51, 64
4, 17225, Note_on_c, 0, 51, 0
4, 17280, Note_on_c, 0, 52, 64
4, 17303, Note_on_c, 0, 52, 0
4, 17304, Note_on_c, 0, 55, 64
4, 17327, Note_on_c, 0, 55, 0
4, 17328, Note_on_c, 0, 53, 64
4, 17351, Note_on_c, 0, 53, 0
4, 17352, Note_on_c, 0, 52, 64
4, 17375, Note_on_c, 0, 52, 0
4, 17376, Note_on_c, 0, 50, 64
4, 17399, Note_on_c, 0, 50, 0
4, 17400, Note_on_c, 0, 48, 64
4, 17423, Note_on_c, 0, 48, 0
4, 17424, Note_on_c, 0, 53, 64
4, 17469, Note_on_c, 0, 53, 0
4, 17472, Note_on_c, 0, 48, 64
4, 17517, Note_on_c, 0, 48, 0
4, 17520, Note_on_c, 0, 44, 64
4, 17565, Note_on_c, 0, 44, 0
4, 17568, Note_on_c, 0, 41, 64
4, 17613, Note_on_c, 0, 41, 0
4, 17616, Note_on_c, 0, 48, 64
4, 17661, Note_on_c, 0, 48, 0
4, 17664, Note_on_c, 0, 49, 64
4, 17757, Note_on_c, 0, 49, 0
4, 17760, Note_on_c, 0, 50, 64
4, 17805, Note_on_c, 0, 50, 0
4, 17808, Note_on_c, 0, 51, 64
4, 17901, Note_on_c, 0, 51, 0
4, 17904, Note_on_c, 0, 52, 64
4, 17949, Note_on_c, 0, 52, 0
4, 17952, Note_on_c, 0, 53, 64
4, 18023, Note_on_c, 0, 53, 0
4, 18024, Note_on_c, 0, 55, 64
4, 18047, Note_on_c, 0, 55, 0
4, 18048, Note_on_c, 0, 55, 64
4, 18060, Note_on_c, 0, 55, 0
4, 18060, Note_on_c, 0, 56, 64
4, 18072, Note_on_c, 0, 56, 0
4, 18072, Note_on_c, 0, 55, 64
4, 18084, Note_on_c, 0, 55, 0
4, 18084, Note_on_c, 0, 56, 64
4, 18096, Note_on_c, 0, 56, 0
4, 18096, Note_on_c, 0, 55, 64
4, 18108, Note_on_c, 0, 55, 0
4, 18108, Note_on_c, 0, 56, 64
4, 18120, Note_on_c, 0, 56, 0
4, 18120, Note_on_c, 0, 53, 64
4, 18132, Note_on_c, 0, 53, 0
4, 18132, Note_on_c, 0, 55, 64
4, 18144, Note_on_c, 0, 55, 0
4, 18144, Note_on_c, 0, 56, 64
4, 18167, Note_on_c, 0, 56, 0
4, 18168, Note_on_c, 0, 60, 64
4, 18191, Note_on_c, 0, 60, 0
4, 18192, Note_on_c, 0, 58, 64
4, 18215, Note_on_c, 0, 58, 0
4, 18216, Note_on_c, 0, 56, 64
4, 18239, Note_on_c, 0, 56, 0
4, 18240, Note_on_c, 0, 55, 64
4, 18263, Note_on_c, 0, 55, 0
4, 18264, Note_on_c, 0, 53, 64
4, 18287, Note_on_c, 0, 53, 0
4, 18288, Note_on_c, 0, 51, 64
4, 18311, Note_on_c, 0, 51, 0
4, 18312, Note_on_c, 0, 54, 64
4, 18335, Note_on_c, 0, 54, 0
4, 18336, Note_on_c, 0, 53, 64
4, 18359, Note_on_c, 0, 53, 0
4, 18360, Note_on_c, 0, 51, 64
4, 18383, Note_on_c, 0, 51, 0
4, 18384, Note_on_c, 0, 49, 64
4, 18407, Note_on_c, 0, 49, 0
4, 18408, Note_on_c, 0, 48, 64
4, 18431, Note_on_c, 0, 48, 0
4, 18432, Note_on_c, 0, 49, 64
4, 18455, Note_on_c, 0, 49, 0
4, 18456, Note_on_c, 0, 48, 64
4, 18479, Note_on_c, 0, 48, 0
4, 18480, Note_on_c, 0, 46, 64
4, 18503, Note_on_c, 0, 46, 0
4, 18504, Note_on_c, 0, 45, 64
4, 18527, Note_on_c, 0, 45, 0
4, 18528, Note_on_c, 0, 43, 64
4, 18551, Note_on_c, 0, 43, 0
4, 18552, Note_on_c, 0, 41, 64
4, 18575, Note_on_c, 0, 41, 0
4, 18576, Note_on_c, 0, 46, 64
4, 18743, Note_on_c, 0, 46, 0
4, 18744, Note_on_c, 0, 58, 64
4, 18767, Note_on_c, 0, 58, 0
4, 18768, Note_on_c, 0, 56, 64
4, 18791, Note_on_c, 0, 56, 0
4, 18792, Note_on_c, 0, 55, 64
4, 18815, Note_on_c, 0, 55, 0
4, 18816, Note_on_c, 0, 53, 64
4, 18839, Note_on_c, 0, 53, 0
4, 18840, Note_on_c, 0, 51, 64
4, 18863, Note_on_c, 0, 51, 0
4, 18864, Note_on_c, 0, 50, 64
4, 18887, Note_on_c, 0, 50, 0
4, 18888, Note_on_c, 0, 48, 64
4, 18911, Note_on_c, 0, 48, 0
4, 18912, Note_on_c, 0, 50, 64
4, 18935, Note_on_c, 0, 50, 0
4, 18936, Note_on_c, 0, 53, 64
4, 18959, Note_on_c, 0, 53, 0
4, 18960, Note_on_c, 0, 52, 64
4, 18983, Note_on_c, 0, 52, 0
4, 18984, Note_on_c, 0, 55, 64
4, 19007, Note_on_c, 0, 55, 0
4, 19008, Note_on_c, 0, 53, 64
4, 19031, Note_on_c, 0, 53, 0
4, 19032, Note_on_c, 0, 55, 64
4, 19055, Note_on_c, 0, 55, 0
4, 19056, Note_on_c, 0, 53, 64
4, 19079, Note_on_c, 0, 53, 0
4, 19080, Note_on_c, 0, 51, 64
4, 19103, Note_on_c, 0, 51, 0
4, 19104, Note_on_c, 0, 49, 64
4, 19127, Note_on_c, 0, 49, 0
4, 19128, Note_on_c, 0, 48, 64
4, 19151, Note_on_c, 0, 48, 0
4, 19152, Note_on_c, 0, 46, 64
4, 19175, Note_on_c, 0, 46, 0
4, 19176, Note_on_c, 0, 44, 64
4, 19199, Note_on_c, 0, 44, 0
4, 19200, Note_on_c, 0, 46, 64
4, 19223, Note_on_c, 0, 46, 0
4, 19224, Note_on_c, 0, 49, 64
4, 19247, Note_on_c, 0, 49, 0
4, 19248, Note_on_c, 0, 48, 64
4, 19271, Note_on_c, 0, 48, 0
4, 19272, Note_on_c, 0, 51, 64
4, 19295, Note_on_c, 0, 51, 0
4, 19296, Note_on_c, 0, 49, 64
4, 19319, Note_on_c, 0, 49, 0
4, 19320, Note_on_c, 0, 51, 64
4, 19343, Note_on_c, 0, 51, 0
4, 19344, Note_on_c, 0, 49, 64
4, 19367, Note_on_c, 0, 49, 0
4, 19368, Note_on_c, 0, 48, 64
4, 19391, Note_on_c, 0, 48, 0
4, 19392, Note_on_c, 0, 46, 64
4, 19415, Note_on_c, 0, 46, 0
4, 19416, Note_on_c, 0, 44, 64
4, 19439, Note_on_c, 0, 44, 0
4, 19440, Note_on_c, 0, 44, 64
4, 19463, Note_on_c, 0, 44, 0
4, 19464, Note_on_c, 0, 41, 64
4, 19487, Note_on_c, 0, 41, 0
4, 19488, Note_on_c, 0, 44, 64
4, 19511, Note_on_c, 0, 44, 0
4, 19512, Note_on_c, 0, 46, 64
4, 19535, Note_on_c, 0, 46, 0
4, 19536, Note_on_c, 0, 45, 64
4, 19559, Note_on_c, 0, 45, 0
4, 19560, Note_on_c, 0, 48, 64
4, 19583, Note_on_c, 0, 48, 0
4, 19584, Note_on_c, 0, 46, 64
4, 19607, Note_on_c, 0, 46, 0
4, 19608, Note_on_c, 0, 48, 64
4, 19631, Note_on_c, 0, 48, 0
4, 19632, Note_on_c, 0, 46, 64
4, 19655, Note_on_c, 0, 46, 0
4, 19656, Note_on_c, 0, 44, 64
4, 19679, Note_on_c, 0, 44, 0
4, 19680, Note_on_c, 0, 43, 64
4, 19703, Note_on_c, 0, 43, 0
4, 19704, Note_on_c, 0, 41, 64
4, 19727, Note_on_c, 0, 41, 0
4, 19728, Note_on_c, 0, 40, 64
4, 19751, Note_on_c, 0, 40, 0
4, 19752, Note_on_c, 0, 36, 64
4, 19775, Note_on_c, 0, 36, 0
4, 19776, Note_on_c, 0, 38, 64
4, 19799, Note_on_c, 0, 38, 0
4, 19800, Note_on_c, 0, 40, 64
4, 19823, Note_on_c, 0, 40, 0
4, 19824, Note_on_c, 0, 41, 64
4, 19847, Note_on_c, 0, 41, 0
4, 19848, Note_on_c, 0, 43, 64
4, 19871, Note_on_c, 0, 43, 0
4, 19872, Note_on_c, 0, 44, 64
4, 19895, Note_on_c, 0, 44, 0
4, 19896, Note_on_c, 0, 46, 64
4, 19919, Note_on_c, 0, 46, 0
4, 19920, Note_on_c, 0, 48, 64
4, 19965, Note_on_c, 0, 48, 0
4, 19968, Note_on_c, 0, 36, 64
4, 20013, Note_on_c, 0, 36, 0
4, 20016, Note_on_c, 0, 41, 64
4, 20061, Note_on_c, 0, 41, 0
4, 20064, Note_on_c, 0, 53, 64
4, 20109, Note_on_c, 0, 53, 0
4, 20112, Note_on_c, 0, 41, 64
4, 20157, Note_on_c, 0, 41, 0
4, 20160, Note_on_c, 0, 43, 64
4, 20205, Note_on_c, 0, 43, 0
4, 20208, Note_on_c, 0, 55, 64
4, 20253, Note_on_c, 0, 55, 0
4, 20256, Note_on_c, 0, 43, 64
4, 20301, Note_on_c, 0, 43, 0
4, 20304, Note_on_c, 0, 44, 64
4, 20349, Note_on_c, 0, 44, 0
4, 20352, Note_on_c, 0, 56, 64
4, 20397, Note_on_c, 0, 56, 0
4, 20400, Note_on_c, 0, 44, 64
4, 20445, Note_on_c, 0, 44, 0
4, 20448, Note_on_c, 0, 46, 64
4, 20493, Note_on_c, 0, 46, 0
4, 20496, Note_on_c, 0, 43, 64
4, 20541, Note_on_c, 0, 43, 0
4, 20544, Note_on_c, 0, 48, 64
4, 20589, Note_on_c, 0, 48, 0
4, 20592, Note_on_c, 0, 41, 64
4, 20637, Note_on_c, 0, 41, 0
4, 20640, Note_on_c, 0, 53, 64
4, 20685, Note_on_c, 0, 53, 0
4, 20688, Note_on_c, 0, 41, 64
4, 20733, Note_on_c, 0, 41, 0
4, 20736, Note_on_c, 0, 39, 64
4, 20781, Note_on_c, 0, 39, 0
4, 20784, Note_on_c, 0, 51, 64
4, 20829, Note_on_c, 0, 51, 0
4, 20832, Note_on_c, 0, 39, 64
4, 20877, Note_on_c, 0, 39, 0
4, 20880, Note_on_c, 0, 37, 64
4, 20925, Note_on_c, 0, 37, 0
4, 20928, Note_on_c, 0, 49, 64
4, 20973, Note_on_c, 0, 49, 0
4, 20976, Note_on_c, 0, 48, 64
4, 21021, Note_on_c, 0, 48, 0
4, 21024, Note_on_c, 0, 46, 64
4, 21069, Note_on_c, 0, 46, 0
4, 21072, Note_on_c, 0, 48, 64
4, 21117, Note_on_c, 0, 48, 0
4, 21120, Note_on_c, 0, 36, 64
4, 21165, Note_on_c, 0, 36, 0
4, 21168, Note_on_c, 0, 41, 64
4, 21301, Note_on_c, 0, 41, 0
4, 21301, End_track
5, 0, Start_track
5, 0, MIDI_port, 0
5, 0, Title_t, "Sonata No. 5 en Fa menor"
5, 0, End_track
6, 0, Start_track
6, 0, MIDI_port, 0
6, 0, Title_t, "para violin y clavicembalo"
6, 0, End_track
7, 0, Start_track
7, 0, MIDI_port, 0
7, 0, Title_t, "Cuarto Movimiento: Vivace"
7, 0, End_track
8, 0, Start_track
8, 0, MIDI_port, 0
8, 0, Title_t, "J. S. Bach (1685-1750)"
8, 0, End_track
9, 0, Start_track
9, 0, MIDI_port, 0
9, 0, Title_t, "Copyright Luis Gerardo Barajas"
9, 0, End_track
10, 0, Start_track
10, 0, MIDI_port, 0
10, 0, Title_t, "*** Bach Keeps RuLiNg!!!"
10, 0, End_track
11, 0, Start_track
11, 0, MIDI_port, 0
11, 0, End_track
0, 0, End_of_file
