0, 0, Header, 1, 10, 96
1, 0, Start_track
1, 0, Sequencer_specific, 3, 0, 0, 65
1, 0, Time_signature, 4, 2, 24, 8
1, 0, Key_signature, 2, "major"
1, 0, Tempo, 333333
1, 53088, Tempo, 335196
1, 53104, Tempo, 337079
1, 53112, Tempo, 338983
1, 53120, Tempo, 337079
1, 53144, Tempo, 338983
1, 53160, Tempo, 340909
1, 53176, Tempo, 342857
1, 53192, Tempo, 344828
1, 53208, Tempo, 346821
1, 53224, Tempo, 348837
1, 53240, Tempo, 350877
1, 53256, Tempo, 352941
1, 53272, Tempo, 355030
1, 53288, Tempo, 357143
1, 53304, Tempo, 359281
1, 53320, Tempo, 361446
1, 53336, Tempo, 363636
1, 53352, Tempo, 365854
1, 53368, Tempo, 368098
1, 53384, Tempo, 370370
1, 53400, Tempo, 372671
1, 53416, Tempo, 375000
1, 53432, Tempo, 377358
1, 53448, Tempo, 379747
1, 53464, Tempo, 382166
1, 53480, Tempo, 384615
1, 53504, Tempo, 387097
1, 53520, Tempo, 389610
1, 53536, Tempo, 392157
1, 53552, Tempo, 394737
1, 53568, Tempo, 397351
1, 53584, Tempo, 400000
1, 53600, Tempo, 402685
1, 53616, Tempo, 405405
1, 53632, Tempo, 408163
1, 53648, Tempo, 410959
1, 53664, Tempo, 413793
1, 53680, Tempo, 416667
1, 53696, Tempo, 419580
1, 53712, Tempo, 422535
1, 53728, Tempo, 425532
1, 53744, Tempo, 428571
1, 53760, Tempo, 431655
1, 53776, Tempo, 600000
1, 53776, End_track
2, 0, Start_track
2, 0, MIDI_port, 0
2, 0, Title_t, "Violin"
2, 0, Program_c, 1, 40
2, 0, Control_c, 1, 7, 127
2, 0, Note_on_c, 1, 78, 64
2, 89, Note_on_c, 1, 78, 0
2, 96, Note_on_c, 1, 79, 64
2, 141, Note_on_c, 1, 79, 0
2, 144, Note_on_c, 1, 78, 64
2, 189, Note_on_c, 1, 78, 0
2, 192, Note_on_c, 1, 76, 64
2, 237, Note_on_c, 1, 76, 0
2, 240, Note_on_c, 1, 78, 64
2, 285, Note_on_c, 1, 78, 0
2, 288, Note_on_c, 1, 79, 64
2, 377, Note_on_c, 1, 79, 0
2, 384, Note_on_c, 1, 79, 64
2, 407, Note_on_c, 1, 79, 0
2, 408, Note_on_c, 1, 81, 64
2, 431, Note_on_c, 1, 81, 0
2, 432, Note_on_c, 1, 79, 64
2, 455, Note_on_c, 1, 79, 0
2, 456, Note_on_c, 1, 81, 64
2, 479, Note_on_c, 1, 81, 0
2, 480, Note_on_c, 1, 78, 64
2, 569, Note_on_c, 1, 78, 0
2, 672, Note_on_c, 1, 76, 64
2, 761, Note_on_c, 1, 76, 0
2, 768, Note_on_c, 1, 74, 64
2, 813, Note_on_c, 1, 74, 0
2, 816, Note_on_c, 1, 76, 64
2, 861, Note_on_c, 1, 76, 0
2, 864, Note_on_c, 1, 78, 64
2, 909, Note_on_c, 1, 78, 0
2, 912, Note_on_c, 1, 71, 64
2, 957, Note_on_c, 1, 71, 0
2, 960, Note_on_c, 1, 74, 64
2, 1049, Note_on_c, 1, 74, 0
2, 1056, Note_on_c, 1, 73, 64
2, 1079, Note_on_c, 1, 73, 0
2, 1080, Note_on_c, 1, 74, 64
2, 1103, Note_on_c, 1, 74, 0
2, 1104, Note_on_c, 1, 73, 64
2, 1127, Note_on_c, 1, 73, 0
2, 1128, Note_on_c, 1, 74, 64
2, 1151, Note_on_c, 1, 74, 0
2, 1152, Note_on_c, 1, 71, 64
2, 1197, Note_on_c, 1, 71, 0
2, 1200, Note_on_c, 1, 74, 64
2, 1245, Note_on_c, 1, 74, 0
2, 1248, Note_on_c, 1, 73, 64
2, 1293, Note_on_c, 1, 73, 0
2, 1296, Note_on_c, 1, 71, 64
2, 1341, Note_on_c, 1, 71, 0
2, 1344, Note_on_c, 1, 78, 64
2, 1389, Note_on_c, 1, 78, 0
2, 1392, Note_on_c, 1, 71, 64
2, 1437, Note_on_c, 1, 71, 0
2, 1440, Note_on_c, 1, 80, 64
2, 1485, Note_on_c, 1, 80, 0
2, 1488, Note_on_c, 1, 71, 64
2, 1533, Note_on_c, 1, 71, 0
2, 1536, Note_on_c, 1, 81, 64
2, 1581, Note_on_c, 1, 81, 0
2, 1584, Note_on_c, 1, 80, 64
2, 1629, Note_on_c, 1, 80, 0
2, 1632, Note_on_c, 1, 83, 64
2, 1677, Note_on_c, 1, 83, 0
2, 1680, Note_on_c, 1, 81, 64
2, 1725, Note_on_c, 1, 81, 0
2, 1728, Note_on_c, 1, 80, 64
2, 1773, Note_on_c, 1, 80, 0
2, 1776, Note_on_c, 1, 78, 64
2, 1821, Note_on_c, 1, 78, 0
2, 1824, Note_on_c, 1, 77, 64
2, 1869, Note_on_c, 1, 77, 0
2, 1872, Note_on_c, 1, 78, 64
2, 1917, Note_on_c, 1, 78, 0
2, 1920, Note_on_c, 1, 80, 64
2, 1965, Note_on_c, 1, 80, 0
2, 1968, Note_on_c, 1, 78, 64
2, 2013, Note_on_c, 1, 78, 0
2, 2016, Note_on_c, 1, 77, 64
2, 2061, Note_on_c, 1, 77, 0
2, 2064, Note_on_c, 1, 75, 64
2, 2109, Note_on_c, 1, 75, 0
2, 2112, Note_on_c, 1, 73, 64
2, 2157, Note_on_c, 1, 73, 0
2, 2160, Note_on_c, 1, 71, 64
2, 2205, Note_on_c, 1, 71, 0
2, 2208, Note_on_c, 1, 69, 64
2, 2253, Note_on_c, 1, 69, 0
2, 2256, Note_on_c, 1, 68, 64
2, 2301, Note_on_c, 1, 68, 0
2, 2304, Note_on_c, 1, 66, 64
2, 2393, Note_on_c, 1, 66, 0
2, 2400, Note_on_c, 1, 78, 64
2, 2577, Note_on_c, 1, 78, 0
2, 2592, Note_on_c, 1, 77, 64
2, 2681, Note_on_c, 1, 77, 0
2, 2688, Note_on_c, 1, 81, 64
2, 3042, Note_on_c, 1, 81, 0
2, 3072, Note_on_c, 1, 79, 64
2, 3426, Note_on_c, 1, 79, 0
2, 3456, Note_on_c, 1, 78, 64
2, 3501, Note_on_c, 1, 78, 0
2, 3504, Note_on_c, 1, 74, 64
2, 3549, Note_on_c, 1, 74, 0
2, 3552, Note_on_c, 1, 76, 64
2, 3597, Note_on_c, 1, 76, 0
2, 3600, Note_on_c, 1, 78, 64
2, 3645, Note_on_c, 1, 78, 0
2, 3648, Note_on_c, 1, 71, 64
2, 3693, Note_on_c, 1, 71, 0
2, 3696, Note_on_c, 1, 78, 64
2, 3741, Note_on_c, 1, 78, 0
2, 3744, Note_on_c, 1, 68, 64
2, 3789, Note_on_c, 1, 68, 0
2, 3792, Note_on_c, 1, 78, 64
2, 3837, Note_on_c, 1, 78, 0
2, 3840, Note_on_c, 1, 76, 64
2, 3885, Note_on_c, 1, 76, 0
2, 3888, Note_on_c, 1, 73, 64
2, 3933, Note_on_c, 1, 73, 0
2, 3936, Note_on_c, 1, 74, 64
2, 3981, Note_on_c, 1, 74, 0
2, 3984, Note_on_c, 1, 76, 64
2, 4029, Note_on_c, 1, 76, 0
2, 4032, Note_on_c, 1, 70, 64
2, 4077, Note_on_c, 1, 70, 0
2, 4080, Note_on_c, 1, 76, 64
2, 4125, Note_on_c, 1, 76, 0
2, 4128, Note_on_c, 1, 66, 64
2, 4173, Note_on_c, 1, 66, 0
2, 4176, Note_on_c, 1, 76, 64
2, 4221, Note_on_c, 1, 76, 0
2, 4224, Note_on_c, 1, 74, 64
2, 4313, Note_on_c, 1, 74, 0
2, 4320, Note_on_c, 1, 71, 64
2, 4409, Note_on_c, 1, 71, 0
2, 4416, Note_on_c, 1, 79, 64
2, 4505, Note_on_c, 1, 79, 0
2, 4512, Note_on_c, 1, 76, 64
2, 4601, Note_on_c, 1, 76, 0
2, 4608, Note_on_c, 1, 82, 64
2, 4697, Note_on_c, 1, 82, 0
2, 4704, Note_on_c, 1, 85, 64
2, 4793, Note_on_c, 1, 85, 0
2, 4800, Note_on_c, 1, 82, 64
2, 4889, Note_on_c, 1, 82, 0
2, 4896, Note_on_c, 1, 78, 64
2, 5037, Note_on_c, 1, 78, 0
2, 5040, Note_on_c, 1, 73, 64
2, 5085, Note_on_c, 1, 73, 0
2, 5088, Note_on_c, 1, 74, 64
2, 5133, Note_on_c, 1, 74, 0
2, 5136, Note_on_c, 1, 76, 64
2, 5181, Note_on_c, 1, 76, 0
2, 5184, Note_on_c, 1, 68, 64
2, 5229, Note_on_c, 1, 68, 0
2, 5232, Note_on_c, 1, 76, 64
2, 5277, Note_on_c, 1, 76, 0
2, 5280, Note_on_c, 1, 70, 64
2, 5325, Note_on_c, 1, 70, 0
2, 5328, Note_on_c, 1, 76, 64
2, 5373, Note_on_c, 1, 76, 0
2, 5376, Note_on_c, 1, 74, 64
2, 5553, Note_on_c, 1, 74, 0
2, 5568, Note_on_c, 1, 74, 64
2, 5657, Note_on_c, 1, 74, 0
2, 5664, Note_on_c, 1, 83, 64
2, 5753, Note_on_c, 1, 83, 0
2, 5760, Note_on_c, 1, 76, 64
2, 5805, Note_on_c, 1, 76, 0
2, 5808, Note_on_c, 1, 73, 64
2, 5853, Note_on_c, 1, 73, 0
2, 5856, Note_on_c, 1, 71, 64
2, 5901, Note_on_c, 1, 71, 0
2, 5904, Note_on_c, 1, 69, 64
2, 5949, Note_on_c, 1, 69, 0
2, 5952, Note_on_c, 1, 76, 64
2, 6000, Note_on_c, 1, 76, 0
2, 6000, Note_on_c, 1, 69, 64
2, 6045, Note_on_c, 1, 69, 0
2, 6048, Note_on_c, 1, 78, 64
2, 6096, Note_on_c, 1, 78, 0
2, 6096, Note_on_c, 1, 69, 64
2, 6141, Note_on_c, 1, 69, 0
2, 6144, Note_on_c, 1, 79, 64
2, 6233, Note_on_c, 1, 79, 0
2, 6240, Note_on_c, 1, 71, 64
2, 6329, Note_on_c, 1, 71, 0
2, 6336, Note_on_c, 1, 79, 64
2, 6513, Note_on_c, 1, 79, 0
2, 6528, Note_on_c, 1, 78, 64
2, 6573, Note_on_c, 1, 78, 0
2, 6576, Note_on_c, 1, 74, 64
2, 6621, Note_on_c, 1, 74, 0
2, 6624, Note_on_c, 1, 73, 64
2, 6669, Note_on_c, 1, 73, 0
2, 6672, Note_on_c, 1, 71, 64
2, 6717, Note_on_c, 1, 71, 0
2, 6720, Note_on_c, 1, 78, 64
2, 6765, Note_on_c, 1, 78, 0
2, 6768, Note_on_c, 1, 71, 64
2, 6813, Note_on_c, 1, 71, 0
2, 6816, Note_on_c, 1, 80, 64
2, 6864, Note_on_c, 1, 80, 0
2, 6864, Note_on_c, 1, 71, 64
2, 6909, Note_on_c, 1, 71, 0
2, 6912, Note_on_c, 1, 81, 64
2, 7341, Note_on_c, 1, 81, 0
2, 7344, Note_on_c, 1, 83, 64
2, 7389, Note_on_c, 1, 83, 0
2, 7392, Note_on_c, 1, 85, 64
2, 7437, Note_on_c, 1, 85, 0
2, 7440, Note_on_c, 1, 86, 64
2, 7485, Note_on_c, 1, 86, 0
2, 7488, Note_on_c, 1, 80, 64
2, 7725, Note_on_c, 1, 80, 0
2, 7728, Note_on_c, 1, 78, 64
2, 7773, Note_on_c, 1, 78, 0
2, 7776, Note_on_c, 1, 83, 64
2, 7821, Note_on_c, 1, 83, 0
2, 7824, Note_on_c, 1, 81, 64
2, 7869, Note_on_c, 1, 81, 0
2, 7872, Note_on_c, 1, 80, 64
2, 7917, Note_on_c, 1, 80, 0
2, 7920, Note_on_c, 1, 78, 64
2, 7965, Note_on_c, 1, 78, 0
2, 7968, Note_on_c, 1, 77, 64
2, 8013, Note_on_c, 1, 77, 0
2, 8016, Note_on_c, 1, 78, 64
2, 8061, Note_on_c, 1, 78, 0
2, 8064, Note_on_c, 1, 80, 64
2, 8109, Note_on_c, 1, 80, 0
2, 8112, Note_on_c, 1, 78, 64
2, 8157, Note_on_c, 1, 78, 0
2, 8160, Note_on_c, 1, 77, 64
2, 8205, Note_on_c, 1, 77, 0
2, 8208, Note_on_c, 1, 75, 64
2, 8253, Note_on_c, 1, 75, 0
2, 8256, Note_on_c, 1, 73, 64
2, 8301, Note_on_c, 1, 73, 0
2, 8304, Note_on_c, 1, 71, 64
2, 8349, Note_on_c, 1, 71, 0
2, 8352, Note_on_c, 1, 69, 64
2, 8397, Note_on_c, 1, 69, 0
2, 8400, Note_on_c, 1, 68, 64
2, 8445, Note_on_c, 1, 68, 0
2, 8448, Note_on_c, 1, 66, 64
2, 8537, Note_on_c, 1, 66, 0
2, 8544, Note_on_c, 1, 78, 64
2, 8721, Note_on_c, 1, 78, 0
2, 8736, Note_on_c, 1, 77, 64
2, 8825, Note_on_c, 1, 77, 0
2, 8832, Note_on_c, 1, 78, 64
2, 8921, Note_on_c, 1, 78, 0
2, 8928, Note_on_c, 1, 73, 64
2, 9017, Note_on_c, 1, 73, 0
2, 9024, Note_on_c, 1, 78, 64
2, 9305, Note_on_c, 1, 78, 0
2, 9312, Note_on_c, 1, 71, 64
2, 9401, Note_on_c, 1, 71, 0
2, 9408, Note_on_c, 1, 76, 64
2, 9645, Note_on_c, 1, 76, 0
2, 9648, Note_on_c, 1, 78, 64
2, 9693, Note_on_c, 1, 78, 0
2, 9696, Note_on_c, 1, 79, 64
2, 9741, Note_on_c, 1, 79, 0
2, 9744, Note_on_c, 1, 81, 64
2, 9789, Note_on_c, 1, 81, 0
2, 9792, Note_on_c, 1, 74, 64
2, 10029, Note_on_c, 1, 74, 0
2, 10032, Note_on_c, 1, 76, 64
2, 10077, Note_on_c, 1, 76, 0
2, 10080, Note_on_c, 1, 78, 64
2, 10125, Note_on_c, 1, 78, 0
2, 10128, Note_on_c, 1, 79, 64
2, 10173, Note_on_c, 1, 79, 0
2, 10176, Note_on_c, 1, 73, 64
2, 10265, Note_on_c, 1, 73, 0
2, 10368, Note_on_c, 1, 78, 64
2, 10457, Note_on_c, 1, 78, 0
2, 10464, Note_on_c, 1, 79, 64
2, 10509, Note_on_c, 1, 79, 0
2, 10512, Note_on_c, 1, 78, 64
2, 10557, Note_on_c, 1, 78, 0
2, 10560, Note_on_c, 1, 76, 64
2, 10605, Note_on_c, 1, 76, 0
2, 10608, Note_on_c, 1, 78, 64
2, 10653, Note_on_c, 1, 78, 0
2, 10656, Note_on_c, 1, 79, 64
2, 10745, Note_on_c, 1, 79, 0
2, 10752, Note_on_c, 1, 79, 64
2, 10775, Note_on_c, 1, 79, 0
2, 10776, Note_on_c, 1, 81, 64
2, 10799, Note_on_c, 1, 81, 0
2, 10800, Note_on_c, 1, 79, 64
2, 10823, Note_on_c, 1, 79, 0
2, 10824, Note_on_c, 1, 81, 64
2, 10847, Note_on_c, 1, 81, 0
2, 10848, Note_on_c, 1, 78, 64
2, 10937, Note_on_c, 1, 78, 0
2, 11040, Note_on_c, 1, 76, 64
2, 11129, Note_on_c, 1, 76, 0
2, 11136, Note_on_c, 1, 74, 64
2, 11181, Note_on_c, 1, 74, 0
2, 11184, Note_on_c, 1, 76, 64
2, 11229, Note_on_c, 1, 76, 0
2, 11232, Note_on_c, 1, 78, 64
2, 11277, Note_on_c, 1, 78, 0
2, 11280, Note_on_c, 1, 71, 64
2, 11325, Note_on_c, 1, 71, 0
2, 11328, Note_on_c, 1, 74, 64
2, 11417, Note_on_c, 1, 74, 0
2, 11424, Note_on_c, 1, 73, 64
2, 11447, Note_on_c, 1, 73, 0
2, 11448, Note_on_c, 1, 74, 64
2, 11471, Note_on_c, 1, 74, 0
2, 11472, Note_on_c, 1, 73, 64
2, 11495, Note_on_c, 1, 73, 0
2, 11496, Note_on_c, 1, 74, 64
2, 11519, Note_on_c, 1, 74, 0
2, 11520, Note_on_c, 1, 71, 64
2, 11565, Note_on_c, 1, 71, 0
2, 11568, Note_on_c, 1, 74, 64
2, 11613, Note_on_c, 1, 74, 0
2, 11616, Note_on_c, 1, 73, 64
2, 11661, Note_on_c, 1, 73, 0
2, 11664, Note_on_c, 1, 71, 64
2, 11709, Note_on_c, 1, 71, 0
2, 11712, Note_on_c, 1, 76, 64
2, 11760, Note_on_c, 1, 76, 0
2, 11760, Note_on_c, 1, 71, 64
2, 11805, Note_on_c, 1, 71, 0
2, 11808, Note_on_c, 1, 78, 64
2, 11856, Note_on_c, 1, 78, 0
2, 11856, Note_on_c, 1, 71, 64
2, 11901, Note_on_c, 1, 71, 0
2, 11904, Note_on_c, 1, 79, 64
2, 11952, Note_on_c, 1, 79, 0
2, 11952, Note_on_c, 1, 71, 64
2, 11997, Note_on_c, 1, 71, 0
2, 12000, Note_on_c, 1, 78, 64
2, 12048, Note_on_c, 1, 78, 0
2, 12048, Note_on_c, 1, 71, 64
2, 12093, Note_on_c, 1, 71, 0
2, 12096, Note_on_c, 1, 76, 64
2, 12144, Note_on_c, 1, 76, 0
2, 12144, Note_on_c, 1, 71, 64
2, 12189, Note_on_c, 1, 71, 0
2, 12192, Note_on_c, 1, 79, 64
2, 12240, Note_on_c, 1, 79, 0
2, 12240, Note_on_c, 1, 73, 64
2, 12285, Note_on_c, 1, 73, 0
2, 12288, Note_on_c, 1, 78, 64
2, 12336, Note_on_c, 1, 78, 0
2, 12336, Note_on_c, 1, 71, 64
2, 12381, Note_on_c, 1, 71, 0
2, 12384, Note_on_c, 1, 76, 64
2, 12432, Note_on_c, 1, 76, 0
2, 12432, Note_on_c, 1, 71, 64
2, 12477, Note_on_c, 1, 71, 0
2, 12480, Note_on_c, 1, 74, 64
2, 12528, Note_on_c, 1, 74, 0
2, 12528, Note_on_c, 1, 71, 64
2, 12573, Note_on_c, 1, 71, 0
2, 12576, Note_on_c, 1, 78, 64
2, 12624, Note_on_c, 1, 78, 0
2, 12624, Note_on_c, 1, 71, 64
2, 12669, Note_on_c, 1, 71, 0
2, 12672, Note_on_c, 1, 76, 64
2, 12720, Note_on_c, 1, 76, 0
2, 12720, Note_on_c, 1, 79, 64
2, 12765, Note_on_c, 1, 79, 0
2, 12768, Note_on_c, 1, 78, 64
2, 12816, Note_on_c, 1, 78, 0
2, 12816, Note_on_c, 1, 76, 64
2, 12861, Note_on_c, 1, 76, 0
2, 12864, Note_on_c, 1, 82, 64
2, 12912, Note_on_c, 1, 82, 0
2, 12912, Note_on_c, 1, 76, 64
2, 12957, Note_on_c, 1, 76, 0
2, 12960, Note_on_c, 1, 83, 64
2, 13008, Note_on_c, 1, 83, 0
2, 13008, Note_on_c, 1, 76, 64
2, 13053, Note_on_c, 1, 76, 0
2, 13056, Note_on_c, 1, 85, 64
2, 13529, Note_on_c, 1, 85, 0
2, 13536, Note_on_c, 1, 78, 64
2, 13625, Note_on_c, 1, 78, 0
2, 13632, Note_on_c, 1, 83, 64
2, 13721, Note_on_c, 1, 83, 0
2, 13728, Note_on_c, 1, 81, 64
2, 13817, Note_on_c, 1, 81, 0
2, 13824, Note_on_c, 1, 79, 64
2, 13913, Note_on_c, 1, 79, 0
2, 13920, Note_on_c, 1, 78, 64
2, 14009, Note_on_c, 1, 78, 0
2, 14016, Note_on_c, 1, 76, 64
2, 14253, Note_on_c, 1, 76, 0
2, 14256, Note_on_c, 1, 79, 64
2, 14301, Note_on_c, 1, 79, 0
2, 14304, Note_on_c, 1, 78, 64
2, 14349, Note_on_c, 1, 78, 0
2, 14352, Note_on_c, 1, 76, 64
2, 14397, Note_on_c, 1, 76, 0
2, 14400, Note_on_c, 1, 74, 64
2, 14448, Note_on_c, 1, 74, 0
2, 14448, Note_on_c, 1, 71, 64
2, 14493, Note_on_c, 1, 71, 0
2, 14496, Note_on_c, 1, 76, 64
2, 14544, Note_on_c, 1, 76, 0
2, 14544, Note_on_c, 1, 71, 64
2, 14589, Note_on_c, 1, 71, 0
2, 14592, Note_on_c, 1, 78, 64
2, 14637, Note_on_c, 1, 78, 0
2, 14640, Note_on_c, 1, 71, 64
2, 14685, Note_on_c, 1, 71, 0
2, 14688, Note_on_c, 1, 79, 64
2, 14777, Note_on_c, 1, 79, 0
2, 14784, Note_on_c, 1, 74, 64
2, 14807, Note_on_c, 1, 74, 0
2, 14808, Note_on_c, 1, 76, 64
2, 14831, Note_on_c, 1, 76, 0
2, 14832, Note_on_c, 1, 74, 64
2, 14855, Note_on_c, 1, 74, 0
2, 14856, Note_on_c, 1, 76, 64
2, 14879, Note_on_c, 1, 76, 0
2, 14880, Note_on_c, 1, 73, 64
2, 14925, Note_on_c, 1, 73, 0
2, 14928, Note_on_c, 1, 71, 64
2, 14973, Note_on_c, 1, 71, 0
2, 14976, Note_on_c, 1, 71, 64
2, 15153, Note_on_c, 1, 71, 0
2, 15360, Note_on_c, 1, 69, 64
2, 15449, Note_on_c, 1, 69, 0
2, 15456, Note_on_c, 1, 71, 64
2, 15501, Note_on_c, 1, 71, 0
2, 15504, Note_on_c, 1, 69, 64
2, 15549, Note_on_c, 1, 69, 0
2, 15552, Note_on_c, 1, 67, 64
2, 15597, Note_on_c, 1, 67, 0
2, 15600, Note_on_c, 1, 69, 64
2, 15645, Note_on_c, 1, 69, 0
2, 15648, Note_on_c, 1, 71, 64
2, 15737, Note_on_c, 1, 71, 0
2, 15744, Note_on_c, 1, 71, 64
2, 15767, Note_on_c, 1, 71, 0
2, 15768, Note_on_c, 1, 73, 64
2, 15791, Note_on_c, 1, 73, 0
2, 15792, Note_on_c, 1, 71, 64
2, 15815, Note_on_c, 1, 71, 0
2, 15816, Note_on_c, 1, 73, 64
2, 15839, Note_on_c, 1, 73, 0
2, 15840, Note_on_c, 1, 69, 64
2, 15929, Note_on_c, 1, 69, 0
2, 16032, Note_on_c, 1, 67, 64
2, 16121, Note_on_c, 1, 67, 0
2, 16128, Note_on_c, 1, 66, 64
2, 16173, Note_on_c, 1, 66, 0
2, 16176, Note_on_c, 1, 67, 64
2, 16221, Note_on_c, 1, 67, 0
2, 16224, Note_on_c, 1, 69, 64
2, 16269, Note_on_c, 1, 69, 0
2, 16272, Note_on_c, 1, 62, 64
2, 16317, Note_on_c, 1, 62, 0
2, 16320, Note_on_c, 1, 67, 64
2, 16409, Note_on_c, 1, 67, 0
2, 16416, Note_on_c, 1, 66, 64
2, 16439, Note_on_c, 1, 66, 0
2, 16440, Note_on_c, 1, 67, 64
2, 16463, Note_on_c, 1, 67, 0
2, 16464, Note_on_c, 1, 66, 64
2, 16487, Note_on_c, 1, 66, 0
2, 16488, Note_on_c, 1, 67, 64
2, 16511, Note_on_c, 1, 67, 0
2, 16512, Note_on_c, 1, 64, 64
2, 16557, Note_on_c, 1, 64, 0
2, 16560, Note_on_c, 1, 62, 64
2, 16605, Note_on_c, 1, 62, 0
2, 16608, Note_on_c, 1, 64, 64
2, 16653, Note_on_c, 1, 64, 0
2, 16656, Note_on_c, 1, 66, 64
2, 16701, Note_on_c, 1, 66, 0
2, 16704, Note_on_c, 1, 64, 64
2, 16749, Note_on_c, 1, 64, 0
2, 16752, Note_on_c, 1, 66, 64
2, 16797, Note_on_c, 1, 66, 0
2, 16800, Note_on_c, 1, 67, 64
2, 16845, Note_on_c, 1, 67, 0
2, 16848, Note_on_c, 1, 69, 64
2, 16893, Note_on_c, 1, 69, 0
2, 16896, Note_on_c, 1, 71, 64
2, 16985, Note_on_c, 1, 71, 0
2, 16992, Note_on_c, 1, 72, 64
2, 17037, Note_on_c, 1, 72, 0
2, 17040, Note_on_c, 1, 71, 64
2, 17085, Note_on_c, 1, 71, 0
2, 17088, Note_on_c, 1, 69, 64
2, 17133, Note_on_c, 1, 69, 0
2, 17136, Note_on_c, 1, 71, 64
2, 17181, Note_on_c, 1, 71, 0
2, 17184, Note_on_c, 1, 72, 64
2, 17273, Note_on_c, 1, 72, 0
2, 17280, Note_on_c, 1, 72, 64
2, 17303, Note_on_c, 1, 72, 0
2, 17304, Note_on_c, 1, 74, 64
2, 17327, Note_on_c, 1, 74, 0
2, 17328, Note_on_c, 1, 72, 64
2, 17351, Note_on_c, 1, 72, 0
2, 17352, Note_on_c, 1, 74, 64
2, 17375, Note_on_c, 1, 74, 0
2, 17376, Note_on_c, 1, 71, 64
2, 17465, Note_on_c, 1, 71, 0
2, 17568, Note_on_c, 1, 69, 64
2, 17657, Note_on_c, 1, 69, 0
2, 17664, Note_on_c, 1, 67, 64
2, 17709, Note_on_c, 1, 67, 0
2, 17712, Note_on_c, 1, 69, 64
2, 17757, Note_on_c, 1, 69, 0
2, 17760, Note_on_c, 1, 71, 64
2, 17805, Note_on_c, 1, 71, 0
2, 17808, Note_on_c, 1, 64, 64
2, 17853, Note_on_c, 1, 64, 0
2, 17856, Note_on_c, 1, 69, 64
2, 17945, Note_on_c, 1, 69, 0
2, 17952, Note_on_c, 1, 67, 64
2, 17975, Note_on_c, 1, 67, 0
2, 17976, Note_on_c, 1, 69, 64
2, 17999, Note_on_c, 1, 69, 0
2, 18000, Note_on_c, 1, 67, 64
2, 18023, Note_on_c, 1, 67, 0
2, 18024, Note_on_c, 1, 69, 64
2, 18047, Note_on_c, 1, 69, 0
2, 18048, Note_on_c, 1, 66, 64
2, 18093, Note_on_c, 1, 66, 0
2, 18096, Note_on_c, 1, 64, 64
2, 18141, Note_on_c, 1, 64, 0
2, 18144, Note_on_c, 1, 66, 64
2, 18189, Note_on_c, 1, 66, 0
2, 18192, Note_on_c, 1, 67, 64
2, 18237, Note_on_c, 1, 67, 0
2, 18240, Note_on_c, 1, 66, 64
2, 18285, Note_on_c, 1, 66, 0
2, 18288, Note_on_c, 1, 67, 64
2, 18333, Note_on_c, 1, 67, 0
2, 18336, Note_on_c, 1, 69, 64
2, 18381, Note_on_c, 1, 69, 0
2, 18384, Note_on_c, 1, 71, 64
2, 18429, Note_on_c, 1, 71, 0
2, 18432, Note_on_c, 1, 72, 64
2, 18521, Note_on_c, 1, 72, 0
2, 18528, Note_on_c, 1, 74, 64
2, 18573, Note_on_c, 1, 74, 0
2, 18576, Note_on_c, 1, 72, 64
2, 18621, Note_on_c, 1, 72, 0
2, 18624, Note_on_c, 1, 71, 64
2, 18669, Note_on_c, 1, 71, 0
2, 18672, Note_on_c, 1, 72, 64
2, 18717, Note_on_c, 1, 72, 0
2, 18720, Note_on_c, 1, 74, 64
2, 18809, Note_on_c, 1, 74, 0
2, 18816, Note_on_c, 1, 71, 64
2, 18905, Note_on_c, 1, 71, 0
2, 18912, Note_on_c, 1, 76, 64
2, 18957, Note_on_c, 1, 76, 0
2, 18960, Note_on_c, 1, 74, 64
2, 19005, Note_on_c, 1, 74, 0
2, 19008, Note_on_c, 1, 73, 64
2, 19053, Note_on_c, 1, 73, 0
2, 19056, Note_on_c, 1, 74, 64
2, 19101, Note_on_c, 1, 74, 0
2, 19104, Note_on_c, 1, 76, 64
2, 19193, Note_on_c, 1, 76, 0
2, 19200, Note_on_c, 1, 69, 64
2, 19333, Note_on_c, 1, 69, 0
2, 19344, Note_on_c, 1, 71, 64
2, 19389, Note_on_c, 1, 71, 0
2, 19392, Note_on_c, 1, 66, 64
2, 19481, Note_on_c, 1, 66, 0
2, 19488, Note_on_c, 1, 64, 64
2, 19533, Note_on_c, 1, 64, 0
2, 19536, Note_on_c, 1, 62, 64
2, 19581, Note_on_c, 1, 62, 0
2, 19584, Note_on_c, 1, 62, 64
2, 19673, Note_on_c, 1, 62, 0
2, 19680, Note_on_c, 1, 69, 64
2, 19769, Note_on_c, 1, 69, 0
2, 19776, Note_on_c, 1, 74, 64
2, 19865, Note_on_c, 1, 74, 0
2, 19872, Note_on_c, 1, 71, 64
2, 19961, Note_on_c, 1, 71, 0
2, 19968, Note_on_c, 1, 68, 64
2, 20057, Note_on_c, 1, 68, 0
2, 20064, Note_on_c, 1, 71, 64
2, 20153, Note_on_c, 1, 71, 0
2, 20160, Note_on_c, 1, 68, 64
2, 20249, Note_on_c, 1, 68, 0
2, 20256, Note_on_c, 1, 64, 64
2, 20397, Note_on_c, 1, 64, 0
2, 20400, Note_on_c, 1, 71, 64
2, 20445, Note_on_c, 1, 71, 0
2, 20448, Note_on_c, 1, 73, 64
2, 20493, Note_on_c, 1, 73, 0
2, 20496, Note_on_c, 1, 74, 64
2, 20541, Note_on_c, 1, 74, 0
2, 20544, Note_on_c, 1, 66, 64
2, 20589, Note_on_c, 1, 66, 0
2, 20592, Note_on_c, 1, 74, 64
2, 20637, Note_on_c, 1, 74, 0
2, 20640, Note_on_c, 1, 68, 64
2, 20685, Note_on_c, 1, 68, 0
2, 20688, Note_on_c, 1, 73, 64
2, 20733, Note_on_c, 1, 73, 0
2, 20736, Note_on_c, 1, 73, 64
2, 20781, Note_on_c, 1, 73, 0
2, 20784, Note_on_c, 1, 76, 64
2, 20829, Note_on_c, 1, 76, 0
2, 20832, Note_on_c, 1, 81, 64
2, 20877, Note_on_c, 1, 81, 0
2, 20880, Note_on_c, 1, 79, 64
2, 20925, Note_on_c, 1, 79, 0
2, 20928, Note_on_c, 1, 78, 64
2, 20973, Note_on_c, 1, 78, 0
2, 20976, Note_on_c, 1, 76, 64
2, 21021, Note_on_c, 1, 76, 0
2, 21024, Note_on_c, 1, 75, 64
2, 21069, Note_on_c, 1, 75, 0
2, 21072, Note_on_c, 1, 76, 64
2, 21117, Note_on_c, 1, 76, 0
2, 21120, Note_on_c, 1, 78, 64
2, 21165, Note_on_c, 1, 78, 0
2, 21168, Note_on_c, 1, 76, 64
2, 21213, Note_on_c, 1, 76, 0
2, 21216, Note_on_c, 1, 75, 64
2, 21261, Note_on_c, 1, 75, 0
2, 21264, Note_on_c, 1, 73, 64
2, 21309, Note_on_c, 1, 73, 0
2, 21312, Note_on_c, 1, 71, 64
2, 21357, Note_on_c, 1, 71, 0
2, 21360, Note_on_c, 1, 69, 64
2, 21405, Note_on_c, 1, 69, 0
2, 21408, Note_on_c, 1, 67, 64
2, 21453, Note_on_c, 1, 67, 0
2, 21456, Note_on_c, 1, 66, 64
2, 21501, Note_on_c, 1, 66, 0
2, 21504, Note_on_c, 1, 64, 64
2, 21593, Note_on_c, 1, 64, 0
2, 21600, Note_on_c, 1, 76, 64
2, 21777, Note_on_c, 1, 76, 0
2, 21792, Note_on_c, 1, 75, 64
2, 21881, Note_on_c, 1, 75, 0
2, 21888, Note_on_c, 1, 76, 64
2, 21977, Note_on_c, 1, 76, 0
2, 21984, Note_on_c, 1, 79, 64
2, 22029, Note_on_c, 1, 79, 0
2, 22032, Note_on_c, 1, 78, 64
2, 22077, Note_on_c, 1, 78, 0
2, 22080, Note_on_c, 1, 76, 64
2, 22125, Note_on_c, 1, 76, 0
2, 22128, Note_on_c, 1, 78, 64
2, 22173, Note_on_c, 1, 78, 0
2, 22176, Note_on_c, 1, 79, 64
2, 22265, Note_on_c, 1, 79, 0
2, 22272, Note_on_c, 1, 79, 64
2, 22295, Note_on_c, 1, 79, 0
2, 22296, Note_on_c, 1, 81, 64
2, 22319, Note_on_c, 1, 81, 0
2, 22320, Note_on_c, 1, 79, 64
2, 22343, Note_on_c, 1, 79, 0
2, 22344, Note_on_c, 1, 81, 64
2, 22367, Note_on_c, 1, 81, 0
2, 22368, Note_on_c, 1, 78, 64
2, 22457, Note_on_c, 1, 78, 0
2, 22560, Note_on_c, 1, 76, 64
2, 22649, Note_on_c, 1, 76, 0
2, 22656, Note_on_c, 1, 74, 64
2, 22701, Note_on_c, 1, 74, 0
2, 22704, Note_on_c, 1, 76, 64
2, 22749, Note_on_c, 1, 76, 0
2, 22752, Note_on_c, 1, 78, 64
2, 22797, Note_on_c, 1, 78, 0
2, 22800, Note_on_c, 1, 71, 64
2, 22845, Note_on_c, 1, 71, 0
2, 22848, Note_on_c, 1, 74, 64
2, 22937, Note_on_c, 1, 74, 0
2, 22944, Note_on_c, 1, 73, 64
2, 22967, Note_on_c, 1, 73, 0
2, 22968, Note_on_c, 1, 74, 64
2, 22991, Note_on_c, 1, 74, 0
2, 22992, Note_on_c, 1, 73, 64
2, 23015, Note_on_c, 1, 73, 0
2, 23016, Note_on_c, 1, 74, 64
2, 23039, Note_on_c, 1, 74, 0
2, 23040, Note_on_c, 1, 71, 64
2, 23085, Note_on_c, 1, 71, 0
2, 23088, Note_on_c, 1, 78, 64
2, 23133, Note_on_c, 1, 78, 0
2, 23136, Note_on_c, 1, 80, 64
2, 23181, Note_on_c, 1, 80, 0
2, 23184, Note_on_c, 1, 81, 64
2, 23229, Note_on_c, 1, 81, 0
2, 23232, Note_on_c, 1, 83, 64
2, 23277, Note_on_c, 1, 83, 0
2, 23280, Note_on_c, 1, 81, 64
2, 23325, Note_on_c, 1, 81, 0
2, 23328, Note_on_c, 1, 80, 64
2, 23373, Note_on_c, 1, 80, 0
2, 23376, Note_on_c, 1, 78, 64
2, 23421, Note_on_c, 1, 78, 0
2, 23424, Note_on_c, 1, 76, 64
2, 23469, Note_on_c, 1, 76, 0
2, 23472, Note_on_c, 1, 74, 64
2, 23517, Note_on_c, 1, 74, 0
2, 23520, Note_on_c, 1, 76, 64
2, 23565, Note_on_c, 1, 76, 0
2, 23568, Note_on_c, 1, 78, 64
2, 23613, Note_on_c, 1, 78, 0
2, 23616, Note_on_c, 1, 80, 64
2, 23661, Note_on_c, 1, 80, 0
2, 23664, Note_on_c, 1, 81, 64
2, 23709, Note_on_c, 1, 81, 0
2, 23712, Note_on_c, 1, 78, 64
2, 23757, Note_on_c, 1, 78, 0
2, 23760, Note_on_c, 1, 80, 64
2, 23805, Note_on_c, 1, 80, 0
2, 23808, Note_on_c, 1, 81, 64
2, 23853, Note_on_c, 1, 81, 0
2, 23856, Note_on_c, 1, 80, 64
2, 23901, Note_on_c, 1, 80, 0
2, 23904, Note_on_c, 1, 81, 64
2, 23949, Note_on_c, 1, 81, 0
2, 23952, Note_on_c, 1, 83, 64
2, 23997, Note_on_c, 1, 83, 0
2, 24000, Note_on_c, 1, 85, 64
2, 24045, Note_on_c, 1, 85, 0
2, 24048, Note_on_c, 1, 83, 64
2, 24093, Note_on_c, 1, 83, 0
2, 24096, Note_on_c, 1, 82, 64
2, 24141, Note_on_c, 1, 82, 0
2, 24144, Note_on_c, 1, 80, 64
2, 24189, Note_on_c, 1, 80, 0
2, 24192, Note_on_c, 1, 78, 64
2, 24237, Note_on_c, 1, 78, 0
2, 24240, Note_on_c, 1, 76, 64
2, 24285, Note_on_c, 1, 76, 0
2, 24288, Note_on_c, 1, 78, 64
2, 24333, Note_on_c, 1, 78, 0
2, 24336, Note_on_c, 1, 80, 64
2, 24381, Note_on_c, 1, 80, 0
2, 24384, Note_on_c, 1, 82, 64
2, 24429, Note_on_c, 1, 82, 0
2, 24432, Note_on_c, 1, 83, 64
2, 24477, Note_on_c, 1, 83, 0
2, 24480, Note_on_c, 1, 80, 64
2, 24525, Note_on_c, 1, 80, 0
2, 24528, Note_on_c, 1, 82, 64
2, 24573, Note_on_c, 1, 82, 0
2, 24576, Note_on_c, 1, 83, 64
2, 24621, Note_on_c, 1, 83, 0
2, 24624, Note_on_c, 1, 82, 64
2, 24669, Note_on_c, 1, 82, 0
2, 24672, Note_on_c, 1, 83, 64
2, 24717, Note_on_c, 1, 83, 0
2, 24720, Note_on_c, 1, 85, 64
2, 24765, Note_on_c, 1, 85, 0
2, 24768, Note_on_c, 1, 86, 64
2, 24813, Note_on_c, 1, 86, 0
2, 24816, Note_on_c, 1, 85, 64
2, 24861, Note_on_c, 1, 85, 0
2, 24864, Note_on_c, 1, 83, 64
2, 24909, Note_on_c, 1, 83, 0
2, 24912, Note_on_c, 1, 81, 64
2, 24957, Note_on_c, 1, 81, 0
2, 24960, Note_on_c, 1, 80, 64
2, 25005, Note_on_c, 1, 80, 0
2, 25008, Note_on_c, 1, 78, 64
2, 25053, Note_on_c, 1, 78, 0
2, 25056, Note_on_c, 1, 80, 64
2, 25101, Note_on_c, 1, 80, 0
2, 25104, Note_on_c, 1, 81, 64
2, 25149, Note_on_c, 1, 81, 0
2, 25152, Note_on_c, 1, 83, 64
2, 25241, Note_on_c, 1, 83, 0
2, 25248, Note_on_c, 1, 74, 64
2, 25389, Note_on_c, 1, 74, 0
2, 25392, Note_on_c, 1, 73, 64
2, 25437, Note_on_c, 1, 73, 0
2, 25440, Note_on_c, 1, 71, 64
2, 25485, Note_on_c, 1, 71, 0
2, 25488, Note_on_c, 1, 73, 64
2, 25533, Note_on_c, 1, 73, 0
2, 25536, Note_on_c, 1, 74, 64
2, 25773, Note_on_c, 1, 74, 0
2, 25776, Note_on_c, 1, 73, 64
2, 25821, Note_on_c, 1, 73, 0
2, 25824, Note_on_c, 1, 71, 64
2, 25869, Note_on_c, 1, 71, 0
2, 25872, Note_on_c, 1, 73, 64
2, 25917, Note_on_c, 1, 73, 0
2, 25920, Note_on_c, 1, 74, 64
2, 25965, Note_on_c, 1, 74, 0
2, 25968, Note_on_c, 1, 78, 64
2, 26013, Note_on_c, 1, 78, 0
2, 26016, Note_on_c, 1, 76, 64
2, 26061, Note_on_c, 1, 76, 0
2, 26064, Note_on_c, 1, 74, 64
2, 26109, Note_on_c, 1, 74, 0
2, 26112, Note_on_c, 1, 73, 64
2, 26201, Note_on_c, 1, 73, 0
2, 26208, Note_on_c, 1, 74, 64
2, 26253, Note_on_c, 1, 74, 0
2, 26256, Note_on_c, 1, 73, 64
2, 26301, Note_on_c, 1, 73, 0
2, 26304, Note_on_c, 1, 71, 64
2, 26349, Note_on_c, 1, 71, 0
2, 26352, Note_on_c, 1, 73, 64
2, 26397, Note_on_c, 1, 73, 0
2, 26400, Note_on_c, 1, 74, 64
2, 26489, Note_on_c, 1, 74, 0
2, 26496, Note_on_c, 1, 74, 64
2, 26585, Note_on_c, 1, 74, 0
2, 26592, Note_on_c, 1, 76, 64
2, 26637, Note_on_c, 1, 76, 0
2, 26640, Note_on_c, 1, 74, 64
2, 26685, Note_on_c, 1, 74, 0
2, 26688, Note_on_c, 1, 73, 64
2, 26733, Note_on_c, 1, 73, 0
2, 26736, Note_on_c, 1, 74, 64
2, 26781, Note_on_c, 1, 74, 0
2, 26784, Note_on_c, 1, 76, 64
2, 26873, Note_on_c, 1, 76, 0
2, 26880, Note_on_c, 1, 76, 64
2, 26969, Note_on_c, 1, 76, 0
2, 26976, Note_on_c, 1, 81, 64
2, 27065, Note_on_c, 1, 81, 0
2, 27072, Note_on_c, 1, 80, 64
2, 27161, Note_on_c, 1, 80, 0
2, 27168, Note_on_c, 1, 81, 64
2, 27353, Note_on_c, 1, 81, 0
2, 27360, Note_on_c, 1, 80, 64
2, 27405, Note_on_c, 1, 80, 0
2, 27408, Note_on_c, 1, 78, 64
2, 27453, Note_on_c, 1, 78, 0
2, 27456, Note_on_c, 1, 80, 64
2, 27501, Note_on_c, 1, 80, 0
2, 27504, Note_on_c, 1, 83, 64
2, 27549, Note_on_c, 1, 83, 0
2, 27552, Note_on_c, 1, 71, 64
2, 27597, Note_on_c, 1, 71, 0
2, 27600, Note_on_c, 1, 73, 64
2, 27645, Note_on_c, 1, 73, 0
2, 27648, Note_on_c, 1, 74, 64
2, 27737, Note_on_c, 1, 74, 0
2, 27744, Note_on_c, 1, 76, 64
2, 27789, Note_on_c, 1, 76, 0
2, 27792, Note_on_c, 1, 74, 64
2, 27837, Note_on_c, 1, 74, 0
2, 27840, Note_on_c, 1, 73, 64
2, 27885, Note_on_c, 1, 73, 0
2, 27888, Note_on_c, 1, 74, 64
2, 27933, Note_on_c, 1, 74, 0
2, 27936, Note_on_c, 1, 76, 64
2, 28025, Note_on_c, 1, 76, 0
2, 28032, Note_on_c, 1, 76, 64
2, 28121, Note_on_c, 1, 76, 0
2, 28128, Note_on_c, 1, 78, 64
2, 28173, Note_on_c, 1, 78, 0
2, 28176, Note_on_c, 1, 76, 64
2, 28221, Note_on_c, 1, 76, 0
2, 28224, Note_on_c, 1, 74, 64
2, 28269, Note_on_c, 1, 74, 0
2, 28272, Note_on_c, 1, 76, 64
2, 28317, Note_on_c, 1, 76, 0
2, 28320, Note_on_c, 1, 78, 64
2, 28409, Note_on_c, 1, 78, 0
2, 28416, Note_on_c, 1, 78, 64
2, 28505, Note_on_c, 1, 78, 0
2, 28512, Note_on_c, 1, 83, 64
2, 28601, Note_on_c, 1, 83, 0
2, 28608, Note_on_c, 1, 82, 64
2, 28697, Note_on_c, 1, 82, 0
2, 28704, Note_on_c, 1, 83, 64
2, 28889, Note_on_c, 1, 83, 0
2, 28896, Note_on_c, 1, 81, 64
2, 28941, Note_on_c, 1, 81, 0
2, 28944, Note_on_c, 1, 80, 64
2, 28989, Note_on_c, 1, 80, 0
2, 28992, Note_on_c, 1, 81, 64
2, 29037, Note_on_c, 1, 81, 0
2, 29040, Note_on_c, 1, 85, 64
2, 29085, Note_on_c, 1, 85, 0
2, 29088, Note_on_c, 1, 73, 64
2, 29133, Note_on_c, 1, 73, 0
2, 29136, Note_on_c, 1, 74, 64
2, 29181, Note_on_c, 1, 74, 0
2, 29184, Note_on_c, 1, 76, 64
2, 29273, Note_on_c, 1, 76, 0
2, 29280, Note_on_c, 1, 73, 64
2, 29325, Note_on_c, 1, 73, 0
2, 29328, Note_on_c, 1, 69, 64
2, 29373, Note_on_c, 1, 69, 0
2, 29376, Note_on_c, 1, 81, 64
2, 29657, Note_on_c, 1, 81, 0
2, 29664, Note_on_c, 1, 78, 64
2, 29709, Note_on_c, 1, 78, 0
2, 29712, Note_on_c, 1, 74, 64
2, 29757, Note_on_c, 1, 74, 0
2, 29760, Note_on_c, 1, 86, 64
2, 29997, Note_on_c, 1, 86, 0
2, 30000, Note_on_c, 1, 83, 64
2, 30045, Note_on_c, 1, 83, 0
2, 30048, Note_on_c, 1, 85, 64
2, 30093, Note_on_c, 1, 85, 0
2, 30096, Note_on_c, 1, 86, 64
2, 30141, Note_on_c, 1, 86, 0
2, 30144, Note_on_c, 1, 80, 64
2, 30277, Note_on_c, 1, 80, 0
2, 30288, Note_on_c, 1, 81, 64
2, 30333, Note_on_c, 1, 81, 0
2, 30336, Note_on_c, 1, 81, 64
2, 31577, Note_on_c, 1, 81, 0
2, 31584, Note_on_c, 1, 69, 64
2, 31673, Note_on_c, 1, 69, 0
2, 31680, Note_on_c, 1, 74, 64
2, 31917, Note_on_c, 1, 74, 0
2, 31920, Note_on_c, 1, 71, 64
2, 31965, Note_on_c, 1, 71, 0
2, 31968, Note_on_c, 1, 73, 64
2, 32013, Note_on_c, 1, 73, 0
2, 32016, Note_on_c, 1, 74, 64
2, 32061, Note_on_c, 1, 74, 0
2, 32064, Note_on_c, 1, 68, 64
2, 32109, Note_on_c, 1, 68, 0
2, 32112, Note_on_c, 1, 74, 64
2, 32157, Note_on_c, 1, 74, 0
2, 32160, Note_on_c, 1, 64, 64
2, 32205, Note_on_c, 1, 64, 0
2, 32208, Note_on_c, 1, 74, 64
2, 32253, Note_on_c, 1, 74, 0
2, 32256, Note_on_c, 1, 73, 64
2, 32493, Note_on_c, 1, 73, 0
2, 32496, Note_on_c, 1, 78, 64
2, 32541, Note_on_c, 1, 78, 0
2, 32544, Note_on_c, 1, 80, 64
2, 32589, Note_on_c, 1, 80, 0
2, 32592, Note_on_c, 1, 81, 64
2, 32637, Note_on_c, 1, 81, 0
2, 32640, Note_on_c, 1, 83, 64
2, 32877, Note_on_c, 1, 83, 0
2, 32880, Note_on_c, 1, 77, 64
2, 32925, Note_on_c, 1, 77, 0
2, 32928, Note_on_c, 1, 78, 64
2, 32973, Note_on_c, 1, 78, 0
2, 32976, Note_on_c, 1, 80, 64
2, 33021, Note_on_c, 1, 80, 0
2, 33024, Note_on_c, 1, 81, 64
2, 33289, Note_on_c, 1, 81, 0
2, 33312, Note_on_c, 1, 86, 64
2, 33497, Note_on_c, 1, 86, 0
2, 33504, Note_on_c, 1, 80, 64
2, 33593, Note_on_c, 1, 80, 0
2, 33600, Note_on_c, 1, 85, 64
2, 33689, Note_on_c, 1, 85, 0
2, 33696, Note_on_c, 1, 83, 64
2, 33785, Note_on_c, 1, 83, 0
2, 33792, Note_on_c, 1, 81, 64
2, 33837, Note_on_c, 1, 81, 0
2, 33840, Note_on_c, 1, 80, 64
2, 33885, Note_on_c, 1, 80, 0
2, 33888, Note_on_c, 1, 83, 64
2, 33933, Note_on_c, 1, 83, 0
2, 33936, Note_on_c, 1, 81, 64
2, 33981, Note_on_c, 1, 81, 0
2, 33984, Note_on_c, 1, 80, 64
2, 34029, Note_on_c, 1, 80, 0
2, 34032, Note_on_c, 1, 78, 64
2, 34077, Note_on_c, 1, 78, 0
2, 34080, Note_on_c, 1, 77, 64
2, 34125, Note_on_c, 1, 77, 0
2, 34128, Note_on_c, 1, 78, 64
2, 34173, Note_on_c, 1, 78, 0
2, 34176, Note_on_c, 1, 80, 64
2, 34221, Note_on_c, 1, 80, 0
2, 34224, Note_on_c, 1, 78, 64
2, 34269, Note_on_c, 1, 78, 0
2, 34272, Note_on_c, 1, 77, 64
2, 34317, Note_on_c, 1, 77, 0
2, 34320, Note_on_c, 1, 75, 64
2, 34365, Note_on_c, 1, 75, 0
2, 34368, Note_on_c, 1, 73, 64
2, 34457, Note_on_c, 1, 73, 0
2, 34944, Note_on_c, 1, 73, 64
2, 35033, Note_on_c, 1, 73, 0
2, 35040, Note_on_c, 1, 74, 64
2, 35085, Note_on_c, 1, 74, 0
2, 35088, Note_on_c, 1, 73, 64
2, 35133, Note_on_c, 1, 73, 0
2, 35136, Note_on_c, 1, 71, 64
2, 35181, Note_on_c, 1, 71, 0
2, 35184, Note_on_c, 1, 73, 64
2, 35229, Note_on_c, 1, 73, 0
2, 35232, Note_on_c, 1, 74, 64
2, 35321, Note_on_c, 1, 74, 0
2, 35328, Note_on_c, 1, 74, 64
2, 35351, Note_on_c, 1, 74, 0
2, 35352, Note_on_c, 1, 76, 64
2, 35375, Note_on_c, 1, 76, 0
2, 35376, Note_on_c, 1, 74, 64
2, 35399, Note_on_c, 1, 74, 0
2, 35400, Note_on_c, 1, 76, 64
2, 35423, Note_on_c, 1, 76, 0
2, 35424, Note_on_c, 1, 73, 64
2, 35513, Note_on_c, 1, 73, 0
2, 35616, Note_on_c, 1, 71, 64
2, 35705, Note_on_c, 1, 71, 0
2, 35712, Note_on_c, 1, 69, 64
2, 35757, Note_on_c, 1, 69, 0
2, 35760, Note_on_c, 1, 71, 64
2, 35805, Note_on_c, 1, 71, 0
2, 35808, Note_on_c, 1, 73, 64
2, 35853, Note_on_c, 1, 73, 0
2, 35856, Note_on_c, 1, 66, 64
2, 35901, Note_on_c, 1, 66, 0
2, 35904, Note_on_c, 1, 69, 64
2, 35993, Note_on_c, 1, 69, 0
2, 36000, Note_on_c, 1, 68, 64
2, 36023, Note_on_c, 1, 68, 0
2, 36024, Note_on_c, 1, 69, 64
2, 36047, Note_on_c, 1, 69, 0
2, 36048, Note_on_c, 1, 68, 64
2, 36071, Note_on_c, 1, 68, 0
2, 36072, Note_on_c, 1, 69, 64
2, 36095, Note_on_c, 1, 69, 0
2, 36096, Note_on_c, 1, 66, 64
2, 36185, Note_on_c, 1, 66, 0
2, 36192, Note_on_c, 1, 73, 64
2, 36281, Note_on_c, 1, 73, 0
2, 36288, Note_on_c, 1, 74, 64
2, 36336, Note_on_c, 1, 74, 0
2, 36336, Note_on_c, 1, 73, 64
2, 36381, Note_on_c, 1, 73, 0
2, 36384, Note_on_c, 1, 71, 64
2, 36432, Note_on_c, 1, 71, 0
2, 36432, Note_on_c, 1, 70, 64
2, 36477, Note_on_c, 1, 70, 0
2, 36480, Note_on_c, 1, 71, 64
2, 36613, Note_on_c, 1, 71, 0
2, 36624, Note_on_c, 1, 78, 64
2, 36669, Note_on_c, 1, 78, 0
2, 36672, Note_on_c, 1, 78, 64
2, 36720, Note_on_c, 1, 78, 0
2, 36720, Note_on_c, 1, 77, 64
2, 36765, Note_on_c, 1, 77, 0
2, 36768, Note_on_c, 1, 78, 64
2, 36816, Note_on_c, 1, 78, 0
2, 36816, Note_on_c, 1, 80, 64
2, 36861, Note_on_c, 1, 80, 0
2, 36864, Note_on_c, 1, 71, 64
2, 36887, Note_on_c, 1, 71, 0
2, 36888, Note_on_c, 1, 69, 64
2, 37007, Note_on_c, 1, 69, 0
2, 37008, Note_on_c, 1, 78, 64
2, 37053, Note_on_c, 1, 78, 0
2, 37056, Note_on_c, 1, 78, 64
2, 37104, Note_on_c, 1, 78, 0
2, 37104, Note_on_c, 1, 77, 64
2, 37149, Note_on_c, 1, 77, 0
2, 37152, Note_on_c, 1, 78, 64
2, 37200, Note_on_c, 1, 78, 0
2, 37200, Note_on_c, 1, 80, 64
2, 37245, Note_on_c, 1, 80, 0
2, 37248, Note_on_c, 1, 69, 64
2, 37271, Note_on_c, 1, 69, 0
2, 37272, Note_on_c, 1, 68, 64
2, 37391, Note_on_c, 1, 68, 0
2, 37392, Note_on_c, 1, 69, 64
2, 37437, Note_on_c, 1, 69, 0
2, 37440, Note_on_c, 1, 71, 64
2, 37485, Note_on_c, 1, 71, 0
2, 37488, Note_on_c, 1, 74, 64
2, 37533, Note_on_c, 1, 74, 0
2, 37536, Note_on_c, 1, 73, 64
2, 37581, Note_on_c, 1, 73, 0
2, 37584, Note_on_c, 1, 71, 64
2, 37629, Note_on_c, 1, 71, 0
2, 37632, Note_on_c, 1, 77, 64
2, 37809, Note_on_c, 1, 77, 0
2, 37920, Note_on_c, 1, 77, 64
2, 38009, Note_on_c, 1, 77, 0
2, 38016, Note_on_c, 1, 78, 64
2, 38149, Note_on_c, 1, 78, 0
2, 38160, Note_on_c, 1, 80, 64
2, 38205, Note_on_c, 1, 80, 0
2, 38208, Note_on_c, 1, 77, 64
2, 38231, Note_on_c, 1, 77, 0
2, 38232, Note_on_c, 1, 78, 64
2, 38255, Note_on_c, 1, 78, 0
2, 38256, Note_on_c, 1, 77, 64
2, 38279, Note_on_c, 1, 77, 0
2, 38280, Note_on_c, 1, 78, 64
2, 38303, Note_on_c, 1, 78, 0
2, 38304, Note_on_c, 1, 77, 64
2, 38327, Note_on_c, 1, 77, 0
2, 38328, Note_on_c, 1, 78, 64
2, 38351, Note_on_c, 1, 78, 0
2, 38352, Note_on_c, 1, 78, 64
2, 38397, Note_on_c, 1, 78, 0
2, 38400, Note_on_c, 1, 78, 64
2, 38577, Note_on_c, 1, 78, 0
2, 38784, Note_on_c, 1, 78, 64
2, 38873, Note_on_c, 1, 78, 0
2, 38880, Note_on_c, 1, 79, 64
2, 38925, Note_on_c, 1, 79, 0
2, 38928, Note_on_c, 1, 78, 64
2, 38973, Note_on_c, 1, 78, 0
2, 38976, Note_on_c, 1, 76, 64
2, 39021, Note_on_c, 1, 76, 0
2, 39024, Note_on_c, 1, 78, 64
2, 39069, Note_on_c, 1, 78, 0
2, 39072, Note_on_c, 1, 79, 64
2, 39161, Note_on_c, 1, 79, 0
2, 39168, Note_on_c, 1, 79, 64
2, 39191, Note_on_c, 1, 79, 0
2, 39192, Note_on_c, 1, 81, 64
2, 39215, Note_on_c, 1, 81, 0
2, 39216, Note_on_c, 1, 79, 64
2, 39239, Note_on_c, 1, 79, 0
2, 39240, Note_on_c, 1, 81, 64
2, 39263, Note_on_c, 1, 81, 0
2, 39264, Note_on_c, 1, 78, 64
2, 39353, Note_on_c, 1, 78, 0
2, 39456, Note_on_c, 1, 76, 64
2, 39545, Note_on_c, 1, 76, 0
2, 39552, Note_on_c, 1, 74, 64
2, 39597, Note_on_c, 1, 74, 0
2, 39600, Note_on_c, 1, 76, 64
2, 39645, Note_on_c, 1, 76, 0
2, 39648, Note_on_c, 1, 78, 64
2, 39693, Note_on_c, 1, 78, 0
2, 39696, Note_on_c, 1, 71, 64
2, 39741, Note_on_c, 1, 71, 0
2, 39744, Note_on_c, 1, 74, 64
2, 39833, Note_on_c, 1, 74, 0
2, 39840, Note_on_c, 1, 73, 64
2, 39863, Note_on_c, 1, 73, 0
2, 39864, Note_on_c, 1, 74, 64
2, 39887, Note_on_c, 1, 74, 0
2, 39888, Note_on_c, 1, 73, 64
2, 39911, Note_on_c, 1, 73, 0
2, 39912, Note_on_c, 1, 74, 64
2, 39935, Note_on_c, 1, 74, 0
2, 39936, Note_on_c, 1, 71, 64
2, 39981, Note_on_c, 1, 71, 0
2, 39984, Note_on_c, 1, 74, 64
2, 40029, Note_on_c, 1, 74, 0
2, 40032, Note_on_c, 1, 73, 64
2, 40077, Note_on_c, 1, 73, 0
2, 40080, Note_on_c, 1, 71, 64
2, 40125, Note_on_c, 1, 71, 0
2, 40128, Note_on_c, 1, 78, 64
2, 40173, Note_on_c, 1, 78, 0
2, 40176, Note_on_c, 1, 71, 64
2, 40221, Note_on_c, 1, 71, 0
2, 40224, Note_on_c, 1, 80, 64
2, 40269, Note_on_c, 1, 80, 0
2, 40272, Note_on_c, 1, 71, 64
2, 40317, Note_on_c, 1, 71, 0
2, 40320, Note_on_c, 1, 81, 64
2, 40365, Note_on_c, 1, 81, 0
2, 40368, Note_on_c, 1, 80, 64
2, 40413, Note_on_c, 1, 80, 0
2, 40416, Note_on_c, 1, 83, 64
2, 40461, Note_on_c, 1, 83, 0
2, 40464, Note_on_c, 1, 81, 64
2, 40509, Note_on_c, 1, 81, 0
2, 40512, Note_on_c, 1, 80, 64
2, 40557, Note_on_c, 1, 80, 0
2, 40560, Note_on_c, 1, 78, 64
2, 40605, Note_on_c, 1, 78, 0
2, 40608, Note_on_c, 1, 77, 64
2, 40653, Note_on_c, 1, 77, 0
2, 40656, Note_on_c, 1, 78, 64
2, 40701, Note_on_c, 1, 78, 0
2, 40704, Note_on_c, 1, 80, 64
2, 40749, Note_on_c, 1, 80, 0
2, 40752, Note_on_c, 1, 78, 64
2, 40797, Note_on_c, 1, 78, 0
2, 40800, Note_on_c, 1, 77, 64
2, 40845, Note_on_c, 1, 77, 0
2, 40848, Note_on_c, 1, 75, 64
2, 40893, Note_on_c, 1, 75, 0
2, 40896, Note_on_c, 1, 73, 64
2, 40941, Note_on_c, 1, 73, 0
2, 40944, Note_on_c, 1, 71, 64
2, 40989, Note_on_c, 1, 71, 0
2, 40992, Note_on_c, 1, 69, 64
2, 41037, Note_on_c, 1, 69, 0
2, 41040, Note_on_c, 1, 68, 64
2, 41085, Note_on_c, 1, 68, 0
2, 41088, Note_on_c, 1, 66, 64
2, 41177, Note_on_c, 1, 66, 0
2, 41184, Note_on_c, 1, 78, 64
2, 41361, Note_on_c, 1, 78, 0
2, 41376, Note_on_c, 1, 77, 64
2, 41465, Note_on_c, 1, 77, 0
2, 41472, Note_on_c, 1, 81, 64
2, 41826, Note_on_c, 1, 81, 0
2, 41856, Note_on_c, 1, 79, 64
2, 42210, Note_on_c, 1, 79, 0
2, 42240, Note_on_c, 1, 78, 64
2, 42285, Note_on_c, 1, 78, 0
2, 42288, Note_on_c, 1, 74, 64
2, 42333, Note_on_c, 1, 74, 0
2, 42336, Note_on_c, 1, 76, 64
2, 42381, Note_on_c, 1, 76, 0
2, 42384, Note_on_c, 1, 78, 64
2, 42429, Note_on_c, 1, 78, 0
2, 42432, Note_on_c, 1, 71, 64
2, 42477, Note_on_c, 1, 71, 0
2, 42480, Note_on_c, 1, 78, 64
2, 42525, Note_on_c, 1, 78, 0
2, 42528, Note_on_c, 1, 68, 64
2, 42573, Note_on_c, 1, 68, 0
2, 42576, Note_on_c, 1, 78, 64
2, 42621, Note_on_c, 1, 78, 0
2, 42624, Note_on_c, 1, 76, 64
2, 42669, Note_on_c, 1, 76, 0
2, 42672, Note_on_c, 1, 73, 64
2, 42717, Note_on_c, 1, 73, 0
2, 42720, Note_on_c, 1, 74, 64
2, 42765, Note_on_c, 1, 74, 0
2, 42768, Note_on_c, 1, 76, 64
2, 42813, Note_on_c, 1, 76, 0
2, 42816, Note_on_c, 1, 70, 64
2, 42861, Note_on_c, 1, 70, 0
2, 42864, Note_on_c, 1, 76, 64
2, 42909, Note_on_c, 1, 76, 0
2, 42912, Note_on_c, 1, 66, 64
2, 42957, Note_on_c, 1, 66, 0
2, 42960, Note_on_c, 1, 76, 64
2, 43005, Note_on_c, 1, 76, 0
2, 43008, Note_on_c, 1, 74, 64
2, 43097, Note_on_c, 1, 74, 0
2, 43104, Note_on_c, 1, 71, 64
2, 43193, Note_on_c, 1, 71, 0
2, 43200, Note_on_c, 1, 79, 64
2, 43289, Note_on_c, 1, 79, 0
2, 43296, Note_on_c, 1, 76, 64
2, 43385, Note_on_c, 1, 76, 0
2, 43392, Note_on_c, 1, 82, 64
2, 43481, Note_on_c, 1, 82, 0
2, 43488, Note_on_c, 1, 85, 64
2, 43577, Note_on_c, 1, 85, 0
2, 43584, Note_on_c, 1, 82, 64
2, 43673, Note_on_c, 1, 82, 0
2, 43680, Note_on_c, 1, 78, 64
2, 43821, Note_on_c, 1, 78, 0
2, 43824, Note_on_c, 1, 73, 64
2, 43869, Note_on_c, 1, 73, 0
2, 43872, Note_on_c, 1, 74, 64
2, 43917, Note_on_c, 1, 74, 0
2, 43920, Note_on_c, 1, 76, 64
2, 43965, Note_on_c, 1, 76, 0
2, 43968, Note_on_c, 1, 68, 64
2, 44013, Note_on_c, 1, 68, 0
2, 44016, Note_on_c, 1, 76, 64
2, 44061, Note_on_c, 1, 76, 0
2, 44064, Note_on_c, 1, 70, 64
2, 44109, Note_on_c, 1, 70, 0
2, 44112, Note_on_c, 1, 76, 64
2, 44157, Note_on_c, 1, 76, 0
2, 44160, Note_on_c, 1, 74, 64
2, 44337, Note_on_c, 1, 74, 0
2, 44448, Note_on_c, 1, 83, 64
2, 44537, Note_on_c, 1, 83, 0
2, 44544, Note_on_c, 1, 76, 64
2, 44589, Note_on_c, 1, 76, 0
2, 44592, Note_on_c, 1, 73, 64
2, 44637, Note_on_c, 1, 73, 0
2, 44640, Note_on_c, 1, 71, 64
2, 44685, Note_on_c, 1, 71, 0
2, 44688, Note_on_c, 1, 69, 64
2, 44733, Note_on_c, 1, 69, 0
2, 44736, Note_on_c, 1, 76, 64
2, 44784, Note_on_c, 1, 76, 0
2, 44784, Note_on_c, 1, 69, 64
2, 44829, Note_on_c, 1, 69, 0
2, 44832, Note_on_c, 1, 78, 64
2, 44880, Note_on_c, 1, 78, 0
2, 44880, Note_on_c, 1, 69, 64
2, 44925, Note_on_c, 1, 69, 0
2, 44928, Note_on_c, 1, 79, 64
2, 45017, Note_on_c, 1, 79, 0
2, 45024, Note_on_c, 1, 71, 64
2, 45113, Note_on_c, 1, 71, 0
2, 45120, Note_on_c, 1, 79, 64
2, 45297, Note_on_c, 1, 79, 0
2, 45312, Note_on_c, 1, 78, 64
2, 45357, Note_on_c, 1, 78, 0
2, 45360, Note_on_c, 1, 74, 64
2, 45405, Note_on_c, 1, 74, 0
2, 45408, Note_on_c, 1, 73, 64
2, 45453, Note_on_c, 1, 73, 0
2, 45456, Note_on_c, 1, 71, 64
2, 45501, Note_on_c, 1, 71, 0
2, 45504, Note_on_c, 1, 78, 64
2, 45552, Note_on_c, 1, 78, 0
2, 45552, Note_on_c, 1, 71, 64
2, 45597, Note_on_c, 1, 71, 0
2, 45600, Note_on_c, 1, 80, 64
2, 45648, Note_on_c, 1, 80, 0
2, 45648, Note_on_c, 1, 71, 64
2, 45693, Note_on_c, 1, 71, 0
2, 45696, Note_on_c, 1, 81, 64
2, 46125, Note_on_c, 1, 81, 0
2, 46128, Note_on_c, 1, 83, 64
2, 46173, Note_on_c, 1, 83, 0
2, 46176, Note_on_c, 1, 85, 64
2, 46221, Note_on_c, 1, 85, 0
2, 46224, Note_on_c, 1, 86, 64
2, 46269, Note_on_c, 1, 86, 0
2, 46272, Note_on_c, 1, 80, 64
2, 46509, Note_on_c, 1, 80, 0
2, 46512, Note_on_c, 1, 78, 64
2, 46557, Note_on_c, 1, 78, 0
2, 46560, Note_on_c, 1, 83, 64
2, 46605, Note_on_c, 1, 83, 0
2, 46608, Note_on_c, 1, 81, 64
2, 46653, Note_on_c, 1, 81, 0
2, 46656, Note_on_c, 1, 80, 64
2, 46701, Note_on_c, 1, 80, 0
2, 46704, Note_on_c, 1, 78, 64
2, 46749, Note_on_c, 1, 78, 0
2, 46752, Note_on_c, 1, 77, 64
2, 46797, Note_on_c, 1, 77, 0
2, 46800, Note_on_c, 1, 78, 64
2, 46845, Note_on_c, 1, 78, 0
2, 46848, Note_on_c, 1, 80, 64
2, 46893, Note_on_c, 1, 80, 0
2, 46896, Note_on_c, 1, 78, 64
2, 46941, Note_on_c, 1, 78, 0
2, 46944, Note_on_c, 1, 77, 64
2, 46989, Note_on_c, 1, 77, 0
2, 46992, Note_on_c, 1, 75, 64
2, 47037, Note_on_c, 1, 75, 0
2, 47040, Note_on_c, 1, 73, 64
2, 47085, Note_on_c, 1, 73, 0
2, 47088, Note_on_c, 1, 71, 64
2, 47133, Note_on_c, 1, 71, 0
2, 47136, Note_on_c, 1, 69, 64
2, 47181, Note_on_c, 1, 69, 0
2, 47184, Note_on_c, 1, 68, 64
2, 47229, Note_on_c, 1, 68, 0
2, 47232, Note_on_c, 1, 66, 64
2, 47321, Note_on_c, 1, 66, 0
2, 47328, Note_on_c, 1, 78, 64
2, 47505, Note_on_c, 1, 78, 0
2, 47520, Note_on_c, 1, 77, 64
2, 47609, Note_on_c, 1, 77, 0
2, 47616, Note_on_c, 1, 78, 64
2, 47705, Note_on_c, 1, 78, 0
2, 47712, Note_on_c, 1, 73, 64
2, 47801, Note_on_c, 1, 73, 0
2, 47808, Note_on_c, 1, 78, 64
2, 48089, Note_on_c, 1, 78, 0
2, 48096, Note_on_c, 1, 71, 64
2, 48185, Note_on_c, 1, 71, 0
2, 48192, Note_on_c, 1, 76, 64
2, 48429, Note_on_c, 1, 76, 0
2, 48432, Note_on_c, 1, 78, 64
2, 48477, Note_on_c, 1, 78, 0
2, 48480, Note_on_c, 1, 79, 64
2, 48525, Note_on_c, 1, 79, 0
2, 48528, Note_on_c, 1, 81, 64
2, 48573, Note_on_c, 1, 81, 0
2, 48576, Note_on_c, 1, 74, 64
2, 48813, Note_on_c, 1, 74, 0
2, 48816, Note_on_c, 1, 76, 64
2, 48861, Note_on_c, 1, 76, 0
2, 48864, Note_on_c, 1, 78, 64
2, 48909, Note_on_c, 1, 78, 0
2, 48912, Note_on_c, 1, 79, 64
2, 48957, Note_on_c, 1, 79, 0
2, 48960, Note_on_c, 1, 73, 64
2, 49049, Note_on_c, 1, 73, 0
2, 49152, Note_on_c, 1, 78, 64
2, 49241, Note_on_c, 1, 78, 0
2, 49248, Note_on_c, 1, 79, 64
2, 49293, Note_on_c, 1, 79, 0
2, 49296, Note_on_c, 1, 78, 64
2, 49341, Note_on_c, 1, 78, 0
2, 49344, Note_on_c, 1, 76, 64
2, 49389, Note_on_c, 1, 76, 0
2, 49392, Note_on_c, 1, 78, 64
2, 49437, Note_on_c, 1, 78, 0
2, 49440, Note_on_c, 1, 79, 64
2, 49529, Note_on_c, 1, 79, 0
2, 49536, Note_on_c, 1, 79, 64
2, 49559, Note_on_c, 1, 79, 0
2, 49560, Note_on_c, 1, 81, 64
2, 49583, Note_on_c, 1, 81, 0
2, 49584, Note_on_c, 1, 79, 64
2, 49607, Note_on_c, 1, 79, 0
2, 49608, Note_on_c, 1, 81, 64
2, 49631, Note_on_c, 1, 81, 0
2, 49632, Note_on_c, 1, 78, 64
2, 49721, Note_on_c, 1, 78, 0
2, 49824, Note_on_c, 1, 76, 64
2, 49913, Note_on_c, 1, 76, 0
2, 49920, Note_on_c, 1, 74, 64
2, 49965, Note_on_c, 1, 74, 0
2, 49968, Note_on_c, 1, 76, 64
2, 50013, Note_on_c, 1, 76, 0
2, 50016, Note_on_c, 1, 78, 64
2, 50061, Note_on_c, 1, 78, 0
2, 50064, Note_on_c, 1, 71, 64
2, 50109, Note_on_c, 1, 71, 0
2, 50112, Note_on_c, 1, 74, 64
2, 50201, Note_on_c, 1, 74, 0
2, 50208, Note_on_c, 1, 73, 64
2, 50231, Note_on_c, 1, 73, 0
2, 50232, Note_on_c, 1, 74, 64
2, 50255, Note_on_c, 1, 74, 0
2, 50256, Note_on_c, 1, 73, 64
2, 50279, Note_on_c, 1, 73, 0
2, 50280, Note_on_c, 1, 74, 64
2, 50303, Note_on_c, 1, 74, 0
2, 50304, Note_on_c, 1, 71, 64
2, 50349, Note_on_c, 1, 71, 0
2, 50352, Note_on_c, 1, 74, 64
2, 50397, Note_on_c, 1, 74, 0
2, 50400, Note_on_c, 1, 73, 64
2, 50445, Note_on_c, 1, 73, 0
2, 50448, Note_on_c, 1, 71, 64
2, 50493, Note_on_c, 1, 71, 0
2, 50496, Note_on_c, 1, 76, 64
2, 50544, Note_on_c, 1, 76, 0
2, 50544, Note_on_c, 1, 71, 64
2, 50589, Note_on_c, 1, 71, 0
2, 50592, Note_on_c, 1, 78, 64
2, 50640, Note_on_c, 1, 78, 0
2, 50640, Note_on_c, 1, 71, 64
2, 50685, Note_on_c, 1, 71, 0
2, 50688, Note_on_c, 1, 79, 64
2, 50736, Note_on_c, 1, 79, 0
2, 50736, Note_on_c, 1, 71, 64
2, 50781, Note_on_c, 1, 71, 0
2, 50784, Note_on_c, 1, 78, 64
2, 50832, Note_on_c, 1, 78, 0
2, 50832, Note_on_c, 1, 71, 64
2, 50877, Note_on_c, 1, 71, 0
2, 50880, Note_on_c, 1, 76, 64
2, 50928, Note_on_c, 1, 76, 0
2, 50928, Note_on_c, 1, 71, 64
2, 50973, Note_on_c, 1, 71, 0
2, 50976, Note_on_c, 1, 79, 64
2, 51024, Note_on_c, 1, 79, 0
2, 51024, Note_on_c, 1, 71, 64
2, 51069, Note_on_c, 1, 71, 0
2, 51072, Note_on_c, 1, 78, 64
2, 51120, Note_on_c, 1, 78, 0
2, 51120, Note_on_c, 1, 71, 64
2, 51165, Note_on_c, 1, 71, 0
2, 51168, Note_on_c, 1, 76, 64
2, 51216, Note_on_c, 1, 76, 0
2, 51216, Note_on_c, 1, 71, 64
2, 51261, Note_on_c, 1, 71, 0
2, 51264, Note_on_c, 1, 74, 64
2, 51312, Note_on_c, 1, 74, 0
2, 51312, Note_on_c, 1, 71, 64
2, 51357, Note_on_c, 1, 71, 0
2, 51360, Note_on_c, 1, 78, 64
2, 51408, Note_on_c, 1, 78, 0
2, 51408, Note_on_c, 1, 71, 64
2, 51453, Note_on_c, 1, 71, 0
2, 51456, Note_on_c, 1, 76, 64
2, 51501, Note_on_c, 1, 76, 0
2, 51504, Note_on_c, 1, 79, 64
2, 51549, Note_on_c, 1, 79, 0
2, 51552, Note_on_c, 1, 78, 64
2, 51597, Note_on_c, 1, 78, 0
2, 51600, Note_on_c, 1, 76, 64
2, 51645, Note_on_c, 1, 76, 0
2, 51648, Note_on_c, 1, 82, 64
2, 51696, Note_on_c, 1, 82, 0
2, 51696, Note_on_c, 1, 76, 64
2, 51741, Note_on_c, 1, 76, 0
2, 51744, Note_on_c, 1, 83, 64
2, 51792, Note_on_c, 1, 83, 0
2, 51792, Note_on_c, 1, 76, 64
2, 51837, Note_on_c, 1, 76, 0
2, 51840, Note_on_c, 1, 85, 64
2, 52313, Note_on_c, 1, 85, 0
2, 52320, Note_on_c, 1, 78, 64
2, 52409, Note_on_c, 1, 78, 0
2, 52416, Note_on_c, 1, 83, 64
2, 52505, Note_on_c, 1, 83, 0
2, 52512, Note_on_c, 1, 81, 64
2, 52601, Note_on_c, 1, 81, 0
2, 52608, Note_on_c, 1, 79, 64
2, 52697, Note_on_c, 1, 79, 0
2, 52704, Note_on_c, 1, 78, 64
2, 52793, Note_on_c, 1, 78, 0
2, 52800, Note_on_c, 1, 76, 64
2, 53037, Note_on_c, 1, 76, 0
2, 53040, Note_on_c, 1, 79, 64
2, 53085, Note_on_c, 1, 79, 0
2, 53088, Note_on_c, 1, 78, 64
2, 53133, Note_on_c, 1, 78, 0
2, 53136, Note_on_c, 1, 76, 64
2, 53181, Note_on_c, 1, 76, 0
2, 53184, Note_on_c, 1, 74, 64
2, 53232, Note_on_c, 1, 74, 0
2, 53232, Note_on_c, 1, 71, 64
2, 53277, Note_on_c, 1, 71, 0
2, 53280, Note_on_c, 1, 76, 64
2, 53328, Note_on_c, 1, 76, 0
2, 53328, Note_on_c, 1, 71, 64
2, 53373, Note_on_c, 1, 71, 0
2, 53376, Note_on_c, 1, 78, 64
2, 53424, Note_on_c, 1, 78, 0
2, 53424, Note_on_c, 1, 71, 64
2, 53469, Note_on_c, 1, 71, 0
2, 53472, Note_on_c, 1, 79, 64
2, 53561, Note_on_c, 1, 79, 0
2, 53568, Note_on_c, 1, 74, 64
2, 53591, Note_on_c, 1, 74, 0
2, 53592, Note_on_c, 1, 76, 64
2, 53615, Note_on_c, 1, 76, 0
2, 53616, Note_on_c, 1, 74, 64
2, 53639, Note_on_c, 1, 74, 0
2, 53640, Note_on_c, 1, 76, 64
2, 53663, Note_on_c, 1, 76, 0
2, 53664, Note_on_c, 1, 73, 64
2, 53712, Note_on_c, 1, 73, 0
2, 53712, Note_on_c, 1, 71, 64
2, 53757, Note_on_c, 1, 71, 0
2, 53760, Note_on_c, 1, 71, 64
2, 53937, Note_on_c, 1, 71, 0
2, 53937, End_track
3, 0, Start_track
3, 0, MIDI_port, 0
3, 0, Title_t, "Clavier (RH)"
3, 0, Program_c, 0, 6
3, 0, Control_c, 0, 7, 127
3, 1536, Note_on_c, 0, 73, 64
3, 1625, Note_on_c, 0, 73, 0
3, 1632, Note_on_c, 0, 74, 64
3, 1677, Note_on_c, 0, 74, 0
3, 1680, Note_on_c, 0, 73, 64
3, 1725, Note_on_c, 0, 73, 0
3, 1728, Note_on_c, 0, 71, 64
3, 1773, Note_on_c, 0, 71, 0
3, 1776, Note_on_c, 0, 73, 64
3, 1821, Note_on_c, 0, 73, 0
3, 1824, Note_on_c, 0, 74, 64
3, 1913, Note_on_c, 0, 74, 0
3, 1920, Note_on_c, 0, 74, 64
3, 1943, Note_on_c, 0, 74, 0
3, 1944, Note_on_c, 0, 76, 64
3, 1967, Note_on_c, 0, 76, 0
3, 1968, Note_on_c, 0, 74, 64
3, 1991, Note_on_c, 0, 74, 0
3, 1992, Note_on_c, 0, 76, 64
3, 2015, Note_on_c, 0, 76, 0
3, 2016, Note_on_c, 0, 73, 64
3, 2105, Note_on_c, 0, 73, 0
3, 2208, Note_on_c, 0, 71, 64
3, 2297, Note_on_c, 0, 71, 0
3, 2304, Note_on_c, 0, 69, 64
3, 2349, Note_on_c, 0, 69, 0
3, 2352, Note_on_c, 0, 71, 64
3, 2397, Note_on_c, 0, 71, 0
3, 2400, Note_on_c, 0, 73, 64
3, 2445, Note_on_c, 0, 73, 0
3, 2448, Note_on_c, 0, 66, 64
3, 2493, Note_on_c, 0, 66, 0
3, 2496, Note_on_c, 0, 69, 64
3, 2585, Note_on_c, 0, 69, 0
3, 2592, Note_on_c, 0, 68, 64
3, 2615, Note_on_c, 0, 68, 0
3, 2616, Note_on_c, 0, 69, 64
3, 2639, Note_on_c, 0, 69, 0
3, 2640, Note_on_c, 0, 68, 64
3, 2663, Note_on_c, 0, 68, 0
3, 2664, Note_on_c, 0, 69, 64
3, 2687, Note_on_c, 0, 69, 0
3, 2688, Note_on_c, 0, 66, 64
3, 2733, Note_on_c, 0, 66, 0
3, 2736, Note_on_c, 0, 69, 64
3, 2781, Note_on_c, 0, 69, 0
3, 2784, Note_on_c, 0, 68, 64
3, 2829, Note_on_c, 0, 68, 0
3, 2832, Note_on_c, 0, 66, 64
3, 2877, Note_on_c, 0, 66, 0
3, 2880, Note_on_c, 0, 73, 64
3, 2925, Note_on_c, 0, 73, 0
3, 2928, Note_on_c, 0, 66, 64
3, 2973, Note_on_c, 0, 66, 0
3, 2976, Note_on_c, 0, 75, 64
3, 3021, Note_on_c, 0, 75, 0
3, 3024, Note_on_c, 0, 66, 64
3, 3069, Note_on_c, 0, 66, 0
3, 3072, Note_on_c, 0, 64, 64
3, 3117, Note_on_c, 0, 64, 0
3, 3120, Note_on_c, 0, 67, 64
3, 3165, Note_on_c, 0, 67, 0
3, 3168, Note_on_c, 0, 66, 64
3, 3213, Note_on_c, 0, 66, 0
3, 3216, Note_on_c, 0, 64, 64
3, 3261, Note_on_c, 0, 64, 0
3, 3264, Note_on_c, 0, 71, 64
3, 3309, Note_on_c, 0, 71, 0
3, 3312, Note_on_c, 0, 64, 64
3, 3357, Note_on_c, 0, 64, 0
3, 3360, Note_on_c, 0, 73, 64
3, 3405, Note_on_c, 0, 73, 0
3, 3408, Note_on_c, 0, 64, 64
3, 3453, Note_on_c, 0, 64, 0
3, 3456, Note_on_c, 0, 74, 64
3, 3885, Note_on_c, 0, 74, 0
3, 3888, Note_on_c, 0, 76, 64
3, 3933, Note_on_c, 0, 76, 0
3, 3936, Note_on_c, 0, 78, 64
3, 3981, Note_on_c, 0, 78, 0
3, 3984, Note_on_c, 0, 79, 64
3, 4029, Note_on_c, 0, 79, 0
3, 4032, Note_on_c, 0, 74, 64
3, 4056, Note_on_c, 0, 74, 0
3, 4056, Note_on_c, 0, 73, 64
3, 4211, Note_on_c, 0, 73, 0
3, 4224, Note_on_c, 0, 73, 64
3, 4269, Note_on_c, 0, 73, 0
3, 4272, Note_on_c, 0, 71, 64
3, 4317, Note_on_c, 0, 71, 0
3, 4320, Note_on_c, 0, 76, 64
3, 4365, Note_on_c, 0, 76, 0
3, 4368, Note_on_c, 0, 74, 64
3, 4413, Note_on_c, 0, 74, 0
3, 4416, Note_on_c, 0, 73, 64
3, 4461, Note_on_c, 0, 73, 0
3, 4464, Note_on_c, 0, 71, 64
3, 4509, Note_on_c, 0, 71, 0
3, 4512, Note_on_c, 0, 70, 64
3, 4557, Note_on_c, 0, 70, 0
3, 4560, Note_on_c, 0, 71, 64
3, 4605, Note_on_c, 0, 71, 0
3, 4608, Note_on_c, 0, 73, 64
3, 4653, Note_on_c, 0, 73, 0
3, 4656, Note_on_c, 0, 71, 64
3, 4701, Note_on_c, 0, 71, 0
3, 4704, Note_on_c, 0, 70, 64
3, 4749, Note_on_c, 0, 70, 0
3, 4752, Note_on_c, 0, 68, 64
3, 4797, Note_on_c, 0, 68, 0
3, 4800, Note_on_c, 0, 66, 64
3, 4845, Note_on_c, 0, 66, 0
3, 4848, Note_on_c, 0, 64, 64
3, 4893, Note_on_c, 0, 64, 0
3, 4896, Note_on_c, 0, 62, 64
3, 4941, Note_on_c, 0, 62, 0
3, 4944, Note_on_c, 0, 61, 64
3, 4989, Note_on_c, 0, 61, 0
3, 4992, Note_on_c, 0, 59, 64
3, 5081, Note_on_c, 0, 59, 0
3, 5088, Note_on_c, 0, 71, 64
3, 5265, Note_on_c, 0, 71, 0
3, 5280, Note_on_c, 0, 70, 64
3, 5369, Note_on_c, 0, 70, 0
3, 5376, Note_on_c, 0, 71, 64
3, 5465, Note_on_c, 0, 71, 0
3, 5472, Note_on_c, 0, 66, 64
3, 5561, Note_on_c, 0, 66, 0
3, 5568, Note_on_c, 0, 74, 64
3, 5849, Note_on_c, 0, 74, 0
3, 5856, Note_on_c, 0, 64, 64
3, 5945, Note_on_c, 0, 64, 0
3, 5952, Note_on_c, 0, 73, 64
3, 6041, Note_on_c, 0, 73, 0
3, 6048, Note_on_c, 0, 75, 64
3, 6137, Note_on_c, 0, 75, 0
3, 6144, Note_on_c, 0, 64, 64
3, 6189, Note_on_c, 0, 64, 0
3, 6192, Note_on_c, 0, 67, 64
3, 6237, Note_on_c, 0, 67, 0
3, 6240, Note_on_c, 0, 66, 64
3, 6285, Note_on_c, 0, 66, 0
3, 6288, Note_on_c, 0, 64, 64
3, 6333, Note_on_c, 0, 64, 0
3, 6336, Note_on_c, 0, 71, 64
3, 6381, Note_on_c, 0, 71, 0
3, 6384, Note_on_c, 0, 64, 64
3, 6429, Note_on_c, 0, 64, 0
3, 6432, Note_on_c, 0, 73, 64
3, 6477, Note_on_c, 0, 73, 0
3, 6480, Note_on_c, 0, 64, 64
3, 6525, Note_on_c, 0, 64, 0
3, 6528, Note_on_c, 0, 74, 64
3, 6617, Note_on_c, 0, 74, 0
3, 6624, Note_on_c, 0, 66, 64
3, 6713, Note_on_c, 0, 66, 0
3, 6720, Note_on_c, 0, 74, 64
3, 6897, Note_on_c, 0, 74, 0
3, 6912, Note_on_c, 0, 73, 64
3, 6957, Note_on_c, 0, 73, 0
3, 6960, Note_on_c, 0, 69, 64
3, 7005, Note_on_c, 0, 69, 0
3, 7008, Note_on_c, 0, 71, 64
3, 7053, Note_on_c, 0, 71, 0
3, 7056, Note_on_c, 0, 73, 64
3, 7101, Note_on_c, 0, 73, 0
3, 7104, Note_on_c, 0, 66, 64
3, 7149, Note_on_c, 0, 66, 0
3, 7152, Note_on_c, 0, 73, 64
3, 7197, Note_on_c, 0, 73, 0
3, 7200, Note_on_c, 0, 63, 64
3, 7245, Note_on_c, 0, 63, 0
3, 7248, Note_on_c, 0, 73, 64
3, 7293, Note_on_c, 0, 73, 0
3, 7296, Note_on_c, 0, 71, 64
3, 7341, Note_on_c, 0, 71, 0
3, 7344, Note_on_c, 0, 68, 64
3, 7389, Note_on_c, 0, 68, 0
3, 7392, Note_on_c, 0, 69, 64
3, 7437, Note_on_c, 0, 69, 0
3, 7440, Note_on_c, 0, 71, 64
3, 7485, Note_on_c, 0, 71, 0
3, 7488, Note_on_c, 0, 65, 64
3, 7533, Note_on_c, 0, 65, 0
3, 7536, Note_on_c, 0, 71, 64
3, 7581, Note_on_c, 0, 71, 0
3, 7584, Note_on_c, 0, 61, 64
3, 7629, Note_on_c, 0, 61, 0
3, 7632, Note_on_c, 0, 71, 64
3, 7677, Note_on_c, 0, 71, 0
3, 7680, Note_on_c, 0, 69, 64
3, 7769, Note_on_c, 0, 69, 0
3, 7776, Note_on_c, 0, 66, 64
3, 7865, Note_on_c, 0, 66, 0
3, 7872, Note_on_c, 0, 78, 64
3, 8049, Note_on_c, 0, 78, 0
3, 8064, Note_on_c, 0, 77, 64
3, 8153, Note_on_c, 0, 77, 0
3, 8160, Note_on_c, 0, 80, 64
3, 8249, Note_on_c, 0, 80, 0
3, 8256, Note_on_c, 0, 77, 64
3, 8345, Note_on_c, 0, 77, 0
3, 8352, Note_on_c, 0, 73, 64
3, 8441, Note_on_c, 0, 73, 0
3, 8448, Note_on_c, 0, 66, 64
3, 8493, Note_on_c, 0, 66, 0
3, 8496, Note_on_c, 0, 68, 64
3, 8541, Note_on_c, 0, 68, 0
3, 8544, Note_on_c, 0, 69, 64
3, 8589, Note_on_c, 0, 69, 0
3, 8592, Note_on_c, 0, 71, 64
3, 8637, Note_on_c, 0, 71, 0
3, 8640, Note_on_c, 0, 73, 64
3, 8685, Note_on_c, 0, 73, 0
3, 8688, Note_on_c, 0, 78, 64
3, 8733, Note_on_c, 0, 78, 0
3, 8736, Note_on_c, 0, 71, 64
3, 8781, Note_on_c, 0, 71, 0
3, 8784, Note_on_c, 0, 80, 64
3, 8829, Note_on_c, 0, 80, 0
3, 8832, Note_on_c, 0, 81, 64
3, 8877, Note_on_c, 0, 81, 0
3, 8880, Note_on_c, 0, 69, 64
3, 8925, Note_on_c, 0, 69, 0
3, 8928, Note_on_c, 0, 71, 64
3, 8973, Note_on_c, 0, 71, 0
3, 8976, Note_on_c, 0, 73, 64
3, 9021, Note_on_c, 0, 73, 0
3, 9024, Note_on_c, 0, 66, 64
3, 9069, Note_on_c, 0, 66, 0
3, 9072, Note_on_c, 0, 71, 64
3, 9117, Note_on_c, 0, 71, 0
3, 9120, Note_on_c, 0, 63, 64
3, 9165, Note_on_c, 0, 63, 0
3, 9168, Note_on_c, 0, 66, 64
3, 9213, Note_on_c, 0, 66, 0
3, 9216, Note_on_c, 0, 71, 64
3, 9261, Note_on_c, 0, 71, 0
3, 9264, Note_on_c, 0, 67, 64
3, 9309, Note_on_c, 0, 67, 0
3, 9312, Note_on_c, 0, 69, 64
3, 9357, Note_on_c, 0, 69, 0
3, 9360, Note_on_c, 0, 71, 64
3, 9405, Note_on_c, 0, 71, 0
3, 9408, Note_on_c, 0, 64, 64
3, 9453, Note_on_c, 0, 64, 0
3, 9456, Note_on_c, 0, 69, 64
3, 9501, Note_on_c, 0, 69, 0
3, 9504, Note_on_c, 0, 61, 64
3, 9549, Note_on_c, 0, 61, 0
3, 9552, Note_on_c, 0, 64, 64
3, 9597, Note_on_c, 0, 64, 0
3, 9600, Note_on_c, 0, 69, 64
3, 9645, Note_on_c, 0, 69, 0
3, 9648, Note_on_c, 0, 74, 64
3, 9693, Note_on_c, 0, 74, 0
3, 9696, Note_on_c, 0, 76, 64
3, 9741, Note_on_c, 0, 76, 0
3, 9744, Note_on_c, 0, 78, 64
3, 9789, Note_on_c, 0, 78, 0
3, 9792, Note_on_c, 0, 71, 64
3, 9837, Note_on_c, 0, 71, 0
3, 9840, Note_on_c, 0, 78, 64
3, 9885, Note_on_c, 0, 78, 0
3, 9888, Note_on_c, 0, 68, 64
3, 9933, Note_on_c, 0, 68, 0
3, 9936, Note_on_c, 0, 78, 64
3, 9981, Note_on_c, 0, 78, 0
3, 9984, Note_on_c, 0, 76, 64
3, 10029, Note_on_c, 0, 76, 0
3, 10032, Note_on_c, 0, 73, 64
3, 10077, Note_on_c, 0, 73, 0
3, 10080, Note_on_c, 0, 74, 64
3, 10125, Note_on_c, 0, 74, 0
3, 10128, Note_on_c, 0, 76, 64
3, 10173, Note_on_c, 0, 76, 0
3, 10176, Note_on_c, 0, 70, 64
3, 10221, Note_on_c, 0, 70, 0
3, 10224, Note_on_c, 0, 76, 64
3, 10269, Note_on_c, 0, 76, 0
3, 10272, Note_on_c, 0, 66, 64
3, 10317, Note_on_c, 0, 66, 0
3, 10320, Note_on_c, 0, 76, 64
3, 10365, Note_on_c, 0, 76, 0
3, 10368, Note_on_c, 0, 74, 64
3, 10457, Note_on_c, 0, 74, 0
3, 10464, Note_on_c, 0, 73, 64
3, 10509, Note_on_c, 0, 73, 0
3, 10512, Note_on_c, 0, 74, 64
3, 10557, Note_on_c, 0, 74, 0
3, 10560, Note_on_c, 0, 76, 64
3, 10605, Note_on_c, 0, 76, 0
3, 10608, Note_on_c, 0, 74, 64
3, 10653, Note_on_c, 0, 74, 0
3, 10656, Note_on_c, 0, 73, 64
3, 10701, Note_on_c, 0, 73, 0
3, 10704, Note_on_c, 0, 71, 64
3, 10749, Note_on_c, 0, 71, 0
3, 10752, Note_on_c, 0, 70, 64
3, 10841, Note_on_c, 0, 70, 0
3, 10848, Note_on_c, 0, 73, 64
3, 10937, Note_on_c, 0, 73, 0
3, 10944, Note_on_c, 0, 70, 64
3, 11033, Note_on_c, 0, 70, 0
3, 11040, Note_on_c, 0, 66, 64
3, 11129, Note_on_c, 0, 66, 0
3, 11136, Note_on_c, 0, 71, 64
3, 11225, Note_on_c, 0, 71, 0
3, 11232, Note_on_c, 0, 83, 64
3, 11409, Note_on_c, 0, 83, 0
3, 11424, Note_on_c, 0, 82, 64
3, 11513, Note_on_c, 0, 82, 0
3, 11520, Note_on_c, 0, 81, 64
3, 12761, Note_on_c, 0, 81, 0
3, 12768, Note_on_c, 0, 71, 64
3, 12857, Note_on_c, 0, 71, 0
3, 12864, Note_on_c, 0, 76, 64
3, 13101, Note_on_c, 0, 76, 0
3, 13104, Note_on_c, 0, 73, 64
3, 13149, Note_on_c, 0, 73, 0
3, 13152, Note_on_c, 0, 74, 64
3, 13197, Note_on_c, 0, 74, 0
3, 13200, Note_on_c, 0, 76, 64
3, 13245, Note_on_c, 0, 76, 0
3, 13248, Note_on_c, 0, 70, 64
3, 13293, Note_on_c, 0, 70, 0
3, 13296, Note_on_c, 0, 76, 64
3, 13341, Note_on_c, 0, 76, 0
3, 13344, Note_on_c, 0, 66, 64
3, 13389, Note_on_c, 0, 66, 0
3, 13392, Note_on_c, 0, 76, 64
3, 13437, Note_on_c, 0, 76, 0
3, 13440, Note_on_c, 0, 74, 64
3, 13705, Note_on_c, 0, 74, 0
3, 13728, Note_on_c, 0, 75, 64
3, 13817, Note_on_c, 0, 75, 0
3, 13824, Note_on_c, 0, 76, 64
3, 13869, Note_on_c, 0, 76, 0
3, 13872, Note_on_c, 0, 73, 64
3, 13917, Note_on_c, 0, 73, 0
3, 13920, Note_on_c, 0, 73, 64
3, 13965, Note_on_c, 0, 73, 0
3, 13968, Note_on_c, 0, 71, 64
3, 14013, Note_on_c, 0, 71, 0
3, 14016, Note_on_c, 0, 70, 64
3, 14061, Note_on_c, 0, 70, 0
3, 14064, Note_on_c, 0, 79, 64
3, 14109, Note_on_c, 0, 79, 0
3, 14112, Note_on_c, 0, 71, 64
3, 14157, Note_on_c, 0, 71, 0
3, 14160, Note_on_c, 0, 79, 64
3, 14205, Note_on_c, 0, 79, 0
3, 14208, Note_on_c, 0, 73, 64
3, 14253, Note_on_c, 0, 73, 0
3, 14256, Note_on_c, 0, 76, 64
3, 14301, Note_on_c, 0, 76, 0
3, 14304, Note_on_c, 0, 74, 64
3, 14349, Note_on_c, 0, 74, 0
3, 14352, Note_on_c, 0, 73, 64
3, 14397, Note_on_c, 0, 73, 0
3, 14400, Note_on_c, 0, 71, 64
3, 14489, Note_on_c, 0, 71, 0
3, 14496, Note_on_c, 0, 83, 64
3, 14541, Note_on_c, 0, 83, 0
3, 14544, Note_on_c, 0, 82, 64
3, 14589, Note_on_c, 0, 82, 0
3, 14592, Note_on_c, 0, 83, 64
3, 14637, Note_on_c, 0, 83, 0
3, 14640, Note_on_c, 0, 74, 64
3, 14685, Note_on_c, 0, 74, 0
3, 14688, Note_on_c, 0, 73, 64
3, 14733, Note_on_c, 0, 73, 0
3, 14736, Note_on_c, 0, 71, 64
3, 14781, Note_on_c, 0, 71, 0
3, 14784, Note_on_c, 0, 70, 64
3, 14917, Note_on_c, 0, 70, 0
3, 14928, Note_on_c, 0, 71, 64
3, 14973, Note_on_c, 0, 71, 0
3, 14976, Note_on_c, 0, 71, 64
3, 15153, Note_on_c, 0, 71, 0
3, 15360, Note_on_c, 0, 66, 64
3, 15449, Note_on_c, 0, 66, 0
3, 15456, Note_on_c, 0, 67, 64
3, 15501, Note_on_c, 0, 67, 0
3, 15504, Note_on_c, 0, 66, 64
3, 15549, Note_on_c, 0, 66, 0
3, 15552, Note_on_c, 0, 64, 64
3, 15597, Note_on_c, 0, 64, 0
3, 15600, Note_on_c, 0, 66, 64
3, 15645, Note_on_c, 0, 66, 0
3, 15648, Note_on_c, 0, 67, 64
3, 15737, Note_on_c, 0, 67, 0
3, 15744, Note_on_c, 0, 67, 64
3, 15833, Note_on_c, 0, 67, 0
3, 15840, Note_on_c, 0, 69, 64
3, 15885, Note_on_c, 0, 69, 0
3, 15888, Note_on_c, 0, 67, 64
3, 15933, Note_on_c, 0, 67, 0
3, 15936, Note_on_c, 0, 66, 64
3, 15981, Note_on_c, 0, 66, 0
3, 15984, Note_on_c, 0, 67, 64
3, 16029, Note_on_c, 0, 67, 0
3, 16032, Note_on_c, 0, 69, 64
3, 16121, Note_on_c, 0, 69, 0
3, 16128, Note_on_c, 0, 69, 64
3, 16217, Note_on_c, 0, 69, 0
3, 16224, Note_on_c, 0, 74, 64
3, 16313, Note_on_c, 0, 74, 0
3, 16320, Note_on_c, 0, 73, 64
3, 16409, Note_on_c, 0, 73, 0
3, 16416, Note_on_c, 0, 74, 64
3, 16601, Note_on_c, 0, 74, 0
3, 16608, Note_on_c, 0, 73, 64
3, 16653, Note_on_c, 0, 73, 0
3, 16656, Note_on_c, 0, 71, 64
3, 16701, Note_on_c, 0, 71, 0
3, 16704, Note_on_c, 0, 73, 64
3, 16749, Note_on_c, 0, 73, 0
3, 16752, Note_on_c, 0, 76, 64
3, 16797, Note_on_c, 0, 76, 0
3, 16800, Note_on_c, 0, 64, 64
3, 16845, Note_on_c, 0, 64, 0
3, 16848, Note_on_c, 0, 66, 64
3, 16893, Note_on_c, 0, 66, 0
3, 16896, Note_on_c, 0, 67, 64
3, 16985, Note_on_c, 0, 67, 0
3, 16992, Note_on_c, 0, 69, 64
3, 17037, Note_on_c, 0, 69, 0
3, 17040, Note_on_c, 0, 67, 64
3, 17085, Note_on_c, 0, 67, 0
3, 17088, Note_on_c, 0, 66, 64
3, 17133, Note_on_c, 0, 66, 0
3, 17136, Note_on_c, 0, 67, 64
3, 17181, Note_on_c, 0, 67, 0
3, 17184, Note_on_c, 0, 69, 64
3, 17273, Note_on_c, 0, 69, 0
3, 17280, Note_on_c, 0, 69, 64
3, 17369, Note_on_c, 0, 69, 0
3, 17376, Note_on_c, 0, 71, 64
3, 17421, Note_on_c, 0, 71, 0
3, 17424, Note_on_c, 0, 69, 64
3, 17469, Note_on_c, 0, 69, 0
3, 17472, Note_on_c, 0, 67, 64
3, 17517, Note_on_c, 0, 67, 0
3, 17520, Note_on_c, 0, 69, 64
3, 17565, Note_on_c, 0, 69, 0
3, 17568, Note_on_c, 0, 71, 64
3, 17657, Note_on_c, 0, 71, 0
3, 17664, Note_on_c, 0, 71, 64
3, 17753, Note_on_c, 0, 71, 0
3, 17760, Note_on_c, 0, 76, 64
3, 17849, Note_on_c, 0, 76, 0
3, 17856, Note_on_c, 0, 75, 64
3, 17945, Note_on_c, 0, 75, 0
3, 17952, Note_on_c, 0, 76, 64
3, 18137, Note_on_c, 0, 76, 0
3, 18144, Note_on_c, 0, 74, 64
3, 18189, Note_on_c, 0, 74, 0
3, 18192, Note_on_c, 0, 73, 64
3, 18237, Note_on_c, 0, 73, 0
3, 18240, Note_on_c, 0, 74, 64
3, 18285, Note_on_c, 0, 74, 0
3, 18288, Note_on_c, 0, 78, 64
3, 18333, Note_on_c, 0, 78, 0
3, 18336, Note_on_c, 0, 66, 64
3, 18381, Note_on_c, 0, 66, 0
3, 18384, Note_on_c, 0, 67, 64
3, 18429, Note_on_c, 0, 67, 0
3, 18432, Note_on_c, 0, 69, 64
3, 18521, Note_on_c, 0, 69, 0
3, 18528, Note_on_c, 0, 66, 64
3, 18573, Note_on_c, 0, 66, 0
3, 18576, Note_on_c, 0, 62, 64
3, 18621, Note_on_c, 0, 62, 0
3, 18624, Note_on_c, 0, 74, 64
3, 18905, Note_on_c, 0, 74, 0
3, 18912, Note_on_c, 0, 71, 64
3, 18957, Note_on_c, 0, 71, 0
3, 18960, Note_on_c, 0, 67, 64
3, 19005, Note_on_c, 0, 67, 0
3, 19008, Note_on_c, 0, 79, 64
3, 19245, Note_on_c, 0, 79, 0
3, 19248, Note_on_c, 0, 76, 64
3, 19293, Note_on_c, 0, 76, 0
3, 19296, Note_on_c, 0, 78, 64
3, 19341, Note_on_c, 0, 78, 0
3, 19344, Note_on_c, 0, 79, 64
3, 19389, Note_on_c, 0, 79, 0
3, 19392, Note_on_c, 0, 73, 64
3, 19415, Note_on_c, 0, 73, 0
3, 19416, Note_on_c, 0, 74, 64
3, 19439, Note_on_c, 0, 74, 0
3, 19440, Note_on_c, 0, 73, 64
3, 19463, Note_on_c, 0, 73, 0
3, 19464, Note_on_c, 0, 74, 64
3, 19487, Note_on_c, 0, 74, 0
3, 19488, Note_on_c, 0, 73, 64
3, 19511, Note_on_c, 0, 73, 0
3, 19512, Note_on_c, 0, 74, 64
3, 19535, Note_on_c, 0, 74, 0
3, 19536, Note_on_c, 0, 74, 64
3, 19581, Note_on_c, 0, 74, 0
3, 19584, Note_on_c, 0, 74, 64
3, 19629, Note_on_c, 0, 74, 0
3, 19632, Note_on_c, 0, 81, 64
3, 19677, Note_on_c, 0, 81, 0
3, 19680, Note_on_c, 0, 86, 64
3, 19725, Note_on_c, 0, 86, 0
3, 19728, Note_on_c, 0, 85, 64
3, 19773, Note_on_c, 0, 85, 0
3, 19776, Note_on_c, 0, 83, 64
3, 19821, Note_on_c, 0, 83, 0
3, 19824, Note_on_c, 0, 81, 64
3, 19869, Note_on_c, 0, 81, 0
3, 19872, Note_on_c, 0, 80, 64
3, 19917, Note_on_c, 0, 80, 0
3, 19920, Note_on_c, 0, 81, 64
3, 19965, Note_on_c, 0, 81, 0
3, 19968, Note_on_c, 0, 83, 64
3, 20013, Note_on_c, 0, 83, 0
3, 20016, Note_on_c, 0, 81, 64
3, 20061, Note_on_c, 0, 81, 0
3, 20064, Note_on_c, 0, 80, 64
3, 20109, Note_on_c, 0, 80, 0
3, 20112, Note_on_c, 0, 78, 64
3, 20157, Note_on_c, 0, 78, 0
3, 20160, Note_on_c, 0, 76, 64
3, 20205, Note_on_c, 0, 76, 0
3, 20208, Note_on_c, 0, 74, 64
3, 20253, Note_on_c, 0, 74, 0
3, 20256, Note_on_c, 0, 73, 64
3, 20301, Note_on_c, 0, 73, 0
3, 20304, Note_on_c, 0, 71, 64
3, 20349, Note_on_c, 0, 71, 0
3, 20352, Note_on_c, 0, 69, 64
3, 20441, Note_on_c, 0, 69, 0
3, 20448, Note_on_c, 0, 81, 64
3, 20625, Note_on_c, 0, 81, 0
3, 20640, Note_on_c, 0, 80, 64
3, 20729, Note_on_c, 0, 80, 0
3, 20736, Note_on_c, 0, 81, 64
3, 20825, Note_on_c, 0, 81, 0
3, 20832, Note_on_c, 0, 84, 64
3, 20877, Note_on_c, 0, 84, 0
3, 20880, Note_on_c, 0, 83, 64
3, 20925, Note_on_c, 0, 83, 0
3, 20928, Note_on_c, 0, 81, 64
3, 20973, Note_on_c, 0, 81, 0
3, 20976, Note_on_c, 0, 83, 64
3, 21021, Note_on_c, 0, 83, 0
3, 21024, Note_on_c, 0, 84, 64
3, 21113, Note_on_c, 0, 84, 0
3, 21120, Note_on_c, 0, 84, 64
3, 21143, Note_on_c, 0, 84, 0
3, 21144, Note_on_c, 0, 86, 64
3, 21167, Note_on_c, 0, 86, 0
3, 21168, Note_on_c, 0, 84, 64
3, 21191, Note_on_c, 0, 84, 0
3, 21192, Note_on_c, 0, 86, 64
3, 21215, Note_on_c, 0, 86, 0
3, 21216, Note_on_c, 0, 83, 64
3, 21305, Note_on_c, 0, 83, 0
3, 21408, Note_on_c, 0, 81, 64
3, 21497, Note_on_c, 0, 81, 0
3, 21504, Note_on_c, 0, 79, 64
3, 21549, Note_on_c, 0, 79, 0
3, 21552, Note_on_c, 0, 81, 64
3, 21597, Note_on_c, 0, 81, 0
3, 21600, Note_on_c, 0, 83, 64
3, 21645, Note_on_c, 0, 83, 0
3, 21648, Note_on_c, 0, 76, 64
3, 21693, Note_on_c, 0, 76, 0
3, 21696, Note_on_c, 0, 79, 64
3, 21785, Note_on_c, 0, 79, 0
3, 21792, Note_on_c, 0, 78, 64
3, 21815, Note_on_c, 0, 78, 0
3, 21816, Note_on_c, 0, 79, 64
3, 21839, Note_on_c, 0, 79, 0
3, 21840, Note_on_c, 0, 78, 64
3, 21863, Note_on_c, 0, 78, 0
3, 21864, Note_on_c, 0, 79, 64
3, 21887, Note_on_c, 0, 79, 0
3, 21888, Note_on_c, 0, 76, 64
3, 21933, Note_on_c, 0, 76, 0
3, 21936, Note_on_c, 0, 74, 64
3, 21981, Note_on_c, 0, 74, 0
3, 21984, Note_on_c, 0, 73, 64
3, 22029, Note_on_c, 0, 73, 0
3, 22032, Note_on_c, 0, 74, 64
3, 22077, Note_on_c, 0, 74, 0
3, 22080, Note_on_c, 0, 76, 64
3, 22125, Note_on_c, 0, 76, 0
3, 22128, Note_on_c, 0, 74, 64
3, 22173, Note_on_c, 0, 74, 0
3, 22176, Note_on_c, 0, 73, 64
3, 22221, Note_on_c, 0, 73, 0
3, 22224, Note_on_c, 0, 71, 64
3, 22269, Note_on_c, 0, 71, 0
3, 22272, Note_on_c, 0, 70, 64
3, 22361, Note_on_c, 0, 70, 0
3, 22368, Note_on_c, 0, 73, 64
3, 22457, Note_on_c, 0, 73, 0
3, 22464, Note_on_c, 0, 70, 64
3, 22553, Note_on_c, 0, 70, 0
3, 22560, Note_on_c, 0, 66, 64
3, 22649, Note_on_c, 0, 66, 0
3, 22656, Note_on_c, 0, 71, 64
3, 22745, Note_on_c, 0, 71, 0
3, 22752, Note_on_c, 0, 83, 64
3, 22929, Note_on_c, 0, 83, 0
3, 22944, Note_on_c, 0, 82, 64
3, 23033, Note_on_c, 0, 82, 0
3, 23040, Note_on_c, 0, 83, 64
3, 23085, Note_on_c, 0, 83, 0
3, 23088, Note_on_c, 0, 73, 64
3, 23133, Note_on_c, 0, 73, 0
3, 23136, Note_on_c, 0, 71, 64
3, 23181, Note_on_c, 0, 71, 0
3, 23184, Note_on_c, 0, 73, 64
3, 23229, Note_on_c, 0, 73, 0
3, 23232, Note_on_c, 0, 74, 64
3, 23277, Note_on_c, 0, 74, 0
3, 23280, Note_on_c, 0, 73, 64
3, 23325, Note_on_c, 0, 73, 0
3, 23328, Note_on_c, 0, 71, 64
3, 23373, Note_on_c, 0, 71, 0
3, 23376, Note_on_c, 0, 69, 64
3, 23421, Note_on_c, 0, 69, 0
3, 23424, Note_on_c, 0, 68, 64
3, 23469, Note_on_c, 0, 68, 0
3, 23472, Note_on_c, 0, 66, 64
3, 23517, Note_on_c, 0, 66, 0
3, 23520, Note_on_c, 0, 68, 64
3, 23565, Note_on_c, 0, 68, 0
3, 23568, Note_on_c, 0, 69, 64
3, 23613, Note_on_c, 0, 69, 0
3, 23616, Note_on_c, 0, 71, 64
3, 23661, Note_on_c, 0, 71, 0
3, 23664, Note_on_c, 0, 73, 64
3, 23709, Note_on_c, 0, 73, 0
3, 23712, Note_on_c, 0, 69, 64
3, 23757, Note_on_c, 0, 69, 0
3, 23760, Note_on_c, 0, 71, 64
3, 23805, Note_on_c, 0, 71, 0
3, 23808, Note_on_c, 0, 73, 64
3, 23853, Note_on_c, 0, 73, 0
3, 23856, Note_on_c, 0, 71, 64
3, 23901, Note_on_c, 0, 71, 0
3, 23904, Note_on_c, 0, 73, 64
3, 23949, Note_on_c, 0, 73, 0
3, 23952, Note_on_c, 0, 74, 64
3, 23997, Note_on_c, 0, 74, 0
3, 24000, Note_on_c, 0, 76, 64
3, 24045, Note_on_c, 0, 76, 0
3, 24048, Note_on_c, 0, 74, 64
3, 24093, Note_on_c, 0, 74, 0
3, 24096, Note_on_c, 0, 73, 64
3, 24141, Note_on_c, 0, 73, 0
3, 24144, Note_on_c, 0, 71, 64
3, 24189, Note_on_c, 0, 71, 0
3, 24192, Note_on_c, 0, 70, 64
3, 24237, Note_on_c, 0, 70, 0
3, 24240, Note_on_c, 0, 68, 64
3, 24285, Note_on_c, 0, 68, 0
3, 24288, Note_on_c, 0, 70, 64
3, 24333, Note_on_c, 0, 70, 0
3, 24336, Note_on_c, 0, 71, 64
3, 24381, Note_on_c, 0, 71, 0
3, 24384, Note_on_c, 0, 73, 64
3, 24429, Note_on_c, 0, 73, 0
3, 24432, Note_on_c, 0, 74, 64
3, 24477, Note_on_c, 0, 74, 0
3, 24480, Note_on_c, 0, 71, 64
3, 24525, Note_on_c, 0, 71, 0
3, 24528, Note_on_c, 0, 73, 64
3, 24573, Note_on_c, 0, 73, 0
3, 24576, Note_on_c, 0, 74, 64
3, 24621, Note_on_c, 0, 74, 0
3, 24624, Note_on_c, 0, 73, 64
3, 24669, Note_on_c, 0, 73, 0
3, 24672, Note_on_c, 0, 74, 64
3, 24717, Note_on_c, 0, 74, 0
3, 24720, Note_on_c, 0, 76, 64
3, 24765, Note_on_c, 0, 76, 0
3, 24768, Note_on_c, 0, 78, 64
3, 24813, Note_on_c, 0, 78, 0
3, 24816, Note_on_c, 0, 76, 64
3, 24861, Note_on_c, 0, 76, 0
3, 24864, Note_on_c, 0, 74, 64
3, 24909, Note_on_c, 0, 74, 0
3, 24912, Note_on_c, 0, 73, 64
3, 24957, Note_on_c, 0, 73, 0
3, 24960, Note_on_c, 0, 71, 64
3, 25005, Note_on_c, 0, 71, 0
3, 25008, Note_on_c, 0, 69, 64
3, 25053, Note_on_c, 0, 69, 0
3, 25056, Note_on_c, 0, 71, 64
3, 25101, Note_on_c, 0, 71, 0
3, 25104, Note_on_c, 0, 73, 64
3, 25149, Note_on_c, 0, 73, 0
3, 25152, Note_on_c, 0, 74, 64
3, 25197, Note_on_c, 0, 74, 0
3, 25200, Note_on_c, 0, 73, 64
3, 25245, Note_on_c, 0, 73, 0
3, 25248, Note_on_c, 0, 71, 64
3, 25293, Note_on_c, 0, 71, 0
3, 25296, Note_on_c, 0, 69, 64
3, 25341, Note_on_c, 0, 69, 0
3, 25344, Note_on_c, 0, 68, 64
3, 25389, Note_on_c, 0, 68, 0
3, 25392, Note_on_c, 0, 66, 64
3, 25437, Note_on_c, 0, 66, 0
3, 25440, Note_on_c, 0, 68, 64
3, 25485, Note_on_c, 0, 68, 0
3, 25488, Note_on_c, 0, 69, 64
3, 25533, Note_on_c, 0, 69, 0
3, 25536, Note_on_c, 0, 71, 64
3, 25581, Note_on_c, 0, 71, 0
3, 25584, Note_on_c, 0, 69, 64
3, 25629, Note_on_c, 0, 69, 0
3, 25632, Note_on_c, 0, 68, 64
3, 25677, Note_on_c, 0, 68, 0
3, 25680, Note_on_c, 0, 66, 64
3, 25725, Note_on_c, 0, 66, 0
3, 25728, Note_on_c, 0, 64, 64
3, 26201, Note_on_c, 0, 64, 0
3, 26208, Note_on_c, 0, 66, 64
3, 26253, Note_on_c, 0, 66, 0
3, 26256, Note_on_c, 0, 64, 64
3, 26301, Note_on_c, 0, 64, 0
3, 26304, Note_on_c, 0, 62, 64
3, 26349, Note_on_c, 0, 62, 0
3, 26352, Note_on_c, 0, 64, 64
3, 26397, Note_on_c, 0, 64, 0
3, 26400, Note_on_c, 0, 66, 64
3, 26489, Note_on_c, 0, 66, 0
3, 26496, Note_on_c, 0, 66, 64
3, 26519, Note_on_c, 0, 66, 0
3, 26520, Note_on_c, 0, 67, 64
3, 26543, Note_on_c, 0, 67, 0
3, 26544, Note_on_c, 0, 66, 64
3, 26567, Note_on_c, 0, 66, 0
3, 26568, Note_on_c, 0, 67, 64
3, 26591, Note_on_c, 0, 67, 0
3, 26592, Note_on_c, 0, 64, 64
3, 26681, Note_on_c, 0, 64, 0
3, 26784, Note_on_c, 0, 62, 64
3, 26873, Note_on_c, 0, 62, 0
3, 26880, Note_on_c, 0, 61, 64
3, 26925, Note_on_c, 0, 61, 0
3, 26928, Note_on_c, 0, 62, 64
3, 26973, Note_on_c, 0, 62, 0
3, 26976, Note_on_c, 0, 64, 64
3, 27021, Note_on_c, 0, 64, 0
3, 27024, Note_on_c, 0, 57, 64
3, 27069, Note_on_c, 0, 57, 0
3, 27072, Note_on_c, 0, 62, 64
3, 27161, Note_on_c, 0, 62, 0
3, 27168, Note_on_c, 0, 61, 64
3, 27257, Note_on_c, 0, 61, 0
3, 27264, Note_on_c, 0, 59, 64
3, 27309, Note_on_c, 0, 59, 0
3, 27312, Note_on_c, 0, 57, 64
3, 27357, Note_on_c, 0, 57, 0
3, 27360, Note_on_c, 0, 59, 64
3, 27405, Note_on_c, 0, 59, 0
3, 27408, Note_on_c, 0, 61, 64
3, 27453, Note_on_c, 0, 61, 0
3, 27456, Note_on_c, 0, 59, 64
3, 27501, Note_on_c, 0, 59, 0
3, 27504, Note_on_c, 0, 61, 64
3, 27549, Note_on_c, 0, 61, 0
3, 27552, Note_on_c, 0, 62, 64
3, 27597, Note_on_c, 0, 62, 0
3, 27600, Note_on_c, 0, 64, 64
3, 27645, Note_on_c, 0, 64, 0
3, 27648, Note_on_c, 0, 66, 64
3, 27737, Note_on_c, 0, 66, 0
3, 27744, Note_on_c, 0, 67, 64
3, 27789, Note_on_c, 0, 67, 0
3, 27792, Note_on_c, 0, 66, 64
3, 27837, Note_on_c, 0, 66, 0
3, 27840, Note_on_c, 0, 64, 64
3, 27885, Note_on_c, 0, 64, 0
3, 27888, Note_on_c, 0, 66, 64
3, 27933, Note_on_c, 0, 66, 0
3, 27936, Note_on_c, 0, 67, 64
3, 28025, Note_on_c, 0, 67, 0
3, 28032, Note_on_c, 0, 67, 64
3, 28055, Note_on_c, 0, 67, 0
3, 28056, Note_on_c, 0, 69, 64
3, 28079, Note_on_c, 0, 69, 0
3, 28080, Note_on_c, 0, 67, 64
3, 28103, Note_on_c, 0, 67, 0
3, 28104, Note_on_c, 0, 69, 64
3, 28127, Note_on_c, 0, 69, 0
3, 28128, Note_on_c, 0, 66, 64
3, 28217, Note_on_c, 0, 66, 0
3, 28320, Note_on_c, 0, 64, 64
3, 28409, Note_on_c, 0, 64, 0
3, 28416, Note_on_c, 0, 62, 64
3, 28461, Note_on_c, 0, 62, 0
3, 28464, Note_on_c, 0, 64, 64
3, 28509, Note_on_c, 0, 64, 0
3, 28512, Note_on_c, 0, 66, 64
3, 28557, Note_on_c, 0, 66, 0
3, 28560, Note_on_c, 0, 59, 64
3, 28605, Note_on_c, 0, 59, 0
3, 28608, Note_on_c, 0, 64, 64
3, 28697, Note_on_c, 0, 64, 0
3, 28704, Note_on_c, 0, 62, 64
3, 28793, Note_on_c, 0, 62, 0
3, 28800, Note_on_c, 0, 61, 64
3, 28845, Note_on_c, 0, 61, 0
3, 28848, Note_on_c, 0, 59, 64
3, 28893, Note_on_c, 0, 59, 0
3, 28896, Note_on_c, 0, 61, 64
3, 28941, Note_on_c, 0, 61, 0
3, 28944, Note_on_c, 0, 62, 64
3, 28989, Note_on_c, 0, 62, 0
3, 28992, Note_on_c, 0, 61, 64
3, 29037, Note_on_c, 0, 61, 0
3, 29040, Note_on_c, 0, 62, 64
3, 29085, Note_on_c, 0, 62, 0
3, 29088, Note_on_c, 0, 64, 64
3, 29133, Note_on_c, 0, 64, 0
3, 29136, Note_on_c, 0, 66, 64
3, 29181, Note_on_c, 0, 66, 0
3, 29184, Note_on_c, 0, 67, 64
3, 29273, Note_on_c, 0, 67, 0
3, 29280, Note_on_c, 0, 69, 64
3, 29325, Note_on_c, 0, 69, 0
3, 29328, Note_on_c, 0, 67, 64
3, 29373, Note_on_c, 0, 67, 0
3, 29376, Note_on_c, 0, 66, 64
3, 29421, Note_on_c, 0, 66, 0
3, 29424, Note_on_c, 0, 67, 64
3, 29469, Note_on_c, 0, 67, 0
3, 29472, Note_on_c, 0, 69, 64
3, 29561, Note_on_c, 0, 69, 0
3, 29568, Note_on_c, 0, 66, 64
3, 29657, Note_on_c, 0, 66, 0
3, 29664, Note_on_c, 0, 71, 64
3, 29709, Note_on_c, 0, 71, 0
3, 29712, Note_on_c, 0, 69, 64
3, 29757, Note_on_c, 0, 69, 0
3, 29760, Note_on_c, 0, 68, 64
3, 29805, Note_on_c, 0, 68, 0
3, 29808, Note_on_c, 0, 69, 64
3, 29853, Note_on_c, 0, 69, 0
3, 29856, Note_on_c, 0, 71, 64
3, 29945, Note_on_c, 0, 71, 0
3, 29952, Note_on_c, 0, 64, 64
3, 30085, Note_on_c, 0, 64, 0
3, 30096, Note_on_c, 0, 66, 64
3, 30141, Note_on_c, 0, 66, 0
3, 30144, Note_on_c, 0, 59, 64
3, 30167, Note_on_c, 0, 59, 0
3, 30168, Note_on_c, 0, 61, 64
3, 30191, Note_on_c, 0, 61, 0
3, 30192, Note_on_c, 0, 59, 64
3, 30215, Note_on_c, 0, 59, 0
3, 30216, Note_on_c, 0, 61, 64
3, 30239, Note_on_c, 0, 61, 0
3, 30240, Note_on_c, 0, 59, 64
3, 30263, Note_on_c, 0, 59, 0
3, 30264, Note_on_c, 0, 61, 64
3, 30287, Note_on_c, 0, 61, 0
3, 30288, Note_on_c, 0, 57, 64
3, 30333, Note_on_c, 0, 57, 0
3, 30336, Note_on_c, 0, 57, 64
3, 30381, Note_on_c, 0, 57, 0
3, 30384, Note_on_c, 0, 61, 64
3, 30429, Note_on_c, 0, 61, 0
3, 30432, Note_on_c, 0, 59, 64
3, 30477, Note_on_c, 0, 59, 0
3, 30480, Note_on_c, 0, 57, 64
3, 30525, Note_on_c, 0, 57, 0
3, 30528, Note_on_c, 0, 62, 64
3, 30573, Note_on_c, 0, 62, 0
3, 30576, Note_on_c, 0, 57, 64
3, 30621, Note_on_c, 0, 57, 0
3, 30624, Note_on_c, 0, 64, 64
3, 30669, Note_on_c, 0, 64, 0
3, 30672, Note_on_c, 0, 57, 64
3, 30717, Note_on_c, 0, 57, 0
3, 30720, Note_on_c, 0, 66, 64
3, 30765, Note_on_c, 0, 66, 0
3, 30768, Note_on_c, 0, 57, 64
3, 30813, Note_on_c, 0, 57, 0
3, 30816, Note_on_c, 0, 64, 64
3, 30861, Note_on_c, 0, 64, 0
3, 30864, Note_on_c, 0, 57, 64
3, 30909, Note_on_c, 0, 57, 0
3, 30912, Note_on_c, 0, 62, 64
3, 30957, Note_on_c, 0, 62, 0
3, 30960, Note_on_c, 0, 57, 64
3, 31005, Note_on_c, 0, 57, 0
3, 31008, Note_on_c, 0, 66, 64
3, 31053, Note_on_c, 0, 66, 0
3, 31056, Note_on_c, 0, 57, 64
3, 31101, Note_on_c, 0, 57, 0
3, 31104, Note_on_c, 0, 64, 64
3, 31149, Note_on_c, 0, 64, 0
3, 31152, Note_on_c, 0, 57, 64
3, 31197, Note_on_c, 0, 57, 0
3, 31200, Note_on_c, 0, 62, 64
3, 31245, Note_on_c, 0, 62, 0
3, 31248, Note_on_c, 0, 57, 64
3, 31293, Note_on_c, 0, 57, 0
3, 31296, Note_on_c, 0, 61, 64
3, 31341, Note_on_c, 0, 61, 0
3, 31344, Note_on_c, 0, 57, 64
3, 31389, Note_on_c, 0, 57, 0
3, 31392, Note_on_c, 0, 64, 64
3, 31437, Note_on_c, 0, 64, 0
3, 31440, Note_on_c, 0, 57, 64
3, 31485, Note_on_c, 0, 57, 0
3, 31488, Note_on_c, 0, 62, 64
3, 31533, Note_on_c, 0, 62, 0
3, 31536, Note_on_c, 0, 66, 64
3, 31581, Note_on_c, 0, 66, 0
3, 31584, Note_on_c, 0, 64, 64
3, 31629, Note_on_c, 0, 64, 0
3, 31632, Note_on_c, 0, 62, 64
3, 31677, Note_on_c, 0, 62, 0
3, 31680, Note_on_c, 0, 68, 64
3, 31725, Note_on_c, 0, 68, 0
3, 31728, Note_on_c, 0, 62, 64
3, 31773, Note_on_c, 0, 62, 0
3, 31776, Note_on_c, 0, 69, 64
3, 31821, Note_on_c, 0, 69, 0
3, 31824, Note_on_c, 0, 62, 64
3, 31869, Note_on_c, 0, 62, 0
3, 31872, Note_on_c, 0, 71, 64
3, 32301, Note_on_c, 0, 71, 0
3, 32304, Note_on_c, 0, 76, 64
3, 32349, Note_on_c, 0, 76, 0
3, 32352, Note_on_c, 0, 78, 64
3, 32397, Note_on_c, 0, 78, 0
3, 32400, Note_on_c, 0, 80, 64
3, 32445, Note_on_c, 0, 80, 0
3, 32448, Note_on_c, 0, 81, 64
3, 32685, Note_on_c, 0, 81, 0
3, 32688, Note_on_c, 0, 75, 64
3, 32733, Note_on_c, 0, 75, 0
3, 32736, Note_on_c, 0, 77, 64
3, 32781, Note_on_c, 0, 77, 0
3, 32784, Note_on_c, 0, 78, 64
3, 32829, Note_on_c, 0, 78, 0
3, 32832, Note_on_c, 0, 80, 64
3, 33069, Note_on_c, 0, 80, 0
3, 33072, Note_on_c, 0, 83, 64
3, 33117, Note_on_c, 0, 83, 0
3, 33120, Note_on_c, 0, 81, 64
3, 33165, Note_on_c, 0, 81, 0
3, 33168, Note_on_c, 0, 80, 64
3, 33213, Note_on_c, 0, 80, 0
3, 33216, Note_on_c, 0, 78, 64
3, 33261, Note_on_c, 0, 78, 0
3, 33264, Note_on_c, 0, 77, 64
3, 33309, Note_on_c, 0, 77, 0
3, 33312, Note_on_c, 0, 78, 64
3, 33357, Note_on_c, 0, 78, 0
3, 33360, Note_on_c, 0, 80, 64
3, 33405, Note_on_c, 0, 80, 0
3, 33408, Note_on_c, 0, 77, 64
3, 33585, Note_on_c, 0, 77, 0
3, 33792, Note_on_c, 0, 73, 64
3, 33881, Note_on_c, 0, 73, 0
3, 33888, Note_on_c, 0, 74, 64
3, 33933, Note_on_c, 0, 74, 0
3, 33936, Note_on_c, 0, 73, 64
3, 33981, Note_on_c, 0, 73, 0
3, 33984, Note_on_c, 0, 71, 64
3, 34029, Note_on_c, 0, 71, 0
3, 34032, Note_on_c, 0, 73, 64
3, 34077, Note_on_c, 0, 73, 0
3, 34080, Note_on_c, 0, 74, 64
3, 34169, Note_on_c, 0, 74, 0
3, 34176, Note_on_c, 0, 74, 64
3, 34199, Note_on_c, 0, 74, 0
3, 34200, Note_on_c, 0, 76, 64
3, 34223, Note_on_c, 0, 76, 0
3, 34224, Note_on_c, 0, 74, 64
3, 34247, Note_on_c, 0, 74, 0
3, 34248, Note_on_c, 0, 76, 64
3, 34271, Note_on_c, 0, 76, 0
3, 34272, Note_on_c, 0, 73, 64
3, 34361, Note_on_c, 0, 73, 0
3, 34464, Note_on_c, 0, 71, 64
3, 34553, Note_on_c, 0, 71, 0
3, 34560, Note_on_c, 0, 69, 64
3, 34605, Note_on_c, 0, 69, 0
3, 34608, Note_on_c, 0, 71, 64
3, 34653, Note_on_c, 0, 71, 0
3, 34656, Note_on_c, 0, 73, 64
3, 34701, Note_on_c, 0, 73, 0
3, 34704, Note_on_c, 0, 66, 64
3, 34749, Note_on_c, 0, 66, 0
3, 34752, Note_on_c, 0, 69, 64
3, 34841, Note_on_c, 0, 69, 0
3, 34848, Note_on_c, 0, 68, 64
3, 34871, Note_on_c, 0, 68, 0
3, 34872, Note_on_c, 0, 69, 64
3, 34895, Note_on_c, 0, 69, 0
3, 34896, Note_on_c, 0, 68, 64
3, 34919, Note_on_c, 0, 68, 0
3, 34920, Note_on_c, 0, 69, 64
3, 34943, Note_on_c, 0, 69, 0
3, 34944, Note_on_c, 0, 66, 64
3, 35033, Note_on_c, 0, 66, 0
3, 35040, Note_on_c, 0, 68, 64
3, 35085, Note_on_c, 0, 68, 0
3, 35088, Note_on_c, 0, 69, 64
3, 35133, Note_on_c, 0, 69, 0
3, 35136, Note_on_c, 0, 71, 64
3, 35181, Note_on_c, 0, 71, 0
3, 35184, Note_on_c, 0, 69, 64
3, 35229, Note_on_c, 0, 69, 0
3, 35232, Note_on_c, 0, 68, 64
3, 35277, Note_on_c, 0, 68, 0
3, 35280, Note_on_c, 0, 66, 64
3, 35325, Note_on_c, 0, 66, 0
3, 35328, Note_on_c, 0, 65, 64
3, 35417, Note_on_c, 0, 65, 0
3, 35424, Note_on_c, 0, 68, 64
3, 35513, Note_on_c, 0, 68, 0
3, 35520, Note_on_c, 0, 65, 64
3, 35609, Note_on_c, 0, 65, 0
3, 35616, Note_on_c, 0, 61, 64
3, 35705, Note_on_c, 0, 61, 0
3, 35712, Note_on_c, 0, 66, 64
3, 35801, Note_on_c, 0, 66, 0
3, 35808, Note_on_c, 0, 78, 64
3, 35985, Note_on_c, 0, 78, 0
3, 36000, Note_on_c, 0, 77, 64
3, 36089, Note_on_c, 0, 77, 0
3, 36096, Note_on_c, 0, 78, 64
3, 36119, Note_on_c, 0, 78, 0
3, 36120, Note_on_c, 0, 79, 64
3, 36143, Note_on_c, 0, 79, 0
3, 36144, Note_on_c, 0, 78, 64
3, 36167, Note_on_c, 0, 78, 0
3, 36168, Note_on_c, 0, 79, 64
3, 36191, Note_on_c, 0, 79, 0
3, 36192, Note_on_c, 0, 78, 64
3, 36215, Note_on_c, 0, 78, 0
3, 36216, Note_on_c, 0, 79, 64
3, 36239, Note_on_c, 0, 79, 0
3, 36240, Note_on_c, 0, 78, 64
3, 36263, Note_on_c, 0, 78, 0
3, 36264, Note_on_c, 0, 79, 64
3, 36287, Note_on_c, 0, 79, 0
3, 36288, Note_on_c, 0, 78, 64
3, 36311, Note_on_c, 0, 78, 0
3, 36312, Note_on_c, 0, 79, 64
3, 36335, Note_on_c, 0, 79, 0
3, 36336, Note_on_c, 0, 78, 64
3, 36359, Note_on_c, 0, 78, 0
3, 36360, Note_on_c, 0, 79, 64
3, 36383, Note_on_c, 0, 79, 0
3, 36384, Note_on_c, 0, 78, 64
3, 36407, Note_on_c, 0, 78, 0
3, 36408, Note_on_c, 0, 79, 64
3, 36431, Note_on_c, 0, 79, 0
3, 36432, Note_on_c, 0, 78, 64
3, 36455, Note_on_c, 0, 78, 0
3, 36456, Note_on_c, 0, 79, 64
3, 36479, Note_on_c, 0, 79, 0
3, 36480, Note_on_c, 0, 78, 64
3, 36503, Note_on_c, 0, 78, 0
3, 36504, Note_on_c, 0, 79, 64
3, 36527, Note_on_c, 0, 79, 0
3, 36528, Note_on_c, 0, 78, 64
3, 36551, Note_on_c, 0, 78, 0
3, 36552, Note_on_c, 0, 79, 64
3, 36575, Note_on_c, 0, 79, 0
3, 36576, Note_on_c, 0, 78, 64
3, 36599, Note_on_c, 0, 78, 0
3, 36600, Note_on_c, 0, 79, 64
3, 36623, Note_on_c, 0, 79, 0
3, 36624, Note_on_c, 0, 78, 64
3, 36647, Note_on_c, 0, 78, 0
3, 36648, Note_on_c, 0, 79, 64
3, 36671, Note_on_c, 0, 79, 0
3, 36672, Note_on_c, 0, 78, 64
3, 36695, Note_on_c, 0, 78, 0
3, 36696, Note_on_c, 0, 79, 64
3, 36719, Note_on_c, 0, 79, 0
3, 36720, Note_on_c, 0, 78, 64
3, 36743, Note_on_c, 0, 78, 0
3, 36744, Note_on_c, 0, 79, 64
3, 36767, Note_on_c, 0, 79, 0
3, 36768, Note_on_c, 0, 78, 64
3, 36791, Note_on_c, 0, 78, 0
3, 36792, Note_on_c, 0, 79, 64
3, 36815, Note_on_c, 0, 79, 0
3, 36816, Note_on_c, 0, 78, 64
3, 36839, Note_on_c, 0, 78, 0
3, 36840, Note_on_c, 0, 79, 64
3, 36863, Note_on_c, 0, 79, 0
3, 36864, Note_on_c, 0, 78, 64
3, 36887, Note_on_c, 0, 78, 0
3, 36888, Note_on_c, 0, 79, 64
3, 36911, Note_on_c, 0, 79, 0
3, 36912, Note_on_c, 0, 78, 64
3, 36935, Note_on_c, 0, 78, 0
3, 36936, Note_on_c, 0, 79, 64
3, 36959, Note_on_c, 0, 79, 0
3, 36960, Note_on_c, 0, 78, 64
3, 36983, Note_on_c, 0, 78, 0
3, 36984, Note_on_c, 0, 79, 64
3, 37007, Note_on_c, 0, 79, 0
3, 37008, Note_on_c, 0, 78, 64
3, 37031, Note_on_c, 0, 78, 0
3, 37032, Note_on_c, 0, 79, 64
3, 37055, Note_on_c, 0, 79, 0
3, 37056, Note_on_c, 0, 78, 64
3, 37079, Note_on_c, 0, 78, 0
3, 37080, Note_on_c, 0, 79, 64
3, 37103, Note_on_c, 0, 79, 0
3, 37104, Note_on_c, 0, 78, 64
3, 37127, Note_on_c, 0, 78, 0
3, 37128, Note_on_c, 0, 79, 64
3, 37151, Note_on_c, 0, 79, 0
3, 37152, Note_on_c, 0, 78, 64
3, 37175, Note_on_c, 0, 78, 0
3, 37176, Note_on_c, 0, 79, 64
3, 37199, Note_on_c, 0, 79, 0
3, 37200, Note_on_c, 0, 78, 64
3, 37223, Note_on_c, 0, 78, 0
3, 37224, Note_on_c, 0, 79, 64
3, 37248, Note_on_c, 0, 79, 0
3, 37248, Note_on_c, 0, 78, 64
3, 37293, Note_on_c, 0, 78, 0
3, 37296, Note_on_c, 0, 76, 64
3, 37341, Note_on_c, 0, 76, 0
3, 37344, Note_on_c, 0, 74, 64
3, 37389, Note_on_c, 0, 74, 0
3, 37392, Note_on_c, 0, 73, 64
3, 37437, Note_on_c, 0, 73, 0
3, 37440, Note_on_c, 0, 74, 64
3, 37721, Note_on_c, 0, 74, 0
3, 37728, Note_on_c, 0, 73, 64
3, 37773, Note_on_c, 0, 73, 0
3, 37776, Note_on_c, 0, 71, 64
3, 37821, Note_on_c, 0, 71, 0
3, 37824, Note_on_c, 0, 73, 64
3, 37869, Note_on_c, 0, 73, 0
3, 37872, Note_on_c, 0, 71, 64
3, 37917, Note_on_c, 0, 71, 0
3, 37920, Note_on_c, 0, 69, 64
3, 37965, Note_on_c, 0, 69, 0
3, 37968, Note_on_c, 0, 68, 64
3, 38013, Note_on_c, 0, 68, 0
3, 38016, Note_on_c, 0, 69, 64
3, 38149, Note_on_c, 0, 69, 0
3, 38160, Note_on_c, 0, 71, 64
3, 38205, Note_on_c, 0, 71, 0
3, 38208, Note_on_c, 0, 68, 64
3, 38231, Note_on_c, 0, 68, 0
3, 38232, Note_on_c, 0, 69, 64
3, 38255, Note_on_c, 0, 69, 0
3, 38256, Note_on_c, 0, 68, 64
3, 38279, Note_on_c, 0, 68, 0
3, 38280, Note_on_c, 0, 69, 64
3, 38303, Note_on_c, 0, 69, 0
3, 38304, Note_on_c, 0, 68, 64
3, 38327, Note_on_c, 0, 68, 0
3, 38328, Note_on_c, 0, 69, 64
3, 38351, Note_on_c, 0, 69, 0
3, 38352, Note_on_c, 0, 66, 64
3, 38397, Note_on_c, 0, 66, 0
3, 38400, Note_on_c, 0, 66, 64
3, 38577, Note_on_c, 0, 66, 0
3, 40320, Note_on_c, 0, 73, 64
3, 40409, Note_on_c, 0, 73, 0
3, 40416, Note_on_c, 0, 74, 64
3, 40461, Note_on_c, 0, 74, 0
3, 40464, Note_on_c, 0, 73, 64
3, 40509, Note_on_c, 0, 73, 0
3, 40512, Note_on_c, 0, 71, 64
3, 40557, Note_on_c, 0, 71, 0
3, 40560, Note_on_c, 0, 73, 64
3, 40605, Note_on_c, 0, 73, 0
3, 40608, Note_on_c, 0, 74, 64
3, 40697, Note_on_c, 0, 74, 0
3, 40704, Note_on_c, 0, 74, 64
3, 40727, Note_on_c, 0, 74, 0
3, 40728, Note_on_c, 0, 76, 64
3, 40751, Note_on_c, 0, 76, 0
3, 40752, Note_on_c, 0, 74, 64
3, 40775, Note_on_c, 0, 74, 0
3, 40776, Note_on_c, 0, 76, 64
3, 40799, Note_on_c, 0, 76, 0
3, 40800, Note_on_c, 0, 73, 64
3, 40889, Note_on_c, 0, 73, 0
3, 40992, Note_on_c, 0, 71, 64
3, 41081, Note_on_c, 0, 71, 0
3, 41088, Note_on_c, 0, 69, 64
3, 41133, Note_on_c, 0, 69, 0
3, 41136, Note_on_c, 0, 71, 64
3, 41181, Note_on_c, 0, 71, 0
3, 41184, Note_on_c, 0, 73, 64
3, 41229, Note_on_c, 0, 73, 0
3, 41232, Note_on_c, 0, 66, 64
3, 41277, Note_on_c, 0, 66, 0
3, 41280, Note_on_c, 0, 69, 64
3, 41369, Note_on_c, 0, 69, 0
3, 41376, Note_on_c, 0, 68, 64
3, 41399, Note_on_c, 0, 68, 0
3, 41400, Note_on_c, 0, 69, 64
3, 41423, Note_on_c, 0, 69, 0
3, 41424, Note_on_c, 0, 68, 64
3, 41447, Note_on_c, 0, 68, 0
3, 41448, Note_on_c, 0, 69, 64
3, 41471, Note_on_c, 0, 69, 0
3, 41472, Note_on_c, 0, 66, 64
3, 41517, Note_on_c, 0, 66, 0
3, 41520, Note_on_c, 0, 69, 64
3, 41565, Note_on_c, 0, 69, 0
3, 41568, Note_on_c, 0, 68, 64
3, 41613, Note_on_c, 0, 68, 0
3, 41616, Note_on_c, 0, 66, 64
3, 41661, Note_on_c, 0, 66, 0
3, 41664, Note_on_c, 0, 73, 64
3, 41709, Note_on_c, 0, 73, 0
3, 41712, Note_on_c, 0, 66, 64
3, 41757, Note_on_c, 0, 66, 0
3, 41760, Note_on_c, 0, 75, 64
3, 41805, Note_on_c, 0, 75, 0
3, 41808, Note_on_c, 0, 66, 64
3, 41853, Note_on_c, 0, 66, 0
3, 41856, Note_on_c, 0, 64, 64
3, 41901, Note_on_c, 0, 64, 0
3, 41904, Note_on_c, 0, 67, 64
3, 41949, Note_on_c, 0, 67, 0
3, 41952, Note_on_c, 0, 66, 64
3, 41997, Note_on_c, 0, 66, 0
3, 42000, Note_on_c, 0, 64, 64
3, 42045, Note_on_c, 0, 64, 0
3, 42048, Note_on_c, 0, 71, 64
3, 42093, Note_on_c, 0, 71, 0
3, 42096, Note_on_c, 0, 64, 64
3, 42141, Note_on_c, 0, 64, 0
3, 42144, Note_on_c, 0, 73, 64
3, 42189, Note_on_c, 0, 73, 0
3, 42192, Note_on_c, 0, 64, 64
3, 42237, Note_on_c, 0, 64, 0
3, 42240, Note_on_c, 0, 74, 64
3, 42669, Note_on_c, 0, 74, 0
3, 42672, Note_on_c, 0, 76, 64
3, 42717, Note_on_c, 0, 76, 0
3, 42720, Note_on_c, 0, 78, 64
3, 42765, Note_on_c, 0, 78, 0
3, 42768, Note_on_c, 0, 79, 64
3, 42813, Note_on_c, 0, 79, 0
3, 42816, Note_on_c, 0, 74, 64
3, 42840, Note_on_c, 0, 74, 0
3, 42840, Note_on_c, 0, 73, 64
3, 43053, Note_on_c, 0, 73, 0
3, 43056, Note_on_c, 0, 71, 64
3, 43101, Note_on_c, 0, 71, 0
3, 43104, Note_on_c, 0, 76, 64
3, 43149, Note_on_c, 0, 76, 0
3, 43152, Note_on_c, 0, 74, 64
3, 43197, Note_on_c, 0, 74, 0
3, 43200, Note_on_c, 0, 73, 64
3, 43245, Note_on_c, 0, 73, 0
3, 43248, Note_on_c, 0, 71, 64
3, 43293, Note_on_c, 0, 71, 0
3, 43296, Note_on_c, 0, 70, 64
3, 43341, Note_on_c, 0, 70, 0
3, 43344, Note_on_c, 0, 71, 64
3, 43389, Note_on_c, 0, 71, 0
3, 43392, Note_on_c, 0, 73, 64
3, 43437, Note_on_c, 0, 73, 0
3, 43440, Note_on_c, 0, 71, 64
3, 43485, Note_on_c, 0, 71, 0
3, 43488, Note_on_c, 0, 70, 64
3, 43533, Note_on_c, 0, 70, 0
3, 43536, Note_on_c, 0, 68, 64
3, 43581, Note_on_c, 0, 68, 0
3, 43584, Note_on_c, 0, 66, 64
3, 43629, Note_on_c, 0, 66, 0
3, 43632, Note_on_c, 0, 64, 64
3, 43677, Note_on_c, 0, 64, 0
3, 43680, Note_on_c, 0, 62, 64
3, 43725, Note_on_c, 0, 62, 0
3, 43728, Note_on_c, 0, 61, 64
3, 43773, Note_on_c, 0, 61, 0
3, 43776, Note_on_c, 0, 59, 64
3, 43865, Note_on_c, 0, 59, 0
3, 43872, Note_on_c, 0, 71, 64
3, 44049, Note_on_c, 0, 71, 0
3, 44064, Note_on_c, 0, 70, 64
3, 44153, Note_on_c, 0, 70, 0
3, 44160, Note_on_c, 0, 71, 64
3, 44249, Note_on_c, 0, 71, 0
3, 44256, Note_on_c, 0, 66, 64
3, 44345, Note_on_c, 0, 66, 0
3, 44352, Note_on_c, 0, 74, 64
3, 44633, Note_on_c, 0, 74, 0
3, 44640, Note_on_c, 0, 64, 64
3, 44729, Note_on_c, 0, 64, 0
3, 44736, Note_on_c, 0, 73, 64
3, 44825, Note_on_c, 0, 73, 0
3, 44832, Note_on_c, 0, 75, 64
3, 44921, Note_on_c, 0, 75, 0
3, 44928, Note_on_c, 0, 64, 64
3, 44973, Note_on_c, 0, 64, 0
3, 44976, Note_on_c, 0, 67, 64
3, 45021, Note_on_c, 0, 67, 0
3, 45024, Note_on_c, 0, 66, 64
3, 45069, Note_on_c, 0, 66, 0
3, 45072, Note_on_c, 0, 64, 64
3, 45117, Note_on_c, 0, 64, 0
3, 45120, Note_on_c, 0, 71, 64
3, 45165, Note_on_c, 0, 71, 0
3, 45168, Note_on_c, 0, 64, 64
3, 45213, Note_on_c, 0, 64, 0
3, 45216, Note_on_c, 0, 73, 64
3, 45261, Note_on_c, 0, 73, 0
3, 45264, Note_on_c, 0, 64, 64
3, 45309, Note_on_c, 0, 64, 0
3, 45312, Note_on_c, 0, 74, 64
3, 45401, Note_on_c, 0, 74, 0
3, 45408, Note_on_c, 0, 66, 64
3, 45497, Note_on_c, 0, 66, 0
3, 45504, Note_on_c, 0, 74, 64
3, 45681, Note_on_c, 0, 74, 0
3, 45696, Note_on_c, 0, 73, 64
3, 45741, Note_on_c, 0, 73, 0
3, 45744, Note_on_c, 0, 69, 64
3, 45789, Note_on_c, 0, 69, 0
3, 45792, Note_on_c, 0, 71, 64
3, 45837, Note_on_c, 0, 71, 0
3, 45840, Note_on_c, 0, 73, 64
3, 45885, Note_on_c, 0, 73, 0
3, 45888, Note_on_c, 0, 66, 64
3, 45933, Note_on_c, 0, 66, 0
3, 45936, Note_on_c, 0, 73, 64
3, 45981, Note_on_c, 0, 73, 0
3, 45984, Note_on_c, 0, 63, 64
3, 46029, Note_on_c, 0, 63, 0
3, 46032, Note_on_c, 0, 73, 64
3, 46077, Note_on_c, 0, 73, 0
3, 46080, Note_on_c, 0, 71, 64
3, 46125, Note_on_c, 0, 71, 0
3, 46128, Note_on_c, 0, 68, 64
3, 46173, Note_on_c, 0, 68, 0
3, 46176, Note_on_c, 0, 69, 64
3, 46221, Note_on_c, 0, 69, 0
3, 46224, Note_on_c, 0, 71, 64
3, 46269, Note_on_c, 0, 71, 0
3, 46272, Note_on_c, 0, 65, 64
3, 46317, Note_on_c, 0, 65, 0
3, 46320, Note_on_c, 0, 71, 64
3, 46365, Note_on_c, 0, 71, 0
3, 46368, Note_on_c, 0, 61, 64
3, 46413, Note_on_c, 0, 61, 0
3, 46416, Note_on_c, 0, 71, 64
3, 46461, Note_on_c, 0, 71, 0
3, 46464, Note_on_c, 0, 69, 64
3, 46553, Note_on_c, 0, 69, 0
3, 46560, Note_on_c, 0, 66, 64
3, 46649, Note_on_c, 0, 66, 0
3, 46656, Note_on_c, 0, 78, 64
3, 46833, Note_on_c, 0, 78, 0
3, 46848, Note_on_c, 0, 77, 64
3, 46937, Note_on_c, 0, 77, 0
3, 46944, Note_on_c, 0, 80, 64
3, 47033, Note_on_c, 0, 80, 0
3, 47040, Note_on_c, 0, 77, 64
3, 47129, Note_on_c, 0, 77, 0
3, 47136, Note_on_c, 0, 73, 64
3, 47225, Note_on_c, 0, 73, 0
3, 47232, Note_on_c, 0, 66, 64
3, 47277, Note_on_c, 0, 66, 0
3, 47280, Note_on_c, 0, 68, 64
3, 47325, Note_on_c, 0, 68, 0
3, 47328, Note_on_c, 0, 69, 64
3, 47373, Note_on_c, 0, 69, 0
3, 47376, Note_on_c, 0, 71, 64
3, 47421, Note_on_c, 0, 71, 0
3, 47424, Note_on_c, 0, 73, 64
3, 47469, Note_on_c, 0, 73, 0
3, 47472, Note_on_c, 0, 78, 64
3, 47517, Note_on_c, 0, 78, 0
3, 47520, Note_on_c, 0, 71, 64
3, 47565, Note_on_c, 0, 71, 0
3, 47568, Note_on_c, 0, 80, 64
3, 47613, Note_on_c, 0, 80, 0
3, 47616, Note_on_c, 0, 81, 64
3, 47661, Note_on_c, 0, 81, 0
3, 47664, Note_on_c, 0, 69, 64
3, 47709, Note_on_c, 0, 69, 0
3, 47712, Note_on_c, 0, 71, 64
3, 47757, Note_on_c, 0, 71, 0
3, 47760, Note_on_c, 0, 73, 64
3, 47805, Note_on_c, 0, 73, 0
3, 47808, Note_on_c, 0, 66, 64
3, 47853, Note_on_c, 0, 66, 0
3, 47856, Note_on_c, 0, 71, 64
3, 47901, Note_on_c, 0, 71, 0
3, 47904, Note_on_c, 0, 63, 64
3, 47949, Note_on_c, 0, 63, 0
3, 47952, Note_on_c, 0, 66, 64
3, 47997, Note_on_c, 0, 66, 0
3, 48000, Note_on_c, 0, 71, 64
3, 48045, Note_on_c, 0, 71, 0
3, 48048, Note_on_c, 0, 67, 64
3, 48093, Note_on_c, 0, 67, 0
3, 48096, Note_on_c, 0, 69, 64
3, 48141, Note_on_c, 0, 69, 0
3, 48144, Note_on_c, 0, 71, 64
3, 48189, Note_on_c, 0, 71, 0
3, 48192, Note_on_c, 0, 64, 64
3, 48237, Note_on_c, 0, 64, 0
3, 48240, Note_on_c, 0, 69, 64
3, 48285, Note_on_c, 0, 69, 0
3, 48288, Note_on_c, 0, 61, 64
3, 48333, Note_on_c, 0, 61, 0
3, 48336, Note_on_c, 0, 64, 64
3, 48381, Note_on_c, 0, 64, 0
3, 48384, Note_on_c, 0, 69, 64
3, 48429, Note_on_c, 0, 69, 0
3, 48432, Note_on_c, 0, 74, 64
3, 48477, Note_on_c, 0, 74, 0
3, 48480, Note_on_c, 0, 76, 64
3, 48525, Note_on_c, 0, 76, 0
3, 48528, Note_on_c, 0, 78, 64
3, 48573, Note_on_c, 0, 78, 0
3, 48576, Note_on_c, 0, 71, 64
3, 48621, Note_on_c, 0, 71, 0
3, 48624, Note_on_c, 0, 78, 64
3, 48669, Note_on_c, 0, 78, 0
3, 48672, Note_on_c, 0, 68, 64
3, 48717, Note_on_c, 0, 68, 0
3, 48720, Note_on_c, 0, 78, 64
3, 48765, Note_on_c, 0, 78, 0
3, 48768, Note_on_c, 0, 76, 64
3, 48813, Note_on_c, 0, 76, 0
3, 48816, Note_on_c, 0, 73, 64
3, 48861, Note_on_c, 0, 73, 0
3, 48864, Note_on_c, 0, 74, 64
3, 48909, Note_on_c, 0, 74, 0
3, 48912, Note_on_c, 0, 76, 64
3, 48957, Note_on_c, 0, 76, 0
3, 48960, Note_on_c, 0, 70, 64
3, 49005, Note_on_c, 0, 70, 0
3, 49008, Note_on_c, 0, 76, 64
3, 49053, Note_on_c, 0, 76, 0
3, 49056, Note_on_c, 0, 66, 64
3, 49101, Note_on_c, 0, 66, 0
3, 49104, Note_on_c, 0, 76, 64
3, 49149, Note_on_c, 0, 76, 0
3, 49152, Note_on_c, 0, 74, 64
3, 49241, Note_on_c, 0, 74, 0
3, 49248, Note_on_c, 0, 73, 64
3, 49293, Note_on_c, 0, 73, 0
3, 49296, Note_on_c, 0, 74, 64
3, 49341, Note_on_c, 0, 74, 0
3, 49344, Note_on_c, 0, 76, 64
3, 49389, Note_on_c, 0, 76, 0
3, 49392, Note_on_c, 0, 74, 64
3, 49437, Note_on_c, 0, 74, 0
3, 49440, Note_on_c, 0, 73, 64
3, 49485, Note_on_c, 0, 73, 0
3, 49488, Note_on_c, 0, 71, 64
3, 49533, Note_on_c, 0, 71, 0
3, 49536, Note_on_c, 0, 70, 64
3, 49625, Note_on_c, 0, 70, 0
3, 49632, Note_on_c, 0, 73, 64
3, 49721, Note_on_c, 0, 73, 0
3, 49728, Note_on_c, 0, 70, 64
3, 49817, Note_on_c, 0, 70, 0
3, 49824, Note_on_c, 0, 66, 64
3, 49913, Note_on_c, 0, 66, 0
3, 49920, Note_on_c, 0, 71, 64
3, 50009, Note_on_c, 0, 71, 0
3, 50016, Note_on_c, 0, 83, 64
3, 50193, Note_on_c, 0, 83, 0
3, 50208, Note_on_c, 0, 82, 64
3, 50297, Note_on_c, 0, 82, 0
3, 50304, Note_on_c, 0, 83, 64
3, 51545, Note_on_c, 0, 83, 0
3, 51552, Note_on_c, 0, 71, 64
3, 51641, Note_on_c, 0, 71, 0
3, 51648, Note_on_c, 0, 76, 64
3, 51885, Note_on_c, 0, 76, 0
3, 51888, Note_on_c, 0, 73, 64
3, 51933, Note_on_c, 0, 73, 0
3, 51936, Note_on_c, 0, 74, 64
3, 51981, Note_on_c, 0, 74, 0
3, 51984, Note_on_c, 0, 76, 64
3, 52029, Note_on_c, 0, 76, 0
3, 52032, Note_on_c, 0, 70, 64
3, 52077, Note_on_c, 0, 70, 0
3, 52080, Note_on_c, 0, 76, 64
3, 52125, Note_on_c, 0, 76, 0
3, 52128, Note_on_c, 0, 66, 64
3, 52173, Note_on_c, 0, 66, 0
3, 52176, Note_on_c, 0, 76, 64
3, 52221, Note_on_c, 0, 76, 0
3, 52224, Note_on_c, 0, 74, 64
3, 52489, Note_on_c, 0, 74, 0
3, 52512, Note_on_c, 0, 75, 64
3, 52601, Note_on_c, 0, 75, 0
3, 52608, Note_on_c, 0, 76, 64
3, 52653, Note_on_c, 0, 76, 0
3, 52656, Note_on_c, 0, 74, 64
3, 52701, Note_on_c, 0, 74, 0
3, 52704, Note_on_c, 0, 73, 64
3, 52749, Note_on_c, 0, 73, 0
3, 52752, Note_on_c, 0, 71, 64
3, 52797, Note_on_c, 0, 71, 0
3, 52800, Note_on_c, 0, 70, 64
3, 52845, Note_on_c, 0, 70, 0
3, 52848, Note_on_c, 0, 79, 64
3, 52893, Note_on_c, 0, 79, 0
3, 52896, Note_on_c, 0, 71, 64
3, 52941, Note_on_c, 0, 71, 0
3, 52944, Note_on_c, 0, 79, 64
3, 52989, Note_on_c, 0, 79, 0
3, 52992, Note_on_c, 0, 73, 64
3, 53037, Note_on_c, 0, 73, 0
3, 53040, Note_on_c, 0, 76, 64
3, 53085, Note_on_c, 0, 76, 0
3, 53088, Note_on_c, 0, 74, 64
3, 53133, Note_on_c, 0, 74, 0
3, 53136, Note_on_c, 0, 73, 64
3, 53181, Note_on_c, 0, 73, 0
3, 53184, Note_on_c, 0, 71, 64
3, 53273, Note_on_c, 0, 71, 0
3, 53280, Note_on_c, 0, 83, 64
3, 53325, Note_on_c, 0, 83, 0
3, 53328, Note_on_c, 0, 82, 64
3, 53373, Note_on_c, 0, 82, 0
3, 53376, Note_on_c, 0, 83, 64
3, 53421, Note_on_c, 0, 83, 0
3, 53424, Note_on_c, 0, 74, 64
3, 53469, Note_on_c, 0, 74, 0
3, 53472, Note_on_c, 0, 73, 64
3, 53517, Note_on_c, 0, 73, 0
3, 53520, Note_on_c, 0, 71, 64
3, 53565, Note_on_c, 0, 71, 0
3, 53568, Note_on_c, 0, 70, 64
3, 53591, Note_on_c, 0, 70, 0
3, 53592, Note_on_c, 0, 71, 64
3, 53615, Note_on_c, 0, 71, 0
3, 53616, Note_on_c, 0, 70, 64
3, 53639, Note_on_c, 0, 70, 0
3, 53640, Note_on_c, 0, 71, 64
3, 53663, Note_on_c, 0, 71, 0
3, 53664, Note_on_c, 0, 70, 64
3, 53687, Note_on_c, 0, 70, 0
3, 53688, Note_on_c, 0, 71, 64
3, 53711, Note_on_c, 0, 71, 0
3, 53712, Note_on_c, 0, 71, 64
3, 53757, Note_on_c, 0, 71, 0
3, 53760, Note_on_c, 0, 71, 64
3, 53937, Note_on_c, 0, 71, 0
3, 53937, End_track
4, 0, Start_track
4, 0, MIDI_port, 0
4, 0, Title_t, "Clavier (LH)"
4, 0, Program_c, 0, 6
4, 0, Control_c, 0, 7, 127
4, 0, Note_on_c, 0, 47, 64
4, 177, Note_on_c, 0, 47, 0
4, 192, Note_on_c, 0, 59, 64
4, 369, Note_on_c, 0, 59, 0
4, 384, Note_on_c, 0, 58, 64
4, 473, Note_on_c, 0, 58, 0
4, 480, Note_on_c, 0, 61, 64
4, 569, Note_on_c, 0, 61, 0
4, 576, Note_on_c, 0, 58, 64
4, 665, Note_on_c, 0, 58, 0
4, 672, Note_on_c, 0, 54, 64
4, 761, Note_on_c, 0, 54, 0
4, 768, Note_on_c, 0, 59, 64
4, 857, Note_on_c, 0, 59, 0
4, 864, Note_on_c, 0, 50, 64
4, 953, Note_on_c, 0, 50, 0
4, 960, Note_on_c, 0, 52, 64
4, 1049, Note_on_c, 0, 52, 0
4, 1056, Note_on_c, 0, 54, 64
4, 1145, Note_on_c, 0, 54, 0
4, 1152, Note_on_c, 0, 47, 64
4, 1241, Note_on_c, 0, 47, 0
4, 1248, Note_on_c, 0, 59, 64
4, 1337, Note_on_c, 0, 59, 0
4, 1344, Note_on_c, 0, 57, 64
4, 1433, Note_on_c, 0, 57, 0
4, 1440, Note_on_c, 0, 56, 64
4, 1529, Note_on_c, 0, 56, 0
4, 1536, Note_on_c, 0, 54, 64
4, 1713, Note_on_c, 0, 54, 0
4, 1728, Note_on_c, 0, 66, 64
4, 1905, Note_on_c, 0, 66, 0
4, 1920, Note_on_c, 0, 65, 64
4, 2009, Note_on_c, 0, 65, 0
4, 2016, Note_on_c, 0, 68, 64
4, 2105, Note_on_c, 0, 68, 0
4, 2112, Note_on_c, 0, 65, 64
4, 2201, Note_on_c, 0, 65, 0
4, 2208, Note_on_c, 0, 61, 64
4, 2297, Note_on_c, 0, 61, 0
4, 2304, Note_on_c, 0, 66, 64
4, 2393, Note_on_c, 0, 66, 0
4, 2400, Note_on_c, 0, 57, 64
4, 2489, Note_on_c, 0, 57, 0
4, 2496, Note_on_c, 0, 59, 64
4, 2585, Note_on_c, 0, 59, 0
4, 2592, Note_on_c, 0, 61, 64
4, 2681, Note_on_c, 0, 61, 0
4, 2688, Note_on_c, 0, 54, 64
4, 2865, Note_on_c, 0, 54, 0
4, 2976, Note_on_c, 0, 59, 64
4, 3065, Note_on_c, 0, 59, 0
4, 3072, Note_on_c, 0, 52, 64
4, 3249, Note_on_c, 0, 52, 0
4, 3360, Note_on_c, 0, 57, 64
4, 3449, Note_on_c, 0, 57, 0
4, 3456, Note_on_c, 0, 50, 64
4, 3545, Note_on_c, 0, 50, 0
4, 3552, Note_on_c, 0, 47, 64
4, 3641, Note_on_c, 0, 47, 0
4, 3648, Note_on_c, 0, 44, 64
4, 3737, Note_on_c, 0, 44, 0
4, 3744, Note_on_c, 0, 47, 64
4, 3833, Note_on_c, 0, 47, 0
4, 3840, Note_on_c, 0, 49, 64
4, 3929, Note_on_c, 0, 49, 0
4, 3936, Note_on_c, 0, 46, 64
4, 4025, Note_on_c, 0, 46, 0
4, 4032, Note_on_c, 0, 42, 64
4, 4121, Note_on_c, 0, 42, 0
4, 4128, Note_on_c, 0, 46, 64
4, 4217, Note_on_c, 0, 46, 0
4, 4224, Note_on_c, 0, 47, 64
4, 4313, Note_on_c, 0, 47, 0
4, 4320, Note_on_c, 0, 55, 64
4, 4365, Note_on_c, 0, 55, 0
4, 4368, Note_on_c, 0, 54, 64
4, 4413, Note_on_c, 0, 54, 0
4, 4416, Note_on_c, 0, 52, 64
4, 4461, Note_on_c, 0, 52, 0
4, 4464, Note_on_c, 0, 54, 64
4, 4509, Note_on_c, 0, 54, 0
4, 4512, Note_on_c, 0, 55, 64
4, 4601, Note_on_c, 0, 55, 0
4, 4608, Note_on_c, 0, 55, 64
4, 4631, Note_on_c, 0, 55, 0
4, 4632, Note_on_c, 0, 57, 64
4, 4655, Note_on_c, 0, 57, 0
4, 4656, Note_on_c, 0, 55, 64
4, 4679, Note_on_c, 0, 55, 0
4, 4680, Note_on_c, 0, 57, 64
4, 4703, Note_on_c, 0, 57, 0
4, 4704, Note_on_c, 0, 54, 64
4, 4793, Note_on_c, 0, 54, 0
4, 4896, Note_on_c, 0, 52, 64
4, 4985, Note_on_c, 0, 52, 0
4, 4992, Note_on_c, 0, 50, 64
4, 5037, Note_on_c, 0, 50, 0
4, 5040, Note_on_c, 0, 52, 64
4, 5085, Note_on_c, 0, 52, 0
4, 5088, Note_on_c, 0, 54, 64
4, 5133, Note_on_c, 0, 54, 0
4, 5136, Note_on_c, 0, 47, 64
4, 5181, Note_on_c, 0, 47, 0
4, 5184, Note_on_c, 0, 50, 64
4, 5273, Note_on_c, 0, 50, 0
4, 5280, Note_on_c, 0, 49, 64
4, 5303, Note_on_c, 0, 49, 0
4, 5304, Note_on_c, 0, 50, 64
4, 5327, Note_on_c, 0, 50, 0
4, 5328, Note_on_c, 0, 49, 64
4, 5351, Note_on_c, 0, 49, 0
4, 5352, Note_on_c, 0, 50, 64
4, 5375, Note_on_c, 0, 50, 0
4, 5376, Note_on_c, 0, 47, 64
4, 5421, Note_on_c, 0, 47, 0
4, 5424, Note_on_c, 0, 50, 64
4, 5469, Note_on_c, 0, 50, 0
4, 5472, Note_on_c, 0, 49, 64
4, 5517, Note_on_c, 0, 49, 0
4, 5520, Note_on_c, 0, 47, 64
4, 5565, Note_on_c, 0, 47, 0
4, 5568, Note_on_c, 0, 54, 64
4, 5613, Note_on_c, 0, 54, 0
4, 5616, Note_on_c, 0, 47, 64
4, 5661, Note_on_c, 0, 47, 0
4, 5664, Note_on_c, 0, 56, 64
4, 5709, Note_on_c, 0, 56, 0
4, 5712, Note_on_c, 0, 47, 64
4, 5757, Note_on_c, 0, 47, 0
4, 5760, Note_on_c, 0, 57, 64
4, 5849, Note_on_c, 0, 57, 0
4, 5856, Note_on_c, 0, 45, 64
4, 5945, Note_on_c, 0, 45, 0
4, 5952, Note_on_c, 0, 43, 64
4, 6041, Note_on_c, 0, 43, 0
4, 6048, Note_on_c, 0, 42, 64
4, 6137, Note_on_c, 0, 42, 0
4, 6144, Note_on_c, 0, 40, 64
4, 6233, Note_on_c, 0, 40, 0
4, 6240, Note_on_c, 0, 47, 64
4, 6329, Note_on_c, 0, 47, 0
4, 6336, Note_on_c, 0, 43, 64
4, 6425, Note_on_c, 0, 43, 0
4, 6432, Note_on_c, 0, 40, 64
4, 6521, Note_on_c, 0, 40, 0
4, 6528, Note_on_c, 0, 47, 64
4, 6617, Note_on_c, 0, 47, 0
4, 6624, Note_on_c, 0, 54, 64
4, 6713, Note_on_c, 0, 54, 0
4, 6720, Note_on_c, 0, 50, 64
4, 6809, Note_on_c, 0, 50, 0
4, 6816, Note_on_c, 0, 47, 64
4, 6905, Note_on_c, 0, 47, 0
4, 6912, Note_on_c, 0, 42, 64
4, 7001, Note_on_c, 0, 42, 0
4, 7008, Note_on_c, 0, 54, 64
4, 7097, Note_on_c, 0, 54, 0
4, 7104, Note_on_c, 0, 51, 64
4, 7193, Note_on_c, 0, 51, 0
4, 7200, Note_on_c, 0, 54, 64
4, 7289, Note_on_c, 0, 54, 0
4, 7296, Note_on_c, 0, 44, 64
4, 7385, Note_on_c, 0, 44, 0
4, 7392, Note_on_c, 0, 53, 64
4, 7481, Note_on_c, 0, 53, 0
4, 7488, Note_on_c, 0, 49, 64
4, 7577, Note_on_c, 0, 49, 0
4, 7584, Note_on_c, 0, 53, 64
4, 7673, Note_on_c, 0, 53, 0
4, 7680, Note_on_c, 0, 42, 64
4, 7769, Note_on_c, 0, 42, 0
4, 7776, Note_on_c, 0, 50, 64
4, 7821, Note_on_c, 0, 50, 0
4, 7824, Note_on_c, 0, 49, 64
4, 7869, Note_on_c, 0, 49, 0
4, 7872, Note_on_c, 0, 47, 64
4, 7917, Note_on_c, 0, 47, 0
4, 7920, Note_on_c, 0, 49, 64
4, 7965, Note_on_c, 0, 49, 0
4, 7968, Note_on_c, 0, 50, 64
4, 8057, Note_on_c, 0, 50, 0
4, 8064, Note_on_c, 0, 50, 64
4, 8087, Note_on_c, 0, 50, 0
4, 8088, Note_on_c, 0, 52, 64
4, 8111, Note_on_c, 0, 52, 0
4, 8112, Note_on_c, 0, 50, 64
4, 8135, Note_on_c, 0, 50, 0
4, 8136, Note_on_c, 0, 52, 64
4, 8159, Note_on_c, 0, 52, 0
4, 8160, Note_on_c, 0, 49, 64
4, 8249, Note_on_c, 0, 49, 0
4, 8352, Note_on_c, 0, 47, 64
4, 8441, Note_on_c, 0, 47, 0
4, 8448, Note_on_c, 0, 45, 64
4, 8493, Note_on_c, 0, 45, 0
4, 8496, Note_on_c, 0, 47, 64
4, 8541, Note_on_c, 0, 47, 0
4, 8544, Note_on_c, 0, 49, 64
4, 8589, Note_on_c, 0, 49, 0
4, 8592, Note_on_c, 0, 42, 64
4, 8637, Note_on_c, 0, 42, 0
4, 8640, Note_on_c, 0, 45, 64
4, 8729, Note_on_c, 0, 45, 0
4, 8736, Note_on_c, 0, 44, 64
4, 8825, Note_on_c, 0, 44, 0
4, 8832, Note_on_c, 0, 42, 64
4, 8877, Note_on_c, 0, 42, 0
4, 8880, Note_on_c, 0, 54, 64
4, 8925, Note_on_c, 0, 54, 0
4, 8928, Note_on_c, 0, 56, 64
4, 8973, Note_on_c, 0, 56, 0
4, 8976, Note_on_c, 0, 57, 64
4, 9021, Note_on_c, 0, 57, 0
4, 9024, Note_on_c, 0, 51, 64
4, 9069, Note_on_c, 0, 51, 0
4, 9072, Note_on_c, 0, 57, 64
4, 9117, Note_on_c, 0, 57, 0
4, 9120, Note_on_c, 0, 47, 64
4, 9165, Note_on_c, 0, 47, 0
4, 9168, Note_on_c, 0, 57, 64
4, 9213, Note_on_c, 0, 57, 0
4, 9216, Note_on_c, 0, 55, 64
4, 9261, Note_on_c, 0, 55, 0
4, 9264, Note_on_c, 0, 52, 64
4, 9309, Note_on_c, 0, 52, 0
4, 9312, Note_on_c, 0, 54, 64
4, 9357, Note_on_c, 0, 54, 0
4, 9360, Note_on_c, 0, 55, 64
4, 9405, Note_on_c, 0, 55, 0
4, 9408, Note_on_c, 0, 49, 64
4, 9453, Note_on_c, 0, 49, 0
4, 9456, Note_on_c, 0, 55, 64
4, 9501, Note_on_c, 0, 55, 0
4, 9504, Note_on_c, 0, 45, 64
4, 9549, Note_on_c, 0, 45, 0
4, 9552, Note_on_c, 0, 55, 64
4, 9597, Note_on_c, 0, 55, 0
4, 9600, Note_on_c, 0, 54, 64
4, 9689, Note_on_c, 0, 54, 0
4, 9696, Note_on_c, 0, 59, 64
4, 9785, Note_on_c, 0, 59, 0
4, 9792, Note_on_c, 0, 56, 64
4, 9881, Note_on_c, 0, 56, 0
4, 9888, Note_on_c, 0, 59, 64
4, 9977, Note_on_c, 0, 59, 0
4, 9984, Note_on_c, 0, 61, 64
4, 10073, Note_on_c, 0, 61, 0
4, 10080, Note_on_c, 0, 58, 64
4, 10169, Note_on_c, 0, 58, 0
4, 10176, Note_on_c, 0, 54, 64
4, 10265, Note_on_c, 0, 54, 0
4, 10272, Note_on_c, 0, 58, 64
4, 10361, Note_on_c, 0, 58, 0
4, 10368, Note_on_c, 0, 59, 64
4, 10413, Note_on_c, 0, 59, 0
4, 10416, Note_on_c, 0, 61, 64
4, 10461, Note_on_c, 0, 61, 0
4, 10464, Note_on_c, 0, 64, 64
4, 10509, Note_on_c, 0, 64, 0
4, 10512, Note_on_c, 0, 62, 64
4, 10557, Note_on_c, 0, 62, 0
4, 10560, Note_on_c, 0, 61, 64
4, 10605, Note_on_c, 0, 61, 0
4, 10608, Note_on_c, 0, 59, 64
4, 10653, Note_on_c, 0, 59, 0
4, 10656, Note_on_c, 0, 58, 64
4, 10701, Note_on_c, 0, 58, 0
4, 10704, Note_on_c, 0, 59, 64
4, 10749, Note_on_c, 0, 59, 0
4, 10752, Note_on_c, 0, 61, 64
4, 10797, Note_on_c, 0, 61, 0
4, 10800, Note_on_c, 0, 59, 64
4, 10845, Note_on_c, 0, 59, 0
4, 10848, Note_on_c, 0, 58, 64
4, 10893, Note_on_c, 0, 58, 0
4, 10896, Note_on_c, 0, 56, 64
4, 10941, Note_on_c, 0, 56, 0
4, 10944, Note_on_c, 0, 54, 64
4, 10989, Note_on_c, 0, 54, 0
4, 10992, Note_on_c, 0, 52, 64
4, 11037, Note_on_c, 0, 52, 0
4, 11040, Note_on_c, 0, 50, 64
4, 11085, Note_on_c, 0, 50, 0
4, 11088, Note_on_c, 0, 49, 64
4, 11133, Note_on_c, 0, 49, 0
4, 11136, Note_on_c, 0, 47, 64
4, 11225, Note_on_c, 0, 47, 0
4, 11232, Note_on_c, 0, 50, 64
4, 11321, Note_on_c, 0, 50, 0
4, 11328, Note_on_c, 0, 52, 64
4, 11417, Note_on_c, 0, 52, 0
4, 11424, Note_on_c, 0, 54, 64
4, 11513, Note_on_c, 0, 54, 0
4, 11520, Note_on_c, 0, 55, 64
4, 11609, Note_on_c, 0, 55, 0
4, 11616, Note_on_c, 0, 57, 64
4, 11705, Note_on_c, 0, 57, 0
4, 11712, Note_on_c, 0, 55, 64
4, 11801, Note_on_c, 0, 55, 0
4, 11808, Note_on_c, 0, 54, 64
4, 11897, Note_on_c, 0, 54, 0
4, 11904, Note_on_c, 0, 52, 64
4, 11993, Note_on_c, 0, 52, 0
4, 12000, Note_on_c, 0, 50, 64
4, 12089, Note_on_c, 0, 50, 0
4, 12096, Note_on_c, 0, 49, 64
4, 12185, Note_on_c, 0, 49, 0
4, 12192, Note_on_c, 0, 52, 64
4, 12281, Note_on_c, 0, 52, 0
4, 12288, Note_on_c, 0, 50, 64
4, 12377, Note_on_c, 0, 50, 0
4, 12384, Note_on_c, 0, 49, 64
4, 12473, Note_on_c, 0, 49, 0
4, 12480, Note_on_c, 0, 47, 64
4, 12569, Note_on_c, 0, 47, 0
4, 12576, Note_on_c, 0, 50, 64
4, 12665, Note_on_c, 0, 50, 0
4, 12672, Note_on_c, 0, 49, 64
4, 12761, Note_on_c, 0, 49, 0
4, 12768, Note_on_c, 0, 50, 64
4, 12857, Note_on_c, 0, 50, 0
4, 12864, Note_on_c, 0, 49, 64
4, 12953, Note_on_c, 0, 49, 0
4, 12960, Note_on_c, 0, 47, 64
4, 13049, Note_on_c, 0, 47, 0
4, 13056, Note_on_c, 0, 46, 64
4, 13145, Note_on_c, 0, 46, 0
4, 13152, Note_on_c, 0, 58, 64
4, 13241, Note_on_c, 0, 58, 0
4, 13248, Note_on_c, 0, 54, 64
4, 13337, Note_on_c, 0, 54, 0
4, 13344, Note_on_c, 0, 58, 64
4, 13433, Note_on_c, 0, 58, 0
4, 13440, Note_on_c, 0, 59, 64
4, 13485, Note_on_c, 0, 59, 0
4, 13488, Note_on_c, 0, 61, 64
4, 13533, Note_on_c, 0, 61, 0
4, 13536, Note_on_c, 0, 59, 64
4, 13581, Note_on_c, 0, 59, 0
4, 13584, Note_on_c, 0, 57, 64
4, 13629, Note_on_c, 0, 57, 0
4, 13632, Note_on_c, 0, 55, 64
4, 13677, Note_on_c, 0, 55, 0
4, 13680, Note_on_c, 0, 59, 64
4, 13725, Note_on_c, 0, 59, 0
4, 13728, Note_on_c, 0, 54, 64
4, 13773, Note_on_c, 0, 54, 0
4, 13776, Note_on_c, 0, 59, 64
4, 13821, Note_on_c, 0, 59, 0
4, 13824, Note_on_c, 0, 52, 64
4, 13869, Note_on_c, 0, 52, 0
4, 13872, Note_on_c, 0, 54, 64
4, 13917, Note_on_c, 0, 54, 0
4, 13920, Note_on_c, 0, 52, 64
4, 13965, Note_on_c, 0, 52, 0
4, 13968, Note_on_c, 0, 50, 64
4, 14013, Note_on_c, 0, 50, 0
4, 14016, Note_on_c, 0, 49, 64
4, 14061, Note_on_c, 0, 49, 0
4, 14064, Note_on_c, 0, 52, 64
4, 14109, Note_on_c, 0, 52, 0
4, 14112, Note_on_c, 0, 47, 64
4, 14157, Note_on_c, 0, 47, 0
4, 14160, Note_on_c, 0, 52, 64
4, 14205, Note_on_c, 0, 52, 0
4, 14208, Note_on_c, 0, 46, 64
4, 14297, Note_on_c, 0, 46, 0
4, 14304, Note_on_c, 0, 42, 64
4, 14393, Note_on_c, 0, 42, 0
4, 14400, Note_on_c, 0, 47, 64
4, 14489, Note_on_c, 0, 47, 0
4, 14496, Note_on_c, 0, 43, 64
4, 14585, Note_on_c, 0, 43, 0
4, 14592, Note_on_c, 0, 38, 64
4, 14681, Note_on_c, 0, 38, 0
4, 14688, Note_on_c, 0, 40, 64
4, 14777, Note_on_c, 0, 40, 0
4, 14784, Note_on_c, 0, 42, 64
4, 14961, Note_on_c, 0, 42, 0
4, 14976, Note_on_c, 0, 47, 64
4, 15021, Note_on_c, 0, 47, 0
4, 15024, Note_on_c, 0, 59, 64
4, 15069, Note_on_c, 0, 59, 0
4, 15072, Note_on_c, 0, 57, 64
4, 15117, Note_on_c, 0, 57, 0
4, 15120, Note_on_c, 0, 55, 64
4, 15165, Note_on_c, 0, 55, 0
4, 15168, Note_on_c, 0, 54, 64
4, 15213, Note_on_c, 0, 54, 0
4, 15216, Note_on_c, 0, 57, 64
4, 15261, Note_on_c, 0, 57, 0
4, 15264, Note_on_c, 0, 52, 64
4, 15309, Note_on_c, 0, 52, 0
4, 15312, Note_on_c, 0, 57, 64
4, 15357, Note_on_c, 0, 57, 0
4, 15360, Note_on_c, 0, 50, 64
4, 15714, Note_on_c, 0, 50, 0
4, 15744, Note_on_c, 0, 49, 64
4, 16098, Note_on_c, 0, 49, 0
4, 16128, Note_on_c, 0, 50, 64
4, 16217, Note_on_c, 0, 50, 0
4, 16224, Note_on_c, 0, 54, 64
4, 16313, Note_on_c, 0, 54, 0
4, 16320, Note_on_c, 0, 52, 64
4, 16409, Note_on_c, 0, 52, 0
4, 16416, Note_on_c, 0, 50, 64
4, 16505, Note_on_c, 0, 50, 0
4, 16512, Note_on_c, 0, 45, 64
4, 16601, Note_on_c, 0, 45, 0
4, 16608, Note_on_c, 0, 57, 64
4, 16697, Note_on_c, 0, 57, 0
4, 16704, Note_on_c, 0, 55, 64
4, 16793, Note_on_c, 0, 55, 0
4, 16800, Note_on_c, 0, 54, 64
4, 16889, Note_on_c, 0, 54, 0
4, 16896, Note_on_c, 0, 52, 64
4, 17250, Note_on_c, 0, 52, 0
4, 17280, Note_on_c, 0, 51, 64
4, 17634, Note_on_c, 0, 51, 0
4, 17664, Note_on_c, 0, 52, 64
4, 17753, Note_on_c, 0, 52, 0
4, 17760, Note_on_c, 0, 55, 64
4, 17849, Note_on_c, 0, 55, 0
4, 17856, Note_on_c, 0, 54, 64
4, 17945, Note_on_c, 0, 54, 0
4, 17952, Note_on_c, 0, 52, 64
4, 18041, Note_on_c, 0, 52, 0
4, 18048, Note_on_c, 0, 47, 64
4, 18137, Note_on_c, 0, 47, 0
4, 18144, Note_on_c, 0, 59, 64
4, 18233, Note_on_c, 0, 59, 0
4, 18240, Note_on_c, 0, 57, 64
4, 18329, Note_on_c, 0, 57, 0
4, 18336, Note_on_c, 0, 55, 64
4, 18425, Note_on_c, 0, 55, 0
4, 18432, Note_on_c, 0, 54, 64
4, 18521, Note_on_c, 0, 54, 0
4, 18528, Note_on_c, 0, 52, 64
4, 18617, Note_on_c, 0, 52, 0
4, 18624, Note_on_c, 0, 54, 64
4, 18713, Note_on_c, 0, 54, 0
4, 18720, Note_on_c, 0, 50, 64
4, 18809, Note_on_c, 0, 50, 0
4, 18816, Note_on_c, 0, 55, 64
4, 18905, Note_on_c, 0, 55, 0
4, 18912, Note_on_c, 0, 54, 64
4, 19001, Note_on_c, 0, 54, 0
4, 19008, Note_on_c, 0, 52, 64
4, 19097, Note_on_c, 0, 52, 0
4, 19104, Note_on_c, 0, 50, 64
4, 19193, Note_on_c, 0, 50, 0
4, 19200, Note_on_c, 0, 49, 64
4, 19289, Note_on_c, 0, 49, 0
4, 19296, Note_on_c, 0, 50, 64
4, 19385, Note_on_c, 0, 50, 0
4, 19392, Note_on_c, 0, 57, 64
4, 19481, Note_on_c, 0, 57, 0
4, 19488, Note_on_c, 0, 45, 64
4, 19577, Note_on_c, 0, 45, 0
4, 19584, Note_on_c, 0, 62, 64
4, 19673, Note_on_c, 0, 62, 0
4, 19680, Note_on_c, 0, 66, 64
4, 19725, Note_on_c, 0, 66, 0
4, 19728, Note_on_c, 0, 64, 64
4, 19773, Note_on_c, 0, 64, 0
4, 19776, Note_on_c, 0, 62, 64
4, 19821, Note_on_c, 0, 62, 0
4, 19824, Note_on_c, 0, 64, 64
4, 19869, Note_on_c, 0, 64, 0
4, 19872, Note_on_c, 0, 66, 64
4, 19961, Note_on_c, 0, 66, 0
4, 19968, Note_on_c, 0, 66, 64
4, 19991, Note_on_c, 0, 66, 0
4, 19992, Note_on_c, 0, 67, 64
4, 20015, Note_on_c, 0, 67, 0
4, 20016, Note_on_c, 0, 66, 64
4, 20039, Note_on_c, 0, 66, 0
4, 20040, Note_on_c, 0, 67, 64
4, 20063, Note_on_c, 0, 67, 0
4, 20064, Note_on_c, 0, 64, 64
4, 20153, Note_on_c, 0, 64, 0
4, 20256, Note_on_c, 0, 62, 64
4, 20345, Note_on_c, 0, 62, 0
4, 20352, Note_on_c, 0, 61, 64
4, 20397, Note_on_c, 0, 61, 0
4, 20400, Note_on_c, 0, 62, 64
4, 20445, Note_on_c, 0, 62, 0
4, 20448, Note_on_c, 0, 64, 64
4, 20493, Note_on_c, 0, 64, 0
4, 20496, Note_on_c, 0, 57, 64
4, 20541, Note_on_c, 0, 57, 0
4, 20544, Note_on_c, 0, 61, 64
4, 20633, Note_on_c, 0, 61, 0
4, 20640, Note_on_c, 0, 59, 64
4, 20663, Note_on_c, 0, 59, 0
4, 20664, Note_on_c, 0, 61, 64
4, 20687, Note_on_c, 0, 61, 0
4, 20688, Note_on_c, 0, 59, 64
4, 20711, Note_on_c, 0, 59, 0
4, 20712, Note_on_c, 0, 61, 64
4, 20735, Note_on_c, 0, 61, 0
4, 20736, Note_on_c, 0, 57, 64
4, 20825, Note_on_c, 0, 57, 0
4, 20832, Note_on_c, 0, 54, 64
4, 20877, Note_on_c, 0, 54, 0
4, 20880, Note_on_c, 0, 55, 64
4, 20925, Note_on_c, 0, 55, 0
4, 20928, Note_on_c, 0, 57, 64
4, 21017, Note_on_c, 0, 57, 0
4, 21024, Note_on_c, 0, 54, 64
4, 21113, Note_on_c, 0, 54, 0
4, 21120, Note_on_c, 0, 51, 64
4, 21209, Note_on_c, 0, 51, 0
4, 21216, Note_on_c, 0, 54, 64
4, 21305, Note_on_c, 0, 54, 0
4, 21312, Note_on_c, 0, 51, 64
4, 21401, Note_on_c, 0, 51, 0
4, 21408, Note_on_c, 0, 47, 64
4, 21497, Note_on_c, 0, 47, 0
4, 21504, Note_on_c, 0, 52, 64
4, 21593, Note_on_c, 0, 52, 0
4, 21600, Note_on_c, 0, 43, 64
4, 21689, Note_on_c, 0, 43, 0
4, 21696, Note_on_c, 0, 45, 64
4, 21785, Note_on_c, 0, 45, 0
4, 21792, Note_on_c, 0, 47, 64
4, 21881, Note_on_c, 0, 47, 0
4, 21888, Note_on_c, 0, 52, 64
4, 21933, Note_on_c, 0, 52, 0
4, 21936, Note_on_c, 0, 59, 64
4, 21981, Note_on_c, 0, 59, 0
4, 21984, Note_on_c, 0, 64, 64
4, 22029, Note_on_c, 0, 64, 0
4, 22032, Note_on_c, 0, 62, 64
4, 22077, Note_on_c, 0, 62, 0
4, 22080, Note_on_c, 0, 61, 64
4, 22125, Note_on_c, 0, 61, 0
4, 22128, Note_on_c, 0, 59, 64
4, 22173, Note_on_c, 0, 59, 0
4, 22176, Note_on_c, 0, 58, 64
4, 22221, Note_on_c, 0, 58, 0
4, 22224, Note_on_c, 0, 59, 64
4, 22269, Note_on_c, 0, 59, 0
4, 22272, Note_on_c, 0, 61, 64
4, 22317, Note_on_c, 0, 61, 0
4, 22320, Note_on_c, 0, 59, 64
4, 22365, Note_on_c, 0, 59, 0
4, 22368, Note_on_c, 0, 58, 64
4, 22413, Note_on_c, 0, 58, 0
4, 22416, Note_on_c, 0, 56, 64
4, 22461, Note_on_c, 0, 56, 0
4, 22464, Note_on_c, 0, 54, 64
4, 22509, Note_on_c, 0, 54, 0
4, 22512, Note_on_c, 0, 52, 64
4, 22557, Note_on_c, 0, 52, 0
4, 22560, Note_on_c, 0, 50, 64
4, 22605, Note_on_c, 0, 50, 0
4, 22608, Note_on_c, 0, 49, 64
4, 22653, Note_on_c, 0, 49, 0
4, 22656, Note_on_c, 0, 47, 64
4, 22745, Note_on_c, 0, 47, 0
4, 22752, Note_on_c, 0, 50, 64
4, 22841, Note_on_c, 0, 50, 0
4, 22848, Note_on_c, 0, 52, 64
4, 22937, Note_on_c, 0, 52, 0
4, 22944, Note_on_c, 0, 54, 64
4, 23033, Note_on_c, 0, 54, 0
4, 23040, Note_on_c, 0, 59, 64
4, 23129, Note_on_c, 0, 59, 0
4, 23136, Note_on_c, 0, 62, 64
4, 23181, Note_on_c, 0, 62, 0
4, 23184, Note_on_c, 0, 61, 64
4, 23229, Note_on_c, 0, 61, 0
4, 23232, Note_on_c, 0, 59, 64
4, 23277, Note_on_c, 0, 59, 0
4, 23280, Note_on_c, 0, 61, 64
4, 23325, Note_on_c, 0, 61, 0
4, 23328, Note_on_c, 0, 62, 64
4, 23417, Note_on_c, 0, 62, 0
4, 23424, Note_on_c, 0, 62, 64
4, 23513, Note_on_c, 0, 62, 0
4, 23520, Note_on_c, 0, 61, 64
4, 23609, Note_on_c, 0, 61, 0
4, 23616, Note_on_c, 0, 59, 64
4, 23705, Note_on_c, 0, 59, 0
4, 23712, Note_on_c, 0, 62, 64
4, 23801, Note_on_c, 0, 62, 0
4, 23808, Note_on_c, 0, 61, 64
4, 23897, Note_on_c, 0, 61, 0
4, 23904, Note_on_c, 0, 64, 64
4, 23949, Note_on_c, 0, 64, 0
4, 23952, Note_on_c, 0, 62, 64
4, 23997, Note_on_c, 0, 62, 0
4, 24000, Note_on_c, 0, 61, 64
4, 24045, Note_on_c, 0, 61, 0
4, 24048, Note_on_c, 0, 62, 64
4, 24093, Note_on_c, 0, 62, 0
4, 24096, Note_on_c, 0, 64, 64
4, 24185, Note_on_c, 0, 64, 0
4, 24192, Note_on_c, 0, 64, 64
4, 24281, Note_on_c, 0, 64, 0
4, 24288, Note_on_c, 0, 62, 64
4, 24377, Note_on_c, 0, 62, 0
4, 24384, Note_on_c, 0, 61, 64
4, 24473, Note_on_c, 0, 61, 0
4, 24480, Note_on_c, 0, 64, 64
4, 24569, Note_on_c, 0, 64, 0
4, 24576, Note_on_c, 0, 62, 64
4, 24665, Note_on_c, 0, 62, 0
4, 24672, Note_on_c, 0, 66, 64
4, 24717, Note_on_c, 0, 66, 0
4, 24720, Note_on_c, 0, 64, 64
4, 24765, Note_on_c, 0, 64, 0
4, 24768, Note_on_c, 0, 62, 64
4, 24813, Note_on_c, 0, 62, 0
4, 24816, Note_on_c, 0, 64, 64
4, 24861, Note_on_c, 0, 64, 0
4, 24864, Note_on_c, 0, 66, 64
4, 24953, Note_on_c, 0, 66, 0
4, 24960, Note_on_c, 0, 66, 64
4, 25049, Note_on_c, 0, 66, 0
4, 25056, Note_on_c, 0, 64, 64
4, 25145, Note_on_c, 0, 64, 0
4, 25152, Note_on_c, 0, 62, 64
4, 25241, Note_on_c, 0, 62, 0
4, 25248, Note_on_c, 0, 66, 64
4, 25337, Note_on_c, 0, 66, 0
4, 25344, Note_on_c, 0, 64, 64
4, 25433, Note_on_c, 0, 64, 0
4, 25440, Note_on_c, 0, 62, 64
4, 25485, Note_on_c, 0, 62, 0
4, 25488, Note_on_c, 0, 61, 64
4, 25533, Note_on_c, 0, 61, 0
4, 25536, Note_on_c, 0, 59, 64
4, 25625, Note_on_c, 0, 59, 0
4, 25632, Note_on_c, 0, 57, 64
4, 25721, Note_on_c, 0, 57, 0
4, 25728, Note_on_c, 0, 56, 64
4, 25773, Note_on_c, 0, 56, 0
4, 25776, Note_on_c, 0, 57, 64
4, 25821, Note_on_c, 0, 57, 0
4, 25824, Note_on_c, 0, 56, 64
4, 25869, Note_on_c, 0, 56, 0
4, 25872, Note_on_c, 0, 54, 64
4, 25917, Note_on_c, 0, 54, 0
4, 25920, Note_on_c, 0, 52, 64
4, 25965, Note_on_c, 0, 52, 0
4, 25968, Note_on_c, 0, 50, 64
4, 26013, Note_on_c, 0, 50, 0
4, 26016, Note_on_c, 0, 49, 64
4, 26061, Note_on_c, 0, 49, 0
4, 26064, Note_on_c, 0, 47, 64
4, 26109, Note_on_c, 0, 47, 0
4, 26112, Note_on_c, 0, 45, 64
4, 26466, Note_on_c, 0, 45, 0
4, 26496, Note_on_c, 0, 44, 64
4, 26850, Note_on_c, 0, 44, 0
4, 26880, Note_on_c, 0, 45, 64
4, 26969, Note_on_c, 0, 45, 0
4, 26976, Note_on_c, 0, 49, 64
4, 27065, Note_on_c, 0, 49, 0
4, 27072, Note_on_c, 0, 47, 64
4, 27161, Note_on_c, 0, 47, 0
4, 27168, Note_on_c, 0, 45, 64
4, 27257, Note_on_c, 0, 45, 0
4, 27264, Note_on_c, 0, 40, 64
4, 27353, Note_on_c, 0, 40, 0
4, 27360, Note_on_c, 0, 52, 64
4, 27449, Note_on_c, 0, 52, 0
4, 27456, Note_on_c, 0, 50, 64
4, 27545, Note_on_c, 0, 50, 0
4, 27552, Note_on_c, 0, 49, 64
4, 27641, Note_on_c, 0, 49, 0
4, 27648, Note_on_c, 0, 47, 64
4, 28002, Note_on_c, 0, 47, 0
4, 28032, Note_on_c, 0, 46, 64
4, 28386, Note_on_c, 0, 46, 0
4, 28416, Note_on_c, 0, 47, 64
4, 28505, Note_on_c, 0, 47, 0
4, 28512, Note_on_c, 0, 50, 64
4, 28601, Note_on_c, 0, 50, 0
4, 28608, Note_on_c, 0, 49, 64
4, 28697, Note_on_c, 0, 49, 0
4, 28704, Note_on_c, 0, 47, 64
4, 28793, Note_on_c, 0, 47, 0
4, 28800, Note_on_c, 0, 42, 64
4, 28889, Note_on_c, 0, 42, 0
4, 28896, Note_on_c, 0, 54, 64
4, 28985, Note_on_c, 0, 54, 0
4, 28992, Note_on_c, 0, 52, 64
4, 29081, Note_on_c, 0, 52, 0
4, 29088, Note_on_c, 0, 50, 64
4, 29177, Note_on_c, 0, 50, 0
4, 29184, Note_on_c, 0, 49, 64
4, 29273, Note_on_c, 0, 49, 0
4, 29280, Note_on_c, 0, 47, 64
4, 29369, Note_on_c, 0, 47, 0
4, 29376, Note_on_c, 0, 49, 64
4, 29465, Note_on_c, 0, 49, 0
4, 29472, Note_on_c, 0, 45, 64
4, 29561, Note_on_c, 0, 45, 0
4, 29568, Note_on_c, 0, 50, 64
4, 29657, Note_on_c, 0, 50, 0
4, 29664, Note_on_c, 0, 49, 64
4, 29753, Note_on_c, 0, 49, 0
4, 29760, Note_on_c, 0, 47, 64
4, 29849, Note_on_c, 0, 47, 0
4, 29856, Note_on_c, 0, 45, 64
4, 29945, Note_on_c, 0, 45, 0
4, 29952, Note_on_c, 0, 44, 64
4, 30041, Note_on_c, 0, 44, 0
4, 30048, Note_on_c, 0, 45, 64
4, 30137, Note_on_c, 0, 45, 0
4, 30144, Note_on_c, 0, 52, 64
4, 30233, Note_on_c, 0, 52, 0
4, 30240, Note_on_c, 0, 40, 64
4, 30329, Note_on_c, 0, 40, 0
4, 30336, Note_on_c, 0, 45, 64
4, 30425, Note_on_c, 0, 45, 0
4, 30432, Note_on_c, 0, 45, 64
4, 30521, Note_on_c, 0, 45, 0
4, 30528, Note_on_c, 0, 47, 64
4, 30617, Note_on_c, 0, 47, 0
4, 30624, Note_on_c, 0, 49, 64
4, 30713, Note_on_c, 0, 49, 0
4, 30720, Note_on_c, 0, 50, 64
4, 30809, Note_on_c, 0, 50, 0
4, 30816, Note_on_c, 0, 49, 64
4, 30905, Note_on_c, 0, 49, 0
4, 30912, Note_on_c, 0, 47, 64
4, 31001, Note_on_c, 0, 47, 0
4, 31008, Note_on_c, 0, 50, 64
4, 31097, Note_on_c, 0, 50, 0
4, 31104, Note_on_c, 0, 49, 64
4, 31193, Note_on_c, 0, 49, 0
4, 31200, Note_on_c, 0, 47, 64
4, 31289, Note_on_c, 0, 47, 0
4, 31296, Note_on_c, 0, 45, 64
4, 31385, Note_on_c, 0, 45, 0
4, 31392, Note_on_c, 0, 49, 64
4, 31481, Note_on_c, 0, 49, 0
4, 31488, Note_on_c, 0, 47, 64
4, 31577, Note_on_c, 0, 47, 0
4, 31584, Note_on_c, 0, 49, 64
4, 31673, Note_on_c, 0, 49, 0
4, 31680, Note_on_c, 0, 47, 64
4, 31769, Note_on_c, 0, 47, 0
4, 31776, Note_on_c, 0, 45, 64
4, 31865, Note_on_c, 0, 45, 0
4, 31872, Note_on_c, 0, 44, 64
4, 31961, Note_on_c, 0, 44, 0
4, 31968, Note_on_c, 0, 56, 64
4, 32057, Note_on_c, 0, 56, 0
4, 32064, Note_on_c, 0, 52, 64
4, 32153, Note_on_c, 0, 52, 0
4, 32160, Note_on_c, 0, 56, 64
4, 32249, Note_on_c, 0, 56, 0
4, 32256, Note_on_c, 0, 57, 64
4, 32301, Note_on_c, 0, 57, 0
4, 32304, Note_on_c, 0, 59, 64
4, 32349, Note_on_c, 0, 59, 0
4, 32352, Note_on_c, 0, 57, 64
4, 32397, Note_on_c, 0, 57, 0
4, 32400, Note_on_c, 0, 56, 64
4, 32445, Note_on_c, 0, 56, 0
4, 32448, Note_on_c, 0, 54, 64
4, 32493, Note_on_c, 0, 54, 0
4, 32496, Note_on_c, 0, 57, 64
4, 32541, Note_on_c, 0, 57, 0
4, 32544, Note_on_c, 0, 51, 64
4, 32589, Note_on_c, 0, 51, 0
4, 32592, Note_on_c, 0, 54, 64
4, 32637, Note_on_c, 0, 54, 0
4, 32640, Note_on_c, 0, 56, 64
4, 32685, Note_on_c, 0, 56, 0
4, 32688, Note_on_c, 0, 57, 64
4, 32733, Note_on_c, 0, 57, 0
4, 32736, Note_on_c, 0, 56, 64
4, 32781, Note_on_c, 0, 56, 0
4, 32784, Note_on_c, 0, 54, 64
4, 32829, Note_on_c, 0, 54, 0
4, 32832, Note_on_c, 0, 53, 64
4, 32877, Note_on_c, 0, 53, 0
4, 32880, Note_on_c, 0, 56, 64
4, 32925, Note_on_c, 0, 56, 0
4, 32928, Note_on_c, 0, 49, 64
4, 32973, Note_on_c, 0, 49, 0
4, 32976, Note_on_c, 0, 53, 64
4, 33021, Note_on_c, 0, 53, 0
4, 33024, Note_on_c, 0, 54, 64
4, 33069, Note_on_c, 0, 54, 0
4, 33072, Note_on_c, 0, 56, 64
4, 33117, Note_on_c, 0, 56, 0
4, 33120, Note_on_c, 0, 54, 64
4, 33165, Note_on_c, 0, 54, 0
4, 33168, Note_on_c, 0, 52, 64
4, 33213, Note_on_c, 0, 52, 0
4, 33216, Note_on_c, 0, 50, 64
4, 33261, Note_on_c, 0, 50, 0
4, 33264, Note_on_c, 0, 54, 64
4, 33309, Note_on_c, 0, 54, 0
4, 33312, Note_on_c, 0, 47, 64
4, 33357, Note_on_c, 0, 47, 0
4, 33360, Note_on_c, 0, 50, 64
4, 33405, Note_on_c, 0, 50, 0
4, 33408, Note_on_c, 0, 49, 64
4, 33453, Note_on_c, 0, 49, 0
4, 33456, Note_on_c, 0, 50, 64
4, 33501, Note_on_c, 0, 50, 0
4, 33504, Note_on_c, 0, 49, 64
4, 33549, Note_on_c, 0, 49, 0
4, 33552, Note_on_c, 0, 47, 64
4, 33597, Note_on_c, 0, 47, 0
4, 33600, Note_on_c, 0, 45, 64
4, 33645, Note_on_c, 0, 45, 0
4, 33648, Note_on_c, 0, 49, 64
4, 33693, Note_on_c, 0, 49, 0
4, 33696, Note_on_c, 0, 44, 64
4, 33741, Note_on_c, 0, 44, 0
4, 33744, Note_on_c, 0, 49, 64
4, 33789, Note_on_c, 0, 49, 0
4, 33792, Note_on_c, 0, 42, 64
4, 33969, Note_on_c, 0, 42, 0
4, 33984, Note_on_c, 0, 54, 64
4, 34161, Note_on_c, 0, 54, 0
4, 34176, Note_on_c, 0, 53, 64
4, 34265, Note_on_c, 0, 53, 0
4, 34272, Note_on_c, 0, 56, 64
4, 34361, Note_on_c, 0, 56, 0
4, 34368, Note_on_c, 0, 53, 64
4, 34457, Note_on_c, 0, 53, 0
4, 34464, Note_on_c, 0, 49, 64
4, 34553, Note_on_c, 0, 49, 0
4, 34560, Note_on_c, 0, 54, 64
4, 34649, Note_on_c, 0, 54, 0
4, 34656, Note_on_c, 0, 45, 64
4, 34745, Note_on_c, 0, 45, 0
4, 34752, Note_on_c, 0, 47, 64
4, 34841, Note_on_c, 0, 47, 0
4, 34848, Note_on_c, 0, 49, 64
4, 34937, Note_on_c, 0, 49, 0
4, 34944, Note_on_c, 0, 54, 64
4, 34989, Note_on_c, 0, 54, 0
4, 34992, Note_on_c, 0, 56, 64
4, 35037, Note_on_c, 0, 56, 0
4, 35040, Note_on_c, 0, 59, 64
4, 35085, Note_on_c, 0, 59, 0
4, 35088, Note_on_c, 0, 57, 64
4, 35133, Note_on_c, 0, 57, 0
4, 35136, Note_on_c, 0, 56, 64
4, 35181, Note_on_c, 0, 56, 0
4, 35184, Note_on_c, 0, 54, 64
4, 35229, Note_on_c, 0, 54, 0
4, 35232, Note_on_c, 0, 53, 64
4, 35277, Note_on_c, 0, 53, 0
4, 35280, Note_on_c, 0, 54, 64
4, 35325, Note_on_c, 0, 54, 0
4, 35328, Note_on_c, 0, 56, 64
4, 35373, Note_on_c, 0, 56, 0
4, 35376, Note_on_c, 0, 54, 64
4, 35421, Note_on_c, 0, 54, 0
4, 35424, Note_on_c, 0, 53, 64
4, 35469, Note_on_c, 0, 53, 0
4, 35472, Note_on_c, 0, 50, 64
4, 35517, Note_on_c, 0, 50, 0
4, 35520, Note_on_c, 0, 49, 64
4, 35565, Note_on_c, 0, 49, 0
4, 35568, Note_on_c, 0, 47, 64
4, 35613, Note_on_c, 0, 47, 0
4, 35616, Note_on_c, 0, 45, 64
4, 35661, Note_on_c, 0, 45, 0
4, 35664, Note_on_c, 0, 44, 64
4, 35709, Note_on_c, 0, 44, 0
4, 35712, Note_on_c, 0, 42, 64
4, 35801, Note_on_c, 0, 42, 0
4, 35808, Note_on_c, 0, 45, 64
4, 35897, Note_on_c, 0, 45, 0
4, 35904, Note_on_c, 0, 47, 64
4, 35993, Note_on_c, 0, 47, 0
4, 36000, Note_on_c, 0, 49, 64
4, 36089, Note_on_c, 0, 49, 0
4, 36096, Note_on_c, 0, 54, 64
4, 36141, Note_on_c, 0, 54, 0
4, 36144, Note_on_c, 0, 57, 64
4, 36189, Note_on_c, 0, 57, 0
4, 36192, Note_on_c, 0, 56, 64
4, 36237, Note_on_c, 0, 56, 0
4, 36240, Note_on_c, 0, 54, 64
4, 36285, Note_on_c, 0, 54, 0
4, 36288, Note_on_c, 0, 59, 64
4, 36333, Note_on_c, 0, 59, 0
4, 36336, Note_on_c, 0, 54, 64
4, 36381, Note_on_c, 0, 54, 0
4, 36384, Note_on_c, 0, 61, 64
4, 36429, Note_on_c, 0, 61, 0
4, 36432, Note_on_c, 0, 54, 64
4, 36477, Note_on_c, 0, 54, 0
4, 36480, Note_on_c, 0, 62, 64
4, 36525, Note_on_c, 0, 62, 0
4, 36528, Note_on_c, 0, 54, 64
4, 36573, Note_on_c, 0, 54, 0
4, 36576, Note_on_c, 0, 61, 64
4, 36621, Note_on_c, 0, 61, 0
4, 36624, Note_on_c, 0, 54, 64
4, 36669, Note_on_c, 0, 54, 0
4, 36672, Note_on_c, 0, 59, 64
4, 36717, Note_on_c, 0, 59, 0
4, 36720, Note_on_c, 0, 54, 64
4, 36765, Note_on_c, 0, 54, 0
4, 36768, Note_on_c, 0, 62, 64
4, 36813, Note_on_c, 0, 62, 0
4, 36816, Note_on_c, 0, 54, 64
4, 36861, Note_on_c, 0, 54, 0
4, 36864, Note_on_c, 0, 61, 64
4, 36909, Note_on_c, 0, 61, 0
4, 36912, Note_on_c, 0, 54, 64
4, 36957, Note_on_c, 0, 54, 0
4, 36960, Note_on_c, 0, 59, 64
4, 37005, Note_on_c, 0, 59, 0
4, 37008, Note_on_c, 0, 54, 64
4, 37053, Note_on_c, 0, 54, 0
4, 37056, Note_on_c, 0, 57, 64
4, 37101, Note_on_c, 0, 57, 0
4, 37104, Note_on_c, 0, 54, 64
4, 37149, Note_on_c, 0, 54, 0
4, 37152, Note_on_c, 0, 61, 64
4, 37197, Note_on_c, 0, 61, 0
4, 37200, Note_on_c, 0, 54, 64
4, 37245, Note_on_c, 0, 54, 0
4, 37248, Note_on_c, 0, 59, 64
4, 37293, Note_on_c, 0, 59, 0
4, 37296, Note_on_c, 0, 56, 64
4, 37341, Note_on_c, 0, 56, 0
4, 37344, Note_on_c, 0, 57, 64
4, 37389, Note_on_c, 0, 57, 0
4, 37392, Note_on_c, 0, 59, 64
4, 37437, Note_on_c, 0, 59, 0
4, 37440, Note_on_c, 0, 53, 64
4, 37485, Note_on_c, 0, 53, 0
4, 37488, Note_on_c, 0, 59, 64
4, 37533, Note_on_c, 0, 59, 0
4, 37536, Note_on_c, 0, 56, 64
4, 37581, Note_on_c, 0, 56, 0
4, 37584, Note_on_c, 0, 59, 64
4, 37629, Note_on_c, 0, 59, 0
4, 37632, Note_on_c, 0, 49, 64
4, 37677, Note_on_c, 0, 49, 0
4, 37680, Note_on_c, 0, 56, 64
4, 37725, Note_on_c, 0, 56, 0
4, 37728, Note_on_c, 0, 53, 64
4, 37773, Note_on_c, 0, 53, 0
4, 37776, Note_on_c, 0, 56, 64
4, 37821, Note_on_c, 0, 56, 0
4, 37824, Note_on_c, 0, 45, 64
4, 37869, Note_on_c, 0, 45, 0
4, 37872, Note_on_c, 0, 53, 64
4, 37917, Note_on_c, 0, 53, 0
4, 37920, Note_on_c, 0, 49, 64
4, 37965, Note_on_c, 0, 49, 0
4, 37968, Note_on_c, 0, 53, 64
4, 38013, Note_on_c, 0, 53, 0
4, 38016, Note_on_c, 0, 42, 64
4, 38105, Note_on_c, 0, 42, 0
4, 38112, Note_on_c, 0, 47, 64
4, 38201, Note_on_c, 0, 47, 0
4, 38208, Note_on_c, 0, 49, 64
4, 38297, Note_on_c, 0, 49, 0
4, 38304, Note_on_c, 0, 37, 64
4, 38393, Note_on_c, 0, 37, 0
4, 38400, Note_on_c, 0, 42, 64
4, 38489, Note_on_c, 0, 42, 0
4, 38496, Note_on_c, 0, 54, 64
4, 38541, Note_on_c, 0, 54, 0
4, 38544, Note_on_c, 0, 55, 64
4, 38589, Note_on_c, 0, 55, 0
4, 38592, Note_on_c, 0, 54, 64
4, 38637, Note_on_c, 0, 54, 0
4, 38640, Note_on_c, 0, 52, 64
4, 38685, Note_on_c, 0, 52, 0
4, 38688, Note_on_c, 0, 50, 64
4, 38733, Note_on_c, 0, 50, 0
4, 38736, Note_on_c, 0, 49, 64
4, 38781, Note_on_c, 0, 49, 0
4, 38784, Note_on_c, 0, 47, 64
4, 38961, Note_on_c, 0, 47, 0
4, 38976, Note_on_c, 0, 59, 64
4, 39153, Note_on_c, 0, 59, 0
4, 39168, Note_on_c, 0, 58, 64
4, 39257, Note_on_c, 0, 58, 0
4, 39264, Note_on_c, 0, 61, 64
4, 39353, Note_on_c, 0, 61, 0
4, 39360, Note_on_c, 0, 58, 64
4, 39449, Note_on_c, 0, 58, 0
4, 39456, Note_on_c, 0, 54, 64
4, 39545, Note_on_c, 0, 54, 0
4, 39552, Note_on_c, 0, 59, 64
4, 39641, Note_on_c, 0, 59, 0
4, 39648, Note_on_c, 0, 50, 64
4, 39737, Note_on_c, 0, 50, 0
4, 39744, Note_on_c, 0, 52, 64
4, 39833, Note_on_c, 0, 52, 0
4, 39840, Note_on_c, 0, 54, 64
4, 39929, Note_on_c, 0, 54, 0
4, 39936, Note_on_c, 0, 47, 64
4, 40025, Note_on_c, 0, 47, 0
4, 40032, Note_on_c, 0, 59, 64
4, 40121, Note_on_c, 0, 59, 0
4, 40128, Note_on_c, 0, 57, 64
4, 40217, Note_on_c, 0, 57, 0
4, 40224, Note_on_c, 0, 56, 64
4, 40313, Note_on_c, 0, 56, 0
4, 40320, Note_on_c, 0, 54, 64
4, 40497, Note_on_c, 0, 54, 0
4, 40512, Note_on_c, 0, 66, 64
4, 40689, Note_on_c, 0, 66, 0
4, 40704, Note_on_c, 0, 65, 64
4, 40793, Note_on_c, 0, 65, 0
4, 40800, Note_on_c, 0, 68, 64
4, 40889, Note_on_c, 0, 68, 0
4, 40896, Note_on_c, 0, 65, 64
4, 40985, Note_on_c, 0, 65, 0
4, 40992, Note_on_c, 0, 61, 64
4, 41081, Note_on_c, 0, 61, 0
4, 41088, Note_on_c, 0, 66, 64
4, 41177, Note_on_c, 0, 66, 0
4, 41184, Note_on_c, 0, 57, 64
4, 41273, Note_on_c, 0, 57, 0
4, 41280, Note_on_c, 0, 59, 64
4, 41369, Note_on_c, 0, 59, 0
4, 41376, Note_on_c, 0, 61, 64
4, 41465, Note_on_c, 0, 61, 0
4, 41472, Note_on_c, 0, 54, 64
4, 41649, Note_on_c, 0, 54, 0
4, 41760, Note_on_c, 0, 59, 64
4, 41849, Note_on_c, 0, 59, 0
4, 41856, Note_on_c, 0, 52, 64
4, 42033, Note_on_c, 0, 52, 0
4, 42144, Note_on_c, 0, 57, 64
4, 42233, Note_on_c, 0, 57, 0
4, 42240, Note_on_c, 0, 50, 64
4, 42329, Note_on_c, 0, 50, 0
4, 42336, Note_on_c, 0, 47, 64
4, 42425, Note_on_c, 0, 47, 0
4, 42432, Note_on_c, 0, 44, 64
4, 42521, Note_on_c, 0, 44, 0
4, 42528, Note_on_c, 0, 47, 64
4, 42617, Note_on_c, 0, 47, 0
4, 42624, Note_on_c, 0, 49, 64
4, 42713, Note_on_c, 0, 49, 0
4, 42720, Note_on_c, 0, 46, 64
4, 42809, Note_on_c, 0, 46, 0
4, 42816, Note_on_c, 0, 42, 64
4, 42905, Note_on_c, 0, 42, 0
4, 42912, Note_on_c, 0, 46, 64
4, 43001, Note_on_c, 0, 46, 0
4, 43008, Note_on_c, 0, 47, 64
4, 43097, Note_on_c, 0, 47, 0
4, 43104, Note_on_c, 0, 55, 64
4, 43149, Note_on_c, 0, 55, 0
4, 43152, Note_on_c, 0, 54, 64
4, 43197, Note_on_c, 0, 54, 0
4, 43200, Note_on_c, 0, 52, 64
4, 43245, Note_on_c, 0, 52, 0
4, 43248, Note_on_c, 0, 54, 64
4, 43293, Note_on_c, 0, 54, 0
4, 43296, Note_on_c, 0, 55, 64
4, 43385, Note_on_c, 0, 55, 0
4, 43392, Note_on_c, 0, 55, 64
4, 43415, Note_on_c, 0, 55, 0
4, 43416, Note_on_c, 0, 57, 64
4, 43439, Note_on_c, 0, 57, 0
4, 43440, Note_on_c, 0, 55, 64
4, 43463, Note_on_c, 0, 55, 0
4, 43464, Note_on_c, 0, 57, 64
4, 43487, Note_on_c, 0, 57, 0
4, 43488, Note_on_c, 0, 54, 64
4, 43577, Note_on_c, 0, 54, 0
4, 43680, Note_on_c, 0, 52, 64
4, 43769, Note_on_c, 0, 52, 0
4, 43776, Note_on_c, 0, 50, 64
4, 43821, Note_on_c, 0, 50, 0
4, 43824, Note_on_c, 0, 52, 64
4, 43869, Note_on_c, 0, 52, 0
4, 43872, Note_on_c, 0, 54, 64
4, 43917, Note_on_c, 0, 54, 0
4, 43920, Note_on_c, 0, 47, 64
4, 43965, Note_on_c, 0, 47, 0
4, 43968, Note_on_c, 0, 50, 64
4, 44057, Note_on_c, 0, 50, 0
4, 44064, Note_on_c, 0, 49, 64
4, 44087, Note_on_c, 0, 49, 0
4, 44088, Note_on_c, 0, 50, 64
4, 44111, Note_on_c, 0, 50, 0
4, 44112, Note_on_c, 0, 49, 64
4, 44135, Note_on_c, 0, 49, 0
4, 44136, Note_on_c, 0, 50, 64
4, 44159, Note_on_c, 0, 50, 0
4, 44160, Note_on_c, 0, 47, 64
4, 44205, Note_on_c, 0, 47, 0
4, 44208, Note_on_c, 0, 50, 64
4, 44253, Note_on_c, 0, 50, 0
4, 44256, Note_on_c, 0, 49, 64
4, 44301, Note_on_c, 0, 49, 0
4, 44304, Note_on_c, 0, 47, 64
4, 44349, Note_on_c, 0, 47, 0
4, 44352, Note_on_c, 0, 54, 64
4, 44397, Note_on_c, 0, 54, 0
4, 44400, Note_on_c, 0, 47, 64
4, 44445, Note_on_c, 0, 47, 0
4, 44448, Note_on_c, 0, 56, 64
4, 44493, Note_on_c, 0, 56, 0
4, 44496, Note_on_c, 0, 47, 64
4, 44541, Note_on_c, 0, 47, 0
4, 44544, Note_on_c, 0, 57, 64
4, 44633, Note_on_c, 0, 57, 0
4, 44640, Note_on_c, 0, 45, 64
4, 44729, Note_on_c, 0, 45, 0
4, 44736, Note_on_c, 0, 43, 64
4, 44825, Note_on_c, 0, 43, 0
4, 44832, Note_on_c, 0, 42, 64
4, 44921, Note_on_c, 0, 42, 0
4, 44928, Note_on_c, 0, 40, 64
4, 45017, Note_on_c, 0, 40, 0
4, 45024, Note_on_c, 0, 47, 64
4, 45113, Note_on_c, 0, 47, 0
4, 45120, Note_on_c, 0, 43, 64
4, 45209, Note_on_c, 0, 43, 0
4, 45216, Note_on_c, 0, 40, 64
4, 45305, Note_on_c, 0, 40, 0
4, 45312, Note_on_c, 0, 47, 64
4, 45401, Note_on_c, 0, 47, 0
4, 45408, Note_on_c, 0, 54, 64
4, 45497, Note_on_c, 0, 54, 0
4, 45504, Note_on_c, 0, 50, 64
4, 45593, Note_on_c, 0, 50, 0
4, 45600, Note_on_c, 0, 47, 64
4, 45689, Note_on_c, 0, 47, 0
4, 45696, Note_on_c, 0, 42, 64
4, 45785, Note_on_c, 0, 42, 0
4, 45792, Note_on_c, 0, 54, 64
4, 45881, Note_on_c, 0, 54, 0
4, 45888, Note_on_c, 0, 51, 64
4, 45977, Note_on_c, 0, 51, 0
4, 45984, Note_on_c, 0, 54, 64
4, 46073, Note_on_c, 0, 54, 0
4, 46080, Note_on_c, 0, 44, 64
4, 46169, Note_on_c, 0, 44, 0
4, 46176, Note_on_c, 0, 53, 64
4, 46265, Note_on_c, 0, 53, 0
4, 46272, Note_on_c, 0, 49, 64
4, 46361, Note_on_c, 0, 49, 0
4, 46368, Note_on_c, 0, 53, 64
4, 46457, Note_on_c, 0, 53, 0
4, 46464, Note_on_c, 0, 42, 64
4, 46553, Note_on_c, 0, 42, 0
4, 46560, Note_on_c, 0, 50, 64
4, 46605, Note_on_c, 0, 50, 0
4, 46608, Note_on_c, 0, 49, 64
4, 46653, Note_on_c, 0, 49, 0
4, 46656, Note_on_c, 0, 47, 64
4, 46701, Note_on_c, 0, 47, 0
4, 46704, Note_on_c, 0, 49, 64
4, 46749, Note_on_c, 0, 49, 0
4, 46752, Note_on_c, 0, 50, 64
4, 46841, Note_on_c, 0, 50, 0
4, 46848, Note_on_c, 0, 50, 64
4, 46871, Note_on_c, 0, 50, 0
4, 46872, Note_on_c, 0, 52, 64
4, 46895, Note_on_c, 0, 52, 0
4, 46896, Note_on_c, 0, 50, 64
4, 46919, Note_on_c, 0, 50, 0
4, 46920, Note_on_c, 0, 52, 64
4, 46943, Note_on_c, 0, 52, 0
4, 46944, Note_on_c, 0, 49, 64
4, 47033, Note_on_c, 0, 49, 0
4, 47136, Note_on_c, 0, 47, 64
4, 47225, Note_on_c, 0, 47, 0
4, 47232, Note_on_c, 0, 45, 64
4, 47277, Note_on_c, 0, 45, 0
4, 47280, Note_on_c, 0, 47, 64
4, 47325, Note_on_c, 0, 47, 0
4, 47328, Note_on_c, 0, 49, 64
4, 47373, Note_on_c, 0, 49, 0
4, 47376, Note_on_c, 0, 42, 64
4, 47421, Note_on_c, 0, 42, 0
4, 47424, Note_on_c, 0, 45, 64
4, 47513, Note_on_c, 0, 45, 0
4, 47520, Note_on_c, 0, 44, 64
4, 47609, Note_on_c, 0, 44, 0
4, 47616, Note_on_c, 0, 42, 64
4, 47661, Note_on_c, 0, 42, 0
4, 47664, Note_on_c, 0, 54, 64
4, 47709, Note_on_c, 0, 54, 0
4, 47712, Note_on_c, 0, 56, 64
4, 47757, Note_on_c, 0, 56, 0
4, 47760, Note_on_c, 0, 57, 64
4, 47805, Note_on_c, 0, 57, 0
4, 47808, Note_on_c, 0, 51, 64
4, 47853, Note_on_c, 0, 51, 0
4, 47856, Note_on_c, 0, 57, 64
4, 47901, Note_on_c, 0, 57, 0
4, 47904, Note_on_c, 0, 47, 64
4, 47949, Note_on_c, 0, 47, 0
4, 47952, Note_on_c, 0, 57, 64
4, 47997, Note_on_c, 0, 57, 0
4, 48000, Note_on_c, 0, 55, 64
4, 48045, Note_on_c, 0, 55, 0
4, 48048, Note_on_c, 0, 52, 64
4, 48093, Note_on_c, 0, 52, 0
4, 48096, Note_on_c, 0, 54, 64
4, 48141, Note_on_c, 0, 54, 0
4, 48144, Note_on_c, 0, 55, 64
4, 48189, Note_on_c, 0, 55, 0
4, 48192, Note_on_c, 0, 49, 64
4, 48237, Note_on_c, 0, 49, 0
4, 48240, Note_on_c, 0, 55, 64
4, 48285, Note_on_c, 0, 55, 0
4, 48288, Note_on_c, 0, 45, 64
4, 48333, Note_on_c, 0, 45, 0
4, 48336, Note_on_c, 0, 55, 64
4, 48381, Note_on_c, 0, 55, 0
4, 48384, Note_on_c, 0, 54, 64
4, 48473, Note_on_c, 0, 54, 0
4, 48480, Note_on_c, 0, 59, 64
4, 48569, Note_on_c, 0, 59, 0
4, 48576, Note_on_c, 0, 56, 64
4, 48665, Note_on_c, 0, 56, 0
4, 48672, Note_on_c, 0, 59, 64
4, 48761, Note_on_c, 0, 59, 0
4, 48768, Note_on_c, 0, 61, 64
4, 48857, Note_on_c, 0, 61, 0
4, 48864, Note_on_c, 0, 58, 64
4, 48953, Note_on_c, 0, 58, 0
4, 48960, Note_on_c, 0, 54, 64
4, 49049, Note_on_c, 0, 54, 0
4, 49056, Note_on_c, 0, 58, 64
4, 49145, Note_on_c, 0, 58, 0
4, 49152, Note_on_c, 0, 59, 64
4, 49197, Note_on_c, 0, 59, 0
4, 49200, Note_on_c, 0, 61, 64
4, 49245, Note_on_c, 0, 61, 0
4, 49248, Note_on_c, 0, 64, 64
4, 49293, Note_on_c, 0, 64, 0
4, 49296, Note_on_c, 0, 62, 64
4, 49341, Note_on_c, 0, 62, 0
4, 49344, Note_on_c, 0, 61, 64
4, 49389, Note_on_c, 0, 61, 0
4, 49392, Note_on_c, 0, 59, 64
4, 49437, Note_on_c, 0, 59, 0
4, 49440, Note_on_c, 0, 58, 64
4, 49485, Note_on_c, 0, 58, 0
4, 49488, Note_on_c, 0, 59, 64
4, 49533, Note_on_c, 0, 59, 0
4, 49536, Note_on_c, 0, 61, 64
4, 49581, Note_on_c, 0, 61, 0
4, 49584, Note_on_c, 0, 59, 64
4, 49629, Note_on_c, 0, 59, 0
4, 49632, Note_on_c, 0, 58, 64
4, 49677, Note_on_c, 0, 58, 0
4, 49680, Note_on_c, 0, 56, 64
4, 49725, Note_on_c, 0, 56, 0
4, 49728, Note_on_c, 0, 54, 64
4, 49773, Note_on_c, 0, 54, 0
4, 49776, Note_on_c, 0, 52, 64
4, 49821, Note_on_c, 0, 52, 0
4, 49824, Note_on_c, 0, 50, 64
4, 49869, Note_on_c, 0, 50, 0
4, 49872, Note_on_c, 0, 49, 64
4, 49917, Note_on_c, 0, 49, 0
4, 49920, Note_on_c, 0, 47, 64
4, 50009, Note_on_c, 0, 47, 0
4, 50016, Note_on_c, 0, 50, 64
4, 50105, Note_on_c, 0, 50, 0
4, 50112, Note_on_c, 0, 52, 64
4, 50201, Note_on_c, 0, 52, 0
4, 50208, Note_on_c, 0, 54, 64
4, 50297, Note_on_c, 0, 54, 0
4, 50304, Note_on_c, 0, 55, 64
4, 50393, Note_on_c, 0, 55, 0
4, 50400, Note_on_c, 0, 57, 64
4, 50489, Note_on_c, 0, 57, 0
4, 50496, Note_on_c, 0, 55, 64
4, 50585, Note_on_c, 0, 55, 0
4, 50592, Note_on_c, 0, 54, 64
4, 50681, Note_on_c, 0, 54, 0
4, 50688, Note_on_c, 0, 52, 64
4, 50777, Note_on_c, 0, 52, 0
4, 50784, Note_on_c, 0, 50, 64
4, 50873, Note_on_c, 0, 50, 0
4, 50880, Note_on_c, 0, 49, 64
4, 50969, Note_on_c, 0, 49, 0
4, 50976, Note_on_c, 0, 52, 64
4, 51065, Note_on_c, 0, 52, 0
4, 51072, Note_on_c, 0, 50, 64
4, 51161, Note_on_c, 0, 50, 0
4, 51168, Note_on_c, 0, 49, 64
4, 51257, Note_on_c, 0, 49, 0
4, 51264, Note_on_c, 0, 47, 64
4, 51353, Note_on_c, 0, 47, 0
4, 51360, Note_on_c, 0, 50, 64
4, 51449, Note_on_c, 0, 50, 0
4, 51456, Note_on_c, 0, 49, 64
4, 51545, Note_on_c, 0, 49, 0
4, 51552, Note_on_c, 0, 50, 64
4, 51641, Note_on_c, 0, 50, 0
4, 51648, Note_on_c, 0, 49, 64
4, 51737, Note_on_c, 0, 49, 0
4, 51744, Note_on_c, 0, 47, 64
4, 51833, Note_on_c, 0, 47, 0
4, 51840, Note_on_c, 0, 46, 64
4, 51929, Note_on_c, 0, 46, 0
4, 51936, Note_on_c, 0, 58, 64
4, 52025, Note_on_c, 0, 58, 0
4, 52032, Note_on_c, 0, 54, 64
4, 52121, Note_on_c, 0, 54, 0
4, 52128, Note_on_c, 0, 58, 64
4, 52217, Note_on_c, 0, 58, 0
4, 52224, Note_on_c, 0, 59, 64
4, 52269, Note_on_c, 0, 59, 0
4, 52272, Note_on_c, 0, 61, 64
4, 52317, Note_on_c, 0, 61, 0
4, 52320, Note_on_c, 0, 59, 64
4, 52365, Note_on_c, 0, 59, 0
4, 52368, Note_on_c, 0, 57, 64
4, 52413, Note_on_c, 0, 57, 0
4, 52416, Note_on_c, 0, 55, 64
4, 52461, Note_on_c, 0, 55, 0
4, 52464, Note_on_c, 0, 59, 64
4, 52509, Note_on_c, 0, 59, 0
4, 52512, Note_on_c, 0, 54, 64
4, 52557, Note_on_c, 0, 54, 0
4, 52560, Note_on_c, 0, 59, 64
4, 52605, Note_on_c, 0, 59, 0
4, 52608, Note_on_c, 0, 52, 64
4, 52653, Note_on_c, 0, 52, 0
4, 52656, Note_on_c, 0, 54, 64
4, 52701, Note_on_c, 0, 54, 0
4, 52704, Note_on_c, 0, 52, 64
4, 52749, Note_on_c, 0, 52, 0
4, 52752, Note_on_c, 0, 50, 64
4, 52797, Note_on_c, 0, 50, 0
4, 52800, Note_on_c, 0, 49, 64
4, 52845, Note_on_c, 0, 49, 0
4, 52848, Note_on_c, 0, 52, 64
4, 52893, Note_on_c, 0, 52, 0
4, 52896, Note_on_c, 0, 47, 64
4, 52941, Note_on_c, 0, 47, 0
4, 52944, Note_on_c, 0, 52, 64
4, 52989, Note_on_c, 0, 52, 0
4, 52992, Note_on_c, 0, 46, 64
4, 53081, Note_on_c, 0, 46, 0
4, 53088, Note_on_c, 0, 42, 64
4, 53177, Note_on_c, 0, 42, 0
4, 53184, Note_on_c, 0, 47, 64
4, 53273, Note_on_c, 0, 47, 0
4, 53280, Note_on_c, 0, 43, 64
4, 53369, Note_on_c, 0, 43, 0
4, 53376, Note_on_c, 0, 38, 64
4, 53465, Note_on_c, 0, 38, 0
4, 53472, Note_on_c, 0, 40, 64
4, 53561, Note_on_c, 0, 40, 0
4, 53568, Note_on_c, 0, 42, 64
4, 53745, Note_on_c, 0, 42, 0
4, 53760, Note_on_c, 0, 47, 64
4, 53937, Note_on_c, 0, 47, 0
4, 53937, End_track
5, 0, Start_track
5, 0, MIDI_port, 0
5, 0, Title_t, "Sonata No. 1 en B menor"
5, 0, End_track
6, 0, Start_track
6, 0, MIDI_port, 0
6, 0, Title_t, "para violin y clavicembalo"
6, 0, End_track
7, 0, Start_track
7, 0, MIDI_port, 0
7, 0, Title_t, "Segundo Movimiento: Allegro"
7, 0, End_track
8, 0, Start_track
8, 0, MIDI_port, 0
8, 0, Title_t, "J. S. Bach (1685-1750)"
8, 0, End_track
9, 0, Start_track
9, 0, MIDI_port, 0
9, 0, Title_t, "Copyright Luis Gerardo Barajas"
9, 0, End_track
10, 0, Start_track
10, 0, MIDI_port, 0
10, 0, Title_t, "*** Bach keeps RuLiNg!!!"
10, 0, End_track
0, 0, End_of_file
