0, 0, Header, 1, 10, 96
1, 0, Start_track
1, 0, Sequencer_specific, 3, 0, 0, 65
1, 0, Time_signature, 3, 2, 24, 8
1, 0, Key_signature, -3, "major"
1, 0, Tempo, 1000000
1, 16462, Tempo, 952381
1, 16494, Tempo, 967742
1, 16526, Tempo, 983607
1, 16558, Tempo, 1000000
1, 16590, Tempo, 1016949
1, 16622, Tempo, 1034483
1, 16654, Tempo, 1052632
1, 16686, Tempo, 1071429
1, 16718, Tempo, 1090909
1, 16750, Tempo, 1111111
1, 16782, Tempo, 1132075
1, 16806, Tempo, 1153846
1, 16838, Tempo, 1176471
1, 16870, Tempo, 1200000
1, 16902, Tempo, 1224490
1, 16934, Tempo, 1250000
1, 16966, Tempo, 1276596
1, 16998, Tempo, 1304348
1, 17030, Tempo, 1333333
1, 17062, Tempo, 1363636
1, 17094, Tempo, 1395349
1, 17126, Tempo, 1428571
1, 17150, Tempo, 458015
1, 17150, End_track
2, 0, Start_track
2, 0, MIDI_port, 0
2, 0, Title_t, "Violin"
2, 0, Program_c, 1, 40
2, 0, Control_c, 1, 7, 127
2, 96, Note_on_c, 1, 58, 64
2, 185, Note_on_c, 1, 58, 0
2, 192, Note_on_c, 1, 63, 64
2, 360, Note_on_c, 1, 63, 0
2, 360, Note_on_c, 1, 60, 64
2, 383, Note_on_c, 1, 60, 0
2, 384, Note_on_c, 1, 62, 64
2, 456, Note_on_c, 1, 62, 0
2, 456, Note_on_c, 1, 65, 64
2, 479, Note_on_c, 1, 65, 0
2, 480, Note_on_c, 1, 68, 64
2, 648, Note_on_c, 1, 68, 0
2, 648, Note_on_c, 1, 65, 64
2, 671, Note_on_c, 1, 65, 0
2, 672, Note_on_c, 1, 67, 64
2, 744, Note_on_c, 1, 67, 0
2, 744, Note_on_c, 1, 70, 64
2, 767, Note_on_c, 1, 70, 0
2, 768, Note_on_c, 1, 72, 64
2, 857, Note_on_c, 1, 72, 0
2, 864, Note_on_c, 1, 62, 64
2, 872, Note_on_c, 1, 62, 0
2, 872, Note_on_c, 1, 63, 64
2, 880, Note_on_c, 1, 63, 0
2, 880, Note_on_c, 1, 62, 64
2, 888, Note_on_c, 1, 62, 0
2, 888, Note_on_c, 1, 63, 64
2, 896, Note_on_c, 1, 63, 0
2, 896, Note_on_c, 1, 62, 64
2, 904, Note_on_c, 1, 62, 0
2, 904, Note_on_c, 1, 63, 64
2, 912, Note_on_c, 1, 63, 0
2, 912, Note_on_c, 1, 62, 64
2, 920, Note_on_c, 1, 62, 0
2, 920, Note_on_c, 1, 63, 64
2, 928, Note_on_c, 1, 63, 0
2, 928, Note_on_c, 1, 62, 64
2, 936, Note_on_c, 1, 62, 0
2, 936, Note_on_c, 1, 63, 64
2, 944, Note_on_c, 1, 63, 0
2, 944, Note_on_c, 1, 62, 64
2, 952, Note_on_c, 1, 62, 0
2, 952, Note_on_c, 1, 63, 64
2, 960, Note_on_c, 1, 63, 0
2, 960, Note_on_c, 1, 58, 64
2, 1049, Note_on_c, 1, 58, 0
2, 1248, Note_on_c, 1, 58, 64
2, 1337, Note_on_c, 1, 58, 0
2, 1344, Note_on_c, 1, 63, 64
2, 1512, Note_on_c, 1, 63, 0
2, 1512, Note_on_c, 1, 60, 64
2, 1535, Note_on_c, 1, 60, 0
2, 1536, Note_on_c, 1, 62, 64
2, 1608, Note_on_c, 1, 62, 0
2, 1608, Note_on_c, 1, 65, 64
2, 1631, Note_on_c, 1, 65, 0
2, 1632, Note_on_c, 1, 68, 64
2, 1800, Note_on_c, 1, 68, 0
2, 1800, Note_on_c, 1, 65, 64
2, 1823, Note_on_c, 1, 65, 0
2, 1824, Note_on_c, 1, 67, 64
2, 1896, Note_on_c, 1, 67, 0
2, 1896, Note_on_c, 1, 70, 64
2, 1919, Note_on_c, 1, 70, 0
2, 1920, Note_on_c, 1, 72, 64
2, 2009, Note_on_c, 1, 72, 0
2, 2016, Note_on_c, 1, 62, 64
2, 2024, Note_on_c, 1, 62, 0
2, 2024, Note_on_c, 1, 63, 64
2, 2032, Note_on_c, 1, 63, 0
2, 2032, Note_on_c, 1, 62, 64
2, 2040, Note_on_c, 1, 62, 0
2, 2040, Note_on_c, 1, 63, 64
2, 2048, Note_on_c, 1, 63, 0
2, 2048, Note_on_c, 1, 62, 64
2, 2056, Note_on_c, 1, 62, 0
2, 2056, Note_on_c, 1, 63, 64
2, 2064, Note_on_c, 1, 63, 0
2, 2064, Note_on_c, 1, 62, 64
2, 2072, Note_on_c, 1, 62, 0
2, 2072, Note_on_c, 1, 63, 64
2, 2080, Note_on_c, 1, 63, 0
2, 2080, Note_on_c, 1, 62, 64
2, 2088, Note_on_c, 1, 62, 0
2, 2088, Note_on_c, 1, 63, 64
2, 2096, Note_on_c, 1, 63, 0
2, 2096, Note_on_c, 1, 62, 64
2, 2104, Note_on_c, 1, 62, 0
2, 2104, Note_on_c, 1, 63, 64
2, 2112, Note_on_c, 1, 63, 0
2, 2112, Note_on_c, 1, 58, 64
2, 2201, Note_on_c, 1, 58, 0
2, 2400, Note_on_c, 1, 63, 64
2, 2489, Note_on_c, 1, 63, 0
2, 2496, Note_on_c, 1, 73, 64
2, 2664, Note_on_c, 1, 73, 0
2, 2664, Note_on_c, 1, 70, 64
2, 2687, Note_on_c, 1, 70, 0
2, 2688, Note_on_c, 1, 72, 64
2, 2760, Note_on_c, 1, 72, 0
2, 2760, Note_on_c, 1, 62, 64
2, 2783, Note_on_c, 1, 62, 0
2, 2784, Note_on_c, 1, 63, 64
2, 2873, Note_on_c, 1, 63, 0
2, 2880, Note_on_c, 1, 63, 64
2, 2925, Note_on_c, 1, 63, 0
2, 2928, Note_on_c, 1, 68, 64
2, 2973, Note_on_c, 1, 68, 0
2, 2976, Note_on_c, 1, 65, 64
2, 3120, Note_on_c, 1, 65, 0
2, 3120, Note_on_c, 1, 63, 64
2, 3165, Note_on_c, 1, 63, 0
2, 3168, Note_on_c, 1, 63, 64
2, 3345, Note_on_c, 1, 63, 0
2, 3552, Note_on_c, 1, 70, 64
2, 3641, Note_on_c, 1, 70, 0
2, 3648, Note_on_c, 1, 61, 64
2, 3816, Note_on_c, 1, 61, 0
2, 3816, Note_on_c, 1, 60, 64
2, 3839, Note_on_c, 1, 60, 0
2, 3840, Note_on_c, 1, 65, 64
2, 3912, Note_on_c, 1, 65, 0
2, 3912, Note_on_c, 1, 62, 64
2, 3935, Note_on_c, 1, 62, 0
2, 3936, Note_on_c, 1, 63, 64
2, 4077, Note_on_c, 1, 63, 0
2, 4080, Note_on_c, 1, 60, 64
2, 4125, Note_on_c, 1, 60, 0
2, 4128, Note_on_c, 1, 56, 64
2, 4261, Note_on_c, 1, 56, 0
2, 4272, Note_on_c, 1, 55, 64
2, 4317, Note_on_c, 1, 55, 0
2, 4320, Note_on_c, 1, 55, 64
2, 4497, Note_on_c, 1, 55, 0
2, 4704, Note_on_c, 1, 67, 64
2, 4793, Note_on_c, 1, 67, 0
2, 4800, Note_on_c, 1, 75, 64
2, 4968, Note_on_c, 1, 75, 0
2, 4968, Note_on_c, 1, 72, 64
2, 4991, Note_on_c, 1, 72, 0
2, 4992, Note_on_c, 1, 74, 64
2, 5064, Note_on_c, 1, 74, 0
2, 5064, Note_on_c, 1, 71, 64
2, 5087, Note_on_c, 1, 71, 0
2, 5088, Note_on_c, 1, 65, 64
2, 5256, Note_on_c, 1, 65, 0
2, 5256, Note_on_c, 1, 63, 64
2, 5279, Note_on_c, 1, 63, 0
2, 5280, Note_on_c, 1, 66, 64
2, 5352, Note_on_c, 1, 66, 0
2, 5352, Note_on_c, 1, 69, 64
2, 5375, Note_on_c, 1, 69, 0
2, 5376, Note_on_c, 1, 72, 64
2, 5544, Note_on_c, 1, 72, 0
2, 5544, Note_on_c, 1, 69, 64
2, 5567, Note_on_c, 1, 69, 0
2, 5568, Note_on_c, 1, 71, 64
2, 5657, Note_on_c, 1, 71, 0
2, 5856, Note_on_c, 1, 75, 64
2, 5945, Note_on_c, 1, 75, 0
2, 5952, Note_on_c, 1, 67, 64
2, 6120, Note_on_c, 1, 67, 0
2, 6120, Note_on_c, 1, 63, 64
2, 6143, Note_on_c, 1, 63, 0
2, 6144, Note_on_c, 1, 65, 64
2, 6216, Note_on_c, 1, 65, 0
2, 6216, Note_on_c, 1, 71, 64
2, 6239, Note_on_c, 1, 71, 0
2, 6240, Note_on_c, 1, 74, 64
2, 6329, Note_on_c, 1, 74, 0
2, 6336, Note_on_c, 1, 74, 64
2, 6403, Note_on_c, 1, 74, 0
2, 6408, Note_on_c, 1, 71, 64
2, 6431, Note_on_c, 1, 71, 0
2, 6432, Note_on_c, 1, 72, 64
2, 6499, Note_on_c, 1, 72, 0
2, 6504, Note_on_c, 1, 68, 64
2, 6527, Note_on_c, 1, 68, 0
2, 6528, Note_on_c, 1, 66, 64
2, 6595, Note_on_c, 1, 66, 0
2, 6600, Note_on_c, 1, 67, 64
2, 6623, Note_on_c, 1, 67, 0
2, 6624, Note_on_c, 1, 60, 64
2, 6691, Note_on_c, 1, 60, 0
2, 6696, Note_on_c, 1, 57, 64
2, 6719, Note_on_c, 1, 57, 0
2, 6720, Note_on_c, 1, 59, 64
2, 6809, Note_on_c, 1, 59, 0
2, 7008, Note_on_c, 1, 67, 64
2, 7080, Note_on_c, 1, 67, 0
2, 7080, Note_on_c, 1, 68, 64
2, 7103, Note_on_c, 1, 68, 0
2, 7104, Note_on_c, 1, 70, 64
2, 7272, Note_on_c, 1, 70, 0
2, 7272, Note_on_c, 1, 72, 64
2, 7295, Note_on_c, 1, 72, 0
2, 7296, Note_on_c, 1, 73, 64
2, 7368, Note_on_c, 1, 73, 0
2, 7368, Note_on_c, 1, 70, 64
2, 7391, Note_on_c, 1, 70, 0
2, 7392, Note_on_c, 1, 72, 64
2, 7560, Note_on_c, 1, 72, 0
2, 7560, Note_on_c, 1, 77, 64
2, 7583, Note_on_c, 1, 77, 0
2, 7584, Note_on_c, 1, 73, 64
2, 7656, Note_on_c, 1, 73, 0
2, 7656, Note_on_c, 1, 72, 64
2, 7679, Note_on_c, 1, 72, 0
2, 7680, Note_on_c, 1, 70, 64
2, 7752, Note_on_c, 1, 70, 0
2, 7752, Note_on_c, 1, 68, 64
2, 7775, Note_on_c, 1, 68, 0
2, 7776, Note_on_c, 1, 67, 64
2, 7784, Note_on_c, 1, 67, 0
2, 7784, Note_on_c, 1, 65, 64
2, 7955, Note_on_c, 1, 65, 0
2, 8160, Note_on_c, 1, 68, 64
2, 8227, Note_on_c, 1, 68, 0
2, 8232, Note_on_c, 1, 65, 64
2, 8255, Note_on_c, 1, 65, 0
2, 8256, Note_on_c, 1, 61, 64
2, 8424, Note_on_c, 1, 61, 0
2, 8424, Note_on_c, 1, 59, 64
2, 8447, Note_on_c, 1, 59, 0
2, 8448, Note_on_c, 1, 60, 64
2, 8520, Note_on_c, 1, 60, 0
2, 8520, Note_on_c, 1, 64, 64
2, 8543, Note_on_c, 1, 64, 0
2, 8544, Note_on_c, 1, 65, 64
2, 8712, Note_on_c, 1, 65, 0
2, 8712, Note_on_c, 1, 70, 64
2, 8735, Note_on_c, 1, 70, 0
2, 8736, Note_on_c, 1, 67, 64
2, 8869, Note_on_c, 1, 67, 0
2, 8880, Note_on_c, 1, 65, 64
2, 8925, Note_on_c, 1, 65, 0
2, 8928, Note_on_c, 1, 65, 64
2, 9105, Note_on_c, 1, 65, 0
2, 9312, Note_on_c, 1, 68, 64
2, 9384, Note_on_c, 1, 68, 0
2, 9384, Note_on_c, 1, 70, 64
2, 9407, Note_on_c, 1, 70, 0
2, 9408, Note_on_c, 1, 72, 64
2, 9593, Note_on_c, 1, 72, 0
2, 9600, Note_on_c, 1, 70, 64
2, 9672, Note_on_c, 1, 70, 0
2, 9672, Note_on_c, 1, 67, 64
2, 9695, Note_on_c, 1, 67, 0
2, 9696, Note_on_c, 1, 68, 64
2, 9864, Note_on_c, 1, 68, 0
2, 9864, Note_on_c, 1, 65, 64
2, 9887, Note_on_c, 1, 65, 0
2, 9888, Note_on_c, 1, 67, 64
2, 9960, Note_on_c, 1, 67, 0
2, 9960, Note_on_c, 1, 72, 64
2, 9983, Note_on_c, 1, 72, 0
2, 9984, Note_on_c, 1, 69, 64
2, 10152, Note_on_c, 1, 69, 0
2, 10152, Note_on_c, 1, 70, 64
2, 10175, Note_on_c, 1, 70, 0
2, 10176, Note_on_c, 1, 63, 64
2, 10182, Note_on_c, 1, 63, 0
2, 10182, Note_on_c, 1, 62, 64
2, 10269, Note_on_c, 1, 62, 0
2, 10464, Note_on_c, 1, 63, 64
2, 10536, Note_on_c, 1, 63, 0
2, 10536, Note_on_c, 1, 65, 64
2, 10559, Note_on_c, 1, 65, 0
2, 10560, Note_on_c, 1, 67, 64
2, 10728, Note_on_c, 1, 67, 0
2, 10728, Note_on_c, 1, 63, 64
2, 10751, Note_on_c, 1, 63, 0
2, 10752, Note_on_c, 1, 65, 64
2, 10824, Note_on_c, 1, 65, 0
2, 10824, Note_on_c, 1, 62, 64
2, 10847, Note_on_c, 1, 62, 0
2, 10848, Note_on_c, 1, 58, 64
2, 11016, Note_on_c, 1, 58, 0
2, 11016, Note_on_c, 1, 55, 64
2, 11039, Note_on_c, 1, 55, 0
2, 11040, Note_on_c, 1, 57, 64
2, 11112, Note_on_c, 1, 57, 0
2, 11112, Note_on_c, 1, 60, 64
2, 11135, Note_on_c, 1, 60, 0
2, 11136, Note_on_c, 1, 63, 64
2, 11304, Note_on_c, 1, 63, 0
2, 11304, Note_on_c, 1, 60, 64
2, 11327, Note_on_c, 1, 60, 0
2, 11328, Note_on_c, 1, 62, 64
2, 11417, Note_on_c, 1, 62, 0
2, 11616, Note_on_c, 1, 70, 64
2, 11688, Note_on_c, 1, 70, 0
2, 11688, Note_on_c, 1, 72, 64
2, 11711, Note_on_c, 1, 72, 0
2, 11712, Note_on_c, 1, 73, 64
2, 11880, Note_on_c, 1, 73, 0
2, 11880, Note_on_c, 1, 70, 64
2, 11903, Note_on_c, 1, 70, 0
2, 11904, Note_on_c, 1, 72, 64
2, 11976, Note_on_c, 1, 72, 0
2, 11976, Note_on_c, 1, 68, 64
2, 11999, Note_on_c, 1, 68, 0
2, 12000, Note_on_c, 1, 67, 64
2, 12008, Note_on_c, 1, 67, 0
2, 12008, Note_on_c, 1, 65, 64
2, 12091, Note_on_c, 1, 65, 0
2, 12096, Note_on_c, 1, 65, 64
2, 12163, Note_on_c, 1, 65, 0
2, 12168, Note_on_c, 1, 62, 64
2, 12191, Note_on_c, 1, 62, 0
2, 12192, Note_on_c, 1, 63, 64
2, 12259, Note_on_c, 1, 63, 0
2, 12264, Note_on_c, 1, 67, 64
2, 12287, Note_on_c, 1, 67, 0
2, 12288, Note_on_c, 1, 68, 64
2, 12377, Note_on_c, 1, 68, 0
2, 12384, Note_on_c, 1, 68, 64
2, 12451, Note_on_c, 1, 68, 0
2, 12456, Note_on_c, 1, 65, 64
2, 12479, Note_on_c, 1, 65, 0
2, 12480, Note_on_c, 1, 67, 64
2, 12547, Note_on_c, 1, 67, 0
2, 12552, Note_on_c, 1, 61, 64
2, 12575, Note_on_c, 1, 61, 0
2, 12576, Note_on_c, 1, 58, 64
2, 12665, Note_on_c, 1, 58, 0
2, 12672, Note_on_c, 1, 58, 64
2, 12739, Note_on_c, 1, 58, 0
2, 12744, Note_on_c, 1, 55, 64
2, 12767, Note_on_c, 1, 55, 0
2, 12768, Note_on_c, 1, 56, 64
2, 12835, Note_on_c, 1, 56, 0
2, 12840, Note_on_c, 1, 60, 64
2, 12863, Note_on_c, 1, 60, 0
2, 12864, Note_on_c, 1, 61, 64
2, 12953, Note_on_c, 1, 61, 0
2, 12960, Note_on_c, 1, 62, 64
2, 13027, Note_on_c, 1, 62, 0
2, 13032, Note_on_c, 1, 58, 64
2, 13055, Note_on_c, 1, 58, 0
2, 13056, Note_on_c, 1, 60, 64
2, 13123, Note_on_c, 1, 60, 0
2, 13128, Note_on_c, 1, 63, 64
2, 13151, Note_on_c, 1, 63, 0
2, 13152, Note_on_c, 1, 66, 64
2, 13241, Note_on_c, 1, 66, 0
2, 13248, Note_on_c, 1, 66, 64
2, 13315, Note_on_c, 1, 66, 0
2, 13320, Note_on_c, 1, 65, 64
2, 13343, Note_on_c, 1, 65, 0
2, 13344, Note_on_c, 1, 62, 64
2, 13477, Note_on_c, 1, 62, 0
2, 13488, Note_on_c, 1, 63, 64
2, 13533, Note_on_c, 1, 63, 0
2, 13536, Note_on_c, 1, 63, 64
2, 13713, Note_on_c, 1, 63, 0
2, 13920, Note_on_c, 1, 70, 64
2, 14009, Note_on_c, 1, 70, 0
2, 14016, Note_on_c, 1, 61, 64
2, 14184, Note_on_c, 1, 61, 0
2, 14184, Note_on_c, 1, 58, 64
2, 14207, Note_on_c, 1, 58, 0
2, 14208, Note_on_c, 1, 60, 64
2, 14280, Note_on_c, 1, 60, 0
2, 14280, Note_on_c, 1, 63, 64
2, 14303, Note_on_c, 1, 63, 0
2, 14304, Note_on_c, 1, 68, 64
2, 14472, Note_on_c, 1, 68, 0
2, 14472, Note_on_c, 1, 67, 64
2, 14495, Note_on_c, 1, 67, 0
2, 14496, Note_on_c, 1, 74, 64
2, 14585, Note_on_c, 1, 74, 0
2, 14592, Note_on_c, 1, 65, 64
2, 14760, Note_on_c, 1, 65, 0
2, 14760, Note_on_c, 1, 62, 64
2, 14783, Note_on_c, 1, 62, 0
2, 14784, Note_on_c, 1, 63, 64
2, 14856, Note_on_c, 1, 63, 0
2, 14856, Note_on_c, 1, 67, 64
2, 14879, Note_on_c, 1, 67, 0
2, 14880, Note_on_c, 1, 70, 64
2, 14892, Note_on_c, 1, 70, 0
2, 14892, Note_on_c, 1, 72, 64
2, 14904, Note_on_c, 1, 72, 0
2, 14904, Note_on_c, 1, 73, 64
2, 15043, Note_on_c, 1, 73, 0
2, 15048, Note_on_c, 1, 72, 64
2, 15071, Note_on_c, 1, 72, 0
2, 15072, Note_on_c, 1, 77, 64
2, 15161, Note_on_c, 1, 77, 0
2, 15168, Note_on_c, 1, 68, 64
2, 15257, Note_on_c, 1, 68, 0
2, 15264, Note_on_c, 1, 68, 64
2, 15336, Note_on_c, 1, 68, 0
2, 15336, Note_on_c, 1, 65, 64
2, 15359, Note_on_c, 1, 65, 0
2, 15360, Note_on_c, 1, 67, 64
2, 15432, Note_on_c, 1, 67, 0
2, 15432, Note_on_c, 1, 72, 64
2, 15455, Note_on_c, 1, 72, 0
2, 15456, Note_on_c, 1, 69, 64
2, 15528, Note_on_c, 1, 69, 0
2, 15528, Note_on_c, 1, 70, 64
2, 15551, Note_on_c, 1, 70, 0
2, 15552, Note_on_c, 1, 62, 64
2, 15624, Note_on_c, 1, 62, 0
2, 15624, Note_on_c, 1, 63, 64
2, 15647, Note_on_c, 1, 63, 0
2, 15648, Note_on_c, 1, 58, 64
2, 15744, Note_on_c, 1, 58, 0
2, 15744, Note_on_c, 1, 56, 64
2, 15767, Note_on_c, 1, 56, 0
2, 15768, Note_on_c, 1, 55, 64
2, 15791, Note_on_c, 1, 55, 0
2, 15792, Note_on_c, 1, 56, 64
2, 15837, Note_on_c, 1, 56, 0
2, 15840, Note_on_c, 1, 55, 64
2, 15929, Note_on_c, 1, 55, 0
2, 16176, Note_on_c, 1, 79, 64
2, 16199, Note_on_c, 1, 79, 0
2, 16200, Note_on_c, 1, 77, 64
2, 16223, Note_on_c, 1, 77, 0
2, 16224, Note_on_c, 1, 75, 64
2, 16247, Note_on_c, 1, 75, 0
2, 16248, Note_on_c, 1, 74, 64
2, 16271, Note_on_c, 1, 74, 0
2, 16272, Note_on_c, 1, 72, 64
2, 16295, Note_on_c, 1, 72, 0
2, 16296, Note_on_c, 1, 75, 64
2, 16319, Note_on_c, 1, 75, 0
2, 16320, Note_on_c, 1, 68, 64
2, 16439, Note_on_c, 1, 68, 0
2, 16440, Note_on_c, 1, 72, 64
2, 16463, Note_on_c, 1, 72, 0
2, 16464, Note_on_c, 1, 75, 64
2, 16487, Note_on_c, 1, 75, 0
2, 16488, Note_on_c, 1, 74, 64
2, 16511, Note_on_c, 1, 74, 0
2, 16512, Note_on_c, 1, 72, 64
2, 16535, Note_on_c, 1, 72, 0
2, 16536, Note_on_c, 1, 70, 64
2, 16559, Note_on_c, 1, 70, 0
2, 16560, Note_on_c, 1, 68, 64
2, 16583, Note_on_c, 1, 68, 0
2, 16584, Note_on_c, 1, 72, 64
2, 16607, Note_on_c, 1, 72, 0
2, 16608, Note_on_c, 1, 66, 64
2, 16727, Note_on_c, 1, 66, 0
2, 16728, Note_on_c, 1, 69, 64
2, 16751, Note_on_c, 1, 69, 0
2, 16752, Note_on_c, 1, 72, 64
2, 16775, Note_on_c, 1, 72, 0
2, 16776, Note_on_c, 1, 70, 64
2, 16799, Note_on_c, 1, 70, 0
2, 16800, Note_on_c, 1, 69, 64
2, 16823, Note_on_c, 1, 69, 0
2, 16824, Note_on_c, 1, 67, 64
2, 16847, Note_on_c, 1, 67, 0
2, 16848, Note_on_c, 1, 66, 64
2, 16871, Note_on_c, 1, 66, 0
2, 16872, Note_on_c, 1, 69, 64
2, 16895, Note_on_c, 1, 69, 0
2, 16896, Note_on_c, 1, 60, 64
2, 17081, Note_on_c, 1, 60, 0
2, 17088, Note_on_c, 1, 59, 64
2, 17265, Note_on_c, 1, 59, 0
2, 17265, End_track
3, 0, Start_track
3, 0, MIDI_port, 0
3, 0, Title_t, "Clavier (RH)"
3, 0, Program_c, 0, 6
3, 0, Control_c, 0, 7, 127
3, 0, Note_on_c, 0, 63, 64
3, 30, Note_on_c, 0, 63, 0
3, 32, Note_on_c, 0, 58, 64
3, 62, Note_on_c, 0, 58, 0
3, 64, Note_on_c, 0, 67, 64
3, 94, Note_on_c, 0, 67, 0
3, 96, Note_on_c, 0, 63, 64
3, 126, Note_on_c, 0, 63, 0
3, 128, Note_on_c, 0, 58, 64
3, 158, Note_on_c, 0, 58, 0
3, 160, Note_on_c, 0, 67, 64
3, 190, Note_on_c, 0, 67, 0
3, 192, Note_on_c, 0, 63, 64
3, 222, Note_on_c, 0, 63, 0
3, 224, Note_on_c, 0, 58, 64
3, 254, Note_on_c, 0, 58, 0
3, 256, Note_on_c, 0, 67, 64
3, 286, Note_on_c, 0, 67, 0
3, 288, Note_on_c, 0, 65, 64
3, 318, Note_on_c, 0, 65, 0
3, 320, Note_on_c, 0, 58, 64
3, 350, Note_on_c, 0, 58, 0
3, 352, Note_on_c, 0, 68, 64
3, 382, Note_on_c, 0, 68, 0
3, 384, Note_on_c, 0, 65, 64
3, 414, Note_on_c, 0, 65, 0
3, 416, Note_on_c, 0, 62, 64
3, 446, Note_on_c, 0, 62, 0
3, 448, Note_on_c, 0, 70, 64
3, 478, Note_on_c, 0, 70, 0
3, 480, Note_on_c, 0, 65, 64
3, 510, Note_on_c, 0, 65, 0
3, 512, Note_on_c, 0, 62, 64
3, 542, Note_on_c, 0, 62, 0
3, 544, Note_on_c, 0, 72, 64
3, 574, Note_on_c, 0, 72, 0
3, 576, Note_on_c, 0, 70, 64
3, 606, Note_on_c, 0, 70, 0
3, 608, Note_on_c, 0, 75, 64
3, 638, Note_on_c, 0, 75, 0
3, 640, Note_on_c, 0, 68, 64
3, 670, Note_on_c, 0, 68, 0
3, 672, Note_on_c, 0, 70, 64
3, 702, Note_on_c, 0, 70, 0
3, 704, Note_on_c, 0, 75, 64
3, 734, Note_on_c, 0, 75, 0
3, 736, Note_on_c, 0, 67, 64
3, 766, Note_on_c, 0, 67, 0
3, 768, Note_on_c, 0, 65, 64
3, 798, Note_on_c, 0, 65, 0
3, 800, Note_on_c, 0, 68, 64
3, 830, Note_on_c, 0, 68, 0
3, 832, Note_on_c, 0, 72, 64
3, 894, Note_on_c, 0, 72, 0
3, 896, Note_on_c, 0, 68, 64
3, 926, Note_on_c, 0, 68, 0
3, 928, Note_on_c, 0, 65, 64
3, 958, Note_on_c, 0, 65, 0
3, 960, Note_on_c, 0, 62, 64
3, 990, Note_on_c, 0, 62, 0
3, 992, Note_on_c, 0, 65, 64
3, 1022, Note_on_c, 0, 65, 0
3, 1024, Note_on_c, 0, 62, 64
3, 1054, Note_on_c, 0, 62, 0
3, 1056, Note_on_c, 0, 58, 64
3, 1086, Note_on_c, 0, 58, 0
3, 1088, Note_on_c, 0, 62, 64
3, 1118, Note_on_c, 0, 62, 0
3, 1120, Note_on_c, 0, 56, 64
3, 1150, Note_on_c, 0, 56, 0
3, 1152, Note_on_c, 0, 55, 64
3, 1182, Note_on_c, 0, 55, 0
3, 1184, Note_on_c, 0, 58, 64
3, 1214, Note_on_c, 0, 58, 0
3, 1216, Note_on_c, 0, 62, 64
3, 1246, Note_on_c, 0, 62, 0
3, 1248, Note_on_c, 0, 63, 64
3, 1278, Note_on_c, 0, 63, 0
3, 1280, Note_on_c, 0, 58, 64
3, 1310, Note_on_c, 0, 58, 0
3, 1312, Note_on_c, 0, 67, 64
3, 1342, Note_on_c, 0, 67, 0
3, 1344, Note_on_c, 0, 63, 64
3, 1374, Note_on_c, 0, 63, 0
3, 1376, Note_on_c, 0, 58, 64
3, 1406, Note_on_c, 0, 58, 0
3, 1408, Note_on_c, 0, 67, 64
3, 1438, Note_on_c, 0, 67, 0
3, 1440, Note_on_c, 0, 65, 64
3, 1470, Note_on_c, 0, 65, 0
3, 1472, Note_on_c, 0, 58, 64
3, 1502, Note_on_c, 0, 58, 0
3, 1504, Note_on_c, 0, 68, 64
3, 1534, Note_on_c, 0, 68, 0
3, 1536, Note_on_c, 0, 65, 64
3, 1566, Note_on_c, 0, 65, 0
3, 1568, Note_on_c, 0, 62, 64
3, 1598, Note_on_c, 0, 62, 0
3, 1600, Note_on_c, 0, 70, 64
3, 1630, Note_on_c, 0, 70, 0
3, 1632, Note_on_c, 0, 65, 64
3, 1662, Note_on_c, 0, 65, 0
3, 1664, Note_on_c, 0, 62, 64
3, 1694, Note_on_c, 0, 62, 0
3, 1696, Note_on_c, 0, 72, 64
3, 1726, Note_on_c, 0, 72, 0
3, 1728, Note_on_c, 0, 70, 64
3, 1758, Note_on_c, 0, 70, 0
3, 1760, Note_on_c, 0, 75, 64
3, 1790, Note_on_c, 0, 75, 0
3, 1792, Note_on_c, 0, 68, 64
3, 1822, Note_on_c, 0, 68, 0
3, 1824, Note_on_c, 0, 70, 64
3, 1854, Note_on_c, 0, 70, 0
3, 1856, Note_on_c, 0, 75, 64
3, 1886, Note_on_c, 0, 75, 0
3, 1888, Note_on_c, 0, 67, 64
3, 1918, Note_on_c, 0, 67, 0
3, 1920, Note_on_c, 0, 65, 64
3, 1950, Note_on_c, 0, 65, 0
3, 1952, Note_on_c, 0, 68, 64
3, 1982, Note_on_c, 0, 68, 0
3, 1984, Note_on_c, 0, 72, 64
3, 2046, Note_on_c, 0, 72, 0
3, 2048, Note_on_c, 0, 68, 64
3, 2078, Note_on_c, 0, 68, 0
3, 2080, Note_on_c, 0, 65, 64
3, 2110, Note_on_c, 0, 65, 0
3, 2112, Note_on_c, 0, 62, 64
3, 2142, Note_on_c, 0, 62, 0
3, 2144, Note_on_c, 0, 65, 64
3, 2174, Note_on_c, 0, 65, 0
3, 2176, Note_on_c, 0, 62, 64
3, 2206, Note_on_c, 0, 62, 0
3, 2208, Note_on_c, 0, 58, 64
3, 2238, Note_on_c, 0, 58, 0
3, 2240, Note_on_c, 0, 62, 64
3, 2270, Note_on_c, 0, 62, 0
3, 2272, Note_on_c, 0, 65, 64
3, 2302, Note_on_c, 0, 65, 0
3, 2304, Note_on_c, 0, 70, 64
3, 2334, Note_on_c, 0, 70, 0
3, 2336, Note_on_c, 0, 67, 64
3, 2366, Note_on_c, 0, 67, 0
3, 2368, Note_on_c, 0, 75, 64
3, 2398, Note_on_c, 0, 75, 0
3, 2400, Note_on_c, 0, 70, 64
3, 2430, Note_on_c, 0, 70, 0
3, 2432, Note_on_c, 0, 67, 64
3, 2462, Note_on_c, 0, 67, 0
3, 2464, Note_on_c, 0, 75, 64
3, 2494, Note_on_c, 0, 75, 0
3, 2496, Note_on_c, 0, 70, 64
3, 2526, Note_on_c, 0, 70, 0
3, 2528, Note_on_c, 0, 67, 64
3, 2558, Note_on_c, 0, 67, 0
3, 2560, Note_on_c, 0, 73, 64
3, 2590, Note_on_c, 0, 73, 0
3, 2592, Note_on_c, 0, 70, 64
3, 2622, Note_on_c, 0, 70, 0
3, 2624, Note_on_c, 0, 67, 64
3, 2654, Note_on_c, 0, 67, 0
3, 2656, Note_on_c, 0, 73, 64
3, 2686, Note_on_c, 0, 73, 0
3, 2688, Note_on_c, 0, 72, 64
3, 2718, Note_on_c, 0, 72, 0
3, 2720, Note_on_c, 0, 77, 64
3, 2750, Note_on_c, 0, 77, 0
3, 2752, Note_on_c, 0, 68, 64
3, 2782, Note_on_c, 0, 68, 0
3, 2784, Note_on_c, 0, 67, 64
3, 2814, Note_on_c, 0, 67, 0
3, 2816, Note_on_c, 0, 63, 64
3, 2846, Note_on_c, 0, 63, 0
3, 2848, Note_on_c, 0, 70, 64
3, 2878, Note_on_c, 0, 70, 0
3, 2880, Note_on_c, 0, 72, 64
3, 2910, Note_on_c, 0, 72, 0
3, 2912, Note_on_c, 0, 74, 64
3, 2942, Note_on_c, 0, 74, 0
3, 2944, Note_on_c, 0, 75, 64
3, 3006, Note_on_c, 0, 75, 0
3, 3008, Note_on_c, 0, 74, 64
3, 3038, Note_on_c, 0, 74, 0
3, 3040, Note_on_c, 0, 77, 64
3, 3070, Note_on_c, 0, 77, 0
3, 3072, Note_on_c, 0, 70, 64
3, 3102, Note_on_c, 0, 70, 0
3, 3104, Note_on_c, 0, 72, 64
3, 3134, Note_on_c, 0, 72, 0
3, 3136, Note_on_c, 0, 68, 64
3, 3166, Note_on_c, 0, 68, 0
3, 3168, Note_on_c, 0, 67, 64
3, 3198, Note_on_c, 0, 67, 0
3, 3200, Note_on_c, 0, 63, 64
3, 3230, Note_on_c, 0, 63, 0
3, 3232, Note_on_c, 0, 65, 64
3, 3262, Note_on_c, 0, 65, 0
3, 3264, Note_on_c, 0, 67, 64
3, 3294, Note_on_c, 0, 67, 0
3, 3296, Note_on_c, 0, 68, 64
3, 3326, Note_on_c, 0, 68, 0
3, 3328, Note_on_c, 0, 70, 64
3, 3358, Note_on_c, 0, 70, 0
3, 3360, Note_on_c, 0, 72, 64
3, 3390, Note_on_c, 0, 72, 0
3, 3392, Note_on_c, 0, 75, 64
3, 3422, Note_on_c, 0, 75, 0
3, 3424, Note_on_c, 0, 74, 64
3, 3454, Note_on_c, 0, 74, 0
3, 3456, Note_on_c, 0, 75, 64
3, 3486, Note_on_c, 0, 75, 0
3, 3488, Note_on_c, 0, 63, 64
3, 3518, Note_on_c, 0, 63, 0
3, 3520, Note_on_c, 0, 67, 64
3, 3550, Note_on_c, 0, 67, 0
3, 3552, Note_on_c, 0, 70, 64
3, 3582, Note_on_c, 0, 70, 0
3, 3584, Note_on_c, 0, 67, 64
3, 3614, Note_on_c, 0, 67, 0
3, 3616, Note_on_c, 0, 75, 64
3, 3646, Note_on_c, 0, 75, 0
3, 3648, Note_on_c, 0, 70, 64
3, 3678, Note_on_c, 0, 70, 0
3, 3680, Note_on_c, 0, 67, 64
3, 3710, Note_on_c, 0, 67, 0
3, 3712, Note_on_c, 0, 75, 64
3, 3742, Note_on_c, 0, 75, 0
3, 3744, Note_on_c, 0, 63, 64
3, 3774, Note_on_c, 0, 63, 0
3, 3776, Note_on_c, 0, 70, 64
3, 3806, Note_on_c, 0, 70, 0
3, 3808, Note_on_c, 0, 68, 64
3, 3838, Note_on_c, 0, 68, 0
3, 3840, Note_on_c, 0, 72, 64
3, 3870, Note_on_c, 0, 72, 0
3, 3872, Note_on_c, 0, 70, 64
3, 3902, Note_on_c, 0, 70, 0
3, 3904, Note_on_c, 0, 68, 64
3, 3934, Note_on_c, 0, 68, 0
3, 3936, Note_on_c, 0, 67, 64
3, 3966, Note_on_c, 0, 67, 0
3, 3968, Note_on_c, 0, 68, 64
3, 3998, Note_on_c, 0, 68, 0
3, 4000, Note_on_c, 0, 70, 64
3, 4030, Note_on_c, 0, 70, 0
3, 4032, Note_on_c, 0, 72, 64
3, 4062, Note_on_c, 0, 72, 0
3, 4064, Note_on_c, 0, 74, 64
3, 4094, Note_on_c, 0, 74, 0
3, 4096, Note_on_c, 0, 75, 64
3, 4126, Note_on_c, 0, 75, 0
3, 4128, Note_on_c, 0, 74, 64
3, 4158, Note_on_c, 0, 74, 0
3, 4160, Note_on_c, 0, 75, 64
3, 4190, Note_on_c, 0, 75, 0
3, 4192, Note_on_c, 0, 77, 64
3, 4222, Note_on_c, 0, 77, 0
3, 4224, Note_on_c, 0, 70, 64
3, 4254, Note_on_c, 0, 70, 0
3, 4256, Note_on_c, 0, 75, 64
3, 4286, Note_on_c, 0, 75, 0
3, 4288, Note_on_c, 0, 74, 64
3, 4318, Note_on_c, 0, 74, 0
3, 4320, Note_on_c, 0, 75, 64
3, 4350, Note_on_c, 0, 75, 0
3, 4352, Note_on_c, 0, 70, 64
3, 4382, Note_on_c, 0, 70, 0
3, 4384, Note_on_c, 0, 67, 64
3, 4414, Note_on_c, 0, 67, 0
3, 4416, Note_on_c, 0, 63, 64
3, 4446, Note_on_c, 0, 63, 0
3, 4448, Note_on_c, 0, 67, 64
3, 4478, Note_on_c, 0, 67, 0
3, 4480, Note_on_c, 0, 70, 64
3, 4510, Note_on_c, 0, 70, 0
3, 4512, Note_on_c, 0, 75, 64
3, 4542, Note_on_c, 0, 75, 0
3, 4544, Note_on_c, 0, 70, 64
3, 4574, Note_on_c, 0, 70, 0
3, 4576, Note_on_c, 0, 67, 64
3, 4606, Note_on_c, 0, 67, 0
3, 4608, Note_on_c, 0, 63, 64
3, 4638, Note_on_c, 0, 63, 0
3, 4640, Note_on_c, 0, 79, 64
3, 4670, Note_on_c, 0, 79, 0
3, 4672, Note_on_c, 0, 74, 64
3, 4702, Note_on_c, 0, 74, 0
3, 4704, Note_on_c, 0, 75, 64
3, 4734, Note_on_c, 0, 75, 0
3, 4736, Note_on_c, 0, 79, 64
3, 4766, Note_on_c, 0, 79, 0
3, 4768, Note_on_c, 0, 71, 64
3, 4798, Note_on_c, 0, 71, 0
3, 4800, Note_on_c, 0, 72, 64
3, 4830, Note_on_c, 0, 72, 0
3, 4832, Note_on_c, 0, 75, 64
3, 4862, Note_on_c, 0, 75, 0
3, 4864, Note_on_c, 0, 79, 64
3, 4894, Note_on_c, 0, 79, 0
3, 4896, Note_on_c, 0, 77, 64
3, 4926, Note_on_c, 0, 77, 0
3, 4928, Note_on_c, 0, 80, 64
3, 4958, Note_on_c, 0, 80, 0
3, 4960, Note_on_c, 0, 75, 64
3, 4990, Note_on_c, 0, 75, 0
3, 4992, Note_on_c, 0, 77, 64
3, 5022, Note_on_c, 0, 77, 0
3, 5024, Note_on_c, 0, 80, 64
3, 5054, Note_on_c, 0, 80, 0
3, 5056, Note_on_c, 0, 71, 64
3, 5086, Note_on_c, 0, 71, 0
3, 5088, Note_on_c, 0, 74, 64
3, 5118, Note_on_c, 0, 74, 0
3, 5120, Note_on_c, 0, 77, 64
3, 5150, Note_on_c, 0, 77, 0
3, 5152, Note_on_c, 0, 80, 64
3, 5182, Note_on_c, 0, 80, 0
3, 5184, Note_on_c, 0, 79, 64
3, 5214, Note_on_c, 0, 79, 0
3, 5216, Note_on_c, 0, 71, 64
3, 5246, Note_on_c, 0, 71, 0
3, 5248, Note_on_c, 0, 72, 64
3, 5278, Note_on_c, 0, 72, 0
3, 5280, Note_on_c, 0, 75, 64
3, 5310, Note_on_c, 0, 75, 0
3, 5312, Note_on_c, 0, 71, 64
3, 5342, Note_on_c, 0, 71, 0
3, 5344, Note_on_c, 0, 72, 64
3, 5374, Note_on_c, 0, 72, 0
3, 5376, Note_on_c, 0, 78, 64
3, 5406, Note_on_c, 0, 78, 0
3, 5408, Note_on_c, 0, 71, 64
3, 5438, Note_on_c, 0, 71, 0
3, 5440, Note_on_c, 0, 72, 64
3, 5470, Note_on_c, 0, 72, 0
3, 5472, Note_on_c, 0, 79, 64
3, 5502, Note_on_c, 0, 79, 0
3, 5504, Note_on_c, 0, 75, 64
3, 5534, Note_on_c, 0, 75, 0
3, 5536, Note_on_c, 0, 72, 64
3, 5566, Note_on_c, 0, 72, 0
3, 5568, Note_on_c, 0, 74, 64
3, 5598, Note_on_c, 0, 74, 0
3, 5600, Note_on_c, 0, 79, 64
3, 5630, Note_on_c, 0, 79, 0
3, 5632, Note_on_c, 0, 71, 64
3, 5662, Note_on_c, 0, 71, 0
3, 5664, Note_on_c, 0, 72, 64
3, 5694, Note_on_c, 0, 72, 0
3, 5696, Note_on_c, 0, 79, 64
3, 5726, Note_on_c, 0, 79, 0
3, 5728, Note_on_c, 0, 74, 64
3, 5758, Note_on_c, 0, 74, 0
3, 5760, Note_on_c, 0, 75, 64
3, 5790, Note_on_c, 0, 75, 0
3, 5792, Note_on_c, 0, 79, 64
3, 5822, Note_on_c, 0, 79, 0
3, 5824, Note_on_c, 0, 74, 64
3, 5854, Note_on_c, 0, 74, 0
3, 5856, Note_on_c, 0, 75, 64
3, 5886, Note_on_c, 0, 75, 0
3, 5888, Note_on_c, 0, 79, 64
3, 5918, Note_on_c, 0, 79, 0
3, 5920, Note_on_c, 0, 71, 64
3, 5950, Note_on_c, 0, 71, 0
3, 5952, Note_on_c, 0, 72, 64
3, 5982, Note_on_c, 0, 72, 0
3, 5984, Note_on_c, 0, 74, 64
3, 6014, Note_on_c, 0, 74, 0
3, 6016, Note_on_c, 0, 75, 64
3, 6078, Note_on_c, 0, 75, 0
3, 6080, Note_on_c, 0, 71, 64
3, 6110, Note_on_c, 0, 71, 0
3, 6112, Note_on_c, 0, 72, 64
3, 6142, Note_on_c, 0, 72, 0
3, 6144, Note_on_c, 0, 74, 64
3, 6174, Note_on_c, 0, 74, 0
3, 6176, Note_on_c, 0, 77, 64
3, 6206, Note_on_c, 0, 77, 0
3, 6208, Note_on_c, 0, 75, 64
3, 6238, Note_on_c, 0, 75, 0
3, 6240, Note_on_c, 0, 77, 64
3, 6270, Note_on_c, 0, 77, 0
3, 6272, Note_on_c, 0, 79, 64
3, 6302, Note_on_c, 0, 79, 0
3, 6304, Note_on_c, 0, 80, 64
3, 6366, Note_on_c, 0, 80, 0
3, 6368, Note_on_c, 0, 77, 64
3, 6400, Note_on_c, 0, 77, 0
3, 6400, Note_on_c, 0, 79, 64
3, 6430, Note_on_c, 0, 79, 0
3, 6432, Note_on_c, 0, 77, 64
3, 6462, Note_on_c, 0, 77, 0
3, 6464, Note_on_c, 0, 74, 64
3, 6494, Note_on_c, 0, 74, 0
3, 6496, Note_on_c, 0, 75, 64
3, 6526, Note_on_c, 0, 75, 0
3, 6528, Note_on_c, 0, 74, 64
3, 6558, Note_on_c, 0, 74, 0
3, 6560, Note_on_c, 0, 71, 64
3, 6590, Note_on_c, 0, 71, 0
3, 6592, Note_on_c, 0, 72, 64
3, 6622, Note_on_c, 0, 72, 0
3, 6624, Note_on_c, 0, 74, 64
3, 6654, Note_on_c, 0, 74, 0
3, 6656, Note_on_c, 0, 79, 64
3, 6686, Note_on_c, 0, 79, 0
3, 6688, Note_on_c, 0, 72, 64
3, 6718, Note_on_c, 0, 72, 0
3, 6720, Note_on_c, 0, 74, 64
3, 6750, Note_on_c, 0, 74, 0
3, 6752, Note_on_c, 0, 79, 64
3, 6782, Note_on_c, 0, 79, 0
3, 6784, Note_on_c, 0, 74, 64
3, 6814, Note_on_c, 0, 74, 0
3, 6816, Note_on_c, 0, 71, 64
3, 6846, Note_on_c, 0, 71, 0
3, 6848, Note_on_c, 0, 74, 64
3, 6878, Note_on_c, 0, 74, 0
3, 6880, Note_on_c, 0, 67, 64
3, 6910, Note_on_c, 0, 67, 0
3, 6912, Note_on_c, 0, 72, 64
3, 6942, Note_on_c, 0, 72, 0
3, 6944, Note_on_c, 0, 67, 64
3, 6974, Note_on_c, 0, 67, 0
3, 6976, Note_on_c, 0, 68, 64
3, 7006, Note_on_c, 0, 68, 0
3, 7008, Note_on_c, 0, 70, 64
3, 7038, Note_on_c, 0, 70, 0
3, 7040, Note_on_c, 0, 72, 64
3, 7070, Note_on_c, 0, 72, 0
3, 7072, Note_on_c, 0, 73, 64
3, 7134, Note_on_c, 0, 73, 0
3, 7136, Note_on_c, 0, 70, 64
3, 7166, Note_on_c, 0, 70, 0
3, 7168, Note_on_c, 0, 67, 64
3, 7198, Note_on_c, 0, 67, 0
3, 7200, Note_on_c, 0, 64, 64
3, 7230, Note_on_c, 0, 64, 0
3, 7232, Note_on_c, 0, 73, 64
3, 7262, Note_on_c, 0, 73, 0
3, 7264, Note_on_c, 0, 72, 64
3, 7294, Note_on_c, 0, 72, 0
3, 7296, Note_on_c, 0, 70, 64
3, 7326, Note_on_c, 0, 70, 0
3, 7328, Note_on_c, 0, 68, 64
3, 7358, Note_on_c, 0, 68, 0
3, 7360, Note_on_c, 0, 67, 64
3, 7390, Note_on_c, 0, 67, 0
3, 7392, Note_on_c, 0, 65, 64
3, 7422, Note_on_c, 0, 65, 0
3, 7424, Note_on_c, 0, 67, 64
3, 7454, Note_on_c, 0, 67, 0
3, 7456, Note_on_c, 0, 64, 64
3, 7486, Note_on_c, 0, 64, 0
3, 7488, Note_on_c, 0, 65, 64
3, 7518, Note_on_c, 0, 65, 0
3, 7520, Note_on_c, 0, 67, 64
3, 7550, Note_on_c, 0, 67, 0
3, 7552, Note_on_c, 0, 68, 64
3, 7582, Note_on_c, 0, 68, 0
3, 7584, Note_on_c, 0, 70, 64
3, 7614, Note_on_c, 0, 70, 0
3, 7616, Note_on_c, 0, 76, 64
3, 7646, Note_on_c, 0, 76, 0
3, 7648, Note_on_c, 0, 77, 64
3, 7678, Note_on_c, 0, 77, 0
3, 7680, Note_on_c, 0, 67, 64
3, 7710, Note_on_c, 0, 67, 0
3, 7712, Note_on_c, 0, 73, 64
3, 7742, Note_on_c, 0, 73, 0
3, 7744, Note_on_c, 0, 72, 64
3, 7774, Note_on_c, 0, 72, 0
3, 7776, Note_on_c, 0, 70, 64
3, 7806, Note_on_c, 0, 70, 0
3, 7808, Note_on_c, 0, 67, 64
3, 7838, Note_on_c, 0, 67, 0
3, 7840, Note_on_c, 0, 68, 64
3, 7870, Note_on_c, 0, 68, 0
3, 7872, Note_on_c, 0, 65, 64
3, 7902, Note_on_c, 0, 65, 0
3, 7904, Note_on_c, 0, 77, 64
3, 7934, Note_on_c, 0, 77, 0
3, 7936, Note_on_c, 0, 76, 64
3, 7966, Note_on_c, 0, 76, 0
3, 7968, Note_on_c, 0, 77, 64
3, 7998, Note_on_c, 0, 77, 0
3, 8000, Note_on_c, 0, 80, 64
3, 8030, Note_on_c, 0, 80, 0
3, 8032, Note_on_c, 0, 79, 64
3, 8062, Note_on_c, 0, 79, 0
3, 8064, Note_on_c, 0, 80, 64
3, 8094, Note_on_c, 0, 80, 0
3, 8096, Note_on_c, 0, 76, 64
3, 8126, Note_on_c, 0, 76, 0
3, 8128, Note_on_c, 0, 77, 64
3, 8158, Note_on_c, 0, 77, 0
3, 8160, Note_on_c, 0, 73, 64
3, 8190, Note_on_c, 0, 73, 0
3, 8192, Note_on_c, 0, 76, 64
3, 8222, Note_on_c, 0, 76, 0
3, 8224, Note_on_c, 0, 77, 64
3, 8254, Note_on_c, 0, 77, 0
3, 8256, Note_on_c, 0, 80, 64
3, 8286, Note_on_c, 0, 80, 0
3, 8288, Note_on_c, 0, 76, 64
3, 8318, Note_on_c, 0, 76, 0
3, 8320, Note_on_c, 0, 77, 64
3, 8350, Note_on_c, 0, 77, 0
3, 8352, Note_on_c, 0, 70, 64
3, 8382, Note_on_c, 0, 70, 0
3, 8384, Note_on_c, 0, 80, 64
3, 8414, Note_on_c, 0, 80, 0
3, 8416, Note_on_c, 0, 79, 64
3, 8446, Note_on_c, 0, 79, 0
3, 8448, Note_on_c, 0, 77, 64
3, 8478, Note_on_c, 0, 77, 0
3, 8480, Note_on_c, 0, 76, 64
3, 8510, Note_on_c, 0, 76, 0
3, 8512, Note_on_c, 0, 73, 64
3, 8542, Note_on_c, 0, 73, 0
3, 8544, Note_on_c, 0, 72, 64
3, 8574, Note_on_c, 0, 72, 0
3, 8576, Note_on_c, 0, 70, 64
3, 8606, Note_on_c, 0, 70, 0
3, 8608, Note_on_c, 0, 68, 64
3, 8638, Note_on_c, 0, 68, 0
3, 8640, Note_on_c, 0, 67, 64
3, 8670, Note_on_c, 0, 67, 0
3, 8672, Note_on_c, 0, 79, 64
3, 8702, Note_on_c, 0, 79, 0
3, 8704, Note_on_c, 0, 77, 64
3, 8734, Note_on_c, 0, 77, 0
3, 8736, Note_on_c, 0, 76, 64
3, 8766, Note_on_c, 0, 76, 0
3, 8768, Note_on_c, 0, 79, 64
3, 8798, Note_on_c, 0, 79, 0
3, 8800, Note_on_c, 0, 72, 64
3, 8830, Note_on_c, 0, 72, 0
3, 8832, Note_on_c, 0, 73, 64
3, 8862, Note_on_c, 0, 73, 0
3, 8864, Note_on_c, 0, 72, 64
3, 8894, Note_on_c, 0, 72, 0
3, 8896, Note_on_c, 0, 70, 64
3, 8926, Note_on_c, 0, 70, 0
3, 8928, Note_on_c, 0, 68, 64
3, 8958, Note_on_c, 0, 68, 0
3, 8960, Note_on_c, 0, 77, 64
3, 8990, Note_on_c, 0, 77, 0
3, 8992, Note_on_c, 0, 72, 64
3, 9022, Note_on_c, 0, 72, 0
3, 9024, Note_on_c, 0, 68, 64
3, 9054, Note_on_c, 0, 68, 0
3, 9056, Note_on_c, 0, 72, 64
3, 9086, Note_on_c, 0, 72, 0
3, 9088, Note_on_c, 0, 68, 64
3, 9118, Note_on_c, 0, 68, 0
3, 9120, Note_on_c, 0, 65, 64
3, 9150, Note_on_c, 0, 65, 0
3, 9152, Note_on_c, 0, 68, 64
3, 9182, Note_on_c, 0, 68, 0
3, 9184, Note_on_c, 0, 67, 64
3, 9214, Note_on_c, 0, 67, 0
3, 9216, Note_on_c, 0, 68, 64
3, 9246, Note_on_c, 0, 68, 0
3, 9248, Note_on_c, 0, 72, 64
3, 9278, Note_on_c, 0, 72, 0
3, 9280, Note_on_c, 0, 68, 64
3, 9310, Note_on_c, 0, 68, 0
3, 9312, Note_on_c, 0, 65, 64
3, 9342, Note_on_c, 0, 65, 0
3, 9344, Note_on_c, 0, 60, 64
3, 9374, Note_on_c, 0, 60, 0
3, 9376, Note_on_c, 0, 67, 64
3, 9406, Note_on_c, 0, 67, 0
3, 9408, Note_on_c, 0, 68, 64
3, 9438, Note_on_c, 0, 68, 0
3, 9440, Note_on_c, 0, 65, 64
3, 9470, Note_on_c, 0, 65, 0
3, 9472, Note_on_c, 0, 72, 64
3, 9502, Note_on_c, 0, 72, 0
3, 9504, Note_on_c, 0, 77, 64
3, 9534, Note_on_c, 0, 77, 0
3, 9536, Note_on_c, 0, 80, 64
3, 9566, Note_on_c, 0, 80, 0
3, 9568, Note_on_c, 0, 77, 64
3, 9598, Note_on_c, 0, 77, 0
3, 9600, Note_on_c, 0, 74, 64
3, 9630, Note_on_c, 0, 74, 0
3, 9632, Note_on_c, 0, 70, 64
3, 9662, Note_on_c, 0, 70, 0
3, 9664, Note_on_c, 0, 75, 64
3, 9694, Note_on_c, 0, 75, 0
3, 9696, Note_on_c, 0, 77, 64
3, 9726, Note_on_c, 0, 77, 0
3, 9728, Note_on_c, 0, 74, 64
3, 9758, Note_on_c, 0, 74, 0
3, 9760, Note_on_c, 0, 82, 64
3, 9822, Note_on_c, 0, 82, 0
3, 9824, Note_on_c, 0, 75, 64
3, 9854, Note_on_c, 0, 75, 0
3, 9856, Note_on_c, 0, 74, 64
3, 9886, Note_on_c, 0, 74, 0
3, 9888, Note_on_c, 0, 75, 64
3, 9918, Note_on_c, 0, 75, 0
3, 9920, Note_on_c, 0, 77, 64
3, 9950, Note_on_c, 0, 77, 0
3, 9952, Note_on_c, 0, 79, 64
3, 9982, Note_on_c, 0, 79, 0
3, 9984, Note_on_c, 0, 77, 64
3, 10014, Note_on_c, 0, 77, 0
3, 10016, Note_on_c, 0, 79, 64
3, 10046, Note_on_c, 0, 79, 0
3, 10048, Note_on_c, 0, 75, 64
3, 10078, Note_on_c, 0, 75, 0
3, 10080, Note_on_c, 0, 74, 64
3, 10110, Note_on_c, 0, 74, 0
3, 10112, Note_on_c, 0, 77, 64
3, 10142, Note_on_c, 0, 77, 0
3, 10144, Note_on_c, 0, 74, 64
3, 10174, Note_on_c, 0, 74, 0
3, 10176, Note_on_c, 0, 70, 64
3, 10206, Note_on_c, 0, 70, 0
3, 10208, Note_on_c, 0, 74, 64
3, 10238, Note_on_c, 0, 74, 0
3, 10240, Note_on_c, 0, 77, 64
3, 10270, Note_on_c, 0, 77, 0
3, 10272, Note_on_c, 0, 80, 64
3, 10302, Note_on_c, 0, 80, 0
3, 10304, Note_on_c, 0, 79, 64
3, 10334, Note_on_c, 0, 79, 0
3, 10336, Note_on_c, 0, 77, 64
3, 10366, Note_on_c, 0, 77, 0
3, 10368, Note_on_c, 0, 82, 64
3, 10398, Note_on_c, 0, 82, 0
3, 10400, Note_on_c, 0, 79, 64
3, 10430, Note_on_c, 0, 79, 0
3, 10432, Note_on_c, 0, 75, 64
3, 10462, Note_on_c, 0, 75, 0
3, 10464, Note_on_c, 0, 70, 64
3, 10494, Note_on_c, 0, 70, 0
3, 10496, Note_on_c, 0, 72, 64
3, 10526, Note_on_c, 0, 72, 0
3, 10528, Note_on_c, 0, 73, 64
3, 10590, Note_on_c, 0, 73, 0
3, 10592, Note_on_c, 0, 72, 64
3, 10622, Note_on_c, 0, 72, 0
3, 10624, Note_on_c, 0, 70, 64
3, 10654, Note_on_c, 0, 70, 0
3, 10656, Note_on_c, 0, 72, 64
3, 10686, Note_on_c, 0, 72, 0
3, 10688, Note_on_c, 0, 75, 64
3, 10718, Note_on_c, 0, 75, 0
3, 10720, Note_on_c, 0, 80, 64
3, 10750, Note_on_c, 0, 80, 0
3, 10752, Note_on_c, 0, 74, 64
3, 10782, Note_on_c, 0, 74, 0
3, 10784, Note_on_c, 0, 77, 64
3, 10814, Note_on_c, 0, 77, 0
3, 10816, Note_on_c, 0, 82, 64
3, 10846, Note_on_c, 0, 82, 0
3, 10848, Note_on_c, 0, 75, 64
3, 10878, Note_on_c, 0, 75, 0
3, 10880, Note_on_c, 0, 70, 64
3, 10910, Note_on_c, 0, 70, 0
3, 10912, Note_on_c, 0, 67, 64
3, 10942, Note_on_c, 0, 67, 0
3, 10944, Note_on_c, 0, 63, 64
3, 10974, Note_on_c, 0, 63, 0
3, 10976, Note_on_c, 0, 65, 64
3, 11006, Note_on_c, 0, 65, 0
3, 11008, Note_on_c, 0, 67, 64
3, 11038, Note_on_c, 0, 67, 0
3, 11040, Note_on_c, 0, 65, 64
3, 11070, Note_on_c, 0, 65, 0
3, 11072, Note_on_c, 0, 62, 64
3, 11102, Note_on_c, 0, 62, 0
3, 11104, Note_on_c, 0, 63, 64
3, 11134, Note_on_c, 0, 63, 0
3, 11136, Note_on_c, 0, 69, 64
3, 11166, Note_on_c, 0, 69, 0
3, 11168, Note_on_c, 0, 62, 64
3, 11198, Note_on_c, 0, 62, 0
3, 11200, Note_on_c, 0, 63, 64
3, 11230, Note_on_c, 0, 63, 0
3, 11232, Note_on_c, 0, 70, 64
3, 11262, Note_on_c, 0, 70, 0
3, 11264, Note_on_c, 0, 65, 64
3, 11294, Note_on_c, 0, 65, 0
3, 11296, Note_on_c, 0, 69, 64
3, 11326, Note_on_c, 0, 69, 0
3, 11328, Note_on_c, 0, 70, 64
3, 11358, Note_on_c, 0, 70, 0
3, 11360, Note_on_c, 0, 65, 64
3, 11390, Note_on_c, 0, 65, 0
3, 11392, Note_on_c, 0, 62, 64
3, 11422, Note_on_c, 0, 62, 0
3, 11424, Note_on_c, 0, 58, 64
3, 11454, Note_on_c, 0, 58, 0
3, 11456, Note_on_c, 0, 62, 64
3, 11486, Note_on_c, 0, 62, 0
3, 11488, Note_on_c, 0, 65, 64
3, 11550, Note_on_c, 0, 65, 0
3, 11552, Note_on_c, 0, 63, 64
3, 11582, Note_on_c, 0, 63, 0
3, 11584, Note_on_c, 0, 67, 64
3, 11614, Note_on_c, 0, 67, 0
3, 11616, Note_on_c, 0, 70, 64
3, 11646, Note_on_c, 0, 70, 0
3, 11648, Note_on_c, 0, 75, 64
3, 11678, Note_on_c, 0, 75, 0
3, 11680, Note_on_c, 0, 70, 64
3, 11710, Note_on_c, 0, 70, 0
3, 11712, Note_on_c, 0, 67, 64
3, 11742, Note_on_c, 0, 67, 0
3, 11744, Note_on_c, 0, 70, 64
3, 11774, Note_on_c, 0, 70, 0
3, 11776, Note_on_c, 0, 67, 64
3, 11806, Note_on_c, 0, 67, 0
3, 11808, Note_on_c, 0, 63, 64
3, 11838, Note_on_c, 0, 63, 0
3, 11840, Note_on_c, 0, 68, 64
3, 11870, Note_on_c, 0, 68, 0
3, 11872, Note_on_c, 0, 67, 64
3, 11902, Note_on_c, 0, 67, 0
3, 11904, Note_on_c, 0, 68, 64
3, 11934, Note_on_c, 0, 68, 0
3, 11936, Note_on_c, 0, 70, 64
3, 11966, Note_on_c, 0, 70, 0
3, 11968, Note_on_c, 0, 72, 64
3, 11998, Note_on_c, 0, 72, 0
3, 12000, Note_on_c, 0, 74, 64
3, 12030, Note_on_c, 0, 74, 0
3, 12032, Note_on_c, 0, 71, 64
3, 12062, Note_on_c, 0, 71, 0
3, 12064, Note_on_c, 0, 68, 64
3, 12094, Note_on_c, 0, 68, 0
3, 12096, Note_on_c, 0, 67, 64
3, 12126, Note_on_c, 0, 67, 0
3, 12128, Note_on_c, 0, 72, 64
3, 12158, Note_on_c, 0, 72, 0
3, 12160, Note_on_c, 0, 71, 64
3, 12190, Note_on_c, 0, 71, 0
3, 12192, Note_on_c, 0, 72, 64
3, 12222, Note_on_c, 0, 72, 0
3, 12224, Note_on_c, 0, 74, 64
3, 12254, Note_on_c, 0, 74, 0
3, 12256, Note_on_c, 0, 75, 64
3, 12286, Note_on_c, 0, 75, 0
3, 12288, Note_on_c, 0, 77, 64
3, 12318, Note_on_c, 0, 77, 0
3, 12320, Note_on_c, 0, 74, 64
3, 12350, Note_on_c, 0, 74, 0
3, 12352, Note_on_c, 0, 70, 64
3, 12414, Note_on_c, 0, 70, 0
3, 12416, Note_on_c, 0, 75, 64
3, 12446, Note_on_c, 0, 75, 0
3, 12448, Note_on_c, 0, 74, 64
3, 12478, Note_on_c, 0, 74, 0
3, 12480, Note_on_c, 0, 75, 64
3, 12510, Note_on_c, 0, 75, 0
3, 12512, Note_on_c, 0, 77, 64
3, 12542, Note_on_c, 0, 77, 0
3, 12544, Note_on_c, 0, 79, 64
3, 12591, Note_on_c, 0, 79, 0
3, 12592, Note_on_c, 0, 80, 64
3, 12607, Note_on_c, 0, 80, 0
3, 12608, Note_on_c, 0, 82, 64
3, 12638, Note_on_c, 0, 82, 0
3, 12640, Note_on_c, 0, 73, 64
3, 12670, Note_on_c, 0, 73, 0
3, 12672, Note_on_c, 0, 72, 64
3, 12702, Note_on_c, 0, 72, 0
3, 12704, Note_on_c, 0, 77, 64
3, 12734, Note_on_c, 0, 77, 0
3, 12736, Note_on_c, 0, 76, 64
3, 12766, Note_on_c, 0, 76, 0
3, 12768, Note_on_c, 0, 77, 64
3, 12798, Note_on_c, 0, 77, 0
3, 12800, Note_on_c, 0, 79, 64
3, 12830, Note_on_c, 0, 79, 0
3, 12832, Note_on_c, 0, 80, 64
3, 12894, Note_on_c, 0, 80, 0
3, 12896, Note_on_c, 0, 77, 64
3, 12926, Note_on_c, 0, 77, 0
3, 12928, Note_on_c, 0, 79, 64
3, 12958, Note_on_c, 0, 79, 0
3, 12960, Note_on_c, 0, 80, 64
3, 12990, Note_on_c, 0, 80, 0
3, 12992, Note_on_c, 0, 75, 64
3, 13022, Note_on_c, 0, 75, 0
3, 13024, Note_on_c, 0, 73, 64
3, 13054, Note_on_c, 0, 73, 0
3, 13056, Note_on_c, 0, 75, 64
3, 13086, Note_on_c, 0, 75, 0
3, 13088, Note_on_c, 0, 72, 64
3, 13118, Note_on_c, 0, 72, 0
3, 13120, Note_on_c, 0, 70, 64
3, 13150, Note_on_c, 0, 70, 0
3, 13152, Note_on_c, 0, 72, 64
3, 13182, Note_on_c, 0, 72, 0
3, 13184, Note_on_c, 0, 63, 64
3, 13214, Note_on_c, 0, 63, 0
3, 13216, Note_on_c, 0, 62, 64
3, 13246, Note_on_c, 0, 62, 0
3, 13248, Note_on_c, 0, 63, 64
3, 13278, Note_on_c, 0, 63, 0
3, 13280, Note_on_c, 0, 66, 64
3, 13310, Note_on_c, 0, 66, 0
3, 13312, Note_on_c, 0, 69, 64
3, 13342, Note_on_c, 0, 69, 0
3, 13344, Note_on_c, 0, 70, 64
3, 13374, Note_on_c, 0, 70, 0
3, 13376, Note_on_c, 0, 65, 64
3, 13406, Note_on_c, 0, 65, 0
3, 13408, Note_on_c, 0, 68, 64
3, 13438, Note_on_c, 0, 68, 0
3, 13440, Note_on_c, 0, 72, 64
3, 13470, Note_on_c, 0, 72, 0
3, 13472, Note_on_c, 0, 70, 64
3, 13502, Note_on_c, 0, 70, 0
3, 13504, Note_on_c, 0, 68, 64
3, 13534, Note_on_c, 0, 68, 0
3, 13536, Note_on_c, 0, 67, 64
3, 13566, Note_on_c, 0, 67, 0
3, 13568, Note_on_c, 0, 70, 64
3, 13598, Note_on_c, 0, 70, 0
3, 13600, Note_on_c, 0, 67, 64
3, 13630, Note_on_c, 0, 67, 0
3, 13632, Note_on_c, 0, 63, 64
3, 13662, Note_on_c, 0, 63, 0
3, 13664, Note_on_c, 0, 65, 64
3, 13694, Note_on_c, 0, 65, 0
3, 13696, Note_on_c, 0, 67, 64
3, 13726, Note_on_c, 0, 67, 0
3, 13728, Note_on_c, 0, 68, 64
3, 13758, Note_on_c, 0, 68, 0
3, 13760, Note_on_c, 0, 70, 64
3, 13790, Note_on_c, 0, 70, 0
3, 13792, Note_on_c, 0, 72, 64
3, 13822, Note_on_c, 0, 72, 0
3, 13824, Note_on_c, 0, 73, 64
3, 13854, Note_on_c, 0, 73, 0
3, 13856, Note_on_c, 0, 70, 64
3, 13886, Note_on_c, 0, 70, 0
3, 13888, Note_on_c, 0, 67, 64
3, 13918, Note_on_c, 0, 67, 0
3, 13920, Note_on_c, 0, 63, 64
3, 13950, Note_on_c, 0, 63, 0
3, 13952, Note_on_c, 0, 73, 64
3, 13982, Note_on_c, 0, 73, 0
3, 13984, Note_on_c, 0, 70, 64
3, 14014, Note_on_c, 0, 70, 0
3, 14016, Note_on_c, 0, 67, 64
3, 14046, Note_on_c, 0, 67, 0
3, 14048, Note_on_c, 0, 70, 64
3, 14078, Note_on_c, 0, 70, 0
3, 14080, Note_on_c, 0, 67, 64
3, 14110, Note_on_c, 0, 67, 0
3, 14112, Note_on_c, 0, 63, 64
3, 14142, Note_on_c, 0, 63, 0
3, 14144, Note_on_c, 0, 68, 64
3, 14174, Note_on_c, 0, 68, 0
3, 14176, Note_on_c, 0, 67, 64
3, 14206, Note_on_c, 0, 67, 0
3, 14208, Note_on_c, 0, 68, 64
3, 14238, Note_on_c, 0, 68, 0
3, 14240, Note_on_c, 0, 70, 64
3, 14270, Note_on_c, 0, 70, 0
3, 14272, Note_on_c, 0, 72, 64
3, 14302, Note_on_c, 0, 72, 0
3, 14304, Note_on_c, 0, 74, 64
3, 14334, Note_on_c, 0, 74, 0
3, 14336, Note_on_c, 0, 77, 64
3, 14366, Note_on_c, 0, 77, 0
3, 14368, Note_on_c, 0, 75, 64
3, 14398, Note_on_c, 0, 75, 0
3, 14400, Note_on_c, 0, 77, 64
3, 14430, Note_on_c, 0, 77, 0
3, 14432, Note_on_c, 0, 74, 64
3, 14462, Note_on_c, 0, 74, 0
3, 14464, Note_on_c, 0, 71, 64
3, 14494, Note_on_c, 0, 71, 0
3, 14496, Note_on_c, 0, 67, 64
3, 14526, Note_on_c, 0, 67, 0
3, 14528, Note_on_c, 0, 77, 64
3, 14558, Note_on_c, 0, 77, 0
3, 14560, Note_on_c, 0, 74, 64
3, 14590, Note_on_c, 0, 74, 0
3, 14592, Note_on_c, 0, 71, 64
3, 14622, Note_on_c, 0, 71, 0
3, 14624, Note_on_c, 0, 74, 64
3, 14654, Note_on_c, 0, 74, 0
3, 14656, Note_on_c, 0, 71, 64
3, 14686, Note_on_c, 0, 71, 0
3, 14688, Note_on_c, 0, 67, 64
3, 14718, Note_on_c, 0, 67, 0
3, 14720, Note_on_c, 0, 72, 64
3, 14750, Note_on_c, 0, 72, 0
3, 14752, Note_on_c, 0, 71, 64
3, 14782, Note_on_c, 0, 71, 0
3, 14784, Note_on_c, 0, 72, 64
3, 14814, Note_on_c, 0, 72, 0
3, 14816, Note_on_c, 0, 74, 64
3, 14846, Note_on_c, 0, 74, 0
3, 14848, Note_on_c, 0, 75, 64
3, 14878, Note_on_c, 0, 75, 0
3, 14880, Note_on_c, 0, 77, 64
3, 14910, Note_on_c, 0, 77, 0
3, 14912, Note_on_c, 0, 80, 64
3, 14942, Note_on_c, 0, 80, 0
3, 14944, Note_on_c, 0, 79, 64
3, 14974, Note_on_c, 0, 79, 0
3, 14976, Note_on_c, 0, 80, 64
3, 15006, Note_on_c, 0, 80, 0
3, 15008, Note_on_c, 0, 75, 64
3, 15038, Note_on_c, 0, 75, 0
3, 15040, Note_on_c, 0, 79, 64
3, 15070, Note_on_c, 0, 79, 0
3, 15072, Note_on_c, 0, 80, 64
3, 15102, Note_on_c, 0, 80, 0
3, 15104, Note_on_c, 0, 82, 64
3, 15134, Note_on_c, 0, 82, 0
3, 15136, Note_on_c, 0, 84, 64
3, 15166, Note_on_c, 0, 84, 0
3, 15168, Note_on_c, 0, 82, 64
3, 15198, Note_on_c, 0, 82, 0
3, 15200, Note_on_c, 0, 77, 64
3, 15230, Note_on_c, 0, 77, 0
3, 15232, Note_on_c, 0, 74, 64
3, 15262, Note_on_c, 0, 74, 0
3, 15264, Note_on_c, 0, 70, 64
3, 15294, Note_on_c, 0, 70, 0
3, 15296, Note_on_c, 0, 75, 64
3, 15326, Note_on_c, 0, 75, 0
3, 15328, Note_on_c, 0, 74, 64
3, 15358, Note_on_c, 0, 74, 0
3, 15360, Note_on_c, 0, 75, 64
3, 15390, Note_on_c, 0, 75, 0
3, 15392, Note_on_c, 0, 77, 64
3, 15422, Note_on_c, 0, 77, 0
3, 15424, Note_on_c, 0, 79, 64
3, 15454, Note_on_c, 0, 79, 0
3, 15456, Note_on_c, 0, 77, 64
3, 15486, Note_on_c, 0, 77, 0
3, 15488, Note_on_c, 0, 79, 64
3, 15518, Note_on_c, 0, 79, 0
3, 15520, Note_on_c, 0, 75, 64
3, 15550, Note_on_c, 0, 75, 0
3, 15552, Note_on_c, 0, 80, 64
3, 15582, Note_on_c, 0, 80, 0
3, 15584, Note_on_c, 0, 77, 64
3, 15614, Note_on_c, 0, 77, 0
3, 15616, Note_on_c, 0, 79, 64
3, 15646, Note_on_c, 0, 79, 0
3, 15648, Note_on_c, 0, 74, 64
3, 15678, Note_on_c, 0, 74, 0
3, 15680, Note_on_c, 0, 75, 64
3, 15710, Note_on_c, 0, 75, 0
3, 15712, Note_on_c, 0, 70, 64
3, 15742, Note_on_c, 0, 70, 0
3, 15744, Note_on_c, 0, 72, 64
3, 15774, Note_on_c, 0, 72, 0
3, 15776, Note_on_c, 0, 77, 64
3, 15806, Note_on_c, 0, 77, 0
3, 15808, Note_on_c, 0, 74, 64
3, 15838, Note_on_c, 0, 74, 0
3, 15840, Note_on_c, 0, 75, 64
3, 15870, Note_on_c, 0, 75, 0
3, 15872, Note_on_c, 0, 79, 64
3, 15902, Note_on_c, 0, 79, 0
3, 15904, Note_on_c, 0, 75, 64
3, 15934, Note_on_c, 0, 75, 0
3, 15936, Note_on_c, 0, 70, 64
3, 15966, Note_on_c, 0, 70, 0
3, 15968, Note_on_c, 0, 75, 64
3, 15998, Note_on_c, 0, 75, 0
3, 16000, Note_on_c, 0, 74, 64
3, 16030, Note_on_c, 0, 74, 0
3, 16032, Note_on_c, 0, 75, 64
3, 16062, Note_on_c, 0, 75, 0
3, 16064, Note_on_c, 0, 70, 64
3, 16094, Note_on_c, 0, 70, 0
3, 16096, Note_on_c, 0, 67, 64
3, 16126, Note_on_c, 0, 67, 0
3, 16128, Note_on_c, 0, 63, 64
3, 16217, Note_on_c, 0, 63, 0
3, 16272, Note_on_c, 0, 79, 64
3, 16295, Note_on_c, 0, 79, 0
3, 16296, Note_on_c, 0, 77, 64
3, 16319, Note_on_c, 0, 77, 0
3, 16320, Note_on_c, 0, 75, 64
3, 16343, Note_on_c, 0, 75, 0
3, 16344, Note_on_c, 0, 74, 64
3, 16367, Note_on_c, 0, 74, 0
3, 16368, Note_on_c, 0, 72, 64
3, 16391, Note_on_c, 0, 72, 0
3, 16392, Note_on_c, 0, 71, 64
3, 16415, Note_on_c, 0, 71, 0
3, 16416, Note_on_c, 0, 72, 64
3, 16505, Note_on_c, 0, 72, 0
3, 16560, Note_on_c, 0, 84, 64
3, 16583, Note_on_c, 0, 84, 0
3, 16584, Note_on_c, 0, 82, 64
3, 16607, Note_on_c, 0, 82, 0
3, 16608, Note_on_c, 0, 81, 64
3, 16631, Note_on_c, 0, 81, 0
3, 16632, Note_on_c, 0, 79, 64
3, 16655, Note_on_c, 0, 79, 0
3, 16656, Note_on_c, 0, 78, 64
3, 16679, Note_on_c, 0, 78, 0
3, 16680, Note_on_c, 0, 81, 64
3, 16703, Note_on_c, 0, 81, 0
3, 16704, Note_on_c, 0, 72, 64
3, 16727, Note_on_c, 0, 72, 0
3, 16728, Note_on_c, 0, 69, 64
3, 16751, Note_on_c, 0, 69, 0
3, 16752, Note_on_c, 0, 66, 64
3, 16775, Note_on_c, 0, 66, 0
3, 16776, Note_on_c, 0, 67, 64
3, 16799, Note_on_c, 0, 67, 0
3, 16800, Note_on_c, 0, 69, 64
3, 16823, Note_on_c, 0, 69, 0
3, 16824, Note_on_c, 0, 70, 64
3, 16847, Note_on_c, 0, 70, 0
3, 16848, Note_on_c, 0, 72, 64
3, 16871, Note_on_c, 0, 72, 0
3, 16872, Note_on_c, 0, 74, 64
3, 16895, Note_on_c, 0, 74, 0
3, 16896, Note_on_c, 0, 75, 64
3, 16919, Note_on_c, 0, 75, 0
3, 16920, Note_on_c, 0, 72, 64
3, 16943, Note_on_c, 0, 72, 0
3, 16944, Note_on_c, 0, 79, 64
3, 16967, Note_on_c, 0, 79, 0
3, 16968, Note_on_c, 0, 78, 64
3, 16991, Note_on_c, 0, 78, 0
3, 16992, Note_on_c, 0, 79, 64
3, 17257, Note_on_c, 0, 79, 0
3, 17257, End_track
4, 0, Start_track
4, 0, MIDI_port, 0
4, 0, Title_t, "Clavier (LH)"
4, 0, Program_c, 0, 6
4, 0, Control_c, 0, 7, 127
4, 0, Note_on_c, 0, 51, 64
4, 89, Note_on_c, 0, 51, 0
4, 288, Note_on_c, 0, 46, 64
4, 377, Note_on_c, 0, 46, 0
4, 576, Note_on_c, 0, 39, 64
4, 665, Note_on_c, 0, 39, 0
4, 672, Note_on_c, 0, 51, 64
4, 761, Note_on_c, 0, 51, 0
4, 768, Note_on_c, 0, 44, 64
4, 857, Note_on_c, 0, 44, 0
4, 864, Note_on_c, 0, 46, 64
4, 953, Note_on_c, 0, 46, 0
4, 1008, Note_on_c, 0, 46, 64
4, 1053, Note_on_c, 0, 46, 0
4, 1056, Note_on_c, 0, 50, 64
4, 1101, Note_on_c, 0, 50, 0
4, 1104, Note_on_c, 0, 46, 64
4, 1149, Note_on_c, 0, 46, 0
4, 1152, Note_on_c, 0, 51, 64
4, 1241, Note_on_c, 0, 51, 0
4, 1440, Note_on_c, 0, 46, 64
4, 1529, Note_on_c, 0, 46, 0
4, 1728, Note_on_c, 0, 39, 64
4, 1817, Note_on_c, 0, 39, 0
4, 1824, Note_on_c, 0, 51, 64
4, 1913, Note_on_c, 0, 51, 0
4, 1920, Note_on_c, 0, 44, 64
4, 2009, Note_on_c, 0, 44, 0
4, 2016, Note_on_c, 0, 46, 64
4, 2105, Note_on_c, 0, 46, 0
4, 2160, Note_on_c, 0, 46, 64
4, 2205, Note_on_c, 0, 46, 0
4, 2208, Note_on_c, 0, 50, 64
4, 2253, Note_on_c, 0, 50, 0
4, 2256, Note_on_c, 0, 46, 64
4, 2301, Note_on_c, 0, 46, 0
4, 2304, Note_on_c, 0, 43, 64
4, 2393, Note_on_c, 0, 43, 0
4, 2592, Note_on_c, 0, 44, 64
4, 2725, Note_on_c, 0, 44, 0
4, 2736, Note_on_c, 0, 46, 64
4, 2781, Note_on_c, 0, 46, 0
4, 2784, Note_on_c, 0, 48, 64
4, 2829, Note_on_c, 0, 48, 0
4, 2832, Note_on_c, 0, 43, 64
4, 2877, Note_on_c, 0, 43, 0
4, 2880, Note_on_c, 0, 44, 64
4, 2925, Note_on_c, 0, 44, 0
4, 2928, Note_on_c, 0, 41, 64
4, 2973, Note_on_c, 0, 41, 0
4, 2976, Note_on_c, 0, 46, 64
4, 3065, Note_on_c, 0, 46, 0
4, 3072, Note_on_c, 0, 58, 64
4, 3161, Note_on_c, 0, 58, 0
4, 3168, Note_on_c, 0, 60, 64
4, 3257, Note_on_c, 0, 60, 0
4, 3312, Note_on_c, 0, 48, 64
4, 3357, Note_on_c, 0, 48, 0
4, 3360, Note_on_c, 0, 46, 64
4, 3405, Note_on_c, 0, 46, 0
4, 3408, Note_on_c, 0, 44, 64
4, 3453, Note_on_c, 0, 44, 0
4, 3456, Note_on_c, 0, 43, 64
4, 3545, Note_on_c, 0, 43, 0
4, 3744, Note_on_c, 0, 43, 64
4, 3877, Note_on_c, 0, 43, 0
4, 3888, Note_on_c, 0, 44, 64
4, 3933, Note_on_c, 0, 44, 0
4, 3936, Note_on_c, 0, 46, 64
4, 3981, Note_on_c, 0, 46, 0
4, 3984, Note_on_c, 0, 43, 64
4, 4029, Note_on_c, 0, 43, 0
4, 4032, Note_on_c, 0, 44, 64
4, 4121, Note_on_c, 0, 44, 0
4, 4128, Note_on_c, 0, 46, 64
4, 4217, Note_on_c, 0, 46, 0
4, 4224, Note_on_c, 0, 46, 64
4, 4313, Note_on_c, 0, 46, 0
4, 4320, Note_on_c, 0, 39, 64
4, 4409, Note_on_c, 0, 39, 0
4, 4464, Note_on_c, 0, 51, 64
4, 4509, Note_on_c, 0, 51, 0
4, 4512, Note_on_c, 0, 55, 64
4, 4557, Note_on_c, 0, 55, 0
4, 4560, Note_on_c, 0, 51, 64
4, 4605, Note_on_c, 0, 51, 0
4, 4608, Note_on_c, 0, 48, 64
4, 4697, Note_on_c, 0, 48, 0
4, 4896, Note_on_c, 0, 50, 64
4, 4985, Note_on_c, 0, 50, 0
4, 5184, Note_on_c, 0, 51, 64
4, 5273, Note_on_c, 0, 51, 0
4, 5280, Note_on_c, 0, 45, 64
4, 5369, Note_on_c, 0, 45, 0
4, 5376, Note_on_c, 0, 50, 64
4, 5465, Note_on_c, 0, 50, 0
4, 5472, Note_on_c, 0, 43, 64
4, 5561, Note_on_c, 0, 43, 0
4, 5616, Note_on_c, 0, 55, 64
4, 5661, Note_on_c, 0, 55, 0
4, 5664, Note_on_c, 0, 51, 64
4, 5709, Note_on_c, 0, 51, 0
4, 5712, Note_on_c, 0, 55, 64
4, 5757, Note_on_c, 0, 55, 0
4, 5760, Note_on_c, 0, 48, 64
4, 5849, Note_on_c, 0, 48, 0
4, 6048, Note_on_c, 0, 50, 64
4, 6137, Note_on_c, 0, 50, 0
4, 6336, Note_on_c, 0, 51, 64
4, 6425, Note_on_c, 0, 51, 0
4, 6432, Note_on_c, 0, 44, 64
4, 6521, Note_on_c, 0, 44, 0
4, 6528, Note_on_c, 0, 45, 64
4, 6617, Note_on_c, 0, 45, 0
4, 6624, Note_on_c, 0, 43, 64
4, 6713, Note_on_c, 0, 43, 0
4, 6768, Note_on_c, 0, 55, 64
4, 6813, Note_on_c, 0, 55, 0
4, 6816, Note_on_c, 0, 50, 64
4, 6861, Note_on_c, 0, 50, 0
4, 6864, Note_on_c, 0, 53, 64
4, 6909, Note_on_c, 0, 53, 0
4, 6912, Note_on_c, 0, 52, 64
4, 7001, Note_on_c, 0, 52, 0
4, 7200, Note_on_c, 0, 44, 64
4, 7289, Note_on_c, 0, 44, 0
4, 7488, Note_on_c, 0, 49, 64
4, 7577, Note_on_c, 0, 49, 0
4, 7584, Note_on_c, 0, 46, 64
4, 7673, Note_on_c, 0, 46, 0
4, 7680, Note_on_c, 0, 48, 64
4, 7769, Note_on_c, 0, 48, 0
4, 7776, Note_on_c, 0, 37, 64
4, 7865, Note_on_c, 0, 37, 0
4, 7920, Note_on_c, 0, 49, 64
4, 7965, Note_on_c, 0, 49, 0
4, 7968, Note_on_c, 0, 48, 64
4, 8013, Note_on_c, 0, 48, 0
4, 8016, Note_on_c, 0, 46, 64
4, 8061, Note_on_c, 0, 46, 0
4, 8064, Note_on_c, 0, 53, 64
4, 8153, Note_on_c, 0, 53, 0
4, 8352, Note_on_c, 0, 43, 64
4, 8441, Note_on_c, 0, 43, 0
4, 8544, Note_on_c, 0, 44, 64
4, 8633, Note_on_c, 0, 44, 0
4, 8640, Note_on_c, 0, 46, 64
4, 8729, Note_on_c, 0, 46, 0
4, 8736, Note_on_c, 0, 48, 64
4, 8825, Note_on_c, 0, 48, 0
4, 8832, Note_on_c, 0, 36, 64
4, 8921, Note_on_c, 0, 36, 0
4, 8928, Note_on_c, 0, 41, 64
4, 9017, Note_on_c, 0, 41, 0
4, 9072, Note_on_c, 0, 41, 64
4, 9117, Note_on_c, 0, 41, 0
4, 9120, Note_on_c, 0, 44, 64
4, 9165, Note_on_c, 0, 44, 0
4, 9168, Note_on_c, 0, 48, 64
4, 9213, Note_on_c, 0, 48, 0
4, 9216, Note_on_c, 0, 53, 64
4, 9305, Note_on_c, 0, 53, 0
4, 9408, Note_on_c, 0, 51, 64
4, 9497, Note_on_c, 0, 51, 0
4, 9504, Note_on_c, 0, 50, 64
4, 9593, Note_on_c, 0, 50, 0
4, 9696, Note_on_c, 0, 46, 64
4, 9785, Note_on_c, 0, 46, 0
4, 9792, Note_on_c, 0, 51, 64
4, 9881, Note_on_c, 0, 51, 0
4, 9984, Note_on_c, 0, 48, 64
4, 10073, Note_on_c, 0, 48, 0
4, 10080, Note_on_c, 0, 46, 64
4, 10169, Note_on_c, 0, 46, 0
4, 10224, Note_on_c, 0, 58, 64
4, 10269, Note_on_c, 0, 58, 0
4, 10272, Note_on_c, 0, 53, 64
4, 10317, Note_on_c, 0, 53, 0
4, 10320, Note_on_c, 0, 56, 64
4, 10365, Note_on_c, 0, 56, 0
4, 10368, Note_on_c, 0, 55, 64
4, 10457, Note_on_c, 0, 55, 0
4, 10560, Note_on_c, 0, 51, 64
4, 10649, Note_on_c, 0, 51, 0
4, 10656, Note_on_c, 0, 56, 64
4, 10745, Note_on_c, 0, 56, 0
4, 10848, Note_on_c, 0, 55, 64
4, 10937, Note_on_c, 0, 55, 0
4, 10944, Note_on_c, 0, 48, 64
4, 11033, Note_on_c, 0, 48, 0
4, 11136, Note_on_c, 0, 53, 64
4, 11225, Note_on_c, 0, 53, 0
4, 11232, Note_on_c, 0, 46, 64
4, 11321, Note_on_c, 0, 46, 0
4, 11376, Note_on_c, 0, 46, 64
4, 11421, Note_on_c, 0, 46, 0
4, 11424, Note_on_c, 0, 44, 64
4, 11469, Note_on_c, 0, 44, 0
4, 11472, Note_on_c, 0, 41, 64
4, 11517, Note_on_c, 0, 41, 0
4, 11520, Note_on_c, 0, 43, 64
4, 11609, Note_on_c, 0, 43, 0
4, 11712, Note_on_c, 0, 51, 64
4, 11801, Note_on_c, 0, 51, 0
4, 11808, Note_on_c, 0, 56, 64
4, 11897, Note_on_c, 0, 56, 0
4, 12000, Note_on_c, 0, 47, 64
4, 12089, Note_on_c, 0, 47, 0
4, 12096, Note_on_c, 0, 48, 64
4, 12185, Note_on_c, 0, 48, 0
4, 12288, Note_on_c, 0, 50, 64
4, 12377, Note_on_c, 0, 50, 0
4, 12384, Note_on_c, 0, 51, 64
4, 12473, Note_on_c, 0, 51, 0
4, 12576, Note_on_c, 0, 52, 64
4, 12665, Note_on_c, 0, 52, 0
4, 12672, Note_on_c, 0, 53, 64
4, 12761, Note_on_c, 0, 53, 0
4, 12864, Note_on_c, 0, 46, 64
4, 12953, Note_on_c, 0, 46, 0
4, 12960, Note_on_c, 0, 44, 64
4, 13049, Note_on_c, 0, 44, 0
4, 13152, Note_on_c, 0, 45, 64
4, 13241, Note_on_c, 0, 45, 0
4, 13248, Note_on_c, 0, 46, 64
4, 13337, Note_on_c, 0, 46, 0
4, 13392, Note_on_c, 0, 58, 64
4, 13437, Note_on_c, 0, 58, 0
4, 13440, Note_on_c, 0, 56, 64
4, 13485, Note_on_c, 0, 56, 0
4, 13488, Note_on_c, 0, 58, 64
4, 13533, Note_on_c, 0, 58, 0
4, 13536, Note_on_c, 0, 49, 64
4, 13625, Note_on_c, 0, 49, 0
4, 13680, Note_on_c, 0, 48, 64
4, 13725, Note_on_c, 0, 48, 0
4, 13728, Note_on_c, 0, 46, 64
4, 13773, Note_on_c, 0, 46, 0
4, 13776, Note_on_c, 0, 44, 64
4, 13821, Note_on_c, 0, 44, 0
4, 13824, Note_on_c, 0, 43, 64
4, 13913, Note_on_c, 0, 43, 0
4, 14016, Note_on_c, 0, 39, 64
4, 14105, Note_on_c, 0, 39, 0
4, 14112, Note_on_c, 0, 44, 64
4, 14201, Note_on_c, 0, 44, 0
4, 14304, Note_on_c, 0, 41, 64
4, 14393, Note_on_c, 0, 41, 0
4, 14400, Note_on_c, 0, 47, 64
4, 14489, Note_on_c, 0, 47, 0
4, 14592, Note_on_c, 0, 43, 64
4, 14681, Note_on_c, 0, 43, 0
4, 14688, Note_on_c, 0, 48, 64
4, 14777, Note_on_c, 0, 48, 0
4, 14880, Note_on_c, 0, 51, 64
4, 14969, Note_on_c, 0, 51, 0
4, 14976, Note_on_c, 0, 44, 64
4, 15065, Note_on_c, 0, 44, 0
4, 15168, Note_on_c, 0, 38, 64
4, 15257, Note_on_c, 0, 38, 0
4, 15264, Note_on_c, 0, 39, 64
4, 15353, Note_on_c, 0, 39, 0
4, 15456, Note_on_c, 0, 48, 64
4, 15545, Note_on_c, 0, 48, 0
4, 15552, Note_on_c, 0, 46, 64
4, 15641, Note_on_c, 0, 46, 0
4, 15696, Note_on_c, 0, 43, 64
4, 15741, Note_on_c, 0, 43, 0
4, 15744, Note_on_c, 0, 44, 64
4, 15789, Note_on_c, 0, 44, 0
4, 15792, Note_on_c, 0, 46, 64
4, 15837, Note_on_c, 0, 46, 0
4, 15840, Note_on_c, 0, 39, 64
4, 15929, Note_on_c, 0, 39, 0
4, 15984, Note_on_c, 0, 51, 64
4, 16029, Note_on_c, 0, 51, 0
4, 16032, Note_on_c, 0, 55, 64
4, 16077, Note_on_c, 0, 55, 0
4, 16080, Note_on_c, 0, 51, 64
4, 16125, Note_on_c, 0, 51, 0
4, 16128, Note_on_c, 0, 48, 64
4, 16217, Note_on_c, 0, 48, 0
4, 16416, Note_on_c, 0, 51, 64
4, 16505, Note_on_c, 0, 51, 0
4, 16704, Note_on_c, 0, 50, 64
4, 16793, Note_on_c, 0, 50, 0
4, 16896, Note_on_c, 0, 38, 64
4, 16985, Note_on_c, 0, 38, 0
4, 16992, Note_on_c, 0, 43, 64
4, 17257, Note_on_c, 0, 43, 0
4, 17257, End_track
5, 0, Start_track
5, 0, MIDI_port, 0
5, 0, Title_t, "Sonata No. 4 en Do menor"
5, 0, End_track
6, 0, Start_track
6, 0, MIDI_port, 0
6, 0, Title_t, "para violin y clavicembalo"
6, 0, End_track
7, 0, Start_track
7, 0, MIDI_port, 0
7, 0, Title_t, "Tercer Mov.: Adagio"
7, 0, End_track
8, 0, Start_track
8, 0, MIDI_port, 0
8, 0, Title_t, "J. S. Bach (1685-1750)"
8, 0, End_track
9, 0, Start_track
9, 0, MIDI_port, 0
9, 0, Title_t, "Copyright Luis Gerardo Barajas"
9, 0, End_track
10, 0, Start_track
10, 0, MIDI_port, 0
10, 0, Title_t, "*** Bach Keeps RuLiNg!!!"
10, 0, End_track
0, 0, End_of_file
