0, 0, Header, 1, 17, 480
1, 0, Start_track
1, 0, Title_t, "untitled"
1, 0, Copyright_t, "Copyright © 1996 by David J. Grossman"
1, 0, Text_t, "David J. Grossman"
1, 0, SMPTE_offset, 96, 0, 3, 0, 0
1, 0, Time_signature, 3, 2, 24, 8
1, 0, Key_signature, 2, "major"
1, 0, Tempo, 1071429
1, 0, Marker_t, "A"
1, 10080, Marker_t, "1."
1, 11520, Marker_t, "A'"
1, 21600, Marker_t, "2."
1, 23040, Marker_t, "B"
1, 57600, Marker_t, "B'"
1, 90720, Tempo, 2142857
1, 90720, End_track
2, 0, Start_track
2, 0, MIDI_port, 0
2, 0, Title_t, "Solo Violin"
2, 0, Program_c, 0, 40
2, 0, Control_c, 0, 7, 100
2, 0, Control_c, 0, 10, 69
2, 0, Note_on_c, 0, 78, 100
2, 480, Note_on_c, 0, 78, 0
2, 480, Note_on_c, 0, 79, 100
2, 960, Note_on_c, 0, 79, 0
2, 960, Note_on_c, 0, 78, 100
2, 1200, Note_on_c, 0, 78, 0
2, 1200, Note_on_c, 0, 76, 100
2, 1440, Note_on_c, 0, 76, 0
2, 1440, Note_on_c, 0, 78, 100
2, 2160, Note_on_c, 0, 78, 0
2, 2160, Note_on_c, 0, 76, 100
2, 2400, Note_on_c, 0, 76, 0
2, 2400, Note_on_c, 0, 74, 100
2, 2640, Note_on_c, 0, 74, 0
2, 2640, Note_on_c, 0, 73, 100
2, 2880, Note_on_c, 0, 73, 0
2, 2880, Note_on_c, 0, 71, 100
2, 3120, Note_on_c, 0, 71, 0
2, 3120, Note_on_c, 0, 76, 100
2, 3360, Note_on_c, 0, 76, 0
2, 3360, Note_on_c, 0, 74, 100
2, 3600, Note_on_c, 0, 74, 0
2, 3600, Note_on_c, 0, 73, 100
2, 3840, Note_on_c, 0, 73, 0
2, 3840, Note_on_c, 0, 74, 100
2, 4080, Note_on_c, 0, 74, 0
2, 4080, Note_on_c, 0, 71, 100
2, 4320, Note_on_c, 0, 71, 0
2, 4320, Note_on_c, 0, 70, 100
2, 5040, Note_on_c, 0, 70, 0
2, 5040, Note_on_c, 0, 67, 100
2, 5280, Note_on_c, 0, 67, 0
2, 5280, Note_on_c, 0, 66, 100
2, 5520, Note_on_c, 0, 66, 0
2, 5520, Note_on_c, 0, 64, 100
2, 5760, Note_on_c, 0, 64, 0
2, 5760, Note_on_c, 0, 62, 100
2, 6240, Note_on_c, 0, 62, 0
2, 6240, Note_on_c, 0, 61, 100
2, 6720, Note_on_c, 0, 61, 0
2, 6720, Note_on_c, 0, 59, 100
2, 7200, Note_on_c, 0, 59, 0
2, 7200, Note_on_c, 0, 57, 100
2, 8160, Note_on_c, 0, 57, 0
2, 8160, Note_on_c, 0, 58, 100
2, 8640, Note_on_c, 0, 58, 0
2, 8640, Note_on_c, 0, 59, 100
2, 9120, Note_on_c, 0, 59, 0
2, 10080, Note_on_c, 0, 78, 100
2, 10800, Note_on_c, 0, 78, 0
2, 11520, Note_on_c, 0, 78, 100
2, 12000, Note_on_c, 0, 78, 0
2, 12000, Note_on_c, 0, 79, 100
2, 12480, Note_on_c, 0, 79, 0
2, 12480, Note_on_c, 0, 78, 100
2, 12720, Note_on_c, 0, 78, 0
2, 12720, Note_on_c, 0, 76, 100
2, 12960, Note_on_c, 0, 76, 0
2, 12960, Note_on_c, 0, 78, 100
2, 13680, Note_on_c, 0, 78, 0
2, 13680, Note_on_c, 0, 76, 100
2, 13920, Note_on_c, 0, 76, 0
2, 13920, Note_on_c, 0, 74, 100
2, 14160, Note_on_c, 0, 74, 0
2, 14160, Note_on_c, 0, 73, 100
2, 14400, Note_on_c, 0, 73, 0
2, 14400, Note_on_c, 0, 71, 100
2, 14640, Note_on_c, 0, 71, 0
2, 14640, Note_on_c, 0, 76, 100
2, 14880, Note_on_c, 0, 76, 0
2, 14880, Note_on_c, 0, 74, 100
2, 15120, Note_on_c, 0, 74, 0
2, 15120, Note_on_c, 0, 73, 100
2, 15360, Note_on_c, 0, 73, 0
2, 15360, Note_on_c, 0, 74, 100
2, 15600, Note_on_c, 0, 74, 0
2, 15600, Note_on_c, 0, 71, 100
2, 15840, Note_on_c, 0, 71, 0
2, 15840, Note_on_c, 0, 70, 100
2, 16560, Note_on_c, 0, 70, 0
2, 16560, Note_on_c, 0, 67, 100
2, 16800, Note_on_c, 0, 67, 0
2, 16800, Note_on_c, 0, 66, 100
2, 17040, Note_on_c, 0, 66, 0
2, 17040, Note_on_c, 0, 64, 100
2, 17280, Note_on_c, 0, 64, 0
2, 17280, Note_on_c, 0, 62, 100
2, 17760, Note_on_c, 0, 62, 0
2, 17760, Note_on_c, 0, 61, 100
2, 18240, Note_on_c, 0, 61, 0
2, 18240, Note_on_c, 0, 59, 100
2, 18720, Note_on_c, 0, 59, 0
2, 18720, Note_on_c, 0, 57, 100
2, 19680, Note_on_c, 0, 57, 0
2, 19680, Note_on_c, 0, 58, 100
2, 20160, Note_on_c, 0, 58, 0
2, 20160, Note_on_c, 0, 59, 100
2, 20640, Note_on_c, 0, 59, 0
2, 21600, Note_on_c, 0, 78, 100
2, 23040, Note_on_c, 0, 78, 0
2, 23040, Note_on_c, 0, 82, 100
2, 23520, Note_on_c, 0, 82, 0
2, 23520, Note_on_c, 0, 82, 100
2, 24000, Note_on_c, 0, 82, 0
2, 24000, Note_on_c, 0, 82, 100
2, 24480, Note_on_c, 0, 82, 0
2, 25920, Note_on_c, 0, 71, 100
2, 26400, Note_on_c, 0, 71, 0
2, 26400, Note_on_c, 0, 73, 100
2, 26880, Note_on_c, 0, 73, 0
2, 26880, Note_on_c, 0, 76, 100
2, 27360, Note_on_c, 0, 76, 0
2, 27360, Note_on_c, 0, 81, 100
2, 28080, Note_on_c, 0, 81, 0
2, 31200, Note_on_c, 0, 71, 100
2, 31680, Note_on_c, 0, 71, 0
2, 31680, Note_on_c, 0, 69, 100
2, 32160, Note_on_c, 0, 69, 0
2, 32160, Note_on_c, 0, 67, 100
2, 32640, Note_on_c, 0, 67, 0
2, 32640, Note_on_c, 0, 66, 100
2, 33120, Note_on_c, 0, 66, 0
2, 33120, Note_on_c, 0, 64, 100
2, 33840, Note_on_c, 0, 64, 0
2, 34560, Note_on_c, 0, 67, 100
2, 35040, Note_on_c, 0, 67, 0
2, 35520, Note_on_c, 0, 67, 100
2, 36000, Note_on_c, 0, 67, 0
2, 36000, Note_on_c, 0, 66, 100
2, 36480, Note_on_c, 0, 66, 0
2, 36480, Note_on_c, 0, 64, 100
2, 36960, Note_on_c, 0, 64, 0
2, 36960, Note_on_c, 0, 62, 100
2, 37440, Note_on_c, 0, 62, 0
2, 37440, Note_on_c, 0, 55, 100
2, 37920, Note_on_c, 0, 55, 0
2, 40320, Note_on_c, 0, 61, 100
2, 40800, Note_on_c, 0, 61, 0
2, 41760, Note_on_c, 0, 59, 100
2, 42720, Note_on_c, 0, 59, 0
2, 42720, Note_on_c, 0, 57, 100
2, 43200, Note_on_c, 0, 57, 0
2, 43200, Note_on_c, 0, 55, 100
2, 43680, Note_on_c, 0, 55, 0
2, 49920, Note_on_c, 0, 71, 100
2, 50400, Note_on_c, 0, 71, 0
2, 50400, Note_on_c, 0, 70, 100
2, 50640, Note_on_c, 0, 70, 0
2, 50640, Note_on_c, 0, 71, 100
2, 50880, Note_on_c, 0, 71, 0
2, 50880, Note_on_c, 0, 73, 100
2, 51120, Note_on_c, 0, 73, 0
2, 51120, Note_on_c, 0, 76, 100
2, 51360, Note_on_c, 0, 76, 0
2, 51360, Note_on_c, 0, 82, 100
2, 51600, Note_on_c, 0, 82, 0
2, 51600, Note_on_c, 0, 76, 100
2, 51840, Note_on_c, 0, 76, 0
2, 51840, Note_on_c, 0, 74, 100
2, 52320, Note_on_c, 0, 74, 0
2, 52320, Note_on_c, 0, 73, 100
2, 52800, Note_on_c, 0, 73, 0
2, 52800, Note_on_c, 0, 71, 100
2, 53280, Note_on_c, 0, 71, 0
2, 53280, Note_on_c, 0, 70, 100
2, 53520, Note_on_c, 0, 70, 0
2, 53520, Note_on_c, 0, 79, 100
2, 53760, Note_on_c, 0, 79, 0
2, 53760, Note_on_c, 0, 78, 100
2, 54000, Note_on_c, 0, 78, 0
2, 54000, Note_on_c, 0, 76, 100
2, 54240, Note_on_c, 0, 76, 0
2, 54240, Note_on_c, 0, 74, 100
2, 54720, Note_on_c, 0, 74, 0
2, 54960, Note_on_c, 0, 73, 100
2, 55200, Note_on_c, 0, 73, 0
2, 55200, Note_on_c, 0, 73, 100
2, 55200, Pitch_bend_c, 0, 12288
2, 55260, Pitch_bend_c, 0, 8192
2, 55320, Pitch_bend_c, 0, 12288
2, 55380, Pitch_bend_c, 0, 8192
2, 55440, Pitch_bend_c, 0, 12288
2, 55480, Pitch_bend_c, 0, 8192
2, 55520, Pitch_bend_c, 0, 12288
2, 55560, Pitch_bend_c, 0, 8192
2, 55600, Pitch_bend_c, 0, 12288
2, 55640, Pitch_bend_c, 0, 8192
2, 55680, Pitch_bend_c, 0, 12288
2, 55710, Pitch_bend_c, 0, 8192
2, 55740, Pitch_bend_c, 0, 12288
2, 55770, Pitch_bend_c, 0, 8192
2, 55800, Pitch_bend_c, 0, 12288
2, 55830, Pitch_bend_c, 0, 8192
2, 55860, Pitch_bend_c, 0, 12288
2, 55890, Pitch_bend_c, 0, 8192
2, 55920, Note_on_c, 0, 73, 0
2, 55920, Note_on_c, 0, 71, 100
2, 56160, Note_on_c, 0, 71, 0
2, 56160, Note_on_c, 0, 71, 100
2, 57600, Note_on_c, 0, 71, 0
2, 57600, Note_on_c, 0, 82, 100
2, 58080, Note_on_c, 0, 82, 0
2, 58080, Note_on_c, 0, 82, 100
2, 58560, Note_on_c, 0, 82, 0
2, 58560, Note_on_c, 0, 82, 100
2, 59040, Note_on_c, 0, 82, 0
2, 60480, Note_on_c, 0, 71, 100
2, 60960, Note_on_c, 0, 71, 0
2, 60960, Note_on_c, 0, 73, 100
2, 61440, Note_on_c, 0, 73, 0
2, 61440, Note_on_c, 0, 76, 100
2, 61920, Note_on_c, 0, 76, 0
2, 61920, Note_on_c, 0, 73, 100
2, 62640, Note_on_c, 0, 73, 0
2, 65760, Note_on_c, 0, 71, 100
2, 66240, Note_on_c, 0, 71, 0
2, 66240, Note_on_c, 0, 69, 100
2, 66720, Note_on_c, 0, 69, 0
2, 66720, Note_on_c, 0, 67, 100
2, 67200, Note_on_c, 0, 67, 0
2, 67200, Note_on_c, 0, 66, 100
2, 67680, Note_on_c, 0, 66, 0
2, 67680, Note_on_c, 0, 64, 100
2, 68400, Note_on_c, 0, 64, 0
2, 69120, Note_on_c, 0, 67, 100
2, 69600, Note_on_c, 0, 67, 0
2, 70080, Note_on_c, 0, 67, 100
2, 70560, Note_on_c, 0, 67, 0
2, 70560, Note_on_c, 0, 66, 100
2, 71040, Note_on_c, 0, 66, 0
2, 71040, Note_on_c, 0, 64, 100
2, 71520, Note_on_c, 0, 64, 0
2, 71520, Note_on_c, 0, 62, 100
2, 72000, Note_on_c, 0, 62, 0
2, 72000, Note_on_c, 0, 55, 100
2, 72480, Note_on_c, 0, 55, 0
2, 74880, Note_on_c, 0, 61, 100
2, 75360, Note_on_c, 0, 61, 0
2, 76320, Note_on_c, 0, 59, 100
2, 77280, Note_on_c, 0, 59, 0
2, 77280, Note_on_c, 0, 57, 100
2, 77760, Note_on_c, 0, 57, 0
2, 77760, Note_on_c, 0, 55, 100
2, 78240, Note_on_c, 0, 55, 0
2, 84480, Note_on_c, 0, 71, 100
2, 84960, Note_on_c, 0, 71, 0
2, 84960, Note_on_c, 0, 70, 100
2, 85200, Note_on_c, 0, 70, 0
2, 85200, Note_on_c, 0, 71, 100
2, 85440, Note_on_c, 0, 71, 0
2, 85440, Note_on_c, 0, 73, 100
2, 85680, Note_on_c, 0, 73, 0
2, 85680, Note_on_c, 0, 76, 100
2, 85920, Note_on_c, 0, 76, 0
2, 85920, Note_on_c, 0, 82, 100
2, 86160, Note_on_c, 0, 82, 0
2, 86160, Note_on_c, 0, 76, 100
2, 86400, Note_on_c, 0, 76, 0
2, 86400, Note_on_c, 0, 74, 100
2, 86880, Note_on_c, 0, 74, 0
2, 86880, Note_on_c, 0, 73, 100
2, 87360, Note_on_c, 0, 73, 0
2, 87360, Note_on_c, 0, 71, 100
2, 87840, Note_on_c, 0, 71, 0
2, 87840, Note_on_c, 0, 70, 100
2, 88080, Note_on_c, 0, 70, 0
2, 88080, Note_on_c, 0, 79, 100
2, 88320, Note_on_c, 0, 79, 0
2, 88320, Note_on_c, 0, 78, 100
2, 88560, Note_on_c, 0, 78, 0
2, 88560, Note_on_c, 0, 76, 100
2, 88800, Note_on_c, 0, 76, 0
2, 88800, Note_on_c, 0, 74, 100
2, 89280, Note_on_c, 0, 74, 0
2, 89520, Note_on_c, 0, 73, 100
2, 89760, Note_on_c, 0, 73, 0
2, 89760, Pitch_bend_c, 0, 12288
2, 89760, Note_on_c, 0, 73, 100
2, 89820, Pitch_bend_c, 0, 8192
2, 89880, Pitch_bend_c, 0, 12288
2, 89940, Pitch_bend_c, 0, 8192
2, 90000, Pitch_bend_c, 0, 12288
2, 90040, Pitch_bend_c, 0, 8192
2, 90080, Pitch_bend_c, 0, 12288
2, 90120, Pitch_bend_c, 0, 8192
2, 90160, Pitch_bend_c, 0, 12288
2, 90200, Pitch_bend_c, 0, 8192
2, 90240, Pitch_bend_c, 0, 12288
2, 90270, Pitch_bend_c, 0, 8192
2, 90300, Pitch_bend_c, 0, 12288
2, 90330, Pitch_bend_c, 0, 8192
2, 90360, Pitch_bend_c, 0, 12288
2, 90390, Pitch_bend_c, 0, 8192
2, 90420, Pitch_bend_c, 0, 12288
2, 90450, Pitch_bend_c, 0, 8192
2, 90480, Note_on_c, 0, 73, 0
2, 90480, Note_on_c, 0, 71, 100
2, 90720, Note_on_c, 0, 71, 0
2, 90720, Note_on_c, 0, 71, 100
2, 92160, Note_on_c, 0, 71, 0
2, 92160, End_track
3, 0, Start_track
3, 0, MIDI_port, 0
3, 0, Title_t, "--------------------------------------"
3, 0, Program_c, 1, 40
3, 0, Control_c, 1, 7, 100
3, 0, Control_c, 1, 10, 59
3, 0, Note_on_c, 1, 74, 100
3, 480, Note_on_c, 1, 74, 0
3, 480, Note_on_c, 1, 74, 100
3, 960, Note_on_c, 1, 74, 0
3, 960, Note_on_c, 1, 73, 100
3, 1440, Note_on_c, 1, 73, 0
3, 1440, Note_on_c, 1, 74, 100
3, 2160, Note_on_c, 1, 74, 0
3, 5760, Note_on_c, 1, 71, 100
3, 6240, Note_on_c, 1, 71, 0
3, 6240, Note_on_c, 1, 69, 100
3, 6720, Note_on_c, 1, 69, 0
3, 6720, Note_on_c, 1, 67, 100
3, 6840, Note_on_c, 1, 67, 0
3, 6840, Note_on_c, 1, 66, 100
3, 6960, Note_on_c, 1, 66, 0
3, 6960, Note_on_c, 1, 67, 100
3, 7200, Note_on_c, 1, 67, 0
3, 7200, Note_on_c, 1, 73, 100
3, 7920, Note_on_c, 1, 73, 0
3, 7920, Note_on_c, 1, 74, 100
3, 8160, Note_on_c, 1, 74, 0
3, 8160, Note_on_c, 1, 76, 100
3, 8640, Note_on_c, 1, 76, 0
3, 8640, Note_on_c, 1, 76, 100
3, 8880, Note_on_c, 1, 76, 0
3, 8880, Note_on_c, 1, 74, 100
3, 9120, Note_on_c, 1, 74, 0
3, 9120, Note_on_c, 1, 76, 100
3, 9360, Note_on_c, 1, 76, 0
3, 9360, Note_on_c, 1, 74, 100
3, 9600, Note_on_c, 1, 74, 0
3, 9600, Note_on_c, 1, 73, 100
3, 9840, Note_on_c, 1, 73, 0
3, 9840, Note_on_c, 1, 71, 100
3, 10080, Note_on_c, 1, 71, 0
3, 10080, Note_on_c, 1, 73, 100
3, 10800, Note_on_c, 1, 73, 0
3, 11520, Note_on_c, 1, 74, 100
3, 12000, Note_on_c, 1, 74, 0
3, 12000, Note_on_c, 1, 74, 100
3, 12480, Note_on_c, 1, 74, 0
3, 12480, Note_on_c, 1, 73, 100
3, 12960, Note_on_c, 1, 73, 0
3, 12960, Note_on_c, 1, 74, 100
3, 13680, Note_on_c, 1, 74, 0
3, 17280, Note_on_c, 1, 71, 100
3, 17760, Note_on_c, 1, 71, 0
3, 17760, Note_on_c, 1, 69, 100
3, 18240, Note_on_c, 1, 69, 0
3, 18240, Note_on_c, 1, 67, 100
3, 18360, Note_on_c, 1, 67, 0
3, 18360, Note_on_c, 1, 66, 100
3, 18480, Note_on_c, 1, 66, 0
3, 18480, Note_on_c, 1, 67, 100
3, 18720, Note_on_c, 1, 67, 0
3, 18720, Note_on_c, 1, 73, 100
3, 19440, Note_on_c, 1, 73, 0
3, 19440, Note_on_c, 1, 74, 100
3, 19680, Note_on_c, 1, 74, 0
3, 19680, Note_on_c, 1, 76, 100
3, 20160, Note_on_c, 1, 76, 0
3, 20160, Note_on_c, 1, 76, 100
3, 20400, Note_on_c, 1, 76, 0
3, 20400, Note_on_c, 1, 74, 100
3, 20640, Note_on_c, 1, 74, 0
3, 20640, Note_on_c, 1, 76, 100
3, 20880, Note_on_c, 1, 76, 0
3, 20880, Note_on_c, 1, 74, 100
3, 21120, Note_on_c, 1, 74, 0
3, 21120, Note_on_c, 1, 73, 100
3, 21360, Note_on_c, 1, 73, 0
3, 21360, Note_on_c, 1, 71, 100
3, 21600, Note_on_c, 1, 71, 0
3, 21600, Note_on_c, 1, 73, 100
3, 23040, Note_on_c, 1, 73, 0
3, 23040, Note_on_c, 1, 73, 100
3, 23520, Note_on_c, 1, 73, 0
3, 23520, Note_on_c, 1, 73, 100
3, 24000, Note_on_c, 1, 73, 0
3, 24000, Note_on_c, 1, 73, 100
3, 24480, Note_on_c, 1, 73, 0
3, 24480, Note_on_c, 1, 71, 100
3, 24720, Note_on_c, 1, 71, 0
3, 24720, Note_on_c, 1, 78, 100
3, 24960, Note_on_c, 1, 78, 0
3, 24960, Note_on_c, 1, 83, 100
3, 25200, Note_on_c, 1, 83, 0
3, 25200, Note_on_c, 1, 81, 100
3, 25440, Note_on_c, 1, 81, 0
3, 25440, Note_on_c, 1, 80, 100
3, 25680, Note_on_c, 1, 80, 0
3, 25680, Note_on_c, 1, 78, 100
3, 25920, Note_on_c, 1, 78, 0
3, 25920, Note_on_c, 1, 76, 100
3, 26400, Note_on_c, 1, 76, 0
3, 26400, Note_on_c, 1, 78, 100
3, 26880, Note_on_c, 1, 78, 0
3, 26880, Note_on_c, 1, 80, 100
3, 27360, Note_on_c, 1, 80, 0
3, 27360, Note_on_c, 1, 73, 100
3, 28080, Note_on_c, 1, 73, 0
3, 28080, Note_on_c, 1, 79, 100
3, 28320, Note_on_c, 1, 79, 0
3, 28320, Note_on_c, 1, 78, 100
3, 28560, Note_on_c, 1, 78, 0
3, 28560, Note_on_c, 1, 76, 100
3, 28800, Note_on_c, 1, 76, 0
3, 28800, Note_on_c, 1, 75, 100
3, 29040, Note_on_c, 1, 75, 0
3, 29040, Note_on_c, 1, 84, 100
3, 29280, Note_on_c, 1, 84, 0
3, 29280, Note_on_c, 1, 83, 100
3, 29520, Note_on_c, 1, 83, 0
3, 29520, Note_on_c, 1, 76, 100
3, 29760, Note_on_c, 1, 76, 0
3, 29760, Note_on_c, 1, 75, 100
3, 30000, Note_on_c, 1, 75, 0
3, 30000, Note_on_c, 1, 81, 100
3, 30240, Note_on_c, 1, 81, 0
3, 30240, Note_on_c, 1, 72, 100
3, 30360, Note_on_c, 1, 72, 0
3, 30360, Note_on_c, 1, 71, 100
3, 30480, Note_on_c, 1, 71, 0
3, 30480, Note_on_c, 1, 72, 100
3, 30600, Note_on_c, 1, 72, 0
3, 30600, Note_on_c, 1, 69, 100
3, 30720, Note_on_c, 1, 69, 0
3, 30720, Note_on_c, 1, 71, 100
3, 30960, Note_on_c, 1, 71, 0
3, 30960, Note_on_c, 1, 81, 100
3, 31200, Note_on_c, 1, 81, 0
3, 31200, Note_on_c, 1, 79, 100
3, 31680, Note_on_c, 1, 79, 0
3, 31680, Note_on_c, 1, 79, 100
3, 31920, Note_on_c, 1, 79, 0
3, 31920, Note_on_c, 1, 78, 100
3, 32160, Note_on_c, 1, 78, 0
3, 32160, Note_on_c, 1, 78, 100
3, 32400, Note_on_c, 1, 78, 0
3, 32400, Note_on_c, 1, 76, 100
3, 32640, Note_on_c, 1, 76, 0
3, 32640, Note_on_c, 1, 76, 100
3, 32880, Note_on_c, 1, 76, 0
3, 32880, Note_on_c, 1, 75, 100
3, 33120, Note_on_c, 1, 75, 0
3, 33120, Note_on_c, 1, 76, 100
3, 33840, Note_on_c, 1, 76, 0
3, 34560, Note_on_c, 1, 76, 100
3, 35040, Note_on_c, 1, 76, 0
3, 35040, Note_on_c, 1, 74, 100
3, 35280, Note_on_c, 1, 74, 0
3, 35280, Note_on_c, 1, 73, 100
3, 35520, Note_on_c, 1, 73, 0
3, 35520, Note_on_c, 1, 71, 100
3, 35760, Note_on_c, 1, 71, 0
3, 35760, Note_on_c, 1, 69, 100
3, 36000, Note_on_c, 1, 69, 0
3, 36960, Note_on_c, 1, 69, 100
3, 37440, Note_on_c, 1, 69, 0
3, 37440, Note_on_c, 1, 71, 100
3, 37920, Note_on_c, 1, 71, 0
3, 37920, Note_on_c, 1, 73, 100
3, 38400, Note_on_c, 1, 73, 0
3, 38400, Note_on_c, 1, 74, 100
3, 38880, Note_on_c, 1, 74, 0
3, 38880, Note_on_c, 1, 73, 100
3, 39600, Note_on_c, 1, 73, 0
3, 39600, Note_on_c, 1, 74, 100
3, 39840, Note_on_c, 1, 74, 0
3, 39840, Note_on_c, 1, 76, 100
3, 40080, Note_on_c, 1, 76, 0
3, 40080, Note_on_c, 1, 73, 100
3, 40320, Note_on_c, 1, 73, 0
3, 40320, Note_on_c, 1, 71, 100
3, 40560, Note_on_c, 1, 71, 0
3, 40560, Note_on_c, 1, 70, 100
3, 40680, Note_on_c, 1, 70, 0
3, 40680, Note_on_c, 1, 79, 100
3, 40800, Note_on_c, 1, 79, 0
3, 40800, Note_on_c, 1, 78, 100
3, 41040, Note_on_c, 1, 78, 0
3, 41040, Note_on_c, 1, 76, 100
3, 41280, Note_on_c, 1, 76, 0
3, 41280, Note_on_c, 1, 74, 100
3, 41520, Note_on_c, 1, 74, 0
3, 41520, Note_on_c, 1, 73, 100
3, 41760, Note_on_c, 1, 73, 0
3, 41760, Note_on_c, 1, 74, 100
3, 42480, Note_on_c, 1, 74, 0
3, 42480, Note_on_c, 1, 76, 100
3, 42720, Note_on_c, 1, 76, 0
3, 42720, Note_on_c, 1, 78, 100
3, 43200, Note_on_c, 1, 78, 0
3, 43200, Note_on_c, 1, 78, 100
3, 43680, Note_on_c, 1, 78, 0
3, 43680, Note_on_c, 1, 76, 100
3, 43920, Note_on_c, 1, 76, 0
3, 43920, Note_on_c, 1, 74, 100
3, 44160, Note_on_c, 1, 74, 0
3, 44160, Note_on_c, 1, 73, 100
3, 44400, Note_on_c, 1, 73, 0
3, 44400, Note_on_c, 1, 71, 100
3, 44640, Note_on_c, 1, 71, 0
3, 44640, Note_on_c, 1, 70, 100
3, 45360, Note_on_c, 1, 70, 0
3, 45360, Note_on_c, 1, 67, 100
3, 45600, Note_on_c, 1, 67, 0
3, 45600, Note_on_c, 1, 66, 100
3, 45840, Note_on_c, 1, 66, 0
3, 45840, Note_on_c, 1, 64, 100
3, 46080, Note_on_c, 1, 64, 0
3, 46080, Note_on_c, 1, 62, 100
3, 46560, Note_on_c, 1, 62, 0
3, 46560, Note_on_c, 1, 61, 100
3, 47040, Note_on_c, 1, 61, 0
3, 47040, Note_on_c, 1, 59, 100
3, 47520, Note_on_c, 1, 59, 0
3, 48960, Note_on_c, 1, 64, 100
3, 49440, Note_on_c, 1, 64, 0
3, 49440, Note_on_c, 1, 62, 100
3, 49920, Note_on_c, 1, 62, 0
3, 49920, Note_on_c, 1, 61, 100
3, 50400, Note_on_c, 1, 61, 0
3, 51840, Note_on_c, 1, 83, 100
3, 52320, Note_on_c, 1, 83, 0
3, 52320, Note_on_c, 1, 81, 100
3, 52800, Note_on_c, 1, 81, 0
3, 52800, Note_on_c, 1, 79, 100
3, 53280, Note_on_c, 1, 79, 0
3, 53280, Note_on_c, 1, 64, 100
3, 53520, Note_on_c, 1, 64, 0
3, 54240, Note_on_c, 1, 66, 100
3, 54720, Note_on_c, 1, 66, 0
3, 56160, Note_on_c, 1, 66, 100
3, 57600, Note_on_c, 1, 66, 0
3, 57600, Note_on_c, 1, 73, 100
3, 58080, Note_on_c, 1, 73, 0
3, 58080, Note_on_c, 1, 73, 100
3, 58560, Note_on_c, 1, 73, 0
3, 58560, Note_on_c, 1, 73, 100
3, 59040, Note_on_c, 1, 73, 0
3, 59040, Note_on_c, 1, 71, 100
3, 59280, Note_on_c, 1, 71, 0
3, 59280, Note_on_c, 1, 78, 100
3, 59520, Note_on_c, 1, 78, 0
3, 59520, Note_on_c, 1, 83, 100
3, 59760, Note_on_c, 1, 83, 0
3, 59760, Note_on_c, 1, 81, 100
3, 60000, Note_on_c, 1, 81, 0
3, 60000, Note_on_c, 1, 80, 100
3, 60240, Note_on_c, 1, 80, 0
3, 60240, Note_on_c, 1, 78, 100
3, 60480, Note_on_c, 1, 78, 0
3, 60480, Note_on_c, 1, 76, 100
3, 60960, Note_on_c, 1, 76, 0
3, 60960, Note_on_c, 1, 78, 100
3, 61440, Note_on_c, 1, 78, 0
3, 61440, Note_on_c, 1, 80, 100
3, 61920, Note_on_c, 1, 80, 0
3, 61920, Note_on_c, 1, 81, 100
3, 62640, Note_on_c, 1, 81, 0
3, 62640, Note_on_c, 1, 79, 100
3, 62880, Note_on_c, 1, 79, 0
3, 62880, Note_on_c, 1, 78, 100
3, 63120, Note_on_c, 1, 78, 0
3, 63120, Note_on_c, 1, 76, 100
3, 63360, Note_on_c, 1, 76, 0
3, 63360, Note_on_c, 1, 75, 100
3, 63600, Note_on_c, 1, 75, 0
3, 63600, Note_on_c, 1, 84, 100
3, 63840, Note_on_c, 1, 84, 0
3, 63840, Note_on_c, 1, 83, 100
3, 64080, Note_on_c, 1, 83, 0
3, 64080, Note_on_c, 1, 76, 100
3, 64320, Note_on_c, 1, 76, 0
3, 64320, Note_on_c, 1, 75, 100
3, 64560, Note_on_c, 1, 75, 0
3, 64560, Note_on_c, 1, 81, 100
3, 64800, Note_on_c, 1, 81, 0
3, 64800, Note_on_c, 1, 72, 100
3, 64920, Note_on_c, 1, 72, 0
3, 64920, Note_on_c, 1, 71, 100
3, 65040, Note_on_c, 1, 71, 0
3, 65040, Note_on_c, 1, 72, 100
3, 65160, Note_on_c, 1, 72, 0
3, 65160, Note_on_c, 1, 69, 100
3, 65280, Note_on_c, 1, 69, 0
3, 65280, Note_on_c, 1, 71, 100
3, 65520, Note_on_c, 1, 71, 0
3, 65520, Note_on_c, 1, 81, 100
3, 65760, Note_on_c, 1, 81, 0
3, 65760, Note_on_c, 1, 79, 100
3, 66240, Note_on_c, 1, 79, 0
3, 66240, Note_on_c, 1, 79, 100
3, 66480, Note_on_c, 1, 79, 0
3, 66480, Note_on_c, 1, 78, 100
3, 66720, Note_on_c, 1, 78, 0
3, 66720, Note_on_c, 1, 78, 100
3, 66960, Note_on_c, 1, 78, 0
3, 66960, Note_on_c, 1, 76, 100
3, 67200, Note_on_c, 1, 76, 0
3, 67200, Note_on_c, 1, 76, 100
3, 67440, Note_on_c, 1, 76, 0
3, 67440, Note_on_c, 1, 75, 100
3, 67680, Note_on_c, 1, 75, 0
3, 67680, Note_on_c, 1, 76, 100
3, 68400, Note_on_c, 1, 76, 0
3, 69120, Note_on_c, 1, 76, 100
3, 69600, Note_on_c, 1, 76, 0
3, 69600, Note_on_c, 1, 74, 100
3, 69840, Note_on_c, 1, 74, 0
3, 69840, Note_on_c, 1, 73, 100
3, 70080, Note_on_c, 1, 73, 0
3, 70080, Note_on_c, 1, 71, 100
3, 70320, Note_on_c, 1, 71, 0
3, 70320, Note_on_c, 1, 69, 100
3, 70560, Note_on_c, 1, 69, 0
3, 71520, Note_on_c, 1, 69, 100
3, 72000, Note_on_c, 1, 69, 0
3, 72000, Note_on_c, 1, 71, 100
3, 72480, Note_on_c, 1, 71, 0
3, 72480, Note_on_c, 1, 73, 100
3, 72960, Note_on_c, 1, 73, 0
3, 72960, Note_on_c, 1, 74, 100
3, 73440, Note_on_c, 1, 74, 0
3, 73440, Note_on_c, 1, 73, 100
3, 74160, Note_on_c, 1, 73, 0
3, 74160, Note_on_c, 1, 74, 100
3, 74400, Note_on_c, 1, 74, 0
3, 74400, Note_on_c, 1, 76, 100
3, 74640, Note_on_c, 1, 76, 0
3, 74640, Note_on_c, 1, 73, 100
3, 74880, Note_on_c, 1, 73, 0
3, 74880, Note_on_c, 1, 71, 100
3, 75120, Note_on_c, 1, 71, 0
3, 75120, Note_on_c, 1, 70, 100
3, 75240, Note_on_c, 1, 70, 0
3, 75240, Note_on_c, 1, 79, 100
3, 75360, Note_on_c, 1, 79, 0
3, 75360, Note_on_c, 1, 78, 100
3, 75600, Note_on_c, 1, 78, 0
3, 75600, Note_on_c, 1, 76, 100
3, 75840, Note_on_c, 1, 76, 0
3, 75840, Note_on_c, 1, 74, 100
3, 76080, Note_on_c, 1, 74, 0
3, 76080, Note_on_c, 1, 73, 100
3, 76320, Note_on_c, 1, 73, 0
3, 76320, Note_on_c, 1, 74, 100
3, 77040, Note_on_c, 1, 74, 0
3, 77040, Note_on_c, 1, 76, 100
3, 77280, Note_on_c, 1, 76, 0
3, 77280, Note_on_c, 1, 78, 100
3, 77760, Note_on_c, 1, 78, 0
3, 77760, Note_on_c, 1, 78, 100
3, 78240, Note_on_c, 1, 78, 0
3, 78240, Note_on_c, 1, 76, 100
3, 78480, Note_on_c, 1, 76, 0
3, 78480, Note_on_c, 1, 74, 100
3, 78720, Note_on_c, 1, 74, 0
3, 78720, Note_on_c, 1, 73, 100
3, 78960, Note_on_c, 1, 73, 0
3, 78960, Note_on_c, 1, 71, 100
3, 79200, Note_on_c, 1, 71, 0
3, 79200, Note_on_c, 1, 70, 100
3, 79920, Note_on_c, 1, 70, 0
3, 79920, Note_on_c, 1, 67, 100
3, 80160, Note_on_c, 1, 67, 0
3, 80160, Note_on_c, 1, 66, 100
3, 80400, Note_on_c, 1, 66, 0
3, 80400, Note_on_c, 1, 64, 100
3, 80640, Note_on_c, 1, 64, 0
3, 80640, Note_on_c, 1, 62, 100
3, 81120, Note_on_c, 1, 62, 0
3, 81120, Note_on_c, 1, 61, 100
3, 81600, Note_on_c, 1, 61, 0
3, 81600, Note_on_c, 1, 59, 100
3, 82080, Note_on_c, 1, 59, 0
3, 83520, Note_on_c, 1, 64, 100
3, 84000, Note_on_c, 1, 64, 0
3, 84000, Note_on_c, 1, 62, 100
3, 84480, Note_on_c, 1, 62, 0
3, 84480, Note_on_c, 1, 61, 100
3, 84960, Note_on_c, 1, 61, 0
3, 86400, Note_on_c, 1, 83, 100
3, 86880, Note_on_c, 1, 83, 0
3, 86880, Note_on_c, 1, 81, 100
3, 87360, Note_on_c, 1, 81, 0
3, 87360, Note_on_c, 1, 79, 100
3, 87840, Note_on_c, 1, 79, 0
3, 87840, Note_on_c, 1, 64, 100
3, 88080, Note_on_c, 1, 64, 0
3, 88800, Note_on_c, 1, 66, 100
3, 89280, Note_on_c, 1, 66, 0
3, 90720, Note_on_c, 1, 66, 100
3, 92160, Note_on_c, 1, 66, 0
3, 92160, End_track
4, 0, Start_track
4, 0, MIDI_port, 0
4, 0, Title_t, "Johann Sebastian Bach  (1685-1750)"
4, 0, Program_c, 2, 40
4, 0, Control_c, 2, 7, 100
4, 0, Control_c, 2, 10, 79
4, 0, Note_on_c, 2, 66, 100
4, 480, Note_on_c, 2, 66, 0
4, 480, Note_on_c, 2, 64, 100
4, 960, Note_on_c, 2, 64, 0
4, 960, Note_on_c, 2, 69, 100
4, 1440, Note_on_c, 2, 69, 0
4, 1440, Note_on_c, 2, 62, 100
4, 2160, Note_on_c, 2, 62, 0
4, 2880, Note_on_c, 2, 67, 100
4, 3360, Note_on_c, 2, 67, 0
4, 3360, Note_on_c, 2, 64, 100
4, 3840, Note_on_c, 2, 64, 0
4, 3840, Note_on_c, 2, 65, 100
4, 4320, Note_on_c, 2, 65, 0
4, 4320, Note_on_c, 2, 66, 100
4, 5040, Note_on_c, 2, 66, 0
4, 5760, Note_on_c, 2, 66, 100
4, 6240, Note_on_c, 2, 66, 0
4, 6240, Note_on_c, 2, 64, 100
4, 6720, Note_on_c, 2, 64, 0
4, 7200, Note_on_c, 2, 67, 100
4, 8160, Note_on_c, 2, 67, 0
4, 8160, Note_on_c, 2, 66, 100
4, 8640, Note_on_c, 2, 66, 0
4, 8640, Note_on_c, 2, 66, 100
4, 9120, Note_on_c, 2, 66, 0
4, 9120, Note_on_c, 2, 67, 100
4, 10080, Note_on_c, 2, 67, 0
4, 10080, Note_on_c, 2, 66, 100
4, 10800, Note_on_c, 2, 66, 0
4, 11520, Note_on_c, 2, 66, 100
4, 12000, Note_on_c, 2, 66, 0
4, 12000, Note_on_c, 2, 64, 100
4, 12480, Note_on_c, 2, 64, 0
4, 12480, Note_on_c, 2, 69, 100
4, 12960, Note_on_c, 2, 69, 0
4, 12960, Note_on_c, 2, 62, 100
4, 13680, Note_on_c, 2, 62, 0
4, 14400, Note_on_c, 2, 67, 100
4, 14880, Note_on_c, 2, 67, 0
4, 14880, Note_on_c, 2, 64, 100
4, 15360, Note_on_c, 2, 64, 0
4, 15360, Note_on_c, 2, 65, 100
4, 15840, Note_on_c, 2, 65, 0
4, 15840, Note_on_c, 2, 66, 100
4, 16560, Note_on_c, 2, 66, 0
4, 17280, Note_on_c, 2, 66, 100
4, 17760, Note_on_c, 2, 66, 0
4, 17760, Note_on_c, 2, 64, 100
4, 18240, Note_on_c, 2, 64, 0
4, 18720, Note_on_c, 2, 67, 100
4, 19680, Note_on_c, 2, 67, 0
4, 19680, Note_on_c, 2, 66, 100
4, 20160, Note_on_c, 2, 66, 0
4, 20160, Note_on_c, 2, 66, 100
4, 20640, Note_on_c, 2, 66, 0
4, 20640, Note_on_c, 2, 67, 100
4, 21600, Note_on_c, 2, 67, 0
4, 21600, Note_on_c, 2, 66, 100
4, 23040, Note_on_c, 2, 66, 0
4, 23040, Note_on_c, 2, 66, 100
4, 23520, Note_on_c, 2, 66, 0
4, 23520, Note_on_c, 2, 64, 100
4, 24000, Note_on_c, 2, 64, 0
4, 24000, Note_on_c, 2, 66, 100
4, 24480, Note_on_c, 2, 66, 0
4, 24480, Note_on_c, 2, 62, 100
4, 24720, Note_on_c, 2, 62, 0
4, 25920, Note_on_c, 2, 62, 100
4, 26400, Note_on_c, 2, 62, 0
4, 26400, Note_on_c, 2, 61, 100
4, 26880, Note_on_c, 2, 61, 0
4, 26880, Note_on_c, 2, 59, 100
4, 27360, Note_on_c, 2, 59, 0
4, 27360, Note_on_c, 2, 57, 100
4, 28080, Note_on_c, 2, 57, 0
4, 31680, Note_on_c, 2, 72, 100
4, 32160, Note_on_c, 2, 72, 0
4, 32160, Note_on_c, 2, 71, 100
4, 32640, Note_on_c, 2, 71, 0
4, 32640, Note_on_c, 2, 69, 100
4, 33120, Note_on_c, 2, 69, 0
4, 34560, Note_on_c, 2, 73, 100
4, 35040, Note_on_c, 2, 73, 0
4, 36000, Note_on_c, 2, 74, 100
4, 36720, Note_on_c, 2, 74, 0
4, 36720, Note_on_c, 2, 76, 100
4, 36960, Note_on_c, 2, 76, 0
4, 36960, Note_on_c, 2, 78, 100
4, 37440, Note_on_c, 2, 78, 0
4, 37440, Note_on_c, 2, 83, 100
4, 37920, Note_on_c, 2, 83, 0
4, 37920, Note_on_c, 2, 79, 100
4, 38400, Note_on_c, 2, 79, 0
4, 38400, Note_on_c, 2, 78, 100
4, 38880, Note_on_c, 2, 78, 0
4, 38880, Note_on_c, 2, 76, 100
4, 39600, Note_on_c, 2, 76, 0
4, 39600, Note_on_c, 2, 78, 100
4, 39840, Note_on_c, 2, 78, 0
4, 39840, Note_on_c, 2, 79, 100
4, 40320, Note_on_c, 2, 79, 0
4, 42720, Note_on_c, 2, 73, 100
4, 43200, Note_on_c, 2, 73, 0
4, 43200, Note_on_c, 2, 71, 100
4, 43680, Note_on_c, 2, 71, 0
4, 44160, Note_on_c, 2, 64, 100
4, 44640, Note_on_c, 2, 64, 0
4, 44640, Note_on_c, 2, 66, 100
4, 45360, Note_on_c, 2, 66, 0
4, 46080, Note_on_c, 2, 66, 100
4, 46560, Note_on_c, 2, 66, 0
4, 46560, Note_on_c, 2, 70, 100
4, 47040, Note_on_c, 2, 70, 0
4, 47040, Note_on_c, 2, 71, 100
4, 47520, Note_on_c, 2, 71, 0
4, 47520, Note_on_c, 2, 64, 100
4, 47760, Note_on_c, 2, 64, 0
4, 47760, Note_on_c, 2, 68, 100
4, 48000, Note_on_c, 2, 68, 0
4, 48000, Note_on_c, 2, 71, 100
4, 48240, Note_on_c, 2, 71, 0
4, 48240, Note_on_c, 2, 74, 100
4, 48480, Note_on_c, 2, 74, 0
4, 48480, Note_on_c, 2, 80, 100
4, 48720, Note_on_c, 2, 80, 0
4, 48720, Note_on_c, 2, 74, 100
4, 48960, Note_on_c, 2, 74, 0
4, 48960, Note_on_c, 2, 73, 100
4, 49080, Note_on_c, 2, 73, 0
4, 49080, Note_on_c, 2, 71, 100
4, 49200, Note_on_c, 2, 71, 0
4, 49200, Note_on_c, 2, 73, 100
4, 49440, Note_on_c, 2, 73, 0
4, 49440, Note_on_c, 2, 74, 100
4, 49560, Note_on_c, 2, 74, 0
4, 49560, Note_on_c, 2, 73, 100
4, 49680, Note_on_c, 2, 73, 0
4, 49680, Note_on_c, 2, 74, 100
4, 49920, Note_on_c, 2, 74, 0
4, 49920, Note_on_c, 2, 76, 100
4, 50400, Note_on_c, 2, 76, 0
4, 50400, Note_on_c, 2, 76, 100
4, 50880, Note_on_c, 2, 76, 0
4, 57600, Note_on_c, 2, 66, 100
4, 58080, Note_on_c, 2, 66, 0
4, 58080, Note_on_c, 2, 64, 100
4, 58560, Note_on_c, 2, 64, 0
4, 58560, Note_on_c, 2, 66, 100
4, 59040, Note_on_c, 2, 66, 0
4, 59040, Note_on_c, 2, 62, 100
4, 59280, Note_on_c, 2, 62, 0
4, 60480, Note_on_c, 2, 62, 100
4, 60960, Note_on_c, 2, 62, 0
4, 60960, Note_on_c, 2, 61, 100
4, 61440, Note_on_c, 2, 61, 0
4, 61440, Note_on_c, 2, 59, 100
4, 61920, Note_on_c, 2, 59, 0
4, 61920, Note_on_c, 2, 57, 100
4, 62640, Note_on_c, 2, 57, 0
4, 66240, Note_on_c, 2, 72, 100
4, 66720, Note_on_c, 2, 72, 0
4, 66720, Note_on_c, 2, 71, 100
4, 67200, Note_on_c, 2, 71, 0
4, 67200, Note_on_c, 2, 69, 100
4, 67680, Note_on_c, 2, 69, 0
4, 69120, Note_on_c, 2, 73, 100
4, 69600, Note_on_c, 2, 73, 0
4, 70560, Note_on_c, 2, 74, 100
4, 71280, Note_on_c, 2, 74, 0
4, 71280, Note_on_c, 2, 76, 100
4, 71520, Note_on_c, 2, 76, 0
4, 71520, Note_on_c, 2, 78, 100
4, 72000, Note_on_c, 2, 78, 0
4, 72000, Note_on_c, 2, 83, 100
4, 72480, Note_on_c, 2, 83, 0
4, 72480, Note_on_c, 2, 79, 100
4, 72960, Note_on_c, 2, 79, 0
4, 72960, Note_on_c, 2, 78, 100
4, 73440, Note_on_c, 2, 78, 0
4, 73440, Note_on_c, 2, 76, 100
4, 74160, Note_on_c, 2, 76, 0
4, 74160, Note_on_c, 2, 78, 100
4, 74400, Note_on_c, 2, 78, 0
4, 74400, Note_on_c, 2, 79, 100
4, 74880, Note_on_c, 2, 79, 0
4, 77280, Note_on_c, 2, 73, 100
4, 77760, Note_on_c, 2, 73, 0
4, 77760, Note_on_c, 2, 71, 100
4, 78240, Note_on_c, 2, 71, 0
4, 78720, Note_on_c, 2, 64, 100
4, 79200, Note_on_c, 2, 64, 0
4, 79200, Note_on_c, 2, 66, 100
4, 79920, Note_on_c, 2, 66, 0
4, 80640, Note_on_c, 2, 66, 100
4, 81120, Note_on_c, 2, 66, 0
4, 81120, Note_on_c, 2, 70, 100
4, 81600, Note_on_c, 2, 70, 0
4, 81600, Note_on_c, 2, 71, 100
4, 82080, Note_on_c, 2, 71, 0
4, 82080, Note_on_c, 2, 64, 100
4, 82320, Note_on_c, 2, 64, 0
4, 82320, Note_on_c, 2, 68, 100
4, 82560, Note_on_c, 2, 68, 0
4, 82560, Note_on_c, 2, 71, 100
4, 82800, Note_on_c, 2, 71, 0
4, 82800, Note_on_c, 2, 74, 100
4, 83040, Note_on_c, 2, 74, 0
4, 83040, Note_on_c, 2, 80, 100
4, 83280, Note_on_c, 2, 80, 0
4, 83280, Note_on_c, 2, 74, 100
4, 83520, Note_on_c, 2, 74, 0
4, 83520, Note_on_c, 2, 73, 100
4, 83640, Note_on_c, 2, 73, 0
4, 83640, Note_on_c, 2, 71, 100
4, 83760, Note_on_c, 2, 71, 0
4, 83760, Note_on_c, 2, 73, 100
4, 84000, Note_on_c, 2, 73, 0
4, 84000, Note_on_c, 2, 74, 100
4, 84120, Note_on_c, 2, 74, 0
4, 84120, Note_on_c, 2, 73, 100
4, 84240, Note_on_c, 2, 73, 0
4, 84240, Note_on_c, 2, 74, 100
4, 84480, Note_on_c, 2, 74, 0
4, 84480, Note_on_c, 2, 76, 100
4, 84960, Note_on_c, 2, 76, 0
4, 84960, Note_on_c, 2, 76, 100
4, 85440, Note_on_c, 2, 76, 0
4, 85440, End_track
5, 0, Start_track
5, 0, MIDI_port, 0
5, 0, Title_t, "Six Sonatas and Partitas for Solo Violin"
5, 0, Program_c, 3, 40
5, 0, Control_c, 3, 7, 100
5, 0, Control_c, 3, 10, 49
5, 0, Note_on_c, 3, 59, 100
5, 480, Note_on_c, 3, 59, 0
5, 10800, Note_on_c, 3, 64, 100
5, 11040, Note_on_c, 3, 64, 0
5, 11040, Note_on_c, 3, 62, 100
5, 11280, Note_on_c, 3, 62, 0
5, 11280, Note_on_c, 3, 61, 100
5, 11520, Note_on_c, 3, 61, 0
5, 11520, Note_on_c, 3, 59, 100
5, 12000, Note_on_c, 3, 59, 0
5, 25920, Note_on_c, 3, 68, 100
5, 26400, Note_on_c, 3, 68, 0
5, 26400, Note_on_c, 3, 69, 100
5, 26880, Note_on_c, 3, 69, 0
5, 27360, Note_on_c, 3, 64, 100
5, 28080, Note_on_c, 3, 64, 0
5, 28800, Note_on_c, 3, 69, 100
5, 29520, Note_on_c, 3, 69, 0
5, 29520, Note_on_c, 3, 67, 100
5, 29760, Note_on_c, 3, 67, 0
5, 29760, Note_on_c, 3, 66, 100
5, 30240, Note_on_c, 3, 66, 0
5, 30240, Note_on_c, 3, 64, 100
5, 30720, Note_on_c, 3, 64, 0
5, 30720, Note_on_c, 3, 63, 100
5, 31200, Note_on_c, 3, 63, 0
5, 31200, Note_on_c, 3, 64, 100
5, 31680, Note_on_c, 3, 64, 0
5, 31680, Note_on_c, 3, 57, 100
5, 32160, Note_on_c, 3, 57, 0
5, 32160, Note_on_c, 3, 59, 100
5, 32640, Note_on_c, 3, 59, 0
5, 32640, Note_on_c, 3, 59, 100
5, 33120, Note_on_c, 3, 59, 0
5, 33840, Note_on_c, 3, 62, 100
5, 34080, Note_on_c, 3, 62, 0
5, 34080, Note_on_c, 3, 61, 100
5, 34320, Note_on_c, 3, 61, 0
5, 34320, Note_on_c, 3, 59, 100
5, 34560, Note_on_c, 3, 59, 0
5, 34560, Note_on_c, 3, 57, 100
5, 35040, Note_on_c, 3, 57, 0
5, 37440, Note_on_c, 3, 62, 100
5, 37920, Note_on_c, 3, 62, 0
5, 37920, Note_on_c, 3, 64, 100
5, 38400, Note_on_c, 3, 64, 0
5, 38400, Note_on_c, 3, 62, 100
5, 38880, Note_on_c, 3, 62, 0
5, 38880, Note_on_c, 3, 69, 100
5, 39840, Note_on_c, 3, 69, 0
5, 40320, Note_on_c, 3, 64, 100
5, 40800, Note_on_c, 3, 64, 0
5, 41760, Note_on_c, 3, 66, 100
5, 42720, Note_on_c, 3, 66, 0
5, 42720, Note_on_c, 3, 66, 100
5, 43200, Note_on_c, 3, 66, 0
5, 43200, Note_on_c, 3, 67, 100
5, 43680, Note_on_c, 3, 67, 0
5, 46080, Note_on_c, 3, 71, 100
5, 46560, Note_on_c, 3, 71, 0
5, 46560, Note_on_c, 3, 73, 100
5, 47040, Note_on_c, 3, 73, 0
5, 47040, Note_on_c, 3, 74, 100
5, 47520, Note_on_c, 3, 74, 0
5, 47520, Note_on_c, 3, 74, 100
5, 47760, Note_on_c, 3, 74, 0
5, 49920, Note_on_c, 3, 64, 100
5, 50400, Note_on_c, 3, 64, 0
5, 50400, Note_on_c, 3, 66, 100
5, 50880, Note_on_c, 3, 66, 0
5, 51840, Note_on_c, 3, 66, 100
5, 52320, Note_on_c, 3, 66, 0
5, 52320, Note_on_c, 3, 64, 100
5, 52800, Note_on_c, 3, 64, 0
5, 52800, Note_on_c, 3, 62, 100
5, 53280, Note_on_c, 3, 62, 0
5, 53280, Note_on_c, 3, 61, 100
5, 53520, Note_on_c, 3, 61, 0
5, 54240, Note_on_c, 3, 59, 100
5, 54720, Note_on_c, 3, 59, 0
5, 54720, Note_on_c, 3, 64, 100
5, 55200, Note_on_c, 3, 64, 0
5, 55200, Note_on_c, 3, 66, 100
5, 56160, Note_on_c, 3, 66, 0
5, 56160, Note_on_c, 3, 59, 100
5, 57600, Note_on_c, 3, 59, 0
5, 60480, Note_on_c, 3, 68, 100
5, 60960, Note_on_c, 3, 68, 0
5, 60960, Note_on_c, 3, 69, 100
5, 61440, Note_on_c, 3, 69, 0
5, 61920, Note_on_c, 3, 64, 100
5, 62640, Note_on_c, 3, 64, 0
5, 63360, Note_on_c, 3, 69, 100
5, 64080, Note_on_c, 3, 69, 0
5, 64080, Note_on_c, 3, 67, 100
5, 64320, Note_on_c, 3, 67, 0
5, 64320, Note_on_c, 3, 66, 100
5, 64800, Note_on_c, 3, 66, 0
5, 64800, Note_on_c, 3, 64, 100
5, 65280, Note_on_c, 3, 64, 0
5, 65280, Note_on_c, 3, 63, 100
5, 65760, Note_on_c, 3, 63, 0
5, 65760, Note_on_c, 3, 64, 100
5, 66240, Note_on_c, 3, 64, 0
5, 66240, Note_on_c, 3, 57, 100
5, 66720, Note_on_c, 3, 57, 0
5, 66720, Note_on_c, 3, 59, 100
5, 67200, Note_on_c, 3, 59, 0
5, 67200, Note_on_c, 3, 59, 100
5, 67680, Note_on_c, 3, 59, 0
5, 68400, Note_on_c, 3, 62, 100
5, 68640, Note_on_c, 3, 62, 0
5, 68640, Note_on_c, 3, 61, 100
5, 68880, Note_on_c, 3, 61, 0
5, 68880, Note_on_c, 3, 59, 100
5, 69120, Note_on_c, 3, 59, 0
5, 69120, Note_on_c, 3, 57, 100
5, 69600, Note_on_c, 3, 57, 0
5, 72000, Note_on_c, 3, 62, 100
5, 72480, Note_on_c, 3, 62, 0
5, 72480, Note_on_c, 3, 64, 100
5, 72960, Note_on_c, 3, 64, 0
5, 72960, Note_on_c, 3, 62, 100
5, 73440, Note_on_c, 3, 62, 0
5, 73440, Note_on_c, 3, 69, 100
5, 74400, Note_on_c, 3, 69, 0
5, 74880, Note_on_c, 3, 64, 100
5, 75360, Note_on_c, 3, 64, 0
5, 76320, Note_on_c, 3, 66, 100
5, 77280, Note_on_c, 3, 66, 0
5, 77280, Note_on_c, 3, 66, 100
5, 77760, Note_on_c, 3, 66, 0
5, 77760, Note_on_c, 3, 67, 100
5, 78240, Note_on_c, 3, 67, 0
5, 80640, Note_on_c, 3, 71, 100
5, 81120, Note_on_c, 3, 71, 0
5, 81120, Note_on_c, 3, 73, 100
5, 81600, Note_on_c, 3, 73, 0
5, 81600, Note_on_c, 3, 74, 100
5, 82080, Note_on_c, 3, 74, 0
5, 82080, Note_on_c, 3, 74, 100
5, 82320, Note_on_c, 3, 74, 0
5, 84480, Note_on_c, 3, 64, 100
5, 84960, Note_on_c, 3, 64, 0
5, 84960, Note_on_c, 3, 66, 100
5, 85440, Note_on_c, 3, 66, 0
5, 86400, Note_on_c, 3, 66, 100
5, 86880, Note_on_c, 3, 66, 0
5, 86880, Note_on_c, 3, 64, 100
5, 87360, Note_on_c, 3, 64, 0
5, 87360, Note_on_c, 3, 62, 100
5, 87840, Note_on_c, 3, 62, 0
5, 87840, Note_on_c, 3, 61, 100
5, 88080, Note_on_c, 3, 61, 0
5, 88800, Note_on_c, 3, 59, 100
5, 89280, Note_on_c, 3, 59, 0
5, 89280, Note_on_c, 3, 64, 100
5, 89760, Note_on_c, 3, 64, 0
5, 89760, Note_on_c, 3, 66, 100
5, 90720, Note_on_c, 3, 66, 0
5, 90720, Note_on_c, 3, 59, 100
5, 92160, Note_on_c, 3, 59, 0
5, 92160, End_track
6, 0, Start_track
6, 0, MIDI_port, 0
6, 0, Title_t, "--------------------------------------"
6, 0, End_track
7, 0, Start_track
7, 0, MIDI_port, 0
7, 0, Title_t, "Partita No. 1 in B minor - BWV 1002"
7, 0, End_track
8, 0, Start_track
8, 0, MIDI_port, 0
8, 0, Title_t, "5th Movement: Sarabande"
8, 0, End_track
9, 0, Start_track
9, 0, MIDI_port, 0
9, 0, Title_t, "--------------------------------------"
9, 0, End_track
10, 0, Start_track
10, 0, MIDI_port, 0
10, 0, Title_t, "Sequenced with Cakewalk Pro Audio by"
10, 0, End_track
11, 0, Start_track
11, 0, MIDI_port, 0
11, 0, Title_t, "David J. Grossman - dave@unpronounceable.com"
11, 0, End_track
12, 0, Start_track
12, 0, MIDI_port, 0
12, 0, Title_t, "This and other Bach MIDI files can be found at:"
12, 0, End_track
13, 0, Start_track
13, 0, MIDI_port, 0
13, 0, Title_t, "Dave's J.S. Bach Page"
13, 0, End_track
14, 0, Start_track
14, 0, MIDI_port, 0
14, 0, Title_t, "http://www.unpronounceable.com/bach"
14, 0, End_track
15, 0, Start_track
15, 0, MIDI_port, 0
15, 0, Title_t, "--------------------------------------"
15, 0, End_track
16, 0, Start_track
16, 0, MIDI_port, 0
16, 0, Title_t, "Original Filename: vp1-5sa.mid"
16, 0, End_track
17, 0, Start_track
17, 0, MIDI_port, 0
17, 0, Title_t, "Last Modified: February 22, 1997"
17, 0, End_track
0, 0, End_of_file
