0, 0, Header, 1, 18, 480
1, 0, Start_track
1, 0, Title_t, "untitled"
1, 0, Copyright_t, "Copyright © 1996 by David J. Grossman"
1, 0, Text_t, "David J. Grossman"
1, 0, SMPTE_offset, 96, 0, 3, 0, 0
1, 0, Time_signature, 4, 2, 24, 8
1, 0, Key_signature, 2, "major"
1, 0, Tempo, 240000
1, 1800, Tempo, 1875000
1, 1920, Marker_t, "A"
1, 23040, Marker_t, "1."
1, 24960, Marker_t, "A'"
1, 46080, Marker_t, "2."
1, 48000, Marker_t, "B"
1, 69120, Marker_t, "1."
1, 71040, Marker_t, "B'"
1, 92160, Marker_t, "2."
1, 93120, Tempo, 3750000
1, 93120, End_track
2, 0, Start_track
2, 0, MIDI_port, 0
2, 0, Title_t, "Solo Violin"
2, 0, Program_c, 0, 40
2, 0, Control_c, 0, 7, 100
2, 0, Control_c, 0, 10, 69
2, 1800, Note_on_c, 0, 78, 100
2, 1920, Note_on_c, 0, 78, 0
2, 1920, Note_on_c, 0, 78, 100
2, 2280, Note_on_c, 0, 78, 0
2, 2280, Note_on_c, 0, 83, 100
2, 2400, Note_on_c, 0, 83, 0
2, 2400, Pitch_bend_c, 0, 16383
2, 2400, Note_on_c, 0, 79, 100
2, 2440, Pitch_bend_c, 0, 8192
2, 2480, Pitch_bend_c, 0, 16383
2, 2500, Pitch_bend_c, 0, 8192
2, 2520, Pitch_bend_c, 0, 16383
2, 2540, Pitch_bend_c, 0, 8192
2, 2560, Pitch_bend_c, 0, 16383
2, 2580, Pitch_bend_c, 0, 8192
2, 2600, Pitch_bend_c, 0, 16383
2, 2620, Pitch_bend_c, 0, 8192
2, 2760, Note_on_c, 0, 79, 0
2, 2760, Note_on_c, 0, 78, 100
2, 2820, Note_on_c, 0, 78, 0
2, 2820, Note_on_c, 0, 79, 100
2, 2880, Note_on_c, 0, 79, 0
2, 2880, Note_on_c, 0, 78, 100
2, 3240, Note_on_c, 0, 78, 0
2, 3840, Note_on_c, 0, 71, 100
2, 4200, Note_on_c, 0, 71, 0
2, 8160, Note_on_c, 0, 71, 100
2, 8340, Note_on_c, 0, 71, 0
2, 8580, Note_on_c, 0, 71, 100
2, 8640, Note_on_c, 0, 71, 0
2, 8640, Note_on_c, 0, 69, 100
2, 8760, Note_on_c, 0, 69, 0
2, 10560, Note_on_c, 0, 81, 100
2, 10860, Note_on_c, 0, 81, 0
2, 10860, Note_on_c, 0, 81, 100
2, 10920, Note_on_c, 0, 81, 0
2, 10920, Note_on_c, 0, 79, 100
2, 10980, Note_on_c, 0, 79, 0
2, 10980, Note_on_c, 0, 78, 100
2, 11040, Note_on_c, 0, 78, 0
2, 11040, Note_on_c, 0, 83, 100
2, 11220, Note_on_c, 0, 83, 0
2, 11220, Note_on_c, 0, 81, 100
2, 11280, Note_on_c, 0, 81, 0
2, 11280, Pitch_bend_c, 0, 16383
2, 11280, Note_on_c, 0, 79, 100
2, 11300, Pitch_bend_c, 0, 8192
2, 11320, Pitch_bend_c, 0, 16383
2, 11340, Pitch_bend_c, 0, 8192
2, 11460, Note_on_c, 0, 79, 0
2, 11460, Note_on_c, 0, 78, 100
2, 11520, Note_on_c, 0, 78, 0
2, 11520, Note_on_c, 0, 79, 100
2, 11700, Note_on_c, 0, 79, 0
2, 11700, Note_on_c, 0, 76, 100
2, 11760, Note_on_c, 0, 76, 0
2, 11760, Note_on_c, 0, 71, 100
2, 11940, Note_on_c, 0, 71, 0
2, 11940, Note_on_c, 0, 67, 100
2, 12000, Note_on_c, 0, 67, 0
2, 12000, Note_on_c, 0, 64, 100
2, 12180, Note_on_c, 0, 64, 0
2, 12180, Note_on_c, 0, 74, 100
2, 12240, Note_on_c, 0, 74, 0
2, 12240, Note_on_c, 0, 73, 100
2, 12420, Note_on_c, 0, 73, 0
2, 12420, Note_on_c, 0, 71, 100
2, 12480, Note_on_c, 0, 71, 0
2, 12480, Note_on_c, 0, 70, 100
2, 12660, Note_on_c, 0, 70, 0
2, 12660, Note_on_c, 0, 79, 100
2, 12720, Note_on_c, 0, 79, 0
2, 12720, Note_on_c, 0, 78, 100
2, 12900, Note_on_c, 0, 78, 0
2, 12900, Note_on_c, 0, 64, 100
2, 12960, Note_on_c, 0, 64, 0
2, 12960, Note_on_c, 0, 62, 100
2, 13140, Note_on_c, 0, 62, 0
2, 13140, Note_on_c, 0, 66, 100
2, 13200, Note_on_c, 0, 66, 0
2, 13200, Note_on_c, 0, 71, 100
2, 13260, Note_on_c, 0, 71, 0
2, 13260, Note_on_c, 0, 74, 100
2, 13320, Note_on_c, 0, 74, 0
2, 13320, Note_on_c, 0, 78, 100
2, 13440, Note_on_c, 0, 78, 0
2, 13440, Note_on_c, 0, 68, 100
2, 13620, Note_on_c, 0, 68, 0
2, 13620, Note_on_c, 0, 71, 100
2, 13680, Note_on_c, 0, 71, 0
2, 13680, Note_on_c, 0, 76, 100
2, 13860, Note_on_c, 0, 76, 0
2, 13860, Note_on_c, 0, 62, 100
2, 13920, Note_on_c, 0, 62, 0
2, 13920, Note_on_c, 0, 61, 100
2, 14000, Note_on_c, 0, 61, 0
2, 14000, Note_on_c, 0, 62, 100
2, 14080, Note_on_c, 0, 62, 0
2, 14080, Note_on_c, 0, 64, 100
2, 14160, Note_on_c, 0, 64, 0
2, 14160, Note_on_c, 0, 66, 100
2, 14240, Note_on_c, 0, 66, 0
2, 14240, Note_on_c, 0, 67, 100
2, 14320, Note_on_c, 0, 67, 0
2, 14320, Note_on_c, 0, 59, 100
2, 14400, Note_on_c, 0, 59, 0
2, 14400, Note_on_c, 0, 58, 100
2, 14580, Note_on_c, 0, 58, 0
2, 14880, Note_on_c, 0, 59, 100
2, 15120, Note_on_c, 0, 59, 0
2, 18240, Note_on_c, 0, 73, 100
2, 18600, Note_on_c, 0, 73, 0
2, 18960, Note_on_c, 0, 73, 100
2, 19140, Note_on_c, 0, 73, 0
2, 19200, Note_on_c, 0, 73, 100
2, 19380, Note_on_c, 0, 73, 0
2, 22080, Note_on_c, 0, 73, 100
2, 22320, Note_on_c, 0, 73, 0
2, 23040, Note_on_c, 0, 73, 100
2, 23400, Note_on_c, 0, 73, 0
2, 24960, Note_on_c, 0, 78, 100
2, 25320, Note_on_c, 0, 78, 0
2, 25320, Note_on_c, 0, 83, 100
2, 25440, Note_on_c, 0, 83, 0
2, 25440, Pitch_bend_c, 0, 16383
2, 25440, Note_on_c, 0, 79, 100
2, 25480, Pitch_bend_c, 0, 8192
2, 25520, Pitch_bend_c, 0, 16383
2, 25540, Pitch_bend_c, 0, 8192
2, 25560, Pitch_bend_c, 0, 16383
2, 25580, Pitch_bend_c, 0, 8192
2, 25600, Pitch_bend_c, 0, 16383
2, 25620, Pitch_bend_c, 0, 8192
2, 25640, Pitch_bend_c, 0, 16383
2, 25660, Pitch_bend_c, 0, 8192
2, 25800, Note_on_c, 0, 79, 0
2, 25800, Note_on_c, 0, 78, 100
2, 25860, Note_on_c, 0, 78, 0
2, 25860, Note_on_c, 0, 79, 100
2, 25920, Note_on_c, 0, 79, 0
2, 25920, Note_on_c, 0, 78, 100
2, 26280, Note_on_c, 0, 78, 0
2, 26880, Note_on_c, 0, 71, 100
2, 27240, Note_on_c, 0, 71, 0
2, 31200, Note_on_c, 0, 71, 100
2, 31380, Note_on_c, 0, 71, 0
2, 31620, Note_on_c, 0, 71, 100
2, 31680, Note_on_c, 0, 71, 0
2, 31680, Note_on_c, 0, 69, 100
2, 31800, Note_on_c, 0, 69, 0
2, 33600, Note_on_c, 0, 81, 100
2, 33900, Note_on_c, 0, 81, 0
2, 33900, Note_on_c, 0, 81, 100
2, 33960, Note_on_c, 0, 81, 0
2, 33960, Note_on_c, 0, 79, 100
2, 34020, Note_on_c, 0, 79, 0
2, 34020, Note_on_c, 0, 78, 100
2, 34080, Note_on_c, 0, 78, 0
2, 34080, Note_on_c, 0, 83, 100
2, 34260, Note_on_c, 0, 83, 0
2, 34260, Note_on_c, 0, 81, 100
2, 34320, Note_on_c, 0, 81, 0
2, 34320, Pitch_bend_c, 0, 16383
2, 34320, Note_on_c, 0, 79, 100
2, 34340, Pitch_bend_c, 0, 8192
2, 34360, Pitch_bend_c, 0, 16383
2, 34380, Pitch_bend_c, 0, 8192
2, 34500, Note_on_c, 0, 79, 0
2, 34500, Note_on_c, 0, 78, 100
2, 34560, Note_on_c, 0, 78, 0
2, 34560, Note_on_c, 0, 79, 100
2, 34740, Note_on_c, 0, 79, 0
2, 34740, Note_on_c, 0, 76, 100
2, 34800, Note_on_c, 0, 76, 0
2, 34800, Note_on_c, 0, 71, 100
2, 34980, Note_on_c, 0, 71, 0
2, 34980, Note_on_c, 0, 67, 100
2, 35040, Note_on_c, 0, 67, 0
2, 35040, Note_on_c, 0, 64, 100
2, 35220, Note_on_c, 0, 64, 0
2, 35220, Note_on_c, 0, 74, 100
2, 35280, Note_on_c, 0, 74, 0
2, 35280, Note_on_c, 0, 73, 100
2, 35460, Note_on_c, 0, 73, 0
2, 35460, Note_on_c, 0, 71, 100
2, 35520, Note_on_c, 0, 71, 0
2, 35520, Note_on_c, 0, 70, 100
2, 35700, Note_on_c, 0, 70, 0
2, 35700, Note_on_c, 0, 79, 100
2, 35760, Note_on_c, 0, 79, 0
2, 35760, Note_on_c, 0, 78, 100
2, 35940, Note_on_c, 0, 78, 0
2, 35940, Note_on_c, 0, 64, 100
2, 36000, Note_on_c, 0, 64, 0
2, 36000, Note_on_c, 0, 62, 100
2, 36180, Note_on_c, 0, 62, 0
2, 36180, Note_on_c, 0, 66, 100
2, 36240, Note_on_c, 0, 66, 0
2, 36240, Note_on_c, 0, 71, 100
2, 36300, Note_on_c, 0, 71, 0
2, 36300, Note_on_c, 0, 74, 100
2, 36360, Note_on_c, 0, 74, 0
2, 36360, Note_on_c, 0, 78, 100
2, 36480, Note_on_c, 0, 78, 0
2, 36480, Note_on_c, 0, 68, 100
2, 36660, Note_on_c, 0, 68, 0
2, 36660, Note_on_c, 0, 71, 100
2, 36720, Note_on_c, 0, 71, 0
2, 36720, Note_on_c, 0, 76, 100
2, 36900, Note_on_c, 0, 76, 0
2, 36900, Note_on_c, 0, 62, 100
2, 36960, Note_on_c, 0, 62, 0
2, 36960, Note_on_c, 0, 61, 100
2, 37040, Note_on_c, 0, 61, 0
2, 37040, Note_on_c, 0, 62, 100
2, 37120, Note_on_c, 0, 62, 0
2, 37120, Note_on_c, 0, 64, 100
2, 37200, Note_on_c, 0, 64, 0
2, 37200, Note_on_c, 0, 66, 100
2, 37280, Note_on_c, 0, 66, 0
2, 37280, Note_on_c, 0, 67, 100
2, 37360, Note_on_c, 0, 67, 0
2, 37360, Note_on_c, 0, 59, 100
2, 37440, Note_on_c, 0, 59, 0
2, 37440, Note_on_c, 0, 58, 100
2, 37620, Note_on_c, 0, 58, 0
2, 37920, Note_on_c, 0, 59, 100
2, 38160, Note_on_c, 0, 59, 0
2, 41280, Note_on_c, 0, 73, 100
2, 41640, Note_on_c, 0, 73, 0
2, 42000, Note_on_c, 0, 73, 100
2, 42180, Note_on_c, 0, 73, 0
2, 42240, Note_on_c, 0, 73, 100
2, 42420, Note_on_c, 0, 73, 0
2, 45120, Note_on_c, 0, 73, 100
2, 45360, Note_on_c, 0, 73, 0
2, 46080, Note_on_c, 0, 73, 100
2, 46440, Note_on_c, 0, 73, 0
2, 50880, Note_on_c, 0, 57, 100
2, 51240, Note_on_c, 0, 57, 0
2, 51840, Note_on_c, 0, 55, 100
2, 52020, Note_on_c, 0, 55, 0
2, 54720, Note_on_c, 0, 69, 100
2, 55080, Note_on_c, 0, 69, 0
2, 55080, Note_on_c, 0, 71, 100
2, 55200, Note_on_c, 0, 71, 0
2, 55200, Note_on_c, 0, 72, 100
2, 55280, Note_on_c, 0, 72, 0
2, 55280, Note_on_c, 0, 71, 100
2, 55360, Note_on_c, 0, 71, 0
2, 55360, Note_on_c, 0, 69, 100
2, 55440, Note_on_c, 0, 69, 0
2, 55440, Note_on_c, 0, 78, 100
2, 55520, Note_on_c, 0, 78, 0
2, 55520, Note_on_c, 0, 79, 100
2, 55600, Note_on_c, 0, 79, 0
2, 55600, Note_on_c, 0, 81, 100
2, 55680, Note_on_c, 0, 81, 0
2, 55680, Note_on_c, 0, 81, 100
2, 55860, Note_on_c, 0, 81, 0
2, 55860, Note_on_c, 0, 79, 100
2, 55890, Note_on_c, 0, 79, 0
2, 55890, Note_on_c, 0, 78, 100
2, 55920, Note_on_c, 0, 78, 0
2, 55920, Note_on_c, 0, 83, 100
2, 56100, Note_on_c, 0, 83, 0
2, 56100, Note_on_c, 0, 81, 100
2, 56160, Note_on_c, 0, 81, 0
2, 56160, Pitch_bend_c, 0, 16383
2, 56160, Note_on_c, 0, 79, 100
2, 56180, Pitch_bend_c, 0, 8192
2, 56200, Pitch_bend_c, 0, 16383
2, 56220, Pitch_bend_c, 0, 8192
2, 56340, Note_on_c, 0, 79, 0
2, 56340, Note_on_c, 0, 78, 100
2, 56400, Note_on_c, 0, 78, 0
2, 56400, Note_on_c, 0, 79, 100
2, 56460, Note_on_c, 0, 79, 0
2, 56460, Note_on_c, 0, 81, 100
2, 56520, Note_on_c, 0, 81, 0
2, 56520, Note_on_c, 0, 78, 100
2, 56640, Note_on_c, 0, 78, 0
2, 56640, Note_on_c, 0, 79, 100
2, 56720, Note_on_c, 0, 79, 0
2, 56720, Note_on_c, 0, 76, 100
2, 56800, Note_on_c, 0, 76, 0
2, 56800, Note_on_c, 0, 71, 100
2, 56880, Note_on_c, 0, 71, 0
2, 56880, Note_on_c, 0, 67, 100
2, 56960, Note_on_c, 0, 67, 0
2, 56960, Note_on_c, 0, 64, 100
2, 57040, Note_on_c, 0, 64, 0
2, 57040, Note_on_c, 0, 59, 100
2, 57120, Note_on_c, 0, 59, 0
2, 57120, Note_on_c, 0, 62, 100
2, 57200, Note_on_c, 0, 62, 0
2, 57200, Note_on_c, 0, 67, 100
2, 57280, Note_on_c, 0, 67, 0
2, 57280, Note_on_c, 0, 71, 100
2, 57360, Note_on_c, 0, 71, 0
2, 57360, Note_on_c, 0, 74, 100
2, 57440, Note_on_c, 0, 74, 0
2, 57440, Note_on_c, 0, 76, 100
2, 57520, Note_on_c, 0, 76, 0
2, 57520, Note_on_c, 0, 77, 100
2, 57600, Note_on_c, 0, 77, 0
2, 57600, Note_on_c, 0, 76, 100
2, 57750, Note_on_c, 0, 76, 0
2, 57750, Note_on_c, 0, 74, 100
2, 57780, Note_on_c, 0, 74, 0
2, 57780, Note_on_c, 0, 72, 100
2, 57810, Note_on_c, 0, 72, 0
2, 57810, Note_on_c, 0, 71, 100
2, 57840, Note_on_c, 0, 71, 0
2, 57840, Note_on_c, 0, 72, 100
2, 58020, Note_on_c, 0, 72, 0
2, 58020, Note_on_c, 0, 76, 100
2, 58080, Note_on_c, 0, 76, 0
2, 58080, Pitch_bend_c, 0, 12288
2, 58080, Note_on_c, 0, 70, 100
2, 58100, Pitch_bend_c, 0, 8192
2, 58120, Pitch_bend_c, 0, 12288
2, 58140, Pitch_bend_c, 0, 8192
2, 58160, Pitch_bend_c, 0, 12288
2, 58180, Pitch_bend_c, 0, 8192
2, 58200, Pitch_bend_c, 0, 12288
2, 58220, Pitch_bend_c, 0, 8192
2, 58440, Note_on_c, 0, 70, 0
2, 58440, Note_on_c, 0, 71, 100
2, 58500, Note_on_c, 0, 71, 0
2, 58500, Note_on_c, 0, 70, 100
2, 58560, Note_on_c, 0, 70, 0
2, 58560, Note_on_c, 0, 71, 100
2, 58640, Note_on_c, 0, 71, 0
2, 58640, Note_on_c, 0, 73, 100
2, 58720, Note_on_c, 0, 73, 0
2, 58720, Note_on_c, 0, 75, 100
2, 58800, Note_on_c, 0, 75, 0
2, 58800, Note_on_c, 0, 76, 100
2, 58880, Note_on_c, 0, 76, 0
2, 58880, Note_on_c, 0, 79, 100
2, 58960, Note_on_c, 0, 79, 0
2, 58960, Note_on_c, 0, 78, 100
2, 59040, Note_on_c, 0, 78, 0
2, 59040, Note_on_c, 0, 76, 100
2, 59280, Note_on_c, 0, 76, 0
2, 59280, Note_on_c, 0, 75, 100
2, 59280, Pitch_bend_c, 0, 12288
2, 59300, Pitch_bend_c, 0, 8192
2, 59320, Pitch_bend_c, 0, 12288
2, 59340, Pitch_bend_c, 0, 8192
2, 59460, Note_on_c, 0, 75, 0
2, 59460, Note_on_c, 0, 76, 100
2, 59520, Note_on_c, 0, 76, 0
2, 59520, Note_on_c, 0, 76, 100
2, 59880, Note_on_c, 0, 76, 0
2, 64320, Note_on_c, 0, 57, 100
2, 64500, Note_on_c, 0, 57, 0
2, 66240, Note_on_c, 0, 64, 100
2, 66420, Note_on_c, 0, 64, 0
2, 69120, Note_on_c, 0, 66, 100
2, 69480, Note_on_c, 0, 66, 0
2, 70080, Note_on_c, 0, 66, 100
2, 70800, Note_on_c, 0, 66, 0
2, 73920, Note_on_c, 0, 57, 100
2, 74280, Note_on_c, 0, 57, 0
2, 74880, Note_on_c, 0, 55, 100
2, 75060, Note_on_c, 0, 55, 0
2, 77760, Note_on_c, 0, 69, 100
2, 78120, Note_on_c, 0, 69, 0
2, 78120, Note_on_c, 0, 71, 100
2, 78240, Note_on_c, 0, 71, 0
2, 78240, Note_on_c, 0, 72, 100
2, 78320, Note_on_c, 0, 72, 0
2, 78320, Note_on_c, 0, 71, 100
2, 78400, Note_on_c, 0, 71, 0
2, 78400, Note_on_c, 0, 69, 100
2, 78480, Note_on_c, 0, 69, 0
2, 78480, Note_on_c, 0, 78, 100
2, 78560, Note_on_c, 0, 78, 0
2, 78560, Note_on_c, 0, 79, 100
2, 78640, Note_on_c, 0, 79, 0
2, 78640, Note_on_c, 0, 81, 100
2, 78720, Note_on_c, 0, 81, 0
2, 78720, Note_on_c, 0, 81, 100
2, 78900, Note_on_c, 0, 81, 0
2, 78900, Note_on_c, 0, 79, 100
2, 78930, Note_on_c, 0, 79, 0
2, 78930, Note_on_c, 0, 78, 100
2, 78960, Note_on_c, 0, 78, 0
2, 78960, Note_on_c, 0, 83, 100
2, 79140, Note_on_c, 0, 83, 0
2, 79140, Note_on_c, 0, 81, 100
2, 79200, Note_on_c, 0, 81, 0
2, 79200, Pitch_bend_c, 0, 16383
2, 79200, Note_on_c, 0, 79, 100
2, 79220, Pitch_bend_c, 0, 8192
2, 79240, Pitch_bend_c, 0, 16383
2, 79260, Pitch_bend_c, 0, 8192
2, 79380, Note_on_c, 0, 79, 0
2, 79380, Note_on_c, 0, 78, 100
2, 79440, Note_on_c, 0, 78, 0
2, 79440, Note_on_c, 0, 79, 100
2, 79500, Note_on_c, 0, 79, 0
2, 79500, Note_on_c, 0, 81, 100
2, 79560, Note_on_c, 0, 81, 0
2, 79560, Note_on_c, 0, 78, 100
2, 79680, Note_on_c, 0, 78, 0
2, 79680, Note_on_c, 0, 79, 100
2, 79760, Note_on_c, 0, 79, 0
2, 79760, Note_on_c, 0, 76, 100
2, 79840, Note_on_c, 0, 76, 0
2, 79840, Note_on_c, 0, 71, 100
2, 79920, Note_on_c, 0, 71, 0
2, 79920, Note_on_c, 0, 67, 100
2, 80000, Note_on_c, 0, 67, 0
2, 80000, Note_on_c, 0, 64, 100
2, 80080, Note_on_c, 0, 64, 0
2, 80080, Note_on_c, 0, 59, 100
2, 80160, Note_on_c, 0, 59, 0
2, 80160, Note_on_c, 0, 62, 100
2, 80240, Note_on_c, 0, 62, 0
2, 80240, Note_on_c, 0, 67, 100
2, 80320, Note_on_c, 0, 67, 0
2, 80320, Note_on_c, 0, 71, 100
2, 80400, Note_on_c, 0, 71, 0
2, 80400, Note_on_c, 0, 74, 100
2, 80480, Note_on_c, 0, 74, 0
2, 80480, Note_on_c, 0, 76, 100
2, 80560, Note_on_c, 0, 76, 0
2, 80560, Note_on_c, 0, 77, 100
2, 80640, Note_on_c, 0, 77, 0
2, 80640, Note_on_c, 0, 76, 100
2, 80790, Note_on_c, 0, 76, 0
2, 80790, Note_on_c, 0, 74, 100
2, 80820, Note_on_c, 0, 74, 0
2, 80820, Note_on_c, 0, 72, 100
2, 80850, Note_on_c, 0, 72, 0
2, 80850, Note_on_c, 0, 71, 100
2, 80880, Note_on_c, 0, 71, 0
2, 80880, Note_on_c, 0, 72, 100
2, 81060, Note_on_c, 0, 72, 0
2, 81060, Note_on_c, 0, 76, 100
2, 81120, Note_on_c, 0, 76, 0
2, 81120, Pitch_bend_c, 0, 12288
2, 81120, Note_on_c, 0, 70, 100
2, 81140, Pitch_bend_c, 0, 8192
2, 81160, Pitch_bend_c, 0, 12288
2, 81180, Pitch_bend_c, 0, 8192
2, 81200, Pitch_bend_c, 0, 12288
2, 81220, Pitch_bend_c, 0, 8192
2, 81240, Pitch_bend_c, 0, 12288
2, 81260, Pitch_bend_c, 0, 8192
2, 81480, Note_on_c, 0, 70, 0
2, 81480, Note_on_c, 0, 71, 100
2, 81540, Note_on_c, 0, 71, 0
2, 81540, Note_on_c, 0, 70, 100
2, 81600, Note_on_c, 0, 70, 0
2, 81600, Note_on_c, 0, 71, 100
2, 81680, Note_on_c, 0, 71, 0
2, 81680, Note_on_c, 0, 73, 100
2, 81760, Note_on_c, 0, 73, 0
2, 81760, Note_on_c, 0, 75, 100
2, 81840, Note_on_c, 0, 75, 0
2, 81840, Note_on_c, 0, 76, 100
2, 81920, Note_on_c, 0, 76, 0
2, 81920, Note_on_c, 0, 79, 100
2, 82000, Note_on_c, 0, 79, 0
2, 82000, Note_on_c, 0, 78, 100
2, 82080, Note_on_c, 0, 78, 0
2, 82080, Note_on_c, 0, 76, 100
2, 82320, Note_on_c, 0, 76, 0
2, 82320, Note_on_c, 0, 75, 100
2, 82320, Pitch_bend_c, 0, 12288
2, 82340, Pitch_bend_c, 0, 8192
2, 82360, Pitch_bend_c, 0, 12288
2, 82380, Pitch_bend_c, 0, 8192
2, 82500, Note_on_c, 0, 75, 0
2, 82500, Note_on_c, 0, 76, 100
2, 82560, Note_on_c, 0, 76, 0
2, 82560, Note_on_c, 0, 76, 100
2, 82920, Note_on_c, 0, 76, 0
2, 87360, Note_on_c, 0, 57, 100
2, 87540, Note_on_c, 0, 57, 0
2, 89280, Note_on_c, 0, 64, 100
2, 89460, Note_on_c, 0, 64, 0
2, 92160, Note_on_c, 0, 66, 100
2, 92520, Note_on_c, 0, 66, 0
2, 93120, Note_on_c, 0, 66, 100
2, 93840, Note_on_c, 0, 66, 0
2, 93840, End_track
3, 0, Start_track
3, 0, MIDI_port, 0
3, 0, Title_t, "--------------------------------------"
3, 0, Program_c, 1, 40
3, 0, Control_c, 1, 7, 100
3, 0, Control_c, 1, 10, 59
3, 1920, Note_on_c, 1, 74, 100
3, 2280, Note_on_c, 1, 74, 0
3, 2400, Note_on_c, 1, 76, 100
3, 2760, Note_on_c, 1, 76, 0
3, 2880, Note_on_c, 1, 76, 100
3, 3240, Note_on_c, 1, 76, 0
3, 3240, Note_on_c, 1, 74, 100
3, 3300, Note_on_c, 1, 74, 0
3, 3300, Note_on_c, 1, 73, 100
3, 3360, Note_on_c, 1, 73, 0
3, 3360, Note_on_c, 1, 74, 100
3, 3540, Note_on_c, 1, 74, 0
3, 3540, Note_on_c, 1, 59, 100
3, 3600, Note_on_c, 1, 59, 0
3, 3600, Note_on_c, 1, 57, 100
3, 3780, Note_on_c, 1, 57, 0
3, 3780, Note_on_c, 1, 78, 100
3, 3840, Note_on_c, 1, 78, 0
3, 3840, Note_on_c, 1, 78, 100
3, 4200, Note_on_c, 1, 78, 0
3, 4200, Note_on_c, 1, 79, 100
3, 4260, Note_on_c, 1, 79, 0
3, 4260, Note_on_c, 1, 78, 100
3, 4320, Note_on_c, 1, 78, 0
3, 4320, Note_on_c, 1, 76, 100
3, 4500, Note_on_c, 1, 76, 0
3, 4500, Note_on_c, 1, 74, 100
3, 4560, Note_on_c, 1, 74, 0
3, 4560, Pitch_bend_c, 1, 12288
3, 4560, Note_on_c, 1, 73, 100
3, 4580, Pitch_bend_c, 1, 8192
3, 4600, Pitch_bend_c, 1, 12288
3, 4620, Pitch_bend_c, 1, 8192
3, 4740, Note_on_c, 1, 73, 0
3, 4740, Note_on_c, 1, 71, 100
3, 4800, Note_on_c, 1, 71, 0
3, 4800, Note_on_c, 1, 70, 100
3, 4980, Note_on_c, 1, 70, 0
3, 4980, Note_on_c, 1, 67, 100
3, 5040, Note_on_c, 1, 67, 0
3, 5040, Note_on_c, 1, 66, 100
3, 5220, Note_on_c, 1, 66, 0
3, 5220, Note_on_c, 1, 64, 100
3, 5280, Note_on_c, 1, 64, 0
3, 5280, Note_on_c, 1, 62, 100
3, 5460, Note_on_c, 1, 62, 0
3, 5460, Note_on_c, 1, 71, 100
3, 5520, Note_on_c, 1, 71, 0
3, 5520, Note_on_c, 1, 61, 100
3, 5700, Note_on_c, 1, 61, 0
3, 5700, Note_on_c, 1, 73, 100
3, 5760, Note_on_c, 1, 73, 0
3, 5760, Note_on_c, 1, 74, 100
3, 5940, Note_on_c, 1, 74, 0
3, 5940, Note_on_c, 1, 59, 100
3, 5970, Note_on_c, 1, 59, 0
3, 5970, Note_on_c, 1, 61, 100
3, 6000, Note_on_c, 1, 61, 0
3, 6000, Note_on_c, 1, 62, 100
3, 6180, Note_on_c, 1, 62, 0
3, 6180, Note_on_c, 1, 64, 100
3, 6240, Note_on_c, 1, 64, 0
3, 6240, Note_on_c, 1, 66, 100
3, 6360, Note_on_c, 1, 66, 0
3, 6360, Note_on_c, 1, 62, 100
3, 6420, Note_on_c, 1, 62, 0
3, 6420, Note_on_c, 1, 64, 100
3, 6480, Note_on_c, 1, 64, 0
3, 6480, Note_on_c, 1, 66, 100
3, 6600, Note_on_c, 1, 66, 0
3, 6600, Note_on_c, 1, 69, 100
3, 6660, Note_on_c, 1, 69, 0
3, 6660, Note_on_c, 1, 67, 100
3, 6720, Note_on_c, 1, 67, 0
3, 6720, Note_on_c, 1, 69, 100
3, 7080, Note_on_c, 1, 69, 0
3, 7080, Note_on_c, 1, 69, 100
3, 7200, Note_on_c, 1, 69, 0
3, 7200, Note_on_c, 1, 74, 100
3, 7320, Note_on_c, 1, 74, 0
3, 7320, Note_on_c, 1, 78, 100
3, 7380, Note_on_c, 1, 78, 0
3, 7380, Note_on_c, 1, 76, 100
3, 7440, Note_on_c, 1, 76, 0
3, 7440, Note_on_c, 1, 78, 100
3, 7620, Note_on_c, 1, 78, 0
3, 7620, Note_on_c, 1, 69, 100
3, 7680, Note_on_c, 1, 69, 0
3, 7680, Note_on_c, 1, 71, 100
3, 7800, Note_on_c, 1, 71, 0
3, 8100, Note_on_c, 1, 74, 100
3, 8160, Note_on_c, 1, 74, 0
3, 8160, Note_on_c, 1, 79, 100
3, 8340, Note_on_c, 1, 79, 0
3, 8640, Note_on_c, 1, 79, 100
3, 8820, Note_on_c, 1, 79, 0
3, 8820, Note_on_c, 1, 78, 100
3, 8850, Note_on_c, 1, 78, 0
3, 8850, Note_on_c, 1, 76, 100
3, 8880, Note_on_c, 1, 76, 0
3, 8880, Note_on_c, 1, 81, 100
3, 9060, Note_on_c, 1, 81, 0
3, 9060, Note_on_c, 1, 79, 100
3, 9120, Note_on_c, 1, 79, 0
3, 9120, Note_on_c, 1, 78, 100
3, 9300, Note_on_c, 1, 78, 0
3, 9300, Note_on_c, 1, 62, 100
3, 9360, Note_on_c, 1, 62, 0
3, 9360, Note_on_c, 1, 67, 100
3, 9540, Note_on_c, 1, 67, 0
3, 9540, Note_on_c, 1, 76, 100
3, 9600, Note_on_c, 1, 76, 0
3, 9600, Note_on_c, 1, 74, 100
3, 9660, Note_on_c, 1, 74, 0
3, 9660, Note_on_c, 1, 73, 100
3, 9840, Note_on_c, 1, 73, 0
3, 9840, Note_on_c, 1, 71, 100
3, 9900, Note_on_c, 1, 71, 0
3, 9900, Note_on_c, 1, 69, 100
3, 10080, Note_on_c, 1, 69, 0
3, 10080, Note_on_c, 1, 81, 100
3, 10260, Note_on_c, 1, 81, 0
3, 10260, Note_on_c, 1, 67, 100
3, 10320, Note_on_c, 1, 67, 0
3, 10320, Note_on_c, 1, 66, 100
3, 10500, Note_on_c, 1, 66, 0
3, 10500, Note_on_c, 1, 67, 100
3, 10530, Note_on_c, 1, 67, 0
3, 10530, Note_on_c, 1, 64, 100
3, 10560, Note_on_c, 1, 64, 0
3, 10560, Note_on_c, 1, 63, 100
3, 10740, Note_on_c, 1, 63, 0
3, 14400, Note_on_c, 1, 76, 100
3, 14580, Note_on_c, 1, 76, 0
3, 14580, Note_on_c, 1, 78, 100
3, 14610, Note_on_c, 1, 78, 0
3, 14610, Note_on_c, 1, 79, 100
3, 14640, Note_on_c, 1, 79, 0
3, 14640, Note_on_c, 1, 78, 100
3, 14820, Note_on_c, 1, 78, 0
3, 14820, Note_on_c, 1, 76, 100
3, 14880, Note_on_c, 1, 76, 0
3, 14880, Note_on_c, 1, 76, 100
3, 15120, Note_on_c, 1, 76, 0
3, 15120, Pitch_bend_c, 1, 16383
3, 15120, Note_on_c, 1, 74, 100
3, 15135, Pitch_bend_c, 1, 8192
3, 15150, Pitch_bend_c, 1, 16383
3, 15165, Pitch_bend_c, 1, 8192
3, 15180, Note_on_c, 1, 74, 0
3, 15180, Note_on_c, 1, 73, 100
3, 15240, Note_on_c, 1, 73, 0
3, 15240, Note_on_c, 1, 74, 100
3, 15360, Note_on_c, 1, 74, 0
3, 15360, Note_on_c, 1, 73, 100
3, 15720, Note_on_c, 1, 73, 0
3, 15720, Note_on_c, 1, 66, 100
3, 15780, Note_on_c, 1, 66, 0
3, 15780, Note_on_c, 1, 68, 100
3, 15840, Note_on_c, 1, 68, 0
3, 15840, Note_on_c, 1, 70, 100
3, 15920, Note_on_c, 1, 70, 0
3, 15920, Note_on_c, 1, 71, 100
3, 16000, Note_on_c, 1, 71, 0
3, 16000, Note_on_c, 1, 73, 100
3, 16080, Note_on_c, 1, 73, 0
3, 16080, Note_on_c, 1, 74, 100
3, 16160, Note_on_c, 1, 74, 0
3, 16160, Note_on_c, 1, 76, 100
3, 16240, Note_on_c, 1, 76, 0
3, 16240, Note_on_c, 1, 78, 100
3, 16320, Note_on_c, 1, 78, 0
3, 16320, Note_on_c, 1, 79, 100
3, 16400, Note_on_c, 1, 79, 0
3, 16400, Note_on_c, 1, 78, 100
3, 16480, Note_on_c, 1, 78, 0
3, 16480, Note_on_c, 1, 76, 100
3, 16560, Note_on_c, 1, 76, 0
3, 16560, Note_on_c, 1, 82, 100
3, 16640, Note_on_c, 1, 82, 0
3, 16640, Note_on_c, 1, 83, 100
3, 16720, Note_on_c, 1, 83, 0
3, 16720, Note_on_c, 1, 85, 100
3, 16800, Note_on_c, 1, 85, 0
3, 16800, Note_on_c, 1, 78, 100
3, 16980, Note_on_c, 1, 78, 0
3, 16980, Note_on_c, 1, 71, 100
3, 17040, Note_on_c, 1, 71, 0
3, 17040, Note_on_c, 1, 70, 100
3, 17220, Note_on_c, 1, 70, 0
3, 17220, Note_on_c, 1, 76, 100
3, 17280, Note_on_c, 1, 76, 0
3, 17280, Note_on_c, 1, 59, 100
3, 17360, Note_on_c, 1, 59, 0
3, 17360, Note_on_c, 1, 64, 100
3, 17440, Note_on_c, 1, 64, 0
3, 17440, Note_on_c, 1, 67, 100
3, 17520, Note_on_c, 1, 67, 0
3, 17520, Note_on_c, 1, 70, 100
3, 17600, Note_on_c, 1, 70, 0
3, 17600, Note_on_c, 1, 73, 100
3, 17680, Note_on_c, 1, 73, 0
3, 17680, Note_on_c, 1, 76, 100
3, 17760, Note_on_c, 1, 76, 0
3, 17760, Note_on_c, 1, 74, 100
3, 17840, Note_on_c, 1, 74, 0
3, 17840, Note_on_c, 1, 73, 100
3, 17920, Note_on_c, 1, 73, 0
3, 17920, Note_on_c, 1, 71, 100
3, 18000, Note_on_c, 1, 71, 0
3, 18000, Note_on_c, 1, 80, 100
3, 18180, Note_on_c, 1, 80, 0
3, 18180, Note_on_c, 1, 80, 100
3, 18240, Note_on_c, 1, 80, 0
3, 18240, Note_on_c, 1, 80, 100
3, 18600, Note_on_c, 1, 80, 0
3, 18600, Note_on_c, 1, 81, 100
3, 18660, Note_on_c, 1, 81, 0
3, 18660, Note_on_c, 1, 83, 100
3, 18720, Note_on_c, 1, 83, 0
3, 18720, Note_on_c, 1, 83, 100
3, 18900, Note_on_c, 1, 83, 0
3, 18900, Note_on_c, 1, 80, 100
3, 18960, Note_on_c, 1, 80, 0
3, 18960, Note_on_c, 1, 81, 100
3, 19140, Note_on_c, 1, 81, 0
3, 19140, Note_on_c, 1, 78, 100
3, 19200, Note_on_c, 1, 78, 0
3, 19200, Note_on_c, 1, 80, 100
3, 19380, Note_on_c, 1, 80, 0
3, 19380, Note_on_c, 1, 77, 100
3, 19410, Note_on_c, 1, 77, 0
3, 19410, Note_on_c, 1, 73, 100
3, 19440, Note_on_c, 1, 73, 0
3, 19440, Note_on_c, 1, 85, 100
3, 19620, Note_on_c, 1, 85, 0
3, 19620, Note_on_c, 1, 85, 100
3, 19680, Note_on_c, 1, 85, 0
3, 19680, Note_on_c, 1, 85, 100
3, 19860, Note_on_c, 1, 85, 0
3, 19860, Note_on_c, 1, 76, 100
3, 19920, Note_on_c, 1, 76, 0
3, 19920, Note_on_c, 1, 70, 100
3, 20100, Note_on_c, 1, 70, 0
3, 20100, Note_on_c, 1, 76, 100
3, 20160, Note_on_c, 1, 76, 0
3, 20160, Note_on_c, 1, 59, 100
3, 20340, Note_on_c, 1, 59, 0
3, 20340, Note_on_c, 1, 76, 100
3, 20400, Note_on_c, 1, 76, 0
3, 20400, Note_on_c, 1, 74, 100
3, 20580, Note_on_c, 1, 74, 0
3, 20580, Note_on_c, 1, 78, 100
3, 20640, Note_on_c, 1, 78, 0
3, 20640, Note_on_c, 1, 83, 100
3, 20720, Note_on_c, 1, 83, 0
3, 20720, Note_on_c, 1, 85, 100
3, 20800, Note_on_c, 1, 85, 0
3, 20800, Note_on_c, 1, 82, 100
3, 20880, Note_on_c, 1, 82, 0
3, 20880, Note_on_c, 1, 83, 100
3, 20960, Note_on_c, 1, 83, 0
3, 20960, Note_on_c, 1, 86, 100
3, 21040, Note_on_c, 1, 86, 0
3, 21040, Note_on_c, 1, 85, 100
3, 21120, Note_on_c, 1, 85, 0
3, 21120, Note_on_c, 1, 86, 100
3, 21300, Note_on_c, 1, 86, 0
3, 21300, Note_on_c, 1, 77, 100
3, 21360, Note_on_c, 1, 77, 0
3, 21360, Note_on_c, 1, 68, 100
3, 21540, Note_on_c, 1, 68, 0
3, 21540, Note_on_c, 1, 77, 100
3, 21600, Note_on_c, 1, 77, 0
3, 21600, Note_on_c, 1, 61, 100
3, 21780, Note_on_c, 1, 61, 0
3, 21780, Note_on_c, 1, 86, 100
3, 21840, Note_on_c, 1, 86, 0
3, 21840, Note_on_c, 1, 85, 100
3, 22020, Note_on_c, 1, 85, 0
3, 22020, Note_on_c, 1, 83, 100
3, 22080, Note_on_c, 1, 83, 0
3, 22080, Note_on_c, 1, 81, 100
3, 22230, Note_on_c, 1, 81, 0
3, 22230, Note_on_c, 1, 80, 100
3, 22260, Note_on_c, 1, 80, 0
3, 22260, Note_on_c, 1, 78, 100
3, 22290, Note_on_c, 1, 78, 0
3, 22290, Note_on_c, 1, 77, 100
3, 22320, Note_on_c, 1, 77, 0
3, 22320, Note_on_c, 1, 78, 100
3, 22500, Note_on_c, 1, 78, 0
3, 22500, Note_on_c, 1, 83, 100
3, 22560, Note_on_c, 1, 83, 0
3, 22560, Pitch_bend_c, 1, 12288
3, 22560, Note_on_c, 1, 80, 100
3, 22580, Pitch_bend_c, 1, 8192
3, 22600, Pitch_bend_c, 1, 12288
3, 22620, Pitch_bend_c, 1, 8192
3, 22640, Pitch_bend_c, 1, 12288
3, 22660, Pitch_bend_c, 1, 8192
3, 22680, Pitch_bend_c, 1, 12288
3, 22700, Pitch_bend_c, 1, 8192
3, 22920, Note_on_c, 1, 80, 0
3, 22920, Note_on_c, 1, 78, 100
3, 23040, Note_on_c, 1, 78, 0
3, 23040, Note_on_c, 1, 78, 100
3, 23400, Note_on_c, 1, 78, 0
3, 23400, Note_on_c, 1, 76, 100
3, 23460, Note_on_c, 1, 76, 0
3, 23460, Note_on_c, 1, 74, 100
3, 23520, Note_on_c, 1, 74, 0
3, 23520, Note_on_c, 1, 76, 100
3, 23600, Note_on_c, 1, 76, 0
3, 23600, Note_on_c, 1, 74, 100
3, 23680, Note_on_c, 1, 74, 0
3, 23680, Note_on_c, 1, 73, 100
3, 23760, Note_on_c, 1, 73, 0
3, 23760, Note_on_c, 1, 74, 100
3, 23840, Note_on_c, 1, 74, 0
3, 23840, Note_on_c, 1, 71, 100
3, 23920, Note_on_c, 1, 71, 0
3, 23920, Note_on_c, 1, 65, 100
3, 24000, Note_on_c, 1, 65, 0
3, 24000, Note_on_c, 1, 66, 100
3, 24080, Note_on_c, 1, 66, 0
3, 24080, Note_on_c, 1, 70, 100
3, 24160, Note_on_c, 1, 70, 0
3, 24160, Note_on_c, 1, 73, 100
3, 24240, Note_on_c, 1, 73, 0
3, 24240, Note_on_c, 1, 78, 100
3, 24660, Note_on_c, 1, 78, 0
3, 24660, Note_on_c, 1, 64, 100
3, 24720, Note_on_c, 1, 64, 0
3, 24720, Note_on_c, 1, 62, 100
3, 24900, Note_on_c, 1, 62, 0
3, 24900, Note_on_c, 1, 61, 100
3, 24960, Note_on_c, 1, 61, 0
3, 24960, Note_on_c, 1, 74, 100
3, 25320, Note_on_c, 1, 74, 0
3, 25440, Note_on_c, 1, 76, 100
3, 25800, Note_on_c, 1, 76, 0
3, 25920, Note_on_c, 1, 76, 100
3, 26280, Note_on_c, 1, 76, 0
3, 26280, Note_on_c, 1, 74, 100
3, 26340, Note_on_c, 1, 74, 0
3, 26340, Note_on_c, 1, 73, 100
3, 26400, Note_on_c, 1, 73, 0
3, 26400, Note_on_c, 1, 74, 100
3, 26580, Note_on_c, 1, 74, 0
3, 26580, Note_on_c, 1, 59, 100
3, 26640, Note_on_c, 1, 59, 0
3, 26640, Note_on_c, 1, 57, 100
3, 26820, Note_on_c, 1, 57, 0
3, 26820, Note_on_c, 1, 78, 100
3, 26880, Note_on_c, 1, 78, 0
3, 26880, Note_on_c, 1, 78, 100
3, 27240, Note_on_c, 1, 78, 0
3, 27240, Note_on_c, 1, 79, 100
3, 27300, Note_on_c, 1, 79, 0
3, 27300, Note_on_c, 1, 78, 100
3, 27360, Note_on_c, 1, 78, 0
3, 27360, Note_on_c, 1, 76, 100
3, 27540, Note_on_c, 1, 76, 0
3, 27540, Note_on_c, 1, 74, 100
3, 27600, Note_on_c, 1, 74, 0
3, 27600, Pitch_bend_c, 1, 12288
3, 27600, Note_on_c, 1, 73, 100
3, 27620, Pitch_bend_c, 1, 8192
3, 27640, Pitch_bend_c, 1, 12288
3, 27660, Pitch_bend_c, 1, 8192
3, 27780, Note_on_c, 1, 73, 0
3, 27780, Note_on_c, 1, 71, 100
3, 27840, Note_on_c, 1, 71, 0
3, 27840, Note_on_c, 1, 70, 100
3, 28020, Note_on_c, 1, 70, 0
3, 28020, Note_on_c, 1, 67, 100
3, 28080, Note_on_c, 1, 67, 0
3, 28080, Note_on_c, 1, 66, 100
3, 28260, Note_on_c, 1, 66, 0
3, 28260, Note_on_c, 1, 64, 100
3, 28320, Note_on_c, 1, 64, 0
3, 28320, Note_on_c, 1, 62, 100
3, 28500, Note_on_c, 1, 62, 0
3, 28500, Note_on_c, 1, 71, 100
3, 28560, Note_on_c, 1, 71, 0
3, 28560, Note_on_c, 1, 61, 100
3, 28740, Note_on_c, 1, 61, 0
3, 28740, Note_on_c, 1, 73, 100
3, 28800, Note_on_c, 1, 73, 0
3, 28800, Note_on_c, 1, 74, 100
3, 28980, Note_on_c, 1, 74, 0
3, 28980, Note_on_c, 1, 59, 100
3, 29010, Note_on_c, 1, 59, 0
3, 29010, Note_on_c, 1, 61, 100
3, 29040, Note_on_c, 1, 61, 0
3, 29040, Note_on_c, 1, 62, 100
3, 29220, Note_on_c, 1, 62, 0
3, 29220, Note_on_c, 1, 64, 100
3, 29280, Note_on_c, 1, 64, 0
3, 29280, Note_on_c, 1, 66, 100
3, 29400, Note_on_c, 1, 66, 0
3, 29400, Note_on_c, 1, 62, 100
3, 29460, Note_on_c, 1, 62, 0
3, 29460, Note_on_c, 1, 64, 100
3, 29520, Note_on_c, 1, 64, 0
3, 29520, Note_on_c, 1, 66, 100
3, 29640, Note_on_c, 1, 66, 0
3, 29640, Note_on_c, 1, 69, 100
3, 29700, Note_on_c, 1, 69, 0
3, 29700, Note_on_c, 1, 67, 100
3, 29760, Note_on_c, 1, 67, 0
3, 29760, Note_on_c, 1, 69, 100
3, 30120, Note_on_c, 1, 69, 0
3, 30120, Note_on_c, 1, 69, 100
3, 30240, Note_on_c, 1, 69, 0
3, 30240, Note_on_c, 1, 74, 100
3, 30360, Note_on_c, 1, 74, 0
3, 30360, Note_on_c, 1, 78, 100
3, 30420, Note_on_c, 1, 78, 0
3, 30420, Note_on_c, 1, 76, 100
3, 30480, Note_on_c, 1, 76, 0
3, 30480, Note_on_c, 1, 78, 100
3, 30660, Note_on_c, 1, 78, 0
3, 30660, Note_on_c, 1, 69, 100
3, 30720, Note_on_c, 1, 69, 0
3, 30720, Note_on_c, 1, 71, 100
3, 30840, Note_on_c, 1, 71, 0
3, 31140, Note_on_c, 1, 74, 100
3, 31200, Note_on_c, 1, 74, 0
3, 31200, Note_on_c, 1, 79, 100
3, 31380, Note_on_c, 1, 79, 0
3, 31680, Note_on_c, 1, 79, 100
3, 31860, Note_on_c, 1, 79, 0
3, 31860, Note_on_c, 1, 78, 100
3, 31890, Note_on_c, 1, 78, 0
3, 31890, Note_on_c, 1, 76, 100
3, 31920, Note_on_c, 1, 76, 0
3, 31920, Note_on_c, 1, 81, 100
3, 32100, Note_on_c, 1, 81, 0
3, 32100, Note_on_c, 1, 79, 100
3, 32160, Note_on_c, 1, 79, 0
3, 32160, Note_on_c, 1, 78, 100
3, 32340, Note_on_c, 1, 78, 0
3, 32340, Note_on_c, 1, 62, 100
3, 32400, Note_on_c, 1, 62, 0
3, 32400, Note_on_c, 1, 67, 100
3, 32580, Note_on_c, 1, 67, 0
3, 32580, Note_on_c, 1, 76, 100
3, 32640, Note_on_c, 1, 76, 0
3, 32640, Note_on_c, 1, 74, 100
3, 32700, Note_on_c, 1, 74, 0
3, 32700, Note_on_c, 1, 73, 100
3, 32880, Note_on_c, 1, 73, 0
3, 32880, Note_on_c, 1, 71, 100
3, 32940, Note_on_c, 1, 71, 0
3, 32940, Note_on_c, 1, 69, 100
3, 33120, Note_on_c, 1, 69, 0
3, 33120, Note_on_c, 1, 81, 100
3, 33300, Note_on_c, 1, 81, 0
3, 33300, Note_on_c, 1, 67, 100
3, 33360, Note_on_c, 1, 67, 0
3, 33360, Note_on_c, 1, 66, 100
3, 33540, Note_on_c, 1, 66, 0
3, 33540, Note_on_c, 1, 67, 100
3, 33570, Note_on_c, 1, 67, 0
3, 33570, Note_on_c, 1, 64, 100
3, 33600, Note_on_c, 1, 64, 0
3, 33600, Note_on_c, 1, 63, 100
3, 33780, Note_on_c, 1, 63, 0
3, 37440, Note_on_c, 1, 76, 100
3, 37620, Note_on_c, 1, 76, 0
3, 37620, Note_on_c, 1, 78, 100
3, 37650, Note_on_c, 1, 78, 0
3, 37650, Note_on_c, 1, 79, 100
3, 37680, Note_on_c, 1, 79, 0
3, 37680, Note_on_c, 1, 78, 100
3, 37860, Note_on_c, 1, 78, 0
3, 37860, Note_on_c, 1, 76, 100
3, 37920, Note_on_c, 1, 76, 0
3, 37920, Note_on_c, 1, 76, 100
3, 38160, Note_on_c, 1, 76, 0
3, 38160, Pitch_bend_c, 1, 16383
3, 38160, Note_on_c, 1, 74, 100
3, 38175, Pitch_bend_c, 1, 8192
3, 38190, Pitch_bend_c, 1, 16383
3, 38205, Pitch_bend_c, 1, 8192
3, 38220, Note_on_c, 1, 74, 0
3, 38220, Note_on_c, 1, 73, 100
3, 38280, Note_on_c, 1, 73, 0
3, 38280, Note_on_c, 1, 74, 100
3, 38400, Note_on_c, 1, 74, 0
3, 38400, Note_on_c, 1, 73, 100
3, 38760, Note_on_c, 1, 73, 0
3, 38760, Note_on_c, 1, 66, 100
3, 38820, Note_on_c, 1, 66, 0
3, 38820, Note_on_c, 1, 68, 100
3, 38880, Note_on_c, 1, 68, 0
3, 38880, Note_on_c, 1, 70, 100
3, 38960, Note_on_c, 1, 70, 0
3, 38960, Note_on_c, 1, 71, 100
3, 39040, Note_on_c, 1, 71, 0
3, 39040, Note_on_c, 1, 73, 100
3, 39120, Note_on_c, 1, 73, 0
3, 39120, Note_on_c, 1, 74, 100
3, 39200, Note_on_c, 1, 74, 0
3, 39200, Note_on_c, 1, 76, 100
3, 39280, Note_on_c, 1, 76, 0
3, 39280, Note_on_c, 1, 78, 100
3, 39360, Note_on_c, 1, 78, 0
3, 39360, Note_on_c, 1, 79, 100
3, 39440, Note_on_c, 1, 79, 0
3, 39440, Note_on_c, 1, 78, 100
3, 39520, Note_on_c, 1, 78, 0
3, 39520, Note_on_c, 1, 76, 100
3, 39600, Note_on_c, 1, 76, 0
3, 39600, Note_on_c, 1, 82, 100
3, 39680, Note_on_c, 1, 82, 0
3, 39680, Note_on_c, 1, 83, 100
3, 39760, Note_on_c, 1, 83, 0
3, 39760, Note_on_c, 1, 85, 100
3, 39840, Note_on_c, 1, 85, 0
3, 39840, Note_on_c, 1, 78, 100
3, 40020, Note_on_c, 1, 78, 0
3, 40020, Note_on_c, 1, 71, 100
3, 40080, Note_on_c, 1, 71, 0
3, 40080, Note_on_c, 1, 70, 100
3, 40260, Note_on_c, 1, 70, 0
3, 40260, Note_on_c, 1, 76, 100
3, 40320, Note_on_c, 1, 76, 0
3, 40320, Note_on_c, 1, 59, 100
3, 40400, Note_on_c, 1, 59, 0
3, 40400, Note_on_c, 1, 64, 100
3, 40480, Note_on_c, 1, 64, 0
3, 40480, Note_on_c, 1, 67, 100
3, 40560, Note_on_c, 1, 67, 0
3, 40560, Note_on_c, 1, 70, 100
3, 40640, Note_on_c, 1, 70, 0
3, 40640, Note_on_c, 1, 73, 100
3, 40720, Note_on_c, 1, 73, 0
3, 40720, Note_on_c, 1, 76, 100
3, 40800, Note_on_c, 1, 76, 0
3, 40800, Note_on_c, 1, 74, 100
3, 40880, Note_on_c, 1, 74, 0
3, 40880, Note_on_c, 1, 73, 100
3, 40960, Note_on_c, 1, 73, 0
3, 40960, Note_on_c, 1, 71, 100
3, 41040, Note_on_c, 1, 71, 0
3, 41040, Note_on_c, 1, 80, 100
3, 41220, Note_on_c, 1, 80, 0
3, 41220, Note_on_c, 1, 80, 100
3, 41280, Note_on_c, 1, 80, 0
3, 41280, Note_on_c, 1, 80, 100
3, 41640, Note_on_c, 1, 80, 0
3, 41640, Note_on_c, 1, 81, 100
3, 41700, Note_on_c, 1, 81, 0
3, 41700, Note_on_c, 1, 83, 100
3, 41760, Note_on_c, 1, 83, 0
3, 41760, Note_on_c, 1, 83, 100
3, 41940, Note_on_c, 1, 83, 0
3, 41940, Note_on_c, 1, 80, 100
3, 42000, Note_on_c, 1, 80, 0
3, 42000, Note_on_c, 1, 81, 100
3, 42180, Note_on_c, 1, 81, 0
3, 42180, Note_on_c, 1, 78, 100
3, 42240, Note_on_c, 1, 78, 0
3, 42240, Note_on_c, 1, 80, 100
3, 42420, Note_on_c, 1, 80, 0
3, 42420, Note_on_c, 1, 77, 100
3, 42450, Note_on_c, 1, 77, 0
3, 42450, Note_on_c, 1, 73, 100
3, 42480, Note_on_c, 1, 73, 0
3, 42480, Note_on_c, 1, 85, 100
3, 42660, Note_on_c, 1, 85, 0
3, 42660, Note_on_c, 1, 85, 100
3, 42720, Note_on_c, 1, 85, 0
3, 42720, Note_on_c, 1, 85, 100
3, 42900, Note_on_c, 1, 85, 0
3, 42900, Note_on_c, 1, 76, 100
3, 42960, Note_on_c, 1, 76, 0
3, 42960, Note_on_c, 1, 70, 100
3, 43140, Note_on_c, 1, 70, 0
3, 43140, Note_on_c, 1, 76, 100
3, 43200, Note_on_c, 1, 76, 0
3, 43200, Note_on_c, 1, 59, 100
3, 43380, Note_on_c, 1, 59, 0
3, 43380, Note_on_c, 1, 76, 100
3, 43440, Note_on_c, 1, 76, 0
3, 43440, Note_on_c, 1, 74, 100
3, 43620, Note_on_c, 1, 74, 0
3, 43620, Note_on_c, 1, 78, 100
3, 43680, Note_on_c, 1, 78, 0
3, 43680, Note_on_c, 1, 83, 100
3, 43760, Note_on_c, 1, 83, 0
3, 43760, Note_on_c, 1, 85, 100
3, 43840, Note_on_c, 1, 85, 0
3, 43840, Note_on_c, 1, 82, 100
3, 43920, Note_on_c, 1, 82, 0
3, 43920, Note_on_c, 1, 83, 100
3, 44000, Note_on_c, 1, 83, 0
3, 44000, Note_on_c, 1, 86, 100
3, 44080, Note_on_c, 1, 86, 0
3, 44080, Note_on_c, 1, 85, 100
3, 44160, Note_on_c, 1, 85, 0
3, 44160, Note_on_c, 1, 86, 100
3, 44340, Note_on_c, 1, 86, 0
3, 44340, Note_on_c, 1, 77, 100
3, 44400, Note_on_c, 1, 77, 0
3, 44400, Note_on_c, 1, 68, 100
3, 44580, Note_on_c, 1, 68, 0
3, 44580, Note_on_c, 1, 77, 100
3, 44640, Note_on_c, 1, 77, 0
3, 44640, Note_on_c, 1, 61, 100
3, 44820, Note_on_c, 1, 61, 0
3, 44820, Note_on_c, 1, 86, 100
3, 44880, Note_on_c, 1, 86, 0
3, 44880, Note_on_c, 1, 85, 100
3, 45060, Note_on_c, 1, 85, 0
3, 45060, Note_on_c, 1, 83, 100
3, 45120, Note_on_c, 1, 83, 0
3, 45120, Note_on_c, 1, 81, 100
3, 45270, Note_on_c, 1, 81, 0
3, 45270, Note_on_c, 1, 80, 100
3, 45300, Note_on_c, 1, 80, 0
3, 45300, Note_on_c, 1, 78, 100
3, 45330, Note_on_c, 1, 78, 0
3, 45330, Note_on_c, 1, 77, 100
3, 45360, Note_on_c, 1, 77, 0
3, 45360, Note_on_c, 1, 78, 100
3, 45540, Note_on_c, 1, 78, 0
3, 45540, Note_on_c, 1, 83, 100
3, 45600, Note_on_c, 1, 83, 0
3, 45600, Pitch_bend_c, 1, 12288
3, 45600, Note_on_c, 1, 80, 100
3, 45620, Pitch_bend_c, 1, 8192
3, 45640, Pitch_bend_c, 1, 12288
3, 45660, Pitch_bend_c, 1, 8192
3, 45680, Pitch_bend_c, 1, 12288
3, 45700, Pitch_bend_c, 1, 8192
3, 45720, Pitch_bend_c, 1, 12288
3, 45740, Pitch_bend_c, 1, 8192
3, 45960, Note_on_c, 1, 80, 0
3, 45960, Note_on_c, 1, 78, 100
3, 46080, Note_on_c, 1, 78, 0
3, 46080, Note_on_c, 1, 78, 100
3, 46440, Note_on_c, 1, 78, 0
3, 46440, Note_on_c, 1, 76, 100
3, 46500, Note_on_c, 1, 76, 0
3, 46500, Note_on_c, 1, 74, 100
3, 46560, Note_on_c, 1, 74, 0
3, 46560, Note_on_c, 1, 76, 100
3, 46640, Note_on_c, 1, 76, 0
3, 46640, Note_on_c, 1, 74, 100
3, 46720, Note_on_c, 1, 74, 0
3, 46720, Note_on_c, 1, 73, 100
3, 46800, Note_on_c, 1, 73, 0
3, 46800, Note_on_c, 1, 74, 100
3, 46880, Note_on_c, 1, 74, 0
3, 46880, Note_on_c, 1, 71, 100
3, 46960, Note_on_c, 1, 71, 0
3, 46960, Note_on_c, 1, 65, 100
3, 47040, Note_on_c, 1, 65, 0
3, 47040, Note_on_c, 1, 66, 100
3, 47120, Note_on_c, 1, 66, 0
3, 47120, Note_on_c, 1, 70, 100
3, 47200, Note_on_c, 1, 70, 0
3, 47200, Note_on_c, 1, 73, 100
3, 47280, Note_on_c, 1, 73, 0
3, 47280, Note_on_c, 1, 78, 100
3, 47880, Note_on_c, 1, 78, 0
3, 47880, Note_on_c, 1, 73, 100
3, 48000, Note_on_c, 1, 73, 0
3, 48000, Note_on_c, 1, 73, 100
3, 48180, Note_on_c, 1, 73, 0
3, 48180, Note_on_c, 1, 74, 100
3, 48210, Note_on_c, 1, 74, 0
3, 48210, Note_on_c, 1, 76, 100
3, 48240, Note_on_c, 1, 76, 0
3, 48240, Note_on_c, 1, 74, 100
3, 48420, Note_on_c, 1, 74, 0
3, 48420, Note_on_c, 1, 71, 100
3, 48480, Note_on_c, 1, 71, 0
3, 48480, Note_on_c, 1, 70, 100
3, 48660, Note_on_c, 1, 70, 0
3, 48660, Note_on_c, 1, 66, 100
3, 48720, Note_on_c, 1, 66, 0
3, 48720, Pitch_bend_c, 1, 16383
3, 48720, Note_on_c, 1, 64, 100
3, 48740, Pitch_bend_c, 1, 8192
3, 48760, Pitch_bend_c, 1, 16383
3, 48780, Pitch_bend_c, 1, 8192
3, 48800, Pitch_bend_c, 1, 16383
3, 48820, Pitch_bend_c, 1, 8192
3, 48840, Pitch_bend_c, 1, 16383
3, 48860, Pitch_bend_c, 1, 8192
3, 48900, Note_on_c, 1, 64, 0
3, 48900, Note_on_c, 1, 62, 100
3, 48930, Note_on_c, 1, 62, 0
3, 48930, Note_on_c, 1, 64, 100
3, 48960, Note_on_c, 1, 64, 0
3, 48960, Note_on_c, 1, 62, 100
3, 49040, Note_on_c, 1, 62, 0
3, 49040, Note_on_c, 1, 66, 100
3, 49120, Note_on_c, 1, 66, 0
3, 49120, Note_on_c, 1, 71, 100
3, 49200, Note_on_c, 1, 71, 0
3, 49200, Note_on_c, 1, 62, 100
3, 49280, Note_on_c, 1, 62, 0
3, 49280, Note_on_c, 1, 61, 100
3, 49360, Note_on_c, 1, 61, 0
3, 49360, Note_on_c, 1, 59, 100
3, 49440, Note_on_c, 1, 59, 0
3, 49440, Note_on_c, 1, 58, 100
3, 49620, Note_on_c, 1, 58, 0
3, 49620, Note_on_c, 1, 73, 100
3, 49680, Note_on_c, 1, 73, 0
3, 49680, Note_on_c, 1, 66, 100
3, 49860, Note_on_c, 1, 66, 0
3, 49860, Note_on_c, 1, 64, 100
3, 49920, Note_on_c, 1, 64, 0
3, 49920, Note_on_c, 1, 62, 100
3, 50100, Note_on_c, 1, 62, 0
3, 50100, Note_on_c, 1, 59, 100
3, 50130, Note_on_c, 1, 59, 0
3, 50130, Note_on_c, 1, 61, 100
3, 50160, Note_on_c, 1, 61, 0
3, 50160, Note_on_c, 1, 62, 100
3, 50340, Note_on_c, 1, 62, 0
3, 50340, Note_on_c, 1, 64, 100
3, 50400, Note_on_c, 1, 64, 0
3, 50400, Note_on_c, 1, 66, 100
3, 50480, Note_on_c, 1, 66, 0
3, 50480, Note_on_c, 1, 67, 100
3, 50560, Note_on_c, 1, 67, 0
3, 50560, Note_on_c, 1, 69, 100
3, 50640, Note_on_c, 1, 69, 0
3, 50640, Note_on_c, 1, 71, 100
3, 50720, Note_on_c, 1, 71, 0
3, 50720, Note_on_c, 1, 72, 100
3, 50800, Note_on_c, 1, 72, 0
3, 50800, Note_on_c, 1, 69, 100
3, 50880, Note_on_c, 1, 69, 0
3, 50880, Note_on_c, 1, 63, 100
3, 51240, Note_on_c, 1, 63, 0
3, 51240, Note_on_c, 1, 66, 100
3, 51360, Note_on_c, 1, 66, 0
3, 51360, Note_on_c, 1, 71, 100
3, 51540, Note_on_c, 1, 71, 0
3, 51540, Note_on_c, 1, 71, 100
3, 51600, Note_on_c, 1, 71, 0
3, 51600, Note_on_c, 1, 73, 100
3, 51780, Note_on_c, 1, 73, 0
3, 51780, Note_on_c, 1, 75, 100
3, 51840, Note_on_c, 1, 75, 0
3, 51840, Note_on_c, 1, 76, 100
3, 52020, Note_on_c, 1, 76, 0
3, 52020, Note_on_c, 1, 79, 100
3, 52050, Note_on_c, 1, 79, 0
3, 52050, Note_on_c, 1, 78, 100
3, 52080, Note_on_c, 1, 78, 0
3, 52080, Note_on_c, 1, 79, 100
3, 52260, Note_on_c, 1, 79, 0
3, 52260, Note_on_c, 1, 71, 100
3, 52320, Note_on_c, 1, 71, 0
3, 52320, Note_on_c, 1, 72, 100
3, 52400, Note_on_c, 1, 72, 0
3, 52400, Note_on_c, 1, 71, 100
3, 52480, Note_on_c, 1, 71, 0
3, 52480, Note_on_c, 1, 69, 100
3, 52560, Note_on_c, 1, 69, 0
3, 52560, Note_on_c, 1, 79, 100
3, 52640, Note_on_c, 1, 79, 0
3, 52640, Note_on_c, 1, 78, 100
3, 52720, Note_on_c, 1, 78, 0
3, 52720, Note_on_c, 1, 76, 100
3, 52800, Note_on_c, 1, 76, 0
3, 52800, Note_on_c, 1, 76, 100
3, 52880, Note_on_c, 1, 76, 0
3, 52880, Note_on_c, 1, 75, 100
3, 52960, Note_on_c, 1, 75, 0
3, 52960, Note_on_c, 1, 73, 100
3, 53040, Note_on_c, 1, 73, 0
3, 53040, Note_on_c, 1, 75, 100
3, 53120, Note_on_c, 1, 75, 0
3, 53120, Note_on_c, 1, 73, 100
3, 53200, Note_on_c, 1, 73, 0
3, 53200, Note_on_c, 1, 71, 100
3, 53280, Note_on_c, 1, 71, 0
3, 53280, Note_on_c, 1, 83, 100
3, 53460, Note_on_c, 1, 83, 0
3, 53460, Note_on_c, 1, 71, 100
3, 53490, Note_on_c, 1, 71, 0
3, 53490, Note_on_c, 1, 72, 100
3, 53520, Note_on_c, 1, 72, 0
3, 53520, Note_on_c, 1, 74, 100
3, 53580, Note_on_c, 1, 74, 0
3, 53580, Note_on_c, 1, 76, 100
3, 53640, Note_on_c, 1, 76, 0
3, 53640, Note_on_c, 1, 77, 100
3, 53760, Note_on_c, 1, 77, 0
3, 53760, Note_on_c, 1, 68, 100
3, 53880, Note_on_c, 1, 68, 0
3, 53880, Note_on_c, 1, 76, 100
3, 54000, Note_on_c, 1, 76, 0
3, 54000, Note_on_c, 1, 83, 100
3, 54120, Note_on_c, 1, 83, 0
3, 54120, Note_on_c, 1, 84, 100
3, 54180, Note_on_c, 1, 84, 0
3, 54180, Note_on_c, 1, 86, 100
3, 54240, Note_on_c, 1, 86, 0
3, 54240, Note_on_c, 1, 86, 100
3, 54420, Note_on_c, 1, 86, 0
3, 54420, Note_on_c, 1, 84, 100
3, 54480, Note_on_c, 1, 84, 0
3, 54480, Note_on_c, 1, 86, 100
3, 54660, Note_on_c, 1, 86, 0
3, 54660, Note_on_c, 1, 83, 100
3, 54720, Note_on_c, 1, 83, 0
3, 54720, Note_on_c, 1, 84, 100
3, 55080, Note_on_c, 1, 84, 0
3, 57600, Note_on_c, 1, 72, 100
3, 57780, Note_on_c, 1, 72, 0
3, 64320, Note_on_c, 1, 66, 100
3, 64500, Note_on_c, 1, 66, 0
3, 66240, Note_on_c, 1, 71, 100
3, 66420, Note_on_c, 1, 71, 0
3, 68580, Note_on_c, 1, 64, 100
3, 68640, Note_on_c, 1, 64, 0
3, 68640, Note_on_c, 1, 66, 100
3, 69120, Note_on_c, 1, 66, 0
3, 69120, Note_on_c, 1, 59, 100
3, 69480, Note_on_c, 1, 59, 0
3, 70080, Note_on_c, 1, 59, 100
3, 70800, Note_on_c, 1, 59, 0
3, 70920, Note_on_c, 1, 73, 100
3, 71040, Note_on_c, 1, 73, 0
3, 71040, Note_on_c, 1, 73, 100
3, 71220, Note_on_c, 1, 73, 0
3, 71220, Note_on_c, 1, 74, 100
3, 71250, Note_on_c, 1, 74, 0
3, 71250, Note_on_c, 1, 76, 100
3, 71280, Note_on_c, 1, 76, 0
3, 71280, Note_on_c, 1, 74, 100
3, 71460, Note_on_c, 1, 74, 0
3, 71460, Note_on_c, 1, 71, 100
3, 71520, Note_on_c, 1, 71, 0
3, 71520, Note_on_c, 1, 70, 100
3, 71700, Note_on_c, 1, 70, 0
3, 71700, Note_on_c, 1, 66, 100
3, 71760, Note_on_c, 1, 66, 0
3, 71760, Pitch_bend_c, 1, 16383
3, 71760, Note_on_c, 1, 64, 100
3, 71780, Pitch_bend_c, 1, 8192
3, 71800, Pitch_bend_c, 1, 16383
3, 71820, Pitch_bend_c, 1, 8192
3, 71840, Pitch_bend_c, 1, 16383
3, 71860, Pitch_bend_c, 1, 8192
3, 71880, Pitch_bend_c, 1, 16383
3, 71900, Pitch_bend_c, 1, 8192
3, 71940, Note_on_c, 1, 64, 0
3, 71940, Note_on_c, 1, 62, 100
3, 71970, Note_on_c, 1, 62, 0
3, 71970, Note_on_c, 1, 64, 100
3, 72000, Note_on_c, 1, 64, 0
3, 72000, Note_on_c, 1, 62, 100
3, 72080, Note_on_c, 1, 62, 0
3, 72080, Note_on_c, 1, 66, 100
3, 72160, Note_on_c, 1, 66, 0
3, 72160, Note_on_c, 1, 71, 100
3, 72240, Note_on_c, 1, 71, 0
3, 72240, Note_on_c, 1, 62, 100
3, 72320, Note_on_c, 1, 62, 0
3, 72320, Note_on_c, 1, 61, 100
3, 72400, Note_on_c, 1, 61, 0
3, 72400, Note_on_c, 1, 59, 100
3, 72480, Note_on_c, 1, 59, 0
3, 72480, Note_on_c, 1, 58, 100
3, 72660, Note_on_c, 1, 58, 0
3, 72660, Note_on_c, 1, 73, 100
3, 72720, Note_on_c, 1, 73, 0
3, 72720, Note_on_c, 1, 66, 100
3, 72900, Note_on_c, 1, 66, 0
3, 72900, Note_on_c, 1, 64, 100
3, 72960, Note_on_c, 1, 64, 0
3, 72960, Note_on_c, 1, 62, 100
3, 73140, Note_on_c, 1, 62, 0
3, 73140, Note_on_c, 1, 59, 100
3, 73170, Note_on_c, 1, 59, 0
3, 73170, Note_on_c, 1, 61, 100
3, 73200, Note_on_c, 1, 61, 0
3, 73200, Note_on_c, 1, 62, 100
3, 73380, Note_on_c, 1, 62, 0
3, 73380, Note_on_c, 1, 64, 100
3, 73440, Note_on_c, 1, 64, 0
3, 73440, Note_on_c, 1, 66, 100
3, 73520, Note_on_c, 1, 66, 0
3, 73520, Note_on_c, 1, 67, 100
3, 73600, Note_on_c, 1, 67, 0
3, 73600, Note_on_c, 1, 69, 100
3, 73680, Note_on_c, 1, 69, 0
3, 73680, Note_on_c, 1, 71, 100
3, 73760, Note_on_c, 1, 71, 0
3, 73760, Note_on_c, 1, 72, 100
3, 73840, Note_on_c, 1, 72, 0
3, 73840, Note_on_c, 1, 69, 100
3, 73920, Note_on_c, 1, 69, 0
3, 73920, Note_on_c, 1, 63, 100
3, 74280, Note_on_c, 1, 63, 0
3, 74280, Note_on_c, 1, 66, 100
3, 74400, Note_on_c, 1, 66, 0
3, 74400, Note_on_c, 1, 71, 100
3, 74580, Note_on_c, 1, 71, 0
3, 74580, Note_on_c, 1, 71, 100
3, 74640, Note_on_c, 1, 71, 0
3, 74640, Note_on_c, 1, 73, 100
3, 74820, Note_on_c, 1, 73, 0
3, 74820, Note_on_c, 1, 75, 100
3, 74880, Note_on_c, 1, 75, 0
3, 74880, Note_on_c, 1, 76, 100
3, 75060, Note_on_c, 1, 76, 0
3, 75060, Note_on_c, 1, 79, 100
3, 75090, Note_on_c, 1, 79, 0
3, 75090, Note_on_c, 1, 78, 100
3, 75120, Note_on_c, 1, 78, 0
3, 75120, Note_on_c, 1, 79, 100
3, 75300, Note_on_c, 1, 79, 0
3, 75300, Note_on_c, 1, 71, 100
3, 75360, Note_on_c, 1, 71, 0
3, 75360, Note_on_c, 1, 72, 100
3, 75440, Note_on_c, 1, 72, 0
3, 75440, Note_on_c, 1, 71, 100
3, 75520, Note_on_c, 1, 71, 0
3, 75520, Note_on_c, 1, 69, 100
3, 75600, Note_on_c, 1, 69, 0
3, 75600, Note_on_c, 1, 79, 100
3, 75680, Note_on_c, 1, 79, 0
3, 75680, Note_on_c, 1, 78, 100
3, 75760, Note_on_c, 1, 78, 0
3, 75760, Note_on_c, 1, 76, 100
3, 75840, Note_on_c, 1, 76, 0
3, 75840, Note_on_c, 1, 76, 100
3, 75920, Note_on_c, 1, 76, 0
3, 75920, Note_on_c, 1, 75, 100
3, 76000, Note_on_c, 1, 75, 0
3, 76000, Note_on_c, 1, 73, 100
3, 76080, Note_on_c, 1, 73, 0
3, 76080, Note_on_c, 1, 75, 100
3, 76160, Note_on_c, 1, 75, 0
3, 76160, Note_on_c, 1, 73, 100
3, 76240, Note_on_c, 1, 73, 0
3, 76240, Note_on_c, 1, 71, 100
3, 76320, Note_on_c, 1, 71, 0
3, 76320, Note_on_c, 1, 83, 100
3, 76500, Note_on_c, 1, 83, 0
3, 76500, Note_on_c, 1, 71, 100
3, 76530, Note_on_c, 1, 71, 0
3, 76530, Note_on_c, 1, 72, 100
3, 76560, Note_on_c, 1, 72, 0
3, 76560, Note_on_c, 1, 74, 100
3, 76620, Note_on_c, 1, 74, 0
3, 76620, Note_on_c, 1, 76, 100
3, 76680, Note_on_c, 1, 76, 0
3, 76680, Note_on_c, 1, 77, 100
3, 76800, Note_on_c, 1, 77, 0
3, 76800, Note_on_c, 1, 68, 100
3, 76920, Note_on_c, 1, 68, 0
3, 76920, Note_on_c, 1, 76, 100
3, 77040, Note_on_c, 1, 76, 0
3, 77040, Note_on_c, 1, 83, 100
3, 77160, Note_on_c, 1, 83, 0
3, 77160, Note_on_c, 1, 84, 100
3, 77220, Note_on_c, 1, 84, 0
3, 77220, Note_on_c, 1, 86, 100
3, 77280, Note_on_c, 1, 86, 0
3, 77280, Note_on_c, 1, 86, 100
3, 77460, Note_on_c, 1, 86, 0
3, 77460, Note_on_c, 1, 84, 100
3, 77520, Note_on_c, 1, 84, 0
3, 77520, Note_on_c, 1, 86, 100
3, 77700, Note_on_c, 1, 86, 0
3, 77700, Note_on_c, 1, 83, 100
3, 77760, Note_on_c, 1, 83, 0
3, 77760, Note_on_c, 1, 84, 100
3, 78120, Note_on_c, 1, 84, 0
3, 80640, Note_on_c, 1, 72, 100
3, 80820, Note_on_c, 1, 72, 0
3, 87360, Note_on_c, 1, 66, 100
3, 87540, Note_on_c, 1, 66, 0
3, 89280, Note_on_c, 1, 71, 100
3, 89460, Note_on_c, 1, 71, 0
3, 91620, Note_on_c, 1, 64, 100
3, 91680, Note_on_c, 1, 64, 0
3, 91680, Note_on_c, 1, 66, 100
3, 92160, Note_on_c, 1, 66, 0
3, 92160, Note_on_c, 1, 59, 100
3, 92520, Note_on_c, 1, 59, 0
3, 93120, Note_on_c, 1, 59, 100
3, 93840, Note_on_c, 1, 59, 0
3, 93840, End_track
4, 0, Start_track
4, 0, MIDI_port, 0
4, 0, Title_t, "Johann Sebastian Bach  (1685-1750)"
4, 0, Program_c, 2, 40
4, 0, Control_c, 2, 7, 100
4, 0, Control_c, 2, 10, 79
4, 1920, Note_on_c, 2, 66, 100
4, 2280, Note_on_c, 2, 66, 0
4, 2880, Note_on_c, 2, 66, 100
4, 3240, Note_on_c, 2, 66, 0
4, 3840, Note_on_c, 2, 62, 100
4, 4200, Note_on_c, 2, 62, 0
4, 6720, Note_on_c, 2, 66, 100
4, 7080, Note_on_c, 2, 66, 0
4, 7620, Note_on_c, 2, 62, 100
4, 7680, Note_on_c, 2, 62, 0
4, 7680, Note_on_c, 2, 67, 100
4, 7800, Note_on_c, 2, 67, 0
4, 7800, Note_on_c, 2, 71, 100
4, 7860, Note_on_c, 2, 71, 0
4, 7860, Note_on_c, 2, 69, 100
4, 7920, Note_on_c, 2, 69, 0
4, 7920, Note_on_c, 2, 67, 100
4, 8100, Note_on_c, 2, 67, 0
4, 8100, Note_on_c, 2, 66, 100
4, 8160, Note_on_c, 2, 66, 0
4, 8160, Note_on_c, 2, 64, 100
4, 8340, Note_on_c, 2, 64, 0
4, 8340, Note_on_c, 2, 64, 100
4, 8400, Note_on_c, 2, 64, 0
4, 8400, Note_on_c, 2, 66, 100
4, 8580, Note_on_c, 2, 66, 0
4, 8580, Note_on_c, 2, 67, 100
4, 8640, Note_on_c, 2, 67, 0
4, 8640, Note_on_c, 2, 61, 100
4, 8760, Note_on_c, 2, 61, 0
4, 10560, Note_on_c, 2, 71, 100
4, 10740, Note_on_c, 2, 71, 0
4, 14400, Note_on_c, 2, 66, 100
4, 14580, Note_on_c, 2, 66, 0
4, 14880, Note_on_c, 2, 66, 100
4, 15120, Note_on_c, 2, 66, 0
4, 15360, Note_on_c, 2, 66, 100
4, 15720, Note_on_c, 2, 66, 0
4, 18240, Note_on_c, 2, 65, 100
4, 18600, Note_on_c, 2, 65, 0
4, 18960, Note_on_c, 2, 66, 100
4, 19140, Note_on_c, 2, 66, 0
4, 19200, Note_on_c, 2, 65, 100
4, 19380, Note_on_c, 2, 65, 0
4, 22080, Note_on_c, 2, 66, 100
4, 22320, Note_on_c, 2, 66, 0
4, 22320, Note_on_c, 2, 69, 100
4, 22500, Note_on_c, 2, 69, 0
4, 22500, Note_on_c, 2, 71, 100
4, 22560, Note_on_c, 2, 71, 0
4, 22560, Note_on_c, 2, 73, 100
4, 23040, Note_on_c, 2, 73, 0
4, 23040, Note_on_c, 2, 66, 100
4, 23400, Note_on_c, 2, 66, 0
4, 24960, Note_on_c, 2, 66, 100
4, 25320, Note_on_c, 2, 66, 0
4, 25920, Note_on_c, 2, 66, 100
4, 26280, Note_on_c, 2, 66, 0
4, 26880, Note_on_c, 2, 62, 100
4, 27240, Note_on_c, 2, 62, 0
4, 29760, Note_on_c, 2, 66, 100
4, 30120, Note_on_c, 2, 66, 0
4, 30660, Note_on_c, 2, 62, 100
4, 30720, Note_on_c, 2, 62, 0
4, 30720, Note_on_c, 2, 67, 100
4, 30840, Note_on_c, 2, 67, 0
4, 30840, Note_on_c, 2, 71, 100
4, 30900, Note_on_c, 2, 71, 0
4, 30900, Note_on_c, 2, 69, 100
4, 30960, Note_on_c, 2, 69, 0
4, 30960, Note_on_c, 2, 67, 100
4, 31140, Note_on_c, 2, 67, 0
4, 31140, Note_on_c, 2, 66, 100
4, 31200, Note_on_c, 2, 66, 0
4, 31200, Note_on_c, 2, 64, 100
4, 31380, Note_on_c, 2, 64, 0
4, 31380, Note_on_c, 2, 64, 100
4, 31440, Note_on_c, 2, 64, 0
4, 31440, Note_on_c, 2, 66, 100
4, 31620, Note_on_c, 2, 66, 0
4, 31620, Note_on_c, 2, 67, 100
4, 31680, Note_on_c, 2, 67, 0
4, 31680, Note_on_c, 2, 61, 100
4, 31800, Note_on_c, 2, 61, 0
4, 33600, Note_on_c, 2, 71, 100
4, 33780, Note_on_c, 2, 71, 0
4, 37440, Note_on_c, 2, 66, 100
4, 37620, Note_on_c, 2, 66, 0
4, 37920, Note_on_c, 2, 66, 100
4, 38160, Note_on_c, 2, 66, 0
4, 38400, Note_on_c, 2, 66, 100
4, 38760, Note_on_c, 2, 66, 0
4, 41280, Note_on_c, 2, 65, 100
4, 41640, Note_on_c, 2, 65, 0
4, 42000, Note_on_c, 2, 66, 100
4, 42180, Note_on_c, 2, 66, 0
4, 42240, Note_on_c, 2, 65, 100
4, 42420, Note_on_c, 2, 65, 0
4, 45120, Note_on_c, 2, 66, 100
4, 45360, Note_on_c, 2, 66, 0
4, 45360, Note_on_c, 2, 69, 100
4, 45540, Note_on_c, 2, 69, 0
4, 45540, Note_on_c, 2, 71, 100
4, 45600, Note_on_c, 2, 71, 0
4, 45600, Note_on_c, 2, 73, 100
4, 46080, Note_on_c, 2, 73, 0
4, 46080, Note_on_c, 2, 66, 100
4, 46440, Note_on_c, 2, 66, 0
4, 48000, Note_on_c, 2, 66, 100
4, 48360, Note_on_c, 2, 66, 0
4, 51840, Note_on_c, 2, 71, 100
4, 52020, Note_on_c, 2, 71, 0
4, 54720, Note_on_c, 2, 76, 100
4, 55080, Note_on_c, 2, 76, 0
4, 55680, Note_on_c, 2, 75, 100
4, 55860, Note_on_c, 2, 75, 0
4, 57600, Note_on_c, 2, 67, 100
4, 57780, Note_on_c, 2, 67, 0
4, 58560, Note_on_c, 2, 64, 100
4, 58680, Note_on_c, 2, 64, 0
4, 59040, Note_on_c, 2, 66, 100
4, 59280, Note_on_c, 2, 66, 0
4, 59520, Note_on_c, 2, 64, 100
4, 59880, Note_on_c, 2, 64, 0
4, 59880, Note_on_c, 2, 66, 100
4, 60000, Note_on_c, 2, 66, 0
4, 60000, Note_on_c, 2, 67, 100
4, 60080, Note_on_c, 2, 67, 0
4, 60080, Note_on_c, 2, 69, 100
4, 60160, Note_on_c, 2, 69, 0
4, 60160, Note_on_c, 2, 71, 100
4, 60240, Note_on_c, 2, 71, 0
4, 60240, Note_on_c, 2, 73, 100
4, 60320, Note_on_c, 2, 73, 0
4, 60320, Note_on_c, 2, 74, 100
4, 60400, Note_on_c, 2, 74, 0
4, 60400, Note_on_c, 2, 76, 100
4, 60480, Note_on_c, 2, 76, 0
4, 60480, Note_on_c, 2, 61, 100
4, 60660, Note_on_c, 2, 61, 0
4, 60660, Note_on_c, 2, 64, 100
4, 60720, Note_on_c, 2, 64, 0
4, 60720, Note_on_c, 2, 69, 100
4, 60900, Note_on_c, 2, 69, 0
4, 60900, Note_on_c, 2, 67, 100
4, 60960, Note_on_c, 2, 67, 0
4, 60960, Note_on_c, 2, 66, 100
4, 61140, Note_on_c, 2, 66, 0
4, 61140, Note_on_c, 2, 81, 100
4, 61200, Note_on_c, 2, 81, 0
4, 61200, Note_on_c, 2, 64, 100
4, 61380, Note_on_c, 2, 64, 0
4, 61380, Note_on_c, 2, 79, 100
4, 61440, Note_on_c, 2, 79, 0
4, 61440, Note_on_c, 2, 62, 100
4, 61520, Note_on_c, 2, 62, 0
4, 61520, Note_on_c, 2, 69, 100
4, 61600, Note_on_c, 2, 69, 0
4, 61600, Note_on_c, 2, 79, 100
4, 61680, Note_on_c, 2, 79, 0
4, 61680, Note_on_c, 2, 78, 100
4, 61760, Note_on_c, 2, 78, 0
4, 61760, Note_on_c, 2, 76, 100
4, 61840, Note_on_c, 2, 76, 0
4, 61840, Note_on_c, 2, 82, 100
4, 61920, Note_on_c, 2, 82, 0
4, 61920, Note_on_c, 2, 83, 100
4, 62000, Note_on_c, 2, 83, 0
4, 62000, Note_on_c, 2, 78, 100
4, 62080, Note_on_c, 2, 78, 0
4, 62080, Note_on_c, 2, 76, 100
4, 62160, Note_on_c, 2, 76, 0
4, 62160, Note_on_c, 2, 74, 100
4, 62240, Note_on_c, 2, 74, 0
4, 62240, Note_on_c, 2, 73, 100
4, 62320, Note_on_c, 2, 73, 0
4, 62320, Note_on_c, 2, 76, 100
4, 62400, Note_on_c, 2, 76, 0
4, 62400, Note_on_c, 2, 70, 100
4, 62480, Note_on_c, 2, 70, 0
4, 62480, Note_on_c, 2, 67, 100
4, 62560, Note_on_c, 2, 67, 0
4, 62560, Note_on_c, 2, 66, 100
4, 62640, Note_on_c, 2, 66, 0
4, 62640, Note_on_c, 2, 64, 100
4, 62720, Note_on_c, 2, 64, 0
4, 62720, Note_on_c, 2, 70, 100
4, 62800, Note_on_c, 2, 70, 0
4, 62800, Note_on_c, 2, 79, 100
4, 62880, Note_on_c, 2, 79, 0
4, 62880, Note_on_c, 2, 78, 100
4, 63060, Note_on_c, 2, 78, 0
4, 63060, Note_on_c, 2, 62, 100
4, 63120, Note_on_c, 2, 62, 0
4, 63120, Note_on_c, 2, 61, 100
4, 63300, Note_on_c, 2, 61, 0
4, 63300, Note_on_c, 2, 76, 100
4, 63360, Note_on_c, 2, 76, 0
4, 63360, Note_on_c, 2, 59, 100
4, 63510, Note_on_c, 2, 59, 0
4, 63510, Note_on_c, 2, 76, 100
4, 63540, Note_on_c, 2, 76, 0
4, 63540, Note_on_c, 2, 74, 100
4, 63570, Note_on_c, 2, 74, 0
4, 63570, Note_on_c, 2, 73, 100
4, 63600, Note_on_c, 2, 73, 0
4, 63600, Note_on_c, 2, 74, 100
4, 63780, Note_on_c, 2, 74, 0
4, 63780, Note_on_c, 2, 76, 100
4, 63840, Note_on_c, 2, 76, 0
4, 63840, Note_on_c, 2, 78, 100
4, 63920, Note_on_c, 2, 78, 0
4, 63920, Note_on_c, 2, 76, 100
4, 64000, Note_on_c, 2, 76, 0
4, 64000, Note_on_c, 2, 78, 100
4, 64080, Note_on_c, 2, 78, 0
4, 64080, Note_on_c, 2, 79, 100
4, 64160, Note_on_c, 2, 79, 0
4, 64160, Note_on_c, 2, 81, 100
4, 64240, Note_on_c, 2, 81, 0
4, 64240, Note_on_c, 2, 83, 100
4, 64320, Note_on_c, 2, 83, 0
4, 64320, Note_on_c, 2, 72, 100
4, 64500, Note_on_c, 2, 72, 0
4, 64500, Note_on_c, 2, 81, 100
4, 64530, Note_on_c, 2, 81, 0
4, 64530, Note_on_c, 2, 79, 100
4, 64560, Note_on_c, 2, 79, 0
4, 64560, Note_on_c, 2, 78, 100
4, 64640, Note_on_c, 2, 78, 0
4, 64640, Note_on_c, 2, 76, 100
4, 64720, Note_on_c, 2, 76, 0
4, 64720, Note_on_c, 2, 74, 100
4, 64800, Note_on_c, 2, 74, 0
4, 64800, Note_on_c, 2, 72, 100
4, 64880, Note_on_c, 2, 72, 0
4, 64880, Note_on_c, 2, 71, 100
4, 64960, Note_on_c, 2, 71, 0
4, 64960, Note_on_c, 2, 72, 100
4, 65040, Note_on_c, 2, 72, 0
4, 65040, Note_on_c, 2, 81, 100
4, 65220, Note_on_c, 2, 81, 0
4, 65220, Note_on_c, 2, 72, 100
4, 65280, Note_on_c, 2, 72, 0
4, 65280, Note_on_c, 2, 63, 100
4, 65360, Note_on_c, 2, 63, 0
4, 65360, Note_on_c, 2, 66, 100
4, 65440, Note_on_c, 2, 66, 0
4, 65440, Note_on_c, 2, 71, 100
4, 65520, Note_on_c, 2, 71, 0
4, 65520, Note_on_c, 2, 75, 100
4, 65600, Note_on_c, 2, 75, 0
4, 65600, Note_on_c, 2, 78, 100
4, 65680, Note_on_c, 2, 78, 0
4, 65680, Note_on_c, 2, 81, 100
4, 65760, Note_on_c, 2, 81, 0
4, 65760, Note_on_c, 2, 84, 100
4, 65840, Note_on_c, 2, 84, 0
4, 65840, Note_on_c, 2, 83, 100
4, 65920, Note_on_c, 2, 83, 0
4, 65920, Note_on_c, 2, 81, 100
4, 66000, Note_on_c, 2, 81, 0
4, 66000, Note_on_c, 2, 79, 100
4, 66080, Note_on_c, 2, 79, 0
4, 66080, Note_on_c, 2, 81, 100
4, 66160, Note_on_c, 2, 81, 0
4, 66160, Note_on_c, 2, 78, 100
4, 66240, Note_on_c, 2, 78, 0
4, 66240, Note_on_c, 2, 79, 100
4, 66420, Note_on_c, 2, 79, 0
4, 66420, Note_on_c, 2, 78, 100
4, 66480, Note_on_c, 2, 78, 0
4, 66480, Note_on_c, 2, 76, 100
4, 66660, Note_on_c, 2, 76, 0
4, 66660, Note_on_c, 2, 74, 100
4, 66720, Note_on_c, 2, 74, 0
4, 66720, Note_on_c, 2, 72, 100
4, 66800, Note_on_c, 2, 72, 0
4, 66800, Note_on_c, 2, 76, 100
4, 66880, Note_on_c, 2, 76, 0
4, 66880, Note_on_c, 2, 74, 100
4, 66960, Note_on_c, 2, 74, 0
4, 66960, Note_on_c, 2, 72, 100
4, 67040, Note_on_c, 2, 72, 0
4, 67040, Note_on_c, 2, 70, 100
4, 67120, Note_on_c, 2, 70, 0
4, 67120, Note_on_c, 2, 71, 100
4, 67200, Note_on_c, 2, 71, 0
4, 67200, Note_on_c, 2, 70, 100
4, 67280, Note_on_c, 2, 70, 0
4, 67280, Note_on_c, 2, 73, 100
4, 67360, Note_on_c, 2, 73, 0
4, 67360, Note_on_c, 2, 79, 100
4, 67440, Note_on_c, 2, 79, 0
4, 67440, Note_on_c, 2, 78, 100
4, 67520, Note_on_c, 2, 78, 0
4, 67520, Note_on_c, 2, 70, 100
4, 67600, Note_on_c, 2, 70, 0
4, 67600, Note_on_c, 2, 64, 100
4, 67680, Note_on_c, 2, 64, 0
4, 67680, Note_on_c, 2, 62, 100
4, 67860, Note_on_c, 2, 62, 0
4, 67860, Note_on_c, 2, 83, 100
4, 67890, Note_on_c, 2, 83, 0
4, 67890, Note_on_c, 2, 81, 100
4, 67920, Note_on_c, 2, 81, 0
4, 67920, Note_on_c, 2, 79, 100
4, 68100, Note_on_c, 2, 79, 0
4, 68100, Note_on_c, 2, 78, 100
4, 68160, Note_on_c, 2, 78, 0
4, 68160, Note_on_c, 2, 77, 100
4, 68240, Note_on_c, 2, 77, 0
4, 68240, Note_on_c, 2, 78, 100
4, 68320, Note_on_c, 2, 78, 0
4, 68320, Note_on_c, 2, 80, 100
4, 68400, Note_on_c, 2, 80, 0
4, 68400, Note_on_c, 2, 78, 100
4, 68580, Note_on_c, 2, 78, 0
4, 68580, Note_on_c, 2, 71, 100
4, 68640, Note_on_c, 2, 71, 0
4, 68640, Note_on_c, 2, 74, 100
4, 68880, Note_on_c, 2, 74, 0
4, 68880, Note_on_c, 2, 73, 100
4, 68880, Pitch_bend_c, 2, 12288
4, 68895, Pitch_bend_c, 2, 8192
4, 68910, Pitch_bend_c, 2, 12288
4, 68925, Pitch_bend_c, 2, 8192
4, 68940, Note_on_c, 2, 73, 0
4, 68940, Note_on_c, 2, 71, 100
4, 69000, Note_on_c, 2, 71, 0
4, 69000, Note_on_c, 2, 73, 100
4, 69120, Note_on_c, 2, 73, 0
4, 69120, Note_on_c, 2, 71, 100
4, 69480, Note_on_c, 2, 71, 0
4, 69480, Note_on_c, 2, 74, 100
4, 69540, Note_on_c, 2, 74, 0
4, 69540, Note_on_c, 2, 73, 100
4, 69600, Note_on_c, 2, 73, 0
4, 69600, Note_on_c, 2, 74, 100
4, 69680, Note_on_c, 2, 74, 0
4, 69680, Note_on_c, 2, 71, 100
4, 69760, Note_on_c, 2, 71, 0
4, 69760, Note_on_c, 2, 74, 100
4, 69840, Note_on_c, 2, 74, 0
4, 69840, Note_on_c, 2, 78, 100
4, 69920, Note_on_c, 2, 78, 0
4, 69920, Note_on_c, 2, 83, 100
4, 70000, Note_on_c, 2, 83, 0
4, 70000, Note_on_c, 2, 82, 100
4, 70080, Note_on_c, 2, 82, 0
4, 70080, Note_on_c, 2, 83, 100
4, 70800, Note_on_c, 2, 83, 0
4, 71040, Note_on_c, 2, 66, 100
4, 71400, Note_on_c, 2, 66, 0
4, 74880, Note_on_c, 2, 71, 100
4, 75060, Note_on_c, 2, 71, 0
4, 77760, Note_on_c, 2, 76, 100
4, 78120, Note_on_c, 2, 76, 0
4, 78720, Note_on_c, 2, 75, 100
4, 78900, Note_on_c, 2, 75, 0
4, 80640, Note_on_c, 2, 67, 100
4, 80820, Note_on_c, 2, 67, 0
4, 81600, Note_on_c, 2, 64, 100
4, 81720, Note_on_c, 2, 64, 0
4, 82080, Note_on_c, 2, 66, 100
4, 82320, Note_on_c, 2, 66, 0
4, 82560, Note_on_c, 2, 64, 100
4, 82920, Note_on_c, 2, 64, 0
4, 82920, Note_on_c, 2, 66, 100
4, 83040, Note_on_c, 2, 66, 0
4, 83040, Note_on_c, 2, 67, 100
4, 83120, Note_on_c, 2, 67, 0
4, 83120, Note_on_c, 2, 69, 100
4, 83200, Note_on_c, 2, 69, 0
4, 83200, Note_on_c, 2, 71, 100
4, 83280, Note_on_c, 2, 71, 0
4, 83280, Note_on_c, 2, 73, 100
4, 83360, Note_on_c, 2, 73, 0
4, 83360, Note_on_c, 2, 74, 100
4, 83440, Note_on_c, 2, 74, 0
4, 83440, Note_on_c, 2, 76, 100
4, 83520, Note_on_c, 2, 76, 0
4, 83520, Note_on_c, 2, 61, 100
4, 83700, Note_on_c, 2, 61, 0
4, 83700, Note_on_c, 2, 64, 100
4, 83760, Note_on_c, 2, 64, 0
4, 83760, Note_on_c, 2, 69, 100
4, 83940, Note_on_c, 2, 69, 0
4, 83940, Note_on_c, 2, 67, 100
4, 84000, Note_on_c, 2, 67, 0
4, 84000, Note_on_c, 2, 66, 100
4, 84180, Note_on_c, 2, 66, 0
4, 84180, Note_on_c, 2, 81, 100
4, 84240, Note_on_c, 2, 81, 0
4, 84240, Note_on_c, 2, 64, 100
4, 84420, Note_on_c, 2, 64, 0
4, 84420, Note_on_c, 2, 79, 100
4, 84480, Note_on_c, 2, 79, 0
4, 84480, Note_on_c, 2, 62, 100
4, 84560, Note_on_c, 2, 62, 0
4, 84560, Note_on_c, 2, 69, 100
4, 84640, Note_on_c, 2, 69, 0
4, 84640, Note_on_c, 2, 79, 100
4, 84720, Note_on_c, 2, 79, 0
4, 84720, Note_on_c, 2, 78, 100
4, 84800, Note_on_c, 2, 78, 0
4, 84800, Note_on_c, 2, 76, 100
4, 84880, Note_on_c, 2, 76, 0
4, 84880, Note_on_c, 2, 82, 100
4, 84960, Note_on_c, 2, 82, 0
4, 84960, Note_on_c, 2, 83, 100
4, 85040, Note_on_c, 2, 83, 0
4, 85040, Note_on_c, 2, 78, 100
4, 85120, Note_on_c, 2, 78, 0
4, 85120, Note_on_c, 2, 76, 100
4, 85200, Note_on_c, 2, 76, 0
4, 85200, Note_on_c, 2, 74, 100
4, 85280, Note_on_c, 2, 74, 0
4, 85280, Note_on_c, 2, 73, 100
4, 85360, Note_on_c, 2, 73, 0
4, 85360, Note_on_c, 2, 76, 100
4, 85440, Note_on_c, 2, 76, 0
4, 85440, Note_on_c, 2, 70, 100
4, 85520, Note_on_c, 2, 70, 0
4, 85520, Note_on_c, 2, 67, 100
4, 85600, Note_on_c, 2, 67, 0
4, 85600, Note_on_c, 2, 66, 100
4, 85680, Note_on_c, 2, 66, 0
4, 85680, Note_on_c, 2, 64, 100
4, 85760, Note_on_c, 2, 64, 0
4, 85760, Note_on_c, 2, 70, 100
4, 85840, Note_on_c, 2, 70, 0
4, 85840, Note_on_c, 2, 79, 100
4, 85920, Note_on_c, 2, 79, 0
4, 85920, Note_on_c, 2, 78, 100
4, 86100, Note_on_c, 2, 78, 0
4, 86100, Note_on_c, 2, 62, 100
4, 86160, Note_on_c, 2, 62, 0
4, 86160, Note_on_c, 2, 61, 100
4, 86340, Note_on_c, 2, 61, 0
4, 86340, Note_on_c, 2, 76, 100
4, 86400, Note_on_c, 2, 76, 0
4, 86400, Note_on_c, 2, 59, 100
4, 86550, Note_on_c, 2, 59, 0
4, 86550, Note_on_c, 2, 76, 100
4, 86580, Note_on_c, 2, 76, 0
4, 86580, Note_on_c, 2, 74, 100
4, 86610, Note_on_c, 2, 74, 0
4, 86610, Note_on_c, 2, 73, 100
4, 86640, Note_on_c, 2, 73, 0
4, 86640, Note_on_c, 2, 74, 100
4, 86820, Note_on_c, 2, 74, 0
4, 86820, Note_on_c, 2, 76, 100
4, 86880, Note_on_c, 2, 76, 0
4, 86880, Note_on_c, 2, 78, 100
4, 86960, Note_on_c, 2, 78, 0
4, 86960, Note_on_c, 2, 76, 100
4, 87040, Note_on_c, 2, 76, 0
4, 87040, Note_on_c, 2, 78, 100
4, 87120, Note_on_c, 2, 78, 0
4, 87120, Note_on_c, 2, 79, 100
4, 87200, Note_on_c, 2, 79, 0
4, 87200, Note_on_c, 2, 81, 100
4, 87280, Note_on_c, 2, 81, 0
4, 87280, Note_on_c, 2, 83, 100
4, 87360, Note_on_c, 2, 83, 0
4, 87360, Note_on_c, 2, 72, 100
4, 87540, Note_on_c, 2, 72, 0
4, 87540, Note_on_c, 2, 81, 100
4, 87570, Note_on_c, 2, 81, 0
4, 87570, Note_on_c, 2, 79, 100
4, 87600, Note_on_c, 2, 79, 0
4, 87600, Note_on_c, 2, 78, 100
4, 87680, Note_on_c, 2, 78, 0
4, 87680, Note_on_c, 2, 76, 100
4, 87760, Note_on_c, 2, 76, 0
4, 87760, Note_on_c, 2, 74, 100
4, 87840, Note_on_c, 2, 74, 0
4, 87840, Note_on_c, 2, 72, 100
4, 87920, Note_on_c, 2, 72, 0
4, 87920, Note_on_c, 2, 71, 100
4, 88000, Note_on_c, 2, 71, 0
4, 88000, Note_on_c, 2, 72, 100
4, 88080, Note_on_c, 2, 72, 0
4, 88080, Note_on_c, 2, 81, 100
4, 88260, Note_on_c, 2, 81, 0
4, 88260, Note_on_c, 2, 72, 100
4, 88320, Note_on_c, 2, 72, 0
4, 88320, Note_on_c, 2, 63, 100
4, 88400, Note_on_c, 2, 63, 0
4, 88400, Note_on_c, 2, 66, 100
4, 88480, Note_on_c, 2, 66, 0
4, 88480, Note_on_c, 2, 71, 100
4, 88560, Note_on_c, 2, 71, 0
4, 88560, Note_on_c, 2, 75, 100
4, 88640, Note_on_c, 2, 75, 0
4, 88640, Note_on_c, 2, 78, 100
4, 88720, Note_on_c, 2, 78, 0
4, 88720, Note_on_c, 2, 81, 100
4, 88800, Note_on_c, 2, 81, 0
4, 88800, Note_on_c, 2, 84, 100
4, 88880, Note_on_c, 2, 84, 0
4, 88880, Note_on_c, 2, 83, 100
4, 88960, Note_on_c, 2, 83, 0
4, 88960, Note_on_c, 2, 81, 100
4, 89040, Note_on_c, 2, 81, 0
4, 89040, Note_on_c, 2, 79, 100
4, 89120, Note_on_c, 2, 79, 0
4, 89120, Note_on_c, 2, 81, 100
4, 89200, Note_on_c, 2, 81, 0
4, 89200, Note_on_c, 2, 78, 100
4, 89280, Note_on_c, 2, 78, 0
4, 89280, Note_on_c, 2, 79, 100
4, 89460, Note_on_c, 2, 79, 0
4, 89460, Note_on_c, 2, 78, 100
4, 89520, Note_on_c, 2, 78, 0
4, 89520, Note_on_c, 2, 76, 100
4, 89700, Note_on_c, 2, 76, 0
4, 89700, Note_on_c, 2, 74, 100
4, 89760, Note_on_c, 2, 74, 0
4, 89760, Note_on_c, 2, 72, 100
4, 89840, Note_on_c, 2, 72, 0
4, 89840, Note_on_c, 2, 76, 100
4, 89920, Note_on_c, 2, 76, 0
4, 89920, Note_on_c, 2, 74, 100
4, 90000, Note_on_c, 2, 74, 0
4, 90000, Note_on_c, 2, 72, 100
4, 90080, Note_on_c, 2, 72, 0
4, 90080, Note_on_c, 2, 70, 100
4, 90160, Note_on_c, 2, 70, 0
4, 90160, Note_on_c, 2, 71, 100
4, 90240, Note_on_c, 2, 71, 0
4, 90240, Note_on_c, 2, 70, 100
4, 90320, Note_on_c, 2, 70, 0
4, 90320, Note_on_c, 2, 73, 100
4, 90400, Note_on_c, 2, 73, 0
4, 90400, Note_on_c, 2, 79, 100
4, 90480, Note_on_c, 2, 79, 0
4, 90480, Note_on_c, 2, 78, 100
4, 90560, Note_on_c, 2, 78, 0
4, 90560, Note_on_c, 2, 70, 100
4, 90640, Note_on_c, 2, 70, 0
4, 90640, Note_on_c, 2, 64, 100
4, 90720, Note_on_c, 2, 64, 0
4, 90720, Note_on_c, 2, 62, 100
4, 90900, Note_on_c, 2, 62, 0
4, 90900, Note_on_c, 2, 83, 100
4, 90930, Note_on_c, 2, 83, 0
4, 90930, Note_on_c, 2, 81, 100
4, 90960, Note_on_c, 2, 81, 0
4, 90960, Note_on_c, 2, 79, 100
4, 91140, Note_on_c, 2, 79, 0
4, 91140, Note_on_c, 2, 78, 100
4, 91200, Note_on_c, 2, 78, 0
4, 91200, Note_on_c, 2, 77, 100
4, 91280, Note_on_c, 2, 77, 0
4, 91280, Note_on_c, 2, 78, 100
4, 91360, Note_on_c, 2, 78, 0
4, 91360, Note_on_c, 2, 80, 100
4, 91440, Note_on_c, 2, 80, 0
4, 91440, Note_on_c, 2, 78, 100
4, 91620, Note_on_c, 2, 78, 0
4, 91620, Note_on_c, 2, 71, 100
4, 91680, Note_on_c, 2, 71, 0
4, 91680, Note_on_c, 2, 74, 100
4, 91920, Note_on_c, 2, 74, 0
4, 91920, Note_on_c, 2, 73, 100
4, 91920, Pitch_bend_c, 2, 12288
4, 91935, Pitch_bend_c, 2, 8192
4, 91950, Pitch_bend_c, 2, 12288
4, 91965, Pitch_bend_c, 2, 8192
4, 91980, Note_on_c, 2, 73, 0
4, 91980, Note_on_c, 2, 71, 100
4, 92040, Note_on_c, 2, 71, 0
4, 92040, Note_on_c, 2, 73, 100
4, 92160, Note_on_c, 2, 73, 0
4, 92160, Note_on_c, 2, 71, 100
4, 92520, Note_on_c, 2, 71, 0
4, 92520, Note_on_c, 2, 74, 100
4, 92580, Note_on_c, 2, 74, 0
4, 92580, Note_on_c, 2, 73, 100
4, 92640, Note_on_c, 2, 73, 0
4, 92640, Note_on_c, 2, 74, 100
4, 92720, Note_on_c, 2, 74, 0
4, 92720, Note_on_c, 2, 71, 100
4, 92800, Note_on_c, 2, 71, 0
4, 92800, Note_on_c, 2, 74, 100
4, 92880, Note_on_c, 2, 74, 0
4, 92880, Note_on_c, 2, 78, 100
4, 92960, Note_on_c, 2, 78, 0
4, 92960, Note_on_c, 2, 83, 100
4, 93040, Note_on_c, 2, 83, 0
4, 93040, Note_on_c, 2, 82, 100
4, 93120, Note_on_c, 2, 82, 0
4, 93120, Note_on_c, 2, 83, 100
4, 93840, Note_on_c, 2, 83, 0
4, 93840, End_track
5, 0, Start_track
5, 0, MIDI_port, 0
5, 0, Title_t, "Six Sonatas and Partitas for Solo Violin"
5, 0, Program_c, 3, 40
5, 0, Control_c, 3, 7, 100
5, 0, Control_c, 3, 10, 49
5, 1920, Note_on_c, 3, 59, 100
5, 2280, Note_on_c, 3, 59, 0
5, 2880, Note_on_c, 3, 58, 100
5, 3240, Note_on_c, 3, 58, 0
5, 3840, Note_on_c, 3, 55, 100
5, 4200, Note_on_c, 3, 55, 0
5, 8640, Note_on_c, 3, 64, 100
5, 8760, Note_on_c, 3, 64, 0
5, 14400, Note_on_c, 3, 73, 100
5, 14580, Note_on_c, 3, 73, 0
5, 19200, Note_on_c, 3, 61, 100
5, 19380, Note_on_c, 3, 61, 0
5, 24960, Note_on_c, 3, 59, 100
5, 25320, Note_on_c, 3, 59, 0
5, 25920, Note_on_c, 3, 58, 100
5, 26280, Note_on_c, 3, 58, 0
5, 26880, Note_on_c, 3, 55, 100
5, 27240, Note_on_c, 3, 55, 0
5, 31680, Note_on_c, 3, 64, 100
5, 31800, Note_on_c, 3, 64, 0
5, 37440, Note_on_c, 3, 73, 100
5, 37620, Note_on_c, 3, 73, 0
5, 42240, Note_on_c, 3, 61, 100
5, 42420, Note_on_c, 3, 61, 0
5, 51840, Note_on_c, 3, 64, 100
5, 52020, Note_on_c, 3, 64, 0
5, 57600, Note_on_c, 3, 60, 100
5, 57780, Note_on_c, 3, 60, 0
5, 58560, Note_on_c, 3, 55, 100
5, 58680, Note_on_c, 3, 55, 0
5, 59040, Note_on_c, 3, 59, 100
5, 59280, Note_on_c, 3, 59, 0
5, 70080, Note_on_c, 3, 74, 100
5, 70800, Note_on_c, 3, 74, 0
5, 74880, Note_on_c, 3, 64, 100
5, 75060, Note_on_c, 3, 64, 0
5, 80640, Note_on_c, 3, 60, 100
5, 80820, Note_on_c, 3, 60, 0
5, 81600, Note_on_c, 3, 55, 100
5, 81720, Note_on_c, 3, 55, 0
5, 82080, Note_on_c, 3, 59, 100
5, 82320, Note_on_c, 3, 59, 0
5, 93120, Note_on_c, 3, 74, 100
5, 93840, Note_on_c, 3, 74, 0
5, 93840, End_track
6, 0, Start_track
6, 0, MIDI_port, 0
6, 0, Title_t, "--------------------------------------"
6, 0, End_track
7, 0, Start_track
7, 0, MIDI_port, 0
7, 0, Title_t, "Partita No. 1 in B minor - BWV 1002"
7, 0, End_track
8, 0, Start_track
8, 0, MIDI_port, 0
8, 0, Title_t, "1st Movement: Allemanda"
8, 0, End_track
9, 0, Start_track
9, 0, MIDI_port, 0
9, 0, Title_t, "--------------------------------------"
9, 0, End_track
10, 0, Start_track
10, 0, MIDI_port, 0
10, 0, Title_t, "Sequenced with Cakewalk Pro Audio by"
10, 0, End_track
11, 0, Start_track
11, 0, MIDI_port, 0
11, 0, Title_t, "David J. Grossman - dave@unpronounceable.com"
11, 0, End_track
12, 0, Start_track
12, 0, MIDI_port, 0
12, 0, Title_t, "This and other Bach MIDI files can be found at:"
12, 0, End_track
13, 0, Start_track
13, 0, MIDI_port, 0
13, 0, Title_t, "Dave's J.S. Bach Page"
13, 0, End_track
14, 0, Start_track
14, 0, MIDI_port, 0
14, 0, Title_t, "http://www.unpronounceable.com/bach"
14, 0, End_track
15, 0, Start_track
15, 0, MIDI_port, 0
15, 0, Title_t, "--------------------------------------"
15, 0, End_track
16, 0, Start_track
16, 0, MIDI_port, 0
16, 0, Title_t, "Original Filename: vp1-1al.mid"
16, 0, End_track
17, 0, Start_track
17, 0, MIDI_port, 0
17, 0, Title_t, "Last Modified: February 22, 1997"
17, 0, End_track
18, 0, Start_track
18, 0, MIDI_port, 0
18, 0, End_track
0, 0, End_of_file
