0, 0, Header, 1, 17, 480
1, 0, Start_track
1, 0, Title_t, "untitled"
1, 0, Copyright_t, "Copyright © 1996 by David J. Grossman"
1, 0, Text_t, "David J. Grossman"
1, 0, SMPTE_offset, 96, 0, 3, 0, 0
1, 0, Time_signature, 4, 2, 24, 8
1, 0, Key_signature, 2, "major"
1, 0, Tempo, 240000
1, 1440, Tempo, 428571
1, 1920, Marker_t, "A"
1, 40320, Marker_t, "A'"
1, 78720, Marker_t, "B"
1, 170880, Marker_t, "B'"
1, 261120, Tempo, 857143
1, 261120, End_track
2, 0, Start_track
2, 0, MIDI_port, 0
2, 0, Title_t, "Solo Violin"
2, 0, Program_c, 0, 40
2, 0, Control_c, 0, 7, 100
2, 0, Control_c, 0, 10, 69
2, 1440, Note_on_c, 0, 78, 100
2, 1920, Note_on_c, 0, 78, 0
2, 1920, Note_on_c, 0, 83, 100
2, 2400, Note_on_c, 0, 83, 0
2, 2400, Note_on_c, 0, 78, 100
2, 2880, Note_on_c, 0, 78, 0
2, 2880, Note_on_c, 0, 83, 100
2, 3360, Note_on_c, 0, 83, 0
2, 3360, Note_on_c, 0, 78, 100
2, 3840, Note_on_c, 0, 78, 0
2, 3840, Note_on_c, 0, 79, 100
2, 4320, Note_on_c, 0, 79, 0
2, 4320, Note_on_c, 0, 79, 100
2, 4560, Note_on_c, 0, 79, 0
2, 4560, Note_on_c, 0, 78, 100
2, 4800, Note_on_c, 0, 78, 0
2, 4800, Note_on_c, 0, 76, 100
2, 5280, Note_on_c, 0, 76, 0
2, 5280, Note_on_c, 0, 79, 100
2, 5760, Note_on_c, 0, 79, 0
2, 5760, Note_on_c, 0, 78, 100
2, 6240, Note_on_c, 0, 78, 0
2, 6240, Note_on_c, 0, 76, 100
2, 6720, Note_on_c, 0, 76, 0
2, 6720, Pitch_bend_c, 0, 16383
2, 6720, Note_on_c, 0, 74, 100
2, 6800, Pitch_bend_c, 0, 8192
2, 6880, Pitch_bend_c, 0, 16383
2, 6960, Pitch_bend_c, 0, 8192
2, 7200, Note_on_c, 0, 74, 0
2, 7200, Note_on_c, 0, 73, 100
2, 7680, Note_on_c, 0, 73, 0
2, 7680, Note_on_c, 0, 76, 100
2, 7920, Note_on_c, 0, 76, 0
2, 7920, Note_on_c, 0, 74, 100
2, 8160, Note_on_c, 0, 74, 0
2, 8160, Note_on_c, 0, 73, 100
2, 8400, Note_on_c, 0, 73, 0
2, 8400, Note_on_c, 0, 74, 100
2, 8640, Note_on_c, 0, 74, 0
2, 8640, Note_on_c, 0, 71, 100
2, 9120, Note_on_c, 0, 71, 0
2, 9120, Note_on_c, 0, 74, 100
2, 9360, Note_on_c, 0, 74, 0
2, 9360, Note_on_c, 0, 73, 100
2, 9600, Note_on_c, 0, 73, 0
2, 9600, Note_on_c, 0, 74, 100
2, 10080, Note_on_c, 0, 74, 0
2, 10080, Note_on_c, 0, 66, 100
2, 10560, Note_on_c, 0, 66, 0
2, 10560, Note_on_c, 0, 67, 100
2, 11040, Note_on_c, 0, 67, 0
2, 11040, Note_on_c, 0, 74, 100
2, 11520, Note_on_c, 0, 74, 0
2, 11520, Note_on_c, 0, 73, 100
2, 12000, Note_on_c, 0, 73, 0
2, 12000, Note_on_c, 0, 73, 100
2, 12240, Note_on_c, 0, 73, 0
2, 12240, Note_on_c, 0, 71, 100
2, 12480, Note_on_c, 0, 71, 0
2, 12480, Note_on_c, 0, 73, 100
2, 12960, Note_on_c, 0, 73, 0
2, 12960, Note_on_c, 0, 81, 100
2, 13200, Note_on_c, 0, 81, 0
2, 13200, Note_on_c, 0, 76, 100
2, 13440, Note_on_c, 0, 76, 0
2, 13440, Note_on_c, 0, 73, 100
2, 13920, Note_on_c, 0, 73, 0
2, 13920, Note_on_c, 0, 64, 100
2, 14400, Note_on_c, 0, 64, 0
2, 14400, Note_on_c, 0, 66, 100
2, 14880, Note_on_c, 0, 66, 0
2, 14880, Note_on_c, 0, 73, 100
2, 15360, Note_on_c, 0, 73, 0
2, 15360, Note_on_c, 0, 71, 100
2, 15840, Note_on_c, 0, 71, 0
2, 15840, Note_on_c, 0, 71, 100
2, 16080, Note_on_c, 0, 71, 0
2, 16080, Note_on_c, 0, 69, 100
2, 16320, Note_on_c, 0, 69, 0
2, 16320, Note_on_c, 0, 71, 100
2, 16800, Note_on_c, 0, 71, 0
2, 16800, Note_on_c, 0, 83, 100
2, 17040, Note_on_c, 0, 83, 0
2, 17040, Note_on_c, 0, 79, 100
2, 17280, Note_on_c, 0, 79, 0
2, 17280, Note_on_c, 0, 76, 100
2, 17760, Note_on_c, 0, 76, 0
2, 17760, Note_on_c, 0, 79, 100
2, 18000, Note_on_c, 0, 79, 0
2, 18000, Note_on_c, 0, 76, 100
2, 18240, Note_on_c, 0, 76, 0
2, 18240, Note_on_c, 0, 73, 100
2, 18720, Note_on_c, 0, 73, 0
2, 18720, Note_on_c, 0, 76, 100
2, 18960, Note_on_c, 0, 76, 0
2, 18960, Note_on_c, 0, 73, 100
2, 19200, Note_on_c, 0, 73, 0
2, 19200, Note_on_c, 0, 69, 100
2, 19680, Note_on_c, 0, 69, 0
2, 19680, Note_on_c, 0, 71, 100
2, 19920, Note_on_c, 0, 71, 0
2, 19920, Note_on_c, 0, 73, 100
2, 20160, Note_on_c, 0, 73, 0
2, 20160, Note_on_c, 0, 74, 100
2, 20400, Note_on_c, 0, 74, 0
2, 20400, Note_on_c, 0, 76, 100
2, 20640, Note_on_c, 0, 76, 0
2, 20640, Note_on_c, 0, 78, 100
2, 20880, Note_on_c, 0, 78, 0
2, 20880, Note_on_c, 0, 79, 100
2, 21120, Note_on_c, 0, 79, 0
2, 21120, Note_on_c, 0, 81, 100
2, 21600, Note_on_c, 0, 81, 0
2, 21600, Note_on_c, 0, 74, 100
2, 22080, Note_on_c, 0, 74, 0
2, 22080, Note_on_c, 0, 76, 100
2, 22560, Note_on_c, 0, 76, 0
2, 22560, Note_on_c, 0, 73, 100
2, 23040, Note_on_c, 0, 73, 0
2, 23040, Note_on_c, 0, 74, 100
2, 23280, Note_on_c, 0, 74, 0
2, 23280, Note_on_c, 0, 73, 100
2, 23520, Note_on_c, 0, 73, 0
2, 23520, Note_on_c, 0, 74, 100
2, 24000, Note_on_c, 0, 74, 0
2, 24000, Note_on_c, 0, 83, 100
2, 24480, Note_on_c, 0, 83, 0
2, 24480, Note_on_c, 0, 74, 100
2, 24960, Note_on_c, 0, 74, 0
2, 24960, Note_on_c, 0, 73, 100
2, 25200, Note_on_c, 0, 73, 0
2, 25200, Note_on_c, 0, 71, 100
2, 25440, Note_on_c, 0, 71, 0
2, 25440, Note_on_c, 0, 73, 100
2, 25920, Note_on_c, 0, 73, 0
2, 25920, Note_on_c, 0, 81, 100
2, 26400, Note_on_c, 0, 81, 0
2, 26400, Note_on_c, 0, 72, 100
2, 26880, Note_on_c, 0, 72, 0
2, 26880, Note_on_c, 0, 71, 100
2, 27360, Note_on_c, 0, 71, 0
2, 27360, Note_on_c, 0, 74, 100
2, 27840, Note_on_c, 0, 74, 0
2, 27840, Note_on_c, 0, 73, 100
2, 28080, Note_on_c, 0, 73, 0
2, 28080, Note_on_c, 0, 74, 100
2, 28320, Note_on_c, 0, 74, 0
2, 28320, Note_on_c, 0, 76, 100
2, 28800, Note_on_c, 0, 76, 0
2, 28800, Note_on_c, 0, 67, 100
2, 29280, Note_on_c, 0, 67, 0
2, 29280, Note_on_c, 0, 67, 100
2, 29520, Note_on_c, 0, 67, 0
2, 29520, Note_on_c, 0, 66, 100
2, 29760, Note_on_c, 0, 66, 0
2, 29760, Note_on_c, 0, 67, 100
2, 30240, Note_on_c, 0, 67, 0
2, 30240, Note_on_c, 0, 76, 100
2, 30480, Note_on_c, 0, 76, 0
2, 30480, Note_on_c, 0, 66, 100
2, 30720, Note_on_c, 0, 66, 0
2, 30720, Note_on_c, 0, 67, 100
2, 31200, Note_on_c, 0, 67, 0
2, 31200, Note_on_c, 0, 76, 100
2, 31440, Note_on_c, 0, 76, 0
2, 31440, Note_on_c, 0, 66, 100
2, 31680, Note_on_c, 0, 66, 0
2, 31680, Note_on_c, 0, 67, 100
2, 32160, Note_on_c, 0, 67, 0
2, 32160, Note_on_c, 0, 76, 100
2, 32400, Note_on_c, 0, 76, 0
2, 32400, Note_on_c, 0, 66, 100
2, 32640, Note_on_c, 0, 66, 0
2, 32640, Note_on_c, 0, 67, 100
2, 33120, Note_on_c, 0, 67, 0
2, 33120, Note_on_c, 0, 73, 100
2, 33600, Note_on_c, 0, 73, 0
2, 33600, Note_on_c, 0, 81, 100
2, 34800, Note_on_c, 0, 81, 0
2, 34800, Note_on_c, 0, 86, 100
2, 35040, Note_on_c, 0, 86, 0
2, 35040, Note_on_c, 0, 85, 100
2, 35280, Note_on_c, 0, 85, 0
2, 35280, Note_on_c, 0, 83, 100
2, 35520, Note_on_c, 0, 83, 0
2, 35520, Note_on_c, 0, 81, 100
2, 35760, Note_on_c, 0, 81, 0
2, 35760, Note_on_c, 0, 79, 100
2, 36000, Note_on_c, 0, 79, 0
2, 36000, Note_on_c, 0, 83, 100
2, 36240, Note_on_c, 0, 83, 0
2, 36240, Note_on_c, 0, 81, 100
2, 36480, Note_on_c, 0, 81, 0
2, 36480, Note_on_c, 0, 79, 100
2, 36720, Note_on_c, 0, 79, 0
2, 36720, Note_on_c, 0, 78, 100
2, 36960, Note_on_c, 0, 78, 0
2, 36960, Note_on_c, 0, 76, 100
2, 37200, Note_on_c, 0, 76, 0
2, 37200, Note_on_c, 0, 74, 100
2, 37440, Note_on_c, 0, 74, 0
2, 37440, Note_on_c, 0, 69, 100
2, 37920, Note_on_c, 0, 69, 0
2, 37920, Note_on_c, 0, 73, 100
2, 38400, Note_on_c, 0, 73, 0
2, 38400, Note_on_c, 0, 74, 100
2, 39840, Note_on_c, 0, 74, 0
2, 39840, Note_on_c, 0, 78, 100
2, 40320, Note_on_c, 0, 78, 0
2, 40320, Note_on_c, 0, 83, 100
2, 40800, Note_on_c, 0, 83, 0
2, 40800, Note_on_c, 0, 78, 100
2, 41280, Note_on_c, 0, 78, 0
2, 41280, Note_on_c, 0, 83, 100
2, 41760, Note_on_c, 0, 83, 0
2, 41760, Note_on_c, 0, 78, 100
2, 42240, Note_on_c, 0, 78, 0
2, 42240, Note_on_c, 0, 79, 100
2, 42720, Note_on_c, 0, 79, 0
2, 42720, Note_on_c, 0, 79, 100
2, 42960, Note_on_c, 0, 79, 0
2, 42960, Note_on_c, 0, 78, 100
2, 43200, Note_on_c, 0, 78, 0
2, 43200, Note_on_c, 0, 76, 100
2, 43680, Note_on_c, 0, 76, 0
2, 43680, Note_on_c, 0, 79, 100
2, 44160, Note_on_c, 0, 79, 0
2, 44160, Note_on_c, 0, 78, 100
2, 44640, Note_on_c, 0, 78, 0
2, 44640, Note_on_c, 0, 76, 100
2, 45120, Note_on_c, 0, 76, 0
2, 45120, Pitch_bend_c, 0, 16383
2, 45120, Note_on_c, 0, 74, 100
2, 45200, Pitch_bend_c, 0, 8192
2, 45280, Pitch_bend_c, 0, 16383
2, 45360, Pitch_bend_c, 0, 8192
2, 45600, Note_on_c, 0, 74, 0
2, 45600, Note_on_c, 0, 73, 100
2, 46080, Note_on_c, 0, 73, 0
2, 46080, Note_on_c, 0, 76, 100
2, 46320, Note_on_c, 0, 76, 0
2, 46320, Note_on_c, 0, 74, 100
2, 46560, Note_on_c, 0, 74, 0
2, 46560, Note_on_c, 0, 73, 100
2, 46800, Note_on_c, 0, 73, 0
2, 46800, Note_on_c, 0, 74, 100
2, 47040, Note_on_c, 0, 74, 0
2, 47040, Note_on_c, 0, 71, 100
2, 47520, Note_on_c, 0, 71, 0
2, 47520, Note_on_c, 0, 74, 100
2, 47760, Note_on_c, 0, 74, 0
2, 47760, Note_on_c, 0, 73, 100
2, 48000, Note_on_c, 0, 73, 0
2, 48000, Note_on_c, 0, 74, 100
2, 48480, Note_on_c, 0, 74, 0
2, 48480, Note_on_c, 0, 66, 100
2, 48960, Note_on_c, 0, 66, 0
2, 48960, Note_on_c, 0, 67, 100
2, 49440, Note_on_c, 0, 67, 0
2, 49440, Note_on_c, 0, 74, 100
2, 49920, Note_on_c, 0, 74, 0
2, 49920, Note_on_c, 0, 73, 100
2, 50400, Note_on_c, 0, 73, 0
2, 50400, Note_on_c, 0, 73, 100
2, 50640, Note_on_c, 0, 73, 0
2, 50640, Note_on_c, 0, 71, 100
2, 50880, Note_on_c, 0, 71, 0
2, 50880, Note_on_c, 0, 73, 100
2, 51360, Note_on_c, 0, 73, 0
2, 51360, Note_on_c, 0, 81, 100
2, 51600, Note_on_c, 0, 81, 0
2, 51600, Note_on_c, 0, 76, 100
2, 51840, Note_on_c, 0, 76, 0
2, 51840, Note_on_c, 0, 73, 100
2, 52320, Note_on_c, 0, 73, 0
2, 52320, Note_on_c, 0, 64, 100
2, 52800, Note_on_c, 0, 64, 0
2, 52800, Note_on_c, 0, 66, 100
2, 53280, Note_on_c, 0, 66, 0
2, 53280, Note_on_c, 0, 73, 100
2, 53760, Note_on_c, 0, 73, 0
2, 53760, Note_on_c, 0, 71, 100
2, 54240, Note_on_c, 0, 71, 0
2, 54240, Note_on_c, 0, 71, 100
2, 54480, Note_on_c, 0, 71, 0
2, 54480, Note_on_c, 0, 69, 100
2, 54720, Note_on_c, 0, 69, 0
2, 54720, Note_on_c, 0, 71, 100
2, 55200, Note_on_c, 0, 71, 0
2, 55200, Note_on_c, 0, 83, 100
2, 55440, Note_on_c, 0, 83, 0
2, 55440, Note_on_c, 0, 79, 100
2, 55680, Note_on_c, 0, 79, 0
2, 55680, Note_on_c, 0, 76, 100
2, 56160, Note_on_c, 0, 76, 0
2, 56160, Note_on_c, 0, 79, 100
2, 56400, Note_on_c, 0, 79, 0
2, 56400, Note_on_c, 0, 76, 100
2, 56640, Note_on_c, 0, 76, 0
2, 56640, Note_on_c, 0, 73, 100
2, 57120, Note_on_c, 0, 73, 0
2, 57120, Note_on_c, 0, 76, 100
2, 57360, Note_on_c, 0, 76, 0
2, 57360, Note_on_c, 0, 73, 100
2, 57600, Note_on_c, 0, 73, 0
2, 57600, Note_on_c, 0, 69, 100
2, 58080, Note_on_c, 0, 69, 0
2, 58080, Note_on_c, 0, 71, 100
2, 58320, Note_on_c, 0, 71, 0
2, 58320, Note_on_c, 0, 73, 100
2, 58560, Note_on_c, 0, 73, 0
2, 58560, Note_on_c, 0, 74, 100
2, 58800, Note_on_c, 0, 74, 0
2, 58800, Note_on_c, 0, 76, 100
2, 59040, Note_on_c, 0, 76, 0
2, 59040, Note_on_c, 0, 78, 100
2, 59280, Note_on_c, 0, 78, 0
2, 59280, Note_on_c, 0, 79, 100
2, 59520, Note_on_c, 0, 79, 0
2, 59520, Note_on_c, 0, 81, 100
2, 60000, Note_on_c, 0, 81, 0
2, 60000, Note_on_c, 0, 74, 100
2, 60480, Note_on_c, 0, 74, 0
2, 60480, Note_on_c, 0, 76, 100
2, 60960, Note_on_c, 0, 76, 0
2, 60960, Note_on_c, 0, 73, 100
2, 61440, Note_on_c, 0, 73, 0
2, 61440, Note_on_c, 0, 74, 100
2, 61680, Note_on_c, 0, 74, 0
2, 61680, Note_on_c, 0, 73, 100
2, 61920, Note_on_c, 0, 73, 0
2, 61920, Note_on_c, 0, 74, 100
2, 62400, Note_on_c, 0, 74, 0
2, 62400, Note_on_c, 0, 83, 100
2, 62880, Note_on_c, 0, 83, 0
2, 62880, Note_on_c, 0, 74, 100
2, 63360, Note_on_c, 0, 74, 0
2, 63360, Note_on_c, 0, 73, 100
2, 63600, Note_on_c, 0, 73, 0
2, 63600, Note_on_c, 0, 71, 100
2, 63840, Note_on_c, 0, 71, 0
2, 63840, Note_on_c, 0, 73, 100
2, 64320, Note_on_c, 0, 73, 0
2, 64320, Note_on_c, 0, 81, 100
2, 64800, Note_on_c, 0, 81, 0
2, 64800, Note_on_c, 0, 72, 100
2, 65280, Note_on_c, 0, 72, 0
2, 65280, Note_on_c, 0, 71, 100
2, 65760, Note_on_c, 0, 71, 0
2, 65760, Note_on_c, 0, 74, 100
2, 66240, Note_on_c, 0, 74, 0
2, 66240, Note_on_c, 0, 73, 100
2, 66480, Note_on_c, 0, 73, 0
2, 66480, Note_on_c, 0, 74, 100
2, 66720, Note_on_c, 0, 74, 0
2, 66720, Note_on_c, 0, 76, 100
2, 67200, Note_on_c, 0, 76, 0
2, 67200, Note_on_c, 0, 67, 100
2, 67680, Note_on_c, 0, 67, 0
2, 67680, Note_on_c, 0, 67, 100
2, 67920, Note_on_c, 0, 67, 0
2, 67920, Note_on_c, 0, 66, 100
2, 68160, Note_on_c, 0, 66, 0
2, 68160, Note_on_c, 0, 67, 100
2, 68640, Note_on_c, 0, 67, 0
2, 68640, Note_on_c, 0, 76, 100
2, 68880, Note_on_c, 0, 76, 0
2, 68880, Note_on_c, 0, 66, 100
2, 69120, Note_on_c, 0, 66, 0
2, 69120, Note_on_c, 0, 67, 100
2, 69600, Note_on_c, 0, 67, 0
2, 69600, Note_on_c, 0, 76, 100
2, 69840, Note_on_c, 0, 76, 0
2, 69840, Note_on_c, 0, 66, 100
2, 70080, Note_on_c, 0, 66, 0
2, 70080, Note_on_c, 0, 67, 100
2, 70560, Note_on_c, 0, 67, 0
2, 70560, Note_on_c, 0, 76, 100
2, 70800, Note_on_c, 0, 76, 0
2, 70800, Note_on_c, 0, 66, 100
2, 71040, Note_on_c, 0, 66, 0
2, 71040, Note_on_c, 0, 67, 100
2, 71520, Note_on_c, 0, 67, 0
2, 71520, Note_on_c, 0, 73, 100
2, 72000, Note_on_c, 0, 73, 0
2, 72000, Note_on_c, 0, 81, 100
2, 73200, Note_on_c, 0, 81, 0
2, 73200, Note_on_c, 0, 86, 100
2, 73440, Note_on_c, 0, 86, 0
2, 73440, Note_on_c, 0, 85, 100
2, 73680, Note_on_c, 0, 85, 0
2, 73680, Note_on_c, 0, 83, 100
2, 73920, Note_on_c, 0, 83, 0
2, 73920, Note_on_c, 0, 81, 100
2, 74160, Note_on_c, 0, 81, 0
2, 74160, Note_on_c, 0, 79, 100
2, 74400, Note_on_c, 0, 79, 0
2, 74400, Note_on_c, 0, 83, 100
2, 74640, Note_on_c, 0, 83, 0
2, 74640, Note_on_c, 0, 81, 100
2, 74880, Note_on_c, 0, 81, 0
2, 74880, Note_on_c, 0, 79, 100
2, 75120, Note_on_c, 0, 79, 0
2, 75120, Note_on_c, 0, 78, 100
2, 75360, Note_on_c, 0, 78, 0
2, 75360, Note_on_c, 0, 76, 100
2, 75600, Note_on_c, 0, 76, 0
2, 75600, Note_on_c, 0, 74, 100
2, 75840, Note_on_c, 0, 74, 0
2, 75840, Note_on_c, 0, 69, 100
2, 76320, Note_on_c, 0, 69, 0
2, 76320, Note_on_c, 0, 73, 100
2, 76800, Note_on_c, 0, 73, 0
2, 76800, Note_on_c, 0, 74, 100
2, 78240, Note_on_c, 0, 74, 0
2, 78240, Note_on_c, 0, 78, 100
2, 78720, Note_on_c, 0, 78, 0
2, 78720, Note_on_c, 0, 76, 100
2, 79200, Note_on_c, 0, 76, 0
2, 79200, Note_on_c, 0, 78, 100
2, 79680, Note_on_c, 0, 78, 0
2, 79680, Note_on_c, 0, 79, 100
2, 80160, Note_on_c, 0, 79, 0
2, 80160, Note_on_c, 0, 78, 100
2, 80640, Note_on_c, 0, 78, 0
2, 80640, Note_on_c, 0, 76, 100
2, 81120, Note_on_c, 0, 76, 0
2, 81120, Note_on_c, 0, 76, 100
2, 81360, Note_on_c, 0, 76, 0
2, 81360, Note_on_c, 0, 74, 100
2, 81600, Note_on_c, 0, 74, 0
2, 81600, Note_on_c, 0, 76, 100
2, 82080, Note_on_c, 0, 76, 0
2, 82080, Note_on_c, 0, 81, 100
2, 82560, Note_on_c, 0, 81, 0
2, 82560, Note_on_c, 0, 73, 100
2, 83040, Note_on_c, 0, 73, 0
2, 83040, Note_on_c, 0, 74, 100
2, 83520, Note_on_c, 0, 74, 0
2, 83520, Note_on_c, 0, 76, 100
2, 84000, Note_on_c, 0, 76, 0
2, 84000, Note_on_c, 0, 74, 100
2, 84480, Note_on_c, 0, 74, 0
2, 84480, Note_on_c, 0, 73, 100
2, 84960, Note_on_c, 0, 73, 0
2, 84960, Note_on_c, 0, 73, 100
2, 85200, Note_on_c, 0, 73, 0
2, 85200, Note_on_c, 0, 71, 100
2, 85440, Note_on_c, 0, 71, 0
2, 85440, Note_on_c, 0, 73, 100
2, 85920, Note_on_c, 0, 73, 0
2, 85920, Note_on_c, 0, 75, 100
2, 86400, Note_on_c, 0, 75, 0
2, 86400, Note_on_c, 0, 76, 100
2, 86880, Note_on_c, 0, 76, 0
2, 86880, Note_on_c, 0, 79, 100
2, 87360, Note_on_c, 0, 79, 0
2, 87840, Note_on_c, 0, 78, 100
2, 88320, Note_on_c, 0, 78, 0
2, 88320, Note_on_c, 0, 76, 100
2, 88560, Note_on_c, 0, 76, 0
2, 88560, Note_on_c, 0, 75, 100
2, 88800, Note_on_c, 0, 75, 0
2, 88800, Note_on_c, 0, 76, 100
2, 89280, Note_on_c, 0, 76, 0
2, 89280, Note_on_c, 0, 76, 100
2, 89760, Note_on_c, 0, 76, 0
2, 89760, Note_on_c, 0, 79, 100
2, 90000, Note_on_c, 0, 79, 0
2, 90000, Note_on_c, 0, 78, 100
2, 90240, Note_on_c, 0, 78, 0
2, 90240, Note_on_c, 0, 79, 100
2, 90720, Note_on_c, 0, 79, 0
2, 90720, Note_on_c, 0, 83, 100
2, 91200, Note_on_c, 0, 83, 0
2, 91200, Pitch_bend_c, 0, 16383
2, 91200, Note_on_c, 0, 79, 100
2, 91280, Pitch_bend_c, 0, 8192
2, 91360, Pitch_bend_c, 0, 16383
2, 91440, Pitch_bend_c, 0, 8192
2, 91680, Note_on_c, 0, 79, 0
2, 91680, Note_on_c, 0, 78, 100
2, 91920, Note_on_c, 0, 78, 0
2, 91920, Note_on_c, 0, 76, 100
2, 92160, Note_on_c, 0, 76, 0
2, 92160, Note_on_c, 0, 76, 100
2, 93120, Note_on_c, 0, 76, 0
2, 93600, Note_on_c, 0, 79, 100
2, 94080, Note_on_c, 0, 79, 0
2, 96000, Note_on_c, 0, 62, 100
2, 96960, Note_on_c, 0, 62, 0
2, 97920, Note_on_c, 0, 65, 100
2, 98400, Note_on_c, 0, 65, 0
2, 98880, Note_on_c, 0, 66, 100
2, 99360, Note_on_c, 0, 66, 0
2, 99840, Note_on_c, 0, 73, 100
2, 100320, Note_on_c, 0, 73, 0
2, 102240, Note_on_c, 0, 71, 100
2, 102720, Note_on_c, 0, 71, 0
2, 102720, Note_on_c, 0, 70, 100
2, 103200, Note_on_c, 0, 70, 0
2, 103680, Note_on_c, 0, 71, 100
2, 104160, Note_on_c, 0, 71, 0
2, 106080, Note_on_c, 0, 69, 100
2, 106560, Note_on_c, 0, 69, 0
2, 106560, Note_on_c, 0, 68, 100
2, 107040, Note_on_c, 0, 68, 0
2, 107040, Note_on_c, 0, 66, 100
2, 107520, Note_on_c, 0, 66, 0
2, 107520, Note_on_c, 0, 65, 100
2, 108000, Note_on_c, 0, 65, 0
2, 109440, Note_on_c, 0, 66, 100
2, 109920, Note_on_c, 0, 66, 0
2, 113760, Note_on_c, 0, 81, 100
2, 114240, Note_on_c, 0, 81, 0
2, 114240, Note_on_c, 0, 75, 100
2, 114720, Note_on_c, 0, 75, 0
2, 114720, Note_on_c, 0, 81, 100
2, 115200, Note_on_c, 0, 81, 0
2, 115200, Note_on_c, 0, 81, 100
2, 115680, Note_on_c, 0, 81, 0
2, 115680, Note_on_c, 0, 79, 100
2, 115920, Note_on_c, 0, 79, 0
2, 115920, Note_on_c, 0, 78, 100
2, 116160, Note_on_c, 0, 78, 0
2, 116160, Note_on_c, 0, 79, 100
2, 116400, Note_on_c, 0, 79, 0
2, 116400, Note_on_c, 0, 64, 100
2, 116640, Note_on_c, 0, 64, 0
2, 116640, Note_on_c, 0, 66, 100
2, 116880, Note_on_c, 0, 66, 0
2, 116880, Note_on_c, 0, 67, 100
2, 117120, Note_on_c, 0, 67, 0
2, 117600, Note_on_c, 0, 79, 100
2, 118080, Note_on_c, 0, 79, 0
2, 118080, Note_on_c, 0, 73, 100
2, 118560, Note_on_c, 0, 73, 0
2, 118560, Note_on_c, 0, 79, 100
2, 119040, Note_on_c, 0, 79, 0
2, 119040, Note_on_c, 0, 79, 100
2, 119520, Note_on_c, 0, 79, 0
2, 119520, Note_on_c, 0, 78, 100
2, 119760, Note_on_c, 0, 78, 0
2, 119760, Note_on_c, 0, 76, 100
2, 120000, Note_on_c, 0, 76, 0
2, 120000, Note_on_c, 0, 78, 100
2, 120240, Note_on_c, 0, 78, 0
2, 120240, Note_on_c, 0, 74, 100
2, 120480, Note_on_c, 0, 74, 0
2, 120480, Note_on_c, 0, 73, 100
2, 120720, Note_on_c, 0, 73, 0
2, 120720, Note_on_c, 0, 71, 100
2, 120960, Note_on_c, 0, 71, 0
2, 120960, Note_on_c, 0, 70, 100
2, 121440, Note_on_c, 0, 70, 0
2, 121440, Note_on_c, 0, 76, 100
2, 121920, Note_on_c, 0, 76, 0
2, 121920, Note_on_c, 0, 67, 100
2, 122400, Note_on_c, 0, 67, 0
2, 122400, Note_on_c, 0, 76, 100
2, 122880, Note_on_c, 0, 76, 0
2, 122880, Note_on_c, 0, 66, 100
2, 123120, Note_on_c, 0, 66, 0
2, 123120, Note_on_c, 0, 73, 100
2, 123360, Note_on_c, 0, 73, 0
2, 123360, Note_on_c, 0, 76, 100
2, 123600, Note_on_c, 0, 76, 0
2, 123600, Note_on_c, 0, 74, 100
2, 123840, Note_on_c, 0, 74, 0
2, 123840, Note_on_c, 0, 76, 100
2, 124080, Note_on_c, 0, 76, 0
2, 124080, Note_on_c, 0, 79, 100
2, 124320, Note_on_c, 0, 79, 0
2, 124320, Note_on_c, 0, 78, 100
2, 124560, Note_on_c, 0, 78, 0
2, 124560, Note_on_c, 0, 76, 100
2, 124800, Note_on_c, 0, 76, 0
2, 124800, Note_on_c, 0, 74, 100
2, 125040, Note_on_c, 0, 74, 0
2, 125040, Note_on_c, 0, 73, 100
2, 125280, Note_on_c, 0, 73, 0
2, 125280, Note_on_c, 0, 71, 100
2, 125520, Note_on_c, 0, 71, 0
2, 125520, Note_on_c, 0, 69, 100
2, 125760, Note_on_c, 0, 69, 0
2, 125760, Note_on_c, 0, 67, 100
2, 126000, Note_on_c, 0, 67, 0
2, 126000, Note_on_c, 0, 70, 100
2, 126240, Note_on_c, 0, 70, 0
2, 126240, Note_on_c, 0, 71, 100
2, 126480, Note_on_c, 0, 71, 0
2, 126480, Note_on_c, 0, 73, 100
2, 126720, Note_on_c, 0, 73, 0
2, 126720, Note_on_c, 0, 74, 100
2, 126960, Note_on_c, 0, 74, 0
2, 126960, Note_on_c, 0, 71, 100
2, 127200, Note_on_c, 0, 71, 0
2, 127200, Note_on_c, 0, 73, 100
2, 127440, Note_on_c, 0, 73, 0
2, 127440, Note_on_c, 0, 70, 100
2, 127680, Note_on_c, 0, 70, 0
2, 127680, Note_on_c, 0, 66, 100
2, 127920, Note_on_c, 0, 66, 0
2, 127920, Note_on_c, 0, 73, 100
2, 128160, Note_on_c, 0, 73, 0
2, 128160, Note_on_c, 0, 78, 100
2, 128400, Note_on_c, 0, 78, 0
2, 128400, Note_on_c, 0, 80, 100
2, 128640, Note_on_c, 0, 80, 0
2, 128640, Note_on_c, 0, 82, 100
2, 128880, Note_on_c, 0, 82, 0
2, 128880, Note_on_c, 0, 83, 100
2, 129120, Note_on_c, 0, 83, 0
2, 129120, Note_on_c, 0, 82, 100
2, 129360, Note_on_c, 0, 82, 0
2, 129360, Note_on_c, 0, 83, 100
2, 129600, Note_on_c, 0, 83, 0
2, 129600, Note_on_c, 0, 85, 100
2, 129840, Note_on_c, 0, 85, 0
2, 129840, Note_on_c, 0, 86, 100
2, 130080, Note_on_c, 0, 86, 0
2, 130080, Note_on_c, 0, 85, 100
2, 130320, Note_on_c, 0, 85, 0
2, 130320, Note_on_c, 0, 86, 100
2, 130560, Note_on_c, 0, 86, 0
2, 130560, Note_on_c, 0, 88, 100
2, 130800, Note_on_c, 0, 88, 0
2, 130800, Note_on_c, 0, 78, 100
2, 131040, Note_on_c, 0, 78, 0
2, 131040, Note_on_c, 0, 70, 100
2, 131280, Note_on_c, 0, 70, 0
2, 131280, Note_on_c, 0, 78, 100
2, 131520, Note_on_c, 0, 78, 0
2, 131520, Note_on_c, 0, 88, 100
2, 131760, Note_on_c, 0, 88, 0
2, 131760, Note_on_c, 0, 78, 100
2, 132000, Note_on_c, 0, 78, 0
2, 132000, Note_on_c, 0, 70, 100
2, 132240, Note_on_c, 0, 70, 0
2, 132240, Note_on_c, 0, 71, 100
2, 132480, Note_on_c, 0, 71, 0
2, 132480, Note_on_c, 0, 73, 100
2, 132720, Note_on_c, 0, 73, 0
2, 132720, Note_on_c, 0, 74, 100
2, 132960, Note_on_c, 0, 74, 0
2, 132960, Note_on_c, 0, 76, 100
2, 133200, Note_on_c, 0, 76, 0
2, 133200, Note_on_c, 0, 78, 100
2, 133440, Note_on_c, 0, 78, 0
2, 133440, Note_on_c, 0, 80, 100
2, 133680, Note_on_c, 0, 80, 0
2, 133680, Note_on_c, 0, 82, 100
2, 133920, Note_on_c, 0, 82, 0
2, 133920, Note_on_c, 0, 83, 100
2, 134160, Note_on_c, 0, 83, 0
2, 134160, Note_on_c, 0, 85, 100
2, 134400, Note_on_c, 0, 85, 0
2, 134400, Note_on_c, 0, 86, 100
2, 134640, Note_on_c, 0, 86, 0
2, 134640, Note_on_c, 0, 77, 100
2, 134880, Note_on_c, 0, 77, 0
2, 134880, Note_on_c, 0, 71, 100
2, 135120, Note_on_c, 0, 71, 0
2, 135120, Note_on_c, 0, 77, 100
2, 135360, Note_on_c, 0, 77, 0
2, 135360, Note_on_c, 0, 86, 100
2, 135600, Note_on_c, 0, 86, 0
2, 135600, Note_on_c, 0, 77, 100
2, 135840, Note_on_c, 0, 77, 0
2, 135840, Note_on_c, 0, 71, 100
2, 136080, Note_on_c, 0, 71, 0
2, 136080, Note_on_c, 0, 73, 100
2, 136320, Note_on_c, 0, 73, 0
2, 136320, Note_on_c, 0, 74, 100
2, 136560, Note_on_c, 0, 74, 0
2, 136560, Note_on_c, 0, 76, 100
2, 136800, Note_on_c, 0, 76, 0
2, 136800, Note_on_c, 0, 74, 100
2, 137040, Note_on_c, 0, 74, 0
2, 137040, Note_on_c, 0, 73, 100
2, 137280, Note_on_c, 0, 73, 0
2, 137280, Note_on_c, 0, 71, 100
2, 137520, Note_on_c, 0, 71, 0
2, 137520, Note_on_c, 0, 69, 100
2, 137760, Note_on_c, 0, 69, 0
2, 137760, Note_on_c, 0, 68, 100
2, 138000, Note_on_c, 0, 68, 0
2, 138000, Note_on_c, 0, 66, 100
2, 138240, Note_on_c, 0, 66, 0
2, 138240, Note_on_c, 0, 65, 100
2, 138480, Note_on_c, 0, 65, 0
2, 138480, Note_on_c, 0, 86, 100
2, 138720, Note_on_c, 0, 86, 0
2, 138720, Note_on_c, 0, 85, 100
2, 138960, Note_on_c, 0, 85, 0
2, 138960, Note_on_c, 0, 83, 100
2, 139200, Note_on_c, 0, 83, 0
2, 139200, Note_on_c, 0, 82, 100
2, 139440, Note_on_c, 0, 82, 0
2, 139440, Note_on_c, 0, 79, 100
2, 139680, Note_on_c, 0, 79, 0
2, 139680, Note_on_c, 0, 78, 100
2, 139920, Note_on_c, 0, 78, 0
2, 139920, Note_on_c, 0, 76, 100
2, 140160, Note_on_c, 0, 76, 0
2, 140160, Note_on_c, 0, 74, 100
2, 140400, Note_on_c, 0, 74, 0
2, 140400, Note_on_c, 0, 73, 100
2, 140640, Note_on_c, 0, 73, 0
2, 140640, Note_on_c, 0, 74, 100
2, 140880, Note_on_c, 0, 74, 0
2, 140880, Note_on_c, 0, 71, 100
2, 141120, Note_on_c, 0, 71, 0
2, 141120, Note_on_c, 0, 66, 100
2, 141600, Note_on_c, 0, 66, 0
2, 141600, Note_on_c, 0, 70, 100
2, 142080, Note_on_c, 0, 70, 0
2, 142080, Note_on_c, 0, 71, 100
2, 142560, Note_on_c, 0, 71, 0
2, 142560, Note_on_c, 0, 74, 100
2, 142800, Note_on_c, 0, 74, 0
2, 142800, Note_on_c, 0, 73, 100
2, 143040, Note_on_c, 0, 73, 0
2, 143040, Note_on_c, 0, 71, 100
2, 143520, Note_on_c, 0, 71, 0
2, 144480, Note_on_c, 0, 74, 100
2, 144720, Note_on_c, 0, 74, 0
2, 144720, Note_on_c, 0, 73, 100
2, 144960, Note_on_c, 0, 73, 0
2, 144960, Note_on_c, 0, 71, 100
2, 145200, Note_on_c, 0, 71, 0
2, 145200, Note_on_c, 0, 70, 100
2, 145440, Note_on_c, 0, 70, 0
2, 145440, Note_on_c, 0, 71, 100
2, 145920, Note_on_c, 0, 71, 0
2, 145920, Note_on_c, 0, 71, 100
2, 146400, Note_on_c, 0, 71, 0
2, 146400, Note_on_c, 0, 71, 100
2, 146640, Note_on_c, 0, 71, 0
2, 146640, Note_on_c, 0, 70, 100
2, 146880, Note_on_c, 0, 70, 0
2, 146880, Note_on_c, 0, 71, 100
2, 147360, Note_on_c, 0, 71, 0
2, 147360, Note_on_c, 0, 72, 100
2, 147600, Note_on_c, 0, 72, 0
2, 147600, Note_on_c, 0, 71, 100
2, 147840, Note_on_c, 0, 71, 0
2, 147840, Note_on_c, 0, 69, 100
2, 148080, Note_on_c, 0, 69, 0
2, 148080, Note_on_c, 0, 67, 100
2, 148320, Note_on_c, 0, 67, 0
2, 148320, Note_on_c, 0, 66, 100
2, 148560, Note_on_c, 0, 66, 0
2, 148560, Note_on_c, 0, 64, 100
2, 148800, Note_on_c, 0, 64, 0
2, 148800, Note_on_c, 0, 63, 100
2, 149040, Note_on_c, 0, 63, 0
2, 149040, Note_on_c, 0, 72, 100
2, 149280, Note_on_c, 0, 72, 0
2, 149280, Note_on_c, 0, 71, 100
2, 149520, Note_on_c, 0, 71, 0
2, 149520, Note_on_c, 0, 69, 100
2, 149760, Note_on_c, 0, 69, 0
2, 149760, Note_on_c, 0, 67, 100
2, 150000, Note_on_c, 0, 67, 0
2, 150000, Note_on_c, 0, 66, 100
2, 150240, Note_on_c, 0, 66, 0
2, 150240, Note_on_c, 0, 64, 100
2, 150480, Note_on_c, 0, 64, 0
2, 150480, Note_on_c, 0, 66, 100
2, 150720, Note_on_c, 0, 66, 0
2, 150720, Note_on_c, 0, 67, 100
2, 150960, Note_on_c, 0, 67, 0
2, 150960, Note_on_c, 0, 69, 100
2, 151200, Note_on_c, 0, 69, 0
2, 151200, Note_on_c, 0, 71, 100
2, 151440, Note_on_c, 0, 71, 0
2, 151440, Note_on_c, 0, 73, 100
2, 151680, Note_on_c, 0, 73, 0
2, 151680, Note_on_c, 0, 74, 100
2, 151920, Note_on_c, 0, 74, 0
2, 151920, Note_on_c, 0, 78, 100
2, 152160, Note_on_c, 0, 78, 0
2, 152160, Note_on_c, 0, 83, 100
2, 152400, Note_on_c, 0, 83, 0
2, 152400, Note_on_c, 0, 80, 100
2, 152640, Note_on_c, 0, 80, 0
2, 152640, Note_on_c, 0, 77, 100
2, 152880, Note_on_c, 0, 77, 0
2, 152880, Note_on_c, 0, 73, 100
2, 153120, Note_on_c, 0, 73, 0
2, 153120, Note_on_c, 0, 86, 100
2, 153360, Note_on_c, 0, 86, 0
2, 153360, Note_on_c, 0, 85, 100
2, 153600, Note_on_c, 0, 85, 0
2, 153600, Note_on_c, 0, 83, 100
2, 153840, Note_on_c, 0, 83, 0
2, 153840, Note_on_c, 0, 82, 100
2, 154080, Note_on_c, 0, 82, 0
2, 154080, Note_on_c, 0, 83, 100
2, 154320, Note_on_c, 0, 83, 0
2, 154320, Note_on_c, 0, 85, 100
2, 154560, Note_on_c, 0, 85, 0
2, 154560, Note_on_c, 0, 78, 100
2, 155040, Note_on_c, 0, 78, 0
2, 155040, Note_on_c, 0, 85, 100
2, 155280, Note_on_c, 0, 85, 0
2, 155280, Note_on_c, 0, 74, 100
2, 155520, Note_on_c, 0, 74, 0
2, 155520, Note_on_c, 0, 76, 100
2, 156000, Note_on_c, 0, 76, 0
2, 156000, Note_on_c, 0, 85, 100
2, 156240, Note_on_c, 0, 85, 0
2, 156240, Note_on_c, 0, 74, 100
2, 156480, Note_on_c, 0, 74, 0
2, 156480, Note_on_c, 0, 76, 100
2, 156960, Note_on_c, 0, 76, 0
2, 156960, Note_on_c, 0, 85, 100
2, 157200, Note_on_c, 0, 85, 0
2, 157200, Note_on_c, 0, 74, 100
2, 157440, Note_on_c, 0, 74, 0
2, 157440, Note_on_c, 0, 76, 100
2, 157920, Note_on_c, 0, 76, 0
2, 157920, Note_on_c, 0, 79, 100
2, 158160, Note_on_c, 0, 79, 0
2, 158160, Note_on_c, 0, 78, 100
2, 158400, Note_on_c, 0, 78, 0
2, 158400, Note_on_c, 0, 79, 100
2, 159600, Note_on_c, 0, 79, 0
2, 159600, Note_on_c, 0, 78, 100
2, 159840, Note_on_c, 0, 78, 0
2, 159840, Note_on_c, 0, 76, 100
2, 160080, Note_on_c, 0, 76, 0
2, 160080, Note_on_c, 0, 74, 100
2, 160320, Note_on_c, 0, 74, 0
2, 160320, Note_on_c, 0, 73, 100
2, 160560, Note_on_c, 0, 73, 0
2, 160560, Note_on_c, 0, 71, 100
2, 160800, Note_on_c, 0, 71, 0
2, 160800, Note_on_c, 0, 70, 100
2, 161040, Note_on_c, 0, 70, 0
2, 161040, Note_on_c, 0, 73, 100
2, 161280, Note_on_c, 0, 73, 0
2, 161280, Note_on_c, 0, 64, 100
2, 161520, Note_on_c, 0, 64, 0
2, 161520, Note_on_c, 0, 67, 100
2, 161760, Note_on_c, 0, 67, 0
2, 161760, Note_on_c, 0, 66, 100
2, 162000, Note_on_c, 0, 66, 0
2, 162000, Note_on_c, 0, 64, 100
2, 162240, Note_on_c, 0, 64, 0
2, 162240, Note_on_c, 0, 62, 100
2, 162480, Note_on_c, 0, 62, 0
2, 162480, Note_on_c, 0, 61, 100
2, 162720, Note_on_c, 0, 61, 0
2, 162720, Note_on_c, 0, 59, 100
2, 162960, Note_on_c, 0, 59, 0
2, 162960, Note_on_c, 0, 58, 100
2, 163200, Note_on_c, 0, 58, 0
2, 163200, Note_on_c, 0, 59, 100
2, 163680, Note_on_c, 0, 59, 0
2, 164160, Note_on_c, 0, 59, 100
2, 164640, Note_on_c, 0, 59, 0
2, 170400, Note_on_c, 0, 78, 100
2, 170880, Note_on_c, 0, 78, 0
2, 170880, Note_on_c, 0, 76, 100
2, 171360, Note_on_c, 0, 76, 0
2, 171360, Note_on_c, 0, 78, 100
2, 171840, Note_on_c, 0, 78, 0
2, 171840, Note_on_c, 0, 79, 100
2, 172320, Note_on_c, 0, 79, 0
2, 172320, Note_on_c, 0, 78, 100
2, 172800, Note_on_c, 0, 78, 0
2, 172800, Note_on_c, 0, 76, 100
2, 173280, Note_on_c, 0, 76, 0
2, 173280, Note_on_c, 0, 76, 100
2, 173520, Note_on_c, 0, 76, 0
2, 173520, Note_on_c, 0, 74, 100
2, 173760, Note_on_c, 0, 74, 0
2, 173760, Note_on_c, 0, 76, 100
2, 174240, Note_on_c, 0, 76, 0
2, 174240, Note_on_c, 0, 81, 100
2, 174720, Note_on_c, 0, 81, 0
2, 174720, Note_on_c, 0, 73, 100
2, 175200, Note_on_c, 0, 73, 0
2, 175200, Note_on_c, 0, 74, 100
2, 175680, Note_on_c, 0, 74, 0
2, 175680, Note_on_c, 0, 76, 100
2, 176160, Note_on_c, 0, 76, 0
2, 176160, Note_on_c, 0, 74, 100
2, 176640, Note_on_c, 0, 74, 0
2, 176640, Note_on_c, 0, 73, 100
2, 177120, Note_on_c, 0, 73, 0
2, 177120, Note_on_c, 0, 73, 100
2, 177360, Note_on_c, 0, 73, 0
2, 177360, Note_on_c, 0, 71, 100
2, 177600, Note_on_c, 0, 71, 0
2, 177600, Note_on_c, 0, 73, 100
2, 178080, Note_on_c, 0, 73, 0
2, 178080, Note_on_c, 0, 75, 100
2, 178560, Note_on_c, 0, 75, 0
2, 178560, Note_on_c, 0, 76, 100
2, 179040, Note_on_c, 0, 76, 0
2, 179040, Note_on_c, 0, 79, 100
2, 179520, Note_on_c, 0, 79, 0
2, 180000, Note_on_c, 0, 78, 100
2, 180480, Note_on_c, 0, 78, 0
2, 180480, Note_on_c, 0, 76, 100
2, 180720, Note_on_c, 0, 76, 0
2, 180720, Note_on_c, 0, 75, 100
2, 180960, Note_on_c, 0, 75, 0
2, 180960, Note_on_c, 0, 76, 100
2, 181440, Note_on_c, 0, 76, 0
2, 181440, Note_on_c, 0, 76, 100
2, 181920, Note_on_c, 0, 76, 0
2, 181920, Note_on_c, 0, 79, 100
2, 182160, Note_on_c, 0, 79, 0
2, 182160, Note_on_c, 0, 78, 100
2, 182400, Note_on_c, 0, 78, 0
2, 182400, Note_on_c, 0, 79, 100
2, 182880, Note_on_c, 0, 79, 0
2, 182880, Note_on_c, 0, 83, 100
2, 183360, Note_on_c, 0, 83, 0
2, 183360, Pitch_bend_c, 0, 16383
2, 183360, Note_on_c, 0, 79, 100
2, 183440, Pitch_bend_c, 0, 8192
2, 183520, Pitch_bend_c, 0, 16383
2, 183600, Pitch_bend_c, 0, 8192
2, 183840, Note_on_c, 0, 79, 0
2, 183840, Note_on_c, 0, 78, 100
2, 184080, Note_on_c, 0, 78, 0
2, 184080, Note_on_c, 0, 76, 100
2, 184320, Note_on_c, 0, 76, 0
2, 184320, Note_on_c, 0, 76, 100
2, 185280, Note_on_c, 0, 76, 0
2, 185760, Note_on_c, 0, 79, 100
2, 186240, Note_on_c, 0, 79, 0
2, 188160, Note_on_c, 0, 62, 100
2, 189120, Note_on_c, 0, 62, 0
2, 190080, Note_on_c, 0, 65, 100
2, 190560, Note_on_c, 0, 65, 0
2, 191040, Note_on_c, 0, 66, 100
2, 191520, Note_on_c, 0, 66, 0
2, 192000, Note_on_c, 0, 73, 100
2, 192480, Note_on_c, 0, 73, 0
2, 194400, Note_on_c, 0, 71, 100
2, 194880, Note_on_c, 0, 71, 0
2, 194880, Note_on_c, 0, 70, 100
2, 195360, Note_on_c, 0, 70, 0
2, 195840, Note_on_c, 0, 71, 100
2, 196320, Note_on_c, 0, 71, 0
2, 198240, Note_on_c, 0, 69, 100
2, 198720, Note_on_c, 0, 69, 0
2, 198720, Note_on_c, 0, 68, 100
2, 199200, Note_on_c, 0, 68, 0
2, 199200, Note_on_c, 0, 66, 100
2, 199680, Note_on_c, 0, 66, 0
2, 199680, Note_on_c, 0, 65, 100
2, 200160, Note_on_c, 0, 65, 0
2, 201600, Note_on_c, 0, 66, 100
2, 202080, Note_on_c, 0, 66, 0
2, 205920, Note_on_c, 0, 81, 100
2, 206400, Note_on_c, 0, 81, 0
2, 206400, Note_on_c, 0, 75, 100
2, 206880, Note_on_c, 0, 75, 0
2, 206880, Note_on_c, 0, 81, 100
2, 207360, Note_on_c, 0, 81, 0
2, 207360, Note_on_c, 0, 81, 100
2, 207840, Note_on_c, 0, 81, 0
2, 207840, Note_on_c, 0, 79, 100
2, 208080, Note_on_c, 0, 79, 0
2, 208080, Note_on_c, 0, 78, 100
2, 208320, Note_on_c, 0, 78, 0
2, 208320, Note_on_c, 0, 79, 100
2, 208560, Note_on_c, 0, 79, 0
2, 208560, Note_on_c, 0, 64, 100
2, 208800, Note_on_c, 0, 64, 0
2, 208800, Note_on_c, 0, 66, 100
2, 209040, Note_on_c, 0, 66, 0
2, 209040, Note_on_c, 0, 67, 100
2, 209280, Note_on_c, 0, 67, 0
2, 209760, Note_on_c, 0, 79, 100
2, 210240, Note_on_c, 0, 79, 0
2, 210240, Note_on_c, 0, 73, 100
2, 210720, Note_on_c, 0, 73, 0
2, 210720, Note_on_c, 0, 79, 100
2, 211200, Note_on_c, 0, 79, 0
2, 211200, Note_on_c, 0, 79, 100
2, 211680, Note_on_c, 0, 79, 0
2, 211680, Note_on_c, 0, 78, 100
2, 211920, Note_on_c, 0, 78, 0
2, 211920, Note_on_c, 0, 76, 100
2, 212160, Note_on_c, 0, 76, 0
2, 212160, Note_on_c, 0, 78, 100
2, 212400, Note_on_c, 0, 78, 0
2, 212400, Note_on_c, 0, 74, 100
2, 212640, Note_on_c, 0, 74, 0
2, 212640, Note_on_c, 0, 73, 100
2, 212880, Note_on_c, 0, 73, 0
2, 212880, Note_on_c, 0, 71, 100
2, 213120, Note_on_c, 0, 71, 0
2, 213120, Note_on_c, 0, 70, 100
2, 213600, Note_on_c, 0, 70, 0
2, 213600, Note_on_c, 0, 76, 100
2, 214080, Note_on_c, 0, 76, 0
2, 214080, Note_on_c, 0, 67, 100
2, 214560, Note_on_c, 0, 67, 0
2, 214560, Note_on_c, 0, 76, 100
2, 215040, Note_on_c, 0, 76, 0
2, 215040, Note_on_c, 0, 66, 100
2, 215280, Note_on_c, 0, 66, 0
2, 215280, Note_on_c, 0, 73, 100
2, 215520, Note_on_c, 0, 73, 0
2, 215520, Note_on_c, 0, 76, 100
2, 215760, Note_on_c, 0, 76, 0
2, 215760, Note_on_c, 0, 74, 100
2, 216000, Note_on_c, 0, 74, 0
2, 216000, Note_on_c, 0, 76, 100
2, 216240, Note_on_c, 0, 76, 0
2, 216240, Note_on_c, 0, 79, 100
2, 216480, Note_on_c, 0, 79, 0
2, 216480, Note_on_c, 0, 78, 100
2, 216720, Note_on_c, 0, 78, 0
2, 216720, Note_on_c, 0, 76, 100
2, 216960, Note_on_c, 0, 76, 0
2, 216960, Note_on_c, 0, 74, 100
2, 217200, Note_on_c, 0, 74, 0
2, 217200, Note_on_c, 0, 73, 100
2, 217440, Note_on_c, 0, 73, 0
2, 217440, Note_on_c, 0, 71, 100
2, 217680, Note_on_c, 0, 71, 0
2, 217680, Note_on_c, 0, 69, 100
2, 217920, Note_on_c, 0, 69, 0
2, 217920, Note_on_c, 0, 67, 100
2, 218160, Note_on_c, 0, 67, 0
2, 218160, Note_on_c, 0, 70, 100
2, 218400, Note_on_c, 0, 70, 0
2, 218400, Note_on_c, 0, 71, 100
2, 218640, Note_on_c, 0, 71, 0
2, 218640, Note_on_c, 0, 73, 100
2, 218880, Note_on_c, 0, 73, 0
2, 218880, Note_on_c, 0, 74, 100
2, 219120, Note_on_c, 0, 74, 0
2, 219120, Note_on_c, 0, 71, 100
2, 219360, Note_on_c, 0, 71, 0
2, 219360, Note_on_c, 0, 73, 100
2, 219600, Note_on_c, 0, 73, 0
2, 219600, Note_on_c, 0, 70, 100
2, 219840, Note_on_c, 0, 70, 0
2, 219840, Note_on_c, 0, 66, 100
2, 220080, Note_on_c, 0, 66, 0
2, 220080, Note_on_c, 0, 73, 100
2, 220320, Note_on_c, 0, 73, 0
2, 220320, Note_on_c, 0, 78, 100
2, 220560, Note_on_c, 0, 78, 0
2, 220560, Note_on_c, 0, 80, 100
2, 220800, Note_on_c, 0, 80, 0
2, 220800, Note_on_c, 0, 82, 100
2, 221040, Note_on_c, 0, 82, 0
2, 221040, Note_on_c, 0, 83, 100
2, 221280, Note_on_c, 0, 83, 0
2, 221280, Note_on_c, 0, 82, 100
2, 221520, Note_on_c, 0, 82, 0
2, 221520, Note_on_c, 0, 83, 100
2, 221760, Note_on_c, 0, 83, 0
2, 221760, Note_on_c, 0, 85, 100
2, 222000, Note_on_c, 0, 85, 0
2, 222000, Note_on_c, 0, 86, 100
2, 222240, Note_on_c, 0, 86, 0
2, 222240, Note_on_c, 0, 85, 100
2, 222480, Note_on_c, 0, 85, 0
2, 222480, Note_on_c, 0, 86, 100
2, 222720, Note_on_c, 0, 86, 0
2, 222720, Note_on_c, 0, 88, 100
2, 222960, Note_on_c, 0, 88, 0
2, 222960, Note_on_c, 0, 78, 100
2, 223200, Note_on_c, 0, 78, 0
2, 223200, Note_on_c, 0, 70, 100
2, 223440, Note_on_c, 0, 70, 0
2, 223440, Note_on_c, 0, 78, 100
2, 223680, Note_on_c, 0, 78, 0
2, 223680, Note_on_c, 0, 88, 100
2, 223920, Note_on_c, 0, 88, 0
2, 223920, Note_on_c, 0, 78, 100
2, 224160, Note_on_c, 0, 78, 0
2, 224160, Note_on_c, 0, 70, 100
2, 224400, Note_on_c, 0, 70, 0
2, 224400, Note_on_c, 0, 71, 100
2, 224640, Note_on_c, 0, 71, 0
2, 224640, Note_on_c, 0, 73, 100
2, 224880, Note_on_c, 0, 73, 0
2, 224880, Note_on_c, 0, 74, 100
2, 225120, Note_on_c, 0, 74, 0
2, 225120, Note_on_c, 0, 76, 100
2, 225360, Note_on_c, 0, 76, 0
2, 225360, Note_on_c, 0, 78, 100
2, 225600, Note_on_c, 0, 78, 0
2, 225600, Note_on_c, 0, 80, 100
2, 225840, Note_on_c, 0, 80, 0
2, 225840, Note_on_c, 0, 82, 100
2, 226080, Note_on_c, 0, 82, 0
2, 226080, Note_on_c, 0, 83, 100
2, 226320, Note_on_c, 0, 83, 0
2, 226320, Note_on_c, 0, 85, 100
2, 226560, Note_on_c, 0, 85, 0
2, 226560, Note_on_c, 0, 86, 100
2, 226800, Note_on_c, 0, 86, 0
2, 226800, Note_on_c, 0, 77, 100
2, 227040, Note_on_c, 0, 77, 0
2, 227040, Note_on_c, 0, 71, 100
2, 227280, Note_on_c, 0, 71, 0
2, 227280, Note_on_c, 0, 77, 100
2, 227520, Note_on_c, 0, 77, 0
2, 227520, Note_on_c, 0, 86, 100
2, 227760, Note_on_c, 0, 86, 0
2, 227760, Note_on_c, 0, 77, 100
2, 228000, Note_on_c, 0, 77, 0
2, 228000, Note_on_c, 0, 71, 100
2, 228240, Note_on_c, 0, 71, 0
2, 228240, Note_on_c, 0, 73, 100
2, 228480, Note_on_c, 0, 73, 0
2, 228480, Note_on_c, 0, 74, 100
2, 228720, Note_on_c, 0, 74, 0
2, 228720, Note_on_c, 0, 76, 100
2, 228960, Note_on_c, 0, 76, 0
2, 228960, Note_on_c, 0, 74, 100
2, 229200, Note_on_c, 0, 74, 0
2, 229200, Note_on_c, 0, 73, 100
2, 229440, Note_on_c, 0, 73, 0
2, 229440, Note_on_c, 0, 71, 100
2, 229680, Note_on_c, 0, 71, 0
2, 229680, Note_on_c, 0, 69, 100
2, 229920, Note_on_c, 0, 69, 0
2, 229920, Note_on_c, 0, 68, 100
2, 230160, Note_on_c, 0, 68, 0
2, 230160, Note_on_c, 0, 66, 100
2, 230400, Note_on_c, 0, 66, 0
2, 230400, Note_on_c, 0, 65, 100
2, 230640, Note_on_c, 0, 65, 0
2, 230640, Note_on_c, 0, 86, 100
2, 230880, Note_on_c, 0, 86, 0
2, 230880, Note_on_c, 0, 85, 100
2, 231120, Note_on_c, 0, 85, 0
2, 231120, Note_on_c, 0, 83, 100
2, 231360, Note_on_c, 0, 83, 0
2, 231360, Note_on_c, 0, 82, 100
2, 231600, Note_on_c, 0, 82, 0
2, 231600, Note_on_c, 0, 79, 100
2, 231840, Note_on_c, 0, 79, 0
2, 231840, Note_on_c, 0, 78, 100
2, 232080, Note_on_c, 0, 78, 0
2, 232080, Note_on_c, 0, 76, 100
2, 232320, Note_on_c, 0, 76, 0
2, 232320, Note_on_c, 0, 74, 100
2, 232560, Note_on_c, 0, 74, 0
2, 232560, Note_on_c, 0, 73, 100
2, 232800, Note_on_c, 0, 73, 0
2, 232800, Note_on_c, 0, 74, 100
2, 233040, Note_on_c, 0, 74, 0
2, 233040, Note_on_c, 0, 71, 100
2, 233280, Note_on_c, 0, 71, 0
2, 233280, Note_on_c, 0, 66, 100
2, 233760, Note_on_c, 0, 66, 0
2, 233760, Note_on_c, 0, 70, 100
2, 234240, Note_on_c, 0, 70, 0
2, 234240, Note_on_c, 0, 71, 100
2, 234720, Note_on_c, 0, 71, 0
2, 234720, Note_on_c, 0, 74, 100
2, 234960, Note_on_c, 0, 74, 0
2, 234960, Note_on_c, 0, 73, 100
2, 235200, Note_on_c, 0, 73, 0
2, 235200, Note_on_c, 0, 71, 100
2, 235680, Note_on_c, 0, 71, 0
2, 236640, Note_on_c, 0, 74, 100
2, 236880, Note_on_c, 0, 74, 0
2, 236880, Note_on_c, 0, 73, 100
2, 237120, Note_on_c, 0, 73, 0
2, 237120, Note_on_c, 0, 71, 100
2, 237360, Note_on_c, 0, 71, 0
2, 237360, Note_on_c, 0, 70, 100
2, 237600, Note_on_c, 0, 70, 0
2, 237600, Note_on_c, 0, 71, 100
2, 238080, Note_on_c, 0, 71, 0
2, 238080, Note_on_c, 0, 71, 100
2, 238560, Note_on_c, 0, 71, 0
2, 238560, Note_on_c, 0, 71, 100
2, 238800, Note_on_c, 0, 71, 0
2, 238800, Note_on_c, 0, 70, 100
2, 239040, Note_on_c, 0, 70, 0
2, 239040, Note_on_c, 0, 71, 100
2, 239520, Note_on_c, 0, 71, 0
2, 239520, Note_on_c, 0, 72, 100
2, 239760, Note_on_c, 0, 72, 0
2, 239760, Note_on_c, 0, 71, 100
2, 240000, Note_on_c, 0, 71, 0
2, 240000, Note_on_c, 0, 69, 100
2, 240240, Note_on_c, 0, 69, 0
2, 240240, Note_on_c, 0, 67, 100
2, 240480, Note_on_c, 0, 67, 0
2, 240480, Note_on_c, 0, 66, 100
2, 240720, Note_on_c, 0, 66, 0
2, 240720, Note_on_c, 0, 64, 100
2, 240960, Note_on_c, 0, 64, 0
2, 240960, Note_on_c, 0, 63, 100
2, 241200, Note_on_c, 0, 63, 0
2, 241200, Note_on_c, 0, 72, 100
2, 241440, Note_on_c, 0, 72, 0
2, 241440, Note_on_c, 0, 71, 100
2, 241680, Note_on_c, 0, 71, 0
2, 241680, Note_on_c, 0, 69, 100
2, 241920, Note_on_c, 0, 69, 0
2, 241920, Note_on_c, 0, 67, 100
2, 242160, Note_on_c, 0, 67, 0
2, 242160, Note_on_c, 0, 66, 100
2, 242400, Note_on_c, 0, 66, 0
2, 242400, Note_on_c, 0, 64, 100
2, 242640, Note_on_c, 0, 64, 0
2, 242640, Note_on_c, 0, 66, 100
2, 242880, Note_on_c, 0, 66, 0
2, 242880, Note_on_c, 0, 67, 100
2, 243120, Note_on_c, 0, 67, 0
2, 243120, Note_on_c, 0, 69, 100
2, 243360, Note_on_c, 0, 69, 0
2, 243360, Note_on_c, 0, 71, 100
2, 243600, Note_on_c, 0, 71, 0
2, 243600, Note_on_c, 0, 73, 100
2, 243840, Note_on_c, 0, 73, 0
2, 243840, Note_on_c, 0, 74, 100
2, 244080, Note_on_c, 0, 74, 0
2, 244080, Note_on_c, 0, 78, 100
2, 244320, Note_on_c, 0, 78, 0
2, 244320, Note_on_c, 0, 83, 100
2, 244560, Note_on_c, 0, 83, 0
2, 244560, Note_on_c, 0, 80, 100
2, 244800, Note_on_c, 0, 80, 0
2, 244800, Note_on_c, 0, 77, 100
2, 245040, Note_on_c, 0, 77, 0
2, 245040, Note_on_c, 0, 73, 100
2, 245280, Note_on_c, 0, 73, 0
2, 245280, Note_on_c, 0, 86, 100
2, 245520, Note_on_c, 0, 86, 0
2, 245520, Note_on_c, 0, 85, 100
2, 245760, Note_on_c, 0, 85, 0
2, 245760, Note_on_c, 0, 83, 100
2, 246000, Note_on_c, 0, 83, 0
2, 246000, Note_on_c, 0, 82, 100
2, 246240, Note_on_c, 0, 82, 0
2, 246240, Note_on_c, 0, 83, 100
2, 246480, Note_on_c, 0, 83, 0
2, 246480, Note_on_c, 0, 85, 100
2, 246720, Note_on_c, 0, 85, 0
2, 246720, Note_on_c, 0, 78, 100
2, 247200, Note_on_c, 0, 78, 0
2, 247200, Note_on_c, 0, 85, 100
2, 247440, Note_on_c, 0, 85, 0
2, 247440, Note_on_c, 0, 74, 100
2, 247680, Note_on_c, 0, 74, 0
2, 247680, Note_on_c, 0, 76, 100
2, 248160, Note_on_c, 0, 76, 0
2, 248160, Note_on_c, 0, 85, 100
2, 248400, Note_on_c, 0, 85, 0
2, 248400, Note_on_c, 0, 74, 100
2, 248640, Note_on_c, 0, 74, 0
2, 248640, Note_on_c, 0, 76, 100
2, 249120, Note_on_c, 0, 76, 0
2, 249120, Note_on_c, 0, 85, 100
2, 249360, Note_on_c, 0, 85, 0
2, 249360, Note_on_c, 0, 74, 100
2, 249600, Note_on_c, 0, 74, 0
2, 249600, Note_on_c, 0, 76, 100
2, 250080, Note_on_c, 0, 76, 0
2, 250080, Note_on_c, 0, 79, 100
2, 250320, Note_on_c, 0, 79, 0
2, 250320, Note_on_c, 0, 78, 100
2, 250560, Note_on_c, 0, 78, 0
2, 250560, Note_on_c, 0, 79, 100
2, 251760, Note_on_c, 0, 79, 0
2, 251760, Note_on_c, 0, 78, 100
2, 252000, Note_on_c, 0, 78, 0
2, 252000, Note_on_c, 0, 76, 100
2, 252240, Note_on_c, 0, 76, 0
2, 252240, Note_on_c, 0, 74, 100
2, 252480, Note_on_c, 0, 74, 0
2, 252480, Note_on_c, 0, 73, 100
2, 252720, Note_on_c, 0, 73, 0
2, 252720, Note_on_c, 0, 71, 100
2, 252960, Note_on_c, 0, 71, 0
2, 252960, Note_on_c, 0, 70, 100
2, 253200, Note_on_c, 0, 70, 0
2, 253200, Note_on_c, 0, 73, 100
2, 253440, Note_on_c, 0, 73, 0
2, 253440, Note_on_c, 0, 64, 100
2, 253680, Note_on_c, 0, 64, 0
2, 253680, Note_on_c, 0, 67, 100
2, 253920, Note_on_c, 0, 67, 0
2, 253920, Note_on_c, 0, 66, 100
2, 254160, Note_on_c, 0, 66, 0
2, 254160, Note_on_c, 0, 64, 100
2, 254400, Note_on_c, 0, 64, 0
2, 254400, Note_on_c, 0, 62, 100
2, 254640, Note_on_c, 0, 62, 0
2, 254640, Note_on_c, 0, 61, 100
2, 254880, Note_on_c, 0, 61, 0
2, 254880, Note_on_c, 0, 59, 100
2, 255120, Note_on_c, 0, 59, 0
2, 255120, Note_on_c, 0, 58, 100
2, 255360, Note_on_c, 0, 58, 0
2, 255360, Note_on_c, 0, 59, 100
2, 255840, Note_on_c, 0, 59, 0
2, 256320, Note_on_c, 0, 59, 100
2, 256800, Note_on_c, 0, 59, 0
2, 256800, End_track
3, 0, Start_track
3, 0, MIDI_port, 0
3, 0, Title_t, "--------------------------------------"
3, 0, Program_c, 1, 40
3, 0, Control_c, 1, 7, 100
3, 0, Control_c, 1, 10, 59
3, 1920, Note_on_c, 1, 74, 100
3, 2400, Note_on_c, 1, 74, 0
3, 2880, Note_on_c, 1, 74, 100
3, 3360, Note_on_c, 1, 74, 0
3, 3840, Note_on_c, 1, 73, 100
3, 4320, Note_on_c, 1, 73, 0
3, 5280, Note_on_c, 1, 70, 100
3, 5760, Note_on_c, 1, 70, 0
3, 5760, Note_on_c, 1, 71, 100
3, 6240, Note_on_c, 1, 71, 0
3, 6240, Note_on_c, 1, 73, 100
3, 6720, Note_on_c, 1, 73, 0
3, 7680, Note_on_c, 1, 66, 100
3, 8160, Note_on_c, 1, 66, 0
3, 11520, Note_on_c, 1, 67, 100
3, 12000, Note_on_c, 1, 67, 0
3, 15360, Note_on_c, 1, 66, 100
3, 15840, Note_on_c, 1, 66, 0
3, 19200, Note_on_c, 1, 67, 100
3, 19680, Note_on_c, 1, 67, 0
3, 21600, Note_on_c, 1, 66, 100
3, 22080, Note_on_c, 1, 66, 0
3, 22080, Note_on_c, 1, 67, 100
3, 22560, Note_on_c, 1, 67, 0
3, 22560, Note_on_c, 1, 69, 100
3, 23040, Note_on_c, 1, 69, 0
3, 23040, Note_on_c, 1, 69, 100
3, 23520, Note_on_c, 1, 69, 0
3, 24480, Note_on_c, 1, 68, 100
3, 24960, Note_on_c, 1, 68, 0
3, 24960, Note_on_c, 1, 67, 100
3, 25440, Note_on_c, 1, 67, 0
3, 26400, Note_on_c, 1, 66, 100
3, 26880, Note_on_c, 1, 66, 0
3, 26880, Note_on_c, 1, 67, 100
3, 27360, Note_on_c, 1, 67, 0
3, 27360, Note_on_c, 1, 66, 100
3, 27840, Note_on_c, 1, 66, 0
3, 27840, Note_on_c, 1, 64, 100
3, 28320, Note_on_c, 1, 64, 0
3, 28320, Note_on_c, 1, 62, 100
3, 28800, Note_on_c, 1, 62, 0
3, 28800, Note_on_c, 1, 61, 100
3, 29280, Note_on_c, 1, 61, 0
3, 30720, Note_on_c, 1, 61, 100
3, 31200, Note_on_c, 1, 61, 0
3, 31680, Note_on_c, 1, 59, 100
3, 32160, Note_on_c, 1, 59, 0
3, 32640, Note_on_c, 1, 57, 100
3, 33120, Note_on_c, 1, 57, 0
3, 37440, Note_on_c, 1, 69, 100
3, 37920, Note_on_c, 1, 69, 0
3, 37920, Note_on_c, 1, 67, 100
3, 38400, Note_on_c, 1, 67, 0
3, 38400, Note_on_c, 1, 66, 100
3, 39840, Note_on_c, 1, 66, 0
3, 40320, Note_on_c, 1, 74, 100
3, 40800, Note_on_c, 1, 74, 0
3, 41280, Note_on_c, 1, 74, 100
3, 41760, Note_on_c, 1, 74, 0
3, 42240, Note_on_c, 1, 73, 100
3, 42720, Note_on_c, 1, 73, 0
3, 43680, Note_on_c, 1, 70, 100
3, 44160, Note_on_c, 1, 70, 0
3, 44160, Note_on_c, 1, 71, 100
3, 44640, Note_on_c, 1, 71, 0
3, 44640, Note_on_c, 1, 73, 100
3, 45120, Note_on_c, 1, 73, 0
3, 46080, Note_on_c, 1, 66, 100
3, 46560, Note_on_c, 1, 66, 0
3, 49920, Note_on_c, 1, 67, 100
3, 50400, Note_on_c, 1, 67, 0
3, 53760, Note_on_c, 1, 66, 100
3, 54240, Note_on_c, 1, 66, 0
3, 57600, Note_on_c, 1, 67, 100
3, 58080, Note_on_c, 1, 67, 0
3, 60000, Note_on_c, 1, 66, 100
3, 60480, Note_on_c, 1, 66, 0
3, 60480, Note_on_c, 1, 67, 100
3, 60960, Note_on_c, 1, 67, 0
3, 60960, Note_on_c, 1, 69, 100
3, 61440, Note_on_c, 1, 69, 0
3, 61440, Note_on_c, 1, 69, 100
3, 61920, Note_on_c, 1, 69, 0
3, 62880, Note_on_c, 1, 68, 100
3, 63360, Note_on_c, 1, 68, 0
3, 63360, Note_on_c, 1, 67, 100
3, 63840, Note_on_c, 1, 67, 0
3, 64800, Note_on_c, 1, 66, 100
3, 65280, Note_on_c, 1, 66, 0
3, 65280, Note_on_c, 1, 67, 100
3, 65760, Note_on_c, 1, 67, 0
3, 65760, Note_on_c, 1, 66, 100
3, 66240, Note_on_c, 1, 66, 0
3, 66240, Note_on_c, 1, 64, 100
3, 66720, Note_on_c, 1, 64, 0
3, 66720, Note_on_c, 1, 62, 100
3, 67200, Note_on_c, 1, 62, 0
3, 67200, Note_on_c, 1, 61, 100
3, 67680, Note_on_c, 1, 61, 0
3, 69120, Note_on_c, 1, 61, 100
3, 69600, Note_on_c, 1, 61, 0
3, 70080, Note_on_c, 1, 59, 100
3, 70560, Note_on_c, 1, 59, 0
3, 71040, Note_on_c, 1, 57, 100
3, 71520, Note_on_c, 1, 57, 0
3, 75840, Note_on_c, 1, 69, 100
3, 76320, Note_on_c, 1, 69, 0
3, 76320, Note_on_c, 1, 67, 100
3, 76800, Note_on_c, 1, 67, 0
3, 76800, Note_on_c, 1, 66, 100
3, 78240, Note_on_c, 1, 66, 0
3, 78240, Note_on_c, 1, 74, 100
3, 78720, Note_on_c, 1, 74, 0
3, 78720, Note_on_c, 1, 73, 100
3, 79200, Note_on_c, 1, 73, 0
3, 79200, Note_on_c, 1, 74, 100
3, 79680, Note_on_c, 1, 74, 0
3, 79680, Note_on_c, 1, 76, 100
3, 80160, Note_on_c, 1, 76, 0
3, 80160, Note_on_c, 1, 74, 100
3, 80640, Note_on_c, 1, 74, 0
3, 80640, Note_on_c, 1, 73, 100
3, 81120, Note_on_c, 1, 73, 0
3, 82080, Note_on_c, 1, 74, 100
3, 82560, Note_on_c, 1, 74, 0
3, 86400, Note_on_c, 1, 71, 100
3, 86880, Note_on_c, 1, 71, 0
3, 86880, Note_on_c, 1, 71, 100
3, 87360, Note_on_c, 1, 71, 0
3, 107040, Note_on_c, 1, 74, 100
3, 107520, Note_on_c, 1, 74, 0
3, 107520, Note_on_c, 1, 73, 100
3, 107760, Note_on_c, 1, 73, 0
3, 107760, Note_on_c, 1, 75, 100
3, 108000, Note_on_c, 1, 75, 0
3, 108000, Note_on_c, 1, 77, 100
3, 108240, Note_on_c, 1, 77, 0
3, 108240, Note_on_c, 1, 78, 100
3, 108480, Note_on_c, 1, 78, 0
3, 108480, Note_on_c, 1, 80, 100
3, 108720, Note_on_c, 1, 80, 0
3, 108720, Note_on_c, 1, 81, 100
3, 108960, Note_on_c, 1, 81, 0
3, 108960, Note_on_c, 1, 83, 100
3, 109200, Note_on_c, 1, 83, 0
3, 109200, Note_on_c, 1, 80, 100
3, 109440, Note_on_c, 1, 80, 0
3, 109440, Note_on_c, 1, 83, 100
3, 109680, Note_on_c, 1, 83, 0
3, 109680, Note_on_c, 1, 81, 100
3, 109920, Note_on_c, 1, 81, 0
3, 109920, Note_on_c, 1, 80, 100
3, 110160, Note_on_c, 1, 80, 0
3, 110160, Note_on_c, 1, 78, 100
3, 110400, Note_on_c, 1, 78, 0
3, 110400, Note_on_c, 1, 73, 100
3, 110880, Note_on_c, 1, 73, 0
3, 110880, Note_on_c, 1, 77, 100
3, 111360, Note_on_c, 1, 77, 0
3, 111360, Note_on_c, 1, 78, 100
3, 111840, Note_on_c, 1, 78, 0
3, 111840, Note_on_c, 1, 66, 100
3, 112080, Note_on_c, 1, 66, 0
3, 112080, Note_on_c, 1, 67, 100
3, 112320, Note_on_c, 1, 67, 0
3, 112320, Note_on_c, 1, 66, 100
3, 112560, Note_on_c, 1, 66, 0
3, 112560, Note_on_c, 1, 64, 100
3, 112800, Note_on_c, 1, 64, 0
3, 112800, Note_on_c, 1, 63, 100
3, 113040, Note_on_c, 1, 63, 0
3, 113040, Note_on_c, 1, 61, 100
3, 113280, Note_on_c, 1, 61, 0
3, 113280, Note_on_c, 1, 59, 100
3, 113760, Note_on_c, 1, 59, 0
3, 114240, Note_on_c, 1, 59, 100
3, 114720, Note_on_c, 1, 59, 0
3, 115200, Note_on_c, 1, 64, 100
3, 115680, Note_on_c, 1, 64, 0
3, 117120, Note_on_c, 1, 57, 100
3, 117600, Note_on_c, 1, 57, 0
3, 118080, Note_on_c, 1, 57, 100
3, 118560, Note_on_c, 1, 57, 0
3, 119040, Note_on_c, 1, 62, 100
3, 119520, Note_on_c, 1, 62, 0
3, 120960, Note_on_c, 1, 61, 100
3, 121440, Note_on_c, 1, 61, 0
3, 121920, Note_on_c, 1, 59, 100
3, 122400, Note_on_c, 1, 59, 0
3, 122880, Note_on_c, 1, 58, 100
3, 123360, Note_on_c, 1, 58, 0
3, 142080, Note_on_c, 1, 66, 100
3, 142560, Note_on_c, 1, 66, 0
3, 145920, Note_on_c, 1, 78, 100
3, 146400, Note_on_c, 1, 78, 0
3, 155520, Note_on_c, 1, 66, 100
3, 156000, Note_on_c, 1, 66, 0
3, 156480, Note_on_c, 1, 68, 100
3, 156960, Note_on_c, 1, 68, 0
3, 157440, Note_on_c, 1, 70, 100
3, 157920, Note_on_c, 1, 70, 0
3, 163200, Note_on_c, 1, 66, 100
3, 163680, Note_on_c, 1, 66, 0
3, 164160, Note_on_c, 1, 66, 100
3, 164640, Note_on_c, 1, 66, 0
3, 165120, Note_on_c, 1, 70, 100
3, 165600, Note_on_c, 1, 70, 0
3, 166560, Note_on_c, 1, 70, 100
3, 167040, Note_on_c, 1, 70, 0
3, 167040, Note_on_c, 1, 71, 100
3, 167520, Note_on_c, 1, 71, 0
3, 167520, Note_on_c, 1, 64, 100
3, 168000, Note_on_c, 1, 64, 0
3, 168000, Note_on_c, 1, 66, 100
3, 168480, Note_on_c, 1, 66, 0
3, 168480, Note_on_c, 1, 66, 100
3, 168960, Note_on_c, 1, 66, 0
3, 168960, Note_on_c, 1, 59, 100
3, 170400, Note_on_c, 1, 59, 0
3, 170400, Note_on_c, 1, 74, 100
3, 170880, Note_on_c, 1, 74, 0
3, 170880, Note_on_c, 1, 73, 100
3, 171360, Note_on_c, 1, 73, 0
3, 171360, Note_on_c, 1, 74, 100
3, 171840, Note_on_c, 1, 74, 0
3, 171840, Note_on_c, 1, 76, 100
3, 172320, Note_on_c, 1, 76, 0
3, 172320, Note_on_c, 1, 74, 100
3, 172800, Note_on_c, 1, 74, 0
3, 172800, Note_on_c, 1, 73, 100
3, 173280, Note_on_c, 1, 73, 0
3, 174240, Note_on_c, 1, 74, 100
3, 174720, Note_on_c, 1, 74, 0
3, 178560, Note_on_c, 1, 71, 100
3, 179040, Note_on_c, 1, 71, 0
3, 179040, Note_on_c, 1, 71, 100
3, 179520, Note_on_c, 1, 71, 0
3, 199200, Note_on_c, 1, 74, 100
3, 199680, Note_on_c, 1, 74, 0
3, 199680, Note_on_c, 1, 73, 100
3, 199920, Note_on_c, 1, 73, 0
3, 199920, Note_on_c, 1, 75, 100
3, 200160, Note_on_c, 1, 75, 0
3, 200160, Note_on_c, 1, 77, 100
3, 200400, Note_on_c, 1, 77, 0
3, 200400, Note_on_c, 1, 78, 100
3, 200640, Note_on_c, 1, 78, 0
3, 200640, Note_on_c, 1, 80, 100
3, 200880, Note_on_c, 1, 80, 0
3, 200880, Note_on_c, 1, 81, 100
3, 201120, Note_on_c, 1, 81, 0
3, 201120, Note_on_c, 1, 83, 100
3, 201360, Note_on_c, 1, 83, 0
3, 201360, Note_on_c, 1, 80, 100
3, 201600, Note_on_c, 1, 80, 0
3, 201600, Note_on_c, 1, 83, 100
3, 201840, Note_on_c, 1, 83, 0
3, 201840, Note_on_c, 1, 81, 100
3, 202080, Note_on_c, 1, 81, 0
3, 202080, Note_on_c, 1, 80, 100
3, 202320, Note_on_c, 1, 80, 0
3, 202320, Note_on_c, 1, 78, 100
3, 202560, Note_on_c, 1, 78, 0
3, 202560, Note_on_c, 1, 73, 100
3, 203040, Note_on_c, 1, 73, 0
3, 203040, Note_on_c, 1, 77, 100
3, 203520, Note_on_c, 1, 77, 0
3, 203520, Note_on_c, 1, 78, 100
3, 204000, Note_on_c, 1, 78, 0
3, 204000, Note_on_c, 1, 66, 100
3, 204240, Note_on_c, 1, 66, 0
3, 204240, Note_on_c, 1, 67, 100
3, 204480, Note_on_c, 1, 67, 0
3, 204480, Note_on_c, 1, 66, 100
3, 204720, Note_on_c, 1, 66, 0
3, 204720, Note_on_c, 1, 64, 100
3, 204960, Note_on_c, 1, 64, 0
3, 204960, Note_on_c, 1, 63, 100
3, 205200, Note_on_c, 1, 63, 0
3, 205200, Note_on_c, 1, 61, 100
3, 205440, Note_on_c, 1, 61, 0
3, 205440, Note_on_c, 1, 59, 100
3, 205920, Note_on_c, 1, 59, 0
3, 206400, Note_on_c, 1, 59, 100
3, 206880, Note_on_c, 1, 59, 0
3, 207360, Note_on_c, 1, 64, 100
3, 207840, Note_on_c, 1, 64, 0
3, 209280, Note_on_c, 1, 57, 100
3, 209760, Note_on_c, 1, 57, 0
3, 210240, Note_on_c, 1, 57, 100
3, 210720, Note_on_c, 1, 57, 0
3, 211200, Note_on_c, 1, 62, 100
3, 211680, Note_on_c, 1, 62, 0
3, 213120, Note_on_c, 1, 61, 100
3, 213600, Note_on_c, 1, 61, 0
3, 214080, Note_on_c, 1, 59, 100
3, 214560, Note_on_c, 1, 59, 0
3, 215040, Note_on_c, 1, 58, 100
3, 215520, Note_on_c, 1, 58, 0
3, 234240, Note_on_c, 1, 66, 100
3, 234720, Note_on_c, 1, 66, 0
3, 238080, Note_on_c, 1, 78, 100
3, 238560, Note_on_c, 1, 78, 0
3, 247680, Note_on_c, 1, 66, 100
3, 248160, Note_on_c, 1, 66, 0
3, 248640, Note_on_c, 1, 68, 100
3, 249120, Note_on_c, 1, 68, 0
3, 249600, Note_on_c, 1, 70, 100
3, 250080, Note_on_c, 1, 70, 0
3, 255360, Note_on_c, 1, 66, 100
3, 255840, Note_on_c, 1, 66, 0
3, 256320, Note_on_c, 1, 66, 100
3, 256800, Note_on_c, 1, 66, 0
3, 257280, Note_on_c, 1, 70, 100
3, 257760, Note_on_c, 1, 70, 0
3, 258720, Note_on_c, 1, 70, 100
3, 259200, Note_on_c, 1, 70, 0
3, 259200, Note_on_c, 1, 71, 100
3, 259680, Note_on_c, 1, 71, 0
3, 259680, Note_on_c, 1, 64, 100
3, 260160, Note_on_c, 1, 64, 0
3, 260160, Note_on_c, 1, 66, 100
3, 260640, Note_on_c, 1, 66, 0
3, 260640, Note_on_c, 1, 66, 100
3, 261120, Note_on_c, 1, 66, 0
3, 261120, Note_on_c, 1, 59, 100
3, 262560, Note_on_c, 1, 59, 0
3, 262560, End_track
4, 0, Start_track
4, 0, MIDI_port, 0
4, 0, Title_t, "Johann Sebastian Bach  (1685-1750)"
4, 0, Program_c, 2, 40
4, 0, Control_c, 2, 7, 100
4, 0, Control_c, 2, 10, 79
4, 1920, Note_on_c, 2, 66, 100
4, 2400, Note_on_c, 2, 66, 0
4, 2880, Note_on_c, 2, 66, 100
4, 3360, Note_on_c, 2, 66, 0
4, 3840, Note_on_c, 2, 70, 100
4, 4320, Note_on_c, 2, 70, 0
4, 5280, Note_on_c, 2, 64, 100
4, 5760, Note_on_c, 2, 64, 0
4, 5760, Note_on_c, 2, 62, 100
4, 6240, Note_on_c, 2, 62, 0
4, 6240, Note_on_c, 2, 64, 100
4, 6720, Note_on_c, 2, 64, 0
4, 6720, Note_on_c, 2, 66, 100
4, 7680, Note_on_c, 2, 66, 0
4, 7680, Note_on_c, 2, 59, 100
4, 8160, Note_on_c, 2, 59, 0
4, 10080, Note_on_c, 2, 59, 100
4, 10560, Note_on_c, 2, 59, 0
4, 10560, Note_on_c, 2, 59, 100
4, 11040, Note_on_c, 2, 59, 0
4, 11520, Note_on_c, 2, 57, 100
4, 12000, Note_on_c, 2, 57, 0
4, 13920, Note_on_c, 2, 57, 100
4, 14400, Note_on_c, 2, 57, 0
4, 14400, Note_on_c, 2, 57, 100
4, 14880, Note_on_c, 2, 57, 0
4, 15360, Note_on_c, 2, 55, 100
4, 15840, Note_on_c, 2, 55, 0
4, 23040, Note_on_c, 2, 59, 100
4, 23520, Note_on_c, 2, 59, 0
4, 24960, Note_on_c, 2, 57, 100
4, 25440, Note_on_c, 2, 57, 0
4, 26400, Note_on_c, 2, 57, 100
4, 26880, Note_on_c, 2, 57, 0
4, 26880, Note_on_c, 2, 55, 100
4, 27360, Note_on_c, 2, 55, 0
4, 37920, Note_on_c, 2, 57, 100
4, 38400, Note_on_c, 2, 57, 0
4, 38400, Note_on_c, 2, 62, 100
4, 39840, Note_on_c, 2, 62, 0
4, 40320, Note_on_c, 2, 66, 100
4, 40800, Note_on_c, 2, 66, 0
4, 41280, Note_on_c, 2, 66, 100
4, 41760, Note_on_c, 2, 66, 0
4, 42240, Note_on_c, 2, 70, 100
4, 42720, Note_on_c, 2, 70, 0
4, 43680, Note_on_c, 2, 64, 100
4, 44160, Note_on_c, 2, 64, 0
4, 44160, Note_on_c, 2, 62, 100
4, 44640, Note_on_c, 2, 62, 0
4, 44640, Note_on_c, 2, 64, 100
4, 45120, Note_on_c, 2, 64, 0
4, 45120, Note_on_c, 2, 66, 100
4, 46080, Note_on_c, 2, 66, 0
4, 46080, Note_on_c, 2, 59, 100
4, 46560, Note_on_c, 2, 59, 0
4, 48480, Note_on_c, 2, 59, 100
4, 48960, Note_on_c, 2, 59, 0
4, 48960, Note_on_c, 2, 59, 100
4, 49440, Note_on_c, 2, 59, 0
4, 49920, Note_on_c, 2, 57, 100
4, 50400, Note_on_c, 2, 57, 0
4, 52320, Note_on_c, 2, 57, 100
4, 52800, Note_on_c, 2, 57, 0
4, 52800, Note_on_c, 2, 57, 100
4, 53280, Note_on_c, 2, 57, 0
4, 53760, Note_on_c, 2, 55, 100
4, 54240, Note_on_c, 2, 55, 0
4, 61440, Note_on_c, 2, 59, 100
4, 61920, Note_on_c, 2, 59, 0
4, 63360, Note_on_c, 2, 57, 100
4, 63840, Note_on_c, 2, 57, 0
4, 64800, Note_on_c, 2, 57, 100
4, 65280, Note_on_c, 2, 57, 0
4, 65280, Note_on_c, 2, 55, 100
4, 65760, Note_on_c, 2, 55, 0
4, 76320, Note_on_c, 2, 57, 100
4, 76800, Note_on_c, 2, 57, 0
4, 76800, Note_on_c, 2, 62, 100
4, 78240, Note_on_c, 2, 62, 0
4, 78240, Note_on_c, 2, 62, 100
4, 78720, Note_on_c, 2, 62, 0
4, 78720, Note_on_c, 2, 69, 100
4, 79200, Note_on_c, 2, 69, 0
4, 79680, Note_on_c, 2, 69, 100
4, 80160, Note_on_c, 2, 69, 0
4, 80640, Note_on_c, 2, 69, 100
4, 81120, Note_on_c, 2, 69, 0
4, 82080, Note_on_c, 2, 66, 100
4, 82560, Note_on_c, 2, 66, 0
4, 82560, Note_on_c, 2, 64, 100
4, 83040, Note_on_c, 2, 64, 0
4, 83040, Note_on_c, 2, 66, 100
4, 83520, Note_on_c, 2, 66, 0
4, 83520, Note_on_c, 2, 67, 100
4, 84000, Note_on_c, 2, 67, 0
4, 84000, Note_on_c, 2, 66, 100
4, 84480, Note_on_c, 2, 66, 0
4, 84480, Note_on_c, 2, 64, 100
4, 84960, Note_on_c, 2, 64, 0
4, 84960, Note_on_c, 2, 64, 100
4, 85200, Note_on_c, 2, 64, 0
4, 85200, Note_on_c, 2, 62, 100
4, 85440, Note_on_c, 2, 62, 0
4, 85440, Note_on_c, 2, 64, 100
4, 85920, Note_on_c, 2, 64, 0
4, 85920, Note_on_c, 2, 66, 100
4, 86400, Note_on_c, 2, 66, 0
4, 86400, Note_on_c, 2, 67, 100
4, 86880, Note_on_c, 2, 67, 0
4, 87840, Note_on_c, 2, 69, 100
4, 88320, Note_on_c, 2, 69, 0
4, 88320, Note_on_c, 2, 67, 100
4, 88560, Note_on_c, 2, 67, 0
4, 88560, Note_on_c, 2, 66, 100
4, 88800, Note_on_c, 2, 66, 0
4, 88800, Note_on_c, 2, 67, 100
4, 89280, Note_on_c, 2, 67, 0
4, 89280, Note_on_c, 2, 67, 100
4, 89760, Note_on_c, 2, 67, 0
4, 89760, Note_on_c, 2, 76, 100
4, 90000, Note_on_c, 2, 76, 0
4, 90000, Note_on_c, 2, 75, 100
4, 90240, Note_on_c, 2, 75, 0
4, 90240, Note_on_c, 2, 76, 100
4, 90720, Note_on_c, 2, 76, 0
4, 90720, Note_on_c, 2, 76, 100
4, 91200, Note_on_c, 2, 76, 0
4, 93600, Note_on_c, 2, 71, 100
4, 94080, Note_on_c, 2, 71, 0
4, 94080, Note_on_c, 2, 73, 100
4, 94560, Note_on_c, 2, 73, 0
4, 94560, Note_on_c, 2, 79, 100
4, 95040, Note_on_c, 2, 79, 0
4, 95040, Note_on_c, 2, 73, 100
4, 95520, Note_on_c, 2, 73, 0
4, 95520, Note_on_c, 2, 79, 100
4, 96000, Note_on_c, 2, 79, 0
4, 96000, Note_on_c, 2, 79, 100
4, 96480, Note_on_c, 2, 79, 0
4, 96480, Note_on_c, 2, 78, 100
4, 96720, Note_on_c, 2, 78, 0
4, 96720, Note_on_c, 2, 76, 100
4, 96960, Note_on_c, 2, 76, 0
4, 96960, Note_on_c, 2, 78, 100
4, 97440, Note_on_c, 2, 78, 0
4, 97440, Note_on_c, 2, 83, 100
4, 97920, Note_on_c, 2, 83, 0
4, 97920, Note_on_c, 2, 73, 100
4, 98400, Note_on_c, 2, 73, 0
4, 98400, Note_on_c, 2, 83, 100
4, 98880, Note_on_c, 2, 83, 0
4, 98880, Note_on_c, 2, 73, 100
4, 99360, Note_on_c, 2, 73, 0
4, 99360, Note_on_c, 2, 81, 100
4, 99840, Note_on_c, 2, 81, 0
4, 99840, Note_on_c, 2, 80, 100
4, 100080, Note_on_c, 2, 80, 0
4, 100080, Note_on_c, 2, 78, 100
4, 100320, Note_on_c, 2, 78, 0
4, 100320, Note_on_c, 2, 77, 100
4, 100560, Note_on_c, 2, 77, 0
4, 100560, Note_on_c, 2, 75, 100
4, 100800, Note_on_c, 2, 75, 0
4, 100800, Note_on_c, 2, 73, 100
4, 101280, Note_on_c, 2, 73, 0
4, 101280, Note_on_c, 2, 85, 100
4, 101520, Note_on_c, 2, 85, 0
4, 101520, Note_on_c, 2, 83, 100
4, 101760, Note_on_c, 2, 83, 0
4, 101760, Note_on_c, 2, 85, 100
4, 102240, Note_on_c, 2, 85, 0
4, 102240, Note_on_c, 2, 76, 100
4, 102720, Note_on_c, 2, 76, 0
4, 102720, Note_on_c, 2, 76, 100
4, 103200, Note_on_c, 2, 76, 0
4, 103200, Note_on_c, 2, 85, 100
4, 103680, Note_on_c, 2, 85, 0
4, 103680, Note_on_c, 2, 76, 100
4, 104160, Note_on_c, 2, 76, 0
4, 104160, Note_on_c, 2, 74, 100
4, 104400, Note_on_c, 2, 74, 0
4, 104400, Note_on_c, 2, 73, 100
4, 104640, Note_on_c, 2, 73, 0
4, 104640, Note_on_c, 2, 74, 100
4, 105120, Note_on_c, 2, 74, 0
4, 105120, Note_on_c, 2, 83, 100
4, 105360, Note_on_c, 2, 83, 0
4, 105360, Note_on_c, 2, 82, 100
4, 105600, Note_on_c, 2, 82, 0
4, 105600, Note_on_c, 2, 83, 100
4, 106080, Note_on_c, 2, 83, 0
4, 106080, Note_on_c, 2, 74, 100
4, 106560, Note_on_c, 2, 74, 0
4, 106560, Note_on_c, 2, 74, 100
4, 107040, Note_on_c, 2, 74, 0
4, 107040, Note_on_c, 2, 83, 100
4, 107520, Note_on_c, 2, 83, 0
4, 109440, Note_on_c, 2, 73, 100
4, 109920, Note_on_c, 2, 73, 0
4, 114240, Note_on_c, 2, 66, 100
4, 114720, Note_on_c, 2, 66, 0
4, 115200, Note_on_c, 2, 71, 100
4, 115680, Note_on_c, 2, 71, 0
4, 118080, Note_on_c, 2, 64, 100
4, 118560, Note_on_c, 2, 64, 0
4, 119040, Note_on_c, 2, 69, 100
4, 119520, Note_on_c, 2, 69, 0
4, 142080, Note_on_c, 2, 59, 100
4, 142560, Note_on_c, 2, 59, 0
4, 143520, Note_on_c, 2, 59, 100
4, 143760, Note_on_c, 2, 59, 0
4, 143760, Note_on_c, 2, 57, 100
4, 144000, Note_on_c, 2, 57, 0
4, 144000, Note_on_c, 2, 55, 100
4, 144480, Note_on_c, 2, 55, 0
4, 145920, Note_on_c, 2, 62, 100
4, 146400, Note_on_c, 2, 62, 0
4, 163200, Note_on_c, 2, 74, 100
4, 163680, Note_on_c, 2, 74, 0
4, 164160, Note_on_c, 2, 74, 100
4, 164640, Note_on_c, 2, 74, 0
4, 165120, Note_on_c, 2, 73, 100
4, 165600, Note_on_c, 2, 73, 0
4, 166560, Note_on_c, 2, 76, 100
4, 167040, Note_on_c, 2, 76, 0
4, 168960, Note_on_c, 2, 66, 100
4, 170400, Note_on_c, 2, 66, 0
4, 170400, Note_on_c, 2, 62, 100
4, 170880, Note_on_c, 2, 62, 0
4, 170880, Note_on_c, 2, 69, 100
4, 171360, Note_on_c, 2, 69, 0
4, 171840, Note_on_c, 2, 69, 100
4, 172320, Note_on_c, 2, 69, 0
4, 172800, Note_on_c, 2, 69, 100
4, 173280, Note_on_c, 2, 69, 0
4, 174240, Note_on_c, 2, 66, 100
4, 174720, Note_on_c, 2, 66, 0
4, 174720, Note_on_c, 2, 64, 100
4, 175200, Note_on_c, 2, 64, 0
4, 175200, Note_on_c, 2, 66, 100
4, 175680, Note_on_c, 2, 66, 0
4, 175680, Note_on_c, 2, 67, 100
4, 176160, Note_on_c, 2, 67, 0
4, 176160, Note_on_c, 2, 66, 100
4, 176640, Note_on_c, 2, 66, 0
4, 176640, Note_on_c, 2, 64, 100
4, 177120, Note_on_c, 2, 64, 0
4, 177120, Note_on_c, 2, 64, 100
4, 177360, Note_on_c, 2, 64, 0
4, 177360, Note_on_c, 2, 62, 100
4, 177600, Note_on_c, 2, 62, 0
4, 177600, Note_on_c, 2, 64, 100
4, 178080, Note_on_c, 2, 64, 0
4, 178080, Note_on_c, 2, 66, 100
4, 178560, Note_on_c, 2, 66, 0
4, 178560, Note_on_c, 2, 67, 100
4, 179040, Note_on_c, 2, 67, 0
4, 180000, Note_on_c, 2, 69, 100
4, 180480, Note_on_c, 2, 69, 0
4, 180480, Note_on_c, 2, 67, 100
4, 180720, Note_on_c, 2, 67, 0
4, 180720, Note_on_c, 2, 66, 100
4, 180960, Note_on_c, 2, 66, 0
4, 180960, Note_on_c, 2, 67, 100
4, 181440, Note_on_c, 2, 67, 0
4, 181440, Note_on_c, 2, 67, 100
4, 181920, Note_on_c, 2, 67, 0
4, 181920, Note_on_c, 2, 76, 100
4, 182160, Note_on_c, 2, 76, 0
4, 182160, Note_on_c, 2, 75, 100
4, 182400, Note_on_c, 2, 75, 0
4, 182400, Note_on_c, 2, 76, 100
4, 182880, Note_on_c, 2, 76, 0
4, 182880, Note_on_c, 2, 76, 100
4, 183360, Note_on_c, 2, 76, 0
4, 185760, Note_on_c, 2, 71, 100
4, 186240, Note_on_c, 2, 71, 0
4, 186240, Note_on_c, 2, 73, 100
4, 186720, Note_on_c, 2, 73, 0
4, 186720, Note_on_c, 2, 79, 100
4, 187200, Note_on_c, 2, 79, 0
4, 187200, Note_on_c, 2, 73, 100
4, 187680, Note_on_c, 2, 73, 0
4, 187680, Note_on_c, 2, 79, 100
4, 188160, Note_on_c, 2, 79, 0
4, 188160, Note_on_c, 2, 79, 100
4, 188640, Note_on_c, 2, 79, 0
4, 188640, Note_on_c, 2, 78, 100
4, 188880, Note_on_c, 2, 78, 0
4, 188880, Note_on_c, 2, 76, 100
4, 189120, Note_on_c, 2, 76, 0
4, 189120, Note_on_c, 2, 78, 100
4, 189600, Note_on_c, 2, 78, 0
4, 189600, Note_on_c, 2, 83, 100
4, 190080, Note_on_c, 2, 83, 0
4, 190080, Note_on_c, 2, 73, 100
4, 190560, Note_on_c, 2, 73, 0
4, 190560, Note_on_c, 2, 83, 100
4, 191040, Note_on_c, 2, 83, 0
4, 191040, Note_on_c, 2, 73, 100
4, 191520, Note_on_c, 2, 73, 0
4, 191520, Note_on_c, 2, 81, 100
4, 192000, Note_on_c, 2, 81, 0
4, 192000, Note_on_c, 2, 80, 100
4, 192240, Note_on_c, 2, 80, 0
4, 192240, Note_on_c, 2, 78, 100
4, 192480, Note_on_c, 2, 78, 0
4, 192480, Note_on_c, 2, 77, 100
4, 192720, Note_on_c, 2, 77, 0
4, 192720, Note_on_c, 2, 75, 100
4, 192960, Note_on_c, 2, 75, 0
4, 192960, Note_on_c, 2, 73, 100
4, 193440, Note_on_c, 2, 73, 0
4, 193440, Note_on_c, 2, 85, 100
4, 193680, Note_on_c, 2, 85, 0
4, 193680, Note_on_c, 2, 83, 100
4, 193920, Note_on_c, 2, 83, 0
4, 193920, Note_on_c, 2, 85, 100
4, 194400, Note_on_c, 2, 85, 0
4, 194400, Note_on_c, 2, 76, 100
4, 194880, Note_on_c, 2, 76, 0
4, 194880, Note_on_c, 2, 76, 100
4, 195360, Note_on_c, 2, 76, 0
4, 195360, Note_on_c, 2, 85, 100
4, 195840, Note_on_c, 2, 85, 0
4, 195840, Note_on_c, 2, 76, 100
4, 196320, Note_on_c, 2, 76, 0
4, 196320, Note_on_c, 2, 74, 100
4, 196560, Note_on_c, 2, 74, 0
4, 196560, Note_on_c, 2, 73, 100
4, 196800, Note_on_c, 2, 73, 0
4, 196800, Note_on_c, 2, 74, 100
4, 197280, Note_on_c, 2, 74, 0
4, 197280, Note_on_c, 2, 83, 100
4, 197520, Note_on_c, 2, 83, 0
4, 197520, Note_on_c, 2, 82, 100
4, 197760, Note_on_c, 2, 82, 0
4, 197760, Note_on_c, 2, 83, 100
4, 198240, Note_on_c, 2, 83, 0
4, 198240, Note_on_c, 2, 74, 100
4, 198720, Note_on_c, 2, 74, 0
4, 198720, Note_on_c, 2, 74, 100
4, 199200, Note_on_c, 2, 74, 0
4, 199200, Note_on_c, 2, 83, 100
4, 199680, Note_on_c, 2, 83, 0
4, 201600, Note_on_c, 2, 73, 100
4, 202080, Note_on_c, 2, 73, 0
4, 206400, Note_on_c, 2, 66, 100
4, 206880, Note_on_c, 2, 66, 0
4, 207360, Note_on_c, 2, 71, 100
4, 207840, Note_on_c, 2, 71, 0
4, 210240, Note_on_c, 2, 64, 100
4, 210720, Note_on_c, 2, 64, 0
4, 211200, Note_on_c, 2, 69, 100
4, 211680, Note_on_c, 2, 69, 0
4, 234240, Note_on_c, 2, 59, 100
4, 234720, Note_on_c, 2, 59, 0
4, 235680, Note_on_c, 2, 59, 100
4, 235920, Note_on_c, 2, 59, 0
4, 235920, Note_on_c, 2, 57, 100
4, 236160, Note_on_c, 2, 57, 0
4, 236160, Note_on_c, 2, 55, 100
4, 236640, Note_on_c, 2, 55, 0
4, 238080, Note_on_c, 2, 62, 100
4, 238560, Note_on_c, 2, 62, 0
4, 255360, Note_on_c, 2, 74, 100
4, 255840, Note_on_c, 2, 74, 0
4, 256320, Note_on_c, 2, 74, 100
4, 256800, Note_on_c, 2, 74, 0
4, 257280, Note_on_c, 2, 73, 100
4, 257760, Note_on_c, 2, 73, 0
4, 258720, Note_on_c, 2, 76, 100
4, 259200, Note_on_c, 2, 76, 0
4, 261120, Note_on_c, 2, 66, 100
4, 262560, Note_on_c, 2, 66, 0
4, 262560, End_track
5, 0, Start_track
5, 0, MIDI_port, 0
5, 0, Title_t, "Six Sonatas and Partitas for Solo Violin"
5, 0, Program_c, 3, 40
5, 0, Control_c, 3, 7, 100
5, 0, Control_c, 3, 10, 49
5, 1920, Note_on_c, 3, 59, 100
5, 2400, Note_on_c, 3, 59, 0
5, 2880, Note_on_c, 3, 59, 100
5, 3360, Note_on_c, 3, 59, 0
5, 40320, Note_on_c, 3, 59, 100
5, 40800, Note_on_c, 3, 59, 0
5, 41280, Note_on_c, 3, 59, 100
5, 41760, Note_on_c, 3, 59, 0
5, 82080, Note_on_c, 3, 57, 100
5, 82560, Note_on_c, 3, 57, 0
5, 82560, Note_on_c, 3, 57, 100
5, 83040, Note_on_c, 3, 57, 0
5, 83520, Note_on_c, 3, 57, 100
5, 84000, Note_on_c, 3, 57, 0
5, 84480, Note_on_c, 3, 57, 100
5, 84960, Note_on_c, 3, 57, 0
5, 86400, Note_on_c, 3, 55, 100
5, 86880, Note_on_c, 3, 55, 0
5, 87360, Note_on_c, 3, 59, 100
5, 87840, Note_on_c, 3, 59, 0
5, 88320, Note_on_c, 3, 60, 100
5, 88800, Note_on_c, 3, 60, 0
5, 90720, Note_on_c, 3, 67, 100
5, 91200, Note_on_c, 3, 67, 0
5, 91200, Note_on_c, 3, 71, 100
5, 92160, Note_on_c, 3, 71, 0
5, 92160, Note_on_c, 3, 64, 100
5, 92640, Note_on_c, 3, 64, 0
5, 92640, Note_on_c, 3, 66, 100
5, 93120, Note_on_c, 3, 66, 0
5, 93120, Note_on_c, 3, 67, 100
5, 93600, Note_on_c, 3, 67, 0
5, 93600, Note_on_c, 3, 64, 100
5, 94080, Note_on_c, 3, 64, 0
5, 94080, Note_on_c, 3, 69, 100
5, 94560, Note_on_c, 3, 69, 0
5, 95040, Note_on_c, 3, 69, 100
5, 95520, Note_on_c, 3, 69, 0
5, 96000, Note_on_c, 3, 69, 100
5, 96960, Note_on_c, 3, 69, 0
5, 163200, Note_on_c, 3, 83, 100
5, 163680, Note_on_c, 3, 83, 0
5, 163680, Note_on_c, 3, 78, 100
5, 164160, Note_on_c, 3, 78, 0
5, 164160, Note_on_c, 3, 83, 100
5, 164640, Note_on_c, 3, 83, 0
5, 164640, Note_on_c, 3, 78, 100
5, 165120, Note_on_c, 3, 78, 0
5, 165120, Note_on_c, 3, 79, 100
5, 165600, Note_on_c, 3, 79, 0
5, 165600, Note_on_c, 3, 79, 100
5, 165840, Note_on_c, 3, 79, 0
5, 165840, Note_on_c, 3, 78, 100
5, 166080, Note_on_c, 3, 78, 0
5, 166080, Note_on_c, 3, 76, 100
5, 166560, Note_on_c, 3, 76, 0
5, 166560, Note_on_c, 3, 79, 100
5, 167040, Note_on_c, 3, 79, 0
5, 167040, Note_on_c, 3, 78, 100
5, 167520, Note_on_c, 3, 78, 0
5, 167520, Note_on_c, 3, 76, 100
5, 168000, Note_on_c, 3, 76, 0
5, 168000, Note_on_c, 3, 74, 100
5, 168480, Note_on_c, 3, 74, 0
5, 168480, Note_on_c, 3, 76, 100
5, 168720, Note_on_c, 3, 76, 0
5, 168720, Note_on_c, 3, 73, 100
5, 168960, Note_on_c, 3, 73, 0
5, 168960, Note_on_c, 3, 71, 100
5, 170400, Note_on_c, 3, 71, 0
5, 174240, Note_on_c, 3, 57, 100
5, 174720, Note_on_c, 3, 57, 0
5, 174720, Note_on_c, 3, 57, 100
5, 175200, Note_on_c, 3, 57, 0
5, 175680, Note_on_c, 3, 57, 100
5, 176160, Note_on_c, 3, 57, 0
5, 176640, Note_on_c, 3, 57, 100
5, 177120, Note_on_c, 3, 57, 0
5, 178560, Note_on_c, 3, 55, 100
5, 179040, Note_on_c, 3, 55, 0
5, 179520, Note_on_c, 3, 59, 100
5, 180000, Note_on_c, 3, 59, 0
5, 180480, Note_on_c, 3, 60, 100
5, 180960, Note_on_c, 3, 60, 0
5, 182880, Note_on_c, 3, 67, 100
5, 183360, Note_on_c, 3, 67, 0
5, 183360, Note_on_c, 3, 71, 100
5, 184320, Note_on_c, 3, 71, 0
5, 184320, Note_on_c, 3, 64, 100
5, 184800, Note_on_c, 3, 64, 0
5, 184800, Note_on_c, 3, 66, 100
5, 185280, Note_on_c, 3, 66, 0
5, 185280, Note_on_c, 3, 67, 100
5, 185760, Note_on_c, 3, 67, 0
5, 185760, Note_on_c, 3, 64, 100
5, 186240, Note_on_c, 3, 64, 0
5, 186240, Note_on_c, 3, 69, 100
5, 186720, Note_on_c, 3, 69, 0
5, 187200, Note_on_c, 3, 69, 100
5, 187680, Note_on_c, 3, 69, 0
5, 188160, Note_on_c, 3, 69, 100
5, 189120, Note_on_c, 3, 69, 0
5, 255360, Note_on_c, 3, 83, 100
5, 255840, Note_on_c, 3, 83, 0
5, 255840, Note_on_c, 3, 78, 100
5, 256320, Note_on_c, 3, 78, 0
5, 256320, Note_on_c, 3, 83, 100
5, 256800, Note_on_c, 3, 83, 0
5, 256800, Note_on_c, 3, 78, 100
5, 257280, Note_on_c, 3, 78, 0
5, 257280, Note_on_c, 3, 79, 100
5, 257760, Note_on_c, 3, 79, 0
5, 257760, Note_on_c, 3, 79, 100
5, 258000, Note_on_c, 3, 79, 0
5, 258000, Note_on_c, 3, 78, 100
5, 258240, Note_on_c, 3, 78, 0
5, 258240, Note_on_c, 3, 76, 100
5, 258720, Note_on_c, 3, 76, 0
5, 258720, Note_on_c, 3, 79, 100
5, 259200, Note_on_c, 3, 79, 0
5, 259200, Note_on_c, 3, 78, 100
5, 259680, Note_on_c, 3, 78, 0
5, 259680, Note_on_c, 3, 76, 100
5, 260160, Note_on_c, 3, 76, 0
5, 260160, Note_on_c, 3, 74, 100
5, 260640, Note_on_c, 3, 74, 0
5, 260640, Note_on_c, 3, 76, 100
5, 260880, Note_on_c, 3, 76, 0
5, 260880, Note_on_c, 3, 73, 100
5, 261120, Note_on_c, 3, 73, 0
5, 261120, Note_on_c, 3, 71, 100
5, 262560, Note_on_c, 3, 71, 0
5, 262560, End_track
6, 0, Start_track
6, 0, MIDI_port, 0
6, 0, Title_t, "--------------------------------------"
6, 0, End_track
7, 0, Start_track
7, 0, MIDI_port, 0
7, 0, Title_t, "Partita No. 1 in B minor - BWV 1002"
7, 0, End_track
8, 0, Start_track
8, 0, MIDI_port, 0
8, 0, Title_t, "7th Movement: Tempo di Borea"
8, 0, End_track
9, 0, Start_track
9, 0, MIDI_port, 0
9, 0, Title_t, "--------------------------------------"
9, 0, End_track
10, 0, Start_track
10, 0, MIDI_port, 0
10, 0, Title_t, "Sequenced with Cakewalk Pro Audio by"
10, 0, End_track
11, 0, Start_track
11, 0, MIDI_port, 0
11, 0, Title_t, "David J. Grossman - dave@unpronounceable.com"
11, 0, End_track
12, 0, Start_track
12, 0, MIDI_port, 0
12, 0, Title_t, "This and other Bach MIDI files can be found at:"
12, 0, End_track
13, 0, Start_track
13, 0, MIDI_port, 0
13, 0, Title_t, "Dave's J.S. Bach Page"
13, 0, End_track
14, 0, Start_track
14, 0, MIDI_port, 0
14, 0, Title_t, "http://www.unpronounceable.com/bach"
14, 0, End_track
15, 0, Start_track
15, 0, MIDI_port, 0
15, 0, Title_t, "--------------------------------------"
15, 0, End_track
16, 0, Start_track
16, 0, MIDI_port, 0
16, 0, Title_t, "Original Filename: vp1-7tb.mid"
16, 0, End_track
17, 0, Start_track
17, 0, MIDI_port, 0
17, 0, Title_t, "Last Modified: February 22, 1997"
17, 0, End_track
0, 0, End_of_file
