0, 0, Header, 1, 17, 480
1, 0, Start_track
1, 0, Title_t, "untitled"
1, 0, SMPTE_offset, 96, 0, 3, 0, 0
1, 0, Time_signature, 4, 2, 24, 8
1, 0, Key_signature, -1, "major"
1, 0, Tempo, 272727
1, 1792, Tempo, 967742
1, 1920, Marker_t, "A"
1, 32640, Marker_t, "A'"
1, 63360, Marker_t, "B"
1, 94080, Marker_t, "B'"
1, 123840, Tempo, 2222222
1, 123840, End_track
2, 0, Start_track
2, 0, MIDI_port, 0
2, 0, Title_t, "Solo Violin"
2, 0, Program_c, 0, 40
2, 0, Control_c, 0, 7, 100
2, 0, Control_c, 0, 10, 64
2, 1920, Note_on_c, 0, 62, 100
2, 2280, Note_on_c, 0, 62, 0
2, 2280, Note_on_c, 0, 64, 100
2, 2400, Note_on_c, 0, 64, 0
2, 2400, Note_on_c, 0, 65, 100
2, 2520, Note_on_c, 0, 65, 0
2, 2520, Note_on_c, 0, 67, 100
2, 2640, Note_on_c, 0, 67, 0
2, 2640, Note_on_c, 0, 69, 100
2, 2760, Note_on_c, 0, 69, 0
2, 2760, Note_on_c, 0, 70, 100
2, 2880, Note_on_c, 0, 70, 0
2, 2880, Note_on_c, 0, 61, 100
2, 3000, Note_on_c, 0, 61, 0
2, 3000, Note_on_c, 0, 70, 100
2, 3120, Note_on_c, 0, 70, 0
2, 3120, Note_on_c, 0, 69, 100
2, 3240, Note_on_c, 0, 69, 0
2, 3240, Note_on_c, 0, 67, 100
2, 3360, Note_on_c, 0, 67, 0
2, 3360, Note_on_c, 0, 76, 100
2, 3720, Note_on_c, 0, 76, 0
2, 3720, Note_on_c, 0, 67, 100
2, 3840, Note_on_c, 0, 67, 0
2, 3840, Note_on_c, 0, 65, 100
2, 3960, Note_on_c, 0, 65, 0
2, 3960, Note_on_c, 0, 61, 100
2, 4080, Note_on_c, 0, 61, 0
2, 4080, Note_on_c, 0, 62, 100
2, 4200, Note_on_c, 0, 62, 0
2, 4200, Note_on_c, 0, 57, 100
2, 4320, Note_on_c, 0, 57, 0
2, 4320, Note_on_c, 0, 58, 100
2, 4440, Note_on_c, 0, 58, 0
2, 4440, Note_on_c, 0, 62, 100
2, 4560, Note_on_c, 0, 62, 0
2, 4560, Note_on_c, 0, 65, 100
2, 4680, Note_on_c, 0, 65, 0
2, 4680, Note_on_c, 0, 67, 100
2, 4800, Note_on_c, 0, 67, 0
2, 4800, Note_on_c, 0, 61, 100
2, 4920, Note_on_c, 0, 61, 0
2, 4920, Note_on_c, 0, 57, 100
2, 5040, Note_on_c, 0, 57, 0
2, 5040, Note_on_c, 0, 61, 100
2, 5160, Note_on_c, 0, 61, 0
2, 5160, Note_on_c, 0, 64, 100
2, 5280, Note_on_c, 0, 64, 0
2, 5280, Note_on_c, 0, 69, 100
2, 5360, Note_on_c, 0, 69, 0
2, 5360, Note_on_c, 0, 67, 100
2, 5440, Note_on_c, 0, 67, 0
2, 5440, Note_on_c, 0, 65, 100
2, 5520, Note_on_c, 0, 65, 0
2, 5520, Note_on_c, 0, 67, 100
2, 5600, Note_on_c, 0, 67, 0
2, 5600, Note_on_c, 0, 65, 100
2, 5680, Note_on_c, 0, 65, 0
2, 5680, Note_on_c, 0, 64, 100
2, 5760, Note_on_c, 0, 64, 0
2, 5760, Note_on_c, 0, 65, 100
2, 5880, Note_on_c, 0, 65, 0
2, 5880, Note_on_c, 0, 62, 100
2, 6000, Note_on_c, 0, 62, 0
2, 6000, Note_on_c, 0, 65, 100
2, 6120, Note_on_c, 0, 65, 0
2, 6120, Note_on_c, 0, 69, 100
2, 6240, Note_on_c, 0, 69, 0
2, 6240, Note_on_c, 0, 70, 100
2, 6320, Note_on_c, 0, 70, 0
2, 6320, Note_on_c, 0, 69, 100
2, 6400, Note_on_c, 0, 69, 0
2, 6400, Note_on_c, 0, 67, 100
2, 6480, Note_on_c, 0, 67, 0
2, 6480, Note_on_c, 0, 69, 100
2, 6560, Note_on_c, 0, 69, 0
2, 6560, Note_on_c, 0, 67, 100
2, 6640, Note_on_c, 0, 67, 0
2, 6640, Note_on_c, 0, 65, 100
2, 6720, Note_on_c, 0, 65, 0
2, 6720, Note_on_c, 0, 64, 100
2, 6840, Note_on_c, 0, 64, 0
2, 6840, Note_on_c, 0, 67, 100
2, 6960, Note_on_c, 0, 67, 0
2, 6960, Note_on_c, 0, 70, 100
2, 7080, Note_on_c, 0, 70, 0
2, 7080, Note_on_c, 0, 74, 100
2, 7200, Note_on_c, 0, 74, 0
2, 7200, Note_on_c, 0, 72, 100
2, 7280, Note_on_c, 0, 72, 0
2, 7280, Note_on_c, 0, 70, 100
2, 7360, Note_on_c, 0, 70, 0
2, 7360, Note_on_c, 0, 69, 100
2, 7440, Note_on_c, 0, 69, 0
2, 7440, Note_on_c, 0, 70, 100
2, 7520, Note_on_c, 0, 70, 0
2, 7520, Note_on_c, 0, 69, 100
2, 7600, Note_on_c, 0, 69, 0
2, 7600, Note_on_c, 0, 67, 100
2, 7680, Note_on_c, 0, 67, 0
2, 7680, Note_on_c, 0, 69, 100
2, 7800, Note_on_c, 0, 69, 0
2, 7800, Note_on_c, 0, 65, 100
2, 7920, Note_on_c, 0, 65, 0
2, 7920, Note_on_c, 0, 69, 100
2, 8040, Note_on_c, 0, 69, 0
2, 8040, Note_on_c, 0, 72, 100
2, 8160, Note_on_c, 0, 72, 0
2, 8160, Note_on_c, 0, 77, 100
2, 8280, Note_on_c, 0, 77, 0
2, 8280, Note_on_c, 0, 79, 100
2, 8400, Note_on_c, 0, 79, 0
2, 8400, Note_on_c, 0, 81, 100
2, 8520, Note_on_c, 0, 81, 0
2, 8520, Note_on_c, 0, 72, 100
2, 8640, Note_on_c, 0, 72, 0
2, 8640, Note_on_c, 0, 74, 100
2, 8760, Note_on_c, 0, 74, 0
2, 8760, Note_on_c, 0, 69, 100
2, 8880, Note_on_c, 0, 69, 0
2, 8880, Note_on_c, 0, 70, 100
2, 9000, Note_on_c, 0, 70, 0
2, 9000, Note_on_c, 0, 74, 100
2, 9120, Note_on_c, 0, 74, 0
2, 9120, Note_on_c, 0, 79, 100
2, 9240, Note_on_c, 0, 79, 0
2, 9240, Note_on_c, 0, 81, 100
2, 9360, Note_on_c, 0, 81, 0
2, 9360, Note_on_c, 0, 82, 100
2, 9480, Note_on_c, 0, 82, 0
2, 9480, Note_on_c, 0, 74, 100
2, 9600, Note_on_c, 0, 74, 0
2, 9600, Note_on_c, 0, 76, 100
2, 9720, Note_on_c, 0, 76, 0
2, 9720, Note_on_c, 0, 70, 100
2, 9840, Note_on_c, 0, 70, 0
2, 9840, Note_on_c, 0, 72, 100
2, 9960, Note_on_c, 0, 72, 0
2, 9960, Note_on_c, 0, 67, 100
2, 10080, Note_on_c, 0, 67, 0
2, 10080, Note_on_c, 0, 69, 100
2, 10200, Note_on_c, 0, 69, 0
2, 10200, Note_on_c, 0, 70, 100
2, 10320, Note_on_c, 0, 70, 0
2, 10320, Note_on_c, 0, 72, 100
2, 10440, Note_on_c, 0, 72, 0
2, 10440, Note_on_c, 0, 64, 100
2, 10560, Note_on_c, 0, 64, 0
2, 10560, Note_on_c, 0, 65, 100
2, 10680, Note_on_c, 0, 65, 0
2, 10680, Note_on_c, 0, 57, 100
2, 10800, Note_on_c, 0, 57, 0
2, 10800, Note_on_c, 0, 58, 100
2, 10920, Note_on_c, 0, 58, 0
2, 10920, Note_on_c, 0, 67, 100
2, 11040, Note_on_c, 0, 67, 0
2, 11040, Note_on_c, 0, 60, 100
2, 11160, Note_on_c, 0, 60, 0
2, 11160, Note_on_c, 0, 64, 100
2, 11280, Note_on_c, 0, 64, 0
2, 11280, Note_on_c, 0, 67, 100
2, 11400, Note_on_c, 0, 67, 0
2, 11400, Note_on_c, 0, 70, 100
2, 11520, Note_on_c, 0, 70, 0
2, 11520, Note_on_c, 0, 69, 100
2, 11640, Note_on_c, 0, 69, 0
2, 11640, Note_on_c, 0, 67, 100
2, 11760, Note_on_c, 0, 67, 0
2, 11760, Note_on_c, 0, 65, 100
2, 11880, Note_on_c, 0, 65, 0
2, 11880, Note_on_c, 0, 69, 100
2, 12000, Note_on_c, 0, 69, 0
2, 12000, Note_on_c, 0, 74, 100
2, 12120, Note_on_c, 0, 74, 0
2, 12120, Note_on_c, 0, 65, 100
2, 12240, Note_on_c, 0, 65, 0
2, 12240, Note_on_c, 0, 64, 100
2, 12360, Note_on_c, 0, 64, 0
2, 12360, Note_on_c, 0, 62, 100
2, 12480, Note_on_c, 0, 62, 0
2, 12480, Note_on_c, 0, 61, 100
2, 12600, Note_on_c, 0, 61, 0
2, 12600, Note_on_c, 0, 76, 100
2, 12720, Note_on_c, 0, 76, 0
2, 12720, Note_on_c, 0, 77, 100
2, 12840, Note_on_c, 0, 77, 0
2, 12840, Note_on_c, 0, 79, 100
2, 12960, Note_on_c, 0, 79, 0
2, 12960, Note_on_c, 0, 69, 100
2, 13080, Note_on_c, 0, 69, 0
2, 13080, Note_on_c, 0, 79, 100
2, 13200, Note_on_c, 0, 79, 0
2, 13200, Note_on_c, 0, 77, 100
2, 13320, Note_on_c, 0, 77, 0
2, 13320, Note_on_c, 0, 76, 100
2, 13440, Note_on_c, 0, 76, 0
2, 13440, Note_on_c, 0, 77, 100
2, 13560, Note_on_c, 0, 77, 0
2, 13560, Note_on_c, 0, 76, 100
2, 13680, Note_on_c, 0, 76, 0
2, 13680, Note_on_c, 0, 74, 100
2, 13800, Note_on_c, 0, 74, 0
2, 13800, Note_on_c, 0, 64, 100
2, 13920, Note_on_c, 0, 64, 0
2, 13920, Note_on_c, 0, 62, 100
2, 14040, Note_on_c, 0, 62, 0
2, 14040, Note_on_c, 0, 60, 100
2, 14160, Note_on_c, 0, 60, 0
2, 14160, Note_on_c, 0, 59, 100
2, 14280, Note_on_c, 0, 59, 0
2, 14280, Note_on_c, 0, 57, 100
2, 14400, Note_on_c, 0, 57, 0
2, 14400, Note_on_c, 0, 56, 100
2, 14520, Note_on_c, 0, 56, 0
2, 14520, Note_on_c, 0, 71, 100
2, 14640, Note_on_c, 0, 71, 0
2, 14640, Note_on_c, 0, 72, 100
2, 14760, Note_on_c, 0, 72, 0
2, 14760, Note_on_c, 0, 74, 100
2, 14880, Note_on_c, 0, 74, 0
2, 14880, Note_on_c, 0, 64, 100
2, 15000, Note_on_c, 0, 64, 0
2, 15000, Note_on_c, 0, 74, 100
2, 15120, Note_on_c, 0, 74, 0
2, 15120, Note_on_c, 0, 72, 100
2, 15240, Note_on_c, 0, 72, 0
2, 15240, Note_on_c, 0, 71, 100
2, 15360, Note_on_c, 0, 71, 0
2, 15360, Note_on_c, 0, 72, 100
2, 15480, Note_on_c, 0, 72, 0
2, 15480, Note_on_c, 0, 71, 100
2, 15600, Note_on_c, 0, 71, 0
2, 15600, Note_on_c, 0, 69, 100
2, 15720, Note_on_c, 0, 69, 0
2, 15720, Note_on_c, 0, 71, 100
2, 15840, Note_on_c, 0, 71, 0
2, 15840, Note_on_c, 0, 72, 100
2, 15960, Note_on_c, 0, 72, 0
2, 15960, Note_on_c, 0, 77, 100
2, 16020, Note_on_c, 0, 77, 0
2, 16020, Note_on_c, 0, 76, 100
2, 16080, Note_on_c, 0, 76, 0
2, 16080, Note_on_c, 0, 74, 100
2, 16200, Note_on_c, 0, 74, 0
2, 16200, Note_on_c, 0, 72, 100
2, 16320, Note_on_c, 0, 72, 0
2, 16320, Note_on_c, 0, 71, 100
2, 16440, Note_on_c, 0, 71, 0
2, 16440, Note_on_c, 0, 69, 100
2, 16560, Note_on_c, 0, 69, 0
2, 16560, Note_on_c, 0, 67, 100
2, 16680, Note_on_c, 0, 67, 0
2, 16680, Note_on_c, 0, 69, 100
2, 16800, Note_on_c, 0, 69, 0
2, 16800, Note_on_c, 0, 71, 100
2, 16920, Note_on_c, 0, 71, 0
2, 16920, Note_on_c, 0, 76, 100
2, 16980, Note_on_c, 0, 76, 0
2, 16980, Note_on_c, 0, 74, 100
2, 17040, Note_on_c, 0, 74, 0
2, 17040, Note_on_c, 0, 72, 100
2, 17160, Note_on_c, 0, 72, 0
2, 17160, Note_on_c, 0, 71, 100
2, 17280, Note_on_c, 0, 71, 0
2, 17280, Note_on_c, 0, 69, 100
2, 17400, Note_on_c, 0, 69, 0
2, 17400, Note_on_c, 0, 67, 100
2, 17520, Note_on_c, 0, 67, 0
2, 17520, Note_on_c, 0, 65, 100
2, 17640, Note_on_c, 0, 65, 0
2, 17640, Note_on_c, 0, 67, 100
2, 17700, Note_on_c, 0, 67, 0
2, 17700, Note_on_c, 0, 69, 100
2, 17760, Note_on_c, 0, 69, 0
2, 17760, Note_on_c, 0, 62, 100
2, 17880, Note_on_c, 0, 62, 0
2, 17880, Note_on_c, 0, 72, 100
2, 18000, Note_on_c, 0, 72, 0
2, 18000, Note_on_c, 0, 71, 100
2, 18120, Note_on_c, 0, 71, 0
2, 18120, Note_on_c, 0, 69, 100
2, 18240, Note_on_c, 0, 69, 0
2, 18240, Note_on_c, 0, 68, 100
2, 18360, Note_on_c, 0, 68, 0
2, 18360, Note_on_c, 0, 66, 100
2, 18480, Note_on_c, 0, 66, 0
2, 18480, Note_on_c, 0, 64, 100
2, 18600, Note_on_c, 0, 64, 0
2, 18600, Note_on_c, 0, 66, 100
2, 18720, Note_on_c, 0, 66, 0
2, 18720, Note_on_c, 0, 68, 100
2, 18840, Note_on_c, 0, 68, 0
2, 18840, Note_on_c, 0, 69, 100
2, 18960, Note_on_c, 0, 69, 0
2, 18960, Note_on_c, 0, 71, 100
2, 19080, Note_on_c, 0, 71, 0
2, 19080, Note_on_c, 0, 72, 100
2, 19200, Note_on_c, 0, 72, 0
2, 19200, Note_on_c, 0, 74, 100
2, 19320, Note_on_c, 0, 74, 0
2, 19320, Note_on_c, 0, 76, 100
2, 19440, Note_on_c, 0, 76, 0
2, 19440, Note_on_c, 0, 77, 100
2, 19560, Note_on_c, 0, 77, 0
2, 19560, Note_on_c, 0, 76, 100
2, 19680, Note_on_c, 0, 76, 0
2, 19680, Note_on_c, 0, 74, 100
2, 19800, Note_on_c, 0, 74, 0
2, 19800, Note_on_c, 0, 72, 100
2, 19920, Note_on_c, 0, 72, 0
2, 19920, Note_on_c, 0, 71, 100
2, 20040, Note_on_c, 0, 71, 0
2, 20040, Note_on_c, 0, 69, 100
2, 20160, Note_on_c, 0, 69, 0
2, 20160, Note_on_c, 0, 80, 100
2, 20280, Note_on_c, 0, 80, 0
2, 20280, Note_on_c, 0, 81, 100
2, 20400, Note_on_c, 0, 81, 0
2, 20400, Note_on_c, 0, 83, 100
2, 20520, Note_on_c, 0, 83, 0
2, 20520, Note_on_c, 0, 81, 100
2, 20640, Note_on_c, 0, 81, 0
2, 20640, Note_on_c, 0, 80, 100
2, 20760, Note_on_c, 0, 80, 0
2, 20760, Note_on_c, 0, 78, 100
2, 20880, Note_on_c, 0, 78, 0
2, 20880, Note_on_c, 0, 76, 100
2, 21000, Note_on_c, 0, 76, 0
2, 21000, Note_on_c, 0, 74, 100
2, 21120, Note_on_c, 0, 74, 0
2, 21120, Note_on_c, 0, 72, 100
2, 21240, Note_on_c, 0, 72, 0
2, 21240, Note_on_c, 0, 74, 100
2, 21300, Note_on_c, 0, 74, 0
2, 21300, Note_on_c, 0, 76, 100
2, 21360, Note_on_c, 0, 76, 0
2, 21360, Note_on_c, 0, 77, 100
2, 21480, Note_on_c, 0, 77, 0
2, 21480, Note_on_c, 0, 81, 100
2, 21600, Note_on_c, 0, 81, 0
2, 21600, Note_on_c, 0, 71, 100
2, 21720, Note_on_c, 0, 71, 0
2, 21720, Note_on_c, 0, 72, 100
2, 21780, Note_on_c, 0, 72, 0
2, 21780, Note_on_c, 0, 74, 100
2, 21840, Note_on_c, 0, 74, 0
2, 21840, Note_on_c, 0, 76, 100
2, 21960, Note_on_c, 0, 76, 0
2, 21960, Note_on_c, 0, 79, 100
2, 22080, Note_on_c, 0, 79, 0
2, 22080, Note_on_c, 0, 69, 100
2, 22200, Note_on_c, 0, 69, 0
2, 22200, Note_on_c, 0, 71, 100
2, 22260, Note_on_c, 0, 71, 0
2, 22260, Note_on_c, 0, 72, 100
2, 22320, Note_on_c, 0, 72, 0
2, 22320, Note_on_c, 0, 74, 100
2, 22440, Note_on_c, 0, 74, 0
2, 22440, Note_on_c, 0, 77, 100
2, 22560, Note_on_c, 0, 77, 0
2, 22560, Note_on_c, 0, 67, 100
2, 22680, Note_on_c, 0, 67, 0
2, 22680, Note_on_c, 0, 69, 100
2, 22740, Note_on_c, 0, 69, 0
2, 22740, Note_on_c, 0, 71, 100
2, 22800, Note_on_c, 0, 71, 0
2, 22800, Note_on_c, 0, 72, 100
2, 22920, Note_on_c, 0, 72, 0
2, 22920, Note_on_c, 0, 76, 100
2, 23040, Note_on_c, 0, 76, 0
2, 23040, Note_on_c, 0, 65, 100
2, 23160, Note_on_c, 0, 65, 0
2, 23160, Note_on_c, 0, 67, 100
2, 23220, Note_on_c, 0, 67, 0
2, 23220, Note_on_c, 0, 69, 100
2, 23280, Note_on_c, 0, 69, 0
2, 23280, Note_on_c, 0, 71, 100
2, 23400, Note_on_c, 0, 71, 0
2, 23400, Note_on_c, 0, 74, 100
2, 23520, Note_on_c, 0, 74, 0
2, 23520, Note_on_c, 0, 64, 100
2, 23640, Note_on_c, 0, 64, 0
2, 23640, Note_on_c, 0, 66, 100
2, 23700, Note_on_c, 0, 66, 0
2, 23700, Note_on_c, 0, 68, 100
2, 23760, Note_on_c, 0, 68, 0
2, 23760, Note_on_c, 0, 69, 100
2, 23880, Note_on_c, 0, 69, 0
2, 23880, Note_on_c, 0, 72, 100
2, 24000, Note_on_c, 0, 72, 0
2, 24000, Note_on_c, 0, 62, 100
2, 24120, Note_on_c, 0, 62, 0
2, 24120, Note_on_c, 0, 61, 100
2, 24240, Note_on_c, 0, 61, 0
2, 24240, Note_on_c, 0, 62, 100
2, 24360, Note_on_c, 0, 62, 0
2, 24360, Note_on_c, 0, 65, 100
2, 24480, Note_on_c, 0, 65, 0
2, 24480, Note_on_c, 0, 70, 100
2, 24600, Note_on_c, 0, 70, 0
2, 24600, Note_on_c, 0, 72, 100
2, 24720, Note_on_c, 0, 72, 0
2, 24720, Note_on_c, 0, 74, 100
2, 24840, Note_on_c, 0, 74, 0
2, 24840, Note_on_c, 0, 70, 100
2, 24960, Note_on_c, 0, 70, 0
2, 24960, Note_on_c, 0, 65, 100
2, 25080, Note_on_c, 0, 65, 0
2, 25080, Note_on_c, 0, 64, 100
2, 25200, Note_on_c, 0, 64, 0
2, 25200, Note_on_c, 0, 65, 100
2, 25320, Note_on_c, 0, 65, 0
2, 25320, Note_on_c, 0, 70, 100
2, 25440, Note_on_c, 0, 70, 0
2, 25440, Note_on_c, 0, 74, 100
2, 25560, Note_on_c, 0, 74, 0
2, 25560, Note_on_c, 0, 76, 100
2, 25680, Note_on_c, 0, 76, 0
2, 25680, Note_on_c, 0, 77, 100
2, 25800, Note_on_c, 0, 77, 0
2, 25800, Note_on_c, 0, 74, 100
2, 25920, Note_on_c, 0, 74, 0
2, 25920, Note_on_c, 0, 70, 100
2, 26040, Note_on_c, 0, 70, 0
2, 26040, Note_on_c, 0, 69, 100
2, 26160, Note_on_c, 0, 69, 0
2, 26160, Note_on_c, 0, 70, 100
2, 26280, Note_on_c, 0, 70, 0
2, 26280, Note_on_c, 0, 74, 100
2, 26400, Note_on_c, 0, 74, 0
2, 26400, Note_on_c, 0, 77, 100
2, 26520, Note_on_c, 0, 77, 0
2, 26520, Note_on_c, 0, 79, 100
2, 26580, Note_on_c, 0, 79, 0
2, 26580, Note_on_c, 0, 81, 100
2, 26640, Note_on_c, 0, 81, 0
2, 26640, Note_on_c, 0, 82, 100
2, 26760, Note_on_c, 0, 82, 0
2, 26760, Note_on_c, 0, 81, 100
2, 26880, Note_on_c, 0, 81, 0
2, 26880, Note_on_c, 0, 80, 100
2, 27000, Note_on_c, 0, 80, 0
2, 27000, Note_on_c, 0, 83, 100
2, 27060, Note_on_c, 0, 83, 0
2, 27060, Note_on_c, 0, 81, 100
2, 27120, Note_on_c, 0, 81, 0
2, 27120, Note_on_c, 0, 80, 100
2, 27240, Note_on_c, 0, 80, 0
2, 27240, Note_on_c, 0, 77, 100
2, 27300, Note_on_c, 0, 77, 0
2, 27300, Note_on_c, 0, 76, 100
2, 27360, Note_on_c, 0, 76, 0
2, 27360, Note_on_c, 0, 74, 100
2, 27480, Note_on_c, 0, 74, 0
2, 27480, Note_on_c, 0, 77, 100
2, 27540, Note_on_c, 0, 77, 0
2, 27540, Note_on_c, 0, 76, 100
2, 27600, Note_on_c, 0, 76, 0
2, 27600, Note_on_c, 0, 74, 100
2, 27720, Note_on_c, 0, 74, 0
2, 27720, Note_on_c, 0, 71, 100
2, 27780, Note_on_c, 0, 71, 0
2, 27780, Note_on_c, 0, 69, 100
2, 27840, Note_on_c, 0, 69, 0
2, 27840, Note_on_c, 0, 68, 100
2, 27960, Note_on_c, 0, 68, 0
2, 27960, Note_on_c, 0, 71, 100
2, 28080, Note_on_c, 0, 71, 0
2, 28080, Note_on_c, 0, 76, 100
2, 28200, Note_on_c, 0, 76, 0
2, 28200, Note_on_c, 0, 80, 100
2, 28320, Note_on_c, 0, 80, 0
2, 28320, Note_on_c, 0, 83, 100
2, 28440, Note_on_c, 0, 83, 0
2, 28440, Note_on_c, 0, 76, 100
2, 28560, Note_on_c, 0, 76, 0
2, 28560, Note_on_c, 0, 86, 100
2, 28680, Note_on_c, 0, 86, 0
2, 28680, Note_on_c, 0, 84, 100
2, 28740, Note_on_c, 0, 84, 0
2, 28740, Note_on_c, 0, 83, 100
2, 28800, Note_on_c, 0, 83, 0
2, 28800, Note_on_c, 0, 84, 100
2, 28920, Note_on_c, 0, 84, 0
2, 28920, Note_on_c, 0, 83, 100
2, 28980, Note_on_c, 0, 83, 0
2, 28980, Note_on_c, 0, 81, 100
2, 29040, Note_on_c, 0, 81, 0
2, 29040, Note_on_c, 0, 80, 100
2, 29160, Note_on_c, 0, 80, 0
2, 29160, Note_on_c, 0, 81, 100
2, 29280, Note_on_c, 0, 81, 0
2, 29280, Note_on_c, 0, 72, 100
2, 29360, Note_on_c, 0, 72, 0
2, 29360, Note_on_c, 0, 74, 100
2, 29440, Note_on_c, 0, 74, 0
2, 29440, Note_on_c, 0, 76, 100
2, 29520, Note_on_c, 0, 76, 0
2, 29520, Note_on_c, 0, 74, 100
2, 29600, Note_on_c, 0, 74, 0
2, 29600, Note_on_c, 0, 72, 100
2, 29680, Note_on_c, 0, 72, 0
2, 29680, Note_on_c, 0, 71, 100
2, 29760, Note_on_c, 0, 71, 0
2, 29760, Note_on_c, 0, 69, 100
2, 30120, Note_on_c, 0, 69, 0
2, 30120, Note_on_c, 0, 71, 100
2, 30240, Note_on_c, 0, 71, 0
2, 30240, Note_on_c, 0, 73, 100
2, 30360, Note_on_c, 0, 73, 0
2, 30360, Note_on_c, 0, 74, 100
2, 30480, Note_on_c, 0, 74, 0
2, 30480, Note_on_c, 0, 76, 100
2, 30600, Note_on_c, 0, 76, 0
2, 30600, Note_on_c, 0, 67, 100
2, 30720, Note_on_c, 0, 67, 0
2, 30720, Note_on_c, 0, 65, 100
2, 30840, Note_on_c, 0, 65, 0
2, 30840, Note_on_c, 0, 62, 100
2, 30960, Note_on_c, 0, 62, 0
2, 30960, Note_on_c, 0, 65, 100
2, 31080, Note_on_c, 0, 65, 0
2, 31080, Note_on_c, 0, 69, 100
2, 31200, Note_on_c, 0, 69, 0
2, 31200, Note_on_c, 0, 74, 100
2, 31320, Note_on_c, 0, 74, 0
2, 31320, Note_on_c, 0, 77, 100
2, 31440, Note_on_c, 0, 77, 0
2, 31440, Note_on_c, 0, 80, 100
2, 31560, Note_on_c, 0, 80, 0
2, 31560, Note_on_c, 0, 62, 100
2, 31680, Note_on_c, 0, 62, 0
2, 31680, Note_on_c, 0, 64, 100
2, 32520, Note_on_c, 0, 64, 0
2, 32640, Note_on_c, 0, 62, 100
2, 33000, Note_on_c, 0, 62, 0
2, 33000, Note_on_c, 0, 64, 100
2, 33120, Note_on_c, 0, 64, 0
2, 33120, Note_on_c, 0, 65, 100
2, 33240, Note_on_c, 0, 65, 0
2, 33240, Note_on_c, 0, 67, 100
2, 33360, Note_on_c, 0, 67, 0
2, 33360, Note_on_c, 0, 69, 100
2, 33480, Note_on_c, 0, 69, 0
2, 33480, Note_on_c, 0, 70, 100
2, 33600, Note_on_c, 0, 70, 0
2, 33600, Note_on_c, 0, 61, 100
2, 33720, Note_on_c, 0, 61, 0
2, 33720, Note_on_c, 0, 70, 100
2, 33840, Note_on_c, 0, 70, 0
2, 33840, Note_on_c, 0, 69, 100
2, 33960, Note_on_c, 0, 69, 0
2, 33960, Note_on_c, 0, 67, 100
2, 34080, Note_on_c, 0, 67, 0
2, 34080, Note_on_c, 0, 76, 100
2, 34440, Note_on_c, 0, 76, 0
2, 34440, Note_on_c, 0, 67, 100
2, 34560, Note_on_c, 0, 67, 0
2, 34560, Note_on_c, 0, 65, 100
2, 34680, Note_on_c, 0, 65, 0
2, 34680, Note_on_c, 0, 61, 100
2, 34800, Note_on_c, 0, 61, 0
2, 34800, Note_on_c, 0, 62, 100
2, 34920, Note_on_c, 0, 62, 0
2, 34920, Note_on_c, 0, 57, 100
2, 35040, Note_on_c, 0, 57, 0
2, 35040, Note_on_c, 0, 58, 100
2, 35160, Note_on_c, 0, 58, 0
2, 35160, Note_on_c, 0, 62, 100
2, 35280, Note_on_c, 0, 62, 0
2, 35280, Note_on_c, 0, 65, 100
2, 35400, Note_on_c, 0, 65, 0
2, 35400, Note_on_c, 0, 67, 100
2, 35520, Note_on_c, 0, 67, 0
2, 35520, Note_on_c, 0, 61, 100
2, 35640, Note_on_c, 0, 61, 0
2, 35640, Note_on_c, 0, 57, 100
2, 35760, Note_on_c, 0, 57, 0
2, 35760, Note_on_c, 0, 61, 100
2, 35880, Note_on_c, 0, 61, 0
2, 35880, Note_on_c, 0, 64, 100
2, 36000, Note_on_c, 0, 64, 0
2, 36000, Note_on_c, 0, 69, 100
2, 36080, Note_on_c, 0, 69, 0
2, 36080, Note_on_c, 0, 67, 100
2, 36160, Note_on_c, 0, 67, 0
2, 36160, Note_on_c, 0, 65, 100
2, 36240, Note_on_c, 0, 65, 0
2, 36240, Note_on_c, 0, 67, 100
2, 36320, Note_on_c, 0, 67, 0
2, 36320, Note_on_c, 0, 65, 100
2, 36400, Note_on_c, 0, 65, 0
2, 36400, Note_on_c, 0, 64, 100
2, 36480, Note_on_c, 0, 64, 0
2, 36480, Note_on_c, 0, 65, 100
2, 36600, Note_on_c, 0, 65, 0
2, 36600, Note_on_c, 0, 62, 100
2, 36720, Note_on_c, 0, 62, 0
2, 36720, Note_on_c, 0, 65, 100
2, 36840, Note_on_c, 0, 65, 0
2, 36840, Note_on_c, 0, 69, 100
2, 36960, Note_on_c, 0, 69, 0
2, 36960, Note_on_c, 0, 70, 100
2, 37040, Note_on_c, 0, 70, 0
2, 37040, Note_on_c, 0, 69, 100
2, 37120, Note_on_c, 0, 69, 0
2, 37120, Note_on_c, 0, 67, 100
2, 37200, Note_on_c, 0, 67, 0
2, 37200, Note_on_c, 0, 69, 100
2, 37280, Note_on_c, 0, 69, 0
2, 37280, Note_on_c, 0, 67, 100
2, 37360, Note_on_c, 0, 67, 0
2, 37360, Note_on_c, 0, 65, 100
2, 37440, Note_on_c, 0, 65, 0
2, 37440, Note_on_c, 0, 64, 100
2, 37560, Note_on_c, 0, 64, 0
2, 37560, Note_on_c, 0, 67, 100
2, 37680, Note_on_c, 0, 67, 0
2, 37680, Note_on_c, 0, 70, 100
2, 37800, Note_on_c, 0, 70, 0
2, 37800, Note_on_c, 0, 74, 100
2, 37920, Note_on_c, 0, 74, 0
2, 37920, Note_on_c, 0, 72, 100
2, 38000, Note_on_c, 0, 72, 0
2, 38000, Note_on_c, 0, 70, 100
2, 38080, Note_on_c, 0, 70, 0
2, 38080, Note_on_c, 0, 69, 100
2, 38160, Note_on_c, 0, 69, 0
2, 38160, Note_on_c, 0, 70, 100
2, 38240, Note_on_c, 0, 70, 0
2, 38240, Note_on_c, 0, 69, 100
2, 38320, Note_on_c, 0, 69, 0
2, 38320, Note_on_c, 0, 67, 100
2, 38400, Note_on_c, 0, 67, 0
2, 38400, Note_on_c, 0, 69, 100
2, 38520, Note_on_c, 0, 69, 0
2, 38520, Note_on_c, 0, 65, 100
2, 38640, Note_on_c, 0, 65, 0
2, 38640, Note_on_c, 0, 69, 100
2, 38760, Note_on_c, 0, 69, 0
2, 38760, Note_on_c, 0, 72, 100
2, 38880, Note_on_c, 0, 72, 0
2, 38880, Note_on_c, 0, 77, 100
2, 39000, Note_on_c, 0, 77, 0
2, 39000, Note_on_c, 0, 79, 100
2, 39120, Note_on_c, 0, 79, 0
2, 39120, Note_on_c, 0, 81, 100
2, 39240, Note_on_c, 0, 81, 0
2, 39240, Note_on_c, 0, 72, 100
2, 39360, Note_on_c, 0, 72, 0
2, 39360, Note_on_c, 0, 74, 100
2, 39480, Note_on_c, 0, 74, 0
2, 39480, Note_on_c, 0, 69, 100
2, 39600, Note_on_c, 0, 69, 0
2, 39600, Note_on_c, 0, 70, 100
2, 39720, Note_on_c, 0, 70, 0
2, 39720, Note_on_c, 0, 74, 100
2, 39840, Note_on_c, 0, 74, 0
2, 39840, Note_on_c, 0, 79, 100
2, 39960, Note_on_c, 0, 79, 0
2, 39960, Note_on_c, 0, 81, 100
2, 40080, Note_on_c, 0, 81, 0
2, 40080, Note_on_c, 0, 82, 100
2, 40200, Note_on_c, 0, 82, 0
2, 40200, Note_on_c, 0, 74, 100
2, 40320, Note_on_c, 0, 74, 0
2, 40320, Note_on_c, 0, 76, 100
2, 40440, Note_on_c, 0, 76, 0
2, 40440, Note_on_c, 0, 70, 100
2, 40560, Note_on_c, 0, 70, 0
2, 40560, Note_on_c, 0, 72, 100
2, 40680, Note_on_c, 0, 72, 0
2, 40680, Note_on_c, 0, 67, 100
2, 40800, Note_on_c, 0, 67, 0
2, 40800, Note_on_c, 0, 69, 100
2, 40920, Note_on_c, 0, 69, 0
2, 40920, Note_on_c, 0, 70, 100
2, 41040, Note_on_c, 0, 70, 0
2, 41040, Note_on_c, 0, 72, 100
2, 41160, Note_on_c, 0, 72, 0
2, 41160, Note_on_c, 0, 64, 100
2, 41280, Note_on_c, 0, 64, 0
2, 41280, Note_on_c, 0, 65, 100
2, 41400, Note_on_c, 0, 65, 0
2, 41400, Note_on_c, 0, 57, 100
2, 41520, Note_on_c, 0, 57, 0
2, 41520, Note_on_c, 0, 58, 100
2, 41640, Note_on_c, 0, 58, 0
2, 41640, Note_on_c, 0, 67, 100
2, 41760, Note_on_c, 0, 67, 0
2, 41760, Note_on_c, 0, 60, 100
2, 41880, Note_on_c, 0, 60, 0
2, 41880, Note_on_c, 0, 64, 100
2, 42000, Note_on_c, 0, 64, 0
2, 42000, Note_on_c, 0, 67, 100
2, 42120, Note_on_c, 0, 67, 0
2, 42120, Note_on_c, 0, 70, 100
2, 42240, Note_on_c, 0, 70, 0
2, 42240, Note_on_c, 0, 69, 100
2, 42360, Note_on_c, 0, 69, 0
2, 42360, Note_on_c, 0, 67, 100
2, 42480, Note_on_c, 0, 67, 0
2, 42480, Note_on_c, 0, 65, 100
2, 42600, Note_on_c, 0, 65, 0
2, 42600, Note_on_c, 0, 69, 100
2, 42720, Note_on_c, 0, 69, 0
2, 42720, Note_on_c, 0, 74, 100
2, 42840, Note_on_c, 0, 74, 0
2, 42840, Note_on_c, 0, 65, 100
2, 42960, Note_on_c, 0, 65, 0
2, 42960, Note_on_c, 0, 64, 100
2, 43080, Note_on_c, 0, 64, 0
2, 43080, Note_on_c, 0, 62, 100
2, 43200, Note_on_c, 0, 62, 0
2, 43200, Note_on_c, 0, 61, 100
2, 43320, Note_on_c, 0, 61, 0
2, 43320, Note_on_c, 0, 76, 100
2, 43440, Note_on_c, 0, 76, 0
2, 43440, Note_on_c, 0, 77, 100
2, 43560, Note_on_c, 0, 77, 0
2, 43560, Note_on_c, 0, 79, 100
2, 43680, Note_on_c, 0, 79, 0
2, 43680, Note_on_c, 0, 69, 100
2, 43800, Note_on_c, 0, 69, 0
2, 43800, Note_on_c, 0, 79, 100
2, 43920, Note_on_c, 0, 79, 0
2, 43920, Note_on_c, 0, 77, 100
2, 44040, Note_on_c, 0, 77, 0
2, 44040, Note_on_c, 0, 76, 100
2, 44160, Note_on_c, 0, 76, 0
2, 44160, Note_on_c, 0, 77, 100
2, 44280, Note_on_c, 0, 77, 0
2, 44280, Note_on_c, 0, 76, 100
2, 44400, Note_on_c, 0, 76, 0
2, 44400, Note_on_c, 0, 74, 100
2, 44520, Note_on_c, 0, 74, 0
2, 44520, Note_on_c, 0, 64, 100
2, 44640, Note_on_c, 0, 64, 0
2, 44640, Note_on_c, 0, 62, 100
2, 44760, Note_on_c, 0, 62, 0
2, 44760, Note_on_c, 0, 60, 100
2, 44880, Note_on_c, 0, 60, 0
2, 44880, Note_on_c, 0, 59, 100
2, 45000, Note_on_c, 0, 59, 0
2, 45000, Note_on_c, 0, 57, 100
2, 45120, Note_on_c, 0, 57, 0
2, 45120, Note_on_c, 0, 56, 100
2, 45240, Note_on_c, 0, 56, 0
2, 45240, Note_on_c, 0, 71, 100
2, 45360, Note_on_c, 0, 71, 0
2, 45360, Note_on_c, 0, 72, 100
2, 45480, Note_on_c, 0, 72, 0
2, 45480, Note_on_c, 0, 74, 100
2, 45600, Note_on_c, 0, 74, 0
2, 45600, Note_on_c, 0, 64, 100
2, 45720, Note_on_c, 0, 64, 0
2, 45720, Note_on_c, 0, 74, 100
2, 45840, Note_on_c, 0, 74, 0
2, 45840, Note_on_c, 0, 72, 100
2, 45960, Note_on_c, 0, 72, 0
2, 45960, Note_on_c, 0, 71, 100
2, 46080, Note_on_c, 0, 71, 0
2, 46080, Note_on_c, 0, 72, 100
2, 46200, Note_on_c, 0, 72, 0
2, 46200, Note_on_c, 0, 71, 100
2, 46320, Note_on_c, 0, 71, 0
2, 46320, Note_on_c, 0, 69, 100
2, 46440, Note_on_c, 0, 69, 0
2, 46440, Note_on_c, 0, 71, 100
2, 46560, Note_on_c, 0, 71, 0
2, 46560, Note_on_c, 0, 72, 100
2, 46680, Note_on_c, 0, 72, 0
2, 46680, Note_on_c, 0, 77, 100
2, 46740, Note_on_c, 0, 77, 0
2, 46740, Note_on_c, 0, 76, 100
2, 46800, Note_on_c, 0, 76, 0
2, 46800, Note_on_c, 0, 74, 100
2, 46920, Note_on_c, 0, 74, 0
2, 46920, Note_on_c, 0, 72, 100
2, 47040, Note_on_c, 0, 72, 0
2, 47040, Note_on_c, 0, 71, 100
2, 47160, Note_on_c, 0, 71, 0
2, 47160, Note_on_c, 0, 69, 100
2, 47280, Note_on_c, 0, 69, 0
2, 47280, Note_on_c, 0, 67, 100
2, 47400, Note_on_c, 0, 67, 0
2, 47400, Note_on_c, 0, 69, 100
2, 47520, Note_on_c, 0, 69, 0
2, 47520, Note_on_c, 0, 71, 100
2, 47640, Note_on_c, 0, 71, 0
2, 47640, Note_on_c, 0, 76, 100
2, 47700, Note_on_c, 0, 76, 0
2, 47700, Note_on_c, 0, 74, 100
2, 47760, Note_on_c, 0, 74, 0
2, 47760, Note_on_c, 0, 72, 100
2, 47880, Note_on_c, 0, 72, 0
2, 47880, Note_on_c, 0, 71, 100
2, 48000, Note_on_c, 0, 71, 0
2, 48000, Note_on_c, 0, 69, 100
2, 48120, Note_on_c, 0, 69, 0
2, 48120, Note_on_c, 0, 67, 100
2, 48240, Note_on_c, 0, 67, 0
2, 48240, Note_on_c, 0, 65, 100
2, 48360, Note_on_c, 0, 65, 0
2, 48360, Note_on_c, 0, 67, 100
2, 48420, Note_on_c, 0, 67, 0
2, 48420, Note_on_c, 0, 69, 100
2, 48480, Note_on_c, 0, 69, 0
2, 48480, Note_on_c, 0, 62, 100
2, 48600, Note_on_c, 0, 62, 0
2, 48600, Note_on_c, 0, 72, 100
2, 48720, Note_on_c, 0, 72, 0
2, 48720, Note_on_c, 0, 71, 100
2, 48840, Note_on_c, 0, 71, 0
2, 48840, Note_on_c, 0, 69, 100
2, 48960, Note_on_c, 0, 69, 0
2, 48960, Note_on_c, 0, 68, 100
2, 49080, Note_on_c, 0, 68, 0
2, 49080, Note_on_c, 0, 66, 100
2, 49200, Note_on_c, 0, 66, 0
2, 49200, Note_on_c, 0, 64, 100
2, 49320, Note_on_c, 0, 64, 0
2, 49320, Note_on_c, 0, 66, 100
2, 49440, Note_on_c, 0, 66, 0
2, 49440, Note_on_c, 0, 68, 100
2, 49560, Note_on_c, 0, 68, 0
2, 49560, Note_on_c, 0, 69, 100
2, 49680, Note_on_c, 0, 69, 0
2, 49680, Note_on_c, 0, 71, 100
2, 49800, Note_on_c, 0, 71, 0
2, 49800, Note_on_c, 0, 72, 100
2, 49920, Note_on_c, 0, 72, 0
2, 49920, Note_on_c, 0, 74, 100
2, 50040, Note_on_c, 0, 74, 0
2, 50040, Note_on_c, 0, 76, 100
2, 50160, Note_on_c, 0, 76, 0
2, 50160, Note_on_c, 0, 77, 100
2, 50280, Note_on_c, 0, 77, 0
2, 50280, Note_on_c, 0, 76, 100
2, 50400, Note_on_c, 0, 76, 0
2, 50400, Note_on_c, 0, 74, 100
2, 50520, Note_on_c, 0, 74, 0
2, 50520, Note_on_c, 0, 72, 100
2, 50640, Note_on_c, 0, 72, 0
2, 50640, Note_on_c, 0, 71, 100
2, 50760, Note_on_c, 0, 71, 0
2, 50760, Note_on_c, 0, 69, 100
2, 50880, Note_on_c, 0, 69, 0
2, 50880, Note_on_c, 0, 80, 100
2, 51000, Note_on_c, 0, 80, 0
2, 51000, Note_on_c, 0, 81, 100
2, 51120, Note_on_c, 0, 81, 0
2, 51120, Note_on_c, 0, 83, 100
2, 51240, Note_on_c, 0, 83, 0
2, 51240, Note_on_c, 0, 81, 100
2, 51360, Note_on_c, 0, 81, 0
2, 51360, Note_on_c, 0, 80, 100
2, 51480, Note_on_c, 0, 80, 0
2, 51480, Note_on_c, 0, 78, 100
2, 51600, Note_on_c, 0, 78, 0
2, 51600, Note_on_c, 0, 76, 100
2, 51720, Note_on_c, 0, 76, 0
2, 51720, Note_on_c, 0, 74, 100
2, 51840, Note_on_c, 0, 74, 0
2, 51840, Note_on_c, 0, 72, 100
2, 51960, Note_on_c, 0, 72, 0
2, 51960, Note_on_c, 0, 74, 100
2, 52020, Note_on_c, 0, 74, 0
2, 52020, Note_on_c, 0, 76, 100
2, 52080, Note_on_c, 0, 76, 0
2, 52080, Note_on_c, 0, 77, 100
2, 52200, Note_on_c, 0, 77, 0
2, 52200, Note_on_c, 0, 81, 100
2, 52320, Note_on_c, 0, 81, 0
2, 52320, Note_on_c, 0, 71, 100
2, 52440, Note_on_c, 0, 71, 0
2, 52440, Note_on_c, 0, 72, 100
2, 52500, Note_on_c, 0, 72, 0
2, 52500, Note_on_c, 0, 74, 100
2, 52560, Note_on_c, 0, 74, 0
2, 52560, Note_on_c, 0, 76, 100
2, 52680, Note_on_c, 0, 76, 0
2, 52680, Note_on_c, 0, 79, 100
2, 52800, Note_on_c, 0, 79, 0
2, 52800, Note_on_c, 0, 69, 100
2, 52920, Note_on_c, 0, 69, 0
2, 52920, Note_on_c, 0, 71, 100
2, 52980, Note_on_c, 0, 71, 0
2, 52980, Note_on_c, 0, 72, 100
2, 53040, Note_on_c, 0, 72, 0
2, 53040, Note_on_c, 0, 74, 100
2, 53160, Note_on_c, 0, 74, 0
2, 53160, Note_on_c, 0, 77, 100
2, 53280, Note_on_c, 0, 77, 0
2, 53280, Note_on_c, 0, 67, 100
2, 53400, Note_on_c, 0, 67, 0
2, 53400, Note_on_c, 0, 69, 100
2, 53460, Note_on_c, 0, 69, 0
2, 53460, Note_on_c, 0, 71, 100
2, 53520, Note_on_c, 0, 71, 0
2, 53520, Note_on_c, 0, 72, 100
2, 53640, Note_on_c, 0, 72, 0
2, 53640, Note_on_c, 0, 76, 100
2, 53760, Note_on_c, 0, 76, 0
2, 53760, Note_on_c, 0, 65, 100
2, 53880, Note_on_c, 0, 65, 0
2, 53880, Note_on_c, 0, 67, 100
2, 53940, Note_on_c, 0, 67, 0
2, 53940, Note_on_c, 0, 69, 100
2, 54000, Note_on_c, 0, 69, 0
2, 54000, Note_on_c, 0, 71, 100
2, 54120, Note_on_c, 0, 71, 0
2, 54120, Note_on_c, 0, 74, 100
2, 54240, Note_on_c, 0, 74, 0
2, 54240, Note_on_c, 0, 64, 100
2, 54360, Note_on_c, 0, 64, 0
2, 54360, Note_on_c, 0, 66, 100
2, 54420, Note_on_c, 0, 66, 0
2, 54420, Note_on_c, 0, 68, 100
2, 54480, Note_on_c, 0, 68, 0
2, 54480, Note_on_c, 0, 69, 100
2, 54600, Note_on_c, 0, 69, 0
2, 54600, Note_on_c, 0, 72, 100
2, 54720, Note_on_c, 0, 72, 0
2, 54720, Note_on_c, 0, 62, 100
2, 54840, Note_on_c, 0, 62, 0
2, 54840, Note_on_c, 0, 61, 100
2, 54960, Note_on_c, 0, 61, 0
2, 54960, Note_on_c, 0, 62, 100
2, 55080, Note_on_c, 0, 62, 0
2, 55080, Note_on_c, 0, 65, 100
2, 55200, Note_on_c, 0, 65, 0
2, 55200, Note_on_c, 0, 70, 100
2, 55320, Note_on_c, 0, 70, 0
2, 55320, Note_on_c, 0, 72, 100
2, 55440, Note_on_c, 0, 72, 0
2, 55440, Note_on_c, 0, 74, 100
2, 55560, Note_on_c, 0, 74, 0
2, 55560, Note_on_c, 0, 70, 100
2, 55680, Note_on_c, 0, 70, 0
2, 55680, Note_on_c, 0, 65, 100
2, 55800, Note_on_c, 0, 65, 0
2, 55800, Note_on_c, 0, 64, 100
2, 55920, Note_on_c, 0, 64, 0
2, 55920, Note_on_c, 0, 65, 100
2, 56040, Note_on_c, 0, 65, 0
2, 56040, Note_on_c, 0, 70, 100
2, 56160, Note_on_c, 0, 70, 0
2, 56160, Note_on_c, 0, 74, 100
2, 56280, Note_on_c, 0, 74, 0
2, 56280, Note_on_c, 0, 76, 100
2, 56400, Note_on_c, 0, 76, 0
2, 56400, Note_on_c, 0, 77, 100
2, 56520, Note_on_c, 0, 77, 0
2, 56520, Note_on_c, 0, 74, 100
2, 56640, Note_on_c, 0, 74, 0
2, 56640, Note_on_c, 0, 70, 100
2, 56760, Note_on_c, 0, 70, 0
2, 56760, Note_on_c, 0, 69, 100
2, 56880, Note_on_c, 0, 69, 0
2, 56880, Note_on_c, 0, 70, 100
2, 57000, Note_on_c, 0, 70, 0
2, 57000, Note_on_c, 0, 74, 100
2, 57120, Note_on_c, 0, 74, 0
2, 57120, Note_on_c, 0, 77, 100
2, 57240, Note_on_c, 0, 77, 0
2, 57240, Note_on_c, 0, 79, 100
2, 57300, Note_on_c, 0, 79, 0
2, 57300, Note_on_c, 0, 81, 100
2, 57360, Note_on_c, 0, 81, 0
2, 57360, Note_on_c, 0, 82, 100
2, 57480, Note_on_c, 0, 82, 0
2, 57480, Note_on_c, 0, 81, 100
2, 57600, Note_on_c, 0, 81, 0
2, 57600, Note_on_c, 0, 80, 100
2, 57720, Note_on_c, 0, 80, 0
2, 57720, Note_on_c, 0, 83, 100
2, 57780, Note_on_c, 0, 83, 0
2, 57780, Note_on_c, 0, 81, 100
2, 57840, Note_on_c, 0, 81, 0
2, 57840, Note_on_c, 0, 80, 100
2, 57960, Note_on_c, 0, 80, 0
2, 57960, Note_on_c, 0, 77, 100
2, 58020, Note_on_c, 0, 77, 0
2, 58020, Note_on_c, 0, 76, 100
2, 58080, Note_on_c, 0, 76, 0
2, 58080, Note_on_c, 0, 74, 100
2, 58200, Note_on_c, 0, 74, 0
2, 58200, Note_on_c, 0, 77, 100
2, 58260, Note_on_c, 0, 77, 0
2, 58260, Note_on_c, 0, 76, 100
2, 58320, Note_on_c, 0, 76, 0
2, 58320, Note_on_c, 0, 74, 100
2, 58440, Note_on_c, 0, 74, 0
2, 58440, Note_on_c, 0, 71, 100
2, 58500, Note_on_c, 0, 71, 0
2, 58500, Note_on_c, 0, 69, 100
2, 58560, Note_on_c, 0, 69, 0
2, 58560, Note_on_c, 0, 68, 100
2, 58680, Note_on_c, 0, 68, 0
2, 58680, Note_on_c, 0, 71, 100
2, 58800, Note_on_c, 0, 71, 0
2, 58800, Note_on_c, 0, 76, 100
2, 58920, Note_on_c, 0, 76, 0
2, 58920, Note_on_c, 0, 80, 100
2, 59040, Note_on_c, 0, 80, 0
2, 59040, Note_on_c, 0, 83, 100
2, 59160, Note_on_c, 0, 83, 0
2, 59160, Note_on_c, 0, 76, 100
2, 59280, Note_on_c, 0, 76, 0
2, 59280, Note_on_c, 0, 86, 100
2, 59400, Note_on_c, 0, 86, 0
2, 59400, Note_on_c, 0, 84, 100
2, 59460, Note_on_c, 0, 84, 0
2, 59460, Note_on_c, 0, 83, 100
2, 59520, Note_on_c, 0, 83, 0
2, 59520, Note_on_c, 0, 84, 100
2, 59640, Note_on_c, 0, 84, 0
2, 59640, Note_on_c, 0, 83, 100
2, 59700, Note_on_c, 0, 83, 0
2, 59700, Note_on_c, 0, 81, 100
2, 59760, Note_on_c, 0, 81, 0
2, 59760, Note_on_c, 0, 80, 100
2, 59880, Note_on_c, 0, 80, 0
2, 59880, Note_on_c, 0, 81, 100
2, 60000, Note_on_c, 0, 81, 0
2, 60000, Note_on_c, 0, 72, 100
2, 60080, Note_on_c, 0, 72, 0
2, 60080, Note_on_c, 0, 74, 100
2, 60160, Note_on_c, 0, 74, 0
2, 60160, Note_on_c, 0, 76, 100
2, 60240, Note_on_c, 0, 76, 0
2, 60240, Note_on_c, 0, 74, 100
2, 60320, Note_on_c, 0, 74, 0
2, 60320, Note_on_c, 0, 72, 100
2, 60400, Note_on_c, 0, 72, 0
2, 60400, Note_on_c, 0, 71, 100
2, 60480, Note_on_c, 0, 71, 0
2, 60480, Note_on_c, 0, 69, 100
2, 60840, Note_on_c, 0, 69, 0
2, 60840, Note_on_c, 0, 71, 100
2, 60960, Note_on_c, 0, 71, 0
2, 60960, Note_on_c, 0, 73, 100
2, 61080, Note_on_c, 0, 73, 0
2, 61080, Note_on_c, 0, 74, 100
2, 61200, Note_on_c, 0, 74, 0
2, 61200, Note_on_c, 0, 76, 100
2, 61320, Note_on_c, 0, 76, 0
2, 61320, Note_on_c, 0, 67, 100
2, 61440, Note_on_c, 0, 67, 0
2, 61440, Note_on_c, 0, 65, 100
2, 61560, Note_on_c, 0, 65, 0
2, 61560, Note_on_c, 0, 62, 100
2, 61680, Note_on_c, 0, 62, 0
2, 61680, Note_on_c, 0, 65, 100
2, 61800, Note_on_c, 0, 65, 0
2, 61800, Note_on_c, 0, 69, 100
2, 61920, Note_on_c, 0, 69, 0
2, 61920, Note_on_c, 0, 74, 100
2, 62040, Note_on_c, 0, 74, 0
2, 62040, Note_on_c, 0, 77, 100
2, 62160, Note_on_c, 0, 77, 0
2, 62160, Note_on_c, 0, 80, 100
2, 62280, Note_on_c, 0, 80, 0
2, 62280, Note_on_c, 0, 62, 100
2, 62400, Note_on_c, 0, 62, 0
2, 62400, Note_on_c, 0, 73, 100
2, 63240, Note_on_c, 0, 73, 0
2, 63360, Note_on_c, 0, 76, 100
2, 63720, Note_on_c, 0, 76, 0
2, 63720, Note_on_c, 0, 77, 100
2, 63840, Note_on_c, 0, 77, 0
2, 63840, Note_on_c, 0, 76, 100
2, 63960, Note_on_c, 0, 76, 0
2, 63960, Note_on_c, 0, 74, 100
2, 64080, Note_on_c, 0, 74, 0
2, 64080, Note_on_c, 0, 73, 100
2, 64200, Note_on_c, 0, 73, 0
2, 64200, Note_on_c, 0, 71, 100
2, 64320, Note_on_c, 0, 71, 0
2, 64320, Note_on_c, 0, 69, 100
2, 64440, Note_on_c, 0, 69, 0
2, 64440, Note_on_c, 0, 67, 100
2, 64500, Note_on_c, 0, 67, 0
2, 64500, Note_on_c, 0, 69, 100
2, 64560, Note_on_c, 0, 69, 0
2, 64560, Note_on_c, 0, 70, 100
2, 64680, Note_on_c, 0, 70, 0
2, 64680, Note_on_c, 0, 69, 100
2, 64800, Note_on_c, 0, 69, 0
2, 64800, Note_on_c, 0, 67, 100
2, 64920, Note_on_c, 0, 67, 0
2, 64920, Note_on_c, 0, 65, 100
2, 65040, Note_on_c, 0, 65, 0
2, 65040, Note_on_c, 0, 64, 100
2, 65160, Note_on_c, 0, 64, 0
2, 65160, Note_on_c, 0, 65, 100
2, 65280, Note_on_c, 0, 65, 0
2, 65280, Note_on_c, 0, 67, 100
2, 65400, Note_on_c, 0, 67, 0
2, 65400, Note_on_c, 0, 65, 100
2, 65520, Note_on_c, 0, 65, 0
2, 65520, Note_on_c, 0, 64, 100
2, 65640, Note_on_c, 0, 64, 0
2, 65640, Note_on_c, 0, 62, 100
2, 65760, Note_on_c, 0, 62, 0
2, 65760, Note_on_c, 0, 77, 100
2, 65880, Note_on_c, 0, 77, 0
2, 65880, Note_on_c, 0, 69, 100
2, 66000, Note_on_c, 0, 69, 0
2, 66000, Note_on_c, 0, 70, 100
2, 66120, Note_on_c, 0, 70, 0
2, 66120, Note_on_c, 0, 62, 100
2, 66240, Note_on_c, 0, 62, 0
2, 66240, Note_on_c, 0, 60, 100
2, 66360, Note_on_c, 0, 60, 0
2, 66360, Note_on_c, 0, 67, 100
2, 66480, Note_on_c, 0, 67, 0
2, 66480, Note_on_c, 0, 70, 100
2, 66600, Note_on_c, 0, 70, 0
2, 66600, Note_on_c, 0, 75, 100
2, 66720, Note_on_c, 0, 75, 0
2, 66720, Note_on_c, 0, 69, 100
2, 66840, Note_on_c, 0, 69, 0
2, 66840, Note_on_c, 0, 72, 100
2, 66960, Note_on_c, 0, 72, 0
2, 66960, Note_on_c, 0, 77, 100
2, 67080, Note_on_c, 0, 77, 0
2, 67080, Note_on_c, 0, 75, 100
2, 67200, Note_on_c, 0, 75, 0
2, 67200, Note_on_c, 0, 74, 100
2, 67320, Note_on_c, 0, 74, 0
2, 67320, Note_on_c, 0, 69, 100
2, 67440, Note_on_c, 0, 69, 0
2, 67440, Note_on_c, 0, 70, 100
2, 67560, Note_on_c, 0, 70, 0
2, 67560, Note_on_c, 0, 74, 100
2, 67680, Note_on_c, 0, 74, 0
2, 67680, Note_on_c, 0, 63, 100
2, 67800, Note_on_c, 0, 63, 0
2, 67800, Note_on_c, 0, 67, 100
2, 67920, Note_on_c, 0, 67, 0
2, 67920, Note_on_c, 0, 69, 100
2, 68040, Note_on_c, 0, 69, 0
2, 68040, Note_on_c, 0, 71, 100
2, 68160, Note_on_c, 0, 71, 0
2, 68160, Note_on_c, 0, 72, 100
2, 68280, Note_on_c, 0, 72, 0
2, 68280, Note_on_c, 0, 74, 100
2, 68400, Note_on_c, 0, 74, 0
2, 68400, Note_on_c, 0, 75, 100
2, 68520, Note_on_c, 0, 75, 0
2, 68520, Note_on_c, 0, 72, 100
2, 68640, Note_on_c, 0, 72, 0
2, 68640, Note_on_c, 0, 81, 100
2, 68720, Note_on_c, 0, 81, 0
2, 68720, Note_on_c, 0, 79, 100
2, 68800, Note_on_c, 0, 79, 0
2, 68800, Note_on_c, 0, 78, 100
2, 68880, Note_on_c, 0, 78, 0
2, 68880, Note_on_c, 0, 79, 100
2, 68960, Note_on_c, 0, 79, 0
2, 68960, Note_on_c, 0, 78, 100
2, 69040, Note_on_c, 0, 78, 0
2, 69040, Note_on_c, 0, 76, 100
2, 69120, Note_on_c, 0, 76, 0
2, 69120, Note_on_c, 0, 78, 100
2, 69240, Note_on_c, 0, 78, 0
2, 69240, Note_on_c, 0, 72, 100
2, 69300, Note_on_c, 0, 72, 0
2, 69300, Note_on_c, 0, 74, 100
2, 69360, Note_on_c, 0, 74, 0
2, 69360, Note_on_c, 0, 75, 100
2, 69480, Note_on_c, 0, 75, 0
2, 69480, Note_on_c, 0, 74, 100
2, 69600, Note_on_c, 0, 74, 0
2, 69600, Note_on_c, 0, 72, 100
2, 69720, Note_on_c, 0, 72, 0
2, 69720, Note_on_c, 0, 70, 100
2, 69780, Note_on_c, 0, 70, 0
2, 69780, Note_on_c, 0, 69, 100
2, 69840, Note_on_c, 0, 69, 0
2, 69840, Note_on_c, 0, 74, 100
2, 69960, Note_on_c, 0, 74, 0
2, 69960, Note_on_c, 0, 72, 100
2, 70080, Note_on_c, 0, 72, 0
2, 70080, Note_on_c, 0, 70, 100
2, 70200, Note_on_c, 0, 70, 0
2, 70200, Note_on_c, 0, 72, 100
2, 70260, Note_on_c, 0, 72, 0
2, 70260, Note_on_c, 0, 74, 100
2, 70320, Note_on_c, 0, 74, 0
2, 70320, Note_on_c, 0, 75, 100
2, 70440, Note_on_c, 0, 75, 0
2, 70440, Note_on_c, 0, 79, 100
2, 70560, Note_on_c, 0, 79, 0
2, 70560, Note_on_c, 0, 69, 100
2, 70680, Note_on_c, 0, 69, 0
2, 70680, Note_on_c, 0, 70, 100
2, 70740, Note_on_c, 0, 70, 0
2, 70740, Note_on_c, 0, 72, 100
2, 70800, Note_on_c, 0, 72, 0
2, 70800, Note_on_c, 0, 74, 100
2, 70920, Note_on_c, 0, 74, 0
2, 70920, Note_on_c, 0, 77, 100
2, 71040, Note_on_c, 0, 77, 0
2, 71040, Note_on_c, 0, 67, 100
2, 71160, Note_on_c, 0, 67, 0
2, 71160, Note_on_c, 0, 69, 100
2, 71220, Note_on_c, 0, 69, 0
2, 71220, Note_on_c, 0, 70, 100
2, 71280, Note_on_c, 0, 70, 0
2, 71280, Note_on_c, 0, 72, 100
2, 71400, Note_on_c, 0, 72, 0
2, 71400, Note_on_c, 0, 75, 100
2, 71520, Note_on_c, 0, 75, 0
2, 71520, Note_on_c, 0, 65, 100
2, 71640, Note_on_c, 0, 65, 0
2, 71640, Note_on_c, 0, 67, 100
2, 71700, Note_on_c, 0, 67, 0
2, 71700, Note_on_c, 0, 69, 100
2, 71760, Note_on_c, 0, 69, 0
2, 71760, Note_on_c, 0, 70, 100
2, 71880, Note_on_c, 0, 70, 0
2, 71880, Note_on_c, 0, 74, 100
2, 72000, Note_on_c, 0, 74, 0
2, 72000, Note_on_c, 0, 63, 100
2, 72120, Note_on_c, 0, 63, 0
2, 72120, Note_on_c, 0, 79, 100
2, 72180, Note_on_c, 0, 79, 0
2, 72180, Note_on_c, 0, 77, 100
2, 72240, Note_on_c, 0, 77, 0
2, 72240, Note_on_c, 0, 75, 100
2, 72360, Note_on_c, 0, 75, 0
2, 72360, Note_on_c, 0, 72, 100
2, 72420, Note_on_c, 0, 72, 0
2, 72420, Note_on_c, 0, 70, 100
2, 72480, Note_on_c, 0, 70, 0
2, 72480, Note_on_c, 0, 69, 100
2, 72600, Note_on_c, 0, 69, 0
2, 72600, Note_on_c, 0, 72, 100
2, 72660, Note_on_c, 0, 72, 0
2, 72660, Note_on_c, 0, 70, 100
2, 72720, Note_on_c, 0, 70, 0
2, 72720, Note_on_c, 0, 69, 100
2, 72840, Note_on_c, 0, 69, 0
2, 72840, Note_on_c, 0, 66, 100
2, 72900, Note_on_c, 0, 66, 0
2, 72900, Note_on_c, 0, 64, 100
2, 72960, Note_on_c, 0, 64, 0
2, 72960, Note_on_c, 0, 62, 100
2, 73080, Note_on_c, 0, 62, 0
2, 73080, Note_on_c, 0, 66, 100
2, 73200, Note_on_c, 0, 66, 0
2, 73200, Note_on_c, 0, 69, 100
2, 73320, Note_on_c, 0, 69, 0
2, 73320, Note_on_c, 0, 72, 100
2, 73440, Note_on_c, 0, 72, 0
2, 73440, Note_on_c, 0, 75, 100
2, 73520, Note_on_c, 0, 75, 0
2, 73520, Note_on_c, 0, 74, 100
2, 73600, Note_on_c, 0, 74, 0
2, 73600, Note_on_c, 0, 72, 100
2, 73680, Note_on_c, 0, 72, 0
2, 73680, Note_on_c, 0, 78, 100
2, 73760, Note_on_c, 0, 78, 0
2, 73760, Note_on_c, 0, 76, 100
2, 73840, Note_on_c, 0, 76, 0
2, 73840, Note_on_c, 0, 74, 100
2, 73920, Note_on_c, 0, 74, 0
2, 73920, Note_on_c, 0, 82, 100
2, 74040, Note_on_c, 0, 82, 0
2, 74040, Note_on_c, 0, 81, 100
2, 74100, Note_on_c, 0, 81, 0
2, 74100, Note_on_c, 0, 79, 100
2, 74160, Note_on_c, 0, 79, 0
2, 74160, Note_on_c, 0, 78, 100
2, 74280, Note_on_c, 0, 78, 0
2, 74280, Note_on_c, 0, 79, 100
2, 74400, Note_on_c, 0, 79, 0
2, 74400, Note_on_c, 0, 70, 100
2, 74480, Note_on_c, 0, 70, 0
2, 74480, Note_on_c, 0, 72, 100
2, 74560, Note_on_c, 0, 72, 0
2, 74560, Note_on_c, 0, 74, 100
2, 74640, Note_on_c, 0, 74, 0
2, 74640, Note_on_c, 0, 72, 100
2, 74720, Note_on_c, 0, 72, 0
2, 74720, Note_on_c, 0, 70, 100
2, 74800, Note_on_c, 0, 70, 0
2, 74800, Note_on_c, 0, 69, 100
2, 74880, Note_on_c, 0, 69, 0
2, 74880, Note_on_c, 0, 67, 100
2, 75240, Note_on_c, 0, 67, 0
2, 75240, Note_on_c, 0, 69, 100
2, 75360, Note_on_c, 0, 69, 0
2, 75360, Note_on_c, 0, 70, 100
2, 75480, Note_on_c, 0, 70, 0
2, 75480, Note_on_c, 0, 72, 100
2, 75600, Note_on_c, 0, 72, 0
2, 75600, Note_on_c, 0, 74, 100
2, 75720, Note_on_c, 0, 74, 0
2, 75720, Note_on_c, 0, 65, 100
2, 75840, Note_on_c, 0, 65, 0
2, 75840, Note_on_c, 0, 64, 100
2, 75960, Note_on_c, 0, 64, 0
2, 75960, Note_on_c, 0, 60, 100
2, 76080, Note_on_c, 0, 60, 0
2, 76080, Note_on_c, 0, 64, 100
2, 76200, Note_on_c, 0, 64, 0
2, 76200, Note_on_c, 0, 67, 100
2, 76320, Note_on_c, 0, 67, 0
2, 76320, Note_on_c, 0, 70, 100
2, 76440, Note_on_c, 0, 70, 0
2, 76440, Note_on_c, 0, 76, 100
2, 76500, Note_on_c, 0, 76, 0
2, 76500, Note_on_c, 0, 77, 100
2, 76560, Note_on_c, 0, 77, 0
2, 76560, Note_on_c, 0, 79, 100
2, 76680, Note_on_c, 0, 79, 0
2, 76680, Note_on_c, 0, 70, 100
2, 76800, Note_on_c, 0, 70, 0
2, 76800, Note_on_c, 0, 69, 100
2, 76920, Note_on_c, 0, 69, 0
2, 76920, Note_on_c, 0, 65, 100
2, 77040, Note_on_c, 0, 65, 0
2, 77040, Note_on_c, 0, 69, 100
2, 77160, Note_on_c, 0, 69, 0
2, 77160, Note_on_c, 0, 72, 100
2, 77280, Note_on_c, 0, 72, 0
2, 77280, Note_on_c, 0, 77, 100
2, 77400, Note_on_c, 0, 77, 0
2, 77400, Note_on_c, 0, 69, 100
2, 77520, Note_on_c, 0, 69, 0
2, 77520, Note_on_c, 0, 67, 100
2, 77640, Note_on_c, 0, 67, 0
2, 77640, Note_on_c, 0, 65, 100
2, 77760, Note_on_c, 0, 65, 0
2, 77760, Note_on_c, 0, 60, 100
2, 77880, Note_on_c, 0, 60, 0
2, 77880, Note_on_c, 0, 67, 100
2, 78000, Note_on_c, 0, 67, 0
2, 78000, Note_on_c, 0, 72, 100
2, 78120, Note_on_c, 0, 72, 0
2, 78120, Note_on_c, 0, 74, 100
2, 78240, Note_on_c, 0, 74, 0
2, 78240, Note_on_c, 0, 76, 100
2, 78360, Note_on_c, 0, 76, 0
2, 78360, Note_on_c, 0, 70, 100
2, 78480, Note_on_c, 0, 70, 0
2, 78480, Note_on_c, 0, 69, 100
2, 78600, Note_on_c, 0, 69, 0
2, 78600, Note_on_c, 0, 67, 100
2, 78720, Note_on_c, 0, 67, 0
2, 78720, Note_on_c, 0, 65, 100
2, 78840, Note_on_c, 0, 65, 0
2, 78840, Note_on_c, 0, 62, 100
2, 78960, Note_on_c, 0, 62, 0
2, 78960, Note_on_c, 0, 65, 100
2, 79080, Note_on_c, 0, 65, 0
2, 79080, Note_on_c, 0, 69, 100
2, 79200, Note_on_c, 0, 69, 0
2, 79200, Note_on_c, 0, 74, 100
2, 79320, Note_on_c, 0, 74, 0
2, 79320, Note_on_c, 0, 65, 100
2, 79440, Note_on_c, 0, 65, 0
2, 79440, Note_on_c, 0, 64, 100
2, 79560, Note_on_c, 0, 64, 0
2, 79560, Note_on_c, 0, 62, 100
2, 79680, Note_on_c, 0, 62, 0
2, 79680, Note_on_c, 0, 57, 100
2, 79800, Note_on_c, 0, 57, 0
2, 79800, Note_on_c, 0, 64, 100
2, 79920, Note_on_c, 0, 64, 0
2, 79920, Note_on_c, 0, 69, 100
2, 80040, Note_on_c, 0, 69, 0
2, 80040, Note_on_c, 0, 70, 100
2, 80160, Note_on_c, 0, 70, 0
2, 80160, Note_on_c, 0, 72, 100
2, 80280, Note_on_c, 0, 72, 0
2, 80280, Note_on_c, 0, 67, 100
2, 80400, Note_on_c, 0, 67, 0
2, 80400, Note_on_c, 0, 65, 100
2, 80520, Note_on_c, 0, 65, 0
2, 80520, Note_on_c, 0, 63, 100
2, 80640, Note_on_c, 0, 63, 0
2, 80640, Note_on_c, 0, 62, 100
2, 80760, Note_on_c, 0, 62, 0
2, 80760, Note_on_c, 0, 58, 100
2, 80880, Note_on_c, 0, 58, 0
2, 80880, Note_on_c, 0, 62, 100
2, 81000, Note_on_c, 0, 62, 0
2, 81000, Note_on_c, 0, 65, 100
2, 81120, Note_on_c, 0, 65, 0
2, 81120, Note_on_c, 0, 70, 100
2, 81240, Note_on_c, 0, 70, 0
2, 81240, Note_on_c, 0, 69, 100
2, 81360, Note_on_c, 0, 69, 0
2, 81360, Note_on_c, 0, 67, 100
2, 81480, Note_on_c, 0, 67, 0
2, 81480, Note_on_c, 0, 65, 100
2, 81600, Note_on_c, 0, 65, 0
2, 81600, Note_on_c, 0, 76, 100
2, 81720, Note_on_c, 0, 76, 0
2, 81720, Note_on_c, 0, 77, 100
2, 81780, Note_on_c, 0, 77, 0
2, 81780, Note_on_c, 0, 79, 100
2, 81840, Note_on_c, 0, 79, 0
2, 81840, Note_on_c, 0, 77, 100
2, 81960, Note_on_c, 0, 77, 0
2, 81960, Note_on_c, 0, 76, 100
2, 82080, Note_on_c, 0, 76, 0
2, 82080, Note_on_c, 0, 74, 100
2, 82200, Note_on_c, 0, 74, 0
2, 82200, Note_on_c, 0, 72, 100
2, 82320, Note_on_c, 0, 72, 0
2, 82320, Note_on_c, 0, 70, 100
2, 82440, Note_on_c, 0, 70, 0
2, 82440, Note_on_c, 0, 79, 100
2, 82560, Note_on_c, 0, 79, 0
2, 82560, Note_on_c, 0, 69, 100
2, 82620, Note_on_c, 0, 69, 0
2, 82620, Note_on_c, 0, 67, 100
2, 82680, Note_on_c, 0, 67, 0
2, 82680, Note_on_c, 0, 65, 100
2, 82740, Note_on_c, 0, 65, 0
2, 82740, Note_on_c, 0, 64, 100
2, 82800, Note_on_c, 0, 64, 0
2, 82800, Note_on_c, 0, 65, 100
2, 82920, Note_on_c, 0, 65, 0
2, 82920, Note_on_c, 0, 58, 100
2, 83040, Note_on_c, 0, 58, 0
2, 83040, Note_on_c, 0, 60, 100
2, 83160, Note_on_c, 0, 60, 0
2, 83160, Note_on_c, 0, 64, 100
2, 83280, Note_on_c, 0, 64, 0
2, 83280, Note_on_c, 0, 67, 100
2, 83400, Note_on_c, 0, 67, 0
2, 83400, Note_on_c, 0, 69, 100
2, 83520, Note_on_c, 0, 69, 0
2, 83520, Note_on_c, 0, 70, 100
2, 83640, Note_on_c, 0, 70, 0
2, 83640, Note_on_c, 0, 69, 100
2, 83760, Note_on_c, 0, 69, 0
2, 83760, Note_on_c, 0, 67, 100
2, 83880, Note_on_c, 0, 67, 0
2, 83880, Note_on_c, 0, 65, 100
2, 84000, Note_on_c, 0, 65, 0
2, 84000, Note_on_c, 0, 81, 100
2, 84120, Note_on_c, 0, 81, 0
2, 84120, Note_on_c, 0, 76, 100
2, 84240, Note_on_c, 0, 76, 0
2, 84240, Note_on_c, 0, 77, 100
2, 84360, Note_on_c, 0, 77, 0
2, 84360, Note_on_c, 0, 74, 100
2, 84480, Note_on_c, 0, 74, 0
2, 84480, Note_on_c, 0, 71, 100
2, 84600, Note_on_c, 0, 71, 0
2, 84600, Note_on_c, 0, 74, 100
2, 84720, Note_on_c, 0, 74, 0
2, 84720, Note_on_c, 0, 77, 100
2, 84840, Note_on_c, 0, 77, 0
2, 84840, Note_on_c, 0, 81, 100
2, 84960, Note_on_c, 0, 81, 0
2, 84960, Note_on_c, 0, 79, 100
2, 85080, Note_on_c, 0, 79, 0
2, 85080, Note_on_c, 0, 76, 100
2, 85200, Note_on_c, 0, 76, 0
2, 85200, Note_on_c, 0, 73, 100
2, 85320, Note_on_c, 0, 73, 0
2, 85320, Note_on_c, 0, 79, 100
2, 85440, Note_on_c, 0, 79, 0
2, 85440, Note_on_c, 0, 62, 100
2, 85560, Note_on_c, 0, 62, 0
2, 85560, Note_on_c, 0, 69, 100
2, 85680, Note_on_c, 0, 69, 0
2, 85680, Note_on_c, 0, 73, 100
2, 85800, Note_on_c, 0, 73, 0
2, 85800, Note_on_c, 0, 79, 100
2, 85920, Note_on_c, 0, 79, 0
2, 85920, Note_on_c, 0, 77, 100
2, 86040, Note_on_c, 0, 77, 0
2, 86040, Note_on_c, 0, 73, 100
2, 86160, Note_on_c, 0, 73, 0
2, 86160, Note_on_c, 0, 74, 100
2, 86280, Note_on_c, 0, 74, 0
2, 86280, Note_on_c, 0, 70, 100
2, 86400, Note_on_c, 0, 70, 0
2, 86400, Note_on_c, 0, 67, 100
2, 86520, Note_on_c, 0, 67, 0
2, 86520, Note_on_c, 0, 70, 100
2, 86640, Note_on_c, 0, 70, 0
2, 86640, Note_on_c, 0, 74, 100
2, 86760, Note_on_c, 0, 74, 0
2, 86760, Note_on_c, 0, 77, 100
2, 86880, Note_on_c, 0, 77, 0
2, 86880, Note_on_c, 0, 75, 100
2, 87000, Note_on_c, 0, 75, 0
2, 87000, Note_on_c, 0, 72, 100
2, 87120, Note_on_c, 0, 72, 0
2, 87120, Note_on_c, 0, 69, 100
2, 87240, Note_on_c, 0, 69, 0
2, 87240, Note_on_c, 0, 75, 100
2, 87360, Note_on_c, 0, 75, 0
2, 87360, Note_on_c, 0, 58, 100
2, 87480, Note_on_c, 0, 58, 0
2, 87480, Note_on_c, 0, 65, 100
2, 87600, Note_on_c, 0, 65, 0
2, 87600, Note_on_c, 0, 69, 100
2, 87720, Note_on_c, 0, 69, 0
2, 87720, Note_on_c, 0, 75, 100
2, 87840, Note_on_c, 0, 75, 0
2, 87840, Note_on_c, 0, 74, 100
2, 87960, Note_on_c, 0, 74, 0
2, 87960, Note_on_c, 0, 69, 100
2, 88080, Note_on_c, 0, 69, 0
2, 88080, Note_on_c, 0, 70, 100
2, 88200, Note_on_c, 0, 70, 0
2, 88200, Note_on_c, 0, 67, 100
2, 88320, Note_on_c, 0, 67, 0
2, 88320, Note_on_c, 0, 64, 100
2, 88440, Note_on_c, 0, 64, 0
2, 88440, Note_on_c, 0, 67, 100
2, 88560, Note_on_c, 0, 67, 0
2, 88560, Note_on_c, 0, 70, 100
2, 88680, Note_on_c, 0, 70, 0
2, 88680, Note_on_c, 0, 74, 100
2, 88800, Note_on_c, 0, 74, 0
2, 88800, Note_on_c, 0, 72, 100
2, 88920, Note_on_c, 0, 72, 0
2, 88920, Note_on_c, 0, 69, 100
2, 89040, Note_on_c, 0, 69, 0
2, 89040, Note_on_c, 0, 66, 100
2, 89160, Note_on_c, 0, 66, 0
2, 89160, Note_on_c, 0, 72, 100
2, 89280, Note_on_c, 0, 72, 0
2, 89280, Note_on_c, 0, 70, 100
2, 89400, Note_on_c, 0, 70, 0
2, 89400, Note_on_c, 0, 69, 100
2, 89520, Note_on_c, 0, 69, 0
2, 89520, Note_on_c, 0, 67, 100
2, 89640, Note_on_c, 0, 67, 0
2, 89640, Note_on_c, 0, 65, 100
2, 89760, Note_on_c, 0, 65, 0
2, 89760, Note_on_c, 0, 63, 100
2, 89880, Note_on_c, 0, 63, 0
2, 89880, Note_on_c, 0, 62, 100
2, 90000, Note_on_c, 0, 62, 0
2, 90000, Note_on_c, 0, 63, 100
2, 90120, Note_on_c, 0, 63, 0
2, 90120, Note_on_c, 0, 67, 100
2, 90240, Note_on_c, 0, 67, 0
2, 90240, Note_on_c, 0, 70, 100
2, 90360, Note_on_c, 0, 70, 0
2, 90360, Note_on_c, 0, 69, 100
2, 90480, Note_on_c, 0, 69, 0
2, 90480, Note_on_c, 0, 70, 100
2, 90600, Note_on_c, 0, 70, 0
2, 90600, Note_on_c, 0, 75, 100
2, 90720, Note_on_c, 0, 75, 0
2, 90720, Note_on_c, 0, 79, 100
2, 90840, Note_on_c, 0, 79, 0
2, 90840, Note_on_c, 0, 78, 100
2, 90960, Note_on_c, 0, 78, 0
2, 90960, Note_on_c, 0, 79, 100
2, 91080, Note_on_c, 0, 79, 0
2, 91080, Note_on_c, 0, 82, 100
2, 91200, Note_on_c, 0, 82, 0
2, 91200, Note_on_c, 0, 73, 100
2, 91320, Note_on_c, 0, 73, 0
2, 91320, Note_on_c, 0, 69, 100
2, 91380, Note_on_c, 0, 69, 0
2, 91380, Note_on_c, 0, 71, 100
2, 91440, Note_on_c, 0, 71, 0
2, 91440, Note_on_c, 0, 73, 100
2, 91560, Note_on_c, 0, 73, 0
2, 91560, Note_on_c, 0, 76, 100
2, 91680, Note_on_c, 0, 76, 0
2, 91680, Note_on_c, 0, 67, 100
2, 91800, Note_on_c, 0, 67, 0
2, 91800, Note_on_c, 0, 70, 100
2, 91860, Note_on_c, 0, 70, 0
2, 91860, Note_on_c, 0, 69, 100
2, 91920, Note_on_c, 0, 69, 0
2, 91920, Note_on_c, 0, 67, 100
2, 92040, Note_on_c, 0, 67, 0
2, 92040, Note_on_c, 0, 65, 100
2, 92100, Note_on_c, 0, 65, 0
2, 92100, Note_on_c, 0, 64, 100
2, 92160, Note_on_c, 0, 64, 0
2, 92160, Note_on_c, 0, 65, 100
2, 92280, Note_on_c, 0, 65, 0
2, 92280, Note_on_c, 0, 69, 100
2, 92340, Note_on_c, 0, 69, 0
2, 92340, Note_on_c, 0, 67, 100
2, 92400, Note_on_c, 0, 67, 0
2, 92400, Note_on_c, 0, 65, 100
2, 92520, Note_on_c, 0, 65, 0
2, 92520, Note_on_c, 0, 64, 100
2, 92580, Note_on_c, 0, 64, 0
2, 92580, Note_on_c, 0, 62, 100
2, 92640, Note_on_c, 0, 62, 0
2, 92640, Note_on_c, 0, 57, 100
2, 92760, Note_on_c, 0, 57, 0
2, 92760, Note_on_c, 0, 64, 100
2, 92880, Note_on_c, 0, 64, 0
2, 92880, Note_on_c, 0, 74, 100
2, 93000, Note_on_c, 0, 74, 0
2, 93000, Note_on_c, 0, 73, 100
2, 93120, Note_on_c, 0, 73, 0
2, 93120, Note_on_c, 0, 74, 100
2, 93960, Note_on_c, 0, 74, 0
2, 94080, Note_on_c, 0, 76, 100
2, 94440, Note_on_c, 0, 76, 0
2, 94440, Note_on_c, 0, 77, 100
2, 94560, Note_on_c, 0, 77, 0
2, 94560, Note_on_c, 0, 76, 100
2, 94680, Note_on_c, 0, 76, 0
2, 94680, Note_on_c, 0, 74, 100
2, 94800, Note_on_c, 0, 74, 0
2, 94800, Note_on_c, 0, 73, 100
2, 94920, Note_on_c, 0, 73, 0
2, 94920, Note_on_c, 0, 71, 100
2, 95040, Note_on_c, 0, 71, 0
2, 95040, Note_on_c, 0, 69, 100
2, 95160, Note_on_c, 0, 69, 0
2, 95160, Note_on_c, 0, 67, 100
2, 95220, Note_on_c, 0, 67, 0
2, 95220, Note_on_c, 0, 69, 100
2, 95280, Note_on_c, 0, 69, 0
2, 95280, Note_on_c, 0, 70, 100
2, 95400, Note_on_c, 0, 70, 0
2, 95400, Note_on_c, 0, 69, 100
2, 95520, Note_on_c, 0, 69, 0
2, 95520, Note_on_c, 0, 67, 100
2, 95640, Note_on_c, 0, 67, 0
2, 95640, Note_on_c, 0, 65, 100
2, 95760, Note_on_c, 0, 65, 0
2, 95760, Note_on_c, 0, 64, 100
2, 95880, Note_on_c, 0, 64, 0
2, 95880, Note_on_c, 0, 65, 100
2, 96000, Note_on_c, 0, 65, 0
2, 96000, Note_on_c, 0, 67, 100
2, 96120, Note_on_c, 0, 67, 0
2, 96120, Note_on_c, 0, 65, 100
2, 96240, Note_on_c, 0, 65, 0
2, 96240, Note_on_c, 0, 64, 100
2, 96360, Note_on_c, 0, 64, 0
2, 96360, Note_on_c, 0, 62, 100
2, 96480, Note_on_c, 0, 62, 0
2, 96480, Note_on_c, 0, 77, 100
2, 96600, Note_on_c, 0, 77, 0
2, 96600, Note_on_c, 0, 69, 100
2, 96720, Note_on_c, 0, 69, 0
2, 96720, Note_on_c, 0, 70, 100
2, 96840, Note_on_c, 0, 70, 0
2, 96840, Note_on_c, 0, 62, 100
2, 96960, Note_on_c, 0, 62, 0
2, 96960, Note_on_c, 0, 60, 100
2, 97080, Note_on_c, 0, 60, 0
2, 97080, Note_on_c, 0, 67, 100
2, 97200, Note_on_c, 0, 67, 0
2, 97200, Note_on_c, 0, 70, 100
2, 97320, Note_on_c, 0, 70, 0
2, 97320, Note_on_c, 0, 75, 100
2, 97440, Note_on_c, 0, 75, 0
2, 97440, Note_on_c, 0, 69, 100
2, 97560, Note_on_c, 0, 69, 0
2, 97560, Note_on_c, 0, 72, 100
2, 97680, Note_on_c, 0, 72, 0
2, 97680, Note_on_c, 0, 77, 100
2, 97800, Note_on_c, 0, 77, 0
2, 97800, Note_on_c, 0, 75, 100
2, 97920, Note_on_c, 0, 75, 0
2, 97920, Note_on_c, 0, 74, 100
2, 98040, Note_on_c, 0, 74, 0
2, 98040, Note_on_c, 0, 69, 100
2, 98160, Note_on_c, 0, 69, 0
2, 98160, Note_on_c, 0, 70, 100
2, 98280, Note_on_c, 0, 70, 0
2, 98280, Note_on_c, 0, 74, 100
2, 98400, Note_on_c, 0, 74, 0
2, 98400, Note_on_c, 0, 63, 100
2, 98520, Note_on_c, 0, 63, 0
2, 98520, Note_on_c, 0, 67, 100
2, 98640, Note_on_c, 0, 67, 0
2, 98640, Note_on_c, 0, 69, 100
2, 98760, Note_on_c, 0, 69, 0
2, 98760, Note_on_c, 0, 71, 100
2, 98880, Note_on_c, 0, 71, 0
2, 98880, Note_on_c, 0, 72, 100
2, 99000, Note_on_c, 0, 72, 0
2, 99000, Note_on_c, 0, 74, 100
2, 99120, Note_on_c, 0, 74, 0
2, 99120, Note_on_c, 0, 75, 100
2, 99240, Note_on_c, 0, 75, 0
2, 99240, Note_on_c, 0, 72, 100
2, 99360, Note_on_c, 0, 72, 0
2, 99360, Note_on_c, 0, 81, 100
2, 99440, Note_on_c, 0, 81, 0
2, 99440, Note_on_c, 0, 79, 100
2, 99520, Note_on_c, 0, 79, 0
2, 99520, Note_on_c, 0, 78, 100
2, 99600, Note_on_c, 0, 78, 0
2, 99600, Note_on_c, 0, 79, 100
2, 99680, Note_on_c, 0, 79, 0
2, 99680, Note_on_c, 0, 78, 100
2, 99760, Note_on_c, 0, 78, 0
2, 99760, Note_on_c, 0, 76, 100
2, 99840, Note_on_c, 0, 76, 0
2, 99840, Note_on_c, 0, 78, 100
2, 99960, Note_on_c, 0, 78, 0
2, 99960, Note_on_c, 0, 72, 100
2, 100020, Note_on_c, 0, 72, 0
2, 100020, Note_on_c, 0, 74, 100
2, 100080, Note_on_c, 0, 74, 0
2, 100080, Note_on_c, 0, 75, 100
2, 100200, Note_on_c, 0, 75, 0
2, 100200, Note_on_c, 0, 74, 100
2, 100320, Note_on_c, 0, 74, 0
2, 100320, Note_on_c, 0, 72, 100
2, 100440, Note_on_c, 0, 72, 0
2, 100440, Note_on_c, 0, 70, 100
2, 100500, Note_on_c, 0, 70, 0
2, 100500, Note_on_c, 0, 69, 100
2, 100560, Note_on_c, 0, 69, 0
2, 100560, Note_on_c, 0, 74, 100
2, 100680, Note_on_c, 0, 74, 0
2, 100680, Note_on_c, 0, 72, 100
2, 100800, Note_on_c, 0, 72, 0
2, 100800, Note_on_c, 0, 70, 100
2, 100920, Note_on_c, 0, 70, 0
2, 100920, Note_on_c, 0, 72, 100
2, 100980, Note_on_c, 0, 72, 0
2, 100980, Note_on_c, 0, 74, 100
2, 101040, Note_on_c, 0, 74, 0
2, 101040, Note_on_c, 0, 75, 100
2, 101160, Note_on_c, 0, 75, 0
2, 101160, Note_on_c, 0, 79, 100
2, 101280, Note_on_c, 0, 79, 0
2, 101280, Note_on_c, 0, 69, 100
2, 101400, Note_on_c, 0, 69, 0
2, 101400, Note_on_c, 0, 70, 100
2, 101460, Note_on_c, 0, 70, 0
2, 101460, Note_on_c, 0, 72, 100
2, 101520, Note_on_c, 0, 72, 0
2, 101520, Note_on_c, 0, 74, 100
2, 101640, Note_on_c, 0, 74, 0
2, 101640, Note_on_c, 0, 77, 100
2, 101760, Note_on_c, 0, 77, 0
2, 101760, Note_on_c, 0, 67, 100
2, 101880, Note_on_c, 0, 67, 0
2, 101880, Note_on_c, 0, 69, 100
2, 101940, Note_on_c, 0, 69, 0
2, 101940, Note_on_c, 0, 70, 100
2, 102000, Note_on_c, 0, 70, 0
2, 102000, Note_on_c, 0, 72, 100
2, 102120, Note_on_c, 0, 72, 0
2, 102120, Note_on_c, 0, 75, 100
2, 102240, Note_on_c, 0, 75, 0
2, 102240, Note_on_c, 0, 65, 100
2, 102360, Note_on_c, 0, 65, 0
2, 102360, Note_on_c, 0, 67, 100
2, 102420, Note_on_c, 0, 67, 0
2, 102420, Note_on_c, 0, 69, 100
2, 102480, Note_on_c, 0, 69, 0
2, 102480, Note_on_c, 0, 70, 100
2, 102600, Note_on_c, 0, 70, 0
2, 102600, Note_on_c, 0, 74, 100
2, 102720, Note_on_c, 0, 74, 0
2, 102720, Note_on_c, 0, 63, 100
2, 102840, Note_on_c, 0, 63, 0
2, 102840, Note_on_c, 0, 79, 100
2, 102900, Note_on_c, 0, 79, 0
2, 102900, Note_on_c, 0, 77, 100
2, 102960, Note_on_c, 0, 77, 0
2, 102960, Note_on_c, 0, 75, 100
2, 103080, Note_on_c, 0, 75, 0
2, 103080, Note_on_c, 0, 72, 100
2, 103140, Note_on_c, 0, 72, 0
2, 103140, Note_on_c, 0, 70, 100
2, 103200, Note_on_c, 0, 70, 0
2, 103200, Note_on_c, 0, 69, 100
2, 103320, Note_on_c, 0, 69, 0
2, 103320, Note_on_c, 0, 72, 100
2, 103380, Note_on_c, 0, 72, 0
2, 103380, Note_on_c, 0, 70, 100
2, 103440, Note_on_c, 0, 70, 0
2, 103440, Note_on_c, 0, 69, 100
2, 103560, Note_on_c, 0, 69, 0
2, 103560, Note_on_c, 0, 66, 100
2, 103620, Note_on_c, 0, 66, 0
2, 103620, Note_on_c, 0, 64, 100
2, 103680, Note_on_c, 0, 64, 0
2, 103680, Note_on_c, 0, 62, 100
2, 103800, Note_on_c, 0, 62, 0
2, 103800, Note_on_c, 0, 66, 100
2, 103920, Note_on_c, 0, 66, 0
2, 103920, Note_on_c, 0, 69, 100
2, 104040, Note_on_c, 0, 69, 0
2, 104040, Note_on_c, 0, 72, 100
2, 104160, Note_on_c, 0, 72, 0
2, 104160, Note_on_c, 0, 75, 100
2, 104240, Note_on_c, 0, 75, 0
2, 104240, Note_on_c, 0, 74, 100
2, 104320, Note_on_c, 0, 74, 0
2, 104320, Note_on_c, 0, 72, 100
2, 104400, Note_on_c, 0, 72, 0
2, 104400, Note_on_c, 0, 78, 100
2, 104480, Note_on_c, 0, 78, 0
2, 104480, Note_on_c, 0, 76, 100
2, 104560, Note_on_c, 0, 76, 0
2, 104560, Note_on_c, 0, 74, 100
2, 104640, Note_on_c, 0, 74, 0
2, 104640, Note_on_c, 0, 82, 100
2, 104760, Note_on_c, 0, 82, 0
2, 104760, Note_on_c, 0, 81, 100
2, 104820, Note_on_c, 0, 81, 0
2, 104820, Note_on_c, 0, 79, 100
2, 104880, Note_on_c, 0, 79, 0
2, 104880, Note_on_c, 0, 78, 100
2, 105000, Note_on_c, 0, 78, 0
2, 105000, Note_on_c, 0, 79, 100
2, 105120, Note_on_c, 0, 79, 0
2, 105120, Note_on_c, 0, 70, 100
2, 105200, Note_on_c, 0, 70, 0
2, 105200, Note_on_c, 0, 72, 100
2, 105280, Note_on_c, 0, 72, 0
2, 105280, Note_on_c, 0, 74, 100
2, 105360, Note_on_c, 0, 74, 0
2, 105360, Note_on_c, 0, 72, 100
2, 105440, Note_on_c, 0, 72, 0
2, 105440, Note_on_c, 0, 70, 100
2, 105520, Note_on_c, 0, 70, 0
2, 105520, Note_on_c, 0, 69, 100
2, 105600, Note_on_c, 0, 69, 0
2, 105600, Note_on_c, 0, 67, 100
2, 105960, Note_on_c, 0, 67, 0
2, 105960, Note_on_c, 0, 69, 100
2, 106080, Note_on_c, 0, 69, 0
2, 106080, Note_on_c, 0, 70, 100
2, 106200, Note_on_c, 0, 70, 0
2, 106200, Note_on_c, 0, 72, 100
2, 106320, Note_on_c, 0, 72, 0
2, 106320, Note_on_c, 0, 74, 100
2, 106440, Note_on_c, 0, 74, 0
2, 106440, Note_on_c, 0, 65, 100
2, 106560, Note_on_c, 0, 65, 0
2, 106560, Note_on_c, 0, 64, 100
2, 106680, Note_on_c, 0, 64, 0
2, 106680, Note_on_c, 0, 60, 100
2, 106800, Note_on_c, 0, 60, 0
2, 106800, Note_on_c, 0, 64, 100
2, 106920, Note_on_c, 0, 64, 0
2, 106920, Note_on_c, 0, 67, 100
2, 107040, Note_on_c, 0, 67, 0
2, 107040, Note_on_c, 0, 70, 100
2, 107160, Note_on_c, 0, 70, 0
2, 107160, Note_on_c, 0, 76, 100
2, 107220, Note_on_c, 0, 76, 0
2, 107220, Note_on_c, 0, 77, 100
2, 107280, Note_on_c, 0, 77, 0
2, 107280, Note_on_c, 0, 79, 100
2, 107400, Note_on_c, 0, 79, 0
2, 107400, Note_on_c, 0, 70, 100
2, 107520, Note_on_c, 0, 70, 0
2, 107520, Note_on_c, 0, 69, 100
2, 107640, Note_on_c, 0, 69, 0
2, 107640, Note_on_c, 0, 65, 100
2, 107760, Note_on_c, 0, 65, 0
2, 107760, Note_on_c, 0, 69, 100
2, 107880, Note_on_c, 0, 69, 0
2, 107880, Note_on_c, 0, 72, 100
2, 108000, Note_on_c, 0, 72, 0
2, 108000, Note_on_c, 0, 77, 100
2, 108120, Note_on_c, 0, 77, 0
2, 108120, Note_on_c, 0, 69, 100
2, 108240, Note_on_c, 0, 69, 0
2, 108240, Note_on_c, 0, 67, 100
2, 108360, Note_on_c, 0, 67, 0
2, 108360, Note_on_c, 0, 65, 100
2, 108480, Note_on_c, 0, 65, 0
2, 108480, Note_on_c, 0, 60, 100
2, 108600, Note_on_c, 0, 60, 0
2, 108600, Note_on_c, 0, 67, 100
2, 108720, Note_on_c, 0, 67, 0
2, 108720, Note_on_c, 0, 72, 100
2, 108840, Note_on_c, 0, 72, 0
2, 108840, Note_on_c, 0, 74, 100
2, 108960, Note_on_c, 0, 74, 0
2, 108960, Note_on_c, 0, 76, 100
2, 109080, Note_on_c, 0, 76, 0
2, 109080, Note_on_c, 0, 70, 100
2, 109200, Note_on_c, 0, 70, 0
2, 109200, Note_on_c, 0, 69, 100
2, 109320, Note_on_c, 0, 69, 0
2, 109320, Note_on_c, 0, 67, 100
2, 109440, Note_on_c, 0, 67, 0
2, 109440, Note_on_c, 0, 65, 100
2, 109560, Note_on_c, 0, 65, 0
2, 109560, Note_on_c, 0, 62, 100
2, 109680, Note_on_c, 0, 62, 0
2, 109680, Note_on_c, 0, 65, 100
2, 109800, Note_on_c, 0, 65, 0
2, 109800, Note_on_c, 0, 69, 100
2, 109920, Note_on_c, 0, 69, 0
2, 109920, Note_on_c, 0, 74, 100
2, 110040, Note_on_c, 0, 74, 0
2, 110040, Note_on_c, 0, 65, 100
2, 110160, Note_on_c, 0, 65, 0
2, 110160, Note_on_c, 0, 64, 100
2, 110280, Note_on_c, 0, 64, 0
2, 110280, Note_on_c, 0, 62, 100
2, 110400, Note_on_c, 0, 62, 0
2, 110400, Note_on_c, 0, 57, 100
2, 110520, Note_on_c, 0, 57, 0
2, 110520, Note_on_c, 0, 64, 100
2, 110640, Note_on_c, 0, 64, 0
2, 110640, Note_on_c, 0, 69, 100
2, 110760, Note_on_c, 0, 69, 0
2, 110760, Note_on_c, 0, 70, 100
2, 110880, Note_on_c, 0, 70, 0
2, 110880, Note_on_c, 0, 72, 100
2, 111000, Note_on_c, 0, 72, 0
2, 111000, Note_on_c, 0, 67, 100
2, 111120, Note_on_c, 0, 67, 0
2, 111120, Note_on_c, 0, 65, 100
2, 111240, Note_on_c, 0, 65, 0
2, 111240, Note_on_c, 0, 63, 100
2, 111360, Note_on_c, 0, 63, 0
2, 111360, Note_on_c, 0, 62, 100
2, 111480, Note_on_c, 0, 62, 0
2, 111480, Note_on_c, 0, 58, 100
2, 111600, Note_on_c, 0, 58, 0
2, 111600, Note_on_c, 0, 62, 100
2, 111720, Note_on_c, 0, 62, 0
2, 111720, Note_on_c, 0, 65, 100
2, 111840, Note_on_c, 0, 65, 0
2, 111840, Note_on_c, 0, 70, 100
2, 111960, Note_on_c, 0, 70, 0
2, 111960, Note_on_c, 0, 69, 100
2, 112080, Note_on_c, 0, 69, 0
2, 112080, Note_on_c, 0, 67, 100
2, 112200, Note_on_c, 0, 67, 0
2, 112200, Note_on_c, 0, 65, 100
2, 112320, Note_on_c, 0, 65, 0
2, 112320, Note_on_c, 0, 76, 100
2, 112440, Note_on_c, 0, 76, 0
2, 112440, Note_on_c, 0, 77, 100
2, 112500, Note_on_c, 0, 77, 0
2, 112500, Note_on_c, 0, 79, 100
2, 112560, Note_on_c, 0, 79, 0
2, 112560, Note_on_c, 0, 77, 100
2, 112680, Note_on_c, 0, 77, 0
2, 112680, Note_on_c, 0, 76, 100
2, 112800, Note_on_c, 0, 76, 0
2, 112800, Note_on_c, 0, 74, 100
2, 112920, Note_on_c, 0, 74, 0
2, 112920, Note_on_c, 0, 72, 100
2, 113040, Note_on_c, 0, 72, 0
2, 113040, Note_on_c, 0, 70, 100
2, 113160, Note_on_c, 0, 70, 0
2, 113160, Note_on_c, 0, 79, 100
2, 113280, Note_on_c, 0, 79, 0
2, 113280, Note_on_c, 0, 69, 100
2, 113340, Note_on_c, 0, 69, 0
2, 113340, Note_on_c, 0, 67, 100
2, 113400, Note_on_c, 0, 67, 0
2, 113400, Note_on_c, 0, 65, 100
2, 113460, Note_on_c, 0, 65, 0
2, 113460, Note_on_c, 0, 64, 100
2, 113520, Note_on_c, 0, 64, 0
2, 113520, Note_on_c, 0, 65, 100
2, 113640, Note_on_c, 0, 65, 0
2, 113640, Note_on_c, 0, 58, 100
2, 113760, Note_on_c, 0, 58, 0
2, 113760, Note_on_c, 0, 60, 100
2, 113880, Note_on_c, 0, 60, 0
2, 113880, Note_on_c, 0, 64, 100
2, 114000, Note_on_c, 0, 64, 0
2, 114000, Note_on_c, 0, 67, 100
2, 114120, Note_on_c, 0, 67, 0
2, 114120, Note_on_c, 0, 69, 100
2, 114240, Note_on_c, 0, 69, 0
2, 114240, Note_on_c, 0, 70, 100
2, 114360, Note_on_c, 0, 70, 0
2, 114360, Note_on_c, 0, 69, 100
2, 114480, Note_on_c, 0, 69, 0
2, 114480, Note_on_c, 0, 67, 100
2, 114600, Note_on_c, 0, 67, 0
2, 114600, Note_on_c, 0, 65, 100
2, 114720, Note_on_c, 0, 65, 0
2, 114720, Note_on_c, 0, 81, 100
2, 114840, Note_on_c, 0, 81, 0
2, 114840, Note_on_c, 0, 76, 100
2, 114960, Note_on_c, 0, 76, 0
2, 114960, Note_on_c, 0, 77, 100
2, 115080, Note_on_c, 0, 77, 0
2, 115080, Note_on_c, 0, 74, 100
2, 115200, Note_on_c, 0, 74, 0
2, 115200, Note_on_c, 0, 71, 100
2, 115320, Note_on_c, 0, 71, 0
2, 115320, Note_on_c, 0, 74, 100
2, 115440, Note_on_c, 0, 74, 0
2, 115440, Note_on_c, 0, 77, 100
2, 115560, Note_on_c, 0, 77, 0
2, 115560, Note_on_c, 0, 81, 100
2, 115680, Note_on_c, 0, 81, 0
2, 115680, Note_on_c, 0, 79, 100
2, 115800, Note_on_c, 0, 79, 0
2, 115800, Note_on_c, 0, 76, 100
2, 115920, Note_on_c, 0, 76, 0
2, 115920, Note_on_c, 0, 73, 100
2, 116040, Note_on_c, 0, 73, 0
2, 116040, Note_on_c, 0, 79, 100
2, 116160, Note_on_c, 0, 79, 0
2, 116160, Note_on_c, 0, 62, 100
2, 116280, Note_on_c, 0, 62, 0
2, 116280, Note_on_c, 0, 69, 100
2, 116400, Note_on_c, 0, 69, 0
2, 116400, Note_on_c, 0, 73, 100
2, 116520, Note_on_c, 0, 73, 0
2, 116520, Note_on_c, 0, 79, 100
2, 116640, Note_on_c, 0, 79, 0
2, 116640, Note_on_c, 0, 77, 100
2, 116760, Note_on_c, 0, 77, 0
2, 116760, Note_on_c, 0, 73, 100
2, 116880, Note_on_c, 0, 73, 0
2, 116880, Note_on_c, 0, 74, 100
2, 117000, Note_on_c, 0, 74, 0
2, 117000, Note_on_c, 0, 70, 100
2, 117120, Note_on_c, 0, 70, 0
2, 117120, Note_on_c, 0, 67, 100
2, 117240, Note_on_c, 0, 67, 0
2, 117240, Note_on_c, 0, 70, 100
2, 117360, Note_on_c, 0, 70, 0
2, 117360, Note_on_c, 0, 74, 100
2, 117480, Note_on_c, 0, 74, 0
2, 117480, Note_on_c, 0, 77, 100
2, 117600, Note_on_c, 0, 77, 0
2, 117600, Note_on_c, 0, 75, 100
2, 117720, Note_on_c, 0, 75, 0
2, 117720, Note_on_c, 0, 72, 100
2, 117840, Note_on_c, 0, 72, 0
2, 117840, Note_on_c, 0, 69, 100
2, 117960, Note_on_c, 0, 69, 0
2, 117960, Note_on_c, 0, 75, 100
2, 118080, Note_on_c, 0, 75, 0
2, 118080, Note_on_c, 0, 58, 100
2, 118200, Note_on_c, 0, 58, 0
2, 118200, Note_on_c, 0, 65, 100
2, 118320, Note_on_c, 0, 65, 0
2, 118320, Note_on_c, 0, 69, 100
2, 118440, Note_on_c, 0, 69, 0
2, 118440, Note_on_c, 0, 75, 100
2, 118560, Note_on_c, 0, 75, 0
2, 118560, Note_on_c, 0, 74, 100
2, 118680, Note_on_c, 0, 74, 0
2, 118680, Note_on_c, 0, 69, 100
2, 118800, Note_on_c, 0, 69, 0
2, 118800, Note_on_c, 0, 70, 100
2, 118920, Note_on_c, 0, 70, 0
2, 118920, Note_on_c, 0, 67, 100
2, 119040, Note_on_c, 0, 67, 0
2, 119040, Note_on_c, 0, 64, 100
2, 119160, Note_on_c, 0, 64, 0
2, 119160, Note_on_c, 0, 67, 100
2, 119280, Note_on_c, 0, 67, 0
2, 119280, Note_on_c, 0, 70, 100
2, 119400, Note_on_c, 0, 70, 0
2, 119400, Note_on_c, 0, 74, 100
2, 119520, Note_on_c, 0, 74, 0
2, 119520, Note_on_c, 0, 72, 100
2, 119640, Note_on_c, 0, 72, 0
2, 119640, Note_on_c, 0, 69, 100
2, 119760, Note_on_c, 0, 69, 0
2, 119760, Note_on_c, 0, 66, 100
2, 119880, Note_on_c, 0, 66, 0
2, 119880, Note_on_c, 0, 72, 100
2, 120000, Note_on_c, 0, 72, 0
2, 120000, Note_on_c, 0, 70, 100
2, 120120, Note_on_c, 0, 70, 0
2, 120120, Note_on_c, 0, 69, 100
2, 120240, Note_on_c, 0, 69, 0
2, 120240, Note_on_c, 0, 67, 100
2, 120360, Note_on_c, 0, 67, 0
2, 120360, Note_on_c, 0, 65, 100
2, 120480, Note_on_c, 0, 65, 0
2, 120480, Note_on_c, 0, 63, 100
2, 120600, Note_on_c, 0, 63, 0
2, 120600, Note_on_c, 0, 62, 100
2, 120720, Note_on_c, 0, 62, 0
2, 120720, Note_on_c, 0, 63, 100
2, 120840, Note_on_c, 0, 63, 0
2, 120840, Note_on_c, 0, 67, 100
2, 120960, Note_on_c, 0, 67, 0
2, 120960, Note_on_c, 0, 70, 100
2, 121080, Note_on_c, 0, 70, 0
2, 121080, Note_on_c, 0, 69, 100
2, 121200, Note_on_c, 0, 69, 0
2, 121200, Note_on_c, 0, 70, 100
2, 121320, Note_on_c, 0, 70, 0
2, 121320, Note_on_c, 0, 75, 100
2, 121440, Note_on_c, 0, 75, 0
2, 121440, Note_on_c, 0, 79, 100
2, 121560, Note_on_c, 0, 79, 0
2, 121560, Note_on_c, 0, 78, 100
2, 121680, Note_on_c, 0, 78, 0
2, 121680, Note_on_c, 0, 79, 100
2, 121800, Note_on_c, 0, 79, 0
2, 121800, Note_on_c, 0, 82, 100
2, 121920, Note_on_c, 0, 82, 0
2, 121920, Note_on_c, 0, 73, 100
2, 122040, Note_on_c, 0, 73, 0
2, 122040, Note_on_c, 0, 69, 100
2, 122100, Note_on_c, 0, 69, 0
2, 122100, Note_on_c, 0, 71, 100
2, 122160, Note_on_c, 0, 71, 0
2, 122160, Note_on_c, 0, 73, 100
2, 122280, Note_on_c, 0, 73, 0
2, 122280, Note_on_c, 0, 76, 100
2, 122400, Note_on_c, 0, 76, 0
2, 122400, Note_on_c, 0, 67, 100
2, 122520, Note_on_c, 0, 67, 0
2, 122520, Note_on_c, 0, 70, 100
2, 122580, Note_on_c, 0, 70, 0
2, 122580, Note_on_c, 0, 69, 100
2, 122640, Note_on_c, 0, 69, 0
2, 122640, Note_on_c, 0, 67, 100
2, 122760, Note_on_c, 0, 67, 0
2, 122760, Note_on_c, 0, 65, 100
2, 122820, Note_on_c, 0, 65, 0
2, 122820, Note_on_c, 0, 64, 100
2, 122880, Note_on_c, 0, 64, 0
2, 122880, Note_on_c, 0, 65, 100
2, 123000, Note_on_c, 0, 65, 0
2, 123000, Note_on_c, 0, 69, 100
2, 123060, Note_on_c, 0, 69, 0
2, 123060, Note_on_c, 0, 67, 100
2, 123120, Note_on_c, 0, 67, 0
2, 123120, Note_on_c, 0, 65, 100
2, 123240, Note_on_c, 0, 65, 0
2, 123240, Note_on_c, 0, 64, 100
2, 123300, Note_on_c, 0, 64, 0
2, 123300, Note_on_c, 0, 62, 100
2, 123360, Note_on_c, 0, 62, 0
2, 123360, Note_on_c, 0, 57, 100
2, 123480, Note_on_c, 0, 57, 0
2, 123480, Note_on_c, 0, 64, 100
2, 123600, Note_on_c, 0, 64, 0
2, 123600, Note_on_c, 0, 74, 100
2, 123720, Note_on_c, 0, 74, 0
2, 123720, Note_on_c, 0, 73, 100
2, 123840, Note_on_c, 0, 73, 0
2, 123840, Note_on_c, 0, 74, 100
2, 124520, Note_on_c, 0, 74, 0
2, 124520, End_track
3, 0, Start_track
3, 0, MIDI_port, 0
3, 0, Title_t, "--------------------------------------"
3, 0, Program_c, 1, 40
3, 0, Control_c, 1, 7, 100
3, 0, Control_c, 1, 10, 74
3, 1800, Note_on_c, 1, 62, 100
3, 1920, Note_on_c, 1, 62, 0
3, 1920, Note_on_c, 1, 62, 100
3, 2280, Note_on_c, 1, 62, 0
3, 31680, Note_on_c, 1, 81, 100
3, 32520, Note_on_c, 1, 81, 0
3, 32520, Note_on_c, 1, 62, 100
3, 32640, Note_on_c, 1, 62, 0
3, 32640, Note_on_c, 1, 62, 100
3, 33000, Note_on_c, 1, 62, 0
3, 62400, Note_on_c, 1, 81, 100
3, 63240, Note_on_c, 1, 81, 0
3, 63240, Note_on_c, 1, 76, 100
3, 63360, Note_on_c, 1, 76, 0
3, 63360, Note_on_c, 1, 76, 100
3, 63720, Note_on_c, 1, 76, 0
3, 93120, Note_on_c, 1, 62, 100
3, 93960, Note_on_c, 1, 62, 0
3, 93960, Note_on_c, 1, 76, 100
3, 94080, Note_on_c, 1, 76, 0
3, 94080, Note_on_c, 1, 76, 100
3, 94440, Note_on_c, 1, 76, 0
3, 123840, Note_on_c, 1, 62, 100
3, 124520, Note_on_c, 1, 62, 0
3, 124520, End_track
4, 0, Start_track
4, 0, MIDI_port, 0
4, 0, Title_t, "Johann Sebastian Bach  (1685-1750)"
4, 0, Program_c, 2, 40
4, 0, Control_c, 2, 7, 100
4, 0, Control_c, 2, 10, 54
4, 31680, Note_on_c, 2, 73, 100
4, 32520, Note_on_c, 2, 73, 0
4, 62400, Note_on_c, 2, 64, 100
4, 63240, Note_on_c, 2, 64, 0
4, 63240, End_track
5, 0, Start_track
5, 0, MIDI_port, 0
5, 0, Title_t, "Six Sonatas and Partitas for Solo Violin"
5, 0, Program_c, 3, 40
5, 0, Control_c, 3, 7, 100
5, 0, Control_c, 3, 10, 44
5, 31680, Note_on_c, 3, 57, 100
5, 32520, Note_on_c, 3, 57, 0
5, 62400, Note_on_c, 3, 57, 100
5, 63240, Note_on_c, 3, 57, 0
5, 63240, End_track
6, 0, Start_track
6, 0, MIDI_port, 0
6, 0, Title_t, "--------------------------------------"
6, 0, End_track
7, 0, Start_track
7, 0, MIDI_port, 0
7, 0, Title_t, "Partita No. 2 in D minor - BWV 1004"
7, 0, End_track
8, 0, Start_track
8, 0, MIDI_port, 0
8, 0, Title_t, "1st Movement: Allemande"
8, 0, End_track
9, 0, Start_track
9, 0, MIDI_port, 0
9, 0, Title_t, "--------------------------------------"
9, 0, End_track
10, 0, Start_track
10, 0, MIDI_port, 0
10, 0, Title_t, "Sequenced with Cakewalk Pro Audio by"
10, 0, End_track
11, 0, Start_track
11, 0, MIDI_port, 0
11, 0, Title_t, "David J. Grossman - dave@unpronounceable.com"
11, 0, End_track
12, 0, Start_track
12, 0, MIDI_port, 0
12, 0, Title_t, "This and other Bach MIDI files can be found at:"
12, 0, End_track
13, 0, Start_track
13, 0, MIDI_port, 0
13, 0, Title_t, "Dave's J.S. Bach Page"
13, 0, End_track
14, 0, Start_track
14, 0, MIDI_port, 0
14, 0, Title_t, "http://www.unpronounceable.com/bach"
14, 0, End_track
15, 0, Start_track
15, 0, MIDI_port, 0
15, 0, Title_t, "--------------------------------------"
15, 0, End_track
16, 0, Start_track
16, 0, MIDI_port, 0
16, 0, Title_t, "Original Filename: vp2-1all.mid"
16, 0, End_track
17, 0, Start_track
17, 0, MIDI_port, 0
17, 0, Title_t, "Last Modified: February 22, 1997"
17, 0, End_track
0, 0, End_of_file
