0, 0, Header, 1, 18, 480
1, 0, Start_track
1, 0, Title_t, "Chaconne"
1, 0, Title_t, "from Partita No.2 for solo Violin BWV 1004"
1, 0, Text_t, "J.S. Bach\012"
1, 0, SMPTE_offset, 96, 0, 3, 0, 0
1, 0, Time_signature, 3, 2, 24, 8
1, 0, Key_signature, -1, "major"
1, 0, Tempo, 1000000
1, 126720, Marker_t, "arpeggio"
1, 190080, Key_signature, 2, "major"
1, 190080, Marker_t, "D Major"
1, 288000, Marker_t, "arpeggio"
1, 299520, Key_signature, -1, "major"
1, 299520, Marker_t, "D minor"
1, 361440, Tempo, 1000000
1, 361480, Tempo, 1001669
1, 361520, Tempo, 1003344
1, 361548, Tempo, 1005025
1, 361588, Tempo, 1006711
1, 361620, Tempo, 1008403
1, 361660, Tempo, 1010101
1, 361700, Tempo, 1011804
1, 361728, Tempo, 1013514
1, 361768, Tempo, 1015228
1, 361800, Tempo, 1016949
1, 361840, Tempo, 1018676
1, 361880, Tempo, 1020408
1, 361908, Tempo, 1022147
1, 361948, Tempo, 1023891
1, 361980, Tempo, 1025641
1, 362020, Tempo, 1027397
1, 362060, Tempo, 1029160
1, 362088, Tempo, 1030928
1, 362128, Tempo, 1032702
1, 362160, Tempo, 1034483
1, 362200, Tempo, 1036269
1, 362240, Tempo, 1038062
1, 362268, Tempo, 1039861
1, 362308, Tempo, 1041667
1, 362340, Tempo, 1043478
1, 362380, Tempo, 1045296
1, 362420, Tempo, 1047120
1, 362448, Tempo, 1048951
1, 362488, Tempo, 1050788
1, 362520, Tempo, 1052632
1, 362560, Tempo, 1054482
1, 362600, Tempo, 1056338
1, 362628, Tempo, 1058201
1, 362668, Tempo, 1060071
1, 362700, Tempo, 1061947
1, 362740, Tempo, 1063830
1, 362780, Tempo, 1065719
1, 362808, Tempo, 1067616
1, 362848, Tempo, 1069519
1, 362880, Tempo, 1071429
1, 362920, Tempo, 1073345
1, 362960, Tempo, 1075269
1, 362988, Tempo, 1077199
1, 363028, Tempo, 1079137
1, 363060, Tempo, 1081081
1, 363100, Tempo, 1083032
1, 363140, Tempo, 1084991
1, 363168, Tempo, 1086957
1, 363208, Tempo, 1088929
1, 363240, Tempo, 1090909
1, 363280, Tempo, 1092896
1, 363320, Tempo, 1094891
1, 363348, Tempo, 1096892
1, 363388, Tempo, 1098901
1, 363420, Tempo, 1100917
1, 363460, Tempo, 1102941
1, 363500, Tempo, 1104972
1, 363528, Tempo, 1107011
1, 363568, Tempo, 1109057
1, 363600, Tempo, 1111111
1, 363640, Tempo, 1113173
1, 363680, Tempo, 1115242
1, 363708, Tempo, 1117318
1, 363748, Tempo, 1119403
1, 363780, Tempo, 1121495
1, 363820, Tempo, 1123596
1, 363860, Tempo, 1125704
1, 363888, Tempo, 1127820
1, 363928, Tempo, 1129944
1, 363960, Tempo, 1132075
1, 364000, Tempo, 1134216
1, 364040, Tempo, 1136364
1, 364068, Tempo, 1138520
1, 364108, Tempo, 1140684
1, 364140, Tempo, 1142857
1, 364180, Tempo, 1145038
1, 364220, Tempo, 1147228
1, 364248, Tempo, 1149425
1, 364288, Tempo, 1151631
1, 364320, Tempo, 1153846
1, 364360, Tempo, 1156069
1, 364400, Tempo, 1158301
1, 364428, Tempo, 1160542
1, 364468, Tempo, 1162791
1, 364500, Tempo, 1165049
1, 364540, Tempo, 1167315
1, 364580, Tempo, 1169591
1, 364608, Tempo, 1171875
1, 364648, Tempo, 1174168
1, 364680, Tempo, 1176471
1, 364720, Tempo, 1178782
1, 364760, Tempo, 1181102
1, 364788, Tempo, 1183432
1, 364828, Tempo, 1185771
1, 364860, Tempo, 1188119
1, 364900, Tempo, 1190476
1, 364940, Tempo, 1192843
1, 364968, Tempo, 1195219
1, 365008, Tempo, 1197605
1, 365040, Tempo, 1200000
1, 365080, Tempo, 1202405
1, 365120, Tempo, 1204819
1, 365148, Tempo, 1207243
1, 365188, Tempo, 1209677
1, 365220, Tempo, 1212121
1, 365260, Tempo, 1214575
1, 365300, Tempo, 1217039
1, 365328, Tempo, 1219512
1, 365368, Tempo, 1221996
1, 365400, Tempo, 1224490
1, 365440, Tempo, 1226994
1, 365480, Tempo, 1229508
1, 365508, Tempo, 1232033
1, 365548, Tempo, 1234568
1, 365580, Tempo, 1237113
1, 365620, Tempo, 1239669
1, 365660, Tempo, 1242236
1, 365688, Tempo, 1244813
1, 365728, Tempo, 1247401
1, 365760, Tempo, 1250000
1, 365760, End_track
2, 0, Start_track
2, 0, MIDI_port, 0
2, 0, Title_t, "Solo Violin"
2, 0, Program_c, 0, 40
2, 0, Control_c, 0, 7, 100
2, 0, Control_c, 0, 10, 54
2, 480, Note_on_c, 0, 69, 100
2, 1200, Note_on_c, 0, 69, 0
2, 1200, Note_on_c, 0, 69, 100
2, 1440, Note_on_c, 0, 69, 0
2, 1440, Note_on_c, 0, 76, 100
2, 1920, Note_on_c, 0, 76, 0
2, 1920, Note_on_c, 0, 76, 100
2, 2640, Note_on_c, 0, 76, 0
2, 2640, Note_on_c, 0, 76, 100
2, 2880, Note_on_c, 0, 76, 0
2, 2880, Note_on_c, 0, 77, 100
2, 3360, Note_on_c, 0, 77, 0
2, 3360, Note_on_c, 0, 74, 100
2, 4080, Note_on_c, 0, 74, 0
2, 4080, Note_on_c, 0, 72, 100
2, 4320, Note_on_c, 0, 72, 0
2, 4320, Note_on_c, 0, 70, 100
2, 4800, Note_on_c, 0, 70, 0
2, 4800, Note_on_c, 0, 69, 100
2, 5280, Note_on_c, 0, 69, 0
2, 5280, Note_on_c, 0, 67, 100
2, 5400, Note_on_c, 0, 67, 0
2, 5400, Note_on_c, 0, 65, 100
2, 5520, Note_on_c, 0, 65, 0
2, 5520, Note_on_c, 0, 64, 100
2, 5640, Note_on_c, 0, 64, 0
2, 5640, Note_on_c, 0, 65, 100
2, 5760, Note_on_c, 0, 65, 0
2, 5760, Note_on_c, 0, 67, 100
2, 5880, Note_on_c, 0, 67, 0
2, 5880, Note_on_c, 0, 64, 100
2, 6000, Note_on_c, 0, 64, 0
2, 6000, Note_on_c, 0, 65, 100
2, 6120, Note_on_c, 0, 65, 0
2, 6120, Note_on_c, 0, 62, 100
2, 6240, Note_on_c, 0, 62, 0
2, 6240, Note_on_c, 0, 69, 100
2, 6960, Note_on_c, 0, 69, 0
2, 6960, Note_on_c, 0, 69, 100
2, 7200, Note_on_c, 0, 69, 0
2, 7200, Note_on_c, 0, 76, 100
2, 7680, Note_on_c, 0, 76, 0
2, 7680, Note_on_c, 0, 76, 100
2, 8400, Note_on_c, 0, 76, 0
2, 8400, Note_on_c, 0, 76, 100
2, 8640, Note_on_c, 0, 76, 0
2, 8640, Note_on_c, 0, 77, 100
2, 9120, Note_on_c, 0, 77, 0
2, 9120, Note_on_c, 0, 74, 100
2, 9840, Note_on_c, 0, 74, 0
2, 9840, Note_on_c, 0, 74, 100
2, 10080, Note_on_c, 0, 74, 0
2, 10080, Note_on_c, 0, 82, 100
2, 10560, Note_on_c, 0, 82, 0
2, 10560, Note_on_c, 0, 81, 100
2, 10920, Note_on_c, 0, 81, 0
2, 10920, Note_on_c, 0, 79, 100
2, 10980, Note_on_c, 0, 79, 0
2, 10980, Note_on_c, 0, 77, 100
2, 11040, Note_on_c, 0, 77, 0
2, 11040, Note_on_c, 0, 79, 100
2, 11400, Note_on_c, 0, 79, 0
2, 11400, Note_on_c, 0, 76, 100
2, 11520, Note_on_c, 0, 76, 0
2, 11520, Note_on_c, 0, 77, 100
2, 11880, Note_on_c, 0, 77, 0
2, 12960, Note_on_c, 0, 70, 100
2, 13200, Note_on_c, 0, 70, 0
2, 13440, Note_on_c, 0, 69, 100
2, 13680, Note_on_c, 0, 69, 0
2, 14400, Note_on_c, 0, 69, 100
2, 14640, Note_on_c, 0, 69, 0
2, 15240, Note_on_c, 0, 69, 100
2, 15360, Note_on_c, 0, 69, 0
2, 15360, Note_on_c, 0, 67, 100
2, 15720, Note_on_c, 0, 67, 0
2, 15720, Note_on_c, 0, 65, 100
2, 15840, Note_on_c, 0, 65, 0
2, 15840, Note_on_c, 0, 64, 100
2, 16200, Note_on_c, 0, 64, 0
2, 16200, Note_on_c, 0, 62, 100
2, 16320, Note_on_c, 0, 62, 0
2, 16320, Note_on_c, 0, 64, 100
2, 16680, Note_on_c, 0, 64, 0
2, 16680, Note_on_c, 0, 67, 100
2, 16800, Note_on_c, 0, 67, 0
2, 16800, Note_on_c, 0, 65, 100
2, 17160, Note_on_c, 0, 65, 0
2, 17160, Note_on_c, 0, 64, 100
2, 17280, Note_on_c, 0, 64, 0
2, 17280, Note_on_c, 0, 62, 100
2, 17640, Note_on_c, 0, 62, 0
2, 18720, Note_on_c, 0, 62, 100
2, 18960, Note_on_c, 0, 62, 0
2, 19200, Note_on_c, 0, 61, 100
2, 19440, Note_on_c, 0, 61, 0
2, 20160, Note_on_c, 0, 62, 100
2, 20400, Note_on_c, 0, 62, 0
2, 20520, Note_on_c, 0, 64, 100
2, 20640, Note_on_c, 0, 64, 0
2, 20640, Note_on_c, 0, 65, 100
2, 21000, Note_on_c, 0, 65, 0
2, 21000, Note_on_c, 0, 69, 100
2, 21120, Note_on_c, 0, 69, 0
2, 21120, Note_on_c, 0, 67, 100
2, 21480, Note_on_c, 0, 67, 0
2, 21480, Note_on_c, 0, 64, 100
2, 21600, Note_on_c, 0, 64, 0
2, 21600, Note_on_c, 0, 65, 100
2, 21960, Note_on_c, 0, 65, 0
2, 21960, Note_on_c, 0, 67, 100
2, 22080, Note_on_c, 0, 67, 0
2, 22080, Note_on_c, 0, 64, 100
2, 23040, Note_on_c, 0, 64, 0
2, 23040, Note_on_c, 0, 62, 100
2, 23280, Note_on_c, 0, 62, 0
2, 27240, Note_on_c, 0, 70, 100
2, 27360, Note_on_c, 0, 70, 0
2, 27360, Note_on_c, 0, 69, 100
2, 27720, Note_on_c, 0, 69, 0
2, 27720, Note_on_c, 0, 71, 100
2, 27840, Note_on_c, 0, 71, 0
2, 27840, Note_on_c, 0, 73, 100
2, 28200, Note_on_c, 0, 73, 0
2, 28200, Note_on_c, 0, 74, 100
2, 28320, Note_on_c, 0, 74, 0
2, 28320, Note_on_c, 0, 76, 100
2, 28680, Note_on_c, 0, 76, 0
2, 28680, Note_on_c, 0, 73, 100
2, 28800, Note_on_c, 0, 73, 0
2, 28800, Note_on_c, 0, 74, 100
2, 29160, Note_on_c, 0, 74, 0
2, 29160, Note_on_c, 0, 74, 100
2, 29220, Note_on_c, 0, 74, 0
2, 29220, Note_on_c, 0, 76, 100
2, 29280, Note_on_c, 0, 76, 0
2, 29280, Note_on_c, 0, 77, 100
2, 29640, Note_on_c, 0, 77, 0
2, 29640, Note_on_c, 0, 79, 100
2, 29700, Note_on_c, 0, 79, 0
2, 29700, Note_on_c, 0, 81, 100
2, 29760, Note_on_c, 0, 81, 0
2, 29760, Note_on_c, 0, 82, 100
2, 30120, Note_on_c, 0, 82, 0
2, 30120, Note_on_c, 0, 77, 100
2, 30240, Note_on_c, 0, 77, 0
2, 30240, Note_on_c, 0, 76, 100
2, 30600, Note_on_c, 0, 76, 0
2, 30600, Note_on_c, 0, 82, 100
2, 30720, Note_on_c, 0, 82, 0
2, 30720, Note_on_c, 0, 81, 100
2, 31080, Note_on_c, 0, 81, 0
2, 31080, Note_on_c, 0, 79, 100
2, 31200, Note_on_c, 0, 79, 0
2, 31200, Note_on_c, 0, 81, 100
2, 31560, Note_on_c, 0, 81, 0
2, 31560, Note_on_c, 0, 78, 100
2, 31680, Note_on_c, 0, 78, 0
2, 31680, Note_on_c, 0, 79, 100
2, 32040, Note_on_c, 0, 79, 0
2, 32040, Note_on_c, 0, 77, 100
2, 32160, Note_on_c, 0, 77, 0
2, 32160, Note_on_c, 0, 76, 100
2, 32520, Note_on_c, 0, 76, 0
2, 32520, Note_on_c, 0, 74, 100
2, 32580, Note_on_c, 0, 74, 0
2, 32580, Note_on_c, 0, 73, 100
2, 32640, Note_on_c, 0, 73, 0
2, 32640, Note_on_c, 0, 74, 100
2, 33000, Note_on_c, 0, 74, 0
2, 33000, Note_on_c, 0, 76, 100
2, 33120, Note_on_c, 0, 76, 0
2, 33120, Note_on_c, 0, 77, 100
2, 33480, Note_on_c, 0, 77, 0
2, 33480, Note_on_c, 0, 79, 100
2, 33600, Note_on_c, 0, 79, 0
2, 33600, Note_on_c, 0, 74, 100
2, 33960, Note_on_c, 0, 74, 0
2, 33960, Note_on_c, 0, 73, 100
2, 34020, Note_on_c, 0, 73, 0
2, 34020, Note_on_c, 0, 71, 100
2, 34080, Note_on_c, 0, 71, 0
2, 34080, Note_on_c, 0, 73, 100
2, 34440, Note_on_c, 0, 73, 0
2, 34440, Note_on_c, 0, 67, 100
2, 34560, Note_on_c, 0, 67, 0
2, 34560, Note_on_c, 0, 65, 100
2, 34800, Note_on_c, 0, 65, 0
2, 34800, Note_on_c, 0, 77, 100
2, 35040, Note_on_c, 0, 77, 0
2, 35040, Note_on_c, 0, 76, 100
2, 35280, Note_on_c, 0, 76, 0
2, 35280, Note_on_c, 0, 74, 100
2, 35520, Note_on_c, 0, 74, 0
2, 35520, Note_on_c, 0, 73, 100
2, 35760, Note_on_c, 0, 73, 0
2, 35760, Note_on_c, 0, 74, 100
2, 36000, Note_on_c, 0, 74, 0
2, 36000, Note_on_c, 0, 67, 100
2, 36240, Note_on_c, 0, 67, 0
2, 36240, Note_on_c, 0, 69, 100
2, 36360, Note_on_c, 0, 69, 0
2, 36360, Note_on_c, 0, 70, 100
2, 36480, Note_on_c, 0, 70, 0
2, 36480, Note_on_c, 0, 61, 100
2, 36720, Note_on_c, 0, 61, 0
2, 36720, Note_on_c, 0, 70, 100
2, 36960, Note_on_c, 0, 70, 0
2, 36960, Note_on_c, 0, 69, 100
2, 37200, Note_on_c, 0, 69, 0
2, 37200, Note_on_c, 0, 67, 100
2, 37440, Note_on_c, 0, 67, 0
2, 37440, Note_on_c, 0, 65, 100
2, 37680, Note_on_c, 0, 65, 0
2, 37680, Note_on_c, 0, 67, 100
2, 37800, Note_on_c, 0, 67, 0
2, 37800, Note_on_c, 0, 69, 100
2, 37920, Note_on_c, 0, 69, 0
2, 37920, Note_on_c, 0, 58, 100
2, 38160, Note_on_c, 0, 58, 0
2, 38160, Note_on_c, 0, 62, 100
2, 38400, Note_on_c, 0, 62, 0
2, 38400, Note_on_c, 0, 67, 100
2, 38640, Note_on_c, 0, 67, 0
2, 38640, Note_on_c, 0, 74, 100
2, 38760, Note_on_c, 0, 74, 0
2, 38760, Note_on_c, 0, 73, 100
2, 38880, Note_on_c, 0, 73, 0
2, 38880, Note_on_c, 0, 74, 100
2, 39120, Note_on_c, 0, 74, 0
2, 39120, Note_on_c, 0, 65, 100
2, 39360, Note_on_c, 0, 65, 0
2, 39360, Note_on_c, 0, 64, 100
2, 39480, Note_on_c, 0, 64, 0
2, 39480, Note_on_c, 0, 65, 100
2, 39600, Note_on_c, 0, 65, 0
2, 39600, Note_on_c, 0, 67, 100
2, 39720, Note_on_c, 0, 67, 0
2, 39720, Note_on_c, 0, 70, 100
2, 39840, Note_on_c, 0, 70, 0
2, 39840, Note_on_c, 0, 69, 100
2, 39960, Note_on_c, 0, 69, 0
2, 39960, Note_on_c, 0, 67, 100
2, 40080, Note_on_c, 0, 67, 0
2, 40080, Note_on_c, 0, 65, 100
2, 40200, Note_on_c, 0, 65, 0
2, 40200, Note_on_c, 0, 64, 100
2, 40320, Note_on_c, 0, 64, 0
2, 40320, Note_on_c, 0, 65, 100
2, 40440, Note_on_c, 0, 65, 0
2, 40440, Note_on_c, 0, 69, 100
2, 40560, Note_on_c, 0, 69, 0
2, 40560, Note_on_c, 0, 74, 100
2, 40680, Note_on_c, 0, 74, 0
2, 40680, Note_on_c, 0, 77, 100
2, 40800, Note_on_c, 0, 77, 0
2, 40800, Note_on_c, 0, 77, 100
2, 40920, Note_on_c, 0, 77, 0
2, 40920, Note_on_c, 0, 76, 100
2, 41040, Note_on_c, 0, 76, 0
2, 41040, Note_on_c, 0, 79, 100
2, 41160, Note_on_c, 0, 79, 0
2, 41160, Note_on_c, 0, 77, 100
2, 41280, Note_on_c, 0, 77, 0
2, 41280, Note_on_c, 0, 76, 100
2, 41400, Note_on_c, 0, 76, 0
2, 41400, Note_on_c, 0, 74, 100
2, 41520, Note_on_c, 0, 74, 0
2, 41520, Note_on_c, 0, 73, 100
2, 41640, Note_on_c, 0, 73, 0
2, 41640, Note_on_c, 0, 74, 100
2, 41760, Note_on_c, 0, 74, 0
2, 41760, Note_on_c, 0, 67, 100
2, 41880, Note_on_c, 0, 67, 0
2, 41880, Note_on_c, 0, 70, 100
2, 42000, Note_on_c, 0, 70, 0
2, 42000, Note_on_c, 0, 66, 100
2, 42120, Note_on_c, 0, 66, 0
2, 42120, Note_on_c, 0, 67, 100
2, 42240, Note_on_c, 0, 67, 0
2, 42240, Note_on_c, 0, 61, 100
2, 42360, Note_on_c, 0, 61, 0
2, 42360, Note_on_c, 0, 64, 100
2, 42480, Note_on_c, 0, 64, 0
2, 42480, Note_on_c, 0, 67, 100
2, 42600, Note_on_c, 0, 67, 0
2, 42600, Note_on_c, 0, 70, 100
2, 42720, Note_on_c, 0, 70, 0
2, 42720, Note_on_c, 0, 69, 100
2, 42840, Note_on_c, 0, 69, 0
2, 42840, Note_on_c, 0, 67, 100
2, 42960, Note_on_c, 0, 67, 0
2, 42960, Note_on_c, 0, 76, 100
2, 43080, Note_on_c, 0, 76, 0
2, 43080, Note_on_c, 0, 67, 100
2, 43200, Note_on_c, 0, 67, 0
2, 43200, Note_on_c, 0, 65, 100
2, 43320, Note_on_c, 0, 65, 0
2, 43320, Note_on_c, 0, 61, 100
2, 43440, Note_on_c, 0, 61, 0
2, 43440, Note_on_c, 0, 62, 100
2, 43560, Note_on_c, 0, 62, 0
2, 43560, Note_on_c, 0, 57, 100
2, 43680, Note_on_c, 0, 57, 0
2, 43680, Note_on_c, 0, 58, 100
2, 43800, Note_on_c, 0, 58, 0
2, 43800, Note_on_c, 0, 62, 100
2, 43920, Note_on_c, 0, 62, 0
2, 43920, Note_on_c, 0, 67, 100
2, 44040, Note_on_c, 0, 67, 0
2, 44040, Note_on_c, 0, 69, 100
2, 44160, Note_on_c, 0, 69, 0
2, 44160, Note_on_c, 0, 70, 100
2, 44280, Note_on_c, 0, 70, 0
2, 44280, Note_on_c, 0, 75, 100
2, 44400, Note_on_c, 0, 75, 0
2, 44400, Note_on_c, 0, 73, 100
2, 44520, Note_on_c, 0, 73, 0
2, 44520, Note_on_c, 0, 74, 100
2, 44640, Note_on_c, 0, 74, 0
2, 44640, Note_on_c, 0, 68, 100
2, 44760, Note_on_c, 0, 68, 0
2, 44760, Note_on_c, 0, 71, 100
2, 44880, Note_on_c, 0, 71, 0
2, 44880, Note_on_c, 0, 74, 100
2, 45000, Note_on_c, 0, 74, 0
2, 45000, Note_on_c, 0, 77, 100
2, 45120, Note_on_c, 0, 77, 0
2, 45120, Note_on_c, 0, 76, 100
2, 45240, Note_on_c, 0, 76, 0
2, 45240, Note_on_c, 0, 79, 100
2, 45360, Note_on_c, 0, 79, 0
2, 45360, Note_on_c, 0, 73, 100
2, 45480, Note_on_c, 0, 73, 0
2, 45480, Note_on_c, 0, 74, 100
2, 45600, Note_on_c, 0, 74, 0
2, 45600, Note_on_c, 0, 57, 100
2, 45720, Note_on_c, 0, 57, 0
2, 45720, Note_on_c, 0, 64, 100
2, 45840, Note_on_c, 0, 64, 0
2, 45840, Note_on_c, 0, 74, 100
2, 45960, Note_on_c, 0, 74, 0
2, 45960, Note_on_c, 0, 73, 100
2, 46080, Note_on_c, 0, 73, 0
2, 46080, Note_on_c, 0, 74, 100
2, 46320, Note_on_c, 0, 74, 0
2, 46320, Note_on_c, 0, 77, 100
2, 46560, Note_on_c, 0, 77, 0
2, 46560, Note_on_c, 0, 82, 100
2, 46800, Note_on_c, 0, 82, 0
2, 46800, Note_on_c, 0, 81, 100
2, 47040, Note_on_c, 0, 81, 0
2, 47040, Note_on_c, 0, 80, 100
2, 47280, Note_on_c, 0, 80, 0
2, 47280, Note_on_c, 0, 62, 100
2, 47520, Note_on_c, 0, 62, 0
2, 47520, Note_on_c, 0, 61, 100
2, 47760, Note_on_c, 0, 61, 0
2, 47760, Note_on_c, 0, 76, 100
2, 48000, Note_on_c, 0, 76, 0
2, 48000, Note_on_c, 0, 81, 100
2, 48240, Note_on_c, 0, 81, 0
2, 48240, Note_on_c, 0, 79, 100
2, 48480, Note_on_c, 0, 79, 0
2, 48480, Note_on_c, 0, 78, 100
2, 48720, Note_on_c, 0, 78, 0
2, 48720, Note_on_c, 0, 60, 100
2, 48960, Note_on_c, 0, 60, 0
2, 48960, Note_on_c, 0, 59, 100
2, 49200, Note_on_c, 0, 59, 0
2, 49200, Note_on_c, 0, 74, 100
2, 49440, Note_on_c, 0, 74, 0
2, 49440, Note_on_c, 0, 79, 100
2, 49680, Note_on_c, 0, 79, 0
2, 49680, Note_on_c, 0, 77, 100
2, 49920, Note_on_c, 0, 77, 0
2, 49920, Note_on_c, 0, 76, 100
2, 50160, Note_on_c, 0, 76, 0
2, 50160, Note_on_c, 0, 58, 100
2, 50400, Note_on_c, 0, 58, 0
2, 50400, Note_on_c, 0, 57, 100
2, 50520, Note_on_c, 0, 57, 0
2, 50520, Note_on_c, 0, 77, 100
2, 50640, Note_on_c, 0, 77, 0
2, 50640, Note_on_c, 0, 76, 100
2, 50760, Note_on_c, 0, 76, 0
2, 50760, Note_on_c, 0, 74, 100
2, 50880, Note_on_c, 0, 74, 0
2, 50880, Note_on_c, 0, 73, 100
2, 51120, Note_on_c, 0, 73, 0
2, 51120, Note_on_c, 0, 69, 100
2, 51360, Note_on_c, 0, 69, 0
2, 51360, Note_on_c, 0, 76, 100
2, 51600, Note_on_c, 0, 76, 0
2, 51600, Note_on_c, 0, 67, 100
2, 51840, Note_on_c, 0, 67, 0
2, 51840, Note_on_c, 0, 65, 100
2, 51960, Note_on_c, 0, 65, 0
2, 51960, Note_on_c, 0, 62, 100
2, 52080, Note_on_c, 0, 62, 0
2, 52080, Note_on_c, 0, 65, 100
2, 52200, Note_on_c, 0, 65, 0
2, 52200, Note_on_c, 0, 69, 100
2, 52320, Note_on_c, 0, 69, 0
2, 52320, Note_on_c, 0, 74, 100
2, 52440, Note_on_c, 0, 74, 0
2, 52440, Note_on_c, 0, 77, 100
2, 52560, Note_on_c, 0, 77, 0
2, 52560, Note_on_c, 0, 82, 100
2, 52680, Note_on_c, 0, 82, 0
2, 52680, Note_on_c, 0, 81, 100
2, 52800, Note_on_c, 0, 81, 0
2, 52800, Note_on_c, 0, 80, 100
2, 52920, Note_on_c, 0, 80, 0
2, 52920, Note_on_c, 0, 83, 100
2, 53040, Note_on_c, 0, 83, 0
2, 53040, Note_on_c, 0, 80, 100
2, 53160, Note_on_c, 0, 80, 0
2, 53160, Note_on_c, 0, 76, 100
2, 53280, Note_on_c, 0, 76, 0
2, 53280, Note_on_c, 0, 73, 100
2, 53400, Note_on_c, 0, 73, 0
2, 53400, Note_on_c, 0, 76, 100
2, 53520, Note_on_c, 0, 76, 0
2, 53520, Note_on_c, 0, 81, 100
2, 53640, Note_on_c, 0, 81, 0
2, 53640, Note_on_c, 0, 79, 100
2, 53760, Note_on_c, 0, 79, 0
2, 53760, Note_on_c, 0, 78, 100
2, 53880, Note_on_c, 0, 78, 0
2, 53880, Note_on_c, 0, 81, 100
2, 54000, Note_on_c, 0, 81, 0
2, 54000, Note_on_c, 0, 78, 100
2, 54120, Note_on_c, 0, 78, 0
2, 54120, Note_on_c, 0, 72, 100
2, 54240, Note_on_c, 0, 72, 0
2, 54240, Note_on_c, 0, 69, 100
2, 54360, Note_on_c, 0, 69, 0
2, 54360, Note_on_c, 0, 66, 100
2, 54480, Note_on_c, 0, 66, 0
2, 54480, Note_on_c, 0, 62, 100
2, 54600, Note_on_c, 0, 62, 0
2, 54600, Note_on_c, 0, 60, 100
2, 54720, Note_on_c, 0, 60, 0
2, 54720, Note_on_c, 0, 59, 100
2, 54840, Note_on_c, 0, 59, 0
2, 54840, Note_on_c, 0, 62, 100
2, 54960, Note_on_c, 0, 62, 0
2, 54960, Note_on_c, 0, 67, 100
2, 55080, Note_on_c, 0, 67, 0
2, 55080, Note_on_c, 0, 66, 100
2, 55200, Note_on_c, 0, 66, 0
2, 55200, Note_on_c, 0, 67, 100
2, 55320, Note_on_c, 0, 67, 0
2, 55320, Note_on_c, 0, 75, 100
2, 55440, Note_on_c, 0, 75, 0
2, 55440, Note_on_c, 0, 74, 100
2, 55560, Note_on_c, 0, 74, 0
2, 55560, Note_on_c, 0, 73, 100
2, 55680, Note_on_c, 0, 73, 0
2, 55680, Note_on_c, 0, 82, 100
2, 55800, Note_on_c, 0, 82, 0
2, 55800, Note_on_c, 0, 81, 100
2, 55920, Note_on_c, 0, 81, 0
2, 55920, Note_on_c, 0, 80, 100
2, 56040, Note_on_c, 0, 80, 0
2, 56040, Note_on_c, 0, 81, 100
2, 56160, Note_on_c, 0, 81, 0
2, 56160, Note_on_c, 0, 77, 100
2, 56280, Note_on_c, 0, 77, 0
2, 56280, Note_on_c, 0, 76, 100
2, 56400, Note_on_c, 0, 76, 0
2, 56400, Note_on_c, 0, 74, 100
2, 56520, Note_on_c, 0, 74, 0
2, 56520, Note_on_c, 0, 72, 100
2, 56640, Note_on_c, 0, 72, 0
2, 56640, Note_on_c, 0, 70, 100
2, 56760, Note_on_c, 0, 70, 0
2, 56760, Note_on_c, 0, 69, 100
2, 56880, Note_on_c, 0, 69, 0
2, 56880, Note_on_c, 0, 68, 100
2, 57000, Note_on_c, 0, 68, 0
2, 57000, Note_on_c, 0, 69, 100
2, 57120, Note_on_c, 0, 69, 0
2, 57120, Note_on_c, 0, 61, 100
2, 57240, Note_on_c, 0, 61, 0
2, 57240, Note_on_c, 0, 67, 100
2, 57360, Note_on_c, 0, 67, 0
2, 57360, Note_on_c, 0, 65, 100
2, 57480, Note_on_c, 0, 65, 0
2, 57480, Note_on_c, 0, 64, 100
2, 57600, Note_on_c, 0, 64, 0
2, 57600, Note_on_c, 0, 65, 100
2, 57720, Note_on_c, 0, 65, 0
2, 57720, Note_on_c, 0, 62, 100
2, 57840, Note_on_c, 0, 62, 0
2, 57840, Note_on_c, 0, 64, 100
2, 57960, Note_on_c, 0, 64, 0
2, 57960, Note_on_c, 0, 65, 100
2, 58080, Note_on_c, 0, 65, 0
2, 58080, Note_on_c, 0, 67, 100
2, 58200, Note_on_c, 0, 67, 0
2, 58200, Note_on_c, 0, 69, 100
2, 58320, Note_on_c, 0, 69, 0
2, 58320, Note_on_c, 0, 71, 100
2, 58440, Note_on_c, 0, 71, 0
2, 58440, Note_on_c, 0, 73, 100
2, 58560, Note_on_c, 0, 73, 0
2, 58560, Note_on_c, 0, 74, 100
2, 58680, Note_on_c, 0, 74, 0
2, 58680, Note_on_c, 0, 65, 100
2, 58800, Note_on_c, 0, 65, 0
2, 58800, Note_on_c, 0, 64, 100
2, 58920, Note_on_c, 0, 64, 0
2, 58920, Note_on_c, 0, 62, 100
2, 59040, Note_on_c, 0, 62, 0
2, 59040, Note_on_c, 0, 57, 100
2, 59160, Note_on_c, 0, 57, 0
2, 59160, Note_on_c, 0, 64, 100
2, 59280, Note_on_c, 0, 64, 0
2, 59280, Note_on_c, 0, 74, 100
2, 59400, Note_on_c, 0, 74, 0
2, 59400, Note_on_c, 0, 73, 100
2, 59520, Note_on_c, 0, 73, 0
2, 59520, Note_on_c, 0, 62, 100
2, 59640, Note_on_c, 0, 62, 0
2, 59640, Note_on_c, 0, 66, 100
2, 59760, Note_on_c, 0, 66, 0
2, 59760, Note_on_c, 0, 69, 100
2, 59880, Note_on_c, 0, 69, 0
2, 59880, Note_on_c, 0, 72, 100
2, 60000, Note_on_c, 0, 72, 0
2, 60000, Note_on_c, 0, 72, 100
2, 60120, Note_on_c, 0, 72, 0
2, 60120, Note_on_c, 0, 70, 100
2, 60240, Note_on_c, 0, 70, 0
2, 60240, Note_on_c, 0, 72, 100
2, 60360, Note_on_c, 0, 72, 0
2, 60360, Note_on_c, 0, 69, 100
2, 60480, Note_on_c, 0, 69, 0
2, 60480, Note_on_c, 0, 70, 100
2, 60600, Note_on_c, 0, 70, 0
2, 60600, Note_on_c, 0, 67, 100
2, 60720, Note_on_c, 0, 67, 0
2, 60720, Note_on_c, 0, 65, 100
2, 60840, Note_on_c, 0, 65, 0
2, 60840, Note_on_c, 0, 63, 100
2, 60960, Note_on_c, 0, 63, 0
2, 60960, Note_on_c, 0, 62, 100
2, 61080, Note_on_c, 0, 62, 0
2, 61080, Note_on_c, 0, 60, 100
2, 61200, Note_on_c, 0, 60, 0
2, 61200, Note_on_c, 0, 58, 100
2, 61320, Note_on_c, 0, 58, 0
2, 61320, Note_on_c, 0, 57, 100
2, 61440, Note_on_c, 0, 57, 0
2, 61440, Note_on_c, 0, 55, 100
2, 61560, Note_on_c, 0, 55, 0
2, 61560, Note_on_c, 0, 67, 100
2, 61680, Note_on_c, 0, 67, 0
2, 61680, Note_on_c, 0, 75, 100
2, 61800, Note_on_c, 0, 75, 0
2, 61800, Note_on_c, 0, 74, 100
2, 61920, Note_on_c, 0, 74, 0
2, 61920, Note_on_c, 0, 73, 100
2, 62040, Note_on_c, 0, 73, 0
2, 62040, Note_on_c, 0, 76, 100
2, 62160, Note_on_c, 0, 76, 0
2, 62160, Note_on_c, 0, 69, 100
2, 62280, Note_on_c, 0, 69, 0
2, 62280, Note_on_c, 0, 67, 100
2, 62400, Note_on_c, 0, 67, 0
2, 62400, Note_on_c, 0, 65, 100
2, 62520, Note_on_c, 0, 65, 0
2, 62520, Note_on_c, 0, 74, 100
2, 62640, Note_on_c, 0, 74, 0
2, 62640, Note_on_c, 0, 64, 100
2, 62760, Note_on_c, 0, 64, 0
2, 62760, Note_on_c, 0, 62, 100
2, 62880, Note_on_c, 0, 62, 0
2, 62880, Note_on_c, 0, 57, 100
2, 63000, Note_on_c, 0, 57, 0
2, 63000, Note_on_c, 0, 64, 100
2, 63120, Note_on_c, 0, 64, 0
2, 63120, Note_on_c, 0, 74, 100
2, 63240, Note_on_c, 0, 74, 0
2, 63240, Note_on_c, 0, 73, 100
2, 63360, Note_on_c, 0, 73, 0
2, 63360, Note_on_c, 0, 79, 100
2, 63480, Note_on_c, 0, 79, 0
2, 63480, Note_on_c, 0, 76, 100
2, 63600, Note_on_c, 0, 76, 0
2, 63600, Note_on_c, 0, 77, 100
2, 63720, Note_on_c, 0, 77, 0
2, 63720, Note_on_c, 0, 73, 100
2, 63840, Note_on_c, 0, 73, 0
2, 63840, Note_on_c, 0, 74, 100
2, 63960, Note_on_c, 0, 74, 0
2, 63960, Note_on_c, 0, 72, 100
2, 64080, Note_on_c, 0, 72, 0
2, 64080, Note_on_c, 0, 70, 100
2, 64200, Note_on_c, 0, 70, 0
2, 64200, Note_on_c, 0, 69, 100
2, 64320, Note_on_c, 0, 69, 0
2, 64320, Note_on_c, 0, 67, 100
2, 64440, Note_on_c, 0, 67, 0
2, 64440, Note_on_c, 0, 65, 100
2, 64560, Note_on_c, 0, 65, 0
2, 64560, Note_on_c, 0, 64, 100
2, 64680, Note_on_c, 0, 64, 0
2, 64680, Note_on_c, 0, 62, 100
2, 64800, Note_on_c, 0, 62, 0
2, 64800, Note_on_c, 0, 61, 100
2, 64920, Note_on_c, 0, 61, 0
2, 64920, Note_on_c, 0, 70, 100
2, 65040, Note_on_c, 0, 70, 0
2, 65040, Note_on_c, 0, 69, 100
2, 65160, Note_on_c, 0, 69, 0
2, 65160, Note_on_c, 0, 67, 100
2, 65280, Note_on_c, 0, 67, 0
2, 65280, Note_on_c, 0, 66, 100
2, 65400, Note_on_c, 0, 66, 0
2, 65400, Note_on_c, 0, 62, 100
2, 65520, Note_on_c, 0, 62, 0
2, 65520, Note_on_c, 0, 69, 100
2, 65640, Note_on_c, 0, 69, 0
2, 65640, Note_on_c, 0, 62, 100
2, 65760, Note_on_c, 0, 62, 0
2, 65760, Note_on_c, 0, 60, 100
2, 65880, Note_on_c, 0, 60, 0
2, 65880, Note_on_c, 0, 58, 100
2, 66000, Note_on_c, 0, 58, 0
2, 66000, Note_on_c, 0, 60, 100
2, 66120, Note_on_c, 0, 60, 0
2, 66120, Note_on_c, 0, 57, 100
2, 66240, Note_on_c, 0, 57, 0
2, 66240, Note_on_c, 0, 58, 100
2, 66360, Note_on_c, 0, 58, 0
2, 66360, Note_on_c, 0, 55, 100
2, 66480, Note_on_c, 0, 55, 0
2, 66480, Note_on_c, 0, 57, 100
2, 66600, Note_on_c, 0, 57, 0
2, 66600, Note_on_c, 0, 58, 100
2, 66720, Note_on_c, 0, 58, 0
2, 66720, Note_on_c, 0, 60, 100
2, 66840, Note_on_c, 0, 60, 0
2, 66840, Note_on_c, 0, 62, 100
2, 66960, Note_on_c, 0, 62, 0
2, 66960, Note_on_c, 0, 64, 100
2, 67080, Note_on_c, 0, 64, 0
2, 67080, Note_on_c, 0, 66, 100
2, 67200, Note_on_c, 0, 66, 0
2, 67200, Note_on_c, 0, 67, 100
2, 67320, Note_on_c, 0, 67, 0
2, 67320, Note_on_c, 0, 69, 100
2, 67440, Note_on_c, 0, 69, 0
2, 67440, Note_on_c, 0, 70, 100
2, 67560, Note_on_c, 0, 70, 0
2, 67560, Note_on_c, 0, 69, 100
2, 67680, Note_on_c, 0, 69, 0
2, 67680, Note_on_c, 0, 68, 100
2, 67800, Note_on_c, 0, 68, 0
2, 67800, Note_on_c, 0, 69, 100
2, 67920, Note_on_c, 0, 69, 0
2, 67920, Note_on_c, 0, 64, 100
2, 68040, Note_on_c, 0, 64, 0
2, 68040, Note_on_c, 0, 65, 100
2, 68160, Note_on_c, 0, 65, 0
2, 68160, Note_on_c, 0, 67, 100
2, 68280, Note_on_c, 0, 67, 0
2, 68280, Note_on_c, 0, 61, 100
2, 68400, Note_on_c, 0, 61, 0
2, 68400, Note_on_c, 0, 62, 100
2, 68520, Note_on_c, 0, 62, 0
2, 68520, Note_on_c, 0, 56, 100
2, 68640, Note_on_c, 0, 56, 0
2, 68640, Note_on_c, 0, 57, 100
2, 68760, Note_on_c, 0, 57, 0
2, 68760, Note_on_c, 0, 65, 100
2, 68880, Note_on_c, 0, 65, 0
2, 68880, Note_on_c, 0, 64, 100
2, 69000, Note_on_c, 0, 64, 0
2, 69000, Note_on_c, 0, 61, 100
2, 69120, Note_on_c, 0, 61, 0
2, 69120, Note_on_c, 0, 62, 100
2, 69240, Note_on_c, 0, 62, 0
2, 69240, Note_on_c, 0, 74, 100
2, 69360, Note_on_c, 0, 74, 0
2, 69360, Note_on_c, 0, 69, 100
2, 69480, Note_on_c, 0, 69, 0
2, 69480, Note_on_c, 0, 67, 100
2, 69600, Note_on_c, 0, 67, 0
2, 69600, Note_on_c, 0, 65, 100
2, 69720, Note_on_c, 0, 65, 0
2, 69720, Note_on_c, 0, 64, 100
2, 69840, Note_on_c, 0, 64, 0
2, 69840, Note_on_c, 0, 62, 100
2, 69960, Note_on_c, 0, 62, 0
2, 69960, Note_on_c, 0, 60, 100
2, 70080, Note_on_c, 0, 60, 0
2, 70080, Note_on_c, 0, 58, 100
2, 70200, Note_on_c, 0, 58, 0
2, 70200, Note_on_c, 0, 74, 100
2, 70320, Note_on_c, 0, 74, 0
2, 70320, Note_on_c, 0, 67, 100
2, 70440, Note_on_c, 0, 67, 0
2, 70440, Note_on_c, 0, 65, 100
2, 70560, Note_on_c, 0, 65, 0
2, 70560, Note_on_c, 0, 64, 100
2, 70680, Note_on_c, 0, 64, 0
2, 70680, Note_on_c, 0, 72, 100
2, 70800, Note_on_c, 0, 72, 0
2, 70800, Note_on_c, 0, 67, 100
2, 70920, Note_on_c, 0, 67, 0
2, 70920, Note_on_c, 0, 65, 100
2, 71040, Note_on_c, 0, 65, 0
2, 71040, Note_on_c, 0, 64, 100
2, 71160, Note_on_c, 0, 64, 0
2, 71160, Note_on_c, 0, 62, 100
2, 71280, Note_on_c, 0, 62, 0
2, 71280, Note_on_c, 0, 60, 100
2, 71400, Note_on_c, 0, 60, 0
2, 71400, Note_on_c, 0, 58, 100
2, 71520, Note_on_c, 0, 58, 0
2, 71520, Note_on_c, 0, 57, 100
2, 71640, Note_on_c, 0, 57, 0
2, 71640, Note_on_c, 0, 72, 100
2, 71760, Note_on_c, 0, 72, 0
2, 71760, Note_on_c, 0, 65, 100
2, 71880, Note_on_c, 0, 65, 0
2, 71880, Note_on_c, 0, 63, 100
2, 72000, Note_on_c, 0, 63, 0
2, 72000, Note_on_c, 0, 62, 100
2, 72120, Note_on_c, 0, 62, 0
2, 72120, Note_on_c, 0, 70, 100
2, 72240, Note_on_c, 0, 70, 0
2, 72240, Note_on_c, 0, 65, 100
2, 72360, Note_on_c, 0, 65, 0
2, 72360, Note_on_c, 0, 63, 100
2, 72480, Note_on_c, 0, 63, 0
2, 72480, Note_on_c, 0, 62, 100
2, 72600, Note_on_c, 0, 62, 0
2, 72600, Note_on_c, 0, 60, 100
2, 72720, Note_on_c, 0, 60, 0
2, 72720, Note_on_c, 0, 58, 100
2, 72840, Note_on_c, 0, 58, 0
2, 72840, Note_on_c, 0, 57, 100
2, 72960, Note_on_c, 0, 57, 0
2, 72960, Note_on_c, 0, 55, 100
2, 73080, Note_on_c, 0, 55, 0
2, 73080, Note_on_c, 0, 70, 100
2, 73200, Note_on_c, 0, 70, 0
2, 73200, Note_on_c, 0, 64, 100
2, 73320, Note_on_c, 0, 64, 0
2, 73320, Note_on_c, 0, 62, 100
2, 73440, Note_on_c, 0, 62, 0
2, 73440, Note_on_c, 0, 61, 100
2, 73560, Note_on_c, 0, 61, 0
2, 73560, Note_on_c, 0, 57, 100
2, 73680, Note_on_c, 0, 57, 0
2, 73680, Note_on_c, 0, 61, 100
2, 73800, Note_on_c, 0, 61, 0
2, 73800, Note_on_c, 0, 64, 100
2, 73920, Note_on_c, 0, 64, 0
2, 73920, Note_on_c, 0, 69, 100
2, 74040, Note_on_c, 0, 69, 0
2, 74040, Note_on_c, 0, 64, 100
2, 74160, Note_on_c, 0, 64, 0
2, 74160, Note_on_c, 0, 69, 100
2, 74280, Note_on_c, 0, 69, 0
2, 74280, Note_on_c, 0, 73, 100
2, 74400, Note_on_c, 0, 73, 0
2, 74400, Note_on_c, 0, 76, 100
2, 74520, Note_on_c, 0, 76, 0
2, 74520, Note_on_c, 0, 67, 100
2, 74640, Note_on_c, 0, 67, 0
2, 74640, Note_on_c, 0, 69, 100
2, 74760, Note_on_c, 0, 69, 0
2, 74760, Note_on_c, 0, 64, 100
2, 74880, Note_on_c, 0, 64, 0
2, 74880, Note_on_c, 0, 65, 100
2, 75000, Note_on_c, 0, 65, 0
2, 75000, Note_on_c, 0, 62, 100
2, 75120, Note_on_c, 0, 62, 0
2, 75120, Note_on_c, 0, 65, 100
2, 75240, Note_on_c, 0, 65, 0
2, 75240, Note_on_c, 0, 69, 100
2, 75360, Note_on_c, 0, 69, 0
2, 75360, Note_on_c, 0, 74, 100
2, 75480, Note_on_c, 0, 74, 0
2, 75480, Note_on_c, 0, 69, 100
2, 75600, Note_on_c, 0, 69, 0
2, 75600, Note_on_c, 0, 74, 100
2, 75720, Note_on_c, 0, 74, 0
2, 75720, Note_on_c, 0, 77, 100
2, 75840, Note_on_c, 0, 77, 0
2, 75840, Note_on_c, 0, 70, 100
2, 75960, Note_on_c, 0, 70, 0
2, 75960, Note_on_c, 0, 79, 100
2, 76080, Note_on_c, 0, 79, 0
2, 76080, Note_on_c, 0, 81, 100
2, 76200, Note_on_c, 0, 81, 0
2, 76200, Note_on_c, 0, 82, 100
2, 76320, Note_on_c, 0, 82, 0
2, 76320, Note_on_c, 0, 76, 100
2, 76440, Note_on_c, 0, 76, 0
2, 76440, Note_on_c, 0, 60, 100
2, 76560, Note_on_c, 0, 60, 0
2, 76560, Note_on_c, 0, 64, 100
2, 76680, Note_on_c, 0, 64, 0
2, 76680, Note_on_c, 0, 67, 100
2, 76800, Note_on_c, 0, 67, 0
2, 76800, Note_on_c, 0, 72, 100
2, 76920, Note_on_c, 0, 72, 0
2, 76920, Note_on_c, 0, 67, 100
2, 77040, Note_on_c, 0, 67, 0
2, 77040, Note_on_c, 0, 72, 100
2, 77160, Note_on_c, 0, 72, 0
2, 77160, Note_on_c, 0, 76, 100
2, 77280, Note_on_c, 0, 76, 0
2, 77280, Note_on_c, 0, 69, 100
2, 77400, Note_on_c, 0, 69, 0
2, 77400, Note_on_c, 0, 77, 100
2, 77520, Note_on_c, 0, 77, 0
2, 77520, Note_on_c, 0, 79, 100
2, 77640, Note_on_c, 0, 79, 0
2, 77640, Note_on_c, 0, 81, 100
2, 77760, Note_on_c, 0, 81, 0
2, 77760, Note_on_c, 0, 74, 100
2, 77880, Note_on_c, 0, 74, 0
2, 77880, Note_on_c, 0, 58, 100
2, 78000, Note_on_c, 0, 58, 0
2, 78000, Note_on_c, 0, 62, 100
2, 78120, Note_on_c, 0, 62, 0
2, 78120, Note_on_c, 0, 65, 100
2, 78240, Note_on_c, 0, 65, 0
2, 78240, Note_on_c, 0, 70, 100
2, 78360, Note_on_c, 0, 70, 0
2, 78360, Note_on_c, 0, 65, 100
2, 78480, Note_on_c, 0, 65, 0
2, 78480, Note_on_c, 0, 70, 100
2, 78600, Note_on_c, 0, 70, 0
2, 78600, Note_on_c, 0, 74, 100
2, 78720, Note_on_c, 0, 74, 0
2, 78720, Note_on_c, 0, 67, 100
2, 78840, Note_on_c, 0, 67, 0
2, 78840, Note_on_c, 0, 76, 100
2, 78960, Note_on_c, 0, 76, 0
2, 78960, Note_on_c, 0, 77, 100
2, 79080, Note_on_c, 0, 77, 0
2, 79080, Note_on_c, 0, 79, 100
2, 79200, Note_on_c, 0, 79, 0
2, 79200, Note_on_c, 0, 73, 100
2, 79320, Note_on_c, 0, 73, 0
2, 79320, Note_on_c, 0, 69, 100
2, 79440, Note_on_c, 0, 69, 0
2, 79440, Note_on_c, 0, 73, 100
2, 79560, Note_on_c, 0, 73, 0
2, 79560, Note_on_c, 0, 76, 100
2, 79680, Note_on_c, 0, 76, 0
2, 79680, Note_on_c, 0, 81, 100
2, 79800, Note_on_c, 0, 81, 0
2, 79800, Note_on_c, 0, 76, 100
2, 79920, Note_on_c, 0, 76, 0
2, 79920, Note_on_c, 0, 81, 100
2, 80040, Note_on_c, 0, 81, 0
2, 80040, Note_on_c, 0, 85, 100
2, 80160, Note_on_c, 0, 85, 0
2, 80160, Note_on_c, 0, 88, 100
2, 80280, Note_on_c, 0, 88, 0
2, 80280, Note_on_c, 0, 79, 100
2, 80400, Note_on_c, 0, 79, 0
2, 80400, Note_on_c, 0, 77, 100
2, 80520, Note_on_c, 0, 77, 0
2, 80520, Note_on_c, 0, 76, 100
2, 80640, Note_on_c, 0, 76, 0
2, 80640, Note_on_c, 0, 74, 100
2, 80880, Note_on_c, 0, 74, 0
2, 80880, Note_on_c, 0, 69, 100
2, 81120, Note_on_c, 0, 69, 0
2, 81120, Note_on_c, 0, 62, 100
2, 81360, Note_on_c, 0, 62, 0
2, 81360, Note_on_c, 0, 74, 100
2, 81600, Note_on_c, 0, 74, 0
2, 81600, Note_on_c, 0, 70, 100
2, 81720, Note_on_c, 0, 70, 0
2, 81720, Note_on_c, 0, 69, 100
2, 81840, Note_on_c, 0, 69, 0
2, 81840, Note_on_c, 0, 70, 100
2, 81960, Note_on_c, 0, 70, 0
2, 81960, Note_on_c, 0, 67, 100
2, 82080, Note_on_c, 0, 67, 0
2, 82080, Note_on_c, 0, 72, 100
2, 82320, Note_on_c, 0, 72, 0
2, 82320, Note_on_c, 0, 67, 100
2, 82560, Note_on_c, 0, 67, 0
2, 82560, Note_on_c, 0, 60, 100
2, 82800, Note_on_c, 0, 60, 0
2, 82800, Note_on_c, 0, 72, 100
2, 83040, Note_on_c, 0, 72, 0
2, 83040, Note_on_c, 0, 69, 100
2, 83160, Note_on_c, 0, 69, 0
2, 83160, Note_on_c, 0, 67, 100
2, 83280, Note_on_c, 0, 67, 0
2, 83280, Note_on_c, 0, 69, 100
2, 83400, Note_on_c, 0, 69, 0
2, 83400, Note_on_c, 0, 65, 100
2, 83520, Note_on_c, 0, 65, 0
2, 83520, Note_on_c, 0, 70, 100
2, 83760, Note_on_c, 0, 70, 0
2, 83760, Note_on_c, 0, 65, 100
2, 84000, Note_on_c, 0, 65, 0
2, 84000, Note_on_c, 0, 58, 100
2, 84240, Note_on_c, 0, 58, 0
2, 84240, Note_on_c, 0, 70, 100
2, 84480, Note_on_c, 0, 70, 0
2, 84480, Note_on_c, 0, 67, 100
2, 84600, Note_on_c, 0, 67, 0
2, 84600, Note_on_c, 0, 65, 100
2, 84720, Note_on_c, 0, 65, 0
2, 84720, Note_on_c, 0, 67, 100
2, 84840, Note_on_c, 0, 67, 0
2, 84840, Note_on_c, 0, 64, 100
2, 84960, Note_on_c, 0, 64, 0
2, 84960, Note_on_c, 0, 65, 100
2, 85080, Note_on_c, 0, 65, 0
2, 85080, Note_on_c, 0, 64, 100
2, 85200, Note_on_c, 0, 64, 0
2, 85200, Note_on_c, 0, 65, 100
2, 85320, Note_on_c, 0, 65, 0
2, 85320, Note_on_c, 0, 62, 100
2, 85440, Note_on_c, 0, 62, 0
2, 85440, Note_on_c, 0, 64, 100
2, 85680, Note_on_c, 0, 64, 0
2, 85680, Note_on_c, 0, 81, 100
2, 85920, Note_on_c, 0, 81, 0
2, 85920, Note_on_c, 0, 81, 100
2, 86040, Note_on_c, 0, 81, 0
2, 86040, Note_on_c, 0, 79, 100
2, 86160, Note_on_c, 0, 79, 0
2, 86160, Note_on_c, 0, 81, 100
2, 86280, Note_on_c, 0, 81, 0
2, 86280, Note_on_c, 0, 76, 100
2, 86400, Note_on_c, 0, 76, 0
2, 86400, Note_on_c, 0, 74, 100
2, 86520, Note_on_c, 0, 74, 0
2, 86520, Note_on_c, 0, 73, 100
2, 86640, Note_on_c, 0, 73, 0
2, 86640, Note_on_c, 0, 74, 100
2, 86760, Note_on_c, 0, 74, 0
2, 86760, Note_on_c, 0, 69, 100
2, 86880, Note_on_c, 0, 69, 0
2, 86880, Note_on_c, 0, 65, 100
2, 87000, Note_on_c, 0, 65, 0
2, 87000, Note_on_c, 0, 64, 100
2, 87120, Note_on_c, 0, 64, 0
2, 87120, Note_on_c, 0, 65, 100
2, 87240, Note_on_c, 0, 65, 0
2, 87240, Note_on_c, 0, 62, 100
2, 87360, Note_on_c, 0, 62, 0
2, 87360, Note_on_c, 0, 58, 100
2, 87480, Note_on_c, 0, 58, 0
2, 87480, Note_on_c, 0, 67, 100
2, 87600, Note_on_c, 0, 67, 0
2, 87600, Note_on_c, 0, 74, 100
2, 87720, Note_on_c, 0, 74, 0
2, 87720, Note_on_c, 0, 82, 100
2, 87840, Note_on_c, 0, 82, 0
2, 87840, Note_on_c, 0, 72, 100
2, 87960, Note_on_c, 0, 72, 0
2, 87960, Note_on_c, 0, 71, 100
2, 88080, Note_on_c, 0, 71, 0
2, 88080, Note_on_c, 0, 72, 100
2, 88200, Note_on_c, 0, 72, 0
2, 88200, Note_on_c, 0, 67, 100
2, 88320, Note_on_c, 0, 67, 0
2, 88320, Note_on_c, 0, 64, 100
2, 88440, Note_on_c, 0, 64, 0
2, 88440, Note_on_c, 0, 62, 100
2, 88560, Note_on_c, 0, 62, 0
2, 88560, Note_on_c, 0, 64, 100
2, 88680, Note_on_c, 0, 64, 0
2, 88680, Note_on_c, 0, 60, 100
2, 88800, Note_on_c, 0, 60, 0
2, 88800, Note_on_c, 0, 57, 100
2, 88920, Note_on_c, 0, 57, 0
2, 88920, Note_on_c, 0, 65, 100
2, 89040, Note_on_c, 0, 65, 0
2, 89040, Note_on_c, 0, 72, 100
2, 89160, Note_on_c, 0, 72, 0
2, 89160, Note_on_c, 0, 81, 100
2, 89280, Note_on_c, 0, 81, 0
2, 89280, Note_on_c, 0, 65, 100
2, 89400, Note_on_c, 0, 65, 0
2, 89400, Note_on_c, 0, 63, 100
2, 89520, Note_on_c, 0, 63, 0
2, 89520, Note_on_c, 0, 65, 100
2, 89640, Note_on_c, 0, 65, 0
2, 89640, Note_on_c, 0, 62, 100
2, 89760, Note_on_c, 0, 62, 0
2, 89760, Note_on_c, 0, 62, 100
2, 89880, Note_on_c, 0, 62, 0
2, 89880, Note_on_c, 0, 60, 100
2, 90000, Note_on_c, 0, 60, 0
2, 90000, Note_on_c, 0, 62, 100
2, 90120, Note_on_c, 0, 62, 0
2, 90120, Note_on_c, 0, 58, 100
2, 90240, Note_on_c, 0, 58, 0
2, 90240, Note_on_c, 0, 55, 100
2, 90360, Note_on_c, 0, 55, 0
2, 90360, Note_on_c, 0, 64, 100
2, 90480, Note_on_c, 0, 64, 0
2, 90480, Note_on_c, 0, 71, 100
2, 90600, Note_on_c, 0, 71, 0
2, 90600, Note_on_c, 0, 79, 100
2, 90720, Note_on_c, 0, 79, 0
2, 90720, Note_on_c, 0, 57, 100
2, 90840, Note_on_c, 0, 57, 0
2, 90840, Note_on_c, 0, 64, 100
2, 90960, Note_on_c, 0, 64, 0
2, 90960, Note_on_c, 0, 73, 100
2, 91080, Note_on_c, 0, 73, 0
2, 91080, Note_on_c, 0, 79, 100
2, 91200, Note_on_c, 0, 79, 0
2, 91200, Note_on_c, 0, 57, 100
2, 91320, Note_on_c, 0, 57, 0
2, 91320, Note_on_c, 0, 65, 100
2, 91440, Note_on_c, 0, 65, 0
2, 91440, Note_on_c, 0, 74, 100
2, 91560, Note_on_c, 0, 74, 0
2, 91560, Note_on_c, 0, 77, 100
2, 91680, Note_on_c, 0, 77, 0
2, 91680, Note_on_c, 0, 57, 100
2, 91800, Note_on_c, 0, 57, 0
2, 91800, Note_on_c, 0, 67, 100
2, 91920, Note_on_c, 0, 67, 0
2, 91920, Note_on_c, 0, 73, 100
2, 92040, Note_on_c, 0, 73, 0
2, 92040, Note_on_c, 0, 76, 100
2, 92160, Note_on_c, 0, 76, 0
2, 92160, Note_on_c, 0, 74, 100
2, 92280, Note_on_c, 0, 74, 0
2, 92280, Note_on_c, 0, 69, 100
2, 92340, Note_on_c, 0, 69, 0
2, 92340, Note_on_c, 0, 67, 100
2, 92400, Note_on_c, 0, 67, 0
2, 92400, Note_on_c, 0, 65, 100
2, 92520, Note_on_c, 0, 65, 0
2, 92520, Note_on_c, 0, 64, 100
2, 92640, Note_on_c, 0, 64, 0
2, 92640, Note_on_c, 0, 62, 100
2, 92760, Note_on_c, 0, 62, 0
2, 92760, Note_on_c, 0, 60, 100
2, 92880, Note_on_c, 0, 60, 0
2, 92880, Note_on_c, 0, 58, 100
2, 93000, Note_on_c, 0, 58, 0
2, 93000, Note_on_c, 0, 57, 100
2, 93120, Note_on_c, 0, 57, 0
2, 93120, Note_on_c, 0, 58, 100
2, 93240, Note_on_c, 0, 58, 0
2, 93240, Note_on_c, 0, 74, 100
2, 93300, Note_on_c, 0, 74, 0
2, 93300, Note_on_c, 0, 72, 100
2, 93360, Note_on_c, 0, 72, 0
2, 93360, Note_on_c, 0, 70, 100
2, 93420, Note_on_c, 0, 70, 0
2, 93420, Note_on_c, 0, 69, 100
2, 93480, Note_on_c, 0, 69, 0
2, 93480, Note_on_c, 0, 67, 100
2, 93540, Note_on_c, 0, 67, 0
2, 93540, Note_on_c, 0, 65, 100
2, 93600, Note_on_c, 0, 65, 0
2, 93600, Note_on_c, 0, 64, 100
2, 93720, Note_on_c, 0, 64, 0
2, 93720, Note_on_c, 0, 67, 100
2, 93780, Note_on_c, 0, 67, 0
2, 93780, Note_on_c, 0, 65, 100
2, 93840, Note_on_c, 0, 65, 0
2, 93840, Note_on_c, 0, 64, 100
2, 93960, Note_on_c, 0, 64, 0
2, 93960, Note_on_c, 0, 62, 100
2, 94080, Note_on_c, 0, 62, 0
2, 94080, Note_on_c, 0, 60, 100
2, 94200, Note_on_c, 0, 60, 0
2, 94200, Note_on_c, 0, 58, 100
2, 94320, Note_on_c, 0, 58, 0
2, 94320, Note_on_c, 0, 57, 100
2, 94440, Note_on_c, 0, 57, 0
2, 94440, Note_on_c, 0, 55, 100
2, 94560, Note_on_c, 0, 55, 0
2, 94560, Note_on_c, 0, 57, 100
2, 94680, Note_on_c, 0, 57, 0
2, 94680, Note_on_c, 0, 72, 100
2, 94740, Note_on_c, 0, 72, 0
2, 94740, Note_on_c, 0, 70, 100
2, 94800, Note_on_c, 0, 70, 0
2, 94800, Note_on_c, 0, 69, 100
2, 94860, Note_on_c, 0, 69, 0
2, 94860, Note_on_c, 0, 67, 100
2, 94920, Note_on_c, 0, 67, 0
2, 94920, Note_on_c, 0, 65, 100
2, 94980, Note_on_c, 0, 65, 0
2, 94980, Note_on_c, 0, 63, 100
2, 95040, Note_on_c, 0, 63, 0
2, 95040, Note_on_c, 0, 62, 100
2, 95160, Note_on_c, 0, 62, 0
2, 95160, Note_on_c, 0, 65, 100
2, 95220, Note_on_c, 0, 65, 0
2, 95220, Note_on_c, 0, 63, 100
2, 95280, Note_on_c, 0, 63, 0
2, 95280, Note_on_c, 0, 62, 100
2, 95400, Note_on_c, 0, 62, 0
2, 95400, Note_on_c, 0, 60, 100
2, 95520, Note_on_c, 0, 60, 0
2, 95520, Note_on_c, 0, 58, 100
2, 95640, Note_on_c, 0, 58, 0
2, 95640, Note_on_c, 0, 62, 100
2, 95700, Note_on_c, 0, 62, 0
2, 95700, Note_on_c, 0, 60, 100
2, 95760, Note_on_c, 0, 60, 0
2, 95760, Note_on_c, 0, 58, 100
2, 95880, Note_on_c, 0, 58, 0
2, 95880, Note_on_c, 0, 57, 100
2, 96000, Note_on_c, 0, 57, 0
2, 96000, Note_on_c, 0, 55, 100
2, 96120, Note_on_c, 0, 55, 0
2, 96120, Note_on_c, 0, 70, 100
2, 96180, Note_on_c, 0, 70, 0
2, 96180, Note_on_c, 0, 69, 100
2, 96240, Note_on_c, 0, 69, 0
2, 96240, Note_on_c, 0, 67, 100
2, 96300, Note_on_c, 0, 67, 0
2, 96300, Note_on_c, 0, 65, 100
2, 96360, Note_on_c, 0, 65, 0
2, 96360, Note_on_c, 0, 64, 100
2, 96420, Note_on_c, 0, 64, 0
2, 96420, Note_on_c, 0, 62, 100
2, 96480, Note_on_c, 0, 62, 0
2, 96480, Note_on_c, 0, 61, 100
2, 96540, Note_on_c, 0, 61, 0
2, 96540, Note_on_c, 0, 59, 100
2, 96600, Note_on_c, 0, 59, 0
2, 96600, Note_on_c, 0, 57, 100
2, 96660, Note_on_c, 0, 57, 0
2, 96660, Note_on_c, 0, 59, 100
2, 96720, Note_on_c, 0, 59, 0
2, 96720, Note_on_c, 0, 61, 100
2, 96780, Note_on_c, 0, 61, 0
2, 96780, Note_on_c, 0, 62, 100
2, 96840, Note_on_c, 0, 62, 0
2, 96840, Note_on_c, 0, 64, 100
2, 96900, Note_on_c, 0, 64, 0
2, 96900, Note_on_c, 0, 65, 100
2, 96960, Note_on_c, 0, 65, 0
2, 96960, Note_on_c, 0, 67, 100
2, 97020, Note_on_c, 0, 67, 0
2, 97020, Note_on_c, 0, 69, 100
2, 97080, Note_on_c, 0, 69, 0
2, 97080, Note_on_c, 0, 70, 100
2, 97140, Note_on_c, 0, 70, 0
2, 97140, Note_on_c, 0, 69, 100
2, 97200, Note_on_c, 0, 69, 0
2, 97200, Note_on_c, 0, 67, 100
2, 97260, Note_on_c, 0, 67, 0
2, 97260, Note_on_c, 0, 65, 100
2, 97320, Note_on_c, 0, 65, 0
2, 97320, Note_on_c, 0, 64, 100
2, 97380, Note_on_c, 0, 64, 0
2, 97380, Note_on_c, 0, 62, 100
2, 97440, Note_on_c, 0, 62, 0
2, 97440, Note_on_c, 0, 61, 100
2, 97560, Note_on_c, 0, 61, 0
2, 97560, Note_on_c, 0, 76, 100
2, 97620, Note_on_c, 0, 76, 0
2, 97620, Note_on_c, 0, 74, 100
2, 97680, Note_on_c, 0, 74, 0
2, 97680, Note_on_c, 0, 73, 100
2, 97740, Note_on_c, 0, 73, 0
2, 97740, Note_on_c, 0, 71, 100
2, 97800, Note_on_c, 0, 71, 0
2, 97800, Note_on_c, 0, 69, 100
2, 97860, Note_on_c, 0, 69, 0
2, 97860, Note_on_c, 0, 67, 100
2, 97920, Note_on_c, 0, 67, 0
2, 97920, Note_on_c, 0, 65, 100
2, 98040, Note_on_c, 0, 65, 0
2, 98040, Note_on_c, 0, 62, 100
2, 98100, Note_on_c, 0, 62, 0
2, 98100, Note_on_c, 0, 64, 100
2, 98160, Note_on_c, 0, 64, 0
2, 98160, Note_on_c, 0, 65, 100
2, 98280, Note_on_c, 0, 65, 0
2, 98280, Note_on_c, 0, 69, 100
2, 98400, Note_on_c, 0, 69, 0
2, 98400, Note_on_c, 0, 65, 100
2, 98520, Note_on_c, 0, 65, 0
2, 98520, Note_on_c, 0, 62, 100
2, 98640, Note_on_c, 0, 62, 0
2, 98640, Note_on_c, 0, 65, 100
2, 98760, Note_on_c, 0, 65, 0
2, 98760, Note_on_c, 0, 69, 100
2, 98880, Note_on_c, 0, 69, 0
2, 98880, Note_on_c, 0, 70, 100
2, 98940, Note_on_c, 0, 70, 0
2, 98940, Note_on_c, 0, 72, 100
2, 99000, Note_on_c, 0, 72, 0
2, 99000, Note_on_c, 0, 74, 100
2, 99060, Note_on_c, 0, 74, 0
2, 99060, Note_on_c, 0, 76, 100
2, 99120, Note_on_c, 0, 76, 0
2, 99120, Note_on_c, 0, 77, 100
2, 99180, Note_on_c, 0, 77, 0
2, 99180, Note_on_c, 0, 79, 100
2, 99240, Note_on_c, 0, 79, 0
2, 99240, Note_on_c, 0, 81, 100
2, 99300, Note_on_c, 0, 81, 0
2, 99300, Note_on_c, 0, 82, 100
2, 99360, Note_on_c, 0, 82, 0
2, 99360, Note_on_c, 0, 76, 100
2, 99480, Note_on_c, 0, 76, 0
2, 99480, Note_on_c, 0, 60, 100
2, 99540, Note_on_c, 0, 60, 0
2, 99540, Note_on_c, 0, 62, 100
2, 99600, Note_on_c, 0, 62, 0
2, 99600, Note_on_c, 0, 64, 100
2, 99720, Note_on_c, 0, 64, 0
2, 99720, Note_on_c, 0, 67, 100
2, 99840, Note_on_c, 0, 67, 0
2, 99840, Note_on_c, 0, 64, 100
2, 99960, Note_on_c, 0, 64, 0
2, 99960, Note_on_c, 0, 60, 100
2, 100080, Note_on_c, 0, 60, 0
2, 100080, Note_on_c, 0, 64, 100
2, 100200, Note_on_c, 0, 64, 0
2, 100200, Note_on_c, 0, 67, 100
2, 100320, Note_on_c, 0, 67, 0
2, 100320, Note_on_c, 0, 69, 100
2, 100380, Note_on_c, 0, 69, 0
2, 100380, Note_on_c, 0, 70, 100
2, 100440, Note_on_c, 0, 70, 0
2, 100440, Note_on_c, 0, 72, 100
2, 100500, Note_on_c, 0, 72, 0
2, 100500, Note_on_c, 0, 74, 100
2, 100560, Note_on_c, 0, 74, 0
2, 100560, Note_on_c, 0, 76, 100
2, 100620, Note_on_c, 0, 76, 0
2, 100620, Note_on_c, 0, 77, 100
2, 100680, Note_on_c, 0, 77, 0
2, 100680, Note_on_c, 0, 79, 100
2, 100740, Note_on_c, 0, 79, 0
2, 100740, Note_on_c, 0, 81, 100
2, 100800, Note_on_c, 0, 81, 0
2, 100800, Note_on_c, 0, 74, 100
2, 100920, Note_on_c, 0, 74, 0
2, 100920, Note_on_c, 0, 58, 100
2, 100980, Note_on_c, 0, 58, 0
2, 100980, Note_on_c, 0, 60, 100
2, 101040, Note_on_c, 0, 60, 0
2, 101040, Note_on_c, 0, 62, 100
2, 101160, Note_on_c, 0, 62, 0
2, 101160, Note_on_c, 0, 65, 100
2, 101280, Note_on_c, 0, 65, 0
2, 101280, Note_on_c, 0, 62, 100
2, 101400, Note_on_c, 0, 62, 0
2, 101400, Note_on_c, 0, 58, 100
2, 101520, Note_on_c, 0, 58, 0
2, 101520, Note_on_c, 0, 62, 100
2, 101640, Note_on_c, 0, 62, 0
2, 101640, Note_on_c, 0, 65, 100
2, 101760, Note_on_c, 0, 65, 0
2, 101760, Note_on_c, 0, 67, 100
2, 101820, Note_on_c, 0, 67, 0
2, 101820, Note_on_c, 0, 69, 100
2, 101880, Note_on_c, 0, 69, 0
2, 101880, Note_on_c, 0, 70, 100
2, 101940, Note_on_c, 0, 70, 0
2, 101940, Note_on_c, 0, 72, 100
2, 102000, Note_on_c, 0, 72, 0
2, 102000, Note_on_c, 0, 74, 100
2, 102060, Note_on_c, 0, 74, 0
2, 102060, Note_on_c, 0, 76, 100
2, 102120, Note_on_c, 0, 76, 0
2, 102120, Note_on_c, 0, 77, 100
2, 102180, Note_on_c, 0, 77, 0
2, 102180, Note_on_c, 0, 79, 100
2, 102240, Note_on_c, 0, 79, 0
2, 102240, Note_on_c, 0, 73, 100
2, 102300, Note_on_c, 0, 73, 0
2, 102300, Note_on_c, 0, 82, 100
2, 102360, Note_on_c, 0, 82, 0
2, 102360, Note_on_c, 0, 81, 100
2, 102420, Note_on_c, 0, 81, 0
2, 102420, Note_on_c, 0, 79, 100
2, 102480, Note_on_c, 0, 79, 0
2, 102480, Note_on_c, 0, 77, 100
2, 102540, Note_on_c, 0, 77, 0
2, 102540, Note_on_c, 0, 76, 100
2, 102600, Note_on_c, 0, 76, 0
2, 102600, Note_on_c, 0, 74, 100
2, 102660, Note_on_c, 0, 74, 0
2, 102660, Note_on_c, 0, 72, 100
2, 102720, Note_on_c, 0, 72, 0
2, 102720, Note_on_c, 0, 70, 100
2, 102780, Note_on_c, 0, 70, 0
2, 102780, Note_on_c, 0, 69, 100
2, 102840, Note_on_c, 0, 69, 0
2, 102840, Note_on_c, 0, 67, 100
2, 102900, Note_on_c, 0, 67, 0
2, 102900, Note_on_c, 0, 65, 100
2, 102960, Note_on_c, 0, 65, 0
2, 102960, Note_on_c, 0, 64, 100
2, 103020, Note_on_c, 0, 64, 0
2, 103020, Note_on_c, 0, 62, 100
2, 103080, Note_on_c, 0, 62, 0
2, 103080, Note_on_c, 0, 61, 100
2, 103140, Note_on_c, 0, 61, 0
2, 103140, Note_on_c, 0, 59, 100
2, 103200, Note_on_c, 0, 59, 0
2, 103200, Note_on_c, 0, 57, 100
2, 103260, Note_on_c, 0, 57, 0
2, 103260, Note_on_c, 0, 59, 100
2, 103320, Note_on_c, 0, 59, 0
2, 103320, Note_on_c, 0, 61, 100
2, 103380, Note_on_c, 0, 61, 0
2, 103380, Note_on_c, 0, 62, 100
2, 103440, Note_on_c, 0, 62, 0
2, 103440, Note_on_c, 0, 64, 100
2, 103500, Note_on_c, 0, 64, 0
2, 103500, Note_on_c, 0, 65, 100
2, 103560, Note_on_c, 0, 65, 0
2, 103560, Note_on_c, 0, 67, 100
2, 103620, Note_on_c, 0, 67, 0
2, 103620, Note_on_c, 0, 64, 100
2, 103680, Note_on_c, 0, 64, 0
2, 103680, Note_on_c, 0, 65, 100
2, 103740, Note_on_c, 0, 65, 0
2, 103740, Note_on_c, 0, 62, 100
2, 103800, Note_on_c, 0, 62, 0
2, 103800, Note_on_c, 0, 64, 100
2, 103860, Note_on_c, 0, 64, 0
2, 103860, Note_on_c, 0, 65, 100
2, 103920, Note_on_c, 0, 65, 0
2, 103920, Note_on_c, 0, 67, 100
2, 103980, Note_on_c, 0, 67, 0
2, 103980, Note_on_c, 0, 69, 100
2, 104040, Note_on_c, 0, 69, 0
2, 104040, Note_on_c, 0, 71, 100
2, 104100, Note_on_c, 0, 71, 0
2, 104100, Note_on_c, 0, 73, 100
2, 104160, Note_on_c, 0, 73, 0
2, 104160, Note_on_c, 0, 74, 100
2, 104220, Note_on_c, 0, 74, 0
2, 104220, Note_on_c, 0, 71, 100
2, 104280, Note_on_c, 0, 71, 0
2, 104280, Note_on_c, 0, 73, 100
2, 104340, Note_on_c, 0, 73, 0
2, 104340, Note_on_c, 0, 74, 100
2, 104400, Note_on_c, 0, 74, 0
2, 104400, Note_on_c, 0, 76, 100
2, 104460, Note_on_c, 0, 76, 0
2, 104460, Note_on_c, 0, 77, 100
2, 104520, Note_on_c, 0, 77, 0
2, 104520, Note_on_c, 0, 79, 100
2, 104580, Note_on_c, 0, 79, 0
2, 104580, Note_on_c, 0, 81, 100
2, 104640, Note_on_c, 0, 81, 0
2, 104640, Note_on_c, 0, 82, 100
2, 104760, Note_on_c, 0, 82, 0
2, 104760, Note_on_c, 0, 62, 100
2, 104880, Note_on_c, 0, 62, 0
2, 104880, Note_on_c, 0, 60, 100
2, 104880, Pitch_bend_c, 0, 8192
2, 104910, Pitch_bend_c, 0, 16383
2, 104940, Pitch_bend_c, 0, 8192
2, 105000, Note_on_c, 0, 60, 0
2, 105000, Note_on_c, 0, 58, 100
2, 105120, Note_on_c, 0, 58, 0
2, 105120, Note_on_c, 0, 60, 100
2, 105180, Note_on_c, 0, 60, 0
2, 105180, Note_on_c, 0, 62, 100
2, 105240, Note_on_c, 0, 62, 0
2, 105240, Note_on_c, 0, 64, 100
2, 105300, Note_on_c, 0, 64, 0
2, 105300, Note_on_c, 0, 66, 100
2, 105360, Note_on_c, 0, 66, 0
2, 105360, Note_on_c, 0, 67, 100
2, 105420, Note_on_c, 0, 67, 0
2, 105420, Note_on_c, 0, 69, 100
2, 105480, Note_on_c, 0, 69, 0
2, 105480, Note_on_c, 0, 70, 100
2, 105540, Note_on_c, 0, 70, 0
2, 105540, Note_on_c, 0, 72, 100
2, 105600, Note_on_c, 0, 72, 0
2, 105600, Note_on_c, 0, 74, 100
2, 105660, Note_on_c, 0, 74, 0
2, 105660, Note_on_c, 0, 69, 100
2, 105720, Note_on_c, 0, 69, 0
2, 105720, Note_on_c, 0, 70, 100
2, 105780, Note_on_c, 0, 70, 0
2, 105780, Note_on_c, 0, 72, 100
2, 105840, Note_on_c, 0, 72, 0
2, 105840, Note_on_c, 0, 74, 100
2, 105900, Note_on_c, 0, 74, 0
2, 105900, Note_on_c, 0, 76, 100
2, 105960, Note_on_c, 0, 76, 0
2, 105960, Note_on_c, 0, 78, 100
2, 106020, Note_on_c, 0, 78, 0
2, 106020, Note_on_c, 0, 79, 100
2, 106080, Note_on_c, 0, 79, 0
2, 106080, Note_on_c, 0, 81, 100
2, 106200, Note_on_c, 0, 81, 0
2, 106200, Note_on_c, 0, 60, 100
2, 106320, Note_on_c, 0, 60, 0
2, 106320, Note_on_c, 0, 58, 100
2, 106320, Pitch_bend_c, 0, 8192
2, 106350, Pitch_bend_c, 0, 16383
2, 106380, Pitch_bend_c, 0, 8192
2, 106440, Note_on_c, 0, 58, 0
2, 106440, Note_on_c, 0, 57, 100
2, 106560, Note_on_c, 0, 57, 0
2, 106560, Note_on_c, 0, 58, 100
2, 106620, Note_on_c, 0, 58, 0
2, 106620, Note_on_c, 0, 62, 100
2, 106680, Note_on_c, 0, 62, 0
2, 106680, Note_on_c, 0, 64, 100
2, 106740, Note_on_c, 0, 64, 0
2, 106740, Note_on_c, 0, 66, 100
2, 106800, Note_on_c, 0, 66, 0
2, 106800, Note_on_c, 0, 67, 100
2, 106860, Note_on_c, 0, 67, 0
2, 106860, Note_on_c, 0, 69, 100
2, 106920, Note_on_c, 0, 69, 0
2, 106920, Note_on_c, 0, 70, 100
2, 106980, Note_on_c, 0, 70, 0
2, 106980, Note_on_c, 0, 72, 100
2, 107040, Note_on_c, 0, 72, 0
2, 107040, Note_on_c, 0, 74, 100
2, 107100, Note_on_c, 0, 74, 0
2, 107100, Note_on_c, 0, 67, 100
2, 107160, Note_on_c, 0, 67, 0
2, 107160, Note_on_c, 0, 69, 100
2, 107220, Note_on_c, 0, 69, 0
2, 107220, Note_on_c, 0, 70, 100
2, 107280, Note_on_c, 0, 70, 0
2, 107280, Note_on_c, 0, 72, 100
2, 107340, Note_on_c, 0, 72, 0
2, 107340, Note_on_c, 0, 74, 100
2, 107400, Note_on_c, 0, 74, 0
2, 107400, Note_on_c, 0, 76, 100
2, 107460, Note_on_c, 0, 76, 0
2, 107460, Note_on_c, 0, 78, 100
2, 107520, Note_on_c, 0, 78, 0
2, 107520, Note_on_c, 0, 79, 100
2, 107580, Note_on_c, 0, 79, 0
2, 107580, Note_on_c, 0, 81, 100
2, 107640, Note_on_c, 0, 81, 0
2, 107640, Note_on_c, 0, 82, 100
2, 107700, Note_on_c, 0, 82, 0
2, 107700, Note_on_c, 0, 81, 100
2, 107760, Note_on_c, 0, 81, 0
2, 107760, Note_on_c, 0, 79, 100
2, 107820, Note_on_c, 0, 79, 0
2, 107820, Note_on_c, 0, 77, 100
2, 107880, Note_on_c, 0, 77, 0
2, 107880, Note_on_c, 0, 76, 100
2, 107940, Note_on_c, 0, 76, 0
2, 107940, Note_on_c, 0, 74, 100
2, 108000, Note_on_c, 0, 74, 0
2, 108000, Note_on_c, 0, 73, 100
2, 108060, Note_on_c, 0, 73, 0
2, 108060, Note_on_c, 0, 81, 100
2, 108120, Note_on_c, 0, 81, 0
2, 108120, Note_on_c, 0, 79, 100
2, 108180, Note_on_c, 0, 79, 0
2, 108180, Note_on_c, 0, 77, 100
2, 108240, Note_on_c, 0, 77, 0
2, 108240, Note_on_c, 0, 76, 100
2, 108300, Note_on_c, 0, 76, 0
2, 108300, Note_on_c, 0, 74, 100
2, 108360, Note_on_c, 0, 74, 0
2, 108360, Note_on_c, 0, 73, 100
2, 108420, Note_on_c, 0, 73, 0
2, 108420, Note_on_c, 0, 71, 100
2, 108480, Note_on_c, 0, 71, 0
2, 108480, Note_on_c, 0, 69, 100
2, 108540, Note_on_c, 0, 69, 0
2, 108540, Note_on_c, 0, 71, 100
2, 108600, Note_on_c, 0, 71, 0
2, 108600, Note_on_c, 0, 73, 100
2, 108660, Note_on_c, 0, 73, 0
2, 108660, Note_on_c, 0, 74, 100
2, 108720, Note_on_c, 0, 74, 0
2, 108720, Note_on_c, 0, 76, 100
2, 108780, Note_on_c, 0, 76, 0
2, 108780, Note_on_c, 0, 77, 100
2, 108840, Note_on_c, 0, 77, 0
2, 108840, Note_on_c, 0, 79, 100
2, 108900, Note_on_c, 0, 79, 0
2, 108900, Note_on_c, 0, 81, 100
2, 108960, Note_on_c, 0, 81, 0
2, 108960, Note_on_c, 0, 82, 100
2, 109020, Note_on_c, 0, 82, 0
2, 109020, Note_on_c, 0, 79, 100
2, 109080, Note_on_c, 0, 79, 0
2, 109080, Note_on_c, 0, 76, 100
2, 109140, Note_on_c, 0, 76, 0
2, 109140, Note_on_c, 0, 73, 100
2, 109200, Note_on_c, 0, 73, 0
2, 109200, Note_on_c, 0, 69, 100
2, 109260, Note_on_c, 0, 69, 0
2, 109260, Note_on_c, 0, 67, 100
2, 109320, Note_on_c, 0, 67, 0
2, 109320, Note_on_c, 0, 65, 100
2, 109380, Note_on_c, 0, 65, 0
2, 109380, Note_on_c, 0, 64, 100
2, 109440, Note_on_c, 0, 64, 0
2, 109440, Note_on_c, 0, 62, 100
2, 109560, Note_on_c, 0, 62, 0
2, 109560, Note_on_c, 0, 69, 100
2, 109680, Note_on_c, 0, 69, 0
2, 109680, Note_on_c, 0, 74, 100
2, 109800, Note_on_c, 0, 74, 0
2, 109800, Note_on_c, 0, 76, 100
2, 109920, Note_on_c, 0, 76, 0
2, 109920, Note_on_c, 0, 77, 100
2, 110040, Note_on_c, 0, 77, 0
2, 110040, Note_on_c, 0, 74, 100
2, 110160, Note_on_c, 0, 74, 0
2, 110160, Note_on_c, 0, 70, 100
2, 110280, Note_on_c, 0, 70, 0
2, 110280, Note_on_c, 0, 69, 100
2, 110400, Note_on_c, 0, 69, 0
2, 110400, Note_on_c, 0, 68, 100
2, 110520, Note_on_c, 0, 68, 0
2, 110520, Note_on_c, 0, 71, 100
2, 110640, Note_on_c, 0, 71, 0
2, 110640, Note_on_c, 0, 74, 100
2, 110760, Note_on_c, 0, 74, 0
2, 110760, Note_on_c, 0, 77, 100
2, 110880, Note_on_c, 0, 77, 0
2, 110880, Note_on_c, 0, 60, 100
2, 111000, Note_on_c, 0, 60, 0
2, 111000, Note_on_c, 0, 64, 100
2, 111120, Note_on_c, 0, 64, 0
2, 111120, Note_on_c, 0, 69, 100
2, 111240, Note_on_c, 0, 69, 0
2, 111240, Note_on_c, 0, 72, 100
2, 111360, Note_on_c, 0, 72, 0
2, 111360, Note_on_c, 0, 76, 100
2, 111480, Note_on_c, 0, 76, 0
2, 111480, Note_on_c, 0, 72, 100
2, 111600, Note_on_c, 0, 72, 0
2, 111600, Note_on_c, 0, 69, 100
2, 111720, Note_on_c, 0, 69, 0
2, 111720, Note_on_c, 0, 67, 100
2, 111840, Note_on_c, 0, 67, 0
2, 111840, Note_on_c, 0, 66, 100
2, 111960, Note_on_c, 0, 66, 0
2, 111960, Note_on_c, 0, 69, 100
2, 112080, Note_on_c, 0, 69, 0
2, 112080, Note_on_c, 0, 72, 100
2, 112200, Note_on_c, 0, 72, 0
2, 112200, Note_on_c, 0, 75, 100
2, 112320, Note_on_c, 0, 75, 0
2, 112320, Note_on_c, 0, 58, 100
2, 112440, Note_on_c, 0, 58, 0
2, 112440, Note_on_c, 0, 62, 100
2, 112560, Note_on_c, 0, 62, 0
2, 112560, Note_on_c, 0, 67, 100
2, 112680, Note_on_c, 0, 67, 0
2, 112680, Note_on_c, 0, 70, 100
2, 112800, Note_on_c, 0, 70, 0
2, 112800, Note_on_c, 0, 74, 100
2, 112920, Note_on_c, 0, 74, 0
2, 112920, Note_on_c, 0, 70, 100
2, 113040, Note_on_c, 0, 70, 0
2, 113040, Note_on_c, 0, 67, 100
2, 113160, Note_on_c, 0, 67, 0
2, 113160, Note_on_c, 0, 65, 100
2, 113280, Note_on_c, 0, 65, 0
2, 113280, Note_on_c, 0, 64, 100
2, 113400, Note_on_c, 0, 64, 0
2, 113400, Note_on_c, 0, 67, 100
2, 113520, Note_on_c, 0, 67, 0
2, 113520, Note_on_c, 0, 70, 100
2, 113640, Note_on_c, 0, 70, 0
2, 113640, Note_on_c, 0, 73, 100
2, 113760, Note_on_c, 0, 73, 0
2, 113760, Note_on_c, 0, 57, 100
2, 113880, Note_on_c, 0, 57, 0
2, 113880, Note_on_c, 0, 62, 100
2, 114000, Note_on_c, 0, 62, 0
2, 114000, Note_on_c, 0, 65, 100
2, 114120, Note_on_c, 0, 65, 0
2, 114120, Note_on_c, 0, 69, 100
2, 114240, Note_on_c, 0, 69, 0
2, 114240, Note_on_c, 0, 74, 100
2, 114360, Note_on_c, 0, 74, 0
2, 114360, Note_on_c, 0, 69, 100
2, 114480, Note_on_c, 0, 69, 0
2, 114480, Note_on_c, 0, 65, 100
2, 114600, Note_on_c, 0, 65, 0
2, 114600, Note_on_c, 0, 62, 100
2, 114720, Note_on_c, 0, 62, 0
2, 114720, Note_on_c, 0, 57, 100
2, 114840, Note_on_c, 0, 57, 0
2, 114840, Note_on_c, 0, 64, 100
2, 114960, Note_on_c, 0, 64, 0
2, 114960, Note_on_c, 0, 67, 100
2, 115080, Note_on_c, 0, 67, 0
2, 115080, Note_on_c, 0, 73, 100
2, 115200, Note_on_c, 0, 73, 0
2, 115200, Note_on_c, 0, 62, 100
2, 115320, Note_on_c, 0, 62, 0
2, 115320, Note_on_c, 0, 82, 100
2, 115440, Note_on_c, 0, 82, 0
2, 115440, Note_on_c, 0, 82, 100
2, 115560, Note_on_c, 0, 82, 0
2, 115560, Note_on_c, 0, 80, 100
2, 115680, Note_on_c, 0, 80, 0
2, 115680, Note_on_c, 0, 80, 100
2, 115800, Note_on_c, 0, 80, 0
2, 115800, Note_on_c, 0, 77, 100
2, 115920, Note_on_c, 0, 77, 0
2, 115920, Note_on_c, 0, 77, 100
2, 116040, Note_on_c, 0, 77, 0
2, 116040, Note_on_c, 0, 74, 100
2, 116160, Note_on_c, 0, 74, 0
2, 116160, Note_on_c, 0, 74, 100
2, 116280, Note_on_c, 0, 74, 0
2, 116280, Note_on_c, 0, 71, 100
2, 116400, Note_on_c, 0, 71, 0
2, 116400, Note_on_c, 0, 68, 100
2, 116520, Note_on_c, 0, 68, 0
2, 116520, Note_on_c, 0, 64, 100
2, 116640, Note_on_c, 0, 64, 0
2, 116640, Note_on_c, 0, 61, 100
2, 116760, Note_on_c, 0, 61, 0
2, 116760, Note_on_c, 0, 81, 100
2, 116880, Note_on_c, 0, 81, 0
2, 116880, Note_on_c, 0, 81, 100
2, 117000, Note_on_c, 0, 81, 0
2, 117000, Note_on_c, 0, 78, 100
2, 117120, Note_on_c, 0, 78, 0
2, 117120, Note_on_c, 0, 78, 100
2, 117240, Note_on_c, 0, 78, 0
2, 117240, Note_on_c, 0, 75, 100
2, 117360, Note_on_c, 0, 75, 0
2, 117360, Note_on_c, 0, 75, 100
2, 117480, Note_on_c, 0, 75, 0
2, 117480, Note_on_c, 0, 72, 100
2, 117600, Note_on_c, 0, 72, 0
2, 117600, Note_on_c, 0, 72, 100
2, 117720, Note_on_c, 0, 72, 0
2, 117720, Note_on_c, 0, 69, 100
2, 117840, Note_on_c, 0, 69, 0
2, 117840, Note_on_c, 0, 66, 100
2, 117960, Note_on_c, 0, 66, 0
2, 117960, Note_on_c, 0, 62, 100
2, 118080, Note_on_c, 0, 62, 0
2, 118080, Note_on_c, 0, 59, 100
2, 118200, Note_on_c, 0, 59, 0
2, 118200, Note_on_c, 0, 79, 100
2, 118320, Note_on_c, 0, 79, 0
2, 118320, Note_on_c, 0, 79, 100
2, 118440, Note_on_c, 0, 79, 0
2, 118440, Note_on_c, 0, 75, 100
2, 118560, Note_on_c, 0, 75, 0
2, 118560, Note_on_c, 0, 75, 100
2, 118680, Note_on_c, 0, 75, 0
2, 118680, Note_on_c, 0, 73, 100
2, 118800, Note_on_c, 0, 73, 0
2, 118800, Note_on_c, 0, 73, 100
2, 118920, Note_on_c, 0, 73, 0
2, 118920, Note_on_c, 0, 70, 100
2, 119040, Note_on_c, 0, 70, 0
2, 119040, Note_on_c, 0, 70, 100
2, 119160, Note_on_c, 0, 70, 0
2, 119160, Note_on_c, 0, 67, 100
2, 119280, Note_on_c, 0, 67, 0
2, 119280, Note_on_c, 0, 64, 100
2, 119400, Note_on_c, 0, 64, 0
2, 119400, Note_on_c, 0, 61, 100
2, 119520, Note_on_c, 0, 61, 0
2, 119520, Note_on_c, 0, 57, 100
2, 119640, Note_on_c, 0, 57, 0
2, 119640, Note_on_c, 0, 61, 100
2, 119760, Note_on_c, 0, 61, 0
2, 119760, Note_on_c, 0, 61, 100
2, 119880, Note_on_c, 0, 61, 0
2, 119880, Note_on_c, 0, 64, 100
2, 120000, Note_on_c, 0, 64, 0
2, 120000, Note_on_c, 0, 64, 100
2, 120120, Note_on_c, 0, 64, 0
2, 120120, Note_on_c, 0, 67, 100
2, 120180, Note_on_c, 0, 67, 0
2, 120180, Note_on_c, 0, 65, 100
2, 120240, Note_on_c, 0, 65, 0
2, 120240, Note_on_c, 0, 67, 100
2, 120360, Note_on_c, 0, 67, 0
2, 120360, Note_on_c, 0, 70, 100
2, 120420, Note_on_c, 0, 70, 0
2, 120420, Note_on_c, 0, 69, 100
2, 120480, Note_on_c, 0, 69, 0
2, 120480, Note_on_c, 0, 70, 100
2, 120600, Note_on_c, 0, 70, 0
2, 120600, Note_on_c, 0, 73, 100
2, 120660, Note_on_c, 0, 73, 0
2, 120660, Note_on_c, 0, 74, 100
2, 120720, Note_on_c, 0, 74, 0
2, 120720, Note_on_c, 0, 76, 100
2, 120840, Note_on_c, 0, 76, 0
2, 120840, Note_on_c, 0, 67, 100
2, 120960, Note_on_c, 0, 67, 0
2, 120960, Note_on_c, 0, 65, 100
2, 121020, Note_on_c, 0, 65, 0
2, 121020, Note_on_c, 0, 69, 100
2, 121080, Note_on_c, 0, 69, 0
2, 121080, Note_on_c, 0, 71, 100
2, 121140, Note_on_c, 0, 71, 0
2, 121140, Note_on_c, 0, 73, 100
2, 121200, Note_on_c, 0, 73, 0
2, 121200, Note_on_c, 0, 74, 100
2, 121260, Note_on_c, 0, 74, 0
2, 121260, Note_on_c, 0, 73, 100
2, 121320, Note_on_c, 0, 73, 0
2, 121320, Note_on_c, 0, 71, 100
2, 121380, Note_on_c, 0, 71, 0
2, 121380, Note_on_c, 0, 69, 100
2, 121440, Note_on_c, 0, 69, 0
2, 121440, Note_on_c, 0, 77, 100
2, 121500, Note_on_c, 0, 77, 0
2, 121500, Note_on_c, 0, 76, 100
2, 121560, Note_on_c, 0, 76, 0
2, 121560, Note_on_c, 0, 74, 100
2, 121620, Note_on_c, 0, 74, 0
2, 121620, Note_on_c, 0, 73, 100
2, 121680, Note_on_c, 0, 73, 0
2, 121680, Note_on_c, 0, 74, 100
2, 121740, Note_on_c, 0, 74, 0
2, 121740, Note_on_c, 0, 76, 100
2, 121800, Note_on_c, 0, 76, 0
2, 121800, Note_on_c, 0, 77, 100
2, 121860, Note_on_c, 0, 77, 0
2, 121860, Note_on_c, 0, 79, 100
2, 121920, Note_on_c, 0, 79, 0
2, 121920, Note_on_c, 0, 81, 100
2, 121980, Note_on_c, 0, 81, 0
2, 121980, Note_on_c, 0, 79, 100
2, 122040, Note_on_c, 0, 79, 0
2, 122040, Note_on_c, 0, 77, 100
2, 122100, Note_on_c, 0, 77, 0
2, 122100, Note_on_c, 0, 76, 100
2, 122160, Note_on_c, 0, 76, 0
2, 122160, Note_on_c, 0, 82, 100
2, 122220, Note_on_c, 0, 82, 0
2, 122220, Note_on_c, 0, 81, 100
2, 122280, Note_on_c, 0, 81, 0
2, 122280, Note_on_c, 0, 79, 100
2, 122340, Note_on_c, 0, 79, 0
2, 122340, Note_on_c, 0, 77, 100
2, 122400, Note_on_c, 0, 77, 0
2, 122400, Note_on_c, 0, 72, 100
2, 122460, Note_on_c, 0, 72, 0
2, 122460, Note_on_c, 0, 76, 100
2, 122520, Note_on_c, 0, 76, 0
2, 122520, Note_on_c, 0, 78, 100
2, 122580, Note_on_c, 0, 78, 0
2, 122580, Note_on_c, 0, 80, 100
2, 122640, Note_on_c, 0, 80, 0
2, 122640, Note_on_c, 0, 81, 100
2, 122700, Note_on_c, 0, 81, 0
2, 122700, Note_on_c, 0, 80, 100
2, 122760, Note_on_c, 0, 80, 0
2, 122760, Note_on_c, 0, 78, 100
2, 122820, Note_on_c, 0, 78, 0
2, 122820, Note_on_c, 0, 76, 100
2, 122880, Note_on_c, 0, 76, 0
2, 122880, Note_on_c, 0, 84, 100
2, 122940, Note_on_c, 0, 84, 0
2, 122940, Note_on_c, 0, 83, 100
2, 123000, Note_on_c, 0, 83, 0
2, 123000, Note_on_c, 0, 81, 100
2, 123060, Note_on_c, 0, 81, 0
2, 123060, Note_on_c, 0, 80, 100
2, 123120, Note_on_c, 0, 80, 0
2, 123120, Note_on_c, 0, 81, 100
2, 123180, Note_on_c, 0, 81, 0
2, 123180, Note_on_c, 0, 83, 100
2, 123240, Note_on_c, 0, 83, 0
2, 123240, Note_on_c, 0, 84, 100
2, 123300, Note_on_c, 0, 84, 0
2, 123300, Note_on_c, 0, 86, 100
2, 123360, Note_on_c, 0, 86, 0
2, 123360, Note_on_c, 0, 88, 100
2, 123420, Note_on_c, 0, 88, 0
2, 123420, Note_on_c, 0, 86, 100
2, 123480, Note_on_c, 0, 86, 0
2, 123480, Note_on_c, 0, 84, 100
2, 123540, Note_on_c, 0, 84, 0
2, 123540, Note_on_c, 0, 83, 100
2, 123600, Note_on_c, 0, 83, 0
2, 123600, Note_on_c, 0, 89, 100
2, 123660, Note_on_c, 0, 89, 0
2, 123660, Note_on_c, 0, 88, 100
2, 123720, Note_on_c, 0, 88, 0
2, 123720, Note_on_c, 0, 86, 100
2, 123780, Note_on_c, 0, 86, 0
2, 123780, Note_on_c, 0, 85, 100
2, 123840, Note_on_c, 0, 85, 0
2, 123840, Note_on_c, 0, 86, 100
2, 123900, Note_on_c, 0, 86, 0
2, 123900, Note_on_c, 0, 88, 100
2, 123960, Note_on_c, 0, 88, 0
2, 123960, Note_on_c, 0, 89, 100
2, 124020, Note_on_c, 0, 89, 0
2, 124020, Note_on_c, 0, 88, 100
2, 124080, Note_on_c, 0, 88, 0
2, 124080, Note_on_c, 0, 86, 100
2, 124140, Note_on_c, 0, 86, 0
2, 124140, Note_on_c, 0, 89, 100
2, 124200, Note_on_c, 0, 89, 0
2, 124200, Note_on_c, 0, 88, 100
2, 124260, Note_on_c, 0, 88, 0
2, 124260, Note_on_c, 0, 86, 100
2, 124320, Note_on_c, 0, 86, 0
2, 124320, Note_on_c, 0, 89, 100
2, 124380, Note_on_c, 0, 89, 0
2, 124380, Note_on_c, 0, 88, 100
2, 124440, Note_on_c, 0, 88, 0
2, 124440, Note_on_c, 0, 86, 100
2, 124500, Note_on_c, 0, 86, 0
2, 124500, Note_on_c, 0, 89, 100
2, 124560, Note_on_c, 0, 89, 0
2, 124560, Note_on_c, 0, 88, 100
2, 124620, Note_on_c, 0, 88, 0
2, 124620, Note_on_c, 0, 86, 100
2, 124680, Note_on_c, 0, 86, 0
2, 124680, Note_on_c, 0, 89, 100
2, 124740, Note_on_c, 0, 89, 0
2, 124740, Note_on_c, 0, 88, 100
2, 124800, Note_on_c, 0, 88, 0
2, 124800, Note_on_c, 0, 86, 100
2, 124860, Note_on_c, 0, 86, 0
2, 124860, Note_on_c, 0, 91, 100
2, 124920, Note_on_c, 0, 91, 0
2, 124920, Note_on_c, 0, 89, 100
2, 124980, Note_on_c, 0, 89, 0
2, 124980, Note_on_c, 0, 88, 100
2, 125040, Note_on_c, 0, 88, 0
2, 125040, Note_on_c, 0, 86, 100
2, 125100, Note_on_c, 0, 86, 0
2, 125100, Note_on_c, 0, 84, 100
2, 125160, Note_on_c, 0, 84, 0
2, 125160, Note_on_c, 0, 82, 100
2, 125220, Note_on_c, 0, 82, 0
2, 125220, Note_on_c, 0, 81, 100
2, 125280, Note_on_c, 0, 81, 0
2, 125280, Note_on_c, 0, 79, 100
2, 125340, Note_on_c, 0, 79, 0
2, 125340, Note_on_c, 0, 81, 100
2, 125400, Note_on_c, 0, 81, 0
2, 125400, Note_on_c, 0, 82, 100
2, 125460, Note_on_c, 0, 82, 0
2, 125460, Note_on_c, 0, 81, 100
2, 125520, Note_on_c, 0, 81, 0
2, 125520, Note_on_c, 0, 79, 100
2, 125580, Note_on_c, 0, 79, 0
2, 125580, Note_on_c, 0, 82, 100
2, 125640, Note_on_c, 0, 82, 0
2, 125640, Note_on_c, 0, 81, 100
2, 125700, Note_on_c, 0, 81, 0
2, 125700, Note_on_c, 0, 79, 100
2, 125760, Note_on_c, 0, 79, 0
2, 125760, Note_on_c, 0, 82, 100
2, 125820, Note_on_c, 0, 82, 0
2, 125820, Note_on_c, 0, 81, 100
2, 125880, Note_on_c, 0, 81, 0
2, 125880, Note_on_c, 0, 79, 100
2, 125940, Note_on_c, 0, 79, 0
2, 125940, Note_on_c, 0, 82, 100
2, 126000, Note_on_c, 0, 82, 0
2, 126000, Note_on_c, 0, 81, 100
2, 126060, Note_on_c, 0, 81, 0
2, 126060, Note_on_c, 0, 79, 100
2, 126120, Note_on_c, 0, 79, 0
2, 126120, Note_on_c, 0, 82, 100
2, 126180, Note_on_c, 0, 82, 0
2, 126180, Note_on_c, 0, 81, 100
2, 126240, Note_on_c, 0, 81, 0
2, 126240, Note_on_c, 0, 79, 100
2, 126300, Note_on_c, 0, 79, 0
2, 126300, Note_on_c, 0, 77, 100
2, 126360, Note_on_c, 0, 77, 0
2, 126360, Note_on_c, 0, 76, 100
2, 126420, Note_on_c, 0, 76, 0
2, 126420, Note_on_c, 0, 74, 100
2, 126480, Note_on_c, 0, 74, 0
2, 126480, Note_on_c, 0, 73, 100
2, 126540, Note_on_c, 0, 73, 0
2, 126540, Note_on_c, 0, 71, 100
2, 126600, Note_on_c, 0, 71, 0
2, 126600, Note_on_c, 0, 69, 100
2, 126660, Note_on_c, 0, 69, 0
2, 126660, Note_on_c, 0, 67, 100
2, 126720, Note_on_c, 0, 67, 0
2, 126720, Note_on_c, 0, 81, 50
2, 128160, Note_on_c, 0, 81, 0
2, 128160, Note_on_c, 0, 79, 50
2, 129120, Note_on_c, 0, 79, 0
2, 129120, Note_on_c, 0, 79, 50
2, 129600, Note_on_c, 0, 79, 0
2, 129600, Note_on_c, 0, 77, 50
2, 130560, Note_on_c, 0, 77, 0
2, 130560, Note_on_c, 0, 77, 50
2, 131040, Note_on_c, 0, 77, 0
2, 131040, Note_on_c, 0, 76, 50
2, 131280, Note_on_c, 0, 76, 0
2, 131280, Note_on_c, 0, 77, 50
2, 131520, Note_on_c, 0, 77, 0
2, 131520, Note_on_c, 0, 76, 50
2, 131760, Note_on_c, 0, 76, 0
2, 131760, Note_on_c, 0, 74, 50
2, 132000, Note_on_c, 0, 74, 0
2, 132000, Note_on_c, 0, 74, 50
2, 132240, Note_on_c, 0, 74, 0
2, 132240, Note_on_c, 0, 73, 50
2, 132480, Note_on_c, 0, 73, 0
2, 132480, Note_on_c, 0, 74, 50
2, 133920, Note_on_c, 0, 74, 0
2, 133920, Note_on_c, 0, 75, 50
2, 135360, Note_on_c, 0, 75, 0
2, 135360, Note_on_c, 0, 74, 50
2, 136800, Note_on_c, 0, 74, 0
2, 136800, Note_on_c, 0, 74, 50
2, 137760, Note_on_c, 0, 74, 0
2, 137760, Note_on_c, 0, 73, 50
2, 138240, Note_on_c, 0, 73, 0
2, 138240, Note_on_c, 0, 74, 50
2, 138720, Note_on_c, 0, 74, 0
2, 138720, Note_on_c, 0, 69, 50
2, 139200, Note_on_c, 0, 69, 0
2, 139200, Note_on_c, 0, 70, 50
2, 139680, Note_on_c, 0, 70, 0
2, 139680, Note_on_c, 0, 72, 50
2, 140160, Note_on_c, 0, 72, 0
2, 140160, Note_on_c, 0, 70, 50
2, 140640, Note_on_c, 0, 70, 0
2, 140640, Note_on_c, 0, 69, 50
2, 141120, Note_on_c, 0, 69, 0
2, 141120, Note_on_c, 0, 70, 50
2, 141600, Note_on_c, 0, 70, 0
2, 141600, Note_on_c, 0, 82, 50
2, 142080, Note_on_c, 0, 82, 0
2, 142080, Note_on_c, 0, 81, 50
2, 142560, Note_on_c, 0, 81, 0
2, 142560, Note_on_c, 0, 79, 50
2, 142800, Note_on_c, 0, 79, 0
2, 142800, Note_on_c, 0, 77, 50
2, 143040, Note_on_c, 0, 77, 0
2, 143040, Note_on_c, 0, 74, 50
2, 143520, Note_on_c, 0, 74, 0
2, 143520, Note_on_c, 0, 73, 50
2, 144000, Note_on_c, 0, 73, 0
2, 144000, Note_on_c, 0, 74, 50
2, 144480, Note_on_c, 0, 74, 0
2, 144480, Note_on_c, 0, 69, 50
2, 144960, Note_on_c, 0, 69, 0
2, 144960, Note_on_c, 0, 70, 50
2, 145440, Note_on_c, 0, 70, 0
2, 145440, Note_on_c, 0, 72, 50
2, 145920, Note_on_c, 0, 72, 0
2, 145920, Note_on_c, 0, 70, 50
2, 146400, Note_on_c, 0, 70, 0
2, 146400, Note_on_c, 0, 69, 50
2, 146880, Note_on_c, 0, 69, 0
2, 146880, Note_on_c, 0, 70, 50
2, 147360, Note_on_c, 0, 70, 0
2, 147360, Note_on_c, 0, 69, 50
2, 147840, Note_on_c, 0, 69, 0
2, 147840, Note_on_c, 0, 67, 50
2, 148320, Note_on_c, 0, 67, 0
2, 148320, Note_on_c, 0, 65, 50
2, 148800, Note_on_c, 0, 65, 0
2, 148800, Note_on_c, 0, 64, 50
2, 149760, Note_on_c, 0, 64, 0
2, 149760, Note_on_c, 0, 65, 50
2, 150240, Note_on_c, 0, 65, 0
2, 150240, Note_on_c, 0, 69, 50
2, 150720, Note_on_c, 0, 69, 0
2, 150720, Note_on_c, 0, 77, 50
2, 151200, Note_on_c, 0, 77, 0
2, 151200, Note_on_c, 0, 77, 50
2, 151680, Note_on_c, 0, 77, 0
2, 151680, Note_on_c, 0, 76, 50
2, 152160, Note_on_c, 0, 76, 0
2, 152160, Note_on_c, 0, 75, 50
2, 152640, Note_on_c, 0, 75, 0
2, 152640, Note_on_c, 0, 75, 50
2, 153120, Note_on_c, 0, 75, 0
2, 153120, Note_on_c, 0, 82, 50
2, 153600, Note_on_c, 0, 82, 0
2, 153600, Note_on_c, 0, 76, 50
2, 154080, Note_on_c, 0, 76, 0
2, 154080, Note_on_c, 0, 76, 50
2, 154560, Note_on_c, 0, 76, 0
2, 154560, Note_on_c, 0, 81, 50
2, 155040, Note_on_c, 0, 81, 0
2, 155040, Note_on_c, 0, 79, 50
2, 155520, Note_on_c, 0, 79, 0
2, 155520, Note_on_c, 0, 77, 50
2, 156000, Note_on_c, 0, 77, 0
2, 156000, Note_on_c, 0, 78, 50
2, 156960, Note_on_c, 0, 78, 0
2, 156960, Note_on_c, 0, 79, 50
2, 157440, Note_on_c, 0, 79, 0
2, 157440, Note_on_c, 0, 80, 50
2, 158400, Note_on_c, 0, 80, 0
2, 158400, Note_on_c, 0, 81, 50
2, 158880, Note_on_c, 0, 81, 0
2, 158880, Note_on_c, 0, 84, 50
2, 159360, Note_on_c, 0, 84, 0
2, 159360, Note_on_c, 0, 83, 50
2, 159840, Note_on_c, 0, 83, 0
2, 159840, Note_on_c, 0, 86, 50
2, 160320, Note_on_c, 0, 86, 0
2, 160320, Note_on_c, 0, 86, 50
2, 160800, Note_on_c, 0, 86, 0
2, 160800, Note_on_c, 0, 85, 50
2, 161280, Note_on_c, 0, 85, 0
2, 161280, Note_on_c, 0, 86, 50
2, 162720, Note_on_c, 0, 86, 0
2, 162720, Note_on_c, 0, 86, 50
2, 163200, Note_on_c, 0, 86, 0
2, 163200, Note_on_c, 0, 85, 50
2, 164160, Note_on_c, 0, 85, 0
2, 164160, Note_on_c, 0, 84, 50
2, 164640, Note_on_c, 0, 84, 0
2, 164640, Note_on_c, 0, 83, 50
2, 165600, Note_on_c, 0, 83, 0
2, 165600, Note_on_c, 0, 82, 50
2, 166080, Note_on_c, 0, 82, 0
2, 166080, Note_on_c, 0, 81, 50
2, 166560, Note_on_c, 0, 81, 0
2, 166560, Note_on_c, 0, 79, 50
2, 167040, Note_on_c, 0, 79, 0
2, 167040, Note_on_c, 0, 78, 50
2, 167520, Note_on_c, 0, 78, 0
2, 167520, Note_on_c, 0, 77, 50
2, 168000, Note_on_c, 0, 77, 0
2, 168000, Note_on_c, 0, 77, 50
2, 168480, Note_on_c, 0, 77, 0
2, 168480, Note_on_c, 0, 76, 50
2, 168960, Note_on_c, 0, 76, 0
2, 168960, Note_on_c, 0, 75, 50
2, 169440, Note_on_c, 0, 75, 0
2, 169440, Note_on_c, 0, 75, 50
2, 169920, Note_on_c, 0, 75, 0
2, 169920, Note_on_c, 0, 74, 50
2, 170400, Note_on_c, 0, 74, 0
2, 170400, Note_on_c, 0, 74, 50
2, 170880, Note_on_c, 0, 74, 0
2, 170880, Note_on_c, 0, 74, 50
2, 171360, Note_on_c, 0, 74, 0
2, 171360, Note_on_c, 0, 74, 50
2, 171840, Note_on_c, 0, 74, 0
2, 171840, Note_on_c, 0, 74, 50
2, 172320, Note_on_c, 0, 74, 0
2, 172320, Note_on_c, 0, 73, 50
2, 172800, Note_on_c, 0, 73, 0
2, 180000, Note_on_c, 0, 76, 100
2, 180480, Note_on_c, 0, 76, 0
2, 180480, Note_on_c, 0, 76, 100
2, 181200, Note_on_c, 0, 76, 0
2, 181200, Note_on_c, 0, 76, 100
2, 181440, Note_on_c, 0, 76, 0
2, 181440, Note_on_c, 0, 77, 100
2, 181920, Note_on_c, 0, 77, 0
2, 181920, Note_on_c, 0, 74, 100
2, 182640, Note_on_c, 0, 74, 0
2, 182640, Note_on_c, 0, 74, 100
2, 182880, Note_on_c, 0, 74, 0
2, 182880, Note_on_c, 0, 74, 100
2, 183360, Note_on_c, 0, 74, 0
2, 183360, Note_on_c, 0, 74, 100
2, 183840, Note_on_c, 0, 74, 0
2, 183840, Note_on_c, 0, 73, 100
2, 184320, Note_on_c, 0, 73, 0
2, 184320, Note_on_c, 0, 74, 100
2, 184800, Note_on_c, 0, 74, 0
2, 184800, Note_on_c, 0, 74, 100
2, 185280, Note_on_c, 0, 74, 0
2, 185760, Note_on_c, 0, 74, 100
2, 186240, Note_on_c, 0, 74, 0
2, 186240, Note_on_c, 0, 72, 100
2, 186720, Note_on_c, 0, 72, 0
2, 190080, Note_on_c, 0, 74, 100
2, 190560, Note_on_c, 0, 74, 0
2, 190560, Note_on_c, 0, 66, 100
2, 191280, Note_on_c, 0, 66, 0
2, 191280, Note_on_c, 0, 67, 100
2, 191520, Note_on_c, 0, 67, 0
2, 191520, Note_on_c, 0, 64, 100
2, 192000, Note_on_c, 0, 64, 0
2, 192000, Note_on_c, 0, 66, 100
2, 192720, Note_on_c, 0, 66, 0
2, 192720, Note_on_c, 0, 67, 100
2, 192840, Note_on_c, 0, 67, 0
2, 192840, Note_on_c, 0, 69, 100
2, 192960, Note_on_c, 0, 69, 0
2, 192960, Note_on_c, 0, 62, 100
2, 193440, Note_on_c, 0, 62, 0
2, 193440, Note_on_c, 0, 64, 100
2, 194160, Note_on_c, 0, 64, 0
2, 194160, Note_on_c, 0, 66, 100
2, 194280, Note_on_c, 0, 66, 0
2, 194280, Note_on_c, 0, 67, 100
2, 194400, Note_on_c, 0, 67, 0
2, 194400, Note_on_c, 0, 66, 100
2, 194640, Note_on_c, 0, 66, 0
2, 194640, Note_on_c, 0, 64, 100
2, 194880, Note_on_c, 0, 64, 0
2, 194880, Note_on_c, 0, 64, 100
2, 195600, Note_on_c, 0, 64, 0
2, 200160, Note_on_c, 0, 73, 100
2, 200400, Note_on_c, 0, 73, 0
2, 200400, Note_on_c, 0, 74, 100
2, 200640, Note_on_c, 0, 74, 0
2, 201360, Note_on_c, 0, 69, 100
2, 201600, Note_on_c, 0, 69, 0
2, 201600, Note_on_c, 0, 66, 100
2, 201840, Note_on_c, 0, 66, 0
2, 201840, Note_on_c, 0, 64, 100
2, 202080, Note_on_c, 0, 64, 0
2, 202080, Note_on_c, 0, 62, 100
2, 202320, Note_on_c, 0, 62, 0
2, 202320, Note_on_c, 0, 64, 100
2, 202560, Note_on_c, 0, 64, 0
2, 202560, Note_on_c, 0, 66, 100
2, 202800, Note_on_c, 0, 66, 0
2, 202800, Note_on_c, 0, 68, 100
2, 203040, Note_on_c, 0, 68, 0
2, 203040, Note_on_c, 0, 69, 100
2, 203280, Note_on_c, 0, 69, 0
2, 203280, Note_on_c, 0, 71, 100
2, 203520, Note_on_c, 0, 71, 0
2, 203520, Note_on_c, 0, 73, 100
2, 203760, Note_on_c, 0, 73, 0
2, 203760, Note_on_c, 0, 74, 100
2, 204000, Note_on_c, 0, 74, 0
2, 204000, Note_on_c, 0, 71, 100
2, 204240, Note_on_c, 0, 71, 0
2, 204240, Note_on_c, 0, 73, 100
2, 204480, Note_on_c, 0, 73, 0
2, 204480, Note_on_c, 0, 74, 100
2, 204720, Note_on_c, 0, 74, 0
2, 204720, Note_on_c, 0, 78, 100
2, 204960, Note_on_c, 0, 78, 0
2, 204960, Note_on_c, 0, 76, 100
2, 205200, Note_on_c, 0, 76, 0
2, 205200, Note_on_c, 0, 74, 100
2, 205440, Note_on_c, 0, 74, 0
2, 205440, Note_on_c, 0, 73, 100
2, 205680, Note_on_c, 0, 73, 0
2, 205680, Note_on_c, 0, 71, 100
2, 205920, Note_on_c, 0, 71, 0
2, 205920, Note_on_c, 0, 69, 100
2, 206160, Note_on_c, 0, 69, 0
2, 206160, Note_on_c, 0, 71, 100
2, 206400, Note_on_c, 0, 71, 0
2, 206400, Note_on_c, 0, 73, 100
2, 206640, Note_on_c, 0, 73, 0
2, 206640, Note_on_c, 0, 74, 100
2, 206880, Note_on_c, 0, 74, 0
2, 206880, Note_on_c, 0, 76, 100
2, 207120, Note_on_c, 0, 76, 0
2, 207120, Note_on_c, 0, 73, 100
2, 207360, Note_on_c, 0, 73, 0
2, 207360, Note_on_c, 0, 74, 100
2, 207840, Note_on_c, 0, 74, 0
2, 207840, Note_on_c, 0, 74, 100
2, 208560, Note_on_c, 0, 74, 0
2, 208560, Note_on_c, 0, 74, 100
2, 208800, Note_on_c, 0, 74, 0
2, 208800, Note_on_c, 0, 73, 100
2, 209040, Note_on_c, 0, 73, 0
2, 211200, Note_on_c, 0, 74, 100
2, 211440, Note_on_c, 0, 74, 0
2, 211440, Note_on_c, 0, 71, 100
2, 211680, Note_on_c, 0, 71, 0
2, 211680, Note_on_c, 0, 73, 100
2, 211920, Note_on_c, 0, 73, 0
2, 211920, Note_on_c, 0, 74, 100
2, 212160, Note_on_c, 0, 74, 0
2, 212160, Note_on_c, 0, 74, 100
2, 212640, Note_on_c, 0, 74, 0
2, 212640, Note_on_c, 0, 73, 100
2, 213120, Note_on_c, 0, 73, 0
2, 213120, Note_on_c, 0, 74, 100
2, 213240, Note_on_c, 0, 74, 0
2, 213240, Note_on_c, 0, 73, 100
2, 213360, Note_on_c, 0, 73, 0
2, 213360, Note_on_c, 0, 71, 100
2, 213480, Note_on_c, 0, 71, 0
2, 213480, Note_on_c, 0, 69, 100
2, 213600, Note_on_c, 0, 69, 0
2, 213600, Note_on_c, 0, 68, 100
2, 213720, Note_on_c, 0, 68, 0
2, 213720, Note_on_c, 0, 71, 100
2, 213840, Note_on_c, 0, 71, 0
2, 213840, Note_on_c, 0, 74, 100
2, 213960, Note_on_c, 0, 74, 0
2, 213960, Note_on_c, 0, 78, 100
2, 214080, Note_on_c, 0, 78, 0
2, 214080, Note_on_c, 0, 76, 100
2, 214320, Note_on_c, 0, 76, 0
2, 214320, Note_on_c, 0, 76, 100
2, 214560, Note_on_c, 0, 76, 0
2, 214560, Note_on_c, 0, 76, 100
2, 214800, Note_on_c, 0, 76, 0
2, 215760, Note_on_c, 0, 66, 100
2, 216000, Note_on_c, 0, 66, 0
2, 216000, Note_on_c, 0, 66, 100
2, 216240, Note_on_c, 0, 66, 0
2, 217200, Note_on_c, 0, 64, 100
2, 217440, Note_on_c, 0, 64, 0
2, 217440, Note_on_c, 0, 64, 100
2, 217560, Note_on_c, 0, 64, 0
2, 242520, Note_on_c, 0, 81, 100
2, 242640, Note_on_c, 0, 81, 0
2, 242640, Note_on_c, 0, 81, 100
2, 242760, Note_on_c, 0, 81, 0
2, 242760, Note_on_c, 0, 78, 100
2, 242880, Note_on_c, 0, 78, 0
2, 242880, Note_on_c, 0, 78, 100
2, 243000, Note_on_c, 0, 78, 0
2, 243000, Note_on_c, 0, 74, 100
2, 243120, Note_on_c, 0, 74, 0
2, 243120, Note_on_c, 0, 74, 100
2, 243240, Note_on_c, 0, 74, 0
2, 243240, Note_on_c, 0, 78, 100
2, 243360, Note_on_c, 0, 78, 0
2, 243360, Note_on_c, 0, 76, 100
2, 243480, Note_on_c, 0, 76, 0
2, 243960, Note_on_c, 0, 81, 100
2, 244080, Note_on_c, 0, 81, 0
2, 244080, Note_on_c, 0, 81, 100
2, 244200, Note_on_c, 0, 81, 0
2, 244200, Note_on_c, 0, 76, 100
2, 244320, Note_on_c, 0, 76, 0
2, 244320, Note_on_c, 0, 76, 100
2, 244440, Note_on_c, 0, 76, 0
2, 244440, Note_on_c, 0, 73, 100
2, 244560, Note_on_c, 0, 73, 0
2, 244560, Note_on_c, 0, 73, 100
2, 244680, Note_on_c, 0, 73, 0
2, 244680, Note_on_c, 0, 76, 100
2, 244800, Note_on_c, 0, 76, 0
2, 244800, Note_on_c, 0, 74, 100
2, 244920, Note_on_c, 0, 74, 0
2, 245400, Note_on_c, 0, 83, 100
2, 245520, Note_on_c, 0, 83, 0
2, 245520, Note_on_c, 0, 83, 100
2, 245640, Note_on_c, 0, 83, 0
2, 245640, Note_on_c, 0, 80, 100
2, 245760, Note_on_c, 0, 80, 0
2, 245760, Note_on_c, 0, 80, 100
2, 245880, Note_on_c, 0, 80, 0
2, 245880, Note_on_c, 0, 76, 100
2, 246000, Note_on_c, 0, 76, 0
2, 246000, Note_on_c, 0, 76, 100
2, 246120, Note_on_c, 0, 76, 0
2, 246120, Note_on_c, 0, 80, 100
2, 246240, Note_on_c, 0, 80, 0
2, 246240, Note_on_c, 0, 81, 100
2, 246360, Note_on_c, 0, 81, 0
2, 246840, Note_on_c, 0, 81, 100
2, 246960, Note_on_c, 0, 81, 0
2, 246960, Note_on_c, 0, 81, 100
2, 247080, Note_on_c, 0, 81, 0
2, 247080, Note_on_c, 0, 81, 100
2, 247200, Note_on_c, 0, 81, 0
2, 247200, Note_on_c, 0, 81, 100
2, 247320, Note_on_c, 0, 81, 0
2, 247320, Note_on_c, 0, 79, 100
2, 247440, Note_on_c, 0, 79, 0
2, 247440, Note_on_c, 0, 79, 100
2, 247560, Note_on_c, 0, 79, 0
2, 247560, Note_on_c, 0, 79, 100
2, 247680, Note_on_c, 0, 79, 0
2, 247680, Note_on_c, 0, 78, 100
2, 247800, Note_on_c, 0, 78, 0
2, 249720, Note_on_c, 0, 86, 100
2, 249840, Note_on_c, 0, 86, 0
2, 249840, Note_on_c, 0, 86, 100
2, 249960, Note_on_c, 0, 86, 0
2, 249960, Note_on_c, 0, 86, 100
2, 250080, Note_on_c, 0, 86, 0
2, 250080, Note_on_c, 0, 86, 100
2, 250200, Note_on_c, 0, 86, 0
2, 250200, Note_on_c, 0, 84, 100
2, 250320, Note_on_c, 0, 84, 0
2, 250320, Note_on_c, 0, 84, 100
2, 250440, Note_on_c, 0, 84, 0
2, 250440, Note_on_c, 0, 84, 100
2, 250560, Note_on_c, 0, 84, 0
2, 250560, Note_on_c, 0, 83, 100
2, 250680, Note_on_c, 0, 83, 0
2, 251160, Note_on_c, 0, 83, 100
2, 251280, Note_on_c, 0, 83, 0
2, 251280, Note_on_c, 0, 83, 100
2, 251400, Note_on_c, 0, 83, 0
2, 251400, Note_on_c, 0, 83, 100
2, 251520, Note_on_c, 0, 83, 0
2, 251520, Note_on_c, 0, 85, 100
2, 251640, Note_on_c, 0, 85, 0
2, 251640, Note_on_c, 0, 86, 100
2, 251760, Note_on_c, 0, 86, 0
2, 251760, Note_on_c, 0, 86, 100
2, 251880, Note_on_c, 0, 86, 0
2, 251880, Note_on_c, 0, 86, 100
2, 252000, Note_on_c, 0, 86, 0
2, 252000, Note_on_c, 0, 79, 100
2, 252120, Note_on_c, 0, 79, 0
2, 252120, Note_on_c, 0, 79, 100
2, 252240, Note_on_c, 0, 79, 0
2, 252240, Note_on_c, 0, 79, 100
2, 252360, Note_on_c, 0, 79, 0
2, 252360, Note_on_c, 0, 79, 100
2, 252480, Note_on_c, 0, 79, 0
2, 252480, Note_on_c, 0, 78, 100
2, 252600, Note_on_c, 0, 78, 0
2, 252600, Note_on_c, 0, 78, 100
2, 252720, Note_on_c, 0, 78, 0
2, 252720, Note_on_c, 0, 78, 100
2, 252840, Note_on_c, 0, 78, 0
2, 252840, Note_on_c, 0, 78, 100
2, 252960, Note_on_c, 0, 78, 0
2, 252960, Note_on_c, 0, 76, 100
2, 253080, Note_on_c, 0, 76, 0
2, 253080, Note_on_c, 0, 76, 100
2, 253200, Note_on_c, 0, 76, 0
2, 253200, Note_on_c, 0, 76, 100
2, 253320, Note_on_c, 0, 76, 0
2, 253320, Note_on_c, 0, 76, 100
2, 253440, Note_on_c, 0, 76, 0
2, 253440, Note_on_c, 0, 78, 100
2, 253920, Note_on_c, 0, 78, 0
2, 253920, Note_on_c, 0, 78, 100
2, 254640, Note_on_c, 0, 78, 0
2, 254640, Note_on_c, 0, 78, 100
2, 254880, Note_on_c, 0, 78, 0
2, 254880, Note_on_c, 0, 78, 100
2, 255120, Note_on_c, 0, 78, 0
2, 255120, Note_on_c, 0, 76, 100
2, 255360, Note_on_c, 0, 76, 0
2, 255360, Note_on_c, 0, 76, 100
2, 256080, Note_on_c, 0, 76, 0
2, 256080, Note_on_c, 0, 76, 100
2, 256320, Note_on_c, 0, 76, 0
2, 256320, Note_on_c, 0, 76, 100
2, 256560, Note_on_c, 0, 76, 0
2, 256560, Note_on_c, 0, 74, 100
2, 256800, Note_on_c, 0, 74, 0
2, 256800, Note_on_c, 0, 72, 100
2, 257520, Note_on_c, 0, 72, 0
2, 257520, Note_on_c, 0, 72, 100
2, 257760, Note_on_c, 0, 72, 0
2, 257760, Note_on_c, 0, 72, 100
2, 258000, Note_on_c, 0, 72, 0
2, 258000, Note_on_c, 0, 71, 100
2, 258240, Note_on_c, 0, 71, 0
2, 258240, Note_on_c, 0, 73, 100
2, 258480, Note_on_c, 0, 73, 0
2, 258480, Note_on_c, 0, 69, 100
2, 258720, Note_on_c, 0, 69, 0
2, 258720, Note_on_c, 0, 71, 100
2, 258960, Note_on_c, 0, 71, 0
2, 258960, Note_on_c, 0, 73, 100
2, 259200, Note_on_c, 0, 73, 0
2, 259200, Note_on_c, 0, 74, 100
2, 259680, Note_on_c, 0, 74, 0
2, 259680, Note_on_c, 0, 74, 100
2, 260400, Note_on_c, 0, 74, 0
2, 260400, Note_on_c, 0, 74, 100
2, 260640, Note_on_c, 0, 74, 0
2, 260640, Note_on_c, 0, 73, 100
2, 261120, Note_on_c, 0, 73, 0
2, 261120, Note_on_c, 0, 73, 100
2, 261840, Note_on_c, 0, 73, 0
2, 261840, Note_on_c, 0, 73, 100
2, 262080, Note_on_c, 0, 73, 0
2, 262080, Note_on_c, 0, 72, 100
2, 262320, Note_on_c, 0, 72, 0
2, 262320, Note_on_c, 0, 74, 100
2, 262560, Note_on_c, 0, 74, 0
2, 262560, Note_on_c, 0, 74, 100
2, 262800, Note_on_c, 0, 74, 0
2, 262800, Note_on_c, 0, 72, 100
2, 263040, Note_on_c, 0, 72, 0
2, 263040, Note_on_c, 0, 71, 100
2, 263280, Note_on_c, 0, 71, 0
2, 263280, Note_on_c, 0, 69, 100
2, 263520, Note_on_c, 0, 69, 0
2, 263520, Note_on_c, 0, 67, 100
2, 263760, Note_on_c, 0, 67, 0
2, 263760, Note_on_c, 0, 66, 100
2, 264000, Note_on_c, 0, 66, 0
2, 264000, Note_on_c, 0, 64, 100
2, 264960, Note_on_c, 0, 64, 0
2, 264960, Note_on_c, 0, 66, 100
2, 265440, Note_on_c, 0, 66, 0
2, 265440, Note_on_c, 0, 66, 100
2, 266160, Note_on_c, 0, 66, 0
2, 266160, Note_on_c, 0, 66, 100
2, 266400, Note_on_c, 0, 66, 0
2, 266400, Note_on_c, 0, 66, 100
2, 266880, Note_on_c, 0, 66, 0
2, 266880, Note_on_c, 0, 66, 100
2, 267600, Note_on_c, 0, 66, 0
2, 267600, Note_on_c, 0, 66, 100
2, 267840, Note_on_c, 0, 66, 0
2, 267840, Note_on_c, 0, 67, 100
2, 268320, Note_on_c, 0, 67, 0
2, 268320, Note_on_c, 0, 67, 100
2, 269040, Note_on_c, 0, 67, 0
2, 269040, Note_on_c, 0, 67, 100
2, 269280, Note_on_c, 0, 67, 0
2, 269280, Note_on_c, 0, 67, 100
2, 269520, Note_on_c, 0, 67, 0
2, 269520, Note_on_c, 0, 66, 100
2, 269760, Note_on_c, 0, 66, 0
2, 269760, Note_on_c, 0, 64, 100
2, 270000, Note_on_c, 0, 64, 0
2, 270000, Note_on_c, 0, 62, 100
2, 270240, Note_on_c, 0, 62, 0
2, 270240, Note_on_c, 0, 64, 100
2, 270720, Note_on_c, 0, 64, 0
2, 270720, Note_on_c, 0, 62, 100
2, 271200, Note_on_c, 0, 62, 0
2, 271200, Note_on_c, 0, 62, 100
2, 271920, Note_on_c, 0, 62, 0
2, 271920, Note_on_c, 0, 62, 100
2, 272160, Note_on_c, 0, 62, 0
2, 272160, Note_on_c, 0, 60, 100
2, 272640, Note_on_c, 0, 60, 0
2, 272640, Note_on_c, 0, 60, 100
2, 273360, Note_on_c, 0, 60, 0
2, 273360, Note_on_c, 0, 60, 100
2, 273600, Note_on_c, 0, 60, 0
2, 273600, Note_on_c, 0, 59, 100
2, 274080, Note_on_c, 0, 59, 0
2, 274080, Note_on_c, 0, 61, 100
2, 274800, Note_on_c, 0, 61, 0
2, 274800, Note_on_c, 0, 61, 100
2, 275040, Note_on_c, 0, 61, 0
2, 275040, Note_on_c, 0, 62, 100
2, 275520, Note_on_c, 0, 62, 0
2, 275520, Note_on_c, 0, 57, 100
2, 276000, Note_on_c, 0, 57, 0
2, 282240, Note_on_c, 0, 62, 100
2, 282720, Note_on_c, 0, 62, 0
2, 282720, Note_on_c, 0, 62, 100
2, 283440, Note_on_c, 0, 62, 0
2, 283440, Note_on_c, 0, 62, 100
2, 283680, Note_on_c, 0, 62, 0
2, 283680, Note_on_c, 0, 69, 100
2, 284160, Note_on_c, 0, 69, 0
2, 284160, Note_on_c, 0, 62, 100
2, 284880, Note_on_c, 0, 62, 0
2, 284880, Note_on_c, 0, 62, 100
2, 285120, Note_on_c, 0, 62, 0
2, 285600, Note_on_c, 0, 74, 100
2, 286320, Note_on_c, 0, 74, 0
2, 286320, Note_on_c, 0, 74, 100
2, 286560, Note_on_c, 0, 74, 0
2, 286560, Note_on_c, 0, 74, 100
2, 287040, Note_on_c, 0, 74, 0
2, 287040, Note_on_c, 0, 73, 100
2, 287760, Note_on_c, 0, 73, 0
2, 287760, Note_on_c, 0, 73, 100
2, 288000, Note_on_c, 0, 73, 0
2, 288000, Note_on_c, 0, 74, 100
2, 288480, Note_on_c, 0, 74, 0
2, 288480, Note_on_c, 0, 69, 50
2, 288960, Note_on_c, 0, 69, 0
2, 288960, Note_on_c, 0, 69, 50
2, 289440, Note_on_c, 0, 69, 0
2, 289440, Note_on_c, 0, 71, 50
2, 289920, Note_on_c, 0, 71, 0
2, 289920, Note_on_c, 0, 71, 50
2, 290400, Note_on_c, 0, 71, 0
2, 290400, Note_on_c, 0, 71, 50
2, 290880, Note_on_c, 0, 71, 0
2, 290880, Note_on_c, 0, 71, 50
2, 291360, Note_on_c, 0, 71, 0
2, 291360, Note_on_c, 0, 73, 50
2, 291840, Note_on_c, 0, 73, 0
2, 291840, Note_on_c, 0, 73, 50
2, 292320, Note_on_c, 0, 73, 0
2, 292320, Note_on_c, 0, 74, 50
2, 292800, Note_on_c, 0, 74, 0
2, 292800, Note_on_c, 0, 74, 50
2, 293280, Note_on_c, 0, 74, 0
2, 293280, Note_on_c, 0, 73, 50
2, 293760, Note_on_c, 0, 73, 0
2, 293760, Note_on_c, 0, 74, 50
2, 294240, Note_on_c, 0, 74, 0
2, 294240, Note_on_c, 0, 69, 50
2, 294480, Note_on_c, 0, 69, 0
2, 294480, Note_on_c, 0, 71, 50
2, 294720, Note_on_c, 0, 71, 0
2, 294720, Note_on_c, 0, 72, 50
2, 295200, Note_on_c, 0, 72, 0
2, 295200, Note_on_c, 0, 71, 50
2, 295680, Note_on_c, 0, 71, 0
2, 295680, Note_on_c, 0, 71, 50
2, 295920, Note_on_c, 0, 71, 0
2, 295920, Note_on_c, 0, 73, 50
2, 296160, Note_on_c, 0, 73, 0
2, 296160, Note_on_c, 0, 74, 50
2, 296640, Note_on_c, 0, 74, 0
2, 296640, Note_on_c, 0, 74, 50
2, 297120, Note_on_c, 0, 74, 0
2, 297120, Note_on_c, 0, 73, 50
2, 297600, Note_on_c, 0, 73, 0
2, 297600, Note_on_c, 0, 73, 50
2, 298080, Note_on_c, 0, 73, 0
2, 298320, Note_on_c, 0, 74, 100
2, 298560, Note_on_c, 0, 74, 0
2, 298560, Note_on_c, 0, 73, 100
2, 298560, Pitch_bend_c, 0, 12288
2, 298620, Pitch_bend_c, 0, 8192
2, 298680, Pitch_bend_c, 0, 12288
2, 298740, Pitch_bend_c, 0, 8192
2, 298800, Pitch_bend_c, 0, 12288
2, 298860, Pitch_bend_c, 0, 8192
2, 298920, Pitch_bend_c, 0, 12288
2, 298984, Pitch_bend_c, 0, 8192
2, 299280, Note_on_c, 0, 73, 0
2, 299280, Note_on_c, 0, 74, 100
2, 299520, Note_on_c, 0, 74, 0
2, 299520, Note_on_c, 0, 74, 100
2, 300000, Note_on_c, 0, 74, 0
2, 300000, Note_on_c, 0, 70, 100
2, 300720, Note_on_c, 0, 70, 0
2, 300720, Note_on_c, 0, 70, 100
2, 300960, Note_on_c, 0, 70, 0
2, 300960, Note_on_c, 0, 70, 100
2, 301320, Note_on_c, 0, 70, 0
2, 301320, Note_on_c, 0, 76, 100
2, 301440, Note_on_c, 0, 76, 0
2, 301440, Note_on_c, 0, 70, 100
2, 301560, Note_on_c, 0, 70, 0
2, 301560, Note_on_c, 0, 67, 100
2, 301680, Note_on_c, 0, 67, 0
2, 301680, Note_on_c, 0, 69, 100
2, 301800, Note_on_c, 0, 69, 0
2, 301800, Note_on_c, 0, 64, 100
2, 301920, Note_on_c, 0, 64, 0
2, 301920, Note_on_c, 0, 60, 100
2, 302160, Note_on_c, 0, 60, 0
2, 302160, Note_on_c, 0, 69, 100
2, 302400, Note_on_c, 0, 69, 0
2, 302400, Note_on_c, 0, 69, 100
2, 302760, Note_on_c, 0, 69, 0
2, 302760, Note_on_c, 0, 74, 100
2, 302880, Note_on_c, 0, 74, 0
2, 302880, Note_on_c, 0, 69, 100
2, 303000, Note_on_c, 0, 69, 0
2, 303000, Note_on_c, 0, 66, 100
2, 303120, Note_on_c, 0, 66, 0
2, 303120, Note_on_c, 0, 67, 100
2, 303240, Note_on_c, 0, 67, 0
2, 303240, Note_on_c, 0, 62, 100
2, 303360, Note_on_c, 0, 62, 0
2, 303360, Note_on_c, 0, 58, 100
2, 303600, Note_on_c, 0, 58, 0
2, 303600, Note_on_c, 0, 67, 100
2, 303840, Note_on_c, 0, 67, 0
2, 303840, Note_on_c, 0, 67, 100
2, 304200, Note_on_c, 0, 67, 0
2, 304200, Note_on_c, 0, 76, 100
2, 304320, Note_on_c, 0, 76, 0
2, 304320, Note_on_c, 0, 73, 100
2, 304440, Note_on_c, 0, 73, 0
2, 304440, Note_on_c, 0, 69, 100
2, 304560, Note_on_c, 0, 69, 0
2, 304560, Note_on_c, 0, 70, 100
2, 304680, Note_on_c, 0, 70, 0
2, 304680, Note_on_c, 0, 67, 100
2, 304800, Note_on_c, 0, 67, 0
2, 304800, Note_on_c, 0, 61, 100
2, 305040, Note_on_c, 0, 61, 0
2, 305040, Note_on_c, 0, 69, 100
2, 305280, Note_on_c, 0, 69, 0
2, 305280, Note_on_c, 0, 65, 100
2, 305640, Note_on_c, 0, 65, 0
2, 305640, Note_on_c, 0, 62, 100
2, 305760, Note_on_c, 0, 62, 0
2, 305760, Note_on_c, 0, 65, 100
2, 305880, Note_on_c, 0, 65, 0
2, 305880, Note_on_c, 0, 69, 100
2, 306000, Note_on_c, 0, 69, 0
2, 306000, Note_on_c, 0, 74, 100
2, 306120, Note_on_c, 0, 74, 0
2, 306120, Note_on_c, 0, 73, 100
2, 306240, Note_on_c, 0, 73, 0
2, 306240, Note_on_c, 0, 74, 100
2, 306360, Note_on_c, 0, 74, 0
2, 306360, Note_on_c, 0, 76, 100
2, 306480, Note_on_c, 0, 76, 0
2, 306480, Note_on_c, 0, 77, 100
2, 306600, Note_on_c, 0, 77, 0
2, 306600, Note_on_c, 0, 69, 100
2, 306720, Note_on_c, 0, 69, 0
2, 306720, Note_on_c, 0, 70, 100
2, 307080, Note_on_c, 0, 70, 0
2, 308160, Note_on_c, 0, 75, 100
2, 308520, Note_on_c, 0, 75, 0
2, 308520, Note_on_c, 0, 73, 100
2, 308640, Note_on_c, 0, 73, 0
2, 308640, Note_on_c, 0, 74, 100
2, 308760, Note_on_c, 0, 74, 0
2, 308760, Note_on_c, 0, 69, 100
2, 308880, Note_on_c, 0, 69, 0
2, 308880, Note_on_c, 0, 70, 100
2, 309000, Note_on_c, 0, 70, 0
2, 309000, Note_on_c, 0, 66, 100
2, 309120, Note_on_c, 0, 66, 0
2, 309120, Note_on_c, 0, 67, 100
2, 309240, Note_on_c, 0, 67, 0
2, 309240, Note_on_c, 0, 62, 100
2, 309360, Note_on_c, 0, 62, 0
2, 309360, Note_on_c, 0, 63, 100
2, 309480, Note_on_c, 0, 63, 0
2, 309480, Note_on_c, 0, 67, 100
2, 309600, Note_on_c, 0, 67, 0
2, 309600, Note_on_c, 0, 73, 100
2, 309840, Note_on_c, 0, 73, 0
2, 309840, Note_on_c, 0, 74, 100
2, 310080, Note_on_c, 0, 74, 0
2, 310080, Note_on_c, 0, 74, 100
2, 310440, Note_on_c, 0, 74, 0
2, 310440, Note_on_c, 0, 71, 100
2, 310560, Note_on_c, 0, 71, 0
2, 310560, Note_on_c, 0, 73, 100
2, 310680, Note_on_c, 0, 73, 0
2, 310680, Note_on_c, 0, 76, 100
2, 310800, Note_on_c, 0, 76, 0
2, 310800, Note_on_c, 0, 79, 100
2, 310920, Note_on_c, 0, 79, 0
2, 310920, Note_on_c, 0, 69, 100
2, 311040, Note_on_c, 0, 69, 0
2, 311040, Note_on_c, 0, 62, 100
2, 311160, Note_on_c, 0, 62, 0
2, 311160, Note_on_c, 0, 69, 100
2, 311280, Note_on_c, 0, 69, 0
2, 311280, Note_on_c, 0, 73, 100
2, 311400, Note_on_c, 0, 73, 0
2, 311400, Note_on_c, 0, 79, 100
2, 311520, Note_on_c, 0, 79, 0
2, 311520, Note_on_c, 0, 77, 100
2, 311640, Note_on_c, 0, 77, 0
2, 311760, Note_on_c, 0, 73, 100
2, 311880, Note_on_c, 0, 73, 0
2, 312000, Note_on_c, 0, 62, 100
2, 312120, Note_on_c, 0, 62, 0
2, 312240, Note_on_c, 0, 73, 100
2, 312360, Note_on_c, 0, 73, 0
2, 312480, Note_on_c, 0, 64, 100
2, 312600, Note_on_c, 0, 64, 0
2, 312600, Note_on_c, 0, 67, 100
2, 312720, Note_on_c, 0, 67, 0
2, 312720, Note_on_c, 0, 73, 100
2, 312840, Note_on_c, 0, 73, 0
2, 312840, Note_on_c, 0, 81, 100
2, 312960, Note_on_c, 0, 81, 0
2, 312960, Note_on_c, 0, 79, 100
2, 313080, Note_on_c, 0, 79, 0
2, 313200, Note_on_c, 0, 73, 100
2, 313320, Note_on_c, 0, 73, 0
2, 313440, Note_on_c, 0, 64, 100
2, 313560, Note_on_c, 0, 64, 0
2, 313680, Note_on_c, 0, 73, 100
2, 313800, Note_on_c, 0, 73, 0
2, 313920, Note_on_c, 0, 65, 100
2, 314040, Note_on_c, 0, 65, 0
2, 314040, Note_on_c, 0, 69, 100
2, 314160, Note_on_c, 0, 69, 0
2, 314160, Note_on_c, 0, 73, 100
2, 314280, Note_on_c, 0, 73, 0
2, 314280, Note_on_c, 0, 82, 100
2, 314400, Note_on_c, 0, 82, 0
2, 314400, Note_on_c, 0, 81, 100
2, 314520, Note_on_c, 0, 81, 0
2, 314640, Note_on_c, 0, 73, 100
2, 314760, Note_on_c, 0, 73, 0
2, 314880, Note_on_c, 0, 65, 100
2, 315000, Note_on_c, 0, 65, 0
2, 315120, Note_on_c, 0, 73, 100
2, 315240, Note_on_c, 0, 73, 0
2, 315360, Note_on_c, 0, 67, 100
2, 315480, Note_on_c, 0, 67, 0
2, 315480, Note_on_c, 0, 70, 100
2, 315600, Note_on_c, 0, 70, 0
2, 315600, Note_on_c, 0, 74, 100
2, 315720, Note_on_c, 0, 74, 0
2, 315720, Note_on_c, 0, 82, 100
2, 315840, Note_on_c, 0, 82, 0
2, 315840, Note_on_c, 0, 76, 100
2, 315960, Note_on_c, 0, 76, 0
2, 316080, Note_on_c, 0, 73, 100
2, 316200, Note_on_c, 0, 73, 0
2, 316320, Note_on_c, 0, 69, 100
2, 316440, Note_on_c, 0, 69, 0
2, 316560, Note_on_c, 0, 73, 100
2, 316680, Note_on_c, 0, 73, 0
2, 316680, Note_on_c, 0, 76, 100
2, 316800, Note_on_c, 0, 76, 0
2, 316800, Note_on_c, 0, 77, 100
2, 316920, Note_on_c, 0, 77, 0
2, 316920, Note_on_c, 0, 74, 100
2, 317040, Note_on_c, 0, 74, 0
2, 317040, Note_on_c, 0, 69, 100
2, 317160, Note_on_c, 0, 69, 0
2, 317160, Note_on_c, 0, 67, 100
2, 317280, Note_on_c, 0, 67, 0
2, 317280, Note_on_c, 0, 65, 100
2, 317400, Note_on_c, 0, 65, 0
2, 317400, Note_on_c, 0, 69, 100
2, 317520, Note_on_c, 0, 69, 0
2, 317520, Note_on_c, 0, 62, 100
2, 317640, Note_on_c, 0, 62, 0
2, 317640, Note_on_c, 0, 60, 100
2, 317760, Note_on_c, 0, 60, 0
2, 317760, Note_on_c, 0, 59, 100
2, 317880, Note_on_c, 0, 59, 0
2, 317880, Note_on_c, 0, 67, 100
2, 318000, Note_on_c, 0, 67, 0
2, 318000, Note_on_c, 0, 74, 100
2, 318120, Note_on_c, 0, 74, 0
2, 318120, Note_on_c, 0, 77, 100
2, 318240, Note_on_c, 0, 77, 0
2, 318240, Note_on_c, 0, 76, 100
2, 318360, Note_on_c, 0, 76, 0
2, 318360, Note_on_c, 0, 72, 100
2, 318480, Note_on_c, 0, 72, 0
2, 318480, Note_on_c, 0, 67, 100
2, 318600, Note_on_c, 0, 67, 0
2, 318600, Note_on_c, 0, 65, 100
2, 318720, Note_on_c, 0, 65, 0
2, 318720, Note_on_c, 0, 64, 100
2, 318840, Note_on_c, 0, 64, 0
2, 318840, Note_on_c, 0, 67, 100
2, 318960, Note_on_c, 0, 67, 0
2, 318960, Note_on_c, 0, 60, 100
2, 319080, Note_on_c, 0, 60, 0
2, 319080, Note_on_c, 0, 58, 100
2, 319200, Note_on_c, 0, 58, 0
2, 319200, Note_on_c, 0, 57, 100
2, 319320, Note_on_c, 0, 57, 0
2, 319320, Note_on_c, 0, 65, 100
2, 319440, Note_on_c, 0, 65, 0
2, 319440, Note_on_c, 0, 72, 100
2, 319560, Note_on_c, 0, 72, 0
2, 319560, Note_on_c, 0, 75, 100
2, 319680, Note_on_c, 0, 75, 0
2, 319680, Note_on_c, 0, 74, 100
2, 319800, Note_on_c, 0, 74, 0
2, 319800, Note_on_c, 0, 70, 100
2, 319920, Note_on_c, 0, 70, 0
2, 319920, Note_on_c, 0, 65, 100
2, 320040, Note_on_c, 0, 65, 0
2, 320040, Note_on_c, 0, 63, 100
2, 320160, Note_on_c, 0, 63, 0
2, 320160, Note_on_c, 0, 62, 100
2, 320280, Note_on_c, 0, 62, 0
2, 320280, Note_on_c, 0, 65, 100
2, 320400, Note_on_c, 0, 65, 0
2, 320400, Note_on_c, 0, 58, 100
2, 320520, Note_on_c, 0, 58, 0
2, 320520, Note_on_c, 0, 57, 100
2, 320640, Note_on_c, 0, 57, 0
2, 320640, Note_on_c, 0, 55, 100
2, 320760, Note_on_c, 0, 55, 0
2, 320760, Note_on_c, 0, 61, 100
2, 320880, Note_on_c, 0, 61, 0
2, 320880, Note_on_c, 0, 64, 100
2, 321000, Note_on_c, 0, 64, 0
2, 321000, Note_on_c, 0, 70, 100
2, 321120, Note_on_c, 0, 70, 0
2, 321120, Note_on_c, 0, 69, 100
2, 321240, Note_on_c, 0, 69, 0
2, 321240, Note_on_c, 0, 65, 100
2, 321360, Note_on_c, 0, 65, 0
2, 321360, Note_on_c, 0, 62, 100
2, 321480, Note_on_c, 0, 62, 0
2, 321480, Note_on_c, 0, 70, 100
2, 321600, Note_on_c, 0, 70, 0
2, 321600, Note_on_c, 0, 67, 100
2, 321720, Note_on_c, 0, 67, 0
2, 321720, Note_on_c, 0, 64, 100
2, 321840, Note_on_c, 0, 64, 0
2, 321840, Note_on_c, 0, 61, 100
2, 321960, Note_on_c, 0, 61, 0
2, 321960, Note_on_c, 0, 64, 100
2, 322080, Note_on_c, 0, 64, 0
2, 322080, Note_on_c, 0, 57, 100
2, 322200, Note_on_c, 0, 57, 0
2, 322200, Note_on_c, 0, 67, 100
2, 322320, Note_on_c, 0, 67, 0
2, 322320, Note_on_c, 0, 65, 100
2, 322440, Note_on_c, 0, 65, 0
2, 322440, Note_on_c, 0, 64, 100
2, 322560, Note_on_c, 0, 64, 0
2, 322560, Note_on_c, 0, 62, 100
2, 322680, Note_on_c, 0, 62, 0
2, 322680, Note_on_c, 0, 69, 100
2, 322800, Note_on_c, 0, 69, 0
2, 322800, Note_on_c, 0, 71, 100
2, 322920, Note_on_c, 0, 71, 0
2, 322920, Note_on_c, 0, 73, 100
2, 323040, Note_on_c, 0, 73, 0
2, 323040, Note_on_c, 0, 74, 100
2, 323160, Note_on_c, 0, 74, 0
2, 323160, Note_on_c, 0, 77, 100
2, 323280, Note_on_c, 0, 77, 0
2, 323280, Note_on_c, 0, 79, 100
2, 323400, Note_on_c, 0, 79, 0
2, 323400, Note_on_c, 0, 81, 100
2, 323520, Note_on_c, 0, 81, 0
2, 323520, Note_on_c, 0, 82, 100
2, 323640, Note_on_c, 0, 82, 0
2, 323640, Note_on_c, 0, 67, 100
2, 323700, Note_on_c, 0, 67, 0
2, 323700, Note_on_c, 0, 65, 100
2, 323760, Note_on_c, 0, 65, 0
2, 323760, Note_on_c, 0, 64, 100
2, 323820, Note_on_c, 0, 64, 0
2, 323820, Note_on_c, 0, 65, 100
2, 323880, Note_on_c, 0, 65, 0
2, 323880, Note_on_c, 0, 67, 100
2, 324000, Note_on_c, 0, 67, 0
2, 324000, Note_on_c, 0, 60, 100
2, 324120, Note_on_c, 0, 60, 0
2, 324120, Note_on_c, 0, 67, 100
2, 324240, Note_on_c, 0, 67, 0
2, 324240, Note_on_c, 0, 69, 100
2, 324360, Note_on_c, 0, 69, 0
2, 324360, Note_on_c, 0, 70, 100
2, 324480, Note_on_c, 0, 70, 0
2, 324480, Note_on_c, 0, 72, 100
2, 324600, Note_on_c, 0, 72, 0
2, 324600, Note_on_c, 0, 76, 100
2, 324720, Note_on_c, 0, 76, 0
2, 324720, Note_on_c, 0, 77, 100
2, 324840, Note_on_c, 0, 77, 0
2, 324840, Note_on_c, 0, 79, 100
2, 324960, Note_on_c, 0, 79, 0
2, 324960, Note_on_c, 0, 81, 100
2, 325080, Note_on_c, 0, 81, 0
2, 325080, Note_on_c, 0, 65, 100
2, 325140, Note_on_c, 0, 65, 0
2, 325140, Note_on_c, 0, 64, 100
2, 325200, Note_on_c, 0, 64, 0
2, 325200, Note_on_c, 0, 62, 100
2, 325260, Note_on_c, 0, 62, 0
2, 325260, Note_on_c, 0, 64, 100
2, 325320, Note_on_c, 0, 64, 0
2, 325320, Note_on_c, 0, 65, 100
2, 325440, Note_on_c, 0, 65, 0
2, 325440, Note_on_c, 0, 58, 100
2, 325560, Note_on_c, 0, 58, 0
2, 325560, Note_on_c, 0, 86, 100
2, 325620, Note_on_c, 0, 86, 0
2, 325620, Note_on_c, 0, 84, 100
2, 325680, Note_on_c, 0, 84, 0
2, 325680, Note_on_c, 0, 82, 100
2, 325740, Note_on_c, 0, 82, 0
2, 325740, Note_on_c, 0, 84, 100
2, 325800, Note_on_c, 0, 84, 0
2, 325800, Note_on_c, 0, 86, 100
2, 325920, Note_on_c, 0, 86, 0
2, 325920, Note_on_c, 0, 79, 100
2, 326040, Note_on_c, 0, 79, 0
2, 326040, Note_on_c, 0, 82, 100
2, 326100, Note_on_c, 0, 82, 0
2, 326100, Note_on_c, 0, 81, 100
2, 326160, Note_on_c, 0, 81, 0
2, 326160, Note_on_c, 0, 79, 100
2, 326220, Note_on_c, 0, 79, 0
2, 326220, Note_on_c, 0, 81, 100
2, 326280, Note_on_c, 0, 81, 0
2, 326280, Note_on_c, 0, 82, 100
2, 326400, Note_on_c, 0, 82, 0
2, 326400, Note_on_c, 0, 76, 100
2, 326520, Note_on_c, 0, 76, 0
2, 326520, Note_on_c, 0, 79, 100
2, 326580, Note_on_c, 0, 79, 0
2, 326580, Note_on_c, 0, 77, 100
2, 326640, Note_on_c, 0, 77, 0
2, 326640, Note_on_c, 0, 76, 100
2, 326700, Note_on_c, 0, 76, 0
2, 326700, Note_on_c, 0, 77, 100
2, 326760, Note_on_c, 0, 77, 0
2, 326760, Note_on_c, 0, 79, 100
2, 326880, Note_on_c, 0, 79, 0
2, 326880, Note_on_c, 0, 73, 100
2, 327000, Note_on_c, 0, 73, 0
2, 327000, Note_on_c, 0, 76, 100
2, 327060, Note_on_c, 0, 76, 0
2, 327060, Note_on_c, 0, 74, 100
2, 327120, Note_on_c, 0, 74, 0
2, 327120, Note_on_c, 0, 73, 100
2, 327180, Note_on_c, 0, 73, 0
2, 327180, Note_on_c, 0, 74, 100
2, 327240, Note_on_c, 0, 74, 0
2, 327240, Note_on_c, 0, 76, 100
2, 327300, Note_on_c, 0, 76, 0
2, 327300, Note_on_c, 0, 73, 100
2, 327360, Note_on_c, 0, 73, 0
2, 327360, Note_on_c, 0, 67, 100
2, 327480, Note_on_c, 0, 67, 0
2, 327480, Note_on_c, 0, 70, 100
2, 327540, Note_on_c, 0, 70, 0
2, 327540, Note_on_c, 0, 69, 100
2, 327600, Note_on_c, 0, 69, 0
2, 327600, Note_on_c, 0, 67, 100
2, 327660, Note_on_c, 0, 67, 0
2, 327660, Note_on_c, 0, 69, 100
2, 327720, Note_on_c, 0, 69, 0
2, 327720, Note_on_c, 0, 70, 100
2, 327780, Note_on_c, 0, 70, 0
2, 327780, Note_on_c, 0, 67, 100
2, 327840, Note_on_c, 0, 67, 0
2, 327840, Note_on_c, 0, 64, 100
2, 327900, Note_on_c, 0, 64, 0
2, 327900, Note_on_c, 0, 62, 100
2, 327960, Note_on_c, 0, 62, 0
2, 327960, Note_on_c, 0, 61, 100
2, 328020, Note_on_c, 0, 61, 0
2, 328020, Note_on_c, 0, 62, 100
2, 328080, Note_on_c, 0, 62, 0
2, 328080, Note_on_c, 0, 64, 100
2, 328140, Note_on_c, 0, 64, 0
2, 328140, Note_on_c, 0, 65, 100
2, 328200, Note_on_c, 0, 65, 0
2, 328200, Note_on_c, 0, 67, 100
2, 328260, Note_on_c, 0, 67, 0
2, 328260, Note_on_c, 0, 64, 100
2, 328320, Note_on_c, 0, 64, 0
2, 328320, Note_on_c, 0, 62, 100
2, 328440, Note_on_c, 0, 62, 0
2, 328560, Note_on_c, 0, 69, 100
2, 328680, Note_on_c, 0, 69, 0
2, 328800, Note_on_c, 0, 70, 100
2, 328920, Note_on_c, 0, 70, 0
2, 329040, Note_on_c, 0, 69, 100
2, 329160, Note_on_c, 0, 69, 0
2, 329280, Note_on_c, 0, 67, 100
2, 329400, Note_on_c, 0, 67, 0
2, 329520, Note_on_c, 0, 65, 100
2, 329640, Note_on_c, 0, 65, 0
2, 329760, Note_on_c, 0, 60, 100
2, 329880, Note_on_c, 0, 60, 0
2, 330000, Note_on_c, 0, 70, 100
2, 330120, Note_on_c, 0, 70, 0
2, 330240, Note_on_c, 0, 69, 100
2, 330360, Note_on_c, 0, 69, 0
2, 330480, Note_on_c, 0, 67, 100
2, 330600, Note_on_c, 0, 67, 0
2, 330720, Note_on_c, 0, 65, 100
2, 330840, Note_on_c, 0, 65, 0
2, 330960, Note_on_c, 0, 64, 100
2, 331080, Note_on_c, 0, 64, 0
2, 331200, Note_on_c, 0, 58, 100
2, 331320, Note_on_c, 0, 58, 0
2, 331440, Note_on_c, 0, 69, 100
2, 331560, Note_on_c, 0, 69, 0
2, 331680, Note_on_c, 0, 67, 100
2, 331800, Note_on_c, 0, 67, 0
2, 331920, Note_on_c, 0, 65, 100
2, 332040, Note_on_c, 0, 65, 0
2, 332160, Note_on_c, 0, 64, 100
2, 332280, Note_on_c, 0, 64, 0
2, 332400, Note_on_c, 0, 62, 100
2, 332520, Note_on_c, 0, 62, 0
2, 332640, Note_on_c, 0, 57, 100
2, 332760, Note_on_c, 0, 57, 0
2, 332880, Note_on_c, 0, 65, 100
2, 333000, Note_on_c, 0, 65, 0
2, 333120, Note_on_c, 0, 67, 100
2, 333240, Note_on_c, 0, 67, 0
2, 333360, Note_on_c, 0, 70, 100
2, 333480, Note_on_c, 0, 70, 0
2, 333600, Note_on_c, 0, 69, 100
2, 333720, Note_on_c, 0, 69, 0
2, 333840, Note_on_c, 0, 67, 100
2, 333960, Note_on_c, 0, 67, 0
2, 334080, Note_on_c, 0, 62, 100
2, 334200, Note_on_c, 0, 62, 0
2, 334320, Note_on_c, 0, 69, 100
2, 334440, Note_on_c, 0, 69, 0
2, 334560, Note_on_c, 0, 68, 100
2, 334680, Note_on_c, 0, 68, 0
2, 334800, Note_on_c, 0, 67, 100
2, 334920, Note_on_c, 0, 67, 0
2, 335040, Note_on_c, 0, 66, 100
2, 335160, Note_on_c, 0, 66, 0
2, 335280, Note_on_c, 0, 65, 100
2, 335400, Note_on_c, 0, 65, 0
2, 335520, Note_on_c, 0, 60, 100
2, 335640, Note_on_c, 0, 60, 0
2, 335760, Note_on_c, 0, 67, 100
2, 335880, Note_on_c, 0, 67, 0
2, 336000, Note_on_c, 0, 66, 100
2, 336120, Note_on_c, 0, 66, 0
2, 336240, Note_on_c, 0, 65, 100
2, 336360, Note_on_c, 0, 65, 0
2, 336480, Note_on_c, 0, 64, 100
2, 336600, Note_on_c, 0, 64, 0
2, 336720, Note_on_c, 0, 63, 100
2, 336840, Note_on_c, 0, 63, 0
2, 336960, Note_on_c, 0, 58, 100
2, 337080, Note_on_c, 0, 58, 0
2, 337200, Note_on_c, 0, 64, 100
2, 337320, Note_on_c, 0, 64, 0
2, 337440, Note_on_c, 0, 65, 100
2, 337560, Note_on_c, 0, 65, 0
2, 337680, Note_on_c, 0, 66, 100
2, 337800, Note_on_c, 0, 66, 0
2, 337920, Note_on_c, 0, 67, 100
2, 338040, Note_on_c, 0, 67, 0
2, 338160, Note_on_c, 0, 68, 100
2, 338280, Note_on_c, 0, 68, 0
2, 338400, Note_on_c, 0, 69, 100
2, 338520, Note_on_c, 0, 69, 0
2, 338640, Note_on_c, 0, 69, 100
2, 338760, Note_on_c, 0, 69, 0
2, 338880, Note_on_c, 0, 69, 100
2, 339000, Note_on_c, 0, 69, 0
2, 339120, Note_on_c, 0, 69, 100
2, 339240, Note_on_c, 0, 69, 0
2, 339360, Note_on_c, 0, 71, 100
2, 339480, Note_on_c, 0, 71, 0
2, 339600, Note_on_c, 0, 73, 100
2, 339720, Note_on_c, 0, 73, 0
2, 339840, Note_on_c, 0, 74, 100
2, 339960, Note_on_c, 0, 74, 0
2, 340080, Note_on_c, 0, 72, 100
2, 340200, Note_on_c, 0, 72, 0
2, 340320, Note_on_c, 0, 70, 100
2, 340440, Note_on_c, 0, 70, 0
2, 340560, Note_on_c, 0, 70, 100
2, 340680, Note_on_c, 0, 70, 0
2, 340800, Note_on_c, 0, 70, 100
2, 340920, Note_on_c, 0, 70, 0
2, 341040, Note_on_c, 0, 70, 100
2, 341160, Note_on_c, 0, 70, 0
2, 341280, Note_on_c, 0, 70, 100
2, 341400, Note_on_c, 0, 70, 0
2, 341520, Note_on_c, 0, 70, 100
2, 341640, Note_on_c, 0, 70, 0
2, 341760, Note_on_c, 0, 69, 100
2, 341880, Note_on_c, 0, 69, 0
2, 342000, Note_on_c, 0, 69, 100
2, 342120, Note_on_c, 0, 69, 0
2, 342240, Note_on_c, 0, 69, 100
2, 342360, Note_on_c, 0, 69, 0
2, 342480, Note_on_c, 0, 69, 100
2, 342600, Note_on_c, 0, 69, 0
2, 342720, Note_on_c, 0, 69, 100
2, 342840, Note_on_c, 0, 69, 0
2, 342960, Note_on_c, 0, 69, 100
2, 343080, Note_on_c, 0, 69, 0
2, 343200, Note_on_c, 0, 67, 100
2, 343320, Note_on_c, 0, 67, 0
2, 343440, Note_on_c, 0, 67, 100
2, 343560, Note_on_c, 0, 67, 0
2, 343680, Note_on_c, 0, 67, 100
2, 343800, Note_on_c, 0, 67, 0
2, 343920, Note_on_c, 0, 67, 100
2, 344040, Note_on_c, 0, 67, 0
2, 344160, Note_on_c, 0, 67, 100
2, 344280, Note_on_c, 0, 67, 0
2, 344400, Note_on_c, 0, 64, 100
2, 344520, Note_on_c, 0, 64, 0
2, 344640, Note_on_c, 0, 69, 100
2, 344760, Note_on_c, 0, 69, 0
2, 344880, Note_on_c, 0, 67, 100
2, 345000, Note_on_c, 0, 67, 0
2, 345120, Note_on_c, 0, 65, 100
2, 345240, Note_on_c, 0, 65, 0
2, 345360, Note_on_c, 0, 64, 100
2, 345480, Note_on_c, 0, 64, 0
2, 349920, Note_on_c, 0, 64, 100
2, 350000, Note_on_c, 0, 64, 0
2, 350000, Note_on_c, 0, 73, 100
2, 350080, Note_on_c, 0, 73, 0
2, 350080, Note_on_c, 0, 82, 100
2, 350160, Note_on_c, 0, 82, 0
2, 350160, Note_on_c, 0, 65, 100
2, 350240, Note_on_c, 0, 65, 0
2, 350240, Note_on_c, 0, 74, 100
2, 350320, Note_on_c, 0, 74, 0
2, 350320, Note_on_c, 0, 81, 100
2, 350400, Note_on_c, 0, 81, 0
2, 350400, Note_on_c, 0, 67, 100
2, 350480, Note_on_c, 0, 67, 0
2, 350480, Note_on_c, 0, 76, 100
2, 350560, Note_on_c, 0, 76, 0
2, 350560, Note_on_c, 0, 79, 100
2, 350640, Note_on_c, 0, 79, 0
2, 350640, Note_on_c, 0, 68, 100
2, 350720, Note_on_c, 0, 68, 0
2, 350720, Note_on_c, 0, 74, 100
2, 350800, Note_on_c, 0, 74, 0
2, 350800, Note_on_c, 0, 77, 100
2, 350880, Note_on_c, 0, 77, 0
2, 350880, Note_on_c, 0, 69, 100
2, 350960, Note_on_c, 0, 69, 0
2, 350960, Note_on_c, 0, 74, 100
2, 351040, Note_on_c, 0, 74, 0
2, 351040, Note_on_c, 0, 76, 100
2, 351120, Note_on_c, 0, 76, 0
2, 351120, Note_on_c, 0, 69, 100
2, 351200, Note_on_c, 0, 69, 0
2, 351200, Note_on_c, 0, 73, 100
2, 351280, Note_on_c, 0, 73, 0
2, 351280, Note_on_c, 0, 76, 100
2, 351360, Note_on_c, 0, 76, 0
2, 357600, Note_on_c, 0, 69, 100
2, 358320, Note_on_c, 0, 69, 0
2, 358320, Note_on_c, 0, 69, 100
2, 358560, Note_on_c, 0, 69, 0
2, 358560, Note_on_c, 0, 70, 100
2, 359040, Note_on_c, 0, 70, 0
2, 359040, Note_on_c, 0, 69, 100
2, 360000, Note_on_c, 0, 69, 0
2, 360000, Note_on_c, 0, 69, 100
2, 360480, Note_on_c, 0, 69, 0
2, 360480, Note_on_c, 0, 65, 100
2, 361440, Note_on_c, 0, 65, 0
2, 361440, Note_on_c, 0, 67, 100
2, 361920, Note_on_c, 0, 67, 0
2, 361920, Note_on_c, 0, 65, 100
2, 362400, Note_on_c, 0, 65, 0
2, 362400, Note_on_c, 0, 67, 100
2, 362520, Note_on_c, 0, 67, 0
2, 362520, Note_on_c, 0, 65, 100
2, 362640, Note_on_c, 0, 65, 0
2, 362640, Note_on_c, 0, 64, 100
2, 362760, Note_on_c, 0, 64, 0
2, 362760, Note_on_c, 0, 65, 100
2, 362880, Note_on_c, 0, 65, 0
2, 362880, Note_on_c, 0, 67, 100
2, 363000, Note_on_c, 0, 67, 0
2, 363000, Note_on_c, 0, 64, 100
2, 363120, Note_on_c, 0, 64, 0
2, 363120, Note_on_c, 0, 65, 100
2, 363240, Note_on_c, 0, 65, 0
2, 363240, Note_on_c, 0, 62, 100
2, 363360, Note_on_c, 0, 62, 0
2, 365760, Note_on_c, 0, 61, 100
2, 365880, Note_on_c, 0, 61, 0
2, 365880, Note_on_c, 0, 64, 100
2, 366000, Note_on_c, 0, 64, 0
2, 366000, Note_on_c, 0, 67, 100
2, 366120, Note_on_c, 0, 67, 0
2, 366120, Note_on_c, 0, 70, 100
2, 366240, Note_on_c, 0, 70, 0
2, 366240, Note_on_c, 0, 69, 100
2, 366360, Note_on_c, 0, 69, 0
2, 366360, Note_on_c, 0, 67, 100
2, 366480, Note_on_c, 0, 67, 0
2, 366480, Note_on_c, 0, 76, 100
2, 366600, Note_on_c, 0, 76, 0
2, 366600, Note_on_c, 0, 67, 100
2, 366720, Note_on_c, 0, 67, 0
2, 366720, Note_on_c, 0, 65, 100
2, 367440, Note_on_c, 0, 65, 0
2, 367440, Note_on_c, 0, 64, 100
2, 367680, Note_on_c, 0, 64, 0
2, 367680, Pitch_bend_c, 0, 12288
2, 367680, Note_on_c, 0, 64, 100
2, 367740, Pitch_bend_c, 0, 8192
2, 367800, Pitch_bend_c, 0, 12288
2, 367860, Pitch_bend_c, 0, 8192
2, 367920, Pitch_bend_c, 0, 12288
2, 367980, Pitch_bend_c, 0, 8192
2, 368040, Pitch_bend_c, 0, 12288
2, 368100, Pitch_bend_c, 0, 8192
2, 368400, Note_on_c, 0, 64, 0
2, 368400, Note_on_c, 0, 62, 100
2, 368640, Note_on_c, 0, 62, 0
2, 368640, Note_on_c, 0, 62, 100
2, 370080, Note_on_c, 0, 62, 0
2, 370080, End_track
3, 0, Start_track
3, 0, MIDI_port, 0
3, 0, Title_t, "--------------------------------------"
3, 0, Program_c, 1, 40
3, 0, Control_c, 1, 7, 100
3, 0, Control_c, 1, 10, 74
3, 480, Note_on_c, 1, 65, 100
3, 1440, Note_on_c, 1, 65, 0
3, 1440, Note_on_c, 1, 67, 100
3, 1920, Note_on_c, 1, 67, 0
3, 1920, Note_on_c, 1, 67, 100
3, 2880, Note_on_c, 1, 67, 0
3, 2880, Note_on_c, 1, 65, 100
3, 3360, Note_on_c, 1, 65, 0
3, 3360, Note_on_c, 1, 65, 100
3, 4320, Note_on_c, 1, 65, 0
3, 4320, Note_on_c, 1, 67, 100
3, 4800, Note_on_c, 1, 67, 0
3, 4800, Note_on_c, 1, 65, 100
3, 5280, Note_on_c, 1, 65, 0
3, 6240, Note_on_c, 1, 65, 100
3, 7200, Note_on_c, 1, 65, 0
3, 7200, Note_on_c, 1, 67, 100
3, 7680, Note_on_c, 1, 67, 0
3, 7680, Note_on_c, 1, 67, 100
3, 8640, Note_on_c, 1, 67, 0
3, 8640, Note_on_c, 1, 65, 100
3, 9120, Note_on_c, 1, 65, 0
3, 10080, Note_on_c, 1, 64, 100
3, 10560, Note_on_c, 1, 64, 0
3, 10560, Note_on_c, 1, 64, 100
3, 10920, Note_on_c, 1, 64, 0
3, 11520, Note_on_c, 1, 62, 100
3, 11880, Note_on_c, 1, 62, 0
3, 11880, Note_on_c, 1, 64, 100
3, 12000, Note_on_c, 1, 64, 0
3, 12000, Note_on_c, 1, 65, 100
3, 12360, Note_on_c, 1, 65, 0
3, 12360, Note_on_c, 1, 67, 100
3, 12420, Note_on_c, 1, 67, 0
3, 12420, Note_on_c, 1, 69, 100
3, 12480, Note_on_c, 1, 69, 0
3, 12480, Note_on_c, 1, 70, 100
3, 12840, Note_on_c, 1, 70, 0
3, 12840, Note_on_c, 1, 69, 100
3, 12960, Note_on_c, 1, 69, 0
3, 12960, Note_on_c, 1, 67, 100
3, 13320, Note_on_c, 1, 67, 0
3, 13320, Note_on_c, 1, 65, 100
3, 13440, Note_on_c, 1, 65, 0
3, 13440, Note_on_c, 1, 67, 100
3, 13800, Note_on_c, 1, 67, 0
3, 13800, Note_on_c, 1, 70, 100
3, 13920, Note_on_c, 1, 70, 0
3, 13920, Note_on_c, 1, 69, 100
3, 14280, Note_on_c, 1, 69, 0
3, 14280, Note_on_c, 1, 67, 100
3, 14400, Note_on_c, 1, 67, 0
3, 14400, Note_on_c, 1, 65, 100
3, 14760, Note_on_c, 1, 65, 0
3, 14760, Note_on_c, 1, 64, 100
3, 14880, Note_on_c, 1, 64, 0
3, 14880, Note_on_c, 1, 65, 100
3, 15240, Note_on_c, 1, 65, 0
3, 15720, Note_on_c, 1, 55, 100
3, 15840, Note_on_c, 1, 55, 0
3, 15840, Note_on_c, 1, 57, 100
3, 16080, Note_on_c, 1, 57, 0
3, 17160, Note_on_c, 1, 57, 100
3, 17280, Note_on_c, 1, 57, 0
3, 17280, Note_on_c, 1, 62, 100
3, 17640, Note_on_c, 1, 62, 0
3, 17640, Note_on_c, 1, 64, 100
3, 17760, Note_on_c, 1, 64, 0
3, 17760, Note_on_c, 1, 65, 100
3, 18120, Note_on_c, 1, 65, 0
3, 18120, Note_on_c, 1, 67, 100
3, 18180, Note_on_c, 1, 67, 0
3, 18180, Note_on_c, 1, 69, 100
3, 18240, Note_on_c, 1, 69, 0
3, 18240, Note_on_c, 1, 70, 100
3, 18600, Note_on_c, 1, 70, 0
3, 18600, Note_on_c, 1, 69, 100
3, 18720, Note_on_c, 1, 69, 0
3, 18720, Note_on_c, 1, 67, 100
3, 19080, Note_on_c, 1, 67, 0
3, 19080, Note_on_c, 1, 65, 100
3, 19200, Note_on_c, 1, 65, 0
3, 19200, Note_on_c, 1, 67, 100
3, 19560, Note_on_c, 1, 67, 0
3, 19560, Note_on_c, 1, 70, 100
3, 19680, Note_on_c, 1, 70, 0
3, 19680, Note_on_c, 1, 69, 100
3, 20040, Note_on_c, 1, 69, 0
3, 20040, Note_on_c, 1, 67, 100
3, 20160, Note_on_c, 1, 67, 0
3, 20160, Note_on_c, 1, 65, 100
3, 20520, Note_on_c, 1, 65, 0
3, 20640, Note_on_c, 1, 58, 100
3, 20880, Note_on_c, 1, 58, 0
3, 21480, Note_on_c, 1, 58, 100
3, 21600, Note_on_c, 1, 58, 0
3, 21600, Note_on_c, 1, 57, 100
3, 21960, Note_on_c, 1, 57, 0
3, 21960, Note_on_c, 1, 55, 100
3, 22080, Note_on_c, 1, 55, 0
3, 22080, Note_on_c, 1, 57, 100
3, 23040, Note_on_c, 1, 57, 0
3, 23040, Note_on_c, 1, 62, 100
3, 23280, Note_on_c, 1, 62, 0
3, 24360, Note_on_c, 1, 74, 100
3, 24480, Note_on_c, 1, 74, 0
3, 24480, Note_on_c, 1, 73, 100
3, 24960, Note_on_c, 1, 73, 0
3, 24960, Note_on_c, 1, 72, 100
3, 25440, Note_on_c, 1, 72, 0
3, 25800, Note_on_c, 1, 72, 100
3, 25920, Note_on_c, 1, 72, 0
3, 25920, Note_on_c, 1, 71, 100
3, 26400, Note_on_c, 1, 71, 0
3, 26400, Note_on_c, 1, 70, 100
3, 26880, Note_on_c, 1, 70, 0
3, 30120, Note_on_c, 1, 74, 100
3, 30240, Note_on_c, 1, 74, 0
3, 30240, Note_on_c, 1, 73, 100
3, 30720, Note_on_c, 1, 73, 0
3, 30720, Note_on_c, 1, 72, 100
3, 31200, Note_on_c, 1, 72, 0
3, 31560, Note_on_c, 1, 72, 100
3, 31680, Note_on_c, 1, 72, 0
3, 31680, Note_on_c, 1, 71, 100
3, 32160, Note_on_c, 1, 71, 0
3, 32160, Note_on_c, 1, 70, 100
3, 32640, Note_on_c, 1, 70, 0
3, 33000, Note_on_c, 1, 68, 100
3, 33120, Note_on_c, 1, 68, 0
3, 33120, Note_on_c, 1, 69, 100
3, 33600, Note_on_c, 1, 69, 0
3, 33600, Note_on_c, 1, 69, 100
3, 34080, Note_on_c, 1, 69, 0
3, 39120, Note_on_c, 1, 55, 100
3, 39360, Note_on_c, 1, 55, 0
3, 39360, Note_on_c, 1, 57, 100
3, 39600, Note_on_c, 1, 57, 0
3, 80640, Note_on_c, 1, 77, 100
3, 80880, Note_on_c, 1, 77, 0
3, 81360, Note_on_c, 1, 77, 100
3, 81600, Note_on_c, 1, 77, 0
3, 81600, Note_on_c, 1, 79, 100
3, 81840, Note_on_c, 1, 79, 0
3, 82080, Note_on_c, 1, 76, 100
3, 82320, Note_on_c, 1, 76, 0
3, 82800, Note_on_c, 1, 76, 100
3, 83040, Note_on_c, 1, 76, 0
3, 83040, Note_on_c, 1, 77, 100
3, 83280, Note_on_c, 1, 77, 0
3, 83520, Note_on_c, 1, 74, 100
3, 83760, Note_on_c, 1, 74, 0
3, 84240, Note_on_c, 1, 74, 100
3, 84480, Note_on_c, 1, 74, 0
3, 84480, Note_on_c, 1, 76, 100
3, 84720, Note_on_c, 1, 76, 0
3, 84960, Note_on_c, 1, 69, 100
3, 85200, Note_on_c, 1, 69, 0
3, 85200, Note_on_c, 1, 74, 100
3, 85440, Note_on_c, 1, 74, 0
3, 85440, Note_on_c, 1, 74, 100
3, 85560, Note_on_c, 1, 74, 0
3, 85560, Note_on_c, 1, 73, 100
3, 85680, Note_on_c, 1, 73, 0
3, 85680, Note_on_c, 1, 74, 100
3, 85800, Note_on_c, 1, 74, 0
3, 85800, Note_on_c, 1, 71, 100
3, 85920, Note_on_c, 1, 71, 0
3, 85920, Note_on_c, 1, 73, 100
3, 86160, Note_on_c, 1, 73, 0
3, 86400, Note_on_c, 1, 77, 100
3, 86640, Note_on_c, 1, 77, 0
3, 86880, Note_on_c, 1, 74, 100
3, 87120, Note_on_c, 1, 74, 0
3, 87840, Note_on_c, 1, 76, 100
3, 88080, Note_on_c, 1, 76, 0
3, 88320, Note_on_c, 1, 72, 100
3, 88560, Note_on_c, 1, 72, 0
3, 89280, Note_on_c, 1, 74, 100
3, 89520, Note_on_c, 1, 74, 0
3, 89760, Note_on_c, 1, 70, 100
3, 90000, Note_on_c, 1, 70, 0
3, 126720, Note_on_c, 1, 62, 50
3, 128160, Note_on_c, 1, 62, 0
3, 128160, Note_on_c, 1, 62, 50
3, 129120, Note_on_c, 1, 62, 0
3, 129120, Note_on_c, 1, 64, 50
3, 129600, Note_on_c, 1, 64, 0
3, 129600, Note_on_c, 1, 62, 50
3, 130560, Note_on_c, 1, 62, 0
3, 130560, Note_on_c, 1, 62, 50
3, 131040, Note_on_c, 1, 62, 0
3, 146880, Note_on_c, 1, 62, 50
3, 147840, Note_on_c, 1, 62, 0
3, 147840, Note_on_c, 1, 61, 50
3, 148320, Note_on_c, 1, 61, 0
3, 148320, Note_on_c, 1, 62, 50
3, 148800, Note_on_c, 1, 62, 0
3, 148800, Note_on_c, 1, 57, 50
3, 149760, Note_on_c, 1, 57, 0
3, 149760, Note_on_c, 1, 62, 50
3, 150240, Note_on_c, 1, 62, 0
3, 150240, Note_on_c, 1, 62, 50
3, 150720, Note_on_c, 1, 62, 0
3, 150720, Note_on_c, 1, 62, 50
3, 151200, Note_on_c, 1, 62, 0
3, 151200, Note_on_c, 1, 55, 50
3, 152160, Note_on_c, 1, 55, 0
3, 152160, Note_on_c, 1, 57, 50
3, 152640, Note_on_c, 1, 57, 0
3, 152640, Note_on_c, 1, 58, 50
3, 153600, Note_on_c, 1, 58, 0
3, 153600, Note_on_c, 1, 58, 50
3, 154080, Note_on_c, 1, 58, 0
3, 154080, Note_on_c, 1, 57, 50
3, 154560, Note_on_c, 1, 57, 0
3, 154560, Note_on_c, 1, 57, 50
3, 155520, Note_on_c, 1, 57, 0
3, 155520, Note_on_c, 1, 62, 50
3, 156000, Note_on_c, 1, 62, 0
3, 156000, Note_on_c, 1, 62, 50
3, 156960, Note_on_c, 1, 62, 0
3, 156960, Note_on_c, 1, 62, 50
3, 157440, Note_on_c, 1, 62, 0
3, 157440, Note_on_c, 1, 62, 50
3, 157920, Note_on_c, 1, 62, 0
3, 157920, Note_on_c, 1, 64, 50
3, 158400, Note_on_c, 1, 64, 0
3, 158400, Note_on_c, 1, 65, 50
3, 158880, Note_on_c, 1, 65, 0
3, 158880, Note_on_c, 1, 66, 50
3, 159360, Note_on_c, 1, 66, 0
3, 159360, Note_on_c, 1, 67, 50
3, 159840, Note_on_c, 1, 67, 0
3, 159840, Note_on_c, 1, 68, 50
3, 160320, Note_on_c, 1, 68, 0
3, 160320, Note_on_c, 1, 69, 50
3, 161280, Note_on_c, 1, 69, 0
3, 161280, Note_on_c, 1, 62, 50
3, 161760, Note_on_c, 1, 62, 0
3, 161760, Note_on_c, 1, 70, 50
3, 162240, Note_on_c, 1, 70, 0
3, 162240, Note_on_c, 1, 69, 50
3, 162720, Note_on_c, 1, 69, 0
3, 162720, Note_on_c, 1, 68, 50
3, 163200, Note_on_c, 1, 68, 0
3, 163200, Note_on_c, 1, 69, 50
3, 163680, Note_on_c, 1, 69, 0
3, 163680, Note_on_c, 1, 67, 50
3, 164160, Note_on_c, 1, 67, 0
3, 164160, Note_on_c, 1, 66, 50
3, 164640, Note_on_c, 1, 66, 0
3, 164640, Note_on_c, 1, 67, 50
3, 165120, Note_on_c, 1, 67, 0
3, 165120, Note_on_c, 1, 65, 50
3, 165600, Note_on_c, 1, 65, 0
3, 165600, Note_on_c, 1, 64, 50
3, 166080, Note_on_c, 1, 64, 0
3, 166080, Note_on_c, 1, 65, 50
3, 166560, Note_on_c, 1, 65, 0
3, 166560, Note_on_c, 1, 64, 50
3, 167040, Note_on_c, 1, 64, 0
3, 167040, Note_on_c, 1, 62, 50
3, 167520, Note_on_c, 1, 62, 0
3, 167520, Note_on_c, 1, 69, 50
3, 168000, Note_on_c, 1, 69, 0
3, 168000, Note_on_c, 1, 67, 50
3, 168480, Note_on_c, 1, 67, 0
3, 168480, Note_on_c, 1, 67, 50
3, 168960, Note_on_c, 1, 67, 0
3, 168960, Note_on_c, 1, 67, 50
3, 169440, Note_on_c, 1, 67, 0
3, 169440, Note_on_c, 1, 65, 50
3, 169920, Note_on_c, 1, 65, 0
3, 169920, Note_on_c, 1, 65, 50
3, 170400, Note_on_c, 1, 65, 0
3, 170400, Note_on_c, 1, 67, 50
3, 170880, Note_on_c, 1, 67, 0
3, 170880, Note_on_c, 1, 65, 50
3, 171360, Note_on_c, 1, 65, 0
3, 171360, Note_on_c, 1, 64, 50
3, 171840, Note_on_c, 1, 64, 0
3, 171840, Note_on_c, 1, 64, 50
3, 172800, Note_on_c, 1, 64, 0
3, 172800, Note_on_c, 1, 62, 100
3, 173040, Note_on_c, 1, 62, 0
3, 173040, Note_on_c, 1, 77, 100
3, 173100, Note_on_c, 1, 77, 0
3, 173100, Note_on_c, 1, 76, 100
3, 173160, Note_on_c, 1, 76, 0
3, 173160, Note_on_c, 1, 74, 100
3, 173220, Note_on_c, 1, 74, 0
3, 173220, Note_on_c, 1, 76, 100
3, 173280, Note_on_c, 1, 76, 0
3, 173280, Note_on_c, 1, 74, 100
3, 173340, Note_on_c, 1, 74, 0
3, 173340, Note_on_c, 1, 72, 100
3, 173400, Note_on_c, 1, 72, 0
3, 173400, Note_on_c, 1, 74, 100
3, 173460, Note_on_c, 1, 74, 0
3, 173460, Note_on_c, 1, 72, 100
3, 173520, Note_on_c, 1, 72, 0
3, 173520, Note_on_c, 1, 70, 100
3, 173580, Note_on_c, 1, 70, 0
3, 173580, Note_on_c, 1, 72, 100
3, 173640, Note_on_c, 1, 72, 0
3, 173640, Note_on_c, 1, 70, 100
3, 173700, Note_on_c, 1, 70, 0
3, 173700, Note_on_c, 1, 69, 100
3, 173760, Note_on_c, 1, 69, 0
3, 173760, Note_on_c, 1, 70, 100
3, 173820, Note_on_c, 1, 70, 0
3, 173820, Note_on_c, 1, 72, 100
3, 173880, Note_on_c, 1, 72, 0
3, 173880, Note_on_c, 1, 74, 100
3, 173940, Note_on_c, 1, 74, 0
3, 173940, Note_on_c, 1, 76, 100
3, 174000, Note_on_c, 1, 76, 0
3, 174000, Note_on_c, 1, 77, 100
3, 174120, Note_on_c, 1, 77, 0
3, 174120, Note_on_c, 1, 62, 100
3, 174240, Note_on_c, 1, 62, 0
3, 174240, Note_on_c, 1, 60, 100
3, 174480, Note_on_c, 1, 60, 0
3, 174480, Note_on_c, 1, 76, 100
3, 174540, Note_on_c, 1, 76, 0
3, 174540, Note_on_c, 1, 74, 100
3, 174600, Note_on_c, 1, 74, 0
3, 174600, Note_on_c, 1, 72, 100
3, 174660, Note_on_c, 1, 72, 0
3, 174660, Note_on_c, 1, 74, 100
3, 174720, Note_on_c, 1, 74, 0
3, 174720, Note_on_c, 1, 72, 100
3, 174780, Note_on_c, 1, 72, 0
3, 174780, Note_on_c, 1, 70, 100
3, 174840, Note_on_c, 1, 70, 0
3, 174840, Note_on_c, 1, 72, 100
3, 174900, Note_on_c, 1, 72, 0
3, 174900, Note_on_c, 1, 70, 100
3, 174960, Note_on_c, 1, 70, 0
3, 174960, Note_on_c, 1, 69, 100
3, 175020, Note_on_c, 1, 69, 0
3, 175020, Note_on_c, 1, 70, 100
3, 175080, Note_on_c, 1, 70, 0
3, 175080, Note_on_c, 1, 69, 100
3, 175140, Note_on_c, 1, 69, 0
3, 175140, Note_on_c, 1, 67, 100
3, 175200, Note_on_c, 1, 67, 0
3, 175200, Note_on_c, 1, 69, 100
3, 175260, Note_on_c, 1, 69, 0
3, 175260, Note_on_c, 1, 70, 100
3, 175320, Note_on_c, 1, 70, 0
3, 175320, Note_on_c, 1, 72, 100
3, 175380, Note_on_c, 1, 72, 0
3, 175380, Note_on_c, 1, 74, 100
3, 175440, Note_on_c, 1, 74, 0
3, 175440, Note_on_c, 1, 75, 100
3, 175560, Note_on_c, 1, 75, 0
3, 175560, Note_on_c, 1, 60, 100
3, 175680, Note_on_c, 1, 60, 0
3, 175680, Note_on_c, 1, 58, 100
3, 175920, Note_on_c, 1, 58, 0
3, 175920, Note_on_c, 1, 74, 100
3, 175980, Note_on_c, 1, 74, 0
3, 175980, Note_on_c, 1, 72, 100
3, 176040, Note_on_c, 1, 72, 0
3, 176040, Note_on_c, 1, 70, 100
3, 176100, Note_on_c, 1, 70, 0
3, 176100, Note_on_c, 1, 72, 100
3, 176160, Note_on_c, 1, 72, 0
3, 176160, Note_on_c, 1, 70, 100
3, 176220, Note_on_c, 1, 70, 0
3, 176220, Note_on_c, 1, 69, 100
3, 176280, Note_on_c, 1, 69, 0
3, 176280, Note_on_c, 1, 70, 100
3, 176340, Note_on_c, 1, 70, 0
3, 176340, Note_on_c, 1, 69, 100
3, 176400, Note_on_c, 1, 69, 0
3, 176400, Note_on_c, 1, 67, 100
3, 176460, Note_on_c, 1, 67, 0
3, 176460, Note_on_c, 1, 69, 100
3, 176520, Note_on_c, 1, 69, 0
3, 176520, Note_on_c, 1, 67, 100
3, 176580, Note_on_c, 1, 67, 0
3, 176580, Note_on_c, 1, 65, 100
3, 176640, Note_on_c, 1, 65, 0
3, 176640, Note_on_c, 1, 67, 100
3, 176700, Note_on_c, 1, 67, 0
3, 176700, Note_on_c, 1, 69, 100
3, 176760, Note_on_c, 1, 69, 0
3, 176760, Note_on_c, 1, 70, 100
3, 176820, Note_on_c, 1, 70, 0
3, 176820, Note_on_c, 1, 72, 100
3, 176880, Note_on_c, 1, 72, 0
3, 176880, Note_on_c, 1, 74, 100
3, 177000, Note_on_c, 1, 74, 0
3, 177000, Note_on_c, 1, 58, 100
3, 177120, Note_on_c, 1, 58, 0
3, 177120, Note_on_c, 1, 57, 100
3, 177180, Note_on_c, 1, 57, 0
3, 177180, Note_on_c, 1, 69, 100
3, 177240, Note_on_c, 1, 69, 0
3, 177240, Note_on_c, 1, 71, 100
3, 177300, Note_on_c, 1, 71, 0
3, 177300, Note_on_c, 1, 73, 100
3, 177360, Note_on_c, 1, 73, 0
3, 177360, Note_on_c, 1, 74, 100
3, 177480, Note_on_c, 1, 74, 0
3, 177480, Note_on_c, 1, 57, 100
3, 177600, Note_on_c, 1, 57, 0
3, 177600, Note_on_c, 1, 55, 100
3, 177660, Note_on_c, 1, 55, 0
3, 177660, Note_on_c, 1, 69, 100
3, 177720, Note_on_c, 1, 69, 0
3, 177720, Note_on_c, 1, 71, 100
3, 177780, Note_on_c, 1, 71, 0
3, 177780, Note_on_c, 1, 73, 100
3, 177840, Note_on_c, 1, 73, 0
3, 177840, Note_on_c, 1, 74, 100
3, 177960, Note_on_c, 1, 74, 0
3, 177960, Note_on_c, 1, 55, 100
3, 178080, Note_on_c, 1, 55, 0
3, 178080, Note_on_c, 1, 57, 100
3, 178140, Note_on_c, 1, 57, 0
3, 178140, Note_on_c, 1, 74, 100
3, 178200, Note_on_c, 1, 74, 0
3, 178200, Note_on_c, 1, 73, 100
3, 178260, Note_on_c, 1, 73, 0
3, 178260, Note_on_c, 1, 71, 100
3, 178320, Note_on_c, 1, 71, 0
3, 178320, Note_on_c, 1, 73, 100
3, 178440, Note_on_c, 1, 73, 0
3, 178440, Note_on_c, 1, 67, 100
3, 178560, Note_on_c, 1, 67, 0
3, 178560, Note_on_c, 1, 65, 100
3, 178680, Note_on_c, 1, 65, 0
3, 178680, Note_on_c, 1, 64, 100
3, 178800, Note_on_c, 1, 64, 0
3, 178800, Note_on_c, 1, 62, 100
3, 178920, Note_on_c, 1, 62, 0
3, 178920, Note_on_c, 1, 61, 100
3, 179040, Note_on_c, 1, 61, 0
3, 179040, Note_on_c, 1, 62, 100
3, 179160, Note_on_c, 1, 62, 0
3, 179160, Note_on_c, 1, 65, 100
3, 179280, Note_on_c, 1, 65, 0
3, 179280, Note_on_c, 1, 67, 100
3, 179400, Note_on_c, 1, 67, 0
3, 179400, Note_on_c, 1, 69, 100
3, 179520, Note_on_c, 1, 69, 0
3, 179520, Note_on_c, 1, 70, 100
3, 179640, Note_on_c, 1, 70, 0
3, 179640, Note_on_c, 1, 69, 100
3, 179760, Note_on_c, 1, 69, 0
3, 179760, Note_on_c, 1, 70, 100
3, 179880, Note_on_c, 1, 70, 0
3, 179880, Note_on_c, 1, 67, 100
3, 180000, Note_on_c, 1, 67, 0
3, 180000, Note_on_c, 1, 70, 100
3, 180480, Note_on_c, 1, 70, 0
3, 180480, Note_on_c, 1, 69, 100
3, 181440, Note_on_c, 1, 69, 0
3, 181440, Note_on_c, 1, 69, 100
3, 181920, Note_on_c, 1, 69, 0
3, 182880, Note_on_c, 1, 82, 100
3, 183360, Note_on_c, 1, 82, 0
3, 183360, Note_on_c, 1, 81, 100
3, 183840, Note_on_c, 1, 81, 0
3, 183840, Note_on_c, 1, 79, 100
3, 184320, Note_on_c, 1, 79, 0
3, 184320, Note_on_c, 1, 79, 100
3, 184800, Note_on_c, 1, 79, 0
3, 184800, Note_on_c, 1, 78, 100
3, 185280, Note_on_c, 1, 78, 0
3, 185520, Note_on_c, 1, 77, 100
3, 185760, Note_on_c, 1, 77, 0
3, 185760, Note_on_c, 1, 77, 100
3, 186240, Note_on_c, 1, 77, 0
3, 186240, Note_on_c, 1, 76, 100
3, 186720, Note_on_c, 1, 76, 0
3, 186960, Note_on_c, 1, 75, 100
3, 187200, Note_on_c, 1, 75, 0
3, 187200, Note_on_c, 1, 75, 100
3, 187680, Note_on_c, 1, 75, 0
3, 187680, Note_on_c, 1, 74, 100
3, 188160, Note_on_c, 1, 74, 0
3, 188400, Note_on_c, 1, 74, 100
3, 188640, Note_on_c, 1, 74, 0
3, 188880, Note_on_c, 1, 74, 100
3, 189120, Note_on_c, 1, 74, 0
3, 189120, Pitch_bend_c, 1, 12288
3, 189120, Note_on_c, 1, 73, 100
3, 189180, Pitch_bend_c, 1, 8192
3, 189240, Pitch_bend_c, 1, 12288
3, 189300, Pitch_bend_c, 1, 8192
3, 189840, Note_on_c, 1, 73, 0
3, 189840, Note_on_c, 1, 74, 100
3, 190080, Note_on_c, 1, 74, 0
3, 190080, Note_on_c, 1, 62, 100
3, 190560, Note_on_c, 1, 62, 0
3, 190560, Note_on_c, 1, 62, 100
3, 191520, Note_on_c, 1, 62, 0
3, 191520, Note_on_c, 1, 61, 100
3, 192000, Note_on_c, 1, 61, 0
3, 192000, Note_on_c, 1, 57, 100
3, 192960, Note_on_c, 1, 57, 0
3, 192960, Note_on_c, 1, 59, 100
3, 193440, Note_on_c, 1, 59, 0
3, 193440, Note_on_c, 1, 55, 100
3, 194400, Note_on_c, 1, 55, 0
3, 194400, Note_on_c, 1, 57, 100
3, 194880, Note_on_c, 1, 57, 0
3, 194880, Note_on_c, 1, 61, 100
3, 195840, Note_on_c, 1, 61, 0
3, 195840, Note_on_c, 1, 62, 100
3, 196320, Note_on_c, 1, 62, 0
3, 196320, Note_on_c, 1, 62, 100
3, 197040, Note_on_c, 1, 62, 0
3, 197040, Note_on_c, 1, 62, 100
3, 197280, Note_on_c, 1, 62, 0
3, 197280, Note_on_c, 1, 61, 100
3, 197520, Note_on_c, 1, 61, 0
3, 197520, Note_on_c, 1, 59, 100
3, 197760, Note_on_c, 1, 59, 0
3, 197760, Note_on_c, 1, 57, 100
3, 198480, Note_on_c, 1, 57, 0
3, 198480, Note_on_c, 1, 57, 100
3, 198720, Note_on_c, 1, 57, 0
3, 198720, Note_on_c, 1, 59, 100
3, 198960, Note_on_c, 1, 59, 0
3, 198960, Note_on_c, 1, 57, 100
3, 199200, Note_on_c, 1, 57, 0
3, 199200, Note_on_c, 1, 55, 100
3, 199920, Note_on_c, 1, 55, 0
3, 199920, Note_on_c, 1, 55, 100
3, 200160, Note_on_c, 1, 55, 0
3, 200160, Note_on_c, 1, 57, 100
3, 200640, Note_on_c, 1, 57, 0
3, 200640, Note_on_c, 1, 57, 100
3, 201600, Note_on_c, 1, 57, 0
3, 201600, Note_on_c, 1, 62, 100
3, 202080, Note_on_c, 1, 62, 0
3, 202080, Note_on_c, 1, 62, 100
3, 202800, Note_on_c, 1, 62, 0
3, 202800, Note_on_c, 1, 62, 100
3, 203040, Note_on_c, 1, 62, 0
3, 203040, Note_on_c, 1, 64, 100
3, 203520, Note_on_c, 1, 64, 0
3, 203520, Note_on_c, 1, 64, 100
3, 204240, Note_on_c, 1, 64, 0
3, 204240, Note_on_c, 1, 67, 100
3, 204480, Note_on_c, 1, 67, 0
3, 204480, Note_on_c, 1, 66, 100
3, 204960, Note_on_c, 1, 66, 0
3, 204960, Note_on_c, 1, 67, 100
3, 205680, Note_on_c, 1, 67, 0
3, 205680, Note_on_c, 1, 67, 100
3, 205920, Note_on_c, 1, 67, 0
3, 205920, Note_on_c, 1, 66, 100
3, 206160, Note_on_c, 1, 66, 0
3, 206160, Note_on_c, 1, 62, 100
3, 206400, Note_on_c, 1, 62, 0
3, 206400, Note_on_c, 1, 64, 100
3, 206640, Note_on_c, 1, 64, 0
3, 206640, Note_on_c, 1, 66, 100
3, 206880, Note_on_c, 1, 66, 0
3, 206880, Note_on_c, 1, 67, 100
3, 207120, Note_on_c, 1, 67, 0
3, 207120, Note_on_c, 1, 64, 100
3, 207360, Note_on_c, 1, 64, 0
3, 207360, Note_on_c, 1, 66, 100
3, 207600, Note_on_c, 1, 66, 0
3, 207600, Note_on_c, 1, 64, 100
3, 207840, Note_on_c, 1, 64, 0
3, 207840, Note_on_c, 1, 62, 100
3, 208080, Note_on_c, 1, 62, 0
3, 208080, Note_on_c, 1, 64, 100
3, 208320, Note_on_c, 1, 64, 0
3, 208320, Note_on_c, 1, 66, 100
3, 208560, Note_on_c, 1, 66, 0
3, 208560, Note_on_c, 1, 67, 100
3, 208800, Note_on_c, 1, 67, 0
3, 208800, Note_on_c, 1, 69, 100
3, 209040, Note_on_c, 1, 69, 0
3, 209040, Note_on_c, 1, 71, 100
3, 209280, Note_on_c, 1, 71, 0
3, 209280, Note_on_c, 1, 73, 100
3, 209520, Note_on_c, 1, 73, 0
3, 209520, Note_on_c, 1, 69, 100
3, 209760, Note_on_c, 1, 69, 0
3, 209760, Note_on_c, 1, 71, 100
3, 210000, Note_on_c, 1, 71, 0
3, 210000, Note_on_c, 1, 73, 100
3, 210240, Note_on_c, 1, 73, 0
3, 210240, Note_on_c, 1, 74, 100
3, 210480, Note_on_c, 1, 74, 0
3, 210480, Note_on_c, 1, 73, 100
3, 210720, Note_on_c, 1, 73, 0
3, 210720, Note_on_c, 1, 71, 100
3, 210960, Note_on_c, 1, 71, 0
3, 210960, Note_on_c, 1, 69, 100
3, 211200, Note_on_c, 1, 69, 0
3, 211200, Note_on_c, 1, 67, 100
3, 211440, Note_on_c, 1, 67, 0
3, 211440, Note_on_c, 1, 66, 100
3, 211680, Note_on_c, 1, 66, 0
3, 211680, Note_on_c, 1, 64, 100
3, 211920, Note_on_c, 1, 64, 0
3, 211920, Note_on_c, 1, 62, 100
3, 212160, Note_on_c, 1, 62, 0
3, 212160, Note_on_c, 1, 69, 100
3, 213120, Note_on_c, 1, 69, 0
3, 213120, Note_on_c, 1, 62, 100
3, 213360, Note_on_c, 1, 62, 0
3, 214320, Note_on_c, 1, 62, 100
3, 214560, Note_on_c, 1, 62, 0
3, 214560, Note_on_c, 1, 61, 100
3, 214680, Note_on_c, 1, 61, 0
3, 214680, Note_on_c, 1, 62, 100
3, 214800, Note_on_c, 1, 62, 0
3, 214800, Note_on_c, 1, 61, 100
3, 214920, Note_on_c, 1, 61, 0
3, 214920, Note_on_c, 1, 59, 100
3, 215040, Note_on_c, 1, 59, 0
3, 215040, Note_on_c, 1, 57, 100
3, 215160, Note_on_c, 1, 57, 0
3, 215160, Note_on_c, 1, 61, 100
3, 215280, Note_on_c, 1, 61, 0
3, 215280, Note_on_c, 1, 64, 100
3, 215400, Note_on_c, 1, 64, 0
3, 215400, Note_on_c, 1, 67, 100
3, 215520, Note_on_c, 1, 67, 0
3, 215520, Note_on_c, 1, 66, 100
3, 215760, Note_on_c, 1, 66, 0
3, 215760, Note_on_c, 1, 76, 100
3, 216000, Note_on_c, 1, 76, 0
3, 216000, Note_on_c, 1, 74, 100
3, 216240, Note_on_c, 1, 74, 0
3, 220440, Note_on_c, 1, 81, 100
3, 220560, Note_on_c, 1, 81, 0
3, 220560, Note_on_c, 1, 76, 100
3, 220680, Note_on_c, 1, 76, 0
3, 220680, Note_on_c, 1, 73, 100
3, 220800, Note_on_c, 1, 73, 0
3, 220800, Note_on_c, 1, 69, 100
3, 220920, Note_on_c, 1, 69, 0
3, 220920, Note_on_c, 1, 73, 100
3, 221040, Note_on_c, 1, 73, 0
3, 221040, Note_on_c, 1, 69, 100
3, 221160, Note_on_c, 1, 69, 0
3, 221160, Note_on_c, 1, 64, 100
3, 221280, Note_on_c, 1, 64, 0
3, 221280, Note_on_c, 1, 61, 100
3, 221400, Note_on_c, 1, 61, 0
3, 221400, Note_on_c, 1, 64, 100
3, 221520, Note_on_c, 1, 64, 0
3, 221520, Note_on_c, 1, 62, 100
3, 221640, Note_on_c, 1, 62, 0
3, 221640, Note_on_c, 1, 61, 100
3, 221760, Note_on_c, 1, 61, 0
3, 221760, Note_on_c, 1, 59, 100
3, 221880, Note_on_c, 1, 59, 0
3, 230640, Note_on_c, 1, 81, 100
3, 230760, Note_on_c, 1, 81, 0
3, 230760, Note_on_c, 1, 81, 100
3, 230880, Note_on_c, 1, 81, 0
3, 230880, Note_on_c, 1, 81, 100
3, 231000, Note_on_c, 1, 81, 0
3, 231000, Note_on_c, 1, 78, 100
3, 231120, Note_on_c, 1, 78, 0
3, 231120, Note_on_c, 1, 74, 100
3, 231240, Note_on_c, 1, 74, 0
3, 231240, Note_on_c, 1, 69, 100
3, 231360, Note_on_c, 1, 69, 0
3, 231360, Note_on_c, 1, 66, 100
3, 231480, Note_on_c, 1, 66, 0
3, 231480, Note_on_c, 1, 62, 100
3, 231600, Note_on_c, 1, 62, 0
3, 231600, Note_on_c, 1, 57, 100
3, 231720, Note_on_c, 1, 57, 0
3, 231720, Note_on_c, 1, 62, 100
3, 231840, Note_on_c, 1, 62, 0
3, 231840, Note_on_c, 1, 64, 100
3, 231960, Note_on_c, 1, 64, 0
3, 231960, Note_on_c, 1, 61, 100
3, 232080, Note_on_c, 1, 61, 0
3, 233520, Note_on_c, 1, 81, 100
3, 233640, Note_on_c, 1, 81, 0
3, 233640, Note_on_c, 1, 81, 100
3, 233760, Note_on_c, 1, 81, 0
3, 233760, Note_on_c, 1, 81, 100
3, 233880, Note_on_c, 1, 81, 0
3, 233880, Note_on_c, 1, 78, 100
3, 234000, Note_on_c, 1, 78, 0
3, 234000, Note_on_c, 1, 74, 100
3, 234120, Note_on_c, 1, 74, 0
3, 234120, Note_on_c, 1, 71, 100
3, 234240, Note_on_c, 1, 71, 0
3, 234240, Note_on_c, 1, 74, 100
3, 234360, Note_on_c, 1, 74, 0
3, 234360, Note_on_c, 1, 80, 100
3, 234480, Note_on_c, 1, 80, 0
3, 234480, Note_on_c, 1, 83, 100
3, 234600, Note_on_c, 1, 83, 0
3, 234600, Note_on_c, 1, 80, 100
3, 234720, Note_on_c, 1, 80, 0
3, 234720, Note_on_c, 1, 81, 100
3, 234840, Note_on_c, 1, 81, 0
3, 234840, Note_on_c, 1, 76, 100
3, 234960, Note_on_c, 1, 76, 0
3, 236400, Note_on_c, 1, 69, 100
3, 236520, Note_on_c, 1, 69, 0
3, 236520, Note_on_c, 1, 69, 100
3, 236640, Note_on_c, 1, 69, 0
3, 236640, Note_on_c, 1, 69, 100
3, 236760, Note_on_c, 1, 69, 0
3, 236760, Note_on_c, 1, 66, 100
3, 236880, Note_on_c, 1, 66, 0
3, 236880, Note_on_c, 1, 62, 100
3, 237000, Note_on_c, 1, 62, 0
3, 237000, Note_on_c, 1, 66, 100
3, 237120, Note_on_c, 1, 66, 0
3, 237120, Note_on_c, 1, 69, 100
3, 237240, Note_on_c, 1, 69, 0
3, 237240, Note_on_c, 1, 74, 100
3, 237360, Note_on_c, 1, 74, 0
3, 237360, Note_on_c, 1, 78, 100
3, 237480, Note_on_c, 1, 78, 0
3, 237840, Note_on_c, 1, 69, 100
3, 237960, Note_on_c, 1, 69, 0
3, 237960, Note_on_c, 1, 69, 100
3, 238080, Note_on_c, 1, 69, 0
3, 238080, Note_on_c, 1, 69, 100
3, 238200, Note_on_c, 1, 69, 0
3, 238920, Note_on_c, 1, 57, 100
3, 239040, Note_on_c, 1, 57, 0
3, 239040, Note_on_c, 1, 59, 100
3, 239160, Note_on_c, 1, 59, 0
3, 239160, Note_on_c, 1, 62, 100
3, 239280, Note_on_c, 1, 62, 0
3, 239280, Note_on_c, 1, 69, 100
3, 239400, Note_on_c, 1, 69, 0
3, 239400, Note_on_c, 1, 69, 100
3, 239520, Note_on_c, 1, 69, 0
3, 239520, Note_on_c, 1, 69, 100
3, 239640, Note_on_c, 1, 69, 0
3, 239640, Note_on_c, 1, 62, 100
3, 239760, Note_on_c, 1, 62, 0
3, 239760, Note_on_c, 1, 59, 100
3, 239880, Note_on_c, 1, 59, 0
3, 239880, Note_on_c, 1, 62, 100
3, 240000, Note_on_c, 1, 62, 0
3, 240000, Note_on_c, 1, 68, 100
3, 240120, Note_on_c, 1, 68, 0
3, 240120, Note_on_c, 1, 71, 100
3, 240240, Note_on_c, 1, 71, 0
3, 240240, Note_on_c, 1, 74, 100
3, 240360, Note_on_c, 1, 74, 0
3, 240360, Note_on_c, 1, 64, 100
3, 240480, Note_on_c, 1, 64, 0
3, 240720, Note_on_c, 1, 69, 100
3, 240840, Note_on_c, 1, 69, 0
3, 240840, Note_on_c, 1, 69, 100
3, 240960, Note_on_c, 1, 69, 0
3, 240960, Note_on_c, 1, 69, 100
3, 241080, Note_on_c, 1, 69, 0
3, 242040, Note_on_c, 1, 57, 100
3, 242160, Note_on_c, 1, 57, 0
3, 242160, Note_on_c, 1, 57, 100
3, 242280, Note_on_c, 1, 57, 0
3, 242280, Note_on_c, 1, 57, 100
3, 242400, Note_on_c, 1, 57, 0
3, 242400, Note_on_c, 1, 57, 100
3, 242520, Note_on_c, 1, 57, 0
3, 243480, Note_on_c, 1, 57, 100
3, 243600, Note_on_c, 1, 57, 0
3, 243600, Note_on_c, 1, 57, 100
3, 243720, Note_on_c, 1, 57, 0
3, 243720, Note_on_c, 1, 57, 100
3, 243840, Note_on_c, 1, 57, 0
3, 243840, Note_on_c, 1, 57, 100
3, 243960, Note_on_c, 1, 57, 0
3, 244920, Note_on_c, 1, 57, 100
3, 245040, Note_on_c, 1, 57, 0
3, 245040, Note_on_c, 1, 57, 100
3, 245160, Note_on_c, 1, 57, 0
3, 245160, Note_on_c, 1, 57, 100
3, 245280, Note_on_c, 1, 57, 0
3, 245280, Note_on_c, 1, 57, 100
3, 245400, Note_on_c, 1, 57, 0
3, 246360, Note_on_c, 1, 57, 100
3, 246480, Note_on_c, 1, 57, 0
3, 246480, Note_on_c, 1, 57, 100
3, 246600, Note_on_c, 1, 57, 0
3, 246600, Note_on_c, 1, 57, 100
3, 246720, Note_on_c, 1, 57, 0
3, 246720, Note_on_c, 1, 57, 100
3, 246840, Note_on_c, 1, 57, 0
3, 247800, Note_on_c, 1, 62, 100
3, 247920, Note_on_c, 1, 62, 0
3, 247920, Note_on_c, 1, 62, 100
3, 248040, Note_on_c, 1, 62, 0
3, 248040, Note_on_c, 1, 62, 100
3, 248160, Note_on_c, 1, 62, 0
3, 248160, Note_on_c, 1, 62, 100
3, 248280, Note_on_c, 1, 62, 0
3, 248280, Note_on_c, 1, 69, 100
3, 248400, Note_on_c, 1, 69, 0
3, 248400, Note_on_c, 1, 69, 100
3, 248520, Note_on_c, 1, 69, 0
3, 248520, Note_on_c, 1, 69, 100
3, 248640, Note_on_c, 1, 69, 0
3, 248640, Note_on_c, 1, 71, 100
3, 248760, Note_on_c, 1, 71, 0
3, 248760, Note_on_c, 1, 71, 100
3, 248880, Note_on_c, 1, 71, 0
3, 248880, Note_on_c, 1, 73, 100
3, 249000, Note_on_c, 1, 73, 0
3, 249000, Note_on_c, 1, 73, 100
3, 249120, Note_on_c, 1, 73, 0
3, 249120, Note_on_c, 1, 74, 100
3, 249240, Note_on_c, 1, 74, 0
3, 249720, Note_on_c, 1, 74, 100
3, 249840, Note_on_c, 1, 74, 0
3, 249840, Note_on_c, 1, 74, 100
3, 249960, Note_on_c, 1, 74, 0
3, 249960, Note_on_c, 1, 74, 100
3, 250080, Note_on_c, 1, 74, 0
3, 250080, Note_on_c, 1, 76, 100
3, 250200, Note_on_c, 1, 76, 0
3, 250200, Note_on_c, 1, 76, 100
3, 250320, Note_on_c, 1, 76, 0
3, 250320, Note_on_c, 1, 78, 100
3, 250440, Note_on_c, 1, 78, 0
3, 250440, Note_on_c, 1, 78, 100
3, 250560, Note_on_c, 1, 78, 0
3, 250560, Note_on_c, 1, 79, 100
3, 250680, Note_on_c, 1, 79, 0
3, 251160, Note_on_c, 1, 79, 100
3, 251280, Note_on_c, 1, 79, 0
3, 251280, Note_on_c, 1, 79, 100
3, 251400, Note_on_c, 1, 79, 0
3, 251400, Note_on_c, 1, 79, 100
3, 251520, Note_on_c, 1, 79, 0
3, 251520, Note_on_c, 1, 79, 100
3, 251640, Note_on_c, 1, 79, 0
3, 251640, Note_on_c, 1, 78, 100
3, 251760, Note_on_c, 1, 78, 0
3, 251760, Note_on_c, 1, 78, 100
3, 251880, Note_on_c, 1, 78, 0
3, 251880, Note_on_c, 1, 78, 100
3, 252000, Note_on_c, 1, 78, 0
3, 252000, Note_on_c, 1, 78, 100
3, 252120, Note_on_c, 1, 78, 0
3, 252120, Note_on_c, 1, 76, 100
3, 252240, Note_on_c, 1, 76, 0
3, 252240, Note_on_c, 1, 76, 100
3, 252360, Note_on_c, 1, 76, 0
3, 252360, Note_on_c, 1, 76, 100
3, 252480, Note_on_c, 1, 76, 0
3, 252480, Note_on_c, 1, 76, 100
3, 252600, Note_on_c, 1, 76, 0
3, 252600, Note_on_c, 1, 74, 100
3, 252720, Note_on_c, 1, 74, 0
3, 252720, Note_on_c, 1, 74, 100
3, 252840, Note_on_c, 1, 74, 0
3, 252840, Note_on_c, 1, 74, 100
3, 252960, Note_on_c, 1, 74, 0
3, 252960, Note_on_c, 1, 74, 100
3, 253080, Note_on_c, 1, 74, 0
3, 253080, Note_on_c, 1, 73, 100
3, 253200, Note_on_c, 1, 73, 0
3, 253200, Note_on_c, 1, 73, 100
3, 253320, Note_on_c, 1, 73, 0
3, 253320, Note_on_c, 1, 73, 100
3, 253440, Note_on_c, 1, 73, 0
3, 253440, Note_on_c, 1, 74, 100
3, 253920, Note_on_c, 1, 74, 0
3, 253920, Note_on_c, 1, 74, 100
3, 254640, Note_on_c, 1, 74, 0
3, 254640, Note_on_c, 1, 74, 100
3, 254880, Note_on_c, 1, 74, 0
3, 254880, Note_on_c, 1, 74, 100
3, 255360, Note_on_c, 1, 74, 0
3, 255360, Note_on_c, 1, 74, 100
3, 255600, Note_on_c, 1, 74, 0
3, 255600, Note_on_c, 1, 73, 100
3, 255840, Note_on_c, 1, 73, 0
3, 255840, Note_on_c, 1, 71, 100
3, 256080, Note_on_c, 1, 71, 0
3, 256080, Note_on_c, 1, 70, 100
3, 256320, Note_on_c, 1, 70, 0
3, 256320, Note_on_c, 1, 71, 100
3, 256800, Note_on_c, 1, 71, 0
3, 256800, Note_on_c, 1, 71, 100
3, 257040, Note_on_c, 1, 71, 0
3, 257040, Note_on_c, 1, 69, 100
3, 257280, Note_on_c, 1, 69, 0
3, 257280, Note_on_c, 1, 67, 100
3, 257520, Note_on_c, 1, 67, 0
3, 257520, Note_on_c, 1, 66, 100
3, 257760, Note_on_c, 1, 66, 0
3, 257760, Note_on_c, 1, 67, 100
3, 258240, Note_on_c, 1, 67, 0
3, 258480, Note_on_c, 1, 67, 100
3, 258720, Note_on_c, 1, 67, 0
3, 258720, Note_on_c, 1, 66, 100
3, 258960, Note_on_c, 1, 66, 0
3, 258960, Note_on_c, 1, 64, 100
3, 259200, Note_on_c, 1, 64, 0
3, 259200, Note_on_c, 1, 62, 100
3, 259440, Note_on_c, 1, 62, 0
3, 259440, Note_on_c, 1, 66, 100
3, 259680, Note_on_c, 1, 66, 0
3, 259680, Note_on_c, 1, 71, 100
3, 259920, Note_on_c, 1, 71, 0
3, 259920, Note_on_c, 1, 69, 100
3, 260160, Note_on_c, 1, 69, 0
3, 260160, Note_on_c, 1, 67, 100
3, 260400, Note_on_c, 1, 67, 0
3, 260400, Note_on_c, 1, 66, 100
3, 260640, Note_on_c, 1, 66, 0
3, 260640, Note_on_c, 1, 67, 100
3, 260880, Note_on_c, 1, 67, 0
3, 260880, Note_on_c, 1, 64, 100
3, 261120, Note_on_c, 1, 64, 0
3, 261120, Note_on_c, 1, 69, 100
3, 261360, Note_on_c, 1, 69, 0
3, 261360, Note_on_c, 1, 67, 100
3, 261600, Note_on_c, 1, 67, 0
3, 261600, Note_on_c, 1, 66, 100
3, 261840, Note_on_c, 1, 66, 0
3, 261840, Note_on_c, 1, 64, 100
3, 262080, Note_on_c, 1, 64, 0
3, 262080, Note_on_c, 1, 66, 100
3, 262320, Note_on_c, 1, 66, 0
3, 262320, Note_on_c, 1, 62, 100
3, 262560, Note_on_c, 1, 62, 0
3, 262560, Note_on_c, 1, 67, 100
3, 262800, Note_on_c, 1, 67, 0
3, 271200, Note_on_c, 1, 78, 100
3, 271920, Note_on_c, 1, 78, 0
3, 271920, Note_on_c, 1, 78, 100
3, 272160, Note_on_c, 1, 78, 0
3, 272160, Note_on_c, 1, 78, 100
3, 272640, Note_on_c, 1, 78, 0
3, 272640, Note_on_c, 1, 78, 100
3, 273360, Note_on_c, 1, 78, 0
3, 273360, Note_on_c, 1, 78, 100
3, 273600, Note_on_c, 1, 78, 0
3, 273600, Note_on_c, 1, 78, 100
3, 274080, Note_on_c, 1, 78, 0
3, 274080, Note_on_c, 1, 76, 100
3, 274800, Note_on_c, 1, 76, 0
3, 274800, Note_on_c, 1, 76, 100
3, 275040, Note_on_c, 1, 76, 0
3, 275040, Note_on_c, 1, 76, 100
3, 275280, Note_on_c, 1, 76, 0
3, 275280, Note_on_c, 1, 74, 100
3, 275520, Note_on_c, 1, 74, 0
3, 275520, Note_on_c, 1, 74, 100
3, 276240, Note_on_c, 1, 74, 0
3, 276240, Note_on_c, 1, 73, 100
3, 276480, Note_on_c, 1, 73, 0
3, 276480, Note_on_c, 1, 74, 100
3, 276960, Note_on_c, 1, 74, 0
3, 276960, Note_on_c, 1, 74, 100
3, 277680, Note_on_c, 1, 74, 0
3, 277680, Note_on_c, 1, 74, 100
3, 277920, Note_on_c, 1, 74, 0
3, 277920, Note_on_c, 1, 74, 100
3, 278400, Note_on_c, 1, 74, 0
3, 278400, Note_on_c, 1, 74, 100
3, 279120, Note_on_c, 1, 74, 0
3, 279120, Note_on_c, 1, 74, 100
3, 279360, Note_on_c, 1, 74, 0
3, 279360, Note_on_c, 1, 74, 100
3, 279840, Note_on_c, 1, 74, 0
3, 279840, Note_on_c, 1, 76, 100
3, 280560, Note_on_c, 1, 76, 0
3, 280560, Note_on_c, 1, 76, 100
3, 280800, Note_on_c, 1, 76, 0
3, 280800, Note_on_c, 1, 76, 100
3, 281040, Note_on_c, 1, 76, 0
3, 281040, Note_on_c, 1, 78, 100
3, 281280, Note_on_c, 1, 78, 0
3, 281280, Note_on_c, 1, 76, 100
3, 282240, Note_on_c, 1, 76, 0
3, 282240, Note_on_c, 1, 78, 100
3, 282720, Note_on_c, 1, 78, 0
3, 282720, Note_on_c, 1, 78, 100
3, 283440, Note_on_c, 1, 78, 0
3, 283440, Note_on_c, 1, 78, 100
3, 283680, Note_on_c, 1, 78, 0
3, 283680, Note_on_c, 1, 76, 100
3, 284160, Note_on_c, 1, 76, 0
3, 284160, Note_on_c, 1, 78, 100
3, 284880, Note_on_c, 1, 78, 0
3, 284880, Note_on_c, 1, 78, 100
3, 285120, Note_on_c, 1, 78, 0
3, 285120, Note_on_c, 1, 79, 100
3, 285360, Note_on_c, 1, 79, 0
3, 285360, Note_on_c, 1, 74, 100
3, 285600, Note_on_c, 1, 74, 0
3, 285600, Note_on_c, 1, 76, 100
3, 286320, Note_on_c, 1, 76, 0
3, 286320, Note_on_c, 1, 76, 100
3, 286560, Note_on_c, 1, 76, 0
3, 286560, Note_on_c, 1, 76, 100
3, 286800, Note_on_c, 1, 76, 0
3, 286800, Note_on_c, 1, 78, 100
3, 287040, Note_on_c, 1, 78, 0
3, 287040, Note_on_c, 1, 79, 100
3, 287280, Note_on_c, 1, 79, 0
3, 287280, Note_on_c, 1, 83, 100
3, 287520, Note_on_c, 1, 83, 0
3, 287520, Note_on_c, 1, 81, 100
3, 287760, Note_on_c, 1, 81, 0
3, 287760, Note_on_c, 1, 79, 100
3, 288000, Note_on_c, 1, 79, 0
3, 288000, Note_on_c, 1, 78, 100
3, 288480, Note_on_c, 1, 78, 0
3, 288480, Note_on_c, 1, 78, 50
3, 288960, Note_on_c, 1, 78, 0
3, 288960, Note_on_c, 1, 78, 50
3, 289440, Note_on_c, 1, 78, 0
3, 289440, Note_on_c, 1, 78, 50
3, 289920, Note_on_c, 1, 78, 0
3, 289920, Note_on_c, 1, 78, 50
3, 290400, Note_on_c, 1, 78, 0
3, 290400, Note_on_c, 1, 78, 50
3, 290880, Note_on_c, 1, 78, 0
3, 290880, Note_on_c, 1, 76, 50
3, 291360, Note_on_c, 1, 76, 0
3, 291360, Note_on_c, 1, 81, 50
3, 291840, Note_on_c, 1, 81, 0
3, 292320, Note_on_c, 1, 83, 50
3, 292800, Note_on_c, 1, 83, 0
3, 292800, Note_on_c, 1, 76, 50
3, 293040, Note_on_c, 1, 76, 0
3, 293040, Note_on_c, 1, 78, 50
3, 293280, Note_on_c, 1, 78, 0
3, 293280, Note_on_c, 1, 79, 50
3, 293760, Note_on_c, 1, 79, 0
3, 293760, Note_on_c, 1, 79, 50
3, 294240, Note_on_c, 1, 79, 0
3, 294240, Note_on_c, 1, 78, 50
3, 294720, Note_on_c, 1, 78, 0
3, 294720, Note_on_c, 1, 78, 50
3, 295200, Note_on_c, 1, 78, 0
3, 295200, Note_on_c, 1, 78, 50
3, 295680, Note_on_c, 1, 78, 0
3, 295680, Note_on_c, 1, 76, 50
3, 296160, Note_on_c, 1, 76, 0
3, 296160, Note_on_c, 1, 76, 50
3, 296640, Note_on_c, 1, 76, 0
3, 296640, Note_on_c, 1, 76, 50
3, 297120, Note_on_c, 1, 76, 0
3, 297120, Note_on_c, 1, 76, 50
3, 297600, Note_on_c, 1, 76, 0
3, 297600, Note_on_c, 1, 76, 50
3, 298080, Note_on_c, 1, 76, 0
3, 298080, Note_on_c, 1, 74, 100
3, 298320, Note_on_c, 1, 74, 0
3, 298320, Note_on_c, 1, 83, 100
3, 298560, Note_on_c, 1, 83, 0
3, 306720, Note_on_c, 1, 77, 100
3, 307080, Note_on_c, 1, 77, 0
3, 307080, Note_on_c, 1, 62, 100
3, 307200, Note_on_c, 1, 62, 0
3, 307200, Note_on_c, 1, 67, 100
3, 307320, Note_on_c, 1, 67, 0
3, 307320, Note_on_c, 1, 70, 100
3, 307440, Note_on_c, 1, 70, 0
3, 307440, Note_on_c, 1, 75, 100
3, 307560, Note_on_c, 1, 75, 0
3, 307560, Note_on_c, 1, 74, 100
3, 307680, Note_on_c, 1, 74, 0
3, 307680, Note_on_c, 1, 75, 100
3, 307800, Note_on_c, 1, 75, 0
3, 307800, Note_on_c, 1, 72, 100
3, 307920, Note_on_c, 1, 72, 0
3, 307920, Note_on_c, 1, 65, 100
3, 308040, Note_on_c, 1, 65, 0
3, 308040, Note_on_c, 1, 57, 100
3, 308160, Note_on_c, 1, 57, 0
3, 308160, Note_on_c, 1, 58, 100
3, 308520, Note_on_c, 1, 58, 0
3, 309600, Note_on_c, 1, 57, 100
3, 309840, Note_on_c, 1, 57, 0
3, 309840, Note_on_c, 1, 55, 100
3, 310080, Note_on_c, 1, 55, 0
3, 310080, Note_on_c, 1, 57, 100
3, 310440, Note_on_c, 1, 57, 0
3, 311640, Note_on_c, 1, 74, 100
3, 311760, Note_on_c, 1, 74, 0
3, 311880, Note_on_c, 1, 74, 100
3, 312000, Note_on_c, 1, 74, 0
3, 312120, Note_on_c, 1, 74, 100
3, 312240, Note_on_c, 1, 74, 0
3, 312360, Note_on_c, 1, 74, 100
3, 312480, Note_on_c, 1, 74, 0
3, 313080, Note_on_c, 1, 74, 100
3, 313200, Note_on_c, 1, 74, 0
3, 313320, Note_on_c, 1, 74, 100
3, 313440, Note_on_c, 1, 74, 0
3, 313560, Note_on_c, 1, 74, 100
3, 313680, Note_on_c, 1, 74, 0
3, 313800, Note_on_c, 1, 74, 100
3, 313920, Note_on_c, 1, 74, 0
3, 314520, Note_on_c, 1, 74, 100
3, 314640, Note_on_c, 1, 74, 0
3, 314760, Note_on_c, 1, 74, 100
3, 314880, Note_on_c, 1, 74, 0
3, 315000, Note_on_c, 1, 74, 100
3, 315120, Note_on_c, 1, 74, 0
3, 315240, Note_on_c, 1, 74, 100
3, 315360, Note_on_c, 1, 74, 0
3, 315960, Note_on_c, 1, 74, 100
3, 316080, Note_on_c, 1, 74, 0
3, 316200, Note_on_c, 1, 74, 100
3, 316320, Note_on_c, 1, 74, 0
3, 316440, Note_on_c, 1, 74, 100
3, 316560, Note_on_c, 1, 74, 0
3, 328440, Note_on_c, 1, 69, 95
3, 328560, Note_on_c, 1, 69, 0
3, 328680, Note_on_c, 1, 69, 95
3, 328800, Note_on_c, 1, 69, 0
3, 328920, Note_on_c, 1, 69, 95
3, 329040, Note_on_c, 1, 69, 0
3, 329160, Note_on_c, 1, 69, 95
3, 329280, Note_on_c, 1, 69, 0
3, 329400, Note_on_c, 1, 69, 95
3, 329520, Note_on_c, 1, 69, 0
3, 329640, Note_on_c, 1, 69, 95
3, 329760, Note_on_c, 1, 69, 0
3, 329880, Note_on_c, 1, 69, 95
3, 330000, Note_on_c, 1, 69, 0
3, 330120, Note_on_c, 1, 69, 95
3, 330240, Note_on_c, 1, 69, 0
3, 330360, Note_on_c, 1, 69, 95
3, 330480, Note_on_c, 1, 69, 0
3, 330600, Note_on_c, 1, 69, 95
3, 330720, Note_on_c, 1, 69, 0
3, 330840, Note_on_c, 1, 69, 95
3, 330960, Note_on_c, 1, 69, 0
3, 331080, Note_on_c, 1, 69, 95
3, 331200, Note_on_c, 1, 69, 0
3, 331320, Note_on_c, 1, 69, 95
3, 331440, Note_on_c, 1, 69, 0
3, 331560, Note_on_c, 1, 69, 95
3, 331680, Note_on_c, 1, 69, 0
3, 331800, Note_on_c, 1, 69, 95
3, 331920, Note_on_c, 1, 69, 0
3, 332040, Note_on_c, 1, 69, 95
3, 332160, Note_on_c, 1, 69, 0
3, 332280, Note_on_c, 1, 69, 95
3, 332400, Note_on_c, 1, 69, 0
3, 332520, Note_on_c, 1, 69, 95
3, 332640, Note_on_c, 1, 69, 0
3, 332760, Note_on_c, 1, 69, 95
3, 332880, Note_on_c, 1, 69, 0
3, 333000, Note_on_c, 1, 69, 95
3, 333120, Note_on_c, 1, 69, 0
3, 333240, Note_on_c, 1, 69, 95
3, 333360, Note_on_c, 1, 69, 0
3, 333480, Note_on_c, 1, 69, 95
3, 333600, Note_on_c, 1, 69, 0
3, 333720, Note_on_c, 1, 69, 95
3, 333840, Note_on_c, 1, 69, 0
3, 333960, Note_on_c, 1, 69, 95
3, 334080, Note_on_c, 1, 69, 0
3, 334200, Note_on_c, 1, 69, 95
3, 334320, Note_on_c, 1, 69, 0
3, 334440, Note_on_c, 1, 69, 95
3, 334560, Note_on_c, 1, 69, 0
3, 334680, Note_on_c, 1, 69, 95
3, 334800, Note_on_c, 1, 69, 0
3, 334920, Note_on_c, 1, 69, 95
3, 335040, Note_on_c, 1, 69, 0
3, 335160, Note_on_c, 1, 69, 95
3, 335280, Note_on_c, 1, 69, 0
3, 335400, Note_on_c, 1, 69, 95
3, 335520, Note_on_c, 1, 69, 0
3, 335640, Note_on_c, 1, 69, 95
3, 335760, Note_on_c, 1, 69, 0
3, 335880, Note_on_c, 1, 69, 95
3, 336000, Note_on_c, 1, 69, 0
3, 336120, Note_on_c, 1, 69, 95
3, 336240, Note_on_c, 1, 69, 0
3, 336360, Note_on_c, 1, 69, 95
3, 336480, Note_on_c, 1, 69, 0
3, 336600, Note_on_c, 1, 69, 95
3, 336720, Note_on_c, 1, 69, 0
3, 336840, Note_on_c, 1, 69, 95
3, 336960, Note_on_c, 1, 69, 0
3, 337080, Note_on_c, 1, 69, 95
3, 337200, Note_on_c, 1, 69, 0
3, 337320, Note_on_c, 1, 69, 95
3, 337440, Note_on_c, 1, 69, 0
3, 337560, Note_on_c, 1, 69, 95
3, 337680, Note_on_c, 1, 69, 0
3, 337800, Note_on_c, 1, 69, 95
3, 337920, Note_on_c, 1, 69, 0
3, 338040, Note_on_c, 1, 69, 95
3, 338160, Note_on_c, 1, 69, 0
3, 338280, Note_on_c, 1, 69, 95
3, 338400, Note_on_c, 1, 69, 0
3, 338520, Note_on_c, 1, 69, 95
3, 338640, Note_on_c, 1, 69, 0
3, 338760, Note_on_c, 1, 69, 95
3, 338880, Note_on_c, 1, 69, 0
3, 339000, Note_on_c, 1, 69, 95
3, 339120, Note_on_c, 1, 69, 0
3, 339240, Note_on_c, 1, 69, 95
3, 339360, Note_on_c, 1, 69, 0
3, 339480, Note_on_c, 1, 69, 95
3, 339600, Note_on_c, 1, 69, 0
3, 339720, Note_on_c, 1, 69, 95
3, 339840, Note_on_c, 1, 69, 0
3, 339960, Note_on_c, 1, 69, 95
3, 340080, Note_on_c, 1, 69, 0
3, 340200, Note_on_c, 1, 69, 95
3, 340320, Note_on_c, 1, 69, 0
3, 340440, Note_on_c, 1, 69, 95
3, 340560, Note_on_c, 1, 69, 0
3, 340680, Note_on_c, 1, 69, 95
3, 340800, Note_on_c, 1, 69, 0
3, 340920, Note_on_c, 1, 69, 95
3, 341040, Note_on_c, 1, 69, 0
3, 341160, Note_on_c, 1, 69, 95
3, 341280, Note_on_c, 1, 69, 0
3, 341400, Note_on_c, 1, 69, 95
3, 341520, Note_on_c, 1, 69, 0
3, 341640, Note_on_c, 1, 69, 95
3, 341760, Note_on_c, 1, 69, 0
3, 341880, Note_on_c, 1, 69, 95
3, 342000, Note_on_c, 1, 69, 0
3, 342120, Note_on_c, 1, 69, 95
3, 342240, Note_on_c, 1, 69, 0
3, 342360, Note_on_c, 1, 69, 95
3, 342480, Note_on_c, 1, 69, 0
3, 342600, Note_on_c, 1, 69, 95
3, 342720, Note_on_c, 1, 69, 0
3, 342840, Note_on_c, 1, 69, 95
3, 342960, Note_on_c, 1, 69, 0
3, 343080, Note_on_c, 1, 69, 95
3, 343200, Note_on_c, 1, 69, 0
3, 343320, Note_on_c, 1, 69, 95
3, 343440, Note_on_c, 1, 69, 0
3, 343560, Note_on_c, 1, 69, 95
3, 343680, Note_on_c, 1, 69, 0
3, 343800, Note_on_c, 1, 69, 95
3, 343920, Note_on_c, 1, 69, 0
3, 344040, Note_on_c, 1, 69, 95
3, 344160, Note_on_c, 1, 69, 0
3, 344280, Note_on_c, 1, 69, 95
3, 344400, Note_on_c, 1, 69, 0
3, 344520, Note_on_c, 1, 69, 95
3, 344640, Note_on_c, 1, 69, 0
3, 344760, Note_on_c, 1, 69, 95
3, 344880, Note_on_c, 1, 69, 0
3, 345000, Note_on_c, 1, 69, 95
3, 345120, Note_on_c, 1, 69, 0
3, 345240, Note_on_c, 1, 69, 95
3, 345360, Note_on_c, 1, 69, 0
3, 345480, Note_on_c, 1, 69, 95
3, 345600, Note_on_c, 1, 69, 0
3, 345600, Note_on_c, 1, 65, 100
3, 345720, Note_on_c, 1, 65, 0
3, 345720, Note_on_c, 1, 69, 110
3, 345840, Note_on_c, 1, 69, 0
3, 348720, Note_on_c, 1, 58, 100
3, 348800, Note_on_c, 1, 58, 0
3, 348800, Note_on_c, 1, 62, 100
3, 348880, Note_on_c, 1, 62, 0
3, 348880, Note_on_c, 1, 65, 100
3, 348960, Note_on_c, 1, 65, 0
3, 348960, Note_on_c, 1, 62, 100
3, 349040, Note_on_c, 1, 62, 0
3, 349040, Note_on_c, 1, 65, 100
3, 349120, Note_on_c, 1, 65, 0
3, 349120, Note_on_c, 1, 70, 100
3, 349200, Note_on_c, 1, 70, 0
3, 349200, Note_on_c, 1, 65, 100
3, 349280, Note_on_c, 1, 65, 0
3, 349280, Note_on_c, 1, 70, 100
3, 349360, Note_on_c, 1, 70, 0
3, 349360, Note_on_c, 1, 74, 100
3, 349440, Note_on_c, 1, 74, 0
3, 349440, Note_on_c, 1, 67, 100
3, 349520, Note_on_c, 1, 67, 0
3, 349520, Note_on_c, 1, 70, 100
3, 349600, Note_on_c, 1, 70, 0
3, 349600, Note_on_c, 1, 75, 100
3, 349680, Note_on_c, 1, 75, 0
3, 349680, Note_on_c, 1, 63, 100
3, 349760, Note_on_c, 1, 63, 0
3, 349760, Note_on_c, 1, 70, 100
3, 349840, Note_on_c, 1, 70, 0
3, 349840, Note_on_c, 1, 79, 100
3, 349920, Note_on_c, 1, 79, 0
3, 354240, Note_on_c, 1, 58, 100
3, 354320, Note_on_c, 1, 58, 0
3, 354320, Note_on_c, 1, 77, 100
3, 354400, Note_on_c, 1, 77, 0
3, 354400, Note_on_c, 1, 75, 100
3, 354480, Note_on_c, 1, 75, 0
3, 354480, Note_on_c, 1, 74, 100
3, 354560, Note_on_c, 1, 74, 0
3, 354560, Note_on_c, 1, 74, 100
3, 354640, Note_on_c, 1, 74, 0
3, 354640, Note_on_c, 1, 72, 100
3, 354720, Note_on_c, 1, 72, 0
3, 354720, Note_on_c, 1, 70, 100
3, 354800, Note_on_c, 1, 70, 0
3, 354800, Note_on_c, 1, 70, 100
3, 354880, Note_on_c, 1, 70, 0
3, 354880, Note_on_c, 1, 69, 100
3, 354960, Note_on_c, 1, 69, 0
3, 354960, Note_on_c, 1, 67, 100
3, 355040, Note_on_c, 1, 67, 0
3, 355040, Note_on_c, 1, 67, 100
3, 355120, Note_on_c, 1, 67, 0
3, 355120, Note_on_c, 1, 65, 100
3, 355200, Note_on_c, 1, 65, 0
3, 355200, Note_on_c, 1, 64, 100
3, 355280, Note_on_c, 1, 64, 0
3, 355280, Note_on_c, 1, 64, 100
3, 355360, Note_on_c, 1, 64, 0
3, 355360, Note_on_c, 1, 62, 100
3, 355440, Note_on_c, 1, 62, 0
3, 355440, Note_on_c, 1, 61, 100
3, 355520, Note_on_c, 1, 61, 0
3, 355520, Note_on_c, 1, 61, 100
3, 355600, Note_on_c, 1, 61, 0
3, 355600, Note_on_c, 1, 59, 100
3, 355680, Note_on_c, 1, 59, 0
3, 355680, Note_on_c, 1, 57, 100
3, 355800, Note_on_c, 1, 57, 0
3, 355800, Note_on_c, 1, 59, 100
3, 355860, Note_on_c, 1, 59, 0
3, 355860, Note_on_c, 1, 61, 100
3, 355920, Note_on_c, 1, 61, 0
3, 355920, Note_on_c, 1, 62, 100
3, 355980, Note_on_c, 1, 62, 0
3, 355980, Note_on_c, 1, 64, 100
3, 356040, Note_on_c, 1, 64, 0
3, 356040, Note_on_c, 1, 65, 100
3, 356100, Note_on_c, 1, 65, 0
3, 356100, Note_on_c, 1, 67, 100
3, 356160, Note_on_c, 1, 67, 0
3, 356160, Note_on_c, 1, 69, 100
3, 356220, Note_on_c, 1, 69, 0
3, 356220, Note_on_c, 1, 71, 100
3, 356280, Note_on_c, 1, 71, 0
3, 356280, Note_on_c, 1, 73, 100
3, 356340, Note_on_c, 1, 73, 0
3, 356340, Note_on_c, 1, 74, 100
3, 356400, Note_on_c, 1, 74, 0
3, 356400, Note_on_c, 1, 76, 100
3, 356460, Note_on_c, 1, 76, 0
3, 356460, Note_on_c, 1, 77, 100
3, 356520, Note_on_c, 1, 77, 0
3, 356520, Note_on_c, 1, 79, 100
3, 356580, Note_on_c, 1, 79, 0
3, 356580, Note_on_c, 1, 77, 100
3, 356640, Note_on_c, 1, 77, 0
3, 356640, Note_on_c, 1, 76, 100
3, 356700, Note_on_c, 1, 76, 0
3, 356700, Note_on_c, 1, 74, 100
3, 356760, Note_on_c, 1, 74, 0
3, 356760, Note_on_c, 1, 73, 100
3, 356820, Note_on_c, 1, 73, 0
3, 356820, Note_on_c, 1, 71, 100
3, 356880, Note_on_c, 1, 71, 0
3, 356880, Note_on_c, 1, 69, 100
3, 356940, Note_on_c, 1, 69, 0
3, 356940, Note_on_c, 1, 67, 100
3, 357000, Note_on_c, 1, 67, 0
3, 357000, Note_on_c, 1, 65, 100
3, 357060, Note_on_c, 1, 65, 0
3, 357060, Note_on_c, 1, 64, 100
3, 357120, Note_on_c, 1, 64, 0
3, 357120, Note_on_c, 1, 62, 100
3, 357360, Note_on_c, 1, 62, 0
3, 358560, Note_on_c, 1, 76, 100
3, 359040, Note_on_c, 1, 76, 0
3, 359040, Note_on_c, 1, 76, 100
3, 359760, Note_on_c, 1, 76, 0
3, 359760, Note_on_c, 1, 76, 100
3, 360000, Note_on_c, 1, 76, 0
3, 360000, Note_on_c, 1, 77, 100
3, 360480, Note_on_c, 1, 77, 0
3, 360480, Note_on_c, 1, 74, 100
3, 361200, Note_on_c, 1, 74, 0
3, 361200, Note_on_c, 1, 72, 100
3, 361440, Note_on_c, 1, 72, 0
3, 361440, Note_on_c, 1, 70, 100
3, 361920, Note_on_c, 1, 70, 0
3, 361920, Note_on_c, 1, 69, 100
3, 362400, Note_on_c, 1, 69, 0
3, 363360, Note_on_c, 1, 70, 100
3, 363840, Note_on_c, 1, 70, 0
3, 363840, Note_on_c, 1, 69, 100
3, 364320, Note_on_c, 1, 69, 0
3, 364320, Note_on_c, 1, 74, 100
3, 364800, Note_on_c, 1, 74, 0
3, 364800, Note_on_c, 1, 72, 100
3, 365280, Note_on_c, 1, 72, 0
3, 365280, Note_on_c, 1, 70, 100
3, 365760, Note_on_c, 1, 70, 0
3, 365760, End_track
4, 0, Start_track
4, 0, MIDI_port, 0
4, 0, Title_t, "Johann Sebastian Bach  (1685-1750)"
4, 0, Program_c, 2, 40
4, 0, Control_c, 2, 7, 100
4, 0, Control_c, 2, 10, 94
4, 1440, Note_on_c, 2, 70, 100
4, 1920, Note_on_c, 2, 70, 0
4, 1920, Note_on_c, 2, 69, 100
4, 2880, Note_on_c, 2, 69, 0
4, 2880, Note_on_c, 2, 69, 100
4, 3360, Note_on_c, 2, 69, 0
4, 7200, Note_on_c, 2, 70, 100
4, 7680, Note_on_c, 2, 70, 0
4, 7680, Note_on_c, 2, 69, 100
4, 8640, Note_on_c, 2, 69, 0
4, 8640, Note_on_c, 2, 69, 100
4, 9120, Note_on_c, 2, 69, 0
4, 9120, Note_on_c, 2, 65, 100
4, 10080, Note_on_c, 2, 65, 0
4, 10080, Note_on_c, 2, 74, 100
4, 10560, Note_on_c, 2, 74, 0
4, 10560, Note_on_c, 2, 73, 100
4, 10920, Note_on_c, 2, 73, 0
4, 11520, Note_on_c, 2, 74, 100
4, 11880, Note_on_c, 2, 74, 0
4, 12960, Note_on_c, 2, 62, 100
4, 13200, Note_on_c, 2, 62, 0
4, 13440, Note_on_c, 2, 61, 100
4, 13680, Note_on_c, 2, 61, 0
4, 14400, Note_on_c, 2, 62, 100
4, 14640, Note_on_c, 2, 62, 0
4, 14880, Note_on_c, 2, 58, 100
4, 15120, Note_on_c, 2, 58, 0
4, 15840, Note_on_c, 2, 74, 100
4, 16080, Note_on_c, 2, 74, 0
4, 16320, Note_on_c, 2, 73, 100
4, 16560, Note_on_c, 2, 73, 0
4, 17160, Note_on_c, 2, 73, 100
4, 17280, Note_on_c, 2, 73, 0
4, 17280, Note_on_c, 2, 74, 100
4, 17520, Note_on_c, 2, 74, 0
4, 18720, Note_on_c, 2, 70, 100
4, 18960, Note_on_c, 2, 70, 0
4, 19200, Note_on_c, 2, 69, 100
4, 19440, Note_on_c, 2, 69, 0
4, 20160, Note_on_c, 2, 69, 100
4, 20400, Note_on_c, 2, 69, 0
4, 33000, Note_on_c, 2, 74, 100
4, 33120, Note_on_c, 2, 74, 0
4, 33120, Note_on_c, 2, 74, 100
4, 33600, Note_on_c, 2, 74, 0
4, 33600, Note_on_c, 2, 76, 100
4, 34080, Note_on_c, 2, 76, 0
4, 85440, Note_on_c, 2, 57, 100
4, 85680, Note_on_c, 2, 57, 0
4, 92160, Note_on_c, 2, 62, 100
4, 92280, Note_on_c, 2, 62, 0
4, 93600, Note_on_c, 2, 60, 100
4, 93720, Note_on_c, 2, 60, 0
4, 95040, Note_on_c, 2, 58, 100
4, 95160, Note_on_c, 2, 58, 0
4, 126720, Note_on_c, 2, 65, 50
4, 128160, Note_on_c, 2, 65, 0
4, 128160, Note_on_c, 2, 64, 50
4, 129120, Note_on_c, 2, 64, 0
4, 129120, Note_on_c, 2, 73, 50
4, 129600, Note_on_c, 2, 73, 0
4, 129600, Note_on_c, 2, 62, 50
4, 130560, Note_on_c, 2, 62, 0
4, 130560, Note_on_c, 2, 69, 50
4, 131040, Note_on_c, 2, 69, 0
4, 131040, Note_on_c, 2, 55, 50
4, 132000, Note_on_c, 2, 55, 0
4, 132000, Note_on_c, 2, 57, 50
4, 132480, Note_on_c, 2, 57, 0
4, 132480, Note_on_c, 2, 62, 50
4, 132960, Note_on_c, 2, 62, 0
4, 132960, Note_on_c, 2, 57, 50
4, 133440, Note_on_c, 2, 57, 0
4, 133440, Note_on_c, 2, 58, 50
4, 133920, Note_on_c, 2, 58, 0
4, 133920, Note_on_c, 2, 60, 50
4, 134400, Note_on_c, 2, 60, 0
4, 134400, Note_on_c, 2, 58, 50
4, 134880, Note_on_c, 2, 58, 0
4, 134880, Note_on_c, 2, 57, 50
4, 135360, Note_on_c, 2, 57, 0
4, 135360, Note_on_c, 2, 58, 50
4, 135840, Note_on_c, 2, 58, 0
4, 135840, Note_on_c, 2, 57, 50
4, 136320, Note_on_c, 2, 57, 0
4, 136320, Note_on_c, 2, 55, 50
4, 136800, Note_on_c, 2, 55, 0
4, 136800, Note_on_c, 2, 57, 50
4, 138240, Note_on_c, 2, 57, 0
4, 138240, Note_on_c, 2, 62, 50
4, 139680, Note_on_c, 2, 62, 0
4, 139680, Note_on_c, 2, 62, 50
4, 141120, Note_on_c, 2, 62, 0
4, 141120, Note_on_c, 2, 62, 50
4, 141600, Note_on_c, 2, 62, 0
4, 141600, Note_on_c, 2, 64, 50
4, 142080, Note_on_c, 2, 64, 0
4, 142080, Note_on_c, 2, 65, 50
4, 142560, Note_on_c, 2, 65, 0
4, 142560, Note_on_c, 2, 67, 50
4, 143040, Note_on_c, 2, 67, 0
4, 143040, Note_on_c, 2, 69, 50
4, 144000, Note_on_c, 2, 69, 0
4, 144000, Note_on_c, 2, 62, 50
4, 145440, Note_on_c, 2, 62, 0
4, 145440, Note_on_c, 2, 62, 50
4, 146880, Note_on_c, 2, 62, 0
4, 146880, Note_on_c, 2, 79, 50
4, 147360, Note_on_c, 2, 79, 0
4, 147360, Note_on_c, 2, 77, 50
4, 147840, Note_on_c, 2, 77, 0
4, 147840, Note_on_c, 2, 76, 50
4, 148320, Note_on_c, 2, 76, 0
4, 148320, Note_on_c, 2, 77, 50
4, 148800, Note_on_c, 2, 77, 0
4, 148800, Note_on_c, 2, 73, 50
4, 149760, Note_on_c, 2, 73, 0
4, 149760, Note_on_c, 2, 74, 50
4, 150240, Note_on_c, 2, 74, 0
4, 150240, Note_on_c, 2, 77, 50
4, 150720, Note_on_c, 2, 77, 0
4, 150720, Note_on_c, 2, 72, 50
4, 151200, Note_on_c, 2, 72, 0
4, 151200, Note_on_c, 2, 70, 50
4, 152160, Note_on_c, 2, 70, 0
4, 153120, Note_on_c, 2, 74, 50
4, 153600, Note_on_c, 2, 74, 0
4, 153600, Note_on_c, 2, 74, 50
4, 154080, Note_on_c, 2, 74, 0
4, 154080, Note_on_c, 2, 74, 50
4, 154560, Note_on_c, 2, 74, 0
4, 154560, Note_on_c, 2, 73, 50
4, 155520, Note_on_c, 2, 73, 0
4, 155520, Note_on_c, 2, 69, 50
4, 156000, Note_on_c, 2, 69, 0
4, 156000, Note_on_c, 2, 74, 50
4, 156480, Note_on_c, 2, 74, 0
4, 156480, Note_on_c, 2, 72, 50
4, 156960, Note_on_c, 2, 72, 0
4, 156960, Note_on_c, 2, 70, 50
4, 157440, Note_on_c, 2, 70, 0
4, 157440, Note_on_c, 2, 71, 50
4, 157920, Note_on_c, 2, 71, 0
4, 157920, Note_on_c, 2, 74, 50
4, 158400, Note_on_c, 2, 74, 0
4, 158400, Note_on_c, 2, 72, 50
4, 158880, Note_on_c, 2, 72, 0
4, 158880, Note_on_c, 2, 75, 50
4, 159360, Note_on_c, 2, 75, 0
4, 159360, Note_on_c, 2, 74, 50
4, 159840, Note_on_c, 2, 74, 0
4, 159840, Note_on_c, 2, 77, 50
4, 160320, Note_on_c, 2, 77, 0
4, 160320, Note_on_c, 2, 76, 50
4, 161280, Note_on_c, 2, 76, 0
4, 161280, Note_on_c, 2, 77, 50
4, 162720, Note_on_c, 2, 77, 0
4, 162720, Note_on_c, 2, 76, 50
4, 164160, Note_on_c, 2, 76, 0
4, 164160, Note_on_c, 2, 74, 50
4, 165600, Note_on_c, 2, 74, 0
4, 165600, Note_on_c, 2, 73, 50
4, 166080, Note_on_c, 2, 73, 0
4, 166080, Note_on_c, 2, 74, 50
4, 166560, Note_on_c, 2, 74, 0
4, 166560, Note_on_c, 2, 73, 50
4, 167040, Note_on_c, 2, 73, 0
4, 167040, Note_on_c, 2, 74, 50
4, 167520, Note_on_c, 2, 74, 0
4, 167520, Note_on_c, 2, 72, 50
4, 168000, Note_on_c, 2, 72, 0
4, 168000, Note_on_c, 2, 74, 50
4, 168480, Note_on_c, 2, 74, 0
4, 168480, Note_on_c, 2, 72, 50
4, 168960, Note_on_c, 2, 72, 0
4, 180000, Note_on_c, 2, 67, 100
4, 180480, Note_on_c, 2, 67, 0
4, 180480, Note_on_c, 2, 67, 100
4, 181440, Note_on_c, 2, 67, 0
4, 181440, Note_on_c, 2, 65, 100
4, 181920, Note_on_c, 2, 65, 0
4, 181920, Note_on_c, 2, 65, 100
4, 182880, Note_on_c, 2, 65, 0
4, 182880, Note_on_c, 2, 67, 100
4, 183360, Note_on_c, 2, 67, 0
4, 183360, Note_on_c, 2, 65, 100
4, 183840, Note_on_c, 2, 65, 0
4, 183840, Note_on_c, 2, 64, 100
4, 184320, Note_on_c, 2, 64, 0
4, 184320, Note_on_c, 2, 69, 100
4, 184800, Note_on_c, 2, 69, 0
4, 184800, Note_on_c, 2, 69, 100
4, 185280, Note_on_c, 2, 69, 0
4, 185760, Note_on_c, 2, 67, 100
4, 186240, Note_on_c, 2, 67, 0
4, 186240, Note_on_c, 2, 67, 100
4, 186720, Note_on_c, 2, 67, 0
4, 187200, Note_on_c, 2, 65, 100
4, 187680, Note_on_c, 2, 65, 0
4, 187680, Note_on_c, 2, 65, 100
4, 188160, Note_on_c, 2, 65, 0
4, 189120, Note_on_c, 2, 64, 100
4, 190080, Note_on_c, 2, 64, 0
4, 195600, Note_on_c, 2, 69, 100
4, 195840, Note_on_c, 2, 69, 0
4, 196320, Note_on_c, 2, 71, 100
4, 196560, Note_on_c, 2, 71, 0
4, 196560, Note_on_c, 2, 69, 100
4, 196800, Note_on_c, 2, 69, 0
4, 196800, Note_on_c, 2, 67, 100
4, 197040, Note_on_c, 2, 67, 0
4, 197040, Note_on_c, 2, 66, 100
4, 197280, Note_on_c, 2, 66, 0
4, 197280, Note_on_c, 2, 64, 100
4, 197760, Note_on_c, 2, 64, 0
4, 197760, Note_on_c, 2, 66, 100
4, 197880, Note_on_c, 2, 66, 0
4, 197880, Note_on_c, 2, 67, 100
4, 198000, Note_on_c, 2, 67, 0
4, 198000, Note_on_c, 2, 69, 100
4, 198120, Note_on_c, 2, 69, 0
4, 198120, Note_on_c, 2, 67, 100
4, 198240, Note_on_c, 2, 67, 0
4, 198240, Note_on_c, 2, 66, 100
4, 198480, Note_on_c, 2, 66, 0
4, 198480, Note_on_c, 2, 64, 100
4, 198720, Note_on_c, 2, 64, 0
4, 198720, Note_on_c, 2, 62, 100
4, 199200, Note_on_c, 2, 62, 0
4, 199200, Note_on_c, 2, 64, 100
4, 199440, Note_on_c, 2, 64, 0
4, 199440, Note_on_c, 2, 67, 100
4, 199560, Note_on_c, 2, 67, 0
4, 199560, Note_on_c, 2, 66, 100
4, 199680, Note_on_c, 2, 66, 0
4, 199680, Note_on_c, 2, 64, 100
4, 199920, Note_on_c, 2, 64, 0
4, 199920, Note_on_c, 2, 62, 100
4, 200160, Note_on_c, 2, 62, 0
4, 200160, Note_on_c, 2, 67, 100
4, 200400, Note_on_c, 2, 67, 0
4, 200400, Note_on_c, 2, 66, 100
4, 200640, Note_on_c, 2, 66, 0
4, 200640, Note_on_c, 2, 64, 100
4, 201360, Note_on_c, 2, 64, 0
4, 203040, Note_on_c, 2, 61, 100
4, 203520, Note_on_c, 2, 61, 0
4, 203520, Note_on_c, 2, 57, 100
4, 204240, Note_on_c, 2, 57, 0
4, 204240, Note_on_c, 2, 57, 100
4, 204480, Note_on_c, 2, 57, 0
4, 204480, Note_on_c, 2, 59, 100
4, 204960, Note_on_c, 2, 59, 0
4, 204960, Note_on_c, 2, 55, 100
4, 205680, Note_on_c, 2, 55, 0
4, 205680, Note_on_c, 2, 55, 100
4, 205920, Note_on_c, 2, 55, 0
4, 205920, Note_on_c, 2, 57, 100
4, 206400, Note_on_c, 2, 57, 0
4, 206400, Note_on_c, 2, 57, 100
4, 207120, Note_on_c, 2, 57, 0
4, 207120, Note_on_c, 2, 57, 100
4, 207360, Note_on_c, 2, 57, 0
4, 207360, Note_on_c, 2, 62, 100
4, 207600, Note_on_c, 2, 62, 0
4, 207840, Note_on_c, 2, 78, 100
4, 208560, Note_on_c, 2, 78, 0
4, 208560, Note_on_c, 2, 78, 100
4, 208800, Note_on_c, 2, 78, 0
4, 208800, Note_on_c, 2, 76, 100
4, 209280, Note_on_c, 2, 76, 0
4, 209280, Note_on_c, 2, 81, 100
4, 210000, Note_on_c, 2, 81, 0
4, 210000, Note_on_c, 2, 79, 100
4, 210240, Note_on_c, 2, 79, 0
4, 210240, Note_on_c, 2, 78, 100
4, 210480, Note_on_c, 2, 78, 0
4, 210480, Note_on_c, 2, 76, 100
4, 210720, Note_on_c, 2, 76, 0
4, 210720, Note_on_c, 2, 79, 100
4, 210960, Note_on_c, 2, 79, 0
4, 210960, Note_on_c, 2, 78, 100
4, 211200, Note_on_c, 2, 78, 0
4, 211200, Note_on_c, 2, 83, 100
4, 211440, Note_on_c, 2, 83, 0
4, 211440, Note_on_c, 2, 81, 100
4, 211680, Note_on_c, 2, 81, 0
4, 211680, Note_on_c, 2, 79, 100
4, 211920, Note_on_c, 2, 79, 0
4, 211920, Note_on_c, 2, 78, 100
4, 212160, Note_on_c, 2, 78, 0
4, 212160, Note_on_c, 2, 76, 100
4, 213120, Note_on_c, 2, 76, 0
4, 214320, Note_on_c, 2, 68, 100
4, 214560, Note_on_c, 2, 68, 0
4, 214560, Note_on_c, 2, 69, 100
4, 214800, Note_on_c, 2, 69, 0
4, 215760, Note_on_c, 2, 58, 100
4, 216000, Note_on_c, 2, 58, 0
4, 216000, Note_on_c, 2, 59, 100
4, 216120, Note_on_c, 2, 59, 0
4, 216120, Note_on_c, 2, 61, 100
4, 216240, Note_on_c, 2, 61, 0
4, 216240, Note_on_c, 2, 62, 100
4, 216360, Note_on_c, 2, 62, 0
4, 216360, Note_on_c, 2, 59, 100
4, 216480, Note_on_c, 2, 59, 0
4, 216480, Note_on_c, 2, 55, 100
4, 216600, Note_on_c, 2, 55, 0
4, 216600, Note_on_c, 2, 59, 100
4, 216720, Note_on_c, 2, 59, 0
4, 216720, Note_on_c, 2, 62, 100
4, 216840, Note_on_c, 2, 62, 0
4, 216840, Note_on_c, 2, 66, 100
4, 216960, Note_on_c, 2, 66, 0
4, 216960, Note_on_c, 2, 64, 100
4, 217200, Note_on_c, 2, 64, 0
4, 217200, Note_on_c, 2, 74, 100
4, 217440, Note_on_c, 2, 74, 0
4, 217440, Note_on_c, 2, 73, 100
4, 217560, Note_on_c, 2, 73, 0
4, 217560, Note_on_c, 2, 71, 100
4, 217680, Note_on_c, 2, 71, 0
4, 217680, Note_on_c, 2, 69, 100
4, 217800, Note_on_c, 2, 69, 0
4, 217800, Note_on_c, 2, 71, 100
4, 217920, Note_on_c, 2, 71, 0
4, 217920, Note_on_c, 2, 73, 100
4, 218040, Note_on_c, 2, 73, 0
4, 218040, Note_on_c, 2, 76, 100
4, 218160, Note_on_c, 2, 76, 0
4, 218160, Note_on_c, 2, 79, 100
4, 218280, Note_on_c, 2, 79, 0
4, 218280, Note_on_c, 2, 83, 100
4, 218400, Note_on_c, 2, 83, 0
4, 218400, Note_on_c, 2, 81, 100
4, 218520, Note_on_c, 2, 81, 0
4, 218520, Note_on_c, 2, 79, 100
4, 218640, Note_on_c, 2, 79, 0
4, 218640, Note_on_c, 2, 78, 100
4, 218760, Note_on_c, 2, 78, 0
4, 218760, Note_on_c, 2, 76, 100
4, 218880, Note_on_c, 2, 76, 0
4, 218880, Note_on_c, 2, 78, 100
4, 219000, Note_on_c, 2, 78, 0
4, 219000, Note_on_c, 2, 81, 100
4, 219120, Note_on_c, 2, 81, 0
4, 219120, Note_on_c, 2, 78, 100
4, 219240, Note_on_c, 2, 78, 0
4, 219240, Note_on_c, 2, 74, 100
4, 219360, Note_on_c, 2, 74, 0
4, 219360, Note_on_c, 2, 69, 100
4, 219480, Note_on_c, 2, 69, 0
4, 219480, Note_on_c, 2, 74, 100
4, 219600, Note_on_c, 2, 74, 0
4, 219600, Note_on_c, 2, 69, 100
4, 219720, Note_on_c, 2, 69, 0
4, 219720, Note_on_c, 2, 66, 100
4, 219840, Note_on_c, 2, 66, 0
4, 219840, Note_on_c, 2, 62, 100
4, 219960, Note_on_c, 2, 62, 0
4, 219960, Note_on_c, 2, 66, 100
4, 220080, Note_on_c, 2, 66, 0
4, 220080, Note_on_c, 2, 64, 100
4, 220200, Note_on_c, 2, 64, 0
4, 220200, Note_on_c, 2, 62, 100
4, 220320, Note_on_c, 2, 62, 0
4, 220320, Note_on_c, 2, 61, 100
4, 220440, Note_on_c, 2, 61, 0
4, 221880, Note_on_c, 2, 80, 100
4, 222000, Note_on_c, 2, 80, 0
4, 222000, Note_on_c, 2, 74, 100
4, 222120, Note_on_c, 2, 74, 0
4, 222120, Note_on_c, 2, 71, 100
4, 222240, Note_on_c, 2, 71, 0
4, 222240, Note_on_c, 2, 68, 100
4, 222360, Note_on_c, 2, 68, 0
4, 222360, Note_on_c, 2, 71, 100
4, 222480, Note_on_c, 2, 71, 0
4, 222480, Note_on_c, 2, 68, 100
4, 222600, Note_on_c, 2, 68, 0
4, 222600, Note_on_c, 2, 64, 100
4, 222720, Note_on_c, 2, 64, 0
4, 222720, Note_on_c, 2, 59, 100
4, 222840, Note_on_c, 2, 59, 0
4, 222840, Note_on_c, 2, 62, 100
4, 222960, Note_on_c, 2, 62, 0
4, 222960, Note_on_c, 2, 61, 100
4, 223080, Note_on_c, 2, 61, 0
4, 223080, Note_on_c, 2, 59, 100
4, 223200, Note_on_c, 2, 59, 0
4, 223200, Note_on_c, 2, 57, 100
4, 223320, Note_on_c, 2, 57, 0
4, 223320, Note_on_c, 2, 59, 100
4, 223440, Note_on_c, 2, 59, 0
4, 223440, Note_on_c, 2, 61, 100
4, 223560, Note_on_c, 2, 61, 0
4, 223560, Note_on_c, 2, 62, 100
4, 223680, Note_on_c, 2, 62, 0
4, 223680, Note_on_c, 2, 64, 100
4, 223800, Note_on_c, 2, 64, 0
4, 223800, Note_on_c, 2, 61, 100
4, 223920, Note_on_c, 2, 61, 0
4, 223920, Note_on_c, 2, 57, 100
4, 224040, Note_on_c, 2, 57, 0
4, 224040, Note_on_c, 2, 61, 100
4, 224160, Note_on_c, 2, 61, 0
4, 224160, Note_on_c, 2, 64, 100
4, 224280, Note_on_c, 2, 64, 0
4, 224280, Note_on_c, 2, 67, 100
4, 224400, Note_on_c, 2, 67, 0
4, 224400, Note_on_c, 2, 66, 100
4, 224520, Note_on_c, 2, 66, 0
4, 224520, Note_on_c, 2, 64, 100
4, 224640, Note_on_c, 2, 64, 0
4, 224640, Note_on_c, 2, 66, 100
4, 224760, Note_on_c, 2, 66, 0
4, 224760, Note_on_c, 2, 62, 100
4, 224880, Note_on_c, 2, 62, 0
4, 224880, Note_on_c, 2, 57, 100
4, 225000, Note_on_c, 2, 57, 0
4, 225000, Note_on_c, 2, 62, 100
4, 225120, Note_on_c, 2, 62, 0
4, 225120, Note_on_c, 2, 66, 100
4, 225240, Note_on_c, 2, 66, 0
4, 225240, Note_on_c, 2, 62, 100
4, 225360, Note_on_c, 2, 62, 0
4, 225360, Note_on_c, 2, 69, 100
4, 225480, Note_on_c, 2, 69, 0
4, 225480, Note_on_c, 2, 66, 100
4, 225600, Note_on_c, 2, 66, 0
4, 225600, Note_on_c, 2, 74, 100
4, 225720, Note_on_c, 2, 74, 0
4, 225720, Note_on_c, 2, 69, 100
4, 225840, Note_on_c, 2, 69, 0
4, 225840, Note_on_c, 2, 78, 100
4, 225960, Note_on_c, 2, 78, 0
4, 225960, Note_on_c, 2, 74, 100
4, 226080, Note_on_c, 2, 74, 0
4, 226080, Note_on_c, 2, 81, 100
4, 226200, Note_on_c, 2, 81, 0
4, 226200, Note_on_c, 2, 76, 100
4, 226320, Note_on_c, 2, 76, 0
4, 226320, Note_on_c, 2, 73, 100
4, 226440, Note_on_c, 2, 73, 0
4, 226440, Note_on_c, 2, 76, 100
4, 226560, Note_on_c, 2, 76, 0
4, 226560, Note_on_c, 2, 81, 100
4, 226680, Note_on_c, 2, 81, 0
4, 226680, Note_on_c, 2, 76, 100
4, 226800, Note_on_c, 2, 76, 0
4, 226800, Note_on_c, 2, 85, 100
4, 226920, Note_on_c, 2, 85, 0
4, 226920, Note_on_c, 2, 81, 100
4, 227040, Note_on_c, 2, 81, 0
4, 227040, Note_on_c, 2, 88, 100
4, 227160, Note_on_c, 2, 88, 0
4, 227160, Note_on_c, 2, 85, 100
4, 227280, Note_on_c, 2, 85, 0
4, 227280, Note_on_c, 2, 90, 100
4, 227400, Note_on_c, 2, 90, 0
4, 227400, Note_on_c, 2, 85, 100
4, 227520, Note_on_c, 2, 85, 0
4, 227520, Note_on_c, 2, 86, 100
4, 227640, Note_on_c, 2, 86, 0
4, 227640, Note_on_c, 2, 90, 100
4, 227760, Note_on_c, 2, 90, 0
4, 227760, Note_on_c, 2, 86, 100
4, 227880, Note_on_c, 2, 86, 0
4, 227880, Note_on_c, 2, 83, 100
4, 228000, Note_on_c, 2, 83, 0
4, 228000, Note_on_c, 2, 78, 100
4, 228120, Note_on_c, 2, 78, 0
4, 228120, Note_on_c, 2, 83, 100
4, 228240, Note_on_c, 2, 83, 0
4, 228240, Note_on_c, 2, 74, 100
4, 228360, Note_on_c, 2, 74, 0
4, 228360, Note_on_c, 2, 78, 100
4, 228480, Note_on_c, 2, 78, 0
4, 228480, Note_on_c, 2, 71, 100
4, 228600, Note_on_c, 2, 71, 0
4, 228600, Note_on_c, 2, 74, 100
4, 228720, Note_on_c, 2, 74, 0
4, 228720, Note_on_c, 2, 73, 100
4, 228840, Note_on_c, 2, 73, 0
4, 228840, Note_on_c, 2, 71, 100
4, 228960, Note_on_c, 2, 71, 0
4, 228960, Note_on_c, 2, 73, 100
4, 229080, Note_on_c, 2, 73, 0
4, 229080, Note_on_c, 2, 76, 100
4, 229200, Note_on_c, 2, 76, 0
4, 229200, Note_on_c, 2, 73, 100
4, 229320, Note_on_c, 2, 73, 0
4, 229320, Note_on_c, 2, 69, 100
4, 229440, Note_on_c, 2, 69, 0
4, 229440, Note_on_c, 2, 64, 100
4, 229560, Note_on_c, 2, 64, 0
4, 229560, Note_on_c, 2, 69, 100
4, 229680, Note_on_c, 2, 69, 0
4, 229680, Note_on_c, 2, 61, 100
4, 229800, Note_on_c, 2, 61, 0
4, 229800, Note_on_c, 2, 64, 100
4, 229920, Note_on_c, 2, 64, 0
4, 229920, Note_on_c, 2, 57, 100
4, 230040, Note_on_c, 2, 57, 0
4, 230040, Note_on_c, 2, 61, 100
4, 230160, Note_on_c, 2, 61, 0
4, 230160, Note_on_c, 2, 64, 100
4, 230280, Note_on_c, 2, 64, 0
4, 230280, Note_on_c, 2, 67, 100
4, 230400, Note_on_c, 2, 67, 0
4, 230400, Note_on_c, 2, 66, 100
4, 230520, Note_on_c, 2, 66, 0
4, 230520, Note_on_c, 2, 62, 100
4, 230640, Note_on_c, 2, 62, 0
4, 232080, Note_on_c, 2, 81, 100
4, 232200, Note_on_c, 2, 81, 0
4, 232200, Note_on_c, 2, 81, 100
4, 232320, Note_on_c, 2, 81, 0
4, 232320, Note_on_c, 2, 81, 100
4, 232440, Note_on_c, 2, 81, 0
4, 232440, Note_on_c, 2, 76, 100
4, 232560, Note_on_c, 2, 76, 0
4, 232560, Note_on_c, 2, 73, 100
4, 232680, Note_on_c, 2, 73, 0
4, 232680, Note_on_c, 2, 69, 100
4, 232800, Note_on_c, 2, 69, 0
4, 232800, Note_on_c, 2, 64, 100
4, 232920, Note_on_c, 2, 64, 0
4, 232920, Note_on_c, 2, 61, 100
4, 233040, Note_on_c, 2, 61, 0
4, 233040, Note_on_c, 2, 57, 100
4, 233160, Note_on_c, 2, 57, 0
4, 233160, Note_on_c, 2, 61, 100
4, 233280, Note_on_c, 2, 61, 0
4, 233280, Note_on_c, 2, 62, 100
4, 233400, Note_on_c, 2, 62, 0
4, 233400, Note_on_c, 2, 59, 100
4, 233520, Note_on_c, 2, 59, 0
4, 234960, Note_on_c, 2, 81, 100
4, 235080, Note_on_c, 2, 81, 0
4, 235080, Note_on_c, 2, 81, 100
4, 235200, Note_on_c, 2, 81, 0
4, 235200, Note_on_c, 2, 81, 100
4, 235320, Note_on_c, 2, 81, 0
4, 235320, Note_on_c, 2, 73, 100
4, 235440, Note_on_c, 2, 73, 0
4, 235440, Note_on_c, 2, 76, 100
4, 235560, Note_on_c, 2, 76, 0
4, 235560, Note_on_c, 2, 76, 100
4, 235680, Note_on_c, 2, 76, 0
4, 235680, Note_on_c, 2, 76, 100
4, 235800, Note_on_c, 2, 76, 0
4, 235800, Note_on_c, 2, 69, 100
4, 235920, Note_on_c, 2, 69, 0
4, 235920, Note_on_c, 2, 73, 100
4, 236040, Note_on_c, 2, 73, 0
4, 236040, Note_on_c, 2, 67, 100
4, 236160, Note_on_c, 2, 67, 0
4, 236160, Note_on_c, 2, 66, 100
4, 236280, Note_on_c, 2, 66, 0
4, 236280, Note_on_c, 2, 62, 100
4, 236400, Note_on_c, 2, 62, 0
4, 236400, Note_on_c, 2, 69, 100
4, 236520, Note_on_c, 2, 69, 0
4, 236520, Note_on_c, 2, 69, 100
4, 236640, Note_on_c, 2, 69, 0
4, 236640, Note_on_c, 2, 69, 100
4, 236760, Note_on_c, 2, 69, 0
4, 237480, Note_on_c, 2, 59, 100
4, 237600, Note_on_c, 2, 59, 0
4, 237600, Note_on_c, 2, 61, 100
4, 237720, Note_on_c, 2, 61, 0
4, 237720, Note_on_c, 2, 64, 100
4, 237840, Note_on_c, 2, 64, 0
4, 237840, Note_on_c, 2, 69, 100
4, 237960, Note_on_c, 2, 69, 0
4, 237960, Note_on_c, 2, 69, 100
4, 238080, Note_on_c, 2, 69, 0
4, 238080, Note_on_c, 2, 69, 100
4, 238200, Note_on_c, 2, 69, 0
4, 238200, Note_on_c, 2, 64, 100
4, 238320, Note_on_c, 2, 64, 0
4, 238320, Note_on_c, 2, 61, 100
4, 238440, Note_on_c, 2, 61, 0
4, 238440, Note_on_c, 2, 64, 100
4, 238560, Note_on_c, 2, 64, 0
4, 238560, Note_on_c, 2, 69, 100
4, 238680, Note_on_c, 2, 69, 0
4, 238680, Note_on_c, 2, 73, 100
4, 238800, Note_on_c, 2, 73, 0
4, 238800, Note_on_c, 2, 76, 100
4, 238920, Note_on_c, 2, 76, 0
4, 239280, Note_on_c, 2, 69, 100
4, 239400, Note_on_c, 2, 69, 0
4, 239400, Note_on_c, 2, 69, 100
4, 239520, Note_on_c, 2, 69, 0
4, 239520, Note_on_c, 2, 69, 100
4, 239640, Note_on_c, 2, 69, 0
4, 240480, Note_on_c, 2, 57, 100
4, 240600, Note_on_c, 2, 57, 0
4, 240600, Note_on_c, 2, 64, 100
4, 240720, Note_on_c, 2, 64, 0
4, 240720, Note_on_c, 2, 69, 100
4, 240840, Note_on_c, 2, 69, 0
4, 240840, Note_on_c, 2, 69, 100
4, 240960, Note_on_c, 2, 69, 0
4, 240960, Note_on_c, 2, 69, 100
4, 241080, Note_on_c, 2, 69, 0
4, 241080, Note_on_c, 2, 64, 100
4, 241200, Note_on_c, 2, 64, 0
4, 241200, Note_on_c, 2, 69, 100
4, 241320, Note_on_c, 2, 69, 0
4, 241320, Note_on_c, 2, 73, 100
4, 241440, Note_on_c, 2, 73, 0
4, 241440, Note_on_c, 2, 76, 100
4, 241560, Note_on_c, 2, 76, 0
4, 241560, Note_on_c, 2, 73, 100
4, 241680, Note_on_c, 2, 73, 0
4, 241680, Note_on_c, 2, 69, 100
4, 241800, Note_on_c, 2, 69, 0
4, 241800, Note_on_c, 2, 67, 100
4, 241920, Note_on_c, 2, 67, 0
4, 241920, Note_on_c, 2, 66, 100
4, 242040, Note_on_c, 2, 66, 0
4, 245640, Note_on_c, 2, 71, 100
4, 245760, Note_on_c, 2, 71, 0
4, 245760, Note_on_c, 2, 71, 100
4, 245880, Note_on_c, 2, 71, 0
4, 245880, Note_on_c, 2, 74, 100
4, 246000, Note_on_c, 2, 74, 0
4, 246000, Note_on_c, 2, 74, 100
4, 246120, Note_on_c, 2, 74, 0
4, 246120, Note_on_c, 2, 74, 100
4, 246240, Note_on_c, 2, 74, 0
4, 246240, Note_on_c, 2, 73, 100
4, 246360, Note_on_c, 2, 73, 0
4, 247800, Note_on_c, 2, 62, 100
4, 247920, Note_on_c, 2, 62, 0
4, 247920, Note_on_c, 2, 62, 100
4, 248040, Note_on_c, 2, 62, 0
4, 248040, Note_on_c, 2, 62, 100
4, 248160, Note_on_c, 2, 62, 0
4, 248160, Note_on_c, 2, 62, 100
4, 248280, Note_on_c, 2, 62, 0
4, 249240, Note_on_c, 2, 62, 100
4, 249360, Note_on_c, 2, 62, 0
4, 249360, Note_on_c, 2, 62, 100
4, 249480, Note_on_c, 2, 62, 0
4, 249480, Note_on_c, 2, 62, 100
4, 249600, Note_on_c, 2, 62, 0
4, 249600, Note_on_c, 2, 62, 100
4, 249720, Note_on_c, 2, 62, 0
4, 250680, Note_on_c, 2, 62, 100
4, 250800, Note_on_c, 2, 62, 0
4, 250800, Note_on_c, 2, 62, 100
4, 250920, Note_on_c, 2, 62, 0
4, 250920, Note_on_c, 2, 62, 100
4, 251040, Note_on_c, 2, 62, 0
4, 251040, Note_on_c, 2, 62, 100
4, 251160, Note_on_c, 2, 62, 0
4, 258480, Note_on_c, 2, 83, 100
4, 258720, Note_on_c, 2, 83, 0
4, 258720, Note_on_c, 2, 81, 100
4, 258960, Note_on_c, 2, 81, 0
4, 258960, Note_on_c, 2, 79, 100
4, 259200, Note_on_c, 2, 79, 0
4, 259200, Note_on_c, 2, 78, 100
4, 259680, Note_on_c, 2, 78, 0
4, 259680, Note_on_c, 2, 78, 100
4, 260400, Note_on_c, 2, 78, 0
4, 260400, Note_on_c, 2, 78, 100
4, 260640, Note_on_c, 2, 78, 0
4, 260640, Note_on_c, 2, 76, 100
4, 261120, Note_on_c, 2, 76, 0
4, 261120, Note_on_c, 2, 76, 100
4, 261840, Note_on_c, 2, 76, 0
4, 261840, Note_on_c, 2, 76, 100
4, 262080, Note_on_c, 2, 76, 0
4, 262080, Note_on_c, 2, 81, 100
4, 262320, Note_on_c, 2, 81, 0
4, 262320, Note_on_c, 2, 78, 100
4, 262560, Note_on_c, 2, 78, 0
4, 262560, Note_on_c, 2, 83, 100
4, 262800, Note_on_c, 2, 83, 0
4, 262800, Note_on_c, 2, 81, 100
4, 263040, Note_on_c, 2, 81, 0
4, 263040, Note_on_c, 2, 79, 100
4, 263280, Note_on_c, 2, 79, 0
4, 263280, Note_on_c, 2, 78, 100
4, 263520, Note_on_c, 2, 78, 0
4, 263520, Note_on_c, 2, 76, 100
4, 263760, Note_on_c, 2, 76, 0
4, 263760, Note_on_c, 2, 74, 100
4, 264000, Note_on_c, 2, 74, 0
4, 264000, Note_on_c, 2, 73, 100
4, 264720, Note_on_c, 2, 73, 0
4, 264720, Note_on_c, 2, 74, 100
4, 264960, Note_on_c, 2, 74, 0
4, 264960, Note_on_c, 2, 74, 100
4, 265440, Note_on_c, 2, 74, 0
4, 265440, Note_on_c, 2, 69, 100
4, 266160, Note_on_c, 2, 69, 0
4, 266160, Note_on_c, 2, 69, 100
4, 266400, Note_on_c, 2, 69, 0
4, 266400, Note_on_c, 2, 69, 100
4, 266880, Note_on_c, 2, 69, 0
4, 266880, Note_on_c, 2, 69, 100
4, 267600, Note_on_c, 2, 69, 0
4, 267600, Note_on_c, 2, 69, 100
4, 267840, Note_on_c, 2, 69, 0
4, 267840, Note_on_c, 2, 71, 100
4, 268320, Note_on_c, 2, 71, 0
4, 268320, Note_on_c, 2, 71, 100
4, 269040, Note_on_c, 2, 71, 0
4, 269040, Note_on_c, 2, 71, 100
4, 269280, Note_on_c, 2, 71, 0
4, 269280, Note_on_c, 2, 73, 100
4, 269520, Note_on_c, 2, 73, 0
4, 269520, Note_on_c, 2, 74, 100
4, 269760, Note_on_c, 2, 74, 0
4, 269760, Note_on_c, 2, 74, 100
4, 270480, Note_on_c, 2, 74, 0
4, 270480, Note_on_c, 2, 73, 100
4, 270720, Note_on_c, 2, 73, 0
4, 270720, Note_on_c, 2, 74, 100
4, 271200, Note_on_c, 2, 74, 0
4, 271200, Note_on_c, 2, 74, 100
4, 271920, Note_on_c, 2, 74, 0
4, 271920, Note_on_c, 2, 74, 100
4, 272160, Note_on_c, 2, 74, 0
4, 272160, Note_on_c, 2, 62, 100
4, 272640, Note_on_c, 2, 62, 0
4, 272640, Note_on_c, 2, 62, 100
4, 273360, Note_on_c, 2, 62, 0
4, 273360, Note_on_c, 2, 62, 100
4, 273600, Note_on_c, 2, 62, 0
4, 273600, Note_on_c, 2, 74, 100
4, 274080, Note_on_c, 2, 74, 0
4, 274080, Note_on_c, 2, 69, 100
4, 274800, Note_on_c, 2, 69, 0
4, 274800, Note_on_c, 2, 69, 100
4, 275040, Note_on_c, 2, 69, 0
4, 275040, Note_on_c, 2, 69, 100
4, 275520, Note_on_c, 2, 69, 0
4, 276960, Note_on_c, 2, 78, 100
4, 277680, Note_on_c, 2, 78, 0
4, 277680, Note_on_c, 2, 78, 100
4, 277920, Note_on_c, 2, 78, 0
4, 277920, Note_on_c, 2, 79, 100
4, 278400, Note_on_c, 2, 79, 0
4, 278400, Note_on_c, 2, 81, 100
4, 279120, Note_on_c, 2, 81, 0
4, 279120, Note_on_c, 2, 81, 100
4, 279360, Note_on_c, 2, 81, 0
4, 279360, Note_on_c, 2, 83, 100
4, 279840, Note_on_c, 2, 83, 0
4, 279840, Note_on_c, 2, 83, 100
4, 280560, Note_on_c, 2, 83, 0
4, 280560, Note_on_c, 2, 83, 100
4, 280800, Note_on_c, 2, 83, 0
4, 280800, Note_on_c, 2, 85, 100
4, 281040, Note_on_c, 2, 85, 0
4, 281040, Note_on_c, 2, 86, 100
4, 281280, Note_on_c, 2, 86, 0
4, 281280, Note_on_c, 2, 86, 100
4, 281760, Note_on_c, 2, 86, 0
4, 281760, Note_on_c, 2, 85, 100
4, 282240, Note_on_c, 2, 85, 0
4, 282240, Note_on_c, 2, 86, 100
4, 282720, Note_on_c, 2, 86, 0
4, 282720, Note_on_c, 2, 86, 100
4, 283440, Note_on_c, 2, 86, 0
4, 283440, Note_on_c, 2, 86, 100
4, 283680, Note_on_c, 2, 86, 0
4, 283680, Note_on_c, 2, 85, 100
4, 284160, Note_on_c, 2, 85, 0
4, 284160, Note_on_c, 2, 84, 100
4, 284880, Note_on_c, 2, 84, 0
4, 284880, Note_on_c, 2, 84, 100
4, 285120, Note_on_c, 2, 84, 0
4, 285120, Note_on_c, 2, 83, 100
4, 285600, Note_on_c, 2, 83, 0
4, 287040, Note_on_c, 2, 57, 100
4, 287760, Note_on_c, 2, 57, 0
4, 287760, Note_on_c, 2, 57, 100
4, 288000, Note_on_c, 2, 57, 0
4, 288480, Note_on_c, 2, 62, 50
4, 288960, Note_on_c, 2, 62, 0
4, 288960, Note_on_c, 2, 61, 50
4, 289440, Note_on_c, 2, 61, 0
4, 289440, Note_on_c, 2, 59, 50
4, 289920, Note_on_c, 2, 59, 0
4, 289920, Note_on_c, 2, 59, 50
4, 290400, Note_on_c, 2, 59, 0
4, 290400, Note_on_c, 2, 57, 50
4, 290880, Note_on_c, 2, 57, 0
4, 290880, Note_on_c, 2, 55, 50
4, 291360, Note_on_c, 2, 55, 0
4, 291360, Note_on_c, 2, 55, 50
4, 291840, Note_on_c, 2, 55, 0
4, 291840, Note_on_c, 2, 55, 50
4, 292320, Note_on_c, 2, 55, 0
4, 292320, Note_on_c, 2, 56, 50
4, 292800, Note_on_c, 2, 56, 0
4, 292800, Note_on_c, 2, 57, 50
4, 293280, Note_on_c, 2, 57, 0
4, 293280, Note_on_c, 2, 57, 50
4, 293760, Note_on_c, 2, 57, 0
4, 293760, Note_on_c, 2, 62, 50
4, 294240, Note_on_c, 2, 62, 0
4, 294240, Note_on_c, 2, 62, 50
4, 294720, Note_on_c, 2, 62, 0
4, 294720, Note_on_c, 2, 62, 50
4, 295200, Note_on_c, 2, 62, 0
4, 295200, Note_on_c, 2, 55, 50
4, 295680, Note_on_c, 2, 55, 0
4, 295680, Note_on_c, 2, 55, 50
4, 296160, Note_on_c, 2, 55, 0
4, 296160, Note_on_c, 2, 56, 50
4, 296640, Note_on_c, 2, 56, 0
4, 296640, Note_on_c, 2, 57, 50
4, 297120, Note_on_c, 2, 57, 0
4, 297120, Note_on_c, 2, 57, 50
4, 297600, Note_on_c, 2, 57, 0
4, 297600, Note_on_c, 2, 58, 50
4, 298080, Note_on_c, 2, 58, 0
4, 298080, Note_on_c, 2, 59, 100
4, 298320, Note_on_c, 2, 59, 0
4, 298320, Note_on_c, 2, 55, 100
4, 298560, Note_on_c, 2, 55, 0
4, 298560, Note_on_c, 2, 57, 100
4, 299520, Note_on_c, 2, 57, 0
4, 299520, Note_on_c, 2, 62, 100
4, 300000, Note_on_c, 2, 62, 0
4, 300000, Note_on_c, 2, 62, 100
4, 300960, Note_on_c, 2, 62, 0
4, 300960, Note_on_c, 2, 64, 100
4, 301320, Note_on_c, 2, 64, 0
4, 302160, Note_on_c, 2, 64, 100
4, 302400, Note_on_c, 2, 64, 0
4, 302400, Note_on_c, 2, 62, 100
4, 302760, Note_on_c, 2, 62, 0
4, 305040, Note_on_c, 2, 64, 100
4, 305280, Note_on_c, 2, 64, 0
4, 305280, Note_on_c, 2, 62, 100
4, 305640, Note_on_c, 2, 62, 0
4, 306720, Note_on_c, 2, 62, 100
4, 307080, Note_on_c, 2, 62, 0
4, 308160, Note_on_c, 2, 65, 100
4, 308520, Note_on_c, 2, 65, 0
4, 309600, Note_on_c, 2, 67, 100
4, 309840, Note_on_c, 2, 67, 0
4, 309840, Note_on_c, 2, 65, 100
4, 310080, Note_on_c, 2, 65, 0
4, 310080, Note_on_c, 2, 64, 100
4, 310440, Note_on_c, 2, 64, 0
4, 328320, Note_on_c, 2, 65, 100
4, 328440, Note_on_c, 2, 65, 0
4, 329760, Note_on_c, 2, 64, 100
4, 329880, Note_on_c, 2, 64, 0
4, 331200, Note_on_c, 2, 62, 100
4, 331320, Note_on_c, 2, 62, 0
4, 332640, Note_on_c, 2, 64, 100
4, 332760, Note_on_c, 2, 64, 0
4, 334080, Note_on_c, 2, 65, 100
4, 334200, Note_on_c, 2, 65, 0
4, 335520, Note_on_c, 2, 64, 100
4, 335640, Note_on_c, 2, 64, 0
4, 336960, Note_on_c, 2, 62, 100
4, 337080, Note_on_c, 2, 62, 0
4, 338400, Note_on_c, 2, 57, 100
4, 338520, Note_on_c, 2, 57, 0
4, 338640, Note_on_c, 2, 59, 100
4, 338760, Note_on_c, 2, 59, 0
4, 338880, Note_on_c, 2, 60, 100
4, 339000, Note_on_c, 2, 60, 0
4, 339120, Note_on_c, 2, 61, 100
4, 339240, Note_on_c, 2, 61, 0
4, 339360, Note_on_c, 2, 62, 100
4, 339480, Note_on_c, 2, 62, 0
4, 339600, Note_on_c, 2, 64, 100
4, 339720, Note_on_c, 2, 64, 0
4, 339840, Note_on_c, 2, 65, 100
4, 339960, Note_on_c, 2, 65, 0
4, 340080, Note_on_c, 2, 62, 100
4, 340200, Note_on_c, 2, 62, 0
4, 340320, Note_on_c, 2, 67, 100
4, 340440, Note_on_c, 2, 67, 0
4, 340560, Note_on_c, 2, 65, 100
4, 340680, Note_on_c, 2, 65, 0
4, 340800, Note_on_c, 2, 64, 100
4, 340920, Note_on_c, 2, 64, 0
4, 341040, Note_on_c, 2, 62, 100
4, 341160, Note_on_c, 2, 62, 0
4, 341280, Note_on_c, 2, 64, 100
4, 341400, Note_on_c, 2, 64, 0
4, 341520, Note_on_c, 2, 60, 100
4, 341640, Note_on_c, 2, 60, 0
4, 341760, Note_on_c, 2, 65, 100
4, 341880, Note_on_c, 2, 65, 0
4, 342000, Note_on_c, 2, 64, 100
4, 342120, Note_on_c, 2, 64, 0
4, 342240, Note_on_c, 2, 62, 100
4, 342360, Note_on_c, 2, 62, 0
4, 342480, Note_on_c, 2, 60, 100
4, 342600, Note_on_c, 2, 60, 0
4, 342720, Note_on_c, 2, 62, 100
4, 342840, Note_on_c, 2, 62, 0
4, 342960, Note_on_c, 2, 59, 100
4, 343080, Note_on_c, 2, 59, 0
4, 343200, Note_on_c, 2, 64, 100
4, 343320, Note_on_c, 2, 64, 0
4, 343440, Note_on_c, 2, 62, 100
4, 343560, Note_on_c, 2, 62, 0
4, 343680, Note_on_c, 2, 61, 100
4, 343800, Note_on_c, 2, 61, 0
4, 343920, Note_on_c, 2, 59, 100
4, 344040, Note_on_c, 2, 59, 0
4, 344160, Note_on_c, 2, 61, 100
4, 344280, Note_on_c, 2, 61, 0
4, 344400, Note_on_c, 2, 61, 100
4, 344520, Note_on_c, 2, 61, 0
4, 344640, Note_on_c, 2, 61, 100
4, 344760, Note_on_c, 2, 61, 0
4, 344880, Note_on_c, 2, 57, 100
4, 345000, Note_on_c, 2, 57, 0
4, 345120, Note_on_c, 2, 59, 100
4, 345240, Note_on_c, 2, 59, 0
4, 345360, Note_on_c, 2, 61, 100
4, 345480, Note_on_c, 2, 61, 0
4, 345600, Note_on_c, 2, 62, 100
4, 345720, Note_on_c, 2, 62, 0
4, 347280, Note_on_c, 2, 60, 100
4, 347360, Note_on_c, 2, 60, 0
4, 347360, Note_on_c, 2, 64, 100
4, 347440, Note_on_c, 2, 64, 0
4, 347440, Note_on_c, 2, 67, 100
4, 347520, Note_on_c, 2, 67, 0
4, 347520, Note_on_c, 2, 64, 100
4, 347600, Note_on_c, 2, 64, 0
4, 347600, Note_on_c, 2, 67, 100
4, 347680, Note_on_c, 2, 67, 0
4, 347680, Note_on_c, 2, 72, 100
4, 347760, Note_on_c, 2, 72, 0
4, 347760, Note_on_c, 2, 67, 100
4, 347840, Note_on_c, 2, 67, 0
4, 347840, Note_on_c, 2, 72, 100
4, 347920, Note_on_c, 2, 72, 0
4, 347920, Note_on_c, 2, 76, 100
4, 348000, Note_on_c, 2, 76, 0
4, 348000, Note_on_c, 2, 69, 100
4, 348080, Note_on_c, 2, 69, 0
4, 348080, Note_on_c, 2, 72, 100
4, 348160, Note_on_c, 2, 72, 0
4, 348160, Note_on_c, 2, 77, 100
4, 348240, Note_on_c, 2, 77, 0
4, 348240, Note_on_c, 2, 65, 100
4, 348320, Note_on_c, 2, 65, 0
4, 348320, Note_on_c, 2, 72, 100
4, 348400, Note_on_c, 2, 72, 0
4, 348400, Note_on_c, 2, 81, 100
4, 348480, Note_on_c, 2, 81, 0
4, 348480, Note_on_c, 2, 62, 100
4, 348560, Note_on_c, 2, 62, 0
4, 348560, Note_on_c, 2, 70, 100
4, 348640, Note_on_c, 2, 70, 0
4, 348640, Note_on_c, 2, 81, 100
4, 348720, Note_on_c, 2, 81, 0
4, 352800, Note_on_c, 2, 60, 100
4, 352880, Note_on_c, 2, 60, 0
4, 352880, Note_on_c, 2, 79, 100
4, 352960, Note_on_c, 2, 79, 0
4, 352960, Note_on_c, 2, 77, 100
4, 353040, Note_on_c, 2, 77, 0
4, 353040, Note_on_c, 2, 76, 100
4, 353120, Note_on_c, 2, 76, 0
4, 353120, Note_on_c, 2, 76, 100
4, 353200, Note_on_c, 2, 76, 0
4, 353200, Note_on_c, 2, 74, 100
4, 353280, Note_on_c, 2, 74, 0
4, 353280, Note_on_c, 2, 72, 100
4, 353360, Note_on_c, 2, 72, 0
4, 353360, Note_on_c, 2, 72, 100
4, 353440, Note_on_c, 2, 72, 0
4, 353440, Note_on_c, 2, 70, 100
4, 353520, Note_on_c, 2, 70, 0
4, 353520, Note_on_c, 2, 69, 100
4, 353600, Note_on_c, 2, 69, 0
4, 353600, Note_on_c, 2, 69, 100
4, 353680, Note_on_c, 2, 69, 0
4, 353680, Note_on_c, 2, 67, 100
4, 353760, Note_on_c, 2, 67, 0
4, 353760, Note_on_c, 2, 65, 100
4, 353840, Note_on_c, 2, 65, 0
4, 353840, Note_on_c, 2, 69, 100
4, 353920, Note_on_c, 2, 69, 0
4, 353920, Note_on_c, 2, 70, 100
4, 354000, Note_on_c, 2, 70, 0
4, 354000, Note_on_c, 2, 72, 100
4, 354080, Note_on_c, 2, 72, 0
4, 354080, Note_on_c, 2, 74, 100
4, 354160, Note_on_c, 2, 74, 0
4, 354160, Note_on_c, 2, 75, 100
4, 354240, Note_on_c, 2, 75, 0
4, 357600, Note_on_c, 2, 65, 100
4, 358560, Note_on_c, 2, 65, 0
4, 358560, Note_on_c, 2, 62, 100
4, 359040, Note_on_c, 2, 62, 0
4, 359040, Note_on_c, 2, 61, 100
4, 360000, Note_on_c, 2, 61, 0
4, 360000, Note_on_c, 2, 62, 100
4, 360480, Note_on_c, 2, 62, 0
4, 360480, Note_on_c, 2, 58, 100
4, 361440, Note_on_c, 2, 58, 0
4, 361440, Note_on_c, 2, 55, 100
4, 361920, Note_on_c, 2, 55, 0
4, 361920, Note_on_c, 2, 57, 100
4, 362400, Note_on_c, 2, 57, 0
4, 362400, Note_on_c, 2, 61, 100
4, 362880, Note_on_c, 2, 61, 0
4, 362880, Note_on_c, 2, 62, 100
4, 363120, Note_on_c, 2, 62, 0
4, 363360, Note_on_c, 2, 62, 100
4, 363840, Note_on_c, 2, 62, 0
4, 363840, Note_on_c, 2, 60, 100
4, 364320, Note_on_c, 2, 60, 0
4, 364320, Note_on_c, 2, 58, 100
4, 364800, Note_on_c, 2, 58, 0
4, 364800, Note_on_c, 2, 57, 100
4, 365280, Note_on_c, 2, 57, 0
4, 365280, Note_on_c, 2, 55, 100
4, 365760, Note_on_c, 2, 55, 0
4, 365760, End_track
5, 0, Start_track
5, 0, MIDI_port, 0
5, 0, Title_t, "Six Sonatas and Partitas for Solo Violin"
5, 0, Program_c, 3, 40
5, 0, Control_c, 3, 7, 100
5, 0, Control_c, 3, 10, 34
5, 480, Note_on_c, 3, 62, 100
5, 1440, Note_on_c, 3, 62, 0
5, 1440, Note_on_c, 3, 62, 100
5, 1920, Note_on_c, 3, 62, 0
5, 1920, Note_on_c, 3, 61, 100
5, 2880, Note_on_c, 3, 61, 0
5, 2880, Note_on_c, 3, 62, 100
5, 3360, Note_on_c, 3, 62, 0
5, 3360, Note_on_c, 3, 58, 100
5, 4320, Note_on_c, 3, 58, 0
5, 4320, Note_on_c, 3, 55, 100
5, 4800, Note_on_c, 3, 55, 0
5, 4800, Note_on_c, 3, 57, 100
5, 5280, Note_on_c, 3, 57, 0
5, 5280, Note_on_c, 3, 61, 100
5, 5760, Note_on_c, 3, 61, 0
5, 5760, Note_on_c, 3, 62, 100
5, 6000, Note_on_c, 3, 62, 0
5, 6240, Note_on_c, 3, 62, 100
5, 7200, Note_on_c, 3, 62, 0
5, 7200, Note_on_c, 3, 62, 100
5, 7680, Note_on_c, 3, 62, 0
5, 7680, Note_on_c, 3, 61, 100
5, 8640, Note_on_c, 3, 61, 0
5, 8640, Note_on_c, 3, 62, 100
5, 9120, Note_on_c, 3, 62, 0
5, 9120, Note_on_c, 3, 58, 100
5, 10080, Note_on_c, 3, 58, 0
5, 10080, Note_on_c, 3, 55, 100
5, 10560, Note_on_c, 3, 55, 0
5, 10560, Note_on_c, 3, 57, 100
5, 10920, Note_on_c, 3, 57, 0
5, 12960, Note_on_c, 3, 76, 100
5, 13200, Note_on_c, 3, 76, 0
5, 13440, Note_on_c, 3, 76, 100
5, 13680, Note_on_c, 3, 76, 0
5, 14400, Note_on_c, 3, 77, 100
5, 14640, Note_on_c, 3, 77, 0
5, 14880, Note_on_c, 3, 74, 100
5, 15240, Note_on_c, 3, 74, 0
5, 15240, Note_on_c, 3, 77, 100
5, 15360, Note_on_c, 3, 77, 0
5, 15360, Note_on_c, 3, 76, 100
5, 15720, Note_on_c, 3, 76, 0
5, 15720, Note_on_c, 3, 74, 100
5, 15840, Note_on_c, 3, 74, 0
5, 17160, Note_on_c, 3, 81, 100
5, 17280, Note_on_c, 3, 81, 0
5, 17280, Note_on_c, 3, 77, 100
5, 17520, Note_on_c, 3, 77, 0
5, 18720, Note_on_c, 3, 76, 100
5, 18960, Note_on_c, 3, 76, 0
5, 19200, Note_on_c, 3, 76, 100
5, 19440, Note_on_c, 3, 76, 0
5, 20160, Note_on_c, 3, 76, 100
5, 20400, Note_on_c, 3, 76, 0
5, 20640, Note_on_c, 3, 74, 100
5, 21000, Note_on_c, 3, 74, 0
5, 21000, Note_on_c, 3, 77, 100
5, 21120, Note_on_c, 3, 77, 0
5, 21120, Note_on_c, 3, 76, 100
5, 21480, Note_on_c, 3, 76, 0
5, 21480, Note_on_c, 3, 73, 100
5, 21600, Note_on_c, 3, 73, 0
5, 21600, Note_on_c, 3, 74, 100
5, 21960, Note_on_c, 3, 74, 0
5, 21960, Note_on_c, 3, 76, 100
5, 22080, Note_on_c, 3, 76, 0
5, 22080, Note_on_c, 3, 74, 100
5, 22560, Note_on_c, 3, 74, 0
5, 22560, Note_on_c, 3, 73, 100
5, 22920, Note_on_c, 3, 73, 0
5, 22920, Note_on_c, 3, 74, 100
5, 23040, Note_on_c, 3, 74, 0
5, 23040, Note_on_c, 3, 74, 100
5, 23400, Note_on_c, 3, 74, 0
5, 23400, Note_on_c, 3, 76, 100
5, 23520, Note_on_c, 3, 76, 0
5, 23520, Note_on_c, 3, 77, 100
5, 23880, Note_on_c, 3, 77, 0
5, 23880, Note_on_c, 3, 79, 100
5, 23940, Note_on_c, 3, 79, 0
5, 23940, Note_on_c, 3, 81, 100
5, 24000, Note_on_c, 3, 81, 0
5, 24000, Note_on_c, 3, 82, 100
5, 24360, Note_on_c, 3, 82, 0
5, 24360, Note_on_c, 3, 77, 100
5, 24480, Note_on_c, 3, 77, 0
5, 24480, Note_on_c, 3, 76, 100
5, 24840, Note_on_c, 3, 76, 0
5, 24840, Note_on_c, 3, 82, 100
5, 24960, Note_on_c, 3, 82, 0
5, 24960, Note_on_c, 3, 81, 100
5, 25320, Note_on_c, 3, 81, 0
5, 25320, Note_on_c, 3, 79, 100
5, 25440, Note_on_c, 3, 79, 0
5, 25440, Note_on_c, 3, 81, 100
5, 25800, Note_on_c, 3, 81, 0
5, 25800, Note_on_c, 3, 78, 100
5, 25920, Note_on_c, 3, 78, 0
5, 25920, Note_on_c, 3, 79, 100
5, 26280, Note_on_c, 3, 79, 0
5, 26280, Note_on_c, 3, 77, 100
5, 26400, Note_on_c, 3, 77, 0
5, 26400, Note_on_c, 3, 76, 100
5, 26760, Note_on_c, 3, 76, 0
5, 26760, Note_on_c, 3, 74, 100
5, 26820, Note_on_c, 3, 74, 0
5, 26820, Note_on_c, 3, 73, 100
5, 26880, Note_on_c, 3, 73, 0
5, 26880, Note_on_c, 3, 74, 100
5, 27240, Note_on_c, 3, 74, 0
5, 27240, Note_on_c, 3, 76, 100
5, 27360, Note_on_c, 3, 76, 0
5, 27360, Note_on_c, 3, 77, 100
5, 27720, Note_on_c, 3, 77, 0
5, 27720, Note_on_c, 3, 79, 100
5, 27840, Note_on_c, 3, 79, 0
5, 27840, Note_on_c, 3, 76, 100
5, 28200, Note_on_c, 3, 76, 0
5, 28200, Note_on_c, 3, 77, 100
5, 28320, Note_on_c, 3, 77, 0
5, 28320, Note_on_c, 3, 79, 100
5, 28680, Note_on_c, 3, 79, 0
5, 28680, Note_on_c, 3, 76, 100
5, 28800, Note_on_c, 3, 76, 0
5, 28800, Note_on_c, 3, 77, 100
5, 29160, Note_on_c, 3, 77, 0
5, 34440, Note_on_c, 3, 57, 100
5, 34560, Note_on_c, 3, 57, 0
5, 34560, Note_on_c, 3, 62, 100
5, 34800, Note_on_c, 3, 62, 0
5, 36000, Note_on_c, 3, 62, 100
5, 36240, Note_on_c, 3, 62, 0
5, 37440, Note_on_c, 3, 62, 100
5, 37680, Note_on_c, 3, 62, 0
5, 40320, Note_on_c, 3, 62, 100
5, 40440, Note_on_c, 3, 62, 0
5, 131040, Note_on_c, 3, 70, 50
5, 131280, Note_on_c, 3, 70, 0
5, 131280, Note_on_c, 3, 69, 50
5, 131520, Note_on_c, 3, 69, 0
5, 131520, Note_on_c, 3, 67, 50
5, 131760, Note_on_c, 3, 67, 0
5, 131760, Note_on_c, 3, 65, 50
5, 132000, Note_on_c, 3, 65, 0
5, 132000, Note_on_c, 3, 64, 50
5, 132240, Note_on_c, 3, 64, 0
5, 132240, Note_on_c, 3, 64, 50
5, 132480, Note_on_c, 3, 64, 0
5, 132480, Note_on_c, 3, 65, 50
5, 133920, Note_on_c, 3, 65, 0
5, 133920, Note_on_c, 3, 66, 50
5, 135360, Note_on_c, 3, 66, 0
5, 135360, Note_on_c, 3, 67, 50
5, 135840, Note_on_c, 3, 67, 0
5, 135840, Note_on_c, 3, 65, 50
5, 136320, Note_on_c, 3, 65, 0
5, 136320, Note_on_c, 3, 64, 50
5, 136800, Note_on_c, 3, 64, 0
5, 136800, Note_on_c, 3, 65, 50
5, 137280, Note_on_c, 3, 65, 0
5, 137280, Note_on_c, 3, 64, 50
5, 137760, Note_on_c, 3, 64, 0
5, 137760, Note_on_c, 3, 67, 50
5, 138240, Note_on_c, 3, 67, 0
5, 138240, Note_on_c, 3, 65, 50
5, 139680, Note_on_c, 3, 65, 0
5, 139680, Note_on_c, 3, 66, 50
5, 141120, Note_on_c, 3, 66, 0
5, 141120, Note_on_c, 3, 67, 50
5, 141600, Note_on_c, 3, 67, 0
5, 141600, Note_on_c, 3, 73, 50
5, 142080, Note_on_c, 3, 73, 0
5, 142080, Note_on_c, 3, 74, 50
5, 142560, Note_on_c, 3, 74, 0
5, 142560, Note_on_c, 3, 74, 50
5, 143040, Note_on_c, 3, 74, 0
5, 143040, Note_on_c, 3, 76, 50
5, 144000, Note_on_c, 3, 76, 0
5, 144000, Note_on_c, 3, 77, 50
5, 145440, Note_on_c, 3, 77, 0
5, 145440, Note_on_c, 3, 78, 50
5, 146880, Note_on_c, 3, 78, 0
5, 147840, Note_on_c, 3, 69, 50
5, 148320, Note_on_c, 3, 69, 0
5, 148320, Note_on_c, 3, 69, 50
5, 148800, Note_on_c, 3, 69, 0
5, 150720, Note_on_c, 3, 69, 50
5, 151200, Note_on_c, 3, 69, 0
5, 151200, Note_on_c, 3, 67, 50
5, 152160, Note_on_c, 3, 67, 0
5, 152160, Note_on_c, 3, 65, 50
5, 152640, Note_on_c, 3, 65, 0
5, 152640, Note_on_c, 3, 65, 50
5, 153600, Note_on_c, 3, 65, 0
5, 153600, Note_on_c, 3, 67, 50
5, 154080, Note_on_c, 3, 67, 0
5, 154080, Note_on_c, 3, 69, 50
5, 154560, Note_on_c, 3, 69, 0
5, 154560, Note_on_c, 3, 64, 50
5, 155520, Note_on_c, 3, 64, 0
5, 156000, Note_on_c, 3, 69, 50
5, 156480, Note_on_c, 3, 69, 0
5, 167520, Note_on_c, 3, 57, 50
5, 168000, Note_on_c, 3, 57, 0
5, 168000, Note_on_c, 3, 59, 50
5, 168480, Note_on_c, 3, 59, 0
5, 168480, Note_on_c, 3, 60, 50
5, 168960, Note_on_c, 3, 60, 0
5, 168960, Note_on_c, 3, 55, 50
5, 169440, Note_on_c, 3, 55, 0
5, 169440, Note_on_c, 3, 57, 50
5, 169920, Note_on_c, 3, 57, 0
5, 169920, Note_on_c, 3, 58, 50
5, 170400, Note_on_c, 3, 58, 0
5, 170400, Note_on_c, 3, 58, 50
5, 170880, Note_on_c, 3, 58, 0
5, 170880, Note_on_c, 3, 57, 50
5, 171360, Note_on_c, 3, 57, 0
5, 171360, Note_on_c, 3, 56, 50
5, 171840, Note_on_c, 3, 56, 0
5, 171840, Note_on_c, 3, 57, 50
5, 172800, Note_on_c, 3, 57, 0
5, 180000, Note_on_c, 3, 62, 100
5, 180480, Note_on_c, 3, 62, 0
5, 180480, Note_on_c, 3, 61, 100
5, 181440, Note_on_c, 3, 61, 0
5, 181440, Note_on_c, 3, 62, 100
5, 181920, Note_on_c, 3, 62, 0
5, 181920, Note_on_c, 3, 58, 100
5, 182880, Note_on_c, 3, 58, 0
5, 182880, Note_on_c, 3, 55, 100
5, 183360, Note_on_c, 3, 55, 0
5, 183360, Note_on_c, 3, 57, 100
5, 183840, Note_on_c, 3, 57, 0
5, 183840, Note_on_c, 3, 57, 100
5, 184320, Note_on_c, 3, 57, 0
5, 184320, Note_on_c, 3, 62, 100
5, 184800, Note_on_c, 3, 62, 0
5, 184800, Note_on_c, 3, 62, 100
5, 185280, Note_on_c, 3, 62, 0
5, 185280, Note_on_c, 3, 60, 100
5, 185520, Note_on_c, 3, 60, 0
5, 185760, Note_on_c, 3, 59, 100
5, 186240, Note_on_c, 3, 59, 0
5, 186240, Note_on_c, 3, 60, 100
5, 186720, Note_on_c, 3, 60, 0
5, 186720, Note_on_c, 3, 58, 100
5, 186960, Note_on_c, 3, 58, 0
5, 187200, Note_on_c, 3, 57, 100
5, 187680, Note_on_c, 3, 57, 0
5, 187680, Note_on_c, 3, 58, 100
5, 188160, Note_on_c, 3, 58, 0
5, 188160, Note_on_c, 3, 57, 100
5, 188400, Note_on_c, 3, 57, 0
5, 188640, Note_on_c, 3, 56, 100
5, 188880, Note_on_c, 3, 56, 0
5, 189120, Note_on_c, 3, 57, 100
5, 190080, Note_on_c, 3, 57, 0
5, 195840, Note_on_c, 3, 66, 100
5, 196320, Note_on_c, 3, 66, 0
5, 196320, Note_on_c, 3, 66, 100
5, 197040, Note_on_c, 3, 66, 0
5, 204960, Note_on_c, 3, 71, 100
5, 205680, Note_on_c, 3, 71, 0
5, 214320, Note_on_c, 3, 71, 100
5, 214560, Note_on_c, 3, 71, 0
5, 214560, Note_on_c, 3, 73, 100
5, 214800, Note_on_c, 3, 73, 0
5, 215760, Note_on_c, 3, 73, 100
5, 216000, Note_on_c, 3, 73, 0
5, 217200, Note_on_c, 3, 56, 100
5, 217440, Note_on_c, 3, 56, 0
5, 217440, Note_on_c, 3, 57, 100
5, 217560, Note_on_c, 3, 57, 0
5, 242760, Note_on_c, 3, 74, 100
5, 242880, Note_on_c, 3, 74, 0
5, 242880, Note_on_c, 3, 74, 100
5, 243000, Note_on_c, 3, 74, 0
5, 243000, Note_on_c, 3, 69, 100
5, 243120, Note_on_c, 3, 69, 0
5, 243120, Note_on_c, 3, 69, 100
5, 243240, Note_on_c, 3, 69, 0
5, 243240, Note_on_c, 3, 74, 100
5, 243360, Note_on_c, 3, 74, 0
5, 243360, Note_on_c, 3, 73, 100
5, 243480, Note_on_c, 3, 73, 0
5, 244200, Note_on_c, 3, 73, 100
5, 244320, Note_on_c, 3, 73, 0
5, 244320, Note_on_c, 3, 73, 100
5, 244440, Note_on_c, 3, 73, 0
5, 244440, Note_on_c, 3, 69, 100
5, 244560, Note_on_c, 3, 69, 0
5, 244560, Note_on_c, 3, 69, 100
5, 244680, Note_on_c, 3, 69, 0
5, 244680, Note_on_c, 3, 73, 100
5, 244800, Note_on_c, 3, 73, 0
5, 244800, Note_on_c, 3, 68, 100
5, 244920, Note_on_c, 3, 68, 0
5, 246840, Note_on_c, 3, 69, 100
5, 246960, Note_on_c, 3, 69, 0
5, 246960, Note_on_c, 3, 69, 100
5, 247080, Note_on_c, 3, 69, 0
5, 247080, Note_on_c, 3, 69, 100
5, 247200, Note_on_c, 3, 69, 0
5, 247200, Note_on_c, 3, 71, 100
5, 247320, Note_on_c, 3, 71, 0
5, 247320, Note_on_c, 3, 71, 100
5, 247440, Note_on_c, 3, 71, 0
5, 247440, Note_on_c, 3, 73, 100
5, 247560, Note_on_c, 3, 73, 0
5, 247560, Note_on_c, 3, 73, 100
5, 247680, Note_on_c, 3, 73, 0
5, 247680, Note_on_c, 3, 74, 100
5, 247800, Note_on_c, 3, 74, 0
5, 248280, Note_on_c, 3, 69, 100
5, 248400, Note_on_c, 3, 69, 0
5, 248400, Note_on_c, 3, 69, 100
5, 248520, Note_on_c, 3, 69, 0
5, 248520, Note_on_c, 3, 69, 100
5, 248640, Note_on_c, 3, 69, 0
5, 248640, Note_on_c, 3, 69, 100
5, 248760, Note_on_c, 3, 69, 0
5, 248760, Note_on_c, 3, 67, 100
5, 248880, Note_on_c, 3, 67, 0
5, 248880, Note_on_c, 3, 67, 100
5, 249000, Note_on_c, 3, 67, 0
5, 249000, Note_on_c, 3, 67, 100
5, 249120, Note_on_c, 3, 67, 0
5, 249120, Note_on_c, 3, 66, 100
5, 249240, Note_on_c, 3, 66, 0
5, 249240, Note_on_c, 3, 62, 100
5, 249360, Note_on_c, 3, 62, 0
5, 249360, Note_on_c, 3, 62, 100
5, 249480, Note_on_c, 3, 62, 0
5, 249480, Note_on_c, 3, 62, 100
5, 249600, Note_on_c, 3, 62, 0
5, 249600, Note_on_c, 3, 62, 100
5, 249720, Note_on_c, 3, 62, 0
5, 250680, Note_on_c, 3, 62, 100
5, 250800, Note_on_c, 3, 62, 0
5, 250800, Note_on_c, 3, 62, 100
5, 250920, Note_on_c, 3, 62, 0
5, 250920, Note_on_c, 3, 62, 100
5, 251040, Note_on_c, 3, 62, 0
5, 251040, Note_on_c, 3, 62, 100
5, 251160, Note_on_c, 3, 62, 0
5, 252600, Note_on_c, 3, 66, 100
5, 252720, Note_on_c, 3, 66, 0
5, 252720, Note_on_c, 3, 66, 100
5, 252840, Note_on_c, 3, 66, 0
5, 252840, Note_on_c, 3, 66, 100
5, 252960, Note_on_c, 3, 66, 0
5, 252960, Note_on_c, 3, 67, 100
5, 253080, Note_on_c, 3, 67, 0
5, 253080, Note_on_c, 3, 69, 100
5, 253200, Note_on_c, 3, 69, 0
5, 253200, Note_on_c, 3, 69, 100
5, 253320, Note_on_c, 3, 69, 0
5, 253320, Note_on_c, 3, 69, 100
5, 253440, Note_on_c, 3, 69, 0
5, 253440, Note_on_c, 3, 62, 100
5, 253920, Note_on_c, 3, 62, 0
5, 262560, Note_on_c, 3, 55, 100
5, 262800, Note_on_c, 3, 55, 0
5, 264000, Note_on_c, 3, 57, 100
5, 264960, Note_on_c, 3, 57, 0
5, 264960, Note_on_c, 3, 57, 100
5, 265440, Note_on_c, 3, 57, 0
5, 265440, Note_on_c, 3, 62, 100
5, 266160, Note_on_c, 3, 62, 0
5, 266160, Note_on_c, 3, 62, 100
5, 266400, Note_on_c, 3, 62, 0
5, 266400, Note_on_c, 3, 60, 100
5, 266880, Note_on_c, 3, 60, 0
5, 266880, Note_on_c, 3, 60, 100
5, 267840, Note_on_c, 3, 60, 0
5, 267840, Note_on_c, 3, 59, 100
5, 268320, Note_on_c, 3, 59, 0
5, 268320, Note_on_c, 3, 64, 100
5, 269280, Note_on_c, 3, 64, 0
5, 269280, Note_on_c, 3, 57, 100
5, 269760, Note_on_c, 3, 57, 0
5, 271200, Note_on_c, 3, 69, 100
5, 271920, Note_on_c, 3, 69, 0
5, 271920, Note_on_c, 3, 69, 100
5, 272160, Note_on_c, 3, 69, 0
5, 272160, Note_on_c, 3, 69, 100
5, 272640, Note_on_c, 3, 69, 0
5, 272640, Note_on_c, 3, 69, 100
5, 273360, Note_on_c, 3, 69, 0
5, 273360, Note_on_c, 3, 69, 100
5, 273600, Note_on_c, 3, 69, 0
5, 273600, Note_on_c, 3, 67, 100
5, 274080, Note_on_c, 3, 67, 0
5, 274080, Note_on_c, 3, 67, 100
5, 274800, Note_on_c, 3, 67, 0
5, 274800, Note_on_c, 3, 67, 100
5, 275040, Note_on_c, 3, 67, 0
5, 275040, Note_on_c, 3, 66, 100
5, 275520, Note_on_c, 3, 66, 0
5, 275520, Note_on_c, 3, 64, 100
5, 275760, Note_on_c, 3, 64, 0
5, 275760, Note_on_c, 3, 66, 100
5, 276000, Note_on_c, 3, 66, 0
5, 276000, Note_on_c, 3, 67, 100
5, 276480, Note_on_c, 3, 67, 0
5, 276480, Note_on_c, 3, 66, 100
5, 276720, Note_on_c, 3, 66, 0
5, 276720, Note_on_c, 3, 64, 100
5, 276960, Note_on_c, 3, 64, 0
5, 276960, Note_on_c, 3, 62, 100
5, 277680, Note_on_c, 3, 62, 0
5, 277680, Note_on_c, 3, 62, 100
5, 277920, Note_on_c, 3, 62, 0
5, 277920, Note_on_c, 3, 64, 100
5, 278400, Note_on_c, 3, 64, 0
5, 278400, Note_on_c, 3, 66, 100
5, 279120, Note_on_c, 3, 66, 0
5, 279120, Note_on_c, 3, 66, 100
5, 279360, Note_on_c, 3, 66, 0
5, 279360, Note_on_c, 3, 67, 100
5, 279840, Note_on_c, 3, 67, 0
5, 279840, Note_on_c, 3, 68, 100
5, 280560, Note_on_c, 3, 68, 0
5, 280560, Note_on_c, 3, 68, 100
5, 280800, Note_on_c, 3, 68, 0
5, 280800, Note_on_c, 3, 69, 100
5, 281280, Note_on_c, 3, 69, 0
5, 281280, Note_on_c, 3, 69, 100
5, 282240, Note_on_c, 3, 69, 0
5, 285120, Note_on_c, 3, 67, 100
5, 285600, Note_on_c, 3, 67, 0
5, 285600, Note_on_c, 3, 68, 100
5, 286320, Note_on_c, 3, 68, 0
5, 286320, Note_on_c, 3, 68, 100
5, 286560, Note_on_c, 3, 68, 0
5, 286560, Note_on_c, 3, 69, 100
5, 287040, Note_on_c, 3, 69, 0
5, 287040, Note_on_c, 3, 64, 100
5, 287760, Note_on_c, 3, 64, 0
5, 287760, Note_on_c, 3, 64, 100
5, 288000, Note_on_c, 3, 64, 0
5, 288000, Note_on_c, 3, 62, 100
5, 288480, Note_on_c, 3, 62, 0
5, 288480, Note_on_c, 3, 62, 50
5, 288960, Note_on_c, 3, 62, 0
5, 288960, Note_on_c, 3, 62, 50
5, 289440, Note_on_c, 3, 62, 0
5, 289440, Note_on_c, 3, 62, 50
5, 289920, Note_on_c, 3, 62, 0
5, 289920, Note_on_c, 3, 62, 50
5, 290400, Note_on_c, 3, 62, 0
5, 290400, Note_on_c, 3, 62, 50
5, 290880, Note_on_c, 3, 62, 0
5, 290880, Note_on_c, 3, 62, 50
5, 291360, Note_on_c, 3, 62, 0
5, 291360, Note_on_c, 3, 64, 50
5, 291840, Note_on_c, 3, 64, 0
5, 291840, Note_on_c, 3, 64, 50
5, 292320, Note_on_c, 3, 64, 0
5, 292320, Note_on_c, 3, 64, 50
5, 292800, Note_on_c, 3, 64, 0
5, 292800, Note_on_c, 3, 64, 50
5, 293280, Note_on_c, 3, 64, 0
5, 293280, Note_on_c, 3, 64, 50
5, 293760, Note_on_c, 3, 64, 0
5, 293760, Note_on_c, 3, 62, 50
5, 294240, Note_on_c, 3, 62, 0
5, 294240, Note_on_c, 3, 62, 50
5, 294720, Note_on_c, 3, 62, 0
5, 294720, Note_on_c, 3, 62, 50
5, 295200, Note_on_c, 3, 62, 0
5, 295200, Note_on_c, 3, 62, 50
5, 295680, Note_on_c, 3, 62, 0
5, 295680, Note_on_c, 3, 64, 50
5, 296160, Note_on_c, 3, 64, 0
5, 296160, Note_on_c, 3, 64, 50
5, 296640, Note_on_c, 3, 64, 0
5, 296640, Note_on_c, 3, 64, 50
5, 297120, Note_on_c, 3, 64, 0
5, 297120, Note_on_c, 3, 64, 50
5, 297360, Note_on_c, 3, 64, 0
5, 297360, Note_on_c, 3, 66, 50
5, 297600, Note_on_c, 3, 66, 0
5, 297600, Note_on_c, 3, 67, 50
5, 298080, Note_on_c, 3, 67, 0
5, 298080, Note_on_c, 3, 66, 100
5, 298320, Note_on_c, 3, 66, 0
5, 298320, Note_on_c, 3, 64, 100
5, 298560, Note_on_c, 3, 64, 0
5, 298560, Note_on_c, 3, 64, 100
5, 299520, Note_on_c, 3, 64, 0
5, 300000, Note_on_c, 3, 65, 100
5, 300960, Note_on_c, 3, 65, 0
5, 300960, Note_on_c, 3, 60, 100
5, 301320, Note_on_c, 3, 60, 0
5, 302160, Note_on_c, 3, 60, 100
5, 302400, Note_on_c, 3, 60, 0
5, 302400, Note_on_c, 3, 58, 100
5, 302760, Note_on_c, 3, 58, 0
5, 303600, Note_on_c, 3, 58, 100
5, 303840, Note_on_c, 3, 58, 0
5, 303840, Note_on_c, 3, 57, 100
5, 304200, Note_on_c, 3, 57, 0
5, 305040, Note_on_c, 3, 61, 100
5, 305280, Note_on_c, 3, 61, 0
5, 306720, Note_on_c, 3, 55, 100
5, 307080, Note_on_c, 3, 55, 0
5, 345840, Note_on_c, 3, 62, 100
5, 345920, Note_on_c, 3, 62, 0
5, 345920, Note_on_c, 3, 65, 100
5, 346000, Note_on_c, 3, 65, 0
5, 346000, Note_on_c, 3, 69, 100
5, 346080, Note_on_c, 3, 69, 0
5, 346080, Note_on_c, 3, 65, 100
5, 346160, Note_on_c, 3, 65, 0
5, 346160, Note_on_c, 3, 69, 100
5, 346240, Note_on_c, 3, 69, 0
5, 346240, Note_on_c, 3, 74, 100
5, 346320, Note_on_c, 3, 74, 0
5, 346320, Note_on_c, 3, 69, 100
5, 346400, Note_on_c, 3, 69, 0
5, 346400, Note_on_c, 3, 74, 100
5, 346480, Note_on_c, 3, 74, 0
5, 346480, Note_on_c, 3, 77, 100
5, 346560, Note_on_c, 3, 77, 0
5, 346560, Note_on_c, 3, 70, 100
5, 346640, Note_on_c, 3, 70, 0
5, 346640, Note_on_c, 3, 74, 100
5, 346720, Note_on_c, 3, 74, 0
5, 346720, Note_on_c, 3, 79, 100
5, 346800, Note_on_c, 3, 79, 0
5, 346800, Note_on_c, 3, 67, 100
5, 346880, Note_on_c, 3, 67, 0
5, 346880, Note_on_c, 3, 74, 100
5, 346960, Note_on_c, 3, 74, 0
5, 346960, Note_on_c, 3, 82, 100
5, 347040, Note_on_c, 3, 82, 0
5, 347040, Note_on_c, 3, 64, 100
5, 347120, Note_on_c, 3, 64, 0
5, 347120, Note_on_c, 3, 72, 100
5, 347200, Note_on_c, 3, 72, 0
5, 347200, Note_on_c, 3, 82, 100
5, 347280, Note_on_c, 3, 82, 0
5, 351360, Note_on_c, 3, 62, 100
5, 351440, Note_on_c, 3, 62, 0
5, 351440, Note_on_c, 3, 81, 100
5, 351520, Note_on_c, 3, 81, 0
5, 351520, Note_on_c, 3, 79, 100
5, 351600, Note_on_c, 3, 79, 0
5, 351600, Note_on_c, 3, 77, 100
5, 351680, Note_on_c, 3, 77, 0
5, 351680, Note_on_c, 3, 77, 100
5, 351760, Note_on_c, 3, 77, 0
5, 351760, Note_on_c, 3, 76, 100
5, 351840, Note_on_c, 3, 76, 0
5, 351840, Note_on_c, 3, 74, 100
5, 351920, Note_on_c, 3, 74, 0
5, 351920, Note_on_c, 3, 74, 100
5, 352000, Note_on_c, 3, 74, 0
5, 352000, Note_on_c, 3, 72, 100
5, 352080, Note_on_c, 3, 72, 0
5, 352080, Note_on_c, 3, 70, 100
5, 352160, Note_on_c, 3, 70, 0
5, 352160, Note_on_c, 3, 70, 100
5, 352240, Note_on_c, 3, 70, 0
5, 352240, Note_on_c, 3, 69, 100
5, 352320, Note_on_c, 3, 69, 0
5, 352320, Note_on_c, 3, 67, 100
5, 352400, Note_on_c, 3, 67, 0
5, 352400, Note_on_c, 3, 70, 100
5, 352480, Note_on_c, 3, 70, 0
5, 352480, Note_on_c, 3, 72, 100
5, 352560, Note_on_c, 3, 72, 0
5, 352560, Note_on_c, 3, 74, 100
5, 352640, Note_on_c, 3, 74, 0
5, 352640, Note_on_c, 3, 76, 100
5, 352720, Note_on_c, 3, 76, 0
5, 352720, Note_on_c, 3, 77, 100
5, 352800, Note_on_c, 3, 77, 0
5, 357600, Note_on_c, 3, 62, 100
5, 358560, Note_on_c, 3, 62, 0
5, 358560, Note_on_c, 3, 67, 100
5, 359040, Note_on_c, 3, 67, 0
5, 359040, Note_on_c, 3, 67, 100
5, 360000, Note_on_c, 3, 67, 0
5, 360000, Note_on_c, 3, 65, 100
5, 360480, Note_on_c, 3, 65, 0
5, 363360, Note_on_c, 3, 65, 100
5, 363840, Note_on_c, 3, 65, 0
5, 363840, Note_on_c, 3, 66, 100
5, 364320, Note_on_c, 3, 66, 0
5, 364320, Note_on_c, 3, 67, 100
5, 364800, Note_on_c, 3, 67, 0
5, 364800, Note_on_c, 3, 66, 100
5, 365280, Note_on_c, 3, 66, 0
5, 365280, Note_on_c, 3, 67, 100
5, 365760, Note_on_c, 3, 67, 0
5, 366720, Note_on_c, 3, 62, 100
5, 367200, Note_on_c, 3, 62, 0
5, 367200, Note_on_c, 3, 55, 100
5, 367680, Note_on_c, 3, 55, 0
5, 367680, Note_on_c, 3, 57, 100
5, 368640, Note_on_c, 3, 57, 0
5, 368640, Note_on_c, 3, 62, 100
5, 370080, Note_on_c, 3, 62, 0
5, 370080, End_track
6, 0, Start_track
6, 0, MIDI_port, 0
6, 0, Title_t, "--------------------------------------"
6, 0, Program_c, 4, 40
6, 0, Control_c, 4, 7, 100
6, 0, Control_c, 4, 10, 64
6, 126720, Note_on_c, 4, 65, 100
6, 126780, Note_on_c, 4, 65, 0
6, 126780, Note_on_c, 4, 62, 100
6, 126840, Note_on_c, 4, 62, 0
6, 126840, Note_on_c, 4, 81, 100
6, 126900, Note_on_c, 4, 81, 0
6, 126900, Note_on_c, 4, 62, 100
6, 126960, Note_on_c, 4, 62, 0
6, 126960, Note_on_c, 4, 65, 100
6, 127020, Note_on_c, 4, 65, 0
6, 127020, Note_on_c, 4, 62, 100
6, 127080, Note_on_c, 4, 62, 0
6, 127080, Note_on_c, 4, 81, 100
6, 127140, Note_on_c, 4, 81, 0
6, 127140, Note_on_c, 4, 62, 100
6, 127200, Note_on_c, 4, 62, 0
6, 127200, Note_on_c, 4, 65, 100
6, 127260, Note_on_c, 4, 65, 0
6, 127260, Note_on_c, 4, 62, 100
6, 127320, Note_on_c, 4, 62, 0
6, 127320, Note_on_c, 4, 81, 100
6, 127380, Note_on_c, 4, 81, 0
6, 127380, Note_on_c, 4, 62, 100
6, 127440, Note_on_c, 4, 62, 0
6, 127440, Note_on_c, 4, 65, 100
6, 127500, Note_on_c, 4, 65, 0
6, 127500, Note_on_c, 4, 62, 100
6, 127560, Note_on_c, 4, 62, 0
6, 127560, Note_on_c, 4, 81, 100
6, 127620, Note_on_c, 4, 81, 0
6, 127620, Note_on_c, 4, 62, 100
6, 127680, Note_on_c, 4, 62, 0
6, 127680, Note_on_c, 4, 65, 100
6, 127740, Note_on_c, 4, 65, 0
6, 127740, Note_on_c, 4, 62, 100
6, 127800, Note_on_c, 4, 62, 0
6, 127800, Note_on_c, 4, 81, 100
6, 127860, Note_on_c, 4, 81, 0
6, 127860, Note_on_c, 4, 62, 100
6, 127920, Note_on_c, 4, 62, 0
6, 127920, Note_on_c, 4, 65, 100
6, 127980, Note_on_c, 4, 65, 0
6, 127980, Note_on_c, 4, 62, 100
6, 128040, Note_on_c, 4, 62, 0
6, 128040, Note_on_c, 4, 81, 100
6, 128100, Note_on_c, 4, 81, 0
6, 128100, Note_on_c, 4, 62, 100
6, 128160, Note_on_c, 4, 62, 0
6, 128160, Note_on_c, 4, 64, 100
6, 128220, Note_on_c, 4, 64, 0
6, 128220, Note_on_c, 4, 62, 100
6, 128280, Note_on_c, 4, 62, 0
6, 128280, Note_on_c, 4, 79, 100
6, 128340, Note_on_c, 4, 79, 0
6, 128340, Note_on_c, 4, 62, 100
6, 128400, Note_on_c, 4, 62, 0
6, 128400, Note_on_c, 4, 64, 100
6, 128460, Note_on_c, 4, 64, 0
6, 128460, Note_on_c, 4, 62, 100
6, 128520, Note_on_c, 4, 62, 0
6, 128520, Note_on_c, 4, 79, 100
6, 128580, Note_on_c, 4, 79, 0
6, 128580, Note_on_c, 4, 62, 100
6, 128640, Note_on_c, 4, 62, 0
6, 128640, Note_on_c, 4, 64, 100
6, 128700, Note_on_c, 4, 64, 0
6, 128700, Note_on_c, 4, 62, 100
6, 128760, Note_on_c, 4, 62, 0
6, 128760, Note_on_c, 4, 79, 100
6, 128820, Note_on_c, 4, 79, 0
6, 128820, Note_on_c, 4, 62, 100
6, 128880, Note_on_c, 4, 62, 0
6, 128880, Note_on_c, 4, 64, 100
6, 128940, Note_on_c, 4, 64, 0
6, 128940, Note_on_c, 4, 62, 100
6, 129000, Note_on_c, 4, 62, 0
6, 129000, Note_on_c, 4, 79, 100
6, 129060, Note_on_c, 4, 79, 0
6, 129060, Note_on_c, 4, 62, 100
6, 129120, Note_on_c, 4, 62, 0
6, 129120, Note_on_c, 4, 64, 100
6, 129180, Note_on_c, 4, 64, 0
6, 129180, Note_on_c, 4, 73, 100
6, 129240, Note_on_c, 4, 73, 0
6, 129240, Note_on_c, 4, 79, 100
6, 129300, Note_on_c, 4, 79, 0
6, 129300, Note_on_c, 4, 73, 100
6, 129360, Note_on_c, 4, 73, 0
6, 129360, Note_on_c, 4, 64, 100
6, 129420, Note_on_c, 4, 64, 0
6, 129420, Note_on_c, 4, 73, 100
6, 129480, Note_on_c, 4, 73, 0
6, 129480, Note_on_c, 4, 79, 100
6, 129540, Note_on_c, 4, 79, 0
6, 129540, Note_on_c, 4, 73, 100
6, 129600, Note_on_c, 4, 73, 0
6, 129600, Note_on_c, 4, 62, 100
6, 129660, Note_on_c, 4, 62, 0
6, 129660, Note_on_c, 4, 62, 100
6, 129720, Note_on_c, 4, 62, 0
6, 129720, Note_on_c, 4, 77, 100
6, 129780, Note_on_c, 4, 77, 0
6, 129780, Note_on_c, 4, 62, 100
6, 129840, Note_on_c, 4, 62, 0
6, 129840, Note_on_c, 4, 62, 100
6, 129900, Note_on_c, 4, 62, 0
6, 129900, Note_on_c, 4, 62, 100
6, 129960, Note_on_c, 4, 62, 0
6, 129960, Note_on_c, 4, 77, 100
6, 130020, Note_on_c, 4, 77, 0
6, 130020, Note_on_c, 4, 62, 100
6, 130080, Note_on_c, 4, 62, 0
6, 130080, Note_on_c, 4, 62, 100
6, 130140, Note_on_c, 4, 62, 0
6, 130140, Note_on_c, 4, 62, 100
6, 130200, Note_on_c, 4, 62, 0
6, 130200, Note_on_c, 4, 77, 100
6, 130260, Note_on_c, 4, 77, 0
6, 130260, Note_on_c, 4, 62, 100
6, 130320, Note_on_c, 4, 62, 0
6, 130320, Note_on_c, 4, 62, 100
6, 130380, Note_on_c, 4, 62, 0
6, 130380, Note_on_c, 4, 62, 100
6, 130440, Note_on_c, 4, 62, 0
6, 130440, Note_on_c, 4, 77, 100
6, 130500, Note_on_c, 4, 77, 0
6, 130500, Note_on_c, 4, 62, 100
6, 130560, Note_on_c, 4, 62, 0
6, 130560, Note_on_c, 4, 62, 100
6, 130620, Note_on_c, 4, 62, 0
6, 130620, Note_on_c, 4, 69, 100
6, 130680, Note_on_c, 4, 69, 0
6, 130680, Note_on_c, 4, 77, 100
6, 130740, Note_on_c, 4, 77, 0
6, 130740, Note_on_c, 4, 69, 100
6, 130800, Note_on_c, 4, 69, 0
6, 130800, Note_on_c, 4, 62, 100
6, 130860, Note_on_c, 4, 62, 0
6, 130860, Note_on_c, 4, 69, 100
6, 130920, Note_on_c, 4, 69, 0
6, 130920, Note_on_c, 4, 77, 100
6, 130980, Note_on_c, 4, 77, 0
6, 130980, Note_on_c, 4, 69, 100
6, 131040, Note_on_c, 4, 69, 0
6, 131040, Note_on_c, 4, 55, 100
6, 131100, Note_on_c, 4, 55, 0
6, 131100, Note_on_c, 4, 70, 100
6, 131160, Note_on_c, 4, 70, 0
6, 131160, Note_on_c, 4, 76, 100
6, 131220, Note_on_c, 4, 76, 0
6, 131220, Note_on_c, 4, 70, 100
6, 131280, Note_on_c, 4, 70, 0
6, 131280, Note_on_c, 4, 55, 100
6, 131340, Note_on_c, 4, 55, 0
6, 131340, Note_on_c, 4, 69, 100
6, 131400, Note_on_c, 4, 69, 0
6, 131400, Note_on_c, 4, 77, 100
6, 131460, Note_on_c, 4, 77, 0
6, 131460, Note_on_c, 4, 69, 100
6, 131520, Note_on_c, 4, 69, 0
6, 131520, Note_on_c, 4, 55, 100
6, 131580, Note_on_c, 4, 55, 0
6, 131580, Note_on_c, 4, 67, 100
6, 131640, Note_on_c, 4, 67, 0
6, 131640, Note_on_c, 4, 76, 100
6, 131700, Note_on_c, 4, 76, 0
6, 131700, Note_on_c, 4, 67, 100
6, 131760, Note_on_c, 4, 67, 0
6, 131760, Note_on_c, 4, 55, 100
6, 131820, Note_on_c, 4, 55, 0
6, 131820, Note_on_c, 4, 65, 100
6, 131880, Note_on_c, 4, 65, 0
6, 131880, Note_on_c, 4, 74, 100
6, 131940, Note_on_c, 4, 74, 0
6, 131940, Note_on_c, 4, 65, 100
6, 132000, Note_on_c, 4, 65, 0
6, 132000, Note_on_c, 4, 57, 100
6, 132060, Note_on_c, 4, 57, 0
6, 132060, Note_on_c, 4, 64, 100
6, 132120, Note_on_c, 4, 64, 0
6, 132120, Note_on_c, 4, 74, 100
6, 132180, Note_on_c, 4, 74, 0
6, 132180, Note_on_c, 4, 64, 100
6, 132240, Note_on_c, 4, 64, 0
6, 132240, Note_on_c, 4, 57, 100
6, 132300, Note_on_c, 4, 57, 0
6, 132300, Note_on_c, 4, 64, 100
6, 132360, Note_on_c, 4, 64, 0
6, 132360, Note_on_c, 4, 73, 100
6, 132420, Note_on_c, 4, 73, 0
6, 132420, Note_on_c, 4, 64, 100
6, 132480, Note_on_c, 4, 64, 0
6, 132480, Note_on_c, 4, 62, 100
6, 132540, Note_on_c, 4, 62, 0
6, 132540, Note_on_c, 4, 65, 100
6, 132600, Note_on_c, 4, 65, 0
6, 132600, Note_on_c, 4, 74, 100
6, 132660, Note_on_c, 4, 74, 0
6, 132660, Note_on_c, 4, 65, 100
6, 132720, Note_on_c, 4, 65, 0
6, 132720, Note_on_c, 4, 62, 100
6, 132780, Note_on_c, 4, 62, 0
6, 132780, Note_on_c, 4, 65, 100
6, 132840, Note_on_c, 4, 65, 0
6, 132840, Note_on_c, 4, 74, 100
6, 132900, Note_on_c, 4, 74, 0
6, 132900, Note_on_c, 4, 65, 100
6, 132960, Note_on_c, 4, 65, 0
6, 132960, Note_on_c, 4, 57, 100
6, 133020, Note_on_c, 4, 57, 0
6, 133020, Note_on_c, 4, 65, 100
6, 133080, Note_on_c, 4, 65, 0
6, 133080, Note_on_c, 4, 74, 100
6, 133140, Note_on_c, 4, 74, 0
6, 133140, Note_on_c, 4, 65, 100
6, 133200, Note_on_c, 4, 65, 0
6, 133200, Note_on_c, 4, 57, 100
6, 133260, Note_on_c, 4, 57, 0
6, 133260, Note_on_c, 4, 65, 100
6, 133320, Note_on_c, 4, 65, 0
6, 133320, Note_on_c, 4, 74, 100
6, 133380, Note_on_c, 4, 74, 0
6, 133380, Note_on_c, 4, 65, 100
6, 133440, Note_on_c, 4, 65, 0
6, 133440, Note_on_c, 4, 58, 100
6, 133500, Note_on_c, 4, 58, 0
6, 133500, Note_on_c, 4, 65, 100
6, 133560, Note_on_c, 4, 65, 0
6, 133560, Note_on_c, 4, 74, 100
6, 133620, Note_on_c, 4, 74, 0
6, 133620, Note_on_c, 4, 65, 100
6, 133680, Note_on_c, 4, 65, 0
6, 133680, Note_on_c, 4, 58, 100
6, 133740, Note_on_c, 4, 58, 0
6, 133740, Note_on_c, 4, 65, 100
6, 133800, Note_on_c, 4, 65, 0
6, 133800, Note_on_c, 4, 74, 100
6, 133860, Note_on_c, 4, 74, 0
6, 133860, Note_on_c, 4, 65, 100
6, 133920, Note_on_c, 4, 65, 0
6, 133920, Note_on_c, 4, 60, 100
6, 133980, Note_on_c, 4, 60, 0
6, 133980, Note_on_c, 4, 66, 100
6, 134040, Note_on_c, 4, 66, 0
6, 134040, Note_on_c, 4, 75, 100
6, 134100, Note_on_c, 4, 75, 0
6, 134100, Note_on_c, 4, 66, 100
6, 134160, Note_on_c, 4, 66, 0
6, 134160, Note_on_c, 4, 60, 100
6, 134220, Note_on_c, 4, 60, 0
6, 134220, Note_on_c, 4, 66, 100
6, 134280, Note_on_c, 4, 66, 0
6, 134280, Note_on_c, 4, 75, 100
6, 134340, Note_on_c, 4, 75, 0
6, 134340, Note_on_c, 4, 66, 100
6, 134400, Note_on_c, 4, 66, 0
6, 134400, Note_on_c, 4, 58, 100
6, 134460, Note_on_c, 4, 58, 0
6, 134460, Note_on_c, 4, 66, 100
6, 134520, Note_on_c, 4, 66, 0
6, 134520, Note_on_c, 4, 75, 100
6, 134580, Note_on_c, 4, 75, 0
6, 134580, Note_on_c, 4, 66, 100
6, 134640, Note_on_c, 4, 66, 0
6, 134640, Note_on_c, 4, 58, 100
6, 134700, Note_on_c, 4, 58, 0
6, 134700, Note_on_c, 4, 66, 100
6, 134760, Note_on_c, 4, 66, 0
6, 134760, Note_on_c, 4, 75, 100
6, 134820, Note_on_c, 4, 75, 0
6, 134820, Note_on_c, 4, 66, 100
6, 134880, Note_on_c, 4, 66, 0
6, 134880, Note_on_c, 4, 57, 100
6, 134940, Note_on_c, 4, 57, 0
6, 134940, Note_on_c, 4, 66, 100
6, 135000, Note_on_c, 4, 66, 0
6, 135000, Note_on_c, 4, 75, 100
6, 135060, Note_on_c, 4, 75, 0
6, 135060, Note_on_c, 4, 66, 100
6, 135120, Note_on_c, 4, 66, 0
6, 135120, Note_on_c, 4, 57, 100
6, 135180, Note_on_c, 4, 57, 0
6, 135180, Note_on_c, 4, 66, 100
6, 135240, Note_on_c, 4, 66, 0
6, 135240, Note_on_c, 4, 75, 100
6, 135300, Note_on_c, 4, 75, 0
6, 135300, Note_on_c, 4, 66, 100
6, 135360, Note_on_c, 4, 66, 0
6, 135360, Note_on_c, 4, 58, 100
6, 135420, Note_on_c, 4, 58, 0
6, 135420, Note_on_c, 4, 67, 100
6, 135480, Note_on_c, 4, 67, 0
6, 135480, Note_on_c, 4, 74, 100
6, 135540, Note_on_c, 4, 74, 0
6, 135540, Note_on_c, 4, 67, 100
6, 135600, Note_on_c, 4, 67, 0
6, 135600, Note_on_c, 4, 58, 100
6, 135660, Note_on_c, 4, 58, 0
6, 135660, Note_on_c, 4, 67, 100
6, 135720, Note_on_c, 4, 67, 0
6, 135720, Note_on_c, 4, 74, 100
6, 135780, Note_on_c, 4, 74, 0
6, 135780, Note_on_c, 4, 67, 100
6, 135840, Note_on_c, 4, 67, 0
6, 135840, Note_on_c, 4, 57, 100
6, 135900, Note_on_c, 4, 57, 0
6, 135900, Note_on_c, 4, 65, 100
6, 135960, Note_on_c, 4, 65, 0
6, 135960, Note_on_c, 4, 74, 100
6, 136020, Note_on_c, 4, 74, 0
6, 136020, Note_on_c, 4, 65, 100
6, 136080, Note_on_c, 4, 65, 0
6, 136080, Note_on_c, 4, 57, 100
6, 136140, Note_on_c, 4, 57, 0
6, 136140, Note_on_c, 4, 65, 100
6, 136200, Note_on_c, 4, 65, 0
6, 136200, Note_on_c, 4, 74, 100
6, 136260, Note_on_c, 4, 74, 0
6, 136260, Note_on_c, 4, 65, 100
6, 136320, Note_on_c, 4, 65, 0
6, 136320, Note_on_c, 4, 55, 100
6, 136380, Note_on_c, 4, 55, 0
6, 136380, Note_on_c, 4, 64, 100
6, 136440, Note_on_c, 4, 64, 0
6, 136440, Note_on_c, 4, 74, 100
6, 136500, Note_on_c, 4, 74, 0
6, 136500, Note_on_c, 4, 64, 100
6, 136560, Note_on_c, 4, 64, 0
6, 136560, Note_on_c, 4, 55, 100
6, 136620, Note_on_c, 4, 55, 0
6, 136620, Note_on_c, 4, 64, 100
6, 136680, Note_on_c, 4, 64, 0
6, 136680, Note_on_c, 4, 74, 100
6, 136740, Note_on_c, 4, 74, 0
6, 136740, Note_on_c, 4, 64, 100
6, 136800, Note_on_c, 4, 64, 0
6, 136800, Note_on_c, 4, 57, 100
6, 136860, Note_on_c, 4, 57, 0
6, 136860, Note_on_c, 4, 65, 100
6, 136920, Note_on_c, 4, 65, 0
6, 136920, Note_on_c, 4, 74, 100
6, 136980, Note_on_c, 4, 74, 0
6, 136980, Note_on_c, 4, 65, 100
6, 137040, Note_on_c, 4, 65, 0
6, 137040, Note_on_c, 4, 57, 100
6, 137100, Note_on_c, 4, 57, 0
6, 137100, Note_on_c, 4, 65, 100
6, 137160, Note_on_c, 4, 65, 0
6, 137160, Note_on_c, 4, 74, 100
6, 137220, Note_on_c, 4, 74, 0
6, 137220, Note_on_c, 4, 65, 100
6, 137280, Note_on_c, 4, 65, 0
6, 137280, Note_on_c, 4, 57, 100
6, 137340, Note_on_c, 4, 57, 0
6, 137340, Note_on_c, 4, 64, 100
6, 137400, Note_on_c, 4, 64, 0
6, 137400, Note_on_c, 4, 74, 100
6, 137460, Note_on_c, 4, 74, 0
6, 137460, Note_on_c, 4, 64, 100
6, 137520, Note_on_c, 4, 64, 0
6, 137520, Note_on_c, 4, 57, 100
6, 137580, Note_on_c, 4, 57, 0
6, 137580, Note_on_c, 4, 64, 100
6, 137640, Note_on_c, 4, 64, 0
6, 137640, Note_on_c, 4, 74, 100
6, 137700, Note_on_c, 4, 74, 0
6, 137700, Note_on_c, 4, 64, 100
6, 137760, Note_on_c, 4, 64, 0
6, 137760, Note_on_c, 4, 57, 100
6, 137820, Note_on_c, 4, 57, 0
6, 137820, Note_on_c, 4, 67, 100
6, 137880, Note_on_c, 4, 67, 0
6, 137880, Note_on_c, 4, 73, 100
6, 137940, Note_on_c, 4, 73, 0
6, 137940, Note_on_c, 4, 67, 100
6, 138000, Note_on_c, 4, 67, 0
6, 138000, Note_on_c, 4, 57, 100
6, 138060, Note_on_c, 4, 57, 0
6, 138060, Note_on_c, 4, 67, 100
6, 138120, Note_on_c, 4, 67, 0
6, 138120, Note_on_c, 4, 73, 100
6, 138180, Note_on_c, 4, 73, 0
6, 138180, Note_on_c, 4, 67, 100
6, 138240, Note_on_c, 4, 67, 0
6, 138240, Note_on_c, 4, 62, 100
6, 138300, Note_on_c, 4, 62, 0
6, 138300, Note_on_c, 4, 65, 100
6, 138360, Note_on_c, 4, 65, 0
6, 138360, Note_on_c, 4, 74, 100
6, 138420, Note_on_c, 4, 74, 0
6, 138420, Note_on_c, 4, 65, 100
6, 138480, Note_on_c, 4, 65, 0
6, 138480, Note_on_c, 4, 62, 100
6, 138540, Note_on_c, 4, 62, 0
6, 138540, Note_on_c, 4, 65, 100
6, 138600, Note_on_c, 4, 65, 0
6, 138600, Note_on_c, 4, 74, 100
6, 138660, Note_on_c, 4, 74, 0
6, 138660, Note_on_c, 4, 65, 100
6, 138720, Note_on_c, 4, 65, 0
6, 138720, Note_on_c, 4, 62, 100
6, 138780, Note_on_c, 4, 62, 0
6, 138780, Note_on_c, 4, 65, 100
6, 138840, Note_on_c, 4, 65, 0
6, 138840, Note_on_c, 4, 69, 100
6, 138900, Note_on_c, 4, 69, 0
6, 138900, Note_on_c, 4, 65, 100
6, 138960, Note_on_c, 4, 65, 0
6, 138960, Note_on_c, 4, 62, 100
6, 139020, Note_on_c, 4, 62, 0
6, 139020, Note_on_c, 4, 65, 100
6, 139080, Note_on_c, 4, 65, 0
6, 139080, Note_on_c, 4, 69, 100
6, 139140, Note_on_c, 4, 69, 0
6, 139140, Note_on_c, 4, 65, 100
6, 139200, Note_on_c, 4, 65, 0
6, 139200, Note_on_c, 4, 62, 100
6, 139260, Note_on_c, 4, 62, 0
6, 139260, Note_on_c, 4, 65, 100
6, 139320, Note_on_c, 4, 65, 0
6, 139320, Note_on_c, 4, 70, 100
6, 139380, Note_on_c, 4, 70, 0
6, 139380, Note_on_c, 4, 65, 100
6, 139440, Note_on_c, 4, 65, 0
6, 139440, Note_on_c, 4, 62, 100
6, 139500, Note_on_c, 4, 62, 0
6, 139500, Note_on_c, 4, 65, 100
6, 139560, Note_on_c, 4, 65, 0
6, 139560, Note_on_c, 4, 70, 100
6, 139620, Note_on_c, 4, 70, 0
6, 139620, Note_on_c, 4, 65, 100
6, 139680, Note_on_c, 4, 65, 0
6, 139680, Note_on_c, 4, 62, 100
6, 139740, Note_on_c, 4, 62, 0
6, 139740, Note_on_c, 4, 66, 100
6, 139800, Note_on_c, 4, 66, 0
6, 139800, Note_on_c, 4, 72, 100
6, 139860, Note_on_c, 4, 72, 0
6, 139860, Note_on_c, 4, 66, 100
6, 139920, Note_on_c, 4, 66, 0
6, 139920, Note_on_c, 4, 62, 100
6, 139980, Note_on_c, 4, 62, 0
6, 139980, Note_on_c, 4, 66, 100
6, 140040, Note_on_c, 4, 66, 0
6, 140040, Note_on_c, 4, 72, 100
6, 140100, Note_on_c, 4, 72, 0
6, 140100, Note_on_c, 4, 66, 100
6, 140160, Note_on_c, 4, 66, 0
6, 140160, Note_on_c, 4, 62, 100
6, 140220, Note_on_c, 4, 62, 0
6, 140220, Note_on_c, 4, 66, 100
6, 140280, Note_on_c, 4, 66, 0
6, 140280, Note_on_c, 4, 70, 100
6, 140340, Note_on_c, 4, 70, 0
6, 140340, Note_on_c, 4, 66, 100
6, 140400, Note_on_c, 4, 66, 0
6, 140400, Note_on_c, 4, 62, 100
6, 140460, Note_on_c, 4, 62, 0
6, 140460, Note_on_c, 4, 66, 100
6, 140520, Note_on_c, 4, 66, 0
6, 140520, Note_on_c, 4, 70, 100
6, 140580, Note_on_c, 4, 70, 0
6, 140580, Note_on_c, 4, 66, 100
6, 140640, Note_on_c, 4, 66, 0
6, 140640, Note_on_c, 4, 62, 100
6, 140700, Note_on_c, 4, 62, 0
6, 140700, Note_on_c, 4, 66, 100
6, 140760, Note_on_c, 4, 66, 0
6, 140760, Note_on_c, 4, 69, 100
6, 140820, Note_on_c, 4, 69, 0
6, 140820, Note_on_c, 4, 66, 100
6, 140880, Note_on_c, 4, 66, 0
6, 140880, Note_on_c, 4, 62, 100
6, 140940, Note_on_c, 4, 62, 0
6, 140940, Note_on_c, 4, 66, 100
6, 141000, Note_on_c, 4, 66, 0
6, 141000, Note_on_c, 4, 69, 100
6, 141060, Note_on_c, 4, 69, 0
6, 141060, Note_on_c, 4, 66, 100
6, 141120, Note_on_c, 4, 66, 0
6, 141120, Note_on_c, 4, 62, 100
6, 141180, Note_on_c, 4, 62, 0
6, 141180, Note_on_c, 4, 67, 100
6, 141240, Note_on_c, 4, 67, 0
6, 141240, Note_on_c, 4, 70, 100
6, 141300, Note_on_c, 4, 70, 0
6, 141300, Note_on_c, 4, 67, 100
6, 141360, Note_on_c, 4, 67, 0
6, 141360, Note_on_c, 4, 62, 100
6, 141420, Note_on_c, 4, 62, 0
6, 141420, Note_on_c, 4, 67, 100
6, 141480, Note_on_c, 4, 67, 0
6, 141480, Note_on_c, 4, 70, 100
6, 141540, Note_on_c, 4, 70, 0
6, 141540, Note_on_c, 4, 67, 100
6, 141600, Note_on_c, 4, 67, 0
6, 141600, Note_on_c, 4, 64, 100
6, 141660, Note_on_c, 4, 64, 0
6, 141660, Note_on_c, 4, 73, 100
6, 141720, Note_on_c, 4, 73, 0
6, 141720, Note_on_c, 4, 82, 100
6, 141780, Note_on_c, 4, 82, 0
6, 141780, Note_on_c, 4, 73, 100
6, 141840, Note_on_c, 4, 73, 0
6, 141840, Note_on_c, 4, 64, 100
6, 141900, Note_on_c, 4, 64, 0
6, 141900, Note_on_c, 4, 73, 100
6, 141960, Note_on_c, 4, 73, 0
6, 141960, Note_on_c, 4, 82, 100
6, 142020, Note_on_c, 4, 82, 0
6, 142020, Note_on_c, 4, 73, 100
6, 142080, Note_on_c, 4, 73, 0
6, 142080, Note_on_c, 4, 65, 100
6, 142140, Note_on_c, 4, 65, 0
6, 142140, Note_on_c, 4, 74, 100
6, 142200, Note_on_c, 4, 74, 0
6, 142200, Note_on_c, 4, 81, 100
6, 142260, Note_on_c, 4, 81, 0
6, 142260, Note_on_c, 4, 74, 100
6, 142320, Note_on_c, 4, 74, 0
6, 142320, Note_on_c, 4, 65, 100
6, 142380, Note_on_c, 4, 65, 0
6, 142380, Note_on_c, 4, 74, 100
6, 142440, Note_on_c, 4, 74, 0
6, 142440, Note_on_c, 4, 81, 100
6, 142500, Note_on_c, 4, 81, 0
6, 142500, Note_on_c, 4, 74, 100
6, 142560, Note_on_c, 4, 74, 0
6, 142560, Note_on_c, 4, 67, 100
6, 142620, Note_on_c, 4, 67, 0
6, 142620, Note_on_c, 4, 74, 100
6, 142680, Note_on_c, 4, 74, 0
6, 142680, Note_on_c, 4, 79, 100
6, 142740, Note_on_c, 4, 79, 0
6, 142740, Note_on_c, 4, 74, 100
6, 142800, Note_on_c, 4, 74, 0
6, 142800, Note_on_c, 4, 67, 100
6, 142860, Note_on_c, 4, 67, 0
6, 142860, Note_on_c, 4, 74, 100
6, 142920, Note_on_c, 4, 74, 0
6, 142920, Note_on_c, 4, 77, 100
6, 142980, Note_on_c, 4, 77, 0
6, 142980, Note_on_c, 4, 74, 100
6, 143040, Note_on_c, 4, 74, 0
6, 143040, Note_on_c, 4, 69, 100
6, 143100, Note_on_c, 4, 69, 0
6, 143100, Note_on_c, 4, 74, 100
6, 143160, Note_on_c, 4, 74, 0
6, 143160, Note_on_c, 4, 76, 100
6, 143220, Note_on_c, 4, 76, 0
6, 143220, Note_on_c, 4, 74, 100
6, 143280, Note_on_c, 4, 74, 0
6, 143280, Note_on_c, 4, 69, 100
6, 143340, Note_on_c, 4, 69, 0
6, 143340, Note_on_c, 4, 74, 100
6, 143400, Note_on_c, 4, 74, 0
6, 143400, Note_on_c, 4, 76, 100
6, 143460, Note_on_c, 4, 76, 0
6, 143460, Note_on_c, 4, 74, 100
6, 143520, Note_on_c, 4, 74, 0
6, 143520, Note_on_c, 4, 69, 100
6, 143580, Note_on_c, 4, 69, 0
6, 143580, Note_on_c, 4, 73, 100
6, 143640, Note_on_c, 4, 73, 0
6, 143640, Note_on_c, 4, 76, 100
6, 143700, Note_on_c, 4, 76, 0
6, 143700, Note_on_c, 4, 73, 100
6, 143760, Note_on_c, 4, 73, 0
6, 143760, Note_on_c, 4, 69, 100
6, 143820, Note_on_c, 4, 69, 0
6, 143820, Note_on_c, 4, 73, 100
6, 143880, Note_on_c, 4, 73, 0
6, 143880, Note_on_c, 4, 76, 100
6, 143940, Note_on_c, 4, 76, 0
6, 143940, Note_on_c, 4, 73, 100
6, 144000, Note_on_c, 4, 73, 0
6, 144000, Note_on_c, 4, 62, 100
6, 144060, Note_on_c, 4, 62, 0
6, 144060, Note_on_c, 4, 74, 100
6, 144120, Note_on_c, 4, 74, 0
6, 144120, Note_on_c, 4, 77, 100
6, 144180, Note_on_c, 4, 77, 0
6, 144180, Note_on_c, 4, 74, 100
6, 144240, Note_on_c, 4, 74, 0
6, 144240, Note_on_c, 4, 62, 100
6, 144300, Note_on_c, 4, 62, 0
6, 144300, Note_on_c, 4, 74, 100
6, 144360, Note_on_c, 4, 74, 0
6, 144360, Note_on_c, 4, 77, 100
6, 144420, Note_on_c, 4, 77, 0
6, 144420, Note_on_c, 4, 74, 100
6, 144480, Note_on_c, 4, 74, 0
6, 144480, Note_on_c, 4, 62, 100
6, 144520, Note_on_c, 4, 62, 0
6, 144520, Note_on_c, 4, 69, 100
6, 144560, Note_on_c, 4, 69, 0
6, 144560, Note_on_c, 4, 77, 100
6, 144600, Note_on_c, 4, 77, 0
6, 144600, Note_on_c, 4, 77, 100
6, 144640, Note_on_c, 4, 77, 0
6, 144640, Note_on_c, 4, 69, 100
6, 144680, Note_on_c, 4, 69, 0
6, 144680, Note_on_c, 4, 62, 100
6, 144720, Note_on_c, 4, 62, 0
6, 144720, Note_on_c, 4, 62, 100
6, 144760, Note_on_c, 4, 62, 0
6, 144760, Note_on_c, 4, 69, 100
6, 144800, Note_on_c, 4, 69, 0
6, 144800, Note_on_c, 4, 77, 100
6, 144840, Note_on_c, 4, 77, 0
6, 144840, Note_on_c, 4, 77, 100
6, 144880, Note_on_c, 4, 77, 0
6, 144880, Note_on_c, 4, 69, 100
6, 144920, Note_on_c, 4, 69, 0
6, 144920, Note_on_c, 4, 62, 100
6, 144960, Note_on_c, 4, 62, 0
6, 144960, Note_on_c, 4, 62, 100
6, 145000, Note_on_c, 4, 62, 0
6, 145000, Note_on_c, 4, 70, 100
6, 145040, Note_on_c, 4, 70, 0
6, 145040, Note_on_c, 4, 77, 100
6, 145080, Note_on_c, 4, 77, 0
6, 145080, Note_on_c, 4, 77, 100
6, 145120, Note_on_c, 4, 77, 0
6, 145120, Note_on_c, 4, 70, 100
6, 145160, Note_on_c, 4, 70, 0
6, 145160, Note_on_c, 4, 62, 100
6, 145200, Note_on_c, 4, 62, 0
6, 145200, Note_on_c, 4, 62, 100
6, 145240, Note_on_c, 4, 62, 0
6, 145240, Note_on_c, 4, 70, 100
6, 145280, Note_on_c, 4, 70, 0
6, 145280, Note_on_c, 4, 77, 100
6, 145320, Note_on_c, 4, 77, 0
6, 145320, Note_on_c, 4, 77, 100
6, 145360, Note_on_c, 4, 77, 0
6, 145360, Note_on_c, 4, 70, 100
6, 145400, Note_on_c, 4, 70, 0
6, 145400, Note_on_c, 4, 62, 100
6, 145440, Note_on_c, 4, 62, 0
6, 145440, Note_on_c, 4, 62, 100
6, 145480, Note_on_c, 4, 62, 0
6, 145480, Note_on_c, 4, 72, 100
6, 145520, Note_on_c, 4, 72, 0
6, 145520, Note_on_c, 4, 78, 100
6, 145560, Note_on_c, 4, 78, 0
6, 145560, Note_on_c, 4, 78, 100
6, 145600, Note_on_c, 4, 78, 0
6, 145600, Note_on_c, 4, 72, 100
6, 145640, Note_on_c, 4, 72, 0
6, 145640, Note_on_c, 4, 62, 100
6, 145680, Note_on_c, 4, 62, 0
6, 145680, Note_on_c, 4, 62, 100
6, 145720, Note_on_c, 4, 62, 0
6, 145720, Note_on_c, 4, 72, 100
6, 145760, Note_on_c, 4, 72, 0
6, 145760, Note_on_c, 4, 78, 100
6, 145800, Note_on_c, 4, 78, 0
6, 145800, Note_on_c, 4, 78, 100
6, 145840, Note_on_c, 4, 78, 0
6, 145840, Note_on_c, 4, 72, 100
6, 145880, Note_on_c, 4, 72, 0
6, 145880, Note_on_c, 4, 62, 100
6, 145920, Note_on_c, 4, 62, 0
6, 145920, Note_on_c, 4, 62, 100
6, 145960, Note_on_c, 4, 62, 0
6, 145960, Note_on_c, 4, 70, 100
6, 146000, Note_on_c, 4, 70, 0
6, 146000, Note_on_c, 4, 78, 100
6, 146040, Note_on_c, 4, 78, 0
6, 146040, Note_on_c, 4, 78, 100
6, 146080, Note_on_c, 4, 78, 0
6, 146080, Note_on_c, 4, 70, 100
6, 146120, Note_on_c, 4, 70, 0
6, 146120, Note_on_c, 4, 62, 100
6, 146160, Note_on_c, 4, 62, 0
6, 146160, Note_on_c, 4, 62, 100
6, 146200, Note_on_c, 4, 62, 0
6, 146200, Note_on_c, 4, 70, 100
6, 146240, Note_on_c, 4, 70, 0
6, 146240, Note_on_c, 4, 78, 100
6, 146280, Note_on_c, 4, 78, 0
6, 146280, Note_on_c, 4, 78, 100
6, 146320, Note_on_c, 4, 78, 0
6, 146320, Note_on_c, 4, 70, 100
6, 146360, Note_on_c, 4, 70, 0
6, 146360, Note_on_c, 4, 62, 100
6, 146400, Note_on_c, 4, 62, 0
6, 146400, Note_on_c, 4, 62, 100
6, 146440, Note_on_c, 4, 62, 0
6, 146440, Note_on_c, 4, 69, 100
6, 146480, Note_on_c, 4, 69, 0
6, 146480, Note_on_c, 4, 78, 100
6, 146520, Note_on_c, 4, 78, 0
6, 146520, Note_on_c, 4, 78, 100
6, 146560, Note_on_c, 4, 78, 0
6, 146560, Note_on_c, 4, 69, 100
6, 146600, Note_on_c, 4, 69, 0
6, 146600, Note_on_c, 4, 62, 100
6, 146640, Note_on_c, 4, 62, 0
6, 146640, Note_on_c, 4, 62, 100
6, 146680, Note_on_c, 4, 62, 0
6, 146680, Note_on_c, 4, 69, 100
6, 146720, Note_on_c, 4, 69, 0
6, 146720, Note_on_c, 4, 78, 100
6, 146760, Note_on_c, 4, 78, 0
6, 146760, Note_on_c, 4, 78, 100
6, 146800, Note_on_c, 4, 78, 0
6, 146800, Note_on_c, 4, 69, 100
6, 146840, Note_on_c, 4, 69, 0
6, 146840, Note_on_c, 4, 62, 100
6, 146880, Note_on_c, 4, 62, 0
6, 146880, Note_on_c, 4, 62, 100
6, 146920, Note_on_c, 4, 62, 0
6, 146920, Note_on_c, 4, 70, 100
6, 146960, Note_on_c, 4, 70, 0
6, 146960, Note_on_c, 4, 79, 100
6, 147000, Note_on_c, 4, 79, 0
6, 147000, Note_on_c, 4, 79, 100
6, 147040, Note_on_c, 4, 79, 0
6, 147040, Note_on_c, 4, 70, 100
6, 147080, Note_on_c, 4, 70, 0
6, 147080, Note_on_c, 4, 62, 100
6, 147120, Note_on_c, 4, 62, 0
6, 147120, Note_on_c, 4, 62, 100
6, 147160, Note_on_c, 4, 62, 0
6, 147160, Note_on_c, 4, 70, 100
6, 147200, Note_on_c, 4, 70, 0
6, 147200, Note_on_c, 4, 79, 100
6, 147240, Note_on_c, 4, 79, 0
6, 147240, Note_on_c, 4, 79, 100
6, 147280, Note_on_c, 4, 79, 0
6, 147280, Note_on_c, 4, 70, 100
6, 147320, Note_on_c, 4, 70, 0
6, 147320, Note_on_c, 4, 62, 100
6, 147360, Note_on_c, 4, 62, 0
6, 147360, Note_on_c, 4, 62, 100
6, 147400, Note_on_c, 4, 62, 0
6, 147400, Note_on_c, 4, 69, 100
6, 147440, Note_on_c, 4, 69, 0
6, 147440, Note_on_c, 4, 77, 100
6, 147480, Note_on_c, 4, 77, 0
6, 147480, Note_on_c, 4, 77, 100
6, 147520, Note_on_c, 4, 77, 0
6, 147520, Note_on_c, 4, 69, 100
6, 147560, Note_on_c, 4, 69, 0
6, 147560, Note_on_c, 4, 62, 100
6, 147600, Note_on_c, 4, 62, 0
6, 147600, Note_on_c, 4, 62, 100
6, 147640, Note_on_c, 4, 62, 0
6, 147640, Note_on_c, 4, 69, 100
6, 147680, Note_on_c, 4, 69, 0
6, 147680, Note_on_c, 4, 77, 100
6, 147720, Note_on_c, 4, 77, 0
6, 147720, Note_on_c, 4, 77, 100
6, 147760, Note_on_c, 4, 77, 0
6, 147760, Note_on_c, 4, 69, 100
6, 147800, Note_on_c, 4, 69, 0
6, 147800, Note_on_c, 4, 62, 100
6, 147840, Note_on_c, 4, 62, 0
6, 147840, Note_on_c, 4, 61, 100
6, 147870, Note_on_c, 4, 61, 0
6, 147870, Note_on_c, 4, 67, 100
6, 147900, Note_on_c, 4, 67, 0
6, 147900, Note_on_c, 4, 69, 100
6, 147930, Note_on_c, 4, 69, 0
6, 147930, Note_on_c, 4, 76, 100
6, 147960, Note_on_c, 4, 76, 0
6, 147960, Note_on_c, 4, 76, 100
6, 147990, Note_on_c, 4, 76, 0
6, 147990, Note_on_c, 4, 69, 100
6, 148020, Note_on_c, 4, 69, 0
6, 148020, Note_on_c, 4, 67, 100
6, 148050, Note_on_c, 4, 67, 0
6, 148050, Note_on_c, 4, 61, 100
6, 148080, Note_on_c, 4, 61, 0
6, 148080, Note_on_c, 4, 61, 100
6, 148110, Note_on_c, 4, 61, 0
6, 148110, Note_on_c, 4, 67, 100
6, 148140, Note_on_c, 4, 67, 0
6, 148140, Note_on_c, 4, 69, 100
6, 148170, Note_on_c, 4, 69, 0
6, 148170, Note_on_c, 4, 76, 100
6, 148200, Note_on_c, 4, 76, 0
6, 148200, Note_on_c, 4, 76, 100
6, 148230, Note_on_c, 4, 76, 0
6, 148230, Note_on_c, 4, 69, 100
6, 148260, Note_on_c, 4, 69, 0
6, 148260, Note_on_c, 4, 67, 100
6, 148290, Note_on_c, 4, 67, 0
6, 148290, Note_on_c, 4, 61, 100
6, 148320, Note_on_c, 4, 61, 0
6, 148320, Note_on_c, 4, 62, 100
6, 148350, Note_on_c, 4, 62, 0
6, 148350, Note_on_c, 4, 65, 100
6, 148380, Note_on_c, 4, 65, 0
6, 148380, Note_on_c, 4, 69, 100
6, 148410, Note_on_c, 4, 69, 0
6, 148410, Note_on_c, 4, 77, 100
6, 148440, Note_on_c, 4, 77, 0
6, 148440, Note_on_c, 4, 77, 100
6, 148470, Note_on_c, 4, 77, 0
6, 148470, Note_on_c, 4, 69, 100
6, 148500, Note_on_c, 4, 69, 0
6, 148500, Note_on_c, 4, 65, 100
6, 148530, Note_on_c, 4, 65, 0
6, 148530, Note_on_c, 4, 62, 100
6, 148560, Note_on_c, 4, 62, 0
6, 148560, Note_on_c, 4, 62, 100
6, 148590, Note_on_c, 4, 62, 0
6, 148590, Note_on_c, 4, 65, 100
6, 148620, Note_on_c, 4, 65, 0
6, 148620, Note_on_c, 4, 69, 100
6, 148650, Note_on_c, 4, 69, 0
6, 148650, Note_on_c, 4, 77, 100
6, 148680, Note_on_c, 4, 77, 0
6, 148680, Note_on_c, 4, 77, 100
6, 148710, Note_on_c, 4, 77, 0
6, 148710, Note_on_c, 4, 69, 100
6, 148740, Note_on_c, 4, 69, 0
6, 148740, Note_on_c, 4, 65, 100
6, 148770, Note_on_c, 4, 65, 0
6, 148770, Note_on_c, 4, 62, 100
6, 148800, Note_on_c, 4, 62, 0
6, 148800, Note_on_c, 4, 57, 100
6, 148840, Note_on_c, 4, 57, 0
6, 148840, Note_on_c, 4, 64, 100
6, 148880, Note_on_c, 4, 64, 0
6, 148880, Note_on_c, 4, 73, 100
6, 148920, Note_on_c, 4, 73, 0
6, 148920, Note_on_c, 4, 73, 100
6, 148960, Note_on_c, 4, 73, 0
6, 148960, Note_on_c, 4, 64, 100
6, 149000, Note_on_c, 4, 64, 0
6, 149000, Note_on_c, 4, 57, 100
6, 149040, Note_on_c, 4, 57, 0
6, 149040, Note_on_c, 4, 57, 100
6, 149080, Note_on_c, 4, 57, 0
6, 149080, Note_on_c, 4, 64, 100
6, 149120, Note_on_c, 4, 64, 0
6, 149120, Note_on_c, 4, 73, 100
6, 149160, Note_on_c, 4, 73, 0
6, 149160, Note_on_c, 4, 73, 100
6, 149200, Note_on_c, 4, 73, 0
6, 149200, Note_on_c, 4, 64, 100
6, 149240, Note_on_c, 4, 64, 0
6, 149240, Note_on_c, 4, 57, 100
6, 149280, Note_on_c, 4, 57, 0
6, 149280, Note_on_c, 4, 57, 100
6, 149320, Note_on_c, 4, 57, 0
6, 149320, Note_on_c, 4, 64, 100
6, 149360, Note_on_c, 4, 64, 0
6, 149360, Note_on_c, 4, 73, 100
6, 149400, Note_on_c, 4, 73, 0
6, 149400, Note_on_c, 4, 73, 100
6, 149440, Note_on_c, 4, 73, 0
6, 149440, Note_on_c, 4, 64, 100
6, 149480, Note_on_c, 4, 64, 0
6, 149480, Note_on_c, 4, 57, 100
6, 149520, Note_on_c, 4, 57, 0
6, 149520, Note_on_c, 4, 57, 100
6, 149560, Note_on_c, 4, 57, 0
6, 149560, Note_on_c, 4, 64, 100
6, 149600, Note_on_c, 4, 64, 0
6, 149600, Note_on_c, 4, 73, 100
6, 149640, Note_on_c, 4, 73, 0
6, 149640, Note_on_c, 4, 73, 100
6, 149680, Note_on_c, 4, 73, 0
6, 149680, Note_on_c, 4, 64, 100
6, 149720, Note_on_c, 4, 64, 0
6, 149720, Note_on_c, 4, 57, 100
6, 149760, Note_on_c, 4, 57, 0
6, 149760, Note_on_c, 4, 62, 100
6, 149800, Note_on_c, 4, 62, 0
6, 149800, Note_on_c, 4, 65, 100
6, 149840, Note_on_c, 4, 65, 0
6, 149840, Note_on_c, 4, 74, 100
6, 149880, Note_on_c, 4, 74, 0
6, 149880, Note_on_c, 4, 74, 100
6, 149920, Note_on_c, 4, 74, 0
6, 149920, Note_on_c, 4, 65, 100
6, 149960, Note_on_c, 4, 65, 0
6, 149960, Note_on_c, 4, 62, 100
6, 150000, Note_on_c, 4, 62, 0
6, 150000, Note_on_c, 4, 62, 100
6, 150040, Note_on_c, 4, 62, 0
6, 150040, Note_on_c, 4, 65, 100
6, 150080, Note_on_c, 4, 65, 0
6, 150080, Note_on_c, 4, 74, 100
6, 150120, Note_on_c, 4, 74, 0
6, 150120, Note_on_c, 4, 74, 100
6, 150160, Note_on_c, 4, 74, 0
6, 150160, Note_on_c, 4, 65, 100
6, 150200, Note_on_c, 4, 65, 0
6, 150200, Note_on_c, 4, 62, 100
6, 150240, Note_on_c, 4, 62, 0
6, 150240, Note_on_c, 4, 62, 100
6, 150274, Note_on_c, 4, 62, 0
6, 150274, Note_on_c, 4, 62, 100
6, 150308, Note_on_c, 4, 62, 0
6, 150308, Note_on_c, 4, 69, 100
6, 150342, Note_on_c, 4, 69, 0
6, 150342, Note_on_c, 4, 77, 100
6, 150376, Note_on_c, 4, 77, 0
6, 150376, Note_on_c, 4, 77, 100
6, 150410, Note_on_c, 4, 77, 0
6, 150412, Note_on_c, 4, 69, 100
6, 150446, Note_on_c, 4, 69, 0
6, 150446, Note_on_c, 4, 62, 100
6, 150480, Note_on_c, 4, 62, 0
6, 150480, Note_on_c, 4, 62, 100
6, 150520, Note_on_c, 4, 62, 0
6, 150520, Note_on_c, 4, 69, 100
6, 150560, Note_on_c, 4, 69, 0
6, 150560, Note_on_c, 4, 77, 100
6, 150600, Note_on_c, 4, 77, 0
6, 150600, Note_on_c, 4, 77, 100
6, 150640, Note_on_c, 4, 77, 0
6, 150640, Note_on_c, 4, 69, 100
6, 150680, Note_on_c, 4, 69, 0
6, 150680, Note_on_c, 4, 62, 100
6, 150720, Note_on_c, 4, 62, 0
6, 150720, Note_on_c, 4, 62, 100
6, 150754, Note_on_c, 4, 62, 0
6, 150754, Note_on_c, 4, 69, 100
6, 150788, Note_on_c, 4, 69, 0
6, 150788, Note_on_c, 4, 72, 100
6, 150822, Note_on_c, 4, 72, 0
6, 150822, Note_on_c, 4, 77, 100
6, 150856, Note_on_c, 4, 77, 0
6, 150856, Note_on_c, 4, 77, 100
6, 150890, Note_on_c, 4, 77, 0
6, 150892, Note_on_c, 4, 72, 100
6, 150926, Note_on_c, 4, 72, 0
6, 150926, Note_on_c, 4, 69, 100
6, 150960, Note_on_c, 4, 69, 0
6, 150960, Note_on_c, 4, 69, 100
6, 151000, Note_on_c, 4, 69, 0
6, 151000, Note_on_c, 4, 72, 100
6, 151040, Note_on_c, 4, 72, 0
6, 151040, Note_on_c, 4, 77, 100
6, 151080, Note_on_c, 4, 77, 0
6, 151080, Note_on_c, 4, 77, 100
6, 151120, Note_on_c, 4, 77, 0
6, 151120, Note_on_c, 4, 72, 100
6, 151160, Note_on_c, 4, 72, 0
6, 151160, Note_on_c, 4, 69, 100
6, 151200, Note_on_c, 4, 69, 0
6, 151200, Note_on_c, 4, 55, 100
6, 151230, Note_on_c, 4, 55, 0
6, 151230, Note_on_c, 4, 67, 100
6, 151260, Note_on_c, 4, 67, 0
6, 151260, Note_on_c, 4, 70, 100
6, 151290, Note_on_c, 4, 70, 0
6, 151290, Note_on_c, 4, 77, 100
6, 151320, Note_on_c, 4, 77, 0
6, 151320, Note_on_c, 4, 77, 100
6, 151350, Note_on_c, 4, 77, 0
6, 151350, Note_on_c, 4, 70, 100
6, 151380, Note_on_c, 4, 70, 0
6, 151380, Note_on_c, 4, 67, 100
6, 151410, Note_on_c, 4, 67, 0
6, 151410, Note_on_c, 4, 55, 100
6, 151440, Note_on_c, 4, 55, 0
6, 151440, Note_on_c, 4, 55, 100
6, 151470, Note_on_c, 4, 55, 0
6, 151470, Note_on_c, 4, 67, 100
6, 151500, Note_on_c, 4, 67, 0
6, 151500, Note_on_c, 4, 70, 100
6, 151530, Note_on_c, 4, 70, 0
6, 151530, Note_on_c, 4, 77, 100
6, 151560, Note_on_c, 4, 77, 0
6, 151560, Note_on_c, 4, 77, 100
6, 151590, Note_on_c, 4, 77, 0
6, 151590, Note_on_c, 4, 70, 100
6, 151620, Note_on_c, 4, 70, 0
6, 151620, Note_on_c, 4, 67, 100
6, 151650, Note_on_c, 4, 67, 0
6, 151650, Note_on_c, 4, 55, 100
6, 151680, Note_on_c, 4, 55, 0
6, 151680, Note_on_c, 4, 55, 100
6, 151710, Note_on_c, 4, 55, 0
6, 151710, Note_on_c, 4, 67, 100
6, 151740, Note_on_c, 4, 67, 0
6, 151740, Note_on_c, 4, 70, 100
6, 151770, Note_on_c, 4, 70, 0
6, 151770, Note_on_c, 4, 76, 100
6, 151800, Note_on_c, 4, 76, 0
6, 151800, Note_on_c, 4, 76, 100
6, 151830, Note_on_c, 4, 76, 0
6, 151830, Note_on_c, 4, 70, 100
6, 151860, Note_on_c, 4, 70, 0
6, 151860, Note_on_c, 4, 67, 100
6, 151890, Note_on_c, 4, 67, 0
6, 151890, Note_on_c, 4, 55, 100
6, 151920, Note_on_c, 4, 55, 0
6, 151920, Note_on_c, 4, 55, 100
6, 151950, Note_on_c, 4, 55, 0
6, 151950, Note_on_c, 4, 67, 100
6, 151980, Note_on_c, 4, 67, 0
6, 151980, Note_on_c, 4, 70, 100
6, 152010, Note_on_c, 4, 70, 0
6, 152010, Note_on_c, 4, 76, 100
6, 152040, Note_on_c, 4, 76, 0
6, 152040, Note_on_c, 4, 76, 100
6, 152070, Note_on_c, 4, 76, 0
6, 152070, Note_on_c, 4, 70, 100
6, 152100, Note_on_c, 4, 70, 0
6, 152100, Note_on_c, 4, 67, 100
6, 152130, Note_on_c, 4, 67, 0
6, 152130, Note_on_c, 4, 55, 100
6, 152160, Note_on_c, 4, 55, 0
6, 152160, Note_on_c, 4, 57, 100
6, 152200, Note_on_c, 4, 57, 0
6, 152200, Note_on_c, 4, 65, 100
6, 152240, Note_on_c, 4, 65, 0
6, 152240, Note_on_c, 4, 75, 100
6, 152280, Note_on_c, 4, 75, 0
6, 152280, Note_on_c, 4, 75, 100
6, 152320, Note_on_c, 4, 75, 0
6, 152320, Note_on_c, 4, 65, 100
6, 152360, Note_on_c, 4, 65, 0
6, 152360, Note_on_c, 4, 57, 100
6, 152400, Note_on_c, 4, 57, 0
6, 152400, Note_on_c, 4, 57, 100
6, 152440, Note_on_c, 4, 57, 0
6, 152440, Note_on_c, 4, 65, 100
6, 152480, Note_on_c, 4, 65, 0
6, 152480, Note_on_c, 4, 75, 100
6, 152520, Note_on_c, 4, 75, 0
6, 152520, Note_on_c, 4, 75, 100
6, 152560, Note_on_c, 4, 75, 0
6, 152560, Note_on_c, 4, 65, 100
6, 152600, Note_on_c, 4, 65, 0
6, 152600, Note_on_c, 4, 57, 100
6, 152640, Note_on_c, 4, 57, 0
6, 152640, Note_on_c, 4, 58, 100
6, 152680, Note_on_c, 4, 58, 0
6, 152680, Note_on_c, 4, 65, 100
6, 152720, Note_on_c, 4, 65, 0
6, 152720, Note_on_c, 4, 75, 100
6, 152760, Note_on_c, 4, 75, 0
6, 152760, Note_on_c, 4, 75, 100
6, 152800, Note_on_c, 4, 75, 0
6, 152800, Note_on_c, 4, 65, 100
6, 152840, Note_on_c, 4, 65, 0
6, 152840, Note_on_c, 4, 58, 100
6, 152880, Note_on_c, 4, 58, 0
6, 152880, Note_on_c, 4, 58, 100
6, 152920, Note_on_c, 4, 58, 0
6, 152920, Note_on_c, 4, 65, 100
6, 152960, Note_on_c, 4, 65, 0
6, 152960, Note_on_c, 4, 75, 100
6, 153000, Note_on_c, 4, 75, 0
6, 153000, Note_on_c, 4, 75, 100
6, 153040, Note_on_c, 4, 75, 0
6, 153040, Note_on_c, 4, 65, 100
6, 153080, Note_on_c, 4, 65, 0
6, 153080, Note_on_c, 4, 58, 100
6, 153120, Note_on_c, 4, 58, 0
6, 153120, Note_on_c, 4, 58, 100
6, 153150, Note_on_c, 4, 58, 0
6, 153150, Note_on_c, 4, 65, 100
6, 153180, Note_on_c, 4, 65, 0
6, 153180, Note_on_c, 4, 74, 100
6, 153210, Note_on_c, 4, 74, 0
6, 153210, Note_on_c, 4, 82, 100
6, 153240, Note_on_c, 4, 82, 0
6, 153240, Note_on_c, 4, 82, 100
6, 153270, Note_on_c, 4, 82, 0
6, 153270, Note_on_c, 4, 74, 100
6, 153300, Note_on_c, 4, 74, 0
6, 153300, Note_on_c, 4, 65, 100
6, 153330, Note_on_c, 4, 65, 0
6, 153330, Note_on_c, 4, 58, 100
6, 153360, Note_on_c, 4, 58, 0
6, 153360, Note_on_c, 4, 58, 100
6, 153390, Note_on_c, 4, 58, 0
6, 153390, Note_on_c, 4, 65, 100
6, 153420, Note_on_c, 4, 65, 0
6, 153420, Note_on_c, 4, 74, 100
6, 153450, Note_on_c, 4, 74, 0
6, 153450, Note_on_c, 4, 82, 100
6, 153480, Note_on_c, 4, 82, 0
6, 153480, Note_on_c, 4, 82, 100
6, 153510, Note_on_c, 4, 82, 0
6, 153510, Note_on_c, 4, 74, 100
6, 153540, Note_on_c, 4, 74, 0
6, 153540, Note_on_c, 4, 65, 100
6, 153570, Note_on_c, 4, 65, 0
6, 153570, Note_on_c, 4, 58, 100
6, 153600, Note_on_c, 4, 58, 0
6, 153600, Note_on_c, 4, 58, 100
6, 153630, Note_on_c, 4, 58, 0
6, 153630, Note_on_c, 4, 67, 100
6, 153660, Note_on_c, 4, 67, 0
6, 153660, Note_on_c, 4, 74, 100
6, 153690, Note_on_c, 4, 74, 0
6, 153690, Note_on_c, 4, 76, 100
6, 153720, Note_on_c, 4, 76, 0
6, 153720, Note_on_c, 4, 76, 100
6, 153750, Note_on_c, 4, 76, 0
6, 153750, Note_on_c, 4, 74, 100
6, 153780, Note_on_c, 4, 74, 0
6, 153780, Note_on_c, 4, 67, 100
6, 153810, Note_on_c, 4, 67, 0
6, 153810, Note_on_c, 4, 58, 100
6, 153840, Note_on_c, 4, 58, 0
6, 153840, Note_on_c, 4, 58, 100
6, 153870, Note_on_c, 4, 58, 0
6, 153870, Note_on_c, 4, 67, 100
6, 153900, Note_on_c, 4, 67, 0
6, 153900, Note_on_c, 4, 74, 100
6, 153930, Note_on_c, 4, 74, 0
6, 153930, Note_on_c, 4, 76, 100
6, 153960, Note_on_c, 4, 76, 0
6, 153960, Note_on_c, 4, 76, 100
6, 153990, Note_on_c, 4, 76, 0
6, 153990, Note_on_c, 4, 74, 100
6, 154020, Note_on_c, 4, 74, 0
6, 154020, Note_on_c, 4, 67, 100
6, 154050, Note_on_c, 4, 67, 0
6, 154050, Note_on_c, 4, 58, 100
6, 154080, Note_on_c, 4, 58, 0
6, 154080, Note_on_c, 4, 57, 100
6, 154110, Note_on_c, 4, 57, 0
6, 154110, Note_on_c, 4, 69, 100
6, 154140, Note_on_c, 4, 69, 0
6, 154140, Note_on_c, 4, 74, 100
6, 154170, Note_on_c, 4, 74, 0
6, 154170, Note_on_c, 4, 76, 100
6, 154200, Note_on_c, 4, 76, 0
6, 154200, Note_on_c, 4, 76, 100
6, 154230, Note_on_c, 4, 76, 0
6, 154230, Note_on_c, 4, 74, 100
6, 154260, Note_on_c, 4, 74, 0
6, 154260, Note_on_c, 4, 69, 100
6, 154290, Note_on_c, 4, 69, 0
6, 154290, Note_on_c, 4, 57, 100
6, 154320, Note_on_c, 4, 57, 0
6, 154320, Note_on_c, 4, 57, 100
6, 154350, Note_on_c, 4, 57, 0
6, 154350, Note_on_c, 4, 69, 100
6, 154380, Note_on_c, 4, 69, 0
6, 154380, Note_on_c, 4, 74, 100
6, 154410, Note_on_c, 4, 74, 0
6, 154410, Note_on_c, 4, 76, 100
6, 154440, Note_on_c, 4, 76, 0
6, 154440, Note_on_c, 4, 76, 100
6, 154470, Note_on_c, 4, 76, 0
6, 154470, Note_on_c, 4, 74, 100
6, 154500, Note_on_c, 4, 74, 0
6, 154500, Note_on_c, 4, 69, 100
6, 154530, Note_on_c, 4, 69, 0
6, 154530, Note_on_c, 4, 57, 100
6, 154560, Note_on_c, 4, 57, 0
6, 154560, Note_on_c, 4, 57, 100
6, 154590, Note_on_c, 4, 57, 0
6, 154590, Note_on_c, 4, 64, 100
6, 154620, Note_on_c, 4, 64, 0
6, 154620, Note_on_c, 4, 73, 100
6, 154650, Note_on_c, 4, 73, 0
6, 154650, Note_on_c, 4, 81, 100
6, 154680, Note_on_c, 4, 81, 0
6, 154680, Note_on_c, 4, 81, 100
6, 154710, Note_on_c, 4, 81, 0
6, 154710, Note_on_c, 4, 73, 100
6, 154740, Note_on_c, 4, 73, 0
6, 154740, Note_on_c, 4, 64, 100
6, 154770, Note_on_c, 4, 64, 0
6, 154770, Note_on_c, 4, 57, 100
6, 154800, Note_on_c, 4, 57, 0
6, 154800, Note_on_c, 4, 57, 100
6, 154830, Note_on_c, 4, 57, 0
6, 154830, Note_on_c, 4, 64, 100
6, 154860, Note_on_c, 4, 64, 0
6, 154860, Note_on_c, 4, 73, 100
6, 154890, Note_on_c, 4, 73, 0
6, 154890, Note_on_c, 4, 81, 100
6, 154920, Note_on_c, 4, 81, 0
6, 154920, Note_on_c, 4, 81, 100
6, 154950, Note_on_c, 4, 81, 0
6, 154950, Note_on_c, 4, 73, 100
6, 154980, Note_on_c, 4, 73, 0
6, 154980, Note_on_c, 4, 64, 100
6, 155010, Note_on_c, 4, 64, 0
6, 155010, Note_on_c, 4, 57, 100
6, 155040, Note_on_c, 4, 57, 0
6, 155040, Note_on_c, 4, 57, 100
6, 155070, Note_on_c, 4, 57, 0
6, 155070, Note_on_c, 4, 64, 100
6, 155100, Note_on_c, 4, 64, 0
6, 155100, Note_on_c, 4, 73, 100
6, 155130, Note_on_c, 4, 73, 0
6, 155130, Note_on_c, 4, 79, 100
6, 155160, Note_on_c, 4, 79, 0
6, 155160, Note_on_c, 4, 79, 100
6, 155190, Note_on_c, 4, 79, 0
6, 155190, Note_on_c, 4, 73, 100
6, 155220, Note_on_c, 4, 73, 0
6, 155220, Note_on_c, 4, 64, 100
6, 155250, Note_on_c, 4, 64, 0
6, 155250, Note_on_c, 4, 57, 100
6, 155280, Note_on_c, 4, 57, 0
6, 155280, Note_on_c, 4, 57, 100
6, 155310, Note_on_c, 4, 57, 0
6, 155310, Note_on_c, 4, 64, 100
6, 155340, Note_on_c, 4, 64, 0
6, 155340, Note_on_c, 4, 73, 100
6, 155370, Note_on_c, 4, 73, 0
6, 155370, Note_on_c, 4, 79, 100
6, 155400, Note_on_c, 4, 79, 0
6, 155400, Note_on_c, 4, 79, 100
6, 155430, Note_on_c, 4, 79, 0
6, 155430, Note_on_c, 4, 73, 100
6, 155460, Note_on_c, 4, 73, 0
6, 155460, Note_on_c, 4, 64, 100
6, 155490, Note_on_c, 4, 64, 0
6, 155490, Note_on_c, 4, 57, 100
6, 155520, Note_on_c, 4, 57, 0
6, 155520, Note_on_c, 4, 62, 100
6, 155554, Note_on_c, 4, 62, 0
6, 155554, Note_on_c, 4, 62, 100
6, 155588, Note_on_c, 4, 62, 0
6, 155588, Note_on_c, 4, 69, 100
6, 155622, Note_on_c, 4, 69, 0
6, 155622, Note_on_c, 4, 77, 100
6, 155656, Note_on_c, 4, 77, 0
6, 155656, Note_on_c, 4, 77, 100
6, 155690, Note_on_c, 4, 77, 0
6, 155692, Note_on_c, 4, 69, 100
6, 155726, Note_on_c, 4, 69, 0
6, 155726, Note_on_c, 4, 62, 100
6, 155760, Note_on_c, 4, 62, 0
6, 155760, Note_on_c, 4, 62, 100
6, 155800, Note_on_c, 4, 62, 0
6, 155800, Note_on_c, 4, 69, 100
6, 155840, Note_on_c, 4, 69, 0
6, 155840, Note_on_c, 4, 77, 100
6, 155880, Note_on_c, 4, 77, 0
6, 155880, Note_on_c, 4, 77, 100
6, 155920, Note_on_c, 4, 77, 0
6, 155920, Note_on_c, 4, 69, 100
6, 155960, Note_on_c, 4, 69, 0
6, 155960, Note_on_c, 4, 62, 100
6, 156000, Note_on_c, 4, 62, 0
6, 156000, Note_on_c, 4, 62, 100
6, 156034, Note_on_c, 4, 62, 0
6, 156034, Note_on_c, 4, 69, 100
6, 156068, Note_on_c, 4, 69, 0
6, 156068, Note_on_c, 4, 74, 100
6, 156102, Note_on_c, 4, 74, 0
6, 156102, Note_on_c, 4, 78, 100
6, 156136, Note_on_c, 4, 78, 0
6, 156136, Note_on_c, 4, 78, 100
6, 156170, Note_on_c, 4, 78, 0
6, 156172, Note_on_c, 4, 74, 100
6, 156206, Note_on_c, 4, 74, 0
6, 156206, Note_on_c, 4, 69, 100
6, 156240, Note_on_c, 4, 69, 0
6, 156240, Note_on_c, 4, 69, 100
6, 156280, Note_on_c, 4, 69, 0
6, 156280, Note_on_c, 4, 74, 100
6, 156320, Note_on_c, 4, 74, 0
6, 156320, Note_on_c, 4, 78, 100
6, 156360, Note_on_c, 4, 78, 0
6, 156360, Note_on_c, 4, 78, 100
6, 156400, Note_on_c, 4, 78, 0
6, 156400, Note_on_c, 4, 74, 100
6, 156440, Note_on_c, 4, 74, 0
6, 156440, Note_on_c, 4, 69, 100
6, 156480, Note_on_c, 4, 69, 0
6, 156480, Note_on_c, 4, 62, 100
6, 156520, Note_on_c, 4, 62, 0
6, 156520, Note_on_c, 4, 72, 100
6, 156560, Note_on_c, 4, 72, 0
6, 156560, Note_on_c, 4, 78, 100
6, 156600, Note_on_c, 4, 78, 0
6, 156600, Note_on_c, 4, 78, 100
6, 156640, Note_on_c, 4, 78, 0
6, 156640, Note_on_c, 4, 72, 100
6, 156680, Note_on_c, 4, 72, 0
6, 156680, Note_on_c, 4, 62, 100
6, 156720, Note_on_c, 4, 62, 0
6, 156720, Note_on_c, 4, 62, 100
6, 156760, Note_on_c, 4, 62, 0
6, 156760, Note_on_c, 4, 72, 100
6, 156800, Note_on_c, 4, 72, 0
6, 156800, Note_on_c, 4, 78, 100
6, 156840, Note_on_c, 4, 78, 0
6, 156840, Note_on_c, 4, 78, 100
6, 156880, Note_on_c, 4, 78, 0
6, 156880, Note_on_c, 4, 72, 100
6, 156920, Note_on_c, 4, 72, 0
6, 156920, Note_on_c, 4, 62, 100
6, 156960, Note_on_c, 4, 62, 0
6, 156960, Note_on_c, 4, 62, 100
6, 157000, Note_on_c, 4, 62, 0
6, 157000, Note_on_c, 4, 70, 100
6, 157040, Note_on_c, 4, 70, 0
6, 157040, Note_on_c, 4, 79, 100
6, 157080, Note_on_c, 4, 79, 0
6, 157080, Note_on_c, 4, 79, 100
6, 157120, Note_on_c, 4, 79, 0
6, 157120, Note_on_c, 4, 70, 100
6, 157160, Note_on_c, 4, 70, 0
6, 157160, Note_on_c, 4, 62, 100
6, 157200, Note_on_c, 4, 62, 0
6, 157200, Note_on_c, 4, 62, 100
6, 157240, Note_on_c, 4, 62, 0
6, 157240, Note_on_c, 4, 70, 100
6, 157280, Note_on_c, 4, 70, 0
6, 157280, Note_on_c, 4, 79, 100
6, 157320, Note_on_c, 4, 79, 0
6, 157320, Note_on_c, 4, 79, 100
6, 157360, Note_on_c, 4, 79, 0
6, 157360, Note_on_c, 4, 70, 100
6, 157400, Note_on_c, 4, 70, 0
6, 157400, Note_on_c, 4, 62, 100
6, 157440, Note_on_c, 4, 62, 0
6, 157440, Note_on_c, 4, 62, 100
6, 157480, Note_on_c, 4, 62, 0
6, 157480, Note_on_c, 4, 71, 100
6, 157520, Note_on_c, 4, 71, 0
6, 157520, Note_on_c, 4, 80, 100
6, 157560, Note_on_c, 4, 80, 0
6, 157560, Note_on_c, 4, 80, 100
6, 157600, Note_on_c, 4, 80, 0
6, 157600, Note_on_c, 4, 71, 100
6, 157640, Note_on_c, 4, 71, 0
6, 157640, Note_on_c, 4, 62, 100
6, 157680, Note_on_c, 4, 62, 0
6, 157680, Note_on_c, 4, 62, 100
6, 157720, Note_on_c, 4, 62, 0
6, 157720, Note_on_c, 4, 71, 100
6, 157760, Note_on_c, 4, 71, 0
6, 157760, Note_on_c, 4, 80, 100
6, 157800, Note_on_c, 4, 80, 0
6, 157800, Note_on_c, 4, 80, 100
6, 157840, Note_on_c, 4, 80, 0
6, 157840, Note_on_c, 4, 71, 100
6, 157880, Note_on_c, 4, 71, 0
6, 157880, Note_on_c, 4, 62, 100
6, 157920, Note_on_c, 4, 62, 0
6, 157920, Note_on_c, 4, 64, 100
6, 157960, Note_on_c, 4, 64, 0
6, 157960, Note_on_c, 4, 74, 100
6, 158000, Note_on_c, 4, 74, 0
6, 158000, Note_on_c, 4, 80, 100
6, 158040, Note_on_c, 4, 80, 0
6, 158040, Note_on_c, 4, 80, 100
6, 158080, Note_on_c, 4, 80, 0
6, 158080, Note_on_c, 4, 74, 100
6, 158120, Note_on_c, 4, 74, 0
6, 158120, Note_on_c, 4, 64, 100
6, 158160, Note_on_c, 4, 64, 0
6, 158160, Note_on_c, 4, 64, 100
6, 158200, Note_on_c, 4, 64, 0
6, 158200, Note_on_c, 4, 74, 100
6, 158240, Note_on_c, 4, 74, 0
6, 158240, Note_on_c, 4, 80, 100
6, 158280, Note_on_c, 4, 80, 0
6, 158280, Note_on_c, 4, 80, 100
6, 158320, Note_on_c, 4, 80, 0
6, 158320, Note_on_c, 4, 74, 100
6, 158360, Note_on_c, 4, 74, 0
6, 158360, Note_on_c, 4, 64, 100
6, 158400, Note_on_c, 4, 64, 0
6, 158400, Note_on_c, 4, 65, 100
6, 158440, Note_on_c, 4, 65, 0
6, 158440, Note_on_c, 4, 72, 100
6, 158480, Note_on_c, 4, 72, 0
6, 158480, Note_on_c, 4, 81, 100
6, 158520, Note_on_c, 4, 81, 0
6, 158520, Note_on_c, 4, 81, 100
6, 158560, Note_on_c, 4, 81, 0
6, 158560, Note_on_c, 4, 72, 100
6, 158600, Note_on_c, 4, 72, 0
6, 158600, Note_on_c, 4, 65, 100
6, 158640, Note_on_c, 4, 65, 0
6, 158640, Note_on_c, 4, 65, 100
6, 158680, Note_on_c, 4, 65, 0
6, 158680, Note_on_c, 4, 72, 100
6, 158720, Note_on_c, 4, 72, 0
6, 158720, Note_on_c, 4, 81, 100
6, 158760, Note_on_c, 4, 81, 0
6, 158760, Note_on_c, 4, 81, 100
6, 158800, Note_on_c, 4, 81, 0
6, 158800, Note_on_c, 4, 72, 100
6, 158840, Note_on_c, 4, 72, 0
6, 158840, Note_on_c, 4, 65, 100
6, 158880, Note_on_c, 4, 65, 0
6, 158880, Note_on_c, 4, 66, 100
6, 158920, Note_on_c, 4, 66, 0
6, 158920, Note_on_c, 4, 75, 100
6, 158960, Note_on_c, 4, 75, 0
6, 158960, Note_on_c, 4, 84, 100
6, 159000, Note_on_c, 4, 84, 0
6, 159000, Note_on_c, 4, 84, 100
6, 159040, Note_on_c, 4, 84, 0
6, 159040, Note_on_c, 4, 75, 100
6, 159080, Note_on_c, 4, 75, 0
6, 159080, Note_on_c, 4, 66, 100
6, 159120, Note_on_c, 4, 66, 0
6, 159120, Note_on_c, 4, 66, 100
6, 159160, Note_on_c, 4, 66, 0
6, 159160, Note_on_c, 4, 75, 100
6, 159200, Note_on_c, 4, 75, 0
6, 159200, Note_on_c, 4, 84, 100
6, 159240, Note_on_c, 4, 84, 0
6, 159240, Note_on_c, 4, 84, 100
6, 159280, Note_on_c, 4, 84, 0
6, 159280, Note_on_c, 4, 75, 100
6, 159320, Note_on_c, 4, 75, 0
6, 159320, Note_on_c, 4, 66, 100
6, 159360, Note_on_c, 4, 66, 0
6, 159360, Note_on_c, 4, 67, 100
6, 159400, Note_on_c, 4, 67, 0
6, 159400, Note_on_c, 4, 74, 100
6, 159440, Note_on_c, 4, 74, 0
6, 159440, Note_on_c, 4, 83, 100
6, 159480, Note_on_c, 4, 83, 0
6, 159480, Note_on_c, 4, 83, 100
6, 159520, Note_on_c, 4, 83, 0
6, 159520, Note_on_c, 4, 74, 100
6, 159560, Note_on_c, 4, 74, 0
6, 159560, Note_on_c, 4, 67, 100
6, 159600, Note_on_c, 4, 67, 0
6, 159600, Note_on_c, 4, 67, 100
6, 159640, Note_on_c, 4, 67, 0
6, 159640, Note_on_c, 4, 74, 100
6, 159680, Note_on_c, 4, 74, 0
6, 159680, Note_on_c, 4, 83, 100
6, 159720, Note_on_c, 4, 83, 0
6, 159720, Note_on_c, 4, 83, 100
6, 159760, Note_on_c, 4, 83, 0
6, 159760, Note_on_c, 4, 74, 100
6, 159800, Note_on_c, 4, 74, 0
6, 159800, Note_on_c, 4, 67, 100
6, 159840, Note_on_c, 4, 67, 0
6, 159840, Note_on_c, 4, 68, 100
6, 159880, Note_on_c, 4, 68, 0
6, 159880, Note_on_c, 4, 77, 100
6, 159920, Note_on_c, 4, 77, 0
6, 159920, Note_on_c, 4, 86, 100
6, 159960, Note_on_c, 4, 86, 0
6, 159960, Note_on_c, 4, 86, 100
6, 160000, Note_on_c, 4, 86, 0
6, 160000, Note_on_c, 4, 77, 100
6, 160040, Note_on_c, 4, 77, 0
6, 160040, Note_on_c, 4, 68, 100
6, 160080, Note_on_c, 4, 68, 0
6, 160080, Note_on_c, 4, 68, 100
6, 160120, Note_on_c, 4, 68, 0
6, 160120, Note_on_c, 4, 77, 100
6, 160160, Note_on_c, 4, 77, 0
6, 160160, Note_on_c, 4, 86, 100
6, 160200, Note_on_c, 4, 86, 0
6, 160200, Note_on_c, 4, 86, 100
6, 160240, Note_on_c, 4, 86, 0
6, 160240, Note_on_c, 4, 77, 100
6, 160280, Note_on_c, 4, 77, 0
6, 160280, Note_on_c, 4, 68, 100
6, 160320, Note_on_c, 4, 68, 0
6, 160320, Note_on_c, 4, 69, 100
6, 160360, Note_on_c, 4, 69, 0
6, 160360, Note_on_c, 4, 76, 100
6, 160400, Note_on_c, 4, 76, 0
6, 160400, Note_on_c, 4, 86, 100
6, 160440, Note_on_c, 4, 86, 0
6, 160440, Note_on_c, 4, 86, 100
6, 160480, Note_on_c, 4, 86, 0
6, 160480, Note_on_c, 4, 76, 100
6, 160520, Note_on_c, 4, 76, 0
6, 160520, Note_on_c, 4, 69, 100
6, 160560, Note_on_c, 4, 69, 0
6, 160560, Note_on_c, 4, 69, 100
6, 160600, Note_on_c, 4, 69, 0
6, 160600, Note_on_c, 4, 76, 100
6, 160640, Note_on_c, 4, 76, 0
6, 160640, Note_on_c, 4, 86, 100
6, 160680, Note_on_c, 4, 86, 0
6, 160680, Note_on_c, 4, 86, 100
6, 160720, Note_on_c, 4, 86, 0
6, 160720, Note_on_c, 4, 76, 100
6, 160760, Note_on_c, 4, 76, 0
6, 160760, Note_on_c, 4, 69, 100
6, 160800, Note_on_c, 4, 69, 0
6, 160800, Note_on_c, 4, 69, 100
6, 160840, Note_on_c, 4, 69, 0
6, 160840, Note_on_c, 4, 76, 100
6, 160880, Note_on_c, 4, 76, 0
6, 160880, Note_on_c, 4, 85, 100
6, 160920, Note_on_c, 4, 85, 0
6, 160920, Note_on_c, 4, 85, 100
6, 160960, Note_on_c, 4, 85, 0
6, 160960, Note_on_c, 4, 76, 100
6, 161000, Note_on_c, 4, 76, 0
6, 161000, Note_on_c, 4, 69, 100
6, 161040, Note_on_c, 4, 69, 0
6, 161040, Note_on_c, 4, 69, 100
6, 161080, Note_on_c, 4, 69, 0
6, 161080, Note_on_c, 4, 76, 100
6, 161120, Note_on_c, 4, 76, 0
6, 161120, Note_on_c, 4, 85, 100
6, 161160, Note_on_c, 4, 85, 0
6, 161160, Note_on_c, 4, 85, 100
6, 161200, Note_on_c, 4, 85, 0
6, 161200, Note_on_c, 4, 76, 100
6, 161240, Note_on_c, 4, 76, 0
6, 161240, Note_on_c, 4, 69, 100
6, 161280, Note_on_c, 4, 69, 0
6, 161280, Note_on_c, 4, 62, 100
6, 161320, Note_on_c, 4, 62, 0
6, 161320, Note_on_c, 4, 77, 100
6, 161360, Note_on_c, 4, 77, 0
6, 161360, Note_on_c, 4, 86, 100
6, 161400, Note_on_c, 4, 86, 0
6, 161400, Note_on_c, 4, 86, 100
6, 161440, Note_on_c, 4, 86, 0
6, 161440, Note_on_c, 4, 77, 100
6, 161480, Note_on_c, 4, 77, 0
6, 161480, Note_on_c, 4, 62, 100
6, 161520, Note_on_c, 4, 62, 0
6, 161520, Note_on_c, 4, 62, 100
6, 161560, Note_on_c, 4, 62, 0
6, 161560, Note_on_c, 4, 77, 100
6, 161600, Note_on_c, 4, 77, 0
6, 161600, Note_on_c, 4, 86, 100
6, 161640, Note_on_c, 4, 86, 0
6, 161640, Note_on_c, 4, 86, 100
6, 161680, Note_on_c, 4, 86, 0
6, 161680, Note_on_c, 4, 77, 100
6, 161720, Note_on_c, 4, 77, 0
6, 161720, Note_on_c, 4, 62, 100
6, 161760, Note_on_c, 4, 62, 0
6, 161760, Note_on_c, 4, 70, 100
6, 161800, Note_on_c, 4, 70, 0
6, 161800, Note_on_c, 4, 77, 100
6, 161840, Note_on_c, 4, 77, 0
6, 161840, Note_on_c, 4, 86, 100
6, 161880, Note_on_c, 4, 86, 0
6, 161880, Note_on_c, 4, 86, 100
6, 161920, Note_on_c, 4, 86, 0
6, 161920, Note_on_c, 4, 77, 100
6, 161960, Note_on_c, 4, 77, 0
6, 161960, Note_on_c, 4, 70, 100
6, 162000, Note_on_c, 4, 70, 0
6, 162000, Note_on_c, 4, 70, 100
6, 162040, Note_on_c, 4, 70, 0
6, 162040, Note_on_c, 4, 77, 100
6, 162080, Note_on_c, 4, 77, 0
6, 162080, Note_on_c, 4, 86, 100
6, 162120, Note_on_c, 4, 86, 0
6, 162120, Note_on_c, 4, 86, 100
6, 162160, Note_on_c, 4, 86, 0
6, 162160, Note_on_c, 4, 77, 100
6, 162200, Note_on_c, 4, 77, 0
6, 162200, Note_on_c, 4, 70, 100
6, 162240, Note_on_c, 4, 70, 0
6, 162240, Note_on_c, 4, 69, 100
6, 162280, Note_on_c, 4, 69, 0
6, 162280, Note_on_c, 4, 77, 100
6, 162320, Note_on_c, 4, 77, 0
6, 162320, Note_on_c, 4, 86, 100
6, 162360, Note_on_c, 4, 86, 0
6, 162360, Note_on_c, 4, 86, 100
6, 162400, Note_on_c, 4, 86, 0
6, 162400, Note_on_c, 4, 77, 100
6, 162440, Note_on_c, 4, 77, 0
6, 162440, Note_on_c, 4, 69, 100
6, 162480, Note_on_c, 4, 69, 0
6, 162480, Note_on_c, 4, 69, 100
6, 162520, Note_on_c, 4, 69, 0
6, 162520, Note_on_c, 4, 77, 100
6, 162560, Note_on_c, 4, 77, 0
6, 162560, Note_on_c, 4, 86, 100
6, 162600, Note_on_c, 4, 86, 0
6, 162600, Note_on_c, 4, 86, 100
6, 162640, Note_on_c, 4, 86, 0
6, 162640, Note_on_c, 4, 77, 100
6, 162680, Note_on_c, 4, 77, 0
6, 162680, Note_on_c, 4, 69, 100
6, 162720, Note_on_c, 4, 69, 0
6, 162720, Note_on_c, 4, 68, 100
6, 162760, Note_on_c, 4, 68, 0
6, 162760, Note_on_c, 4, 76, 100
6, 162800, Note_on_c, 4, 76, 0
6, 162800, Note_on_c, 4, 86, 100
6, 162840, Note_on_c, 4, 86, 0
6, 162840, Note_on_c, 4, 86, 100
6, 162880, Note_on_c, 4, 86, 0
6, 162880, Note_on_c, 4, 76, 100
6, 162920, Note_on_c, 4, 76, 0
6, 162920, Note_on_c, 4, 68, 100
6, 162960, Note_on_c, 4, 68, 0
6, 162960, Note_on_c, 4, 68, 100
6, 163000, Note_on_c, 4, 68, 0
6, 163000, Note_on_c, 4, 76, 100
6, 163040, Note_on_c, 4, 76, 0
6, 163040, Note_on_c, 4, 86, 100
6, 163080, Note_on_c, 4, 86, 0
6, 163080, Note_on_c, 4, 86, 100
6, 163120, Note_on_c, 4, 86, 0
6, 163120, Note_on_c, 4, 76, 100
6, 163160, Note_on_c, 4, 76, 0
6, 163160, Note_on_c, 4, 68, 100
6, 163200, Note_on_c, 4, 68, 0
6, 163200, Note_on_c, 4, 69, 100
6, 163240, Note_on_c, 4, 69, 0
6, 163240, Note_on_c, 4, 76, 100
6, 163280, Note_on_c, 4, 76, 0
6, 163280, Note_on_c, 4, 85, 100
6, 163320, Note_on_c, 4, 85, 0
6, 163320, Note_on_c, 4, 85, 100
6, 163360, Note_on_c, 4, 85, 0
6, 163360, Note_on_c, 4, 76, 100
6, 163400, Note_on_c, 4, 76, 0
6, 163400, Note_on_c, 4, 69, 100
6, 163440, Note_on_c, 4, 69, 0
6, 163440, Note_on_c, 4, 69, 100
6, 163480, Note_on_c, 4, 69, 0
6, 163480, Note_on_c, 4, 76, 100
6, 163520, Note_on_c, 4, 76, 0
6, 163520, Note_on_c, 4, 85, 100
6, 163560, Note_on_c, 4, 85, 0
6, 163560, Note_on_c, 4, 85, 100
6, 163600, Note_on_c, 4, 85, 0
6, 163600, Note_on_c, 4, 76, 100
6, 163640, Note_on_c, 4, 76, 0
6, 163640, Note_on_c, 4, 69, 100
6, 163680, Note_on_c, 4, 69, 0
6, 163680, Note_on_c, 4, 67, 100
6, 163720, Note_on_c, 4, 67, 0
6, 163720, Note_on_c, 4, 76, 100
6, 163760, Note_on_c, 4, 76, 0
6, 163760, Note_on_c, 4, 85, 100
6, 163800, Note_on_c, 4, 85, 0
6, 163800, Note_on_c, 4, 85, 100
6, 163840, Note_on_c, 4, 85, 0
6, 163840, Note_on_c, 4, 76, 100
6, 163880, Note_on_c, 4, 76, 0
6, 163880, Note_on_c, 4, 67, 100
6, 163920, Note_on_c, 4, 67, 0
6, 163920, Note_on_c, 4, 67, 100
6, 163960, Note_on_c, 4, 67, 0
6, 163960, Note_on_c, 4, 76, 100
6, 164000, Note_on_c, 4, 76, 0
6, 164000, Note_on_c, 4, 85, 100
6, 164040, Note_on_c, 4, 85, 0
6, 164040, Note_on_c, 4, 85, 100
6, 164080, Note_on_c, 4, 85, 0
6, 164080, Note_on_c, 4, 76, 100
6, 164120, Note_on_c, 4, 76, 0
6, 164120, Note_on_c, 4, 67, 100
6, 164160, Note_on_c, 4, 67, 0
6, 164160, Note_on_c, 4, 66, 100
6, 164200, Note_on_c, 4, 66, 0
6, 164200, Note_on_c, 4, 74, 100
6, 164240, Note_on_c, 4, 74, 0
6, 164240, Note_on_c, 4, 84, 100
6, 164280, Note_on_c, 4, 84, 0
6, 164280, Note_on_c, 4, 84, 100
6, 164320, Note_on_c, 4, 84, 0
6, 164320, Note_on_c, 4, 74, 100
6, 164360, Note_on_c, 4, 74, 0
6, 164360, Note_on_c, 4, 66, 100
6, 164400, Note_on_c, 4, 66, 0
6, 164400, Note_on_c, 4, 66, 100
6, 164440, Note_on_c, 4, 66, 0
6, 164440, Note_on_c, 4, 74, 100
6, 164480, Note_on_c, 4, 74, 0
6, 164480, Note_on_c, 4, 84, 100
6, 164520, Note_on_c, 4, 84, 0
6, 164520, Note_on_c, 4, 84, 100
6, 164560, Note_on_c, 4, 84, 0
6, 164560, Note_on_c, 4, 74, 100
6, 164600, Note_on_c, 4, 74, 0
6, 164600, Note_on_c, 4, 66, 100
6, 164640, Note_on_c, 4, 66, 0
6, 164640, Note_on_c, 4, 67, 100
6, 164680, Note_on_c, 4, 67, 0
6, 164680, Note_on_c, 4, 74, 100
6, 164720, Note_on_c, 4, 74, 0
6, 164720, Note_on_c, 4, 83, 100
6, 164760, Note_on_c, 4, 83, 0
6, 164760, Note_on_c, 4, 83, 100
6, 164800, Note_on_c, 4, 83, 0
6, 164800, Note_on_c, 4, 74, 100
6, 164840, Note_on_c, 4, 74, 0
6, 164840, Note_on_c, 4, 67, 100
6, 164880, Note_on_c, 4, 67, 0
6, 164880, Note_on_c, 4, 67, 100
6, 164920, Note_on_c, 4, 67, 0
6, 164920, Note_on_c, 4, 74, 100
6, 164960, Note_on_c, 4, 74, 0
6, 164960, Note_on_c, 4, 83, 100
6, 165000, Note_on_c, 4, 83, 0
6, 165000, Note_on_c, 4, 83, 100
6, 165040, Note_on_c, 4, 83, 0
6, 165040, Note_on_c, 4, 74, 100
6, 165080, Note_on_c, 4, 74, 0
6, 165080, Note_on_c, 4, 67, 100
6, 165120, Note_on_c, 4, 67, 0
6, 165120, Note_on_c, 4, 65, 100
6, 165160, Note_on_c, 4, 65, 0
6, 165160, Note_on_c, 4, 74, 100
6, 165200, Note_on_c, 4, 74, 0
6, 165200, Note_on_c, 4, 83, 100
6, 165240, Note_on_c, 4, 83, 0
6, 165240, Note_on_c, 4, 83, 100
6, 165280, Note_on_c, 4, 83, 0
6, 165280, Note_on_c, 4, 74, 100
6, 165320, Note_on_c, 4, 74, 0
6, 165320, Note_on_c, 4, 65, 100
6, 165360, Note_on_c, 4, 65, 0
6, 165360, Note_on_c, 4, 65, 100
6, 165400, Note_on_c, 4, 65, 0
6, 165400, Note_on_c, 4, 74, 100
6, 165440, Note_on_c, 4, 74, 0
6, 165440, Note_on_c, 4, 83, 100
6, 165480, Note_on_c, 4, 83, 0
6, 165480, Note_on_c, 4, 83, 100
6, 165520, Note_on_c, 4, 83, 0
6, 165520, Note_on_c, 4, 74, 100
6, 165560, Note_on_c, 4, 74, 0
6, 165560, Note_on_c, 4, 65, 100
6, 165600, Note_on_c, 4, 65, 0
6, 165600, Note_on_c, 4, 64, 100
6, 165640, Note_on_c, 4, 64, 0
6, 165640, Note_on_c, 4, 73, 100
6, 165680, Note_on_c, 4, 73, 0
6, 165680, Note_on_c, 4, 82, 100
6, 165720, Note_on_c, 4, 82, 0
6, 165720, Note_on_c, 4, 82, 100
6, 165760, Note_on_c, 4, 82, 0
6, 165760, Note_on_c, 4, 73, 100
6, 165800, Note_on_c, 4, 73, 0
6, 165800, Note_on_c, 4, 64, 100
6, 165840, Note_on_c, 4, 64, 0
6, 165840, Note_on_c, 4, 64, 100
6, 165880, Note_on_c, 4, 64, 0
6, 165880, Note_on_c, 4, 73, 100
6, 165920, Note_on_c, 4, 73, 0
6, 165920, Note_on_c, 4, 82, 100
6, 165960, Note_on_c, 4, 82, 0
6, 165960, Note_on_c, 4, 82, 100
6, 166000, Note_on_c, 4, 82, 0
6, 166000, Note_on_c, 4, 73, 100
6, 166040, Note_on_c, 4, 73, 0
6, 166040, Note_on_c, 4, 64, 100
6, 166080, Note_on_c, 4, 64, 0
6, 166080, Note_on_c, 4, 65, 100
6, 166120, Note_on_c, 4, 65, 0
6, 166120, Note_on_c, 4, 74, 100
6, 166160, Note_on_c, 4, 74, 0
6, 166160, Note_on_c, 4, 81, 100
6, 166200, Note_on_c, 4, 81, 0
6, 166200, Note_on_c, 4, 81, 100
6, 166240, Note_on_c, 4, 81, 0
6, 166240, Note_on_c, 4, 74, 100
6, 166280, Note_on_c, 4, 74, 0
6, 166280, Note_on_c, 4, 65, 100
6, 166320, Note_on_c, 4, 65, 0
6, 166320, Note_on_c, 4, 65, 100
6, 166360, Note_on_c, 4, 65, 0
6, 166360, Note_on_c, 4, 74, 100
6, 166400, Note_on_c, 4, 74, 0
6, 166400, Note_on_c, 4, 81, 100
6, 166440, Note_on_c, 4, 81, 0
6, 166440, Note_on_c, 4, 81, 100
6, 166480, Note_on_c, 4, 81, 0
6, 166480, Note_on_c, 4, 74, 100
6, 166520, Note_on_c, 4, 74, 0
6, 166520, Note_on_c, 4, 65, 100
6, 166560, Note_on_c, 4, 65, 0
6, 166560, Note_on_c, 4, 67, 100
6, 166600, Note_on_c, 4, 67, 0
6, 166600, Note_on_c, 4, 73, 100
6, 166640, Note_on_c, 4, 73, 0
6, 166640, Note_on_c, 4, 79, 100
6, 166680, Note_on_c, 4, 79, 0
6, 166680, Note_on_c, 4, 79, 100
6, 166720, Note_on_c, 4, 79, 0
6, 166720, Note_on_c, 4, 73, 100
6, 166760, Note_on_c, 4, 73, 0
6, 166760, Note_on_c, 4, 67, 100
6, 166800, Note_on_c, 4, 67, 0
6, 166800, Note_on_c, 4, 67, 100
6, 166840, Note_on_c, 4, 67, 0
6, 166840, Note_on_c, 4, 73, 100
6, 166880, Note_on_c, 4, 73, 0
6, 166880, Note_on_c, 4, 79, 100
6, 166920, Note_on_c, 4, 79, 0
6, 166920, Note_on_c, 4, 79, 100
6, 166960, Note_on_c, 4, 79, 0
6, 166960, Note_on_c, 4, 73, 100
6, 167000, Note_on_c, 4, 73, 0
6, 167000, Note_on_c, 4, 67, 100
6, 167040, Note_on_c, 4, 67, 0
6, 167040, Note_on_c, 4, 62, 100
6, 167080, Note_on_c, 4, 62, 0
6, 167080, Note_on_c, 4, 74, 100
6, 167120, Note_on_c, 4, 74, 0
6, 167120, Note_on_c, 4, 78, 100
6, 167160, Note_on_c, 4, 78, 0
6, 167160, Note_on_c, 4, 78, 100
6, 167200, Note_on_c, 4, 78, 0
6, 167200, Note_on_c, 4, 74, 100
6, 167240, Note_on_c, 4, 74, 0
6, 167240, Note_on_c, 4, 62, 100
6, 167280, Note_on_c, 4, 62, 0
6, 167280, Note_on_c, 4, 62, 100
6, 167320, Note_on_c, 4, 62, 0
6, 167320, Note_on_c, 4, 74, 100
6, 167360, Note_on_c, 4, 74, 0
6, 167360, Note_on_c, 4, 78, 100
6, 167400, Note_on_c, 4, 78, 0
6, 167400, Note_on_c, 4, 78, 100
6, 167440, Note_on_c, 4, 78, 0
6, 167440, Note_on_c, 4, 74, 100
6, 167480, Note_on_c, 4, 74, 0
6, 167480, Note_on_c, 4, 62, 100
6, 167520, Note_on_c, 4, 62, 0
6, 167520, Note_on_c, 4, 57, 100
6, 167552, Note_on_c, 4, 57, 0
6, 167554, Note_on_c, 4, 69, 100
6, 167586, Note_on_c, 4, 69, 0
6, 167588, Note_on_c, 4, 72, 100
6, 167620, Note_on_c, 4, 72, 0
6, 167622, Note_on_c, 4, 77, 100
6, 167654, Note_on_c, 4, 77, 0
6, 167656, Note_on_c, 4, 77, 100
6, 167688, Note_on_c, 4, 77, 0
6, 167692, Note_on_c, 4, 72, 100
6, 167724, Note_on_c, 4, 72, 0
6, 167726, Note_on_c, 4, 69, 100
6, 167758, Note_on_c, 4, 69, 0
6, 167760, Note_on_c, 4, 69, 100
6, 167800, Note_on_c, 4, 69, 0
6, 167800, Note_on_c, 4, 72, 100
6, 167840, Note_on_c, 4, 72, 0
6, 167840, Note_on_c, 4, 77, 100
6, 167880, Note_on_c, 4, 77, 0
6, 167880, Note_on_c, 4, 77, 100
6, 167920, Note_on_c, 4, 77, 0
6, 167920, Note_on_c, 4, 72, 100
6, 167960, Note_on_c, 4, 72, 0
6, 167960, Note_on_c, 4, 69, 100
6, 168000, Note_on_c, 4, 69, 0
6, 168000, Note_on_c, 4, 59, 100
6, 168034, Note_on_c, 4, 59, 0
6, 168034, Note_on_c, 4, 67, 100
6, 168068, Note_on_c, 4, 67, 0
6, 168068, Note_on_c, 4, 74, 100
6, 168102, Note_on_c, 4, 74, 0
6, 168102, Note_on_c, 4, 77, 100
6, 168136, Note_on_c, 4, 77, 0
6, 168136, Note_on_c, 4, 77, 100
6, 168170, Note_on_c, 4, 77, 0
6, 168172, Note_on_c, 4, 74, 100
6, 168206, Note_on_c, 4, 74, 0
6, 168206, Note_on_c, 4, 67, 100
6, 168240, Note_on_c, 4, 67, 0
6, 168240, Note_on_c, 4, 67, 100
6, 168280, Note_on_c, 4, 67, 0
6, 168280, Note_on_c, 4, 74, 100
6, 168320, Note_on_c, 4, 74, 0
6, 168320, Note_on_c, 4, 77, 100
6, 168360, Note_on_c, 4, 77, 0
6, 168360, Note_on_c, 4, 77, 100
6, 168400, Note_on_c, 4, 77, 0
6, 168400, Note_on_c, 4, 74, 100
6, 168440, Note_on_c, 4, 74, 0
6, 168440, Note_on_c, 4, 67, 100
6, 168480, Note_on_c, 4, 67, 0
6, 168480, Note_on_c, 4, 60, 100
6, 168514, Note_on_c, 4, 60, 0
6, 168514, Note_on_c, 4, 67, 100
6, 168548, Note_on_c, 4, 67, 0
6, 168548, Note_on_c, 4, 72, 100
6, 168582, Note_on_c, 4, 72, 0
6, 168582, Note_on_c, 4, 76, 100
6, 168616, Note_on_c, 4, 76, 0
6, 168616, Note_on_c, 4, 76, 100
6, 168650, Note_on_c, 4, 76, 0
6, 168650, Note_on_c, 4, 72, 100
6, 168684, Note_on_c, 4, 72, 0
6, 168684, Note_on_c, 4, 67, 100
6, 168718, Note_on_c, 4, 67, 0
6, 168720, Note_on_c, 4, 67, 100
6, 168760, Note_on_c, 4, 67, 0
6, 168760, Note_on_c, 4, 72, 100
6, 168800, Note_on_c, 4, 72, 0
6, 168800, Note_on_c, 4, 76, 100
6, 168840, Note_on_c, 4, 76, 0
6, 168840, Note_on_c, 4, 76, 100
6, 168880, Note_on_c, 4, 76, 0
6, 168880, Note_on_c, 4, 72, 100
6, 168920, Note_on_c, 4, 72, 0
6, 168920, Note_on_c, 4, 67, 100
6, 168960, Note_on_c, 4, 67, 0
6, 168960, Note_on_c, 4, 55, 100
6, 169000, Note_on_c, 4, 55, 0
6, 169000, Note_on_c, 4, 67, 100
6, 169040, Note_on_c, 4, 67, 0
6, 169040, Note_on_c, 4, 75, 100
6, 169080, Note_on_c, 4, 75, 0
6, 169080, Note_on_c, 4, 75, 100
6, 169120, Note_on_c, 4, 75, 0
6, 169120, Note_on_c, 4, 67, 100
6, 169160, Note_on_c, 4, 67, 0
6, 169160, Note_on_c, 4, 55, 100
6, 169200, Note_on_c, 4, 55, 0
6, 169200, Note_on_c, 4, 55, 100
6, 169240, Note_on_c, 4, 55, 0
6, 169240, Note_on_c, 4, 67, 100
6, 169280, Note_on_c, 4, 67, 0
6, 169280, Note_on_c, 4, 75, 100
6, 169320, Note_on_c, 4, 75, 0
6, 169320, Note_on_c, 4, 75, 100
6, 169360, Note_on_c, 4, 75, 0
6, 169360, Note_on_c, 4, 67, 100
6, 169400, Note_on_c, 4, 67, 0
6, 169400, Note_on_c, 4, 55, 100
6, 169440, Note_on_c, 4, 55, 0
6, 169440, Note_on_c, 4, 57, 100
6, 169480, Note_on_c, 4, 57, 0
6, 169480, Note_on_c, 4, 65, 100
6, 169520, Note_on_c, 4, 65, 0
6, 169520, Note_on_c, 4, 75, 100
6, 169560, Note_on_c, 4, 75, 0
6, 169560, Note_on_c, 4, 75, 100
6, 169600, Note_on_c, 4, 75, 0
6, 169600, Note_on_c, 4, 65, 100
6, 169640, Note_on_c, 4, 65, 0
6, 169640, Note_on_c, 4, 57, 100
6, 169680, Note_on_c, 4, 57, 0
6, 169680, Note_on_c, 4, 57, 100
6, 169720, Note_on_c, 4, 57, 0
6, 169720, Note_on_c, 4, 65, 100
6, 169760, Note_on_c, 4, 65, 0
6, 169760, Note_on_c, 4, 75, 100
6, 169800, Note_on_c, 4, 75, 0
6, 169800, Note_on_c, 4, 75, 100
6, 169840, Note_on_c, 4, 75, 0
6, 169840, Note_on_c, 4, 65, 100
6, 169880, Note_on_c, 4, 65, 0
6, 169880, Note_on_c, 4, 57, 100
6, 169920, Note_on_c, 4, 57, 0
6, 169920, Note_on_c, 4, 58, 100
6, 169960, Note_on_c, 4, 58, 0
6, 169960, Note_on_c, 4, 65, 100
6, 170000, Note_on_c, 4, 65, 0
6, 170000, Note_on_c, 4, 74, 100
6, 170040, Note_on_c, 4, 74, 0
6, 170040, Note_on_c, 4, 74, 100
6, 170080, Note_on_c, 4, 74, 0
6, 170080, Note_on_c, 4, 65, 100
6, 170120, Note_on_c, 4, 65, 0
6, 170120, Note_on_c, 4, 58, 100
6, 170160, Note_on_c, 4, 58, 0
6, 170160, Note_on_c, 4, 58, 100
6, 170200, Note_on_c, 4, 58, 0
6, 170200, Note_on_c, 4, 65, 100
6, 170240, Note_on_c, 4, 65, 0
6, 170240, Note_on_c, 4, 74, 100
6, 170280, Note_on_c, 4, 74, 0
6, 170280, Note_on_c, 4, 74, 100
6, 170320, Note_on_c, 4, 74, 0
6, 170320, Note_on_c, 4, 65, 100
6, 170360, Note_on_c, 4, 65, 0
6, 170360, Note_on_c, 4, 58, 100
6, 170400, Note_on_c, 4, 58, 0
6, 170400, Note_on_c, 4, 58, 100
6, 170440, Note_on_c, 4, 58, 0
6, 170440, Note_on_c, 4, 67, 100
6, 170480, Note_on_c, 4, 67, 0
6, 170480, Note_on_c, 4, 74, 100
6, 170520, Note_on_c, 4, 74, 0
6, 170520, Note_on_c, 4, 74, 100
6, 170560, Note_on_c, 4, 74, 0
6, 170560, Note_on_c, 4, 67, 100
6, 170600, Note_on_c, 4, 67, 0
6, 170600, Note_on_c, 4, 58, 100
6, 170640, Note_on_c, 4, 58, 0
6, 170640, Note_on_c, 4, 58, 100
6, 170680, Note_on_c, 4, 58, 0
6, 170680, Note_on_c, 4, 67, 100
6, 170720, Note_on_c, 4, 67, 0
6, 170720, Note_on_c, 4, 74, 100
6, 170760, Note_on_c, 4, 74, 0
6, 170760, Note_on_c, 4, 74, 100
6, 170800, Note_on_c, 4, 74, 0
6, 170800, Note_on_c, 4, 67, 100
6, 170840, Note_on_c, 4, 67, 0
6, 170840, Note_on_c, 4, 58, 100
6, 170880, Note_on_c, 4, 58, 0
6, 170880, Note_on_c, 4, 57, 100
6, 170920, Note_on_c, 4, 57, 0
6, 170920, Note_on_c, 4, 65, 100
6, 170960, Note_on_c, 4, 65, 0
6, 170960, Note_on_c, 4, 74, 100
6, 171000, Note_on_c, 4, 74, 0
6, 171000, Note_on_c, 4, 74, 100
6, 171040, Note_on_c, 4, 74, 0
6, 171040, Note_on_c, 4, 65, 100
6, 171080, Note_on_c, 4, 65, 0
6, 171080, Note_on_c, 4, 57, 100
6, 171120, Note_on_c, 4, 57, 0
6, 171120, Note_on_c, 4, 57, 100
6, 171160, Note_on_c, 4, 57, 0
6, 171160, Note_on_c, 4, 65, 100
6, 171200, Note_on_c, 4, 65, 0
6, 171200, Note_on_c, 4, 74, 100
6, 171240, Note_on_c, 4, 74, 0
6, 171240, Note_on_c, 4, 74, 100
6, 171280, Note_on_c, 4, 74, 0
6, 171280, Note_on_c, 4, 65, 100
6, 171320, Note_on_c, 4, 65, 0
6, 171320, Note_on_c, 4, 57, 100
6, 171360, Note_on_c, 4, 57, 0
6, 171360, Note_on_c, 4, 56, 100
6, 171400, Note_on_c, 4, 56, 0
6, 171400, Note_on_c, 4, 64, 100
6, 171440, Note_on_c, 4, 64, 0
6, 171440, Note_on_c, 4, 74, 100
6, 171480, Note_on_c, 4, 74, 0
6, 171480, Note_on_c, 4, 74, 100
6, 171520, Note_on_c, 4, 74, 0
6, 171520, Note_on_c, 4, 64, 100
6, 171560, Note_on_c, 4, 64, 0
6, 171560, Note_on_c, 4, 56, 100
6, 171600, Note_on_c, 4, 56, 0
6, 171600, Note_on_c, 4, 56, 100
6, 171640, Note_on_c, 4, 56, 0
6, 171640, Note_on_c, 4, 64, 100
6, 171680, Note_on_c, 4, 64, 0
6, 171680, Note_on_c, 4, 74, 100
6, 171720, Note_on_c, 4, 74, 0
6, 171720, Note_on_c, 4, 74, 100
6, 171760, Note_on_c, 4, 74, 0
6, 171760, Note_on_c, 4, 64, 100
6, 171800, Note_on_c, 4, 64, 0
6, 171800, Note_on_c, 4, 56, 100
6, 171840, Note_on_c, 4, 56, 0
6, 171840, Note_on_c, 4, 57, 100
6, 171880, Note_on_c, 4, 57, 0
6, 171880, Note_on_c, 4, 64, 100
6, 171920, Note_on_c, 4, 64, 0
6, 171920, Note_on_c, 4, 74, 100
6, 171960, Note_on_c, 4, 74, 0
6, 171960, Note_on_c, 4, 74, 100
6, 172000, Note_on_c, 4, 74, 0
6, 172000, Note_on_c, 4, 64, 100
6, 172040, Note_on_c, 4, 64, 0
6, 172040, Note_on_c, 4, 57, 100
6, 172080, Note_on_c, 4, 57, 0
6, 172080, Note_on_c, 4, 57, 100
6, 172120, Note_on_c, 4, 57, 0
6, 172120, Note_on_c, 4, 64, 100
6, 172160, Note_on_c, 4, 64, 0
6, 172160, Note_on_c, 4, 74, 100
6, 172200, Note_on_c, 4, 74, 0
6, 172200, Note_on_c, 4, 74, 100
6, 172240, Note_on_c, 4, 74, 0
6, 172240, Note_on_c, 4, 64, 100
6, 172280, Note_on_c, 4, 64, 0
6, 172280, Note_on_c, 4, 57, 100
6, 172320, Note_on_c, 4, 57, 0
6, 172320, Note_on_c, 4, 57, 100
6, 172360, Note_on_c, 4, 57, 0
6, 172360, Note_on_c, 4, 64, 100
6, 172400, Note_on_c, 4, 64, 0
6, 172400, Note_on_c, 4, 73, 100
6, 172440, Note_on_c, 4, 73, 0
6, 172440, Note_on_c, 4, 73, 100
6, 172480, Note_on_c, 4, 73, 0
6, 172480, Note_on_c, 4, 64, 100
6, 172520, Note_on_c, 4, 64, 0
6, 172520, Note_on_c, 4, 57, 100
6, 172560, Note_on_c, 4, 57, 0
6, 172560, Note_on_c, 4, 57, 100
6, 172600, Note_on_c, 4, 57, 0
6, 172600, Note_on_c, 4, 64, 100
6, 172640, Note_on_c, 4, 64, 0
6, 172640, Note_on_c, 4, 73, 100
6, 172680, Note_on_c, 4, 73, 0
6, 172680, Note_on_c, 4, 73, 100
6, 172720, Note_on_c, 4, 73, 0
6, 172720, Note_on_c, 4, 64, 100
6, 172760, Note_on_c, 4, 64, 0
6, 172760, Note_on_c, 4, 57, 100
6, 172800, Note_on_c, 4, 57, 0
6, 288000, Note_on_c, 4, 62, 100
6, 288120, Note_on_c, 4, 62, 0
6, 288120, Note_on_c, 4, 78, 100
6, 288120, Note_on_c, 4, 74, 100
6, 288240, Note_on_c, 4, 74, 0
6, 288240, Note_on_c, 4, 78, 0
6, 288240, Note_on_c, 4, 74, 100
6, 288240, Note_on_c, 4, 78, 100
6, 288360, Note_on_c, 4, 78, 0
6, 288360, Note_on_c, 4, 74, 0
6, 288360, Note_on_c, 4, 62, 100
6, 288480, Note_on_c, 4, 62, 0
6, 288480, Note_on_c, 4, 62, 100
6, 288480, Note_on_c, 4, 62, 100
6, 288600, Note_on_c, 4, 62, 0
6, 288600, Note_on_c, 4, 62, 0
6, 288600, Note_on_c, 4, 69, 100
6, 288600, Note_on_c, 4, 78, 100
6, 288720, Note_on_c, 4, 78, 0
6, 288720, Note_on_c, 4, 69, 0
6, 288720, Note_on_c, 4, 69, 100
6, 288720, Note_on_c, 4, 78, 100
6, 288840, Note_on_c, 4, 78, 0
6, 288840, Note_on_c, 4, 69, 0
6, 288840, Note_on_c, 4, 62, 100
6, 288840, Note_on_c, 4, 62, 100
6, 288960, Note_on_c, 4, 62, 0
6, 288960, Note_on_c, 4, 62, 0
6, 288960, Note_on_c, 4, 62, 100
6, 288960, Note_on_c, 4, 61, 100
6, 289080, Note_on_c, 4, 61, 0
6, 289080, Note_on_c, 4, 62, 0
6, 289080, Note_on_c, 4, 69, 100
6, 289080, Note_on_c, 4, 78, 100
6, 289200, Note_on_c, 4, 78, 0
6, 289200, Note_on_c, 4, 69, 0
6, 289200, Note_on_c, 4, 69, 100
6, 289200, Note_on_c, 4, 78, 100
6, 289320, Note_on_c, 4, 78, 0
6, 289320, Note_on_c, 4, 69, 0
6, 289320, Note_on_c, 4, 62, 100
6, 289320, Note_on_c, 4, 61, 100
6, 289440, Note_on_c, 4, 61, 0
6, 289440, Note_on_c, 4, 62, 0
6, 289440, Note_on_c, 4, 59, 100
6, 289440, Note_on_c, 4, 62, 100
6, 289560, Note_on_c, 4, 62, 0
6, 289560, Note_on_c, 4, 59, 0
6, 289560, Note_on_c, 4, 78, 100
6, 289560, Note_on_c, 4, 71, 100
6, 289680, Note_on_c, 4, 71, 0
6, 289680, Note_on_c, 4, 78, 0
6, 289680, Note_on_c, 4, 71, 100
6, 289680, Note_on_c, 4, 78, 100
6, 289800, Note_on_c, 4, 78, 0
6, 289800, Note_on_c, 4, 71, 0
6, 289800, Note_on_c, 4, 59, 100
6, 289800, Note_on_c, 4, 62, 100
6, 289920, Note_on_c, 4, 62, 0
6, 289920, Note_on_c, 4, 59, 0
6, 289920, Note_on_c, 4, 62, 100
6, 289920, Note_on_c, 4, 59, 100
6, 290040, Note_on_c, 4, 59, 0
6, 290040, Note_on_c, 4, 62, 0
6, 290040, Note_on_c, 4, 71, 100
6, 290040, Note_on_c, 4, 78, 100
6, 290160, Note_on_c, 4, 78, 0
6, 290160, Note_on_c, 4, 71, 0
6, 290160, Note_on_c, 4, 71, 100
6, 290160, Note_on_c, 4, 78, 100
6, 290280, Note_on_c, 4, 78, 0
6, 290280, Note_on_c, 4, 71, 0
6, 290280, Note_on_c, 4, 59, 100
6, 290280, Note_on_c, 4, 62, 100
6, 290400, Note_on_c, 4, 62, 0
6, 290400, Note_on_c, 4, 59, 0
6, 290400, Note_on_c, 4, 62, 100
6, 290400, Note_on_c, 4, 57, 100
6, 290520, Note_on_c, 4, 57, 0
6, 290520, Note_on_c, 4, 62, 0
6, 290520, Note_on_c, 4, 78, 100
6, 290520, Note_on_c, 4, 71, 100
6, 290640, Note_on_c, 4, 71, 0
6, 290640, Note_on_c, 4, 78, 0
6, 290640, Note_on_c, 4, 78, 100
6, 290640, Note_on_c, 4, 71, 100
6, 290760, Note_on_c, 4, 71, 0
6, 290760, Note_on_c, 4, 78, 0
6, 290760, Note_on_c, 4, 57, 100
6, 290760, Note_on_c, 4, 62, 100
6, 290880, Note_on_c, 4, 62, 0
6, 290880, Note_on_c, 4, 57, 0
6, 290880, Note_on_c, 4, 55, 100
6, 290880, Note_on_c, 4, 62, 100
6, 291000, Note_on_c, 4, 62, 0
6, 291000, Note_on_c, 4, 55, 0
6, 291000, Note_on_c, 4, 76, 100
6, 291000, Note_on_c, 4, 71, 100
6, 291120, Note_on_c, 4, 71, 0
6, 291120, Note_on_c, 4, 76, 0
6, 291120, Note_on_c, 4, 71, 100
6, 291120, Note_on_c, 4, 76, 100
6, 291240, Note_on_c, 4, 76, 0
6, 291240, Note_on_c, 4, 71, 0
6, 291240, Note_on_c, 4, 62, 100
6, 291240, Note_on_c, 4, 55, 100
6, 291360, Note_on_c, 4, 55, 0
6, 291360, Note_on_c, 4, 62, 0
6, 291360, Note_on_c, 4, 55, 100
6, 291360, Note_on_c, 4, 64, 100
6, 291480, Note_on_c, 4, 64, 0
6, 291480, Note_on_c, 4, 55, 0
6, 291480, Note_on_c, 4, 81, 100
6, 291480, Note_on_c, 4, 73, 100
6, 291600, Note_on_c, 4, 73, 0
6, 291600, Note_on_c, 4, 81, 0
6, 291600, Note_on_c, 4, 81, 100
6, 291600, Note_on_c, 4, 73, 100
6, 291720, Note_on_c, 4, 73, 0
6, 291720, Note_on_c, 4, 81, 0
6, 291720, Note_on_c, 4, 55, 100
6, 291720, Note_on_c, 4, 64, 100
6, 291840, Note_on_c, 4, 64, 0
6, 291840, Note_on_c, 4, 55, 0
6, 291840, Note_on_c, 4, 64, 100
6, 291840, Note_on_c, 4, 55, 100
6, 291960, Note_on_c, 4, 55, 0
6, 291960, Note_on_c, 4, 64, 0
6, 291960, Note_on_c, 4, 64, 100
6, 291960, Note_on_c, 4, 73, 100
6, 292080, Note_on_c, 4, 73, 0
6, 292080, Note_on_c, 4, 64, 0
6, 292080, Note_on_c, 4, 64, 100
6, 292080, Note_on_c, 4, 73, 100
6, 292200, Note_on_c, 4, 73, 0
6, 292200, Note_on_c, 4, 64, 0
6, 292200, Note_on_c, 4, 55, 100
6, 292200, Note_on_c, 4, 64, 100
6, 292320, Note_on_c, 4, 64, 0
6, 292320, Note_on_c, 4, 55, 0
6, 292320, Note_on_c, 4, 64, 100
6, 292320, Note_on_c, 4, 56, 100
6, 292440, Note_on_c, 4, 56, 0
6, 292440, Note_on_c, 4, 64, 0
6, 292440, Note_on_c, 4, 74, 100
6, 292440, Note_on_c, 4, 83, 100
6, 292560, Note_on_c, 4, 83, 0
6, 292560, Note_on_c, 4, 74, 0
6, 292560, Note_on_c, 4, 83, 100
6, 292560, Note_on_c, 4, 74, 100
6, 292680, Note_on_c, 4, 74, 0
6, 292680, Note_on_c, 4, 83, 0
6, 292680, Note_on_c, 4, 64, 100
6, 292680, Note_on_c, 4, 56, 100
6, 292800, Note_on_c, 4, 56, 0
6, 292800, Note_on_c, 4, 64, 0
6, 292800, Note_on_c, 4, 64, 100
6, 292800, Note_on_c, 4, 57, 100
6, 292920, Note_on_c, 4, 57, 0
6, 292920, Note_on_c, 4, 64, 0
6, 292920, Note_on_c, 4, 74, 100
6, 292920, Note_on_c, 4, 76, 100
6, 293040, Note_on_c, 4, 76, 0
6, 293040, Note_on_c, 4, 74, 0
6, 293040, Note_on_c, 4, 74, 100
6, 293040, Note_on_c, 4, 78, 100
6, 293160, Note_on_c, 4, 78, 0
6, 293160, Note_on_c, 4, 74, 0
6, 293160, Note_on_c, 4, 64, 100
6, 293160, Note_on_c, 4, 57, 100
6, 293280, Note_on_c, 4, 57, 0
6, 293280, Note_on_c, 4, 64, 0
6, 293280, Note_on_c, 4, 57, 100
6, 293280, Note_on_c, 4, 64, 100
6, 293400, Note_on_c, 4, 64, 0
6, 293400, Note_on_c, 4, 57, 0
6, 293400, Note_on_c, 4, 79, 100
6, 293400, Note_on_c, 4, 73, 100
6, 293520, Note_on_c, 4, 73, 0
6, 293520, Note_on_c, 4, 79, 0
6, 293520, Note_on_c, 4, 73, 100
6, 293520, Note_on_c, 4, 79, 100
6, 293640, Note_on_c, 4, 79, 0
6, 293640, Note_on_c, 4, 73, 0
6, 293640, Note_on_c, 4, 64, 100
6, 293640, Note_on_c, 4, 57, 100
6, 293760, Note_on_c, 4, 57, 0
6, 293760, Note_on_c, 4, 64, 0
6, 293760, Note_on_c, 4, 62, 100
6, 293760, Note_on_c, 4, 62, 100
6, 293880, Note_on_c, 4, 62, 0
6, 293880, Note_on_c, 4, 62, 0
6, 293880, Note_on_c, 4, 74, 100
6, 293880, Note_on_c, 4, 79, 100
6, 294000, Note_on_c, 4, 79, 0
6, 294000, Note_on_c, 4, 74, 0
6, 294000, Note_on_c, 4, 74, 100
6, 294000, Note_on_c, 4, 79, 100
6, 294120, Note_on_c, 4, 79, 0
6, 294120, Note_on_c, 4, 74, 0
6, 294120, Note_on_c, 4, 62, 100
6, 294120, Note_on_c, 4, 62, 100
6, 294240, Note_on_c, 4, 62, 0
6, 294240, Note_on_c, 4, 62, 0
6, 294240, Note_on_c, 4, 69, 100
6, 294240, Note_on_c, 4, 62, 100
6, 294360, Note_on_c, 4, 62, 0
6, 294360, Note_on_c, 4, 69, 0
6, 294360, Note_on_c, 4, 78, 100
6, 294360, Note_on_c, 4, 69, 100
6, 294480, Note_on_c, 4, 69, 0
6, 294480, Note_on_c, 4, 78, 0
6, 294480, Note_on_c, 4, 71, 100
6, 294480, Note_on_c, 4, 62, 100
6, 294600, Note_on_c, 4, 62, 0
6, 294600, Note_on_c, 4, 71, 0
6, 294600, Note_on_c, 4, 71, 100
6, 294600, Note_on_c, 4, 78, 100
6, 294720, Note_on_c, 4, 78, 0
6, 294720, Note_on_c, 4, 71, 0
6, 294720, Note_on_c, 4, 62, 100
6, 294720, Note_on_c, 4, 72, 100
6, 294840, Note_on_c, 4, 72, 0
6, 294840, Note_on_c, 4, 62, 0
6, 294840, Note_on_c, 4, 72, 100
6, 294840, Note_on_c, 4, 78, 100
6, 294960, Note_on_c, 4, 78, 0
6, 294960, Note_on_c, 4, 72, 0
6, 294960, Note_on_c, 4, 72, 100
6, 294960, Note_on_c, 4, 78, 100
6, 295080, Note_on_c, 4, 78, 0
6, 295080, Note_on_c, 4, 72, 0
6, 295080, Note_on_c, 4, 62, 100
6, 295080, Note_on_c, 4, 72, 100
6, 295200, Note_on_c, 4, 72, 0
6, 295200, Note_on_c, 4, 62, 0
6, 295200, Note_on_c, 4, 55, 100
6, 295200, Note_on_c, 4, 62, 100
6, 295320, Note_on_c, 4, 62, 0
6, 295320, Note_on_c, 4, 55, 0
6, 295320, Note_on_c, 4, 78, 100
6, 295320, Note_on_c, 4, 71, 100
6, 295440, Note_on_c, 4, 71, 0
6, 295440, Note_on_c, 4, 78, 0
6, 295440, Note_on_c, 4, 71, 100
6, 295440, Note_on_c, 4, 78, 100
6, 295560, Note_on_c, 4, 78, 0
6, 295560, Note_on_c, 4, 71, 0
6, 295560, Note_on_c, 4, 62, 100
6, 295560, Note_on_c, 4, 55, 100
6, 295680, Note_on_c, 4, 55, 0
6, 295680, Note_on_c, 4, 62, 0
6, 295680, Note_on_c, 4, 55, 100
6, 295680, Note_on_c, 4, 64, 100
6, 295800, Note_on_c, 4, 64, 0
6, 295800, Note_on_c, 4, 55, 0
6, 295800, Note_on_c, 4, 71, 100
6, 295800, Note_on_c, 4, 76, 100
6, 295920, Note_on_c, 4, 76, 0
6, 295920, Note_on_c, 4, 71, 0
6, 295920, Note_on_c, 4, 55, 100
6, 295920, Note_on_c, 4, 64, 100
6, 296040, Note_on_c, 4, 64, 0
6, 296040, Note_on_c, 4, 55, 0
6, 296040, Note_on_c, 4, 73, 100
6, 296040, Note_on_c, 4, 76, 100
6, 296160, Note_on_c, 4, 76, 0
6, 296160, Note_on_c, 4, 73, 0
6, 296160, Note_on_c, 4, 56, 100
6, 296160, Note_on_c, 4, 64, 100
6, 296280, Note_on_c, 4, 64, 0
6, 296280, Note_on_c, 4, 56, 0
6, 296280, Note_on_c, 4, 76, 100
6, 296280, Note_on_c, 4, 74, 100
6, 296400, Note_on_c, 4, 74, 0
6, 296400, Note_on_c, 4, 76, 0
6, 296400, Note_on_c, 4, 76, 100
6, 296400, Note_on_c, 4, 74, 100
6, 296520, Note_on_c, 4, 74, 0
6, 296520, Note_on_c, 4, 76, 0
6, 296520, Note_on_c, 4, 64, 100
6, 296520, Note_on_c, 4, 56, 100
6, 296640, Note_on_c, 4, 56, 0
6, 296640, Note_on_c, 4, 64, 0
6, 296640, Note_on_c, 4, 64, 100
6, 296640, Note_on_c, 4, 57, 100
6, 296760, Note_on_c, 4, 57, 0
6, 296760, Note_on_c, 4, 64, 0
6, 296760, Note_on_c, 4, 74, 100
6, 296760, Note_on_c, 4, 76, 100
6, 296880, Note_on_c, 4, 76, 0
6, 296880, Note_on_c, 4, 74, 0
6, 296880, Note_on_c, 4, 74, 100
6, 296880, Note_on_c, 4, 76, 100
6, 297000, Note_on_c, 4, 76, 0
6, 297000, Note_on_c, 4, 74, 0
6, 297000, Note_on_c, 4, 57, 100
6, 297000, Note_on_c, 4, 64, 100
6, 297120, Note_on_c, 4, 64, 0
6, 297120, Note_on_c, 4, 57, 0
6, 297120, Note_on_c, 4, 64, 100
6, 297120, Note_on_c, 4, 57, 100
6, 297240, Note_on_c, 4, 57, 0
6, 297240, Note_on_c, 4, 64, 0
6, 297240, Note_on_c, 4, 76, 100
6, 297240, Note_on_c, 4, 73, 100
6, 297360, Note_on_c, 4, 73, 0
6, 297360, Note_on_c, 4, 76, 0
6, 297360, Note_on_c, 4, 57, 100
6, 297360, Note_on_c, 4, 66, 100
6, 297480, Note_on_c, 4, 66, 0
6, 297480, Note_on_c, 4, 57, 0
6, 297480, Note_on_c, 4, 73, 100
6, 297480, Note_on_c, 4, 76, 100
6, 297600, Note_on_c, 4, 76, 0
6, 297600, Note_on_c, 4, 73, 0
6, 297600, Note_on_c, 4, 67, 100
6, 297600, Note_on_c, 4, 58, 100
6, 297720, Note_on_c, 4, 58, 0
6, 297720, Note_on_c, 4, 67, 0
6, 297720, Note_on_c, 4, 76, 100
6, 297720, Note_on_c, 4, 73, 100
6, 297840, Note_on_c, 4, 73, 0
6, 297840, Note_on_c, 4, 76, 0
6, 297840, Note_on_c, 4, 73, 100
6, 297840, Note_on_c, 4, 76, 100
6, 297960, Note_on_c, 4, 76, 0
6, 297960, Note_on_c, 4, 73, 0
6, 297960, Note_on_c, 4, 58, 100
6, 297960, Note_on_c, 4, 67, 100
6, 298080, Note_on_c, 4, 67, 0
6, 298080, Note_on_c, 4, 58, 0
6, 298080, End_track
7, 0, Start_track
7, 0, MIDI_port, 0
7, 0, Title_t, "Partita No. 2 in D minor - BWV 1004"
7, 0, End_track
8, 0, Start_track
8, 0, MIDI_port, 0
8, 0, Title_t, "5th Movement: Chaconne"
8, 0, End_track
9, 0, Start_track
9, 0, MIDI_port, 0
9, 0, Title_t, "--------------------------------------"
9, 0, End_track
10, 0, Start_track
10, 0, MIDI_port, 0
10, 0, Title_t, "Sequenced with Cakewalk Pro Audio by"
10, 0, End_track
11, 0, Start_track
11, 0, MIDI_port, 0
11, 0, Title_t, "David J. Grossman - dave@unpronounceable.com"
11, 0, End_track
12, 0, Start_track
12, 0, MIDI_port, 0
12, 0, Title_t, "This and other Bach MIDI files can be found at:"
12, 0, End_track
13, 0, Start_track
13, 0, MIDI_port, 0
13, 0, Title_t, "Dave's J.S. Bach Page"
13, 0, End_track
14, 0, Start_track
14, 0, MIDI_port, 0
14, 0, Title_t, "http://www.unpronounceable.com/bach"
14, 0, End_track
15, 0, Start_track
15, 0, MIDI_port, 0
15, 0, Title_t, "--------------------------------------"
15, 0, End_track
16, 0, Start_track
16, 0, MIDI_port, 0
16, 0, Title_t, "Original Filename: vp2-5cha.mid"
16, 0, End_track
17, 0, Start_track
17, 0, MIDI_port, 0
17, 0, Title_t, "Last Modified: February 22, 1997"
17, 0, End_track
18, 0, Start_track
18, 0, MIDI_port, 0
18, 0, End_track
0, 0, End_of_file
