0, 0, Header, 1, 17, 480
1, 0, Start_track
1, 0, Title_t, "untitled"
1, 0, SMPTE_offset, 96, 0, 3, 0, 0
1, 0, Time_signature, 3, 2, 24, 8
1, 0, Key_signature, -1, "major"
1, 0, Tempo, 250000
1, 0, Marker_t, "A"
1, 1200, Tempo, 461538
1, 36000, Marker_t, "A'"
1, 70560, Marker_t, "B"
1, 113760, Marker_t, "B'"
1, 155520, Tempo, 705882
1, 155520, End_track
2, 0, Start_track
2, 0, MIDI_port, 0
2, 0, Title_t, "Solo Violin"
2, 0, Program_c, 0, 40
2, 0, Control_c, 0, 7, 100
2, 0, Control_c, 0, 10, 64
2, 1320, Note_on_c, 0, 69, 100
2, 1440, Note_on_c, 0, 69, 0
2, 1440, Note_on_c, 0, 69, 100
2, 1920, Note_on_c, 0, 69, 0
2, 1920, Note_on_c, 0, 61, 100
2, 2080, Note_on_c, 0, 61, 0
2, 2080, Note_on_c, 0, 70, 100
2, 2240, Note_on_c, 0, 70, 0
2, 2240, Note_on_c, 0, 69, 100
2, 2400, Note_on_c, 0, 69, 0
2, 2400, Note_on_c, 0, 67, 100
2, 2560, Note_on_c, 0, 67, 0
2, 2560, Note_on_c, 0, 65, 100
2, 2720, Note_on_c, 0, 65, 0
2, 2720, Note_on_c, 0, 64, 100
2, 2880, Note_on_c, 0, 64, 0
2, 2880, Note_on_c, 0, 65, 100
2, 3360, Note_on_c, 0, 65, 0
2, 3360, Note_on_c, 0, 57, 100
2, 3520, Note_on_c, 0, 57, 0
2, 3520, Note_on_c, 0, 67, 100
2, 3680, Note_on_c, 0, 67, 0
2, 3680, Note_on_c, 0, 65, 100
2, 3840, Note_on_c, 0, 65, 0
2, 3840, Note_on_c, 0, 64, 100
2, 4000, Note_on_c, 0, 64, 0
2, 4000, Note_on_c, 0, 62, 100
2, 4160, Note_on_c, 0, 62, 0
2, 4160, Note_on_c, 0, 61, 100
2, 4320, Note_on_c, 0, 61, 0
2, 4320, Note_on_c, 0, 62, 100
2, 4680, Note_on_c, 0, 62, 0
2, 4680, Note_on_c, 0, 58, 100
2, 4800, Note_on_c, 0, 58, 0
2, 4800, Note_on_c, 0, 55, 100
2, 5160, Note_on_c, 0, 55, 0
2, 5160, Note_on_c, 0, 65, 100
2, 5280, Note_on_c, 0, 65, 0
2, 5280, Note_on_c, 0, 64, 100
2, 5640, Note_on_c, 0, 64, 0
2, 5640, Note_on_c, 0, 62, 100
2, 5760, Note_on_c, 0, 62, 0
2, 5760, Note_on_c, 0, 61, 100
2, 6120, Note_on_c, 0, 61, 0
2, 6120, Note_on_c, 0, 57, 100
2, 6240, Note_on_c, 0, 57, 0
2, 6240, Note_on_c, 0, 61, 100
2, 6600, Note_on_c, 0, 61, 0
2, 6600, Note_on_c, 0, 64, 100
2, 6720, Note_on_c, 0, 64, 0
2, 6720, Note_on_c, 0, 69, 100
2, 7080, Note_on_c, 0, 69, 0
2, 7080, Note_on_c, 0, 67, 100
2, 7200, Note_on_c, 0, 67, 0
2, 7200, Note_on_c, 0, 65, 100
2, 7360, Note_on_c, 0, 65, 0
2, 7360, Note_on_c, 0, 62, 100
2, 7520, Note_on_c, 0, 62, 0
2, 7520, Note_on_c, 0, 64, 100
2, 7680, Note_on_c, 0, 64, 0
2, 7680, Note_on_c, 0, 65, 100
2, 7840, Note_on_c, 0, 65, 0
2, 7840, Note_on_c, 0, 67, 100
2, 8000, Note_on_c, 0, 67, 0
2, 8000, Note_on_c, 0, 69, 100
2, 8160, Note_on_c, 0, 69, 0
2, 8160, Note_on_c, 0, 70, 100
2, 8320, Note_on_c, 0, 70, 0
2, 8320, Note_on_c, 0, 72, 100
2, 8480, Note_on_c, 0, 72, 0
2, 8480, Note_on_c, 0, 74, 100
2, 8640, Note_on_c, 0, 74, 0
2, 8640, Note_on_c, 0, 72, 100
2, 9000, Note_on_c, 0, 72, 0
2, 9000, Note_on_c, 0, 69, 100
2, 9120, Note_on_c, 0, 69, 0
2, 9120, Note_on_c, 0, 65, 100
2, 9480, Note_on_c, 0, 65, 0
2, 9480, Note_on_c, 0, 60, 100
2, 9600, Note_on_c, 0, 60, 0
2, 9600, Note_on_c, 0, 57, 100
2, 9960, Note_on_c, 0, 57, 0
2, 9960, Note_on_c, 0, 63, 100
2, 10080, Note_on_c, 0, 63, 0
2, 10080, Note_on_c, 0, 62, 100
2, 10240, Note_on_c, 0, 62, 0
2, 10240, Note_on_c, 0, 58, 100
2, 10400, Note_on_c, 0, 58, 0
2, 10400, Note_on_c, 0, 60, 100
2, 10560, Note_on_c, 0, 60, 0
2, 10560, Note_on_c, 0, 62, 100
2, 10720, Note_on_c, 0, 62, 0
2, 10720, Note_on_c, 0, 64, 100
2, 10880, Note_on_c, 0, 64, 0
2, 10880, Note_on_c, 0, 65, 100
2, 11040, Note_on_c, 0, 65, 0
2, 11040, Note_on_c, 0, 67, 100
2, 11200, Note_on_c, 0, 67, 0
2, 11200, Note_on_c, 0, 69, 100
2, 11360, Note_on_c, 0, 69, 0
2, 11360, Note_on_c, 0, 70, 100
2, 11520, Note_on_c, 0, 70, 0
2, 11520, Note_on_c, 0, 69, 100
2, 11680, Note_on_c, 0, 69, 0
2, 11680, Note_on_c, 0, 65, 100
2, 11840, Note_on_c, 0, 65, 0
2, 11840, Note_on_c, 0, 67, 100
2, 12000, Note_on_c, 0, 67, 0
2, 12000, Note_on_c, 0, 69, 100
2, 12160, Note_on_c, 0, 69, 0
2, 12160, Note_on_c, 0, 70, 100
2, 12320, Note_on_c, 0, 70, 0
2, 12320, Note_on_c, 0, 72, 100
2, 12480, Note_on_c, 0, 72, 0
2, 12480, Note_on_c, 0, 74, 100
2, 12640, Note_on_c, 0, 74, 0
2, 12640, Note_on_c, 0, 75, 100
2, 12800, Note_on_c, 0, 75, 0
2, 12800, Note_on_c, 0, 72, 100
2, 12960, Note_on_c, 0, 72, 0
2, 12960, Note_on_c, 0, 74, 100
2, 13120, Note_on_c, 0, 74, 0
2, 13120, Note_on_c, 0, 70, 100
2, 13280, Note_on_c, 0, 70, 0
2, 13280, Note_on_c, 0, 72, 100
2, 13440, Note_on_c, 0, 72, 0
2, 13440, Note_on_c, 0, 74, 100
2, 13600, Note_on_c, 0, 74, 0
2, 13600, Note_on_c, 0, 76, 100
2, 13760, Note_on_c, 0, 76, 0
2, 13760, Note_on_c, 0, 77, 100
2, 13920, Note_on_c, 0, 77, 0
2, 13920, Note_on_c, 0, 79, 100
2, 14080, Note_on_c, 0, 79, 0
2, 14080, Note_on_c, 0, 81, 100
2, 14240, Note_on_c, 0, 81, 0
2, 14240, Note_on_c, 0, 82, 100
2, 14400, Note_on_c, 0, 82, 0
2, 14400, Note_on_c, 0, 64, 100
2, 14760, Note_on_c, 0, 64, 0
2, 14760, Note_on_c, 0, 72, 100
2, 14880, Note_on_c, 0, 72, 0
2, 14880, Note_on_c, 0, 79, 100
2, 15240, Note_on_c, 0, 79, 0
2, 15240, Note_on_c, 0, 82, 100
2, 15360, Note_on_c, 0, 82, 0
2, 15360, Note_on_c, 0, 81, 100
2, 15720, Note_on_c, 0, 81, 0
2, 15720, Note_on_c, 0, 79, 100
2, 15840, Note_on_c, 0, 79, 0
2, 15840, Note_on_c, 0, 81, 100
2, 16000, Note_on_c, 0, 81, 0
2, 16000, Note_on_c, 0, 79, 100
2, 16160, Note_on_c, 0, 79, 0
2, 16160, Note_on_c, 0, 77, 100
2, 16320, Note_on_c, 0, 77, 0
2, 16320, Note_on_c, 0, 76, 100
2, 16480, Note_on_c, 0, 76, 0
2, 16480, Note_on_c, 0, 77, 100
2, 16640, Note_on_c, 0, 77, 0
2, 16640, Note_on_c, 0, 79, 100
2, 16800, Note_on_c, 0, 79, 0
2, 16800, Note_on_c, 0, 72, 100
2, 16960, Note_on_c, 0, 72, 0
2, 16960, Note_on_c, 0, 74, 100
2, 17120, Note_on_c, 0, 74, 0
2, 17120, Note_on_c, 0, 76, 100
2, 17280, Note_on_c, 0, 76, 0
2, 17280, Note_on_c, 0, 77, 100
2, 17440, Note_on_c, 0, 77, 0
2, 17440, Note_on_c, 0, 72, 100
2, 17600, Note_on_c, 0, 72, 0
2, 17600, Note_on_c, 0, 70, 100
2, 17760, Note_on_c, 0, 70, 0
2, 17760, Note_on_c, 0, 69, 100
2, 17920, Note_on_c, 0, 69, 0
2, 17920, Note_on_c, 0, 70, 100
2, 18080, Note_on_c, 0, 70, 0
2, 18080, Note_on_c, 0, 72, 100
2, 18240, Note_on_c, 0, 72, 0
2, 18240, Note_on_c, 0, 65, 100
2, 18400, Note_on_c, 0, 65, 0
2, 18400, Note_on_c, 0, 67, 100
2, 18560, Note_on_c, 0, 67, 0
2, 18560, Note_on_c, 0, 69, 100
2, 18720, Note_on_c, 0, 69, 0
2, 18720, Note_on_c, 0, 62, 100
2, 19080, Note_on_c, 0, 62, 0
2, 19080, Note_on_c, 0, 66, 100
2, 19200, Note_on_c, 0, 66, 0
2, 19200, Note_on_c, 0, 69, 100
2, 19560, Note_on_c, 0, 69, 0
2, 19560, Note_on_c, 0, 72, 100
2, 19680, Note_on_c, 0, 72, 0
2, 19680, Note_on_c, 0, 70, 100
2, 20040, Note_on_c, 0, 70, 0
2, 20040, Note_on_c, 0, 69, 100
2, 20160, Note_on_c, 0, 69, 0
2, 20160, Note_on_c, 0, 70, 100
2, 20320, Note_on_c, 0, 70, 0
2, 20320, Note_on_c, 0, 74, 100
2, 20480, Note_on_c, 0, 74, 0
2, 20480, Note_on_c, 0, 72, 100
2, 20640, Note_on_c, 0, 72, 0
2, 20640, Note_on_c, 0, 70, 100
2, 20800, Note_on_c, 0, 70, 0
2, 20800, Note_on_c, 0, 69, 100
2, 20960, Note_on_c, 0, 69, 0
2, 20960, Note_on_c, 0, 67, 100
2, 21120, Note_on_c, 0, 67, 0
2, 21120, Note_on_c, 0, 65, 100
2, 21280, Note_on_c, 0, 65, 0
2, 21280, Note_on_c, 0, 64, 100
2, 21440, Note_on_c, 0, 64, 0
2, 21440, Note_on_c, 0, 62, 100
2, 21600, Note_on_c, 0, 62, 0
2, 21600, Note_on_c, 0, 61, 100
2, 21960, Note_on_c, 0, 61, 0
2, 21960, Note_on_c, 0, 64, 100
2, 22080, Note_on_c, 0, 64, 0
2, 22080, Note_on_c, 0, 69, 100
2, 22440, Note_on_c, 0, 69, 0
2, 22440, Note_on_c, 0, 79, 100
2, 22560, Note_on_c, 0, 79, 0
2, 22560, Note_on_c, 0, 77, 100
2, 22920, Note_on_c, 0, 77, 0
2, 22920, Note_on_c, 0, 76, 100
2, 23040, Note_on_c, 0, 76, 0
2, 23040, Note_on_c, 0, 77, 100
2, 23200, Note_on_c, 0, 77, 0
2, 23200, Note_on_c, 0, 69, 100
2, 23360, Note_on_c, 0, 69, 0
2, 23360, Note_on_c, 0, 67, 100
2, 23520, Note_on_c, 0, 67, 0
2, 23520, Note_on_c, 0, 65, 100
2, 23680, Note_on_c, 0, 65, 0
2, 23680, Note_on_c, 0, 64, 100
2, 23840, Note_on_c, 0, 64, 0
2, 23840, Note_on_c, 0, 62, 100
2, 24000, Note_on_c, 0, 62, 0
2, 24000, Note_on_c, 0, 60, 100
2, 24160, Note_on_c, 0, 60, 0
2, 24160, Note_on_c, 0, 59, 100
2, 24320, Note_on_c, 0, 59, 0
2, 24320, Note_on_c, 0, 57, 100
2, 24480, Note_on_c, 0, 57, 0
2, 24480, Note_on_c, 0, 56, 100
2, 24640, Note_on_c, 0, 56, 0
2, 24640, Note_on_c, 0, 74, 100
2, 24800, Note_on_c, 0, 74, 0
2, 24800, Note_on_c, 0, 76, 100
2, 24960, Note_on_c, 0, 76, 0
2, 24960, Note_on_c, 0, 77, 100
2, 25120, Note_on_c, 0, 77, 0
2, 25120, Note_on_c, 0, 76, 100
2, 25280, Note_on_c, 0, 76, 0
2, 25280, Note_on_c, 0, 74, 100
2, 25440, Note_on_c, 0, 74, 0
2, 25440, Note_on_c, 0, 72, 100
2, 25600, Note_on_c, 0, 72, 0
2, 25600, Note_on_c, 0, 74, 100
2, 25760, Note_on_c, 0, 74, 0
2, 25760, Note_on_c, 0, 71, 100
2, 25920, Note_on_c, 0, 71, 0
2, 25920, Note_on_c, 0, 57, 100
2, 26080, Note_on_c, 0, 57, 0
2, 26080, Note_on_c, 0, 72, 100
2, 26240, Note_on_c, 0, 72, 0
2, 26240, Note_on_c, 0, 74, 100
2, 26400, Note_on_c, 0, 74, 0
2, 26400, Note_on_c, 0, 76, 100
2, 26560, Note_on_c, 0, 76, 0
2, 26560, Note_on_c, 0, 74, 100
2, 26720, Note_on_c, 0, 74, 0
2, 26720, Note_on_c, 0, 72, 100
2, 26880, Note_on_c, 0, 72, 0
2, 26880, Note_on_c, 0, 71, 100
2, 27040, Note_on_c, 0, 71, 0
2, 27040, Note_on_c, 0, 72, 100
2, 27200, Note_on_c, 0, 72, 0
2, 27200, Note_on_c, 0, 69, 100
2, 27360, Note_on_c, 0, 69, 0
2, 27360, Note_on_c, 0, 68, 100
2, 27520, Note_on_c, 0, 68, 0
2, 27520, Note_on_c, 0, 62, 100
2, 27680, Note_on_c, 0, 62, 0
2, 27680, Note_on_c, 0, 64, 100
2, 27840, Note_on_c, 0, 64, 0
2, 27840, Note_on_c, 0, 65, 100
2, 28000, Note_on_c, 0, 65, 0
2, 28000, Note_on_c, 0, 64, 100
2, 28160, Note_on_c, 0, 64, 0
2, 28160, Note_on_c, 0, 62, 100
2, 28320, Note_on_c, 0, 62, 0
2, 28320, Note_on_c, 0, 60, 100
2, 28480, Note_on_c, 0, 60, 0
2, 28480, Note_on_c, 0, 62, 100
2, 28640, Note_on_c, 0, 62, 0
2, 28640, Note_on_c, 0, 59, 100
2, 28800, Note_on_c, 0, 59, 0
2, 28800, Note_on_c, 0, 60, 100
2, 28960, Note_on_c, 0, 60, 0
2, 28960, Note_on_c, 0, 64, 100
2, 29120, Note_on_c, 0, 64, 0
2, 29120, Note_on_c, 0, 69, 100
2, 29280, Note_on_c, 0, 69, 0
2, 29280, Note_on_c, 0, 72, 100
2, 29440, Note_on_c, 0, 72, 0
2, 29440, Note_on_c, 0, 76, 100
2, 29600, Note_on_c, 0, 76, 0
2, 29600, Note_on_c, 0, 81, 100
2, 29760, Note_on_c, 0, 81, 0
2, 29760, Note_on_c, 0, 83, 100
2, 29920, Note_on_c, 0, 83, 0
2, 29920, Note_on_c, 0, 80, 100
2, 30080, Note_on_c, 0, 80, 0
2, 30080, Note_on_c, 0, 81, 100
2, 30240, Note_on_c, 0, 81, 0
2, 30240, Note_on_c, 0, 77, 100
2, 30400, Note_on_c, 0, 77, 0
2, 30400, Note_on_c, 0, 73, 100
2, 30560, Note_on_c, 0, 73, 0
2, 30560, Note_on_c, 0, 74, 100
2, 30720, Note_on_c, 0, 74, 0
2, 30720, Note_on_c, 0, 70, 100
2, 30880, Note_on_c, 0, 70, 0
2, 30880, Note_on_c, 0, 68, 100
2, 31040, Note_on_c, 0, 68, 0
2, 31040, Note_on_c, 0, 69, 100
2, 31200, Note_on_c, 0, 69, 0
2, 31200, Note_on_c, 0, 65, 100
2, 31360, Note_on_c, 0, 65, 0
2, 31360, Note_on_c, 0, 61, 100
2, 31520, Note_on_c, 0, 61, 0
2, 31520, Note_on_c, 0, 62, 100
2, 31680, Note_on_c, 0, 62, 0
2, 31680, Note_on_c, 0, 56, 100
2, 31840, Note_on_c, 0, 56, 0
2, 31840, Note_on_c, 0, 83, 100
2, 32000, Note_on_c, 0, 83, 0
2, 32000, Note_on_c, 0, 81, 100
2, 32160, Note_on_c, 0, 81, 0
2, 32160, Note_on_c, 0, 80, 100
2, 32320, Note_on_c, 0, 80, 0
2, 32320, Note_on_c, 0, 77, 100
2, 32480, Note_on_c, 0, 77, 0
2, 32480, Note_on_c, 0, 76, 100
2, 32640, Note_on_c, 0, 76, 0
2, 32640, Note_on_c, 0, 74, 100
2, 32800, Note_on_c, 0, 74, 0
2, 32800, Note_on_c, 0, 72, 100
2, 32960, Note_on_c, 0, 72, 0
2, 32960, Note_on_c, 0, 71, 100
2, 33120, Note_on_c, 0, 71, 0
2, 33120, Note_on_c, 0, 72, 100
2, 33280, Note_on_c, 0, 72, 0
2, 33280, Note_on_c, 0, 76, 100
2, 33440, Note_on_c, 0, 76, 0
2, 33440, Note_on_c, 0, 74, 100
2, 33600, Note_on_c, 0, 74, 0
2, 33600, Note_on_c, 0, 72, 100
2, 33760, Note_on_c, 0, 72, 0
2, 33760, Note_on_c, 0, 71, 100
2, 33920, Note_on_c, 0, 71, 0
2, 33920, Note_on_c, 0, 69, 100
2, 34080, Note_on_c, 0, 69, 0
2, 34080, Note_on_c, 0, 64, 100
2, 34240, Note_on_c, 0, 64, 0
2, 34240, Note_on_c, 0, 69, 100
2, 34400, Note_on_c, 0, 69, 0
2, 34400, Note_on_c, 0, 68, 100
2, 34560, Note_on_c, 0, 68, 0
2, 34560, Note_on_c, 0, 57, 100
2, 35880, Note_on_c, 0, 57, 0
2, 35880, Note_on_c, 0, 69, 100
2, 36000, Note_on_c, 0, 69, 0
2, 36000, Note_on_c, 0, 69, 100
2, 36480, Note_on_c, 0, 69, 0
2, 36480, Note_on_c, 0, 61, 100
2, 36640, Note_on_c, 0, 61, 0
2, 36640, Note_on_c, 0, 70, 100
2, 36800, Note_on_c, 0, 70, 0
2, 36800, Note_on_c, 0, 69, 100
2, 36960, Note_on_c, 0, 69, 0
2, 36960, Note_on_c, 0, 67, 100
2, 37120, Note_on_c, 0, 67, 0
2, 37120, Note_on_c, 0, 65, 100
2, 37280, Note_on_c, 0, 65, 0
2, 37280, Note_on_c, 0, 64, 100
2, 37440, Note_on_c, 0, 64, 0
2, 37440, Note_on_c, 0, 65, 100
2, 37920, Note_on_c, 0, 65, 0
2, 37920, Note_on_c, 0, 57, 100
2, 38080, Note_on_c, 0, 57, 0
2, 38080, Note_on_c, 0, 67, 100
2, 38240, Note_on_c, 0, 67, 0
2, 38240, Note_on_c, 0, 65, 100
2, 38400, Note_on_c, 0, 65, 0
2, 38400, Note_on_c, 0, 64, 100
2, 38560, Note_on_c, 0, 64, 0
2, 38560, Note_on_c, 0, 62, 100
2, 38720, Note_on_c, 0, 62, 0
2, 38720, Note_on_c, 0, 61, 100
2, 38880, Note_on_c, 0, 61, 0
2, 38880, Note_on_c, 0, 62, 100
2, 39240, Note_on_c, 0, 62, 0
2, 39240, Note_on_c, 0, 58, 100
2, 39360, Note_on_c, 0, 58, 0
2, 39360, Note_on_c, 0, 55, 100
2, 39720, Note_on_c, 0, 55, 0
2, 39720, Note_on_c, 0, 65, 100
2, 39840, Note_on_c, 0, 65, 0
2, 39840, Note_on_c, 0, 64, 100
2, 40200, Note_on_c, 0, 64, 0
2, 40200, Note_on_c, 0, 62, 100
2, 40320, Note_on_c, 0, 62, 0
2, 40320, Note_on_c, 0, 61, 100
2, 40680, Note_on_c, 0, 61, 0
2, 40680, Note_on_c, 0, 57, 100
2, 40800, Note_on_c, 0, 57, 0
2, 40800, Note_on_c, 0, 61, 100
2, 41160, Note_on_c, 0, 61, 0
2, 41160, Note_on_c, 0, 64, 100
2, 41280, Note_on_c, 0, 64, 0
2, 41280, Note_on_c, 0, 69, 100
2, 41640, Note_on_c, 0, 69, 0
2, 41640, Note_on_c, 0, 67, 100
2, 41760, Note_on_c, 0, 67, 0
2, 41760, Note_on_c, 0, 65, 100
2, 41920, Note_on_c, 0, 65, 0
2, 41920, Note_on_c, 0, 62, 100
2, 42080, Note_on_c, 0, 62, 0
2, 42080, Note_on_c, 0, 64, 100
2, 42240, Note_on_c, 0, 64, 0
2, 42240, Note_on_c, 0, 65, 100
2, 42400, Note_on_c, 0, 65, 0
2, 42400, Note_on_c, 0, 67, 100
2, 42560, Note_on_c, 0, 67, 0
2, 42560, Note_on_c, 0, 69, 100
2, 42720, Note_on_c, 0, 69, 0
2, 42720, Note_on_c, 0, 70, 100
2, 42880, Note_on_c, 0, 70, 0
2, 42880, Note_on_c, 0, 72, 100
2, 43040, Note_on_c, 0, 72, 0
2, 43040, Note_on_c, 0, 74, 100
2, 43200, Note_on_c, 0, 74, 0
2, 43200, Note_on_c, 0, 72, 100
2, 43560, Note_on_c, 0, 72, 0
2, 43560, Note_on_c, 0, 69, 100
2, 43680, Note_on_c, 0, 69, 0
2, 43680, Note_on_c, 0, 65, 100
2, 44040, Note_on_c, 0, 65, 0
2, 44040, Note_on_c, 0, 60, 100
2, 44160, Note_on_c, 0, 60, 0
2, 44160, Note_on_c, 0, 57, 100
2, 44520, Note_on_c, 0, 57, 0
2, 44520, Note_on_c, 0, 63, 100
2, 44640, Note_on_c, 0, 63, 0
2, 44640, Note_on_c, 0, 62, 100
2, 44800, Note_on_c, 0, 62, 0
2, 44800, Note_on_c, 0, 58, 100
2, 44960, Note_on_c, 0, 58, 0
2, 44960, Note_on_c, 0, 60, 100
2, 45120, Note_on_c, 0, 60, 0
2, 45120, Note_on_c, 0, 62, 100
2, 45280, Note_on_c, 0, 62, 0
2, 45280, Note_on_c, 0, 64, 100
2, 45440, Note_on_c, 0, 64, 0
2, 45440, Note_on_c, 0, 65, 100
2, 45600, Note_on_c, 0, 65, 0
2, 45600, Note_on_c, 0, 67, 100
2, 45760, Note_on_c, 0, 67, 0
2, 45760, Note_on_c, 0, 69, 100
2, 45920, Note_on_c, 0, 69, 0
2, 45920, Note_on_c, 0, 70, 100
2, 46080, Note_on_c, 0, 70, 0
2, 46080, Note_on_c, 0, 69, 100
2, 46240, Note_on_c, 0, 69, 0
2, 46240, Note_on_c, 0, 65, 100
2, 46400, Note_on_c, 0, 65, 0
2, 46400, Note_on_c, 0, 67, 100
2, 46560, Note_on_c, 0, 67, 0
2, 46560, Note_on_c, 0, 69, 100
2, 46720, Note_on_c, 0, 69, 0
2, 46720, Note_on_c, 0, 70, 100
2, 46880, Note_on_c, 0, 70, 0
2, 46880, Note_on_c, 0, 72, 100
2, 47040, Note_on_c, 0, 72, 0
2, 47040, Note_on_c, 0, 74, 100
2, 47200, Note_on_c, 0, 74, 0
2, 47200, Note_on_c, 0, 75, 100
2, 47360, Note_on_c, 0, 75, 0
2, 47360, Note_on_c, 0, 72, 100
2, 47520, Note_on_c, 0, 72, 0
2, 47520, Note_on_c, 0, 74, 100
2, 47680, Note_on_c, 0, 74, 0
2, 47680, Note_on_c, 0, 70, 100
2, 47840, Note_on_c, 0, 70, 0
2, 47840, Note_on_c, 0, 72, 100
2, 48000, Note_on_c, 0, 72, 0
2, 48000, Note_on_c, 0, 74, 100
2, 48160, Note_on_c, 0, 74, 0
2, 48160, Note_on_c, 0, 76, 100
2, 48320, Note_on_c, 0, 76, 0
2, 48320, Note_on_c, 0, 77, 100
2, 48480, Note_on_c, 0, 77, 0
2, 48480, Note_on_c, 0, 79, 100
2, 48640, Note_on_c, 0, 79, 0
2, 48640, Note_on_c, 0, 81, 100
2, 48800, Note_on_c, 0, 81, 0
2, 48800, Note_on_c, 0, 82, 100
2, 48960, Note_on_c, 0, 82, 0
2, 48960, Note_on_c, 0, 64, 100
2, 49320, Note_on_c, 0, 64, 0
2, 49320, Note_on_c, 0, 72, 100
2, 49440, Note_on_c, 0, 72, 0
2, 49440, Note_on_c, 0, 79, 100
2, 49800, Note_on_c, 0, 79, 0
2, 49800, Note_on_c, 0, 82, 100
2, 49920, Note_on_c, 0, 82, 0
2, 49920, Note_on_c, 0, 81, 100
2, 50280, Note_on_c, 0, 81, 0
2, 50280, Note_on_c, 0, 79, 100
2, 50400, Note_on_c, 0, 79, 0
2, 50400, Note_on_c, 0, 81, 100
2, 50560, Note_on_c, 0, 81, 0
2, 50560, Note_on_c, 0, 79, 100
2, 50720, Note_on_c, 0, 79, 0
2, 50720, Note_on_c, 0, 77, 100
2, 50880, Note_on_c, 0, 77, 0
2, 50880, Note_on_c, 0, 76, 100
2, 51040, Note_on_c, 0, 76, 0
2, 51040, Note_on_c, 0, 77, 100
2, 51200, Note_on_c, 0, 77, 0
2, 51200, Note_on_c, 0, 79, 100
2, 51360, Note_on_c, 0, 79, 0
2, 51360, Note_on_c, 0, 72, 100
2, 51520, Note_on_c, 0, 72, 0
2, 51520, Note_on_c, 0, 74, 100
2, 51680, Note_on_c, 0, 74, 0
2, 51680, Note_on_c, 0, 76, 100
2, 51840, Note_on_c, 0, 76, 0
2, 51840, Note_on_c, 0, 77, 100
2, 52000, Note_on_c, 0, 77, 0
2, 52000, Note_on_c, 0, 72, 100
2, 52160, Note_on_c, 0, 72, 0
2, 52160, Note_on_c, 0, 70, 100
2, 52320, Note_on_c, 0, 70, 0
2, 52320, Note_on_c, 0, 69, 100
2, 52480, Note_on_c, 0, 69, 0
2, 52480, Note_on_c, 0, 70, 100
2, 52640, Note_on_c, 0, 70, 0
2, 52640, Note_on_c, 0, 72, 100
2, 52800, Note_on_c, 0, 72, 0
2, 52800, Note_on_c, 0, 65, 100
2, 52960, Note_on_c, 0, 65, 0
2, 52960, Note_on_c, 0, 67, 100
2, 53120, Note_on_c, 0, 67, 0
2, 53120, Note_on_c, 0, 69, 100
2, 53280, Note_on_c, 0, 69, 0
2, 53280, Note_on_c, 0, 62, 100
2, 53640, Note_on_c, 0, 62, 0
2, 53640, Note_on_c, 0, 66, 100
2, 53760, Note_on_c, 0, 66, 0
2, 53760, Note_on_c, 0, 69, 100
2, 54120, Note_on_c, 0, 69, 0
2, 54120, Note_on_c, 0, 72, 100
2, 54240, Note_on_c, 0, 72, 0
2, 54240, Note_on_c, 0, 70, 100
2, 54600, Note_on_c, 0, 70, 0
2, 54600, Note_on_c, 0, 69, 100
2, 54720, Note_on_c, 0, 69, 0
2, 54720, Note_on_c, 0, 70, 100
2, 54880, Note_on_c, 0, 70, 0
2, 54880, Note_on_c, 0, 74, 100
2, 55040, Note_on_c, 0, 74, 0
2, 55040, Note_on_c, 0, 72, 100
2, 55200, Note_on_c, 0, 72, 0
2, 55200, Note_on_c, 0, 70, 100
2, 55360, Note_on_c, 0, 70, 0
2, 55360, Note_on_c, 0, 69, 100
2, 55520, Note_on_c, 0, 69, 0
2, 55520, Note_on_c, 0, 67, 100
2, 55680, Note_on_c, 0, 67, 0
2, 55680, Note_on_c, 0, 65, 100
2, 55840, Note_on_c, 0, 65, 0
2, 55840, Note_on_c, 0, 64, 100
2, 56000, Note_on_c, 0, 64, 0
2, 56000, Note_on_c, 0, 62, 100
2, 56160, Note_on_c, 0, 62, 0
2, 56160, Note_on_c, 0, 61, 100
2, 56520, Note_on_c, 0, 61, 0
2, 56520, Note_on_c, 0, 64, 100
2, 56640, Note_on_c, 0, 64, 0
2, 56640, Note_on_c, 0, 69, 100
2, 57000, Note_on_c, 0, 69, 0
2, 57000, Note_on_c, 0, 79, 100
2, 57120, Note_on_c, 0, 79, 0
2, 57120, Note_on_c, 0, 77, 100
2, 57480, Note_on_c, 0, 77, 0
2, 57480, Note_on_c, 0, 76, 100
2, 57600, Note_on_c, 0, 76, 0
2, 57600, Note_on_c, 0, 77, 100
2, 57760, Note_on_c, 0, 77, 0
2, 57760, Note_on_c, 0, 69, 100
2, 57920, Note_on_c, 0, 69, 0
2, 57920, Note_on_c, 0, 67, 100
2, 58080, Note_on_c, 0, 67, 0
2, 58080, Note_on_c, 0, 65, 100
2, 58240, Note_on_c, 0, 65, 0
2, 58240, Note_on_c, 0, 64, 100
2, 58400, Note_on_c, 0, 64, 0
2, 58400, Note_on_c, 0, 62, 100
2, 58560, Note_on_c, 0, 62, 0
2, 58560, Note_on_c, 0, 60, 100
2, 58720, Note_on_c, 0, 60, 0
2, 58720, Note_on_c, 0, 59, 100
2, 58880, Note_on_c, 0, 59, 0
2, 58880, Note_on_c, 0, 57, 100
2, 59040, Note_on_c, 0, 57, 0
2, 59040, Note_on_c, 0, 56, 100
2, 59200, Note_on_c, 0, 56, 0
2, 59200, Note_on_c, 0, 74, 100
2, 59360, Note_on_c, 0, 74, 0
2, 59360, Note_on_c, 0, 76, 100
2, 59520, Note_on_c, 0, 76, 0
2, 59520, Note_on_c, 0, 77, 100
2, 59680, Note_on_c, 0, 77, 0
2, 59680, Note_on_c, 0, 76, 100
2, 59840, Note_on_c, 0, 76, 0
2, 59840, Note_on_c, 0, 74, 100
2, 60000, Note_on_c, 0, 74, 0
2, 60000, Note_on_c, 0, 72, 100
2, 60160, Note_on_c, 0, 72, 0
2, 60160, Note_on_c, 0, 74, 100
2, 60320, Note_on_c, 0, 74, 0
2, 60320, Note_on_c, 0, 71, 100
2, 60480, Note_on_c, 0, 71, 0
2, 60480, Note_on_c, 0, 57, 100
2, 60640, Note_on_c, 0, 57, 0
2, 60640, Note_on_c, 0, 72, 100
2, 60800, Note_on_c, 0, 72, 0
2, 60800, Note_on_c, 0, 74, 100
2, 60960, Note_on_c, 0, 74, 0
2, 60960, Note_on_c, 0, 76, 100
2, 61120, Note_on_c, 0, 76, 0
2, 61120, Note_on_c, 0, 74, 100
2, 61280, Note_on_c, 0, 74, 0
2, 61280, Note_on_c, 0, 72, 100
2, 61440, Note_on_c, 0, 72, 0
2, 61440, Note_on_c, 0, 71, 100
2, 61600, Note_on_c, 0, 71, 0
2, 61600, Note_on_c, 0, 72, 100
2, 61760, Note_on_c, 0, 72, 0
2, 61760, Note_on_c, 0, 69, 100
2, 61920, Note_on_c, 0, 69, 0
2, 61920, Note_on_c, 0, 68, 100
2, 62080, Note_on_c, 0, 68, 0
2, 62080, Note_on_c, 0, 62, 100
2, 62240, Note_on_c, 0, 62, 0
2, 62240, Note_on_c, 0, 64, 100
2, 62400, Note_on_c, 0, 64, 0
2, 62400, Note_on_c, 0, 65, 100
2, 62560, Note_on_c, 0, 65, 0
2, 62560, Note_on_c, 0, 64, 100
2, 62720, Note_on_c, 0, 64, 0
2, 62720, Note_on_c, 0, 62, 100
2, 62880, Note_on_c, 0, 62, 0
2, 62880, Note_on_c, 0, 60, 100
2, 63040, Note_on_c, 0, 60, 0
2, 63040, Note_on_c, 0, 62, 100
2, 63200, Note_on_c, 0, 62, 0
2, 63200, Note_on_c, 0, 59, 100
2, 63360, Note_on_c, 0, 59, 0
2, 63360, Note_on_c, 0, 60, 100
2, 63520, Note_on_c, 0, 60, 0
2, 63520, Note_on_c, 0, 64, 100
2, 63680, Note_on_c, 0, 64, 0
2, 63680, Note_on_c, 0, 69, 100
2, 63840, Note_on_c, 0, 69, 0
2, 63840, Note_on_c, 0, 72, 100
2, 64000, Note_on_c, 0, 72, 0
2, 64000, Note_on_c, 0, 76, 100
2, 64160, Note_on_c, 0, 76, 0
2, 64160, Note_on_c, 0, 81, 100
2, 64320, Note_on_c, 0, 81, 0
2, 64320, Note_on_c, 0, 83, 100
2, 64480, Note_on_c, 0, 83, 0
2, 64480, Note_on_c, 0, 80, 100
2, 64640, Note_on_c, 0, 80, 0
2, 64640, Note_on_c, 0, 81, 100
2, 64800, Note_on_c, 0, 81, 0
2, 64800, Note_on_c, 0, 77, 100
2, 64960, Note_on_c, 0, 77, 0
2, 64960, Note_on_c, 0, 73, 100
2, 65120, Note_on_c, 0, 73, 0
2, 65120, Note_on_c, 0, 74, 100
2, 65280, Note_on_c, 0, 74, 0
2, 65280, Note_on_c, 0, 70, 100
2, 65440, Note_on_c, 0, 70, 0
2, 65440, Note_on_c, 0, 68, 100
2, 65600, Note_on_c, 0, 68, 0
2, 65600, Note_on_c, 0, 69, 100
2, 65760, Note_on_c, 0, 69, 0
2, 65760, Note_on_c, 0, 65, 100
2, 65920, Note_on_c, 0, 65, 0
2, 65920, Note_on_c, 0, 61, 100
2, 66080, Note_on_c, 0, 61, 0
2, 66080, Note_on_c, 0, 62, 100
2, 66240, Note_on_c, 0, 62, 0
2, 66240, Note_on_c, 0, 56, 100
2, 66400, Note_on_c, 0, 56, 0
2, 66400, Note_on_c, 0, 83, 100
2, 66560, Note_on_c, 0, 83, 0
2, 66560, Note_on_c, 0, 81, 100
2, 66720, Note_on_c, 0, 81, 0
2, 66720, Note_on_c, 0, 80, 100
2, 66880, Note_on_c, 0, 80, 0
2, 66880, Note_on_c, 0, 77, 100
2, 67040, Note_on_c, 0, 77, 0
2, 67040, Note_on_c, 0, 76, 100
2, 67200, Note_on_c, 0, 76, 0
2, 67200, Note_on_c, 0, 74, 100
2, 67360, Note_on_c, 0, 74, 0
2, 67360, Note_on_c, 0, 72, 100
2, 67520, Note_on_c, 0, 72, 0
2, 67520, Note_on_c, 0, 71, 100
2, 67680, Note_on_c, 0, 71, 0
2, 67680, Note_on_c, 0, 72, 100
2, 67840, Note_on_c, 0, 72, 0
2, 67840, Note_on_c, 0, 76, 100
2, 68000, Note_on_c, 0, 76, 0
2, 68000, Note_on_c, 0, 74, 100
2, 68160, Note_on_c, 0, 74, 0
2, 68160, Note_on_c, 0, 72, 100
2, 68320, Note_on_c, 0, 72, 0
2, 68320, Note_on_c, 0, 71, 100
2, 68480, Note_on_c, 0, 71, 0
2, 68480, Note_on_c, 0, 69, 100
2, 68640, Note_on_c, 0, 69, 0
2, 68640, Note_on_c, 0, 64, 100
2, 68800, Note_on_c, 0, 64, 0
2, 68800, Note_on_c, 0, 69, 100
2, 68960, Note_on_c, 0, 69, 0
2, 68960, Note_on_c, 0, 68, 100
2, 69120, Note_on_c, 0, 68, 0
2, 69120, Note_on_c, 0, 57, 100
2, 70440, Note_on_c, 0, 57, 0
2, 70440, Note_on_c, 0, 76, 100
2, 70560, Note_on_c, 0, 76, 0
2, 70560, Note_on_c, 0, 76, 100
2, 71040, Note_on_c, 0, 76, 0
2, 71040, Note_on_c, 0, 68, 100
2, 71200, Note_on_c, 0, 68, 0
2, 71200, Note_on_c, 0, 77, 100
2, 71360, Note_on_c, 0, 77, 0
2, 71360, Note_on_c, 0, 76, 100
2, 71520, Note_on_c, 0, 76, 0
2, 71520, Note_on_c, 0, 74, 100
2, 71680, Note_on_c, 0, 74, 0
2, 71680, Note_on_c, 0, 73, 100
2, 71840, Note_on_c, 0, 73, 0
2, 71840, Note_on_c, 0, 71, 100
2, 72000, Note_on_c, 0, 71, 0
2, 72000, Note_on_c, 0, 73, 100
2, 72160, Note_on_c, 0, 73, 0
2, 72160, Note_on_c, 0, 69, 100
2, 72320, Note_on_c, 0, 69, 0
2, 72320, Note_on_c, 0, 64, 100
2, 72480, Note_on_c, 0, 64, 0
2, 72480, Note_on_c, 0, 57, 100
2, 72640, Note_on_c, 0, 57, 0
2, 72640, Note_on_c, 0, 70, 100
2, 72800, Note_on_c, 0, 70, 0
2, 72800, Note_on_c, 0, 69, 100
2, 72960, Note_on_c, 0, 69, 0
2, 72960, Note_on_c, 0, 67, 100
2, 73120, Note_on_c, 0, 67, 0
2, 73120, Note_on_c, 0, 65, 100
2, 73280, Note_on_c, 0, 65, 0
2, 73280, Note_on_c, 0, 64, 100
2, 73440, Note_on_c, 0, 64, 0
2, 73440, Note_on_c, 0, 65, 100
2, 73800, Note_on_c, 0, 65, 0
2, 73800, Note_on_c, 0, 74, 100
2, 73920, Note_on_c, 0, 74, 0
2, 73920, Note_on_c, 0, 64, 100
2, 74280, Note_on_c, 0, 64, 0
2, 74280, Note_on_c, 0, 79, 100
2, 74400, Note_on_c, 0, 79, 0
2, 74400, Note_on_c, 0, 77, 100
2, 74760, Note_on_c, 0, 77, 0
2, 74760, Note_on_c, 0, 76, 100
2, 74880, Note_on_c, 0, 76, 0
2, 74880, Note_on_c, 0, 77, 100
2, 75240, Note_on_c, 0, 77, 0
2, 75240, Note_on_c, 0, 74, 100
2, 75360, Note_on_c, 0, 74, 0
2, 75360, Note_on_c, 0, 69, 100
2, 75720, Note_on_c, 0, 69, 0
2, 75720, Note_on_c, 0, 65, 100
2, 75840, Note_on_c, 0, 65, 0
2, 75840, Note_on_c, 0, 62, 100
2, 76200, Note_on_c, 0, 62, 0
2, 76200, Note_on_c, 0, 65, 100
2, 76320, Note_on_c, 0, 65, 0
2, 76320, Note_on_c, 0, 57, 100
2, 76480, Note_on_c, 0, 57, 0
2, 76480, Note_on_c, 0, 75, 100
2, 76640, Note_on_c, 0, 75, 0
2, 76640, Note_on_c, 0, 74, 100
2, 76800, Note_on_c, 0, 74, 0
2, 76800, Note_on_c, 0, 72, 100
2, 76960, Note_on_c, 0, 72, 0
2, 76960, Note_on_c, 0, 70, 100
2, 77120, Note_on_c, 0, 70, 0
2, 77120, Note_on_c, 0, 69, 100
2, 77280, Note_on_c, 0, 69, 0
2, 77280, Note_on_c, 0, 79, 100
2, 77440, Note_on_c, 0, 79, 0
2, 77440, Note_on_c, 0, 77, 100
2, 77600, Note_on_c, 0, 77, 0
2, 77600, Note_on_c, 0, 75, 100
2, 77760, Note_on_c, 0, 75, 0
2, 77760, Note_on_c, 0, 74, 100
2, 78120, Note_on_c, 0, 74, 0
2, 78120, Note_on_c, 0, 70, 100
2, 78240, Note_on_c, 0, 70, 0
2, 78240, Note_on_c, 0, 65, 100
2, 78600, Note_on_c, 0, 65, 0
2, 78600, Note_on_c, 0, 62, 100
2, 78720, Note_on_c, 0, 62, 0
2, 78720, Note_on_c, 0, 58, 100
2, 79080, Note_on_c, 0, 58, 0
2, 79080, Note_on_c, 0, 74, 100
2, 79200, Note_on_c, 0, 74, 0
2, 79200, Note_on_c, 0, 66, 100
2, 79360, Note_on_c, 0, 66, 0
2, 79360, Note_on_c, 0, 84, 100
2, 79520, Note_on_c, 0, 84, 0
2, 79520, Note_on_c, 0, 82, 100
2, 79680, Note_on_c, 0, 82, 0
2, 79680, Note_on_c, 0, 81, 100
2, 79840, Note_on_c, 0, 81, 0
2, 79840, Note_on_c, 0, 79, 100
2, 80000, Note_on_c, 0, 79, 0
2, 80000, Note_on_c, 0, 78, 100
2, 80160, Note_on_c, 0, 78, 0
2, 80160, Note_on_c, 0, 75, 100
2, 80320, Note_on_c, 0, 75, 0
2, 80320, Note_on_c, 0, 74, 100
2, 80480, Note_on_c, 0, 74, 0
2, 80480, Note_on_c, 0, 72, 100
2, 80640, Note_on_c, 0, 72, 0
2, 80640, Note_on_c, 0, 70, 100
2, 80800, Note_on_c, 0, 70, 0
2, 80800, Note_on_c, 0, 67, 100
2, 80960, Note_on_c, 0, 67, 0
2, 80960, Note_on_c, 0, 69, 100
2, 81120, Note_on_c, 0, 69, 0
2, 81120, Note_on_c, 0, 70, 100
2, 81280, Note_on_c, 0, 70, 0
2, 81280, Note_on_c, 0, 72, 100
2, 81440, Note_on_c, 0, 72, 0
2, 81440, Note_on_c, 0, 74, 100
2, 81600, Note_on_c, 0, 74, 0
2, 81600, Note_on_c, 0, 75, 100
2, 81760, Note_on_c, 0, 75, 0
2, 81760, Note_on_c, 0, 74, 100
2, 81920, Note_on_c, 0, 74, 0
2, 81920, Note_on_c, 0, 75, 100
2, 82080, Note_on_c, 0, 75, 0
2, 82080, Note_on_c, 0, 69, 100
2, 82240, Note_on_c, 0, 69, 0
2, 82240, Note_on_c, 0, 65, 100
2, 82400, Note_on_c, 0, 65, 0
2, 82400, Note_on_c, 0, 67, 100
2, 82560, Note_on_c, 0, 67, 0
2, 82560, Note_on_c, 0, 69, 100
2, 82720, Note_on_c, 0, 69, 0
2, 82720, Note_on_c, 0, 70, 100
2, 82880, Note_on_c, 0, 70, 0
2, 82880, Note_on_c, 0, 72, 100
2, 83040, Note_on_c, 0, 72, 0
2, 83040, Note_on_c, 0, 74, 100
2, 83200, Note_on_c, 0, 74, 0
2, 83200, Note_on_c, 0, 72, 100
2, 83360, Note_on_c, 0, 72, 0
2, 83360, Note_on_c, 0, 74, 100
2, 83520, Note_on_c, 0, 74, 0
2, 83520, Note_on_c, 0, 63, 100
2, 83880, Note_on_c, 0, 63, 0
2, 83880, Note_on_c, 0, 74, 100
2, 84000, Note_on_c, 0, 74, 0
2, 84000, Note_on_c, 0, 79, 100
2, 84360, Note_on_c, 0, 79, 0
2, 84360, Note_on_c, 0, 70, 100
2, 84480, Note_on_c, 0, 70, 0
2, 84480, Note_on_c, 0, 72, 100
2, 84840, Note_on_c, 0, 72, 0
2, 84840, Note_on_c, 0, 75, 100
2, 84960, Note_on_c, 0, 75, 0
2, 84960, Note_on_c, 0, 66, 100
2, 85120, Note_on_c, 0, 66, 0
2, 85120, Note_on_c, 0, 69, 100
2, 85280, Note_on_c, 0, 69, 0
2, 85280, Note_on_c, 0, 67, 100
2, 85440, Note_on_c, 0, 67, 0
2, 85440, Note_on_c, 0, 66, 100
2, 85600, Note_on_c, 0, 66, 0
2, 85600, Note_on_c, 0, 63, 100
2, 85760, Note_on_c, 0, 63, 0
2, 85760, Note_on_c, 0, 62, 100
2, 85920, Note_on_c, 0, 62, 0
2, 85920, Note_on_c, 0, 60, 100
2, 86080, Note_on_c, 0, 60, 0
2, 86080, Note_on_c, 0, 58, 100
2, 86240, Note_on_c, 0, 58, 0
2, 86240, Note_on_c, 0, 57, 100
2, 86400, Note_on_c, 0, 57, 0
2, 86400, Note_on_c, 0, 58, 100
2, 86560, Note_on_c, 0, 58, 0
2, 86560, Note_on_c, 0, 62, 100
2, 86720, Note_on_c, 0, 62, 0
2, 86720, Note_on_c, 0, 67, 100
2, 86880, Note_on_c, 0, 67, 0
2, 86880, Note_on_c, 0, 70, 100
2, 87040, Note_on_c, 0, 70, 0
2, 87040, Note_on_c, 0, 74, 100
2, 87200, Note_on_c, 0, 74, 0
2, 87200, Note_on_c, 0, 79, 100
2, 87360, Note_on_c, 0, 79, 0
2, 87360, Note_on_c, 0, 74, 100
2, 87520, Note_on_c, 0, 74, 0
2, 87520, Note_on_c, 0, 79, 100
2, 87680, Note_on_c, 0, 79, 0
2, 87680, Note_on_c, 0, 78, 100
2, 87840, Note_on_c, 0, 78, 0
2, 87840, Note_on_c, 0, 79, 100
2, 88000, Note_on_c, 0, 79, 0
2, 88000, Note_on_c, 0, 74, 100
2, 88160, Note_on_c, 0, 74, 0
2, 88160, Note_on_c, 0, 72, 100
2, 88320, Note_on_c, 0, 72, 0
2, 88320, Note_on_c, 0, 70, 100
2, 88480, Note_on_c, 0, 70, 0
2, 88480, Note_on_c, 0, 69, 100
2, 88640, Note_on_c, 0, 69, 0
2, 88640, Note_on_c, 0, 67, 100
2, 88800, Note_on_c, 0, 67, 0
2, 88800, Note_on_c, 0, 65, 100
2, 88960, Note_on_c, 0, 65, 0
2, 88960, Note_on_c, 0, 64, 100
2, 89120, Note_on_c, 0, 64, 0
2, 89120, Note_on_c, 0, 62, 100
2, 89280, Note_on_c, 0, 62, 0
2, 89280, Note_on_c, 0, 64, 100
2, 89640, Note_on_c, 0, 64, 0
2, 89640, Note_on_c, 0, 67, 100
2, 89760, Note_on_c, 0, 67, 0
2, 89760, Note_on_c, 0, 70, 100
2, 90120, Note_on_c, 0, 70, 0
2, 90120, Note_on_c, 0, 74, 100
2, 90240, Note_on_c, 0, 74, 0
2, 90240, Note_on_c, 0, 72, 100
2, 90600, Note_on_c, 0, 72, 0
2, 90600, Note_on_c, 0, 70, 100
2, 90720, Note_on_c, 0, 70, 0
2, 90720, Note_on_c, 0, 69, 100
2, 90880, Note_on_c, 0, 69, 0
2, 90880, Note_on_c, 0, 65, 100
2, 91040, Note_on_c, 0, 65, 0
2, 91040, Note_on_c, 0, 67, 100
2, 91200, Note_on_c, 0, 67, 0
2, 91200, Note_on_c, 0, 69, 100
2, 91360, Note_on_c, 0, 69, 0
2, 91360, Note_on_c, 0, 71, 100
2, 91520, Note_on_c, 0, 71, 0
2, 91520, Note_on_c, 0, 73, 100
2, 91680, Note_on_c, 0, 73, 0
2, 91680, Note_on_c, 0, 74, 100
2, 91840, Note_on_c, 0, 74, 0
2, 91840, Note_on_c, 0, 76, 100
2, 92000, Note_on_c, 0, 76, 0
2, 92000, Note_on_c, 0, 77, 100
2, 92160, Note_on_c, 0, 77, 0
2, 92160, Note_on_c, 0, 79, 100
2, 92320, Note_on_c, 0, 79, 0
2, 92320, Note_on_c, 0, 81, 100
2, 92480, Note_on_c, 0, 81, 0
2, 92480, Note_on_c, 0, 79, 100
2, 92640, Note_on_c, 0, 79, 0
2, 92640, Note_on_c, 0, 77, 100
2, 92800, Note_on_c, 0, 77, 0
2, 92800, Note_on_c, 0, 76, 100
2, 92960, Note_on_c, 0, 76, 0
2, 92960, Note_on_c, 0, 74, 100
2, 93120, Note_on_c, 0, 74, 0
2, 93120, Note_on_c, 0, 73, 100
2, 93280, Note_on_c, 0, 73, 0
2, 93280, Note_on_c, 0, 71, 100
2, 93440, Note_on_c, 0, 71, 0
2, 93440, Note_on_c, 0, 69, 100
2, 93600, Note_on_c, 0, 69, 0
2, 93600, Note_on_c, 0, 77, 100
2, 93760, Note_on_c, 0, 77, 0
2, 93760, Note_on_c, 0, 79, 100
2, 93920, Note_on_c, 0, 79, 0
2, 93920, Note_on_c, 0, 77, 100
2, 94080, Note_on_c, 0, 77, 0
2, 94080, Note_on_c, 0, 76, 100
2, 94240, Note_on_c, 0, 76, 0
2, 94240, Note_on_c, 0, 74, 100
2, 94400, Note_on_c, 0, 74, 0
2, 94400, Note_on_c, 0, 72, 100
2, 94560, Note_on_c, 0, 72, 0
2, 94560, Note_on_c, 0, 71, 100
2, 94720, Note_on_c, 0, 71, 0
2, 94720, Note_on_c, 0, 69, 100
2, 94880, Note_on_c, 0, 69, 0
2, 94880, Note_on_c, 0, 67, 100
2, 95040, Note_on_c, 0, 67, 0
2, 95040, Note_on_c, 0, 76, 100
2, 95200, Note_on_c, 0, 76, 0
2, 95200, Note_on_c, 0, 77, 100
2, 95360, Note_on_c, 0, 77, 0
2, 95360, Note_on_c, 0, 76, 100
2, 95520, Note_on_c, 0, 76, 0
2, 95520, Note_on_c, 0, 74, 100
2, 95680, Note_on_c, 0, 74, 0
2, 95680, Note_on_c, 0, 72, 100
2, 95840, Note_on_c, 0, 72, 0
2, 95840, Note_on_c, 0, 70, 100
2, 96000, Note_on_c, 0, 70, 0
2, 96000, Note_on_c, 0, 69, 100
2, 96160, Note_on_c, 0, 69, 0
2, 96160, Note_on_c, 0, 72, 100
2, 96320, Note_on_c, 0, 72, 0
2, 96320, Note_on_c, 0, 75, 100
2, 96480, Note_on_c, 0, 75, 0
2, 96480, Note_on_c, 0, 74, 100
2, 96640, Note_on_c, 0, 74, 0
2, 96640, Note_on_c, 0, 75, 100
2, 96800, Note_on_c, 0, 75, 0
2, 96800, Note_on_c, 0, 74, 100
2, 96960, Note_on_c, 0, 74, 0
2, 96960, Note_on_c, 0, 72, 100
2, 97120, Note_on_c, 0, 72, 0
2, 97120, Note_on_c, 0, 70, 100
2, 97280, Note_on_c, 0, 70, 0
2, 97280, Note_on_c, 0, 69, 100
2, 97440, Note_on_c, 0, 69, 0
2, 97440, Note_on_c, 0, 68, 100
2, 97600, Note_on_c, 0, 68, 0
2, 97600, Note_on_c, 0, 74, 100
2, 97760, Note_on_c, 0, 74, 0
2, 97760, Note_on_c, 0, 83, 100
2, 97920, Note_on_c, 0, 83, 0
2, 97920, Pitch_bend_c, 0, 12288
2, 97920, Note_on_c, 0, 73, 100
2, 98000, Pitch_bend_c, 0, 8192
2, 98080, Pitch_bend_c, 0, 12288
2, 98160, Pitch_bend_c, 0, 8192
2, 98400, Note_on_c, 0, 73, 0
2, 98400, Note_on_c, 0, 57, 100
2, 98560, Note_on_c, 0, 57, 0
2, 98560, Note_on_c, 0, 69, 100
2, 98720, Note_on_c, 0, 69, 0
2, 98720, Note_on_c, 0, 71, 100
2, 98880, Note_on_c, 0, 71, 0
2, 98880, Note_on_c, 0, 73, 100
2, 99040, Note_on_c, 0, 73, 0
2, 99040, Note_on_c, 0, 74, 100
2, 99200, Note_on_c, 0, 74, 0
2, 99200, Note_on_c, 0, 76, 100
2, 99360, Note_on_c, 0, 76, 0
2, 99360, Note_on_c, 0, 67, 100
2, 99520, Note_on_c, 0, 67, 0
2, 99520, Note_on_c, 0, 66, 100
2, 99680, Note_on_c, 0, 66, 0
2, 99680, Note_on_c, 0, 67, 100
2, 99840, Note_on_c, 0, 67, 0
2, 99840, Note_on_c, 0, 61, 100
2, 100000, Note_on_c, 0, 61, 0
2, 100000, Note_on_c, 0, 67, 100
2, 100160, Note_on_c, 0, 67, 0
2, 100160, Note_on_c, 0, 69, 100
2, 100320, Note_on_c, 0, 69, 0
2, 100320, Note_on_c, 0, 70, 100
2, 100480, Note_on_c, 0, 70, 0
2, 100480, Note_on_c, 0, 69, 100
2, 100640, Note_on_c, 0, 69, 0
2, 100640, Note_on_c, 0, 67, 100
2, 100800, Note_on_c, 0, 67, 0
2, 100800, Note_on_c, 0, 65, 100
2, 100960, Note_on_c, 0, 65, 0
2, 100960, Note_on_c, 0, 67, 100
2, 101120, Note_on_c, 0, 67, 0
2, 101120, Note_on_c, 0, 69, 100
2, 101280, Note_on_c, 0, 69, 0
2, 101280, Note_on_c, 0, 62, 100
2, 101440, Note_on_c, 0, 62, 0
2, 101440, Note_on_c, 0, 74, 100
2, 101600, Note_on_c, 0, 74, 0
2, 101600, Note_on_c, 0, 76, 100
2, 101760, Note_on_c, 0, 76, 0
2, 101760, Note_on_c, 0, 77, 100
2, 101920, Note_on_c, 0, 77, 0
2, 101920, Note_on_c, 0, 79, 100
2, 102080, Note_on_c, 0, 79, 0
2, 102080, Note_on_c, 0, 81, 100
2, 102240, Note_on_c, 0, 81, 0
2, 102240, Note_on_c, 0, 72, 100
2, 102400, Note_on_c, 0, 72, 0
2, 102400, Note_on_c, 0, 71, 100
2, 102560, Note_on_c, 0, 71, 0
2, 102560, Note_on_c, 0, 72, 100
2, 102720, Note_on_c, 0, 72, 0
2, 102720, Note_on_c, 0, 66, 100
2, 102880, Note_on_c, 0, 66, 0
2, 102880, Note_on_c, 0, 72, 100
2, 103040, Note_on_c, 0, 72, 0
2, 103040, Note_on_c, 0, 74, 100
2, 103200, Note_on_c, 0, 74, 0
2, 103200, Note_on_c, 0, 75, 100
2, 103360, Note_on_c, 0, 75, 0
2, 103360, Note_on_c, 0, 74, 100
2, 103520, Note_on_c, 0, 74, 0
2, 103520, Note_on_c, 0, 72, 100
2, 103680, Note_on_c, 0, 72, 0
2, 103680, Note_on_c, 0, 70, 100
2, 103840, Note_on_c, 0, 70, 0
2, 103840, Note_on_c, 0, 66, 100
2, 104000, Note_on_c, 0, 66, 0
2, 104000, Note_on_c, 0, 67, 100
2, 104160, Note_on_c, 0, 67, 0
2, 104160, Note_on_c, 0, 75, 100
2, 104320, Note_on_c, 0, 75, 0
2, 104320, Note_on_c, 0, 73, 100
2, 104480, Note_on_c, 0, 73, 0
2, 104480, Note_on_c, 0, 74, 100
2, 104640, Note_on_c, 0, 74, 0
2, 104640, Note_on_c, 0, 82, 100
2, 104800, Note_on_c, 0, 82, 0
2, 104800, Note_on_c, 0, 78, 100
2, 104960, Note_on_c, 0, 78, 0
2, 104960, Note_on_c, 0, 79, 100
2, 105120, Note_on_c, 0, 79, 0
2, 105120, Note_on_c, 0, 85, 100
2, 105720, Note_on_c, 0, 85, 0
2, 105740, Note_on_c, 0, 86, 100
2, 105880, Note_on_c, 0, 85, 100
2, 105900, Note_on_c, 0, 86, 0
2, 106040, Note_on_c, 0, 85, 0
2, 106060, Note_on_c, 0, 86, 100
2, 106220, Note_on_c, 0, 86, 0
2, 106220, Note_on_c, 0, 84, 100
2, 106380, Note_on_c, 0, 84, 0
2, 106380, Note_on_c, 0, 82, 100
2, 106540, Note_on_c, 0, 82, 0
2, 106560, Note_on_c, 0, 81, 100
2, 106720, Note_on_c, 0, 81, 0
2, 106720, Note_on_c, 0, 79, 100
2, 106880, Note_on_c, 0, 79, 0
2, 106880, Note_on_c, 0, 77, 100
2, 107040, Note_on_c, 0, 77, 0
2, 107040, Note_on_c, 0, 76, 100
2, 107200, Note_on_c, 0, 76, 0
2, 107200, Note_on_c, 0, 77, 100
2, 107360, Note_on_c, 0, 77, 0
2, 107360, Note_on_c, 0, 74, 100
2, 107520, Note_on_c, 0, 74, 0
2, 107520, Note_on_c, 0, 69, 100
2, 107680, Note_on_c, 0, 69, 0
2, 107680, Note_on_c, 0, 74, 100
2, 107840, Note_on_c, 0, 74, 0
2, 107840, Note_on_c, 0, 73, 100
2, 108000, Note_on_c, 0, 73, 0
2, 108000, Note_on_c, 0, 74, 100
2, 108360, Note_on_c, 0, 74, 0
2, 108360, Note_on_c, 0, 70, 100
2, 108480, Note_on_c, 0, 70, 0
2, 108480, Note_on_c, 0, 68, 100
2, 109120, Note_on_c, 0, 68, 0
2, 109120, Note_on_c, 0, 69, 100
2, 109280, Note_on_c, 0, 69, 0
2, 109280, Note_on_c, 0, 71, 100
2, 109440, Note_on_c, 0, 71, 0
2, 109440, Note_on_c, 0, 61, 100
2, 109600, Note_on_c, 0, 61, 0
2, 109600, Note_on_c, 0, 64, 100
2, 109760, Note_on_c, 0, 64, 0
2, 109760, Note_on_c, 0, 67, 100
2, 109920, Note_on_c, 0, 67, 0
2, 109920, Note_on_c, 0, 70, 100
2, 110560, Note_on_c, 0, 70, 0
2, 110560, Note_on_c, 0, 69, 100
2, 110720, Note_on_c, 0, 69, 0
2, 110720, Note_on_c, 0, 67, 100
2, 110880, Note_on_c, 0, 67, 0
2, 110880, Note_on_c, 0, 65, 100
2, 111040, Note_on_c, 0, 65, 0
2, 111040, Note_on_c, 0, 69, 100
2, 111200, Note_on_c, 0, 69, 0
2, 111200, Note_on_c, 0, 73, 100
2, 111360, Note_on_c, 0, 73, 0
2, 111360, Note_on_c, 0, 74, 100
2, 111520, Note_on_c, 0, 74, 0
2, 111520, Note_on_c, 0, 77, 100
2, 111680, Note_on_c, 0, 77, 0
2, 111680, Note_on_c, 0, 81, 100
2, 111840, Note_on_c, 0, 81, 0
2, 111840, Note_on_c, 0, 57, 100
2, 112000, Note_on_c, 0, 57, 0
2, 112000, Note_on_c, 0, 62, 100
2, 112160, Note_on_c, 0, 62, 0
2, 112160, Note_on_c, 0, 61, 100
2, 112320, Note_on_c, 0, 61, 0
2, 112320, Note_on_c, 0, 62, 100
2, 113640, Note_on_c, 0, 62, 0
2, 113640, Note_on_c, 0, 76, 100
2, 113760, Note_on_c, 0, 76, 0
2, 113760, Note_on_c, 0, 76, 100
2, 114240, Note_on_c, 0, 76, 0
2, 114240, Note_on_c, 0, 68, 100
2, 114400, Note_on_c, 0, 68, 0
2, 114400, Note_on_c, 0, 77, 100
2, 114560, Note_on_c, 0, 77, 0
2, 114560, Note_on_c, 0, 76, 100
2, 114720, Note_on_c, 0, 76, 0
2, 114720, Note_on_c, 0, 74, 100
2, 114880, Note_on_c, 0, 74, 0
2, 114880, Note_on_c, 0, 73, 100
2, 115040, Note_on_c, 0, 73, 0
2, 115040, Note_on_c, 0, 71, 100
2, 115200, Note_on_c, 0, 71, 0
2, 115200, Note_on_c, 0, 73, 100
2, 115360, Note_on_c, 0, 73, 0
2, 115360, Note_on_c, 0, 69, 100
2, 115520, Note_on_c, 0, 69, 0
2, 115520, Note_on_c, 0, 64, 100
2, 115680, Note_on_c, 0, 64, 0
2, 115680, Note_on_c, 0, 57, 100
2, 115840, Note_on_c, 0, 57, 0
2, 115840, Note_on_c, 0, 70, 100
2, 116000, Note_on_c, 0, 70, 0
2, 116000, Note_on_c, 0, 69, 100
2, 116160, Note_on_c, 0, 69, 0
2, 116160, Note_on_c, 0, 67, 100
2, 116320, Note_on_c, 0, 67, 0
2, 116320, Note_on_c, 0, 65, 100
2, 116480, Note_on_c, 0, 65, 0
2, 116480, Note_on_c, 0, 64, 100
2, 116640, Note_on_c, 0, 64, 0
2, 116640, Note_on_c, 0, 65, 100
2, 117000, Note_on_c, 0, 65, 0
2, 117000, Note_on_c, 0, 74, 100
2, 117120, Note_on_c, 0, 74, 0
2, 117120, Note_on_c, 0, 64, 100
2, 117480, Note_on_c, 0, 64, 0
2, 117480, Note_on_c, 0, 79, 100
2, 117600, Note_on_c, 0, 79, 0
2, 117600, Note_on_c, 0, 77, 100
2, 117960, Note_on_c, 0, 77, 0
2, 117960, Note_on_c, 0, 76, 100
2, 118080, Note_on_c, 0, 76, 0
2, 118080, Note_on_c, 0, 77, 100
2, 118440, Note_on_c, 0, 77, 0
2, 118440, Note_on_c, 0, 74, 100
2, 118560, Note_on_c, 0, 74, 0
2, 118560, Note_on_c, 0, 69, 100
2, 118920, Note_on_c, 0, 69, 0
2, 118920, Note_on_c, 0, 65, 100
2, 119040, Note_on_c, 0, 65, 0
2, 119040, Note_on_c, 0, 62, 100
2, 119400, Note_on_c, 0, 62, 0
2, 119400, Note_on_c, 0, 65, 100
2, 119520, Note_on_c, 0, 65, 0
2, 119520, Note_on_c, 0, 57, 100
2, 119680, Note_on_c, 0, 57, 0
2, 119680, Note_on_c, 0, 75, 100
2, 119840, Note_on_c, 0, 75, 0
2, 119840, Note_on_c, 0, 74, 100
2, 120000, Note_on_c, 0, 74, 0
2, 120000, Note_on_c, 0, 72, 100
2, 120160, Note_on_c, 0, 72, 0
2, 120160, Note_on_c, 0, 70, 100
2, 120320, Note_on_c, 0, 70, 0
2, 120320, Note_on_c, 0, 69, 100
2, 120480, Note_on_c, 0, 69, 0
2, 120480, Note_on_c, 0, 79, 100
2, 120640, Note_on_c, 0, 79, 0
2, 120640, Note_on_c, 0, 77, 100
2, 120800, Note_on_c, 0, 77, 0
2, 120800, Note_on_c, 0, 75, 100
2, 120960, Note_on_c, 0, 75, 0
2, 120960, Note_on_c, 0, 74, 100
2, 121320, Note_on_c, 0, 74, 0
2, 121320, Note_on_c, 0, 70, 100
2, 121440, Note_on_c, 0, 70, 0
2, 121440, Note_on_c, 0, 65, 100
2, 121800, Note_on_c, 0, 65, 0
2, 121800, Note_on_c, 0, 62, 100
2, 121920, Note_on_c, 0, 62, 0
2, 121920, Note_on_c, 0, 58, 100
2, 122280, Note_on_c, 0, 58, 0
2, 122280, Note_on_c, 0, 74, 100
2, 122400, Note_on_c, 0, 74, 0
2, 122400, Note_on_c, 0, 66, 100
2, 122560, Note_on_c, 0, 66, 0
2, 122560, Note_on_c, 0, 84, 100
2, 122720, Note_on_c, 0, 84, 0
2, 122720, Note_on_c, 0, 82, 100
2, 122880, Note_on_c, 0, 82, 0
2, 122880, Note_on_c, 0, 81, 100
2, 123040, Note_on_c, 0, 81, 0
2, 123040, Note_on_c, 0, 79, 100
2, 123200, Note_on_c, 0, 79, 0
2, 123200, Note_on_c, 0, 78, 100
2, 123360, Note_on_c, 0, 78, 0
2, 123360, Note_on_c, 0, 75, 100
2, 123520, Note_on_c, 0, 75, 0
2, 123520, Note_on_c, 0, 74, 100
2, 123680, Note_on_c, 0, 74, 0
2, 123680, Note_on_c, 0, 72, 100
2, 123840, Note_on_c, 0, 72, 0
2, 123840, Note_on_c, 0, 70, 100
2, 124000, Note_on_c, 0, 70, 0
2, 124000, Note_on_c, 0, 67, 100
2, 124160, Note_on_c, 0, 67, 0
2, 124160, Note_on_c, 0, 69, 100
2, 124320, Note_on_c, 0, 69, 0
2, 124320, Note_on_c, 0, 70, 100
2, 124480, Note_on_c, 0, 70, 0
2, 124480, Note_on_c, 0, 72, 100
2, 124640, Note_on_c, 0, 72, 0
2, 124640, Note_on_c, 0, 74, 100
2, 124800, Note_on_c, 0, 74, 0
2, 124800, Note_on_c, 0, 75, 100
2, 124960, Note_on_c, 0, 75, 0
2, 124960, Note_on_c, 0, 74, 100
2, 125120, Note_on_c, 0, 74, 0
2, 125120, Note_on_c, 0, 75, 100
2, 125280, Note_on_c, 0, 75, 0
2, 125280, Note_on_c, 0, 69, 100
2, 125440, Note_on_c, 0, 69, 0
2, 125440, Note_on_c, 0, 65, 100
2, 125600, Note_on_c, 0, 65, 0
2, 125600, Note_on_c, 0, 67, 100
2, 125760, Note_on_c, 0, 67, 0
2, 125760, Note_on_c, 0, 69, 100
2, 125920, Note_on_c, 0, 69, 0
2, 125920, Note_on_c, 0, 70, 100
2, 126080, Note_on_c, 0, 70, 0
2, 126080, Note_on_c, 0, 72, 100
2, 126240, Note_on_c, 0, 72, 0
2, 126240, Note_on_c, 0, 74, 100
2, 126400, Note_on_c, 0, 74, 0
2, 126400, Note_on_c, 0, 72, 100
2, 126560, Note_on_c, 0, 72, 0
2, 126560, Note_on_c, 0, 74, 100
2, 126720, Note_on_c, 0, 74, 0
2, 126720, Note_on_c, 0, 63, 100
2, 127080, Note_on_c, 0, 63, 0
2, 127080, Note_on_c, 0, 74, 100
2, 127200, Note_on_c, 0, 74, 0
2, 127200, Note_on_c, 0, 79, 100
2, 127560, Note_on_c, 0, 79, 0
2, 127560, Note_on_c, 0, 70, 100
2, 127680, Note_on_c, 0, 70, 0
2, 127680, Note_on_c, 0, 72, 100
2, 128040, Note_on_c, 0, 72, 0
2, 128040, Note_on_c, 0, 75, 100
2, 128160, Note_on_c, 0, 75, 0
2, 128160, Note_on_c, 0, 66, 100
2, 128320, Note_on_c, 0, 66, 0
2, 128320, Note_on_c, 0, 69, 100
2, 128480, Note_on_c, 0, 69, 0
2, 128480, Note_on_c, 0, 67, 100
2, 128640, Note_on_c, 0, 67, 0
2, 128640, Note_on_c, 0, 66, 100
2, 128800, Note_on_c, 0, 66, 0
2, 128800, Note_on_c, 0, 63, 100
2, 128960, Note_on_c, 0, 63, 0
2, 128960, Note_on_c, 0, 62, 100
2, 129120, Note_on_c, 0, 62, 0
2, 129120, Note_on_c, 0, 60, 100
2, 129280, Note_on_c, 0, 60, 0
2, 129280, Note_on_c, 0, 58, 100
2, 129440, Note_on_c, 0, 58, 0
2, 129440, Note_on_c, 0, 57, 100
2, 129600, Note_on_c, 0, 57, 0
2, 129600, Note_on_c, 0, 58, 100
2, 129760, Note_on_c, 0, 58, 0
2, 129760, Note_on_c, 0, 62, 100
2, 129920, Note_on_c, 0, 62, 0
2, 129920, Note_on_c, 0, 67, 100
2, 130080, Note_on_c, 0, 67, 0
2, 130080, Note_on_c, 0, 70, 100
2, 130240, Note_on_c, 0, 70, 0
2, 130240, Note_on_c, 0, 74, 100
2, 130400, Note_on_c, 0, 74, 0
2, 130400, Note_on_c, 0, 79, 100
2, 130560, Note_on_c, 0, 79, 0
2, 130560, Note_on_c, 0, 74, 100
2, 130720, Note_on_c, 0, 74, 0
2, 130720, Note_on_c, 0, 79, 100
2, 130880, Note_on_c, 0, 79, 0
2, 130880, Note_on_c, 0, 78, 100
2, 131040, Note_on_c, 0, 78, 0
2, 131040, Note_on_c, 0, 79, 100
2, 131200, Note_on_c, 0, 79, 0
2, 131200, Note_on_c, 0, 74, 100
2, 131360, Note_on_c, 0, 74, 0
2, 131360, Note_on_c, 0, 72, 100
2, 131520, Note_on_c, 0, 72, 0
2, 131520, Note_on_c, 0, 70, 100
2, 131680, Note_on_c, 0, 70, 0
2, 131680, Note_on_c, 0, 69, 100
2, 131840, Note_on_c, 0, 69, 0
2, 131840, Note_on_c, 0, 67, 100
2, 132000, Note_on_c, 0, 67, 0
2, 132000, Note_on_c, 0, 65, 100
2, 132160, Note_on_c, 0, 65, 0
2, 132160, Note_on_c, 0, 64, 100
2, 132320, Note_on_c, 0, 64, 0
2, 132320, Note_on_c, 0, 62, 100
2, 132480, Note_on_c, 0, 62, 0
2, 132480, Note_on_c, 0, 64, 100
2, 132840, Note_on_c, 0, 64, 0
2, 132840, Note_on_c, 0, 67, 100
2, 132960, Note_on_c, 0, 67, 0
2, 132960, Note_on_c, 0, 70, 100
2, 133320, Note_on_c, 0, 70, 0
2, 133320, Note_on_c, 0, 74, 100
2, 133440, Note_on_c, 0, 74, 0
2, 133440, Note_on_c, 0, 72, 100
2, 133800, Note_on_c, 0, 72, 0
2, 133800, Note_on_c, 0, 70, 100
2, 133920, Note_on_c, 0, 70, 0
2, 133920, Note_on_c, 0, 69, 100
2, 134080, Note_on_c, 0, 69, 0
2, 134080, Note_on_c, 0, 65, 100
2, 134240, Note_on_c, 0, 65, 0
2, 134240, Note_on_c, 0, 67, 100
2, 134400, Note_on_c, 0, 67, 0
2, 134400, Note_on_c, 0, 69, 100
2, 134560, Note_on_c, 0, 69, 0
2, 134560, Note_on_c, 0, 71, 100
2, 134720, Note_on_c, 0, 71, 0
2, 134720, Note_on_c, 0, 73, 100
2, 134880, Note_on_c, 0, 73, 0
2, 134880, Note_on_c, 0, 74, 100
2, 135040, Note_on_c, 0, 74, 0
2, 135040, Note_on_c, 0, 76, 100
2, 135200, Note_on_c, 0, 76, 0
2, 135200, Note_on_c, 0, 77, 100
2, 135360, Note_on_c, 0, 77, 0
2, 135360, Note_on_c, 0, 79, 100
2, 135520, Note_on_c, 0, 79, 0
2, 135520, Note_on_c, 0, 81, 100
2, 135680, Note_on_c, 0, 81, 0
2, 135680, Note_on_c, 0, 79, 100
2, 135840, Note_on_c, 0, 79, 0
2, 135840, Note_on_c, 0, 77, 100
2, 136000, Note_on_c, 0, 77, 0
2, 136000, Note_on_c, 0, 76, 100
2, 136160, Note_on_c, 0, 76, 0
2, 136160, Note_on_c, 0, 74, 100
2, 136320, Note_on_c, 0, 74, 0
2, 136320, Note_on_c, 0, 73, 100
2, 136480, Note_on_c, 0, 73, 0
2, 136480, Note_on_c, 0, 71, 100
2, 136640, Note_on_c, 0, 71, 0
2, 136640, Note_on_c, 0, 69, 100
2, 136800, Note_on_c, 0, 69, 0
2, 136800, Note_on_c, 0, 77, 100
2, 136960, Note_on_c, 0, 77, 0
2, 136960, Note_on_c, 0, 79, 100
2, 137120, Note_on_c, 0, 79, 0
2, 137120, Note_on_c, 0, 77, 100
2, 137280, Note_on_c, 0, 77, 0
2, 137280, Note_on_c, 0, 76, 100
2, 137440, Note_on_c, 0, 76, 0
2, 137440, Note_on_c, 0, 74, 100
2, 137600, Note_on_c, 0, 74, 0
2, 137600, Note_on_c, 0, 72, 100
2, 137760, Note_on_c, 0, 72, 0
2, 137760, Note_on_c, 0, 71, 100
2, 137920, Note_on_c, 0, 71, 0
2, 137920, Note_on_c, 0, 69, 100
2, 138080, Note_on_c, 0, 69, 0
2, 138080, Note_on_c, 0, 67, 100
2, 138240, Note_on_c, 0, 67, 0
2, 138240, Note_on_c, 0, 76, 100
2, 138400, Note_on_c, 0, 76, 0
2, 138400, Note_on_c, 0, 77, 100
2, 138560, Note_on_c, 0, 77, 0
2, 138560, Note_on_c, 0, 76, 100
2, 138720, Note_on_c, 0, 76, 0
2, 138720, Note_on_c, 0, 74, 100
2, 138880, Note_on_c, 0, 74, 0
2, 138880, Note_on_c, 0, 72, 100
2, 139040, Note_on_c, 0, 72, 0
2, 139040, Note_on_c, 0, 70, 100
2, 139200, Note_on_c, 0, 70, 0
2, 139200, Note_on_c, 0, 69, 100
2, 139360, Note_on_c, 0, 69, 0
2, 139360, Note_on_c, 0, 72, 100
2, 139520, Note_on_c, 0, 72, 0
2, 139520, Note_on_c, 0, 75, 100
2, 139680, Note_on_c, 0, 75, 0
2, 139680, Note_on_c, 0, 74, 100
2, 139840, Note_on_c, 0, 74, 0
2, 139840, Note_on_c, 0, 75, 100
2, 140000, Note_on_c, 0, 75, 0
2, 140000, Note_on_c, 0, 74, 100
2, 140160, Note_on_c, 0, 74, 0
2, 140160, Note_on_c, 0, 72, 100
2, 140320, Note_on_c, 0, 72, 0
2, 140320, Note_on_c, 0, 70, 100
2, 140480, Note_on_c, 0, 70, 0
2, 140480, Note_on_c, 0, 69, 100
2, 140640, Note_on_c, 0, 69, 0
2, 140640, Note_on_c, 0, 68, 100
2, 140800, Note_on_c, 0, 68, 0
2, 140800, Note_on_c, 0, 74, 100
2, 140960, Note_on_c, 0, 74, 0
2, 140960, Note_on_c, 0, 83, 100
2, 141120, Note_on_c, 0, 83, 0
2, 141120, Pitch_bend_c, 0, 12288
2, 141120, Note_on_c, 0, 73, 100
2, 141200, Pitch_bend_c, 0, 8192
2, 141280, Pitch_bend_c, 0, 12288
2, 141360, Pitch_bend_c, 0, 8192
2, 141600, Note_on_c, 0, 73, 0
2, 141600, Note_on_c, 0, 57, 100
2, 141760, Note_on_c, 0, 57, 0
2, 141760, Note_on_c, 0, 69, 100
2, 141920, Note_on_c, 0, 69, 0
2, 141920, Note_on_c, 0, 71, 100
2, 142080, Note_on_c, 0, 71, 0
2, 142080, Note_on_c, 0, 73, 100
2, 142240, Note_on_c, 0, 73, 0
2, 142240, Note_on_c, 0, 74, 100
2, 142400, Note_on_c, 0, 74, 0
2, 142400, Note_on_c, 0, 76, 100
2, 142560, Note_on_c, 0, 76, 0
2, 142560, Note_on_c, 0, 67, 100
2, 142720, Note_on_c, 0, 67, 0
2, 142720, Note_on_c, 0, 66, 100
2, 142880, Note_on_c, 0, 66, 0
2, 142880, Note_on_c, 0, 67, 100
2, 143040, Note_on_c, 0, 67, 0
2, 143040, Note_on_c, 0, 61, 100
2, 143200, Note_on_c, 0, 61, 0
2, 143200, Note_on_c, 0, 67, 100
2, 143360, Note_on_c, 0, 67, 0
2, 143360, Note_on_c, 0, 69, 100
2, 143520, Note_on_c, 0, 69, 0
2, 143520, Note_on_c, 0, 70, 100
2, 143680, Note_on_c, 0, 70, 0
2, 143680, Note_on_c, 0, 69, 100
2, 143840, Note_on_c, 0, 69, 0
2, 143840, Note_on_c, 0, 67, 100
2, 144000, Note_on_c, 0, 67, 0
2, 144000, Note_on_c, 0, 65, 100
2, 144160, Note_on_c, 0, 65, 0
2, 144160, Note_on_c, 0, 67, 100
2, 144320, Note_on_c, 0, 67, 0
2, 144320, Note_on_c, 0, 69, 100
2, 144480, Note_on_c, 0, 69, 0
2, 144480, Note_on_c, 0, 62, 100
2, 144640, Note_on_c, 0, 62, 0
2, 144640, Note_on_c, 0, 74, 100
2, 144800, Note_on_c, 0, 74, 0
2, 144800, Note_on_c, 0, 76, 100
2, 144960, Note_on_c, 0, 76, 0
2, 144960, Note_on_c, 0, 77, 100
2, 145120, Note_on_c, 0, 77, 0
2, 145120, Note_on_c, 0, 79, 100
2, 145280, Note_on_c, 0, 79, 0
2, 145280, Note_on_c, 0, 81, 100
2, 145440, Note_on_c, 0, 81, 0
2, 145440, Note_on_c, 0, 72, 100
2, 145600, Note_on_c, 0, 72, 0
2, 145600, Note_on_c, 0, 71, 100
2, 145760, Note_on_c, 0, 71, 0
2, 145760, Note_on_c, 0, 72, 100
2, 145920, Note_on_c, 0, 72, 0
2, 145920, Note_on_c, 0, 66, 100
2, 146080, Note_on_c, 0, 66, 0
2, 146080, Note_on_c, 0, 72, 100
2, 146240, Note_on_c, 0, 72, 0
2, 146240, Note_on_c, 0, 74, 100
2, 146400, Note_on_c, 0, 74, 0
2, 146400, Note_on_c, 0, 75, 100
2, 146560, Note_on_c, 0, 75, 0
2, 146560, Note_on_c, 0, 74, 100
2, 146720, Note_on_c, 0, 74, 0
2, 146720, Note_on_c, 0, 72, 100
2, 146880, Note_on_c, 0, 72, 0
2, 146880, Note_on_c, 0, 70, 100
2, 147040, Note_on_c, 0, 70, 0
2, 147040, Note_on_c, 0, 66, 100
2, 147200, Note_on_c, 0, 66, 0
2, 147200, Note_on_c, 0, 67, 100
2, 147360, Note_on_c, 0, 67, 0
2, 147360, Note_on_c, 0, 75, 100
2, 147520, Note_on_c, 0, 75, 0
2, 147520, Note_on_c, 0, 73, 100
2, 147680, Note_on_c, 0, 73, 0
2, 147680, Note_on_c, 0, 74, 100
2, 147840, Note_on_c, 0, 74, 0
2, 147840, Note_on_c, 0, 82, 100
2, 148000, Note_on_c, 0, 82, 0
2, 148000, Note_on_c, 0, 78, 100
2, 148160, Note_on_c, 0, 78, 0
2, 148160, Note_on_c, 0, 79, 100
2, 148320, Note_on_c, 0, 79, 0
2, 148320, Note_on_c, 0, 85, 100
2, 148920, Note_on_c, 0, 85, 0
2, 148940, Note_on_c, 0, 86, 100
2, 149080, Note_on_c, 0, 85, 100
2, 149100, Note_on_c, 0, 86, 0
2, 149240, Note_on_c, 0, 85, 0
2, 149260, Note_on_c, 0, 86, 100
2, 149420, Note_on_c, 0, 86, 0
2, 149420, Note_on_c, 0, 84, 100
2, 149580, Note_on_c, 0, 84, 0
2, 149580, Note_on_c, 0, 82, 100
2, 149740, Note_on_c, 0, 82, 0
2, 149760, Note_on_c, 0, 81, 100
2, 149920, Note_on_c, 0, 81, 0
2, 149920, Note_on_c, 0, 79, 100
2, 150080, Note_on_c, 0, 79, 0
2, 150080, Note_on_c, 0, 77, 100
2, 150240, Note_on_c, 0, 77, 0
2, 150240, Note_on_c, 0, 76, 100
2, 150400, Note_on_c, 0, 76, 0
2, 150400, Note_on_c, 0, 77, 100
2, 150560, Note_on_c, 0, 77, 0
2, 150560, Note_on_c, 0, 74, 100
2, 150720, Note_on_c, 0, 74, 0
2, 150720, Note_on_c, 0, 69, 100
2, 150880, Note_on_c, 0, 69, 0
2, 150880, Note_on_c, 0, 74, 100
2, 151040, Note_on_c, 0, 74, 0
2, 151040, Note_on_c, 0, 73, 100
2, 151200, Note_on_c, 0, 73, 0
2, 151200, Note_on_c, 0, 74, 100
2, 151560, Note_on_c, 0, 74, 0
2, 151560, Note_on_c, 0, 70, 100
2, 151680, Note_on_c, 0, 70, 0
2, 151680, Note_on_c, 0, 68, 100
2, 152320, Note_on_c, 0, 68, 0
2, 152320, Note_on_c, 0, 69, 100
2, 152480, Note_on_c, 0, 69, 0
2, 152480, Note_on_c, 0, 71, 100
2, 152640, Note_on_c, 0, 71, 0
2, 152640, Note_on_c, 0, 61, 100
2, 152800, Note_on_c, 0, 61, 0
2, 152800, Note_on_c, 0, 64, 100
2, 152960, Note_on_c, 0, 64, 0
2, 152960, Note_on_c, 0, 67, 100
2, 153120, Note_on_c, 0, 67, 0
2, 153120, Note_on_c, 0, 70, 100
2, 153760, Note_on_c, 0, 70, 0
2, 153760, Note_on_c, 0, 69, 100
2, 153920, Note_on_c, 0, 69, 0
2, 153920, Note_on_c, 0, 67, 100
2, 154080, Note_on_c, 0, 67, 0
2, 154080, Note_on_c, 0, 65, 100
2, 154240, Note_on_c, 0, 65, 0
2, 154240, Note_on_c, 0, 69, 100
2, 154400, Note_on_c, 0, 69, 0
2, 154400, Note_on_c, 0, 73, 100
2, 154560, Note_on_c, 0, 73, 0
2, 154560, Note_on_c, 0, 74, 100
2, 154720, Note_on_c, 0, 74, 0
2, 154720, Note_on_c, 0, 77, 100
2, 154880, Note_on_c, 0, 77, 0
2, 154880, Note_on_c, 0, 81, 100
2, 155040, Note_on_c, 0, 81, 0
2, 155040, Note_on_c, 0, 57, 100
2, 155200, Note_on_c, 0, 57, 0
2, 155200, Note_on_c, 0, 62, 100
2, 155360, Note_on_c, 0, 62, 0
2, 155360, Note_on_c, 0, 61, 100
2, 155520, Note_on_c, 0, 61, 0
2, 155520, Note_on_c, 0, 62, 100
2, 156840, Note_on_c, 0, 62, 0
2, 156840, End_track
3, 0, Start_track
3, 0, MIDI_port, 0
3, 0, Title_t, "--------------------------------------"
3, 0, Program_c, 1, 40
3, 0, Control_c, 1, 7, 100
3, 0, Control_c, 1, 10, 74
3, 1440, Note_on_c, 1, 65, 100
3, 1920, Note_on_c, 1, 65, 0
3, 36000, Note_on_c, 1, 65, 100
3, 36480, Note_on_c, 1, 65, 0
3, 70560, Note_on_c, 1, 73, 100
3, 71040, Note_on_c, 1, 73, 0
3, 97920, Note_on_c, 1, 69, 100
3, 98400, Note_on_c, 1, 69, 0
3, 105120, Note_on_c, 1, 79, 100
3, 105600, Note_on_c, 1, 79, 0
3, 113760, Note_on_c, 1, 73, 100
3, 114240, Note_on_c, 1, 73, 0
3, 141120, Note_on_c, 1, 69, 100
3, 141600, Note_on_c, 1, 69, 0
3, 148320, Note_on_c, 1, 79, 100
3, 148800, Note_on_c, 1, 79, 0
3, 148800, End_track
4, 0, Start_track
4, 0, MIDI_port, 0
4, 0, Title_t, "Johann Sebastian Bach  (1685-1750)"
4, 0, Program_c, 2, 40
4, 0, Control_c, 2, 7, 100
4, 0, Control_c, 2, 10, 54
4, 1440, Note_on_c, 2, 62, 100
4, 1920, Note_on_c, 2, 62, 0
4, 2880, Note_on_c, 2, 62, 100
4, 3360, Note_on_c, 2, 62, 0
4, 36000, Note_on_c, 2, 62, 100
4, 36480, Note_on_c, 2, 62, 0
4, 37440, Note_on_c, 2, 62, 100
4, 37920, Note_on_c, 2, 62, 0
4, 70560, Note_on_c, 2, 69, 100
4, 71040, Note_on_c, 2, 69, 0
4, 105120, Note_on_c, 2, 69, 100
4, 105600, Note_on_c, 2, 69, 0
4, 113760, Note_on_c, 2, 69, 100
4, 114240, Note_on_c, 2, 69, 0
4, 148320, Note_on_c, 2, 69, 100
4, 148800, Note_on_c, 2, 69, 0
4, 148800, End_track
5, 0, Start_track
5, 0, MIDI_port, 0
5, 0, Title_t, "Six Sonatas and Partitas for Solo Violin"
5, 0, End_track
6, 0, Start_track
6, 0, MIDI_port, 0
6, 0, Title_t, "--------------------------------------"
6, 0, End_track
7, 0, Start_track
7, 0, MIDI_port, 0
7, 0, Title_t, "Partita No. 2 in D minor - BWV 1004"
7, 0, End_track
8, 0, Start_track
8, 0, MIDI_port, 0
8, 0, Title_t, "2nd Movement: Courante"
8, 0, End_track
9, 0, Start_track
9, 0, MIDI_port, 0
9, 0, Title_t, "--------------------------------------"
9, 0, End_track
10, 0, Start_track
10, 0, MIDI_port, 0
10, 0, Title_t, "Sequenced with Cakewalk Pro Audio by"
10, 0, End_track
11, 0, Start_track
11, 0, MIDI_port, 0
11, 0, Title_t, "David J. Grossman - dave@unpronounceable.com"
11, 0, End_track
12, 0, Start_track
12, 0, MIDI_port, 0
12, 0, Title_t, "This and other Bach MIDI files can be found at:"
12, 0, End_track
13, 0, Start_track
13, 0, MIDI_port, 0
13, 0, Title_t, "Dave's J.S. Bach Page"
13, 0, End_track
14, 0, Start_track
14, 0, MIDI_port, 0
14, 0, Title_t, "http://www.unpronounceable.com/bach"
14, 0, End_track
15, 0, Start_track
15, 0, MIDI_port, 0
15, 0, Title_t, "--------------------------------------"
15, 0, End_track
16, 0, Start_track
16, 0, MIDI_port, 0
16, 0, Title_t, "Original Filename: vp2-2cou.mid"
16, 0, End_track
17, 0, Start_track
17, 0, MIDI_port, 0
17, 0, Title_t, "Last Modified: February 22, 1997"
17, 0, End_track
0, 0, End_of_file
