0, 0, Header, 1, 17, 480
1, 0, Start_track
1, 0, Title_t, "untitled"
1, 0, SMPTE_offset, 96, 0, 3, 0, 0
1, 0, Time_signature, 2, 1, 48, 8
1, 0, Key_signature, 4, "major"
1, 0, Tempo, 240000
1, 1440, Tempo, 300000
1, 1440, Marker_t, "A"
1, 32160, Marker_t, "A'"
1, 62880, Marker_t, "B"
1, 101280, Marker_t, "B'"
1, 139200, Tempo, 600000
1, 139200, End_track
2, 0, Start_track
2, 0, MIDI_port, 0
2, 0, Title_t, "Solo Violin"
2, 0, Program_c, 0, 40
2, 0, Control_c, 0, 7, 100
2, 0, Control_c, 0, 10, 69
2, 1440, Note_on_c, 0, 71, 100
2, 1920, Note_on_c, 0, 71, 0
2, 1920, Note_on_c, 0, 73, 100
2, 2400, Note_on_c, 0, 73, 0
2, 13440, Note_on_c, 0, 78, 75
2, 13680, Note_on_c, 0, 78, 0
2, 13680, Note_on_c, 0, 75, 75
2, 13920, Note_on_c, 0, 75, 0
2, 13920, Note_on_c, 0, 71, 75
2, 14160, Note_on_c, 0, 71, 0
2, 14160, Note_on_c, 0, 73, 75
2, 14400, Note_on_c, 0, 73, 0
2, 14400, Note_on_c, 0, 75, 75
2, 14640, Note_on_c, 0, 75, 0
2, 14640, Note_on_c, 0, 76, 75
2, 14880, Note_on_c, 0, 76, 0
2, 14880, Note_on_c, 0, 78, 75
2, 15120, Note_on_c, 0, 78, 0
2, 15120, Note_on_c, 0, 81, 75
2, 15360, Note_on_c, 0, 81, 0
2, 15360, Note_on_c, 0, 80, 75
2, 15600, Note_on_c, 0, 80, 0
2, 15600, Note_on_c, 0, 76, 75
2, 15840, Note_on_c, 0, 76, 0
2, 15840, Note_on_c, 0, 71, 75
2, 16080, Note_on_c, 0, 71, 0
2, 16080, Note_on_c, 0, 75, 75
2, 16320, Note_on_c, 0, 75, 0
2, 16320, Note_on_c, 0, 76, 75
2, 16560, Note_on_c, 0, 76, 0
2, 16560, Note_on_c, 0, 78, 75
2, 16800, Note_on_c, 0, 78, 0
2, 16800, Note_on_c, 0, 80, 75
2, 17040, Note_on_c, 0, 80, 0
2, 17040, Note_on_c, 0, 83, 75
2, 17280, Note_on_c, 0, 83, 0
2, 21120, Note_on_c, 0, 76, 75
2, 21360, Note_on_c, 0, 76, 0
2, 21360, Note_on_c, 0, 75, 75
2, 21600, Note_on_c, 0, 75, 0
2, 21600, Note_on_c, 0, 73, 75
2, 21840, Note_on_c, 0, 73, 0
2, 21840, Note_on_c, 0, 75, 75
2, 22080, Note_on_c, 0, 75, 0
2, 22080, Note_on_c, 0, 76, 75
2, 22320, Note_on_c, 0, 76, 0
2, 22320, Note_on_c, 0, 75, 75
2, 22560, Note_on_c, 0, 75, 0
2, 22560, Note_on_c, 0, 73, 75
2, 22800, Note_on_c, 0, 73, 0
2, 22800, Note_on_c, 0, 71, 75
2, 23040, Note_on_c, 0, 71, 0
2, 23040, Note_on_c, 0, 70, 75
2, 23280, Note_on_c, 0, 70, 0
2, 23280, Note_on_c, 0, 68, 75
2, 23520, Note_on_c, 0, 68, 0
2, 23520, Note_on_c, 0, 66, 75
2, 23760, Note_on_c, 0, 66, 0
2, 23760, Note_on_c, 0, 68, 75
2, 24000, Note_on_c, 0, 68, 0
2, 24000, Note_on_c, 0, 70, 75
2, 24240, Note_on_c, 0, 70, 0
2, 24240, Note_on_c, 0, 71, 75
2, 24480, Note_on_c, 0, 71, 0
2, 24480, Note_on_c, 0, 73, 75
2, 24720, Note_on_c, 0, 73, 0
2, 32160, Note_on_c, 0, 71, 100
2, 32640, Note_on_c, 0, 71, 0
2, 32640, Note_on_c, 0, 73, 100
2, 33120, Note_on_c, 0, 73, 0
2, 44160, Note_on_c, 0, 78, 75
2, 44400, Note_on_c, 0, 78, 0
2, 44400, Note_on_c, 0, 75, 75
2, 44640, Note_on_c, 0, 75, 0
2, 44640, Note_on_c, 0, 71, 75
2, 44880, Note_on_c, 0, 71, 0
2, 44880, Note_on_c, 0, 73, 75
2, 45120, Note_on_c, 0, 73, 0
2, 45120, Note_on_c, 0, 75, 75
2, 45360, Note_on_c, 0, 75, 0
2, 45360, Note_on_c, 0, 76, 75
2, 45600, Note_on_c, 0, 76, 0
2, 45600, Note_on_c, 0, 78, 75
2, 45840, Note_on_c, 0, 78, 0
2, 45840, Note_on_c, 0, 81, 75
2, 46080, Note_on_c, 0, 81, 0
2, 46080, Note_on_c, 0, 80, 75
2, 46320, Note_on_c, 0, 80, 0
2, 46320, Note_on_c, 0, 76, 75
2, 46560, Note_on_c, 0, 76, 0
2, 46560, Note_on_c, 0, 71, 75
2, 46800, Note_on_c, 0, 71, 0
2, 46800, Note_on_c, 0, 75, 75
2, 47040, Note_on_c, 0, 75, 0
2, 47040, Note_on_c, 0, 76, 75
2, 47280, Note_on_c, 0, 76, 0
2, 47280, Note_on_c, 0, 78, 75
2, 47520, Note_on_c, 0, 78, 0
2, 47520, Note_on_c, 0, 80, 75
2, 47760, Note_on_c, 0, 80, 0
2, 47760, Note_on_c, 0, 83, 75
2, 48000, Note_on_c, 0, 83, 0
2, 51840, Note_on_c, 0, 76, 75
2, 52080, Note_on_c, 0, 76, 0
2, 52080, Note_on_c, 0, 75, 75
2, 52320, Note_on_c, 0, 75, 0
2, 52320, Note_on_c, 0, 73, 75
2, 52560, Note_on_c, 0, 73, 0
2, 52560, Note_on_c, 0, 75, 75
2, 52800, Note_on_c, 0, 75, 0
2, 52800, Note_on_c, 0, 76, 75
2, 53040, Note_on_c, 0, 76, 0
2, 53040, Note_on_c, 0, 75, 75
2, 53280, Note_on_c, 0, 75, 0
2, 53280, Note_on_c, 0, 73, 75
2, 53520, Note_on_c, 0, 73, 0
2, 53520, Note_on_c, 0, 71, 75
2, 53760, Note_on_c, 0, 71, 0
2, 53760, Note_on_c, 0, 70, 75
2, 54000, Note_on_c, 0, 70, 0
2, 54000, Note_on_c, 0, 68, 75
2, 54240, Note_on_c, 0, 68, 0
2, 54240, Note_on_c, 0, 66, 75
2, 54480, Note_on_c, 0, 66, 0
2, 54480, Note_on_c, 0, 68, 75
2, 54720, Note_on_c, 0, 68, 0
2, 54720, Note_on_c, 0, 70, 75
2, 54960, Note_on_c, 0, 70, 0
2, 54960, Note_on_c, 0, 71, 75
2, 55200, Note_on_c, 0, 71, 0
2, 55200, Note_on_c, 0, 73, 75
2, 55440, Note_on_c, 0, 73, 0
2, 62880, Note_on_c, 0, 78, 100
2, 63360, Note_on_c, 0, 78, 0
2, 63360, Note_on_c, 0, 80, 100
2, 63840, Note_on_c, 0, 80, 0
2, 93600, Note_on_c, 0, 71, 100
2, 94080, Note_on_c, 0, 71, 0
2, 94080, Note_on_c, 0, 73, 100
2, 94560, Note_on_c, 0, 73, 0
2, 98880, Note_on_c, 0, 81, 100
2, 99120, Note_on_c, 0, 81, 0
2, 99120, Note_on_c, 0, 80, 100
2, 99360, Note_on_c, 0, 80, 0
2, 99360, Note_on_c, 0, 78, 100
2, 99600, Note_on_c, 0, 78, 0
2, 99600, Note_on_c, 0, 80, 100
2, 99840, Note_on_c, 0, 80, 0
2, 99840, Note_on_c, 0, 76, 100
2, 100080, Note_on_c, 0, 76, 0
2, 100080, Note_on_c, 0, 71, 100
2, 100320, Note_on_c, 0, 71, 0
2, 100320, Note_on_c, 0, 68, 100
2, 100560, Note_on_c, 0, 68, 0
2, 100560, Note_on_c, 0, 71, 100
2, 100800, Note_on_c, 0, 71, 0
2, 100800, Note_on_c, 0, 64, 100
2, 101280, Note_on_c, 0, 64, 0
2, 101280, Note_on_c, 0, 78, 100
2, 101760, Note_on_c, 0, 78, 0
2, 101760, Note_on_c, 0, 80, 100
2, 102240, Note_on_c, 0, 80, 0
2, 132000, Note_on_c, 0, 71, 100
2, 132480, Note_on_c, 0, 71, 0
2, 132480, Note_on_c, 0, 73, 100
2, 132960, Note_on_c, 0, 73, 0
2, 137280, Note_on_c, 0, 81, 100
2, 137520, Note_on_c, 0, 81, 0
2, 137520, Note_on_c, 0, 80, 100
2, 137760, Note_on_c, 0, 80, 0
2, 137760, Note_on_c, 0, 78, 100
2, 138000, Note_on_c, 0, 78, 0
2, 138000, Note_on_c, 0, 80, 100
2, 138240, Note_on_c, 0, 80, 0
2, 138240, Note_on_c, 0, 76, 100
2, 138480, Note_on_c, 0, 76, 0
2, 138480, Note_on_c, 0, 71, 100
2, 138720, Note_on_c, 0, 71, 0
2, 138720, Note_on_c, 0, 68, 100
2, 138960, Note_on_c, 0, 68, 0
2, 138960, Note_on_c, 0, 71, 100
2, 139200, Note_on_c, 0, 71, 0
2, 139200, Note_on_c, 0, 64, 100
2, 139680, Note_on_c, 0, 64, 0
2, 139680, End_track
3, 0, Start_track
3, 0, MIDI_port, 0
3, 0, Title_t, "--------------------------------------"
3, 0, Program_c, 1, 40
3, 0, Control_c, 1, 7, 100
3, 0, Control_c, 1, 10, 59
3, 1440, Note_on_c, 1, 64, 100
3, 1920, Note_on_c, 1, 64, 0
3, 1920, Note_on_c, 1, 69, 100
3, 2400, Note_on_c, 1, 69, 0
3, 2400, Note_on_c, 1, 69, 100
3, 2640, Note_on_c, 1, 69, 0
3, 2640, Note_on_c, 1, 71, 100
3, 2880, Note_on_c, 1, 71, 0
3, 2880, Note_on_c, 1, 73, 100
3, 3120, Note_on_c, 1, 73, 0
3, 3120, Note_on_c, 1, 75, 100
3, 3360, Note_on_c, 1, 75, 0
3, 3360, Note_on_c, 1, 76, 100
3, 3840, Note_on_c, 1, 76, 0
3, 3840, Note_on_c, 1, 68, 100
3, 4080, Note_on_c, 1, 68, 0
3, 4080, Note_on_c, 1, 71, 100
3, 4320, Note_on_c, 1, 71, 0
3, 4320, Note_on_c, 1, 76, 100
3, 4800, Note_on_c, 1, 76, 0
3, 4800, Note_on_c, 1, 76, 100
3, 5040, Note_on_c, 1, 76, 0
3, 5040, Note_on_c, 1, 75, 100
3, 5280, Note_on_c, 1, 75, 0
3, 5280, Note_on_c, 1, 76, 100
3, 5760, Note_on_c, 1, 76, 0
3, 5760, Note_on_c, 1, 66, 100
3, 6000, Note_on_c, 1, 66, 0
3, 6000, Note_on_c, 1, 68, 100
3, 6240, Note_on_c, 1, 68, 0
3, 6240, Note_on_c, 1, 69, 100
3, 6480, Note_on_c, 1, 69, 0
3, 6480, Note_on_c, 1, 71, 100
3, 6720, Note_on_c, 1, 71, 0
3, 6720, Note_on_c, 1, 73, 100
3, 6960, Note_on_c, 1, 73, 0
3, 6960, Note_on_c, 1, 69, 100
3, 7200, Note_on_c, 1, 69, 0
3, 7200, Note_on_c, 1, 71, 100
3, 7680, Note_on_c, 1, 71, 0
3, 7680, Note_on_c, 1, 69, 100
3, 7920, Note_on_c, 1, 69, 0
3, 7920, Note_on_c, 1, 68, 100
3, 8160, Note_on_c, 1, 68, 0
3, 8160, Note_on_c, 1, 66, 100
3, 8400, Note_on_c, 1, 66, 0
3, 8400, Note_on_c, 1, 68, 100
3, 8640, Note_on_c, 1, 68, 0
3, 8640, Note_on_c, 1, 64, 100
3, 9120, Note_on_c, 1, 64, 0
3, 9120, Note_on_c, 1, 80, 100
3, 9360, Note_on_c, 1, 80, 0
3, 9360, Note_on_c, 1, 76, 100
3, 9600, Note_on_c, 1, 76, 0
3, 9600, Note_on_c, 1, 78, 100
3, 9840, Note_on_c, 1, 78, 0
3, 9840, Note_on_c, 1, 75, 100
3, 10080, Note_on_c, 1, 75, 0
3, 10080, Note_on_c, 1, 71, 100
3, 10320, Note_on_c, 1, 71, 0
3, 10320, Note_on_c, 1, 73, 100
3, 10560, Note_on_c, 1, 73, 0
3, 10560, Note_on_c, 1, 75, 100
3, 10800, Note_on_c, 1, 75, 0
3, 10800, Note_on_c, 1, 76, 100
3, 11040, Note_on_c, 1, 76, 0
3, 11040, Note_on_c, 1, 78, 100
3, 11280, Note_on_c, 1, 78, 0
3, 11280, Note_on_c, 1, 81, 100
3, 11520, Note_on_c, 1, 81, 0
3, 11520, Note_on_c, 1, 80, 100
3, 11760, Note_on_c, 1, 80, 0
3, 11760, Note_on_c, 1, 76, 100
3, 12000, Note_on_c, 1, 76, 0
3, 12000, Note_on_c, 1, 71, 100
3, 12240, Note_on_c, 1, 71, 0
3, 12240, Note_on_c, 1, 75, 100
3, 12480, Note_on_c, 1, 75, 0
3, 12480, Note_on_c, 1, 76, 100
3, 12720, Note_on_c, 1, 76, 0
3, 12720, Note_on_c, 1, 78, 100
3, 12960, Note_on_c, 1, 78, 0
3, 12960, Note_on_c, 1, 80, 100
3, 13200, Note_on_c, 1, 80, 0
3, 13200, Note_on_c, 1, 83, 100
3, 13440, Note_on_c, 1, 83, 0
3, 17280, Note_on_c, 1, 76, 100
3, 17520, Note_on_c, 1, 76, 0
3, 17520, Note_on_c, 1, 75, 100
3, 17760, Note_on_c, 1, 75, 0
3, 17760, Note_on_c, 1, 73, 100
3, 18000, Note_on_c, 1, 73, 0
3, 18000, Note_on_c, 1, 75, 100
3, 18240, Note_on_c, 1, 75, 0
3, 18240, Note_on_c, 1, 76, 100
3, 18480, Note_on_c, 1, 76, 0
3, 18480, Note_on_c, 1, 75, 100
3, 18720, Note_on_c, 1, 75, 0
3, 18720, Note_on_c, 1, 73, 100
3, 18960, Note_on_c, 1, 73, 0
3, 18960, Note_on_c, 1, 71, 100
3, 19200, Note_on_c, 1, 71, 0
3, 19200, Note_on_c, 1, 70, 100
3, 19440, Note_on_c, 1, 70, 0
3, 19440, Note_on_c, 1, 68, 100
3, 19680, Note_on_c, 1, 68, 0
3, 19680, Note_on_c, 1, 66, 100
3, 19920, Note_on_c, 1, 66, 0
3, 19920, Note_on_c, 1, 68, 100
3, 20160, Note_on_c, 1, 68, 0
3, 20160, Note_on_c, 1, 70, 100
3, 20400, Note_on_c, 1, 70, 0
3, 20400, Note_on_c, 1, 71, 100
3, 20640, Note_on_c, 1, 71, 0
3, 20640, Note_on_c, 1, 73, 100
3, 20880, Note_on_c, 1, 73, 0
3, 20880, Note_on_c, 1, 75, 100
3, 21120, Note_on_c, 1, 75, 0
3, 24720, Note_on_c, 1, 76, 100
3, 24960, Note_on_c, 1, 76, 0
3, 24960, Note_on_c, 1, 75, 100
3, 25200, Note_on_c, 1, 75, 0
3, 25200, Note_on_c, 1, 73, 100
3, 25440, Note_on_c, 1, 73, 0
3, 25440, Note_on_c, 1, 71, 100
3, 25680, Note_on_c, 1, 71, 0
3, 25680, Note_on_c, 1, 73, 100
3, 25920, Note_on_c, 1, 73, 0
3, 25920, Note_on_c, 1, 75, 100
3, 26160, Note_on_c, 1, 75, 0
3, 26160, Note_on_c, 1, 76, 100
3, 26400, Note_on_c, 1, 76, 0
3, 26400, Note_on_c, 1, 78, 100
3, 26640, Note_on_c, 1, 78, 0
3, 26640, Note_on_c, 1, 69, 100
3, 26880, Note_on_c, 1, 69, 0
3, 26880, Note_on_c, 1, 68, 100
3, 27120, Note_on_c, 1, 68, 0
3, 27120, Note_on_c, 1, 71, 100
3, 27360, Note_on_c, 1, 71, 0
3, 27360, Note_on_c, 1, 76, 100
3, 27600, Note_on_c, 1, 76, 0
3, 27600, Note_on_c, 1, 75, 100
3, 27840, Note_on_c, 1, 75, 0
3, 27840, Note_on_c, 1, 76, 100
3, 28080, Note_on_c, 1, 76, 0
3, 28080, Note_on_c, 1, 82, 100
3, 28320, Note_on_c, 1, 82, 0
3, 28320, Note_on_c, 1, 83, 100
3, 28560, Note_on_c, 1, 83, 0
3, 28560, Note_on_c, 1, 73, 100
3, 28800, Note_on_c, 1, 73, 0
3, 28800, Note_on_c, 1, 64, 100
3, 29040, Note_on_c, 1, 64, 0
3, 29040, Note_on_c, 1, 75, 100
3, 29280, Note_on_c, 1, 75, 0
3, 29280, Note_on_c, 1, 73, 100
3, 29520, Note_on_c, 1, 73, 0
3, 29520, Note_on_c, 1, 71, 100
3, 29760, Note_on_c, 1, 71, 0
3, 29760, Note_on_c, 1, 66, 100
3, 30000, Note_on_c, 1, 66, 0
3, 30000, Note_on_c, 1, 73, 100
3, 30240, Note_on_c, 1, 73, 0
3, 30240, Note_on_c, 1, 71, 100
3, 30480, Note_on_c, 1, 71, 0
3, 30480, Note_on_c, 1, 70, 100
3, 30720, Note_on_c, 1, 70, 0
3, 30720, Note_on_c, 1, 71, 100
3, 30960, Note_on_c, 1, 71, 0
3, 30960, Note_on_c, 1, 66, 100
3, 31200, Note_on_c, 1, 66, 0
3, 31200, Note_on_c, 1, 63, 100
3, 31440, Note_on_c, 1, 63, 0
3, 31440, Note_on_c, 1, 66, 100
3, 31680, Note_on_c, 1, 66, 0
3, 31680, Note_on_c, 1, 59, 100
3, 32160, Note_on_c, 1, 59, 0
3, 32160, Note_on_c, 1, 64, 100
3, 32640, Note_on_c, 1, 64, 0
3, 32640, Note_on_c, 1, 69, 100
3, 33120, Note_on_c, 1, 69, 0
3, 33120, Note_on_c, 1, 69, 100
3, 33360, Note_on_c, 1, 69, 0
3, 33360, Note_on_c, 1, 71, 100
3, 33600, Note_on_c, 1, 71, 0
3, 33600, Note_on_c, 1, 73, 100
3, 33840, Note_on_c, 1, 73, 0
3, 33840, Note_on_c, 1, 75, 100
3, 34080, Note_on_c, 1, 75, 0
3, 34080, Note_on_c, 1, 76, 100
3, 34560, Note_on_c, 1, 76, 0
3, 34560, Note_on_c, 1, 68, 100
3, 34800, Note_on_c, 1, 68, 0
3, 34800, Note_on_c, 1, 71, 100
3, 35040, Note_on_c, 1, 71, 0
3, 35040, Note_on_c, 1, 76, 100
3, 35520, Note_on_c, 1, 76, 0
3, 35520, Note_on_c, 1, 76, 100
3, 35760, Note_on_c, 1, 76, 0
3, 35760, Note_on_c, 1, 75, 100
3, 36000, Note_on_c, 1, 75, 0
3, 36000, Note_on_c, 1, 76, 100
3, 36480, Note_on_c, 1, 76, 0
3, 36480, Note_on_c, 1, 66, 100
3, 36720, Note_on_c, 1, 66, 0
3, 36720, Note_on_c, 1, 68, 100
3, 36960, Note_on_c, 1, 68, 0
3, 36960, Note_on_c, 1, 69, 100
3, 37200, Note_on_c, 1, 69, 0
3, 37200, Note_on_c, 1, 71, 100
3, 37440, Note_on_c, 1, 71, 0
3, 37440, Note_on_c, 1, 73, 100
3, 37680, Note_on_c, 1, 73, 0
3, 37680, Note_on_c, 1, 69, 100
3, 37920, Note_on_c, 1, 69, 0
3, 37920, Note_on_c, 1, 71, 100
3, 38400, Note_on_c, 1, 71, 0
3, 38400, Note_on_c, 1, 69, 100
3, 38640, Note_on_c, 1, 69, 0
3, 38640, Note_on_c, 1, 68, 100
3, 38880, Note_on_c, 1, 68, 0
3, 38880, Note_on_c, 1, 66, 100
3, 39120, Note_on_c, 1, 66, 0
3, 39120, Note_on_c, 1, 68, 100
3, 39360, Note_on_c, 1, 68, 0
3, 39360, Note_on_c, 1, 64, 100
3, 39840, Note_on_c, 1, 64, 0
3, 39840, Note_on_c, 1, 80, 100
3, 40080, Note_on_c, 1, 80, 0
3, 40080, Note_on_c, 1, 76, 100
3, 40320, Note_on_c, 1, 76, 0
3, 40320, Note_on_c, 1, 78, 100
3, 40560, Note_on_c, 1, 78, 0
3, 40560, Note_on_c, 1, 75, 100
3, 40800, Note_on_c, 1, 75, 0
3, 40800, Note_on_c, 1, 71, 100
3, 41040, Note_on_c, 1, 71, 0
3, 41040, Note_on_c, 1, 73, 100
3, 41280, Note_on_c, 1, 73, 0
3, 41280, Note_on_c, 1, 75, 100
3, 41520, Note_on_c, 1, 75, 0
3, 41520, Note_on_c, 1, 76, 100
3, 41760, Note_on_c, 1, 76, 0
3, 41760, Note_on_c, 1, 78, 100
3, 42000, Note_on_c, 1, 78, 0
3, 42000, Note_on_c, 1, 81, 100
3, 42240, Note_on_c, 1, 81, 0
3, 42240, Note_on_c, 1, 80, 100
3, 42480, Note_on_c, 1, 80, 0
3, 42480, Note_on_c, 1, 76, 100
3, 42720, Note_on_c, 1, 76, 0
3, 42720, Note_on_c, 1, 71, 100
3, 42960, Note_on_c, 1, 71, 0
3, 42960, Note_on_c, 1, 75, 100
3, 43200, Note_on_c, 1, 75, 0
3, 43200, Note_on_c, 1, 76, 100
3, 43440, Note_on_c, 1, 76, 0
3, 43440, Note_on_c, 1, 78, 100
3, 43680, Note_on_c, 1, 78, 0
3, 43680, Note_on_c, 1, 80, 100
3, 43920, Note_on_c, 1, 80, 0
3, 43920, Note_on_c, 1, 83, 100
3, 44160, Note_on_c, 1, 83, 0
3, 48000, Note_on_c, 1, 76, 100
3, 48240, Note_on_c, 1, 76, 0
3, 48240, Note_on_c, 1, 75, 100
3, 48480, Note_on_c, 1, 75, 0
3, 48480, Note_on_c, 1, 73, 100
3, 48720, Note_on_c, 1, 73, 0
3, 48720, Note_on_c, 1, 75, 100
3, 48960, Note_on_c, 1, 75, 0
3, 48960, Note_on_c, 1, 76, 100
3, 49200, Note_on_c, 1, 76, 0
3, 49200, Note_on_c, 1, 75, 100
3, 49440, Note_on_c, 1, 75, 0
3, 49440, Note_on_c, 1, 73, 100
3, 49680, Note_on_c, 1, 73, 0
3, 49680, Note_on_c, 1, 71, 100
3, 49920, Note_on_c, 1, 71, 0
3, 49920, Note_on_c, 1, 70, 100
3, 50160, Note_on_c, 1, 70, 0
3, 50160, Note_on_c, 1, 68, 100
3, 50400, Note_on_c, 1, 68, 0
3, 50400, Note_on_c, 1, 66, 100
3, 50640, Note_on_c, 1, 66, 0
3, 50640, Note_on_c, 1, 68, 100
3, 50880, Note_on_c, 1, 68, 0
3, 50880, Note_on_c, 1, 70, 100
3, 51120, Note_on_c, 1, 70, 0
3, 51120, Note_on_c, 1, 71, 100
3, 51360, Note_on_c, 1, 71, 0
3, 51360, Note_on_c, 1, 73, 100
3, 51600, Note_on_c, 1, 73, 0
3, 51600, Note_on_c, 1, 75, 100
3, 51840, Note_on_c, 1, 75, 0
3, 55440, Note_on_c, 1, 76, 100
3, 55680, Note_on_c, 1, 76, 0
3, 55680, Note_on_c, 1, 75, 100
3, 55920, Note_on_c, 1, 75, 0
3, 55920, Note_on_c, 1, 73, 100
3, 56160, Note_on_c, 1, 73, 0
3, 56160, Note_on_c, 1, 71, 100
3, 56400, Note_on_c, 1, 71, 0
3, 56400, Note_on_c, 1, 73, 100
3, 56640, Note_on_c, 1, 73, 0
3, 56640, Note_on_c, 1, 75, 100
3, 56880, Note_on_c, 1, 75, 0
3, 56880, Note_on_c, 1, 76, 100
3, 57120, Note_on_c, 1, 76, 0
3, 57120, Note_on_c, 1, 78, 100
3, 57360, Note_on_c, 1, 78, 0
3, 57360, Note_on_c, 1, 69, 100
3, 57600, Note_on_c, 1, 69, 0
3, 57600, Note_on_c, 1, 68, 100
3, 57840, Note_on_c, 1, 68, 0
3, 57840, Note_on_c, 1, 71, 100
3, 58080, Note_on_c, 1, 71, 0
3, 58080, Note_on_c, 1, 76, 100
3, 58320, Note_on_c, 1, 76, 0
3, 58320, Note_on_c, 1, 75, 100
3, 58560, Note_on_c, 1, 75, 0
3, 58560, Note_on_c, 1, 76, 100
3, 58800, Note_on_c, 1, 76, 0
3, 58800, Note_on_c, 1, 82, 100
3, 59040, Note_on_c, 1, 82, 0
3, 59040, Note_on_c, 1, 83, 100
3, 59280, Note_on_c, 1, 83, 0
3, 59280, Note_on_c, 1, 73, 100
3, 59520, Note_on_c, 1, 73, 0
3, 59520, Note_on_c, 1, 64, 100
3, 59760, Note_on_c, 1, 64, 0
3, 59760, Note_on_c, 1, 75, 100
3, 60000, Note_on_c, 1, 75, 0
3, 60000, Note_on_c, 1, 73, 100
3, 60240, Note_on_c, 1, 73, 0
3, 60240, Note_on_c, 1, 71, 100
3, 60480, Note_on_c, 1, 71, 0
3, 60480, Note_on_c, 1, 66, 100
3, 60720, Note_on_c, 1, 66, 0
3, 60720, Note_on_c, 1, 73, 100
3, 60960, Note_on_c, 1, 73, 0
3, 60960, Note_on_c, 1, 71, 100
3, 61200, Note_on_c, 1, 71, 0
3, 61200, Note_on_c, 1, 70, 100
3, 61440, Note_on_c, 1, 70, 0
3, 61440, Note_on_c, 1, 71, 100
3, 61680, Note_on_c, 1, 71, 0
3, 61680, Note_on_c, 1, 66, 100
3, 61920, Note_on_c, 1, 66, 0
3, 61920, Note_on_c, 1, 63, 100
3, 62160, Note_on_c, 1, 63, 0
3, 62160, Note_on_c, 1, 66, 100
3, 62400, Note_on_c, 1, 66, 0
3, 62400, Note_on_c, 1, 59, 100
3, 62880, Note_on_c, 1, 59, 0
3, 62880, Note_on_c, 1, 71, 100
3, 63360, Note_on_c, 1, 71, 0
3, 63360, Note_on_c, 1, 76, 100
3, 63840, Note_on_c, 1, 76, 0
3, 63840, Note_on_c, 1, 76, 100
3, 64080, Note_on_c, 1, 76, 0
3, 64080, Note_on_c, 1, 78, 100
3, 64320, Note_on_c, 1, 78, 0
3, 64320, Note_on_c, 1, 80, 100
3, 64560, Note_on_c, 1, 80, 0
3, 64560, Note_on_c, 1, 82, 100
3, 64800, Note_on_c, 1, 82, 0
3, 64800, Note_on_c, 1, 83, 100
3, 65280, Note_on_c, 1, 83, 0
3, 65280, Note_on_c, 1, 75, 100
3, 65520, Note_on_c, 1, 75, 0
3, 65520, Note_on_c, 1, 78, 100
3, 65760, Note_on_c, 1, 78, 0
3, 65760, Note_on_c, 1, 83, 100
3, 66240, Note_on_c, 1, 83, 0
3, 66240, Note_on_c, 1, 83, 100
3, 66480, Note_on_c, 1, 83, 0
3, 66480, Note_on_c, 1, 82, 100
3, 66720, Note_on_c, 1, 82, 0
3, 66720, Note_on_c, 1, 83, 100
3, 67200, Note_on_c, 1, 83, 0
3, 67200, Note_on_c, 1, 73, 100
3, 67440, Note_on_c, 1, 73, 0
3, 67440, Note_on_c, 1, 76, 100
3, 67680, Note_on_c, 1, 76, 0
3, 67680, Note_on_c, 1, 81, 100
3, 67920, Note_on_c, 1, 81, 0
3, 67920, Note_on_c, 1, 73, 100
3, 68160, Note_on_c, 1, 73, 0
3, 68160, Note_on_c, 1, 72, 100
3, 68400, Note_on_c, 1, 72, 0
3, 68400, Note_on_c, 1, 75, 100
3, 68640, Note_on_c, 1, 75, 0
3, 68640, Note_on_c, 1, 80, 100
3, 68880, Note_on_c, 1, 80, 0
3, 68880, Note_on_c, 1, 78, 100
3, 69120, Note_on_c, 1, 78, 0
3, 69120, Note_on_c, 1, 78, 100
3, 69360, Note_on_c, 1, 78, 0
3, 69360, Note_on_c, 1, 76, 100
3, 69600, Note_on_c, 1, 76, 0
3, 69600, Note_on_c, 1, 75, 100
3, 69840, Note_on_c, 1, 75, 0
3, 69840, Note_on_c, 1, 76, 100
3, 70080, Note_on_c, 1, 76, 0
3, 70080, Note_on_c, 1, 73, 100
3, 70560, Note_on_c, 1, 73, 0
3, 70560, Note_on_c, 1, 76, 100
3, 70800, Note_on_c, 1, 76, 0
3, 70800, Note_on_c, 1, 73, 100
3, 71040, Note_on_c, 1, 73, 0
3, 71040, Note_on_c, 1, 68, 100
3, 71280, Note_on_c, 1, 68, 0
3, 71280, Note_on_c, 1, 69, 100
3, 71520, Note_on_c, 1, 69, 0
3, 71520, Note_on_c, 1, 71, 100
3, 71760, Note_on_c, 1, 71, 0
3, 71760, Note_on_c, 1, 73, 100
3, 72000, Note_on_c, 1, 73, 0
3, 72000, Note_on_c, 1, 74, 100
3, 72240, Note_on_c, 1, 74, 0
3, 72240, Note_on_c, 1, 80, 100
3, 72480, Note_on_c, 1, 80, 0
3, 72480, Note_on_c, 1, 83, 100
3, 72720, Note_on_c, 1, 83, 0
3, 72720, Note_on_c, 1, 74, 100
3, 72960, Note_on_c, 1, 74, 0
3, 72960, Note_on_c, 1, 73, 100
3, 73200, Note_on_c, 1, 73, 0
3, 73200, Note_on_c, 1, 71, 100
3, 73440, Note_on_c, 1, 71, 0
3, 73440, Note_on_c, 1, 69, 100
3, 73680, Note_on_c, 1, 69, 0
3, 73680, Note_on_c, 1, 71, 100
3, 73920, Note_on_c, 1, 71, 0
3, 73920, Note_on_c, 1, 73, 100
3, 74160, Note_on_c, 1, 73, 0
3, 74160, Note_on_c, 1, 76, 100
3, 74400, Note_on_c, 1, 76, 0
3, 74400, Note_on_c, 1, 81, 100
3, 74640, Note_on_c, 1, 81, 0
3, 74640, Note_on_c, 1, 73, 100
3, 74880, Note_on_c, 1, 73, 0
3, 74880, Note_on_c, 1, 68, 75
3, 75120, Note_on_c, 1, 68, 0
3, 75120, Note_on_c, 1, 69, 75
3, 75360, Note_on_c, 1, 69, 0
3, 75360, Note_on_c, 1, 71, 75
3, 75600, Note_on_c, 1, 71, 0
3, 75600, Note_on_c, 1, 73, 75
3, 75840, Note_on_c, 1, 73, 0
3, 75840, Note_on_c, 1, 74, 75
3, 76080, Note_on_c, 1, 74, 0
3, 76080, Note_on_c, 1, 80, 75
3, 76320, Note_on_c, 1, 80, 0
3, 76320, Note_on_c, 1, 83, 75
3, 76560, Note_on_c, 1, 83, 0
3, 76560, Note_on_c, 1, 74, 75
3, 76800, Note_on_c, 1, 74, 0
3, 76800, Note_on_c, 1, 73, 75
3, 77040, Note_on_c, 1, 73, 0
3, 77040, Note_on_c, 1, 71, 75
3, 77280, Note_on_c, 1, 71, 0
3, 77280, Note_on_c, 1, 69, 75
3, 77520, Note_on_c, 1, 69, 0
3, 77520, Note_on_c, 1, 71, 75
3, 77760, Note_on_c, 1, 71, 0
3, 77760, Note_on_c, 1, 73, 75
3, 78000, Note_on_c, 1, 73, 0
3, 78000, Note_on_c, 1, 76, 75
3, 78240, Note_on_c, 1, 76, 0
3, 78240, Note_on_c, 1, 81, 75
3, 78480, Note_on_c, 1, 81, 0
3, 78480, Note_on_c, 1, 73, 75
3, 78720, Note_on_c, 1, 73, 0
3, 78720, Note_on_c, 1, 74, 100
3, 78960, Note_on_c, 1, 74, 0
3, 78960, Note_on_c, 1, 71, 100
3, 79200, Note_on_c, 1, 71, 0
3, 79200, Note_on_c, 1, 68, 100
3, 79440, Note_on_c, 1, 68, 0
3, 79440, Note_on_c, 1, 66, 100
3, 79680, Note_on_c, 1, 66, 0
3, 79680, Note_on_c, 1, 65, 100
3, 79920, Note_on_c, 1, 65, 0
3, 79920, Note_on_c, 1, 68, 100
3, 80160, Note_on_c, 1, 68, 0
3, 80160, Note_on_c, 1, 71, 100
3, 80400, Note_on_c, 1, 71, 0
3, 80400, Note_on_c, 1, 74, 100
3, 80640, Note_on_c, 1, 74, 0
3, 80640, Note_on_c, 1, 73, 100
3, 80880, Note_on_c, 1, 73, 0
3, 80880, Note_on_c, 1, 69, 100
3, 81120, Note_on_c, 1, 69, 0
3, 81120, Note_on_c, 1, 66, 100
3, 81360, Note_on_c, 1, 66, 0
3, 81360, Note_on_c, 1, 64, 100
3, 81600, Note_on_c, 1, 64, 0
3, 81600, Note_on_c, 1, 62, 100
3, 81840, Note_on_c, 1, 62, 0
3, 81840, Note_on_c, 1, 61, 100
3, 82080, Note_on_c, 1, 61, 0
3, 82080, Note_on_c, 1, 62, 100
3, 82320, Note_on_c, 1, 62, 0
3, 82320, Note_on_c, 1, 73, 100
3, 82560, Note_on_c, 1, 73, 0
3, 82560, Note_on_c, 1, 71, 100
3, 82800, Note_on_c, 1, 71, 0
3, 82800, Note_on_c, 1, 81, 100
3, 83040, Note_on_c, 1, 81, 0
3, 83040, Note_on_c, 1, 80, 100
3, 83280, Note_on_c, 1, 80, 0
3, 83280, Note_on_c, 1, 78, 100
3, 83520, Note_on_c, 1, 78, 0
3, 83520, Note_on_c, 1, 73, 100
3, 83760, Note_on_c, 1, 73, 0
3, 83760, Note_on_c, 1, 80, 100
3, 84000, Note_on_c, 1, 80, 0
3, 84000, Note_on_c, 1, 78, 100
3, 84240, Note_on_c, 1, 78, 0
3, 84240, Note_on_c, 1, 77, 100
3, 84480, Note_on_c, 1, 77, 0
3, 84480, Note_on_c, 1, 78, 100
3, 84720, Note_on_c, 1, 78, 0
3, 84720, Note_on_c, 1, 73, 100
3, 84960, Note_on_c, 1, 73, 0
3, 84960, Note_on_c, 1, 69, 100
3, 85200, Note_on_c, 1, 69, 0
3, 85200, Note_on_c, 1, 73, 100
3, 85440, Note_on_c, 1, 73, 0
3, 85440, Note_on_c, 1, 66, 100
3, 85920, Note_on_c, 1, 66, 0
3, 85920, Note_on_c, 1, 81, 100
3, 86160, Note_on_c, 1, 81, 0
3, 86160, Note_on_c, 1, 80, 100
3, 86400, Note_on_c, 1, 80, 0
3, 86400, Note_on_c, 1, 75, 100
3, 86640, Note_on_c, 1, 75, 0
3, 86640, Note_on_c, 1, 78, 100
3, 86880, Note_on_c, 1, 78, 0
3, 86880, Note_on_c, 1, 71, 100
3, 87120, Note_on_c, 1, 71, 0
3, 87120, Note_on_c, 1, 73, 100
3, 87360, Note_on_c, 1, 73, 0
3, 87360, Note_on_c, 1, 75, 100
3, 87600, Note_on_c, 1, 75, 0
3, 87600, Note_on_c, 1, 76, 100
3, 87840, Note_on_c, 1, 76, 0
3, 87840, Note_on_c, 1, 78, 100
3, 88080, Note_on_c, 1, 78, 0
3, 88080, Note_on_c, 1, 81, 100
3, 88320, Note_on_c, 1, 81, 0
3, 88320, Note_on_c, 1, 80, 100
3, 88560, Note_on_c, 1, 80, 0
3, 88560, Note_on_c, 1, 83, 100
3, 88800, Note_on_c, 1, 83, 0
3, 88800, Note_on_c, 1, 76, 100
3, 89040, Note_on_c, 1, 76, 0
3, 89040, Note_on_c, 1, 78, 100
3, 89280, Note_on_c, 1, 78, 0
3, 89280, Note_on_c, 1, 80, 100
3, 89520, Note_on_c, 1, 80, 0
3, 89520, Note_on_c, 1, 81, 100
3, 89760, Note_on_c, 1, 81, 0
3, 89760, Note_on_c, 1, 83, 100
3, 90000, Note_on_c, 1, 83, 0
3, 90000, Note_on_c, 1, 74, 100
3, 90240, Note_on_c, 1, 74, 0
3, 90240, Note_on_c, 1, 73, 100
3, 90480, Note_on_c, 1, 73, 0
3, 90480, Note_on_c, 1, 76, 100
3, 90720, Note_on_c, 1, 76, 0
3, 90720, Note_on_c, 1, 69, 100
3, 90960, Note_on_c, 1, 69, 0
3, 90960, Note_on_c, 1, 73, 100
3, 91200, Note_on_c, 1, 73, 0
3, 91200, Note_on_c, 1, 78, 100
3, 91440, Note_on_c, 1, 78, 0
3, 91440, Note_on_c, 1, 80, 100
3, 91680, Note_on_c, 1, 80, 0
3, 91680, Note_on_c, 1, 81, 100
3, 91920, Note_on_c, 1, 81, 0
3, 91920, Note_on_c, 1, 78, 100
3, 92160, Note_on_c, 1, 78, 0
3, 92160, Note_on_c, 1, 76, 100
3, 92400, Note_on_c, 1, 76, 0
3, 92400, Note_on_c, 1, 75, 100
3, 92640, Note_on_c, 1, 75, 0
3, 92640, Note_on_c, 1, 73, 100
3, 92880, Note_on_c, 1, 73, 0
3, 92880, Note_on_c, 1, 75, 100
3, 93120, Note_on_c, 1, 75, 0
3, 93120, Note_on_c, 1, 71, 100
3, 93600, Note_on_c, 1, 71, 0
3, 93600, Note_on_c, 1, 64, 100
3, 94080, Note_on_c, 1, 64, 0
3, 94080, Note_on_c, 1, 69, 100
3, 94560, Note_on_c, 1, 69, 0
3, 94560, Note_on_c, 1, 69, 100
3, 94800, Note_on_c, 1, 69, 0
3, 94800, Note_on_c, 1, 71, 100
3, 95040, Note_on_c, 1, 71, 0
3, 95040, Note_on_c, 1, 73, 100
3, 95280, Note_on_c, 1, 73, 0
3, 95280, Note_on_c, 1, 75, 100
3, 95520, Note_on_c, 1, 75, 0
3, 95520, Note_on_c, 1, 76, 100
3, 95760, Note_on_c, 1, 76, 0
3, 95760, Note_on_c, 1, 78, 100
3, 96000, Note_on_c, 1, 78, 0
3, 96000, Note_on_c, 1, 75, 100
3, 96240, Note_on_c, 1, 75, 0
3, 96240, Note_on_c, 1, 78, 100
3, 96480, Note_on_c, 1, 78, 0
3, 96480, Note_on_c, 1, 81, 100
3, 96720, Note_on_c, 1, 81, 0
3, 96720, Note_on_c, 1, 78, 100
3, 96960, Note_on_c, 1, 78, 0
3, 96960, Note_on_c, 1, 75, 100
3, 97200, Note_on_c, 1, 75, 0
3, 97200, Note_on_c, 1, 71, 100
3, 97440, Note_on_c, 1, 71, 0
3, 97440, Note_on_c, 1, 73, 100
3, 97680, Note_on_c, 1, 73, 0
3, 97680, Note_on_c, 1, 69, 100
3, 97920, Note_on_c, 1, 69, 0
3, 97920, Note_on_c, 1, 68, 100
3, 98160, Note_on_c, 1, 68, 0
3, 98160, Note_on_c, 1, 76, 100
3, 98400, Note_on_c, 1, 76, 0
3, 98400, Note_on_c, 1, 83, 100
3, 98880, Note_on_c, 1, 83, 0
3, 98880, Note_on_c, 1, 71, 100
3, 99360, Note_on_c, 1, 71, 0
3, 101280, Note_on_c, 1, 71, 100
3, 101760, Note_on_c, 1, 71, 0
3, 101760, Note_on_c, 1, 76, 100
3, 102240, Note_on_c, 1, 76, 0
3, 102240, Note_on_c, 1, 76, 100
3, 102480, Note_on_c, 1, 76, 0
3, 102480, Note_on_c, 1, 78, 100
3, 102720, Note_on_c, 1, 78, 0
3, 102720, Note_on_c, 1, 80, 100
3, 102960, Note_on_c, 1, 80, 0
3, 102960, Note_on_c, 1, 82, 100
3, 103200, Note_on_c, 1, 82, 0
3, 103200, Note_on_c, 1, 83, 100
3, 103680, Note_on_c, 1, 83, 0
3, 103680, Note_on_c, 1, 75, 100
3, 103920, Note_on_c, 1, 75, 0
3, 103920, Note_on_c, 1, 78, 100
3, 104160, Note_on_c, 1, 78, 0
3, 104160, Note_on_c, 1, 83, 100
3, 104640, Note_on_c, 1, 83, 0
3, 104640, Note_on_c, 1, 83, 100
3, 104880, Note_on_c, 1, 83, 0
3, 104880, Note_on_c, 1, 82, 100
3, 105120, Note_on_c, 1, 82, 0
3, 105120, Note_on_c, 1, 83, 100
3, 105600, Note_on_c, 1, 83, 0
3, 105600, Note_on_c, 1, 73, 100
3, 105840, Note_on_c, 1, 73, 0
3, 105840, Note_on_c, 1, 76, 100
3, 106080, Note_on_c, 1, 76, 0
3, 106080, Note_on_c, 1, 81, 100
3, 106320, Note_on_c, 1, 81, 0
3, 106320, Note_on_c, 1, 73, 100
3, 106560, Note_on_c, 1, 73, 0
3, 106560, Note_on_c, 1, 72, 100
3, 106800, Note_on_c, 1, 72, 0
3, 106800, Note_on_c, 1, 75, 100
3, 107040, Note_on_c, 1, 75, 0
3, 107040, Note_on_c, 1, 80, 100
3, 107280, Note_on_c, 1, 80, 0
3, 107280, Note_on_c, 1, 78, 100
3, 107520, Note_on_c, 1, 78, 0
3, 107520, Note_on_c, 1, 78, 100
3, 107760, Note_on_c, 1, 78, 0
3, 107760, Note_on_c, 1, 76, 100
3, 108000, Note_on_c, 1, 76, 0
3, 108000, Note_on_c, 1, 75, 100
3, 108240, Note_on_c, 1, 75, 0
3, 108240, Note_on_c, 1, 76, 100
3, 108480, Note_on_c, 1, 76, 0
3, 108480, Note_on_c, 1, 73, 100
3, 108960, Note_on_c, 1, 73, 0
3, 108960, Note_on_c, 1, 76, 100
3, 109200, Note_on_c, 1, 76, 0
3, 109200, Note_on_c, 1, 73, 100
3, 109440, Note_on_c, 1, 73, 0
3, 109440, Note_on_c, 1, 68, 100
3, 109680, Note_on_c, 1, 68, 0
3, 109680, Note_on_c, 1, 69, 100
3, 109920, Note_on_c, 1, 69, 0
3, 109920, Note_on_c, 1, 71, 100
3, 110160, Note_on_c, 1, 71, 0
3, 110160, Note_on_c, 1, 73, 100
3, 110400, Note_on_c, 1, 73, 0
3, 110400, Note_on_c, 1, 74, 100
3, 110640, Note_on_c, 1, 74, 0
3, 110640, Note_on_c, 1, 80, 100
3, 110880, Note_on_c, 1, 80, 0
3, 110880, Note_on_c, 1, 83, 100
3, 111120, Note_on_c, 1, 83, 0
3, 111120, Note_on_c, 1, 74, 100
3, 111360, Note_on_c, 1, 74, 0
3, 111360, Note_on_c, 1, 73, 100
3, 111600, Note_on_c, 1, 73, 0
3, 111600, Note_on_c, 1, 71, 100
3, 111840, Note_on_c, 1, 71, 0
3, 111840, Note_on_c, 1, 69, 100
3, 112080, Note_on_c, 1, 69, 0
3, 112080, Note_on_c, 1, 71, 100
3, 112320, Note_on_c, 1, 71, 0
3, 112320, Note_on_c, 1, 73, 100
3, 112560, Note_on_c, 1, 73, 0
3, 112560, Note_on_c, 1, 76, 100
3, 112800, Note_on_c, 1, 76, 0
3, 112800, Note_on_c, 1, 81, 100
3, 113040, Note_on_c, 1, 81, 0
3, 113040, Note_on_c, 1, 73, 100
3, 113280, Note_on_c, 1, 73, 0
3, 113280, Note_on_c, 1, 68, 75
3, 113520, Note_on_c, 1, 68, 0
3, 113520, Note_on_c, 1, 69, 75
3, 113760, Note_on_c, 1, 69, 0
3, 113760, Note_on_c, 1, 71, 75
3, 114000, Note_on_c, 1, 71, 0
3, 114000, Note_on_c, 1, 73, 75
3, 114240, Note_on_c, 1, 73, 0
3, 114240, Note_on_c, 1, 74, 75
3, 114480, Note_on_c, 1, 74, 0
3, 114480, Note_on_c, 1, 80, 75
3, 114720, Note_on_c, 1, 80, 0
3, 114720, Note_on_c, 1, 83, 75
3, 114960, Note_on_c, 1, 83, 0
3, 114960, Note_on_c, 1, 74, 75
3, 115200, Note_on_c, 1, 74, 0
3, 115200, Note_on_c, 1, 73, 75
3, 115440, Note_on_c, 1, 73, 0
3, 115440, Note_on_c, 1, 71, 75
3, 115680, Note_on_c, 1, 71, 0
3, 115680, Note_on_c, 1, 69, 75
3, 115920, Note_on_c, 1, 69, 0
3, 115920, Note_on_c, 1, 71, 75
3, 116160, Note_on_c, 1, 71, 0
3, 116160, Note_on_c, 1, 73, 75
3, 116400, Note_on_c, 1, 73, 0
3, 116400, Note_on_c, 1, 76, 75
3, 116640, Note_on_c, 1, 76, 0
3, 116640, Note_on_c, 1, 81, 75
3, 116880, Note_on_c, 1, 81, 0
3, 116880, Note_on_c, 1, 73, 75
3, 117120, Note_on_c, 1, 73, 0
3, 117120, Note_on_c, 1, 74, 100
3, 117360, Note_on_c, 1, 74, 0
3, 117360, Note_on_c, 1, 71, 100
3, 117600, Note_on_c, 1, 71, 0
3, 117600, Note_on_c, 1, 68, 100
3, 117840, Note_on_c, 1, 68, 0
3, 117840, Note_on_c, 1, 66, 100
3, 118080, Note_on_c, 1, 66, 0
3, 118080, Note_on_c, 1, 65, 100
3, 118320, Note_on_c, 1, 65, 0
3, 118320, Note_on_c, 1, 68, 100
3, 118560, Note_on_c, 1, 68, 0
3, 118560, Note_on_c, 1, 71, 100
3, 118800, Note_on_c, 1, 71, 0
3, 118800, Note_on_c, 1, 74, 100
3, 119040, Note_on_c, 1, 74, 0
3, 119040, Note_on_c, 1, 73, 100
3, 119280, Note_on_c, 1, 73, 0
3, 119280, Note_on_c, 1, 69, 100
3, 119520, Note_on_c, 1, 69, 0
3, 119520, Note_on_c, 1, 66, 100
3, 119760, Note_on_c, 1, 66, 0
3, 119760, Note_on_c, 1, 64, 100
3, 120000, Note_on_c, 1, 64, 0
3, 120000, Note_on_c, 1, 62, 100
3, 120240, Note_on_c, 1, 62, 0
3, 120240, Note_on_c, 1, 61, 100
3, 120480, Note_on_c, 1, 61, 0
3, 120480, Note_on_c, 1, 62, 100
3, 120720, Note_on_c, 1, 62, 0
3, 120720, Note_on_c, 1, 73, 100
3, 120960, Note_on_c, 1, 73, 0
3, 120960, Note_on_c, 1, 71, 100
3, 121200, Note_on_c, 1, 71, 0
3, 121200, Note_on_c, 1, 81, 100
3, 121440, Note_on_c, 1, 81, 0
3, 121440, Note_on_c, 1, 80, 100
3, 121680, Note_on_c, 1, 80, 0
3, 121680, Note_on_c, 1, 78, 100
3, 121920, Note_on_c, 1, 78, 0
3, 121920, Note_on_c, 1, 73, 100
3, 122160, Note_on_c, 1, 73, 0
3, 122160, Note_on_c, 1, 80, 100
3, 122400, Note_on_c, 1, 80, 0
3, 122400, Note_on_c, 1, 78, 100
3, 122640, Note_on_c, 1, 78, 0
3, 122640, Note_on_c, 1, 77, 100
3, 122880, Note_on_c, 1, 77, 0
3, 122880, Note_on_c, 1, 78, 100
3, 123120, Note_on_c, 1, 78, 0
3, 123120, Note_on_c, 1, 73, 100
3, 123360, Note_on_c, 1, 73, 0
3, 123360, Note_on_c, 1, 69, 100
3, 123600, Note_on_c, 1, 69, 0
3, 123600, Note_on_c, 1, 73, 100
3, 123840, Note_on_c, 1, 73, 0
3, 123840, Note_on_c, 1, 66, 100
3, 124320, Note_on_c, 1, 66, 0
3, 124320, Note_on_c, 1, 81, 100
3, 124560, Note_on_c, 1, 81, 0
3, 124560, Note_on_c, 1, 80, 100
3, 124800, Note_on_c, 1, 80, 0
3, 124800, Note_on_c, 1, 75, 100
3, 125040, Note_on_c, 1, 75, 0
3, 125040, Note_on_c, 1, 78, 100
3, 125280, Note_on_c, 1, 78, 0
3, 125280, Note_on_c, 1, 71, 100
3, 125520, Note_on_c, 1, 71, 0
3, 125520, Note_on_c, 1, 73, 100
3, 125760, Note_on_c, 1, 73, 0
3, 125760, Note_on_c, 1, 75, 100
3, 126000, Note_on_c, 1, 75, 0
3, 126000, Note_on_c, 1, 76, 100
3, 126240, Note_on_c, 1, 76, 0
3, 126240, Note_on_c, 1, 78, 100
3, 126480, Note_on_c, 1, 78, 0
3, 126480, Note_on_c, 1, 81, 100
3, 126720, Note_on_c, 1, 81, 0
3, 126720, Note_on_c, 1, 80, 100
3, 126960, Note_on_c, 1, 80, 0
3, 126960, Note_on_c, 1, 83, 100
3, 127200, Note_on_c, 1, 83, 0
3, 127200, Note_on_c, 1, 76, 100
3, 127440, Note_on_c, 1, 76, 0
3, 127440, Note_on_c, 1, 78, 100
3, 127680, Note_on_c, 1, 78, 0
3, 127680, Note_on_c, 1, 80, 100
3, 127920, Note_on_c, 1, 80, 0
3, 127920, Note_on_c, 1, 81, 100
3, 128160, Note_on_c, 1, 81, 0
3, 128160, Note_on_c, 1, 83, 100
3, 128400, Note_on_c, 1, 83, 0
3, 128400, Note_on_c, 1, 74, 100
3, 128640, Note_on_c, 1, 74, 0
3, 128640, Note_on_c, 1, 73, 100
3, 128880, Note_on_c, 1, 73, 0
3, 128880, Note_on_c, 1, 76, 100
3, 129120, Note_on_c, 1, 76, 0
3, 129120, Note_on_c, 1, 69, 100
3, 129360, Note_on_c, 1, 69, 0
3, 129360, Note_on_c, 1, 73, 100
3, 129600, Note_on_c, 1, 73, 0
3, 129600, Note_on_c, 1, 78, 100
3, 129840, Note_on_c, 1, 78, 0
3, 129840, Note_on_c, 1, 80, 100
3, 130080, Note_on_c, 1, 80, 0
3, 130080, Note_on_c, 1, 81, 100
3, 130320, Note_on_c, 1, 81, 0
3, 130320, Note_on_c, 1, 78, 100
3, 130560, Note_on_c, 1, 78, 0
3, 130560, Note_on_c, 1, 76, 100
3, 130800, Note_on_c, 1, 76, 0
3, 130800, Note_on_c, 1, 75, 100
3, 131040, Note_on_c, 1, 75, 0
3, 131040, Note_on_c, 1, 73, 100
3, 131280, Note_on_c, 1, 73, 0
3, 131280, Note_on_c, 1, 75, 100
3, 131520, Note_on_c, 1, 75, 0
3, 131520, Note_on_c, 1, 71, 100
3, 132000, Note_on_c, 1, 71, 0
3, 132000, Note_on_c, 1, 64, 100
3, 132480, Note_on_c, 1, 64, 0
3, 132480, Note_on_c, 1, 69, 100
3, 132960, Note_on_c, 1, 69, 0
3, 132960, Note_on_c, 1, 69, 100
3, 133200, Note_on_c, 1, 69, 0
3, 133200, Note_on_c, 1, 71, 100
3, 133440, Note_on_c, 1, 71, 0
3, 133440, Note_on_c, 1, 73, 100
3, 133680, Note_on_c, 1, 73, 0
3, 133680, Note_on_c, 1, 75, 100
3, 133920, Note_on_c, 1, 75, 0
3, 133920, Note_on_c, 1, 76, 100
3, 134160, Note_on_c, 1, 76, 0
3, 134160, Note_on_c, 1, 78, 100
3, 134400, Note_on_c, 1, 78, 0
3, 134400, Note_on_c, 1, 75, 100
3, 134640, Note_on_c, 1, 75, 0
3, 134640, Note_on_c, 1, 78, 100
3, 134880, Note_on_c, 1, 78, 0
3, 134880, Note_on_c, 1, 81, 100
3, 135120, Note_on_c, 1, 81, 0
3, 135120, Note_on_c, 1, 78, 100
3, 135360, Note_on_c, 1, 78, 0
3, 135360, Note_on_c, 1, 75, 100
3, 135600, Note_on_c, 1, 75, 0
3, 135600, Note_on_c, 1, 71, 100
3, 135840, Note_on_c, 1, 71, 0
3, 135840, Note_on_c, 1, 73, 100
3, 136080, Note_on_c, 1, 73, 0
3, 136080, Note_on_c, 1, 69, 100
3, 136320, Note_on_c, 1, 69, 0
3, 136320, Note_on_c, 1, 68, 100
3, 136560, Note_on_c, 1, 68, 0
3, 136560, Note_on_c, 1, 76, 100
3, 136800, Note_on_c, 1, 76, 0
3, 136800, Note_on_c, 1, 83, 100
3, 137280, Note_on_c, 1, 83, 0
3, 137280, Note_on_c, 1, 71, 100
3, 137760, Note_on_c, 1, 71, 0
3, 137760, End_track
4, 0, Start_track
4, 0, MIDI_port, 0
4, 0, Title_t, "Johann Sebastian Bach  (1685-1750)"
4, 0, End_track
5, 0, Start_track
5, 0, MIDI_port, 0
5, 0, Title_t, "Six Sonatas and Partitas for Solo Violin"
5, 0, End_track
6, 0, Start_track
6, 0, MIDI_port, 0
6, 0, Title_t, "--------------------------------------"
6, 0, End_track
7, 0, Start_track
7, 0, MIDI_port, 0
7, 0, Title_t, "Partita No. 3 in E major - BWV 1006"
7, 0, End_track
8, 0, Start_track
8, 0, MIDI_port, 0
8, 0, Title_t, "5th Movement: Bouree"
8, 0, End_track
9, 0, Start_track
9, 0, MIDI_port, 0
9, 0, Title_t, "--------------------------------------"
9, 0, End_track
10, 0, Start_track
10, 0, MIDI_port, 0
10, 0, Title_t, "Sequenced with Cakewalk Pro Audio by"
10, 0, End_track
11, 0, Start_track
11, 0, MIDI_port, 0
11, 0, Title_t, "David J. Grossman - dave@unpronounceable.com"
11, 0, End_track
12, 0, Start_track
12, 0, MIDI_port, 0
12, 0, Title_t, "This and other Bach MIDI files can be found at:"
12, 0, End_track
13, 0, Start_track
13, 0, MIDI_port, 0
13, 0, Title_t, "Dave's J.S. Bach Page"
13, 0, End_track
14, 0, Start_track
14, 0, MIDI_port, 0
14, 0, Title_t, "http://www.unpronounceable.com/bach"
14, 0, End_track
15, 0, Start_track
15, 0, MIDI_port, 0
15, 0, Title_t, "--------------------------------------"
15, 0, End_track
16, 0, Start_track
16, 0, MIDI_port, 0
16, 0, Title_t, "Original Filename: vp3-5bou.mid"
16, 0, End_track
17, 0, Start_track
17, 0, MIDI_port, 0
17, 0, Title_t, "Last Modified: February 22, 1997"
17, 0, End_track
0, 0, End_of_file
