0, 0, Header, 1, 17, 480
1, 0, Start_track
1, 0, Title_t, "untitled"
1, 0, SMPTE_offset, 96, 0, 3, 0, 0
1, 0, Time_signature, 6, 2, 24, 8
1, 0, Key_signature, 4, "major"
1, 0, Tempo, 240964
1, 2160, Tempo, 800000
1, 2160, Marker_t, "A"
1, 33840, Marker_t, "A'"
1, 65520, Marker_t, "B"
1, 102960, Marker_t, "B'"
1, 139680, Tempo, 2000000
1, 139680, End_track
2, 0, Start_track
2, 0, MIDI_port, 0
2, 0, Title_t, "Solo Violin"
2, 0, Program_c, 0, 40
2, 0, Control_c, 0, 7, 100
2, 0, Control_c, 0, 10, 64
2, 2160, Note_on_c, 0, 71, 100
2, 2400, Note_on_c, 0, 71, 0
2, 2400, Note_on_c, 0, 83, 100
2, 2880, Note_on_c, 0, 83, 0
2, 2880, Note_on_c, 0, 80, 100
2, 3600, Note_on_c, 0, 80, 0
2, 3600, Note_on_c, 0, 81, 100
2, 3840, Note_on_c, 0, 81, 0
2, 3840, Pitch_bend_c, 0, 16383
2, 3840, Note_on_c, 0, 78, 100
2, 3920, Pitch_bend_c, 0, 8192
2, 4000, Pitch_bend_c, 0, 16383
2, 4040, Pitch_bend_c, 0, 8192
2, 4080, Pitch_bend_c, 0, 16383
2, 4120, Pitch_bend_c, 0, 8192
2, 4320, Note_on_c, 0, 78, 0
2, 4320, Note_on_c, 0, 80, 100
2, 4800, Note_on_c, 0, 80, 0
2, 4800, Note_on_c, 0, 76, 100
2, 5280, Note_on_c, 0, 76, 0
2, 5280, Note_on_c, 0, 80, 100
2, 5760, Note_on_c, 0, 80, 0
2, 5760, Note_on_c, 0, 78, 100
2, 6480, Note_on_c, 0, 78, 0
2, 6480, Note_on_c, 0, 80, 100
2, 6720, Note_on_c, 0, 80, 0
2, 6720, Note_on_c, 0, 81, 100
2, 7200, Note_on_c, 0, 81, 0
2, 7200, Note_on_c, 0, 81, 100
2, 7440, Note_on_c, 0, 81, 0
2, 7440, Note_on_c, 0, 78, 100
2, 7680, Note_on_c, 0, 78, 0
2, 7680, Pitch_bend_c, 0, 12288
2, 7680, Note_on_c, 0, 75, 100
2, 7760, Pitch_bend_c, 0, 8192
2, 7840, Pitch_bend_c, 0, 12288
2, 7880, Pitch_bend_c, 0, 8192
2, 7920, Pitch_bend_c, 0, 12288
2, 7960, Pitch_bend_c, 0, 8192
2, 8160, Note_on_c, 0, 75, 0
2, 8160, Note_on_c, 0, 76, 100
2, 8640, Note_on_c, 0, 76, 0
2, 8640, Note_on_c, 0, 73, 100
2, 9360, Note_on_c, 0, 73, 0
2, 9360, Note_on_c, 0, 75, 100
2, 9600, Note_on_c, 0, 75, 0
2, 9600, Note_on_c, 0, 76, 100
2, 10080, Note_on_c, 0, 76, 0
2, 10080, Note_on_c, 0, 69, 100
2, 10800, Note_on_c, 0, 69, 0
2, 10800, Note_on_c, 0, 68, 100
2, 11040, Note_on_c, 0, 68, 0
2, 11040, Note_on_c, 0, 69, 100
2, 11520, Note_on_c, 0, 69, 0
2, 11520, Note_on_c, 0, 69, 100
2, 12000, Note_on_c, 0, 69, 0
2, 12000, Note_on_c, 0, 68, 100
2, 12360, Note_on_c, 0, 68, 0
2, 12360, Note_on_c, 0, 69, 100
2, 12480, Note_on_c, 0, 69, 0
2, 12480, Note_on_c, 0, 66, 100
2, 12960, Note_on_c, 0, 66, 0
2, 12960, Note_on_c, 0, 69, 100
2, 13200, Note_on_c, 0, 69, 0
2, 13200, Note_on_c, 0, 68, 100
2, 13440, Note_on_c, 0, 68, 0
2, 13440, Note_on_c, 0, 66, 100
2, 13680, Note_on_c, 0, 66, 0
2, 13680, Note_on_c, 0, 64, 100
2, 13920, Note_on_c, 0, 64, 0
2, 13920, Note_on_c, 0, 80, 100
2, 14400, Note_on_c, 0, 80, 0
2, 14400, Note_on_c, 0, 73, 100
2, 15120, Note_on_c, 0, 73, 0
2, 15120, Note_on_c, 0, 75, 100
2, 15360, Note_on_c, 0, 75, 0
2, 15360, Note_on_c, 0, 72, 100
2, 15840, Note_on_c, 0, 72, 0
2, 15840, Note_on_c, 0, 73, 100
2, 16320, Note_on_c, 0, 73, 0
2, 16320, Note_on_c, 0, 80, 100
2, 16800, Note_on_c, 0, 80, 0
2, 16800, Note_on_c, 0, 78, 100
2, 17040, Note_on_c, 0, 78, 0
2, 17040, Note_on_c, 0, 76, 100
2, 17280, Note_on_c, 0, 76, 0
2, 17280, Note_on_c, 0, 75, 100
2, 17760, Note_on_c, 0, 75, 0
2, 17760, Note_on_c, 0, 73, 100
2, 18120, Note_on_c, 0, 73, 0
2, 18120, Note_on_c, 0, 75, 100
2, 18240, Note_on_c, 0, 75, 0
2, 18240, Note_on_c, 0, 71, 100
2, 18720, Note_on_c, 0, 71, 0
2, 18720, Note_on_c, 0, 71, 100
2, 19200, Note_on_c, 0, 71, 0
2, 19200, Note_on_c, 0, 70, 100
2, 19560, Note_on_c, 0, 70, 0
2, 19560, Note_on_c, 0, 73, 100
2, 19680, Note_on_c, 0, 73, 0
2, 19680, Note_on_c, 0, 75, 100
2, 20160, Note_on_c, 0, 75, 0
2, 20160, Note_on_c, 0, 75, 100
2, 20640, Note_on_c, 0, 75, 0
2, 20640, Note_on_c, 0, 76, 100
2, 21000, Note_on_c, 0, 76, 0
2, 21000, Note_on_c, 0, 80, 100
2, 21120, Note_on_c, 0, 80, 0
2, 21120, Note_on_c, 0, 78, 100
2, 21600, Note_on_c, 0, 78, 0
2, 21600, Note_on_c, 0, 78, 100
2, 22080, Note_on_c, 0, 78, 0
2, 22080, Note_on_c, 0, 80, 100
2, 22440, Note_on_c, 0, 80, 0
2, 22440, Note_on_c, 0, 83, 100
2, 22560, Note_on_c, 0, 83, 0
2, 22560, Note_on_c, 0, 82, 100
2, 23040, Note_on_c, 0, 82, 0
2, 23040, Note_on_c, 0, 83, 100
2, 23520, Note_on_c, 0, 83, 0
2, 23520, Note_on_c, 0, 82, 100
2, 23760, Note_on_c, 0, 82, 0
2, 23760, Note_on_c, 0, 80, 100
2, 24000, Note_on_c, 0, 80, 0
2, 24000, Note_on_c, 0, 82, 100
2, 24120, Note_on_c, 0, 82, 0
2, 24120, Note_on_c, 0, 83, 100
2, 24240, Note_on_c, 0, 83, 0
2, 24240, Note_on_c, 0, 85, 100
2, 24480, Note_on_c, 0, 85, 0
2, 24480, Note_on_c, 0, 82, 100
2, 24960, Note_on_c, 0, 82, 0
2, 24960, Note_on_c, 0, 80, 100
2, 25200, Note_on_c, 0, 80, 0
2, 25200, Note_on_c, 0, 78, 100
2, 25440, Note_on_c, 0, 78, 0
2, 25440, Note_on_c, 0, 85, 100
2, 25920, Note_on_c, 0, 85, 0
2, 25920, Note_on_c, 0, 76, 100
2, 26640, Note_on_c, 0, 76, 0
2, 26640, Note_on_c, 0, 78, 100
2, 26880, Note_on_c, 0, 78, 0
2, 26880, Note_on_c, 0, 75, 100
2, 27360, Note_on_c, 0, 75, 0
2, 27360, Note_on_c, 0, 76, 100
2, 27600, Note_on_c, 0, 76, 0
2, 27600, Note_on_c, 0, 75, 100
2, 27840, Note_on_c, 0, 75, 0
2, 27840, Note_on_c, 0, 76, 100
2, 28320, Note_on_c, 0, 76, 0
2, 28320, Note_on_c, 0, 85, 100
2, 28800, Note_on_c, 0, 85, 0
2, 28800, Note_on_c, 0, 83, 100
2, 28920, Note_on_c, 0, 83, 0
2, 28920, Note_on_c, 0, 82, 100
2, 29280, Note_on_c, 0, 82, 0
2, 29280, Note_on_c, 0, 80, 100
2, 29400, Note_on_c, 0, 80, 0
2, 29400, Note_on_c, 0, 78, 100
2, 29640, Note_on_c, 0, 78, 0
2, 29640, Note_on_c, 0, 75, 100
2, 29760, Note_on_c, 0, 75, 0
2, 29760, Note_on_c, 0, 76, 100
2, 30240, Note_on_c, 0, 76, 0
2, 30240, Note_on_c, 0, 76, 100
2, 30720, Note_on_c, 0, 76, 0
2, 30720, Note_on_c, 0, 75, 100
2, 31080, Note_on_c, 0, 75, 0
2, 31080, Note_on_c, 0, 78, 100
2, 31200, Note_on_c, 0, 78, 0
2, 31200, Note_on_c, 0, 70, 100
2, 31680, Note_on_c, 0, 70, 0
2, 31680, Note_on_c, 0, 66, 100
2, 31840, Note_on_c, 0, 66, 0
2, 31840, Note_on_c, 0, 70, 100
2, 32000, Note_on_c, 0, 70, 0
2, 32000, Note_on_c, 0, 73, 100
2, 32160, Note_on_c, 0, 73, 0
2, 32160, Note_on_c, 0, 76, 100
2, 32640, Note_on_c, 0, 76, 0
2, 32640, Note_on_c, 0, 75, 100
2, 32800, Note_on_c, 0, 75, 0
2, 32800, Note_on_c, 0, 76, 100
2, 32960, Note_on_c, 0, 76, 0
2, 32960, Note_on_c, 0, 73, 100
2, 33120, Note_on_c, 0, 73, 0
2, 33120, Note_on_c, 0, 71, 100
2, 33840, Note_on_c, 0, 71, 0
2, 33840, Note_on_c, 0, 71, 100
2, 34080, Note_on_c, 0, 71, 0
2, 34080, Note_on_c, 0, 83, 100
2, 34560, Note_on_c, 0, 83, 0
2, 34560, Note_on_c, 0, 80, 100
2, 35280, Note_on_c, 0, 80, 0
2, 35280, Note_on_c, 0, 81, 100
2, 35520, Note_on_c, 0, 81, 0
2, 35520, Pitch_bend_c, 0, 16383
2, 35520, Note_on_c, 0, 78, 100
2, 35600, Pitch_bend_c, 0, 8192
2, 35680, Pitch_bend_c, 0, 16383
2, 35720, Pitch_bend_c, 0, 8192
2, 35760, Pitch_bend_c, 0, 16383
2, 35800, Pitch_bend_c, 0, 8192
2, 36000, Note_on_c, 0, 78, 0
2, 36000, Note_on_c, 0, 80, 100
2, 36480, Note_on_c, 0, 80, 0
2, 36480, Note_on_c, 0, 76, 100
2, 36960, Note_on_c, 0, 76, 0
2, 36960, Note_on_c, 0, 80, 100
2, 37440, Note_on_c, 0, 80, 0
2, 37440, Note_on_c, 0, 78, 100
2, 38160, Note_on_c, 0, 78, 0
2, 38160, Note_on_c, 0, 80, 100
2, 38400, Note_on_c, 0, 80, 0
2, 38400, Note_on_c, 0, 81, 100
2, 38880, Note_on_c, 0, 81, 0
2, 38880, Note_on_c, 0, 81, 100
2, 39120, Note_on_c, 0, 81, 0
2, 39120, Note_on_c, 0, 78, 100
2, 39360, Note_on_c, 0, 78, 0
2, 39360, Pitch_bend_c, 0, 12288
2, 39360, Note_on_c, 0, 75, 100
2, 39440, Pitch_bend_c, 0, 8192
2, 39520, Pitch_bend_c, 0, 12288
2, 39560, Pitch_bend_c, 0, 8192
2, 39600, Pitch_bend_c, 0, 12288
2, 39640, Pitch_bend_c, 0, 8192
2, 39840, Note_on_c, 0, 75, 0
2, 39840, Note_on_c, 0, 76, 100
2, 40320, Note_on_c, 0, 76, 0
2, 40320, Note_on_c, 0, 73, 100
2, 41040, Note_on_c, 0, 73, 0
2, 41040, Note_on_c, 0, 75, 100
2, 41280, Note_on_c, 0, 75, 0
2, 41280, Note_on_c, 0, 76, 100
2, 41760, Note_on_c, 0, 76, 0
2, 41760, Note_on_c, 0, 69, 100
2, 42480, Note_on_c, 0, 69, 0
2, 42480, Note_on_c, 0, 68, 100
2, 42720, Note_on_c, 0, 68, 0
2, 42720, Note_on_c, 0, 69, 100
2, 43200, Note_on_c, 0, 69, 0
2, 43200, Note_on_c, 0, 69, 100
2, 43680, Note_on_c, 0, 69, 0
2, 43680, Note_on_c, 0, 68, 100
2, 44040, Note_on_c, 0, 68, 0
2, 44040, Note_on_c, 0, 69, 100
2, 44160, Note_on_c, 0, 69, 0
2, 44160, Note_on_c, 0, 66, 100
2, 44640, Note_on_c, 0, 66, 0
2, 44640, Note_on_c, 0, 69, 100
2, 44880, Note_on_c, 0, 69, 0
2, 44880, Note_on_c, 0, 68, 100
2, 45120, Note_on_c, 0, 68, 0
2, 45120, Note_on_c, 0, 66, 100
2, 45360, Note_on_c, 0, 66, 0
2, 45360, Note_on_c, 0, 64, 100
2, 45600, Note_on_c, 0, 64, 0
2, 45600, Note_on_c, 0, 80, 100
2, 46080, Note_on_c, 0, 80, 0
2, 46080, Note_on_c, 0, 73, 100
2, 46800, Note_on_c, 0, 73, 0
2, 46800, Note_on_c, 0, 75, 100
2, 47040, Note_on_c, 0, 75, 0
2, 47040, Note_on_c, 0, 72, 100
2, 47520, Note_on_c, 0, 72, 0
2, 47520, Note_on_c, 0, 73, 100
2, 48000, Note_on_c, 0, 73, 0
2, 48000, Note_on_c, 0, 80, 100
2, 48480, Note_on_c, 0, 80, 0
2, 48480, Note_on_c, 0, 78, 100
2, 48720, Note_on_c, 0, 78, 0
2, 48720, Note_on_c, 0, 76, 100
2, 48960, Note_on_c, 0, 76, 0
2, 48960, Note_on_c, 0, 75, 100
2, 49440, Note_on_c, 0, 75, 0
2, 49440, Note_on_c, 0, 73, 100
2, 49800, Note_on_c, 0, 73, 0
2, 49800, Note_on_c, 0, 75, 100
2, 49920, Note_on_c, 0, 75, 0
2, 49920, Note_on_c, 0, 71, 100
2, 50400, Note_on_c, 0, 71, 0
2, 50400, Note_on_c, 0, 71, 100
2, 50880, Note_on_c, 0, 71, 0
2, 50880, Note_on_c, 0, 70, 100
2, 51240, Note_on_c, 0, 70, 0
2, 51240, Note_on_c, 0, 73, 100
2, 51360, Note_on_c, 0, 73, 0
2, 51360, Note_on_c, 0, 75, 100
2, 51840, Note_on_c, 0, 75, 0
2, 51840, Note_on_c, 0, 75, 100
2, 52320, Note_on_c, 0, 75, 0
2, 52320, Note_on_c, 0, 76, 100
2, 52680, Note_on_c, 0, 76, 0
2, 52680, Note_on_c, 0, 80, 100
2, 52800, Note_on_c, 0, 80, 0
2, 52800, Note_on_c, 0, 78, 100
2, 53280, Note_on_c, 0, 78, 0
2, 53280, Note_on_c, 0, 78, 100
2, 53760, Note_on_c, 0, 78, 0
2, 53760, Note_on_c, 0, 80, 100
2, 54120, Note_on_c, 0, 80, 0
2, 54120, Note_on_c, 0, 83, 100
2, 54240, Note_on_c, 0, 83, 0
2, 54240, Note_on_c, 0, 82, 100
2, 54720, Note_on_c, 0, 82, 0
2, 54720, Note_on_c, 0, 83, 100
2, 55200, Note_on_c, 0, 83, 0
2, 55200, Note_on_c, 0, 82, 100
2, 55440, Note_on_c, 0, 82, 0
2, 55440, Note_on_c, 0, 80, 100
2, 55680, Note_on_c, 0, 80, 0
2, 55680, Note_on_c, 0, 82, 100
2, 55800, Note_on_c, 0, 82, 0
2, 55800, Note_on_c, 0, 83, 100
2, 55920, Note_on_c, 0, 83, 0
2, 55920, Note_on_c, 0, 85, 100
2, 56160, Note_on_c, 0, 85, 0
2, 56160, Note_on_c, 0, 82, 100
2, 56640, Note_on_c, 0, 82, 0
2, 56640, Note_on_c, 0, 80, 100
2, 56880, Note_on_c, 0, 80, 0
2, 56880, Note_on_c, 0, 78, 100
2, 57120, Note_on_c, 0, 78, 0
2, 57120, Note_on_c, 0, 85, 100
2, 57600, Note_on_c, 0, 85, 0
2, 57600, Note_on_c, 0, 76, 100
2, 58320, Note_on_c, 0, 76, 0
2, 58320, Note_on_c, 0, 78, 100
2, 58560, Note_on_c, 0, 78, 0
2, 58560, Note_on_c, 0, 75, 100
2, 59040, Note_on_c, 0, 75, 0
2, 59040, Note_on_c, 0, 76, 100
2, 59280, Note_on_c, 0, 76, 0
2, 59280, Note_on_c, 0, 75, 100
2, 59520, Note_on_c, 0, 75, 0
2, 59520, Note_on_c, 0, 76, 100
2, 60000, Note_on_c, 0, 76, 0
2, 60000, Note_on_c, 0, 85, 100
2, 60480, Note_on_c, 0, 85, 0
2, 60480, Note_on_c, 0, 83, 100
2, 60600, Note_on_c, 0, 83, 0
2, 60600, Note_on_c, 0, 82, 100
2, 60960, Note_on_c, 0, 82, 0
2, 60960, Note_on_c, 0, 80, 100
2, 61080, Note_on_c, 0, 80, 0
2, 61080, Note_on_c, 0, 78, 100
2, 61320, Note_on_c, 0, 78, 0
2, 61320, Note_on_c, 0, 75, 100
2, 61440, Note_on_c, 0, 75, 0
2, 61440, Note_on_c, 0, 76, 100
2, 61920, Note_on_c, 0, 76, 0
2, 61920, Note_on_c, 0, 76, 100
2, 62400, Note_on_c, 0, 76, 0
2, 62400, Note_on_c, 0, 75, 100
2, 62760, Note_on_c, 0, 75, 0
2, 62760, Note_on_c, 0, 78, 100
2, 62880, Note_on_c, 0, 78, 0
2, 62880, Note_on_c, 0, 70, 100
2, 63360, Note_on_c, 0, 70, 0
2, 63360, Note_on_c, 0, 66, 100
2, 63520, Note_on_c, 0, 66, 0
2, 63520, Note_on_c, 0, 70, 100
2, 63680, Note_on_c, 0, 70, 0
2, 63680, Note_on_c, 0, 73, 100
2, 63840, Note_on_c, 0, 73, 0
2, 63840, Note_on_c, 0, 76, 100
2, 64320, Note_on_c, 0, 76, 0
2, 64320, Note_on_c, 0, 75, 100
2, 64480, Note_on_c, 0, 75, 0
2, 64480, Note_on_c, 0, 76, 100
2, 64640, Note_on_c, 0, 76, 0
2, 64640, Note_on_c, 0, 73, 100
2, 64800, Note_on_c, 0, 73, 0
2, 64800, Note_on_c, 0, 71, 100
2, 65520, Note_on_c, 0, 71, 0
2, 65520, Note_on_c, 0, 78, 100
2, 65760, Note_on_c, 0, 78, 0
2, 65760, Note_on_c, 0, 80, 100
2, 66240, Note_on_c, 0, 80, 0
2, 66240, Note_on_c, 0, 81, 100
2, 66960, Note_on_c, 0, 81, 0
2, 66960, Note_on_c, 0, 83, 100
2, 67200, Note_on_c, 0, 83, 0
2, 67200, Note_on_c, 0, 81, 100
2, 67680, Note_on_c, 0, 81, 0
2, 67680, Pitch_bend_c, 0, 12288
2, 67680, Note_on_c, 0, 80, 100
2, 67740, Pitch_bend_c, 0, 8192
2, 67800, Pitch_bend_c, 0, 12288
2, 67860, Pitch_bend_c, 0, 8192
2, 68160, Note_on_c, 0, 80, 0
2, 68160, Note_on_c, 0, 78, 100
2, 68400, Note_on_c, 0, 78, 0
2, 68400, Note_on_c, 0, 76, 100
2, 68640, Note_on_c, 0, 76, 0
2, 68640, Note_on_c, 0, 81, 100
2, 69120, Note_on_c, 0, 81, 0
2, 69120, Note_on_c, 0, 78, 100
2, 69840, Note_on_c, 0, 78, 0
2, 69840, Note_on_c, 0, 78, 100
2, 70080, Note_on_c, 0, 78, 0
2, 70080, Note_on_c, 0, 81, 100
2, 70320, Note_on_c, 0, 81, 0
2, 70320, Note_on_c, 0, 80, 100
2, 70560, Note_on_c, 0, 80, 0
2, 70560, Note_on_c, 0, 78, 100
2, 70800, Note_on_c, 0, 78, 0
2, 70800, Note_on_c, 0, 77, 100
2, 71040, Note_on_c, 0, 77, 0
2, 71040, Note_on_c, 0, 75, 100
2, 71280, Note_on_c, 0, 75, 0
2, 71280, Note_on_c, 0, 73, 100
2, 71520, Note_on_c, 0, 73, 0
2, 71520, Note_on_c, 0, 83, 100
2, 72000, Note_on_c, 0, 83, 0
2, 72000, Note_on_c, 0, 83, 100
2, 72720, Note_on_c, 0, 83, 0
2, 72720, Note_on_c, 0, 81, 100
2, 72960, Note_on_c, 0, 81, 0
2, 72960, Pitch_bend_c, 0, 12288
2, 72960, Note_on_c, 0, 80, 100
2, 73000, Pitch_bend_c, 0, 8192
2, 73040, Pitch_bend_c, 0, 12288
2, 73080, Note_on_c, 0, 80, 0
2, 73080, Pitch_bend_c, 0, 8192
2, 73080, Note_on_c, 0, 78, 100
2, 73200, Note_on_c, 0, 78, 0
2, 73200, Note_on_c, 0, 80, 100
2, 73440, Note_on_c, 0, 80, 0
2, 73440, Note_on_c, 0, 81, 100
2, 73920, Note_on_c, 0, 81, 0
2, 73920, Note_on_c, 0, 78, 100
2, 74400, Note_on_c, 0, 78, 0
2, 74400, Note_on_c, 0, 80, 100
2, 74640, Note_on_c, 0, 80, 0
2, 74640, Note_on_c, 0, 81, 100
2, 74880, Note_on_c, 0, 81, 0
2, 74880, Note_on_c, 0, 78, 100
2, 75360, Note_on_c, 0, 78, 0
2, 75360, Pitch_bend_c, 0, 12288
2, 75360, Note_on_c, 0, 77, 100
2, 75420, Pitch_bend_c, 0, 8192
2, 75480, Pitch_bend_c, 0, 12288
2, 75540, Pitch_bend_c, 0, 8192
2, 75840, Note_on_c, 0, 77, 0
2, 75840, Note_on_c, 0, 78, 100
2, 76320, Note_on_c, 0, 78, 0
2, 76320, Note_on_c, 0, 78, 100
2, 77040, Note_on_c, 0, 78, 0
2, 77040, Note_on_c, 0, 80, 100
2, 77280, Note_on_c, 0, 80, 0
2, 77280, Note_on_c, 0, 81, 100
2, 77760, Note_on_c, 0, 81, 0
2, 77760, Pitch_bend_c, 0, 12288
2, 77760, Note_on_c, 0, 75, 100
2, 77840, Pitch_bend_c, 0, 8192
2, 77920, Pitch_bend_c, 0, 12288
2, 77980, Pitch_bend_c, 0, 8192
2, 78040, Pitch_bend_c, 0, 12288
2, 78100, Pitch_bend_c, 0, 8192
2, 78480, Note_on_c, 0, 75, 0
2, 78480, Note_on_c, 0, 73, 100
2, 78720, Note_on_c, 0, 73, 0
2, 78720, Note_on_c, 0, 71, 100
2, 79200, Note_on_c, 0, 71, 0
2, 79200, Note_on_c, 0, 76, 100
2, 79920, Note_on_c, 0, 76, 0
2, 79920, Note_on_c, 0, 78, 100
2, 80160, Note_on_c, 0, 78, 0
2, 80160, Note_on_c, 0, 80, 100
2, 80640, Note_on_c, 0, 80, 0
2, 80640, Note_on_c, 0, 80, 100
2, 81120, Note_on_c, 0, 80, 0
2, 81120, Note_on_c, 0, 78, 100
2, 81480, Note_on_c, 0, 78, 0
2, 81480, Note_on_c, 0, 80, 100
2, 81600, Note_on_c, 0, 80, 0
2, 81600, Note_on_c, 0, 81, 100
2, 82080, Note_on_c, 0, 81, 0
2, 82080, Note_on_c, 0, 81, 100
2, 82560, Note_on_c, 0, 81, 0
2, 82560, Note_on_c, 0, 80, 100
2, 82920, Note_on_c, 0, 80, 0
2, 82920, Note_on_c, 0, 78, 100
2, 83040, Note_on_c, 0, 78, 0
2, 83040, Note_on_c, 0, 76, 100
2, 83520, Note_on_c, 0, 76, 0
2, 83520, Note_on_c, 0, 75, 100
2, 84240, Note_on_c, 0, 75, 0
2, 84240, Note_on_c, 0, 76, 100
2, 84480, Note_on_c, 0, 76, 0
2, 84480, Note_on_c, 0, 73, 100
2, 84960, Note_on_c, 0, 73, 0
2, 84960, Note_on_c, 0, 80, 100
2, 85680, Note_on_c, 0, 80, 0
2, 85680, Note_on_c, 0, 75, 100
2, 85920, Note_on_c, 0, 75, 0
2, 85920, Note_on_c, 0, 83, 100
2, 86400, Note_on_c, 0, 83, 0
2, 86400, Note_on_c, 0, 83, 100
2, 86880, Note_on_c, 0, 83, 0
2, 86880, Note_on_c, 0, 82, 100
2, 87240, Note_on_c, 0, 82, 0
2, 87240, Note_on_c, 0, 85, 100
2, 87360, Note_on_c, 0, 85, 0
2, 87360, Note_on_c, 0, 79, 100
2, 87840, Note_on_c, 0, 79, 0
2, 87840, Note_on_c, 0, 76, 100
2, 88320, Note_on_c, 0, 76, 0
2, 88320, Note_on_c, 0, 75, 100
2, 88680, Note_on_c, 0, 75, 0
2, 88680, Note_on_c, 0, 85, 100
2, 88800, Note_on_c, 0, 85, 0
2, 88800, Note_on_c, 0, 83, 100
2, 89280, Note_on_c, 0, 83, 0
2, 89280, Note_on_c, 0, 83, 100
2, 89520, Note_on_c, 0, 83, 0
2, 89520, Note_on_c, 0, 82, 100
2, 89760, Note_on_c, 0, 82, 0
2, 89760, Note_on_c, 0, 83, 100
2, 90000, Note_on_c, 0, 83, 0
2, 90000, Note_on_c, 0, 82, 100
2, 90240, Note_on_c, 0, 82, 0
2, 90240, Note_on_c, 0, 80, 100
2, 90480, Note_on_c, 0, 80, 0
2, 90480, Note_on_c, 0, 82, 100
2, 90600, Note_on_c, 0, 82, 0
2, 90600, Note_on_c, 0, 79, 100
2, 90720, Note_on_c, 0, 79, 0
2, 90720, Note_on_c, 0, 80, 100
2, 91440, Note_on_c, 0, 80, 0
2, 91440, Note_on_c, 0, 80, 100
2, 91560, Note_on_c, 0, 80, 0
2, 91560, Note_on_c, 0, 81, 100
2, 91680, Note_on_c, 0, 81, 0
2, 91680, Pitch_bend_c, 0, 16383
2, 91680, Note_on_c, 0, 81, 100
2, 91720, Pitch_bend_c, 0, 8192
2, 91760, Pitch_bend_c, 0, 16383
2, 91800, Pitch_bend_c, 0, 8192
2, 91840, Pitch_bend_c, 0, 16383
2, 91880, Pitch_bend_c, 0, 8192
2, 91920, Pitch_bend_c, 0, 8192
2, 91960, Pitch_bend_c, 0, 8192
2, 92040, Note_on_c, 0, 81, 0
2, 92040, Note_on_c, 0, 80, 100
2, 92100, Note_on_c, 0, 80, 0
2, 92100, Note_on_c, 0, 81, 100
2, 92160, Note_on_c, 0, 81, 0
2, 92160, Note_on_c, 0, 83, 100
2, 92880, Note_on_c, 0, 83, 0
2, 92880, Note_on_c, 0, 81, 100
2, 93120, Note_on_c, 0, 81, 0
2, 93120, Note_on_c, 0, 80, 100
2, 93600, Note_on_c, 0, 80, 0
2, 93600, Note_on_c, 0, 81, 100
2, 94080, Note_on_c, 0, 81, 0
2, 94080, Note_on_c, 0, 80, 100
2, 94320, Note_on_c, 0, 80, 0
2, 94320, Note_on_c, 0, 78, 100
2, 94560, Note_on_c, 0, 78, 0
2, 94560, Note_on_c, 0, 81, 100
2, 95040, Note_on_c, 0, 81, 0
2, 96000, Note_on_c, 0, 71, 100
2, 96480, Note_on_c, 0, 71, 0
2, 100800, Note_on_c, 0, 59, 100
2, 101760, Note_on_c, 0, 59, 0
2, 102240, Note_on_c, 0, 64, 100
2, 102960, Note_on_c, 0, 64, 0
2, 102960, Note_on_c, 0, 78, 100
2, 103200, Note_on_c, 0, 78, 0
2, 103200, Note_on_c, 0, 80, 100
2, 103680, Note_on_c, 0, 80, 0
2, 103680, Note_on_c, 0, 81, 100
2, 104400, Note_on_c, 0, 81, 0
2, 104400, Note_on_c, 0, 83, 100
2, 104640, Note_on_c, 0, 83, 0
2, 104640, Note_on_c, 0, 81, 100
2, 105120, Note_on_c, 0, 81, 0
2, 105120, Pitch_bend_c, 0, 12288
2, 105120, Note_on_c, 0, 80, 100
2, 105180, Pitch_bend_c, 0, 8192
2, 105240, Pitch_bend_c, 0, 12288
2, 105300, Pitch_bend_c, 0, 8192
2, 105600, Note_on_c, 0, 80, 0
2, 105600, Note_on_c, 0, 78, 100
2, 105840, Note_on_c, 0, 78, 0
2, 105840, Note_on_c, 0, 76, 100
2, 106080, Note_on_c, 0, 76, 0
2, 106080, Note_on_c, 0, 81, 100
2, 106560, Note_on_c, 0, 81, 0
2, 106560, Note_on_c, 0, 78, 100
2, 107280, Note_on_c, 0, 78, 0
2, 107280, Note_on_c, 0, 78, 100
2, 107520, Note_on_c, 0, 78, 0
2, 107520, Note_on_c, 0, 81, 100
2, 107760, Note_on_c, 0, 81, 0
2, 107760, Note_on_c, 0, 80, 100
2, 108000, Note_on_c, 0, 80, 0
2, 108000, Note_on_c, 0, 78, 100
2, 108240, Note_on_c, 0, 78, 0
2, 108240, Note_on_c, 0, 77, 100
2, 108480, Note_on_c, 0, 77, 0
2, 108480, Note_on_c, 0, 75, 100
2, 108720, Note_on_c, 0, 75, 0
2, 108720, Note_on_c, 0, 73, 100
2, 108960, Note_on_c, 0, 73, 0
2, 108960, Note_on_c, 0, 83, 100
2, 109440, Note_on_c, 0, 83, 0
2, 109440, Note_on_c, 0, 83, 100
2, 110160, Note_on_c, 0, 83, 0
2, 110160, Note_on_c, 0, 81, 100
2, 110400, Note_on_c, 0, 81, 0
2, 110400, Pitch_bend_c, 0, 12288
2, 110400, Note_on_c, 0, 80, 100
2, 110440, Pitch_bend_c, 0, 8192
2, 110480, Pitch_bend_c, 0, 12288
2, 110520, Note_on_c, 0, 80, 0
2, 110520, Pitch_bend_c, 0, 8192
2, 110520, Note_on_c, 0, 78, 100
2, 110640, Note_on_c, 0, 78, 0
2, 110640, Note_on_c, 0, 80, 100
2, 110880, Note_on_c, 0, 80, 0
2, 110880, Note_on_c, 0, 81, 100
2, 111360, Note_on_c, 0, 81, 0
2, 111360, Note_on_c, 0, 78, 100
2, 111840, Note_on_c, 0, 78, 0
2, 111840, Note_on_c, 0, 80, 100
2, 112080, Note_on_c, 0, 80, 0
2, 112080, Note_on_c, 0, 81, 100
2, 112320, Note_on_c, 0, 81, 0
2, 112320, Note_on_c, 0, 78, 100
2, 112800, Note_on_c, 0, 78, 0
2, 112800, Pitch_bend_c, 0, 12288
2, 112800, Note_on_c, 0, 77, 100
2, 112860, Pitch_bend_c, 0, 8192
2, 112920, Pitch_bend_c, 0, 12288
2, 112980, Pitch_bend_c, 0, 8192
2, 113280, Note_on_c, 0, 77, 0
2, 113280, Note_on_c, 0, 78, 100
2, 113760, Note_on_c, 0, 78, 0
2, 113760, Note_on_c, 0, 78, 100
2, 114480, Note_on_c, 0, 78, 0
2, 114480, Note_on_c, 0, 80, 100
2, 114720, Note_on_c, 0, 80, 0
2, 114720, Note_on_c, 0, 81, 100
2, 115200, Note_on_c, 0, 81, 0
2, 115200, Pitch_bend_c, 0, 12288
2, 115200, Note_on_c, 0, 75, 100
2, 115280, Pitch_bend_c, 0, 8192
2, 115360, Pitch_bend_c, 0, 12288
2, 115420, Pitch_bend_c, 0, 8192
2, 115480, Pitch_bend_c, 0, 12288
2, 115540, Pitch_bend_c, 0, 8192
2, 115920, Note_on_c, 0, 75, 0
2, 115920, Note_on_c, 0, 73, 100
2, 116160, Note_on_c, 0, 73, 0
2, 116160, Note_on_c, 0, 71, 100
2, 116640, Note_on_c, 0, 71, 0
2, 116640, Note_on_c, 0, 76, 100
2, 117360, Note_on_c, 0, 76, 0
2, 117360, Note_on_c, 0, 78, 100
2, 117600, Note_on_c, 0, 78, 0
2, 117600, Note_on_c, 0, 80, 100
2, 118080, Note_on_c, 0, 80, 0
2, 118080, Note_on_c, 0, 80, 100
2, 118560, Note_on_c, 0, 80, 0
2, 118560, Note_on_c, 0, 78, 100
2, 118920, Note_on_c, 0, 78, 0
2, 118920, Note_on_c, 0, 80, 100
2, 119040, Note_on_c, 0, 80, 0
2, 119040, Note_on_c, 0, 81, 100
2, 119520, Note_on_c, 0, 81, 0
2, 119520, Note_on_c, 0, 81, 100
2, 120000, Note_on_c, 0, 81, 0
2, 120000, Note_on_c, 0, 80, 100
2, 120360, Note_on_c, 0, 80, 0
2, 120360, Note_on_c, 0, 78, 100
2, 120480, Note_on_c, 0, 78, 0
2, 120480, Note_on_c, 0, 76, 100
2, 120960, Note_on_c, 0, 76, 0
2, 120960, Note_on_c, 0, 75, 100
2, 121680, Note_on_c, 0, 75, 0
2, 121680, Note_on_c, 0, 76, 100
2, 121920, Note_on_c, 0, 76, 0
2, 121920, Note_on_c, 0, 73, 100
2, 122400, Note_on_c, 0, 73, 0
2, 122400, Note_on_c, 0, 80, 100
2, 123120, Note_on_c, 0, 80, 0
2, 123120, Note_on_c, 0, 75, 100
2, 123360, Note_on_c, 0, 75, 0
2, 123360, Note_on_c, 0, 83, 100
2, 123840, Note_on_c, 0, 83, 0
2, 123840, Note_on_c, 0, 83, 100
2, 124320, Note_on_c, 0, 83, 0
2, 124320, Note_on_c, 0, 82, 100
2, 124680, Note_on_c, 0, 82, 0
2, 124680, Note_on_c, 0, 85, 100
2, 124800, Note_on_c, 0, 85, 0
2, 124800, Note_on_c, 0, 79, 100
2, 125280, Note_on_c, 0, 79, 0
2, 125280, Note_on_c, 0, 76, 100
2, 125760, Note_on_c, 0, 76, 0
2, 125760, Note_on_c, 0, 75, 100
2, 126120, Note_on_c, 0, 75, 0
2, 126120, Note_on_c, 0, 85, 100
2, 126240, Note_on_c, 0, 85, 0
2, 126240, Note_on_c, 0, 83, 100
2, 126720, Note_on_c, 0, 83, 0
2, 126720, Note_on_c, 0, 83, 100
2, 126960, Note_on_c, 0, 83, 0
2, 126960, Note_on_c, 0, 82, 100
2, 127200, Note_on_c, 0, 82, 0
2, 127200, Note_on_c, 0, 83, 100
2, 127440, Note_on_c, 0, 83, 0
2, 127440, Note_on_c, 0, 82, 100
2, 127680, Note_on_c, 0, 82, 0
2, 127680, Note_on_c, 0, 80, 100
2, 127920, Note_on_c, 0, 80, 0
2, 127920, Note_on_c, 0, 82, 100
2, 128040, Note_on_c, 0, 82, 0
2, 128040, Note_on_c, 0, 79, 100
2, 128160, Note_on_c, 0, 79, 0
2, 128160, Note_on_c, 0, 80, 100
2, 128880, Note_on_c, 0, 80, 0
2, 128880, Note_on_c, 0, 80, 100
2, 129000, Note_on_c, 0, 80, 0
2, 129000, Note_on_c, 0, 81, 100
2, 129120, Note_on_c, 0, 81, 0
2, 129120, Pitch_bend_c, 0, 16383
2, 129120, Note_on_c, 0, 81, 100
2, 129160, Pitch_bend_c, 0, 8192
2, 129200, Pitch_bend_c, 0, 16383
2, 129240, Pitch_bend_c, 0, 8192
2, 129280, Pitch_bend_c, 0, 16383
2, 129320, Pitch_bend_c, 0, 8192
2, 129360, Pitch_bend_c, 0, 8192
2, 129400, Pitch_bend_c, 0, 8192
2, 129480, Note_on_c, 0, 81, 0
2, 129480, Note_on_c, 0, 80, 100
2, 129540, Note_on_c, 0, 80, 0
2, 129540, Note_on_c, 0, 81, 100
2, 129600, Note_on_c, 0, 81, 0
2, 129600, Note_on_c, 0, 83, 100
2, 130320, Note_on_c, 0, 83, 0
2, 130320, Note_on_c, 0, 81, 100
2, 130560, Note_on_c, 0, 81, 0
2, 130560, Note_on_c, 0, 80, 100
2, 131040, Note_on_c, 0, 80, 0
2, 131040, Note_on_c, 0, 81, 100
2, 131520, Note_on_c, 0, 81, 0
2, 131520, Note_on_c, 0, 80, 100
2, 131760, Note_on_c, 0, 80, 0
2, 131760, Note_on_c, 0, 78, 100
2, 132000, Note_on_c, 0, 78, 0
2, 132000, Note_on_c, 0, 81, 100
2, 132480, Note_on_c, 0, 81, 0
2, 133440, Note_on_c, 0, 71, 100
2, 133920, Note_on_c, 0, 71, 0
2, 138240, Note_on_c, 0, 59, 100
2, 139200, Note_on_c, 0, 59, 0
2, 139680, Note_on_c, 0, 64, 100
2, 140400, Note_on_c, 0, 64, 0
2, 140400, End_track
3, 0, Start_track
3, 0, MIDI_port, 0
3, 0, Title_t, "--------------------------------------"
3, 0, Program_c, 1, 40
3, 0, Control_c, 1, 7, 100
3, 0, Control_c, 1, 10, 74
3, 5040, Note_on_c, 1, 64, 90
3, 5280, Note_on_c, 1, 64, 0
3, 5280, Note_on_c, 1, 76, 100
3, 5760, Note_on_c, 1, 76, 0
3, 5760, Note_on_c, 1, 75, 100
3, 6480, Note_on_c, 1, 75, 0
3, 6480, Note_on_c, 1, 76, 100
3, 6720, Note_on_c, 1, 76, 0
3, 6720, Note_on_c, 1, 73, 100
3, 7200, Note_on_c, 1, 73, 0
3, 7200, Note_on_c, 1, 71, 100
3, 7680, Note_on_c, 1, 71, 0
3, 8160, Note_on_c, 1, 68, 100
3, 8640, Note_on_c, 1, 68, 0
3, 8640, Note_on_c, 1, 69, 100
3, 9600, Note_on_c, 1, 69, 0
3, 9600, Note_on_c, 1, 68, 100
3, 10080, Note_on_c, 1, 68, 0
3, 10080, Note_on_c, 1, 66, 100
3, 11040, Note_on_c, 1, 66, 0
3, 11040, Note_on_c, 1, 59, 100
3, 11520, Note_on_c, 1, 59, 0
3, 11520, Note_on_c, 1, 64, 100
3, 12000, Note_on_c, 1, 64, 0
3, 15360, Note_on_c, 1, 66, 100
3, 15840, Note_on_c, 1, 66, 0
3, 15840, Note_on_c, 1, 64, 100
3, 16320, Note_on_c, 1, 64, 0
3, 18240, Note_on_c, 1, 65, 100
3, 18720, Note_on_c, 1, 65, 0
3, 18720, Note_on_c, 1, 66, 100
3, 19200, Note_on_c, 1, 66, 0
3, 19680, Note_on_c, 1, 66, 100
3, 20160, Note_on_c, 1, 66, 0
3, 20160, Note_on_c, 1, 68, 100
3, 21120, Note_on_c, 1, 68, 0
3, 21120, Note_on_c, 1, 70, 100
3, 21600, Note_on_c, 1, 70, 0
3, 21600, Note_on_c, 1, 71, 100
3, 22560, Note_on_c, 1, 71, 0
3, 22560, Note_on_c, 1, 73, 100
3, 23040, Note_on_c, 1, 73, 0
3, 23040, Note_on_c, 1, 75, 100
3, 23520, Note_on_c, 1, 75, 0
3, 23520, Note_on_c, 1, 76, 100
3, 24000, Note_on_c, 1, 76, 0
3, 24000, Note_on_c, 1, 73, 100
3, 24480, Note_on_c, 1, 73, 0
3, 24480, Note_on_c, 1, 78, 100
3, 24960, Note_on_c, 1, 78, 0
3, 26880, Note_on_c, 1, 66, 100
3, 27360, Note_on_c, 1, 66, 0
3, 27360, Note_on_c, 1, 66, 100
3, 27840, Note_on_c, 1, 66, 0
3, 29760, Note_on_c, 1, 66, 100
3, 30240, Note_on_c, 1, 66, 0
3, 30240, Note_on_c, 1, 66, 100
3, 30720, Note_on_c, 1, 66, 0
3, 31200, Note_on_c, 1, 64, 100
3, 31680, Note_on_c, 1, 64, 0
3, 32640, Note_on_c, 1, 66, 100
3, 33120, Note_on_c, 1, 66, 0
3, 33120, Note_on_c, 1, 66, 100
3, 33840, Note_on_c, 1, 66, 0
3, 36720, Note_on_c, 1, 64, 100
3, 36960, Note_on_c, 1, 64, 0
3, 36960, Note_on_c, 1, 76, 100
3, 37440, Note_on_c, 1, 76, 0
3, 37440, Note_on_c, 1, 75, 100
3, 38160, Note_on_c, 1, 75, 0
3, 38160, Note_on_c, 1, 76, 100
3, 38400, Note_on_c, 1, 76, 0
3, 38400, Note_on_c, 1, 73, 100
3, 38880, Note_on_c, 1, 73, 0
3, 38880, Note_on_c, 1, 71, 100
3, 39360, Note_on_c, 1, 71, 0
3, 39840, Note_on_c, 1, 68, 100
3, 40320, Note_on_c, 1, 68, 0
3, 40320, Note_on_c, 1, 69, 100
3, 41280, Note_on_c, 1, 69, 0
3, 41280, Note_on_c, 1, 68, 100
3, 41760, Note_on_c, 1, 68, 0
3, 41760, Note_on_c, 1, 66, 100
3, 42720, Note_on_c, 1, 66, 0
3, 42720, Note_on_c, 1, 59, 100
3, 43200, Note_on_c, 1, 59, 0
3, 43200, Note_on_c, 1, 64, 100
3, 43680, Note_on_c, 1, 64, 0
3, 47040, Note_on_c, 1, 66, 100
3, 47520, Note_on_c, 1, 66, 0
3, 47520, Note_on_c, 1, 64, 100
3, 48000, Note_on_c, 1, 64, 0
3, 49920, Note_on_c, 1, 65, 100
3, 50400, Note_on_c, 1, 65, 0
3, 50400, Note_on_c, 1, 66, 100
3, 50880, Note_on_c, 1, 66, 0
3, 51360, Note_on_c, 1, 66, 100
3, 51840, Note_on_c, 1, 66, 0
3, 51840, Note_on_c, 1, 68, 100
3, 52800, Note_on_c, 1, 68, 0
3, 52800, Note_on_c, 1, 70, 100
3, 53280, Note_on_c, 1, 70, 0
3, 53280, Note_on_c, 1, 71, 100
3, 54240, Note_on_c, 1, 71, 0
3, 54240, Note_on_c, 1, 73, 100
3, 54720, Note_on_c, 1, 73, 0
3, 54720, Note_on_c, 1, 75, 100
3, 55200, Note_on_c, 1, 75, 0
3, 55200, Note_on_c, 1, 76, 100
3, 55680, Note_on_c, 1, 76, 0
3, 55680, Note_on_c, 1, 73, 100
3, 56160, Note_on_c, 1, 73, 0
3, 56160, Note_on_c, 1, 78, 100
3, 56640, Note_on_c, 1, 78, 0
3, 58560, Note_on_c, 1, 66, 100
3, 59040, Note_on_c, 1, 66, 0
3, 59040, Note_on_c, 1, 66, 100
3, 59520, Note_on_c, 1, 66, 0
3, 61440, Note_on_c, 1, 66, 100
3, 61920, Note_on_c, 1, 66, 0
3, 61920, Note_on_c, 1, 66, 100
3, 62400, Note_on_c, 1, 66, 0
3, 62880, Note_on_c, 1, 64, 100
3, 63360, Note_on_c, 1, 64, 0
3, 64320, Note_on_c, 1, 66, 100
3, 64800, Note_on_c, 1, 66, 0
3, 64800, Note_on_c, 1, 66, 100
3, 65520, Note_on_c, 1, 66, 0
3, 66960, Note_on_c, 1, 73, 100
3, 67200, Note_on_c, 1, 73, 0
3, 67200, Note_on_c, 1, 75, 100
3, 67680, Note_on_c, 1, 75, 0
3, 67680, Note_on_c, 1, 76, 100
3, 68400, Note_on_c, 1, 76, 0
3, 68400, Note_on_c, 1, 74, 100
3, 68640, Note_on_c, 1, 74, 0
3, 68640, Note_on_c, 1, 73, 100
3, 69120, Note_on_c, 1, 73, 0
3, 69120, Note_on_c, 1, 74, 100
3, 69600, Note_on_c, 1, 74, 0
3, 69600, Note_on_c, 1, 73, 100
3, 70080, Note_on_c, 1, 73, 0
3, 70080, Note_on_c, 1, 71, 100
3, 70560, Note_on_c, 1, 71, 0
3, 70560, Note_on_c, 1, 73, 100
3, 71040, Note_on_c, 1, 73, 0
3, 72000, Note_on_c, 1, 73, 100
3, 72720, Note_on_c, 1, 73, 0
3, 73440, Note_on_c, 1, 73, 100
3, 73920, Note_on_c, 1, 73, 0
3, 73920, Note_on_c, 1, 74, 100
3, 74400, Note_on_c, 1, 74, 0
3, 74400, Note_on_c, 1, 71, 100
3, 74880, Note_on_c, 1, 71, 0
3, 74880, Note_on_c, 1, 73, 100
3, 75840, Note_on_c, 1, 73, 0
3, 76320, Note_on_c, 1, 69, 100
3, 77040, Note_on_c, 1, 69, 0
3, 79200, Note_on_c, 1, 71, 100
3, 79920, Note_on_c, 1, 71, 0
3, 80160, Note_on_c, 1, 71, 100
3, 80640, Note_on_c, 1, 71, 0
3, 80640, Note_on_c, 1, 73, 100
3, 81120, Note_on_c, 1, 73, 0
3, 81600, Note_on_c, 1, 73, 100
3, 82080, Note_on_c, 1, 73, 0
3, 82080, Note_on_c, 1, 72, 100
3, 83040, Note_on_c, 1, 72, 0
3, 83040, Note_on_c, 1, 73, 100
3, 83520, Note_on_c, 1, 73, 0
3, 84960, Note_on_c, 1, 72, 100
3, 85680, Note_on_c, 1, 72, 0
3, 86400, Note_on_c, 1, 73, 100
3, 87360, Note_on_c, 1, 73, 0
3, 88800, Note_on_c, 1, 75, 100
3, 89280, Note_on_c, 1, 75, 0
3, 89280, Note_on_c, 1, 73, 100
3, 89760, Note_on_c, 1, 73, 0
3, 89760, Note_on_c, 1, 75, 100
3, 90240, Note_on_c, 1, 75, 0
3, 90720, Note_on_c, 1, 71, 100
3, 91440, Note_on_c, 1, 71, 0
3, 93120, Note_on_c, 1, 73, 100
3, 93600, Note_on_c, 1, 73, 0
3, 93600, Note_on_c, 1, 73, 100
3, 94080, Note_on_c, 1, 73, 0
3, 94560, Note_on_c, 1, 73, 100
3, 95040, Note_on_c, 1, 73, 0
3, 95040, Note_on_c, 1, 71, 100
3, 95280, Note_on_c, 1, 71, 0
3, 95280, Note_on_c, 1, 75, 100
3, 95520, Note_on_c, 1, 75, 0
3, 95520, Note_on_c, 1, 78, 100
3, 95760, Note_on_c, 1, 78, 0
3, 95760, Note_on_c, 1, 83, 100
3, 96000, Note_on_c, 1, 83, 0
3, 96000, Note_on_c, 1, 81, 100
3, 96240, Note_on_c, 1, 81, 0
3, 96240, Note_on_c, 1, 80, 100
3, 96480, Note_on_c, 1, 80, 0
3, 96480, Note_on_c, 1, 80, 100
3, 96960, Note_on_c, 1, 80, 0
3, 96960, Note_on_c, 1, 78, 100
3, 97320, Note_on_c, 1, 78, 0
3, 97320, Note_on_c, 1, 71, 100
3, 97440, Note_on_c, 1, 71, 0
3, 97440, Pitch_bend_c, 1, 12288
3, 97440, Note_on_c, 1, 73, 100
3, 97500, Pitch_bend_c, 1, 8192
3, 97560, Pitch_bend_c, 1, 12288
3, 97620, Pitch_bend_c, 1, 8192
3, 97680, Pitch_bend_c, 1, 12288
3, 97740, Pitch_bend_c, 1, 8192
3, 97800, Note_on_c, 1, 73, 0
3, 97800, Note_on_c, 1, 71, 100
3, 97860, Note_on_c, 1, 71, 0
3, 97860, Note_on_c, 1, 73, 100
3, 97920, Note_on_c, 1, 73, 0
3, 97920, Note_on_c, 1, 74, 100
3, 98640, Note_on_c, 1, 74, 0
3, 98640, Note_on_c, 1, 76, 100
3, 98880, Note_on_c, 1, 76, 0
3, 98880, Note_on_c, 1, 74, 100
3, 99360, Note_on_c, 1, 74, 0
3, 99360, Note_on_c, 1, 73, 100
3, 99840, Note_on_c, 1, 73, 0
3, 99840, Note_on_c, 1, 73, 100
3, 100080, Note_on_c, 1, 73, 0
3, 100080, Note_on_c, 1, 75, 100
3, 100560, Note_on_c, 1, 75, 0
3, 100560, Note_on_c, 1, 76, 100
3, 100800, Note_on_c, 1, 76, 0
3, 100800, Note_on_c, 1, 76, 100
3, 101280, Note_on_c, 1, 76, 0
3, 101280, Pitch_bend_c, 1, 12288
3, 101280, Note_on_c, 1, 75, 100
3, 101340, Pitch_bend_c, 1, 8192
3, 101400, Pitch_bend_c, 1, 12288
3, 101460, Pitch_bend_c, 1, 8192
3, 101760, Note_on_c, 1, 75, 0
3, 101760, Note_on_c, 1, 76, 100
3, 102240, Note_on_c, 1, 76, 0
3, 102240, Note_on_c, 1, 76, 100
3, 102960, Note_on_c, 1, 76, 0
3, 104400, Note_on_c, 1, 73, 100
3, 104640, Note_on_c, 1, 73, 0
3, 104640, Note_on_c, 1, 75, 100
3, 105120, Note_on_c, 1, 75, 0
3, 105120, Note_on_c, 1, 76, 100
3, 105840, Note_on_c, 1, 76, 0
3, 105840, Note_on_c, 1, 74, 100
3, 106080, Note_on_c, 1, 74, 0
3, 106080, Note_on_c, 1, 73, 100
3, 106560, Note_on_c, 1, 73, 0
3, 106560, Note_on_c, 1, 74, 100
3, 107040, Note_on_c, 1, 74, 0
3, 107040, Note_on_c, 1, 73, 100
3, 107520, Note_on_c, 1, 73, 0
3, 107520, Note_on_c, 1, 71, 100
3, 108000, Note_on_c, 1, 71, 0
3, 108000, Note_on_c, 1, 73, 100
3, 108480, Note_on_c, 1, 73, 0
3, 109440, Note_on_c, 1, 73, 100
3, 110160, Note_on_c, 1, 73, 0
3, 110880, Note_on_c, 1, 73, 100
3, 111360, Note_on_c, 1, 73, 0
3, 111360, Note_on_c, 1, 74, 100
3, 111840, Note_on_c, 1, 74, 0
3, 111840, Note_on_c, 1, 71, 100
3, 112320, Note_on_c, 1, 71, 0
3, 112320, Note_on_c, 1, 73, 100
3, 113280, Note_on_c, 1, 73, 0
3, 113760, Note_on_c, 1, 69, 100
3, 114480, Note_on_c, 1, 69, 0
3, 116640, Note_on_c, 1, 71, 100
3, 117360, Note_on_c, 1, 71, 0
3, 117600, Note_on_c, 1, 71, 100
3, 118080, Note_on_c, 1, 71, 0
3, 118080, Note_on_c, 1, 73, 100
3, 118560, Note_on_c, 1, 73, 0
3, 119040, Note_on_c, 1, 73, 100
3, 119520, Note_on_c, 1, 73, 0
3, 119520, Note_on_c, 1, 72, 100
3, 120480, Note_on_c, 1, 72, 0
3, 120480, Note_on_c, 1, 73, 100
3, 120960, Note_on_c, 1, 73, 0
3, 122400, Note_on_c, 1, 72, 100
3, 123120, Note_on_c, 1, 72, 0
3, 123840, Note_on_c, 1, 73, 100
3, 124800, Note_on_c, 1, 73, 0
3, 126240, Note_on_c, 1, 75, 100
3, 126720, Note_on_c, 1, 75, 0
3, 126720, Note_on_c, 1, 73, 100
3, 127200, Note_on_c, 1, 73, 0
3, 127200, Note_on_c, 1, 75, 100
3, 127680, Note_on_c, 1, 75, 0
3, 128160, Note_on_c, 1, 71, 100
3, 128880, Note_on_c, 1, 71, 0
3, 130560, Note_on_c, 1, 73, 100
3, 131040, Note_on_c, 1, 73, 0
3, 131040, Note_on_c, 1, 73, 100
3, 131520, Note_on_c, 1, 73, 0
3, 132000, Note_on_c, 1, 73, 100
3, 132480, Note_on_c, 1, 73, 0
3, 132480, Note_on_c, 1, 71, 100
3, 132720, Note_on_c, 1, 71, 0
3, 132720, Note_on_c, 1, 75, 100
3, 132960, Note_on_c, 1, 75, 0
3, 132960, Note_on_c, 1, 78, 100
3, 133200, Note_on_c, 1, 78, 0
3, 133200, Note_on_c, 1, 83, 100
3, 133440, Note_on_c, 1, 83, 0
3, 133440, Note_on_c, 1, 81, 100
3, 133680, Note_on_c, 1, 81, 0
3, 133680, Note_on_c, 1, 80, 100
3, 133920, Note_on_c, 1, 80, 0
3, 133920, Note_on_c, 1, 80, 100
3, 134400, Note_on_c, 1, 80, 0
3, 134400, Note_on_c, 1, 78, 100
3, 134760, Note_on_c, 1, 78, 0
3, 134760, Note_on_c, 1, 71, 100
3, 134880, Note_on_c, 1, 71, 0
3, 134880, Pitch_bend_c, 1, 12288
3, 134880, Note_on_c, 1, 73, 100
3, 134940, Pitch_bend_c, 1, 8192
3, 135000, Pitch_bend_c, 1, 12288
3, 135060, Pitch_bend_c, 1, 8192
3, 135120, Pitch_bend_c, 1, 12288
3, 135180, Pitch_bend_c, 1, 8192
3, 135240, Note_on_c, 1, 73, 0
3, 135240, Note_on_c, 1, 71, 100
3, 135300, Note_on_c, 1, 71, 0
3, 135300, Note_on_c, 1, 73, 100
3, 135360, Note_on_c, 1, 73, 0
3, 135360, Note_on_c, 1, 74, 100
3, 136080, Note_on_c, 1, 74, 0
3, 136080, Note_on_c, 1, 76, 100
3, 136320, Note_on_c, 1, 76, 0
3, 136320, Note_on_c, 1, 74, 100
3, 136800, Note_on_c, 1, 74, 0
3, 136800, Note_on_c, 1, 73, 100
3, 137280, Note_on_c, 1, 73, 0
3, 137280, Note_on_c, 1, 73, 100
3, 137520, Note_on_c, 1, 73, 0
3, 137520, Note_on_c, 1, 75, 100
3, 138000, Note_on_c, 1, 75, 0
3, 138000, Note_on_c, 1, 76, 100
3, 138240, Note_on_c, 1, 76, 0
3, 138240, Note_on_c, 1, 76, 100
3, 138720, Note_on_c, 1, 76, 0
3, 138720, Pitch_bend_c, 1, 12288
3, 138720, Note_on_c, 1, 75, 100
3, 138780, Pitch_bend_c, 1, 8192
3, 138840, Pitch_bend_c, 1, 12288
3, 138900, Pitch_bend_c, 1, 8192
3, 139200, Note_on_c, 1, 75, 0
3, 139200, Note_on_c, 1, 76, 100
3, 139680, Note_on_c, 1, 76, 0
3, 139680, Note_on_c, 1, 76, 100
3, 140400, Note_on_c, 1, 76, 0
3, 140400, End_track
4, 0, Start_track
4, 0, MIDI_port, 0
4, 0, Title_t, "Johann Sebastian Bach  (1685-1750)"
4, 0, Program_c, 2, 40
4, 0, Control_c, 2, 7, 100
4, 0, Control_c, 2, 10, 54
4, 27360, Note_on_c, 2, 58, 100
4, 27840, Note_on_c, 2, 58, 0
4, 29760, Note_on_c, 2, 58, 100
4, 30240, Note_on_c, 2, 58, 0
4, 30240, Note_on_c, 2, 59, 100
4, 30720, Note_on_c, 2, 59, 0
4, 33120, Note_on_c, 2, 59, 100
4, 33840, Note_on_c, 2, 59, 0
4, 59040, Note_on_c, 2, 58, 100
4, 59520, Note_on_c, 2, 58, 0
4, 61440, Note_on_c, 2, 58, 100
4, 61920, Note_on_c, 2, 58, 0
4, 61920, Note_on_c, 2, 59, 100
4, 62400, Note_on_c, 2, 59, 0
4, 64800, Note_on_c, 2, 59, 100
4, 65520, Note_on_c, 2, 59, 0
4, 72000, Note_on_c, 2, 65, 100
4, 72720, Note_on_c, 2, 65, 0
4, 73440, Note_on_c, 2, 66, 100
4, 73920, Note_on_c, 2, 66, 0
4, 76320, Note_on_c, 2, 66, 100
4, 77040, Note_on_c, 2, 66, 0
4, 78720, Note_on_c, 2, 69, 100
4, 79200, Note_on_c, 2, 69, 0
4, 79200, Note_on_c, 2, 68, 100
4, 79920, Note_on_c, 2, 68, 0
4, 80160, Note_on_c, 2, 64, 100
4, 80640, Note_on_c, 2, 64, 0
4, 80640, Note_on_c, 2, 69, 100
4, 81120, Note_on_c, 2, 69, 0
4, 81600, Note_on_c, 2, 66, 100
4, 82080, Note_on_c, 2, 66, 0
4, 83520, Note_on_c, 2, 66, 100
4, 84000, Note_on_c, 2, 66, 0
4, 84000, Note_on_c, 2, 68, 100
4, 84480, Note_on_c, 2, 68, 0
4, 84480, Note_on_c, 2, 69, 100
4, 84960, Note_on_c, 2, 69, 0
4, 84960, Note_on_c, 2, 68, 100
4, 85680, Note_on_c, 2, 68, 0
4, 87840, Note_on_c, 2, 67, 100
4, 88560, Note_on_c, 2, 67, 0
4, 88800, Note_on_c, 2, 68, 100
4, 89280, Note_on_c, 2, 68, 0
4, 90720, Note_on_c, 2, 68, 100
4, 91440, Note_on_c, 2, 68, 0
4, 93120, Note_on_c, 2, 65, 100
4, 93600, Note_on_c, 2, 65, 0
4, 93600, Note_on_c, 2, 66, 100
4, 94080, Note_on_c, 2, 66, 0
4, 94560, Note_on_c, 2, 64, 100
4, 95040, Note_on_c, 2, 64, 0
4, 95040, Note_on_c, 2, 63, 100
4, 95280, Note_on_c, 2, 63, 0
4, 96000, Note_on_c, 2, 64, 100
4, 96480, Note_on_c, 2, 64, 0
4, 96480, Note_on_c, 2, 71, 100
4, 97200, Note_on_c, 2, 71, 0
4, 98640, Note_on_c, 2, 66, 100
4, 98880, Note_on_c, 2, 66, 0
4, 98880, Note_on_c, 2, 68, 100
4, 99360, Note_on_c, 2, 68, 0
4, 99360, Note_on_c, 2, 69, 100
4, 99840, Note_on_c, 2, 69, 0
4, 99840, Note_on_c, 2, 66, 100
4, 100320, Note_on_c, 2, 66, 0
4, 100320, Note_on_c, 2, 64, 100
4, 100800, Note_on_c, 2, 64, 0
4, 100800, Note_on_c, 2, 66, 100
4, 101760, Note_on_c, 2, 66, 0
4, 109440, Note_on_c, 2, 65, 100
4, 110160, Note_on_c, 2, 65, 0
4, 110880, Note_on_c, 2, 66, 100
4, 111360, Note_on_c, 2, 66, 0
4, 113760, Note_on_c, 2, 66, 100
4, 114480, Note_on_c, 2, 66, 0
4, 116160, Note_on_c, 2, 69, 100
4, 116640, Note_on_c, 2, 69, 0
4, 116640, Note_on_c, 2, 68, 100
4, 117360, Note_on_c, 2, 68, 0
4, 117600, Note_on_c, 2, 64, 100
4, 118080, Note_on_c, 2, 64, 0
4, 118080, Note_on_c, 2, 69, 100
4, 118560, Note_on_c, 2, 69, 0
4, 119040, Note_on_c, 2, 66, 100
4, 119520, Note_on_c, 2, 66, 0
4, 120960, Note_on_c, 2, 66, 100
4, 121440, Note_on_c, 2, 66, 0
4, 121440, Note_on_c, 2, 68, 100
4, 121920, Note_on_c, 2, 68, 0
4, 121920, Note_on_c, 2, 69, 100
4, 122400, Note_on_c, 2, 69, 0
4, 122400, Note_on_c, 2, 68, 100
4, 123120, Note_on_c, 2, 68, 0
4, 125280, Note_on_c, 2, 67, 100
4, 126000, Note_on_c, 2, 67, 0
4, 126240, Note_on_c, 2, 68, 100
4, 126720, Note_on_c, 2, 68, 0
4, 128160, Note_on_c, 2, 68, 100
4, 128880, Note_on_c, 2, 68, 0
4, 130560, Note_on_c, 2, 65, 100
4, 131040, Note_on_c, 2, 65, 0
4, 131040, Note_on_c, 2, 66, 100
4, 131520, Note_on_c, 2, 66, 0
4, 132000, Note_on_c, 2, 64, 100
4, 132480, Note_on_c, 2, 64, 0
4, 132480, Note_on_c, 2, 63, 100
4, 132720, Note_on_c, 2, 63, 0
4, 133440, Note_on_c, 2, 64, 100
4, 133920, Note_on_c, 2, 64, 0
4, 133920, Note_on_c, 2, 71, 100
4, 134640, Note_on_c, 2, 71, 0
4, 136080, Note_on_c, 2, 66, 100
4, 136320, Note_on_c, 2, 66, 0
4, 136320, Note_on_c, 2, 68, 100
4, 136800, Note_on_c, 2, 68, 0
4, 136800, Note_on_c, 2, 69, 100
4, 137280, Note_on_c, 2, 69, 0
4, 137280, Note_on_c, 2, 66, 100
4, 137760, Note_on_c, 2, 66, 0
4, 137760, Note_on_c, 2, 64, 100
4, 138240, Note_on_c, 2, 64, 0
4, 138240, Note_on_c, 2, 66, 100
4, 139200, Note_on_c, 2, 66, 0
4, 139200, End_track
5, 0, Start_track
5, 0, MIDI_port, 0
5, 0, Title_t, "Six Sonatas and Partitas for Solo Violin"
5, 0, End_track
6, 0, Start_track
6, 0, MIDI_port, 0
6, 0, Title_t, "--------------------------------------"
6, 0, End_track
7, 0, Start_track
7, 0, MIDI_port, 0
7, 0, Title_t, "Partita No. 3 in E major - BWV 1006"
7, 0, End_track
8, 0, Start_track
8, 0, MIDI_port, 0
8, 0, Title_t, "2nd Movement: Loure"
8, 0, End_track
9, 0, Start_track
9, 0, MIDI_port, 0
9, 0, Title_t, "--------------------------------------"
9, 0, End_track
10, 0, Start_track
10, 0, MIDI_port, 0
10, 0, Title_t, "Sequenced with Cakewalk Pro Audio by"
10, 0, End_track
11, 0, Start_track
11, 0, MIDI_port, 0
11, 0, Title_t, "David J. Grossman - dave@unpronounceable.com"
11, 0, End_track
12, 0, Start_track
12, 0, MIDI_port, 0
12, 0, Title_t, "This and other Bach MIDI files can be found at:"
12, 0, End_track
13, 0, Start_track
13, 0, MIDI_port, 0
13, 0, Title_t, "Dave's J.S. Bach Page"
13, 0, End_track
14, 0, Start_track
14, 0, MIDI_port, 0
14, 0, Title_t, "http://www.unpronounceable.com/bach"
14, 0, End_track
15, 0, Start_track
15, 0, MIDI_port, 0
15, 0, Title_t, "--------------------------------------"
15, 0, End_track
16, 0, Start_track
16, 0, MIDI_port, 0
16, 0, Title_t, "Original Filename: vp3-2lou.mid"
16, 0, End_track
17, 0, Start_track
17, 0, MIDI_port, 0
17, 0, Title_t, "Last Modified: February 22, 1997"
17, 0, End_track
0, 0, End_of_file
