0, 0, Header, 1, 17, 480
1, 0, Start_track
1, 0, Title_t, "untitled"
1, 0, SMPTE_offset, 96, 0, 3, 0, 0
1, 0, Time_signature, 4, 2, 24, 8
1, 0, Key_signature, 4, "major"
1, 0, Tempo, 400000
1, 960, Marker_t, "Round"
1, 16320, Marker_t, "Round"
1, 31680, Marker_t, "A"
1, 47040, Marker_t, "Round"
1, 62400, Marker_t, "B"
1, 93120, Marker_t, "Round"
1, 108480, Marker_t, "C"
1, 139200, Marker_t, "Round*"
1, 154560, Marker_t, "D"
1, 192000, Marker_t, "Round"
1, 207360, Tempo, 800000
1, 207360, End_track
2, 0, Start_track
2, 0, MIDI_port, 0
2, 0, Title_t, "Solo Violin"
2, 0, Program_c, 0, 40
2, 0, Control_c, 0, 7, 100
2, 0, Control_c, 0, 10, 69
2, 960, Note_on_c, 0, 71, 100
2, 1440, Note_on_c, 0, 71, 0
2, 1440, Note_on_c, 0, 80, 100
2, 1920, Note_on_c, 0, 80, 0
2, 1920, Pitch_bend_c, 0, 12288
2, 1920, Note_on_c, 0, 80, 100
2, 2000, Pitch_bend_c, 0, 8192
2, 2080, Pitch_bend_c, 0, 12288
2, 2160, Pitch_bend_c, 0, 8192
2, 2400, Note_on_c, 0, 80, 0
2, 2400, Note_on_c, 0, 78, 100
2, 2640, Note_on_c, 0, 78, 0
2, 2640, Note_on_c, 0, 76, 100
2, 2880, Note_on_c, 0, 76, 0
2, 2880, Note_on_c, 0, 78, 100
2, 3360, Note_on_c, 0, 78, 0
2, 3360, Note_on_c, 0, 81, 100
2, 3840, Note_on_c, 0, 81, 0
2, 3840, Note_on_c, 0, 81, 100
2, 4800, Note_on_c, 0, 81, 0
2, 4800, Note_on_c, 0, 83, 100
2, 5040, Note_on_c, 0, 83, 0
2, 5040, Note_on_c, 0, 80, 100
2, 5280, Note_on_c, 0, 80, 0
2, 5280, Note_on_c, 0, 81, 100
2, 5520, Note_on_c, 0, 81, 0
2, 5520, Note_on_c, 0, 78, 100
2, 5760, Note_on_c, 0, 78, 0
2, 5760, Note_on_c, 0, 71, 100
2, 6000, Note_on_c, 0, 71, 0
2, 6000, Note_on_c, 0, 78, 100
2, 6120, Note_on_c, 0, 78, 0
2, 6120, Note_on_c, 0, 80, 100
2, 6240, Note_on_c, 0, 80, 0
2, 6240, Note_on_c, 0, 81, 100
2, 6480, Note_on_c, 0, 81, 0
2, 6480, Note_on_c, 0, 78, 100
2, 6720, Note_on_c, 0, 78, 0
2, 6720, Note_on_c, 0, 80, 100
2, 6960, Note_on_c, 0, 80, 0
2, 6960, Note_on_c, 0, 76, 100
2, 7200, Note_on_c, 0, 76, 0
2, 7200, Note_on_c, 0, 78, 100
2, 7440, Note_on_c, 0, 78, 0
2, 7440, Note_on_c, 0, 75, 100
2, 7680, Note_on_c, 0, 75, 0
2, 7680, Note_on_c, 0, 76, 100
2, 7920, Note_on_c, 0, 76, 0
2, 7920, Note_on_c, 0, 71, 100
2, 8160, Note_on_c, 0, 71, 0
2, 8160, Note_on_c, 0, 68, 100
2, 8400, Note_on_c, 0, 68, 0
2, 8400, Note_on_c, 0, 64, 100
2, 8640, Note_on_c, 0, 64, 0
2, 8640, Note_on_c, 0, 68, 100
2, 8880, Note_on_c, 0, 68, 0
2, 8880, Note_on_c, 0, 71, 100
2, 9120, Note_on_c, 0, 71, 0
2, 9120, Note_on_c, 0, 76, 100
2, 9360, Note_on_c, 0, 76, 0
2, 9360, Note_on_c, 0, 80, 100
2, 9600, Note_on_c, 0, 80, 0
2, 9600, Note_on_c, 0, 69, 100
2, 9840, Note_on_c, 0, 69, 0
2, 9840, Note_on_c, 0, 80, 100
2, 10080, Note_on_c, 0, 80, 0
2, 10080, Note_on_c, 0, 78, 100
2, 10320, Note_on_c, 0, 78, 0
2, 10320, Note_on_c, 0, 76, 100
2, 10560, Note_on_c, 0, 76, 0
2, 10560, Note_on_c, 0, 78, 100
2, 10800, Note_on_c, 0, 78, 0
2, 10800, Note_on_c, 0, 80, 100
2, 11040, Note_on_c, 0, 80, 0
2, 11040, Note_on_c, 0, 81, 100
2, 11280, Note_on_c, 0, 81, 0
2, 11280, Note_on_c, 0, 78, 100
2, 11520, Note_on_c, 0, 78, 0
2, 11520, Note_on_c, 0, 81, 100
2, 12480, Note_on_c, 0, 81, 0
2, 12480, Note_on_c, 0, 71, 100
2, 12960, Note_on_c, 0, 71, 0
2, 12960, Note_on_c, 0, 80, 100
2, 13440, Note_on_c, 0, 80, 0
2, 13440, Note_on_c, 0, 73, 100
2, 13920, Note_on_c, 0, 73, 0
2, 13920, Note_on_c, 0, 78, 100
2, 14400, Note_on_c, 0, 78, 0
2, 14400, Note_on_c, 0, 66, 100
2, 14880, Note_on_c, 0, 66, 0
2, 14880, Note_on_c, 0, 75, 100
2, 15360, Note_on_c, 0, 75, 0
2, 15360, Note_on_c, 0, 76, 100
2, 16320, Note_on_c, 0, 76, 0
2, 16320, Note_on_c, 0, 71, 100
2, 16800, Note_on_c, 0, 71, 0
2, 16800, Note_on_c, 0, 80, 100
2, 17280, Note_on_c, 0, 80, 0
2, 17280, Pitch_bend_c, 0, 12288
2, 17280, Note_on_c, 0, 80, 100
2, 17360, Pitch_bend_c, 0, 8192
2, 17440, Pitch_bend_c, 0, 12288
2, 17520, Pitch_bend_c, 0, 8192
2, 17760, Note_on_c, 0, 80, 0
2, 17760, Note_on_c, 0, 78, 100
2, 18000, Note_on_c, 0, 78, 0
2, 18000, Note_on_c, 0, 76, 100
2, 18240, Note_on_c, 0, 76, 0
2, 18240, Note_on_c, 0, 78, 100
2, 18720, Note_on_c, 0, 78, 0
2, 18720, Note_on_c, 0, 81, 100
2, 19200, Note_on_c, 0, 81, 0
2, 19200, Note_on_c, 0, 81, 100
2, 20160, Note_on_c, 0, 81, 0
2, 20160, Note_on_c, 0, 83, 100
2, 20400, Note_on_c, 0, 83, 0
2, 20400, Note_on_c, 0, 80, 100
2, 20640, Note_on_c, 0, 80, 0
2, 20640, Note_on_c, 0, 81, 100
2, 20880, Note_on_c, 0, 81, 0
2, 20880, Note_on_c, 0, 78, 100
2, 21120, Note_on_c, 0, 78, 0
2, 21120, Note_on_c, 0, 71, 100
2, 21360, Note_on_c, 0, 71, 0
2, 21360, Note_on_c, 0, 78, 100
2, 21480, Note_on_c, 0, 78, 0
2, 21480, Note_on_c, 0, 80, 100
2, 21600, Note_on_c, 0, 80, 0
2, 21600, Note_on_c, 0, 81, 100
2, 21840, Note_on_c, 0, 81, 0
2, 21840, Note_on_c, 0, 78, 100
2, 22080, Note_on_c, 0, 78, 0
2, 22080, Note_on_c, 0, 80, 100
2, 22320, Note_on_c, 0, 80, 0
2, 22320, Note_on_c, 0, 76, 100
2, 22560, Note_on_c, 0, 76, 0
2, 22560, Note_on_c, 0, 78, 100
2, 22800, Note_on_c, 0, 78, 0
2, 22800, Note_on_c, 0, 75, 100
2, 23040, Note_on_c, 0, 75, 0
2, 23040, Note_on_c, 0, 76, 100
2, 23280, Note_on_c, 0, 76, 0
2, 23280, Note_on_c, 0, 71, 100
2, 23520, Note_on_c, 0, 71, 0
2, 23520, Note_on_c, 0, 68, 100
2, 23760, Note_on_c, 0, 68, 0
2, 23760, Note_on_c, 0, 64, 100
2, 24000, Note_on_c, 0, 64, 0
2, 24000, Note_on_c, 0, 68, 100
2, 24240, Note_on_c, 0, 68, 0
2, 24240, Note_on_c, 0, 71, 100
2, 24480, Note_on_c, 0, 71, 0
2, 24480, Note_on_c, 0, 76, 100
2, 24720, Note_on_c, 0, 76, 0
2, 24720, Note_on_c, 0, 80, 100
2, 24960, Note_on_c, 0, 80, 0
2, 24960, Note_on_c, 0, 69, 100
2, 25200, Note_on_c, 0, 69, 0
2, 25200, Note_on_c, 0, 80, 100
2, 25440, Note_on_c, 0, 80, 0
2, 25440, Note_on_c, 0, 78, 100
2, 25680, Note_on_c, 0, 78, 0
2, 25680, Note_on_c, 0, 76, 100
2, 25920, Note_on_c, 0, 76, 0
2, 25920, Note_on_c, 0, 78, 100
2, 26160, Note_on_c, 0, 78, 0
2, 26160, Note_on_c, 0, 80, 100
2, 26400, Note_on_c, 0, 80, 0
2, 26400, Note_on_c, 0, 81, 100
2, 26640, Note_on_c, 0, 81, 0
2, 26640, Note_on_c, 0, 78, 100
2, 26880, Note_on_c, 0, 78, 0
2, 26880, Note_on_c, 0, 81, 100
2, 27840, Note_on_c, 0, 81, 0
2, 27840, Note_on_c, 0, 71, 100
2, 28320, Note_on_c, 0, 71, 0
2, 28320, Note_on_c, 0, 80, 100
2, 28800, Note_on_c, 0, 80, 0
2, 28800, Note_on_c, 0, 73, 100
2, 29280, Note_on_c, 0, 73, 0
2, 29280, Note_on_c, 0, 78, 100
2, 29760, Note_on_c, 0, 78, 0
2, 29760, Note_on_c, 0, 66, 100
2, 30240, Note_on_c, 0, 66, 0
2, 30240, Note_on_c, 0, 75, 100
2, 30720, Note_on_c, 0, 75, 0
2, 30720, Note_on_c, 0, 76, 100
2, 31680, Note_on_c, 0, 76, 0
2, 31680, Note_on_c, 0, 71, 100
2, 32160, Note_on_c, 0, 71, 0
2, 32160, Note_on_c, 0, 80, 100
2, 32640, Note_on_c, 0, 80, 0
2, 32640, Note_on_c, 0, 73, 100
2, 33120, Note_on_c, 0, 73, 0
2, 33120, Note_on_c, 0, 73, 100
2, 33360, Note_on_c, 0, 73, 0
2, 33360, Note_on_c, 0, 72, 100
2, 33600, Note_on_c, 0, 72, 0
2, 33600, Note_on_c, 0, 73, 100
2, 33840, Note_on_c, 0, 73, 0
2, 33840, Note_on_c, 0, 76, 100
2, 34080, Note_on_c, 0, 76, 0
2, 34080, Note_on_c, 0, 75, 100
2, 34320, Note_on_c, 0, 75, 0
2, 34320, Note_on_c, 0, 72, 100
2, 34560, Note_on_c, 0, 72, 0
2, 34560, Note_on_c, 0, 72, 100
2, 35040, Note_on_c, 0, 72, 0
2, 35040, Note_on_c, 0, 73, 100
2, 35520, Note_on_c, 0, 73, 0
2, 35520, Note_on_c, 0, 73, 100
2, 35760, Note_on_c, 0, 73, 0
2, 35760, Note_on_c, 0, 75, 100
2, 36000, Note_on_c, 0, 75, 0
2, 36000, Note_on_c, 0, 76, 100
2, 36240, Note_on_c, 0, 76, 0
2, 36240, Note_on_c, 0, 80, 100
2, 36480, Note_on_c, 0, 80, 0
2, 36480, Note_on_c, 0, 73, 100
2, 36720, Note_on_c, 0, 73, 0
2, 36720, Note_on_c, 0, 75, 100
2, 36960, Note_on_c, 0, 75, 0
2, 36960, Note_on_c, 0, 76, 100
2, 37200, Note_on_c, 0, 76, 0
2, 37200, Note_on_c, 0, 81, 100
2, 37440, Note_on_c, 0, 81, 0
2, 37440, Note_on_c, 0, 75, 100
2, 37680, Note_on_c, 0, 75, 0
2, 37680, Note_on_c, 0, 78, 100
2, 37920, Note_on_c, 0, 78, 0
2, 37920, Note_on_c, 0, 76, 100
2, 38160, Note_on_c, 0, 76, 0
2, 38160, Note_on_c, 0, 73, 100
2, 38400, Note_on_c, 0, 73, 0
2, 38400, Note_on_c, 0, 72, 100
2, 38640, Note_on_c, 0, 72, 0
2, 38640, Note_on_c, 0, 75, 100
2, 38880, Note_on_c, 0, 75, 0
2, 38880, Note_on_c, 0, 68, 100
2, 39120, Note_on_c, 0, 68, 0
2, 39120, Note_on_c, 0, 66, 100
2, 39360, Note_on_c, 0, 66, 0
2, 39360, Note_on_c, 0, 64, 100
2, 39600, Note_on_c, 0, 64, 0
2, 39600, Note_on_c, 0, 68, 100
2, 39840, Note_on_c, 0, 68, 0
2, 39840, Note_on_c, 0, 73, 100
2, 40080, Note_on_c, 0, 73, 0
2, 40080, Note_on_c, 0, 76, 100
2, 40320, Note_on_c, 0, 76, 0
2, 40320, Note_on_c, 0, 80, 100
2, 40560, Note_on_c, 0, 80, 0
2, 40560, Note_on_c, 0, 81, 100
2, 40800, Note_on_c, 0, 81, 0
2, 40800, Note_on_c, 0, 83, 100
2, 41040, Note_on_c, 0, 83, 0
2, 41040, Note_on_c, 0, 73, 100
2, 41280, Note_on_c, 0, 73, 0
2, 41280, Note_on_c, 0, 65, 100
2, 41520, Note_on_c, 0, 65, 0
2, 41520, Note_on_c, 0, 73, 100
2, 41760, Note_on_c, 0, 73, 0
2, 41760, Note_on_c, 0, 80, 100
2, 42000, Note_on_c, 0, 80, 0
2, 42000, Note_on_c, 0, 83, 100
2, 42240, Note_on_c, 0, 83, 0
2, 42240, Note_on_c, 0, 83, 100
2, 42480, Note_on_c, 0, 83, 0
2, 42480, Note_on_c, 0, 80, 100
2, 42720, Note_on_c, 0, 80, 0
2, 42720, Note_on_c, 0, 81, 100
2, 42960, Note_on_c, 0, 81, 0
2, 42960, Note_on_c, 0, 78, 100
2, 43200, Note_on_c, 0, 78, 0
2, 43200, Note_on_c, 0, 69, 100
2, 43440, Note_on_c, 0, 69, 0
2, 43440, Note_on_c, 0, 72, 100
2, 43680, Note_on_c, 0, 72, 0
2, 43680, Note_on_c, 0, 75, 100
2, 43920, Note_on_c, 0, 75, 0
2, 43920, Note_on_c, 0, 78, 100
2, 44160, Note_on_c, 0, 78, 0
2, 44160, Note_on_c, 0, 78, 100
2, 44400, Note_on_c, 0, 78, 0
2, 44400, Note_on_c, 0, 76, 100
2, 44640, Note_on_c, 0, 76, 0
2, 44640, Note_on_c, 0, 78, 100
2, 44880, Note_on_c, 0, 78, 0
2, 44880, Note_on_c, 0, 75, 100
2, 45120, Note_on_c, 0, 75, 0
2, 45120, Note_on_c, 0, 68, 100
2, 45600, Note_on_c, 0, 68, 0
2, 45600, Note_on_c, 0, 72, 100
2, 46080, Note_on_c, 0, 72, 0
2, 46080, Note_on_c, 0, 61, 100
2, 47040, Note_on_c, 0, 61, 0
2, 47040, Note_on_c, 0, 71, 100
2, 47520, Note_on_c, 0, 71, 0
2, 47520, Note_on_c, 0, 80, 100
2, 48000, Note_on_c, 0, 80, 0
2, 48000, Pitch_bend_c, 0, 12288
2, 48000, Note_on_c, 0, 80, 100
2, 48080, Pitch_bend_c, 0, 8192
2, 48160, Pitch_bend_c, 0, 12288
2, 48240, Pitch_bend_c, 0, 8192
2, 48480, Note_on_c, 0, 80, 0
2, 48480, Note_on_c, 0, 78, 100
2, 48720, Note_on_c, 0, 78, 0
2, 48720, Note_on_c, 0, 76, 100
2, 48960, Note_on_c, 0, 76, 0
2, 48960, Note_on_c, 0, 78, 100
2, 49440, Note_on_c, 0, 78, 0
2, 49440, Note_on_c, 0, 81, 100
2, 49920, Note_on_c, 0, 81, 0
2, 49920, Note_on_c, 0, 81, 100
2, 50880, Note_on_c, 0, 81, 0
2, 50880, Note_on_c, 0, 83, 100
2, 51120, Note_on_c, 0, 83, 0
2, 51120, Note_on_c, 0, 80, 100
2, 51360, Note_on_c, 0, 80, 0
2, 51360, Note_on_c, 0, 81, 100
2, 51600, Note_on_c, 0, 81, 0
2, 51600, Note_on_c, 0, 78, 100
2, 51840, Note_on_c, 0, 78, 0
2, 51840, Note_on_c, 0, 71, 100
2, 52080, Note_on_c, 0, 71, 0
2, 52080, Note_on_c, 0, 78, 100
2, 52200, Note_on_c, 0, 78, 0
2, 52200, Note_on_c, 0, 80, 100
2, 52320, Note_on_c, 0, 80, 0
2, 52320, Note_on_c, 0, 81, 100
2, 52560, Note_on_c, 0, 81, 0
2, 52560, Note_on_c, 0, 78, 100
2, 52800, Note_on_c, 0, 78, 0
2, 52800, Note_on_c, 0, 80, 100
2, 53040, Note_on_c, 0, 80, 0
2, 53040, Note_on_c, 0, 76, 100
2, 53280, Note_on_c, 0, 76, 0
2, 53280, Note_on_c, 0, 78, 100
2, 53520, Note_on_c, 0, 78, 0
2, 53520, Note_on_c, 0, 75, 100
2, 53760, Note_on_c, 0, 75, 0
2, 53760, Note_on_c, 0, 76, 100
2, 54000, Note_on_c, 0, 76, 0
2, 54000, Note_on_c, 0, 71, 100
2, 54240, Note_on_c, 0, 71, 0
2, 54240, Note_on_c, 0, 68, 100
2, 54480, Note_on_c, 0, 68, 0
2, 54480, Note_on_c, 0, 64, 100
2, 54720, Note_on_c, 0, 64, 0
2, 54720, Note_on_c, 0, 68, 100
2, 54960, Note_on_c, 0, 68, 0
2, 54960, Note_on_c, 0, 71, 100
2, 55200, Note_on_c, 0, 71, 0
2, 55200, Note_on_c, 0, 76, 100
2, 55440, Note_on_c, 0, 76, 0
2, 55440, Note_on_c, 0, 80, 100
2, 55680, Note_on_c, 0, 80, 0
2, 55680, Note_on_c, 0, 69, 100
2, 55920, Note_on_c, 0, 69, 0
2, 55920, Note_on_c, 0, 80, 100
2, 56160, Note_on_c, 0, 80, 0
2, 56160, Note_on_c, 0, 78, 100
2, 56400, Note_on_c, 0, 78, 0
2, 56400, Note_on_c, 0, 76, 100
2, 56640, Note_on_c, 0, 76, 0
2, 56640, Note_on_c, 0, 78, 100
2, 56880, Note_on_c, 0, 78, 0
2, 56880, Note_on_c, 0, 80, 100
2, 57120, Note_on_c, 0, 80, 0
2, 57120, Note_on_c, 0, 81, 100
2, 57360, Note_on_c, 0, 81, 0
2, 57360, Note_on_c, 0, 78, 100
2, 57600, Note_on_c, 0, 78, 0
2, 57600, Note_on_c, 0, 81, 100
2, 58560, Note_on_c, 0, 81, 0
2, 58560, Note_on_c, 0, 71, 100
2, 59040, Note_on_c, 0, 71, 0
2, 59040, Note_on_c, 0, 80, 100
2, 59520, Note_on_c, 0, 80, 0
2, 59520, Note_on_c, 0, 73, 100
2, 60000, Note_on_c, 0, 73, 0
2, 60000, Note_on_c, 0, 78, 100
2, 60480, Note_on_c, 0, 78, 0
2, 60480, Note_on_c, 0, 66, 100
2, 60960, Note_on_c, 0, 66, 0
2, 60960, Note_on_c, 0, 75, 100
2, 61440, Note_on_c, 0, 75, 0
2, 61440, Note_on_c, 0, 76, 100
2, 62400, Note_on_c, 0, 76, 0
2, 62400, Note_on_c, 0, 64, 100
2, 62640, Note_on_c, 0, 64, 0
2, 62640, Note_on_c, 0, 66, 100
2, 62880, Note_on_c, 0, 66, 0
2, 62880, Note_on_c, 0, 68, 100
2, 63120, Note_on_c, 0, 68, 0
2, 63120, Note_on_c, 0, 69, 100
2, 63360, Note_on_c, 0, 69, 0
2, 63360, Note_on_c, 0, 71, 100
2, 63840, Note_on_c, 0, 71, 0
2, 63840, Note_on_c, 0, 71, 100
2, 64320, Note_on_c, 0, 71, 0
2, 64320, Note_on_c, 0, 71, 100
2, 64800, Note_on_c, 0, 71, 0
2, 64800, Note_on_c, 0, 76, 100
2, 65280, Note_on_c, 0, 76, 0
2, 65280, Note_on_c, 0, 71, 100
2, 66240, Note_on_c, 0, 71, 0
2, 66240, Note_on_c, 0, 73, 100
2, 66480, Note_on_c, 0, 73, 0
2, 66480, Note_on_c, 0, 69, 100
2, 66720, Note_on_c, 0, 69, 0
2, 66720, Note_on_c, 0, 75, 100
2, 66960, Note_on_c, 0, 75, 0
2, 66960, Note_on_c, 0, 76, 100
2, 67200, Note_on_c, 0, 76, 0
2, 67200, Note_on_c, 0, 71, 100
2, 67440, Note_on_c, 0, 71, 0
2, 67440, Note_on_c, 0, 68, 100
2, 67680, Note_on_c, 0, 68, 0
2, 67680, Note_on_c, 0, 75, 100
2, 67920, Note_on_c, 0, 75, 0
2, 67920, Note_on_c, 0, 76, 100
2, 68160, Note_on_c, 0, 76, 0
2, 68160, Note_on_c, 0, 69, 100
2, 68400, Note_on_c, 0, 69, 0
2, 68400, Note_on_c, 0, 66, 100
2, 68640, Note_on_c, 0, 66, 0
2, 68640, Note_on_c, 0, 75, 100
2, 68880, Note_on_c, 0, 75, 0
2, 68880, Note_on_c, 0, 76, 100
2, 69120, Note_on_c, 0, 76, 0
2, 69120, Note_on_c, 0, 68, 100
2, 69360, Note_on_c, 0, 68, 0
2, 69360, Note_on_c, 0, 66, 100
2, 69600, Note_on_c, 0, 66, 0
2, 69600, Note_on_c, 0, 64, 100
2, 69840, Note_on_c, 0, 64, 0
2, 69840, Note_on_c, 0, 66, 100
2, 70080, Note_on_c, 0, 66, 0
2, 70080, Note_on_c, 0, 68, 100
2, 70320, Note_on_c, 0, 68, 0
2, 70320, Note_on_c, 0, 71, 100
2, 70560, Note_on_c, 0, 71, 0
2, 70560, Note_on_c, 0, 76, 100
2, 70800, Note_on_c, 0, 76, 0
2, 70800, Note_on_c, 0, 80, 100
2, 71040, Note_on_c, 0, 80, 0
2, 71040, Note_on_c, 0, 78, 100
2, 71520, Note_on_c, 0, 78, 0
2, 71520, Note_on_c, 0, 78, 100
2, 72000, Note_on_c, 0, 78, 0
2, 72000, Note_on_c, 0, 78, 100
2, 72480, Note_on_c, 0, 78, 0
2, 72480, Note_on_c, 0, 83, 100
2, 72960, Note_on_c, 0, 83, 0
2, 72960, Note_on_c, 0, 78, 100
2, 73920, Note_on_c, 0, 78, 0
2, 73920, Note_on_c, 0, 80, 100
2, 74160, Note_on_c, 0, 80, 0
2, 74160, Note_on_c, 0, 76, 100
2, 74400, Note_on_c, 0, 76, 0
2, 74400, Note_on_c, 0, 82, 100
2, 74640, Note_on_c, 0, 82, 0
2, 74640, Note_on_c, 0, 83, 100
2, 74880, Note_on_c, 0, 83, 0
2, 74880, Note_on_c, 0, 78, 100
2, 75120, Note_on_c, 0, 78, 0
2, 75120, Note_on_c, 0, 75, 100
2, 75360, Note_on_c, 0, 75, 0
2, 75360, Note_on_c, 0, 82, 100
2, 75600, Note_on_c, 0, 82, 0
2, 75600, Note_on_c, 0, 83, 100
2, 75840, Note_on_c, 0, 83, 0
2, 75840, Note_on_c, 0, 76, 100
2, 76080, Note_on_c, 0, 76, 0
2, 76080, Note_on_c, 0, 73, 100
2, 76320, Note_on_c, 0, 73, 0
2, 76320, Note_on_c, 0, 82, 100
2, 76560, Note_on_c, 0, 82, 0
2, 76560, Note_on_c, 0, 83, 100
2, 76800, Note_on_c, 0, 83, 0
2, 76800, Note_on_c, 0, 76, 100
2, 77040, Note_on_c, 0, 76, 0
2, 77040, Note_on_c, 0, 75, 100
2, 77280, Note_on_c, 0, 75, 0
2, 77280, Note_on_c, 0, 73, 100
2, 77520, Note_on_c, 0, 73, 0
2, 77520, Note_on_c, 0, 71, 100
2, 77760, Note_on_c, 0, 71, 0
2, 77760, Note_on_c, 0, 73, 100
2, 78000, Note_on_c, 0, 73, 0
2, 78000, Note_on_c, 0, 75, 100
2, 78240, Note_on_c, 0, 75, 0
2, 78240, Note_on_c, 0, 76, 100
2, 78480, Note_on_c, 0, 76, 0
2, 78480, Note_on_c, 0, 75, 100
2, 78720, Note_on_c, 0, 75, 0
2, 78720, Note_on_c, 0, 73, 100
2, 78960, Note_on_c, 0, 73, 0
2, 78960, Note_on_c, 0, 71, 100
2, 79200, Note_on_c, 0, 71, 0
2, 79200, Note_on_c, 0, 70, 100
2, 79440, Note_on_c, 0, 70, 0
2, 79440, Note_on_c, 0, 71, 100
2, 79680, Note_on_c, 0, 71, 0
2, 79680, Note_on_c, 0, 73, 100
2, 79920, Note_on_c, 0, 73, 0
2, 79920, Note_on_c, 0, 75, 100
2, 80160, Note_on_c, 0, 75, 0
2, 80160, Note_on_c, 0, 76, 100
2, 80400, Note_on_c, 0, 76, 0
2, 80400, Note_on_c, 0, 73, 100
2, 80640, Note_on_c, 0, 73, 0
2, 80640, Note_on_c, 0, 66, 100
2, 81600, Note_on_c, 0, 66, 0
2, 81600, Note_on_c, 0, 82, 100
2, 81840, Note_on_c, 0, 82, 0
2, 81840, Note_on_c, 0, 76, 100
2, 82080, Note_on_c, 0, 76, 0
2, 82080, Note_on_c, 0, 85, 100
2, 82320, Note_on_c, 0, 85, 0
2, 82320, Note_on_c, 0, 76, 100
2, 82560, Note_on_c, 0, 76, 0
2, 82560, Note_on_c, 0, 66, 100
2, 82800, Note_on_c, 0, 66, 0
2, 82800, Note_on_c, 0, 76, 100
2, 83040, Note_on_c, 0, 76, 0
2, 83040, Note_on_c, 0, 82, 100
2, 83280, Note_on_c, 0, 82, 0
2, 83280, Note_on_c, 0, 76, 100
2, 83520, Note_on_c, 0, 76, 0
2, 83520, Note_on_c, 0, 82, 100
2, 83760, Note_on_c, 0, 82, 0
2, 83760, Note_on_c, 0, 76, 100
2, 84000, Note_on_c, 0, 76, 0
2, 84000, Note_on_c, 0, 85, 100
2, 84240, Note_on_c, 0, 85, 0
2, 84240, Note_on_c, 0, 76, 100
2, 84480, Note_on_c, 0, 76, 0
2, 84480, Note_on_c, 0, 76, 100
2, 85440, Note_on_c, 0, 76, 0
2, 85440, Note_on_c, 0, 66, 100
2, 85920, Note_on_c, 0, 66, 0
2, 85920, Note_on_c, 0, 75, 100
2, 86400, Note_on_c, 0, 75, 0
2, 86400, Pitch_bend_c, 0, 12288
2, 86400, Note_on_c, 0, 75, 100
2, 86480, Pitch_bend_c, 0, 8192
2, 86560, Pitch_bend_c, 0, 12288
2, 86640, Pitch_bend_c, 0, 8192
2, 86880, Note_on_c, 0, 75, 0
2, 86880, Note_on_c, 0, 73, 100
2, 87120, Note_on_c, 0, 73, 0
2, 87120, Note_on_c, 0, 71, 100
2, 87360, Note_on_c, 0, 71, 0
2, 87360, Note_on_c, 0, 73, 100
2, 87840, Note_on_c, 0, 73, 0
2, 87840, Note_on_c, 0, 76, 100
2, 88320, Note_on_c, 0, 76, 0
2, 88320, Note_on_c, 0, 76, 100
2, 88800, Note_on_c, 0, 76, 0
2, 88800, Note_on_c, 0, 75, 100
2, 89040, Note_on_c, 0, 75, 0
2, 89040, Note_on_c, 0, 73, 100
2, 89280, Note_on_c, 0, 73, 0
2, 89280, Note_on_c, 0, 75, 100
2, 89520, Note_on_c, 0, 75, 0
2, 89520, Note_on_c, 0, 76, 100
2, 89760, Note_on_c, 0, 76, 0
2, 89760, Note_on_c, 0, 78, 100
2, 90000, Note_on_c, 0, 78, 0
2, 90000, Note_on_c, 0, 75, 100
2, 90240, Note_on_c, 0, 75, 0
2, 90240, Note_on_c, 0, 71, 100
2, 90480, Note_on_c, 0, 71, 0
2, 90480, Note_on_c, 0, 68, 100
2, 90720, Note_on_c, 0, 68, 0
2, 90720, Note_on_c, 0, 64, 100
2, 90960, Note_on_c, 0, 64, 0
2, 90960, Note_on_c, 0, 76, 100
2, 91200, Note_on_c, 0, 76, 0
2, 91200, Pitch_bend_c, 0, 16383
2, 91200, Note_on_c, 0, 73, 100
2, 91320, Pitch_bend_c, 0, 8192
2, 91440, Pitch_bend_c, 0, 16383
2, 91560, Pitch_bend_c, 0, 8192
2, 91920, Note_on_c, 0, 73, 0
2, 91920, Note_on_c, 0, 71, 100
2, 92160, Note_on_c, 0, 71, 0
2, 92160, Note_on_c, 0, 71, 100
2, 93120, Note_on_c, 0, 71, 0
2, 93120, Note_on_c, 0, 71, 100
2, 93600, Note_on_c, 0, 71, 0
2, 93600, Note_on_c, 0, 80, 100
2, 94080, Note_on_c, 0, 80, 0
2, 94080, Pitch_bend_c, 0, 12288
2, 94080, Note_on_c, 0, 80, 100
2, 94160, Pitch_bend_c, 0, 8192
2, 94240, Pitch_bend_c, 0, 12288
2, 94320, Pitch_bend_c, 0, 8192
2, 94560, Note_on_c, 0, 80, 0
2, 94560, Note_on_c, 0, 78, 100
2, 94800, Note_on_c, 0, 78, 0
2, 94800, Note_on_c, 0, 76, 100
2, 95040, Note_on_c, 0, 76, 0
2, 95040, Note_on_c, 0, 78, 100
2, 95520, Note_on_c, 0, 78, 0
2, 95520, Note_on_c, 0, 81, 100
2, 96000, Note_on_c, 0, 81, 0
2, 96000, Note_on_c, 0, 81, 100
2, 96960, Note_on_c, 0, 81, 0
2, 96960, Note_on_c, 0, 83, 100
2, 97200, Note_on_c, 0, 83, 0
2, 97200, Note_on_c, 0, 80, 100
2, 97440, Note_on_c, 0, 80, 0
2, 97440, Note_on_c, 0, 81, 100
2, 97680, Note_on_c, 0, 81, 0
2, 97680, Note_on_c, 0, 78, 100
2, 97920, Note_on_c, 0, 78, 0
2, 97920, Note_on_c, 0, 71, 100
2, 98160, Note_on_c, 0, 71, 0
2, 98160, Note_on_c, 0, 78, 100
2, 98280, Note_on_c, 0, 78, 0
2, 98280, Note_on_c, 0, 80, 100
2, 98400, Note_on_c, 0, 80, 0
2, 98400, Note_on_c, 0, 81, 100
2, 98640, Note_on_c, 0, 81, 0
2, 98640, Note_on_c, 0, 78, 100
2, 98880, Note_on_c, 0, 78, 0
2, 98880, Note_on_c, 0, 80, 100
2, 99120, Note_on_c, 0, 80, 0
2, 99120, Note_on_c, 0, 76, 100
2, 99360, Note_on_c, 0, 76, 0
2, 99360, Note_on_c, 0, 78, 100
2, 99600, Note_on_c, 0, 78, 0
2, 99600, Note_on_c, 0, 75, 100
2, 99840, Note_on_c, 0, 75, 0
2, 99840, Note_on_c, 0, 76, 100
2, 100080, Note_on_c, 0, 76, 0
2, 100080, Note_on_c, 0, 71, 100
2, 100320, Note_on_c, 0, 71, 0
2, 100320, Note_on_c, 0, 68, 100
2, 100560, Note_on_c, 0, 68, 0
2, 100560, Note_on_c, 0, 64, 100
2, 100800, Note_on_c, 0, 64, 0
2, 100800, Note_on_c, 0, 68, 100
2, 101040, Note_on_c, 0, 68, 0
2, 101040, Note_on_c, 0, 71, 100
2, 101280, Note_on_c, 0, 71, 0
2, 101280, Note_on_c, 0, 76, 100
2, 101520, Note_on_c, 0, 76, 0
2, 101520, Note_on_c, 0, 80, 100
2, 101760, Note_on_c, 0, 80, 0
2, 101760, Note_on_c, 0, 69, 100
2, 102000, Note_on_c, 0, 69, 0
2, 102000, Note_on_c, 0, 80, 100
2, 102240, Note_on_c, 0, 80, 0
2, 102240, Note_on_c, 0, 78, 100
2, 102480, Note_on_c, 0, 78, 0
2, 102480, Note_on_c, 0, 76, 100
2, 102720, Note_on_c, 0, 76, 0
2, 102720, Note_on_c, 0, 78, 100
2, 102960, Note_on_c, 0, 78, 0
2, 102960, Note_on_c, 0, 80, 100
2, 103200, Note_on_c, 0, 80, 0
2, 103200, Note_on_c, 0, 81, 100
2, 103440, Note_on_c, 0, 81, 0
2, 103440, Note_on_c, 0, 78, 100
2, 103680, Note_on_c, 0, 78, 0
2, 103680, Note_on_c, 0, 81, 100
2, 104640, Note_on_c, 0, 81, 0
2, 104640, Note_on_c, 0, 71, 100
2, 105120, Note_on_c, 0, 71, 0
2, 105120, Note_on_c, 0, 80, 100
2, 105600, Note_on_c, 0, 80, 0
2, 105600, Note_on_c, 0, 73, 100
2, 106080, Note_on_c, 0, 73, 0
2, 106080, Note_on_c, 0, 78, 100
2, 106560, Note_on_c, 0, 78, 0
2, 106560, Note_on_c, 0, 66, 100
2, 107040, Note_on_c, 0, 66, 0
2, 107040, Note_on_c, 0, 75, 100
2, 107520, Note_on_c, 0, 75, 0
2, 107520, Note_on_c, 0, 76, 100
2, 108480, Note_on_c, 0, 76, 0
2, 108480, Note_on_c, 0, 64, 100
2, 108720, Note_on_c, 0, 64, 0
2, 108720, Note_on_c, 0, 68, 100
2, 108960, Note_on_c, 0, 68, 0
2, 108960, Note_on_c, 0, 71, 100
2, 109200, Note_on_c, 0, 71, 0
2, 109200, Note_on_c, 0, 76, 100
2, 109440, Note_on_c, 0, 76, 0
2, 109440, Note_on_c, 0, 66, 100
2, 109680, Note_on_c, 0, 66, 0
2, 109680, Note_on_c, 0, 76, 100
2, 109920, Note_on_c, 0, 76, 0
2, 109920, Note_on_c, 0, 74, 100
2, 110160, Note_on_c, 0, 74, 0
2, 110160, Note_on_c, 0, 73, 100
2, 110400, Note_on_c, 0, 73, 0
2, 110400, Note_on_c, 0, 74, 100
2, 110640, Note_on_c, 0, 74, 0
2, 110640, Note_on_c, 0, 66, 100
2, 110880, Note_on_c, 0, 66, 0
2, 110880, Note_on_c, 0, 68, 100
2, 111120, Note_on_c, 0, 68, 0
2, 111120, Note_on_c, 0, 74, 100
2, 111360, Note_on_c, 0, 74, 0
2, 111360, Note_on_c, 0, 73, 100
2, 111600, Note_on_c, 0, 73, 0
2, 111600, Note_on_c, 0, 71, 100
2, 111840, Note_on_c, 0, 71, 0
2, 111840, Note_on_c, 0, 69, 100
2, 112080, Note_on_c, 0, 69, 0
2, 112080, Note_on_c, 0, 68, 100
2, 112320, Note_on_c, 0, 68, 0
2, 112320, Note_on_c, 0, 66, 100
2, 112560, Note_on_c, 0, 66, 0
2, 112560, Note_on_c, 0, 73, 100
2, 112800, Note_on_c, 0, 73, 0
2, 112800, Note_on_c, 0, 78, 100
2, 113040, Note_on_c, 0, 78, 0
2, 113040, Note_on_c, 0, 81, 100
2, 113280, Note_on_c, 0, 81, 0
2, 113280, Note_on_c, 0, 71, 100
2, 113520, Note_on_c, 0, 71, 0
2, 113520, Note_on_c, 0, 81, 100
2, 113760, Note_on_c, 0, 81, 0
2, 113760, Note_on_c, 0, 80, 100
2, 114000, Note_on_c, 0, 80, 0
2, 114000, Note_on_c, 0, 78, 100
2, 114240, Note_on_c, 0, 78, 0
2, 114240, Note_on_c, 0, 80, 100
2, 114480, Note_on_c, 0, 80, 0
2, 114480, Note_on_c, 0, 77, 100
2, 114720, Note_on_c, 0, 77, 0
2, 114720, Note_on_c, 0, 78, 100
2, 114960, Note_on_c, 0, 78, 0
2, 114960, Note_on_c, 0, 72, 100
2, 115200, Note_on_c, 0, 72, 0
2, 115200, Note_on_c, 0, 73, 100
2, 115440, Note_on_c, 0, 73, 0
2, 115440, Note_on_c, 0, 78, 100
2, 115680, Note_on_c, 0, 78, 0
2, 115680, Note_on_c, 0, 77, 100
2, 115920, Note_on_c, 0, 77, 0
2, 115920, Note_on_c, 0, 78, 100
2, 116160, Note_on_c, 0, 78, 0
2, 116160, Note_on_c, 0, 80, 100
2, 116400, Note_on_c, 0, 80, 0
2, 116400, Note_on_c, 0, 81, 100
2, 116640, Note_on_c, 0, 81, 0
2, 116640, Note_on_c, 0, 83, 100
2, 116880, Note_on_c, 0, 83, 0
2, 116880, Note_on_c, 0, 80, 100
2, 117120, Note_on_c, 0, 80, 0
2, 117120, Note_on_c, 0, 81, 100
2, 117360, Note_on_c, 0, 81, 0
2, 117360, Note_on_c, 0, 73, 100
2, 117600, Note_on_c, 0, 73, 0
2, 117600, Note_on_c, 0, 66, 100
2, 117840, Note_on_c, 0, 66, 0
2, 117840, Note_on_c, 0, 68, 100
2, 118080, Note_on_c, 0, 68, 0
2, 118080, Note_on_c, 0, 69, 100
2, 118320, Note_on_c, 0, 69, 0
2, 118320, Note_on_c, 0, 71, 100
2, 118560, Note_on_c, 0, 71, 0
2, 118560, Note_on_c, 0, 73, 100
2, 118800, Note_on_c, 0, 73, 0
2, 118800, Note_on_c, 0, 76, 100
2, 119040, Note_on_c, 0, 76, 0
2, 119040, Note_on_c, 0, 74, 100
2, 119280, Note_on_c, 0, 74, 0
2, 119280, Note_on_c, 0, 66, 100
2, 119520, Note_on_c, 0, 66, 0
2, 119520, Note_on_c, 0, 59, 100
2, 119760, Note_on_c, 0, 59, 0
2, 119760, Note_on_c, 0, 61, 100
2, 120000, Note_on_c, 0, 61, 0
2, 120000, Note_on_c, 0, 62, 100
2, 120240, Note_on_c, 0, 62, 0
2, 120240, Note_on_c, 0, 64, 100
2, 120480, Note_on_c, 0, 64, 0
2, 120480, Note_on_c, 0, 66, 100
2, 120720, Note_on_c, 0, 66, 0
2, 120720, Note_on_c, 0, 69, 100
2, 120960, Note_on_c, 0, 69, 0
2, 120960, Note_on_c, 0, 68, 100
2, 121200, Note_on_c, 0, 68, 0
2, 121200, Note_on_c, 0, 71, 100
2, 121440, Note_on_c, 0, 71, 0
2, 121440, Note_on_c, 0, 64, 100
2, 121680, Note_on_c, 0, 64, 0
2, 121680, Note_on_c, 0, 66, 100
2, 121920, Note_on_c, 0, 66, 0
2, 121920, Note_on_c, 0, 68, 100
2, 122160, Note_on_c, 0, 68, 0
2, 122160, Note_on_c, 0, 69, 100
2, 122400, Note_on_c, 0, 69, 0
2, 122400, Note_on_c, 0, 71, 100
2, 122640, Note_on_c, 0, 71, 0
2, 122640, Note_on_c, 0, 74, 100
2, 122880, Note_on_c, 0, 74, 0
2, 122880, Note_on_c, 0, 73, 100
2, 123120, Note_on_c, 0, 73, 0
2, 123120, Note_on_c, 0, 71, 100
2, 123360, Note_on_c, 0, 71, 0
2, 123360, Note_on_c, 0, 69, 100
2, 123600, Note_on_c, 0, 69, 0
2, 123600, Note_on_c, 0, 73, 100
2, 123840, Note_on_c, 0, 73, 0
2, 123840, Note_on_c, 0, 78, 100
2, 124080, Note_on_c, 0, 78, 0
2, 124080, Note_on_c, 0, 77, 100
2, 124320, Note_on_c, 0, 77, 0
2, 124320, Note_on_c, 0, 78, 100
2, 124560, Note_on_c, 0, 78, 0
2, 124560, Note_on_c, 0, 73, 100
2, 124800, Note_on_c, 0, 73, 0
2, 124800, Note_on_c, 0, 70, 100
2, 125040, Note_on_c, 0, 70, 0
2, 125040, Note_on_c, 0, 73, 100
2, 125280, Note_on_c, 0, 73, 0
2, 125280, Note_on_c, 0, 76, 100
2, 125520, Note_on_c, 0, 76, 0
2, 125520, Note_on_c, 0, 79, 100
2, 125760, Note_on_c, 0, 79, 0
2, 125760, Note_on_c, 0, 78, 100
2, 126000, Note_on_c, 0, 78, 0
2, 126000, Note_on_c, 0, 76, 100
2, 126240, Note_on_c, 0, 76, 0
2, 126240, Note_on_c, 0, 74, 100
2, 126480, Note_on_c, 0, 74, 0
2, 126480, Note_on_c, 0, 73, 100
2, 126720, Note_on_c, 0, 73, 0
2, 126720, Note_on_c, 0, 74, 100
2, 126960, Note_on_c, 0, 74, 0
2, 126960, Note_on_c, 0, 73, 100
2, 127200, Note_on_c, 0, 73, 0
2, 127200, Note_on_c, 0, 71, 100
2, 127440, Note_on_c, 0, 71, 0
2, 127440, Note_on_c, 0, 78, 100
2, 127680, Note_on_c, 0, 78, 0
2, 127680, Note_on_c, 0, 83, 100
2, 127920, Note_on_c, 0, 83, 0
2, 127920, Note_on_c, 0, 82, 100
2, 128160, Note_on_c, 0, 82, 0
2, 128160, Note_on_c, 0, 83, 100
2, 128400, Note_on_c, 0, 83, 0
2, 128400, Note_on_c, 0, 74, 100
2, 128640, Note_on_c, 0, 74, 0
2, 128640, Note_on_c, 0, 65, 100
2, 128880, Note_on_c, 0, 65, 0
2, 128880, Note_on_c, 0, 73, 100
2, 129120, Note_on_c, 0, 73, 0
2, 129120, Note_on_c, 0, 83, 100
2, 129360, Note_on_c, 0, 83, 0
2, 129360, Note_on_c, 0, 86, 100
2, 129600, Note_on_c, 0, 86, 0
2, 129600, Note_on_c, 0, 85, 100
2, 129840, Note_on_c, 0, 85, 0
2, 129840, Note_on_c, 0, 83, 100
2, 130080, Note_on_c, 0, 83, 0
2, 130080, Note_on_c, 0, 81, 100
2, 130320, Note_on_c, 0, 81, 0
2, 130320, Note_on_c, 0, 80, 100
2, 130560, Note_on_c, 0, 80, 0
2, 130560, Note_on_c, 0, 81, 100
2, 130800, Note_on_c, 0, 81, 0
2, 130800, Note_on_c, 0, 80, 100
2, 131040, Note_on_c, 0, 80, 0
2, 131040, Note_on_c, 0, 78, 100
2, 131280, Note_on_c, 0, 78, 0
2, 131280, Note_on_c, 0, 81, 100
2, 131520, Note_on_c, 0, 81, 0
2, 131520, Note_on_c, 0, 71, 100
2, 131760, Note_on_c, 0, 71, 0
2, 131760, Note_on_c, 0, 74, 100
2, 132000, Note_on_c, 0, 74, 0
2, 132000, Note_on_c, 0, 81, 100
2, 132240, Note_on_c, 0, 81, 0
2, 132240, Note_on_c, 0, 80, 100
2, 132480, Note_on_c, 0, 80, 0
2, 132480, Note_on_c, 0, 69, 100
2, 132720, Note_on_c, 0, 69, 0
2, 132720, Note_on_c, 0, 73, 100
2, 132960, Note_on_c, 0, 73, 0
2, 132960, Note_on_c, 0, 80, 100
2, 133200, Note_on_c, 0, 80, 0
2, 133200, Note_on_c, 0, 78, 100
2, 133440, Note_on_c, 0, 78, 0
2, 133440, Note_on_c, 0, 68, 100
2, 133680, Note_on_c, 0, 68, 0
2, 133680, Note_on_c, 0, 71, 100
2, 133920, Note_on_c, 0, 71, 0
2, 133920, Note_on_c, 0, 78, 100
2, 134160, Note_on_c, 0, 78, 0
2, 134160, Note_on_c, 0, 76, 100
2, 134400, Note_on_c, 0, 76, 0
2, 134400, Note_on_c, 0, 66, 100
2, 134640, Note_on_c, 0, 66, 0
2, 134640, Note_on_c, 0, 69, 100
2, 134880, Note_on_c, 0, 69, 0
2, 134880, Note_on_c, 0, 76, 100
2, 135120, Note_on_c, 0, 76, 0
2, 135120, Note_on_c, 0, 74, 100
2, 135360, Note_on_c, 0, 74, 0
2, 135360, Note_on_c, 0, 65, 100
2, 135600, Note_on_c, 0, 65, 0
2, 135600, Note_on_c, 0, 74, 100
2, 135840, Note_on_c, 0, 74, 0
2, 135840, Note_on_c, 0, 73, 100
2, 136080, Note_on_c, 0, 73, 0
2, 136080, Note_on_c, 0, 71, 100
2, 136320, Note_on_c, 0, 71, 0
2, 136320, Note_on_c, 0, 69, 100
2, 136560, Note_on_c, 0, 69, 0
2, 136560, Note_on_c, 0, 73, 100
2, 136800, Note_on_c, 0, 73, 0
2, 136800, Note_on_c, 0, 78, 100
2, 137040, Note_on_c, 0, 78, 0
2, 137040, Note_on_c, 0, 80, 100
2, 137280, Note_on_c, 0, 80, 0
2, 137280, Pitch_bend_c, 0, 12288
2, 137280, Note_on_c, 0, 80, 100
2, 137360, Pitch_bend_c, 0, 8192
2, 137440, Pitch_bend_c, 0, 12288
2, 137520, Pitch_bend_c, 0, 8192
2, 138000, Note_on_c, 0, 80, 0
2, 138000, Note_on_c, 0, 78, 100
2, 138240, Note_on_c, 0, 78, 0
2, 138240, Note_on_c, 0, 78, 100
2, 139200, Note_on_c, 0, 78, 0
2, 139200, Note_on_c, 0, 76, 100
2, 139680, Note_on_c, 0, 76, 0
2, 139680, Note_on_c, 0, 80, 100
2, 140160, Note_on_c, 0, 80, 0
2, 140160, Pitch_bend_c, 0, 12288
2, 140160, Note_on_c, 0, 80, 100
2, 140240, Pitch_bend_c, 0, 8192
2, 140320, Pitch_bend_c, 0, 12288
2, 140400, Pitch_bend_c, 0, 8192
2, 140640, Note_on_c, 0, 80, 0
2, 140640, Note_on_c, 0, 78, 100
2, 140880, Note_on_c, 0, 78, 0
2, 140880, Note_on_c, 0, 76, 100
2, 141120, Note_on_c, 0, 76, 0
2, 141120, Note_on_c, 0, 78, 100
2, 141600, Note_on_c, 0, 78, 0
2, 141600, Note_on_c, 0, 81, 100
2, 142080, Note_on_c, 0, 81, 0
2, 142080, Note_on_c, 0, 81, 100
2, 143040, Note_on_c, 0, 81, 0
2, 143040, Note_on_c, 0, 83, 100
2, 143280, Note_on_c, 0, 83, 0
2, 143280, Note_on_c, 0, 80, 100
2, 143520, Note_on_c, 0, 80, 0
2, 143520, Note_on_c, 0, 81, 100
2, 143760, Note_on_c, 0, 81, 0
2, 143760, Note_on_c, 0, 78, 100
2, 144000, Note_on_c, 0, 78, 0
2, 144000, Note_on_c, 0, 71, 100
2, 144240, Note_on_c, 0, 71, 0
2, 144240, Note_on_c, 0, 78, 100
2, 144360, Note_on_c, 0, 78, 0
2, 144360, Note_on_c, 0, 80, 100
2, 144480, Note_on_c, 0, 80, 0
2, 144480, Note_on_c, 0, 81, 100
2, 144720, Note_on_c, 0, 81, 0
2, 144720, Note_on_c, 0, 78, 100
2, 144960, Note_on_c, 0, 78, 0
2, 144960, Note_on_c, 0, 80, 100
2, 145200, Note_on_c, 0, 80, 0
2, 145200, Note_on_c, 0, 76, 100
2, 145440, Note_on_c, 0, 76, 0
2, 145440, Note_on_c, 0, 78, 100
2, 145680, Note_on_c, 0, 78, 0
2, 145680, Note_on_c, 0, 75, 100
2, 145920, Note_on_c, 0, 75, 0
2, 145920, Note_on_c, 0, 76, 100
2, 146160, Note_on_c, 0, 76, 0
2, 146160, Note_on_c, 0, 71, 100
2, 146400, Note_on_c, 0, 71, 0
2, 146400, Note_on_c, 0, 68, 100
2, 146640, Note_on_c, 0, 68, 0
2, 146640, Note_on_c, 0, 64, 100
2, 146880, Note_on_c, 0, 64, 0
2, 146880, Note_on_c, 0, 68, 100
2, 147120, Note_on_c, 0, 68, 0
2, 147120, Note_on_c, 0, 71, 100
2, 147360, Note_on_c, 0, 71, 0
2, 147360, Note_on_c, 0, 76, 100
2, 147600, Note_on_c, 0, 76, 0
2, 147600, Note_on_c, 0, 80, 100
2, 147840, Note_on_c, 0, 80, 0
2, 147840, Note_on_c, 0, 69, 100
2, 148080, Note_on_c, 0, 69, 0
2, 148080, Note_on_c, 0, 80, 100
2, 148320, Note_on_c, 0, 80, 0
2, 148320, Note_on_c, 0, 78, 100
2, 148560, Note_on_c, 0, 78, 0
2, 148560, Note_on_c, 0, 76, 100
2, 148800, Note_on_c, 0, 76, 0
2, 148800, Note_on_c, 0, 78, 100
2, 149040, Note_on_c, 0, 78, 0
2, 149040, Note_on_c, 0, 80, 100
2, 149280, Note_on_c, 0, 80, 0
2, 149280, Note_on_c, 0, 81, 100
2, 149520, Note_on_c, 0, 81, 0
2, 149520, Note_on_c, 0, 78, 100
2, 149760, Note_on_c, 0, 78, 0
2, 149760, Note_on_c, 0, 81, 100
2, 150720, Note_on_c, 0, 81, 0
2, 150720, Note_on_c, 0, 71, 100
2, 151200, Note_on_c, 0, 71, 0
2, 151200, Note_on_c, 0, 80, 100
2, 151680, Note_on_c, 0, 80, 0
2, 151680, Note_on_c, 0, 73, 100
2, 152160, Note_on_c, 0, 73, 0
2, 152160, Note_on_c, 0, 78, 100
2, 152640, Note_on_c, 0, 78, 0
2, 152640, Note_on_c, 0, 66, 100
2, 153120, Note_on_c, 0, 66, 0
2, 153120, Note_on_c, 0, 75, 100
2, 153600, Note_on_c, 0, 75, 0
2, 153600, Note_on_c, 0, 76, 100
2, 154560, Note_on_c, 0, 76, 0
2, 154560, Note_on_c, 0, 80, 100
2, 154800, Note_on_c, 0, 80, 0
2, 154800, Note_on_c, 0, 78, 100
2, 155040, Note_on_c, 0, 78, 0
2, 155040, Note_on_c, 0, 80, 100
2, 155520, Note_on_c, 0, 80, 0
2, 155520, Note_on_c, 0, 73, 100
2, 155760, Note_on_c, 0, 73, 0
2, 155760, Note_on_c, 0, 72, 100
2, 156000, Note_on_c, 0, 72, 0
2, 156000, Note_on_c, 0, 73, 100
2, 156480, Note_on_c, 0, 73, 0
2, 156480, Note_on_c, 0, 78, 100
2, 156720, Note_on_c, 0, 78, 0
2, 156720, Note_on_c, 0, 76, 100
2, 156960, Note_on_c, 0, 76, 0
2, 156960, Note_on_c, 0, 78, 100
2, 157440, Note_on_c, 0, 78, 0
2, 157440, Note_on_c, 0, 72, 100
2, 158400, Note_on_c, 0, 72, 0
2, 158400, Note_on_c, 0, 64, 100
2, 158640, Note_on_c, 0, 64, 0
2, 158640, Note_on_c, 0, 68, 100
2, 158880, Note_on_c, 0, 68, 0
2, 158880, Note_on_c, 0, 73, 100
2, 159120, Note_on_c, 0, 73, 0
2, 159120, Note_on_c, 0, 76, 100
2, 159360, Note_on_c, 0, 76, 0
2, 159360, Note_on_c, 0, 66, 100
2, 159600, Note_on_c, 0, 66, 0
2, 159600, Note_on_c, 0, 69, 100
2, 159840, Note_on_c, 0, 69, 0
2, 159840, Note_on_c, 0, 75, 100
2, 160080, Note_on_c, 0, 75, 0
2, 160080, Note_on_c, 0, 78, 100
2, 160320, Note_on_c, 0, 78, 0
2, 160320, Note_on_c, 0, 68, 100
2, 160560, Note_on_c, 0, 68, 0
2, 160560, Note_on_c, 0, 71, 100
2, 160800, Note_on_c, 0, 71, 0
2, 160800, Note_on_c, 0, 77, 100
2, 161040, Note_on_c, 0, 77, 0
2, 161040, Note_on_c, 0, 80, 100
2, 161280, Note_on_c, 0, 80, 0
2, 161280, Note_on_c, 0, 80, 100
2, 161760, Note_on_c, 0, 80, 0
2, 161760, Note_on_c, 0, 78, 100
2, 162240, Note_on_c, 0, 78, 0
2, 162240, Note_on_c, 0, 76, 100
2, 162480, Note_on_c, 0, 76, 0
2, 162480, Note_on_c, 0, 75, 100
2, 162720, Note_on_c, 0, 75, 0
2, 162720, Note_on_c, 0, 76, 100
2, 162960, Note_on_c, 0, 76, 0
2, 162960, Note_on_c, 0, 73, 100
2, 163200, Note_on_c, 0, 73, 0
2, 163200, Note_on_c, 0, 75, 100
2, 163440, Note_on_c, 0, 75, 0
2, 163440, Note_on_c, 0, 71, 100
2, 163680, Note_on_c, 0, 71, 0
2, 163680, Note_on_c, 0, 76, 100
2, 164160, Note_on_c, 0, 76, 0
2, 164160, Note_on_c, 0, 75, 100
2, 164400, Note_on_c, 0, 75, 0
2, 164400, Note_on_c, 0, 73, 100
2, 164640, Note_on_c, 0, 73, 0
2, 164640, Note_on_c, 0, 78, 100
2, 165120, Note_on_c, 0, 78, 0
2, 165120, Note_on_c, 0, 76, 100
2, 165360, Note_on_c, 0, 76, 0
2, 165360, Note_on_c, 0, 75, 100
2, 165600, Note_on_c, 0, 75, 0
2, 165600, Note_on_c, 0, 73, 100
2, 165840, Note_on_c, 0, 73, 0
2, 165840, Note_on_c, 0, 71, 100
2, 166080, Note_on_c, 0, 71, 0
2, 166080, Note_on_c, 0, 75, 100
2, 166320, Note_on_c, 0, 75, 0
2, 166320, Note_on_c, 0, 73, 100
2, 166560, Note_on_c, 0, 73, 0
2, 166560, Note_on_c, 0, 75, 100
2, 167040, Note_on_c, 0, 75, 0
2, 167040, Note_on_c, 0, 80, 100
2, 167280, Note_on_c, 0, 80, 0
2, 167280, Note_on_c, 0, 79, 100
2, 167520, Note_on_c, 0, 79, 0
2, 167520, Note_on_c, 0, 80, 100
2, 168000, Note_on_c, 0, 80, 0
2, 168000, Note_on_c, 0, 73, 100
2, 168240, Note_on_c, 0, 73, 0
2, 168240, Note_on_c, 0, 72, 100
2, 168480, Note_on_c, 0, 72, 0
2, 168480, Note_on_c, 0, 73, 100
2, 168960, Note_on_c, 0, 73, 0
2, 168960, Note_on_c, 0, 82, 100
2, 169920, Note_on_c, 0, 82, 0
2, 169920, Note_on_c, 0, 80, 100
2, 170160, Note_on_c, 0, 80, 0
2, 170160, Note_on_c, 0, 79, 100
2, 170400, Note_on_c, 0, 79, 0
2, 170400, Note_on_c, 0, 80, 100
2, 170640, Note_on_c, 0, 80, 0
2, 170640, Note_on_c, 0, 83, 100
2, 170880, Note_on_c, 0, 83, 0
2, 170880, Note_on_c, 0, 80, 100
2, 171120, Note_on_c, 0, 80, 0
2, 171120, Note_on_c, 0, 79, 100
2, 171360, Note_on_c, 0, 79, 0
2, 171360, Note_on_c, 0, 80, 100
2, 171600, Note_on_c, 0, 80, 0
2, 171600, Note_on_c, 0, 83, 100
2, 171840, Note_on_c, 0, 83, 0
2, 171840, Note_on_c, 0, 80, 100
2, 172080, Note_on_c, 0, 80, 0
2, 172080, Note_on_c, 0, 79, 100
2, 172320, Note_on_c, 0, 79, 0
2, 172320, Note_on_c, 0, 80, 100
2, 172560, Note_on_c, 0, 80, 0
2, 172560, Note_on_c, 0, 83, 100
2, 172800, Note_on_c, 0, 83, 0
2, 172800, Note_on_c, 0, 80, 100
2, 173760, Note_on_c, 0, 80, 0
2, 174240, Note_on_c, 0, 80, 100
2, 174720, Note_on_c, 0, 80, 0
2, 174720, Note_on_c, 0, 80, 100
2, 175680, Note_on_c, 0, 80, 0
2, 176160, Note_on_c, 0, 80, 100
2, 176640, Note_on_c, 0, 80, 0
2, 176640, Note_on_c, 0, 80, 100
2, 177600, Note_on_c, 0, 80, 0
2, 178080, Note_on_c, 0, 80, 100
2, 178560, Note_on_c, 0, 80, 0
2, 178560, Note_on_c, 0, 80, 100
2, 179520, Note_on_c, 0, 80, 0
2, 180000, Note_on_c, 0, 80, 100
2, 180480, Note_on_c, 0, 80, 0
2, 180480, Note_on_c, 0, 76, 100
2, 183360, Note_on_c, 0, 76, 0
2, 184320, Note_on_c, 0, 63, 100
2, 184560, Note_on_c, 0, 63, 0
2, 184560, Note_on_c, 0, 65, 100
2, 184800, Note_on_c, 0, 65, 0
2, 184800, Note_on_c, 0, 67, 100
2, 185040, Note_on_c, 0, 67, 0
2, 185040, Note_on_c, 0, 68, 100
2, 185280, Note_on_c, 0, 68, 0
2, 185280, Note_on_c, 0, 70, 100
2, 185520, Note_on_c, 0, 70, 0
2, 185520, Note_on_c, 0, 71, 100
2, 185760, Note_on_c, 0, 71, 0
2, 185760, Note_on_c, 0, 73, 100
2, 186000, Note_on_c, 0, 73, 0
2, 186000, Note_on_c, 0, 75, 100
2, 186240, Note_on_c, 0, 75, 0
2, 186240, Note_on_c, 0, 76, 100
2, 186480, Note_on_c, 0, 76, 0
2, 186480, Note_on_c, 0, 75, 100
2, 186720, Note_on_c, 0, 75, 0
2, 186720, Note_on_c, 0, 74, 100
2, 186960, Note_on_c, 0, 74, 0
2, 186960, Note_on_c, 0, 75, 100
2, 187200, Note_on_c, 0, 75, 0
2, 187200, Note_on_c, 0, 76, 100
2, 187440, Note_on_c, 0, 76, 0
2, 187440, Note_on_c, 0, 75, 100
2, 187680, Note_on_c, 0, 75, 0
2, 187680, Note_on_c, 0, 74, 100
2, 187920, Note_on_c, 0, 74, 0
2, 187920, Note_on_c, 0, 75, 100
2, 188160, Note_on_c, 0, 75, 0
2, 188160, Note_on_c, 0, 67, 100
2, 188400, Note_on_c, 0, 67, 0
2, 188400, Note_on_c, 0, 70, 100
2, 188640, Note_on_c, 0, 70, 0
2, 188640, Note_on_c, 0, 73, 100
2, 188880, Note_on_c, 0, 73, 0
2, 188880, Note_on_c, 0, 76, 100
2, 189120, Note_on_c, 0, 76, 0
2, 189120, Note_on_c, 0, 75, 100
2, 189360, Note_on_c, 0, 75, 0
2, 189360, Note_on_c, 0, 79, 100
2, 189600, Note_on_c, 0, 79, 0
2, 189600, Note_on_c, 0, 82, 100
2, 189840, Note_on_c, 0, 82, 0
2, 189840, Note_on_c, 0, 85, 100
2, 190080, Note_on_c, 0, 85, 0
2, 190080, Note_on_c, 0, 83, 100
2, 190320, Note_on_c, 0, 83, 0
2, 190320, Note_on_c, 0, 82, 100
2, 190440, Note_on_c, 0, 82, 0
2, 190440, Note_on_c, 0, 80, 100
2, 190560, Note_on_c, 0, 80, 0
2, 190560, Note_on_c, 0, 79, 100
2, 190800, Note_on_c, 0, 79, 0
2, 190800, Note_on_c, 0, 80, 100
2, 191040, Note_on_c, 0, 80, 0
2, 191040, Note_on_c, 0, 71, 100
2, 191200, Note_on_c, 0, 71, 0
2, 191200, Note_on_c, 0, 73, 100
2, 191360, Note_on_c, 0, 73, 0
2, 191360, Note_on_c, 0, 75, 100
2, 191520, Note_on_c, 0, 75, 0
2, 191520, Note_on_c, 0, 73, 100
2, 191680, Note_on_c, 0, 73, 0
2, 191680, Note_on_c, 0, 71, 100
2, 191840, Note_on_c, 0, 71, 0
2, 191840, Note_on_c, 0, 70, 100
2, 192000, Note_on_c, 0, 70, 0
2, 192000, Note_on_c, 0, 68, 100
2, 192960, Note_on_c, 0, 68, 0
2, 192960, Note_on_c, 0, 71, 100
2, 193440, Note_on_c, 0, 71, 0
2, 193440, Note_on_c, 0, 80, 100
2, 193920, Note_on_c, 0, 80, 0
2, 193920, Pitch_bend_c, 0, 12288
2, 193920, Note_on_c, 0, 80, 100
2, 194000, Pitch_bend_c, 0, 8192
2, 194080, Pitch_bend_c, 0, 12288
2, 194160, Pitch_bend_c, 0, 8192
2, 194400, Note_on_c, 0, 80, 0
2, 194400, Note_on_c, 0, 78, 100
2, 194640, Note_on_c, 0, 78, 0
2, 194640, Note_on_c, 0, 76, 100
2, 194880, Note_on_c, 0, 76, 0
2, 194880, Note_on_c, 0, 78, 100
2, 195360, Note_on_c, 0, 78, 0
2, 195360, Note_on_c, 0, 81, 100
2, 195840, Note_on_c, 0, 81, 0
2, 195840, Note_on_c, 0, 81, 100
2, 196800, Note_on_c, 0, 81, 0
2, 196800, Note_on_c, 0, 83, 100
2, 197040, Note_on_c, 0, 83, 0
2, 197040, Note_on_c, 0, 80, 100
2, 197280, Note_on_c, 0, 80, 0
2, 197280, Note_on_c, 0, 81, 100
2, 197520, Note_on_c, 0, 81, 0
2, 197520, Note_on_c, 0, 78, 100
2, 197760, Note_on_c, 0, 78, 0
2, 197760, Note_on_c, 0, 71, 100
2, 198000, Note_on_c, 0, 71, 0
2, 198000, Note_on_c, 0, 78, 100
2, 198120, Note_on_c, 0, 78, 0
2, 198120, Note_on_c, 0, 80, 100
2, 198240, Note_on_c, 0, 80, 0
2, 198240, Note_on_c, 0, 81, 100
2, 198480, Note_on_c, 0, 81, 0
2, 198480, Note_on_c, 0, 78, 100
2, 198720, Note_on_c, 0, 78, 0
2, 198720, Note_on_c, 0, 80, 100
2, 198960, Note_on_c, 0, 80, 0
2, 198960, Note_on_c, 0, 76, 100
2, 199200, Note_on_c, 0, 76, 0
2, 199200, Note_on_c, 0, 78, 100
2, 199440, Note_on_c, 0, 78, 0
2, 199440, Note_on_c, 0, 75, 100
2, 199680, Note_on_c, 0, 75, 0
2, 199680, Note_on_c, 0, 76, 100
2, 199920, Note_on_c, 0, 76, 0
2, 199920, Note_on_c, 0, 71, 100
2, 200160, Note_on_c, 0, 71, 0
2, 200160, Note_on_c, 0, 68, 100
2, 200400, Note_on_c, 0, 68, 0
2, 200400, Note_on_c, 0, 64, 100
2, 200640, Note_on_c, 0, 64, 0
2, 200640, Note_on_c, 0, 68, 100
2, 200880, Note_on_c, 0, 68, 0
2, 200880, Note_on_c, 0, 71, 100
2, 201120, Note_on_c, 0, 71, 0
2, 201120, Note_on_c, 0, 76, 100
2, 201360, Note_on_c, 0, 76, 0
2, 201360, Note_on_c, 0, 80, 100
2, 201600, Note_on_c, 0, 80, 0
2, 201600, Note_on_c, 0, 69, 100
2, 201840, Note_on_c, 0, 69, 0
2, 201840, Note_on_c, 0, 80, 100
2, 202080, Note_on_c, 0, 80, 0
2, 202080, Note_on_c, 0, 78, 100
2, 202320, Note_on_c, 0, 78, 0
2, 202320, Note_on_c, 0, 76, 100
2, 202560, Note_on_c, 0, 76, 0
2, 202560, Note_on_c, 0, 78, 100
2, 202800, Note_on_c, 0, 78, 0
2, 202800, Note_on_c, 0, 80, 100
2, 203040, Note_on_c, 0, 80, 0
2, 203040, Note_on_c, 0, 81, 100
2, 203280, Note_on_c, 0, 81, 0
2, 203280, Note_on_c, 0, 78, 100
2, 203520, Note_on_c, 0, 78, 0
2, 203520, Note_on_c, 0, 81, 100
2, 204480, Note_on_c, 0, 81, 0
2, 204480, Note_on_c, 0, 71, 100
2, 204960, Note_on_c, 0, 71, 0
2, 204960, Note_on_c, 0, 80, 100
2, 205440, Note_on_c, 0, 80, 0
2, 205440, Note_on_c, 0, 73, 100
2, 205920, Note_on_c, 0, 73, 0
2, 205920, Note_on_c, 0, 78, 100
2, 206400, Note_on_c, 0, 78, 0
2, 206400, Note_on_c, 0, 66, 100
2, 206880, Note_on_c, 0, 66, 0
2, 206880, Note_on_c, 0, 75, 100
2, 207360, Note_on_c, 0, 75, 0
2, 207360, Note_on_c, 0, 76, 100
2, 208320, Note_on_c, 0, 76, 0
2, 208320, End_track
3, 0, Start_track
3, 0, MIDI_port, 0
3, 0, Title_t, "--------------------------------------"
3, 0, Program_c, 1, 40
3, 0, Control_c, 1, 7, 100
3, 0, Control_c, 1, 10, 59
3, 960, Note_on_c, 1, 64, 100
3, 1440, Note_on_c, 1, 64, 0
3, 1920, Note_on_c, 1, 69, 100
3, 2400, Note_on_c, 1, 69, 0
3, 3840, Note_on_c, 1, 71, 100
3, 4800, Note_on_c, 1, 71, 0
3, 11520, Note_on_c, 1, 71, 100
3, 12480, Note_on_c, 1, 71, 0
3, 12480, Note_on_c, 1, 64, 100
3, 12960, Note_on_c, 1, 64, 0
3, 13440, Note_on_c, 1, 69, 100
3, 13920, Note_on_c, 1, 69, 0
3, 14400, Note_on_c, 1, 59, 100
3, 14880, Note_on_c, 1, 59, 0
3, 15360, Note_on_c, 1, 64, 100
3, 16320, Note_on_c, 1, 64, 0
3, 16320, Note_on_c, 1, 64, 100
3, 16800, Note_on_c, 1, 64, 0
3, 17280, Note_on_c, 1, 69, 100
3, 17760, Note_on_c, 1, 69, 0
3, 19200, Note_on_c, 1, 71, 100
3, 20160, Note_on_c, 1, 71, 0
3, 26880, Note_on_c, 1, 71, 100
3, 27840, Note_on_c, 1, 71, 0
3, 27840, Note_on_c, 1, 64, 100
3, 28320, Note_on_c, 1, 64, 0
3, 28800, Note_on_c, 1, 69, 100
3, 29280, Note_on_c, 1, 69, 0
3, 29760, Note_on_c, 1, 59, 100
3, 30240, Note_on_c, 1, 59, 0
3, 30720, Note_on_c, 1, 64, 100
3, 31680, Note_on_c, 1, 64, 0
3, 31680, Note_on_c, 1, 64, 100
3, 32160, Note_on_c, 1, 64, 0
3, 32640, Note_on_c, 1, 69, 100
3, 33120, Note_on_c, 1, 69, 0
3, 33600, Note_on_c, 1, 68, 100
3, 34080, Note_on_c, 1, 68, 0
3, 34560, Note_on_c, 1, 66, 100
3, 35520, Note_on_c, 1, 66, 0
3, 35520, Note_on_c, 1, 64, 100
3, 36000, Note_on_c, 1, 64, 0
3, 36480, Note_on_c, 1, 66, 100
3, 36960, Note_on_c, 1, 66, 0
3, 47040, Note_on_c, 1, 64, 100
3, 47520, Note_on_c, 1, 64, 0
3, 48000, Note_on_c, 1, 69, 100
3, 48480, Note_on_c, 1, 69, 0
3, 49920, Note_on_c, 1, 71, 100
3, 50880, Note_on_c, 1, 71, 0
3, 57600, Note_on_c, 1, 71, 100
3, 58560, Note_on_c, 1, 71, 0
3, 58560, Note_on_c, 1, 64, 100
3, 59040, Note_on_c, 1, 64, 0
3, 59520, Note_on_c, 1, 69, 100
3, 60000, Note_on_c, 1, 69, 0
3, 60480, Note_on_c, 1, 59, 100
3, 60960, Note_on_c, 1, 59, 0
3, 61440, Note_on_c, 1, 64, 100
3, 62400, Note_on_c, 1, 64, 0
3, 63840, Note_on_c, 1, 64, 100
3, 64080, Note_on_c, 1, 64, 0
3, 64080, Note_on_c, 1, 66, 100
3, 64320, Note_on_c, 1, 66, 0
3, 64320, Note_on_c, 1, 68, 100
3, 64560, Note_on_c, 1, 68, 0
3, 64560, Note_on_c, 1, 66, 100
3, 64800, Note_on_c, 1, 66, 0
3, 64800, Note_on_c, 1, 68, 100
3, 65040, Note_on_c, 1, 68, 0
3, 65040, Note_on_c, 1, 66, 100
3, 65280, Note_on_c, 1, 66, 0
3, 65280, Note_on_c, 1, 68, 100
3, 65520, Note_on_c, 1, 68, 0
3, 65520, Note_on_c, 1, 66, 100
3, 65760, Note_on_c, 1, 66, 0
3, 65760, Note_on_c, 1, 68, 100
3, 66000, Note_on_c, 1, 68, 0
3, 66000, Note_on_c, 1, 64, 100
3, 66240, Note_on_c, 1, 64, 0
3, 71520, Note_on_c, 1, 71, 100
3, 71760, Note_on_c, 1, 71, 0
3, 71760, Note_on_c, 1, 73, 100
3, 72000, Note_on_c, 1, 73, 0
3, 72000, Note_on_c, 1, 75, 100
3, 72240, Note_on_c, 1, 75, 0
3, 72240, Note_on_c, 1, 73, 100
3, 72480, Note_on_c, 1, 73, 0
3, 72480, Note_on_c, 1, 75, 100
3, 72720, Note_on_c, 1, 75, 0
3, 72720, Note_on_c, 1, 73, 100
3, 72960, Note_on_c, 1, 73, 0
3, 72960, Note_on_c, 1, 75, 100
3, 73200, Note_on_c, 1, 75, 0
3, 73200, Note_on_c, 1, 73, 100
3, 73440, Note_on_c, 1, 73, 0
3, 73440, Note_on_c, 1, 75, 100
3, 73680, Note_on_c, 1, 75, 0
3, 73680, Note_on_c, 1, 71, 100
3, 73920, Note_on_c, 1, 71, 0
3, 77760, Note_on_c, 1, 76, 100
3, 78240, Note_on_c, 1, 76, 0
3, 78240, Note_on_c, 1, 76, 100
3, 78720, Note_on_c, 1, 76, 0
3, 78720, Note_on_c, 1, 76, 100
3, 79680, Note_on_c, 1, 76, 0
3, 79680, Note_on_c, 1, 76, 100
3, 80160, Note_on_c, 1, 76, 0
3, 80160, Note_on_c, 1, 76, 100
3, 80640, Note_on_c, 1, 76, 0
3, 80640, Note_on_c, 1, 76, 100
3, 81600, Note_on_c, 1, 76, 0
3, 84480, Note_on_c, 1, 66, 100
3, 85440, Note_on_c, 1, 66, 0
3, 85440, Note_on_c, 1, 59, 100
3, 85920, Note_on_c, 1, 59, 0
3, 86400, Note_on_c, 1, 64, 100
3, 86880, Note_on_c, 1, 64, 0
3, 88320, Note_on_c, 1, 66, 100
3, 88800, Note_on_c, 1, 66, 0
3, 91200, Note_on_c, 1, 66, 100
3, 92160, Note_on_c, 1, 66, 0
3, 92160, Note_on_c, 1, 59, 100
3, 93120, Note_on_c, 1, 59, 0
3, 93120, Note_on_c, 1, 64, 100
3, 93600, Note_on_c, 1, 64, 0
3, 94080, Note_on_c, 1, 69, 100
3, 94560, Note_on_c, 1, 69, 0
3, 96000, Note_on_c, 1, 71, 100
3, 96960, Note_on_c, 1, 71, 0
3, 103680, Note_on_c, 1, 71, 100
3, 104640, Note_on_c, 1, 71, 0
3, 104640, Note_on_c, 1, 64, 100
3, 105120, Note_on_c, 1, 64, 0
3, 105600, Note_on_c, 1, 69, 100
3, 106080, Note_on_c, 1, 69, 0
3, 106560, Note_on_c, 1, 59, 100
3, 107040, Note_on_c, 1, 59, 0
3, 107520, Note_on_c, 1, 64, 100
3, 108480, Note_on_c, 1, 64, 0
3, 137280, Note_on_c, 1, 73, 100
3, 138240, Note_on_c, 1, 73, 0
3, 138240, Note_on_c, 1, 66, 100
3, 139200, Note_on_c, 1, 66, 0
3, 139200, Note_on_c, 1, 68, 100
3, 139680, Note_on_c, 1, 68, 0
3, 140160, Note_on_c, 1, 69, 100
3, 140640, Note_on_c, 1, 69, 0
3, 142080, Note_on_c, 1, 71, 100
3, 143040, Note_on_c, 1, 71, 0
3, 149760, Note_on_c, 1, 71, 100
3, 150720, Note_on_c, 1, 71, 0
3, 150720, Note_on_c, 1, 64, 100
3, 151200, Note_on_c, 1, 64, 0
3, 151680, Note_on_c, 1, 69, 100
3, 152160, Note_on_c, 1, 69, 0
3, 152640, Note_on_c, 1, 59, 100
3, 153120, Note_on_c, 1, 59, 0
3, 153600, Note_on_c, 1, 64, 100
3, 154560, Note_on_c, 1, 64, 0
3, 154560, Note_on_c, 1, 76, 100
3, 154800, Note_on_c, 1, 76, 0
3, 154800, Note_on_c, 1, 75, 100
3, 155040, Note_on_c, 1, 75, 0
3, 155040, Note_on_c, 1, 76, 100
3, 155520, Note_on_c, 1, 76, 0
3, 155520, Note_on_c, 1, 69, 100
3, 155760, Note_on_c, 1, 69, 0
3, 155760, Note_on_c, 1, 68, 100
3, 156000, Note_on_c, 1, 68, 0
3, 156000, Note_on_c, 1, 69, 100
3, 156480, Note_on_c, 1, 69, 0
3, 156480, Note_on_c, 1, 75, 100
3, 156720, Note_on_c, 1, 75, 0
3, 156720, Note_on_c, 1, 73, 100
3, 156960, Note_on_c, 1, 73, 0
3, 156960, Note_on_c, 1, 75, 100
3, 157440, Note_on_c, 1, 75, 0
3, 157440, Note_on_c, 1, 68, 100
3, 158400, Note_on_c, 1, 68, 0
3, 161280, Note_on_c, 1, 69, 100
3, 162240, Note_on_c, 1, 69, 0
3, 162240, Note_on_c, 1, 70, 100
3, 162480, Note_on_c, 1, 70, 0
3, 163680, Note_on_c, 1, 68, 100
3, 164160, Note_on_c, 1, 68, 0
3, 164160, Note_on_c, 1, 64, 100
3, 164640, Note_on_c, 1, 64, 0
3, 164640, Note_on_c, 1, 66, 100
3, 165120, Note_on_c, 1, 66, 0
3, 165120, Note_on_c, 1, 59, 100
3, 165600, Note_on_c, 1, 59, 0
3, 166080, Note_on_c, 1, 59, 100
3, 166320, Note_on_c, 1, 59, 0
3, 192960, Note_on_c, 1, 64, 100
3, 193440, Note_on_c, 1, 64, 0
3, 193920, Note_on_c, 1, 69, 100
3, 194400, Note_on_c, 1, 69, 0
3, 195840, Note_on_c, 1, 71, 100
3, 196800, Note_on_c, 1, 71, 0
3, 203520, Note_on_c, 1, 71, 100
3, 204480, Note_on_c, 1, 71, 0
3, 204480, Note_on_c, 1, 64, 100
3, 204960, Note_on_c, 1, 64, 0
3, 205440, Note_on_c, 1, 69, 100
3, 205920, Note_on_c, 1, 69, 0
3, 206400, Note_on_c, 1, 59, 100
3, 206880, Note_on_c, 1, 59, 0
3, 207360, Note_on_c, 1, 64, 100
3, 208320, Note_on_c, 1, 64, 0
3, 208320, End_track
4, 0, Start_track
4, 0, MIDI_port, 0
4, 0, Title_t, "Johann Sebastian Bach  (1685-1750)"
4, 0, Program_c, 2, 40
4, 0, Control_c, 2, 7, 100
4, 0, Control_c, 2, 10, 79
4, 92160, Note_on_c, 2, 66, 100
4, 93120, Note_on_c, 2, 66, 0
4, 138240, Note_on_c, 2, 73, 100
4, 139200, Note_on_c, 2, 73, 0
4, 139200, Note_on_c, 2, 71, 100
4, 139680, Note_on_c, 2, 71, 0
4, 164640, Note_on_c, 2, 73, 100
4, 165120, Note_on_c, 2, 73, 0
4, 165120, Note_on_c, 2, 66, 100
4, 165600, Note_on_c, 2, 66, 0
4, 166080, Note_on_c, 2, 66, 100
4, 166320, Note_on_c, 2, 66, 0
4, 167040, Note_on_c, 2, 64, 100
4, 167280, Note_on_c, 2, 64, 0
4, 168000, Note_on_c, 2, 64, 100
4, 168240, Note_on_c, 2, 64, 0
4, 168960, Note_on_c, 2, 63, 100
4, 169920, Note_on_c, 2, 63, 0
4, 169920, End_track
5, 0, Start_track
5, 0, MIDI_port, 0
5, 0, Title_t, "Six Sonatas and Partitas for Solo Violin"
5, 0, Program_c, 3, 40
5, 0, Control_c, 3, 7, 100
5, 0, Control_c, 3, 10, 49
5, 165120, Note_on_c, 3, 71, 100
5, 165600, Note_on_c, 3, 71, 0
5, 167040, Note_on_c, 3, 75, 100
5, 167280, Note_on_c, 3, 75, 0
5, 168960, Note_on_c, 3, 73, 100
5, 169920, Note_on_c, 3, 73, 0
5, 169920, Note_on_c, 3, 71, 100
5, 170160, Note_on_c, 3, 71, 0
5, 170880, Note_on_c, 3, 73, 100
5, 171120, Note_on_c, 3, 73, 0
5, 171840, Note_on_c, 3, 75, 100
5, 172080, Note_on_c, 3, 75, 0
5, 172800, Note_on_c, 3, 76, 100
5, 173040, Note_on_c, 3, 76, 0
5, 173040, Note_on_c, 3, 73, 100
5, 173280, Note_on_c, 3, 73, 0
5, 173280, Note_on_c, 3, 76, 100
5, 173520, Note_on_c, 3, 76, 0
5, 173520, Note_on_c, 3, 73, 100
5, 173760, Note_on_c, 3, 73, 0
5, 173760, Note_on_c, 3, 68, 100
5, 174000, Note_on_c, 3, 68, 0
5, 174000, Note_on_c, 3, 73, 100
5, 174240, Note_on_c, 3, 73, 0
5, 174240, Note_on_c, 3, 76, 100
5, 174480, Note_on_c, 3, 76, 0
5, 174480, Note_on_c, 3, 73, 100
5, 174720, Note_on_c, 3, 73, 0
5, 174720, Note_on_c, 3, 75, 100
5, 174960, Note_on_c, 3, 75, 0
5, 174960, Note_on_c, 3, 71, 100
5, 175200, Note_on_c, 3, 71, 0
5, 175200, Note_on_c, 3, 75, 100
5, 175440, Note_on_c, 3, 75, 0
5, 175440, Note_on_c, 3, 71, 100
5, 175680, Note_on_c, 3, 71, 0
5, 175680, Note_on_c, 3, 68, 100
5, 175920, Note_on_c, 3, 68, 0
5, 175920, Note_on_c, 3, 71, 100
5, 176160, Note_on_c, 3, 71, 0
5, 176160, Note_on_c, 3, 75, 100
5, 176400, Note_on_c, 3, 75, 0
5, 176400, Note_on_c, 3, 71, 100
5, 176640, Note_on_c, 3, 71, 0
5, 176640, Note_on_c, 3, 76, 100
5, 176880, Note_on_c, 3, 76, 0
5, 176880, Note_on_c, 3, 73, 100
5, 177120, Note_on_c, 3, 73, 0
5, 177120, Note_on_c, 3, 76, 100
5, 177360, Note_on_c, 3, 76, 0
5, 177360, Note_on_c, 3, 73, 100
5, 177600, Note_on_c, 3, 73, 0
5, 177600, Note_on_c, 3, 68, 100
5, 177840, Note_on_c, 3, 68, 0
5, 177840, Note_on_c, 3, 73, 100
5, 178080, Note_on_c, 3, 73, 0
5, 178080, Note_on_c, 3, 76, 100
5, 178320, Note_on_c, 3, 76, 0
5, 178320, Note_on_c, 3, 73, 100
5, 178560, Note_on_c, 3, 73, 0
5, 178560, Note_on_c, 3, 75, 100
5, 178800, Note_on_c, 3, 75, 0
5, 178800, Note_on_c, 3, 71, 100
5, 179040, Note_on_c, 3, 71, 0
5, 179040, Note_on_c, 3, 75, 100
5, 179280, Note_on_c, 3, 75, 0
5, 179280, Note_on_c, 3, 71, 100
5, 179520, Note_on_c, 3, 71, 0
5, 179520, Note_on_c, 3, 68, 100
5, 179760, Note_on_c, 3, 68, 0
5, 179760, Note_on_c, 3, 71, 100
5, 180000, Note_on_c, 3, 71, 0
5, 180000, Note_on_c, 3, 75, 100
5, 180240, Note_on_c, 3, 75, 0
5, 180240, Note_on_c, 3, 71, 100
5, 180480, Note_on_c, 3, 71, 0
5, 180480, Note_on_c, 3, 75, 100
5, 180720, Note_on_c, 3, 75, 0
5, 180720, Note_on_c, 3, 71, 100
5, 180960, Note_on_c, 3, 71, 0
5, 180960, Note_on_c, 3, 75, 100
5, 181200, Note_on_c, 3, 75, 0
5, 181200, Note_on_c, 3, 71, 100
5, 181440, Note_on_c, 3, 71, 0
5, 181440, Note_on_c, 3, 73, 100
5, 181680, Note_on_c, 3, 73, 0
5, 181680, Note_on_c, 3, 71, 100
5, 181920, Note_on_c, 3, 71, 0
5, 181920, Note_on_c, 3, 73, 100
5, 182160, Note_on_c, 3, 73, 0
5, 182160, Note_on_c, 3, 71, 100
5, 182400, Note_on_c, 3, 71, 0
5, 182400, Note_on_c, 3, 70, 100
5, 182640, Note_on_c, 3, 70, 0
5, 182640, Note_on_c, 3, 73, 100
5, 182880, Note_on_c, 3, 73, 0
5, 182880, Note_on_c, 3, 70, 100
5, 183120, Note_on_c, 3, 70, 0
5, 183120, Note_on_c, 3, 73, 100
5, 183360, Note_on_c, 3, 73, 0
5, 183360, Note_on_c, 3, 67, 100
5, 183600, Note_on_c, 3, 67, 0
5, 183600, Note_on_c, 3, 70, 100
5, 183840, Note_on_c, 3, 70, 0
5, 183840, Note_on_c, 3, 67, 100
5, 184080, Note_on_c, 3, 67, 0
5, 184080, Note_on_c, 3, 70, 100
5, 184320, Note_on_c, 3, 70, 0
5, 184320, End_track
6, 0, Start_track
6, 0, MIDI_port, 0
6, 0, Title_t, "--------------------------------------"
6, 0, End_track
7, 0, Start_track
7, 0, MIDI_port, 0
7, 0, Title_t, "Partita No. 3 in E major - BWV 1006"
7, 0, End_track
8, 0, Start_track
8, 0, MIDI_port, 0
8, 0, Title_t, "3rd Movement: Gavotte en Rondeau"
8, 0, End_track
9, 0, Start_track
9, 0, MIDI_port, 0
9, 0, Title_t, "--------------------------------------"
9, 0, End_track
10, 0, Start_track
10, 0, MIDI_port, 0
10, 0, Title_t, "Sequenced with Cakewalk Pro Audio by"
10, 0, End_track
11, 0, Start_track
11, 0, MIDI_port, 0
11, 0, Title_t, "David J. Grossman - dave@unpronounceable.com"
11, 0, End_track
12, 0, Start_track
12, 0, MIDI_port, 0
12, 0, Title_t, "This and other Bach MIDI files can be found at:"
12, 0, End_track
13, 0, Start_track
13, 0, MIDI_port, 0
13, 0, Title_t, "Dave's J.S. Bach Page"
13, 0, End_track
14, 0, Start_track
14, 0, MIDI_port, 0
14, 0, Title_t, "http://www.unpronounceable.com/bach"
14, 0, End_track
15, 0, Start_track
15, 0, MIDI_port, 0
15, 0, Title_t, "--------------------------------------"
15, 0, End_track
16, 0, Start_track
16, 0, MIDI_port, 0
16, 0, Title_t, "Original Filename: vp3-3gav.mid"
16, 0, End_track
17, 0, Start_track
17, 0, MIDI_port, 0
17, 0, Title_t, "Last Modified: February 22, 1997"
17, 0, End_track
0, 0, End_of_file
