0, 0, Header, 1, 17, 480
1, 0, Start_track
1, 0, Title_t, "untitled"
1, 0, SMPTE_offset, 96, 0, 3, 0, 0
1, 0, Time_signature, 3, 2, 24, 8
1, 0, Key_signature, 4, "major"
1, 0, Tempo, 545455
1, 0, Marker_t, "I A"
1, 11520, Marker_t, "I A'"
1, 23040, Marker_t, "I B"
1, 60480, Marker_t, "I B'"
1, 97920, Marker_t, "II A"
1, 120960, Marker_t, "II A'"
1, 144000, Marker_t, "II B"
1, 167040, Marker_t, "II B'"
1, 167040, End_track
2, 0, Start_track
2, 0, MIDI_port, 0
2, 0, Title_t, "Solo Violin"
2, 0, Program_c, 0, 40
2, 0, Control_c, 0, 7, 100
2, 0, Control_c, 0, 10, 69
2, 0, Note_on_c, 0, 80, 100
2, 480, Note_on_c, 0, 80, 0
2, 480, Note_on_c, 0, 80, 100
2, 720, Note_on_c, 0, 80, 0
2, 720, Note_on_c, 0, 78, 100
2, 960, Note_on_c, 0, 78, 0
2, 960, Note_on_c, 0, 80, 100
2, 1440, Note_on_c, 0, 80, 0
2, 1440, Note_on_c, 0, 76, 100
2, 1920, Note_on_c, 0, 76, 0
2, 2880, Note_on_c, 0, 71, 100
2, 3360, Note_on_c, 0, 71, 0
2, 3360, Note_on_c, 0, 73, 100
2, 3840, Note_on_c, 0, 73, 0
2, 3840, Note_on_c, 0, 75, 100
2, 4320, Note_on_c, 0, 75, 0
2, 4320, Note_on_c, 0, 76, 100
2, 4560, Note_on_c, 0, 76, 0
2, 4560, Note_on_c, 0, 75, 100
2, 4800, Note_on_c, 0, 75, 0
2, 4800, Note_on_c, 0, 76, 100
2, 5040, Note_on_c, 0, 76, 0
2, 5040, Note_on_c, 0, 78, 100
2, 5280, Note_on_c, 0, 78, 0
2, 5280, Note_on_c, 0, 76, 100
2, 5520, Note_on_c, 0, 76, 0
2, 5520, Note_on_c, 0, 78, 100
2, 5760, Note_on_c, 0, 78, 0
2, 5760, Note_on_c, 0, 80, 100
2, 6240, Note_on_c, 0, 80, 0
2, 6240, Note_on_c, 0, 78, 100
2, 6720, Note_on_c, 0, 78, 0
2, 6720, Note_on_c, 0, 78, 100
2, 6960, Note_on_c, 0, 78, 0
2, 6960, Note_on_c, 0, 80, 100
2, 7080, Note_on_c, 0, 80, 0
2, 7080, Note_on_c, 0, 81, 100
2, 7200, Note_on_c, 0, 81, 0
2, 7200, Note_on_c, 0, 80, 100
2, 7440, Note_on_c, 0, 80, 0
2, 7440, Note_on_c, 0, 78, 100
2, 7680, Note_on_c, 0, 78, 0
2, 7680, Note_on_c, 0, 80, 100
2, 7920, Note_on_c, 0, 80, 0
2, 7920, Note_on_c, 0, 81, 100
2, 8160, Note_on_c, 0, 81, 0
2, 8160, Note_on_c, 0, 83, 100
2, 8400, Note_on_c, 0, 83, 0
2, 8400, Note_on_c, 0, 80, 100
2, 8640, Note_on_c, 0, 80, 0
2, 8640, Note_on_c, 0, 76, 100
2, 9120, Note_on_c, 0, 76, 0
2, 9120, Note_on_c, 0, 81, 100
2, 9600, Note_on_c, 0, 81, 0
2, 9600, Note_on_c, 0, 80, 100
2, 10080, Note_on_c, 0, 80, 0
2, 10080, Note_on_c, 0, 78, 100
2, 11520, Note_on_c, 0, 78, 0
2, 11520, Note_on_c, 0, 80, 100
2, 12000, Note_on_c, 0, 80, 0
2, 12000, Note_on_c, 0, 80, 100
2, 12240, Note_on_c, 0, 80, 0
2, 12240, Note_on_c, 0, 78, 100
2, 12480, Note_on_c, 0, 78, 0
2, 12480, Note_on_c, 0, 80, 100
2, 12960, Note_on_c, 0, 80, 0
2, 12960, Note_on_c, 0, 76, 100
2, 13440, Note_on_c, 0, 76, 0
2, 14400, Note_on_c, 0, 71, 100
2, 14880, Note_on_c, 0, 71, 0
2, 14880, Note_on_c, 0, 73, 100
2, 15360, Note_on_c, 0, 73, 0
2, 15360, Note_on_c, 0, 75, 100
2, 15840, Note_on_c, 0, 75, 0
2, 15840, Note_on_c, 0, 76, 100
2, 16080, Note_on_c, 0, 76, 0
2, 16080, Note_on_c, 0, 75, 100
2, 16320, Note_on_c, 0, 75, 0
2, 16320, Note_on_c, 0, 76, 100
2, 16560, Note_on_c, 0, 76, 0
2, 16560, Note_on_c, 0, 78, 100
2, 16800, Note_on_c, 0, 78, 0
2, 16800, Note_on_c, 0, 76, 100
2, 17040, Note_on_c, 0, 76, 0
2, 17040, Note_on_c, 0, 78, 100
2, 17280, Note_on_c, 0, 78, 0
2, 17280, Note_on_c, 0, 80, 100
2, 17760, Note_on_c, 0, 80, 0
2, 17760, Note_on_c, 0, 78, 100
2, 18240, Note_on_c, 0, 78, 0
2, 18240, Note_on_c, 0, 78, 100
2, 18480, Note_on_c, 0, 78, 0
2, 18480, Note_on_c, 0, 80, 100
2, 18600, Note_on_c, 0, 80, 0
2, 18600, Note_on_c, 0, 81, 100
2, 18720, Note_on_c, 0, 81, 0
2, 18720, Note_on_c, 0, 80, 100
2, 18960, Note_on_c, 0, 80, 0
2, 18960, Note_on_c, 0, 78, 100
2, 19200, Note_on_c, 0, 78, 0
2, 19200, Note_on_c, 0, 80, 100
2, 19440, Note_on_c, 0, 80, 0
2, 19440, Note_on_c, 0, 81, 100
2, 19680, Note_on_c, 0, 81, 0
2, 19680, Note_on_c, 0, 83, 100
2, 19920, Note_on_c, 0, 83, 0
2, 19920, Note_on_c, 0, 80, 100
2, 20160, Note_on_c, 0, 80, 0
2, 20160, Note_on_c, 0, 76, 100
2, 20640, Note_on_c, 0, 76, 0
2, 20640, Note_on_c, 0, 81, 100
2, 21120, Note_on_c, 0, 81, 0
2, 21120, Note_on_c, 0, 80, 100
2, 21600, Note_on_c, 0, 80, 0
2, 21600, Note_on_c, 0, 78, 100
2, 23040, Note_on_c, 0, 78, 0
2, 23040, Note_on_c, 0, 83, 100
2, 23520, Note_on_c, 0, 83, 0
2, 23520, Note_on_c, 0, 83, 100
2, 23760, Note_on_c, 0, 83, 0
2, 23760, Note_on_c, 0, 82, 100
2, 24000, Note_on_c, 0, 82, 0
2, 24000, Note_on_c, 0, 83, 100
2, 24480, Note_on_c, 0, 83, 0
2, 24480, Note_on_c, 0, 75, 100
2, 24960, Note_on_c, 0, 75, 0
2, 24960, Note_on_c, 0, 76, 100
2, 25200, Note_on_c, 0, 76, 0
2, 25200, Note_on_c, 0, 73, 100
2, 25440, Note_on_c, 0, 73, 0
2, 25440, Note_on_c, 0, 75, 100
2, 25920, Note_on_c, 0, 75, 0
2, 25920, Note_on_c, 0, 83, 100
2, 26400, Note_on_c, 0, 83, 0
2, 26400, Note_on_c, 0, 83, 100
2, 26640, Note_on_c, 0, 83, 0
2, 26640, Note_on_c, 0, 82, 100
2, 26880, Note_on_c, 0, 82, 0
2, 26880, Note_on_c, 0, 83, 100
2, 27360, Note_on_c, 0, 83, 0
2, 28800, Note_on_c, 0, 81, 100
2, 29280, Note_on_c, 0, 81, 0
2, 29280, Note_on_c, 0, 80, 100
2, 29760, Note_on_c, 0, 80, 0
2, 29760, Note_on_c, 0, 78, 100
2, 30240, Note_on_c, 0, 78, 0
2, 30240, Note_on_c, 0, 76, 100
2, 30720, Note_on_c, 0, 76, 0
2, 30720, Note_on_c, 0, 76, 100
2, 30960, Note_on_c, 0, 76, 0
2, 30960, Note_on_c, 0, 78, 100
2, 31200, Note_on_c, 0, 78, 0
2, 31200, Note_on_c, 0, 80, 100
2, 31680, Note_on_c, 0, 80, 0
2, 31680, Note_on_c, 0, 80, 100
2, 31920, Note_on_c, 0, 80, 0
2, 31920, Note_on_c, 0, 78, 100
2, 32160, Note_on_c, 0, 78, 0
2, 32160, Note_on_c, 0, 81, 100
2, 32640, Note_on_c, 0, 81, 0
2, 32640, Note_on_c, 0, 80, 100
2, 33120, Note_on_c, 0, 80, 0
2, 33120, Note_on_c, 0, 78, 100
2, 33360, Note_on_c, 0, 78, 0
2, 33360, Note_on_c, 0, 76, 100
2, 33600, Note_on_c, 0, 76, 0
2, 33600, Note_on_c, 0, 78, 100
2, 33840, Note_on_c, 0, 78, 0
2, 33840, Note_on_c, 0, 75, 100
2, 34080, Note_on_c, 0, 75, 0
2, 34080, Note_on_c, 0, 76, 100
2, 34320, Note_on_c, 0, 76, 0
2, 34320, Note_on_c, 0, 78, 100
2, 34560, Note_on_c, 0, 78, 0
2, 34560, Note_on_c, 0, 80, 100
2, 35040, Note_on_c, 0, 80, 0
2, 36000, Note_on_c, 0, 68, 100
2, 36720, Note_on_c, 0, 68, 0
2, 48960, Note_on_c, 0, 80, 100
2, 49440, Note_on_c, 0, 80, 0
2, 49440, Note_on_c, 0, 80, 100
2, 49680, Note_on_c, 0, 80, 0
2, 49680, Note_on_c, 0, 78, 100
2, 49920, Note_on_c, 0, 78, 0
2, 49920, Note_on_c, 0, 80, 100
2, 50400, Note_on_c, 0, 80, 0
2, 50400, Note_on_c, 0, 76, 100
2, 50880, Note_on_c, 0, 76, 0
2, 57120, Note_on_c, 0, 64, 100
2, 57600, Note_on_c, 0, 64, 0
2, 57600, Note_on_c, 0, 69, 100
2, 58080, Note_on_c, 0, 69, 0
2, 58080, Note_on_c, 0, 68, 100
2, 58560, Note_on_c, 0, 68, 0
2, 58560, Note_on_c, 0, 59, 100
2, 59040, Note_on_c, 0, 59, 0
2, 59040, Note_on_c, 0, 64, 100
2, 60480, Note_on_c, 0, 64, 0
2, 60480, Note_on_c, 0, 83, 100
2, 60960, Note_on_c, 0, 83, 0
2, 60960, Note_on_c, 0, 83, 100
2, 61200, Note_on_c, 0, 83, 0
2, 61200, Note_on_c, 0, 82, 100
2, 61440, Note_on_c, 0, 82, 0
2, 61440, Note_on_c, 0, 83, 100
2, 61920, Note_on_c, 0, 83, 0
2, 61920, Note_on_c, 0, 75, 100
2, 62400, Note_on_c, 0, 75, 0
2, 62400, Note_on_c, 0, 76, 100
2, 62640, Note_on_c, 0, 76, 0
2, 62640, Note_on_c, 0, 73, 100
2, 62880, Note_on_c, 0, 73, 0
2, 62880, Note_on_c, 0, 75, 100
2, 63360, Note_on_c, 0, 75, 0
2, 63360, Note_on_c, 0, 83, 100
2, 63840, Note_on_c, 0, 83, 0
2, 63840, Note_on_c, 0, 83, 100
2, 64080, Note_on_c, 0, 83, 0
2, 64080, Note_on_c, 0, 82, 100
2, 64320, Note_on_c, 0, 82, 0
2, 64320, Note_on_c, 0, 83, 100
2, 64800, Note_on_c, 0, 83, 0
2, 66240, Note_on_c, 0, 81, 100
2, 66720, Note_on_c, 0, 81, 0
2, 66720, Note_on_c, 0, 80, 100
2, 67200, Note_on_c, 0, 80, 0
2, 67200, Note_on_c, 0, 78, 100
2, 67680, Note_on_c, 0, 78, 0
2, 67680, Note_on_c, 0, 76, 100
2, 68160, Note_on_c, 0, 76, 0
2, 68160, Note_on_c, 0, 76, 100
2, 68400, Note_on_c, 0, 76, 0
2, 68400, Note_on_c, 0, 78, 100
2, 68640, Note_on_c, 0, 78, 0
2, 68640, Note_on_c, 0, 80, 100
2, 69120, Note_on_c, 0, 80, 0
2, 69120, Note_on_c, 0, 80, 100
2, 69360, Note_on_c, 0, 80, 0
2, 69360, Note_on_c, 0, 78, 100
2, 69600, Note_on_c, 0, 78, 0
2, 69600, Note_on_c, 0, 81, 100
2, 70080, Note_on_c, 0, 81, 0
2, 70080, Note_on_c, 0, 80, 100
2, 70560, Note_on_c, 0, 80, 0
2, 70560, Note_on_c, 0, 78, 100
2, 70800, Note_on_c, 0, 78, 0
2, 70800, Note_on_c, 0, 76, 100
2, 71040, Note_on_c, 0, 76, 0
2, 71040, Note_on_c, 0, 78, 100
2, 71280, Note_on_c, 0, 78, 0
2, 71280, Note_on_c, 0, 75, 100
2, 71520, Note_on_c, 0, 75, 0
2, 71520, Note_on_c, 0, 76, 100
2, 71760, Note_on_c, 0, 76, 0
2, 71760, Note_on_c, 0, 78, 100
2, 72000, Note_on_c, 0, 78, 0
2, 72000, Note_on_c, 0, 80, 100
2, 72480, Note_on_c, 0, 80, 0
2, 73440, Note_on_c, 0, 68, 100
2, 74160, Note_on_c, 0, 68, 0
2, 86400, Note_on_c, 0, 80, 100
2, 86880, Note_on_c, 0, 80, 0
2, 86880, Note_on_c, 0, 80, 100
2, 87120, Note_on_c, 0, 80, 0
2, 87120, Note_on_c, 0, 78, 100
2, 87360, Note_on_c, 0, 78, 0
2, 87360, Note_on_c, 0, 80, 100
2, 87840, Note_on_c, 0, 80, 0
2, 87840, Note_on_c, 0, 76, 100
2, 88320, Note_on_c, 0, 76, 0
2, 94560, Note_on_c, 0, 64, 100
2, 95040, Note_on_c, 0, 64, 0
2, 95040, Note_on_c, 0, 69, 100
2, 95520, Note_on_c, 0, 69, 0
2, 95520, Note_on_c, 0, 68, 100
2, 96000, Note_on_c, 0, 68, 0
2, 96000, Note_on_c, 0, 59, 100
2, 96480, Note_on_c, 0, 59, 0
2, 96480, Note_on_c, 0, 64, 100
2, 97920, Note_on_c, 0, 64, 0
2, 97920, Note_on_c, 0, 71, 100
2, 102240, Note_on_c, 0, 71, 0
2, 102240, Note_on_c, 0, 69, 100
2, 103680, Note_on_c, 0, 69, 0
2, 109440, Note_on_c, 0, 68, 100
2, 109920, Note_on_c, 0, 68, 0
2, 109920, Note_on_c, 0, 69, 100
2, 110160, Note_on_c, 0, 69, 0
2, 110160, Note_on_c, 0, 68, 100
2, 110400, Note_on_c, 0, 68, 0
2, 110400, Note_on_c, 0, 66, 100
2, 110640, Note_on_c, 0, 66, 0
2, 110640, Note_on_c, 0, 64, 100
2, 110880, Note_on_c, 0, 64, 0
2, 110880, Note_on_c, 0, 66, 100
2, 111120, Note_on_c, 0, 66, 0
2, 111120, Note_on_c, 0, 68, 100
2, 111360, Note_on_c, 0, 68, 0
2, 111360, Pitch_bend_c, 0, 4096
2, 111360, Note_on_c, 0, 69, 100
2, 111600, Pitch_bend_c, 0, 8192
2, 112320, Note_on_c, 0, 69, 0
2, 112320, Note_on_c, 0, 68, 100
2, 112560, Note_on_c, 0, 68, 0
2, 112560, Note_on_c, 0, 64, 100
2, 112800, Note_on_c, 0, 64, 0
2, 112800, Note_on_c, 0, 64, 100
2, 113040, Note_on_c, 0, 64, 0
2, 113040, Note_on_c, 0, 68, 100
2, 113280, Note_on_c, 0, 68, 0
2, 113280, Note_on_c, 0, 68, 100
2, 113520, Note_on_c, 0, 68, 0
2, 113520, Note_on_c, 0, 71, 100
2, 113760, Note_on_c, 0, 71, 0
2, 113760, Note_on_c, 0, 70, 100
2, 114000, Note_on_c, 0, 70, 0
2, 114000, Note_on_c, 0, 71, 100
2, 114240, Note_on_c, 0, 71, 0
2, 114240, Note_on_c, 0, 73, 100
2, 114720, Note_on_c, 0, 73, 0
2, 114720, Note_on_c, 0, 66, 100
2, 115200, Note_on_c, 0, 66, 0
2, 115200, Note_on_c, 0, 71, 100
2, 115440, Note_on_c, 0, 71, 0
2, 115440, Note_on_c, 0, 75, 100
2, 115680, Note_on_c, 0, 75, 0
2, 115680, Note_on_c, 0, 75, 100
2, 115920, Note_on_c, 0, 75, 0
2, 115920, Note_on_c, 0, 78, 100
2, 116160, Note_on_c, 0, 78, 0
2, 116160, Note_on_c, 0, 78, 100
2, 116400, Note_on_c, 0, 78, 0
2, 116400, Note_on_c, 0, 83, 100
2, 116640, Note_on_c, 0, 83, 0
2, 116640, Note_on_c, 0, 73, 100
2, 116880, Note_on_c, 0, 73, 0
2, 116880, Note_on_c, 0, 75, 100
2, 117120, Note_on_c, 0, 75, 0
2, 117120, Note_on_c, 0, 76, 100
2, 117360, Note_on_c, 0, 76, 0
2, 117360, Note_on_c, 0, 80, 100
2, 117600, Note_on_c, 0, 80, 0
2, 117600, Note_on_c, 0, 70, 100
2, 117840, Note_on_c, 0, 70, 0
2, 117840, Note_on_c, 0, 78, 100
2, 118080, Note_on_c, 0, 78, 0
2, 118080, Note_on_c, 0, 76, 100
2, 118320, Note_on_c, 0, 76, 0
2, 118320, Note_on_c, 0, 75, 100
2, 118560, Note_on_c, 0, 75, 0
2, 118560, Note_on_c, 0, 73, 100
2, 118800, Note_on_c, 0, 73, 0
2, 118800, Note_on_c, 0, 71, 100
2, 119040, Note_on_c, 0, 71, 0
2, 119040, Note_on_c, 0, 66, 100
2, 119280, Note_on_c, 0, 66, 0
2, 119280, Note_on_c, 0, 70, 100
2, 119520, Note_on_c, 0, 70, 0
2, 119520, Note_on_c, 0, 59, 100
2, 120960, Note_on_c, 0, 59, 0
2, 120960, Note_on_c, 0, 71, 100
2, 125280, Note_on_c, 0, 71, 0
2, 125280, Note_on_c, 0, 69, 100
2, 126720, Note_on_c, 0, 69, 0
2, 132480, Note_on_c, 0, 68, 100
2, 132960, Note_on_c, 0, 68, 0
2, 132960, Note_on_c, 0, 69, 100
2, 133200, Note_on_c, 0, 69, 0
2, 133200, Note_on_c, 0, 68, 100
2, 133440, Note_on_c, 0, 68, 0
2, 133440, Note_on_c, 0, 66, 100
2, 133680, Note_on_c, 0, 66, 0
2, 133680, Note_on_c, 0, 64, 100
2, 133920, Note_on_c, 0, 64, 0
2, 133920, Note_on_c, 0, 66, 100
2, 134160, Note_on_c, 0, 66, 0
2, 134160, Note_on_c, 0, 68, 100
2, 134400, Note_on_c, 0, 68, 0
2, 134400, Pitch_bend_c, 0, 4096
2, 134400, Note_on_c, 0, 69, 100
2, 134640, Pitch_bend_c, 0, 8192
2, 135360, Note_on_c, 0, 69, 0
2, 135360, Note_on_c, 0, 68, 100
2, 135600, Note_on_c, 0, 68, 0
2, 135600, Note_on_c, 0, 64, 100
2, 135840, Note_on_c, 0, 64, 0
2, 135840, Note_on_c, 0, 64, 100
2, 136080, Note_on_c, 0, 64, 0
2, 136080, Note_on_c, 0, 68, 100
2, 136320, Note_on_c, 0, 68, 0
2, 136320, Note_on_c, 0, 68, 100
2, 136560, Note_on_c, 0, 68, 0
2, 136560, Note_on_c, 0, 71, 100
2, 136800, Note_on_c, 0, 71, 0
2, 136800, Note_on_c, 0, 70, 100
2, 137040, Note_on_c, 0, 70, 0
2, 137040, Note_on_c, 0, 71, 100
2, 137280, Note_on_c, 0, 71, 0
2, 137280, Note_on_c, 0, 73, 100
2, 137760, Note_on_c, 0, 73, 0
2, 137760, Note_on_c, 0, 66, 100
2, 138240, Note_on_c, 0, 66, 0
2, 138240, Note_on_c, 0, 71, 100
2, 138480, Note_on_c, 0, 71, 0
2, 138480, Note_on_c, 0, 75, 100
2, 138720, Note_on_c, 0, 75, 0
2, 138720, Note_on_c, 0, 75, 100
2, 138960, Note_on_c, 0, 75, 0
2, 138960, Note_on_c, 0, 78, 100
2, 139200, Note_on_c, 0, 78, 0
2, 139200, Note_on_c, 0, 78, 100
2, 139440, Note_on_c, 0, 78, 0
2, 139440, Note_on_c, 0, 83, 100
2, 139680, Note_on_c, 0, 83, 0
2, 139680, Note_on_c, 0, 73, 100
2, 139920, Note_on_c, 0, 73, 0
2, 139920, Note_on_c, 0, 75, 100
2, 140160, Note_on_c, 0, 75, 0
2, 140160, Note_on_c, 0, 76, 100
2, 140400, Note_on_c, 0, 76, 0
2, 140400, Note_on_c, 0, 80, 100
2, 140640, Note_on_c, 0, 80, 0
2, 140640, Note_on_c, 0, 70, 100
2, 140880, Note_on_c, 0, 70, 0
2, 140880, Note_on_c, 0, 78, 100
2, 141120, Note_on_c, 0, 78, 0
2, 141120, Note_on_c, 0, 76, 100
2, 141360, Note_on_c, 0, 76, 0
2, 141360, Note_on_c, 0, 75, 100
2, 141600, Note_on_c, 0, 75, 0
2, 141600, Note_on_c, 0, 73, 100
2, 141840, Note_on_c, 0, 73, 0
2, 141840, Note_on_c, 0, 71, 100
2, 142080, Note_on_c, 0, 71, 0
2, 142080, Note_on_c, 0, 66, 100
2, 142320, Note_on_c, 0, 66, 0
2, 142320, Note_on_c, 0, 70, 100
2, 142560, Note_on_c, 0, 70, 0
2, 142560, Note_on_c, 0, 59, 100
2, 144000, Note_on_c, 0, 59, 0
2, 144000, Note_on_c, 0, 69, 100
2, 144480, Note_on_c, 0, 69, 0
2, 145440, Note_on_c, 0, 68, 100
2, 145920, Note_on_c, 0, 68, 0
2, 155520, Note_on_c, 0, 75, 100
2, 156000, Note_on_c, 0, 75, 0
2, 156960, Note_on_c, 0, 76, 100
2, 157440, Note_on_c, 0, 76, 0
2, 161280, Note_on_c, 0, 80, 100
2, 161760, Note_on_c, 0, 80, 0
2, 161760, Note_on_c, 0, 81, 100
2, 162000, Note_on_c, 0, 81, 0
2, 162000, Note_on_c, 0, 80, 100
2, 162240, Note_on_c, 0, 80, 0
2, 162240, Note_on_c, 0, 78, 100
2, 162480, Note_on_c, 0, 78, 0
2, 162480, Note_on_c, 0, 76, 100
2, 162720, Note_on_c, 0, 76, 0
2, 162720, Note_on_c, 0, 78, 100
2, 162960, Note_on_c, 0, 78, 0
2, 162960, Note_on_c, 0, 75, 100
2, 163200, Note_on_c, 0, 75, 0
2, 163200, Note_on_c, 0, 83, 100
2, 164160, Note_on_c, 0, 83, 0
2, 167040, Note_on_c, 0, 69, 100
2, 167520, Note_on_c, 0, 69, 0
2, 168480, Note_on_c, 0, 68, 100
2, 168960, Note_on_c, 0, 68, 0
2, 178560, Note_on_c, 0, 75, 100
2, 179040, Note_on_c, 0, 75, 0
2, 180000, Note_on_c, 0, 76, 100
2, 180480, Note_on_c, 0, 76, 0
2, 184320, Note_on_c, 0, 80, 100
2, 184800, Note_on_c, 0, 80, 0
2, 184800, Note_on_c, 0, 81, 100
2, 185040, Note_on_c, 0, 81, 0
2, 185040, Note_on_c, 0, 80, 100
2, 185280, Note_on_c, 0, 80, 0
2, 185280, Note_on_c, 0, 78, 100
2, 185520, Note_on_c, 0, 78, 0
2, 185520, Note_on_c, 0, 76, 100
2, 185760, Note_on_c, 0, 76, 0
2, 185760, Note_on_c, 0, 78, 100
2, 186000, Note_on_c, 0, 78, 0
2, 186000, Note_on_c, 0, 75, 100
2, 186240, Note_on_c, 0, 75, 0
2, 186240, Note_on_c, 0, 83, 100
2, 187200, Note_on_c, 0, 83, 0
2, 187200, End_track
3, 0, Start_track
3, 0, MIDI_port, 0
3, 0, Title_t, "--------------------------------------"
3, 0, Program_c, 1, 40
3, 0, Control_c, 1, 7, 100
3, 0, Control_c, 1, 10, 59
3, 0, Note_on_c, 1, 76, 100
3, 480, Note_on_c, 1, 76, 0
3, 480, Note_on_c, 1, 75, 100
3, 960, Note_on_c, 1, 75, 0
3, 960, Note_on_c, 1, 71, 100
3, 1440, Note_on_c, 1, 71, 0
3, 1440, Note_on_c, 1, 73, 100
3, 1920, Note_on_c, 1, 73, 0
3, 1920, Note_on_c, 1, 78, 100
3, 2160, Note_on_c, 1, 78, 0
3, 2160, Note_on_c, 1, 75, 100
3, 2400, Note_on_c, 1, 75, 0
3, 2400, Note_on_c, 1, 76, 100
3, 2880, Note_on_c, 1, 76, 0
3, 2880, Note_on_c, 1, 68, 100
3, 3360, Note_on_c, 1, 68, 0
3, 3360, Note_on_c, 1, 69, 100
3, 3840, Note_on_c, 1, 69, 0
3, 3840, Note_on_c, 1, 66, 100
3, 4320, Note_on_c, 1, 66, 0
3, 4320, Note_on_c, 1, 64, 100
3, 4560, Note_on_c, 1, 64, 0
3, 5760, Note_on_c, 1, 76, 100
3, 6240, Note_on_c, 1, 76, 0
3, 6240, Note_on_c, 1, 75, 100
3, 6720, Note_on_c, 1, 75, 0
3, 6720, Note_on_c, 1, 71, 100
3, 7200, Note_on_c, 1, 71, 0
3, 7200, Note_on_c, 1, 76, 100
3, 7440, Note_on_c, 1, 76, 0
3, 8640, Note_on_c, 1, 73, 100
3, 9120, Note_on_c, 1, 73, 0
3, 9120, Note_on_c, 1, 75, 100
3, 9600, Note_on_c, 1, 75, 0
3, 9600, Note_on_c, 1, 76, 100
3, 10080, Note_on_c, 1, 76, 0
3, 10080, Note_on_c, 1, 71, 100
3, 11520, Note_on_c, 1, 71, 0
3, 11520, Note_on_c, 1, 76, 100
3, 12000, Note_on_c, 1, 76, 0
3, 12000, Note_on_c, 1, 75, 100
3, 12480, Note_on_c, 1, 75, 0
3, 12480, Note_on_c, 1, 71, 100
3, 12960, Note_on_c, 1, 71, 0
3, 12960, Note_on_c, 1, 73, 100
3, 13440, Note_on_c, 1, 73, 0
3, 13440, Note_on_c, 1, 78, 100
3, 13680, Note_on_c, 1, 78, 0
3, 13680, Note_on_c, 1, 75, 100
3, 13920, Note_on_c, 1, 75, 0
3, 13920, Note_on_c, 1, 76, 100
3, 14400, Note_on_c, 1, 76, 0
3, 14400, Note_on_c, 1, 68, 100
3, 14880, Note_on_c, 1, 68, 0
3, 14880, Note_on_c, 1, 69, 100
3, 15360, Note_on_c, 1, 69, 0
3, 15360, Note_on_c, 1, 66, 100
3, 15840, Note_on_c, 1, 66, 0
3, 15840, Note_on_c, 1, 64, 100
3, 16080, Note_on_c, 1, 64, 0
3, 17280, Note_on_c, 1, 76, 100
3, 17760, Note_on_c, 1, 76, 0
3, 17760, Note_on_c, 1, 75, 100
3, 18240, Note_on_c, 1, 75, 0
3, 18240, Note_on_c, 1, 71, 100
3, 18720, Note_on_c, 1, 71, 0
3, 18720, Note_on_c, 1, 76, 100
3, 18960, Note_on_c, 1, 76, 0
3, 20160, Note_on_c, 1, 73, 100
3, 20640, Note_on_c, 1, 73, 0
3, 20640, Note_on_c, 1, 75, 100
3, 21120, Note_on_c, 1, 75, 0
3, 21120, Note_on_c, 1, 76, 100
3, 21600, Note_on_c, 1, 76, 0
3, 21600, Note_on_c, 1, 71, 100
3, 23040, Note_on_c, 1, 71, 0
3, 23040, Note_on_c, 1, 75, 100
3, 23520, Note_on_c, 1, 75, 0
3, 23520, Note_on_c, 1, 73, 100
3, 24000, Note_on_c, 1, 73, 0
3, 24000, Note_on_c, 1, 71, 100
3, 24480, Note_on_c, 1, 71, 0
3, 24480, Note_on_c, 1, 69, 100
3, 24960, Note_on_c, 1, 69, 0
3, 25920, Note_on_c, 1, 68, 100
3, 26400, Note_on_c, 1, 68, 0
3, 26400, Note_on_c, 1, 66, 100
3, 26880, Note_on_c, 1, 66, 0
3, 26880, Note_on_c, 1, 64, 100
3, 27360, Note_on_c, 1, 64, 0
3, 27360, Note_on_c, 1, 63, 100
3, 28800, Note_on_c, 1, 63, 0
3, 28800, Note_on_c, 1, 63, 100
3, 29280, Note_on_c, 1, 63, 0
3, 30240, Note_on_c, 1, 61, 100
3, 30720, Note_on_c, 1, 61, 0
3, 36720, Note_on_c, 1, 76, 100
3, 36960, Note_on_c, 1, 76, 0
3, 36960, Note_on_c, 1, 75, 100
3, 37200, Note_on_c, 1, 75, 0
3, 37200, Note_on_c, 1, 78, 100
3, 37440, Note_on_c, 1, 78, 0
3, 37440, Note_on_c, 1, 68, 100
3, 37680, Note_on_c, 1, 68, 0
3, 37680, Note_on_c, 1, 69, 100
3, 37920, Note_on_c, 1, 69, 0
3, 37920, Note_on_c, 1, 71, 100
3, 38160, Note_on_c, 1, 71, 0
3, 38160, Note_on_c, 1, 73, 100
3, 38400, Note_on_c, 1, 73, 0
3, 38400, Note_on_c, 1, 74, 100
3, 38640, Note_on_c, 1, 74, 0
3, 38640, Note_on_c, 1, 64, 100
3, 38880, Note_on_c, 1, 64, 0
3, 38880, Note_on_c, 1, 57, 100
3, 39120, Note_on_c, 1, 57, 0
3, 39120, Note_on_c, 1, 64, 100
3, 39360, Note_on_c, 1, 64, 0
3, 39360, Note_on_c, 1, 74, 100
3, 39600, Note_on_c, 1, 74, 0
3, 39600, Note_on_c, 1, 71, 100
3, 39840, Note_on_c, 1, 71, 0
3, 39840, Note_on_c, 1, 73, 100
3, 40080, Note_on_c, 1, 73, 0
3, 40080, Note_on_c, 1, 69, 100
3, 40320, Note_on_c, 1, 69, 0
3, 40320, Note_on_c, 1, 66, 100
3, 40560, Note_on_c, 1, 66, 0
3, 40560, Note_on_c, 1, 68, 100
3, 40800, Note_on_c, 1, 68, 0
3, 40800, Note_on_c, 1, 69, 100
3, 41040, Note_on_c, 1, 69, 0
3, 41040, Note_on_c, 1, 71, 100
3, 41280, Note_on_c, 1, 71, 0
3, 41280, Note_on_c, 1, 73, 100
3, 41520, Note_on_c, 1, 73, 0
3, 41520, Note_on_c, 1, 69, 100
3, 41760, Note_on_c, 1, 69, 0
3, 41760, Note_on_c, 1, 56, 100
3, 42000, Note_on_c, 1, 56, 0
3, 42000, Note_on_c, 1, 66, 100
3, 42240, Note_on_c, 1, 66, 0
3, 42240, Note_on_c, 1, 73, 100
3, 42480, Note_on_c, 1, 73, 0
3, 42480, Note_on_c, 1, 69, 100
3, 42720, Note_on_c, 1, 69, 0
3, 42720, Note_on_c, 1, 71, 100
3, 42960, Note_on_c, 1, 71, 0
3, 42960, Note_on_c, 1, 68, 100
3, 43200, Note_on_c, 1, 68, 0
3, 43200, Note_on_c, 1, 64, 100
3, 43440, Note_on_c, 1, 64, 0
3, 43440, Note_on_c, 1, 66, 100
3, 43680, Note_on_c, 1, 66, 0
3, 43680, Note_on_c, 1, 68, 100
3, 43920, Note_on_c, 1, 68, 0
3, 43920, Note_on_c, 1, 69, 100
3, 44160, Note_on_c, 1, 69, 0
3, 44160, Note_on_c, 1, 71, 100
3, 44400, Note_on_c, 1, 71, 0
3, 44400, Note_on_c, 1, 68, 100
3, 44640, Note_on_c, 1, 68, 0
3, 44640, Note_on_c, 1, 69, 100
3, 44880, Note_on_c, 1, 69, 0
3, 44880, Note_on_c, 1, 64, 100
3, 45120, Note_on_c, 1, 64, 0
3, 45120, Note_on_c, 1, 66, 100
3, 45360, Note_on_c, 1, 66, 0
3, 45360, Note_on_c, 1, 69, 100
3, 45600, Note_on_c, 1, 69, 0
3, 45600, Note_on_c, 1, 63, 100
3, 45840, Note_on_c, 1, 63, 0
3, 45840, Note_on_c, 1, 66, 100
3, 46080, Note_on_c, 1, 66, 0
3, 46080, Note_on_c, 1, 68, 100
3, 46320, Note_on_c, 1, 68, 0
3, 46320, Note_on_c, 1, 71, 100
3, 46560, Note_on_c, 1, 71, 0
3, 46560, Note_on_c, 1, 73, 100
3, 46800, Note_on_c, 1, 73, 0
3, 46800, Note_on_c, 1, 76, 100
3, 47040, Note_on_c, 1, 76, 0
3, 47040, Note_on_c, 1, 78, 100
3, 47280, Note_on_c, 1, 78, 0
3, 47280, Note_on_c, 1, 81, 100
3, 47520, Note_on_c, 1, 81, 0
3, 47520, Note_on_c, 1, 76, 100
3, 47760, Note_on_c, 1, 76, 0
3, 47760, Note_on_c, 1, 75, 100
3, 48000, Note_on_c, 1, 75, 0
3, 48000, Note_on_c, 1, 76, 100
3, 48240, Note_on_c, 1, 76, 0
3, 48240, Note_on_c, 1, 75, 100
3, 48480, Note_on_c, 1, 75, 0
3, 48480, Note_on_c, 1, 73, 100
3, 48720, Note_on_c, 1, 73, 0
3, 48720, Note_on_c, 1, 71, 100
3, 48960, Note_on_c, 1, 71, 0
3, 48960, Note_on_c, 1, 76, 100
3, 49440, Note_on_c, 1, 76, 0
3, 49440, Note_on_c, 1, 75, 100
3, 49920, Note_on_c, 1, 75, 0
3, 49920, Note_on_c, 1, 71, 100
3, 50400, Note_on_c, 1, 71, 0
3, 50400, Note_on_c, 1, 73, 100
3, 50880, Note_on_c, 1, 73, 0
3, 50880, Note_on_c, 1, 78, 100
3, 51120, Note_on_c, 1, 78, 0
3, 51120, Note_on_c, 1, 75, 100
3, 51360, Note_on_c, 1, 75, 0
3, 51360, Note_on_c, 1, 76, 100
3, 51840, Note_on_c, 1, 76, 0
3, 51840, Note_on_c, 1, 68, 100
3, 52080, Note_on_c, 1, 68, 0
3, 52080, Note_on_c, 1, 71, 100
3, 52320, Note_on_c, 1, 71, 0
3, 52320, Note_on_c, 1, 64, 100
3, 52560, Note_on_c, 1, 64, 0
3, 52560, Note_on_c, 1, 68, 100
3, 52800, Note_on_c, 1, 68, 0
3, 52800, Note_on_c, 1, 71, 100
3, 53040, Note_on_c, 1, 71, 0
3, 53040, Note_on_c, 1, 74, 100
3, 53280, Note_on_c, 1, 74, 0
3, 53280, Note_on_c, 1, 57, 100
3, 53520, Note_on_c, 1, 57, 0
3, 53520, Note_on_c, 1, 64, 100
3, 53760, Note_on_c, 1, 64, 0
3, 53760, Note_on_c, 1, 74, 100
3, 54000, Note_on_c, 1, 74, 0
3, 54000, Note_on_c, 1, 71, 100
3, 54240, Note_on_c, 1, 71, 0
3, 54240, Note_on_c, 1, 73, 100
3, 54480, Note_on_c, 1, 73, 0
3, 54480, Note_on_c, 1, 69, 100
3, 54720, Note_on_c, 1, 69, 0
3, 54720, Note_on_c, 1, 66, 100
3, 54960, Note_on_c, 1, 66, 0
3, 54960, Note_on_c, 1, 76, 100
3, 55200, Note_on_c, 1, 76, 0
3, 55200, Note_on_c, 1, 75, 100
3, 55440, Note_on_c, 1, 75, 0
3, 55440, Note_on_c, 1, 78, 100
3, 55680, Note_on_c, 1, 78, 0
3, 55680, Note_on_c, 1, 81, 100
3, 55920, Note_on_c, 1, 81, 0
3, 55920, Note_on_c, 1, 64, 100
3, 56160, Note_on_c, 1, 64, 0
3, 56160, Note_on_c, 1, 63, 100
3, 56400, Note_on_c, 1, 63, 0
3, 56400, Note_on_c, 1, 71, 100
3, 56640, Note_on_c, 1, 71, 0
3, 56640, Note_on_c, 1, 78, 100
3, 56880, Note_on_c, 1, 78, 0
3, 56880, Note_on_c, 1, 81, 100
3, 57120, Note_on_c, 1, 81, 0
3, 57120, Note_on_c, 1, 80, 100
3, 57600, Note_on_c, 1, 80, 0
3, 57600, Note_on_c, 1, 78, 100
3, 58080, Note_on_c, 1, 78, 0
3, 58560, Note_on_c, 1, 75, 100
3, 59040, Note_on_c, 1, 75, 0
3, 59040, Note_on_c, 1, 76, 100
3, 60480, Note_on_c, 1, 76, 0
3, 60480, Note_on_c, 1, 75, 100
3, 60960, Note_on_c, 1, 75, 0
3, 60960, Note_on_c, 1, 73, 100
3, 61440, Note_on_c, 1, 73, 0
3, 61440, Note_on_c, 1, 71, 100
3, 61920, Note_on_c, 1, 71, 0
3, 61920, Note_on_c, 1, 69, 100
3, 62400, Note_on_c, 1, 69, 0
3, 63360, Note_on_c, 1, 68, 100
3, 63840, Note_on_c, 1, 68, 0
3, 63840, Note_on_c, 1, 66, 100
3, 64320, Note_on_c, 1, 66, 0
3, 64320, Note_on_c, 1, 64, 100
3, 64800, Note_on_c, 1, 64, 0
3, 64800, Note_on_c, 1, 63, 100
3, 66240, Note_on_c, 1, 63, 0
3, 66240, Note_on_c, 1, 63, 100
3, 66720, Note_on_c, 1, 63, 0
3, 67680, Note_on_c, 1, 61, 100
3, 68160, Note_on_c, 1, 61, 0
3, 74160, Note_on_c, 1, 76, 100
3, 74400, Note_on_c, 1, 76, 0
3, 74400, Note_on_c, 1, 75, 100
3, 74640, Note_on_c, 1, 75, 0
3, 74640, Note_on_c, 1, 78, 100
3, 74880, Note_on_c, 1, 78, 0
3, 74880, Note_on_c, 1, 68, 100
3, 75120, Note_on_c, 1, 68, 0
3, 75120, Note_on_c, 1, 69, 100
3, 75360, Note_on_c, 1, 69, 0
3, 75360, Note_on_c, 1, 71, 100
3, 75600, Note_on_c, 1, 71, 0
3, 75600, Note_on_c, 1, 73, 100
3, 75840, Note_on_c, 1, 73, 0
3, 75840, Note_on_c, 1, 74, 100
3, 76080, Note_on_c, 1, 74, 0
3, 76080, Note_on_c, 1, 64, 100
3, 76320, Note_on_c, 1, 64, 0
3, 76320, Note_on_c, 1, 57, 100
3, 76560, Note_on_c, 1, 57, 0
3, 76560, Note_on_c, 1, 64, 100
3, 76800, Note_on_c, 1, 64, 0
3, 76800, Note_on_c, 1, 74, 100
3, 77040, Note_on_c, 1, 74, 0
3, 77040, Note_on_c, 1, 71, 100
3, 77280, Note_on_c, 1, 71, 0
3, 77280, Note_on_c, 1, 73, 100
3, 77520, Note_on_c, 1, 73, 0
3, 77520, Note_on_c, 1, 69, 100
3, 77760, Note_on_c, 1, 69, 0
3, 77760, Note_on_c, 1, 66, 100
3, 78000, Note_on_c, 1, 66, 0
3, 78000, Note_on_c, 1, 68, 100
3, 78240, Note_on_c, 1, 68, 0
3, 78240, Note_on_c, 1, 69, 100
3, 78480, Note_on_c, 1, 69, 0
3, 78480, Note_on_c, 1, 71, 100
3, 78720, Note_on_c, 1, 71, 0
3, 78720, Note_on_c, 1, 73, 100
3, 78960, Note_on_c, 1, 73, 0
3, 78960, Note_on_c, 1, 69, 100
3, 79200, Note_on_c, 1, 69, 0
3, 79200, Note_on_c, 1, 56, 100
3, 79440, Note_on_c, 1, 56, 0
3, 79440, Note_on_c, 1, 66, 100
3, 79680, Note_on_c, 1, 66, 0
3, 79680, Note_on_c, 1, 73, 100
3, 79920, Note_on_c, 1, 73, 0
3, 79920, Note_on_c, 1, 69, 100
3, 80160, Note_on_c, 1, 69, 0
3, 80160, Note_on_c, 1, 71, 100
3, 80400, Note_on_c, 1, 71, 0
3, 80400, Note_on_c, 1, 68, 100
3, 80640, Note_on_c, 1, 68, 0
3, 80640, Note_on_c, 1, 64, 100
3, 80880, Note_on_c, 1, 64, 0
3, 80880, Note_on_c, 1, 66, 100
3, 81120, Note_on_c, 1, 66, 0
3, 81120, Note_on_c, 1, 68, 100
3, 81360, Note_on_c, 1, 68, 0
3, 81360, Note_on_c, 1, 69, 100
3, 81600, Note_on_c, 1, 69, 0
3, 81600, Note_on_c, 1, 71, 100
3, 81840, Note_on_c, 1, 71, 0
3, 81840, Note_on_c, 1, 68, 100
3, 82080, Note_on_c, 1, 68, 0
3, 82080, Note_on_c, 1, 69, 100
3, 82320, Note_on_c, 1, 69, 0
3, 82320, Note_on_c, 1, 64, 100
3, 82560, Note_on_c, 1, 64, 0
3, 82560, Note_on_c, 1, 66, 100
3, 82800, Note_on_c, 1, 66, 0
3, 82800, Note_on_c, 1, 69, 100
3, 83040, Note_on_c, 1, 69, 0
3, 83040, Note_on_c, 1, 63, 100
3, 83280, Note_on_c, 1, 63, 0
3, 83280, Note_on_c, 1, 66, 100
3, 83520, Note_on_c, 1, 66, 0
3, 83520, Note_on_c, 1, 68, 100
3, 83760, Note_on_c, 1, 68, 0
3, 83760, Note_on_c, 1, 71, 100
3, 84000, Note_on_c, 1, 71, 0
3, 84000, Note_on_c, 1, 73, 100
3, 84240, Note_on_c, 1, 73, 0
3, 84240, Note_on_c, 1, 76, 100
3, 84480, Note_on_c, 1, 76, 0
3, 84480, Note_on_c, 1, 78, 100
3, 84720, Note_on_c, 1, 78, 0
3, 84720, Note_on_c, 1, 81, 100
3, 84960, Note_on_c, 1, 81, 0
3, 84960, Note_on_c, 1, 76, 100
3, 85200, Note_on_c, 1, 76, 0
3, 85200, Note_on_c, 1, 75, 100
3, 85440, Note_on_c, 1, 75, 0
3, 85440, Note_on_c, 1, 76, 100
3, 85680, Note_on_c, 1, 76, 0
3, 85680, Note_on_c, 1, 75, 100
3, 85920, Note_on_c, 1, 75, 0
3, 85920, Note_on_c, 1, 73, 100
3, 86160, Note_on_c, 1, 73, 0
3, 86160, Note_on_c, 1, 71, 100
3, 86400, Note_on_c, 1, 71, 0
3, 86400, Note_on_c, 1, 76, 100
3, 86880, Note_on_c, 1, 76, 0
3, 86880, Note_on_c, 1, 75, 100
3, 87360, Note_on_c, 1, 75, 0
3, 87360, Note_on_c, 1, 71, 100
3, 87840, Note_on_c, 1, 71, 0
3, 87840, Note_on_c, 1, 73, 100
3, 88320, Note_on_c, 1, 73, 0
3, 88320, Note_on_c, 1, 78, 100
3, 88560, Note_on_c, 1, 78, 0
3, 88560, Note_on_c, 1, 75, 100
3, 88800, Note_on_c, 1, 75, 0
3, 88800, Note_on_c, 1, 76, 100
3, 89280, Note_on_c, 1, 76, 0
3, 89280, Note_on_c, 1, 68, 100
3, 89520, Note_on_c, 1, 68, 0
3, 89520, Note_on_c, 1, 71, 100
3, 89760, Note_on_c, 1, 71, 0
3, 89760, Note_on_c, 1, 64, 100
3, 90000, Note_on_c, 1, 64, 0
3, 90000, Note_on_c, 1, 68, 100
3, 90240, Note_on_c, 1, 68, 0
3, 90240, Note_on_c, 1, 71, 100
3, 90480, Note_on_c, 1, 71, 0
3, 90480, Note_on_c, 1, 74, 100
3, 90720, Note_on_c, 1, 74, 0
3, 90720, Note_on_c, 1, 57, 100
3, 90960, Note_on_c, 1, 57, 0
3, 90960, Note_on_c, 1, 64, 100
3, 91200, Note_on_c, 1, 64, 0
3, 91200, Note_on_c, 1, 74, 100
3, 91440, Note_on_c, 1, 74, 0
3, 91440, Note_on_c, 1, 71, 100
3, 91680, Note_on_c, 1, 71, 0
3, 91680, Note_on_c, 1, 73, 100
3, 91920, Note_on_c, 1, 73, 0
3, 91920, Note_on_c, 1, 69, 100
3, 92160, Note_on_c, 1, 69, 0
3, 92160, Note_on_c, 1, 66, 100
3, 92400, Note_on_c, 1, 66, 0
3, 92400, Note_on_c, 1, 76, 100
3, 92640, Note_on_c, 1, 76, 0
3, 92640, Note_on_c, 1, 75, 100
3, 92880, Note_on_c, 1, 75, 0
3, 92880, Note_on_c, 1, 78, 100
3, 93120, Note_on_c, 1, 78, 0
3, 93120, Note_on_c, 1, 81, 100
3, 93360, Note_on_c, 1, 81, 0
3, 93360, Note_on_c, 1, 64, 100
3, 93600, Note_on_c, 1, 64, 0
3, 93600, Note_on_c, 1, 63, 100
3, 93840, Note_on_c, 1, 63, 0
3, 93840, Note_on_c, 1, 71, 100
3, 94080, Note_on_c, 1, 71, 0
3, 94080, Note_on_c, 1, 78, 100
3, 94320, Note_on_c, 1, 78, 0
3, 94320, Note_on_c, 1, 81, 100
3, 94560, Note_on_c, 1, 81, 0
3, 94560, Note_on_c, 1, 80, 100
3, 95040, Note_on_c, 1, 80, 0
3, 95040, Note_on_c, 1, 78, 100
3, 95520, Note_on_c, 1, 78, 0
3, 96000, Note_on_c, 1, 75, 100
3, 96480, Note_on_c, 1, 75, 0
3, 96480, Note_on_c, 1, 76, 100
3, 97920, Note_on_c, 1, 76, 0
3, 97920, Note_on_c, 1, 68, 100
3, 98400, Note_on_c, 1, 68, 0
3, 98400, Note_on_c, 1, 69, 100
3, 98640, Note_on_c, 1, 69, 0
3, 98640, Note_on_c, 1, 68, 100
3, 98880, Note_on_c, 1, 68, 0
3, 98880, Note_on_c, 1, 66, 100
3, 99120, Note_on_c, 1, 66, 0
3, 99120, Note_on_c, 1, 64, 100
3, 99360, Note_on_c, 1, 64, 0
3, 99360, Note_on_c, 1, 66, 100
3, 99600, Note_on_c, 1, 66, 0
3, 99600, Note_on_c, 1, 68, 100
3, 99840, Note_on_c, 1, 68, 0
3, 99840, Note_on_c, 1, 69, 100
3, 99844, Pitch_bend_c, 1, 4096
3, 100080, Pitch_bend_c, 1, 8192
3, 100800, Note_on_c, 1, 69, 0
3, 100800, Note_on_c, 1, 68, 100
3, 101040, Note_on_c, 1, 68, 0
3, 101040, Note_on_c, 1, 66, 100
3, 101280, Note_on_c, 1, 66, 0
3, 101280, Note_on_c, 1, 69, 100
3, 101520, Note_on_c, 1, 69, 0
3, 101520, Note_on_c, 1, 68, 100
3, 101760, Note_on_c, 1, 68, 0
3, 101760, Note_on_c, 1, 66, 100
3, 102000, Note_on_c, 1, 66, 0
3, 102000, Note_on_c, 1, 64, 100
3, 102240, Note_on_c, 1, 64, 0
3, 102240, Note_on_c, 1, 63, 100
3, 102480, Note_on_c, 1, 63, 0
3, 102480, Note_on_c, 1, 64, 100
3, 102720, Note_on_c, 1, 64, 0
3, 102720, Note_on_c, 1, 66, 100
3, 103200, Note_on_c, 1, 66, 0
3, 103200, Note_on_c, 1, 59, 100
3, 103680, Note_on_c, 1, 59, 0
3, 103680, Note_on_c, 1, 64, 100
3, 103920, Note_on_c, 1, 64, 0
3, 103920, Note_on_c, 1, 68, 100
3, 104160, Note_on_c, 1, 68, 0
3, 104160, Note_on_c, 1, 68, 100
3, 104400, Note_on_c, 1, 68, 0
3, 104400, Note_on_c, 1, 71, 100
3, 104640, Note_on_c, 1, 71, 0
3, 104640, Note_on_c, 1, 71, 100
3, 104880, Note_on_c, 1, 71, 0
3, 104880, Note_on_c, 1, 76, 100
3, 105120, Note_on_c, 1, 76, 0
3, 105120, Note_on_c, 1, 75, 100
3, 105360, Note_on_c, 1, 75, 0
3, 105360, Note_on_c, 1, 71, 100
3, 105600, Note_on_c, 1, 71, 0
3, 105600, Note_on_c, 1, 71, 100
3, 105840, Note_on_c, 1, 71, 0
3, 105840, Note_on_c, 1, 75, 100
3, 106080, Note_on_c, 1, 75, 0
3, 106080, Note_on_c, 1, 75, 100
3, 106320, Note_on_c, 1, 75, 0
3, 106320, Note_on_c, 1, 78, 100
3, 106560, Note_on_c, 1, 78, 0
3, 106560, Note_on_c, 1, 78, 100
3, 106800, Note_on_c, 1, 78, 0
3, 106800, Note_on_c, 1, 80, 100
3, 107040, Note_on_c, 1, 80, 0
3, 107040, Note_on_c, 1, 81, 100
3, 107280, Note_on_c, 1, 81, 0
3, 107280, Note_on_c, 1, 78, 100
3, 107520, Note_on_c, 1, 78, 0
3, 107520, Note_on_c, 1, 83, 100
3, 108000, Note_on_c, 1, 83, 0
3, 108000, Note_on_c, 1, 81, 100
3, 108240, Note_on_c, 1, 81, 0
3, 108240, Note_on_c, 1, 80, 100
3, 108480, Note_on_c, 1, 80, 0
3, 108480, Note_on_c, 1, 81, 100
3, 108720, Note_on_c, 1, 81, 0
3, 108720, Note_on_c, 1, 80, 100
3, 108960, Note_on_c, 1, 80, 0
3, 108960, Note_on_c, 1, 78, 100
3, 109200, Note_on_c, 1, 78, 0
3, 109200, Note_on_c, 1, 76, 100
3, 109440, Note_on_c, 1, 76, 0
3, 109440, Note_on_c, 1, 71, 100
3, 112320, Note_on_c, 1, 71, 0
3, 112320, Note_on_c, 1, 76, 100
3, 115200, Note_on_c, 1, 76, 0
3, 120960, Note_on_c, 1, 68, 100
3, 121440, Note_on_c, 1, 68, 0
3, 121440, Note_on_c, 1, 69, 100
3, 121680, Note_on_c, 1, 69, 0
3, 121680, Note_on_c, 1, 68, 100
3, 121920, Note_on_c, 1, 68, 0
3, 121920, Note_on_c, 1, 66, 100
3, 122160, Note_on_c, 1, 66, 0
3, 122160, Note_on_c, 1, 64, 100
3, 122400, Note_on_c, 1, 64, 0
3, 122400, Note_on_c, 1, 66, 100
3, 122640, Note_on_c, 1, 66, 0
3, 122640, Note_on_c, 1, 68, 100
3, 122880, Note_on_c, 1, 68, 0
3, 122880, Note_on_c, 1, 69, 100
3, 122884, Pitch_bend_c, 1, 4096
3, 123120, Pitch_bend_c, 1, 8192
3, 123840, Note_on_c, 1, 69, 0
3, 123840, Note_on_c, 1, 68, 100
3, 124080, Note_on_c, 1, 68, 0
3, 124080, Note_on_c, 1, 66, 100
3, 124320, Note_on_c, 1, 66, 0
3, 124320, Note_on_c, 1, 69, 100
3, 124560, Note_on_c, 1, 69, 0
3, 124560, Note_on_c, 1, 68, 100
3, 124800, Note_on_c, 1, 68, 0
3, 124800, Note_on_c, 1, 66, 100
3, 125040, Note_on_c, 1, 66, 0
3, 125040, Note_on_c, 1, 64, 100
3, 125280, Note_on_c, 1, 64, 0
3, 125280, Note_on_c, 1, 63, 100
3, 125520, Note_on_c, 1, 63, 0
3, 125520, Note_on_c, 1, 64, 100
3, 125760, Note_on_c, 1, 64, 0
3, 125760, Note_on_c, 1, 66, 100
3, 126240, Note_on_c, 1, 66, 0
3, 126240, Note_on_c, 1, 59, 100
3, 126720, Note_on_c, 1, 59, 0
3, 126720, Note_on_c, 1, 64, 100
3, 126960, Note_on_c, 1, 64, 0
3, 126960, Note_on_c, 1, 68, 100
3, 127200, Note_on_c, 1, 68, 0
3, 127200, Note_on_c, 1, 68, 100
3, 127440, Note_on_c, 1, 68, 0
3, 127440, Note_on_c, 1, 71, 100
3, 127680, Note_on_c, 1, 71, 0
3, 127680, Note_on_c, 1, 71, 100
3, 127920, Note_on_c, 1, 71, 0
3, 127920, Note_on_c, 1, 76, 100
3, 128160, Note_on_c, 1, 76, 0
3, 128160, Note_on_c, 1, 75, 100
3, 128400, Note_on_c, 1, 75, 0
3, 128400, Note_on_c, 1, 71, 100
3, 128640, Note_on_c, 1, 71, 0
3, 128640, Note_on_c, 1, 71, 100
3, 128880, Note_on_c, 1, 71, 0
3, 128880, Note_on_c, 1, 75, 100
3, 129120, Note_on_c, 1, 75, 0
3, 129120, Note_on_c, 1, 75, 100
3, 129360, Note_on_c, 1, 75, 0
3, 129360, Note_on_c, 1, 78, 100
3, 129600, Note_on_c, 1, 78, 0
3, 129600, Note_on_c, 1, 78, 100
3, 129840, Note_on_c, 1, 78, 0
3, 129840, Note_on_c, 1, 80, 100
3, 130080, Note_on_c, 1, 80, 0
3, 130080, Note_on_c, 1, 81, 100
3, 130320, Note_on_c, 1, 81, 0
3, 130320, Note_on_c, 1, 78, 100
3, 130560, Note_on_c, 1, 78, 0
3, 130560, Note_on_c, 1, 83, 100
3, 131040, Note_on_c, 1, 83, 0
3, 131040, Note_on_c, 1, 81, 100
3, 131280, Note_on_c, 1, 81, 0
3, 131280, Note_on_c, 1, 80, 100
3, 131520, Note_on_c, 1, 80, 0
3, 131520, Note_on_c, 1, 81, 100
3, 131760, Note_on_c, 1, 81, 0
3, 131760, Note_on_c, 1, 80, 100
3, 132000, Note_on_c, 1, 80, 0
3, 132000, Note_on_c, 1, 78, 100
3, 132240, Note_on_c, 1, 78, 0
3, 132240, Note_on_c, 1, 76, 100
3, 132480, Note_on_c, 1, 76, 0
3, 132480, Note_on_c, 1, 71, 100
3, 135360, Note_on_c, 1, 71, 0
3, 135360, Note_on_c, 1, 76, 100
3, 138240, Note_on_c, 1, 76, 0
3, 144000, Note_on_c, 1, 75, 100
3, 144480, Note_on_c, 1, 75, 0
3, 144480, Note_on_c, 1, 76, 100
3, 144720, Note_on_c, 1, 76, 0
3, 144720, Note_on_c, 1, 75, 100
3, 144960, Note_on_c, 1, 75, 0
3, 144960, Note_on_c, 1, 73, 100
3, 145200, Note_on_c, 1, 73, 0
3, 145200, Note_on_c, 1, 71, 100
3, 145440, Note_on_c, 1, 71, 0
3, 145440, Note_on_c, 1, 76, 100
3, 145680, Note_on_c, 1, 76, 0
3, 145680, Note_on_c, 1, 78, 100
3, 145920, Note_on_c, 1, 78, 0
3, 145920, Note_on_c, 1, 80, 100
3, 146160, Note_on_c, 1, 80, 0
3, 146160, Note_on_c, 1, 81, 100
3, 146400, Note_on_c, 1, 81, 0
3, 146400, Note_on_c, 1, 83, 100
3, 146640, Note_on_c, 1, 83, 0
3, 146640, Note_on_c, 1, 80, 100
3, 146880, Note_on_c, 1, 80, 0
3, 146880, Note_on_c, 1, 78, 100
3, 147120, Note_on_c, 1, 78, 0
3, 147120, Note_on_c, 1, 77, 100
3, 147360, Note_on_c, 1, 77, 0
3, 147360, Note_on_c, 1, 78, 100
3, 147600, Note_on_c, 1, 78, 0
3, 147600, Note_on_c, 1, 77, 100
3, 147840, Note_on_c, 1, 77, 0
3, 147840, Note_on_c, 1, 75, 100
3, 148080, Note_on_c, 1, 75, 0
3, 148080, Note_on_c, 1, 73, 100
3, 148320, Note_on_c, 1, 73, 0
3, 148320, Note_on_c, 1, 78, 100
3, 148560, Note_on_c, 1, 78, 0
3, 148560, Note_on_c, 1, 80, 100
3, 148800, Note_on_c, 1, 80, 0
3, 148800, Note_on_c, 1, 81, 100
3, 149040, Note_on_c, 1, 81, 0
3, 149040, Note_on_c, 1, 73, 100
3, 149280, Note_on_c, 1, 73, 0
3, 149280, Note_on_c, 1, 66, 100
3, 149760, Note_on_c, 1, 66, 0
3, 149760, Note_on_c, 1, 65, 100
3, 150000, Note_on_c, 1, 65, 0
3, 150000, Note_on_c, 1, 73, 100
3, 150240, Note_on_c, 1, 73, 0
3, 150240, Note_on_c, 1, 83, 100
3, 150480, Note_on_c, 1, 83, 0
3, 150480, Note_on_c, 1, 80, 100
3, 150720, Note_on_c, 1, 80, 0
3, 150720, Note_on_c, 1, 81, 100
3, 150960, Note_on_c, 1, 81, 0
3, 150960, Note_on_c, 1, 78, 100
3, 151200, Note_on_c, 1, 78, 0
3, 151200, Note_on_c, 1, 80, 100
3, 151440, Note_on_c, 1, 80, 0
3, 151440, Note_on_c, 1, 73, 100
3, 151680, Note_on_c, 1, 73, 0
3, 151680, Note_on_c, 1, 74, 100
3, 151920, Note_on_c, 1, 74, 0
3, 151920, Note_on_c, 1, 71, 100
3, 152160, Note_on_c, 1, 71, 0
3, 152160, Note_on_c, 1, 65, 100
3, 152400, Note_on_c, 1, 65, 0
3, 152400, Note_on_c, 1, 73, 100
3, 152640, Note_on_c, 1, 73, 0
3, 152640, Note_on_c, 1, 83, 100
3, 152880, Note_on_c, 1, 83, 0
3, 152880, Note_on_c, 1, 80, 100
3, 153120, Note_on_c, 1, 80, 0
3, 153120, Note_on_c, 1, 81, 100
3, 153360, Note_on_c, 1, 81, 0
3, 153360, Note_on_c, 1, 78, 100
3, 153600, Note_on_c, 1, 78, 0
3, 153600, Note_on_c, 1, 73, 100
3, 153840, Note_on_c, 1, 73, 0
3, 153840, Note_on_c, 1, 77, 100
3, 154080, Note_on_c, 1, 77, 0
3, 154080, Note_on_c, 1, 78, 100
3, 154320, Note_on_c, 1, 78, 0
3, 154320, Note_on_c, 1, 73, 100
3, 154560, Note_on_c, 1, 73, 0
3, 154560, Note_on_c, 1, 66, 100
3, 154800, Note_on_c, 1, 66, 0
3, 154800, Note_on_c, 1, 73, 100
3, 155040, Note_on_c, 1, 73, 0
3, 155040, Note_on_c, 1, 78, 100
3, 155280, Note_on_c, 1, 78, 0
3, 155280, Note_on_c, 1, 80, 100
3, 155520, Note_on_c, 1, 80, 0
3, 155520, Note_on_c, 1, 81, 100
3, 156000, Note_on_c, 1, 81, 0
3, 156000, Note_on_c, 1, 83, 100
3, 156240, Note_on_c, 1, 83, 0
3, 156240, Note_on_c, 1, 81, 100
3, 156480, Note_on_c, 1, 81, 0
3, 156480, Note_on_c, 1, 80, 100
3, 156720, Note_on_c, 1, 80, 0
3, 156720, Note_on_c, 1, 78, 100
3, 156960, Note_on_c, 1, 78, 0
3, 156960, Note_on_c, 1, 80, 100
3, 157200, Note_on_c, 1, 80, 0
3, 157200, Note_on_c, 1, 81, 100
3, 157440, Note_on_c, 1, 81, 0
3, 157440, Note_on_c, 1, 83, 100
3, 157680, Note_on_c, 1, 83, 0
3, 157680, Note_on_c, 1, 74, 100
3, 157920, Note_on_c, 1, 74, 0
3, 157920, Note_on_c, 1, 68, 100
3, 158160, Note_on_c, 1, 68, 0
3, 158160, Note_on_c, 1, 74, 100
3, 158400, Note_on_c, 1, 74, 0
3, 158400, Note_on_c, 1, 73, 100
3, 158640, Note_on_c, 1, 73, 0
3, 158640, Note_on_c, 1, 76, 100
3, 158880, Note_on_c, 1, 76, 0
3, 158880, Note_on_c, 1, 81, 100
3, 159120, Note_on_c, 1, 81, 0
3, 159120, Note_on_c, 1, 78, 100
3, 159360, Note_on_c, 1, 78, 0
3, 159360, Note_on_c, 1, 80, 100
3, 159600, Note_on_c, 1, 80, 0
3, 159600, Note_on_c, 1, 76, 100
3, 159840, Note_on_c, 1, 76, 0
3, 159840, Note_on_c, 1, 75, 100
3, 160080, Note_on_c, 1, 75, 0
3, 160080, Note_on_c, 1, 73, 100
3, 160320, Note_on_c, 1, 73, 0
3, 160320, Note_on_c, 1, 76, 100
3, 160560, Note_on_c, 1, 76, 0
3, 160560, Note_on_c, 1, 75, 100
3, 160800, Note_on_c, 1, 75, 0
3, 160800, Note_on_c, 1, 73, 100
3, 161040, Note_on_c, 1, 73, 0
3, 161040, Note_on_c, 1, 71, 100
3, 161280, Note_on_c, 1, 71, 0
3, 161280, Note_on_c, 1, 64, 100
3, 161760, Note_on_c, 1, 64, 0
3, 167040, Note_on_c, 1, 75, 100
3, 167520, Note_on_c, 1, 75, 0
3, 167520, Note_on_c, 1, 76, 100
3, 167760, Note_on_c, 1, 76, 0
3, 167760, Note_on_c, 1, 75, 100
3, 168000, Note_on_c, 1, 75, 0
3, 168000, Note_on_c, 1, 73, 100
3, 168240, Note_on_c, 1, 73, 0
3, 168240, Note_on_c, 1, 71, 100
3, 168480, Note_on_c, 1, 71, 0
3, 168480, Note_on_c, 1, 76, 100
3, 168720, Note_on_c, 1, 76, 0
3, 168720, Note_on_c, 1, 78, 100
3, 168960, Note_on_c, 1, 78, 0
3, 168960, Note_on_c, 1, 80, 100
3, 169200, Note_on_c, 1, 80, 0
3, 169200, Note_on_c, 1, 81, 100
3, 169440, Note_on_c, 1, 81, 0
3, 169440, Note_on_c, 1, 83, 100
3, 169680, Note_on_c, 1, 83, 0
3, 169680, Note_on_c, 1, 80, 100
3, 169920, Note_on_c, 1, 80, 0
3, 169920, Note_on_c, 1, 78, 100
3, 170160, Note_on_c, 1, 78, 0
3, 170160, Note_on_c, 1, 77, 100
3, 170400, Note_on_c, 1, 77, 0
3, 170400, Note_on_c, 1, 78, 100
3, 170640, Note_on_c, 1, 78, 0
3, 170640, Note_on_c, 1, 77, 100
3, 170880, Note_on_c, 1, 77, 0
3, 170880, Note_on_c, 1, 75, 100
3, 171120, Note_on_c, 1, 75, 0
3, 171120, Note_on_c, 1, 73, 100
3, 171360, Note_on_c, 1, 73, 0
3, 171360, Note_on_c, 1, 78, 100
3, 171600, Note_on_c, 1, 78, 0
3, 171600, Note_on_c, 1, 80, 100
3, 171840, Note_on_c, 1, 80, 0
3, 171840, Note_on_c, 1, 81, 100
3, 172080, Note_on_c, 1, 81, 0
3, 172080, Note_on_c, 1, 73, 100
3, 172320, Note_on_c, 1, 73, 0
3, 172320, Note_on_c, 1, 66, 100
3, 172800, Note_on_c, 1, 66, 0
3, 172800, Note_on_c, 1, 65, 100
3, 173040, Note_on_c, 1, 65, 0
3, 173040, Note_on_c, 1, 73, 100
3, 173280, Note_on_c, 1, 73, 0
3, 173280, Note_on_c, 1, 83, 100
3, 173520, Note_on_c, 1, 83, 0
3, 173520, Note_on_c, 1, 80, 100
3, 173760, Note_on_c, 1, 80, 0
3, 173760, Note_on_c, 1, 81, 100
3, 174000, Note_on_c, 1, 81, 0
3, 174000, Note_on_c, 1, 78, 100
3, 174240, Note_on_c, 1, 78, 0
3, 174240, Note_on_c, 1, 80, 100
3, 174480, Note_on_c, 1, 80, 0
3, 174480, Note_on_c, 1, 73, 100
3, 174720, Note_on_c, 1, 73, 0
3, 174720, Note_on_c, 1, 74, 100
3, 174960, Note_on_c, 1, 74, 0
3, 174960, Note_on_c, 1, 71, 100
3, 175200, Note_on_c, 1, 71, 0
3, 175200, Note_on_c, 1, 65, 100
3, 175440, Note_on_c, 1, 65, 0
3, 175440, Note_on_c, 1, 73, 100
3, 175680, Note_on_c, 1, 73, 0
3, 175680, Note_on_c, 1, 83, 100
3, 175920, Note_on_c, 1, 83, 0
3, 175920, Note_on_c, 1, 80, 100
3, 176160, Note_on_c, 1, 80, 0
3, 176160, Note_on_c, 1, 81, 100
3, 176400, Note_on_c, 1, 81, 0
3, 176400, Note_on_c, 1, 78, 100
3, 176640, Note_on_c, 1, 78, 0
3, 176640, Note_on_c, 1, 73, 100
3, 176880, Note_on_c, 1, 73, 0
3, 176880, Note_on_c, 1, 77, 100
3, 177120, Note_on_c, 1, 77, 0
3, 177120, Note_on_c, 1, 78, 100
3, 177360, Note_on_c, 1, 78, 0
3, 177360, Note_on_c, 1, 73, 100
3, 177600, Note_on_c, 1, 73, 0
3, 177600, Note_on_c, 1, 66, 100
3, 177840, Note_on_c, 1, 66, 0
3, 177840, Note_on_c, 1, 73, 100
3, 178080, Note_on_c, 1, 73, 0
3, 178080, Note_on_c, 1, 78, 100
3, 178320, Note_on_c, 1, 78, 0
3, 178320, Note_on_c, 1, 80, 100
3, 178560, Note_on_c, 1, 80, 0
3, 178560, Note_on_c, 1, 81, 100
3, 179040, Note_on_c, 1, 81, 0
3, 179040, Note_on_c, 1, 83, 100
3, 179280, Note_on_c, 1, 83, 0
3, 179280, Note_on_c, 1, 81, 100
3, 179520, Note_on_c, 1, 81, 0
3, 179520, Note_on_c, 1, 80, 100
3, 179760, Note_on_c, 1, 80, 0
3, 179760, Note_on_c, 1, 78, 100
3, 180000, Note_on_c, 1, 78, 0
3, 180000, Note_on_c, 1, 80, 100
3, 180240, Note_on_c, 1, 80, 0
3, 180240, Note_on_c, 1, 81, 100
3, 180480, Note_on_c, 1, 81, 0
3, 180480, Note_on_c, 1, 83, 100
3, 180720, Note_on_c, 1, 83, 0
3, 180720, Note_on_c, 1, 74, 100
3, 180960, Note_on_c, 1, 74, 0
3, 180960, Note_on_c, 1, 68, 100
3, 181200, Note_on_c, 1, 68, 0
3, 181200, Note_on_c, 1, 74, 100
3, 181440, Note_on_c, 1, 74, 0
3, 181440, Note_on_c, 1, 73, 100
3, 181680, Note_on_c, 1, 73, 0
3, 181680, Note_on_c, 1, 76, 100
3, 181920, Note_on_c, 1, 76, 0
3, 181920, Note_on_c, 1, 81, 100
3, 182160, Note_on_c, 1, 81, 0
3, 182160, Note_on_c, 1, 78, 100
3, 182400, Note_on_c, 1, 78, 0
3, 182400, Note_on_c, 1, 80, 100
3, 182640, Note_on_c, 1, 80, 0
3, 182640, Note_on_c, 1, 76, 100
3, 182880, Note_on_c, 1, 76, 0
3, 182880, Note_on_c, 1, 75, 100
3, 183120, Note_on_c, 1, 75, 0
3, 183120, Note_on_c, 1, 73, 100
3, 183360, Note_on_c, 1, 73, 0
3, 183360, Note_on_c, 1, 76, 100
3, 183600, Note_on_c, 1, 76, 0
3, 183600, Note_on_c, 1, 75, 100
3, 183840, Note_on_c, 1, 75, 0
3, 183840, Note_on_c, 1, 73, 100
3, 184080, Note_on_c, 1, 73, 0
3, 184080, Note_on_c, 1, 71, 100
3, 184320, Note_on_c, 1, 71, 0
3, 184320, Note_on_c, 1, 64, 100
3, 184800, Note_on_c, 1, 64, 0
3, 184800, End_track
4, 0, Start_track
4, 0, MIDI_port, 0
4, 0, Title_t, "Johann Sebastian Bach  (1685-1750)"
4, 0, Program_c, 2, 40
4, 0, Control_c, 2, 7, 100
4, 0, Control_c, 2, 10, 79
4, 25920, Note_on_c, 2, 76, 100
4, 26400, Note_on_c, 2, 76, 0
4, 26400, Note_on_c, 2, 75, 100
4, 26880, Note_on_c, 2, 75, 0
4, 26880, Note_on_c, 2, 73, 100
4, 27360, Note_on_c, 2, 73, 0
4, 27360, Pitch_bend_c, 2, 16383
4, 27360, Note_on_c, 2, 71, 100
4, 27600, Pitch_bend_c, 2, 8192
4, 28800, Note_on_c, 2, 71, 0
4, 28800, Note_on_c, 2, 72, 100
4, 29280, Note_on_c, 2, 72, 0
4, 30240, Note_on_c, 2, 73, 100
4, 30720, Note_on_c, 2, 73, 0
4, 30720, Note_on_c, 2, 73, 100
4, 30960, Note_on_c, 2, 73, 0
4, 30960, Note_on_c, 2, 75, 100
4, 31200, Note_on_c, 2, 75, 0
4, 31200, Note_on_c, 2, 76, 100
4, 31680, Note_on_c, 2, 76, 0
4, 31680, Note_on_c, 2, 75, 100
4, 32160, Note_on_c, 2, 75, 0
4, 32160, Note_on_c, 2, 73, 100
4, 32640, Note_on_c, 2, 73, 0
4, 32640, Note_on_c, 2, 72, 100
4, 33120, Note_on_c, 2, 72, 0
4, 33120, Note_on_c, 2, 73, 100
4, 33600, Note_on_c, 2, 73, 0
4, 34080, Note_on_c, 2, 69, 100
4, 34560, Note_on_c, 2, 69, 0
4, 34560, Note_on_c, 2, 64, 100
4, 35040, Note_on_c, 2, 64, 0
4, 35040, Note_on_c, 2, 66, 100
4, 35520, Note_on_c, 2, 66, 0
4, 35520, Note_on_c, 2, 68, 100
4, 36000, Note_on_c, 2, 68, 0
4, 36000, Note_on_c, 2, 61, 100
4, 36720, Note_on_c, 2, 61, 0
4, 43200, Note_on_c, 2, 61, 100
4, 43680, Note_on_c, 2, 61, 0
4, 57120, Note_on_c, 2, 71, 100
4, 57600, Note_on_c, 2, 71, 0
4, 57600, Note_on_c, 2, 73, 100
4, 58080, Note_on_c, 2, 73, 0
4, 58080, Note_on_c, 2, 71, 100
4, 58560, Note_on_c, 2, 71, 0
4, 58560, Note_on_c, 2, 66, 100
4, 59040, Note_on_c, 2, 66, 0
4, 59040, Note_on_c, 2, 71, 100
4, 60480, Note_on_c, 2, 71, 0
4, 63360, Note_on_c, 2, 76, 100
4, 63840, Note_on_c, 2, 76, 0
4, 63840, Note_on_c, 2, 75, 100
4, 64320, Note_on_c, 2, 75, 0
4, 64320, Note_on_c, 2, 73, 100
4, 64800, Note_on_c, 2, 73, 0
4, 64800, Pitch_bend_c, 2, 16383
4, 64800, Note_on_c, 2, 71, 100
4, 65040, Pitch_bend_c, 2, 8192
4, 66240, Note_on_c, 2, 71, 0
4, 66240, Note_on_c, 2, 72, 100
4, 66720, Note_on_c, 2, 72, 0
4, 67680, Note_on_c, 2, 73, 100
4, 68160, Note_on_c, 2, 73, 0
4, 68160, Note_on_c, 2, 73, 100
4, 68400, Note_on_c, 2, 73, 0
4, 68400, Note_on_c, 2, 75, 100
4, 68640, Note_on_c, 2, 75, 0
4, 68640, Note_on_c, 2, 76, 100
4, 69120, Note_on_c, 2, 76, 0
4, 69120, Note_on_c, 2, 75, 100
4, 69600, Note_on_c, 2, 75, 0
4, 69600, Note_on_c, 2, 73, 100
4, 70080, Note_on_c, 2, 73, 0
4, 70080, Note_on_c, 2, 72, 100
4, 70560, Note_on_c, 2, 72, 0
4, 70560, Note_on_c, 2, 73, 100
4, 71040, Note_on_c, 2, 73, 0
4, 71520, Note_on_c, 2, 69, 100
4, 72000, Note_on_c, 2, 69, 0
4, 72000, Note_on_c, 2, 64, 100
4, 72480, Note_on_c, 2, 64, 0
4, 72480, Note_on_c, 2, 66, 100
4, 72960, Note_on_c, 2, 66, 0
4, 72960, Note_on_c, 2, 68, 100
4, 73440, Note_on_c, 2, 68, 0
4, 73440, Note_on_c, 2, 61, 100
4, 74160, Note_on_c, 2, 61, 0
4, 80640, Note_on_c, 2, 61, 100
4, 81120, Note_on_c, 2, 61, 0
4, 94560, Note_on_c, 2, 71, 100
4, 95040, Note_on_c, 2, 71, 0
4, 95040, Note_on_c, 2, 73, 100
4, 95520, Note_on_c, 2, 73, 0
4, 95520, Note_on_c, 2, 71, 100
4, 96000, Note_on_c, 2, 71, 0
4, 96000, Note_on_c, 2, 66, 100
4, 96480, Note_on_c, 2, 66, 0
4, 96480, Note_on_c, 2, 71, 100
4, 97920, Note_on_c, 2, 71, 0
4, 145440, Note_on_c, 2, 71, 100
4, 145920, Note_on_c, 2, 71, 0
4, 145920, Note_on_c, 2, 74, 100
4, 146400, Note_on_c, 2, 74, 0
4, 146880, Note_on_c, 2, 71, 100
4, 147360, Note_on_c, 2, 71, 0
4, 148320, Note_on_c, 2, 69, 100
4, 148800, Note_on_c, 2, 69, 0
4, 161280, Note_on_c, 2, 71, 100
4, 161760, Note_on_c, 2, 71, 0
4, 162720, Note_on_c, 2, 69, 100
4, 162960, Note_on_c, 2, 69, 0
4, 163200, Note_on_c, 2, 69, 100
4, 164160, Note_on_c, 2, 69, 0
4, 164160, Note_on_c, 2, 68, 100
4, 164400, Note_on_c, 2, 68, 0
4, 164400, Note_on_c, 2, 71, 100
4, 164640, Note_on_c, 2, 71, 0
4, 164640, Note_on_c, 2, 73, 100
4, 164880, Note_on_c, 2, 73, 0
4, 164880, Note_on_c, 2, 69, 100
4, 165120, Note_on_c, 2, 69, 0
4, 165120, Note_on_c, 2, 66, 100
4, 165360, Note_on_c, 2, 66, 0
4, 165360, Note_on_c, 2, 75, 100
4, 165600, Note_on_c, 2, 75, 0
4, 165600, Note_on_c, 2, 76, 100
4, 167040, Note_on_c, 2, 76, 0
4, 168480, Note_on_c, 2, 71, 100
4, 168960, Note_on_c, 2, 71, 0
4, 168960, Note_on_c, 2, 74, 100
4, 169440, Note_on_c, 2, 74, 0
4, 169920, Note_on_c, 2, 71, 100
4, 170400, Note_on_c, 2, 71, 0
4, 171360, Note_on_c, 2, 69, 100
4, 171840, Note_on_c, 2, 69, 0
4, 184320, Note_on_c, 2, 71, 100
4, 184800, Note_on_c, 2, 71, 0
4, 185760, Note_on_c, 2, 69, 100
4, 186000, Note_on_c, 2, 69, 0
4, 186240, Note_on_c, 2, 69, 100
4, 187200, Note_on_c, 2, 69, 0
4, 187200, Note_on_c, 2, 68, 100
4, 187440, Note_on_c, 2, 68, 0
4, 187440, Note_on_c, 2, 71, 100
4, 187680, Note_on_c, 2, 71, 0
4, 187680, Note_on_c, 2, 73, 100
4, 187920, Note_on_c, 2, 73, 0
4, 187920, Note_on_c, 2, 69, 100
4, 188160, Note_on_c, 2, 69, 0
4, 188160, Note_on_c, 2, 66, 100
4, 188400, Note_on_c, 2, 66, 0
4, 188400, Note_on_c, 2, 75, 100
4, 188640, Note_on_c, 2, 75, 0
4, 188640, Note_on_c, 2, 76, 100
4, 190080, Note_on_c, 2, 76, 0
4, 190080, End_track
5, 0, Start_track
5, 0, MIDI_port, 0
5, 0, Title_t, "Six Sonatas and Partitas for Solo Violin"
5, 0, Program_c, 3, 40
5, 0, Control_c, 3, 7, 100
5, 0, Control_c, 3, 10, 49
5, 30240, Note_on_c, 3, 68, 100
5, 30720, Note_on_c, 3, 68, 0
5, 34080, Note_on_c, 3, 73, 100
5, 34560, Note_on_c, 3, 73, 0
5, 34560, Note_on_c, 3, 73, 100
5, 35040, Note_on_c, 3, 73, 0
5, 35040, Note_on_c, 3, 73, 100
5, 35520, Note_on_c, 3, 73, 0
5, 35520, Note_on_c, 3, 72, 100
5, 36000, Note_on_c, 3, 72, 0
5, 36000, Note_on_c, 3, 73, 100
5, 36720, Note_on_c, 3, 73, 0
5, 67680, Note_on_c, 3, 68, 100
5, 68160, Note_on_c, 3, 68, 0
5, 71520, Note_on_c, 3, 73, 100
5, 72000, Note_on_c, 3, 73, 0
5, 72000, Note_on_c, 3, 73, 100
5, 72480, Note_on_c, 3, 73, 0
5, 72480, Note_on_c, 3, 73, 100
5, 72960, Note_on_c, 3, 73, 0
5, 72960, Note_on_c, 3, 72, 100
5, 73440, Note_on_c, 3, 72, 0
5, 73440, Note_on_c, 3, 73, 100
5, 74160, Note_on_c, 3, 73, 0
5, 74160, End_track
6, 0, Start_track
6, 0, MIDI_port, 0
6, 0, Title_t, "--------------------------------------"
6, 0, End_track
7, 0, Start_track
7, 0, MIDI_port, 0
7, 0, Title_t, "Partita No. 3 in E major - BWV 1006"
7, 0, End_track
8, 0, Start_track
8, 0, MIDI_port, 0
8, 0, Title_t, "4th Movement: Minuet I/II"
8, 0, End_track
9, 0, Start_track
9, 0, MIDI_port, 0
9, 0, Title_t, "--------------------------------------"
9, 0, End_track
10, 0, Start_track
10, 0, MIDI_port, 0
10, 0, Title_t, "Sequenced with Cakewalk Pro Audio by"
10, 0, End_track
11, 0, Start_track
11, 0, MIDI_port, 0
11, 0, Title_t, "David J. Grossman - dave@unpronounceable.com"
11, 0, End_track
12, 0, Start_track
12, 0, MIDI_port, 0
12, 0, Title_t, "This and other Bach MIDI files can be found at:"
12, 0, End_track
13, 0, Start_track
13, 0, MIDI_port, 0
13, 0, Title_t, "Dave's J.S. Bach Page"
13, 0, End_track
14, 0, Start_track
14, 0, MIDI_port, 0
14, 0, Title_t, "http://www.unpronounceable.com/bach"
14, 0, End_track
15, 0, Start_track
15, 0, MIDI_port, 0
15, 0, Title_t, "--------------------------------------"
15, 0, End_track
16, 0, Start_track
16, 0, MIDI_port, 0
16, 0, Title_t, "Original Filename: vp3-4min.mid"
16, 0, End_track
17, 0, Start_track
17, 0, MIDI_port, 0
17, 0, Title_t, "Last Modified: February 22, 1997"
17, 0, End_track
0, 0, End_of_file
