0, 0, Header, 1, 17, 480
1, 0, Start_track
1, 0, Title_t, "untitled"
1, 0, Text_t, "\012"
1, 0, SMPTE_offset, 96, 0, 3, 0, 0
1, 0, Time_signature, 12, 3, 12, 8
1, 0, Key_signature, -1, "major"
1, 0, Tempo, 1500000
1, 54720, Tempo, 1500000
1, 54732, Tempo, 1538462
1, 54744, Tempo, 1578947
1, 54760, Tempo, 1621622
1, 54768, Tempo, 1666667
1, 54780, Tempo, 1714286
1, 54792, Tempo, 1764706
1, 54804, Tempo, 1818182
1, 54816, Tempo, 1875000
1, 54828, Tempo, 1935484
1, 54840, Tempo, 2000000
1, 54852, Tempo, 2068966
1, 54864, Tempo, 2142857
1, 54880, Tempo, 2222222
1, 54888, Tempo, 2307692
1, 54900, Tempo, 2400000
1, 54912, Tempo, 2500000
1, 54924, Tempo, 2608696
1, 54936, Tempo, 2727273
1, 54948, Tempo, 2857143
1, 54960, Tempo, 3000000
1, 54972, Tempo, 3157895
1, 54984, Tempo, 3333333
1, 55000, Tempo, 3529412
1, 55008, Tempo, 3750000
1, 55020, Tempo, 4000000
1, 55032, Tempo, 4285714
1, 55044, Tempo, 4615385
1, 55056, Tempo, 5000000
1, 55068, Tempo, 5454545
1, 55080, Tempo, 6000000
1, 55092, Tempo, 6666667
1, 55104, Tempo, 7500000
1, 55120, Tempo, 7500000
1, 55128, Tempo, 7500000
1, 55140, Tempo, 7500000
1, 55152, Tempo, 7500000
1, 55164, Tempo, 7500000
1, 55176, Tempo, 7500000
1, 55188, Tempo, 7500000
1, 55200, Tempo, 7500000
1, 55200, End_track
2, 0, Start_track
2, 0, MIDI_port, 0
2, 0, Title_t, "Solo Violin"
2, 0, Program_c, 0, 40
2, 0, Control_c, 0, 7, 100
2, 0, Control_c, 0, 10, 69
2, 0, Note_on_c, 0, 58, 100
2, 360, Note_on_c, 0, 58, 0
2, 360, Note_on_c, 0, 62, 100
2, 480, Note_on_c, 0, 62, 0
2, 480, Note_on_c, 0, 65, 100
2, 720, Note_on_c, 0, 65, 0
2, 720, Note_on_c, 0, 63, 100
2, 840, Note_on_c, 0, 63, 0
2, 840, Note_on_c, 0, 62, 100
2, 960, Note_on_c, 0, 62, 0
2, 960, Note_on_c, 0, 60, 100
2, 1080, Note_on_c, 0, 60, 0
2, 1080, Note_on_c, 0, 58, 100
2, 1200, Note_on_c, 0, 58, 0
2, 1440, Note_on_c, 0, 65, 100
2, 1680, Note_on_c, 0, 65, 0
2, 2640, Note_on_c, 0, 63, 100
2, 2880, Note_on_c, 0, 63, 0
2, 2880, Note_on_c, 0, 62, 100
2, 3120, Note_on_c, 0, 62, 0
2, 3600, Note_on_c, 0, 60, 100
2, 3840, Note_on_c, 0, 60, 0
2, 4080, Note_on_c, 0, 58, 100
2, 4320, Note_on_c, 0, 58, 0
2, 4320, Note_on_c, 0, 65, 100
2, 4560, Note_on_c, 0, 65, 0
2, 5280, Note_on_c, 0, 57, 100
2, 5520, Note_on_c, 0, 57, 0
2, 5520, Note_on_c, 0, 60, 100
2, 5760, Note_on_c, 0, 60, 0
2, 5760, Note_on_c, 0, 65, 100
2, 6000, Note_on_c, 0, 65, 0
2, 6480, Note_on_c, 0, 63, 100
2, 6720, Note_on_c, 0, 63, 0
2, 6960, Note_on_c, 0, 62, 100
2, 7200, Note_on_c, 0, 62, 0
2, 7200, Note_on_c, 0, 60, 100
2, 7440, Note_on_c, 0, 60, 0
2, 7680, Note_on_c, 0, 58, 100
2, 7920, Note_on_c, 0, 58, 0
2, 7920, Note_on_c, 0, 57, 100
2, 8040, Note_on_c, 0, 57, 0
2, 8040, Note_on_c, 0, 60, 100
2, 8160, Note_on_c, 0, 60, 0
2, 8160, Note_on_c, 0, 65, 100
2, 8280, Note_on_c, 0, 65, 0
2, 8280, Note_on_c, 0, 69, 100
2, 8340, Note_on_c, 0, 69, 0
2, 8340, Note_on_c, 0, 72, 100
2, 8400, Note_on_c, 0, 72, 0
2, 8400, Note_on_c, 0, 75, 100
2, 8520, Note_on_c, 0, 75, 0
2, 8520, Note_on_c, 0, 79, 100
2, 8640, Note_on_c, 0, 79, 0
2, 8640, Note_on_c, 0, 77, 100
2, 8880, Note_on_c, 0, 77, 0
2, 8880, Note_on_c, 0, 75, 100
2, 9000, Note_on_c, 0, 75, 0
2, 9000, Note_on_c, 0, 74, 100
2, 9120, Note_on_c, 0, 74, 0
2, 9120, Note_on_c, 0, 72, 100
2, 9240, Note_on_c, 0, 72, 0
2, 9240, Note_on_c, 0, 70, 100
2, 9360, Note_on_c, 0, 70, 0
2, 9360, Note_on_c, 0, 74, 100
2, 9600, Note_on_c, 0, 74, 0
2, 9600, Note_on_c, 0, 72, 100
2, 9660, Note_on_c, 0, 72, 0
2, 9660, Note_on_c, 0, 74, 100
2, 9720, Note_on_c, 0, 74, 0
2, 9720, Note_on_c, 0, 75, 100
2, 9840, Note_on_c, 0, 75, 0
2, 9840, Note_on_c, 0, 74, 100
2, 10080, Note_on_c, 0, 74, 0
2, 10080, Note_on_c, 0, 70, 100
2, 10320, Note_on_c, 0, 70, 0
2, 11280, Note_on_c, 0, 82, 100
2, 11520, Note_on_c, 0, 82, 0
2, 11520, Note_on_c, 0, 82, 100
2, 11760, Note_on_c, 0, 82, 0
2, 11760, Note_on_c, 0, 81, 100
2, 12000, Note_on_c, 0, 81, 0
2, 12720, Note_on_c, 0, 81, 100
2, 12960, Note_on_c, 0, 81, 0
2, 12960, Note_on_c, 0, 81, 100
2, 13200, Note_on_c, 0, 81, 0
2, 13200, Note_on_c, 0, 79, 100
2, 13440, Note_on_c, 0, 79, 0
2, 13920, Note_on_c, 0, 82, 100
2, 14160, Note_on_c, 0, 82, 0
2, 14160, Note_on_c, 0, 81, 100
2, 14400, Note_on_c, 0, 81, 0
2, 14640, Note_on_c, 0, 78, 100
2, 14760, Note_on_c, 0, 78, 0
2, 14760, Note_on_c, 0, 81, 100
2, 14880, Note_on_c, 0, 81, 0
2, 14880, Note_on_c, 0, 79, 100
2, 15120, Note_on_c, 0, 79, 0
2, 15360, Note_on_c, 0, 79, 100
2, 15480, Note_on_c, 0, 79, 0
2, 15480, Note_on_c, 0, 82, 100
2, 15600, Note_on_c, 0, 82, 0
2, 15600, Note_on_c, 0, 81, 100
2, 15840, Note_on_c, 0, 81, 0
2, 16080, Note_on_c, 0, 81, 100
2, 16200, Note_on_c, 0, 81, 0
2, 16200, Note_on_c, 0, 82, 100
2, 16320, Note_on_c, 0, 82, 0
2, 16320, Note_on_c, 0, 82, 100
2, 16440, Note_on_c, 0, 82, 0
2, 16440, Note_on_c, 0, 84, 100
2, 16560, Note_on_c, 0, 84, 0
2, 16560, Note_on_c, 0, 84, 100
2, 16620, Note_on_c, 0, 84, 0
2, 16620, Note_on_c, 0, 82, 100
2, 16680, Note_on_c, 0, 82, 0
2, 16680, Note_on_c, 0, 81, 100
2, 16740, Note_on_c, 0, 81, 0
2, 16740, Note_on_c, 0, 79, 100
2, 16800, Note_on_c, 0, 79, 0
2, 16800, Note_on_c, 0, 78, 100
2, 16860, Note_on_c, 0, 78, 0
2, 16860, Note_on_c, 0, 76, 100
2, 16920, Note_on_c, 0, 76, 0
2, 16920, Note_on_c, 0, 74, 100
2, 16980, Note_on_c, 0, 74, 0
2, 16980, Note_on_c, 0, 72, 100
2, 17040, Note_on_c, 0, 72, 0
2, 17040, Note_on_c, 0, 70, 100
2, 17100, Note_on_c, 0, 70, 0
2, 17100, Note_on_c, 0, 69, 100
2, 17160, Note_on_c, 0, 69, 0
2, 17160, Note_on_c, 0, 70, 100
2, 17220, Note_on_c, 0, 70, 0
2, 17220, Note_on_c, 0, 72, 100
2, 17280, Note_on_c, 0, 72, 0
2, 17280, Note_on_c, 0, 66, 100
2, 17520, Note_on_c, 0, 66, 0
2, 17520, Note_on_c, 0, 86, 100
2, 17640, Note_on_c, 0, 86, 0
2, 17640, Note_on_c, 0, 81, 100
2, 17760, Note_on_c, 0, 81, 0
2, 17760, Note_on_c, 0, 84, 100
2, 18000, Note_on_c, 0, 84, 0
2, 18000, Note_on_c, 0, 67, 100
2, 18120, Note_on_c, 0, 67, 0
2, 18120, Note_on_c, 0, 82, 100
2, 18240, Note_on_c, 0, 82, 0
2, 18240, Note_on_c, 0, 81, 100
2, 18360, Note_on_c, 0, 81, 0
2, 18360, Note_on_c, 0, 78, 100
2, 18480, Note_on_c, 0, 78, 0
2, 18480, Note_on_c, 0, 79, 100
2, 18600, Note_on_c, 0, 79, 0
2, 18600, Note_on_c, 0, 74, 100
2, 18720, Note_on_c, 0, 74, 0
2, 18720, Note_on_c, 0, 75, 100
2, 18960, Note_on_c, 0, 75, 0
2, 18960, Note_on_c, 0, 72, 100
2, 19200, Note_on_c, 0, 72, 0
2, 19920, Note_on_c, 0, 80, 100
2, 20160, Note_on_c, 0, 80, 0
2, 20160, Note_on_c, 0, 78, 100
2, 20400, Note_on_c, 0, 78, 0
2, 20400, Note_on_c, 0, 79, 100
2, 20520, Note_on_c, 0, 79, 0
2, 20520, Note_on_c, 0, 74, 100
2, 20640, Note_on_c, 0, 74, 0
2, 20640, Note_on_c, 0, 75, 100
2, 20760, Note_on_c, 0, 75, 0
2, 20760, Note_on_c, 0, 74, 100
2, 20880, Note_on_c, 0, 74, 0
2, 21000, Note_on_c, 0, 72, 100
2, 21120, Note_on_c, 0, 72, 0
2, 21120, Note_on_c, 0, 70, 100
2, 21240, Note_on_c, 0, 70, 0
2, 21240, Note_on_c, 0, 69, 100
2, 21360, Note_on_c, 0, 69, 0
2, 21360, Note_on_c, 0, 67, 100
2, 21480, Note_on_c, 0, 67, 0
2, 21480, Note_on_c, 0, 66, 100
2, 21600, Note_on_c, 0, 66, 0
2, 27120, Note_on_c, 0, 84, 100
2, 27360, Note_on_c, 0, 84, 0
2, 27360, Note_on_c, 0, 84, 100
2, 27600, Note_on_c, 0, 84, 0
2, 27600, Note_on_c, 0, 82, 100
2, 27840, Note_on_c, 0, 82, 0
2, 28560, Note_on_c, 0, 82, 100
2, 28800, Note_on_c, 0, 82, 0
2, 28800, Note_on_c, 0, 82, 100
2, 29040, Note_on_c, 0, 82, 0
2, 29040, Note_on_c, 0, 81, 100
2, 29280, Note_on_c, 0, 81, 0
2, 30000, Note_on_c, 0, 80, 100
2, 30240, Note_on_c, 0, 80, 0
2, 30240, Note_on_c, 0, 80, 100
2, 30480, Note_on_c, 0, 80, 0
2, 30480, Note_on_c, 0, 79, 100
2, 30720, Note_on_c, 0, 79, 0
2, 31440, Note_on_c, 0, 79, 100
2, 31680, Note_on_c, 0, 79, 0
2, 31680, Note_on_c, 0, 77, 100
2, 31920, Note_on_c, 0, 77, 0
2, 32160, Note_on_c, 0, 74, 100
2, 32400, Note_on_c, 0, 74, 0
2, 32400, Note_on_c, 0, 75, 100
2, 32640, Note_on_c, 0, 75, 0
2, 32880, Note_on_c, 0, 77, 100
2, 33120, Note_on_c, 0, 77, 0
2, 33120, Note_on_c, 0, 75, 100
2, 33240, Note_on_c, 0, 75, 0
2, 33240, Note_on_c, 0, 74, 100
2, 33360, Note_on_c, 0, 74, 0
2, 33360, Note_on_c, 0, 75, 100
2, 33480, Note_on_c, 0, 75, 0
2, 33480, Note_on_c, 0, 74, 100
2, 33600, Note_on_c, 0, 74, 0
2, 33600, Note_on_c, 0, 72, 100
2, 33720, Note_on_c, 0, 72, 0
2, 33720, Note_on_c, 0, 70, 100
2, 33840, Note_on_c, 0, 70, 0
2, 33840, Note_on_c, 0, 70, 100
2, 33960, Note_on_c, 0, 70, 0
2, 33960, Note_on_c, 0, 69, 100
2, 34080, Note_on_c, 0, 69, 0
2, 34080, Note_on_c, 0, 72, 100
2, 34200, Note_on_c, 0, 72, 0
2, 34200, Note_on_c, 0, 70, 100
2, 34320, Note_on_c, 0, 70, 0
2, 34320, Note_on_c, 0, 74, 100
2, 34440, Note_on_c, 0, 74, 0
2, 34440, Note_on_c, 0, 72, 100
2, 34560, Note_on_c, 0, 72, 0
2, 34560, Note_on_c, 0, 75, 100
2, 34800, Note_on_c, 0, 75, 0
2, 34920, Note_on_c, 0, 79, 100
2, 35040, Note_on_c, 0, 79, 0
2, 35040, Note_on_c, 0, 84, 100
2, 35280, Note_on_c, 0, 84, 0
2, 35280, Note_on_c, 0, 82, 100
2, 35400, Note_on_c, 0, 82, 0
2, 35400, Note_on_c, 0, 81, 100
2, 35520, Note_on_c, 0, 81, 0
2, 35520, Note_on_c, 0, 79, 100
2, 35640, Note_on_c, 0, 79, 0
2, 35640, Note_on_c, 0, 77, 100
2, 35760, Note_on_c, 0, 77, 0
2, 35760, Note_on_c, 0, 75, 100
2, 36000, Note_on_c, 0, 75, 0
2, 36000, Note_on_c, 0, 75, 100
2, 36240, Note_on_c, 0, 75, 0
2, 36240, Note_on_c, 0, 74, 100
2, 36360, Note_on_c, 0, 74, 0
2, 36360, Note_on_c, 0, 77, 100
2, 36480, Note_on_c, 0, 77, 0
2, 36480, Note_on_c, 0, 82, 100
2, 36720, Note_on_c, 0, 82, 0
2, 36720, Note_on_c, 0, 80, 100
2, 36840, Note_on_c, 0, 80, 0
2, 36840, Note_on_c, 0, 77, 100
2, 36960, Note_on_c, 0, 77, 0
2, 36960, Note_on_c, 0, 74, 100
2, 37080, Note_on_c, 0, 74, 0
2, 37080, Note_on_c, 0, 70, 100
2, 37200, Note_on_c, 0, 70, 0
2, 37200, Note_on_c, 0, 80, 100
2, 37440, Note_on_c, 0, 80, 0
2, 37440, Note_on_c, 0, 79, 100
2, 37680, Note_on_c, 0, 79, 0
2, 41760, Note_on_c, 0, 77, 100
2, 42120, Note_on_c, 0, 77, 0
2, 42120, Note_on_c, 0, 79, 100
2, 42240, Note_on_c, 0, 79, 0
2, 42240, Note_on_c, 0, 77, 100
2, 42480, Note_on_c, 0, 77, 0
2, 42480, Note_on_c, 0, 77, 100
2, 42720, Note_on_c, 0, 77, 0
2, 42720, Note_on_c, 0, 75, 100
2, 42840, Note_on_c, 0, 75, 0
2, 42840, Note_on_c, 0, 74, 100
2, 42960, Note_on_c, 0, 74, 0
2, 42960, Note_on_c, 0, 72, 100
2, 43080, Note_on_c, 0, 72, 0
2, 43080, Note_on_c, 0, 71, 100
2, 43200, Note_on_c, 0, 71, 0
2, 43200, Note_on_c, 0, 75, 100
2, 43560, Note_on_c, 0, 75, 0
2, 43560, Note_on_c, 0, 77, 100
2, 43680, Note_on_c, 0, 77, 0
2, 43680, Note_on_c, 0, 75, 100
2, 43920, Note_on_c, 0, 75, 0
2, 43920, Note_on_c, 0, 75, 100
2, 44160, Note_on_c, 0, 75, 0
2, 44160, Note_on_c, 0, 74, 100
2, 44280, Note_on_c, 0, 74, 0
2, 44280, Note_on_c, 0, 72, 100
2, 44400, Note_on_c, 0, 72, 0
2, 44400, Note_on_c, 0, 70, 100
2, 44520, Note_on_c, 0, 70, 0
2, 44520, Note_on_c, 0, 69, 100
2, 44640, Note_on_c, 0, 69, 0
2, 44640, Note_on_c, 0, 67, 100
2, 44760, Note_on_c, 0, 67, 0
2, 44760, Note_on_c, 0, 65, 100
2, 44880, Note_on_c, 0, 65, 0
2, 44880, Note_on_c, 0, 63, 100
2, 45000, Note_on_c, 0, 63, 0
2, 45000, Note_on_c, 0, 62, 100
2, 45120, Note_on_c, 0, 62, 0
2, 45120, Note_on_c, 0, 63, 100
2, 45360, Note_on_c, 0, 63, 0
2, 45360, Note_on_c, 0, 62, 100
2, 45600, Note_on_c, 0, 62, 0
2, 45600, Note_on_c, 0, 63, 100
2, 45840, Note_on_c, 0, 63, 0
2, 45840, Note_on_c, 0, 65, 100
2, 46080, Note_on_c, 0, 65, 0
2, 46080, Note_on_c, 0, 67, 100
2, 46440, Note_on_c, 0, 67, 0
2, 46440, Note_on_c, 0, 63, 100
2, 46560, Note_on_c, 0, 63, 0
2, 46560, Note_on_c, 0, 65, 100
2, 46800, Note_on_c, 0, 65, 0
2, 46800, Note_on_c, 0, 63, 100
2, 47040, Note_on_c, 0, 63, 0
2, 47040, Note_on_c, 0, 79, 100
2, 47160, Note_on_c, 0, 79, 0
2, 47160, Note_on_c, 0, 75, 100
2, 47280, Note_on_c, 0, 75, 0
2, 47280, Note_on_c, 0, 70, 100
2, 47520, Note_on_c, 0, 70, 0
2, 47520, Note_on_c, 0, 70, 100
2, 47760, Note_on_c, 0, 70, 0
2, 48240, Note_on_c, 0, 72, 100
2, 48480, Note_on_c, 0, 72, 0
2, 48960, Note_on_c, 0, 77, 100
2, 49320, Note_on_c, 0, 77, 0
2, 49320, Note_on_c, 0, 74, 100
2, 49440, Note_on_c, 0, 74, 0
2, 49440, Note_on_c, 0, 75, 100
2, 49680, Note_on_c, 0, 75, 0
2, 53040, Note_on_c, 0, 82, 100
2, 53280, Note_on_c, 0, 82, 0
2, 53280, Note_on_c, 0, 82, 100
2, 53520, Note_on_c, 0, 82, 0
2, 53520, Note_on_c, 0, 81, 100
2, 53760, Note_on_c, 0, 81, 0
2, 54480, Note_on_c, 0, 81, 100
2, 54720, Note_on_c, 0, 81, 0
2, 54720, Note_on_c, 0, 81, 100
2, 54960, Note_on_c, 0, 81, 0
2, 54960, Note_on_c, 0, 82, 100
2, 55200, Note_on_c, 0, 82, 0
2, 55200, End_track
3, 0, Start_track
3, 0, MIDI_port, 0
3, 0, Title_t, "--------------------------------------"
3, 0, Program_c, 1, 40
3, 0, Control_c, 1, 7, 100
3, 0, Control_c, 1, 10, 59
3, 1200, Note_on_c, 1, 74, 100
3, 1440, Note_on_c, 1, 74, 0
3, 1440, Note_on_c, 1, 74, 100
3, 1680, Note_on_c, 1, 74, 0
3, 1680, Note_on_c, 1, 72, 100
3, 1920, Note_on_c, 1, 72, 0
3, 1920, Note_on_c, 1, 70, 100
3, 2160, Note_on_c, 1, 70, 0
3, 2160, Note_on_c, 1, 70, 100
3, 2400, Note_on_c, 1, 70, 0
3, 2400, Note_on_c, 1, 69, 100
3, 2640, Note_on_c, 1, 69, 0
3, 3120, Note_on_c, 1, 72, 100
3, 3360, Note_on_c, 1, 72, 0
3, 3360, Note_on_c, 1, 70, 100
3, 3600, Note_on_c, 1, 70, 0
3, 3840, Note_on_c, 1, 69, 100
3, 4080, Note_on_c, 1, 69, 0
3, 4080, Note_on_c, 1, 70, 100
3, 4320, Note_on_c, 1, 70, 0
3, 4560, Note_on_c, 1, 70, 100
3, 4920, Note_on_c, 1, 70, 0
3, 4920, Note_on_c, 1, 70, 100
3, 5040, Note_on_c, 1, 70, 0
3, 5040, Note_on_c, 1, 69, 100
3, 5280, Note_on_c, 1, 69, 0
3, 6000, Note_on_c, 1, 69, 100
3, 6120, Note_on_c, 1, 69, 0
3, 6120, Note_on_c, 1, 67, 100
3, 6240, Note_on_c, 1, 67, 0
3, 6240, Note_on_c, 1, 69, 100
3, 6480, Note_on_c, 1, 69, 0
3, 6720, Note_on_c, 1, 69, 100
3, 6960, Note_on_c, 1, 69, 0
3, 6960, Note_on_c, 1, 71, 100
3, 7200, Note_on_c, 1, 71, 0
3, 7440, Note_on_c, 1, 67, 100
3, 7560, Note_on_c, 1, 67, 0
3, 7560, Note_on_c, 1, 65, 100
3, 7680, Note_on_c, 1, 65, 0
3, 7680, Note_on_c, 1, 67, 100
3, 7920, Note_on_c, 1, 67, 0
3, 8640, Note_on_c, 1, 62, 100
3, 8880, Note_on_c, 1, 62, 0
3, 9120, Note_on_c, 1, 63, 100
3, 9360, Note_on_c, 1, 63, 0
3, 9360, Note_on_c, 1, 65, 100
3, 9600, Note_on_c, 1, 65, 0
3, 9600, Note_on_c, 1, 63, 100
3, 9840, Note_on_c, 1, 63, 0
3, 9840, Note_on_c, 1, 65, 100
3, 10080, Note_on_c, 1, 65, 0
3, 10080, Note_on_c, 1, 62, 100
3, 10320, Note_on_c, 1, 62, 0
3, 11280, Note_on_c, 1, 74, 100
3, 11520, Note_on_c, 1, 74, 0
3, 11520, Note_on_c, 1, 74, 100
3, 11760, Note_on_c, 1, 74, 0
3, 11760, Note_on_c, 1, 72, 100
3, 12000, Note_on_c, 1, 72, 0
3, 12720, Note_on_c, 1, 72, 100
3, 12960, Note_on_c, 1, 72, 0
3, 12960, Note_on_c, 1, 72, 100
3, 13200, Note_on_c, 1, 72, 0
3, 13200, Note_on_c, 1, 70, 100
3, 13440, Note_on_c, 1, 70, 0
3, 13920, Note_on_c, 1, 74, 100
3, 14160, Note_on_c, 1, 74, 0
3, 14160, Note_on_c, 1, 72, 100
3, 14400, Note_on_c, 1, 72, 0
3, 18720, Note_on_c, 1, 67, 100
3, 18960, Note_on_c, 1, 67, 0
3, 20160, Note_on_c, 1, 62, 100
3, 20400, Note_on_c, 1, 62, 0
3, 21120, Note_on_c, 1, 67, 100
3, 21360, Note_on_c, 1, 67, 0
3, 22320, Note_on_c, 1, 60, 100
3, 22560, Note_on_c, 1, 60, 0
3, 22560, Note_on_c, 1, 62, 100
3, 22800, Note_on_c, 1, 62, 0
3, 23040, Note_on_c, 1, 55, 100
3, 23400, Note_on_c, 1, 55, 0
3, 23400, Note_on_c, 1, 58, 100
3, 23520, Note_on_c, 1, 58, 0
3, 23520, Note_on_c, 1, 62, 100
3, 23760, Note_on_c, 1, 62, 0
3, 23760, Note_on_c, 1, 60, 100
3, 23880, Note_on_c, 1, 60, 0
3, 23880, Note_on_c, 1, 58, 100
3, 24000, Note_on_c, 1, 58, 0
3, 24000, Note_on_c, 1, 57, 100
3, 24120, Note_on_c, 1, 57, 0
3, 24120, Note_on_c, 1, 55, 100
3, 24240, Note_on_c, 1, 55, 0
3, 24240, Note_on_c, 1, 67, 100
3, 24480, Note_on_c, 1, 67, 0
3, 24480, Note_on_c, 1, 67, 100
3, 24720, Note_on_c, 1, 67, 0
3, 24720, Note_on_c, 1, 66, 100
3, 24960, Note_on_c, 1, 66, 0
3, 26280, Note_on_c, 1, 60, 100
3, 26400, Note_on_c, 1, 60, 0
3, 26400, Note_on_c, 1, 62, 100
3, 26640, Note_on_c, 1, 62, 0
3, 26640, Note_on_c, 1, 65, 100
3, 26760, Note_on_c, 1, 65, 0
3, 26760, Note_on_c, 1, 63, 100
3, 26880, Note_on_c, 1, 63, 0
3, 26880, Note_on_c, 1, 62, 100
3, 27000, Note_on_c, 1, 62, 0
3, 27000, Note_on_c, 1, 60, 100
3, 27120, Note_on_c, 1, 60, 0
3, 27120, Note_on_c, 1, 75, 100
3, 27360, Note_on_c, 1, 75, 0
3, 27360, Note_on_c, 1, 75, 100
3, 27600, Note_on_c, 1, 75, 0
3, 27600, Note_on_c, 1, 74, 100
3, 27840, Note_on_c, 1, 74, 0
3, 37200, Note_on_c, 1, 74, 100
3, 37440, Note_on_c, 1, 74, 0
3, 37440, Note_on_c, 1, 74, 100
3, 37560, Note_on_c, 1, 74, 0
3, 37560, Note_on_c, 1, 70, 100
3, 37680, Note_on_c, 1, 70, 0
3, 37680, Note_on_c, 1, 72, 100
3, 37800, Note_on_c, 1, 72, 0
3, 37800, Note_on_c, 1, 69, 100
3, 37920, Note_on_c, 1, 69, 0
3, 37920, Note_on_c, 1, 62, 100
3, 38040, Note_on_c, 1, 62, 0
3, 38040, Note_on_c, 1, 77, 100
3, 38160, Note_on_c, 1, 77, 0
3, 38160, Note_on_c, 1, 72, 100
3, 38280, Note_on_c, 1, 72, 0
3, 38280, Note_on_c, 1, 69, 100
3, 38400, Note_on_c, 1, 69, 0
3, 38400, Note_on_c, 1, 70, 100
3, 38520, Note_on_c, 1, 70, 0
3, 38520, Note_on_c, 1, 67, 100
3, 38640, Note_on_c, 1, 67, 0
3, 38640, Note_on_c, 1, 60, 100
3, 38760, Note_on_c, 1, 60, 0
3, 38760, Note_on_c, 1, 75, 100
3, 38880, Note_on_c, 1, 75, 0
3, 38880, Note_on_c, 1, 70, 100
3, 39000, Note_on_c, 1, 70, 0
3, 39000, Note_on_c, 1, 67, 100
3, 39120, Note_on_c, 1, 67, 0
3, 39120, Note_on_c, 1, 69, 100
3, 39240, Note_on_c, 1, 69, 0
3, 39240, Note_on_c, 1, 65, 100
3, 39360, Note_on_c, 1, 65, 0
3, 39360, Note_on_c, 1, 58, 100
3, 39480, Note_on_c, 1, 58, 0
3, 39480, Note_on_c, 1, 74, 100
3, 39600, Note_on_c, 1, 74, 0
3, 39600, Note_on_c, 1, 63, 100
3, 39720, Note_on_c, 1, 63, 0
3, 39720, Note_on_c, 1, 74, 100
3, 39840, Note_on_c, 1, 74, 0
3, 39840, Note_on_c, 1, 79, 100
3, 40080, Note_on_c, 1, 79, 0
3, 40080, Note_on_c, 1, 77, 100
3, 40200, Note_on_c, 1, 77, 0
3, 40200, Note_on_c, 1, 75, 100
3, 40320, Note_on_c, 1, 75, 0
3, 40320, Note_on_c, 1, 74, 100
3, 40560, Note_on_c, 1, 74, 0
3, 40560, Note_on_c, 1, 72, 100
3, 40800, Note_on_c, 1, 72, 0
3, 41520, Note_on_c, 1, 72, 100
3, 41760, Note_on_c, 1, 72, 0
3, 41760, Note_on_c, 1, 72, 100
3, 42000, Note_on_c, 1, 72, 0
3, 42480, Note_on_c, 1, 71, 100
3, 42720, Note_on_c, 1, 71, 0
3, 43200, Note_on_c, 1, 67, 100
3, 43440, Note_on_c, 1, 67, 0
3, 43920, Note_on_c, 1, 65, 100
3, 44160, Note_on_c, 1, 65, 0
3, 45120, Note_on_c, 1, 70, 100
3, 45360, Note_on_c, 1, 70, 0
3, 45360, Note_on_c, 1, 70, 100
3, 45600, Note_on_c, 1, 70, 0
3, 47520, Note_on_c, 1, 67, 100
3, 47760, Note_on_c, 1, 67, 0
3, 48240, Note_on_c, 1, 67, 100
3, 48480, Note_on_c, 1, 67, 0
3, 48960, Note_on_c, 1, 65, 100
3, 49200, Note_on_c, 1, 65, 0
3, 49680, Note_on_c, 1, 65, 100
3, 49800, Note_on_c, 1, 65, 0
3, 49800, Note_on_c, 1, 84, 100
3, 49920, Note_on_c, 1, 84, 0
3, 49920, Note_on_c, 1, 82, 100
3, 50040, Note_on_c, 1, 82, 0
3, 50040, Note_on_c, 1, 81, 100
3, 50160, Note_on_c, 1, 81, 0
3, 50160, Note_on_c, 1, 79, 100
3, 50280, Note_on_c, 1, 79, 0
3, 50280, Note_on_c, 1, 77, 100
3, 50400, Note_on_c, 1, 77, 0
3, 50400, Note_on_c, 1, 75, 100
3, 50520, Note_on_c, 1, 75, 0
3, 50520, Note_on_c, 1, 74, 100
3, 50640, Note_on_c, 1, 74, 0
3, 50640, Note_on_c, 1, 79, 100
3, 50880, Note_on_c, 1, 79, 0
3, 50880, Note_on_c, 1, 77, 100
3, 51120, Note_on_c, 1, 77, 0
3, 51840, Note_on_c, 1, 58, 100
3, 52200, Note_on_c, 1, 58, 0
3, 52200, Note_on_c, 1, 62, 100
3, 52320, Note_on_c, 1, 62, 0
3, 52320, Note_on_c, 1, 65, 100
3, 52560, Note_on_c, 1, 65, 0
3, 52560, Note_on_c, 1, 63, 100
3, 52680, Note_on_c, 1, 63, 0
3, 52680, Note_on_c, 1, 62, 100
3, 52800, Note_on_c, 1, 62, 0
3, 52800, Note_on_c, 1, 60, 100
3, 52920, Note_on_c, 1, 60, 0
3, 52920, Note_on_c, 1, 58, 100
3, 53040, Note_on_c, 1, 58, 0
3, 53040, Note_on_c, 1, 74, 100
3, 53280, Note_on_c, 1, 74, 0
3, 53280, Note_on_c, 1, 74, 100
3, 53520, Note_on_c, 1, 74, 0
3, 53520, Note_on_c, 1, 72, 100
3, 53760, Note_on_c, 1, 72, 0
3, 54720, Note_on_c, 1, 65, 100
3, 54960, Note_on_c, 1, 65, 0
3, 54960, End_track
4, 0, Start_track
4, 0, MIDI_port, 0
4, 0, Title_t, "Johann Sebastian Bach  (1685-1750)"
4, 0, Program_c, 2, 40
4, 0, Control_c, 2, 7, 100
4, 0, Control_c, 2, 10, 79
4, 1200, Note_on_c, 2, 82, 100
4, 1440, Note_on_c, 2, 82, 0
4, 1440, Note_on_c, 2, 82, 100
4, 1680, Note_on_c, 2, 82, 0
4, 1680, Note_on_c, 2, 81, 100
4, 1920, Note_on_c, 2, 81, 0
4, 1920, Note_on_c, 2, 79, 100
4, 2160, Note_on_c, 2, 79, 0
4, 2160, Note_on_c, 2, 79, 100
4, 2400, Note_on_c, 2, 79, 0
4, 2400, Note_on_c, 2, 77, 100
4, 2640, Note_on_c, 2, 77, 0
4, 3120, Note_on_c, 2, 77, 100
4, 3360, Note_on_c, 2, 77, 0
4, 3360, Note_on_c, 2, 79, 100
4, 3600, Note_on_c, 2, 79, 0
4, 3840, Note_on_c, 2, 75, 100
4, 3960, Note_on_c, 2, 75, 0
4, 3960, Note_on_c, 2, 72, 100
4, 4080, Note_on_c, 2, 72, 0
4, 4080, Note_on_c, 2, 74, 100
4, 4320, Note_on_c, 2, 74, 0
4, 4560, Note_on_c, 2, 74, 100
4, 4680, Note_on_c, 2, 74, 0
4, 4680, Note_on_c, 2, 77, 100
4, 4800, Note_on_c, 2, 77, 0
4, 4800, Note_on_c, 2, 75, 100
4, 4920, Note_on_c, 2, 75, 0
4, 4920, Note_on_c, 2, 74, 100
4, 5040, Note_on_c, 2, 74, 0
4, 5040, Note_on_c, 2, 72, 100
4, 5280, Note_on_c, 2, 72, 0
4, 6000, Note_on_c, 2, 72, 100
4, 6120, Note_on_c, 2, 72, 0
4, 6120, Note_on_c, 2, 70, 100
4, 6240, Note_on_c, 2, 70, 0
4, 6240, Note_on_c, 2, 72, 100
4, 6480, Note_on_c, 2, 72, 0
4, 6720, Note_on_c, 2, 72, 100
4, 6960, Note_on_c, 2, 72, 0
4, 6960, Note_on_c, 2, 77, 100
4, 7200, Note_on_c, 2, 77, 0
4, 7440, Note_on_c, 2, 75, 100
4, 7560, Note_on_c, 2, 75, 0
4, 7560, Note_on_c, 2, 74, 100
4, 7680, Note_on_c, 2, 74, 0
4, 7680, Note_on_c, 2, 75, 100
4, 7920, Note_on_c, 2, 75, 0
4, 8640, Note_on_c, 2, 70, 100
4, 8880, Note_on_c, 2, 70, 0
4, 10080, Note_on_c, 2, 58, 100
4, 10440, Note_on_c, 2, 58, 0
4, 10440, Note_on_c, 2, 62, 100
4, 10560, Note_on_c, 2, 62, 0
4, 10560, Note_on_c, 2, 65, 100
4, 10800, Note_on_c, 2, 65, 0
4, 10800, Note_on_c, 2, 63, 100
4, 10920, Note_on_c, 2, 63, 0
4, 10920, Note_on_c, 2, 62, 100
4, 11040, Note_on_c, 2, 62, 0
4, 11040, Note_on_c, 2, 60, 100
4, 11160, Note_on_c, 2, 60, 0
4, 11160, Note_on_c, 2, 58, 100
4, 11280, Note_on_c, 2, 58, 0
4, 11520, Note_on_c, 2, 65, 100
4, 11880, Note_on_c, 2, 65, 0
4, 11880, Note_on_c, 2, 70, 100
4, 12000, Note_on_c, 2, 70, 0
4, 12000, Note_on_c, 2, 69, 100
4, 12240, Note_on_c, 2, 69, 0
4, 12240, Note_on_c, 2, 67, 100
4, 12360, Note_on_c, 2, 67, 0
4, 12360, Note_on_c, 2, 66, 100
4, 12480, Note_on_c, 2, 66, 0
4, 12480, Note_on_c, 2, 64, 100
4, 12600, Note_on_c, 2, 64, 0
4, 12600, Note_on_c, 2, 62, 100
4, 12720, Note_on_c, 2, 62, 0
4, 12960, Note_on_c, 2, 62, 100
4, 13200, Note_on_c, 2, 62, 0
4, 18720, Note_on_c, 2, 60, 100
4, 19080, Note_on_c, 2, 60, 0
4, 19080, Note_on_c, 2, 63, 100
4, 19200, Note_on_c, 2, 63, 0
4, 19200, Note_on_c, 2, 67, 100
4, 19440, Note_on_c, 2, 67, 0
4, 19440, Note_on_c, 2, 65, 100
4, 19560, Note_on_c, 2, 65, 0
4, 19560, Note_on_c, 2, 63, 100
4, 19680, Note_on_c, 2, 63, 0
4, 19680, Note_on_c, 2, 62, 100
4, 19800, Note_on_c, 2, 62, 0
4, 19800, Note_on_c, 2, 60, 100
4, 19920, Note_on_c, 2, 60, 0
4, 19920, Note_on_c, 2, 72, 100
4, 20160, Note_on_c, 2, 72, 0
4, 20160, Note_on_c, 2, 72, 100
4, 20400, Note_on_c, 2, 72, 0
4, 20400, Note_on_c, 2, 70, 100
4, 20640, Note_on_c, 2, 70, 0
4, 20640, Note_on_c, 2, 66, 100
4, 20880, Note_on_c, 2, 66, 0
4, 20880, Note_on_c, 2, 67, 100
4, 21120, Note_on_c, 2, 67, 0
4, 21120, Note_on_c, 2, 60, 100
4, 21360, Note_on_c, 2, 60, 0
4, 21360, Note_on_c, 2, 62, 100
4, 21600, Note_on_c, 2, 62, 0
4, 21600, Note_on_c, 2, 58, 100
4, 21660, Note_on_c, 2, 58, 0
4, 21660, Note_on_c, 2, 62, 100
4, 21720, Note_on_c, 2, 62, 0
4, 21720, Note_on_c, 2, 64, 100
4, 21780, Note_on_c, 2, 64, 0
4, 21780, Note_on_c, 2, 66, 100
4, 21840, Note_on_c, 2, 66, 0
4, 21840, Note_on_c, 2, 67, 100
4, 21900, Note_on_c, 2, 67, 0
4, 21900, Note_on_c, 2, 69, 100
4, 21960, Note_on_c, 2, 69, 0
4, 21960, Note_on_c, 2, 70, 100
4, 22020, Note_on_c, 2, 70, 0
4, 22020, Note_on_c, 2, 72, 100
4, 22080, Note_on_c, 2, 72, 0
4, 22080, Note_on_c, 2, 74, 100
4, 22140, Note_on_c, 2, 74, 0
4, 22140, Note_on_c, 2, 72, 100
4, 22200, Note_on_c, 2, 72, 0
4, 22200, Note_on_c, 2, 75, 100
4, 22260, Note_on_c, 2, 75, 0
4, 22260, Note_on_c, 2, 74, 100
4, 22320, Note_on_c, 2, 74, 0
4, 22560, Note_on_c, 2, 72, 100
4, 22680, Note_on_c, 2, 72, 0
4, 22680, Note_on_c, 2, 70, 100
4, 22800, Note_on_c, 2, 70, 0
4, 22800, Note_on_c, 2, 69, 100
4, 22920, Note_on_c, 2, 69, 0
4, 22920, Note_on_c, 2, 67, 100
4, 23040, Note_on_c, 2, 67, 0
4, 23040, Note_on_c, 2, 67, 100
4, 23400, Note_on_c, 2, 67, 0
4, 24240, Note_on_c, 2, 70, 100
4, 24480, Note_on_c, 2, 70, 0
4, 24480, Note_on_c, 2, 70, 100
4, 24720, Note_on_c, 2, 70, 0
4, 24720, Note_on_c, 2, 69, 100
4, 24960, Note_on_c, 2, 69, 0
4, 25680, Note_on_c, 2, 71, 100
4, 25920, Note_on_c, 2, 71, 0
4, 25920, Note_on_c, 2, 71, 100
4, 26160, Note_on_c, 2, 71, 0
4, 26160, Note_on_c, 2, 72, 100
4, 26400, Note_on_c, 2, 72, 0
4, 29160, Note_on_c, 2, 65, 100
4, 29280, Note_on_c, 2, 65, 0
4, 29280, Note_on_c, 2, 77, 100
4, 29520, Note_on_c, 2, 77, 0
4, 29520, Note_on_c, 2, 75, 100
4, 29640, Note_on_c, 2, 75, 0
4, 29640, Note_on_c, 2, 74, 100
4, 29760, Note_on_c, 2, 74, 0
4, 29760, Note_on_c, 2, 72, 100
4, 29880, Note_on_c, 2, 72, 0
4, 29880, Note_on_c, 2, 70, 100
4, 30000, Note_on_c, 2, 70, 0
4, 30000, Note_on_c, 2, 74, 100
4, 30240, Note_on_c, 2, 74, 0
4, 30240, Note_on_c, 2, 74, 100
4, 30480, Note_on_c, 2, 74, 0
4, 30480, Note_on_c, 2, 75, 100
4, 30720, Note_on_c, 2, 75, 0
4, 31440, Note_on_c, 2, 72, 100
4, 31680, Note_on_c, 2, 72, 0
4, 31680, Note_on_c, 2, 72, 100
4, 31920, Note_on_c, 2, 72, 0
4, 32400, Note_on_c, 2, 70, 100
4, 32640, Note_on_c, 2, 70, 0
4, 33120, Note_on_c, 2, 65, 100
4, 33360, Note_on_c, 2, 65, 0
4, 33840, Note_on_c, 2, 65, 100
4, 34080, Note_on_c, 2, 65, 0
4, 34560, Note_on_c, 2, 67, 100
4, 34800, Note_on_c, 2, 67, 0
4, 35760, Note_on_c, 2, 65, 100
4, 36000, Note_on_c, 2, 65, 0
4, 36000, Note_on_c, 2, 65, 100
4, 36240, Note_on_c, 2, 65, 0
4, 37200, Note_on_c, 2, 65, 100
4, 37440, Note_on_c, 2, 65, 0
4, 37440, Note_on_c, 2, 63, 100
4, 37680, Note_on_c, 2, 63, 0
4, 40320, Note_on_c, 2, 65, 100
4, 40680, Note_on_c, 2, 65, 0
4, 40680, Note_on_c, 2, 69, 100
4, 40800, Note_on_c, 2, 69, 0
4, 40800, Note_on_c, 2, 72, 100
4, 41040, Note_on_c, 2, 72, 0
4, 41040, Note_on_c, 2, 70, 100
4, 41160, Note_on_c, 2, 70, 0
4, 41160, Note_on_c, 2, 69, 100
4, 41280, Note_on_c, 2, 69, 0
4, 41280, Note_on_c, 2, 67, 100
4, 41400, Note_on_c, 2, 67, 0
4, 41400, Note_on_c, 2, 65, 100
4, 41520, Note_on_c, 2, 65, 0
4, 41520, Note_on_c, 2, 63, 100
4, 41760, Note_on_c, 2, 63, 0
4, 41760, Note_on_c, 2, 62, 100
4, 42000, Note_on_c, 2, 62, 0
4, 42480, Note_on_c, 2, 62, 100
4, 42720, Note_on_c, 2, 62, 0
4, 43200, Note_on_c, 2, 60, 100
4, 43440, Note_on_c, 2, 60, 0
4, 43920, Note_on_c, 2, 57, 100
4, 44160, Note_on_c, 2, 57, 0
4, 44640, Note_on_c, 2, 58, 100
4, 44880, Note_on_c, 2, 58, 0
4, 44880, Note_on_c, 2, 55, 100
4, 45120, Note_on_c, 2, 55, 0
4, 47280, Note_on_c, 2, 62, 100
4, 47520, Note_on_c, 2, 62, 0
4, 47520, Note_on_c, 2, 60, 100
4, 47760, Note_on_c, 2, 60, 0
4, 48240, Note_on_c, 2, 58, 100
4, 48480, Note_on_c, 2, 58, 0
4, 48960, Note_on_c, 2, 57, 100
4, 49200, Note_on_c, 2, 57, 0
4, 50640, Note_on_c, 2, 63, 100
4, 50880, Note_on_c, 2, 63, 0
4, 50880, Note_on_c, 2, 62, 100
4, 51120, Note_on_c, 2, 62, 0
4, 51120, Note_on_c, 2, 62, 100
4, 51180, Note_on_c, 2, 62, 0
4, 51180, Note_on_c, 2, 63, 100
4, 51240, Note_on_c, 2, 63, 0
4, 51240, Note_on_c, 2, 65, 100
4, 51360, Note_on_c, 2, 65, 0
4, 51360, Note_on_c, 2, 74, 100
4, 51480, Note_on_c, 2, 74, 0
4, 51480, Note_on_c, 2, 70, 100
4, 51600, Note_on_c, 2, 70, 0
4, 51600, Note_on_c, 2, 63, 100
4, 51840, Note_on_c, 2, 63, 0
4, 51840, Note_on_c, 2, 62, 100
4, 52080, Note_on_c, 2, 62, 0
4, 53280, Note_on_c, 2, 65, 100
4, 53640, Note_on_c, 2, 65, 0
4, 53640, Note_on_c, 2, 69, 100
4, 53760, Note_on_c, 2, 69, 0
4, 53760, Note_on_c, 2, 72, 100
4, 54000, Note_on_c, 2, 72, 0
4, 54000, Note_on_c, 2, 70, 100
4, 54120, Note_on_c, 2, 70, 0
4, 54120, Note_on_c, 2, 69, 100
4, 54240, Note_on_c, 2, 69, 0
4, 54240, Note_on_c, 2, 67, 100
4, 54360, Note_on_c, 2, 67, 0
4, 54360, Note_on_c, 2, 65, 100
4, 54480, Note_on_c, 2, 65, 0
4, 54480, Note_on_c, 2, 75, 100
4, 54720, Note_on_c, 2, 75, 0
4, 54720, Note_on_c, 2, 75, 100
4, 54960, Note_on_c, 2, 75, 0
4, 54960, Note_on_c, 2, 74, 100
4, 55200, Note_on_c, 2, 74, 0
4, 55200, End_track
5, 0, Start_track
5, 0, MIDI_port, 0
5, 0, Title_t, "Six Sonatas and Partitas for Solo Violin"
5, 0, Program_c, 3, 40
5, 0, Control_c, 3, 7, 100
5, 0, Control_c, 3, 10, 49
5, 12960, Note_on_c, 3, 55, 100
5, 13320, Note_on_c, 3, 55, 0
5, 13320, Note_on_c, 3, 67, 100
5, 13440, Note_on_c, 3, 67, 0
5, 13440, Note_on_c, 3, 65, 100
5, 13680, Note_on_c, 3, 65, 0
5, 13680, Note_on_c, 3, 63, 100
5, 13920, Note_on_c, 3, 63, 0
5, 14400, Note_on_c, 3, 62, 100
5, 14640, Note_on_c, 3, 62, 0
5, 14640, Note_on_c, 3, 72, 100
5, 14880, Note_on_c, 3, 72, 0
5, 14880, Note_on_c, 3, 70, 100
5, 15120, Note_on_c, 3, 70, 0
5, 15120, Note_on_c, 3, 62, 100
5, 15360, Note_on_c, 3, 62, 0
5, 15360, Note_on_c, 3, 70, 100
5, 15600, Note_on_c, 3, 70, 0
5, 15600, Note_on_c, 3, 72, 100
5, 15840, Note_on_c, 3, 72, 0
5, 15840, Note_on_c, 3, 62, 100
5, 16080, Note_on_c, 3, 62, 0
5, 16080, Note_on_c, 3, 72, 100
5, 16320, Note_on_c, 3, 72, 0
5, 16320, Note_on_c, 3, 74, 100
5, 16560, Note_on_c, 3, 74, 0
5, 16560, Note_on_c, 3, 75, 100
5, 16680, Note_on_c, 3, 75, 0
5, 24480, Note_on_c, 3, 62, 100
5, 24840, Note_on_c, 3, 62, 0
5, 24840, Note_on_c, 3, 63, 100
5, 24960, Note_on_c, 3, 63, 0
5, 24960, Note_on_c, 3, 62, 100
5, 25200, Note_on_c, 3, 62, 0
5, 25200, Note_on_c, 3, 60, 100
5, 25320, Note_on_c, 3, 60, 0
5, 25320, Note_on_c, 3, 59, 100
5, 25440, Note_on_c, 3, 59, 0
5, 25440, Note_on_c, 3, 57, 100
5, 25560, Note_on_c, 3, 57, 0
5, 25560, Note_on_c, 3, 55, 100
5, 25680, Note_on_c, 3, 55, 0
5, 25680, Note_on_c, 3, 65, 100
5, 25920, Note_on_c, 3, 65, 0
5, 25920, Note_on_c, 3, 65, 100
5, 26160, Note_on_c, 3, 65, 0
5, 26160, Note_on_c, 3, 63, 100
5, 26400, Note_on_c, 3, 63, 0
5, 27360, Note_on_c, 3, 67, 100
5, 27720, Note_on_c, 3, 67, 0
5, 27720, Note_on_c, 3, 62, 100
5, 27840, Note_on_c, 3, 62, 0
5, 27840, Note_on_c, 3, 67, 100
5, 28080, Note_on_c, 3, 67, 0
5, 28080, Note_on_c, 3, 65, 100
5, 28200, Note_on_c, 3, 65, 0
5, 28200, Note_on_c, 3, 64, 100
5, 28320, Note_on_c, 3, 64, 0
5, 28320, Note_on_c, 3, 62, 100
5, 28440, Note_on_c, 3, 62, 0
5, 28440, Note_on_c, 3, 60, 100
5, 28560, Note_on_c, 3, 60, 0
5, 28560, Note_on_c, 3, 76, 100
5, 28800, Note_on_c, 3, 76, 0
5, 28800, Note_on_c, 3, 76, 100
5, 29040, Note_on_c, 3, 76, 0
5, 29040, Note_on_c, 3, 77, 100
5, 29280, Note_on_c, 3, 77, 0
5, 30600, Note_on_c, 3, 58, 100
5, 30720, Note_on_c, 3, 58, 0
5, 30720, Note_on_c, 3, 63, 100
5, 30960, Note_on_c, 3, 63, 0
5, 30960, Note_on_c, 3, 62, 100
5, 31080, Note_on_c, 3, 62, 0
5, 31080, Note_on_c, 3, 60, 100
5, 31200, Note_on_c, 3, 60, 0
5, 31200, Note_on_c, 3, 58, 100
5, 31320, Note_on_c, 3, 58, 0
5, 31320, Note_on_c, 3, 57, 100
5, 31440, Note_on_c, 3, 57, 0
5, 31440, Note_on_c, 3, 69, 100
5, 31680, Note_on_c, 3, 69, 0
5, 31680, Note_on_c, 3, 62, 100
5, 31920, Note_on_c, 3, 62, 0
5, 31920, Note_on_c, 3, 55, 100
5, 32040, Note_on_c, 3, 55, 0
5, 32040, Note_on_c, 3, 79, 100
5, 32160, Note_on_c, 3, 79, 0
5, 32160, Note_on_c, 3, 70, 100
5, 32400, Note_on_c, 3, 70, 0
5, 32400, Note_on_c, 3, 60, 100
5, 32640, Note_on_c, 3, 60, 0
5, 32640, Note_on_c, 3, 65, 100
5, 32760, Note_on_c, 3, 65, 0
5, 32760, Note_on_c, 3, 72, 100
5, 32880, Note_on_c, 3, 72, 0
5, 32880, Note_on_c, 3, 69, 100
5, 33120, Note_on_c, 3, 69, 0
5, 33120, Note_on_c, 3, 58, 100
5, 33360, Note_on_c, 3, 58, 0
5, 33360, Note_on_c, 3, 67, 100
5, 33600, Note_on_c, 3, 67, 0
5, 33600, Note_on_c, 3, 63, 100
5, 33840, Note_on_c, 3, 63, 0
5, 34560, Note_on_c, 3, 60, 100
5, 34800, Note_on_c, 3, 60, 0
5, 35760, Note_on_c, 3, 57, 100
5, 36000, Note_on_c, 3, 57, 0
5, 36000, Note_on_c, 3, 58, 100
5, 36240, Note_on_c, 3, 58, 0
5, 37200, Note_on_c, 3, 58, 100
5, 37440, Note_on_c, 3, 58, 0
5, 42480, Note_on_c, 3, 55, 100
5, 42720, Note_on_c, 3, 55, 0
5, 45120, Note_on_c, 3, 79, 100
5, 45360, Note_on_c, 3, 79, 0
5, 45360, Note_on_c, 3, 77, 100
5, 45600, Note_on_c, 3, 77, 0
5, 45600, Note_on_c, 3, 75, 100
5, 45720, Note_on_c, 3, 75, 0
5, 45720, Note_on_c, 3, 72, 100
5, 45840, Note_on_c, 3, 72, 0
5, 45840, Note_on_c, 3, 74, 100
5, 46080, Note_on_c, 3, 74, 0
5, 46080, Note_on_c, 3, 72, 100
5, 46200, Note_on_c, 3, 72, 0
5, 46200, Note_on_c, 3, 70, 100
5, 46320, Note_on_c, 3, 70, 0
5, 46320, Note_on_c, 3, 75, 100
5, 46560, Note_on_c, 3, 75, 0
5, 46560, Note_on_c, 3, 74, 100
5, 46800, Note_on_c, 3, 74, 0
5, 47280, Note_on_c, 3, 77, 100
5, 47520, Note_on_c, 3, 77, 0
5, 47520, Note_on_c, 3, 76, 100
5, 47880, Note_on_c, 3, 76, 0
5, 47880, Note_on_c, 3, 77, 100
5, 48000, Note_on_c, 3, 77, 0
5, 48000, Note_on_c, 3, 76, 100
5, 48240, Note_on_c, 3, 76, 0
5, 48240, Note_on_c, 3, 76, 100
5, 48360, Note_on_c, 3, 76, 0
5, 48360, Note_on_c, 3, 79, 100
5, 48480, Note_on_c, 3, 79, 0
5, 48480, Note_on_c, 3, 77, 100
5, 48600, Note_on_c, 3, 77, 0
5, 48600, Note_on_c, 3, 76, 100
5, 48720, Note_on_c, 3, 76, 0
5, 48720, Note_on_c, 3, 74, 100
5, 48840, Note_on_c, 3, 74, 0
5, 48840, Note_on_c, 3, 72, 100
5, 48960, Note_on_c, 3, 72, 0
5, 48960, Note_on_c, 3, 72, 100
5, 49200, Note_on_c, 3, 72, 0
5, 50640, Note_on_c, 3, 69, 100
5, 50880, Note_on_c, 3, 69, 0
5, 50880, Note_on_c, 3, 70, 100
5, 51120, Note_on_c, 3, 70, 0
5, 51600, Note_on_c, 3, 72, 100
5, 51840, Note_on_c, 3, 72, 0
5, 51840, Note_on_c, 3, 70, 100
5, 52080, Note_on_c, 3, 70, 0
5, 54720, Note_on_c, 3, 58, 100
5, 54960, Note_on_c, 3, 58, 0
5, 54960, End_track
6, 0, Start_track
6, 0, MIDI_port, 0
6, 0, Title_t, "--------------------------------------"
6, 0, End_track
7, 0, Start_track
7, 0, MIDI_port, 0
7, 0, Title_t, "Sonata No. 1 in G minor - BWV 1001"
7, 0, End_track
8, 0, Start_track
8, 0, MIDI_port, 0
8, 0, Title_t, "3rd Movement: Siciliano"
8, 0, End_track
9, 0, Start_track
9, 0, MIDI_port, 0
9, 0, Title_t, "--------------------------------------"
9, 0, End_track
10, 0, Start_track
10, 0, MIDI_port, 0
10, 0, Title_t, "Sequenced with Cakewalk Pro Audio by"
10, 0, End_track
11, 0, Start_track
11, 0, MIDI_port, 0
11, 0, Title_t, "David J. Grossman - dave@unpronounceable.com"
11, 0, End_track
12, 0, Start_track
12, 0, MIDI_port, 0
12, 0, Title_t, "This and other Bach MIDI files can be found at:"
12, 0, End_track
13, 0, Start_track
13, 0, MIDI_port, 0
13, 0, Title_t, "Dave's J.S. Bach Page"
13, 0, End_track
14, 0, Start_track
14, 0, MIDI_port, 0
14, 0, Title_t, "http://www.unpronounceable.com/bach"
14, 0, End_track
15, 0, Start_track
15, 0, MIDI_port, 0
15, 0, Title_t, "--------------------------------------"
15, 0, End_track
16, 0, Start_track
16, 0, MIDI_port, 0
16, 0, Title_t, "Original Filename: vs1-3sic.mid"
16, 0, End_track
17, 0, Start_track
17, 0, MIDI_port, 0
17, 0, Title_t, "Last Modified: February 22, 1997"
17, 0, End_track
0, 0, End_of_file
