0, 0, Header, 1, 17, 480
1, 0, Start_track
1, 0, Title_t, "untitled"
1, 0, SMPTE_offset, 96, 0, 3, 0, 0
1, 0, Time_signature, 4, 2, 24, 8
1, 0, Key_signature, -1, "major"
1, 0, Tempo, 2307692
1, 23040, Tempo, 3529412
1, 23520, Tempo, 2307692
1, 23520, End_track
2, 0, Start_track
2, 0, MIDI_port, 0
2, 0, Title_t, "Solo Violin"
2, 0, Program_c, 0, 40
2, 0, Control_c, 0, 7, 100
2, 0, Control_c, 0, 10, 69
2, 0, Note_on_c, 0, 79, 100
2, 540, Note_on_c, 0, 79, 0
2, 540, Note_on_c, 0, 77, 100
2, 600, Note_on_c, 0, 77, 0
2, 600, Note_on_c, 0, 75, 100
2, 660, Note_on_c, 0, 75, 0
2, 660, Note_on_c, 0, 74, 100
2, 720, Note_on_c, 0, 74, 0
2, 720, Note_on_c, 0, 72, 100
2, 780, Note_on_c, 0, 72, 0
2, 780, Note_on_c, 0, 70, 100
2, 840, Note_on_c, 0, 70, 0
2, 840, Note_on_c, 0, 69, 100
2, 900, Note_on_c, 0, 69, 0
2, 900, Note_on_c, 0, 70, 100
2, 930, Note_on_c, 0, 70, 0
2, 930, Note_on_c, 0, 67, 100
2, 960, Note_on_c, 0, 67, 0
2, 960, Note_on_c, 0, 67, 100
2, 1200, Note_on_c, 0, 67, 0
2, 1200, Note_on_c, 0, 66, 100
2, 1500, Note_on_c, 0, 66, 0
2, 1500, Note_on_c, 0, 64, 100
2, 1560, Note_on_c, 0, 64, 0
2, 1560, Note_on_c, 0, 62, 100
2, 1620, Note_on_c, 0, 62, 0
2, 1620, Note_on_c, 0, 64, 100
2, 1680, Note_on_c, 0, 64, 0
2, 1680, Note_on_c, 0, 66, 100
2, 1740, Note_on_c, 0, 66, 0
2, 1740, Note_on_c, 0, 67, 100
2, 1800, Note_on_c, 0, 67, 0
2, 1800, Note_on_c, 0, 69, 100
2, 1860, Note_on_c, 0, 69, 0
2, 1860, Note_on_c, 0, 72, 100
2, 1890, Note_on_c, 0, 72, 0
2, 1890, Note_on_c, 0, 70, 100
2, 1920, Note_on_c, 0, 70, 0
2, 1920, Note_on_c, 0, 72, 100
2, 2220, Note_on_c, 0, 72, 0
2, 2220, Note_on_c, 0, 74, 100
2, 2250, Note_on_c, 0, 74, 0
2, 2250, Note_on_c, 0, 72, 100
2, 2280, Note_on_c, 0, 72, 0
2, 2280, Note_on_c, 0, 70, 100
2, 2340, Note_on_c, 0, 70, 0
2, 2340, Note_on_c, 0, 72, 100
2, 2400, Note_on_c, 0, 72, 0
2, 2400, Note_on_c, 0, 72, 100
2, 2400, Pitch_bend_c, 0, 16383
2, 2415, Pitch_bend_c, 0, 8192
2, 2430, Pitch_bend_c, 0, 16383
2, 2445, Pitch_bend_c, 0, 8192
2, 2460, Pitch_bend_c, 0, 16383
2, 2475, Pitch_bend_c, 0, 8192
2, 2490, Pitch_bend_c, 0, 16383
2, 2505, Pitch_bend_c, 0, 8192
2, 2520, Pitch_bend_c, 0, 16383
2, 2535, Pitch_bend_c, 0, 8192
2, 2550, Pitch_bend_c, 0, 16383
2, 2565, Pitch_bend_c, 0, 8192
2, 2580, Note_on_c, 0, 72, 0
2, 2580, Note_on_c, 0, 70, 100
2, 2610, Note_on_c, 0, 70, 0
2, 2610, Note_on_c, 0, 72, 100
2, 2640, Note_on_c, 0, 72, 0
2, 2640, Note_on_c, 0, 74, 100
2, 2760, Note_on_c, 0, 74, 0
2, 2760, Note_on_c, 0, 69, 100
2, 2880, Note_on_c, 0, 69, 0
2, 2880, Note_on_c, 0, 70, 100
2, 3120, Note_on_c, 0, 70, 0
2, 3180, Note_on_c, 0, 67, 100
2, 3240, Note_on_c, 0, 67, 0
2, 3240, Note_on_c, 0, 69, 100
2, 3270, Note_on_c, 0, 69, 0
2, 3270, Note_on_c, 0, 70, 100
2, 3300, Note_on_c, 0, 70, 0
2, 3300, Note_on_c, 0, 72, 100
2, 3330, Note_on_c, 0, 72, 0
2, 3330, Note_on_c, 0, 74, 100
2, 3360, Note_on_c, 0, 74, 0
2, 3360, Note_on_c, 0, 75, 100
2, 3600, Note_on_c, 0, 75, 0
2, 3600, Note_on_c, 0, 70, 100
2, 3840, Note_on_c, 0, 70, 0
2, 3840, Note_on_c, 0, 70, 100
2, 3960, Note_on_c, 0, 70, 0
2, 3960, Note_on_c, 0, 69, 100
2, 4080, Note_on_c, 0, 69, 0
2, 4080, Note_on_c, 0, 75, 100
2, 4200, Note_on_c, 0, 75, 0
2, 4200, Note_on_c, 0, 74, 100
2, 4320, Note_on_c, 0, 74, 0
2, 4320, Note_on_c, 0, 74, 100
2, 4560, Note_on_c, 0, 74, 0
2, 4560, Note_on_c, 0, 82, 100
2, 4680, Note_on_c, 0, 82, 0
2, 4680, Note_on_c, 0, 78, 100
2, 4800, Note_on_c, 0, 78, 0
2, 4800, Note_on_c, 0, 79, 100
2, 4980, Note_on_c, 0, 79, 0
2, 4980, Note_on_c, 0, 75, 100
2, 5040, Note_on_c, 0, 75, 0
2, 5040, Note_on_c, 0, 74, 100
2, 5100, Note_on_c, 0, 74, 0
2, 5100, Note_on_c, 0, 72, 100
2, 5160, Note_on_c, 0, 72, 0
2, 5160, Note_on_c, 0, 70, 100
2, 5220, Note_on_c, 0, 70, 0
2, 5220, Note_on_c, 0, 72, 100
2, 5250, Note_on_c, 0, 72, 0
2, 5250, Note_on_c, 0, 69, 100
2, 5280, Note_on_c, 0, 69, 0
2, 5280, Note_on_c, 0, 70, 100
2, 5340, Note_on_c, 0, 70, 0
2, 5340, Note_on_c, 0, 66, 100
2, 5400, Note_on_c, 0, 66, 0
2, 5400, Note_on_c, 0, 67, 100
2, 5460, Note_on_c, 0, 67, 0
2, 5460, Note_on_c, 0, 62, 100
2, 5520, Note_on_c, 0, 62, 0
2, 5520, Note_on_c, 0, 63, 100
2, 5580, Note_on_c, 0, 63, 0
2, 5580, Note_on_c, 0, 74, 100
2, 5610, Note_on_c, 0, 74, 0
2, 5610, Note_on_c, 0, 72, 100
2, 5640, Note_on_c, 0, 72, 0
2, 5640, Note_on_c, 0, 70, 100
2, 5670, Note_on_c, 0, 70, 0
2, 5670, Note_on_c, 0, 72, 100
2, 5700, Note_on_c, 0, 72, 0
2, 5700, Pitch_bend_c, 0, 16383
2, 5700, Note_on_c, 0, 72, 100
2, 5707, Pitch_bend_c, 0, 8192
2, 5715, Pitch_bend_c, 0, 16383
2, 5722, Pitch_bend_c, 0, 8192
2, 5730, Note_on_c, 0, 72, 0
2, 5730, Note_on_c, 0, 70, 100
2, 5745, Note_on_c, 0, 70, 0
2, 5745, Note_on_c, 0, 72, 100
2, 5760, Note_on_c, 0, 72, 0
2, 5760, Note_on_c, 0, 79, 100
2, 6000, Note_on_c, 0, 79, 0
2, 6000, Note_on_c, 0, 78, 100
2, 6240, Note_on_c, 0, 78, 0
2, 6240, Note_on_c, 0, 81, 100
2, 6480, Note_on_c, 0, 81, 0
2, 6480, Note_on_c, 0, 72, 100
2, 6720, Note_on_c, 0, 72, 0
2, 6720, Note_on_c, 0, 70, 100
2, 6840, Note_on_c, 0, 70, 0
2, 6840, Note_on_c, 0, 74, 100
2, 6960, Note_on_c, 0, 74, 0
2, 6960, Note_on_c, 0, 78, 100
2, 7080, Note_on_c, 0, 78, 0
2, 7080, Note_on_c, 0, 81, 100
2, 7200, Note_on_c, 0, 81, 0
2, 7200, Note_on_c, 0, 79, 100
2, 7440, Note_on_c, 0, 79, 0
2, 7440, Note_on_c, 0, 70, 100
2, 7680, Note_on_c, 0, 70, 0
2, 7680, Note_on_c, 0, 69, 100
2, 7800, Note_on_c, 0, 69, 0
2, 7800, Note_on_c, 0, 82, 100
2, 7860, Note_on_c, 0, 82, 0
2, 7860, Note_on_c, 0, 81, 100
2, 7890, Note_on_c, 0, 81, 0
2, 7890, Note_on_c, 0, 79, 100
2, 7920, Note_on_c, 0, 79, 0
2, 7920, Pitch_bend_c, 0, 16383
2, 7920, Note_on_c, 0, 77, 100
2, 7940, Pitch_bend_c, 0, 8192
2, 7960, Pitch_bend_c, 0, 16383
2, 7980, Pitch_bend_c, 0, 8192
2, 8000, Pitch_bend_c, 0, 16383
2, 8020, Pitch_bend_c, 0, 8192
2, 8100, Note_on_c, 0, 77, 0
2, 8100, Note_on_c, 0, 76, 100
2, 8160, Note_on_c, 0, 76, 0
2, 8160, Note_on_c, 0, 77, 100
2, 8400, Note_on_c, 0, 77, 0
2, 8400, Note_on_c, 0, 69, 100
2, 8640, Note_on_c, 0, 69, 0
2, 8640, Note_on_c, 0, 77, 100
2, 8760, Note_on_c, 0, 77, 0
2, 8760, Note_on_c, 0, 74, 100
2, 8880, Note_on_c, 0, 74, 0
2, 8880, Note_on_c, 0, 75, 100
2, 9120, Note_on_c, 0, 75, 0
2, 9120, Note_on_c, 0, 82, 100
2, 9240, Note_on_c, 0, 82, 0
2, 9240, Note_on_c, 0, 79, 100
2, 9360, Note_on_c, 0, 79, 0
2, 9360, Note_on_c, 0, 79, 100
2, 9480, Note_on_c, 0, 79, 0
2, 9480, Note_on_c, 0, 75, 100
2, 9600, Note_on_c, 0, 75, 0
2, 9600, Note_on_c, 0, 75, 100
2, 9720, Note_on_c, 0, 75, 0
2, 9720, Note_on_c, 0, 73, 100
2, 9840, Note_on_c, 0, 73, 0
2, 9840, Note_on_c, 0, 81, 100
2, 10080, Note_on_c, 0, 81, 0
2, 10080, Note_on_c, 0, 65, 100
2, 10260, Note_on_c, 0, 65, 0
2, 10260, Note_on_c, 0, 81, 100
2, 10320, Note_on_c, 0, 81, 0
2, 10320, Note_on_c, 0, 79, 100
2, 10380, Note_on_c, 0, 79, 0
2, 10380, Note_on_c, 0, 77, 100
2, 10440, Note_on_c, 0, 77, 0
2, 10440, Note_on_c, 0, 76, 100
2, 10500, Note_on_c, 0, 76, 0
2, 10500, Note_on_c, 0, 74, 100
2, 10560, Note_on_c, 0, 74, 0
2, 10560, Note_on_c, 0, 64, 100
2, 10680, Note_on_c, 0, 64, 0
2, 10680, Note_on_c, 0, 74, 100
2, 10800, Note_on_c, 0, 74, 0
2, 10800, Note_on_c, 0, 79, 100
2, 10920, Note_on_c, 0, 79, 0
2, 10920, Note_on_c, 0, 76, 100
2, 11040, Note_on_c, 0, 76, 0
2, 11040, Note_on_c, 0, 74, 100
2, 11160, Note_on_c, 0, 74, 0
2, 11160, Note_on_c, 0, 73, 100
2, 11280, Note_on_c, 0, 73, 0
2, 11280, Note_on_c, 0, 69, 100
2, 11400, Note_on_c, 0, 69, 0
2, 11400, Note_on_c, 0, 79, 100
2, 11520, Note_on_c, 0, 79, 0
2, 11520, Note_on_c, 0, 62, 100
2, 11640, Note_on_c, 0, 62, 0
2, 11640, Note_on_c, 0, 79, 100
2, 11760, Note_on_c, 0, 79, 0
2, 11760, Note_on_c, 0, 77, 100
2, 11880, Note_on_c, 0, 77, 0
2, 11880, Note_on_c, 0, 79, 100
2, 11940, Note_on_c, 0, 79, 0
2, 11940, Note_on_c, 0, 76, 100
2, 12000, Note_on_c, 0, 76, 0
2, 12000, Note_on_c, 0, 77, 100
2, 12240, Note_on_c, 0, 77, 0
2, 12240, Note_on_c, 0, 69, 100
2, 12480, Note_on_c, 0, 69, 0
2, 12480, Note_on_c, 0, 69, 100
2, 12600, Note_on_c, 0, 69, 0
2, 12600, Note_on_c, 0, 62, 100
2, 12720, Note_on_c, 0, 62, 0
2, 12720, Note_on_c, 0, 67, 100
2, 12840, Note_on_c, 0, 67, 0
2, 12840, Note_on_c, 0, 77, 100
2, 12960, Note_on_c, 0, 77, 0
2, 12960, Note_on_c, 0, 76, 100
2, 13230, Note_on_c, 0, 76, 0
2, 13230, Note_on_c, 0, 77, 100
2, 13260, Note_on_c, 0, 77, 0
2, 13260, Note_on_c, 0, 79, 100
2, 13290, Note_on_c, 0, 79, 0
2, 13290, Note_on_c, 0, 81, 100
2, 13320, Note_on_c, 0, 81, 0
2, 13320, Note_on_c, 0, 82, 100
2, 13350, Note_on_c, 0, 82, 0
2, 13350, Note_on_c, 0, 76, 100
2, 13380, Note_on_c, 0, 76, 0
2, 13380, Note_on_c, 0, 77, 100
2, 13410, Note_on_c, 0, 77, 0
2, 13410, Note_on_c, 0, 79, 100
2, 13440, Note_on_c, 0, 79, 0
2, 13440, Note_on_c, 0, 74, 100
2, 13680, Note_on_c, 0, 74, 0
2, 13680, Note_on_c, 0, 73, 100
2, 13920, Note_on_c, 0, 73, 0
2, 13920, Note_on_c, 0, 67, 100
2, 13980, Note_on_c, 0, 67, 0
2, 13980, Note_on_c, 0, 65, 100
2, 14100, Note_on_c, 0, 65, 0
2, 14100, Note_on_c, 0, 67, 100
2, 14130, Note_on_c, 0, 67, 0
2, 14130, Note_on_c, 0, 64, 100
2, 14160, Note_on_c, 0, 64, 0
2, 14160, Note_on_c, 0, 65, 100
2, 14280, Note_on_c, 0, 65, 0
2, 14280, Note_on_c, 0, 74, 100
2, 14400, Note_on_c, 0, 74, 0
2, 14400, Note_on_c, 0, 74, 100
2, 14490, Note_on_c, 0, 74, 0
2, 14490, Note_on_c, 0, 73, 100
2, 14520, Note_on_c, 0, 73, 0
2, 14520, Note_on_c, 0, 71, 100
2, 14580, Note_on_c, 0, 71, 0
2, 14580, Note_on_c, 0, 73, 100
2, 14640, Note_on_c, 0, 73, 0
2, 14640, Note_on_c, 0, 74, 100
2, 14700, Note_on_c, 0, 74, 0
2, 14700, Note_on_c, 0, 76, 100
2, 14760, Note_on_c, 0, 76, 0
2, 14760, Note_on_c, 0, 77, 100
2, 14820, Note_on_c, 0, 77, 0
2, 14820, Note_on_c, 0, 79, 100
2, 14850, Note_on_c, 0, 79, 0
2, 14850, Note_on_c, 0, 76, 100
2, 14880, Note_on_c, 0, 76, 0
2, 14880, Note_on_c, 0, 73, 100
2, 14880, Pitch_bend_c, 0, 12288
2, 14900, Pitch_bend_c, 0, 8192
2, 14920, Pitch_bend_c, 0, 12288
2, 14940, Pitch_bend_c, 0, 8192
2, 14960, Pitch_bend_c, 0, 12288
2, 14980, Pitch_bend_c, 0, 8192
2, 15000, Pitch_bend_c, 0, 12288
2, 15020, Pitch_bend_c, 0, 8192
2, 15040, Pitch_bend_c, 0, 12288
2, 15060, Pitch_bend_c, 0, 8192
2, 15240, Note_on_c, 0, 73, 0
2, 15240, Note_on_c, 0, 74, 100
2, 15360, Note_on_c, 0, 74, 0
2, 15360, Note_on_c, 0, 74, 100
2, 15900, Note_on_c, 0, 74, 0
2, 15900, Note_on_c, 0, 74, 100
2, 15960, Note_on_c, 0, 74, 0
2, 15960, Note_on_c, 0, 72, 100
2, 16020, Note_on_c, 0, 72, 0
2, 16020, Note_on_c, 0, 70, 100
2, 16080, Note_on_c, 0, 70, 0
2, 16080, Note_on_c, 0, 69, 100
2, 16110, Note_on_c, 0, 69, 0
2, 16110, Note_on_c, 0, 70, 100
2, 16140, Note_on_c, 0, 70, 0
2, 16140, Note_on_c, 0, 69, 100
2, 16170, Note_on_c, 0, 69, 0
2, 16170, Note_on_c, 0, 70, 100
2, 16200, Note_on_c, 0, 70, 0
2, 16200, Note_on_c, 0, 70, 100
2, 16200, Pitch_bend_c, 0, 16383
2, 16215, Pitch_bend_c, 0, 8192
2, 16230, Pitch_bend_c, 0, 16383
2, 16245, Pitch_bend_c, 0, 8192
2, 16260, Note_on_c, 0, 70, 0
2, 16260, Note_on_c, 0, 69, 100
2, 16290, Note_on_c, 0, 69, 0
2, 16290, Note_on_c, 0, 70, 100
2, 16320, Note_on_c, 0, 70, 0
2, 16320, Note_on_c, 0, 72, 100
2, 16440, Note_on_c, 0, 72, 0
2, 16440, Note_on_c, 0, 75, 100
2, 16500, Note_on_c, 0, 75, 0
2, 16500, Note_on_c, 0, 74, 100
2, 16560, Note_on_c, 0, 74, 0
2, 16560, Note_on_c, 0, 75, 100
2, 16860, Note_on_c, 0, 75, 0
2, 16860, Note_on_c, 0, 75, 100
2, 16920, Note_on_c, 0, 75, 0
2, 16920, Note_on_c, 0, 74, 100
2, 16980, Note_on_c, 0, 74, 0
2, 16980, Note_on_c, 0, 72, 100
2, 17040, Note_on_c, 0, 72, 0
2, 17040, Note_on_c, 0, 70, 100
2, 17160, Note_on_c, 0, 70, 0
2, 17160, Note_on_c, 0, 72, 100
2, 17220, Note_on_c, 0, 72, 0
2, 17220, Note_on_c, 0, 69, 100
2, 17280, Note_on_c, 0, 69, 0
2, 17280, Note_on_c, 0, 69, 100
2, 17340, Note_on_c, 0, 69, 0
2, 17340, Note_on_c, 0, 70, 100
2, 17580, Note_on_c, 0, 70, 0
2, 17580, Note_on_c, 0, 67, 100
2, 17640, Note_on_c, 0, 67, 0
2, 17640, Note_on_c, 0, 70, 100
2, 17700, Note_on_c, 0, 70, 0
2, 17700, Note_on_c, 0, 74, 100
2, 17760, Note_on_c, 0, 74, 0
2, 17760, Note_on_c, 0, 79, 100
2, 17820, Note_on_c, 0, 79, 0
2, 17820, Note_on_c, 0, 77, 100
2, 17880, Note_on_c, 0, 77, 0
2, 17880, Note_on_c, 0, 75, 100
2, 17940, Note_on_c, 0, 75, 0
2, 17940, Note_on_c, 0, 74, 100
2, 18000, Note_on_c, 0, 74, 0
2, 18000, Note_on_c, 0, 72, 100
2, 18060, Note_on_c, 0, 72, 0
2, 18060, Note_on_c, 0, 70, 100
2, 18120, Note_on_c, 0, 70, 0
2, 18120, Note_on_c, 0, 69, 100
2, 18150, Note_on_c, 0, 69, 0
2, 18150, Note_on_c, 0, 67, 100
2, 18180, Note_on_c, 0, 67, 0
2, 18180, Note_on_c, 0, 66, 100
2, 18210, Note_on_c, 0, 66, 0
2, 18210, Note_on_c, 0, 67, 100
2, 18240, Note_on_c, 0, 67, 0
2, 18240, Note_on_c, 0, 67, 100
2, 18480, Note_on_c, 0, 67, 0
2, 18480, Note_on_c, 0, 66, 100
2, 18720, Note_on_c, 0, 66, 0
2, 18720, Note_on_c, 0, 65, 100
2, 18900, Note_on_c, 0, 65, 0
2, 18900, Note_on_c, 0, 67, 100
2, 18930, Note_on_c, 0, 67, 0
2, 18930, Note_on_c, 0, 68, 100
2, 18960, Note_on_c, 0, 68, 0
2, 18960, Note_on_c, 0, 67, 100
2, 19020, Note_on_c, 0, 67, 0
2, 19020, Note_on_c, 0, 65, 100
2, 19080, Note_on_c, 0, 65, 0
2, 19080, Note_on_c, 0, 63, 100
2, 19140, Note_on_c, 0, 63, 0
2, 19140, Note_on_c, 0, 65, 100
2, 19170, Note_on_c, 0, 65, 0
2, 19170, Note_on_c, 0, 62, 100
2, 19200, Note_on_c, 0, 62, 0
2, 19200, Note_on_c, 0, 71, 100
2, 19320, Note_on_c, 0, 71, 0
2, 19320, Note_on_c, 0, 74, 100
2, 19440, Note_on_c, 0, 74, 0
2, 19440, Note_on_c, 0, 74, 100
2, 19560, Note_on_c, 0, 74, 0
2, 19560, Note_on_c, 0, 72, 100
2, 19680, Note_on_c, 0, 72, 0
2, 19680, Note_on_c, 0, 75, 100
2, 19800, Note_on_c, 0, 75, 0
2, 19800, Note_on_c, 0, 74, 100
2, 19920, Note_on_c, 0, 74, 0
2, 19920, Note_on_c, 0, 74, 100
2, 20040, Note_on_c, 0, 74, 0
2, 20040, Note_on_c, 0, 75, 100
2, 20160, Note_on_c, 0, 75, 0
2, 20160, Note_on_c, 0, 74, 100
2, 20340, Note_on_c, 0, 74, 0
2, 20340, Note_on_c, 0, 70, 100
2, 20400, Note_on_c, 0, 70, 0
2, 20400, Note_on_c, 0, 72, 100
2, 20460, Note_on_c, 0, 72, 0
2, 20460, Note_on_c, 0, 74, 100
2, 20520, Note_on_c, 0, 74, 0
2, 20520, Note_on_c, 0, 75, 100
2, 20580, Note_on_c, 0, 75, 0
2, 20580, Note_on_c, 0, 77, 100
2, 20610, Note_on_c, 0, 77, 0
2, 20610, Note_on_c, 0, 79, 100
2, 20640, Note_on_c, 0, 79, 0
2, 20640, Note_on_c, 0, 80, 100
2, 20760, Note_on_c, 0, 80, 0
2, 20760, Note_on_c, 0, 70, 100
2, 20880, Note_on_c, 0, 70, 0
2, 20880, Note_on_c, 0, 62, 100
2, 21000, Note_on_c, 0, 62, 0
2, 21000, Note_on_c, 0, 80, 100
2, 21120, Note_on_c, 0, 80, 0
2, 21120, Note_on_c, 0, 63, 100
2, 21240, Note_on_c, 0, 63, 0
2, 21240, Note_on_c, 0, 80, 100
2, 21360, Note_on_c, 0, 80, 0
2, 21360, Note_on_c, 0, 79, 100
2, 21600, Note_on_c, 0, 79, 0
2, 21600, Note_on_c, 0, 73, 100
2, 21840, Note_on_c, 0, 73, 0
2, 21840, Note_on_c, 0, 63, 100
2, 21900, Note_on_c, 0, 63, 0
2, 21900, Note_on_c, 0, 67, 100
2, 21960, Note_on_c, 0, 67, 0
2, 21960, Note_on_c, 0, 70, 100
2, 22020, Note_on_c, 0, 70, 0
2, 22020, Note_on_c, 0, 73, 100
2, 22080, Note_on_c, 0, 73, 0
2, 22080, Note_on_c, 0, 56, 100
2, 22200, Note_on_c, 0, 56, 0
2, 22200, Note_on_c, 0, 72, 100
2, 22320, Note_on_c, 0, 72, 0
2, 22320, Note_on_c, 0, 80, 100
2, 22440, Note_on_c, 0, 80, 0
2, 22440, Note_on_c, 0, 79, 100
2, 22500, Note_on_c, 0, 79, 0
2, 22500, Note_on_c, 0, 77, 100
2, 22560, Note_on_c, 0, 77, 0
2, 22560, Note_on_c, 0, 75, 100
2, 22800, Note_on_c, 0, 75, 0
2, 22800, Note_on_c, 0, 74, 100
2, 22800, Pitch_bend_c, 0, 12288
2, 22820, Pitch_bend_c, 0, 8192
2, 22840, Pitch_bend_c, 0, 12288
2, 22860, Pitch_bend_c, 0, 8192
2, 22880, Pitch_bend_c, 0, 12288
2, 22900, Pitch_bend_c, 0, 8192
2, 22920, Pitch_bend_c, 0, 12288
2, 22940, Pitch_bend_c, 0, 8192
2, 22980, Note_on_c, 0, 74, 0
2, 22980, Note_on_c, 0, 75, 100
2, 23040, Note_on_c, 0, 75, 0
2, 23040, Note_on_c, 0, 75, 100
2, 23520, Note_on_c, 0, 75, 0
2, 23520, Note_on_c, 0, 59, 100
2, 23580, Note_on_c, 0, 59, 0
2, 23580, Note_on_c, 0, 62, 100
2, 23640, Note_on_c, 0, 62, 0
2, 23640, Note_on_c, 0, 65, 100
2, 23700, Note_on_c, 0, 65, 0
2, 23700, Note_on_c, 0, 68, 100
2, 23760, Note_on_c, 0, 68, 0
2, 23760, Note_on_c, 0, 71, 100
2, 23820, Note_on_c, 0, 71, 0
2, 23820, Note_on_c, 0, 74, 100
2, 23880, Note_on_c, 0, 74, 0
2, 23880, Note_on_c, 0, 77, 100
2, 23940, Note_on_c, 0, 77, 0
2, 23940, Note_on_c, 0, 80, 100
2, 23970, Note_on_c, 0, 80, 0
2, 23970, Note_on_c, 0, 79, 100
2, 24000, Note_on_c, 0, 79, 0
2, 24000, Note_on_c, 0, 79, 100
2, 24180, Note_on_c, 0, 79, 0
2, 24180, Note_on_c, 0, 80, 100
2, 24210, Note_on_c, 0, 80, 0
2, 24210, Note_on_c, 0, 79, 100
2, 24240, Note_on_c, 0, 79, 0
2, 24240, Note_on_c, 0, 78, 100
2, 24270, Note_on_c, 0, 78, 0
2, 24270, Note_on_c, 0, 79, 100
2, 24300, Note_on_c, 0, 79, 0
2, 24300, Note_on_c, 0, 74, 100
2, 24330, Note_on_c, 0, 74, 0
2, 24330, Note_on_c, 0, 75, 100
2, 24360, Note_on_c, 0, 75, 0
2, 24360, Note_on_c, 0, 71, 100
2, 24390, Note_on_c, 0, 71, 0
2, 24390, Note_on_c, 0, 72, 100
2, 24420, Note_on_c, 0, 72, 0
2, 24420, Note_on_c, 0, 66, 100
2, 24480, Note_on_c, 0, 66, 0
2, 24480, Note_on_c, 0, 67, 100
2, 24540, Note_on_c, 0, 67, 0
2, 24540, Note_on_c, 0, 75, 100
2, 24660, Note_on_c, 0, 75, 0
2, 24660, Note_on_c, 0, 74, 100
2, 24780, Note_on_c, 0, 74, 0
2, 24780, Note_on_c, 0, 72, 100
2, 24810, Note_on_c, 0, 72, 0
2, 24810, Note_on_c, 0, 71, 100
2, 24840, Note_on_c, 0, 71, 0
2, 24840, Note_on_c, 0, 72, 100
2, 24960, Note_on_c, 0, 72, 0
2, 24960, Note_on_c, 0, 72, 100
2, 25140, Note_on_c, 0, 72, 0
2, 25140, Note_on_c, 0, 70, 100
2, 25170, Note_on_c, 0, 70, 0
2, 25170, Note_on_c, 0, 68, 100
2, 25200, Note_on_c, 0, 68, 0
2, 25200, Note_on_c, 0, 67, 100
2, 25260, Note_on_c, 0, 67, 0
2, 25260, Note_on_c, 0, 65, 100
2, 25320, Note_on_c, 0, 65, 0
2, 25320, Note_on_c, 0, 63, 100
2, 25380, Note_on_c, 0, 63, 0
2, 25380, Note_on_c, 0, 62, 100
2, 25440, Note_on_c, 0, 62, 0
2, 25440, Note_on_c, 0, 60, 100
2, 25500, Note_on_c, 0, 60, 0
2, 25500, Note_on_c, 0, 59, 100
2, 25560, Note_on_c, 0, 59, 0
2, 25560, Note_on_c, 0, 60, 100
2, 25620, Note_on_c, 0, 60, 0
2, 25620, Note_on_c, 0, 55, 100
2, 25680, Note_on_c, 0, 55, 0
2, 25680, Note_on_c, 0, 60, 100
2, 25740, Note_on_c, 0, 60, 0
2, 25740, Note_on_c, 0, 63, 100
2, 25800, Note_on_c, 0, 63, 0
2, 25800, Note_on_c, 0, 67, 100
2, 25860, Note_on_c, 0, 67, 0
2, 25860, Note_on_c, 0, 72, 100
2, 25920, Note_on_c, 0, 72, 0
2, 25920, Note_on_c, 0, 62, 100
2, 26040, Note_on_c, 0, 62, 0
2, 26040, Note_on_c, 0, 72, 100
2, 26100, Note_on_c, 0, 72, 0
2, 26100, Note_on_c, 0, 77, 100
2, 26160, Note_on_c, 0, 77, 0
2, 26160, Note_on_c, 0, 71, 100
2, 26160, Pitch_bend_c, 0, 12288
2, 26190, Pitch_bend_c, 0, 8192
2, 26220, Pitch_bend_c, 0, 12288
2, 26240, Pitch_bend_c, 0, 8192
2, 26260, Pitch_bend_c, 0, 12288
2, 26280, Pitch_bend_c, 0, 8192
2, 26300, Pitch_bend_c, 0, 12288
2, 26320, Pitch_bend_c, 0, 8192
2, 26340, Pitch_bend_c, 0, 12288
2, 26360, Pitch_bend_c, 0, 8192
2, 26380, Pitch_bend_c, 0, 12288
2, 26400, Pitch_bend_c, 0, 8192
2, 26460, Note_on_c, 0, 71, 0
2, 26460, Note_on_c, 0, 69, 100
2, 26520, Note_on_c, 0, 69, 0
2, 26520, Note_on_c, 0, 67, 100
2, 26580, Note_on_c, 0, 67, 0
2, 26580, Note_on_c, 0, 69, 100
2, 26640, Note_on_c, 0, 69, 0
2, 26640, Note_on_c, 0, 71, 100
2, 26700, Note_on_c, 0, 71, 0
2, 26700, Note_on_c, 0, 72, 100
2, 26760, Note_on_c, 0, 72, 0
2, 26760, Note_on_c, 0, 74, 100
2, 26820, Note_on_c, 0, 74, 0
2, 26820, Note_on_c, 0, 77, 100
2, 26850, Note_on_c, 0, 77, 0
2, 26850, Note_on_c, 0, 75, 100
2, 26880, Note_on_c, 0, 75, 0
2, 26880, Note_on_c, 0, 77, 100
2, 27420, Note_on_c, 0, 77, 0
2, 27420, Note_on_c, 0, 80, 100
2, 27480, Note_on_c, 0, 80, 0
2, 27480, Note_on_c, 0, 79, 100
2, 27540, Note_on_c, 0, 79, 0
2, 27540, Note_on_c, 0, 77, 100
2, 27600, Note_on_c, 0, 77, 0
2, 27600, Note_on_c, 0, 79, 100
2, 27660, Note_on_c, 0, 79, 0
2, 27660, Note_on_c, 0, 77, 100
2, 27720, Note_on_c, 0, 77, 0
2, 27720, Note_on_c, 0, 75, 100
2, 27780, Note_on_c, 0, 75, 0
2, 27780, Note_on_c, 0, 74, 100
2, 27840, Note_on_c, 0, 74, 0
2, 27840, Note_on_c, 0, 75, 100
2, 28080, Note_on_c, 0, 75, 0
2, 28140, Note_on_c, 0, 72, 100
2, 28200, Note_on_c, 0, 72, 0
2, 28200, Note_on_c, 0, 74, 100
2, 28230, Note_on_c, 0, 74, 0
2, 28230, Note_on_c, 0, 75, 100
2, 28260, Note_on_c, 0, 75, 0
2, 28260, Note_on_c, 0, 77, 100
2, 28290, Note_on_c, 0, 77, 0
2, 28290, Note_on_c, 0, 79, 100
2, 28320, Note_on_c, 0, 79, 0
2, 28320, Note_on_c, 0, 80, 100
2, 28560, Note_on_c, 0, 80, 0
2, 28560, Note_on_c, 0, 75, 100
2, 28800, Note_on_c, 0, 75, 0
2, 28800, Note_on_c, 0, 75, 100
2, 28920, Note_on_c, 0, 75, 0
2, 28920, Note_on_c, 0, 74, 100
2, 29040, Note_on_c, 0, 74, 0
2, 29040, Note_on_c, 0, 80, 100
2, 29160, Note_on_c, 0, 80, 0
2, 29160, Note_on_c, 0, 79, 100
2, 29280, Note_on_c, 0, 79, 0
2, 29280, Note_on_c, 0, 79, 100
2, 29520, Note_on_c, 0, 79, 0
2, 29520, Note_on_c, 0, 75, 100
2, 29640, Note_on_c, 0, 75, 0
2, 29640, Note_on_c, 0, 71, 100
2, 29760, Note_on_c, 0, 71, 0
2, 29760, Note_on_c, 0, 72, 100
2, 29940, Note_on_c, 0, 72, 0
2, 29940, Note_on_c, 0, 70, 100
2, 30000, Note_on_c, 0, 70, 0
2, 30000, Note_on_c, 0, 68, 100
2, 30060, Note_on_c, 0, 68, 0
2, 30060, Note_on_c, 0, 67, 100
2, 30120, Note_on_c, 0, 67, 0
2, 30120, Note_on_c, 0, 68, 100
2, 30180, Note_on_c, 0, 68, 0
2, 30180, Note_on_c, 0, 72, 100
2, 30240, Note_on_c, 0, 72, 0
2, 30240, Note_on_c, 0, 77, 100
2, 30300, Note_on_c, 0, 77, 0
2, 30300, Note_on_c, 0, 79, 100
2, 30360, Note_on_c, 0, 79, 0
2, 30360, Note_on_c, 0, 75, 100
2, 30420, Note_on_c, 0, 75, 0
2, 30420, Note_on_c, 0, 77, 100
2, 30480, Note_on_c, 0, 77, 0
2, 30480, Note_on_c, 0, 77, 100
2, 30480, Pitch_bend_c, 0, 16383
2, 30495, Pitch_bend_c, 0, 8192
2, 30510, Pitch_bend_c, 0, 16383
2, 30525, Pitch_bend_c, 0, 8192
2, 30540, Pitch_bend_c, 0, 16383
2, 30555, Pitch_bend_c, 0, 8192
2, 30570, Pitch_bend_c, 0, 16383
2, 30585, Pitch_bend_c, 0, 8192
2, 30600, Pitch_bend_c, 0, 16383
2, 30615, Pitch_bend_c, 0, 8192
2, 30630, Pitch_bend_c, 0, 16383
2, 30645, Pitch_bend_c, 0, 8192
2, 30660, Note_on_c, 0, 77, 0
2, 30660, Note_on_c, 0, 75, 100
2, 30690, Note_on_c, 0, 75, 0
2, 30690, Note_on_c, 0, 77, 100
2, 30720, Note_on_c, 0, 77, 0
2, 30720, Note_on_c, 0, 79, 100
2, 31200, Note_on_c, 0, 79, 0
2, 31200, Note_on_c, 0, 77, 100
2, 31440, Note_on_c, 0, 77, 0
2, 31440, Note_on_c, 0, 77, 100
2, 31680, Note_on_c, 0, 77, 0
2, 31680, Note_on_c, 0, 67, 100
2, 31740, Note_on_c, 0, 67, 0
2, 31740, Note_on_c, 0, 71, 100
2, 31800, Note_on_c, 0, 71, 0
2, 31800, Note_on_c, 0, 74, 100
2, 31860, Note_on_c, 0, 74, 0
2, 31860, Note_on_c, 0, 77, 100
2, 31920, Note_on_c, 0, 77, 0
2, 31920, Note_on_c, 0, 80, 100
2, 32040, Note_on_c, 0, 80, 0
2, 32040, Note_on_c, 0, 79, 100
2, 32160, Note_on_c, 0, 79, 0
2, 32160, Note_on_c, 0, 75, 100
2, 32400, Note_on_c, 0, 75, 0
2, 32400, Note_on_c, 0, 75, 100
2, 32640, Note_on_c, 0, 75, 0
2, 32640, Note_on_c, 0, 75, 100
2, 32820, Note_on_c, 0, 75, 0
2, 32820, Note_on_c, 0, 74, 100
2, 32880, Note_on_c, 0, 74, 0
2, 32880, Note_on_c, 0, 72, 100
2, 32940, Note_on_c, 0, 72, 0
2, 32940, Note_on_c, 0, 74, 100
2, 33000, Note_on_c, 0, 74, 0
2, 33000, Note_on_c, 0, 72, 100
2, 33030, Note_on_c, 0, 72, 0
2, 33030, Note_on_c, 0, 70, 100
2, 33060, Note_on_c, 0, 70, 0
2, 33060, Note_on_c, 0, 72, 100
2, 33090, Note_on_c, 0, 72, 0
2, 33090, Note_on_c, 0, 69, 100
2, 33120, Note_on_c, 0, 69, 0
2, 33120, Note_on_c, 0, 70, 100
2, 33270, Note_on_c, 0, 70, 0
2, 33270, Note_on_c, 0, 69, 100
2, 33300, Note_on_c, 0, 69, 0
2, 33300, Note_on_c, 0, 67, 100
2, 33330, Note_on_c, 0, 67, 0
2, 33330, Note_on_c, 0, 66, 100
2, 33360, Note_on_c, 0, 66, 0
2, 33360, Note_on_c, 0, 67, 100
2, 33420, Note_on_c, 0, 67, 0
2, 33420, Note_on_c, 0, 62, 100
2, 33480, Note_on_c, 0, 62, 0
2, 33480, Note_on_c, 0, 58, 100
2, 33540, Note_on_c, 0, 58, 0
2, 33540, Note_on_c, 0, 55, 100
2, 33600, Note_on_c, 0, 55, 0
2, 33600, Note_on_c, 0, 60, 100
2, 33660, Note_on_c, 0, 60, 0
2, 33660, Note_on_c, 0, 63, 100
2, 33720, Note_on_c, 0, 63, 0
2, 33720, Note_on_c, 0, 70, 100
2, 33780, Note_on_c, 0, 70, 0
2, 33780, Note_on_c, 0, 67, 100
2, 33840, Note_on_c, 0, 67, 0
2, 33840, Note_on_c, 0, 68, 100
2, 34080, Note_on_c, 0, 68, 0
2, 34080, Note_on_c, 0, 75, 100
2, 34200, Note_on_c, 0, 75, 0
2, 34200, Note_on_c, 0, 72, 100
2, 34320, Note_on_c, 0, 72, 0
2, 34320, Note_on_c, 0, 80, 100
2, 34440, Note_on_c, 0, 80, 0
2, 34440, Note_on_c, 0, 78, 100
2, 34560, Note_on_c, 0, 78, 0
2, 34560, Note_on_c, 0, 78, 100
2, 34620, Note_on_c, 0, 78, 0
2, 34620, Note_on_c, 0, 79, 100
2, 34680, Note_on_c, 0, 79, 0
2, 34680, Note_on_c, 0, 81, 100
2, 34740, Note_on_c, 0, 81, 0
2, 34740, Note_on_c, 0, 78, 100
2, 34800, Note_on_c, 0, 78, 0
2, 34800, Note_on_c, 0, 74, 100
2, 35040, Note_on_c, 0, 74, 0
2, 35040, Note_on_c, 0, 58, 100
2, 35220, Note_on_c, 0, 58, 0
2, 35220, Note_on_c, 0, 74, 100
2, 35280, Note_on_c, 0, 74, 0
2, 35280, Note_on_c, 0, 72, 100
2, 35340, Note_on_c, 0, 72, 0
2, 35340, Note_on_c, 0, 70, 100
2, 35400, Note_on_c, 0, 70, 0
2, 35400, Note_on_c, 0, 69, 100
2, 35460, Note_on_c, 0, 69, 0
2, 35460, Note_on_c, 0, 70, 100
2, 35490, Note_on_c, 0, 70, 0
2, 35490, Note_on_c, 0, 67, 100
2, 35520, Note_on_c, 0, 67, 0
2, 35520, Note_on_c, 0, 57, 100
2, 35640, Note_on_c, 0, 57, 0
2, 35640, Note_on_c, 0, 67, 100
2, 35760, Note_on_c, 0, 67, 0
2, 35760, Note_on_c, 0, 72, 100
2, 35880, Note_on_c, 0, 72, 0
2, 35880, Note_on_c, 0, 69, 100
2, 36000, Note_on_c, 0, 69, 0
2, 36000, Note_on_c, 0, 67, 100
2, 36120, Note_on_c, 0, 67, 0
2, 36120, Note_on_c, 0, 66, 100
2, 36240, Note_on_c, 0, 66, 0
2, 36240, Note_on_c, 0, 62, 100
2, 36360, Note_on_c, 0, 62, 0
2, 36360, Note_on_c, 0, 72, 100
2, 36480, Note_on_c, 0, 72, 0
2, 36480, Note_on_c, 0, 55, 100
2, 36660, Note_on_c, 0, 55, 0
2, 36660, Note_on_c, 0, 72, 100
2, 36720, Note_on_c, 0, 72, 0
2, 36720, Note_on_c, 0, 70, 100
2, 36840, Note_on_c, 0, 70, 0
2, 36840, Note_on_c, 0, 72, 100
2, 36900, Note_on_c, 0, 72, 0
2, 36900, Note_on_c, 0, 69, 100
2, 36960, Note_on_c, 0, 69, 0
2, 36960, Note_on_c, 0, 70, 100
2, 37140, Note_on_c, 0, 70, 0
2, 37140, Note_on_c, 0, 55, 100
2, 37200, Note_on_c, 0, 55, 0
2, 37200, Note_on_c, 0, 57, 100
2, 37320, Note_on_c, 0, 57, 0
2, 37320, Note_on_c, 0, 60, 100
2, 37380, Note_on_c, 0, 60, 0
2, 37380, Note_on_c, 0, 58, 100
2, 37440, Note_on_c, 0, 58, 0
2, 37440, Note_on_c, 0, 60, 100
2, 37560, Note_on_c, 0, 60, 0
2, 37560, Note_on_c, 0, 62, 100
2, 37680, Note_on_c, 0, 62, 0
2, 37680, Note_on_c, 0, 63, 100
2, 37800, Note_on_c, 0, 63, 0
2, 37800, Note_on_c, 0, 67, 100
2, 37920, Note_on_c, 0, 67, 0
2, 37920, Note_on_c, 0, 68, 100
2, 38040, Note_on_c, 0, 68, 0
2, 38040, Note_on_c, 0, 71, 100
2, 38160, Note_on_c, 0, 71, 0
2, 38160, Note_on_c, 0, 72, 100
2, 38280, Note_on_c, 0, 72, 0
2, 38280, Note_on_c, 0, 75, 100
2, 38400, Note_on_c, 0, 75, 0
2, 38400, Note_on_c, 0, 79, 100
2, 38640, Note_on_c, 0, 79, 0
2, 38640, Note_on_c, 0, 78, 100
2, 38880, Note_on_c, 0, 78, 0
2, 38880, Note_on_c, 0, 82, 100
2, 39030, Note_on_c, 0, 81, 100
2, 39040, Note_on_c, 0, 82, 0
2, 39060, Note_on_c, 0, 81, 0
2, 39060, Note_on_c, 0, 79, 100
2, 39090, Note_on_c, 0, 79, 0
2, 39090, Note_on_c, 0, 78, 100
2, 39120, Note_on_c, 0, 78, 0
2, 39120, Note_on_c, 0, 79, 100
2, 39360, Note_on_c, 0, 79, 0
2, 39360, Note_on_c, 0, 79, 100
2, 39540, Note_on_c, 0, 79, 0
2, 39540, Note_on_c, 0, 70, 100
2, 39600, Note_on_c, 0, 70, 0
2, 39600, Note_on_c, 0, 72, 100
2, 39660, Note_on_c, 0, 72, 0
2, 39660, Note_on_c, 0, 74, 100
2, 39720, Note_on_c, 0, 74, 0
2, 39720, Note_on_c, 0, 76, 100
2, 39780, Note_on_c, 0, 76, 0
2, 39780, Note_on_c, 0, 78, 100
2, 39840, Note_on_c, 0, 78, 0
2, 39840, Note_on_c, 0, 79, 100
2, 39870, Note_on_c, 0, 79, 0
2, 39870, Note_on_c, 0, 81, 100
2, 39900, Note_on_c, 0, 81, 0
2, 39900, Note_on_c, 0, 82, 100
2, 39930, Note_on_c, 0, 82, 0
2, 39930, Note_on_c, 0, 81, 100
2, 39960, Note_on_c, 0, 81, 0
2, 39960, Note_on_c, 0, 82, 100
2, 39990, Note_on_c, 0, 82, 0
2, 39990, Note_on_c, 0, 79, 100
2, 40020, Note_on_c, 0, 79, 0
2, 40020, Note_on_c, 0, 80, 100
2, 40050, Note_on_c, 0, 80, 0
2, 40050, Note_on_c, 0, 78, 100
2, 40065, Note_on_c, 0, 78, 0
2, 40065, Note_on_c, 0, 79, 100
2, 40080, Note_on_c, 0, 79, 0
2, 40080, Note_on_c, 0, 79, 100
2, 40200, Note_on_c, 0, 79, 0
2, 40200, Note_on_c, 0, 78, 100
2, 40200, Pitch_bend_c, 0, 12288
2, 40215, Pitch_bend_c, 0, 8192
2, 40230, Pitch_bend_c, 0, 12288
2, 40245, Pitch_bend_c, 0, 8192
2, 40260, Pitch_bend_c, 0, 12288
2, 40275, Pitch_bend_c, 0, 8192
2, 40290, Note_on_c, 0, 78, 0
2, 40290, Note_on_c, 0, 79, 100
2, 40320, Note_on_c, 0, 79, 0
2, 40320, Note_on_c, 0, 79, 100
2, 42240, Note_on_c, 0, 79, 0
2, 42240, End_track
3, 0, Start_track
3, 0, MIDI_port, 0
3, 0, Title_t, "--------------------------------------"
3, 0, Program_c, 1, 40
3, 0, Control_c, 1, 7, 100
3, 0, Control_c, 1, 10, 59
3, 0, Note_on_c, 1, 70, 100
3, 480, Note_on_c, 1, 70, 0
3, 960, Note_on_c, 1, 72, 100
3, 1440, Note_on_c, 1, 72, 0
3, 1920, Note_on_c, 1, 78, 100
3, 2400, Note_on_c, 1, 78, 0
3, 2880, Note_on_c, 1, 79, 100
3, 3120, Note_on_c, 1, 79, 0
3, 3600, Note_on_c, 1, 67, 100
3, 3840, Note_on_c, 1, 67, 0
3, 3840, Note_on_c, 1, 65, 100
3, 4080, Note_on_c, 1, 65, 0
3, 4560, Note_on_c, 1, 74, 100
3, 4800, Note_on_c, 1, 74, 0
3, 4800, Note_on_c, 1, 74, 100
3, 5040, Note_on_c, 1, 74, 0
3, 5760, Note_on_c, 1, 74, 100
3, 6240, Note_on_c, 1, 74, 0
3, 6720, Note_on_c, 1, 55, 100
3, 6840, Note_on_c, 1, 55, 0
3, 7440, Note_on_c, 1, 55, 100
3, 7680, Note_on_c, 1, 55, 0
3, 7680, Note_on_c, 1, 61, 100
3, 7920, Note_on_c, 1, 61, 0
3, 8400, Note_on_c, 1, 62, 100
3, 8640, Note_on_c, 1, 62, 0
3, 8640, Note_on_c, 1, 67, 100
3, 8760, Note_on_c, 1, 67, 0
3, 9360, Note_on_c, 1, 70, 100
3, 9480, Note_on_c, 1, 70, 0
3, 9480, Note_on_c, 1, 67, 100
3, 9600, Note_on_c, 1, 67, 0
3, 9600, Note_on_c, 1, 67, 100
3, 9840, Note_on_c, 1, 67, 0
3, 12240, Note_on_c, 1, 60, 100
3, 12480, Note_on_c, 1, 60, 0
3, 12480, Note_on_c, 1, 58, 100
3, 12720, Note_on_c, 1, 58, 0
3, 13440, Note_on_c, 1, 67, 100
3, 13920, Note_on_c, 1, 67, 0
3, 14400, Note_on_c, 1, 64, 100
3, 14640, Note_on_c, 1, 64, 0
3, 15360, Note_on_c, 1, 62, 100
3, 15840, Note_on_c, 1, 62, 0
3, 16320, Note_on_c, 1, 66, 100
3, 16440, Note_on_c, 1, 66, 0
3, 16800, Note_on_c, 1, 78, 100
3, 17040, Note_on_c, 1, 78, 0
3, 17280, Note_on_c, 1, 79, 100
3, 17520, Note_on_c, 1, 79, 0
3, 18240, Note_on_c, 1, 69, 100
3, 18720, Note_on_c, 1, 69, 0
3, 18720, Note_on_c, 1, 71, 100
3, 18960, Note_on_c, 1, 71, 0
3, 19200, Note_on_c, 1, 62, 100
3, 19440, Note_on_c, 1, 62, 0
3, 19440, Note_on_c, 1, 63, 100
3, 19680, Note_on_c, 1, 63, 0
3, 19680, Note_on_c, 1, 65, 100
3, 19920, Note_on_c, 1, 65, 0
3, 19920, Note_on_c, 1, 67, 100
3, 20160, Note_on_c, 1, 67, 0
3, 20160, Note_on_c, 1, 65, 100
3, 20400, Note_on_c, 1, 65, 0
3, 22320, Note_on_c, 1, 72, 100
3, 22560, Note_on_c, 1, 72, 0
3, 22560, Note_on_c, 1, 65, 100
3, 22800, Note_on_c, 1, 65, 0
3, 23040, Note_on_c, 1, 66, 100
3, 23520, Note_on_c, 1, 66, 0
3, 24000, Note_on_c, 1, 72, 100
3, 24120, Note_on_c, 1, 72, 0
3, 26880, Note_on_c, 1, 71, 100
3, 27360, Note_on_c, 1, 71, 0
3, 27840, Note_on_c, 1, 67, 100
3, 28080, Note_on_c, 1, 67, 0
3, 28560, Note_on_c, 1, 68, 100
3, 28800, Note_on_c, 1, 68, 0
3, 28800, Note_on_c, 1, 65, 100
3, 29040, Note_on_c, 1, 65, 0
3, 29520, Note_on_c, 1, 79, 100
3, 29760, Note_on_c, 1, 79, 0
3, 29760, Note_on_c, 1, 79, 100
3, 30000, Note_on_c, 1, 79, 0
3, 30720, Note_on_c, 1, 72, 100
3, 30960, Note_on_c, 1, 72, 0
3, 30960, Note_on_c, 1, 71, 100
3, 31200, Note_on_c, 1, 71, 0
3, 31200, Note_on_c, 1, 74, 100
3, 31440, Note_on_c, 1, 74, 0
3, 31440, Note_on_c, 1, 74, 100
3, 31680, Note_on_c, 1, 74, 0
3, 32400, Note_on_c, 1, 79, 100
3, 32640, Note_on_c, 1, 79, 0
3, 32640, Note_on_c, 1, 81, 100
3, 33120, Note_on_c, 1, 81, 0
3, 34320, Note_on_c, 1, 72, 100
3, 34440, Note_on_c, 1, 72, 0
3, 34440, Note_on_c, 1, 69, 100
3, 34560, Note_on_c, 1, 69, 0
3, 34560, Note_on_c, 1, 69, 100
3, 34800, Note_on_c, 1, 69, 0
3, 38400, Note_on_c, 1, 69, 100
3, 38880, Note_on_c, 1, 69, 0
3, 39120, Note_on_c, 1, 69, 100
3, 39360, Note_on_c, 1, 69, 0
3, 39360, Note_on_c, 1, 69, 100
3, 39600, Note_on_c, 1, 69, 0
3, 40320, Note_on_c, 1, 70, 100
3, 42240, Note_on_c, 1, 70, 0
3, 42240, End_track
4, 0, Start_track
4, 0, MIDI_port, 0
4, 0, Title_t, "Johann Sebastian Bach  (1685-1750)"
4, 0, Program_c, 2, 40
4, 0, Control_c, 2, 7, 100
4, 0, Control_c, 2, 10, 79
4, 0, Note_on_c, 2, 62, 100
4, 480, Note_on_c, 2, 62, 0
4, 1920, Note_on_c, 2, 62, 100
4, 2160, Note_on_c, 2, 62, 0
4, 2880, Note_on_c, 2, 62, 100
4, 3120, Note_on_c, 2, 62, 0
4, 4560, Note_on_c, 2, 62, 100
4, 4800, Note_on_c, 2, 62, 0
4, 4800, Note_on_c, 2, 63, 100
4, 5040, Note_on_c, 2, 63, 0
4, 5760, Note_on_c, 2, 62, 100
4, 6240, Note_on_c, 2, 62, 0
4, 6480, Note_on_c, 2, 62, 100
4, 6720, Note_on_c, 2, 62, 0
4, 6720, Note_on_c, 2, 62, 100
4, 6840, Note_on_c, 2, 62, 0
4, 7440, Note_on_c, 2, 65, 100
4, 7680, Note_on_c, 2, 65, 0
4, 7680, Note_on_c, 2, 64, 100
4, 7920, Note_on_c, 2, 64, 0
4, 8640, Note_on_c, 2, 70, 100
4, 8760, Note_on_c, 2, 70, 0
4, 13440, Note_on_c, 2, 57, 100
4, 13920, Note_on_c, 2, 57, 0
4, 14400, Note_on_c, 2, 57, 100
4, 14640, Note_on_c, 2, 57, 0
4, 16320, Note_on_c, 2, 57, 100
4, 16440, Note_on_c, 2, 57, 0
4, 17280, Note_on_c, 2, 62, 100
4, 17520, Note_on_c, 2, 62, 0
4, 18240, Note_on_c, 2, 62, 100
4, 18720, Note_on_c, 2, 62, 0
4, 18720, Note_on_c, 2, 55, 100
4, 18960, Note_on_c, 2, 55, 0
4, 19200, Note_on_c, 2, 60, 100
4, 19320, Note_on_c, 2, 60, 0
4, 20160, Note_on_c, 2, 56, 100
4, 20400, Note_on_c, 2, 56, 0
4, 22320, Note_on_c, 2, 65, 100
4, 22560, Note_on_c, 2, 65, 0
4, 22560, Note_on_c, 2, 58, 100
4, 22800, Note_on_c, 2, 58, 0
4, 23040, Note_on_c, 2, 57, 100
4, 23520, Note_on_c, 2, 57, 0
4, 24000, Note_on_c, 2, 63, 100
4, 24120, Note_on_c, 2, 63, 0
4, 26880, Note_on_c, 2, 62, 100
4, 27360, Note_on_c, 2, 62, 0
4, 27840, Note_on_c, 2, 60, 100
4, 28080, Note_on_c, 2, 60, 0
4, 28560, Note_on_c, 2, 60, 100
4, 28800, Note_on_c, 2, 60, 0
4, 28800, Note_on_c, 2, 58, 100
4, 29040, Note_on_c, 2, 58, 0
4, 29520, Note_on_c, 2, 67, 100
4, 29760, Note_on_c, 2, 67, 0
4, 29760, Note_on_c, 2, 63, 100
4, 30000, Note_on_c, 2, 63, 0
4, 30720, Note_on_c, 2, 62, 100
4, 30960, Note_on_c, 2, 62, 0
4, 31440, Note_on_c, 2, 67, 100
4, 31680, Note_on_c, 2, 67, 0
4, 32400, Note_on_c, 2, 67, 100
4, 32640, Note_on_c, 2, 67, 0
4, 32640, Note_on_c, 2, 66, 100
4, 32880, Note_on_c, 2, 66, 0
4, 34560, Note_on_c, 2, 62, 100
4, 34800, Note_on_c, 2, 62, 0
4, 38400, Note_on_c, 2, 62, 100
4, 38880, Note_on_c, 2, 62, 0
4, 39120, Note_on_c, 2, 64, 100
4, 39360, Note_on_c, 2, 64, 0
4, 39360, Note_on_c, 2, 62, 100
4, 39600, Note_on_c, 2, 62, 0
4, 40320, Note_on_c, 2, 62, 100
4, 42240, Note_on_c, 2, 62, 0
4, 42240, End_track
5, 0, Start_track
5, 0, MIDI_port, 0
5, 0, Title_t, "Six Sonatas and Partitas for Solo Violin"
5, 0, Program_c, 3, 40
5, 0, Control_c, 3, 7, 100
5, 0, Control_c, 3, 10, 49
5, 0, Note_on_c, 3, 55, 100
5, 480, Note_on_c, 3, 55, 0
5, 960, Note_on_c, 3, 57, 100
5, 1440, Note_on_c, 3, 57, 0
5, 2880, Note_on_c, 3, 55, 100
5, 3120, Note_on_c, 3, 55, 0
5, 17280, Note_on_c, 3, 55, 100
5, 17520, Note_on_c, 3, 55, 0
5, 26880, Note_on_c, 3, 55, 100
5, 27360, Note_on_c, 3, 55, 0
5, 29520, Note_on_c, 3, 55, 100
5, 29760, Note_on_c, 3, 55, 0
5, 29760, Note_on_c, 3, 56, 100
5, 30000, Note_on_c, 3, 56, 0
5, 30720, Note_on_c, 3, 55, 100
5, 30960, Note_on_c, 3, 55, 0
5, 31440, Note_on_c, 3, 59, 100
5, 31680, Note_on_c, 3, 59, 0
5, 31680, Note_on_c, 3, 60, 100
5, 31920, Note_on_c, 3, 60, 0
5, 32400, Note_on_c, 3, 60, 100
5, 32640, Note_on_c, 3, 60, 0
5, 38400, Note_on_c, 3, 60, 100
5, 38880, Note_on_c, 3, 60, 0
5, 39120, Note_on_c, 3, 61, 100
5, 39360, Note_on_c, 3, 61, 0
5, 40320, Note_on_c, 3, 55, 100
5, 42240, Note_on_c, 3, 55, 0
5, 42240, End_track
6, 0, Start_track
6, 0, MIDI_port, 0
6, 0, Title_t, "--------------------------------------"
6, 0, End_track
7, 0, Start_track
7, 0, MIDI_port, 0
7, 0, Title_t, "Sonata No. 1 in G minor - BWV 1001"
7, 0, End_track
8, 0, Start_track
8, 0, MIDI_port, 0
8, 0, Title_t, "1st Movement: Adagio"
8, 0, End_track
9, 0, Start_track
9, 0, MIDI_port, 0
9, 0, Title_t, "--------------------------------------"
9, 0, End_track
10, 0, Start_track
10, 0, MIDI_port, 0
10, 0, Title_t, "Sequenced with Cakewalk Pro Audio by"
10, 0, End_track
11, 0, Start_track
11, 0, MIDI_port, 0
11, 0, Title_t, "David J. Grossman - dave@unpronounceable.com"
11, 0, End_track
12, 0, Start_track
12, 0, MIDI_port, 0
12, 0, Title_t, "This and other Bach MIDI files can be found at:"
12, 0, End_track
13, 0, Start_track
13, 0, MIDI_port, 0
13, 0, Title_t, "Dave's J.S. Bach Page"
13, 0, End_track
14, 0, Start_track
14, 0, MIDI_port, 0
14, 0, Title_t, "http://www.unpronounceable.com/bach"
14, 0, End_track
15, 0, Start_track
15, 0, MIDI_port, 0
15, 0, Title_t, "--------------------------------------"
15, 0, End_track
16, 0, Start_track
16, 0, MIDI_port, 0
16, 0, Title_t, "Original Filename: vs1-1ada.mid"
16, 0, End_track
17, 0, Start_track
17, 0, MIDI_port, 0
17, 0, Title_t, "Last Modified: February 22, 1997"
17, 0, End_track
0, 0, End_of_file
