0, 0, Header, 1, 17, 480
1, 0, Start_track
1, 0, Title_t, "untitled"
1, 0, SMPTE_offset, 96, 0, 3, 0, 0
1, 0, Time_signature, 4, 2, 24, 8
1, 0, Key_signature, -1, "major"
1, 0, Tempo, 750000
1, 176652, Tempo, 508475
1, 177028, Tempo, 512821
1, 177036, Tempo, 540541
1, 177044, Tempo, 571429
1, 177052, Tempo, 606061
1, 177060, Tempo, 645161
1, 177068, Tempo, 689655
1, 177076, Tempo, 740741
1, 177084, Tempo, 800000
1, 177092, Tempo, 869565
1, 177100, Tempo, 952381
1, 177108, Tempo, 1052632
1, 177112, Tempo, 1153846
1, 177264, Tempo, 1176471
1, 177416, Tempo, 1200000
1, 177568, Tempo, 1224490
1, 177712, Tempo, 1250000
1, 177864, Tempo, 1276596
1, 178016, Tempo, 1304348
1, 178160, Tempo, 1333333
1, 178312, Tempo, 1363636
1, 178464, Tempo, 1395349
1, 178608, Tempo, 1428571
1, 178760, Tempo, 1463415
1, 178912, Tempo, 1500000
1, 179056, Tempo, 1538462
1, 179208, Tempo, 1578947
1, 179360, Tempo, 1621622
1, 179480, Tempo, 7500000
1, 179516, Tempo, 6666667
1, 179540, Tempo, 6000000
1, 179556, Tempo, 5454545
1, 179580, Tempo, 5000000
1, 179596, Tempo, 4615385
1, 179612, Tempo, 4285714
1, 179636, Tempo, 4000000
1, 179652, Tempo, 3750000
1, 179668, Tempo, 3529412
1, 179692, Tempo, 3333333
1, 179708, Tempo, 3157895
1, 179724, Tempo, 3000000
1, 179748, Tempo, 2857143
1, 179764, Tempo, 2727273
1, 179780, Tempo, 2608696
1, 179804, Tempo, 2500000
1, 179820, Tempo, 2400000
1, 179836, Tempo, 2307692
1, 179860, Tempo, 2222222
1, 179876, Tempo, 2142857
1, 179900, Tempo, 2068966
1, 179916, Tempo, 2000000
1, 179932, Tempo, 1935484
1, 179956, Tempo, 1875000
1, 179972, Tempo, 1818182
1, 179988, Tempo, 1764706
1, 180012, Tempo, 1714286
1, 180028, Tempo, 1666667
1, 180044, Tempo, 1621622
1, 180068, Tempo, 1578947
1, 180084, Tempo, 1538462
1, 180100, Tempo, 1500000
1, 180124, Tempo, 1463415
1, 180140, Tempo, 1428571
1, 180156, Tempo, 1395349
1, 180180, Tempo, 1363636
1, 180196, Tempo, 1333333
1, 180220, Tempo, 1304348
1, 180236, Tempo, 1276596
1, 180252, Tempo, 1250000
1, 180276, Tempo, 1224490
1, 180292, Tempo, 1200000
1, 180308, Tempo, 1176471
1, 180332, Tempo, 1153846
1, 180348, Tempo, 1132075
1, 180364, Tempo, 1111111
1, 180388, Tempo, 1090909
1, 180404, Tempo, 1071429
1, 180420, Tempo, 1052632
1, 180444, Tempo, 1034483
1, 180460, Tempo, 1016949
1, 180476, Tempo, 1000000
1, 180476, End_track
2, 0, Start_track
2, 0, MIDI_port, 0
2, 0, Title_t, "Solo Violin"
2, 0, Program_c, 0, 40
2, 0, Control_c, 0, 7, 100
2, 0, Control_c, 0, 10, 69
2, 4080, Note_on_c, 0, 79, 100
2, 4320, Note_on_c, 0, 79, 0
2, 4320, Note_on_c, 0, 79, 100
2, 4560, Note_on_c, 0, 79, 0
2, 4560, Note_on_c, 0, 79, 100
2, 4800, Note_on_c, 0, 79, 0
2, 4800, Note_on_c, 0, 79, 100
2, 5040, Note_on_c, 0, 79, 0
2, 5040, Note_on_c, 0, 77, 100
2, 5160, Note_on_c, 0, 77, 0
2, 5160, Note_on_c, 0, 75, 100
2, 5280, Note_on_c, 0, 75, 0
2, 5280, Note_on_c, 0, 77, 100
2, 5520, Note_on_c, 0, 77, 0
2, 5520, Note_on_c, 0, 74, 100
2, 5760, Note_on_c, 0, 74, 0
2, 5760, Note_on_c, 0, 75, 100
2, 6000, Note_on_c, 0, 75, 0
2, 6960, Note_on_c, 0, 74, 100
2, 7200, Note_on_c, 0, 74, 0
2, 7200, Note_on_c, 0, 74, 100
2, 7440, Note_on_c, 0, 74, 0
2, 7440, Note_on_c, 0, 74, 100
2, 7680, Note_on_c, 0, 74, 0
2, 7680, Note_on_c, 0, 74, 100
2, 7920, Note_on_c, 0, 74, 0
2, 7920, Note_on_c, 0, 72, 100
2, 8040, Note_on_c, 0, 72, 0
2, 8040, Note_on_c, 0, 70, 100
2, 8160, Note_on_c, 0, 70, 0
2, 8160, Note_on_c, 0, 72, 100
2, 8400, Note_on_c, 0, 72, 0
2, 8400, Note_on_c, 0, 69, 100
2, 8640, Note_on_c, 0, 69, 0
2, 8640, Note_on_c, 0, 70, 100
2, 8880, Note_on_c, 0, 70, 0
2, 9120, Note_on_c, 0, 82, 100
2, 9360, Note_on_c, 0, 82, 0
2, 9600, Note_on_c, 0, 82, 100
2, 9840, Note_on_c, 0, 82, 0
2, 9840, Note_on_c, 0, 81, 100
2, 9960, Note_on_c, 0, 81, 0
2, 9960, Note_on_c, 0, 79, 100
2, 10080, Note_on_c, 0, 79, 0
2, 10080, Note_on_c, 0, 81, 100
2, 10200, Note_on_c, 0, 81, 0
2, 10200, Note_on_c, 0, 78, 100
2, 10320, Note_on_c, 0, 78, 0
2, 10320, Note_on_c, 0, 79, 100
2, 10560, Note_on_c, 0, 79, 0
2, 10560, Note_on_c, 0, 78, 100
2, 10680, Note_on_c, 0, 78, 0
2, 19680, Note_on_c, 0, 82, 100
2, 19920, Note_on_c, 0, 82, 0
2, 19920, Note_on_c, 0, 82, 100
2, 20160, Note_on_c, 0, 82, 0
2, 20160, Note_on_c, 0, 82, 100
2, 20400, Note_on_c, 0, 82, 0
2, 20400, Note_on_c, 0, 81, 100
2, 20520, Note_on_c, 0, 81, 0
2, 20520, Note_on_c, 0, 79, 100
2, 20640, Note_on_c, 0, 79, 0
2, 20640, Note_on_c, 0, 81, 100
2, 20880, Note_on_c, 0, 81, 0
2, 20880, Note_on_c, 0, 81, 100
2, 21120, Note_on_c, 0, 81, 0
2, 21120, Note_on_c, 0, 80, 100
2, 21240, Note_on_c, 0, 80, 0
2, 21240, Note_on_c, 0, 79, 100
2, 21360, Note_on_c, 0, 79, 0
2, 21360, Note_on_c, 0, 80, 100
2, 21480, Note_on_c, 0, 80, 0
2, 21480, Note_on_c, 0, 78, 100
2, 21600, Note_on_c, 0, 78, 0
2, 21600, Note_on_c, 0, 79, 100
2, 21840, Note_on_c, 0, 79, 0
2, 21840, Note_on_c, 0, 77, 100
2, 22080, Note_on_c, 0, 77, 0
2, 22080, Note_on_c, 0, 75, 100
2, 22320, Note_on_c, 0, 75, 0
2, 22320, Note_on_c, 0, 74, 100
2, 22560, Note_on_c, 0, 74, 0
2, 22560, Note_on_c, 0, 72, 100
2, 22800, Note_on_c, 0, 72, 0
2, 22800, Note_on_c, 0, 70, 100
2, 23040, Note_on_c, 0, 70, 0
2, 23040, Note_on_c, 0, 68, 100
2, 23160, Note_on_c, 0, 68, 0
2, 23160, Note_on_c, 0, 66, 100
2, 23280, Note_on_c, 0, 66, 0
2, 23280, Note_on_c, 0, 66, 100
2, 23400, Note_on_c, 0, 66, 0
2, 23400, Note_on_c, 0, 67, 100
2, 23520, Note_on_c, 0, 67, 0
2, 23520, Note_on_c, 0, 67, 100
2, 23640, Note_on_c, 0, 67, 0
2, 23640, Note_on_c, 0, 58, 100
2, 23760, Note_on_c, 0, 58, 0
2, 23760, Note_on_c, 0, 57, 100
2, 23880, Note_on_c, 0, 57, 0
2, 23880, Note_on_c, 0, 55, 100
2, 24000, Note_on_c, 0, 55, 0
2, 24000, Note_on_c, 0, 57, 100
2, 24120, Note_on_c, 0, 57, 0
2, 24120, Note_on_c, 0, 67, 100
2, 24240, Note_on_c, 0, 67, 0
2, 24240, Note_on_c, 0, 72, 100
2, 24360, Note_on_c, 0, 72, 0
2, 24360, Note_on_c, 0, 75, 100
2, 24480, Note_on_c, 0, 75, 0
2, 24480, Note_on_c, 0, 62, 100
2, 24600, Note_on_c, 0, 62, 0
2, 24600, Note_on_c, 0, 67, 100
2, 24720, Note_on_c, 0, 67, 0
2, 24720, Note_on_c, 0, 69, 100
2, 24840, Note_on_c, 0, 69, 0
2, 24840, Note_on_c, 0, 66, 100
2, 24960, Note_on_c, 0, 66, 0
2, 24960, Note_on_c, 0, 67, 100
2, 25200, Note_on_c, 0, 67, 0
2, 25200, Note_on_c, 0, 86, 100
2, 25440, Note_on_c, 0, 86, 0
2, 25440, Note_on_c, 0, 86, 100
2, 25680, Note_on_c, 0, 86, 0
2, 25680, Note_on_c, 0, 86, 100
2, 25920, Note_on_c, 0, 86, 0
2, 25920, Note_on_c, 0, 86, 100
2, 26160, Note_on_c, 0, 86, 0
2, 26160, Note_on_c, 0, 84, 100
2, 26280, Note_on_c, 0, 84, 0
2, 26280, Note_on_c, 0, 82, 100
2, 26400, Note_on_c, 0, 82, 0
2, 26400, Note_on_c, 0, 84, 100
2, 26640, Note_on_c, 0, 84, 0
2, 26640, Note_on_c, 0, 81, 100
2, 26880, Note_on_c, 0, 81, 0
2, 26880, Note_on_c, 0, 82, 100
2, 27120, Note_on_c, 0, 82, 0
2, 27360, Note_on_c, 0, 87, 100
2, 27600, Note_on_c, 0, 87, 0
2, 27840, Note_on_c, 0, 81, 100
2, 28080, Note_on_c, 0, 81, 0
2, 28320, Note_on_c, 0, 86, 100
2, 29040, Note_on_c, 0, 86, 0
2, 29040, Note_on_c, 0, 84, 100
2, 29280, Note_on_c, 0, 84, 0
2, 29280, Note_on_c, 0, 84, 100
2, 29520, Note_on_c, 0, 84, 0
2, 29520, Note_on_c, 0, 84, 100
2, 29760, Note_on_c, 0, 84, 0
2, 29760, Note_on_c, 0, 84, 100
2, 30000, Note_on_c, 0, 84, 0
2, 30000, Note_on_c, 0, 82, 100
2, 30120, Note_on_c, 0, 82, 0
2, 30120, Note_on_c, 0, 81, 100
2, 30240, Note_on_c, 0, 81, 0
2, 30240, Note_on_c, 0, 82, 100
2, 30480, Note_on_c, 0, 82, 0
2, 30480, Note_on_c, 0, 79, 100
2, 30720, Note_on_c, 0, 79, 0
2, 30720, Note_on_c, 0, 81, 100
2, 30960, Note_on_c, 0, 81, 0
2, 31200, Note_on_c, 0, 86, 100
2, 31440, Note_on_c, 0, 86, 0
2, 31680, Note_on_c, 0, 79, 100
2, 31920, Note_on_c, 0, 79, 0
2, 32160, Note_on_c, 0, 84, 100
2, 32880, Note_on_c, 0, 84, 0
2, 32880, Note_on_c, 0, 82, 100
2, 33120, Note_on_c, 0, 82, 0
2, 33120, Note_on_c, 0, 82, 100
2, 33360, Note_on_c, 0, 82, 0
2, 33360, Note_on_c, 0, 82, 100
2, 33600, Note_on_c, 0, 82, 0
2, 33600, Note_on_c, 0, 82, 100
2, 33840, Note_on_c, 0, 82, 0
2, 33840, Note_on_c, 0, 81, 100
2, 33960, Note_on_c, 0, 81, 0
2, 33960, Note_on_c, 0, 79, 100
2, 34080, Note_on_c, 0, 79, 0
2, 34080, Note_on_c, 0, 81, 100
2, 34320, Note_on_c, 0, 81, 0
2, 34320, Note_on_c, 0, 82, 100
2, 34440, Note_on_c, 0, 82, 0
2, 34440, Note_on_c, 0, 81, 100
2, 34560, Note_on_c, 0, 81, 0
2, 34560, Note_on_c, 0, 79, 100
2, 34800, Note_on_c, 0, 79, 0
2, 35040, Note_on_c, 0, 84, 100
2, 35280, Note_on_c, 0, 84, 0
2, 35520, Note_on_c, 0, 84, 100
2, 35760, Note_on_c, 0, 84, 0
2, 35760, Note_on_c, 0, 82, 100
2, 35880, Note_on_c, 0, 82, 0
2, 35880, Note_on_c, 0, 81, 100
2, 36000, Note_on_c, 0, 81, 0
2, 36000, Note_on_c, 0, 82, 100
2, 36240, Note_on_c, 0, 82, 0
2, 36240, Note_on_c, 0, 84, 100
2, 36360, Note_on_c, 0, 84, 0
2, 36360, Note_on_c, 0, 82, 100
2, 36480, Note_on_c, 0, 82, 0
2, 36480, Note_on_c, 0, 81, 100
2, 36720, Note_on_c, 0, 81, 0
2, 36960, Note_on_c, 0, 86, 100
2, 37200, Note_on_c, 0, 86, 0
2, 37440, Note_on_c, 0, 86, 100
2, 37680, Note_on_c, 0, 86, 0
2, 37920, Note_on_c, 0, 84, 100
2, 38160, Note_on_c, 0, 84, 0
2, 38400, Note_on_c, 0, 77, 100
2, 38640, Note_on_c, 0, 77, 0
2, 38880, Note_on_c, 0, 82, 100
2, 39120, Note_on_c, 0, 82, 0
2, 39360, Note_on_c, 0, 81, 100
2, 39600, Note_on_c, 0, 81, 0
2, 39600, Note_on_c, 0, 77, 100
2, 39840, Note_on_c, 0, 77, 0
2, 39840, Note_on_c, 0, 79, 100
2, 40080, Note_on_c, 0, 79, 0
2, 40080, Note_on_c, 0, 81, 100
2, 40320, Note_on_c, 0, 81, 0
2, 40320, Note_on_c, 0, 82, 100
2, 40560, Note_on_c, 0, 82, 0
2, 40560, Note_on_c, 0, 81, 100
2, 40800, Note_on_c, 0, 81, 0
2, 40800, Note_on_c, 0, 79, 100
2, 41040, Note_on_c, 0, 79, 0
2, 41280, Note_on_c, 0, 79, 100
2, 41520, Note_on_c, 0, 79, 0
2, 41520, Note_on_c, 0, 77, 100
2, 41640, Note_on_c, 0, 77, 0
2, 41640, Note_on_c, 0, 76, 100
2, 41760, Note_on_c, 0, 76, 0
2, 41760, Note_on_c, 0, 77, 100
2, 42000, Note_on_c, 0, 77, 0
2, 42000, Note_on_c, 0, 77, 100
2, 42240, Note_on_c, 0, 77, 0
2, 42240, Note_on_c, 0, 77, 100
2, 42480, Note_on_c, 0, 77, 0
2, 42480, Note_on_c, 0, 76, 100
2, 42600, Note_on_c, 0, 76, 0
2, 42600, Note_on_c, 0, 74, 100
2, 42720, Note_on_c, 0, 74, 0
2, 42720, Note_on_c, 0, 76, 100
2, 42960, Note_on_c, 0, 76, 0
2, 42960, Note_on_c, 0, 73, 100
2, 43200, Note_on_c, 0, 73, 0
2, 43200, Note_on_c, 0, 74, 100
2, 43440, Note_on_c, 0, 74, 0
2, 43920, Note_on_c, 0, 74, 100
2, 44160, Note_on_c, 0, 74, 0
2, 44160, Note_on_c, 0, 74, 100
2, 44400, Note_on_c, 0, 74, 0
2, 44640, Pitch_bend_c, 0, 12288
2, 44640, Note_on_c, 0, 73, 100
2, 44700, Pitch_bend_c, 0, 8192
2, 44760, Pitch_bend_c, 0, 12288
2, 44820, Pitch_bend_c, 0, 8192
2, 45000, Note_on_c, 0, 73, 0
2, 45000, Note_on_c, 0, 74, 100
2, 45120, Note_on_c, 0, 74, 0
2, 45120, Note_on_c, 0, 74, 100
2, 45360, Note_on_c, 0, 74, 0
2, 49200, Note_on_c, 0, 72, 100
2, 49440, Note_on_c, 0, 72, 0
2, 49440, Note_on_c, 0, 72, 100
2, 49680, Note_on_c, 0, 72, 0
2, 49680, Note_on_c, 0, 72, 100
2, 49920, Note_on_c, 0, 72, 0
2, 49920, Note_on_c, 0, 72, 100
2, 50160, Note_on_c, 0, 72, 0
2, 50160, Note_on_c, 0, 70, 100
2, 50280, Note_on_c, 0, 70, 0
2, 50280, Note_on_c, 0, 69, 100
2, 50400, Note_on_c, 0, 69, 0
2, 50400, Note_on_c, 0, 70, 100
2, 50640, Note_on_c, 0, 70, 0
2, 50640, Note_on_c, 0, 72, 100
2, 50760, Note_on_c, 0, 72, 0
2, 50760, Note_on_c, 0, 70, 100
2, 50880, Note_on_c, 0, 70, 0
2, 50880, Note_on_c, 0, 69, 100
2, 51120, Note_on_c, 0, 69, 0
2, 51360, Note_on_c, 0, 74, 100
2, 51600, Note_on_c, 0, 74, 0
2, 51840, Note_on_c, 0, 74, 100
2, 52080, Note_on_c, 0, 74, 0
2, 52080, Note_on_c, 0, 76, 100
2, 52200, Note_on_c, 0, 76, 0
2, 52200, Note_on_c, 0, 77, 100
2, 52320, Note_on_c, 0, 77, 0
2, 52320, Note_on_c, 0, 76, 100
2, 52440, Note_on_c, 0, 76, 0
2, 52440, Note_on_c, 0, 74, 100
2, 52560, Note_on_c, 0, 74, 0
2, 52560, Note_on_c, 0, 73, 100
2, 52680, Note_on_c, 0, 73, 0
2, 52680, Note_on_c, 0, 74, 100
2, 52800, Note_on_c, 0, 74, 0
2, 52800, Note_on_c, 0, 73, 100
2, 53040, Note_on_c, 0, 73, 0
2, 53040, Note_on_c, 0, 81, 100
2, 53280, Note_on_c, 0, 81, 0
2, 53280, Note_on_c, 0, 81, 100
2, 53520, Note_on_c, 0, 81, 0
2, 53520, Note_on_c, 0, 81, 100
2, 53760, Note_on_c, 0, 81, 0
2, 53760, Note_on_c, 0, 81, 100
2, 54000, Note_on_c, 0, 81, 0
2, 54000, Note_on_c, 0, 79, 100
2, 54120, Note_on_c, 0, 79, 0
2, 54120, Note_on_c, 0, 77, 100
2, 54240, Note_on_c, 0, 77, 0
2, 54240, Note_on_c, 0, 79, 100
2, 54480, Note_on_c, 0, 79, 0
2, 54480, Note_on_c, 0, 79, 100
2, 54720, Note_on_c, 0, 79, 0
2, 54720, Note_on_c, 0, 79, 100
2, 54960, Note_on_c, 0, 79, 0
2, 54960, Note_on_c, 0, 77, 100
2, 55080, Note_on_c, 0, 77, 0
2, 55080, Note_on_c, 0, 76, 100
2, 55200, Note_on_c, 0, 76, 0
2, 55200, Note_on_c, 0, 77, 100
2, 55440, Note_on_c, 0, 77, 0
2, 55440, Note_on_c, 0, 77, 100
2, 55680, Note_on_c, 0, 77, 0
2, 55680, Note_on_c, 0, 82, 100
2, 55920, Note_on_c, 0, 82, 0
2, 55920, Note_on_c, 0, 81, 100
2, 56160, Note_on_c, 0, 81, 0
2, 56160, Note_on_c, 0, 81, 100
2, 56400, Note_on_c, 0, 81, 0
2, 56400, Note_on_c, 0, 80, 100
2, 56640, Note_on_c, 0, 80, 0
2, 56640, Note_on_c, 0, 80, 100
2, 56880, Note_on_c, 0, 80, 0
2, 56880, Note_on_c, 0, 81, 100
2, 57120, Note_on_c, 0, 81, 0
2, 57120, Note_on_c, 0, 81, 100
2, 57360, Note_on_c, 0, 81, 0
2, 57360, Note_on_c, 0, 78, 100
2, 57600, Note_on_c, 0, 78, 0
2, 57600, Note_on_c, 0, 78, 100
2, 57840, Note_on_c, 0, 78, 0
2, 57840, Note_on_c, 0, 79, 100
2, 58080, Note_on_c, 0, 79, 0
2, 58080, Note_on_c, 0, 79, 100
2, 58320, Note_on_c, 0, 79, 0
2, 58320, Note_on_c, 0, 76, 100
2, 58560, Note_on_c, 0, 76, 0
2, 58560, Note_on_c, 0, 76, 100
2, 58800, Note_on_c, 0, 76, 0
2, 58800, Note_on_c, 0, 77, 100
2, 59040, Note_on_c, 0, 77, 0
2, 59040, Note_on_c, 0, 77, 100
2, 59280, Note_on_c, 0, 77, 0
2, 59280, Note_on_c, 0, 74, 100
2, 59520, Note_on_c, 0, 74, 0
2, 59520, Note_on_c, 0, 74, 100
2, 59760, Note_on_c, 0, 74, 0
2, 59760, Note_on_c, 0, 75, 100
2, 60000, Note_on_c, 0, 75, 0
2, 60000, Note_on_c, 0, 75, 100
2, 60240, Note_on_c, 0, 75, 0
2, 60240, Note_on_c, 0, 73, 100
2, 60480, Note_on_c, 0, 73, 0
2, 60480, Note_on_c, 0, 73, 100
2, 60720, Note_on_c, 0, 73, 0
2, 60720, Note_on_c, 0, 82, 100
2, 60840, Note_on_c, 0, 82, 0
2, 60840, Note_on_c, 0, 80, 100
2, 60960, Note_on_c, 0, 80, 0
2, 60960, Note_on_c, 0, 81, 100
2, 61200, Note_on_c, 0, 81, 0
2, 61200, Note_on_c, 0, 73, 100
2, 61440, Note_on_c, 0, 73, 0
2, 61440, Note_on_c, 0, 74, 100
2, 61680, Note_on_c, 0, 74, 0
2, 61680, Note_on_c, 0, 82, 100
2, 61800, Note_on_c, 0, 82, 0
2, 61800, Note_on_c, 0, 80, 100
2, 61920, Note_on_c, 0, 80, 0
2, 61920, Note_on_c, 0, 81, 100
2, 62160, Note_on_c, 0, 81, 0
2, 62160, Note_on_c, 0, 85, 100
2, 62400, Note_on_c, 0, 85, 0
2, 62400, Note_on_c, 0, 86, 100
2, 62640, Note_on_c, 0, 86, 0
2, 62640, Note_on_c, 0, 84, 100
2, 62880, Note_on_c, 0, 84, 0
2, 62880, Note_on_c, 0, 84, 100
2, 63120, Note_on_c, 0, 84, 0
2, 63120, Note_on_c, 0, 82, 100
2, 63360, Note_on_c, 0, 82, 0
2, 63360, Note_on_c, 0, 82, 100
2, 63600, Note_on_c, 0, 82, 0
2, 63600, Note_on_c, 0, 81, 100
2, 63840, Note_on_c, 0, 81, 0
2, 63840, Note_on_c, 0, 81, 100
2, 64080, Note_on_c, 0, 81, 0
2, 64080, Note_on_c, 0, 85, 100
2, 64320, Note_on_c, 0, 85, 0
2, 64320, Note_on_c, 0, 85, 100
2, 64560, Note_on_c, 0, 85, 0
2, 64560, Note_on_c, 0, 86, 100
2, 64800, Note_on_c, 0, 86, 0
2, 64800, Note_on_c, 0, 86, 100
2, 65040, Note_on_c, 0, 86, 0
2, 65040, Note_on_c, 0, 79, 100
2, 65280, Note_on_c, 0, 79, 0
2, 65280, Note_on_c, 0, 79, 100
2, 65640, Note_on_c, 0, 79, 0
2, 65640, Note_on_c, 0, 81, 100
2, 65760, Note_on_c, 0, 81, 0
2, 65760, Note_on_c, 0, 77, 100
2, 66000, Note_on_c, 0, 77, 0
2, 66000, Note_on_c, 0, 76, 100
2, 66240, Note_on_c, 0, 76, 0
2, 66240, Note_on_c, 0, 76, 100
2, 67200, Note_on_c, 0, 76, 0
2, 67200, Note_on_c, 0, 76, 100
2, 68160, Note_on_c, 0, 76, 0
2, 68160, Note_on_c, 0, 81, 100
2, 68400, Note_on_c, 0, 81, 0
2, 68400, Note_on_c, 0, 79, 100
2, 68640, Note_on_c, 0, 79, 0
2, 68640, Note_on_c, 0, 81, 100
2, 68880, Note_on_c, 0, 81, 0
2, 68880, Note_on_c, 0, 77, 100
2, 69120, Note_on_c, 0, 77, 0
2, 69120, Note_on_c, 0, 79, 100
2, 70080, Note_on_c, 0, 79, 0
2, 70080, Note_on_c, 0, 79, 100
2, 70320, Note_on_c, 0, 79, 0
2, 70320, Note_on_c, 0, 77, 100
2, 70560, Note_on_c, 0, 77, 0
2, 70560, Note_on_c, 0, 79, 100
2, 70800, Note_on_c, 0, 79, 0
2, 70800, Note_on_c, 0, 76, 100
2, 71040, Note_on_c, 0, 76, 0
2, 71040, Note_on_c, 0, 62, 100
2, 72000, Note_on_c, 0, 62, 0
2, 72000, Note_on_c, 0, 62, 100
2, 72960, Note_on_c, 0, 62, 0
2, 72960, Note_on_c, 0, 62, 100
2, 73920, Note_on_c, 0, 62, 0
2, 73920, Note_on_c, 0, 62, 100
2, 74880, Note_on_c, 0, 62, 0
2, 74880, Note_on_c, 0, 62, 100
2, 75840, Note_on_c, 0, 62, 0
2, 75840, Note_on_c, 0, 62, 100
2, 76800, Note_on_c, 0, 62, 0
2, 76800, Note_on_c, 0, 62, 100
2, 77760, Note_on_c, 0, 62, 0
2, 77760, Note_on_c, 0, 62, 100
2, 78720, Note_on_c, 0, 62, 0
2, 97920, Note_on_c, 0, 71, 100
2, 98160, Note_on_c, 0, 71, 0
2, 98400, Note_on_c, 0, 75, 100
2, 98640, Note_on_c, 0, 75, 0
2, 98880, Note_on_c, 0, 74, 100
2, 99120, Note_on_c, 0, 74, 0
2, 99360, Note_on_c, 0, 74, 100
2, 99600, Note_on_c, 0, 74, 0
2, 99600, Note_on_c, 0, 77, 100
2, 99840, Note_on_c, 0, 77, 0
2, 100320, Note_on_c, 0, 72, 100
2, 100560, Note_on_c, 0, 72, 0
2, 100560, Note_on_c, 0, 72, 100
2, 100800, Note_on_c, 0, 72, 0
2, 100800, Note_on_c, 0, 72, 100
2, 101040, Note_on_c, 0, 72, 0
2, 101280, Note_on_c, 0, 71, 100
2, 101520, Note_on_c, 0, 71, 0
2, 101760, Note_on_c, 0, 67, 100
2, 102000, Note_on_c, 0, 67, 0
2, 102240, Note_on_c, 0, 65, 100
2, 102480, Note_on_c, 0, 65, 0
2, 102720, Note_on_c, 0, 66, 100
2, 102960, Note_on_c, 0, 66, 0
2, 103200, Note_on_c, 0, 62, 100
2, 103440, Note_on_c, 0, 62, 0
2, 103680, Note_on_c, 0, 63, 100
2, 103920, Note_on_c, 0, 63, 0
2, 104640, Note_on_c, 0, 62, 100
2, 104880, Note_on_c, 0, 62, 0
2, 105360, Note_on_c, 0, 64, 100
2, 105600, Note_on_c, 0, 64, 0
2, 105600, Note_on_c, 0, 65, 100
2, 105840, Note_on_c, 0, 65, 0
2, 105840, Note_on_c, 0, 65, 100
2, 106080, Note_on_c, 0, 65, 0
2, 106080, Note_on_c, 0, 69, 100
2, 106320, Note_on_c, 0, 69, 0
2, 106560, Note_on_c, 0, 70, 100
2, 106800, Note_on_c, 0, 70, 0
2, 107040, Note_on_c, 0, 72, 100
2, 107280, Note_on_c, 0, 72, 0
2, 107520, Note_on_c, 0, 72, 100
2, 107760, Note_on_c, 0, 72, 0
2, 107760, Note_on_c, 0, 70, 100
2, 107880, Note_on_c, 0, 70, 0
2, 107880, Note_on_c, 0, 69, 100
2, 108000, Note_on_c, 0, 69, 0
2, 108000, Note_on_c, 0, 70, 100
2, 108240, Note_on_c, 0, 70, 0
2, 108480, Note_on_c, 0, 70, 100
2, 108720, Note_on_c, 0, 70, 0
2, 109440, Note_on_c, 0, 70, 100
2, 109680, Note_on_c, 0, 70, 0
2, 109680, Note_on_c, 0, 58, 100
2, 109920, Note_on_c, 0, 58, 0
2, 109920, Note_on_c, 0, 58, 100
2, 110160, Note_on_c, 0, 58, 0
2, 110160, Note_on_c, 0, 58, 100
2, 110400, Note_on_c, 0, 58, 0
2, 111600, Note_on_c, 0, 60, 100
2, 111840, Note_on_c, 0, 60, 0
2, 111840, Note_on_c, 0, 60, 100
2, 112080, Note_on_c, 0, 60, 0
2, 112080, Note_on_c, 0, 60, 100
2, 112320, Note_on_c, 0, 60, 0
2, 113280, Note_on_c, 0, 75, 100
2, 113520, Note_on_c, 0, 75, 0
2, 113520, Note_on_c, 0, 74, 100
2, 113760, Note_on_c, 0, 74, 0
2, 113760, Note_on_c, 0, 74, 100
2, 114000, Note_on_c, 0, 74, 0
2, 114000, Note_on_c, 0, 72, 100
2, 114240, Note_on_c, 0, 72, 0
2, 114240, Note_on_c, 0, 72, 100
2, 114480, Note_on_c, 0, 72, 0
2, 114480, Note_on_c, 0, 70, 100
2, 114720, Note_on_c, 0, 70, 0
2, 115440, Note_on_c, 0, 65, 100
2, 115680, Note_on_c, 0, 65, 0
2, 115680, Note_on_c, 0, 65, 100
2, 115920, Note_on_c, 0, 65, 0
2, 115920, Note_on_c, 0, 65, 100
2, 116160, Note_on_c, 0, 65, 0
2, 116160, Note_on_c, 0, 65, 100
2, 116400, Note_on_c, 0, 65, 0
2, 116400, Note_on_c, 0, 67, 100
2, 116520, Note_on_c, 0, 67, 0
2, 116520, Note_on_c, 0, 65, 100
2, 116640, Note_on_c, 0, 65, 0
2, 116640, Note_on_c, 0, 63, 100
2, 116880, Note_on_c, 0, 63, 0
2, 116880, Note_on_c, 0, 62, 100
2, 117120, Note_on_c, 0, 62, 0
2, 117120, Note_on_c, 0, 63, 100
2, 117360, Note_on_c, 0, 63, 0
2, 117360, Note_on_c, 0, 70, 100
2, 117600, Note_on_c, 0, 70, 0
2, 117600, Note_on_c, 0, 70, 100
2, 117840, Note_on_c, 0, 70, 0
2, 117840, Note_on_c, 0, 70, 100
2, 118080, Note_on_c, 0, 70, 0
2, 118080, Note_on_c, 0, 70, 100
2, 118320, Note_on_c, 0, 70, 0
2, 119040, Note_on_c, 0, 74, 100
2, 119280, Note_on_c, 0, 74, 0
2, 120240, Note_on_c, 0, 70, 100
2, 120480, Note_on_c, 0, 70, 0
2, 144960, Note_on_c, 0, 67, 100
2, 145200, Note_on_c, 0, 67, 0
2, 145440, Note_on_c, 0, 69, 100
2, 145680, Note_on_c, 0, 69, 0
2, 145920, Note_on_c, 0, 69, 100
2, 146160, Note_on_c, 0, 69, 0
2, 146400, Note_on_c, 0, 67, 100
2, 146520, Note_on_c, 0, 67, 0
2, 146880, Note_on_c, 0, 67, 100
2, 147000, Note_on_c, 0, 67, 0
2, 147360, Note_on_c, 0, 65, 100
2, 147600, Note_on_c, 0, 65, 0
2, 147840, Note_on_c, 0, 65, 100
2, 147960, Note_on_c, 0, 65, 0
2, 148800, Note_on_c, 0, 63, 100
2, 148920, Note_on_c, 0, 63, 0
2, 151920, Note_on_c, 0, 74, 100
2, 152160, Note_on_c, 0, 74, 0
2, 152160, Note_on_c, 0, 74, 100
2, 152400, Note_on_c, 0, 74, 0
2, 152400, Note_on_c, 0, 74, 100
2, 152640, Note_on_c, 0, 74, 0
2, 152640, Note_on_c, 0, 74, 100
2, 152880, Note_on_c, 0, 74, 0
2, 152880, Note_on_c, 0, 72, 100
2, 153000, Note_on_c, 0, 72, 0
2, 153000, Note_on_c, 0, 71, 100
2, 153120, Note_on_c, 0, 71, 0
2, 153120, Note_on_c, 0, 72, 100
2, 153360, Note_on_c, 0, 72, 0
2, 153360, Note_on_c, 0, 81, 100
2, 153600, Note_on_c, 0, 81, 0
2, 153600, Note_on_c, 0, 72, 100
2, 153840, Note_on_c, 0, 72, 0
2, 153840, Note_on_c, 0, 72, 100
2, 153960, Note_on_c, 0, 72, 0
2, 153960, Note_on_c, 0, 70, 100
2, 154080, Note_on_c, 0, 70, 0
2, 154080, Note_on_c, 0, 72, 100
2, 154320, Note_on_c, 0, 72, 0
2, 154320, Note_on_c, 0, 81, 100
2, 154560, Note_on_c, 0, 81, 0
2, 154560, Note_on_c, 0, 70, 100
2, 154800, Note_on_c, 0, 70, 0
2, 154800, Note_on_c, 0, 70, 100
2, 154920, Note_on_c, 0, 70, 0
2, 154920, Note_on_c, 0, 69, 100
2, 155040, Note_on_c, 0, 69, 0
2, 155040, Note_on_c, 0, 70, 100
2, 155280, Note_on_c, 0, 70, 0
2, 155280, Note_on_c, 0, 79, 100
2, 155520, Note_on_c, 0, 79, 0
2, 155520, Note_on_c, 0, 82, 100
2, 155880, Note_on_c, 0, 82, 0
2, 155880, Note_on_c, 0, 81, 100
2, 156000, Note_on_c, 0, 81, 0
2, 156000, Note_on_c, 0, 79, 100
2, 156120, Note_on_c, 0, 79, 0
2, 156120, Note_on_c, 0, 78, 100
2, 156240, Note_on_c, 0, 78, 0
2, 156240, Note_on_c, 0, 79, 100
2, 156360, Note_on_c, 0, 79, 0
2, 156360, Note_on_c, 0, 81, 100
2, 156480, Note_on_c, 0, 81, 0
2, 156480, Note_on_c, 0, 78, 100
2, 156720, Note_on_c, 0, 78, 0
2, 156720, Note_on_c, 0, 79, 100
2, 156960, Note_on_c, 0, 79, 0
2, 156960, Note_on_c, 0, 79, 100
2, 157200, Note_on_c, 0, 79, 0
2, 157200, Note_on_c, 0, 79, 100
2, 157440, Note_on_c, 0, 79, 0
2, 157440, Note_on_c, 0, 79, 100
2, 157680, Note_on_c, 0, 79, 0
2, 157920, Note_on_c, 0, 78, 100
2, 158160, Note_on_c, 0, 78, 0
2, 158400, Note_on_c, 0, 77, 100
2, 158640, Note_on_c, 0, 77, 0
2, 158880, Note_on_c, 0, 75, 100
2, 159120, Note_on_c, 0, 75, 0
2, 159360, Note_on_c, 0, 75, 100
2, 159600, Note_on_c, 0, 75, 0
2, 159840, Note_on_c, 0, 74, 100
2, 160080, Note_on_c, 0, 74, 0
2, 160080, Note_on_c, 0, 82, 100
2, 160320, Note_on_c, 0, 82, 0
2, 160320, Note_on_c, 0, 79, 100
2, 160560, Note_on_c, 0, 79, 0
2, 160560, Note_on_c, 0, 80, 100
2, 160680, Note_on_c, 0, 80, 0
2, 160680, Note_on_c, 0, 79, 100
2, 160800, Note_on_c, 0, 79, 0
2, 160800, Note_on_c, 0, 80, 100
2, 160920, Note_on_c, 0, 80, 0
2, 160920, Note_on_c, 0, 78, 100
2, 161040, Note_on_c, 0, 78, 0
2, 161040, Note_on_c, 0, 79, 100
2, 161280, Note_on_c, 0, 79, 0
2, 161280, Note_on_c, 0, 78, 100
2, 161520, Note_on_c, 0, 78, 0
2, 162000, Note_on_c, 0, 78, 100
2, 162240, Note_on_c, 0, 78, 0
2, 162240, Note_on_c, 0, 79, 100
2, 162480, Note_on_c, 0, 79, 0
2, 162480, Note_on_c, 0, 81, 100
2, 162720, Note_on_c, 0, 81, 0
2, 162720, Note_on_c, 0, 82, 100
2, 162960, Note_on_c, 0, 82, 0
2, 162960, Note_on_c, 0, 78, 100
2, 163200, Note_on_c, 0, 78, 0
2, 163200, Note_on_c, 0, 78, 100
2, 163440, Note_on_c, 0, 78, 0
2, 163440, Note_on_c, 0, 79, 100
2, 163680, Note_on_c, 0, 79, 0
2, 163680, Note_on_c, 0, 79, 100
2, 163920, Note_on_c, 0, 79, 0
2, 163920, Note_on_c, 0, 79, 100
2, 164160, Note_on_c, 0, 79, 0
2, 164160, Note_on_c, 0, 79, 100
2, 164520, Note_on_c, 0, 79, 0
2, 164520, Note_on_c, 0, 81, 100
2, 164640, Note_on_c, 0, 81, 0
2, 164640, Pitch_bend_c, 0, 12288
2, 164640, Note_on_c, 0, 78, 100
2, 164700, Pitch_bend_c, 0, 8192
2, 164760, Pitch_bend_c, 0, 12288
2, 164820, Pitch_bend_c, 0, 8192
2, 165000, Note_on_c, 0, 78, 0
2, 165000, Note_on_c, 0, 79, 100
2, 165120, Note_on_c, 0, 79, 0
2, 176640, Note_on_c, 0, 78, 100
2, 177390, Note_on_c, 0, 78, 0
2, 177390, Note_on_c, 0, 79, 100
2, 177420, Note_on_c, 0, 79, 0
2, 177420, Note_on_c, 0, 81, 100
2, 177450, Note_on_c, 0, 81, 0
2, 177450, Note_on_c, 0, 78, 100
2, 177480, Note_on_c, 0, 78, 0
2, 177480, Note_on_c, 0, 79, 100
2, 177510, Note_on_c, 0, 79, 0
2, 177510, Note_on_c, 0, 81, 100
2, 177540, Note_on_c, 0, 81, 0
2, 177540, Note_on_c, 0, 72, 100
2, 177570, Note_on_c, 0, 72, 0
2, 177570, Note_on_c, 0, 74, 100
2, 177600, Note_on_c, 0, 74, 0
2, 177600, Note_on_c, 0, 75, 100
2, 177630, Note_on_c, 0, 75, 0
2, 177630, Note_on_c, 0, 72, 100
2, 177660, Note_on_c, 0, 72, 0
2, 177660, Note_on_c, 0, 74, 100
2, 177690, Note_on_c, 0, 74, 0
2, 177690, Note_on_c, 0, 75, 100
2, 177720, Note_on_c, 0, 75, 0
2, 177720, Note_on_c, 0, 69, 100
2, 177750, Note_on_c, 0, 69, 0
2, 177750, Note_on_c, 0, 70, 100
2, 177780, Note_on_c, 0, 70, 0
2, 177780, Note_on_c, 0, 72, 100
2, 177810, Note_on_c, 0, 72, 0
2, 177810, Note_on_c, 0, 69, 100
2, 177840, Note_on_c, 0, 69, 0
2, 177840, Note_on_c, 0, 70, 100
2, 177870, Note_on_c, 0, 70, 0
2, 177870, Note_on_c, 0, 72, 100
2, 177900, Note_on_c, 0, 72, 0
2, 177900, Note_on_c, 0, 66, 100
2, 177930, Note_on_c, 0, 66, 0
2, 177930, Note_on_c, 0, 67, 100
2, 177960, Note_on_c, 0, 67, 0
2, 177960, Note_on_c, 0, 69, 100
2, 177990, Note_on_c, 0, 69, 0
2, 177990, Note_on_c, 0, 66, 100
2, 178020, Note_on_c, 0, 66, 0
2, 178020, Note_on_c, 0, 67, 100
2, 178050, Note_on_c, 0, 67, 0
2, 178050, Note_on_c, 0, 69, 100
2, 178080, Note_on_c, 0, 69, 0
2, 178080, Note_on_c, 0, 62, 100
2, 178320, Note_on_c, 0, 62, 0
2, 178320, Note_on_c, 0, 73, 100
2, 178560, Note_on_c, 0, 73, 0
2, 178560, Note_on_c, 0, 69, 100
2, 178800, Note_on_c, 0, 69, 0
2, 179520, Note_on_c, 0, 70, 100
2, 180480, Note_on_c, 0, 70, 0
2, 180480, End_track
3, 0, Start_track
3, 0, MIDI_port, 0
3, 0, Title_t, "--------------------------------------"
3, 0, Program_c, 1, 40
3, 0, Control_c, 1, 7, 100
3, 0, Control_c, 1, 10, 59
3, 240, Note_on_c, 1, 74, 100
3, 480, Note_on_c, 1, 74, 0
3, 480, Note_on_c, 1, 74, 100
3, 720, Note_on_c, 1, 74, 0
3, 720, Note_on_c, 1, 74, 100
3, 960, Note_on_c, 1, 74, 0
3, 960, Note_on_c, 1, 74, 100
3, 1200, Note_on_c, 1, 74, 0
3, 1200, Note_on_c, 1, 72, 100
3, 1320, Note_on_c, 1, 72, 0
3, 1320, Note_on_c, 1, 70, 100
3, 1440, Note_on_c, 1, 70, 0
3, 1440, Note_on_c, 1, 72, 100
3, 1680, Note_on_c, 1, 72, 0
3, 1680, Note_on_c, 1, 69, 100
3, 1920, Note_on_c, 1, 69, 0
3, 1920, Note_on_c, 1, 70, 100
3, 2160, Note_on_c, 1, 70, 0
3, 2400, Note_on_c, 1, 75, 100
3, 2640, Note_on_c, 1, 75, 0
3, 2880, Note_on_c, 1, 69, 100
3, 3120, Note_on_c, 1, 69, 0
3, 3360, Note_on_c, 1, 74, 100
3, 3600, Note_on_c, 1, 74, 0
3, 3840, Note_on_c, 1, 74, 100
3, 4080, Note_on_c, 1, 74, 0
3, 4320, Note_on_c, 1, 72, 100
3, 4560, Note_on_c, 1, 72, 0
3, 4800, Note_on_c, 1, 70, 100
3, 5040, Note_on_c, 1, 70, 0
3, 5280, Note_on_c, 1, 69, 100
3, 5520, Note_on_c, 1, 69, 0
3, 5760, Note_on_c, 1, 67, 100
3, 6000, Note_on_c, 1, 67, 0
3, 6000, Note_on_c, 1, 55, 100
3, 6240, Note_on_c, 1, 55, 0
3, 6240, Note_on_c, 1, 60, 100
3, 6360, Note_on_c, 1, 60, 0
3, 6360, Note_on_c, 1, 70, 100
3, 6480, Note_on_c, 1, 70, 0
3, 6480, Note_on_c, 1, 69, 100
3, 6600, Note_on_c, 1, 69, 0
3, 6600, Note_on_c, 1, 70, 100
3, 6660, Note_on_c, 1, 70, 0
3, 6660, Note_on_c, 1, 72, 100
3, 6720, Note_on_c, 1, 72, 0
3, 6720, Note_on_c, 1, 66, 100
3, 6960, Note_on_c, 1, 66, 0
3, 7200, Note_on_c, 1, 67, 100
3, 7440, Note_on_c, 1, 67, 0
3, 7680, Note_on_c, 1, 64, 100
3, 7920, Note_on_c, 1, 64, 0
3, 8160, Note_on_c, 1, 66, 100
3, 8400, Note_on_c, 1, 66, 0
3, 8640, Note_on_c, 1, 67, 100
3, 8880, Note_on_c, 1, 67, 0
3, 8880, Note_on_c, 1, 65, 100
3, 9000, Note_on_c, 1, 65, 0
3, 9000, Note_on_c, 1, 63, 100
3, 9120, Note_on_c, 1, 63, 0
3, 9120, Note_on_c, 1, 74, 100
3, 9360, Note_on_c, 1, 74, 0
3, 9600, Note_on_c, 1, 72, 100
3, 9840, Note_on_c, 1, 72, 0
3, 10560, Note_on_c, 1, 72, 100
3, 10680, Note_on_c, 1, 72, 0
3, 10680, Note_on_c, 1, 75, 100
3, 10800, Note_on_c, 1, 75, 0
3, 10800, Note_on_c, 1, 74, 100
3, 10920, Note_on_c, 1, 74, 0
3, 10920, Note_on_c, 1, 72, 100
3, 11040, Note_on_c, 1, 72, 0
3, 11040, Note_on_c, 1, 70, 100
3, 11160, Note_on_c, 1, 70, 0
3, 11160, Note_on_c, 1, 79, 100
3, 11280, Note_on_c, 1, 79, 0
3, 11280, Note_on_c, 1, 69, 100
3, 11400, Note_on_c, 1, 69, 0
3, 11400, Note_on_c, 1, 67, 100
3, 11520, Note_on_c, 1, 67, 0
3, 11520, Note_on_c, 1, 62, 100
3, 11640, Note_on_c, 1, 62, 0
3, 11640, Note_on_c, 1, 69, 100
3, 11760, Note_on_c, 1, 69, 0
3, 11760, Note_on_c, 1, 73, 100
3, 11880, Note_on_c, 1, 73, 0
3, 11880, Note_on_c, 1, 76, 100
3, 12000, Note_on_c, 1, 76, 0
3, 12000, Note_on_c, 1, 77, 100
3, 12120, Note_on_c, 1, 77, 0
3, 12120, Note_on_c, 1, 81, 100
3, 12240, Note_on_c, 1, 81, 0
3, 12240, Note_on_c, 1, 74, 100
3, 12360, Note_on_c, 1, 74, 0
3, 12360, Note_on_c, 1, 72, 100
3, 12480, Note_on_c, 1, 72, 0
3, 12480, Note_on_c, 1, 71, 100
3, 12600, Note_on_c, 1, 71, 0
3, 12600, Note_on_c, 1, 74, 100
3, 12720, Note_on_c, 1, 74, 0
3, 12720, Note_on_c, 1, 77, 100
3, 12840, Note_on_c, 1, 77, 0
3, 12840, Note_on_c, 1, 80, 100
3, 12960, Note_on_c, 1, 80, 0
3, 12960, Note_on_c, 1, 79, 100
3, 13080, Note_on_c, 1, 79, 0
3, 13080, Note_on_c, 1, 77, 100
3, 13200, Note_on_c, 1, 77, 0
3, 13200, Note_on_c, 1, 75, 100
3, 13320, Note_on_c, 1, 75, 0
3, 13320, Note_on_c, 1, 74, 100
3, 13440, Note_on_c, 1, 74, 0
3, 13440, Note_on_c, 1, 75, 100
3, 13560, Note_on_c, 1, 75, 0
3, 13560, Note_on_c, 1, 67, 100
3, 13680, Note_on_c, 1, 67, 0
3, 13680, Note_on_c, 1, 72, 100
3, 13800, Note_on_c, 1, 72, 0
3, 13800, Note_on_c, 1, 74, 100
3, 13920, Note_on_c, 1, 74, 0
3, 13920, Note_on_c, 1, 75, 100
3, 14040, Note_on_c, 1, 75, 0
3, 14040, Note_on_c, 1, 79, 100
3, 14160, Note_on_c, 1, 79, 0
3, 14160, Note_on_c, 1, 72, 100
3, 14280, Note_on_c, 1, 72, 0
3, 14280, Note_on_c, 1, 70, 100
3, 14400, Note_on_c, 1, 70, 0
3, 14400, Note_on_c, 1, 69, 100
3, 14520, Note_on_c, 1, 69, 0
3, 14520, Note_on_c, 1, 72, 100
3, 14640, Note_on_c, 1, 72, 0
3, 14640, Note_on_c, 1, 75, 100
3, 14760, Note_on_c, 1, 75, 0
3, 14760, Note_on_c, 1, 79, 100
3, 14880, Note_on_c, 1, 79, 0
3, 14880, Note_on_c, 1, 77, 100
3, 15000, Note_on_c, 1, 77, 0
3, 15000, Note_on_c, 1, 75, 100
3, 15120, Note_on_c, 1, 75, 0
3, 15120, Note_on_c, 1, 74, 100
3, 15240, Note_on_c, 1, 74, 0
3, 15240, Note_on_c, 1, 72, 100
3, 15360, Note_on_c, 1, 72, 0
3, 15360, Note_on_c, 1, 74, 100
3, 15480, Note_on_c, 1, 74, 0
3, 15480, Note_on_c, 1, 69, 100
3, 15600, Note_on_c, 1, 69, 0
3, 15600, Note_on_c, 1, 70, 100
3, 15720, Note_on_c, 1, 70, 0
3, 15720, Note_on_c, 1, 66, 100
3, 15840, Note_on_c, 1, 66, 0
3, 15840, Note_on_c, 1, 67, 100
3, 15960, Note_on_c, 1, 67, 0
3, 15960, Note_on_c, 1, 70, 100
3, 16080, Note_on_c, 1, 70, 0
3, 16080, Note_on_c, 1, 74, 100
3, 16200, Note_on_c, 1, 74, 0
3, 16200, Note_on_c, 1, 65, 100
3, 16320, Note_on_c, 1, 65, 0
3, 16320, Note_on_c, 1, 64, 100
3, 16440, Note_on_c, 1, 64, 0
3, 16440, Note_on_c, 1, 67, 100
3, 16560, Note_on_c, 1, 67, 0
3, 16560, Note_on_c, 1, 70, 100
3, 16680, Note_on_c, 1, 70, 0
3, 16680, Note_on_c, 1, 74, 100
3, 16800, Note_on_c, 1, 74, 0
3, 16800, Note_on_c, 1, 72, 100
3, 16920, Note_on_c, 1, 72, 0
3, 16920, Note_on_c, 1, 69, 100
3, 17040, Note_on_c, 1, 69, 0
3, 17040, Note_on_c, 1, 70, 100
3, 17160, Note_on_c, 1, 70, 0
3, 17160, Note_on_c, 1, 67, 100
3, 17280, Note_on_c, 1, 67, 0
3, 17280, Note_on_c, 1, 66, 100
3, 17400, Note_on_c, 1, 66, 0
3, 17400, Note_on_c, 1, 69, 100
3, 17520, Note_on_c, 1, 69, 0
3, 17520, Note_on_c, 1, 72, 100
3, 17640, Note_on_c, 1, 72, 0
3, 17640, Note_on_c, 1, 75, 100
3, 17760, Note_on_c, 1, 75, 0
3, 17760, Note_on_c, 1, 74, 100
3, 17880, Note_on_c, 1, 74, 0
3, 17880, Note_on_c, 1, 72, 100
3, 18000, Note_on_c, 1, 72, 0
3, 18000, Note_on_c, 1, 70, 100
3, 18120, Note_on_c, 1, 70, 0
3, 18120, Note_on_c, 1, 69, 100
3, 18240, Note_on_c, 1, 69, 0
3, 18240, Note_on_c, 1, 70, 100
3, 18360, Note_on_c, 1, 70, 0
3, 18360, Note_on_c, 1, 67, 100
3, 18480, Note_on_c, 1, 67, 0
3, 18480, Note_on_c, 1, 74, 100
3, 18600, Note_on_c, 1, 74, 0
3, 18600, Note_on_c, 1, 65, 100
3, 18720, Note_on_c, 1, 65, 0
3, 18720, Note_on_c, 1, 63, 100
3, 18840, Note_on_c, 1, 63, 0
3, 18840, Note_on_c, 1, 74, 100
3, 18960, Note_on_c, 1, 74, 0
3, 18960, Note_on_c, 1, 79, 100
3, 19080, Note_on_c, 1, 79, 0
3, 19080, Note_on_c, 1, 72, 100
3, 19200, Note_on_c, 1, 72, 0
3, 19200, Note_on_c, 1, 78, 100
3, 19440, Note_on_c, 1, 78, 0
3, 19680, Note_on_c, 1, 74, 100
3, 19920, Note_on_c, 1, 74, 0
3, 19920, Note_on_c, 1, 74, 100
3, 20160, Note_on_c, 1, 74, 0
3, 20160, Note_on_c, 1, 72, 100
3, 20400, Note_on_c, 1, 72, 0
3, 20640, Note_on_c, 1, 72, 100
3, 20880, Note_on_c, 1, 72, 0
3, 20880, Note_on_c, 1, 72, 100
3, 21120, Note_on_c, 1, 72, 0
3, 21120, Note_on_c, 1, 70, 100
3, 21360, Note_on_c, 1, 70, 0
3, 21600, Note_on_c, 1, 70, 100
3, 21840, Note_on_c, 1, 70, 0
3, 21840, Note_on_c, 1, 71, 100
3, 22080, Note_on_c, 1, 71, 0
3, 22080, Note_on_c, 1, 67, 100
3, 22200, Note_on_c, 1, 67, 0
3, 22200, Note_on_c, 1, 65, 100
3, 22320, Note_on_c, 1, 65, 0
3, 22320, Note_on_c, 1, 65, 100
3, 22440, Note_on_c, 1, 65, 0
3, 22440, Note_on_c, 1, 63, 100
3, 22560, Note_on_c, 1, 63, 0
3, 22560, Note_on_c, 1, 63, 100
3, 22680, Note_on_c, 1, 63, 0
3, 22680, Note_on_c, 1, 62, 100
3, 22800, Note_on_c, 1, 62, 0
3, 22800, Note_on_c, 1, 62, 100
3, 22920, Note_on_c, 1, 62, 0
3, 22920, Note_on_c, 1, 60, 100
3, 23040, Note_on_c, 1, 60, 0
3, 23040, Note_on_c, 1, 60, 100
3, 23280, Note_on_c, 1, 60, 0
3, 24960, Note_on_c, 1, 55, 100
3, 25200, Note_on_c, 1, 55, 0
3, 27120, Note_on_c, 1, 79, 100
3, 27360, Note_on_c, 1, 79, 0
3, 27360, Note_on_c, 1, 79, 100
3, 27600, Note_on_c, 1, 79, 0
3, 27600, Note_on_c, 1, 79, 100
3, 27840, Note_on_c, 1, 79, 0
3, 27840, Note_on_c, 1, 79, 100
3, 28080, Note_on_c, 1, 79, 0
3, 28080, Note_on_c, 1, 77, 100
3, 28200, Note_on_c, 1, 77, 0
3, 28200, Note_on_c, 1, 75, 100
3, 28320, Note_on_c, 1, 75, 0
3, 28320, Note_on_c, 1, 77, 100
3, 28560, Note_on_c, 1, 77, 0
3, 28560, Note_on_c, 1, 74, 100
3, 28800, Note_on_c, 1, 74, 0
3, 28800, Note_on_c, 1, 75, 100
3, 29040, Note_on_c, 1, 75, 0
3, 29040, Note_on_c, 1, 75, 100
3, 29160, Note_on_c, 1, 75, 0
3, 29160, Note_on_c, 1, 74, 100
3, 29280, Note_on_c, 1, 74, 0
3, 29280, Note_on_c, 1, 75, 100
3, 29520, Note_on_c, 1, 75, 0
3, 29520, Note_on_c, 1, 77, 100
3, 29640, Note_on_c, 1, 77, 0
3, 29640, Note_on_c, 1, 75, 100
3, 29760, Note_on_c, 1, 75, 0
3, 29760, Note_on_c, 1, 74, 100
3, 30000, Note_on_c, 1, 74, 0
3, 30240, Note_on_c, 1, 79, 100
3, 30480, Note_on_c, 1, 79, 0
3, 30720, Note_on_c, 1, 79, 100
3, 30960, Note_on_c, 1, 79, 0
3, 30960, Note_on_c, 1, 77, 100
3, 31200, Note_on_c, 1, 77, 0
3, 31200, Note_on_c, 1, 77, 100
3, 31440, Note_on_c, 1, 77, 0
3, 31440, Note_on_c, 1, 77, 100
3, 31680, Note_on_c, 1, 77, 0
3, 31680, Note_on_c, 1, 77, 100
3, 31920, Note_on_c, 1, 77, 0
3, 31920, Note_on_c, 1, 75, 100
3, 32040, Note_on_c, 1, 75, 0
3, 32040, Note_on_c, 1, 74, 100
3, 32160, Note_on_c, 1, 74, 0
3, 32160, Note_on_c, 1, 75, 100
3, 32400, Note_on_c, 1, 75, 0
3, 32400, Note_on_c, 1, 72, 100
3, 32640, Note_on_c, 1, 72, 0
3, 32640, Note_on_c, 1, 74, 100
3, 32880, Note_on_c, 1, 74, 0
3, 32880, Note_on_c, 1, 74, 100
3, 33000, Note_on_c, 1, 74, 0
3, 33000, Note_on_c, 1, 72, 100
3, 33120, Note_on_c, 1, 72, 0
3, 33120, Note_on_c, 1, 74, 100
3, 33360, Note_on_c, 1, 74, 0
3, 33360, Note_on_c, 1, 75, 100
3, 33480, Note_on_c, 1, 75, 0
3, 33480, Note_on_c, 1, 74, 100
3, 33600, Note_on_c, 1, 74, 0
3, 33600, Note_on_c, 1, 72, 100
3, 33840, Note_on_c, 1, 72, 0
3, 34080, Note_on_c, 1, 77, 100
3, 34320, Note_on_c, 1, 77, 0
3, 34560, Note_on_c, 1, 77, 100
3, 34800, Note_on_c, 1, 77, 0
3, 34800, Note_on_c, 1, 75, 100
3, 34920, Note_on_c, 1, 75, 0
3, 34920, Note_on_c, 1, 74, 100
3, 35040, Note_on_c, 1, 74, 0
3, 35040, Note_on_c, 1, 75, 100
3, 35280, Note_on_c, 1, 75, 0
3, 35280, Note_on_c, 1, 77, 100
3, 35400, Note_on_c, 1, 77, 0
3, 35400, Note_on_c, 1, 75, 100
3, 35520, Note_on_c, 1, 75, 0
3, 35520, Note_on_c, 1, 74, 100
3, 35760, Note_on_c, 1, 74, 0
3, 36000, Note_on_c, 1, 79, 100
3, 36240, Note_on_c, 1, 79, 0
3, 36480, Note_on_c, 1, 79, 100
3, 36720, Note_on_c, 1, 79, 0
3, 36720, Note_on_c, 1, 77, 100
3, 36840, Note_on_c, 1, 77, 0
3, 36840, Note_on_c, 1, 76, 100
3, 36960, Note_on_c, 1, 76, 0
3, 36960, Note_on_c, 1, 77, 100
3, 37200, Note_on_c, 1, 77, 0
3, 37200, Note_on_c, 1, 79, 100
3, 37320, Note_on_c, 1, 79, 0
3, 37320, Note_on_c, 1, 77, 100
3, 37440, Note_on_c, 1, 77, 0
3, 37440, Note_on_c, 1, 76, 100
3, 37680, Note_on_c, 1, 76, 0
3, 37920, Note_on_c, 1, 76, 100
3, 38160, Note_on_c, 1, 76, 0
3, 38400, Note_on_c, 1, 74, 100
3, 38640, Note_on_c, 1, 74, 0
3, 38880, Note_on_c, 1, 73, 100
3, 39120, Note_on_c, 1, 73, 0
3, 39360, Note_on_c, 1, 74, 100
3, 39600, Note_on_c, 1, 74, 0
3, 39600, Note_on_c, 1, 74, 100
3, 39840, Note_on_c, 1, 74, 0
3, 39840, Note_on_c, 1, 74, 100
3, 40080, Note_on_c, 1, 74, 0
3, 40080, Note_on_c, 1, 74, 100
3, 40320, Note_on_c, 1, 74, 0
3, 40320, Note_on_c, 1, 74, 100
3, 40560, Note_on_c, 1, 74, 0
3, 40560, Note_on_c, 1, 74, 100
3, 40800, Note_on_c, 1, 74, 0
3, 40800, Note_on_c, 1, 74, 100
3, 41040, Note_on_c, 1, 74, 0
3, 41040, Note_on_c, 1, 73, 100
3, 41160, Note_on_c, 1, 73, 0
3, 41160, Note_on_c, 1, 71, 100
3, 41280, Note_on_c, 1, 71, 0
3, 41280, Note_on_c, 1, 73, 100
3, 41520, Note_on_c, 1, 73, 0
3, 41760, Note_on_c, 1, 74, 100
3, 42000, Note_on_c, 1, 74, 0
3, 42000, Note_on_c, 1, 69, 100
3, 42240, Note_on_c, 1, 69, 0
3, 42240, Note_on_c, 1, 70, 100
3, 42480, Note_on_c, 1, 70, 0
3, 45600, Note_on_c, 1, 62, 100
3, 45840, Note_on_c, 1, 62, 0
3, 46080, Note_on_c, 1, 64, 100
3, 46320, Note_on_c, 1, 64, 0
3, 46800, Note_on_c, 1, 66, 100
3, 47040, Note_on_c, 1, 66, 0
3, 47040, Note_on_c, 1, 67, 100
3, 47280, Note_on_c, 1, 67, 0
3, 47280, Note_on_c, 1, 67, 100
3, 47520, Note_on_c, 1, 67, 0
3, 47520, Note_on_c, 1, 67, 100
3, 47760, Note_on_c, 1, 67, 0
3, 47760, Note_on_c, 1, 67, 100
3, 48000, Note_on_c, 1, 67, 0
3, 48000, Note_on_c, 1, 67, 100
3, 48240, Note_on_c, 1, 67, 0
3, 48240, Note_on_c, 1, 65, 100
3, 48360, Note_on_c, 1, 65, 0
3, 48360, Note_on_c, 1, 63, 100
3, 48480, Note_on_c, 1, 63, 0
3, 48480, Note_on_c, 1, 65, 100
3, 48720, Note_on_c, 1, 65, 0
3, 48720, Note_on_c, 1, 62, 100
3, 48960, Note_on_c, 1, 62, 0
3, 48960, Note_on_c, 1, 63, 100
3, 49200, Note_on_c, 1, 63, 0
3, 49440, Note_on_c, 1, 64, 100
3, 49680, Note_on_c, 1, 64, 0
3, 49920, Note_on_c, 1, 66, 100
3, 50160, Note_on_c, 1, 66, 0
3, 50400, Note_on_c, 1, 67, 100
3, 50640, Note_on_c, 1, 67, 0
3, 50880, Note_on_c, 1, 67, 100
3, 51120, Note_on_c, 1, 67, 0
3, 51120, Note_on_c, 1, 65, 100
3, 51240, Note_on_c, 1, 65, 0
3, 51240, Note_on_c, 1, 64, 100
3, 51360, Note_on_c, 1, 64, 0
3, 51360, Note_on_c, 1, 65, 100
3, 51600, Note_on_c, 1, 65, 0
3, 51600, Note_on_c, 1, 67, 100
3, 51720, Note_on_c, 1, 67, 0
3, 51720, Note_on_c, 1, 65, 100
3, 51840, Note_on_c, 1, 65, 0
3, 51840, Note_on_c, 1, 64, 100
3, 52080, Note_on_c, 1, 64, 0
3, 52800, Note_on_c, 1, 64, 100
3, 53040, Note_on_c, 1, 64, 0
3, 53280, Note_on_c, 1, 74, 100
3, 53520, Note_on_c, 1, 74, 0
3, 53760, Note_on_c, 1, 74, 100
3, 54000, Note_on_c, 1, 74, 0
3, 54480, Note_on_c, 1, 74, 100
3, 54720, Note_on_c, 1, 74, 0
3, 54720, Note_on_c, 1, 73, 100
3, 54960, Note_on_c, 1, 73, 0
3, 55440, Note_on_c, 1, 74, 100
3, 55680, Note_on_c, 1, 74, 0
3, 55680, Note_on_c, 1, 74, 100
3, 55920, Note_on_c, 1, 74, 0
3, 56160, Note_on_c, 1, 74, 100
3, 56400, Note_on_c, 1, 74, 0
3, 56640, Note_on_c, 1, 74, 100
3, 56880, Note_on_c, 1, 74, 0
3, 57120, Note_on_c, 1, 73, 100
3, 57360, Note_on_c, 1, 73, 0
3, 57600, Note_on_c, 1, 72, 100
3, 57840, Note_on_c, 1, 72, 0
3, 58080, Note_on_c, 1, 71, 100
3, 58320, Note_on_c, 1, 71, 0
3, 58560, Note_on_c, 1, 70, 100
3, 58800, Note_on_c, 1, 70, 0
3, 59040, Note_on_c, 1, 69, 100
3, 59280, Note_on_c, 1, 69, 0
3, 62160, Note_on_c, 1, 79, 100
3, 62400, Note_on_c, 1, 79, 0
3, 62400, Note_on_c, 1, 77, 100
3, 62640, Note_on_c, 1, 77, 0
3, 62880, Note_on_c, 1, 78, 100
3, 63120, Note_on_c, 1, 78, 0
3, 63360, Note_on_c, 1, 79, 100
3, 63600, Note_on_c, 1, 79, 0
3, 63600, Note_on_c, 1, 77, 100
3, 63840, Note_on_c, 1, 77, 0
3, 63840, Note_on_c, 1, 77, 100
3, 64080, Note_on_c, 1, 77, 0
3, 64080, Note_on_c, 1, 76, 100
3, 64320, Note_on_c, 1, 76, 0
3, 64320, Note_on_c, 1, 76, 100
3, 64560, Note_on_c, 1, 76, 0
3, 64560, Note_on_c, 1, 77, 100
3, 64800, Note_on_c, 1, 77, 0
3, 64800, Note_on_c, 1, 77, 100
3, 65040, Note_on_c, 1, 77, 0
3, 65040, Note_on_c, 1, 73, 100
3, 65280, Note_on_c, 1, 73, 0
3, 65280, Note_on_c, 1, 73, 100
3, 65520, Note_on_c, 1, 73, 0
3, 65520, Note_on_c, 1, 69, 100
3, 65760, Note_on_c, 1, 69, 0
3, 65760, Note_on_c, 1, 74, 100
3, 66000, Note_on_c, 1, 74, 0
3, 66000, Note_on_c, 1, 67, 100
3, 66240, Note_on_c, 1, 67, 0
3, 66240, Note_on_c, 1, 69, 100
3, 66480, Note_on_c, 1, 69, 0
3, 66480, Note_on_c, 1, 67, 100
3, 66720, Note_on_c, 1, 67, 0
3, 66720, Note_on_c, 1, 69, 100
3, 66960, Note_on_c, 1, 69, 0
3, 66960, Note_on_c, 1, 65, 100
3, 67200, Note_on_c, 1, 65, 0
3, 67200, Note_on_c, 1, 67, 100
3, 67440, Note_on_c, 1, 67, 0
3, 67440, Note_on_c, 1, 65, 100
3, 67680, Note_on_c, 1, 65, 0
3, 67680, Note_on_c, 1, 67, 100
3, 67920, Note_on_c, 1, 67, 0
3, 67920, Note_on_c, 1, 64, 100
3, 68160, Note_on_c, 1, 64, 0
3, 68160, Note_on_c, 1, 65, 100
3, 68400, Note_on_c, 1, 65, 0
3, 68400, Note_on_c, 1, 64, 100
3, 68640, Note_on_c, 1, 64, 0
3, 68640, Note_on_c, 1, 65, 100
3, 68880, Note_on_c, 1, 65, 0
3, 68880, Note_on_c, 1, 62, 100
3, 69120, Note_on_c, 1, 62, 0
3, 69120, Note_on_c, 1, 64, 100
3, 70080, Note_on_c, 1, 64, 0
3, 70080, Note_on_c, 1, 69, 100
3, 71040, Note_on_c, 1, 69, 0
3, 71040, Note_on_c, 1, 77, 100
3, 71280, Note_on_c, 1, 77, 0
3, 71280, Note_on_c, 1, 76, 100
3, 71520, Note_on_c, 1, 76, 0
3, 71520, Note_on_c, 1, 77, 100
3, 71760, Note_on_c, 1, 77, 0
3, 71760, Note_on_c, 1, 79, 100
3, 72000, Note_on_c, 1, 79, 0
3, 72000, Note_on_c, 1, 81, 100
3, 72240, Note_on_c, 1, 81, 0
3, 72240, Note_on_c, 1, 82, 100
3, 72480, Note_on_c, 1, 82, 0
3, 72480, Note_on_c, 1, 81, 100
3, 72720, Note_on_c, 1, 81, 0
3, 72720, Note_on_c, 1, 79, 100
3, 72960, Note_on_c, 1, 79, 0
3, 72960, Note_on_c, 1, 77, 100
3, 73200, Note_on_c, 1, 77, 0
3, 73200, Note_on_c, 1, 76, 100
3, 73440, Note_on_c, 1, 76, 0
3, 73440, Note_on_c, 1, 77, 100
3, 73680, Note_on_c, 1, 77, 0
3, 73680, Note_on_c, 1, 79, 100
3, 73920, Note_on_c, 1, 79, 0
3, 73920, Note_on_c, 1, 81, 100
3, 74160, Note_on_c, 1, 81, 0
3, 74160, Note_on_c, 1, 79, 100
3, 74400, Note_on_c, 1, 79, 0
3, 74400, Note_on_c, 1, 81, 100
3, 74640, Note_on_c, 1, 81, 0
3, 74640, Note_on_c, 1, 83, 100
3, 74880, Note_on_c, 1, 83, 0
3, 74880, Note_on_c, 1, 85, 100
3, 75120, Note_on_c, 1, 85, 0
3, 75120, Note_on_c, 1, 83, 100
3, 75360, Note_on_c, 1, 83, 0
3, 75360, Note_on_c, 1, 85, 100
3, 75600, Note_on_c, 1, 85, 0
3, 75600, Note_on_c, 1, 86, 100
3, 75840, Note_on_c, 1, 86, 0
3, 75840, Note_on_c, 1, 88, 100
3, 76080, Note_on_c, 1, 88, 0
3, 76080, Note_on_c, 1, 89, 100
3, 76320, Note_on_c, 1, 89, 0
3, 76320, Note_on_c, 1, 88, 100
3, 76560, Note_on_c, 1, 88, 0
3, 76560, Note_on_c, 1, 86, 100
3, 76800, Note_on_c, 1, 86, 0
3, 76800, Note_on_c, 1, 85, 100
3, 77040, Note_on_c, 1, 85, 0
3, 77040, Note_on_c, 1, 83, 100
3, 77280, Note_on_c, 1, 83, 0
3, 77280, Note_on_c, 1, 85, 100
3, 77520, Note_on_c, 1, 85, 0
3, 77520, Note_on_c, 1, 86, 100
3, 77760, Note_on_c, 1, 86, 0
3, 77760, Note_on_c, 1, 88, 100
3, 78000, Note_on_c, 1, 88, 0
3, 78000, Note_on_c, 1, 86, 100
3, 78240, Note_on_c, 1, 86, 0
3, 78240, Note_on_c, 1, 88, 100
3, 78480, Note_on_c, 1, 88, 0
3, 78480, Note_on_c, 1, 85, 100
3, 78720, Note_on_c, 1, 85, 0
3, 78720, Note_on_c, 1, 62, 100
3, 78840, Note_on_c, 1, 62, 0
3, 78840, Note_on_c, 1, 74, 100
3, 78960, Note_on_c, 1, 74, 0
3, 78960, Note_on_c, 1, 77, 100
3, 79080, Note_on_c, 1, 77, 0
3, 79080, Note_on_c, 1, 81, 100
3, 79200, Note_on_c, 1, 81, 0
3, 79200, Note_on_c, 1, 86, 100
3, 79320, Note_on_c, 1, 86, 0
3, 79320, Note_on_c, 1, 81, 100
3, 79440, Note_on_c, 1, 81, 0
3, 79440, Note_on_c, 1, 77, 100
3, 79560, Note_on_c, 1, 77, 0
3, 79560, Note_on_c, 1, 74, 100
3, 79680, Note_on_c, 1, 74, 0
3, 79680, Note_on_c, 1, 69, 100
3, 79800, Note_on_c, 1, 69, 0
3, 79800, Note_on_c, 1, 86, 100
3, 79920, Note_on_c, 1, 86, 0
3, 79920, Note_on_c, 1, 84, 100
3, 80040, Note_on_c, 1, 84, 0
3, 80040, Note_on_c, 1, 82, 100
3, 80160, Note_on_c, 1, 82, 0
3, 80160, Note_on_c, 1, 84, 100
3, 80280, Note_on_c, 1, 84, 0
3, 80280, Note_on_c, 1, 81, 100
3, 80400, Note_on_c, 1, 81, 0
3, 80400, Note_on_c, 1, 78, 100
3, 80520, Note_on_c, 1, 78, 0
3, 80520, Note_on_c, 1, 74, 100
3, 80640, Note_on_c, 1, 74, 0
3, 82560, Note_on_c, 1, 60, 100
3, 82680, Note_on_c, 1, 60, 0
3, 82680, Note_on_c, 1, 72, 100
3, 82800, Note_on_c, 1, 72, 0
3, 82800, Note_on_c, 1, 75, 100
3, 82920, Note_on_c, 1, 75, 0
3, 82920, Note_on_c, 1, 79, 100
3, 83040, Note_on_c, 1, 79, 0
3, 83040, Note_on_c, 1, 84, 100
3, 83160, Note_on_c, 1, 84, 0
3, 83160, Note_on_c, 1, 79, 100
3, 83280, Note_on_c, 1, 79, 0
3, 83280, Note_on_c, 1, 75, 100
3, 83400, Note_on_c, 1, 75, 0
3, 83400, Note_on_c, 1, 72, 100
3, 83520, Note_on_c, 1, 72, 0
3, 83520, Note_on_c, 1, 67, 100
3, 83640, Note_on_c, 1, 67, 0
3, 83640, Note_on_c, 1, 84, 100
3, 83760, Note_on_c, 1, 84, 0
3, 83760, Note_on_c, 1, 82, 100
3, 83880, Note_on_c, 1, 82, 0
3, 83880, Note_on_c, 1, 81, 100
3, 84000, Note_on_c, 1, 81, 0
3, 84000, Note_on_c, 1, 82, 100
3, 84120, Note_on_c, 1, 82, 0
3, 84120, Note_on_c, 1, 79, 100
3, 84240, Note_on_c, 1, 79, 0
3, 84240, Note_on_c, 1, 76, 100
3, 84360, Note_on_c, 1, 76, 0
3, 84360, Note_on_c, 1, 72, 100
3, 84480, Note_on_c, 1, 72, 0
3, 85440, Note_on_c, 1, 63, 100
3, 85560, Note_on_c, 1, 63, 0
3, 85560, Note_on_c, 1, 70, 100
3, 85680, Note_on_c, 1, 70, 0
3, 85680, Note_on_c, 1, 75, 100
3, 85800, Note_on_c, 1, 75, 0
3, 85800, Note_on_c, 1, 77, 100
3, 85920, Note_on_c, 1, 77, 0
3, 85920, Note_on_c, 1, 79, 100
3, 86040, Note_on_c, 1, 79, 0
3, 86040, Note_on_c, 1, 75, 100
3, 86160, Note_on_c, 1, 75, 0
3, 86160, Note_on_c, 1, 72, 100
3, 86280, Note_on_c, 1, 72, 0
3, 86280, Note_on_c, 1, 69, 100
3, 86400, Note_on_c, 1, 69, 0
3, 86880, Note_on_c, 1, 75, 100
3, 87000, Note_on_c, 1, 75, 0
3, 87000, Note_on_c, 1, 72, 100
3, 87120, Note_on_c, 1, 72, 0
3, 87120, Note_on_c, 1, 68, 100
3, 87240, Note_on_c, 1, 68, 0
3, 87240, Note_on_c, 1, 65, 100
3, 87360, Note_on_c, 1, 65, 0
3, 87840, Note_on_c, 1, 72, 100
3, 87960, Note_on_c, 1, 72, 0
3, 87960, Note_on_c, 1, 68, 100
3, 88080, Note_on_c, 1, 68, 0
3, 88080, Note_on_c, 1, 65, 100
3, 88200, Note_on_c, 1, 65, 0
3, 88200, Note_on_c, 1, 62, 100
3, 88320, Note_on_c, 1, 62, 0
3, 89280, Note_on_c, 1, 55, 70
3, 89400, Note_on_c, 1, 55, 0
3, 89400, Note_on_c, 1, 62, 70
3, 89520, Note_on_c, 1, 62, 0
3, 89520, Note_on_c, 1, 65, 70
3, 89640, Note_on_c, 1, 65, 0
3, 89640, Note_on_c, 1, 71, 70
3, 89760, Note_on_c, 1, 71, 0
3, 89760, Note_on_c, 1, 74, 70
3, 89880, Note_on_c, 1, 74, 0
3, 89880, Note_on_c, 1, 71, 70
3, 90000, Note_on_c, 1, 71, 0
3, 90000, Note_on_c, 1, 65, 70
3, 90120, Note_on_c, 1, 65, 0
3, 90120, Note_on_c, 1, 62, 70
3, 90240, Note_on_c, 1, 62, 0
3, 91200, Note_on_c, 1, 55, 70
3, 91320, Note_on_c, 1, 55, 0
3, 91320, Note_on_c, 1, 60, 70
3, 91440, Note_on_c, 1, 60, 0
3, 91440, Note_on_c, 1, 63, 70
3, 91560, Note_on_c, 1, 63, 0
3, 91560, Note_on_c, 1, 67, 70
3, 91680, Note_on_c, 1, 67, 0
3, 91680, Note_on_c, 1, 72, 70
3, 91800, Note_on_c, 1, 72, 0
3, 91800, Note_on_c, 1, 67, 70
3, 91920, Note_on_c, 1, 67, 0
3, 91920, Note_on_c, 1, 63, 70
3, 92040, Note_on_c, 1, 63, 0
3, 92040, Note_on_c, 1, 60, 70
3, 92160, Note_on_c, 1, 60, 0
3, 93120, Note_on_c, 1, 56, 70
3, 93240, Note_on_c, 1, 56, 0
3, 93240, Note_on_c, 1, 60, 70
3, 93360, Note_on_c, 1, 60, 0
3, 93360, Note_on_c, 1, 63, 70
3, 93480, Note_on_c, 1, 63, 0
3, 93480, Note_on_c, 1, 67, 70
3, 93600, Note_on_c, 1, 67, 0
3, 93600, Note_on_c, 1, 72, 70
3, 93720, Note_on_c, 1, 72, 0
3, 93720, Note_on_c, 1, 67, 70
3, 93840, Note_on_c, 1, 67, 0
3, 93840, Note_on_c, 1, 63, 70
3, 93960, Note_on_c, 1, 63, 0
3, 93960, Note_on_c, 1, 60, 70
3, 94080, Note_on_c, 1, 60, 0
3, 95040, Note_on_c, 1, 57, 70
3, 95160, Note_on_c, 1, 57, 0
3, 95160, Note_on_c, 1, 62, 70
3, 95280, Note_on_c, 1, 62, 0
3, 95280, Note_on_c, 1, 66, 70
3, 95400, Note_on_c, 1, 66, 0
3, 95400, Note_on_c, 1, 69, 70
3, 95520, Note_on_c, 1, 69, 0
3, 95520, Note_on_c, 1, 72, 70
3, 95640, Note_on_c, 1, 72, 0
3, 95640, Note_on_c, 1, 69, 70
3, 95760, Note_on_c, 1, 69, 0
3, 95760, Note_on_c, 1, 66, 70
3, 95880, Note_on_c, 1, 66, 0
3, 95880, Note_on_c, 1, 62, 70
3, 96000, Note_on_c, 1, 62, 0
3, 97920, Note_on_c, 1, 62, 100
3, 98160, Note_on_c, 1, 62, 0
3, 98160, Note_on_c, 1, 67, 100
3, 98400, Note_on_c, 1, 67, 0
3, 98400, Note_on_c, 1, 67, 100
3, 98640, Note_on_c, 1, 67, 0
3, 98640, Note_on_c, 1, 67, 100
3, 98880, Note_on_c, 1, 67, 0
3, 98880, Note_on_c, 1, 67, 100
3, 99120, Note_on_c, 1, 67, 0
3, 99120, Note_on_c, 1, 65, 100
3, 99240, Note_on_c, 1, 65, 0
3, 99240, Note_on_c, 1, 63, 100
3, 99360, Note_on_c, 1, 63, 0
3, 99360, Note_on_c, 1, 65, 100
3, 99600, Note_on_c, 1, 65, 0
3, 99600, Note_on_c, 1, 62, 100
3, 99840, Note_on_c, 1, 62, 0
3, 99840, Note_on_c, 1, 63, 100
3, 99960, Note_on_c, 1, 63, 0
3, 99960, Note_on_c, 1, 74, 100
3, 100080, Note_on_c, 1, 74, 0
3, 100080, Note_on_c, 1, 79, 100
3, 100200, Note_on_c, 1, 79, 0
3, 100200, Note_on_c, 1, 71, 100
3, 100320, Note_on_c, 1, 71, 0
3, 100560, Note_on_c, 1, 63, 100
3, 100800, Note_on_c, 1, 63, 0
3, 100800, Note_on_c, 1, 62, 100
3, 101040, Note_on_c, 1, 62, 0
3, 101280, Note_on_c, 1, 67, 100
3, 101520, Note_on_c, 1, 67, 0
3, 101760, Note_on_c, 1, 60, 100
3, 102000, Note_on_c, 1, 60, 0
3, 102240, Note_on_c, 1, 56, 100
3, 102480, Note_on_c, 1, 56, 0
3, 102720, Note_on_c, 1, 57, 100
3, 102960, Note_on_c, 1, 57, 0
3, 103200, Note_on_c, 1, 55, 100
3, 103440, Note_on_c, 1, 55, 0
3, 103680, Note_on_c, 1, 60, 100
3, 103920, Note_on_c, 1, 60, 0
3, 107760, Note_on_c, 1, 77, 100
3, 108000, Note_on_c, 1, 77, 0
3, 108000, Note_on_c, 1, 77, 100
3, 108240, Note_on_c, 1, 77, 0
3, 108240, Note_on_c, 1, 77, 100
3, 108480, Note_on_c, 1, 77, 0
3, 108480, Note_on_c, 1, 77, 100
3, 108720, Note_on_c, 1, 77, 0
3, 108720, Note_on_c, 1, 75, 100
3, 108840, Note_on_c, 1, 75, 0
3, 108840, Note_on_c, 1, 74, 100
3, 108960, Note_on_c, 1, 74, 0
3, 108960, Note_on_c, 1, 75, 100
3, 109200, Note_on_c, 1, 75, 0
3, 109200, Note_on_c, 1, 72, 100
3, 109320, Note_on_c, 1, 72, 0
3, 109320, Note_on_c, 1, 74, 100
3, 109380, Note_on_c, 1, 74, 0
3, 109380, Note_on_c, 1, 75, 100
3, 109440, Note_on_c, 1, 75, 0
3, 109440, Note_on_c, 1, 74, 100
3, 109680, Note_on_c, 1, 74, 0
3, 109680, Note_on_c, 1, 82, 100
3, 109920, Note_on_c, 1, 82, 0
3, 109920, Note_on_c, 1, 82, 100
3, 110160, Note_on_c, 1, 82, 0
3, 110160, Note_on_c, 1, 82, 100
3, 110400, Note_on_c, 1, 82, 0
3, 110400, Note_on_c, 1, 82, 100
3, 110640, Note_on_c, 1, 82, 0
3, 110640, Note_on_c, 1, 81, 100
3, 110760, Note_on_c, 1, 81, 0
3, 110760, Note_on_c, 1, 79, 100
3, 110880, Note_on_c, 1, 79, 0
3, 110880, Note_on_c, 1, 81, 100
3, 111120, Note_on_c, 1, 81, 0
3, 111120, Note_on_c, 1, 83, 100
3, 111360, Note_on_c, 1, 83, 0
3, 111360, Note_on_c, 1, 84, 100
3, 111600, Note_on_c, 1, 84, 0
3, 111600, Note_on_c, 1, 84, 100
3, 111840, Note_on_c, 1, 84, 0
3, 111840, Note_on_c, 1, 84, 100
3, 112080, Note_on_c, 1, 84, 0
3, 112080, Note_on_c, 1, 84, 100
3, 112320, Note_on_c, 1, 84, 0
3, 112320, Note_on_c, 1, 84, 100
3, 112560, Note_on_c, 1, 84, 0
3, 112560, Note_on_c, 1, 82, 100
3, 112680, Note_on_c, 1, 82, 0
3, 112680, Note_on_c, 1, 81, 100
3, 112800, Note_on_c, 1, 81, 0
3, 112800, Note_on_c, 1, 82, 100
3, 113040, Note_on_c, 1, 82, 0
3, 113040, Note_on_c, 1, 84, 100
3, 113160, Note_on_c, 1, 84, 0
3, 113160, Note_on_c, 1, 79, 100
3, 113280, Note_on_c, 1, 79, 0
3, 113280, Note_on_c, 1, 81, 100
3, 113520, Note_on_c, 1, 81, 0
3, 113520, Note_on_c, 1, 82, 100
3, 113640, Note_on_c, 1, 82, 0
3, 113640, Note_on_c, 1, 77, 100
3, 113760, Note_on_c, 1, 77, 0
3, 113760, Note_on_c, 1, 79, 100
3, 114000, Note_on_c, 1, 79, 0
3, 114000, Note_on_c, 1, 81, 100
3, 114120, Note_on_c, 1, 81, 0
3, 114120, Note_on_c, 1, 79, 100
3, 114240, Note_on_c, 1, 79, 0
3, 114240, Note_on_c, 1, 77, 100
3, 114480, Note_on_c, 1, 77, 0
3, 114480, Note_on_c, 1, 79, 100
3, 114600, Note_on_c, 1, 79, 0
3, 114600, Note_on_c, 1, 74, 100
3, 114720, Note_on_c, 1, 74, 0
3, 114720, Note_on_c, 1, 75, 100
3, 114840, Note_on_c, 1, 75, 0
3, 114840, Note_on_c, 1, 72, 100
3, 114960, Note_on_c, 1, 72, 0
3, 114960, Note_on_c, 1, 69, 100
3, 115080, Note_on_c, 1, 69, 0
3, 115080, Note_on_c, 1, 65, 100
3, 115200, Note_on_c, 1, 65, 0
3, 115200, Note_on_c, 1, 58, 100
3, 115440, Note_on_c, 1, 58, 0
3, 115440, Note_on_c, 1, 58, 100
3, 115680, Note_on_c, 1, 58, 0
3, 115680, Note_on_c, 1, 58, 100
3, 115920, Note_on_c, 1, 58, 0
3, 115920, Note_on_c, 1, 57, 100
3, 116160, Note_on_c, 1, 57, 0
3, 116160, Note_on_c, 1, 55, 100
3, 116400, Note_on_c, 1, 55, 0
3, 116640, Note_on_c, 1, 57, 100
3, 116880, Note_on_c, 1, 57, 0
3, 116880, Note_on_c, 1, 58, 100
3, 117120, Note_on_c, 1, 58, 0
3, 117120, Note_on_c, 1, 60, 100
3, 117360, Note_on_c, 1, 60, 0
3, 117360, Note_on_c, 1, 62, 100
3, 117600, Note_on_c, 1, 62, 0
3, 117600, Note_on_c, 1, 62, 100
3, 117840, Note_on_c, 1, 62, 0
3, 117840, Note_on_c, 1, 62, 100
3, 118080, Note_on_c, 1, 62, 0
3, 118080, Note_on_c, 1, 62, 100
3, 118320, Note_on_c, 1, 62, 0
3, 118560, Note_on_c, 1, 65, 100
3, 118800, Note_on_c, 1, 65, 0
3, 118800, Note_on_c, 1, 65, 100
3, 119040, Note_on_c, 1, 65, 0
3, 120960, Note_on_c, 1, 58, 100
3, 121080, Note_on_c, 1, 58, 0
3, 121080, Note_on_c, 1, 74, 100
3, 121200, Note_on_c, 1, 74, 0
3, 121200, Note_on_c, 1, 72, 100
3, 121320, Note_on_c, 1, 72, 0
3, 121320, Note_on_c, 1, 74, 100
3, 121440, Note_on_c, 1, 74, 0
3, 121440, Note_on_c, 1, 70, 100
3, 121560, Note_on_c, 1, 70, 0
3, 121560, Note_on_c, 1, 74, 100
3, 121680, Note_on_c, 1, 74, 0
3, 121680, Note_on_c, 1, 69, 100
3, 121800, Note_on_c, 1, 69, 0
3, 121800, Note_on_c, 1, 74, 100
3, 121920, Note_on_c, 1, 74, 0
3, 121920, Note_on_c, 1, 67, 100
3, 122040, Note_on_c, 1, 67, 0
3, 122040, Note_on_c, 1, 74, 100
3, 122160, Note_on_c, 1, 74, 0
3, 122160, Note_on_c, 1, 65, 100
3, 122280, Note_on_c, 1, 65, 0
3, 122280, Note_on_c, 1, 74, 100
3, 122400, Note_on_c, 1, 74, 0
3, 122400, Note_on_c, 1, 63, 100
3, 122520, Note_on_c, 1, 63, 0
3, 122520, Note_on_c, 1, 74, 100
3, 122640, Note_on_c, 1, 74, 0
3, 122640, Note_on_c, 1, 62, 100
3, 122760, Note_on_c, 1, 62, 0
3, 122760, Note_on_c, 1, 74, 100
3, 122880, Note_on_c, 1, 74, 0
3, 124800, Note_on_c, 1, 62, 100
3, 124920, Note_on_c, 1, 62, 0
3, 124920, Note_on_c, 1, 72, 100
3, 125040, Note_on_c, 1, 72, 0
3, 125040, Note_on_c, 1, 81, 100
3, 125160, Note_on_c, 1, 81, 0
3, 125160, Note_on_c, 1, 72, 100
3, 125280, Note_on_c, 1, 72, 0
3, 125280, Note_on_c, 1, 70, 100
3, 125400, Note_on_c, 1, 70, 0
3, 125400, Note_on_c, 1, 69, 100
3, 125520, Note_on_c, 1, 69, 0
3, 125520, Note_on_c, 1, 70, 100
3, 125640, Note_on_c, 1, 70, 0
3, 125640, Note_on_c, 1, 67, 100
3, 125760, Note_on_c, 1, 67, 0
3, 125760, Note_on_c, 1, 69, 100
3, 125880, Note_on_c, 1, 69, 0
3, 125880, Note_on_c, 1, 62, 100
3, 126000, Note_on_c, 1, 62, 0
3, 126000, Note_on_c, 1, 77, 100
3, 126120, Note_on_c, 1, 77, 0
3, 126120, Note_on_c, 1, 68, 100
3, 126240, Note_on_c, 1, 68, 0
3, 126240, Note_on_c, 1, 67, 100
3, 126360, Note_on_c, 1, 67, 0
3, 126360, Note_on_c, 1, 65, 100
3, 126480, Note_on_c, 1, 65, 0
3, 126480, Note_on_c, 1, 67, 100
3, 126600, Note_on_c, 1, 67, 0
3, 126600, Note_on_c, 1, 63, 100
3, 126720, Note_on_c, 1, 63, 0
3, 130560, Note_on_c, 1, 62, 100
3, 130680, Note_on_c, 1, 62, 0
3, 130680, Note_on_c, 1, 72, 100
3, 130800, Note_on_c, 1, 72, 0
3, 130800, Note_on_c, 1, 78, 100
3, 130920, Note_on_c, 1, 78, 0
3, 130920, Note_on_c, 1, 72, 100
3, 131040, Note_on_c, 1, 72, 0
3, 131040, Note_on_c, 1, 78, 100
3, 131160, Note_on_c, 1, 78, 0
3, 131160, Note_on_c, 1, 72, 100
3, 131280, Note_on_c, 1, 72, 0
3, 131280, Note_on_c, 1, 81, 100
3, 131400, Note_on_c, 1, 81, 0
3, 131400, Note_on_c, 1, 72, 100
3, 131520, Note_on_c, 1, 72, 0
3, 132480, Note_on_c, 1, 62, 100
3, 132600, Note_on_c, 1, 62, 0
3, 132600, Note_on_c, 1, 70, 100
3, 132720, Note_on_c, 1, 70, 0
3, 132720, Note_on_c, 1, 74, 100
3, 132840, Note_on_c, 1, 74, 0
3, 132840, Note_on_c, 1, 70, 100
3, 132960, Note_on_c, 1, 70, 0
3, 132960, Note_on_c, 1, 74, 100
3, 133080, Note_on_c, 1, 74, 0
3, 133080, Note_on_c, 1, 70, 100
3, 133200, Note_on_c, 1, 70, 0
3, 133200, Note_on_c, 1, 79, 100
3, 133320, Note_on_c, 1, 79, 0
3, 133320, Note_on_c, 1, 70, 100
3, 133440, Note_on_c, 1, 70, 0
3, 134400, Note_on_c, 1, 62, 100
3, 134520, Note_on_c, 1, 62, 0
3, 134520, Note_on_c, 1, 69, 100
3, 134640, Note_on_c, 1, 69, 0
3, 134640, Note_on_c, 1, 78, 100
3, 134760, Note_on_c, 1, 78, 0
3, 134760, Note_on_c, 1, 74, 100
3, 134880, Note_on_c, 1, 74, 0
3, 134880, Note_on_c, 1, 78, 100
3, 135000, Note_on_c, 1, 78, 0
3, 135000, Note_on_c, 1, 74, 100
3, 135120, Note_on_c, 1, 74, 0
3, 135120, Note_on_c, 1, 84, 100
3, 135240, Note_on_c, 1, 84, 0
3, 135240, Note_on_c, 1, 74, 100
3, 135360, Note_on_c, 1, 74, 0
3, 136320, Note_on_c, 1, 62, 100
3, 136440, Note_on_c, 1, 62, 0
3, 136440, Note_on_c, 1, 74, 100
3, 136560, Note_on_c, 1, 74, 0
3, 136560, Note_on_c, 1, 79, 100
3, 136680, Note_on_c, 1, 79, 0
3, 136680, Note_on_c, 1, 74, 100
3, 136800, Note_on_c, 1, 74, 0
3, 136800, Note_on_c, 1, 79, 100
3, 136920, Note_on_c, 1, 79, 0
3, 136920, Note_on_c, 1, 74, 100
3, 137040, Note_on_c, 1, 74, 0
3, 137040, Note_on_c, 1, 82, 100
3, 137160, Note_on_c, 1, 82, 0
3, 137160, Note_on_c, 1, 74, 100
3, 137280, Note_on_c, 1, 74, 0
3, 138240, Note_on_c, 1, 62, 100
3, 138360, Note_on_c, 1, 62, 0
3, 138360, Note_on_c, 1, 73, 100
3, 138480, Note_on_c, 1, 73, 0
3, 138480, Note_on_c, 1, 76, 100
3, 138600, Note_on_c, 1, 76, 0
3, 138600, Note_on_c, 1, 73, 100
3, 138720, Note_on_c, 1, 73, 0
3, 138720, Note_on_c, 1, 76, 100
3, 138840, Note_on_c, 1, 76, 0
3, 138840, Note_on_c, 1, 73, 100
3, 138960, Note_on_c, 1, 73, 0
3, 138960, Note_on_c, 1, 82, 100
3, 139080, Note_on_c, 1, 82, 0
3, 139080, Note_on_c, 1, 73, 100
3, 139200, Note_on_c, 1, 73, 0
3, 140040, Note_on_c, 1, 79, 100
3, 140160, Note_on_c, 1, 79, 0
3, 140160, Note_on_c, 1, 79, 100
3, 140280, Note_on_c, 1, 79, 0
3, 140280, Note_on_c, 1, 78, 100
3, 140400, Note_on_c, 1, 78, 0
3, 140400, Note_on_c, 1, 76, 100
3, 140520, Note_on_c, 1, 76, 0
3, 140520, Note_on_c, 1, 74, 100
3, 140640, Note_on_c, 1, 74, 0
3, 140640, Note_on_c, 1, 86, 100
3, 140880, Note_on_c, 1, 86, 0
3, 140880, Note_on_c, 1, 86, 100
3, 141120, Note_on_c, 1, 86, 0
3, 141120, Note_on_c, 1, 86, 100
3, 141360, Note_on_c, 1, 86, 0
3, 141360, Note_on_c, 1, 84, 100
3, 141480, Note_on_c, 1, 84, 0
3, 141480, Note_on_c, 1, 82, 100
3, 141600, Note_on_c, 1, 82, 0
3, 141600, Note_on_c, 1, 84, 100
3, 141840, Note_on_c, 1, 84, 0
3, 141840, Note_on_c, 1, 84, 100
3, 142080, Note_on_c, 1, 84, 0
3, 142080, Note_on_c, 1, 84, 100
3, 142320, Note_on_c, 1, 84, 0
3, 142320, Note_on_c, 1, 82, 100
3, 142440, Note_on_c, 1, 82, 0
3, 142440, Note_on_c, 1, 81, 100
3, 142560, Note_on_c, 1, 81, 0
3, 142560, Note_on_c, 1, 82, 100
3, 142800, Note_on_c, 1, 82, 0
3, 142800, Note_on_c, 1, 82, 100
3, 143040, Note_on_c, 1, 82, 0
3, 143040, Note_on_c, 1, 82, 100
3, 143280, Note_on_c, 1, 82, 0
3, 143280, Note_on_c, 1, 81, 100
3, 143520, Note_on_c, 1, 81, 0
3, 143520, Note_on_c, 1, 81, 100
3, 143760, Note_on_c, 1, 81, 0
3, 143760, Note_on_c, 1, 79, 100
3, 144000, Note_on_c, 1, 79, 0
3, 144000, Note_on_c, 1, 78, 100
3, 144240, Note_on_c, 1, 78, 0
3, 144240, Note_on_c, 1, 79, 100
3, 144480, Note_on_c, 1, 79, 0
3, 144480, Note_on_c, 1, 79, 100
3, 144720, Note_on_c, 1, 79, 0
3, 144720, Note_on_c, 1, 76, 100
3, 144960, Note_on_c, 1, 76, 0
3, 144960, Note_on_c, 1, 76, 100
3, 145200, Note_on_c, 1, 76, 0
3, 145200, Note_on_c, 1, 77, 100
3, 145440, Note_on_c, 1, 77, 0
3, 145440, Note_on_c, 1, 77, 100
3, 145680, Note_on_c, 1, 77, 0
3, 145680, Note_on_c, 1, 74, 100
3, 145920, Note_on_c, 1, 74, 0
3, 145920, Note_on_c, 1, 74, 100
3, 146160, Note_on_c, 1, 74, 0
3, 146160, Note_on_c, 1, 75, 100
3, 146280, Note_on_c, 1, 75, 0
3, 146280, Note_on_c, 1, 74, 100
3, 146400, Note_on_c, 1, 74, 0
3, 146400, Note_on_c, 1, 75, 100
3, 146520, Note_on_c, 1, 75, 0
3, 146520, Note_on_c, 1, 79, 100
3, 146640, Note_on_c, 1, 79, 0
3, 146640, Note_on_c, 1, 82, 100
3, 146760, Note_on_c, 1, 82, 0
3, 146760, Note_on_c, 1, 74, 100
3, 146880, Note_on_c, 1, 74, 0
3, 146880, Note_on_c, 1, 73, 100
3, 147000, Note_on_c, 1, 73, 0
3, 147000, Note_on_c, 1, 76, 100
3, 147120, Note_on_c, 1, 76, 0
3, 147120, Note_on_c, 1, 81, 100
3, 147240, Note_on_c, 1, 81, 0
3, 147240, Note_on_c, 1, 73, 100
3, 147360, Note_on_c, 1, 73, 0
3, 147360, Note_on_c, 1, 74, 100
3, 147480, Note_on_c, 1, 74, 0
3, 147480, Note_on_c, 1, 77, 100
3, 147600, Note_on_c, 1, 77, 0
3, 147600, Note_on_c, 1, 81, 100
3, 147720, Note_on_c, 1, 81, 0
3, 147720, Note_on_c, 1, 72, 100
3, 147840, Note_on_c, 1, 72, 0
3, 147840, Note_on_c, 1, 71, 100
3, 147960, Note_on_c, 1, 71, 0
3, 147960, Note_on_c, 1, 80, 100
3, 148080, Note_on_c, 1, 80, 0
3, 148080, Note_on_c, 1, 79, 100
3, 148200, Note_on_c, 1, 79, 0
3, 148200, Note_on_c, 1, 77, 100
3, 148320, Note_on_c, 1, 77, 0
3, 148320, Note_on_c, 1, 79, 100
3, 148440, Note_on_c, 1, 79, 0
3, 148440, Note_on_c, 1, 74, 100
3, 148560, Note_on_c, 1, 74, 0
3, 148560, Note_on_c, 1, 75, 100
3, 148680, Note_on_c, 1, 75, 0
3, 148680, Note_on_c, 1, 71, 100
3, 148800, Note_on_c, 1, 71, 0
3, 148800, Note_on_c, 1, 72, 100
3, 148920, Note_on_c, 1, 72, 0
3, 148920, Note_on_c, 1, 80, 100
3, 149040, Note_on_c, 1, 80, 0
3, 149040, Note_on_c, 1, 79, 100
3, 149160, Note_on_c, 1, 79, 0
3, 149160, Note_on_c, 1, 77, 100
3, 149280, Note_on_c, 1, 77, 0
3, 149280, Note_on_c, 1, 79, 100
3, 149400, Note_on_c, 1, 79, 0
3, 149400, Note_on_c, 1, 74, 100
3, 149520, Note_on_c, 1, 74, 0
3, 149520, Note_on_c, 1, 75, 100
3, 149640, Note_on_c, 1, 75, 0
3, 149640, Note_on_c, 1, 72, 100
3, 149760, Note_on_c, 1, 72, 0
3, 149760, Note_on_c, 1, 66, 100
3, 149880, Note_on_c, 1, 66, 0
3, 149880, Note_on_c, 1, 69, 100
3, 150000, Note_on_c, 1, 69, 0
3, 150000, Note_on_c, 1, 72, 100
3, 150120, Note_on_c, 1, 72, 0
3, 150120, Note_on_c, 1, 75, 100
3, 150240, Note_on_c, 1, 75, 0
3, 150240, Note_on_c, 1, 74, 100
3, 150360, Note_on_c, 1, 74, 0
3, 150360, Note_on_c, 1, 72, 100
3, 150480, Note_on_c, 1, 72, 0
3, 150480, Note_on_c, 1, 81, 100
3, 150600, Note_on_c, 1, 81, 0
3, 150600, Note_on_c, 1, 72, 100
3, 150720, Note_on_c, 1, 72, 0
3, 150720, Note_on_c, 1, 74, 100
3, 150840, Note_on_c, 1, 74, 0
3, 150840, Note_on_c, 1, 75, 100
3, 150960, Note_on_c, 1, 75, 0
3, 150960, Note_on_c, 1, 69, 100
3, 151080, Note_on_c, 1, 69, 0
3, 151080, Note_on_c, 1, 70, 100
3, 151200, Note_on_c, 1, 70, 0
3, 151200, Note_on_c, 1, 72, 100
3, 151320, Note_on_c, 1, 72, 0
3, 151320, Note_on_c, 1, 66, 100
3, 151440, Note_on_c, 1, 66, 0
3, 151440, Note_on_c, 1, 67, 100
3, 151560, Note_on_c, 1, 67, 0
3, 151560, Note_on_c, 1, 69, 100
3, 151680, Note_on_c, 1, 69, 0
3, 152160, Note_on_c, 1, 65, 100
3, 152400, Note_on_c, 1, 65, 0
3, 152640, Note_on_c, 1, 63, 100
3, 152880, Note_on_c, 1, 63, 0
3, 152880, Note_on_c, 1, 63, 100
3, 153000, Note_on_c, 1, 63, 0
3, 153000, Note_on_c, 1, 62, 100
3, 153120, Note_on_c, 1, 62, 0
3, 153120, Note_on_c, 1, 63, 100
3, 153360, Note_on_c, 1, 63, 0
3, 153600, Note_on_c, 1, 66, 100
3, 153840, Note_on_c, 1, 66, 0
3, 153840, Note_on_c, 1, 69, 100
3, 153960, Note_on_c, 1, 69, 0
3, 153960, Note_on_c, 1, 67, 100
3, 154080, Note_on_c, 1, 67, 0
3, 154080, Note_on_c, 1, 69, 100
3, 154320, Note_on_c, 1, 69, 0
3, 154560, Note_on_c, 1, 69, 100
3, 154800, Note_on_c, 1, 69, 0
3, 154800, Note_on_c, 1, 67, 100
3, 154920, Note_on_c, 1, 67, 0
3, 154920, Note_on_c, 1, 66, 100
3, 155040, Note_on_c, 1, 66, 0
3, 155040, Note_on_c, 1, 67, 100
3, 155280, Note_on_c, 1, 67, 0
3, 155520, Note_on_c, 1, 73, 100
3, 155880, Note_on_c, 1, 73, 0
3, 156480, Note_on_c, 1, 72, 100
3, 156720, Note_on_c, 1, 72, 0
3, 156720, Note_on_c, 1, 70, 100
3, 156960, Note_on_c, 1, 70, 0
3, 156960, Note_on_c, 1, 70, 100
3, 157200, Note_on_c, 1, 70, 0
3, 157200, Note_on_c, 1, 70, 100
3, 157440, Note_on_c, 1, 70, 0
3, 157440, Note_on_c, 1, 69, 100
3, 157680, Note_on_c, 1, 69, 0
3, 157920, Note_on_c, 1, 69, 100
3, 158160, Note_on_c, 1, 69, 0
3, 158400, Note_on_c, 1, 74, 100
3, 158640, Note_on_c, 1, 74, 0
3, 163920, Note_on_c, 1, 64, 100
3, 164160, Note_on_c, 1, 64, 0
3, 165120, Note_on_c, 1, 55, 100
3, 165240, Note_on_c, 1, 55, 0
3, 165240, Note_on_c, 1, 67, 100
3, 165360, Note_on_c, 1, 67, 0
3, 165360, Note_on_c, 1, 70, 100
3, 165480, Note_on_c, 1, 70, 0
3, 165480, Note_on_c, 1, 74, 100
3, 165600, Note_on_c, 1, 74, 0
3, 165600, Note_on_c, 1, 79, 100
3, 165720, Note_on_c, 1, 79, 0
3, 165720, Note_on_c, 1, 74, 100
3, 165840, Note_on_c, 1, 74, 0
3, 165840, Note_on_c, 1, 70, 100
3, 165960, Note_on_c, 1, 70, 0
3, 165960, Note_on_c, 1, 67, 100
3, 166080, Note_on_c, 1, 67, 0
3, 166080, Note_on_c, 1, 69, 100
3, 166200, Note_on_c, 1, 69, 0
3, 166200, Note_on_c, 1, 79, 100
3, 166320, Note_on_c, 1, 79, 0
3, 166320, Note_on_c, 1, 77, 100
3, 166440, Note_on_c, 1, 77, 0
3, 166440, Note_on_c, 1, 75, 100
3, 166560, Note_on_c, 1, 75, 0
3, 166560, Note_on_c, 1, 77, 100
3, 166680, Note_on_c, 1, 77, 0
3, 166680, Note_on_c, 1, 74, 100
3, 166800, Note_on_c, 1, 74, 0
3, 166800, Note_on_c, 1, 71, 100
3, 166920, Note_on_c, 1, 71, 0
3, 166920, Note_on_c, 1, 67, 100
3, 167040, Note_on_c, 1, 67, 0
3, 168960, Note_on_c, 1, 55, 100
3, 169080, Note_on_c, 1, 55, 0
3, 169080, Note_on_c, 1, 63, 100
3, 169200, Note_on_c, 1, 63, 0
3, 169200, Note_on_c, 1, 67, 100
3, 169320, Note_on_c, 1, 67, 0
3, 169320, Note_on_c, 1, 71, 100
3, 169440, Note_on_c, 1, 71, 0
3, 169440, Note_on_c, 1, 72, 100
3, 169560, Note_on_c, 1, 72, 0
3, 169560, Note_on_c, 1, 75, 100
3, 169680, Note_on_c, 1, 75, 0
3, 169680, Note_on_c, 1, 68, 100
3, 169800, Note_on_c, 1, 68, 0
3, 169800, Note_on_c, 1, 67, 100
3, 169920, Note_on_c, 1, 67, 0
3, 170880, Note_on_c, 1, 58, 100
3, 171000, Note_on_c, 1, 58, 0
3, 171000, Note_on_c, 1, 62, 100
3, 171120, Note_on_c, 1, 62, 0
3, 171120, Note_on_c, 1, 67, 100
3, 171240, Note_on_c, 1, 67, 0
3, 171240, Note_on_c, 1, 70, 100
3, 171360, Note_on_c, 1, 70, 0
3, 171360, Note_on_c, 1, 74, 100
3, 171480, Note_on_c, 1, 74, 0
3, 171480, Note_on_c, 1, 78, 100
3, 171600, Note_on_c, 1, 78, 0
3, 171600, Note_on_c, 1, 79, 100
3, 171720, Note_on_c, 1, 79, 0
3, 171720, Note_on_c, 1, 82, 100
3, 171840, Note_on_c, 1, 82, 0
3, 172800, Note_on_c, 1, 62, 100
3, 172920, Note_on_c, 1, 62, 0
3, 172920, Note_on_c, 1, 84, 100
3, 173040, Note_on_c, 1, 84, 0
3, 173040, Note_on_c, 1, 82, 100
3, 173160, Note_on_c, 1, 82, 0
3, 173160, Note_on_c, 1, 74, 100
3, 173280, Note_on_c, 1, 74, 0
3, 173280, Note_on_c, 1, 73, 100
3, 173400, Note_on_c, 1, 73, 0
3, 173400, Note_on_c, 1, 82, 100
3, 173520, Note_on_c, 1, 82, 0
3, 173520, Note_on_c, 1, 81, 100
3, 173640, Note_on_c, 1, 81, 0
3, 173640, Note_on_c, 1, 72, 100
3, 173760, Note_on_c, 1, 72, 0
3, 173760, Note_on_c, 1, 71, 100
3, 173880, Note_on_c, 1, 71, 0
3, 173880, Note_on_c, 1, 81, 100
3, 174000, Note_on_c, 1, 81, 0
3, 174000, Note_on_c, 1, 79, 100
3, 174120, Note_on_c, 1, 79, 0
3, 174120, Note_on_c, 1, 70, 100
3, 174240, Note_on_c, 1, 70, 0
3, 174240, Note_on_c, 1, 69, 100
3, 174360, Note_on_c, 1, 69, 0
3, 174360, Note_on_c, 1, 79, 100
3, 174480, Note_on_c, 1, 79, 0
3, 174480, Note_on_c, 1, 77, 100
3, 174600, Note_on_c, 1, 77, 0
3, 174600, Note_on_c, 1, 68, 100
3, 174720, Note_on_c, 1, 68, 0
3, 174720, Note_on_c, 1, 67, 100
3, 174840, Note_on_c, 1, 67, 0
3, 174840, Note_on_c, 1, 77, 100
3, 174960, Note_on_c, 1, 77, 0
3, 174960, Note_on_c, 1, 75, 100
3, 175080, Note_on_c, 1, 75, 0
3, 175080, Note_on_c, 1, 67, 100
3, 175200, Note_on_c, 1, 67, 0
3, 175200, Note_on_c, 1, 66, 100
3, 175320, Note_on_c, 1, 66, 0
3, 175320, Note_on_c, 1, 75, 100
3, 175440, Note_on_c, 1, 75, 0
3, 175440, Note_on_c, 1, 74, 100
3, 175560, Note_on_c, 1, 74, 0
3, 175560, Note_on_c, 1, 65, 100
3, 175680, Note_on_c, 1, 65, 0
3, 175680, Note_on_c, 1, 64, 100
3, 175800, Note_on_c, 1, 64, 0
3, 175800, Note_on_c, 1, 74, 100
3, 175920, Note_on_c, 1, 74, 0
3, 175920, Note_on_c, 1, 72, 100
3, 176040, Note_on_c, 1, 72, 0
3, 176040, Note_on_c, 1, 71, 100
3, 176160, Note_on_c, 1, 71, 0
3, 176160, Note_on_c, 1, 72, 100
3, 176280, Note_on_c, 1, 72, 0
3, 176280, Note_on_c, 1, 63, 100
3, 176400, Note_on_c, 1, 63, 0
3, 176400, Note_on_c, 1, 62, 100
3, 176520, Note_on_c, 1, 62, 0
3, 176520, Note_on_c, 1, 60, 100
3, 176640, Note_on_c, 1, 60, 0
3, 176640, Note_on_c, 1, 62, 100
3, 177360, Note_on_c, 1, 62, 0
3, 178560, Note_on_c, 1, 62, 100
3, 178800, Note_on_c, 1, 62, 0
3, 179520, Note_on_c, 1, 62, 100
3, 180480, Note_on_c, 1, 62, 0
3, 180480, End_track
4, 0, Start_track
4, 0, MIDI_port, 0
4, 0, Title_t, "Johann Sebastian Bach  (1685-1750)"
4, 0, Program_c, 2, 40
4, 0, Control_c, 2, 7, 100
4, 0, Control_c, 2, 10, 79
4, 2160, Note_on_c, 2, 67, 100
4, 2400, Note_on_c, 2, 67, 0
4, 2400, Note_on_c, 2, 67, 100
4, 2640, Note_on_c, 2, 67, 0
4, 2640, Note_on_c, 2, 67, 100
4, 2880, Note_on_c, 2, 67, 0
4, 2880, Note_on_c, 2, 67, 100
4, 3120, Note_on_c, 2, 67, 0
4, 3120, Note_on_c, 2, 65, 100
4, 3240, Note_on_c, 2, 65, 0
4, 3240, Note_on_c, 2, 63, 100
4, 3360, Note_on_c, 2, 63, 0
4, 3360, Note_on_c, 2, 65, 100
4, 3600, Note_on_c, 2, 65, 0
4, 3600, Note_on_c, 2, 62, 100
4, 3840, Note_on_c, 2, 62, 0
4, 3840, Note_on_c, 2, 63, 100
4, 4080, Note_on_c, 2, 63, 0
4, 4320, Note_on_c, 2, 63, 100
4, 4560, Note_on_c, 2, 63, 0
4, 4800, Note_on_c, 2, 62, 100
4, 5040, Note_on_c, 2, 62, 0
4, 5280, Note_on_c, 2, 62, 100
4, 5520, Note_on_c, 2, 62, 0
4, 6720, Note_on_c, 2, 60, 100
4, 6960, Note_on_c, 2, 60, 0
4, 7200, Note_on_c, 2, 58, 100
4, 7440, Note_on_c, 2, 58, 0
4, 7680, Note_on_c, 2, 57, 100
4, 7920, Note_on_c, 2, 57, 0
4, 8160, Note_on_c, 2, 62, 100
4, 8400, Note_on_c, 2, 62, 0
4, 8640, Note_on_c, 2, 55, 100
4, 8880, Note_on_c, 2, 55, 0
4, 9120, Note_on_c, 2, 65, 100
4, 9360, Note_on_c, 2, 65, 0
4, 9360, Note_on_c, 2, 62, 100
4, 9600, Note_on_c, 2, 62, 0
4, 9600, Note_on_c, 2, 63, 100
4, 9840, Note_on_c, 2, 63, 0
4, 10560, Note_on_c, 2, 62, 100
4, 10680, Note_on_c, 2, 62, 0
4, 19200, Note_on_c, 2, 74, 100
4, 19440, Note_on_c, 2, 74, 0
4, 19440, Note_on_c, 2, 62, 100
4, 19680, Note_on_c, 2, 62, 0
4, 19680, Note_on_c, 2, 67, 100
4, 19920, Note_on_c, 2, 67, 0
4, 19920, Note_on_c, 2, 67, 100
4, 20160, Note_on_c, 2, 67, 0
4, 20160, Note_on_c, 2, 63, 100
4, 20400, Note_on_c, 2, 63, 0
4, 20640, Note_on_c, 2, 65, 100
4, 20880, Note_on_c, 2, 65, 0
4, 20880, Note_on_c, 2, 65, 100
4, 21120, Note_on_c, 2, 65, 0
4, 21120, Note_on_c, 2, 62, 100
4, 21360, Note_on_c, 2, 62, 0
4, 21600, Note_on_c, 2, 63, 100
4, 21840, Note_on_c, 2, 63, 0
4, 21840, Note_on_c, 2, 62, 100
4, 22080, Note_on_c, 2, 62, 0
4, 22080, Note_on_c, 2, 60, 100
4, 22320, Note_on_c, 2, 60, 0
4, 37680, Note_on_c, 2, 69, 100
4, 37920, Note_on_c, 2, 69, 0
4, 37920, Note_on_c, 2, 69, 100
4, 38160, Note_on_c, 2, 69, 0
4, 38160, Note_on_c, 2, 69, 100
4, 38400, Note_on_c, 2, 69, 0
4, 38400, Note_on_c, 2, 69, 100
4, 38640, Note_on_c, 2, 69, 0
4, 38640, Note_on_c, 2, 67, 100
4, 38760, Note_on_c, 2, 67, 0
4, 38760, Note_on_c, 2, 65, 100
4, 38880, Note_on_c, 2, 65, 0
4, 38880, Note_on_c, 2, 67, 100
4, 39120, Note_on_c, 2, 67, 0
4, 39120, Note_on_c, 2, 64, 100
4, 39360, Note_on_c, 2, 64, 0
4, 39360, Note_on_c, 2, 65, 100
4, 39600, Note_on_c, 2, 65, 0
4, 39600, Note_on_c, 2, 62, 100
4, 39840, Note_on_c, 2, 62, 0
4, 39840, Note_on_c, 2, 64, 100
4, 40080, Note_on_c, 2, 64, 0
4, 40080, Note_on_c, 2, 65, 100
4, 40320, Note_on_c, 2, 65, 0
4, 40320, Note_on_c, 2, 67, 100
4, 40560, Note_on_c, 2, 67, 0
4, 40560, Note_on_c, 2, 65, 100
4, 40800, Note_on_c, 2, 65, 0
4, 40800, Note_on_c, 2, 64, 100
4, 41040, Note_on_c, 2, 64, 0
4, 41280, Note_on_c, 2, 64, 100
4, 41520, Note_on_c, 2, 64, 0
4, 41760, Note_on_c, 2, 62, 100
4, 42000, Note_on_c, 2, 62, 0
4, 42000, Note_on_c, 2, 62, 100
4, 42240, Note_on_c, 2, 62, 0
4, 42240, Note_on_c, 2, 62, 100
4, 42480, Note_on_c, 2, 62, 0
4, 42960, Note_on_c, 2, 69, 100
4, 43200, Note_on_c, 2, 69, 0
4, 43200, Note_on_c, 2, 69, 100
4, 43440, Note_on_c, 2, 69, 0
4, 43440, Note_on_c, 2, 67, 100
4, 43560, Note_on_c, 2, 67, 0
4, 43560, Note_on_c, 2, 65, 100
4, 43680, Note_on_c, 2, 65, 0
4, 43680, Note_on_c, 2, 67, 100
4, 43920, Note_on_c, 2, 67, 0
4, 43920, Note_on_c, 2, 64, 100
4, 44160, Note_on_c, 2, 64, 0
4, 44160, Note_on_c, 2, 65, 100
4, 44280, Note_on_c, 2, 65, 0
4, 44280, Note_on_c, 2, 64, 100
4, 44400, Note_on_c, 2, 64, 0
4, 44400, Note_on_c, 2, 62, 100
4, 44520, Note_on_c, 2, 62, 0
4, 44520, Note_on_c, 2, 64, 100
4, 44640, Note_on_c, 2, 64, 0
4, 44640, Note_on_c, 2, 64, 100
4, 45000, Note_on_c, 2, 64, 0
4, 45000, Note_on_c, 2, 62, 100
4, 45120, Note_on_c, 2, 62, 0
4, 45120, Note_on_c, 2, 62, 100
4, 45360, Note_on_c, 2, 62, 0
4, 45360, Note_on_c, 2, 62, 100
4, 45600, Note_on_c, 2, 62, 0
4, 45600, Note_on_c, 2, 62, 100
4, 45840, Note_on_c, 2, 62, 0
4, 45840, Note_on_c, 2, 62, 100
4, 46080, Note_on_c, 2, 62, 0
4, 46080, Note_on_c, 2, 62, 100
4, 46320, Note_on_c, 2, 62, 0
4, 46320, Note_on_c, 2, 60, 100
4, 46440, Note_on_c, 2, 60, 0
4, 46440, Note_on_c, 2, 58, 100
4, 46560, Note_on_c, 2, 58, 0
4, 46560, Note_on_c, 2, 60, 100
4, 46800, Note_on_c, 2, 60, 0
4, 46800, Note_on_c, 2, 57, 100
4, 47040, Note_on_c, 2, 57, 0
4, 47040, Note_on_c, 2, 58, 100
4, 47280, Note_on_c, 2, 58, 0
4, 47520, Note_on_c, 2, 55, 100
4, 47760, Note_on_c, 2, 55, 0
4, 48000, Note_on_c, 2, 57, 100
4, 48240, Note_on_c, 2, 57, 0
4, 48720, Note_on_c, 2, 59, 100
4, 48960, Note_on_c, 2, 59, 0
4, 48960, Note_on_c, 2, 60, 100
4, 49200, Note_on_c, 2, 60, 0
4, 49440, Note_on_c, 2, 57, 100
4, 49680, Note_on_c, 2, 57, 0
4, 49920, Note_on_c, 2, 62, 100
4, 50160, Note_on_c, 2, 62, 0
4, 50880, Note_on_c, 2, 62, 100
4, 51120, Note_on_c, 2, 62, 0
4, 51840, Note_on_c, 2, 56, 100
4, 52080, Note_on_c, 2, 56, 0
4, 52800, Note_on_c, 2, 55, 100
4, 53040, Note_on_c, 2, 55, 0
4, 53280, Note_on_c, 2, 65, 100
4, 53520, Note_on_c, 2, 65, 0
4, 53760, Note_on_c, 2, 70, 100
4, 54000, Note_on_c, 2, 70, 0
4, 54480, Note_on_c, 2, 64, 100
4, 54720, Note_on_c, 2, 64, 0
4, 54720, Note_on_c, 2, 69, 100
4, 54960, Note_on_c, 2, 69, 0
4, 55440, Note_on_c, 2, 62, 100
4, 55680, Note_on_c, 2, 62, 0
4, 55680, Note_on_c, 2, 67, 100
4, 55920, Note_on_c, 2, 67, 0
4, 56160, Note_on_c, 2, 65, 100
4, 56400, Note_on_c, 2, 65, 0
4, 56640, Note_on_c, 2, 64, 100
4, 56880, Note_on_c, 2, 64, 0
4, 57120, Note_on_c, 2, 64, 100
4, 57360, Note_on_c, 2, 64, 0
4, 58560, Note_on_c, 2, 67, 100
4, 58800, Note_on_c, 2, 67, 0
4, 59040, Note_on_c, 2, 65, 100
4, 59280, Note_on_c, 2, 65, 0
4, 59520, Note_on_c, 2, 69, 100
4, 59760, Note_on_c, 2, 69, 0
4, 60000, Note_on_c, 2, 67, 100
4, 60240, Note_on_c, 2, 67, 0
4, 60480, Note_on_c, 2, 67, 100
4, 60720, Note_on_c, 2, 67, 0
4, 61200, Note_on_c, 2, 67, 100
4, 61440, Note_on_c, 2, 67, 0
4, 61440, Note_on_c, 2, 65, 100
4, 61680, Note_on_c, 2, 65, 0
4, 62160, Note_on_c, 2, 69, 100
4, 62400, Note_on_c, 2, 69, 0
4, 62400, Note_on_c, 2, 70, 100
4, 62640, Note_on_c, 2, 70, 0
4, 62880, Note_on_c, 2, 69, 100
4, 63120, Note_on_c, 2, 69, 0
4, 63360, Note_on_c, 2, 67, 100
4, 63600, Note_on_c, 2, 67, 0
4, 66000, Note_on_c, 2, 74, 100
4, 66240, Note_on_c, 2, 74, 0
4, 66240, Note_on_c, 2, 74, 100
4, 67200, Note_on_c, 2, 74, 0
4, 67200, Note_on_c, 2, 73, 100
4, 68160, Note_on_c, 2, 73, 0
4, 68160, Note_on_c, 2, 74, 100
4, 69120, Note_on_c, 2, 74, 0
4, 69120, Note_on_c, 2, 74, 100
4, 69360, Note_on_c, 2, 74, 0
4, 69360, Note_on_c, 2, 73, 100
4, 69600, Note_on_c, 2, 73, 0
4, 69600, Note_on_c, 2, 74, 100
4, 69840, Note_on_c, 2, 74, 0
4, 69840, Note_on_c, 2, 71, 100
4, 70080, Note_on_c, 2, 71, 0
4, 70080, Note_on_c, 2, 73, 100
4, 71040, Note_on_c, 2, 73, 0
4, 71040, Note_on_c, 2, 74, 100
4, 71280, Note_on_c, 2, 74, 0
4, 71280, Note_on_c, 2, 73, 100
4, 71520, Note_on_c, 2, 73, 0
4, 71520, Note_on_c, 2, 74, 100
4, 71760, Note_on_c, 2, 74, 0
4, 71760, Note_on_c, 2, 76, 100
4, 72000, Note_on_c, 2, 76, 0
4, 72000, Note_on_c, 2, 77, 100
4, 72240, Note_on_c, 2, 77, 0
4, 72240, Note_on_c, 2, 79, 100
4, 72480, Note_on_c, 2, 79, 0
4, 72480, Note_on_c, 2, 77, 100
4, 72720, Note_on_c, 2, 77, 0
4, 72720, Note_on_c, 2, 76, 100
4, 72960, Note_on_c, 2, 76, 0
4, 72960, Note_on_c, 2, 74, 100
4, 73200, Note_on_c, 2, 74, 0
4, 73200, Note_on_c, 2, 73, 100
4, 73440, Note_on_c, 2, 73, 0
4, 73440, Note_on_c, 2, 74, 100
4, 73680, Note_on_c, 2, 74, 0
4, 73680, Note_on_c, 2, 76, 100
4, 73920, Note_on_c, 2, 76, 0
4, 73920, Note_on_c, 2, 77, 100
4, 74160, Note_on_c, 2, 77, 0
4, 74160, Note_on_c, 2, 76, 100
4, 74400, Note_on_c, 2, 76, 0
4, 74400, Note_on_c, 2, 77, 100
4, 74640, Note_on_c, 2, 77, 0
4, 74640, Note_on_c, 2, 74, 100
4, 74880, Note_on_c, 2, 74, 0
4, 74880, Note_on_c, 2, 76, 100
4, 75120, Note_on_c, 2, 76, 0
4, 75120, Note_on_c, 2, 74, 100
4, 75360, Note_on_c, 2, 74, 0
4, 75360, Note_on_c, 2, 76, 100
4, 75600, Note_on_c, 2, 76, 0
4, 75600, Note_on_c, 2, 77, 100
4, 75840, Note_on_c, 2, 77, 0
4, 75840, Note_on_c, 2, 79, 100
4, 76080, Note_on_c, 2, 79, 0
4, 76080, Note_on_c, 2, 81, 100
4, 76320, Note_on_c, 2, 81, 0
4, 76320, Note_on_c, 2, 79, 100
4, 76560, Note_on_c, 2, 79, 0
4, 76560, Note_on_c, 2, 77, 100
4, 76800, Note_on_c, 2, 77, 0
4, 76800, Note_on_c, 2, 76, 100
4, 77040, Note_on_c, 2, 76, 0
4, 77040, Note_on_c, 2, 74, 100
4, 77280, Note_on_c, 2, 74, 0
4, 77280, Note_on_c, 2, 76, 100
4, 77520, Note_on_c, 2, 76, 0
4, 77520, Note_on_c, 2, 77, 100
4, 77760, Note_on_c, 2, 77, 0
4, 77760, Note_on_c, 2, 79, 100
4, 78000, Note_on_c, 2, 79, 0
4, 78000, Note_on_c, 2, 77, 100
4, 78240, Note_on_c, 2, 77, 0
4, 78240, Note_on_c, 2, 79, 100
4, 78480, Note_on_c, 2, 79, 0
4, 78480, Note_on_c, 2, 76, 100
4, 78720, Note_on_c, 2, 76, 0
4, 80640, Note_on_c, 2, 55, 100
4, 80760, Note_on_c, 2, 55, 0
4, 80760, Note_on_c, 2, 67, 100
4, 80880, Note_on_c, 2, 67, 0
4, 80880, Note_on_c, 2, 70, 100
4, 81000, Note_on_c, 2, 70, 0
4, 81000, Note_on_c, 2, 74, 100
4, 81120, Note_on_c, 2, 74, 0
4, 81120, Note_on_c, 2, 79, 100
4, 81240, Note_on_c, 2, 79, 0
4, 81240, Note_on_c, 2, 74, 100
4, 81360, Note_on_c, 2, 74, 0
4, 81360, Note_on_c, 2, 70, 100
4, 81480, Note_on_c, 2, 70, 0
4, 81480, Note_on_c, 2, 67, 100
4, 81600, Note_on_c, 2, 67, 0
4, 81600, Note_on_c, 2, 62, 100
4, 81720, Note_on_c, 2, 62, 0
4, 81720, Note_on_c, 2, 79, 100
4, 81840, Note_on_c, 2, 79, 0
4, 81840, Note_on_c, 2, 77, 100
4, 81960, Note_on_c, 2, 77, 0
4, 81960, Note_on_c, 2, 75, 100
4, 82080, Note_on_c, 2, 75, 0
4, 82080, Note_on_c, 2, 77, 100
4, 82200, Note_on_c, 2, 77, 0
4, 82200, Note_on_c, 2, 74, 100
4, 82320, Note_on_c, 2, 74, 0
4, 82320, Note_on_c, 2, 71, 100
4, 82440, Note_on_c, 2, 71, 0
4, 82440, Note_on_c, 2, 67, 100
4, 82560, Note_on_c, 2, 67, 0
4, 84480, Note_on_c, 2, 65, 100
4, 84600, Note_on_c, 2, 65, 0
4, 84600, Note_on_c, 2, 72, 100
4, 84720, Note_on_c, 2, 72, 0
4, 84720, Note_on_c, 2, 77, 100
4, 84840, Note_on_c, 2, 77, 0
4, 84840, Note_on_c, 2, 79, 100
4, 84960, Note_on_c, 2, 79, 0
4, 84960, Note_on_c, 2, 80, 100
4, 85080, Note_on_c, 2, 80, 0
4, 85080, Note_on_c, 2, 77, 100
4, 85200, Note_on_c, 2, 77, 0
4, 85200, Note_on_c, 2, 74, 100
4, 85320, Note_on_c, 2, 74, 0
4, 85320, Note_on_c, 2, 70, 100
4, 85440, Note_on_c, 2, 70, 0
4, 86400, Note_on_c, 2, 77, 100
4, 86520, Note_on_c, 2, 77, 0
4, 86520, Note_on_c, 2, 74, 100
4, 86640, Note_on_c, 2, 74, 0
4, 86640, Note_on_c, 2, 71, 100
4, 86760, Note_on_c, 2, 71, 0
4, 86760, Note_on_c, 2, 67, 100
4, 86880, Note_on_c, 2, 67, 0
4, 87360, Note_on_c, 2, 73, 100
4, 87480, Note_on_c, 2, 73, 0
4, 87480, Note_on_c, 2, 70, 100
4, 87600, Note_on_c, 2, 70, 0
4, 87600, Note_on_c, 2, 67, 100
4, 87720, Note_on_c, 2, 67, 0
4, 87720, Note_on_c, 2, 63, 100
4, 87840, Note_on_c, 2, 63, 0
4, 88320, Note_on_c, 2, 55, 100
4, 88440, Note_on_c, 2, 55, 0
4, 88440, Note_on_c, 2, 62, 100
4, 88560, Note_on_c, 2, 62, 0
4, 88560, Note_on_c, 2, 65, 100
4, 88680, Note_on_c, 2, 65, 0
4, 88680, Note_on_c, 2, 71, 100
4, 88800, Note_on_c, 2, 71, 0
4, 88800, Note_on_c, 2, 74, 100
4, 88920, Note_on_c, 2, 74, 0
4, 88920, Note_on_c, 2, 71, 100
4, 89040, Note_on_c, 2, 71, 0
4, 89040, Note_on_c, 2, 65, 100
4, 89160, Note_on_c, 2, 65, 0
4, 89160, Note_on_c, 2, 62, 100
4, 89280, Note_on_c, 2, 62, 0
4, 90240, Note_on_c, 2, 55, 100
4, 90360, Note_on_c, 2, 55, 0
4, 90360, Note_on_c, 2, 60, 100
4, 90480, Note_on_c, 2, 60, 0
4, 90480, Note_on_c, 2, 63, 100
4, 90600, Note_on_c, 2, 63, 0
4, 90600, Note_on_c, 2, 67, 100
4, 90720, Note_on_c, 2, 67, 0
4, 90720, Note_on_c, 2, 72, 100
4, 90840, Note_on_c, 2, 72, 0
4, 90840, Note_on_c, 2, 67, 100
4, 90960, Note_on_c, 2, 67, 0
4, 90960, Note_on_c, 2, 63, 100
4, 91080, Note_on_c, 2, 63, 0
4, 91080, Note_on_c, 2, 60, 100
4, 91200, Note_on_c, 2, 60, 0
4, 92160, Note_on_c, 2, 56, 100
4, 92280, Note_on_c, 2, 56, 0
4, 92280, Note_on_c, 2, 60, 100
4, 92400, Note_on_c, 2, 60, 0
4, 92400, Note_on_c, 2, 63, 100
4, 92520, Note_on_c, 2, 63, 0
4, 92520, Note_on_c, 2, 67, 100
4, 92640, Note_on_c, 2, 67, 0
4, 92640, Note_on_c, 2, 72, 100
4, 92760, Note_on_c, 2, 72, 0
4, 92760, Note_on_c, 2, 67, 100
4, 92880, Note_on_c, 2, 67, 0
4, 92880, Note_on_c, 2, 63, 100
4, 93000, Note_on_c, 2, 63, 0
4, 93000, Note_on_c, 2, 60, 100
4, 93120, Note_on_c, 2, 60, 0
4, 94080, Note_on_c, 2, 57, 100
4, 94200, Note_on_c, 2, 57, 0
4, 94200, Note_on_c, 2, 62, 100
4, 94320, Note_on_c, 2, 62, 0
4, 94320, Note_on_c, 2, 66, 100
4, 94440, Note_on_c, 2, 66, 0
4, 94440, Note_on_c, 2, 69, 100
4, 94560, Note_on_c, 2, 69, 0
4, 94560, Note_on_c, 2, 72, 100
4, 94680, Note_on_c, 2, 72, 0
4, 94680, Note_on_c, 2, 69, 100
4, 94800, Note_on_c, 2, 69, 0
4, 94800, Note_on_c, 2, 66, 100
4, 94920, Note_on_c, 2, 66, 0
4, 94920, Note_on_c, 2, 62, 100
4, 95040, Note_on_c, 2, 62, 0
4, 96000, Note_on_c, 2, 55, 100
4, 96120, Note_on_c, 2, 55, 0
4, 96120, Note_on_c, 2, 60, 100
4, 96240, Note_on_c, 2, 60, 0
4, 96240, Note_on_c, 2, 63, 100
4, 96360, Note_on_c, 2, 63, 0
4, 96360, Note_on_c, 2, 67, 100
4, 96480, Note_on_c, 2, 67, 0
4, 96480, Note_on_c, 2, 72, 100
4, 96600, Note_on_c, 2, 72, 0
4, 96600, Note_on_c, 2, 75, 100
4, 96720, Note_on_c, 2, 75, 0
4, 96720, Note_on_c, 2, 73, 100
4, 96840, Note_on_c, 2, 73, 0
4, 96840, Note_on_c, 2, 71, 100
4, 96960, Note_on_c, 2, 71, 0
4, 96960, Note_on_c, 2, 72, 100
4, 97080, Note_on_c, 2, 72, 0
4, 97080, Note_on_c, 2, 82, 100
4, 97200, Note_on_c, 2, 82, 0
4, 97200, Note_on_c, 2, 80, 100
4, 97320, Note_on_c, 2, 80, 0
4, 97320, Note_on_c, 2, 78, 100
4, 97440, Note_on_c, 2, 78, 0
4, 97440, Note_on_c, 2, 79, 100
4, 97560, Note_on_c, 2, 79, 0
4, 97560, Note_on_c, 2, 77, 100
4, 97680, Note_on_c, 2, 77, 0
4, 97680, Note_on_c, 2, 76, 100
4, 97800, Note_on_c, 2, 76, 0
4, 97800, Note_on_c, 2, 77, 100
4, 97920, Note_on_c, 2, 77, 0
4, 97920, Note_on_c, 2, 77, 100
4, 98160, Note_on_c, 2, 77, 0
4, 98400, Note_on_c, 2, 84, 100
4, 98640, Note_on_c, 2, 84, 0
4, 98880, Note_on_c, 2, 84, 100
4, 99120, Note_on_c, 2, 84, 0
4, 99360, Note_on_c, 2, 83, 100
4, 99600, Note_on_c, 2, 83, 0
4, 99600, Note_on_c, 2, 86, 100
4, 99840, Note_on_c, 2, 86, 0
4, 100560, Note_on_c, 2, 79, 100
4, 100800, Note_on_c, 2, 79, 0
4, 100800, Note_on_c, 2, 79, 100
4, 101040, Note_on_c, 2, 79, 0
4, 101040, Note_on_c, 2, 77, 100
4, 101160, Note_on_c, 2, 77, 0
4, 101160, Note_on_c, 2, 75, 100
4, 101280, Note_on_c, 2, 75, 0
4, 101280, Note_on_c, 2, 77, 100
4, 101520, Note_on_c, 2, 77, 0
4, 101520, Note_on_c, 2, 74, 100
4, 101760, Note_on_c, 2, 74, 0
4, 101760, Note_on_c, 2, 75, 100
4, 102000, Note_on_c, 2, 75, 0
4, 102000, Note_on_c, 2, 74, 100
4, 102120, Note_on_c, 2, 74, 0
4, 102120, Note_on_c, 2, 72, 100
4, 102240, Note_on_c, 2, 72, 0
4, 102240, Note_on_c, 2, 73, 100
4, 102480, Note_on_c, 2, 73, 0
4, 102480, Note_on_c, 2, 71, 100
4, 102720, Note_on_c, 2, 71, 0
4, 102720, Note_on_c, 2, 72, 100
4, 103080, Note_on_c, 2, 72, 0
4, 103080, Note_on_c, 2, 74, 100
4, 103200, Note_on_c, 2, 74, 0
4, 103200, Pitch_bend_c, 2, 12288
4, 103200, Note_on_c, 2, 71, 100
4, 103240, Pitch_bend_c, 2, 8192
4, 103280, Pitch_bend_c, 2, 12288
4, 103320, Pitch_bend_c, 2, 8192
4, 103560, Note_on_c, 2, 71, 0
4, 103560, Note_on_c, 2, 72, 100
4, 103680, Note_on_c, 2, 72, 0
4, 103680, Note_on_c, 2, 72, 100
4, 103920, Note_on_c, 2, 72, 0
4, 103920, Note_on_c, 2, 60, 100
4, 104160, Note_on_c, 2, 60, 0
4, 104160, Note_on_c, 2, 60, 100
4, 104400, Note_on_c, 2, 60, 0
4, 104400, Note_on_c, 2, 60, 100
4, 104640, Note_on_c, 2, 60, 0
4, 104640, Note_on_c, 2, 60, 100
4, 104880, Note_on_c, 2, 60, 0
4, 104880, Note_on_c, 2, 58, 100
4, 105000, Note_on_c, 2, 58, 0
4, 105000, Note_on_c, 2, 57, 100
4, 105120, Note_on_c, 2, 57, 0
4, 105120, Note_on_c, 2, 58, 100
4, 105360, Note_on_c, 2, 58, 0
4, 105360, Note_on_c, 2, 55, 100
4, 105600, Note_on_c, 2, 55, 0
4, 105600, Note_on_c, 2, 57, 100
4, 105840, Note_on_c, 2, 57, 0
4, 106080, Note_on_c, 2, 65, 100
4, 106320, Note_on_c, 2, 65, 0
4, 106320, Note_on_c, 2, 65, 100
4, 106560, Note_on_c, 2, 65, 0
4, 106560, Note_on_c, 2, 65, 100
4, 106800, Note_on_c, 2, 65, 0
4, 106800, Note_on_c, 2, 63, 100
4, 106920, Note_on_c, 2, 63, 0
4, 106920, Note_on_c, 2, 62, 100
4, 107040, Note_on_c, 2, 62, 0
4, 107040, Note_on_c, 2, 63, 100
4, 107280, Note_on_c, 2, 63, 0
4, 107280, Note_on_c, 2, 60, 100
4, 107520, Note_on_c, 2, 60, 0
4, 107520, Note_on_c, 2, 62, 100
4, 107760, Note_on_c, 2, 62, 0
4, 108000, Note_on_c, 2, 55, 100
4, 108240, Note_on_c, 2, 55, 0
4, 108480, Note_on_c, 2, 60, 100
4, 108720, Note_on_c, 2, 60, 0
4, 109200, Note_on_c, 2, 65, 100
4, 109440, Note_on_c, 2, 65, 0
4, 109680, Note_on_c, 2, 74, 100
4, 109920, Note_on_c, 2, 74, 0
4, 109920, Note_on_c, 2, 74, 100
4, 110160, Note_on_c, 2, 74, 0
4, 110160, Note_on_c, 2, 74, 100
4, 110400, Note_on_c, 2, 74, 0
4, 110400, Note_on_c, 2, 74, 100
4, 110640, Note_on_c, 2, 74, 0
4, 110640, Note_on_c, 2, 72, 100
4, 110760, Note_on_c, 2, 72, 0
4, 110760, Note_on_c, 2, 70, 100
4, 110880, Note_on_c, 2, 70, 0
4, 110880, Note_on_c, 2, 72, 100
4, 111120, Note_on_c, 2, 72, 0
4, 111120, Note_on_c, 2, 74, 100
4, 111360, Note_on_c, 2, 74, 0
4, 111360, Note_on_c, 2, 75, 100
4, 111600, Note_on_c, 2, 75, 0
4, 111600, Note_on_c, 2, 75, 100
4, 111840, Note_on_c, 2, 75, 0
4, 111840, Note_on_c, 2, 75, 100
4, 112080, Note_on_c, 2, 75, 0
4, 112080, Note_on_c, 2, 75, 100
4, 112320, Note_on_c, 2, 75, 0
4, 112320, Note_on_c, 2, 75, 100
4, 112560, Note_on_c, 2, 75, 0
4, 112560, Note_on_c, 2, 74, 100
4, 112680, Note_on_c, 2, 74, 0
4, 112680, Note_on_c, 2, 72, 100
4, 112800, Note_on_c, 2, 72, 0
4, 112800, Note_on_c, 2, 74, 100
4, 113040, Note_on_c, 2, 74, 0
4, 113040, Note_on_c, 2, 75, 100
4, 113280, Note_on_c, 2, 75, 0
4, 115440, Note_on_c, 2, 74, 100
4, 115680, Note_on_c, 2, 74, 0
4, 115680, Note_on_c, 2, 74, 100
4, 115920, Note_on_c, 2, 74, 0
4, 115920, Note_on_c, 2, 74, 100
4, 116160, Note_on_c, 2, 74, 0
4, 116160, Note_on_c, 2, 74, 100
4, 116400, Note_on_c, 2, 74, 0
4, 116400, Note_on_c, 2, 75, 100
4, 116520, Note_on_c, 2, 75, 0
4, 116520, Note_on_c, 2, 74, 100
4, 116640, Note_on_c, 2, 74, 0
4, 116640, Note_on_c, 2, 72, 100
4, 116880, Note_on_c, 2, 72, 0
4, 116880, Note_on_c, 2, 70, 100
4, 117120, Note_on_c, 2, 70, 0
4, 117120, Note_on_c, 2, 69, 100
4, 117360, Note_on_c, 2, 69, 0
4, 117360, Note_on_c, 2, 77, 100
4, 117600, Note_on_c, 2, 77, 0
4, 117600, Note_on_c, 2, 77, 100
4, 117840, Note_on_c, 2, 77, 0
4, 117840, Note_on_c, 2, 77, 100
4, 118080, Note_on_c, 2, 77, 0
4, 118080, Note_on_c, 2, 77, 100
4, 118320, Note_on_c, 2, 77, 0
4, 118320, Note_on_c, 2, 79, 100
4, 118440, Note_on_c, 2, 79, 0
4, 118440, Note_on_c, 2, 77, 100
4, 118560, Note_on_c, 2, 77, 0
4, 118560, Note_on_c, 2, 75, 100
4, 118800, Note_on_c, 2, 75, 0
4, 118800, Note_on_c, 2, 74, 100
4, 119040, Note_on_c, 2, 74, 0
4, 119040, Note_on_c, 2, 79, 100
4, 119280, Note_on_c, 2, 79, 0
4, 119280, Note_on_c, 2, 81, 100
4, 119400, Note_on_c, 2, 81, 0
4, 119400, Note_on_c, 2, 82, 100
4, 119520, Note_on_c, 2, 82, 0
4, 119520, Note_on_c, 2, 82, 100
4, 119640, Note_on_c, 2, 82, 0
4, 119640, Note_on_c, 2, 81, 100
4, 119760, Note_on_c, 2, 81, 0
4, 119760, Note_on_c, 2, 79, 100
4, 119880, Note_on_c, 2, 79, 0
4, 119880, Note_on_c, 2, 77, 100
4, 120000, Note_on_c, 2, 77, 0
4, 120000, Note_on_c, 2, 82, 100
4, 120240, Note_on_c, 2, 82, 0
4, 120240, Note_on_c, 2, 77, 100
4, 120480, Note_on_c, 2, 77, 0
4, 120480, Note_on_c, 2, 75, 100
4, 120600, Note_on_c, 2, 75, 0
4, 120600, Note_on_c, 2, 74, 100
4, 120720, Note_on_c, 2, 74, 0
4, 120720, Note_on_c, 2, 72, 100
4, 120840, Note_on_c, 2, 72, 0
4, 120840, Note_on_c, 2, 70, 100
4, 120960, Note_on_c, 2, 70, 0
4, 122880, Note_on_c, 2, 63, 100
4, 123000, Note_on_c, 2, 63, 0
4, 123000, Note_on_c, 2, 74, 100
4, 123120, Note_on_c, 2, 74, 0
4, 123120, Note_on_c, 2, 79, 100
4, 123240, Note_on_c, 2, 79, 0
4, 123240, Note_on_c, 2, 77, 100
4, 123360, Note_on_c, 2, 77, 0
4, 123360, Note_on_c, 2, 75, 100
4, 123480, Note_on_c, 2, 75, 0
4, 123480, Note_on_c, 2, 74, 100
4, 123600, Note_on_c, 2, 74, 0
4, 123600, Note_on_c, 2, 72, 100
4, 123720, Note_on_c, 2, 72, 0
4, 123720, Note_on_c, 2, 70, 100
4, 123840, Note_on_c, 2, 70, 0
4, 123840, Note_on_c, 2, 69, 100
4, 123960, Note_on_c, 2, 69, 0
4, 123960, Note_on_c, 2, 72, 100
4, 124080, Note_on_c, 2, 72, 0
4, 124080, Note_on_c, 2, 67, 100
4, 124200, Note_on_c, 2, 67, 0
4, 124200, Note_on_c, 2, 72, 100
4, 124320, Note_on_c, 2, 72, 0
4, 124320, Note_on_c, 2, 66, 100
4, 124440, Note_on_c, 2, 66, 0
4, 124440, Note_on_c, 2, 72, 100
4, 124560, Note_on_c, 2, 72, 0
4, 124560, Note_on_c, 2, 64, 100
4, 124680, Note_on_c, 2, 64, 0
4, 124680, Note_on_c, 2, 72, 100
4, 124800, Note_on_c, 2, 72, 0
4, 126720, Note_on_c, 2, 65, 100
4, 126840, Note_on_c, 2, 65, 0
4, 126840, Note_on_c, 2, 58, 100
4, 126960, Note_on_c, 2, 58, 0
4, 126960, Note_on_c, 2, 74, 100
4, 127080, Note_on_c, 2, 74, 0
4, 127080, Note_on_c, 2, 65, 100
4, 127200, Note_on_c, 2, 65, 0
4, 127200, Note_on_c, 2, 63, 100
4, 127320, Note_on_c, 2, 63, 0
4, 127320, Note_on_c, 2, 62, 100
4, 127440, Note_on_c, 2, 62, 0
4, 127440, Note_on_c, 2, 63, 100
4, 127560, Note_on_c, 2, 63, 0
4, 127560, Note_on_c, 2, 60, 100
4, 127680, Note_on_c, 2, 60, 0
4, 127680, Note_on_c, 2, 62, 100
4, 127800, Note_on_c, 2, 62, 0
4, 127800, Note_on_c, 2, 55, 100
4, 127920, Note_on_c, 2, 55, 0
4, 127920, Note_on_c, 2, 70, 100
4, 128040, Note_on_c, 2, 70, 0
4, 128040, Note_on_c, 2, 62, 100
4, 128160, Note_on_c, 2, 62, 0
4, 128160, Note_on_c, 2, 63, 100
4, 128280, Note_on_c, 2, 63, 0
4, 128280, Note_on_c, 2, 60, 100
4, 128400, Note_on_c, 2, 60, 0
4, 128400, Note_on_c, 2, 72, 100
4, 128520, Note_on_c, 2, 72, 0
4, 128520, Note_on_c, 2, 64, 100
4, 128640, Note_on_c, 2, 64, 0
4, 128640, Note_on_c, 2, 66, 100
4, 128760, Note_on_c, 2, 66, 0
4, 128760, Note_on_c, 2, 62, 100
4, 128880, Note_on_c, 2, 62, 0
4, 128880, Note_on_c, 2, 69, 100
4, 129000, Note_on_c, 2, 69, 0
4, 129000, Note_on_c, 2, 66, 100
4, 129120, Note_on_c, 2, 66, 0
4, 129120, Note_on_c, 2, 72, 100
4, 129240, Note_on_c, 2, 72, 0
4, 129240, Note_on_c, 2, 69, 100
4, 129360, Note_on_c, 2, 69, 0
4, 129360, Note_on_c, 2, 75, 100
4, 129480, Note_on_c, 2, 75, 0
4, 129480, Note_on_c, 2, 72, 100
4, 129600, Note_on_c, 2, 72, 0
4, 129600, Note_on_c, 2, 78, 100
4, 129720, Note_on_c, 2, 78, 0
4, 129720, Note_on_c, 2, 72, 100
4, 129840, Note_on_c, 2, 72, 0
4, 129840, Note_on_c, 2, 81, 100
4, 129960, Note_on_c, 2, 81, 0
4, 129960, Note_on_c, 2, 78, 100
4, 130080, Note_on_c, 2, 78, 0
4, 130080, Note_on_c, 2, 75, 100
4, 130200, Note_on_c, 2, 75, 0
4, 130200, Note_on_c, 2, 72, 100
4, 130320, Note_on_c, 2, 72, 0
4, 130320, Note_on_c, 2, 69, 100
4, 130440, Note_on_c, 2, 69, 0
4, 130440, Note_on_c, 2, 66, 100
4, 130560, Note_on_c, 2, 66, 0
4, 131520, Note_on_c, 2, 62, 70
4, 131640, Note_on_c, 2, 62, 0
4, 131640, Note_on_c, 2, 72, 70
4, 131760, Note_on_c, 2, 72, 0
4, 131760, Note_on_c, 2, 78, 70
4, 131880, Note_on_c, 2, 78, 0
4, 131880, Note_on_c, 2, 72, 70
4, 132000, Note_on_c, 2, 72, 0
4, 132000, Note_on_c, 2, 78, 70
4, 132120, Note_on_c, 2, 78, 0
4, 132120, Note_on_c, 2, 72, 70
4, 132240, Note_on_c, 2, 72, 0
4, 132240, Note_on_c, 2, 81, 70
4, 132360, Note_on_c, 2, 81, 0
4, 132360, Note_on_c, 2, 72, 70
4, 132480, Note_on_c, 2, 72, 0
4, 133440, Note_on_c, 2, 62, 70
4, 133560, Note_on_c, 2, 62, 0
4, 133560, Note_on_c, 2, 70, 70
4, 133680, Note_on_c, 2, 70, 0
4, 133680, Note_on_c, 2, 74, 70
4, 133800, Note_on_c, 2, 74, 0
4, 133800, Note_on_c, 2, 70, 70
4, 133920, Note_on_c, 2, 70, 0
4, 133920, Note_on_c, 2, 74, 70
4, 134040, Note_on_c, 2, 74, 0
4, 134040, Note_on_c, 2, 70, 70
4, 134160, Note_on_c, 2, 70, 0
4, 134160, Note_on_c, 2, 79, 70
4, 134280, Note_on_c, 2, 79, 0
4, 134280, Note_on_c, 2, 70, 70
4, 134400, Note_on_c, 2, 70, 0
4, 135360, Note_on_c, 2, 62, 70
4, 135480, Note_on_c, 2, 62, 0
4, 135480, Note_on_c, 2, 74, 70
4, 135600, Note_on_c, 2, 74, 0
4, 135600, Note_on_c, 2, 78, 70
4, 135720, Note_on_c, 2, 78, 0
4, 135720, Note_on_c, 2, 74, 70
4, 135840, Note_on_c, 2, 74, 0
4, 135840, Note_on_c, 2, 78, 70
4, 135960, Note_on_c, 2, 78, 0
4, 135960, Note_on_c, 2, 74, 70
4, 136080, Note_on_c, 2, 74, 0
4, 136080, Note_on_c, 2, 84, 70
4, 136200, Note_on_c, 2, 84, 0
4, 136200, Note_on_c, 2, 74, 70
4, 136320, Note_on_c, 2, 74, 0
4, 137280, Note_on_c, 2, 62, 70
4, 137400, Note_on_c, 2, 62, 0
4, 137400, Note_on_c, 2, 74, 70
4, 137520, Note_on_c, 2, 74, 0
4, 137520, Note_on_c, 2, 79, 70
4, 137640, Note_on_c, 2, 79, 0
4, 137640, Note_on_c, 2, 74, 70
4, 137760, Note_on_c, 2, 74, 0
4, 137760, Note_on_c, 2, 79, 70
4, 137880, Note_on_c, 2, 79, 0
4, 137880, Note_on_c, 2, 74, 70
4, 138000, Note_on_c, 2, 74, 0
4, 138000, Note_on_c, 2, 82, 70
4, 138120, Note_on_c, 2, 82, 0
4, 138120, Note_on_c, 2, 74, 70
4, 138240, Note_on_c, 2, 74, 0
4, 139200, Note_on_c, 2, 62, 70
4, 139320, Note_on_c, 2, 62, 0
4, 139320, Note_on_c, 2, 73, 70
4, 139440, Note_on_c, 2, 73, 0
4, 139440, Note_on_c, 2, 76, 70
4, 139560, Note_on_c, 2, 76, 0
4, 139560, Note_on_c, 2, 73, 70
4, 139680, Note_on_c, 2, 73, 0
4, 139680, Note_on_c, 2, 76, 70
4, 139800, Note_on_c, 2, 76, 0
4, 139800, Note_on_c, 2, 73, 70
4, 139920, Note_on_c, 2, 73, 0
4, 139920, Note_on_c, 2, 82, 70
4, 140040, Note_on_c, 2, 82, 0
4, 140880, Note_on_c, 2, 70, 100
4, 141120, Note_on_c, 2, 70, 0
4, 141120, Note_on_c, 2, 67, 100
4, 141360, Note_on_c, 2, 67, 0
4, 141840, Note_on_c, 2, 69, 100
4, 142080, Note_on_c, 2, 69, 0
4, 142080, Note_on_c, 2, 66, 100
4, 142320, Note_on_c, 2, 66, 0
4, 142800, Note_on_c, 2, 67, 100
4, 143040, Note_on_c, 2, 67, 0
4, 143040, Note_on_c, 2, 63, 100
4, 143280, Note_on_c, 2, 63, 0
4, 143520, Note_on_c, 2, 64, 100
4, 143760, Note_on_c, 2, 64, 0
4, 144000, Note_on_c, 2, 62, 100
4, 144240, Note_on_c, 2, 62, 0
4, 144960, Note_on_c, 2, 60, 100
4, 145200, Note_on_c, 2, 60, 0
4, 145920, Note_on_c, 2, 58, 100
4, 146160, Note_on_c, 2, 58, 0
4, 146880, Note_on_c, 2, 57, 100
4, 147000, Note_on_c, 2, 57, 0
4, 147840, Note_on_c, 2, 55, 100
4, 147960, Note_on_c, 2, 55, 0
4, 148800, Note_on_c, 2, 55, 100
4, 148920, Note_on_c, 2, 55, 0
4, 149760, Note_on_c, 2, 57, 100
4, 149880, Note_on_c, 2, 57, 0
4, 151680, Note_on_c, 2, 58, 100
4, 151920, Note_on_c, 2, 58, 0
4, 152160, Note_on_c, 2, 59, 100
4, 152400, Note_on_c, 2, 59, 0
4, 152640, Note_on_c, 2, 60, 100
4, 152880, Note_on_c, 2, 60, 0
4, 153600, Note_on_c, 2, 62, 100
4, 153840, Note_on_c, 2, 62, 0
4, 154560, Note_on_c, 2, 62, 100
4, 154800, Note_on_c, 2, 62, 0
4, 155520, Note_on_c, 2, 64, 100
4, 155760, Note_on_c, 2, 64, 0
4, 156480, Note_on_c, 2, 62, 100
4, 156720, Note_on_c, 2, 62, 0
4, 156720, Note_on_c, 2, 62, 100
4, 156960, Note_on_c, 2, 62, 0
4, 156960, Note_on_c, 2, 62, 100
4, 157200, Note_on_c, 2, 62, 0
4, 157200, Note_on_c, 2, 62, 100
4, 157440, Note_on_c, 2, 62, 0
4, 157440, Note_on_c, 2, 62, 100
4, 157680, Note_on_c, 2, 62, 0
4, 157680, Note_on_c, 2, 60, 100
4, 157800, Note_on_c, 2, 60, 0
4, 157800, Note_on_c, 2, 58, 100
4, 157920, Note_on_c, 2, 58, 0
4, 157920, Note_on_c, 2, 60, 100
4, 158160, Note_on_c, 2, 60, 0
4, 158160, Note_on_c, 2, 57, 100
4, 158400, Note_on_c, 2, 57, 0
4, 158400, Note_on_c, 2, 59, 100
4, 158640, Note_on_c, 2, 59, 0
4, 158640, Note_on_c, 2, 60, 100
4, 158760, Note_on_c, 2, 60, 0
4, 158760, Note_on_c, 2, 59, 100
4, 158880, Note_on_c, 2, 59, 0
4, 158880, Note_on_c, 2, 60, 100
4, 159120, Note_on_c, 2, 60, 0
4, 159120, Note_on_c, 2, 55, 100
4, 159360, Note_on_c, 2, 55, 0
4, 159360, Note_on_c, 2, 57, 100
4, 159600, Note_on_c, 2, 57, 0
4, 159600, Note_on_c, 2, 58, 100
4, 159720, Note_on_c, 2, 58, 0
4, 159720, Note_on_c, 2, 57, 100
4, 159840, Note_on_c, 2, 57, 0
4, 159840, Note_on_c, 2, 58, 100
4, 160080, Note_on_c, 2, 58, 0
4, 160080, Note_on_c, 2, 62, 100
4, 160320, Note_on_c, 2, 62, 0
4, 160320, Note_on_c, 2, 63, 100
4, 160560, Note_on_c, 2, 63, 0
4, 161040, Note_on_c, 2, 63, 100
4, 161280, Note_on_c, 2, 63, 0
4, 161280, Note_on_c, 2, 62, 100
4, 161520, Note_on_c, 2, 62, 0
4, 162000, Note_on_c, 2, 62, 100
4, 162240, Note_on_c, 2, 62, 0
4, 162240, Note_on_c, 2, 62, 100
4, 162480, Note_on_c, 2, 62, 0
4, 162960, Note_on_c, 2, 62, 100
4, 163200, Note_on_c, 2, 62, 0
4, 163200, Note_on_c, 2, 63, 100
4, 163440, Note_on_c, 2, 63, 0
4, 163440, Note_on_c, 2, 62, 100
4, 163680, Note_on_c, 2, 62, 0
4, 163680, Note_on_c, 2, 62, 100
4, 163920, Note_on_c, 2, 62, 0
4, 163920, Note_on_c, 2, 61, 100
4, 164160, Note_on_c, 2, 61, 0
4, 164160, Note_on_c, 2, 62, 100
4, 164400, Note_on_c, 2, 62, 0
4, 167040, Note_on_c, 2, 55, 100
4, 167160, Note_on_c, 2, 55, 0
4, 167160, Note_on_c, 2, 67, 100
4, 167280, Note_on_c, 2, 67, 0
4, 167280, Note_on_c, 2, 72, 100
4, 167400, Note_on_c, 2, 72, 0
4, 167400, Note_on_c, 2, 74, 100
4, 167520, Note_on_c, 2, 74, 0
4, 167520, Note_on_c, 2, 75, 100
4, 167640, Note_on_c, 2, 75, 0
4, 167640, Note_on_c, 2, 72, 100
4, 167760, Note_on_c, 2, 72, 0
4, 167760, Note_on_c, 2, 68, 100
4, 167880, Note_on_c, 2, 68, 0
4, 167880, Note_on_c, 2, 67, 100
4, 168000, Note_on_c, 2, 67, 0
4, 168000, Note_on_c, 2, 66, 100
4, 168120, Note_on_c, 2, 66, 0
4, 168120, Note_on_c, 2, 75, 100
4, 168240, Note_on_c, 2, 75, 0
4, 168240, Note_on_c, 2, 74, 100
4, 168360, Note_on_c, 2, 74, 0
4, 168360, Note_on_c, 2, 72, 100
4, 168480, Note_on_c, 2, 72, 0
4, 168480, Note_on_c, 2, 74, 100
4, 168600, Note_on_c, 2, 74, 0
4, 168600, Note_on_c, 2, 70, 100
4, 168720, Note_on_c, 2, 70, 0
4, 168720, Note_on_c, 2, 67, 100
4, 168840, Note_on_c, 2, 67, 0
4, 168840, Note_on_c, 2, 65, 100
4, 168960, Note_on_c, 2, 65, 0
4, 169920, Note_on_c, 2, 57, 100
4, 170040, Note_on_c, 2, 57, 0
4, 170040, Note_on_c, 2, 60, 100
4, 170160, Note_on_c, 2, 60, 0
4, 170160, Note_on_c, 2, 66, 100
4, 170280, Note_on_c, 2, 66, 0
4, 170280, Note_on_c, 2, 69, 100
4, 170400, Note_on_c, 2, 69, 0
4, 170400, Note_on_c, 2, 72, 100
4, 170520, Note_on_c, 2, 72, 0
4, 170520, Note_on_c, 2, 75, 100
4, 170640, Note_on_c, 2, 75, 0
4, 170640, Note_on_c, 2, 78, 100
4, 170760, Note_on_c, 2, 78, 0
4, 170760, Note_on_c, 2, 81, 100
4, 170880, Note_on_c, 2, 81, 0
4, 171840, Note_on_c, 2, 60, 100
4, 171960, Note_on_c, 2, 60, 0
4, 171960, Note_on_c, 2, 63, 100
4, 172080, Note_on_c, 2, 63, 0
4, 172080, Note_on_c, 2, 67, 100
4, 172200, Note_on_c, 2, 67, 0
4, 172200, Note_on_c, 2, 72, 100
4, 172320, Note_on_c, 2, 72, 0
4, 172320, Note_on_c, 2, 75, 100
4, 172440, Note_on_c, 2, 75, 0
4, 172440, Note_on_c, 2, 79, 100
4, 172560, Note_on_c, 2, 79, 0
4, 172560, Note_on_c, 2, 81, 100
4, 172680, Note_on_c, 2, 81, 0
4, 172680, Note_on_c, 2, 84, 100
4, 172800, Note_on_c, 2, 84, 0
4, 176640, Note_on_c, 2, 72, 100
4, 177360, Note_on_c, 2, 72, 0
4, 178320, Note_on_c, 2, 79, 100
4, 178560, Note_on_c, 2, 79, 0
4, 178560, Note_on_c, 2, 79, 100
4, 178740, Note_on_c, 2, 81, 100
4, 178750, Note_on_c, 2, 79, 0
4, 178800, Note_on_c, 2, 81, 0
4, 178800, Note_on_c, 2, 79, 100
4, 178860, Note_on_c, 2, 79, 0
4, 178860, Note_on_c, 2, 78, 100
4, 178920, Note_on_c, 2, 78, 0
4, 178920, Note_on_c, 2, 79, 100
4, 178950, Note_on_c, 2, 79, 0
4, 178950, Note_on_c, 2, 76, 100
4, 178980, Note_on_c, 2, 76, 0
4, 178980, Note_on_c, 2, 78, 100
4, 179040, Note_on_c, 2, 78, 0
4, 179040, Pitch_bend_c, 2, 12288
4, 179040, Note_on_c, 2, 78, 100
4, 179070, Pitch_bend_c, 2, 8192
4, 179100, Pitch_bend_c, 2, 12288
4, 179130, Pitch_bend_c, 2, 8192
4, 179160, Pitch_bend_c, 2, 12288
4, 179180, Pitch_bend_c, 2, 8192
4, 179200, Pitch_bend_c, 2, 12288
4, 179220, Pitch_bend_c, 2, 8192
4, 179240, Pitch_bend_c, 2, 12288
4, 179260, Pitch_bend_c, 2, 8192
4, 179280, Pitch_bend_c, 2, 12288
4, 179295, Pitch_bend_c, 2, 8192
4, 179310, Pitch_bend_c, 2, 12288
4, 179325, Pitch_bend_c, 2, 8192
4, 179400, Note_on_c, 2, 78, 0
4, 179400, Note_on_c, 2, 79, 100
4, 179520, Note_on_c, 2, 79, 0
4, 179520, Note_on_c, 2, 79, 100
4, 180480, Note_on_c, 2, 79, 0
4, 180480, End_track
5, 0, Start_track
5, 0, MIDI_port, 0
5, 0, Title_t, "Six Sonatas and Partitas for Solo Violin"
5, 0, Program_c, 3, 40
5, 0, Control_c, 3, 7, 100
5, 0, Control_c, 3, 10, 49
5, 41280, Note_on_c, 3, 57, 100
5, 41520, Note_on_c, 3, 57, 0
5, 42240, Note_on_c, 3, 55, 100
5, 42480, Note_on_c, 3, 55, 0
5, 42960, Note_on_c, 3, 57, 100
5, 43200, Note_on_c, 3, 57, 0
5, 43200, Note_on_c, 3, 58, 100
5, 43440, Note_on_c, 3, 58, 0
5, 43920, Note_on_c, 3, 55, 100
5, 44160, Note_on_c, 3, 55, 0
5, 44160, Note_on_c, 3, 57, 100
5, 44400, Note_on_c, 3, 57, 0
5, 57120, Note_on_c, 3, 57, 100
5, 57360, Note_on_c, 3, 57, 0
5, 57600, Note_on_c, 3, 62, 100
5, 57840, Note_on_c, 3, 62, 0
5, 58080, Note_on_c, 3, 62, 100
5, 58320, Note_on_c, 3, 62, 0
5, 58560, Note_on_c, 3, 61, 100
5, 58800, Note_on_c, 3, 61, 0
5, 59040, Note_on_c, 3, 62, 100
5, 59280, Note_on_c, 3, 62, 0
5, 59520, Note_on_c, 3, 58, 100
5, 59760, Note_on_c, 3, 58, 0
5, 60000, Note_on_c, 3, 58, 100
5, 60240, Note_on_c, 3, 58, 0
5, 60480, Note_on_c, 3, 57, 100
5, 60720, Note_on_c, 3, 57, 0
5, 61200, Note_on_c, 3, 57, 100
5, 61440, Note_on_c, 3, 57, 0
5, 61440, Note_on_c, 3, 57, 100
5, 61680, Note_on_c, 3, 57, 0
5, 97920, Note_on_c, 3, 55, 100
5, 98160, Note_on_c, 3, 55, 0
5, 98880, Note_on_c, 3, 55, 100
5, 99120, Note_on_c, 3, 55, 0
5, 99840, Note_on_c, 3, 55, 100
5, 100080, Note_on_c, 3, 55, 0
5, 100800, Note_on_c, 3, 55, 100
5, 101040, Note_on_c, 3, 55, 0
5, 108000, Note_on_c, 3, 67, 100
5, 108240, Note_on_c, 3, 67, 0
5, 108480, Note_on_c, 3, 67, 100
5, 108720, Note_on_c, 3, 67, 0
5, 109680, Note_on_c, 3, 65, 100
5, 109920, Note_on_c, 3, 65, 0
5, 109920, Note_on_c, 3, 65, 100
5, 110160, Note_on_c, 3, 65, 0
5, 110160, Note_on_c, 3, 65, 100
5, 110400, Note_on_c, 3, 65, 0
5, 110400, Note_on_c, 3, 65, 100
5, 110640, Note_on_c, 3, 65, 0
5, 111600, Note_on_c, 3, 67, 100
5, 111840, Note_on_c, 3, 67, 0
5, 111840, Note_on_c, 3, 67, 100
5, 112080, Note_on_c, 3, 67, 0
5, 112080, Note_on_c, 3, 67, 100
5, 112320, Note_on_c, 3, 67, 0
5, 112320, Note_on_c, 3, 67, 100
5, 112560, Note_on_c, 3, 67, 0
5, 113280, Note_on_c, 3, 65, 100
5, 113520, Note_on_c, 3, 65, 0
5, 113760, Note_on_c, 3, 63, 100
5, 114000, Note_on_c, 3, 63, 0
5, 114240, Note_on_c, 3, 62, 100
5, 114480, Note_on_c, 3, 62, 0
5, 118080, Note_on_c, 3, 55, 100
5, 118320, Note_on_c, 3, 55, 0
5, 118560, Note_on_c, 3, 57, 100
5, 118800, Note_on_c, 3, 57, 0
5, 118800, Note_on_c, 3, 58, 100
5, 119040, Note_on_c, 3, 58, 0
5, 119040, Note_on_c, 3, 63, 100
5, 119280, Note_on_c, 3, 63, 0
5, 119520, Note_on_c, 3, 72, 100
5, 119760, Note_on_c, 3, 72, 0
5, 120240, Note_on_c, 3, 62, 100
5, 120480, Note_on_c, 3, 62, 0
5, 120480, Note_on_c, 3, 65, 100
5, 120720, Note_on_c, 3, 65, 0
5, 140880, Note_on_c, 3, 74, 100
5, 141120, Note_on_c, 3, 74, 0
5, 141120, Note_on_c, 3, 75, 100
5, 141360, Note_on_c, 3, 75, 0
5, 141840, Note_on_c, 3, 69, 100
5, 142080, Note_on_c, 3, 69, 0
5, 142080, Note_on_c, 3, 74, 100
5, 142320, Note_on_c, 3, 74, 0
5, 142800, Note_on_c, 3, 74, 100
5, 143040, Note_on_c, 3, 74, 0
5, 143040, Note_on_c, 3, 74, 100
5, 143280, Note_on_c, 3, 74, 0
5, 143520, Note_on_c, 3, 73, 100
5, 143760, Note_on_c, 3, 73, 0
5, 144000, Note_on_c, 3, 72, 100
5, 144240, Note_on_c, 3, 72, 0
5, 144480, Note_on_c, 3, 70, 100
5, 144720, Note_on_c, 3, 70, 0
5, 144960, Note_on_c, 3, 70, 100
5, 145200, Note_on_c, 3, 70, 0
5, 157920, Note_on_c, 3, 62, 100
5, 158160, Note_on_c, 3, 62, 0
5, 158400, Note_on_c, 3, 67, 100
5, 158640, Note_on_c, 3, 67, 0
5, 158880, Note_on_c, 3, 67, 100
5, 159120, Note_on_c, 3, 67, 0
5, 159360, Note_on_c, 3, 65, 100
5, 159600, Note_on_c, 3, 65, 0
5, 159840, Note_on_c, 3, 65, 100
5, 160080, Note_on_c, 3, 65, 0
5, 160080, Note_on_c, 3, 74, 100
5, 160320, Note_on_c, 3, 74, 0
5, 160320, Note_on_c, 3, 74, 100
5, 160560, Note_on_c, 3, 74, 0
5, 160560, Note_on_c, 3, 72, 100
5, 160680, Note_on_c, 3, 72, 0
5, 160680, Note_on_c, 3, 70, 100
5, 160800, Note_on_c, 3, 70, 0
5, 160800, Note_on_c, 3, 72, 100
5, 161040, Note_on_c, 3, 72, 0
5, 161040, Note_on_c, 3, 72, 100
5, 161280, Note_on_c, 3, 72, 0
5, 161280, Note_on_c, 3, 72, 100
5, 161520, Note_on_c, 3, 72, 0
5, 161520, Note_on_c, 3, 75, 100
5, 161640, Note_on_c, 3, 75, 0
5, 161640, Note_on_c, 3, 72, 100
5, 161760, Note_on_c, 3, 72, 0
5, 161760, Note_on_c, 3, 74, 100
5, 162000, Note_on_c, 3, 74, 0
5, 162000, Note_on_c, 3, 69, 100
5, 162240, Note_on_c, 3, 69, 0
5, 162240, Note_on_c, 3, 70, 100
5, 162480, Note_on_c, 3, 70, 0
5, 162480, Note_on_c, 3, 75, 100
5, 162600, Note_on_c, 3, 75, 0
5, 162600, Note_on_c, 3, 72, 100
5, 162720, Note_on_c, 3, 72, 0
5, 162720, Note_on_c, 3, 74, 100
5, 162960, Note_on_c, 3, 74, 0
5, 162960, Note_on_c, 3, 69, 100
5, 163200, Note_on_c, 3, 69, 0
5, 163200, Note_on_c, 3, 69, 100
5, 163440, Note_on_c, 3, 69, 0
5, 163440, Note_on_c, 3, 70, 100
5, 163680, Note_on_c, 3, 70, 0
5, 163680, Note_on_c, 3, 70, 100
5, 163920, Note_on_c, 3, 70, 0
5, 163920, Note_on_c, 3, 69, 100
5, 164160, Note_on_c, 3, 69, 0
5, 164160, Note_on_c, 3, 70, 100
5, 164520, Note_on_c, 3, 70, 0
5, 164520, Note_on_c, 3, 72, 100
5, 164640, Note_on_c, 3, 72, 0
5, 164640, Note_on_c, 3, 69, 100
5, 165000, Note_on_c, 3, 69, 0
5, 179520, Note_on_c, 3, 55, 100
5, 180480, Note_on_c, 3, 55, 0
5, 180480, End_track
6, 0, Start_track
6, 0, MIDI_port, 0
6, 0, Title_t, "--------------------------------------"
6, 0, Program_c, 4, 40
6, 0, Control_c, 4, 7, 100
6, 0, Control_c, 4, 10, 64
6, 71040, Note_on_c, 4, 77, 80
6, 71040, Note_on_c, 4, 74, 80
6, 71160, Note_on_c, 4, 74, 0
6, 71160, Note_on_c, 4, 77, 0
6, 71160, Note_on_c, 4, 62, 80
6, 71280, Note_on_c, 4, 62, 0
6, 71280, Note_on_c, 4, 76, 80
6, 71280, Note_on_c, 4, 73, 80
6, 71400, Note_on_c, 4, 73, 0
6, 71400, Note_on_c, 4, 76, 0
6, 71400, Note_on_c, 4, 62, 80
6, 71520, Note_on_c, 4, 62, 0
6, 71520, Note_on_c, 4, 77, 80
6, 71520, Note_on_c, 4, 74, 80
6, 71640, Note_on_c, 4, 74, 0
6, 71640, Note_on_c, 4, 77, 0
6, 71640, Note_on_c, 4, 62, 80
6, 71760, Note_on_c, 4, 62, 0
6, 71760, Note_on_c, 4, 79, 80
6, 71760, Note_on_c, 4, 76, 80
6, 71880, Note_on_c, 4, 76, 0
6, 71880, Note_on_c, 4, 79, 0
6, 71880, Note_on_c, 4, 62, 80
6, 72000, Note_on_c, 4, 62, 0
6, 72000, Note_on_c, 4, 81, 80
6, 72000, Note_on_c, 4, 77, 80
6, 72120, Note_on_c, 4, 77, 0
6, 72120, Note_on_c, 4, 81, 0
6, 72120, Note_on_c, 4, 62, 80
6, 72240, Note_on_c, 4, 62, 0
6, 72240, Note_on_c, 4, 82, 80
6, 72240, Note_on_c, 4, 79, 80
6, 72360, Note_on_c, 4, 79, 0
6, 72360, Note_on_c, 4, 82, 0
6, 72360, Note_on_c, 4, 62, 80
6, 72480, Note_on_c, 4, 62, 0
6, 72480, Note_on_c, 4, 81, 80
6, 72480, Note_on_c, 4, 77, 80
6, 72600, Note_on_c, 4, 77, 0
6, 72600, Note_on_c, 4, 81, 0
6, 72600, Note_on_c, 4, 62, 80
6, 72720, Note_on_c, 4, 62, 0
6, 72720, Note_on_c, 4, 79, 80
6, 72720, Note_on_c, 4, 76, 80
6, 72840, Note_on_c, 4, 76, 0
6, 72840, Note_on_c, 4, 79, 0
6, 72840, Note_on_c, 4, 62, 80
6, 72960, Note_on_c, 4, 62, 0
6, 72960, Note_on_c, 4, 77, 80
6, 72960, Note_on_c, 4, 74, 80
6, 73080, Note_on_c, 4, 74, 0
6, 73080, Note_on_c, 4, 77, 0
6, 73080, Note_on_c, 4, 62, 80
6, 73200, Note_on_c, 4, 62, 0
6, 73200, Note_on_c, 4, 76, 80
6, 73200, Note_on_c, 4, 73, 80
6, 73320, Note_on_c, 4, 73, 0
6, 73320, Note_on_c, 4, 76, 0
6, 73320, Note_on_c, 4, 62, 80
6, 73440, Note_on_c, 4, 62, 0
6, 73440, Note_on_c, 4, 77, 80
6, 73440, Note_on_c, 4, 74, 80
6, 73560, Note_on_c, 4, 74, 0
6, 73560, Note_on_c, 4, 77, 0
6, 73560, Note_on_c, 4, 62, 80
6, 73680, Note_on_c, 4, 62, 0
6, 73680, Note_on_c, 4, 79, 80
6, 73680, Note_on_c, 4, 76, 80
6, 73800, Note_on_c, 4, 76, 0
6, 73800, Note_on_c, 4, 79, 0
6, 73800, Note_on_c, 4, 62, 80
6, 73920, Note_on_c, 4, 62, 0
6, 73920, Note_on_c, 4, 81, 80
6, 73920, Note_on_c, 4, 77, 80
6, 74040, Note_on_c, 4, 77, 0
6, 74040, Note_on_c, 4, 81, 0
6, 74040, Note_on_c, 4, 62, 80
6, 74160, Note_on_c, 4, 62, 0
6, 74160, Note_on_c, 4, 79, 80
6, 74160, Note_on_c, 4, 76, 80
6, 74280, Note_on_c, 4, 76, 0
6, 74280, Note_on_c, 4, 79, 0
6, 74280, Note_on_c, 4, 62, 80
6, 74400, Note_on_c, 4, 62, 0
6, 74400, Note_on_c, 4, 81, 80
6, 74400, Note_on_c, 4, 77, 80
6, 74520, Note_on_c, 4, 77, 0
6, 74520, Note_on_c, 4, 81, 0
6, 74520, Note_on_c, 4, 62, 80
6, 74640, Note_on_c, 4, 62, 0
6, 74640, Note_on_c, 4, 83, 80
6, 74640, Note_on_c, 4, 74, 80
6, 74760, Note_on_c, 4, 74, 0
6, 74760, Note_on_c, 4, 83, 0
6, 74760, Note_on_c, 4, 62, 80
6, 74880, Note_on_c, 4, 62, 0
6, 74880, Note_on_c, 4, 85, 80
6, 74880, Note_on_c, 4, 76, 80
6, 75000, Note_on_c, 4, 76, 0
6, 75000, Note_on_c, 4, 85, 0
6, 75000, Note_on_c, 4, 62, 80
6, 75120, Note_on_c, 4, 62, 0
6, 75120, Note_on_c, 4, 74, 80
6, 75120, Note_on_c, 4, 83, 80
6, 75240, Note_on_c, 4, 83, 0
6, 75240, Note_on_c, 4, 74, 0
6, 75240, Note_on_c, 4, 62, 80
6, 75360, Note_on_c, 4, 62, 0
6, 75360, Note_on_c, 4, 85, 80
6, 75360, Note_on_c, 4, 76, 80
6, 75480, Note_on_c, 4, 76, 0
6, 75480, Note_on_c, 4, 85, 0
6, 75480, Note_on_c, 4, 62, 80
6, 75600, Note_on_c, 4, 62, 0
6, 75600, Note_on_c, 4, 86, 80
6, 75600, Note_on_c, 4, 77, 80
6, 75720, Note_on_c, 4, 77, 0
6, 75720, Note_on_c, 4, 86, 0
6, 75720, Note_on_c, 4, 62, 80
6, 75840, Note_on_c, 4, 62, 0
6, 75840, Note_on_c, 4, 79, 80
6, 75840, Note_on_c, 4, 88, 80
6, 75960, Note_on_c, 4, 88, 0
6, 75960, Note_on_c, 4, 79, 0
6, 75960, Note_on_c, 4, 62, 80
6, 76080, Note_on_c, 4, 62, 0
6, 76080, Note_on_c, 4, 89, 80
6, 76080, Note_on_c, 4, 81, 80
6, 76200, Note_on_c, 4, 81, 0
6, 76200, Note_on_c, 4, 89, 0
6, 76200, Note_on_c, 4, 62, 80
6, 76320, Note_on_c, 4, 62, 0
6, 76320, Note_on_c, 4, 88, 80
6, 76320, Note_on_c, 4, 79, 80
6, 76440, Note_on_c, 4, 79, 0
6, 76440, Note_on_c, 4, 88, 0
6, 76440, Note_on_c, 4, 62, 80
6, 76560, Note_on_c, 4, 62, 0
6, 76560, Note_on_c, 4, 77, 80
6, 76560, Note_on_c, 4, 86, 80
6, 76680, Note_on_c, 4, 86, 0
6, 76680, Note_on_c, 4, 77, 0
6, 76680, Note_on_c, 4, 62, 80
6, 76800, Note_on_c, 4, 62, 0
6, 76800, Note_on_c, 4, 85, 80
6, 76800, Note_on_c, 4, 76, 80
6, 76920, Note_on_c, 4, 76, 0
6, 76920, Note_on_c, 4, 85, 0
6, 76920, Note_on_c, 4, 62, 80
6, 77040, Note_on_c, 4, 62, 0
6, 77040, Note_on_c, 4, 83, 80
6, 77040, Note_on_c, 4, 74, 80
6, 77160, Note_on_c, 4, 74, 0
6, 77160, Note_on_c, 4, 83, 0
6, 77160, Note_on_c, 4, 62, 80
6, 77280, Note_on_c, 4, 62, 0
6, 77280, Note_on_c, 4, 76, 80
6, 77280, Note_on_c, 4, 85, 80
6, 77400, Note_on_c, 4, 85, 0
6, 77400, Note_on_c, 4, 76, 0
6, 77400, Note_on_c, 4, 62, 80
6, 77520, Note_on_c, 4, 62, 0
6, 77520, Note_on_c, 4, 86, 80
6, 77520, Note_on_c, 4, 77, 80
6, 77640, Note_on_c, 4, 77, 0
6, 77640, Note_on_c, 4, 86, 0
6, 77640, Note_on_c, 4, 62, 80
6, 77760, Note_on_c, 4, 62, 0
6, 77760, Note_on_c, 4, 88, 80
6, 77760, Note_on_c, 4, 79, 80
6, 77880, Note_on_c, 4, 79, 0
6, 77880, Note_on_c, 4, 88, 0
6, 77880, Note_on_c, 4, 62, 80
6, 78000, Note_on_c, 4, 62, 0
6, 78000, Note_on_c, 4, 77, 80
6, 78000, Note_on_c, 4, 86, 80
6, 78120, Note_on_c, 4, 86, 0
6, 78120, Note_on_c, 4, 77, 0
6, 78120, Note_on_c, 4, 62, 80
6, 78240, Note_on_c, 4, 62, 0
6, 78240, Note_on_c, 4, 88, 80
6, 78240, Note_on_c, 4, 79, 80
6, 78360, Note_on_c, 4, 79, 0
6, 78360, Note_on_c, 4, 88, 0
6, 78360, Note_on_c, 4, 62, 80
6, 78480, Note_on_c, 4, 62, 0
6, 78480, Note_on_c, 4, 85, 80
6, 78480, Note_on_c, 4, 76, 80
6, 78600, Note_on_c, 4, 76, 0
6, 78600, Note_on_c, 4, 85, 0
6, 78600, Note_on_c, 4, 62, 80
6, 78720, Note_on_c, 4, 62, 0
6, 78720, End_track
7, 0, Start_track
7, 0, MIDI_port, 0
7, 0, Title_t, "Sonata No. 1 in G minor - BWV 1001"
7, 0, End_track
8, 0, Start_track
8, 0, MIDI_port, 0
8, 0, Title_t, "2nd Movement: Fuga"
8, 0, End_track
9, 0, Start_track
9, 0, MIDI_port, 0
9, 0, Title_t, "--------------------------------------"
9, 0, End_track
10, 0, Start_track
10, 0, MIDI_port, 0
10, 0, Title_t, "Sequenced with Cakewalk Pro Audio by"
10, 0, End_track
11, 0, Start_track
11, 0, MIDI_port, 0
11, 0, Title_t, "David J. Grossman - dave@unpronounceable.com"
11, 0, End_track
12, 0, Start_track
12, 0, MIDI_port, 0
12, 0, Title_t, "This and other Bach MIDI files can be found at:"
12, 0, End_track
13, 0, Start_track
13, 0, MIDI_port, 0
13, 0, Title_t, "Dave's J.S. Bach Page"
13, 0, End_track
14, 0, Start_track
14, 0, MIDI_port, 0
14, 0, Title_t, "http://www.unpronounceable.com/bach"
14, 0, End_track
15, 0, Start_track
15, 0, MIDI_port, 0
15, 0, Title_t, "--------------------------------------"
15, 0, End_track
16, 0, Start_track
16, 0, MIDI_port, 0
16, 0, Title_t, "Original Filename: vs1-2fug.mid"
16, 0, End_track
17, 0, Start_track
17, 0, MIDI_port, 0
17, 0, Title_t, "Last Modified: February 22, 1997"
17, 0, End_track
0, 0, End_of_file
